{"metadata": {"schema_version": "0.1", "title": "RWC-MDB-P-2001 No. 68: Nichiyoubi / Makiko Hattori", "copyright": "RWC Music Database. Copyright (C) 2001 Real World Computing Partnership (contact: Masataka GOTO <m.goto@aist.go.jp>)", "source_filename": "RM-P068.SMF_SYNC.MID", "source_format": "midi"}, "resolution": 480, "tempos": [{"time": 0, "qpm": 58.8235294117647}, {"time": 480, "qpm": 92.3076923076923}, {"time": 1920, "qpm": 90.9090909090909}, {"time": 2400, "qpm": 92.3076923076923}, {"time": 3840, "qpm": 90.9090909090909}, {"time": 4320, "qpm": 92.3076923076923}, {"time": 5760, "qpm": 90.9090909090909}, {"time": 6240, "qpm": 92.3076923076923}, {"time": 7680, "qpm": 90.9090909090909}, {"time": 8160, "qpm": 93.75}, {"time": 8640, "qpm": 90.9090909090909}, {"time": 9120, "qpm": 92.3076923076923}, {"time": 10560, "qpm": 90.9090909090909}, {"time": 11040, "qpm": 92.3076923076923}, {"time": 12480, "qpm": 90.9090909090909}, {"time": 12960, "qpm": 92.3076923076923}, {"time": 14400, "qpm": 90.9090909090909}, {"time": 14880, "qpm": 93.75}, {"time": 15360, "qpm": 90.9090909090909}, {"time": 15840, "qpm": 92.3076923076923}, {"time": 16320, "qpm": 90.9090909090909}, {"time": 16800, "qpm": 93.75}, {"time": 17280, "qpm": 90.9090909090909}, {"time": 17760, "qpm": 93.75}, {"time": 18240, "qpm": 90.9090909090909}, {"time": 18720, "qpm": 92.3076923076923}, {"time": 20160, "qpm": 90.9090909090909}, {"time": 20640, "qpm": 92.3076923076923}, {"time": 22080, "qpm": 90.9090909090909}, {"time": 22560, "qpm": 92.3076923076923}, {"time": 23040, "qpm": 90.9090909090909}, {"time": 23520, "qpm": 93.75}, {"time": 24000, "qpm": 90.9090909090909}, {"time": 24480, "qpm": 92.3076923076923}, {"time": 24960, "qpm": 90.9090909090909}, {"time": 25440, "qpm": 93.75}, {"time": 25920, "qpm": 90.9090909090909}, {"time": 26400, "qpm": 92.3076923076923}, {"time": 27840, "qpm": 90.9090909090909}, {"time": 28320, "qpm": 93.75}, {"time": 28800, "qpm": 90.9090909090909}, {"time": 29280, "qpm": 92.3076923076923}, {"time": 30240, "qpm": 90.9090909090909}, {"time": 30720, "qpm": 92.3076923076923}, {"time": 32640, "qpm": 90.9090909090909}, {"time": 33120, "qpm": 93.75}, {"time": 33600, "qpm": 90.9090909090909}, {"time": 34080, "qpm": 92.3076923076923}, {"time": 36000, "qpm": 90.9090909090909}, {"time": 36480, "qpm": 92.3076923076923}, {"time": 37440, "qpm": 90.9090909090909}, {"time": 37920, "qpm": 92.3076923076923}, {"time": 39360, "qpm": 90.9090909090909}, {"time": 39840, "qpm": 92.3076923076923}, {"time": 42240, "qpm": 90.9090909090909}, {"time": 42720, "qpm": 92.3076923076923}, {"time": 45120, "qpm": 90.9090909090909}, {"time": 45600, "qpm": 92.3076923076923}, {"time": 46080, "qpm": 90.9090909090909}, {"time": 46560, "qpm": 93.75}, {"time": 47040, "qpm": 90.9090909090909}, {"time": 47520, "qpm": 92.3076923076923}, {"time": 48000, "qpm": 90.9090909090909}, {"time": 48480, "qpm": 92.3076923076923}, {"time": 50880, "qpm": 90.9090909090909}, {"time": 51360, "qpm": 92.3076923076923}, {"time": 53280, "qpm": 90.9090909090909}, {"time": 53760, "qpm": 92.3076923076923}, {"time": 55200, "qpm": 90.9090909090909}, {"time": 55680, "qpm": 92.3076923076923}, {"time": 57600, "qpm": 90.9090909090909}, {"time": 58080, "qpm": 92.3076923076923}, {"time": 60960, "qpm": 90.9090909090909}, {"time": 61920, "qpm": 93.75}, {"time": 62400, "qpm": 92.3076923076923}, {"time": 62880, "qpm": 90.9090909090909}, {"time": 63840, "qpm": 93.75}, {"time": 64320, "qpm": 90.9090909090909}, {"time": 64800, "qpm": 93.75}, {"time": 65280, "qpm": 90.9090909090909}, {"time": 65760, "qpm": 92.3076923076923}, {"time": 66720, "qpm": 90.9090909090909}, {"time": 67200, "qpm": 92.3076923076923}, {"time": 69120, "qpm": 90.9090909090909}, {"time": 69600, "qpm": 92.3076923076923}, {"time": 70560, "qpm": 90.9090909090909}, {"time": 71040, "qpm": 92.3076923076923}, {"time": 71520, "qpm": 93.75}, {"time": 72000, "qpm": 90.9090909090909}, {"time": 72480, "qpm": 92.3076923076923}, {"time": 73920, "qpm": 90.9090909090909}, {"time": 74400, "qpm": 92.3076923076923}, {"time": 76320, "qpm": 90.9090909090909}, {"time": 76800, "qpm": 92.3076923076923}, {"time": 78240, "qpm": 90.9090909090909}, {"time": 78720, "qpm": 92.3076923076923}, {"time": 80640, "qpm": 90.9090909090909}, {"time": 81120, "qpm": 92.3076923076923}, {"time": 82560, "qpm": 90.9090909090909}, {"time": 83040, "qpm": 92.3076923076923}, {"time": 85440, "qpm": 90.9090909090909}, {"time": 85920, "qpm": 92.3076923076923}, {"time": 87840, "qpm": 90.9090909090909}, {"time": 88320, "qpm": 92.3076923076923}, {"time": 89760, "qpm": 90.9090909090909}, {"time": 90720, "qpm": 93.75}, {"time": 91200, "qpm": 90.9090909090909}, {"time": 91680, "qpm": 92.3076923076923}, {"time": 93600, "qpm": 90.9090909090909}, {"time": 94080, "qpm": 92.3076923076923}, {"time": 96000, "qpm": 90.9090909090909}, {"time": 96480, "qpm": 92.3076923076923}, {"time": 97920, "qpm": 90.9090909090909}, {"time": 98400, "qpm": 93.75}, {"time": 98880, "qpm": 90.9090909090909}, {"time": 99360, "qpm": 92.3076923076923}, {"time": 99840, "qpm": 90.9090909090909}, {"time": 100320, "qpm": 93.75}, {"time": 100800, "qpm": 90.9090909090909}, {"time": 101280, "qpm": 92.3076923076923}, {"time": 102720, "qpm": 90.9090909090909}, {"time": 103200, "qpm": 93.75}, {"time": 103680, "qpm": 90.9090909090909}, {"time": 104160, "qpm": 92.3076923076923}, {"time": 104640, "qpm": 90.9090909090909}, {"time": 105120, "qpm": 92.3076923076923}, {"time": 105600, "qpm": 90.9090909090909}, {"time": 106080, "qpm": 93.75}, {"time": 106560, "qpm": 90.9090909090909}, {"time": 107040, "qpm": 93.75}, {"time": 107520, "qpm": 90.9090909090909}, {"time": 108000, "qpm": 92.3076923076923}, {"time": 108480, "qpm": 90.9090909090909}, {"time": 108960, "qpm": 93.75}, {"time": 109440, "qpm": 90.9090909090909}, {"time": 109920, "qpm": 92.3076923076923}, {"time": 111360, "qpm": 90.9090909090909}, {"time": 111840, "qpm": 93.75}, {"time": 112320, "qpm": 90.9090909090909}, {"time": 112800, "qpm": 92.3076923076923}, {"time": 113280, "qpm": 90.9090909090909}, {"time": 113760, "qpm": 92.3076923076923}, {"time": 114240, "qpm": 93.75}, {"time": 114720, "qpm": 90.9090909090909}, {"time": 115200, "qpm": 92.3076923076923}, {"time": 116640, "qpm": 90.9090909090909}, {"time": 117120, "qpm": 92.3076923076923}, {"time": 119040, "qpm": 90.9090909090909}, {"time": 119520, "qpm": 92.3076923076923}, {"time": 120000, "qpm": 90.9090909090909}, {"time": 120480, "qpm": 92.3076923076923}, {"time": 122400, "qpm": 90.9090909090909}, {"time": 122880, "qpm": 92.3076923076923}, {"time": 124800, "qpm": 90.9090909090909}, {"time": 125280, "qpm": 92.3076923076923}, {"time": 127680, "qpm": 90.9090909090909}, {"time": 128160, "qpm": 92.3076923076923}, {"time": 128640, "qpm": 90.9090909090909}, {"time": 129120, "qpm": 93.75}, {"time": 129600, "qpm": 90.9090909090909}, {"time": 130080, "qpm": 92.3076923076923}, {"time": 131520, "qpm": 90.9090909090909}, {"time": 132000, "qpm": 92.3076923076923}, {"time": 134400, "qpm": 90.9090909090909}, {"time": 134880, "qpm": 92.3076923076923}, {"time": 136320, "qpm": 90.9090909090909}, {"time": 136800, "qpm": 92.3076923076923}, {"time": 138240, "qpm": 90.9090909090909}, {"time": 138720, "qpm": 93.75}, {"time": 139200, "qpm": 90.9090909090909}, {"time": 139680, "qpm": 92.3076923076923}, {"time": 141120, "qpm": 90.9090909090909}, {"time": 141600, "qpm": 92.3076923076923}, {"time": 143520, "qpm": 90.9090909090909}, {"time": 144480, "qpm": 93.75}, {"time": 144960, "qpm": 92.3076923076923}, {"time": 145440, "qpm": 90.9090909090909}, {"time": 146400, "qpm": 93.75}, {"time": 146880, "qpm": 92.3076923076923}, {"time": 147840, "qpm": 90.9090909090909}, {"time": 148320, "qpm": 92.3076923076923}, {"time": 149760, "qpm": 90.9090909090909}, {"time": 150240, "qpm": 92.3076923076923}, {"time": 151680, "qpm": 90.9090909090909}, {"time": 152160, "qpm": 93.75}, {"time": 152640, "qpm": 90.9090909090909}, {"time": 153120, "qpm": 92.3076923076923}, {"time": 153600, "qpm": 90.9090909090909}, {"time": 154080, "qpm": 93.75}, {"time": 154560, "qpm": 90.9090909090909}, {"time": 155040, "qpm": 92.3076923076923}, {"time": 156960, "qpm": 90.9090909090909}, {"time": 157440, "qpm": 92.3076923076923}, {"time": 158880, "qpm": 90.9090909090909}, {"time": 159360, "qpm": 92.3076923076923}, {"time": 161760, "qpm": 90.9090909090909}, {"time": 162240, "qpm": 92.3076923076923}, {"time": 163200, "qpm": 90.9090909090909}, {"time": 163680, "qpm": 93.75}, {"time": 164160, "qpm": 90.9090909090909}, {"time": 164640, "qpm": 92.3076923076923}, {"time": 165120, "qpm": 90.9090909090909}, {"time": 165600, "qpm": 92.3076923076923}, {"time": 168000, "qpm": 90.9090909090909}, {"time": 168480, "qpm": 92.3076923076923}, {"time": 170400, "qpm": 90.9090909090909}, {"time": 170880, "qpm": 92.3076923076923}, {"time": 172320, "qpm": 90.9090909090909}, {"time": 172800, "qpm": 92.3076923076923}, {"time": 174720, "qpm": 90.9090909090909}, {"time": 175200, "qpm": 92.3076923076923}, {"time": 176640, "qpm": 90.9090909090909}, {"time": 177120, "qpm": 92.3076923076923}, {"time": 178560, "qpm": 90.9090909090909}, {"time": 179040, "qpm": 93.75}, {"time": 179520, "qpm": 92.3076923076923}, {"time": 180000, "qpm": 90.9090909090909}, {"time": 180960, "qpm": 92.3076923076923}, {"time": 183360, "qpm": 90.9090909090909}, {"time": 183840, "qpm": 92.3076923076923}, {"time": 185760, "qpm": 90.9090909090909}, {"time": 186240, "qpm": 92.3076923076923}, {"time": 187680, "qpm": 90.9090909090909}, {"time": 188160, "qpm": 92.3076923076923}, {"time": 190080, "qpm": 90.9090909090909}, {"time": 190560, "qpm": 92.3076923076923}, {"time": 192960, "qpm": 90.9090909090909}, {"time": 193440, "qpm": 92.3076923076923}, {"time": 194880, "qpm": 90.9090909090909}, {"time": 195360, "qpm": 92.3076923076923}, {"time": 196800, "qpm": 90.9090909090909}, {"time": 197280, "qpm": 92.3076923076923}, {"time": 197760, "qpm": 90.9090909090909}, {"time": 198240, "qpm": 93.75}, {"time": 198720, "qpm": 90.9090909090909}, {"time": 199200, "qpm": 92.3076923076923}, {"time": 200640, "qpm": 90.9090909090909}, {"time": 201120, "qpm": 93.75}, {"time": 201600, "qpm": 90.9090909090909}, {"time": 202080, "qpm": 92.3076923076923}, {"time": 203520, "qpm": 90.9090909090909}, {"time": 204000, "qpm": 92.3076923076923}, {"time": 205440, "qpm": 90.9090909090909}, {"time": 205920, "qpm": 92.3076923076923}, {"time": 207360, "qpm": 90.9090909090909}, {"time": 207840, "qpm": 93.75}, {"time": 208320, "qpm": 90.9090909090909}, {"time": 208800, "qpm": 92.3076923076923}, {"time": 210240, "qpm": 90.9090909090909}, {"time": 210720, "qpm": 92.3076923076923}, {"time": 212160, "qpm": 90.9090909090909}], "key_signatures": [{"time": 0, "root": 0, "mode": "major"}], "time_signatures": [{"time": 0, "numerator": 1, "denominator": 4}, {"time": 480, "numerator": 4, "denominator": 4}], "tracks": [{"program": 0, "is_drum": false, "name": "PIANO", "notes": [{"time": 479, "pitch": 71, "duration": 993, "velocity": 101}, {"time": 479, "pitch": 76, "duration": 993, "velocity": 95}, {"time": 479, "pitch": 79, "duration": 1003, "velocity": 111}, {"time": 1442, "pitch": 72, "duration": 966, "velocity": 99}, {"time": 1442, "pitch": 77, "duration": 966, "velocity": 92}, {"time": 1442, "pitch": 81, "duration": 966, "velocity": 106}, {"time": 2398, "pitch": 74, "duration": 973, "velocity": 103}, {"time": 2398, "pitch": 79, "duration": 913, "velocity": 102}, {"time": 2398, "pitch": 83, "duration": 1003, "velocity": 110}, {"time": 3361, "pitch": 72, "duration": 887, "velocity": 92}, {"time": 3361, "pitch": 77, "duration": 867, "velocity": 103}, {"time": 3361, "pitch": 81, "duration": 857, "velocity": 105}, {"time": 4317, "pitch": 71, "duration": 953, "velocity": 103}, {"time": 4317, "pitch": 76, "duration": 963, "velocity": 105}, {"time": 4317, "pitch": 79, "duration": 943, "velocity": 112}, {"time": 5280, "pitch": 69, "duration": 973, "velocity": 96}, {"time": 5280, "pitch": 72, "duration": 973, "velocity": 98}, {"time": 5280, "pitch": 77, "duration": 1023, "velocity": 106}, {"time": 6243, "pitch": 67, "duration": 966, "velocity": 98}, {"time": 6243, "pitch": 71, "duration": 956, "velocity": 96}, {"time": 6243, "pitch": 74, "duration": 966, "velocity": 108}, {"time": 7199, "pitch": 65, "duration": 853, "velocity": 99}, {"time": 7199, "pitch": 69, "duration": 873, "velocity": 99}, {"time": 7199, "pitch": 72, "duration": 863, "velocity": 107}, {"time": 8162, "pitch": 60, "duration": 3688, "velocity": 97}, {"time": 8162, "pitch": 64, "duration": 956, "velocity": 95}, {"time": 8162, "pitch": 67, "duration": 936, "velocity": 97}, {"time": 8162, "pitch": 71, "duration": 966, "velocity": 102}, {"time": 9118, "pitch": 65, "duration": 1003, "velocity": 105}, {"time": 9118, "pitch": 69, "duration": 973, "velocity": 110}, {"time": 9118, "pitch": 72, "duration": 1003, "velocity": 98}, {"time": 10081, "pitch": 67, "duration": 956, "velocity": 101}, {"time": 10081, "pitch": 71, "duration": 926, "velocity": 107}, {"time": 10081, "pitch": 74, "duration": 966, "velocity": 113}, {"time": 11037, "pitch": 65, "duration": 803, "velocity": 95}, {"time": 11037, "pitch": 69, "duration": 853, "velocity": 105}, {"time": 11037, "pitch": 72, "duration": 823, "velocity": 109}, {"time": 12000, "pitch": 48, "duration": 3728, "velocity": 100}, {"time": 12000, "pitch": 64, "duration": 973, "velocity": 99}, {"time": 12000, "pitch": 67, "duration": 1003, "velocity": 103}, {"time": 12000, "pitch": 71, "duration": 993, "velocity": 110}, {"time": 12963, "pitch": 60, "duration": 956, "velocity": 103}, {"time": 12963, "pitch": 65, "duration": 966, "velocity": 101}, {"time": 12963, "pitch": 69, "duration": 976, "velocity": 109}, {"time": 13919, "pitch": 59, "duration": 953, "velocity": 102}, {"time": 13919, "pitch": 62, "duration": 953, "velocity": 92}, {"time": 13919, "pitch": 67, "duration": 963, "velocity": 107}, {"time": 14882, "pitch": 57, "duration": 876, "velocity": 99}, {"time": 14882, "pitch": 60, "duration": 866, "velocity": 98}, {"time": 14882, "pitch": 65, "duration": 886, "velocity": 103}, {"time": 15838, "pitch": 48, "duration": 963, "velocity": 90}, {"time": 15838, "pitch": 59, "duration": 943, "velocity": 101}, {"time": 15838, "pitch": 64, "duration": 963, "velocity": 89}, {"time": 15838, "pitch": 67, "duration": 953, "velocity": 108}, {"time": 16801, "pitch": 53, "duration": 956, "velocity": 97}, {"time": 16801, "pitch": 57, "duration": 857, "velocity": 101}, {"time": 16801, "pitch": 64, "duration": 887, "velocity": 88}, {"time": 16801, "pitch": 67, "duration": 877, "velocity": 105}, {"time": 17757, "pitch": 52, "duration": 933, "velocity": 93}, {"time": 17757, "pitch": 59, "duration": 923, "velocity": 104}, {"time": 17757, "pitch": 62, "duration": 923, "velocity": 88}, {"time": 17757, "pitch": 67, "duration": 923, "velocity": 116}, {"time": 18720, "pitch": 57, "duration": 903, "velocity": 92}, {"time": 18720, "pitch": 60, "duration": 954, "velocity": 105}, {"time": 18720, "pitch": 64, "duration": 923, "velocity": 95}, {"time": 18720, "pitch": 67, "duration": 883, "velocity": 113}, {"time": 19684, "pitch": 50, "duration": 1909, "velocity": 95}, {"time": 19684, "pitch": 57, "duration": 805, "velocity": 106}, {"time": 19684, "pitch": 60, "duration": 825, "velocity": 105}, {"time": 19684, "pitch": 65, "duration": 885, "velocity": 112}, {"time": 20639, "pitch": 60, "duration": 923, "velocity": 110}, {"time": 20639, "pitch": 65, "duration": 923, "velocity": 95}, {"time": 20639, "pitch": 69, "duration": 913, "velocity": 114}, {"time": 21603, "pitch": 55, "duration": 975, "velocity": 89}, {"time": 21603, "pitch": 60, "duration": 895, "velocity": 107}, {"time": 21603, "pitch": 65, "duration": 915, "velocity": 101}, {"time": 21603, "pitch": 69, "duration": 915, "velocity": 112}, {"time": 22558, "pitch": 43, "duration": 964, "velocity": 90}, {"time": 22558, "pitch": 59, "duration": 382, "velocity": 100}, {"time": 22558, "pitch": 62, "duration": 502, "velocity": 100}, {"time": 22558, "pitch": 67, "duration": 372, "velocity": 110}, {"time": 23040, "pitch": 57, "duration": 441, "velocity": 95}, {"time": 23040, "pitch": 60, "duration": 451, "velocity": 99}, {"time": 23040, "pitch": 65, "duration": 441, "velocity": 107}, {"time": 23522, "pitch": 48, "duration": 995, "velocity": 102}, {"time": 23522, "pitch": 59, "duration": 857, "velocity": 106}, {"time": 23522, "pitch": 64, "duration": 896, "velocity": 95}, {"time": 23522, "pitch": 67, "duration": 857, "velocity": 110}, {"time": 24477, "pitch": 53, "duration": 954, "velocity": 99}, {"time": 24477, "pitch": 57, "duration": 893, "velocity": 107}, {"time": 24477, "pitch": 64, "duration": 893, "velocity": 100}, {"time": 24477, "pitch": 67, "duration": 943, "velocity": 112}, {"time": 25441, "pitch": 52, "duration": 975, "velocity": 103}, {"time": 25441, "pitch": 59, "duration": 876, "velocity": 105}, {"time": 25441, "pitch": 64, "duration": 906, "velocity": 93}, {"time": 25441, "pitch": 67, "duration": 876, "velocity": 111}, {"time": 26396, "pitch": 57, "duration": 893, "velocity": 93}, {"time": 26396, "pitch": 60, "duration": 883, "velocity": 107}, {"time": 26396, "pitch": 64, "duration": 893, "velocity": 84}, {"time": 26396, "pitch": 67, "duration": 913, "velocity": 111}, {"time": 27360, "pitch": 50, "duration": 1919, "velocity": 93}, {"time": 27360, "pitch": 57, "duration": 822, "velocity": 105}, {"time": 27360, "pitch": 60, "duration": 832, "velocity": 99}, {"time": 27360, "pitch": 65, "duration": 892, "velocity": 113}, {"time": 28323, "pitch": 60, "duration": 905, "velocity": 105}, {"time": 28323, "pitch": 65, "duration": 905, "velocity": 99}, {"time": 28323, "pitch": 69, "duration": 895, "velocity": 117}, {"time": 29279, "pitch": 55, "duration": 1454, "velocity": 91}, {"time": 29279, "pitch": 60, "duration": 862, "velocity": 103}, {"time": 29279, "pitch": 65, "duration": 892, "velocity": 98}, {"time": 29279, "pitch": 69, "duration": 822, "velocity": 114}, {"time": 30242, "pitch": 59, "duration": 461, "velocity": 106}, {"time": 30242, "pitch": 62, "duration": 471, "velocity": 101}, {"time": 30242, "pitch": 67, "duration": 461, "velocity": 113}, {"time": 30723, "pitch": 43, "duration": 455, "velocity": 96}, {"time": 30723, "pitch": 57, "duration": 455, "velocity": 100}, {"time": 30723, "pitch": 60, "duration": 425, "velocity": 100}, {"time": 30723, "pitch": 65, "duration": 435, "velocity": 110}, {"time": 31198, "pitch": 40, "duration": 501, "velocity": 107}, {"time": 31438, "pitch": 55, "duration": 311, "velocity": 109}, {"time": 31679, "pitch": 47, "duration": 291, "velocity": 98}, {"time": 31679, "pitch": 62, "duration": 291, "velocity": 105}, {"time": 31920, "pitch": 52, "duration": 1177, "velocity": 103}, {"time": 31920, "pitch": 67, "duration": 1167, "velocity": 115}, {"time": 33117, "pitch": 45, "duration": 712, "velocity": 115}, {"time": 33357, "pitch": 59, "duration": 301, "velocity": 109}, {"time": 33598, "pitch": 60, "duration": 341, "velocity": 119}, {"time": 33839, "pitch": 52, "duration": 903, "velocity": 109}, {"time": 33839, "pitch": 67, "duration": 903, "velocity": 112}, {"time": 34802, "pitch": 50, "duration": 815, "velocity": 108}, {"time": 34802, "pitch": 57, "duration": 856, "velocity": 107}, {"time": 34802, "pitch": 60, "duration": 866, "velocity": 111}, {"time": 34802, "pitch": 65, "duration": 845, "velocity": 113}, {"time": 35758, "pitch": 43, "duration": 913, "velocity": 102}, {"time": 35758, "pitch": 53, "duration": 893, "velocity": 106}, {"time": 35758, "pitch": 57, "duration": 833, "velocity": 102}, {"time": 35758, "pitch": 60, "duration": 833, "velocity": 106}, {"time": 35758, "pitch": 62, "duration": 863, "velocity": 112}, {"time": 36721, "pitch": 48, "duration": 1108, "velocity": 111}, {"time": 36721, "pitch": 55, "duration": 1088, "velocity": 103}, {"time": 36721, "pitch": 59, "duration": 1068, "velocity": 102}, {"time": 36721, "pitch": 64, "duration": 1068, "velocity": 116}, {"time": 37918, "pitch": 47, "duration": 441, "velocity": 100}, {"time": 37918, "pitch": 57, "duration": 371, "velocity": 110}, {"time": 37918, "pitch": 62, "duration": 361, "velocity": 94}, {"time": 37918, "pitch": 65, "duration": 381, "velocity": 115}, {"time": 38399, "pitch": 52, "duration": 422, "velocity": 108}, {"time": 38399, "pitch": 56, "duration": 361, "velocity": 108}, {"time": 38399, "pitch": 62, "duration": 392, "velocity": 100}, {"time": 38399, "pitch": 64, "duration": 392, "velocity": 117}, {"time": 38881, "pitch": 45, "duration": 996, "velocity": 104}, {"time": 38881, "pitch": 55, "duration": 768, "velocity": 107}, {"time": 38881, "pitch": 60, "duration": 857, "velocity": 109}, {"time": 38881, "pitch": 64, "duration": 867, "velocity": 115}, {"time": 39837, "pitch": 43, "duration": 481, "velocity": 100}, {"time": 39837, "pitch": 58, "duration": 381, "velocity": 111}, {"time": 39837, "pitch": 65, "duration": 431, "velocity": 115}, {"time": 40318, "pitch": 48, "duration": 462, "velocity": 106}, {"time": 40318, "pitch": 58, "duration": 351, "velocity": 104}, {"time": 40318, "pitch": 60, "duration": 371, "velocity": 102}, {"time": 40318, "pitch": 64, "duration": 422, "velocity": 112}, {"time": 40800, "pitch": 41, "duration": 451, "velocity": 115}, {"time": 40800, "pitch": 60, "duration": 481, "velocity": 114}, {"time": 40800, "pitch": 64, "duration": 501, "velocity": 107}, {"time": 40800, "pitch": 69, "duration": 431, "velocity": 119}, {"time": 41281, "pitch": 53, "duration": 311, "velocity": 111}, {"time": 41522, "pitch": 52, "duration": 280, "velocity": 111}, {"time": 41522, "pitch": 59, "duration": 241, "velocity": 105}, {"time": 41522, "pitch": 62, "duration": 241, "velocity": 96}, {"time": 41522, "pitch": 67, "duration": 251, "velocity": 117}, {"time": 42000, "pitch": 50, "duration": 458, "velocity": 110}, {"time": 42000, "pitch": 57, "duration": 598, "velocity": 106}, {"time": 42000, "pitch": 60, "duration": 618, "velocity": 105}, {"time": 42000, "pitch": 65, "duration": 618, "velocity": 123}, {"time": 42478, "pitch": 48, "duration": 150, "velocity": 108}, {"time": 42719, "pitch": 46, "duration": 1504, "velocity": 108}, {"time": 42719, "pitch": 57, "duration": 1524, "velocity": 104}, {"time": 42719, "pitch": 58, "duration": 1494, "velocity": 104}, {"time": 42719, "pitch": 60, "duration": 1494, "velocity": 101}, {"time": 42719, "pitch": 65, "duration": 1514, "velocity": 119}, {"time": 44401, "pitch": 45, "duration": 829, "velocity": 105}, {"time": 44401, "pitch": 52, "duration": 819, "velocity": 108}, {"time": 44401, "pitch": 59, "duration": 829, "velocity": 107}, {"time": 44401, "pitch": 62, "duration": 859, "velocity": 100}, {"time": 44401, "pitch": 67, "duration": 899, "velocity": 115}, {"time": 45360, "pitch": 45, "duration": 1049, "velocity": 109}, {"time": 45360, "pitch": 52, "duration": 1058, "velocity": 105}, {"time": 45360, "pitch": 62, "duration": 1029, "velocity": 101}, {"time": 45360, "pitch": 67, "duration": 970, "velocity": 103}, {"time": 45360, "pitch": 71, "duration": 970, "velocity": 120}, {"time": 46557, "pitch": 45, "duration": 1896, "velocity": 107}, {"time": 46557, "pitch": 57, "duration": 1896, "velocity": 111}, {"time": 46557, "pitch": 62, "duration": 411, "velocity": 108}, {"time": 46557, "pitch": 67, "duration": 421, "velocity": 104}, {"time": 46557, "pitch": 71, "duration": 431, "velocity": 107}, {"time": 46557, "pitch": 74, "duration": 421, "velocity": 119}, {"time": 47038, "pitch": 61, "duration": 422, "velocity": 118}, {"time": 47038, "pitch": 67, "duration": 412, "velocity": 98}, {"time": 47038, "pitch": 69, "duration": 402, "velocity": 99}, {"time": 47038, "pitch": 73, "duration": 402, "velocity": 108}, {"time": 47520, "pitch": 62, "duration": 401, "velocity": 99}, {"time": 47520, "pitch": 67, "duration": 431, "velocity": 99}, {"time": 47520, "pitch": 71, "duration": 431, "velocity": 104}, {"time": 47520, "pitch": 74, "duration": 431, "velocity": 118}, {"time": 48002, "pitch": 64, "duration": 431, "velocity": 99}, {"time": 48002, "pitch": 67, "duration": 441, "velocity": 105}, {"time": 48002, "pitch": 73, "duration": 431, "velocity": 104}, {"time": 48002, "pitch": 76, "duration": 441, "velocity": 120}, {"time": 48483, "pitch": 50, "duration": 1578, "velocity": 96}, {"time": 48483, "pitch": 57, "duration": 1598, "velocity": 97}, {"time": 48483, "pitch": 64, "duration": 247, "velocity": 88}, {"time": 48483, "pitch": 66, "duration": 247, "velocity": 86}, {"time": 48483, "pitch": 69, "duration": 237, "velocity": 112}, {"time": 48720, "pitch": 62, "duration": 247, "velocity": 78}, {"time": 48957, "pitch": 64, "duration": 231, "velocity": 84}, {"time": 48957, "pitch": 66, "duration": 251, "velocity": 92}, {"time": 48957, "pitch": 69, "duration": 241, "velocity": 105}, {"time": 49198, "pitch": 62, "duration": 271, "velocity": 84}, {"time": 49439, "pitch": 64, "duration": 251, "velocity": 79}, {"time": 49439, "pitch": 66, "duration": 271, "velocity": 100}, {"time": 49439, "pitch": 69, "duration": 231, "velocity": 109}, {"time": 49680, "pitch": 62, "duration": 281, "velocity": 84}, {"time": 49921, "pitch": 64, "duration": 250, "velocity": 83}, {"time": 49921, "pitch": 66, "duration": 270, "velocity": 91}, {"time": 49921, "pitch": 69, "duration": 230, "velocity": 111}, {"time": 50161, "pitch": 50, "duration": 2050, "velocity": 95}, {"time": 50161, "pitch": 61, "duration": 2040, "velocity": 100}, {"time": 50161, "pitch": 62, "duration": 251, "velocity": 83}, {"time": 50402, "pitch": 64, "duration": 247, "velocity": 84}, {"time": 50402, "pitch": 66, "duration": 247, "velocity": 95}, {"time": 50402, "pitch": 69, "duration": 208, "velocity": 104}, {"time": 50639, "pitch": 62, "duration": 267, "velocity": 86}, {"time": 50876, "pitch": 64, "duration": 261, "velocity": 78}, {"time": 50876, "pitch": 66, "duration": 261, "velocity": 91}, {"time": 50876, "pitch": 69, "duration": 221, "velocity": 99}, {"time": 51117, "pitch": 62, "duration": 251, "velocity": 91}, {"time": 51358, "pitch": 64, "duration": 251, "velocity": 78}, {"time": 51358, "pitch": 66, "duration": 261, "velocity": 93}, {"time": 51358, "pitch": 69, "duration": 241, "velocity": 96}, {"time": 51599, "pitch": 62, "duration": 311, "velocity": 86}, {"time": 51839, "pitch": 64, "duration": 261, "velocity": 81}, {"time": 51839, "pitch": 66, "duration": 281, "velocity": 90}, {"time": 51839, "pitch": 69, "duration": 241, "velocity": 98}, {"time": 52080, "pitch": 62, "duration": 251, "velocity": 85}, {"time": 52321, "pitch": 50, "duration": 1558, "velocity": 100}, {"time": 52321, "pitch": 61, "duration": 1548, "velocity": 104}, {"time": 52321, "pitch": 64, "duration": 241, "velocity": 83}, {"time": 52321, "pitch": 66, "duration": 241, "velocity": 95}, {"time": 52321, "pitch": 69, "duration": 211, "velocity": 102}, {"time": 52562, "pitch": 62, "duration": 280, "velocity": 87}, {"time": 52803, "pitch": 64, "duration": 257, "velocity": 80}, {"time": 52803, "pitch": 66, "duration": 247, "velocity": 91}, {"time": 52803, "pitch": 69, "duration": 207, "velocity": 100}, {"time": 53040, "pitch": 62, "duration": 287, "velocity": 86}, {"time": 53277, "pitch": 64, "duration": 261, "velocity": 75}, {"time": 53277, "pitch": 66, "duration": 271, "velocity": 90}, {"time": 53277, "pitch": 69, "duration": 231, "velocity": 102}, {"time": 53518, "pitch": 62, "duration": 281, "velocity": 91}, {"time": 53758, "pitch": 64, "duration": 281, "velocity": 75}, {"time": 53758, "pitch": 66, "duration": 291, "velocity": 93}, {"time": 53758, "pitch": 69, "duration": 261, "velocity": 99}, {"time": 53999, "pitch": 50, "duration": 2070, "velocity": 99}, {"time": 53999, "pitch": 60, "duration": 2090, "velocity": 104}, {"time": 53999, "pitch": 62, "duration": 251, "velocity": 95}, {"time": 54240, "pitch": 64, "duration": 241, "velocity": 76}, {"time": 54240, "pitch": 66, "duration": 231, "velocity": 90}, {"time": 54240, "pitch": 69, "duration": 201, "velocity": 100}, {"time": 54481, "pitch": 62, "duration": 291, "velocity": 90}, {"time": 54722, "pitch": 64, "duration": 261, "velocity": 77}, {"time": 54722, "pitch": 66, "duration": 271, "velocity": 92}, {"time": 54722, "pitch": 69, "duration": 240, "velocity": 97}, {"time": 54962, "pitch": 62, "duration": 291, "velocity": 87}, {"time": 55203, "pitch": 64, "duration": 277, "velocity": 74}, {"time": 55203, "pitch": 66, "duration": 287, "velocity": 92}, {"time": 55203, "pitch": 69, "duration": 267, "velocity": 96}, {"time": 55440, "pitch": 62, "duration": 298, "velocity": 90}, {"time": 55678, "pitch": 64, "duration": 250, "velocity": 77}, {"time": 55678, "pitch": 66, "duration": 250, "velocity": 92}, {"time": 55678, "pitch": 69, "duration": 190, "velocity": 98}, {"time": 55918, "pitch": 62, "duration": 261, "velocity": 88}, {"time": 56159, "pitch": 55, "duration": 1819, "velocity": 91}, {"time": 56159, "pitch": 59, "duration": 1799, "velocity": 92}, {"time": 56159, "pitch": 67, "duration": 251, "velocity": 103}, {"time": 56159, "pitch": 69, "duration": 221, "velocity": 110}, {"time": 56400, "pitch": 62, "duration": 291, "velocity": 80}, {"time": 56641, "pitch": 67, "duration": 271, "velocity": 96}, {"time": 56641, "pitch": 69, "duration": 250, "velocity": 104}, {"time": 56881, "pitch": 62, "duration": 320, "velocity": 85}, {"time": 57122, "pitch": 67, "duration": 297, "velocity": 96}, {"time": 57122, "pitch": 69, "duration": 267, "velocity": 105}, {"time": 57359, "pitch": 62, "duration": 318, "velocity": 86}, {"time": 57597, "pitch": 67, "duration": 240, "velocity": 98}, {"time": 57597, "pitch": 69, "duration": 230, "velocity": 103}, {"time": 57837, "pitch": 62, "duration": 251, "velocity": 87}, {"time": 58078, "pitch": 54, "duration": 1929, "velocity": 98}, {"time": 58078, "pitch": 57, "duration": 1919, "velocity": 85}, {"time": 58078, "pitch": 64, "duration": 251, "velocity": 92}, {"time": 58078, "pitch": 69, "duration": 241, "velocity": 107}, {"time": 58319, "pitch": 62, "duration": 281, "velocity": 84}, {"time": 58560, "pitch": 64, "duration": 271, "velocity": 94}, {"time": 58560, "pitch": 69, "duration": 260, "velocity": 106}, {"time": 58800, "pitch": 62, "duration": 291, "velocity": 89}, {"time": 59041, "pitch": 64, "duration": 271, "velocity": 97}, {"time": 59041, "pitch": 69, "duration": 241, "velocity": 106}, {"time": 59282, "pitch": 62, "duration": 261, "velocity": 87}, {"time": 59523, "pitch": 64, "duration": 247, "velocity": 92}, {"time": 59523, "pitch": 69, "duration": 178, "velocity": 104}, {"time": 59760, "pitch": 62, "duration": 168, "velocity": 86}, {"time": 59997, "pitch": 52, "duration": 1856, "velocity": 101}, {"time": 59997, "pitch": 62, "duration": 241, "velocity": 92}, {"time": 59997, "pitch": 67, "duration": 241, "velocity": 107}, {"time": 60238, "pitch": 59, "duration": 281, "velocity": 95}, {"time": 60479, "pitch": 62, "duration": 260, "velocity": 96}, {"time": 60479, "pitch": 67, "duration": 230, "velocity": 105}, {"time": 60719, "pitch": 59, "duration": 311, "velocity": 96}, {"time": 60960, "pitch": 62, "duration": 261, "velocity": 95}, {"time": 60960, "pitch": 67, "duration": 251, "velocity": 104}, {"time": 61201, "pitch": 59, "duration": 281, "velocity": 100}, {"time": 61442, "pitch": 62, "duration": 291, "velocity": 97}, {"time": 61442, "pitch": 67, "duration": 180, "velocity": 101}, {"time": 61683, "pitch": 59, "duration": 170, "velocity": 99}, {"time": 61923, "pitch": 45, "duration": 565, "velocity": 100}, {"time": 61923, "pitch": 55, "duration": 555, "velocity": 108}, {"time": 61923, "pitch": 59, "duration": 505, "velocity": 84}, {"time": 61923, "pitch": 62, "duration": 565, "velocity": 90}, {"time": 61923, "pitch": 66, "duration": 515, "velocity": 105}, {"time": 62638, "pitch": 45, "duration": 412, "velocity": 104}, {"time": 62638, "pitch": 55, "duration": 402, "velocity": 101}, {"time": 62638, "pitch": 59, "duration": 402, "velocity": 99}, {"time": 62638, "pitch": 62, "duration": 442, "velocity": 111}, {"time": 63120, "pitch": 45, "duration": 622, "velocity": 99}, {"time": 63120, "pitch": 57, "duration": 582, "velocity": 104}, {"time": 63120, "pitch": 61, "duration": 602, "velocity": 106}, {"time": 63120, "pitch": 64, "duration": 612, "velocity": 112}, {"time": 63842, "pitch": 50, "duration": 1448, "velocity": 104}, {"time": 63842, "pitch": 57, "duration": 1468, "velocity": 95}, {"time": 63842, "pitch": 64, "duration": 198, "velocity": 80}, {"time": 63842, "pitch": 66, "duration": 208, "velocity": 98}, {"time": 63842, "pitch": 69, "duration": 188, "velocity": 110}, {"time": 64079, "pitch": 62, "duration": 258, "velocity": 86}, {"time": 64317, "pitch": 64, "duration": 270, "velocity": 87}, {"time": 64317, "pitch": 66, "duration": 270, "velocity": 94}, {"time": 64317, "pitch": 69, "duration": 240, "velocity": 103}, {"time": 64557, "pitch": 62, "duration": 311, "velocity": 85}, {"time": 64798, "pitch": 64, "duration": 241, "velocity": 71}, {"time": 64798, "pitch": 66, "duration": 251, "velocity": 96}, {"time": 64798, "pitch": 69, "duration": 211, "velocity": 110}, {"time": 65039, "pitch": 62, "duration": 301, "velocity": 90}, {"time": 65280, "pitch": 64, "duration": 271, "velocity": 77}, {"time": 65280, "pitch": 66, "duration": 281, "velocity": 96}, {"time": 65280, "pitch": 69, "duration": 180, "velocity": 94}, {"time": 65521, "pitch": 50, "duration": 1989, "velocity": 104}, {"time": 65521, "pitch": 61, "duration": 1989, "velocity": 104}, {"time": 65521, "pitch": 62, "duration": 270, "velocity": 96}, {"time": 65761, "pitch": 64, "duration": 261, "velocity": 75}, {"time": 65761, "pitch": 66, "duration": 261, "velocity": 93}, {"time": 65761, "pitch": 69, "duration": 191, "velocity": 103}, {"time": 66002, "pitch": 62, "duration": 280, "velocity": 91}, {"time": 66243, "pitch": 64, "duration": 227, "velocity": 75}, {"time": 66243, "pitch": 66, "duration": 247, "velocity": 92}, {"time": 66243, "pitch": 69, "duration": 207, "velocity": 102}, {"time": 66480, "pitch": 62, "duration": 307, "velocity": 90}, {"time": 66717, "pitch": 64, "duration": 281, "velocity": 75}, {"time": 66717, "pitch": 66, "duration": 301, "velocity": 90}, {"time": 66717, "pitch": 69, "duration": 231, "velocity": 100}, {"time": 66958, "pitch": 62, "duration": 291, "velocity": 89}, {"time": 67199, "pitch": 64, "duration": 271, "velocity": 78}, {"time": 67199, "pitch": 66, "duration": 281, "velocity": 92}, {"time": 67199, "pitch": 69, "duration": 220, "velocity": 99}, {"time": 67440, "pitch": 62, "duration": 280, "velocity": 83}, {"time": 67680, "pitch": 50, "duration": 1528, "velocity": 94}, {"time": 67680, "pitch": 61, "duration": 1508, "velocity": 100}, {"time": 67680, "pitch": 64, "duration": 231, "velocity": 81}, {"time": 67680, "pitch": 66, "duration": 221, "velocity": 97}, {"time": 67680, "pitch": 69, "duration": 191, "velocity": 106}, {"time": 67921, "pitch": 62, "duration": 311, "velocity": 92}, {"time": 68162, "pitch": 64, "duration": 291, "velocity": 78}, {"time": 68162, "pitch": 66, "duration": 281, "velocity": 95}, {"time": 68162, "pitch": 69, "duration": 251, "velocity": 102}, {"time": 68403, "pitch": 62, "duration": 310, "velocity": 88}, {"time": 68643, "pitch": 64, "duration": 277, "velocity": 83}, {"time": 68643, "pitch": 66, "duration": 287, "velocity": 94}, {"time": 68643, "pitch": 69, "duration": 238, "velocity": 101}, {"time": 68881, "pitch": 62, "duration": 307, "velocity": 89}, {"time": 69118, "pitch": 64, "duration": 261, "velocity": 75}, {"time": 69118, "pitch": 66, "duration": 271, "velocity": 91}, {"time": 69118, "pitch": 69, "duration": 200, "velocity": 98}, {"time": 69359, "pitch": 50, "duration": 2079, "velocity": 97}, {"time": 69359, "pitch": 60, "duration": 2029, "velocity": 96}, {"time": 69359, "pitch": 62, "duration": 250, "velocity": 98}, {"time": 69599, "pitch": 64, "duration": 251, "velocity": 70}, {"time": 69599, "pitch": 66, "duration": 241, "velocity": 87}, {"time": 69599, "pitch": 69, "duration": 171, "velocity": 102}, {"time": 69840, "pitch": 62, "duration": 301, "velocity": 90}, {"time": 70081, "pitch": 64, "duration": 281, "velocity": 84}, {"time": 70081, "pitch": 66, "duration": 251, "velocity": 88}, {"time": 70081, "pitch": 69, "duration": 211, "velocity": 101}, {"time": 70322, "pitch": 62, "duration": 280, "velocity": 88}, {"time": 70562, "pitch": 64, "duration": 267, "velocity": 81}, {"time": 70562, "pitch": 66, "duration": 248, "velocity": 89}, {"time": 70562, "pitch": 69, "duration": 228, "velocity": 103}, {"time": 70800, "pitch": 62, "duration": 307, "velocity": 89}, {"time": 71037, "pitch": 64, "duration": 251, "velocity": 71}, {"time": 71037, "pitch": 66, "duration": 241, "velocity": 95}, {"time": 71037, "pitch": 69, "duration": 200, "velocity": 104}, {"time": 71278, "pitch": 62, "duration": 250, "velocity": 87}, {"time": 71518, "pitch": 55, "duration": 1840, "velocity": 94}, {"time": 71518, "pitch": 59, "duration": 1821, "velocity": 94}, {"time": 71518, "pitch": 67, "duration": 231, "velocity": 103}, {"time": 71518, "pitch": 69, "duration": 211, "velocity": 108}, {"time": 71759, "pitch": 62, "duration": 301, "velocity": 81}, {"time": 72000, "pitch": 67, "duration": 281, "velocity": 95}, {"time": 72000, "pitch": 69, "duration": 261, "velocity": 103}, {"time": 72241, "pitch": 62, "duration": 301, "velocity": 90}, {"time": 72481, "pitch": 67, "duration": 281, "velocity": 96}, {"time": 72481, "pitch": 69, "duration": 261, "velocity": 101}, {"time": 72722, "pitch": 62, "duration": 320, "velocity": 86}, {"time": 72963, "pitch": 67, "duration": 217, "velocity": 99}, {"time": 72963, "pitch": 69, "duration": 208, "velocity": 102}, {"time": 73200, "pitch": 62, "duration": 218, "velocity": 84}, {"time": 73437, "pitch": 54, "duration": 1856, "velocity": 96}, {"time": 73437, "pitch": 57, "duration": 1866, "velocity": 88}, {"time": 73437, "pitch": 64, "duration": 251, "velocity": 101}, {"time": 73437, "pitch": 69, "duration": 221, "velocity": 108}, {"time": 73678, "pitch": 62, "duration": 281, "velocity": 85}, {"time": 73919, "pitch": 64, "duration": 251, "velocity": 94}, {"time": 73919, "pitch": 69, "duration": 241, "velocity": 108}, {"time": 74160, "pitch": 62, "duration": 301, "velocity": 90}, {"time": 74400, "pitch": 64, "duration": 281, "velocity": 95}, {"time": 74400, "pitch": 69, "duration": 261, "velocity": 107}, {"time": 74641, "pitch": 62, "duration": 301, "velocity": 88}, {"time": 74882, "pitch": 64, "duration": 281, "velocity": 95}, {"time": 74882, "pitch": 69, "duration": 161, "velocity": 104}, {"time": 75123, "pitch": 62, "duration": 180, "velocity": 90}, {"time": 75364, "pitch": 52, "duration": 1838, "velocity": 101}, {"time": 75364, "pitch": 62, "duration": 247, "velocity": 94}, {"time": 75364, "pitch": 67, "duration": 217, "velocity": 106}, {"time": 75601, "pitch": 59, "duration": 277, "velocity": 93}, {"time": 75838, "pitch": 62, "duration": 281, "velocity": 97}, {"time": 75838, "pitch": 67, "duration": 221, "velocity": 102}, {"time": 76079, "pitch": 59, "duration": 291, "velocity": 91}, {"time": 76319, "pitch": 62, "duration": 261, "velocity": 98}, {"time": 76319, "pitch": 67, "duration": 221, "velocity": 101}, {"time": 76560, "pitch": 59, "duration": 281, "velocity": 97}, {"time": 76801, "pitch": 62, "duration": 251, "velocity": 92}, {"time": 76801, "pitch": 67, "duration": 191, "velocity": 103}, {"time": 77042, "pitch": 59, "duration": 170, "velocity": 96}, {"time": 77283, "pitch": 55, "duration": 614, "velocity": 99}, {"time": 77283, "pitch": 58, "duration": 604, "velocity": 115}, {"time": 77283, "pitch": 62, "duration": 614, "velocity": 91}, {"time": 77283, "pitch": 67, "duration": 604, "velocity": 110}, {"time": 77998, "pitch": 55, "duration": 431, "velocity": 96}, {"time": 77998, "pitch": 58, "duration": 421, "velocity": 110}, {"time": 77998, "pitch": 62, "duration": 401, "velocity": 89}, {"time": 77998, "pitch": 66, "duration": 471, "velocity": 116}, {"time": 78479, "pitch": 55, "duration": 402, "velocity": 90}, {"time": 78479, "pitch": 58, "duration": 432, "velocity": 105}, {"time": 78479, "pitch": 62, "duration": 432, "velocity": 115}, {"time": 78961, "pitch": 44, "duration": 4079, "velocity": 103}, {"time": 78961, "pitch": 51, "duration": 4069, "velocity": 101}, {"time": 78961, "pitch": 58, "duration": 4059, "velocity": 112}, {"time": 78961, "pitch": 62, "duration": 4069, "velocity": 84}, {"time": 78961, "pitch": 67, "duration": 4079, "velocity": 118}, {"time": 83040, "pitch": 68, "duration": 1929, "velocity": 106}, {"time": 83280, "pitch": 72, "duration": 1659, "velocity": 100}, {"time": 83521, "pitch": 75, "duration": 1397, "velocity": 108}, {"time": 83762, "pitch": 79, "duration": 1166, "velocity": 101}, {"time": 84959, "pitch": 67, "duration": 1929, "velocity": 96}, {"time": 85199, "pitch": 70, "duration": 1699, "velocity": 97}, {"time": 85440, "pitch": 74, "duration": 1428, "velocity": 103}, {"time": 85681, "pitch": 77, "duration": 1217, "velocity": 93}, {"time": 86878, "pitch": 65, "duration": 1929, "velocity": 95}, {"time": 87118, "pitch": 68, "duration": 1679, "velocity": 99}, {"time": 87359, "pitch": 72, "duration": 1428, "velocity": 97}, {"time": 87600, "pitch": 75, "duration": 1207, "velocity": 108}, {"time": 88797, "pitch": 63, "duration": 1916, "velocity": 103}, {"time": 89037, "pitch": 67, "duration": 1706, "velocity": 100}, {"time": 89278, "pitch": 70, "duration": 1455, "velocity": 99}, {"time": 89519, "pitch": 74, "duration": 1204, "velocity": 94}, {"time": 90723, "pitch": 53, "duration": 1929, "velocity": 93}, {"time": 90723, "pitch": 60, "duration": 1929, "velocity": 95}, {"time": 90723, "pitch": 76, "duration": 385, "velocity": 103}, {"time": 90723, "pitch": 81, "duration": 484, "velocity": 102}, {"time": 91197, "pitch": 69, "duration": 482, "velocity": 99}, {"time": 91197, "pitch": 76, "duration": 502, "velocity": 102}, {"time": 91679, "pitch": 65, "duration": 391, "velocity": 96}, {"time": 91679, "pitch": 72, "duration": 511, "velocity": 105}, {"time": 92160, "pitch": 64, "duration": 341, "velocity": 88}, {"time": 92160, "pitch": 69, "duration": 392, "velocity": 104}, {"time": 92642, "pitch": 52, "duration": 1879, "velocity": 92}, {"time": 92642, "pitch": 59, "duration": 1889, "velocity": 88}, {"time": 92642, "pitch": 74, "duration": 401, "velocity": 114}, {"time": 92642, "pitch": 79, "duration": 491, "velocity": 112}, {"time": 93123, "pitch": 67, "duration": 475, "velocity": 102}, {"time": 93123, "pitch": 74, "duration": 505, "velocity": 112}, {"time": 93598, "pitch": 64, "duration": 371, "velocity": 96}, {"time": 93598, "pitch": 71, "duration": 501, "velocity": 111}, {"time": 94079, "pitch": 62, "duration": 341, "velocity": 91}, {"time": 94079, "pitch": 67, "duration": 422, "velocity": 102}, {"time": 94561, "pitch": 50, "duration": 1879, "velocity": 95}, {"time": 94561, "pitch": 57, "duration": 1718, "velocity": 101}, {"time": 94561, "pitch": 72, "duration": 381, "velocity": 108}, {"time": 94561, "pitch": 77, "duration": 481, "velocity": 110}, {"time": 95042, "pitch": 65, "duration": 495, "velocity": 98}, {"time": 95042, "pitch": 72, "duration": 495, "velocity": 110}, {"time": 95517, "pitch": 62, "duration": 351, "velocity": 95}, {"time": 95517, "pitch": 69, "duration": 481, "velocity": 110}, {"time": 95998, "pitch": 60, "duration": 311, "velocity": 106}, {"time": 95998, "pitch": 65, "duration": 412, "velocity": 108}, {"time": 96480, "pitch": 43, "duration": 1859, "velocity": 100}, {"time": 96480, "pitch": 55, "duration": 853, "velocity": 103}, {"time": 96480, "pitch": 59, "duration": 863, "velocity": 105}, {"time": 96480, "pitch": 64, "duration": 933, "velocity": 108}, {"time": 97443, "pitch": 57, "duration": 886, "velocity": 92}, {"time": 97443, "pitch": 60, "duration": 886, "velocity": 101}, {"time": 97443, "pitch": 65, "duration": 906, "velocity": 111}, {"time": 98399, "pitch": 48, "duration": 963, "velocity": 90}, {"time": 98399, "pitch": 59, "duration": 943, "velocity": 101}, {"time": 98399, "pitch": 64, "duration": 963, "velocity": 89}, {"time": 98399, "pitch": 67, "duration": 953, "velocity": 108}, {"time": 99362, "pitch": 53, "duration": 956, "velocity": 97}, {"time": 99362, "pitch": 57, "duration": 857, "velocity": 101}, {"time": 99362, "pitch": 64, "duration": 887, "velocity": 88}, {"time": 99362, "pitch": 67, "duration": 877, "velocity": 105}, {"time": 100318, "pitch": 52, "duration": 933, "velocity": 93}, {"time": 100318, "pitch": 59, "duration": 923, "velocity": 104}, {"time": 100318, "pitch": 62, "duration": 923, "velocity": 88}, {"time": 100318, "pitch": 67, "duration": 923, "velocity": 116}, {"time": 101281, "pitch": 57, "duration": 897, "velocity": 92}, {"time": 101281, "pitch": 60, "duration": 946, "velocity": 105}, {"time": 101281, "pitch": 64, "duration": 916, "velocity": 95}, {"time": 101281, "pitch": 67, "duration": 877, "velocity": 113}, {"time": 102237, "pitch": 50, "duration": 1916, "velocity": 95}, {"time": 102237, "pitch": 57, "duration": 813, "velocity": 106}, {"time": 102237, "pitch": 60, "duration": 833, "velocity": 105}, {"time": 102237, "pitch": 65, "duration": 893, "velocity": 112}, {"time": 103200, "pitch": 60, "duration": 923, "velocity": 110}, {"time": 103200, "pitch": 65, "duration": 923, "velocity": 95}, {"time": 103200, "pitch": 69, "duration": 913, "velocity": 114}, {"time": 104163, "pitch": 55, "duration": 976, "velocity": 89}, {"time": 104163, "pitch": 60, "duration": 896, "velocity": 107}, {"time": 104163, "pitch": 65, "duration": 916, "velocity": 101}, {"time": 104163, "pitch": 69, "duration": 916, "velocity": 112}, {"time": 105119, "pitch": 43, "duration": 963, "velocity": 90}, {"time": 105119, "pitch": 59, "duration": 381, "velocity": 100}, {"time": 105119, "pitch": 62, "duration": 502, "velocity": 100}, {"time": 105119, "pitch": 67, "duration": 371, "velocity": 110}, {"time": 105601, "pitch": 57, "duration": 441, "velocity": 95}, {"time": 105601, "pitch": 60, "duration": 451, "velocity": 99}, {"time": 105601, "pitch": 65, "duration": 441, "velocity": 107}, {"time": 106082, "pitch": 48, "duration": 996, "velocity": 102}, {"time": 106082, "pitch": 59, "duration": 856, "velocity": 106}, {"time": 106082, "pitch": 64, "duration": 896, "velocity": 95}, {"time": 106082, "pitch": 67, "duration": 856, "velocity": 110}, {"time": 107038, "pitch": 53, "duration": 953, "velocity": 99}, {"time": 107038, "pitch": 57, "duration": 893, "velocity": 107}, {"time": 107038, "pitch": 64, "duration": 893, "velocity": 100}, {"time": 107038, "pitch": 67, "duration": 943, "velocity": 112}, {"time": 108001, "pitch": 52, "duration": 976, "velocity": 103}, {"time": 108001, "pitch": 59, "duration": 877, "velocity": 105}, {"time": 108001, "pitch": 64, "duration": 907, "velocity": 93}, {"time": 108001, "pitch": 67, "duration": 877, "velocity": 111}, {"time": 108957, "pitch": 57, "duration": 893, "velocity": 93}, {"time": 108957, "pitch": 60, "duration": 883, "velocity": 107}, {"time": 108957, "pitch": 64, "duration": 893, "velocity": 84}, {"time": 108957, "pitch": 67, "duration": 913, "velocity": 111}, {"time": 109920, "pitch": 50, "duration": 1919, "velocity": 93}, {"time": 109920, "pitch": 57, "duration": 823, "velocity": 105}, {"time": 109920, "pitch": 60, "duration": 833, "velocity": 99}, {"time": 109920, "pitch": 65, "duration": 893, "velocity": 113}, {"time": 110883, "pitch": 60, "duration": 906, "velocity": 105}, {"time": 110883, "pitch": 65, "duration": 906, "velocity": 99}, {"time": 110883, "pitch": 69, "duration": 896, "velocity": 117}, {"time": 111839, "pitch": 55, "duration": 1448, "velocity": 91}, {"time": 111839, "pitch": 60, "duration": 863, "velocity": 103}, {"time": 111839, "pitch": 65, "duration": 893, "velocity": 98}, {"time": 111839, "pitch": 69, "duration": 823, "velocity": 114}, {"time": 112802, "pitch": 59, "duration": 455, "velocity": 106}, {"time": 112802, "pitch": 62, "duration": 465, "velocity": 101}, {"time": 112802, "pitch": 67, "duration": 455, "velocity": 113}, {"time": 113277, "pitch": 43, "duration": 461, "velocity": 96}, {"time": 113277, "pitch": 57, "duration": 461, "velocity": 100}, {"time": 113277, "pitch": 60, "duration": 431, "velocity": 100}, {"time": 113277, "pitch": 65, "duration": 441, "velocity": 110}, {"time": 113758, "pitch": 40, "duration": 502, "velocity": 107}, {"time": 113999, "pitch": 55, "duration": 311, "velocity": 109}, {"time": 114240, "pitch": 47, "duration": 291, "velocity": 98}, {"time": 114240, "pitch": 62, "duration": 291, "velocity": 105}, {"time": 114480, "pitch": 52, "duration": 1177, "velocity": 103}, {"time": 114480, "pitch": 67, "duration": 1167, "velocity": 115}, {"time": 115677, "pitch": 45, "duration": 712, "velocity": 115}, {"time": 115918, "pitch": 59, "duration": 301, "velocity": 109}, {"time": 116159, "pitch": 60, "duration": 341, "velocity": 119}, {"time": 116399, "pitch": 52, "duration": 903, "velocity": 109}, {"time": 116399, "pitch": 67, "duration": 903, "velocity": 112}, {"time": 117363, "pitch": 50, "duration": 815, "velocity": 108}, {"time": 117363, "pitch": 57, "duration": 855, "velocity": 107}, {"time": 117363, "pitch": 60, "duration": 865, "velocity": 111}, {"time": 117363, "pitch": 65, "duration": 845, "velocity": 113}, {"time": 118318, "pitch": 43, "duration": 913, "velocity": 102}, {"time": 118318, "pitch": 53, "duration": 893, "velocity": 106}, {"time": 118318, "pitch": 57, "duration": 833, "velocity": 102}, {"time": 118318, "pitch": 60, "duration": 833, "velocity": 106}, {"time": 118318, "pitch": 62, "duration": 863, "velocity": 112}, {"time": 119282, "pitch": 48, "duration": 1106, "velocity": 111}, {"time": 119282, "pitch": 55, "duration": 1086, "velocity": 103}, {"time": 119282, "pitch": 59, "duration": 1066, "velocity": 102}, {"time": 119282, "pitch": 64, "duration": 1066, "velocity": 116}, {"time": 120478, "pitch": 47, "duration": 442, "velocity": 100}, {"time": 120478, "pitch": 57, "duration": 371, "velocity": 110}, {"time": 120478, "pitch": 62, "duration": 361, "velocity": 94}, {"time": 120478, "pitch": 65, "duration": 382, "velocity": 115}, {"time": 120960, "pitch": 52, "duration": 421, "velocity": 108}, {"time": 120960, "pitch": 56, "duration": 361, "velocity": 108}, {"time": 120960, "pitch": 62, "duration": 391, "velocity": 100}, {"time": 120960, "pitch": 64, "duration": 391, "velocity": 117}, {"time": 121441, "pitch": 45, "duration": 996, "velocity": 104}, {"time": 121441, "pitch": 55, "duration": 769, "velocity": 107}, {"time": 121441, "pitch": 60, "duration": 857, "velocity": 109}, {"time": 121441, "pitch": 64, "duration": 867, "velocity": 115}, {"time": 122397, "pitch": 43, "duration": 482, "velocity": 100}, {"time": 122397, "pitch": 58, "duration": 381, "velocity": 111}, {"time": 122397, "pitch": 65, "duration": 432, "velocity": 115}, {"time": 122879, "pitch": 48, "duration": 461, "velocity": 106}, {"time": 122879, "pitch": 58, "duration": 351, "velocity": 104}, {"time": 122879, "pitch": 60, "duration": 371, "velocity": 102}, {"time": 122879, "pitch": 64, "duration": 421, "velocity": 112}, {"time": 123360, "pitch": 41, "duration": 452, "velocity": 115}, {"time": 123360, "pitch": 60, "duration": 482, "velocity": 114}, {"time": 123360, "pitch": 64, "duration": 502, "velocity": 107}, {"time": 123360, "pitch": 69, "duration": 432, "velocity": 119}, {"time": 123842, "pitch": 53, "duration": 311, "velocity": 111}, {"time": 124083, "pitch": 52, "duration": 280, "velocity": 111}, {"time": 124083, "pitch": 59, "duration": 241, "velocity": 105}, {"time": 124083, "pitch": 62, "duration": 241, "velocity": 96}, {"time": 124083, "pitch": 67, "duration": 250, "velocity": 117}, {"time": 124561, "pitch": 50, "duration": 458, "velocity": 110}, {"time": 124561, "pitch": 57, "duration": 598, "velocity": 106}, {"time": 124561, "pitch": 60, "duration": 618, "velocity": 105}, {"time": 124561, "pitch": 65, "duration": 618, "velocity": 123}, {"time": 125039, "pitch": 48, "duration": 150, "velocity": 108}, {"time": 125279, "pitch": 46, "duration": 1498, "velocity": 108}, {"time": 125279, "pitch": 57, "duration": 1518, "velocity": 104}, {"time": 125279, "pitch": 58, "duration": 1488, "velocity": 104}, {"time": 125279, "pitch": 60, "duration": 1488, "velocity": 101}, {"time": 125279, "pitch": 65, "duration": 1508, "velocity": 119}, {"time": 126958, "pitch": 45, "duration": 832, "velocity": 105}, {"time": 126958, "pitch": 52, "duration": 822, "velocity": 108}, {"time": 126958, "pitch": 59, "duration": 832, "velocity": 107}, {"time": 126958, "pitch": 62, "duration": 862, "velocity": 100}, {"time": 126958, "pitch": 67, "duration": 903, "velocity": 115}, {"time": 127921, "pitch": 45, "duration": 1048, "velocity": 109}, {"time": 127921, "pitch": 52, "duration": 1058, "velocity": 105}, {"time": 127921, "pitch": 62, "duration": 1028, "velocity": 101}, {"time": 127921, "pitch": 67, "duration": 969, "velocity": 103}, {"time": 127921, "pitch": 71, "duration": 969, "velocity": 120}, {"time": 129117, "pitch": 45, "duration": 1890, "velocity": 107}, {"time": 129117, "pitch": 57, "duration": 1890, "velocity": 111}, {"time": 129117, "pitch": 62, "duration": 412, "velocity": 108}, {"time": 129117, "pitch": 67, "duration": 422, "velocity": 104}, {"time": 129117, "pitch": 71, "duration": 432, "velocity": 107}, {"time": 129117, "pitch": 74, "duration": 422, "velocity": 119}, {"time": 129599, "pitch": 61, "duration": 421, "velocity": 118}, {"time": 129599, "pitch": 67, "duration": 411, "velocity": 98}, {"time": 129599, "pitch": 69, "duration": 401, "velocity": 99}, {"time": 129599, "pitch": 73, "duration": 401, "velocity": 108}, {"time": 130081, "pitch": 62, "duration": 401, "velocity": 99}, {"time": 130081, "pitch": 67, "duration": 431, "velocity": 99}, {"time": 130081, "pitch": 71, "duration": 431, "velocity": 104}, {"time": 130081, "pitch": 74, "duration": 431, "velocity": 118}, {"time": 130562, "pitch": 64, "duration": 425, "velocity": 99}, {"time": 130562, "pitch": 67, "duration": 435, "velocity": 105}, {"time": 130562, "pitch": 73, "duration": 425, "velocity": 104}, {"time": 130562, "pitch": 76, "duration": 435, "velocity": 120}, {"time": 131036, "pitch": 50, "duration": 1586, "velocity": 96}, {"time": 131036, "pitch": 57, "duration": 1606, "velocity": 97}, {"time": 131036, "pitch": 64, "duration": 251, "velocity": 88}, {"time": 131036, "pitch": 66, "duration": 251, "velocity": 86}, {"time": 131036, "pitch": 69, "duration": 241, "velocity": 112}, {"time": 131277, "pitch": 62, "duration": 251, "velocity": 78}, {"time": 131518, "pitch": 64, "duration": 231, "velocity": 84}, {"time": 131518, "pitch": 66, "duration": 251, "velocity": 92}, {"time": 131518, "pitch": 69, "duration": 241, "velocity": 105}, {"time": 131759, "pitch": 62, "duration": 271, "velocity": 84}, {"time": 132000, "pitch": 64, "duration": 250, "velocity": 79}, {"time": 132000, "pitch": 66, "duration": 270, "velocity": 100}, {"time": 132000, "pitch": 69, "duration": 230, "velocity": 109}, {"time": 132240, "pitch": 62, "duration": 281, "velocity": 84}, {"time": 132481, "pitch": 64, "duration": 251, "velocity": 83}, {"time": 132481, "pitch": 66, "duration": 271, "velocity": 91}, {"time": 132481, "pitch": 69, "duration": 231, "velocity": 111}, {"time": 132722, "pitch": 50, "duration": 2049, "velocity": 95}, {"time": 132722, "pitch": 61, "duration": 2039, "velocity": 100}, {"time": 132722, "pitch": 62, "duration": 251, "velocity": 83}, {"time": 132963, "pitch": 64, "duration": 247, "velocity": 84}, {"time": 132963, "pitch": 66, "duration": 247, "velocity": 95}, {"time": 132963, "pitch": 69, "duration": 207, "velocity": 104}, {"time": 133200, "pitch": 62, "duration": 267, "velocity": 86}, {"time": 133437, "pitch": 64, "duration": 261, "velocity": 78}, {"time": 133437, "pitch": 66, "duration": 261, "velocity": 91}, {"time": 133437, "pitch": 69, "duration": 221, "velocity": 99}, {"time": 133678, "pitch": 62, "duration": 251, "velocity": 91}, {"time": 133919, "pitch": 64, "duration": 250, "velocity": 78}, {"time": 133919, "pitch": 66, "duration": 260, "velocity": 93}, {"time": 133919, "pitch": 69, "duration": 240, "velocity": 96}, {"time": 134159, "pitch": 62, "duration": 311, "velocity": 86}, {"time": 134400, "pitch": 64, "duration": 261, "velocity": 81}, {"time": 134400, "pitch": 66, "duration": 281, "velocity": 90}, {"time": 134400, "pitch": 69, "duration": 241, "velocity": 98}, {"time": 134641, "pitch": 62, "duration": 251, "velocity": 85}, {"time": 134882, "pitch": 50, "duration": 1557, "velocity": 100}, {"time": 134882, "pitch": 61, "duration": 1547, "velocity": 104}, {"time": 134882, "pitch": 64, "duration": 240, "velocity": 83}, {"time": 134882, "pitch": 66, "duration": 240, "velocity": 95}, {"time": 134882, "pitch": 69, "duration": 210, "velocity": 102}, {"time": 135122, "pitch": 62, "duration": 281, "velocity": 87}, {"time": 135363, "pitch": 64, "duration": 257, "velocity": 80}, {"time": 135363, "pitch": 66, "duration": 247, "velocity": 91}, {"time": 135363, "pitch": 69, "duration": 208, "velocity": 100}, {"time": 135600, "pitch": 62, "duration": 288, "velocity": 86}, {"time": 135838, "pitch": 64, "duration": 260, "velocity": 75}, {"time": 135838, "pitch": 66, "duration": 270, "velocity": 90}, {"time": 135838, "pitch": 69, "duration": 230, "velocity": 102}, {"time": 136078, "pitch": 62, "duration": 281, "velocity": 91}, {"time": 136319, "pitch": 64, "duration": 281, "velocity": 75}, {"time": 136319, "pitch": 66, "duration": 291, "velocity": 93}, {"time": 136319, "pitch": 69, "duration": 261, "velocity": 99}, {"time": 136560, "pitch": 50, "duration": 2069, "velocity": 99}, {"time": 136560, "pitch": 60, "duration": 2089, "velocity": 104}, {"time": 136560, "pitch": 62, "duration": 251, "velocity": 95}, {"time": 136801, "pitch": 64, "duration": 240, "velocity": 76}, {"time": 136801, "pitch": 66, "duration": 230, "velocity": 90}, {"time": 136801, "pitch": 69, "duration": 200, "velocity": 100}, {"time": 137041, "pitch": 62, "duration": 291, "velocity": 90}, {"time": 137282, "pitch": 64, "duration": 257, "velocity": 77}, {"time": 137282, "pitch": 66, "duration": 267, "velocity": 92}, {"time": 137282, "pitch": 69, "duration": 237, "velocity": 97}, {"time": 137519, "pitch": 62, "duration": 288, "velocity": 87}, {"time": 137757, "pitch": 64, "duration": 280, "velocity": 74}, {"time": 137757, "pitch": 66, "duration": 290, "velocity": 92}, {"time": 137757, "pitch": 69, "duration": 270, "velocity": 96}, {"time": 137997, "pitch": 62, "duration": 301, "velocity": 90}, {"time": 138238, "pitch": 64, "duration": 251, "velocity": 77}, {"time": 138238, "pitch": 66, "duration": 251, "velocity": 92}, {"time": 138238, "pitch": 69, "duration": 191, "velocity": 98}, {"time": 138479, "pitch": 62, "duration": 261, "velocity": 88}, {"time": 138720, "pitch": 55, "duration": 1818, "velocity": 91}, {"time": 138720, "pitch": 59, "duration": 1798, "velocity": 92}, {"time": 138720, "pitch": 67, "duration": 250, "velocity": 103}, {"time": 138720, "pitch": 69, "duration": 220, "velocity": 110}, {"time": 138960, "pitch": 62, "duration": 291, "velocity": 80}, {"time": 139201, "pitch": 67, "duration": 271, "velocity": 96}, {"time": 139201, "pitch": 69, "duration": 251, "velocity": 104}, {"time": 139442, "pitch": 62, "duration": 320, "velocity": 85}, {"time": 139683, "pitch": 67, "duration": 296, "velocity": 96}, {"time": 139683, "pitch": 69, "duration": 267, "velocity": 105}, {"time": 139920, "pitch": 62, "duration": 317, "velocity": 86}, {"time": 140157, "pitch": 67, "duration": 241, "velocity": 98}, {"time": 140157, "pitch": 69, "duration": 231, "velocity": 103}, {"time": 140398, "pitch": 62, "duration": 251, "velocity": 87}, {"time": 140639, "pitch": 54, "duration": 1929, "velocity": 98}, {"time": 140639, "pitch": 57, "duration": 1919, "velocity": 85}, {"time": 140639, "pitch": 64, "duration": 250, "velocity": 92}, {"time": 140639, "pitch": 69, "duration": 240, "velocity": 107}, {"time": 140879, "pitch": 62, "duration": 281, "velocity": 84}, {"time": 141120, "pitch": 64, "duration": 271, "velocity": 94}, {"time": 141120, "pitch": 69, "duration": 261, "velocity": 106}, {"time": 141361, "pitch": 62, "duration": 291, "velocity": 89}, {"time": 141602, "pitch": 64, "duration": 271, "velocity": 97}, {"time": 141602, "pitch": 69, "duration": 241, "velocity": 106}, {"time": 141843, "pitch": 62, "duration": 260, "velocity": 87}, {"time": 142083, "pitch": 64, "duration": 247, "velocity": 92}, {"time": 142083, "pitch": 69, "duration": 178, "velocity": 104}, {"time": 142321, "pitch": 62, "duration": 168, "velocity": 86}, {"time": 142558, "pitch": 52, "duration": 1850, "velocity": 101}, {"time": 142558, "pitch": 62, "duration": 240, "velocity": 92}, {"time": 142558, "pitch": 67, "duration": 240, "velocity": 107}, {"time": 142798, "pitch": 59, "duration": 281, "velocity": 95}, {"time": 143039, "pitch": 62, "duration": 261, "velocity": 96}, {"time": 143039, "pitch": 67, "duration": 231, "velocity": 105}, {"time": 143280, "pitch": 59, "duration": 311, "velocity": 96}, {"time": 143521, "pitch": 62, "duration": 261, "velocity": 95}, {"time": 143521, "pitch": 67, "duration": 251, "velocity": 104}, {"time": 143762, "pitch": 59, "duration": 280, "velocity": 100}, {"time": 144002, "pitch": 62, "duration": 287, "velocity": 97}, {"time": 144002, "pitch": 67, "duration": 178, "velocity": 101}, {"time": 144240, "pitch": 59, "duration": 168, "velocity": 99}, {"time": 144477, "pitch": 45, "duration": 572, "velocity": 100}, {"time": 144477, "pitch": 55, "duration": 561, "velocity": 108}, {"time": 144477, "pitch": 59, "duration": 511, "velocity": 84}, {"time": 144477, "pitch": 62, "duration": 572, "velocity": 90}, {"time": 144477, "pitch": 66, "duration": 521, "velocity": 105}, {"time": 145199, "pitch": 45, "duration": 411, "velocity": 104}, {"time": 145199, "pitch": 55, "duration": 401, "velocity": 101}, {"time": 145199, "pitch": 59, "duration": 401, "velocity": 99}, {"time": 145199, "pitch": 62, "duration": 441, "velocity": 111}, {"time": 145681, "pitch": 45, "duration": 622, "velocity": 99}, {"time": 145681, "pitch": 57, "duration": 582, "velocity": 104}, {"time": 145681, "pitch": 61, "duration": 602, "velocity": 106}, {"time": 145681, "pitch": 64, "duration": 612, "velocity": 112}, {"time": 146403, "pitch": 50, "duration": 1447, "velocity": 104}, {"time": 146403, "pitch": 57, "duration": 1467, "velocity": 95}, {"time": 146403, "pitch": 64, "duration": 198, "velocity": 80}, {"time": 146403, "pitch": 66, "duration": 207, "velocity": 98}, {"time": 146403, "pitch": 69, "duration": 188, "velocity": 110}, {"time": 146640, "pitch": 62, "duration": 257, "velocity": 86}, {"time": 146877, "pitch": 64, "duration": 271, "velocity": 87}, {"time": 146877, "pitch": 66, "duration": 271, "velocity": 94}, {"time": 146877, "pitch": 69, "duration": 241, "velocity": 103}, {"time": 147118, "pitch": 62, "duration": 311, "velocity": 85}, {"time": 147359, "pitch": 64, "duration": 241, "velocity": 71}, {"time": 147359, "pitch": 66, "duration": 251, "velocity": 96}, {"time": 147359, "pitch": 69, "duration": 210, "velocity": 110}, {"time": 147600, "pitch": 62, "duration": 301, "velocity": 90}, {"time": 147840, "pitch": 64, "duration": 271, "velocity": 77}, {"time": 147840, "pitch": 66, "duration": 281, "velocity": 96}, {"time": 147840, "pitch": 69, "duration": 181, "velocity": 94}, {"time": 148081, "pitch": 50, "duration": 1989, "velocity": 104}, {"time": 148081, "pitch": 61, "duration": 1989, "velocity": 104}, {"time": 148081, "pitch": 62, "duration": 271, "velocity": 96}, {"time": 148322, "pitch": 64, "duration": 261, "velocity": 75}, {"time": 148322, "pitch": 66, "duration": 261, "velocity": 93}, {"time": 148322, "pitch": 69, "duration": 191, "velocity": 103}, {"time": 148563, "pitch": 62, "duration": 280, "velocity": 91}, {"time": 148804, "pitch": 64, "duration": 227, "velocity": 75}, {"time": 148804, "pitch": 66, "duration": 247, "velocity": 92}, {"time": 148804, "pitch": 69, "duration": 207, "velocity": 102}, {"time": 149041, "pitch": 62, "duration": 307, "velocity": 90}, {"time": 149278, "pitch": 64, "duration": 281, "velocity": 75}, {"time": 149278, "pitch": 66, "duration": 301, "velocity": 90}, {"time": 149278, "pitch": 69, "duration": 231, "velocity": 100}, {"time": 149519, "pitch": 62, "duration": 291, "velocity": 89}, {"time": 149759, "pitch": 64, "duration": 271, "velocity": 78}, {"time": 149759, "pitch": 66, "duration": 281, "velocity": 92}, {"time": 149759, "pitch": 69, "duration": 221, "velocity": 99}, {"time": 150000, "pitch": 62, "duration": 281, "velocity": 83}, {"time": 150241, "pitch": 50, "duration": 1528, "velocity": 94}, {"time": 150241, "pitch": 61, "duration": 1508, "velocity": 100}, {"time": 150241, "pitch": 64, "duration": 231, "velocity": 81}, {"time": 150241, "pitch": 66, "duration": 221, "velocity": 97}, {"time": 150241, "pitch": 69, "duration": 191, "velocity": 106}, {"time": 150482, "pitch": 62, "duration": 310, "velocity": 92}, {"time": 150723, "pitch": 64, "duration": 286, "velocity": 78}, {"time": 150723, "pitch": 66, "duration": 276, "velocity": 95}, {"time": 150723, "pitch": 69, "duration": 247, "velocity": 102}, {"time": 150960, "pitch": 62, "duration": 307, "velocity": 88}, {"time": 151197, "pitch": 64, "duration": 281, "velocity": 83}, {"time": 151197, "pitch": 66, "duration": 291, "velocity": 94}, {"time": 151197, "pitch": 69, "duration": 241, "velocity": 101}, {"time": 151438, "pitch": 62, "duration": 311, "velocity": 89}, {"time": 151678, "pitch": 64, "duration": 261, "velocity": 75}, {"time": 151678, "pitch": 66, "duration": 271, "velocity": 91}, {"time": 151678, "pitch": 69, "duration": 201, "velocity": 98}, {"time": 151919, "pitch": 50, "duration": 2080, "velocity": 97}, {"time": 151919, "pitch": 60, "duration": 2029, "velocity": 96}, {"time": 151919, "pitch": 62, "duration": 251, "velocity": 98}, {"time": 152160, "pitch": 64, "duration": 251, "velocity": 70}, {"time": 152160, "pitch": 66, "duration": 241, "velocity": 87}, {"time": 152160, "pitch": 69, "duration": 171, "velocity": 102}, {"time": 152401, "pitch": 62, "duration": 301, "velocity": 90}, {"time": 152642, "pitch": 64, "duration": 280, "velocity": 84}, {"time": 152642, "pitch": 66, "duration": 250, "velocity": 88}, {"time": 152642, "pitch": 69, "duration": 210, "velocity": 101}, {"time": 152882, "pitch": 62, "duration": 281, "velocity": 88}, {"time": 153123, "pitch": 64, "duration": 267, "velocity": 81}, {"time": 153123, "pitch": 66, "duration": 247, "velocity": 89}, {"time": 153123, "pitch": 69, "duration": 227, "velocity": 103}, {"time": 153360, "pitch": 62, "duration": 308, "velocity": 89}, {"time": 153597, "pitch": 64, "duration": 251, "velocity": 71}, {"time": 153597, "pitch": 66, "duration": 241, "velocity": 95}, {"time": 153597, "pitch": 69, "duration": 201, "velocity": 104}, {"time": 153838, "pitch": 62, "duration": 251, "velocity": 87}, {"time": 154079, "pitch": 55, "duration": 1839, "velocity": 94}, {"time": 154079, "pitch": 59, "duration": 1819, "velocity": 94}, {"time": 154079, "pitch": 67, "duration": 231, "velocity": 103}, {"time": 154079, "pitch": 69, "duration": 211, "velocity": 108}, {"time": 154320, "pitch": 62, "duration": 301, "velocity": 81}, {"time": 154561, "pitch": 67, "duration": 280, "velocity": 95}, {"time": 154561, "pitch": 69, "duration": 260, "velocity": 103}, {"time": 154801, "pitch": 62, "duration": 300, "velocity": 90}, {"time": 155042, "pitch": 67, "duration": 277, "velocity": 96}, {"time": 155042, "pitch": 69, "duration": 257, "velocity": 101}, {"time": 155279, "pitch": 62, "duration": 318, "velocity": 86}, {"time": 155516, "pitch": 67, "duration": 221, "velocity": 99}, {"time": 155516, "pitch": 69, "duration": 211, "velocity": 102}, {"time": 155757, "pitch": 62, "duration": 221, "velocity": 84}, {"time": 155998, "pitch": 54, "duration": 1850, "velocity": 96}, {"time": 155998, "pitch": 57, "duration": 1860, "velocity": 88}, {"time": 155998, "pitch": 64, "duration": 251, "velocity": 101}, {"time": 155998, "pitch": 69, "duration": 221, "velocity": 108}, {"time": 156239, "pitch": 62, "duration": 281, "velocity": 85}, {"time": 156480, "pitch": 64, "duration": 250, "velocity": 94}, {"time": 156480, "pitch": 69, "duration": 240, "velocity": 108}, {"time": 156720, "pitch": 62, "duration": 301, "velocity": 90}, {"time": 156961, "pitch": 64, "duration": 281, "velocity": 95}, {"time": 156961, "pitch": 69, "duration": 261, "velocity": 107}, {"time": 157202, "pitch": 62, "duration": 300, "velocity": 88}, {"time": 157443, "pitch": 64, "duration": 276, "velocity": 95}, {"time": 157443, "pitch": 69, "duration": 158, "velocity": 104}, {"time": 157680, "pitch": 62, "duration": 178, "velocity": 90}, {"time": 157917, "pitch": 52, "duration": 1846, "velocity": 101}, {"time": 157917, "pitch": 62, "duration": 251, "velocity": 94}, {"time": 157917, "pitch": 67, "duration": 221, "velocity": 106}, {"time": 158158, "pitch": 59, "duration": 281, "velocity": 93}, {"time": 158398, "pitch": 62, "duration": 281, "velocity": 97}, {"time": 158398, "pitch": 67, "duration": 221, "velocity": 102}, {"time": 158639, "pitch": 59, "duration": 291, "velocity": 91}, {"time": 158880, "pitch": 62, "duration": 261, "velocity": 98}, {"time": 158880, "pitch": 67, "duration": 221, "velocity": 101}, {"time": 159121, "pitch": 59, "duration": 281, "velocity": 97}, {"time": 159362, "pitch": 62, "duration": 250, "velocity": 92}, {"time": 159362, "pitch": 67, "duration": 190, "velocity": 103}, {"time": 159602, "pitch": 59, "duration": 171, "velocity": 96}, {"time": 159843, "pitch": 55, "duration": 615, "velocity": 99}, {"time": 159843, "pitch": 58, "duration": 605, "velocity": 115}, {"time": 159843, "pitch": 62, "duration": 615, "velocity": 91}, {"time": 159843, "pitch": 67, "duration": 605, "velocity": 110}, {"time": 160558, "pitch": 55, "duration": 432, "velocity": 96}, {"time": 160558, "pitch": 58, "duration": 422, "velocity": 110}, {"time": 160558, "pitch": 62, "duration": 402, "velocity": 89}, {"time": 160558, "pitch": 66, "duration": 472, "velocity": 116}, {"time": 161040, "pitch": 55, "duration": 391, "velocity": 90}, {"time": 161040, "pitch": 58, "duration": 401, "velocity": 105}, {"time": 161040, "pitch": 62, "duration": 401, "velocity": 115}, {"time": 161521, "pitch": 52, "duration": 2140, "velocity": 102}, {"time": 161521, "pitch": 59, "duration": 2140, "velocity": 108}, {"time": 161521, "pitch": 62, "duration": 2140, "velocity": 84}, {"time": 161521, "pitch": 67, "duration": 2140, "velocity": 111}, {"time": 163681, "pitch": 45, "duration": 887, "velocity": 102}, {"time": 163681, "pitch": 57, "duration": 847, "velocity": 106}, {"time": 163681, "pitch": 61, "duration": 877, "velocity": 104}, {"time": 163681, "pitch": 66, "duration": 857, "velocity": 109}, {"time": 164637, "pitch": 45, "duration": 963, "velocity": 100}, {"time": 164637, "pitch": 59, "duration": 973, "velocity": 98}, {"time": 164637, "pitch": 62, "duration": 923, "velocity": 95}, {"time": 164637, "pitch": 67, "duration": 963, "velocity": 112}, {"time": 165600, "pitch": 50, "duration": 1578, "velocity": 96}, {"time": 165600, "pitch": 57, "duration": 1598, "velocity": 97}, {"time": 165600, "pitch": 64, "duration": 251, "velocity": 88}, {"time": 165600, "pitch": 66, "duration": 251, "velocity": 86}, {"time": 165600, "pitch": 69, "duration": 241, "velocity": 112}, {"time": 165841, "pitch": 62, "duration": 251, "velocity": 78}, {"time": 166082, "pitch": 64, "duration": 231, "velocity": 84}, {"time": 166082, "pitch": 66, "duration": 251, "velocity": 92}, {"time": 166082, "pitch": 69, "duration": 241, "velocity": 105}, {"time": 166323, "pitch": 62, "duration": 270, "velocity": 84}, {"time": 166563, "pitch": 64, "duration": 247, "velocity": 79}, {"time": 166563, "pitch": 66, "duration": 267, "velocity": 100}, {"time": 166563, "pitch": 69, "duration": 228, "velocity": 109}, {"time": 166800, "pitch": 62, "duration": 278, "velocity": 84}, {"time": 167038, "pitch": 64, "duration": 250, "velocity": 83}, {"time": 167038, "pitch": 66, "duration": 271, "velocity": 91}, {"time": 167038, "pitch": 69, "duration": 230, "velocity": 111}, {"time": 167278, "pitch": 50, "duration": 2050, "velocity": 95}, {"time": 167278, "pitch": 61, "duration": 2040, "velocity": 100}, {"time": 167278, "pitch": 62, "duration": 251, "velocity": 83}, {"time": 167519, "pitch": 64, "duration": 251, "velocity": 84}, {"time": 167519, "pitch": 66, "duration": 251, "velocity": 95}, {"time": 167519, "pitch": 69, "duration": 211, "velocity": 104}, {"time": 167760, "pitch": 62, "duration": 271, "velocity": 86}, {"time": 168001, "pitch": 64, "duration": 261, "velocity": 78}, {"time": 168001, "pitch": 66, "duration": 261, "velocity": 91}, {"time": 168001, "pitch": 69, "duration": 221, "velocity": 99}, {"time": 168242, "pitch": 62, "duration": 250, "velocity": 91}, {"time": 168482, "pitch": 64, "duration": 247, "velocity": 78}, {"time": 168482, "pitch": 66, "duration": 257, "velocity": 93}, {"time": 168482, "pitch": 69, "duration": 237, "velocity": 96}, {"time": 168719, "pitch": 62, "duration": 308, "velocity": 86}, {"time": 168957, "pitch": 64, "duration": 260, "velocity": 81}, {"time": 168957, "pitch": 66, "duration": 281, "velocity": 90}, {"time": 168957, "pitch": 69, "duration": 240, "velocity": 98}, {"time": 169197, "pitch": 62, "duration": 251, "velocity": 85}, {"time": 169438, "pitch": 50, "duration": 1563, "velocity": 100}, {"time": 169438, "pitch": 61, "duration": 1554, "velocity": 104}, {"time": 169438, "pitch": 64, "duration": 241, "velocity": 83}, {"time": 169438, "pitch": 66, "duration": 241, "velocity": 95}, {"time": 169438, "pitch": 69, "duration": 211, "velocity": 102}, {"time": 169679, "pitch": 62, "duration": 281, "velocity": 87}, {"time": 169920, "pitch": 64, "duration": 261, "velocity": 80}, {"time": 169920, "pitch": 66, "duration": 251, "velocity": 91}, {"time": 169920, "pitch": 69, "duration": 210, "velocity": 100}, {"time": 170161, "pitch": 62, "duration": 291, "velocity": 86}, {"time": 170401, "pitch": 64, "duration": 261, "velocity": 75}, {"time": 170401, "pitch": 66, "duration": 271, "velocity": 90}, {"time": 170401, "pitch": 69, "duration": 231, "velocity": 102}, {"time": 170642, "pitch": 62, "duration": 280, "velocity": 91}, {"time": 170883, "pitch": 64, "duration": 277, "velocity": 75}, {"time": 170883, "pitch": 66, "duration": 286, "velocity": 93}, {"time": 170883, "pitch": 69, "duration": 257, "velocity": 99}, {"time": 171120, "pitch": 50, "duration": 2073, "velocity": 99}, {"time": 171120, "pitch": 60, "duration": 2093, "velocity": 104}, {"time": 171120, "pitch": 62, "duration": 247, "velocity": 95}, {"time": 171357, "pitch": 64, "duration": 241, "velocity": 76}, {"time": 171357, "pitch": 66, "duration": 231, "velocity": 90}, {"time": 171357, "pitch": 69, "duration": 201, "velocity": 100}, {"time": 171598, "pitch": 62, "duration": 291, "velocity": 90}, {"time": 171839, "pitch": 64, "duration": 261, "velocity": 77}, {"time": 171839, "pitch": 66, "duration": 271, "velocity": 92}, {"time": 171839, "pitch": 69, "duration": 241, "velocity": 97}, {"time": 172080, "pitch": 62, "duration": 291, "velocity": 87}, {"time": 172320, "pitch": 64, "duration": 281, "velocity": 74}, {"time": 172320, "pitch": 66, "duration": 291, "velocity": 92}, {"time": 172320, "pitch": 69, "duration": 271, "velocity": 96}, {"time": 172561, "pitch": 62, "duration": 301, "velocity": 90}, {"time": 172802, "pitch": 64, "duration": 251, "velocity": 77}, {"time": 172802, "pitch": 66, "duration": 251, "velocity": 92}, {"time": 172802, "pitch": 69, "duration": 191, "velocity": 98}, {"time": 173043, "pitch": 62, "duration": 260, "velocity": 88}, {"time": 173283, "pitch": 55, "duration": 1819, "velocity": 91}, {"time": 173283, "pitch": 59, "duration": 1799, "velocity": 92}, {"time": 173283, "pitch": 67, "duration": 248, "velocity": 103}, {"time": 173283, "pitch": 69, "duration": 218, "velocity": 110}, {"time": 173521, "pitch": 62, "duration": 287, "velocity": 80}, {"time": 173758, "pitch": 67, "duration": 271, "velocity": 96}, {"time": 173758, "pitch": 69, "duration": 251, "velocity": 104}, {"time": 173999, "pitch": 62, "duration": 321, "velocity": 85}, {"time": 174239, "pitch": 67, "duration": 301, "velocity": 96}, {"time": 174239, "pitch": 69, "duration": 271, "velocity": 105}, {"time": 174480, "pitch": 62, "duration": 321, "velocity": 86}, {"time": 174721, "pitch": 67, "duration": 241, "velocity": 98}, {"time": 174721, "pitch": 69, "duration": 231, "velocity": 103}, {"time": 174962, "pitch": 62, "duration": 250, "velocity": 87}, {"time": 175202, "pitch": 54, "duration": 1930, "velocity": 98}, {"time": 175202, "pitch": 57, "duration": 1920, "velocity": 85}, {"time": 175202, "pitch": 64, "duration": 248, "velocity": 92}, {"time": 175202, "pitch": 69, "duration": 238, "velocity": 107}, {"time": 175440, "pitch": 62, "duration": 277, "velocity": 84}, {"time": 175677, "pitch": 64, "duration": 271, "velocity": 94}, {"time": 175677, "pitch": 69, "duration": 261, "velocity": 106}, {"time": 175918, "pitch": 62, "duration": 290, "velocity": 89}, {"time": 176158, "pitch": 64, "duration": 271, "velocity": 97}, {"time": 176158, "pitch": 69, "duration": 241, "velocity": 106}, {"time": 176399, "pitch": 62, "duration": 261, "velocity": 87}, {"time": 176640, "pitch": 64, "duration": 251, "velocity": 92}, {"time": 176640, "pitch": 69, "duration": 181, "velocity": 104}, {"time": 176881, "pitch": 62, "duration": 170, "velocity": 86}, {"time": 177122, "pitch": 52, "duration": 1848, "velocity": 101}, {"time": 177122, "pitch": 62, "duration": 240, "velocity": 92}, {"time": 177122, "pitch": 67, "duration": 240, "velocity": 107}, {"time": 177362, "pitch": 59, "duration": 281, "velocity": 95}, {"time": 177603, "pitch": 62, "duration": 257, "velocity": 96}, {"time": 177603, "pitch": 67, "duration": 227, "velocity": 105}, {"time": 177840, "pitch": 59, "duration": 308, "velocity": 96}, {"time": 178077, "pitch": 62, "duration": 261, "velocity": 95}, {"time": 178077, "pitch": 67, "duration": 251, "velocity": 104}, {"time": 178318, "pitch": 59, "duration": 281, "velocity": 100}, {"time": 178559, "pitch": 62, "duration": 291, "velocity": 97}, {"time": 178559, "pitch": 67, "duration": 180, "velocity": 101}, {"time": 178800, "pitch": 59, "duration": 170, "velocity": 99}, {"time": 179040, "pitch": 45, "duration": 572, "velocity": 100}, {"time": 179040, "pitch": 55, "duration": 562, "velocity": 108}, {"time": 179040, "pitch": 59, "duration": 512, "velocity": 84}, {"time": 179040, "pitch": 62, "duration": 572, "velocity": 90}, {"time": 179040, "pitch": 66, "duration": 522, "velocity": 105}, {"time": 179763, "pitch": 45, "duration": 409, "velocity": 104}, {"time": 179763, "pitch": 55, "duration": 399, "velocity": 101}, {"time": 179763, "pitch": 59, "duration": 399, "velocity": 99}, {"time": 179763, "pitch": 62, "duration": 438, "velocity": 111}, {"time": 180241, "pitch": 45, "duration": 618, "velocity": 99}, {"time": 180241, "pitch": 57, "duration": 578, "velocity": 104}, {"time": 180241, "pitch": 61, "duration": 598, "velocity": 106}, {"time": 180241, "pitch": 64, "duration": 608, "velocity": 112}, {"time": 180959, "pitch": 50, "duration": 1448, "velocity": 104}, {"time": 180959, "pitch": 57, "duration": 1468, "velocity": 95}, {"time": 180959, "pitch": 64, "duration": 201, "velocity": 80}, {"time": 180959, "pitch": 66, "duration": 211, "velocity": 98}, {"time": 180959, "pitch": 69, "duration": 191, "velocity": 110}, {"time": 181200, "pitch": 62, "duration": 261, "velocity": 86}, {"time": 181441, "pitch": 64, "duration": 271, "velocity": 87}, {"time": 181441, "pitch": 66, "duration": 271, "velocity": 94}, {"time": 181441, "pitch": 69, "duration": 241, "velocity": 103}, {"time": 181682, "pitch": 62, "duration": 310, "velocity": 85}, {"time": 181923, "pitch": 64, "duration": 237, "velocity": 71}, {"time": 181923, "pitch": 66, "duration": 247, "velocity": 96}, {"time": 181923, "pitch": 69, "duration": 207, "velocity": 110}, {"time": 182160, "pitch": 62, "duration": 297, "velocity": 90}, {"time": 182397, "pitch": 64, "duration": 271, "velocity": 77}, {"time": 182397, "pitch": 66, "duration": 281, "velocity": 96}, {"time": 182397, "pitch": 69, "duration": 180, "velocity": 94}, {"time": 182638, "pitch": 50, "duration": 1991, "velocity": 104}, {"time": 182638, "pitch": 61, "duration": 1991, "velocity": 104}, {"time": 182638, "pitch": 62, "duration": 271, "velocity": 96}, {"time": 182878, "pitch": 64, "duration": 261, "velocity": 75}, {"time": 182878, "pitch": 66, "duration": 261, "velocity": 93}, {"time": 182878, "pitch": 69, "duration": 191, "velocity": 103}, {"time": 183119, "pitch": 62, "duration": 281, "velocity": 91}, {"time": 183360, "pitch": 64, "duration": 231, "velocity": 75}, {"time": 183360, "pitch": 66, "duration": 251, "velocity": 92}, {"time": 183360, "pitch": 69, "duration": 211, "velocity": 102}, {"time": 183601, "pitch": 62, "duration": 311, "velocity": 90}, {"time": 183842, "pitch": 64, "duration": 281, "velocity": 75}, {"time": 183842, "pitch": 66, "duration": 301, "velocity": 90}, {"time": 183842, "pitch": 69, "duration": 230, "velocity": 100}, {"time": 184082, "pitch": 62, "duration": 291, "velocity": 89}, {"time": 184323, "pitch": 64, "duration": 267, "velocity": 78}, {"time": 184323, "pitch": 66, "duration": 277, "velocity": 92}, {"time": 184323, "pitch": 69, "duration": 218, "velocity": 99}, {"time": 184560, "pitch": 62, "duration": 278, "velocity": 83}, {"time": 184797, "pitch": 50, "duration": 1534, "velocity": 94}, {"time": 184797, "pitch": 61, "duration": 1514, "velocity": 100}, {"time": 184797, "pitch": 64, "duration": 231, "velocity": 81}, {"time": 184797, "pitch": 66, "duration": 221, "velocity": 97}, {"time": 184797, "pitch": 69, "duration": 191, "velocity": 106}, {"time": 185038, "pitch": 62, "duration": 311, "velocity": 92}, {"time": 185279, "pitch": 64, "duration": 291, "velocity": 78}, {"time": 185279, "pitch": 66, "duration": 281, "velocity": 95}, {"time": 185279, "pitch": 69, "duration": 251, "velocity": 102}, {"time": 185520, "pitch": 62, "duration": 311, "velocity": 88}, {"time": 185761, "pitch": 64, "duration": 281, "velocity": 83}, {"time": 185761, "pitch": 66, "duration": 291, "velocity": 94}, {"time": 185761, "pitch": 69, "duration": 240, "velocity": 101}, {"time": 186001, "pitch": 62, "duration": 310, "velocity": 89}, {"time": 186242, "pitch": 64, "duration": 257, "velocity": 75}, {"time": 186242, "pitch": 66, "duration": 267, "velocity": 91}, {"time": 186242, "pitch": 69, "duration": 198, "velocity": 98}, {"time": 186479, "pitch": 50, "duration": 2084, "velocity": 97}, {"time": 186479, "pitch": 60, "duration": 2033, "velocity": 96}, {"time": 186479, "pitch": 62, "duration": 247, "velocity": 98}, {"time": 186716, "pitch": 64, "duration": 251, "velocity": 70}, {"time": 186716, "pitch": 66, "duration": 241, "velocity": 87}, {"time": 186716, "pitch": 69, "duration": 171, "velocity": 102}, {"time": 186957, "pitch": 62, "duration": 301, "velocity": 90}, {"time": 187198, "pitch": 64, "duration": 281, "velocity": 84}, {"time": 187198, "pitch": 66, "duration": 251, "velocity": 88}, {"time": 187198, "pitch": 69, "duration": 211, "velocity": 101}, {"time": 187439, "pitch": 62, "duration": 281, "velocity": 88}, {"time": 187680, "pitch": 64, "duration": 270, "velocity": 81}, {"time": 187680, "pitch": 66, "duration": 250, "velocity": 89}, {"time": 187680, "pitch": 69, "duration": 230, "velocity": 103}, {"time": 187920, "pitch": 62, "duration": 311, "velocity": 89}, {"time": 188161, "pitch": 64, "duration": 251, "velocity": 71}, {"time": 188161, "pitch": 66, "duration": 241, "velocity": 95}, {"time": 188161, "pitch": 69, "duration": 201, "velocity": 104}, {"time": 188402, "pitch": 62, "duration": 251, "velocity": 87}, {"time": 188643, "pitch": 55, "duration": 1839, "velocity": 94}, {"time": 188643, "pitch": 59, "duration": 1818, "velocity": 94}, {"time": 188643, "pitch": 67, "duration": 227, "velocity": 103}, {"time": 188643, "pitch": 69, "duration": 207, "velocity": 108}, {"time": 188880, "pitch": 62, "duration": 297, "velocity": 81}, {"time": 189117, "pitch": 67, "duration": 281, "velocity": 95}, {"time": 189117, "pitch": 69, "duration": 261, "velocity": 103}, {"time": 189358, "pitch": 62, "duration": 301, "velocity": 90}, {"time": 189599, "pitch": 67, "duration": 281, "velocity": 96}, {"time": 189599, "pitch": 69, "duration": 260, "velocity": 101}, {"time": 189839, "pitch": 62, "duration": 321, "velocity": 86}, {"time": 190080, "pitch": 67, "duration": 221, "velocity": 99}, {"time": 190080, "pitch": 69, "duration": 211, "velocity": 102}, {"time": 190321, "pitch": 62, "duration": 221, "velocity": 84}, {"time": 190562, "pitch": 54, "duration": 1849, "velocity": 96}, {"time": 190562, "pitch": 57, "duration": 1859, "velocity": 88}, {"time": 190562, "pitch": 64, "duration": 251, "velocity": 101}, {"time": 190562, "pitch": 69, "duration": 221, "velocity": 108}, {"time": 190803, "pitch": 62, "duration": 280, "velocity": 85}, {"time": 191043, "pitch": 64, "duration": 247, "velocity": 94}, {"time": 191043, "pitch": 69, "duration": 237, "velocity": 108}, {"time": 191280, "pitch": 62, "duration": 298, "velocity": 90}, {"time": 191518, "pitch": 64, "duration": 281, "velocity": 95}, {"time": 191518, "pitch": 69, "duration": 260, "velocity": 107}, {"time": 191758, "pitch": 62, "duration": 301, "velocity": 88}, {"time": 191999, "pitch": 64, "duration": 281, "velocity": 95}, {"time": 191999, "pitch": 69, "duration": 161, "velocity": 104}, {"time": 192240, "pitch": 62, "duration": 181, "velocity": 90}, {"time": 192481, "pitch": 52, "duration": 1838, "velocity": 101}, {"time": 192481, "pitch": 62, "duration": 251, "velocity": 94}, {"time": 192481, "pitch": 67, "duration": 220, "velocity": 106}, {"time": 192722, "pitch": 59, "duration": 280, "velocity": 93}, {"time": 192962, "pitch": 62, "duration": 277, "velocity": 97}, {"time": 192962, "pitch": 67, "duration": 218, "velocity": 102}, {"time": 193199, "pitch": 59, "duration": 288, "velocity": 91}, {"time": 193437, "pitch": 62, "duration": 260, "velocity": 98}, {"time": 193437, "pitch": 67, "duration": 220, "velocity": 101}, {"time": 193677, "pitch": 59, "duration": 281, "velocity": 97}, {"time": 193918, "pitch": 62, "duration": 251, "velocity": 92}, {"time": 193918, "pitch": 67, "duration": 191, "velocity": 103}, {"time": 194159, "pitch": 59, "duration": 171, "velocity": 96}, {"time": 194400, "pitch": 55, "duration": 622, "velocity": 99}, {"time": 194400, "pitch": 58, "duration": 612, "velocity": 115}, {"time": 194400, "pitch": 62, "duration": 622, "velocity": 91}, {"time": 194400, "pitch": 67, "duration": 612, "velocity": 110}, {"time": 195122, "pitch": 55, "duration": 429, "velocity": 96}, {"time": 195122, "pitch": 58, "duration": 419, "velocity": 110}, {"time": 195122, "pitch": 62, "duration": 399, "velocity": 89}, {"time": 195122, "pitch": 66, "duration": 439, "velocity": 116}, {"time": 195600, "pitch": 55, "duration": 388, "velocity": 90}, {"time": 195600, "pitch": 58, "duration": 398, "velocity": 105}, {"time": 195600, "pitch": 62, "duration": 398, "velocity": 115}, {"time": 196078, "pitch": 50, "duration": 2140, "velocity": 96}, {"time": 196078, "pitch": 57, "duration": 2140, "velocity": 106}, {"time": 196078, "pitch": 62, "duration": 2140, "velocity": 87}, {"time": 196078, "pitch": 66, "duration": 2140, "velocity": 113}, {"time": 198238, "pitch": 73, "duration": 983, "velocity": 93}, {"time": 198238, "pitch": 78, "duration": 983, "velocity": 107}, {"time": 198238, "pitch": 81, "duration": 983, "velocity": 98}, {"time": 199201, "pitch": 74, "duration": 966, "velocity": 104}, {"time": 199201, "pitch": 79, "duration": 956, "velocity": 101}, {"time": 199201, "pitch": 83, "duration": 976, "velocity": 108}, {"time": 200157, "pitch": 76, "duration": 963, "velocity": 98}, {"time": 200157, "pitch": 81, "duration": 973, "velocity": 101}, {"time": 200157, "pitch": 85, "duration": 963, "velocity": 110}, {"time": 201120, "pitch": 74, "duration": 973, "velocity": 98}, {"time": 201120, "pitch": 79, "duration": 973, "velocity": 100}, {"time": 201120, "pitch": 83, "duration": 983, "velocity": 108}, {"time": 202083, "pitch": 73, "duration": 976, "velocity": 93}, {"time": 202083, "pitch": 78, "duration": 976, "velocity": 107}, {"time": 202083, "pitch": 81, "duration": 976, "velocity": 98}, {"time": 203039, "pitch": 74, "duration": 973, "velocity": 104}, {"time": 203039, "pitch": 79, "duration": 963, "velocity": 101}, {"time": 203039, "pitch": 83, "duration": 983, "velocity": 108}, {"time": 204002, "pitch": 76, "duration": 956, "velocity": 98}, {"time": 204002, "pitch": 81, "duration": 966, "velocity": 101}, {"time": 204002, "pitch": 85, "duration": 956, "velocity": 110}, {"time": 204958, "pitch": 74, "duration": 973, "velocity": 98}, {"time": 204958, "pitch": 79, "duration": 973, "velocity": 100}, {"time": 204958, "pitch": 83, "duration": 983, "velocity": 108}, {"time": 205921, "pitch": 73, "duration": 976, "velocity": 93}, {"time": 205921, "pitch": 78, "duration": 976, "velocity": 107}, {"time": 205921, "pitch": 81, "duration": 976, "velocity": 98}, {"time": 206877, "pitch": 74, "duration": 973, "velocity": 104}, {"time": 206877, "pitch": 79, "duration": 963, "velocity": 101}, {"time": 206877, "pitch": 83, "duration": 983, "velocity": 108}, {"time": 207840, "pitch": 76, "duration": 963, "velocity": 98}, {"time": 207840, "pitch": 81, "duration": 973, "velocity": 101}, {"time": 207840, "pitch": 85, "duration": 963, "velocity": 110}, {"time": 208803, "pitch": 74, "duration": 966, "velocity": 98}, {"time": 208803, "pitch": 79, "duration": 966, "velocity": 100}, {"time": 208803, "pitch": 83, "duration": 976, "velocity": 108}, {"time": 209759, "pitch": 73, "duration": 983, "velocity": 93}, {"time": 209759, "pitch": 78, "duration": 983, "velocity": 107}, {"time": 209759, "pitch": 81, "duration": 983, "velocity": 98}, {"time": 210722, "pitch": 74, "duration": 966, "velocity": 104}, {"time": 210722, "pitch": 79, "duration": 956, "velocity": 101}, {"time": 210722, "pitch": 83, "duration": 976, "velocity": 108}, {"time": 211678, "pitch": 76, "duration": 963, "velocity": 98}, {"time": 211678, "pitch": 81, "duration": 973, "velocity": 101}, {"time": 211678, "pitch": 85, "duration": 963, "velocity": 110}, {"time": 212641, "pitch": 74, "duration": 959, "velocity": 98}, {"time": 212641, "pitch": 79, "duration": 959, "velocity": 100}, {"time": 212641, "pitch": 83, "duration": 968, "velocity": 108}, {"time": 213590, "pitch": 73, "duration": 968, "velocity": 93}, {"time": 213590, "pitch": 78, "duration": 968, "velocity": 107}, {"time": 213590, "pitch": 81, "duration": 968, "velocity": 98}, {"time": 214538, "pitch": 74, "duration": 959, "velocity": 104}, {"time": 214538, "pitch": 79, "duration": 949, "velocity": 101}, {"time": 214538, "pitch": 83, "duration": 969, "velocity": 108}, {"time": 215487, "pitch": 76, "duration": 949, "velocity": 98}, {"time": 215487, "pitch": 81, "duration": 958, "velocity": 101}, {"time": 215487, "pitch": 85, "duration": 949, "velocity": 110}, {"time": 216436, "pitch": 74, "duration": 909, "velocity": 98}, {"time": 216436, "pitch": 79, "duration": 909, "velocity": 100}, {"time": 216436, "pitch": 83, "duration": 909, "velocity": 108}], "annotations": [{"time": 218, "annotation": {"number": 0, "value": 0}, "group": "control_change"}, {"time": 240, "annotation": {"number": 32, "value": 0}, "group": "control_change"}, {"time": 283, "annotation": {"number": 7, "value": 120}, "group": "control_change"}, {"time": 305, "annotation": {"number": 11, "value": 100}, "group": "control_change"}, {"time": 327, "annotation": {"number": 10, "value": 64}, "group": "control_change"}, {"time": 349, "annotation": {"number": 91, "value": 70}, "group": "control_change"}, {"time": 370, "annotation": {"number": 93, "value": 10}, "group": "control_change"}, {"time": 392, "annotation": {"number": 101, "value": 0}, "group": "control_change"}, {"time": 414, "annotation": {"number": 100, "value": 0}, "group": "control_change"}, {"time": 436, "annotation": {"number": 6, "value": 12}, "group": "control_change"}, {"time": 458, "annotation": {"number": 101, "value": 127}, "group": "control_change"}, {"time": 479, "annotation": {"number": 100, "value": 127}, "group": "control_change"}, {"time": 479, "annotation": {"number": 64, "value": 127}, "group": "control_change"}, {"time": 1442, "annotation": {"number": 64, "value": 0}, "group": "control_change"}, {"time": 1561, "annotation": {"number": 64, "value": 127}, "group": "control_change"}, {"time": 2398, "annotation": {"number": 64, "value": 0}, "group": "control_change"}, {"time": 2518, "annotation": {"number": 64, "value": 127}, "group": "control_change"}, {"time": 3361, "annotation": {"number": 64, "value": 0}, "group": "control_change"}, {"time": 3482, "annotation": {"number": 64, "value": 127}, "group": "control_change"}, {"time": 4277, "annotation": {"number": 64, "value": 0}, "group": "control_change"}, {"time": 4317, "annotation": {"number": 64, "value": 127}, "group": "control_change"}, {"time": 5280, "annotation": {"number": 64, "value": 0}, "group": "control_change"}, {"time": 5401, "annotation": {"number": 64, "value": 127}, "group": "control_change"}, {"time": 6243, "annotation": {"number": 64, "value": 0}, "group": "control_change"}, {"time": 6362, "annotation": {"number": 64, "value": 127}, "group": "control_change"}, {"time": 7079, "annotation": {"number": 64, "value": 0}, "group": "control_change"}, {"time": 7320, "annotation": {"number": 64, "value": 127}, "group": "control_change"}, {"time": 8162, "annotation": {"number": 64, "value": 0}, "group": "control_change"}, {"time": 8281, "annotation": {"number": 64, "value": 127}, "group": "control_change"}, {"time": 9118, "annotation": {"number": 64, "value": 0}, "group": "control_change"}, {"time": 9239, "annotation": {"number": 64, "value": 127}, "group": "control_change"}, {"time": 10081, "annotation": {"number": 64, "value": 0}, "group": "control_change"}, {"time": 10202, "annotation": {"number": 64, "value": 127}, "group": "control_change"}, {"time": 11037, "annotation": {"number": 64, "value": 0}, "group": "control_change"}, {"time": 11157, "annotation": {"number": 64, "value": 127}, "group": "control_change"}, {"time": 12000, "annotation": {"number": 64, "value": 0}, "group": "control_change"}, {"time": 12121, "annotation": {"number": 64, "value": 127}, "group": "control_change"}, {"time": 12963, "annotation": {"number": 64, "value": 0}, "group": "control_change"}, {"time": 13082, "annotation": {"number": 64, "value": 127}, "group": "control_change"}, {"time": 13919, "annotation": {"number": 64, "value": 0}, "group": "control_change"}, {"time": 14040, "annotation": {"number": 64, "value": 127}, "group": "control_change"}, {"time": 14882, "annotation": {"number": 64, "value": 0}, "group": "control_change"}, {"time": 15001, "annotation": {"number": 64, "value": 127}, "group": "control_change"}, {"time": 15838, "annotation": {"number": 64, "value": 0}, "group": "control_change"}, {"time": 15959, "annotation": {"number": 64, "value": 127}, "group": "control_change"}, {"time": 16801, "annotation": {"number": 64, "value": 0}, "group": "control_change"}, {"time": 16922, "annotation": {"number": 64, "value": 127}, "group": "control_change"}, {"time": 17757, "annotation": {"number": 64, "value": 0}, "group": "control_change"}, {"time": 17878, "annotation": {"number": 64, "value": 127}, "group": "control_change"}, {"time": 18720, "annotation": {"number": 64, "value": 0}, "group": "control_change"}, {"time": 18841, "annotation": {"number": 64, "value": 127}, "group": "control_change"}, {"time": 19563, "annotation": {"number": 64, "value": 0}, "group": "control_change"}, {"time": 19802, "annotation": {"number": 64, "value": 127}, "group": "control_change"}, {"time": 20639, "annotation": {"number": 64, "value": 0}, "group": "control_change"}, {"time": 20760, "annotation": {"number": 64, "value": 127}, "group": "control_change"}, {"time": 21603, "annotation": {"number": 64, "value": 0}, "group": "control_change"}, {"time": 21721, "annotation": {"number": 64, "value": 127}, "group": "control_change"}, {"time": 22558, "annotation": {"number": 64, "value": 0}, "group": "control_change"}, {"time": 22679, "annotation": {"number": 64, "value": 127}, "group": "control_change"}, {"time": 23040, "annotation": {"number": 64, "value": 0}, "group": "control_change"}, {"time": 23160, "annotation": {"number": 64, "value": 127}, "group": "control_change"}, {"time": 23522, "annotation": {"number": 64, "value": 0}, "group": "control_change"}, {"time": 23642, "annotation": {"number": 64, "value": 127}, "group": "control_change"}, {"time": 24477, "annotation": {"number": 64, "value": 0}, "group": "control_change"}, {"time": 24598, "annotation": {"number": 64, "value": 127}, "group": "control_change"}, {"time": 25441, "annotation": {"number": 64, "value": 0}, "group": "control_change"}, {"time": 25561, "annotation": {"number": 64, "value": 127}, "group": "control_change"}, {"time": 26278, "annotation": {"number": 64, "value": 122}, "group": "control_change"}, {"time": 26396, "annotation": {"number": 64, "value": 0}, "group": "control_change"}, {"time": 26517, "annotation": {"number": 64, "value": 127}, "group": "control_change"}, {"time": 27360, "annotation": {"number": 64, "value": 0}, "group": "control_change"}, {"time": 27480, "annotation": {"number": 64, "value": 127}, "group": "control_change"}, {"time": 28323, "annotation": {"number": 64, "value": 0}, "group": "control_change"}, {"time": 28441, "annotation": {"number": 64, "value": 127}, "group": "control_change"}, {"time": 29158, "annotation": {"number": 64, "value": 0}, "group": "control_change"}, {"time": 29399, "annotation": {"number": 64, "value": 127}, "group": "control_change"}, {"time": 30242, "annotation": {"number": 64, "value": 0}, "group": "control_change"}, {"time": 30362, "annotation": {"number": 64, "value": 127}, "group": "control_change"}, {"time": 30723, "annotation": {"number": 64, "value": 0}, "group": "control_change"}, {"time": 30842, "annotation": {"number": 64, "value": 127}, "group": "control_change"}, {"time": 31198, "annotation": {"number": 64, "value": 0}, "group": "control_change"}, {"time": 31318, "annotation": {"number": 64, "value": 127}, "group": "control_change"}, {"time": 33117, "annotation": {"number": 64, "value": 0}, "group": "control_change"}, {"time": 33237, "annotation": {"number": 64, "value": 127}, "group": "control_change"}, {"time": 34742, "annotation": {"number": 64, "value": 0}, "group": "control_change"}, {"time": 34802, "annotation": {"number": 64, "value": 127}, "group": "control_change"}, {"time": 35738, "annotation": {"number": 64, "value": 0}, "group": "control_change"}, {"time": 35758, "annotation": {"number": 64, "value": 127}, "group": "control_change"}, {"time": 36601, "annotation": {"number": 64, "value": 0}, "group": "control_change"}, {"time": 36721, "annotation": {"number": 64, "value": 127}, "group": "control_change"}, {"time": 37799, "annotation": {"number": 64, "value": 0}, "group": "control_change"}, {"time": 37918, "annotation": {"number": 64, "value": 127}, "group": "control_change"}, {"time": 38399, "annotation": {"number": 64, "value": 0}, "group": "control_change"}, {"time": 38520, "annotation": {"number": 64, "value": 127}, "group": "control_change"}, {"time": 38881, "annotation": {"number": 64, "value": 0}, "group": "control_change"}, {"time": 39001, "annotation": {"number": 64, "value": 127}, "group": "control_change"}, {"time": 39837, "annotation": {"number": 64, "value": 0}, "group": "control_change"}, {"time": 39957, "annotation": {"number": 64, "value": 127}, "group": "control_change"}, {"time": 40318, "annotation": {"number": 64, "value": 0}, "group": "control_change"}, {"time": 40439, "annotation": {"number": 64, "value": 127}, "group": "control_change"}, {"time": 40800, "annotation": {"number": 64, "value": 0}, "group": "control_change"}, {"time": 40920, "annotation": {"number": 64, "value": 127}, "group": "control_change"}, {"time": 41643, "annotation": {"number": 64, "value": 0}, "group": "control_change"}, {"time": 41763, "annotation": {"number": 64, "value": 127}, "group": "control_change"}, {"time": 42119, "annotation": {"number": 64, "value": 0}, "group": "control_change"}, {"time": 42237, "annotation": {"number": 64, "value": 127}, "group": "control_change"}, {"time": 42719, "annotation": {"number": 64, "value": 0}, "group": "control_change"}, {"time": 42839, "annotation": {"number": 64, "value": 127}, "group": "control_change"}, {"time": 44183, "annotation": {"number": 64, "value": 0}, "group": "control_change"}, {"time": 44401, "annotation": {"number": 64, "value": 127}, "group": "control_change"}, {"time": 46438, "annotation": {"number": 64, "value": 0}, "group": "control_change"}, {"time": 46557, "annotation": {"number": 64, "value": 127}, "group": "control_change"}, {"time": 46918, "annotation": {"number": 64, "value": 0}, "group": "control_change"}, {"time": 47038, "annotation": {"number": 64, "value": 124}, "group": "control_change"}, {"time": 47159, "annotation": {"number": 64, "value": 127}, "group": "control_change"}, {"time": 47400, "annotation": {"number": 64, "value": 0}, "group": "control_change"}, {"time": 47520, "annotation": {"number": 64, "value": 127}, "group": "control_change"}, {"time": 47881, "annotation": {"number": 64, "value": 0}, "group": "control_change"}, {"time": 48002, "annotation": {"number": 64, "value": 127}, "group": "control_change"}, {"time": 48423, "annotation": {"number": 64, "value": 0}, "group": "control_change"}, {"time": 48602, "annotation": {"number": 64, "value": 127}, "group": "control_change"}, {"time": 50161, "annotation": {"number": 64, "value": 0}, "group": "control_change"}, {"time": 50282, "annotation": {"number": 64, "value": 127}, "group": "control_change"}, {"time": 52201, "annotation": {"number": 64, "value": 0}, "group": "control_change"}, {"time": 52321, "annotation": {"number": 64, "value": 127}, "group": "control_change"}, {"time": 54120, "annotation": {"number": 64, "value": 0}, "group": "control_change"}, {"time": 54240, "annotation": {"number": 64, "value": 127}, "group": "control_change"}, {"time": 56039, "annotation": {"number": 64, "value": 0}, "group": "control_change"}, {"time": 56279, "annotation": {"number": 64, "value": 127}, "group": "control_change"}, {"time": 58078, "annotation": {"number": 64, "value": 0}, "group": "control_change"}, {"time": 58198, "annotation": {"number": 64, "value": 127}, "group": "control_change"}, {"time": 59997, "annotation": {"number": 64, "value": 0}, "group": "control_change"}, {"time": 60117, "annotation": {"number": 64, "value": 127}, "group": "control_change"}, {"time": 61803, "annotation": {"number": 64, "value": 0}, "group": "control_change"}, {"time": 61923, "annotation": {"number": 64, "value": 127}, "group": "control_change"}, {"time": 62518, "annotation": {"number": 64, "value": 0}, "group": "control_change"}, {"time": 62638, "annotation": {"number": 64, "value": 127}, "group": "control_change"}, {"time": 63240, "annotation": {"number": 64, "value": 0}, "group": "control_change"}, {"time": 63361, "annotation": {"number": 64, "value": 127}, "group": "control_change"}, {"time": 63842, "annotation": {"number": 64, "value": 0}, "group": "control_change"}, {"time": 63961, "annotation": {"number": 64, "value": 127}, "group": "control_change"}, {"time": 65641, "annotation": {"number": 64, "value": 0}, "group": "control_change"}, {"time": 65882, "annotation": {"number": 64, "value": 127}, "group": "control_change"}, {"time": 67680, "annotation": {"number": 64, "value": 0}, "group": "control_change"}, {"time": 67801, "annotation": {"number": 64, "value": 127}, "group": "control_change"}, {"time": 69359, "annotation": {"number": 64, "value": 0}, "group": "control_change"}, {"time": 69599, "annotation": {"number": 64, "value": 127}, "group": "control_change"}, {"time": 71518, "annotation": {"number": 64, "value": 0}, "group": "control_change"}, {"time": 71639, "annotation": {"number": 64, "value": 127}, "group": "control_change"}, {"time": 73437, "annotation": {"number": 64, "value": 0}, "group": "control_change"}, {"time": 73558, "annotation": {"number": 64, "value": 127}, "group": "control_change"}, {"time": 75364, "annotation": {"number": 64, "value": 0}, "group": "control_change"}, {"time": 75482, "annotation": {"number": 64, "value": 127}, "group": "control_change"}, {"time": 77283, "annotation": {"number": 64, "value": 0}, "group": "control_change"}, {"time": 77401, "annotation": {"number": 64, "value": 127}, "group": "control_change"}, {"time": 77998, "annotation": {"number": 64, "value": 0}, "group": "control_change"}, {"time": 78118, "annotation": {"number": 64, "value": 127}, "group": "control_change"}, {"time": 78600, "annotation": {"number": 64, "value": 0}, "group": "control_change"}, {"time": 78720, "annotation": {"number": 64, "value": 127}, "group": "control_change"}, {"time": 79202, "annotation": {"number": 64, "value": 0}, "group": "control_change"}, {"time": 79322, "annotation": {"number": 64, "value": 127}, "group": "control_change"}, {"time": 83160, "annotation": {"number": 64, "value": 0}, "group": "control_change"}, {"time": 83280, "annotation": {"number": 64, "value": 127}, "group": "control_change"}, {"time": 84959, "annotation": {"number": 64, "value": 0}, "group": "control_change"}, {"time": 85079, "annotation": {"number": 64, "value": 127}, "group": "control_change"}, {"time": 86878, "annotation": {"number": 64, "value": 0}, "group": "control_change"}, {"time": 87118, "annotation": {"number": 64, "value": 127}, "group": "control_change"}, {"time": 88797, "annotation": {"number": 64, "value": 0}, "group": "control_change"}, {"time": 88917, "annotation": {"number": 64, "value": 127}, "group": "control_change"}, {"time": 90723, "annotation": {"number": 64, "value": 0}, "group": "control_change"}, {"time": 90841, "annotation": {"number": 64, "value": 127}, "group": "control_change"}, {"time": 92642, "annotation": {"number": 64, "value": 0}, "group": "control_change"}, {"time": 92762, "annotation": {"number": 64, "value": 127}, "group": "control_change"}, {"time": 94561, "annotation": {"number": 64, "value": 0}, "group": "control_change"}, {"time": 94681, "annotation": {"number": 64, "value": 127}, "group": "control_change"}, {"time": 96480, "annotation": {"number": 64, "value": 0}, "group": "control_change"}, {"time": 96600, "annotation": {"number": 64, "value": 127}, "group": "control_change"}, {"time": 97443, "annotation": {"number": 64, "value": 0}, "group": "control_change"}, {"time": 97680, "annotation": {"number": 64, "value": 127}, "group": "control_change"}, {"time": 98399, "annotation": {"number": 64, "value": 0}, "group": "control_change"}, {"time": 98519, "annotation": {"number": 64, "value": 127}, "group": "control_change"}, {"time": 99362, "annotation": {"number": 64, "value": 0}, "group": "control_change"}, {"time": 99482, "annotation": {"number": 64, "value": 127}, "group": "control_change"}, {"time": 100318, "annotation": {"number": 64, "value": 0}, "group": "control_change"}, {"time": 100438, "annotation": {"number": 64, "value": 127}, "group": "control_change"}, {"time": 101281, "annotation": {"number": 64, "value": 0}, "group": "control_change"}, {"time": 101401, "annotation": {"number": 64, "value": 127}, "group": "control_change"}, {"time": 102118, "annotation": {"number": 64, "value": 0}, "group": "control_change"}, {"time": 102357, "annotation": {"number": 64, "value": 127}, "group": "control_change"}, {"time": 103200, "annotation": {"number": 64, "value": 0}, "group": "control_change"}, {"time": 103320, "annotation": {"number": 64, "value": 127}, "group": "control_change"}, {"time": 104163, "annotation": {"number": 64, "value": 0}, "group": "control_change"}, {"time": 104282, "annotation": {"number": 64, "value": 127}, "group": "control_change"}, {"time": 105119, "annotation": {"number": 64, "value": 0}, "group": "control_change"}, {"time": 105239, "annotation": {"number": 64, "value": 127}, "group": "control_change"}, {"time": 105601, "annotation": {"number": 64, "value": 0}, "group": "control_change"}, {"time": 105721, "annotation": {"number": 64, "value": 127}, "group": "control_change"}, {"time": 106082, "annotation": {"number": 64, "value": 0}, "group": "control_change"}, {"time": 106201, "annotation": {"number": 64, "value": 127}, "group": "control_change"}, {"time": 107038, "annotation": {"number": 64, "value": 0}, "group": "control_change"}, {"time": 107158, "annotation": {"number": 64, "value": 127}, "group": "control_change"}, {"time": 108001, "annotation": {"number": 64, "value": 0}, "group": "control_change"}, {"time": 108122, "annotation": {"number": 64, "value": 127}, "group": "control_change"}, {"time": 108838, "annotation": {"number": 64, "value": 122}, "group": "control_change"}, {"time": 108957, "annotation": {"number": 64, "value": 0}, "group": "control_change"}, {"time": 109077, "annotation": {"number": 64, "value": 127}, "group": "control_change"}, {"time": 109920, "annotation": {"number": 64, "value": 0}, "group": "control_change"}, {"time": 110041, "annotation": {"number": 64, "value": 127}, "group": "control_change"}, {"time": 110883, "annotation": {"number": 64, "value": 0}, "group": "control_change"}, {"time": 111002, "annotation": {"number": 64, "value": 127}, "group": "control_change"}, {"time": 111719, "annotation": {"number": 64, "value": 0}, "group": "control_change"}, {"time": 111960, "annotation": {"number": 64, "value": 127}, "group": "control_change"}, {"time": 112802, "annotation": {"number": 64, "value": 0}, "group": "control_change"}, {"time": 112921, "annotation": {"number": 64, "value": 127}, "group": "control_change"}, {"time": 113277, "annotation": {"number": 64, "value": 0}, "group": "control_change"}, {"time": 113397, "annotation": {"number": 64, "value": 127}, "group": "control_change"}, {"time": 113758, "annotation": {"number": 64, "value": 0}, "group": "control_change"}, {"time": 113879, "annotation": {"number": 64, "value": 127}, "group": "control_change"}, {"time": 115677, "annotation": {"number": 64, "value": 0}, "group": "control_change"}, {"time": 115797, "annotation": {"number": 64, "value": 127}, "group": "control_change"}, {"time": 117302, "annotation": {"number": 64, "value": 0}, "group": "control_change"}, {"time": 117363, "annotation": {"number": 64, "value": 127}, "group": "control_change"}, {"time": 118298, "annotation": {"number": 64, "value": 0}, "group": "control_change"}, {"time": 118318, "annotation": {"number": 64, "value": 127}, "group": "control_change"}, {"time": 119161, "annotation": {"number": 64, "value": 0}, "group": "control_change"}, {"time": 119282, "annotation": {"number": 64, "value": 127}, "group": "control_change"}, {"time": 120358, "annotation": {"number": 64, "value": 0}, "group": "control_change"}, {"time": 120478, "annotation": {"number": 64, "value": 127}, "group": "control_change"}, {"time": 120960, "annotation": {"number": 64, "value": 0}, "group": "control_change"}, {"time": 121080, "annotation": {"number": 64, "value": 127}, "group": "control_change"}, {"time": 121441, "annotation": {"number": 64, "value": 0}, "group": "control_change"}, {"time": 121562, "annotation": {"number": 64, "value": 127}, "group": "control_change"}, {"time": 122397, "annotation": {"number": 64, "value": 0}, "group": "control_change"}, {"time": 122518, "annotation": {"number": 64, "value": 127}, "group": "control_change"}, {"time": 122879, "annotation": {"number": 64, "value": 0}, "group": "control_change"}, {"time": 122999, "annotation": {"number": 64, "value": 127}, "group": "control_change"}, {"time": 123360, "annotation": {"number": 64, "value": 0}, "group": "control_change"}, {"time": 123481, "annotation": {"number": 64, "value": 127}, "group": "control_change"}, {"time": 124203, "annotation": {"number": 64, "value": 0}, "group": "control_change"}, {"time": 124324, "annotation": {"number": 64, "value": 127}, "group": "control_change"}, {"time": 124679, "annotation": {"number": 64, "value": 0}, "group": "control_change"}, {"time": 124798, "annotation": {"number": 64, "value": 127}, "group": "control_change"}, {"time": 125279, "annotation": {"number": 64, "value": 0}, "group": "control_change"}, {"time": 125400, "annotation": {"number": 64, "value": 127}, "group": "control_change"}, {"time": 126737, "annotation": {"number": 64, "value": 0}, "group": "control_change"}, {"time": 126958, "annotation": {"number": 64, "value": 127}, "group": "control_change"}, {"time": 128999, "annotation": {"number": 64, "value": 0}, "group": "control_change"}, {"time": 129117, "annotation": {"number": 64, "value": 127}, "group": "control_change"}, {"time": 129479, "annotation": {"number": 64, "value": 0}, "group": "control_change"}, {"time": 129599, "annotation": {"number": 64, "value": 124}, "group": "control_change"}, {"time": 129719, "annotation": {"number": 64, "value": 127}, "group": "control_change"}, {"time": 129960, "annotation": {"number": 64, "value": 0}, "group": "control_change"}, {"time": 130081, "annotation": {"number": 64, "value": 127}, "group": "control_change"}, {"time": 130442, "annotation": {"number": 64, "value": 0}, "group": "control_change"}, {"time": 130562, "annotation": {"number": 64, "value": 127}, "group": "control_change"}, {"time": 130977, "annotation": {"number": 64, "value": 0}, "group": "control_change"}, {"time": 131157, "annotation": {"number": 64, "value": 127}, "group": "control_change"}, {"time": 132722, "annotation": {"number": 64, "value": 0}, "group": "control_change"}, {"time": 132842, "annotation": {"number": 64, "value": 127}, "group": "control_change"}, {"time": 134761, "annotation": {"number": 64, "value": 0}, "group": "control_change"}, {"time": 134882, "annotation": {"number": 64, "value": 127}, "group": "control_change"}, {"time": 136680, "annotation": {"number": 64, "value": 0}, "group": "control_change"}, {"time": 136801, "annotation": {"number": 64, "value": 127}, "group": "control_change"}, {"time": 138599, "annotation": {"number": 64, "value": 0}, "group": "control_change"}, {"time": 138840, "annotation": {"number": 64, "value": 127}, "group": "control_change"}, {"time": 140639, "annotation": {"number": 64, "value": 0}, "group": "control_change"}, {"time": 140759, "annotation": {"number": 64, "value": 127}, "group": "control_change"}, {"time": 142558, "annotation": {"number": 64, "value": 0}, "group": "control_change"}, {"time": 142678, "annotation": {"number": 64, "value": 127}, "group": "control_change"}, {"time": 144358, "annotation": {"number": 64, "value": 0}, "group": "control_change"}, {"time": 144477, "annotation": {"number": 64, "value": 127}, "group": "control_change"}, {"time": 145079, "annotation": {"number": 64, "value": 0}, "group": "control_change"}, {"time": 145199, "annotation": {"number": 64, "value": 127}, "group": "control_change"}, {"time": 145801, "annotation": {"number": 64, "value": 0}, "group": "control_change"}, {"time": 145921, "annotation": {"number": 64, "value": 127}, "group": "control_change"}, {"time": 146403, "annotation": {"number": 64, "value": 0}, "group": "control_change"}, {"time": 146522, "annotation": {"number": 64, "value": 127}, "group": "control_change"}, {"time": 148202, "annotation": {"number": 64, "value": 0}, "group": "control_change"}, {"time": 148442, "annotation": {"number": 64, "value": 127}, "group": "control_change"}, {"time": 150241, "annotation": {"number": 64, "value": 0}, "group": "control_change"}, {"time": 150361, "annotation": {"number": 64, "value": 127}, "group": "control_change"}, {"time": 151919, "annotation": {"number": 64, "value": 0}, "group": "control_change"}, {"time": 152160, "annotation": {"number": 64, "value": 127}, "group": "control_change"}, {"time": 154079, "annotation": {"number": 64, "value": 0}, "group": "control_change"}, {"time": 154199, "annotation": {"number": 64, "value": 127}, "group": "control_change"}, {"time": 155998, "annotation": {"number": 64, "value": 0}, "group": "control_change"}, {"time": 156118, "annotation": {"number": 64, "value": 127}, "group": "control_change"}, {"time": 157917, "annotation": {"number": 64, "value": 0}, "group": "control_change"}, {"time": 158037, "annotation": {"number": 64, "value": 127}, "group": "control_change"}, {"time": 159843, "annotation": {"number": 64, "value": 0}, "group": "control_change"}, {"time": 159962, "annotation": {"number": 64, "value": 127}, "group": "control_change"}, {"time": 160558, "annotation": {"number": 64, "value": 0}, "group": "control_change"}, {"time": 160679, "annotation": {"number": 64, "value": 127}, "group": "control_change"}, {"time": 161160, "annotation": {"number": 64, "value": 0}, "group": "control_change"}, {"time": 161521, "annotation": {"number": 64, "value": 127}, "group": "control_change"}, {"time": 163681, "annotation": {"number": 64, "value": 0}, "group": "control_change"}, {"time": 163922, "annotation": {"number": 64, "value": 127}, "group": "control_change"}, {"time": 164637, "annotation": {"number": 64, "value": 0}, "group": "control_change"}, {"time": 164878, "annotation": {"number": 64, "value": 127}, "group": "control_change"}, {"time": 165580, "annotation": {"number": 64, "value": 0}, "group": "control_change"}, {"time": 165721, "annotation": {"number": 64, "value": 127}, "group": "control_change"}, {"time": 167278, "annotation": {"number": 64, "value": 0}, "group": "control_change"}, {"time": 167399, "annotation": {"number": 64, "value": 127}, "group": "control_change"}, {"time": 169318, "annotation": {"number": 64, "value": 0}, "group": "control_change"}, {"time": 169438, "annotation": {"number": 64, "value": 127}, "group": "control_change"}, {"time": 171239, "annotation": {"number": 64, "value": 0}, "group": "control_change"}, {"time": 171357, "annotation": {"number": 64, "value": 127}, "group": "control_change"}, {"time": 173163, "annotation": {"number": 64, "value": 0}, "group": "control_change"}, {"time": 173402, "annotation": {"number": 64, "value": 127}, "group": "control_change"}, {"time": 175202, "annotation": {"number": 64, "value": 0}, "group": "control_change"}, {"time": 175321, "annotation": {"number": 64, "value": 127}, "group": "control_change"}, {"time": 177122, "annotation": {"number": 64, "value": 0}, "group": "control_change"}, {"time": 177242, "annotation": {"number": 64, "value": 127}, "group": "control_change"}, {"time": 178920, "annotation": {"number": 64, "value": 0}, "group": "control_change"}, {"time": 179040, "annotation": {"number": 64, "value": 127}, "group": "control_change"}, {"time": 179642, "annotation": {"number": 64, "value": 0}, "group": "control_change"}, {"time": 179763, "annotation": {"number": 64, "value": 127}, "group": "control_change"}, {"time": 180359, "annotation": {"number": 64, "value": 0}, "group": "control_change"}, {"time": 180478, "annotation": {"number": 64, "value": 127}, "group": "control_change"}, {"time": 180959, "annotation": {"number": 64, "value": 0}, "group": "control_change"}, {"time": 181080, "annotation": {"number": 64, "value": 127}, "group": "control_change"}, {"time": 182758, "annotation": {"number": 64, "value": 0}, "group": "control_change"}, {"time": 182999, "annotation": {"number": 64, "value": 127}, "group": "control_change"}, {"time": 184797, "annotation": {"number": 64, "value": 0}, "group": "control_change"}, {"time": 184918, "annotation": {"number": 64, "value": 127}, "group": "control_change"}, {"time": 186479, "annotation": {"number": 64, "value": 0}, "group": "control_change"}, {"time": 186716, "annotation": {"number": 64, "value": 127}, "group": "control_change"}, {"time": 188643, "annotation": {"number": 64, "value": 0}, "group": "control_change"}, {"time": 188761, "annotation": {"number": 64, "value": 127}, "group": "control_change"}, {"time": 190562, "annotation": {"number": 64, "value": 0}, "group": "control_change"}, {"time": 190682, "annotation": {"number": 64, "value": 127}, "group": "control_change"}, {"time": 192481, "annotation": {"number": 64, "value": 0}, "group": "control_change"}, {"time": 192601, "annotation": {"number": 64, "value": 127}, "group": "control_change"}, {"time": 194400, "annotation": {"number": 64, "value": 0}, "group": "control_change"}, {"time": 194520, "annotation": {"number": 64, "value": 127}, "group": "control_change"}, {"time": 195122, "annotation": {"number": 64, "value": 0}, "group": "control_change"}, {"time": 195243, "annotation": {"number": 64, "value": 127}, "group": "control_change"}, {"time": 196018, "annotation": {"number": 64, "value": 0}, "group": "control_change"}, {"time": 196078, "annotation": {"number": 64, "value": 127}, "group": "control_change"}, {"time": 198238, "annotation": {"number": 64, "value": 0}, "group": "control_change"}, {"time": 198358, "annotation": {"number": 64, "value": 127}, "group": "control_change"}, {"time": 199321, "annotation": {"number": 64, "value": 0}, "group": "control_change"}, {"time": 199442, "annotation": {"number": 64, "value": 127}, "group": "control_change"}, {"time": 200157, "annotation": {"number": 64, "value": 0}, "group": "control_change"}, {"time": 200277, "annotation": {"number": 64, "value": 127}, "group": "control_change"}, {"time": 201120, "annotation": {"number": 64, "value": 0}, "group": "control_change"}, {"time": 201240, "annotation": {"number": 64, "value": 127}, "group": "control_change"}, {"time": 202083, "annotation": {"number": 64, "value": 0}, "group": "control_change"}, {"time": 202202, "annotation": {"number": 64, "value": 127}, "group": "control_change"}, {"time": 203039, "annotation": {"number": 64, "value": 0}, "group": "control_change"}, {"time": 203159, "annotation": {"number": 64, "value": 127}, "group": "control_change"}, {"time": 204002, "annotation": {"number": 64, "value": 0}, "group": "control_change"}, {"time": 204122, "annotation": {"number": 64, "value": 127}, "group": "control_change"}, {"time": 204958, "annotation": {"number": 64, "value": 0}, "group": "control_change"}, {"time": 205078, "annotation": {"number": 64, "value": 127}, "group": "control_change"}, {"time": 205921, "annotation": {"number": 11, "value": 100}, "group": "control_change"}, {"time": 205921, "annotation": {"number": 64, "value": 0}, "group": "control_change"}, {"time": 206041, "annotation": {"number": 64, "value": 127}, "group": "control_change"}, {"time": 206102, "annotation": {"number": 11, "value": 99}, "group": "control_change"}, {"time": 206192, "annotation": {"number": 11, "value": 98}, "group": "control_change"}, {"time": 206282, "annotation": {"number": 11, "value": 97}, "group": "control_change"}, {"time": 206462, "annotation": {"number": 11, "value": 96}, "group": "control_change"}, {"time": 206551, "annotation": {"number": 11, "value": 95}, "group": "control_change"}, {"time": 206640, "annotation": {"number": 11, "value": 94}, "group": "control_change"}, {"time": 206729, "annotation": {"number": 11, "value": 93}, "group": "control_change"}, {"time": 206877, "annotation": {"number": 64, "value": 0}, "group": "control_change"}, {"time": 206907, "annotation": {"number": 11, "value": 92}, "group": "control_change"}, {"time": 206997, "annotation": {"number": 64, "value": 127}, "group": "control_change"}, {"time": 206997, "annotation": {"number": 11, "value": 91}, "group": "control_change"}, {"time": 207088, "annotation": {"number": 11, "value": 90}, "group": "control_change"}, {"time": 207268, "annotation": {"number": 11, "value": 89}, "group": "control_change"}, {"time": 207358, "annotation": {"number": 11, "value": 88}, "group": "control_change"}, {"time": 207449, "annotation": {"number": 11, "value": 87}, "group": "control_change"}, {"time": 207539, "annotation": {"number": 11, "value": 86}, "group": "control_change"}, {"time": 207720, "annotation": {"number": 64, "value": 0}, "group": "control_change"}, {"time": 207720, "annotation": {"number": 11, "value": 85}, "group": "control_change"}, {"time": 207810, "annotation": {"number": 11, "value": 84}, "group": "control_change"}, {"time": 207900, "annotation": {"number": 11, "value": 83}, "group": "control_change"}, {"time": 207960, "annotation": {"number": 64, "value": 127}, "group": "control_change"}, {"time": 208081, "annotation": {"number": 11, "value": 82}, "group": "control_change"}, {"time": 208171, "annotation": {"number": 11, "value": 81}, "group": "control_change"}, {"time": 208261, "annotation": {"number": 11, "value": 80}, "group": "control_change"}, {"time": 208352, "annotation": {"number": 11, "value": 79}, "group": "control_change"}, {"time": 208532, "annotation": {"number": 11, "value": 78}, "group": "control_change"}, {"time": 208623, "annotation": {"number": 11, "value": 77}, "group": "control_change"}, {"time": 208713, "annotation": {"number": 11, "value": 76}, "group": "control_change"}, {"time": 208803, "annotation": {"number": 64, "value": 0}, "group": "control_change"}, {"time": 208803, "annotation": {"number": 11, "value": 75}, "group": "control_change"}, {"time": 208922, "annotation": {"number": 64, "value": 127}, "group": "control_change"}, {"time": 208981, "annotation": {"number": 11, "value": 74}, "group": "control_change"}, {"time": 209070, "annotation": {"number": 11, "value": 73}, "group": "control_change"}, {"time": 209159, "annotation": {"number": 11, "value": 72}, "group": "control_change"}, {"time": 209338, "annotation": {"number": 11, "value": 71}, "group": "control_change"}, {"time": 209428, "annotation": {"number": 11, "value": 70}, "group": "control_change"}, {"time": 209518, "annotation": {"number": 11, "value": 69}, "group": "control_change"}, {"time": 209608, "annotation": {"number": 11, "value": 68}, "group": "control_change"}, {"time": 209759, "annotation": {"number": 64, "value": 0}, "group": "control_change"}, {"time": 209789, "annotation": {"number": 11, "value": 67}, "group": "control_change"}, {"time": 209879, "annotation": {"number": 64, "value": 127}, "group": "control_change"}, {"time": 209879, "annotation": {"number": 11, "value": 66}, "group": "control_change"}, {"time": 209970, "annotation": {"number": 11, "value": 65}, "group": "control_change"}, {"time": 210150, "annotation": {"number": 11, "value": 64}, "group": "control_change"}, {"time": 210241, "annotation": {"number": 11, "value": 63}, "group": "control_change"}, {"time": 210331, "annotation": {"number": 11, "value": 62}, "group": "control_change"}, {"time": 210421, "annotation": {"number": 11, "value": 61}, "group": "control_change"}, {"time": 210602, "annotation": {"number": 11, "value": 60}, "group": "control_change"}, {"time": 210692, "annotation": {"number": 11, "value": 59}, "group": "control_change"}, {"time": 210722, "annotation": {"number": 64, "value": 0}, "group": "control_change"}, {"time": 210781, "annotation": {"number": 11, "value": 58}, "group": "control_change"}, {"time": 210841, "annotation": {"number": 64, "value": 127}, "group": "control_change"}, {"time": 210959, "annotation": {"number": 11, "value": 57}, "group": "control_change"}, {"time": 211048, "annotation": {"number": 11, "value": 56}, "group": "control_change"}, {"time": 211137, "annotation": {"number": 11, "value": 55}, "group": "control_change"}, {"time": 211226, "annotation": {"number": 11, "value": 54}, "group": "control_change"}, {"time": 211407, "annotation": {"number": 11, "value": 53}, "group": "control_change"}, {"time": 211497, "annotation": {"number": 11, "value": 52}, "group": "control_change"}, {"time": 211588, "annotation": {"number": 11, "value": 51}, "group": "control_change"}, {"time": 211678, "annotation": {"number": 64, "value": 0}, "group": "control_change"}, {"time": 211678, "annotation": {"number": 11, "value": 50}, "group": "control_change"}, {"time": 211798, "annotation": {"number": 64, "value": 127}, "group": "control_change"}, {"time": 211859, "annotation": {"number": 11, "value": 49}, "group": "control_change"}, {"time": 211949, "annotation": {"number": 11, "value": 48}, "group": "control_change"}, {"time": 212039, "annotation": {"number": 11, "value": 47}, "group": "control_change"}, {"time": 212220, "annotation": {"number": 11, "value": 46}, "group": "control_change"}, {"time": 212310, "annotation": {"number": 11, "value": 45}, "group": "control_change"}, {"time": 212400, "annotation": {"number": 11, "value": 44}, "group": "control_change"}, {"time": 212491, "annotation": {"number": 11, "value": 43}, "group": "control_change"}, {"time": 212641, "annotation": {"number": 64, "value": 0}, "group": "control_change"}, {"time": 212671, "annotation": {"number": 11, "value": 42}, "group": "control_change"}, {"time": 212760, "annotation": {"number": 64, "value": 127}, "group": "control_change"}, {"time": 212760, "annotation": {"number": 11, "value": 41}, "group": "control_change"}, {"time": 212849, "annotation": {"number": 11, "value": 40}, "group": "control_change"}, {"time": 213027, "annotation": {"number": 11, "value": 39}, "group": "control_change"}, {"time": 213115, "annotation": {"number": 11, "value": 38}, "group": "control_change"}, {"time": 213204, "annotation": {"number": 11, "value": 37}, "group": "control_change"}, {"time": 213293, "annotation": {"number": 11, "value": 36}, "group": "control_change"}, {"time": 213471, "annotation": {"number": 11, "value": 35}, "group": "control_change"}, {"time": 213560, "annotation": {"number": 11, "value": 34}, "group": "control_change"}, {"time": 213590, "annotation": {"number": 64, "value": 0}, "group": "control_change"}, {"time": 213649, "annotation": {"number": 11, "value": 33}, "group": "control_change"}, {"time": 213708, "annotation": {"number": 64, "value": 127}, "group": "control_change"}, {"time": 213827, "annotation": {"number": 11, "value": 32}, "group": "control_change"}, {"time": 213916, "annotation": {"number": 11, "value": 31}, "group": "control_change"}, {"time": 214005, "annotation": {"number": 11, "value": 30}, "group": "control_change"}, {"time": 214094, "annotation": {"number": 11, "value": 29}, "group": "control_change"}, {"time": 214272, "annotation": {"number": 11, "value": 28}, "group": "control_change"}, {"time": 214360, "annotation": {"number": 11, "value": 27}, "group": "control_change"}, {"time": 214449, "annotation": {"number": 11, "value": 26}, "group": "control_change"}, {"time": 214538, "annotation": {"number": 64, "value": 0}, "group": "control_change"}, {"time": 214538, "annotation": {"number": 11, "value": 25}, "group": "control_change"}, {"time": 214657, "annotation": {"number": 64, "value": 127}, "group": "control_change"}, {"time": 214716, "annotation": {"number": 11, "value": 24}, "group": "control_change"}, {"time": 214805, "annotation": {"number": 11, "value": 23}, "group": "control_change"}, {"time": 214894, "annotation": {"number": 11, "value": 22}, "group": "control_change"}, {"time": 215072, "annotation": {"number": 11, "value": 21}, "group": "control_change"}, {"time": 215161, "annotation": {"number": 11, "value": 20}, "group": "control_change"}, {"time": 215250, "annotation": {"number": 11, "value": 19}, "group": "control_change"}, {"time": 215339, "annotation": {"number": 11, "value": 18}, "group": "control_change"}, {"time": 215487, "annotation": {"number": 64, "value": 0}, "group": "control_change"}, {"time": 215517, "annotation": {"number": 11, "value": 17}, "group": "control_change"}, {"time": 215605, "annotation": {"number": 64, "value": 127}, "group": "control_change"}, {"time": 215605, "annotation": {"number": 11, "value": 16}, "group": "control_change"}, {"time": 215694, "annotation": {"number": 11, "value": 15}, "group": "control_change"}, {"time": 215872, "annotation": {"number": 11, "value": 14}, "group": "control_change"}, {"time": 215961, "annotation": {"number": 11, "value": 13}, "group": "control_change"}, {"time": 216050, "annotation": {"number": 11, "value": 12}, "group": "control_change"}, {"time": 216139, "annotation": {"number": 11, "value": 11}, "group": "control_change"}, {"time": 216317, "annotation": {"number": 11, "value": 10}, "group": "control_change"}, {"time": 216406, "annotation": {"number": 11, "value": 9}, "group": "control_change"}, {"time": 216436, "annotation": {"number": 64, "value": 0}, "group": "control_change"}, {"time": 216495, "annotation": {"number": 11, "value": 8}, "group": "control_change"}, {"time": 216554, "annotation": {"number": 64, "value": 127}, "group": "control_change"}, {"time": 216673, "annotation": {"number": 11, "value": 7}, "group": "control_change"}, {"time": 216762, "annotation": {"number": 11, "value": 6}, "group": "control_change"}, {"time": 216851, "annotation": {"number": 11, "value": 5}, "group": "control_change"}, {"time": 216939, "annotation": {"number": 11, "value": 4}, "group": "control_change"}, {"time": 217117, "annotation": {"number": 11, "value": 3}, "group": "control_change"}, {"time": 217206, "annotation": {"number": 11, "value": 2}, "group": "control_change"}, {"time": 217266, "annotation": {"number": 64, "value": 0}, "group": "control_change"}, {"time": 217295, "annotation": {"number": 11, "value": 1}, "group": "control_change"}]}, {"program": 0, "is_drum": false, "name": "BASS", "annotations": [{"time": 218, "annotation": {"number": 0, "value": 0}, "group": "control_change"}, {"time": 240, "annotation": {"number": 32, "value": 0}, "group": "control_change"}]}, {"program": 33, "is_drum": false, "name": "BASS", "notes": [{"time": 8162, "pitch": 36, "duration": 575, "velocity": 107}, {"time": 8877, "pitch": 36, "duration": 121, "velocity": 100}, {"time": 9118, "pitch": 36, "duration": 482, "velocity": 106}, {"time": 10081, "pitch": 36, "duration": 581, "velocity": 108}, {"time": 10800, "pitch": 36, "duration": 119, "velocity": 98}, {"time": 11037, "pitch": 36, "duration": 492, "velocity": 104}, {"time": 12000, "pitch": 36, "duration": 592, "velocity": 105}, {"time": 12723, "pitch": 36, "duration": 120, "velocity": 98}, {"time": 12963, "pitch": 36, "duration": 465, "velocity": 104}, {"time": 13919, "pitch": 36, "duration": 532, "velocity": 104}, {"time": 14642, "pitch": 36, "duration": 120, "velocity": 102}, {"time": 14882, "pitch": 36, "duration": 475, "velocity": 105}, {"time": 15838, "pitch": 36, "duration": 572, "velocity": 108}, {"time": 16561, "pitch": 36, "duration": 120, "velocity": 97}, {"time": 16801, "pitch": 41, "duration": 561, "velocity": 109}, {"time": 17520, "pitch": 41, "duration": 119, "velocity": 99}, {"time": 17757, "pitch": 40, "duration": 612, "velocity": 106}, {"time": 18480, "pitch": 40, "duration": 120, "velocity": 99}, {"time": 18720, "pitch": 45, "duration": 562, "velocity": 106}, {"time": 19443, "pitch": 45, "duration": 120, "velocity": 99}, {"time": 19684, "pitch": 38, "duration": 544, "velocity": 107}, {"time": 20399, "pitch": 38, "duration": 120, "velocity": 101}, {"time": 20639, "pitch": 38, "duration": 582, "velocity": 107}, {"time": 21362, "pitch": 38, "duration": 120, "velocity": 101}, {"time": 21603, "pitch": 43, "duration": 584, "velocity": 106}, {"time": 22318, "pitch": 43, "duration": 130, "velocity": 95}, {"time": 22558, "pitch": 43, "duration": 442, "velocity": 108}, {"time": 23040, "pitch": 38, "duration": 191, "velocity": 107}, {"time": 23281, "pitch": 37, "duration": 190, "velocity": 100}, {"time": 23522, "pitch": 36, "duration": 610, "velocity": 107}, {"time": 24240, "pitch": 36, "duration": 129, "velocity": 98}, {"time": 24477, "pitch": 41, "duration": 562, "velocity": 107}, {"time": 25200, "pitch": 41, "duration": 130, "velocity": 105}, {"time": 25441, "pitch": 40, "duration": 580, "velocity": 107}, {"time": 26159, "pitch": 40, "duration": 119, "velocity": 98}, {"time": 26396, "pitch": 45, "duration": 572, "velocity": 106}, {"time": 27119, "pitch": 45, "duration": 150, "velocity": 99}, {"time": 27360, "pitch": 38, "duration": 551, "velocity": 106}, {"time": 28082, "pitch": 38, "duration": 130, "velocity": 103}, {"time": 28323, "pitch": 38, "duration": 434, "velocity": 107}, {"time": 28797, "pitch": 40, "duration": 201, "velocity": 104}, {"time": 29038, "pitch": 41, "duration": 200, "velocity": 97}, {"time": 29279, "pitch": 43, "duration": 581, "velocity": 105}, {"time": 30001, "pitch": 43, "duration": 140, "velocity": 98}, {"time": 30242, "pitch": 43, "duration": 431, "velocity": 108}, {"time": 30723, "pitch": 31, "duration": 455, "velocity": 107}, {"time": 31198, "pitch": 28, "duration": 1404, "velocity": 110}, {"time": 32642, "pitch": 40, "duration": 425, "velocity": 105}, {"time": 33117, "pitch": 33, "duration": 581, "velocity": 106}, {"time": 33839, "pitch": 33, "duration": 883, "velocity": 109}, {"time": 34802, "pitch": 38, "duration": 896, "velocity": 106}, {"time": 35758, "pitch": 43, "duration": 873, "velocity": 108}, {"time": 36721, "pitch": 36, "duration": 811, "velocity": 106}, {"time": 37681, "pitch": 36, "duration": 118, "velocity": 102}, {"time": 37918, "pitch": 35, "duration": 441, "velocity": 109}, {"time": 38399, "pitch": 40, "duration": 402, "velocity": 104}, {"time": 38881, "pitch": 33, "duration": 600, "velocity": 108}, {"time": 39600, "pitch": 33, "duration": 138, "velocity": 100}, {"time": 39837, "pitch": 31, "duration": 441, "velocity": 108}, {"time": 40318, "pitch": 36, "duration": 452, "velocity": 98}, {"time": 40800, "pitch": 29, "duration": 451, "velocity": 103}, {"time": 41281, "pitch": 41, "duration": 211, "velocity": 114}, {"time": 41522, "pitch": 40, "duration": 251, "velocity": 109}, {"time": 42000, "pitch": 38, "duration": 428, "velocity": 107}, {"time": 42478, "pitch": 36, "duration": 181, "velocity": 104}, {"time": 42719, "pitch": 34, "duration": 602, "velocity": 109}, {"time": 43441, "pitch": 34, "duration": 652, "velocity": 108}, {"time": 44164, "pitch": 34, "duration": 217, "velocity": 105}, {"time": 44401, "pitch": 33, "duration": 809, "velocity": 107}, {"time": 45360, "pitch": 33, "duration": 1078, "velocity": 104}, {"time": 46557, "pitch": 33, "duration": 933, "velocity": 107}, {"time": 47520, "pitch": 45, "duration": 903, "velocity": 102}, {"time": 48483, "pitch": 38, "duration": 555, "velocity": 109}, {"time": 49198, "pitch": 38, "duration": 141, "velocity": 101}, {"time": 49439, "pitch": 38, "duration": 612, "velocity": 108}, {"time": 50161, "pitch": 38, "duration": 191, "velocity": 101}, {"time": 50639, "pitch": 50, "duration": 257, "velocity": 110}, {"time": 51117, "pitch": 38, "duration": 161, "velocity": 100}, {"time": 51358, "pitch": 38, "duration": 552, "velocity": 107}, {"time": 52321, "pitch": 38, "duration": 561, "velocity": 106}, {"time": 53040, "pitch": 38, "duration": 138, "velocity": 100}, {"time": 53277, "pitch": 38, "duration": 522, "velocity": 108}, {"time": 53999, "pitch": 38, "duration": 382, "velocity": 105}, {"time": 54481, "pitch": 50, "duration": 190, "velocity": 106}, {"time": 54962, "pitch": 38, "duration": 161, "velocity": 103}, {"time": 55203, "pitch": 38, "duration": 386, "velocity": 107}, {"time": 55678, "pitch": 40, "duration": 200, "velocity": 103}, {"time": 55918, "pitch": 42, "duration": 221, "velocity": 101}, {"time": 56159, "pitch": 43, "duration": 592, "velocity": 104}, {"time": 56881, "pitch": 43, "duration": 161, "velocity": 99}, {"time": 57122, "pitch": 43, "duration": 735, "velocity": 104}, {"time": 58078, "pitch": 42, "duration": 572, "velocity": 105}, {"time": 58800, "pitch": 42, "duration": 141, "velocity": 97}, {"time": 59041, "pitch": 42, "duration": 729, "velocity": 103}, {"time": 59997, "pitch": 40, "duration": 562, "velocity": 109}, {"time": 60719, "pitch": 40, "duration": 141, "velocity": 106}, {"time": 60960, "pitch": 40, "duration": 632, "velocity": 109}, {"time": 61923, "pitch": 33, "duration": 645, "velocity": 107}, {"time": 62638, "pitch": 33, "duration": 452, "velocity": 108}, {"time": 63120, "pitch": 33, "duration": 201, "velocity": 100}, {"time": 63361, "pitch": 35, "duration": 210, "velocity": 105}, {"time": 63602, "pitch": 37, "duration": 200, "velocity": 107}, {"time": 63842, "pitch": 38, "duration": 565, "velocity": 108}, {"time": 64557, "pitch": 38, "duration": 151, "velocity": 102}, {"time": 64798, "pitch": 38, "duration": 572, "velocity": 107}, {"time": 65521, "pitch": 38, "duration": 210, "velocity": 102}, {"time": 66002, "pitch": 50, "duration": 201, "velocity": 107}, {"time": 66480, "pitch": 38, "duration": 148, "velocity": 101}, {"time": 66717, "pitch": 38, "duration": 602, "velocity": 106}, {"time": 67680, "pitch": 38, "duration": 552, "velocity": 105}, {"time": 68403, "pitch": 38, "duration": 160, "velocity": 98}, {"time": 68643, "pitch": 38, "duration": 555, "velocity": 103}, {"time": 69359, "pitch": 38, "duration": 391, "velocity": 104}, {"time": 69840, "pitch": 50, "duration": 191, "velocity": 108}, {"time": 70322, "pitch": 38, "duration": 190, "velocity": 100}, {"time": 70562, "pitch": 38, "duration": 396, "velocity": 104}, {"time": 71037, "pitch": 40, "duration": 190, "velocity": 104}, {"time": 71278, "pitch": 42, "duration": 210, "velocity": 99}, {"time": 71518, "pitch": 43, "duration": 602, "velocity": 107}, {"time": 72241, "pitch": 43, "duration": 150, "velocity": 98}, {"time": 72481, "pitch": 43, "duration": 571, "velocity": 105}, {"time": 73437, "pitch": 42, "duration": 542, "velocity": 107}, {"time": 74160, "pitch": 42, "duration": 140, "velocity": 100}, {"time": 74400, "pitch": 42, "duration": 592, "velocity": 105}, {"time": 75364, "pitch": 40, "duration": 524, "velocity": 113}, {"time": 76079, "pitch": 40, "duration": 140, "velocity": 108}, {"time": 76319, "pitch": 40, "duration": 412, "velocity": 113}, {"time": 76801, "pitch": 28, "duration": 221, "velocity": 112}, {"time": 77042, "pitch": 30, "duration": 231, "velocity": 107}, {"time": 77283, "pitch": 31, "duration": 644, "velocity": 108}, {"time": 77998, "pitch": 43, "duration": 200, "velocity": 103}, {"time": 78479, "pitch": 31, "duration": 422, "velocity": 110}, {"time": 78961, "pitch": 32, "duration": 4079, "velocity": 108}, {"time": 90723, "pitch": 53, "duration": 1899, "velocity": 105}, {"time": 92642, "pitch": 52, "duration": 1899, "velocity": 103}, {"time": 94561, "pitch": 50, "duration": 1899, "velocity": 102}, {"time": 96480, "pitch": 43, "duration": 923, "velocity": 103}, {"time": 97443, "pitch": 31, "duration": 886, "velocity": 100}, {"time": 98399, "pitch": 36, "duration": 572, "velocity": 108}, {"time": 99121, "pitch": 36, "duration": 121, "velocity": 97}, {"time": 99362, "pitch": 41, "duration": 561, "velocity": 109}, {"time": 100081, "pitch": 41, "duration": 118, "velocity": 99}, {"time": 100318, "pitch": 40, "duration": 612, "velocity": 106}, {"time": 101040, "pitch": 40, "duration": 121, "velocity": 99}, {"time": 101281, "pitch": 45, "duration": 561, "velocity": 106}, {"time": 102000, "pitch": 45, "duration": 118, "velocity": 99}, {"time": 102237, "pitch": 38, "duration": 552, "velocity": 107}, {"time": 102959, "pitch": 38, "duration": 121, "velocity": 101}, {"time": 103200, "pitch": 38, "duration": 582, "velocity": 107}, {"time": 103922, "pitch": 38, "duration": 121, "velocity": 101}, {"time": 104163, "pitch": 43, "duration": 585, "velocity": 106}, {"time": 104878, "pitch": 43, "duration": 131, "velocity": 95}, {"time": 105119, "pitch": 43, "duration": 441, "velocity": 108}, {"time": 105601, "pitch": 38, "duration": 190, "velocity": 107}, {"time": 105841, "pitch": 37, "duration": 191, "velocity": 100}, {"time": 106082, "pitch": 36, "duration": 605, "velocity": 107}, {"time": 106797, "pitch": 36, "duration": 131, "velocity": 98}, {"time": 107038, "pitch": 41, "duration": 562, "velocity": 107}, {"time": 107760, "pitch": 41, "duration": 131, "velocity": 105}, {"time": 108001, "pitch": 40, "duration": 581, "velocity": 107}, {"time": 108720, "pitch": 40, "duration": 118, "velocity": 98}, {"time": 108957, "pitch": 45, "duration": 572, "velocity": 106}, {"time": 109679, "pitch": 45, "duration": 151, "velocity": 99}, {"time": 109920, "pitch": 38, "duration": 552, "velocity": 106}, {"time": 110643, "pitch": 38, "duration": 130, "velocity": 103}, {"time": 110883, "pitch": 38, "duration": 435, "velocity": 107}, {"time": 111358, "pitch": 40, "duration": 200, "velocity": 104}, {"time": 111598, "pitch": 41, "duration": 201, "velocity": 97}, {"time": 111839, "pitch": 43, "duration": 582, "velocity": 105}, {"time": 112562, "pitch": 43, "duration": 140, "velocity": 98}, {"time": 112802, "pitch": 43, "duration": 425, "velocity": 108}, {"time": 113277, "pitch": 31, "duration": 461, "velocity": 107}, {"time": 113758, "pitch": 28, "duration": 1405, "velocity": 110}, {"time": 115203, "pitch": 40, "duration": 425, "velocity": 105}, {"time": 115677, "pitch": 33, "duration": 582, "velocity": 106}, {"time": 116399, "pitch": 33, "duration": 883, "velocity": 109}, {"time": 117363, "pitch": 38, "duration": 895, "velocity": 106}, {"time": 118318, "pitch": 43, "duration": 873, "velocity": 108}, {"time": 119282, "pitch": 36, "duration": 805, "velocity": 106}, {"time": 120237, "pitch": 36, "duration": 121, "velocity": 102}, {"time": 120478, "pitch": 35, "duration": 442, "velocity": 109}, {"time": 120960, "pitch": 40, "duration": 401, "velocity": 104}, {"time": 121441, "pitch": 33, "duration": 601, "velocity": 108}, {"time": 122160, "pitch": 33, "duration": 138, "velocity": 100}, {"time": 122397, "pitch": 31, "duration": 442, "velocity": 108}, {"time": 122879, "pitch": 36, "duration": 451, "velocity": 98}, {"time": 123360, "pitch": 29, "duration": 452, "velocity": 103}, {"time": 123842, "pitch": 41, "duration": 211, "velocity": 114}, {"time": 124083, "pitch": 40, "duration": 250, "velocity": 109}, {"time": 124561, "pitch": 38, "duration": 427, "velocity": 107}, {"time": 125039, "pitch": 36, "duration": 180, "velocity": 104}, {"time": 125279, "pitch": 34, "duration": 602, "velocity": 109}, {"time": 126002, "pitch": 34, "duration": 646, "velocity": 108}, {"time": 126717, "pitch": 34, "duration": 221, "velocity": 105}, {"time": 126958, "pitch": 33, "duration": 812, "velocity": 107}, {"time": 127921, "pitch": 33, "duration": 1078, "velocity": 104}, {"time": 129117, "pitch": 33, "duration": 933, "velocity": 107}, {"time": 130081, "pitch": 45, "duration": 896, "velocity": 102}, {"time": 131036, "pitch": 38, "duration": 562, "velocity": 109}, {"time": 131759, "pitch": 38, "duration": 140, "velocity": 101}, {"time": 132000, "pitch": 38, "duration": 612, "velocity": 108}, {"time": 132722, "pitch": 38, "duration": 191, "velocity": 101}, {"time": 133200, "pitch": 50, "duration": 257, "velocity": 110}, {"time": 133678, "pitch": 38, "duration": 160, "velocity": 100}, {"time": 133919, "pitch": 38, "duration": 551, "velocity": 107}, {"time": 134882, "pitch": 38, "duration": 560, "velocity": 106}, {"time": 135600, "pitch": 38, "duration": 139, "velocity": 100}, {"time": 135838, "pitch": 38, "duration": 521, "velocity": 108}, {"time": 136560, "pitch": 38, "duration": 381, "velocity": 105}, {"time": 137041, "pitch": 50, "duration": 191, "velocity": 106}, {"time": 137519, "pitch": 38, "duration": 158, "velocity": 103}, {"time": 137757, "pitch": 38, "duration": 391, "velocity": 107}, {"time": 138238, "pitch": 40, "duration": 201, "velocity": 103}, {"time": 138479, "pitch": 42, "duration": 221, "velocity": 101}, {"time": 138720, "pitch": 43, "duration": 592, "velocity": 104}, {"time": 139442, "pitch": 43, "duration": 161, "velocity": 99}, {"time": 139683, "pitch": 43, "duration": 735, "velocity": 104}, {"time": 140639, "pitch": 42, "duration": 572, "velocity": 105}, {"time": 141361, "pitch": 42, "duration": 141, "velocity": 97}, {"time": 141602, "pitch": 42, "duration": 728, "velocity": 103}, {"time": 142558, "pitch": 40, "duration": 561, "velocity": 109}, {"time": 143280, "pitch": 40, "duration": 140, "velocity": 106}, {"time": 143521, "pitch": 40, "duration": 630, "velocity": 109}, {"time": 144477, "pitch": 33, "duration": 652, "velocity": 107}, {"time": 145199, "pitch": 33, "duration": 452, "velocity": 108}, {"time": 145681, "pitch": 33, "duration": 200, "velocity": 100}, {"time": 145921, "pitch": 35, "duration": 211, "velocity": 105}, {"time": 146162, "pitch": 37, "duration": 201, "velocity": 107}, {"time": 146403, "pitch": 38, "duration": 564, "velocity": 108}, {"time": 147118, "pitch": 38, "duration": 150, "velocity": 102}, {"time": 147359, "pitch": 38, "duration": 572, "velocity": 107}, {"time": 148081, "pitch": 38, "duration": 211, "velocity": 102}, {"time": 148563, "pitch": 50, "duration": 200, "velocity": 107}, {"time": 149041, "pitch": 38, "duration": 148, "velocity": 101}, {"time": 149278, "pitch": 38, "duration": 602, "velocity": 106}, {"time": 150241, "pitch": 38, "duration": 551, "velocity": 105}, {"time": 150960, "pitch": 38, "duration": 158, "velocity": 98}, {"time": 151197, "pitch": 38, "duration": 562, "velocity": 103}, {"time": 151919, "pitch": 38, "duration": 391, "velocity": 104}, {"time": 152401, "pitch": 50, "duration": 190, "velocity": 108}, {"time": 152882, "pitch": 38, "duration": 191, "velocity": 100}, {"time": 153123, "pitch": 38, "duration": 395, "velocity": 104}, {"time": 153597, "pitch": 40, "duration": 191, "velocity": 104}, {"time": 153838, "pitch": 42, "duration": 211, "velocity": 99}, {"time": 154079, "pitch": 43, "duration": 602, "velocity": 107}, {"time": 154801, "pitch": 43, "duration": 151, "velocity": 98}, {"time": 155042, "pitch": 43, "duration": 565, "velocity": 105}, {"time": 155998, "pitch": 42, "duration": 542, "velocity": 107}, {"time": 156720, "pitch": 42, "duration": 141, "velocity": 100}, {"time": 156961, "pitch": 42, "duration": 590, "velocity": 105}, {"time": 157917, "pitch": 40, "duration": 532, "velocity": 113}, {"time": 158639, "pitch": 40, "duration": 141, "velocity": 108}, {"time": 158880, "pitch": 40, "duration": 411, "velocity": 113}, {"time": 159362, "pitch": 28, "duration": 220, "velocity": 112}, {"time": 159602, "pitch": 30, "duration": 231, "velocity": 107}, {"time": 159843, "pitch": 31, "duration": 665, "velocity": 106}, {"time": 160558, "pitch": 43, "duration": 231, "velocity": 106}, {"time": 161040, "pitch": 43, "duration": 311, "velocity": 104}, {"time": 161521, "pitch": 40, "duration": 2140, "velocity": 104}, {"time": 163681, "pitch": 45, "duration": 887, "velocity": 102}, {"time": 164637, "pitch": 33, "duration": 873, "velocity": 98}, {"time": 165600, "pitch": 38, "duration": 562, "velocity": 109}, {"time": 166323, "pitch": 38, "duration": 140, "velocity": 101}, {"time": 166563, "pitch": 38, "duration": 605, "velocity": 108}, {"time": 167278, "pitch": 38, "duration": 191, "velocity": 101}, {"time": 167760, "pitch": 50, "duration": 261, "velocity": 110}, {"time": 168242, "pitch": 38, "duration": 160, "velocity": 100}, {"time": 168482, "pitch": 38, "duration": 545, "velocity": 107}, {"time": 169438, "pitch": 38, "duration": 562, "velocity": 106}, {"time": 170161, "pitch": 38, "duration": 140, "velocity": 100}, {"time": 170401, "pitch": 38, "duration": 521, "velocity": 108}, {"time": 171120, "pitch": 38, "duration": 378, "velocity": 105}, {"time": 171598, "pitch": 50, "duration": 191, "velocity": 106}, {"time": 172080, "pitch": 38, "duration": 160, "velocity": 103}, {"time": 172320, "pitch": 38, "duration": 392, "velocity": 107}, {"time": 172802, "pitch": 40, "duration": 201, "velocity": 103}, {"time": 173043, "pitch": 42, "duration": 220, "velocity": 101}, {"time": 173283, "pitch": 43, "duration": 585, "velocity": 104}, {"time": 173999, "pitch": 43, "duration": 160, "velocity": 99}, {"time": 174239, "pitch": 43, "duration": 743, "velocity": 104}, {"time": 175202, "pitch": 42, "duration": 565, "velocity": 105}, {"time": 175918, "pitch": 42, "duration": 140, "velocity": 97}, {"time": 176158, "pitch": 42, "duration": 733, "velocity": 103}, {"time": 177122, "pitch": 40, "duration": 560, "velocity": 109}, {"time": 177840, "pitch": 40, "duration": 139, "velocity": 106}, {"time": 178077, "pitch": 40, "duration": 632, "velocity": 109}, {"time": 179040, "pitch": 33, "duration": 653, "velocity": 107}, {"time": 179763, "pitch": 33, "duration": 448, "velocity": 108}, {"time": 180241, "pitch": 33, "duration": 197, "velocity": 100}, {"time": 180478, "pitch": 35, "duration": 211, "velocity": 105}, {"time": 180719, "pitch": 37, "duration": 200, "velocity": 107}, {"time": 180959, "pitch": 38, "duration": 572, "velocity": 108}, {"time": 181682, "pitch": 38, "duration": 150, "velocity": 102}, {"time": 181923, "pitch": 38, "duration": 564, "velocity": 107}, {"time": 182638, "pitch": 38, "duration": 210, "velocity": 102}, {"time": 183119, "pitch": 50, "duration": 201, "velocity": 107}, {"time": 183601, "pitch": 38, "duration": 150, "velocity": 101}, {"time": 183842, "pitch": 38, "duration": 600, "velocity": 106}, {"time": 184797, "pitch": 38, "duration": 552, "velocity": 105}, {"time": 185520, "pitch": 38, "duration": 160, "velocity": 98}, {"time": 185761, "pitch": 38, "duration": 560, "velocity": 103}, {"time": 186479, "pitch": 38, "duration": 388, "velocity": 104}, {"time": 186957, "pitch": 50, "duration": 191, "velocity": 108}, {"time": 187439, "pitch": 38, "duration": 190, "velocity": 100}, {"time": 187680, "pitch": 38, "duration": 401, "velocity": 104}, {"time": 188161, "pitch": 40, "duration": 191, "velocity": 104}, {"time": 188402, "pitch": 42, "duration": 211, "velocity": 99}, {"time": 188643, "pitch": 43, "duration": 594, "velocity": 107}, {"time": 189358, "pitch": 43, "duration": 150, "velocity": 98}, {"time": 189599, "pitch": 43, "duration": 571, "velocity": 105}, {"time": 190562, "pitch": 42, "duration": 541, "velocity": 107}, {"time": 191280, "pitch": 42, "duration": 139, "velocity": 100}, {"time": 191518, "pitch": 42, "duration": 592, "velocity": 105}, {"time": 192481, "pitch": 40, "duration": 531, "velocity": 113}, {"time": 193199, "pitch": 40, "duration": 139, "velocity": 108}, {"time": 193437, "pitch": 40, "duration": 411, "velocity": 113}, {"time": 193918, "pitch": 28, "duration": 221, "velocity": 112}, {"time": 194159, "pitch": 30, "duration": 231, "velocity": 107}, {"time": 194400, "pitch": 43, "duration": 592, "velocity": 101}, {"time": 195122, "pitch": 43, "duration": 399, "velocity": 102}, {"time": 195600, "pitch": 43, "duration": 428, "velocity": 104}, {"time": 196078, "pitch": 38, "duration": 2160, "velocity": 105}], "annotations": [{"time": 283, "annotation": {"number": 7, "value": 120}, "group": "control_change"}, {"time": 305, "annotation": {"number": 11, "value": 110}, "group": "control_change"}, {"time": 327, "annotation": {"number": 10, "value": 64}, "group": "control_change"}, {"time": 349, "annotation": {"number": 91, "value": 0}, "group": "control_change"}, {"time": 370, "annotation": {"number": 93, "value": 0}, "group": "control_change"}, {"time": 392, "annotation": {"number": 101, "value": 0}, "group": "control_change"}, {"time": 414, "annotation": {"number": 100, "value": 0}, "group": "control_change"}, {"time": 436, "annotation": {"number": 6, "value": 12}, "group": "control_change"}, {"time": 458, "annotation": {"number": 101, "value": 127}, "group": "control_change"}, {"time": 479, "annotation": {"number": 100, "value": 127}, "group": "control_change"}]}, {"program": 0, "is_drum": false, "name": "E.GT 1", "annotations": [{"time": 218, "annotation": {"number": 0, "value": 0}, "group": "control_change"}, {"time": 240, "annotation": {"number": 32, "value": 0}, "group": "control_change"}]}, {"program": 28, "is_drum": false, "name": "E.GT 1", "notes": [{"time": 8162, "pitch": 55, "duration": 79, "velocity": 90}, {"time": 8281, "pitch": 55, "duration": 79, "velocity": 98}, {"time": 8518, "pitch": 55, "duration": 79, "velocity": 87}, {"time": 8637, "pitch": 55, "duration": 80, "velocity": 98}, {"time": 8877, "pitch": 55, "duration": 81, "velocity": 90}, {"time": 8998, "pitch": 55, "duration": 80, "velocity": 89}, {"time": 9239, "pitch": 55, "duration": 80, "velocity": 90}, {"time": 9359, "pitch": 55, "duration": 80, "velocity": 95}, {"time": 9600, "pitch": 55, "duration": 80, "velocity": 99}, {"time": 9840, "pitch": 55, "duration": 11, "velocity": 82}, {"time": 9961, "pitch": 55, "duration": 10, "velocity": 64}, {"time": 10081, "pitch": 55, "duration": 81, "velocity": 90}, {"time": 10202, "pitch": 55, "duration": 80, "velocity": 98}, {"time": 10442, "pitch": 55, "duration": 81, "velocity": 87}, {"time": 10563, "pitch": 55, "duration": 79, "velocity": 98}, {"time": 10800, "pitch": 55, "duration": 79, "velocity": 90}, {"time": 10919, "pitch": 55, "duration": 79, "velocity": 89}, {"time": 11157, "pitch": 55, "duration": 81, "velocity": 90}, {"time": 11278, "pitch": 55, "duration": 80, "velocity": 95}, {"time": 11519, "pitch": 55, "duration": 80, "velocity": 99}, {"time": 11759, "pitch": 55, "duration": 11, "velocity": 82}, {"time": 11880, "pitch": 55, "duration": 10, "velocity": 64}, {"time": 12000, "pitch": 55, "duration": 81, "velocity": 90}, {"time": 12121, "pitch": 55, "duration": 80, "velocity": 98}, {"time": 12361, "pitch": 55, "duration": 81, "velocity": 87}, {"time": 12482, "pitch": 55, "duration": 80, "velocity": 98}, {"time": 12723, "pitch": 55, "duration": 80, "velocity": 90}, {"time": 12843, "pitch": 55, "duration": 80, "velocity": 89}, {"time": 13082, "pitch": 55, "duration": 79, "velocity": 90}, {"time": 13201, "pitch": 55, "duration": 79, "velocity": 95}, {"time": 13438, "pitch": 55, "duration": 80, "velocity": 99}, {"time": 13678, "pitch": 55, "duration": 10, "velocity": 82}, {"time": 13799, "pitch": 55, "duration": 10, "velocity": 64}, {"time": 13919, "pitch": 55, "duration": 81, "velocity": 90}, {"time": 14040, "pitch": 55, "duration": 80, "velocity": 98}, {"time": 14280, "pitch": 55, "duration": 81, "velocity": 87}, {"time": 14401, "pitch": 55, "duration": 80, "velocity": 98}, {"time": 14642, "pitch": 55, "duration": 80, "velocity": 90}, {"time": 14762, "pitch": 55, "duration": 80, "velocity": 89}, {"time": 15001, "pitch": 55, "duration": 79, "velocity": 90}, {"time": 15120, "pitch": 55, "duration": 79, "velocity": 95}, {"time": 15357, "pitch": 55, "duration": 80, "velocity": 99}, {"time": 15597, "pitch": 55, "duration": 10, "velocity": 82}, {"time": 15718, "pitch": 55, "duration": 10, "velocity": 64}], "annotations": [{"time": 283, "annotation": {"number": 7, "value": 105}, "group": "control_change"}, {"time": 305, "annotation": {"number": 11, "value": 100}, "group": "control_change"}, {"time": 327, "annotation": {"number": 10, "value": 100}, "group": "control_change"}, {"time": 349, "annotation": {"number": 91, "value": 20}, "group": "control_change"}, {"time": 370, "annotation": {"number": 93, "value": 20}, "group": "control_change"}, {"time": 392, "annotation": {"number": 101, "value": 0}, "group": "control_change"}, {"time": 414, "annotation": {"number": 100, "value": 0}, "group": "control_change"}, {"time": 436, "annotation": {"number": 6, "value": 12}, "group": "control_change"}, {"time": 458, "annotation": {"number": 101, "value": 127}, "group": "control_change"}, {"time": 479, "annotation": {"number": 100, "value": 127}, "group": "control_change"}]}, {"program": 0, "is_drum": false, "name": "MELO", "annotations": [{"time": 218, "annotation": {"number": 0, "value": 0}, "group": "control_change"}, {"time": 240, "annotation": {"number": 32, "value": 0}, "group": "control_change"}]}, {"program": 73, "is_drum": false, "name": "MELO", "notes": [{"time": 15838, "pitch": 67, "duration": 452, "velocity": 89}, {"time": 16320, "pitch": 72, "duration": 451, "velocity": 88}, {"time": 16801, "pitch": 71, "duration": 452, "velocity": 88}, {"time": 17283, "pitch": 69, "duration": 445, "velocity": 90}, {"time": 17757, "pitch": 67, "duration": 963, "velocity": 87}, {"time": 18961, "pitch": 67, "duration": 221, "velocity": 86}, {"time": 19202, "pitch": 72, "duration": 221, "velocity": 86}, {"time": 19443, "pitch": 76, "duration": 221, "velocity": 89}, {"time": 19684, "pitch": 77, "duration": 444, "velocity": 88}, {"time": 20158, "pitch": 76, "duration": 451, "velocity": 91}, {"time": 20639, "pitch": 74, "duration": 452, "velocity": 90}, {"time": 21121, "pitch": 72, "duration": 451, "velocity": 81}, {"time": 21603, "pitch": 72, "duration": 474, "velocity": 88}, {"time": 22077, "pitch": 71, "duration": 221, "velocity": 87}, {"time": 22318, "pitch": 72, "duration": 220, "velocity": 86}, {"time": 22558, "pitch": 74, "duration": 592, "velocity": 92}, {"time": 23522, "pitch": 67, "duration": 451, "velocity": 92}, {"time": 24003, "pitch": 72, "duration": 445, "velocity": 90}, {"time": 24477, "pitch": 71, "duration": 452, "velocity": 89}, {"time": 24959, "pitch": 69, "duration": 451, "velocity": 90}, {"time": 25441, "pitch": 67, "duration": 896, "velocity": 86}, {"time": 26637, "pitch": 67, "duration": 221, "velocity": 87}, {"time": 26878, "pitch": 72, "duration": 221, "velocity": 86}, {"time": 27119, "pitch": 76, "duration": 220, "velocity": 85}, {"time": 27360, "pitch": 77, "duration": 451, "velocity": 82}, {"time": 27841, "pitch": 76, "duration": 452, "velocity": 89}, {"time": 28323, "pitch": 74, "duration": 444, "velocity": 95}, {"time": 28797, "pitch": 72, "duration": 451, "velocity": 84}, {"time": 29279, "pitch": 72, "duration": 451, "velocity": 87}, {"time": 29760, "pitch": 71, "duration": 221, "velocity": 92}, {"time": 30001, "pitch": 72, "duration": 221, "velocity": 88}, {"time": 30242, "pitch": 79, "duration": 956, "velocity": 92}, {"time": 31679, "pitch": 74, "duration": 241, "velocity": 95}, {"time": 31920, "pitch": 72, "duration": 221, "velocity": 90}, {"time": 32161, "pitch": 74, "duration": 679, "velocity": 96}, {"time": 32879, "pitch": 76, "duration": 218, "velocity": 88}, {"time": 33117, "pitch": 74, "duration": 471, "velocity": 97}, {"time": 33598, "pitch": 72, "duration": 151, "velocity": 81}, {"time": 33839, "pitch": 72, "duration": 451, "velocity": 85}, {"time": 34320, "pitch": 71, "duration": 221, "velocity": 92}, {"time": 34561, "pitch": 72, "duration": 221, "velocity": 84}, {"time": 34802, "pitch": 79, "duration": 448, "velocity": 96}, {"time": 35280, "pitch": 71, "duration": 217, "velocity": 86}, {"time": 35517, "pitch": 72, "duration": 221, "velocity": 83}, {"time": 35758, "pitch": 79, "duration": 451, "velocity": 95}, {"time": 36239, "pitch": 77, "duration": 452, "velocity": 87}, {"time": 36721, "pitch": 76, "duration": 821, "velocity": 85}, {"time": 37918, "pitch": 77, "duration": 260, "velocity": 93}, {"time": 38158, "pitch": 76, "duration": 261, "velocity": 85}, {"time": 38399, "pitch": 74, "duration": 231, "velocity": 91}, {"time": 38640, "pitch": 72, "duration": 191, "velocity": 79}, {"time": 38881, "pitch": 72, "duration": 511, "velocity": 87}, {"time": 39837, "pitch": 77, "duration": 250, "velocity": 93}, {"time": 40077, "pitch": 76, "duration": 241, "velocity": 85}, {"time": 40318, "pitch": 74, "duration": 241, "velocity": 91}, {"time": 40559, "pitch": 72, "duration": 251, "velocity": 82}, {"time": 40800, "pitch": 71, "duration": 221, "velocity": 86}, {"time": 41041, "pitch": 72, "duration": 250, "velocity": 85}, {"time": 41281, "pitch": 67, "duration": 251, "velocity": 81}, {"time": 41522, "pitch": 72, "duration": 488, "velocity": 87}, {"time": 42000, "pitch": 81, "duration": 699, "velocity": 83}, {"time": 43200, "pitch": 76, "duration": 231, "velocity": 93}, {"time": 43441, "pitch": 74, "duration": 472, "velocity": 92}, {"time": 43923, "pitch": 72, "duration": 241, "velocity": 82}, {"time": 44164, "pitch": 74, "duration": 108, "velocity": 91}, {"time": 44401, "pitch": 74, "duration": 1691, "velocity": 95}, {"time": 48483, "pitch": 78, "duration": 119, "velocity": 95}, {"time": 48720, "pitch": 78, "duration": 378, "velocity": 96}, {"time": 49198, "pitch": 78, "duration": 442, "velocity": 94}, {"time": 49680, "pitch": 76, "duration": 241, "velocity": 85}, {"time": 49921, "pitch": 74, "duration": 270, "velocity": 91}, {"time": 50161, "pitch": 78, "duration": 458, "velocity": 93}, {"time": 50639, "pitch": 81, "duration": 277, "velocity": 82}, {"time": 50876, "pitch": 78, "duration": 502, "velocity": 92}, {"time": 51599, "pitch": 74, "duration": 271, "velocity": 95}, {"time": 51839, "pitch": 76, "duration": 492, "velocity": 87}, {"time": 52321, "pitch": 78, "duration": 401, "velocity": 99}, {"time": 52803, "pitch": 78, "duration": 128, "velocity": 95}, {"time": 53040, "pitch": 78, "duration": 448, "velocity": 96}, {"time": 53518, "pitch": 76, "duration": 251, "velocity": 86}, {"time": 53758, "pitch": 74, "duration": 261, "velocity": 91}, {"time": 53999, "pitch": 78, "duration": 452, "velocity": 92}, {"time": 54481, "pitch": 81, "duration": 261, "velocity": 84}, {"time": 54722, "pitch": 78, "duration": 431, "velocity": 90}, {"time": 55440, "pitch": 78, "duration": 247, "velocity": 98}, {"time": 55678, "pitch": 76, "duration": 220, "velocity": 86}, {"time": 55918, "pitch": 78, "duration": 111, "velocity": 88}, {"time": 56039, "pitch": 76, "duration": 120, "velocity": 82}, {"time": 56159, "pitch": 74, "duration": 732, "velocity": 92}, {"time": 57122, "pitch": 74, "duration": 227, "velocity": 90}, {"time": 57359, "pitch": 71, "duration": 468, "velocity": 87}, {"time": 57837, "pitch": 74, "duration": 1184, "velocity": 96}, {"time": 59282, "pitch": 69, "duration": 241, "velocity": 90}, {"time": 59523, "pitch": 68, "duration": 247, "velocity": 87}, {"time": 59760, "pitch": 67, "duration": 518, "velocity": 89}, {"time": 60238, "pitch": 76, "duration": 1615, "velocity": 91}, {"time": 62160, "pitch": 78, "duration": 228, "velocity": 96}, {"time": 62398, "pitch": 74, "duration": 90, "velocity": 90}, {"time": 62638, "pitch": 74, "duration": 512, "velocity": 91}, {"time": 63120, "pitch": 76, "duration": 562, "velocity": 86}, {"time": 63842, "pitch": 78, "duration": 109, "velocity": 101}, {"time": 64079, "pitch": 78, "duration": 388, "velocity": 101}, {"time": 64557, "pitch": 78, "duration": 442, "velocity": 99}, {"time": 65039, "pitch": 76, "duration": 261, "velocity": 86}, {"time": 65280, "pitch": 74, "duration": 251, "velocity": 90}, {"time": 65521, "pitch": 78, "duration": 471, "velocity": 98}, {"time": 66002, "pitch": 81, "duration": 280, "velocity": 85}, {"time": 66243, "pitch": 78, "duration": 484, "velocity": 91}, {"time": 66958, "pitch": 74, "duration": 291, "velocity": 93}, {"time": 67199, "pitch": 76, "duration": 491, "velocity": 88}, {"time": 67680, "pitch": 78, "duration": 372, "velocity": 96}, {"time": 68162, "pitch": 78, "duration": 120, "velocity": 95}, {"time": 68403, "pitch": 78, "duration": 458, "velocity": 97}, {"time": 68881, "pitch": 76, "duration": 247, "velocity": 90}, {"time": 69118, "pitch": 74, "duration": 261, "velocity": 92}, {"time": 69359, "pitch": 78, "duration": 441, "velocity": 94}, {"time": 69840, "pitch": 81, "duration": 512, "velocity": 88}, {"time": 70322, "pitch": 83, "duration": 458, "velocity": 97}, {"time": 70800, "pitch": 81, "duration": 247, "velocity": 84}, {"time": 71037, "pitch": 78, "duration": 220, "velocity": 96}, {"time": 71278, "pitch": 76, "duration": 240, "velocity": 86}, {"time": 71518, "pitch": 74, "duration": 753, "velocity": 92}, {"time": 72481, "pitch": 74, "duration": 241, "velocity": 98}, {"time": 72722, "pitch": 71, "duration": 488, "velocity": 102}, {"time": 73200, "pitch": 74, "duration": 1180, "velocity": 99}, {"time": 74641, "pitch": 69, "duration": 231, "velocity": 92}, {"time": 74882, "pitch": 68, "duration": 261, "velocity": 92}, {"time": 75123, "pitch": 67, "duration": 507, "velocity": 91}, {"time": 75601, "pitch": 76, "duration": 1210, "velocity": 90}, {"time": 77042, "pitch": 76, "duration": 250, "velocity": 87}, {"time": 77283, "pitch": 79, "duration": 444, "velocity": 94}, {"time": 77757, "pitch": 78, "duration": 231, "velocity": 88}, {"time": 77998, "pitch": 74, "duration": 421, "velocity": 84}, {"time": 78479, "pitch": 70, "duration": 231, "velocity": 90}, {"time": 78720, "pitch": 70, "duration": 281, "velocity": 84}, {"time": 78961, "pitch": 74, "duration": 2160, "velocity": 96}, {"time": 98399, "pitch": 67, "duration": 512, "velocity": 89}, {"time": 98880, "pitch": 72, "duration": 512, "velocity": 88}, {"time": 99362, "pitch": 71, "duration": 491, "velocity": 88}, {"time": 99844, "pitch": 69, "duration": 474, "velocity": 90}, {"time": 100318, "pitch": 67, "duration": 963, "velocity": 87}, {"time": 101522, "pitch": 67, "duration": 250, "velocity": 86}, {"time": 101763, "pitch": 72, "duration": 237, "velocity": 86}, {"time": 102000, "pitch": 76, "duration": 267, "velocity": 89}, {"time": 102237, "pitch": 77, "duration": 471, "velocity": 88}, {"time": 102718, "pitch": 76, "duration": 492, "velocity": 91}, {"time": 103200, "pitch": 74, "duration": 462, "velocity": 90}, {"time": 103682, "pitch": 72, "duration": 431, "velocity": 81}, {"time": 104163, "pitch": 72, "duration": 474, "velocity": 88}, {"time": 104637, "pitch": 71, "duration": 241, "velocity": 87}, {"time": 104878, "pitch": 72, "duration": 261, "velocity": 86}, {"time": 105119, "pitch": 74, "duration": 592, "velocity": 92}, {"time": 106082, "pitch": 67, "duration": 474, "velocity": 92}, {"time": 106556, "pitch": 72, "duration": 502, "velocity": 90}, {"time": 107038, "pitch": 71, "duration": 492, "velocity": 89}, {"time": 107520, "pitch": 69, "duration": 471, "velocity": 90}, {"time": 108001, "pitch": 67, "duration": 966, "velocity": 86}, {"time": 109198, "pitch": 67, "duration": 271, "velocity": 87}, {"time": 109439, "pitch": 72, "duration": 240, "velocity": 86}, {"time": 109679, "pitch": 76, "duration": 251, "velocity": 85}, {"time": 109920, "pitch": 77, "duration": 482, "velocity": 82}, {"time": 110402, "pitch": 76, "duration": 501, "velocity": 89}, {"time": 110883, "pitch": 74, "duration": 465, "velocity": 95}, {"time": 111358, "pitch": 72, "duration": 391, "velocity": 84}, {"time": 111839, "pitch": 72, "duration": 482, "velocity": 87}, {"time": 112321, "pitch": 71, "duration": 261, "velocity": 92}, {"time": 112562, "pitch": 72, "duration": 260, "velocity": 88}, {"time": 112802, "pitch": 79, "duration": 956, "velocity": 92}, {"time": 114240, "pitch": 74, "duration": 240, "velocity": 95}, {"time": 114480, "pitch": 72, "duration": 261, "velocity": 90}, {"time": 114721, "pitch": 74, "duration": 749, "velocity": 96}, {"time": 115440, "pitch": 76, "duration": 247, "velocity": 88}, {"time": 115677, "pitch": 74, "duration": 472, "velocity": 97}, {"time": 116159, "pitch": 72, "duration": 150, "velocity": 81}, {"time": 116399, "pitch": 72, "duration": 492, "velocity": 85}, {"time": 116881, "pitch": 71, "duration": 271, "velocity": 92}, {"time": 117122, "pitch": 72, "duration": 291, "velocity": 84}, {"time": 117363, "pitch": 79, "duration": 448, "velocity": 96}, {"time": 117841, "pitch": 71, "duration": 257, "velocity": 86}, {"time": 118078, "pitch": 72, "duration": 271, "velocity": 83}, {"time": 118318, "pitch": 79, "duration": 512, "velocity": 95}, {"time": 118800, "pitch": 77, "duration": 502, "velocity": 87}, {"time": 119282, "pitch": 76, "duration": 815, "velocity": 85}, {"time": 120478, "pitch": 77, "duration": 261, "velocity": 93}, {"time": 120719, "pitch": 76, "duration": 261, "velocity": 85}, {"time": 120960, "pitch": 74, "duration": 231, "velocity": 91}, {"time": 121201, "pitch": 72, "duration": 190, "velocity": 79}, {"time": 121441, "pitch": 72, "duration": 512, "velocity": 87}, {"time": 122397, "pitch": 77, "duration": 251, "velocity": 93}, {"time": 122638, "pitch": 76, "duration": 241, "velocity": 85}, {"time": 122879, "pitch": 74, "duration": 241, "velocity": 91}, {"time": 123120, "pitch": 72, "duration": 250, "velocity": 82}, {"time": 123360, "pitch": 71, "duration": 221, "velocity": 86}, {"time": 123601, "pitch": 72, "duration": 251, "velocity": 85}, {"time": 123842, "pitch": 67, "duration": 251, "velocity": 81}, {"time": 124083, "pitch": 72, "duration": 488, "velocity": 87}, {"time": 124561, "pitch": 81, "duration": 698, "velocity": 83}, {"time": 125761, "pitch": 76, "duration": 231, "velocity": 93}, {"time": 126002, "pitch": 74, "duration": 468, "velocity": 92}, {"time": 126480, "pitch": 72, "duration": 237, "velocity": 82}, {"time": 126717, "pitch": 74, "duration": 110, "velocity": 91}, {"time": 126958, "pitch": 74, "duration": 1695, "velocity": 95}, {"time": 131036, "pitch": 78, "duration": 121, "velocity": 95}, {"time": 131277, "pitch": 78, "duration": 381, "velocity": 96}, {"time": 131759, "pitch": 78, "duration": 441, "velocity": 94}, {"time": 132240, "pitch": 76, "duration": 241, "velocity": 85}, {"time": 132481, "pitch": 74, "duration": 271, "velocity": 91}, {"time": 132722, "pitch": 78, "duration": 458, "velocity": 93}, {"time": 133200, "pitch": 81, "duration": 277, "velocity": 82}, {"time": 133437, "pitch": 78, "duration": 502, "velocity": 92}, {"time": 134159, "pitch": 74, "duration": 271, "velocity": 95}, {"time": 134400, "pitch": 76, "duration": 492, "velocity": 87}, {"time": 134882, "pitch": 78, "duration": 401, "velocity": 99}, {"time": 135363, "pitch": 78, "duration": 129, "velocity": 95}, {"time": 135600, "pitch": 78, "duration": 448, "velocity": 96}, {"time": 136078, "pitch": 76, "duration": 251, "velocity": 86}, {"time": 136319, "pitch": 74, "duration": 261, "velocity": 91}, {"time": 136560, "pitch": 78, "duration": 451, "velocity": 92}, {"time": 137041, "pitch": 81, "duration": 261, "velocity": 84}, {"time": 137282, "pitch": 78, "duration": 425, "velocity": 90}, {"time": 137997, "pitch": 78, "duration": 251, "velocity": 98}, {"time": 138238, "pitch": 76, "duration": 221, "velocity": 86}, {"time": 138479, "pitch": 78, "duration": 110, "velocity": 88}, {"time": 138599, "pitch": 76, "duration": 121, "velocity": 82}, {"time": 138720, "pitch": 74, "duration": 732, "velocity": 92}, {"time": 139683, "pitch": 74, "duration": 227, "velocity": 90}, {"time": 139920, "pitch": 71, "duration": 468, "velocity": 87}, {"time": 140398, "pitch": 74, "duration": 1184, "velocity": 96}, {"time": 141843, "pitch": 69, "duration": 240, "velocity": 90}, {"time": 142083, "pitch": 68, "duration": 247, "velocity": 87}, {"time": 142321, "pitch": 67, "duration": 518, "velocity": 89}, {"time": 142798, "pitch": 76, "duration": 1610, "velocity": 91}, {"time": 144717, "pitch": 78, "duration": 231, "velocity": 96}, {"time": 144958, "pitch": 74, "duration": 91, "velocity": 90}, {"time": 145199, "pitch": 74, "duration": 512, "velocity": 91}, {"time": 145681, "pitch": 76, "duration": 561, "velocity": 86}, {"time": 146403, "pitch": 78, "duration": 109, "velocity": 101}, {"time": 146640, "pitch": 78, "duration": 388, "velocity": 101}, {"time": 147118, "pitch": 78, "duration": 441, "velocity": 99}, {"time": 147600, "pitch": 76, "duration": 260, "velocity": 86}, {"time": 147840, "pitch": 74, "duration": 251, "velocity": 90}, {"time": 148081, "pitch": 78, "duration": 472, "velocity": 98}, {"time": 148563, "pitch": 81, "duration": 280, "velocity": 85}, {"time": 148804, "pitch": 78, "duration": 484, "velocity": 91}, {"time": 149519, "pitch": 74, "duration": 291, "velocity": 93}, {"time": 149759, "pitch": 76, "duration": 492, "velocity": 88}, {"time": 150241, "pitch": 78, "duration": 371, "velocity": 96}, {"time": 150723, "pitch": 78, "duration": 118, "velocity": 95}, {"time": 150960, "pitch": 78, "duration": 457, "velocity": 97}, {"time": 151438, "pitch": 76, "duration": 250, "velocity": 90}, {"time": 151678, "pitch": 74, "duration": 261, "velocity": 92}, {"time": 151919, "pitch": 78, "duration": 442, "velocity": 94}, {"time": 152401, "pitch": 81, "duration": 511, "velocity": 88}, {"time": 152882, "pitch": 83, "duration": 458, "velocity": 97}, {"time": 153360, "pitch": 81, "duration": 247, "velocity": 84}, {"time": 153597, "pitch": 78, "duration": 221, "velocity": 96}, {"time": 153838, "pitch": 76, "duration": 241, "velocity": 86}, {"time": 154079, "pitch": 74, "duration": 752, "velocity": 92}, {"time": 155042, "pitch": 74, "duration": 237, "velocity": 98}, {"time": 155279, "pitch": 71, "duration": 488, "velocity": 102}, {"time": 155757, "pitch": 74, "duration": 1184, "velocity": 99}, {"time": 157202, "pitch": 69, "duration": 231, "velocity": 92}, {"time": 157443, "pitch": 68, "duration": 257, "velocity": 92}, {"time": 157680, "pitch": 67, "duration": 508, "velocity": 91}, {"time": 158158, "pitch": 76, "duration": 1214, "velocity": 90}, {"time": 159602, "pitch": 76, "duration": 251, "velocity": 87}, {"time": 159843, "pitch": 79, "duration": 445, "velocity": 98}, {"time": 160318, "pitch": 78, "duration": 220, "velocity": 95}, {"time": 160558, "pitch": 74, "duration": 181, "velocity": 92}, {"time": 160799, "pitch": 74, "duration": 241, "velocity": 95}, {"time": 161040, "pitch": 70, "duration": 221, "velocity": 90}, {"time": 161281, "pitch": 70, "duration": 240, "velocity": 93}, {"time": 161521, "pitch": 74, "duration": 2140, "velocity": 102}, {"time": 165600, "pitch": 78, "duration": 121, "velocity": 98}, {"time": 165841, "pitch": 78, "duration": 321, "velocity": 98}, {"time": 166323, "pitch": 78, "duration": 438, "velocity": 98}, {"time": 166800, "pitch": 76, "duration": 248, "velocity": 91}, {"time": 167038, "pitch": 74, "duration": 271, "velocity": 96}, {"time": 167278, "pitch": 78, "duration": 462, "velocity": 97}, {"time": 167760, "pitch": 81, "duration": 271, "velocity": 86}, {"time": 168001, "pitch": 78, "duration": 501, "velocity": 98}, {"time": 168719, "pitch": 74, "duration": 268, "velocity": 94}, {"time": 168957, "pitch": 76, "duration": 471, "velocity": 92}, {"time": 169438, "pitch": 78, "duration": 351, "velocity": 95}, {"time": 169920, "pitch": 78, "duration": 90, "velocity": 94}, {"time": 170161, "pitch": 78, "duration": 441, "velocity": 102}, {"time": 170642, "pitch": 76, "duration": 241, "velocity": 88}, {"time": 170883, "pitch": 74, "duration": 237, "velocity": 88}, {"time": 171120, "pitch": 78, "duration": 438, "velocity": 99}, {"time": 171598, "pitch": 81, "duration": 281, "velocity": 85}, {"time": 171839, "pitch": 78, "duration": 471, "velocity": 99}, {"time": 172561, "pitch": 78, "duration": 241, "velocity": 99}, {"time": 172802, "pitch": 76, "duration": 231, "velocity": 85}, {"time": 173043, "pitch": 78, "duration": 80, "velocity": 94}, {"time": 173163, "pitch": 76, "duration": 110, "velocity": 93}, {"time": 173283, "pitch": 74, "duration": 736, "velocity": 90}, {"time": 174239, "pitch": 74, "duration": 241, "velocity": 94}, {"time": 174480, "pitch": 71, "duration": 512, "velocity": 97}, {"time": 174962, "pitch": 74, "duration": 1136, "velocity": 98}, {"time": 176399, "pitch": 69, "duration": 231, "velocity": 83}, {"time": 176640, "pitch": 68, "duration": 261, "velocity": 90}, {"time": 176881, "pitch": 67, "duration": 501, "velocity": 92}, {"time": 177362, "pitch": 76, "duration": 1678, "velocity": 96}, {"time": 179281, "pitch": 78, "duration": 221, "velocity": 100}, {"time": 179522, "pitch": 74, "duration": 141, "velocity": 86}, {"time": 179763, "pitch": 74, "duration": 527, "velocity": 93}, {"time": 180241, "pitch": 76, "duration": 518, "velocity": 90}, {"time": 180959, "pitch": 78, "duration": 121, "velocity": 98}, {"time": 181200, "pitch": 78, "duration": 382, "velocity": 99}, {"time": 181682, "pitch": 78, "duration": 488, "velocity": 104}, {"time": 182160, "pitch": 76, "duration": 237, "velocity": 90}, {"time": 182397, "pitch": 74, "duration": 261, "velocity": 94}, {"time": 182638, "pitch": 78, "duration": 431, "velocity": 100}, {"time": 183119, "pitch": 81, "duration": 281, "velocity": 85}, {"time": 183360, "pitch": 78, "duration": 542, "velocity": 97}, {"time": 184082, "pitch": 74, "duration": 281, "velocity": 97}, {"time": 184323, "pitch": 76, "duration": 484, "velocity": 94}, {"time": 184797, "pitch": 78, "duration": 372, "velocity": 99}, {"time": 185279, "pitch": 78, "duration": 100, "velocity": 98}, {"time": 185520, "pitch": 78, "duration": 461, "velocity": 101}, {"time": 186001, "pitch": 76, "duration": 231, "velocity": 91}, {"time": 186242, "pitch": 74, "duration": 267, "velocity": 89}, {"time": 186479, "pitch": 78, "duration": 448, "velocity": 99}, {"time": 186957, "pitch": 81, "duration": 492, "velocity": 91}, {"time": 187439, "pitch": 83, "duration": 451, "velocity": 98}, {"time": 187920, "pitch": 81, "duration": 261, "velocity": 88}, {"time": 188161, "pitch": 78, "duration": 221, "velocity": 98}, {"time": 188402, "pitch": 76, "duration": 241, "velocity": 88}, {"time": 188643, "pitch": 74, "duration": 775, "velocity": 93}, {"time": 189599, "pitch": 74, "duration": 240, "velocity": 97}, {"time": 189839, "pitch": 71, "duration": 482, "velocity": 91}, {"time": 190321, "pitch": 74, "duration": 1177, "velocity": 99}, {"time": 191758, "pitch": 69, "duration": 251, "velocity": 91}, {"time": 191999, "pitch": 68, "duration": 261, "velocity": 91}, {"time": 192240, "pitch": 67, "duration": 492, "velocity": 92}, {"time": 192722, "pitch": 76, "duration": 1246, "velocity": 95}, {"time": 194159, "pitch": 76, "duration": 251, "velocity": 95}, {"time": 194400, "pitch": 79, "duration": 461, "velocity": 101}, {"time": 194881, "pitch": 78, "duration": 241, "velocity": 98}, {"time": 195122, "pitch": 74, "duration": 439, "velocity": 84}, {"time": 195600, "pitch": 70, "duration": 237, "velocity": 91}, {"time": 195837, "pitch": 70, "duration": 271, "velocity": 82}, {"time": 196078, "pitch": 74, "duration": 2140, "velocity": 98}], "annotations": [{"time": 283, "annotation": {"number": 7, "value": 120}, "group": "control_change"}, {"time": 305, "annotation": {"number": 11, "value": 100}, "group": "control_change"}, {"time": 327, "annotation": {"number": 10, "value": 64}, "group": "control_change"}, {"time": 349, "annotation": {"number": 91, "value": 70}, "group": "control_change"}, {"time": 370, "annotation": {"number": 93, "value": 0}, "group": "control_change"}, {"time": 392, "annotation": {"number": 101, "value": 0}, "group": "control_change"}, {"time": 414, "annotation": {"number": 100, "value": 0}, "group": "control_change"}, {"time": 436, "annotation": {"number": 6, "value": 12}, "group": "control_change"}, {"time": 458, "annotation": {"number": 101, "value": 127}, "group": "control_change"}, {"time": 479, "annotation": {"number": 100, "value": 127}, "group": "control_change"}]}, {"program": 0, "is_drum": false, "name": "SYN", "annotations": [{"time": 218, "annotation": {"number": 0, "value": 0}, "group": "control_change"}, {"time": 240, "annotation": {"number": 32, "value": 0}, "group": "control_change"}]}, {"program": 88, "is_drum": false, "name": "SYN", "notes": [{"time": 479, "pitch": 76, "duration": 221, "velocity": 95}, {"time": 720, "pitch": 67, "duration": 221, "velocity": 83}, {"time": 961, "pitch": 71, "duration": 220, "velocity": 89}, {"time": 1201, "pitch": 76, "duration": 221, "velocity": 81}, {"time": 1442, "pitch": 77, "duration": 218, "velocity": 89}, {"time": 1679, "pitch": 69, "duration": 218, "velocity": 85}, {"time": 1916, "pitch": 72, "duration": 221, "velocity": 90}, {"time": 2157, "pitch": 77, "duration": 221, "velocity": 81}, {"time": 2398, "pitch": 79, "duration": 221, "velocity": 92}, {"time": 2639, "pitch": 71, "duration": 220, "velocity": 86}, {"time": 2880, "pitch": 74, "duration": 220, "velocity": 94}, {"time": 3120, "pitch": 79, "duration": 221, "velocity": 88}, {"time": 3361, "pitch": 77, "duration": 221, "velocity": 92}, {"time": 3602, "pitch": 69, "duration": 221, "velocity": 80}, {"time": 3843, "pitch": 72, "duration": 217, "velocity": 89}, {"time": 4080, "pitch": 77, "duration": 217, "velocity": 82}, {"time": 4317, "pitch": 76, "duration": 221, "velocity": 91}, {"time": 4558, "pitch": 67, "duration": 220, "velocity": 83}, {"time": 4799, "pitch": 71, "duration": 220, "velocity": 90}, {"time": 5039, "pitch": 76, "duration": 221, "velocity": 82}, {"time": 5280, "pitch": 77, "duration": 221, "velocity": 90}, {"time": 5521, "pitch": 69, "duration": 221, "velocity": 85}, {"time": 5762, "pitch": 72, "duration": 220, "velocity": 89}, {"time": 6003, "pitch": 77, "duration": 220, "velocity": 85}, {"time": 6243, "pitch": 79, "duration": 218, "velocity": 92}, {"time": 6480, "pitch": 71, "duration": 218, "velocity": 85}, {"time": 6718, "pitch": 74, "duration": 220, "velocity": 94}, {"time": 6958, "pitch": 79, "duration": 221, "velocity": 89}, {"time": 7199, "pitch": 77, "duration": 221, "velocity": 93}, {"time": 7440, "pitch": 69, "duration": 221, "velocity": 84}, {"time": 7681, "pitch": 72, "duration": 220, "velocity": 92}, {"time": 7922, "pitch": 77, "duration": 220, "velocity": 82}, {"time": 8162, "pitch": 76, "duration": 218, "velocity": 92}, {"time": 8399, "pitch": 67, "duration": 218, "velocity": 87}, {"time": 8637, "pitch": 71, "duration": 220, "velocity": 90}, {"time": 8877, "pitch": 76, "duration": 221, "velocity": 78}, {"time": 9118, "pitch": 77, "duration": 221, "velocity": 90}, {"time": 9359, "pitch": 69, "duration": 221, "velocity": 84}, {"time": 9600, "pitch": 72, "duration": 220, "velocity": 87}, {"time": 9840, "pitch": 77, "duration": 221, "velocity": 84}, {"time": 10081, "pitch": 79, "duration": 221, "velocity": 94}, {"time": 10322, "pitch": 71, "duration": 221, "velocity": 81}, {"time": 10563, "pitch": 74, "duration": 217, "velocity": 92}, {"time": 10800, "pitch": 79, "duration": 217, "velocity": 86}, {"time": 11037, "pitch": 77, "duration": 221, "velocity": 91}, {"time": 11278, "pitch": 69, "duration": 221, "velocity": 81}, {"time": 11519, "pitch": 72, "duration": 220, "velocity": 91}, {"time": 11759, "pitch": 77, "duration": 221, "velocity": 84}, {"time": 12000, "pitch": 76, "duration": 221, "velocity": 91}, {"time": 12241, "pitch": 67, "duration": 221, "velocity": 82}, {"time": 12482, "pitch": 71, "duration": 221, "velocity": 89}, {"time": 12723, "pitch": 76, "duration": 220, "velocity": 83}, {"time": 12963, "pitch": 77, "duration": 218, "velocity": 90}, {"time": 13201, "pitch": 69, "duration": 217, "velocity": 85}, {"time": 13438, "pitch": 72, "duration": 220, "velocity": 91}, {"time": 13678, "pitch": 77, "duration": 221, "velocity": 84}, {"time": 13919, "pitch": 79, "duration": 221, "velocity": 93}, {"time": 14160, "pitch": 71, "duration": 221, "velocity": 84}, {"time": 14401, "pitch": 74, "duration": 221, "velocity": 91}, {"time": 14642, "pitch": 79, "duration": 220, "velocity": 88}, {"time": 14882, "pitch": 77, "duration": 218, "velocity": 92}, {"time": 15120, "pitch": 69, "duration": 217, "velocity": 81}, {"time": 15357, "pitch": 72, "duration": 220, "velocity": 85}, {"time": 15597, "pitch": 77, "duration": 221, "velocity": 70}, {"time": 15838, "pitch": 76, "duration": 482, "velocity": 85}, {"time": 81361, "pitch": 60, "duration": 101, "velocity": 91}, {"time": 81482, "pitch": 62, "duration": 100, "velocity": 82}, {"time": 81602, "pitch": 63, "duration": 99, "velocity": 91}, {"time": 81721, "pitch": 65, "duration": 99, "velocity": 85}, {"time": 81839, "pitch": 67, "duration": 99, "velocity": 91}, {"time": 81958, "pitch": 69, "duration": 99, "velocity": 86}, {"time": 82076, "pitch": 70, "duration": 101, "velocity": 84}, {"time": 82197, "pitch": 72, "duration": 100, "velocity": 93}, {"time": 82317, "pitch": 74, "duration": 101, "velocity": 92}, {"time": 82438, "pitch": 75, "duration": 100, "velocity": 97}, {"time": 82558, "pitch": 77, "duration": 100, "velocity": 90}, {"time": 82678, "pitch": 79, "duration": 101, "velocity": 97}, {"time": 82799, "pitch": 81, "duration": 100, "velocity": 94}, {"time": 82919, "pitch": 82, "duration": 101, "velocity": 92}, {"time": 83040, "pitch": 84, "duration": 220, "velocity": 95}, {"time": 83280, "pitch": 75, "duration": 221, "velocity": 91}, {"time": 83521, "pitch": 79, "duration": 221, "velocity": 87}, {"time": 83762, "pitch": 84, "duration": 448, "velocity": 97}, {"time": 84240, "pitch": 75, "duration": 217, "velocity": 94}, {"time": 84477, "pitch": 79, "duration": 221, "velocity": 89}, {"time": 84718, "pitch": 84, "duration": 221, "velocity": 91}, {"time": 84959, "pitch": 82, "duration": 220, "velocity": 100}, {"time": 85199, "pitch": 74, "duration": 221, "velocity": 93}, {"time": 85440, "pitch": 77, "duration": 221, "velocity": 87}, {"time": 85681, "pitch": 82, "duration": 451, "velocity": 96}, {"time": 86163, "pitch": 74, "duration": 220, "velocity": 88}, {"time": 86403, "pitch": 77, "duration": 218, "velocity": 94}, {"time": 86640, "pitch": 82, "duration": 218, "velocity": 97}, {"time": 86878, "pitch": 80, "duration": 220, "velocity": 88}, {"time": 87118, "pitch": 72, "duration": 221, "velocity": 94}, {"time": 87359, "pitch": 75, "duration": 221, "velocity": 90}, {"time": 87600, "pitch": 80, "duration": 451, "velocity": 95}, {"time": 88082, "pitch": 72, "duration": 220, "velocity": 92}, {"time": 88322, "pitch": 75, "duration": 218, "velocity": 99}, {"time": 88559, "pitch": 80, "duration": 218, "velocity": 94}, {"time": 88797, "pitch": 79, "duration": 220, "velocity": 91}, {"time": 89037, "pitch": 70, "duration": 221, "velocity": 95}, {"time": 89278, "pitch": 74, "duration": 221, "velocity": 91}, {"time": 89519, "pitch": 79, "duration": 451, "velocity": 95}, {"time": 90001, "pitch": 70, "duration": 220, "velocity": 86}, {"time": 90241, "pitch": 79, "duration": 221, "velocity": 96}, {"time": 90482, "pitch": 80, "duration": 221, "velocity": 90}, {"time": 90723, "pitch": 81, "duration": 217, "velocity": 92}, {"time": 90960, "pitch": 72, "duration": 217, "velocity": 93}, {"time": 91197, "pitch": 76, "duration": 221, "velocity": 86}, {"time": 91438, "pitch": 81, "duration": 451, "velocity": 95}, {"time": 91920, "pitch": 72, "duration": 220, "velocity": 86}, {"time": 92160, "pitch": 76, "duration": 221, "velocity": 93}, {"time": 92401, "pitch": 81, "duration": 221, "velocity": 87}, {"time": 92642, "pitch": 79, "duration": 221, "velocity": 93}, {"time": 92883, "pitch": 71, "duration": 220, "velocity": 95}, {"time": 93123, "pitch": 74, "duration": 218, "velocity": 90}, {"time": 93361, "pitch": 79, "duration": 447, "velocity": 96}, {"time": 93838, "pitch": 71, "duration": 221, "velocity": 91}, {"time": 94079, "pitch": 74, "duration": 221, "velocity": 96}, {"time": 94320, "pitch": 79, "duration": 221, "velocity": 91}, {"time": 94561, "pitch": 77, "duration": 221, "velocity": 93}, {"time": 94802, "pitch": 69, "duration": 220, "velocity": 92}, {"time": 95042, "pitch": 72, "duration": 218, "velocity": 88}, {"time": 95280, "pitch": 77, "duration": 1200, "velocity": 96}, {"time": 198238, "pitch": 78, "duration": 220, "velocity": 93}, {"time": 198479, "pitch": 69, "duration": 220, "velocity": 81}, {"time": 198719, "pitch": 73, "duration": 221, "velocity": 87}, {"time": 198960, "pitch": 78, "duration": 221, "velocity": 83}, {"time": 199201, "pitch": 79, "duration": 221, "velocity": 91}, {"time": 199442, "pitch": 71, "duration": 220, "velocity": 82}, {"time": 199682, "pitch": 74, "duration": 218, "velocity": 91}, {"time": 199920, "pitch": 79, "duration": 217, "velocity": 87}, {"time": 200157, "pitch": 81, "duration": 220, "velocity": 91}, {"time": 200397, "pitch": 73, "duration": 221, "velocity": 85}, {"time": 200638, "pitch": 76, "duration": 221, "velocity": 89}, {"time": 200879, "pitch": 81, "duration": 221, "velocity": 80}, {"time": 201120, "pitch": 79, "duration": 221, "velocity": 89}, {"time": 201361, "pitch": 71, "duration": 220, "velocity": 84}, {"time": 201601, "pitch": 74, "duration": 221, "velocity": 91}, {"time": 201842, "pitch": 79, "duration": 221, "velocity": 81}, {"time": 202083, "pitch": 78, "duration": 217, "velocity": 93}, {"time": 202320, "pitch": 69, "duration": 218, "velocity": 81}, {"time": 202557, "pitch": 73, "duration": 221, "velocity": 87}, {"time": 202798, "pitch": 78, "duration": 221, "velocity": 83}, {"time": 203039, "pitch": 79, "duration": 221, "velocity": 91}, {"time": 203280, "pitch": 71, "duration": 220, "velocity": 82}, {"time": 203520, "pitch": 74, "duration": 221, "velocity": 91}, {"time": 203761, "pitch": 79, "duration": 221, "velocity": 87}, {"time": 204002, "pitch": 81, "duration": 221, "velocity": 91}, {"time": 204243, "pitch": 73, "duration": 221, "velocity": 85}, {"time": 204484, "pitch": 76, "duration": 217, "velocity": 89}, {"time": 204721, "pitch": 81, "duration": 217, "velocity": 80}, {"time": 204958, "pitch": 79, "duration": 221, "velocity": 89}, {"time": 205199, "pitch": 71, "duration": 220, "velocity": 84}, {"time": 205439, "pitch": 74, "duration": 221, "velocity": 91}, {"time": 205680, "pitch": 79, "duration": 221, "velocity": 81}, {"time": 205921, "pitch": 78, "duration": 221, "velocity": 93}, {"time": 206162, "pitch": 69, "duration": 221, "velocity": 81}, {"time": 206403, "pitch": 73, "duration": 217, "velocity": 87}, {"time": 206640, "pitch": 78, "duration": 217, "velocity": 83}, {"time": 206877, "pitch": 79, "duration": 221, "velocity": 91}, {"time": 207118, "pitch": 71, "duration": 220, "velocity": 82}, {"time": 207358, "pitch": 74, "duration": 221, "velocity": 91}, {"time": 207599, "pitch": 79, "duration": 221, "velocity": 87}, {"time": 207840, "pitch": 81, "duration": 221, "velocity": 91}, {"time": 208081, "pitch": 73, "duration": 221, "velocity": 85}, {"time": 208322, "pitch": 76, "duration": 220, "velocity": 89}, {"time": 208562, "pitch": 81, "duration": 221, "velocity": 80}, {"time": 208803, "pitch": 79, "duration": 218, "velocity": 89}, {"time": 209040, "pitch": 71, "duration": 218, "velocity": 84}, {"time": 209277, "pitch": 74, "duration": 221, "velocity": 91}, {"time": 209518, "pitch": 79, "duration": 221, "velocity": 81}, {"time": 209759, "pitch": 78, "duration": 221, "velocity": 93}, {"time": 210000, "pitch": 69, "duration": 221, "velocity": 81}, {"time": 210241, "pitch": 73, "duration": 220, "velocity": 87}, {"time": 210481, "pitch": 78, "duration": 221, "velocity": 83}, {"time": 210722, "pitch": 79, "duration": 218, "velocity": 91}, {"time": 210959, "pitch": 71, "duration": 218, "velocity": 82}, {"time": 211196, "pitch": 74, "duration": 221, "velocity": 91}, {"time": 211437, "pitch": 79, "duration": 221, "velocity": 87}, {"time": 211678, "pitch": 81, "duration": 221, "velocity": 91}, {"time": 211919, "pitch": 73, "duration": 221, "velocity": 85}, {"time": 212160, "pitch": 76, "duration": 220, "velocity": 89}, {"time": 212400, "pitch": 81, "duration": 221, "velocity": 80}, {"time": 212641, "pitch": 79, "duration": 218, "velocity": 89}, {"time": 212878, "pitch": 71, "duration": 218, "velocity": 84}, {"time": 213115, "pitch": 74, "duration": 218, "velocity": 91}, {"time": 213353, "pitch": 79, "duration": 217, "velocity": 81}, {"time": 213590, "pitch": 78, "duration": 217, "velocity": 93}, {"time": 213827, "pitch": 69, "duration": 217, "velocity": 81}, {"time": 214064, "pitch": 73, "duration": 217, "velocity": 87}, {"time": 214301, "pitch": 78, "duration": 218, "velocity": 83}, {"time": 214538, "pitch": 79, "duration": 218, "velocity": 91}, {"time": 214775, "pitch": 71, "duration": 218, "velocity": 82}, {"time": 215013, "pitch": 74, "duration": 217, "velocity": 91}, {"time": 215250, "pitch": 79, "duration": 217, "velocity": 87}, {"time": 215487, "pitch": 81, "duration": 217, "velocity": 91}, {"time": 215724, "pitch": 73, "duration": 217, "velocity": 85}, {"time": 215961, "pitch": 76, "duration": 218, "velocity": 89}, {"time": 216198, "pitch": 81, "duration": 218, "velocity": 80}, {"time": 216436, "pitch": 79, "duration": 217, "velocity": 89}, {"time": 216673, "pitch": 71, "duration": 217, "velocity": 84}, {"time": 216910, "pitch": 74, "duration": 217, "velocity": 91}, {"time": 217147, "pitch": 79, "duration": 217, "velocity": 81}], "annotations": [{"time": 283, "annotation": {"number": 7, "value": 100}, "group": "control_change"}, {"time": 305, "annotation": {"number": 11, "value": 90}, "group": "control_change"}, {"time": 327, "annotation": {"number": 10, "value": 90}, "group": "control_change"}, {"time": 349, "annotation": {"number": 91, "value": 90}, "group": "control_change"}, {"time": 370, "annotation": {"number": 93, "value": 10}, "group": "control_change"}, {"time": 392, "annotation": {"number": 101, "value": 0}, "group": "control_change"}, {"time": 414, "annotation": {"number": 100, "value": 0}, "group": "control_change"}, {"time": 436, "annotation": {"number": 6, "value": 12}, "group": "control_change"}, {"time": 458, "annotation": {"number": 101, "value": 127}, "group": "control_change"}, {"time": 479, "annotation": {"number": 100, "value": 127}, "group": "control_change"}, {"time": 205921, "annotation": {"number": 11, "value": 90}, "group": "control_change"}, {"time": 206102, "annotation": {"number": 11, "value": 89}, "group": "control_change"}, {"time": 206192, "annotation": {"number": 11, "value": 88}, "group": "control_change"}, {"time": 206373, "annotation": {"number": 11, "value": 87}, "group": "control_change"}, {"time": 206462, "annotation": {"number": 11, "value": 86}, "group": "control_change"}, {"time": 206640, "annotation": {"number": 11, "value": 85}, "group": "control_change"}, {"time": 206729, "annotation": {"number": 11, "value": 84}, "group": "control_change"}, {"time": 206818, "annotation": {"number": 11, "value": 83}, "group": "control_change"}, {"time": 206997, "annotation": {"number": 11, "value": 82}, "group": "control_change"}, {"time": 207088, "annotation": {"number": 11, "value": 81}, "group": "control_change"}, {"time": 207268, "annotation": {"number": 11, "value": 80}, "group": "control_change"}, {"time": 207358, "annotation": {"number": 11, "value": 79}, "group": "control_change"}, {"time": 207539, "annotation": {"number": 11, "value": 78}, "group": "control_change"}, {"time": 207629, "annotation": {"number": 11, "value": 77}, "group": "control_change"}, {"time": 207720, "annotation": {"number": 11, "value": 76}, "group": "control_change"}, {"time": 207900, "annotation": {"number": 11, "value": 75}, "group": "control_change"}, {"time": 207991, "annotation": {"number": 11, "value": 74}, "group": "control_change"}, {"time": 208171, "annotation": {"number": 11, "value": 73}, "group": "control_change"}, {"time": 208261, "annotation": {"number": 11, "value": 72}, "group": "control_change"}, {"time": 208442, "annotation": {"number": 11, "value": 71}, "group": "control_change"}, {"time": 208532, "annotation": {"number": 11, "value": 70}, "group": "control_change"}, {"time": 208623, "annotation": {"number": 11, "value": 69}, "group": "control_change"}, {"time": 208803, "annotation": {"number": 11, "value": 68}, "group": "control_change"}, {"time": 208892, "annotation": {"number": 11, "value": 67}, "group": "control_change"}, {"time": 209070, "annotation": {"number": 11, "value": 66}, "group": "control_change"}, {"time": 209159, "annotation": {"number": 11, "value": 65}, "group": "control_change"}, {"time": 209248, "annotation": {"number": 11, "value": 64}, "group": "control_change"}, {"time": 209428, "annotation": {"number": 11, "value": 63}, "group": "control_change"}, {"time": 209518, "annotation": {"number": 11, "value": 62}, "group": "control_change"}, {"time": 209699, "annotation": {"number": 11, "value": 61}, "group": "control_change"}, {"time": 209789, "annotation": {"number": 11, "value": 60}, "group": "control_change"}, {"time": 209970, "annotation": {"number": 11, "value": 59}, "group": "control_change"}, {"time": 210060, "annotation": {"number": 11, "value": 58}, "group": "control_change"}, {"time": 210150, "annotation": {"number": 11, "value": 57}, "group": "control_change"}, {"time": 210331, "annotation": {"number": 11, "value": 56}, "group": "control_change"}, {"time": 210421, "annotation": {"number": 11, "value": 55}, "group": "control_change"}, {"time": 210602, "annotation": {"number": 11, "value": 54}, "group": "control_change"}, {"time": 210692, "annotation": {"number": 11, "value": 53}, "group": "control_change"}, {"time": 210870, "annotation": {"number": 11, "value": 52}, "group": "control_change"}, {"time": 210959, "annotation": {"number": 11, "value": 51}, "group": "control_change"}, {"time": 211048, "annotation": {"number": 11, "value": 50}, "group": "control_change"}, {"time": 211226, "annotation": {"number": 11, "value": 49}, "group": "control_change"}, {"time": 211317, "annotation": {"number": 11, "value": 48}, "group": "control_change"}, {"time": 211497, "annotation": {"number": 11, "value": 47}, "group": "control_change"}, {"time": 211588, "annotation": {"number": 11, "value": 46}, "group": "control_change"}, {"time": 211678, "annotation": {"number": 11, "value": 45}, "group": "control_change"}, {"time": 211859, "annotation": {"number": 11, "value": 44}, "group": "control_change"}, {"time": 211949, "annotation": {"number": 11, "value": 43}, "group": "control_change"}, {"time": 212129, "annotation": {"number": 11, "value": 42}, "group": "control_change"}, {"time": 212220, "annotation": {"number": 11, "value": 41}, "group": "control_change"}, {"time": 212400, "annotation": {"number": 11, "value": 40}, "group": "control_change"}, {"time": 212491, "annotation": {"number": 11, "value": 39}, "group": "control_change"}, {"time": 212581, "annotation": {"number": 11, "value": 38}, "group": "control_change"}, {"time": 212760, "annotation": {"number": 11, "value": 37}, "group": "control_change"}, {"time": 212849, "annotation": {"number": 11, "value": 36}, "group": "control_change"}, {"time": 213027, "annotation": {"number": 11, "value": 35}, "group": "control_change"}, {"time": 213115, "annotation": {"number": 11, "value": 34}, "group": "control_change"}, {"time": 213293, "annotation": {"number": 11, "value": 33}, "group": "control_change"}, {"time": 213382, "annotation": {"number": 11, "value": 32}, "group": "control_change"}, {"time": 213471, "annotation": {"number": 11, "value": 31}, "group": "control_change"}, {"time": 213649, "annotation": {"number": 11, "value": 30}, "group": "control_change"}, {"time": 213738, "annotation": {"number": 11, "value": 29}, "group": "control_change"}, {"time": 213916, "annotation": {"number": 11, "value": 28}, "group": "control_change"}, {"time": 214005, "annotation": {"number": 11, "value": 27}, "group": "control_change"}, {"time": 214183, "annotation": {"number": 11, "value": 26}, "group": "control_change"}, {"time": 214272, "annotation": {"number": 11, "value": 25}, "group": "control_change"}, {"time": 214360, "annotation": {"number": 11, "value": 24}, "group": "control_change"}, {"time": 214538, "annotation": {"number": 11, "value": 23}, "group": "control_change"}, {"time": 214627, "annotation": {"number": 11, "value": 22}, "group": "control_change"}, {"time": 214805, "annotation": {"number": 11, "value": 21}, "group": "control_change"}, {"time": 214894, "annotation": {"number": 11, "value": 20}, "group": "control_change"}, {"time": 214983, "annotation": {"number": 11, "value": 19}, "group": "control_change"}, {"time": 215161, "annotation": {"number": 11, "value": 18}, "group": "control_change"}, {"time": 215250, "annotation": {"number": 11, "value": 17}, "group": "control_change"}, {"time": 215428, "annotation": {"number": 11, "value": 16}, "group": "control_change"}, {"time": 215517, "annotation": {"number": 11, "value": 15}, "group": "control_change"}, {"time": 215694, "annotation": {"number": 11, "value": 14}, "group": "control_change"}, {"time": 215783, "annotation": {"number": 11, "value": 13}, "group": "control_change"}, {"time": 215872, "annotation": {"number": 11, "value": 12}, "group": "control_change"}, {"time": 216050, "annotation": {"number": 11, "value": 11}, "group": "control_change"}, {"time": 216139, "annotation": {"number": 11, "value": 10}, "group": "control_change"}, {"time": 216317, "annotation": {"number": 11, "value": 9}, "group": "control_change"}, {"time": 216406, "annotation": {"number": 11, "value": 8}, "group": "control_change"}, {"time": 216584, "annotation": {"number": 11, "value": 7}, "group": "control_change"}, {"time": 216673, "annotation": {"number": 11, "value": 6}, "group": "control_change"}, {"time": 216762, "annotation": {"number": 11, "value": 5}, "group": "control_change"}, {"time": 216939, "annotation": {"number": 11, "value": 4}, "group": "control_change"}, {"time": 217028, "annotation": {"number": 11, "value": 3}, "group": "control_change"}, {"time": 217206, "annotation": {"number": 11, "value": 2}, "group": "control_change"}, {"time": 217295, "annotation": {"number": 11, "value": 1}, "group": "control_change"}]}, {"program": 0, "is_drum": false, "name": "BRASS", "annotations": [{"time": 218, "annotation": {"number": 0, "value": 0}, "group": "control_change"}, {"time": 240, "annotation": {"number": 32, "value": 0}, "group": "control_change"}]}, {"program": 61, "is_drum": false, "name": "BRASS", "notes": [{"time": 31198, "pitch": 59, "duration": 1909, "velocity": 75}, {"time": 31198, "pitch": 62, "duration": 1909, "velocity": 79}, {"time": 31198, "pitch": 67, "duration": 1909, "velocity": 91}, {"time": 33117, "pitch": 55, "duration": 1645, "velocity": 74}, {"time": 33117, "pitch": 60, "duration": 1655, "velocity": 76}, {"time": 33117, "pitch": 64, "duration": 1635, "velocity": 89}, {"time": 34802, "pitch": 57, "duration": 916, "velocity": 83}, {"time": 34802, "pitch": 60, "duration": 916, "velocity": 91}, {"time": 35758, "pitch": 57, "duration": 943, "velocity": 76}, {"time": 35758, "pitch": 60, "duration": 943, "velocity": 91}, {"time": 36721, "pitch": 59, "duration": 1357, "velocity": 70}, {"time": 36721, "pitch": 64, "duration": 1357, "velocity": 88}, {"time": 43200, "pitch": 65, "duration": 492, "velocity": 110}, {"time": 43682, "pitch": 69, "duration": 491, "velocity": 104}, {"time": 44164, "pitch": 72, "duration": 474, "velocity": 107}, {"time": 44638, "pitch": 71, "duration": 973, "velocity": 110}, {"time": 45601, "pitch": 69, "duration": 491, "velocity": 110}, {"time": 46083, "pitch": 67, "duration": 474, "velocity": 107}, {"time": 46557, "pitch": 69, "duration": 1535, "velocity": 108}, {"time": 48957, "pitch": 74, "duration": 933, "velocity": 113}, {"time": 49921, "pitch": 74, "duration": 240, "velocity": 111}, {"time": 50161, "pitch": 73, "duration": 1689, "velocity": 108}, {"time": 52803, "pitch": 73, "duration": 925, "velocity": 112}, {"time": 53758, "pitch": 73, "duration": 221, "velocity": 110}, {"time": 53999, "pitch": 72, "duration": 1729, "velocity": 106}, {"time": 56159, "pitch": 71, "duration": 963, "velocity": 113}, {"time": 57122, "pitch": 67, "duration": 715, "velocity": 111}, {"time": 57837, "pitch": 69, "duration": 723, "velocity": 107}, {"time": 58560, "pitch": 71, "duration": 511, "velocity": 111}, {"time": 59041, "pitch": 73, "duration": 492, "velocity": 111}, {"time": 59523, "pitch": 74, "duration": 1196, "velocity": 113}, {"time": 60719, "pitch": 67, "duration": 1204, "velocity": 108}, {"time": 61923, "pitch": 74, "duration": 705, "velocity": 105}, {"time": 62638, "pitch": 71, "duration": 482, "velocity": 108}, {"time": 63120, "pitch": 73, "duration": 722, "velocity": 107}, {"time": 64317, "pitch": 74, "duration": 933, "velocity": 113}, {"time": 65280, "pitch": 74, "duration": 241, "velocity": 111}, {"time": 65521, "pitch": 73, "duration": 1688, "velocity": 108}, {"time": 68162, "pitch": 73, "duration": 926, "velocity": 112}, {"time": 69118, "pitch": 73, "duration": 220, "velocity": 110}, {"time": 69359, "pitch": 72, "duration": 1728, "velocity": 106}, {"time": 71518, "pitch": 71, "duration": 963, "velocity": 113}, {"time": 72481, "pitch": 67, "duration": 719, "velocity": 111}, {"time": 73200, "pitch": 69, "duration": 719, "velocity": 107}, {"time": 73919, "pitch": 71, "duration": 512, "velocity": 111}, {"time": 74400, "pitch": 73, "duration": 492, "velocity": 111}, {"time": 74882, "pitch": 74, "duration": 1197, "velocity": 113}, {"time": 76079, "pitch": 67, "duration": 722, "velocity": 103}, {"time": 76801, "pitch": 69, "duration": 482, "velocity": 105}, {"time": 77283, "pitch": 70, "duration": 1507, "velocity": 107}, {"time": 78961, "pitch": 67, "duration": 4079, "velocity": 104}, {"time": 113758, "pitch": 59, "duration": 1909, "velocity": 96}, {"time": 113758, "pitch": 62, "duration": 1909, "velocity": 100}, {"time": 113758, "pitch": 67, "duration": 1909, "velocity": 112}, {"time": 115677, "pitch": 55, "duration": 1646, "velocity": 95}, {"time": 115677, "pitch": 60, "duration": 1656, "velocity": 97}, {"time": 115677, "pitch": 64, "duration": 1635, "velocity": 110}, {"time": 117363, "pitch": 57, "duration": 915, "velocity": 104}, {"time": 117363, "pitch": 60, "duration": 915, "velocity": 112}, {"time": 118318, "pitch": 57, "duration": 944, "velocity": 97}, {"time": 118318, "pitch": 60, "duration": 944, "velocity": 112}, {"time": 119282, "pitch": 59, "duration": 1357, "velocity": 91}, {"time": 119282, "pitch": 64, "duration": 1357, "velocity": 109}, {"time": 125761, "pitch": 65, "duration": 491, "velocity": 110}, {"time": 126243, "pitch": 69, "duration": 484, "velocity": 104}, {"time": 126717, "pitch": 72, "duration": 481, "velocity": 107}, {"time": 127198, "pitch": 71, "duration": 974, "velocity": 110}, {"time": 128162, "pitch": 69, "duration": 491, "velocity": 110}, {"time": 128643, "pitch": 67, "duration": 474, "velocity": 107}, {"time": 129117, "pitch": 69, "duration": 1534, "velocity": 108}, {"time": 131518, "pitch": 74, "duration": 933, "velocity": 113}, {"time": 132481, "pitch": 74, "duration": 241, "velocity": 111}, {"time": 132722, "pitch": 73, "duration": 1688, "velocity": 108}, {"time": 135363, "pitch": 73, "duration": 926, "velocity": 112}, {"time": 136319, "pitch": 73, "duration": 221, "velocity": 110}, {"time": 136560, "pitch": 72, "duration": 1728, "velocity": 106}, {"time": 138720, "pitch": 71, "duration": 963, "velocity": 113}, {"time": 139683, "pitch": 67, "duration": 715, "velocity": 111}, {"time": 140398, "pitch": 69, "duration": 722, "velocity": 107}, {"time": 141120, "pitch": 71, "duration": 512, "velocity": 111}, {"time": 141602, "pitch": 73, "duration": 491, "velocity": 111}, {"time": 142083, "pitch": 74, "duration": 1197, "velocity": 113}, {"time": 143280, "pitch": 67, "duration": 1197, "velocity": 108}, {"time": 144477, "pitch": 74, "duration": 712, "velocity": 105}, {"time": 145199, "pitch": 71, "duration": 482, "velocity": 108}, {"time": 145681, "pitch": 73, "duration": 722, "velocity": 107}, {"time": 146877, "pitch": 74, "duration": 933, "velocity": 113}, {"time": 147840, "pitch": 74, "duration": 241, "velocity": 111}, {"time": 148081, "pitch": 73, "duration": 1688, "velocity": 108}, {"time": 150723, "pitch": 73, "duration": 925, "velocity": 112}, {"time": 151678, "pitch": 73, "duration": 221, "velocity": 110}, {"time": 151919, "pitch": 72, "duration": 1728, "velocity": 106}, {"time": 154079, "pitch": 71, "duration": 963, "velocity": 113}, {"time": 155042, "pitch": 67, "duration": 715, "velocity": 111}, {"time": 155757, "pitch": 69, "duration": 723, "velocity": 107}, {"time": 156480, "pitch": 71, "duration": 511, "velocity": 111}, {"time": 156961, "pitch": 73, "duration": 492, "velocity": 111}, {"time": 157443, "pitch": 74, "duration": 1196, "velocity": 113}, {"time": 158639, "pitch": 67, "duration": 723, "velocity": 103}, {"time": 159362, "pitch": 69, "duration": 481, "velocity": 105}, {"time": 159843, "pitch": 70, "duration": 1508, "velocity": 107}, {"time": 162237, "pitch": 67, "duration": 501, "velocity": 105}, {"time": 162718, "pitch": 71, "duration": 502, "velocity": 106}, {"time": 163200, "pitch": 74, "duration": 471, "velocity": 110}, {"time": 163681, "pitch": 74, "duration": 976, "velocity": 106}, {"time": 164637, "pitch": 73, "duration": 963, "velocity": 102}, {"time": 166082, "pitch": 74, "duration": 926, "velocity": 113}, {"time": 167038, "pitch": 74, "duration": 240, "velocity": 111}, {"time": 167278, "pitch": 73, "duration": 1689, "velocity": 108}, {"time": 169920, "pitch": 73, "duration": 933, "velocity": 112}, {"time": 170883, "pitch": 73, "duration": 217, "velocity": 110}, {"time": 171120, "pitch": 72, "duration": 1732, "velocity": 106}, {"time": 173283, "pitch": 71, "duration": 956, "velocity": 113}, {"time": 174239, "pitch": 67, "duration": 723, "velocity": 111}, {"time": 174962, "pitch": 69, "duration": 715, "velocity": 107}, {"time": 175677, "pitch": 71, "duration": 511, "velocity": 111}, {"time": 176158, "pitch": 73, "duration": 492, "velocity": 111}, {"time": 176640, "pitch": 74, "duration": 1200, "velocity": 113}, {"time": 177840, "pitch": 67, "duration": 1200, "velocity": 108}, {"time": 179040, "pitch": 74, "duration": 713, "velocity": 105}, {"time": 179763, "pitch": 71, "duration": 478, "velocity": 108}, {"time": 180241, "pitch": 73, "duration": 718, "velocity": 107}, {"time": 181441, "pitch": 74, "duration": 926, "velocity": 113}, {"time": 182397, "pitch": 74, "duration": 241, "velocity": 111}, {"time": 182638, "pitch": 73, "duration": 1695, "velocity": 108}, {"time": 185279, "pitch": 73, "duration": 933, "velocity": 112}, {"time": 186242, "pitch": 73, "duration": 218, "velocity": 110}, {"time": 186479, "pitch": 72, "duration": 1732, "velocity": 106}, {"time": 188643, "pitch": 71, "duration": 956, "velocity": 113}, {"time": 189599, "pitch": 67, "duration": 722, "velocity": 111}, {"time": 190321, "pitch": 69, "duration": 722, "velocity": 107}, {"time": 191043, "pitch": 71, "duration": 505, "velocity": 111}, {"time": 191518, "pitch": 73, "duration": 491, "velocity": 111}, {"time": 191999, "pitch": 74, "duration": 1200, "velocity": 113}, {"time": 193199, "pitch": 67, "duration": 719, "velocity": 103}, {"time": 193918, "pitch": 69, "duration": 482, "velocity": 105}, {"time": 194400, "pitch": 70, "duration": 1507, "velocity": 107}, {"time": 196078, "pitch": 69, "duration": 2160, "velocity": 104}], "annotations": [{"time": 283, "annotation": {"number": 7, "value": 110}, "group": "control_change"}, {"time": 305, "annotation": {"number": 11, "value": 100}, "group": "control_change"}, {"time": 327, "annotation": {"number": 10, "value": 70}, "group": "control_change"}, {"time": 349, "annotation": {"number": 91, "value": 70}, "group": "control_change"}, {"time": 370, "annotation": {"number": 93, "value": 0}, "group": "control_change"}, {"time": 392, "annotation": {"number": 101, "value": 0}, "group": "control_change"}, {"time": 414, "annotation": {"number": 100, "value": 0}, "group": "control_change"}, {"time": 436, "annotation": {"number": 6, "value": 12}, "group": "control_change"}, {"time": 458, "annotation": {"number": 101, "value": 127}, "group": "control_change"}, {"time": 479, "annotation": {"number": 100, "value": 127}, "group": "control_change"}, {"time": 31198, "annotation": {"number": 11, "value": 66}, "group": "control_change"}, {"time": 31228, "annotation": {"number": 11, "value": 70}, "group": "control_change"}, {"time": 31258, "annotation": {"number": 11, "value": 73}, "group": "control_change"}, {"time": 31288, "annotation": {"number": 11, "value": 76}, "group": "control_change"}, {"time": 31318, "annotation": {"number": 11, "value": 79}, "group": "control_change"}, {"time": 31348, "annotation": {"number": 11, "value": 80}, "group": "control_change"}, {"time": 31378, "annotation": {"number": 11, "value": 82}, "group": "control_change"}, {"time": 31408, "annotation": {"number": 11, "value": 84}, "group": "control_change"}, {"time": 31438, "annotation": {"number": 11, "value": 86}, "group": "control_change"}, {"time": 31468, "annotation": {"number": 11, "value": 87}, "group": "control_change"}, {"time": 31498, "annotation": {"number": 11, "value": 89}, "group": "control_change"}, {"time": 31529, "annotation": {"number": 11, "value": 90}, "group": "control_change"}, {"time": 31559, "annotation": {"number": 11, "value": 91}, "group": "control_change"}, {"time": 31589, "annotation": {"number": 11, "value": 92}, "group": "control_change"}, {"time": 31619, "annotation": {"number": 11, "value": 93}, "group": "control_change"}, {"time": 31679, "annotation": {"number": 11, "value": 94}, "group": "control_change"}, {"time": 31709, "annotation": {"number": 11, "value": 95}, "group": "control_change"}, {"time": 31769, "annotation": {"number": 11, "value": 96}, "group": "control_change"}, {"time": 31830, "annotation": {"number": 11, "value": 97}, "group": "control_change"}, {"time": 31920, "annotation": {"number": 11, "value": 98}, "group": "control_change"}, {"time": 32010, "annotation": {"number": 11, "value": 99}, "group": "control_change"}, {"time": 32221, "annotation": {"number": 11, "value": 100}, "group": "control_change"}, {"time": 36962, "annotation": {"number": 11, "value": 100}, "group": "control_change"}, {"time": 37323, "annotation": {"number": 11, "value": 99}, "group": "control_change"}, {"time": 37443, "annotation": {"number": 11, "value": 98}, "group": "control_change"}, {"time": 37532, "annotation": {"number": 11, "value": 97}, "group": "control_change"}, {"time": 37592, "annotation": {"number": 11, "value": 96}, "group": "control_change"}, {"time": 37621, "annotation": {"number": 11, "value": 95}, "group": "control_change"}, {"time": 37651, "annotation": {"number": 11, "value": 94}, "group": "control_change"}, {"time": 37681, "annotation": {"number": 11, "value": 93}, "group": "control_change"}, {"time": 37710, "annotation": {"number": 11, "value": 92}, "group": "control_change"}, {"time": 37740, "annotation": {"number": 11, "value": 91}, "group": "control_change"}, {"time": 37769, "annotation": {"number": 11, "value": 89}, "group": "control_change"}, {"time": 37799, "annotation": {"number": 11, "value": 87}, "group": "control_change"}, {"time": 37829, "annotation": {"number": 11, "value": 85}, "group": "control_change"}, {"time": 37858, "annotation": {"number": 11, "value": 83}, "group": "control_change"}, {"time": 37888, "annotation": {"number": 11, "value": 80}, "group": "control_change"}, {"time": 37918, "annotation": {"number": 11, "value": 76}, "group": "control_change"}, {"time": 37948, "annotation": {"number": 11, "value": 72}, "group": "control_change"}, {"time": 37978, "annotation": {"number": 11, "value": 67}, "group": "control_change"}, {"time": 38008, "annotation": {"number": 11, "value": 62}, "group": "control_change"}, {"time": 38038, "annotation": {"number": 11, "value": 56}, "group": "control_change"}, {"time": 38068, "annotation": {"number": 11, "value": 50}, "group": "control_change"}, {"time": 42719, "annotation": {"number": 11, "value": 100}, "group": "control_change"}, {"time": 43200, "annotation": {"number": 11, "value": 68}, "group": "control_change"}, {"time": 43230, "annotation": {"number": 11, "value": 72}, "group": "control_change"}, {"time": 43261, "annotation": {"number": 11, "value": 75}, "group": "control_change"}, {"time": 43291, "annotation": {"number": 11, "value": 78}, "group": "control_change"}, {"time": 43321, "annotation": {"number": 11, "value": 81}, "group": "control_change"}, {"time": 43351, "annotation": {"number": 11, "value": 83}, "group": "control_change"}, {"time": 43381, "annotation": {"number": 11, "value": 84}, "group": "control_change"}, {"time": 43411, "annotation": {"number": 11, "value": 86}, "group": "control_change"}, {"time": 43441, "annotation": {"number": 11, "value": 88}, "group": "control_change"}, {"time": 43471, "annotation": {"number": 11, "value": 89}, "group": "control_change"}, {"time": 43501, "annotation": {"number": 11, "value": 91}, "group": "control_change"}, {"time": 43531, "annotation": {"number": 11, "value": 92}, "group": "control_change"}, {"time": 43592, "annotation": {"number": 11, "value": 93}, "group": "control_change"}, {"time": 43622, "annotation": {"number": 11, "value": 94}, "group": "control_change"}, {"time": 43652, "annotation": {"number": 11, "value": 95}, "group": "control_change"}, {"time": 43682, "annotation": {"number": 11, "value": 96}, "group": "control_change"}, {"time": 43772, "annotation": {"number": 11, "value": 97}, "group": "control_change"}, {"time": 43832, "annotation": {"number": 11, "value": 98}, "group": "control_change"}, {"time": 43953, "annotation": {"number": 11, "value": 99}, "group": "control_change"}, {"time": 44133, "annotation": {"number": 11, "value": 100}, "group": "control_change"}, {"time": 45601, "annotation": {"number": 11, "value": 100}, "group": "control_change"}, {"time": 46022, "annotation": {"number": 11, "value": 99}, "group": "control_change"}, {"time": 46142, "annotation": {"number": 11, "value": 98}, "group": "control_change"}, {"time": 46201, "annotation": {"number": 11, "value": 97}, "group": "control_change"}, {"time": 46260, "annotation": {"number": 11, "value": 96}, "group": "control_change"}, {"time": 46320, "annotation": {"number": 11, "value": 94}, "group": "control_change"}, {"time": 46349, "annotation": {"number": 11, "value": 93}, "group": "control_change"}, {"time": 46379, "annotation": {"number": 11, "value": 92}, "group": "control_change"}, {"time": 46409, "annotation": {"number": 11, "value": 90}, "group": "control_change"}, {"time": 46438, "annotation": {"number": 11, "value": 88}, "group": "control_change"}, {"time": 46468, "annotation": {"number": 11, "value": 86}, "group": "control_change"}, {"time": 46498, "annotation": {"number": 11, "value": 84}, "group": "control_change"}, {"time": 46527, "annotation": {"number": 11, "value": 80}, "group": "control_change"}, {"time": 46557, "annotation": {"number": 11, "value": 76}, "group": "control_change"}, {"time": 46557, "annotation": {"number": 11, "value": 100}, "group": "control_change"}, {"time": 46948, "annotation": {"number": 11, "value": 99}, "group": "control_change"}, {"time": 47129, "annotation": {"number": 11, "value": 98}, "group": "control_change"}, {"time": 47219, "annotation": {"number": 11, "value": 97}, "group": "control_change"}, {"time": 47309, "annotation": {"number": 11, "value": 96}, "group": "control_change"}, {"time": 47369, "annotation": {"number": 11, "value": 95}, "group": "control_change"}, {"time": 47430, "annotation": {"number": 11, "value": 94}, "group": "control_change"}, {"time": 47460, "annotation": {"number": 11, "value": 93}, "group": "control_change"}, {"time": 47490, "annotation": {"number": 11, "value": 92}, "group": "control_change"}, {"time": 47520, "annotation": {"number": 11, "value": 91}, "group": "control_change"}, {"time": 47550, "annotation": {"number": 11, "value": 90}, "group": "control_change"}, {"time": 47580, "annotation": {"number": 11, "value": 89}, "group": "control_change"}, {"time": 47610, "annotation": {"number": 11, "value": 88}, "group": "control_change"}, {"time": 47640, "annotation": {"number": 11, "value": 86}, "group": "control_change"}, {"time": 47670, "annotation": {"number": 11, "value": 85}, "group": "control_change"}, {"time": 47701, "annotation": {"number": 11, "value": 82}, "group": "control_change"}, {"time": 47731, "annotation": {"number": 11, "value": 81}, "group": "control_change"}, {"time": 47761, "annotation": {"number": 11, "value": 78}, "group": "control_change"}, {"time": 47791, "annotation": {"number": 11, "value": 76}, "group": "control_change"}, {"time": 47821, "annotation": {"number": 11, "value": 73}, "group": "control_change"}, {"time": 47851, "annotation": {"number": 11, "value": 70}, "group": "control_change"}, {"time": 47881, "annotation": {"number": 11, "value": 66}, "group": "control_change"}, {"time": 47911, "annotation": {"number": 11, "value": 62}, "group": "control_change"}, {"time": 47941, "annotation": {"number": 11, "value": 58}, "group": "control_change"}, {"time": 47971, "annotation": {"number": 11, "value": 53}, "group": "control_change"}, {"time": 48002, "annotation": {"number": 11, "value": 47}, "group": "control_change"}, {"time": 48032, "annotation": {"number": 11, "value": 41}, "group": "control_change"}, {"time": 48062, "annotation": {"number": 11, "value": 35}, "group": "control_change"}, {"time": 48092, "annotation": {"number": 11, "value": 28}, "group": "control_change"}, {"time": 48957, "annotation": {"number": 11, "value": 76}, "group": "control_change"}, {"time": 48987, "annotation": {"number": 11, "value": 81}, "group": "control_change"}, {"time": 49018, "annotation": {"number": 11, "value": 85}, "group": "control_change"}, {"time": 49048, "annotation": {"number": 11, "value": 88}, "group": "control_change"}, {"time": 49078, "annotation": {"number": 11, "value": 90}, "group": "control_change"}, {"time": 49108, "annotation": {"number": 11, "value": 92}, "group": "control_change"}, {"time": 49138, "annotation": {"number": 11, "value": 94}, "group": "control_change"}, {"time": 49168, "annotation": {"number": 11, "value": 95}, "group": "control_change"}, {"time": 49198, "annotation": {"number": 11, "value": 96}, "group": "control_change"}, {"time": 49228, "annotation": {"number": 11, "value": 97}, "group": "control_change"}, {"time": 49288, "annotation": {"number": 11, "value": 98}, "group": "control_change"}, {"time": 49319, "annotation": {"number": 11, "value": 99}, "group": "control_change"}, {"time": 49439, "annotation": {"number": 11, "value": 100}, "group": "control_change"}, {"time": 50402, "annotation": {"number": 11, "value": 100}, "group": "control_change"}, {"time": 50906, "annotation": {"number": 11, "value": 99}, "group": "control_change"}, {"time": 51087, "annotation": {"number": 11, "value": 98}, "group": "control_change"}, {"time": 51207, "annotation": {"number": 11, "value": 97}, "group": "control_change"}, {"time": 51268, "annotation": {"number": 11, "value": 96}, "group": "control_change"}, {"time": 51298, "annotation": {"number": 11, "value": 95}, "group": "control_change"}, {"time": 51358, "annotation": {"number": 11, "value": 94}, "group": "control_change"}, {"time": 51388, "annotation": {"number": 11, "value": 93}, "group": "control_change"}, {"time": 51448, "annotation": {"number": 11, "value": 92}, "group": "control_change"}, {"time": 51478, "annotation": {"number": 11, "value": 90}, "group": "control_change"}, {"time": 51508, "annotation": {"number": 11, "value": 89}, "group": "control_change"}, {"time": 51539, "annotation": {"number": 11, "value": 88}, "group": "control_change"}, {"time": 51569, "annotation": {"number": 11, "value": 86}, "group": "control_change"}, {"time": 51599, "annotation": {"number": 11, "value": 85}, "group": "control_change"}, {"time": 51629, "annotation": {"number": 11, "value": 83}, "group": "control_change"}, {"time": 51659, "annotation": {"number": 11, "value": 80}, "group": "control_change"}, {"time": 51689, "annotation": {"number": 11, "value": 78}, "group": "control_change"}, {"time": 51719, "annotation": {"number": 11, "value": 76}, "group": "control_change"}, {"time": 51749, "annotation": {"number": 11, "value": 72}, "group": "control_change"}, {"time": 51779, "annotation": {"number": 11, "value": 69}, "group": "control_change"}, {"time": 51809, "annotation": {"number": 11, "value": 65}, "group": "control_change"}, {"time": 51839, "annotation": {"number": 11, "value": 60}, "group": "control_change"}, {"time": 52803, "annotation": {"number": 11, "value": 76}, "group": "control_change"}, {"time": 52832, "annotation": {"number": 11, "value": 80}, "group": "control_change"}, {"time": 52862, "annotation": {"number": 11, "value": 84}, "group": "control_change"}, {"time": 52892, "annotation": {"number": 11, "value": 86}, "group": "control_change"}, {"time": 52921, "annotation": {"number": 11, "value": 88}, "group": "control_change"}, {"time": 52951, "annotation": {"number": 11, "value": 90}, "group": "control_change"}, {"time": 52980, "annotation": {"number": 11, "value": 92}, "group": "control_change"}, {"time": 53010, "annotation": {"number": 11, "value": 93}, "group": "control_change"}, {"time": 53040, "annotation": {"number": 11, "value": 94}, "group": "control_change"}, {"time": 53069, "annotation": {"number": 11, "value": 96}, "group": "control_change"}, {"time": 53129, "annotation": {"number": 11, "value": 97}, "group": "control_change"}, {"time": 53188, "annotation": {"number": 11, "value": 98}, "group": "control_change"}, {"time": 53247, "annotation": {"number": 11, "value": 99}, "group": "control_change"}, {"time": 53367, "annotation": {"number": 11, "value": 100}, "group": "control_change"}, {"time": 54240, "annotation": {"number": 11, "value": 100}, "group": "control_change"}, {"time": 54692, "annotation": {"number": 11, "value": 99}, "group": "control_change"}, {"time": 54872, "annotation": {"number": 11, "value": 98}, "group": "control_change"}, {"time": 54962, "annotation": {"number": 11, "value": 97}, "group": "control_change"}, {"time": 55023, "annotation": {"number": 11, "value": 96}, "group": "control_change"}, {"time": 55083, "annotation": {"number": 11, "value": 95}, "group": "control_change"}, {"time": 55143, "annotation": {"number": 11, "value": 94}, "group": "control_change"}, {"time": 55173, "annotation": {"number": 11, "value": 93}, "group": "control_change"}, {"time": 55203, "annotation": {"number": 11, "value": 92}, "group": "control_change"}, {"time": 55233, "annotation": {"number": 11, "value": 91}, "group": "control_change"}, {"time": 55262, "annotation": {"number": 11, "value": 90}, "group": "control_change"}, {"time": 55292, "annotation": {"number": 11, "value": 89}, "group": "control_change"}, {"time": 55322, "annotation": {"number": 11, "value": 88}, "group": "control_change"}, {"time": 55351, "annotation": {"number": 11, "value": 86}, "group": "control_change"}, {"time": 55381, "annotation": {"number": 11, "value": 84}, "group": "control_change"}, {"time": 55411, "annotation": {"number": 11, "value": 82}, "group": "control_change"}, {"time": 55440, "annotation": {"number": 11, "value": 80}, "group": "control_change"}, {"time": 55470, "annotation": {"number": 11, "value": 78}, "group": "control_change"}, {"time": 55500, "annotation": {"number": 11, "value": 75}, "group": "control_change"}, {"time": 55529, "annotation": {"number": 11, "value": 71}, "group": "control_change"}, {"time": 55559, "annotation": {"number": 11, "value": 68}, "group": "control_change"}, {"time": 55589, "annotation": {"number": 11, "value": 64}, "group": "control_change"}, {"time": 55618, "annotation": {"number": 11, "value": 60}, "group": "control_change"}, {"time": 55648, "annotation": {"number": 11, "value": 55}, "group": "control_change"}, {"time": 55678, "annotation": {"number": 11, "value": 49}, "group": "control_change"}, {"time": 55708, "annotation": {"number": 11, "value": 44}, "group": "control_change"}, {"time": 56159, "annotation": {"number": 11, "value": 76}, "group": "control_change"}, {"time": 56189, "annotation": {"number": 11, "value": 80}, "group": "control_change"}, {"time": 56219, "annotation": {"number": 11, "value": 84}, "group": "control_change"}, {"time": 56249, "annotation": {"number": 11, "value": 86}, "group": "control_change"}, {"time": 56279, "annotation": {"number": 11, "value": 88}, "group": "control_change"}, {"time": 56310, "annotation": {"number": 11, "value": 90}, "group": "control_change"}, {"time": 56340, "annotation": {"number": 11, "value": 92}, "group": "control_change"}, {"time": 56370, "annotation": {"number": 11, "value": 93}, "group": "control_change"}, {"time": 56400, "annotation": {"number": 11, "value": 94}, "group": "control_change"}, {"time": 56430, "annotation": {"number": 11, "value": 96}, "group": "control_change"}, {"time": 56490, "annotation": {"number": 11, "value": 97}, "group": "control_change"}, {"time": 56550, "annotation": {"number": 11, "value": 98}, "group": "control_change"}, {"time": 56611, "annotation": {"number": 11, "value": 99}, "group": "control_change"}, {"time": 56731, "annotation": {"number": 11, "value": 100}, "group": "control_change"}, {"time": 60719, "annotation": {"number": 11, "value": 100}, "group": "control_change"}, {"time": 61171, "annotation": {"number": 11, "value": 99}, "group": "control_change"}, {"time": 61321, "annotation": {"number": 11, "value": 98}, "group": "control_change"}, {"time": 61412, "annotation": {"number": 11, "value": 97}, "group": "control_change"}, {"time": 61472, "annotation": {"number": 11, "value": 96}, "group": "control_change"}, {"time": 61532, "annotation": {"number": 11, "value": 95}, "group": "control_change"}, {"time": 61562, "annotation": {"number": 11, "value": 94}, "group": "control_change"}, {"time": 61622, "annotation": {"number": 11, "value": 92}, "group": "control_change"}, {"time": 61652, "annotation": {"number": 11, "value": 91}, "group": "control_change"}, {"time": 61683, "annotation": {"number": 11, "value": 90}, "group": "control_change"}, {"time": 61713, "annotation": {"number": 11, "value": 88}, "group": "control_change"}, {"time": 61743, "annotation": {"number": 11, "value": 87}, "group": "control_change"}, {"time": 61773, "annotation": {"number": 11, "value": 84}, "group": "control_change"}, {"time": 61803, "annotation": {"number": 11, "value": 82}, "group": "control_change"}, {"time": 61833, "annotation": {"number": 11, "value": 80}, "group": "control_change"}, {"time": 61863, "annotation": {"number": 11, "value": 76}, "group": "control_change"}, {"time": 61893, "annotation": {"number": 11, "value": 73}, "group": "control_change"}, {"time": 61923, "annotation": {"number": 11, "value": 68}, "group": "control_change"}, {"time": 61923, "annotation": {"number": 11, "value": 84}, "group": "control_change"}, {"time": 61953, "annotation": {"number": 11, "value": 88}, "group": "control_change"}, {"time": 61983, "annotation": {"number": 11, "value": 91}, "group": "control_change"}, {"time": 62012, "annotation": {"number": 11, "value": 92}, "group": "control_change"}, {"time": 62042, "annotation": {"number": 11, "value": 94}, "group": "control_change"}, {"time": 62072, "annotation": {"number": 11, "value": 96}, "group": "control_change"}, {"time": 62131, "annotation": {"number": 11, "value": 97}, "group": "control_change"}, {"time": 62160, "annotation": {"number": 11, "value": 98}, "group": "control_change"}, {"time": 62220, "annotation": {"number": 11, "value": 99}, "group": "control_change"}, {"time": 62309, "annotation": {"number": 11, "value": 100}, "group": "control_change"}, {"time": 63120, "annotation": {"number": 11, "value": 100}, "group": "control_change"}, {"time": 63391, "annotation": {"number": 11, "value": 99}, "group": "control_change"}, {"time": 63481, "annotation": {"number": 11, "value": 98}, "group": "control_change"}, {"time": 63541, "annotation": {"number": 11, "value": 97}, "group": "control_change"}, {"time": 63571, "annotation": {"number": 11, "value": 95}, "group": "control_change"}, {"time": 63602, "annotation": {"number": 11, "value": 94}, "group": "control_change"}, {"time": 63632, "annotation": {"number": 11, "value": 93}, "group": "control_change"}, {"time": 63662, "annotation": {"number": 11, "value": 90}, "group": "control_change"}, {"time": 63692, "annotation": {"number": 11, "value": 88}, "group": "control_change"}, {"time": 63722, "annotation": {"number": 11, "value": 85}, "group": "control_change"}, {"time": 63752, "annotation": {"number": 11, "value": 80}, "group": "control_change"}, {"time": 63782, "annotation": {"number": 11, "value": 76}, "group": "control_change"}, {"time": 63812, "annotation": {"number": 11, "value": 69}, "group": "control_change"}, {"time": 63842, "annotation": {"number": 11, "value": 60}, "group": "control_change"}, {"time": 64317, "annotation": {"number": 11, "value": 76}, "group": "control_change"}, {"time": 64347, "annotation": {"number": 11, "value": 81}, "group": "control_change"}, {"time": 64377, "annotation": {"number": 11, "value": 85}, "group": "control_change"}, {"time": 64407, "annotation": {"number": 11, "value": 88}, "group": "control_change"}, {"time": 64437, "annotation": {"number": 11, "value": 90}, "group": "control_change"}, {"time": 64467, "annotation": {"number": 11, "value": 92}, "group": "control_change"}, {"time": 64497, "annotation": {"number": 11, "value": 94}, "group": "control_change"}, {"time": 64527, "annotation": {"number": 11, "value": 95}, "group": "control_change"}, {"time": 64557, "annotation": {"number": 11, "value": 96}, "group": "control_change"}, {"time": 64587, "annotation": {"number": 11, "value": 97}, "group": "control_change"}, {"time": 64648, "annotation": {"number": 11, "value": 98}, "group": "control_change"}, {"time": 64678, "annotation": {"number": 11, "value": 99}, "group": "control_change"}, {"time": 64798, "annotation": {"number": 11, "value": 100}, "group": "control_change"}, {"time": 65761, "annotation": {"number": 11, "value": 100}, "group": "control_change"}, {"time": 66273, "annotation": {"number": 11, "value": 99}, "group": "control_change"}, {"time": 66450, "annotation": {"number": 11, "value": 98}, "group": "control_change"}, {"time": 66569, "annotation": {"number": 11, "value": 97}, "group": "control_change"}, {"time": 66628, "annotation": {"number": 11, "value": 96}, "group": "control_change"}, {"time": 66658, "annotation": {"number": 11, "value": 95}, "group": "control_change"}, {"time": 66717, "annotation": {"number": 11, "value": 94}, "group": "control_change"}, {"time": 66747, "annotation": {"number": 11, "value": 93}, "group": "control_change"}, {"time": 66807, "annotation": {"number": 11, "value": 92}, "group": "control_change"}, {"time": 66838, "annotation": {"number": 11, "value": 90}, "group": "control_change"}, {"time": 66868, "annotation": {"number": 11, "value": 89}, "group": "control_change"}, {"time": 66898, "annotation": {"number": 11, "value": 88}, "group": "control_change"}, {"time": 66928, "annotation": {"number": 11, "value": 86}, "group": "control_change"}, {"time": 66958, "annotation": {"number": 11, "value": 85}, "group": "control_change"}, {"time": 66988, "annotation": {"number": 11, "value": 83}, "group": "control_change"}, {"time": 67018, "annotation": {"number": 11, "value": 80}, "group": "control_change"}, {"time": 67048, "annotation": {"number": 11, "value": 78}, "group": "control_change"}, {"time": 67078, "annotation": {"number": 11, "value": 76}, "group": "control_change"}, {"time": 67108, "annotation": {"number": 11, "value": 72}, "group": "control_change"}, {"time": 67139, "annotation": {"number": 11, "value": 69}, "group": "control_change"}, {"time": 67169, "annotation": {"number": 11, "value": 65}, "group": "control_change"}, {"time": 67199, "annotation": {"number": 11, "value": 60}, "group": "control_change"}, {"time": 68162, "annotation": {"number": 11, "value": 76}, "group": "control_change"}, {"time": 68192, "annotation": {"number": 11, "value": 80}, "group": "control_change"}, {"time": 68222, "annotation": {"number": 11, "value": 84}, "group": "control_change"}, {"time": 68252, "annotation": {"number": 11, "value": 86}, "group": "control_change"}, {"time": 68282, "annotation": {"number": 11, "value": 88}, "group": "control_change"}, {"time": 68312, "annotation": {"number": 11, "value": 90}, "group": "control_change"}, {"time": 68343, "annotation": {"number": 11, "value": 92}, "group": "control_change"}, {"time": 68373, "annotation": {"number": 11, "value": 93}, "group": "control_change"}, {"time": 68403, "annotation": {"number": 11, "value": 94}, "group": "control_change"}, {"time": 68433, "annotation": {"number": 11, "value": 96}, "group": "control_change"}, {"time": 68493, "annotation": {"number": 11, "value": 97}, "group": "control_change"}, {"time": 68553, "annotation": {"number": 11, "value": 98}, "group": "control_change"}, {"time": 68613, "annotation": {"number": 11, "value": 99}, "group": "control_change"}, {"time": 68732, "annotation": {"number": 11, "value": 100}, "group": "control_change"}, {"time": 69599, "annotation": {"number": 11, "value": 100}, "group": "control_change"}, {"time": 70051, "annotation": {"number": 11, "value": 99}, "group": "control_change"}, {"time": 70231, "annotation": {"number": 11, "value": 98}, "group": "control_change"}, {"time": 70322, "annotation": {"number": 11, "value": 97}, "group": "control_change"}, {"time": 70382, "annotation": {"number": 11, "value": 96}, "group": "control_change"}, {"time": 70442, "annotation": {"number": 11, "value": 95}, "group": "control_change"}, {"time": 70502, "annotation": {"number": 11, "value": 94}, "group": "control_change"}, {"time": 70532, "annotation": {"number": 11, "value": 93}, "group": "control_change"}, {"time": 70562, "annotation": {"number": 11, "value": 92}, "group": "control_change"}, {"time": 70592, "annotation": {"number": 11, "value": 91}, "group": "control_change"}, {"time": 70622, "annotation": {"number": 11, "value": 90}, "group": "control_change"}, {"time": 70651, "annotation": {"number": 11, "value": 89}, "group": "control_change"}, {"time": 70681, "annotation": {"number": 11, "value": 88}, "group": "control_change"}, {"time": 70711, "annotation": {"number": 11, "value": 86}, "group": "control_change"}, {"time": 70740, "annotation": {"number": 11, "value": 84}, "group": "control_change"}, {"time": 70770, "annotation": {"number": 11, "value": 82}, "group": "control_change"}, {"time": 70800, "annotation": {"number": 11, "value": 80}, "group": "control_change"}, {"time": 70829, "annotation": {"number": 11, "value": 78}, "group": "control_change"}, {"time": 70859, "annotation": {"number": 11, "value": 75}, "group": "control_change"}, {"time": 70889, "annotation": {"number": 11, "value": 71}, "group": "control_change"}, {"time": 70918, "annotation": {"number": 11, "value": 68}, "group": "control_change"}, {"time": 70948, "annotation": {"number": 11, "value": 64}, "group": "control_change"}, {"time": 70977, "annotation": {"number": 11, "value": 60}, "group": "control_change"}, {"time": 71007, "annotation": {"number": 11, "value": 55}, "group": "control_change"}, {"time": 71037, "annotation": {"number": 11, "value": 49}, "group": "control_change"}, {"time": 71067, "annotation": {"number": 11, "value": 44}, "group": "control_change"}, {"time": 71518, "annotation": {"number": 11, "value": 76}, "group": "control_change"}, {"time": 71548, "annotation": {"number": 11, "value": 80}, "group": "control_change"}, {"time": 71579, "annotation": {"number": 11, "value": 84}, "group": "control_change"}, {"time": 71609, "annotation": {"number": 11, "value": 86}, "group": "control_change"}, {"time": 71639, "annotation": {"number": 11, "value": 88}, "group": "control_change"}, {"time": 71669, "annotation": {"number": 11, "value": 90}, "group": "control_change"}, {"time": 71699, "annotation": {"number": 11, "value": 92}, "group": "control_change"}, {"time": 71729, "annotation": {"number": 11, "value": 93}, "group": "control_change"}, {"time": 71759, "annotation": {"number": 11, "value": 94}, "group": "control_change"}, {"time": 71789, "annotation": {"number": 11, "value": 96}, "group": "control_change"}, {"time": 71849, "annotation": {"number": 11, "value": 97}, "group": "control_change"}, {"time": 71910, "annotation": {"number": 11, "value": 98}, "group": "control_change"}, {"time": 71970, "annotation": {"number": 11, "value": 99}, "group": "control_change"}, {"time": 72090, "annotation": {"number": 11, "value": 100}, "group": "control_change"}, {"time": 77283, "annotation": {"number": 11, "value": 100}, "group": "control_change"}, {"time": 77678, "annotation": {"number": 11, "value": 99}, "group": "control_change"}, {"time": 77837, "annotation": {"number": 11, "value": 98}, "group": "control_change"}, {"time": 77917, "annotation": {"number": 11, "value": 97}, "group": "control_change"}, {"time": 78038, "annotation": {"number": 11, "value": 96}, "group": "control_change"}, {"time": 78078, "annotation": {"number": 11, "value": 95}, "group": "control_change"}, {"time": 78118, "annotation": {"number": 11, "value": 94}, "group": "control_change"}, {"time": 78158, "annotation": {"number": 11, "value": 93}, "group": "control_change"}, {"time": 78198, "annotation": {"number": 11, "value": 91}, "group": "control_change"}, {"time": 78238, "annotation": {"number": 11, "value": 90}, "group": "control_change"}, {"time": 78279, "annotation": {"number": 11, "value": 88}, "group": "control_change"}, {"time": 78319, "annotation": {"number": 11, "value": 86}, "group": "control_change"}, {"time": 78359, "annotation": {"number": 11, "value": 84}, "group": "control_change"}, {"time": 78399, "annotation": {"number": 11, "value": 81}, "group": "control_change"}, {"time": 78439, "annotation": {"number": 11, "value": 78}, "group": "control_change"}, {"time": 78479, "annotation": {"number": 11, "value": 75}, "group": "control_change"}, {"time": 78519, "annotation": {"number": 11, "value": 71}, "group": "control_change"}, {"time": 78560, "annotation": {"number": 11, "value": 66}, "group": "control_change"}, {"time": 78600, "annotation": {"number": 11, "value": 61}, "group": "control_change"}, {"time": 78640, "annotation": {"number": 11, "value": 54}, "group": "control_change"}, {"time": 78680, "annotation": {"number": 11, "value": 46}, "group": "control_change"}, {"time": 78720, "annotation": {"number": 11, "value": 37}, "group": "control_change"}, {"time": 78760, "annotation": {"number": 11, "value": 28}, "group": "control_change"}, {"time": 78961, "annotation": {"number": 11, "value": 84}, "group": "control_change"}, {"time": 78981, "annotation": {"number": 11, "value": 91}, "group": "control_change"}, {"time": 79001, "annotation": {"number": 11, "value": 94}, "group": "control_change"}, {"time": 79021, "annotation": {"number": 11, "value": 96}, "group": "control_change"}, {"time": 79041, "annotation": {"number": 11, "value": 98}, "group": "control_change"}, {"time": 79061, "annotation": {"number": 11, "value": 99}, "group": "control_change"}, {"time": 79101, "annotation": {"number": 11, "value": 100}, "group": "control_change"}, {"time": 81121, "annotation": {"number": 11, "value": 100}, "group": "control_change"}, {"time": 81602, "annotation": {"number": 11, "value": 99}, "group": "control_change"}, {"time": 81839, "annotation": {"number": 11, "value": 98}, "group": "control_change"}, {"time": 81958, "annotation": {"number": 11, "value": 97}, "group": "control_change"}, {"time": 82076, "annotation": {"number": 11, "value": 96}, "group": "control_change"}, {"time": 82137, "annotation": {"number": 11, "value": 95}, "group": "control_change"}, {"time": 82197, "annotation": {"number": 11, "value": 94}, "group": "control_change"}, {"time": 82257, "annotation": {"number": 11, "value": 93}, "group": "control_change"}, {"time": 82287, "annotation": {"number": 11, "value": 92}, "group": "control_change"}, {"time": 82317, "annotation": {"number": 11, "value": 91}, "group": "control_change"}, {"time": 82377, "annotation": {"number": 11, "value": 90}, "group": "control_change"}, {"time": 82408, "annotation": {"number": 11, "value": 89}, "group": "control_change"}, {"time": 82438, "annotation": {"number": 11, "value": 88}, "group": "control_change"}, {"time": 82468, "annotation": {"number": 11, "value": 87}, "group": "control_change"}, {"time": 82498, "annotation": {"number": 11, "value": 86}, "group": "control_change"}, {"time": 82528, "annotation": {"number": 11, "value": 84}, "group": "control_change"}, {"time": 82558, "annotation": {"number": 11, "value": 82}, "group": "control_change"}, {"time": 82588, "annotation": {"number": 11, "value": 81}, "group": "control_change"}, {"time": 82618, "annotation": {"number": 11, "value": 79}, "group": "control_change"}, {"time": 82648, "annotation": {"number": 11, "value": 77}, "group": "control_change"}, {"time": 82678, "annotation": {"number": 11, "value": 75}, "group": "control_change"}, {"time": 82709, "annotation": {"number": 11, "value": 73}, "group": "control_change"}, {"time": 82739, "annotation": {"number": 11, "value": 70}, "group": "control_change"}, {"time": 82769, "annotation": {"number": 11, "value": 68}, "group": "control_change"}, {"time": 82799, "annotation": {"number": 11, "value": 64}, "group": "control_change"}, {"time": 82829, "annotation": {"number": 11, "value": 61}, "group": "control_change"}, {"time": 82859, "annotation": {"number": 11, "value": 58}, "group": "control_change"}, {"time": 82889, "annotation": {"number": 11, "value": 54}, "group": "control_change"}, {"time": 82919, "annotation": {"number": 11, "value": 50}, "group": "control_change"}, {"time": 82949, "annotation": {"number": 11, "value": 45}, "group": "control_change"}, {"time": 82979, "annotation": {"number": 11, "value": 40}, "group": "control_change"}, {"time": 83009, "annotation": {"number": 11, "value": 35}, "group": "control_change"}, {"time": 83040, "annotation": {"number": 11, "value": 28}, "group": "control_change"}, {"time": 113758, "annotation": {"number": 11, "value": 66}, "group": "control_change"}, {"time": 113788, "annotation": {"number": 11, "value": 70}, "group": "control_change"}, {"time": 113818, "annotation": {"number": 11, "value": 73}, "group": "control_change"}, {"time": 113848, "annotation": {"number": 11, "value": 76}, "group": "control_change"}, {"time": 113879, "annotation": {"number": 11, "value": 79}, "group": "control_change"}, {"time": 113909, "annotation": {"number": 11, "value": 80}, "group": "control_change"}, {"time": 113939, "annotation": {"number": 11, "value": 82}, "group": "control_change"}, {"time": 113969, "annotation": {"number": 11, "value": 84}, "group": "control_change"}, {"time": 113999, "annotation": {"number": 11, "value": 86}, "group": "control_change"}, {"time": 114029, "annotation": {"number": 11, "value": 87}, "group": "control_change"}, {"time": 114059, "annotation": {"number": 11, "value": 89}, "group": "control_change"}, {"time": 114089, "annotation": {"number": 11, "value": 90}, "group": "control_change"}, {"time": 114119, "annotation": {"number": 11, "value": 91}, "group": "control_change"}, {"time": 114149, "annotation": {"number": 11, "value": 92}, "group": "control_change"}, {"time": 114180, "annotation": {"number": 11, "value": 93}, "group": "control_change"}, {"time": 114240, "annotation": {"number": 11, "value": 94}, "group": "control_change"}, {"time": 114270, "annotation": {"number": 11, "value": 95}, "group": "control_change"}, {"time": 114330, "annotation": {"number": 11, "value": 96}, "group": "control_change"}, {"time": 114390, "annotation": {"number": 11, "value": 97}, "group": "control_change"}, {"time": 114480, "annotation": {"number": 11, "value": 98}, "group": "control_change"}, {"time": 114571, "annotation": {"number": 11, "value": 99}, "group": "control_change"}, {"time": 114781, "annotation": {"number": 11, "value": 100}, "group": "control_change"}, {"time": 119522, "annotation": {"number": 11, "value": 100}, "group": "control_change"}, {"time": 119878, "annotation": {"number": 11, "value": 99}, "group": "control_change"}, {"time": 119997, "annotation": {"number": 11, "value": 98}, "group": "control_change"}, {"time": 120087, "annotation": {"number": 11, "value": 97}, "group": "control_change"}, {"time": 120147, "annotation": {"number": 11, "value": 96}, "group": "control_change"}, {"time": 120177, "annotation": {"number": 11, "value": 95}, "group": "control_change"}, {"time": 120207, "annotation": {"number": 11, "value": 94}, "group": "control_change"}, {"time": 120237, "annotation": {"number": 11, "value": 93}, "group": "control_change"}, {"time": 120268, "annotation": {"number": 11, "value": 92}, "group": "control_change"}, {"time": 120298, "annotation": {"number": 11, "value": 91}, "group": "control_change"}, {"time": 120328, "annotation": {"number": 11, "value": 89}, "group": "control_change"}, {"time": 120358, "annotation": {"number": 11, "value": 87}, "group": "control_change"}, {"time": 120388, "annotation": {"number": 11, "value": 85}, "group": "control_change"}, {"time": 120418, "annotation": {"number": 11, "value": 83}, "group": "control_change"}, {"time": 120448, "annotation": {"number": 11, "value": 80}, "group": "control_change"}, {"time": 120478, "annotation": {"number": 11, "value": 76}, "group": "control_change"}, {"time": 120508, "annotation": {"number": 11, "value": 72}, "group": "control_change"}, {"time": 120538, "annotation": {"number": 11, "value": 67}, "group": "control_change"}, {"time": 120569, "annotation": {"number": 11, "value": 62}, "group": "control_change"}, {"time": 120599, "annotation": {"number": 11, "value": 56}, "group": "control_change"}, {"time": 120629, "annotation": {"number": 11, "value": 50}, "group": "control_change"}, {"time": 125279, "annotation": {"number": 11, "value": 100}, "group": "control_change"}, {"time": 125761, "annotation": {"number": 11, "value": 68}, "group": "control_change"}, {"time": 125791, "annotation": {"number": 11, "value": 72}, "group": "control_change"}, {"time": 125821, "annotation": {"number": 11, "value": 75}, "group": "control_change"}, {"time": 125851, "annotation": {"number": 11, "value": 78}, "group": "control_change"}, {"time": 125881, "annotation": {"number": 11, "value": 81}, "group": "control_change"}, {"time": 125911, "annotation": {"number": 11, "value": 83}, "group": "control_change"}, {"time": 125942, "annotation": {"number": 11, "value": 84}, "group": "control_change"}, {"time": 125972, "annotation": {"number": 11, "value": 86}, "group": "control_change"}, {"time": 126002, "annotation": {"number": 11, "value": 88}, "group": "control_change"}, {"time": 126032, "annotation": {"number": 11, "value": 89}, "group": "control_change"}, {"time": 126062, "annotation": {"number": 11, "value": 91}, "group": "control_change"}, {"time": 126092, "annotation": {"number": 11, "value": 92}, "group": "control_change"}, {"time": 126152, "annotation": {"number": 11, "value": 93}, "group": "control_change"}, {"time": 126182, "annotation": {"number": 11, "value": 94}, "group": "control_change"}, {"time": 126212, "annotation": {"number": 11, "value": 95}, "group": "control_change"}, {"time": 126243, "annotation": {"number": 11, "value": 96}, "group": "control_change"}, {"time": 126331, "annotation": {"number": 11, "value": 97}, "group": "control_change"}, {"time": 126391, "annotation": {"number": 11, "value": 98}, "group": "control_change"}, {"time": 126509, "annotation": {"number": 11, "value": 99}, "group": "control_change"}, {"time": 126687, "annotation": {"number": 11, "value": 100}, "group": "control_change"}, {"time": 128162, "annotation": {"number": 11, "value": 100}, "group": "control_change"}, {"time": 128583, "annotation": {"number": 11, "value": 99}, "group": "control_change"}, {"time": 128702, "annotation": {"number": 11, "value": 98}, "group": "control_change"}, {"time": 128762, "annotation": {"number": 11, "value": 97}, "group": "control_change"}, {"time": 128821, "annotation": {"number": 11, "value": 96}, "group": "control_change"}, {"time": 128880, "annotation": {"number": 11, "value": 94}, "group": "control_change"}, {"time": 128910, "annotation": {"number": 11, "value": 93}, "group": "control_change"}, {"time": 128940, "annotation": {"number": 11, "value": 92}, "group": "control_change"}, {"time": 128969, "annotation": {"number": 11, "value": 90}, "group": "control_change"}, {"time": 128999, "annotation": {"number": 11, "value": 88}, "group": "control_change"}, {"time": 129028, "annotation": {"number": 11, "value": 86}, "group": "control_change"}, {"time": 129058, "annotation": {"number": 11, "value": 84}, "group": "control_change"}, {"time": 129088, "annotation": {"number": 11, "value": 80}, "group": "control_change"}, {"time": 129117, "annotation": {"number": 11, "value": 76}, "group": "control_change"}, {"time": 129117, "annotation": {"number": 11, "value": 100}, "group": "control_change"}, {"time": 129509, "annotation": {"number": 11, "value": 99}, "group": "control_change"}, {"time": 129689, "annotation": {"number": 11, "value": 98}, "group": "control_change"}, {"time": 129780, "annotation": {"number": 11, "value": 97}, "group": "control_change"}, {"time": 129870, "annotation": {"number": 11, "value": 96}, "group": "control_change"}, {"time": 129930, "annotation": {"number": 11, "value": 95}, "group": "control_change"}, {"time": 129990, "annotation": {"number": 11, "value": 94}, "group": "control_change"}, {"time": 130020, "annotation": {"number": 11, "value": 93}, "group": "control_change"}, {"time": 130050, "annotation": {"number": 11, "value": 92}, "group": "control_change"}, {"time": 130081, "annotation": {"number": 11, "value": 91}, "group": "control_change"}, {"time": 130111, "annotation": {"number": 11, "value": 90}, "group": "control_change"}, {"time": 130141, "annotation": {"number": 11, "value": 89}, "group": "control_change"}, {"time": 130171, "annotation": {"number": 11, "value": 88}, "group": "control_change"}, {"time": 130201, "annotation": {"number": 11, "value": 86}, "group": "control_change"}, {"time": 130231, "annotation": {"number": 11, "value": 85}, "group": "control_change"}, {"time": 130261, "annotation": {"number": 11, "value": 82}, "group": "control_change"}, {"time": 130291, "annotation": {"number": 11, "value": 81}, "group": "control_change"}, {"time": 130321, "annotation": {"number": 11, "value": 78}, "group": "control_change"}, {"time": 130351, "annotation": {"number": 11, "value": 76}, "group": "control_change"}, {"time": 130382, "annotation": {"number": 11, "value": 73}, "group": "control_change"}, {"time": 130412, "annotation": {"number": 11, "value": 70}, "group": "control_change"}, {"time": 130442, "annotation": {"number": 11, "value": 66}, "group": "control_change"}, {"time": 130472, "annotation": {"number": 11, "value": 62}, "group": "control_change"}, {"time": 130502, "annotation": {"number": 11, "value": 58}, "group": "control_change"}, {"time": 130532, "annotation": {"number": 11, "value": 53}, "group": "control_change"}, {"time": 130562, "annotation": {"number": 11, "value": 47}, "group": "control_change"}, {"time": 130592, "annotation": {"number": 11, "value": 41}, "group": "control_change"}, {"time": 130621, "annotation": {"number": 11, "value": 35}, "group": "control_change"}, {"time": 130651, "annotation": {"number": 11, "value": 28}, "group": "control_change"}, {"time": 131518, "annotation": {"number": 11, "value": 76}, "group": "control_change"}, {"time": 131548, "annotation": {"number": 11, "value": 81}, "group": "control_change"}, {"time": 131578, "annotation": {"number": 11, "value": 85}, "group": "control_change"}, {"time": 131608, "annotation": {"number": 11, "value": 88}, "group": "control_change"}, {"time": 131638, "annotation": {"number": 11, "value": 90}, "group": "control_change"}, {"time": 131668, "annotation": {"number": 11, "value": 92}, "group": "control_change"}, {"time": 131699, "annotation": {"number": 11, "value": 94}, "group": "control_change"}, {"time": 131729, "annotation": {"number": 11, "value": 95}, "group": "control_change"}, {"time": 131759, "annotation": {"number": 11, "value": 96}, "group": "control_change"}, {"time": 131789, "annotation": {"number": 11, "value": 97}, "group": "control_change"}, {"time": 131849, "annotation": {"number": 11, "value": 98}, "group": "control_change"}, {"time": 131879, "annotation": {"number": 11, "value": 99}, "group": "control_change"}, {"time": 132000, "annotation": {"number": 11, "value": 100}, "group": "control_change"}, {"time": 132963, "annotation": {"number": 11, "value": 100}, "group": "control_change"}, {"time": 133467, "annotation": {"number": 11, "value": 99}, "group": "control_change"}, {"time": 133648, "annotation": {"number": 11, "value": 98}, "group": "control_change"}, {"time": 133768, "annotation": {"number": 11, "value": 97}, "group": "control_change"}, {"time": 133828, "annotation": {"number": 11, "value": 96}, "group": "control_change"}, {"time": 133858, "annotation": {"number": 11, "value": 95}, "group": "control_change"}, {"time": 133919, "annotation": {"number": 11, "value": 94}, "group": "control_change"}, {"time": 133949, "annotation": {"number": 11, "value": 93}, "group": "control_change"}, {"time": 134009, "annotation": {"number": 11, "value": 92}, "group": "control_change"}, {"time": 134039, "annotation": {"number": 11, "value": 90}, "group": "control_change"}, {"time": 134069, "annotation": {"number": 11, "value": 89}, "group": "control_change"}, {"time": 134099, "annotation": {"number": 11, "value": 88}, "group": "control_change"}, {"time": 134129, "annotation": {"number": 11, "value": 86}, "group": "control_change"}, {"time": 134159, "annotation": {"number": 11, "value": 85}, "group": "control_change"}, {"time": 134189, "annotation": {"number": 11, "value": 83}, "group": "control_change"}, {"time": 134220, "annotation": {"number": 11, "value": 80}, "group": "control_change"}, {"time": 134250, "annotation": {"number": 11, "value": 78}, "group": "control_change"}, {"time": 134280, "annotation": {"number": 11, "value": 76}, "group": "control_change"}, {"time": 134310, "annotation": {"number": 11, "value": 72}, "group": "control_change"}, {"time": 134340, "annotation": {"number": 11, "value": 69}, "group": "control_change"}, {"time": 134370, "annotation": {"number": 11, "value": 65}, "group": "control_change"}, {"time": 134400, "annotation": {"number": 11, "value": 60}, "group": "control_change"}, {"time": 135363, "annotation": {"number": 11, "value": 76}, "group": "control_change"}, {"time": 135393, "annotation": {"number": 11, "value": 80}, "group": "control_change"}, {"time": 135423, "annotation": {"number": 11, "value": 84}, "group": "control_change"}, {"time": 135452, "annotation": {"number": 11, "value": 86}, "group": "control_change"}, {"time": 135482, "annotation": {"number": 11, "value": 88}, "group": "control_change"}, {"time": 135511, "annotation": {"number": 11, "value": 90}, "group": "control_change"}, {"time": 135541, "annotation": {"number": 11, "value": 92}, "group": "control_change"}, {"time": 135571, "annotation": {"number": 11, "value": 93}, "group": "control_change"}, {"time": 135600, "annotation": {"number": 11, "value": 94}, "group": "control_change"}, {"time": 135630, "annotation": {"number": 11, "value": 96}, "group": "control_change"}, {"time": 135689, "annotation": {"number": 11, "value": 97}, "group": "control_change"}, {"time": 135749, "annotation": {"number": 11, "value": 98}, "group": "control_change"}, {"time": 135808, "annotation": {"number": 11, "value": 99}, "group": "control_change"}, {"time": 135928, "annotation": {"number": 11, "value": 100}, "group": "control_change"}, {"time": 136801, "annotation": {"number": 11, "value": 100}, "group": "control_change"}, {"time": 137252, "annotation": {"number": 11, "value": 99}, "group": "control_change"}, {"time": 137430, "annotation": {"number": 11, "value": 98}, "group": "control_change"}, {"time": 137519, "annotation": {"number": 11, "value": 97}, "group": "control_change"}, {"time": 137579, "annotation": {"number": 11, "value": 96}, "group": "control_change"}, {"time": 137638, "annotation": {"number": 11, "value": 95}, "group": "control_change"}, {"time": 137697, "annotation": {"number": 11, "value": 94}, "group": "control_change"}, {"time": 137727, "annotation": {"number": 11, "value": 93}, "group": "control_change"}, {"time": 137757, "annotation": {"number": 11, "value": 92}, "group": "control_change"}, {"time": 137787, "annotation": {"number": 11, "value": 91}, "group": "control_change"}, {"time": 137817, "annotation": {"number": 11, "value": 90}, "group": "control_change"}, {"time": 137847, "annotation": {"number": 11, "value": 89}, "group": "control_change"}, {"time": 137877, "annotation": {"number": 11, "value": 88}, "group": "control_change"}, {"time": 137907, "annotation": {"number": 11, "value": 86}, "group": "control_change"}, {"time": 137937, "annotation": {"number": 11, "value": 84}, "group": "control_change"}, {"time": 137967, "annotation": {"number": 11, "value": 82}, "group": "control_change"}, {"time": 137997, "annotation": {"number": 11, "value": 80}, "group": "control_change"}, {"time": 138027, "annotation": {"number": 11, "value": 78}, "group": "control_change"}, {"time": 138057, "annotation": {"number": 11, "value": 75}, "group": "control_change"}, {"time": 138088, "annotation": {"number": 11, "value": 71}, "group": "control_change"}, {"time": 138118, "annotation": {"number": 11, "value": 68}, "group": "control_change"}, {"time": 138148, "annotation": {"number": 11, "value": 64}, "group": "control_change"}, {"time": 138178, "annotation": {"number": 11, "value": 60}, "group": "control_change"}, {"time": 138208, "annotation": {"number": 11, "value": 55}, "group": "control_change"}, {"time": 138238, "annotation": {"number": 11, "value": 49}, "group": "control_change"}, {"time": 138268, "annotation": {"number": 11, "value": 44}, "group": "control_change"}, {"time": 138720, "annotation": {"number": 11, "value": 76}, "group": "control_change"}, {"time": 138750, "annotation": {"number": 11, "value": 80}, "group": "control_change"}, {"time": 138780, "annotation": {"number": 11, "value": 84}, "group": "control_change"}, {"time": 138810, "annotation": {"number": 11, "value": 86}, "group": "control_change"}, {"time": 138840, "annotation": {"number": 11, "value": 88}, "group": "control_change"}, {"time": 138870, "annotation": {"number": 11, "value": 90}, "group": "control_change"}, {"time": 138900, "annotation": {"number": 11, "value": 92}, "group": "control_change"}, {"time": 138930, "annotation": {"number": 11, "value": 93}, "group": "control_change"}, {"time": 138960, "annotation": {"number": 11, "value": 94}, "group": "control_change"}, {"time": 138991, "annotation": {"number": 11, "value": 96}, "group": "control_change"}, {"time": 139051, "annotation": {"number": 11, "value": 97}, "group": "control_change"}, {"time": 139111, "annotation": {"number": 11, "value": 98}, "group": "control_change"}, {"time": 139171, "annotation": {"number": 11, "value": 99}, "group": "control_change"}, {"time": 139292, "annotation": {"number": 11, "value": 100}, "group": "control_change"}, {"time": 143280, "annotation": {"number": 11, "value": 100}, "group": "control_change"}, {"time": 143732, "annotation": {"number": 11, "value": 99}, "group": "control_change"}, {"time": 143882, "annotation": {"number": 11, "value": 98}, "group": "control_change"}, {"time": 143972, "annotation": {"number": 11, "value": 97}, "group": "control_change"}, {"time": 144032, "annotation": {"number": 11, "value": 96}, "group": "control_change"}, {"time": 144091, "annotation": {"number": 11, "value": 95}, "group": "control_change"}, {"time": 144121, "annotation": {"number": 11, "value": 94}, "group": "control_change"}, {"time": 144180, "annotation": {"number": 11, "value": 92}, "group": "control_change"}, {"time": 144210, "annotation": {"number": 11, "value": 91}, "group": "control_change"}, {"time": 144240, "annotation": {"number": 11, "value": 90}, "group": "control_change"}, {"time": 144269, "annotation": {"number": 11, "value": 88}, "group": "control_change"}, {"time": 144299, "annotation": {"number": 11, "value": 87}, "group": "control_change"}, {"time": 144328, "annotation": {"number": 11, "value": 84}, "group": "control_change"}, {"time": 144358, "annotation": {"number": 11, "value": 82}, "group": "control_change"}, {"time": 144388, "annotation": {"number": 11, "value": 80}, "group": "control_change"}, {"time": 144417, "annotation": {"number": 11, "value": 76}, "group": "control_change"}, {"time": 144447, "annotation": {"number": 11, "value": 73}, "group": "control_change"}, {"time": 144477, "annotation": {"number": 11, "value": 68}, "group": "control_change"}, {"time": 144477, "annotation": {"number": 11, "value": 84}, "group": "control_change"}, {"time": 144507, "annotation": {"number": 11, "value": 88}, "group": "control_change"}, {"time": 144537, "annotation": {"number": 11, "value": 91}, "group": "control_change"}, {"time": 144567, "annotation": {"number": 11, "value": 92}, "group": "control_change"}, {"time": 144597, "annotation": {"number": 11, "value": 94}, "group": "control_change"}, {"time": 144627, "annotation": {"number": 11, "value": 96}, "group": "control_change"}, {"time": 144687, "annotation": {"number": 11, "value": 97}, "group": "control_change"}, {"time": 144717, "annotation": {"number": 11, "value": 98}, "group": "control_change"}, {"time": 144778, "annotation": {"number": 11, "value": 99}, "group": "control_change"}, {"time": 144868, "annotation": {"number": 11, "value": 100}, "group": "control_change"}, {"time": 145681, "annotation": {"number": 11, "value": 100}, "group": "control_change"}, {"time": 145951, "annotation": {"number": 11, "value": 99}, "group": "control_change"}, {"time": 146042, "annotation": {"number": 11, "value": 98}, "group": "control_change"}, {"time": 146102, "annotation": {"number": 11, "value": 97}, "group": "control_change"}, {"time": 146132, "annotation": {"number": 11, "value": 95}, "group": "control_change"}, {"time": 146162, "annotation": {"number": 11, "value": 94}, "group": "control_change"}, {"time": 146192, "annotation": {"number": 11, "value": 93}, "group": "control_change"}, {"time": 146222, "annotation": {"number": 11, "value": 90}, "group": "control_change"}, {"time": 146252, "annotation": {"number": 11, "value": 88}, "group": "control_change"}, {"time": 146283, "annotation": {"number": 11, "value": 85}, "group": "control_change"}, {"time": 146313, "annotation": {"number": 11, "value": 80}, "group": "control_change"}, {"time": 146343, "annotation": {"number": 11, "value": 76}, "group": "control_change"}, {"time": 146373, "annotation": {"number": 11, "value": 69}, "group": "control_change"}, {"time": 146403, "annotation": {"number": 11, "value": 60}, "group": "control_change"}, {"time": 146877, "annotation": {"number": 11, "value": 76}, "group": "control_change"}, {"time": 146907, "annotation": {"number": 11, "value": 81}, "group": "control_change"}, {"time": 146937, "annotation": {"number": 11, "value": 85}, "group": "control_change"}, {"time": 146967, "annotation": {"number": 11, "value": 88}, "group": "control_change"}, {"time": 146998, "annotation": {"number": 11, "value": 90}, "group": "control_change"}, {"time": 147028, "annotation": {"number": 11, "value": 92}, "group": "control_change"}, {"time": 147058, "annotation": {"number": 11, "value": 94}, "group": "control_change"}, {"time": 147088, "annotation": {"number": 11, "value": 95}, "group": "control_change"}, {"time": 147118, "annotation": {"number": 11, "value": 96}, "group": "control_change"}, {"time": 147148, "annotation": {"number": 11, "value": 97}, "group": "control_change"}, {"time": 147208, "annotation": {"number": 11, "value": 98}, "group": "control_change"}, {"time": 147238, "annotation": {"number": 11, "value": 99}, "group": "control_change"}, {"time": 147359, "annotation": {"number": 11, "value": 100}, "group": "control_change"}, {"time": 148322, "annotation": {"number": 11, "value": 100}, "group": "control_change"}, {"time": 148833, "annotation": {"number": 11, "value": 99}, "group": "control_change"}, {"time": 149011, "annotation": {"number": 11, "value": 98}, "group": "control_change"}, {"time": 149130, "annotation": {"number": 11, "value": 97}, "group": "control_change"}, {"time": 149189, "annotation": {"number": 11, "value": 96}, "group": "control_change"}, {"time": 149219, "annotation": {"number": 11, "value": 95}, "group": "control_change"}, {"time": 149278, "annotation": {"number": 11, "value": 94}, "group": "control_change"}, {"time": 149308, "annotation": {"number": 11, "value": 93}, "group": "control_change"}, {"time": 149368, "annotation": {"number": 11, "value": 92}, "group": "control_change"}, {"time": 149398, "annotation": {"number": 11, "value": 90}, "group": "control_change"}, {"time": 149428, "annotation": {"number": 11, "value": 89}, "group": "control_change"}, {"time": 149458, "annotation": {"number": 11, "value": 88}, "group": "control_change"}, {"time": 149488, "annotation": {"number": 11, "value": 86}, "group": "control_change"}, {"time": 149519, "annotation": {"number": 11, "value": 85}, "group": "control_change"}, {"time": 149549, "annotation": {"number": 11, "value": 83}, "group": "control_change"}, {"time": 149579, "annotation": {"number": 11, "value": 80}, "group": "control_change"}, {"time": 149609, "annotation": {"number": 11, "value": 78}, "group": "control_change"}, {"time": 149639, "annotation": {"number": 11, "value": 76}, "group": "control_change"}, {"time": 149669, "annotation": {"number": 11, "value": 72}, "group": "control_change"}, {"time": 149699, "annotation": {"number": 11, "value": 69}, "group": "control_change"}, {"time": 149729, "annotation": {"number": 11, "value": 65}, "group": "control_change"}, {"time": 149759, "annotation": {"number": 11, "value": 60}, "group": "control_change"}, {"time": 150723, "annotation": {"number": 11, "value": 76}, "group": "control_change"}, {"time": 150752, "annotation": {"number": 11, "value": 80}, "group": "control_change"}, {"time": 150782, "annotation": {"number": 11, "value": 84}, "group": "control_change"}, {"time": 150811, "annotation": {"number": 11, "value": 86}, "group": "control_change"}, {"time": 150841, "annotation": {"number": 11, "value": 88}, "group": "control_change"}, {"time": 150871, "annotation": {"number": 11, "value": 90}, "group": "control_change"}, {"time": 150900, "annotation": {"number": 11, "value": 92}, "group": "control_change"}, {"time": 150930, "annotation": {"number": 11, "value": 93}, "group": "control_change"}, {"time": 150960, "annotation": {"number": 11, "value": 94}, "group": "control_change"}, {"time": 150989, "annotation": {"number": 11, "value": 96}, "group": "control_change"}, {"time": 151049, "annotation": {"number": 11, "value": 97}, "group": "control_change"}, {"time": 151108, "annotation": {"number": 11, "value": 98}, "group": "control_change"}, {"time": 151167, "annotation": {"number": 11, "value": 99}, "group": "control_change"}, {"time": 151287, "annotation": {"number": 11, "value": 100}, "group": "control_change"}, {"time": 152160, "annotation": {"number": 11, "value": 100}, "group": "control_change"}, {"time": 152611, "annotation": {"number": 11, "value": 99}, "group": "control_change"}, {"time": 152792, "annotation": {"number": 11, "value": 98}, "group": "control_change"}, {"time": 152882, "annotation": {"number": 11, "value": 97}, "group": "control_change"}, {"time": 152943, "annotation": {"number": 11, "value": 96}, "group": "control_change"}, {"time": 153003, "annotation": {"number": 11, "value": 95}, "group": "control_change"}, {"time": 153063, "annotation": {"number": 11, "value": 94}, "group": "control_change"}, {"time": 153093, "annotation": {"number": 11, "value": 93}, "group": "control_change"}, {"time": 153123, "annotation": {"number": 11, "value": 92}, "group": "control_change"}, {"time": 153153, "annotation": {"number": 11, "value": 91}, "group": "control_change"}, {"time": 153182, "annotation": {"number": 11, "value": 90}, "group": "control_change"}, {"time": 153212, "annotation": {"number": 11, "value": 89}, "group": "control_change"}, {"time": 153242, "annotation": {"number": 11, "value": 88}, "group": "control_change"}, {"time": 153271, "annotation": {"number": 11, "value": 86}, "group": "control_change"}, {"time": 153301, "annotation": {"number": 11, "value": 84}, "group": "control_change"}, {"time": 153331, "annotation": {"number": 11, "value": 82}, "group": "control_change"}, {"time": 153360, "annotation": {"number": 11, "value": 80}, "group": "control_change"}, {"time": 153390, "annotation": {"number": 11, "value": 78}, "group": "control_change"}, {"time": 153420, "annotation": {"number": 11, "value": 75}, "group": "control_change"}, {"time": 153449, "annotation": {"number": 11, "value": 71}, "group": "control_change"}, {"time": 153479, "annotation": {"number": 11, "value": 68}, "group": "control_change"}, {"time": 153508, "annotation": {"number": 11, "value": 64}, "group": "control_change"}, {"time": 153538, "annotation": {"number": 11, "value": 60}, "group": "control_change"}, {"time": 153568, "annotation": {"number": 11, "value": 55}, "group": "control_change"}, {"time": 153597, "annotation": {"number": 11, "value": 49}, "group": "control_change"}, {"time": 153627, "annotation": {"number": 11, "value": 44}, "group": "control_change"}, {"time": 154079, "annotation": {"number": 11, "value": 76}, "group": "control_change"}, {"time": 154109, "annotation": {"number": 11, "value": 80}, "group": "control_change"}, {"time": 154139, "annotation": {"number": 11, "value": 84}, "group": "control_change"}, {"time": 154169, "annotation": {"number": 11, "value": 86}, "group": "control_change"}, {"time": 154199, "annotation": {"number": 11, "value": 88}, "group": "control_change"}, {"time": 154229, "annotation": {"number": 11, "value": 90}, "group": "control_change"}, {"time": 154260, "annotation": {"number": 11, "value": 92}, "group": "control_change"}, {"time": 154290, "annotation": {"number": 11, "value": 93}, "group": "control_change"}, {"time": 154320, "annotation": {"number": 11, "value": 94}, "group": "control_change"}, {"time": 154350, "annotation": {"number": 11, "value": 96}, "group": "control_change"}, {"time": 154410, "annotation": {"number": 11, "value": 97}, "group": "control_change"}, {"time": 154470, "annotation": {"number": 11, "value": 98}, "group": "control_change"}, {"time": 154530, "annotation": {"number": 11, "value": 99}, "group": "control_change"}, {"time": 154651, "annotation": {"number": 11, "value": 100}, "group": "control_change"}, {"time": 159843, "annotation": {"number": 11, "value": 100}, "group": "control_change"}, {"time": 160238, "annotation": {"number": 11, "value": 99}, "group": "control_change"}, {"time": 160398, "annotation": {"number": 11, "value": 98}, "group": "control_change"}, {"time": 160478, "annotation": {"number": 11, "value": 97}, "group": "control_change"}, {"time": 160598, "annotation": {"number": 11, "value": 96}, "group": "control_change"}, {"time": 160639, "annotation": {"number": 11, "value": 95}, "group": "control_change"}, {"time": 160679, "annotation": {"number": 11, "value": 94}, "group": "control_change"}, {"time": 160719, "annotation": {"number": 11, "value": 93}, "group": "control_change"}, {"time": 160759, "annotation": {"number": 11, "value": 91}, "group": "control_change"}, {"time": 160799, "annotation": {"number": 11, "value": 90}, "group": "control_change"}, {"time": 160839, "annotation": {"number": 11, "value": 88}, "group": "control_change"}, {"time": 160879, "annotation": {"number": 11, "value": 86}, "group": "control_change"}, {"time": 160919, "annotation": {"number": 11, "value": 84}, "group": "control_change"}, {"time": 160960, "annotation": {"number": 11, "value": 81}, "group": "control_change"}, {"time": 161000, "annotation": {"number": 11, "value": 78}, "group": "control_change"}, {"time": 161040, "annotation": {"number": 11, "value": 75}, "group": "control_change"}, {"time": 161080, "annotation": {"number": 11, "value": 71}, "group": "control_change"}, {"time": 161120, "annotation": {"number": 11, "value": 66}, "group": "control_change"}, {"time": 161160, "annotation": {"number": 11, "value": 61}, "group": "control_change"}, {"time": 161200, "annotation": {"number": 11, "value": 54}, "group": "control_change"}, {"time": 161241, "annotation": {"number": 11, "value": 46}, "group": "control_change"}, {"time": 161281, "annotation": {"number": 11, "value": 37}, "group": "control_change"}, {"time": 161321, "annotation": {"number": 11, "value": 28}, "group": "control_change"}, {"time": 162237, "annotation": {"number": 11, "value": 76}, "group": "control_change"}, {"time": 162267, "annotation": {"number": 11, "value": 80}, "group": "control_change"}, {"time": 162297, "annotation": {"number": 11, "value": 84}, "group": "control_change"}, {"time": 162327, "annotation": {"number": 11, "value": 86}, "group": "control_change"}, {"time": 162357, "annotation": {"number": 11, "value": 88}, "group": "control_change"}, {"time": 162387, "annotation": {"number": 11, "value": 90}, "group": "control_change"}, {"time": 162417, "annotation": {"number": 11, "value": 92}, "group": "control_change"}, {"time": 162447, "annotation": {"number": 11, "value": 93}, "group": "control_change"}, {"time": 162477, "annotation": {"number": 11, "value": 94}, "group": "control_change"}, {"time": 162507, "annotation": {"number": 11, "value": 96}, "group": "control_change"}, {"time": 162568, "annotation": {"number": 11, "value": 97}, "group": "control_change"}, {"time": 162628, "annotation": {"number": 11, "value": 98}, "group": "control_change"}, {"time": 162688, "annotation": {"number": 11, "value": 99}, "group": "control_change"}, {"time": 162808, "annotation": {"number": 11, "value": 100}, "group": "control_change"}, {"time": 163681, "annotation": {"number": 11, "value": 100}, "group": "control_change"}, {"time": 164788, "annotation": {"number": 11, "value": 99}, "group": "control_change"}, {"time": 164938, "annotation": {"number": 11, "value": 98}, "group": "control_change"}, {"time": 165028, "annotation": {"number": 11, "value": 97}, "group": "control_change"}, {"time": 165089, "annotation": {"number": 11, "value": 96}, "group": "control_change"}, {"time": 165119, "annotation": {"number": 11, "value": 95}, "group": "control_change"}, {"time": 165179, "annotation": {"number": 11, "value": 94}, "group": "control_change"}, {"time": 165209, "annotation": {"number": 11, "value": 93}, "group": "control_change"}, {"time": 165239, "annotation": {"number": 11, "value": 92}, "group": "control_change"}, {"time": 165269, "annotation": {"number": 11, "value": 91}, "group": "control_change"}, {"time": 165299, "annotation": {"number": 11, "value": 90}, "group": "control_change"}, {"time": 165329, "annotation": {"number": 11, "value": 88}, "group": "control_change"}, {"time": 165359, "annotation": {"number": 11, "value": 86}, "group": "control_change"}, {"time": 165390, "annotation": {"number": 11, "value": 84}, "group": "control_change"}, {"time": 165420, "annotation": {"number": 11, "value": 82}, "group": "control_change"}, {"time": 165450, "annotation": {"number": 11, "value": 80}, "group": "control_change"}, {"time": 165480, "annotation": {"number": 11, "value": 77}, "group": "control_change"}, {"time": 165510, "annotation": {"number": 11, "value": 73}, "group": "control_change"}, {"time": 165540, "annotation": {"number": 11, "value": 70}, "group": "control_change"}, {"time": 165570, "annotation": {"number": 11, "value": 65}, "group": "control_change"}, {"time": 165600, "annotation": {"number": 11, "value": 60}, "group": "control_change"}, {"time": 166082, "annotation": {"number": 11, "value": 76}, "group": "control_change"}, {"time": 166112, "annotation": {"number": 11, "value": 81}, "group": "control_change"}, {"time": 166142, "annotation": {"number": 11, "value": 85}, "group": "control_change"}, {"time": 166172, "annotation": {"number": 11, "value": 88}, "group": "control_change"}, {"time": 166202, "annotation": {"number": 11, "value": 90}, "group": "control_change"}, {"time": 166232, "annotation": {"number": 11, "value": 92}, "group": "control_change"}, {"time": 166262, "annotation": {"number": 11, "value": 94}, "group": "control_change"}, {"time": 166293, "annotation": {"number": 11, "value": 95}, "group": "control_change"}, {"time": 166323, "annotation": {"number": 11, "value": 96}, "group": "control_change"}, {"time": 166353, "annotation": {"number": 11, "value": 97}, "group": "control_change"}, {"time": 166413, "annotation": {"number": 11, "value": 98}, "group": "control_change"}, {"time": 166443, "annotation": {"number": 11, "value": 99}, "group": "control_change"}, {"time": 166563, "annotation": {"number": 11, "value": 100}, "group": "control_change"}, {"time": 167519, "annotation": {"number": 11, "value": 100}, "group": "control_change"}, {"time": 168031, "annotation": {"number": 11, "value": 99}, "group": "control_change"}, {"time": 168211, "annotation": {"number": 11, "value": 98}, "group": "control_change"}, {"time": 168332, "annotation": {"number": 11, "value": 97}, "group": "control_change"}, {"time": 168392, "annotation": {"number": 11, "value": 96}, "group": "control_change"}, {"time": 168422, "annotation": {"number": 11, "value": 95}, "group": "control_change"}, {"time": 168482, "annotation": {"number": 11, "value": 94}, "group": "control_change"}, {"time": 168512, "annotation": {"number": 11, "value": 93}, "group": "control_change"}, {"time": 168571, "annotation": {"number": 11, "value": 92}, "group": "control_change"}, {"time": 168601, "annotation": {"number": 11, "value": 90}, "group": "control_change"}, {"time": 168631, "annotation": {"number": 11, "value": 89}, "group": "control_change"}, {"time": 168660, "annotation": {"number": 11, "value": 88}, "group": "control_change"}, {"time": 168690, "annotation": {"number": 11, "value": 86}, "group": "control_change"}, {"time": 168719, "annotation": {"number": 11, "value": 85}, "group": "control_change"}, {"time": 168749, "annotation": {"number": 11, "value": 83}, "group": "control_change"}, {"time": 168779, "annotation": {"number": 11, "value": 80}, "group": "control_change"}, {"time": 168808, "annotation": {"number": 11, "value": 78}, "group": "control_change"}, {"time": 168838, "annotation": {"number": 11, "value": 76}, "group": "control_change"}, {"time": 168868, "annotation": {"number": 11, "value": 72}, "group": "control_change"}, {"time": 168897, "annotation": {"number": 11, "value": 69}, "group": "control_change"}, {"time": 168927, "annotation": {"number": 11, "value": 65}, "group": "control_change"}, {"time": 168957, "annotation": {"number": 11, "value": 60}, "group": "control_change"}, {"time": 169920, "annotation": {"number": 11, "value": 76}, "group": "control_change"}, {"time": 169950, "annotation": {"number": 11, "value": 80}, "group": "control_change"}, {"time": 169980, "annotation": {"number": 11, "value": 84}, "group": "control_change"}, {"time": 170010, "annotation": {"number": 11, "value": 86}, "group": "control_change"}, {"time": 170040, "annotation": {"number": 11, "value": 88}, "group": "control_change"}, {"time": 170070, "annotation": {"number": 11, "value": 90}, "group": "control_change"}, {"time": 170100, "annotation": {"number": 11, "value": 92}, "group": "control_change"}, {"time": 170130, "annotation": {"number": 11, "value": 93}, "group": "control_change"}, {"time": 170161, "annotation": {"number": 11, "value": 94}, "group": "control_change"}, {"time": 170191, "annotation": {"number": 11, "value": 96}, "group": "control_change"}, {"time": 170251, "annotation": {"number": 11, "value": 97}, "group": "control_change"}, {"time": 170311, "annotation": {"number": 11, "value": 98}, "group": "control_change"}, {"time": 170371, "annotation": {"number": 11, "value": 99}, "group": "control_change"}, {"time": 170492, "annotation": {"number": 11, "value": 100}, "group": "control_change"}, {"time": 171357, "annotation": {"number": 11, "value": 100}, "group": "control_change"}, {"time": 171809, "annotation": {"number": 11, "value": 99}, "group": "control_change"}, {"time": 171989, "annotation": {"number": 11, "value": 98}, "group": "control_change"}, {"time": 172080, "annotation": {"number": 11, "value": 97}, "group": "control_change"}, {"time": 172140, "annotation": {"number": 11, "value": 96}, "group": "control_change"}, {"time": 172200, "annotation": {"number": 11, "value": 95}, "group": "control_change"}, {"time": 172260, "annotation": {"number": 11, "value": 94}, "group": "control_change"}, {"time": 172290, "annotation": {"number": 11, "value": 93}, "group": "control_change"}, {"time": 172320, "annotation": {"number": 11, "value": 92}, "group": "control_change"}, {"time": 172350, "annotation": {"number": 11, "value": 91}, "group": "control_change"}, {"time": 172381, "annotation": {"number": 11, "value": 90}, "group": "control_change"}, {"time": 172411, "annotation": {"number": 11, "value": 89}, "group": "control_change"}, {"time": 172441, "annotation": {"number": 11, "value": 88}, "group": "control_change"}, {"time": 172471, "annotation": {"number": 11, "value": 86}, "group": "control_change"}, {"time": 172501, "annotation": {"number": 11, "value": 84}, "group": "control_change"}, {"time": 172531, "annotation": {"number": 11, "value": 82}, "group": "control_change"}, {"time": 172561, "annotation": {"number": 11, "value": 80}, "group": "control_change"}, {"time": 172591, "annotation": {"number": 11, "value": 78}, "group": "control_change"}, {"time": 172621, "annotation": {"number": 11, "value": 75}, "group": "control_change"}, {"time": 172651, "annotation": {"number": 11, "value": 71}, "group": "control_change"}, {"time": 172682, "annotation": {"number": 11, "value": 68}, "group": "control_change"}, {"time": 172712, "annotation": {"number": 11, "value": 64}, "group": "control_change"}, {"time": 172742, "annotation": {"number": 11, "value": 60}, "group": "control_change"}, {"time": 172772, "annotation": {"number": 11, "value": 55}, "group": "control_change"}, {"time": 172802, "annotation": {"number": 11, "value": 49}, "group": "control_change"}, {"time": 172832, "annotation": {"number": 11, "value": 44}, "group": "control_change"}, {"time": 173283, "annotation": {"number": 11, "value": 76}, "group": "control_change"}, {"time": 173313, "annotation": {"number": 11, "value": 80}, "group": "control_change"}, {"time": 173343, "annotation": {"number": 11, "value": 84}, "group": "control_change"}, {"time": 173372, "annotation": {"number": 11, "value": 86}, "group": "control_change"}, {"time": 173402, "annotation": {"number": 11, "value": 88}, "group": "control_change"}, {"time": 173432, "annotation": {"number": 11, "value": 90}, "group": "control_change"}, {"time": 173461, "annotation": {"number": 11, "value": 92}, "group": "control_change"}, {"time": 173491, "annotation": {"number": 11, "value": 93}, "group": "control_change"}, {"time": 173521, "annotation": {"number": 11, "value": 94}, "group": "control_change"}, {"time": 173550, "annotation": {"number": 11, "value": 96}, "group": "control_change"}, {"time": 173610, "annotation": {"number": 11, "value": 97}, "group": "control_change"}, {"time": 173669, "annotation": {"number": 11, "value": 98}, "group": "control_change"}, {"time": 173728, "annotation": {"number": 11, "value": 99}, "group": "control_change"}, {"time": 173848, "annotation": {"number": 11, "value": 100}, "group": "control_change"}, {"time": 177840, "annotation": {"number": 11, "value": 100}, "group": "control_change"}, {"time": 178288, "annotation": {"number": 11, "value": 99}, "group": "control_change"}, {"time": 178438, "annotation": {"number": 11, "value": 98}, "group": "control_change"}, {"time": 178529, "annotation": {"number": 11, "value": 97}, "group": "control_change"}, {"time": 178589, "annotation": {"number": 11, "value": 96}, "group": "control_change"}, {"time": 178649, "annotation": {"number": 11, "value": 95}, "group": "control_change"}, {"time": 178679, "annotation": {"number": 11, "value": 94}, "group": "control_change"}, {"time": 178739, "annotation": {"number": 11, "value": 92}, "group": "control_change"}, {"time": 178770, "annotation": {"number": 11, "value": 91}, "group": "control_change"}, {"time": 178800, "annotation": {"number": 11, "value": 90}, "group": "control_change"}, {"time": 178830, "annotation": {"number": 11, "value": 88}, "group": "control_change"}, {"time": 178860, "annotation": {"number": 11, "value": 87}, "group": "control_change"}, {"time": 178890, "annotation": {"number": 11, "value": 84}, "group": "control_change"}, {"time": 178920, "annotation": {"number": 11, "value": 82}, "group": "control_change"}, {"time": 178950, "annotation": {"number": 11, "value": 80}, "group": "control_change"}, {"time": 178980, "annotation": {"number": 11, "value": 76}, "group": "control_change"}, {"time": 179010, "annotation": {"number": 11, "value": 73}, "group": "control_change"}, {"time": 179040, "annotation": {"number": 11, "value": 68}, "group": "control_change"}, {"time": 179040, "annotation": {"number": 11, "value": 84}, "group": "control_change"}, {"time": 179071, "annotation": {"number": 11, "value": 88}, "group": "control_change"}, {"time": 179101, "annotation": {"number": 11, "value": 91}, "group": "control_change"}, {"time": 179131, "annotation": {"number": 11, "value": 92}, "group": "control_change"}, {"time": 179161, "annotation": {"number": 11, "value": 94}, "group": "control_change"}, {"time": 179191, "annotation": {"number": 11, "value": 96}, "group": "control_change"}, {"time": 179251, "annotation": {"number": 11, "value": 97}, "group": "control_change"}, {"time": 179281, "annotation": {"number": 11, "value": 98}, "group": "control_change"}, {"time": 179341, "annotation": {"number": 11, "value": 99}, "group": "control_change"}, {"time": 179432, "annotation": {"number": 11, "value": 100}, "group": "control_change"}, {"time": 180241, "annotation": {"number": 11, "value": 100}, "group": "control_change"}, {"time": 180508, "annotation": {"number": 11, "value": 99}, "group": "control_change"}, {"time": 180598, "annotation": {"number": 11, "value": 98}, "group": "control_change"}, {"time": 180658, "annotation": {"number": 11, "value": 97}, "group": "control_change"}, {"time": 180689, "annotation": {"number": 11, "value": 95}, "group": "control_change"}, {"time": 180719, "annotation": {"number": 11, "value": 94}, "group": "control_change"}, {"time": 180749, "annotation": {"number": 11, "value": 93}, "group": "control_change"}, {"time": 180779, "annotation": {"number": 11, "value": 90}, "group": "control_change"}, {"time": 180809, "annotation": {"number": 11, "value": 88}, "group": "control_change"}, {"time": 180839, "annotation": {"number": 11, "value": 85}, "group": "control_change"}, {"time": 180869, "annotation": {"number": 11, "value": 80}, "group": "control_change"}, {"time": 180899, "annotation": {"number": 11, "value": 76}, "group": "control_change"}, {"time": 180929, "annotation": {"number": 11, "value": 69}, "group": "control_change"}, {"time": 180959, "annotation": {"number": 11, "value": 60}, "group": "control_change"}, {"time": 181441, "annotation": {"number": 11, "value": 76}, "group": "control_change"}, {"time": 181471, "annotation": {"number": 11, "value": 81}, "group": "control_change"}, {"time": 181501, "annotation": {"number": 11, "value": 85}, "group": "control_change"}, {"time": 181531, "annotation": {"number": 11, "value": 88}, "group": "control_change"}, {"time": 181561, "annotation": {"number": 11, "value": 90}, "group": "control_change"}, {"time": 181592, "annotation": {"number": 11, "value": 92}, "group": "control_change"}, {"time": 181622, "annotation": {"number": 11, "value": 94}, "group": "control_change"}, {"time": 181652, "annotation": {"number": 11, "value": 95}, "group": "control_change"}, {"time": 181682, "annotation": {"number": 11, "value": 96}, "group": "control_change"}, {"time": 181712, "annotation": {"number": 11, "value": 97}, "group": "control_change"}, {"time": 181772, "annotation": {"number": 11, "value": 98}, "group": "control_change"}, {"time": 181802, "annotation": {"number": 11, "value": 99}, "group": "control_change"}, {"time": 181923, "annotation": {"number": 11, "value": 100}, "group": "control_change"}, {"time": 182878, "annotation": {"number": 11, "value": 100}, "group": "control_change"}, {"time": 183390, "annotation": {"number": 11, "value": 99}, "group": "control_change"}, {"time": 183571, "annotation": {"number": 11, "value": 98}, "group": "control_change"}, {"time": 183691, "annotation": {"number": 11, "value": 97}, "group": "control_change"}, {"time": 183751, "annotation": {"number": 11, "value": 96}, "group": "control_change"}, {"time": 183781, "annotation": {"number": 11, "value": 95}, "group": "control_change"}, {"time": 183842, "annotation": {"number": 11, "value": 94}, "group": "control_change"}, {"time": 183872, "annotation": {"number": 11, "value": 93}, "group": "control_change"}, {"time": 183932, "annotation": {"number": 11, "value": 92}, "group": "control_change"}, {"time": 183962, "annotation": {"number": 11, "value": 90}, "group": "control_change"}, {"time": 183992, "annotation": {"number": 11, "value": 89}, "group": "control_change"}, {"time": 184022, "annotation": {"number": 11, "value": 88}, "group": "control_change"}, {"time": 184052, "annotation": {"number": 11, "value": 86}, "group": "control_change"}, {"time": 184082, "annotation": {"number": 11, "value": 85}, "group": "control_change"}, {"time": 184113, "annotation": {"number": 11, "value": 83}, "group": "control_change"}, {"time": 184143, "annotation": {"number": 11, "value": 80}, "group": "control_change"}, {"time": 184173, "annotation": {"number": 11, "value": 78}, "group": "control_change"}, {"time": 184203, "annotation": {"number": 11, "value": 76}, "group": "control_change"}, {"time": 184233, "annotation": {"number": 11, "value": 72}, "group": "control_change"}, {"time": 184263, "annotation": {"number": 11, "value": 69}, "group": "control_change"}, {"time": 184293, "annotation": {"number": 11, "value": 65}, "group": "control_change"}, {"time": 184323, "annotation": {"number": 11, "value": 60}, "group": "control_change"}, {"time": 185279, "annotation": {"number": 11, "value": 76}, "group": "control_change"}, {"time": 185309, "annotation": {"number": 11, "value": 80}, "group": "control_change"}, {"time": 185339, "annotation": {"number": 11, "value": 84}, "group": "control_change"}, {"time": 185369, "annotation": {"number": 11, "value": 86}, "group": "control_change"}, {"time": 185399, "annotation": {"number": 11, "value": 88}, "group": "control_change"}, {"time": 185430, "annotation": {"number": 11, "value": 90}, "group": "control_change"}, {"time": 185460, "annotation": {"number": 11, "value": 92}, "group": "control_change"}, {"time": 185490, "annotation": {"number": 11, "value": 93}, "group": "control_change"}, {"time": 185520, "annotation": {"number": 11, "value": 94}, "group": "control_change"}, {"time": 185550, "annotation": {"number": 11, "value": 96}, "group": "control_change"}, {"time": 185610, "annotation": {"number": 11, "value": 97}, "group": "control_change"}, {"time": 185670, "annotation": {"number": 11, "value": 98}, "group": "control_change"}, {"time": 185731, "annotation": {"number": 11, "value": 99}, "group": "control_change"}, {"time": 185851, "annotation": {"number": 11, "value": 100}, "group": "control_change"}, {"time": 186716, "annotation": {"number": 11, "value": 100}, "group": "control_change"}, {"time": 187168, "annotation": {"number": 11, "value": 99}, "group": "control_change"}, {"time": 187349, "annotation": {"number": 11, "value": 98}, "group": "control_change"}, {"time": 187439, "annotation": {"number": 11, "value": 97}, "group": "control_change"}, {"time": 187499, "annotation": {"number": 11, "value": 96}, "group": "control_change"}, {"time": 187559, "annotation": {"number": 11, "value": 95}, "group": "control_change"}, {"time": 187619, "annotation": {"number": 11, "value": 94}, "group": "control_change"}, {"time": 187650, "annotation": {"number": 11, "value": 93}, "group": "control_change"}, {"time": 187680, "annotation": {"number": 11, "value": 92}, "group": "control_change"}, {"time": 187710, "annotation": {"number": 11, "value": 91}, "group": "control_change"}, {"time": 187740, "annotation": {"number": 11, "value": 90}, "group": "control_change"}, {"time": 187770, "annotation": {"number": 11, "value": 89}, "group": "control_change"}, {"time": 187800, "annotation": {"number": 11, "value": 88}, "group": "control_change"}, {"time": 187830, "annotation": {"number": 11, "value": 86}, "group": "control_change"}, {"time": 187860, "annotation": {"number": 11, "value": 84}, "group": "control_change"}, {"time": 187890, "annotation": {"number": 11, "value": 82}, "group": "control_change"}, {"time": 187920, "annotation": {"number": 11, "value": 80}, "group": "control_change"}, {"time": 187950, "annotation": {"number": 11, "value": 78}, "group": "control_change"}, {"time": 187981, "annotation": {"number": 11, "value": 75}, "group": "control_change"}, {"time": 188011, "annotation": {"number": 11, "value": 71}, "group": "control_change"}, {"time": 188041, "annotation": {"number": 11, "value": 68}, "group": "control_change"}, {"time": 188071, "annotation": {"number": 11, "value": 64}, "group": "control_change"}, {"time": 188101, "annotation": {"number": 11, "value": 60}, "group": "control_change"}, {"time": 188131, "annotation": {"number": 11, "value": 55}, "group": "control_change"}, {"time": 188161, "annotation": {"number": 11, "value": 49}, "group": "control_change"}, {"time": 188191, "annotation": {"number": 11, "value": 44}, "group": "control_change"}, {"time": 188643, "annotation": {"number": 11, "value": 76}, "group": "control_change"}, {"time": 188672, "annotation": {"number": 11, "value": 80}, "group": "control_change"}, {"time": 188702, "annotation": {"number": 11, "value": 84}, "group": "control_change"}, {"time": 188732, "annotation": {"number": 11, "value": 86}, "group": "control_change"}, {"time": 188761, "annotation": {"number": 11, "value": 88}, "group": "control_change"}, {"time": 188791, "annotation": {"number": 11, "value": 90}, "group": "control_change"}, {"time": 188821, "annotation": {"number": 11, "value": 92}, "group": "control_change"}, {"time": 188850, "annotation": {"number": 11, "value": 93}, "group": "control_change"}, {"time": 188880, "annotation": {"number": 11, "value": 94}, "group": "control_change"}, {"time": 188910, "annotation": {"number": 11, "value": 96}, "group": "control_change"}, {"time": 188969, "annotation": {"number": 11, "value": 97}, "group": "control_change"}, {"time": 189028, "annotation": {"number": 11, "value": 98}, "group": "control_change"}, {"time": 189087, "annotation": {"number": 11, "value": 99}, "group": "control_change"}, {"time": 189207, "annotation": {"number": 11, "value": 100}, "group": "control_change"}, {"time": 194400, "annotation": {"number": 11, "value": 100}, "group": "control_change"}, {"time": 194801, "annotation": {"number": 11, "value": 99}, "group": "control_change"}, {"time": 194962, "annotation": {"number": 11, "value": 98}, "group": "control_change"}, {"time": 195042, "annotation": {"number": 11, "value": 97}, "group": "control_change"}, {"time": 195162, "annotation": {"number": 11, "value": 96}, "group": "control_change"}, {"time": 195202, "annotation": {"number": 11, "value": 95}, "group": "control_change"}, {"time": 195243, "annotation": {"number": 11, "value": 94}, "group": "control_change"}, {"time": 195283, "annotation": {"number": 11, "value": 93}, "group": "control_change"}, {"time": 195323, "annotation": {"number": 11, "value": 91}, "group": "control_change"}, {"time": 195363, "annotation": {"number": 11, "value": 90}, "group": "control_change"}, {"time": 195402, "annotation": {"number": 11, "value": 88}, "group": "control_change"}, {"time": 195442, "annotation": {"number": 11, "value": 86}, "group": "control_change"}, {"time": 195481, "annotation": {"number": 11, "value": 84}, "group": "control_change"}, {"time": 195521, "annotation": {"number": 11, "value": 81}, "group": "control_change"}, {"time": 195561, "annotation": {"number": 11, "value": 78}, "group": "control_change"}, {"time": 195600, "annotation": {"number": 11, "value": 75}, "group": "control_change"}, {"time": 195640, "annotation": {"number": 11, "value": 71}, "group": "control_change"}, {"time": 195679, "annotation": {"number": 11, "value": 66}, "group": "control_change"}, {"time": 195719, "annotation": {"number": 11, "value": 61}, "group": "control_change"}, {"time": 195758, "annotation": {"number": 11, "value": 54}, "group": "control_change"}, {"time": 195798, "annotation": {"number": 11, "value": 46}, "group": "control_change"}, {"time": 195837, "annotation": {"number": 11, "value": 37}, "group": "control_change"}, {"time": 195877, "annotation": {"number": 11, "value": 28}, "group": "control_change"}, {"time": 196078, "annotation": {"number": 11, "value": 84}, "group": "control_change"}, {"time": 196098, "annotation": {"number": 11, "value": 91}, "group": "control_change"}, {"time": 196118, "annotation": {"number": 11, "value": 94}, "group": "control_change"}, {"time": 196138, "annotation": {"number": 11, "value": 96}, "group": "control_change"}, {"time": 196158, "annotation": {"number": 11, "value": 98}, "group": "control_change"}, {"time": 196178, "annotation": {"number": 11, "value": 99}, "group": "control_change"}, {"time": 196218, "annotation": {"number": 11, "value": 100}, "group": "control_change"}, {"time": 196319, "annotation": {"number": 11, "value": 100}, "group": "control_change"}, {"time": 196800, "annotation": {"number": 11, "value": 99}, "group": "control_change"}, {"time": 197041, "annotation": {"number": 11, "value": 98}, "group": "control_change"}, {"time": 197162, "annotation": {"number": 11, "value": 97}, "group": "control_change"}, {"time": 197282, "annotation": {"number": 11, "value": 96}, "group": "control_change"}, {"time": 197342, "annotation": {"number": 11, "value": 95}, "group": "control_change"}, {"time": 197402, "annotation": {"number": 11, "value": 94}, "group": "control_change"}, {"time": 197463, "annotation": {"number": 11, "value": 93}, "group": "control_change"}, {"time": 197493, "annotation": {"number": 11, "value": 92}, "group": "control_change"}, {"time": 197523, "annotation": {"number": 11, "value": 91}, "group": "control_change"}, {"time": 197583, "annotation": {"number": 11, "value": 90}, "group": "control_change"}, {"time": 197613, "annotation": {"number": 11, "value": 89}, "group": "control_change"}, {"time": 197643, "annotation": {"number": 11, "value": 88}, "group": "control_change"}, {"time": 197673, "annotation": {"number": 11, "value": 87}, "group": "control_change"}, {"time": 197703, "annotation": {"number": 11, "value": 86}, "group": "control_change"}, {"time": 197733, "annotation": {"number": 11, "value": 84}, "group": "control_change"}, {"time": 197763, "annotation": {"number": 11, "value": 82}, "group": "control_change"}, {"time": 197793, "annotation": {"number": 11, "value": 81}, "group": "control_change"}, {"time": 197823, "annotation": {"number": 11, "value": 79}, "group": "control_change"}, {"time": 197852, "annotation": {"number": 11, "value": 77}, "group": "control_change"}, {"time": 197882, "annotation": {"number": 11, "value": 75}, "group": "control_change"}, {"time": 197912, "annotation": {"number": 11, "value": 73}, "group": "control_change"}, {"time": 197941, "annotation": {"number": 11, "value": 70}, "group": "control_change"}, {"time": 197971, "annotation": {"number": 11, "value": 68}, "group": "control_change"}, {"time": 198001, "annotation": {"number": 11, "value": 64}, "group": "control_change"}, {"time": 198030, "annotation": {"number": 11, "value": 61}, "group": "control_change"}, {"time": 198060, "annotation": {"number": 11, "value": 58}, "group": "control_change"}, {"time": 198090, "annotation": {"number": 11, "value": 54}, "group": "control_change"}, {"time": 198119, "annotation": {"number": 11, "value": 50}, "group": "control_change"}, {"time": 198149, "annotation": {"number": 11, "value": 45}, "group": "control_change"}, {"time": 198178, "annotation": {"number": 11, "value": 40}, "group": "control_change"}, {"time": 198208, "annotation": {"number": 11, "value": 35}, "group": "control_change"}, {"time": 198238, "annotation": {"number": 11, "value": 28}, "group": "control_change"}]}, {"program": 0, "is_drum": false, "name": "STRINGS 1", "annotations": [{"time": 218, "annotation": {"number": 0, "value": 0}, "group": "control_change"}, {"time": 240, "annotation": {"number": 32, "value": 0}, "group": "control_change"}]}, {"program": 48, "is_drum": false, "name": "STRINGS 1", "notes": [{"time": 479, "pitch": 84, "duration": 15359, "velocity": 83}, {"time": 22799, "pitch": 83, "duration": 251, "velocity": 77}, {"time": 23040, "pitch": 84, "duration": 261, "velocity": 72}, {"time": 23281, "pitch": 86, "duration": 251, "velocity": 81}, {"time": 23522, "pitch": 88, "duration": 1919, "velocity": 81}, {"time": 25441, "pitch": 86, "duration": 955, "velocity": 84}, {"time": 26396, "pitch": 84, "duration": 482, "velocity": 73}, {"time": 26878, "pitch": 83, "duration": 492, "velocity": 69}, {"time": 27360, "pitch": 81, "duration": 963, "velocity": 67}, {"time": 28323, "pitch": 83, "duration": 484, "velocity": 79}, {"time": 28797, "pitch": 84, "duration": 492, "velocity": 72}, {"time": 29279, "pitch": 86, "duration": 1563, "velocity": 69}, {"time": 48002, "pitch": 69, "duration": 90, "velocity": 98}, {"time": 48092, "pitch": 71, "duration": 80, "velocity": 79}, {"time": 48172, "pitch": 73, "duration": 70, "velocity": 83}, {"time": 48242, "pitch": 74, "duration": 61, "velocity": 88}, {"time": 48303, "pitch": 76, "duration": 60, "velocity": 83}, {"time": 48363, "pitch": 78, "duration": 60, "velocity": 81}, {"time": 48423, "pitch": 79, "duration": 60, "velocity": 85}, {"time": 48483, "pitch": 81, "duration": 7215, "velocity": 83}, {"time": 55678, "pitch": 86, "duration": 481, "velocity": 87}, {"time": 56159, "pitch": 86, "duration": 3043, "velocity": 79}, {"time": 63361, "pitch": 69, "duration": 90, "velocity": 98}, {"time": 63451, "pitch": 71, "duration": 80, "velocity": 79}, {"time": 63531, "pitch": 73, "duration": 71, "velocity": 83}, {"time": 63602, "pitch": 74, "duration": 60, "velocity": 88}, {"time": 63662, "pitch": 76, "duration": 60, "velocity": 83}, {"time": 63722, "pitch": 78, "duration": 60, "velocity": 81}, {"time": 63782, "pitch": 79, "duration": 60, "velocity": 85}, {"time": 63842, "pitch": 81, "duration": 7215, "velocity": 83}, {"time": 71037, "pitch": 86, "duration": 481, "velocity": 87}, {"time": 71518, "pitch": 86, "duration": 3364, "velocity": 79}, {"time": 78961, "pitch": 56, "duration": 4079, "velocity": 57}, {"time": 78961, "pitch": 63, "duration": 4079, "velocity": 66}, {"time": 78961, "pitch": 67, "duration": 4079, "velocity": 54}, {"time": 78961, "pitch": 74, "duration": 4079, "velocity": 71}, {"time": 78961, "pitch": 82, "duration": 4079, "velocity": 85}, {"time": 90241, "pitch": 79, "duration": 492, "velocity": 71}, {"time": 90723, "pitch": 91, "duration": 6399, "velocity": 70}, {"time": 105360, "pitch": 83, "duration": 251, "velocity": 77}, {"time": 105601, "pitch": 84, "duration": 260, "velocity": 72}, {"time": 105841, "pitch": 86, "duration": 251, "velocity": 81}, {"time": 106082, "pitch": 88, "duration": 1919, "velocity": 81}, {"time": 108001, "pitch": 86, "duration": 956, "velocity": 84}, {"time": 108957, "pitch": 84, "duration": 482, "velocity": 73}, {"time": 109439, "pitch": 83, "duration": 491, "velocity": 69}, {"time": 109920, "pitch": 81, "duration": 963, "velocity": 67}, {"time": 110883, "pitch": 83, "duration": 485, "velocity": 79}, {"time": 111358, "pitch": 84, "duration": 491, "velocity": 72}, {"time": 111839, "pitch": 86, "duration": 1558, "velocity": 69}, {"time": 130562, "pitch": 69, "duration": 89, "velocity": 98}, {"time": 130651, "pitch": 71, "duration": 79, "velocity": 79}, {"time": 130730, "pitch": 73, "duration": 69, "velocity": 83}, {"time": 130799, "pitch": 74, "duration": 60, "velocity": 88}, {"time": 130859, "pitch": 76, "duration": 59, "velocity": 83}, {"time": 130918, "pitch": 78, "duration": 59, "velocity": 81}, {"time": 130977, "pitch": 79, "duration": 59, "velocity": 85}, {"time": 131036, "pitch": 81, "duration": 7222, "velocity": 83}, {"time": 138238, "pitch": 86, "duration": 482, "velocity": 87}, {"time": 138720, "pitch": 86, "duration": 3042, "velocity": 79}, {"time": 145921, "pitch": 69, "duration": 91, "velocity": 98}, {"time": 146012, "pitch": 71, "duration": 80, "velocity": 79}, {"time": 146092, "pitch": 73, "duration": 70, "velocity": 83}, {"time": 146162, "pitch": 74, "duration": 60, "velocity": 88}, {"time": 146222, "pitch": 76, "duration": 61, "velocity": 83}, {"time": 146283, "pitch": 78, "duration": 60, "velocity": 81}, {"time": 146343, "pitch": 79, "duration": 60, "velocity": 85}, {"time": 146403, "pitch": 81, "duration": 7214, "velocity": 83}, {"time": 153597, "pitch": 86, "duration": 482, "velocity": 87}, {"time": 154079, "pitch": 86, "duration": 3364, "velocity": 79}, {"time": 161521, "pitch": 59, "duration": 2160, "velocity": 52}, {"time": 161521, "pitch": 62, "duration": 2160, "velocity": 65}, {"time": 161521, "pitch": 67, "duration": 2160, "velocity": 74}, {"time": 165119, "pitch": 69, "duration": 90, "velocity": 98}, {"time": 165209, "pitch": 71, "duration": 80, "velocity": 79}, {"time": 165289, "pitch": 73, "duration": 70, "velocity": 83}, {"time": 165359, "pitch": 74, "duration": 61, "velocity": 88}, {"time": 165420, "pitch": 76, "duration": 60, "velocity": 83}, {"time": 165480, "pitch": 78, "duration": 60, "velocity": 81}, {"time": 165540, "pitch": 79, "duration": 60, "velocity": 85}, {"time": 165600, "pitch": 81, "duration": 7222, "velocity": 83}, {"time": 172802, "pitch": 86, "duration": 481, "velocity": 87}, {"time": 173283, "pitch": 86, "duration": 3036, "velocity": 79}, {"time": 180478, "pitch": 69, "duration": 90, "velocity": 98}, {"time": 180568, "pitch": 71, "duration": 80, "velocity": 79}, {"time": 180648, "pitch": 73, "duration": 71, "velocity": 83}, {"time": 180719, "pitch": 74, "duration": 60, "velocity": 88}, {"time": 180779, "pitch": 76, "duration": 60, "velocity": 83}, {"time": 180839, "pitch": 78, "duration": 60, "velocity": 81}, {"time": 180899, "pitch": 79, "duration": 60, "velocity": 85}, {"time": 180959, "pitch": 81, "duration": 7222, "velocity": 83}, {"time": 188161, "pitch": 86, "duration": 482, "velocity": 87}, {"time": 188643, "pitch": 86, "duration": 3356, "velocity": 79}, {"time": 196078, "pitch": 62, "duration": 2160, "velocity": 56}, {"time": 196078, "pitch": 66, "duration": 2160, "velocity": 59}, {"time": 196078, "pitch": 69, "duration": 2160, "velocity": 71}, {"time": 198238, "pitch": 86, "duration": 19146, "velocity": 64}], "annotations": [{"time": 283, "annotation": {"number": 7, "value": 100}, "group": "control_change"}, {"time": 305, "annotation": {"number": 11, "value": 100}, "group": "control_change"}, {"time": 327, "annotation": {"number": 10, "value": 94}, "group": "control_change"}, {"time": 349, "annotation": {"number": 91, "value": 100}, "group": "control_change"}, {"time": 370, "annotation": {"number": 93, "value": 20}, "group": "control_change"}, {"time": 392, "annotation": {"number": 101, "value": 0}, "group": "control_change"}, {"time": 414, "annotation": {"number": 100, "value": 0}, "group": "control_change"}, {"time": 436, "annotation": {"number": 6, "value": 12}, "group": "control_change"}, {"time": 458, "annotation": {"number": 101, "value": 127}, "group": "control_change"}, {"time": 479, "annotation": {"number": 100, "value": 127}, "group": "control_change"}, {"time": 479, "annotation": {"number": 11, "value": 52}, "group": "control_change"}, {"time": 509, "annotation": {"number": 11, "value": 57}, "group": "control_change"}, {"time": 539, "annotation": {"number": 11, "value": 60}, "group": "control_change"}, {"time": 569, "annotation": {"number": 11, "value": 64}, "group": "control_change"}, {"time": 599, "annotation": {"number": 11, "value": 67}, "group": "control_change"}, {"time": 629, "annotation": {"number": 11, "value": 70}, "group": "control_change"}, {"time": 660, "annotation": {"number": 11, "value": 72}, "group": "control_change"}, {"time": 690, "annotation": {"number": 11, "value": 74}, "group": "control_change"}, {"time": 720, "annotation": {"number": 11, "value": 76}, "group": "control_change"}, {"time": 750, "annotation": {"number": 11, "value": 79}, "group": "control_change"}, {"time": 780, "annotation": {"number": 11, "value": 80}, "group": "control_change"}, {"time": 810, "annotation": {"number": 11, "value": 82}, "group": "control_change"}, {"time": 840, "annotation": {"number": 11, "value": 84}, "group": "control_change"}, {"time": 870, "annotation": {"number": 11, "value": 85}, "group": "control_change"}, {"time": 900, "annotation": {"number": 11, "value": 86}, "group": "control_change"}, {"time": 930, "annotation": {"number": 11, "value": 88}, "group": "control_change"}, {"time": 991, "annotation": {"number": 11, "value": 90}, "group": "control_change"}, {"time": 1021, "annotation": {"number": 11, "value": 91}, "group": "control_change"}, {"time": 1081, "annotation": {"number": 11, "value": 92}, "group": "control_change"}, {"time": 1111, "annotation": {"number": 11, "value": 93}, "group": "control_change"}, {"time": 1171, "annotation": {"number": 11, "value": 94}, "group": "control_change"}, {"time": 1231, "annotation": {"number": 11, "value": 95}, "group": "control_change"}, {"time": 1262, "annotation": {"number": 11, "value": 96}, "group": "control_change"}, {"time": 1352, "annotation": {"number": 11, "value": 97}, "group": "control_change"}, {"time": 1472, "annotation": {"number": 11, "value": 98}, "group": "control_change"}, {"time": 1590, "annotation": {"number": 11, "value": 99}, "group": "control_change"}, {"time": 1798, "annotation": {"number": 11, "value": 100}, "group": "control_change"}, {"time": 2398, "annotation": {"number": 11, "value": 100}, "group": "control_change"}, {"time": 2518, "annotation": {"number": 11, "value": 99}, "group": "control_change"}, {"time": 2639, "annotation": {"number": 11, "value": 98}, "group": "control_change"}, {"time": 2759, "annotation": {"number": 11, "value": 97}, "group": "control_change"}, {"time": 2880, "annotation": {"number": 11, "value": 96}, "group": "control_change"}, {"time": 3000, "annotation": {"number": 11, "value": 95}, "group": "control_change"}, {"time": 3120, "annotation": {"number": 11, "value": 94}, "group": "control_change"}, {"time": 3241, "annotation": {"number": 11, "value": 93}, "group": "control_change"}, {"time": 3361, "annotation": {"number": 11, "value": 92}, "group": "control_change"}, {"time": 3482, "annotation": {"number": 11, "value": 91}, "group": "control_change"}, {"time": 3602, "annotation": {"number": 11, "value": 90}, "group": "control_change"}, {"time": 3722, "annotation": {"number": 11, "value": 89}, "group": "control_change"}, {"time": 3843, "annotation": {"number": 11, "value": 88}, "group": "control_change"}, {"time": 3961, "annotation": {"number": 11, "value": 87}, "group": "control_change"}, {"time": 4080, "annotation": {"number": 11, "value": 86}, "group": "control_change"}, {"time": 4198, "annotation": {"number": 11, "value": 85}, "group": "control_change"}, {"time": 4317, "annotation": {"number": 11, "value": 84}, "group": "control_change"}, {"time": 4317, "annotation": {"number": 11, "value": 84}, "group": "control_change"}, {"time": 4437, "annotation": {"number": 11, "value": 85}, "group": "control_change"}, {"time": 4558, "annotation": {"number": 11, "value": 86}, "group": "control_change"}, {"time": 4678, "annotation": {"number": 11, "value": 87}, "group": "control_change"}, {"time": 4799, "annotation": {"number": 11, "value": 88}, "group": "control_change"}, {"time": 4919, "annotation": {"number": 11, "value": 89}, "group": "control_change"}, {"time": 5039, "annotation": {"number": 11, "value": 90}, "group": "control_change"}, {"time": 5160, "annotation": {"number": 11, "value": 91}, "group": "control_change"}, {"time": 5280, "annotation": {"number": 11, "value": 92}, "group": "control_change"}, {"time": 5401, "annotation": {"number": 11, "value": 93}, "group": "control_change"}, {"time": 5521, "annotation": {"number": 11, "value": 94}, "group": "control_change"}, {"time": 5641, "annotation": {"number": 11, "value": 95}, "group": "control_change"}, {"time": 5762, "annotation": {"number": 11, "value": 96}, "group": "control_change"}, {"time": 5882, "annotation": {"number": 11, "value": 97}, "group": "control_change"}, {"time": 6003, "annotation": {"number": 11, "value": 98}, "group": "control_change"}, {"time": 6123, "annotation": {"number": 11, "value": 99}, "group": "control_change"}, {"time": 6243, "annotation": {"number": 11, "value": 100}, "group": "control_change"}, {"time": 6243, "annotation": {"number": 11, "value": 100}, "group": "control_change"}, {"time": 6362, "annotation": {"number": 11, "value": 99}, "group": "control_change"}, {"time": 6480, "annotation": {"number": 11, "value": 98}, "group": "control_change"}, {"time": 6599, "annotation": {"number": 11, "value": 97}, "group": "control_change"}, {"time": 6718, "annotation": {"number": 11, "value": 96}, "group": "control_change"}, {"time": 6838, "annotation": {"number": 11, "value": 95}, "group": "control_change"}, {"time": 6958, "annotation": {"number": 11, "value": 94}, "group": "control_change"}, {"time": 7079, "annotation": {"number": 11, "value": 93}, "group": "control_change"}, {"time": 7199, "annotation": {"number": 11, "value": 92}, "group": "control_change"}, {"time": 7320, "annotation": {"number": 11, "value": 91}, "group": "control_change"}, {"time": 7440, "annotation": {"number": 11, "value": 90}, "group": "control_change"}, {"time": 7560, "annotation": {"number": 11, "value": 89}, "group": "control_change"}, {"time": 7681, "annotation": {"number": 11, "value": 88}, "group": "control_change"}, {"time": 7801, "annotation": {"number": 11, "value": 87}, "group": "control_change"}, {"time": 7922, "annotation": {"number": 11, "value": 86}, "group": "control_change"}, {"time": 8042, "annotation": {"number": 11, "value": 85}, "group": "control_change"}, {"time": 8162, "annotation": {"number": 11, "value": 84}, "group": "control_change"}, {"time": 8162, "annotation": {"number": 11, "value": 84}, "group": "control_change"}, {"time": 8281, "annotation": {"number": 11, "value": 85}, "group": "control_change"}, {"time": 8399, "annotation": {"number": 11, "value": 86}, "group": "control_change"}, {"time": 8518, "annotation": {"number": 11, "value": 87}, "group": "control_change"}, {"time": 8637, "annotation": {"number": 11, "value": 88}, "group": "control_change"}, {"time": 8757, "annotation": {"number": 11, "value": 89}, "group": "control_change"}, {"time": 8877, "annotation": {"number": 11, "value": 90}, "group": "control_change"}, {"time": 8998, "annotation": {"number": 11, "value": 91}, "group": "control_change"}, {"time": 9118, "annotation": {"number": 11, "value": 92}, "group": "control_change"}, {"time": 9239, "annotation": {"number": 11, "value": 93}, "group": "control_change"}, {"time": 9359, "annotation": {"number": 11, "value": 94}, "group": "control_change"}, {"time": 9479, "annotation": {"number": 11, "value": 95}, "group": "control_change"}, {"time": 9600, "annotation": {"number": 11, "value": 96}, "group": "control_change"}, {"time": 9720, "annotation": {"number": 11, "value": 97}, "group": "control_change"}, {"time": 9840, "annotation": {"number": 11, "value": 98}, "group": "control_change"}, {"time": 9961, "annotation": {"number": 11, "value": 99}, "group": "control_change"}, {"time": 10081, "annotation": {"number": 11, "value": 100}, "group": "control_change"}, {"time": 10081, "annotation": {"number": 11, "value": 100}, "group": "control_change"}, {"time": 10202, "annotation": {"number": 11, "value": 99}, "group": "control_change"}, {"time": 10322, "annotation": {"number": 11, "value": 98}, "group": "control_change"}, {"time": 10442, "annotation": {"number": 11, "value": 97}, "group": "control_change"}, {"time": 10563, "annotation": {"number": 11, "value": 96}, "group": "control_change"}, {"time": 10681, "annotation": {"number": 11, "value": 95}, "group": "control_change"}, {"time": 10800, "annotation": {"number": 11, "value": 94}, "group": "control_change"}, {"time": 10919, "annotation": {"number": 11, "value": 93}, "group": "control_change"}, {"time": 11037, "annotation": {"number": 11, "value": 92}, "group": "control_change"}, {"time": 11157, "annotation": {"number": 11, "value": 91}, "group": "control_change"}, {"time": 11278, "annotation": {"number": 11, "value": 90}, "group": "control_change"}, {"time": 11398, "annotation": {"number": 11, "value": 89}, "group": "control_change"}, {"time": 11519, "annotation": {"number": 11, "value": 88}, "group": "control_change"}, {"time": 11639, "annotation": {"number": 11, "value": 87}, "group": "control_change"}, {"time": 11759, "annotation": {"number": 11, "value": 86}, "group": "control_change"}, {"time": 11880, "annotation": {"number": 11, "value": 85}, "group": "control_change"}, {"time": 12000, "annotation": {"number": 11, "value": 84}, "group": "control_change"}, {"time": 12000, "annotation": {"number": 11, "value": 84}, "group": "control_change"}, {"time": 12121, "annotation": {"number": 11, "value": 85}, "group": "control_change"}, {"time": 12241, "annotation": {"number": 11, "value": 86}, "group": "control_change"}, {"time": 12361, "annotation": {"number": 11, "value": 87}, "group": "control_change"}, {"time": 12482, "annotation": {"number": 11, "value": 88}, "group": "control_change"}, {"time": 12602, "annotation": {"number": 11, "value": 89}, "group": "control_change"}, {"time": 12723, "annotation": {"number": 11, "value": 90}, "group": "control_change"}, {"time": 12843, "annotation": {"number": 11, "value": 91}, "group": "control_change"}, {"time": 12963, "annotation": {"number": 11, "value": 92}, "group": "control_change"}, {"time": 13082, "annotation": {"number": 11, "value": 93}, "group": "control_change"}, {"time": 13201, "annotation": {"number": 11, "value": 94}, "group": "control_change"}, {"time": 13319, "annotation": {"number": 11, "value": 95}, "group": "control_change"}, {"time": 13438, "annotation": {"number": 11, "value": 96}, "group": "control_change"}, {"time": 13558, "annotation": {"number": 11, "value": 97}, "group": "control_change"}, {"time": 13678, "annotation": {"number": 11, "value": 98}, "group": "control_change"}, {"time": 13799, "annotation": {"number": 11, "value": 99}, "group": "control_change"}, {"time": 13919, "annotation": {"number": 11, "value": 100}, "group": "control_change"}, {"time": 13919, "annotation": {"number": 11, "value": 100}, "group": "control_change"}, {"time": 14401, "annotation": {"number": 11, "value": 99}, "group": "control_change"}, {"time": 14642, "annotation": {"number": 11, "value": 98}, "group": "control_change"}, {"time": 14762, "annotation": {"number": 11, "value": 97}, "group": "control_change"}, {"time": 14882, "annotation": {"number": 11, "value": 96}, "group": "control_change"}, {"time": 14942, "annotation": {"number": 11, "value": 95}, "group": "control_change"}, {"time": 15001, "annotation": {"number": 11, "value": 94}, "group": "control_change"}, {"time": 15060, "annotation": {"number": 11, "value": 93}, "group": "control_change"}, {"time": 15090, "annotation": {"number": 11, "value": 92}, "group": "control_change"}, {"time": 15120, "annotation": {"number": 11, "value": 91}, "group": "control_change"}, {"time": 15179, "annotation": {"number": 11, "value": 90}, "group": "control_change"}, {"time": 15208, "annotation": {"number": 11, "value": 89}, "group": "control_change"}, {"time": 15238, "annotation": {"number": 11, "value": 88}, "group": "control_change"}, {"time": 15268, "annotation": {"number": 11, "value": 87}, "group": "control_change"}, {"time": 15297, "annotation": {"number": 11, "value": 86}, "group": "control_change"}, {"time": 15327, "annotation": {"number": 11, "value": 84}, "group": "control_change"}, {"time": 15357, "annotation": {"number": 11, "value": 82}, "group": "control_change"}, {"time": 15387, "annotation": {"number": 11, "value": 81}, "group": "control_change"}, {"time": 15417, "annotation": {"number": 11, "value": 79}, "group": "control_change"}, {"time": 15447, "annotation": {"number": 11, "value": 77}, "group": "control_change"}, {"time": 15477, "annotation": {"number": 11, "value": 75}, "group": "control_change"}, {"time": 15507, "annotation": {"number": 11, "value": 73}, "group": "control_change"}, {"time": 15537, "annotation": {"number": 11, "value": 70}, "group": "control_change"}, {"time": 15567, "annotation": {"number": 11, "value": 68}, "group": "control_change"}, {"time": 15597, "annotation": {"number": 11, "value": 64}, "group": "control_change"}, {"time": 15628, "annotation": {"number": 11, "value": 61}, "group": "control_change"}, {"time": 15658, "annotation": {"number": 11, "value": 58}, "group": "control_change"}, {"time": 15688, "annotation": {"number": 11, "value": 54}, "group": "control_change"}, {"time": 15718, "annotation": {"number": 11, "value": 50}, "group": "control_change"}, {"time": 15748, "annotation": {"number": 11, "value": 45}, "group": "control_change"}, {"time": 15778, "annotation": {"number": 11, "value": 40}, "group": "control_change"}, {"time": 15808, "annotation": {"number": 11, "value": 35}, "group": "control_change"}, {"time": 15838, "annotation": {"number": 11, "value": 28}, "group": "control_change"}, {"time": 22799, "annotation": {"number": 11, "value": 68}, "group": "control_change"}, {"time": 22829, "annotation": {"number": 11, "value": 70}, "group": "control_change"}, {"time": 22859, "annotation": {"number": 11, "value": 72}, "group": "control_change"}, {"time": 22889, "annotation": {"number": 11, "value": 74}, "group": "control_change"}, {"time": 22920, "annotation": {"number": 11, "value": 76}, "group": "control_change"}, {"time": 22950, "annotation": {"number": 11, "value": 78}, "group": "control_change"}, {"time": 22980, "annotation": {"number": 11, "value": 80}, "group": "control_change"}, {"time": 23010, "annotation": {"number": 11, "value": 82}, "group": "control_change"}, {"time": 23040, "annotation": {"number": 11, "value": 84}, "group": "control_change"}, {"time": 23070, "annotation": {"number": 11, "value": 86}, "group": "control_change"}, {"time": 23100, "annotation": {"number": 11, "value": 88}, "group": "control_change"}, {"time": 23130, "annotation": {"number": 11, "value": 90}, "group": "control_change"}, {"time": 23160, "annotation": {"number": 11, "value": 92}, "group": "control_change"}, {"time": 23190, "annotation": {"number": 11, "value": 94}, "group": "control_change"}, {"time": 23221, "annotation": {"number": 11, "value": 96}, "group": "control_change"}, {"time": 23251, "annotation": {"number": 11, "value": 98}, "group": "control_change"}, {"time": 23281, "annotation": {"number": 11, "value": 100}, "group": "control_change"}, {"time": 23522, "annotation": {"number": 11, "value": 76}, "group": "control_change"}, {"time": 23552, "annotation": {"number": 11, "value": 81}, "group": "control_change"}, {"time": 23582, "annotation": {"number": 11, "value": 85}, "group": "control_change"}, {"time": 23612, "annotation": {"number": 11, "value": 87}, "group": "control_change"}, {"time": 23642, "annotation": {"number": 11, "value": 90}, "group": "control_change"}, {"time": 23672, "annotation": {"number": 11, "value": 92}, "group": "control_change"}, {"time": 23702, "annotation": {"number": 11, "value": 93}, "group": "control_change"}, {"time": 23732, "annotation": {"number": 11, "value": 95}, "group": "control_change"}, {"time": 23762, "annotation": {"number": 11, "value": 96}, "group": "control_change"}, {"time": 23792, "annotation": {"number": 11, "value": 97}, "group": "control_change"}, {"time": 23853, "annotation": {"number": 11, "value": 98}, "group": "control_change"}, {"time": 23913, "annotation": {"number": 11, "value": 99}, "group": "control_change"}, {"time": 24003, "annotation": {"number": 11, "value": 100}, "group": "control_change"}, {"time": 24598, "annotation": {"number": 11, "value": 99}, "group": "control_change"}, {"time": 24778, "annotation": {"number": 11, "value": 98}, "group": "control_change"}, {"time": 24869, "annotation": {"number": 11, "value": 97}, "group": "control_change"}, {"time": 24959, "annotation": {"number": 11, "value": 96}, "group": "control_change"}, {"time": 25019, "annotation": {"number": 11, "value": 95}, "group": "control_change"}, {"time": 25079, "annotation": {"number": 11, "value": 94}, "group": "control_change"}, {"time": 25109, "annotation": {"number": 11, "value": 93}, "group": "control_change"}, {"time": 25170, "annotation": {"number": 11, "value": 92}, "group": "control_change"}, {"time": 25200, "annotation": {"number": 11, "value": 91}, "group": "control_change"}, {"time": 25230, "annotation": {"number": 11, "value": 90}, "group": "control_change"}, {"time": 25260, "annotation": {"number": 11, "value": 88}, "group": "control_change"}, {"time": 25290, "annotation": {"number": 11, "value": 87}, "group": "control_change"}, {"time": 25320, "annotation": {"number": 11, "value": 85}, "group": "control_change"}, {"time": 25350, "annotation": {"number": 11, "value": 84}, "group": "control_change"}, {"time": 25380, "annotation": {"number": 11, "value": 82}, "group": "control_change"}, {"time": 25410, "annotation": {"number": 11, "value": 79}, "group": "control_change"}, {"time": 25441, "annotation": {"number": 11, "value": 76}, "group": "control_change"}, {"time": 25441, "annotation": {"number": 11, "value": 76}, "group": "control_change"}, {"time": 25471, "annotation": {"number": 11, "value": 80}, "group": "control_change"}, {"time": 25501, "annotation": {"number": 11, "value": 84}, "group": "control_change"}, {"time": 25531, "annotation": {"number": 11, "value": 86}, "group": "control_change"}, {"time": 25561, "annotation": {"number": 11, "value": 88}, "group": "control_change"}, {"time": 25591, "annotation": {"number": 11, "value": 90}, "group": "control_change"}, {"time": 25621, "annotation": {"number": 11, "value": 92}, "group": "control_change"}, {"time": 25651, "annotation": {"number": 11, "value": 93}, "group": "control_change"}, {"time": 25681, "annotation": {"number": 11, "value": 94}, "group": "control_change"}, {"time": 25711, "annotation": {"number": 11, "value": 96}, "group": "control_change"}, {"time": 25772, "annotation": {"number": 11, "value": 97}, "group": "control_change"}, {"time": 25832, "annotation": {"number": 11, "value": 98}, "group": "control_change"}, {"time": 25892, "annotation": {"number": 11, "value": 99}, "group": "control_change"}, {"time": 26011, "annotation": {"number": 11, "value": 100}, "group": "control_change"}, {"time": 28323, "annotation": {"number": 11, "value": 76}, "group": "control_change"}, {"time": 28352, "annotation": {"number": 11, "value": 81}, "group": "control_change"}, {"time": 28382, "annotation": {"number": 11, "value": 85}, "group": "control_change"}, {"time": 28412, "annotation": {"number": 11, "value": 88}, "group": "control_change"}, {"time": 28441, "annotation": {"number": 11, "value": 90}, "group": "control_change"}, {"time": 28471, "annotation": {"number": 11, "value": 92}, "group": "control_change"}, {"time": 28501, "annotation": {"number": 11, "value": 94}, "group": "control_change"}, {"time": 28530, "annotation": {"number": 11, "value": 95}, "group": "control_change"}, {"time": 28560, "annotation": {"number": 11, "value": 96}, "group": "control_change"}, {"time": 28589, "annotation": {"number": 11, "value": 97}, "group": "control_change"}, {"time": 28649, "annotation": {"number": 11, "value": 98}, "group": "control_change"}, {"time": 28678, "annotation": {"number": 11, "value": 99}, "group": "control_change"}, {"time": 28797, "annotation": {"number": 11, "value": 100}, "group": "control_change"}, {"time": 29279, "annotation": {"number": 11, "value": 100}, "group": "control_change"}, {"time": 29730, "annotation": {"number": 11, "value": 99}, "group": "control_change"}, {"time": 29941, "annotation": {"number": 11, "value": 98}, "group": "control_change"}, {"time": 30031, "annotation": {"number": 11, "value": 97}, "group": "control_change"}, {"time": 30091, "annotation": {"number": 11, "value": 96}, "group": "control_change"}, {"time": 30151, "annotation": {"number": 11, "value": 95}, "group": "control_change"}, {"time": 30212, "annotation": {"number": 11, "value": 94}, "group": "control_change"}, {"time": 30242, "annotation": {"number": 11, "value": 93}, "group": "control_change"}, {"time": 30302, "annotation": {"number": 11, "value": 92}, "group": "control_change"}, {"time": 30332, "annotation": {"number": 11, "value": 91}, "group": "control_change"}, {"time": 30362, "annotation": {"number": 11, "value": 90}, "group": "control_change"}, {"time": 30392, "annotation": {"number": 11, "value": 88}, "group": "control_change"}, {"time": 30422, "annotation": {"number": 11, "value": 86}, "group": "control_change"}, {"time": 30452, "annotation": {"number": 11, "value": 85}, "group": "control_change"}, {"time": 30482, "annotation": {"number": 11, "value": 83}, "group": "control_change"}, {"time": 30513, "annotation": {"number": 11, "value": 81}, "group": "control_change"}, {"time": 30543, "annotation": {"number": 11, "value": 79}, "group": "control_change"}, {"time": 30573, "annotation": {"number": 11, "value": 77}, "group": "control_change"}, {"time": 30603, "annotation": {"number": 11, "value": 74}, "group": "control_change"}, {"time": 30633, "annotation": {"number": 11, "value": 71}, "group": "control_change"}, {"time": 30663, "annotation": {"number": 11, "value": 67}, "group": "control_change"}, {"time": 30693, "annotation": {"number": 11, "value": 64}, "group": "control_change"}, {"time": 30723, "annotation": {"number": 11, "value": 59}, "group": "control_change"}, {"time": 30753, "annotation": {"number": 11, "value": 55}, "group": "control_change"}, {"time": 30783, "annotation": {"number": 11, "value": 49}, "group": "control_change"}, {"time": 30812, "annotation": {"number": 11, "value": 44}, "group": "control_change"}, {"time": 46557, "annotation": {"number": 11, "value": 100}, "group": "control_change"}, {"time": 48483, "annotation": {"number": 11, "value": 76}, "group": "control_change"}, {"time": 48503, "annotation": {"number": 11, "value": 79}, "group": "control_change"}, {"time": 48523, "annotation": {"number": 11, "value": 80}, "group": "control_change"}, {"time": 48542, "annotation": {"number": 11, "value": 81}, "group": "control_change"}, {"time": 48562, "annotation": {"number": 11, "value": 82}, "group": "control_change"}, {"time": 48582, "annotation": {"number": 11, "value": 84}, "group": "control_change"}, {"time": 48602, "annotation": {"number": 11, "value": 85}, "group": "control_change"}, {"time": 48621, "annotation": {"number": 11, "value": 86}, "group": "control_change"}, {"time": 48641, "annotation": {"number": 11, "value": 87}, "group": "control_change"}, {"time": 48681, "annotation": {"number": 11, "value": 88}, "group": "control_change"}, {"time": 48700, "annotation": {"number": 11, "value": 89}, "group": "control_change"}, {"time": 48720, "annotation": {"number": 11, "value": 90}, "group": "control_change"}, {"time": 48760, "annotation": {"number": 11, "value": 91}, "group": "control_change"}, {"time": 48780, "annotation": {"number": 11, "value": 92}, "group": "control_change"}, {"time": 48819, "annotation": {"number": 11, "value": 93}, "group": "control_change"}, {"time": 48859, "annotation": {"number": 11, "value": 94}, "group": "control_change"}, {"time": 48918, "annotation": {"number": 11, "value": 95}, "group": "control_change"}, {"time": 48957, "annotation": {"number": 11, "value": 96}, "group": "control_change"}, {"time": 49018, "annotation": {"number": 11, "value": 97}, "group": "control_change"}, {"time": 49118, "annotation": {"number": 11, "value": 98}, "group": "control_change"}, {"time": 49238, "annotation": {"number": 11, "value": 99}, "group": "control_change"}, {"time": 49439, "annotation": {"number": 11, "value": 100}, "group": "control_change"}, {"time": 50402, "annotation": {"number": 11, "value": 100}, "group": "control_change"}, {"time": 50521, "annotation": {"number": 11, "value": 99}, "group": "control_change"}, {"time": 50639, "annotation": {"number": 11, "value": 98}, "group": "control_change"}, {"time": 50758, "annotation": {"number": 11, "value": 97}, "group": "control_change"}, {"time": 50876, "annotation": {"number": 11, "value": 96}, "group": "control_change"}, {"time": 50997, "annotation": {"number": 11, "value": 95}, "group": "control_change"}, {"time": 51117, "annotation": {"number": 11, "value": 94}, "group": "control_change"}, {"time": 51238, "annotation": {"number": 11, "value": 93}, "group": "control_change"}, {"time": 51358, "annotation": {"number": 11, "value": 92}, "group": "control_change"}, {"time": 51478, "annotation": {"number": 11, "value": 91}, "group": "control_change"}, {"time": 51599, "annotation": {"number": 11, "value": 90}, "group": "control_change"}, {"time": 51719, "annotation": {"number": 11, "value": 89}, "group": "control_change"}, {"time": 51839, "annotation": {"number": 11, "value": 88}, "group": "control_change"}, {"time": 51960, "annotation": {"number": 11, "value": 87}, "group": "control_change"}, {"time": 52080, "annotation": {"number": 11, "value": 86}, "group": "control_change"}, {"time": 52201, "annotation": {"number": 11, "value": 85}, "group": "control_change"}, {"time": 52321, "annotation": {"number": 11, "value": 84}, "group": "control_change"}, {"time": 52321, "annotation": {"number": 11, "value": 84}, "group": "control_change"}, {"time": 52441, "annotation": {"number": 11, "value": 85}, "group": "control_change"}, {"time": 52562, "annotation": {"number": 11, "value": 86}, "group": "control_change"}, {"time": 52682, "annotation": {"number": 11, "value": 87}, "group": "control_change"}, {"time": 52803, "annotation": {"number": 11, "value": 88}, "group": "control_change"}, {"time": 52921, "annotation": {"number": 11, "value": 89}, "group": "control_change"}, {"time": 53040, "annotation": {"number": 11, "value": 90}, "group": "control_change"}, {"time": 53158, "annotation": {"number": 11, "value": 91}, "group": "control_change"}, {"time": 53277, "annotation": {"number": 11, "value": 92}, "group": "control_change"}, {"time": 53397, "annotation": {"number": 11, "value": 93}, "group": "control_change"}, {"time": 53518, "annotation": {"number": 11, "value": 94}, "group": "control_change"}, {"time": 53638, "annotation": {"number": 11, "value": 95}, "group": "control_change"}, {"time": 53758, "annotation": {"number": 11, "value": 96}, "group": "control_change"}, {"time": 53879, "annotation": {"number": 11, "value": 97}, "group": "control_change"}, {"time": 53999, "annotation": {"number": 11, "value": 98}, "group": "control_change"}, {"time": 54120, "annotation": {"number": 11, "value": 99}, "group": "control_change"}, {"time": 54240, "annotation": {"number": 11, "value": 100}, "group": "control_change"}, {"time": 55678, "annotation": {"number": 11, "value": 76}, "group": "control_change"}, {"time": 55698, "annotation": {"number": 11, "value": 82}, "group": "control_change"}, {"time": 55718, "annotation": {"number": 11, "value": 86}, "group": "control_change"}, {"time": 55738, "annotation": {"number": 11, "value": 88}, "group": "control_change"}, {"time": 55758, "annotation": {"number": 11, "value": 91}, "group": "control_change"}, {"time": 55778, "annotation": {"number": 11, "value": 93}, "group": "control_change"}, {"time": 55798, "annotation": {"number": 11, "value": 94}, "group": "control_change"}, {"time": 55818, "annotation": {"number": 11, "value": 96}, "group": "control_change"}, {"time": 55838, "annotation": {"number": 11, "value": 97}, "group": "control_change"}, {"time": 55878, "annotation": {"number": 11, "value": 98}, "group": "control_change"}, {"time": 55898, "annotation": {"number": 11, "value": 99}, "group": "control_change"}, {"time": 55958, "annotation": {"number": 11, "value": 100}, "group": "control_change"}, {"time": 58078, "annotation": {"number": 11, "value": 100}, "group": "control_change"}, {"time": 58459, "annotation": {"number": 11, "value": 99}, "group": "control_change"}, {"time": 58580, "annotation": {"number": 11, "value": 98}, "group": "control_change"}, {"time": 58640, "annotation": {"number": 11, "value": 97}, "group": "control_change"}, {"time": 58720, "annotation": {"number": 11, "value": 96}, "group": "control_change"}, {"time": 58760, "annotation": {"number": 11, "value": 95}, "group": "control_change"}, {"time": 58780, "annotation": {"number": 11, "value": 94}, "group": "control_change"}, {"time": 58820, "annotation": {"number": 11, "value": 93}, "group": "control_change"}, {"time": 58861, "annotation": {"number": 11, "value": 92}, "group": "control_change"}, {"time": 58881, "annotation": {"number": 11, "value": 91}, "group": "control_change"}, {"time": 58901, "annotation": {"number": 11, "value": 90}, "group": "control_change"}, {"time": 58921, "annotation": {"number": 11, "value": 88}, "group": "control_change"}, {"time": 58961, "annotation": {"number": 11, "value": 86}, "group": "control_change"}, {"time": 58981, "annotation": {"number": 11, "value": 85}, "group": "control_change"}, {"time": 59001, "annotation": {"number": 11, "value": 83}, "group": "control_change"}, {"time": 59021, "annotation": {"number": 11, "value": 81}, "group": "control_change"}, {"time": 59041, "annotation": {"number": 11, "value": 79}, "group": "control_change"}, {"time": 59061, "annotation": {"number": 11, "value": 76}, "group": "control_change"}, {"time": 59081, "annotation": {"number": 11, "value": 74}, "group": "control_change"}, {"time": 59101, "annotation": {"number": 11, "value": 71}, "group": "control_change"}, {"time": 59121, "annotation": {"number": 11, "value": 69}, "group": "control_change"}, {"time": 59142, "annotation": {"number": 11, "value": 65}, "group": "control_change"}, {"time": 59162, "annotation": {"number": 11, "value": 62}, "group": "control_change"}, {"time": 59182, "annotation": {"number": 11, "value": 58}, "group": "control_change"}, {"time": 59202, "annotation": {"number": 11, "value": 52}, "group": "control_change"}, {"time": 61923, "annotation": {"number": 11, "value": 100}, "group": "control_change"}, {"time": 63842, "annotation": {"number": 11, "value": 76}, "group": "control_change"}, {"time": 63862, "annotation": {"number": 11, "value": 79}, "group": "control_change"}, {"time": 63882, "annotation": {"number": 11, "value": 80}, "group": "control_change"}, {"time": 63902, "annotation": {"number": 11, "value": 81}, "group": "control_change"}, {"time": 63921, "annotation": {"number": 11, "value": 82}, "group": "control_change"}, {"time": 63941, "annotation": {"number": 11, "value": 84}, "group": "control_change"}, {"time": 63961, "annotation": {"number": 11, "value": 85}, "group": "control_change"}, {"time": 63981, "annotation": {"number": 11, "value": 86}, "group": "control_change"}, {"time": 64000, "annotation": {"number": 11, "value": 87}, "group": "control_change"}, {"time": 64040, "annotation": {"number": 11, "value": 88}, "group": "control_change"}, {"time": 64060, "annotation": {"number": 11, "value": 89}, "group": "control_change"}, {"time": 64079, "annotation": {"number": 11, "value": 90}, "group": "control_change"}, {"time": 64119, "annotation": {"number": 11, "value": 91}, "group": "control_change"}, {"time": 64139, "annotation": {"number": 11, "value": 92}, "group": "control_change"}, {"time": 64178, "annotation": {"number": 11, "value": 93}, "group": "control_change"}, {"time": 64218, "annotation": {"number": 11, "value": 94}, "group": "control_change"}, {"time": 64277, "annotation": {"number": 11, "value": 95}, "group": "control_change"}, {"time": 64317, "annotation": {"number": 11, "value": 96}, "group": "control_change"}, {"time": 64377, "annotation": {"number": 11, "value": 97}, "group": "control_change"}, {"time": 64477, "annotation": {"number": 11, "value": 98}, "group": "control_change"}, {"time": 64598, "annotation": {"number": 11, "value": 99}, "group": "control_change"}, {"time": 64798, "annotation": {"number": 11, "value": 100}, "group": "control_change"}, {"time": 65761, "annotation": {"number": 11, "value": 100}, "group": "control_change"}, {"time": 65882, "annotation": {"number": 11, "value": 99}, "group": "control_change"}, {"time": 66002, "annotation": {"number": 11, "value": 98}, "group": "control_change"}, {"time": 66123, "annotation": {"number": 11, "value": 97}, "group": "control_change"}, {"time": 66243, "annotation": {"number": 11, "value": 96}, "group": "control_change"}, {"time": 66361, "annotation": {"number": 11, "value": 95}, "group": "control_change"}, {"time": 66480, "annotation": {"number": 11, "value": 94}, "group": "control_change"}, {"time": 66599, "annotation": {"number": 11, "value": 93}, "group": "control_change"}, {"time": 66717, "annotation": {"number": 11, "value": 92}, "group": "control_change"}, {"time": 66838, "annotation": {"number": 11, "value": 91}, "group": "control_change"}, {"time": 66958, "annotation": {"number": 11, "value": 90}, "group": "control_change"}, {"time": 67078, "annotation": {"number": 11, "value": 89}, "group": "control_change"}, {"time": 67199, "annotation": {"number": 11, "value": 88}, "group": "control_change"}, {"time": 67319, "annotation": {"number": 11, "value": 87}, "group": "control_change"}, {"time": 67440, "annotation": {"number": 11, "value": 86}, "group": "control_change"}, {"time": 67560, "annotation": {"number": 11, "value": 85}, "group": "control_change"}, {"time": 67680, "annotation": {"number": 11, "value": 84}, "group": "control_change"}, {"time": 67680, "annotation": {"number": 11, "value": 84}, "group": "control_change"}, {"time": 67801, "annotation": {"number": 11, "value": 85}, "group": "control_change"}, {"time": 67921, "annotation": {"number": 11, "value": 86}, "group": "control_change"}, {"time": 68042, "annotation": {"number": 11, "value": 87}, "group": "control_change"}, {"time": 68162, "annotation": {"number": 11, "value": 88}, "group": "control_change"}, {"time": 68282, "annotation": {"number": 11, "value": 89}, "group": "control_change"}, {"time": 68403, "annotation": {"number": 11, "value": 90}, "group": "control_change"}, {"time": 68523, "annotation": {"number": 11, "value": 91}, "group": "control_change"}, {"time": 68643, "annotation": {"number": 11, "value": 92}, "group": "control_change"}, {"time": 68762, "annotation": {"number": 11, "value": 93}, "group": "control_change"}, {"time": 68881, "annotation": {"number": 11, "value": 94}, "group": "control_change"}, {"time": 68999, "annotation": {"number": 11, "value": 95}, "group": "control_change"}, {"time": 69118, "annotation": {"number": 11, "value": 96}, "group": "control_change"}, {"time": 69238, "annotation": {"number": 11, "value": 97}, "group": "control_change"}, {"time": 69359, "annotation": {"number": 11, "value": 98}, "group": "control_change"}, {"time": 69479, "annotation": {"number": 11, "value": 99}, "group": "control_change"}, {"time": 69599, "annotation": {"number": 11, "value": 100}, "group": "control_change"}, {"time": 71037, "annotation": {"number": 11, "value": 76}, "group": "control_change"}, {"time": 71057, "annotation": {"number": 11, "value": 82}, "group": "control_change"}, {"time": 71077, "annotation": {"number": 11, "value": 86}, "group": "control_change"}, {"time": 71097, "annotation": {"number": 11, "value": 88}, "group": "control_change"}, {"time": 71117, "annotation": {"number": 11, "value": 91}, "group": "control_change"}, {"time": 71137, "annotation": {"number": 11, "value": 93}, "group": "control_change"}, {"time": 71157, "annotation": {"number": 11, "value": 94}, "group": "control_change"}, {"time": 71177, "annotation": {"number": 11, "value": 96}, "group": "control_change"}, {"time": 71197, "annotation": {"number": 11, "value": 97}, "group": "control_change"}, {"time": 71237, "annotation": {"number": 11, "value": 98}, "group": "control_change"}, {"time": 71257, "annotation": {"number": 11, "value": 99}, "group": "control_change"}, {"time": 71318, "annotation": {"number": 11, "value": 100}, "group": "control_change"}, {"time": 73437, "annotation": {"number": 11, "value": 100}, "group": "control_change"}, {"time": 74120, "annotation": {"number": 11, "value": 99}, "group": "control_change"}, {"time": 74240, "annotation": {"number": 11, "value": 98}, "group": "control_change"}, {"time": 74300, "annotation": {"number": 11, "value": 97}, "group": "control_change"}, {"time": 74380, "annotation": {"number": 11, "value": 96}, "group": "control_change"}, {"time": 74421, "annotation": {"number": 11, "value": 95}, "group": "control_change"}, {"time": 74441, "annotation": {"number": 11, "value": 94}, "group": "control_change"}, {"time": 74481, "annotation": {"number": 11, "value": 93}, "group": "control_change"}, {"time": 74521, "annotation": {"number": 11, "value": 92}, "group": "control_change"}, {"time": 74541, "annotation": {"number": 11, "value": 91}, "group": "control_change"}, {"time": 74561, "annotation": {"number": 11, "value": 90}, "group": "control_change"}, {"time": 74581, "annotation": {"number": 11, "value": 88}, "group": "control_change"}, {"time": 74621, "annotation": {"number": 11, "value": 86}, "group": "control_change"}, {"time": 74641, "annotation": {"number": 11, "value": 85}, "group": "control_change"}, {"time": 74661, "annotation": {"number": 11, "value": 83}, "group": "control_change"}, {"time": 74681, "annotation": {"number": 11, "value": 81}, "group": "control_change"}, {"time": 74701, "annotation": {"number": 11, "value": 79}, "group": "control_change"}, {"time": 74722, "annotation": {"number": 11, "value": 76}, "group": "control_change"}, {"time": 74742, "annotation": {"number": 11, "value": 74}, "group": "control_change"}, {"time": 74762, "annotation": {"number": 11, "value": 71}, "group": "control_change"}, {"time": 74782, "annotation": {"number": 11, "value": 69}, "group": "control_change"}, {"time": 74802, "annotation": {"number": 11, "value": 65}, "group": "control_change"}, {"time": 74822, "annotation": {"number": 11, "value": 62}, "group": "control_change"}, {"time": 74842, "annotation": {"number": 11, "value": 58}, "group": "control_change"}, {"time": 74862, "annotation": {"number": 11, "value": 52}, "group": "control_change"}, {"time": 78961, "annotation": {"number": 11, "value": 100}, "group": "control_change"}, {"time": 81121, "annotation": {"number": 11, "value": 100}, "group": "control_change"}, {"time": 82137, "annotation": {"number": 11, "value": 99}, "group": "control_change"}, {"time": 82277, "annotation": {"number": 11, "value": 98}, "group": "control_change"}, {"time": 82357, "annotation": {"number": 11, "value": 97}, "group": "control_change"}, {"time": 82438, "annotation": {"number": 11, "value": 96}, "group": "control_change"}, {"time": 82498, "annotation": {"number": 11, "value": 95}, "group": "control_change"}, {"time": 82538, "annotation": {"number": 11, "value": 94}, "group": "control_change"}, {"time": 82578, "annotation": {"number": 11, "value": 93}, "group": "control_change"}, {"time": 82618, "annotation": {"number": 11, "value": 92}, "group": "control_change"}, {"time": 82638, "annotation": {"number": 11, "value": 91}, "group": "control_change"}, {"time": 82678, "annotation": {"number": 11, "value": 90}, "group": "control_change"}, {"time": 82698, "annotation": {"number": 11, "value": 88}, "group": "control_change"}, {"time": 82739, "annotation": {"number": 11, "value": 87}, "group": "control_change"}, {"time": 82759, "annotation": {"number": 11, "value": 85}, "group": "control_change"}, {"time": 82779, "annotation": {"number": 11, "value": 84}, "group": "control_change"}, {"time": 82799, "annotation": {"number": 11, "value": 83}, "group": "control_change"}, {"time": 82819, "annotation": {"number": 11, "value": 81}, "group": "control_change"}, {"time": 82839, "annotation": {"number": 11, "value": 79}, "group": "control_change"}, {"time": 82859, "annotation": {"number": 11, "value": 78}, "group": "control_change"}, {"time": 82879, "annotation": {"number": 11, "value": 76}, "group": "control_change"}, {"time": 82899, "annotation": {"number": 11, "value": 74}, "group": "control_change"}, {"time": 82919, "annotation": {"number": 11, "value": 71}, "group": "control_change"}, {"time": 82939, "annotation": {"number": 11, "value": 69}, "group": "control_change"}, {"time": 82959, "annotation": {"number": 11, "value": 67}, "group": "control_change"}, {"time": 82979, "annotation": {"number": 11, "value": 64}, "group": "control_change"}, {"time": 82999, "annotation": {"number": 11, "value": 60}, "group": "control_change"}, {"time": 83020, "annotation": {"number": 11, "value": 57}, "group": "control_change"}, {"time": 83040, "annotation": {"number": 11, "value": 52}, "group": "control_change"}, {"time": 90241, "annotation": {"number": 11, "value": 60}, "group": "control_change"}, {"time": 90261, "annotation": {"number": 11, "value": 69}, "group": "control_change"}, {"time": 90281, "annotation": {"number": 11, "value": 76}, "group": "control_change"}, {"time": 90302, "annotation": {"number": 11, "value": 80}, "group": "control_change"}, {"time": 90322, "annotation": {"number": 11, "value": 85}, "group": "control_change"}, {"time": 90342, "annotation": {"number": 11, "value": 88}, "group": "control_change"}, {"time": 90362, "annotation": {"number": 11, "value": 90}, "group": "control_change"}, {"time": 90382, "annotation": {"number": 11, "value": 93}, "group": "control_change"}, {"time": 90402, "annotation": {"number": 11, "value": 94}, "group": "control_change"}, {"time": 90422, "annotation": {"number": 11, "value": 95}, "group": "control_change"}, {"time": 90442, "annotation": {"number": 11, "value": 97}, "group": "control_change"}, {"time": 90462, "annotation": {"number": 11, "value": 98}, "group": "control_change"}, {"time": 90502, "annotation": {"number": 11, "value": 99}, "group": "control_change"}, {"time": 90562, "annotation": {"number": 11, "value": 100}, "group": "control_change"}, {"time": 90723, "annotation": {"number": 11, "value": 100}, "group": "control_change"}, {"time": 90841, "annotation": {"number": 11, "value": 99}, "group": "control_change"}, {"time": 90960, "annotation": {"number": 11, "value": 98}, "group": "control_change"}, {"time": 91079, "annotation": {"number": 11, "value": 97}, "group": "control_change"}, {"time": 91197, "annotation": {"number": 11, "value": 96}, "group": "control_change"}, {"time": 91318, "annotation": {"number": 11, "value": 95}, "group": "control_change"}, {"time": 91438, "annotation": {"number": 11, "value": 94}, "group": "control_change"}, {"time": 91558, "annotation": {"number": 11, "value": 93}, "group": "control_change"}, {"time": 91679, "annotation": {"number": 11, "value": 92}, "group": "control_change"}, {"time": 91799, "annotation": {"number": 11, "value": 91}, "group": "control_change"}, {"time": 91920, "annotation": {"number": 11, "value": 90}, "group": "control_change"}, {"time": 92040, "annotation": {"number": 11, "value": 89}, "group": "control_change"}, {"time": 92160, "annotation": {"number": 11, "value": 88}, "group": "control_change"}, {"time": 92281, "annotation": {"number": 11, "value": 87}, "group": "control_change"}, {"time": 92401, "annotation": {"number": 11, "value": 86}, "group": "control_change"}, {"time": 92522, "annotation": {"number": 11, "value": 85}, "group": "control_change"}, {"time": 92642, "annotation": {"number": 11, "value": 84}, "group": "control_change"}, {"time": 92642, "annotation": {"number": 11, "value": 84}, "group": "control_change"}, {"time": 92762, "annotation": {"number": 11, "value": 85}, "group": "control_change"}, {"time": 92883, "annotation": {"number": 11, "value": 86}, "group": "control_change"}, {"time": 93003, "annotation": {"number": 11, "value": 87}, "group": "control_change"}, {"time": 93123, "annotation": {"number": 11, "value": 88}, "group": "control_change"}, {"time": 93242, "annotation": {"number": 11, "value": 89}, "group": "control_change"}, {"time": 93361, "annotation": {"number": 11, "value": 90}, "group": "control_change"}, {"time": 93479, "annotation": {"number": 11, "value": 91}, "group": "control_change"}, {"time": 93598, "annotation": {"number": 11, "value": 92}, "group": "control_change"}, {"time": 93718, "annotation": {"number": 11, "value": 93}, "group": "control_change"}, {"time": 93838, "annotation": {"number": 11, "value": 94}, "group": "control_change"}, {"time": 93959, "annotation": {"number": 11, "value": 95}, "group": "control_change"}, {"time": 94079, "annotation": {"number": 11, "value": 96}, "group": "control_change"}, {"time": 94200, "annotation": {"number": 11, "value": 97}, "group": "control_change"}, {"time": 94320, "annotation": {"number": 11, "value": 98}, "group": "control_change"}, {"time": 94440, "annotation": {"number": 11, "value": 99}, "group": "control_change"}, {"time": 94561, "annotation": {"number": 11, "value": 100}, "group": "control_change"}, {"time": 96480, "annotation": {"number": 11, "value": 100}, "group": "control_change"}, {"time": 96640, "annotation": {"number": 11, "value": 99}, "group": "control_change"}, {"time": 96721, "annotation": {"number": 11, "value": 98}, "group": "control_change"}, {"time": 96761, "annotation": {"number": 11, "value": 97}, "group": "control_change"}, {"time": 96781, "annotation": {"number": 11, "value": 96}, "group": "control_change"}, {"time": 96801, "annotation": {"number": 11, "value": 95}, "group": "control_change"}, {"time": 96841, "annotation": {"number": 11, "value": 94}, "group": "control_change"}, {"time": 96861, "annotation": {"number": 11, "value": 92}, "group": "control_change"}, {"time": 96881, "annotation": {"number": 11, "value": 90}, "group": "control_change"}, {"time": 96901, "annotation": {"number": 11, "value": 89}, "group": "control_change"}, {"time": 96921, "annotation": {"number": 11, "value": 86}, "group": "control_change"}, {"time": 96941, "annotation": {"number": 11, "value": 84}, "group": "control_change"}, {"time": 96961, "annotation": {"number": 11, "value": 80}, "group": "control_change"}, {"time": 96982, "annotation": {"number": 11, "value": 77}, "group": "control_change"}, {"time": 97002, "annotation": {"number": 11, "value": 72}, "group": "control_change"}, {"time": 97022, "annotation": {"number": 11, "value": 67}, "group": "control_change"}, {"time": 97042, "annotation": {"number": 11, "value": 60}, "group": "control_change"}, {"time": 97062, "annotation": {"number": 11, "value": 53}, "group": "control_change"}, {"time": 97082, "annotation": {"number": 11, "value": 44}, "group": "control_change"}, {"time": 97102, "annotation": {"number": 11, "value": 33}, "group": "control_change"}, {"time": 97122, "annotation": {"number": 11, "value": 20}, "group": "control_change"}, {"time": 105360, "annotation": {"number": 11, "value": 68}, "group": "control_change"}, {"time": 105390, "annotation": {"number": 11, "value": 70}, "group": "control_change"}, {"time": 105420, "annotation": {"number": 11, "value": 72}, "group": "control_change"}, {"time": 105450, "annotation": {"number": 11, "value": 74}, "group": "control_change"}, {"time": 105480, "annotation": {"number": 11, "value": 76}, "group": "control_change"}, {"time": 105510, "annotation": {"number": 11, "value": 78}, "group": "control_change"}, {"time": 105540, "annotation": {"number": 11, "value": 80}, "group": "control_change"}, {"time": 105570, "annotation": {"number": 11, "value": 82}, "group": "control_change"}, {"time": 105601, "annotation": {"number": 11, "value": 84}, "group": "control_change"}, {"time": 105631, "annotation": {"number": 11, "value": 86}, "group": "control_change"}, {"time": 105661, "annotation": {"number": 11, "value": 88}, "group": "control_change"}, {"time": 105691, "annotation": {"number": 11, "value": 90}, "group": "control_change"}, {"time": 105721, "annotation": {"number": 11, "value": 92}, "group": "control_change"}, {"time": 105751, "annotation": {"number": 11, "value": 94}, "group": "control_change"}, {"time": 105781, "annotation": {"number": 11, "value": 96}, "group": "control_change"}, {"time": 105811, "annotation": {"number": 11, "value": 98}, "group": "control_change"}, {"time": 105841, "annotation": {"number": 11, "value": 100}, "group": "control_change"}, {"time": 106082, "annotation": {"number": 11, "value": 76}, "group": "control_change"}, {"time": 106112, "annotation": {"number": 11, "value": 81}, "group": "control_change"}, {"time": 106141, "annotation": {"number": 11, "value": 85}, "group": "control_change"}, {"time": 106171, "annotation": {"number": 11, "value": 87}, "group": "control_change"}, {"time": 106201, "annotation": {"number": 11, "value": 90}, "group": "control_change"}, {"time": 106230, "annotation": {"number": 11, "value": 92}, "group": "control_change"}, {"time": 106260, "annotation": {"number": 11, "value": 93}, "group": "control_change"}, {"time": 106290, "annotation": {"number": 11, "value": 95}, "group": "control_change"}, {"time": 106319, "annotation": {"number": 11, "value": 96}, "group": "control_change"}, {"time": 106349, "annotation": {"number": 11, "value": 97}, "group": "control_change"}, {"time": 106408, "annotation": {"number": 11, "value": 98}, "group": "control_change"}, {"time": 106468, "annotation": {"number": 11, "value": 99}, "group": "control_change"}, {"time": 106556, "annotation": {"number": 11, "value": 100}, "group": "control_change"}, {"time": 107158, "annotation": {"number": 11, "value": 99}, "group": "control_change"}, {"time": 107339, "annotation": {"number": 11, "value": 98}, "group": "control_change"}, {"time": 107429, "annotation": {"number": 11, "value": 97}, "group": "control_change"}, {"time": 107520, "annotation": {"number": 11, "value": 96}, "group": "control_change"}, {"time": 107580, "annotation": {"number": 11, "value": 95}, "group": "control_change"}, {"time": 107640, "annotation": {"number": 11, "value": 94}, "group": "control_change"}, {"time": 107670, "annotation": {"number": 11, "value": 93}, "group": "control_change"}, {"time": 107730, "annotation": {"number": 11, "value": 92}, "group": "control_change"}, {"time": 107760, "annotation": {"number": 11, "value": 91}, "group": "control_change"}, {"time": 107790, "annotation": {"number": 11, "value": 90}, "group": "control_change"}, {"time": 107821, "annotation": {"number": 11, "value": 88}, "group": "control_change"}, {"time": 107851, "annotation": {"number": 11, "value": 87}, "group": "control_change"}, {"time": 107881, "annotation": {"number": 11, "value": 85}, "group": "control_change"}, {"time": 107911, "annotation": {"number": 11, "value": 84}, "group": "control_change"}, {"time": 107941, "annotation": {"number": 11, "value": 82}, "group": "control_change"}, {"time": 107971, "annotation": {"number": 11, "value": 79}, "group": "control_change"}, {"time": 108001, "annotation": {"number": 11, "value": 76}, "group": "control_change"}, {"time": 108001, "annotation": {"number": 11, "value": 76}, "group": "control_change"}, {"time": 108031, "annotation": {"number": 11, "value": 80}, "group": "control_change"}, {"time": 108061, "annotation": {"number": 11, "value": 84}, "group": "control_change"}, {"time": 108091, "annotation": {"number": 11, "value": 86}, "group": "control_change"}, {"time": 108122, "annotation": {"number": 11, "value": 88}, "group": "control_change"}, {"time": 108152, "annotation": {"number": 11, "value": 90}, "group": "control_change"}, {"time": 108182, "annotation": {"number": 11, "value": 92}, "group": "control_change"}, {"time": 108212, "annotation": {"number": 11, "value": 93}, "group": "control_change"}, {"time": 108242, "annotation": {"number": 11, "value": 94}, "group": "control_change"}, {"time": 108272, "annotation": {"number": 11, "value": 96}, "group": "control_change"}, {"time": 108332, "annotation": {"number": 11, "value": 97}, "group": "control_change"}, {"time": 108392, "annotation": {"number": 11, "value": 98}, "group": "control_change"}, {"time": 108453, "annotation": {"number": 11, "value": 99}, "group": "control_change"}, {"time": 108572, "annotation": {"number": 11, "value": 100}, "group": "control_change"}, {"time": 110883, "annotation": {"number": 11, "value": 76}, "group": "control_change"}, {"time": 110913, "annotation": {"number": 11, "value": 81}, "group": "control_change"}, {"time": 110943, "annotation": {"number": 11, "value": 85}, "group": "control_change"}, {"time": 110972, "annotation": {"number": 11, "value": 88}, "group": "control_change"}, {"time": 111002, "annotation": {"number": 11, "value": 90}, "group": "control_change"}, {"time": 111031, "annotation": {"number": 11, "value": 92}, "group": "control_change"}, {"time": 111061, "annotation": {"number": 11, "value": 94}, "group": "control_change"}, {"time": 111091, "annotation": {"number": 11, "value": 95}, "group": "control_change"}, {"time": 111120, "annotation": {"number": 11, "value": 96}, "group": "control_change"}, {"time": 111150, "annotation": {"number": 11, "value": 97}, "group": "control_change"}, {"time": 111209, "annotation": {"number": 11, "value": 98}, "group": "control_change"}, {"time": 111239, "annotation": {"number": 11, "value": 99}, "group": "control_change"}, {"time": 111358, "annotation": {"number": 11, "value": 100}, "group": "control_change"}, {"time": 111839, "annotation": {"number": 11, "value": 100}, "group": "control_change"}, {"time": 112291, "annotation": {"number": 11, "value": 99}, "group": "control_change"}, {"time": 112501, "annotation": {"number": 11, "value": 98}, "group": "control_change"}, {"time": 112592, "annotation": {"number": 11, "value": 97}, "group": "control_change"}, {"time": 112652, "annotation": {"number": 11, "value": 96}, "group": "control_change"}, {"time": 112712, "annotation": {"number": 11, "value": 95}, "group": "control_change"}, {"time": 112772, "annotation": {"number": 11, "value": 94}, "group": "control_change"}, {"time": 112802, "annotation": {"number": 11, "value": 93}, "group": "control_change"}, {"time": 112862, "annotation": {"number": 11, "value": 92}, "group": "control_change"}, {"time": 112891, "annotation": {"number": 11, "value": 91}, "group": "control_change"}, {"time": 112921, "annotation": {"number": 11, "value": 90}, "group": "control_change"}, {"time": 112950, "annotation": {"number": 11, "value": 88}, "group": "control_change"}, {"time": 112980, "annotation": {"number": 11, "value": 86}, "group": "control_change"}, {"time": 113010, "annotation": {"number": 11, "value": 85}, "group": "control_change"}, {"time": 113039, "annotation": {"number": 11, "value": 83}, "group": "control_change"}, {"time": 113069, "annotation": {"number": 11, "value": 81}, "group": "control_change"}, {"time": 113099, "annotation": {"number": 11, "value": 79}, "group": "control_change"}, {"time": 113128, "annotation": {"number": 11, "value": 77}, "group": "control_change"}, {"time": 113158, "annotation": {"number": 11, "value": 74}, "group": "control_change"}, {"time": 113188, "annotation": {"number": 11, "value": 71}, "group": "control_change"}, {"time": 113217, "annotation": {"number": 11, "value": 67}, "group": "control_change"}, {"time": 113247, "annotation": {"number": 11, "value": 64}, "group": "control_change"}, {"time": 113277, "annotation": {"number": 11, "value": 59}, "group": "control_change"}, {"time": 113307, "annotation": {"number": 11, "value": 55}, "group": "control_change"}, {"time": 113337, "annotation": {"number": 11, "value": 49}, "group": "control_change"}, {"time": 113367, "annotation": {"number": 11, "value": 44}, "group": "control_change"}, {"time": 129117, "annotation": {"number": 11, "value": 100}, "group": "control_change"}, {"time": 131036, "annotation": {"number": 11, "value": 76}, "group": "control_change"}, {"time": 131056, "annotation": {"number": 11, "value": 79}, "group": "control_change"}, {"time": 131076, "annotation": {"number": 11, "value": 80}, "group": "control_change"}, {"time": 131097, "annotation": {"number": 11, "value": 81}, "group": "control_change"}, {"time": 131117, "annotation": {"number": 11, "value": 82}, "group": "control_change"}, {"time": 131137, "annotation": {"number": 11, "value": 84}, "group": "control_change"}, {"time": 131157, "annotation": {"number": 11, "value": 85}, "group": "control_change"}, {"time": 131177, "annotation": {"number": 11, "value": 86}, "group": "control_change"}, {"time": 131197, "annotation": {"number": 11, "value": 87}, "group": "control_change"}, {"time": 131237, "annotation": {"number": 11, "value": 88}, "group": "control_change"}, {"time": 131257, "annotation": {"number": 11, "value": 89}, "group": "control_change"}, {"time": 131277, "annotation": {"number": 11, "value": 90}, "group": "control_change"}, {"time": 131317, "annotation": {"number": 11, "value": 91}, "group": "control_change"}, {"time": 131337, "annotation": {"number": 11, "value": 92}, "group": "control_change"}, {"time": 131377, "annotation": {"number": 11, "value": 93}, "group": "control_change"}, {"time": 131418, "annotation": {"number": 11, "value": 94}, "group": "control_change"}, {"time": 131478, "annotation": {"number": 11, "value": 95}, "group": "control_change"}, {"time": 131518, "annotation": {"number": 11, "value": 96}, "group": "control_change"}, {"time": 131578, "annotation": {"number": 11, "value": 97}, "group": "control_change"}, {"time": 131678, "annotation": {"number": 11, "value": 98}, "group": "control_change"}, {"time": 131799, "annotation": {"number": 11, "value": 99}, "group": "control_change"}, {"time": 132000, "annotation": {"number": 11, "value": 100}, "group": "control_change"}, {"time": 132963, "annotation": {"number": 11, "value": 100}, "group": "control_change"}, {"time": 133081, "annotation": {"number": 11, "value": 99}, "group": "control_change"}, {"time": 133200, "annotation": {"number": 11, "value": 98}, "group": "control_change"}, {"time": 133318, "annotation": {"number": 11, "value": 97}, "group": "control_change"}, {"time": 133437, "annotation": {"number": 11, "value": 96}, "group": "control_change"}, {"time": 133557, "annotation": {"number": 11, "value": 95}, "group": "control_change"}, {"time": 133678, "annotation": {"number": 11, "value": 94}, "group": "control_change"}, {"time": 133798, "annotation": {"number": 11, "value": 93}, "group": "control_change"}, {"time": 133919, "annotation": {"number": 11, "value": 92}, "group": "control_change"}, {"time": 134039, "annotation": {"number": 11, "value": 91}, "group": "control_change"}, {"time": 134159, "annotation": {"number": 11, "value": 90}, "group": "control_change"}, {"time": 134280, "annotation": {"number": 11, "value": 89}, "group": "control_change"}, {"time": 134400, "annotation": {"number": 11, "value": 88}, "group": "control_change"}, {"time": 134521, "annotation": {"number": 11, "value": 87}, "group": "control_change"}, {"time": 134641, "annotation": {"number": 11, "value": 86}, "group": "control_change"}, {"time": 134761, "annotation": {"number": 11, "value": 85}, "group": "control_change"}, {"time": 134882, "annotation": {"number": 11, "value": 84}, "group": "control_change"}, {"time": 134882, "annotation": {"number": 11, "value": 84}, "group": "control_change"}, {"time": 135002, "annotation": {"number": 11, "value": 85}, "group": "control_change"}, {"time": 135122, "annotation": {"number": 11, "value": 86}, "group": "control_change"}, {"time": 135243, "annotation": {"number": 11, "value": 87}, "group": "control_change"}, {"time": 135363, "annotation": {"number": 11, "value": 88}, "group": "control_change"}, {"time": 135482, "annotation": {"number": 11, "value": 89}, "group": "control_change"}, {"time": 135600, "annotation": {"number": 11, "value": 90}, "group": "control_change"}, {"time": 135719, "annotation": {"number": 11, "value": 91}, "group": "control_change"}, {"time": 135838, "annotation": {"number": 11, "value": 92}, "group": "control_change"}, {"time": 135958, "annotation": {"number": 11, "value": 93}, "group": "control_change"}, {"time": 136078, "annotation": {"number": 11, "value": 94}, "group": "control_change"}, {"time": 136199, "annotation": {"number": 11, "value": 95}, "group": "control_change"}, {"time": 136319, "annotation": {"number": 11, "value": 96}, "group": "control_change"}, {"time": 136439, "annotation": {"number": 11, "value": 97}, "group": "control_change"}, {"time": 136560, "annotation": {"number": 11, "value": 98}, "group": "control_change"}, {"time": 136680, "annotation": {"number": 11, "value": 99}, "group": "control_change"}, {"time": 136801, "annotation": {"number": 11, "value": 100}, "group": "control_change"}, {"time": 138238, "annotation": {"number": 11, "value": 76}, "group": "control_change"}, {"time": 138258, "annotation": {"number": 11, "value": 82}, "group": "control_change"}, {"time": 138278, "annotation": {"number": 11, "value": 86}, "group": "control_change"}, {"time": 138298, "annotation": {"number": 11, "value": 88}, "group": "control_change"}, {"time": 138318, "annotation": {"number": 11, "value": 91}, "group": "control_change"}, {"time": 138338, "annotation": {"number": 11, "value": 93}, "group": "control_change"}, {"time": 138358, "annotation": {"number": 11, "value": 94}, "group": "control_change"}, {"time": 138379, "annotation": {"number": 11, "value": 96}, "group": "control_change"}, {"time": 138399, "annotation": {"number": 11, "value": 97}, "group": "control_change"}, {"time": 138439, "annotation": {"number": 11, "value": 98}, "group": "control_change"}, {"time": 138459, "annotation": {"number": 11, "value": 99}, "group": "control_change"}, {"time": 138519, "annotation": {"number": 11, "value": 100}, "group": "control_change"}, {"time": 140639, "annotation": {"number": 11, "value": 100}, "group": "control_change"}, {"time": 141020, "annotation": {"number": 11, "value": 99}, "group": "control_change"}, {"time": 141140, "annotation": {"number": 11, "value": 98}, "group": "control_change"}, {"time": 141201, "annotation": {"number": 11, "value": 97}, "group": "control_change"}, {"time": 141281, "annotation": {"number": 11, "value": 96}, "group": "control_change"}, {"time": 141321, "annotation": {"number": 11, "value": 95}, "group": "control_change"}, {"time": 141341, "annotation": {"number": 11, "value": 94}, "group": "control_change"}, {"time": 141381, "annotation": {"number": 11, "value": 93}, "group": "control_change"}, {"time": 141421, "annotation": {"number": 11, "value": 92}, "group": "control_change"}, {"time": 141441, "annotation": {"number": 11, "value": 91}, "group": "control_change"}, {"time": 141461, "annotation": {"number": 11, "value": 90}, "group": "control_change"}, {"time": 141481, "annotation": {"number": 11, "value": 88}, "group": "control_change"}, {"time": 141522, "annotation": {"number": 11, "value": 86}, "group": "control_change"}, {"time": 141542, "annotation": {"number": 11, "value": 85}, "group": "control_change"}, {"time": 141562, "annotation": {"number": 11, "value": 83}, "group": "control_change"}, {"time": 141582, "annotation": {"number": 11, "value": 81}, "group": "control_change"}, {"time": 141602, "annotation": {"number": 11, "value": 79}, "group": "control_change"}, {"time": 141622, "annotation": {"number": 11, "value": 76}, "group": "control_change"}, {"time": 141642, "annotation": {"number": 11, "value": 74}, "group": "control_change"}, {"time": 141662, "annotation": {"number": 11, "value": 71}, "group": "control_change"}, {"time": 141682, "annotation": {"number": 11, "value": 69}, "group": "control_change"}, {"time": 141702, "annotation": {"number": 11, "value": 65}, "group": "control_change"}, {"time": 141722, "annotation": {"number": 11, "value": 62}, "group": "control_change"}, {"time": 141742, "annotation": {"number": 11, "value": 58}, "group": "control_change"}, {"time": 141762, "annotation": {"number": 11, "value": 52}, "group": "control_change"}, {"time": 144477, "annotation": {"number": 11, "value": 100}, "group": "control_change"}, {"time": 146403, "annotation": {"number": 11, "value": 76}, "group": "control_change"}, {"time": 146423, "annotation": {"number": 11, "value": 79}, "group": "control_change"}, {"time": 146442, "annotation": {"number": 11, "value": 80}, "group": "control_change"}, {"time": 146462, "annotation": {"number": 11, "value": 81}, "group": "control_change"}, {"time": 146482, "annotation": {"number": 11, "value": 82}, "group": "control_change"}, {"time": 146502, "annotation": {"number": 11, "value": 84}, "group": "control_change"}, {"time": 146522, "annotation": {"number": 11, "value": 85}, "group": "control_change"}, {"time": 146541, "annotation": {"number": 11, "value": 86}, "group": "control_change"}, {"time": 146561, "annotation": {"number": 11, "value": 87}, "group": "control_change"}, {"time": 146601, "annotation": {"number": 11, "value": 88}, "group": "control_change"}, {"time": 146620, "annotation": {"number": 11, "value": 89}, "group": "control_change"}, {"time": 146640, "annotation": {"number": 11, "value": 90}, "group": "control_change"}, {"time": 146680, "annotation": {"number": 11, "value": 91}, "group": "control_change"}, {"time": 146699, "annotation": {"number": 11, "value": 92}, "group": "control_change"}, {"time": 146739, "annotation": {"number": 11, "value": 93}, "group": "control_change"}, {"time": 146778, "annotation": {"number": 11, "value": 94}, "group": "control_change"}, {"time": 146838, "annotation": {"number": 11, "value": 95}, "group": "control_change"}, {"time": 146877, "annotation": {"number": 11, "value": 96}, "group": "control_change"}, {"time": 146937, "annotation": {"number": 11, "value": 97}, "group": "control_change"}, {"time": 147038, "annotation": {"number": 11, "value": 98}, "group": "control_change"}, {"time": 147158, "annotation": {"number": 11, "value": 99}, "group": "control_change"}, {"time": 147359, "annotation": {"number": 11, "value": 100}, "group": "control_change"}, {"time": 148322, "annotation": {"number": 11, "value": 100}, "group": "control_change"}, {"time": 148442, "annotation": {"number": 11, "value": 99}, "group": "control_change"}, {"time": 148563, "annotation": {"number": 11, "value": 98}, "group": "control_change"}, {"time": 148683, "annotation": {"number": 11, "value": 97}, "group": "control_change"}, {"time": 148804, "annotation": {"number": 11, "value": 96}, "group": "control_change"}, {"time": 148922, "annotation": {"number": 11, "value": 95}, "group": "control_change"}, {"time": 149041, "annotation": {"number": 11, "value": 94}, "group": "control_change"}, {"time": 149159, "annotation": {"number": 11, "value": 93}, "group": "control_change"}, {"time": 149278, "annotation": {"number": 11, "value": 92}, "group": "control_change"}, {"time": 149398, "annotation": {"number": 11, "value": 91}, "group": "control_change"}, {"time": 149519, "annotation": {"number": 11, "value": 90}, "group": "control_change"}, {"time": 149639, "annotation": {"number": 11, "value": 89}, "group": "control_change"}, {"time": 149759, "annotation": {"number": 11, "value": 88}, "group": "control_change"}, {"time": 149880, "annotation": {"number": 11, "value": 87}, "group": "control_change"}, {"time": 150000, "annotation": {"number": 11, "value": 86}, "group": "control_change"}, {"time": 150121, "annotation": {"number": 11, "value": 85}, "group": "control_change"}, {"time": 150241, "annotation": {"number": 11, "value": 84}, "group": "control_change"}, {"time": 150241, "annotation": {"number": 11, "value": 84}, "group": "control_change"}, {"time": 150361, "annotation": {"number": 11, "value": 85}, "group": "control_change"}, {"time": 150482, "annotation": {"number": 11, "value": 86}, "group": "control_change"}, {"time": 150602, "annotation": {"number": 11, "value": 87}, "group": "control_change"}, {"time": 150723, "annotation": {"number": 11, "value": 88}, "group": "control_change"}, {"time": 150841, "annotation": {"number": 11, "value": 89}, "group": "control_change"}, {"time": 150960, "annotation": {"number": 11, "value": 90}, "group": "control_change"}, {"time": 151078, "annotation": {"number": 11, "value": 91}, "group": "control_change"}, {"time": 151197, "annotation": {"number": 11, "value": 92}, "group": "control_change"}, {"time": 151317, "annotation": {"number": 11, "value": 93}, "group": "control_change"}, {"time": 151438, "annotation": {"number": 11, "value": 94}, "group": "control_change"}, {"time": 151558, "annotation": {"number": 11, "value": 95}, "group": "control_change"}, {"time": 151678, "annotation": {"number": 11, "value": 96}, "group": "control_change"}, {"time": 151799, "annotation": {"number": 11, "value": 97}, "group": "control_change"}, {"time": 151919, "annotation": {"number": 11, "value": 98}, "group": "control_change"}, {"time": 152040, "annotation": {"number": 11, "value": 99}, "group": "control_change"}, {"time": 152160, "annotation": {"number": 11, "value": 100}, "group": "control_change"}, {"time": 153597, "annotation": {"number": 11, "value": 76}, "group": "control_change"}, {"time": 153617, "annotation": {"number": 11, "value": 82}, "group": "control_change"}, {"time": 153637, "annotation": {"number": 11, "value": 86}, "group": "control_change"}, {"time": 153658, "annotation": {"number": 11, "value": 88}, "group": "control_change"}, {"time": 153678, "annotation": {"number": 11, "value": 91}, "group": "control_change"}, {"time": 153698, "annotation": {"number": 11, "value": 93}, "group": "control_change"}, {"time": 153718, "annotation": {"number": 11, "value": 94}, "group": "control_change"}, {"time": 153738, "annotation": {"number": 11, "value": 96}, "group": "control_change"}, {"time": 153758, "annotation": {"number": 11, "value": 97}, "group": "control_change"}, {"time": 153798, "annotation": {"number": 11, "value": 98}, "group": "control_change"}, {"time": 153818, "annotation": {"number": 11, "value": 99}, "group": "control_change"}, {"time": 153878, "annotation": {"number": 11, "value": 100}, "group": "control_change"}, {"time": 155998, "annotation": {"number": 11, "value": 100}, "group": "control_change"}, {"time": 156680, "annotation": {"number": 11, "value": 99}, "group": "control_change"}, {"time": 156801, "annotation": {"number": 11, "value": 98}, "group": "control_change"}, {"time": 156861, "annotation": {"number": 11, "value": 97}, "group": "control_change"}, {"time": 156941, "annotation": {"number": 11, "value": 96}, "group": "control_change"}, {"time": 156981, "annotation": {"number": 11, "value": 95}, "group": "control_change"}, {"time": 157001, "annotation": {"number": 11, "value": 94}, "group": "control_change"}, {"time": 157041, "annotation": {"number": 11, "value": 93}, "group": "control_change"}, {"time": 157081, "annotation": {"number": 11, "value": 92}, "group": "control_change"}, {"time": 157102, "annotation": {"number": 11, "value": 91}, "group": "control_change"}, {"time": 157122, "annotation": {"number": 11, "value": 90}, "group": "control_change"}, {"time": 157142, "annotation": {"number": 11, "value": 88}, "group": "control_change"}, {"time": 157182, "annotation": {"number": 11, "value": 86}, "group": "control_change"}, {"time": 157202, "annotation": {"number": 11, "value": 85}, "group": "control_change"}, {"time": 157222, "annotation": {"number": 11, "value": 83}, "group": "control_change"}, {"time": 157242, "annotation": {"number": 11, "value": 81}, "group": "control_change"}, {"time": 157262, "annotation": {"number": 11, "value": 79}, "group": "control_change"}, {"time": 157282, "annotation": {"number": 11, "value": 76}, "group": "control_change"}, {"time": 157302, "annotation": {"number": 11, "value": 74}, "group": "control_change"}, {"time": 157322, "annotation": {"number": 11, "value": 71}, "group": "control_change"}, {"time": 157342, "annotation": {"number": 11, "value": 69}, "group": "control_change"}, {"time": 157362, "annotation": {"number": 11, "value": 65}, "group": "control_change"}, {"time": 157382, "annotation": {"number": 11, "value": 62}, "group": "control_change"}, {"time": 157403, "annotation": {"number": 11, "value": 58}, "group": "control_change"}, {"time": 157423, "annotation": {"number": 11, "value": 52}, "group": "control_change"}, {"time": 161521, "annotation": {"number": 11, "value": 76}, "group": "control_change"}, {"time": 161542, "annotation": {"number": 11, "value": 86}, "group": "control_change"}, {"time": 161562, "annotation": {"number": 11, "value": 91}, "group": "control_change"}, {"time": 161582, "annotation": {"number": 11, "value": 94}, "group": "control_change"}, {"time": 161602, "annotation": {"number": 11, "value": 97}, "group": "control_change"}, {"time": 161622, "annotation": {"number": 11, "value": 98}, "group": "control_change"}, {"time": 161642, "annotation": {"number": 11, "value": 99}, "group": "control_change"}, {"time": 161662, "annotation": {"number": 11, "value": 100}, "group": "control_change"}, {"time": 165600, "annotation": {"number": 11, "value": 76}, "group": "control_change"}, {"time": 165620, "annotation": {"number": 11, "value": 79}, "group": "control_change"}, {"time": 165640, "annotation": {"number": 11, "value": 80}, "group": "control_change"}, {"time": 165660, "annotation": {"number": 11, "value": 81}, "group": "control_change"}, {"time": 165680, "annotation": {"number": 11, "value": 82}, "group": "control_change"}, {"time": 165701, "annotation": {"number": 11, "value": 84}, "group": "control_change"}, {"time": 165721, "annotation": {"number": 11, "value": 85}, "group": "control_change"}, {"time": 165741, "annotation": {"number": 11, "value": 86}, "group": "control_change"}, {"time": 165761, "annotation": {"number": 11, "value": 87}, "group": "control_change"}, {"time": 165801, "annotation": {"number": 11, "value": 88}, "group": "control_change"}, {"time": 165821, "annotation": {"number": 11, "value": 89}, "group": "control_change"}, {"time": 165841, "annotation": {"number": 11, "value": 90}, "group": "control_change"}, {"time": 165881, "annotation": {"number": 11, "value": 91}, "group": "control_change"}, {"time": 165901, "annotation": {"number": 11, "value": 92}, "group": "control_change"}, {"time": 165941, "annotation": {"number": 11, "value": 93}, "group": "control_change"}, {"time": 165981, "annotation": {"number": 11, "value": 94}, "group": "control_change"}, {"time": 166042, "annotation": {"number": 11, "value": 95}, "group": "control_change"}, {"time": 166082, "annotation": {"number": 11, "value": 96}, "group": "control_change"}, {"time": 166142, "annotation": {"number": 11, "value": 97}, "group": "control_change"}, {"time": 166242, "annotation": {"number": 11, "value": 98}, "group": "control_change"}, {"time": 166363, "annotation": {"number": 11, "value": 99}, "group": "control_change"}, {"time": 166563, "annotation": {"number": 11, "value": 100}, "group": "control_change"}, {"time": 167519, "annotation": {"number": 11, "value": 100}, "group": "control_change"}, {"time": 167640, "annotation": {"number": 11, "value": 99}, "group": "control_change"}, {"time": 167760, "annotation": {"number": 11, "value": 98}, "group": "control_change"}, {"time": 167880, "annotation": {"number": 11, "value": 97}, "group": "control_change"}, {"time": 168001, "annotation": {"number": 11, "value": 96}, "group": "control_change"}, {"time": 168121, "annotation": {"number": 11, "value": 95}, "group": "control_change"}, {"time": 168242, "annotation": {"number": 11, "value": 94}, "group": "control_change"}, {"time": 168362, "annotation": {"number": 11, "value": 93}, "group": "control_change"}, {"time": 168482, "annotation": {"number": 11, "value": 92}, "group": "control_change"}, {"time": 168601, "annotation": {"number": 11, "value": 91}, "group": "control_change"}, {"time": 168719, "annotation": {"number": 11, "value": 90}, "group": "control_change"}, {"time": 168838, "annotation": {"number": 11, "value": 89}, "group": "control_change"}, {"time": 168957, "annotation": {"number": 11, "value": 88}, "group": "control_change"}, {"time": 169077, "annotation": {"number": 11, "value": 87}, "group": "control_change"}, {"time": 169197, "annotation": {"number": 11, "value": 86}, "group": "control_change"}, {"time": 169318, "annotation": {"number": 11, "value": 85}, "group": "control_change"}, {"time": 169438, "annotation": {"number": 11, "value": 84}, "group": "control_change"}, {"time": 169438, "annotation": {"number": 11, "value": 84}, "group": "control_change"}, {"time": 169559, "annotation": {"number": 11, "value": 85}, "group": "control_change"}, {"time": 169679, "annotation": {"number": 11, "value": 86}, "group": "control_change"}, {"time": 169799, "annotation": {"number": 11, "value": 87}, "group": "control_change"}, {"time": 169920, "annotation": {"number": 11, "value": 88}, "group": "control_change"}, {"time": 170040, "annotation": {"number": 11, "value": 89}, "group": "control_change"}, {"time": 170161, "annotation": {"number": 11, "value": 90}, "group": "control_change"}, {"time": 170281, "annotation": {"number": 11, "value": 91}, "group": "control_change"}, {"time": 170401, "annotation": {"number": 11, "value": 92}, "group": "control_change"}, {"time": 170522, "annotation": {"number": 11, "value": 93}, "group": "control_change"}, {"time": 170642, "annotation": {"number": 11, "value": 94}, "group": "control_change"}, {"time": 170763, "annotation": {"number": 11, "value": 95}, "group": "control_change"}, {"time": 170883, "annotation": {"number": 11, "value": 96}, "group": "control_change"}, {"time": 171001, "annotation": {"number": 11, "value": 97}, "group": "control_change"}, {"time": 171120, "annotation": {"number": 11, "value": 98}, "group": "control_change"}, {"time": 171239, "annotation": {"number": 11, "value": 99}, "group": "control_change"}, {"time": 171357, "annotation": {"number": 11, "value": 100}, "group": "control_change"}, {"time": 172802, "annotation": {"number": 11, "value": 76}, "group": "control_change"}, {"time": 172822, "annotation": {"number": 11, "value": 82}, "group": "control_change"}, {"time": 172842, "annotation": {"number": 11, "value": 86}, "group": "control_change"}, {"time": 172862, "annotation": {"number": 11, "value": 88}, "group": "control_change"}, {"time": 172882, "annotation": {"number": 11, "value": 91}, "group": "control_change"}, {"time": 172902, "annotation": {"number": 11, "value": 93}, "group": "control_change"}, {"time": 172922, "annotation": {"number": 11, "value": 94}, "group": "control_change"}, {"time": 172942, "annotation": {"number": 11, "value": 96}, "group": "control_change"}, {"time": 172962, "annotation": {"number": 11, "value": 97}, "group": "control_change"}, {"time": 173003, "annotation": {"number": 11, "value": 98}, "group": "control_change"}, {"time": 173023, "annotation": {"number": 11, "value": 99}, "group": "control_change"}, {"time": 173083, "annotation": {"number": 11, "value": 100}, "group": "control_change"}, {"time": 175202, "annotation": {"number": 11, "value": 100}, "group": "control_change"}, {"time": 175578, "annotation": {"number": 11, "value": 99}, "group": "control_change"}, {"time": 175697, "annotation": {"number": 11, "value": 98}, "group": "control_change"}, {"time": 175757, "annotation": {"number": 11, "value": 97}, "group": "control_change"}, {"time": 175837, "annotation": {"number": 11, "value": 96}, "group": "control_change"}, {"time": 175877, "annotation": {"number": 11, "value": 95}, "group": "control_change"}, {"time": 175897, "annotation": {"number": 11, "value": 94}, "group": "control_change"}, {"time": 175938, "annotation": {"number": 11, "value": 93}, "group": "control_change"}, {"time": 175978, "annotation": {"number": 11, "value": 92}, "group": "control_change"}, {"time": 175998, "annotation": {"number": 11, "value": 91}, "group": "control_change"}, {"time": 176018, "annotation": {"number": 11, "value": 90}, "group": "control_change"}, {"time": 176038, "annotation": {"number": 11, "value": 88}, "group": "control_change"}, {"time": 176078, "annotation": {"number": 11, "value": 86}, "group": "control_change"}, {"time": 176098, "annotation": {"number": 11, "value": 85}, "group": "control_change"}, {"time": 176118, "annotation": {"number": 11, "value": 83}, "group": "control_change"}, {"time": 176138, "annotation": {"number": 11, "value": 81}, "group": "control_change"}, {"time": 176158, "annotation": {"number": 11, "value": 79}, "group": "control_change"}, {"time": 176178, "annotation": {"number": 11, "value": 76}, "group": "control_change"}, {"time": 176198, "annotation": {"number": 11, "value": 74}, "group": "control_change"}, {"time": 176219, "annotation": {"number": 11, "value": 71}, "group": "control_change"}, {"time": 176239, "annotation": {"number": 11, "value": 69}, "group": "control_change"}, {"time": 176259, "annotation": {"number": 11, "value": 65}, "group": "control_change"}, {"time": 176279, "annotation": {"number": 11, "value": 62}, "group": "control_change"}, {"time": 176299, "annotation": {"number": 11, "value": 58}, "group": "control_change"}, {"time": 176319, "annotation": {"number": 11, "value": 52}, "group": "control_change"}, {"time": 179040, "annotation": {"number": 11, "value": 100}, "group": "control_change"}, {"time": 180959, "annotation": {"number": 11, "value": 76}, "group": "control_change"}, {"time": 180980, "annotation": {"number": 11, "value": 79}, "group": "control_change"}, {"time": 181000, "annotation": {"number": 11, "value": 80}, "group": "control_change"}, {"time": 181020, "annotation": {"number": 11, "value": 81}, "group": "control_change"}, {"time": 181040, "annotation": {"number": 11, "value": 82}, "group": "control_change"}, {"time": 181060, "annotation": {"number": 11, "value": 84}, "group": "control_change"}, {"time": 181080, "annotation": {"number": 11, "value": 85}, "group": "control_change"}, {"time": 181100, "annotation": {"number": 11, "value": 86}, "group": "control_change"}, {"time": 181120, "annotation": {"number": 11, "value": 87}, "group": "control_change"}, {"time": 181160, "annotation": {"number": 11, "value": 88}, "group": "control_change"}, {"time": 181180, "annotation": {"number": 11, "value": 89}, "group": "control_change"}, {"time": 181200, "annotation": {"number": 11, "value": 90}, "group": "control_change"}, {"time": 181240, "annotation": {"number": 11, "value": 91}, "group": "control_change"}, {"time": 181260, "annotation": {"number": 11, "value": 92}, "group": "control_change"}, {"time": 181301, "annotation": {"number": 11, "value": 93}, "group": "control_change"}, {"time": 181341, "annotation": {"number": 11, "value": 94}, "group": "control_change"}, {"time": 181401, "annotation": {"number": 11, "value": 95}, "group": "control_change"}, {"time": 181441, "annotation": {"number": 11, "value": 96}, "group": "control_change"}, {"time": 181501, "annotation": {"number": 11, "value": 97}, "group": "control_change"}, {"time": 181602, "annotation": {"number": 11, "value": 98}, "group": "control_change"}, {"time": 181722, "annotation": {"number": 11, "value": 99}, "group": "control_change"}, {"time": 181923, "annotation": {"number": 11, "value": 100}, "group": "control_change"}, {"time": 182878, "annotation": {"number": 11, "value": 100}, "group": "control_change"}, {"time": 182999, "annotation": {"number": 11, "value": 99}, "group": "control_change"}, {"time": 183119, "annotation": {"number": 11, "value": 98}, "group": "control_change"}, {"time": 183240, "annotation": {"number": 11, "value": 97}, "group": "control_change"}, {"time": 183360, "annotation": {"number": 11, "value": 96}, "group": "control_change"}, {"time": 183480, "annotation": {"number": 11, "value": 95}, "group": "control_change"}, {"time": 183601, "annotation": {"number": 11, "value": 94}, "group": "control_change"}, {"time": 183721, "annotation": {"number": 11, "value": 93}, "group": "control_change"}, {"time": 183842, "annotation": {"number": 11, "value": 92}, "group": "control_change"}, {"time": 183962, "annotation": {"number": 11, "value": 91}, "group": "control_change"}, {"time": 184082, "annotation": {"number": 11, "value": 90}, "group": "control_change"}, {"time": 184203, "annotation": {"number": 11, "value": 89}, "group": "control_change"}, {"time": 184323, "annotation": {"number": 11, "value": 88}, "group": "control_change"}, {"time": 184442, "annotation": {"number": 11, "value": 87}, "group": "control_change"}, {"time": 184560, "annotation": {"number": 11, "value": 86}, "group": "control_change"}, {"time": 184679, "annotation": {"number": 11, "value": 85}, "group": "control_change"}, {"time": 184797, "annotation": {"number": 11, "value": 84}, "group": "control_change"}, {"time": 184797, "annotation": {"number": 11, "value": 84}, "group": "control_change"}, {"time": 184918, "annotation": {"number": 11, "value": 85}, "group": "control_change"}, {"time": 185038, "annotation": {"number": 11, "value": 86}, "group": "control_change"}, {"time": 185159, "annotation": {"number": 11, "value": 87}, "group": "control_change"}, {"time": 185279, "annotation": {"number": 11, "value": 88}, "group": "control_change"}, {"time": 185399, "annotation": {"number": 11, "value": 89}, "group": "control_change"}, {"time": 185520, "annotation": {"number": 11, "value": 90}, "group": "control_change"}, {"time": 185640, "annotation": {"number": 11, "value": 91}, "group": "control_change"}, {"time": 185761, "annotation": {"number": 11, "value": 92}, "group": "control_change"}, {"time": 185881, "annotation": {"number": 11, "value": 93}, "group": "control_change"}, {"time": 186001, "annotation": {"number": 11, "value": 94}, "group": "control_change"}, {"time": 186122, "annotation": {"number": 11, "value": 95}, "group": "control_change"}, {"time": 186242, "annotation": {"number": 11, "value": 96}, "group": "control_change"}, {"time": 186361, "annotation": {"number": 11, "value": 97}, "group": "control_change"}, {"time": 186479, "annotation": {"number": 11, "value": 98}, "group": "control_change"}, {"time": 186598, "annotation": {"number": 11, "value": 99}, "group": "control_change"}, {"time": 186716, "annotation": {"number": 11, "value": 100}, "group": "control_change"}, {"time": 188161, "annotation": {"number": 11, "value": 76}, "group": "control_change"}, {"time": 188181, "annotation": {"number": 11, "value": 82}, "group": "control_change"}, {"time": 188201, "annotation": {"number": 11, "value": 86}, "group": "control_change"}, {"time": 188221, "annotation": {"number": 11, "value": 88}, "group": "control_change"}, {"time": 188241, "annotation": {"number": 11, "value": 91}, "group": "control_change"}, {"time": 188262, "annotation": {"number": 11, "value": 93}, "group": "control_change"}, {"time": 188282, "annotation": {"number": 11, "value": 94}, "group": "control_change"}, {"time": 188302, "annotation": {"number": 11, "value": 96}, "group": "control_change"}, {"time": 188322, "annotation": {"number": 11, "value": 97}, "group": "control_change"}, {"time": 188362, "annotation": {"number": 11, "value": 98}, "group": "control_change"}, {"time": 188382, "annotation": {"number": 11, "value": 99}, "group": "control_change"}, {"time": 188442, "annotation": {"number": 11, "value": 100}, "group": "control_change"}, {"time": 190562, "annotation": {"number": 11, "value": 100}, "group": "control_change"}, {"time": 191241, "annotation": {"number": 11, "value": 99}, "group": "control_change"}, {"time": 191360, "annotation": {"number": 11, "value": 98}, "group": "control_change"}, {"time": 191419, "annotation": {"number": 11, "value": 97}, "group": "control_change"}, {"time": 191498, "annotation": {"number": 11, "value": 96}, "group": "control_change"}, {"time": 191538, "annotation": {"number": 11, "value": 95}, "group": "control_change"}, {"time": 191558, "annotation": {"number": 11, "value": 94}, "group": "control_change"}, {"time": 191598, "annotation": {"number": 11, "value": 93}, "group": "control_change"}, {"time": 191638, "annotation": {"number": 11, "value": 92}, "group": "control_change"}, {"time": 191658, "annotation": {"number": 11, "value": 91}, "group": "control_change"}, {"time": 191678, "annotation": {"number": 11, "value": 90}, "group": "control_change"}, {"time": 191698, "annotation": {"number": 11, "value": 88}, "group": "control_change"}, {"time": 191738, "annotation": {"number": 11, "value": 86}, "group": "control_change"}, {"time": 191758, "annotation": {"number": 11, "value": 85}, "group": "control_change"}, {"time": 191778, "annotation": {"number": 11, "value": 83}, "group": "control_change"}, {"time": 191799, "annotation": {"number": 11, "value": 81}, "group": "control_change"}, {"time": 191819, "annotation": {"number": 11, "value": 79}, "group": "control_change"}, {"time": 191839, "annotation": {"number": 11, "value": 76}, "group": "control_change"}, {"time": 191859, "annotation": {"number": 11, "value": 74}, "group": "control_change"}, {"time": 191879, "annotation": {"number": 11, "value": 71}, "group": "control_change"}, {"time": 191899, "annotation": {"number": 11, "value": 69}, "group": "control_change"}, {"time": 191919, "annotation": {"number": 11, "value": 65}, "group": "control_change"}, {"time": 191939, "annotation": {"number": 11, "value": 62}, "group": "control_change"}, {"time": 191959, "annotation": {"number": 11, "value": 58}, "group": "control_change"}, {"time": 191979, "annotation": {"number": 11, "value": 52}, "group": "control_change"}, {"time": 196078, "annotation": {"number": 11, "value": 68}, "group": "control_change"}, {"time": 196098, "annotation": {"number": 11, "value": 81}, "group": "control_change"}, {"time": 196118, "annotation": {"number": 11, "value": 88}, "group": "control_change"}, {"time": 196138, "annotation": {"number": 11, "value": 92}, "group": "control_change"}, {"time": 196158, "annotation": {"number": 11, "value": 96}, "group": "control_change"}, {"time": 196178, "annotation": {"number": 11, "value": 97}, "group": "control_change"}, {"time": 196198, "annotation": {"number": 11, "value": 98}, "group": "control_change"}, {"time": 196218, "annotation": {"number": 11, "value": 99}, "group": "control_change"}, {"time": 196238, "annotation": {"number": 11, "value": 100}, "group": "control_change"}, {"time": 196319, "annotation": {"number": 11, "value": 100}, "group": "control_change"}, {"time": 197041, "annotation": {"number": 11, "value": 99}, "group": "control_change"}, {"time": 197282, "annotation": {"number": 11, "value": 98}, "group": "control_change"}, {"time": 197442, "annotation": {"number": 11, "value": 97}, "group": "control_change"}, {"time": 197523, "annotation": {"number": 11, "value": 96}, "group": "control_change"}, {"time": 197623, "annotation": {"number": 11, "value": 95}, "group": "control_change"}, {"time": 197683, "annotation": {"number": 11, "value": 94}, "group": "control_change"}, {"time": 197723, "annotation": {"number": 11, "value": 93}, "group": "control_change"}, {"time": 197763, "annotation": {"number": 11, "value": 92}, "group": "control_change"}, {"time": 197823, "annotation": {"number": 11, "value": 91}, "group": "control_change"}, {"time": 197862, "annotation": {"number": 11, "value": 90}, "group": "control_change"}, {"time": 197882, "annotation": {"number": 11, "value": 89}, "group": "control_change"}, {"time": 197922, "annotation": {"number": 11, "value": 88}, "group": "control_change"}, {"time": 197941, "annotation": {"number": 11, "value": 87}, "group": "control_change"}, {"time": 197961, "annotation": {"number": 11, "value": 86}, "group": "control_change"}, {"time": 198001, "annotation": {"number": 11, "value": 84}, "group": "control_change"}, {"time": 198040, "annotation": {"number": 11, "value": 83}, "group": "control_change"}, {"time": 198060, "annotation": {"number": 11, "value": 81}, "group": "control_change"}, {"time": 198099, "annotation": {"number": 11, "value": 79}, "group": "control_change"}, {"time": 198119, "annotation": {"number": 11, "value": 78}, "group": "control_change"}, {"time": 198139, "annotation": {"number": 11, "value": 77}, "group": "control_change"}, {"time": 198159, "annotation": {"number": 11, "value": 75}, "group": "control_change"}, {"time": 198178, "annotation": {"number": 11, "value": 74}, "group": "control_change"}, {"time": 198198, "annotation": {"number": 11, "value": 72}, "group": "control_change"}, {"time": 198218, "annotation": {"number": 11, "value": 71}, "group": "control_change"}, {"time": 198238, "annotation": {"number": 11, "value": 68}, "group": "control_change"}, {"time": 198238, "annotation": {"number": 11, "value": 68}, "group": "control_change"}, {"time": 198298, "annotation": {"number": 11, "value": 69}, "group": "control_change"}, {"time": 198358, "annotation": {"number": 11, "value": 70}, "group": "control_change"}, {"time": 198388, "annotation": {"number": 11, "value": 71}, "group": "control_change"}, {"time": 198448, "annotation": {"number": 11, "value": 72}, "group": "control_change"}, {"time": 198479, "annotation": {"number": 11, "value": 73}, "group": "control_change"}, {"time": 198539, "annotation": {"number": 11, "value": 74}, "group": "control_change"}, {"time": 198599, "annotation": {"number": 11, "value": 75}, "group": "control_change"}, {"time": 198629, "annotation": {"number": 11, "value": 76}, "group": "control_change"}, {"time": 198689, "annotation": {"number": 11, "value": 77}, "group": "control_change"}, {"time": 198719, "annotation": {"number": 11, "value": 78}, "group": "control_change"}, {"time": 198779, "annotation": {"number": 11, "value": 79}, "group": "control_change"}, {"time": 198810, "annotation": {"number": 11, "value": 80}, "group": "control_change"}, {"time": 198870, "annotation": {"number": 11, "value": 81}, "group": "control_change"}, {"time": 198930, "annotation": {"number": 11, "value": 82}, "group": "control_change"}, {"time": 198960, "annotation": {"number": 11, "value": 83}, "group": "control_change"}, {"time": 199020, "annotation": {"number": 11, "value": 84}, "group": "control_change"}, {"time": 199050, "annotation": {"number": 11, "value": 85}, "group": "control_change"}, {"time": 199111, "annotation": {"number": 11, "value": 86}, "group": "control_change"}, {"time": 199171, "annotation": {"number": 11, "value": 87}, "group": "control_change"}, {"time": 199201, "annotation": {"number": 11, "value": 88}, "group": "control_change"}, {"time": 199261, "annotation": {"number": 11, "value": 89}, "group": "control_change"}, {"time": 199291, "annotation": {"number": 11, "value": 90}, "group": "control_change"}, {"time": 199351, "annotation": {"number": 11, "value": 91}, "group": "control_change"}, {"time": 199381, "annotation": {"number": 11, "value": 92}, "group": "control_change"}, {"time": 199442, "annotation": {"number": 11, "value": 93}, "group": "control_change"}, {"time": 199502, "annotation": {"number": 11, "value": 94}, "group": "control_change"}, {"time": 199532, "annotation": {"number": 11, "value": 95}, "group": "control_change"}, {"time": 199592, "annotation": {"number": 11, "value": 96}, "group": "control_change"}, {"time": 199622, "annotation": {"number": 11, "value": 97}, "group": "control_change"}, {"time": 199682, "annotation": {"number": 11, "value": 98}, "group": "control_change"}, {"time": 199742, "annotation": {"number": 11, "value": 99}, "group": "control_change"}, {"time": 199771, "annotation": {"number": 11, "value": 100}, "group": "control_change"}, {"time": 200157, "annotation": {"number": 11, "value": 100}, "group": "control_change"}, {"time": 200277, "annotation": {"number": 11, "value": 99}, "group": "control_change"}, {"time": 200397, "annotation": {"number": 11, "value": 98}, "group": "control_change"}, {"time": 200518, "annotation": {"number": 11, "value": 97}, "group": "control_change"}, {"time": 200638, "annotation": {"number": 11, "value": 96}, "group": "control_change"}, {"time": 200759, "annotation": {"number": 11, "value": 95}, "group": "control_change"}, {"time": 200879, "annotation": {"number": 11, "value": 94}, "group": "control_change"}, {"time": 200999, "annotation": {"number": 11, "value": 93}, "group": "control_change"}, {"time": 201120, "annotation": {"number": 11, "value": 92}, "group": "control_change"}, {"time": 201240, "annotation": {"number": 11, "value": 91}, "group": "control_change"}, {"time": 201361, "annotation": {"number": 11, "value": 90}, "group": "control_change"}, {"time": 201481, "annotation": {"number": 11, "value": 89}, "group": "control_change"}, {"time": 201601, "annotation": {"number": 11, "value": 88}, "group": "control_change"}, {"time": 201722, "annotation": {"number": 11, "value": 87}, "group": "control_change"}, {"time": 201842, "annotation": {"number": 11, "value": 86}, "group": "control_change"}, {"time": 201963, "annotation": {"number": 11, "value": 85}, "group": "control_change"}, {"time": 202083, "annotation": {"number": 11, "value": 84}, "group": "control_change"}, {"time": 202083, "annotation": {"number": 11, "value": 84}, "group": "control_change"}, {"time": 202202, "annotation": {"number": 11, "value": 85}, "group": "control_change"}, {"time": 202320, "annotation": {"number": 11, "value": 86}, "group": "control_change"}, {"time": 202439, "annotation": {"number": 11, "value": 87}, "group": "control_change"}, {"time": 202557, "annotation": {"number": 11, "value": 88}, "group": "control_change"}, {"time": 202678, "annotation": {"number": 11, "value": 89}, "group": "control_change"}, {"time": 202798, "annotation": {"number": 11, "value": 90}, "group": "control_change"}, {"time": 202918, "annotation": {"number": 11, "value": 91}, "group": "control_change"}, {"time": 203039, "annotation": {"number": 11, "value": 92}, "group": "control_change"}, {"time": 203159, "annotation": {"number": 11, "value": 93}, "group": "control_change"}, {"time": 203280, "annotation": {"number": 11, "value": 94}, "group": "control_change"}, {"time": 203400, "annotation": {"number": 11, "value": 95}, "group": "control_change"}, {"time": 203520, "annotation": {"number": 11, "value": 96}, "group": "control_change"}, {"time": 203641, "annotation": {"number": 11, "value": 97}, "group": "control_change"}, {"time": 203761, "annotation": {"number": 11, "value": 98}, "group": "control_change"}, {"time": 203882, "annotation": {"number": 11, "value": 99}, "group": "control_change"}, {"time": 204002, "annotation": {"number": 11, "value": 100}, "group": "control_change"}, {"time": 204002, "annotation": {"number": 11, "value": 100}, "group": "control_change"}, {"time": 204122, "annotation": {"number": 11, "value": 99}, "group": "control_change"}, {"time": 204243, "annotation": {"number": 11, "value": 98}, "group": "control_change"}, {"time": 204363, "annotation": {"number": 11, "value": 97}, "group": "control_change"}, {"time": 204484, "annotation": {"number": 11, "value": 96}, "group": "control_change"}, {"time": 204602, "annotation": {"number": 11, "value": 95}, "group": "control_change"}, {"time": 204721, "annotation": {"number": 11, "value": 94}, "group": "control_change"}, {"time": 204839, "annotation": {"number": 11, "value": 93}, "group": "control_change"}, {"time": 204958, "annotation": {"number": 11, "value": 92}, "group": "control_change"}, {"time": 205078, "annotation": {"number": 11, "value": 91}, "group": "control_change"}, {"time": 205199, "annotation": {"number": 11, "value": 90}, "group": "control_change"}, {"time": 205319, "annotation": {"number": 11, "value": 89}, "group": "control_change"}, {"time": 205439, "annotation": {"number": 11, "value": 88}, "group": "control_change"}, {"time": 205560, "annotation": {"number": 11, "value": 87}, "group": "control_change"}, {"time": 205680, "annotation": {"number": 11, "value": 86}, "group": "control_change"}, {"time": 205801, "annotation": {"number": 11, "value": 85}, "group": "control_change"}, {"time": 205921, "annotation": {"number": 11, "value": 84}, "group": "control_change"}, {"time": 205921, "annotation": {"number": 11, "value": 84}, "group": "control_change"}, {"time": 206041, "annotation": {"number": 11, "value": 85}, "group": "control_change"}, {"time": 206162, "annotation": {"number": 11, "value": 86}, "group": "control_change"}, {"time": 206282, "annotation": {"number": 11, "value": 87}, "group": "control_change"}, {"time": 206403, "annotation": {"number": 11, "value": 88}, "group": "control_change"}, {"time": 206521, "annotation": {"number": 11, "value": 89}, "group": "control_change"}, {"time": 206640, "annotation": {"number": 11, "value": 90}, "group": "control_change"}, {"time": 206758, "annotation": {"number": 11, "value": 91}, "group": "control_change"}, {"time": 206877, "annotation": {"number": 11, "value": 92}, "group": "control_change"}, {"time": 206997, "annotation": {"number": 11, "value": 93}, "group": "control_change"}, {"time": 207118, "annotation": {"number": 11, "value": 94}, "group": "control_change"}, {"time": 207238, "annotation": {"number": 11, "value": 95}, "group": "control_change"}, {"time": 207358, "annotation": {"number": 11, "value": 96}, "group": "control_change"}, {"time": 207479, "annotation": {"number": 11, "value": 97}, "group": "control_change"}, {"time": 207599, "annotation": {"number": 11, "value": 98}, "group": "control_change"}, {"time": 207720, "annotation": {"number": 11, "value": 99}, "group": "control_change"}, {"time": 207840, "annotation": {"number": 11, "value": 100}, "group": "control_change"}, {"time": 207840, "annotation": {"number": 11, "value": 100}, "group": "control_change"}, {"time": 208021, "annotation": {"number": 11, "value": 99}, "group": "control_change"}, {"time": 208111, "annotation": {"number": 11, "value": 98}, "group": "control_change"}, {"time": 208201, "annotation": {"number": 11, "value": 97}, "group": "control_change"}, {"time": 208292, "annotation": {"number": 11, "value": 96}, "group": "control_change"}, {"time": 208382, "annotation": {"number": 11, "value": 95}, "group": "control_change"}, {"time": 208472, "annotation": {"number": 11, "value": 94}, "group": "control_change"}, {"time": 208562, "annotation": {"number": 11, "value": 93}, "group": "control_change"}, {"time": 208653, "annotation": {"number": 11, "value": 92}, "group": "control_change"}, {"time": 208743, "annotation": {"number": 11, "value": 91}, "group": "control_change"}, {"time": 208833, "annotation": {"number": 11, "value": 90}, "group": "control_change"}, {"time": 208922, "annotation": {"number": 11, "value": 89}, "group": "control_change"}, {"time": 209011, "annotation": {"number": 11, "value": 88}, "group": "control_change"}, {"time": 209100, "annotation": {"number": 11, "value": 87}, "group": "control_change"}, {"time": 209189, "annotation": {"number": 11, "value": 86}, "group": "control_change"}, {"time": 209277, "annotation": {"number": 11, "value": 85}, "group": "control_change"}, {"time": 209458, "annotation": {"number": 11, "value": 84}, "group": "control_change"}, {"time": 209548, "annotation": {"number": 11, "value": 83}, "group": "control_change"}, {"time": 209639, "annotation": {"number": 11, "value": 82}, "group": "control_change"}, {"time": 209729, "annotation": {"number": 11, "value": 81}, "group": "control_change"}, {"time": 209819, "annotation": {"number": 11, "value": 80}, "group": "control_change"}, {"time": 209909, "annotation": {"number": 11, "value": 79}, "group": "control_change"}, {"time": 210000, "annotation": {"number": 11, "value": 78}, "group": "control_change"}, {"time": 210090, "annotation": {"number": 11, "value": 77}, "group": "control_change"}, {"time": 210180, "annotation": {"number": 11, "value": 76}, "group": "control_change"}, {"time": 210271, "annotation": {"number": 11, "value": 75}, "group": "control_change"}, {"time": 210361, "annotation": {"number": 11, "value": 74}, "group": "control_change"}, {"time": 210451, "annotation": {"number": 11, "value": 73}, "group": "control_change"}, {"time": 210542, "annotation": {"number": 11, "value": 72}, "group": "control_change"}, {"time": 210632, "annotation": {"number": 11, "value": 71}, "group": "control_change"}, {"time": 210722, "annotation": {"number": 11, "value": 70}, "group": "control_change"}, {"time": 210900, "annotation": {"number": 11, "value": 69}, "group": "control_change"}, {"time": 210989, "annotation": {"number": 11, "value": 68}, "group": "control_change"}, {"time": 211078, "annotation": {"number": 11, "value": 67}, "group": "control_change"}, {"time": 211167, "annotation": {"number": 11, "value": 66}, "group": "control_change"}, {"time": 211257, "annotation": {"number": 11, "value": 65}, "group": "control_change"}, {"time": 211347, "annotation": {"number": 11, "value": 64}, "group": "control_change"}, {"time": 211437, "annotation": {"number": 11, "value": 63}, "group": "control_change"}, {"time": 211527, "annotation": {"number": 11, "value": 62}, "group": "control_change"}, {"time": 211618, "annotation": {"number": 11, "value": 61}, "group": "control_change"}, {"time": 211708, "annotation": {"number": 11, "value": 60}, "group": "control_change"}, {"time": 211798, "annotation": {"number": 11, "value": 59}, "group": "control_change"}, {"time": 211889, "annotation": {"number": 11, "value": 58}, "group": "control_change"}, {"time": 211979, "annotation": {"number": 11, "value": 57}, "group": "control_change"}, {"time": 212069, "annotation": {"number": 11, "value": 56}, "group": "control_change"}, {"time": 212160, "annotation": {"number": 11, "value": 55}, "group": "control_change"}, {"time": 212340, "annotation": {"number": 11, "value": 54}, "group": "control_change"}, {"time": 212430, "annotation": {"number": 11, "value": 53}, "group": "control_change"}, {"time": 212521, "annotation": {"number": 11, "value": 52}, "group": "control_change"}, {"time": 212611, "annotation": {"number": 11, "value": 51}, "group": "control_change"}, {"time": 212700, "annotation": {"number": 11, "value": 50}, "group": "control_change"}, {"time": 212789, "annotation": {"number": 11, "value": 49}, "group": "control_change"}, {"time": 212878, "annotation": {"number": 11, "value": 48}, "group": "control_change"}, {"time": 212967, "annotation": {"number": 11, "value": 47}, "group": "control_change"}, {"time": 213056, "annotation": {"number": 11, "value": 46}, "group": "control_change"}, {"time": 213145, "annotation": {"number": 11, "value": 45}, "group": "control_change"}, {"time": 213234, "annotation": {"number": 11, "value": 44}, "group": "control_change"}, {"time": 213323, "annotation": {"number": 11, "value": 43}, "group": "control_change"}, {"time": 213412, "annotation": {"number": 11, "value": 42}, "group": "control_change"}, {"time": 213501, "annotation": {"number": 11, "value": 41}, "group": "control_change"}, {"time": 213590, "annotation": {"number": 11, "value": 40}, "group": "control_change"}, {"time": 213768, "annotation": {"number": 11, "value": 39}, "group": "control_change"}, {"time": 213857, "annotation": {"number": 11, "value": 38}, "group": "control_change"}, {"time": 213945, "annotation": {"number": 11, "value": 37}, "group": "control_change"}, {"time": 214034, "annotation": {"number": 11, "value": 36}, "group": "control_change"}, {"time": 214123, "annotation": {"number": 11, "value": 35}, "group": "control_change"}, {"time": 214212, "annotation": {"number": 11, "value": 34}, "group": "control_change"}, {"time": 214301, "annotation": {"number": 11, "value": 33}, "group": "control_change"}, {"time": 214390, "annotation": {"number": 11, "value": 32}, "group": "control_change"}, {"time": 214479, "annotation": {"number": 11, "value": 31}, "group": "control_change"}, {"time": 214568, "annotation": {"number": 11, "value": 30}, "group": "control_change"}, {"time": 214657, "annotation": {"number": 11, "value": 29}, "group": "control_change"}, {"time": 214746, "annotation": {"number": 11, "value": 28}, "group": "control_change"}, {"time": 214835, "annotation": {"number": 11, "value": 27}, "group": "control_change"}, {"time": 214924, "annotation": {"number": 11, "value": 26}, "group": "control_change"}, {"time": 215013, "annotation": {"number": 11, "value": 25}, "group": "control_change"}, {"time": 215190, "annotation": {"number": 11, "value": 24}, "group": "control_change"}, {"time": 215279, "annotation": {"number": 11, "value": 23}, "group": "control_change"}, {"time": 215368, "annotation": {"number": 11, "value": 22}, "group": "control_change"}, {"time": 215457, "annotation": {"number": 11, "value": 21}, "group": "control_change"}, {"time": 215546, "annotation": {"number": 11, "value": 20}, "group": "control_change"}, {"time": 215635, "annotation": {"number": 11, "value": 19}, "group": "control_change"}, {"time": 215724, "annotation": {"number": 11, "value": 18}, "group": "control_change"}, {"time": 215813, "annotation": {"number": 11, "value": 17}, "group": "control_change"}, {"time": 215902, "annotation": {"number": 11, "value": 16}, "group": "control_change"}, {"time": 215991, "annotation": {"number": 11, "value": 15}, "group": "control_change"}, {"time": 216080, "annotation": {"number": 11, "value": 14}, "group": "control_change"}, {"time": 216169, "annotation": {"number": 11, "value": 13}, "group": "control_change"}, {"time": 216258, "annotation": {"number": 11, "value": 12}, "group": "control_change"}, {"time": 216347, "annotation": {"number": 11, "value": 11}, "group": "control_change"}, {"time": 216436, "annotation": {"number": 11, "value": 10}, "group": "control_change"}, {"time": 216613, "annotation": {"number": 11, "value": 9}, "group": "control_change"}, {"time": 216702, "annotation": {"number": 11, "value": 8}, "group": "control_change"}, {"time": 216791, "annotation": {"number": 11, "value": 7}, "group": "control_change"}, {"time": 216880, "annotation": {"number": 11, "value": 6}, "group": "control_change"}, {"time": 216969, "annotation": {"number": 11, "value": 5}, "group": "control_change"}, {"time": 217058, "annotation": {"number": 11, "value": 4}, "group": "control_change"}, {"time": 217147, "annotation": {"number": 11, "value": 3}, "group": "control_change"}, {"time": 217236, "annotation": {"number": 11, "value": 2}, "group": "control_change"}, {"time": 217325, "annotation": {"number": 11, "value": 1}, "group": "control_change"}]}, {"program": 0, "is_drum": false, "name": "STRINGS 2", "annotations": [{"time": 218, "annotation": {"number": 0, "value": 0}, "group": "control_change"}, {"time": 240, "annotation": {"number": 32, "value": 0}, "group": "control_change"}]}, {"program": 48, "is_drum": false, "name": "STRINGS 2", "notes": [{"time": 479, "pitch": 72, "duration": 15359, "velocity": 78}, {"time": 22799, "pitch": 71, "duration": 251, "velocity": 72}, {"time": 23040, "pitch": 72, "duration": 261, "velocity": 67}, {"time": 23281, "pitch": 74, "duration": 251, "velocity": 76}, {"time": 23522, "pitch": 76, "duration": 1919, "velocity": 76}, {"time": 25441, "pitch": 74, "duration": 955, "velocity": 79}, {"time": 26396, "pitch": 72, "duration": 482, "velocity": 68}, {"time": 26878, "pitch": 71, "duration": 492, "velocity": 64}, {"time": 27360, "pitch": 69, "duration": 963, "velocity": 62}, {"time": 28323, "pitch": 71, "duration": 484, "velocity": 74}, {"time": 28797, "pitch": 72, "duration": 492, "velocity": 67}, {"time": 29279, "pitch": 74, "duration": 1563, "velocity": 64}, {"time": 48002, "pitch": 57, "duration": 90, "velocity": 93}, {"time": 48092, "pitch": 59, "duration": 80, "velocity": 74}, {"time": 48172, "pitch": 61, "duration": 70, "velocity": 78}, {"time": 48242, "pitch": 62, "duration": 61, "velocity": 83}, {"time": 48303, "pitch": 64, "duration": 60, "velocity": 78}, {"time": 48363, "pitch": 66, "duration": 60, "velocity": 76}, {"time": 48423, "pitch": 67, "duration": 60, "velocity": 80}, {"time": 48483, "pitch": 69, "duration": 7215, "velocity": 78}, {"time": 55678, "pitch": 74, "duration": 481, "velocity": 82}, {"time": 56159, "pitch": 74, "duration": 3043, "velocity": 74}, {"time": 63361, "pitch": 57, "duration": 90, "velocity": 93}, {"time": 63451, "pitch": 59, "duration": 80, "velocity": 74}, {"time": 63531, "pitch": 61, "duration": 71, "velocity": 78}, {"time": 63602, "pitch": 62, "duration": 60, "velocity": 83}, {"time": 63662, "pitch": 64, "duration": 60, "velocity": 78}, {"time": 63722, "pitch": 66, "duration": 60, "velocity": 76}, {"time": 63782, "pitch": 67, "duration": 60, "velocity": 80}, {"time": 63842, "pitch": 69, "duration": 7215, "velocity": 78}, {"time": 71037, "pitch": 74, "duration": 481, "velocity": 82}, {"time": 71518, "pitch": 74, "duration": 3364, "velocity": 74}, {"time": 78961, "pitch": 44, "duration": 4079, "velocity": 52}, {"time": 78961, "pitch": 51, "duration": 4079, "velocity": 61}, {"time": 78961, "pitch": 55, "duration": 251, "velocity": 49}, {"time": 78961, "pitch": 62, "duration": 251, "velocity": 66}, {"time": 78961, "pitch": 70, "duration": 4079, "velocity": 80}, {"time": 90241, "pitch": 67, "duration": 492, "velocity": 66}, {"time": 90723, "pitch": 79, "duration": 6399, "velocity": 65}, {"time": 105360, "pitch": 71, "duration": 251, "velocity": 72}, {"time": 105601, "pitch": 72, "duration": 260, "velocity": 67}, {"time": 105841, "pitch": 74, "duration": 251, "velocity": 76}, {"time": 106082, "pitch": 76, "duration": 1919, "velocity": 76}, {"time": 108001, "pitch": 74, "duration": 956, "velocity": 79}, {"time": 108957, "pitch": 72, "duration": 482, "velocity": 68}, {"time": 109439, "pitch": 71, "duration": 491, "velocity": 64}, {"time": 109920, "pitch": 69, "duration": 963, "velocity": 62}, {"time": 110883, "pitch": 71, "duration": 485, "velocity": 74}, {"time": 111358, "pitch": 72, "duration": 491, "velocity": 67}, {"time": 111839, "pitch": 74, "duration": 1558, "velocity": 64}, {"time": 130562, "pitch": 57, "duration": 89, "velocity": 93}, {"time": 130651, "pitch": 59, "duration": 79, "velocity": 74}, {"time": 130730, "pitch": 61, "duration": 69, "velocity": 78}, {"time": 130799, "pitch": 62, "duration": 60, "velocity": 83}, {"time": 130859, "pitch": 64, "duration": 59, "velocity": 78}, {"time": 130918, "pitch": 66, "duration": 59, "velocity": 76}, {"time": 130977, "pitch": 67, "duration": 59, "velocity": 80}, {"time": 131036, "pitch": 69, "duration": 7222, "velocity": 78}, {"time": 138238, "pitch": 74, "duration": 482, "velocity": 82}, {"time": 138720, "pitch": 74, "duration": 3042, "velocity": 74}, {"time": 145921, "pitch": 57, "duration": 91, "velocity": 93}, {"time": 146012, "pitch": 59, "duration": 80, "velocity": 74}, {"time": 146092, "pitch": 61, "duration": 70, "velocity": 78}, {"time": 146162, "pitch": 62, "duration": 60, "velocity": 83}, {"time": 146222, "pitch": 64, "duration": 61, "velocity": 78}, {"time": 146283, "pitch": 66, "duration": 60, "velocity": 76}, {"time": 146343, "pitch": 67, "duration": 60, "velocity": 80}, {"time": 146403, "pitch": 69, "duration": 7214, "velocity": 78}, {"time": 153597, "pitch": 74, "duration": 482, "velocity": 82}, {"time": 154079, "pitch": 74, "duration": 3364, "velocity": 74}, {"time": 161521, "pitch": 43, "duration": 2160, "velocity": 60}, {"time": 161521, "pitch": 55, "duration": 2160, "velocity": 69}, {"time": 165119, "pitch": 57, "duration": 90, "velocity": 93}, {"time": 165209, "pitch": 59, "duration": 80, "velocity": 74}, {"time": 165289, "pitch": 61, "duration": 70, "velocity": 78}, {"time": 165359, "pitch": 62, "duration": 61, "velocity": 83}, {"time": 165420, "pitch": 64, "duration": 60, "velocity": 78}, {"time": 165480, "pitch": 66, "duration": 60, "velocity": 76}, {"time": 165540, "pitch": 67, "duration": 60, "velocity": 80}, {"time": 165600, "pitch": 69, "duration": 7222, "velocity": 78}, {"time": 172802, "pitch": 74, "duration": 481, "velocity": 82}, {"time": 173283, "pitch": 74, "duration": 3036, "velocity": 74}, {"time": 180478, "pitch": 57, "duration": 90, "velocity": 93}, {"time": 180568, "pitch": 59, "duration": 80, "velocity": 74}, {"time": 180648, "pitch": 61, "duration": 71, "velocity": 78}, {"time": 180719, "pitch": 62, "duration": 60, "velocity": 83}, {"time": 180779, "pitch": 64, "duration": 60, "velocity": 78}, {"time": 180839, "pitch": 66, "duration": 60, "velocity": 76}, {"time": 180899, "pitch": 67, "duration": 60, "velocity": 80}, {"time": 180959, "pitch": 69, "duration": 7222, "velocity": 78}, {"time": 188161, "pitch": 74, "duration": 482, "velocity": 82}, {"time": 188643, "pitch": 74, "duration": 3356, "velocity": 74}, {"time": 196078, "pitch": 50, "duration": 2160, "velocity": 51}, {"time": 196078, "pitch": 57, "duration": 2160, "velocity": 66}, {"time": 198238, "pitch": 74, "duration": 19146, "velocity": 59}], "annotations": [{"time": 283, "annotation": {"number": 7, "value": 90}, "group": "control_change"}, {"time": 305, "annotation": {"number": 11, "value": 100}, "group": "control_change"}, {"time": 327, "annotation": {"number": 10, "value": 34}, "group": "control_change"}, {"time": 349, "annotation": {"number": 91, "value": 100}, "group": "control_change"}, {"time": 370, "annotation": {"number": 93, "value": 10}, "group": "control_change"}, {"time": 392, "annotation": {"number": 101, "value": 0}, "group": "control_change"}, {"time": 414, "annotation": {"number": 100, "value": 0}, "group": "control_change"}, {"time": 436, "annotation": {"number": 6, "value": 12}, "group": "control_change"}, {"time": 458, "annotation": {"number": 101, "value": 127}, "group": "control_change"}, {"time": 479, "annotation": {"number": 100, "value": 127}, "group": "control_change"}, {"time": 479, "annotation": {"number": 11, "value": 52}, "group": "control_change"}, {"time": 509, "annotation": {"number": 11, "value": 57}, "group": "control_change"}, {"time": 539, "annotation": {"number": 11, "value": 60}, "group": "control_change"}, {"time": 569, "annotation": {"number": 11, "value": 64}, "group": "control_change"}, {"time": 599, "annotation": {"number": 11, "value": 67}, "group": "control_change"}, {"time": 629, "annotation": {"number": 11, "value": 70}, "group": "control_change"}, {"time": 660, "annotation": {"number": 11, "value": 72}, "group": "control_change"}, {"time": 690, "annotation": {"number": 11, "value": 74}, "group": "control_change"}, {"time": 720, "annotation": {"number": 11, "value": 76}, "group": "control_change"}, {"time": 750, "annotation": {"number": 11, "value": 79}, "group": "control_change"}, {"time": 780, "annotation": {"number": 11, "value": 80}, "group": "control_change"}, {"time": 810, "annotation": {"number": 11, "value": 82}, "group": "control_change"}, {"time": 840, "annotation": {"number": 11, "value": 84}, "group": "control_change"}, {"time": 870, "annotation": {"number": 11, "value": 85}, "group": "control_change"}, {"time": 900, "annotation": {"number": 11, "value": 86}, "group": "control_change"}, {"time": 930, "annotation": {"number": 11, "value": 88}, "group": "control_change"}, {"time": 991, "annotation": {"number": 11, "value": 90}, "group": "control_change"}, {"time": 1021, "annotation": {"number": 11, "value": 91}, "group": "control_change"}, {"time": 1081, "annotation": {"number": 11, "value": 92}, "group": "control_change"}, {"time": 1111, "annotation": {"number": 11, "value": 93}, "group": "control_change"}, {"time": 1171, "annotation": {"number": 11, "value": 94}, "group": "control_change"}, {"time": 1231, "annotation": {"number": 11, "value": 95}, "group": "control_change"}, {"time": 1262, "annotation": {"number": 11, "value": 96}, "group": "control_change"}, {"time": 1352, "annotation": {"number": 11, "value": 97}, "group": "control_change"}, {"time": 1472, "annotation": {"number": 11, "value": 98}, "group": "control_change"}, {"time": 1590, "annotation": {"number": 11, "value": 99}, "group": "control_change"}, {"time": 1798, "annotation": {"number": 11, "value": 100}, "group": "control_change"}, {"time": 2398, "annotation": {"number": 11, "value": 100}, "group": "control_change"}, {"time": 2518, "annotation": {"number": 11, "value": 99}, "group": "control_change"}, {"time": 2639, "annotation": {"number": 11, "value": 98}, "group": "control_change"}, {"time": 2759, "annotation": {"number": 11, "value": 97}, "group": "control_change"}, {"time": 2880, "annotation": {"number": 11, "value": 96}, "group": "control_change"}, {"time": 3000, "annotation": {"number": 11, "value": 95}, "group": "control_change"}, {"time": 3120, "annotation": {"number": 11, "value": 94}, "group": "control_change"}, {"time": 3241, "annotation": {"number": 11, "value": 93}, "group": "control_change"}, {"time": 3361, "annotation": {"number": 11, "value": 92}, "group": "control_change"}, {"time": 3482, "annotation": {"number": 11, "value": 91}, "group": "control_change"}, {"time": 3602, "annotation": {"number": 11, "value": 90}, "group": "control_change"}, {"time": 3722, "annotation": {"number": 11, "value": 89}, "group": "control_change"}, {"time": 3843, "annotation": {"number": 11, "value": 88}, "group": "control_change"}, {"time": 3961, "annotation": {"number": 11, "value": 87}, "group": "control_change"}, {"time": 4080, "annotation": {"number": 11, "value": 86}, "group": "control_change"}, {"time": 4198, "annotation": {"number": 11, "value": 85}, "group": "control_change"}, {"time": 4317, "annotation": {"number": 11, "value": 84}, "group": "control_change"}, {"time": 4317, "annotation": {"number": 11, "value": 84}, "group": "control_change"}, {"time": 4437, "annotation": {"number": 11, "value": 85}, "group": "control_change"}, {"time": 4558, "annotation": {"number": 11, "value": 86}, "group": "control_change"}, {"time": 4678, "annotation": {"number": 11, "value": 87}, "group": "control_change"}, {"time": 4799, "annotation": {"number": 11, "value": 88}, "group": "control_change"}, {"time": 4919, "annotation": {"number": 11, "value": 89}, "group": "control_change"}, {"time": 5039, "annotation": {"number": 11, "value": 90}, "group": "control_change"}, {"time": 5160, "annotation": {"number": 11, "value": 91}, "group": "control_change"}, {"time": 5280, "annotation": {"number": 11, "value": 92}, "group": "control_change"}, {"time": 5401, "annotation": {"number": 11, "value": 93}, "group": "control_change"}, {"time": 5521, "annotation": {"number": 11, "value": 94}, "group": "control_change"}, {"time": 5641, "annotation": {"number": 11, "value": 95}, "group": "control_change"}, {"time": 5762, "annotation": {"number": 11, "value": 96}, "group": "control_change"}, {"time": 5882, "annotation": {"number": 11, "value": 97}, "group": "control_change"}, {"time": 6003, "annotation": {"number": 11, "value": 98}, "group": "control_change"}, {"time": 6123, "annotation": {"number": 11, "value": 99}, "group": "control_change"}, {"time": 6243, "annotation": {"number": 11, "value": 100}, "group": "control_change"}, {"time": 6243, "annotation": {"number": 11, "value": 100}, "group": "control_change"}, {"time": 6362, "annotation": {"number": 11, "value": 99}, "group": "control_change"}, {"time": 6480, "annotation": {"number": 11, "value": 98}, "group": "control_change"}, {"time": 6599, "annotation": {"number": 11, "value": 97}, "group": "control_change"}, {"time": 6718, "annotation": {"number": 11, "value": 96}, "group": "control_change"}, {"time": 6838, "annotation": {"number": 11, "value": 95}, "group": "control_change"}, {"time": 6958, "annotation": {"number": 11, "value": 94}, "group": "control_change"}, {"time": 7079, "annotation": {"number": 11, "value": 93}, "group": "control_change"}, {"time": 7199, "annotation": {"number": 11, "value": 92}, "group": "control_change"}, {"time": 7320, "annotation": {"number": 11, "value": 91}, "group": "control_change"}, {"time": 7440, "annotation": {"number": 11, "value": 90}, "group": "control_change"}, {"time": 7560, "annotation": {"number": 11, "value": 89}, "group": "control_change"}, {"time": 7681, "annotation": {"number": 11, "value": 88}, "group": "control_change"}, {"time": 7801, "annotation": {"number": 11, "value": 87}, "group": "control_change"}, {"time": 7922, "annotation": {"number": 11, "value": 86}, "group": "control_change"}, {"time": 8042, "annotation": {"number": 11, "value": 85}, "group": "control_change"}, {"time": 8162, "annotation": {"number": 11, "value": 84}, "group": "control_change"}, {"time": 8162, "annotation": {"number": 11, "value": 84}, "group": "control_change"}, {"time": 8281, "annotation": {"number": 11, "value": 85}, "group": "control_change"}, {"time": 8399, "annotation": {"number": 11, "value": 86}, "group": "control_change"}, {"time": 8518, "annotation": {"number": 11, "value": 87}, "group": "control_change"}, {"time": 8637, "annotation": {"number": 11, "value": 88}, "group": "control_change"}, {"time": 8757, "annotation": {"number": 11, "value": 89}, "group": "control_change"}, {"time": 8877, "annotation": {"number": 11, "value": 90}, "group": "control_change"}, {"time": 8998, "annotation": {"number": 11, "value": 91}, "group": "control_change"}, {"time": 9118, "annotation": {"number": 11, "value": 92}, "group": "control_change"}, {"time": 9239, "annotation": {"number": 11, "value": 93}, "group": "control_change"}, {"time": 9359, "annotation": {"number": 11, "value": 94}, "group": "control_change"}, {"time": 9479, "annotation": {"number": 11, "value": 95}, "group": "control_change"}, {"time": 9600, "annotation": {"number": 11, "value": 96}, "group": "control_change"}, {"time": 9720, "annotation": {"number": 11, "value": 97}, "group": "control_change"}, {"time": 9840, "annotation": {"number": 11, "value": 98}, "group": "control_change"}, {"time": 9961, "annotation": {"number": 11, "value": 99}, "group": "control_change"}, {"time": 10081, "annotation": {"number": 11, "value": 100}, "group": "control_change"}, {"time": 10081, "annotation": {"number": 11, "value": 100}, "group": "control_change"}, {"time": 10202, "annotation": {"number": 11, "value": 99}, "group": "control_change"}, {"time": 10322, "annotation": {"number": 11, "value": 98}, "group": "control_change"}, {"time": 10442, "annotation": {"number": 11, "value": 97}, "group": "control_change"}, {"time": 10563, "annotation": {"number": 11, "value": 96}, "group": "control_change"}, {"time": 10681, "annotation": {"number": 11, "value": 95}, "group": "control_change"}, {"time": 10800, "annotation": {"number": 11, "value": 94}, "group": "control_change"}, {"time": 10919, "annotation": {"number": 11, "value": 93}, "group": "control_change"}, {"time": 11037, "annotation": {"number": 11, "value": 92}, "group": "control_change"}, {"time": 11157, "annotation": {"number": 11, "value": 91}, "group": "control_change"}, {"time": 11278, "annotation": {"number": 11, "value": 90}, "group": "control_change"}, {"time": 11398, "annotation": {"number": 11, "value": 89}, "group": "control_change"}, {"time": 11519, "annotation": {"number": 11, "value": 88}, "group": "control_change"}, {"time": 11639, "annotation": {"number": 11, "value": 87}, "group": "control_change"}, {"time": 11759, "annotation": {"number": 11, "value": 86}, "group": "control_change"}, {"time": 11880, "annotation": {"number": 11, "value": 85}, "group": "control_change"}, {"time": 12000, "annotation": {"number": 11, "value": 84}, "group": "control_change"}, {"time": 12000, "annotation": {"number": 11, "value": 84}, "group": "control_change"}, {"time": 12121, "annotation": {"number": 11, "value": 85}, "group": "control_change"}, {"time": 12241, "annotation": {"number": 11, "value": 86}, "group": "control_change"}, {"time": 12361, "annotation": {"number": 11, "value": 87}, "group": "control_change"}, {"time": 12482, "annotation": {"number": 11, "value": 88}, "group": "control_change"}, {"time": 12602, "annotation": {"number": 11, "value": 89}, "group": "control_change"}, {"time": 12723, "annotation": {"number": 11, "value": 90}, "group": "control_change"}, {"time": 12843, "annotation": {"number": 11, "value": 91}, "group": "control_change"}, {"time": 12963, "annotation": {"number": 11, "value": 92}, "group": "control_change"}, {"time": 13082, "annotation": {"number": 11, "value": 93}, "group": "control_change"}, {"time": 13201, "annotation": {"number": 11, "value": 94}, "group": "control_change"}, {"time": 13319, "annotation": {"number": 11, "value": 95}, "group": "control_change"}, {"time": 13438, "annotation": {"number": 11, "value": 96}, "group": "control_change"}, {"time": 13558, "annotation": {"number": 11, "value": 97}, "group": "control_change"}, {"time": 13678, "annotation": {"number": 11, "value": 98}, "group": "control_change"}, {"time": 13799, "annotation": {"number": 11, "value": 99}, "group": "control_change"}, {"time": 13919, "annotation": {"number": 11, "value": 100}, "group": "control_change"}, {"time": 13919, "annotation": {"number": 11, "value": 100}, "group": "control_change"}, {"time": 14401, "annotation": {"number": 11, "value": 99}, "group": "control_change"}, {"time": 14642, "annotation": {"number": 11, "value": 98}, "group": "control_change"}, {"time": 14762, "annotation": {"number": 11, "value": 97}, "group": "control_change"}, {"time": 14882, "annotation": {"number": 11, "value": 96}, "group": "control_change"}, {"time": 14942, "annotation": {"number": 11, "value": 95}, "group": "control_change"}, {"time": 15001, "annotation": {"number": 11, "value": 94}, "group": "control_change"}, {"time": 15060, "annotation": {"number": 11, "value": 93}, "group": "control_change"}, {"time": 15090, "annotation": {"number": 11, "value": 92}, "group": "control_change"}, {"time": 15120, "annotation": {"number": 11, "value": 91}, "group": "control_change"}, {"time": 15179, "annotation": {"number": 11, "value": 90}, "group": "control_change"}, {"time": 15208, "annotation": {"number": 11, "value": 89}, "group": "control_change"}, {"time": 15238, "annotation": {"number": 11, "value": 88}, "group": "control_change"}, {"time": 15268, "annotation": {"number": 11, "value": 87}, "group": "control_change"}, {"time": 15297, "annotation": {"number": 11, "value": 86}, "group": "control_change"}, {"time": 15327, "annotation": {"number": 11, "value": 84}, "group": "control_change"}, {"time": 15357, "annotation": {"number": 11, "value": 82}, "group": "control_change"}, {"time": 15387, "annotation": {"number": 11, "value": 81}, "group": "control_change"}, {"time": 15417, "annotation": {"number": 11, "value": 79}, "group": "control_change"}, {"time": 15447, "annotation": {"number": 11, "value": 77}, "group": "control_change"}, {"time": 15477, "annotation": {"number": 11, "value": 75}, "group": "control_change"}, {"time": 15507, "annotation": {"number": 11, "value": 73}, "group": "control_change"}, {"time": 15537, "annotation": {"number": 11, "value": 70}, "group": "control_change"}, {"time": 15567, "annotation": {"number": 11, "value": 68}, "group": "control_change"}, {"time": 15597, "annotation": {"number": 11, "value": 64}, "group": "control_change"}, {"time": 15628, "annotation": {"number": 11, "value": 61}, "group": "control_change"}, {"time": 15658, "annotation": {"number": 11, "value": 58}, "group": "control_change"}, {"time": 15688, "annotation": {"number": 11, "value": 54}, "group": "control_change"}, {"time": 15718, "annotation": {"number": 11, "value": 50}, "group": "control_change"}, {"time": 15748, "annotation": {"number": 11, "value": 45}, "group": "control_change"}, {"time": 15778, "annotation": {"number": 11, "value": 40}, "group": "control_change"}, {"time": 15808, "annotation": {"number": 11, "value": 35}, "group": "control_change"}, {"time": 15838, "annotation": {"number": 11, "value": 28}, "group": "control_change"}, {"time": 22799, "annotation": {"number": 11, "value": 68}, "group": "control_change"}, {"time": 22829, "annotation": {"number": 11, "value": 70}, "group": "control_change"}, {"time": 22859, "annotation": {"number": 11, "value": 72}, "group": "control_change"}, {"time": 22889, "annotation": {"number": 11, "value": 74}, "group": "control_change"}, {"time": 22920, "annotation": {"number": 11, "value": 76}, "group": "control_change"}, {"time": 22950, "annotation": {"number": 11, "value": 78}, "group": "control_change"}, {"time": 22980, "annotation": {"number": 11, "value": 80}, "group": "control_change"}, {"time": 23010, "annotation": {"number": 11, "value": 82}, "group": "control_change"}, {"time": 23040, "annotation": {"number": 11, "value": 84}, "group": "control_change"}, {"time": 23070, "annotation": {"number": 11, "value": 86}, "group": "control_change"}, {"time": 23100, "annotation": {"number": 11, "value": 88}, "group": "control_change"}, {"time": 23130, "annotation": {"number": 11, "value": 90}, "group": "control_change"}, {"time": 23160, "annotation": {"number": 11, "value": 92}, "group": "control_change"}, {"time": 23190, "annotation": {"number": 11, "value": 94}, "group": "control_change"}, {"time": 23221, "annotation": {"number": 11, "value": 96}, "group": "control_change"}, {"time": 23251, "annotation": {"number": 11, "value": 98}, "group": "control_change"}, {"time": 23281, "annotation": {"number": 11, "value": 100}, "group": "control_change"}, {"time": 23522, "annotation": {"number": 11, "value": 76}, "group": "control_change"}, {"time": 23552, "annotation": {"number": 11, "value": 81}, "group": "control_change"}, {"time": 23582, "annotation": {"number": 11, "value": 85}, "group": "control_change"}, {"time": 23612, "annotation": {"number": 11, "value": 87}, "group": "control_change"}, {"time": 23642, "annotation": {"number": 11, "value": 90}, "group": "control_change"}, {"time": 23672, "annotation": {"number": 11, "value": 92}, "group": "control_change"}, {"time": 23702, "annotation": {"number": 11, "value": 93}, "group": "control_change"}, {"time": 23732, "annotation": {"number": 11, "value": 95}, "group": "control_change"}, {"time": 23762, "annotation": {"number": 11, "value": 96}, "group": "control_change"}, {"time": 23792, "annotation": {"number": 11, "value": 97}, "group": "control_change"}, {"time": 23853, "annotation": {"number": 11, "value": 98}, "group": "control_change"}, {"time": 23913, "annotation": {"number": 11, "value": 99}, "group": "control_change"}, {"time": 24003, "annotation": {"number": 11, "value": 100}, "group": "control_change"}, {"time": 24598, "annotation": {"number": 11, "value": 99}, "group": "control_change"}, {"time": 24778, "annotation": {"number": 11, "value": 98}, "group": "control_change"}, {"time": 24869, "annotation": {"number": 11, "value": 97}, "group": "control_change"}, {"time": 24959, "annotation": {"number": 11, "value": 96}, "group": "control_change"}, {"time": 25019, "annotation": {"number": 11, "value": 95}, "group": "control_change"}, {"time": 25079, "annotation": {"number": 11, "value": 94}, "group": "control_change"}, {"time": 25109, "annotation": {"number": 11, "value": 93}, "group": "control_change"}, {"time": 25170, "annotation": {"number": 11, "value": 92}, "group": "control_change"}, {"time": 25200, "annotation": {"number": 11, "value": 91}, "group": "control_change"}, {"time": 25230, "annotation": {"number": 11, "value": 90}, "group": "control_change"}, {"time": 25260, "annotation": {"number": 11, "value": 88}, "group": "control_change"}, {"time": 25290, "annotation": {"number": 11, "value": 87}, "group": "control_change"}, {"time": 25320, "annotation": {"number": 11, "value": 85}, "group": "control_change"}, {"time": 25350, "annotation": {"number": 11, "value": 84}, "group": "control_change"}, {"time": 25380, "annotation": {"number": 11, "value": 82}, "group": "control_change"}, {"time": 25410, "annotation": {"number": 11, "value": 79}, "group": "control_change"}, {"time": 25441, "annotation": {"number": 11, "value": 76}, "group": "control_change"}, {"time": 25441, "annotation": {"number": 11, "value": 76}, "group": "control_change"}, {"time": 25471, "annotation": {"number": 11, "value": 80}, "group": "control_change"}, {"time": 25501, "annotation": {"number": 11, "value": 84}, "group": "control_change"}, {"time": 25531, "annotation": {"number": 11, "value": 86}, "group": "control_change"}, {"time": 25561, "annotation": {"number": 11, "value": 88}, "group": "control_change"}, {"time": 25591, "annotation": {"number": 11, "value": 90}, "group": "control_change"}, {"time": 25621, "annotation": {"number": 11, "value": 92}, "group": "control_change"}, {"time": 25651, "annotation": {"number": 11, "value": 93}, "group": "control_change"}, {"time": 25681, "annotation": {"number": 11, "value": 94}, "group": "control_change"}, {"time": 25711, "annotation": {"number": 11, "value": 96}, "group": "control_change"}, {"time": 25772, "annotation": {"number": 11, "value": 97}, "group": "control_change"}, {"time": 25832, "annotation": {"number": 11, "value": 98}, "group": "control_change"}, {"time": 25892, "annotation": {"number": 11, "value": 99}, "group": "control_change"}, {"time": 26011, "annotation": {"number": 11, "value": 100}, "group": "control_change"}, {"time": 28323, "annotation": {"number": 11, "value": 76}, "group": "control_change"}, {"time": 28352, "annotation": {"number": 11, "value": 81}, "group": "control_change"}, {"time": 28382, "annotation": {"number": 11, "value": 85}, "group": "control_change"}, {"time": 28412, "annotation": {"number": 11, "value": 88}, "group": "control_change"}, {"time": 28441, "annotation": {"number": 11, "value": 90}, "group": "control_change"}, {"time": 28471, "annotation": {"number": 11, "value": 92}, "group": "control_change"}, {"time": 28501, "annotation": {"number": 11, "value": 94}, "group": "control_change"}, {"time": 28530, "annotation": {"number": 11, "value": 95}, "group": "control_change"}, {"time": 28560, "annotation": {"number": 11, "value": 96}, "group": "control_change"}, {"time": 28589, "annotation": {"number": 11, "value": 97}, "group": "control_change"}, {"time": 28649, "annotation": {"number": 11, "value": 98}, "group": "control_change"}, {"time": 28678, "annotation": {"number": 11, "value": 99}, "group": "control_change"}, {"time": 28797, "annotation": {"number": 11, "value": 100}, "group": "control_change"}, {"time": 29279, "annotation": {"number": 11, "value": 100}, "group": "control_change"}, {"time": 29730, "annotation": {"number": 11, "value": 99}, "group": "control_change"}, {"time": 29941, "annotation": {"number": 11, "value": 98}, "group": "control_change"}, {"time": 30031, "annotation": {"number": 11, "value": 97}, "group": "control_change"}, {"time": 30091, "annotation": {"number": 11, "value": 96}, "group": "control_change"}, {"time": 30151, "annotation": {"number": 11, "value": 95}, "group": "control_change"}, {"time": 30212, "annotation": {"number": 11, "value": 94}, "group": "control_change"}, {"time": 30242, "annotation": {"number": 11, "value": 93}, "group": "control_change"}, {"time": 30302, "annotation": {"number": 11, "value": 92}, "group": "control_change"}, {"time": 30332, "annotation": {"number": 11, "value": 91}, "group": "control_change"}, {"time": 30362, "annotation": {"number": 11, "value": 90}, "group": "control_change"}, {"time": 30392, "annotation": {"number": 11, "value": 88}, "group": "control_change"}, {"time": 30422, "annotation": {"number": 11, "value": 86}, "group": "control_change"}, {"time": 30452, "annotation": {"number": 11, "value": 85}, "group": "control_change"}, {"time": 30482, "annotation": {"number": 11, "value": 83}, "group": "control_change"}, {"time": 30513, "annotation": {"number": 11, "value": 81}, "group": "control_change"}, {"time": 30543, "annotation": {"number": 11, "value": 79}, "group": "control_change"}, {"time": 30573, "annotation": {"number": 11, "value": 77}, "group": "control_change"}, {"time": 30603, "annotation": {"number": 11, "value": 74}, "group": "control_change"}, {"time": 30633, "annotation": {"number": 11, "value": 71}, "group": "control_change"}, {"time": 30663, "annotation": {"number": 11, "value": 67}, "group": "control_change"}, {"time": 30693, "annotation": {"number": 11, "value": 64}, "group": "control_change"}, {"time": 30723, "annotation": {"number": 11, "value": 59}, "group": "control_change"}, {"time": 30753, "annotation": {"number": 11, "value": 55}, "group": "control_change"}, {"time": 30783, "annotation": {"number": 11, "value": 49}, "group": "control_change"}, {"time": 30812, "annotation": {"number": 11, "value": 44}, "group": "control_change"}, {"time": 46557, "annotation": {"number": 11, "value": 100}, "group": "control_change"}, {"time": 48483, "annotation": {"number": 11, "value": 76}, "group": "control_change"}, {"time": 48503, "annotation": {"number": 11, "value": 79}, "group": "control_change"}, {"time": 48523, "annotation": {"number": 11, "value": 80}, "group": "control_change"}, {"time": 48542, "annotation": {"number": 11, "value": 81}, "group": "control_change"}, {"time": 48562, "annotation": {"number": 11, "value": 82}, "group": "control_change"}, {"time": 48582, "annotation": {"number": 11, "value": 84}, "group": "control_change"}, {"time": 48602, "annotation": {"number": 11, "value": 85}, "group": "control_change"}, {"time": 48621, "annotation": {"number": 11, "value": 86}, "group": "control_change"}, {"time": 48641, "annotation": {"number": 11, "value": 87}, "group": "control_change"}, {"time": 48681, "annotation": {"number": 11, "value": 88}, "group": "control_change"}, {"time": 48700, "annotation": {"number": 11, "value": 89}, "group": "control_change"}, {"time": 48720, "annotation": {"number": 11, "value": 90}, "group": "control_change"}, {"time": 48760, "annotation": {"number": 11, "value": 91}, "group": "control_change"}, {"time": 48780, "annotation": {"number": 11, "value": 92}, "group": "control_change"}, {"time": 48819, "annotation": {"number": 11, "value": 93}, "group": "control_change"}, {"time": 48859, "annotation": {"number": 11, "value": 94}, "group": "control_change"}, {"time": 48918, "annotation": {"number": 11, "value": 95}, "group": "control_change"}, {"time": 48957, "annotation": {"number": 11, "value": 96}, "group": "control_change"}, {"time": 49018, "annotation": {"number": 11, "value": 97}, "group": "control_change"}, {"time": 49118, "annotation": {"number": 11, "value": 98}, "group": "control_change"}, {"time": 49238, "annotation": {"number": 11, "value": 99}, "group": "control_change"}, {"time": 49439, "annotation": {"number": 11, "value": 100}, "group": "control_change"}, {"time": 50402, "annotation": {"number": 11, "value": 100}, "group": "control_change"}, {"time": 50521, "annotation": {"number": 11, "value": 99}, "group": "control_change"}, {"time": 50639, "annotation": {"number": 11, "value": 98}, "group": "control_change"}, {"time": 50758, "annotation": {"number": 11, "value": 97}, "group": "control_change"}, {"time": 50876, "annotation": {"number": 11, "value": 96}, "group": "control_change"}, {"time": 50997, "annotation": {"number": 11, "value": 95}, "group": "control_change"}, {"time": 51117, "annotation": {"number": 11, "value": 94}, "group": "control_change"}, {"time": 51238, "annotation": {"number": 11, "value": 93}, "group": "control_change"}, {"time": 51358, "annotation": {"number": 11, "value": 92}, "group": "control_change"}, {"time": 51478, "annotation": {"number": 11, "value": 91}, "group": "control_change"}, {"time": 51599, "annotation": {"number": 11, "value": 90}, "group": "control_change"}, {"time": 51719, "annotation": {"number": 11, "value": 89}, "group": "control_change"}, {"time": 51839, "annotation": {"number": 11, "value": 88}, "group": "control_change"}, {"time": 51960, "annotation": {"number": 11, "value": 87}, "group": "control_change"}, {"time": 52080, "annotation": {"number": 11, "value": 86}, "group": "control_change"}, {"time": 52201, "annotation": {"number": 11, "value": 85}, "group": "control_change"}, {"time": 52321, "annotation": {"number": 11, "value": 84}, "group": "control_change"}, {"time": 52321, "annotation": {"number": 11, "value": 84}, "group": "control_change"}, {"time": 52441, "annotation": {"number": 11, "value": 85}, "group": "control_change"}, {"time": 52562, "annotation": {"number": 11, "value": 86}, "group": "control_change"}, {"time": 52682, "annotation": {"number": 11, "value": 87}, "group": "control_change"}, {"time": 52803, "annotation": {"number": 11, "value": 88}, "group": "control_change"}, {"time": 52921, "annotation": {"number": 11, "value": 89}, "group": "control_change"}, {"time": 53040, "annotation": {"number": 11, "value": 90}, "group": "control_change"}, {"time": 53158, "annotation": {"number": 11, "value": 91}, "group": "control_change"}, {"time": 53277, "annotation": {"number": 11, "value": 92}, "group": "control_change"}, {"time": 53397, "annotation": {"number": 11, "value": 93}, "group": "control_change"}, {"time": 53518, "annotation": {"number": 11, "value": 94}, "group": "control_change"}, {"time": 53638, "annotation": {"number": 11, "value": 95}, "group": "control_change"}, {"time": 53758, "annotation": {"number": 11, "value": 96}, "group": "control_change"}, {"time": 53879, "annotation": {"number": 11, "value": 97}, "group": "control_change"}, {"time": 53999, "annotation": {"number": 11, "value": 98}, "group": "control_change"}, {"time": 54120, "annotation": {"number": 11, "value": 99}, "group": "control_change"}, {"time": 54240, "annotation": {"number": 11, "value": 100}, "group": "control_change"}, {"time": 55678, "annotation": {"number": 11, "value": 76}, "group": "control_change"}, {"time": 55698, "annotation": {"number": 11, "value": 82}, "group": "control_change"}, {"time": 55718, "annotation": {"number": 11, "value": 86}, "group": "control_change"}, {"time": 55738, "annotation": {"number": 11, "value": 88}, "group": "control_change"}, {"time": 55758, "annotation": {"number": 11, "value": 91}, "group": "control_change"}, {"time": 55778, "annotation": {"number": 11, "value": 93}, "group": "control_change"}, {"time": 55798, "annotation": {"number": 11, "value": 94}, "group": "control_change"}, {"time": 55818, "annotation": {"number": 11, "value": 96}, "group": "control_change"}, {"time": 55838, "annotation": {"number": 11, "value": 97}, "group": "control_change"}, {"time": 55878, "annotation": {"number": 11, "value": 98}, "group": "control_change"}, {"time": 55898, "annotation": {"number": 11, "value": 99}, "group": "control_change"}, {"time": 55958, "annotation": {"number": 11, "value": 100}, "group": "control_change"}, {"time": 58078, "annotation": {"number": 11, "value": 100}, "group": "control_change"}, {"time": 58459, "annotation": {"number": 11, "value": 99}, "group": "control_change"}, {"time": 58580, "annotation": {"number": 11, "value": 98}, "group": "control_change"}, {"time": 58640, "annotation": {"number": 11, "value": 97}, "group": "control_change"}, {"time": 58720, "annotation": {"number": 11, "value": 96}, "group": "control_change"}, {"time": 58760, "annotation": {"number": 11, "value": 95}, "group": "control_change"}, {"time": 58780, "annotation": {"number": 11, "value": 94}, "group": "control_change"}, {"time": 58820, "annotation": {"number": 11, "value": 93}, "group": "control_change"}, {"time": 58861, "annotation": {"number": 11, "value": 92}, "group": "control_change"}, {"time": 58881, "annotation": {"number": 11, "value": 91}, "group": "control_change"}, {"time": 58901, "annotation": {"number": 11, "value": 90}, "group": "control_change"}, {"time": 58921, "annotation": {"number": 11, "value": 88}, "group": "control_change"}, {"time": 58961, "annotation": {"number": 11, "value": 86}, "group": "control_change"}, {"time": 58981, "annotation": {"number": 11, "value": 85}, "group": "control_change"}, {"time": 59001, "annotation": {"number": 11, "value": 83}, "group": "control_change"}, {"time": 59021, "annotation": {"number": 11, "value": 81}, "group": "control_change"}, {"time": 59041, "annotation": {"number": 11, "value": 79}, "group": "control_change"}, {"time": 59061, "annotation": {"number": 11, "value": 76}, "group": "control_change"}, {"time": 59081, "annotation": {"number": 11, "value": 74}, "group": "control_change"}, {"time": 59101, "annotation": {"number": 11, "value": 71}, "group": "control_change"}, {"time": 59121, "annotation": {"number": 11, "value": 69}, "group": "control_change"}, {"time": 59142, "annotation": {"number": 11, "value": 65}, "group": "control_change"}, {"time": 59162, "annotation": {"number": 11, "value": 62}, "group": "control_change"}, {"time": 59182, "annotation": {"number": 11, "value": 58}, "group": "control_change"}, {"time": 59202, "annotation": {"number": 11, "value": 52}, "group": "control_change"}, {"time": 61923, "annotation": {"number": 11, "value": 100}, "group": "control_change"}, {"time": 63842, "annotation": {"number": 11, "value": 76}, "group": "control_change"}, {"time": 63862, "annotation": {"number": 11, "value": 79}, "group": "control_change"}, {"time": 63882, "annotation": {"number": 11, "value": 80}, "group": "control_change"}, {"time": 63902, "annotation": {"number": 11, "value": 81}, "group": "control_change"}, {"time": 63921, "annotation": {"number": 11, "value": 82}, "group": "control_change"}, {"time": 63941, "annotation": {"number": 11, "value": 84}, "group": "control_change"}, {"time": 63961, "annotation": {"number": 11, "value": 85}, "group": "control_change"}, {"time": 63981, "annotation": {"number": 11, "value": 86}, "group": "control_change"}, {"time": 64000, "annotation": {"number": 11, "value": 87}, "group": "control_change"}, {"time": 64040, "annotation": {"number": 11, "value": 88}, "group": "control_change"}, {"time": 64060, "annotation": {"number": 11, "value": 89}, "group": "control_change"}, {"time": 64079, "annotation": {"number": 11, "value": 90}, "group": "control_change"}, {"time": 64119, "annotation": {"number": 11, "value": 91}, "group": "control_change"}, {"time": 64139, "annotation": {"number": 11, "value": 92}, "group": "control_change"}, {"time": 64178, "annotation": {"number": 11, "value": 93}, "group": "control_change"}, {"time": 64218, "annotation": {"number": 11, "value": 94}, "group": "control_change"}, {"time": 64277, "annotation": {"number": 11, "value": 95}, "group": "control_change"}, {"time": 64317, "annotation": {"number": 11, "value": 96}, "group": "control_change"}, {"time": 64377, "annotation": {"number": 11, "value": 97}, "group": "control_change"}, {"time": 64477, "annotation": {"number": 11, "value": 98}, "group": "control_change"}, {"time": 64598, "annotation": {"number": 11, "value": 99}, "group": "control_change"}, {"time": 64798, "annotation": {"number": 11, "value": 100}, "group": "control_change"}, {"time": 65761, "annotation": {"number": 11, "value": 100}, "group": "control_change"}, {"time": 65882, "annotation": {"number": 11, "value": 99}, "group": "control_change"}, {"time": 66002, "annotation": {"number": 11, "value": 98}, "group": "control_change"}, {"time": 66123, "annotation": {"number": 11, "value": 97}, "group": "control_change"}, {"time": 66243, "annotation": {"number": 11, "value": 96}, "group": "control_change"}, {"time": 66361, "annotation": {"number": 11, "value": 95}, "group": "control_change"}, {"time": 66480, "annotation": {"number": 11, "value": 94}, "group": "control_change"}, {"time": 66599, "annotation": {"number": 11, "value": 93}, "group": "control_change"}, {"time": 66717, "annotation": {"number": 11, "value": 92}, "group": "control_change"}, {"time": 66838, "annotation": {"number": 11, "value": 91}, "group": "control_change"}, {"time": 66958, "annotation": {"number": 11, "value": 90}, "group": "control_change"}, {"time": 67078, "annotation": {"number": 11, "value": 89}, "group": "control_change"}, {"time": 67199, "annotation": {"number": 11, "value": 88}, "group": "control_change"}, {"time": 67319, "annotation": {"number": 11, "value": 87}, "group": "control_change"}, {"time": 67440, "annotation": {"number": 11, "value": 86}, "group": "control_change"}, {"time": 67560, "annotation": {"number": 11, "value": 85}, "group": "control_change"}, {"time": 67680, "annotation": {"number": 11, "value": 84}, "group": "control_change"}, {"time": 67680, "annotation": {"number": 11, "value": 84}, "group": "control_change"}, {"time": 67801, "annotation": {"number": 11, "value": 85}, "group": "control_change"}, {"time": 67921, "annotation": {"number": 11, "value": 86}, "group": "control_change"}, {"time": 68042, "annotation": {"number": 11, "value": 87}, "group": "control_change"}, {"time": 68162, "annotation": {"number": 11, "value": 88}, "group": "control_change"}, {"time": 68282, "annotation": {"number": 11, "value": 89}, "group": "control_change"}, {"time": 68403, "annotation": {"number": 11, "value": 90}, "group": "control_change"}, {"time": 68523, "annotation": {"number": 11, "value": 91}, "group": "control_change"}, {"time": 68643, "annotation": {"number": 11, "value": 92}, "group": "control_change"}, {"time": 68762, "annotation": {"number": 11, "value": 93}, "group": "control_change"}, {"time": 68881, "annotation": {"number": 11, "value": 94}, "group": "control_change"}, {"time": 68999, "annotation": {"number": 11, "value": 95}, "group": "control_change"}, {"time": 69118, "annotation": {"number": 11, "value": 96}, "group": "control_change"}, {"time": 69238, "annotation": {"number": 11, "value": 97}, "group": "control_change"}, {"time": 69359, "annotation": {"number": 11, "value": 98}, "group": "control_change"}, {"time": 69479, "annotation": {"number": 11, "value": 99}, "group": "control_change"}, {"time": 69599, "annotation": {"number": 11, "value": 100}, "group": "control_change"}, {"time": 71037, "annotation": {"number": 11, "value": 76}, "group": "control_change"}, {"time": 71057, "annotation": {"number": 11, "value": 82}, "group": "control_change"}, {"time": 71077, "annotation": {"number": 11, "value": 86}, "group": "control_change"}, {"time": 71097, "annotation": {"number": 11, "value": 88}, "group": "control_change"}, {"time": 71117, "annotation": {"number": 11, "value": 91}, "group": "control_change"}, {"time": 71137, "annotation": {"number": 11, "value": 93}, "group": "control_change"}, {"time": 71157, "annotation": {"number": 11, "value": 94}, "group": "control_change"}, {"time": 71177, "annotation": {"number": 11, "value": 96}, "group": "control_change"}, {"time": 71197, "annotation": {"number": 11, "value": 97}, "group": "control_change"}, {"time": 71237, "annotation": {"number": 11, "value": 98}, "group": "control_change"}, {"time": 71257, "annotation": {"number": 11, "value": 99}, "group": "control_change"}, {"time": 71318, "annotation": {"number": 11, "value": 100}, "group": "control_change"}, {"time": 73437, "annotation": {"number": 11, "value": 100}, "group": "control_change"}, {"time": 74120, "annotation": {"number": 11, "value": 99}, "group": "control_change"}, {"time": 74240, "annotation": {"number": 11, "value": 98}, "group": "control_change"}, {"time": 74300, "annotation": {"number": 11, "value": 97}, "group": "control_change"}, {"time": 74380, "annotation": {"number": 11, "value": 96}, "group": "control_change"}, {"time": 74421, "annotation": {"number": 11, "value": 95}, "group": "control_change"}, {"time": 74441, "annotation": {"number": 11, "value": 94}, "group": "control_change"}, {"time": 74481, "annotation": {"number": 11, "value": 93}, "group": "control_change"}, {"time": 74521, "annotation": {"number": 11, "value": 92}, "group": "control_change"}, {"time": 74541, "annotation": {"number": 11, "value": 91}, "group": "control_change"}, {"time": 74561, "annotation": {"number": 11, "value": 90}, "group": "control_change"}, {"time": 74581, "annotation": {"number": 11, "value": 88}, "group": "control_change"}, {"time": 74621, "annotation": {"number": 11, "value": 86}, "group": "control_change"}, {"time": 74641, "annotation": {"number": 11, "value": 85}, "group": "control_change"}, {"time": 74661, "annotation": {"number": 11, "value": 83}, "group": "control_change"}, {"time": 74681, "annotation": {"number": 11, "value": 81}, "group": "control_change"}, {"time": 74701, "annotation": {"number": 11, "value": 79}, "group": "control_change"}, {"time": 74722, "annotation": {"number": 11, "value": 76}, "group": "control_change"}, {"time": 74742, "annotation": {"number": 11, "value": 74}, "group": "control_change"}, {"time": 74762, "annotation": {"number": 11, "value": 71}, "group": "control_change"}, {"time": 74782, "annotation": {"number": 11, "value": 69}, "group": "control_change"}, {"time": 74802, "annotation": {"number": 11, "value": 65}, "group": "control_change"}, {"time": 74822, "annotation": {"number": 11, "value": 62}, "group": "control_change"}, {"time": 74842, "annotation": {"number": 11, "value": 58}, "group": "control_change"}, {"time": 74862, "annotation": {"number": 11, "value": 52}, "group": "control_change"}, {"time": 78961, "annotation": {"number": 11, "value": 100}, "group": "control_change"}, {"time": 81121, "annotation": {"number": 11, "value": 100}, "group": "control_change"}, {"time": 82137, "annotation": {"number": 11, "value": 99}, "group": "control_change"}, {"time": 82277, "annotation": {"number": 11, "value": 98}, "group": "control_change"}, {"time": 82357, "annotation": {"number": 11, "value": 97}, "group": "control_change"}, {"time": 82438, "annotation": {"number": 11, "value": 96}, "group": "control_change"}, {"time": 82498, "annotation": {"number": 11, "value": 95}, "group": "control_change"}, {"time": 82538, "annotation": {"number": 11, "value": 94}, "group": "control_change"}, {"time": 82578, "annotation": {"number": 11, "value": 93}, "group": "control_change"}, {"time": 82618, "annotation": {"number": 11, "value": 92}, "group": "control_change"}, {"time": 82638, "annotation": {"number": 11, "value": 91}, "group": "control_change"}, {"time": 82678, "annotation": {"number": 11, "value": 90}, "group": "control_change"}, {"time": 82698, "annotation": {"number": 11, "value": 88}, "group": "control_change"}, {"time": 82739, "annotation": {"number": 11, "value": 87}, "group": "control_change"}, {"time": 82759, "annotation": {"number": 11, "value": 85}, "group": "control_change"}, {"time": 82779, "annotation": {"number": 11, "value": 84}, "group": "control_change"}, {"time": 82799, "annotation": {"number": 11, "value": 83}, "group": "control_change"}, {"time": 82819, "annotation": {"number": 11, "value": 81}, "group": "control_change"}, {"time": 82839, "annotation": {"number": 11, "value": 79}, "group": "control_change"}, {"time": 82859, "annotation": {"number": 11, "value": 78}, "group": "control_change"}, {"time": 82879, "annotation": {"number": 11, "value": 76}, "group": "control_change"}, {"time": 82899, "annotation": {"number": 11, "value": 74}, "group": "control_change"}, {"time": 82919, "annotation": {"number": 11, "value": 71}, "group": "control_change"}, {"time": 82939, "annotation": {"number": 11, "value": 69}, "group": "control_change"}, {"time": 82959, "annotation": {"number": 11, "value": 67}, "group": "control_change"}, {"time": 82979, "annotation": {"number": 11, "value": 64}, "group": "control_change"}, {"time": 82999, "annotation": {"number": 11, "value": 60}, "group": "control_change"}, {"time": 83020, "annotation": {"number": 11, "value": 57}, "group": "control_change"}, {"time": 83040, "annotation": {"number": 11, "value": 52}, "group": "control_change"}, {"time": 90241, "annotation": {"number": 11, "value": 60}, "group": "control_change"}, {"time": 90261, "annotation": {"number": 11, "value": 69}, "group": "control_change"}, {"time": 90281, "annotation": {"number": 11, "value": 76}, "group": "control_change"}, {"time": 90302, "annotation": {"number": 11, "value": 80}, "group": "control_change"}, {"time": 90322, "annotation": {"number": 11, "value": 85}, "group": "control_change"}, {"time": 90342, "annotation": {"number": 11, "value": 88}, "group": "control_change"}, {"time": 90362, "annotation": {"number": 11, "value": 90}, "group": "control_change"}, {"time": 90382, "annotation": {"number": 11, "value": 93}, "group": "control_change"}, {"time": 90402, "annotation": {"number": 11, "value": 94}, "group": "control_change"}, {"time": 90422, "annotation": {"number": 11, "value": 95}, "group": "control_change"}, {"time": 90442, "annotation": {"number": 11, "value": 97}, "group": "control_change"}, {"time": 90462, "annotation": {"number": 11, "value": 98}, "group": "control_change"}, {"time": 90502, "annotation": {"number": 11, "value": 99}, "group": "control_change"}, {"time": 90562, "annotation": {"number": 11, "value": 100}, "group": "control_change"}, {"time": 90723, "annotation": {"number": 11, "value": 100}, "group": "control_change"}, {"time": 90841, "annotation": {"number": 11, "value": 99}, "group": "control_change"}, {"time": 90960, "annotation": {"number": 11, "value": 98}, "group": "control_change"}, {"time": 91079, "annotation": {"number": 11, "value": 97}, "group": "control_change"}, {"time": 91197, "annotation": {"number": 11, "value": 96}, "group": "control_change"}, {"time": 91318, "annotation": {"number": 11, "value": 95}, "group": "control_change"}, {"time": 91438, "annotation": {"number": 11, "value": 94}, "group": "control_change"}, {"time": 91558, "annotation": {"number": 11, "value": 93}, "group": "control_change"}, {"time": 91679, "annotation": {"number": 11, "value": 92}, "group": "control_change"}, {"time": 91799, "annotation": {"number": 11, "value": 91}, "group": "control_change"}, {"time": 91920, "annotation": {"number": 11, "value": 90}, "group": "control_change"}, {"time": 92040, "annotation": {"number": 11, "value": 89}, "group": "control_change"}, {"time": 92160, "annotation": {"number": 11, "value": 88}, "group": "control_change"}, {"time": 92281, "annotation": {"number": 11, "value": 87}, "group": "control_change"}, {"time": 92401, "annotation": {"number": 11, "value": 86}, "group": "control_change"}, {"time": 92522, "annotation": {"number": 11, "value": 85}, "group": "control_change"}, {"time": 92642, "annotation": {"number": 11, "value": 84}, "group": "control_change"}, {"time": 92642, "annotation": {"number": 11, "value": 84}, "group": "control_change"}, {"time": 92762, "annotation": {"number": 11, "value": 85}, "group": "control_change"}, {"time": 92883, "annotation": {"number": 11, "value": 86}, "group": "control_change"}, {"time": 93003, "annotation": {"number": 11, "value": 87}, "group": "control_change"}, {"time": 93123, "annotation": {"number": 11, "value": 88}, "group": "control_change"}, {"time": 93242, "annotation": {"number": 11, "value": 89}, "group": "control_change"}, {"time": 93361, "annotation": {"number": 11, "value": 90}, "group": "control_change"}, {"time": 93479, "annotation": {"number": 11, "value": 91}, "group": "control_change"}, {"time": 93598, "annotation": {"number": 11, "value": 92}, "group": "control_change"}, {"time": 93718, "annotation": {"number": 11, "value": 93}, "group": "control_change"}, {"time": 93838, "annotation": {"number": 11, "value": 94}, "group": "control_change"}, {"time": 93959, "annotation": {"number": 11, "value": 95}, "group": "control_change"}, {"time": 94079, "annotation": {"number": 11, "value": 96}, "group": "control_change"}, {"time": 94200, "annotation": {"number": 11, "value": 97}, "group": "control_change"}, {"time": 94320, "annotation": {"number": 11, "value": 98}, "group": "control_change"}, {"time": 94440, "annotation": {"number": 11, "value": 99}, "group": "control_change"}, {"time": 94561, "annotation": {"number": 11, "value": 100}, "group": "control_change"}, {"time": 96480, "annotation": {"number": 11, "value": 100}, "group": "control_change"}, {"time": 96640, "annotation": {"number": 11, "value": 99}, "group": "control_change"}, {"time": 96721, "annotation": {"number": 11, "value": 98}, "group": "control_change"}, {"time": 96761, "annotation": {"number": 11, "value": 97}, "group": "control_change"}, {"time": 96781, "annotation": {"number": 11, "value": 96}, "group": "control_change"}, {"time": 96801, "annotation": {"number": 11, "value": 95}, "group": "control_change"}, {"time": 96841, "annotation": {"number": 11, "value": 94}, "group": "control_change"}, {"time": 96861, "annotation": {"number": 11, "value": 92}, "group": "control_change"}, {"time": 96881, "annotation": {"number": 11, "value": 90}, "group": "control_change"}, {"time": 96901, "annotation": {"number": 11, "value": 89}, "group": "control_change"}, {"time": 96921, "annotation": {"number": 11, "value": 86}, "group": "control_change"}, {"time": 96941, "annotation": {"number": 11, "value": 84}, "group": "control_change"}, {"time": 96961, "annotation": {"number": 11, "value": 80}, "group": "control_change"}, {"time": 96982, "annotation": {"number": 11, "value": 77}, "group": "control_change"}, {"time": 97002, "annotation": {"number": 11, "value": 72}, "group": "control_change"}, {"time": 97022, "annotation": {"number": 11, "value": 67}, "group": "control_change"}, {"time": 97042, "annotation": {"number": 11, "value": 60}, "group": "control_change"}, {"time": 97062, "annotation": {"number": 11, "value": 53}, "group": "control_change"}, {"time": 97082, "annotation": {"number": 11, "value": 44}, "group": "control_change"}, {"time": 97102, "annotation": {"number": 11, "value": 33}, "group": "control_change"}, {"time": 97122, "annotation": {"number": 11, "value": 20}, "group": "control_change"}, {"time": 105360, "annotation": {"number": 11, "value": 68}, "group": "control_change"}, {"time": 105390, "annotation": {"number": 11, "value": 70}, "group": "control_change"}, {"time": 105420, "annotation": {"number": 11, "value": 72}, "group": "control_change"}, {"time": 105450, "annotation": {"number": 11, "value": 74}, "group": "control_change"}, {"time": 105480, "annotation": {"number": 11, "value": 76}, "group": "control_change"}, {"time": 105510, "annotation": {"number": 11, "value": 78}, "group": "control_change"}, {"time": 105540, "annotation": {"number": 11, "value": 80}, "group": "control_change"}, {"time": 105570, "annotation": {"number": 11, "value": 82}, "group": "control_change"}, {"time": 105601, "annotation": {"number": 11, "value": 84}, "group": "control_change"}, {"time": 105631, "annotation": {"number": 11, "value": 86}, "group": "control_change"}, {"time": 105661, "annotation": {"number": 11, "value": 88}, "group": "control_change"}, {"time": 105691, "annotation": {"number": 11, "value": 90}, "group": "control_change"}, {"time": 105721, "annotation": {"number": 11, "value": 92}, "group": "control_change"}, {"time": 105751, "annotation": {"number": 11, "value": 94}, "group": "control_change"}, {"time": 105781, "annotation": {"number": 11, "value": 96}, "group": "control_change"}, {"time": 105811, "annotation": {"number": 11, "value": 98}, "group": "control_change"}, {"time": 105841, "annotation": {"number": 11, "value": 100}, "group": "control_change"}, {"time": 106082, "annotation": {"number": 11, "value": 76}, "group": "control_change"}, {"time": 106112, "annotation": {"number": 11, "value": 81}, "group": "control_change"}, {"time": 106141, "annotation": {"number": 11, "value": 85}, "group": "control_change"}, {"time": 106171, "annotation": {"number": 11, "value": 87}, "group": "control_change"}, {"time": 106201, "annotation": {"number": 11, "value": 90}, "group": "control_change"}, {"time": 106230, "annotation": {"number": 11, "value": 92}, "group": "control_change"}, {"time": 106260, "annotation": {"number": 11, "value": 93}, "group": "control_change"}, {"time": 106290, "annotation": {"number": 11, "value": 95}, "group": "control_change"}, {"time": 106319, "annotation": {"number": 11, "value": 96}, "group": "control_change"}, {"time": 106349, "annotation": {"number": 11, "value": 97}, "group": "control_change"}, {"time": 106408, "annotation": {"number": 11, "value": 98}, "group": "control_change"}, {"time": 106468, "annotation": {"number": 11, "value": 99}, "group": "control_change"}, {"time": 106556, "annotation": {"number": 11, "value": 100}, "group": "control_change"}, {"time": 107158, "annotation": {"number": 11, "value": 99}, "group": "control_change"}, {"time": 107339, "annotation": {"number": 11, "value": 98}, "group": "control_change"}, {"time": 107429, "annotation": {"number": 11, "value": 97}, "group": "control_change"}, {"time": 107520, "annotation": {"number": 11, "value": 96}, "group": "control_change"}, {"time": 107580, "annotation": {"number": 11, "value": 95}, "group": "control_change"}, {"time": 107640, "annotation": {"number": 11, "value": 94}, "group": "control_change"}, {"time": 107670, "annotation": {"number": 11, "value": 93}, "group": "control_change"}, {"time": 107730, "annotation": {"number": 11, "value": 92}, "group": "control_change"}, {"time": 107760, "annotation": {"number": 11, "value": 91}, "group": "control_change"}, {"time": 107790, "annotation": {"number": 11, "value": 90}, "group": "control_change"}, {"time": 107821, "annotation": {"number": 11, "value": 88}, "group": "control_change"}, {"time": 107851, "annotation": {"number": 11, "value": 87}, "group": "control_change"}, {"time": 107881, "annotation": {"number": 11, "value": 85}, "group": "control_change"}, {"time": 107911, "annotation": {"number": 11, "value": 84}, "group": "control_change"}, {"time": 107941, "annotation": {"number": 11, "value": 82}, "group": "control_change"}, {"time": 107971, "annotation": {"number": 11, "value": 79}, "group": "control_change"}, {"time": 108001, "annotation": {"number": 11, "value": 76}, "group": "control_change"}, {"time": 108001, "annotation": {"number": 11, "value": 76}, "group": "control_change"}, {"time": 108031, "annotation": {"number": 11, "value": 80}, "group": "control_change"}, {"time": 108061, "annotation": {"number": 11, "value": 84}, "group": "control_change"}, {"time": 108091, "annotation": {"number": 11, "value": 86}, "group": "control_change"}, {"time": 108122, "annotation": {"number": 11, "value": 88}, "group": "control_change"}, {"time": 108152, "annotation": {"number": 11, "value": 90}, "group": "control_change"}, {"time": 108182, "annotation": {"number": 11, "value": 92}, "group": "control_change"}, {"time": 108212, "annotation": {"number": 11, "value": 93}, "group": "control_change"}, {"time": 108242, "annotation": {"number": 11, "value": 94}, "group": "control_change"}, {"time": 108272, "annotation": {"number": 11, "value": 96}, "group": "control_change"}, {"time": 108332, "annotation": {"number": 11, "value": 97}, "group": "control_change"}, {"time": 108392, "annotation": {"number": 11, "value": 98}, "group": "control_change"}, {"time": 108453, "annotation": {"number": 11, "value": 99}, "group": "control_change"}, {"time": 108572, "annotation": {"number": 11, "value": 100}, "group": "control_change"}, {"time": 110883, "annotation": {"number": 11, "value": 76}, "group": "control_change"}, {"time": 110913, "annotation": {"number": 11, "value": 81}, "group": "control_change"}, {"time": 110943, "annotation": {"number": 11, "value": 85}, "group": "control_change"}, {"time": 110972, "annotation": {"number": 11, "value": 88}, "group": "control_change"}, {"time": 111002, "annotation": {"number": 11, "value": 90}, "group": "control_change"}, {"time": 111031, "annotation": {"number": 11, "value": 92}, "group": "control_change"}, {"time": 111061, "annotation": {"number": 11, "value": 94}, "group": "control_change"}, {"time": 111091, "annotation": {"number": 11, "value": 95}, "group": "control_change"}, {"time": 111120, "annotation": {"number": 11, "value": 96}, "group": "control_change"}, {"time": 111150, "annotation": {"number": 11, "value": 97}, "group": "control_change"}, {"time": 111209, "annotation": {"number": 11, "value": 98}, "group": "control_change"}, {"time": 111239, "annotation": {"number": 11, "value": 99}, "group": "control_change"}, {"time": 111358, "annotation": {"number": 11, "value": 100}, "group": "control_change"}, {"time": 111839, "annotation": {"number": 11, "value": 100}, "group": "control_change"}, {"time": 112291, "annotation": {"number": 11, "value": 99}, "group": "control_change"}, {"time": 112501, "annotation": {"number": 11, "value": 98}, "group": "control_change"}, {"time": 112592, "annotation": {"number": 11, "value": 97}, "group": "control_change"}, {"time": 112652, "annotation": {"number": 11, "value": 96}, "group": "control_change"}, {"time": 112712, "annotation": {"number": 11, "value": 95}, "group": "control_change"}, {"time": 112772, "annotation": {"number": 11, "value": 94}, "group": "control_change"}, {"time": 112802, "annotation": {"number": 11, "value": 93}, "group": "control_change"}, {"time": 112862, "annotation": {"number": 11, "value": 92}, "group": "control_change"}, {"time": 112891, "annotation": {"number": 11, "value": 91}, "group": "control_change"}, {"time": 112921, "annotation": {"number": 11, "value": 90}, "group": "control_change"}, {"time": 112950, "annotation": {"number": 11, "value": 88}, "group": "control_change"}, {"time": 112980, "annotation": {"number": 11, "value": 86}, "group": "control_change"}, {"time": 113010, "annotation": {"number": 11, "value": 85}, "group": "control_change"}, {"time": 113039, "annotation": {"number": 11, "value": 83}, "group": "control_change"}, {"time": 113069, "annotation": {"number": 11, "value": 81}, "group": "control_change"}, {"time": 113099, "annotation": {"number": 11, "value": 79}, "group": "control_change"}, {"time": 113128, "annotation": {"number": 11, "value": 77}, "group": "control_change"}, {"time": 113158, "annotation": {"number": 11, "value": 74}, "group": "control_change"}, {"time": 113188, "annotation": {"number": 11, "value": 71}, "group": "control_change"}, {"time": 113217, "annotation": {"number": 11, "value": 67}, "group": "control_change"}, {"time": 113247, "annotation": {"number": 11, "value": 64}, "group": "control_change"}, {"time": 113277, "annotation": {"number": 11, "value": 59}, "group": "control_change"}, {"time": 113307, "annotation": {"number": 11, "value": 55}, "group": "control_change"}, {"time": 113337, "annotation": {"number": 11, "value": 49}, "group": "control_change"}, {"time": 113367, "annotation": {"number": 11, "value": 44}, "group": "control_change"}, {"time": 129117, "annotation": {"number": 11, "value": 100}, "group": "control_change"}, {"time": 131036, "annotation": {"number": 11, "value": 76}, "group": "control_change"}, {"time": 131056, "annotation": {"number": 11, "value": 79}, "group": "control_change"}, {"time": 131076, "annotation": {"number": 11, "value": 80}, "group": "control_change"}, {"time": 131097, "annotation": {"number": 11, "value": 81}, "group": "control_change"}, {"time": 131117, "annotation": {"number": 11, "value": 82}, "group": "control_change"}, {"time": 131137, "annotation": {"number": 11, "value": 84}, "group": "control_change"}, {"time": 131157, "annotation": {"number": 11, "value": 85}, "group": "control_change"}, {"time": 131177, "annotation": {"number": 11, "value": 86}, "group": "control_change"}, {"time": 131197, "annotation": {"number": 11, "value": 87}, "group": "control_change"}, {"time": 131237, "annotation": {"number": 11, "value": 88}, "group": "control_change"}, {"time": 131257, "annotation": {"number": 11, "value": 89}, "group": "control_change"}, {"time": 131277, "annotation": {"number": 11, "value": 90}, "group": "control_change"}, {"time": 131317, "annotation": {"number": 11, "value": 91}, "group": "control_change"}, {"time": 131337, "annotation": {"number": 11, "value": 92}, "group": "control_change"}, {"time": 131377, "annotation": {"number": 11, "value": 93}, "group": "control_change"}, {"time": 131418, "annotation": {"number": 11, "value": 94}, "group": "control_change"}, {"time": 131478, "annotation": {"number": 11, "value": 95}, "group": "control_change"}, {"time": 131518, "annotation": {"number": 11, "value": 96}, "group": "control_change"}, {"time": 131578, "annotation": {"number": 11, "value": 97}, "group": "control_change"}, {"time": 131678, "annotation": {"number": 11, "value": 98}, "group": "control_change"}, {"time": 131799, "annotation": {"number": 11, "value": 99}, "group": "control_change"}, {"time": 132000, "annotation": {"number": 11, "value": 100}, "group": "control_change"}, {"time": 132963, "annotation": {"number": 11, "value": 100}, "group": "control_change"}, {"time": 133081, "annotation": {"number": 11, "value": 99}, "group": "control_change"}, {"time": 133200, "annotation": {"number": 11, "value": 98}, "group": "control_change"}, {"time": 133318, "annotation": {"number": 11, "value": 97}, "group": "control_change"}, {"time": 133437, "annotation": {"number": 11, "value": 96}, "group": "control_change"}, {"time": 133557, "annotation": {"number": 11, "value": 95}, "group": "control_change"}, {"time": 133678, "annotation": {"number": 11, "value": 94}, "group": "control_change"}, {"time": 133798, "annotation": {"number": 11, "value": 93}, "group": "control_change"}, {"time": 133919, "annotation": {"number": 11, "value": 92}, "group": "control_change"}, {"time": 134039, "annotation": {"number": 11, "value": 91}, "group": "control_change"}, {"time": 134159, "annotation": {"number": 11, "value": 90}, "group": "control_change"}, {"time": 134280, "annotation": {"number": 11, "value": 89}, "group": "control_change"}, {"time": 134400, "annotation": {"number": 11, "value": 88}, "group": "control_change"}, {"time": 134521, "annotation": {"number": 11, "value": 87}, "group": "control_change"}, {"time": 134641, "annotation": {"number": 11, "value": 86}, "group": "control_change"}, {"time": 134761, "annotation": {"number": 11, "value": 85}, "group": "control_change"}, {"time": 134882, "annotation": {"number": 11, "value": 84}, "group": "control_change"}, {"time": 134882, "annotation": {"number": 11, "value": 84}, "group": "control_change"}, {"time": 135002, "annotation": {"number": 11, "value": 85}, "group": "control_change"}, {"time": 135122, "annotation": {"number": 11, "value": 86}, "group": "control_change"}, {"time": 135243, "annotation": {"number": 11, "value": 87}, "group": "control_change"}, {"time": 135363, "annotation": {"number": 11, "value": 88}, "group": "control_change"}, {"time": 135482, "annotation": {"number": 11, "value": 89}, "group": "control_change"}, {"time": 135600, "annotation": {"number": 11, "value": 90}, "group": "control_change"}, {"time": 135719, "annotation": {"number": 11, "value": 91}, "group": "control_change"}, {"time": 135838, "annotation": {"number": 11, "value": 92}, "group": "control_change"}, {"time": 135958, "annotation": {"number": 11, "value": 93}, "group": "control_change"}, {"time": 136078, "annotation": {"number": 11, "value": 94}, "group": "control_change"}, {"time": 136199, "annotation": {"number": 11, "value": 95}, "group": "control_change"}, {"time": 136319, "annotation": {"number": 11, "value": 96}, "group": "control_change"}, {"time": 136439, "annotation": {"number": 11, "value": 97}, "group": "control_change"}, {"time": 136560, "annotation": {"number": 11, "value": 98}, "group": "control_change"}, {"time": 136680, "annotation": {"number": 11, "value": 99}, "group": "control_change"}, {"time": 136801, "annotation": {"number": 11, "value": 100}, "group": "control_change"}, {"time": 138238, "annotation": {"number": 11, "value": 76}, "group": "control_change"}, {"time": 138258, "annotation": {"number": 11, "value": 82}, "group": "control_change"}, {"time": 138278, "annotation": {"number": 11, "value": 86}, "group": "control_change"}, {"time": 138298, "annotation": {"number": 11, "value": 88}, "group": "control_change"}, {"time": 138318, "annotation": {"number": 11, "value": 91}, "group": "control_change"}, {"time": 138338, "annotation": {"number": 11, "value": 93}, "group": "control_change"}, {"time": 138358, "annotation": {"number": 11, "value": 94}, "group": "control_change"}, {"time": 138379, "annotation": {"number": 11, "value": 96}, "group": "control_change"}, {"time": 138399, "annotation": {"number": 11, "value": 97}, "group": "control_change"}, {"time": 138439, "annotation": {"number": 11, "value": 98}, "group": "control_change"}, {"time": 138459, "annotation": {"number": 11, "value": 99}, "group": "control_change"}, {"time": 138519, "annotation": {"number": 11, "value": 100}, "group": "control_change"}, {"time": 140639, "annotation": {"number": 11, "value": 100}, "group": "control_change"}, {"time": 141020, "annotation": {"number": 11, "value": 99}, "group": "control_change"}, {"time": 141140, "annotation": {"number": 11, "value": 98}, "group": "control_change"}, {"time": 141201, "annotation": {"number": 11, "value": 97}, "group": "control_change"}, {"time": 141281, "annotation": {"number": 11, "value": 96}, "group": "control_change"}, {"time": 141321, "annotation": {"number": 11, "value": 95}, "group": "control_change"}, {"time": 141341, "annotation": {"number": 11, "value": 94}, "group": "control_change"}, {"time": 141381, "annotation": {"number": 11, "value": 93}, "group": "control_change"}, {"time": 141421, "annotation": {"number": 11, "value": 92}, "group": "control_change"}, {"time": 141441, "annotation": {"number": 11, "value": 91}, "group": "control_change"}, {"time": 141461, "annotation": {"number": 11, "value": 90}, "group": "control_change"}, {"time": 141481, "annotation": {"number": 11, "value": 88}, "group": "control_change"}, {"time": 141522, "annotation": {"number": 11, "value": 86}, "group": "control_change"}, {"time": 141542, "annotation": {"number": 11, "value": 85}, "group": "control_change"}, {"time": 141562, "annotation": {"number": 11, "value": 83}, "group": "control_change"}, {"time": 141582, "annotation": {"number": 11, "value": 81}, "group": "control_change"}, {"time": 141602, "annotation": {"number": 11, "value": 79}, "group": "control_change"}, {"time": 141622, "annotation": {"number": 11, "value": 76}, "group": "control_change"}, {"time": 141642, "annotation": {"number": 11, "value": 74}, "group": "control_change"}, {"time": 141662, "annotation": {"number": 11, "value": 71}, "group": "control_change"}, {"time": 141682, "annotation": {"number": 11, "value": 69}, "group": "control_change"}, {"time": 141702, "annotation": {"number": 11, "value": 65}, "group": "control_change"}, {"time": 141722, "annotation": {"number": 11, "value": 62}, "group": "control_change"}, {"time": 141742, "annotation": {"number": 11, "value": 58}, "group": "control_change"}, {"time": 141762, "annotation": {"number": 11, "value": 52}, "group": "control_change"}, {"time": 144477, "annotation": {"number": 11, "value": 100}, "group": "control_change"}, {"time": 146403, "annotation": {"number": 11, "value": 76}, "group": "control_change"}, {"time": 146423, "annotation": {"number": 11, "value": 79}, "group": "control_change"}, {"time": 146442, "annotation": {"number": 11, "value": 80}, "group": "control_change"}, {"time": 146462, "annotation": {"number": 11, "value": 81}, "group": "control_change"}, {"time": 146482, "annotation": {"number": 11, "value": 82}, "group": "control_change"}, {"time": 146502, "annotation": {"number": 11, "value": 84}, "group": "control_change"}, {"time": 146522, "annotation": {"number": 11, "value": 85}, "group": "control_change"}, {"time": 146541, "annotation": {"number": 11, "value": 86}, "group": "control_change"}, {"time": 146561, "annotation": {"number": 11, "value": 87}, "group": "control_change"}, {"time": 146601, "annotation": {"number": 11, "value": 88}, "group": "control_change"}, {"time": 146620, "annotation": {"number": 11, "value": 89}, "group": "control_change"}, {"time": 146640, "annotation": {"number": 11, "value": 90}, "group": "control_change"}, {"time": 146680, "annotation": {"number": 11, "value": 91}, "group": "control_change"}, {"time": 146699, "annotation": {"number": 11, "value": 92}, "group": "control_change"}, {"time": 146739, "annotation": {"number": 11, "value": 93}, "group": "control_change"}, {"time": 146778, "annotation": {"number": 11, "value": 94}, "group": "control_change"}, {"time": 146838, "annotation": {"number": 11, "value": 95}, "group": "control_change"}, {"time": 146877, "annotation": {"number": 11, "value": 96}, "group": "control_change"}, {"time": 146937, "annotation": {"number": 11, "value": 97}, "group": "control_change"}, {"time": 147038, "annotation": {"number": 11, "value": 98}, "group": "control_change"}, {"time": 147158, "annotation": {"number": 11, "value": 99}, "group": "control_change"}, {"time": 147359, "annotation": {"number": 11, "value": 100}, "group": "control_change"}, {"time": 148322, "annotation": {"number": 11, "value": 100}, "group": "control_change"}, {"time": 148442, "annotation": {"number": 11, "value": 99}, "group": "control_change"}, {"time": 148563, "annotation": {"number": 11, "value": 98}, "group": "control_change"}, {"time": 148683, "annotation": {"number": 11, "value": 97}, "group": "control_change"}, {"time": 148804, "annotation": {"number": 11, "value": 96}, "group": "control_change"}, {"time": 148922, "annotation": {"number": 11, "value": 95}, "group": "control_change"}, {"time": 149041, "annotation": {"number": 11, "value": 94}, "group": "control_change"}, {"time": 149159, "annotation": {"number": 11, "value": 93}, "group": "control_change"}, {"time": 149278, "annotation": {"number": 11, "value": 92}, "group": "control_change"}, {"time": 149398, "annotation": {"number": 11, "value": 91}, "group": "control_change"}, {"time": 149519, "annotation": {"number": 11, "value": 90}, "group": "control_change"}, {"time": 149639, "annotation": {"number": 11, "value": 89}, "group": "control_change"}, {"time": 149759, "annotation": {"number": 11, "value": 88}, "group": "control_change"}, {"time": 149880, "annotation": {"number": 11, "value": 87}, "group": "control_change"}, {"time": 150000, "annotation": {"number": 11, "value": 86}, "group": "control_change"}, {"time": 150121, "annotation": {"number": 11, "value": 85}, "group": "control_change"}, {"time": 150241, "annotation": {"number": 11, "value": 84}, "group": "control_change"}, {"time": 150241, "annotation": {"number": 11, "value": 84}, "group": "control_change"}, {"time": 150361, "annotation": {"number": 11, "value": 85}, "group": "control_change"}, {"time": 150482, "annotation": {"number": 11, "value": 86}, "group": "control_change"}, {"time": 150602, "annotation": {"number": 11, "value": 87}, "group": "control_change"}, {"time": 150723, "annotation": {"number": 11, "value": 88}, "group": "control_change"}, {"time": 150841, "annotation": {"number": 11, "value": 89}, "group": "control_change"}, {"time": 150960, "annotation": {"number": 11, "value": 90}, "group": "control_change"}, {"time": 151078, "annotation": {"number": 11, "value": 91}, "group": "control_change"}, {"time": 151197, "annotation": {"number": 11, "value": 92}, "group": "control_change"}, {"time": 151317, "annotation": {"number": 11, "value": 93}, "group": "control_change"}, {"time": 151438, "annotation": {"number": 11, "value": 94}, "group": "control_change"}, {"time": 151558, "annotation": {"number": 11, "value": 95}, "group": "control_change"}, {"time": 151678, "annotation": {"number": 11, "value": 96}, "group": "control_change"}, {"time": 151799, "annotation": {"number": 11, "value": 97}, "group": "control_change"}, {"time": 151919, "annotation": {"number": 11, "value": 98}, "group": "control_change"}, {"time": 152040, "annotation": {"number": 11, "value": 99}, "group": "control_change"}, {"time": 152160, "annotation": {"number": 11, "value": 100}, "group": "control_change"}, {"time": 153597, "annotation": {"number": 11, "value": 76}, "group": "control_change"}, {"time": 153617, "annotation": {"number": 11, "value": 82}, "group": "control_change"}, {"time": 153637, "annotation": {"number": 11, "value": 86}, "group": "control_change"}, {"time": 153658, "annotation": {"number": 11, "value": 88}, "group": "control_change"}, {"time": 153678, "annotation": {"number": 11, "value": 91}, "group": "control_change"}, {"time": 153698, "annotation": {"number": 11, "value": 93}, "group": "control_change"}, {"time": 153718, "annotation": {"number": 11, "value": 94}, "group": "control_change"}, {"time": 153738, "annotation": {"number": 11, "value": 96}, "group": "control_change"}, {"time": 153758, "annotation": {"number": 11, "value": 97}, "group": "control_change"}, {"time": 153798, "annotation": {"number": 11, "value": 98}, "group": "control_change"}, {"time": 153818, "annotation": {"number": 11, "value": 99}, "group": "control_change"}, {"time": 153878, "annotation": {"number": 11, "value": 100}, "group": "control_change"}, {"time": 155998, "annotation": {"number": 11, "value": 100}, "group": "control_change"}, {"time": 156680, "annotation": {"number": 11, "value": 99}, "group": "control_change"}, {"time": 156801, "annotation": {"number": 11, "value": 98}, "group": "control_change"}, {"time": 156861, "annotation": {"number": 11, "value": 97}, "group": "control_change"}, {"time": 156941, "annotation": {"number": 11, "value": 96}, "group": "control_change"}, {"time": 156981, "annotation": {"number": 11, "value": 95}, "group": "control_change"}, {"time": 157001, "annotation": {"number": 11, "value": 94}, "group": "control_change"}, {"time": 157041, "annotation": {"number": 11, "value": 93}, "group": "control_change"}, {"time": 157081, "annotation": {"number": 11, "value": 92}, "group": "control_change"}, {"time": 157102, "annotation": {"number": 11, "value": 91}, "group": "control_change"}, {"time": 157122, "annotation": {"number": 11, "value": 90}, "group": "control_change"}, {"time": 157142, "annotation": {"number": 11, "value": 88}, "group": "control_change"}, {"time": 157182, "annotation": {"number": 11, "value": 86}, "group": "control_change"}, {"time": 157202, "annotation": {"number": 11, "value": 85}, "group": "control_change"}, {"time": 157222, "annotation": {"number": 11, "value": 83}, "group": "control_change"}, {"time": 157242, "annotation": {"number": 11, "value": 81}, "group": "control_change"}, {"time": 157262, "annotation": {"number": 11, "value": 79}, "group": "control_change"}, {"time": 157282, "annotation": {"number": 11, "value": 76}, "group": "control_change"}, {"time": 157302, "annotation": {"number": 11, "value": 74}, "group": "control_change"}, {"time": 157322, "annotation": {"number": 11, "value": 71}, "group": "control_change"}, {"time": 157342, "annotation": {"number": 11, "value": 69}, "group": "control_change"}, {"time": 157362, "annotation": {"number": 11, "value": 65}, "group": "control_change"}, {"time": 157382, "annotation": {"number": 11, "value": 62}, "group": "control_change"}, {"time": 157403, "annotation": {"number": 11, "value": 58}, "group": "control_change"}, {"time": 157423, "annotation": {"number": 11, "value": 52}, "group": "control_change"}, {"time": 161521, "annotation": {"number": 11, "value": 76}, "group": "control_change"}, {"time": 161542, "annotation": {"number": 11, "value": 86}, "group": "control_change"}, {"time": 161562, "annotation": {"number": 11, "value": 91}, "group": "control_change"}, {"time": 161582, "annotation": {"number": 11, "value": 94}, "group": "control_change"}, {"time": 161602, "annotation": {"number": 11, "value": 97}, "group": "control_change"}, {"time": 161622, "annotation": {"number": 11, "value": 98}, "group": "control_change"}, {"time": 161642, "annotation": {"number": 11, "value": 99}, "group": "control_change"}, {"time": 161662, "annotation": {"number": 11, "value": 100}, "group": "control_change"}, {"time": 165600, "annotation": {"number": 11, "value": 76}, "group": "control_change"}, {"time": 165620, "annotation": {"number": 11, "value": 79}, "group": "control_change"}, {"time": 165640, "annotation": {"number": 11, "value": 80}, "group": "control_change"}, {"time": 165660, "annotation": {"number": 11, "value": 81}, "group": "control_change"}, {"time": 165680, "annotation": {"number": 11, "value": 82}, "group": "control_change"}, {"time": 165701, "annotation": {"number": 11, "value": 84}, "group": "control_change"}, {"time": 165721, "annotation": {"number": 11, "value": 85}, "group": "control_change"}, {"time": 165741, "annotation": {"number": 11, "value": 86}, "group": "control_change"}, {"time": 165761, "annotation": {"number": 11, "value": 87}, "group": "control_change"}, {"time": 165801, "annotation": {"number": 11, "value": 88}, "group": "control_change"}, {"time": 165821, "annotation": {"number": 11, "value": 89}, "group": "control_change"}, {"time": 165841, "annotation": {"number": 11, "value": 90}, "group": "control_change"}, {"time": 165881, "annotation": {"number": 11, "value": 91}, "group": "control_change"}, {"time": 165901, "annotation": {"number": 11, "value": 92}, "group": "control_change"}, {"time": 165941, "annotation": {"number": 11, "value": 93}, "group": "control_change"}, {"time": 165981, "annotation": {"number": 11, "value": 94}, "group": "control_change"}, {"time": 166042, "annotation": {"number": 11, "value": 95}, "group": "control_change"}, {"time": 166082, "annotation": {"number": 11, "value": 96}, "group": "control_change"}, {"time": 166142, "annotation": {"number": 11, "value": 97}, "group": "control_change"}, {"time": 166242, "annotation": {"number": 11, "value": 98}, "group": "control_change"}, {"time": 166363, "annotation": {"number": 11, "value": 99}, "group": "control_change"}, {"time": 166563, "annotation": {"number": 11, "value": 100}, "group": "control_change"}, {"time": 167519, "annotation": {"number": 11, "value": 100}, "group": "control_change"}, {"time": 167640, "annotation": {"number": 11, "value": 99}, "group": "control_change"}, {"time": 167760, "annotation": {"number": 11, "value": 98}, "group": "control_change"}, {"time": 167880, "annotation": {"number": 11, "value": 97}, "group": "control_change"}, {"time": 168001, "annotation": {"number": 11, "value": 96}, "group": "control_change"}, {"time": 168121, "annotation": {"number": 11, "value": 95}, "group": "control_change"}, {"time": 168242, "annotation": {"number": 11, "value": 94}, "group": "control_change"}, {"time": 168362, "annotation": {"number": 11, "value": 93}, "group": "control_change"}, {"time": 168482, "annotation": {"number": 11, "value": 92}, "group": "control_change"}, {"time": 168601, "annotation": {"number": 11, "value": 91}, "group": "control_change"}, {"time": 168719, "annotation": {"number": 11, "value": 90}, "group": "control_change"}, {"time": 168838, "annotation": {"number": 11, "value": 89}, "group": "control_change"}, {"time": 168957, "annotation": {"number": 11, "value": 88}, "group": "control_change"}, {"time": 169077, "annotation": {"number": 11, "value": 87}, "group": "control_change"}, {"time": 169197, "annotation": {"number": 11, "value": 86}, "group": "control_change"}, {"time": 169318, "annotation": {"number": 11, "value": 85}, "group": "control_change"}, {"time": 169438, "annotation": {"number": 11, "value": 84}, "group": "control_change"}, {"time": 169438, "annotation": {"number": 11, "value": 84}, "group": "control_change"}, {"time": 169559, "annotation": {"number": 11, "value": 85}, "group": "control_change"}, {"time": 169679, "annotation": {"number": 11, "value": 86}, "group": "control_change"}, {"time": 169799, "annotation": {"number": 11, "value": 87}, "group": "control_change"}, {"time": 169920, "annotation": {"number": 11, "value": 88}, "group": "control_change"}, {"time": 170040, "annotation": {"number": 11, "value": 89}, "group": "control_change"}, {"time": 170161, "annotation": {"number": 11, "value": 90}, "group": "control_change"}, {"time": 170281, "annotation": {"number": 11, "value": 91}, "group": "control_change"}, {"time": 170401, "annotation": {"number": 11, "value": 92}, "group": "control_change"}, {"time": 170522, "annotation": {"number": 11, "value": 93}, "group": "control_change"}, {"time": 170642, "annotation": {"number": 11, "value": 94}, "group": "control_change"}, {"time": 170763, "annotation": {"number": 11, "value": 95}, "group": "control_change"}, {"time": 170883, "annotation": {"number": 11, "value": 96}, "group": "control_change"}, {"time": 171001, "annotation": {"number": 11, "value": 97}, "group": "control_change"}, {"time": 171120, "annotation": {"number": 11, "value": 98}, "group": "control_change"}, {"time": 171239, "annotation": {"number": 11, "value": 99}, "group": "control_change"}, {"time": 171357, "annotation": {"number": 11, "value": 100}, "group": "control_change"}, {"time": 172802, "annotation": {"number": 11, "value": 76}, "group": "control_change"}, {"time": 172822, "annotation": {"number": 11, "value": 82}, "group": "control_change"}, {"time": 172842, "annotation": {"number": 11, "value": 86}, "group": "control_change"}, {"time": 172862, "annotation": {"number": 11, "value": 88}, "group": "control_change"}, {"time": 172882, "annotation": {"number": 11, "value": 91}, "group": "control_change"}, {"time": 172902, "annotation": {"number": 11, "value": 93}, "group": "control_change"}, {"time": 172922, "annotation": {"number": 11, "value": 94}, "group": "control_change"}, {"time": 172942, "annotation": {"number": 11, "value": 96}, "group": "control_change"}, {"time": 172962, "annotation": {"number": 11, "value": 97}, "group": "control_change"}, {"time": 173003, "annotation": {"number": 11, "value": 98}, "group": "control_change"}, {"time": 173023, "annotation": {"number": 11, "value": 99}, "group": "control_change"}, {"time": 173083, "annotation": {"number": 11, "value": 100}, "group": "control_change"}, {"time": 175202, "annotation": {"number": 11, "value": 100}, "group": "control_change"}, {"time": 175578, "annotation": {"number": 11, "value": 99}, "group": "control_change"}, {"time": 175697, "annotation": {"number": 11, "value": 98}, "group": "control_change"}, {"time": 175757, "annotation": {"number": 11, "value": 97}, "group": "control_change"}, {"time": 175837, "annotation": {"number": 11, "value": 96}, "group": "control_change"}, {"time": 175877, "annotation": {"number": 11, "value": 95}, "group": "control_change"}, {"time": 175897, "annotation": {"number": 11, "value": 94}, "group": "control_change"}, {"time": 175938, "annotation": {"number": 11, "value": 93}, "group": "control_change"}, {"time": 175978, "annotation": {"number": 11, "value": 92}, "group": "control_change"}, {"time": 175998, "annotation": {"number": 11, "value": 91}, "group": "control_change"}, {"time": 176018, "annotation": {"number": 11, "value": 90}, "group": "control_change"}, {"time": 176038, "annotation": {"number": 11, "value": 88}, "group": "control_change"}, {"time": 176078, "annotation": {"number": 11, "value": 86}, "group": "control_change"}, {"time": 176098, "annotation": {"number": 11, "value": 85}, "group": "control_change"}, {"time": 176118, "annotation": {"number": 11, "value": 83}, "group": "control_change"}, {"time": 176138, "annotation": {"number": 11, "value": 81}, "group": "control_change"}, {"time": 176158, "annotation": {"number": 11, "value": 79}, "group": "control_change"}, {"time": 176178, "annotation": {"number": 11, "value": 76}, "group": "control_change"}, {"time": 176198, "annotation": {"number": 11, "value": 74}, "group": "control_change"}, {"time": 176219, "annotation": {"number": 11, "value": 71}, "group": "control_change"}, {"time": 176239, "annotation": {"number": 11, "value": 69}, "group": "control_change"}, {"time": 176259, "annotation": {"number": 11, "value": 65}, "group": "control_change"}, {"time": 176279, "annotation": {"number": 11, "value": 62}, "group": "control_change"}, {"time": 176299, "annotation": {"number": 11, "value": 58}, "group": "control_change"}, {"time": 176319, "annotation": {"number": 11, "value": 52}, "group": "control_change"}, {"time": 179040, "annotation": {"number": 11, "value": 100}, "group": "control_change"}, {"time": 180959, "annotation": {"number": 11, "value": 76}, "group": "control_change"}, {"time": 180980, "annotation": {"number": 11, "value": 79}, "group": "control_change"}, {"time": 181000, "annotation": {"number": 11, "value": 80}, "group": "control_change"}, {"time": 181020, "annotation": {"number": 11, "value": 81}, "group": "control_change"}, {"time": 181040, "annotation": {"number": 11, "value": 82}, "group": "control_change"}, {"time": 181060, "annotation": {"number": 11, "value": 84}, "group": "control_change"}, {"time": 181080, "annotation": {"number": 11, "value": 85}, "group": "control_change"}, {"time": 181100, "annotation": {"number": 11, "value": 86}, "group": "control_change"}, {"time": 181120, "annotation": {"number": 11, "value": 87}, "group": "control_change"}, {"time": 181160, "annotation": {"number": 11, "value": 88}, "group": "control_change"}, {"time": 181180, "annotation": {"number": 11, "value": 89}, "group": "control_change"}, {"time": 181200, "annotation": {"number": 11, "value": 90}, "group": "control_change"}, {"time": 181240, "annotation": {"number": 11, "value": 91}, "group": "control_change"}, {"time": 181260, "annotation": {"number": 11, "value": 92}, "group": "control_change"}, {"time": 181301, "annotation": {"number": 11, "value": 93}, "group": "control_change"}, {"time": 181341, "annotation": {"number": 11, "value": 94}, "group": "control_change"}, {"time": 181401, "annotation": {"number": 11, "value": 95}, "group": "control_change"}, {"time": 181441, "annotation": {"number": 11, "value": 96}, "group": "control_change"}, {"time": 181501, "annotation": {"number": 11, "value": 97}, "group": "control_change"}, {"time": 181602, "annotation": {"number": 11, "value": 98}, "group": "control_change"}, {"time": 181722, "annotation": {"number": 11, "value": 99}, "group": "control_change"}, {"time": 181923, "annotation": {"number": 11, "value": 100}, "group": "control_change"}, {"time": 182878, "annotation": {"number": 11, "value": 100}, "group": "control_change"}, {"time": 182999, "annotation": {"number": 11, "value": 99}, "group": "control_change"}, {"time": 183119, "annotation": {"number": 11, "value": 98}, "group": "control_change"}, {"time": 183240, "annotation": {"number": 11, "value": 97}, "group": "control_change"}, {"time": 183360, "annotation": {"number": 11, "value": 96}, "group": "control_change"}, {"time": 183480, "annotation": {"number": 11, "value": 95}, "group": "control_change"}, {"time": 183601, "annotation": {"number": 11, "value": 94}, "group": "control_change"}, {"time": 183721, "annotation": {"number": 11, "value": 93}, "group": "control_change"}, {"time": 183842, "annotation": {"number": 11, "value": 92}, "group": "control_change"}, {"time": 183962, "annotation": {"number": 11, "value": 91}, "group": "control_change"}, {"time": 184082, "annotation": {"number": 11, "value": 90}, "group": "control_change"}, {"time": 184203, "annotation": {"number": 11, "value": 89}, "group": "control_change"}, {"time": 184323, "annotation": {"number": 11, "value": 88}, "group": "control_change"}, {"time": 184442, "annotation": {"number": 11, "value": 87}, "group": "control_change"}, {"time": 184560, "annotation": {"number": 11, "value": 86}, "group": "control_change"}, {"time": 184679, "annotation": {"number": 11, "value": 85}, "group": "control_change"}, {"time": 184797, "annotation": {"number": 11, "value": 84}, "group": "control_change"}, {"time": 184797, "annotation": {"number": 11, "value": 84}, "group": "control_change"}, {"time": 184918, "annotation": {"number": 11, "value": 85}, "group": "control_change"}, {"time": 185038, "annotation": {"number": 11, "value": 86}, "group": "control_change"}, {"time": 185159, "annotation": {"number": 11, "value": 87}, "group": "control_change"}, {"time": 185279, "annotation": {"number": 11, "value": 88}, "group": "control_change"}, {"time": 185399, "annotation": {"number": 11, "value": 89}, "group": "control_change"}, {"time": 185520, "annotation": {"number": 11, "value": 90}, "group": "control_change"}, {"time": 185640, "annotation": {"number": 11, "value": 91}, "group": "control_change"}, {"time": 185761, "annotation": {"number": 11, "value": 92}, "group": "control_change"}, {"time": 185881, "annotation": {"number": 11, "value": 93}, "group": "control_change"}, {"time": 186001, "annotation": {"number": 11, "value": 94}, "group": "control_change"}, {"time": 186122, "annotation": {"number": 11, "value": 95}, "group": "control_change"}, {"time": 186242, "annotation": {"number": 11, "value": 96}, "group": "control_change"}, {"time": 186361, "annotation": {"number": 11, "value": 97}, "group": "control_change"}, {"time": 186479, "annotation": {"number": 11, "value": 98}, "group": "control_change"}, {"time": 186598, "annotation": {"number": 11, "value": 99}, "group": "control_change"}, {"time": 186716, "annotation": {"number": 11, "value": 100}, "group": "control_change"}, {"time": 188161, "annotation": {"number": 11, "value": 76}, "group": "control_change"}, {"time": 188181, "annotation": {"number": 11, "value": 82}, "group": "control_change"}, {"time": 188201, "annotation": {"number": 11, "value": 86}, "group": "control_change"}, {"time": 188221, "annotation": {"number": 11, "value": 88}, "group": "control_change"}, {"time": 188241, "annotation": {"number": 11, "value": 91}, "group": "control_change"}, {"time": 188262, "annotation": {"number": 11, "value": 93}, "group": "control_change"}, {"time": 188282, "annotation": {"number": 11, "value": 94}, "group": "control_change"}, {"time": 188302, "annotation": {"number": 11, "value": 96}, "group": "control_change"}, {"time": 188322, "annotation": {"number": 11, "value": 97}, "group": "control_change"}, {"time": 188362, "annotation": {"number": 11, "value": 98}, "group": "control_change"}, {"time": 188382, "annotation": {"number": 11, "value": 99}, "group": "control_change"}, {"time": 188442, "annotation": {"number": 11, "value": 100}, "group": "control_change"}, {"time": 190562, "annotation": {"number": 11, "value": 100}, "group": "control_change"}, {"time": 191241, "annotation": {"number": 11, "value": 99}, "group": "control_change"}, {"time": 191360, "annotation": {"number": 11, "value": 98}, "group": "control_change"}, {"time": 191419, "annotation": {"number": 11, "value": 97}, "group": "control_change"}, {"time": 191498, "annotation": {"number": 11, "value": 96}, "group": "control_change"}, {"time": 191538, "annotation": {"number": 11, "value": 95}, "group": "control_change"}, {"time": 191558, "annotation": {"number": 11, "value": 94}, "group": "control_change"}, {"time": 191598, "annotation": {"number": 11, "value": 93}, "group": "control_change"}, {"time": 191638, "annotation": {"number": 11, "value": 92}, "group": "control_change"}, {"time": 191658, "annotation": {"number": 11, "value": 91}, "group": "control_change"}, {"time": 191678, "annotation": {"number": 11, "value": 90}, "group": "control_change"}, {"time": 191698, "annotation": {"number": 11, "value": 88}, "group": "control_change"}, {"time": 191738, "annotation": {"number": 11, "value": 86}, "group": "control_change"}, {"time": 191758, "annotation": {"number": 11, "value": 85}, "group": "control_change"}, {"time": 191778, "annotation": {"number": 11, "value": 83}, "group": "control_change"}, {"time": 191799, "annotation": {"number": 11, "value": 81}, "group": "control_change"}, {"time": 191819, "annotation": {"number": 11, "value": 79}, "group": "control_change"}, {"time": 191839, "annotation": {"number": 11, "value": 76}, "group": "control_change"}, {"time": 191859, "annotation": {"number": 11, "value": 74}, "group": "control_change"}, {"time": 191879, "annotation": {"number": 11, "value": 71}, "group": "control_change"}, {"time": 191899, "annotation": {"number": 11, "value": 69}, "group": "control_change"}, {"time": 191919, "annotation": {"number": 11, "value": 65}, "group": "control_change"}, {"time": 191939, "annotation": {"number": 11, "value": 62}, "group": "control_change"}, {"time": 191959, "annotation": {"number": 11, "value": 58}, "group": "control_change"}, {"time": 191979, "annotation": {"number": 11, "value": 52}, "group": "control_change"}, {"time": 196078, "annotation": {"number": 11, "value": 68}, "group": "control_change"}, {"time": 196098, "annotation": {"number": 11, "value": 81}, "group": "control_change"}, {"time": 196118, "annotation": {"number": 11, "value": 88}, "group": "control_change"}, {"time": 196138, "annotation": {"number": 11, "value": 92}, "group": "control_change"}, {"time": 196158, "annotation": {"number": 11, "value": 96}, "group": "control_change"}, {"time": 196178, "annotation": {"number": 11, "value": 97}, "group": "control_change"}, {"time": 196198, "annotation": {"number": 11, "value": 98}, "group": "control_change"}, {"time": 196218, "annotation": {"number": 11, "value": 99}, "group": "control_change"}, {"time": 196238, "annotation": {"number": 11, "value": 100}, "group": "control_change"}, {"time": 196319, "annotation": {"number": 11, "value": 100}, "group": "control_change"}, {"time": 197041, "annotation": {"number": 11, "value": 99}, "group": "control_change"}, {"time": 197282, "annotation": {"number": 11, "value": 98}, "group": "control_change"}, {"time": 197442, "annotation": {"number": 11, "value": 97}, "group": "control_change"}, {"time": 197523, "annotation": {"number": 11, "value": 96}, "group": "control_change"}, {"time": 197623, "annotation": {"number": 11, "value": 95}, "group": "control_change"}, {"time": 197683, "annotation": {"number": 11, "value": 94}, "group": "control_change"}, {"time": 197723, "annotation": {"number": 11, "value": 93}, "group": "control_change"}, {"time": 197763, "annotation": {"number": 11, "value": 92}, "group": "control_change"}, {"time": 197823, "annotation": {"number": 11, "value": 91}, "group": "control_change"}, {"time": 197862, "annotation": {"number": 11, "value": 90}, "group": "control_change"}, {"time": 197882, "annotation": {"number": 11, "value": 89}, "group": "control_change"}, {"time": 197922, "annotation": {"number": 11, "value": 88}, "group": "control_change"}, {"time": 197941, "annotation": {"number": 11, "value": 87}, "group": "control_change"}, {"time": 197961, "annotation": {"number": 11, "value": 86}, "group": "control_change"}, {"time": 198001, "annotation": {"number": 11, "value": 84}, "group": "control_change"}, {"time": 198040, "annotation": {"number": 11, "value": 83}, "group": "control_change"}, {"time": 198060, "annotation": {"number": 11, "value": 81}, "group": "control_change"}, {"time": 198099, "annotation": {"number": 11, "value": 79}, "group": "control_change"}, {"time": 198119, "annotation": {"number": 11, "value": 78}, "group": "control_change"}, {"time": 198139, "annotation": {"number": 11, "value": 77}, "group": "control_change"}, {"time": 198159, "annotation": {"number": 11, "value": 75}, "group": "control_change"}, {"time": 198178, "annotation": {"number": 11, "value": 74}, "group": "control_change"}, {"time": 198198, "annotation": {"number": 11, "value": 72}, "group": "control_change"}, {"time": 198218, "annotation": {"number": 11, "value": 71}, "group": "control_change"}, {"time": 198238, "annotation": {"number": 11, "value": 68}, "group": "control_change"}, {"time": 198238, "annotation": {"number": 11, "value": 68}, "group": "control_change"}, {"time": 198298, "annotation": {"number": 11, "value": 69}, "group": "control_change"}, {"time": 198358, "annotation": {"number": 11, "value": 70}, "group": "control_change"}, {"time": 198388, "annotation": {"number": 11, "value": 71}, "group": "control_change"}, {"time": 198448, "annotation": {"number": 11, "value": 72}, "group": "control_change"}, {"time": 198479, "annotation": {"number": 11, "value": 73}, "group": "control_change"}, {"time": 198539, "annotation": {"number": 11, "value": 74}, "group": "control_change"}, {"time": 198599, "annotation": {"number": 11, "value": 75}, "group": "control_change"}, {"time": 198629, "annotation": {"number": 11, "value": 76}, "group": "control_change"}, {"time": 198689, "annotation": {"number": 11, "value": 77}, "group": "control_change"}, {"time": 198719, "annotation": {"number": 11, "value": 78}, "group": "control_change"}, {"time": 198779, "annotation": {"number": 11, "value": 79}, "group": "control_change"}, {"time": 198810, "annotation": {"number": 11, "value": 80}, "group": "control_change"}, {"time": 198870, "annotation": {"number": 11, "value": 81}, "group": "control_change"}, {"time": 198930, "annotation": {"number": 11, "value": 82}, "group": "control_change"}, {"time": 198960, "annotation": {"number": 11, "value": 83}, "group": "control_change"}, {"time": 199020, "annotation": {"number": 11, "value": 84}, "group": "control_change"}, {"time": 199050, "annotation": {"number": 11, "value": 85}, "group": "control_change"}, {"time": 199111, "annotation": {"number": 11, "value": 86}, "group": "control_change"}, {"time": 199171, "annotation": {"number": 11, "value": 87}, "group": "control_change"}, {"time": 199201, "annotation": {"number": 11, "value": 88}, "group": "control_change"}, {"time": 199261, "annotation": {"number": 11, "value": 89}, "group": "control_change"}, {"time": 199291, "annotation": {"number": 11, "value": 90}, "group": "control_change"}, {"time": 199351, "annotation": {"number": 11, "value": 91}, "group": "control_change"}, {"time": 199381, "annotation": {"number": 11, "value": 92}, "group": "control_change"}, {"time": 199442, "annotation": {"number": 11, "value": 93}, "group": "control_change"}, {"time": 199502, "annotation": {"number": 11, "value": 94}, "group": "control_change"}, {"time": 199532, "annotation": {"number": 11, "value": 95}, "group": "control_change"}, {"time": 199592, "annotation": {"number": 11, "value": 96}, "group": "control_change"}, {"time": 199622, "annotation": {"number": 11, "value": 97}, "group": "control_change"}, {"time": 199682, "annotation": {"number": 11, "value": 98}, "group": "control_change"}, {"time": 199742, "annotation": {"number": 11, "value": 99}, "group": "control_change"}, {"time": 199771, "annotation": {"number": 11, "value": 100}, "group": "control_change"}, {"time": 200157, "annotation": {"number": 11, "value": 100}, "group": "control_change"}, {"time": 200277, "annotation": {"number": 11, "value": 99}, "group": "control_change"}, {"time": 200397, "annotation": {"number": 11, "value": 98}, "group": "control_change"}, {"time": 200518, "annotation": {"number": 11, "value": 97}, "group": "control_change"}, {"time": 200638, "annotation": {"number": 11, "value": 96}, "group": "control_change"}, {"time": 200759, "annotation": {"number": 11, "value": 95}, "group": "control_change"}, {"time": 200879, "annotation": {"number": 11, "value": 94}, "group": "control_change"}, {"time": 200999, "annotation": {"number": 11, "value": 93}, "group": "control_change"}, {"time": 201120, "annotation": {"number": 11, "value": 92}, "group": "control_change"}, {"time": 201240, "annotation": {"number": 11, "value": 91}, "group": "control_change"}, {"time": 201361, "annotation": {"number": 11, "value": 90}, "group": "control_change"}, {"time": 201481, "annotation": {"number": 11, "value": 89}, "group": "control_change"}, {"time": 201601, "annotation": {"number": 11, "value": 88}, "group": "control_change"}, {"time": 201722, "annotation": {"number": 11, "value": 87}, "group": "control_change"}, {"time": 201842, "annotation": {"number": 11, "value": 86}, "group": "control_change"}, {"time": 201963, "annotation": {"number": 11, "value": 85}, "group": "control_change"}, {"time": 202083, "annotation": {"number": 11, "value": 84}, "group": "control_change"}, {"time": 202083, "annotation": {"number": 11, "value": 84}, "group": "control_change"}, {"time": 202202, "annotation": {"number": 11, "value": 85}, "group": "control_change"}, {"time": 202320, "annotation": {"number": 11, "value": 86}, "group": "control_change"}, {"time": 202439, "annotation": {"number": 11, "value": 87}, "group": "control_change"}, {"time": 202557, "annotation": {"number": 11, "value": 88}, "group": "control_change"}, {"time": 202678, "annotation": {"number": 11, "value": 89}, "group": "control_change"}, {"time": 202798, "annotation": {"number": 11, "value": 90}, "group": "control_change"}, {"time": 202918, "annotation": {"number": 11, "value": 91}, "group": "control_change"}, {"time": 203039, "annotation": {"number": 11, "value": 92}, "group": "control_change"}, {"time": 203159, "annotation": {"number": 11, "value": 93}, "group": "control_change"}, {"time": 203280, "annotation": {"number": 11, "value": 94}, "group": "control_change"}, {"time": 203400, "annotation": {"number": 11, "value": 95}, "group": "control_change"}, {"time": 203520, "annotation": {"number": 11, "value": 96}, "group": "control_change"}, {"time": 203641, "annotation": {"number": 11, "value": 97}, "group": "control_change"}, {"time": 203761, "annotation": {"number": 11, "value": 98}, "group": "control_change"}, {"time": 203882, "annotation": {"number": 11, "value": 99}, "group": "control_change"}, {"time": 204002, "annotation": {"number": 11, "value": 100}, "group": "control_change"}, {"time": 204002, "annotation": {"number": 11, "value": 100}, "group": "control_change"}, {"time": 204122, "annotation": {"number": 11, "value": 99}, "group": "control_change"}, {"time": 204243, "annotation": {"number": 11, "value": 98}, "group": "control_change"}, {"time": 204363, "annotation": {"number": 11, "value": 97}, "group": "control_change"}, {"time": 204484, "annotation": {"number": 11, "value": 96}, "group": "control_change"}, {"time": 204602, "annotation": {"number": 11, "value": 95}, "group": "control_change"}, {"time": 204721, "annotation": {"number": 11, "value": 94}, "group": "control_change"}, {"time": 204839, "annotation": {"number": 11, "value": 93}, "group": "control_change"}, {"time": 204958, "annotation": {"number": 11, "value": 92}, "group": "control_change"}, {"time": 205078, "annotation": {"number": 11, "value": 91}, "group": "control_change"}, {"time": 205199, "annotation": {"number": 11, "value": 90}, "group": "control_change"}, {"time": 205319, "annotation": {"number": 11, "value": 89}, "group": "control_change"}, {"time": 205439, "annotation": {"number": 11, "value": 88}, "group": "control_change"}, {"time": 205560, "annotation": {"number": 11, "value": 87}, "group": "control_change"}, {"time": 205680, "annotation": {"number": 11, "value": 86}, "group": "control_change"}, {"time": 205801, "annotation": {"number": 11, "value": 85}, "group": "control_change"}, {"time": 205921, "annotation": {"number": 11, "value": 84}, "group": "control_change"}, {"time": 205921, "annotation": {"number": 11, "value": 84}, "group": "control_change"}, {"time": 206041, "annotation": {"number": 11, "value": 85}, "group": "control_change"}, {"time": 206162, "annotation": {"number": 11, "value": 86}, "group": "control_change"}, {"time": 206282, "annotation": {"number": 11, "value": 87}, "group": "control_change"}, {"time": 206403, "annotation": {"number": 11, "value": 88}, "group": "control_change"}, {"time": 206521, "annotation": {"number": 11, "value": 89}, "group": "control_change"}, {"time": 206640, "annotation": {"number": 11, "value": 90}, "group": "control_change"}, {"time": 206758, "annotation": {"number": 11, "value": 91}, "group": "control_change"}, {"time": 206877, "annotation": {"number": 11, "value": 92}, "group": "control_change"}, {"time": 206997, "annotation": {"number": 11, "value": 93}, "group": "control_change"}, {"time": 207118, "annotation": {"number": 11, "value": 94}, "group": "control_change"}, {"time": 207238, "annotation": {"number": 11, "value": 95}, "group": "control_change"}, {"time": 207358, "annotation": {"number": 11, "value": 96}, "group": "control_change"}, {"time": 207479, "annotation": {"number": 11, "value": 97}, "group": "control_change"}, {"time": 207599, "annotation": {"number": 11, "value": 98}, "group": "control_change"}, {"time": 207720, "annotation": {"number": 11, "value": 99}, "group": "control_change"}, {"time": 207840, "annotation": {"number": 11, "value": 100}, "group": "control_change"}, {"time": 207840, "annotation": {"number": 11, "value": 100}, "group": "control_change"}, {"time": 208021, "annotation": {"number": 11, "value": 99}, "group": "control_change"}, {"time": 208111, "annotation": {"number": 11, "value": 98}, "group": "control_change"}, {"time": 208201, "annotation": {"number": 11, "value": 97}, "group": "control_change"}, {"time": 208292, "annotation": {"number": 11, "value": 96}, "group": "control_change"}, {"time": 208382, "annotation": {"number": 11, "value": 95}, "group": "control_change"}, {"time": 208472, "annotation": {"number": 11, "value": 94}, "group": "control_change"}, {"time": 208562, "annotation": {"number": 11, "value": 93}, "group": "control_change"}, {"time": 208653, "annotation": {"number": 11, "value": 92}, "group": "control_change"}, {"time": 208743, "annotation": {"number": 11, "value": 91}, "group": "control_change"}, {"time": 208833, "annotation": {"number": 11, "value": 90}, "group": "control_change"}, {"time": 208922, "annotation": {"number": 11, "value": 89}, "group": "control_change"}, {"time": 209100, "annotation": {"number": 11, "value": 88}, "group": "control_change"}, {"time": 209189, "annotation": {"number": 11, "value": 87}, "group": "control_change"}, {"time": 209277, "annotation": {"number": 11, "value": 86}, "group": "control_change"}, {"time": 209368, "annotation": {"number": 11, "value": 85}, "group": "control_change"}, {"time": 209458, "annotation": {"number": 11, "value": 84}, "group": "control_change"}, {"time": 209548, "annotation": {"number": 11, "value": 83}, "group": "control_change"}, {"time": 209639, "annotation": {"number": 11, "value": 82}, "group": "control_change"}, {"time": 209729, "annotation": {"number": 11, "value": 81}, "group": "control_change"}, {"time": 209819, "annotation": {"number": 11, "value": 80}, "group": "control_change"}, {"time": 209909, "annotation": {"number": 11, "value": 79}, "group": "control_change"}, {"time": 210000, "annotation": {"number": 11, "value": 78}, "group": "control_change"}, {"time": 210180, "annotation": {"number": 11, "value": 77}, "group": "control_change"}, {"time": 210271, "annotation": {"number": 11, "value": 76}, "group": "control_change"}, {"time": 210361, "annotation": {"number": 11, "value": 75}, "group": "control_change"}, {"time": 210451, "annotation": {"number": 11, "value": 74}, "group": "control_change"}, {"time": 210542, "annotation": {"number": 11, "value": 73}, "group": "control_change"}, {"time": 210632, "annotation": {"number": 11, "value": 72}, "group": "control_change"}, {"time": 210722, "annotation": {"number": 11, "value": 71}, "group": "control_change"}, {"time": 210811, "annotation": {"number": 11, "value": 70}, "group": "control_change"}, {"time": 210900, "annotation": {"number": 11, "value": 69}, "group": "control_change"}, {"time": 210989, "annotation": {"number": 11, "value": 68}, "group": "control_change"}, {"time": 211078, "annotation": {"number": 11, "value": 67}, "group": "control_change"}, {"time": 211257, "annotation": {"number": 11, "value": 66}, "group": "control_change"}, {"time": 211347, "annotation": {"number": 11, "value": 65}, "group": "control_change"}, {"time": 211437, "annotation": {"number": 11, "value": 64}, "group": "control_change"}, {"time": 211527, "annotation": {"number": 11, "value": 63}, "group": "control_change"}, {"time": 211618, "annotation": {"number": 11, "value": 62}, "group": "control_change"}, {"time": 211708, "annotation": {"number": 11, "value": 61}, "group": "control_change"}, {"time": 211798, "annotation": {"number": 11, "value": 60}, "group": "control_change"}, {"time": 211889, "annotation": {"number": 11, "value": 59}, "group": "control_change"}, {"time": 211979, "annotation": {"number": 11, "value": 58}, "group": "control_change"}, {"time": 212069, "annotation": {"number": 11, "value": 57}, "group": "control_change"}, {"time": 212160, "annotation": {"number": 11, "value": 56}, "group": "control_change"}, {"time": 212250, "annotation": {"number": 11, "value": 55}, "group": "control_change"}, {"time": 212430, "annotation": {"number": 11, "value": 54}, "group": "control_change"}, {"time": 212521, "annotation": {"number": 11, "value": 53}, "group": "control_change"}, {"time": 212611, "annotation": {"number": 11, "value": 52}, "group": "control_change"}, {"time": 212700, "annotation": {"number": 11, "value": 51}, "group": "control_change"}, {"time": 212789, "annotation": {"number": 11, "value": 50}, "group": "control_change"}, {"time": 212878, "annotation": {"number": 11, "value": 49}, "group": "control_change"}, {"time": 212967, "annotation": {"number": 11, "value": 48}, "group": "control_change"}, {"time": 213056, "annotation": {"number": 11, "value": 47}, "group": "control_change"}, {"time": 213145, "annotation": {"number": 11, "value": 46}, "group": "control_change"}, {"time": 213234, "annotation": {"number": 11, "value": 45}, "group": "control_change"}, {"time": 213323, "annotation": {"number": 11, "value": 44}, "group": "control_change"}, {"time": 213501, "annotation": {"number": 11, "value": 43}, "group": "control_change"}, {"time": 213590, "annotation": {"number": 11, "value": 42}, "group": "control_change"}, {"time": 213679, "annotation": {"number": 11, "value": 41}, "group": "control_change"}, {"time": 213768, "annotation": {"number": 11, "value": 40}, "group": "control_change"}, {"time": 213857, "annotation": {"number": 11, "value": 39}, "group": "control_change"}, {"time": 213945, "annotation": {"number": 11, "value": 38}, "group": "control_change"}, {"time": 214034, "annotation": {"number": 11, "value": 37}, "group": "control_change"}, {"time": 214123, "annotation": {"number": 11, "value": 36}, "group": "control_change"}, {"time": 214212, "annotation": {"number": 11, "value": 35}, "group": "control_change"}, {"time": 214301, "annotation": {"number": 11, "value": 34}, "group": "control_change"}, {"time": 214390, "annotation": {"number": 11, "value": 33}, "group": "control_change"}, {"time": 214568, "annotation": {"number": 11, "value": 32}, "group": "control_change"}, {"time": 214657, "annotation": {"number": 11, "value": 31}, "group": "control_change"}, {"time": 214746, "annotation": {"number": 11, "value": 30}, "group": "control_change"}, {"time": 214835, "annotation": {"number": 11, "value": 29}, "group": "control_change"}, {"time": 214924, "annotation": {"number": 11, "value": 28}, "group": "control_change"}, {"time": 215013, "annotation": {"number": 11, "value": 27}, "group": "control_change"}, {"time": 215102, "annotation": {"number": 11, "value": 26}, "group": "control_change"}, {"time": 215190, "annotation": {"number": 11, "value": 25}, "group": "control_change"}, {"time": 215279, "annotation": {"number": 11, "value": 24}, "group": "control_change"}, {"time": 215368, "annotation": {"number": 11, "value": 23}, "group": "control_change"}, {"time": 215457, "annotation": {"number": 11, "value": 22}, "group": "control_change"}, {"time": 215546, "annotation": {"number": 11, "value": 21}, "group": "control_change"}, {"time": 215724, "annotation": {"number": 11, "value": 20}, "group": "control_change"}, {"time": 215813, "annotation": {"number": 11, "value": 19}, "group": "control_change"}, {"time": 215902, "annotation": {"number": 11, "value": 18}, "group": "control_change"}, {"time": 215991, "annotation": {"number": 11, "value": 17}, "group": "control_change"}, {"time": 216080, "annotation": {"number": 11, "value": 16}, "group": "control_change"}, {"time": 216169, "annotation": {"number": 11, "value": 15}, "group": "control_change"}, {"time": 216258, "annotation": {"number": 11, "value": 14}, "group": "control_change"}, {"time": 216347, "annotation": {"number": 11, "value": 13}, "group": "control_change"}, {"time": 216436, "annotation": {"number": 11, "value": 12}, "group": "control_change"}, {"time": 216524, "annotation": {"number": 11, "value": 11}, "group": "control_change"}, {"time": 216613, "annotation": {"number": 11, "value": 10}, "group": "control_change"}, {"time": 216791, "annotation": {"number": 11, "value": 9}, "group": "control_change"}, {"time": 216880, "annotation": {"number": 11, "value": 8}, "group": "control_change"}, {"time": 216969, "annotation": {"number": 11, "value": 7}, "group": "control_change"}, {"time": 217058, "annotation": {"number": 11, "value": 6}, "group": "control_change"}, {"time": 217147, "annotation": {"number": 11, "value": 5}, "group": "control_change"}, {"time": 217236, "annotation": {"number": 11, "value": 4}, "group": "control_change"}, {"time": 217325, "annotation": {"number": 11, "value": 3}, "group": "control_change"}]}, {"program": 0, "is_drum": false, "name": "A.GT", "annotations": [{"time": 218, "annotation": {"number": 0, "value": 0}, "group": "control_change"}, {"time": 240, "annotation": {"number": 32, "value": 0}, "group": "control_change"}]}, {"program": 25, "is_drum": false, "name": "A.GT", "notes": [{"time": 8162, "pitch": 67, "duration": 336, "velocity": 120}, {"time": 8518, "pitch": 67, "duration": 1042, "velocity": 110}, {"time": 9600, "pitch": 72, "duration": 220, "velocity": 120}, {"time": 9840, "pitch": 67, "duration": 121, "velocity": 110}, {"time": 10081, "pitch": 67, "duration": 341, "velocity": 120}, {"time": 10442, "pitch": 67, "duration": 836, "velocity": 110}, {"time": 11278, "pitch": 64, "duration": 120, "velocity": 110}, {"time": 11519, "pitch": 64, "duration": 220, "velocity": 120}, {"time": 11759, "pitch": 60, "duration": 121, "velocity": 110}, {"time": 12000, "pitch": 62, "duration": 341, "velocity": 120}, {"time": 12361, "pitch": 67, "duration": 1037, "velocity": 110}, {"time": 13438, "pitch": 55, "duration": 220, "velocity": 120}, {"time": 13678, "pitch": 60, "duration": 121, "velocity": 110}, {"time": 13919, "pitch": 60, "duration": 341, "velocity": 120}, {"time": 14280, "pitch": 60, "duration": 840, "velocity": 110}, {"time": 15120, "pitch": 55, "duration": 437, "velocity": 110}, {"time": 15357, "pitch": 63, "duration": 220, "velocity": 120}, {"time": 15597, "pitch": 53, "duration": 221, "velocity": 110}, {"time": 15838, "pitch": 55, "duration": 1900, "velocity": 110}, {"time": 15838, "pitch": 64, "duration": 1900, "velocity": 110}, {"time": 83762, "pitch": 65, "duration": 241, "velocity": 120}, {"time": 84003, "pitch": 67, "duration": 336, "velocity": 120}, {"time": 84358, "pitch": 67, "duration": 340, "velocity": 100}, {"time": 84718, "pitch": 72, "duration": 120, "velocity": 120}, {"time": 84838, "pitch": 67, "duration": 121, "velocity": 110}, {"time": 84959, "pitch": 70, "duration": 341, "velocity": 120}, {"time": 85320, "pitch": 70, "duration": 1043, "velocity": 110}, {"time": 86640, "pitch": 63, "duration": 99, "velocity": 120}, {"time": 86759, "pitch": 65, "duration": 99, "velocity": 110}, {"time": 86878, "pitch": 65, "duration": 341, "velocity": 120}, {"time": 87239, "pitch": 67, "duration": 1222, "velocity": 110}, {"time": 88559, "pitch": 65, "duration": 99, "velocity": 120}, {"time": 88678, "pitch": 63, "duration": 99, "velocity": 110}, {"time": 88797, "pitch": 62, "duration": 341, "velocity": 110}, {"time": 89158, "pitch": 62, "duration": 341, "velocity": 110}, {"time": 89519, "pitch": 60, "duration": 221, "velocity": 100}, {"time": 89760, "pitch": 58, "duration": 341, "velocity": 100}, {"time": 90121, "pitch": 58, "duration": 542, "velocity": 90}, {"time": 91438, "pitch": 67, "duration": 241, "velocity": 120}, {"time": 91679, "pitch": 69, "duration": 341, "velocity": 120}, {"time": 92040, "pitch": 71, "duration": 341, "velocity": 110}, {"time": 92401, "pitch": 72, "duration": 221, "velocity": 117}, {"time": 92642, "pitch": 74, "duration": 341, "velocity": 120}, {"time": 93003, "pitch": 74, "duration": 338, "velocity": 110}, {"time": 93361, "pitch": 67, "duration": 217, "velocity": 100}, {"time": 93598, "pitch": 67, "duration": 682, "velocity": 100}, {"time": 94320, "pitch": 60, "duration": 482, "velocity": 120}, {"time": 94561, "pitch": 69, "duration": 221, "velocity": 120}, {"time": 94802, "pitch": 62, "duration": 478, "velocity": 120}, {"time": 95042, "pitch": 70, "duration": 218, "velocity": 120}, {"time": 95280, "pitch": 64, "duration": 477, "velocity": 120}, {"time": 95517, "pitch": 73, "duration": 220, "velocity": 120}, {"time": 95757, "pitch": 65, "duration": 482, "velocity": 120}, {"time": 95998, "pitch": 74, "duration": 221, "velocity": 120}, {"time": 96239, "pitch": 65, "duration": 221, "velocity": 120}, {"time": 96480, "pitch": 67, "duration": 943, "velocity": 120}, {"time": 96480, "pitch": 76, "duration": 943, "velocity": 120}, {"time": 97443, "pitch": 67, "duration": 916, "velocity": 110}, {"time": 97443, "pitch": 76, "duration": 916, "velocity": 110}], "annotations": [{"time": 283, "annotation": {"number": 7, "value": 120}, "group": "control_change"}, {"time": 305, "annotation": {"number": 11, "value": 110}, "group": "control_change"}, {"time": 327, "annotation": {"number": 10, "value": 64}, "group": "control_change"}, {"time": 349, "annotation": {"number": 91, "value": 90}, "group": "control_change"}, {"time": 370, "annotation": {"number": 93, "value": 0}, "group": "control_change"}, {"time": 392, "annotation": {"number": 101, "value": 0}, "group": "control_change"}, {"time": 414, "annotation": {"number": 100, "value": 0}, "group": "control_change"}, {"time": 436, "annotation": {"number": 6, "value": 12}, "group": "control_change"}, {"time": 458, "annotation": {"number": 101, "value": 127}, "group": "control_change"}, {"time": 479, "annotation": {"number": 100, "value": 127}, "group": "control_change"}, {"time": 8637, "annotation": {"number": 1, "value": 0}, "group": "control_change"}, {"time": 8968, "annotation": {"number": 1, "value": 3}, "group": "control_change"}, {"time": 8978, "annotation": {"number": 1, "value": 6}, "group": "control_change"}, {"time": 8988, "annotation": {"number": 1, "value": 8}, "group": "control_change"}, {"time": 8998, "annotation": {"number": 1, "value": 10}, "group": "control_change"}, {"time": 9008, "annotation": {"number": 1, "value": 12}, "group": "control_change"}, {"time": 9018, "annotation": {"number": 1, "value": 13}, "group": "control_change"}, {"time": 9028, "annotation": {"number": 1, "value": 15}, "group": "control_change"}, {"time": 9038, "annotation": {"number": 1, "value": 16}, "group": "control_change"}, {"time": 9048, "annotation": {"number": 1, "value": 18}, "group": "control_change"}, {"time": 9058, "annotation": {"number": 1, "value": 19}, "group": "control_change"}, {"time": 9068, "annotation": {"number": 1, "value": 20}, "group": "control_change"}, {"time": 9078, "annotation": {"number": 1, "value": 21}, "group": "control_change"}, {"time": 9088, "annotation": {"number": 1, "value": 22}, "group": "control_change"}, {"time": 9098, "annotation": {"number": 1, "value": 23}, "group": "control_change"}, {"time": 9108, "annotation": {"number": 1, "value": 24}, "group": "control_change"}, {"time": 9128, "annotation": {"number": 1, "value": 25}, "group": "control_change"}, {"time": 9138, "annotation": {"number": 1, "value": 26}, "group": "control_change"}, {"time": 9158, "annotation": {"number": 1, "value": 27}, "group": "control_change"}, {"time": 9178, "annotation": {"number": 1, "value": 28}, "group": "control_change"}, {"time": 9208, "annotation": {"number": 1, "value": 29}, "group": "control_change"}, {"time": 9239, "annotation": {"number": 1, "value": 30}, "group": "control_change"}, {"time": 9289, "annotation": {"number": 1, "value": 31}, "group": "control_change"}, {"time": 9369, "annotation": {"number": 1, "value": 32}, "group": "control_change"}, {"time": 9600, "annotation": {"number": 1, "value": 0}, "group": "control_change"}, {"time": 10563, "annotation": {"number": 1, "value": 0}, "group": "control_change"}, {"time": 10889, "annotation": {"number": 1, "value": 3}, "group": "control_change"}, {"time": 10899, "annotation": {"number": 1, "value": 6}, "group": "control_change"}, {"time": 10909, "annotation": {"number": 1, "value": 8}, "group": "control_change"}, {"time": 10919, "annotation": {"number": 1, "value": 10}, "group": "control_change"}, {"time": 10928, "annotation": {"number": 1, "value": 12}, "group": "control_change"}, {"time": 10938, "annotation": {"number": 1, "value": 13}, "group": "control_change"}, {"time": 10948, "annotation": {"number": 1, "value": 15}, "group": "control_change"}, {"time": 10958, "annotation": {"number": 1, "value": 16}, "group": "control_change"}, {"time": 10968, "annotation": {"number": 1, "value": 18}, "group": "control_change"}, {"time": 10978, "annotation": {"number": 1, "value": 19}, "group": "control_change"}, {"time": 10988, "annotation": {"number": 1, "value": 20}, "group": "control_change"}, {"time": 10998, "annotation": {"number": 1, "value": 21}, "group": "control_change"}, {"time": 11007, "annotation": {"number": 1, "value": 22}, "group": "control_change"}, {"time": 11017, "annotation": {"number": 1, "value": 23}, "group": "control_change"}, {"time": 11027, "annotation": {"number": 1, "value": 24}, "group": "control_change"}, {"time": 11047, "annotation": {"number": 1, "value": 25}, "group": "control_change"}, {"time": 11057, "annotation": {"number": 1, "value": 26}, "group": "control_change"}, {"time": 11077, "annotation": {"number": 1, "value": 27}, "group": "control_change"}, {"time": 11097, "annotation": {"number": 1, "value": 28}, "group": "control_change"}, {"time": 11127, "annotation": {"number": 1, "value": 29}, "group": "control_change"}, {"time": 11157, "annotation": {"number": 1, "value": 30}, "group": "control_change"}, {"time": 11208, "annotation": {"number": 1, "value": 31}, "group": "control_change"}, {"time": 11278, "annotation": {"number": 1, "value": 0}, "group": "control_change"}, {"time": 12482, "annotation": {"number": 1, "value": 0}, "group": "control_change"}, {"time": 12813, "annotation": {"number": 1, "value": 3}, "group": "control_change"}, {"time": 12823, "annotation": {"number": 1, "value": 6}, "group": "control_change"}, {"time": 12833, "annotation": {"number": 1, "value": 8}, "group": "control_change"}, {"time": 12843, "annotation": {"number": 1, "value": 10}, "group": "control_change"}, {"time": 12853, "annotation": {"number": 1, "value": 12}, "group": "control_change"}, {"time": 12863, "annotation": {"number": 1, "value": 13}, "group": "control_change"}, {"time": 12873, "annotation": {"number": 1, "value": 15}, "group": "control_change"}, {"time": 12883, "annotation": {"number": 1, "value": 16}, "group": "control_change"}, {"time": 12893, "annotation": {"number": 1, "value": 18}, "group": "control_change"}, {"time": 12903, "annotation": {"number": 1, "value": 19}, "group": "control_change"}, {"time": 12913, "annotation": {"number": 1, "value": 20}, "group": "control_change"}, {"time": 12923, "annotation": {"number": 1, "value": 21}, "group": "control_change"}, {"time": 12933, "annotation": {"number": 1, "value": 22}, "group": "control_change"}, {"time": 12943, "annotation": {"number": 1, "value": 23}, "group": "control_change"}, {"time": 12953, "annotation": {"number": 1, "value": 24}, "group": "control_change"}, {"time": 12973, "annotation": {"number": 1, "value": 25}, "group": "control_change"}, {"time": 12983, "annotation": {"number": 1, "value": 26}, "group": "control_change"}, {"time": 13003, "annotation": {"number": 1, "value": 27}, "group": "control_change"}, {"time": 13023, "annotation": {"number": 1, "value": 28}, "group": "control_change"}, {"time": 13052, "annotation": {"number": 1, "value": 29}, "group": "control_change"}, {"time": 13082, "annotation": {"number": 1, "value": 30}, "group": "control_change"}, {"time": 13131, "annotation": {"number": 1, "value": 31}, "group": "control_change"}, {"time": 13201, "annotation": {"number": 1, "value": 0}, "group": "control_change"}, {"time": 14401, "annotation": {"number": 1, "value": 0}, "group": "control_change"}, {"time": 14732, "annotation": {"number": 1, "value": 3}, "group": "control_change"}, {"time": 14742, "annotation": {"number": 1, "value": 6}, "group": "control_change"}, {"time": 14752, "annotation": {"number": 1, "value": 8}, "group": "control_change"}, {"time": 14762, "annotation": {"number": 1, "value": 10}, "group": "control_change"}, {"time": 14772, "annotation": {"number": 1, "value": 12}, "group": "control_change"}, {"time": 14782, "annotation": {"number": 1, "value": 13}, "group": "control_change"}, {"time": 14792, "annotation": {"number": 1, "value": 15}, "group": "control_change"}, {"time": 14802, "annotation": {"number": 1, "value": 16}, "group": "control_change"}, {"time": 14812, "annotation": {"number": 1, "value": 18}, "group": "control_change"}, {"time": 14822, "annotation": {"number": 1, "value": 19}, "group": "control_change"}, {"time": 14832, "annotation": {"number": 1, "value": 20}, "group": "control_change"}, {"time": 14842, "annotation": {"number": 1, "value": 21}, "group": "control_change"}, {"time": 14852, "annotation": {"number": 1, "value": 22}, "group": "control_change"}, {"time": 14862, "annotation": {"number": 1, "value": 23}, "group": "control_change"}, {"time": 14872, "annotation": {"number": 1, "value": 24}, "group": "control_change"}, {"time": 14892, "annotation": {"number": 1, "value": 25}, "group": "control_change"}, {"time": 14902, "annotation": {"number": 1, "value": 26}, "group": "control_change"}, {"time": 14922, "annotation": {"number": 1, "value": 27}, "group": "control_change"}, {"time": 14942, "annotation": {"number": 1, "value": 28}, "group": "control_change"}, {"time": 14971, "annotation": {"number": 1, "value": 29}, "group": "control_change"}, {"time": 15001, "annotation": {"number": 1, "value": 30}, "group": "control_change"}, {"time": 15050, "annotation": {"number": 1, "value": 31}, "group": "control_change"}, {"time": 15120, "annotation": {"number": 1, "value": 0}, "group": "control_change"}, {"time": 15838, "annotation": {"number": 11, "value": 110}, "group": "control_change"}, {"time": 16230, "annotation": {"number": 11, "value": 109}, "group": "control_change"}, {"time": 16410, "annotation": {"number": 11, "value": 108}, "group": "control_change"}, {"time": 16520, "annotation": {"number": 11, "value": 107}, "group": "control_change"}, {"time": 16651, "annotation": {"number": 11, "value": 106}, "group": "control_change"}, {"time": 16711, "annotation": {"number": 11, "value": 105}, "group": "control_change"}, {"time": 16761, "annotation": {"number": 11, "value": 104}, "group": "control_change"}, {"time": 16832, "annotation": {"number": 11, "value": 103}, "group": "control_change"}, {"time": 16862, "annotation": {"number": 11, "value": 102}, "group": "control_change"}, {"time": 16902, "annotation": {"number": 11, "value": 101}, "group": "control_change"}, {"time": 16952, "annotation": {"number": 11, "value": 100}, "group": "control_change"}, {"time": 16982, "annotation": {"number": 11, "value": 99}, "group": "control_change"}, {"time": 17002, "annotation": {"number": 11, "value": 98}, "group": "control_change"}, {"time": 17042, "annotation": {"number": 11, "value": 97}, "group": "control_change"}, {"time": 17062, "annotation": {"number": 11, "value": 96}, "group": "control_change"}, {"time": 17082, "annotation": {"number": 11, "value": 95}, "group": "control_change"}, {"time": 17102, "annotation": {"number": 11, "value": 94}, "group": "control_change"}, {"time": 17133, "annotation": {"number": 11, "value": 93}, "group": "control_change"}, {"time": 17143, "annotation": {"number": 11, "value": 92}, "group": "control_change"}, {"time": 17163, "annotation": {"number": 11, "value": 91}, "group": "control_change"}, {"time": 17183, "annotation": {"number": 11, "value": 90}, "group": "control_change"}, {"time": 17193, "annotation": {"number": 11, "value": 89}, "group": "control_change"}, {"time": 17223, "annotation": {"number": 11, "value": 88}, "group": "control_change"}, {"time": 17233, "annotation": {"number": 11, "value": 87}, "group": "control_change"}, {"time": 17243, "annotation": {"number": 11, "value": 86}, "group": "control_change"}, {"time": 17263, "annotation": {"number": 11, "value": 85}, "group": "control_change"}, {"time": 17273, "annotation": {"number": 11, "value": 84}, "group": "control_change"}, {"time": 17283, "annotation": {"number": 11, "value": 83}, "group": "control_change"}, {"time": 17303, "annotation": {"number": 11, "value": 82}, "group": "control_change"}, {"time": 17313, "annotation": {"number": 11, "value": 81}, "group": "control_change"}, {"time": 17322, "annotation": {"number": 11, "value": 80}, "group": "control_change"}, {"time": 17342, "annotation": {"number": 11, "value": 78}, "group": "control_change"}, {"time": 17352, "annotation": {"number": 11, "value": 77}, "group": "control_change"}, {"time": 17372, "annotation": {"number": 11, "value": 75}, "group": "control_change"}, {"time": 17382, "annotation": {"number": 11, "value": 74}, "group": "control_change"}, {"time": 17402, "annotation": {"number": 11, "value": 72}, "group": "control_change"}, {"time": 17411, "annotation": {"number": 11, "value": 71}, "group": "control_change"}, {"time": 17421, "annotation": {"number": 11, "value": 70}, "group": "control_change"}, {"time": 17431, "annotation": {"number": 11, "value": 68}, "group": "control_change"}, {"time": 17451, "annotation": {"number": 11, "value": 66}, "group": "control_change"}, {"time": 17461, "annotation": {"number": 11, "value": 65}, "group": "control_change"}, {"time": 17471, "annotation": {"number": 11, "value": 64}, "group": "control_change"}, {"time": 17481, "annotation": {"number": 11, "value": 62}, "group": "control_change"}, {"time": 17490, "annotation": {"number": 11, "value": 60}, "group": "control_change"}, {"time": 17500, "annotation": {"number": 11, "value": 59}, "group": "control_change"}, {"time": 17510, "annotation": {"number": 11, "value": 58}, "group": "control_change"}, {"time": 17520, "annotation": {"number": 11, "value": 55}, "group": "control_change"}, {"time": 17540, "annotation": {"number": 11, "value": 53}, "group": "control_change"}, {"time": 17550, "annotation": {"number": 11, "value": 51}, "group": "control_change"}, {"time": 17560, "annotation": {"number": 11, "value": 49}, "group": "control_change"}, {"time": 17570, "annotation": {"number": 11, "value": 48}, "group": "control_change"}, {"time": 17579, "annotation": {"number": 11, "value": 45}, "group": "control_change"}, {"time": 17589, "annotation": {"number": 11, "value": 44}, "group": "control_change"}, {"time": 17599, "annotation": {"number": 11, "value": 43}, "group": "control_change"}, {"time": 17609, "annotation": {"number": 11, "value": 40}, "group": "control_change"}, {"time": 17619, "annotation": {"number": 11, "value": 38}, "group": "control_change"}, {"time": 17629, "annotation": {"number": 11, "value": 36}, "group": "control_change"}, {"time": 17639, "annotation": {"number": 11, "value": 33}, "group": "control_change"}, {"time": 17649, "annotation": {"number": 11, "value": 31}, "group": "control_change"}, {"time": 17658, "annotation": {"number": 11, "value": 29}, "group": "control_change"}, {"time": 17668, "annotation": {"number": 11, "value": 26}, "group": "control_change"}, {"time": 17678, "annotation": {"number": 11, "value": 24}, "group": "control_change"}, {"time": 17688, "annotation": {"number": 11, "value": 22}, "group": "control_change"}, {"time": 17698, "annotation": {"number": 11, "value": 18}, "group": "control_change"}, {"time": 17708, "annotation": {"number": 11, "value": 16}, "group": "control_change"}, {"time": 17718, "annotation": {"number": 11, "value": 14}, "group": "control_change"}, {"time": 17728, "annotation": {"number": 11, "value": 10}, "group": "control_change"}, {"time": 17738, "annotation": {"number": 11, "value": 8}, "group": "control_change"}, {"time": 17747, "annotation": {"number": 11, "value": 5}, "group": "control_change"}, {"time": 17757, "annotation": {"number": 11, "value": 0}, "group": "control_change"}, {"time": 83762, "annotation": {"number": 11, "value": 110}, "group": "control_change"}, {"time": 85440, "annotation": {"number": 1, "value": 0}, "group": "control_change"}, {"time": 85691, "annotation": {"number": 1, "value": 3}, "group": "control_change"}, {"time": 85701, "annotation": {"number": 1, "value": 6}, "group": "control_change"}, {"time": 85711, "annotation": {"number": 1, "value": 7}, "group": "control_change"}, {"time": 85721, "annotation": {"number": 1, "value": 9}, "group": "control_change"}, {"time": 85731, "annotation": {"number": 1, "value": 11}, "group": "control_change"}, {"time": 85741, "annotation": {"number": 1, "value": 13}, "group": "control_change"}, {"time": 85751, "annotation": {"number": 1, "value": 14}, "group": "control_change"}, {"time": 85761, "annotation": {"number": 1, "value": 15}, "group": "control_change"}, {"time": 85771, "annotation": {"number": 1, "value": 16}, "group": "control_change"}, {"time": 85781, "annotation": {"number": 1, "value": 18}, "group": "control_change"}, {"time": 85791, "annotation": {"number": 1, "value": 19}, "group": "control_change"}, {"time": 85801, "annotation": {"number": 1, "value": 20}, "group": "control_change"}, {"time": 85811, "annotation": {"number": 1, "value": 21}, "group": "control_change"}, {"time": 85821, "annotation": {"number": 1, "value": 22}, "group": "control_change"}, {"time": 85831, "annotation": {"number": 1, "value": 23}, "group": "control_change"}, {"time": 85852, "annotation": {"number": 1, "value": 24}, "group": "control_change"}, {"time": 85872, "annotation": {"number": 1, "value": 25}, "group": "control_change"}, {"time": 85882, "annotation": {"number": 1, "value": 26}, "group": "control_change"}, {"time": 85902, "annotation": {"number": 1, "value": 27}, "group": "control_change"}, {"time": 85922, "annotation": {"number": 1, "value": 28}, "group": "control_change"}, {"time": 85962, "annotation": {"number": 1, "value": 29}, "group": "control_change"}, {"time": 85992, "annotation": {"number": 1, "value": 30}, "group": "control_change"}, {"time": 86052, "annotation": {"number": 1, "value": 31}, "group": "control_change"}, {"time": 86142, "annotation": {"number": 1, "value": 32}, "group": "control_change"}, {"time": 86640, "annotation": {"number": 1, "value": 0}, "group": "control_change"}, {"time": 87359, "annotation": {"number": 1, "value": 0}, "group": "control_change"}, {"time": 87690, "annotation": {"number": 1, "value": 3}, "group": "control_change"}, {"time": 87700, "annotation": {"number": 1, "value": 4}, "group": "control_change"}, {"time": 87710, "annotation": {"number": 1, "value": 6}, "group": "control_change"}, {"time": 87720, "annotation": {"number": 1, "value": 8}, "group": "control_change"}, {"time": 87730, "annotation": {"number": 1, "value": 9}, "group": "control_change"}, {"time": 87740, "annotation": {"number": 1, "value": 11}, "group": "control_change"}, {"time": 87750, "annotation": {"number": 1, "value": 12}, "group": "control_change"}, {"time": 87760, "annotation": {"number": 1, "value": 13}, "group": "control_change"}, {"time": 87771, "annotation": {"number": 1, "value": 15}, "group": "control_change"}, {"time": 87781, "annotation": {"number": 1, "value": 16}, "group": "control_change"}, {"time": 87801, "annotation": {"number": 1, "value": 18}, "group": "control_change"}, {"time": 87821, "annotation": {"number": 1, "value": 19}, "group": "control_change"}, {"time": 87831, "annotation": {"number": 1, "value": 20}, "group": "control_change"}, {"time": 87841, "annotation": {"number": 1, "value": 21}, "group": "control_change"}, {"time": 87851, "annotation": {"number": 1, "value": 22}, "group": "control_change"}, {"time": 87871, "annotation": {"number": 1, "value": 23}, "group": "control_change"}, {"time": 87881, "annotation": {"number": 1, "value": 24}, "group": "control_change"}, {"time": 87911, "annotation": {"number": 1, "value": 25}, "group": "control_change"}, {"time": 87931, "annotation": {"number": 1, "value": 26}, "group": "control_change"}, {"time": 87951, "annotation": {"number": 1, "value": 27}, "group": "control_change"}, {"time": 87981, "annotation": {"number": 1, "value": 28}, "group": "control_change"}, {"time": 88021, "annotation": {"number": 1, "value": 29}, "group": "control_change"}, {"time": 88061, "annotation": {"number": 1, "value": 30}, "group": "control_change"}, {"time": 88132, "annotation": {"number": 1, "value": 31}, "group": "control_change"}, {"time": 88242, "annotation": {"number": 1, "value": 32}, "group": "control_change"}, {"time": 88559, "annotation": {"number": 1, "value": 0}, "group": "control_change"}, {"time": 91438, "annotation": {"number": 11, "value": 110}, "group": "control_change"}]}, {"program": 0, "is_drum": true, "name": "DRUMS", "notes": [{"time": 7440, "pitch": 38, "duration": 10, "velocity": 40}, {"time": 7520, "pitch": 38, "duration": 10, "velocity": 45}, {"time": 7600, "pitch": 38, "duration": 10, "velocity": 40}, {"time": 7681, "pitch": 38, "duration": 10, "velocity": 84}, {"time": 7801, "pitch": 38, "duration": 10, "velocity": 70}, {"time": 7922, "pitch": 41, "duration": 100, "velocity": 88}, {"time": 8162, "pitch": 36, "duration": 10, "velocity": 116}, {"time": 8162, "pitch": 49, "duration": 10, "velocity": 46}, {"time": 8399, "pitch": 42, "duration": 10, "velocity": 60}, {"time": 8637, "pitch": 38, "duration": 10, "velocity": 98}, {"time": 8637, "pitch": 42, "duration": 10, "velocity": 74}, {"time": 8877, "pitch": 36, "duration": 10, "velocity": 88}, {"time": 8877, "pitch": 42, "duration": 10, "velocity": 60}, {"time": 9118, "pitch": 36, "duration": 10, "velocity": 116}, {"time": 9118, "pitch": 42, "duration": 10, "velocity": 88}, {"time": 9359, "pitch": 42, "duration": 10, "velocity": 60}, {"time": 9600, "pitch": 38, "duration": 10, "velocity": 98}, {"time": 9600, "pitch": 42, "duration": 10, "velocity": 74}, {"time": 9840, "pitch": 42, "duration": 11, "velocity": 60}, {"time": 10081, "pitch": 36, "duration": 10, "velocity": 116}, {"time": 10081, "pitch": 42, "duration": 10, "velocity": 88}, {"time": 10322, "pitch": 42, "duration": 10, "velocity": 60}, {"time": 10563, "pitch": 38, "duration": 10, "velocity": 98}, {"time": 10563, "pitch": 42, "duration": 10, "velocity": 74}, {"time": 10800, "pitch": 36, "duration": 10, "velocity": 88}, {"time": 10800, "pitch": 42, "duration": 10, "velocity": 60}, {"time": 11037, "pitch": 36, "duration": 10, "velocity": 116}, {"time": 11037, "pitch": 42, "duration": 10, "velocity": 88}, {"time": 11278, "pitch": 42, "duration": 10, "velocity": 60}, {"time": 11519, "pitch": 38, "duration": 10, "velocity": 98}, {"time": 11519, "pitch": 42, "duration": 10, "velocity": 74}, {"time": 11759, "pitch": 42, "duration": 11, "velocity": 60}, {"time": 12000, "pitch": 36, "duration": 10, "velocity": 116}, {"time": 12000, "pitch": 42, "duration": 10, "velocity": 88}, {"time": 12241, "pitch": 42, "duration": 10, "velocity": 60}, {"time": 12482, "pitch": 38, "duration": 10, "velocity": 98}, {"time": 12482, "pitch": 42, "duration": 10, "velocity": 74}, {"time": 12723, "pitch": 36, "duration": 10, "velocity": 88}, {"time": 12723, "pitch": 42, "duration": 10, "velocity": 60}, {"time": 12963, "pitch": 36, "duration": 10, "velocity": 116}, {"time": 12963, "pitch": 42, "duration": 10, "velocity": 88}, {"time": 13201, "pitch": 42, "duration": 9, "velocity": 60}, {"time": 13438, "pitch": 38, "duration": 10, "velocity": 98}, {"time": 13438, "pitch": 42, "duration": 10, "velocity": 74}, {"time": 13678, "pitch": 42, "duration": 10, "velocity": 60}, {"time": 13919, "pitch": 36, "duration": 10, "velocity": 116}, {"time": 13919, "pitch": 42, "duration": 10, "velocity": 88}, {"time": 14160, "pitch": 42, "duration": 10, "velocity": 60}, {"time": 14401, "pitch": 38, "duration": 10, "velocity": 98}, {"time": 14401, "pitch": 42, "duration": 10, "velocity": 74}, {"time": 14642, "pitch": 36, "duration": 10, "velocity": 88}, {"time": 14642, "pitch": 42, "duration": 10, "velocity": 60}, {"time": 14882, "pitch": 36, "duration": 10, "velocity": 116}, {"time": 14882, "pitch": 42, "duration": 10, "velocity": 88}, {"time": 15120, "pitch": 48, "duration": 9, "velocity": 102}, {"time": 15357, "pitch": 36, "duration": 10, "velocity": 116}, {"time": 15357, "pitch": 42, "duration": 10, "velocity": 88}, {"time": 15597, "pitch": 38, "duration": 10, "velocity": 98}, {"time": 15718, "pitch": 38, "duration": 10, "velocity": 70}, {"time": 15838, "pitch": 36, "duration": 10, "velocity": 116}, {"time": 15838, "pitch": 49, "duration": 10, "velocity": 46}, {"time": 16079, "pitch": 42, "duration": 10, "velocity": 46}, {"time": 16320, "pitch": 37, "duration": 10, "velocity": 88}, {"time": 16320, "pitch": 42, "duration": 10, "velocity": 60}, {"time": 16561, "pitch": 36, "duration": 10, "velocity": 88}, {"time": 16561, "pitch": 42, "duration": 10, "velocity": 46}, {"time": 16801, "pitch": 36, "duration": 10, "velocity": 116}, {"time": 16801, "pitch": 42, "duration": 10, "velocity": 74}, {"time": 17042, "pitch": 37, "duration": 10, "velocity": 74}, {"time": 17042, "pitch": 42, "duration": 10, "velocity": 46}, {"time": 17283, "pitch": 42, "duration": 10, "velocity": 60}, {"time": 17520, "pitch": 36, "duration": 10, "velocity": 88}, {"time": 17520, "pitch": 42, "duration": 10, "velocity": 46}, {"time": 17757, "pitch": 36, "duration": 10, "velocity": 116}, {"time": 17757, "pitch": 42, "duration": 10, "velocity": 74}, {"time": 17998, "pitch": 42, "duration": 10, "velocity": 46}, {"time": 18239, "pitch": 37, "duration": 10, "velocity": 88}, {"time": 18239, "pitch": 42, "duration": 10, "velocity": 60}, {"time": 18480, "pitch": 36, "duration": 10, "velocity": 88}, {"time": 18480, "pitch": 42, "duration": 10, "velocity": 46}, {"time": 18720, "pitch": 36, "duration": 10, "velocity": 116}, {"time": 18720, "pitch": 42, "duration": 10, "velocity": 74}, {"time": 18961, "pitch": 37, "duration": 10, "velocity": 74}, {"time": 18961, "pitch": 42, "duration": 10, "velocity": 46}, {"time": 19202, "pitch": 42, "duration": 10, "velocity": 60}, {"time": 19443, "pitch": 36, "duration": 10, "velocity": 88}, {"time": 19443, "pitch": 42, "duration": 10, "velocity": 46}, {"time": 19684, "pitch": 36, "duration": 9, "velocity": 116}, {"time": 19684, "pitch": 42, "duration": 9, "velocity": 74}, {"time": 19921, "pitch": 42, "duration": 10, "velocity": 46}, {"time": 20158, "pitch": 37, "duration": 10, "velocity": 88}, {"time": 20158, "pitch": 42, "duration": 10, "velocity": 60}, {"time": 20399, "pitch": 36, "duration": 10, "velocity": 88}, {"time": 20399, "pitch": 42, "duration": 10, "velocity": 46}, {"time": 20639, "pitch": 36, "duration": 10, "velocity": 116}, {"time": 20639, "pitch": 42, "duration": 10, "velocity": 74}, {"time": 20880, "pitch": 37, "duration": 10, "velocity": 74}, {"time": 20880, "pitch": 42, "duration": 10, "velocity": 46}, {"time": 21121, "pitch": 42, "duration": 10, "velocity": 60}, {"time": 21362, "pitch": 36, "duration": 10, "velocity": 88}, {"time": 21362, "pitch": 42, "duration": 10, "velocity": 46}, {"time": 21603, "pitch": 36, "duration": 9, "velocity": 116}, {"time": 21603, "pitch": 42, "duration": 9, "velocity": 74}, {"time": 21840, "pitch": 42, "duration": 10, "velocity": 46}, {"time": 22077, "pitch": 37, "duration": 10, "velocity": 88}, {"time": 22077, "pitch": 42, "duration": 10, "velocity": 60}, {"time": 22318, "pitch": 36, "duration": 10, "velocity": 88}, {"time": 22318, "pitch": 42, "duration": 10, "velocity": 46}, {"time": 22558, "pitch": 36, "duration": 10, "velocity": 116}, {"time": 22558, "pitch": 42, "duration": 10, "velocity": 74}, {"time": 22799, "pitch": 42, "duration": 10, "velocity": 46}, {"time": 22799, "pitch": 48, "duration": 10, "velocity": 88}, {"time": 23040, "pitch": 42, "duration": 10, "velocity": 60}, {"time": 23040, "pitch": 45, "duration": 10, "velocity": 74}, {"time": 23281, "pitch": 46, "duration": 10, "velocity": 60}, {"time": 23522, "pitch": 36, "duration": 10, "velocity": 116}, {"time": 23522, "pitch": 42, "duration": 10, "velocity": 74}, {"time": 23762, "pitch": 42, "duration": 10, "velocity": 46}, {"time": 24003, "pitch": 37, "duration": 10, "velocity": 88}, {"time": 24003, "pitch": 42, "duration": 10, "velocity": 60}, {"time": 24240, "pitch": 36, "duration": 10, "velocity": 88}, {"time": 24240, "pitch": 42, "duration": 10, "velocity": 46}, {"time": 24477, "pitch": 36, "duration": 10, "velocity": 116}, {"time": 24477, "pitch": 42, "duration": 10, "velocity": 74}, {"time": 24718, "pitch": 37, "duration": 10, "velocity": 74}, {"time": 24718, "pitch": 42, "duration": 10, "velocity": 46}, {"time": 24959, "pitch": 42, "duration": 10, "velocity": 60}, {"time": 25200, "pitch": 36, "duration": 10, "velocity": 88}, {"time": 25200, "pitch": 42, "duration": 10, "velocity": 46}, {"time": 25441, "pitch": 36, "duration": 10, "velocity": 116}, {"time": 25441, "pitch": 42, "duration": 10, "velocity": 74}, {"time": 25681, "pitch": 42, "duration": 10, "velocity": 46}, {"time": 25922, "pitch": 37, "duration": 10, "velocity": 88}, {"time": 25922, "pitch": 42, "duration": 10, "velocity": 60}, {"time": 26159, "pitch": 36, "duration": 10, "velocity": 88}, {"time": 26159, "pitch": 42, "duration": 10, "velocity": 46}, {"time": 26396, "pitch": 36, "duration": 10, "velocity": 116}, {"time": 26396, "pitch": 42, "duration": 10, "velocity": 74}, {"time": 26637, "pitch": 37, "duration": 10, "velocity": 74}, {"time": 26637, "pitch": 42, "duration": 10, "velocity": 46}, {"time": 26878, "pitch": 42, "duration": 10, "velocity": 60}, {"time": 27119, "pitch": 36, "duration": 10, "velocity": 88}, {"time": 27119, "pitch": 42, "duration": 10, "velocity": 46}, {"time": 27360, "pitch": 36, "duration": 10, "velocity": 116}, {"time": 27360, "pitch": 42, "duration": 10, "velocity": 74}, {"time": 27600, "pitch": 42, "duration": 10, "velocity": 46}, {"time": 27841, "pitch": 37, "duration": 10, "velocity": 88}, {"time": 27841, "pitch": 42, "duration": 10, "velocity": 60}, {"time": 28082, "pitch": 36, "duration": 10, "velocity": 88}, {"time": 28082, "pitch": 42, "duration": 10, "velocity": 46}, {"time": 28323, "pitch": 36, "duration": 10, "velocity": 116}, {"time": 28323, "pitch": 42, "duration": 10, "velocity": 74}, {"time": 28560, "pitch": 37, "duration": 10, "velocity": 74}, {"time": 28560, "pitch": 42, "duration": 10, "velocity": 46}, {"time": 28797, "pitch": 42, "duration": 10, "velocity": 60}, {"time": 29038, "pitch": 36, "duration": 10, "velocity": 88}, {"time": 29038, "pitch": 42, "duration": 10, "velocity": 46}, {"time": 29279, "pitch": 36, "duration": 10, "velocity": 116}, {"time": 29279, "pitch": 42, "duration": 10, "velocity": 74}, {"time": 29519, "pitch": 42, "duration": 10, "velocity": 46}, {"time": 29760, "pitch": 37, "duration": 10, "velocity": 88}, {"time": 29760, "pitch": 42, "duration": 10, "velocity": 60}, {"time": 30001, "pitch": 36, "duration": 10, "velocity": 88}, {"time": 30001, "pitch": 42, "duration": 10, "velocity": 46}, {"time": 30242, "pitch": 36, "duration": 10, "velocity": 116}, {"time": 30242, "pitch": 42, "duration": 10, "velocity": 74}, {"time": 30482, "pitch": 48, "duration": 11, "velocity": 102}, {"time": 30723, "pitch": 45, "duration": 10, "velocity": 88}, {"time": 30960, "pitch": 41, "duration": 10, "velocity": 74}, {"time": 31079, "pitch": 41, "duration": 10, "velocity": 60}, {"time": 31198, "pitch": 36, "duration": 10, "velocity": 116}, {"time": 31198, "pitch": 51, "duration": 10, "velocity": 102}, {"time": 31438, "pitch": 42, "duration": 10, "velocity": 60}, {"time": 31679, "pitch": 42, "duration": 10, "velocity": 74}, {"time": 31920, "pitch": 42, "duration": 10, "velocity": 60}, {"time": 32161, "pitch": 38, "duration": 10, "velocity": 98}, {"time": 32161, "pitch": 42, "duration": 10, "velocity": 88}, {"time": 32401, "pitch": 42, "duration": 11, "velocity": 60}, {"time": 32642, "pitch": 42, "duration": 10, "velocity": 74}, {"time": 32879, "pitch": 36, "duration": 10, "velocity": 88}, {"time": 32879, "pitch": 46, "duration": 10, "velocity": 60}, {"time": 33117, "pitch": 36, "duration": 10, "velocity": 116}, {"time": 33117, "pitch": 42, "duration": 10, "velocity": 88}, {"time": 33357, "pitch": 42, "duration": 10, "velocity": 60}, {"time": 33598, "pitch": 42, "duration": 10, "velocity": 74}, {"time": 33839, "pitch": 36, "duration": 10, "velocity": 116}, {"time": 33839, "pitch": 46, "duration": 10, "velocity": 60}, {"time": 34080, "pitch": 38, "duration": 10, "velocity": 98}, {"time": 34080, "pitch": 42, "duration": 10, "velocity": 88}, {"time": 34320, "pitch": 42, "duration": 10, "velocity": 60}, {"time": 34561, "pitch": 42, "duration": 10, "velocity": 74}, {"time": 34802, "pitch": 36, "duration": 10, "velocity": 116}, {"time": 34802, "pitch": 49, "duration": 10, "velocity": 60}, {"time": 35280, "pitch": 48, "duration": 10, "velocity": 88}, {"time": 35517, "pitch": 45, "duration": 10, "velocity": 74}, {"time": 35758, "pitch": 36, "duration": 10, "velocity": 116}, {"time": 35758, "pitch": 49, "duration": 10, "velocity": 60}, {"time": 36239, "pitch": 48, "duration": 10, "velocity": 88}, {"time": 36360, "pitch": 48, "duration": 10, "velocity": 60}, {"time": 36480, "pitch": 45, "duration": 10, "velocity": 74}, {"time": 36721, "pitch": 36, "duration": 10, "velocity": 116}, {"time": 36721, "pitch": 49, "duration": 10, "velocity": 60}, {"time": 37203, "pitch": 42, "duration": 10, "velocity": 60}, {"time": 37443, "pitch": 42, "duration": 10, "velocity": 74}, {"time": 37681, "pitch": 36, "duration": 9, "velocity": 116}, {"time": 37681, "pitch": 46, "duration": 9, "velocity": 60}, {"time": 37918, "pitch": 51, "duration": 10, "velocity": 102}, {"time": 38399, "pitch": 36, "duration": 10, "velocity": 116}, {"time": 38399, "pitch": 51, "duration": 10, "velocity": 88}, {"time": 38881, "pitch": 36, "duration": 10, "velocity": 116}, {"time": 38881, "pitch": 42, "duration": 10, "velocity": 88}, {"time": 39122, "pitch": 42, "duration": 10, "velocity": 60}, {"time": 39362, "pitch": 42, "duration": 10, "velocity": 74}, {"time": 39600, "pitch": 36, "duration": 9, "velocity": 88}, {"time": 39600, "pitch": 42, "duration": 9, "velocity": 60}, {"time": 39837, "pitch": 38, "duration": 10, "velocity": 98}, {"time": 39837, "pitch": 51, "duration": 10, "velocity": 102}, {"time": 40318, "pitch": 36, "duration": 10, "velocity": 88}, {"time": 40318, "pitch": 51, "duration": 10, "velocity": 88}, {"time": 40800, "pitch": 36, "duration": 10, "velocity": 116}, {"time": 40800, "pitch": 46, "duration": 10, "velocity": 88}, {"time": 41041, "pitch": 42, "duration": 10, "velocity": 60}, {"time": 41281, "pitch": 42, "duration": 10, "velocity": 74}, {"time": 41522, "pitch": 36, "duration": 10, "velocity": 88}, {"time": 41522, "pitch": 46, "duration": 10, "velocity": 88}, {"time": 41763, "pitch": 42, "duration": 10, "velocity": 74}, {"time": 42000, "pitch": 36, "duration": 10, "velocity": 116}, {"time": 42000, "pitch": 51, "duration": 10, "velocity": 88}, {"time": 42719, "pitch": 36, "duration": 10, "velocity": 116}, {"time": 42719, "pitch": 42, "duration": 10, "velocity": 88}, {"time": 42960, "pitch": 42, "duration": 10, "velocity": 60}, {"time": 43200, "pitch": 42, "duration": 10, "velocity": 74}, {"time": 43441, "pitch": 36, "duration": 10, "velocity": 116}, {"time": 43441, "pitch": 42, "duration": 10, "velocity": 60}, {"time": 43682, "pitch": 38, "duration": 10, "velocity": 98}, {"time": 43682, "pitch": 42, "duration": 10, "velocity": 88}, {"time": 43923, "pitch": 42, "duration": 10, "velocity": 60}, {"time": 44164, "pitch": 42, "duration": 9, "velocity": 74}, {"time": 44401, "pitch": 36, "duration": 10, "velocity": 127}, {"time": 44401, "pitch": 49, "duration": 10, "velocity": 60}, {"time": 44879, "pitch": 38, "duration": 10, "velocity": 98}, {"time": 44999, "pitch": 38, "duration": 10, "velocity": 70}, {"time": 45119, "pitch": 45, "duration": 10, "velocity": 88}, {"time": 45360, "pitch": 36, "duration": 10, "velocity": 116}, {"time": 45360, "pitch": 49, "duration": 10, "velocity": 60}, {"time": 45842, "pitch": 48, "duration": 10, "velocity": 88}, {"time": 46083, "pitch": 45, "duration": 9, "velocity": 88}, {"time": 46557, "pitch": 36, "duration": 10, "velocity": 116}, {"time": 46557, "pitch": 49, "duration": 10, "velocity": 60}, {"time": 47038, "pitch": 51, "duration": 10, "velocity": 102}, {"time": 47520, "pitch": 36, "duration": 10, "velocity": 116}, {"time": 47520, "pitch": 49, "duration": 10, "velocity": 60}, {"time": 48002, "pitch": 38, "duration": 10, "velocity": 98}, {"time": 48002, "pitch": 51, "duration": 10, "velocity": 88}, {"time": 48122, "pitch": 38, "duration": 10, "velocity": 70}, {"time": 48242, "pitch": 45, "duration": 10, "velocity": 74}, {"time": 48483, "pitch": 36, "duration": 10, "velocity": 116}, {"time": 48483, "pitch": 49, "duration": 10, "velocity": 60}, {"time": 48720, "pitch": 42, "duration": 10, "velocity": 60}, {"time": 48957, "pitch": 38, "duration": 10, "velocity": 98}, {"time": 48957, "pitch": 42, "duration": 10, "velocity": 74}, {"time": 49198, "pitch": 36, "duration": 10, "velocity": 88}, {"time": 49198, "pitch": 42, "duration": 10, "velocity": 60}, {"time": 49439, "pitch": 36, "duration": 10, "velocity": 116}, {"time": 49439, "pitch": 42, "duration": 10, "velocity": 88}, {"time": 49680, "pitch": 42, "duration": 10, "velocity": 60}, {"time": 49921, "pitch": 38, "duration": 10, "velocity": 98}, {"time": 49921, "pitch": 42, "duration": 10, "velocity": 74}, {"time": 50161, "pitch": 36, "duration": 10, "velocity": 88}, {"time": 50161, "pitch": 46, "duration": 10, "velocity": 60}, {"time": 50402, "pitch": 42, "duration": 10, "velocity": 88}, {"time": 50639, "pitch": 36, "duration": 10, "velocity": 116}, {"time": 50639, "pitch": 42, "duration": 10, "velocity": 60}, {"time": 50876, "pitch": 38, "duration": 10, "velocity": 98}, {"time": 50876, "pitch": 42, "duration": 10, "velocity": 74}, {"time": 51117, "pitch": 36, "duration": 10, "velocity": 88}, {"time": 51117, "pitch": 42, "duration": 10, "velocity": 60}, {"time": 51358, "pitch": 36, "duration": 10, "velocity": 116}, {"time": 51358, "pitch": 42, "duration": 10, "velocity": 88}, {"time": 51599, "pitch": 42, "duration": 10, "velocity": 60}, {"time": 51839, "pitch": 38, "duration": 11, "velocity": 98}, {"time": 51960, "pitch": 38, "duration": 10, "velocity": 70}, {"time": 52080, "pitch": 45, "duration": 10, "velocity": 88}, {"time": 52321, "pitch": 36, "duration": 10, "velocity": 116}, {"time": 52321, "pitch": 49, "duration": 10, "velocity": 60}, {"time": 52562, "pitch": 42, "duration": 10, "velocity": 60}, {"time": 52803, "pitch": 38, "duration": 10, "velocity": 98}, {"time": 52803, "pitch": 42, "duration": 10, "velocity": 74}, {"time": 53040, "pitch": 36, "duration": 10, "velocity": 88}, {"time": 53040, "pitch": 42, "duration": 10, "velocity": 60}, {"time": 53277, "pitch": 36, "duration": 10, "velocity": 116}, {"time": 53277, "pitch": 42, "duration": 10, "velocity": 88}, {"time": 53518, "pitch": 42, "duration": 10, "velocity": 60}, {"time": 53758, "pitch": 38, "duration": 11, "velocity": 98}, {"time": 53758, "pitch": 42, "duration": 11, "velocity": 74}, {"time": 53999, "pitch": 36, "duration": 10, "velocity": 88}, {"time": 53999, "pitch": 46, "duration": 10, "velocity": 60}, {"time": 54240, "pitch": 42, "duration": 10, "velocity": 88}, {"time": 54481, "pitch": 36, "duration": 10, "velocity": 116}, {"time": 54481, "pitch": 42, "duration": 10, "velocity": 60}, {"time": 54722, "pitch": 38, "duration": 10, "velocity": 98}, {"time": 54722, "pitch": 42, "duration": 10, "velocity": 74}, {"time": 54962, "pitch": 36, "duration": 10, "velocity": 88}, {"time": 54962, "pitch": 42, "duration": 10, "velocity": 60}, {"time": 55203, "pitch": 36, "duration": 10, "velocity": 116}, {"time": 55203, "pitch": 42, "duration": 10, "velocity": 88}, {"time": 55440, "pitch": 42, "duration": 10, "velocity": 60}, {"time": 55678, "pitch": 38, "duration": 9, "velocity": 98}, {"time": 55798, "pitch": 38, "duration": 10, "velocity": 70}, {"time": 55918, "pitch": 45, "duration": 10, "velocity": 88}, {"time": 56159, "pitch": 36, "duration": 10, "velocity": 116}, {"time": 56159, "pitch": 49, "duration": 10, "velocity": 60}, {"time": 56400, "pitch": 42, "duration": 10, "velocity": 60}, {"time": 56641, "pitch": 38, "duration": 10, "velocity": 98}, {"time": 56641, "pitch": 42, "duration": 10, "velocity": 74}, {"time": 56881, "pitch": 36, "duration": 10, "velocity": 88}, {"time": 56881, "pitch": 42, "duration": 10, "velocity": 60}, {"time": 57122, "pitch": 36, "duration": 10, "velocity": 116}, {"time": 57122, "pitch": 42, "duration": 10, "velocity": 88}, {"time": 57359, "pitch": 42, "duration": 10, "velocity": 60}, {"time": 57597, "pitch": 38, "duration": 9, "velocity": 98}, {"time": 57597, "pitch": 42, "duration": 9, "velocity": 74}, {"time": 57837, "pitch": 42, "duration": 10, "velocity": 60}, {"time": 58078, "pitch": 36, "duration": 10, "velocity": 116}, {"time": 58078, "pitch": 42, "duration": 10, "velocity": 88}, {"time": 58319, "pitch": 42, "duration": 10, "velocity": 60}, {"time": 58560, "pitch": 38, "duration": 10, "velocity": 98}, {"time": 58560, "pitch": 42, "duration": 10, "velocity": 74}, {"time": 58800, "pitch": 36, "duration": 10, "velocity": 88}, {"time": 58800, "pitch": 42, "duration": 10, "velocity": 60}, {"time": 59041, "pitch": 36, "duration": 10, "velocity": 116}, {"time": 59041, "pitch": 42, "duration": 10, "velocity": 88}, {"time": 59282, "pitch": 42, "duration": 10, "velocity": 60}, {"time": 59523, "pitch": 38, "duration": 10, "velocity": 98}, {"time": 59523, "pitch": 42, "duration": 10, "velocity": 74}, {"time": 59760, "pitch": 42, "duration": 10, "velocity": 60}, {"time": 59997, "pitch": 36, "duration": 10, "velocity": 116}, {"time": 59997, "pitch": 42, "duration": 10, "velocity": 88}, {"time": 60238, "pitch": 42, "duration": 10, "velocity": 60}, {"time": 60479, "pitch": 38, "duration": 10, "velocity": 98}, {"time": 60479, "pitch": 42, "duration": 10, "velocity": 74}, {"time": 60719, "pitch": 36, "duration": 10, "velocity": 88}, {"time": 60719, "pitch": 42, "duration": 10, "velocity": 60}, {"time": 60960, "pitch": 36, "duration": 10, "velocity": 116}, {"time": 60960, "pitch": 42, "duration": 10, "velocity": 88}, {"time": 61201, "pitch": 42, "duration": 10, "velocity": 60}, {"time": 61442, "pitch": 38, "duration": 10, "velocity": 98}, {"time": 61442, "pitch": 42, "duration": 10, "velocity": 74}, {"time": 61683, "pitch": 42, "duration": 10, "velocity": 60}, {"time": 61923, "pitch": 36, "duration": 10, "velocity": 116}, {"time": 61923, "pitch": 42, "duration": 10, "velocity": 88}, {"time": 62160, "pitch": 42, "duration": 10, "velocity": 60}, {"time": 62398, "pitch": 38, "duration": 10, "velocity": 98}, {"time": 62398, "pitch": 42, "duration": 10, "velocity": 74}, {"time": 62638, "pitch": 36, "duration": 10, "velocity": 88}, {"time": 62638, "pitch": 46, "duration": 10, "velocity": 60}, {"time": 62879, "pitch": 42, "duration": 10, "velocity": 88}, {"time": 63120, "pitch": 36, "duration": 10, "velocity": 88}, {"time": 63120, "pitch": 49, "duration": 10, "velocity": 60}, {"time": 63361, "pitch": 38, "duration": 10, "velocity": 98}, {"time": 63361, "pitch": 48, "duration": 10, "velocity": 88}, {"time": 63602, "pitch": 45, "duration": 10, "velocity": 74}, {"time": 63842, "pitch": 36, "duration": 10, "velocity": 116}, {"time": 63842, "pitch": 51, "duration": 10, "velocity": 102}, {"time": 64079, "pitch": 42, "duration": 10, "velocity": 60}, {"time": 64317, "pitch": 38, "duration": 10, "velocity": 98}, {"time": 64317, "pitch": 42, "duration": 10, "velocity": 74}, {"time": 64557, "pitch": 36, "duration": 10, "velocity": 88}, {"time": 64557, "pitch": 42, "duration": 10, "velocity": 60}, {"time": 64798, "pitch": 36, "duration": 10, "velocity": 116}, {"time": 64798, "pitch": 42, "duration": 10, "velocity": 88}, {"time": 65039, "pitch": 42, "duration": 10, "velocity": 60}, {"time": 65280, "pitch": 38, "duration": 10, "velocity": 98}, {"time": 65280, "pitch": 42, "duration": 10, "velocity": 74}, {"time": 65521, "pitch": 36, "duration": 10, "velocity": 88}, {"time": 65521, "pitch": 42, "duration": 10, "velocity": 60}, {"time": 65761, "pitch": 42, "duration": 10, "velocity": 88}, {"time": 66002, "pitch": 36, "duration": 10, "velocity": 116}, {"time": 66002, "pitch": 42, "duration": 10, "velocity": 60}, {"time": 66243, "pitch": 38, "duration": 10, "velocity": 98}, {"time": 66243, "pitch": 42, "duration": 10, "velocity": 74}, {"time": 66480, "pitch": 36, "duration": 10, "velocity": 88}, {"time": 66480, "pitch": 42, "duration": 10, "velocity": 60}, {"time": 66717, "pitch": 36, "duration": 10, "velocity": 116}, {"time": 66717, "pitch": 42, "duration": 10, "velocity": 88}, {"time": 66958, "pitch": 42, "duration": 10, "velocity": 60}, {"time": 67199, "pitch": 38, "duration": 10, "velocity": 98}, {"time": 67319, "pitch": 38, "duration": 10, "velocity": 70}, {"time": 67440, "pitch": 45, "duration": 10, "velocity": 88}, {"time": 67680, "pitch": 36, "duration": 10, "velocity": 116}, {"time": 67680, "pitch": 51, "duration": 10, "velocity": 102}, {"time": 67921, "pitch": 42, "duration": 10, "velocity": 60}, {"time": 68162, "pitch": 38, "duration": 10, "velocity": 98}, {"time": 68162, "pitch": 42, "duration": 10, "velocity": 74}, {"time": 68403, "pitch": 36, "duration": 10, "velocity": 88}, {"time": 68403, "pitch": 42, "duration": 10, "velocity": 60}, {"time": 68643, "pitch": 36, "duration": 10, "velocity": 116}, {"time": 68643, "pitch": 42, "duration": 10, "velocity": 88}, {"time": 68881, "pitch": 42, "duration": 10, "velocity": 60}, {"time": 69118, "pitch": 38, "duration": 10, "velocity": 98}, {"time": 69118, "pitch": 42, "duration": 10, "velocity": 74}, {"time": 69359, "pitch": 36, "duration": 10, "velocity": 88}, {"time": 69359, "pitch": 42, "duration": 10, "velocity": 60}, {"time": 69599, "pitch": 42, "duration": 10, "velocity": 88}, {"time": 69840, "pitch": 36, "duration": 10, "velocity": 116}, {"time": 69840, "pitch": 42, "duration": 10, "velocity": 60}, {"time": 70081, "pitch": 38, "duration": 10, "velocity": 98}, {"time": 70081, "pitch": 42, "duration": 10, "velocity": 74}, {"time": 70322, "pitch": 36, "duration": 10, "velocity": 88}, {"time": 70322, "pitch": 42, "duration": 10, "velocity": 60}, {"time": 70562, "pitch": 36, "duration": 10, "velocity": 116}, {"time": 70562, "pitch": 42, "duration": 10, "velocity": 88}, {"time": 70800, "pitch": 42, "duration": 10, "velocity": 60}, {"time": 71037, "pitch": 38, "duration": 10, "velocity": 98}, {"time": 71157, "pitch": 38, "duration": 10, "velocity": 70}, {"time": 71278, "pitch": 45, "duration": 10, "velocity": 88}, {"time": 71518, "pitch": 36, "duration": 10, "velocity": 116}, {"time": 71518, "pitch": 49, "duration": 10, "velocity": 60}, {"time": 71759, "pitch": 42, "duration": 10, "velocity": 60}, {"time": 72000, "pitch": 38, "duration": 10, "velocity": 98}, {"time": 72000, "pitch": 42, "duration": 10, "velocity": 74}, {"time": 72241, "pitch": 36, "duration": 10, "velocity": 88}, {"time": 72241, "pitch": 42, "duration": 10, "velocity": 60}, {"time": 72481, "pitch": 36, "duration": 11, "velocity": 116}, {"time": 72481, "pitch": 42, "duration": 11, "velocity": 88}, {"time": 72722, "pitch": 42, "duration": 10, "velocity": 60}, {"time": 72963, "pitch": 38, "duration": 10, "velocity": 98}, {"time": 72963, "pitch": 42, "duration": 10, "velocity": 74}, {"time": 73200, "pitch": 42, "duration": 10, "velocity": 60}, {"time": 73437, "pitch": 36, "duration": 10, "velocity": 116}, {"time": 73437, "pitch": 42, "duration": 10, "velocity": 88}, {"time": 73678, "pitch": 42, "duration": 10, "velocity": 60}, {"time": 73919, "pitch": 38, "duration": 10, "velocity": 98}, {"time": 73919, "pitch": 42, "duration": 10, "velocity": 74}, {"time": 74160, "pitch": 36, "duration": 10, "velocity": 88}, {"time": 74160, "pitch": 42, "duration": 10, "velocity": 60}, {"time": 74400, "pitch": 36, "duration": 11, "velocity": 116}, {"time": 74400, "pitch": 42, "duration": 11, "velocity": 88}, {"time": 74641, "pitch": 42, "duration": 10, "velocity": 60}, {"time": 74882, "pitch": 38, "duration": 10, "velocity": 98}, {"time": 74882, "pitch": 42, "duration": 10, "velocity": 74}, {"time": 75123, "pitch": 42, "duration": 10, "velocity": 60}, {"time": 75364, "pitch": 36, "duration": 9, "velocity": 116}, {"time": 75364, "pitch": 42, "duration": 9, "velocity": 88}, {"time": 75601, "pitch": 42, "duration": 10, "velocity": 60}, {"time": 75838, "pitch": 38, "duration": 10, "velocity": 98}, {"time": 75838, "pitch": 42, "duration": 10, "velocity": 74}, {"time": 76079, "pitch": 36, "duration": 10, "velocity": 88}, {"time": 76079, "pitch": 42, "duration": 10, "velocity": 60}, {"time": 76319, "pitch": 36, "duration": 10, "velocity": 116}, {"time": 76319, "pitch": 42, "duration": 10, "velocity": 88}, {"time": 76560, "pitch": 42, "duration": 10, "velocity": 60}, {"time": 76801, "pitch": 38, "duration": 10, "velocity": 98}, {"time": 76801, "pitch": 42, "duration": 10, "velocity": 74}, {"time": 77042, "pitch": 42, "duration": 10, "velocity": 60}, {"time": 77283, "pitch": 36, "duration": 9, "velocity": 116}, {"time": 77283, "pitch": 42, "duration": 9, "velocity": 88}, {"time": 77520, "pitch": 42, "duration": 10, "velocity": 60}, {"time": 77757, "pitch": 38, "duration": 10, "velocity": 98}, {"time": 77757, "pitch": 42, "duration": 10, "velocity": 74}, {"time": 77998, "pitch": 36, "duration": 10, "velocity": 88}, {"time": 77998, "pitch": 46, "duration": 10, "velocity": 60}, {"time": 78238, "pitch": 42, "duration": 10, "velocity": 88}, {"time": 78479, "pitch": 36, "duration": 10, "velocity": 116}, {"time": 78479, "pitch": 46, "duration": 10, "velocity": 74}, {"time": 78720, "pitch": 42, "duration": 10, "velocity": 74}, {"time": 78961, "pitch": 36, "duration": 10, "velocity": 127}, {"time": 78961, "pitch": 49, "duration": 10, "velocity": 88}, {"time": 83040, "pitch": 51, "duration": 10, "velocity": 116}, {"time": 83762, "pitch": 51, "duration": 10, "velocity": 116}, {"time": 84959, "pitch": 51, "duration": 10, "velocity": 116}, {"time": 85681, "pitch": 51, "duration": 10, "velocity": 116}, {"time": 86878, "pitch": 51, "duration": 10, "velocity": 116}, {"time": 87600, "pitch": 51, "duration": 10, "velocity": 116}, {"time": 88797, "pitch": 51, "duration": 10, "velocity": 116}, {"time": 89519, "pitch": 51, "duration": 10, "velocity": 116}, {"time": 90723, "pitch": 36, "duration": 10, "velocity": 116}, {"time": 90723, "pitch": 51, "duration": 10, "velocity": 116}, {"time": 91438, "pitch": 51, "duration": 10, "velocity": 116}, {"time": 92160, "pitch": 42, "duration": 10, "velocity": 88}, {"time": 92281, "pitch": 42, "duration": 10, "velocity": 60}, {"time": 92401, "pitch": 46, "duration": 10, "velocity": 74}, {"time": 92642, "pitch": 36, "duration": 10, "velocity": 116}, {"time": 92642, "pitch": 51, "duration": 10, "velocity": 116}, {"time": 93361, "pitch": 51, "duration": 9, "velocity": 116}, {"time": 94079, "pitch": 42, "duration": 10, "velocity": 88}, {"time": 94200, "pitch": 42, "duration": 10, "velocity": 60}, {"time": 94320, "pitch": 46, "duration": 10, "velocity": 74}, {"time": 94561, "pitch": 36, "duration": 10, "velocity": 116}, {"time": 94561, "pitch": 51, "duration": 10, "velocity": 116}, {"time": 95280, "pitch": 51, "duration": 9, "velocity": 116}, {"time": 95998, "pitch": 42, "duration": 10, "velocity": 88}, {"time": 96119, "pitch": 42, "duration": 10, "velocity": 60}, {"time": 96239, "pitch": 46, "duration": 10, "velocity": 74}, {"time": 96480, "pitch": 36, "duration": 10, "velocity": 116}, {"time": 96480, "pitch": 51, "duration": 10, "velocity": 116}, {"time": 97443, "pitch": 36, "duration": 10, "velocity": 116}, {"time": 97443, "pitch": 49, "duration": 10, "velocity": 88}, {"time": 97680, "pitch": 45, "duration": 10, "velocity": 92}, {"time": 97917, "pitch": 41, "duration": 10, "velocity": 78}, {"time": 98399, "pitch": 36, "duration": 10, "velocity": 116}, {"time": 98399, "pitch": 49, "duration": 10, "velocity": 46}, {"time": 98640, "pitch": 42, "duration": 10, "velocity": 46}, {"time": 98880, "pitch": 37, "duration": 10, "velocity": 88}, {"time": 98880, "pitch": 42, "duration": 10, "velocity": 60}, {"time": 99121, "pitch": 36, "duration": 10, "velocity": 88}, {"time": 99121, "pitch": 42, "duration": 10, "velocity": 46}, {"time": 99362, "pitch": 36, "duration": 10, "velocity": 116}, {"time": 99362, "pitch": 42, "duration": 10, "velocity": 74}, {"time": 99603, "pitch": 37, "duration": 10, "velocity": 74}, {"time": 99603, "pitch": 42, "duration": 10, "velocity": 46}, {"time": 99844, "pitch": 42, "duration": 9, "velocity": 60}, {"time": 100081, "pitch": 36, "duration": 10, "velocity": 88}, {"time": 100081, "pitch": 42, "duration": 10, "velocity": 46}, {"time": 100318, "pitch": 36, "duration": 10, "velocity": 116}, {"time": 100318, "pitch": 42, "duration": 10, "velocity": 74}, {"time": 100559, "pitch": 42, "duration": 10, "velocity": 46}, {"time": 100799, "pitch": 37, "duration": 10, "velocity": 88}, {"time": 100799, "pitch": 42, "duration": 10, "velocity": 60}, {"time": 101040, "pitch": 36, "duration": 10, "velocity": 88}, {"time": 101040, "pitch": 42, "duration": 10, "velocity": 46}, {"time": 101281, "pitch": 36, "duration": 10, "velocity": 116}, {"time": 101281, "pitch": 42, "duration": 10, "velocity": 74}, {"time": 101522, "pitch": 37, "duration": 10, "velocity": 74}, {"time": 101522, "pitch": 42, "duration": 10, "velocity": 46}, {"time": 101763, "pitch": 42, "duration": 9, "velocity": 60}, {"time": 102000, "pitch": 36, "duration": 10, "velocity": 88}, {"time": 102000, "pitch": 42, "duration": 10, "velocity": 46}, {"time": 102237, "pitch": 36, "duration": 10, "velocity": 116}, {"time": 102237, "pitch": 42, "duration": 10, "velocity": 74}, {"time": 102478, "pitch": 42, "duration": 10, "velocity": 46}, {"time": 102718, "pitch": 37, "duration": 10, "velocity": 88}, {"time": 102718, "pitch": 42, "duration": 10, "velocity": 60}, {"time": 102959, "pitch": 36, "duration": 10, "velocity": 88}, {"time": 102959, "pitch": 42, "duration": 10, "velocity": 46}, {"time": 103200, "pitch": 36, "duration": 10, "velocity": 116}, {"time": 103200, "pitch": 42, "duration": 10, "velocity": 74}, {"time": 103441, "pitch": 37, "duration": 10, "velocity": 74}, {"time": 103441, "pitch": 42, "duration": 10, "velocity": 46}, {"time": 103682, "pitch": 42, "duration": 10, "velocity": 60}, {"time": 103922, "pitch": 36, "duration": 10, "velocity": 88}, {"time": 103922, "pitch": 42, "duration": 10, "velocity": 46}, {"time": 104163, "pitch": 36, "duration": 10, "velocity": 116}, {"time": 104163, "pitch": 42, "duration": 10, "velocity": 74}, {"time": 104400, "pitch": 42, "duration": 10, "velocity": 46}, {"time": 104637, "pitch": 37, "duration": 10, "velocity": 88}, {"time": 104637, "pitch": 42, "duration": 10, "velocity": 60}, {"time": 104878, "pitch": 36, "duration": 10, "velocity": 88}, {"time": 104878, "pitch": 42, "duration": 10, "velocity": 46}, {"time": 105119, "pitch": 36, "duration": 10, "velocity": 116}, {"time": 105119, "pitch": 42, "duration": 10, "velocity": 74}, {"time": 105360, "pitch": 42, "duration": 10, "velocity": 46}, {"time": 105360, "pitch": 48, "duration": 10, "velocity": 88}, {"time": 105601, "pitch": 42, "duration": 10, "velocity": 60}, {"time": 105601, "pitch": 45, "duration": 10, "velocity": 74}, {"time": 105841, "pitch": 46, "duration": 10, "velocity": 60}, {"time": 106082, "pitch": 36, "duration": 10, "velocity": 116}, {"time": 106082, "pitch": 42, "duration": 10, "velocity": 74}, {"time": 106319, "pitch": 42, "duration": 10, "velocity": 46}, {"time": 106556, "pitch": 37, "duration": 10, "velocity": 88}, {"time": 106556, "pitch": 42, "duration": 10, "velocity": 60}, {"time": 106797, "pitch": 36, "duration": 10, "velocity": 88}, {"time": 106797, "pitch": 42, "duration": 10, "velocity": 46}, {"time": 107038, "pitch": 36, "duration": 10, "velocity": 116}, {"time": 107038, "pitch": 42, "duration": 10, "velocity": 74}, {"time": 107279, "pitch": 37, "duration": 10, "velocity": 74}, {"time": 107279, "pitch": 42, "duration": 10, "velocity": 46}, {"time": 107520, "pitch": 42, "duration": 10, "velocity": 60}, {"time": 107760, "pitch": 36, "duration": 10, "velocity": 88}, {"time": 107760, "pitch": 42, "duration": 10, "velocity": 46}, {"time": 108001, "pitch": 36, "duration": 10, "velocity": 116}, {"time": 108001, "pitch": 42, "duration": 10, "velocity": 74}, {"time": 108242, "pitch": 42, "duration": 10, "velocity": 46}, {"time": 108483, "pitch": 37, "duration": 10, "velocity": 88}, {"time": 108483, "pitch": 42, "duration": 10, "velocity": 60}, {"time": 108720, "pitch": 36, "duration": 10, "velocity": 88}, {"time": 108720, "pitch": 42, "duration": 10, "velocity": 46}, {"time": 108957, "pitch": 36, "duration": 10, "velocity": 116}, {"time": 108957, "pitch": 42, "duration": 10, "velocity": 74}, {"time": 109198, "pitch": 37, "duration": 10, "velocity": 74}, {"time": 109198, "pitch": 42, "duration": 10, "velocity": 46}, {"time": 109439, "pitch": 42, "duration": 10, "velocity": 60}, {"time": 109679, "pitch": 36, "duration": 10, "velocity": 88}, {"time": 109679, "pitch": 42, "duration": 10, "velocity": 46}, {"time": 109920, "pitch": 36, "duration": 10, "velocity": 116}, {"time": 109920, "pitch": 42, "duration": 10, "velocity": 74}, {"time": 110161, "pitch": 42, "duration": 10, "velocity": 46}, {"time": 110402, "pitch": 37, "duration": 10, "velocity": 88}, {"time": 110402, "pitch": 42, "duration": 10, "velocity": 60}, {"time": 110643, "pitch": 36, "duration": 10, "velocity": 88}, {"time": 110643, "pitch": 42, "duration": 10, "velocity": 46}, {"time": 110883, "pitch": 36, "duration": 10, "velocity": 116}, {"time": 110883, "pitch": 42, "duration": 10, "velocity": 74}, {"time": 111120, "pitch": 37, "duration": 10, "velocity": 74}, {"time": 111120, "pitch": 42, "duration": 10, "velocity": 46}, {"time": 111358, "pitch": 42, "duration": 10, "velocity": 60}, {"time": 111598, "pitch": 36, "duration": 10, "velocity": 88}, {"time": 111598, "pitch": 42, "duration": 10, "velocity": 46}, {"time": 111839, "pitch": 36, "duration": 10, "velocity": 116}, {"time": 111839, "pitch": 42, "duration": 10, "velocity": 74}, {"time": 112080, "pitch": 42, "duration": 10, "velocity": 46}, {"time": 112321, "pitch": 37, "duration": 10, "velocity": 88}, {"time": 112321, "pitch": 42, "duration": 10, "velocity": 60}, {"time": 112562, "pitch": 36, "duration": 10, "velocity": 88}, {"time": 112562, "pitch": 42, "duration": 10, "velocity": 46}, {"time": 112802, "pitch": 36, "duration": 10, "velocity": 116}, {"time": 112802, "pitch": 42, "duration": 10, "velocity": 74}, {"time": 113039, "pitch": 48, "duration": 10, "velocity": 102}, {"time": 113277, "pitch": 45, "duration": 10, "velocity": 88}, {"time": 113517, "pitch": 41, "duration": 10, "velocity": 74}, {"time": 113638, "pitch": 41, "duration": 10, "velocity": 60}, {"time": 113758, "pitch": 36, "duration": 10, "velocity": 116}, {"time": 113758, "pitch": 51, "duration": 10, "velocity": 102}, {"time": 113999, "pitch": 42, "duration": 10, "velocity": 60}, {"time": 114240, "pitch": 42, "duration": 10, "velocity": 74}, {"time": 114480, "pitch": 42, "duration": 11, "velocity": 60}, {"time": 114721, "pitch": 38, "duration": 10, "velocity": 98}, {"time": 114721, "pitch": 42, "duration": 10, "velocity": 88}, {"time": 114962, "pitch": 42, "duration": 10, "velocity": 60}, {"time": 115203, "pitch": 42, "duration": 10, "velocity": 74}, {"time": 115440, "pitch": 36, "duration": 10, "velocity": 88}, {"time": 115440, "pitch": 46, "duration": 10, "velocity": 60}, {"time": 115677, "pitch": 36, "duration": 10, "velocity": 116}, {"time": 115677, "pitch": 42, "duration": 10, "velocity": 88}, {"time": 115918, "pitch": 42, "duration": 10, "velocity": 60}, {"time": 116159, "pitch": 42, "duration": 10, "velocity": 74}, {"time": 116399, "pitch": 36, "duration": 11, "velocity": 116}, {"time": 116399, "pitch": 46, "duration": 11, "velocity": 60}, {"time": 116640, "pitch": 38, "duration": 10, "velocity": 98}, {"time": 116640, "pitch": 42, "duration": 10, "velocity": 88}, {"time": 116881, "pitch": 42, "duration": 10, "velocity": 60}, {"time": 117122, "pitch": 42, "duration": 10, "velocity": 74}, {"time": 117363, "pitch": 36, "duration": 10, "velocity": 116}, {"time": 117363, "pitch": 49, "duration": 10, "velocity": 60}, {"time": 117841, "pitch": 48, "duration": 9, "velocity": 88}, {"time": 118078, "pitch": 45, "duration": 10, "velocity": 74}, {"time": 118318, "pitch": 36, "duration": 10, "velocity": 116}, {"time": 118318, "pitch": 49, "duration": 10, "velocity": 60}, {"time": 118800, "pitch": 48, "duration": 10, "velocity": 88}, {"time": 118920, "pitch": 48, "duration": 10, "velocity": 60}, {"time": 119041, "pitch": 45, "duration": 10, "velocity": 74}, {"time": 119282, "pitch": 36, "duration": 10, "velocity": 116}, {"time": 119282, "pitch": 49, "duration": 10, "velocity": 60}, {"time": 119760, "pitch": 42, "duration": 9, "velocity": 60}, {"time": 119997, "pitch": 42, "duration": 10, "velocity": 74}, {"time": 120237, "pitch": 36, "duration": 10, "velocity": 116}, {"time": 120237, "pitch": 46, "duration": 10, "velocity": 60}, {"time": 120478, "pitch": 51, "duration": 10, "velocity": 102}, {"time": 120960, "pitch": 36, "duration": 10, "velocity": 116}, {"time": 120960, "pitch": 51, "duration": 10, "velocity": 88}, {"time": 121441, "pitch": 36, "duration": 10, "velocity": 116}, {"time": 121441, "pitch": 42, "duration": 10, "velocity": 88}, {"time": 121682, "pitch": 42, "duration": 10, "velocity": 60}, {"time": 121923, "pitch": 42, "duration": 10, "velocity": 74}, {"time": 122160, "pitch": 36, "duration": 10, "velocity": 88}, {"time": 122160, "pitch": 42, "duration": 10, "velocity": 60}, {"time": 122397, "pitch": 38, "duration": 10, "velocity": 98}, {"time": 122397, "pitch": 51, "duration": 10, "velocity": 102}, {"time": 122879, "pitch": 36, "duration": 10, "velocity": 88}, {"time": 122879, "pitch": 51, "duration": 10, "velocity": 88}, {"time": 123360, "pitch": 36, "duration": 10, "velocity": 116}, {"time": 123360, "pitch": 46, "duration": 10, "velocity": 88}, {"time": 123601, "pitch": 42, "duration": 10, "velocity": 60}, {"time": 123842, "pitch": 42, "duration": 10, "velocity": 74}, {"time": 124083, "pitch": 36, "duration": 10, "velocity": 88}, {"time": 124083, "pitch": 46, "duration": 10, "velocity": 88}, {"time": 124324, "pitch": 42, "duration": 9, "velocity": 74}, {"time": 124561, "pitch": 36, "duration": 10, "velocity": 116}, {"time": 124561, "pitch": 51, "duration": 10, "velocity": 88}, {"time": 125279, "pitch": 36, "duration": 10, "velocity": 116}, {"time": 125279, "pitch": 42, "duration": 10, "velocity": 88}, {"time": 125520, "pitch": 42, "duration": 10, "velocity": 60}, {"time": 125761, "pitch": 42, "duration": 10, "velocity": 74}, {"time": 126002, "pitch": 36, "duration": 10, "velocity": 116}, {"time": 126002, "pitch": 42, "duration": 10, "velocity": 60}, {"time": 126243, "pitch": 38, "duration": 9, "velocity": 98}, {"time": 126243, "pitch": 42, "duration": 9, "velocity": 88}, {"time": 126480, "pitch": 42, "duration": 10, "velocity": 60}, {"time": 126717, "pitch": 42, "duration": 10, "velocity": 74}, {"time": 126958, "pitch": 36, "duration": 10, "velocity": 127}, {"time": 126958, "pitch": 49, "duration": 10, "velocity": 60}, {"time": 127439, "pitch": 38, "duration": 10, "velocity": 98}, {"time": 127560, "pitch": 38, "duration": 10, "velocity": 70}, {"time": 127680, "pitch": 45, "duration": 10, "velocity": 88}, {"time": 127921, "pitch": 36, "duration": 10, "velocity": 116}, {"time": 127921, "pitch": 49, "duration": 10, "velocity": 60}, {"time": 128402, "pitch": 48, "duration": 10, "velocity": 88}, {"time": 128643, "pitch": 45, "duration": 10, "velocity": 88}, {"time": 129117, "pitch": 36, "duration": 10, "velocity": 116}, {"time": 129117, "pitch": 49, "duration": 10, "velocity": 60}, {"time": 129599, "pitch": 51, "duration": 10, "velocity": 102}, {"time": 130081, "pitch": 36, "duration": 10, "velocity": 116}, {"time": 130081, "pitch": 49, "duration": 10, "velocity": 60}, {"time": 130562, "pitch": 38, "duration": 10, "velocity": 98}, {"time": 130562, "pitch": 51, "duration": 10, "velocity": 88}, {"time": 130681, "pitch": 38, "duration": 10, "velocity": 70}, {"time": 130799, "pitch": 45, "duration": 10, "velocity": 74}, {"time": 131036, "pitch": 36, "duration": 10, "velocity": 116}, {"time": 131036, "pitch": 49, "duration": 10, "velocity": 60}, {"time": 131277, "pitch": 42, "duration": 10, "velocity": 60}, {"time": 131518, "pitch": 38, "duration": 10, "velocity": 98}, {"time": 131518, "pitch": 42, "duration": 10, "velocity": 74}, {"time": 131759, "pitch": 36, "duration": 10, "velocity": 88}, {"time": 131759, "pitch": 42, "duration": 10, "velocity": 60}, {"time": 132000, "pitch": 36, "duration": 10, "velocity": 116}, {"time": 132000, "pitch": 42, "duration": 10, "velocity": 88}, {"time": 132240, "pitch": 42, "duration": 10, "velocity": 60}, {"time": 132481, "pitch": 38, "duration": 10, "velocity": 98}, {"time": 132481, "pitch": 42, "duration": 10, "velocity": 74}, {"time": 132722, "pitch": 36, "duration": 10, "velocity": 88}, {"time": 132722, "pitch": 46, "duration": 10, "velocity": 60}, {"time": 132963, "pitch": 42, "duration": 10, "velocity": 88}, {"time": 133200, "pitch": 36, "duration": 10, "velocity": 116}, {"time": 133200, "pitch": 42, "duration": 10, "velocity": 60}, {"time": 133437, "pitch": 38, "duration": 10, "velocity": 98}, {"time": 133437, "pitch": 42, "duration": 10, "velocity": 74}, {"time": 133678, "pitch": 36, "duration": 10, "velocity": 88}, {"time": 133678, "pitch": 42, "duration": 10, "velocity": 60}, {"time": 133919, "pitch": 36, "duration": 10, "velocity": 116}, {"time": 133919, "pitch": 42, "duration": 10, "velocity": 88}, {"time": 134159, "pitch": 42, "duration": 10, "velocity": 60}, {"time": 134400, "pitch": 38, "duration": 10, "velocity": 98}, {"time": 134521, "pitch": 38, "duration": 10, "velocity": 70}, {"time": 134641, "pitch": 45, "duration": 10, "velocity": 88}, {"time": 134882, "pitch": 36, "duration": 10, "velocity": 116}, {"time": 134882, "pitch": 49, "duration": 10, "velocity": 60}, {"time": 135122, "pitch": 42, "duration": 11, "velocity": 60}, {"time": 135363, "pitch": 38, "duration": 10, "velocity": 98}, {"time": 135363, "pitch": 42, "duration": 10, "velocity": 74}, {"time": 135600, "pitch": 36, "duration": 10, "velocity": 88}, {"time": 135600, "pitch": 42, "duration": 10, "velocity": 60}, {"time": 135838, "pitch": 36, "duration": 10, "velocity": 116}, {"time": 135838, "pitch": 42, "duration": 10, "velocity": 88}, {"time": 136078, "pitch": 42, "duration": 10, "velocity": 60}, {"time": 136319, "pitch": 38, "duration": 10, "velocity": 98}, {"time": 136319, "pitch": 42, "duration": 10, "velocity": 74}, {"time": 136560, "pitch": 36, "duration": 10, "velocity": 88}, {"time": 136560, "pitch": 46, "duration": 10, "velocity": 60}, {"time": 136801, "pitch": 42, "duration": 10, "velocity": 88}, {"time": 137041, "pitch": 36, "duration": 11, "velocity": 116}, {"time": 137041, "pitch": 42, "duration": 11, "velocity": 60}, {"time": 137282, "pitch": 38, "duration": 10, "velocity": 98}, {"time": 137282, "pitch": 42, "duration": 10, "velocity": 74}, {"time": 137519, "pitch": 36, "duration": 10, "velocity": 88}, {"time": 137519, "pitch": 42, "duration": 10, "velocity": 60}, {"time": 137757, "pitch": 36, "duration": 10, "velocity": 116}, {"time": 137757, "pitch": 42, "duration": 10, "velocity": 88}, {"time": 137997, "pitch": 42, "duration": 10, "velocity": 60}, {"time": 138238, "pitch": 38, "duration": 10, "velocity": 98}, {"time": 138358, "pitch": 38, "duration": 11, "velocity": 70}, {"time": 138479, "pitch": 45, "duration": 10, "velocity": 88}, {"time": 138720, "pitch": 36, "duration": 10, "velocity": 116}, {"time": 138720, "pitch": 49, "duration": 10, "velocity": 60}, {"time": 138960, "pitch": 42, "duration": 10, "velocity": 60}, {"time": 139201, "pitch": 38, "duration": 10, "velocity": 98}, {"time": 139201, "pitch": 42, "duration": 10, "velocity": 74}, {"time": 139442, "pitch": 36, "duration": 10, "velocity": 88}, {"time": 139442, "pitch": 42, "duration": 10, "velocity": 60}, {"time": 139683, "pitch": 36, "duration": 10, "velocity": 116}, {"time": 139683, "pitch": 42, "duration": 10, "velocity": 88}, {"time": 139920, "pitch": 42, "duration": 10, "velocity": 60}, {"time": 140157, "pitch": 38, "duration": 10, "velocity": 98}, {"time": 140157, "pitch": 42, "duration": 10, "velocity": 74}, {"time": 140398, "pitch": 42, "duration": 10, "velocity": 60}, {"time": 140639, "pitch": 36, "duration": 10, "velocity": 116}, {"time": 140639, "pitch": 42, "duration": 10, "velocity": 88}, {"time": 140879, "pitch": 42, "duration": 10, "velocity": 60}, {"time": 141120, "pitch": 38, "duration": 10, "velocity": 98}, {"time": 141120, "pitch": 42, "duration": 10, "velocity": 74}, {"time": 141361, "pitch": 36, "duration": 10, "velocity": 88}, {"time": 141361, "pitch": 42, "duration": 10, "velocity": 60}, {"time": 141602, "pitch": 36, "duration": 10, "velocity": 116}, {"time": 141602, "pitch": 42, "duration": 10, "velocity": 88}, {"time": 141843, "pitch": 42, "duration": 10, "velocity": 60}, {"time": 142083, "pitch": 38, "duration": 10, "velocity": 98}, {"time": 142083, "pitch": 42, "duration": 10, "velocity": 74}, {"time": 142321, "pitch": 42, "duration": 9, "velocity": 60}, {"time": 142558, "pitch": 36, "duration": 10, "velocity": 116}, {"time": 142558, "pitch": 42, "duration": 10, "velocity": 88}, {"time": 142798, "pitch": 42, "duration": 10, "velocity": 60}, {"time": 143039, "pitch": 38, "duration": 10, "velocity": 98}, {"time": 143039, "pitch": 42, "duration": 10, "velocity": 74}, {"time": 143280, "pitch": 36, "duration": 10, "velocity": 88}, {"time": 143280, "pitch": 42, "duration": 10, "velocity": 60}, {"time": 143521, "pitch": 36, "duration": 10, "velocity": 116}, {"time": 143521, "pitch": 42, "duration": 10, "velocity": 88}, {"time": 143762, "pitch": 42, "duration": 10, "velocity": 60}, {"time": 144002, "pitch": 38, "duration": 10, "velocity": 98}, {"time": 144002, "pitch": 42, "duration": 10, "velocity": 74}, {"time": 144240, "pitch": 42, "duration": 9, "velocity": 60}, {"time": 144477, "pitch": 36, "duration": 10, "velocity": 116}, {"time": 144477, "pitch": 42, "duration": 10, "velocity": 88}, {"time": 144717, "pitch": 42, "duration": 10, "velocity": 60}, {"time": 144958, "pitch": 38, "duration": 10, "velocity": 98}, {"time": 144958, "pitch": 42, "duration": 10, "velocity": 74}, {"time": 145199, "pitch": 36, "duration": 10, "velocity": 88}, {"time": 145199, "pitch": 46, "duration": 10, "velocity": 60}, {"time": 145440, "pitch": 42, "duration": 10, "velocity": 88}, {"time": 145681, "pitch": 36, "duration": 10, "velocity": 88}, {"time": 145681, "pitch": 49, "duration": 10, "velocity": 60}, {"time": 145921, "pitch": 38, "duration": 10, "velocity": 98}, {"time": 145921, "pitch": 48, "duration": 10, "velocity": 88}, {"time": 146162, "pitch": 45, "duration": 10, "velocity": 74}, {"time": 146403, "pitch": 36, "duration": 10, "velocity": 116}, {"time": 146403, "pitch": 51, "duration": 10, "velocity": 102}, {"time": 146640, "pitch": 42, "duration": 10, "velocity": 60}, {"time": 146877, "pitch": 38, "duration": 10, "velocity": 98}, {"time": 146877, "pitch": 42, "duration": 10, "velocity": 74}, {"time": 147118, "pitch": 36, "duration": 10, "velocity": 88}, {"time": 147118, "pitch": 42, "duration": 10, "velocity": 60}, {"time": 147359, "pitch": 36, "duration": 10, "velocity": 116}, {"time": 147359, "pitch": 42, "duration": 10, "velocity": 88}, {"time": 147600, "pitch": 42, "duration": 10, "velocity": 60}, {"time": 147840, "pitch": 38, "duration": 10, "velocity": 98}, {"time": 147840, "pitch": 42, "duration": 10, "velocity": 74}, {"time": 148081, "pitch": 36, "duration": 10, "velocity": 88}, {"time": 148081, "pitch": 42, "duration": 10, "velocity": 60}, {"time": 148322, "pitch": 42, "duration": 10, "velocity": 88}, {"time": 148563, "pitch": 36, "duration": 10, "velocity": 116}, {"time": 148563, "pitch": 42, "duration": 10, "velocity": 60}, {"time": 148804, "pitch": 38, "duration": 9, "velocity": 98}, {"time": 148804, "pitch": 42, "duration": 9, "velocity": 74}, {"time": 149041, "pitch": 36, "duration": 10, "velocity": 88}, {"time": 149041, "pitch": 42, "duration": 10, "velocity": 60}, {"time": 149278, "pitch": 36, "duration": 10, "velocity": 116}, {"time": 149278, "pitch": 42, "duration": 10, "velocity": 88}, {"time": 149519, "pitch": 42, "duration": 10, "velocity": 60}, {"time": 149759, "pitch": 38, "duration": 10, "velocity": 98}, {"time": 149880, "pitch": 38, "duration": 10, "velocity": 70}, {"time": 150000, "pitch": 45, "duration": 10, "velocity": 88}, {"time": 150241, "pitch": 36, "duration": 10, "velocity": 116}, {"time": 150241, "pitch": 51, "duration": 10, "velocity": 102}, {"time": 150482, "pitch": 42, "duration": 10, "velocity": 60}, {"time": 150723, "pitch": 38, "duration": 9, "velocity": 98}, {"time": 150723, "pitch": 42, "duration": 9, "velocity": 74}, {"time": 150960, "pitch": 36, "duration": 10, "velocity": 88}, {"time": 150960, "pitch": 42, "duration": 10, "velocity": 60}, {"time": 151197, "pitch": 36, "duration": 10, "velocity": 116}, {"time": 151197, "pitch": 42, "duration": 10, "velocity": 88}, {"time": 151438, "pitch": 42, "duration": 10, "velocity": 60}, {"time": 151678, "pitch": 38, "duration": 10, "velocity": 98}, {"time": 151678, "pitch": 42, "duration": 10, "velocity": 74}, {"time": 151919, "pitch": 36, "duration": 10, "velocity": 88}, {"time": 151919, "pitch": 42, "duration": 10, "velocity": 60}, {"time": 152160, "pitch": 42, "duration": 10, "velocity": 88}, {"time": 152401, "pitch": 36, "duration": 10, "velocity": 116}, {"time": 152401, "pitch": 42, "duration": 10, "velocity": 60}, {"time": 152642, "pitch": 38, "duration": 10, "velocity": 98}, {"time": 152642, "pitch": 42, "duration": 10, "velocity": 74}, {"time": 152882, "pitch": 36, "duration": 10, "velocity": 88}, {"time": 152882, "pitch": 42, "duration": 10, "velocity": 60}, {"time": 153123, "pitch": 36, "duration": 10, "velocity": 116}, {"time": 153123, "pitch": 42, "duration": 10, "velocity": 88}, {"time": 153360, "pitch": 42, "duration": 10, "velocity": 60}, {"time": 153597, "pitch": 38, "duration": 10, "velocity": 98}, {"time": 153718, "pitch": 38, "duration": 10, "velocity": 70}, {"time": 153838, "pitch": 45, "duration": 10, "velocity": 88}, {"time": 154079, "pitch": 36, "duration": 10, "velocity": 116}, {"time": 154079, "pitch": 49, "duration": 10, "velocity": 60}, {"time": 154320, "pitch": 42, "duration": 10, "velocity": 60}, {"time": 154561, "pitch": 38, "duration": 10, "velocity": 98}, {"time": 154561, "pitch": 42, "duration": 10, "velocity": 74}, {"time": 154801, "pitch": 36, "duration": 10, "velocity": 88}, {"time": 154801, "pitch": 42, "duration": 10, "velocity": 60}, {"time": 155042, "pitch": 36, "duration": 10, "velocity": 116}, {"time": 155042, "pitch": 42, "duration": 10, "velocity": 88}, {"time": 155279, "pitch": 42, "duration": 10, "velocity": 60}, {"time": 155516, "pitch": 38, "duration": 10, "velocity": 98}, {"time": 155516, "pitch": 42, "duration": 10, "velocity": 74}, {"time": 155757, "pitch": 42, "duration": 10, "velocity": 60}, {"time": 155998, "pitch": 36, "duration": 10, "velocity": 116}, {"time": 155998, "pitch": 42, "duration": 10, "velocity": 88}, {"time": 156239, "pitch": 42, "duration": 10, "velocity": 60}, {"time": 156480, "pitch": 38, "duration": 10, "velocity": 98}, {"time": 156480, "pitch": 42, "duration": 10, "velocity": 74}, {"time": 156720, "pitch": 36, "duration": 10, "velocity": 88}, {"time": 156720, "pitch": 42, "duration": 10, "velocity": 60}, {"time": 156961, "pitch": 36, "duration": 10, "velocity": 116}, {"time": 156961, "pitch": 42, "duration": 10, "velocity": 88}, {"time": 157202, "pitch": 42, "duration": 10, "velocity": 60}, {"time": 157443, "pitch": 38, "duration": 10, "velocity": 98}, {"time": 157443, "pitch": 42, "duration": 10, "velocity": 74}, {"time": 157680, "pitch": 42, "duration": 10, "velocity": 60}, {"time": 157917, "pitch": 36, "duration": 10, "velocity": 116}, {"time": 157917, "pitch": 42, "duration": 10, "velocity": 88}, {"time": 158158, "pitch": 42, "duration": 10, "velocity": 60}, {"time": 158398, "pitch": 38, "duration": 11, "velocity": 98}, {"time": 158398, "pitch": 42, "duration": 11, "velocity": 74}, {"time": 158639, "pitch": 36, "duration": 10, "velocity": 88}, {"time": 158639, "pitch": 42, "duration": 10, "velocity": 60}, {"time": 158880, "pitch": 36, "duration": 10, "velocity": 116}, {"time": 158880, "pitch": 42, "duration": 10, "velocity": 88}, {"time": 159121, "pitch": 42, "duration": 10, "velocity": 60}, {"time": 159362, "pitch": 38, "duration": 10, "velocity": 98}, {"time": 159362, "pitch": 42, "duration": 10, "velocity": 74}, {"time": 159602, "pitch": 42, "duration": 10, "velocity": 60}, {"time": 159843, "pitch": 36, "duration": 10, "velocity": 116}, {"time": 159843, "pitch": 42, "duration": 10, "velocity": 88}, {"time": 160080, "pitch": 42, "duration": 10, "velocity": 60}, {"time": 160318, "pitch": 38, "duration": 10, "velocity": 98}, {"time": 160318, "pitch": 42, "duration": 10, "velocity": 74}, {"time": 160558, "pitch": 36, "duration": 10, "velocity": 88}, {"time": 160558, "pitch": 46, "duration": 10, "velocity": 60}, {"time": 160799, "pitch": 42, "duration": 10, "velocity": 88}, {"time": 161040, "pitch": 36, "duration": 10, "velocity": 116}, {"time": 161040, "pitch": 46, "duration": 10, "velocity": 74}, {"time": 161281, "pitch": 42, "duration": 10, "velocity": 74}, {"time": 161521, "pitch": 36, "duration": 10, "velocity": 116}, {"time": 161521, "pitch": 42, "duration": 10, "velocity": 88}, {"time": 161521, "pitch": 49, "duration": 10, "velocity": 74}, {"time": 162718, "pitch": 38, "duration": 10, "velocity": 102}, {"time": 162959, "pitch": 48, "duration": 10, "velocity": 92}, {"time": 163200, "pitch": 45, "duration": 10, "velocity": 92}, {"time": 163440, "pitch": 37, "duration": 10, "velocity": 92}, {"time": 163440, "pitch": 41, "duration": 10, "velocity": 92}, {"time": 163681, "pitch": 36, "duration": 10, "velocity": 116}, {"time": 163681, "pitch": 51, "duration": 10, "velocity": 116}, {"time": 164163, "pitch": 38, "duration": 10, "velocity": 102}, {"time": 164637, "pitch": 36, "duration": 10, "velocity": 116}, {"time": 164637, "pitch": 49, "duration": 10, "velocity": 88}, {"time": 164998, "pitch": 38, "duration": 10, "velocity": 74}, {"time": 165119, "pitch": 38, "duration": 10, "velocity": 102}, {"time": 165359, "pitch": 48, "duration": 10, "velocity": 92}, {"time": 165600, "pitch": 36, "duration": 10, "velocity": 116}, {"time": 165600, "pitch": 49, "duration": 10, "velocity": 60}, {"time": 165841, "pitch": 42, "duration": 10, "velocity": 60}, {"time": 166082, "pitch": 38, "duration": 10, "velocity": 98}, {"time": 166082, "pitch": 42, "duration": 10, "velocity": 74}, {"time": 166323, "pitch": 36, "duration": 10, "velocity": 88}, {"time": 166323, "pitch": 42, "duration": 10, "velocity": 60}, {"time": 166563, "pitch": 36, "duration": 10, "velocity": 116}, {"time": 166563, "pitch": 42, "duration": 10, "velocity": 88}, {"time": 166800, "pitch": 42, "duration": 10, "velocity": 60}, {"time": 167038, "pitch": 38, "duration": 10, "velocity": 98}, {"time": 167038, "pitch": 42, "duration": 10, "velocity": 74}, {"time": 167278, "pitch": 36, "duration": 10, "velocity": 88}, {"time": 167278, "pitch": 46, "duration": 10, "velocity": 60}, {"time": 167519, "pitch": 42, "duration": 10, "velocity": 88}, {"time": 167760, "pitch": 36, "duration": 10, "velocity": 116}, {"time": 167760, "pitch": 42, "duration": 10, "velocity": 60}, {"time": 168001, "pitch": 38, "duration": 10, "velocity": 98}, {"time": 168001, "pitch": 42, "duration": 10, "velocity": 74}, {"time": 168242, "pitch": 36, "duration": 10, "velocity": 88}, {"time": 168242, "pitch": 42, "duration": 10, "velocity": 60}, {"time": 168482, "pitch": 36, "duration": 10, "velocity": 116}, {"time": 168482, "pitch": 42, "duration": 10, "velocity": 88}, {"time": 168719, "pitch": 42, "duration": 10, "velocity": 60}, {"time": 168957, "pitch": 38, "duration": 10, "velocity": 98}, {"time": 169077, "pitch": 38, "duration": 10, "velocity": 70}, {"time": 169197, "pitch": 45, "duration": 10, "velocity": 88}, {"time": 169438, "pitch": 36, "duration": 10, "velocity": 116}, {"time": 169438, "pitch": 49, "duration": 10, "velocity": 60}, {"time": 169679, "pitch": 42, "duration": 10, "velocity": 60}, {"time": 169920, "pitch": 38, "duration": 10, "velocity": 98}, {"time": 169920, "pitch": 42, "duration": 10, "velocity": 74}, {"time": 170161, "pitch": 36, "duration": 10, "velocity": 88}, {"time": 170161, "pitch": 42, "duration": 10, "velocity": 60}, {"time": 170401, "pitch": 36, "duration": 10, "velocity": 116}, {"time": 170401, "pitch": 42, "duration": 10, "velocity": 88}, {"time": 170642, "pitch": 42, "duration": 10, "velocity": 60}, {"time": 170883, "pitch": 38, "duration": 10, "velocity": 98}, {"time": 170883, "pitch": 42, "duration": 10, "velocity": 74}, {"time": 171120, "pitch": 36, "duration": 10, "velocity": 88}, {"time": 171120, "pitch": 46, "duration": 10, "velocity": 60}, {"time": 171357, "pitch": 42, "duration": 10, "velocity": 88}, {"time": 171598, "pitch": 36, "duration": 10, "velocity": 116}, {"time": 171598, "pitch": 42, "duration": 10, "velocity": 60}, {"time": 171839, "pitch": 38, "duration": 10, "velocity": 98}, {"time": 171839, "pitch": 42, "duration": 10, "velocity": 74}, {"time": 172080, "pitch": 36, "duration": 10, "velocity": 88}, {"time": 172080, "pitch": 42, "duration": 10, "velocity": 60}, {"time": 172320, "pitch": 36, "duration": 10, "velocity": 116}, {"time": 172320, "pitch": 42, "duration": 10, "velocity": 88}, {"time": 172561, "pitch": 42, "duration": 10, "velocity": 60}, {"time": 172802, "pitch": 38, "duration": 10, "velocity": 98}, {"time": 172922, "pitch": 38, "duration": 10, "velocity": 70}, {"time": 173043, "pitch": 45, "duration": 10, "velocity": 88}, {"time": 173283, "pitch": 36, "duration": 10, "velocity": 116}, {"time": 173283, "pitch": 49, "duration": 10, "velocity": 60}, {"time": 173521, "pitch": 42, "duration": 10, "velocity": 60}, {"time": 173758, "pitch": 38, "duration": 10, "velocity": 98}, {"time": 173758, "pitch": 42, "duration": 10, "velocity": 74}, {"time": 173999, "pitch": 36, "duration": 10, "velocity": 88}, {"time": 173999, "pitch": 42, "duration": 10, "velocity": 60}, {"time": 174239, "pitch": 36, "duration": 10, "velocity": 116}, {"time": 174239, "pitch": 42, "duration": 10, "velocity": 88}, {"time": 174480, "pitch": 42, "duration": 10, "velocity": 60}, {"time": 174721, "pitch": 38, "duration": 10, "velocity": 98}, {"time": 174721, "pitch": 42, "duration": 10, "velocity": 74}, {"time": 174962, "pitch": 42, "duration": 10, "velocity": 60}, {"time": 175202, "pitch": 36, "duration": 10, "velocity": 116}, {"time": 175202, "pitch": 42, "duration": 10, "velocity": 88}, {"time": 175440, "pitch": 42, "duration": 10, "velocity": 60}, {"time": 175677, "pitch": 38, "duration": 10, "velocity": 98}, {"time": 175677, "pitch": 42, "duration": 10, "velocity": 74}, {"time": 175918, "pitch": 36, "duration": 10, "velocity": 88}, {"time": 175918, "pitch": 42, "duration": 10, "velocity": 60}, {"time": 176158, "pitch": 36, "duration": 10, "velocity": 116}, {"time": 176158, "pitch": 42, "duration": 10, "velocity": 88}, {"time": 176399, "pitch": 42, "duration": 10, "velocity": 60}, {"time": 176640, "pitch": 38, "duration": 10, "velocity": 98}, {"time": 176640, "pitch": 42, "duration": 10, "velocity": 74}, {"time": 176881, "pitch": 42, "duration": 10, "velocity": 60}, {"time": 177122, "pitch": 36, "duration": 10, "velocity": 116}, {"time": 177122, "pitch": 42, "duration": 10, "velocity": 88}, {"time": 177362, "pitch": 42, "duration": 10, "velocity": 60}, {"time": 177603, "pitch": 38, "duration": 10, "velocity": 98}, {"time": 177603, "pitch": 42, "duration": 10, "velocity": 74}, {"time": 177840, "pitch": 36, "duration": 10, "velocity": 88}, {"time": 177840, "pitch": 42, "duration": 10, "velocity": 60}, {"time": 178077, "pitch": 36, "duration": 10, "velocity": 116}, {"time": 178077, "pitch": 42, "duration": 10, "velocity": 88}, {"time": 178318, "pitch": 42, "duration": 10, "velocity": 60}, {"time": 178559, "pitch": 38, "duration": 10, "velocity": 98}, {"time": 178559, "pitch": 42, "duration": 10, "velocity": 74}, {"time": 178800, "pitch": 42, "duration": 10, "velocity": 60}, {"time": 179040, "pitch": 36, "duration": 11, "velocity": 116}, {"time": 179040, "pitch": 42, "duration": 11, "velocity": 88}, {"time": 179281, "pitch": 42, "duration": 10, "velocity": 60}, {"time": 179522, "pitch": 38, "duration": 10, "velocity": 98}, {"time": 179522, "pitch": 42, "duration": 10, "velocity": 74}, {"time": 179763, "pitch": 36, "duration": 10, "velocity": 88}, {"time": 179763, "pitch": 46, "duration": 10, "velocity": 60}, {"time": 180004, "pitch": 42, "duration": 9, "velocity": 88}, {"time": 180241, "pitch": 36, "duration": 10, "velocity": 88}, {"time": 180241, "pitch": 49, "duration": 10, "velocity": 60}, {"time": 180478, "pitch": 38, "duration": 10, "velocity": 98}, {"time": 180478, "pitch": 48, "duration": 10, "velocity": 88}, {"time": 180719, "pitch": 45, "duration": 10, "velocity": 74}, {"time": 180959, "pitch": 36, "duration": 11, "velocity": 116}, {"time": 180959, "pitch": 51, "duration": 11, "velocity": 102}, {"time": 181200, "pitch": 42, "duration": 10, "velocity": 60}, {"time": 181441, "pitch": 38, "duration": 10, "velocity": 98}, {"time": 181441, "pitch": 42, "duration": 10, "velocity": 74}, {"time": 181682, "pitch": 36, "duration": 10, "velocity": 88}, {"time": 181682, "pitch": 42, "duration": 10, "velocity": 60}, {"time": 181923, "pitch": 36, "duration": 9, "velocity": 116}, {"time": 181923, "pitch": 42, "duration": 9, "velocity": 88}, {"time": 182160, "pitch": 42, "duration": 10, "velocity": 60}, {"time": 182397, "pitch": 38, "duration": 10, "velocity": 98}, {"time": 182397, "pitch": 42, "duration": 10, "velocity": 74}, {"time": 182638, "pitch": 36, "duration": 10, "velocity": 88}, {"time": 182638, "pitch": 42, "duration": 10, "velocity": 60}, {"time": 182878, "pitch": 42, "duration": 10, "velocity": 88}, {"time": 183119, "pitch": 36, "duration": 10, "velocity": 116}, {"time": 183119, "pitch": 42, "duration": 10, "velocity": 60}, {"time": 183360, "pitch": 38, "duration": 10, "velocity": 98}, {"time": 183360, "pitch": 42, "duration": 10, "velocity": 74}, {"time": 183601, "pitch": 36, "duration": 10, "velocity": 88}, {"time": 183601, "pitch": 42, "duration": 10, "velocity": 60}, {"time": 183842, "pitch": 36, "duration": 10, "velocity": 116}, {"time": 183842, "pitch": 42, "duration": 10, "velocity": 88}, {"time": 184082, "pitch": 42, "duration": 10, "velocity": 60}, {"time": 184323, "pitch": 38, "duration": 10, "velocity": 98}, {"time": 184442, "pitch": 38, "duration": 10, "velocity": 70}, {"time": 184560, "pitch": 45, "duration": 10, "velocity": 88}, {"time": 184797, "pitch": 36, "duration": 10, "velocity": 116}, {"time": 184797, "pitch": 51, "duration": 10, "velocity": 102}, {"time": 185038, "pitch": 42, "duration": 10, "velocity": 60}, {"time": 185279, "pitch": 38, "duration": 10, "velocity": 98}, {"time": 185279, "pitch": 42, "duration": 10, "velocity": 74}, {"time": 185520, "pitch": 36, "duration": 10, "velocity": 88}, {"time": 185520, "pitch": 42, "duration": 10, "velocity": 60}, {"time": 185761, "pitch": 36, "duration": 10, "velocity": 116}, {"time": 185761, "pitch": 42, "duration": 10, "velocity": 88}, {"time": 186001, "pitch": 42, "duration": 10, "velocity": 60}, {"time": 186242, "pitch": 38, "duration": 10, "velocity": 98}, {"time": 186242, "pitch": 42, "duration": 10, "velocity": 74}, {"time": 186479, "pitch": 36, "duration": 10, "velocity": 88}, {"time": 186479, "pitch": 42, "duration": 10, "velocity": 60}, {"time": 186716, "pitch": 42, "duration": 10, "velocity": 88}, {"time": 186957, "pitch": 36, "duration": 10, "velocity": 116}, {"time": 186957, "pitch": 42, "duration": 10, "velocity": 60}, {"time": 187198, "pitch": 38, "duration": 10, "velocity": 98}, {"time": 187198, "pitch": 42, "duration": 10, "velocity": 74}, {"time": 187439, "pitch": 36, "duration": 10, "velocity": 88}, {"time": 187439, "pitch": 42, "duration": 10, "velocity": 60}, {"time": 187680, "pitch": 36, "duration": 10, "velocity": 116}, {"time": 187680, "pitch": 42, "duration": 10, "velocity": 88}, {"time": 187920, "pitch": 42, "duration": 10, "velocity": 60}, {"time": 188161, "pitch": 38, "duration": 10, "velocity": 98}, {"time": 188282, "pitch": 38, "duration": 10, "velocity": 70}, {"time": 188402, "pitch": 45, "duration": 10, "velocity": 88}, {"time": 188643, "pitch": 36, "duration": 10, "velocity": 116}, {"time": 188643, "pitch": 49, "duration": 10, "velocity": 60}, {"time": 188880, "pitch": 42, "duration": 10, "velocity": 60}, {"time": 189117, "pitch": 38, "duration": 10, "velocity": 98}, {"time": 189117, "pitch": 42, "duration": 10, "velocity": 74}, {"time": 189358, "pitch": 36, "duration": 10, "velocity": 88}, {"time": 189358, "pitch": 42, "duration": 10, "velocity": 60}, {"time": 189599, "pitch": 36, "duration": 10, "velocity": 116}, {"time": 189599, "pitch": 42, "duration": 10, "velocity": 88}, {"time": 189839, "pitch": 42, "duration": 10, "velocity": 60}, {"time": 190080, "pitch": 38, "duration": 10, "velocity": 98}, {"time": 190080, "pitch": 42, "duration": 10, "velocity": 74}, {"time": 190321, "pitch": 42, "duration": 10, "velocity": 60}, {"time": 190562, "pitch": 36, "duration": 10, "velocity": 116}, {"time": 190562, "pitch": 42, "duration": 10, "velocity": 88}, {"time": 190803, "pitch": 42, "duration": 10, "velocity": 60}, {"time": 191043, "pitch": 38, "duration": 10, "velocity": 98}, {"time": 191043, "pitch": 42, "duration": 10, "velocity": 74}, {"time": 191280, "pitch": 36, "duration": 10, "velocity": 88}, {"time": 191280, "pitch": 42, "duration": 10, "velocity": 60}, {"time": 191518, "pitch": 36, "duration": 10, "velocity": 116}, {"time": 191518, "pitch": 42, "duration": 10, "velocity": 88}, {"time": 191758, "pitch": 42, "duration": 10, "velocity": 60}, {"time": 191999, "pitch": 38, "duration": 10, "velocity": 98}, {"time": 191999, "pitch": 42, "duration": 10, "velocity": 74}, {"time": 192240, "pitch": 42, "duration": 10, "velocity": 60}, {"time": 192481, "pitch": 36, "duration": 10, "velocity": 116}, {"time": 192481, "pitch": 42, "duration": 10, "velocity": 88}, {"time": 192722, "pitch": 42, "duration": 10, "velocity": 60}, {"time": 192962, "pitch": 38, "duration": 10, "velocity": 98}, {"time": 192962, "pitch": 42, "duration": 10, "velocity": 74}, {"time": 193199, "pitch": 36, "duration": 10, "velocity": 88}, {"time": 193199, "pitch": 42, "duration": 10, "velocity": 60}, {"time": 193437, "pitch": 36, "duration": 10, "velocity": 116}, {"time": 193437, "pitch": 42, "duration": 10, "velocity": 88}, {"time": 193677, "pitch": 42, "duration": 10, "velocity": 60}, {"time": 193918, "pitch": 38, "duration": 10, "velocity": 98}, {"time": 193918, "pitch": 42, "duration": 10, "velocity": 74}, {"time": 194159, "pitch": 42, "duration": 10, "velocity": 60}, {"time": 194400, "pitch": 36, "duration": 10, "velocity": 116}, {"time": 194400, "pitch": 42, "duration": 10, "velocity": 88}, {"time": 194641, "pitch": 42, "duration": 10, "velocity": 60}, {"time": 194881, "pitch": 38, "duration": 10, "velocity": 98}, {"time": 194881, "pitch": 42, "duration": 10, "velocity": 74}, {"time": 195122, "pitch": 36, "duration": 10, "velocity": 88}, {"time": 195122, "pitch": 46, "duration": 10, "velocity": 60}, {"time": 195363, "pitch": 42, "duration": 10, "velocity": 88}, {"time": 195600, "pitch": 36, "duration": 10, "velocity": 116}, {"time": 195600, "pitch": 46, "duration": 10, "velocity": 74}, {"time": 195837, "pitch": 42, "duration": 10, "velocity": 74}, {"time": 196078, "pitch": 36, "duration": 10, "velocity": 116}, {"time": 196078, "pitch": 49, "duration": 10, "velocity": 88}], "annotations": [{"time": 218, "annotation": {"number": 0, "value": 0}, "group": "control_change"}, {"time": 240, "annotation": {"number": 32, "value": 0}, "group": "control_change"}, {"time": 283, "annotation": {"number": 7, "value": 120}, "group": "control_change"}, {"time": 305, "annotation": {"number": 11, "value": 110}, "group": "control_change"}, {"time": 327, "annotation": {"number": 91, "value": 50}, "group": "control_change"}, {"time": 349, "annotation": {"number": 101, "value": 127}, "group": "control_change"}, {"time": 370, "annotation": {"number": 100, "value": 127}, "group": "control_change"}]}, {"program": 0, "is_drum": false, "name": "E.GT 2", "annotations": [{"time": 218, "annotation": {"number": 0, "value": 0}, "group": "control_change"}, {"time": 240, "annotation": {"number": 32, "value": 0}, "group": "control_change"}]}, {"program": 27, "is_drum": false, "name": "E.GT 2", "notes": [{"time": 16320, "pitch": 60, "duration": 100, "velocity": 93}, {"time": 16320, "pitch": 64, "duration": 100, "velocity": 103}, {"time": 16330, "pitch": 67, "duration": 100, "velocity": 108}, {"time": 17042, "pitch": 57, "duration": 101, "velocity": 93}, {"time": 17042, "pitch": 60, "duration": 101, "velocity": 103}, {"time": 17052, "pitch": 67, "duration": 101, "velocity": 108}, {"time": 18239, "pitch": 59, "duration": 100, "velocity": 93}, {"time": 18239, "pitch": 62, "duration": 100, "velocity": 103}, {"time": 18249, "pitch": 67, "duration": 100, "velocity": 108}, {"time": 18961, "pitch": 57, "duration": 101, "velocity": 93}, {"time": 18961, "pitch": 60, "duration": 101, "velocity": 103}, {"time": 18971, "pitch": 67, "duration": 101, "velocity": 108}, {"time": 20158, "pitch": 57, "duration": 100, "velocity": 93}, {"time": 20158, "pitch": 60, "duration": 100, "velocity": 103}, {"time": 20168, "pitch": 65, "duration": 100, "velocity": 108}, {"time": 20880, "pitch": 57, "duration": 101, "velocity": 93}, {"time": 20880, "pitch": 60, "duration": 101, "velocity": 103}, {"time": 20890, "pitch": 65, "duration": 101, "velocity": 108}, {"time": 22077, "pitch": 57, "duration": 100, "velocity": 93}, {"time": 22077, "pitch": 60, "duration": 100, "velocity": 103}, {"time": 22087, "pitch": 65, "duration": 100, "velocity": 108}, {"time": 22799, "pitch": 59, "duration": 101, "velocity": 93}, {"time": 22799, "pitch": 62, "duration": 101, "velocity": 103}, {"time": 22809, "pitch": 67, "duration": 101, "velocity": 108}, {"time": 24003, "pitch": 60, "duration": 99, "velocity": 93}, {"time": 24003, "pitch": 64, "duration": 99, "velocity": 103}, {"time": 24013, "pitch": 67, "duration": 99, "velocity": 108}, {"time": 24718, "pitch": 57, "duration": 100, "velocity": 93}, {"time": 24718, "pitch": 60, "duration": 100, "velocity": 103}, {"time": 24728, "pitch": 67, "duration": 101, "velocity": 108}, {"time": 25922, "pitch": 59, "duration": 99, "velocity": 93}, {"time": 25922, "pitch": 62, "duration": 99, "velocity": 103}, {"time": 25932, "pitch": 67, "duration": 99, "velocity": 108}, {"time": 26637, "pitch": 57, "duration": 100, "velocity": 93}, {"time": 26637, "pitch": 60, "duration": 100, "velocity": 103}, {"time": 26647, "pitch": 67, "duration": 101, "velocity": 108}, {"time": 27841, "pitch": 57, "duration": 100, "velocity": 93}, {"time": 27841, "pitch": 60, "duration": 100, "velocity": 103}, {"time": 27851, "pitch": 65, "duration": 100, "velocity": 108}, {"time": 28560, "pitch": 57, "duration": 99, "velocity": 93}, {"time": 28560, "pitch": 60, "duration": 99, "velocity": 103}, {"time": 28570, "pitch": 65, "duration": 99, "velocity": 108}, {"time": 29760, "pitch": 57, "duration": 100, "velocity": 93}, {"time": 29760, "pitch": 60, "duration": 100, "velocity": 103}, {"time": 29770, "pitch": 65, "duration": 100, "velocity": 108}, {"time": 30482, "pitch": 59, "duration": 101, "velocity": 93}, {"time": 30482, "pitch": 62, "duration": 101, "velocity": 103}, {"time": 30493, "pitch": 67, "duration": 100, "velocity": 108}, {"time": 31198, "pitch": 40, "duration": 1899, "velocity": 100}, {"time": 31438, "pitch": 55, "duration": 994, "velocity": 90}, {"time": 31679, "pitch": 62, "duration": 1398, "velocity": 100}, {"time": 31920, "pitch": 59, "duration": 1177, "velocity": 105}, {"time": 32401, "pitch": 64, "duration": 716, "velocity": 110}, {"time": 33117, "pitch": 57, "duration": 1565, "velocity": 99}, {"time": 33357, "pitch": 60, "duration": 1274, "velocity": 100}, {"time": 33598, "pitch": 67, "duration": 1074, "velocity": 110}, {"time": 33839, "pitch": 64, "duration": 813, "velocity": 100}, {"time": 34802, "pitch": 57, "duration": 916, "velocity": 93}, {"time": 34802, "pitch": 60, "duration": 916, "velocity": 80}, {"time": 34802, "pitch": 62, "duration": 916, "velocity": 78}, {"time": 34802, "pitch": 65, "duration": 916, "velocity": 107}, {"time": 35758, "pitch": 55, "duration": 923, "velocity": 94}, {"time": 35758, "pitch": 60, "duration": 923, "velocity": 93}, {"time": 35758, "pitch": 62, "duration": 923, "velocity": 81}, {"time": 35758, "pitch": 65, "duration": 923, "velocity": 107}, {"time": 36721, "pitch": 55, "duration": 462, "velocity": 94}, {"time": 36721, "pitch": 59, "duration": 522, "velocity": 83}, {"time": 36721, "pitch": 60, "duration": 522, "velocity": 83}, {"time": 36721, "pitch": 64, "duration": 920, "velocity": 106}, {"time": 37203, "pitch": 55, "duration": 408, "velocity": 82}, {"time": 37443, "pitch": 60, "duration": 415, "velocity": 92}, {"time": 37681, "pitch": 64, "duration": 197, "velocity": 85}, {"time": 37918, "pitch": 56, "duration": 371, "velocity": 75}, {"time": 37918, "pitch": 59, "duration": 371, "velocity": 86}, {"time": 37918, "pitch": 62, "duration": 361, "velocity": 69}, {"time": 37918, "pitch": 65, "duration": 361, "velocity": 93}, {"time": 38399, "pitch": 56, "duration": 392, "velocity": 75}, {"time": 38399, "pitch": 59, "duration": 392, "velocity": 72}, {"time": 38399, "pitch": 62, "duration": 412, "velocity": 78}, {"time": 38399, "pitch": 64, "duration": 402, "velocity": 92}, {"time": 38881, "pitch": 45, "duration": 916, "velocity": 100}, {"time": 39122, "pitch": 55, "duration": 695, "velocity": 90}, {"time": 39362, "pitch": 60, "duration": 475, "velocity": 110}, {"time": 39600, "pitch": 64, "duration": 237, "velocity": 100}, {"time": 39837, "pitch": 58, "duration": 903, "velocity": 100}, {"time": 40077, "pitch": 60, "duration": 482, "velocity": 90}, {"time": 40318, "pitch": 64, "duration": 452, "velocity": 108}, {"time": 40559, "pitch": 60, "duration": 221, "velocity": 98}, {"time": 40800, "pitch": 53, "duration": 702, "velocity": 97}, {"time": 41041, "pitch": 57, "duration": 481, "velocity": 100}, {"time": 41281, "pitch": 60, "duration": 221, "velocity": 91}, {"time": 41522, "pitch": 50, "duration": 201, "velocity": 94}, {"time": 41522, "pitch": 55, "duration": 201, "velocity": 90}, {"time": 41522, "pitch": 59, "duration": 201, "velocity": 85}, {"time": 41522, "pitch": 64, "duration": 201, "velocity": 101}, {"time": 42000, "pitch": 50, "duration": 679, "velocity": 94}, {"time": 42000, "pitch": 57, "duration": 679, "velocity": 92}, {"time": 42000, "pitch": 60, "duration": 679, "velocity": 95}, {"time": 42000, "pitch": 65, "duration": 679, "velocity": 97}, {"time": 42719, "pitch": 46, "duration": 1204, "velocity": 100}, {"time": 42719, "pitch": 65, "duration": 883, "velocity": 100}, {"time": 42960, "pitch": 57, "duration": 481, "velocity": 90}, {"time": 43200, "pitch": 60, "duration": 883, "velocity": 100}, {"time": 43441, "pitch": 57, "duration": 482, "velocity": 90}, {"time": 43682, "pitch": 65, "duration": 699, "velocity": 110}, {"time": 43923, "pitch": 57, "duration": 478, "velocity": 90}, {"time": 44164, "pitch": 60, "duration": 217, "velocity": 100}, {"time": 44401, "pitch": 45, "duration": 939, "velocity": 100}, {"time": 44401, "pitch": 59, "duration": 478, "velocity": 90}, {"time": 44401, "pitch": 62, "duration": 718, "velocity": 101}, {"time": 44401, "pitch": 67, "duration": 939, "velocity": 100}, {"time": 44879, "pitch": 59, "duration": 220, "velocity": 100}, {"time": 45119, "pitch": 62, "duration": 221, "velocity": 90}, {"time": 45360, "pitch": 45, "duration": 1197, "velocity": 100}, {"time": 45360, "pitch": 59, "duration": 401, "velocity": 90}, {"time": 45360, "pitch": 62, "duration": 702, "velocity": 101}, {"time": 45360, "pitch": 67, "duration": 1197, "velocity": 100}, {"time": 45842, "pitch": 59, "duration": 478, "velocity": 100}, {"time": 46083, "pitch": 62, "duration": 474, "velocity": 90}, {"time": 46320, "pitch": 59, "duration": 217, "velocity": 90}, {"time": 46557, "pitch": 62, "duration": 451, "velocity": 100}, {"time": 46798, "pitch": 55, "duration": 451, "velocity": 90}, {"time": 47038, "pitch": 61, "duration": 452, "velocity": 100}, {"time": 47279, "pitch": 55, "duration": 452, "velocity": 90}, {"time": 47520, "pitch": 62, "duration": 451, "velocity": 100}, {"time": 47761, "pitch": 55, "duration": 451, "velocity": 90}, {"time": 48002, "pitch": 64, "duration": 451, "velocity": 100}, {"time": 48242, "pitch": 55, "duration": 221, "velocity": 90}, {"time": 48483, "pitch": 62, "duration": 1598, "velocity": 100}, {"time": 48720, "pitch": 66, "duration": 1100, "velocity": 90}, {"time": 48957, "pitch": 69, "duration": 703, "velocity": 100}, {"time": 49198, "pitch": 74, "duration": 702, "velocity": 110}, {"time": 49680, "pitch": 69, "duration": 702, "velocity": 100}, {"time": 49921, "pitch": 66, "duration": 481, "velocity": 90}, {"time": 50161, "pitch": 61, "duration": 1839, "velocity": 100}, {"time": 50639, "pitch": 66, "duration": 1100, "velocity": 90}, {"time": 50876, "pitch": 69, "duration": 703, "velocity": 100}, {"time": 51117, "pitch": 74, "duration": 702, "velocity": 110}, {"time": 51599, "pitch": 69, "duration": 702, "velocity": 100}, {"time": 51839, "pitch": 66, "duration": 452, "velocity": 90}, {"time": 52321, "pitch": 61, "duration": 1598, "velocity": 100}, {"time": 52562, "pitch": 66, "duration": 1096, "velocity": 90}, {"time": 52803, "pitch": 69, "duration": 695, "velocity": 100}, {"time": 53040, "pitch": 74, "duration": 698, "velocity": 110}, {"time": 53518, "pitch": 69, "duration": 702, "velocity": 100}, {"time": 53758, "pitch": 66, "duration": 221, "velocity": 90}, {"time": 53999, "pitch": 60, "duration": 1839, "velocity": 100}, {"time": 54481, "pitch": 66, "duration": 1098, "velocity": 90}, {"time": 54722, "pitch": 69, "duration": 699, "velocity": 100}, {"time": 54962, "pitch": 74, "duration": 696, "velocity": 110}, {"time": 55440, "pitch": 69, "duration": 699, "velocity": 100}, {"time": 55678, "pitch": 66, "duration": 451, "velocity": 90}, {"time": 56159, "pitch": 59, "duration": 1598, "velocity": 100}, {"time": 56400, "pitch": 62, "duration": 1098, "velocity": 90}, {"time": 56641, "pitch": 67, "duration": 699, "velocity": 100}, {"time": 56881, "pitch": 74, "duration": 696, "velocity": 110}, {"time": 57359, "pitch": 67, "duration": 699, "velocity": 100}, {"time": 57597, "pitch": 62, "duration": 451, "velocity": 90}, {"time": 58078, "pitch": 62, "duration": 1603, "velocity": 100}, {"time": 58319, "pitch": 66, "duration": 1103, "velocity": 90}, {"time": 58560, "pitch": 69, "duration": 702, "velocity": 100}, {"time": 58800, "pitch": 74, "duration": 703, "velocity": 110}, {"time": 59282, "pitch": 69, "duration": 695, "velocity": 100}, {"time": 59523, "pitch": 66, "duration": 444, "velocity": 90}, {"time": 59997, "pitch": 59, "duration": 1605, "velocity": 100}, {"time": 60238, "pitch": 62, "duration": 1103, "velocity": 90}, {"time": 60479, "pitch": 67, "duration": 702, "velocity": 100}, {"time": 60719, "pitch": 71, "duration": 703, "velocity": 110}, {"time": 61201, "pitch": 67, "duration": 702, "velocity": 100}, {"time": 61442, "pitch": 62, "duration": 451, "velocity": 90}, {"time": 61923, "pitch": 59, "duration": 1197, "velocity": 100}, {"time": 62160, "pitch": 62, "duration": 900, "velocity": 90}, {"time": 62398, "pitch": 67, "duration": 602, "velocity": 100}, {"time": 62638, "pitch": 71, "duration": 281, "velocity": 110}, {"time": 63120, "pitch": 64, "duration": 682, "velocity": 100}, {"time": 63120, "pitch": 69, "duration": 682, "velocity": 100}, {"time": 63120, "pitch": 73, "duration": 682, "velocity": 104}, {"time": 63842, "pitch": 62, "duration": 1598, "velocity": 100}, {"time": 64079, "pitch": 66, "duration": 1100, "velocity": 90}, {"time": 64317, "pitch": 69, "duration": 702, "velocity": 100}, {"time": 64557, "pitch": 74, "duration": 703, "velocity": 110}, {"time": 65039, "pitch": 69, "duration": 702, "velocity": 100}, {"time": 65280, "pitch": 66, "duration": 481, "velocity": 90}, {"time": 65521, "pitch": 61, "duration": 1838, "velocity": 100}, {"time": 66002, "pitch": 66, "duration": 1096, "velocity": 90}, {"time": 66243, "pitch": 69, "duration": 695, "velocity": 100}, {"time": 66480, "pitch": 74, "duration": 699, "velocity": 110}, {"time": 66958, "pitch": 69, "duration": 702, "velocity": 100}, {"time": 67199, "pitch": 66, "duration": 451, "velocity": 90}, {"time": 67680, "pitch": 61, "duration": 1598, "velocity": 100}, {"time": 67921, "pitch": 66, "duration": 1098, "velocity": 90}, {"time": 68162, "pitch": 69, "duration": 699, "velocity": 100}, {"time": 68403, "pitch": 74, "duration": 695, "velocity": 110}, {"time": 68881, "pitch": 69, "duration": 698, "velocity": 100}, {"time": 69118, "pitch": 66, "duration": 220, "velocity": 90}, {"time": 69359, "pitch": 60, "duration": 1838, "velocity": 100}, {"time": 69840, "pitch": 66, "duration": 1098, "velocity": 90}, {"time": 70081, "pitch": 69, "duration": 699, "velocity": 100}, {"time": 70322, "pitch": 74, "duration": 695, "velocity": 110}, {"time": 70800, "pitch": 69, "duration": 698, "velocity": 100}, {"time": 71037, "pitch": 66, "duration": 451, "velocity": 90}, {"time": 71518, "pitch": 59, "duration": 1603, "velocity": 100}, {"time": 71759, "pitch": 62, "duration": 1104, "velocity": 90}, {"time": 72000, "pitch": 67, "duration": 702, "velocity": 100}, {"time": 72241, "pitch": 74, "duration": 702, "velocity": 110}, {"time": 72722, "pitch": 67, "duration": 696, "velocity": 100}, {"time": 72963, "pitch": 62, "duration": 445, "velocity": 90}, {"time": 73437, "pitch": 62, "duration": 1606, "velocity": 100}, {"time": 73678, "pitch": 66, "duration": 1104, "velocity": 90}, {"time": 73919, "pitch": 69, "duration": 702, "velocity": 100}, {"time": 74160, "pitch": 74, "duration": 702, "velocity": 110}, {"time": 74641, "pitch": 69, "duration": 703, "velocity": 100}, {"time": 74882, "pitch": 66, "duration": 452, "velocity": 90}, {"time": 75364, "pitch": 59, "duration": 1598, "velocity": 100}, {"time": 75601, "pitch": 62, "duration": 1100, "velocity": 90}, {"time": 75838, "pitch": 67, "duration": 702, "velocity": 100}, {"time": 76079, "pitch": 71, "duration": 702, "velocity": 110}, {"time": 76560, "pitch": 67, "duration": 703, "velocity": 100}, {"time": 76801, "pitch": 62, "duration": 452, "velocity": 90}, {"time": 77283, "pitch": 58, "duration": 1598, "velocity": 100}, {"time": 77520, "pitch": 62, "duration": 1100, "velocity": 90}, {"time": 77757, "pitch": 67, "duration": 702, "velocity": 100}, {"time": 77998, "pitch": 70, "duration": 702, "velocity": 110}, {"time": 78479, "pitch": 67, "duration": 482, "velocity": 100}, {"time": 78720, "pitch": 62, "duration": 221, "velocity": 90}, {"time": 78961, "pitch": 56, "duration": 4059, "velocity": 81}, {"time": 78961, "pitch": 63, "duration": 4059, "velocity": 89}, {"time": 78961, "pitch": 67, "duration": 4059, "velocity": 84}, {"time": 78961, "pitch": 70, "duration": 4059, "velocity": 96}, {"time": 90723, "pitch": 67, "duration": 675, "velocity": 100}, {"time": 90960, "pitch": 57, "duration": 1682, "velocity": 90}, {"time": 91197, "pitch": 60, "duration": 1425, "velocity": 100}, {"time": 91438, "pitch": 67, "duration": 1204, "velocity": 100}, {"time": 92642, "pitch": 67, "duration": 679, "velocity": 100}, {"time": 92883, "pitch": 55, "duration": 1678, "velocity": 90}, {"time": 93123, "pitch": 59, "duration": 1418, "velocity": 100}, {"time": 93361, "pitch": 67, "duration": 1200, "velocity": 100}, {"time": 94561, "pitch": 67, "duration": 679, "velocity": 100}, {"time": 94802, "pitch": 57, "duration": 1678, "velocity": 90}, {"time": 95042, "pitch": 60, "duration": 1418, "velocity": 100}, {"time": 95280, "pitch": 67, "duration": 1200, "velocity": 100}, {"time": 98880, "pitch": 60, "duration": 101, "velocity": 93}, {"time": 98880, "pitch": 64, "duration": 101, "velocity": 103}, {"time": 98890, "pitch": 67, "duration": 101, "velocity": 108}, {"time": 99603, "pitch": 57, "duration": 100, "velocity": 93}, {"time": 99603, "pitch": 60, "duration": 100, "velocity": 103}, {"time": 99613, "pitch": 67, "duration": 100, "velocity": 108}, {"time": 100799, "pitch": 59, "duration": 101, "velocity": 93}, {"time": 100799, "pitch": 62, "duration": 101, "velocity": 103}, {"time": 100809, "pitch": 67, "duration": 101, "velocity": 108}, {"time": 101522, "pitch": 57, "duration": 100, "velocity": 93}, {"time": 101522, "pitch": 60, "duration": 100, "velocity": 103}, {"time": 101532, "pitch": 67, "duration": 100, "velocity": 108}, {"time": 102718, "pitch": 57, "duration": 101, "velocity": 93}, {"time": 102718, "pitch": 60, "duration": 101, "velocity": 103}, {"time": 102728, "pitch": 65, "duration": 101, "velocity": 108}, {"time": 103441, "pitch": 57, "duration": 100, "velocity": 93}, {"time": 103441, "pitch": 60, "duration": 100, "velocity": 103}, {"time": 103451, "pitch": 65, "duration": 100, "velocity": 108}, {"time": 104637, "pitch": 57, "duration": 101, "velocity": 93}, {"time": 104637, "pitch": 60, "duration": 101, "velocity": 103}, {"time": 104647, "pitch": 65, "duration": 101, "velocity": 108}, {"time": 105360, "pitch": 59, "duration": 100, "velocity": 93}, {"time": 105360, "pitch": 62, "duration": 100, "velocity": 103}, {"time": 105370, "pitch": 67, "duration": 100, "velocity": 108}, {"time": 106556, "pitch": 60, "duration": 101, "velocity": 93}, {"time": 106556, "pitch": 64, "duration": 101, "velocity": 103}, {"time": 106566, "pitch": 67, "duration": 101, "velocity": 108}, {"time": 107279, "pitch": 57, "duration": 100, "velocity": 93}, {"time": 107279, "pitch": 60, "duration": 100, "velocity": 103}, {"time": 107289, "pitch": 67, "duration": 100, "velocity": 108}, {"time": 108483, "pitch": 59, "duration": 99, "velocity": 93}, {"time": 108483, "pitch": 62, "duration": 99, "velocity": 103}, {"time": 108493, "pitch": 67, "duration": 98, "velocity": 108}, {"time": 109198, "pitch": 57, "duration": 100, "velocity": 93}, {"time": 109198, "pitch": 60, "duration": 100, "velocity": 103}, {"time": 109208, "pitch": 67, "duration": 100, "velocity": 108}, {"time": 110402, "pitch": 57, "duration": 100, "velocity": 93}, {"time": 110402, "pitch": 60, "duration": 100, "velocity": 103}, {"time": 110412, "pitch": 65, "duration": 100, "velocity": 108}, {"time": 111120, "pitch": 57, "duration": 99, "velocity": 93}, {"time": 111120, "pitch": 60, "duration": 99, "velocity": 103}, {"time": 111130, "pitch": 65, "duration": 99, "velocity": 108}, {"time": 112321, "pitch": 57, "duration": 100, "velocity": 93}, {"time": 112321, "pitch": 60, "duration": 100, "velocity": 103}, {"time": 112331, "pitch": 65, "duration": 100, "velocity": 108}, {"time": 113039, "pitch": 59, "duration": 99, "velocity": 93}, {"time": 113039, "pitch": 62, "duration": 99, "velocity": 103}, {"time": 113049, "pitch": 67, "duration": 99, "velocity": 108}, {"time": 113758, "pitch": 40, "duration": 1899, "velocity": 100}, {"time": 113999, "pitch": 55, "duration": 993, "velocity": 90}, {"time": 114240, "pitch": 62, "duration": 1398, "velocity": 100}, {"time": 114480, "pitch": 59, "duration": 1177, "velocity": 105}, {"time": 114962, "pitch": 64, "duration": 715, "velocity": 110}, {"time": 115677, "pitch": 57, "duration": 1565, "velocity": 99}, {"time": 115918, "pitch": 60, "duration": 1274, "velocity": 100}, {"time": 116159, "pitch": 67, "duration": 1073, "velocity": 110}, {"time": 116399, "pitch": 64, "duration": 813, "velocity": 100}, {"time": 117363, "pitch": 57, "duration": 915, "velocity": 93}, {"time": 117363, "pitch": 60, "duration": 915, "velocity": 80}, {"time": 117363, "pitch": 62, "duration": 915, "velocity": 78}, {"time": 117363, "pitch": 65, "duration": 915, "velocity": 107}, {"time": 118318, "pitch": 55, "duration": 924, "velocity": 94}, {"time": 118318, "pitch": 60, "duration": 924, "velocity": 93}, {"time": 118318, "pitch": 62, "duration": 924, "velocity": 81}, {"time": 118318, "pitch": 65, "duration": 924, "velocity": 107}, {"time": 119282, "pitch": 55, "duration": 458, "velocity": 94}, {"time": 119282, "pitch": 59, "duration": 517, "velocity": 83}, {"time": 119282, "pitch": 60, "duration": 517, "velocity": 83}, {"time": 119282, "pitch": 64, "duration": 915, "velocity": 106}, {"time": 119760, "pitch": 55, "duration": 407, "velocity": 82}, {"time": 119997, "pitch": 60, "duration": 421, "velocity": 92}, {"time": 120237, "pitch": 64, "duration": 201, "velocity": 85}, {"time": 120478, "pitch": 56, "duration": 371, "velocity": 75}, {"time": 120478, "pitch": 59, "duration": 371, "velocity": 86}, {"time": 120478, "pitch": 62, "duration": 361, "velocity": 69}, {"time": 120478, "pitch": 65, "duration": 361, "velocity": 93}, {"time": 120960, "pitch": 56, "duration": 391, "velocity": 75}, {"time": 120960, "pitch": 59, "duration": 391, "velocity": 72}, {"time": 120960, "pitch": 62, "duration": 411, "velocity": 78}, {"time": 120960, "pitch": 64, "duration": 401, "velocity": 92}, {"time": 121441, "pitch": 45, "duration": 917, "velocity": 100}, {"time": 121682, "pitch": 55, "duration": 696, "velocity": 90}, {"time": 121923, "pitch": 60, "duration": 474, "velocity": 110}, {"time": 122160, "pitch": 64, "duration": 237, "velocity": 100}, {"time": 122397, "pitch": 58, "duration": 903, "velocity": 100}, {"time": 122638, "pitch": 60, "duration": 482, "velocity": 90}, {"time": 122879, "pitch": 64, "duration": 451, "velocity": 108}, {"time": 123120, "pitch": 60, "duration": 220, "velocity": 98}, {"time": 123360, "pitch": 53, "duration": 703, "velocity": 97}, {"time": 123601, "pitch": 57, "duration": 482, "velocity": 100}, {"time": 123842, "pitch": 60, "duration": 221, "velocity": 91}, {"time": 124083, "pitch": 50, "duration": 200, "velocity": 94}, {"time": 124083, "pitch": 55, "duration": 200, "velocity": 90}, {"time": 124083, "pitch": 59, "duration": 200, "velocity": 85}, {"time": 124083, "pitch": 64, "duration": 200, "velocity": 101}, {"time": 124561, "pitch": 50, "duration": 678, "velocity": 94}, {"time": 124561, "pitch": 57, "duration": 678, "velocity": 92}, {"time": 124561, "pitch": 60, "duration": 678, "velocity": 95}, {"time": 124561, "pitch": 65, "duration": 678, "velocity": 97}, {"time": 125279, "pitch": 46, "duration": 1201, "velocity": 100}, {"time": 125279, "pitch": 65, "duration": 883, "velocity": 100}, {"time": 125520, "pitch": 57, "duration": 482, "velocity": 90}, {"time": 125761, "pitch": 60, "duration": 877, "velocity": 100}, {"time": 126002, "pitch": 57, "duration": 478, "velocity": 90}, {"time": 126243, "pitch": 65, "duration": 695, "velocity": 110}, {"time": 126480, "pitch": 57, "duration": 478, "velocity": 90}, {"time": 126717, "pitch": 60, "duration": 221, "velocity": 100}, {"time": 126958, "pitch": 45, "duration": 943, "velocity": 100}, {"time": 126958, "pitch": 59, "duration": 481, "velocity": 90}, {"time": 126958, "pitch": 62, "duration": 722, "velocity": 101}, {"time": 126958, "pitch": 67, "duration": 943, "velocity": 100}, {"time": 127439, "pitch": 59, "duration": 221, "velocity": 100}, {"time": 127680, "pitch": 62, "duration": 221, "velocity": 90}, {"time": 127921, "pitch": 45, "duration": 1196, "velocity": 100}, {"time": 127921, "pitch": 59, "duration": 401, "velocity": 90}, {"time": 127921, "pitch": 62, "duration": 702, "velocity": 101}, {"time": 127921, "pitch": 67, "duration": 1196, "velocity": 100}, {"time": 128402, "pitch": 59, "duration": 478, "velocity": 100}, {"time": 128643, "pitch": 62, "duration": 474, "velocity": 90}, {"time": 128880, "pitch": 59, "duration": 218, "velocity": 90}, {"time": 129117, "pitch": 62, "duration": 452, "velocity": 100}, {"time": 129358, "pitch": 55, "duration": 452, "velocity": 90}, {"time": 129599, "pitch": 61, "duration": 451, "velocity": 100}, {"time": 129840, "pitch": 55, "duration": 451, "velocity": 90}, {"time": 130081, "pitch": 62, "duration": 451, "velocity": 100}, {"time": 130321, "pitch": 55, "duration": 449, "velocity": 90}, {"time": 130562, "pitch": 64, "duration": 445, "velocity": 100}, {"time": 130799, "pitch": 55, "duration": 218, "velocity": 90}, {"time": 131036, "pitch": 62, "duration": 1606, "velocity": 100}, {"time": 131277, "pitch": 66, "duration": 1104, "velocity": 90}, {"time": 131518, "pitch": 69, "duration": 702, "velocity": 100}, {"time": 131759, "pitch": 74, "duration": 702, "velocity": 110}, {"time": 132240, "pitch": 69, "duration": 703, "velocity": 100}, {"time": 132481, "pitch": 66, "duration": 482, "velocity": 90}, {"time": 132722, "pitch": 61, "duration": 1839, "velocity": 100}, {"time": 133200, "pitch": 66, "duration": 1100, "velocity": 90}, {"time": 133437, "pitch": 69, "duration": 702, "velocity": 100}, {"time": 133678, "pitch": 74, "duration": 702, "velocity": 110}, {"time": 134159, "pitch": 69, "duration": 703, "velocity": 100}, {"time": 134400, "pitch": 66, "duration": 452, "velocity": 90}, {"time": 134882, "pitch": 61, "duration": 1598, "velocity": 100}, {"time": 135122, "pitch": 66, "duration": 1097, "velocity": 90}, {"time": 135363, "pitch": 69, "duration": 695, "velocity": 100}, {"time": 135600, "pitch": 74, "duration": 699, "velocity": 110}, {"time": 136078, "pitch": 69, "duration": 703, "velocity": 100}, {"time": 136319, "pitch": 66, "duration": 221, "velocity": 90}, {"time": 136560, "pitch": 60, "duration": 1839, "velocity": 100}, {"time": 137041, "pitch": 66, "duration": 1097, "velocity": 90}, {"time": 137282, "pitch": 69, "duration": 695, "velocity": 100}, {"time": 137519, "pitch": 74, "duration": 699, "velocity": 110}, {"time": 137997, "pitch": 69, "duration": 703, "velocity": 100}, {"time": 138238, "pitch": 66, "duration": 452, "velocity": 90}, {"time": 138720, "pitch": 59, "duration": 1598, "velocity": 100}, {"time": 138960, "pitch": 62, "duration": 1098, "velocity": 90}, {"time": 139201, "pitch": 67, "duration": 699, "velocity": 100}, {"time": 139442, "pitch": 74, "duration": 695, "velocity": 110}, {"time": 139920, "pitch": 67, "duration": 699, "velocity": 100}, {"time": 140157, "pitch": 62, "duration": 452, "velocity": 90}, {"time": 140639, "pitch": 62, "duration": 1602, "velocity": 100}, {"time": 140879, "pitch": 66, "duration": 1104, "velocity": 90}, {"time": 141120, "pitch": 69, "duration": 703, "velocity": 100}, {"time": 141361, "pitch": 74, "duration": 702, "velocity": 110}, {"time": 141843, "pitch": 69, "duration": 695, "velocity": 100}, {"time": 142083, "pitch": 66, "duration": 445, "velocity": 90}, {"time": 142558, "pitch": 59, "duration": 1602, "velocity": 100}, {"time": 142798, "pitch": 62, "duration": 1104, "velocity": 90}, {"time": 143039, "pitch": 67, "duration": 703, "velocity": 100}, {"time": 143280, "pitch": 71, "duration": 702, "velocity": 110}, {"time": 143762, "pitch": 67, "duration": 695, "velocity": 100}, {"time": 144002, "pitch": 62, "duration": 445, "velocity": 90}, {"time": 144477, "pitch": 59, "duration": 1204, "velocity": 100}, {"time": 144717, "pitch": 62, "duration": 903, "velocity": 90}, {"time": 144958, "pitch": 67, "duration": 602, "velocity": 100}, {"time": 145199, "pitch": 71, "duration": 281, "velocity": 110}, {"time": 145681, "pitch": 64, "duration": 682, "velocity": 100}, {"time": 145681, "pitch": 69, "duration": 682, "velocity": 100}, {"time": 145681, "pitch": 73, "duration": 682, "velocity": 104}, {"time": 146403, "pitch": 62, "duration": 1598, "velocity": 100}, {"time": 146640, "pitch": 66, "duration": 1100, "velocity": 90}, {"time": 146877, "pitch": 69, "duration": 703, "velocity": 100}, {"time": 147118, "pitch": 74, "duration": 702, "velocity": 110}, {"time": 147600, "pitch": 69, "duration": 702, "velocity": 100}, {"time": 147840, "pitch": 66, "duration": 482, "velocity": 90}, {"time": 148081, "pitch": 61, "duration": 1839, "velocity": 100}, {"time": 148563, "pitch": 66, "duration": 1096, "velocity": 90}, {"time": 148804, "pitch": 69, "duration": 695, "velocity": 100}, {"time": 149041, "pitch": 74, "duration": 698, "velocity": 110}, {"time": 149519, "pitch": 69, "duration": 702, "velocity": 100}, {"time": 149759, "pitch": 66, "duration": 452, "velocity": 90}, {"time": 150241, "pitch": 61, "duration": 1598, "velocity": 100}, {"time": 150482, "pitch": 66, "duration": 1096, "velocity": 90}, {"time": 150723, "pitch": 69, "duration": 694, "velocity": 100}, {"time": 150960, "pitch": 74, "duration": 698, "velocity": 110}, {"time": 151438, "pitch": 69, "duration": 702, "velocity": 100}, {"time": 151678, "pitch": 66, "duration": 221, "velocity": 90}, {"time": 151919, "pitch": 60, "duration": 1839, "velocity": 100}, {"time": 152401, "pitch": 66, "duration": 1098, "velocity": 90}, {"time": 152642, "pitch": 69, "duration": 698, "velocity": 100}, {"time": 152882, "pitch": 74, "duration": 696, "velocity": 110}, {"time": 153360, "pitch": 69, "duration": 699, "velocity": 100}, {"time": 153597, "pitch": 66, "duration": 452, "velocity": 90}, {"time": 154079, "pitch": 59, "duration": 1598, "velocity": 100}, {"time": 154320, "pitch": 62, "duration": 1098, "velocity": 90}, {"time": 154561, "pitch": 67, "duration": 698, "velocity": 100}, {"time": 154801, "pitch": 74, "duration": 696, "velocity": 110}, {"time": 155279, "pitch": 67, "duration": 699, "velocity": 100}, {"time": 155516, "pitch": 62, "duration": 452, "velocity": 90}, {"time": 155998, "pitch": 62, "duration": 1603, "velocity": 100}, {"time": 156239, "pitch": 66, "duration": 1103, "velocity": 90}, {"time": 156480, "pitch": 69, "duration": 702, "velocity": 100}, {"time": 156720, "pitch": 74, "duration": 703, "velocity": 110}, {"time": 157202, "pitch": 69, "duration": 695, "velocity": 100}, {"time": 157443, "pitch": 66, "duration": 444, "velocity": 90}, {"time": 157917, "pitch": 59, "duration": 1605, "velocity": 100}, {"time": 158158, "pitch": 62, "duration": 1103, "velocity": 90}, {"time": 158398, "pitch": 67, "duration": 703, "velocity": 100}, {"time": 158639, "pitch": 71, "duration": 703, "velocity": 110}, {"time": 159121, "pitch": 67, "duration": 702, "velocity": 100}, {"time": 159362, "pitch": 62, "duration": 451, "velocity": 90}, {"time": 159843, "pitch": 58, "duration": 1598, "velocity": 100}, {"time": 160080, "pitch": 62, "duration": 1100, "velocity": 90}, {"time": 160318, "pitch": 67, "duration": 702, "velocity": 100}, {"time": 160558, "pitch": 70, "duration": 703, "velocity": 110}, {"time": 161040, "pitch": 67, "duration": 481, "velocity": 100}, {"time": 161281, "pitch": 62, "duration": 220, "velocity": 90}, {"time": 161521, "pitch": 59, "duration": 2140, "velocity": 81}, {"time": 161521, "pitch": 62, "duration": 2140, "velocity": 89}, {"time": 161521, "pitch": 67, "duration": 2140, "velocity": 84}, {"time": 161521, "pitch": 71, "duration": 2140, "velocity": 96}, {"time": 163681, "pitch": 57, "duration": 917, "velocity": 100}, {"time": 163681, "pitch": 64, "duration": 917, "velocity": 90}, {"time": 163681, "pitch": 69, "duration": 917, "velocity": 90}, {"time": 163681, "pitch": 73, "duration": 917, "velocity": 100}, {"time": 164637, "pitch": 57, "duration": 923, "velocity": 100}, {"time": 164637, "pitch": 62, "duration": 923, "velocity": 90}, {"time": 164637, "pitch": 67, "duration": 923, "velocity": 90}, {"time": 164637, "pitch": 71, "duration": 923, "velocity": 100}, {"time": 165600, "pitch": 62, "duration": 1598, "velocity": 100}, {"time": 165841, "pitch": 66, "duration": 1098, "velocity": 90}, {"time": 166082, "pitch": 69, "duration": 699, "velocity": 100}, {"time": 166323, "pitch": 74, "duration": 695, "velocity": 110}, {"time": 166800, "pitch": 69, "duration": 699, "velocity": 100}, {"time": 167038, "pitch": 66, "duration": 481, "velocity": 90}, {"time": 167278, "pitch": 61, "duration": 1839, "velocity": 100}, {"time": 167760, "pitch": 66, "duration": 1098, "velocity": 90}, {"time": 168001, "pitch": 69, "duration": 699, "velocity": 100}, {"time": 168242, "pitch": 74, "duration": 695, "velocity": 110}, {"time": 168719, "pitch": 69, "duration": 699, "velocity": 100}, {"time": 168957, "pitch": 66, "duration": 451, "velocity": 90}, {"time": 169438, "pitch": 61, "duration": 1603, "velocity": 100}, {"time": 169679, "pitch": 66, "duration": 1104, "velocity": 90}, {"time": 169920, "pitch": 69, "duration": 702, "velocity": 100}, {"time": 170161, "pitch": 74, "duration": 702, "velocity": 110}, {"time": 170642, "pitch": 69, "duration": 695, "velocity": 100}, {"time": 170883, "pitch": 66, "duration": 217, "velocity": 90}, {"time": 171120, "pitch": 60, "duration": 1842, "velocity": 100}, {"time": 171598, "pitch": 66, "duration": 1104, "velocity": 90}, {"time": 171839, "pitch": 69, "duration": 702, "velocity": 100}, {"time": 172080, "pitch": 74, "duration": 702, "velocity": 110}, {"time": 172561, "pitch": 69, "duration": 702, "velocity": 100}, {"time": 172802, "pitch": 66, "duration": 451, "velocity": 90}, {"time": 173283, "pitch": 59, "duration": 1598, "velocity": 100}, {"time": 173521, "pitch": 62, "duration": 1100, "velocity": 90}, {"time": 173758, "pitch": 67, "duration": 702, "velocity": 100}, {"time": 173999, "pitch": 74, "duration": 702, "velocity": 110}, {"time": 174480, "pitch": 67, "duration": 702, "velocity": 100}, {"time": 174721, "pitch": 62, "duration": 451, "velocity": 90}, {"time": 175202, "pitch": 62, "duration": 1598, "velocity": 100}, {"time": 175440, "pitch": 66, "duration": 1100, "velocity": 90}, {"time": 175677, "pitch": 69, "duration": 702, "velocity": 100}, {"time": 175918, "pitch": 74, "duration": 702, "velocity": 110}, {"time": 176399, "pitch": 69, "duration": 702, "velocity": 100}, {"time": 176640, "pitch": 66, "duration": 451, "velocity": 90}, {"time": 177122, "pitch": 59, "duration": 1597, "velocity": 100}, {"time": 177362, "pitch": 62, "duration": 1097, "velocity": 90}, {"time": 177603, "pitch": 67, "duration": 695, "velocity": 100}, {"time": 177840, "pitch": 71, "duration": 699, "velocity": 110}, {"time": 178318, "pitch": 67, "duration": 702, "velocity": 100}, {"time": 178559, "pitch": 62, "duration": 451, "velocity": 90}, {"time": 179040, "pitch": 59, "duration": 1201, "velocity": 100}, {"time": 179281, "pitch": 62, "duration": 900, "velocity": 90}, {"time": 179522, "pitch": 67, "duration": 600, "velocity": 100}, {"time": 179763, "pitch": 71, "duration": 280, "velocity": 110}, {"time": 180241, "pitch": 64, "duration": 678, "velocity": 100}, {"time": 180241, "pitch": 69, "duration": 678, "velocity": 100}, {"time": 180241, "pitch": 73, "duration": 678, "velocity": 104}, {"time": 180959, "pitch": 62, "duration": 1598, "velocity": 100}, {"time": 181200, "pitch": 66, "duration": 1098, "velocity": 90}, {"time": 181441, "pitch": 69, "duration": 699, "velocity": 100}, {"time": 181682, "pitch": 74, "duration": 695, "velocity": 110}, {"time": 182160, "pitch": 69, "duration": 698, "velocity": 100}, {"time": 182397, "pitch": 66, "duration": 481, "velocity": 90}, {"time": 182638, "pitch": 61, "duration": 1843, "velocity": 100}, {"time": 183119, "pitch": 66, "duration": 1104, "velocity": 90}, {"time": 183360, "pitch": 69, "duration": 702, "velocity": 100}, {"time": 183601, "pitch": 74, "duration": 702, "velocity": 110}, {"time": 184082, "pitch": 69, "duration": 696, "velocity": 100}, {"time": 184323, "pitch": 66, "duration": 445, "velocity": 90}, {"time": 184797, "pitch": 61, "duration": 1603, "velocity": 100}, {"time": 185038, "pitch": 66, "duration": 1104, "velocity": 90}, {"time": 185279, "pitch": 69, "duration": 702, "velocity": 100}, {"time": 185520, "pitch": 74, "duration": 702, "velocity": 110}, {"time": 186001, "pitch": 69, "duration": 696, "velocity": 100}, {"time": 186242, "pitch": 66, "duration": 218, "velocity": 90}, {"time": 186479, "pitch": 60, "duration": 1843, "velocity": 100}, {"time": 186957, "pitch": 66, "duration": 1104, "velocity": 90}, {"time": 187198, "pitch": 69, "duration": 702, "velocity": 100}, {"time": 187439, "pitch": 74, "duration": 702, "velocity": 110}, {"time": 187920, "pitch": 69, "duration": 703, "velocity": 100}, {"time": 188161, "pitch": 66, "duration": 452, "velocity": 90}, {"time": 188643, "pitch": 59, "duration": 1598, "velocity": 100}, {"time": 188880, "pitch": 62, "duration": 1100, "velocity": 90}, {"time": 189117, "pitch": 67, "duration": 702, "velocity": 100}, {"time": 189358, "pitch": 74, "duration": 702, "velocity": 110}, {"time": 189839, "pitch": 67, "duration": 703, "velocity": 100}, {"time": 190080, "pitch": 62, "duration": 452, "velocity": 90}, {"time": 190562, "pitch": 62, "duration": 1598, "velocity": 100}, {"time": 190803, "pitch": 66, "duration": 1096, "velocity": 90}, {"time": 191043, "pitch": 69, "duration": 695, "velocity": 100}, {"time": 191280, "pitch": 74, "duration": 699, "velocity": 110}, {"time": 191758, "pitch": 69, "duration": 703, "velocity": 100}, {"time": 191999, "pitch": 66, "duration": 452, "velocity": 90}, {"time": 192481, "pitch": 59, "duration": 1598, "velocity": 100}, {"time": 192722, "pitch": 62, "duration": 1096, "velocity": 90}, {"time": 192962, "pitch": 67, "duration": 695, "velocity": 100}, {"time": 193199, "pitch": 71, "duration": 699, "velocity": 110}, {"time": 193677, "pitch": 67, "duration": 703, "velocity": 100}, {"time": 193918, "pitch": 62, "duration": 452, "velocity": 90}, {"time": 194400, "pitch": 58, "duration": 1598, "velocity": 100}, {"time": 194641, "pitch": 62, "duration": 1097, "velocity": 90}, {"time": 194881, "pitch": 67, "duration": 699, "velocity": 100}, {"time": 195122, "pitch": 70, "duration": 695, "velocity": 110}, {"time": 195600, "pitch": 67, "duration": 478, "velocity": 100}, {"time": 195837, "pitch": 62, "duration": 221, "velocity": 90}, {"time": 196078, "pitch": 57, "duration": 2140, "velocity": 81}, {"time": 196078, "pitch": 62, "duration": 2140, "velocity": 89}, {"time": 196078, "pitch": 66, "duration": 2140, "velocity": 84}, {"time": 196078, "pitch": 69, "duration": 2140, "velocity": 96}], "annotations": [{"time": 283, "annotation": {"number": 7, "value": 115}, "group": "control_change"}, {"time": 305, "annotation": {"number": 11, "value": 100}, "group": "control_change"}, {"time": 327, "annotation": {"number": 10, "value": 20}, "group": "control_change"}, {"time": 349, "annotation": {"number": 91, "value": 20}, "group": "control_change"}, {"time": 370, "annotation": {"number": 93, "value": 20}, "group": "control_change"}, {"time": 392, "annotation": {"number": 101, "value": 0}, "group": "control_change"}, {"time": 414, "annotation": {"number": 100, "value": 0}, "group": "control_change"}, {"time": 436, "annotation": {"number": 6, "value": 12}, "group": "control_change"}, {"time": 458, "annotation": {"number": 101, "value": 127}, "group": "control_change"}, {"time": 479, "annotation": {"number": 100, "value": 127}, "group": "control_change"}, {"time": 15838, "annotation": {"number": 11, "value": 90}, "group": "control_change"}, {"time": 31198, "annotation": {"number": 11, "value": 100}, "group": "control_change"}, {"time": 98399, "annotation": {"number": 11, "value": 90}, "group": "control_change"}, {"time": 113758, "annotation": {"number": 11, "value": 100}, "group": "control_change"}]}, {"program": 0, "is_drum": false, "name": "A.GT CUT 1", "annotations": [{"time": 218, "annotation": {"number": 0, "value": 0}, "group": "control_change"}, {"time": 240, "annotation": {"number": 32, "value": 0}, "group": "control_change"}]}, {"program": 25, "is_drum": false, "name": "A.GT CUT 1", "notes": [{"time": 48483, "pitch": 50, "duration": 217, "velocity": 100}, {"time": 48483, "pitch": 57, "duration": 217, "velocity": 80}, {"time": 48493, "pitch": 62, "duration": 217, "velocity": 90}, {"time": 48493, "pitch": 66, "duration": 217, "velocity": 100}, {"time": 48720, "pitch": 62, "duration": 218, "velocity": 80}, {"time": 48720, "pitch": 66, "duration": 218, "velocity": 90}, {"time": 48730, "pitch": 50, "duration": 217, "velocity": 80}, {"time": 48730, "pitch": 57, "duration": 217, "velocity": 70}, {"time": 48957, "pitch": 50, "duration": 10, "velocity": 100}, {"time": 48957, "pitch": 57, "duration": 10, "velocity": 80}, {"time": 48967, "pitch": 62, "duration": 10, "velocity": 90}, {"time": 48967, "pitch": 66, "duration": 10, "velocity": 100}, {"time": 49198, "pitch": 62, "duration": 221, "velocity": 80}, {"time": 49198, "pitch": 66, "duration": 221, "velocity": 90}, {"time": 49208, "pitch": 50, "duration": 221, "velocity": 80}, {"time": 49208, "pitch": 57, "duration": 221, "velocity": 70}, {"time": 49439, "pitch": 50, "duration": 221, "velocity": 100}, {"time": 49439, "pitch": 57, "duration": 221, "velocity": 80}, {"time": 49449, "pitch": 62, "duration": 221, "velocity": 90}, {"time": 49449, "pitch": 66, "duration": 221, "velocity": 100}, {"time": 49680, "pitch": 62, "duration": 220, "velocity": 80}, {"time": 49680, "pitch": 66, "duration": 220, "velocity": 90}, {"time": 49690, "pitch": 50, "duration": 220, "velocity": 80}, {"time": 49690, "pitch": 57, "duration": 220, "velocity": 70}, {"time": 49921, "pitch": 50, "duration": 10, "velocity": 100}, {"time": 49921, "pitch": 57, "duration": 10, "velocity": 80}, {"time": 49931, "pitch": 62, "duration": 10, "velocity": 90}, {"time": 49931, "pitch": 66, "duration": 10, "velocity": 100}, {"time": 50161, "pitch": 61, "duration": 468, "velocity": 90}, {"time": 50161, "pitch": 66, "duration": 468, "velocity": 100}, {"time": 50171, "pitch": 50, "duration": 448, "velocity": 90}, {"time": 50171, "pitch": 57, "duration": 448, "velocity": 80}, {"time": 50639, "pitch": 61, "duration": 218, "velocity": 80}, {"time": 50639, "pitch": 66, "duration": 218, "velocity": 90}, {"time": 50649, "pitch": 50, "duration": 217, "velocity": 80}, {"time": 50649, "pitch": 57, "duration": 217, "velocity": 70}, {"time": 50876, "pitch": 50, "duration": 10, "velocity": 100}, {"time": 50876, "pitch": 57, "duration": 10, "velocity": 80}, {"time": 50886, "pitch": 61, "duration": 10, "velocity": 90}, {"time": 50886, "pitch": 66, "duration": 10, "velocity": 100}, {"time": 51117, "pitch": 61, "duration": 221, "velocity": 80}, {"time": 51117, "pitch": 66, "duration": 221, "velocity": 90}, {"time": 51127, "pitch": 50, "duration": 221, "velocity": 80}, {"time": 51127, "pitch": 57, "duration": 221, "velocity": 70}, {"time": 51358, "pitch": 50, "duration": 221, "velocity": 100}, {"time": 51358, "pitch": 57, "duration": 221, "velocity": 80}, {"time": 51368, "pitch": 61, "duration": 221, "velocity": 90}, {"time": 51368, "pitch": 66, "duration": 221, "velocity": 100}, {"time": 51599, "pitch": 61, "duration": 220, "velocity": 80}, {"time": 51599, "pitch": 66, "duration": 220, "velocity": 90}, {"time": 51609, "pitch": 50, "duration": 220, "velocity": 80}, {"time": 51609, "pitch": 57, "duration": 220, "velocity": 70}, {"time": 51839, "pitch": 50, "duration": 11, "velocity": 100}, {"time": 51839, "pitch": 57, "duration": 11, "velocity": 80}, {"time": 51850, "pitch": 61, "duration": 10, "velocity": 90}, {"time": 51850, "pitch": 66, "duration": 10, "velocity": 100}, {"time": 52080, "pitch": 61, "duration": 221, "velocity": 90}, {"time": 52080, "pitch": 66, "duration": 221, "velocity": 90}, {"time": 52090, "pitch": 50, "duration": 221, "velocity": 80}, {"time": 52090, "pitch": 57, "duration": 221, "velocity": 70}, {"time": 52321, "pitch": 50, "duration": 221, "velocity": 100}, {"time": 52321, "pitch": 57, "duration": 221, "velocity": 80}, {"time": 52331, "pitch": 61, "duration": 221, "velocity": 90}, {"time": 52331, "pitch": 66, "duration": 221, "velocity": 100}, {"time": 52562, "pitch": 61, "duration": 221, "velocity": 80}, {"time": 52562, "pitch": 66, "duration": 221, "velocity": 90}, {"time": 52572, "pitch": 50, "duration": 221, "velocity": 80}, {"time": 52572, "pitch": 57, "duration": 221, "velocity": 70}, {"time": 52803, "pitch": 50, "duration": 10, "velocity": 100}, {"time": 52803, "pitch": 57, "duration": 10, "velocity": 80}, {"time": 52813, "pitch": 61, "duration": 9, "velocity": 90}, {"time": 52813, "pitch": 66, "duration": 9, "velocity": 100}, {"time": 53040, "pitch": 61, "duration": 217, "velocity": 80}, {"time": 53040, "pitch": 66, "duration": 217, "velocity": 90}, {"time": 53050, "pitch": 50, "duration": 217, "velocity": 80}, {"time": 53050, "pitch": 57, "duration": 217, "velocity": 70}, {"time": 53277, "pitch": 50, "duration": 221, "velocity": 100}, {"time": 53277, "pitch": 57, "duration": 221, "velocity": 80}, {"time": 53287, "pitch": 61, "duration": 221, "velocity": 90}, {"time": 53287, "pitch": 66, "duration": 221, "velocity": 100}, {"time": 53518, "pitch": 61, "duration": 220, "velocity": 80}, {"time": 53518, "pitch": 66, "duration": 220, "velocity": 90}, {"time": 53528, "pitch": 50, "duration": 220, "velocity": 80}, {"time": 53528, "pitch": 57, "duration": 220, "velocity": 70}, {"time": 53758, "pitch": 50, "duration": 11, "velocity": 100}, {"time": 53758, "pitch": 57, "duration": 11, "velocity": 80}, {"time": 53769, "pitch": 61, "duration": 10, "velocity": 90}, {"time": 53769, "pitch": 66, "duration": 10, "velocity": 100}, {"time": 53999, "pitch": 60, "duration": 472, "velocity": 90}, {"time": 53999, "pitch": 66, "duration": 472, "velocity": 100}, {"time": 54009, "pitch": 50, "duration": 452, "velocity": 90}, {"time": 54009, "pitch": 57, "duration": 452, "velocity": 80}, {"time": 54481, "pitch": 60, "duration": 221, "velocity": 80}, {"time": 54481, "pitch": 66, "duration": 221, "velocity": 90}, {"time": 54491, "pitch": 50, "duration": 221, "velocity": 80}, {"time": 54491, "pitch": 57, "duration": 221, "velocity": 70}, {"time": 54722, "pitch": 50, "duration": 10, "velocity": 100}, {"time": 54722, "pitch": 57, "duration": 10, "velocity": 80}, {"time": 54732, "pitch": 60, "duration": 10, "velocity": 90}, {"time": 54732, "pitch": 66, "duration": 10, "velocity": 100}, {"time": 54962, "pitch": 60, "duration": 221, "velocity": 80}, {"time": 54962, "pitch": 66, "duration": 221, "velocity": 90}, {"time": 54972, "pitch": 50, "duration": 221, "velocity": 80}, {"time": 54972, "pitch": 57, "duration": 221, "velocity": 70}, {"time": 55203, "pitch": 50, "duration": 218, "velocity": 100}, {"time": 55203, "pitch": 57, "duration": 218, "velocity": 80}, {"time": 55213, "pitch": 60, "duration": 217, "velocity": 90}, {"time": 55213, "pitch": 66, "duration": 217, "velocity": 100}, {"time": 55440, "pitch": 60, "duration": 218, "velocity": 80}, {"time": 55440, "pitch": 66, "duration": 218, "velocity": 90}, {"time": 55450, "pitch": 50, "duration": 218, "velocity": 80}, {"time": 55450, "pitch": 57, "duration": 218, "velocity": 70}, {"time": 55678, "pitch": 50, "duration": 9, "velocity": 100}, {"time": 55678, "pitch": 57, "duration": 9, "velocity": 80}, {"time": 55687, "pitch": 60, "duration": 11, "velocity": 90}, {"time": 55687, "pitch": 66, "duration": 11, "velocity": 100}, {"time": 55918, "pitch": 60, "duration": 221, "velocity": 90}, {"time": 55918, "pitch": 66, "duration": 221, "velocity": 90}, {"time": 55928, "pitch": 50, "duration": 221, "velocity": 80}, {"time": 55928, "pitch": 57, "duration": 221, "velocity": 70}, {"time": 56159, "pitch": 50, "duration": 221, "velocity": 100}, {"time": 56159, "pitch": 55, "duration": 221, "velocity": 80}, {"time": 56169, "pitch": 59, "duration": 221, "velocity": 90}, {"time": 56169, "pitch": 67, "duration": 221, "velocity": 100}, {"time": 56400, "pitch": 59, "duration": 221, "velocity": 80}, {"time": 56400, "pitch": 67, "duration": 221, "velocity": 90}, {"time": 56410, "pitch": 50, "duration": 221, "velocity": 80}, {"time": 56410, "pitch": 55, "duration": 221, "velocity": 70}, {"time": 56641, "pitch": 50, "duration": 10, "velocity": 100}, {"time": 56641, "pitch": 55, "duration": 10, "velocity": 80}, {"time": 56651, "pitch": 59, "duration": 10, "velocity": 90}, {"time": 56651, "pitch": 67, "duration": 10, "velocity": 100}, {"time": 56881, "pitch": 59, "duration": 221, "velocity": 80}, {"time": 56881, "pitch": 67, "duration": 221, "velocity": 90}, {"time": 56891, "pitch": 50, "duration": 221, "velocity": 80}, {"time": 56891, "pitch": 55, "duration": 221, "velocity": 70}, {"time": 57122, "pitch": 50, "duration": 218, "velocity": 100}, {"time": 57122, "pitch": 55, "duration": 218, "velocity": 80}, {"time": 57132, "pitch": 59, "duration": 217, "velocity": 90}, {"time": 57132, "pitch": 67, "duration": 217, "velocity": 100}, {"time": 57359, "pitch": 59, "duration": 218, "velocity": 80}, {"time": 57359, "pitch": 67, "duration": 218, "velocity": 90}, {"time": 57369, "pitch": 50, "duration": 218, "velocity": 80}, {"time": 57369, "pitch": 55, "duration": 218, "velocity": 70}, {"time": 57597, "pitch": 50, "duration": 9, "velocity": 100}, {"time": 57597, "pitch": 55, "duration": 9, "velocity": 80}, {"time": 57606, "pitch": 59, "duration": 11, "velocity": 90}, {"time": 57606, "pitch": 67, "duration": 11, "velocity": 100}, {"time": 57837, "pitch": 59, "duration": 221, "velocity": 90}, {"time": 57837, "pitch": 67, "duration": 221, "velocity": 90}, {"time": 57847, "pitch": 50, "duration": 221, "velocity": 80}, {"time": 57847, "pitch": 55, "duration": 221, "velocity": 70}, {"time": 58078, "pitch": 50, "duration": 221, "velocity": 100}, {"time": 58078, "pitch": 57, "duration": 221, "velocity": 80}, {"time": 58088, "pitch": 62, "duration": 221, "velocity": 90}, {"time": 58088, "pitch": 66, "duration": 221, "velocity": 100}, {"time": 58319, "pitch": 62, "duration": 221, "velocity": 80}, {"time": 58319, "pitch": 66, "duration": 221, "velocity": 90}, {"time": 58329, "pitch": 50, "duration": 221, "velocity": 80}, {"time": 58329, "pitch": 57, "duration": 221, "velocity": 70}, {"time": 58560, "pitch": 50, "duration": 10, "velocity": 100}, {"time": 58560, "pitch": 57, "duration": 10, "velocity": 80}, {"time": 58570, "pitch": 62, "duration": 10, "velocity": 90}, {"time": 58570, "pitch": 66, "duration": 10, "velocity": 100}, {"time": 58800, "pitch": 62, "duration": 221, "velocity": 80}, {"time": 58800, "pitch": 66, "duration": 221, "velocity": 90}, {"time": 58810, "pitch": 50, "duration": 221, "velocity": 80}, {"time": 58810, "pitch": 57, "duration": 221, "velocity": 70}, {"time": 59041, "pitch": 50, "duration": 221, "velocity": 100}, {"time": 59041, "pitch": 57, "duration": 221, "velocity": 80}, {"time": 59051, "pitch": 62, "duration": 221, "velocity": 90}, {"time": 59051, "pitch": 66, "duration": 221, "velocity": 100}, {"time": 59282, "pitch": 62, "duration": 221, "velocity": 80}, {"time": 59282, "pitch": 66, "duration": 221, "velocity": 90}, {"time": 59292, "pitch": 50, "duration": 221, "velocity": 80}, {"time": 59292, "pitch": 57, "duration": 221, "velocity": 70}, {"time": 59523, "pitch": 50, "duration": 10, "velocity": 100}, {"time": 59523, "pitch": 57, "duration": 10, "velocity": 80}, {"time": 59533, "pitch": 62, "duration": 10, "velocity": 90}, {"time": 59533, "pitch": 66, "duration": 10, "velocity": 100}, {"time": 59760, "pitch": 62, "duration": 217, "velocity": 90}, {"time": 59760, "pitch": 66, "duration": 217, "velocity": 100}, {"time": 59770, "pitch": 50, "duration": 217, "velocity": 90}, {"time": 59770, "pitch": 57, "duration": 217, "velocity": 80}, {"time": 59997, "pitch": 50, "duration": 221, "velocity": 100}, {"time": 59997, "pitch": 55, "duration": 221, "velocity": 80}, {"time": 60007, "pitch": 59, "duration": 221, "velocity": 90}, {"time": 60007, "pitch": 67, "duration": 221, "velocity": 100}, {"time": 60238, "pitch": 59, "duration": 221, "velocity": 80}, {"time": 60238, "pitch": 67, "duration": 221, "velocity": 90}, {"time": 60248, "pitch": 50, "duration": 221, "velocity": 80}, {"time": 60248, "pitch": 55, "duration": 221, "velocity": 70}, {"time": 60479, "pitch": 50, "duration": 10, "velocity": 100}, {"time": 60479, "pitch": 55, "duration": 10, "velocity": 80}, {"time": 60489, "pitch": 59, "duration": 10, "velocity": 90}, {"time": 60489, "pitch": 67, "duration": 10, "velocity": 100}, {"time": 60719, "pitch": 59, "duration": 221, "velocity": 80}, {"time": 60719, "pitch": 67, "duration": 221, "velocity": 90}, {"time": 60729, "pitch": 50, "duration": 221, "velocity": 80}, {"time": 60729, "pitch": 55, "duration": 221, "velocity": 70}, {"time": 60960, "pitch": 50, "duration": 221, "velocity": 100}, {"time": 60960, "pitch": 55, "duration": 221, "velocity": 80}, {"time": 60970, "pitch": 59, "duration": 221, "velocity": 90}, {"time": 60970, "pitch": 67, "duration": 221, "velocity": 100}, {"time": 61201, "pitch": 59, "duration": 221, "velocity": 80}, {"time": 61201, "pitch": 67, "duration": 221, "velocity": 90}, {"time": 61211, "pitch": 50, "duration": 221, "velocity": 80}, {"time": 61211, "pitch": 55, "duration": 221, "velocity": 70}, {"time": 61442, "pitch": 50, "duration": 10, "velocity": 100}, {"time": 61442, "pitch": 55, "duration": 10, "velocity": 80}, {"time": 61452, "pitch": 59, "duration": 10, "velocity": 90}, {"time": 61452, "pitch": 67, "duration": 10, "velocity": 100}, {"time": 61683, "pitch": 59, "duration": 220, "velocity": 90}, {"time": 61683, "pitch": 67, "duration": 220, "velocity": 90}, {"time": 61693, "pitch": 50, "duration": 220, "velocity": 80}, {"time": 61693, "pitch": 55, "duration": 220, "velocity": 70}, {"time": 61923, "pitch": 50, "duration": 218, "velocity": 100}, {"time": 61923, "pitch": 55, "duration": 218, "velocity": 80}, {"time": 61933, "pitch": 59, "duration": 218, "velocity": 90}, {"time": 61933, "pitch": 64, "duration": 218, "velocity": 100}, {"time": 62160, "pitch": 59, "duration": 218, "velocity": 80}, {"time": 62160, "pitch": 64, "duration": 218, "velocity": 90}, {"time": 62170, "pitch": 50, "duration": 218, "velocity": 80}, {"time": 62170, "pitch": 55, "duration": 218, "velocity": 70}, {"time": 62398, "pitch": 50, "duration": 10, "velocity": 100}, {"time": 62398, "pitch": 55, "duration": 10, "velocity": 80}, {"time": 62408, "pitch": 59, "duration": 10, "velocity": 90}, {"time": 62408, "pitch": 64, "duration": 10, "velocity": 100}, {"time": 62638, "pitch": 59, "duration": 221, "velocity": 80}, {"time": 62638, "pitch": 64, "duration": 221, "velocity": 90}, {"time": 62648, "pitch": 50, "duration": 221, "velocity": 80}, {"time": 62648, "pitch": 55, "duration": 221, "velocity": 70}, {"time": 62879, "pitch": 50, "duration": 10, "velocity": 100}, {"time": 62879, "pitch": 55, "duration": 10, "velocity": 80}, {"time": 62889, "pitch": 59, "duration": 10, "velocity": 90}, {"time": 62889, "pitch": 64, "duration": 10, "velocity": 100}, {"time": 63120, "pitch": 61, "duration": 682, "velocity": 90}, {"time": 63120, "pitch": 64, "duration": 682, "velocity": 100}, {"time": 63130, "pitch": 52, "duration": 682, "velocity": 90}, {"time": 63130, "pitch": 57, "duration": 682, "velocity": 80}, {"time": 63842, "pitch": 50, "duration": 218, "velocity": 100}, {"time": 63842, "pitch": 57, "duration": 218, "velocity": 80}, {"time": 63852, "pitch": 62, "duration": 218, "velocity": 90}, {"time": 63852, "pitch": 66, "duration": 218, "velocity": 100}, {"time": 64079, "pitch": 62, "duration": 218, "velocity": 80}, {"time": 64079, "pitch": 66, "duration": 218, "velocity": 90}, {"time": 64089, "pitch": 50, "duration": 218, "velocity": 80}, {"time": 64089, "pitch": 57, "duration": 218, "velocity": 70}, {"time": 64317, "pitch": 50, "duration": 10, "velocity": 100}, {"time": 64317, "pitch": 57, "duration": 10, "velocity": 80}, {"time": 64327, "pitch": 62, "duration": 10, "velocity": 90}, {"time": 64327, "pitch": 66, "duration": 10, "velocity": 100}, {"time": 64557, "pitch": 62, "duration": 221, "velocity": 80}, {"time": 64557, "pitch": 66, "duration": 221, "velocity": 90}, {"time": 64567, "pitch": 50, "duration": 221, "velocity": 80}, {"time": 64567, "pitch": 57, "duration": 221, "velocity": 70}, {"time": 64798, "pitch": 50, "duration": 221, "velocity": 100}, {"time": 64798, "pitch": 57, "duration": 221, "velocity": 80}, {"time": 64808, "pitch": 62, "duration": 221, "velocity": 90}, {"time": 64808, "pitch": 66, "duration": 221, "velocity": 100}, {"time": 65039, "pitch": 62, "duration": 221, "velocity": 80}, {"time": 65039, "pitch": 66, "duration": 221, "velocity": 90}, {"time": 65049, "pitch": 50, "duration": 221, "velocity": 80}, {"time": 65049, "pitch": 57, "duration": 221, "velocity": 70}, {"time": 65280, "pitch": 50, "duration": 10, "velocity": 100}, {"time": 65280, "pitch": 57, "duration": 10, "velocity": 80}, {"time": 65290, "pitch": 62, "duration": 10, "velocity": 90}, {"time": 65290, "pitch": 66, "duration": 10, "velocity": 100}, {"time": 65521, "pitch": 61, "duration": 471, "velocity": 90}, {"time": 65521, "pitch": 66, "duration": 471, "velocity": 100}, {"time": 65531, "pitch": 50, "duration": 451, "velocity": 90}, {"time": 65531, "pitch": 57, "duration": 451, "velocity": 80}, {"time": 66002, "pitch": 61, "duration": 221, "velocity": 80}, {"time": 66002, "pitch": 66, "duration": 221, "velocity": 90}, {"time": 66012, "pitch": 50, "duration": 221, "velocity": 80}, {"time": 66012, "pitch": 57, "duration": 221, "velocity": 70}, {"time": 66243, "pitch": 50, "duration": 10, "velocity": 100}, {"time": 66243, "pitch": 57, "duration": 10, "velocity": 80}, {"time": 66253, "pitch": 61, "duration": 10, "velocity": 90}, {"time": 66253, "pitch": 66, "duration": 10, "velocity": 100}, {"time": 66480, "pitch": 61, "duration": 217, "velocity": 80}, {"time": 66480, "pitch": 66, "duration": 217, "velocity": 90}, {"time": 66490, "pitch": 50, "duration": 217, "velocity": 80}, {"time": 66490, "pitch": 57, "duration": 217, "velocity": 70}, {"time": 66717, "pitch": 50, "duration": 221, "velocity": 100}, {"time": 66717, "pitch": 57, "duration": 221, "velocity": 80}, {"time": 66727, "pitch": 61, "duration": 221, "velocity": 90}, {"time": 66727, "pitch": 66, "duration": 221, "velocity": 100}, {"time": 66958, "pitch": 61, "duration": 221, "velocity": 80}, {"time": 66958, "pitch": 66, "duration": 221, "velocity": 90}, {"time": 66968, "pitch": 50, "duration": 221, "velocity": 80}, {"time": 66968, "pitch": 57, "duration": 221, "velocity": 70}, {"time": 67199, "pitch": 50, "duration": 10, "velocity": 100}, {"time": 67199, "pitch": 57, "duration": 10, "velocity": 80}, {"time": 67209, "pitch": 61, "duration": 10, "velocity": 90}, {"time": 67209, "pitch": 66, "duration": 10, "velocity": 100}, {"time": 67440, "pitch": 61, "duration": 220, "velocity": 90}, {"time": 67440, "pitch": 66, "duration": 220, "velocity": 90}, {"time": 67450, "pitch": 50, "duration": 220, "velocity": 80}, {"time": 67450, "pitch": 57, "duration": 220, "velocity": 70}, {"time": 67680, "pitch": 50, "duration": 221, "velocity": 100}, {"time": 67680, "pitch": 57, "duration": 221, "velocity": 80}, {"time": 67690, "pitch": 61, "duration": 221, "velocity": 90}, {"time": 67690, "pitch": 66, "duration": 221, "velocity": 100}, {"time": 67921, "pitch": 61, "duration": 221, "velocity": 80}, {"time": 67921, "pitch": 66, "duration": 221, "velocity": 90}, {"time": 67931, "pitch": 50, "duration": 221, "velocity": 80}, {"time": 67931, "pitch": 57, "duration": 221, "velocity": 70}, {"time": 68162, "pitch": 50, "duration": 10, "velocity": 100}, {"time": 68162, "pitch": 57, "duration": 10, "velocity": 80}, {"time": 68172, "pitch": 61, "duration": 10, "velocity": 90}, {"time": 68172, "pitch": 66, "duration": 10, "velocity": 100}, {"time": 68403, "pitch": 61, "duration": 220, "velocity": 80}, {"time": 68403, "pitch": 66, "duration": 220, "velocity": 90}, {"time": 68413, "pitch": 50, "duration": 220, "velocity": 80}, {"time": 68413, "pitch": 57, "duration": 220, "velocity": 70}, {"time": 68643, "pitch": 50, "duration": 218, "velocity": 100}, {"time": 68643, "pitch": 57, "duration": 218, "velocity": 80}, {"time": 68653, "pitch": 61, "duration": 218, "velocity": 90}, {"time": 68653, "pitch": 66, "duration": 218, "velocity": 100}, {"time": 68881, "pitch": 61, "duration": 217, "velocity": 80}, {"time": 68881, "pitch": 66, "duration": 217, "velocity": 90}, {"time": 68891, "pitch": 50, "duration": 217, "velocity": 80}, {"time": 68891, "pitch": 57, "duration": 217, "velocity": 70}, {"time": 69118, "pitch": 50, "duration": 10, "velocity": 100}, {"time": 69118, "pitch": 57, "duration": 10, "velocity": 80}, {"time": 69128, "pitch": 61, "duration": 10, "velocity": 90}, {"time": 69128, "pitch": 66, "duration": 10, "velocity": 100}, {"time": 69359, "pitch": 60, "duration": 471, "velocity": 90}, {"time": 69359, "pitch": 66, "duration": 471, "velocity": 100}, {"time": 69369, "pitch": 50, "duration": 451, "velocity": 90}, {"time": 69369, "pitch": 57, "duration": 451, "velocity": 80}, {"time": 69840, "pitch": 60, "duration": 221, "velocity": 80}, {"time": 69840, "pitch": 66, "duration": 221, "velocity": 90}, {"time": 69850, "pitch": 50, "duration": 221, "velocity": 80}, {"time": 69850, "pitch": 57, "duration": 221, "velocity": 70}, {"time": 70081, "pitch": 50, "duration": 10, "velocity": 100}, {"time": 70081, "pitch": 57, "duration": 10, "velocity": 80}, {"time": 70091, "pitch": 60, "duration": 10, "velocity": 90}, {"time": 70091, "pitch": 66, "duration": 10, "velocity": 100}, {"time": 70322, "pitch": 60, "duration": 220, "velocity": 80}, {"time": 70322, "pitch": 66, "duration": 220, "velocity": 90}, {"time": 70332, "pitch": 50, "duration": 220, "velocity": 80}, {"time": 70332, "pitch": 57, "duration": 220, "velocity": 70}, {"time": 70562, "pitch": 50, "duration": 218, "velocity": 100}, {"time": 70562, "pitch": 57, "duration": 218, "velocity": 80}, {"time": 70572, "pitch": 60, "duration": 218, "velocity": 90}, {"time": 70572, "pitch": 66, "duration": 218, "velocity": 100}, {"time": 70800, "pitch": 60, "duration": 217, "velocity": 80}, {"time": 70800, "pitch": 66, "duration": 217, "velocity": 90}, {"time": 70810, "pitch": 50, "duration": 217, "velocity": 80}, {"time": 70810, "pitch": 57, "duration": 217, "velocity": 70}, {"time": 71037, "pitch": 50, "duration": 10, "velocity": 100}, {"time": 71037, "pitch": 57, "duration": 10, "velocity": 80}, {"time": 71047, "pitch": 60, "duration": 10, "velocity": 90}, {"time": 71047, "pitch": 66, "duration": 10, "velocity": 100}, {"time": 71278, "pitch": 60, "duration": 220, "velocity": 90}, {"time": 71278, "pitch": 66, "duration": 220, "velocity": 90}, {"time": 71288, "pitch": 50, "duration": 220, "velocity": 80}, {"time": 71288, "pitch": 57, "duration": 220, "velocity": 70}, {"time": 71518, "pitch": 50, "duration": 221, "velocity": 100}, {"time": 71518, "pitch": 55, "duration": 221, "velocity": 80}, {"time": 71528, "pitch": 59, "duration": 221, "velocity": 90}, {"time": 71528, "pitch": 67, "duration": 221, "velocity": 100}, {"time": 71759, "pitch": 59, "duration": 221, "velocity": 80}, {"time": 71759, "pitch": 67, "duration": 221, "velocity": 90}, {"time": 71769, "pitch": 50, "duration": 221, "velocity": 80}, {"time": 71769, "pitch": 55, "duration": 221, "velocity": 70}, {"time": 72000, "pitch": 50, "duration": 10, "velocity": 100}, {"time": 72000, "pitch": 55, "duration": 10, "velocity": 80}, {"time": 72010, "pitch": 59, "duration": 10, "velocity": 90}, {"time": 72010, "pitch": 67, "duration": 10, "velocity": 100}, {"time": 72241, "pitch": 59, "duration": 220, "velocity": 80}, {"time": 72241, "pitch": 67, "duration": 220, "velocity": 90}, {"time": 72251, "pitch": 50, "duration": 220, "velocity": 80}, {"time": 72251, "pitch": 55, "duration": 220, "velocity": 70}, {"time": 72481, "pitch": 50, "duration": 221, "velocity": 100}, {"time": 72481, "pitch": 55, "duration": 221, "velocity": 80}, {"time": 72492, "pitch": 59, "duration": 220, "velocity": 90}, {"time": 72492, "pitch": 67, "duration": 220, "velocity": 100}, {"time": 72722, "pitch": 59, "duration": 221, "velocity": 80}, {"time": 72722, "pitch": 67, "duration": 221, "velocity": 90}, {"time": 72732, "pitch": 50, "duration": 221, "velocity": 80}, {"time": 72732, "pitch": 55, "duration": 221, "velocity": 70}, {"time": 72963, "pitch": 50, "duration": 10, "velocity": 100}, {"time": 72963, "pitch": 55, "duration": 10, "velocity": 80}, {"time": 72973, "pitch": 59, "duration": 10, "velocity": 90}, {"time": 72973, "pitch": 67, "duration": 10, "velocity": 100}, {"time": 73200, "pitch": 59, "duration": 218, "velocity": 90}, {"time": 73200, "pitch": 67, "duration": 218, "velocity": 90}, {"time": 73210, "pitch": 50, "duration": 217, "velocity": 80}, {"time": 73210, "pitch": 55, "duration": 217, "velocity": 70}, {"time": 73437, "pitch": 50, "duration": 221, "velocity": 100}, {"time": 73437, "pitch": 57, "duration": 221, "velocity": 80}, {"time": 73447, "pitch": 62, "duration": 221, "velocity": 90}, {"time": 73447, "pitch": 66, "duration": 221, "velocity": 100}, {"time": 73678, "pitch": 62, "duration": 221, "velocity": 80}, {"time": 73678, "pitch": 66, "duration": 221, "velocity": 90}, {"time": 73688, "pitch": 50, "duration": 221, "velocity": 80}, {"time": 73688, "pitch": 57, "duration": 221, "velocity": 70}, {"time": 73919, "pitch": 50, "duration": 10, "velocity": 100}, {"time": 73919, "pitch": 57, "duration": 10, "velocity": 80}, {"time": 73929, "pitch": 62, "duration": 10, "velocity": 90}, {"time": 73929, "pitch": 66, "duration": 10, "velocity": 100}, {"time": 74160, "pitch": 62, "duration": 220, "velocity": 80}, {"time": 74160, "pitch": 66, "duration": 220, "velocity": 90}, {"time": 74170, "pitch": 50, "duration": 220, "velocity": 80}, {"time": 74170, "pitch": 57, "duration": 220, "velocity": 70}, {"time": 74400, "pitch": 50, "duration": 221, "velocity": 100}, {"time": 74400, "pitch": 57, "duration": 221, "velocity": 80}, {"time": 74411, "pitch": 62, "duration": 220, "velocity": 90}, {"time": 74411, "pitch": 66, "duration": 220, "velocity": 100}, {"time": 74641, "pitch": 62, "duration": 221, "velocity": 80}, {"time": 74641, "pitch": 66, "duration": 221, "velocity": 90}, {"time": 74651, "pitch": 50, "duration": 221, "velocity": 80}, {"time": 74651, "pitch": 57, "duration": 221, "velocity": 70}, {"time": 74882, "pitch": 50, "duration": 10, "velocity": 100}, {"time": 74882, "pitch": 57, "duration": 10, "velocity": 80}, {"time": 74892, "pitch": 62, "duration": 10, "velocity": 90}, {"time": 74892, "pitch": 66, "duration": 10, "velocity": 100}, {"time": 75123, "pitch": 62, "duration": 221, "velocity": 90}, {"time": 75123, "pitch": 66, "duration": 221, "velocity": 100}, {"time": 75133, "pitch": 50, "duration": 221, "velocity": 90}, {"time": 75133, "pitch": 57, "duration": 221, "velocity": 80}, {"time": 75364, "pitch": 50, "duration": 217, "velocity": 100}, {"time": 75364, "pitch": 55, "duration": 217, "velocity": 80}, {"time": 75373, "pitch": 59, "duration": 218, "velocity": 90}, {"time": 75373, "pitch": 67, "duration": 218, "velocity": 100}, {"time": 75601, "pitch": 59, "duration": 217, "velocity": 80}, {"time": 75601, "pitch": 67, "duration": 217, "velocity": 90}, {"time": 75611, "pitch": 50, "duration": 217, "velocity": 80}, {"time": 75611, "pitch": 55, "duration": 217, "velocity": 70}, {"time": 75838, "pitch": 50, "duration": 10, "velocity": 100}, {"time": 75838, "pitch": 55, "duration": 10, "velocity": 80}, {"time": 75848, "pitch": 59, "duration": 10, "velocity": 90}, {"time": 75848, "pitch": 67, "duration": 10, "velocity": 100}, {"time": 76079, "pitch": 59, "duration": 220, "velocity": 80}, {"time": 76079, "pitch": 67, "duration": 220, "velocity": 90}, {"time": 76089, "pitch": 50, "duration": 220, "velocity": 80}, {"time": 76089, "pitch": 55, "duration": 220, "velocity": 70}, {"time": 76319, "pitch": 50, "duration": 221, "velocity": 100}, {"time": 76319, "pitch": 55, "duration": 221, "velocity": 80}, {"time": 76329, "pitch": 59, "duration": 221, "velocity": 90}, {"time": 76329, "pitch": 67, "duration": 221, "velocity": 100}, {"time": 76560, "pitch": 59, "duration": 221, "velocity": 80}, {"time": 76560, "pitch": 67, "duration": 221, "velocity": 90}, {"time": 76570, "pitch": 50, "duration": 221, "velocity": 80}, {"time": 76570, "pitch": 55, "duration": 221, "velocity": 70}, {"time": 76801, "pitch": 50, "duration": 10, "velocity": 100}, {"time": 76801, "pitch": 55, "duration": 10, "velocity": 80}, {"time": 76811, "pitch": 59, "duration": 10, "velocity": 90}, {"time": 76811, "pitch": 67, "duration": 10, "velocity": 100}, {"time": 77042, "pitch": 59, "duration": 221, "velocity": 90}, {"time": 77042, "pitch": 67, "duration": 221, "velocity": 90}, {"time": 77052, "pitch": 50, "duration": 221, "velocity": 80}, {"time": 77052, "pitch": 55, "duration": 221, "velocity": 70}, {"time": 77283, "pitch": 55, "duration": 217, "velocity": 100}, {"time": 77283, "pitch": 58, "duration": 217, "velocity": 80}, {"time": 77292, "pitch": 62, "duration": 218, "velocity": 90}, {"time": 77292, "pitch": 67, "duration": 218, "velocity": 100}, {"time": 77520, "pitch": 62, "duration": 217, "velocity": 80}, {"time": 77520, "pitch": 67, "duration": 217, "velocity": 90}, {"time": 77530, "pitch": 55, "duration": 217, "velocity": 80}, {"time": 77530, "pitch": 58, "duration": 217, "velocity": 70}, {"time": 77757, "pitch": 55, "duration": 10, "velocity": 100}, {"time": 77757, "pitch": 58, "duration": 10, "velocity": 80}, {"time": 77767, "pitch": 62, "duration": 10, "velocity": 90}, {"time": 77767, "pitch": 67, "duration": 10, "velocity": 100}, {"time": 77998, "pitch": 62, "duration": 451, "velocity": 90}, {"time": 77998, "pitch": 67, "duration": 451, "velocity": 100}, {"time": 78008, "pitch": 54, "duration": 451, "velocity": 90}, {"time": 78008, "pitch": 58, "duration": 451, "velocity": 80}, {"time": 78479, "pitch": 55, "duration": 452, "velocity": 100}, {"time": 78479, "pitch": 58, "duration": 452, "velocity": 80}, {"time": 78489, "pitch": 62, "duration": 452, "velocity": 90}, {"time": 78489, "pitch": 67, "duration": 452, "velocity": 100}, {"time": 78961, "pitch": 63, "duration": 4059, "velocity": 100}, {"time": 78961, "pitch": 67, "duration": 4059, "velocity": 100}, {"time": 78971, "pitch": 44, "duration": 4049, "velocity": 100}, {"time": 78971, "pitch": 58, "duration": 4049, "velocity": 80}, {"time": 131036, "pitch": 50, "duration": 221, "velocity": 100}, {"time": 131036, "pitch": 57, "duration": 221, "velocity": 80}, {"time": 131046, "pitch": 62, "duration": 221, "velocity": 90}, {"time": 131046, "pitch": 66, "duration": 221, "velocity": 100}, {"time": 131277, "pitch": 62, "duration": 221, "velocity": 80}, {"time": 131277, "pitch": 66, "duration": 221, "velocity": 90}, {"time": 131287, "pitch": 50, "duration": 221, "velocity": 80}, {"time": 131287, "pitch": 57, "duration": 221, "velocity": 70}, {"time": 131518, "pitch": 50, "duration": 10, "velocity": 100}, {"time": 131518, "pitch": 57, "duration": 10, "velocity": 80}, {"time": 131528, "pitch": 62, "duration": 10, "velocity": 90}, {"time": 131528, "pitch": 66, "duration": 10, "velocity": 100}, {"time": 131759, "pitch": 62, "duration": 220, "velocity": 80}, {"time": 131759, "pitch": 66, "duration": 220, "velocity": 90}, {"time": 131769, "pitch": 50, "duration": 220, "velocity": 80}, {"time": 131769, "pitch": 57, "duration": 220, "velocity": 70}, {"time": 132000, "pitch": 50, "duration": 220, "velocity": 100}, {"time": 132000, "pitch": 57, "duration": 220, "velocity": 80}, {"time": 132010, "pitch": 62, "duration": 220, "velocity": 90}, {"time": 132010, "pitch": 66, "duration": 220, "velocity": 100}, {"time": 132240, "pitch": 62, "duration": 221, "velocity": 80}, {"time": 132240, "pitch": 66, "duration": 221, "velocity": 90}, {"time": 132250, "pitch": 50, "duration": 221, "velocity": 80}, {"time": 132250, "pitch": 57, "duration": 221, "velocity": 70}, {"time": 132481, "pitch": 50, "duration": 10, "velocity": 100}, {"time": 132481, "pitch": 57, "duration": 10, "velocity": 80}, {"time": 132491, "pitch": 62, "duration": 10, "velocity": 90}, {"time": 132491, "pitch": 66, "duration": 10, "velocity": 100}, {"time": 132722, "pitch": 61, "duration": 468, "velocity": 90}, {"time": 132722, "pitch": 66, "duration": 468, "velocity": 100}, {"time": 132732, "pitch": 50, "duration": 448, "velocity": 90}, {"time": 132732, "pitch": 57, "duration": 448, "velocity": 80}, {"time": 133200, "pitch": 61, "duration": 217, "velocity": 80}, {"time": 133200, "pitch": 66, "duration": 217, "velocity": 90}, {"time": 133210, "pitch": 50, "duration": 217, "velocity": 80}, {"time": 133210, "pitch": 57, "duration": 217, "velocity": 70}, {"time": 133437, "pitch": 50, "duration": 10, "velocity": 100}, {"time": 133437, "pitch": 57, "duration": 10, "velocity": 80}, {"time": 133447, "pitch": 61, "duration": 10, "velocity": 90}, {"time": 133447, "pitch": 66, "duration": 10, "velocity": 100}, {"time": 133678, "pitch": 61, "duration": 220, "velocity": 80}, {"time": 133678, "pitch": 66, "duration": 220, "velocity": 90}, {"time": 133688, "pitch": 50, "duration": 220, "velocity": 80}, {"time": 133688, "pitch": 57, "duration": 220, "velocity": 70}, {"time": 133919, "pitch": 50, "duration": 220, "velocity": 100}, {"time": 133919, "pitch": 57, "duration": 220, "velocity": 80}, {"time": 133929, "pitch": 61, "duration": 220, "velocity": 90}, {"time": 133929, "pitch": 66, "duration": 220, "velocity": 100}, {"time": 134159, "pitch": 61, "duration": 221, "velocity": 80}, {"time": 134159, "pitch": 66, "duration": 221, "velocity": 90}, {"time": 134169, "pitch": 50, "duration": 221, "velocity": 80}, {"time": 134169, "pitch": 57, "duration": 221, "velocity": 70}, {"time": 134400, "pitch": 50, "duration": 10, "velocity": 100}, {"time": 134400, "pitch": 57, "duration": 10, "velocity": 80}, {"time": 134410, "pitch": 61, "duration": 10, "velocity": 90}, {"time": 134410, "pitch": 66, "duration": 10, "velocity": 100}, {"time": 134641, "pitch": 61, "duration": 221, "velocity": 90}, {"time": 134641, "pitch": 66, "duration": 221, "velocity": 90}, {"time": 134651, "pitch": 50, "duration": 221, "velocity": 80}, {"time": 134651, "pitch": 57, "duration": 221, "velocity": 70}, {"time": 134882, "pitch": 50, "duration": 220, "velocity": 100}, {"time": 134882, "pitch": 57, "duration": 220, "velocity": 80}, {"time": 134892, "pitch": 61, "duration": 220, "velocity": 90}, {"time": 134892, "pitch": 66, "duration": 220, "velocity": 100}, {"time": 135122, "pitch": 61, "duration": 221, "velocity": 80}, {"time": 135122, "pitch": 66, "duration": 221, "velocity": 90}, {"time": 135133, "pitch": 50, "duration": 220, "velocity": 80}, {"time": 135133, "pitch": 57, "duration": 220, "velocity": 70}, {"time": 135363, "pitch": 50, "duration": 10, "velocity": 100}, {"time": 135363, "pitch": 57, "duration": 10, "velocity": 80}, {"time": 135373, "pitch": 61, "duration": 10, "velocity": 90}, {"time": 135373, "pitch": 66, "duration": 10, "velocity": 100}, {"time": 135600, "pitch": 61, "duration": 218, "velocity": 80}, {"time": 135600, "pitch": 66, "duration": 218, "velocity": 90}, {"time": 135610, "pitch": 50, "duration": 218, "velocity": 80}, {"time": 135610, "pitch": 57, "duration": 218, "velocity": 70}, {"time": 135838, "pitch": 50, "duration": 220, "velocity": 100}, {"time": 135838, "pitch": 57, "duration": 220, "velocity": 80}, {"time": 135848, "pitch": 61, "duration": 220, "velocity": 90}, {"time": 135848, "pitch": 66, "duration": 220, "velocity": 100}, {"time": 136078, "pitch": 61, "duration": 221, "velocity": 80}, {"time": 136078, "pitch": 66, "duration": 221, "velocity": 90}, {"time": 136088, "pitch": 50, "duration": 221, "velocity": 80}, {"time": 136088, "pitch": 57, "duration": 221, "velocity": 70}, {"time": 136319, "pitch": 50, "duration": 10, "velocity": 100}, {"time": 136319, "pitch": 57, "duration": 10, "velocity": 80}, {"time": 136329, "pitch": 61, "duration": 10, "velocity": 90}, {"time": 136329, "pitch": 66, "duration": 10, "velocity": 100}, {"time": 136560, "pitch": 60, "duration": 471, "velocity": 90}, {"time": 136560, "pitch": 66, "duration": 471, "velocity": 100}, {"time": 136570, "pitch": 50, "duration": 451, "velocity": 90}, {"time": 136570, "pitch": 57, "duration": 451, "velocity": 80}, {"time": 137041, "pitch": 60, "duration": 221, "velocity": 80}, {"time": 137041, "pitch": 66, "duration": 221, "velocity": 90}, {"time": 137052, "pitch": 50, "duration": 220, "velocity": 80}, {"time": 137052, "pitch": 57, "duration": 220, "velocity": 70}, {"time": 137282, "pitch": 50, "duration": 10, "velocity": 100}, {"time": 137282, "pitch": 57, "duration": 10, "velocity": 80}, {"time": 137292, "pitch": 60, "duration": 10, "velocity": 90}, {"time": 137292, "pitch": 66, "duration": 10, "velocity": 100}, {"time": 137519, "pitch": 60, "duration": 218, "velocity": 80}, {"time": 137519, "pitch": 66, "duration": 218, "velocity": 90}, {"time": 137529, "pitch": 50, "duration": 218, "velocity": 80}, {"time": 137529, "pitch": 57, "duration": 218, "velocity": 70}, {"time": 137757, "pitch": 50, "duration": 220, "velocity": 100}, {"time": 137757, "pitch": 57, "duration": 220, "velocity": 80}, {"time": 137767, "pitch": 60, "duration": 220, "velocity": 90}, {"time": 137767, "pitch": 66, "duration": 220, "velocity": 100}, {"time": 137997, "pitch": 60, "duration": 221, "velocity": 80}, {"time": 137997, "pitch": 66, "duration": 221, "velocity": 90}, {"time": 138007, "pitch": 50, "duration": 221, "velocity": 80}, {"time": 138007, "pitch": 57, "duration": 221, "velocity": 70}, {"time": 138238, "pitch": 50, "duration": 10, "velocity": 100}, {"time": 138238, "pitch": 57, "duration": 10, "velocity": 80}, {"time": 138248, "pitch": 60, "duration": 10, "velocity": 90}, {"time": 138248, "pitch": 66, "duration": 10, "velocity": 100}, {"time": 138479, "pitch": 60, "duration": 221, "velocity": 90}, {"time": 138479, "pitch": 66, "duration": 221, "velocity": 90}, {"time": 138489, "pitch": 50, "duration": 221, "velocity": 80}, {"time": 138489, "pitch": 57, "duration": 221, "velocity": 70}, {"time": 138720, "pitch": 50, "duration": 220, "velocity": 100}, {"time": 138720, "pitch": 55, "duration": 220, "velocity": 80}, {"time": 138730, "pitch": 59, "duration": 220, "velocity": 90}, {"time": 138730, "pitch": 67, "duration": 220, "velocity": 100}, {"time": 138960, "pitch": 59, "duration": 221, "velocity": 80}, {"time": 138960, "pitch": 67, "duration": 221, "velocity": 90}, {"time": 138970, "pitch": 50, "duration": 221, "velocity": 80}, {"time": 138970, "pitch": 55, "duration": 221, "velocity": 70}, {"time": 139201, "pitch": 50, "duration": 10, "velocity": 100}, {"time": 139201, "pitch": 55, "duration": 10, "velocity": 80}, {"time": 139211, "pitch": 59, "duration": 10, "velocity": 90}, {"time": 139211, "pitch": 67, "duration": 10, "velocity": 100}, {"time": 139442, "pitch": 59, "duration": 221, "velocity": 80}, {"time": 139442, "pitch": 67, "duration": 221, "velocity": 90}, {"time": 139452, "pitch": 50, "duration": 221, "velocity": 80}, {"time": 139452, "pitch": 55, "duration": 221, "velocity": 70}, {"time": 139683, "pitch": 50, "duration": 217, "velocity": 100}, {"time": 139683, "pitch": 55, "duration": 217, "velocity": 80}, {"time": 139693, "pitch": 59, "duration": 217, "velocity": 90}, {"time": 139693, "pitch": 67, "duration": 217, "velocity": 100}, {"time": 139920, "pitch": 59, "duration": 217, "velocity": 80}, {"time": 139920, "pitch": 67, "duration": 217, "velocity": 90}, {"time": 139930, "pitch": 50, "duration": 217, "velocity": 80}, {"time": 139930, "pitch": 55, "duration": 217, "velocity": 70}, {"time": 140157, "pitch": 50, "duration": 10, "velocity": 100}, {"time": 140157, "pitch": 55, "duration": 10, "velocity": 80}, {"time": 140167, "pitch": 59, "duration": 10, "velocity": 90}, {"time": 140167, "pitch": 67, "duration": 10, "velocity": 100}, {"time": 140398, "pitch": 59, "duration": 221, "velocity": 90}, {"time": 140398, "pitch": 67, "duration": 221, "velocity": 90}, {"time": 140408, "pitch": 50, "duration": 221, "velocity": 80}, {"time": 140408, "pitch": 55, "duration": 221, "velocity": 70}, {"time": 140639, "pitch": 50, "duration": 220, "velocity": 100}, {"time": 140639, "pitch": 57, "duration": 220, "velocity": 80}, {"time": 140649, "pitch": 62, "duration": 220, "velocity": 90}, {"time": 140649, "pitch": 66, "duration": 220, "velocity": 100}, {"time": 140879, "pitch": 62, "duration": 221, "velocity": 80}, {"time": 140879, "pitch": 66, "duration": 221, "velocity": 90}, {"time": 140889, "pitch": 50, "duration": 221, "velocity": 80}, {"time": 140889, "pitch": 57, "duration": 221, "velocity": 70}, {"time": 141120, "pitch": 50, "duration": 10, "velocity": 100}, {"time": 141120, "pitch": 57, "duration": 10, "velocity": 80}, {"time": 141130, "pitch": 62, "duration": 10, "velocity": 90}, {"time": 141130, "pitch": 66, "duration": 10, "velocity": 100}, {"time": 141361, "pitch": 62, "duration": 221, "velocity": 80}, {"time": 141361, "pitch": 66, "duration": 221, "velocity": 90}, {"time": 141371, "pitch": 50, "duration": 221, "velocity": 80}, {"time": 141371, "pitch": 57, "duration": 221, "velocity": 70}, {"time": 141602, "pitch": 50, "duration": 221, "velocity": 100}, {"time": 141602, "pitch": 57, "duration": 221, "velocity": 80}, {"time": 141612, "pitch": 62, "duration": 221, "velocity": 90}, {"time": 141612, "pitch": 66, "duration": 221, "velocity": 100}, {"time": 141843, "pitch": 62, "duration": 220, "velocity": 80}, {"time": 141843, "pitch": 66, "duration": 220, "velocity": 90}, {"time": 141853, "pitch": 50, "duration": 220, "velocity": 80}, {"time": 141853, "pitch": 57, "duration": 220, "velocity": 70}, {"time": 142083, "pitch": 50, "duration": 10, "velocity": 100}, {"time": 142083, "pitch": 57, "duration": 10, "velocity": 80}, {"time": 142093, "pitch": 62, "duration": 10, "velocity": 90}, {"time": 142093, "pitch": 66, "duration": 10, "velocity": 100}, {"time": 142321, "pitch": 62, "duration": 217, "velocity": 90}, {"time": 142321, "pitch": 66, "duration": 217, "velocity": 100}, {"time": 142330, "pitch": 50, "duration": 218, "velocity": 90}, {"time": 142330, "pitch": 57, "duration": 218, "velocity": 80}, {"time": 142558, "pitch": 50, "duration": 220, "velocity": 100}, {"time": 142558, "pitch": 55, "duration": 220, "velocity": 80}, {"time": 142568, "pitch": 59, "duration": 220, "velocity": 90}, {"time": 142568, "pitch": 67, "duration": 220, "velocity": 100}, {"time": 142798, "pitch": 59, "duration": 221, "velocity": 80}, {"time": 142798, "pitch": 67, "duration": 221, "velocity": 90}, {"time": 142808, "pitch": 50, "duration": 221, "velocity": 80}, {"time": 142808, "pitch": 55, "duration": 221, "velocity": 70}, {"time": 143039, "pitch": 50, "duration": 10, "velocity": 100}, {"time": 143039, "pitch": 55, "duration": 10, "velocity": 80}, {"time": 143049, "pitch": 59, "duration": 10, "velocity": 90}, {"time": 143049, "pitch": 67, "duration": 10, "velocity": 100}, {"time": 143280, "pitch": 59, "duration": 221, "velocity": 80}, {"time": 143280, "pitch": 67, "duration": 221, "velocity": 90}, {"time": 143290, "pitch": 50, "duration": 221, "velocity": 80}, {"time": 143290, "pitch": 55, "duration": 221, "velocity": 70}, {"time": 143521, "pitch": 50, "duration": 221, "velocity": 100}, {"time": 143521, "pitch": 55, "duration": 221, "velocity": 80}, {"time": 143531, "pitch": 59, "duration": 221, "velocity": 90}, {"time": 143531, "pitch": 67, "duration": 221, "velocity": 100}, {"time": 143762, "pitch": 59, "duration": 220, "velocity": 80}, {"time": 143762, "pitch": 67, "duration": 220, "velocity": 90}, {"time": 143772, "pitch": 50, "duration": 220, "velocity": 80}, {"time": 143772, "pitch": 55, "duration": 220, "velocity": 70}, {"time": 144002, "pitch": 50, "duration": 10, "velocity": 100}, {"time": 144002, "pitch": 55, "duration": 10, "velocity": 80}, {"time": 144012, "pitch": 59, "duration": 10, "velocity": 90}, {"time": 144012, "pitch": 67, "duration": 10, "velocity": 100}, {"time": 144240, "pitch": 59, "duration": 217, "velocity": 90}, {"time": 144240, "pitch": 67, "duration": 217, "velocity": 90}, {"time": 144249, "pitch": 50, "duration": 218, "velocity": 80}, {"time": 144249, "pitch": 55, "duration": 218, "velocity": 70}, {"time": 144477, "pitch": 50, "duration": 220, "velocity": 100}, {"time": 144477, "pitch": 55, "duration": 220, "velocity": 80}, {"time": 144487, "pitch": 59, "duration": 220, "velocity": 90}, {"time": 144487, "pitch": 64, "duration": 220, "velocity": 100}, {"time": 144717, "pitch": 59, "duration": 221, "velocity": 80}, {"time": 144717, "pitch": 64, "duration": 221, "velocity": 90}, {"time": 144727, "pitch": 50, "duration": 221, "velocity": 80}, {"time": 144727, "pitch": 55, "duration": 221, "velocity": 70}, {"time": 144958, "pitch": 50, "duration": 10, "velocity": 100}, {"time": 144958, "pitch": 55, "duration": 10, "velocity": 80}, {"time": 144968, "pitch": 59, "duration": 10, "velocity": 90}, {"time": 144968, "pitch": 64, "duration": 10, "velocity": 100}, {"time": 145199, "pitch": 59, "duration": 221, "velocity": 80}, {"time": 145199, "pitch": 64, "duration": 221, "velocity": 90}, {"time": 145209, "pitch": 50, "duration": 221, "velocity": 80}, {"time": 145209, "pitch": 55, "duration": 221, "velocity": 70}, {"time": 145440, "pitch": 50, "duration": 10, "velocity": 100}, {"time": 145440, "pitch": 55, "duration": 10, "velocity": 80}, {"time": 145450, "pitch": 59, "duration": 10, "velocity": 90}, {"time": 145450, "pitch": 64, "duration": 10, "velocity": 100}, {"time": 145681, "pitch": 61, "duration": 682, "velocity": 90}, {"time": 145681, "pitch": 64, "duration": 682, "velocity": 100}, {"time": 145691, "pitch": 52, "duration": 682, "velocity": 90}, {"time": 145691, "pitch": 57, "duration": 682, "velocity": 80}, {"time": 146403, "pitch": 50, "duration": 217, "velocity": 100}, {"time": 146403, "pitch": 57, "duration": 217, "velocity": 80}, {"time": 146413, "pitch": 62, "duration": 217, "velocity": 90}, {"time": 146413, "pitch": 66, "duration": 217, "velocity": 100}, {"time": 146640, "pitch": 62, "duration": 217, "velocity": 80}, {"time": 146640, "pitch": 66, "duration": 217, "velocity": 90}, {"time": 146650, "pitch": 50, "duration": 217, "velocity": 80}, {"time": 146650, "pitch": 57, "duration": 217, "velocity": 70}, {"time": 146877, "pitch": 50, "duration": 10, "velocity": 100}, {"time": 146877, "pitch": 57, "duration": 10, "velocity": 80}, {"time": 146887, "pitch": 62, "duration": 10, "velocity": 90}, {"time": 146887, "pitch": 66, "duration": 10, "velocity": 100}, {"time": 147118, "pitch": 62, "duration": 221, "velocity": 80}, {"time": 147118, "pitch": 66, "duration": 221, "velocity": 90}, {"time": 147128, "pitch": 50, "duration": 221, "velocity": 80}, {"time": 147128, "pitch": 57, "duration": 221, "velocity": 70}, {"time": 147359, "pitch": 50, "duration": 221, "velocity": 100}, {"time": 147359, "pitch": 57, "duration": 221, "velocity": 80}, {"time": 147369, "pitch": 62, "duration": 221, "velocity": 90}, {"time": 147369, "pitch": 66, "duration": 221, "velocity": 100}, {"time": 147600, "pitch": 62, "duration": 220, "velocity": 80}, {"time": 147600, "pitch": 66, "duration": 220, "velocity": 90}, {"time": 147610, "pitch": 50, "duration": 220, "velocity": 80}, {"time": 147610, "pitch": 57, "duration": 220, "velocity": 70}, {"time": 147840, "pitch": 50, "duration": 10, "velocity": 100}, {"time": 147840, "pitch": 57, "duration": 10, "velocity": 80}, {"time": 147850, "pitch": 62, "duration": 10, "velocity": 90}, {"time": 147850, "pitch": 66, "duration": 10, "velocity": 100}, {"time": 148081, "pitch": 61, "duration": 472, "velocity": 90}, {"time": 148081, "pitch": 66, "duration": 472, "velocity": 100}, {"time": 148091, "pitch": 50, "duration": 452, "velocity": 90}, {"time": 148091, "pitch": 57, "duration": 452, "velocity": 80}, {"time": 148563, "pitch": 61, "duration": 220, "velocity": 80}, {"time": 148563, "pitch": 66, "duration": 220, "velocity": 90}, {"time": 148573, "pitch": 50, "duration": 221, "velocity": 80}, {"time": 148573, "pitch": 57, "duration": 221, "velocity": 70}, {"time": 148804, "pitch": 50, "duration": 9, "velocity": 100}, {"time": 148804, "pitch": 57, "duration": 9, "velocity": 80}, {"time": 148813, "pitch": 61, "duration": 10, "velocity": 90}, {"time": 148813, "pitch": 66, "duration": 10, "velocity": 100}, {"time": 149041, "pitch": 61, "duration": 217, "velocity": 80}, {"time": 149041, "pitch": 66, "duration": 217, "velocity": 90}, {"time": 149051, "pitch": 50, "duration": 217, "velocity": 80}, {"time": 149051, "pitch": 57, "duration": 217, "velocity": 70}, {"time": 149278, "pitch": 50, "duration": 221, "velocity": 100}, {"time": 149278, "pitch": 57, "duration": 221, "velocity": 80}, {"time": 149288, "pitch": 61, "duration": 221, "velocity": 90}, {"time": 149288, "pitch": 66, "duration": 221, "velocity": 100}, {"time": 149519, "pitch": 61, "duration": 220, "velocity": 80}, {"time": 149519, "pitch": 66, "duration": 220, "velocity": 90}, {"time": 149529, "pitch": 50, "duration": 220, "velocity": 80}, {"time": 149529, "pitch": 57, "duration": 220, "velocity": 70}, {"time": 149759, "pitch": 50, "duration": 10, "velocity": 100}, {"time": 149759, "pitch": 57, "duration": 10, "velocity": 80}, {"time": 149769, "pitch": 61, "duration": 10, "velocity": 90}, {"time": 149769, "pitch": 66, "duration": 10, "velocity": 100}, {"time": 150000, "pitch": 61, "duration": 221, "velocity": 90}, {"time": 150000, "pitch": 66, "duration": 221, "velocity": 90}, {"time": 150010, "pitch": 50, "duration": 221, "velocity": 80}, {"time": 150010, "pitch": 57, "duration": 221, "velocity": 70}, {"time": 150241, "pitch": 50, "duration": 221, "velocity": 100}, {"time": 150241, "pitch": 57, "duration": 221, "velocity": 80}, {"time": 150251, "pitch": 61, "duration": 221, "velocity": 90}, {"time": 150251, "pitch": 66, "duration": 221, "velocity": 100}, {"time": 150482, "pitch": 61, "duration": 220, "velocity": 80}, {"time": 150482, "pitch": 66, "duration": 220, "velocity": 90}, {"time": 150492, "pitch": 50, "duration": 221, "velocity": 80}, {"time": 150492, "pitch": 57, "duration": 221, "velocity": 70}, {"time": 150723, "pitch": 50, "duration": 9, "velocity": 100}, {"time": 150723, "pitch": 57, "duration": 9, "velocity": 80}, {"time": 150732, "pitch": 61, "duration": 10, "velocity": 90}, {"time": 150732, "pitch": 66, "duration": 10, "velocity": 100}, {"time": 150960, "pitch": 61, "duration": 217, "velocity": 80}, {"time": 150960, "pitch": 66, "duration": 217, "velocity": 90}, {"time": 150970, "pitch": 50, "duration": 217, "velocity": 80}, {"time": 150970, "pitch": 57, "duration": 217, "velocity": 70}, {"time": 151197, "pitch": 50, "duration": 220, "velocity": 100}, {"time": 151197, "pitch": 57, "duration": 220, "velocity": 80}, {"time": 151207, "pitch": 61, "duration": 221, "velocity": 90}, {"time": 151207, "pitch": 66, "duration": 221, "velocity": 100}, {"time": 151438, "pitch": 61, "duration": 220, "velocity": 80}, {"time": 151438, "pitch": 66, "duration": 220, "velocity": 90}, {"time": 151448, "pitch": 50, "duration": 220, "velocity": 80}, {"time": 151448, "pitch": 57, "duration": 220, "velocity": 70}, {"time": 151678, "pitch": 50, "duration": 10, "velocity": 100}, {"time": 151678, "pitch": 57, "duration": 10, "velocity": 80}, {"time": 151688, "pitch": 61, "duration": 10, "velocity": 90}, {"time": 151688, "pitch": 66, "duration": 10, "velocity": 100}, {"time": 151919, "pitch": 60, "duration": 472, "velocity": 90}, {"time": 151919, "pitch": 66, "duration": 472, "velocity": 100}, {"time": 151929, "pitch": 50, "duration": 452, "velocity": 90}, {"time": 151929, "pitch": 57, "duration": 452, "velocity": 80}, {"time": 152401, "pitch": 60, "duration": 220, "velocity": 80}, {"time": 152401, "pitch": 66, "duration": 220, "velocity": 90}, {"time": 152411, "pitch": 50, "duration": 220, "velocity": 80}, {"time": 152411, "pitch": 57, "duration": 220, "velocity": 70}, {"time": 152642, "pitch": 50, "duration": 10, "velocity": 100}, {"time": 152642, "pitch": 57, "duration": 10, "velocity": 80}, {"time": 152652, "pitch": 60, "duration": 10, "velocity": 90}, {"time": 152652, "pitch": 66, "duration": 10, "velocity": 100}, {"time": 152882, "pitch": 60, "duration": 221, "velocity": 80}, {"time": 152882, "pitch": 66, "duration": 221, "velocity": 90}, {"time": 152892, "pitch": 50, "duration": 221, "velocity": 80}, {"time": 152892, "pitch": 57, "duration": 221, "velocity": 70}, {"time": 153123, "pitch": 50, "duration": 217, "velocity": 100}, {"time": 153123, "pitch": 57, "duration": 217, "velocity": 80}, {"time": 153133, "pitch": 60, "duration": 217, "velocity": 90}, {"time": 153133, "pitch": 66, "duration": 217, "velocity": 100}, {"time": 153360, "pitch": 60, "duration": 218, "velocity": 80}, {"time": 153360, "pitch": 66, "duration": 218, "velocity": 90}, {"time": 153370, "pitch": 50, "duration": 217, "velocity": 80}, {"time": 153370, "pitch": 57, "duration": 217, "velocity": 70}, {"time": 153597, "pitch": 50, "duration": 10, "velocity": 100}, {"time": 153597, "pitch": 57, "duration": 10, "velocity": 80}, {"time": 153607, "pitch": 60, "duration": 10, "velocity": 90}, {"time": 153607, "pitch": 66, "duration": 10, "velocity": 100}, {"time": 153838, "pitch": 60, "duration": 221, "velocity": 90}, {"time": 153838, "pitch": 66, "duration": 221, "velocity": 90}, {"time": 153848, "pitch": 50, "duration": 221, "velocity": 80}, {"time": 153848, "pitch": 57, "duration": 221, "velocity": 70}, {"time": 154079, "pitch": 50, "duration": 221, "velocity": 100}, {"time": 154079, "pitch": 55, "duration": 221, "velocity": 80}, {"time": 154089, "pitch": 59, "duration": 221, "velocity": 90}, {"time": 154089, "pitch": 67, "duration": 221, "velocity": 100}, {"time": 154320, "pitch": 59, "duration": 220, "velocity": 80}, {"time": 154320, "pitch": 67, "duration": 220, "velocity": 90}, {"time": 154330, "pitch": 50, "duration": 220, "velocity": 80}, {"time": 154330, "pitch": 55, "duration": 220, "velocity": 70}, {"time": 154561, "pitch": 50, "duration": 10, "velocity": 100}, {"time": 154561, "pitch": 55, "duration": 10, "velocity": 80}, {"time": 154571, "pitch": 59, "duration": 10, "velocity": 90}, {"time": 154571, "pitch": 67, "duration": 10, "velocity": 100}, {"time": 154801, "pitch": 59, "duration": 221, "velocity": 80}, {"time": 154801, "pitch": 67, "duration": 221, "velocity": 90}, {"time": 154811, "pitch": 50, "duration": 221, "velocity": 80}, {"time": 154811, "pitch": 55, "duration": 221, "velocity": 70}, {"time": 155042, "pitch": 50, "duration": 217, "velocity": 100}, {"time": 155042, "pitch": 55, "duration": 217, "velocity": 80}, {"time": 155052, "pitch": 59, "duration": 217, "velocity": 90}, {"time": 155052, "pitch": 67, "duration": 217, "velocity": 100}, {"time": 155279, "pitch": 59, "duration": 218, "velocity": 80}, {"time": 155279, "pitch": 67, "duration": 218, "velocity": 90}, {"time": 155289, "pitch": 50, "duration": 217, "velocity": 80}, {"time": 155289, "pitch": 55, "duration": 217, "velocity": 70}, {"time": 155516, "pitch": 50, "duration": 10, "velocity": 100}, {"time": 155516, "pitch": 55, "duration": 10, "velocity": 80}, {"time": 155526, "pitch": 59, "duration": 10, "velocity": 90}, {"time": 155526, "pitch": 67, "duration": 10, "velocity": 100}, {"time": 155757, "pitch": 59, "duration": 221, "velocity": 90}, {"time": 155757, "pitch": 67, "duration": 221, "velocity": 90}, {"time": 155767, "pitch": 50, "duration": 221, "velocity": 80}, {"time": 155767, "pitch": 55, "duration": 221, "velocity": 70}, {"time": 155998, "pitch": 50, "duration": 221, "velocity": 100}, {"time": 155998, "pitch": 57, "duration": 221, "velocity": 80}, {"time": 156008, "pitch": 62, "duration": 221, "velocity": 90}, {"time": 156008, "pitch": 66, "duration": 221, "velocity": 100}, {"time": 156239, "pitch": 62, "duration": 220, "velocity": 80}, {"time": 156239, "pitch": 66, "duration": 220, "velocity": 90}, {"time": 156249, "pitch": 50, "duration": 220, "velocity": 80}, {"time": 156249, "pitch": 57, "duration": 220, "velocity": 70}, {"time": 156480, "pitch": 50, "duration": 10, "velocity": 100}, {"time": 156480, "pitch": 57, "duration": 10, "velocity": 80}, {"time": 156490, "pitch": 62, "duration": 10, "velocity": 90}, {"time": 156490, "pitch": 66, "duration": 10, "velocity": 100}, {"time": 156720, "pitch": 62, "duration": 221, "velocity": 80}, {"time": 156720, "pitch": 66, "duration": 221, "velocity": 90}, {"time": 156730, "pitch": 50, "duration": 221, "velocity": 80}, {"time": 156730, "pitch": 57, "duration": 221, "velocity": 70}, {"time": 156961, "pitch": 50, "duration": 221, "velocity": 100}, {"time": 156961, "pitch": 57, "duration": 221, "velocity": 80}, {"time": 156971, "pitch": 62, "duration": 221, "velocity": 90}, {"time": 156971, "pitch": 66, "duration": 221, "velocity": 100}, {"time": 157202, "pitch": 62, "duration": 221, "velocity": 80}, {"time": 157202, "pitch": 66, "duration": 221, "velocity": 90}, {"time": 157212, "pitch": 50, "duration": 221, "velocity": 80}, {"time": 157212, "pitch": 57, "duration": 221, "velocity": 70}, {"time": 157443, "pitch": 50, "duration": 10, "velocity": 100}, {"time": 157443, "pitch": 57, "duration": 10, "velocity": 80}, {"time": 157453, "pitch": 62, "duration": 9, "velocity": 90}, {"time": 157453, "pitch": 66, "duration": 9, "velocity": 100}, {"time": 157680, "pitch": 62, "duration": 217, "velocity": 90}, {"time": 157680, "pitch": 66, "duration": 217, "velocity": 100}, {"time": 157690, "pitch": 50, "duration": 217, "velocity": 90}, {"time": 157690, "pitch": 57, "duration": 217, "velocity": 80}, {"time": 157917, "pitch": 50, "duration": 221, "velocity": 100}, {"time": 157917, "pitch": 55, "duration": 221, "velocity": 80}, {"time": 157927, "pitch": 59, "duration": 221, "velocity": 90}, {"time": 157927, "pitch": 67, "duration": 221, "velocity": 100}, {"time": 158158, "pitch": 59, "duration": 220, "velocity": 80}, {"time": 158158, "pitch": 67, "duration": 220, "velocity": 90}, {"time": 158168, "pitch": 50, "duration": 220, "velocity": 80}, {"time": 158168, "pitch": 55, "duration": 220, "velocity": 70}, {"time": 158398, "pitch": 50, "duration": 11, "velocity": 100}, {"time": 158398, "pitch": 55, "duration": 11, "velocity": 80}, {"time": 158409, "pitch": 59, "duration": 10, "velocity": 90}, {"time": 158409, "pitch": 67, "duration": 10, "velocity": 100}, {"time": 158639, "pitch": 59, "duration": 221, "velocity": 80}, {"time": 158639, "pitch": 67, "duration": 221, "velocity": 90}, {"time": 158649, "pitch": 50, "duration": 221, "velocity": 80}, {"time": 158649, "pitch": 55, "duration": 221, "velocity": 70}, {"time": 158880, "pitch": 50, "duration": 221, "velocity": 100}, {"time": 158880, "pitch": 55, "duration": 221, "velocity": 80}, {"time": 158890, "pitch": 59, "duration": 221, "velocity": 90}, {"time": 158890, "pitch": 67, "duration": 221, "velocity": 100}, {"time": 159121, "pitch": 59, "duration": 221, "velocity": 80}, {"time": 159121, "pitch": 67, "duration": 221, "velocity": 90}, {"time": 159131, "pitch": 50, "duration": 221, "velocity": 80}, {"time": 159131, "pitch": 55, "duration": 221, "velocity": 70}, {"time": 159362, "pitch": 50, "duration": 10, "velocity": 100}, {"time": 159362, "pitch": 55, "duration": 10, "velocity": 80}, {"time": 159372, "pitch": 59, "duration": 10, "velocity": 90}, {"time": 159372, "pitch": 67, "duration": 10, "velocity": 100}, {"time": 159602, "pitch": 59, "duration": 221, "velocity": 90}, {"time": 159602, "pitch": 67, "duration": 221, "velocity": 90}, {"time": 159612, "pitch": 50, "duration": 221, "velocity": 80}, {"time": 159612, "pitch": 55, "duration": 221, "velocity": 70}, {"time": 159843, "pitch": 55, "duration": 218, "velocity": 100}, {"time": 159843, "pitch": 58, "duration": 218, "velocity": 80}, {"time": 159853, "pitch": 62, "duration": 217, "velocity": 90}, {"time": 159853, "pitch": 67, "duration": 217, "velocity": 100}, {"time": 160080, "pitch": 62, "duration": 218, "velocity": 80}, {"time": 160080, "pitch": 67, "duration": 218, "velocity": 90}, {"time": 160090, "pitch": 55, "duration": 218, "velocity": 80}, {"time": 160090, "pitch": 58, "duration": 218, "velocity": 70}, {"time": 160318, "pitch": 55, "duration": 10, "velocity": 100}, {"time": 160318, "pitch": 58, "duration": 10, "velocity": 80}, {"time": 160328, "pitch": 62, "duration": 10, "velocity": 90}, {"time": 160328, "pitch": 67, "duration": 10, "velocity": 100}, {"time": 160558, "pitch": 62, "duration": 452, "velocity": 90}, {"time": 160558, "pitch": 67, "duration": 452, "velocity": 100}, {"time": 160568, "pitch": 54, "duration": 452, "velocity": 90}, {"time": 160568, "pitch": 58, "duration": 452, "velocity": 80}, {"time": 161040, "pitch": 55, "duration": 451, "velocity": 100}, {"time": 161040, "pitch": 58, "duration": 451, "velocity": 80}, {"time": 161050, "pitch": 62, "duration": 451, "velocity": 90}, {"time": 161050, "pitch": 67, "duration": 451, "velocity": 100}, {"time": 161521, "pitch": 59, "duration": 2140, "velocity": 100}, {"time": 161521, "pitch": 64, "duration": 2140, "velocity": 100}, {"time": 161531, "pitch": 50, "duration": 2130, "velocity": 100}, {"time": 161531, "pitch": 55, "duration": 2130, "velocity": 80}, {"time": 163681, "pitch": 45, "duration": 917, "velocity": 100}, {"time": 163681, "pitch": 52, "duration": 917, "velocity": 93}, {"time": 163691, "pitch": 57, "duration": 916, "velocity": 90}, {"time": 163691, "pitch": 61, "duration": 916, "velocity": 100}, {"time": 163691, "pitch": 66, "duration": 916, "velocity": 100}, {"time": 164637, "pitch": 45, "duration": 923, "velocity": 100}, {"time": 164637, "pitch": 50, "duration": 923, "velocity": 93}, {"time": 164647, "pitch": 55, "duration": 923, "velocity": 90}, {"time": 164647, "pitch": 59, "duration": 923, "velocity": 100}, {"time": 164647, "pitch": 64, "duration": 923, "velocity": 100}, {"time": 165600, "pitch": 50, "duration": 221, "velocity": 100}, {"time": 165600, "pitch": 57, "duration": 221, "velocity": 80}, {"time": 165610, "pitch": 62, "duration": 221, "velocity": 90}, {"time": 165610, "pitch": 66, "duration": 221, "velocity": 100}, {"time": 165841, "pitch": 62, "duration": 221, "velocity": 80}, {"time": 165841, "pitch": 66, "duration": 221, "velocity": 90}, {"time": 165851, "pitch": 50, "duration": 221, "velocity": 80}, {"time": 165851, "pitch": 57, "duration": 221, "velocity": 70}, {"time": 166082, "pitch": 50, "duration": 10, "velocity": 100}, {"time": 166082, "pitch": 57, "duration": 10, "velocity": 80}, {"time": 166092, "pitch": 62, "duration": 10, "velocity": 90}, {"time": 166092, "pitch": 66, "duration": 10, "velocity": 100}, {"time": 166323, "pitch": 62, "duration": 220, "velocity": 80}, {"time": 166323, "pitch": 66, "duration": 220, "velocity": 90}, {"time": 166333, "pitch": 50, "duration": 220, "velocity": 80}, {"time": 166333, "pitch": 57, "duration": 220, "velocity": 70}, {"time": 166563, "pitch": 50, "duration": 218, "velocity": 100}, {"time": 166563, "pitch": 57, "duration": 218, "velocity": 80}, {"time": 166573, "pitch": 62, "duration": 218, "velocity": 90}, {"time": 166573, "pitch": 66, "duration": 218, "velocity": 100}, {"time": 166800, "pitch": 62, "duration": 218, "velocity": 80}, {"time": 166800, "pitch": 66, "duration": 218, "velocity": 90}, {"time": 166810, "pitch": 50, "duration": 218, "velocity": 80}, {"time": 166810, "pitch": 57, "duration": 218, "velocity": 70}, {"time": 167038, "pitch": 50, "duration": 10, "velocity": 100}, {"time": 167038, "pitch": 57, "duration": 10, "velocity": 80}, {"time": 167048, "pitch": 62, "duration": 10, "velocity": 90}, {"time": 167048, "pitch": 66, "duration": 10, "velocity": 100}, {"time": 167278, "pitch": 61, "duration": 472, "velocity": 90}, {"time": 167278, "pitch": 66, "duration": 472, "velocity": 100}, {"time": 167288, "pitch": 50, "duration": 452, "velocity": 90}, {"time": 167288, "pitch": 57, "duration": 452, "velocity": 80}, {"time": 167760, "pitch": 61, "duration": 221, "velocity": 80}, {"time": 167760, "pitch": 66, "duration": 221, "velocity": 90}, {"time": 167770, "pitch": 50, "duration": 221, "velocity": 80}, {"time": 167770, "pitch": 57, "duration": 221, "velocity": 70}, {"time": 168001, "pitch": 50, "duration": 10, "velocity": 100}, {"time": 168001, "pitch": 57, "duration": 10, "velocity": 80}, {"time": 168011, "pitch": 61, "duration": 10, "velocity": 90}, {"time": 168011, "pitch": 66, "duration": 10, "velocity": 100}, {"time": 168242, "pitch": 61, "duration": 220, "velocity": 80}, {"time": 168242, "pitch": 66, "duration": 220, "velocity": 90}, {"time": 168252, "pitch": 50, "duration": 220, "velocity": 80}, {"time": 168252, "pitch": 57, "duration": 220, "velocity": 70}, {"time": 168482, "pitch": 50, "duration": 218, "velocity": 100}, {"time": 168482, "pitch": 57, "duration": 218, "velocity": 80}, {"time": 168492, "pitch": 61, "duration": 218, "velocity": 90}, {"time": 168492, "pitch": 66, "duration": 218, "velocity": 100}, {"time": 168719, "pitch": 61, "duration": 218, "velocity": 80}, {"time": 168719, "pitch": 66, "duration": 218, "velocity": 90}, {"time": 168729, "pitch": 50, "duration": 218, "velocity": 80}, {"time": 168729, "pitch": 57, "duration": 218, "velocity": 70}, {"time": 168957, "pitch": 50, "duration": 10, "velocity": 100}, {"time": 168957, "pitch": 57, "duration": 10, "velocity": 80}, {"time": 168967, "pitch": 61, "duration": 10, "velocity": 90}, {"time": 168967, "pitch": 66, "duration": 10, "velocity": 100}, {"time": 169197, "pitch": 61, "duration": 221, "velocity": 90}, {"time": 169197, "pitch": 66, "duration": 221, "velocity": 90}, {"time": 169207, "pitch": 50, "duration": 221, "velocity": 80}, {"time": 169207, "pitch": 57, "duration": 221, "velocity": 70}, {"time": 169438, "pitch": 50, "duration": 221, "velocity": 100}, {"time": 169438, "pitch": 57, "duration": 221, "velocity": 80}, {"time": 169448, "pitch": 61, "duration": 221, "velocity": 90}, {"time": 169448, "pitch": 66, "duration": 221, "velocity": 100}, {"time": 169679, "pitch": 61, "duration": 221, "velocity": 80}, {"time": 169679, "pitch": 66, "duration": 221, "velocity": 90}, {"time": 169689, "pitch": 50, "duration": 221, "velocity": 80}, {"time": 169689, "pitch": 57, "duration": 221, "velocity": 70}, {"time": 169920, "pitch": 50, "duration": 10, "velocity": 100}, {"time": 169920, "pitch": 57, "duration": 10, "velocity": 80}, {"time": 169930, "pitch": 61, "duration": 10, "velocity": 90}, {"time": 169930, "pitch": 66, "duration": 10, "velocity": 100}, {"time": 170161, "pitch": 61, "duration": 220, "velocity": 80}, {"time": 170161, "pitch": 66, "duration": 220, "velocity": 90}, {"time": 170171, "pitch": 50, "duration": 220, "velocity": 80}, {"time": 170171, "pitch": 57, "duration": 220, "velocity": 70}, {"time": 170401, "pitch": 50, "duration": 221, "velocity": 100}, {"time": 170401, "pitch": 57, "duration": 221, "velocity": 80}, {"time": 170411, "pitch": 61, "duration": 221, "velocity": 90}, {"time": 170411, "pitch": 66, "duration": 221, "velocity": 100}, {"time": 170642, "pitch": 61, "duration": 221, "velocity": 80}, {"time": 170642, "pitch": 66, "duration": 221, "velocity": 90}, {"time": 170652, "pitch": 50, "duration": 221, "velocity": 80}, {"time": 170652, "pitch": 57, "duration": 221, "velocity": 70}, {"time": 170883, "pitch": 50, "duration": 10, "velocity": 100}, {"time": 170883, "pitch": 57, "duration": 10, "velocity": 80}, {"time": 170893, "pitch": 61, "duration": 10, "velocity": 90}, {"time": 170893, "pitch": 66, "duration": 10, "velocity": 100}, {"time": 171120, "pitch": 60, "duration": 468, "velocity": 90}, {"time": 171120, "pitch": 66, "duration": 468, "velocity": 100}, {"time": 171130, "pitch": 50, "duration": 448, "velocity": 90}, {"time": 171130, "pitch": 57, "duration": 448, "velocity": 80}, {"time": 171598, "pitch": 60, "duration": 221, "velocity": 80}, {"time": 171598, "pitch": 66, "duration": 221, "velocity": 90}, {"time": 171608, "pitch": 50, "duration": 221, "velocity": 80}, {"time": 171608, "pitch": 57, "duration": 221, "velocity": 70}, {"time": 171839, "pitch": 50, "duration": 10, "velocity": 100}, {"time": 171839, "pitch": 57, "duration": 10, "velocity": 80}, {"time": 171849, "pitch": 60, "duration": 10, "velocity": 90}, {"time": 171849, "pitch": 66, "duration": 10, "velocity": 100}, {"time": 172080, "pitch": 60, "duration": 220, "velocity": 80}, {"time": 172080, "pitch": 66, "duration": 220, "velocity": 90}, {"time": 172090, "pitch": 50, "duration": 220, "velocity": 80}, {"time": 172090, "pitch": 57, "duration": 220, "velocity": 70}, {"time": 172320, "pitch": 50, "duration": 221, "velocity": 100}, {"time": 172320, "pitch": 57, "duration": 221, "velocity": 80}, {"time": 172330, "pitch": 60, "duration": 221, "velocity": 90}, {"time": 172330, "pitch": 66, "duration": 221, "velocity": 100}, {"time": 172561, "pitch": 60, "duration": 221, "velocity": 80}, {"time": 172561, "pitch": 66, "duration": 221, "velocity": 90}, {"time": 172571, "pitch": 50, "duration": 221, "velocity": 80}, {"time": 172571, "pitch": 57, "duration": 221, "velocity": 70}, {"time": 172802, "pitch": 50, "duration": 10, "velocity": 100}, {"time": 172802, "pitch": 57, "duration": 10, "velocity": 80}, {"time": 172812, "pitch": 60, "duration": 10, "velocity": 90}, {"time": 172812, "pitch": 66, "duration": 10, "velocity": 100}, {"time": 173043, "pitch": 60, "duration": 220, "velocity": 90}, {"time": 173043, "pitch": 66, "duration": 220, "velocity": 90}, {"time": 173053, "pitch": 50, "duration": 220, "velocity": 80}, {"time": 173053, "pitch": 57, "duration": 220, "velocity": 70}, {"time": 173283, "pitch": 50, "duration": 218, "velocity": 100}, {"time": 173283, "pitch": 55, "duration": 218, "velocity": 80}, {"time": 173293, "pitch": 59, "duration": 218, "velocity": 90}, {"time": 173293, "pitch": 67, "duration": 218, "velocity": 100}, {"time": 173521, "pitch": 59, "duration": 217, "velocity": 80}, {"time": 173521, "pitch": 67, "duration": 217, "velocity": 90}, {"time": 173531, "pitch": 50, "duration": 217, "velocity": 80}, {"time": 173531, "pitch": 55, "duration": 217, "velocity": 70}, {"time": 173758, "pitch": 50, "duration": 10, "velocity": 100}, {"time": 173758, "pitch": 55, "duration": 10, "velocity": 80}, {"time": 173768, "pitch": 59, "duration": 10, "velocity": 90}, {"time": 173768, "pitch": 67, "duration": 10, "velocity": 100}, {"time": 173999, "pitch": 59, "duration": 220, "velocity": 80}, {"time": 173999, "pitch": 67, "duration": 220, "velocity": 90}, {"time": 174009, "pitch": 50, "duration": 220, "velocity": 80}, {"time": 174009, "pitch": 55, "duration": 220, "velocity": 70}, {"time": 174239, "pitch": 50, "duration": 221, "velocity": 100}, {"time": 174239, "pitch": 55, "duration": 221, "velocity": 80}, {"time": 174249, "pitch": 59, "duration": 221, "velocity": 90}, {"time": 174249, "pitch": 67, "duration": 221, "velocity": 100}, {"time": 174480, "pitch": 59, "duration": 221, "velocity": 80}, {"time": 174480, "pitch": 67, "duration": 221, "velocity": 90}, {"time": 174490, "pitch": 50, "duration": 221, "velocity": 80}, {"time": 174490, "pitch": 55, "duration": 221, "velocity": 70}, {"time": 174721, "pitch": 50, "duration": 10, "velocity": 100}, {"time": 174721, "pitch": 55, "duration": 10, "velocity": 80}, {"time": 174731, "pitch": 59, "duration": 10, "velocity": 90}, {"time": 174731, "pitch": 67, "duration": 10, "velocity": 100}, {"time": 174962, "pitch": 59, "duration": 220, "velocity": 90}, {"time": 174962, "pitch": 67, "duration": 220, "velocity": 90}, {"time": 174972, "pitch": 50, "duration": 220, "velocity": 80}, {"time": 174972, "pitch": 55, "duration": 220, "velocity": 70}, {"time": 175202, "pitch": 50, "duration": 218, "velocity": 100}, {"time": 175202, "pitch": 57, "duration": 218, "velocity": 80}, {"time": 175212, "pitch": 62, "duration": 218, "velocity": 90}, {"time": 175212, "pitch": 66, "duration": 218, "velocity": 100}, {"time": 175440, "pitch": 62, "duration": 217, "velocity": 80}, {"time": 175440, "pitch": 66, "duration": 217, "velocity": 90}, {"time": 175450, "pitch": 50, "duration": 217, "velocity": 80}, {"time": 175450, "pitch": 57, "duration": 217, "velocity": 70}, {"time": 175677, "pitch": 50, "duration": 10, "velocity": 100}, {"time": 175677, "pitch": 57, "duration": 10, "velocity": 80}, {"time": 175687, "pitch": 62, "duration": 10, "velocity": 90}, {"time": 175687, "pitch": 66, "duration": 10, "velocity": 100}, {"time": 175918, "pitch": 62, "duration": 220, "velocity": 80}, {"time": 175918, "pitch": 66, "duration": 220, "velocity": 90}, {"time": 175928, "pitch": 50, "duration": 220, "velocity": 80}, {"time": 175928, "pitch": 57, "duration": 220, "velocity": 70}, {"time": 176158, "pitch": 50, "duration": 221, "velocity": 100}, {"time": 176158, "pitch": 57, "duration": 221, "velocity": 80}, {"time": 176168, "pitch": 62, "duration": 221, "velocity": 90}, {"time": 176168, "pitch": 66, "duration": 221, "velocity": 100}, {"time": 176399, "pitch": 62, "duration": 221, "velocity": 80}, {"time": 176399, "pitch": 66, "duration": 221, "velocity": 90}, {"time": 176409, "pitch": 50, "duration": 221, "velocity": 80}, {"time": 176409, "pitch": 57, "duration": 221, "velocity": 70}, {"time": 176640, "pitch": 50, "duration": 10, "velocity": 100}, {"time": 176640, "pitch": 57, "duration": 10, "velocity": 80}, {"time": 176650, "pitch": 62, "duration": 10, "velocity": 90}, {"time": 176650, "pitch": 66, "duration": 10, "velocity": 100}, {"time": 176881, "pitch": 62, "duration": 220, "velocity": 90}, {"time": 176881, "pitch": 66, "duration": 220, "velocity": 100}, {"time": 176891, "pitch": 50, "duration": 220, "velocity": 90}, {"time": 176891, "pitch": 57, "duration": 220, "velocity": 80}, {"time": 177122, "pitch": 50, "duration": 220, "velocity": 100}, {"time": 177122, "pitch": 55, "duration": 220, "velocity": 80}, {"time": 177132, "pitch": 59, "duration": 220, "velocity": 90}, {"time": 177132, "pitch": 67, "duration": 220, "velocity": 100}, {"time": 177362, "pitch": 59, "duration": 221, "velocity": 80}, {"time": 177362, "pitch": 67, "duration": 221, "velocity": 90}, {"time": 177372, "pitch": 50, "duration": 221, "velocity": 80}, {"time": 177372, "pitch": 55, "duration": 221, "velocity": 70}, {"time": 177603, "pitch": 50, "duration": 10, "velocity": 100}, {"time": 177603, "pitch": 55, "duration": 10, "velocity": 80}, {"time": 177613, "pitch": 59, "duration": 10, "velocity": 90}, {"time": 177613, "pitch": 67, "duration": 10, "velocity": 100}, {"time": 177840, "pitch": 59, "duration": 218, "velocity": 80}, {"time": 177840, "pitch": 67, "duration": 218, "velocity": 90}, {"time": 177850, "pitch": 50, "duration": 217, "velocity": 80}, {"time": 177850, "pitch": 55, "duration": 217, "velocity": 70}, {"time": 178077, "pitch": 50, "duration": 221, "velocity": 100}, {"time": 178077, "pitch": 55, "duration": 221, "velocity": 80}, {"time": 178087, "pitch": 59, "duration": 221, "velocity": 90}, {"time": 178087, "pitch": 67, "duration": 221, "velocity": 100}, {"time": 178318, "pitch": 59, "duration": 221, "velocity": 80}, {"time": 178318, "pitch": 67, "duration": 221, "velocity": 90}, {"time": 178328, "pitch": 50, "duration": 221, "velocity": 80}, {"time": 178328, "pitch": 55, "duration": 221, "velocity": 70}, {"time": 178559, "pitch": 50, "duration": 10, "velocity": 100}, {"time": 178559, "pitch": 55, "duration": 10, "velocity": 80}, {"time": 178569, "pitch": 59, "duration": 10, "velocity": 90}, {"time": 178569, "pitch": 67, "duration": 10, "velocity": 100}, {"time": 178800, "pitch": 59, "duration": 220, "velocity": 90}, {"time": 178800, "pitch": 67, "duration": 220, "velocity": 90}, {"time": 178810, "pitch": 50, "duration": 220, "velocity": 80}, {"time": 178810, "pitch": 55, "duration": 220, "velocity": 70}, {"time": 179040, "pitch": 50, "duration": 221, "velocity": 100}, {"time": 179040, "pitch": 55, "duration": 221, "velocity": 80}, {"time": 179051, "pitch": 59, "duration": 220, "velocity": 90}, {"time": 179051, "pitch": 64, "duration": 220, "velocity": 100}, {"time": 179281, "pitch": 59, "duration": 221, "velocity": 80}, {"time": 179281, "pitch": 64, "duration": 221, "velocity": 90}, {"time": 179291, "pitch": 50, "duration": 221, "velocity": 80}, {"time": 179291, "pitch": 55, "duration": 221, "velocity": 70}, {"time": 179522, "pitch": 50, "duration": 10, "velocity": 100}, {"time": 179522, "pitch": 55, "duration": 10, "velocity": 80}, {"time": 179532, "pitch": 59, "duration": 10, "velocity": 90}, {"time": 179532, "pitch": 64, "duration": 10, "velocity": 100}, {"time": 179763, "pitch": 59, "duration": 221, "velocity": 80}, {"time": 179763, "pitch": 64, "duration": 221, "velocity": 90}, {"time": 179773, "pitch": 50, "duration": 221, "velocity": 80}, {"time": 179773, "pitch": 55, "duration": 221, "velocity": 70}, {"time": 180004, "pitch": 50, "duration": 9, "velocity": 100}, {"time": 180004, "pitch": 55, "duration": 9, "velocity": 80}, {"time": 180013, "pitch": 59, "duration": 10, "velocity": 90}, {"time": 180013, "pitch": 64, "duration": 10, "velocity": 100}, {"time": 180241, "pitch": 61, "duration": 678, "velocity": 90}, {"time": 180241, "pitch": 64, "duration": 678, "velocity": 100}, {"time": 180251, "pitch": 52, "duration": 678, "velocity": 90}, {"time": 180251, "pitch": 57, "duration": 678, "velocity": 80}, {"time": 180959, "pitch": 50, "duration": 221, "velocity": 100}, {"time": 180959, "pitch": 57, "duration": 221, "velocity": 80}, {"time": 180970, "pitch": 62, "duration": 220, "velocity": 90}, {"time": 180970, "pitch": 66, "duration": 220, "velocity": 100}, {"time": 181200, "pitch": 62, "duration": 221, "velocity": 80}, {"time": 181200, "pitch": 66, "duration": 221, "velocity": 90}, {"time": 181210, "pitch": 50, "duration": 221, "velocity": 80}, {"time": 181210, "pitch": 57, "duration": 221, "velocity": 70}, {"time": 181441, "pitch": 50, "duration": 10, "velocity": 100}, {"time": 181441, "pitch": 57, "duration": 10, "velocity": 80}, {"time": 181451, "pitch": 62, "duration": 10, "velocity": 90}, {"time": 181451, "pitch": 66, "duration": 10, "velocity": 100}, {"time": 181682, "pitch": 62, "duration": 221, "velocity": 80}, {"time": 181682, "pitch": 66, "duration": 221, "velocity": 90}, {"time": 181692, "pitch": 50, "duration": 221, "velocity": 80}, {"time": 181692, "pitch": 57, "duration": 221, "velocity": 70}, {"time": 181923, "pitch": 50, "duration": 217, "velocity": 100}, {"time": 181923, "pitch": 57, "duration": 217, "velocity": 80}, {"time": 181932, "pitch": 62, "duration": 218, "velocity": 90}, {"time": 181932, "pitch": 66, "duration": 218, "velocity": 100}, {"time": 182160, "pitch": 62, "duration": 217, "velocity": 80}, {"time": 182160, "pitch": 66, "duration": 217, "velocity": 90}, {"time": 182170, "pitch": 50, "duration": 217, "velocity": 80}, {"time": 182170, "pitch": 57, "duration": 217, "velocity": 70}, {"time": 182397, "pitch": 50, "duration": 10, "velocity": 100}, {"time": 182397, "pitch": 57, "duration": 10, "velocity": 80}, {"time": 182407, "pitch": 62, "duration": 10, "velocity": 90}, {"time": 182407, "pitch": 66, "duration": 10, "velocity": 100}, {"time": 182638, "pitch": 61, "duration": 471, "velocity": 90}, {"time": 182638, "pitch": 66, "duration": 471, "velocity": 100}, {"time": 182648, "pitch": 50, "duration": 451, "velocity": 90}, {"time": 182648, "pitch": 57, "duration": 451, "velocity": 80}, {"time": 183119, "pitch": 61, "duration": 221, "velocity": 80}, {"time": 183119, "pitch": 66, "duration": 221, "velocity": 90}, {"time": 183129, "pitch": 50, "duration": 221, "velocity": 80}, {"time": 183129, "pitch": 57, "duration": 221, "velocity": 70}, {"time": 183360, "pitch": 50, "duration": 10, "velocity": 100}, {"time": 183360, "pitch": 57, "duration": 10, "velocity": 80}, {"time": 183370, "pitch": 61, "duration": 10, "velocity": 90}, {"time": 183370, "pitch": 66, "duration": 10, "velocity": 100}, {"time": 183601, "pitch": 61, "duration": 221, "velocity": 80}, {"time": 183601, "pitch": 66, "duration": 221, "velocity": 90}, {"time": 183611, "pitch": 50, "duration": 221, "velocity": 80}, {"time": 183611, "pitch": 57, "duration": 221, "velocity": 70}, {"time": 183842, "pitch": 50, "duration": 220, "velocity": 100}, {"time": 183842, "pitch": 57, "duration": 220, "velocity": 80}, {"time": 183852, "pitch": 61, "duration": 220, "velocity": 90}, {"time": 183852, "pitch": 66, "duration": 220, "velocity": 100}, {"time": 184082, "pitch": 61, "duration": 221, "velocity": 80}, {"time": 184082, "pitch": 66, "duration": 221, "velocity": 90}, {"time": 184092, "pitch": 50, "duration": 221, "velocity": 80}, {"time": 184092, "pitch": 57, "duration": 221, "velocity": 70}, {"time": 184323, "pitch": 50, "duration": 10, "velocity": 100}, {"time": 184323, "pitch": 57, "duration": 10, "velocity": 80}, {"time": 184333, "pitch": 61, "duration": 10, "velocity": 90}, {"time": 184333, "pitch": 66, "duration": 10, "velocity": 100}, {"time": 184560, "pitch": 61, "duration": 218, "velocity": 90}, {"time": 184560, "pitch": 66, "duration": 218, "velocity": 90}, {"time": 184570, "pitch": 50, "duration": 218, "velocity": 80}, {"time": 184570, "pitch": 57, "duration": 218, "velocity": 70}, {"time": 184797, "pitch": 50, "duration": 221, "velocity": 100}, {"time": 184797, "pitch": 57, "duration": 221, "velocity": 80}, {"time": 184807, "pitch": 61, "duration": 221, "velocity": 90}, {"time": 184807, "pitch": 66, "duration": 221, "velocity": 100}, {"time": 185038, "pitch": 61, "duration": 221, "velocity": 80}, {"time": 185038, "pitch": 66, "duration": 221, "velocity": 90}, {"time": 185048, "pitch": 50, "duration": 221, "velocity": 80}, {"time": 185048, "pitch": 57, "duration": 221, "velocity": 70}, {"time": 185279, "pitch": 50, "duration": 10, "velocity": 100}, {"time": 185279, "pitch": 57, "duration": 10, "velocity": 80}, {"time": 185289, "pitch": 61, "duration": 10, "velocity": 90}, {"time": 185289, "pitch": 66, "duration": 10, "velocity": 100}, {"time": 185520, "pitch": 61, "duration": 221, "velocity": 80}, {"time": 185520, "pitch": 66, "duration": 221, "velocity": 90}, {"time": 185530, "pitch": 50, "duration": 221, "velocity": 80}, {"time": 185530, "pitch": 57, "duration": 221, "velocity": 70}, {"time": 185761, "pitch": 50, "duration": 220, "velocity": 100}, {"time": 185761, "pitch": 57, "duration": 220, "velocity": 80}, {"time": 185771, "pitch": 61, "duration": 220, "velocity": 90}, {"time": 185771, "pitch": 66, "duration": 220, "velocity": 100}, {"time": 186001, "pitch": 61, "duration": 221, "velocity": 80}, {"time": 186001, "pitch": 66, "duration": 221, "velocity": 90}, {"time": 186011, "pitch": 50, "duration": 221, "velocity": 80}, {"time": 186011, "pitch": 57, "duration": 221, "velocity": 70}, {"time": 186242, "pitch": 50, "duration": 10, "velocity": 100}, {"time": 186242, "pitch": 57, "duration": 10, "velocity": 80}, {"time": 186252, "pitch": 61, "duration": 10, "velocity": 90}, {"time": 186252, "pitch": 66, "duration": 10, "velocity": 100}, {"time": 186479, "pitch": 60, "duration": 468, "velocity": 90}, {"time": 186479, "pitch": 66, "duration": 468, "velocity": 100}, {"time": 186489, "pitch": 50, "duration": 448, "velocity": 90}, {"time": 186489, "pitch": 57, "duration": 448, "velocity": 80}, {"time": 186957, "pitch": 60, "duration": 221, "velocity": 80}, {"time": 186957, "pitch": 66, "duration": 221, "velocity": 90}, {"time": 186967, "pitch": 50, "duration": 221, "velocity": 80}, {"time": 186967, "pitch": 57, "duration": 221, "velocity": 70}, {"time": 187198, "pitch": 50, "duration": 10, "velocity": 100}, {"time": 187198, "pitch": 57, "duration": 10, "velocity": 80}, {"time": 187208, "pitch": 60, "duration": 10, "velocity": 90}, {"time": 187208, "pitch": 66, "duration": 10, "velocity": 100}, {"time": 187439, "pitch": 60, "duration": 221, "velocity": 80}, {"time": 187439, "pitch": 66, "duration": 221, "velocity": 90}, {"time": 187449, "pitch": 50, "duration": 221, "velocity": 80}, {"time": 187449, "pitch": 57, "duration": 221, "velocity": 70}, {"time": 187680, "pitch": 50, "duration": 220, "velocity": 100}, {"time": 187680, "pitch": 57, "duration": 220, "velocity": 80}, {"time": 187690, "pitch": 60, "duration": 220, "velocity": 90}, {"time": 187690, "pitch": 66, "duration": 220, "velocity": 100}, {"time": 187920, "pitch": 60, "duration": 221, "velocity": 80}, {"time": 187920, "pitch": 66, "duration": 221, "velocity": 90}, {"time": 187930, "pitch": 50, "duration": 221, "velocity": 80}, {"time": 187930, "pitch": 57, "duration": 221, "velocity": 70}, {"time": 188161, "pitch": 50, "duration": 10, "velocity": 100}, {"time": 188161, "pitch": 57, "duration": 10, "velocity": 80}, {"time": 188171, "pitch": 60, "duration": 10, "velocity": 90}, {"time": 188171, "pitch": 66, "duration": 10, "velocity": 100}, {"time": 188402, "pitch": 60, "duration": 221, "velocity": 90}, {"time": 188402, "pitch": 66, "duration": 221, "velocity": 90}, {"time": 188412, "pitch": 50, "duration": 221, "velocity": 80}, {"time": 188412, "pitch": 57, "duration": 221, "velocity": 70}, {"time": 188643, "pitch": 50, "duration": 217, "velocity": 100}, {"time": 188643, "pitch": 55, "duration": 217, "velocity": 80}, {"time": 188653, "pitch": 59, "duration": 217, "velocity": 90}, {"time": 188653, "pitch": 67, "duration": 217, "velocity": 100}, {"time": 188880, "pitch": 59, "duration": 217, "velocity": 80}, {"time": 188880, "pitch": 67, "duration": 217, "velocity": 90}, {"time": 188890, "pitch": 50, "duration": 217, "velocity": 80}, {"time": 188890, "pitch": 55, "duration": 217, "velocity": 70}, {"time": 189117, "pitch": 50, "duration": 10, "velocity": 100}, {"time": 189117, "pitch": 55, "duration": 10, "velocity": 80}, {"time": 189127, "pitch": 59, "duration": 10, "velocity": 90}, {"time": 189127, "pitch": 67, "duration": 10, "velocity": 100}, {"time": 189358, "pitch": 59, "duration": 221, "velocity": 80}, {"time": 189358, "pitch": 67, "duration": 221, "velocity": 90}, {"time": 189368, "pitch": 50, "duration": 221, "velocity": 80}, {"time": 189368, "pitch": 55, "duration": 221, "velocity": 70}, {"time": 189599, "pitch": 50, "duration": 220, "velocity": 100}, {"time": 189599, "pitch": 55, "duration": 220, "velocity": 80}, {"time": 189609, "pitch": 59, "duration": 220, "velocity": 90}, {"time": 189609, "pitch": 67, "duration": 220, "velocity": 100}, {"time": 189839, "pitch": 59, "duration": 221, "velocity": 80}, {"time": 189839, "pitch": 67, "duration": 221, "velocity": 90}, {"time": 189849, "pitch": 50, "duration": 221, "velocity": 80}, {"time": 189849, "pitch": 55, "duration": 221, "velocity": 70}, {"time": 190080, "pitch": 50, "duration": 10, "velocity": 100}, {"time": 190080, "pitch": 55, "duration": 10, "velocity": 80}, {"time": 190090, "pitch": 59, "duration": 10, "velocity": 90}, {"time": 190090, "pitch": 67, "duration": 10, "velocity": 100}, {"time": 190321, "pitch": 59, "duration": 221, "velocity": 90}, {"time": 190321, "pitch": 67, "duration": 221, "velocity": 90}, {"time": 190331, "pitch": 50, "duration": 221, "velocity": 80}, {"time": 190331, "pitch": 55, "duration": 221, "velocity": 70}, {"time": 190562, "pitch": 50, "duration": 221, "velocity": 100}, {"time": 190562, "pitch": 57, "duration": 221, "velocity": 80}, {"time": 190572, "pitch": 62, "duration": 221, "velocity": 90}, {"time": 190572, "pitch": 66, "duration": 221, "velocity": 100}, {"time": 190803, "pitch": 62, "duration": 220, "velocity": 80}, {"time": 190803, "pitch": 66, "duration": 220, "velocity": 90}, {"time": 190813, "pitch": 50, "duration": 220, "velocity": 80}, {"time": 190813, "pitch": 57, "duration": 220, "velocity": 70}, {"time": 191043, "pitch": 50, "duration": 10, "velocity": 100}, {"time": 191043, "pitch": 57, "duration": 10, "velocity": 80}, {"time": 191053, "pitch": 62, "duration": 10, "velocity": 90}, {"time": 191053, "pitch": 66, "duration": 10, "velocity": 100}, {"time": 191280, "pitch": 62, "duration": 218, "velocity": 80}, {"time": 191280, "pitch": 66, "duration": 218, "velocity": 90}, {"time": 191290, "pitch": 50, "duration": 218, "velocity": 80}, {"time": 191290, "pitch": 57, "duration": 218, "velocity": 70}, {"time": 191518, "pitch": 50, "duration": 220, "velocity": 100}, {"time": 191518, "pitch": 57, "duration": 220, "velocity": 80}, {"time": 191528, "pitch": 62, "duration": 220, "velocity": 90}, {"time": 191528, "pitch": 66, "duration": 220, "velocity": 100}, {"time": 191758, "pitch": 62, "duration": 221, "velocity": 80}, {"time": 191758, "pitch": 66, "duration": 221, "velocity": 90}, {"time": 191768, "pitch": 50, "duration": 221, "velocity": 80}, {"time": 191768, "pitch": 57, "duration": 221, "velocity": 70}, {"time": 191999, "pitch": 50, "duration": 10, "velocity": 100}, {"time": 191999, "pitch": 57, "duration": 10, "velocity": 80}, {"time": 192009, "pitch": 62, "duration": 10, "velocity": 90}, {"time": 192009, "pitch": 66, "duration": 10, "velocity": 100}, {"time": 192240, "pitch": 62, "duration": 221, "velocity": 90}, {"time": 192240, "pitch": 66, "duration": 221, "velocity": 100}, {"time": 192250, "pitch": 50, "duration": 221, "velocity": 90}, {"time": 192250, "pitch": 57, "duration": 221, "velocity": 80}, {"time": 192481, "pitch": 50, "duration": 220, "velocity": 100}, {"time": 192481, "pitch": 55, "duration": 220, "velocity": 80}, {"time": 192491, "pitch": 59, "duration": 221, "velocity": 90}, {"time": 192491, "pitch": 67, "duration": 221, "velocity": 100}, {"time": 192722, "pitch": 59, "duration": 220, "velocity": 80}, {"time": 192722, "pitch": 67, "duration": 220, "velocity": 90}, {"time": 192732, "pitch": 50, "duration": 220, "velocity": 80}, {"time": 192732, "pitch": 55, "duration": 220, "velocity": 70}, {"time": 192962, "pitch": 50, "duration": 10, "velocity": 100}, {"time": 192962, "pitch": 55, "duration": 10, "velocity": 80}, {"time": 192972, "pitch": 59, "duration": 10, "velocity": 90}, {"time": 192972, "pitch": 67, "duration": 10, "velocity": 100}, {"time": 193199, "pitch": 59, "duration": 218, "velocity": 80}, {"time": 193199, "pitch": 67, "duration": 218, "velocity": 90}, {"time": 193209, "pitch": 50, "duration": 218, "velocity": 80}, {"time": 193209, "pitch": 55, "duration": 218, "velocity": 70}, {"time": 193437, "pitch": 50, "duration": 220, "velocity": 100}, {"time": 193437, "pitch": 55, "duration": 220, "velocity": 80}, {"time": 193447, "pitch": 59, "duration": 220, "velocity": 90}, {"time": 193447, "pitch": 67, "duration": 220, "velocity": 100}, {"time": 193677, "pitch": 59, "duration": 221, "velocity": 80}, {"time": 193677, "pitch": 67, "duration": 221, "velocity": 90}, {"time": 193687, "pitch": 50, "duration": 221, "velocity": 80}, {"time": 193687, "pitch": 55, "duration": 221, "velocity": 70}, {"time": 193918, "pitch": 50, "duration": 10, "velocity": 100}, {"time": 193918, "pitch": 55, "duration": 10, "velocity": 80}, {"time": 193928, "pitch": 59, "duration": 10, "velocity": 90}, {"time": 193928, "pitch": 67, "duration": 10, "velocity": 100}, {"time": 194159, "pitch": 59, "duration": 221, "velocity": 90}, {"time": 194159, "pitch": 67, "duration": 221, "velocity": 90}, {"time": 194169, "pitch": 50, "duration": 221, "velocity": 80}, {"time": 194169, "pitch": 55, "duration": 221, "velocity": 70}, {"time": 194400, "pitch": 55, "duration": 220, "velocity": 100}, {"time": 194400, "pitch": 58, "duration": 220, "velocity": 80}, {"time": 194410, "pitch": 62, "duration": 221, "velocity": 90}, {"time": 194410, "pitch": 67, "duration": 221, "velocity": 100}, {"time": 194641, "pitch": 62, "duration": 220, "velocity": 80}, {"time": 194641, "pitch": 67, "duration": 220, "velocity": 90}, {"time": 194651, "pitch": 55, "duration": 220, "velocity": 80}, {"time": 194651, "pitch": 58, "duration": 220, "velocity": 70}, {"time": 194881, "pitch": 55, "duration": 10, "velocity": 100}, {"time": 194881, "pitch": 58, "duration": 10, "velocity": 80}, {"time": 194891, "pitch": 62, "duration": 10, "velocity": 90}, {"time": 194891, "pitch": 67, "duration": 10, "velocity": 100}, {"time": 195122, "pitch": 62, "duration": 448, "velocity": 90}, {"time": 195122, "pitch": 67, "duration": 448, "velocity": 100}, {"time": 195132, "pitch": 54, "duration": 448, "velocity": 90}, {"time": 195132, "pitch": 58, "duration": 448, "velocity": 80}, {"time": 195600, "pitch": 55, "duration": 448, "velocity": 100}, {"time": 195600, "pitch": 58, "duration": 448, "velocity": 80}, {"time": 195610, "pitch": 62, "duration": 448, "velocity": 90}, {"time": 195610, "pitch": 67, "duration": 448, "velocity": 100}, {"time": 196078, "pitch": 62, "duration": 2140, "velocity": 100}, {"time": 196078, "pitch": 66, "duration": 2140, "velocity": 100}, {"time": 196088, "pitch": 50, "duration": 2130, "velocity": 100}, {"time": 196088, "pitch": 57, "duration": 2130, "velocity": 80}], "annotations": [{"time": 283, "annotation": {"number": 7, "value": 100}, "group": "control_change"}, {"time": 305, "annotation": {"number": 11, "value": 100}, "group": "control_change"}, {"time": 327, "annotation": {"number": 10, "value": 100}, "group": "control_change"}, {"time": 349, "annotation": {"number": 91, "value": 40}, "group": "control_change"}, {"time": 370, "annotation": {"number": 93, "value": 0}, "group": "control_change"}, {"time": 392, "annotation": {"number": 101, "value": 0}, "group": "control_change"}, {"time": 414, "annotation": {"number": 100, "value": 0}, "group": "control_change"}, {"time": 436, "annotation": {"number": 6, "value": 12}, "group": "control_change"}, {"time": 458, "annotation": {"number": 101, "value": 127}, "group": "control_change"}, {"time": 479, "annotation": {"number": 100, "value": 127}, "group": "control_change"}]}, {"program": 0, "is_drum": false, "name": "A.GT CUT 2", "annotations": [{"time": 218, "annotation": {"number": 0, "value": 32}, "group": "control_change"}, {"time": 240, "annotation": {"number": 32, "value": 0}, "group": "control_change"}]}, {"program": 25, "is_drum": false, "name": "A.GT CUT 2", "notes": [{"time": 48483, "pitch": 50, "duration": 217, "velocity": 100}, {"time": 48483, "pitch": 57, "duration": 217, "velocity": 80}, {"time": 48493, "pitch": 62, "duration": 217, "velocity": 90}, {"time": 48493, "pitch": 66, "duration": 217, "velocity": 100}, {"time": 48720, "pitch": 62, "duration": 218, "velocity": 80}, {"time": 48720, "pitch": 66, "duration": 218, "velocity": 90}, {"time": 48730, "pitch": 50, "duration": 217, "velocity": 80}, {"time": 48730, "pitch": 57, "duration": 217, "velocity": 70}, {"time": 48957, "pitch": 50, "duration": 10, "velocity": 100}, {"time": 48957, "pitch": 57, "duration": 10, "velocity": 80}, {"time": 48967, "pitch": 62, "duration": 10, "velocity": 90}, {"time": 48967, "pitch": 66, "duration": 10, "velocity": 100}, {"time": 49198, "pitch": 62, "duration": 221, "velocity": 80}, {"time": 49198, "pitch": 66, "duration": 221, "velocity": 90}, {"time": 49208, "pitch": 50, "duration": 221, "velocity": 80}, {"time": 49208, "pitch": 57, "duration": 221, "velocity": 70}, {"time": 49439, "pitch": 50, "duration": 221, "velocity": 100}, {"time": 49439, "pitch": 57, "duration": 221, "velocity": 80}, {"time": 49449, "pitch": 62, "duration": 221, "velocity": 90}, {"time": 49449, "pitch": 66, "duration": 221, "velocity": 100}, {"time": 49680, "pitch": 62, "duration": 220, "velocity": 80}, {"time": 49680, "pitch": 66, "duration": 220, "velocity": 90}, {"time": 49690, "pitch": 50, "duration": 220, "velocity": 80}, {"time": 49690, "pitch": 57, "duration": 220, "velocity": 70}, {"time": 49921, "pitch": 50, "duration": 10, "velocity": 100}, {"time": 49921, "pitch": 57, "duration": 10, "velocity": 80}, {"time": 49931, "pitch": 62, "duration": 10, "velocity": 90}, {"time": 49931, "pitch": 66, "duration": 10, "velocity": 100}, {"time": 50161, "pitch": 61, "duration": 468, "velocity": 90}, {"time": 50161, "pitch": 66, "duration": 468, "velocity": 100}, {"time": 50171, "pitch": 50, "duration": 448, "velocity": 90}, {"time": 50171, "pitch": 57, "duration": 448, "velocity": 80}, {"time": 50639, "pitch": 61, "duration": 218, "velocity": 80}, {"time": 50639, "pitch": 66, "duration": 218, "velocity": 90}, {"time": 50649, "pitch": 50, "duration": 217, "velocity": 80}, {"time": 50649, "pitch": 57, "duration": 217, "velocity": 70}, {"time": 50876, "pitch": 50, "duration": 10, "velocity": 100}, {"time": 50876, "pitch": 57, "duration": 10, "velocity": 80}, {"time": 50886, "pitch": 61, "duration": 10, "velocity": 90}, {"time": 50886, "pitch": 66, "duration": 10, "velocity": 100}, {"time": 51117, "pitch": 61, "duration": 221, "velocity": 80}, {"time": 51117, "pitch": 66, "duration": 221, "velocity": 90}, {"time": 51127, "pitch": 50, "duration": 221, "velocity": 80}, {"time": 51127, "pitch": 57, "duration": 221, "velocity": 70}, {"time": 51358, "pitch": 50, "duration": 221, "velocity": 100}, {"time": 51358, "pitch": 57, "duration": 221, "velocity": 80}, {"time": 51368, "pitch": 61, "duration": 221, "velocity": 90}, {"time": 51368, "pitch": 66, "duration": 221, "velocity": 100}, {"time": 51599, "pitch": 61, "duration": 220, "velocity": 80}, {"time": 51599, "pitch": 66, "duration": 220, "velocity": 90}, {"time": 51609, "pitch": 50, "duration": 220, "velocity": 80}, {"time": 51609, "pitch": 57, "duration": 220, "velocity": 70}, {"time": 51839, "pitch": 50, "duration": 11, "velocity": 100}, {"time": 51839, "pitch": 57, "duration": 11, "velocity": 80}, {"time": 51850, "pitch": 61, "duration": 10, "velocity": 90}, {"time": 51850, "pitch": 66, "duration": 10, "velocity": 100}, {"time": 52080, "pitch": 61, "duration": 221, "velocity": 90}, {"time": 52080, "pitch": 66, "duration": 221, "velocity": 90}, {"time": 52090, "pitch": 50, "duration": 221, "velocity": 80}, {"time": 52090, "pitch": 57, "duration": 221, "velocity": 70}, {"time": 52321, "pitch": 50, "duration": 221, "velocity": 100}, {"time": 52321, "pitch": 57, "duration": 221, "velocity": 80}, {"time": 52331, "pitch": 61, "duration": 221, "velocity": 90}, {"time": 52331, "pitch": 66, "duration": 221, "velocity": 100}, {"time": 52562, "pitch": 61, "duration": 221, "velocity": 80}, {"time": 52562, "pitch": 66, "duration": 221, "velocity": 90}, {"time": 52572, "pitch": 50, "duration": 221, "velocity": 80}, {"time": 52572, "pitch": 57, "duration": 221, "velocity": 70}, {"time": 52803, "pitch": 50, "duration": 10, "velocity": 100}, {"time": 52803, "pitch": 57, "duration": 10, "velocity": 80}, {"time": 52813, "pitch": 61, "duration": 9, "velocity": 90}, {"time": 52813, "pitch": 66, "duration": 9, "velocity": 100}, {"time": 53040, "pitch": 61, "duration": 217, "velocity": 80}, {"time": 53040, "pitch": 66, "duration": 217, "velocity": 90}, {"time": 53050, "pitch": 50, "duration": 217, "velocity": 80}, {"time": 53050, "pitch": 57, "duration": 217, "velocity": 70}, {"time": 53277, "pitch": 50, "duration": 221, "velocity": 100}, {"time": 53277, "pitch": 57, "duration": 221, "velocity": 80}, {"time": 53287, "pitch": 61, "duration": 221, "velocity": 90}, {"time": 53287, "pitch": 66, "duration": 221, "velocity": 100}, {"time": 53518, "pitch": 61, "duration": 220, "velocity": 80}, {"time": 53518, "pitch": 66, "duration": 220, "velocity": 90}, {"time": 53528, "pitch": 50, "duration": 220, "velocity": 80}, {"time": 53528, "pitch": 57, "duration": 220, "velocity": 70}, {"time": 53758, "pitch": 50, "duration": 11, "velocity": 100}, {"time": 53758, "pitch": 57, "duration": 11, "velocity": 80}, {"time": 53769, "pitch": 61, "duration": 10, "velocity": 90}, {"time": 53769, "pitch": 66, "duration": 10, "velocity": 100}, {"time": 53999, "pitch": 60, "duration": 472, "velocity": 90}, {"time": 53999, "pitch": 66, "duration": 472, "velocity": 100}, {"time": 54009, "pitch": 50, "duration": 452, "velocity": 90}, {"time": 54009, "pitch": 57, "duration": 452, "velocity": 80}, {"time": 54481, "pitch": 60, "duration": 221, "velocity": 80}, {"time": 54481, "pitch": 66, "duration": 221, "velocity": 90}, {"time": 54491, "pitch": 50, "duration": 221, "velocity": 80}, {"time": 54491, "pitch": 57, "duration": 221, "velocity": 70}, {"time": 54722, "pitch": 50, "duration": 10, "velocity": 100}, {"time": 54722, "pitch": 57, "duration": 10, "velocity": 80}, {"time": 54732, "pitch": 60, "duration": 10, "velocity": 90}, {"time": 54732, "pitch": 66, "duration": 10, "velocity": 100}, {"time": 54962, "pitch": 60, "duration": 221, "velocity": 80}, {"time": 54962, "pitch": 66, "duration": 221, "velocity": 90}, {"time": 54972, "pitch": 50, "duration": 221, "velocity": 80}, {"time": 54972, "pitch": 57, "duration": 221, "velocity": 70}, {"time": 55203, "pitch": 50, "duration": 218, "velocity": 100}, {"time": 55203, "pitch": 57, "duration": 218, "velocity": 80}, {"time": 55213, "pitch": 60, "duration": 217, "velocity": 90}, {"time": 55213, "pitch": 66, "duration": 217, "velocity": 100}, {"time": 55440, "pitch": 60, "duration": 218, "velocity": 80}, {"time": 55440, "pitch": 66, "duration": 218, "velocity": 90}, {"time": 55450, "pitch": 50, "duration": 218, "velocity": 80}, {"time": 55450, "pitch": 57, "duration": 218, "velocity": 70}, {"time": 55678, "pitch": 50, "duration": 9, "velocity": 100}, {"time": 55678, "pitch": 57, "duration": 9, "velocity": 80}, {"time": 55687, "pitch": 60, "duration": 11, "velocity": 90}, {"time": 55687, "pitch": 66, "duration": 11, "velocity": 100}, {"time": 55918, "pitch": 60, "duration": 221, "velocity": 90}, {"time": 55918, "pitch": 66, "duration": 221, "velocity": 90}, {"time": 55928, "pitch": 50, "duration": 221, "velocity": 80}, {"time": 55928, "pitch": 57, "duration": 221, "velocity": 70}, {"time": 56159, "pitch": 50, "duration": 221, "velocity": 100}, {"time": 56159, "pitch": 55, "duration": 221, "velocity": 80}, {"time": 56169, "pitch": 59, "duration": 221, "velocity": 90}, {"time": 56169, "pitch": 67, "duration": 221, "velocity": 100}, {"time": 56400, "pitch": 59, "duration": 221, "velocity": 80}, {"time": 56400, "pitch": 67, "duration": 221, "velocity": 90}, {"time": 56410, "pitch": 50, "duration": 221, "velocity": 80}, {"time": 56410, "pitch": 55, "duration": 221, "velocity": 70}, {"time": 56641, "pitch": 50, "duration": 10, "velocity": 100}, {"time": 56641, "pitch": 55, "duration": 10, "velocity": 80}, {"time": 56651, "pitch": 59, "duration": 10, "velocity": 90}, {"time": 56651, "pitch": 67, "duration": 10, "velocity": 100}, {"time": 56881, "pitch": 59, "duration": 221, "velocity": 80}, {"time": 56881, "pitch": 67, "duration": 221, "velocity": 90}, {"time": 56891, "pitch": 50, "duration": 221, "velocity": 80}, {"time": 56891, "pitch": 55, "duration": 221, "velocity": 70}, {"time": 57122, "pitch": 50, "duration": 218, "velocity": 100}, {"time": 57122, "pitch": 55, "duration": 218, "velocity": 80}, {"time": 57132, "pitch": 59, "duration": 217, "velocity": 90}, {"time": 57132, "pitch": 67, "duration": 217, "velocity": 100}, {"time": 57359, "pitch": 59, "duration": 218, "velocity": 80}, {"time": 57359, "pitch": 67, "duration": 218, "velocity": 90}, {"time": 57369, "pitch": 50, "duration": 218, "velocity": 80}, {"time": 57369, "pitch": 55, "duration": 218, "velocity": 70}, {"time": 57597, "pitch": 50, "duration": 9, "velocity": 100}, {"time": 57597, "pitch": 55, "duration": 9, "velocity": 80}, {"time": 57606, "pitch": 59, "duration": 11, "velocity": 90}, {"time": 57606, "pitch": 67, "duration": 11, "velocity": 100}, {"time": 57837, "pitch": 59, "duration": 221, "velocity": 90}, {"time": 57837, "pitch": 67, "duration": 221, "velocity": 90}, {"time": 57847, "pitch": 50, "duration": 221, "velocity": 80}, {"time": 57847, "pitch": 55, "duration": 221, "velocity": 70}, {"time": 58078, "pitch": 50, "duration": 221, "velocity": 100}, {"time": 58078, "pitch": 57, "duration": 221, "velocity": 80}, {"time": 58088, "pitch": 62, "duration": 221, "velocity": 90}, {"time": 58088, "pitch": 66, "duration": 221, "velocity": 100}, {"time": 58319, "pitch": 62, "duration": 221, "velocity": 80}, {"time": 58319, "pitch": 66, "duration": 221, "velocity": 90}, {"time": 58329, "pitch": 50, "duration": 221, "velocity": 80}, {"time": 58329, "pitch": 57, "duration": 221, "velocity": 70}, {"time": 58560, "pitch": 50, "duration": 10, "velocity": 100}, {"time": 58560, "pitch": 57, "duration": 10, "velocity": 80}, {"time": 58570, "pitch": 62, "duration": 10, "velocity": 90}, {"time": 58570, "pitch": 66, "duration": 10, "velocity": 100}, {"time": 58800, "pitch": 62, "duration": 221, "velocity": 80}, {"time": 58800, "pitch": 66, "duration": 221, "velocity": 90}, {"time": 58810, "pitch": 50, "duration": 221, "velocity": 80}, {"time": 58810, "pitch": 57, "duration": 221, "velocity": 70}, {"time": 59041, "pitch": 50, "duration": 221, "velocity": 100}, {"time": 59041, "pitch": 57, "duration": 221, "velocity": 80}, {"time": 59051, "pitch": 62, "duration": 221, "velocity": 90}, {"time": 59051, "pitch": 66, "duration": 221, "velocity": 100}, {"time": 59282, "pitch": 62, "duration": 221, "velocity": 80}, {"time": 59282, "pitch": 66, "duration": 221, "velocity": 90}, {"time": 59292, "pitch": 50, "duration": 221, "velocity": 80}, {"time": 59292, "pitch": 57, "duration": 221, "velocity": 70}, {"time": 59523, "pitch": 50, "duration": 10, "velocity": 100}, {"time": 59523, "pitch": 57, "duration": 10, "velocity": 80}, {"time": 59533, "pitch": 62, "duration": 10, "velocity": 90}, {"time": 59533, "pitch": 66, "duration": 10, "velocity": 100}, {"time": 59760, "pitch": 62, "duration": 217, "velocity": 90}, {"time": 59760, "pitch": 66, "duration": 217, "velocity": 100}, {"time": 59770, "pitch": 50, "duration": 217, "velocity": 90}, {"time": 59770, "pitch": 57, "duration": 217, "velocity": 80}, {"time": 59997, "pitch": 50, "duration": 221, "velocity": 100}, {"time": 59997, "pitch": 55, "duration": 221, "velocity": 80}, {"time": 60007, "pitch": 59, "duration": 221, "velocity": 90}, {"time": 60007, "pitch": 67, "duration": 221, "velocity": 100}, {"time": 60238, "pitch": 59, "duration": 221, "velocity": 80}, {"time": 60238, "pitch": 67, "duration": 221, "velocity": 90}, {"time": 60248, "pitch": 50, "duration": 221, "velocity": 80}, {"time": 60248, "pitch": 55, "duration": 221, "velocity": 70}, {"time": 60479, "pitch": 50, "duration": 10, "velocity": 100}, {"time": 60479, "pitch": 55, "duration": 10, "velocity": 80}, {"time": 60489, "pitch": 59, "duration": 10, "velocity": 90}, {"time": 60489, "pitch": 67, "duration": 10, "velocity": 100}, {"time": 60719, "pitch": 59, "duration": 221, "velocity": 80}, {"time": 60719, "pitch": 67, "duration": 221, "velocity": 90}, {"time": 60729, "pitch": 50, "duration": 221, "velocity": 80}, {"time": 60729, "pitch": 55, "duration": 221, "velocity": 70}, {"time": 60960, "pitch": 50, "duration": 221, "velocity": 100}, {"time": 60960, "pitch": 55, "duration": 221, "velocity": 80}, {"time": 60970, "pitch": 59, "duration": 221, "velocity": 90}, {"time": 60970, "pitch": 67, "duration": 221, "velocity": 100}, {"time": 61201, "pitch": 59, "duration": 221, "velocity": 80}, {"time": 61201, "pitch": 67, "duration": 221, "velocity": 90}, {"time": 61211, "pitch": 50, "duration": 221, "velocity": 80}, {"time": 61211, "pitch": 55, "duration": 221, "velocity": 70}, {"time": 61442, "pitch": 50, "duration": 10, "velocity": 100}, {"time": 61442, "pitch": 55, "duration": 10, "velocity": 80}, {"time": 61452, "pitch": 59, "duration": 10, "velocity": 90}, {"time": 61452, "pitch": 67, "duration": 10, "velocity": 100}, {"time": 61683, "pitch": 59, "duration": 220, "velocity": 90}, {"time": 61683, "pitch": 67, "duration": 220, "velocity": 90}, {"time": 61693, "pitch": 50, "duration": 220, "velocity": 80}, {"time": 61693, "pitch": 55, "duration": 220, "velocity": 70}, {"time": 61923, "pitch": 50, "duration": 218, "velocity": 100}, {"time": 61923, "pitch": 55, "duration": 218, "velocity": 80}, {"time": 61933, "pitch": 59, "duration": 218, "velocity": 90}, {"time": 61933, "pitch": 64, "duration": 218, "velocity": 100}, {"time": 62160, "pitch": 59, "duration": 218, "velocity": 80}, {"time": 62160, "pitch": 64, "duration": 218, "velocity": 90}, {"time": 62170, "pitch": 50, "duration": 218, "velocity": 80}, {"time": 62170, "pitch": 55, "duration": 218, "velocity": 70}, {"time": 62398, "pitch": 50, "duration": 10, "velocity": 100}, {"time": 62398, "pitch": 55, "duration": 10, "velocity": 80}, {"time": 62408, "pitch": 59, "duration": 10, "velocity": 90}, {"time": 62408, "pitch": 64, "duration": 10, "velocity": 100}, {"time": 62638, "pitch": 59, "duration": 221, "velocity": 80}, {"time": 62638, "pitch": 64, "duration": 221, "velocity": 90}, {"time": 62648, "pitch": 50, "duration": 221, "velocity": 80}, {"time": 62648, "pitch": 55, "duration": 221, "velocity": 70}, {"time": 62879, "pitch": 50, "duration": 10, "velocity": 100}, {"time": 62879, "pitch": 55, "duration": 10, "velocity": 80}, {"time": 62889, "pitch": 59, "duration": 10, "velocity": 90}, {"time": 62889, "pitch": 64, "duration": 10, "velocity": 100}, {"time": 63120, "pitch": 61, "duration": 682, "velocity": 90}, {"time": 63120, "pitch": 64, "duration": 682, "velocity": 100}, {"time": 63130, "pitch": 52, "duration": 682, "velocity": 90}, {"time": 63130, "pitch": 57, "duration": 682, "velocity": 80}, {"time": 63842, "pitch": 50, "duration": 218, "velocity": 100}, {"time": 63842, "pitch": 57, "duration": 218, "velocity": 80}, {"time": 63852, "pitch": 62, "duration": 218, "velocity": 90}, {"time": 63852, "pitch": 66, "duration": 218, "velocity": 100}, {"time": 64079, "pitch": 62, "duration": 218, "velocity": 80}, {"time": 64079, "pitch": 66, "duration": 218, "velocity": 90}, {"time": 64089, "pitch": 50, "duration": 218, "velocity": 80}, {"time": 64089, "pitch": 57, "duration": 218, "velocity": 70}, {"time": 64317, "pitch": 50, "duration": 10, "velocity": 100}, {"time": 64317, "pitch": 57, "duration": 10, "velocity": 80}, {"time": 64327, "pitch": 62, "duration": 10, "velocity": 90}, {"time": 64327, "pitch": 66, "duration": 10, "velocity": 100}, {"time": 64557, "pitch": 62, "duration": 221, "velocity": 80}, {"time": 64557, "pitch": 66, "duration": 221, "velocity": 90}, {"time": 64567, "pitch": 50, "duration": 221, "velocity": 80}, {"time": 64567, "pitch": 57, "duration": 221, "velocity": 70}, {"time": 64798, "pitch": 50, "duration": 221, "velocity": 100}, {"time": 64798, "pitch": 57, "duration": 221, "velocity": 80}, {"time": 64808, "pitch": 62, "duration": 221, "velocity": 90}, {"time": 64808, "pitch": 66, "duration": 221, "velocity": 100}, {"time": 65039, "pitch": 62, "duration": 221, "velocity": 80}, {"time": 65039, "pitch": 66, "duration": 221, "velocity": 90}, {"time": 65049, "pitch": 50, "duration": 221, "velocity": 80}, {"time": 65049, "pitch": 57, "duration": 221, "velocity": 70}, {"time": 65280, "pitch": 50, "duration": 10, "velocity": 100}, {"time": 65280, "pitch": 57, "duration": 10, "velocity": 80}, {"time": 65290, "pitch": 62, "duration": 10, "velocity": 90}, {"time": 65290, "pitch": 66, "duration": 10, "velocity": 100}, {"time": 65521, "pitch": 61, "duration": 471, "velocity": 90}, {"time": 65521, "pitch": 66, "duration": 471, "velocity": 100}, {"time": 65531, "pitch": 50, "duration": 451, "velocity": 90}, {"time": 65531, "pitch": 57, "duration": 451, "velocity": 80}, {"time": 66002, "pitch": 61, "duration": 221, "velocity": 80}, {"time": 66002, "pitch": 66, "duration": 221, "velocity": 90}, {"time": 66012, "pitch": 50, "duration": 221, "velocity": 80}, {"time": 66012, "pitch": 57, "duration": 221, "velocity": 70}, {"time": 66243, "pitch": 50, "duration": 10, "velocity": 100}, {"time": 66243, "pitch": 57, "duration": 10, "velocity": 80}, {"time": 66253, "pitch": 61, "duration": 10, "velocity": 90}, {"time": 66253, "pitch": 66, "duration": 10, "velocity": 100}, {"time": 66480, "pitch": 61, "duration": 217, "velocity": 80}, {"time": 66480, "pitch": 66, "duration": 217, "velocity": 90}, {"time": 66490, "pitch": 50, "duration": 217, "velocity": 80}, {"time": 66490, "pitch": 57, "duration": 217, "velocity": 70}, {"time": 66717, "pitch": 50, "duration": 221, "velocity": 100}, {"time": 66717, "pitch": 57, "duration": 221, "velocity": 80}, {"time": 66727, "pitch": 61, "duration": 221, "velocity": 90}, {"time": 66727, "pitch": 66, "duration": 221, "velocity": 100}, {"time": 66958, "pitch": 61, "duration": 221, "velocity": 80}, {"time": 66958, "pitch": 66, "duration": 221, "velocity": 90}, {"time": 66968, "pitch": 50, "duration": 221, "velocity": 80}, {"time": 66968, "pitch": 57, "duration": 221, "velocity": 70}, {"time": 67199, "pitch": 50, "duration": 10, "velocity": 100}, {"time": 67199, "pitch": 57, "duration": 10, "velocity": 80}, {"time": 67209, "pitch": 61, "duration": 10, "velocity": 90}, {"time": 67209, "pitch": 66, "duration": 10, "velocity": 100}, {"time": 67440, "pitch": 61, "duration": 220, "velocity": 90}, {"time": 67440, "pitch": 66, "duration": 220, "velocity": 90}, {"time": 67450, "pitch": 50, "duration": 220, "velocity": 80}, {"time": 67450, "pitch": 57, "duration": 220, "velocity": 70}, {"time": 67680, "pitch": 50, "duration": 221, "velocity": 100}, {"time": 67680, "pitch": 57, "duration": 221, "velocity": 80}, {"time": 67690, "pitch": 61, "duration": 221, "velocity": 90}, {"time": 67690, "pitch": 66, "duration": 221, "velocity": 100}, {"time": 67921, "pitch": 61, "duration": 221, "velocity": 80}, {"time": 67921, "pitch": 66, "duration": 221, "velocity": 90}, {"time": 67931, "pitch": 50, "duration": 221, "velocity": 80}, {"time": 67931, "pitch": 57, "duration": 221, "velocity": 70}, {"time": 68162, "pitch": 50, "duration": 10, "velocity": 100}, {"time": 68162, "pitch": 57, "duration": 10, "velocity": 80}, {"time": 68172, "pitch": 61, "duration": 10, "velocity": 90}, {"time": 68172, "pitch": 66, "duration": 10, "velocity": 100}, {"time": 68403, "pitch": 61, "duration": 220, "velocity": 80}, {"time": 68403, "pitch": 66, "duration": 220, "velocity": 90}, {"time": 68413, "pitch": 50, "duration": 220, "velocity": 80}, {"time": 68413, "pitch": 57, "duration": 220, "velocity": 70}, {"time": 68643, "pitch": 50, "duration": 218, "velocity": 100}, {"time": 68643, "pitch": 57, "duration": 218, "velocity": 80}, {"time": 68653, "pitch": 61, "duration": 218, "velocity": 90}, {"time": 68653, "pitch": 66, "duration": 218, "velocity": 100}, {"time": 68881, "pitch": 61, "duration": 217, "velocity": 80}, {"time": 68881, "pitch": 66, "duration": 217, "velocity": 90}, {"time": 68891, "pitch": 50, "duration": 217, "velocity": 80}, {"time": 68891, "pitch": 57, "duration": 217, "velocity": 70}, {"time": 69118, "pitch": 50, "duration": 10, "velocity": 100}, {"time": 69118, "pitch": 57, "duration": 10, "velocity": 80}, {"time": 69128, "pitch": 61, "duration": 10, "velocity": 90}, {"time": 69128, "pitch": 66, "duration": 10, "velocity": 100}, {"time": 69359, "pitch": 60, "duration": 471, "velocity": 90}, {"time": 69359, "pitch": 66, "duration": 471, "velocity": 100}, {"time": 69369, "pitch": 50, "duration": 451, "velocity": 90}, {"time": 69369, "pitch": 57, "duration": 451, "velocity": 80}, {"time": 69840, "pitch": 60, "duration": 221, "velocity": 80}, {"time": 69840, "pitch": 66, "duration": 221, "velocity": 90}, {"time": 69850, "pitch": 50, "duration": 221, "velocity": 80}, {"time": 69850, "pitch": 57, "duration": 221, "velocity": 70}, {"time": 70081, "pitch": 50, "duration": 10, "velocity": 100}, {"time": 70081, "pitch": 57, "duration": 10, "velocity": 80}, {"time": 70091, "pitch": 60, "duration": 10, "velocity": 90}, {"time": 70091, "pitch": 66, "duration": 10, "velocity": 100}, {"time": 70322, "pitch": 60, "duration": 220, "velocity": 80}, {"time": 70322, "pitch": 66, "duration": 220, "velocity": 90}, {"time": 70332, "pitch": 50, "duration": 220, "velocity": 80}, {"time": 70332, "pitch": 57, "duration": 220, "velocity": 70}, {"time": 70562, "pitch": 50, "duration": 218, "velocity": 100}, {"time": 70562, "pitch": 57, "duration": 218, "velocity": 80}, {"time": 70572, "pitch": 60, "duration": 218, "velocity": 90}, {"time": 70572, "pitch": 66, "duration": 218, "velocity": 100}, {"time": 70800, "pitch": 60, "duration": 217, "velocity": 80}, {"time": 70800, "pitch": 66, "duration": 217, "velocity": 90}, {"time": 70810, "pitch": 50, "duration": 217, "velocity": 80}, {"time": 70810, "pitch": 57, "duration": 217, "velocity": 70}, {"time": 71037, "pitch": 50, "duration": 10, "velocity": 100}, {"time": 71037, "pitch": 57, "duration": 10, "velocity": 80}, {"time": 71047, "pitch": 60, "duration": 10, "velocity": 90}, {"time": 71047, "pitch": 66, "duration": 10, "velocity": 100}, {"time": 71278, "pitch": 60, "duration": 220, "velocity": 90}, {"time": 71278, "pitch": 66, "duration": 220, "velocity": 90}, {"time": 71288, "pitch": 50, "duration": 220, "velocity": 80}, {"time": 71288, "pitch": 57, "duration": 220, "velocity": 70}, {"time": 71518, "pitch": 50, "duration": 221, "velocity": 100}, {"time": 71518, "pitch": 55, "duration": 221, "velocity": 80}, {"time": 71528, "pitch": 59, "duration": 221, "velocity": 90}, {"time": 71528, "pitch": 67, "duration": 221, "velocity": 100}, {"time": 71759, "pitch": 59, "duration": 221, "velocity": 80}, {"time": 71759, "pitch": 67, "duration": 221, "velocity": 90}, {"time": 71769, "pitch": 50, "duration": 221, "velocity": 80}, {"time": 71769, "pitch": 55, "duration": 221, "velocity": 70}, {"time": 72000, "pitch": 50, "duration": 10, "velocity": 100}, {"time": 72000, "pitch": 55, "duration": 10, "velocity": 80}, {"time": 72010, "pitch": 59, "duration": 10, "velocity": 90}, {"time": 72010, "pitch": 67, "duration": 10, "velocity": 100}, {"time": 72241, "pitch": 59, "duration": 220, "velocity": 80}, {"time": 72241, "pitch": 67, "duration": 220, "velocity": 90}, {"time": 72251, "pitch": 50, "duration": 220, "velocity": 80}, {"time": 72251, "pitch": 55, "duration": 220, "velocity": 70}, {"time": 72481, "pitch": 50, "duration": 221, "velocity": 100}, {"time": 72481, "pitch": 55, "duration": 221, "velocity": 80}, {"time": 72492, "pitch": 59, "duration": 220, "velocity": 90}, {"time": 72492, "pitch": 67, "duration": 220, "velocity": 100}, {"time": 72722, "pitch": 59, "duration": 221, "velocity": 80}, {"time": 72722, "pitch": 67, "duration": 221, "velocity": 90}, {"time": 72732, "pitch": 50, "duration": 221, "velocity": 80}, {"time": 72732, "pitch": 55, "duration": 221, "velocity": 70}, {"time": 72963, "pitch": 50, "duration": 10, "velocity": 100}, {"time": 72963, "pitch": 55, "duration": 10, "velocity": 80}, {"time": 72973, "pitch": 59, "duration": 10, "velocity": 90}, {"time": 72973, "pitch": 67, "duration": 10, "velocity": 100}, {"time": 73200, "pitch": 59, "duration": 218, "velocity": 90}, {"time": 73200, "pitch": 67, "duration": 218, "velocity": 90}, {"time": 73210, "pitch": 50, "duration": 217, "velocity": 80}, {"time": 73210, "pitch": 55, "duration": 217, "velocity": 70}, {"time": 73437, "pitch": 50, "duration": 221, "velocity": 100}, {"time": 73437, "pitch": 57, "duration": 221, "velocity": 80}, {"time": 73447, "pitch": 62, "duration": 221, "velocity": 90}, {"time": 73447, "pitch": 66, "duration": 221, "velocity": 100}, {"time": 73678, "pitch": 62, "duration": 221, "velocity": 80}, {"time": 73678, "pitch": 66, "duration": 221, "velocity": 90}, {"time": 73688, "pitch": 50, "duration": 221, "velocity": 80}, {"time": 73688, "pitch": 57, "duration": 221, "velocity": 70}, {"time": 73919, "pitch": 50, "duration": 10, "velocity": 100}, {"time": 73919, "pitch": 57, "duration": 10, "velocity": 80}, {"time": 73929, "pitch": 62, "duration": 10, "velocity": 90}, {"time": 73929, "pitch": 66, "duration": 10, "velocity": 100}, {"time": 74160, "pitch": 62, "duration": 220, "velocity": 80}, {"time": 74160, "pitch": 66, "duration": 220, "velocity": 90}, {"time": 74170, "pitch": 50, "duration": 220, "velocity": 80}, {"time": 74170, "pitch": 57, "duration": 220, "velocity": 70}, {"time": 74400, "pitch": 50, "duration": 221, "velocity": 100}, {"time": 74400, "pitch": 57, "duration": 221, "velocity": 80}, {"time": 74411, "pitch": 62, "duration": 220, "velocity": 90}, {"time": 74411, "pitch": 66, "duration": 220, "velocity": 100}, {"time": 74641, "pitch": 62, "duration": 221, "velocity": 80}, {"time": 74641, "pitch": 66, "duration": 221, "velocity": 90}, {"time": 74651, "pitch": 50, "duration": 221, "velocity": 80}, {"time": 74651, "pitch": 57, "duration": 221, "velocity": 70}, {"time": 74882, "pitch": 50, "duration": 10, "velocity": 100}, {"time": 74882, "pitch": 57, "duration": 10, "velocity": 80}, {"time": 74892, "pitch": 62, "duration": 10, "velocity": 90}, {"time": 74892, "pitch": 66, "duration": 10, "velocity": 100}, {"time": 75123, "pitch": 62, "duration": 221, "velocity": 90}, {"time": 75123, "pitch": 66, "duration": 221, "velocity": 100}, {"time": 75133, "pitch": 50, "duration": 221, "velocity": 90}, {"time": 75133, "pitch": 57, "duration": 221, "velocity": 80}, {"time": 75364, "pitch": 50, "duration": 217, "velocity": 100}, {"time": 75364, "pitch": 55, "duration": 217, "velocity": 80}, {"time": 75373, "pitch": 59, "duration": 218, "velocity": 90}, {"time": 75373, "pitch": 67, "duration": 218, "velocity": 100}, {"time": 75601, "pitch": 59, "duration": 217, "velocity": 80}, {"time": 75601, "pitch": 67, "duration": 217, "velocity": 90}, {"time": 75611, "pitch": 50, "duration": 217, "velocity": 80}, {"time": 75611, "pitch": 55, "duration": 217, "velocity": 70}, {"time": 75838, "pitch": 50, "duration": 10, "velocity": 100}, {"time": 75838, "pitch": 55, "duration": 10, "velocity": 80}, {"time": 75848, "pitch": 59, "duration": 10, "velocity": 90}, {"time": 75848, "pitch": 67, "duration": 10, "velocity": 100}, {"time": 76079, "pitch": 59, "duration": 220, "velocity": 80}, {"time": 76079, "pitch": 67, "duration": 220, "velocity": 90}, {"time": 76089, "pitch": 50, "duration": 220, "velocity": 80}, {"time": 76089, "pitch": 55, "duration": 220, "velocity": 70}, {"time": 76319, "pitch": 50, "duration": 221, "velocity": 100}, {"time": 76319, "pitch": 55, "duration": 221, "velocity": 80}, {"time": 76329, "pitch": 59, "duration": 221, "velocity": 90}, {"time": 76329, "pitch": 67, "duration": 221, "velocity": 100}, {"time": 76560, "pitch": 59, "duration": 221, "velocity": 80}, {"time": 76560, "pitch": 67, "duration": 221, "velocity": 90}, {"time": 76570, "pitch": 50, "duration": 221, "velocity": 80}, {"time": 76570, "pitch": 55, "duration": 221, "velocity": 70}, {"time": 76801, "pitch": 50, "duration": 10, "velocity": 100}, {"time": 76801, "pitch": 55, "duration": 10, "velocity": 80}, {"time": 76811, "pitch": 59, "duration": 10, "velocity": 90}, {"time": 76811, "pitch": 67, "duration": 10, "velocity": 100}, {"time": 77042, "pitch": 59, "duration": 221, "velocity": 90}, {"time": 77042, "pitch": 67, "duration": 221, "velocity": 90}, {"time": 77052, "pitch": 50, "duration": 221, "velocity": 80}, {"time": 77052, "pitch": 55, "duration": 221, "velocity": 70}, {"time": 77283, "pitch": 55, "duration": 217, "velocity": 100}, {"time": 77283, "pitch": 58, "duration": 217, "velocity": 80}, {"time": 77292, "pitch": 62, "duration": 218, "velocity": 90}, {"time": 77292, "pitch": 67, "duration": 218, "velocity": 100}, {"time": 77520, "pitch": 62, "duration": 217, "velocity": 80}, {"time": 77520, "pitch": 67, "duration": 217, "velocity": 90}, {"time": 77530, "pitch": 55, "duration": 217, "velocity": 80}, {"time": 77530, "pitch": 58, "duration": 217, "velocity": 70}, {"time": 77757, "pitch": 55, "duration": 10, "velocity": 100}, {"time": 77757, "pitch": 58, "duration": 10, "velocity": 80}, {"time": 77767, "pitch": 62, "duration": 10, "velocity": 90}, {"time": 77767, "pitch": 67, "duration": 10, "velocity": 100}, {"time": 77998, "pitch": 62, "duration": 451, "velocity": 90}, {"time": 77998, "pitch": 67, "duration": 451, "velocity": 100}, {"time": 78008, "pitch": 54, "duration": 451, "velocity": 90}, {"time": 78008, "pitch": 58, "duration": 451, "velocity": 80}, {"time": 78479, "pitch": 55, "duration": 452, "velocity": 100}, {"time": 78479, "pitch": 58, "duration": 452, "velocity": 80}, {"time": 78489, "pitch": 62, "duration": 452, "velocity": 90}, {"time": 78489, "pitch": 67, "duration": 452, "velocity": 100}, {"time": 78961, "pitch": 63, "duration": 4059, "velocity": 100}, {"time": 78961, "pitch": 67, "duration": 4059, "velocity": 100}, {"time": 78971, "pitch": 44, "duration": 4049, "velocity": 100}, {"time": 78971, "pitch": 58, "duration": 4049, "velocity": 80}, {"time": 131036, "pitch": 50, "duration": 221, "velocity": 100}, {"time": 131036, "pitch": 57, "duration": 221, "velocity": 80}, {"time": 131046, "pitch": 62, "duration": 221, "velocity": 90}, {"time": 131046, "pitch": 66, "duration": 221, "velocity": 100}, {"time": 131277, "pitch": 62, "duration": 221, "velocity": 80}, {"time": 131277, "pitch": 66, "duration": 221, "velocity": 90}, {"time": 131287, "pitch": 50, "duration": 221, "velocity": 80}, {"time": 131287, "pitch": 57, "duration": 221, "velocity": 70}, {"time": 131518, "pitch": 50, "duration": 10, "velocity": 100}, {"time": 131518, "pitch": 57, "duration": 10, "velocity": 80}, {"time": 131528, "pitch": 62, "duration": 10, "velocity": 90}, {"time": 131528, "pitch": 66, "duration": 10, "velocity": 100}, {"time": 131759, "pitch": 62, "duration": 220, "velocity": 80}, {"time": 131759, "pitch": 66, "duration": 220, "velocity": 90}, {"time": 131769, "pitch": 50, "duration": 220, "velocity": 80}, {"time": 131769, "pitch": 57, "duration": 220, "velocity": 70}, {"time": 132000, "pitch": 50, "duration": 220, "velocity": 100}, {"time": 132000, "pitch": 57, "duration": 220, "velocity": 80}, {"time": 132010, "pitch": 62, "duration": 220, "velocity": 90}, {"time": 132010, "pitch": 66, "duration": 220, "velocity": 100}, {"time": 132240, "pitch": 62, "duration": 221, "velocity": 80}, {"time": 132240, "pitch": 66, "duration": 221, "velocity": 90}, {"time": 132250, "pitch": 50, "duration": 221, "velocity": 80}, {"time": 132250, "pitch": 57, "duration": 221, "velocity": 70}, {"time": 132481, "pitch": 50, "duration": 10, "velocity": 100}, {"time": 132481, "pitch": 57, "duration": 10, "velocity": 80}, {"time": 132491, "pitch": 62, "duration": 10, "velocity": 90}, {"time": 132491, "pitch": 66, "duration": 10, "velocity": 100}, {"time": 132722, "pitch": 61, "duration": 468, "velocity": 90}, {"time": 132722, "pitch": 66, "duration": 468, "velocity": 100}, {"time": 132732, "pitch": 50, "duration": 448, "velocity": 90}, {"time": 132732, "pitch": 57, "duration": 448, "velocity": 80}, {"time": 133200, "pitch": 61, "duration": 217, "velocity": 80}, {"time": 133200, "pitch": 66, "duration": 217, "velocity": 90}, {"time": 133210, "pitch": 50, "duration": 217, "velocity": 80}, {"time": 133210, "pitch": 57, "duration": 217, "velocity": 70}, {"time": 133437, "pitch": 50, "duration": 10, "velocity": 100}, {"time": 133437, "pitch": 57, "duration": 10, "velocity": 80}, {"time": 133447, "pitch": 61, "duration": 10, "velocity": 90}, {"time": 133447, "pitch": 66, "duration": 10, "velocity": 100}, {"time": 133678, "pitch": 61, "duration": 220, "velocity": 80}, {"time": 133678, "pitch": 66, "duration": 220, "velocity": 90}, {"time": 133688, "pitch": 50, "duration": 220, "velocity": 80}, {"time": 133688, "pitch": 57, "duration": 220, "velocity": 70}, {"time": 133919, "pitch": 50, "duration": 220, "velocity": 100}, {"time": 133919, "pitch": 57, "duration": 220, "velocity": 80}, {"time": 133929, "pitch": 61, "duration": 220, "velocity": 90}, {"time": 133929, "pitch": 66, "duration": 220, "velocity": 100}, {"time": 134159, "pitch": 61, "duration": 221, "velocity": 80}, {"time": 134159, "pitch": 66, "duration": 221, "velocity": 90}, {"time": 134169, "pitch": 50, "duration": 221, "velocity": 80}, {"time": 134169, "pitch": 57, "duration": 221, "velocity": 70}, {"time": 134400, "pitch": 50, "duration": 10, "velocity": 100}, {"time": 134400, "pitch": 57, "duration": 10, "velocity": 80}, {"time": 134410, "pitch": 61, "duration": 10, "velocity": 90}, {"time": 134410, "pitch": 66, "duration": 10, "velocity": 100}, {"time": 134641, "pitch": 61, "duration": 221, "velocity": 90}, {"time": 134641, "pitch": 66, "duration": 221, "velocity": 90}, {"time": 134651, "pitch": 50, "duration": 221, "velocity": 80}, {"time": 134651, "pitch": 57, "duration": 221, "velocity": 70}, {"time": 134882, "pitch": 50, "duration": 220, "velocity": 100}, {"time": 134882, "pitch": 57, "duration": 220, "velocity": 80}, {"time": 134892, "pitch": 61, "duration": 220, "velocity": 90}, {"time": 134892, "pitch": 66, "duration": 220, "velocity": 100}, {"time": 135122, "pitch": 61, "duration": 221, "velocity": 80}, {"time": 135122, "pitch": 66, "duration": 221, "velocity": 90}, {"time": 135133, "pitch": 50, "duration": 220, "velocity": 80}, {"time": 135133, "pitch": 57, "duration": 220, "velocity": 70}, {"time": 135363, "pitch": 50, "duration": 10, "velocity": 100}, {"time": 135363, "pitch": 57, "duration": 10, "velocity": 80}, {"time": 135373, "pitch": 61, "duration": 10, "velocity": 90}, {"time": 135373, "pitch": 66, "duration": 10, "velocity": 100}, {"time": 135600, "pitch": 61, "duration": 218, "velocity": 80}, {"time": 135600, "pitch": 66, "duration": 218, "velocity": 90}, {"time": 135610, "pitch": 50, "duration": 218, "velocity": 80}, {"time": 135610, "pitch": 57, "duration": 218, "velocity": 70}, {"time": 135838, "pitch": 50, "duration": 220, "velocity": 100}, {"time": 135838, "pitch": 57, "duration": 220, "velocity": 80}, {"time": 135848, "pitch": 61, "duration": 220, "velocity": 90}, {"time": 135848, "pitch": 66, "duration": 220, "velocity": 100}, {"time": 136078, "pitch": 61, "duration": 221, "velocity": 80}, {"time": 136078, "pitch": 66, "duration": 221, "velocity": 90}, {"time": 136088, "pitch": 50, "duration": 221, "velocity": 80}, {"time": 136088, "pitch": 57, "duration": 221, "velocity": 70}, {"time": 136319, "pitch": 50, "duration": 10, "velocity": 100}, {"time": 136319, "pitch": 57, "duration": 10, "velocity": 80}, {"time": 136329, "pitch": 61, "duration": 10, "velocity": 90}, {"time": 136329, "pitch": 66, "duration": 10, "velocity": 100}, {"time": 136560, "pitch": 60, "duration": 471, "velocity": 90}, {"time": 136560, "pitch": 66, "duration": 471, "velocity": 100}, {"time": 136570, "pitch": 50, "duration": 451, "velocity": 90}, {"time": 136570, "pitch": 57, "duration": 451, "velocity": 80}, {"time": 137041, "pitch": 60, "duration": 221, "velocity": 80}, {"time": 137041, "pitch": 66, "duration": 221, "velocity": 90}, {"time": 137052, "pitch": 50, "duration": 220, "velocity": 80}, {"time": 137052, "pitch": 57, "duration": 220, "velocity": 70}, {"time": 137282, "pitch": 50, "duration": 10, "velocity": 100}, {"time": 137282, "pitch": 57, "duration": 10, "velocity": 80}, {"time": 137292, "pitch": 60, "duration": 10, "velocity": 90}, {"time": 137292, "pitch": 66, "duration": 10, "velocity": 100}, {"time": 137519, "pitch": 60, "duration": 218, "velocity": 80}, {"time": 137519, "pitch": 66, "duration": 218, "velocity": 90}, {"time": 137529, "pitch": 50, "duration": 218, "velocity": 80}, {"time": 137529, "pitch": 57, "duration": 218, "velocity": 70}, {"time": 137757, "pitch": 50, "duration": 220, "velocity": 100}, {"time": 137757, "pitch": 57, "duration": 220, "velocity": 80}, {"time": 137767, "pitch": 60, "duration": 220, "velocity": 90}, {"time": 137767, "pitch": 66, "duration": 220, "velocity": 100}, {"time": 137997, "pitch": 60, "duration": 221, "velocity": 80}, {"time": 137997, "pitch": 66, "duration": 221, "velocity": 90}, {"time": 138007, "pitch": 50, "duration": 221, "velocity": 80}, {"time": 138007, "pitch": 57, "duration": 221, "velocity": 70}, {"time": 138238, "pitch": 50, "duration": 10, "velocity": 100}, {"time": 138238, "pitch": 57, "duration": 10, "velocity": 80}, {"time": 138248, "pitch": 60, "duration": 10, "velocity": 90}, {"time": 138248, "pitch": 66, "duration": 10, "velocity": 100}, {"time": 138479, "pitch": 60, "duration": 221, "velocity": 90}, {"time": 138479, "pitch": 66, "duration": 221, "velocity": 90}, {"time": 138489, "pitch": 50, "duration": 221, "velocity": 80}, {"time": 138489, "pitch": 57, "duration": 221, "velocity": 70}, {"time": 138720, "pitch": 50, "duration": 220, "velocity": 100}, {"time": 138720, "pitch": 55, "duration": 220, "velocity": 80}, {"time": 138730, "pitch": 59, "duration": 220, "velocity": 90}, {"time": 138730, "pitch": 67, "duration": 220, "velocity": 100}, {"time": 138960, "pitch": 59, "duration": 221, "velocity": 80}, {"time": 138960, "pitch": 67, "duration": 221, "velocity": 90}, {"time": 138970, "pitch": 50, "duration": 221, "velocity": 80}, {"time": 138970, "pitch": 55, "duration": 221, "velocity": 70}, {"time": 139201, "pitch": 50, "duration": 10, "velocity": 100}, {"time": 139201, "pitch": 55, "duration": 10, "velocity": 80}, {"time": 139211, "pitch": 59, "duration": 10, "velocity": 90}, {"time": 139211, "pitch": 67, "duration": 10, "velocity": 100}, {"time": 139442, "pitch": 59, "duration": 221, "velocity": 80}, {"time": 139442, "pitch": 67, "duration": 221, "velocity": 90}, {"time": 139452, "pitch": 50, "duration": 221, "velocity": 80}, {"time": 139452, "pitch": 55, "duration": 221, "velocity": 70}, {"time": 139683, "pitch": 50, "duration": 217, "velocity": 100}, {"time": 139683, "pitch": 55, "duration": 217, "velocity": 80}, {"time": 139693, "pitch": 59, "duration": 217, "velocity": 90}, {"time": 139693, "pitch": 67, "duration": 217, "velocity": 100}, {"time": 139920, "pitch": 59, "duration": 217, "velocity": 80}, {"time": 139920, "pitch": 67, "duration": 217, "velocity": 90}, {"time": 139930, "pitch": 50, "duration": 217, "velocity": 80}, {"time": 139930, "pitch": 55, "duration": 217, "velocity": 70}, {"time": 140157, "pitch": 50, "duration": 10, "velocity": 100}, {"time": 140157, "pitch": 55, "duration": 10, "velocity": 80}, {"time": 140167, "pitch": 59, "duration": 10, "velocity": 90}, {"time": 140167, "pitch": 67, "duration": 10, "velocity": 100}, {"time": 140398, "pitch": 59, "duration": 221, "velocity": 90}, {"time": 140398, "pitch": 67, "duration": 221, "velocity": 90}, {"time": 140408, "pitch": 50, "duration": 221, "velocity": 80}, {"time": 140408, "pitch": 55, "duration": 221, "velocity": 70}, {"time": 140639, "pitch": 50, "duration": 220, "velocity": 100}, {"time": 140639, "pitch": 57, "duration": 220, "velocity": 80}, {"time": 140649, "pitch": 62, "duration": 220, "velocity": 90}, {"time": 140649, "pitch": 66, "duration": 220, "velocity": 100}, {"time": 140879, "pitch": 62, "duration": 221, "velocity": 80}, {"time": 140879, "pitch": 66, "duration": 221, "velocity": 90}, {"time": 140889, "pitch": 50, "duration": 221, "velocity": 80}, {"time": 140889, "pitch": 57, "duration": 221, "velocity": 70}, {"time": 141120, "pitch": 50, "duration": 10, "velocity": 100}, {"time": 141120, "pitch": 57, "duration": 10, "velocity": 80}, {"time": 141130, "pitch": 62, "duration": 10, "velocity": 90}, {"time": 141130, "pitch": 66, "duration": 10, "velocity": 100}, {"time": 141361, "pitch": 62, "duration": 221, "velocity": 80}, {"time": 141361, "pitch": 66, "duration": 221, "velocity": 90}, {"time": 141371, "pitch": 50, "duration": 221, "velocity": 80}, {"time": 141371, "pitch": 57, "duration": 221, "velocity": 70}, {"time": 141602, "pitch": 50, "duration": 221, "velocity": 100}, {"time": 141602, "pitch": 57, "duration": 221, "velocity": 80}, {"time": 141612, "pitch": 62, "duration": 221, "velocity": 90}, {"time": 141612, "pitch": 66, "duration": 221, "velocity": 100}, {"time": 141843, "pitch": 62, "duration": 220, "velocity": 80}, {"time": 141843, "pitch": 66, "duration": 220, "velocity": 90}, {"time": 141853, "pitch": 50, "duration": 220, "velocity": 80}, {"time": 141853, "pitch": 57, "duration": 220, "velocity": 70}, {"time": 142083, "pitch": 50, "duration": 10, "velocity": 100}, {"time": 142083, "pitch": 57, "duration": 10, "velocity": 80}, {"time": 142093, "pitch": 62, "duration": 10, "velocity": 90}, {"time": 142093, "pitch": 66, "duration": 10, "velocity": 100}, {"time": 142321, "pitch": 62, "duration": 217, "velocity": 90}, {"time": 142321, "pitch": 66, "duration": 217, "velocity": 100}, {"time": 142330, "pitch": 50, "duration": 218, "velocity": 90}, {"time": 142330, "pitch": 57, "duration": 218, "velocity": 80}, {"time": 142558, "pitch": 50, "duration": 220, "velocity": 100}, {"time": 142558, "pitch": 55, "duration": 220, "velocity": 80}, {"time": 142568, "pitch": 59, "duration": 220, "velocity": 90}, {"time": 142568, "pitch": 67, "duration": 220, "velocity": 100}, {"time": 142798, "pitch": 59, "duration": 221, "velocity": 80}, {"time": 142798, "pitch": 67, "duration": 221, "velocity": 90}, {"time": 142808, "pitch": 50, "duration": 221, "velocity": 80}, {"time": 142808, "pitch": 55, "duration": 221, "velocity": 70}, {"time": 143039, "pitch": 50, "duration": 10, "velocity": 100}, {"time": 143039, "pitch": 55, "duration": 10, "velocity": 80}, {"time": 143049, "pitch": 59, "duration": 10, "velocity": 90}, {"time": 143049, "pitch": 67, "duration": 10, "velocity": 100}, {"time": 143280, "pitch": 59, "duration": 221, "velocity": 80}, {"time": 143280, "pitch": 67, "duration": 221, "velocity": 90}, {"time": 143290, "pitch": 50, "duration": 221, "velocity": 80}, {"time": 143290, "pitch": 55, "duration": 221, "velocity": 70}, {"time": 143521, "pitch": 50, "duration": 221, "velocity": 100}, {"time": 143521, "pitch": 55, "duration": 221, "velocity": 80}, {"time": 143531, "pitch": 59, "duration": 221, "velocity": 90}, {"time": 143531, "pitch": 67, "duration": 221, "velocity": 100}, {"time": 143762, "pitch": 59, "duration": 220, "velocity": 80}, {"time": 143762, "pitch": 67, "duration": 220, "velocity": 90}, {"time": 143772, "pitch": 50, "duration": 220, "velocity": 80}, {"time": 143772, "pitch": 55, "duration": 220, "velocity": 70}, {"time": 144002, "pitch": 50, "duration": 10, "velocity": 100}, {"time": 144002, "pitch": 55, "duration": 10, "velocity": 80}, {"time": 144012, "pitch": 59, "duration": 10, "velocity": 90}, {"time": 144012, "pitch": 67, "duration": 10, "velocity": 100}, {"time": 144240, "pitch": 59, "duration": 217, "velocity": 90}, {"time": 144240, "pitch": 67, "duration": 217, "velocity": 90}, {"time": 144249, "pitch": 50, "duration": 218, "velocity": 80}, {"time": 144249, "pitch": 55, "duration": 218, "velocity": 70}, {"time": 144477, "pitch": 50, "duration": 220, "velocity": 100}, {"time": 144477, "pitch": 55, "duration": 220, "velocity": 80}, {"time": 144487, "pitch": 59, "duration": 220, "velocity": 90}, {"time": 144487, "pitch": 64, "duration": 220, "velocity": 100}, {"time": 144717, "pitch": 59, "duration": 221, "velocity": 80}, {"time": 144717, "pitch": 64, "duration": 221, "velocity": 90}, {"time": 144727, "pitch": 50, "duration": 221, "velocity": 80}, {"time": 144727, "pitch": 55, "duration": 221, "velocity": 70}, {"time": 144958, "pitch": 50, "duration": 10, "velocity": 100}, {"time": 144958, "pitch": 55, "duration": 10, "velocity": 80}, {"time": 144968, "pitch": 59, "duration": 10, "velocity": 90}, {"time": 144968, "pitch": 64, "duration": 10, "velocity": 100}, {"time": 145199, "pitch": 59, "duration": 221, "velocity": 80}, {"time": 145199, "pitch": 64, "duration": 221, "velocity": 90}, {"time": 145209, "pitch": 50, "duration": 221, "velocity": 80}, {"time": 145209, "pitch": 55, "duration": 221, "velocity": 70}, {"time": 145440, "pitch": 50, "duration": 10, "velocity": 100}, {"time": 145440, "pitch": 55, "duration": 10, "velocity": 80}, {"time": 145450, "pitch": 59, "duration": 10, "velocity": 90}, {"time": 145450, "pitch": 64, "duration": 10, "velocity": 100}, {"time": 145681, "pitch": 61, "duration": 682, "velocity": 90}, {"time": 145681, "pitch": 64, "duration": 682, "velocity": 100}, {"time": 145691, "pitch": 52, "duration": 682, "velocity": 90}, {"time": 145691, "pitch": 57, "duration": 682, "velocity": 80}, {"time": 146403, "pitch": 50, "duration": 217, "velocity": 100}, {"time": 146403, "pitch": 57, "duration": 217, "velocity": 80}, {"time": 146413, "pitch": 62, "duration": 217, "velocity": 90}, {"time": 146413, "pitch": 66, "duration": 217, "velocity": 100}, {"time": 146640, "pitch": 62, "duration": 217, "velocity": 80}, {"time": 146640, "pitch": 66, "duration": 217, "velocity": 90}, {"time": 146650, "pitch": 50, "duration": 217, "velocity": 80}, {"time": 146650, "pitch": 57, "duration": 217, "velocity": 70}, {"time": 146877, "pitch": 50, "duration": 10, "velocity": 100}, {"time": 146877, "pitch": 57, "duration": 10, "velocity": 80}, {"time": 146887, "pitch": 62, "duration": 10, "velocity": 90}, {"time": 146887, "pitch": 66, "duration": 10, "velocity": 100}, {"time": 147118, "pitch": 62, "duration": 221, "velocity": 80}, {"time": 147118, "pitch": 66, "duration": 221, "velocity": 90}, {"time": 147128, "pitch": 50, "duration": 221, "velocity": 80}, {"time": 147128, "pitch": 57, "duration": 221, "velocity": 70}, {"time": 147359, "pitch": 50, "duration": 221, "velocity": 100}, {"time": 147359, "pitch": 57, "duration": 221, "velocity": 80}, {"time": 147369, "pitch": 62, "duration": 221, "velocity": 90}, {"time": 147369, "pitch": 66, "duration": 221, "velocity": 100}, {"time": 147600, "pitch": 62, "duration": 220, "velocity": 80}, {"time": 147600, "pitch": 66, "duration": 220, "velocity": 90}, {"time": 147610, "pitch": 50, "duration": 220, "velocity": 80}, {"time": 147610, "pitch": 57, "duration": 220, "velocity": 70}, {"time": 147840, "pitch": 50, "duration": 10, "velocity": 100}, {"time": 147840, "pitch": 57, "duration": 10, "velocity": 80}, {"time": 147850, "pitch": 62, "duration": 10, "velocity": 90}, {"time": 147850, "pitch": 66, "duration": 10, "velocity": 100}, {"time": 148081, "pitch": 61, "duration": 472, "velocity": 90}, {"time": 148081, "pitch": 66, "duration": 472, "velocity": 100}, {"time": 148091, "pitch": 50, "duration": 452, "velocity": 90}, {"time": 148091, "pitch": 57, "duration": 452, "velocity": 80}, {"time": 148563, "pitch": 61, "duration": 220, "velocity": 80}, {"time": 148563, "pitch": 66, "duration": 220, "velocity": 90}, {"time": 148573, "pitch": 50, "duration": 221, "velocity": 80}, {"time": 148573, "pitch": 57, "duration": 221, "velocity": 70}, {"time": 148804, "pitch": 50, "duration": 9, "velocity": 100}, {"time": 148804, "pitch": 57, "duration": 9, "velocity": 80}, {"time": 148813, "pitch": 61, "duration": 10, "velocity": 90}, {"time": 148813, "pitch": 66, "duration": 10, "velocity": 100}, {"time": 149041, "pitch": 61, "duration": 217, "velocity": 80}, {"time": 149041, "pitch": 66, "duration": 217, "velocity": 90}, {"time": 149051, "pitch": 50, "duration": 217, "velocity": 80}, {"time": 149051, "pitch": 57, "duration": 217, "velocity": 70}, {"time": 149278, "pitch": 50, "duration": 221, "velocity": 100}, {"time": 149278, "pitch": 57, "duration": 221, "velocity": 80}, {"time": 149288, "pitch": 61, "duration": 221, "velocity": 90}, {"time": 149288, "pitch": 66, "duration": 221, "velocity": 100}, {"time": 149519, "pitch": 61, "duration": 220, "velocity": 80}, {"time": 149519, "pitch": 66, "duration": 220, "velocity": 90}, {"time": 149529, "pitch": 50, "duration": 220, "velocity": 80}, {"time": 149529, "pitch": 57, "duration": 220, "velocity": 70}, {"time": 149759, "pitch": 50, "duration": 10, "velocity": 100}, {"time": 149759, "pitch": 57, "duration": 10, "velocity": 80}, {"time": 149769, "pitch": 61, "duration": 10, "velocity": 90}, {"time": 149769, "pitch": 66, "duration": 10, "velocity": 100}, {"time": 150000, "pitch": 61, "duration": 221, "velocity": 90}, {"time": 150000, "pitch": 66, "duration": 221, "velocity": 90}, {"time": 150010, "pitch": 50, "duration": 221, "velocity": 80}, {"time": 150010, "pitch": 57, "duration": 221, "velocity": 70}, {"time": 150241, "pitch": 50, "duration": 221, "velocity": 100}, {"time": 150241, "pitch": 57, "duration": 221, "velocity": 80}, {"time": 150251, "pitch": 61, "duration": 221, "velocity": 90}, {"time": 150251, "pitch": 66, "duration": 221, "velocity": 100}, {"time": 150482, "pitch": 61, "duration": 220, "velocity": 80}, {"time": 150482, "pitch": 66, "duration": 220, "velocity": 90}, {"time": 150492, "pitch": 50, "duration": 221, "velocity": 80}, {"time": 150492, "pitch": 57, "duration": 221, "velocity": 70}, {"time": 150723, "pitch": 50, "duration": 9, "velocity": 100}, {"time": 150723, "pitch": 57, "duration": 9, "velocity": 80}, {"time": 150732, "pitch": 61, "duration": 10, "velocity": 90}, {"time": 150732, "pitch": 66, "duration": 10, "velocity": 100}, {"time": 150960, "pitch": 61, "duration": 217, "velocity": 80}, {"time": 150960, "pitch": 66, "duration": 217, "velocity": 90}, {"time": 150970, "pitch": 50, "duration": 217, "velocity": 80}, {"time": 150970, "pitch": 57, "duration": 217, "velocity": 70}, {"time": 151197, "pitch": 50, "duration": 220, "velocity": 100}, {"time": 151197, "pitch": 57, "duration": 220, "velocity": 80}, {"time": 151207, "pitch": 61, "duration": 221, "velocity": 90}, {"time": 151207, "pitch": 66, "duration": 221, "velocity": 100}, {"time": 151438, "pitch": 61, "duration": 220, "velocity": 80}, {"time": 151438, "pitch": 66, "duration": 220, "velocity": 90}, {"time": 151448, "pitch": 50, "duration": 220, "velocity": 80}, {"time": 151448, "pitch": 57, "duration": 220, "velocity": 70}, {"time": 151678, "pitch": 50, "duration": 10, "velocity": 100}, {"time": 151678, "pitch": 57, "duration": 10, "velocity": 80}, {"time": 151688, "pitch": 61, "duration": 10, "velocity": 90}, {"time": 151688, "pitch": 66, "duration": 10, "velocity": 100}, {"time": 151919, "pitch": 60, "duration": 472, "velocity": 90}, {"time": 151919, "pitch": 66, "duration": 472, "velocity": 100}, {"time": 151929, "pitch": 50, "duration": 452, "velocity": 90}, {"time": 151929, "pitch": 57, "duration": 452, "velocity": 80}, {"time": 152401, "pitch": 60, "duration": 220, "velocity": 80}, {"time": 152401, "pitch": 66, "duration": 220, "velocity": 90}, {"time": 152411, "pitch": 50, "duration": 220, "velocity": 80}, {"time": 152411, "pitch": 57, "duration": 220, "velocity": 70}, {"time": 152642, "pitch": 50, "duration": 10, "velocity": 100}, {"time": 152642, "pitch": 57, "duration": 10, "velocity": 80}, {"time": 152652, "pitch": 60, "duration": 10, "velocity": 90}, {"time": 152652, "pitch": 66, "duration": 10, "velocity": 100}, {"time": 152882, "pitch": 60, "duration": 221, "velocity": 80}, {"time": 152882, "pitch": 66, "duration": 221, "velocity": 90}, {"time": 152892, "pitch": 50, "duration": 221, "velocity": 80}, {"time": 152892, "pitch": 57, "duration": 221, "velocity": 70}, {"time": 153123, "pitch": 50, "duration": 217, "velocity": 100}, {"time": 153123, "pitch": 57, "duration": 217, "velocity": 80}, {"time": 153133, "pitch": 60, "duration": 217, "velocity": 90}, {"time": 153133, "pitch": 66, "duration": 217, "velocity": 100}, {"time": 153360, "pitch": 60, "duration": 218, "velocity": 80}, {"time": 153360, "pitch": 66, "duration": 218, "velocity": 90}, {"time": 153370, "pitch": 50, "duration": 217, "velocity": 80}, {"time": 153370, "pitch": 57, "duration": 217, "velocity": 70}, {"time": 153597, "pitch": 50, "duration": 10, "velocity": 100}, {"time": 153597, "pitch": 57, "duration": 10, "velocity": 80}, {"time": 153607, "pitch": 60, "duration": 10, "velocity": 90}, {"time": 153607, "pitch": 66, "duration": 10, "velocity": 100}, {"time": 153838, "pitch": 60, "duration": 221, "velocity": 90}, {"time": 153838, "pitch": 66, "duration": 221, "velocity": 90}, {"time": 153848, "pitch": 50, "duration": 221, "velocity": 80}, {"time": 153848, "pitch": 57, "duration": 221, "velocity": 70}, {"time": 154079, "pitch": 50, "duration": 221, "velocity": 100}, {"time": 154079, "pitch": 55, "duration": 221, "velocity": 80}, {"time": 154089, "pitch": 59, "duration": 221, "velocity": 90}, {"time": 154089, "pitch": 67, "duration": 221, "velocity": 100}, {"time": 154320, "pitch": 59, "duration": 220, "velocity": 80}, {"time": 154320, "pitch": 67, "duration": 220, "velocity": 90}, {"time": 154330, "pitch": 50, "duration": 220, "velocity": 80}, {"time": 154330, "pitch": 55, "duration": 220, "velocity": 70}, {"time": 154561, "pitch": 50, "duration": 10, "velocity": 100}, {"time": 154561, "pitch": 55, "duration": 10, "velocity": 80}, {"time": 154571, "pitch": 59, "duration": 10, "velocity": 90}, {"time": 154571, "pitch": 67, "duration": 10, "velocity": 100}, {"time": 154801, "pitch": 59, "duration": 221, "velocity": 80}, {"time": 154801, "pitch": 67, "duration": 221, "velocity": 90}, {"time": 154811, "pitch": 50, "duration": 221, "velocity": 80}, {"time": 154811, "pitch": 55, "duration": 221, "velocity": 70}, {"time": 155042, "pitch": 50, "duration": 217, "velocity": 100}, {"time": 155042, "pitch": 55, "duration": 217, "velocity": 80}, {"time": 155052, "pitch": 59, "duration": 217, "velocity": 90}, {"time": 155052, "pitch": 67, "duration": 217, "velocity": 100}, {"time": 155279, "pitch": 59, "duration": 218, "velocity": 80}, {"time": 155279, "pitch": 67, "duration": 218, "velocity": 90}, {"time": 155289, "pitch": 50, "duration": 217, "velocity": 80}, {"time": 155289, "pitch": 55, "duration": 217, "velocity": 70}, {"time": 155516, "pitch": 50, "duration": 10, "velocity": 100}, {"time": 155516, "pitch": 55, "duration": 10, "velocity": 80}, {"time": 155526, "pitch": 59, "duration": 10, "velocity": 90}, {"time": 155526, "pitch": 67, "duration": 10, "velocity": 100}, {"time": 155757, "pitch": 59, "duration": 221, "velocity": 90}, {"time": 155757, "pitch": 67, "duration": 221, "velocity": 90}, {"time": 155767, "pitch": 50, "duration": 221, "velocity": 80}, {"time": 155767, "pitch": 55, "duration": 221, "velocity": 70}, {"time": 155998, "pitch": 50, "duration": 221, "velocity": 100}, {"time": 155998, "pitch": 57, "duration": 221, "velocity": 80}, {"time": 156008, "pitch": 62, "duration": 221, "velocity": 90}, {"time": 156008, "pitch": 66, "duration": 221, "velocity": 100}, {"time": 156239, "pitch": 62, "duration": 220, "velocity": 80}, {"time": 156239, "pitch": 66, "duration": 220, "velocity": 90}, {"time": 156249, "pitch": 50, "duration": 220, "velocity": 80}, {"time": 156249, "pitch": 57, "duration": 220, "velocity": 70}, {"time": 156480, "pitch": 50, "duration": 10, "velocity": 100}, {"time": 156480, "pitch": 57, "duration": 10, "velocity": 80}, {"time": 156490, "pitch": 62, "duration": 10, "velocity": 90}, {"time": 156490, "pitch": 66, "duration": 10, "velocity": 100}, {"time": 156720, "pitch": 62, "duration": 221, "velocity": 80}, {"time": 156720, "pitch": 66, "duration": 221, "velocity": 90}, {"time": 156730, "pitch": 50, "duration": 221, "velocity": 80}, {"time": 156730, "pitch": 57, "duration": 221, "velocity": 70}, {"time": 156961, "pitch": 50, "duration": 221, "velocity": 100}, {"time": 156961, "pitch": 57, "duration": 221, "velocity": 80}, {"time": 156971, "pitch": 62, "duration": 221, "velocity": 90}, {"time": 156971, "pitch": 66, "duration": 221, "velocity": 100}, {"time": 157202, "pitch": 62, "duration": 221, "velocity": 80}, {"time": 157202, "pitch": 66, "duration": 221, "velocity": 90}, {"time": 157212, "pitch": 50, "duration": 221, "velocity": 80}, {"time": 157212, "pitch": 57, "duration": 221, "velocity": 70}, {"time": 157443, "pitch": 50, "duration": 10, "velocity": 100}, {"time": 157443, "pitch": 57, "duration": 10, "velocity": 80}, {"time": 157453, "pitch": 62, "duration": 9, "velocity": 90}, {"time": 157453, "pitch": 66, "duration": 9, "velocity": 100}, {"time": 157680, "pitch": 62, "duration": 217, "velocity": 90}, {"time": 157680, "pitch": 66, "duration": 217, "velocity": 100}, {"time": 157690, "pitch": 50, "duration": 217, "velocity": 90}, {"time": 157690, "pitch": 57, "duration": 217, "velocity": 80}, {"time": 157917, "pitch": 50, "duration": 221, "velocity": 100}, {"time": 157917, "pitch": 55, "duration": 221, "velocity": 80}, {"time": 157927, "pitch": 59, "duration": 221, "velocity": 90}, {"time": 157927, "pitch": 67, "duration": 221, "velocity": 100}, {"time": 158158, "pitch": 59, "duration": 220, "velocity": 80}, {"time": 158158, "pitch": 67, "duration": 220, "velocity": 90}, {"time": 158168, "pitch": 50, "duration": 220, "velocity": 80}, {"time": 158168, "pitch": 55, "duration": 220, "velocity": 70}, {"time": 158398, "pitch": 50, "duration": 11, "velocity": 100}, {"time": 158398, "pitch": 55, "duration": 11, "velocity": 80}, {"time": 158409, "pitch": 59, "duration": 10, "velocity": 90}, {"time": 158409, "pitch": 67, "duration": 10, "velocity": 100}, {"time": 158639, "pitch": 59, "duration": 221, "velocity": 80}, {"time": 158639, "pitch": 67, "duration": 221, "velocity": 90}, {"time": 158649, "pitch": 50, "duration": 221, "velocity": 80}, {"time": 158649, "pitch": 55, "duration": 221, "velocity": 70}, {"time": 158880, "pitch": 50, "duration": 221, "velocity": 100}, {"time": 158880, "pitch": 55, "duration": 221, "velocity": 80}, {"time": 158890, "pitch": 59, "duration": 221, "velocity": 90}, {"time": 158890, "pitch": 67, "duration": 221, "velocity": 100}, {"time": 159121, "pitch": 59, "duration": 221, "velocity": 80}, {"time": 159121, "pitch": 67, "duration": 221, "velocity": 90}, {"time": 159131, "pitch": 50, "duration": 221, "velocity": 80}, {"time": 159131, "pitch": 55, "duration": 221, "velocity": 70}, {"time": 159362, "pitch": 50, "duration": 10, "velocity": 100}, {"time": 159362, "pitch": 55, "duration": 10, "velocity": 80}, {"time": 159372, "pitch": 59, "duration": 10, "velocity": 90}, {"time": 159372, "pitch": 67, "duration": 10, "velocity": 100}, {"time": 159602, "pitch": 59, "duration": 221, "velocity": 90}, {"time": 159602, "pitch": 67, "duration": 221, "velocity": 90}, {"time": 159612, "pitch": 50, "duration": 221, "velocity": 80}, {"time": 159612, "pitch": 55, "duration": 221, "velocity": 70}, {"time": 159843, "pitch": 55, "duration": 218, "velocity": 100}, {"time": 159843, "pitch": 58, "duration": 218, "velocity": 80}, {"time": 159853, "pitch": 62, "duration": 217, "velocity": 90}, {"time": 159853, "pitch": 67, "duration": 217, "velocity": 100}, {"time": 160080, "pitch": 62, "duration": 218, "velocity": 80}, {"time": 160080, "pitch": 67, "duration": 218, "velocity": 90}, {"time": 160090, "pitch": 55, "duration": 218, "velocity": 80}, {"time": 160090, "pitch": 58, "duration": 218, "velocity": 70}, {"time": 160318, "pitch": 55, "duration": 10, "velocity": 100}, {"time": 160318, "pitch": 58, "duration": 10, "velocity": 80}, {"time": 160328, "pitch": 62, "duration": 10, "velocity": 90}, {"time": 160328, "pitch": 67, "duration": 10, "velocity": 100}, {"time": 160558, "pitch": 62, "duration": 452, "velocity": 90}, {"time": 160558, "pitch": 67, "duration": 452, "velocity": 100}, {"time": 160568, "pitch": 54, "duration": 452, "velocity": 90}, {"time": 160568, "pitch": 58, "duration": 452, "velocity": 80}, {"time": 161040, "pitch": 55, "duration": 451, "velocity": 100}, {"time": 161040, "pitch": 58, "duration": 451, "velocity": 80}, {"time": 161050, "pitch": 62, "duration": 451, "velocity": 90}, {"time": 161050, "pitch": 67, "duration": 451, "velocity": 100}, {"time": 161521, "pitch": 59, "duration": 2140, "velocity": 100}, {"time": 161521, "pitch": 64, "duration": 2140, "velocity": 100}, {"time": 161531, "pitch": 50, "duration": 2130, "velocity": 100}, {"time": 161531, "pitch": 55, "duration": 2130, "velocity": 80}, {"time": 163681, "pitch": 45, "duration": 917, "velocity": 100}, {"time": 163681, "pitch": 52, "duration": 917, "velocity": 93}, {"time": 163691, "pitch": 57, "duration": 916, "velocity": 90}, {"time": 163691, "pitch": 61, "duration": 916, "velocity": 100}, {"time": 163691, "pitch": 66, "duration": 916, "velocity": 100}, {"time": 164637, "pitch": 45, "duration": 923, "velocity": 100}, {"time": 164637, "pitch": 50, "duration": 923, "velocity": 93}, {"time": 164647, "pitch": 55, "duration": 923, "velocity": 90}, {"time": 164647, "pitch": 59, "duration": 923, "velocity": 100}, {"time": 164647, "pitch": 64, "duration": 923, "velocity": 100}, {"time": 165600, "pitch": 50, "duration": 221, "velocity": 100}, {"time": 165600, "pitch": 57, "duration": 221, "velocity": 80}, {"time": 165610, "pitch": 62, "duration": 221, "velocity": 90}, {"time": 165610, "pitch": 66, "duration": 221, "velocity": 100}, {"time": 165841, "pitch": 62, "duration": 221, "velocity": 80}, {"time": 165841, "pitch": 66, "duration": 221, "velocity": 90}, {"time": 165851, "pitch": 50, "duration": 221, "velocity": 80}, {"time": 165851, "pitch": 57, "duration": 221, "velocity": 70}, {"time": 166082, "pitch": 50, "duration": 10, "velocity": 100}, {"time": 166082, "pitch": 57, "duration": 10, "velocity": 80}, {"time": 166092, "pitch": 62, "duration": 10, "velocity": 90}, {"time": 166092, "pitch": 66, "duration": 10, "velocity": 100}, {"time": 166323, "pitch": 62, "duration": 220, "velocity": 80}, {"time": 166323, "pitch": 66, "duration": 220, "velocity": 90}, {"time": 166333, "pitch": 50, "duration": 220, "velocity": 80}, {"time": 166333, "pitch": 57, "duration": 220, "velocity": 70}, {"time": 166563, "pitch": 50, "duration": 218, "velocity": 100}, {"time": 166563, "pitch": 57, "duration": 218, "velocity": 80}, {"time": 166573, "pitch": 62, "duration": 218, "velocity": 90}, {"time": 166573, "pitch": 66, "duration": 218, "velocity": 100}, {"time": 166800, "pitch": 62, "duration": 218, "velocity": 80}, {"time": 166800, "pitch": 66, "duration": 218, "velocity": 90}, {"time": 166810, "pitch": 50, "duration": 218, "velocity": 80}, {"time": 166810, "pitch": 57, "duration": 218, "velocity": 70}, {"time": 167038, "pitch": 50, "duration": 10, "velocity": 100}, {"time": 167038, "pitch": 57, "duration": 10, "velocity": 80}, {"time": 167048, "pitch": 62, "duration": 10, "velocity": 90}, {"time": 167048, "pitch": 66, "duration": 10, "velocity": 100}, {"time": 167278, "pitch": 61, "duration": 472, "velocity": 90}, {"time": 167278, "pitch": 66, "duration": 472, "velocity": 100}, {"time": 167288, "pitch": 50, "duration": 452, "velocity": 90}, {"time": 167288, "pitch": 57, "duration": 452, "velocity": 80}, {"time": 167760, "pitch": 61, "duration": 221, "velocity": 80}, {"time": 167760, "pitch": 66, "duration": 221, "velocity": 90}, {"time": 167770, "pitch": 50, "duration": 221, "velocity": 80}, {"time": 167770, "pitch": 57, "duration": 221, "velocity": 70}, {"time": 168001, "pitch": 50, "duration": 10, "velocity": 100}, {"time": 168001, "pitch": 57, "duration": 10, "velocity": 80}, {"time": 168011, "pitch": 61, "duration": 10, "velocity": 90}, {"time": 168011, "pitch": 66, "duration": 10, "velocity": 100}, {"time": 168242, "pitch": 61, "duration": 220, "velocity": 80}, {"time": 168242, "pitch": 66, "duration": 220, "velocity": 90}, {"time": 168252, "pitch": 50, "duration": 220, "velocity": 80}, {"time": 168252, "pitch": 57, "duration": 220, "velocity": 70}, {"time": 168482, "pitch": 50, "duration": 218, "velocity": 100}, {"time": 168482, "pitch": 57, "duration": 218, "velocity": 80}, {"time": 168492, "pitch": 61, "duration": 218, "velocity": 90}, {"time": 168492, "pitch": 66, "duration": 218, "velocity": 100}, {"time": 168719, "pitch": 61, "duration": 218, "velocity": 80}, {"time": 168719, "pitch": 66, "duration": 218, "velocity": 90}, {"time": 168729, "pitch": 50, "duration": 218, "velocity": 80}, {"time": 168729, "pitch": 57, "duration": 218, "velocity": 70}, {"time": 168957, "pitch": 50, "duration": 10, "velocity": 100}, {"time": 168957, "pitch": 57, "duration": 10, "velocity": 80}, {"time": 168967, "pitch": 61, "duration": 10, "velocity": 90}, {"time": 168967, "pitch": 66, "duration": 10, "velocity": 100}, {"time": 169197, "pitch": 61, "duration": 221, "velocity": 90}, {"time": 169197, "pitch": 66, "duration": 221, "velocity": 90}, {"time": 169207, "pitch": 50, "duration": 221, "velocity": 80}, {"time": 169207, "pitch": 57, "duration": 221, "velocity": 70}, {"time": 169438, "pitch": 50, "duration": 221, "velocity": 100}, {"time": 169438, "pitch": 57, "duration": 221, "velocity": 80}, {"time": 169448, "pitch": 61, "duration": 221, "velocity": 90}, {"time": 169448, "pitch": 66, "duration": 221, "velocity": 100}, {"time": 169679, "pitch": 61, "duration": 221, "velocity": 80}, {"time": 169679, "pitch": 66, "duration": 221, "velocity": 90}, {"time": 169689, "pitch": 50, "duration": 221, "velocity": 80}, {"time": 169689, "pitch": 57, "duration": 221, "velocity": 70}, {"time": 169920, "pitch": 50, "duration": 10, "velocity": 100}, {"time": 169920, "pitch": 57, "duration": 10, "velocity": 80}, {"time": 169930, "pitch": 61, "duration": 10, "velocity": 90}, {"time": 169930, "pitch": 66, "duration": 10, "velocity": 100}, {"time": 170161, "pitch": 61, "duration": 220, "velocity": 80}, {"time": 170161, "pitch": 66, "duration": 220, "velocity": 90}, {"time": 170171, "pitch": 50, "duration": 220, "velocity": 80}, {"time": 170171, "pitch": 57, "duration": 220, "velocity": 70}, {"time": 170401, "pitch": 50, "duration": 221, "velocity": 100}, {"time": 170401, "pitch": 57, "duration": 221, "velocity": 80}, {"time": 170411, "pitch": 61, "duration": 221, "velocity": 90}, {"time": 170411, "pitch": 66, "duration": 221, "velocity": 100}, {"time": 170642, "pitch": 61, "duration": 221, "velocity": 80}, {"time": 170642, "pitch": 66, "duration": 221, "velocity": 90}, {"time": 170652, "pitch": 50, "duration": 221, "velocity": 80}, {"time": 170652, "pitch": 57, "duration": 221, "velocity": 70}, {"time": 170883, "pitch": 50, "duration": 10, "velocity": 100}, {"time": 170883, "pitch": 57, "duration": 10, "velocity": 80}, {"time": 170893, "pitch": 61, "duration": 10, "velocity": 90}, {"time": 170893, "pitch": 66, "duration": 10, "velocity": 100}, {"time": 171120, "pitch": 60, "duration": 468, "velocity": 90}, {"time": 171120, "pitch": 66, "duration": 468, "velocity": 100}, {"time": 171130, "pitch": 50, "duration": 448, "velocity": 90}, {"time": 171130, "pitch": 57, "duration": 448, "velocity": 80}, {"time": 171598, "pitch": 60, "duration": 221, "velocity": 80}, {"time": 171598, "pitch": 66, "duration": 221, "velocity": 90}, {"time": 171608, "pitch": 50, "duration": 221, "velocity": 80}, {"time": 171608, "pitch": 57, "duration": 221, "velocity": 70}, {"time": 171839, "pitch": 50, "duration": 10, "velocity": 100}, {"time": 171839, "pitch": 57, "duration": 10, "velocity": 80}, {"time": 171849, "pitch": 60, "duration": 10, "velocity": 90}, {"time": 171849, "pitch": 66, "duration": 10, "velocity": 100}, {"time": 172080, "pitch": 60, "duration": 220, "velocity": 80}, {"time": 172080, "pitch": 66, "duration": 220, "velocity": 90}, {"time": 172090, "pitch": 50, "duration": 220, "velocity": 80}, {"time": 172090, "pitch": 57, "duration": 220, "velocity": 70}, {"time": 172320, "pitch": 50, "duration": 221, "velocity": 100}, {"time": 172320, "pitch": 57, "duration": 221, "velocity": 80}, {"time": 172330, "pitch": 60, "duration": 221, "velocity": 90}, {"time": 172330, "pitch": 66, "duration": 221, "velocity": 100}, {"time": 172561, "pitch": 60, "duration": 221, "velocity": 80}, {"time": 172561, "pitch": 66, "duration": 221, "velocity": 90}, {"time": 172571, "pitch": 50, "duration": 221, "velocity": 80}, {"time": 172571, "pitch": 57, "duration": 221, "velocity": 70}, {"time": 172802, "pitch": 50, "duration": 10, "velocity": 100}, {"time": 172802, "pitch": 57, "duration": 10, "velocity": 80}, {"time": 172812, "pitch": 60, "duration": 10, "velocity": 90}, {"time": 172812, "pitch": 66, "duration": 10, "velocity": 100}, {"time": 173043, "pitch": 60, "duration": 220, "velocity": 90}, {"time": 173043, "pitch": 66, "duration": 220, "velocity": 90}, {"time": 173053, "pitch": 50, "duration": 220, "velocity": 80}, {"time": 173053, "pitch": 57, "duration": 220, "velocity": 70}, {"time": 173283, "pitch": 50, "duration": 218, "velocity": 100}, {"time": 173283, "pitch": 55, "duration": 218, "velocity": 80}, {"time": 173293, "pitch": 59, "duration": 218, "velocity": 90}, {"time": 173293, "pitch": 67, "duration": 218, "velocity": 100}, {"time": 173521, "pitch": 59, "duration": 217, "velocity": 80}, {"time": 173521, "pitch": 67, "duration": 217, "velocity": 90}, {"time": 173531, "pitch": 50, "duration": 217, "velocity": 80}, {"time": 173531, "pitch": 55, "duration": 217, "velocity": 70}, {"time": 173758, "pitch": 50, "duration": 10, "velocity": 100}, {"time": 173758, "pitch": 55, "duration": 10, "velocity": 80}, {"time": 173768, "pitch": 59, "duration": 10, "velocity": 90}, {"time": 173768, "pitch": 67, "duration": 10, "velocity": 100}, {"time": 173999, "pitch": 59, "duration": 220, "velocity": 80}, {"time": 173999, "pitch": 67, "duration": 220, "velocity": 90}, {"time": 174009, "pitch": 50, "duration": 220, "velocity": 80}, {"time": 174009, "pitch": 55, "duration": 220, "velocity": 70}, {"time": 174239, "pitch": 50, "duration": 221, "velocity": 100}, {"time": 174239, "pitch": 55, "duration": 221, "velocity": 80}, {"time": 174249, "pitch": 59, "duration": 221, "velocity": 90}, {"time": 174249, "pitch": 67, "duration": 221, "velocity": 100}, {"time": 174480, "pitch": 59, "duration": 221, "velocity": 80}, {"time": 174480, "pitch": 67, "duration": 221, "velocity": 90}, {"time": 174490, "pitch": 50, "duration": 221, "velocity": 80}, {"time": 174490, "pitch": 55, "duration": 221, "velocity": 70}, {"time": 174721, "pitch": 50, "duration": 10, "velocity": 100}, {"time": 174721, "pitch": 55, "duration": 10, "velocity": 80}, {"time": 174731, "pitch": 59, "duration": 10, "velocity": 90}, {"time": 174731, "pitch": 67, "duration": 10, "velocity": 100}, {"time": 174962, "pitch": 59, "duration": 220, "velocity": 90}, {"time": 174962, "pitch": 67, "duration": 220, "velocity": 90}, {"time": 174972, "pitch": 50, "duration": 220, "velocity": 80}, {"time": 174972, "pitch": 55, "duration": 220, "velocity": 70}, {"time": 175202, "pitch": 50, "duration": 218, "velocity": 100}, {"time": 175202, "pitch": 57, "duration": 218, "velocity": 80}, {"time": 175212, "pitch": 62, "duration": 218, "velocity": 90}, {"time": 175212, "pitch": 66, "duration": 218, "velocity": 100}, {"time": 175440, "pitch": 62, "duration": 217, "velocity": 80}, {"time": 175440, "pitch": 66, "duration": 217, "velocity": 90}, {"time": 175450, "pitch": 50, "duration": 217, "velocity": 80}, {"time": 175450, "pitch": 57, "duration": 217, "velocity": 70}, {"time": 175677, "pitch": 50, "duration": 10, "velocity": 100}, {"time": 175677, "pitch": 57, "duration": 10, "velocity": 80}, {"time": 175687, "pitch": 62, "duration": 10, "velocity": 90}, {"time": 175687, "pitch": 66, "duration": 10, "velocity": 100}, {"time": 175918, "pitch": 62, "duration": 220, "velocity": 80}, {"time": 175918, "pitch": 66, "duration": 220, "velocity": 90}, {"time": 175928, "pitch": 50, "duration": 220, "velocity": 80}, {"time": 175928, "pitch": 57, "duration": 220, "velocity": 70}, {"time": 176158, "pitch": 50, "duration": 221, "velocity": 100}, {"time": 176158, "pitch": 57, "duration": 221, "velocity": 80}, {"time": 176168, "pitch": 62, "duration": 221, "velocity": 90}, {"time": 176168, "pitch": 66, "duration": 221, "velocity": 100}, {"time": 176399, "pitch": 62, "duration": 221, "velocity": 80}, {"time": 176399, "pitch": 66, "duration": 221, "velocity": 90}, {"time": 176409, "pitch": 50, "duration": 221, "velocity": 80}, {"time": 176409, "pitch": 57, "duration": 221, "velocity": 70}, {"time": 176640, "pitch": 50, "duration": 10, "velocity": 100}, {"time": 176640, "pitch": 57, "duration": 10, "velocity": 80}, {"time": 176650, "pitch": 62, "duration": 10, "velocity": 90}, {"time": 176650, "pitch": 66, "duration": 10, "velocity": 100}, {"time": 176881, "pitch": 62, "duration": 220, "velocity": 90}, {"time": 176881, "pitch": 66, "duration": 220, "velocity": 100}, {"time": 176891, "pitch": 50, "duration": 220, "velocity": 90}, {"time": 176891, "pitch": 57, "duration": 220, "velocity": 80}, {"time": 177122, "pitch": 50, "duration": 220, "velocity": 100}, {"time": 177122, "pitch": 55, "duration": 220, "velocity": 80}, {"time": 177132, "pitch": 59, "duration": 220, "velocity": 90}, {"time": 177132, "pitch": 67, "duration": 220, "velocity": 100}, {"time": 177362, "pitch": 59, "duration": 221, "velocity": 80}, {"time": 177362, "pitch": 67, "duration": 221, "velocity": 90}, {"time": 177372, "pitch": 50, "duration": 221, "velocity": 80}, {"time": 177372, "pitch": 55, "duration": 221, "velocity": 70}, {"time": 177603, "pitch": 50, "duration": 10, "velocity": 100}, {"time": 177603, "pitch": 55, "duration": 10, "velocity": 80}, {"time": 177613, "pitch": 59, "duration": 10, "velocity": 90}, {"time": 177613, "pitch": 67, "duration": 10, "velocity": 100}, {"time": 177840, "pitch": 59, "duration": 218, "velocity": 80}, {"time": 177840, "pitch": 67, "duration": 218, "velocity": 90}, {"time": 177850, "pitch": 50, "duration": 217, "velocity": 80}, {"time": 177850, "pitch": 55, "duration": 217, "velocity": 70}, {"time": 178077, "pitch": 50, "duration": 221, "velocity": 100}, {"time": 178077, "pitch": 55, "duration": 221, "velocity": 80}, {"time": 178087, "pitch": 59, "duration": 221, "velocity": 90}, {"time": 178087, "pitch": 67, "duration": 221, "velocity": 100}, {"time": 178318, "pitch": 59, "duration": 221, "velocity": 80}, {"time": 178318, "pitch": 67, "duration": 221, "velocity": 90}, {"time": 178328, "pitch": 50, "duration": 221, "velocity": 80}, {"time": 178328, "pitch": 55, "duration": 221, "velocity": 70}, {"time": 178559, "pitch": 50, "duration": 10, "velocity": 100}, {"time": 178559, "pitch": 55, "duration": 10, "velocity": 80}, {"time": 178569, "pitch": 59, "duration": 10, "velocity": 90}, {"time": 178569, "pitch": 67, "duration": 10, "velocity": 100}, {"time": 178800, "pitch": 59, "duration": 220, "velocity": 90}, {"time": 178800, "pitch": 67, "duration": 220, "velocity": 90}, {"time": 178810, "pitch": 50, "duration": 220, "velocity": 80}, {"time": 178810, "pitch": 55, "duration": 220, "velocity": 70}, {"time": 179040, "pitch": 50, "duration": 221, "velocity": 100}, {"time": 179040, "pitch": 55, "duration": 221, "velocity": 80}, {"time": 179051, "pitch": 59, "duration": 220, "velocity": 90}, {"time": 179051, "pitch": 64, "duration": 220, "velocity": 100}, {"time": 179281, "pitch": 59, "duration": 221, "velocity": 80}, {"time": 179281, "pitch": 64, "duration": 221, "velocity": 90}, {"time": 179291, "pitch": 50, "duration": 221, "velocity": 80}, {"time": 179291, "pitch": 55, "duration": 221, "velocity": 70}, {"time": 179522, "pitch": 50, "duration": 10, "velocity": 100}, {"time": 179522, "pitch": 55, "duration": 10, "velocity": 80}, {"time": 179532, "pitch": 59, "duration": 10, "velocity": 90}, {"time": 179532, "pitch": 64, "duration": 10, "velocity": 100}, {"time": 179763, "pitch": 59, "duration": 221, "velocity": 80}, {"time": 179763, "pitch": 64, "duration": 221, "velocity": 90}, {"time": 179773, "pitch": 50, "duration": 221, "velocity": 80}, {"time": 179773, "pitch": 55, "duration": 221, "velocity": 70}, {"time": 180004, "pitch": 50, "duration": 9, "velocity": 100}, {"time": 180004, "pitch": 55, "duration": 9, "velocity": 80}, {"time": 180013, "pitch": 59, "duration": 10, "velocity": 90}, {"time": 180013, "pitch": 64, "duration": 10, "velocity": 100}, {"time": 180241, "pitch": 61, "duration": 678, "velocity": 90}, {"time": 180241, "pitch": 64, "duration": 678, "velocity": 100}, {"time": 180251, "pitch": 52, "duration": 678, "velocity": 90}, {"time": 180251, "pitch": 57, "duration": 678, "velocity": 80}, {"time": 180959, "pitch": 50, "duration": 221, "velocity": 100}, {"time": 180959, "pitch": 57, "duration": 221, "velocity": 80}, {"time": 180970, "pitch": 62, "duration": 220, "velocity": 90}, {"time": 180970, "pitch": 66, "duration": 220, "velocity": 100}, {"time": 181200, "pitch": 62, "duration": 221, "velocity": 80}, {"time": 181200, "pitch": 66, "duration": 221, "velocity": 90}, {"time": 181210, "pitch": 50, "duration": 221, "velocity": 80}, {"time": 181210, "pitch": 57, "duration": 221, "velocity": 70}, {"time": 181441, "pitch": 50, "duration": 10, "velocity": 100}, {"time": 181441, "pitch": 57, "duration": 10, "velocity": 80}, {"time": 181451, "pitch": 62, "duration": 10, "velocity": 90}, {"time": 181451, "pitch": 66, "duration": 10, "velocity": 100}, {"time": 181682, "pitch": 62, "duration": 221, "velocity": 80}, {"time": 181682, "pitch": 66, "duration": 221, "velocity": 90}, {"time": 181692, "pitch": 50, "duration": 221, "velocity": 80}, {"time": 181692, "pitch": 57, "duration": 221, "velocity": 70}, {"time": 181923, "pitch": 50, "duration": 217, "velocity": 100}, {"time": 181923, "pitch": 57, "duration": 217, "velocity": 80}, {"time": 181932, "pitch": 62, "duration": 218, "velocity": 90}, {"time": 181932, "pitch": 66, "duration": 218, "velocity": 100}, {"time": 182160, "pitch": 62, "duration": 217, "velocity": 80}, {"time": 182160, "pitch": 66, "duration": 217, "velocity": 90}, {"time": 182170, "pitch": 50, "duration": 217, "velocity": 80}, {"time": 182170, "pitch": 57, "duration": 217, "velocity": 70}, {"time": 182397, "pitch": 50, "duration": 10, "velocity": 100}, {"time": 182397, "pitch": 57, "duration": 10, "velocity": 80}, {"time": 182407, "pitch": 62, "duration": 10, "velocity": 90}, {"time": 182407, "pitch": 66, "duration": 10, "velocity": 100}, {"time": 182638, "pitch": 61, "duration": 471, "velocity": 90}, {"time": 182638, "pitch": 66, "duration": 471, "velocity": 100}, {"time": 182648, "pitch": 50, "duration": 451, "velocity": 90}, {"time": 182648, "pitch": 57, "duration": 451, "velocity": 80}, {"time": 183119, "pitch": 61, "duration": 221, "velocity": 80}, {"time": 183119, "pitch": 66, "duration": 221, "velocity": 90}, {"time": 183129, "pitch": 50, "duration": 221, "velocity": 80}, {"time": 183129, "pitch": 57, "duration": 221, "velocity": 70}, {"time": 183360, "pitch": 50, "duration": 10, "velocity": 100}, {"time": 183360, "pitch": 57, "duration": 10, "velocity": 80}, {"time": 183370, "pitch": 61, "duration": 10, "velocity": 90}, {"time": 183370, "pitch": 66, "duration": 10, "velocity": 100}, {"time": 183601, "pitch": 61, "duration": 221, "velocity": 80}, {"time": 183601, "pitch": 66, "duration": 221, "velocity": 90}, {"time": 183611, "pitch": 50, "duration": 221, "velocity": 80}, {"time": 183611, "pitch": 57, "duration": 221, "velocity": 70}, {"time": 183842, "pitch": 50, "duration": 220, "velocity": 100}, {"time": 183842, "pitch": 57, "duration": 220, "velocity": 80}, {"time": 183852, "pitch": 61, "duration": 220, "velocity": 90}, {"time": 183852, "pitch": 66, "duration": 220, "velocity": 100}, {"time": 184082, "pitch": 61, "duration": 221, "velocity": 80}, {"time": 184082, "pitch": 66, "duration": 221, "velocity": 90}, {"time": 184092, "pitch": 50, "duration": 221, "velocity": 80}, {"time": 184092, "pitch": 57, "duration": 221, "velocity": 70}, {"time": 184323, "pitch": 50, "duration": 10, "velocity": 100}, {"time": 184323, "pitch": 57, "duration": 10, "velocity": 80}, {"time": 184333, "pitch": 61, "duration": 10, "velocity": 90}, {"time": 184333, "pitch": 66, "duration": 10, "velocity": 100}, {"time": 184560, "pitch": 61, "duration": 218, "velocity": 90}, {"time": 184560, "pitch": 66, "duration": 218, "velocity": 90}, {"time": 184570, "pitch": 50, "duration": 218, "velocity": 80}, {"time": 184570, "pitch": 57, "duration": 218, "velocity": 70}, {"time": 184797, "pitch": 50, "duration": 221, "velocity": 100}, {"time": 184797, "pitch": 57, "duration": 221, "velocity": 80}, {"time": 184807, "pitch": 61, "duration": 221, "velocity": 90}, {"time": 184807, "pitch": 66, "duration": 221, "velocity": 100}, {"time": 185038, "pitch": 61, "duration": 221, "velocity": 80}, {"time": 185038, "pitch": 66, "duration": 221, "velocity": 90}, {"time": 185048, "pitch": 50, "duration": 221, "velocity": 80}, {"time": 185048, "pitch": 57, "duration": 221, "velocity": 70}, {"time": 185279, "pitch": 50, "duration": 10, "velocity": 100}, {"time": 185279, "pitch": 57, "duration": 10, "velocity": 80}, {"time": 185289, "pitch": 61, "duration": 10, "velocity": 90}, {"time": 185289, "pitch": 66, "duration": 10, "velocity": 100}, {"time": 185520, "pitch": 61, "duration": 221, "velocity": 80}, {"time": 185520, "pitch": 66, "duration": 221, "velocity": 90}, {"time": 185530, "pitch": 50, "duration": 221, "velocity": 80}, {"time": 185530, "pitch": 57, "duration": 221, "velocity": 70}, {"time": 185761, "pitch": 50, "duration": 220, "velocity": 100}, {"time": 185761, "pitch": 57, "duration": 220, "velocity": 80}, {"time": 185771, "pitch": 61, "duration": 220, "velocity": 90}, {"time": 185771, "pitch": 66, "duration": 220, "velocity": 100}, {"time": 186001, "pitch": 61, "duration": 221, "velocity": 80}, {"time": 186001, "pitch": 66, "duration": 221, "velocity": 90}, {"time": 186011, "pitch": 50, "duration": 221, "velocity": 80}, {"time": 186011, "pitch": 57, "duration": 221, "velocity": 70}, {"time": 186242, "pitch": 50, "duration": 10, "velocity": 100}, {"time": 186242, "pitch": 57, "duration": 10, "velocity": 80}, {"time": 186252, "pitch": 61, "duration": 10, "velocity": 90}, {"time": 186252, "pitch": 66, "duration": 10, "velocity": 100}, {"time": 186479, "pitch": 60, "duration": 468, "velocity": 90}, {"time": 186479, "pitch": 66, "duration": 468, "velocity": 100}, {"time": 186489, "pitch": 50, "duration": 448, "velocity": 90}, {"time": 186489, "pitch": 57, "duration": 448, "velocity": 80}, {"time": 186957, "pitch": 60, "duration": 221, "velocity": 80}, {"time": 186957, "pitch": 66, "duration": 221, "velocity": 90}, {"time": 186967, "pitch": 50, "duration": 221, "velocity": 80}, {"time": 186967, "pitch": 57, "duration": 221, "velocity": 70}, {"time": 187198, "pitch": 50, "duration": 10, "velocity": 100}, {"time": 187198, "pitch": 57, "duration": 10, "velocity": 80}, {"time": 187208, "pitch": 60, "duration": 10, "velocity": 90}, {"time": 187208, "pitch": 66, "duration": 10, "velocity": 100}, {"time": 187439, "pitch": 60, "duration": 221, "velocity": 80}, {"time": 187439, "pitch": 66, "duration": 221, "velocity": 90}, {"time": 187449, "pitch": 50, "duration": 221, "velocity": 80}, {"time": 187449, "pitch": 57, "duration": 221, "velocity": 70}, {"time": 187680, "pitch": 50, "duration": 220, "velocity": 100}, {"time": 187680, "pitch": 57, "duration": 220, "velocity": 80}, {"time": 187690, "pitch": 60, "duration": 220, "velocity": 90}, {"time": 187690, "pitch": 66, "duration": 220, "velocity": 100}, {"time": 187920, "pitch": 60, "duration": 221, "velocity": 80}, {"time": 187920, "pitch": 66, "duration": 221, "velocity": 90}, {"time": 187930, "pitch": 50, "duration": 221, "velocity": 80}, {"time": 187930, "pitch": 57, "duration": 221, "velocity": 70}, {"time": 188161, "pitch": 50, "duration": 10, "velocity": 100}, {"time": 188161, "pitch": 57, "duration": 10, "velocity": 80}, {"time": 188171, "pitch": 60, "duration": 10, "velocity": 90}, {"time": 188171, "pitch": 66, "duration": 10, "velocity": 100}, {"time": 188402, "pitch": 60, "duration": 221, "velocity": 90}, {"time": 188402, "pitch": 66, "duration": 221, "velocity": 90}, {"time": 188412, "pitch": 50, "duration": 221, "velocity": 80}, {"time": 188412, "pitch": 57, "duration": 221, "velocity": 70}, {"time": 188643, "pitch": 50, "duration": 217, "velocity": 100}, {"time": 188643, "pitch": 55, "duration": 217, "velocity": 80}, {"time": 188653, "pitch": 59, "duration": 217, "velocity": 90}, {"time": 188653, "pitch": 67, "duration": 217, "velocity": 100}, {"time": 188880, "pitch": 59, "duration": 217, "velocity": 80}, {"time": 188880, "pitch": 67, "duration": 217, "velocity": 90}, {"time": 188890, "pitch": 50, "duration": 217, "velocity": 80}, {"time": 188890, "pitch": 55, "duration": 217, "velocity": 70}, {"time": 189117, "pitch": 50, "duration": 10, "velocity": 100}, {"time": 189117, "pitch": 55, "duration": 10, "velocity": 80}, {"time": 189127, "pitch": 59, "duration": 10, "velocity": 90}, {"time": 189127, "pitch": 67, "duration": 10, "velocity": 100}, {"time": 189358, "pitch": 59, "duration": 221, "velocity": 80}, {"time": 189358, "pitch": 67, "duration": 221, "velocity": 90}, {"time": 189368, "pitch": 50, "duration": 221, "velocity": 80}, {"time": 189368, "pitch": 55, "duration": 221, "velocity": 70}, {"time": 189599, "pitch": 50, "duration": 220, "velocity": 100}, {"time": 189599, "pitch": 55, "duration": 220, "velocity": 80}, {"time": 189609, "pitch": 59, "duration": 220, "velocity": 90}, {"time": 189609, "pitch": 67, "duration": 220, "velocity": 100}, {"time": 189839, "pitch": 59, "duration": 221, "velocity": 80}, {"time": 189839, "pitch": 67, "duration": 221, "velocity": 90}, {"time": 189849, "pitch": 50, "duration": 221, "velocity": 80}, {"time": 189849, "pitch": 55, "duration": 221, "velocity": 70}, {"time": 190080, "pitch": 50, "duration": 10, "velocity": 100}, {"time": 190080, "pitch": 55, "duration": 10, "velocity": 80}, {"time": 190090, "pitch": 59, "duration": 10, "velocity": 90}, {"time": 190090, "pitch": 67, "duration": 10, "velocity": 100}, {"time": 190321, "pitch": 59, "duration": 221, "velocity": 90}, {"time": 190321, "pitch": 67, "duration": 221, "velocity": 90}, {"time": 190331, "pitch": 50, "duration": 221, "velocity": 80}, {"time": 190331, "pitch": 55, "duration": 221, "velocity": 70}, {"time": 190562, "pitch": 50, "duration": 221, "velocity": 100}, {"time": 190562, "pitch": 57, "duration": 221, "velocity": 80}, {"time": 190572, "pitch": 62, "duration": 221, "velocity": 90}, {"time": 190572, "pitch": 66, "duration": 221, "velocity": 100}, {"time": 190803, "pitch": 62, "duration": 220, "velocity": 80}, {"time": 190803, "pitch": 66, "duration": 220, "velocity": 90}, {"time": 190813, "pitch": 50, "duration": 220, "velocity": 80}, {"time": 190813, "pitch": 57, "duration": 220, "velocity": 70}, {"time": 191043, "pitch": 50, "duration": 10, "velocity": 100}, {"time": 191043, "pitch": 57, "duration": 10, "velocity": 80}, {"time": 191053, "pitch": 62, "duration": 10, "velocity": 90}, {"time": 191053, "pitch": 66, "duration": 10, "velocity": 100}, {"time": 191280, "pitch": 62, "duration": 218, "velocity": 80}, {"time": 191280, "pitch": 66, "duration": 218, "velocity": 90}, {"time": 191290, "pitch": 50, "duration": 218, "velocity": 80}, {"time": 191290, "pitch": 57, "duration": 218, "velocity": 70}, {"time": 191518, "pitch": 50, "duration": 220, "velocity": 100}, {"time": 191518, "pitch": 57, "duration": 220, "velocity": 80}, {"time": 191528, "pitch": 62, "duration": 220, "velocity": 90}, {"time": 191528, "pitch": 66, "duration": 220, "velocity": 100}, {"time": 191758, "pitch": 62, "duration": 221, "velocity": 80}, {"time": 191758, "pitch": 66, "duration": 221, "velocity": 90}, {"time": 191768, "pitch": 50, "duration": 221, "velocity": 80}, {"time": 191768, "pitch": 57, "duration": 221, "velocity": 70}, {"time": 191999, "pitch": 50, "duration": 10, "velocity": 100}, {"time": 191999, "pitch": 57, "duration": 10, "velocity": 80}, {"time": 192009, "pitch": 62, "duration": 10, "velocity": 90}, {"time": 192009, "pitch": 66, "duration": 10, "velocity": 100}, {"time": 192240, "pitch": 62, "duration": 221, "velocity": 90}, {"time": 192240, "pitch": 66, "duration": 221, "velocity": 100}, {"time": 192250, "pitch": 50, "duration": 221, "velocity": 90}, {"time": 192250, "pitch": 57, "duration": 221, "velocity": 80}, {"time": 192481, "pitch": 50, "duration": 220, "velocity": 100}, {"time": 192481, "pitch": 55, "duration": 220, "velocity": 80}, {"time": 192491, "pitch": 59, "duration": 221, "velocity": 90}, {"time": 192491, "pitch": 67, "duration": 221, "velocity": 100}, {"time": 192722, "pitch": 59, "duration": 220, "velocity": 80}, {"time": 192722, "pitch": 67, "duration": 220, "velocity": 90}, {"time": 192732, "pitch": 50, "duration": 220, "velocity": 80}, {"time": 192732, "pitch": 55, "duration": 220, "velocity": 70}, {"time": 192962, "pitch": 50, "duration": 10, "velocity": 100}, {"time": 192962, "pitch": 55, "duration": 10, "velocity": 80}, {"time": 192972, "pitch": 59, "duration": 10, "velocity": 90}, {"time": 192972, "pitch": 67, "duration": 10, "velocity": 100}, {"time": 193199, "pitch": 59, "duration": 218, "velocity": 80}, {"time": 193199, "pitch": 67, "duration": 218, "velocity": 90}, {"time": 193209, "pitch": 50, "duration": 218, "velocity": 80}, {"time": 193209, "pitch": 55, "duration": 218, "velocity": 70}, {"time": 193437, "pitch": 50, "duration": 220, "velocity": 100}, {"time": 193437, "pitch": 55, "duration": 220, "velocity": 80}, {"time": 193447, "pitch": 59, "duration": 220, "velocity": 90}, {"time": 193447, "pitch": 67, "duration": 220, "velocity": 100}, {"time": 193677, "pitch": 59, "duration": 221, "velocity": 80}, {"time": 193677, "pitch": 67, "duration": 221, "velocity": 90}, {"time": 193687, "pitch": 50, "duration": 221, "velocity": 80}, {"time": 193687, "pitch": 55, "duration": 221, "velocity": 70}, {"time": 193918, "pitch": 50, "duration": 10, "velocity": 100}, {"time": 193918, "pitch": 55, "duration": 10, "velocity": 80}, {"time": 193928, "pitch": 59, "duration": 10, "velocity": 90}, {"time": 193928, "pitch": 67, "duration": 10, "velocity": 100}, {"time": 194159, "pitch": 59, "duration": 221, "velocity": 90}, {"time": 194159, "pitch": 67, "duration": 221, "velocity": 90}, {"time": 194169, "pitch": 50, "duration": 221, "velocity": 80}, {"time": 194169, "pitch": 55, "duration": 221, "velocity": 70}, {"time": 194400, "pitch": 55, "duration": 220, "velocity": 100}, {"time": 194400, "pitch": 58, "duration": 220, "velocity": 80}, {"time": 194410, "pitch": 62, "duration": 221, "velocity": 90}, {"time": 194410, "pitch": 67, "duration": 221, "velocity": 100}, {"time": 194641, "pitch": 62, "duration": 220, "velocity": 80}, {"time": 194641, "pitch": 67, "duration": 220, "velocity": 90}, {"time": 194651, "pitch": 55, "duration": 220, "velocity": 80}, {"time": 194651, "pitch": 58, "duration": 220, "velocity": 70}, {"time": 194881, "pitch": 55, "duration": 10, "velocity": 100}, {"time": 194881, "pitch": 58, "duration": 10, "velocity": 80}, {"time": 194891, "pitch": 62, "duration": 10, "velocity": 90}, {"time": 194891, "pitch": 67, "duration": 10, "velocity": 100}, {"time": 195122, "pitch": 62, "duration": 448, "velocity": 90}, {"time": 195122, "pitch": 67, "duration": 448, "velocity": 100}, {"time": 195132, "pitch": 54, "duration": 448, "velocity": 90}, {"time": 195132, "pitch": 58, "duration": 448, "velocity": 80}, {"time": 195600, "pitch": 55, "duration": 448, "velocity": 100}, {"time": 195600, "pitch": 58, "duration": 448, "velocity": 80}, {"time": 195610, "pitch": 62, "duration": 448, "velocity": 90}, {"time": 195610, "pitch": 67, "duration": 448, "velocity": 100}, {"time": 196078, "pitch": 62, "duration": 2140, "velocity": 100}, {"time": 196078, "pitch": 66, "duration": 2140, "velocity": 100}, {"time": 196088, "pitch": 50, "duration": 2130, "velocity": 100}, {"time": 196088, "pitch": 57, "duration": 2130, "velocity": 80}], "annotations": [{"time": 283, "annotation": {"number": 7, "value": 100}, "group": "control_change"}, {"time": 305, "annotation": {"number": 11, "value": 100}, "group": "control_change"}, {"time": 327, "annotation": {"number": 10, "value": 27}, "group": "control_change"}, {"time": 349, "annotation": {"number": 91, "value": 40}, "group": "control_change"}, {"time": 370, "annotation": {"number": 93, "value": 0}, "group": "control_change"}, {"time": 392, "annotation": {"number": 101, "value": 0}, "group": "control_change"}, {"time": 414, "annotation": {"number": 100, "value": 0}, "group": "control_change"}, {"time": 436, "annotation": {"number": 6, "value": 12}, "group": "control_change"}, {"time": 458, "annotation": {"number": 101, "value": 127}, "group": "control_change"}, {"time": 479, "annotation": {"number": 100, "value": 127}, "group": "control_change"}]}, {"program": 0, "is_drum": false, "name": "CHORUS", "annotations": [{"time": 218, "annotation": {"number": 0, "value": 0}, "group": "control_change"}, {"time": 240, "annotation": {"number": 32, "value": 0}, "group": "control_change"}]}, {"program": 53, "is_drum": false, "name": "CHORUS", "notes": [{"time": 48483, "pitch": 62, "duration": 119, "velocity": 95}, {"time": 48720, "pitch": 62, "duration": 378, "velocity": 96}, {"time": 49198, "pitch": 62, "duration": 442, "velocity": 94}, {"time": 49680, "pitch": 61, "duration": 200, "velocity": 85}, {"time": 49921, "pitch": 57, "duration": 210, "velocity": 91}, {"time": 50161, "pitch": 62, "duration": 458, "velocity": 93}, {"time": 50639, "pitch": 62, "duration": 237, "velocity": 82}, {"time": 50876, "pitch": 62, "duration": 502, "velocity": 92}, {"time": 51599, "pitch": 57, "duration": 220, "velocity": 95}, {"time": 51839, "pitch": 57, "duration": 492, "velocity": 87}, {"time": 52321, "pitch": 62, "duration": 401, "velocity": 99}, {"time": 52803, "pitch": 62, "duration": 128, "velocity": 95}, {"time": 53040, "pitch": 62, "duration": 448, "velocity": 96}, {"time": 53518, "pitch": 57, "duration": 220, "velocity": 86}, {"time": 53758, "pitch": 57, "duration": 221, "velocity": 91}, {"time": 53999, "pitch": 60, "duration": 452, "velocity": 92}, {"time": 54481, "pitch": 60, "duration": 221, "velocity": 84}, {"time": 54722, "pitch": 60, "duration": 431, "velocity": 90}, {"time": 63842, "pitch": 62, "duration": 109, "velocity": 101}, {"time": 64079, "pitch": 62, "duration": 388, "velocity": 101}, {"time": 64557, "pitch": 62, "duration": 442, "velocity": 99}, {"time": 65039, "pitch": 61, "duration": 221, "velocity": 86}, {"time": 65280, "pitch": 57, "duration": 220, "velocity": 90}, {"time": 65521, "pitch": 62, "duration": 471, "velocity": 98}, {"time": 66002, "pitch": 62, "duration": 221, "velocity": 85}, {"time": 66243, "pitch": 62, "duration": 484, "velocity": 91}, {"time": 131036, "pitch": 62, "duration": 121, "velocity": 95}, {"time": 131277, "pitch": 62, "duration": 381, "velocity": 96}, {"time": 131759, "pitch": 62, "duration": 441, "velocity": 94}, {"time": 132240, "pitch": 61, "duration": 201, "velocity": 85}, {"time": 132481, "pitch": 57, "duration": 211, "velocity": 91}, {"time": 132722, "pitch": 62, "duration": 458, "velocity": 93}, {"time": 133200, "pitch": 62, "duration": 237, "velocity": 82}, {"time": 133437, "pitch": 62, "duration": 502, "velocity": 92}, {"time": 134159, "pitch": 57, "duration": 221, "velocity": 95}, {"time": 134400, "pitch": 57, "duration": 482, "velocity": 87}, {"time": 134882, "pitch": 62, "duration": 401, "velocity": 99}, {"time": 135363, "pitch": 62, "duration": 129, "velocity": 95}, {"time": 135600, "pitch": 62, "duration": 448, "velocity": 96}, {"time": 136078, "pitch": 57, "duration": 221, "velocity": 86}, {"time": 136319, "pitch": 57, "duration": 221, "velocity": 91}, {"time": 136560, "pitch": 60, "duration": 451, "velocity": 92}, {"time": 137041, "pitch": 60, "duration": 221, "velocity": 84}, {"time": 137282, "pitch": 60, "duration": 425, "velocity": 90}, {"time": 146403, "pitch": 62, "duration": 109, "velocity": 101}, {"time": 146640, "pitch": 62, "duration": 388, "velocity": 101}, {"time": 147118, "pitch": 62, "duration": 441, "velocity": 99}, {"time": 147600, "pitch": 61, "duration": 220, "velocity": 86}, {"time": 147840, "pitch": 57, "duration": 221, "velocity": 90}, {"time": 148081, "pitch": 62, "duration": 472, "velocity": 98}, {"time": 148563, "pitch": 62, "duration": 220, "velocity": 85}, {"time": 148804, "pitch": 62, "duration": 484, "velocity": 91}, {"time": 165600, "pitch": 62, "duration": 121, "velocity": 95}, {"time": 165841, "pitch": 62, "duration": 381, "velocity": 96}, {"time": 166323, "pitch": 62, "duration": 438, "velocity": 94}, {"time": 166800, "pitch": 61, "duration": 198, "velocity": 85}, {"time": 167038, "pitch": 57, "duration": 210, "velocity": 91}, {"time": 167278, "pitch": 62, "duration": 462, "velocity": 93}, {"time": 167760, "pitch": 62, "duration": 241, "velocity": 82}, {"time": 168001, "pitch": 62, "duration": 501, "velocity": 92}, {"time": 168719, "pitch": 57, "duration": 218, "velocity": 95}, {"time": 168957, "pitch": 57, "duration": 481, "velocity": 87}, {"time": 169438, "pitch": 62, "duration": 402, "velocity": 99}, {"time": 169920, "pitch": 62, "duration": 130, "velocity": 95}, {"time": 170161, "pitch": 62, "duration": 451, "velocity": 96}, {"time": 170642, "pitch": 57, "duration": 221, "velocity": 86}, {"time": 170883, "pitch": 57, "duration": 217, "velocity": 91}, {"time": 171120, "pitch": 60, "duration": 448, "velocity": 92}, {"time": 171598, "pitch": 60, "duration": 221, "velocity": 84}, {"time": 171839, "pitch": 60, "duration": 431, "velocity": 90}, {"time": 180959, "pitch": 62, "duration": 111, "velocity": 101}, {"time": 181200, "pitch": 62, "duration": 392, "velocity": 101}, {"time": 181682, "pitch": 62, "duration": 438, "velocity": 99}, {"time": 182160, "pitch": 61, "duration": 217, "velocity": 86}, {"time": 182397, "pitch": 57, "duration": 221, "velocity": 90}, {"time": 182638, "pitch": 62, "duration": 471, "velocity": 98}, {"time": 183119, "pitch": 62, "duration": 221, "velocity": 85}, {"time": 183360, "pitch": 62, "duration": 492, "velocity": 91}], "annotations": [{"time": 283, "annotation": {"number": 7, "value": 100}, "group": "control_change"}, {"time": 305, "annotation": {"number": 11, "value": 100}, "group": "control_change"}, {"time": 327, "annotation": {"number": 10, "value": 64}, "group": "control_change"}, {"time": 349, "annotation": {"number": 91, "value": 70}, "group": "control_change"}, {"time": 370, "annotation": {"number": 93, "value": 0}, "group": "control_change"}, {"time": 392, "annotation": {"number": 101, "value": 0}, "group": "control_change"}, {"time": 414, "annotation": {"number": 100, "value": 0}, "group": "control_change"}, {"time": 436, "annotation": {"number": 6, "value": 12}, "group": "control_change"}, {"time": 458, "annotation": {"number": 101, "value": 127}, "group": "control_change"}, {"time": 479, "annotation": {"number": 100, "value": 127}, "group": "control_change"}]}]}