{"metadata": {"schema_version": "0.1", "title": "RWC-MDB-P-2001 No. 71: Tsuki no youni / Hiromi Yoshii", "copyright": "RWC Music Database. Copyright (C) 2001 Real World Computing Partnership (contact: Masataka GOTO <m.goto@aist.go.jp>)", "source_filename": "RM-P071.SMF_SYNC.MID", "source_format": "midi"}, "resolution": 480, "tempos": [{"time": 0, "qpm": 70.00399022744297}, {"time": 95520, "qpm": 145.49934161547918}, {"time": 133920, "qpm": 70.00399022744297}], "key_signatures": [{"time": 0, "root": 0, "mode": "major"}], "time_signatures": [{"time": 0, "numerator": 4, "denominator": 4}, {"time": 1920, "numerator": 1, "denominator": 4}, {"time": 2400, "numerator": 4, "denominator": 4}, {"time": 27360, "numerator": 2, "denominator": 4}, {"time": 28320, "numerator": 4, "denominator": 4}, {"time": 60960, "numerator": 2, "denominator": 4}, {"time": 61920, "numerator": 4, "denominator": 4}, {"time": 94560, "numerator": 2, "denominator": 4}, {"time": 95520, "numerator": 4, "denominator": 4}], "tracks": [{"program": 0, "is_drum": false, "name": "PIANO", "notes": [{"time": 2280, "pitch": 67, "duration": 1000, "velocity": 103}, {"time": 2310, "pitch": 63, "duration": 1000, "velocity": 95}, {"time": 2350, "pitch": 58, "duration": 950, "velocity": 96}, {"time": 2400, "pitch": 39, "duration": 900, "velocity": 86}, {"time": 2400, "pitch": 51, "duration": 910, "velocity": 88}, {"time": 2400, "pitch": 55, "duration": 870, "velocity": 99}, {"time": 3360, "pitch": 39, "duration": 940, "velocity": 69}, {"time": 3360, "pitch": 51, "duration": 390, "velocity": 86}, {"time": 3360, "pitch": 56, "duration": 450, "velocity": 87}, {"time": 3360, "pitch": 60, "duration": 450, "velocity": 91}, {"time": 3360, "pitch": 63, "duration": 450, "velocity": 97}, {"time": 3760, "pitch": 51, "duration": 430, "velocity": 62}, {"time": 3830, "pitch": 56, "duration": 410, "velocity": 97}, {"time": 3830, "pitch": 60, "duration": 420, "velocity": 92}, {"time": 3830, "pitch": 63, "duration": 430, "velocity": 101}, {"time": 4230, "pitch": 51, "duration": 90, "velocity": 58}, {"time": 4320, "pitch": 39, "duration": 310, "velocity": 88}, {"time": 4320, "pitch": 51, "duration": 310, "velocity": 90}, {"time": 4320, "pitch": 56, "duration": 430, "velocity": 106}, {"time": 4320, "pitch": 60, "duration": 440, "velocity": 87}, {"time": 4320, "pitch": 65, "duration": 440, "velocity": 107}, {"time": 4720, "pitch": 39, "duration": 40, "velocity": 80}, {"time": 4720, "pitch": 51, "duration": 100, "velocity": 89}, {"time": 4800, "pitch": 39, "duration": 280, "velocity": 79}, {"time": 4800, "pitch": 56, "duration": 140, "velocity": 80}, {"time": 4810, "pitch": 60, "duration": 150, "velocity": 83}, {"time": 4810, "pitch": 63, "duration": 150, "velocity": 95}, {"time": 4960, "pitch": 56, "duration": 220, "velocity": 106}, {"time": 4960, "pitch": 60, "duration": 230, "velocity": 91}, {"time": 4960, "pitch": 65, "duration": 230, "velocity": 104}, {"time": 5040, "pitch": 51, "duration": 190, "velocity": 88}, {"time": 5200, "pitch": 46, "duration": 80, "velocity": 71}, {"time": 5200, "pitch": 58, "duration": 480, "velocity": 116}, {"time": 5200, "pitch": 63, "duration": 440, "velocity": 92}, {"time": 5200, "pitch": 67, "duration": 420, "velocity": 103}, {"time": 5290, "pitch": 39, "duration": 380, "velocity": 79}, {"time": 5680, "pitch": 67, "duration": 70, "velocity": 81}, {"time": 5710, "pitch": 63, "duration": 60, "velocity": 68}, {"time": 5740, "pitch": 60, "duration": 60, "velocity": 86}, {"time": 5760, "pitch": 46, "duration": 170, "velocity": 81}, {"time": 5770, "pitch": 58, "duration": 190, "velocity": 102}, {"time": 5920, "pitch": 48, "duration": 80, "velocity": 83}, {"time": 5930, "pitch": 60, "duration": 100, "velocity": 96}, {"time": 6000, "pitch": 51, "duration": 190, "velocity": 87}, {"time": 6000, "pitch": 63, "duration": 170, "velocity": 104}, {"time": 6160, "pitch": 48, "duration": 80, "velocity": 81}, {"time": 6160, "pitch": 60, "duration": 10, "velocity": 87}, {"time": 6240, "pitch": 39, "duration": 690, "velocity": 82}, {"time": 6240, "pitch": 58, "duration": 190, "velocity": 109}, {"time": 6240, "pitch": 63, "duration": 200, "velocity": 87}, {"time": 6240, "pitch": 67, "duration": 180, "velocity": 98}, {"time": 6480, "pitch": 51, "duration": 400, "velocity": 84}, {"time": 6480, "pitch": 58, "duration": 360, "velocity": 108}, {"time": 6480, "pitch": 63, "duration": 380, "velocity": 93}, {"time": 6480, "pitch": 67, "duration": 330, "velocity": 119}, {"time": 6870, "pitch": 55, "duration": 260, "velocity": 114}, {"time": 7120, "pitch": 44, "duration": 20, "velocity": 70}, {"time": 7200, "pitch": 44, "duration": 540, "velocity": 74}, {"time": 7200, "pitch": 56, "duration": 340, "velocity": 98}, {"time": 7200, "pitch": 60, "duration": 360, "velocity": 83}, {"time": 7200, "pitch": 63, "duration": 380, "velocity": 102}, {"time": 7210, "pitch": 32, "duration": 550, "velocity": 72}, {"time": 7580, "pitch": 56, "duration": 490, "velocity": 103}, {"time": 7840, "pitch": 32, "duration": 250, "velocity": 82}, {"time": 7920, "pitch": 68, "duration": 220, "velocity": 116}, {"time": 8090, "pitch": 44, "duration": 40, "velocity": 81}, {"time": 8160, "pitch": 35, "duration": 580, "velocity": 82}, {"time": 8160, "pitch": 59, "duration": 390, "velocity": 86}, {"time": 8160, "pitch": 63, "duration": 380, "velocity": 77}, {"time": 8160, "pitch": 66, "duration": 360, "velocity": 92}, {"time": 8400, "pitch": 47, "duration": 380, "velocity": 77}, {"time": 8560, "pitch": 58, "duration": 360, "velocity": 95}, {"time": 8800, "pitch": 35, "duration": 250, "velocity": 76}, {"time": 8800, "pitch": 47, "duration": 320, "velocity": 77}, {"time": 8880, "pitch": 59, "duration": 190, "velocity": 99}, {"time": 8880, "pitch": 66, "duration": 210, "velocity": 97}, {"time": 8890, "pitch": 63, "duration": 210, "velocity": 87}, {"time": 9120, "pitch": 37, "duration": 420, "velocity": 80}, {"time": 9130, "pitch": 56, "duration": 50, "velocity": 97}, {"time": 9130, "pitch": 65, "duration": 60, "velocity": 100}, {"time": 9140, "pitch": 61, "duration": 50, "velocity": 98}, {"time": 9360, "pitch": 49, "duration": 230, "velocity": 88}, {"time": 9370, "pitch": 56, "duration": 320, "velocity": 109}, {"time": 9370, "pitch": 61, "duration": 270, "velocity": 109}, {"time": 9370, "pitch": 65, "duration": 320, "velocity": 104}, {"time": 9600, "pitch": 37, "duration": 480, "velocity": 83}, {"time": 9670, "pitch": 61, "duration": 30, "velocity": 35}, {"time": 9760, "pitch": 49, "duration": 310, "velocity": 90}, {"time": 9760, "pitch": 56, "duration": 300, "velocity": 105}, {"time": 9760, "pitch": 61, "duration": 300, "velocity": 105}, {"time": 9760, "pitch": 65, "duration": 310, "velocity": 105}, {"time": 10080, "pitch": 39, "duration": 430, "velocity": 88}, {"time": 10080, "pitch": 51, "duration": 430, "velocity": 90}, {"time": 10080, "pitch": 58, "duration": 380, "velocity": 114}, {"time": 10080, "pitch": 63, "duration": 410, "velocity": 99}, {"time": 10080, "pitch": 67, "duration": 390, "velocity": 105}, {"time": 10560, "pitch": 39, "duration": 460, "velocity": 83}, {"time": 10560, "pitch": 51, "duration": 420, "velocity": 84}, {"time": 10560, "pitch": 58, "duration": 310, "velocity": 110}, {"time": 10560, "pitch": 63, "duration": 340, "velocity": 93}, {"time": 10560, "pitch": 67, "duration": 350, "velocity": 101}, {"time": 10960, "pitch": 62, "duration": 390, "velocity": 97}, {"time": 10960, "pitch": 70, "duration": 440, "velocity": 109}, {"time": 10970, "pitch": 65, "duration": 410, "velocity": 94}, {"time": 11040, "pitch": 38, "duration": 600, "velocity": 83}, {"time": 11280, "pitch": 50, "duration": 370, "velocity": 82}, {"time": 11440, "pitch": 65, "duration": 180, "velocity": 100}, {"time": 11460, "pitch": 70, "duration": 190, "velocity": 95}, {"time": 11480, "pitch": 74, "duration": 210, "velocity": 103}, {"time": 11670, "pitch": 65, "duration": 300, "velocity": 104}, {"time": 11760, "pitch": 38, "duration": 250, "velocity": 80}, {"time": 11760, "pitch": 50, "duration": 260, "velocity": 84}, {"time": 12000, "pitch": 36, "duration": 640, "velocity": 86}, {"time": 12000, "pitch": 48, "duration": 640, "velocity": 91}, {"time": 12000, "pitch": 63, "duration": 350, "velocity": 108}, {"time": 12000, "pitch": 67, "duration": 340, "velocity": 97}, {"time": 12000, "pitch": 72, "duration": 320, "velocity": 105}, {"time": 12400, "pitch": 55, "duration": 360, "velocity": 112}, {"time": 12660, "pitch": 36, "duration": 230, "velocity": 68}, {"time": 12660, "pitch": 48, "duration": 230, "velocity": 85}, {"time": 12720, "pitch": 60, "duration": 100, "velocity": 96}, {"time": 12720, "pitch": 63, "duration": 110, "velocity": 106}, {"time": 12880, "pitch": 58, "duration": 450, "velocity": 104}, {"time": 12880, "pitch": 62, "duration": 420, "velocity": 95}, {"time": 12960, "pitch": 34, "duration": 920, "velocity": 90}, {"time": 13200, "pitch": 46, "duration": 670, "velocity": 84}, {"time": 13360, "pitch": 55, "duration": 240, "velocity": 119}, {"time": 13360, "pitch": 67, "duration": 270, "velocity": 117}, {"time": 13600, "pitch": 55, "duration": 150, "velocity": 87}, {"time": 13680, "pitch": 58, "duration": 110, "velocity": 98}, {"time": 13680, "pitch": 62, "duration": 100, "velocity": 90}, {"time": 13840, "pitch": 56, "duration": 300, "velocity": 87}, {"time": 13840, "pitch": 60, "duration": 530, "velocity": 89}, {"time": 13920, "pitch": 32, "duration": 420, "velocity": 80}, {"time": 14160, "pitch": 44, "duration": 190, "velocity": 87}, {"time": 14160, "pitch": 56, "duration": 220, "velocity": 76}, {"time": 14400, "pitch": 32, "duration": 180, "velocity": 78}, {"time": 14400, "pitch": 44, "duration": 180, "velocity": 83}, {"time": 14400, "pitch": 56, "duration": 180, "velocity": 96}, {"time": 14400, "pitch": 63, "duration": 180, "velocity": 99}, {"time": 14410, "pitch": 60, "duration": 190, "velocity": 82}, {"time": 14640, "pitch": 32, "duration": 190, "velocity": 71}, {"time": 14640, "pitch": 44, "duration": 170, "velocity": 83}, {"time": 14640, "pitch": 56, "duration": 100, "velocity": 82}, {"time": 14640, "pitch": 63, "duration": 90, "velocity": 75}, {"time": 14650, "pitch": 60, "duration": 100, "velocity": 86}, {"time": 14800, "pitch": 55, "duration": 590, "velocity": 107}, {"time": 14800, "pitch": 58, "duration": 610, "velocity": 106}, {"time": 14800, "pitch": 63, "duration": 580, "velocity": 101}, {"time": 14880, "pitch": 31, "duration": 190, "velocity": 82}, {"time": 14880, "pitch": 43, "duration": 180, "velocity": 70}, {"time": 15120, "pitch": 31, "duration": 180, "velocity": 76}, {"time": 15120, "pitch": 43, "duration": 190, "velocity": 76}, {"time": 15360, "pitch": 31, "duration": 380, "velocity": 80}, {"time": 15360, "pitch": 43, "duration": 380, "velocity": 80}, {"time": 15520, "pitch": 55, "duration": 200, "velocity": 109}, {"time": 15520, "pitch": 58, "duration": 310, "velocity": 110}, {"time": 15520, "pitch": 63, "duration": 300, "velocity": 109}, {"time": 15760, "pitch": 55, "duration": 80, "velocity": 89}, {"time": 15840, "pitch": 29, "duration": 190, "velocity": 80}, {"time": 15840, "pitch": 41, "duration": 180, "velocity": 89}, {"time": 15840, "pitch": 56, "duration": 160, "velocity": 99}, {"time": 15840, "pitch": 60, "duration": 170, "velocity": 94}, {"time": 15840, "pitch": 63, "duration": 180, "velocity": 99}, {"time": 16070, "pitch": 60, "duration": 160, "velocity": 107}, {"time": 16070, "pitch": 68, "duration": 170, "velocity": 114}, {"time": 16080, "pitch": 29, "duration": 170, "velocity": 86}, {"time": 16080, "pitch": 41, "duration": 170, "velocity": 86}, {"time": 16080, "pitch": 63, "duration": 190, "velocity": 99}, {"time": 16320, "pitch": 29, "duration": 210, "velocity": 88}, {"time": 16320, "pitch": 41, "duration": 200, "velocity": 86}, {"time": 16320, "pitch": 60, "duration": 120, "velocity": 104}, {"time": 16320, "pitch": 63, "duration": 160, "velocity": 92}, {"time": 16320, "pitch": 68, "duration": 180, "velocity": 109}, {"time": 16550, "pitch": 29, "duration": 130, "velocity": 86}, {"time": 16550, "pitch": 41, "duration": 180, "velocity": 81}, {"time": 16550, "pitch": 68, "duration": 190, "velocity": 115}, {"time": 16550, "pitch": 72, "duration": 180, "velocity": 92}, {"time": 16550, "pitch": 75, "duration": 160, "velocity": 114}, {"time": 16800, "pitch": 35, "duration": 410, "velocity": 85}, {"time": 16800, "pitch": 47, "duration": 450, "velocity": 87}, {"time": 16880, "pitch": 59, "duration": 40, "velocity": 114}, {"time": 16880, "pitch": 63, "duration": 50, "velocity": 106}, {"time": 16880, "pitch": 66, "duration": 40, "velocity": 109}, {"time": 17040, "pitch": 59, "duration": 210, "velocity": 112}, {"time": 17040, "pitch": 66, "duration": 220, "velocity": 111}, {"time": 17050, "pitch": 63, "duration": 220, "velocity": 99}, {"time": 17280, "pitch": 37, "duration": 440, "velocity": 78}, {"time": 17280, "pitch": 49, "duration": 440, "velocity": 92}, {"time": 17350, "pitch": 56, "duration": 50, "velocity": 111}, {"time": 17350, "pitch": 65, "duration": 50, "velocity": 108}, {"time": 17360, "pitch": 61, "duration": 50, "velocity": 104}, {"time": 17520, "pitch": 56, "duration": 200, "velocity": 114}, {"time": 17520, "pitch": 61, "duration": 200, "velocity": 103}, {"time": 17520, "pitch": 65, "duration": 220, "velocity": 112}, {"time": 17680, "pitch": 46, "duration": 90, "velocity": 66}, {"time": 17760, "pitch": 39, "duration": 420, "velocity": 80}, {"time": 17760, "pitch": 51, "duration": 520, "velocity": 81}, {"time": 17760, "pitch": 58, "duration": 410, "velocity": 116}, {"time": 17760, "pitch": 63, "duration": 440, "velocity": 97}, {"time": 17760, "pitch": 67, "duration": 420, "velocity": 102}, {"time": 18240, "pitch": 39, "duration": 430, "velocity": 78}, {"time": 18240, "pitch": 58, "duration": 200, "velocity": 110}, {"time": 18240, "pitch": 63, "duration": 220, "velocity": 82}, {"time": 18240, "pitch": 67, "duration": 200, "velocity": 100}, {"time": 18400, "pitch": 51, "duration": 250, "velocity": 79}, {"time": 18490, "pitch": 58, "duration": 110, "velocity": 112}, {"time": 18490, "pitch": 63, "duration": 130, "velocity": 90}, {"time": 18490, "pitch": 67, "duration": 130, "velocity": 98}, {"time": 18640, "pitch": 58, "duration": 330, "velocity": 102}, {"time": 18640, "pitch": 65, "duration": 410, "velocity": 98}, {"time": 18650, "pitch": 38, "duration": 990, "velocity": 74}, {"time": 18650, "pitch": 50, "duration": 190, "velocity": 69}, {"time": 18650, "pitch": 62, "duration": 360, "velocity": 83}, {"time": 18960, "pitch": 50, "duration": 180, "velocity": 74}, {"time": 19120, "pitch": 65, "duration": 240, "velocity": 108}, {"time": 19120, "pitch": 70, "duration": 240, "velocity": 104}, {"time": 19120, "pitch": 74, "duration": 210, "velocity": 107}, {"time": 19200, "pitch": 50, "duration": 180, "velocity": 74}, {"time": 19360, "pitch": 62, "duration": 110, "velocity": 87}, {"time": 19440, "pitch": 50, "duration": 150, "velocity": 75}, {"time": 19440, "pitch": 65, "duration": 200, "velocity": 98}, {"time": 19440, "pitch": 70, "duration": 200, "velocity": 94}, {"time": 19440, "pitch": 74, "duration": 200, "velocity": 102}, {"time": 19680, "pitch": 36, "duration": 830, "velocity": 81}, {"time": 19680, "pitch": 48, "duration": 180, "velocity": 85}, {"time": 19680, "pitch": 63, "duration": 560, "velocity": 109}, {"time": 19680, "pitch": 67, "duration": 550, "velocity": 98}, {"time": 19680, "pitch": 72, "duration": 500, "velocity": 105}, {"time": 19920, "pitch": 48, "duration": 170, "velocity": 77}, {"time": 20160, "pitch": 48, "duration": 180, "velocity": 80}, {"time": 20320, "pitch": 55, "duration": 110, "velocity": 104}, {"time": 20400, "pitch": 48, "duration": 60, "velocity": 80}, {"time": 20400, "pitch": 60, "duration": 130, "velocity": 86}, {"time": 20400, "pitch": 63, "duration": 120, "velocity": 96}, {"time": 20400, "pitch": 67, "duration": 100, "velocity": 93}, {"time": 20560, "pitch": 58, "duration": 410, "velocity": 111}, {"time": 20560, "pitch": 62, "duration": 440, "velocity": 88}, {"time": 20560, "pitch": 67, "duration": 400, "velocity": 95}, {"time": 20640, "pitch": 34, "duration": 880, "velocity": 85}, {"time": 20640, "pitch": 46, "duration": 190, "velocity": 87}, {"time": 20880, "pitch": 46, "duration": 140, "velocity": 84}, {"time": 21040, "pitch": 55, "duration": 210, "velocity": 106}, {"time": 21120, "pitch": 46, "duration": 170, "velocity": 84}, {"time": 21260, "pitch": 58, "duration": 310, "velocity": 101}, {"time": 21260, "pitch": 61, "duration": 50, "velocity": 97}, {"time": 21270, "pitch": 60, "duration": 30, "velocity": 68}, {"time": 21280, "pitch": 62, "duration": 320, "velocity": 89}, {"time": 21360, "pitch": 46, "duration": 150, "velocity": 73}, {"time": 21520, "pitch": 44, "duration": 80, "velocity": 80}, {"time": 21600, "pitch": 32, "duration": 850, "velocity": 81}, {"time": 21600, "pitch": 44, "duration": 190, "velocity": 85}, {"time": 21600, "pitch": 56, "duration": 410, "velocity": 104}, {"time": 21600, "pitch": 60, "duration": 440, "velocity": 97}, {"time": 21600, "pitch": 63, "duration": 410, "velocity": 106}, {"time": 21840, "pitch": 44, "duration": 190, "velocity": 77}, {"time": 22070, "pitch": 56, "duration": 310, "velocity": 105}, {"time": 22070, "pitch": 63, "duration": 310, "velocity": 105}, {"time": 22080, "pitch": 44, "duration": 210, "velocity": 73}, {"time": 22080, "pitch": 60, "duration": 340, "velocity": 97}, {"time": 22320, "pitch": 44, "duration": 100, "velocity": 85}, {"time": 22460, "pitch": 55, "duration": 300, "velocity": 107}, {"time": 22460, "pitch": 58, "duration": 350, "velocity": 102}, {"time": 22460, "pitch": 63, "duration": 340, "velocity": 102}, {"time": 22560, "pitch": 31, "duration": 750, "velocity": 88}, {"time": 22560, "pitch": 43, "duration": 140, "velocity": 84}, {"time": 22800, "pitch": 43, "duration": 140, "velocity": 83}, {"time": 22800, "pitch": 55, "duration": 280, "velocity": 111}, {"time": 23040, "pitch": 43, "duration": 160, "velocity": 82}, {"time": 23200, "pitch": 63, "duration": 300, "velocity": 117}, {"time": 23200, "pitch": 70, "duration": 310, "velocity": 111}, {"time": 23210, "pitch": 67, "duration": 290, "velocity": 91}, {"time": 23280, "pitch": 43, "duration": 90, "velocity": 76}, {"time": 23440, "pitch": 31, "duration": 30, "velocity": 80}, {"time": 23440, "pitch": 43, "duration": 20, "velocity": 80}, {"time": 23520, "pitch": 29, "duration": 790, "velocity": 89}, {"time": 23520, "pitch": 41, "duration": 180, "velocity": 92}, {"time": 23520, "pitch": 63, "duration": 340, "velocity": 102}, {"time": 23520, "pitch": 68, "duration": 350, "velocity": 87}, {"time": 23520, "pitch": 72, "duration": 370, "velocity": 100}, {"time": 23760, "pitch": 41, "duration": 180, "velocity": 87}, {"time": 23920, "pitch": 63, "duration": 250, "velocity": 99}, {"time": 23920, "pitch": 68, "duration": 270, "velocity": 89}, {"time": 23920, "pitch": 72, "duration": 280, "velocity": 85}, {"time": 24000, "pitch": 41, "duration": 190, "velocity": 86}, {"time": 24160, "pitch": 75, "duration": 320, "velocity": 124}, {"time": 24240, "pitch": 41, "duration": 80, "velocity": 87}, {"time": 24480, "pitch": 34, "duration": 210, "velocity": 91}, {"time": 24480, "pitch": 46, "duration": 190, "velocity": 90}, {"time": 24490, "pitch": 68, "duration": 200, "velocity": 113}, {"time": 24490, "pitch": 72, "duration": 220, "velocity": 90}, {"time": 24490, "pitch": 75, "duration": 210, "velocity": 105}, {"time": 24720, "pitch": 34, "duration": 60, "velocity": 68}, {"time": 24720, "pitch": 46, "duration": 70, "velocity": 78}, {"time": 24720, "pitch": 68, "duration": 60, "velocity": 102}, {"time": 24720, "pitch": 72, "duration": 70, "velocity": 101}, {"time": 24720, "pitch": 75, "duration": 70, "velocity": 107}, {"time": 25440, "pitch": 32, "duration": 830, "velocity": 83}, {"time": 25440, "pitch": 44, "duration": 840, "velocity": 88}, {"time": 25440, "pitch": 63, "duration": 570, "velocity": 112}, {"time": 25440, "pitch": 68, "duration": 550, "velocity": 105}, {"time": 25440, "pitch": 72, "duration": 500, "velocity": 103}, {"time": 26080, "pitch": 56, "duration": 240, "velocity": 112}, {"time": 26320, "pitch": 32, "duration": 50, "velocity": 74}, {"time": 26320, "pitch": 44, "duration": 40, "velocity": 77}, {"time": 26320, "pitch": 60, "duration": 40, "velocity": 70}, {"time": 26320, "pitch": 63, "duration": 40, "velocity": 87}, {"time": 26400, "pitch": 31, "duration": 420, "velocity": 86}, {"time": 26400, "pitch": 43, "duration": 430, "velocity": 82}, {"time": 26400, "pitch": 58, "duration": 410, "velocity": 109}, {"time": 26400, "pitch": 70, "duration": 420, "velocity": 118}, {"time": 26410, "pitch": 63, "duration": 370, "velocity": 78}, {"time": 26410, "pitch": 67, "duration": 430, "velocity": 86}, {"time": 26880, "pitch": 30, "duration": 430, "velocity": 88}, {"time": 26880, "pitch": 42, "duration": 440, "velocity": 87}, {"time": 26880, "pitch": 60, "duration": 400, "velocity": 104}, {"time": 26880, "pitch": 63, "duration": 410, "velocity": 92}, {"time": 26880, "pitch": 66, "duration": 410, "velocity": 102}, {"time": 26880, "pitch": 72, "duration": 430, "velocity": 116}, {"time": 27360, "pitch": 29, "duration": 110, "velocity": 100}, {"time": 27360, "pitch": 41, "duration": 120, "velocity": 98}, {"time": 27360, "pitch": 60, "duration": 140, "velocity": 107}, {"time": 27360, "pitch": 63, "duration": 130, "velocity": 105}, {"time": 27360, "pitch": 68, "duration": 150, "velocity": 117}, {"time": 27520, "pitch": 31, "duration": 50, "velocity": 89}, {"time": 27520, "pitch": 43, "duration": 40, "velocity": 86}, {"time": 27520, "pitch": 67, "duration": 70, "velocity": 105}, {"time": 27600, "pitch": 32, "duration": 60, "velocity": 82}, {"time": 27600, "pitch": 44, "duration": 70, "velocity": 91}, {"time": 27600, "pitch": 65, "duration": 120, "velocity": 115}, {"time": 28000, "pitch": 34, "duration": 320, "velocity": 99}, {"time": 28000, "pitch": 46, "duration": 320, "velocity": 98}, {"time": 28000, "pitch": 56, "duration": 280, "velocity": 112}, {"time": 28000, "pitch": 60, "duration": 280, "velocity": 98}, {"time": 28000, "pitch": 63, "duration": 300, "velocity": 109}, {"time": 28320, "pitch": 39, "duration": 1790, "velocity": 77}, {"time": 28320, "pitch": 51, "duration": 890, "velocity": 97}, {"time": 28320, "pitch": 55, "duration": 580, "velocity": 108}, {"time": 28320, "pitch": 58, "duration": 630, "velocity": 110}, {"time": 28320, "pitch": 63, "duration": 590, "velocity": 112}, {"time": 28950, "pitch": 55, "duration": 360, "velocity": 117}, {"time": 29210, "pitch": 46, "duration": 80, "velocity": 74}, {"time": 29280, "pitch": 51, "duration": 340, "velocity": 93}, {"time": 29280, "pitch": 56, "duration": 380, "velocity": 109}, {"time": 29280, "pitch": 60, "duration": 370, "velocity": 106}, {"time": 29280, "pitch": 63, "duration": 430, "velocity": 114}, {"time": 29680, "pitch": 51, "duration": 480, "velocity": 83}, {"time": 29760, "pitch": 60, "duration": 380, "velocity": 114}, {"time": 29760, "pitch": 63, "duration": 400, "velocity": 117}, {"time": 29760, "pitch": 68, "duration": 410, "velocity": 121}, {"time": 30180, "pitch": 46, "duration": 70, "velocity": 88}, {"time": 30240, "pitch": 39, "duration": 1820, "velocity": 63}, {"time": 30240, "pitch": 51, "duration": 420, "velocity": 93}, {"time": 30240, "pitch": 60, "duration": 570, "velocity": 111}, {"time": 30240, "pitch": 63, "duration": 570, "velocity": 116}, {"time": 30240, "pitch": 67, "duration": 270, "velocity": 117}, {"time": 30480, "pitch": 65, "duration": 300, "velocity": 110}, {"time": 30720, "pitch": 51, "duration": 380, "velocity": 87}, {"time": 30880, "pitch": 56, "duration": 320, "velocity": 116}, {"time": 31120, "pitch": 46, "duration": 70, "velocity": 68}, {"time": 31200, "pitch": 51, "duration": 360, "velocity": 91}, {"time": 31200, "pitch": 55, "duration": 400, "velocity": 109}, {"time": 31200, "pitch": 58, "duration": 420, "velocity": 105}, {"time": 31200, "pitch": 63, "duration": 430, "velocity": 114}, {"time": 31600, "pitch": 51, "duration": 480, "velocity": 68}, {"time": 31680, "pitch": 58, "duration": 400, "velocity": 120}, {"time": 31680, "pitch": 63, "duration": 410, "velocity": 107}, {"time": 31680, "pitch": 67, "duration": 420, "velocity": 114}, {"time": 32160, "pitch": 29, "duration": 510, "velocity": 102}, {"time": 32160, "pitch": 41, "duration": 440, "velocity": 100}, {"time": 32160, "pitch": 56, "duration": 580, "velocity": 106}, {"time": 32160, "pitch": 60, "duration": 600, "velocity": 86}, {"time": 32160, "pitch": 63, "duration": 620, "velocity": 99}, {"time": 32160, "pitch": 65, "duration": 580, "velocity": 101}, {"time": 32650, "pitch": 41, "duration": 360, "velocity": 100}, {"time": 32800, "pitch": 56, "duration": 300, "velocity": 121}, {"time": 33050, "pitch": 41, "duration": 90, "velocity": 89}, {"time": 33120, "pitch": 34, "duration": 360, "velocity": 102}, {"time": 33120, "pitch": 56, "duration": 430, "velocity": 96}, {"time": 33130, "pitch": 65, "duration": 420, "velocity": 94}, {"time": 33140, "pitch": 60, "duration": 430, "velocity": 95}, {"time": 33140, "pitch": 63, "duration": 430, "velocity": 95}, {"time": 33530, "pitch": 34, "duration": 510, "velocity": 79}, {"time": 33600, "pitch": 46, "duration": 450, "velocity": 93}, {"time": 33600, "pitch": 56, "duration": 410, "velocity": 104}, {"time": 33600, "pitch": 63, "duration": 430, "velocity": 92}, {"time": 33600, "pitch": 65, "duration": 440, "velocity": 109}, {"time": 33610, "pitch": 60, "duration": 410, "velocity": 78}, {"time": 34080, "pitch": 39, "duration": 490, "velocity": 101}, {"time": 34080, "pitch": 55, "duration": 500, "velocity": 111}, {"time": 34080, "pitch": 58, "duration": 510, "velocity": 110}, {"time": 34080, "pitch": 63, "duration": 520, "velocity": 114}, {"time": 34570, "pitch": 51, "duration": 390, "velocity": 108}, {"time": 34730, "pitch": 58, "duration": 340, "velocity": 122}, {"time": 34730, "pitch": 63, "duration": 370, "velocity": 111}, {"time": 34730, "pitch": 67, "duration": 330, "velocity": 106}, {"time": 34950, "pitch": 46, "duration": 90, "velocity": 80}, {"time": 35040, "pitch": 34, "duration": 870, "velocity": 101}, {"time": 35190, "pitch": 46, "duration": 210, "velocity": 104}, {"time": 35280, "pitch": 56, "duration": 70, "velocity": 109}, {"time": 35280, "pitch": 60, "duration": 80, "velocity": 101}, {"time": 35280, "pitch": 63, "duration": 100, "velocity": 116}, {"time": 35530, "pitch": 46, "duration": 360, "velocity": 100}, {"time": 35680, "pitch": 56, "duration": 240, "velocity": 112}, {"time": 35680, "pitch": 60, "duration": 240, "velocity": 95}, {"time": 35680, "pitch": 65, "duration": 240, "velocity": 113}, {"time": 35920, "pitch": 39, "duration": 80, "velocity": 95}, {"time": 36000, "pitch": 27, "duration": 230, "velocity": 93}, {"time": 36000, "pitch": 39, "duration": 260, "velocity": 95}, {"time": 36000, "pitch": 58, "duration": 510, "velocity": 125}, {"time": 36000, "pitch": 63, "duration": 490, "velocity": 113}, {"time": 36000, "pitch": 67, "duration": 450, "velocity": 110}, {"time": 36390, "pitch": 39, "duration": 410, "velocity": 95}, {"time": 36390, "pitch": 51, "duration": 430, "velocity": 98}, {"time": 36480, "pitch": 55, "duration": 510, "velocity": 123}, {"time": 36880, "pitch": 39, "duration": 30, "velocity": 74}, {"time": 36880, "pitch": 51, "duration": 1010, "velocity": 94}, {"time": 36960, "pitch": 39, "duration": 160, "velocity": 92}, {"time": 36960, "pitch": 56, "duration": 440, "velocity": 106}, {"time": 36960, "pitch": 63, "duration": 480, "velocity": 114}, {"time": 36970, "pitch": 60, "duration": 480, "velocity": 96}, {"time": 37200, "pitch": 39, "duration": 400, "velocity": 94}, {"time": 37440, "pitch": 56, "duration": 470, "velocity": 90}, {"time": 37600, "pitch": 60, "duration": 310, "velocity": 108}, {"time": 37600, "pitch": 63, "duration": 320, "velocity": 121}, {"time": 37840, "pitch": 39, "duration": 80, "velocity": 87}, {"time": 37920, "pitch": 39, "duration": 340, "velocity": 90}, {"time": 37920, "pitch": 51, "duration": 350, "velocity": 91}, {"time": 37920, "pitch": 56, "duration": 440, "velocity": 110}, {"time": 37920, "pitch": 60, "duration": 460, "velocity": 101}, {"time": 37920, "pitch": 65, "duration": 440, "velocity": 112}, {"time": 38320, "pitch": 39, "duration": 500, "velocity": 77}, {"time": 38320, "pitch": 51, "duration": 500, "velocity": 80}, {"time": 38400, "pitch": 56, "duration": 400, "velocity": 116}, {"time": 38400, "pitch": 65, "duration": 400, "velocity": 110}, {"time": 38410, "pitch": 60, "duration": 390, "velocity": 103}, {"time": 38880, "pitch": 39, "duration": 360, "velocity": 85}, {"time": 38880, "pitch": 51, "duration": 280, "velocity": 96}, {"time": 38880, "pitch": 58, "duration": 440, "velocity": 123}, {"time": 38880, "pitch": 63, "duration": 420, "velocity": 110}, {"time": 38880, "pitch": 67, "duration": 410, "velocity": 108}, {"time": 39360, "pitch": 31, "duration": 160, "velocity": 96}, {"time": 39360, "pitch": 43, "duration": 420, "velocity": 91}, {"time": 39370, "pitch": 55, "duration": 390, "velocity": 114}, {"time": 39370, "pitch": 61, "duration": 410, "velocity": 111}, {"time": 39370, "pitch": 63, "duration": 420, "velocity": 116}, {"time": 39600, "pitch": 31, "duration": 140, "velocity": 90}, {"time": 39840, "pitch": 32, "duration": 430, "velocity": 88}, {"time": 39840, "pitch": 44, "duration": 190, "velocity": 97}, {"time": 39840, "pitch": 56, "duration": 410, "velocity": 111}, {"time": 39840, "pitch": 60, "duration": 440, "velocity": 95}, {"time": 39840, "pitch": 63, "duration": 420, "velocity": 122}, {"time": 40080, "pitch": 44, "duration": 180, "velocity": 95}, {"time": 40320, "pitch": 32, "duration": 180, "velocity": 91}, {"time": 40320, "pitch": 44, "duration": 180, "velocity": 100}, {"time": 40320, "pitch": 56, "duration": 190, "velocity": 115}, {"time": 40320, "pitch": 60, "duration": 210, "velocity": 105}, {"time": 40320, "pitch": 63, "duration": 190, "velocity": 117}, {"time": 40560, "pitch": 31, "duration": 190, "velocity": 96}, {"time": 40560, "pitch": 43, "duration": 170, "velocity": 98}, {"time": 40560, "pitch": 55, "duration": 190, "velocity": 100}, {"time": 40560, "pitch": 58, "duration": 210, "velocity": 101}, {"time": 40560, "pitch": 63, "duration": 190, "velocity": 115}, {"time": 40800, "pitch": 29, "duration": 420, "velocity": 97}, {"time": 40800, "pitch": 41, "duration": 180, "velocity": 98}, {"time": 40800, "pitch": 56, "duration": 390, "velocity": 104}, {"time": 40800, "pitch": 63, "duration": 360, "velocity": 116}, {"time": 40810, "pitch": 60, "duration": 370, "velocity": 98}, {"time": 41050, "pitch": 41, "duration": 90, "velocity": 97}, {"time": 41210, "pitch": 41, "duration": 40, "velocity": 95}, {"time": 41270, "pitch": 34, "duration": 410, "velocity": 93}, {"time": 41270, "pitch": 46, "duration": 150, "velocity": 97}, {"time": 41280, "pitch": 56, "duration": 380, "velocity": 116}, {"time": 41280, "pitch": 58, "duration": 390, "velocity": 107}, {"time": 41280, "pitch": 63, "duration": 400, "velocity": 123}, {"time": 41520, "pitch": 46, "duration": 180, "velocity": 101}, {"time": 41760, "pitch": 39, "duration": 860, "velocity": 95}, {"time": 41760, "pitch": 51, "duration": 770, "velocity": 99}, {"time": 41760, "pitch": 55, "duration": 340, "velocity": 111}, {"time": 41760, "pitch": 58, "duration": 390, "velocity": 116}, {"time": 41760, "pitch": 63, "duration": 380, "velocity": 116}, {"time": 42160, "pitch": 55, "duration": 250, "velocity": 116}, {"time": 42400, "pitch": 58, "duration": 310, "velocity": 125}, {"time": 42400, "pitch": 63, "duration": 310, "velocity": 116}, {"time": 42400, "pitch": 67, "duration": 260, "velocity": 114}, {"time": 42650, "pitch": 42, "duration": 100, "velocity": 79}, {"time": 42720, "pitch": 35, "duration": 360, "velocity": 87}, {"time": 42720, "pitch": 47, "duration": 410, "velocity": 79}, {"time": 42800, "pitch": 54, "duration": 50, "velocity": 119}, {"time": 42800, "pitch": 59, "duration": 50, "velocity": 104}, {"time": 42800, "pitch": 63, "duration": 50, "velocity": 119}, {"time": 42960, "pitch": 54, "duration": 220, "velocity": 119}, {"time": 42960, "pitch": 63, "duration": 240, "velocity": 119}, {"time": 42970, "pitch": 59, "duration": 240, "velocity": 106}, {"time": 43130, "pitch": 44, "duration": 60, "velocity": 77}, {"time": 43200, "pitch": 37, "duration": 480, "velocity": 85}, {"time": 43200, "pitch": 49, "duration": 470, "velocity": 99}, {"time": 43280, "pitch": 56, "duration": 50, "velocity": 111}, {"time": 43280, "pitch": 61, "duration": 60, "velocity": 111}, {"time": 43280, "pitch": 65, "duration": 40, "velocity": 109}, {"time": 43440, "pitch": 56, "duration": 210, "velocity": 117}, {"time": 43440, "pitch": 65, "duration": 230, "velocity": 116}, {"time": 43450, "pitch": 61, "duration": 200, "velocity": 111}, {"time": 43620, "pitch": 46, "duration": 60, "velocity": 75}, {"time": 43680, "pitch": 39, "duration": 430, "velocity": 88}, {"time": 43680, "pitch": 51, "duration": 430, "velocity": 90}, {"time": 43680, "pitch": 58, "duration": 370, "velocity": 124}, {"time": 43680, "pitch": 63, "duration": 440, "velocity": 113}, {"time": 43680, "pitch": 67, "duration": 430, "velocity": 119}, {"time": 44090, "pitch": 58, "duration": 260, "velocity": 103}, {"time": 44160, "pitch": 39, "duration": 460, "velocity": 83}, {"time": 44160, "pitch": 51, "duration": 420, "velocity": 84}, {"time": 44160, "pitch": 63, "duration": 290, "velocity": 106}, {"time": 44160, "pitch": 67, "duration": 270, "velocity": 113}, {"time": 44400, "pitch": 58, "duration": 180, "velocity": 109}, {"time": 44560, "pitch": 62, "duration": 230, "velocity": 103}, {"time": 44560, "pitch": 65, "duration": 230, "velocity": 114}, {"time": 44640, "pitch": 38, "duration": 870, "velocity": 75}, {"time": 44640, "pitch": 50, "duration": 190, "velocity": 85}, {"time": 44800, "pitch": 58, "duration": 340, "velocity": 127}, {"time": 44880, "pitch": 50, "duration": 200, "velocity": 79}, {"time": 45120, "pitch": 50, "duration": 200, "velocity": 87}, {"time": 45140, "pitch": 58, "duration": 180, "velocity": 123}, {"time": 45310, "pitch": 60, "duration": 190, "velocity": 120}, {"time": 45360, "pitch": 50, "duration": 260, "velocity": 84}, {"time": 45480, "pitch": 62, "duration": 80, "velocity": 114}, {"time": 45550, "pitch": 58, "duration": 60, "velocity": 116}, {"time": 45600, "pitch": 36, "duration": 890, "velocity": 86}, {"time": 45600, "pitch": 48, "duration": 150, "velocity": 86}, {"time": 45600, "pitch": 55, "duration": 340, "velocity": 109}, {"time": 45600, "pitch": 60, "duration": 380, "velocity": 103}, {"time": 45600, "pitch": 63, "duration": 400, "velocity": 117}, {"time": 45840, "pitch": 48, "duration": 190, "velocity": 85}, {"time": 46000, "pitch": 55, "duration": 280, "velocity": 118}, {"time": 46080, "pitch": 48, "duration": 150, "velocity": 81}, {"time": 46240, "pitch": 60, "duration": 270, "velocity": 116}, {"time": 46240, "pitch": 63, "duration": 260, "velocity": 116}, {"time": 46240, "pitch": 67, "duration": 230, "velocity": 119}, {"time": 46320, "pitch": 48, "duration": 150, "velocity": 86}, {"time": 46480, "pitch": 55, "duration": 40, "velocity": 84}, {"time": 46560, "pitch": 34, "duration": 900, "velocity": 86}, {"time": 46560, "pitch": 46, "duration": 180, "velocity": 88}, {"time": 46560, "pitch": 53, "duration": 470, "velocity": 108}, {"time": 46560, "pitch": 62, "duration": 520, "velocity": 103}, {"time": 46570, "pitch": 58, "duration": 480, "velocity": 110}, {"time": 46800, "pitch": 46, "duration": 160, "velocity": 85}, {"time": 47040, "pitch": 46, "duration": 160, "velocity": 86}, {"time": 47200, "pitch": 65, "duration": 300, "velocity": 127}, {"time": 47200, "pitch": 70, "duration": 300, "velocity": 124}, {"time": 47200, "pitch": 74, "duration": 320, "velocity": 127}, {"time": 47280, "pitch": 46, "duration": 140, "velocity": 78}, {"time": 47520, "pitch": 32, "duration": 920, "velocity": 80}, {"time": 47520, "pitch": 44, "duration": 200, "velocity": 85}, {"time": 47520, "pitch": 63, "duration": 380, "velocity": 125}, {"time": 47520, "pitch": 68, "duration": 370, "velocity": 112}, {"time": 47520, "pitch": 72, "duration": 340, "velocity": 117}, {"time": 47760, "pitch": 44, "duration": 190, "velocity": 87}, {"time": 48000, "pitch": 44, "duration": 180, "velocity": 83}, {"time": 48000, "pitch": 56, "duration": 190, "velocity": 104}, {"time": 48000, "pitch": 63, "duration": 180, "velocity": 117}, {"time": 48010, "pitch": 60, "duration": 210, "velocity": 99}, {"time": 48240, "pitch": 44, "duration": 170, "velocity": 83}, {"time": 48240, "pitch": 56, "duration": 120, "velocity": 95}, {"time": 48240, "pitch": 63, "duration": 110, "velocity": 112}, {"time": 48250, "pitch": 60, "duration": 130, "velocity": 103}, {"time": 48400, "pitch": 63, "duration": 330, "velocity": 107}, {"time": 48410, "pitch": 55, "duration": 270, "velocity": 115}, {"time": 48410, "pitch": 58, "duration": 310, "velocity": 112}, {"time": 48480, "pitch": 31, "duration": 190, "velocity": 82}, {"time": 48480, "pitch": 43, "duration": 180, "velocity": 85}, {"time": 48720, "pitch": 31, "duration": 180, "velocity": 76}, {"time": 48720, "pitch": 43, "duration": 190, "velocity": 76}, {"time": 48720, "pitch": 55, "duration": 370, "velocity": 121}, {"time": 48960, "pitch": 31, "duration": 380, "velocity": 80}, {"time": 48960, "pitch": 43, "duration": 380, "velocity": 80}, {"time": 49110, "pitch": 58, "duration": 330, "velocity": 127}, {"time": 49110, "pitch": 67, "duration": 330, "velocity": 120}, {"time": 49120, "pitch": 63, "duration": 320, "velocity": 118}, {"time": 49440, "pitch": 29, "duration": 190, "velocity": 80}, {"time": 49440, "pitch": 41, "duration": 180, "velocity": 89}, {"time": 49440, "pitch": 56, "duration": 440, "velocity": 105}, {"time": 49440, "pitch": 60, "duration": 450, "velocity": 93}, {"time": 49440, "pitch": 63, "duration": 450, "velocity": 112}, {"time": 49680, "pitch": 29, "duration": 170, "velocity": 86}, {"time": 49680, "pitch": 41, "duration": 170, "velocity": 86}, {"time": 49920, "pitch": 29, "duration": 210, "velocity": 88}, {"time": 49920, "pitch": 41, "duration": 200, "velocity": 86}, {"time": 49920, "pitch": 60, "duration": 460, "velocity": 114}, {"time": 49920, "pitch": 63, "duration": 460, "velocity": 109}, {"time": 49920, "pitch": 68, "duration": 440, "velocity": 121}, {"time": 50160, "pitch": 29, "duration": 130, "velocity": 86}, {"time": 50160, "pitch": 41, "duration": 180, "velocity": 81}, {"time": 50330, "pitch": 43, "duration": 40, "velocity": 61}, {"time": 50350, "pitch": 45, "duration": 70, "velocity": 78}, {"time": 50370, "pitch": 46, "duration": 70, "velocity": 71}, {"time": 50400, "pitch": 47, "duration": 390, "velocity": 87}, {"time": 50480, "pitch": 54, "duration": 50, "velocity": 117}, {"time": 50480, "pitch": 63, "duration": 60, "velocity": 116}, {"time": 50490, "pitch": 59, "duration": 50, "velocity": 105}, {"time": 50640, "pitch": 54, "duration": 230, "velocity": 118}, {"time": 50640, "pitch": 59, "duration": 240, "velocity": 104}, {"time": 50640, "pitch": 63, "duration": 250, "velocity": 117}, {"time": 50800, "pitch": 44, "duration": 80, "velocity": 70}, {"time": 50880, "pitch": 37, "duration": 440, "velocity": 78}, {"time": 50880, "pitch": 49, "duration": 440, "velocity": 92}, {"time": 50960, "pitch": 56, "duration": 40, "velocity": 115}, {"time": 50960, "pitch": 61, "duration": 40, "velocity": 114}, {"time": 50960, "pitch": 65, "duration": 50, "velocity": 115}, {"time": 51120, "pitch": 56, "duration": 240, "velocity": 117}, {"time": 51120, "pitch": 65, "duration": 240, "velocity": 117}, {"time": 51130, "pitch": 61, "duration": 230, "velocity": 109}, {"time": 51280, "pitch": 46, "duration": 90, "velocity": 66}, {"time": 51360, "pitch": 39, "duration": 420, "velocity": 80}, {"time": 51360, "pitch": 51, "duration": 520, "velocity": 81}, {"time": 51360, "pitch": 58, "duration": 410, "velocity": 117}, {"time": 51360, "pitch": 63, "duration": 440, "velocity": 101}, {"time": 51360, "pitch": 67, "duration": 440, "velocity": 105}, {"time": 51760, "pitch": 46, "duration": 80, "velocity": 64}, {"time": 51840, "pitch": 39, "duration": 430, "velocity": 78}, {"time": 51840, "pitch": 58, "duration": 110, "velocity": 120}, {"time": 51840, "pitch": 63, "duration": 120, "velocity": 98}, {"time": 51840, "pitch": 67, "duration": 140, "velocity": 107}, {"time": 51990, "pitch": 63, "duration": 290, "velocity": 112}, {"time": 52000, "pitch": 51, "duration": 270, "velocity": 79}, {"time": 52000, "pitch": 67, "duration": 280, "velocity": 100}, {"time": 52000, "pitch": 70, "duration": 290, "velocity": 110}, {"time": 52260, "pitch": 46, "duration": 70, "velocity": 66}, {"time": 52320, "pitch": 38, "duration": 990, "velocity": 74}, {"time": 52320, "pitch": 50, "duration": 190, "velocity": 69}, {"time": 52320, "pitch": 62, "duration": 340, "velocity": 104}, {"time": 52320, "pitch": 70, "duration": 360, "velocity": 108}, {"time": 52330, "pitch": 65, "duration": 340, "velocity": 112}, {"time": 52560, "pitch": 50, "duration": 180, "velocity": 74}, {"time": 52720, "pitch": 65, "duration": 180, "velocity": 123}, {"time": 52720, "pitch": 70, "duration": 200, "velocity": 104}, {"time": 52720, "pitch": 74, "duration": 200, "velocity": 119}, {"time": 52800, "pitch": 50, "duration": 180, "velocity": 74}, {"time": 52960, "pitch": 70, "duration": 280, "velocity": 112}, {"time": 52960, "pitch": 77, "duration": 310, "velocity": 114}, {"time": 52970, "pitch": 74, "duration": 290, "velocity": 114}, {"time": 53040, "pitch": 50, "duration": 180, "velocity": 75}, {"time": 53210, "pitch": 43, "duration": 70, "velocity": 55}, {"time": 53280, "pitch": 36, "duration": 830, "velocity": 81}, {"time": 53280, "pitch": 48, "duration": 180, "velocity": 85}, {"time": 53280, "pitch": 63, "duration": 320, "velocity": 121}, {"time": 53280, "pitch": 67, "duration": 320, "velocity": 101}, {"time": 53280, "pitch": 72, "duration": 290, "velocity": 112}, {"time": 53520, "pitch": 48, "duration": 170, "velocity": 77}, {"time": 53680, "pitch": 55, "duration": 230, "velocity": 121}, {"time": 53760, "pitch": 48, "duration": 180, "velocity": 80}, {"time": 53920, "pitch": 60, "duration": 200, "velocity": 114}, {"time": 53920, "pitch": 63, "duration": 210, "velocity": 112}, {"time": 53920, "pitch": 67, "duration": 180, "velocity": 117}, {"time": 54000, "pitch": 48, "duration": 60, "velocity": 80}, {"time": 54160, "pitch": 58, "duration": 410, "velocity": 125}, {"time": 54160, "pitch": 62, "duration": 410, "velocity": 106}, {"time": 54160, "pitch": 67, "duration": 390, "velocity": 112}, {"time": 54240, "pitch": 34, "duration": 880, "velocity": 85}, {"time": 54240, "pitch": 46, "duration": 190, "velocity": 87}, {"time": 54480, "pitch": 46, "duration": 140, "velocity": 84}, {"time": 54640, "pitch": 55, "duration": 250, "velocity": 119}, {"time": 54720, "pitch": 46, "duration": 170, "velocity": 84}, {"time": 54870, "pitch": 58, "duration": 320, "velocity": 121}, {"time": 54870, "pitch": 60, "duration": 50, "velocity": 96}, {"time": 54880, "pitch": 61, "duration": 50, "velocity": 114}, {"time": 54900, "pitch": 62, "duration": 300, "velocity": 97}, {"time": 54960, "pitch": 46, "duration": 150, "velocity": 73}, {"time": 55120, "pitch": 44, "duration": 50, "velocity": 80}, {"time": 55200, "pitch": 32, "duration": 850, "velocity": 81}, {"time": 55200, "pitch": 44, "duration": 190, "velocity": 85}, {"time": 55200, "pitch": 56, "duration": 430, "velocity": 113}, {"time": 55200, "pitch": 60, "duration": 450, "velocity": 102}, {"time": 55200, "pitch": 63, "duration": 420, "velocity": 121}, {"time": 55440, "pitch": 44, "duration": 190, "velocity": 77}, {"time": 55680, "pitch": 44, "duration": 210, "velocity": 73}, {"time": 55680, "pitch": 56, "duration": 330, "velocity": 103}, {"time": 55680, "pitch": 60, "duration": 350, "velocity": 104}, {"time": 55680, "pitch": 63, "duration": 310, "velocity": 119}, {"time": 55920, "pitch": 44, "duration": 100, "velocity": 85}, {"time": 56080, "pitch": 55, "duration": 530, "velocity": 118}, {"time": 56080, "pitch": 58, "duration": 530, "velocity": 117}, {"time": 56080, "pitch": 63, "duration": 540, "velocity": 124}, {"time": 56160, "pitch": 31, "duration": 750, "velocity": 88}, {"time": 56160, "pitch": 43, "duration": 140, "velocity": 84}, {"time": 56400, "pitch": 43, "duration": 140, "velocity": 83}, {"time": 56640, "pitch": 43, "duration": 160, "velocity": 82}, {"time": 56640, "pitch": 58, "duration": 400, "velocity": 119}, {"time": 56640, "pitch": 63, "duration": 400, "velocity": 98}, {"time": 56640, "pitch": 67, "duration": 400, "velocity": 115}, {"time": 56880, "pitch": 43, "duration": 90, "velocity": 76}, {"time": 57040, "pitch": 31, "duration": 30, "velocity": 80}, {"time": 57040, "pitch": 43, "duration": 20, "velocity": 80}, {"time": 57120, "pitch": 29, "duration": 790, "velocity": 89}, {"time": 57120, "pitch": 41, "duration": 180, "velocity": 92}, {"time": 57120, "pitch": 60, "duration": 510, "velocity": 106}, {"time": 57120, "pitch": 63, "duration": 510, "velocity": 116}, {"time": 57120, "pitch": 68, "duration": 510, "velocity": 116}, {"time": 57360, "pitch": 41, "duration": 180, "velocity": 87}, {"time": 57600, "pitch": 41, "duration": 190, "velocity": 86}, {"time": 57770, "pitch": 63, "duration": 290, "velocity": 127}, {"time": 57770, "pitch": 68, "duration": 300, "velocity": 117}, {"time": 57770, "pitch": 72, "duration": 260, "velocity": 118}, {"time": 57840, "pitch": 41, "duration": 80, "velocity": 87}, {"time": 58080, "pitch": 34, "duration": 210, "velocity": 91}, {"time": 58080, "pitch": 46, "duration": 190, "velocity": 90}, {"time": 58080, "pitch": 60, "duration": 170, "velocity": 115}, {"time": 58080, "pitch": 63, "duration": 180, "velocity": 110}, {"time": 58080, "pitch": 65, "duration": 190, "velocity": 116}, {"time": 58320, "pitch": 34, "duration": 60, "velocity": 68}, {"time": 58320, "pitch": 46, "duration": 70, "velocity": 78}, {"time": 58320, "pitch": 60, "duration": 90, "velocity": 112}, {"time": 58320, "pitch": 63, "duration": 100, "velocity": 111}, {"time": 58320, "pitch": 65, "duration": 110, "velocity": 111}, {"time": 59040, "pitch": 32, "duration": 930, "velocity": 83}, {"time": 59040, "pitch": 44, "duration": 360, "velocity": 88}, {"time": 59040, "pitch": 56, "duration": 410, "velocity": 115}, {"time": 59040, "pitch": 60, "duration": 430, "velocity": 106}, {"time": 59040, "pitch": 63, "duration": 450, "velocity": 114}, {"time": 59450, "pitch": 44, "duration": 40, "velocity": 88}, {"time": 59520, "pitch": 44, "duration": 450, "velocity": 87}, {"time": 59530, "pitch": 60, "duration": 410, "velocity": 116}, {"time": 59530, "pitch": 63, "duration": 400, "velocity": 110}, {"time": 59530, "pitch": 68, "duration": 420, "velocity": 121}, {"time": 60000, "pitch": 31, "duration": 420, "velocity": 86}, {"time": 60000, "pitch": 43, "duration": 430, "velocity": 82}, {"time": 60000, "pitch": 63, "duration": 420, "velocity": 125}, {"time": 60000, "pitch": 67, "duration": 410, "velocity": 102}, {"time": 60000, "pitch": 70, "duration": 410, "velocity": 117}, {"time": 60480, "pitch": 30, "duration": 430, "velocity": 88}, {"time": 60480, "pitch": 42, "duration": 440, "velocity": 87}, {"time": 60480, "pitch": 63, "duration": 390, "velocity": 127}, {"time": 60480, "pitch": 66, "duration": 390, "velocity": 101}, {"time": 60480, "pitch": 69, "duration": 400, "velocity": 105}, {"time": 60480, "pitch": 72, "duration": 430, "velocity": 109}, {"time": 60960, "pitch": 29, "duration": 110, "velocity": 100}, {"time": 60960, "pitch": 41, "duration": 120, "velocity": 98}, {"time": 60960, "pitch": 60, "duration": 140, "velocity": 107}, {"time": 60960, "pitch": 63, "duration": 130, "velocity": 105}, {"time": 60960, "pitch": 68, "duration": 150, "velocity": 117}, {"time": 61120, "pitch": 31, "duration": 50, "velocity": 89}, {"time": 61120, "pitch": 43, "duration": 40, "velocity": 86}, {"time": 61120, "pitch": 67, "duration": 70, "velocity": 105}, {"time": 61200, "pitch": 32, "duration": 60, "velocity": 82}, {"time": 61200, "pitch": 44, "duration": 70, "velocity": 91}, {"time": 61200, "pitch": 65, "duration": 120, "velocity": 115}, {"time": 61600, "pitch": 34, "duration": 320, "velocity": 99}, {"time": 61600, "pitch": 46, "duration": 320, "velocity": 98}, {"time": 61600, "pitch": 56, "duration": 280, "velocity": 112}, {"time": 61600, "pitch": 60, "duration": 280, "velocity": 98}, {"time": 61600, "pitch": 63, "duration": 300, "velocity": 109}, {"time": 61920, "pitch": 39, "duration": 920, "velocity": 77}, {"time": 61920, "pitch": 51, "duration": 890, "velocity": 97}, {"time": 61920, "pitch": 55, "duration": 580, "velocity": 108}, {"time": 61920, "pitch": 58, "duration": 630, "velocity": 110}, {"time": 61920, "pitch": 63, "duration": 590, "velocity": 112}, {"time": 62550, "pitch": 55, "duration": 360, "velocity": 117}, {"time": 62810, "pitch": 46, "duration": 80, "velocity": 74}, {"time": 62880, "pitch": 39, "duration": 870, "velocity": 73}, {"time": 62880, "pitch": 51, "duration": 380, "velocity": 93}, {"time": 62880, "pitch": 56, "duration": 920, "velocity": 109}, {"time": 62880, "pitch": 60, "duration": 920, "velocity": 106}, {"time": 62880, "pitch": 63, "duration": 920, "velocity": 114}, {"time": 63280, "pitch": 51, "duration": 480, "velocity": 99}, {"time": 63840, "pitch": 39, "duration": 1820, "velocity": 63}, {"time": 63840, "pitch": 51, "duration": 420, "velocity": 93}, {"time": 63840, "pitch": 56, "duration": 560, "velocity": 107}, {"time": 63840, "pitch": 60, "duration": 570, "velocity": 111}, {"time": 63840, "pitch": 63, "duration": 570, "velocity": 116}, {"time": 64320, "pitch": 51, "duration": 380, "velocity": 87}, {"time": 64480, "pitch": 56, "duration": 320, "velocity": 116}, {"time": 64720, "pitch": 46, "duration": 70, "velocity": 68}, {"time": 64800, "pitch": 51, "duration": 360, "velocity": 91}, {"time": 64800, "pitch": 55, "duration": 400, "velocity": 109}, {"time": 64800, "pitch": 58, "duration": 420, "velocity": 105}, {"time": 64800, "pitch": 63, "duration": 430, "velocity": 114}, {"time": 65200, "pitch": 51, "duration": 480, "velocity": 68}, {"time": 65280, "pitch": 58, "duration": 400, "velocity": 120}, {"time": 65280, "pitch": 63, "duration": 410, "velocity": 107}, {"time": 65280, "pitch": 67, "duration": 420, "velocity": 114}, {"time": 65760, "pitch": 29, "duration": 510, "velocity": 102}, {"time": 65760, "pitch": 41, "duration": 440, "velocity": 100}, {"time": 65760, "pitch": 56, "duration": 390, "velocity": 90}, {"time": 65760, "pitch": 63, "duration": 430, "velocity": 107}, {"time": 65770, "pitch": 60, "duration": 420, "velocity": 103}, {"time": 66240, "pitch": 60, "duration": 390, "velocity": 89}, {"time": 66240, "pitch": 63, "duration": 390, "velocity": 84}, {"time": 66240, "pitch": 68, "duration": 410, "velocity": 103}, {"time": 66250, "pitch": 41, "duration": 360, "velocity": 100}, {"time": 66650, "pitch": 41, "duration": 90, "velocity": 89}, {"time": 66720, "pitch": 34, "duration": 360, "velocity": 102}, {"time": 66720, "pitch": 56, "duration": 360, "velocity": 95}, {"time": 66720, "pitch": 60, "duration": 370, "velocity": 95}, {"time": 66720, "pitch": 65, "duration": 370, "velocity": 100}, {"time": 67120, "pitch": 60, "duration": 480, "velocity": 85}, {"time": 67130, "pitch": 34, "duration": 510, "velocity": 79}, {"time": 67140, "pitch": 63, "duration": 450, "velocity": 98}, {"time": 67180, "pitch": 68, "duration": 420, "velocity": 92}, {"time": 67200, "pitch": 46, "duration": 450, "velocity": 93}, {"time": 67230, "pitch": 72, "duration": 370, "velocity": 101}, {"time": 67680, "pitch": 39, "duration": 490, "velocity": 101}, {"time": 67680, "pitch": 63, "duration": 520, "velocity": 114}, {"time": 67680, "pitch": 67, "duration": 500, "velocity": 111}, {"time": 67680, "pitch": 70, "duration": 510, "velocity": 116}, {"time": 68170, "pitch": 51, "duration": 390, "velocity": 108}, {"time": 68330, "pitch": 67, "duration": 330, "velocity": 106}, {"time": 68330, "pitch": 70, "duration": 340, "velocity": 122}, {"time": 68330, "pitch": 75, "duration": 370, "velocity": 111}, {"time": 68550, "pitch": 46, "duration": 90, "velocity": 80}, {"time": 68640, "pitch": 34, "duration": 430, "velocity": 101}, {"time": 68880, "pitch": 46, "duration": 210, "velocity": 104}, {"time": 68880, "pitch": 56, "duration": 370, "velocity": 109}, {"time": 68880, "pitch": 60, "duration": 380, "velocity": 101}, {"time": 68880, "pitch": 63, "duration": 380, "velocity": 116}, {"time": 69120, "pitch": 34, "duration": 370, "velocity": 92}, {"time": 69280, "pitch": 46, "duration": 290, "velocity": 100}, {"time": 69280, "pitch": 56, "duration": 240, "velocity": 112}, {"time": 69280, "pitch": 60, "duration": 240, "velocity": 95}, {"time": 69280, "pitch": 65, "duration": 240, "velocity": 113}, {"time": 69520, "pitch": 34, "duration": 80, "velocity": 95}, {"time": 69600, "pitch": 39, "duration": 450, "velocity": 65}, {"time": 69600, "pitch": 51, "duration": 450, "velocity": 95}, {"time": 69600, "pitch": 58, "duration": 480, "velocity": 125}, {"time": 69600, "pitch": 63, "duration": 490, "velocity": 113}, {"time": 69600, "pitch": 67, "duration": 450, "velocity": 110}, {"time": 70080, "pitch": 39, "duration": 360, "velocity": 85}, {"time": 70080, "pitch": 51, "duration": 380, "velocity": 98}, {"time": 70080, "pitch": 55, "duration": 510, "velocity": 123}, {"time": 70480, "pitch": 39, "duration": 30, "velocity": 74}, {"time": 70480, "pitch": 51, "duration": 1010, "velocity": 94}, {"time": 70560, "pitch": 39, "duration": 160, "velocity": 92}, {"time": 70560, "pitch": 56, "duration": 400, "velocity": 106}, {"time": 70560, "pitch": 63, "duration": 380, "velocity": 114}, {"time": 70570, "pitch": 60, "duration": 380, "velocity": 96}, {"time": 70800, "pitch": 39, "duration": 700, "velocity": 94}, {"time": 70960, "pitch": 56, "duration": 470, "velocity": 90}, {"time": 71040, "pitch": 60, "duration": 410, "velocity": 108}, {"time": 71040, "pitch": 63, "duration": 420, "velocity": 109}, {"time": 71040, "pitch": 68, "duration": 420, "velocity": 118}, {"time": 71520, "pitch": 39, "duration": 450, "velocity": 87}, {"time": 71520, "pitch": 51, "duration": 450, "velocity": 91}, {"time": 71520, "pitch": 56, "duration": 410, "velocity": 110}, {"time": 71520, "pitch": 60, "duration": 410, "velocity": 101}, {"time": 71520, "pitch": 65, "duration": 410, "velocity": 112}, {"time": 71980, "pitch": 65, "duration": 480, "velocity": 116}, {"time": 72000, "pitch": 39, "duration": 450, "velocity": 77}, {"time": 72000, "pitch": 51, "duration": 470, "velocity": 90}, {"time": 72000, "pitch": 68, "duration": 470, "velocity": 110}, {"time": 72020, "pitch": 72, "duration": 390, "velocity": 103}, {"time": 72480, "pitch": 39, "duration": 460, "velocity": 85}, {"time": 72480, "pitch": 51, "duration": 450, "velocity": 96}, {"time": 72480, "pitch": 63, "duration": 420, "velocity": 110}, {"time": 72480, "pitch": 67, "duration": 410, "velocity": 108}, {"time": 72480, "pitch": 70, "duration": 440, "velocity": 109}, {"time": 72960, "pitch": 31, "duration": 400, "velocity": 96}, {"time": 72960, "pitch": 43, "duration": 420, "velocity": 91}, {"time": 72970, "pitch": 67, "duration": 410, "velocity": 111}, {"time": 72970, "pitch": 70, "duration": 390, "velocity": 114}, {"time": 72970, "pitch": 75, "duration": 420, "velocity": 116}, {"time": 73380, "pitch": 31, "duration": 70, "velocity": 90}, {"time": 73440, "pitch": 32, "duration": 430, "velocity": 88}, {"time": 73440, "pitch": 44, "duration": 190, "velocity": 97}, {"time": 73440, "pitch": 68, "duration": 410, "velocity": 111}, {"time": 73440, "pitch": 72, "duration": 440, "velocity": 95}, {"time": 73440, "pitch": 75, "duration": 420, "velocity": 122}, {"time": 73680, "pitch": 44, "duration": 180, "velocity": 95}, {"time": 73920, "pitch": 32, "duration": 180, "velocity": 91}, {"time": 73920, "pitch": 44, "duration": 180, "velocity": 100}, {"time": 73920, "pitch": 63, "duration": 210, "velocity": 105}, {"time": 74160, "pitch": 31, "duration": 190, "velocity": 96}, {"time": 74160, "pitch": 43, "duration": 170, "velocity": 98}, {"time": 74160, "pitch": 67, "duration": 210, "velocity": 111}, {"time": 74160, "pitch": 70, "duration": 190, "velocity": 110}, {"time": 74160, "pitch": 75, "duration": 190, "velocity": 117}, {"time": 74400, "pitch": 29, "duration": 420, "velocity": 97}, {"time": 74400, "pitch": 41, "duration": 180, "velocity": 98}, {"time": 74400, "pitch": 68, "duration": 390, "velocity": 114}, {"time": 74400, "pitch": 75, "duration": 360, "velocity": 116}, {"time": 74410, "pitch": 72, "duration": 370, "velocity": 98}, {"time": 74650, "pitch": 41, "duration": 90, "velocity": 97}, {"time": 74810, "pitch": 41, "duration": 40, "velocity": 95}, {"time": 74810, "pitch": 56, "duration": 480, "velocity": 106}, {"time": 74870, "pitch": 34, "duration": 410, "velocity": 93}, {"time": 74870, "pitch": 46, "duration": 150, "velocity": 97}, {"time": 74880, "pitch": 60, "duration": 390, "velocity": 107}, {"time": 74880, "pitch": 63, "duration": 400, "velocity": 119}, {"time": 75120, "pitch": 46, "duration": 180, "velocity": 101}, {"time": 75360, "pitch": 39, "duration": 860, "velocity": 95}, {"time": 75360, "pitch": 51, "duration": 770, "velocity": 99}, {"time": 75360, "pitch": 55, "duration": 340, "velocity": 113}, {"time": 75360, "pitch": 58, "duration": 320, "velocity": 108}, {"time": 75360, "pitch": 63, "duration": 350, "velocity": 116}, {"time": 75760, "pitch": 58, "duration": 190, "velocity": 104}, {"time": 75760, "pitch": 70, "duration": 190, "velocity": 109}, {"time": 76000, "pitch": 58, "duration": 300, "velocity": 109}, {"time": 76000, "pitch": 70, "duration": 310, "velocity": 112}, {"time": 76250, "pitch": 42, "duration": 100, "velocity": 79}, {"time": 76320, "pitch": 35, "duration": 360, "velocity": 87}, {"time": 76320, "pitch": 47, "duration": 410, "velocity": 79}, {"time": 76400, "pitch": 54, "duration": 50, "velocity": 119}, {"time": 76400, "pitch": 59, "duration": 50, "velocity": 104}, {"time": 76400, "pitch": 63, "duration": 50, "velocity": 119}, {"time": 76560, "pitch": 54, "duration": 220, "velocity": 119}, {"time": 76560, "pitch": 63, "duration": 240, "velocity": 119}, {"time": 76570, "pitch": 59, "duration": 240, "velocity": 106}, {"time": 76730, "pitch": 44, "duration": 60, "velocity": 77}, {"time": 76800, "pitch": 37, "duration": 480, "velocity": 85}, {"time": 76800, "pitch": 49, "duration": 470, "velocity": 99}, {"time": 76880, "pitch": 56, "duration": 50, "velocity": 111}, {"time": 76880, "pitch": 61, "duration": 60, "velocity": 111}, {"time": 76880, "pitch": 65, "duration": 40, "velocity": 109}, {"time": 77040, "pitch": 56, "duration": 210, "velocity": 117}, {"time": 77040, "pitch": 65, "duration": 230, "velocity": 116}, {"time": 77050, "pitch": 61, "duration": 200, "velocity": 111}, {"time": 77220, "pitch": 46, "duration": 60, "velocity": 75}, {"time": 77280, "pitch": 39, "duration": 430, "velocity": 88}, {"time": 77280, "pitch": 51, "duration": 430, "velocity": 90}, {"time": 77280, "pitch": 58, "duration": 370, "velocity": 124}, {"time": 77280, "pitch": 63, "duration": 440, "velocity": 113}, {"time": 77280, "pitch": 67, "duration": 430, "velocity": 119}, {"time": 77690, "pitch": 58, "duration": 360, "velocity": 103}, {"time": 77760, "pitch": 39, "duration": 460, "velocity": 83}, {"time": 77760, "pitch": 51, "duration": 420, "velocity": 84}, {"time": 77760, "pitch": 63, "duration": 360, "velocity": 106}, {"time": 77760, "pitch": 67, "duration": 370, "velocity": 113}, {"time": 78160, "pitch": 62, "duration": 420, "velocity": 100}, {"time": 78160, "pitch": 70, "duration": 440, "velocity": 108}, {"time": 78170, "pitch": 65, "duration": 430, "velocity": 93}, {"time": 78240, "pitch": 38, "duration": 870, "velocity": 75}, {"time": 78240, "pitch": 50, "duration": 190, "velocity": 85}, {"time": 78480, "pitch": 50, "duration": 200, "velocity": 79}, {"time": 78640, "pitch": 72, "duration": 40, "velocity": 105}, {"time": 78650, "pitch": 73, "duration": 60, "velocity": 104}, {"time": 78680, "pitch": 74, "duration": 80, "velocity": 114}, {"time": 78720, "pitch": 50, "duration": 200, "velocity": 87}, {"time": 78880, "pitch": 70, "duration": 270, "velocity": 88}, {"time": 78880, "pitch": 74, "duration": 270, "velocity": 102}, {"time": 78880, "pitch": 77, "duration": 270, "velocity": 118}, {"time": 78960, "pitch": 50, "duration": 260, "velocity": 84}, {"time": 79200, "pitch": 36, "duration": 890, "velocity": 86}, {"time": 79200, "pitch": 48, "duration": 150, "velocity": 86}, {"time": 79200, "pitch": 67, "duration": 330, "velocity": 99}, {"time": 79200, "pitch": 72, "duration": 300, "velocity": 90}, {"time": 79200, "pitch": 75, "duration": 260, "velocity": 111}, {"time": 79440, "pitch": 48, "duration": 190, "velocity": 85}, {"time": 79600, "pitch": 60, "duration": 280, "velocity": 90}, {"time": 79600, "pitch": 63, "duration": 280, "velocity": 101}, {"time": 79600, "pitch": 67, "duration": 270, "velocity": 99}, {"time": 79680, "pitch": 48, "duration": 150, "velocity": 81}, {"time": 79840, "pitch": 55, "duration": 100, "velocity": 75}, {"time": 79910, "pitch": 60, "duration": 120, "velocity": 99}, {"time": 79910, "pitch": 67, "duration": 100, "velocity": 103}, {"time": 79920, "pitch": 48, "duration": 150, "velocity": 86}, {"time": 79920, "pitch": 63, "duration": 120, "velocity": 96}, {"time": 80070, "pitch": 58, "duration": 430, "velocity": 106}, {"time": 80070, "pitch": 67, "duration": 420, "velocity": 90}, {"time": 80080, "pitch": 62, "duration": 440, "velocity": 85}, {"time": 80160, "pitch": 34, "duration": 900, "velocity": 86}, {"time": 80160, "pitch": 46, "duration": 180, "velocity": 88}, {"time": 80400, "pitch": 46, "duration": 160, "velocity": 85}, {"time": 80560, "pitch": 55, "duration": 180, "velocity": 107}, {"time": 80560, "pitch": 58, "duration": 200, "velocity": 102}, {"time": 80560, "pitch": 65, "duration": 190, "velocity": 101}, {"time": 80570, "pitch": 62, "duration": 200, "velocity": 84}, {"time": 80640, "pitch": 46, "duration": 160, "velocity": 86}, {"time": 80810, "pitch": 55, "duration": 240, "velocity": 105}, {"time": 80810, "pitch": 58, "duration": 240, "velocity": 99}, {"time": 80810, "pitch": 65, "duration": 240, "velocity": 100}, {"time": 80820, "pitch": 62, "duration": 240, "velocity": 89}, {"time": 80880, "pitch": 46, "duration": 140, "velocity": 78}, {"time": 81120, "pitch": 32, "duration": 920, "velocity": 80}, {"time": 81120, "pitch": 44, "duration": 200, "velocity": 85}, {"time": 81120, "pitch": 51, "duration": 380, "velocity": 105}, {"time": 81120, "pitch": 56, "duration": 370, "velocity": 102}, {"time": 81120, "pitch": 60, "duration": 340, "velocity": 97}, {"time": 81360, "pitch": 44, "duration": 190, "velocity": 87}, {"time": 81600, "pitch": 44, "duration": 180, "velocity": 83}, {"time": 81600, "pitch": 56, "duration": 190, "velocity": 104}, {"time": 81600, "pitch": 63, "duration": 180, "velocity": 117}, {"time": 81610, "pitch": 60, "duration": 210, "velocity": 99}, {"time": 81840, "pitch": 44, "duration": 170, "velocity": 83}, {"time": 81840, "pitch": 56, "duration": 120, "velocity": 95}, {"time": 81840, "pitch": 63, "duration": 110, "velocity": 112}, {"time": 81850, "pitch": 60, "duration": 130, "velocity": 103}, {"time": 82000, "pitch": 63, "duration": 330, "velocity": 107}, {"time": 82010, "pitch": 55, "duration": 270, "velocity": 115}, {"time": 82010, "pitch": 58, "duration": 310, "velocity": 112}, {"time": 82080, "pitch": 31, "duration": 190, "velocity": 82}, {"time": 82080, "pitch": 43, "duration": 180, "velocity": 85}, {"time": 82320, "pitch": 31, "duration": 180, "velocity": 76}, {"time": 82320, "pitch": 43, "duration": 190, "velocity": 76}, {"time": 82320, "pitch": 55, "duration": 370, "velocity": 121}, {"time": 82560, "pitch": 31, "duration": 380, "velocity": 80}, {"time": 82560, "pitch": 43, "duration": 380, "velocity": 80}, {"time": 82710, "pitch": 58, "duration": 330, "velocity": 127}, {"time": 82710, "pitch": 67, "duration": 330, "velocity": 120}, {"time": 82720, "pitch": 63, "duration": 320, "velocity": 118}, {"time": 83040, "pitch": 29, "duration": 190, "velocity": 80}, {"time": 83040, "pitch": 41, "duration": 180, "velocity": 89}, {"time": 83040, "pitch": 56, "duration": 370, "velocity": 95}, {"time": 83040, "pitch": 60, "duration": 450, "velocity": 93}, {"time": 83040, "pitch": 65, "duration": 450, "velocity": 112}, {"time": 83280, "pitch": 29, "duration": 170, "velocity": 86}, {"time": 83280, "pitch": 41, "duration": 170, "velocity": 86}, {"time": 83440, "pitch": 56, "duration": 200, "velocity": 102}, {"time": 83520, "pitch": 29, "duration": 210, "velocity": 88}, {"time": 83520, "pitch": 41, "duration": 200, "velocity": 86}, {"time": 83670, "pitch": 56, "duration": 300, "velocity": 96}, {"time": 83680, "pitch": 60, "duration": 300, "velocity": 103}, {"time": 83680, "pitch": 65, "duration": 310, "velocity": 114}, {"time": 83760, "pitch": 29, "duration": 130, "velocity": 86}, {"time": 83760, "pitch": 41, "duration": 180, "velocity": 81}, {"time": 83930, "pitch": 43, "duration": 40, "velocity": 61}, {"time": 83950, "pitch": 45, "duration": 70, "velocity": 78}, {"time": 83970, "pitch": 46, "duration": 70, "velocity": 71}, {"time": 84000, "pitch": 47, "duration": 390, "velocity": 87}, {"time": 84080, "pitch": 54, "duration": 50, "velocity": 117}, {"time": 84080, "pitch": 63, "duration": 60, "velocity": 116}, {"time": 84090, "pitch": 59, "duration": 50, "velocity": 105}, {"time": 84240, "pitch": 54, "duration": 230, "velocity": 118}, {"time": 84240, "pitch": 59, "duration": 240, "velocity": 104}, {"time": 84240, "pitch": 63, "duration": 250, "velocity": 117}, {"time": 84400, "pitch": 44, "duration": 80, "velocity": 70}, {"time": 84480, "pitch": 37, "duration": 440, "velocity": 78}, {"time": 84480, "pitch": 49, "duration": 440, "velocity": 92}, {"time": 84560, "pitch": 56, "duration": 40, "velocity": 115}, {"time": 84560, "pitch": 61, "duration": 40, "velocity": 114}, {"time": 84560, "pitch": 65, "duration": 50, "velocity": 115}, {"time": 84720, "pitch": 56, "duration": 240, "velocity": 117}, {"time": 84720, "pitch": 65, "duration": 240, "velocity": 117}, {"time": 84730, "pitch": 61, "duration": 230, "velocity": 109}, {"time": 84880, "pitch": 46, "duration": 90, "velocity": 66}, {"time": 84960, "pitch": 39, "duration": 420, "velocity": 80}, {"time": 84960, "pitch": 51, "duration": 520, "velocity": 81}, {"time": 84960, "pitch": 58, "duration": 310, "velocity": 117}, {"time": 84960, "pitch": 63, "duration": 340, "velocity": 101}, {"time": 84960, "pitch": 67, "duration": 340, "velocity": 105}, {"time": 85350, "pitch": 63, "duration": 450, "velocity": 112}, {"time": 85360, "pitch": 46, "duration": 80, "velocity": 64}, {"time": 85360, "pitch": 67, "duration": 460, "velocity": 100}, {"time": 85360, "pitch": 70, "duration": 430, "velocity": 116}, {"time": 85440, "pitch": 39, "duration": 430, "velocity": 78}, {"time": 85600, "pitch": 51, "duration": 270, "velocity": 79}, {"time": 85840, "pitch": 62, "duration": 440, "velocity": 104}, {"time": 85840, "pitch": 65, "duration": 440, "velocity": 112}, {"time": 85840, "pitch": 70, "duration": 460, "velocity": 116}, {"time": 85860, "pitch": 46, "duration": 70, "velocity": 66}, {"time": 85920, "pitch": 38, "duration": 990, "velocity": 74}, {"time": 85920, "pitch": 50, "duration": 190, "velocity": 69}, {"time": 86160, "pitch": 50, "duration": 180, "velocity": 74}, {"time": 86320, "pitch": 70, "duration": 280, "velocity": 111}, {"time": 86320, "pitch": 74, "duration": 290, "velocity": 106}, {"time": 86320, "pitch": 77, "duration": 270, "velocity": 104}, {"time": 86400, "pitch": 50, "duration": 180, "velocity": 74}, {"time": 86640, "pitch": 50, "duration": 180, "velocity": 75}, {"time": 86640, "pitch": 65, "duration": 100, "velocity": 104}, {"time": 86640, "pitch": 70, "duration": 120, "velocity": 88}, {"time": 86640, "pitch": 74, "duration": 120, "velocity": 103}, {"time": 86800, "pitch": 67, "duration": 270, "velocity": 102}, {"time": 86800, "pitch": 72, "duration": 250, "velocity": 94}, {"time": 86800, "pitch": 75, "duration": 240, "velocity": 111}, {"time": 86810, "pitch": 43, "duration": 70, "velocity": 55}, {"time": 86880, "pitch": 36, "duration": 830, "velocity": 81}, {"time": 86880, "pitch": 48, "duration": 180, "velocity": 85}, {"time": 87120, "pitch": 48, "duration": 170, "velocity": 77}, {"time": 87120, "pitch": 63, "duration": 370, "velocity": 109}, {"time": 87120, "pitch": 67, "duration": 350, "velocity": 85}, {"time": 87120, "pitch": 72, "duration": 360, "velocity": 93}, {"time": 87360, "pitch": 48, "duration": 180, "velocity": 80}, {"time": 87510, "pitch": 75, "duration": 220, "velocity": 110}, {"time": 87520, "pitch": 67, "duration": 210, "velocity": 102}, {"time": 87520, "pitch": 72, "duration": 200, "velocity": 94}, {"time": 87600, "pitch": 48, "duration": 60, "velocity": 80}, {"time": 87760, "pitch": 67, "duration": 430, "velocity": 103}, {"time": 87760, "pitch": 70, "duration": 430, "velocity": 103}, {"time": 87760, "pitch": 74, "duration": 420, "velocity": 110}, {"time": 87840, "pitch": 34, "duration": 880, "velocity": 85}, {"time": 87840, "pitch": 46, "duration": 190, "velocity": 87}, {"time": 88080, "pitch": 46, "duration": 140, "velocity": 84}, {"time": 88250, "pitch": 62, "duration": 190, "velocity": 99}, {"time": 88250, "pitch": 67, "duration": 190, "velocity": 94}, {"time": 88250, "pitch": 70, "duration": 180, "velocity": 107}, {"time": 88320, "pitch": 46, "duration": 170, "velocity": 84}, {"time": 88480, "pitch": 58, "duration": 260, "velocity": 111}, {"time": 88480, "pitch": 62, "duration": 270, "velocity": 92}, {"time": 88480, "pitch": 67, "duration": 280, "velocity": 97}, {"time": 88560, "pitch": 46, "duration": 150, "velocity": 73}, {"time": 88720, "pitch": 44, "duration": 50, "velocity": 80}, {"time": 88800, "pitch": 32, "duration": 850, "velocity": 81}, {"time": 88800, "pitch": 44, "duration": 190, "velocity": 85}, {"time": 88800, "pitch": 56, "duration": 430, "velocity": 113}, {"time": 88800, "pitch": 60, "duration": 450, "velocity": 102}, {"time": 88800, "pitch": 63, "duration": 420, "velocity": 111}, {"time": 89040, "pitch": 44, "duration": 190, "velocity": 77}, {"time": 89280, "pitch": 44, "duration": 210, "velocity": 73}, {"time": 89280, "pitch": 56, "duration": 330, "velocity": 103}, {"time": 89280, "pitch": 60, "duration": 350, "velocity": 104}, {"time": 89280, "pitch": 63, "duration": 310, "velocity": 119}, {"time": 89520, "pitch": 44, "duration": 100, "velocity": 85}, {"time": 89680, "pitch": 63, "duration": 160, "velocity": 107}, {"time": 89680, "pitch": 70, "duration": 190, "velocity": 117}, {"time": 89690, "pitch": 67, "duration": 190, "velocity": 110}, {"time": 89760, "pitch": 31, "duration": 750, "velocity": 88}, {"time": 89760, "pitch": 43, "duration": 140, "velocity": 84}, {"time": 89920, "pitch": 67, "duration": 370, "velocity": 103}, {"time": 89920, "pitch": 70, "duration": 370, "velocity": 100}, {"time": 89920, "pitch": 75, "duration": 340, "velocity": 112}, {"time": 90000, "pitch": 43, "duration": 140, "velocity": 83}, {"time": 90240, "pitch": 43, "duration": 160, "velocity": 82}, {"time": 90400, "pitch": 55, "duration": 300, "velocity": 95}, {"time": 90400, "pitch": 58, "duration": 290, "velocity": 88}, {"time": 90400, "pitch": 63, "duration": 300, "velocity": 104}, {"time": 90480, "pitch": 43, "duration": 90, "velocity": 76}, {"time": 90640, "pitch": 31, "duration": 30, "velocity": 80}, {"time": 90640, "pitch": 43, "duration": 20, "velocity": 80}, {"time": 90720, "pitch": 29, "duration": 790, "velocity": 89}, {"time": 90720, "pitch": 41, "duration": 180, "velocity": 92}, {"time": 90720, "pitch": 60, "duration": 510, "velocity": 106}, {"time": 90720, "pitch": 63, "duration": 510, "velocity": 116}, {"time": 90720, "pitch": 68, "duration": 510, "velocity": 116}, {"time": 90960, "pitch": 41, "duration": 180, "velocity": 87}, {"time": 91200, "pitch": 41, "duration": 190, "velocity": 86}, {"time": 91370, "pitch": 63, "duration": 270, "velocity": 124}, {"time": 91370, "pitch": 68, "duration": 260, "velocity": 117}, {"time": 91370, "pitch": 72, "duration": 250, "velocity": 118}, {"time": 91440, "pitch": 41, "duration": 80, "velocity": 87}, {"time": 91680, "pitch": 34, "duration": 210, "velocity": 91}, {"time": 91680, "pitch": 46, "duration": 190, "velocity": 90}, {"time": 91680, "pitch": 68, "duration": 170, "velocity": 115}, {"time": 91680, "pitch": 72, "duration": 180, "velocity": 110}, {"time": 91680, "pitch": 75, "duration": 190, "velocity": 118}, {"time": 91920, "pitch": 34, "duration": 60, "velocity": 68}, {"time": 91920, "pitch": 46, "duration": 70, "velocity": 78}, {"time": 91920, "pitch": 68, "duration": 100, "velocity": 111}, {"time": 91920, "pitch": 72, "duration": 90, "velocity": 112}, {"time": 91920, "pitch": 75, "duration": 110, "velocity": 122}, {"time": 92640, "pitch": 32, "duration": 930, "velocity": 83}, {"time": 92640, "pitch": 44, "duration": 360, "velocity": 88}, {"time": 92640, "pitch": 56, "duration": 350, "velocity": 105}, {"time": 92640, "pitch": 60, "duration": 400, "velocity": 103}, {"time": 92640, "pitch": 63, "duration": 370, "velocity": 112}, {"time": 93040, "pitch": 56, "duration": 470, "velocity": 112}, {"time": 93050, "pitch": 44, "duration": 40, "velocity": 88}, {"time": 93120, "pitch": 44, "duration": 450, "velocity": 87}, {"time": 93280, "pitch": 60, "duration": 240, "velocity": 104}, {"time": 93280, "pitch": 63, "duration": 240, "velocity": 117}, {"time": 93600, "pitch": 31, "duration": 420, "velocity": 86}, {"time": 93600, "pitch": 43, "duration": 430, "velocity": 82}, {"time": 93600, "pitch": 55, "duration": 430, "velocity": 95}, {"time": 93600, "pitch": 58, "duration": 410, "velocity": 109}, {"time": 93600, "pitch": 63, "duration": 370, "velocity": 88}, {"time": 94080, "pitch": 30, "duration": 430, "velocity": 88}, {"time": 94080, "pitch": 42, "duration": 440, "velocity": 87}, {"time": 94080, "pitch": 57, "duration": 410, "velocity": 102}, {"time": 94080, "pitch": 60, "duration": 430, "velocity": 111}, {"time": 94080, "pitch": 63, "duration": 410, "velocity": 92}, {"time": 94560, "pitch": 29, "duration": 110, "velocity": 100}, {"time": 94560, "pitch": 41, "duration": 120, "velocity": 98}, {"time": 94560, "pitch": 56, "duration": 140, "velocity": 107}, {"time": 94560, "pitch": 60, "duration": 130, "velocity": 105}, {"time": 94560, "pitch": 63, "duration": 150, "velocity": 117}, {"time": 94720, "pitch": 31, "duration": 50, "velocity": 89}, {"time": 94720, "pitch": 43, "duration": 40, "velocity": 86}, {"time": 94720, "pitch": 62, "duration": 70, "velocity": 105}, {"time": 94800, "pitch": 32, "duration": 60, "velocity": 82}, {"time": 94800, "pitch": 44, "duration": 70, "velocity": 91}, {"time": 94800, "pitch": 60, "duration": 120, "velocity": 115}, {"time": 95200, "pitch": 31, "duration": 320, "velocity": 99}, {"time": 95200, "pitch": 43, "duration": 320, "velocity": 98}, {"time": 95200, "pitch": 62, "duration": 280, "velocity": 98}, {"time": 95200, "pitch": 69, "duration": 300, "velocity": 87}, {"time": 95200, "pitch": 72, "duration": 280, "velocity": 112}, {"time": 95480, "pitch": 67, "duration": 370, "velocity": 79}, {"time": 95500, "pitch": 72, "duration": 1130, "velocity": 91}, {"time": 95520, "pitch": 36, "duration": 550, "velocity": 81}, {"time": 95520, "pitch": 48, "duration": 560, "velocity": 75}, {"time": 95560, "pitch": 76, "duration": 1080, "velocity": 125}, {"time": 96240, "pitch": 36, "duration": 1090, "velocity": 76}, {"time": 96240, "pitch": 48, "duration": 1090, "velocity": 64}, {"time": 96720, "pitch": 67, "duration": 300, "velocity": 105}, {"time": 96960, "pitch": 76, "duration": 300, "velocity": 121}, {"time": 97200, "pitch": 74, "duration": 240, "velocity": 116}, {"time": 97440, "pitch": 35, "duration": 1740, "velocity": 67}, {"time": 97440, "pitch": 47, "duration": 540, "velocity": 73}, {"time": 97440, "pitch": 73, "duration": 330, "velocity": 116}, {"time": 97730, "pitch": 74, "duration": 160, "velocity": 116}, {"time": 98160, "pitch": 47, "duration": 990, "velocity": 72}, {"time": 98170, "pitch": 77, "duration": 510, "velocity": 123}, {"time": 98650, "pitch": 76, "duration": 420, "velocity": 116}, {"time": 99080, "pitch": 71, "duration": 150, "velocity": 100}, {"time": 99210, "pitch": 74, "duration": 160, "velocity": 103}, {"time": 99360, "pitch": 33, "duration": 960, "velocity": 74}, {"time": 99360, "pitch": 45, "duration": 970, "velocity": 82}, {"time": 99360, "pitch": 72, "duration": 510, "velocity": 116}, {"time": 99840, "pitch": 71, "duration": 280, "velocity": 111}, {"time": 100080, "pitch": 69, "duration": 270, "velocity": 102}, {"time": 100560, "pitch": 32, "duration": 610, "velocity": 85}, {"time": 100560, "pitch": 44, "duration": 590, "velocity": 90}, {"time": 100790, "pitch": 70, "duration": 300, "velocity": 123}, {"time": 101080, "pitch": 68, "duration": 200, "velocity": 114}, {"time": 101280, "pitch": 31, "duration": 610, "velocity": 89}, {"time": 101280, "pitch": 43, "duration": 620, "velocity": 84}, {"time": 101280, "pitch": 69, "duration": 280, "velocity": 122}, {"time": 101540, "pitch": 70, "duration": 230, "velocity": 108}, {"time": 101770, "pitch": 74, "duration": 270, "velocity": 112}, {"time": 102000, "pitch": 36, "duration": 1020, "velocity": 83}, {"time": 102000, "pitch": 48, "duration": 1050, "velocity": 87}, {"time": 102020, "pitch": 77, "duration": 260, "velocity": 116}, {"time": 102240, "pitch": 81, "duration": 540, "velocity": 122}, {"time": 102730, "pitch": 79, "duration": 290, "velocity": 107}, {"time": 102980, "pitch": 76, "duration": 490, "velocity": 104}, {"time": 103200, "pitch": 29, "duration": 510, "velocity": 80}, {"time": 103200, "pitch": 41, "duration": 500, "velocity": 69}, {"time": 103460, "pitch": 72, "duration": 650, "velocity": 111}, {"time": 103920, "pitch": 30, "duration": 1150, "velocity": 88}, {"time": 103920, "pitch": 42, "duration": 1120, "velocity": 81}, {"time": 104300, "pitch": 81, "duration": 150, "velocity": 80}, {"time": 104340, "pitch": 82, "duration": 110, "velocity": 105}, {"time": 104390, "pitch": 83, "duration": 390, "velocity": 113}, {"time": 104760, "pitch": 81, "duration": 370, "velocity": 106}, {"time": 105090, "pitch": 79, "duration": 410, "velocity": 111}, {"time": 105120, "pitch": 31, "duration": 550, "velocity": 80}, {"time": 105120, "pitch": 43, "duration": 550, "velocity": 76}, {"time": 105500, "pitch": 72, "duration": 310, "velocity": 99}, {"time": 105820, "pitch": 79, "duration": 70, "velocity": 95}, {"time": 105840, "pitch": 33, "duration": 1120, "velocity": 74}, {"time": 105840, "pitch": 45, "duration": 1100, "velocity": 80}, {"time": 105840, "pitch": 80, "duration": 70, "velocity": 100}, {"time": 105870, "pitch": 81, "duration": 480, "velocity": 110}, {"time": 106340, "pitch": 79, "duration": 380, "velocity": 109}, {"time": 106710, "pitch": 74, "duration": 120, "velocity": 95}, {"time": 106760, "pitch": 75, "duration": 100, "velocity": 105}, {"time": 106820, "pitch": 76, "duration": 430, "velocity": 109}, {"time": 107040, "pitch": 38, "duration": 160, "velocity": 71}, {"time": 107040, "pitch": 50, "duration": 150, "velocity": 67}, {"time": 107270, "pitch": 69, "duration": 210, "velocity": 96}, {"time": 107510, "pitch": 38, "duration": 430, "velocity": 78}, {"time": 107510, "pitch": 50, "duration": 420, "velocity": 72}, {"time": 107510, "pitch": 72, "duration": 780, "velocity": 112}, {"time": 107990, "pitch": 38, "duration": 860, "velocity": 62}, {"time": 107990, "pitch": 50, "duration": 860, "velocity": 70}, {"time": 108470, "pitch": 69, "duration": 140, "velocity": 104}, {"time": 108620, "pitch": 72, "duration": 150, "velocity": 100}, {"time": 108750, "pitch": 76, "duration": 190, "velocity": 90}, {"time": 108960, "pitch": 32, "duration": 340, "velocity": 75}, {"time": 108960, "pitch": 44, "duration": 370, "velocity": 82}, {"time": 108960, "pitch": 77, "duration": 650, "velocity": 117}, {"time": 109580, "pitch": 75, "duration": 130, "velocity": 105}, {"time": 109650, "pitch": 32, "duration": 120, "velocity": 78}, {"time": 109650, "pitch": 44, "duration": 110, "velocity": 88}, {"time": 109680, "pitch": 74, "duration": 110, "velocity": 101}, {"time": 109800, "pitch": 72, "duration": 140, "velocity": 97}, {"time": 109920, "pitch": 34, "duration": 790, "velocity": 84}, {"time": 109920, "pitch": 46, "duration": 250, "velocity": 76}, {"time": 109930, "pitch": 70, "duration": 260, "velocity": 110}, {"time": 110180, "pitch": 68, "duration": 240, "velocity": 105}, {"time": 110400, "pitch": 46, "duration": 340, "velocity": 80}, {"time": 110400, "pitch": 67, "duration": 290, "velocity": 110}, {"time": 110650, "pitch": 65, "duration": 220, "velocity": 106}, {"time": 110880, "pitch": 36, "duration": 550, "velocity": 81}, {"time": 110880, "pitch": 48, "duration": 560, "velocity": 75}, {"time": 110880, "pitch": 67, "duration": 240, "velocity": 106}, {"time": 111150, "pitch": 72, "duration": 840, "velocity": 110}, {"time": 111600, "pitch": 36, "duration": 1090, "velocity": 76}, {"time": 111600, "pitch": 48, "duration": 1090, "velocity": 64}, {"time": 112110, "pitch": 67, "duration": 200, "velocity": 97}, {"time": 112310, "pitch": 72, "duration": 170, "velocity": 108}, {"time": 112480, "pitch": 76, "duration": 200, "velocity": 104}, {"time": 112660, "pitch": 77, "duration": 150, "velocity": 112}, {"time": 112800, "pitch": 35, "duration": 1740, "velocity": 67}, {"time": 112800, "pitch": 47, "duration": 540, "velocity": 73}, {"time": 112800, "pitch": 76, "duration": 280, "velocity": 110}, {"time": 113050, "pitch": 74, "duration": 250, "velocity": 105}, {"time": 113280, "pitch": 73, "duration": 290, "velocity": 111}, {"time": 113520, "pitch": 47, "duration": 990, "velocity": 72}, {"time": 113530, "pitch": 74, "duration": 230, "velocity": 103}, {"time": 113760, "pitch": 77, "duration": 260, "velocity": 124}, {"time": 114000, "pitch": 76, "duration": 240, "velocity": 98}, {"time": 114480, "pitch": 70, "duration": 140, "velocity": 116}, {"time": 114600, "pitch": 71, "duration": 120, "velocity": 106}, {"time": 114720, "pitch": 33, "duration": 160, "velocity": 72}, {"time": 114720, "pitch": 45, "duration": 160, "velocity": 75}, {"time": 114720, "pitch": 74, "duration": 270, "velocity": 120}, {"time": 115010, "pitch": 72, "duration": 430, "velocity": 100}, {"time": 115200, "pitch": 33, "duration": 450, "velocity": 77}, {"time": 115200, "pitch": 45, "duration": 450, "velocity": 79}, {"time": 115430, "pitch": 71, "duration": 120, "velocity": 91}, {"time": 115550, "pitch": 72, "duration": 110, "velocity": 82}, {"time": 115680, "pitch": 32, "duration": 780, "velocity": 80}, {"time": 115680, "pitch": 44, "duration": 800, "velocity": 72}, {"time": 115680, "pitch": 73, "duration": 280, "velocity": 109}, {"time": 115930, "pitch": 71, "duration": 250, "velocity": 97}, {"time": 116170, "pitch": 70, "duration": 260, "velocity": 102}, {"time": 116430, "pitch": 68, "duration": 210, "velocity": 97}, {"time": 116640, "pitch": 31, "duration": 610, "velocity": 79}, {"time": 116640, "pitch": 43, "duration": 620, "velocity": 74}, {"time": 116640, "pitch": 67, "duration": 300, "velocity": 115}, {"time": 116970, "pitch": 70, "duration": 160, "velocity": 117}, {"time": 117160, "pitch": 74, "duration": 120, "velocity": 108}, {"time": 117310, "pitch": 77, "duration": 100, "velocity": 94}, {"time": 117360, "pitch": 36, "duration": 1020, "velocity": 83}, {"time": 117360, "pitch": 48, "duration": 1050, "velocity": 87}, {"time": 117460, "pitch": 81, "duration": 150, "velocity": 96}, {"time": 117610, "pitch": 79, "duration": 300, "velocity": 115}, {"time": 117870, "pitch": 76, "duration": 270, "velocity": 109}, {"time": 118110, "pitch": 72, "duration": 210, "velocity": 90}, {"time": 118340, "pitch": 73, "duration": 70, "velocity": 66}, {"time": 118350, "pitch": 74, "duration": 210, "velocity": 102}, {"time": 118560, "pitch": 29, "duration": 1700, "velocity": 80}, {"time": 118560, "pitch": 41, "duration": 1700, "velocity": 69}, {"time": 118560, "pitch": 74, "duration": 90, "velocity": 96}, {"time": 118580, "pitch": 75, "duration": 140, "velocity": 114}, {"time": 118620, "pitch": 76, "duration": 340, "velocity": 115}, {"time": 118910, "pitch": 72, "duration": 310, "velocity": 100}, {"time": 119270, "pitch": 69, "duration": 100, "velocity": 114}, {"time": 119400, "pitch": 71, "duration": 90, "velocity": 106}, {"time": 119520, "pitch": 72, "duration": 300, "velocity": 108}, {"time": 119820, "pitch": 69, "duration": 360, "velocity": 106}, {"time": 120210, "pitch": 71, "duration": 140, "velocity": 102}, {"time": 120360, "pitch": 72, "duration": 100, "velocity": 105}, {"time": 120480, "pitch": 30, "duration": 620, "velocity": 82}, {"time": 120480, "pitch": 42, "duration": 640, "velocity": 73}, {"time": 120480, "pitch": 74, "duration": 320, "velocity": 119}, {"time": 120790, "pitch": 71, "duration": 360, "velocity": 106}, {"time": 121120, "pitch": 72, "duration": 160, "velocity": 100}, {"time": 121200, "pitch": 30, "duration": 570, "velocity": 80}, {"time": 121200, "pitch": 42, "duration": 580, "velocity": 76}, {"time": 121260, "pitch": 74, "duration": 210, "velocity": 116}, {"time": 121440, "pitch": 75, "duration": 300, "velocity": 125}, {"time": 121740, "pitch": 83, "duration": 350, "velocity": 127}, {"time": 121920, "pitch": 30, "duration": 330, "velocity": 79}, {"time": 121920, "pitch": 42, "duration": 390, "velocity": 74}, {"time": 122120, "pitch": 83, "duration": 160, "velocity": 118}, {"time": 122280, "pitch": 81, "duration": 130, "velocity": 111}, {"time": 122400, "pitch": 31, "duration": 530, "velocity": 86}, {"time": 122400, "pitch": 43, "duration": 510, "velocity": 83}, {"time": 122400, "pitch": 79, "duration": 470, "velocity": 125}, {"time": 122700, "pitch": 84, "duration": 820, "velocity": 116}, {"time": 123120, "pitch": 43, "duration": 940, "velocity": 89}, {"time": 123600, "pitch": 76, "duration": 350, "velocity": 114}, {"time": 123880, "pitch": 79, "duration": 330, "velocity": 119}, {"time": 124080, "pitch": 43, "duration": 140, "velocity": 68}, {"time": 124110, "pitch": 84, "duration": 220, "velocity": 107}, {"time": 124320, "pitch": 33, "duration": 690, "velocity": 62}, {"time": 124320, "pitch": 45, "duration": 600, "velocity": 83}, {"time": 124320, "pitch": 86, "duration": 160, "velocity": 97}, {"time": 124390, "pitch": 87, "duration": 120, "velocity": 93}, {"time": 124470, "pitch": 88, "duration": 120, "velocity": 114}, {"time": 124730, "pitch": 89, "duration": 290, "velocity": 126}, {"time": 125040, "pitch": 45, "duration": 610, "velocity": 79}, {"time": 125110, "pitch": 86, "duration": 80, "velocity": 97}, {"time": 125170, "pitch": 87, "duration": 90, "velocity": 111}, {"time": 125240, "pitch": 88, "duration": 260, "velocity": 115}, {"time": 125600, "pitch": 84, "duration": 360, "velocity": 123}, {"time": 125760, "pitch": 45, "duration": 300, "velocity": 75}, {"time": 126000, "pitch": 81, "duration": 250, "velocity": 106}, {"time": 126240, "pitch": 38, "duration": 1800, "velocity": 77}, {"time": 126240, "pitch": 50, "duration": 590, "velocity": 75}, {"time": 126240, "pitch": 84, "duration": 1060, "velocity": 118}, {"time": 126960, "pitch": 50, "duration": 90, "velocity": 62}, {"time": 127200, "pitch": 50, "duration": 620, "velocity": 81}, {"time": 127350, "pitch": 81, "duration": 140, "velocity": 97}, {"time": 127450, "pitch": 84, "duration": 140, "velocity": 106}, {"time": 127560, "pitch": 88, "duration": 150, "velocity": 115}, {"time": 127680, "pitch": 91, "duration": 130, "velocity": 111}, {"time": 127820, "pitch": 88, "duration": 150, "velocity": 103}, {"time": 127920, "pitch": 50, "duration": 100, "velocity": 60}, {"time": 127940, "pitch": 84, "duration": 110, "velocity": 95}, {"time": 128030, "pitch": 81, "duration": 140, "velocity": 92}, {"time": 128160, "pitch": 43, "duration": 640, "velocity": 76}, {"time": 128160, "pitch": 55, "duration": 1860, "velocity": 73}, {"time": 128160, "pitch": 89, "duration": 160, "velocity": 118}, {"time": 128290, "pitch": 88, "duration": 150, "velocity": 108}, {"time": 128410, "pitch": 84, "duration": 130, "velocity": 103}, {"time": 128520, "pitch": 81, "duration": 160, "velocity": 91}, {"time": 128640, "pitch": 88, "duration": 600, "velocity": 118}, {"time": 128880, "pitch": 43, "duration": 110, "velocity": 69}, {"time": 129120, "pitch": 43, "duration": 110, "velocity": 69}, {"time": 129220, "pitch": 84, "duration": 150, "velocity": 110}, {"time": 129360, "pitch": 43, "duration": 400, "velocity": 79}, {"time": 129360, "pitch": 81, "duration": 130, "velocity": 102}, {"time": 129480, "pitch": 77, "duration": 130, "velocity": 106}, {"time": 129600, "pitch": 76, "duration": 460, "velocity": 112}, {"time": 129840, "pitch": 43, "duration": 200, "velocity": 70}, {"time": 130080, "pitch": 46, "duration": 380, "velocity": 82}, {"time": 130080, "pitch": 51, "duration": 1860, "velocity": 58}, {"time": 130080, "pitch": 53, "duration": 1870, "velocity": 52}, {"time": 130080, "pitch": 56, "duration": 1880, "velocity": 74}, {"time": 130080, "pitch": 75, "duration": 430, "velocity": 117}, {"time": 130440, "pitch": 72, "duration": 370, "velocity": 98}, {"time": 130560, "pitch": 46, "duration": 350, "velocity": 66}, {"time": 130750, "pitch": 70, "duration": 150, "velocity": 90}, {"time": 130900, "pitch": 68, "duration": 150, "velocity": 86}, {"time": 131040, "pitch": 46, "duration": 120, "velocity": 64}, {"time": 131040, "pitch": 67, "duration": 350, "velocity": 102}, {"time": 131280, "pitch": 46, "duration": 380, "velocity": 70}, {"time": 131370, "pitch": 68, "duration": 360, "velocity": 107}, {"time": 131720, "pitch": 60, "duration": 170, "velocity": 98}, {"time": 131760, "pitch": 46, "duration": 190, "velocity": 56}, {"time": 131860, "pitch": 63, "duration": 140, "velocity": 103}, {"time": 132000, "pitch": 46, "duration": 610, "velocity": 84}, {"time": 132000, "pitch": 60, "duration": 290, "velocity": 93}, {"time": 132000, "pitch": 62, "duration": 300, "velocity": 102}, {"time": 132000, "pitch": 67, "duration": 450, "velocity": 113}, {"time": 132480, "pitch": 60, "duration": 380, "velocity": 91}, {"time": 132480, "pitch": 62, "duration": 360, "velocity": 90}, {"time": 132480, "pitch": 67, "duration": 730, "velocity": 112}, {"time": 132720, "pitch": 46, "duration": 270, "velocity": 63}, {"time": 132960, "pitch": 34, "duration": 960, "velocity": 78}, {"time": 132960, "pitch": 62, "duration": 280, "velocity": 71}, {"time": 132980, "pitch": 60, "duration": 260, "velocity": 50}, {"time": 133230, "pitch": 67, "duration": 520, "velocity": 115}, {"time": 133440, "pitch": 46, "duration": 480, "velocity": 81}, {"time": 133710, "pitch": 68, "duration": 130, "velocity": 103}, {"time": 133830, "pitch": 70, "duration": 90, "velocity": 92}, {"time": 133920, "pitch": 39, "duration": 940, "velocity": 86}, {"time": 133920, "pitch": 51, "duration": 210, "velocity": 88}, {"time": 133920, "pitch": 63, "duration": 910, "velocity": 95}, {"time": 133920, "pitch": 67, "duration": 580, "velocity": 103}, {"time": 133920, "pitch": 70, "duration": 600, "velocity": 96}, {"time": 134160, "pitch": 51, "duration": 150, "velocity": 90}, {"time": 134320, "pitch": 46, "duration": 530, "velocity": 75}, {"time": 134540, "pitch": 67, "duration": 140, "velocity": 107}, {"time": 134540, "pitch": 70, "duration": 130, "velocity": 104}, {"time": 134540, "pitch": 75, "duration": 150, "velocity": 106}, {"time": 134700, "pitch": 67, "duration": 160, "velocity": 83}, {"time": 134700, "pitch": 70, "duration": 150, "velocity": 105}, {"time": 134880, "pitch": 39, "duration": 940, "velocity": 69}, {"time": 134880, "pitch": 51, "duration": 390, "velocity": 86}, {"time": 134880, "pitch": 68, "duration": 360, "velocity": 100}, {"time": 134880, "pitch": 72, "duration": 390, "velocity": 102}, {"time": 135280, "pitch": 51, "duration": 430, "velocity": 62}, {"time": 135280, "pitch": 68, "duration": 280, "velocity": 106}, {"time": 135280, "pitch": 75, "duration": 340, "velocity": 116}, {"time": 135600, "pitch": 68, "duration": 180, "velocity": 98}, {"time": 135600, "pitch": 72, "duration": 200, "velocity": 98}, {"time": 135750, "pitch": 51, "duration": 90, "velocity": 58}, {"time": 135840, "pitch": 39, "duration": 870, "velocity": 83}, {"time": 135840, "pitch": 51, "duration": 410, "velocity": 90}, {"time": 135840, "pitch": 68, "duration": 430, "velocity": 106}, {"time": 135840, "pitch": 72, "duration": 440, "velocity": 87}, {"time": 135840, "pitch": 77, "duration": 440, "velocity": 107}, {"time": 136240, "pitch": 46, "duration": 40, "velocity": 80}, {"time": 136320, "pitch": 51, "duration": 200, "velocity": 79}, {"time": 136320, "pitch": 68, "duration": 140, "velocity": 80}, {"time": 136330, "pitch": 72, "duration": 150, "velocity": 83}, {"time": 136330, "pitch": 75, "duration": 150, "velocity": 95}, {"time": 136480, "pitch": 68, "duration": 320, "velocity": 106}, {"time": 136480, "pitch": 72, "duration": 330, "velocity": 91}, {"time": 136480, "pitch": 77, "duration": 330, "velocity": 104}, {"time": 136560, "pitch": 51, "duration": 190, "velocity": 88}, {"time": 136720, "pitch": 46, "duration": 80, "velocity": 71}, {"time": 136800, "pitch": 70, "duration": 220, "velocity": 116}, {"time": 136800, "pitch": 75, "duration": 240, "velocity": 92}, {"time": 136800, "pitch": 79, "duration": 220, "velocity": 103}, {"time": 136810, "pitch": 39, "duration": 900, "velocity": 79}, {"time": 137040, "pitch": 70, "duration": 130, "velocity": 110}, {"time": 137190, "pitch": 70, "duration": 330, "velocity": 105}, {"time": 137520, "pitch": 75, "duration": 220, "velocity": 106}, {"time": 137760, "pitch": 39, "duration": 300, "velocity": 81}, {"time": 137760, "pitch": 51, "duration": 300, "velocity": 81}, {"time": 137760, "pitch": 70, "duration": 440, "velocity": 102}, {"time": 137760, "pitch": 75, "duration": 430, "velocity": 102}, {"time": 137760, "pitch": 79, "duration": 440, "velocity": 99}, {"time": 137760, "pitch": 82, "duration": 470, "velocity": 99}, {"time": 138160, "pitch": 39, "duration": 20, "velocity": 59}, {"time": 138160, "pitch": 51, "duration": 30, "velocity": 68}, {"time": 138240, "pitch": 39, "duration": 430, "velocity": 82}, {"time": 138240, "pitch": 51, "duration": 410, "velocity": 81}, {"time": 138240, "pitch": 70, "duration": 420, "velocity": 94}, {"time": 138250, "pitch": 75, "duration": 410, "velocity": 98}, {"time": 138250, "pitch": 79, "duration": 440, "velocity": 102}, {"time": 138400, "pitch": 82, "duration": 240, "velocity": 113}, {"time": 138710, "pitch": 75, "duration": 240, "velocity": 106}, {"time": 138710, "pitch": 80, "duration": 250, "velocity": 109}, {"time": 138720, "pitch": 32, "duration": 230, "velocity": 78}, {"time": 138720, "pitch": 72, "duration": 280, "velocity": 100}, {"time": 138960, "pitch": 44, "duration": 240, "velocity": 86}, {"time": 138960, "pitch": 79, "duration": 270, "velocity": 102}, {"time": 139200, "pitch": 32, "duration": 220, "velocity": 76}, {"time": 139200, "pitch": 75, "duration": 180, "velocity": 116}, {"time": 139360, "pitch": 72, "duration": 250, "velocity": 101}, {"time": 139440, "pitch": 44, "duration": 180, "velocity": 80}, {"time": 139600, "pitch": 42, "duration": 80, "velocity": 73}, {"time": 139680, "pitch": 35, "duration": 420, "velocity": 80}, {"time": 139680, "pitch": 47, "duration": 420, "velocity": 72}, {"time": 139680, "pitch": 66, "duration": 420, "velocity": 113}, {"time": 139680, "pitch": 70, "duration": 450, "velocity": 102}, {"time": 139680, "pitch": 75, "duration": 420, "velocity": 115}, {"time": 140160, "pitch": 35, "duration": 390, "velocity": 71}, {"time": 140160, "pitch": 47, "duration": 390, "velocity": 64}, {"time": 140160, "pitch": 66, "duration": 380, "velocity": 110}, {"time": 140160, "pitch": 75, "duration": 380, "velocity": 109}, {"time": 140170, "pitch": 70, "duration": 340, "velocity": 85}, {"time": 140570, "pitch": 65, "duration": 980, "velocity": 83}, {"time": 140610, "pitch": 70, "duration": 930, "velocity": 76}, {"time": 140640, "pitch": 37, "duration": 920, "velocity": 62}, {"time": 140640, "pitch": 49, "duration": 920, "velocity": 68}, {"time": 140640, "pitch": 75, "duration": 500, "velocity": 93}, {"time": 141120, "pitch": 73, "duration": 430, "velocity": 79}, {"time": 141530, "pitch": 46, "duration": 70, "velocity": 50}, {"time": 141580, "pitch": 58, "duration": 890, "velocity": 85}, {"time": 141600, "pitch": 39, "duration": 860, "velocity": 72}, {"time": 141600, "pitch": 51, "duration": 990, "velocity": 64}, {"time": 141600, "pitch": 63, "duration": 980, "velocity": 73}, {"time": 141600, "pitch": 67, "duration": 980, "velocity": 77}, {"time": 142550, "pitch": 62, "duration": 640, "velocity": 70}, {"time": 142560, "pitch": 50, "duration": 490, "velocity": 63}, {"time": 142560, "pitch": 70, "duration": 660, "velocity": 79}, {"time": 142570, "pitch": 65, "duration": 560, "velocity": 59}, {"time": 143040, "pitch": 58, "duration": 450, "velocity": 55}, {"time": 143280, "pitch": 74, "duration": 240, "velocity": 94}, {"time": 143520, "pitch": 48, "duration": 950, "velocity": 60}, {"time": 143520, "pitch": 55, "duration": 890, "velocity": 64}, {"time": 143520, "pitch": 63, "duration": 550, "velocity": 78}, {"time": 143520, "pitch": 67, "duration": 540, "velocity": 61}, {"time": 143520, "pitch": 72, "duration": 530, "velocity": 69}, {"time": 144000, "pitch": 75, "duration": 500, "velocity": 101}, {"time": 144480, "pitch": 46, "duration": 920, "velocity": 64}, {"time": 144480, "pitch": 55, "duration": 910, "velocity": 58}, {"time": 144480, "pitch": 67, "duration": 410, "velocity": 72}, {"time": 144480, "pitch": 74, "duration": 400, "velocity": 84}, {"time": 144490, "pitch": 70, "duration": 340, "velocity": 66}, {"time": 144910, "pitch": 70, "duration": 480, "velocity": 65}, {"time": 144960, "pitch": 82, "duration": 420, "velocity": 113}, {"time": 145440, "pitch": 44, "duration": 960, "velocity": 67}, {"time": 145440, "pitch": 56, "duration": 890, "velocity": 70}, {"time": 145440, "pitch": 60, "duration": 870, "velocity": 66}, {"time": 145440, "pitch": 63, "duration": 900, "velocity": 82}, {"time": 146390, "pitch": 58, "duration": 910, "velocity": 87}, {"time": 146390, "pitch": 67, "duration": 910, "velocity": 83}, {"time": 146400, "pitch": 43, "duration": 880, "velocity": 67}, {"time": 146400, "pitch": 55, "duration": 860, "velocity": 66}, {"time": 146400, "pitch": 63, "duration": 890, "velocity": 83}, {"time": 146400, "pitch": 70, "duration": 900, "velocity": 77}, {"time": 147360, "pitch": 41, "duration": 640, "velocity": 89}, {"time": 147360, "pitch": 63, "duration": 420, "velocity": 93}, {"time": 147360, "pitch": 68, "duration": 440, "velocity": 90}, {"time": 147360, "pitch": 72, "duration": 410, "velocity": 83}, {"time": 147600, "pitch": 53, "duration": 630, "velocity": 85}, {"time": 147840, "pitch": 63, "duration": 440, "velocity": 99}, {"time": 147840, "pitch": 68, "duration": 440, "velocity": 80}, {"time": 147840, "pitch": 72, "duration": 430, "velocity": 87}, {"time": 148080, "pitch": 41, "duration": 180, "velocity": 89}, {"time": 148320, "pitch": 35, "duration": 380, "velocity": 93}, {"time": 148320, "pitch": 47, "duration": 400, "velocity": 83}, {"time": 148400, "pitch": 59, "duration": 50, "velocity": 100}, {"time": 148400, "pitch": 63, "duration": 50, "velocity": 97}, {"time": 148400, "pitch": 66, "duration": 50, "velocity": 102}, {"time": 148560, "pitch": 59, "duration": 200, "velocity": 98}, {"time": 148560, "pitch": 63, "duration": 210, "velocity": 101}, {"time": 148560, "pitch": 66, "duration": 210, "velocity": 95}, {"time": 148800, "pitch": 37, "duration": 430, "velocity": 91}, {"time": 148800, "pitch": 49, "duration": 430, "velocity": 96}, {"time": 148880, "pitch": 56, "duration": 50, "velocity": 98}, {"time": 148880, "pitch": 61, "duration": 60, "velocity": 99}, {"time": 148880, "pitch": 65, "duration": 40, "velocity": 98}, {"time": 149040, "pitch": 56, "duration": 210, "velocity": 101}, {"time": 149040, "pitch": 61, "duration": 210, "velocity": 91}, {"time": 149040, "pitch": 65, "duration": 220, "velocity": 104}, {"time": 149220, "pitch": 46, "duration": 70, "velocity": 88}, {"time": 149280, "pitch": 39, "duration": 420, "velocity": 80}, {"time": 149280, "pitch": 51, "duration": 520, "velocity": 81}, {"time": 149280, "pitch": 58, "duration": 310, "velocity": 117}, {"time": 149280, "pitch": 63, "duration": 340, "velocity": 101}, {"time": 149280, "pitch": 67, "duration": 340, "velocity": 105}, {"time": 149670, "pitch": 63, "duration": 450, "velocity": 112}, {"time": 149680, "pitch": 67, "duration": 460, "velocity": 100}, {"time": 149680, "pitch": 70, "duration": 430, "velocity": 116}, {"time": 149760, "pitch": 39, "duration": 430, "velocity": 78}, {"time": 149920, "pitch": 51, "duration": 270, "velocity": 79}, {"time": 150160, "pitch": 62, "duration": 440, "velocity": 104}, {"time": 150160, "pitch": 65, "duration": 440, "velocity": 112}, {"time": 150160, "pitch": 70, "duration": 460, "velocity": 116}, {"time": 150180, "pitch": 46, "duration": 70, "velocity": 66}, {"time": 150240, "pitch": 38, "duration": 990, "velocity": 74}, {"time": 150240, "pitch": 50, "duration": 190, "velocity": 69}, {"time": 150480, "pitch": 50, "duration": 180, "velocity": 74}, {"time": 150640, "pitch": 70, "duration": 280, "velocity": 111}, {"time": 150640, "pitch": 74, "duration": 290, "velocity": 106}, {"time": 150640, "pitch": 77, "duration": 270, "velocity": 104}, {"time": 150720, "pitch": 50, "duration": 180, "velocity": 74}, {"time": 150960, "pitch": 50, "duration": 180, "velocity": 75}, {"time": 150960, "pitch": 65, "duration": 100, "velocity": 104}, {"time": 150960, "pitch": 70, "duration": 120, "velocity": 88}, {"time": 150960, "pitch": 74, "duration": 120, "velocity": 103}, {"time": 151120, "pitch": 67, "duration": 270, "velocity": 102}, {"time": 151120, "pitch": 72, "duration": 250, "velocity": 94}, {"time": 151120, "pitch": 75, "duration": 240, "velocity": 111}, {"time": 151130, "pitch": 43, "duration": 70, "velocity": 55}, {"time": 151200, "pitch": 36, "duration": 830, "velocity": 81}, {"time": 151200, "pitch": 48, "duration": 180, "velocity": 85}, {"time": 151440, "pitch": 48, "duration": 170, "velocity": 77}, {"time": 151440, "pitch": 63, "duration": 370, "velocity": 109}, {"time": 151440, "pitch": 67, "duration": 350, "velocity": 85}, {"time": 151440, "pitch": 72, "duration": 360, "velocity": 93}, {"time": 151680, "pitch": 48, "duration": 180, "velocity": 80}, {"time": 151830, "pitch": 75, "duration": 220, "velocity": 110}, {"time": 151840, "pitch": 67, "duration": 210, "velocity": 102}, {"time": 151840, "pitch": 72, "duration": 200, "velocity": 94}, {"time": 151920, "pitch": 48, "duration": 60, "velocity": 80}, {"time": 152080, "pitch": 67, "duration": 430, "velocity": 103}, {"time": 152080, "pitch": 70, "duration": 430, "velocity": 103}, {"time": 152080, "pitch": 74, "duration": 420, "velocity": 110}, {"time": 152160, "pitch": 34, "duration": 880, "velocity": 85}, {"time": 152160, "pitch": 46, "duration": 190, "velocity": 87}, {"time": 152400, "pitch": 46, "duration": 140, "velocity": 84}, {"time": 152540, "pitch": 62, "duration": 270, "velocity": 104}, {"time": 152540, "pitch": 67, "duration": 290, "velocity": 105}, {"time": 152550, "pitch": 70, "duration": 280, "velocity": 106}, {"time": 152640, "pitch": 46, "duration": 170, "velocity": 84}, {"time": 152780, "pitch": 72, "duration": 200, "velocity": 102}, {"time": 152880, "pitch": 46, "duration": 150, "velocity": 73}, {"time": 152990, "pitch": 74, "duration": 90, "velocity": 104}, {"time": 153040, "pitch": 44, "duration": 50, "velocity": 80}, {"time": 153050, "pitch": 70, "duration": 70, "velocity": 95}, {"time": 153120, "pitch": 32, "duration": 850, "velocity": 81}, {"time": 153120, "pitch": 44, "duration": 190, "velocity": 85}, {"time": 153120, "pitch": 63, "duration": 420, "velocity": 107}, {"time": 153120, "pitch": 68, "duration": 430, "velocity": 109}, {"time": 153120, "pitch": 72, "duration": 450, "velocity": 112}, {"time": 153360, "pitch": 44, "duration": 190, "velocity": 77}, {"time": 153600, "pitch": 44, "duration": 210, "velocity": 73}, {"time": 153600, "pitch": 68, "duration": 330, "velocity": 103}, {"time": 153600, "pitch": 72, "duration": 350, "velocity": 104}, {"time": 153600, "pitch": 75, "duration": 290, "velocity": 119}, {"time": 153840, "pitch": 44, "duration": 100, "velocity": 85}, {"time": 154000, "pitch": 70, "duration": 640, "velocity": 117}, {"time": 154000, "pitch": 75, "duration": 660, "velocity": 107}, {"time": 154010, "pitch": 67, "duration": 620, "velocity": 110}, {"time": 154080, "pitch": 31, "duration": 750, "velocity": 88}, {"time": 154080, "pitch": 43, "duration": 140, "velocity": 84}, {"time": 154320, "pitch": 43, "duration": 140, "velocity": 83}, {"time": 154480, "pitch": 63, "duration": 170, "velocity": 100}, {"time": 154560, "pitch": 43, "duration": 160, "velocity": 82}, {"time": 154720, "pitch": 67, "duration": 300, "velocity": 105}, {"time": 154720, "pitch": 70, "duration": 290, "velocity": 98}, {"time": 154720, "pitch": 75, "duration": 300, "velocity": 114}, {"time": 154800, "pitch": 43, "duration": 90, "velocity": 76}, {"time": 154960, "pitch": 31, "duration": 30, "velocity": 80}, {"time": 154960, "pitch": 43, "duration": 20, "velocity": 80}, {"time": 155040, "pitch": 29, "duration": 790, "velocity": 89}, {"time": 155040, "pitch": 41, "duration": 180, "velocity": 92}, {"time": 155040, "pitch": 56, "duration": 60, "velocity": 88}, {"time": 155040, "pitch": 60, "duration": 70, "velocity": 77}, {"time": 155040, "pitch": 63, "duration": 80, "velocity": 100}, {"time": 155280, "pitch": 41, "duration": 180, "velocity": 87}, {"time": 155280, "pitch": 56, "duration": 310, "velocity": 94}, {"time": 155280, "pitch": 60, "duration": 310, "velocity": 85}, {"time": 155280, "pitch": 63, "duration": 350, "velocity": 107}, {"time": 155520, "pitch": 41, "duration": 190, "velocity": 86}, {"time": 155680, "pitch": 56, "duration": 250, "velocity": 93}, {"time": 155680, "pitch": 60, "duration": 260, "velocity": 85}, {"time": 155680, "pitch": 65, "duration": 250, "velocity": 93}, {"time": 155760, "pitch": 41, "duration": 140, "velocity": 87}, {"time": 155940, "pitch": 41, "duration": 80, "velocity": 87}, {"time": 156000, "pitch": 35, "duration": 450, "velocity": 81}, {"time": 156000, "pitch": 47, "duration": 450, "velocity": 80}, {"time": 156000, "pitch": 59, "duration": 670, "velocity": 97}, {"time": 156000, "pitch": 66, "duration": 240, "velocity": 100}, {"time": 156240, "pitch": 65, "duration": 240, "velocity": 102}, {"time": 156480, "pitch": 35, "duration": 450, "velocity": 78}, {"time": 156480, "pitch": 47, "duration": 450, "velocity": 88}, {"time": 156480, "pitch": 66, "duration": 270, "velocity": 112}, {"time": 156720, "pitch": 67, "duration": 190, "velocity": 106}, {"time": 156960, "pitch": 40, "duration": 570, "velocity": 88}, {"time": 156960, "pitch": 52, "duration": 590, "velocity": 90}, {"time": 156960, "pitch": 59, "duration": 370, "velocity": 114}, {"time": 156960, "pitch": 64, "duration": 340, "velocity": 103}, {"time": 156960, "pitch": 68, "duration": 380, "velocity": 99}, {"time": 157360, "pitch": 59, "duration": 260, "velocity": 93}, {"time": 157360, "pitch": 64, "duration": 290, "velocity": 96}, {"time": 157360, "pitch": 71, "duration": 270, "velocity": 120}, {"time": 157600, "pitch": 40, "duration": 260, "velocity": 83}, {"time": 157600, "pitch": 52, "duration": 220, "velocity": 84}, {"time": 157680, "pitch": 59, "duration": 180, "velocity": 109}, {"time": 157840, "pitch": 63, "duration": 230, "velocity": 103}, {"time": 157840, "pitch": 66, "duration": 230, "velocity": 114}, {"time": 157920, "pitch": 39, "duration": 870, "velocity": 75}, {"time": 157920, "pitch": 51, "duration": 190, "velocity": 85}, {"time": 158080, "pitch": 59, "duration": 340, "velocity": 127}, {"time": 158160, "pitch": 51, "duration": 200, "velocity": 79}, {"time": 158400, "pitch": 51, "duration": 200, "velocity": 87}, {"time": 158420, "pitch": 59, "duration": 180, "velocity": 123}, {"time": 158590, "pitch": 61, "duration": 190, "velocity": 120}, {"time": 158640, "pitch": 51, "duration": 260, "velocity": 84}, {"time": 158760, "pitch": 63, "duration": 80, "velocity": 114}, {"time": 158830, "pitch": 59, "duration": 60, "velocity": 116}, {"time": 158880, "pitch": 37, "duration": 890, "velocity": 86}, {"time": 158880, "pitch": 49, "duration": 150, "velocity": 86}, {"time": 158880, "pitch": 56, "duration": 340, "velocity": 109}, {"time": 158880, "pitch": 61, "duration": 380, "velocity": 103}, {"time": 158880, "pitch": 64, "duration": 400, "velocity": 117}, {"time": 159120, "pitch": 49, "duration": 190, "velocity": 85}, {"time": 159280, "pitch": 56, "duration": 280, "velocity": 118}, {"time": 159360, "pitch": 49, "duration": 150, "velocity": 81}, {"time": 159520, "pitch": 61, "duration": 270, "velocity": 116}, {"time": 159520, "pitch": 64, "duration": 260, "velocity": 116}, {"time": 159520, "pitch": 68, "duration": 230, "velocity": 119}, {"time": 159600, "pitch": 49, "duration": 150, "velocity": 86}, {"time": 159760, "pitch": 56, "duration": 40, "velocity": 84}, {"time": 159840, "pitch": 35, "duration": 900, "velocity": 86}, {"time": 159840, "pitch": 47, "duration": 180, "velocity": 88}, {"time": 159840, "pitch": 54, "duration": 470, "velocity": 108}, {"time": 159840, "pitch": 63, "duration": 520, "velocity": 103}, {"time": 159850, "pitch": 59, "duration": 380, "velocity": 110}, {"time": 160080, "pitch": 47, "duration": 160, "velocity": 85}, {"time": 160230, "pitch": 59, "duration": 270, "velocity": 114}, {"time": 160320, "pitch": 47, "duration": 160, "velocity": 86}, {"time": 160470, "pitch": 61, "duration": 160, "velocity": 115}, {"time": 160560, "pitch": 47, "duration": 140, "velocity": 78}, {"time": 160640, "pitch": 63, "duration": 70, "velocity": 104}, {"time": 160700, "pitch": 59, "duration": 100, "velocity": 98}, {"time": 160800, "pitch": 33, "duration": 920, "velocity": 80}, {"time": 160800, "pitch": 45, "duration": 200, "velocity": 85}, {"time": 160800, "pitch": 57, "duration": 370, "velocity": 102}, {"time": 160800, "pitch": 61, "duration": 340, "velocity": 111}, {"time": 160800, "pitch": 64, "duration": 380, "velocity": 117}, {"time": 161040, "pitch": 45, "duration": 190, "velocity": 87}, {"time": 161280, "pitch": 45, "duration": 180, "velocity": 83}, {"time": 161280, "pitch": 64, "duration": 180, "velocity": 117}, {"time": 161280, "pitch": 69, "duration": 190, "velocity": 104}, {"time": 161290, "pitch": 61, "duration": 210, "velocity": 99}, {"time": 161520, "pitch": 45, "duration": 170, "velocity": 83}, {"time": 161520, "pitch": 64, "duration": 110, "velocity": 112}, {"time": 161520, "pitch": 69, "duration": 120, "velocity": 95}, {"time": 161530, "pitch": 61, "duration": 130, "velocity": 103}, {"time": 161680, "pitch": 64, "duration": 330, "velocity": 107}, {"time": 161690, "pitch": 59, "duration": 310, "velocity": 112}, {"time": 161690, "pitch": 68, "duration": 270, "velocity": 115}, {"time": 161760, "pitch": 32, "duration": 190, "velocity": 82}, {"time": 161760, "pitch": 44, "duration": 180, "velocity": 85}, {"time": 162000, "pitch": 32, "duration": 180, "velocity": 76}, {"time": 162000, "pitch": 44, "duration": 190, "velocity": 76}, {"time": 162000, "pitch": 56, "duration": 370, "velocity": 121}, {"time": 162240, "pitch": 32, "duration": 180, "velocity": 80}, {"time": 162240, "pitch": 44, "duration": 180, "velocity": 80}, {"time": 162390, "pitch": 68, "duration": 330, "velocity": 120}, {"time": 162390, "pitch": 71, "duration": 330, "velocity": 127}, {"time": 162400, "pitch": 64, "duration": 320, "velocity": 118}, {"time": 162480, "pitch": 32, "duration": 180, "velocity": 80}, {"time": 162480, "pitch": 44, "duration": 180, "velocity": 76}, {"time": 162720, "pitch": 30, "duration": 190, "velocity": 80}, {"time": 162720, "pitch": 42, "duration": 180, "velocity": 89}, {"time": 162720, "pitch": 57, "duration": 190, "velocity": 104}, {"time": 162720, "pitch": 61, "duration": 200, "velocity": 101}, {"time": 162720, "pitch": 64, "duration": 210, "velocity": 94}, {"time": 162960, "pitch": 30, "duration": 170, "velocity": 86}, {"time": 162960, "pitch": 42, "duration": 170, "velocity": 86}, {"time": 162960, "pitch": 57, "duration": 160, "velocity": 102}, {"time": 162960, "pitch": 61, "duration": 170, "velocity": 101}, {"time": 162960, "pitch": 66, "duration": 210, "velocity": 98}, {"time": 163200, "pitch": 30, "duration": 210, "velocity": 88}, {"time": 163200, "pitch": 42, "duration": 200, "velocity": 86}, {"time": 163200, "pitch": 57, "duration": 190, "velocity": 104}, {"time": 163200, "pitch": 61, "duration": 210, "velocity": 96}, {"time": 163200, "pitch": 68, "duration": 180, "velocity": 111}, {"time": 163440, "pitch": 30, "duration": 130, "velocity": 86}, {"time": 163440, "pitch": 42, "duration": 180, "velocity": 81}, {"time": 163440, "pitch": 57, "duration": 160, "velocity": 97}, {"time": 163440, "pitch": 61, "duration": 150, "velocity": 109}, {"time": 163440, "pitch": 69, "duration": 160, "velocity": 111}, {"time": 163680, "pitch": 36, "duration": 390, "velocity": 79}, {"time": 163680, "pitch": 48, "duration": 390, "velocity": 87}, {"time": 163760, "pitch": 64, "duration": 60, "velocity": 116}, {"time": 163760, "pitch": 67, "duration": 50, "velocity": 117}, {"time": 163770, "pitch": 72, "duration": 50, "velocity": 105}, {"time": 163920, "pitch": 64, "duration": 200, "velocity": 117}, {"time": 163920, "pitch": 67, "duration": 200, "velocity": 118}, {"time": 163920, "pitch": 72, "duration": 190, "velocity": 104}, {"time": 164080, "pitch": 45, "duration": 80, "velocity": 70}, {"time": 164160, "pitch": 38, "duration": 440, "velocity": 78}, {"time": 164160, "pitch": 50, "duration": 440, "velocity": 92}, {"time": 164160, "pitch": 57, "duration": 450, "velocity": 115}, {"time": 164160, "pitch": 62, "duration": 450, "velocity": 114}, {"time": 164160, "pitch": 66, "duration": 450, "velocity": 115}, {"time": 164560, "pitch": 47, "duration": 90, "velocity": 66}, {"time": 164640, "pitch": 40, "duration": 420, "velocity": 80}, {"time": 164640, "pitch": 52, "duration": 520, "velocity": 81}, {"time": 164640, "pitch": 59, "duration": 410, "velocity": 117}, {"time": 164640, "pitch": 64, "duration": 440, "velocity": 101}, {"time": 164640, "pitch": 68, "duration": 440, "velocity": 105}, {"time": 165040, "pitch": 47, "duration": 80, "velocity": 64}, {"time": 165120, "pitch": 40, "duration": 430, "velocity": 78}, {"time": 165120, "pitch": 59, "duration": 110, "velocity": 120}, {"time": 165120, "pitch": 64, "duration": 120, "velocity": 98}, {"time": 165120, "pitch": 68, "duration": 140, "velocity": 107}, {"time": 165270, "pitch": 64, "duration": 290, "velocity": 112}, {"time": 165280, "pitch": 52, "duration": 270, "velocity": 79}, {"time": 165280, "pitch": 68, "duration": 280, "velocity": 100}, {"time": 165280, "pitch": 71, "duration": 290, "velocity": 110}, {"time": 165540, "pitch": 47, "duration": 70, "velocity": 66}, {"time": 165600, "pitch": 39, "duration": 990, "velocity": 74}, {"time": 165600, "pitch": 51, "duration": 190, "velocity": 69}, {"time": 165600, "pitch": 63, "duration": 340, "velocity": 104}, {"time": 165600, "pitch": 71, "duration": 360, "velocity": 108}, {"time": 165610, "pitch": 66, "duration": 340, "velocity": 112}, {"time": 165840, "pitch": 51, "duration": 180, "velocity": 74}, {"time": 166000, "pitch": 66, "duration": 180, "velocity": 123}, {"time": 166000, "pitch": 71, "duration": 200, "velocity": 104}, {"time": 166000, "pitch": 75, "duration": 200, "velocity": 119}, {"time": 166080, "pitch": 51, "duration": 180, "velocity": 74}, {"time": 166240, "pitch": 71, "duration": 280, "velocity": 112}, {"time": 166240, "pitch": 78, "duration": 310, "velocity": 114}, {"time": 166250, "pitch": 75, "duration": 290, "velocity": 114}, {"time": 166320, "pitch": 51, "duration": 180, "velocity": 75}, {"time": 166490, "pitch": 44, "duration": 70, "velocity": 55}, {"time": 166560, "pitch": 37, "duration": 830, "velocity": 81}, {"time": 166560, "pitch": 49, "duration": 180, "velocity": 85}, {"time": 166560, "pitch": 64, "duration": 400, "velocity": 121}, {"time": 166560, "pitch": 68, "duration": 380, "velocity": 101}, {"time": 166560, "pitch": 73, "duration": 390, "velocity": 112}, {"time": 166800, "pitch": 49, "duration": 170, "velocity": 77}, {"time": 166960, "pitch": 56, "duration": 230, "velocity": 121}, {"time": 167040, "pitch": 49, "duration": 180, "velocity": 80}, {"time": 167200, "pitch": 68, "duration": 300, "velocity": 117}, {"time": 167200, "pitch": 73, "duration": 330, "velocity": 114}, {"time": 167200, "pitch": 76, "duration": 280, "velocity": 112}, {"time": 167280, "pitch": 49, "duration": 60, "velocity": 80}, {"time": 167520, "pitch": 35, "duration": 880, "velocity": 85}, {"time": 167520, "pitch": 47, "duration": 190, "velocity": 87}, {"time": 167520, "pitch": 68, "duration": 390, "velocity": 112}, {"time": 167520, "pitch": 71, "duration": 410, "velocity": 125}, {"time": 167520, "pitch": 75, "duration": 410, "velocity": 106}, {"time": 167760, "pitch": 47, "duration": 140, "velocity": 84}, {"time": 167920, "pitch": 66, "duration": 200, "velocity": 119}, {"time": 168000, "pitch": 47, "duration": 170, "velocity": 84}, {"time": 168160, "pitch": 66, "duration": 290, "velocity": 96}, {"time": 168160, "pitch": 71, "duration": 320, "velocity": 121}, {"time": 168160, "pitch": 75, "duration": 300, "velocity": 97}, {"time": 168240, "pitch": 47, "duration": 150, "velocity": 73}, {"time": 168400, "pitch": 45, "duration": 50, "velocity": 80}, {"time": 168480, "pitch": 33, "duration": 850, "velocity": 81}, {"time": 168480, "pitch": 45, "duration": 190, "velocity": 85}, {"time": 168480, "pitch": 64, "duration": 420, "velocity": 121}, {"time": 168480, "pitch": 69, "duration": 430, "velocity": 113}, {"time": 168480, "pitch": 73, "duration": 450, "velocity": 102}, {"time": 168720, "pitch": 45, "duration": 190, "velocity": 77}, {"time": 168960, "pitch": 45, "duration": 210, "velocity": 73}, {"time": 168960, "pitch": 69, "duration": 330, "velocity": 103}, {"time": 168960, "pitch": 73, "duration": 350, "velocity": 104}, {"time": 168960, "pitch": 76, "duration": 310, "velocity": 119}, {"time": 169200, "pitch": 45, "duration": 100, "velocity": 85}, {"time": 169360, "pitch": 68, "duration": 530, "velocity": 118}, {"time": 169360, "pitch": 71, "duration": 530, "velocity": 117}, {"time": 169360, "pitch": 76, "duration": 540, "velocity": 124}, {"time": 169440, "pitch": 32, "duration": 750, "velocity": 88}, {"time": 169440, "pitch": 44, "duration": 140, "velocity": 84}, {"time": 169680, "pitch": 44, "duration": 140, "velocity": 83}, {"time": 169920, "pitch": 44, "duration": 160, "velocity": 82}, {"time": 169920, "pitch": 64, "duration": 400, "velocity": 98}, {"time": 169920, "pitch": 68, "duration": 400, "velocity": 115}, {"time": 169920, "pitch": 71, "duration": 400, "velocity": 119}, {"time": 170160, "pitch": 44, "duration": 90, "velocity": 76}, {"time": 170320, "pitch": 32, "duration": 30, "velocity": 80}, {"time": 170320, "pitch": 44, "duration": 20, "velocity": 80}, {"time": 170400, "pitch": 30, "duration": 790, "velocity": 89}, {"time": 170400, "pitch": 42, "duration": 180, "velocity": 92}, {"time": 170400, "pitch": 69, "duration": 920, "velocity": 116}, {"time": 170400, "pitch": 73, "duration": 920, "velocity": 106}, {"time": 170400, "pitch": 76, "duration": 920, "velocity": 116}, {"time": 170640, "pitch": 42, "duration": 180, "velocity": 87}, {"time": 170880, "pitch": 42, "duration": 190, "velocity": 86}, {"time": 171120, "pitch": 42, "duration": 80, "velocity": 87}, {"time": 171360, "pitch": 35, "duration": 210, "velocity": 91}, {"time": 171360, "pitch": 47, "duration": 190, "velocity": 90}, {"time": 171360, "pitch": 57, "duration": 190, "velocity": 116}, {"time": 171360, "pitch": 61, "duration": 170, "velocity": 115}, {"time": 171360, "pitch": 64, "duration": 180, "velocity": 110}, {"time": 171600, "pitch": 35, "duration": 60, "velocity": 68}, {"time": 171600, "pitch": 47, "duration": 70, "velocity": 78}, {"time": 171600, "pitch": 57, "duration": 110, "velocity": 111}, {"time": 171600, "pitch": 61, "duration": 90, "velocity": 112}, {"time": 171600, "pitch": 64, "duration": 100, "velocity": 111}, {"time": 172320, "pitch": 34, "duration": 960, "velocity": 77}, {"time": 172320, "pitch": 46, "duration": 190, "velocity": 89}, {"time": 172320, "pitch": 64, "duration": 290, "velocity": 109}, {"time": 172320, "pitch": 68, "duration": 200, "velocity": 109}, {"time": 172320, "pitch": 73, "duration": 200, "velocity": 114}, {"time": 172560, "pitch": 46, "duration": 160, "velocity": 90}, {"time": 172560, "pitch": 68, "duration": 220, "velocity": 99}, {"time": 172800, "pitch": 46, "duration": 190, "velocity": 85}, {"time": 172800, "pitch": 64, "duration": 110, "velocity": 101}, {"time": 172800, "pitch": 66, "duration": 150, "velocity": 114}, {"time": 172800, "pitch": 73, "duration": 370, "velocity": 86}, {"time": 172960, "pitch": 64, "duration": 200, "velocity": 102}, {"time": 173040, "pitch": 46, "duration": 170, "velocity": 91}, {"time": 173200, "pitch": 64, "duration": 430, "velocity": 104}, {"time": 173200, "pitch": 69, "duration": 430, "velocity": 98}, {"time": 173200, "pitch": 72, "duration": 450, "velocity": 112}, {"time": 173280, "pitch": 33, "duration": 880, "velocity": 80}, {"time": 173280, "pitch": 45, "duration": 190, "velocity": 86}, {"time": 173520, "pitch": 45, "duration": 180, "velocity": 90}, {"time": 173680, "pitch": 64, "duration": 400, "velocity": 91}, {"time": 173680, "pitch": 66, "duration": 410, "velocity": 112}, {"time": 173760, "pitch": 45, "duration": 210, "velocity": 88}, {"time": 174000, "pitch": 45, "duration": 170, "velocity": 80}, {"time": 174170, "pitch": 32, "duration": 500, "velocity": 75}, {"time": 174240, "pitch": 44, "duration": 180, "velocity": 85}, {"time": 174240, "pitch": 64, "duration": 190, "velocity": 104}, {"time": 174240, "pitch": 68, "duration": 180, "velocity": 110}, {"time": 174240, "pitch": 71, "duration": 230, "velocity": 115}, {"time": 174480, "pitch": 44, "duration": 200, "velocity": 82}, {"time": 174480, "pitch": 64, "duration": 210, "velocity": 92}, {"time": 174480, "pitch": 68, "duration": 230, "velocity": 111}, {"time": 174720, "pitch": 32, "duration": 430, "velocity": 63}, {"time": 174720, "pitch": 44, "duration": 190, "velocity": 83}, {"time": 174720, "pitch": 66, "duration": 170, "velocity": 106}, {"time": 174720, "pitch": 71, "duration": 380, "velocity": 98}, {"time": 174880, "pitch": 64, "duration": 170, "velocity": 112}, {"time": 174960, "pitch": 44, "duration": 180, "velocity": 83}, {"time": 175120, "pitch": 67, "duration": 410, "velocity": 111}, {"time": 175120, "pitch": 70, "duration": 420, "velocity": 100}, {"time": 175120, "pitch": 73, "duration": 420, "velocity": 98}, {"time": 175120, "pitch": 76, "duration": 410, "velocity": 106}, {"time": 175200, "pitch": 31, "duration": 420, "velocity": 72}, {"time": 175200, "pitch": 43, "duration": 170, "velocity": 82}, {"time": 175440, "pitch": 43, "duration": 190, "velocity": 84}, {"time": 175600, "pitch": 70, "duration": 450, "velocity": 114}, {"time": 175600, "pitch": 73, "duration": 440, "velocity": 98}, {"time": 175600, "pitch": 78, "duration": 440, "velocity": 114}, {"time": 175680, "pitch": 31, "duration": 390, "velocity": 69}, {"time": 175680, "pitch": 43, "duration": 170, "velocity": 81}, {"time": 175920, "pitch": 43, "duration": 180, "velocity": 80}, {"time": 176160, "pitch": 30, "duration": 130, "velocity": 91}, {"time": 176160, "pitch": 42, "duration": 140, "velocity": 93}, {"time": 176160, "pitch": 61, "duration": 110, "velocity": 107}, {"time": 176160, "pitch": 64, "duration": 120, "velocity": 92}, {"time": 176160, "pitch": 69, "duration": 120, "velocity": 106}, {"time": 176320, "pitch": 32, "duration": 70, "velocity": 82}, {"time": 176320, "pitch": 44, "duration": 70, "velocity": 93}, {"time": 176320, "pitch": 59, "duration": 50, "velocity": 96}, {"time": 176320, "pitch": 63, "duration": 50, "velocity": 94}, {"time": 176320, "pitch": 68, "duration": 50, "velocity": 104}, {"time": 176400, "pitch": 33, "duration": 100, "velocity": 86}, {"time": 176400, "pitch": 45, "duration": 110, "velocity": 86}, {"time": 176400, "pitch": 57, "duration": 70, "velocity": 103}, {"time": 176400, "pitch": 61, "duration": 80, "velocity": 107}, {"time": 176400, "pitch": 66, "duration": 80, "velocity": 94}, {"time": 176800, "pitch": 35, "duration": 3180, "velocity": 95}, {"time": 176800, "pitch": 47, "duration": 3180, "velocity": 87}, {"time": 176800, "pitch": 57, "duration": 3180, "velocity": 99}, {"time": 176800, "pitch": 61, "duration": 3180, "velocity": 100}, {"time": 176800, "pitch": 64, "duration": 3180, "velocity": 102}], "annotations": [{"time": 960, "annotation": {"number": 0, "value": 0}, "group": "control_change"}, {"time": 970, "annotation": {"number": 32, "value": 0}, "group": "control_change"}, {"time": 990, "annotation": {"number": 7, "value": 120}, "group": "control_change"}, {"time": 1000, "annotation": {"number": 11, "value": 110}, "group": "control_change"}, {"time": 1010, "annotation": {"number": 10, "value": 70}, "group": "control_change"}, {"time": 1020, "annotation": {"number": 91, "value": 85}, "group": "control_change"}, {"time": 1030, "annotation": {"number": 93, "value": 8}, "group": "control_change"}, {"time": 1040, "annotation": {"number": 101, "value": 0}, "group": "control_change"}, {"time": 1050, "annotation": {"number": 100, "value": 0}, "group": "control_change"}, {"time": 1060, "annotation": {"number": 6, "value": 12}, "group": "control_change"}, {"time": 1070, "annotation": {"number": 101, "value": 127}, "group": "control_change"}, {"time": 1080, "annotation": {"number": 100, "value": 127}, "group": "control_change"}, {"time": 2490, "annotation": {"number": 64, "value": 127}, "group": "control_change"}, {"time": 3380, "annotation": {"number": 64, "value": 0}, "group": "control_change"}, {"time": 3470, "annotation": {"number": 64, "value": 127}, "group": "control_change"}, {"time": 4290, "annotation": {"number": 64, "value": 0}, "group": "control_change"}, {"time": 4390, "annotation": {"number": 64, "value": 127}, "group": "control_change"}, {"time": 5290, "annotation": {"number": 64, "value": 0}, "group": "control_change"}, {"time": 5680, "annotation": {"number": 64, "value": 127}, "group": "control_change"}, {"time": 6000, "annotation": {"number": 64, "value": 0}, "group": "control_change"}, {"time": 6370, "annotation": {"number": 64, "value": 127}, "group": "control_change"}, {"time": 7180, "annotation": {"number": 64, "value": 0}, "group": "control_change"}, {"time": 7320, "annotation": {"number": 64, "value": 127}, "group": "control_change"}, {"time": 8120, "annotation": {"number": 64, "value": 0}, "group": "control_change"}, {"time": 8240, "annotation": {"number": 64, "value": 127}, "group": "control_change"}, {"time": 9090, "annotation": {"number": 64, "value": 0}, "group": "control_change"}, {"time": 9200, "annotation": {"number": 64, "value": 127}, "group": "control_change"}, {"time": 10060, "annotation": {"number": 64, "value": 0}, "group": "control_change"}, {"time": 10180, "annotation": {"number": 64, "value": 127}, "group": "control_change"}, {"time": 11000, "annotation": {"number": 64, "value": 0}, "group": "control_change"}, {"time": 11110, "annotation": {"number": 64, "value": 127}, "group": "control_change"}, {"time": 11960, "annotation": {"number": 64, "value": 0}, "group": "control_change"}, {"time": 12070, "annotation": {"number": 64, "value": 127}, "group": "control_change"}, {"time": 12950, "annotation": {"number": 64, "value": 0}, "group": "control_change"}, {"time": 13070, "annotation": {"number": 64, "value": 127}, "group": "control_change"}, {"time": 13890, "annotation": {"number": 64, "value": 0}, "group": "control_change"}, {"time": 14010, "annotation": {"number": 64, "value": 127}, "group": "control_change"}, {"time": 14820, "annotation": {"number": 64, "value": 0}, "group": "control_change"}, {"time": 14920, "annotation": {"number": 64, "value": 127}, "group": "control_change"}, {"time": 15780, "annotation": {"number": 64, "value": 0}, "group": "control_change"}, {"time": 15880, "annotation": {"number": 64, "value": 127}, "group": "control_change"}, {"time": 16730, "annotation": {"number": 64, "value": 0}, "group": "control_change"}, {"time": 16820, "annotation": {"number": 64, "value": 127}, "group": "control_change"}, {"time": 17210, "annotation": {"number": 64, "value": 0}, "group": "control_change"}, {"time": 17330, "annotation": {"number": 64, "value": 127}, "group": "control_change"}, {"time": 17700, "annotation": {"number": 64, "value": 0}, "group": "control_change"}, {"time": 17860, "annotation": {"number": 64, "value": 127}, "group": "control_change"}, {"time": 18650, "annotation": {"number": 64, "value": 0}, "group": "control_change"}, {"time": 18780, "annotation": {"number": 64, "value": 127}, "group": "control_change"}, {"time": 19690, "annotation": {"number": 64, "value": 0}, "group": "control_change"}, {"time": 19800, "annotation": {"number": 64, "value": 127}, "group": "control_change"}, {"time": 20610, "annotation": {"number": 64, "value": 0}, "group": "control_change"}, {"time": 20730, "annotation": {"number": 64, "value": 127}, "group": "control_change"}, {"time": 21520, "annotation": {"number": 64, "value": 0}, "group": "control_change"}, {"time": 21650, "annotation": {"number": 64, "value": 127}, "group": "control_change"}, {"time": 22520, "annotation": {"number": 64, "value": 0}, "group": "control_change"}, {"time": 22630, "annotation": {"number": 64, "value": 127}, "group": "control_change"}, {"time": 23520, "annotation": {"number": 64, "value": 0}, "group": "control_change"}, {"time": 23640, "annotation": {"number": 64, "value": 127}, "group": "control_change"}, {"time": 24400, "annotation": {"number": 64, "value": 0}, "group": "control_change"}, {"time": 24480, "annotation": {"number": 64, "value": 127}, "group": "control_change"}, {"time": 24740, "annotation": {"number": 64, "value": 0}, "group": "control_change"}, {"time": 25510, "annotation": {"number": 64, "value": 127}, "group": "control_change"}, {"time": 26380, "annotation": {"number": 64, "value": 0}, "group": "control_change"}, {"time": 26480, "annotation": {"number": 64, "value": 127}, "group": "control_change"}, {"time": 26890, "annotation": {"number": 64, "value": 0}, "group": "control_change"}, {"time": 27020, "annotation": {"number": 64, "value": 127}, "group": "control_change"}, {"time": 27300, "annotation": {"number": 64, "value": 0}, "group": "control_change"}, {"time": 27380, "annotation": {"number": 64, "value": 127}, "group": "control_change"}, {"time": 27600, "annotation": {"number": 64, "value": 0}, "group": "control_change"}, {"time": 28090, "annotation": {"number": 64, "value": 127}, "group": "control_change"}, {"time": 28320, "annotation": {"number": 64, "value": 0}, "group": "control_change"}, {"time": 28450, "annotation": {"number": 64, "value": 127}, "group": "control_change"}, {"time": 29230, "annotation": {"number": 64, "value": 0}, "group": "control_change"}, {"time": 29360, "annotation": {"number": 64, "value": 127}, "group": "control_change"}, {"time": 30240, "annotation": {"number": 64, "value": 0}, "group": "control_change"}, {"time": 30470, "annotation": {"number": 64, "value": 127}, "group": "control_change"}, {"time": 31200, "annotation": {"number": 64, "value": 0}, "group": "control_change"}, {"time": 31320, "annotation": {"number": 64, "value": 127}, "group": "control_change"}, {"time": 31690, "annotation": {"number": 64, "value": 0}, "group": "control_change"}, {"time": 31790, "annotation": {"number": 64, "value": 127}, "group": "control_change"}, {"time": 32140, "annotation": {"number": 64, "value": 0}, "group": "control_change"}, {"time": 32240, "annotation": {"number": 64, "value": 127}, "group": "control_change"}, {"time": 33100, "annotation": {"number": 64, "value": 0}, "group": "control_change"}, {"time": 33230, "annotation": {"number": 64, "value": 127}, "group": "control_change"}, {"time": 34070, "annotation": {"number": 64, "value": 0}, "group": "control_change"}, {"time": 34180, "annotation": {"number": 64, "value": 127}, "group": "control_change"}, {"time": 35020, "annotation": {"number": 64, "value": 0}, "group": "control_change"}, {"time": 35150, "annotation": {"number": 64, "value": 127}, "group": "control_change"}, {"time": 35480, "annotation": {"number": 64, "value": 0}, "group": "control_change"}, {"time": 35620, "annotation": {"number": 64, "value": 127}, "group": "control_change"}, {"time": 35990, "annotation": {"number": 64, "value": 0}, "group": "control_change"}, {"time": 36110, "annotation": {"number": 64, "value": 127}, "group": "control_change"}, {"time": 36950, "annotation": {"number": 64, "value": 0}, "group": "control_change"}, {"time": 37050, "annotation": {"number": 64, "value": 127}, "group": "control_change"}, {"time": 37910, "annotation": {"number": 64, "value": 0}, "group": "control_change"}, {"time": 38030, "annotation": {"number": 64, "value": 127}, "group": "control_change"}, {"time": 38840, "annotation": {"number": 64, "value": 0}, "group": "control_change"}, {"time": 38940, "annotation": {"number": 64, "value": 127}, "group": "control_change"}, {"time": 39810, "annotation": {"number": 64, "value": 0}, "group": "control_change"}, {"time": 39940, "annotation": {"number": 64, "value": 127}, "group": "control_change"}, {"time": 40570, "annotation": {"number": 64, "value": 0}, "group": "control_change"}, {"time": 40760, "annotation": {"number": 64, "value": 127}, "group": "control_change"}, {"time": 40870, "annotation": {"number": 64, "value": 0}, "group": "control_change"}, {"time": 40980, "annotation": {"number": 64, "value": 127}, "group": "control_change"}, {"time": 41300, "annotation": {"number": 64, "value": 0}, "group": "control_change"}, {"time": 41400, "annotation": {"number": 64, "value": 127}, "group": "control_change"}, {"time": 41730, "annotation": {"number": 64, "value": 0}, "group": "control_change"}, {"time": 41840, "annotation": {"number": 64, "value": 127}, "group": "control_change"}, {"time": 42720, "annotation": {"number": 64, "value": 0}, "group": "control_change"}, {"time": 42830, "annotation": {"number": 64, "value": 127}, "group": "control_change"}, {"time": 43130, "annotation": {"number": 64, "value": 0}, "group": "control_change"}, {"time": 43270, "annotation": {"number": 64, "value": 127}, "group": "control_change"}, {"time": 43620, "annotation": {"number": 64, "value": 0}, "group": "control_change"}, {"time": 43760, "annotation": {"number": 64, "value": 127}, "group": "control_change"}, {"time": 44570, "annotation": {"number": 64, "value": 0}, "group": "control_change"}, {"time": 44680, "annotation": {"number": 64, "value": 127}, "group": "control_change"}, {"time": 45520, "annotation": {"number": 64, "value": 0}, "group": "control_change"}, {"time": 45680, "annotation": {"number": 64, "value": 127}, "group": "control_change"}, {"time": 46550, "annotation": {"number": 64, "value": 0}, "group": "control_change"}, {"time": 46660, "annotation": {"number": 64, "value": 127}, "group": "control_change"}, {"time": 47540, "annotation": {"number": 64, "value": 0}, "group": "control_change"}, {"time": 47670, "annotation": {"number": 64, "value": 127}, "group": "control_change"}, {"time": 48440, "annotation": {"number": 64, "value": 0}, "group": "control_change"}, {"time": 48550, "annotation": {"number": 64, "value": 127}, "group": "control_change"}, {"time": 49430, "annotation": {"number": 64, "value": 0}, "group": "control_change"}, {"time": 49540, "annotation": {"number": 64, "value": 127}, "group": "control_change"}, {"time": 50370, "annotation": {"number": 64, "value": 0}, "group": "control_change"}, {"time": 50490, "annotation": {"number": 64, "value": 127}, "group": "control_change"}, {"time": 50880, "annotation": {"number": 64, "value": 0}, "group": "control_change"}, {"time": 50990, "annotation": {"number": 64, "value": 127}, "group": "control_change"}, {"time": 51330, "annotation": {"number": 64, "value": 0}, "group": "control_change"}, {"time": 51460, "annotation": {"number": 64, "value": 127}, "group": "control_change"}, {"time": 52250, "annotation": {"number": 64, "value": 0}, "group": "control_change"}, {"time": 52380, "annotation": {"number": 64, "value": 127}, "group": "control_change"}, {"time": 53260, "annotation": {"number": 64, "value": 0}, "group": "control_change"}, {"time": 53390, "annotation": {"number": 64, "value": 127}, "group": "control_change"}, {"time": 54230, "annotation": {"number": 64, "value": 0}, "group": "control_change"}, {"time": 54340, "annotation": {"number": 64, "value": 127}, "group": "control_change"}, {"time": 55160, "annotation": {"number": 64, "value": 0}, "group": "control_change"}, {"time": 55290, "annotation": {"number": 64, "value": 127}, "group": "control_change"}, {"time": 56100, "annotation": {"number": 64, "value": 0}, "group": "control_change"}, {"time": 56220, "annotation": {"number": 64, "value": 127}, "group": "control_change"}, {"time": 57080, "annotation": {"number": 64, "value": 0}, "group": "control_change"}, {"time": 57190, "annotation": {"number": 64, "value": 127}, "group": "control_change"}, {"time": 58010, "annotation": {"number": 64, "value": 0}, "group": "control_change"}, {"time": 58100, "annotation": {"number": 64, "value": 127}, "group": "control_change"}, {"time": 58340, "annotation": {"number": 64, "value": 0}, "group": "control_change"}, {"time": 59110, "annotation": {"number": 64, "value": 127}, "group": "control_change"}, {"time": 59950, "annotation": {"number": 64, "value": 0}, "group": "control_change"}, {"time": 60050, "annotation": {"number": 64, "value": 127}, "group": "control_change"}, {"time": 60490, "annotation": {"number": 64, "value": 0}, "group": "control_change"}, {"time": 60610, "annotation": {"number": 64, "value": 127}, "group": "control_change"}, {"time": 60890, "annotation": {"number": 64, "value": 0}, "group": "control_change"}, {"time": 60970, "annotation": {"number": 64, "value": 127}, "group": "control_change"}, {"time": 61240, "annotation": {"number": 64, "value": 0}, "group": "control_change"}, {"time": 61710, "annotation": {"number": 64, "value": 127}, "group": "control_change"}, {"time": 61930, "annotation": {"number": 64, "value": 0}, "group": "control_change"}, {"time": 62050, "annotation": {"number": 64, "value": 127}, "group": "control_change"}, {"time": 62830, "annotation": {"number": 64, "value": 0}, "group": "control_change"}, {"time": 62980, "annotation": {"number": 64, "value": 127}, "group": "control_change"}, {"time": 63830, "annotation": {"number": 64, "value": 0}, "group": "control_change"}, {"time": 63930, "annotation": {"number": 64, "value": 127}, "group": "control_change"}, {"time": 64800, "annotation": {"number": 64, "value": 0}, "group": "control_change"}, {"time": 64900, "annotation": {"number": 64, "value": 127}, "group": "control_change"}, {"time": 65740, "annotation": {"number": 64, "value": 0}, "group": "control_change"}, {"time": 65860, "annotation": {"number": 64, "value": 127}, "group": "control_change"}, {"time": 66680, "annotation": {"number": 64, "value": 0}, "group": "control_change"}, {"time": 66780, "annotation": {"number": 64, "value": 127}, "group": "control_change"}, {"time": 67150, "annotation": {"number": 64, "value": 0}, "group": "control_change"}, {"time": 67220, "annotation": {"number": 64, "value": 127}, "group": "control_change"}, {"time": 67630, "annotation": {"number": 64, "value": 0}, "group": "control_change"}, {"time": 67710, "annotation": {"number": 64, "value": 127}, "group": "control_change"}, {"time": 68670, "annotation": {"number": 64, "value": 0}, "group": "control_change"}, {"time": 68760, "annotation": {"number": 64, "value": 127}, "group": "control_change"}, {"time": 69130, "annotation": {"number": 64, "value": 0}, "group": "control_change"}, {"time": 69240, "annotation": {"number": 64, "value": 127}, "group": "control_change"}, {"time": 69570, "annotation": {"number": 64, "value": 0}, "group": "control_change"}, {"time": 69690, "annotation": {"number": 64, "value": 127}, "group": "control_change"}, {"time": 70520, "annotation": {"number": 64, "value": 0}, "group": "control_change"}, {"time": 70630, "annotation": {"number": 64, "value": 127}, "group": "control_change"}, {"time": 71490, "annotation": {"number": 64, "value": 0}, "group": "control_change"}, {"time": 71600, "annotation": {"number": 64, "value": 127}, "group": "control_change"}, {"time": 72420, "annotation": {"number": 64, "value": 0}, "group": "control_change"}, {"time": 72510, "annotation": {"number": 64, "value": 127}, "group": "control_change"}, {"time": 73400, "annotation": {"number": 64, "value": 0}, "group": "control_change"}, {"time": 73520, "annotation": {"number": 64, "value": 127}, "group": "control_change"}, {"time": 74140, "annotation": {"number": 64, "value": 0}, "group": "control_change"}, {"time": 74230, "annotation": {"number": 64, "value": 127}, "group": "control_change"}, {"time": 74370, "annotation": {"number": 64, "value": 0}, "group": "control_change"}, {"time": 74440, "annotation": {"number": 64, "value": 127}, "group": "control_change"}, {"time": 74830, "annotation": {"number": 64, "value": 0}, "group": "control_change"}, {"time": 74910, "annotation": {"number": 64, "value": 127}, "group": "control_change"}, {"time": 75290, "annotation": {"number": 64, "value": 0}, "group": "control_change"}, {"time": 75390, "annotation": {"number": 64, "value": 127}, "group": "control_change"}, {"time": 76310, "annotation": {"number": 64, "value": 0}, "group": "control_change"}, {"time": 76410, "annotation": {"number": 64, "value": 127}, "group": "control_change"}, {"time": 76760, "annotation": {"number": 64, "value": 0}, "group": "control_change"}, {"time": 76870, "annotation": {"number": 64, "value": 127}, "group": "control_change"}, {"time": 77250, "annotation": {"number": 64, "value": 0}, "group": "control_change"}, {"time": 77400, "annotation": {"number": 64, "value": 127}, "group": "control_change"}, {"time": 78170, "annotation": {"number": 64, "value": 0}, "group": "control_change"}, {"time": 78280, "annotation": {"number": 64, "value": 127}, "group": "control_change"}, {"time": 78780, "annotation": {"number": 64, "value": 0}, "group": "control_change"}, {"time": 79050, "annotation": {"number": 64, "value": 127}, "group": "control_change"}, {"time": 79150, "annotation": {"number": 64, "value": 0}, "group": "control_change"}, {"time": 79270, "annotation": {"number": 64, "value": 127}, "group": "control_change"}, {"time": 80120, "annotation": {"number": 64, "value": 0}, "group": "control_change"}, {"time": 80240, "annotation": {"number": 64, "value": 127}, "group": "control_change"}, {"time": 81110, "annotation": {"number": 64, "value": 0}, "group": "control_change"}, {"time": 81210, "annotation": {"number": 64, "value": 127}, "group": "control_change"}, {"time": 82020, "annotation": {"number": 64, "value": 0}, "group": "control_change"}, {"time": 82120, "annotation": {"number": 64, "value": 127}, "group": "control_change"}, {"time": 83000, "annotation": {"number": 64, "value": 0}, "group": "control_change"}, {"time": 83100, "annotation": {"number": 64, "value": 127}, "group": "control_change"}, {"time": 83970, "annotation": {"number": 64, "value": 0}, "group": "control_change"}, {"time": 84090, "annotation": {"number": 64, "value": 127}, "group": "control_change"}, {"time": 84430, "annotation": {"number": 64, "value": 0}, "group": "control_change"}, {"time": 84560, "annotation": {"number": 64, "value": 127}, "group": "control_change"}, {"time": 84900, "annotation": {"number": 64, "value": 0}, "group": "control_change"}, {"time": 85080, "annotation": {"number": 64, "value": 127}, "group": "control_change"}, {"time": 85900, "annotation": {"number": 64, "value": 0}, "group": "control_change"}, {"time": 86010, "annotation": {"number": 64, "value": 127}, "group": "control_change"}, {"time": 86840, "annotation": {"number": 64, "value": 0}, "group": "control_change"}, {"time": 86940, "annotation": {"number": 64, "value": 127}, "group": "control_change"}, {"time": 87790, "annotation": {"number": 64, "value": 0}, "group": "control_change"}, {"time": 87890, "annotation": {"number": 64, "value": 127}, "group": "control_change"}, {"time": 88320, "annotation": {"number": 64, "value": 0}, "group": "control_change"}, {"time": 88420, "annotation": {"number": 64, "value": 127}, "group": "control_change"}, {"time": 88740, "annotation": {"number": 64, "value": 0}, "group": "control_change"}, {"time": 88830, "annotation": {"number": 64, "value": 127}, "group": "control_change"}, {"time": 89730, "annotation": {"number": 64, "value": 0}, "group": "control_change"}, {"time": 89830, "annotation": {"number": 64, "value": 127}, "group": "control_change"}, {"time": 90710, "annotation": {"number": 64, "value": 0}, "group": "control_change"}, {"time": 90820, "annotation": {"number": 64, "value": 127}, "group": "control_change"}, {"time": 91600, "annotation": {"number": 64, "value": 0}, "group": "control_change"}, {"time": 91680, "annotation": {"number": 64, "value": 127}, "group": "control_change"}, {"time": 91940, "annotation": {"number": 64, "value": 0}, "group": "control_change"}, {"time": 92630, "annotation": {"number": 64, "value": 127}, "group": "control_change"}, {"time": 93550, "annotation": {"number": 64, "value": 0}, "group": "control_change"}, {"time": 93650, "annotation": {"number": 64, "value": 127}, "group": "control_change"}, {"time": 94090, "annotation": {"number": 64, "value": 0}, "group": "control_change"}, {"time": 94190, "annotation": {"number": 64, "value": 127}, "group": "control_change"}, {"time": 94490, "annotation": {"number": 64, "value": 0}, "group": "control_change"}, {"time": 94560, "annotation": {"number": 64, "value": 127}, "group": "control_change"}, {"time": 94860, "annotation": {"number": 64, "value": 0}, "group": "control_change"}, {"time": 95200, "annotation": {"number": 91, "value": 120}, "group": "control_change"}, {"time": 95290, "annotation": {"number": 64, "value": 127}, "group": "control_change"}, {"time": 95500, "annotation": {"number": 64, "value": 0}, "group": "control_change"}, {"time": 95700, "annotation": {"number": 64, "value": 127}, "group": "control_change"}, {"time": 97350, "annotation": {"number": 64, "value": 0}, "group": "control_change"}, {"time": 97570, "annotation": {"number": 64, "value": 127}, "group": "control_change"}, {"time": 99190, "annotation": {"number": 64, "value": 0}, "group": "control_change"}, {"time": 99380, "annotation": {"number": 64, "value": 127}, "group": "control_change"}, {"time": 100520, "annotation": {"number": 64, "value": 0}, "group": "control_change"}, {"time": 100700, "annotation": {"number": 64, "value": 127}, "group": "control_change"}, {"time": 101180, "annotation": {"number": 64, "value": 0}, "group": "control_change"}, {"time": 101430, "annotation": {"number": 64, "value": 127}, "group": "control_change"}, {"time": 102100, "annotation": {"number": 64, "value": 0}, "group": "control_change"}, {"time": 102260, "annotation": {"number": 64, "value": 127}, "group": "control_change"}, {"time": 103150, "annotation": {"number": 64, "value": 0}, "group": "control_change"}, {"time": 103340, "annotation": {"number": 64, "value": 127}, "group": "control_change"}, {"time": 103920, "annotation": {"number": 64, "value": 0}, "group": "control_change"}, {"time": 104110, "annotation": {"number": 64, "value": 127}, "group": "control_change"}, {"time": 105090, "annotation": {"number": 64, "value": 0}, "group": "control_change"}, {"time": 105170, "annotation": {"number": 64, "value": 127}, "group": "control_change"}, {"time": 105870, "annotation": {"number": 64, "value": 0}, "group": "control_change"}, {"time": 106070, "annotation": {"number": 64, "value": 127}, "group": "control_change"}, {"time": 106860, "annotation": {"number": 64, "value": 0}, "group": "control_change"}, {"time": 107050, "annotation": {"number": 64, "value": 127}, "group": "control_change"}, {"time": 108840, "annotation": {"number": 64, "value": 0}, "group": "control_change"}, {"time": 109030, "annotation": {"number": 64, "value": 127}, "group": "control_change"}, {"time": 109950, "annotation": {"number": 64, "value": 0}, "group": "control_change"}, {"time": 110160, "annotation": {"number": 64, "value": 127}, "group": "control_change"}, {"time": 110790, "annotation": {"number": 64, "value": 0}, "group": "control_change"}, {"time": 111000, "annotation": {"number": 64, "value": 127}, "group": "control_change"}, {"time": 112640, "annotation": {"number": 64, "value": 0}, "group": "control_change"}, {"time": 112860, "annotation": {"number": 64, "value": 127}, "group": "control_change"}, {"time": 114580, "annotation": {"number": 64, "value": 0}, "group": "control_change"}, {"time": 114800, "annotation": {"number": 64, "value": 127}, "group": "control_change"}, {"time": 115640, "annotation": {"number": 64, "value": 0}, "group": "control_change"}, {"time": 115850, "annotation": {"number": 64, "value": 127}, "group": "control_change"}, {"time": 116530, "annotation": {"number": 64, "value": 0}, "group": "control_change"}, {"time": 116740, "annotation": {"number": 64, "value": 127}, "group": "control_change"}, {"time": 117280, "annotation": {"number": 64, "value": 0}, "group": "control_change"}, {"time": 117480, "annotation": {"number": 64, "value": 127}, "group": "control_change"}, {"time": 118430, "annotation": {"number": 64, "value": 0}, "group": "control_change"}, {"time": 118620, "annotation": {"number": 64, "value": 127}, "group": "control_change"}, {"time": 120410, "annotation": {"number": 64, "value": 0}, "group": "control_change"}, {"time": 120670, "annotation": {"number": 64, "value": 127}, "group": "control_change"}, {"time": 122250, "annotation": {"number": 64, "value": 0}, "group": "control_change"}, {"time": 122470, "annotation": {"number": 64, "value": 127}, "group": "control_change"}, {"time": 124160, "annotation": {"number": 64, "value": 0}, "group": "control_change"}, {"time": 124430, "annotation": {"number": 64, "value": 127}, "group": "control_change"}, {"time": 125230, "annotation": {"number": 64, "value": 0}, "group": "control_change"}, {"time": 125400, "annotation": {"number": 64, "value": 127}, "group": "control_change"}, {"time": 126190, "annotation": {"number": 64, "value": 0}, "group": "control_change"}, {"time": 126360, "annotation": {"number": 64, "value": 127}, "group": "control_change"}, {"time": 127990, "annotation": {"number": 64, "value": 0}, "group": "control_change"}, {"time": 128170, "annotation": {"number": 64, "value": 127}, "group": "control_change"}, {"time": 129430, "annotation": {"number": 64, "value": 0}, "group": "control_change"}, {"time": 129580, "annotation": {"number": 64, "value": 127}, "group": "control_change"}, {"time": 130000, "annotation": {"number": 64, "value": 0}, "group": "control_change"}, {"time": 130150, "annotation": {"number": 64, "value": 127}, "group": "control_change"}, {"time": 130720, "annotation": {"number": 64, "value": 0}, "group": "control_change"}, {"time": 130910, "annotation": {"number": 64, "value": 127}, "group": "control_change"}, {"time": 131720, "annotation": {"number": 64, "value": 0}, "group": "control_change"}, {"time": 131960, "annotation": {"number": 64, "value": 127}, "group": "control_change"}, {"time": 132580, "annotation": {"number": 64, "value": 0}, "group": "control_change"}, {"time": 132820, "annotation": {"number": 64, "value": 127}, "group": "control_change"}, {"time": 133650, "annotation": {"number": 64, "value": 0}, "group": "control_change"}, {"time": 133920, "annotation": {"number": 91, "value": 85}, "group": "control_change"}, {"time": 133980, "annotation": {"number": 64, "value": 127}, "group": "control_change"}, {"time": 134320, "annotation": {"number": 64, "value": 0}, "group": "control_change"}, {"time": 134410, "annotation": {"number": 64, "value": 127}, "group": "control_change"}, {"time": 134800, "annotation": {"number": 64, "value": 0}, "group": "control_change"}, {"time": 134880, "annotation": {"number": 64, "value": 127}, "group": "control_change"}, {"time": 135810, "annotation": {"number": 64, "value": 0}, "group": "control_change"}, {"time": 135900, "annotation": {"number": 64, "value": 127}, "group": "control_change"}, {"time": 136720, "annotation": {"number": 64, "value": 0}, "group": "control_change"}, {"time": 136920, "annotation": {"number": 64, "value": 127}, "group": "control_change"}, {"time": 137190, "annotation": {"number": 64, "value": 0}, "group": "control_change"}, {"time": 137270, "annotation": {"number": 64, "value": 127}, "group": "control_change"}, {"time": 137660, "annotation": {"number": 64, "value": 0}, "group": "control_change"}, {"time": 137740, "annotation": {"number": 64, "value": 127}, "group": "control_change"}, {"time": 138670, "annotation": {"number": 64, "value": 0}, "group": "control_change"}, {"time": 138750, "annotation": {"number": 64, "value": 127}, "group": "control_change"}, {"time": 139620, "annotation": {"number": 64, "value": 0}, "group": "control_change"}, {"time": 139710, "annotation": {"number": 64, "value": 127}, "group": "control_change"}, {"time": 140580, "annotation": {"number": 64, "value": 0}, "group": "control_change"}, {"time": 140670, "annotation": {"number": 64, "value": 127}, "group": "control_change"}, {"time": 141500, "annotation": {"number": 64, "value": 0}, "group": "control_change"}, {"time": 141600, "annotation": {"number": 64, "value": 127}, "group": "control_change"}, {"time": 142530, "annotation": {"number": 64, "value": 0}, "group": "control_change"}, {"time": 142650, "annotation": {"number": 64, "value": 127}, "group": "control_change"}, {"time": 143490, "annotation": {"number": 64, "value": 0}, "group": "control_change"}, {"time": 143620, "annotation": {"number": 64, "value": 127}, "group": "control_change"}, {"time": 144420, "annotation": {"number": 64, "value": 0}, "group": "control_change"}, {"time": 144530, "annotation": {"number": 64, "value": 127}, "group": "control_change"}, {"time": 145430, "annotation": {"number": 64, "value": 0}, "group": "control_change"}, {"time": 145440, "annotation": {"number": 64, "value": 0}, "group": "control_change"}, {"time": 145550, "annotation": {"number": 64, "value": 127}, "group": "control_change"}, {"time": 146350, "annotation": {"number": 64, "value": 0}, "group": "control_change"}, {"time": 146440, "annotation": {"number": 64, "value": 127}, "group": "control_change"}, {"time": 147290, "annotation": {"number": 64, "value": 0}, "group": "control_change"}, {"time": 147380, "annotation": {"number": 64, "value": 127}, "group": "control_change"}, {"time": 148260, "annotation": {"number": 64, "value": 0}, "group": "control_change"}, {"time": 148350, "annotation": {"number": 64, "value": 127}, "group": "control_change"}, {"time": 148720, "annotation": {"number": 64, "value": 0}, "group": "control_change"}, {"time": 148850, "annotation": {"number": 64, "value": 127}, "group": "control_change"}, {"time": 149230, "annotation": {"number": 64, "value": 0}, "group": "control_change"}, {"time": 149360, "annotation": {"number": 64, "value": 127}, "group": "control_change"}, {"time": 150200, "annotation": {"number": 64, "value": 0}, "group": "control_change"}, {"time": 150310, "annotation": {"number": 64, "value": 127}, "group": "control_change"}, {"time": 151190, "annotation": {"number": 64, "value": 0}, "group": "control_change"}, {"time": 151300, "annotation": {"number": 64, "value": 127}, "group": "control_change"}, {"time": 152120, "annotation": {"number": 64, "value": 0}, "group": "control_change"}, {"time": 152230, "annotation": {"number": 64, "value": 127}, "group": "control_change"}, {"time": 153070, "annotation": {"number": 64, "value": 0}, "group": "control_change"}, {"time": 153200, "annotation": {"number": 64, "value": 127}, "group": "control_change"}, {"time": 154010, "annotation": {"number": 64, "value": 0}, "group": "control_change"}, {"time": 154110, "annotation": {"number": 64, "value": 127}, "group": "control_change"}, {"time": 154980, "annotation": {"number": 64, "value": 0}, "group": "control_change"}, {"time": 155080, "annotation": {"number": 64, "value": 127}, "group": "control_change"}, {"time": 155960, "annotation": {"number": 64, "value": 0}, "group": "control_change"}, {"time": 156050, "annotation": {"number": 64, "value": 127}, "group": "control_change"}, {"time": 156390, "annotation": {"number": 64, "value": 0}, "group": "control_change"}, {"time": 156480, "annotation": {"number": 64, "value": 127}, "group": "control_change"}, {"time": 156880, "annotation": {"number": 64, "value": 0}, "group": "control_change"}, {"time": 157060, "annotation": {"number": 64, "value": 127}, "group": "control_change"}, {"time": 157840, "annotation": {"number": 64, "value": 0}, "group": "control_change"}, {"time": 157950, "annotation": {"number": 64, "value": 127}, "group": "control_change"}, {"time": 158830, "annotation": {"number": 64, "value": 0}, "group": "control_change"}, {"time": 158940, "annotation": {"number": 64, "value": 127}, "group": "control_change"}, {"time": 159790, "annotation": {"number": 64, "value": 0}, "group": "control_change"}, {"time": 159900, "annotation": {"number": 64, "value": 127}, "group": "control_change"}, {"time": 160770, "annotation": {"number": 64, "value": 0}, "group": "control_change"}, {"time": 160880, "annotation": {"number": 64, "value": 127}, "group": "control_change"}, {"time": 161670, "annotation": {"number": 64, "value": 0}, "group": "control_change"}, {"time": 161750, "annotation": {"number": 64, "value": 127}, "group": "control_change"}, {"time": 162680, "annotation": {"number": 64, "value": 0}, "group": "control_change"}, {"time": 162750, "annotation": {"number": 64, "value": 127}, "group": "control_change"}, {"time": 163130, "annotation": {"number": 64, "value": 0}, "group": "control_change"}, {"time": 163220, "annotation": {"number": 64, "value": 127}, "group": "control_change"}, {"time": 163620, "annotation": {"number": 64, "value": 0}, "group": "control_change"}, {"time": 163700, "annotation": {"number": 64, "value": 127}, "group": "control_change"}, {"time": 164120, "annotation": {"number": 64, "value": 0}, "group": "control_change"}, {"time": 164210, "annotation": {"number": 64, "value": 127}, "group": "control_change"}, {"time": 164570, "annotation": {"number": 64, "value": 0}, "group": "control_change"}, {"time": 164660, "annotation": {"number": 64, "value": 127}, "group": "control_change"}, {"time": 165570, "annotation": {"number": 64, "value": 0}, "group": "control_change"}, {"time": 165670, "annotation": {"number": 64, "value": 127}, "group": "control_change"}, {"time": 166520, "annotation": {"number": 64, "value": 0}, "group": "control_change"}, {"time": 166630, "annotation": {"number": 64, "value": 127}, "group": "control_change"}, {"time": 167470, "annotation": {"number": 64, "value": 0}, "group": "control_change"}, {"time": 167580, "annotation": {"number": 64, "value": 127}, "group": "control_change"}, {"time": 168450, "annotation": {"number": 64, "value": 0}, "group": "control_change"}, {"time": 168560, "annotation": {"number": 64, "value": 127}, "group": "control_change"}, {"time": 169390, "annotation": {"number": 64, "value": 0}, "group": "control_change"}, {"time": 169490, "annotation": {"number": 64, "value": 127}, "group": "control_change"}, {"time": 170340, "annotation": {"number": 64, "value": 0}, "group": "control_change"}, {"time": 170430, "annotation": {"number": 64, "value": 127}, "group": "control_change"}, {"time": 171270, "annotation": {"number": 64, "value": 0}, "group": "control_change"}, {"time": 171350, "annotation": {"number": 64, "value": 127}, "group": "control_change"}, {"time": 171630, "annotation": {"number": 64, "value": 0}, "group": "control_change"}, {"time": 172360, "annotation": {"number": 64, "value": 127}, "group": "control_change"}, {"time": 172810, "annotation": {"number": 64, "value": 0}, "group": "control_change"}, {"time": 172890, "annotation": {"number": 64, "value": 127}, "group": "control_change"}, {"time": 173240, "annotation": {"number": 64, "value": 0}, "group": "control_change"}, {"time": 173310, "annotation": {"number": 64, "value": 127}, "group": "control_change"}, {"time": 174240, "annotation": {"number": 64, "value": 0}, "group": "control_change"}, {"time": 174360, "annotation": {"number": 64, "value": 127}, "group": "control_change"}, {"time": 175140, "annotation": {"number": 64, "value": 0}, "group": "control_change"}, {"time": 175230, "annotation": {"number": 64, "value": 127}, "group": "control_change"}, {"time": 176070, "annotation": {"number": 64, "value": 0}, "group": "control_change"}, {"time": 176150, "annotation": {"number": 64, "value": 127}, "group": "control_change"}, {"time": 176400, "annotation": {"number": 64, "value": 0}, "group": "control_change"}, {"time": 176830, "annotation": {"number": 64, "value": 127}, "group": "control_change"}, {"time": 180000, "annotation": {"number": 64, "value": 0}, "group": "control_change"}]}, {"program": 0, "is_drum": false, "name": "GUITAR1", "annotations": [{"time": 960, "annotation": {"number": 0, "value": 0}, "group": "control_change"}, {"time": 970, "annotation": {"number": 32, "value": 0}, "group": "control_change"}]}, {"program": 25, "is_drum": false, "name": "GUITAR1", "notes": [{"time": 6240, "pitch": 55, "duration": 220, "velocity": 100}, {"time": 6240, "pitch": 58, "duration": 220, "velocity": 90}, {"time": 6250, "pitch": 63, "duration": 220, "velocity": 90}, {"time": 6250, "pitch": 67, "duration": 220, "velocity": 100}, {"time": 6480, "pitch": 55, "duration": 80, "velocity": 110}, {"time": 6480, "pitch": 58, "duration": 80, "velocity": 100}, {"time": 6480, "pitch": 63, "duration": 80, "velocity": 100}, {"time": 6480, "pitch": 67, "duration": 80, "velocity": 110}, {"time": 6640, "pitch": 55, "duration": 10, "velocity": 80}, {"time": 6640, "pitch": 58, "duration": 10, "velocity": 70}, {"time": 6640, "pitch": 63, "duration": 10, "velocity": 70}, {"time": 6640, "pitch": 67, "duration": 10, "velocity": 80}, {"time": 6720, "pitch": 55, "duration": 220, "velocity": 100}, {"time": 6720, "pitch": 58, "duration": 220, "velocity": 90}, {"time": 6730, "pitch": 63, "duration": 220, "velocity": 90}, {"time": 6730, "pitch": 67, "duration": 220, "velocity": 100}, {"time": 6960, "pitch": 55, "duration": 80, "velocity": 110}, {"time": 6960, "pitch": 58, "duration": 80, "velocity": 100}, {"time": 6960, "pitch": 63, "duration": 80, "velocity": 100}, {"time": 6960, "pitch": 67, "duration": 80, "velocity": 110}, {"time": 7120, "pitch": 55, "duration": 10, "velocity": 80}, {"time": 7120, "pitch": 58, "duration": 10, "velocity": 70}, {"time": 7120, "pitch": 63, "duration": 10, "velocity": 70}, {"time": 7120, "pitch": 67, "duration": 10, "velocity": 80}, {"time": 7200, "pitch": 56, "duration": 220, "velocity": 100}, {"time": 7200, "pitch": 60, "duration": 220, "velocity": 90}, {"time": 7210, "pitch": 63, "duration": 220, "velocity": 90}, {"time": 7210, "pitch": 68, "duration": 220, "velocity": 100}, {"time": 7440, "pitch": 56, "duration": 80, "velocity": 110}, {"time": 7440, "pitch": 60, "duration": 80, "velocity": 100}, {"time": 7440, "pitch": 63, "duration": 80, "velocity": 100}, {"time": 7440, "pitch": 68, "duration": 80, "velocity": 110}, {"time": 7600, "pitch": 56, "duration": 10, "velocity": 80}, {"time": 7600, "pitch": 60, "duration": 10, "velocity": 70}, {"time": 7600, "pitch": 63, "duration": 10, "velocity": 70}, {"time": 7600, "pitch": 68, "duration": 10, "velocity": 80}, {"time": 7680, "pitch": 56, "duration": 220, "velocity": 100}, {"time": 7680, "pitch": 60, "duration": 220, "velocity": 90}, {"time": 7690, "pitch": 63, "duration": 220, "velocity": 90}, {"time": 7690, "pitch": 68, "duration": 220, "velocity": 100}, {"time": 7920, "pitch": 56, "duration": 80, "velocity": 110}, {"time": 7920, "pitch": 60, "duration": 80, "velocity": 100}, {"time": 7920, "pitch": 63, "duration": 80, "velocity": 100}, {"time": 7920, "pitch": 68, "duration": 80, "velocity": 110}, {"time": 8080, "pitch": 56, "duration": 10, "velocity": 80}, {"time": 8080, "pitch": 60, "duration": 10, "velocity": 70}, {"time": 8080, "pitch": 63, "duration": 10, "velocity": 70}, {"time": 8080, "pitch": 68, "duration": 10, "velocity": 80}, {"time": 8160, "pitch": 54, "duration": 220, "velocity": 100}, {"time": 8160, "pitch": 59, "duration": 220, "velocity": 90}, {"time": 8170, "pitch": 63, "duration": 220, "velocity": 90}, {"time": 8170, "pitch": 70, "duration": 220, "velocity": 100}, {"time": 8400, "pitch": 54, "duration": 80, "velocity": 110}, {"time": 8400, "pitch": 59, "duration": 80, "velocity": 100}, {"time": 8400, "pitch": 63, "duration": 80, "velocity": 100}, {"time": 8400, "pitch": 70, "duration": 80, "velocity": 110}, {"time": 8560, "pitch": 54, "duration": 10, "velocity": 80}, {"time": 8560, "pitch": 59, "duration": 10, "velocity": 70}, {"time": 8560, "pitch": 63, "duration": 10, "velocity": 70}, {"time": 8560, "pitch": 70, "duration": 10, "velocity": 80}, {"time": 8640, "pitch": 54, "duration": 220, "velocity": 100}, {"time": 8640, "pitch": 59, "duration": 220, "velocity": 90}, {"time": 8650, "pitch": 63, "duration": 220, "velocity": 90}, {"time": 8650, "pitch": 70, "duration": 220, "velocity": 100}, {"time": 8880, "pitch": 54, "duration": 80, "velocity": 110}, {"time": 8880, "pitch": 59, "duration": 80, "velocity": 100}, {"time": 8880, "pitch": 63, "duration": 80, "velocity": 100}, {"time": 8880, "pitch": 70, "duration": 80, "velocity": 110}, {"time": 9040, "pitch": 54, "duration": 10, "velocity": 80}, {"time": 9040, "pitch": 59, "duration": 10, "velocity": 70}, {"time": 9040, "pitch": 63, "duration": 10, "velocity": 70}, {"time": 9040, "pitch": 70, "duration": 10, "velocity": 80}, {"time": 9120, "pitch": 56, "duration": 220, "velocity": 100}, {"time": 9120, "pitch": 61, "duration": 220, "velocity": 90}, {"time": 9130, "pitch": 65, "duration": 220, "velocity": 90}, {"time": 9130, "pitch": 70, "duration": 220, "velocity": 100}, {"time": 9360, "pitch": 56, "duration": 80, "velocity": 110}, {"time": 9360, "pitch": 61, "duration": 80, "velocity": 100}, {"time": 9360, "pitch": 65, "duration": 80, "velocity": 100}, {"time": 9360, "pitch": 70, "duration": 80, "velocity": 110}, {"time": 9520, "pitch": 56, "duration": 10, "velocity": 80}, {"time": 9520, "pitch": 61, "duration": 10, "velocity": 70}, {"time": 9520, "pitch": 65, "duration": 10, "velocity": 70}, {"time": 9520, "pitch": 70, "duration": 10, "velocity": 80}, {"time": 9600, "pitch": 56, "duration": 220, "velocity": 100}, {"time": 9600, "pitch": 61, "duration": 220, "velocity": 90}, {"time": 9610, "pitch": 65, "duration": 220, "velocity": 90}, {"time": 9610, "pitch": 70, "duration": 220, "velocity": 100}, {"time": 9840, "pitch": 56, "duration": 80, "velocity": 110}, {"time": 9840, "pitch": 61, "duration": 80, "velocity": 100}, {"time": 9840, "pitch": 65, "duration": 80, "velocity": 100}, {"time": 9840, "pitch": 70, "duration": 80, "velocity": 110}, {"time": 10000, "pitch": 56, "duration": 10, "velocity": 80}, {"time": 10000, "pitch": 61, "duration": 10, "velocity": 70}, {"time": 10000, "pitch": 65, "duration": 10, "velocity": 70}, {"time": 10000, "pitch": 70, "duration": 10, "velocity": 80}, {"time": 10080, "pitch": 55, "duration": 220, "velocity": 100}, {"time": 10080, "pitch": 58, "duration": 220, "velocity": 90}, {"time": 10090, "pitch": 63, "duration": 220, "velocity": 90}, {"time": 10090, "pitch": 67, "duration": 220, "velocity": 100}, {"time": 10320, "pitch": 55, "duration": 80, "velocity": 110}, {"time": 10320, "pitch": 58, "duration": 80, "velocity": 100}, {"time": 10320, "pitch": 63, "duration": 80, "velocity": 100}, {"time": 10320, "pitch": 67, "duration": 80, "velocity": 110}, {"time": 10480, "pitch": 55, "duration": 10, "velocity": 80}, {"time": 10480, "pitch": 58, "duration": 10, "velocity": 70}, {"time": 10480, "pitch": 63, "duration": 10, "velocity": 70}, {"time": 10480, "pitch": 67, "duration": 10, "velocity": 80}, {"time": 10560, "pitch": 55, "duration": 220, "velocity": 100}, {"time": 10560, "pitch": 58, "duration": 220, "velocity": 90}, {"time": 10570, "pitch": 63, "duration": 220, "velocity": 90}, {"time": 10570, "pitch": 67, "duration": 220, "velocity": 100}, {"time": 10800, "pitch": 55, "duration": 80, "velocity": 110}, {"time": 10800, "pitch": 58, "duration": 80, "velocity": 100}, {"time": 10800, "pitch": 63, "duration": 80, "velocity": 100}, {"time": 10800, "pitch": 67, "duration": 80, "velocity": 110}, {"time": 10960, "pitch": 55, "duration": 10, "velocity": 80}, {"time": 10960, "pitch": 58, "duration": 10, "velocity": 70}, {"time": 10960, "pitch": 63, "duration": 10, "velocity": 70}, {"time": 10960, "pitch": 67, "duration": 10, "velocity": 80}, {"time": 11040, "pitch": 53, "duration": 220, "velocity": 100}, {"time": 11040, "pitch": 58, "duration": 220, "velocity": 90}, {"time": 11050, "pitch": 62, "duration": 220, "velocity": 90}, {"time": 11050, "pitch": 65, "duration": 220, "velocity": 100}, {"time": 11280, "pitch": 53, "duration": 80, "velocity": 110}, {"time": 11280, "pitch": 58, "duration": 80, "velocity": 100}, {"time": 11280, "pitch": 62, "duration": 80, "velocity": 100}, {"time": 11280, "pitch": 65, "duration": 80, "velocity": 110}, {"time": 11440, "pitch": 53, "duration": 10, "velocity": 80}, {"time": 11440, "pitch": 58, "duration": 10, "velocity": 70}, {"time": 11440, "pitch": 62, "duration": 10, "velocity": 70}, {"time": 11440, "pitch": 65, "duration": 10, "velocity": 80}, {"time": 11520, "pitch": 53, "duration": 220, "velocity": 100}, {"time": 11520, "pitch": 58, "duration": 220, "velocity": 90}, {"time": 11530, "pitch": 62, "duration": 220, "velocity": 90}, {"time": 11530, "pitch": 65, "duration": 220, "velocity": 100}, {"time": 11760, "pitch": 53, "duration": 80, "velocity": 110}, {"time": 11760, "pitch": 58, "duration": 80, "velocity": 100}, {"time": 11760, "pitch": 62, "duration": 80, "velocity": 100}, {"time": 11760, "pitch": 65, "duration": 80, "velocity": 110}, {"time": 11920, "pitch": 53, "duration": 10, "velocity": 80}, {"time": 11920, "pitch": 58, "duration": 10, "velocity": 70}, {"time": 11920, "pitch": 62, "duration": 10, "velocity": 70}, {"time": 11920, "pitch": 65, "duration": 10, "velocity": 80}, {"time": 12000, "pitch": 55, "duration": 220, "velocity": 100}, {"time": 12000, "pitch": 60, "duration": 220, "velocity": 90}, {"time": 12010, "pitch": 63, "duration": 220, "velocity": 90}, {"time": 12010, "pitch": 67, "duration": 220, "velocity": 100}, {"time": 12240, "pitch": 55, "duration": 80, "velocity": 110}, {"time": 12240, "pitch": 60, "duration": 80, "velocity": 100}, {"time": 12240, "pitch": 63, "duration": 80, "velocity": 100}, {"time": 12240, "pitch": 67, "duration": 80, "velocity": 110}, {"time": 12400, "pitch": 55, "duration": 10, "velocity": 80}, {"time": 12400, "pitch": 60, "duration": 10, "velocity": 70}, {"time": 12400, "pitch": 63, "duration": 10, "velocity": 70}, {"time": 12400, "pitch": 67, "duration": 10, "velocity": 80}, {"time": 12480, "pitch": 55, "duration": 220, "velocity": 100}, {"time": 12480, "pitch": 60, "duration": 220, "velocity": 90}, {"time": 12490, "pitch": 63, "duration": 220, "velocity": 90}, {"time": 12490, "pitch": 67, "duration": 220, "velocity": 100}, {"time": 12720, "pitch": 55, "duration": 80, "velocity": 110}, {"time": 12720, "pitch": 60, "duration": 80, "velocity": 100}, {"time": 12720, "pitch": 63, "duration": 80, "velocity": 100}, {"time": 12720, "pitch": 67, "duration": 80, "velocity": 110}, {"time": 12880, "pitch": 55, "duration": 10, "velocity": 80}, {"time": 12880, "pitch": 60, "duration": 10, "velocity": 70}, {"time": 12880, "pitch": 63, "duration": 10, "velocity": 70}, {"time": 12880, "pitch": 67, "duration": 10, "velocity": 80}, {"time": 12960, "pitch": 53, "duration": 220, "velocity": 100}, {"time": 12960, "pitch": 58, "duration": 220, "velocity": 90}, {"time": 12970, "pitch": 62, "duration": 220, "velocity": 90}, {"time": 12970, "pitch": 67, "duration": 220, "velocity": 100}, {"time": 13200, "pitch": 53, "duration": 80, "velocity": 110}, {"time": 13200, "pitch": 58, "duration": 80, "velocity": 100}, {"time": 13200, "pitch": 62, "duration": 80, "velocity": 100}, {"time": 13200, "pitch": 67, "duration": 80, "velocity": 110}, {"time": 13360, "pitch": 53, "duration": 10, "velocity": 80}, {"time": 13360, "pitch": 58, "duration": 10, "velocity": 70}, {"time": 13360, "pitch": 62, "duration": 10, "velocity": 70}, {"time": 13360, "pitch": 67, "duration": 10, "velocity": 80}, {"time": 13440, "pitch": 53, "duration": 220, "velocity": 100}, {"time": 13440, "pitch": 58, "duration": 220, "velocity": 90}, {"time": 13450, "pitch": 62, "duration": 220, "velocity": 90}, {"time": 13450, "pitch": 67, "duration": 220, "velocity": 100}, {"time": 13680, "pitch": 53, "duration": 80, "velocity": 110}, {"time": 13680, "pitch": 58, "duration": 80, "velocity": 100}, {"time": 13680, "pitch": 62, "duration": 80, "velocity": 100}, {"time": 13680, "pitch": 67, "duration": 80, "velocity": 110}, {"time": 13840, "pitch": 53, "duration": 10, "velocity": 80}, {"time": 13840, "pitch": 58, "duration": 10, "velocity": 70}, {"time": 13840, "pitch": 62, "duration": 10, "velocity": 70}, {"time": 13840, "pitch": 67, "duration": 10, "velocity": 80}, {"time": 13920, "pitch": 56, "duration": 220, "velocity": 100}, {"time": 13920, "pitch": 60, "duration": 220, "velocity": 90}, {"time": 13930, "pitch": 63, "duration": 220, "velocity": 90}, {"time": 13930, "pitch": 68, "duration": 220, "velocity": 100}, {"time": 14160, "pitch": 56, "duration": 80, "velocity": 110}, {"time": 14160, "pitch": 60, "duration": 80, "velocity": 100}, {"time": 14160, "pitch": 63, "duration": 80, "velocity": 100}, {"time": 14160, "pitch": 68, "duration": 80, "velocity": 110}, {"time": 14320, "pitch": 56, "duration": 10, "velocity": 80}, {"time": 14320, "pitch": 60, "duration": 10, "velocity": 70}, {"time": 14320, "pitch": 63, "duration": 10, "velocity": 70}, {"time": 14320, "pitch": 68, "duration": 10, "velocity": 80}, {"time": 14400, "pitch": 56, "duration": 220, "velocity": 100}, {"time": 14400, "pitch": 60, "duration": 220, "velocity": 90}, {"time": 14410, "pitch": 63, "duration": 220, "velocity": 90}, {"time": 14410, "pitch": 68, "duration": 220, "velocity": 100}, {"time": 14640, "pitch": 56, "duration": 80, "velocity": 110}, {"time": 14640, "pitch": 60, "duration": 80, "velocity": 100}, {"time": 14640, "pitch": 63, "duration": 80, "velocity": 100}, {"time": 14640, "pitch": 68, "duration": 80, "velocity": 110}, {"time": 14800, "pitch": 56, "duration": 10, "velocity": 80}, {"time": 14800, "pitch": 60, "duration": 10, "velocity": 70}, {"time": 14800, "pitch": 63, "duration": 10, "velocity": 70}, {"time": 14800, "pitch": 68, "duration": 10, "velocity": 80}, {"time": 14880, "pitch": 55, "duration": 220, "velocity": 100}, {"time": 14880, "pitch": 58, "duration": 220, "velocity": 90}, {"time": 14890, "pitch": 63, "duration": 220, "velocity": 90}, {"time": 14890, "pitch": 67, "duration": 220, "velocity": 100}, {"time": 15120, "pitch": 55, "duration": 80, "velocity": 110}, {"time": 15120, "pitch": 58, "duration": 80, "velocity": 100}, {"time": 15120, "pitch": 63, "duration": 80, "velocity": 100}, {"time": 15120, "pitch": 67, "duration": 80, "velocity": 110}, {"time": 15280, "pitch": 55, "duration": 10, "velocity": 80}, {"time": 15280, "pitch": 58, "duration": 10, "velocity": 70}, {"time": 15280, "pitch": 63, "duration": 10, "velocity": 70}, {"time": 15280, "pitch": 67, "duration": 10, "velocity": 80}, {"time": 15360, "pitch": 55, "duration": 220, "velocity": 100}, {"time": 15360, "pitch": 58, "duration": 220, "velocity": 90}, {"time": 15370, "pitch": 63, "duration": 220, "velocity": 90}, {"time": 15370, "pitch": 67, "duration": 220, "velocity": 100}, {"time": 15600, "pitch": 55, "duration": 80, "velocity": 110}, {"time": 15600, "pitch": 58, "duration": 80, "velocity": 100}, {"time": 15600, "pitch": 63, "duration": 80, "velocity": 100}, {"time": 15600, "pitch": 67, "duration": 80, "velocity": 110}, {"time": 15760, "pitch": 55, "duration": 10, "velocity": 80}, {"time": 15760, "pitch": 58, "duration": 10, "velocity": 70}, {"time": 15760, "pitch": 63, "duration": 10, "velocity": 70}, {"time": 15760, "pitch": 67, "duration": 10, "velocity": 80}, {"time": 15840, "pitch": 56, "duration": 220, "velocity": 100}, {"time": 15840, "pitch": 60, "duration": 220, "velocity": 90}, {"time": 15850, "pitch": 63, "duration": 220, "velocity": 90}, {"time": 15850, "pitch": 68, "duration": 220, "velocity": 100}, {"time": 16080, "pitch": 56, "duration": 80, "velocity": 110}, {"time": 16080, "pitch": 60, "duration": 80, "velocity": 100}, {"time": 16080, "pitch": 63, "duration": 80, "velocity": 100}, {"time": 16080, "pitch": 68, "duration": 80, "velocity": 110}, {"time": 16240, "pitch": 56, "duration": 10, "velocity": 80}, {"time": 16240, "pitch": 60, "duration": 10, "velocity": 70}, {"time": 16240, "pitch": 63, "duration": 10, "velocity": 70}, {"time": 16240, "pitch": 68, "duration": 10, "velocity": 80}, {"time": 16320, "pitch": 56, "duration": 220, "velocity": 100}, {"time": 16320, "pitch": 60, "duration": 220, "velocity": 90}, {"time": 16330, "pitch": 63, "duration": 220, "velocity": 90}, {"time": 16330, "pitch": 68, "duration": 220, "velocity": 100}, {"time": 16560, "pitch": 56, "duration": 80, "velocity": 110}, {"time": 16560, "pitch": 60, "duration": 80, "velocity": 100}, {"time": 16560, "pitch": 63, "duration": 80, "velocity": 100}, {"time": 16560, "pitch": 68, "duration": 80, "velocity": 110}, {"time": 16720, "pitch": 56, "duration": 10, "velocity": 80}, {"time": 16720, "pitch": 60, "duration": 10, "velocity": 70}, {"time": 16720, "pitch": 63, "duration": 10, "velocity": 70}, {"time": 16720, "pitch": 68, "duration": 10, "velocity": 80}, {"time": 16800, "pitch": 54, "duration": 10, "velocity": 80}, {"time": 16800, "pitch": 59, "duration": 10, "velocity": 70}, {"time": 16800, "pitch": 63, "duration": 10, "velocity": 70}, {"time": 16800, "pitch": 66, "duration": 10, "velocity": 80}, {"time": 16880, "pitch": 54, "duration": 80, "velocity": 110}, {"time": 16880, "pitch": 59, "duration": 80, "velocity": 100}, {"time": 16880, "pitch": 63, "duration": 80, "velocity": 100}, {"time": 16880, "pitch": 66, "duration": 80, "velocity": 110}, {"time": 17040, "pitch": 54, "duration": 220, "velocity": 100}, {"time": 17040, "pitch": 59, "duration": 220, "velocity": 90}, {"time": 17050, "pitch": 63, "duration": 220, "velocity": 90}, {"time": 17050, "pitch": 66, "duration": 220, "velocity": 100}, {"time": 17280, "pitch": 53, "duration": 10, "velocity": 80}, {"time": 17280, "pitch": 56, "duration": 10, "velocity": 70}, {"time": 17280, "pitch": 61, "duration": 10, "velocity": 70}, {"time": 17280, "pitch": 65, "duration": 10, "velocity": 80}, {"time": 17360, "pitch": 53, "duration": 80, "velocity": 110}, {"time": 17360, "pitch": 56, "duration": 80, "velocity": 100}, {"time": 17360, "pitch": 61, "duration": 80, "velocity": 100}, {"time": 17360, "pitch": 65, "duration": 80, "velocity": 110}, {"time": 17520, "pitch": 53, "duration": 220, "velocity": 100}, {"time": 17520, "pitch": 56, "duration": 220, "velocity": 90}, {"time": 17530, "pitch": 61, "duration": 220, "velocity": 90}, {"time": 17530, "pitch": 65, "duration": 220, "velocity": 100}, {"time": 17760, "pitch": 55, "duration": 220, "velocity": 100}, {"time": 17760, "pitch": 58, "duration": 220, "velocity": 90}, {"time": 17770, "pitch": 63, "duration": 220, "velocity": 90}, {"time": 17770, "pitch": 67, "duration": 220, "velocity": 100}, {"time": 18000, "pitch": 55, "duration": 80, "velocity": 110}, {"time": 18000, "pitch": 58, "duration": 80, "velocity": 100}, {"time": 18000, "pitch": 63, "duration": 80, "velocity": 100}, {"time": 18000, "pitch": 67, "duration": 80, "velocity": 110}, {"time": 18160, "pitch": 55, "duration": 10, "velocity": 80}, {"time": 18160, "pitch": 58, "duration": 10, "velocity": 70}, {"time": 18160, "pitch": 63, "duration": 10, "velocity": 70}, {"time": 18160, "pitch": 67, "duration": 10, "velocity": 80}, {"time": 18240, "pitch": 55, "duration": 220, "velocity": 100}, {"time": 18240, "pitch": 58, "duration": 220, "velocity": 90}, {"time": 18250, "pitch": 63, "duration": 220, "velocity": 90}, {"time": 18250, "pitch": 67, "duration": 220, "velocity": 100}, {"time": 18480, "pitch": 55, "duration": 80, "velocity": 110}, {"time": 18480, "pitch": 58, "duration": 80, "velocity": 100}, {"time": 18480, "pitch": 63, "duration": 80, "velocity": 100}, {"time": 18480, "pitch": 67, "duration": 80, "velocity": 110}, {"time": 18640, "pitch": 55, "duration": 10, "velocity": 80}, {"time": 18640, "pitch": 58, "duration": 10, "velocity": 70}, {"time": 18640, "pitch": 63, "duration": 10, "velocity": 70}, {"time": 18640, "pitch": 67, "duration": 10, "velocity": 80}, {"time": 18720, "pitch": 53, "duration": 220, "velocity": 100}, {"time": 18720, "pitch": 58, "duration": 220, "velocity": 90}, {"time": 18730, "pitch": 62, "duration": 220, "velocity": 90}, {"time": 18730, "pitch": 65, "duration": 220, "velocity": 100}, {"time": 18960, "pitch": 53, "duration": 80, "velocity": 110}, {"time": 18960, "pitch": 58, "duration": 80, "velocity": 100}, {"time": 18960, "pitch": 62, "duration": 80, "velocity": 100}, {"time": 18960, "pitch": 65, "duration": 80, "velocity": 110}, {"time": 19120, "pitch": 53, "duration": 10, "velocity": 80}, {"time": 19120, "pitch": 58, "duration": 10, "velocity": 70}, {"time": 19120, "pitch": 62, "duration": 10, "velocity": 70}, {"time": 19120, "pitch": 65, "duration": 10, "velocity": 80}, {"time": 19200, "pitch": 53, "duration": 220, "velocity": 100}, {"time": 19200, "pitch": 58, "duration": 220, "velocity": 90}, {"time": 19210, "pitch": 62, "duration": 220, "velocity": 90}, {"time": 19210, "pitch": 65, "duration": 220, "velocity": 100}, {"time": 19440, "pitch": 53, "duration": 80, "velocity": 110}, {"time": 19440, "pitch": 58, "duration": 80, "velocity": 100}, {"time": 19440, "pitch": 62, "duration": 80, "velocity": 100}, {"time": 19440, "pitch": 65, "duration": 80, "velocity": 110}, {"time": 19600, "pitch": 53, "duration": 10, "velocity": 80}, {"time": 19600, "pitch": 58, "duration": 10, "velocity": 70}, {"time": 19600, "pitch": 62, "duration": 10, "velocity": 70}, {"time": 19600, "pitch": 65, "duration": 10, "velocity": 80}, {"time": 19680, "pitch": 55, "duration": 220, "velocity": 100}, {"time": 19680, "pitch": 60, "duration": 220, "velocity": 90}, {"time": 19690, "pitch": 63, "duration": 220, "velocity": 90}, {"time": 19690, "pitch": 67, "duration": 220, "velocity": 100}, {"time": 19920, "pitch": 55, "duration": 80, "velocity": 110}, {"time": 19920, "pitch": 60, "duration": 80, "velocity": 100}, {"time": 19920, "pitch": 63, "duration": 80, "velocity": 100}, {"time": 19920, "pitch": 67, "duration": 80, "velocity": 110}, {"time": 20080, "pitch": 55, "duration": 10, "velocity": 80}, {"time": 20080, "pitch": 60, "duration": 10, "velocity": 70}, {"time": 20080, "pitch": 63, "duration": 10, "velocity": 70}, {"time": 20080, "pitch": 67, "duration": 10, "velocity": 80}, {"time": 20160, "pitch": 55, "duration": 220, "velocity": 100}, {"time": 20160, "pitch": 60, "duration": 220, "velocity": 90}, {"time": 20170, "pitch": 63, "duration": 220, "velocity": 90}, {"time": 20170, "pitch": 67, "duration": 220, "velocity": 100}, {"time": 20400, "pitch": 55, "duration": 80, "velocity": 110}, {"time": 20400, "pitch": 60, "duration": 80, "velocity": 100}, {"time": 20400, "pitch": 63, "duration": 80, "velocity": 100}, {"time": 20400, "pitch": 67, "duration": 80, "velocity": 110}, {"time": 20560, "pitch": 55, "duration": 10, "velocity": 80}, {"time": 20560, "pitch": 60, "duration": 10, "velocity": 70}, {"time": 20560, "pitch": 63, "duration": 10, "velocity": 70}, {"time": 20560, "pitch": 67, "duration": 10, "velocity": 80}, {"time": 20640, "pitch": 53, "duration": 220, "velocity": 100}, {"time": 20640, "pitch": 58, "duration": 220, "velocity": 90}, {"time": 20650, "pitch": 62, "duration": 220, "velocity": 90}, {"time": 20650, "pitch": 67, "duration": 220, "velocity": 100}, {"time": 20880, "pitch": 53, "duration": 80, "velocity": 110}, {"time": 20880, "pitch": 58, "duration": 80, "velocity": 100}, {"time": 20880, "pitch": 62, "duration": 80, "velocity": 100}, {"time": 20880, "pitch": 67, "duration": 80, "velocity": 110}, {"time": 21040, "pitch": 53, "duration": 10, "velocity": 80}, {"time": 21040, "pitch": 58, "duration": 10, "velocity": 70}, {"time": 21040, "pitch": 62, "duration": 10, "velocity": 70}, {"time": 21040, "pitch": 67, "duration": 10, "velocity": 80}, {"time": 21120, "pitch": 53, "duration": 220, "velocity": 100}, {"time": 21120, "pitch": 58, "duration": 220, "velocity": 90}, {"time": 21130, "pitch": 62, "duration": 220, "velocity": 90}, {"time": 21130, "pitch": 67, "duration": 220, "velocity": 100}, {"time": 21360, "pitch": 53, "duration": 80, "velocity": 110}, {"time": 21360, "pitch": 58, "duration": 80, "velocity": 100}, {"time": 21360, "pitch": 62, "duration": 80, "velocity": 100}, {"time": 21360, "pitch": 67, "duration": 80, "velocity": 110}, {"time": 21520, "pitch": 53, "duration": 10, "velocity": 80}, {"time": 21520, "pitch": 58, "duration": 10, "velocity": 70}, {"time": 21520, "pitch": 62, "duration": 10, "velocity": 70}, {"time": 21520, "pitch": 67, "duration": 10, "velocity": 80}, {"time": 21600, "pitch": 56, "duration": 220, "velocity": 100}, {"time": 21600, "pitch": 60, "duration": 220, "velocity": 90}, {"time": 21610, "pitch": 63, "duration": 220, "velocity": 90}, {"time": 21610, "pitch": 68, "duration": 220, "velocity": 100}, {"time": 21840, "pitch": 56, "duration": 80, "velocity": 110}, {"time": 21840, "pitch": 60, "duration": 80, "velocity": 100}, {"time": 21840, "pitch": 63, "duration": 80, "velocity": 100}, {"time": 21840, "pitch": 68, "duration": 80, "velocity": 110}, {"time": 22000, "pitch": 56, "duration": 10, "velocity": 80}, {"time": 22000, "pitch": 60, "duration": 10, "velocity": 70}, {"time": 22000, "pitch": 63, "duration": 10, "velocity": 70}, {"time": 22000, "pitch": 68, "duration": 10, "velocity": 80}, {"time": 22080, "pitch": 56, "duration": 220, "velocity": 100}, {"time": 22080, "pitch": 60, "duration": 220, "velocity": 90}, {"time": 22090, "pitch": 63, "duration": 220, "velocity": 90}, {"time": 22090, "pitch": 68, "duration": 220, "velocity": 100}, {"time": 22320, "pitch": 56, "duration": 80, "velocity": 110}, {"time": 22320, "pitch": 60, "duration": 80, "velocity": 100}, {"time": 22320, "pitch": 63, "duration": 80, "velocity": 100}, {"time": 22320, "pitch": 68, "duration": 80, "velocity": 110}, {"time": 22480, "pitch": 56, "duration": 10, "velocity": 80}, {"time": 22480, "pitch": 60, "duration": 10, "velocity": 70}, {"time": 22480, "pitch": 63, "duration": 10, "velocity": 70}, {"time": 22480, "pitch": 68, "duration": 10, "velocity": 80}, {"time": 22560, "pitch": 55, "duration": 220, "velocity": 100}, {"time": 22560, "pitch": 58, "duration": 220, "velocity": 90}, {"time": 22570, "pitch": 63, "duration": 220, "velocity": 90}, {"time": 22570, "pitch": 67, "duration": 220, "velocity": 100}, {"time": 22800, "pitch": 55, "duration": 80, "velocity": 110}, {"time": 22800, "pitch": 58, "duration": 80, "velocity": 100}, {"time": 22800, "pitch": 63, "duration": 80, "velocity": 100}, {"time": 22800, "pitch": 67, "duration": 80, "velocity": 110}, {"time": 22960, "pitch": 55, "duration": 10, "velocity": 80}, {"time": 22960, "pitch": 58, "duration": 10, "velocity": 70}, {"time": 22960, "pitch": 63, "duration": 10, "velocity": 70}, {"time": 22960, "pitch": 67, "duration": 10, "velocity": 80}, {"time": 23040, "pitch": 55, "duration": 220, "velocity": 100}, {"time": 23040, "pitch": 58, "duration": 220, "velocity": 90}, {"time": 23050, "pitch": 63, "duration": 220, "velocity": 90}, {"time": 23050, "pitch": 67, "duration": 220, "velocity": 100}, {"time": 23280, "pitch": 55, "duration": 80, "velocity": 110}, {"time": 23280, "pitch": 58, "duration": 80, "velocity": 100}, {"time": 23280, "pitch": 63, "duration": 80, "velocity": 100}, {"time": 23280, "pitch": 67, "duration": 80, "velocity": 110}, {"time": 23440, "pitch": 55, "duration": 10, "velocity": 80}, {"time": 23440, "pitch": 58, "duration": 10, "velocity": 70}, {"time": 23440, "pitch": 63, "duration": 10, "velocity": 70}, {"time": 23440, "pitch": 67, "duration": 10, "velocity": 80}, {"time": 23520, "pitch": 56, "duration": 220, "velocity": 100}, {"time": 23520, "pitch": 60, "duration": 220, "velocity": 90}, {"time": 23530, "pitch": 63, "duration": 220, "velocity": 90}, {"time": 23530, "pitch": 68, "duration": 220, "velocity": 100}, {"time": 23760, "pitch": 56, "duration": 80, "velocity": 110}, {"time": 23760, "pitch": 60, "duration": 80, "velocity": 100}, {"time": 23760, "pitch": 63, "duration": 80, "velocity": 100}, {"time": 23760, "pitch": 68, "duration": 80, "velocity": 110}, {"time": 23920, "pitch": 56, "duration": 10, "velocity": 80}, {"time": 23920, "pitch": 60, "duration": 10, "velocity": 70}, {"time": 23920, "pitch": 63, "duration": 10, "velocity": 70}, {"time": 23920, "pitch": 68, "duration": 10, "velocity": 80}, {"time": 24000, "pitch": 56, "duration": 220, "velocity": 100}, {"time": 24000, "pitch": 60, "duration": 220, "velocity": 90}, {"time": 24010, "pitch": 63, "duration": 220, "velocity": 90}, {"time": 24010, "pitch": 68, "duration": 220, "velocity": 100}, {"time": 24240, "pitch": 56, "duration": 80, "velocity": 110}, {"time": 24240, "pitch": 60, "duration": 80, "velocity": 100}, {"time": 24240, "pitch": 63, "duration": 80, "velocity": 100}, {"time": 24240, "pitch": 68, "duration": 80, "velocity": 110}, {"time": 24400, "pitch": 56, "duration": 10, "velocity": 80}, {"time": 24400, "pitch": 60, "duration": 10, "velocity": 70}, {"time": 24400, "pitch": 63, "duration": 10, "velocity": 70}, {"time": 24400, "pitch": 68, "duration": 10, "velocity": 80}, {"time": 24480, "pitch": 53, "duration": 220, "velocity": 110}, {"time": 24480, "pitch": 58, "duration": 220, "velocity": 100}, {"time": 24490, "pitch": 63, "duration": 220, "velocity": 100}, {"time": 24490, "pitch": 68, "duration": 220, "velocity": 110}, {"time": 24720, "pitch": 53, "duration": 80, "velocity": 110}, {"time": 24720, "pitch": 58, "duration": 80, "velocity": 100}, {"time": 24730, "pitch": 63, "duration": 80, "velocity": 100}, {"time": 24730, "pitch": 68, "duration": 80, "velocity": 110}, {"time": 25440, "pitch": 56, "duration": 220, "velocity": 100}, {"time": 25440, "pitch": 60, "duration": 220, "velocity": 90}, {"time": 25450, "pitch": 63, "duration": 220, "velocity": 90}, {"time": 25450, "pitch": 68, "duration": 220, "velocity": 100}, {"time": 25680, "pitch": 56, "duration": 80, "velocity": 110}, {"time": 25680, "pitch": 60, "duration": 80, "velocity": 100}, {"time": 25680, "pitch": 63, "duration": 80, "velocity": 100}, {"time": 25680, "pitch": 68, "duration": 80, "velocity": 110}, {"time": 25840, "pitch": 56, "duration": 10, "velocity": 80}, {"time": 25840, "pitch": 60, "duration": 10, "velocity": 70}, {"time": 25840, "pitch": 63, "duration": 10, "velocity": 70}, {"time": 25840, "pitch": 68, "duration": 10, "velocity": 80}, {"time": 25920, "pitch": 56, "duration": 220, "velocity": 100}, {"time": 25920, "pitch": 60, "duration": 220, "velocity": 90}, {"time": 25930, "pitch": 63, "duration": 220, "velocity": 90}, {"time": 25930, "pitch": 68, "duration": 220, "velocity": 100}, {"time": 26160, "pitch": 56, "duration": 80, "velocity": 110}, {"time": 26160, "pitch": 60, "duration": 80, "velocity": 100}, {"time": 26160, "pitch": 63, "duration": 80, "velocity": 100}, {"time": 26160, "pitch": 68, "duration": 80, "velocity": 110}, {"time": 26320, "pitch": 56, "duration": 10, "velocity": 80}, {"time": 26320, "pitch": 60, "duration": 10, "velocity": 70}, {"time": 26320, "pitch": 63, "duration": 10, "velocity": 70}, {"time": 26320, "pitch": 68, "duration": 10, "velocity": 80}, {"time": 26400, "pitch": 55, "duration": 220, "velocity": 100}, {"time": 26400, "pitch": 58, "duration": 220, "velocity": 90}, {"time": 26410, "pitch": 63, "duration": 220, "velocity": 90}, {"time": 26410, "pitch": 70, "duration": 220, "velocity": 100}, {"time": 26640, "pitch": 55, "duration": 80, "velocity": 110}, {"time": 26640, "pitch": 58, "duration": 80, "velocity": 100}, {"time": 26640, "pitch": 63, "duration": 80, "velocity": 100}, {"time": 26640, "pitch": 70, "duration": 80, "velocity": 110}, {"time": 26800, "pitch": 55, "duration": 10, "velocity": 80}, {"time": 26800, "pitch": 58, "duration": 10, "velocity": 70}, {"time": 26800, "pitch": 63, "duration": 10, "velocity": 70}, {"time": 26800, "pitch": 70, "duration": 10, "velocity": 80}, {"time": 26880, "pitch": 54, "duration": 220, "velocity": 100}, {"time": 26880, "pitch": 60, "duration": 220, "velocity": 90}, {"time": 26890, "pitch": 63, "duration": 220, "velocity": 90}, {"time": 26890, "pitch": 69, "duration": 220, "velocity": 100}, {"time": 27120, "pitch": 54, "duration": 80, "velocity": 110}, {"time": 27120, "pitch": 60, "duration": 80, "velocity": 100}, {"time": 27120, "pitch": 63, "duration": 80, "velocity": 100}, {"time": 27120, "pitch": 69, "duration": 80, "velocity": 110}, {"time": 27280, "pitch": 54, "duration": 10, "velocity": 80}, {"time": 27280, "pitch": 60, "duration": 10, "velocity": 70}, {"time": 27280, "pitch": 63, "duration": 10, "velocity": 70}, {"time": 27280, "pitch": 69, "duration": 10, "velocity": 80}, {"time": 27360, "pitch": 56, "duration": 450, "velocity": 100}, {"time": 27360, "pitch": 60, "duration": 450, "velocity": 90}, {"time": 27370, "pitch": 63, "duration": 450, "velocity": 90}, {"time": 27370, "pitch": 68, "duration": 450, "velocity": 100}, {"time": 27840, "pitch": 53, "duration": 10, "velocity": 80}, {"time": 27840, "pitch": 58, "duration": 10, "velocity": 70}, {"time": 27840, "pitch": 63, "duration": 10, "velocity": 70}, {"time": 27840, "pitch": 68, "duration": 10, "velocity": 80}, {"time": 28000, "pitch": 63, "duration": 310, "velocity": 100}, {"time": 28000, "pitch": 68, "duration": 310, "velocity": 110}, {"time": 28010, "pitch": 53, "duration": 310, "velocity": 110}, {"time": 28010, "pitch": 58, "duration": 310, "velocity": 100}, {"time": 28320, "pitch": 55, "duration": 150, "velocity": 100}, {"time": 28320, "pitch": 58, "duration": 150, "velocity": 90}, {"time": 28330, "pitch": 63, "duration": 150, "velocity": 90}, {"time": 28330, "pitch": 67, "duration": 150, "velocity": 100}, {"time": 28560, "pitch": 55, "duration": 150, "velocity": 100}, {"time": 28560, "pitch": 58, "duration": 150, "velocity": 90}, {"time": 28570, "pitch": 63, "duration": 150, "velocity": 90}, {"time": 28570, "pitch": 67, "duration": 150, "velocity": 100}, {"time": 28800, "pitch": 55, "duration": 150, "velocity": 100}, {"time": 28800, "pitch": 58, "duration": 150, "velocity": 90}, {"time": 28810, "pitch": 63, "duration": 150, "velocity": 90}, {"time": 28810, "pitch": 67, "duration": 150, "velocity": 100}, {"time": 29040, "pitch": 55, "duration": 150, "velocity": 100}, {"time": 29040, "pitch": 58, "duration": 150, "velocity": 90}, {"time": 29050, "pitch": 63, "duration": 150, "velocity": 90}, {"time": 29050, "pitch": 67, "duration": 150, "velocity": 100}, {"time": 29280, "pitch": 56, "duration": 150, "velocity": 100}, {"time": 29280, "pitch": 60, "duration": 150, "velocity": 90}, {"time": 29290, "pitch": 63, "duration": 150, "velocity": 90}, {"time": 29290, "pitch": 68, "duration": 150, "velocity": 100}, {"time": 29520, "pitch": 56, "duration": 150, "velocity": 100}, {"time": 29520, "pitch": 60, "duration": 150, "velocity": 90}, {"time": 29530, "pitch": 63, "duration": 150, "velocity": 90}, {"time": 29530, "pitch": 68, "duration": 150, "velocity": 100}, {"time": 29760, "pitch": 56, "duration": 150, "velocity": 100}, {"time": 29760, "pitch": 60, "duration": 150, "velocity": 90}, {"time": 29770, "pitch": 63, "duration": 150, "velocity": 90}, {"time": 29770, "pitch": 68, "duration": 150, "velocity": 100}, {"time": 30000, "pitch": 56, "duration": 150, "velocity": 100}, {"time": 30000, "pitch": 60, "duration": 150, "velocity": 90}, {"time": 30010, "pitch": 63, "duration": 150, "velocity": 90}, {"time": 30010, "pitch": 68, "duration": 150, "velocity": 100}, {"time": 30240, "pitch": 56, "duration": 150, "velocity": 100}, {"time": 30240, "pitch": 60, "duration": 150, "velocity": 90}, {"time": 30250, "pitch": 63, "duration": 150, "velocity": 90}, {"time": 30250, "pitch": 68, "duration": 150, "velocity": 100}, {"time": 30480, "pitch": 56, "duration": 150, "velocity": 100}, {"time": 30480, "pitch": 60, "duration": 150, "velocity": 90}, {"time": 30490, "pitch": 63, "duration": 150, "velocity": 90}, {"time": 30490, "pitch": 68, "duration": 150, "velocity": 100}, {"time": 30720, "pitch": 56, "duration": 150, "velocity": 100}, {"time": 30720, "pitch": 60, "duration": 150, "velocity": 90}, {"time": 30730, "pitch": 63, "duration": 150, "velocity": 90}, {"time": 30730, "pitch": 68, "duration": 150, "velocity": 100}, {"time": 30960, "pitch": 56, "duration": 150, "velocity": 100}, {"time": 30960, "pitch": 60, "duration": 150, "velocity": 90}, {"time": 30970, "pitch": 63, "duration": 150, "velocity": 90}, {"time": 30970, "pitch": 68, "duration": 150, "velocity": 100}, {"time": 31200, "pitch": 55, "duration": 150, "velocity": 100}, {"time": 31200, "pitch": 58, "duration": 150, "velocity": 90}, {"time": 31210, "pitch": 63, "duration": 150, "velocity": 90}, {"time": 31210, "pitch": 67, "duration": 150, "velocity": 100}, {"time": 31440, "pitch": 55, "duration": 150, "velocity": 100}, {"time": 31440, "pitch": 58, "duration": 150, "velocity": 90}, {"time": 31450, "pitch": 63, "duration": 150, "velocity": 90}, {"time": 31450, "pitch": 67, "duration": 150, "velocity": 100}, {"time": 31680, "pitch": 55, "duration": 150, "velocity": 100}, {"time": 31680, "pitch": 58, "duration": 150, "velocity": 90}, {"time": 31690, "pitch": 63, "duration": 150, "velocity": 90}, {"time": 31690, "pitch": 67, "duration": 150, "velocity": 100}, {"time": 31920, "pitch": 55, "duration": 150, "velocity": 100}, {"time": 31920, "pitch": 58, "duration": 150, "velocity": 90}, {"time": 31930, "pitch": 63, "duration": 150, "velocity": 90}, {"time": 31930, "pitch": 67, "duration": 150, "velocity": 100}, {"time": 32160, "pitch": 56, "duration": 150, "velocity": 100}, {"time": 32160, "pitch": 60, "duration": 150, "velocity": 90}, {"time": 32170, "pitch": 63, "duration": 150, "velocity": 90}, {"time": 32170, "pitch": 68, "duration": 150, "velocity": 100}, {"time": 32400, "pitch": 56, "duration": 150, "velocity": 100}, {"time": 32400, "pitch": 60, "duration": 150, "velocity": 90}, {"time": 32410, "pitch": 63, "duration": 150, "velocity": 90}, {"time": 32410, "pitch": 68, "duration": 150, "velocity": 100}, {"time": 32640, "pitch": 56, "duration": 150, "velocity": 100}, {"time": 32640, "pitch": 60, "duration": 150, "velocity": 90}, {"time": 32650, "pitch": 63, "duration": 150, "velocity": 90}, {"time": 32650, "pitch": 68, "duration": 150, "velocity": 100}, {"time": 32880, "pitch": 56, "duration": 150, "velocity": 100}, {"time": 32880, "pitch": 60, "duration": 150, "velocity": 90}, {"time": 32890, "pitch": 63, "duration": 150, "velocity": 90}, {"time": 32890, "pitch": 68, "duration": 150, "velocity": 100}, {"time": 33120, "pitch": 53, "duration": 150, "velocity": 100}, {"time": 33120, "pitch": 58, "duration": 150, "velocity": 90}, {"time": 33130, "pitch": 63, "duration": 150, "velocity": 90}, {"time": 33130, "pitch": 68, "duration": 150, "velocity": 100}, {"time": 33360, "pitch": 53, "duration": 150, "velocity": 100}, {"time": 33360, "pitch": 58, "duration": 150, "velocity": 90}, {"time": 33370, "pitch": 63, "duration": 150, "velocity": 90}, {"time": 33370, "pitch": 68, "duration": 150, "velocity": 100}, {"time": 33600, "pitch": 53, "duration": 150, "velocity": 100}, {"time": 33600, "pitch": 58, "duration": 150, "velocity": 90}, {"time": 33610, "pitch": 63, "duration": 150, "velocity": 90}, {"time": 33610, "pitch": 68, "duration": 150, "velocity": 100}, {"time": 33840, "pitch": 53, "duration": 150, "velocity": 100}, {"time": 33840, "pitch": 58, "duration": 150, "velocity": 90}, {"time": 33850, "pitch": 63, "duration": 150, "velocity": 90}, {"time": 33850, "pitch": 68, "duration": 150, "velocity": 100}, {"time": 34080, "pitch": 55, "duration": 150, "velocity": 100}, {"time": 34080, "pitch": 58, "duration": 150, "velocity": 90}, {"time": 34090, "pitch": 63, "duration": 150, "velocity": 90}, {"time": 34090, "pitch": 67, "duration": 150, "velocity": 100}, {"time": 34320, "pitch": 55, "duration": 150, "velocity": 100}, {"time": 34320, "pitch": 58, "duration": 150, "velocity": 90}, {"time": 34330, "pitch": 63, "duration": 150, "velocity": 90}, {"time": 34330, "pitch": 67, "duration": 150, "velocity": 100}, {"time": 34560, "pitch": 55, "duration": 150, "velocity": 100}, {"time": 34560, "pitch": 58, "duration": 150, "velocity": 90}, {"time": 34570, "pitch": 63, "duration": 150, "velocity": 90}, {"time": 34570, "pitch": 67, "duration": 150, "velocity": 100}, {"time": 34800, "pitch": 55, "duration": 150, "velocity": 100}, {"time": 34800, "pitch": 58, "duration": 150, "velocity": 90}, {"time": 34810, "pitch": 63, "duration": 150, "velocity": 90}, {"time": 34810, "pitch": 67, "duration": 150, "velocity": 100}, {"time": 35040, "pitch": 53, "duration": 10, "velocity": 80}, {"time": 35040, "pitch": 58, "duration": 10, "velocity": 70}, {"time": 35040, "pitch": 63, "duration": 10, "velocity": 70}, {"time": 35040, "pitch": 68, "duration": 10, "velocity": 80}, {"time": 35200, "pitch": 53, "duration": 10, "velocity": 80}, {"time": 35200, "pitch": 58, "duration": 10, "velocity": 70}, {"time": 35200, "pitch": 63, "duration": 10, "velocity": 70}, {"time": 35200, "pitch": 68, "duration": 10, "velocity": 80}, {"time": 35280, "pitch": 53, "duration": 80, "velocity": 110}, {"time": 35280, "pitch": 58, "duration": 80, "velocity": 100}, {"time": 35290, "pitch": 63, "duration": 80, "velocity": 100}, {"time": 35290, "pitch": 68, "duration": 80, "velocity": 110}, {"time": 35520, "pitch": 53, "duration": 10, "velocity": 80}, {"time": 35520, "pitch": 58, "duration": 10, "velocity": 70}, {"time": 35520, "pitch": 63, "duration": 10, "velocity": 70}, {"time": 35520, "pitch": 68, "duration": 10, "velocity": 80}, {"time": 35680, "pitch": 63, "duration": 310, "velocity": 100}, {"time": 35680, "pitch": 68, "duration": 310, "velocity": 110}, {"time": 35690, "pitch": 53, "duration": 310, "velocity": 110}, {"time": 35690, "pitch": 58, "duration": 310, "velocity": 100}, {"time": 36000, "pitch": 55, "duration": 150, "velocity": 100}, {"time": 36000, "pitch": 58, "duration": 150, "velocity": 90}, {"time": 36010, "pitch": 63, "duration": 150, "velocity": 90}, {"time": 36010, "pitch": 67, "duration": 150, "velocity": 100}, {"time": 36240, "pitch": 55, "duration": 150, "velocity": 100}, {"time": 36240, "pitch": 58, "duration": 150, "velocity": 90}, {"time": 36250, "pitch": 63, "duration": 150, "velocity": 90}, {"time": 36250, "pitch": 67, "duration": 150, "velocity": 100}, {"time": 36480, "pitch": 55, "duration": 150, "velocity": 100}, {"time": 36480, "pitch": 58, "duration": 150, "velocity": 90}, {"time": 36490, "pitch": 63, "duration": 150, "velocity": 90}, {"time": 36490, "pitch": 67, "duration": 150, "velocity": 100}, {"time": 36720, "pitch": 55, "duration": 150, "velocity": 100}, {"time": 36720, "pitch": 58, "duration": 150, "velocity": 90}, {"time": 36730, "pitch": 63, "duration": 150, "velocity": 90}, {"time": 36730, "pitch": 67, "duration": 150, "velocity": 100}, {"time": 36960, "pitch": 56, "duration": 150, "velocity": 100}, {"time": 36960, "pitch": 60, "duration": 150, "velocity": 90}, {"time": 36970, "pitch": 63, "duration": 150, "velocity": 90}, {"time": 36970, "pitch": 68, "duration": 150, "velocity": 100}, {"time": 37200, "pitch": 56, "duration": 150, "velocity": 100}, {"time": 37200, "pitch": 60, "duration": 150, "velocity": 90}, {"time": 37210, "pitch": 63, "duration": 150, "velocity": 90}, {"time": 37210, "pitch": 68, "duration": 150, "velocity": 100}, {"time": 37440, "pitch": 56, "duration": 150, "velocity": 100}, {"time": 37440, "pitch": 60, "duration": 150, "velocity": 90}, {"time": 37450, "pitch": 63, "duration": 150, "velocity": 90}, {"time": 37450, "pitch": 68, "duration": 150, "velocity": 100}, {"time": 37680, "pitch": 56, "duration": 150, "velocity": 100}, {"time": 37680, "pitch": 60, "duration": 150, "velocity": 90}, {"time": 37690, "pitch": 63, "duration": 150, "velocity": 90}, {"time": 37690, "pitch": 68, "duration": 150, "velocity": 100}, {"time": 37920, "pitch": 56, "duration": 150, "velocity": 100}, {"time": 37920, "pitch": 60, "duration": 150, "velocity": 90}, {"time": 37930, "pitch": 63, "duration": 150, "velocity": 90}, {"time": 37930, "pitch": 68, "duration": 150, "velocity": 100}, {"time": 38160, "pitch": 56, "duration": 150, "velocity": 100}, {"time": 38160, "pitch": 60, "duration": 150, "velocity": 90}, {"time": 38170, "pitch": 63, "duration": 150, "velocity": 90}, {"time": 38170, "pitch": 68, "duration": 150, "velocity": 100}, {"time": 38400, "pitch": 56, "duration": 150, "velocity": 100}, {"time": 38400, "pitch": 60, "duration": 150, "velocity": 90}, {"time": 38410, "pitch": 63, "duration": 150, "velocity": 90}, {"time": 38410, "pitch": 68, "duration": 150, "velocity": 100}, {"time": 38640, "pitch": 56, "duration": 150, "velocity": 100}, {"time": 38640, "pitch": 60, "duration": 150, "velocity": 90}, {"time": 38650, "pitch": 63, "duration": 150, "velocity": 90}, {"time": 38650, "pitch": 68, "duration": 150, "velocity": 100}, {"time": 38880, "pitch": 55, "duration": 150, "velocity": 100}, {"time": 38880, "pitch": 58, "duration": 150, "velocity": 90}, {"time": 38890, "pitch": 63, "duration": 150, "velocity": 90}, {"time": 38890, "pitch": 67, "duration": 150, "velocity": 100}, {"time": 39120, "pitch": 55, "duration": 150, "velocity": 100}, {"time": 39120, "pitch": 58, "duration": 150, "velocity": 90}, {"time": 39130, "pitch": 63, "duration": 150, "velocity": 90}, {"time": 39130, "pitch": 67, "duration": 150, "velocity": 100}, {"time": 39360, "pitch": 51, "duration": 150, "velocity": 100}, {"time": 39360, "pitch": 58, "duration": 150, "velocity": 90}, {"time": 39370, "pitch": 61, "duration": 150, "velocity": 90}, {"time": 39370, "pitch": 67, "duration": 150, "velocity": 100}, {"time": 39600, "pitch": 51, "duration": 150, "velocity": 100}, {"time": 39600, "pitch": 58, "duration": 150, "velocity": 90}, {"time": 39610, "pitch": 61, "duration": 150, "velocity": 90}, {"time": 39610, "pitch": 67, "duration": 150, "velocity": 100}, {"time": 39840, "pitch": 56, "duration": 150, "velocity": 100}, {"time": 39840, "pitch": 60, "duration": 150, "velocity": 90}, {"time": 39850, "pitch": 63, "duration": 150, "velocity": 90}, {"time": 39850, "pitch": 68, "duration": 150, "velocity": 100}, {"time": 40080, "pitch": 56, "duration": 150, "velocity": 100}, {"time": 40080, "pitch": 60, "duration": 150, "velocity": 90}, {"time": 40090, "pitch": 63, "duration": 150, "velocity": 90}, {"time": 40090, "pitch": 68, "duration": 150, "velocity": 100}, {"time": 40320, "pitch": 56, "duration": 150, "velocity": 100}, {"time": 40320, "pitch": 60, "duration": 150, "velocity": 90}, {"time": 40330, "pitch": 63, "duration": 150, "velocity": 90}, {"time": 40330, "pitch": 68, "duration": 150, "velocity": 100}, {"time": 40560, "pitch": 55, "duration": 150, "velocity": 100}, {"time": 40560, "pitch": 58, "duration": 150, "velocity": 90}, {"time": 40570, "pitch": 63, "duration": 150, "velocity": 90}, {"time": 40570, "pitch": 67, "duration": 150, "velocity": 100}, {"time": 40800, "pitch": 56, "duration": 150, "velocity": 100}, {"time": 40800, "pitch": 60, "duration": 150, "velocity": 90}, {"time": 40810, "pitch": 63, "duration": 150, "velocity": 90}, {"time": 40810, "pitch": 68, "duration": 150, "velocity": 100}, {"time": 41040, "pitch": 56, "duration": 150, "velocity": 100}, {"time": 41040, "pitch": 60, "duration": 150, "velocity": 90}, {"time": 41050, "pitch": 63, "duration": 150, "velocity": 90}, {"time": 41050, "pitch": 68, "duration": 150, "velocity": 100}, {"time": 41280, "pitch": 53, "duration": 150, "velocity": 100}, {"time": 41280, "pitch": 58, "duration": 150, "velocity": 90}, {"time": 41290, "pitch": 63, "duration": 150, "velocity": 90}, {"time": 41290, "pitch": 68, "duration": 150, "velocity": 100}, {"time": 41520, "pitch": 53, "duration": 150, "velocity": 100}, {"time": 41520, "pitch": 58, "duration": 150, "velocity": 90}, {"time": 41530, "pitch": 63, "duration": 150, "velocity": 90}, {"time": 41530, "pitch": 68, "duration": 150, "velocity": 100}, {"time": 41760, "pitch": 55, "duration": 150, "velocity": 100}, {"time": 41760, "pitch": 58, "duration": 150, "velocity": 90}, {"time": 41770, "pitch": 63, "duration": 150, "velocity": 90}, {"time": 41770, "pitch": 67, "duration": 150, "velocity": 100}, {"time": 42000, "pitch": 55, "duration": 150, "velocity": 100}, {"time": 42000, "pitch": 58, "duration": 150, "velocity": 90}, {"time": 42010, "pitch": 63, "duration": 150, "velocity": 90}, {"time": 42010, "pitch": 67, "duration": 150, "velocity": 100}, {"time": 42240, "pitch": 55, "duration": 150, "velocity": 100}, {"time": 42240, "pitch": 58, "duration": 150, "velocity": 90}, {"time": 42250, "pitch": 63, "duration": 150, "velocity": 90}, {"time": 42250, "pitch": 67, "duration": 150, "velocity": 100}, {"time": 42480, "pitch": 55, "duration": 150, "velocity": 100}, {"time": 42480, "pitch": 58, "duration": 150, "velocity": 90}, {"time": 42490, "pitch": 63, "duration": 150, "velocity": 90}, {"time": 42490, "pitch": 67, "duration": 150, "velocity": 100}, {"time": 42720, "pitch": 54, "duration": 10, "velocity": 80}, {"time": 42720, "pitch": 59, "duration": 10, "velocity": 70}, {"time": 42720, "pitch": 63, "duration": 10, "velocity": 70}, {"time": 42720, "pitch": 66, "duration": 10, "velocity": 80}, {"time": 42800, "pitch": 54, "duration": 80, "velocity": 110}, {"time": 42800, "pitch": 59, "duration": 80, "velocity": 100}, {"time": 42800, "pitch": 63, "duration": 80, "velocity": 100}, {"time": 42800, "pitch": 66, "duration": 80, "velocity": 110}, {"time": 42960, "pitch": 54, "duration": 220, "velocity": 100}, {"time": 42960, "pitch": 59, "duration": 220, "velocity": 90}, {"time": 42970, "pitch": 63, "duration": 220, "velocity": 90}, {"time": 42970, "pitch": 66, "duration": 220, "velocity": 100}, {"time": 43200, "pitch": 53, "duration": 10, "velocity": 80}, {"time": 43200, "pitch": 56, "duration": 10, "velocity": 70}, {"time": 43200, "pitch": 61, "duration": 10, "velocity": 70}, {"time": 43200, "pitch": 65, "duration": 10, "velocity": 80}, {"time": 43280, "pitch": 53, "duration": 80, "velocity": 110}, {"time": 43280, "pitch": 56, "duration": 80, "velocity": 100}, {"time": 43280, "pitch": 61, "duration": 80, "velocity": 100}, {"time": 43280, "pitch": 65, "duration": 80, "velocity": 110}, {"time": 43440, "pitch": 53, "duration": 220, "velocity": 100}, {"time": 43440, "pitch": 56, "duration": 220, "velocity": 90}, {"time": 43450, "pitch": 61, "duration": 220, "velocity": 90}, {"time": 43450, "pitch": 65, "duration": 220, "velocity": 100}, {"time": 43680, "pitch": 55, "duration": 220, "velocity": 100}, {"time": 43680, "pitch": 58, "duration": 220, "velocity": 90}, {"time": 43690, "pitch": 63, "duration": 220, "velocity": 90}, {"time": 43690, "pitch": 67, "duration": 220, "velocity": 100}, {"time": 43920, "pitch": 55, "duration": 80, "velocity": 110}, {"time": 43920, "pitch": 58, "duration": 80, "velocity": 100}, {"time": 43920, "pitch": 63, "duration": 80, "velocity": 100}, {"time": 43920, "pitch": 67, "duration": 80, "velocity": 110}, {"time": 44080, "pitch": 55, "duration": 10, "velocity": 80}, {"time": 44080, "pitch": 58, "duration": 10, "velocity": 70}, {"time": 44080, "pitch": 63, "duration": 10, "velocity": 70}, {"time": 44080, "pitch": 67, "duration": 10, "velocity": 80}, {"time": 44160, "pitch": 55, "duration": 220, "velocity": 100}, {"time": 44160, "pitch": 58, "duration": 220, "velocity": 90}, {"time": 44170, "pitch": 63, "duration": 220, "velocity": 90}, {"time": 44170, "pitch": 67, "duration": 220, "velocity": 100}, {"time": 44400, "pitch": 55, "duration": 80, "velocity": 110}, {"time": 44400, "pitch": 58, "duration": 80, "velocity": 100}, {"time": 44400, "pitch": 63, "duration": 80, "velocity": 100}, {"time": 44400, "pitch": 67, "duration": 80, "velocity": 110}, {"time": 44560, "pitch": 55, "duration": 10, "velocity": 80}, {"time": 44560, "pitch": 58, "duration": 10, "velocity": 70}, {"time": 44560, "pitch": 63, "duration": 10, "velocity": 70}, {"time": 44560, "pitch": 67, "duration": 10, "velocity": 80}, {"time": 44640, "pitch": 53, "duration": 220, "velocity": 100}, {"time": 44640, "pitch": 58, "duration": 220, "velocity": 90}, {"time": 44650, "pitch": 62, "duration": 220, "velocity": 90}, {"time": 44650, "pitch": 65, "duration": 220, "velocity": 100}, {"time": 44880, "pitch": 53, "duration": 80, "velocity": 110}, {"time": 44880, "pitch": 58, "duration": 80, "velocity": 100}, {"time": 44880, "pitch": 62, "duration": 80, "velocity": 100}, {"time": 44880, "pitch": 65, "duration": 80, "velocity": 110}, {"time": 45040, "pitch": 53, "duration": 10, "velocity": 80}, {"time": 45040, "pitch": 58, "duration": 10, "velocity": 70}, {"time": 45040, "pitch": 62, "duration": 10, "velocity": 70}, {"time": 45040, "pitch": 65, "duration": 10, "velocity": 80}, {"time": 45120, "pitch": 53, "duration": 220, "velocity": 100}, {"time": 45120, "pitch": 58, "duration": 220, "velocity": 90}, {"time": 45130, "pitch": 62, "duration": 220, "velocity": 90}, {"time": 45130, "pitch": 65, "duration": 220, "velocity": 100}, {"time": 45360, "pitch": 53, "duration": 80, "velocity": 110}, {"time": 45360, "pitch": 58, "duration": 80, "velocity": 100}, {"time": 45360, "pitch": 62, "duration": 80, "velocity": 100}, {"time": 45360, "pitch": 65, "duration": 80, "velocity": 110}, {"time": 45520, "pitch": 53, "duration": 10, "velocity": 80}, {"time": 45520, "pitch": 58, "duration": 10, "velocity": 70}, {"time": 45520, "pitch": 62, "duration": 10, "velocity": 70}, {"time": 45520, "pitch": 65, "duration": 10, "velocity": 80}, {"time": 45600, "pitch": 55, "duration": 220, "velocity": 100}, {"time": 45600, "pitch": 60, "duration": 220, "velocity": 90}, {"time": 45610, "pitch": 63, "duration": 220, "velocity": 90}, {"time": 45610, "pitch": 67, "duration": 220, "velocity": 100}, {"time": 45840, "pitch": 55, "duration": 80, "velocity": 110}, {"time": 45840, "pitch": 60, "duration": 80, "velocity": 100}, {"time": 45840, "pitch": 63, "duration": 80, "velocity": 100}, {"time": 45840, "pitch": 67, "duration": 80, "velocity": 110}, {"time": 46000, "pitch": 55, "duration": 10, "velocity": 80}, {"time": 46000, "pitch": 60, "duration": 10, "velocity": 70}, {"time": 46000, "pitch": 63, "duration": 10, "velocity": 70}, {"time": 46000, "pitch": 67, "duration": 10, "velocity": 80}, {"time": 46080, "pitch": 55, "duration": 220, "velocity": 100}, {"time": 46080, "pitch": 60, "duration": 220, "velocity": 90}, {"time": 46090, "pitch": 63, "duration": 220, "velocity": 90}, {"time": 46090, "pitch": 67, "duration": 220, "velocity": 100}, {"time": 46320, "pitch": 55, "duration": 80, "velocity": 110}, {"time": 46320, "pitch": 60, "duration": 80, "velocity": 100}, {"time": 46320, "pitch": 63, "duration": 80, "velocity": 100}, {"time": 46320, "pitch": 67, "duration": 80, "velocity": 110}, {"time": 46480, "pitch": 55, "duration": 10, "velocity": 80}, {"time": 46480, "pitch": 60, "duration": 10, "velocity": 70}, {"time": 46480, "pitch": 63, "duration": 10, "velocity": 70}, {"time": 46480, "pitch": 67, "duration": 10, "velocity": 80}, {"time": 46560, "pitch": 53, "duration": 220, "velocity": 100}, {"time": 46560, "pitch": 58, "duration": 220, "velocity": 90}, {"time": 46570, "pitch": 62, "duration": 220, "velocity": 90}, {"time": 46570, "pitch": 67, "duration": 220, "velocity": 100}, {"time": 46800, "pitch": 53, "duration": 80, "velocity": 110}, {"time": 46800, "pitch": 58, "duration": 80, "velocity": 100}, {"time": 46800, "pitch": 62, "duration": 80, "velocity": 100}, {"time": 46800, "pitch": 67, "duration": 80, "velocity": 110}, {"time": 46960, "pitch": 53, "duration": 10, "velocity": 80}, {"time": 46960, "pitch": 58, "duration": 10, "velocity": 70}, {"time": 46960, "pitch": 62, "duration": 10, "velocity": 70}, {"time": 46960, "pitch": 67, "duration": 10, "velocity": 80}, {"time": 47040, "pitch": 53, "duration": 220, "velocity": 100}, {"time": 47040, "pitch": 58, "duration": 220, "velocity": 90}, {"time": 47050, "pitch": 62, "duration": 220, "velocity": 90}, {"time": 47050, "pitch": 67, "duration": 220, "velocity": 100}, {"time": 47280, "pitch": 53, "duration": 80, "velocity": 110}, {"time": 47280, "pitch": 58, "duration": 80, "velocity": 100}, {"time": 47280, "pitch": 62, "duration": 80, "velocity": 100}, {"time": 47280, "pitch": 67, "duration": 80, "velocity": 110}, {"time": 47440, "pitch": 53, "duration": 10, "velocity": 80}, {"time": 47440, "pitch": 58, "duration": 10, "velocity": 70}, {"time": 47440, "pitch": 62, "duration": 10, "velocity": 70}, {"time": 47440, "pitch": 67, "duration": 10, "velocity": 80}, {"time": 47520, "pitch": 56, "duration": 220, "velocity": 100}, {"time": 47520, "pitch": 60, "duration": 220, "velocity": 90}, {"time": 47530, "pitch": 63, "duration": 220, "velocity": 90}, {"time": 47530, "pitch": 68, "duration": 220, "velocity": 100}, {"time": 47760, "pitch": 56, "duration": 80, "velocity": 110}, {"time": 47760, "pitch": 60, "duration": 80, "velocity": 100}, {"time": 47760, "pitch": 63, "duration": 80, "velocity": 100}, {"time": 47760, "pitch": 68, "duration": 80, "velocity": 110}, {"time": 47920, "pitch": 56, "duration": 10, "velocity": 80}, {"time": 47920, "pitch": 60, "duration": 10, "velocity": 70}, {"time": 47920, "pitch": 63, "duration": 10, "velocity": 70}, {"time": 47920, "pitch": 68, "duration": 10, "velocity": 80}, {"time": 48000, "pitch": 56, "duration": 220, "velocity": 100}, {"time": 48000, "pitch": 60, "duration": 220, "velocity": 90}, {"time": 48010, "pitch": 63, "duration": 220, "velocity": 90}, {"time": 48010, "pitch": 68, "duration": 220, "velocity": 100}, {"time": 48240, "pitch": 56, "duration": 80, "velocity": 110}, {"time": 48240, "pitch": 60, "duration": 80, "velocity": 100}, {"time": 48240, "pitch": 63, "duration": 80, "velocity": 100}, {"time": 48240, "pitch": 68, "duration": 80, "velocity": 110}, {"time": 48400, "pitch": 56, "duration": 10, "velocity": 80}, {"time": 48400, "pitch": 60, "duration": 10, "velocity": 70}, {"time": 48400, "pitch": 63, "duration": 10, "velocity": 70}, {"time": 48400, "pitch": 68, "duration": 10, "velocity": 80}, {"time": 48480, "pitch": 55, "duration": 220, "velocity": 100}, {"time": 48480, "pitch": 58, "duration": 220, "velocity": 90}, {"time": 48490, "pitch": 63, "duration": 220, "velocity": 90}, {"time": 48490, "pitch": 67, "duration": 220, "velocity": 100}, {"time": 48720, "pitch": 55, "duration": 80, "velocity": 110}, {"time": 48720, "pitch": 58, "duration": 80, "velocity": 100}, {"time": 48720, "pitch": 63, "duration": 80, "velocity": 100}, {"time": 48720, "pitch": 67, "duration": 80, "velocity": 110}, {"time": 48880, "pitch": 55, "duration": 10, "velocity": 80}, {"time": 48880, "pitch": 58, "duration": 10, "velocity": 70}, {"time": 48880, "pitch": 63, "duration": 10, "velocity": 70}, {"time": 48880, "pitch": 67, "duration": 10, "velocity": 80}, {"time": 48960, "pitch": 55, "duration": 220, "velocity": 100}, {"time": 48960, "pitch": 58, "duration": 220, "velocity": 90}, {"time": 48970, "pitch": 63, "duration": 220, "velocity": 90}, {"time": 48970, "pitch": 67, "duration": 220, "velocity": 100}, {"time": 49200, "pitch": 55, "duration": 80, "velocity": 110}, {"time": 49200, "pitch": 58, "duration": 80, "velocity": 100}, {"time": 49200, "pitch": 63, "duration": 80, "velocity": 100}, {"time": 49200, "pitch": 67, "duration": 80, "velocity": 110}, {"time": 49360, "pitch": 55, "duration": 10, "velocity": 80}, {"time": 49360, "pitch": 58, "duration": 10, "velocity": 70}, {"time": 49360, "pitch": 63, "duration": 10, "velocity": 70}, {"time": 49360, "pitch": 67, "duration": 10, "velocity": 80}, {"time": 49440, "pitch": 56, "duration": 220, "velocity": 100}, {"time": 49440, "pitch": 60, "duration": 220, "velocity": 90}, {"time": 49450, "pitch": 63, "duration": 220, "velocity": 90}, {"time": 49450, "pitch": 68, "duration": 220, "velocity": 100}, {"time": 49680, "pitch": 56, "duration": 80, "velocity": 110}, {"time": 49680, "pitch": 60, "duration": 80, "velocity": 100}, {"time": 49680, "pitch": 63, "duration": 80, "velocity": 100}, {"time": 49680, "pitch": 68, "duration": 80, "velocity": 110}, {"time": 49840, "pitch": 56, "duration": 10, "velocity": 80}, {"time": 49840, "pitch": 60, "duration": 10, "velocity": 70}, {"time": 49840, "pitch": 63, "duration": 10, "velocity": 70}, {"time": 49840, "pitch": 68, "duration": 10, "velocity": 80}, {"time": 49920, "pitch": 56, "duration": 220, "velocity": 100}, {"time": 49920, "pitch": 60, "duration": 220, "velocity": 90}, {"time": 49930, "pitch": 63, "duration": 220, "velocity": 90}, {"time": 49930, "pitch": 68, "duration": 220, "velocity": 100}, {"time": 50160, "pitch": 56, "duration": 80, "velocity": 110}, {"time": 50160, "pitch": 60, "duration": 80, "velocity": 100}, {"time": 50160, "pitch": 63, "duration": 80, "velocity": 100}, {"time": 50160, "pitch": 68, "duration": 80, "velocity": 110}, {"time": 50320, "pitch": 56, "duration": 10, "velocity": 80}, {"time": 50320, "pitch": 60, "duration": 10, "velocity": 70}, {"time": 50320, "pitch": 63, "duration": 10, "velocity": 70}, {"time": 50320, "pitch": 68, "duration": 10, "velocity": 80}, {"time": 50400, "pitch": 54, "duration": 10, "velocity": 80}, {"time": 50400, "pitch": 59, "duration": 10, "velocity": 70}, {"time": 50400, "pitch": 63, "duration": 10, "velocity": 70}, {"time": 50400, "pitch": 66, "duration": 10, "velocity": 80}, {"time": 50480, "pitch": 54, "duration": 80, "velocity": 110}, {"time": 50480, "pitch": 59, "duration": 80, "velocity": 100}, {"time": 50480, "pitch": 63, "duration": 80, "velocity": 100}, {"time": 50480, "pitch": 66, "duration": 80, "velocity": 110}, {"time": 50640, "pitch": 54, "duration": 220, "velocity": 100}, {"time": 50640, "pitch": 59, "duration": 220, "velocity": 90}, {"time": 50650, "pitch": 63, "duration": 220, "velocity": 90}, {"time": 50650, "pitch": 66, "duration": 220, "velocity": 100}, {"time": 50880, "pitch": 53, "duration": 10, "velocity": 80}, {"time": 50880, "pitch": 56, "duration": 10, "velocity": 70}, {"time": 50880, "pitch": 61, "duration": 10, "velocity": 70}, {"time": 50880, "pitch": 65, "duration": 10, "velocity": 80}, {"time": 50960, "pitch": 53, "duration": 80, "velocity": 110}, {"time": 50960, "pitch": 56, "duration": 80, "velocity": 100}, {"time": 50960, "pitch": 61, "duration": 80, "velocity": 100}, {"time": 50960, "pitch": 65, "duration": 80, "velocity": 110}, {"time": 51120, "pitch": 53, "duration": 220, "velocity": 100}, {"time": 51120, "pitch": 56, "duration": 220, "velocity": 90}, {"time": 51130, "pitch": 61, "duration": 220, "velocity": 90}, {"time": 51130, "pitch": 65, "duration": 220, "velocity": 100}, {"time": 51360, "pitch": 55, "duration": 220, "velocity": 100}, {"time": 51360, "pitch": 58, "duration": 220, "velocity": 90}, {"time": 51370, "pitch": 63, "duration": 220, "velocity": 90}, {"time": 51370, "pitch": 67, "duration": 220, "velocity": 100}, {"time": 51600, "pitch": 55, "duration": 80, "velocity": 110}, {"time": 51600, "pitch": 58, "duration": 80, "velocity": 100}, {"time": 51600, "pitch": 63, "duration": 80, "velocity": 100}, {"time": 51600, "pitch": 67, "duration": 80, "velocity": 110}, {"time": 51760, "pitch": 55, "duration": 10, "velocity": 80}, {"time": 51760, "pitch": 58, "duration": 10, "velocity": 70}, {"time": 51760, "pitch": 63, "duration": 10, "velocity": 70}, {"time": 51760, "pitch": 67, "duration": 10, "velocity": 80}, {"time": 51840, "pitch": 55, "duration": 220, "velocity": 100}, {"time": 51840, "pitch": 58, "duration": 220, "velocity": 90}, {"time": 51850, "pitch": 63, "duration": 220, "velocity": 90}, {"time": 51850, "pitch": 67, "duration": 220, "velocity": 100}, {"time": 52080, "pitch": 55, "duration": 80, "velocity": 110}, {"time": 52080, "pitch": 58, "duration": 80, "velocity": 100}, {"time": 52080, "pitch": 63, "duration": 80, "velocity": 100}, {"time": 52080, "pitch": 67, "duration": 80, "velocity": 110}, {"time": 52240, "pitch": 55, "duration": 10, "velocity": 80}, {"time": 52240, "pitch": 58, "duration": 10, "velocity": 70}, {"time": 52240, "pitch": 63, "duration": 10, "velocity": 70}, {"time": 52240, "pitch": 67, "duration": 10, "velocity": 80}, {"time": 52320, "pitch": 53, "duration": 220, "velocity": 100}, {"time": 52320, "pitch": 58, "duration": 220, "velocity": 90}, {"time": 52330, "pitch": 62, "duration": 220, "velocity": 90}, {"time": 52330, "pitch": 65, "duration": 220, "velocity": 100}, {"time": 52560, "pitch": 53, "duration": 80, "velocity": 110}, {"time": 52560, "pitch": 58, "duration": 80, "velocity": 100}, {"time": 52560, "pitch": 62, "duration": 80, "velocity": 100}, {"time": 52560, "pitch": 65, "duration": 80, "velocity": 110}, {"time": 52720, "pitch": 53, "duration": 10, "velocity": 80}, {"time": 52720, "pitch": 58, "duration": 10, "velocity": 70}, {"time": 52720, "pitch": 62, "duration": 10, "velocity": 70}, {"time": 52720, "pitch": 65, "duration": 10, "velocity": 80}, {"time": 52800, "pitch": 53, "duration": 220, "velocity": 100}, {"time": 52800, "pitch": 58, "duration": 220, "velocity": 90}, {"time": 52810, "pitch": 62, "duration": 220, "velocity": 90}, {"time": 52810, "pitch": 65, "duration": 220, "velocity": 100}, {"time": 53040, "pitch": 53, "duration": 80, "velocity": 110}, {"time": 53040, "pitch": 58, "duration": 80, "velocity": 100}, {"time": 53040, "pitch": 62, "duration": 80, "velocity": 100}, {"time": 53040, "pitch": 65, "duration": 80, "velocity": 110}, {"time": 53200, "pitch": 53, "duration": 10, "velocity": 80}, {"time": 53200, "pitch": 58, "duration": 10, "velocity": 70}, {"time": 53200, "pitch": 62, "duration": 10, "velocity": 70}, {"time": 53200, "pitch": 65, "duration": 10, "velocity": 80}, {"time": 53280, "pitch": 55, "duration": 220, "velocity": 100}, {"time": 53280, "pitch": 60, "duration": 220, "velocity": 90}, {"time": 53290, "pitch": 63, "duration": 220, "velocity": 90}, {"time": 53290, "pitch": 67, "duration": 220, "velocity": 100}, {"time": 53520, "pitch": 55, "duration": 80, "velocity": 110}, {"time": 53520, "pitch": 60, "duration": 80, "velocity": 100}, {"time": 53520, "pitch": 63, "duration": 80, "velocity": 100}, {"time": 53520, "pitch": 67, "duration": 80, "velocity": 110}, {"time": 53680, "pitch": 55, "duration": 10, "velocity": 80}, {"time": 53680, "pitch": 60, "duration": 10, "velocity": 70}, {"time": 53680, "pitch": 63, "duration": 10, "velocity": 70}, {"time": 53680, "pitch": 67, "duration": 10, "velocity": 80}, {"time": 53760, "pitch": 55, "duration": 220, "velocity": 100}, {"time": 53760, "pitch": 60, "duration": 220, "velocity": 90}, {"time": 53770, "pitch": 63, "duration": 220, "velocity": 90}, {"time": 53770, "pitch": 67, "duration": 220, "velocity": 100}, {"time": 54000, "pitch": 55, "duration": 80, "velocity": 110}, {"time": 54000, "pitch": 60, "duration": 80, "velocity": 100}, {"time": 54000, "pitch": 63, "duration": 80, "velocity": 100}, {"time": 54000, "pitch": 67, "duration": 80, "velocity": 110}, {"time": 54160, "pitch": 55, "duration": 10, "velocity": 80}, {"time": 54160, "pitch": 60, "duration": 10, "velocity": 70}, {"time": 54160, "pitch": 63, "duration": 10, "velocity": 70}, {"time": 54160, "pitch": 67, "duration": 10, "velocity": 80}, {"time": 54240, "pitch": 53, "duration": 220, "velocity": 100}, {"time": 54240, "pitch": 58, "duration": 220, "velocity": 90}, {"time": 54250, "pitch": 62, "duration": 220, "velocity": 90}, {"time": 54250, "pitch": 67, "duration": 220, "velocity": 100}, {"time": 54480, "pitch": 53, "duration": 80, "velocity": 110}, {"time": 54480, "pitch": 58, "duration": 80, "velocity": 100}, {"time": 54480, "pitch": 62, "duration": 80, "velocity": 100}, {"time": 54480, "pitch": 67, "duration": 80, "velocity": 110}, {"time": 54640, "pitch": 53, "duration": 10, "velocity": 80}, {"time": 54640, "pitch": 58, "duration": 10, "velocity": 70}, {"time": 54640, "pitch": 62, "duration": 10, "velocity": 70}, {"time": 54640, "pitch": 67, "duration": 10, "velocity": 80}, {"time": 54720, "pitch": 53, "duration": 220, "velocity": 100}, {"time": 54720, "pitch": 58, "duration": 220, "velocity": 90}, {"time": 54730, "pitch": 62, "duration": 220, "velocity": 90}, {"time": 54730, "pitch": 67, "duration": 220, "velocity": 100}, {"time": 54960, "pitch": 53, "duration": 80, "velocity": 110}, {"time": 54960, "pitch": 58, "duration": 80, "velocity": 100}, {"time": 54960, "pitch": 62, "duration": 80, "velocity": 100}, {"time": 54960, "pitch": 67, "duration": 80, "velocity": 110}, {"time": 55120, "pitch": 53, "duration": 10, "velocity": 80}, {"time": 55120, "pitch": 58, "duration": 10, "velocity": 70}, {"time": 55120, "pitch": 62, "duration": 10, "velocity": 70}, {"time": 55120, "pitch": 67, "duration": 10, "velocity": 80}, {"time": 55200, "pitch": 56, "duration": 220, "velocity": 100}, {"time": 55200, "pitch": 60, "duration": 220, "velocity": 90}, {"time": 55210, "pitch": 63, "duration": 220, "velocity": 90}, {"time": 55210, "pitch": 68, "duration": 220, "velocity": 100}, {"time": 55440, "pitch": 56, "duration": 80, "velocity": 110}, {"time": 55440, "pitch": 60, "duration": 80, "velocity": 100}, {"time": 55440, "pitch": 63, "duration": 80, "velocity": 100}, {"time": 55440, "pitch": 68, "duration": 80, "velocity": 110}, {"time": 55600, "pitch": 56, "duration": 10, "velocity": 80}, {"time": 55600, "pitch": 60, "duration": 10, "velocity": 70}, {"time": 55600, "pitch": 63, "duration": 10, "velocity": 70}, {"time": 55600, "pitch": 68, "duration": 10, "velocity": 80}, {"time": 55680, "pitch": 56, "duration": 220, "velocity": 100}, {"time": 55680, "pitch": 60, "duration": 220, "velocity": 90}, {"time": 55690, "pitch": 63, "duration": 220, "velocity": 90}, {"time": 55690, "pitch": 68, "duration": 220, "velocity": 100}, {"time": 55920, "pitch": 56, "duration": 80, "velocity": 110}, {"time": 55920, "pitch": 60, "duration": 80, "velocity": 100}, {"time": 55920, "pitch": 63, "duration": 80, "velocity": 100}, {"time": 55920, "pitch": 68, "duration": 80, "velocity": 110}, {"time": 56080, "pitch": 56, "duration": 10, "velocity": 80}, {"time": 56080, "pitch": 60, "duration": 10, "velocity": 70}, {"time": 56080, "pitch": 63, "duration": 10, "velocity": 70}, {"time": 56080, "pitch": 68, "duration": 10, "velocity": 80}, {"time": 56160, "pitch": 55, "duration": 220, "velocity": 100}, {"time": 56160, "pitch": 58, "duration": 220, "velocity": 90}, {"time": 56170, "pitch": 63, "duration": 220, "velocity": 90}, {"time": 56170, "pitch": 67, "duration": 220, "velocity": 100}, {"time": 56400, "pitch": 55, "duration": 80, "velocity": 110}, {"time": 56400, "pitch": 58, "duration": 80, "velocity": 100}, {"time": 56400, "pitch": 63, "duration": 80, "velocity": 100}, {"time": 56400, "pitch": 67, "duration": 80, "velocity": 110}, {"time": 56560, "pitch": 55, "duration": 10, "velocity": 80}, {"time": 56560, "pitch": 58, "duration": 10, "velocity": 70}, {"time": 56560, "pitch": 63, "duration": 10, "velocity": 70}, {"time": 56560, "pitch": 67, "duration": 10, "velocity": 80}, {"time": 56640, "pitch": 55, "duration": 220, "velocity": 100}, {"time": 56640, "pitch": 58, "duration": 220, "velocity": 90}, {"time": 56650, "pitch": 63, "duration": 220, "velocity": 90}, {"time": 56650, "pitch": 67, "duration": 220, "velocity": 100}, {"time": 56880, "pitch": 55, "duration": 80, "velocity": 110}, {"time": 56880, "pitch": 58, "duration": 80, "velocity": 100}, {"time": 56880, "pitch": 63, "duration": 80, "velocity": 100}, {"time": 56880, "pitch": 67, "duration": 80, "velocity": 110}, {"time": 57040, "pitch": 55, "duration": 10, "velocity": 80}, {"time": 57040, "pitch": 58, "duration": 10, "velocity": 70}, {"time": 57040, "pitch": 63, "duration": 10, "velocity": 70}, {"time": 57040, "pitch": 67, "duration": 10, "velocity": 80}, {"time": 57120, "pitch": 56, "duration": 220, "velocity": 100}, {"time": 57120, "pitch": 60, "duration": 220, "velocity": 90}, {"time": 57130, "pitch": 63, "duration": 220, "velocity": 90}, {"time": 57130, "pitch": 68, "duration": 220, "velocity": 100}, {"time": 57360, "pitch": 56, "duration": 80, "velocity": 110}, {"time": 57360, "pitch": 60, "duration": 80, "velocity": 100}, {"time": 57360, "pitch": 63, "duration": 80, "velocity": 100}, {"time": 57360, "pitch": 68, "duration": 80, "velocity": 110}, {"time": 57520, "pitch": 56, "duration": 10, "velocity": 80}, {"time": 57520, "pitch": 60, "duration": 10, "velocity": 70}, {"time": 57520, "pitch": 63, "duration": 10, "velocity": 70}, {"time": 57520, "pitch": 68, "duration": 10, "velocity": 80}, {"time": 57600, "pitch": 56, "duration": 220, "velocity": 100}, {"time": 57600, "pitch": 60, "duration": 220, "velocity": 90}, {"time": 57610, "pitch": 63, "duration": 220, "velocity": 90}, {"time": 57610, "pitch": 68, "duration": 220, "velocity": 100}, {"time": 57840, "pitch": 56, "duration": 80, "velocity": 110}, {"time": 57840, "pitch": 60, "duration": 80, "velocity": 100}, {"time": 57840, "pitch": 63, "duration": 80, "velocity": 100}, {"time": 57840, "pitch": 68, "duration": 80, "velocity": 110}, {"time": 58000, "pitch": 56, "duration": 10, "velocity": 80}, {"time": 58000, "pitch": 60, "duration": 10, "velocity": 70}, {"time": 58000, "pitch": 63, "duration": 10, "velocity": 70}, {"time": 58000, "pitch": 68, "duration": 10, "velocity": 80}, {"time": 58080, "pitch": 53, "duration": 220, "velocity": 110}, {"time": 58080, "pitch": 58, "duration": 220, "velocity": 100}, {"time": 58090, "pitch": 63, "duration": 220, "velocity": 100}, {"time": 58090, "pitch": 68, "duration": 220, "velocity": 110}, {"time": 58320, "pitch": 53, "duration": 80, "velocity": 110}, {"time": 58320, "pitch": 58, "duration": 80, "velocity": 100}, {"time": 58330, "pitch": 63, "duration": 80, "velocity": 100}, {"time": 58330, "pitch": 68, "duration": 80, "velocity": 110}, {"time": 59040, "pitch": 56, "duration": 220, "velocity": 100}, {"time": 59040, "pitch": 60, "duration": 220, "velocity": 90}, {"time": 59050, "pitch": 63, "duration": 220, "velocity": 90}, {"time": 59050, "pitch": 68, "duration": 220, "velocity": 100}, {"time": 59280, "pitch": 56, "duration": 80, "velocity": 110}, {"time": 59280, "pitch": 60, "duration": 80, "velocity": 100}, {"time": 59280, "pitch": 63, "duration": 80, "velocity": 100}, {"time": 59280, "pitch": 68, "duration": 80, "velocity": 110}, {"time": 59440, "pitch": 56, "duration": 10, "velocity": 80}, {"time": 59440, "pitch": 60, "duration": 10, "velocity": 70}, {"time": 59440, "pitch": 63, "duration": 10, "velocity": 70}, {"time": 59440, "pitch": 68, "duration": 10, "velocity": 80}, {"time": 59520, "pitch": 56, "duration": 220, "velocity": 100}, {"time": 59520, "pitch": 60, "duration": 220, "velocity": 90}, {"time": 59530, "pitch": 63, "duration": 220, "velocity": 90}, {"time": 59530, "pitch": 68, "duration": 220, "velocity": 100}, {"time": 59760, "pitch": 56, "duration": 80, "velocity": 110}, {"time": 59760, "pitch": 60, "duration": 80, "velocity": 100}, {"time": 59760, "pitch": 63, "duration": 80, "velocity": 100}, {"time": 59760, "pitch": 68, "duration": 80, "velocity": 110}, {"time": 59920, "pitch": 56, "duration": 10, "velocity": 80}, {"time": 59920, "pitch": 60, "duration": 10, "velocity": 70}, {"time": 59920, "pitch": 63, "duration": 10, "velocity": 70}, {"time": 59920, "pitch": 68, "duration": 10, "velocity": 80}, {"time": 60000, "pitch": 55, "duration": 220, "velocity": 100}, {"time": 60000, "pitch": 58, "duration": 220, "velocity": 90}, {"time": 60010, "pitch": 63, "duration": 220, "velocity": 90}, {"time": 60010, "pitch": 70, "duration": 220, "velocity": 100}, {"time": 60240, "pitch": 55, "duration": 80, "velocity": 110}, {"time": 60240, "pitch": 58, "duration": 80, "velocity": 100}, {"time": 60240, "pitch": 63, "duration": 80, "velocity": 100}, {"time": 60240, "pitch": 70, "duration": 80, "velocity": 110}, {"time": 60400, "pitch": 55, "duration": 10, "velocity": 80}, {"time": 60400, "pitch": 58, "duration": 10, "velocity": 70}, {"time": 60400, "pitch": 63, "duration": 10, "velocity": 70}, {"time": 60400, "pitch": 70, "duration": 10, "velocity": 80}, {"time": 60480, "pitch": 54, "duration": 220, "velocity": 100}, {"time": 60480, "pitch": 60, "duration": 220, "velocity": 90}, {"time": 60490, "pitch": 63, "duration": 220, "velocity": 90}, {"time": 60490, "pitch": 69, "duration": 220, "velocity": 100}, {"time": 60720, "pitch": 54, "duration": 80, "velocity": 110}, {"time": 60720, "pitch": 60, "duration": 80, "velocity": 100}, {"time": 60720, "pitch": 63, "duration": 80, "velocity": 100}, {"time": 60720, "pitch": 69, "duration": 80, "velocity": 110}, {"time": 60880, "pitch": 54, "duration": 10, "velocity": 80}, {"time": 60880, "pitch": 60, "duration": 10, "velocity": 70}, {"time": 60880, "pitch": 63, "duration": 10, "velocity": 70}, {"time": 60880, "pitch": 69, "duration": 10, "velocity": 80}, {"time": 60960, "pitch": 56, "duration": 450, "velocity": 100}, {"time": 60960, "pitch": 60, "duration": 450, "velocity": 90}, {"time": 60970, "pitch": 63, "duration": 450, "velocity": 90}, {"time": 60970, "pitch": 68, "duration": 450, "velocity": 100}, {"time": 61440, "pitch": 53, "duration": 10, "velocity": 80}, {"time": 61440, "pitch": 58, "duration": 10, "velocity": 70}, {"time": 61440, "pitch": 63, "duration": 10, "velocity": 70}, {"time": 61440, "pitch": 68, "duration": 10, "velocity": 80}, {"time": 61600, "pitch": 63, "duration": 310, "velocity": 100}, {"time": 61600, "pitch": 68, "duration": 310, "velocity": 110}, {"time": 61610, "pitch": 53, "duration": 310, "velocity": 110}, {"time": 61610, "pitch": 58, "duration": 310, "velocity": 100}, {"time": 61920, "pitch": 55, "duration": 150, "velocity": 100}, {"time": 61920, "pitch": 58, "duration": 150, "velocity": 90}, {"time": 61930, "pitch": 63, "duration": 150, "velocity": 90}, {"time": 61930, "pitch": 67, "duration": 150, "velocity": 100}, {"time": 62160, "pitch": 55, "duration": 150, "velocity": 100}, {"time": 62160, "pitch": 58, "duration": 150, "velocity": 90}, {"time": 62170, "pitch": 63, "duration": 150, "velocity": 90}, {"time": 62170, "pitch": 67, "duration": 150, "velocity": 100}, {"time": 62400, "pitch": 55, "duration": 150, "velocity": 100}, {"time": 62400, "pitch": 58, "duration": 150, "velocity": 90}, {"time": 62410, "pitch": 63, "duration": 150, "velocity": 90}, {"time": 62410, "pitch": 67, "duration": 150, "velocity": 100}, {"time": 62640, "pitch": 55, "duration": 150, "velocity": 100}, {"time": 62640, "pitch": 58, "duration": 150, "velocity": 90}, {"time": 62650, "pitch": 63, "duration": 150, "velocity": 90}, {"time": 62650, "pitch": 67, "duration": 150, "velocity": 100}, {"time": 62880, "pitch": 56, "duration": 150, "velocity": 100}, {"time": 62880, "pitch": 60, "duration": 150, "velocity": 90}, {"time": 62890, "pitch": 63, "duration": 150, "velocity": 90}, {"time": 62890, "pitch": 68, "duration": 150, "velocity": 100}, {"time": 63120, "pitch": 56, "duration": 150, "velocity": 100}, {"time": 63120, "pitch": 60, "duration": 150, "velocity": 90}, {"time": 63130, "pitch": 63, "duration": 150, "velocity": 90}, {"time": 63130, "pitch": 68, "duration": 150, "velocity": 100}, {"time": 63360, "pitch": 56, "duration": 150, "velocity": 100}, {"time": 63360, "pitch": 60, "duration": 150, "velocity": 90}, {"time": 63370, "pitch": 63, "duration": 150, "velocity": 90}, {"time": 63370, "pitch": 68, "duration": 150, "velocity": 100}, {"time": 63600, "pitch": 56, "duration": 150, "velocity": 100}, {"time": 63600, "pitch": 60, "duration": 150, "velocity": 90}, {"time": 63610, "pitch": 63, "duration": 150, "velocity": 90}, {"time": 63610, "pitch": 68, "duration": 150, "velocity": 100}, {"time": 63840, "pitch": 56, "duration": 150, "velocity": 100}, {"time": 63840, "pitch": 60, "duration": 150, "velocity": 90}, {"time": 63850, "pitch": 63, "duration": 150, "velocity": 90}, {"time": 63850, "pitch": 68, "duration": 150, "velocity": 100}, {"time": 64080, "pitch": 56, "duration": 150, "velocity": 100}, {"time": 64080, "pitch": 60, "duration": 150, "velocity": 90}, {"time": 64090, "pitch": 63, "duration": 150, "velocity": 90}, {"time": 64090, "pitch": 68, "duration": 150, "velocity": 100}, {"time": 64320, "pitch": 56, "duration": 150, "velocity": 100}, {"time": 64320, "pitch": 60, "duration": 150, "velocity": 90}, {"time": 64330, "pitch": 63, "duration": 150, "velocity": 90}, {"time": 64330, "pitch": 68, "duration": 150, "velocity": 100}, {"time": 64560, "pitch": 56, "duration": 150, "velocity": 100}, {"time": 64560, "pitch": 60, "duration": 150, "velocity": 90}, {"time": 64570, "pitch": 63, "duration": 150, "velocity": 90}, {"time": 64570, "pitch": 68, "duration": 150, "velocity": 100}, {"time": 64800, "pitch": 55, "duration": 150, "velocity": 100}, {"time": 64800, "pitch": 58, "duration": 150, "velocity": 90}, {"time": 64810, "pitch": 63, "duration": 150, "velocity": 90}, {"time": 64810, "pitch": 67, "duration": 150, "velocity": 100}, {"time": 65040, "pitch": 55, "duration": 150, "velocity": 100}, {"time": 65040, "pitch": 58, "duration": 150, "velocity": 90}, {"time": 65050, "pitch": 63, "duration": 150, "velocity": 90}, {"time": 65050, "pitch": 67, "duration": 150, "velocity": 100}, {"time": 65280, "pitch": 55, "duration": 150, "velocity": 100}, {"time": 65280, "pitch": 58, "duration": 150, "velocity": 90}, {"time": 65290, "pitch": 63, "duration": 150, "velocity": 90}, {"time": 65290, "pitch": 67, "duration": 150, "velocity": 100}, {"time": 65520, "pitch": 55, "duration": 150, "velocity": 100}, {"time": 65520, "pitch": 58, "duration": 150, "velocity": 90}, {"time": 65530, "pitch": 63, "duration": 150, "velocity": 90}, {"time": 65530, "pitch": 67, "duration": 150, "velocity": 100}, {"time": 65760, "pitch": 56, "duration": 150, "velocity": 100}, {"time": 65760, "pitch": 60, "duration": 150, "velocity": 90}, {"time": 65770, "pitch": 63, "duration": 150, "velocity": 90}, {"time": 65770, "pitch": 68, "duration": 150, "velocity": 100}, {"time": 66000, "pitch": 56, "duration": 150, "velocity": 100}, {"time": 66000, "pitch": 60, "duration": 150, "velocity": 90}, {"time": 66010, "pitch": 63, "duration": 150, "velocity": 90}, {"time": 66010, "pitch": 68, "duration": 150, "velocity": 100}, {"time": 66240, "pitch": 56, "duration": 150, "velocity": 100}, {"time": 66240, "pitch": 60, "duration": 150, "velocity": 90}, {"time": 66250, "pitch": 63, "duration": 150, "velocity": 90}, {"time": 66250, "pitch": 68, "duration": 150, "velocity": 100}, {"time": 66480, "pitch": 56, "duration": 150, "velocity": 100}, {"time": 66480, "pitch": 60, "duration": 150, "velocity": 90}, {"time": 66490, "pitch": 63, "duration": 150, "velocity": 90}, {"time": 66490, "pitch": 68, "duration": 150, "velocity": 100}, {"time": 66720, "pitch": 53, "duration": 150, "velocity": 100}, {"time": 66720, "pitch": 58, "duration": 150, "velocity": 90}, {"time": 66730, "pitch": 63, "duration": 150, "velocity": 90}, {"time": 66730, "pitch": 68, "duration": 150, "velocity": 100}, {"time": 66960, "pitch": 53, "duration": 150, "velocity": 100}, {"time": 66960, "pitch": 58, "duration": 150, "velocity": 90}, {"time": 66970, "pitch": 63, "duration": 150, "velocity": 90}, {"time": 66970, "pitch": 68, "duration": 150, "velocity": 100}, {"time": 67200, "pitch": 53, "duration": 150, "velocity": 100}, {"time": 67200, "pitch": 58, "duration": 150, "velocity": 90}, {"time": 67210, "pitch": 63, "duration": 150, "velocity": 90}, {"time": 67210, "pitch": 68, "duration": 150, "velocity": 100}, {"time": 67440, "pitch": 53, "duration": 150, "velocity": 100}, {"time": 67440, "pitch": 58, "duration": 150, "velocity": 90}, {"time": 67450, "pitch": 63, "duration": 150, "velocity": 90}, {"time": 67450, "pitch": 68, "duration": 150, "velocity": 100}, {"time": 67680, "pitch": 55, "duration": 150, "velocity": 100}, {"time": 67680, "pitch": 58, "duration": 150, "velocity": 90}, {"time": 67690, "pitch": 63, "duration": 150, "velocity": 90}, {"time": 67690, "pitch": 67, "duration": 150, "velocity": 100}, {"time": 67920, "pitch": 55, "duration": 150, "velocity": 100}, {"time": 67920, "pitch": 58, "duration": 150, "velocity": 90}, {"time": 67930, "pitch": 63, "duration": 150, "velocity": 90}, {"time": 67930, "pitch": 67, "duration": 150, "velocity": 100}, {"time": 68160, "pitch": 55, "duration": 150, "velocity": 100}, {"time": 68160, "pitch": 58, "duration": 150, "velocity": 90}, {"time": 68170, "pitch": 63, "duration": 150, "velocity": 90}, {"time": 68170, "pitch": 67, "duration": 150, "velocity": 100}, {"time": 68400, "pitch": 55, "duration": 150, "velocity": 100}, {"time": 68400, "pitch": 58, "duration": 150, "velocity": 90}, {"time": 68410, "pitch": 63, "duration": 150, "velocity": 90}, {"time": 68410, "pitch": 67, "duration": 150, "velocity": 100}, {"time": 68640, "pitch": 53, "duration": 10, "velocity": 80}, {"time": 68640, "pitch": 58, "duration": 10, "velocity": 70}, {"time": 68640, "pitch": 63, "duration": 10, "velocity": 70}, {"time": 68640, "pitch": 68, "duration": 10, "velocity": 80}, {"time": 68800, "pitch": 53, "duration": 10, "velocity": 80}, {"time": 68800, "pitch": 58, "duration": 10, "velocity": 70}, {"time": 68800, "pitch": 63, "duration": 10, "velocity": 70}, {"time": 68800, "pitch": 68, "duration": 10, "velocity": 80}, {"time": 68880, "pitch": 53, "duration": 80, "velocity": 110}, {"time": 68880, "pitch": 58, "duration": 80, "velocity": 100}, {"time": 68890, "pitch": 63, "duration": 80, "velocity": 100}, {"time": 68890, "pitch": 68, "duration": 80, "velocity": 110}, {"time": 69120, "pitch": 53, "duration": 10, "velocity": 80}, {"time": 69120, "pitch": 58, "duration": 10, "velocity": 70}, {"time": 69120, "pitch": 63, "duration": 10, "velocity": 70}, {"time": 69120, "pitch": 68, "duration": 10, "velocity": 80}, {"time": 69280, "pitch": 63, "duration": 310, "velocity": 100}, {"time": 69280, "pitch": 68, "duration": 310, "velocity": 110}, {"time": 69290, "pitch": 53, "duration": 310, "velocity": 110}, {"time": 69290, "pitch": 58, "duration": 310, "velocity": 100}, {"time": 69600, "pitch": 55, "duration": 150, "velocity": 100}, {"time": 69600, "pitch": 58, "duration": 150, "velocity": 90}, {"time": 69610, "pitch": 63, "duration": 150, "velocity": 90}, {"time": 69610, "pitch": 67, "duration": 150, "velocity": 100}, {"time": 69840, "pitch": 55, "duration": 150, "velocity": 100}, {"time": 69840, "pitch": 58, "duration": 150, "velocity": 90}, {"time": 69850, "pitch": 63, "duration": 150, "velocity": 90}, {"time": 69850, "pitch": 67, "duration": 150, "velocity": 100}, {"time": 70080, "pitch": 55, "duration": 150, "velocity": 100}, {"time": 70080, "pitch": 58, "duration": 150, "velocity": 90}, {"time": 70090, "pitch": 63, "duration": 150, "velocity": 90}, {"time": 70090, "pitch": 67, "duration": 150, "velocity": 100}, {"time": 70320, "pitch": 55, "duration": 150, "velocity": 100}, {"time": 70320, "pitch": 58, "duration": 150, "velocity": 90}, {"time": 70330, "pitch": 63, "duration": 150, "velocity": 90}, {"time": 70330, "pitch": 67, "duration": 150, "velocity": 100}, {"time": 70560, "pitch": 56, "duration": 150, "velocity": 100}, {"time": 70560, "pitch": 60, "duration": 150, "velocity": 90}, {"time": 70570, "pitch": 63, "duration": 150, "velocity": 90}, {"time": 70570, "pitch": 68, "duration": 150, "velocity": 100}, {"time": 70800, "pitch": 56, "duration": 150, "velocity": 100}, {"time": 70800, "pitch": 60, "duration": 150, "velocity": 90}, {"time": 70810, "pitch": 63, "duration": 150, "velocity": 90}, {"time": 70810, "pitch": 68, "duration": 150, "velocity": 100}, {"time": 71040, "pitch": 56, "duration": 150, "velocity": 100}, {"time": 71040, "pitch": 60, "duration": 150, "velocity": 90}, {"time": 71050, "pitch": 63, "duration": 150, "velocity": 90}, {"time": 71050, "pitch": 68, "duration": 150, "velocity": 100}, {"time": 71280, "pitch": 56, "duration": 150, "velocity": 100}, {"time": 71280, "pitch": 60, "duration": 150, "velocity": 90}, {"time": 71290, "pitch": 63, "duration": 150, "velocity": 90}, {"time": 71290, "pitch": 68, "duration": 150, "velocity": 100}, {"time": 71520, "pitch": 56, "duration": 150, "velocity": 100}, {"time": 71520, "pitch": 60, "duration": 150, "velocity": 90}, {"time": 71530, "pitch": 63, "duration": 150, "velocity": 90}, {"time": 71530, "pitch": 68, "duration": 150, "velocity": 100}, {"time": 71760, "pitch": 56, "duration": 150, "velocity": 100}, {"time": 71760, "pitch": 60, "duration": 150, "velocity": 90}, {"time": 71770, "pitch": 63, "duration": 150, "velocity": 90}, {"time": 71770, "pitch": 68, "duration": 150, "velocity": 100}, {"time": 72000, "pitch": 56, "duration": 150, "velocity": 100}, {"time": 72000, "pitch": 60, "duration": 150, "velocity": 90}, {"time": 72010, "pitch": 63, "duration": 150, "velocity": 90}, {"time": 72010, "pitch": 68, "duration": 150, "velocity": 100}, {"time": 72240, "pitch": 56, "duration": 150, "velocity": 100}, {"time": 72240, "pitch": 60, "duration": 150, "velocity": 90}, {"time": 72250, "pitch": 63, "duration": 150, "velocity": 90}, {"time": 72250, "pitch": 68, "duration": 150, "velocity": 100}, {"time": 72480, "pitch": 55, "duration": 150, "velocity": 100}, {"time": 72480, "pitch": 58, "duration": 150, "velocity": 90}, {"time": 72490, "pitch": 63, "duration": 150, "velocity": 90}, {"time": 72490, "pitch": 67, "duration": 150, "velocity": 100}, {"time": 72720, "pitch": 55, "duration": 150, "velocity": 100}, {"time": 72720, "pitch": 58, "duration": 150, "velocity": 90}, {"time": 72730, "pitch": 63, "duration": 150, "velocity": 90}, {"time": 72730, "pitch": 67, "duration": 150, "velocity": 100}, {"time": 72960, "pitch": 51, "duration": 150, "velocity": 100}, {"time": 72960, "pitch": 58, "duration": 150, "velocity": 90}, {"time": 72970, "pitch": 61, "duration": 150, "velocity": 90}, {"time": 72970, "pitch": 67, "duration": 150, "velocity": 100}, {"time": 73200, "pitch": 51, "duration": 150, "velocity": 100}, {"time": 73200, "pitch": 58, "duration": 150, "velocity": 90}, {"time": 73210, "pitch": 61, "duration": 150, "velocity": 90}, {"time": 73210, "pitch": 67, "duration": 150, "velocity": 100}, {"time": 73440, "pitch": 56, "duration": 150, "velocity": 100}, {"time": 73440, "pitch": 60, "duration": 150, "velocity": 90}, {"time": 73450, "pitch": 63, "duration": 150, "velocity": 90}, {"time": 73450, "pitch": 68, "duration": 150, "velocity": 100}, {"time": 73680, "pitch": 56, "duration": 150, "velocity": 100}, {"time": 73680, "pitch": 60, "duration": 150, "velocity": 90}, {"time": 73690, "pitch": 63, "duration": 150, "velocity": 90}, {"time": 73690, "pitch": 68, "duration": 150, "velocity": 100}, {"time": 73920, "pitch": 55, "duration": 150, "velocity": 100}, {"time": 73920, "pitch": 58, "duration": 150, "velocity": 90}, {"time": 73930, "pitch": 63, "duration": 150, "velocity": 90}, {"time": 73930, "pitch": 67, "duration": 150, "velocity": 100}, {"time": 74160, "pitch": 55, "duration": 150, "velocity": 100}, {"time": 74160, "pitch": 58, "duration": 150, "velocity": 90}, {"time": 74170, "pitch": 63, "duration": 150, "velocity": 90}, {"time": 74170, "pitch": 67, "duration": 150, "velocity": 100}, {"time": 74400, "pitch": 56, "duration": 150, "velocity": 100}, {"time": 74400, "pitch": 60, "duration": 150, "velocity": 90}, {"time": 74410, "pitch": 63, "duration": 150, "velocity": 90}, {"time": 74410, "pitch": 68, "duration": 150, "velocity": 100}, {"time": 74640, "pitch": 56, "duration": 150, "velocity": 100}, {"time": 74640, "pitch": 60, "duration": 150, "velocity": 90}, {"time": 74650, "pitch": 63, "duration": 150, "velocity": 90}, {"time": 74650, "pitch": 68, "duration": 150, "velocity": 100}, {"time": 74880, "pitch": 53, "duration": 150, "velocity": 100}, {"time": 74880, "pitch": 58, "duration": 150, "velocity": 90}, {"time": 74890, "pitch": 63, "duration": 150, "velocity": 90}, {"time": 74890, "pitch": 68, "duration": 150, "velocity": 100}, {"time": 75120, "pitch": 53, "duration": 150, "velocity": 100}, {"time": 75120, "pitch": 58, "duration": 150, "velocity": 90}, {"time": 75130, "pitch": 63, "duration": 150, "velocity": 90}, {"time": 75130, "pitch": 68, "duration": 150, "velocity": 100}, {"time": 75360, "pitch": 55, "duration": 150, "velocity": 100}, {"time": 75360, "pitch": 58, "duration": 150, "velocity": 90}, {"time": 75370, "pitch": 63, "duration": 150, "velocity": 90}, {"time": 75370, "pitch": 67, "duration": 150, "velocity": 100}, {"time": 75600, "pitch": 55, "duration": 150, "velocity": 100}, {"time": 75600, "pitch": 58, "duration": 150, "velocity": 90}, {"time": 75610, "pitch": 63, "duration": 150, "velocity": 90}, {"time": 75610, "pitch": 67, "duration": 150, "velocity": 100}, {"time": 75840, "pitch": 55, "duration": 150, "velocity": 100}, {"time": 75840, "pitch": 58, "duration": 150, "velocity": 90}, {"time": 75850, "pitch": 63, "duration": 150, "velocity": 90}, {"time": 75850, "pitch": 67, "duration": 150, "velocity": 100}, {"time": 76080, "pitch": 55, "duration": 150, "velocity": 100}, {"time": 76080, "pitch": 58, "duration": 150, "velocity": 90}, {"time": 76090, "pitch": 63, "duration": 150, "velocity": 90}, {"time": 76090, "pitch": 67, "duration": 150, "velocity": 100}, {"time": 76320, "pitch": 54, "duration": 10, "velocity": 80}, {"time": 76320, "pitch": 59, "duration": 10, "velocity": 70}, {"time": 76320, "pitch": 63, "duration": 10, "velocity": 70}, {"time": 76320, "pitch": 66, "duration": 10, "velocity": 80}, {"time": 76400, "pitch": 54, "duration": 80, "velocity": 110}, {"time": 76400, "pitch": 59, "duration": 80, "velocity": 100}, {"time": 76400, "pitch": 63, "duration": 80, "velocity": 100}, {"time": 76400, "pitch": 66, "duration": 80, "velocity": 110}, {"time": 76560, "pitch": 54, "duration": 220, "velocity": 100}, {"time": 76560, "pitch": 59, "duration": 220, "velocity": 90}, {"time": 76570, "pitch": 63, "duration": 220, "velocity": 90}, {"time": 76570, "pitch": 66, "duration": 220, "velocity": 100}, {"time": 76800, "pitch": 53, "duration": 10, "velocity": 80}, {"time": 76800, "pitch": 56, "duration": 10, "velocity": 70}, {"time": 76800, "pitch": 61, "duration": 10, "velocity": 70}, {"time": 76800, "pitch": 65, "duration": 10, "velocity": 80}, {"time": 76880, "pitch": 53, "duration": 80, "velocity": 110}, {"time": 76880, "pitch": 56, "duration": 80, "velocity": 100}, {"time": 76880, "pitch": 61, "duration": 80, "velocity": 100}, {"time": 76880, "pitch": 65, "duration": 80, "velocity": 110}, {"time": 77040, "pitch": 53, "duration": 220, "velocity": 100}, {"time": 77040, "pitch": 56, "duration": 220, "velocity": 90}, {"time": 77050, "pitch": 61, "duration": 220, "velocity": 90}, {"time": 77050, "pitch": 65, "duration": 220, "velocity": 100}, {"time": 77280, "pitch": 55, "duration": 220, "velocity": 100}, {"time": 77280, "pitch": 58, "duration": 220, "velocity": 90}, {"time": 77290, "pitch": 63, "duration": 220, "velocity": 90}, {"time": 77290, "pitch": 67, "duration": 220, "velocity": 100}, {"time": 77520, "pitch": 55, "duration": 80, "velocity": 110}, {"time": 77520, "pitch": 58, "duration": 80, "velocity": 100}, {"time": 77520, "pitch": 63, "duration": 80, "velocity": 100}, {"time": 77520, "pitch": 67, "duration": 80, "velocity": 110}, {"time": 77680, "pitch": 55, "duration": 10, "velocity": 80}, {"time": 77680, "pitch": 58, "duration": 10, "velocity": 70}, {"time": 77680, "pitch": 63, "duration": 10, "velocity": 70}, {"time": 77680, "pitch": 67, "duration": 10, "velocity": 80}, {"time": 77760, "pitch": 55, "duration": 220, "velocity": 100}, {"time": 77760, "pitch": 58, "duration": 220, "velocity": 90}, {"time": 77770, "pitch": 63, "duration": 220, "velocity": 90}, {"time": 77770, "pitch": 67, "duration": 220, "velocity": 100}, {"time": 78000, "pitch": 55, "duration": 80, "velocity": 110}, {"time": 78000, "pitch": 58, "duration": 80, "velocity": 100}, {"time": 78000, "pitch": 63, "duration": 80, "velocity": 100}, {"time": 78000, "pitch": 67, "duration": 80, "velocity": 110}, {"time": 78160, "pitch": 55, "duration": 10, "velocity": 80}, {"time": 78160, "pitch": 58, "duration": 10, "velocity": 70}, {"time": 78160, "pitch": 63, "duration": 10, "velocity": 70}, {"time": 78160, "pitch": 67, "duration": 10, "velocity": 80}, {"time": 78240, "pitch": 53, "duration": 220, "velocity": 100}, {"time": 78240, "pitch": 58, "duration": 220, "velocity": 90}, {"time": 78250, "pitch": 62, "duration": 220, "velocity": 90}, {"time": 78250, "pitch": 65, "duration": 220, "velocity": 100}, {"time": 78480, "pitch": 53, "duration": 80, "velocity": 110}, {"time": 78480, "pitch": 58, "duration": 80, "velocity": 100}, {"time": 78480, "pitch": 62, "duration": 80, "velocity": 100}, {"time": 78480, "pitch": 65, "duration": 80, "velocity": 110}, {"time": 78640, "pitch": 53, "duration": 10, "velocity": 80}, {"time": 78640, "pitch": 58, "duration": 10, "velocity": 70}, {"time": 78640, "pitch": 62, "duration": 10, "velocity": 70}, {"time": 78640, "pitch": 65, "duration": 10, "velocity": 80}, {"time": 78720, "pitch": 53, "duration": 220, "velocity": 100}, {"time": 78720, "pitch": 58, "duration": 220, "velocity": 90}, {"time": 78730, "pitch": 62, "duration": 220, "velocity": 90}, {"time": 78730, "pitch": 65, "duration": 220, "velocity": 100}, {"time": 78960, "pitch": 53, "duration": 80, "velocity": 110}, {"time": 78960, "pitch": 58, "duration": 80, "velocity": 100}, {"time": 78960, "pitch": 62, "duration": 80, "velocity": 100}, {"time": 78960, "pitch": 65, "duration": 80, "velocity": 110}, {"time": 79120, "pitch": 53, "duration": 10, "velocity": 80}, {"time": 79120, "pitch": 58, "duration": 10, "velocity": 70}, {"time": 79120, "pitch": 62, "duration": 10, "velocity": 70}, {"time": 79120, "pitch": 65, "duration": 10, "velocity": 80}, {"time": 79200, "pitch": 55, "duration": 220, "velocity": 100}, {"time": 79200, "pitch": 60, "duration": 220, "velocity": 90}, {"time": 79210, "pitch": 63, "duration": 220, "velocity": 90}, {"time": 79210, "pitch": 67, "duration": 220, "velocity": 100}, {"time": 79440, "pitch": 55, "duration": 80, "velocity": 110}, {"time": 79440, "pitch": 60, "duration": 80, "velocity": 100}, {"time": 79440, "pitch": 63, "duration": 80, "velocity": 100}, {"time": 79440, "pitch": 67, "duration": 80, "velocity": 110}, {"time": 79600, "pitch": 55, "duration": 10, "velocity": 80}, {"time": 79600, "pitch": 60, "duration": 10, "velocity": 70}, {"time": 79600, "pitch": 63, "duration": 10, "velocity": 70}, {"time": 79600, "pitch": 67, "duration": 10, "velocity": 80}, {"time": 79680, "pitch": 55, "duration": 220, "velocity": 100}, {"time": 79680, "pitch": 60, "duration": 220, "velocity": 90}, {"time": 79690, "pitch": 63, "duration": 220, "velocity": 90}, {"time": 79690, "pitch": 67, "duration": 220, "velocity": 100}, {"time": 79920, "pitch": 55, "duration": 80, "velocity": 110}, {"time": 79920, "pitch": 60, "duration": 80, "velocity": 100}, {"time": 79920, "pitch": 63, "duration": 80, "velocity": 100}, {"time": 79920, "pitch": 67, "duration": 80, "velocity": 110}, {"time": 80080, "pitch": 55, "duration": 10, "velocity": 80}, {"time": 80080, "pitch": 60, "duration": 10, "velocity": 70}, {"time": 80080, "pitch": 63, "duration": 10, "velocity": 70}, {"time": 80080, "pitch": 67, "duration": 10, "velocity": 80}, {"time": 80160, "pitch": 53, "duration": 220, "velocity": 100}, {"time": 80160, "pitch": 58, "duration": 220, "velocity": 90}, {"time": 80170, "pitch": 62, "duration": 220, "velocity": 90}, {"time": 80170, "pitch": 67, "duration": 220, "velocity": 100}, {"time": 80400, "pitch": 53, "duration": 80, "velocity": 110}, {"time": 80400, "pitch": 58, "duration": 80, "velocity": 100}, {"time": 80400, "pitch": 62, "duration": 80, "velocity": 100}, {"time": 80400, "pitch": 67, "duration": 80, "velocity": 110}, {"time": 80560, "pitch": 53, "duration": 10, "velocity": 80}, {"time": 80560, "pitch": 58, "duration": 10, "velocity": 70}, {"time": 80560, "pitch": 62, "duration": 10, "velocity": 70}, {"time": 80560, "pitch": 67, "duration": 10, "velocity": 80}, {"time": 80640, "pitch": 53, "duration": 220, "velocity": 100}, {"time": 80640, "pitch": 58, "duration": 220, "velocity": 90}, {"time": 80650, "pitch": 62, "duration": 220, "velocity": 90}, {"time": 80650, "pitch": 67, "duration": 220, "velocity": 100}, {"time": 80880, "pitch": 53, "duration": 80, "velocity": 110}, {"time": 80880, "pitch": 58, "duration": 80, "velocity": 100}, {"time": 80880, "pitch": 62, "duration": 80, "velocity": 100}, {"time": 80880, "pitch": 67, "duration": 80, "velocity": 110}, {"time": 81040, "pitch": 53, "duration": 10, "velocity": 80}, {"time": 81040, "pitch": 58, "duration": 10, "velocity": 70}, {"time": 81040, "pitch": 62, "duration": 10, "velocity": 70}, {"time": 81040, "pitch": 67, "duration": 10, "velocity": 80}, {"time": 81120, "pitch": 56, "duration": 220, "velocity": 100}, {"time": 81120, "pitch": 60, "duration": 220, "velocity": 90}, {"time": 81130, "pitch": 63, "duration": 220, "velocity": 90}, {"time": 81130, "pitch": 68, "duration": 220, "velocity": 100}, {"time": 81360, "pitch": 56, "duration": 80, "velocity": 110}, {"time": 81360, "pitch": 60, "duration": 80, "velocity": 100}, {"time": 81360, "pitch": 63, "duration": 80, "velocity": 100}, {"time": 81360, "pitch": 68, "duration": 80, "velocity": 110}, {"time": 81520, "pitch": 56, "duration": 10, "velocity": 80}, {"time": 81520, "pitch": 60, "duration": 10, "velocity": 70}, {"time": 81520, "pitch": 63, "duration": 10, "velocity": 70}, {"time": 81520, "pitch": 68, "duration": 10, "velocity": 80}, {"time": 81600, "pitch": 56, "duration": 220, "velocity": 100}, {"time": 81600, "pitch": 60, "duration": 220, "velocity": 90}, {"time": 81610, "pitch": 63, "duration": 220, "velocity": 90}, {"time": 81610, "pitch": 68, "duration": 220, "velocity": 100}, {"time": 81840, "pitch": 56, "duration": 80, "velocity": 110}, {"time": 81840, "pitch": 60, "duration": 80, "velocity": 100}, {"time": 81840, "pitch": 63, "duration": 80, "velocity": 100}, {"time": 81840, "pitch": 68, "duration": 80, "velocity": 110}, {"time": 82000, "pitch": 56, "duration": 10, "velocity": 80}, {"time": 82000, "pitch": 60, "duration": 10, "velocity": 70}, {"time": 82000, "pitch": 63, "duration": 10, "velocity": 70}, {"time": 82000, "pitch": 68, "duration": 10, "velocity": 80}, {"time": 82080, "pitch": 55, "duration": 220, "velocity": 100}, {"time": 82080, "pitch": 58, "duration": 220, "velocity": 90}, {"time": 82090, "pitch": 63, "duration": 220, "velocity": 90}, {"time": 82090, "pitch": 67, "duration": 220, "velocity": 100}, {"time": 82320, "pitch": 55, "duration": 80, "velocity": 110}, {"time": 82320, "pitch": 58, "duration": 80, "velocity": 100}, {"time": 82320, "pitch": 63, "duration": 80, "velocity": 100}, {"time": 82320, "pitch": 67, "duration": 80, "velocity": 110}, {"time": 82480, "pitch": 55, "duration": 10, "velocity": 80}, {"time": 82480, "pitch": 58, "duration": 10, "velocity": 70}, {"time": 82480, "pitch": 63, "duration": 10, "velocity": 70}, {"time": 82480, "pitch": 67, "duration": 10, "velocity": 80}, {"time": 82560, "pitch": 55, "duration": 220, "velocity": 100}, {"time": 82560, "pitch": 58, "duration": 220, "velocity": 90}, {"time": 82570, "pitch": 63, "duration": 220, "velocity": 90}, {"time": 82570, "pitch": 67, "duration": 220, "velocity": 100}, {"time": 82800, "pitch": 55, "duration": 80, "velocity": 110}, {"time": 82800, "pitch": 58, "duration": 80, "velocity": 100}, {"time": 82800, "pitch": 63, "duration": 80, "velocity": 100}, {"time": 82800, "pitch": 67, "duration": 80, "velocity": 110}, {"time": 82960, "pitch": 55, "duration": 10, "velocity": 80}, {"time": 82960, "pitch": 58, "duration": 10, "velocity": 70}, {"time": 82960, "pitch": 63, "duration": 10, "velocity": 70}, {"time": 82960, "pitch": 67, "duration": 10, "velocity": 80}, {"time": 83040, "pitch": 56, "duration": 220, "velocity": 100}, {"time": 83040, "pitch": 60, "duration": 220, "velocity": 90}, {"time": 83050, "pitch": 63, "duration": 220, "velocity": 90}, {"time": 83050, "pitch": 68, "duration": 220, "velocity": 100}, {"time": 83280, "pitch": 56, "duration": 80, "velocity": 110}, {"time": 83280, "pitch": 60, "duration": 80, "velocity": 100}, {"time": 83280, "pitch": 63, "duration": 80, "velocity": 100}, {"time": 83280, "pitch": 68, "duration": 80, "velocity": 110}, {"time": 83440, "pitch": 56, "duration": 10, "velocity": 80}, {"time": 83440, "pitch": 60, "duration": 10, "velocity": 70}, {"time": 83440, "pitch": 63, "duration": 10, "velocity": 70}, {"time": 83440, "pitch": 68, "duration": 10, "velocity": 80}, {"time": 83520, "pitch": 56, "duration": 220, "velocity": 100}, {"time": 83520, "pitch": 60, "duration": 220, "velocity": 90}, {"time": 83530, "pitch": 63, "duration": 220, "velocity": 90}, {"time": 83530, "pitch": 68, "duration": 220, "velocity": 100}, {"time": 83760, "pitch": 56, "duration": 80, "velocity": 110}, {"time": 83760, "pitch": 60, "duration": 80, "velocity": 100}, {"time": 83760, "pitch": 63, "duration": 80, "velocity": 100}, {"time": 83760, "pitch": 68, "duration": 80, "velocity": 110}, {"time": 83920, "pitch": 56, "duration": 10, "velocity": 80}, {"time": 83920, "pitch": 60, "duration": 10, "velocity": 70}, {"time": 83920, "pitch": 63, "duration": 10, "velocity": 70}, {"time": 83920, "pitch": 68, "duration": 10, "velocity": 80}, {"time": 84000, "pitch": 54, "duration": 10, "velocity": 80}, {"time": 84000, "pitch": 59, "duration": 10, "velocity": 70}, {"time": 84000, "pitch": 63, "duration": 10, "velocity": 70}, {"time": 84000, "pitch": 66, "duration": 10, "velocity": 80}, {"time": 84080, "pitch": 54, "duration": 80, "velocity": 110}, {"time": 84080, "pitch": 59, "duration": 80, "velocity": 100}, {"time": 84080, "pitch": 63, "duration": 80, "velocity": 100}, {"time": 84080, "pitch": 66, "duration": 80, "velocity": 110}, {"time": 84240, "pitch": 54, "duration": 220, "velocity": 100}, {"time": 84240, "pitch": 59, "duration": 220, "velocity": 90}, {"time": 84250, "pitch": 63, "duration": 220, "velocity": 90}, {"time": 84250, "pitch": 66, "duration": 220, "velocity": 100}, {"time": 84480, "pitch": 53, "duration": 10, "velocity": 80}, {"time": 84480, "pitch": 56, "duration": 10, "velocity": 70}, {"time": 84480, "pitch": 61, "duration": 10, "velocity": 70}, {"time": 84480, "pitch": 65, "duration": 10, "velocity": 80}, {"time": 84560, "pitch": 53, "duration": 80, "velocity": 110}, {"time": 84560, "pitch": 56, "duration": 80, "velocity": 100}, {"time": 84560, "pitch": 61, "duration": 80, "velocity": 100}, {"time": 84560, "pitch": 65, "duration": 80, "velocity": 110}, {"time": 84720, "pitch": 53, "duration": 220, "velocity": 100}, {"time": 84720, "pitch": 56, "duration": 220, "velocity": 90}, {"time": 84730, "pitch": 61, "duration": 220, "velocity": 90}, {"time": 84730, "pitch": 65, "duration": 220, "velocity": 100}, {"time": 84960, "pitch": 55, "duration": 220, "velocity": 100}, {"time": 84960, "pitch": 58, "duration": 220, "velocity": 90}, {"time": 84970, "pitch": 63, "duration": 220, "velocity": 90}, {"time": 84970, "pitch": 67, "duration": 220, "velocity": 100}, {"time": 85200, "pitch": 55, "duration": 80, "velocity": 110}, {"time": 85200, "pitch": 58, "duration": 80, "velocity": 100}, {"time": 85200, "pitch": 63, "duration": 80, "velocity": 100}, {"time": 85200, "pitch": 67, "duration": 80, "velocity": 110}, {"time": 85360, "pitch": 55, "duration": 10, "velocity": 80}, {"time": 85360, "pitch": 58, "duration": 10, "velocity": 70}, {"time": 85360, "pitch": 63, "duration": 10, "velocity": 70}, {"time": 85360, "pitch": 67, "duration": 10, "velocity": 80}, {"time": 85440, "pitch": 55, "duration": 220, "velocity": 100}, {"time": 85440, "pitch": 58, "duration": 220, "velocity": 90}, {"time": 85450, "pitch": 63, "duration": 220, "velocity": 90}, {"time": 85450, "pitch": 67, "duration": 220, "velocity": 100}, {"time": 85680, "pitch": 55, "duration": 80, "velocity": 110}, {"time": 85680, "pitch": 58, "duration": 80, "velocity": 100}, {"time": 85680, "pitch": 63, "duration": 80, "velocity": 100}, {"time": 85680, "pitch": 67, "duration": 80, "velocity": 110}, {"time": 85840, "pitch": 55, "duration": 10, "velocity": 80}, {"time": 85840, "pitch": 58, "duration": 10, "velocity": 70}, {"time": 85840, "pitch": 63, "duration": 10, "velocity": 70}, {"time": 85840, "pitch": 67, "duration": 10, "velocity": 80}, {"time": 85920, "pitch": 53, "duration": 220, "velocity": 100}, {"time": 85920, "pitch": 58, "duration": 220, "velocity": 90}, {"time": 85930, "pitch": 62, "duration": 220, "velocity": 90}, {"time": 85930, "pitch": 65, "duration": 220, "velocity": 100}, {"time": 86160, "pitch": 53, "duration": 80, "velocity": 110}, {"time": 86160, "pitch": 58, "duration": 80, "velocity": 100}, {"time": 86160, "pitch": 62, "duration": 80, "velocity": 100}, {"time": 86160, "pitch": 65, "duration": 80, "velocity": 110}, {"time": 86320, "pitch": 53, "duration": 10, "velocity": 80}, {"time": 86320, "pitch": 58, "duration": 10, "velocity": 70}, {"time": 86320, "pitch": 62, "duration": 10, "velocity": 70}, {"time": 86320, "pitch": 65, "duration": 10, "velocity": 80}, {"time": 86400, "pitch": 53, "duration": 220, "velocity": 100}, {"time": 86400, "pitch": 58, "duration": 220, "velocity": 90}, {"time": 86410, "pitch": 62, "duration": 220, "velocity": 90}, {"time": 86410, "pitch": 65, "duration": 220, "velocity": 100}, {"time": 86640, "pitch": 53, "duration": 80, "velocity": 110}, {"time": 86640, "pitch": 58, "duration": 80, "velocity": 100}, {"time": 86640, "pitch": 62, "duration": 80, "velocity": 100}, {"time": 86640, "pitch": 65, "duration": 80, "velocity": 110}, {"time": 86800, "pitch": 53, "duration": 10, "velocity": 80}, {"time": 86800, "pitch": 58, "duration": 10, "velocity": 70}, {"time": 86800, "pitch": 62, "duration": 10, "velocity": 70}, {"time": 86800, "pitch": 65, "duration": 10, "velocity": 80}, {"time": 86880, "pitch": 55, "duration": 220, "velocity": 100}, {"time": 86880, "pitch": 60, "duration": 220, "velocity": 90}, {"time": 86890, "pitch": 63, "duration": 220, "velocity": 90}, {"time": 86890, "pitch": 67, "duration": 220, "velocity": 100}, {"time": 87120, "pitch": 55, "duration": 80, "velocity": 110}, {"time": 87120, "pitch": 60, "duration": 80, "velocity": 100}, {"time": 87120, "pitch": 63, "duration": 80, "velocity": 100}, {"time": 87120, "pitch": 67, "duration": 80, "velocity": 110}, {"time": 87280, "pitch": 55, "duration": 10, "velocity": 80}, {"time": 87280, "pitch": 60, "duration": 10, "velocity": 70}, {"time": 87280, "pitch": 63, "duration": 10, "velocity": 70}, {"time": 87280, "pitch": 67, "duration": 10, "velocity": 80}, {"time": 87360, "pitch": 55, "duration": 220, "velocity": 100}, {"time": 87360, "pitch": 60, "duration": 220, "velocity": 90}, {"time": 87370, "pitch": 63, "duration": 220, "velocity": 90}, {"time": 87370, "pitch": 67, "duration": 220, "velocity": 100}, {"time": 87600, "pitch": 55, "duration": 80, "velocity": 110}, {"time": 87600, "pitch": 60, "duration": 80, "velocity": 100}, {"time": 87600, "pitch": 63, "duration": 80, "velocity": 100}, {"time": 87600, "pitch": 67, "duration": 80, "velocity": 110}, {"time": 87760, "pitch": 55, "duration": 10, "velocity": 80}, {"time": 87760, "pitch": 60, "duration": 10, "velocity": 70}, {"time": 87760, "pitch": 63, "duration": 10, "velocity": 70}, {"time": 87760, "pitch": 67, "duration": 10, "velocity": 80}, {"time": 87840, "pitch": 53, "duration": 220, "velocity": 100}, {"time": 87840, "pitch": 58, "duration": 220, "velocity": 90}, {"time": 87850, "pitch": 62, "duration": 220, "velocity": 90}, {"time": 87850, "pitch": 67, "duration": 220, "velocity": 100}, {"time": 88080, "pitch": 53, "duration": 80, "velocity": 110}, {"time": 88080, "pitch": 58, "duration": 80, "velocity": 100}, {"time": 88080, "pitch": 62, "duration": 80, "velocity": 100}, {"time": 88080, "pitch": 67, "duration": 80, "velocity": 110}, {"time": 88240, "pitch": 53, "duration": 10, "velocity": 80}, {"time": 88240, "pitch": 58, "duration": 10, "velocity": 70}, {"time": 88240, "pitch": 62, "duration": 10, "velocity": 70}, {"time": 88240, "pitch": 67, "duration": 10, "velocity": 80}, {"time": 88320, "pitch": 53, "duration": 220, "velocity": 100}, {"time": 88320, "pitch": 58, "duration": 220, "velocity": 90}, {"time": 88330, "pitch": 62, "duration": 220, "velocity": 90}, {"time": 88330, "pitch": 67, "duration": 220, "velocity": 100}, {"time": 88560, "pitch": 53, "duration": 80, "velocity": 110}, {"time": 88560, "pitch": 58, "duration": 80, "velocity": 100}, {"time": 88560, "pitch": 62, "duration": 80, "velocity": 100}, {"time": 88560, "pitch": 67, "duration": 80, "velocity": 110}, {"time": 88720, "pitch": 53, "duration": 10, "velocity": 80}, {"time": 88720, "pitch": 58, "duration": 10, "velocity": 70}, {"time": 88720, "pitch": 62, "duration": 10, "velocity": 70}, {"time": 88720, "pitch": 67, "duration": 10, "velocity": 80}, {"time": 88800, "pitch": 56, "duration": 220, "velocity": 100}, {"time": 88800, "pitch": 60, "duration": 220, "velocity": 90}, {"time": 88810, "pitch": 63, "duration": 220, "velocity": 90}, {"time": 88810, "pitch": 68, "duration": 220, "velocity": 100}, {"time": 89040, "pitch": 56, "duration": 80, "velocity": 110}, {"time": 89040, "pitch": 60, "duration": 80, "velocity": 100}, {"time": 89040, "pitch": 63, "duration": 80, "velocity": 100}, {"time": 89040, "pitch": 68, "duration": 80, "velocity": 110}, {"time": 89200, "pitch": 56, "duration": 10, "velocity": 80}, {"time": 89200, "pitch": 60, "duration": 10, "velocity": 70}, {"time": 89200, "pitch": 63, "duration": 10, "velocity": 70}, {"time": 89200, "pitch": 68, "duration": 10, "velocity": 80}, {"time": 89280, "pitch": 56, "duration": 220, "velocity": 100}, {"time": 89280, "pitch": 60, "duration": 220, "velocity": 90}, {"time": 89290, "pitch": 63, "duration": 220, "velocity": 90}, {"time": 89290, "pitch": 68, "duration": 220, "velocity": 100}, {"time": 89520, "pitch": 56, "duration": 80, "velocity": 110}, {"time": 89520, "pitch": 60, "duration": 80, "velocity": 100}, {"time": 89520, "pitch": 63, "duration": 80, "velocity": 100}, {"time": 89520, "pitch": 68, "duration": 80, "velocity": 110}, {"time": 89680, "pitch": 56, "duration": 10, "velocity": 80}, {"time": 89680, "pitch": 60, "duration": 10, "velocity": 70}, {"time": 89680, "pitch": 63, "duration": 10, "velocity": 70}, {"time": 89680, "pitch": 68, "duration": 10, "velocity": 80}, {"time": 89760, "pitch": 55, "duration": 220, "velocity": 100}, {"time": 89760, "pitch": 58, "duration": 220, "velocity": 90}, {"time": 89770, "pitch": 63, "duration": 220, "velocity": 90}, {"time": 89770, "pitch": 67, "duration": 220, "velocity": 100}, {"time": 90000, "pitch": 55, "duration": 80, "velocity": 110}, {"time": 90000, "pitch": 58, "duration": 80, "velocity": 100}, {"time": 90000, "pitch": 63, "duration": 80, "velocity": 100}, {"time": 90000, "pitch": 67, "duration": 80, "velocity": 110}, {"time": 90160, "pitch": 55, "duration": 10, "velocity": 80}, {"time": 90160, "pitch": 58, "duration": 10, "velocity": 70}, {"time": 90160, "pitch": 63, "duration": 10, "velocity": 70}, {"time": 90160, "pitch": 67, "duration": 10, "velocity": 80}, {"time": 90240, "pitch": 55, "duration": 220, "velocity": 100}, {"time": 90240, "pitch": 58, "duration": 220, "velocity": 90}, {"time": 90250, "pitch": 63, "duration": 220, "velocity": 90}, {"time": 90250, "pitch": 67, "duration": 220, "velocity": 100}, {"time": 90480, "pitch": 55, "duration": 80, "velocity": 110}, {"time": 90480, "pitch": 58, "duration": 80, "velocity": 100}, {"time": 90480, "pitch": 63, "duration": 80, "velocity": 100}, {"time": 90480, "pitch": 67, "duration": 80, "velocity": 110}, {"time": 90640, "pitch": 55, "duration": 10, "velocity": 80}, {"time": 90640, "pitch": 58, "duration": 10, "velocity": 70}, {"time": 90640, "pitch": 63, "duration": 10, "velocity": 70}, {"time": 90640, "pitch": 67, "duration": 10, "velocity": 80}, {"time": 90720, "pitch": 56, "duration": 220, "velocity": 100}, {"time": 90720, "pitch": 60, "duration": 220, "velocity": 90}, {"time": 90730, "pitch": 63, "duration": 220, "velocity": 90}, {"time": 90730, "pitch": 68, "duration": 220, "velocity": 100}, {"time": 90960, "pitch": 56, "duration": 80, "velocity": 110}, {"time": 90960, "pitch": 60, "duration": 80, "velocity": 100}, {"time": 90960, "pitch": 63, "duration": 80, "velocity": 100}, {"time": 90960, "pitch": 68, "duration": 80, "velocity": 110}, {"time": 91120, "pitch": 56, "duration": 10, "velocity": 80}, {"time": 91120, "pitch": 60, "duration": 10, "velocity": 70}, {"time": 91120, "pitch": 63, "duration": 10, "velocity": 70}, {"time": 91120, "pitch": 68, "duration": 10, "velocity": 80}, {"time": 91200, "pitch": 56, "duration": 220, "velocity": 100}, {"time": 91200, "pitch": 60, "duration": 220, "velocity": 90}, {"time": 91210, "pitch": 63, "duration": 220, "velocity": 90}, {"time": 91210, "pitch": 68, "duration": 220, "velocity": 100}, {"time": 91440, "pitch": 56, "duration": 80, "velocity": 110}, {"time": 91440, "pitch": 60, "duration": 80, "velocity": 100}, {"time": 91440, "pitch": 63, "duration": 80, "velocity": 100}, {"time": 91440, "pitch": 68, "duration": 80, "velocity": 110}, {"time": 91600, "pitch": 56, "duration": 10, "velocity": 80}, {"time": 91600, "pitch": 60, "duration": 10, "velocity": 70}, {"time": 91600, "pitch": 63, "duration": 10, "velocity": 70}, {"time": 91600, "pitch": 68, "duration": 10, "velocity": 80}, {"time": 91680, "pitch": 53, "duration": 220, "velocity": 110}, {"time": 91680, "pitch": 58, "duration": 220, "velocity": 100}, {"time": 91690, "pitch": 63, "duration": 220, "velocity": 100}, {"time": 91690, "pitch": 68, "duration": 220, "velocity": 110}, {"time": 91920, "pitch": 53, "duration": 80, "velocity": 110}, {"time": 91920, "pitch": 58, "duration": 80, "velocity": 100}, {"time": 91930, "pitch": 63, "duration": 80, "velocity": 100}, {"time": 91930, "pitch": 68, "duration": 80, "velocity": 110}, {"time": 92640, "pitch": 56, "duration": 220, "velocity": 100}, {"time": 92640, "pitch": 60, "duration": 220, "velocity": 90}, {"time": 92650, "pitch": 63, "duration": 220, "velocity": 90}, {"time": 92650, "pitch": 68, "duration": 220, "velocity": 100}, {"time": 92880, "pitch": 56, "duration": 80, "velocity": 110}, {"time": 92880, "pitch": 60, "duration": 80, "velocity": 100}, {"time": 92880, "pitch": 63, "duration": 80, "velocity": 100}, {"time": 92880, "pitch": 68, "duration": 80, "velocity": 110}, {"time": 93040, "pitch": 56, "duration": 10, "velocity": 80}, {"time": 93040, "pitch": 60, "duration": 10, "velocity": 70}, {"time": 93040, "pitch": 63, "duration": 10, "velocity": 70}, {"time": 93040, "pitch": 68, "duration": 10, "velocity": 80}, {"time": 93120, "pitch": 56, "duration": 220, "velocity": 100}, {"time": 93120, "pitch": 60, "duration": 220, "velocity": 90}, {"time": 93130, "pitch": 63, "duration": 220, "velocity": 90}, {"time": 93130, "pitch": 68, "duration": 220, "velocity": 100}, {"time": 93360, "pitch": 56, "duration": 80, "velocity": 110}, {"time": 93360, "pitch": 60, "duration": 80, "velocity": 100}, {"time": 93360, "pitch": 63, "duration": 80, "velocity": 100}, {"time": 93360, "pitch": 68, "duration": 80, "velocity": 110}, {"time": 93520, "pitch": 56, "duration": 10, "velocity": 80}, {"time": 93520, "pitch": 60, "duration": 10, "velocity": 70}, {"time": 93520, "pitch": 63, "duration": 10, "velocity": 70}, {"time": 93520, "pitch": 68, "duration": 10, "velocity": 80}, {"time": 93600, "pitch": 55, "duration": 220, "velocity": 100}, {"time": 93600, "pitch": 58, "duration": 220, "velocity": 90}, {"time": 93610, "pitch": 63, "duration": 220, "velocity": 90}, {"time": 93610, "pitch": 70, "duration": 220, "velocity": 100}, {"time": 93840, "pitch": 55, "duration": 80, "velocity": 110}, {"time": 93840, "pitch": 58, "duration": 80, "velocity": 100}, {"time": 93840, "pitch": 63, "duration": 80, "velocity": 100}, {"time": 93840, "pitch": 70, "duration": 80, "velocity": 110}, {"time": 94000, "pitch": 55, "duration": 10, "velocity": 80}, {"time": 94000, "pitch": 58, "duration": 10, "velocity": 70}, {"time": 94000, "pitch": 63, "duration": 10, "velocity": 70}, {"time": 94000, "pitch": 70, "duration": 10, "velocity": 80}, {"time": 94080, "pitch": 54, "duration": 220, "velocity": 100}, {"time": 94080, "pitch": 60, "duration": 220, "velocity": 90}, {"time": 94090, "pitch": 63, "duration": 220, "velocity": 90}, {"time": 94090, "pitch": 69, "duration": 220, "velocity": 100}, {"time": 94320, "pitch": 54, "duration": 80, "velocity": 110}, {"time": 94320, "pitch": 60, "duration": 80, "velocity": 100}, {"time": 94320, "pitch": 63, "duration": 80, "velocity": 100}, {"time": 94320, "pitch": 69, "duration": 80, "velocity": 110}, {"time": 94480, "pitch": 54, "duration": 10, "velocity": 80}, {"time": 94480, "pitch": 60, "duration": 10, "velocity": 70}, {"time": 94480, "pitch": 63, "duration": 10, "velocity": 70}, {"time": 94480, "pitch": 69, "duration": 10, "velocity": 80}, {"time": 94560, "pitch": 56, "duration": 450, "velocity": 100}, {"time": 94560, "pitch": 60, "duration": 450, "velocity": 90}, {"time": 94570, "pitch": 63, "duration": 450, "velocity": 90}, {"time": 94570, "pitch": 68, "duration": 450, "velocity": 100}, {"time": 95040, "pitch": 55, "duration": 10, "velocity": 80}, {"time": 95040, "pitch": 60, "duration": 10, "velocity": 70}, {"time": 95040, "pitch": 65, "duration": 10, "velocity": 70}, {"time": 95040, "pitch": 69, "duration": 10, "velocity": 80}, {"time": 95200, "pitch": 65, "duration": 310, "velocity": 100}, {"time": 95200, "pitch": 69, "duration": 310, "velocity": 110}, {"time": 95210, "pitch": 55, "duration": 310, "velocity": 110}, {"time": 95210, "pitch": 60, "duration": 310, "velocity": 100}, {"time": 95520, "pitch": 48, "duration": 150, "velocity": 110}, {"time": 95520, "pitch": 59, "duration": 150, "velocity": 100}, {"time": 95520, "pitch": 64, "duration": 150, "velocity": 100}, {"time": 95520, "pitch": 67, "duration": 150, "velocity": 110}, {"time": 96000, "pitch": 48, "duration": 450, "velocity": 110}, {"time": 96000, "pitch": 59, "duration": 450, "velocity": 100}, {"time": 96000, "pitch": 64, "duration": 450, "velocity": 100}, {"time": 96000, "pitch": 67, "duration": 450, "velocity": 110}, {"time": 96480, "pitch": 48, "duration": 950, "velocity": 110}, {"time": 96720, "pitch": 59, "duration": 680, "velocity": 100}, {"time": 96720, "pitch": 64, "duration": 680, "velocity": 100}, {"time": 96720, "pitch": 67, "duration": 680, "velocity": 110}, {"time": 97440, "pitch": 47, "duration": 450, "velocity": 110}, {"time": 97440, "pitch": 57, "duration": 450, "velocity": 100}, {"time": 97440, "pitch": 62, "duration": 450, "velocity": 100}, {"time": 97440, "pitch": 65, "duration": 450, "velocity": 110}, {"time": 98160, "pitch": 47, "duration": 450, "velocity": 110}, {"time": 98160, "pitch": 56, "duration": 450, "velocity": 100}, {"time": 98160, "pitch": 62, "duration": 450, "velocity": 100}, {"time": 98160, "pitch": 64, "duration": 450, "velocity": 110}, {"time": 98640, "pitch": 47, "duration": 700, "velocity": 110}, {"time": 98880, "pitch": 56, "duration": 450, "velocity": 100}, {"time": 98880, "pitch": 62, "duration": 450, "velocity": 100}, {"time": 98880, "pitch": 64, "duration": 450, "velocity": 110}, {"time": 99360, "pitch": 45, "duration": 150, "velocity": 110}, {"time": 99360, "pitch": 55, "duration": 150, "velocity": 100}, {"time": 99360, "pitch": 60, "duration": 150, "velocity": 100}, {"time": 99360, "pitch": 64, "duration": 150, "velocity": 110}, {"time": 99840, "pitch": 45, "duration": 450, "velocity": 110}, {"time": 99840, "pitch": 55, "duration": 450, "velocity": 100}, {"time": 99840, "pitch": 60, "duration": 450, "velocity": 100}, {"time": 99840, "pitch": 64, "duration": 450, "velocity": 110}, {"time": 100320, "pitch": 45, "duration": 220, "velocity": 110}, {"time": 100560, "pitch": 44, "duration": 240, "velocity": 110}, {"time": 100560, "pitch": 54, "duration": 240, "velocity": 100}, {"time": 100560, "pitch": 59, "duration": 240, "velocity": 100}, {"time": 100560, "pitch": 63, "duration": 240, "velocity": 110}, {"time": 101040, "pitch": 43, "duration": 920, "velocity": 110}, {"time": 101040, "pitch": 53, "duration": 920, "velocity": 100}, {"time": 101040, "pitch": 58, "duration": 920, "velocity": 100}, {"time": 101040, "pitch": 62, "duration": 920, "velocity": 110}, {"time": 102000, "pitch": 48, "duration": 450, "velocity": 110}, {"time": 102000, "pitch": 52, "duration": 450, "velocity": 100}, {"time": 102000, "pitch": 58, "duration": 450, "velocity": 100}, {"time": 102000, "pitch": 62, "duration": 450, "velocity": 110}, {"time": 102480, "pitch": 48, "duration": 700, "velocity": 110}, {"time": 102720, "pitch": 52, "duration": 450, "velocity": 100}, {"time": 102720, "pitch": 58, "duration": 450, "velocity": 100}, {"time": 102720, "pitch": 62, "duration": 450, "velocity": 110}, {"time": 103200, "pitch": 45, "duration": 150, "velocity": 110}, {"time": 103200, "pitch": 53, "duration": 150, "velocity": 100}, {"time": 103200, "pitch": 60, "duration": 150, "velocity": 100}, {"time": 103200, "pitch": 64, "duration": 150, "velocity": 110}, {"time": 103680, "pitch": 45, "duration": 450, "velocity": 110}, {"time": 103680, "pitch": 53, "duration": 450, "velocity": 100}, {"time": 103680, "pitch": 60, "duration": 450, "velocity": 100}, {"time": 103680, "pitch": 64, "duration": 450, "velocity": 110}, {"time": 104160, "pitch": 45, "duration": 950, "velocity": 110}, {"time": 104400, "pitch": 54, "duration": 680, "velocity": 100}, {"time": 104400, "pitch": 60, "duration": 680, "velocity": 100}, {"time": 104400, "pitch": 63, "duration": 680, "velocity": 110}, {"time": 105120, "pitch": 43, "duration": 450, "velocity": 110}, {"time": 105120, "pitch": 55, "duration": 450, "velocity": 100}, {"time": 105120, "pitch": 60, "duration": 450, "velocity": 100}, {"time": 105120, "pitch": 64, "duration": 450, "velocity": 110}, {"time": 105840, "pitch": 45, "duration": 450, "velocity": 110}, {"time": 105840, "pitch": 55, "duration": 450, "velocity": 100}, {"time": 105840, "pitch": 61, "duration": 450, "velocity": 100}, {"time": 105840, "pitch": 65, "duration": 450, "velocity": 110}, {"time": 106320, "pitch": 45, "duration": 700, "velocity": 110}, {"time": 106560, "pitch": 55, "duration": 450, "velocity": 100}, {"time": 106560, "pitch": 61, "duration": 450, "velocity": 100}, {"time": 106560, "pitch": 64, "duration": 450, "velocity": 110}, {"time": 107040, "pitch": 50, "duration": 150, "velocity": 110}, {"time": 107040, "pitch": 54, "duration": 150, "velocity": 100}, {"time": 107040, "pitch": 60, "duration": 150, "velocity": 100}, {"time": 107040, "pitch": 64, "duration": 150, "velocity": 110}, {"time": 107520, "pitch": 50, "duration": 450, "velocity": 110}, {"time": 107520, "pitch": 54, "duration": 450, "velocity": 100}, {"time": 107520, "pitch": 60, "duration": 450, "velocity": 100}, {"time": 107520, "pitch": 64, "duration": 450, "velocity": 110}, {"time": 108000, "pitch": 50, "duration": 680, "velocity": 110}, {"time": 108240, "pitch": 54, "duration": 680, "velocity": 100}, {"time": 108240, "pitch": 60, "duration": 680, "velocity": 100}, {"time": 108240, "pitch": 64, "duration": 680, "velocity": 110}, {"time": 108960, "pitch": 44, "duration": 480, "velocity": 110}, {"time": 108960, "pitch": 55, "duration": 480, "velocity": 100}, {"time": 108960, "pitch": 60, "duration": 480, "velocity": 100}, {"time": 108960, "pitch": 63, "duration": 480, "velocity": 110}, {"time": 109680, "pitch": 46, "duration": 450, "velocity": 110}, {"time": 109680, "pitch": 55, "duration": 450, "velocity": 100}, {"time": 109680, "pitch": 60, "duration": 450, "velocity": 100}, {"time": 109680, "pitch": 65, "duration": 450, "velocity": 110}, {"time": 110160, "pitch": 46, "duration": 700, "velocity": 110}, {"time": 110400, "pitch": 55, "duration": 450, "velocity": 100}, {"time": 110400, "pitch": 60, "duration": 450, "velocity": 100}, {"time": 110400, "pitch": 65, "duration": 450, "velocity": 110}, {"time": 110880, "pitch": 48, "duration": 150, "velocity": 110}, {"time": 110880, "pitch": 59, "duration": 150, "velocity": 100}, {"time": 110880, "pitch": 64, "duration": 150, "velocity": 100}, {"time": 110880, "pitch": 67, "duration": 150, "velocity": 110}, {"time": 111360, "pitch": 48, "duration": 450, "velocity": 110}, {"time": 111360, "pitch": 59, "duration": 450, "velocity": 100}, {"time": 111360, "pitch": 64, "duration": 450, "velocity": 100}, {"time": 111360, "pitch": 67, "duration": 450, "velocity": 110}, {"time": 111840, "pitch": 48, "duration": 950, "velocity": 110}, {"time": 112080, "pitch": 59, "duration": 680, "velocity": 100}, {"time": 112080, "pitch": 64, "duration": 680, "velocity": 100}, {"time": 112080, "pitch": 67, "duration": 680, "velocity": 110}, {"time": 112800, "pitch": 47, "duration": 450, "velocity": 110}, {"time": 112800, "pitch": 57, "duration": 450, "velocity": 100}, {"time": 112800, "pitch": 62, "duration": 450, "velocity": 100}, {"time": 112800, "pitch": 65, "duration": 450, "velocity": 110}, {"time": 113520, "pitch": 47, "duration": 450, "velocity": 110}, {"time": 113520, "pitch": 56, "duration": 450, "velocity": 100}, {"time": 113520, "pitch": 62, "duration": 450, "velocity": 100}, {"time": 113520, "pitch": 64, "duration": 450, "velocity": 110}, {"time": 114000, "pitch": 47, "duration": 700, "velocity": 110}, {"time": 114240, "pitch": 56, "duration": 450, "velocity": 100}, {"time": 114240, "pitch": 62, "duration": 450, "velocity": 100}, {"time": 114240, "pitch": 64, "duration": 450, "velocity": 110}, {"time": 114720, "pitch": 45, "duration": 150, "velocity": 110}, {"time": 114720, "pitch": 55, "duration": 150, "velocity": 100}, {"time": 114720, "pitch": 60, "duration": 150, "velocity": 100}, {"time": 114720, "pitch": 64, "duration": 150, "velocity": 110}, {"time": 115200, "pitch": 45, "duration": 450, "velocity": 110}, {"time": 115200, "pitch": 55, "duration": 450, "velocity": 100}, {"time": 115200, "pitch": 60, "duration": 450, "velocity": 100}, {"time": 115200, "pitch": 64, "duration": 450, "velocity": 110}, {"time": 115680, "pitch": 45, "duration": 220, "velocity": 110}, {"time": 115920, "pitch": 44, "duration": 240, "velocity": 110}, {"time": 115920, "pitch": 54, "duration": 240, "velocity": 100}, {"time": 115920, "pitch": 59, "duration": 240, "velocity": 100}, {"time": 115920, "pitch": 63, "duration": 240, "velocity": 110}, {"time": 116400, "pitch": 43, "duration": 920, "velocity": 110}, {"time": 116400, "pitch": 53, "duration": 920, "velocity": 100}, {"time": 116400, "pitch": 58, "duration": 920, "velocity": 100}, {"time": 116400, "pitch": 62, "duration": 920, "velocity": 110}, {"time": 117360, "pitch": 48, "duration": 450, "velocity": 110}, {"time": 117360, "pitch": 52, "duration": 450, "velocity": 100}, {"time": 117360, "pitch": 58, "duration": 450, "velocity": 100}, {"time": 117360, "pitch": 62, "duration": 450, "velocity": 110}, {"time": 117840, "pitch": 48, "duration": 700, "velocity": 110}, {"time": 118080, "pitch": 52, "duration": 450, "velocity": 100}, {"time": 118080, "pitch": 58, "duration": 450, "velocity": 100}, {"time": 118080, "pitch": 62, "duration": 450, "velocity": 110}, {"time": 118560, "pitch": 45, "duration": 150, "velocity": 110}, {"time": 118560, "pitch": 53, "duration": 150, "velocity": 100}, {"time": 118560, "pitch": 60, "duration": 150, "velocity": 100}, {"time": 118560, "pitch": 64, "duration": 150, "velocity": 110}, {"time": 119040, "pitch": 45, "duration": 450, "velocity": 110}, {"time": 119040, "pitch": 53, "duration": 450, "velocity": 100}, {"time": 119040, "pitch": 60, "duration": 450, "velocity": 100}, {"time": 119040, "pitch": 64, "duration": 450, "velocity": 110}, {"time": 119520, "pitch": 45, "duration": 950, "velocity": 110}, {"time": 119760, "pitch": 53, "duration": 680, "velocity": 100}, {"time": 119760, "pitch": 60, "duration": 680, "velocity": 100}, {"time": 119760, "pitch": 64, "duration": 680, "velocity": 110}, {"time": 120480, "pitch": 45, "duration": 450, "velocity": 110}, {"time": 120480, "pitch": 54, "duration": 450, "velocity": 100}, {"time": 120480, "pitch": 60, "duration": 450, "velocity": 100}, {"time": 120480, "pitch": 63, "duration": 450, "velocity": 110}, {"time": 120960, "pitch": 45, "duration": 450, "velocity": 110}, {"time": 121200, "pitch": 54, "duration": 450, "velocity": 100}, {"time": 121200, "pitch": 60, "duration": 450, "velocity": 100}, {"time": 121200, "pitch": 63, "duration": 450, "velocity": 110}, {"time": 121680, "pitch": 45, "duration": 700, "velocity": 110}, {"time": 121920, "pitch": 54, "duration": 450, "velocity": 100}, {"time": 121920, "pitch": 60, "duration": 450, "velocity": 100}, {"time": 121920, "pitch": 63, "duration": 450, "velocity": 110}, {"time": 122400, "pitch": 43, "duration": 150, "velocity": 110}, {"time": 122400, "pitch": 55, "duration": 150, "velocity": 100}, {"time": 122400, "pitch": 60, "duration": 150, "velocity": 100}, {"time": 122400, "pitch": 64, "duration": 150, "velocity": 110}, {"time": 122880, "pitch": 43, "duration": 450, "velocity": 110}, {"time": 122880, "pitch": 55, "duration": 450, "velocity": 100}, {"time": 122880, "pitch": 60, "duration": 450, "velocity": 100}, {"time": 122880, "pitch": 64, "duration": 450, "velocity": 110}, {"time": 123360, "pitch": 43, "duration": 680, "velocity": 110}, {"time": 123600, "pitch": 55, "duration": 680, "velocity": 100}, {"time": 123600, "pitch": 60, "duration": 680, "velocity": 100}, {"time": 123600, "pitch": 64, "duration": 680, "velocity": 110}, {"time": 124320, "pitch": 45, "duration": 480, "velocity": 110}, {"time": 124320, "pitch": 55, "duration": 480, "velocity": 100}, {"time": 124320, "pitch": 61, "duration": 480, "velocity": 100}, {"time": 124320, "pitch": 65, "duration": 480, "velocity": 110}, {"time": 125040, "pitch": 45, "duration": 450, "velocity": 110}, {"time": 125040, "pitch": 55, "duration": 450, "velocity": 100}, {"time": 125040, "pitch": 61, "duration": 450, "velocity": 100}, {"time": 125040, "pitch": 64, "duration": 450, "velocity": 110}, {"time": 125520, "pitch": 45, "duration": 700, "velocity": 110}, {"time": 125760, "pitch": 55, "duration": 450, "velocity": 100}, {"time": 125760, "pitch": 61, "duration": 450, "velocity": 100}, {"time": 125760, "pitch": 64, "duration": 450, "velocity": 110}, {"time": 126240, "pitch": 50, "duration": 150, "velocity": 110}, {"time": 126240, "pitch": 53, "duration": 150, "velocity": 100}, {"time": 126240, "pitch": 60, "duration": 150, "velocity": 100}, {"time": 126240, "pitch": 64, "duration": 150, "velocity": 110}, {"time": 126720, "pitch": 50, "duration": 450, "velocity": 110}, {"time": 126720, "pitch": 53, "duration": 450, "velocity": 100}, {"time": 126720, "pitch": 60, "duration": 450, "velocity": 100}, {"time": 126720, "pitch": 64, "duration": 450, "velocity": 110}, {"time": 127200, "pitch": 50, "duration": 950, "velocity": 110}, {"time": 127440, "pitch": 53, "duration": 680, "velocity": 100}, {"time": 127440, "pitch": 60, "duration": 680, "velocity": 100}, {"time": 127440, "pitch": 64, "duration": 680, "velocity": 110}, {"time": 128160, "pitch": 43, "duration": 450, "velocity": 110}, {"time": 128160, "pitch": 53, "duration": 450, "velocity": 100}, {"time": 128160, "pitch": 60, "duration": 450, "velocity": 100}, {"time": 128160, "pitch": 64, "duration": 450, "velocity": 110}, {"time": 128880, "pitch": 43, "duration": 450, "velocity": 110}, {"time": 128880, "pitch": 53, "duration": 450, "velocity": 100}, {"time": 128880, "pitch": 60, "duration": 450, "velocity": 100}, {"time": 128880, "pitch": 62, "duration": 450, "velocity": 110}, {"time": 129360, "pitch": 43, "duration": 700, "velocity": 110}, {"time": 129600, "pitch": 53, "duration": 450, "velocity": 100}, {"time": 129600, "pitch": 60, "duration": 450, "velocity": 100}, {"time": 129600, "pitch": 62, "duration": 450, "velocity": 110}, {"time": 130080, "pitch": 46, "duration": 150, "velocity": 110}, {"time": 130080, "pitch": 56, "duration": 150, "velocity": 100}, {"time": 130080, "pitch": 63, "duration": 150, "velocity": 100}, {"time": 130080, "pitch": 67, "duration": 150, "velocity": 110}, {"time": 130560, "pitch": 46, "duration": 450, "velocity": 110}, {"time": 130560, "pitch": 56, "duration": 450, "velocity": 100}, {"time": 130560, "pitch": 63, "duration": 450, "velocity": 100}, {"time": 130560, "pitch": 67, "duration": 450, "velocity": 110}, {"time": 131040, "pitch": 46, "duration": 700, "velocity": 110}, {"time": 131280, "pitch": 56, "duration": 680, "velocity": 100}, {"time": 131280, "pitch": 63, "duration": 680, "velocity": 100}, {"time": 131280, "pitch": 67, "duration": 680, "velocity": 110}, {"time": 132000, "pitch": 46, "duration": 480, "velocity": 110}, {"time": 132000, "pitch": 56, "duration": 480, "velocity": 100}, {"time": 132000, "pitch": 62, "duration": 480, "velocity": 100}, {"time": 132000, "pitch": 67, "duration": 480, "velocity": 110}, {"time": 132720, "pitch": 46, "duration": 1200, "velocity": 110}, {"time": 132720, "pitch": 56, "duration": 1200, "velocity": 100}, {"time": 132720, "pitch": 62, "duration": 1200, "velocity": 100}, {"time": 132720, "pitch": 65, "duration": 1200, "velocity": 110}, {"time": 133920, "pitch": 55, "duration": 220, "velocity": 100}, {"time": 133920, "pitch": 58, "duration": 220, "velocity": 90}, {"time": 133930, "pitch": 63, "duration": 220, "velocity": 90}, {"time": 133930, "pitch": 67, "duration": 220, "velocity": 100}, {"time": 134160, "pitch": 55, "duration": 160, "velocity": 110}, {"time": 134160, "pitch": 58, "duration": 160, "velocity": 100}, {"time": 134160, "pitch": 63, "duration": 160, "velocity": 100}, {"time": 134160, "pitch": 67, "duration": 160, "velocity": 110}, {"time": 134320, "pitch": 55, "duration": 80, "velocity": 80}, {"time": 134320, "pitch": 58, "duration": 80, "velocity": 70}, {"time": 134320, "pitch": 63, "duration": 80, "velocity": 70}, {"time": 134320, "pitch": 67, "duration": 80, "velocity": 80}, {"time": 134400, "pitch": 55, "duration": 220, "velocity": 100}, {"time": 134400, "pitch": 58, "duration": 220, "velocity": 90}, {"time": 134410, "pitch": 63, "duration": 220, "velocity": 90}, {"time": 134410, "pitch": 67, "duration": 220, "velocity": 100}, {"time": 134640, "pitch": 55, "duration": 160, "velocity": 110}, {"time": 134640, "pitch": 58, "duration": 160, "velocity": 100}, {"time": 134640, "pitch": 63, "duration": 160, "velocity": 100}, {"time": 134640, "pitch": 67, "duration": 160, "velocity": 110}, {"time": 134800, "pitch": 55, "duration": 80, "velocity": 80}, {"time": 134800, "pitch": 58, "duration": 80, "velocity": 70}, {"time": 134800, "pitch": 63, "duration": 80, "velocity": 70}, {"time": 134800, "pitch": 67, "duration": 80, "velocity": 80}, {"time": 134880, "pitch": 56, "duration": 220, "velocity": 100}, {"time": 134880, "pitch": 60, "duration": 220, "velocity": 90}, {"time": 134890, "pitch": 63, "duration": 220, "velocity": 90}, {"time": 134890, "pitch": 68, "duration": 220, "velocity": 100}, {"time": 135120, "pitch": 56, "duration": 160, "velocity": 110}, {"time": 135120, "pitch": 60, "duration": 160, "velocity": 100}, {"time": 135120, "pitch": 63, "duration": 160, "velocity": 100}, {"time": 135120, "pitch": 68, "duration": 160, "velocity": 110}, {"time": 135280, "pitch": 56, "duration": 80, "velocity": 80}, {"time": 135280, "pitch": 60, "duration": 80, "velocity": 70}, {"time": 135280, "pitch": 63, "duration": 80, "velocity": 70}, {"time": 135280, "pitch": 68, "duration": 80, "velocity": 80}, {"time": 135360, "pitch": 56, "duration": 220, "velocity": 100}, {"time": 135360, "pitch": 60, "duration": 220, "velocity": 90}, {"time": 135370, "pitch": 63, "duration": 220, "velocity": 90}, {"time": 135370, "pitch": 68, "duration": 220, "velocity": 100}, {"time": 135600, "pitch": 56, "duration": 160, "velocity": 110}, {"time": 135600, "pitch": 60, "duration": 160, "velocity": 100}, {"time": 135600, "pitch": 63, "duration": 160, "velocity": 100}, {"time": 135600, "pitch": 68, "duration": 160, "velocity": 110}, {"time": 135760, "pitch": 56, "duration": 80, "velocity": 80}, {"time": 135760, "pitch": 60, "duration": 80, "velocity": 70}, {"time": 135760, "pitch": 63, "duration": 80, "velocity": 70}, {"time": 135760, "pitch": 68, "duration": 80, "velocity": 80}, {"time": 135840, "pitch": 56, "duration": 220, "velocity": 100}, {"time": 135840, "pitch": 60, "duration": 220, "velocity": 90}, {"time": 135850, "pitch": 63, "duration": 220, "velocity": 90}, {"time": 135850, "pitch": 68, "duration": 220, "velocity": 100}, {"time": 136080, "pitch": 56, "duration": 160, "velocity": 110}, {"time": 136080, "pitch": 60, "duration": 160, "velocity": 100}, {"time": 136080, "pitch": 63, "duration": 160, "velocity": 100}, {"time": 136080, "pitch": 68, "duration": 160, "velocity": 110}, {"time": 136240, "pitch": 56, "duration": 80, "velocity": 80}, {"time": 136240, "pitch": 60, "duration": 80, "velocity": 70}, {"time": 136240, "pitch": 63, "duration": 80, "velocity": 70}, {"time": 136240, "pitch": 68, "duration": 80, "velocity": 80}, {"time": 136320, "pitch": 56, "duration": 220, "velocity": 100}, {"time": 136320, "pitch": 60, "duration": 220, "velocity": 90}, {"time": 136330, "pitch": 63, "duration": 220, "velocity": 90}, {"time": 136330, "pitch": 68, "duration": 220, "velocity": 100}, {"time": 136560, "pitch": 56, "duration": 160, "velocity": 110}, {"time": 136560, "pitch": 60, "duration": 160, "velocity": 100}, {"time": 136560, "pitch": 63, "duration": 160, "velocity": 100}, {"time": 136560, "pitch": 68, "duration": 160, "velocity": 110}, {"time": 136720, "pitch": 56, "duration": 80, "velocity": 80}, {"time": 136720, "pitch": 60, "duration": 80, "velocity": 70}, {"time": 136720, "pitch": 63, "duration": 80, "velocity": 70}, {"time": 136720, "pitch": 68, "duration": 80, "velocity": 80}, {"time": 136800, "pitch": 55, "duration": 220, "velocity": 100}, {"time": 136800, "pitch": 58, "duration": 220, "velocity": 90}, {"time": 136810, "pitch": 63, "duration": 220, "velocity": 90}, {"time": 136810, "pitch": 67, "duration": 220, "velocity": 100}, {"time": 137040, "pitch": 55, "duration": 160, "velocity": 110}, {"time": 137040, "pitch": 58, "duration": 160, "velocity": 100}, {"time": 137040, "pitch": 63, "duration": 160, "velocity": 100}, {"time": 137040, "pitch": 67, "duration": 160, "velocity": 110}, {"time": 137200, "pitch": 55, "duration": 80, "velocity": 80}, {"time": 137200, "pitch": 58, "duration": 80, "velocity": 70}, {"time": 137200, "pitch": 63, "duration": 80, "velocity": 70}, {"time": 137200, "pitch": 67, "duration": 80, "velocity": 80}, {"time": 137280, "pitch": 55, "duration": 220, "velocity": 100}, {"time": 137280, "pitch": 58, "duration": 220, "velocity": 90}, {"time": 137290, "pitch": 63, "duration": 220, "velocity": 90}, {"time": 137290, "pitch": 67, "duration": 220, "velocity": 100}, {"time": 137520, "pitch": 55, "duration": 160, "velocity": 110}, {"time": 137520, "pitch": 58, "duration": 160, "velocity": 100}, {"time": 137520, "pitch": 63, "duration": 160, "velocity": 100}, {"time": 137520, "pitch": 67, "duration": 160, "velocity": 110}, {"time": 137680, "pitch": 55, "duration": 80, "velocity": 80}, {"time": 137680, "pitch": 58, "duration": 80, "velocity": 70}, {"time": 137680, "pitch": 63, "duration": 80, "velocity": 70}, {"time": 137680, "pitch": 67, "duration": 80, "velocity": 80}, {"time": 137760, "pitch": 55, "duration": 220, "velocity": 100}, {"time": 137760, "pitch": 58, "duration": 220, "velocity": 90}, {"time": 137770, "pitch": 63, "duration": 220, "velocity": 90}, {"time": 137770, "pitch": 67, "duration": 220, "velocity": 100}, {"time": 138000, "pitch": 55, "duration": 160, "velocity": 110}, {"time": 138000, "pitch": 58, "duration": 160, "velocity": 100}, {"time": 138000, "pitch": 63, "duration": 160, "velocity": 100}, {"time": 138000, "pitch": 67, "duration": 160, "velocity": 110}, {"time": 138160, "pitch": 55, "duration": 80, "velocity": 80}, {"time": 138160, "pitch": 58, "duration": 80, "velocity": 70}, {"time": 138160, "pitch": 63, "duration": 80, "velocity": 70}, {"time": 138160, "pitch": 67, "duration": 80, "velocity": 80}, {"time": 138240, "pitch": 55, "duration": 220, "velocity": 100}, {"time": 138240, "pitch": 58, "duration": 220, "velocity": 90}, {"time": 138250, "pitch": 63, "duration": 220, "velocity": 90}, {"time": 138250, "pitch": 67, "duration": 220, "velocity": 100}, {"time": 138480, "pitch": 55, "duration": 160, "velocity": 110}, {"time": 138480, "pitch": 58, "duration": 160, "velocity": 100}, {"time": 138480, "pitch": 63, "duration": 160, "velocity": 100}, {"time": 138480, "pitch": 67, "duration": 160, "velocity": 110}, {"time": 138640, "pitch": 55, "duration": 80, "velocity": 80}, {"time": 138640, "pitch": 58, "duration": 80, "velocity": 70}, {"time": 138640, "pitch": 63, "duration": 80, "velocity": 70}, {"time": 138640, "pitch": 67, "duration": 80, "velocity": 80}, {"time": 138720, "pitch": 56, "duration": 220, "velocity": 100}, {"time": 138720, "pitch": 60, "duration": 220, "velocity": 90}, {"time": 138730, "pitch": 63, "duration": 220, "velocity": 90}, {"time": 138730, "pitch": 68, "duration": 220, "velocity": 100}, {"time": 138960, "pitch": 56, "duration": 160, "velocity": 110}, {"time": 138960, "pitch": 60, "duration": 160, "velocity": 100}, {"time": 138960, "pitch": 63, "duration": 160, "velocity": 100}, {"time": 138960, "pitch": 68, "duration": 160, "velocity": 110}, {"time": 139120, "pitch": 56, "duration": 80, "velocity": 80}, {"time": 139120, "pitch": 60, "duration": 80, "velocity": 70}, {"time": 139120, "pitch": 63, "duration": 80, "velocity": 70}, {"time": 139120, "pitch": 68, "duration": 80, "velocity": 80}, {"time": 139200, "pitch": 56, "duration": 220, "velocity": 100}, {"time": 139200, "pitch": 60, "duration": 220, "velocity": 90}, {"time": 139210, "pitch": 63, "duration": 220, "velocity": 90}, {"time": 139210, "pitch": 68, "duration": 220, "velocity": 100}, {"time": 139440, "pitch": 56, "duration": 160, "velocity": 110}, {"time": 139440, "pitch": 60, "duration": 160, "velocity": 100}, {"time": 139440, "pitch": 63, "duration": 160, "velocity": 100}, {"time": 139440, "pitch": 68, "duration": 160, "velocity": 110}, {"time": 139600, "pitch": 56, "duration": 80, "velocity": 80}, {"time": 139600, "pitch": 60, "duration": 80, "velocity": 70}, {"time": 139600, "pitch": 63, "duration": 80, "velocity": 70}, {"time": 139600, "pitch": 68, "duration": 80, "velocity": 80}, {"time": 139680, "pitch": 54, "duration": 220, "velocity": 100}, {"time": 139680, "pitch": 59, "duration": 220, "velocity": 90}, {"time": 139690, "pitch": 63, "duration": 220, "velocity": 90}, {"time": 139690, "pitch": 70, "duration": 220, "velocity": 100}, {"time": 139920, "pitch": 54, "duration": 160, "velocity": 110}, {"time": 139920, "pitch": 59, "duration": 160, "velocity": 100}, {"time": 139920, "pitch": 63, "duration": 160, "velocity": 100}, {"time": 139920, "pitch": 70, "duration": 160, "velocity": 110}, {"time": 140080, "pitch": 54, "duration": 80, "velocity": 80}, {"time": 140080, "pitch": 59, "duration": 80, "velocity": 70}, {"time": 140080, "pitch": 63, "duration": 80, "velocity": 70}, {"time": 140080, "pitch": 70, "duration": 80, "velocity": 80}, {"time": 140160, "pitch": 54, "duration": 220, "velocity": 100}, {"time": 140160, "pitch": 59, "duration": 220, "velocity": 90}, {"time": 140170, "pitch": 63, "duration": 220, "velocity": 90}, {"time": 140170, "pitch": 70, "duration": 220, "velocity": 100}, {"time": 140400, "pitch": 54, "duration": 160, "velocity": 110}, {"time": 140400, "pitch": 59, "duration": 160, "velocity": 100}, {"time": 140400, "pitch": 63, "duration": 160, "velocity": 100}, {"time": 140400, "pitch": 70, "duration": 160, "velocity": 110}, {"time": 140560, "pitch": 54, "duration": 80, "velocity": 80}, {"time": 140560, "pitch": 59, "duration": 80, "velocity": 70}, {"time": 140560, "pitch": 63, "duration": 80, "velocity": 70}, {"time": 140560, "pitch": 70, "duration": 80, "velocity": 80}, {"time": 140640, "pitch": 56, "duration": 920, "velocity": 100}, {"time": 140640, "pitch": 61, "duration": 920, "velocity": 90}, {"time": 140650, "pitch": 65, "duration": 920, "velocity": 90}, {"time": 140650, "pitch": 70, "duration": 920, "velocity": 100}, {"time": 148320, "pitch": 54, "duration": 10, "velocity": 80}, {"time": 148320, "pitch": 59, "duration": 10, "velocity": 70}, {"time": 148320, "pitch": 63, "duration": 10, "velocity": 70}, {"time": 148320, "pitch": 66, "duration": 10, "velocity": 80}, {"time": 148400, "pitch": 54, "duration": 80, "velocity": 110}, {"time": 148400, "pitch": 59, "duration": 80, "velocity": 100}, {"time": 148400, "pitch": 63, "duration": 80, "velocity": 100}, {"time": 148400, "pitch": 66, "duration": 80, "velocity": 110}, {"time": 148560, "pitch": 54, "duration": 220, "velocity": 100}, {"time": 148560, "pitch": 59, "duration": 220, "velocity": 90}, {"time": 148570, "pitch": 63, "duration": 220, "velocity": 90}, {"time": 148570, "pitch": 66, "duration": 220, "velocity": 100}, {"time": 148800, "pitch": 53, "duration": 10, "velocity": 80}, {"time": 148800, "pitch": 56, "duration": 10, "velocity": 70}, {"time": 148800, "pitch": 61, "duration": 10, "velocity": 70}, {"time": 148800, "pitch": 65, "duration": 10, "velocity": 80}, {"time": 148880, "pitch": 53, "duration": 80, "velocity": 110}, {"time": 148880, "pitch": 56, "duration": 80, "velocity": 100}, {"time": 148880, "pitch": 61, "duration": 80, "velocity": 100}, {"time": 148880, "pitch": 65, "duration": 80, "velocity": 110}, {"time": 149040, "pitch": 53, "duration": 220, "velocity": 100}, {"time": 149040, "pitch": 56, "duration": 220, "velocity": 90}, {"time": 149050, "pitch": 61, "duration": 220, "velocity": 90}, {"time": 149050, "pitch": 65, "duration": 220, "velocity": 100}, {"time": 149280, "pitch": 55, "duration": 220, "velocity": 100}, {"time": 149280, "pitch": 58, "duration": 220, "velocity": 90}, {"time": 149290, "pitch": 63, "duration": 220, "velocity": 90}, {"time": 149290, "pitch": 67, "duration": 220, "velocity": 100}, {"time": 149520, "pitch": 55, "duration": 160, "velocity": 110}, {"time": 149520, "pitch": 58, "duration": 160, "velocity": 100}, {"time": 149520, "pitch": 63, "duration": 160, "velocity": 100}, {"time": 149520, "pitch": 67, "duration": 160, "velocity": 110}, {"time": 149680, "pitch": 55, "duration": 80, "velocity": 80}, {"time": 149680, "pitch": 58, "duration": 80, "velocity": 70}, {"time": 149680, "pitch": 63, "duration": 80, "velocity": 70}, {"time": 149680, "pitch": 67, "duration": 80, "velocity": 80}, {"time": 149760, "pitch": 55, "duration": 220, "velocity": 100}, {"time": 149760, "pitch": 58, "duration": 220, "velocity": 90}, {"time": 149770, "pitch": 63, "duration": 220, "velocity": 90}, {"time": 149770, "pitch": 67, "duration": 220, "velocity": 100}, {"time": 150000, "pitch": 55, "duration": 160, "velocity": 110}, {"time": 150000, "pitch": 58, "duration": 160, "velocity": 100}, {"time": 150000, "pitch": 63, "duration": 160, "velocity": 100}, {"time": 150000, "pitch": 67, "duration": 160, "velocity": 110}, {"time": 150160, "pitch": 55, "duration": 80, "velocity": 80}, {"time": 150160, "pitch": 58, "duration": 80, "velocity": 70}, {"time": 150160, "pitch": 63, "duration": 80, "velocity": 70}, {"time": 150160, "pitch": 67, "duration": 80, "velocity": 80}, {"time": 150240, "pitch": 53, "duration": 220, "velocity": 100}, {"time": 150240, "pitch": 58, "duration": 220, "velocity": 90}, {"time": 150250, "pitch": 62, "duration": 220, "velocity": 90}, {"time": 150250, "pitch": 65, "duration": 220, "velocity": 100}, {"time": 150480, "pitch": 53, "duration": 160, "velocity": 110}, {"time": 150480, "pitch": 58, "duration": 160, "velocity": 100}, {"time": 150480, "pitch": 62, "duration": 160, "velocity": 100}, {"time": 150480, "pitch": 65, "duration": 160, "velocity": 110}, {"time": 150640, "pitch": 53, "duration": 80, "velocity": 80}, {"time": 150640, "pitch": 58, "duration": 80, "velocity": 70}, {"time": 150640, "pitch": 62, "duration": 80, "velocity": 70}, {"time": 150640, "pitch": 65, "duration": 80, "velocity": 80}, {"time": 150720, "pitch": 53, "duration": 220, "velocity": 100}, {"time": 150720, "pitch": 58, "duration": 220, "velocity": 90}, {"time": 150730, "pitch": 62, "duration": 220, "velocity": 90}, {"time": 150730, "pitch": 65, "duration": 220, "velocity": 100}, {"time": 150960, "pitch": 53, "duration": 160, "velocity": 110}, {"time": 150960, "pitch": 58, "duration": 160, "velocity": 100}, {"time": 150960, "pitch": 62, "duration": 160, "velocity": 100}, {"time": 150960, "pitch": 65, "duration": 160, "velocity": 110}, {"time": 151120, "pitch": 53, "duration": 80, "velocity": 80}, {"time": 151120, "pitch": 58, "duration": 80, "velocity": 70}, {"time": 151120, "pitch": 62, "duration": 80, "velocity": 70}, {"time": 151120, "pitch": 65, "duration": 80, "velocity": 80}, {"time": 151200, "pitch": 55, "duration": 220, "velocity": 100}, {"time": 151200, "pitch": 60, "duration": 220, "velocity": 90}, {"time": 151210, "pitch": 63, "duration": 220, "velocity": 90}, {"time": 151210, "pitch": 67, "duration": 220, "velocity": 100}, {"time": 151440, "pitch": 55, "duration": 160, "velocity": 110}, {"time": 151440, "pitch": 60, "duration": 160, "velocity": 100}, {"time": 151440, "pitch": 63, "duration": 160, "velocity": 100}, {"time": 151440, "pitch": 67, "duration": 160, "velocity": 110}, {"time": 151600, "pitch": 55, "duration": 80, "velocity": 80}, {"time": 151600, "pitch": 60, "duration": 80, "velocity": 70}, {"time": 151600, "pitch": 63, "duration": 80, "velocity": 70}, {"time": 151600, "pitch": 67, "duration": 80, "velocity": 80}, {"time": 151680, "pitch": 55, "duration": 220, "velocity": 100}, {"time": 151680, "pitch": 60, "duration": 220, "velocity": 90}, {"time": 151690, "pitch": 63, "duration": 220, "velocity": 90}, {"time": 151690, "pitch": 67, "duration": 220, "velocity": 100}, {"time": 151920, "pitch": 55, "duration": 160, "velocity": 110}, {"time": 151920, "pitch": 60, "duration": 160, "velocity": 100}, {"time": 151920, "pitch": 63, "duration": 160, "velocity": 100}, {"time": 151920, "pitch": 67, "duration": 160, "velocity": 110}, {"time": 152080, "pitch": 55, "duration": 80, "velocity": 80}, {"time": 152080, "pitch": 60, "duration": 80, "velocity": 70}, {"time": 152080, "pitch": 63, "duration": 80, "velocity": 70}, {"time": 152080, "pitch": 67, "duration": 80, "velocity": 80}, {"time": 152160, "pitch": 53, "duration": 220, "velocity": 100}, {"time": 152160, "pitch": 58, "duration": 220, "velocity": 90}, {"time": 152170, "pitch": 62, "duration": 220, "velocity": 90}, {"time": 152170, "pitch": 67, "duration": 220, "velocity": 100}, {"time": 152400, "pitch": 53, "duration": 160, "velocity": 110}, {"time": 152400, "pitch": 58, "duration": 160, "velocity": 100}, {"time": 152400, "pitch": 62, "duration": 160, "velocity": 100}, {"time": 152400, "pitch": 67, "duration": 160, "velocity": 110}, {"time": 152560, "pitch": 53, "duration": 80, "velocity": 80}, {"time": 152560, "pitch": 58, "duration": 80, "velocity": 70}, {"time": 152560, "pitch": 62, "duration": 80, "velocity": 70}, {"time": 152560, "pitch": 67, "duration": 80, "velocity": 80}, {"time": 152640, "pitch": 53, "duration": 220, "velocity": 100}, {"time": 152640, "pitch": 58, "duration": 220, "velocity": 90}, {"time": 152650, "pitch": 62, "duration": 220, "velocity": 90}, {"time": 152650, "pitch": 67, "duration": 220, "velocity": 100}, {"time": 152880, "pitch": 53, "duration": 160, "velocity": 110}, {"time": 152880, "pitch": 58, "duration": 160, "velocity": 100}, {"time": 152880, "pitch": 62, "duration": 160, "velocity": 100}, {"time": 152880, "pitch": 67, "duration": 160, "velocity": 110}, {"time": 153040, "pitch": 53, "duration": 80, "velocity": 80}, {"time": 153040, "pitch": 58, "duration": 80, "velocity": 70}, {"time": 153040, "pitch": 62, "duration": 80, "velocity": 70}, {"time": 153040, "pitch": 67, "duration": 80, "velocity": 80}, {"time": 153120, "pitch": 56, "duration": 220, "velocity": 100}, {"time": 153120, "pitch": 60, "duration": 220, "velocity": 90}, {"time": 153130, "pitch": 63, "duration": 220, "velocity": 90}, {"time": 153130, "pitch": 68, "duration": 220, "velocity": 100}, {"time": 153360, "pitch": 56, "duration": 160, "velocity": 110}, {"time": 153360, "pitch": 60, "duration": 160, "velocity": 100}, {"time": 153360, "pitch": 63, "duration": 160, "velocity": 100}, {"time": 153360, "pitch": 68, "duration": 160, "velocity": 110}, {"time": 153520, "pitch": 56, "duration": 80, "velocity": 80}, {"time": 153520, "pitch": 60, "duration": 80, "velocity": 70}, {"time": 153520, "pitch": 63, "duration": 80, "velocity": 70}, {"time": 153520, "pitch": 68, "duration": 80, "velocity": 80}, {"time": 153600, "pitch": 56, "duration": 220, "velocity": 100}, {"time": 153600, "pitch": 60, "duration": 220, "velocity": 90}, {"time": 153610, "pitch": 63, "duration": 220, "velocity": 90}, {"time": 153610, "pitch": 68, "duration": 220, "velocity": 100}, {"time": 153840, "pitch": 56, "duration": 160, "velocity": 110}, {"time": 153840, "pitch": 60, "duration": 160, "velocity": 100}, {"time": 153840, "pitch": 63, "duration": 160, "velocity": 100}, {"time": 153840, "pitch": 68, "duration": 160, "velocity": 110}, {"time": 154000, "pitch": 56, "duration": 80, "velocity": 80}, {"time": 154000, "pitch": 60, "duration": 80, "velocity": 70}, {"time": 154000, "pitch": 63, "duration": 80, "velocity": 70}, {"time": 154000, "pitch": 68, "duration": 80, "velocity": 80}, {"time": 154080, "pitch": 55, "duration": 220, "velocity": 100}, {"time": 154080, "pitch": 58, "duration": 220, "velocity": 90}, {"time": 154090, "pitch": 63, "duration": 220, "velocity": 90}, {"time": 154090, "pitch": 67, "duration": 220, "velocity": 100}, {"time": 154320, "pitch": 55, "duration": 160, "velocity": 110}, {"time": 154320, "pitch": 58, "duration": 160, "velocity": 100}, {"time": 154320, "pitch": 63, "duration": 160, "velocity": 100}, {"time": 154320, "pitch": 67, "duration": 160, "velocity": 110}, {"time": 154480, "pitch": 55, "duration": 80, "velocity": 80}, {"time": 154480, "pitch": 58, "duration": 80, "velocity": 70}, {"time": 154480, "pitch": 63, "duration": 80, "velocity": 70}, {"time": 154480, "pitch": 67, "duration": 80, "velocity": 80}, {"time": 154560, "pitch": 55, "duration": 220, "velocity": 100}, {"time": 154560, "pitch": 58, "duration": 220, "velocity": 90}, {"time": 154570, "pitch": 63, "duration": 220, "velocity": 90}, {"time": 154570, "pitch": 67, "duration": 220, "velocity": 100}, {"time": 154800, "pitch": 55, "duration": 160, "velocity": 110}, {"time": 154800, "pitch": 58, "duration": 160, "velocity": 100}, {"time": 154800, "pitch": 63, "duration": 160, "velocity": 100}, {"time": 154800, "pitch": 67, "duration": 160, "velocity": 110}, {"time": 154960, "pitch": 55, "duration": 80, "velocity": 80}, {"time": 154960, "pitch": 58, "duration": 80, "velocity": 70}, {"time": 154960, "pitch": 63, "duration": 80, "velocity": 70}, {"time": 154960, "pitch": 67, "duration": 80, "velocity": 80}, {"time": 155040, "pitch": 56, "duration": 220, "velocity": 100}, {"time": 155040, "pitch": 60, "duration": 220, "velocity": 90}, {"time": 155050, "pitch": 63, "duration": 220, "velocity": 90}, {"time": 155050, "pitch": 68, "duration": 220, "velocity": 100}, {"time": 155280, "pitch": 56, "duration": 160, "velocity": 110}, {"time": 155280, "pitch": 60, "duration": 160, "velocity": 100}, {"time": 155280, "pitch": 63, "duration": 160, "velocity": 100}, {"time": 155280, "pitch": 68, "duration": 160, "velocity": 110}, {"time": 155440, "pitch": 56, "duration": 80, "velocity": 80}, {"time": 155440, "pitch": 60, "duration": 80, "velocity": 70}, {"time": 155440, "pitch": 63, "duration": 80, "velocity": 70}, {"time": 155440, "pitch": 68, "duration": 80, "velocity": 80}, {"time": 155520, "pitch": 56, "duration": 220, "velocity": 100}, {"time": 155520, "pitch": 60, "duration": 220, "velocity": 90}, {"time": 155530, "pitch": 63, "duration": 220, "velocity": 90}, {"time": 155530, "pitch": 68, "duration": 220, "velocity": 100}, {"time": 155760, "pitch": 56, "duration": 160, "velocity": 110}, {"time": 155760, "pitch": 60, "duration": 160, "velocity": 100}, {"time": 155760, "pitch": 63, "duration": 160, "velocity": 100}, {"time": 155760, "pitch": 68, "duration": 160, "velocity": 110}, {"time": 155920, "pitch": 56, "duration": 80, "velocity": 80}, {"time": 155920, "pitch": 60, "duration": 80, "velocity": 70}, {"time": 155920, "pitch": 63, "duration": 80, "velocity": 70}, {"time": 155920, "pitch": 68, "duration": 80, "velocity": 80}, {"time": 156000, "pitch": 54, "duration": 220, "velocity": 100}, {"time": 156000, "pitch": 59, "duration": 220, "velocity": 90}, {"time": 156010, "pitch": 63, "duration": 220, "velocity": 90}, {"time": 156010, "pitch": 69, "duration": 220, "velocity": 100}, {"time": 156240, "pitch": 54, "duration": 160, "velocity": 110}, {"time": 156240, "pitch": 59, "duration": 160, "velocity": 100}, {"time": 156240, "pitch": 63, "duration": 160, "velocity": 100}, {"time": 156240, "pitch": 69, "duration": 160, "velocity": 110}, {"time": 156400, "pitch": 54, "duration": 80, "velocity": 80}, {"time": 156400, "pitch": 59, "duration": 80, "velocity": 70}, {"time": 156400, "pitch": 63, "duration": 80, "velocity": 70}, {"time": 156400, "pitch": 69, "duration": 80, "velocity": 80}, {"time": 156480, "pitch": 54, "duration": 220, "velocity": 100}, {"time": 156480, "pitch": 59, "duration": 220, "velocity": 90}, {"time": 156490, "pitch": 63, "duration": 220, "velocity": 90}, {"time": 156490, "pitch": 69, "duration": 220, "velocity": 100}, {"time": 156720, "pitch": 54, "duration": 160, "velocity": 110}, {"time": 156720, "pitch": 59, "duration": 160, "velocity": 100}, {"time": 156720, "pitch": 63, "duration": 160, "velocity": 100}, {"time": 156720, "pitch": 69, "duration": 160, "velocity": 110}, {"time": 156880, "pitch": 54, "duration": 80, "velocity": 80}, {"time": 156880, "pitch": 59, "duration": 80, "velocity": 70}, {"time": 156880, "pitch": 63, "duration": 80, "velocity": 70}, {"time": 156880, "pitch": 69, "duration": 80, "velocity": 80}, {"time": 156960, "pitch": 56, "duration": 220, "velocity": 100}, {"time": 156960, "pitch": 59, "duration": 220, "velocity": 90}, {"time": 156970, "pitch": 64, "duration": 220, "velocity": 90}, {"time": 156970, "pitch": 68, "duration": 220, "velocity": 100}, {"time": 157200, "pitch": 56, "duration": 160, "velocity": 110}, {"time": 157200, "pitch": 59, "duration": 160, "velocity": 100}, {"time": 157200, "pitch": 64, "duration": 160, "velocity": 100}, {"time": 157200, "pitch": 68, "duration": 160, "velocity": 110}, {"time": 157360, "pitch": 56, "duration": 80, "velocity": 80}, {"time": 157360, "pitch": 59, "duration": 80, "velocity": 70}, {"time": 157360, "pitch": 64, "duration": 80, "velocity": 70}, {"time": 157360, "pitch": 68, "duration": 80, "velocity": 80}, {"time": 157440, "pitch": 56, "duration": 220, "velocity": 100}, {"time": 157440, "pitch": 59, "duration": 220, "velocity": 90}, {"time": 157450, "pitch": 64, "duration": 220, "velocity": 90}, {"time": 157450, "pitch": 68, "duration": 220, "velocity": 100}, {"time": 157680, "pitch": 56, "duration": 160, "velocity": 110}, {"time": 157680, "pitch": 59, "duration": 160, "velocity": 100}, {"time": 157680, "pitch": 64, "duration": 160, "velocity": 100}, {"time": 157680, "pitch": 68, "duration": 160, "velocity": 110}, {"time": 157840, "pitch": 56, "duration": 80, "velocity": 80}, {"time": 157840, "pitch": 59, "duration": 80, "velocity": 70}, {"time": 157840, "pitch": 64, "duration": 80, "velocity": 70}, {"time": 157840, "pitch": 68, "duration": 80, "velocity": 80}, {"time": 157920, "pitch": 54, "duration": 220, "velocity": 100}, {"time": 157920, "pitch": 59, "duration": 220, "velocity": 90}, {"time": 157930, "pitch": 63, "duration": 220, "velocity": 90}, {"time": 157930, "pitch": 66, "duration": 220, "velocity": 100}, {"time": 158160, "pitch": 54, "duration": 160, "velocity": 110}, {"time": 158160, "pitch": 59, "duration": 160, "velocity": 100}, {"time": 158160, "pitch": 63, "duration": 160, "velocity": 100}, {"time": 158160, "pitch": 66, "duration": 160, "velocity": 110}, {"time": 158320, "pitch": 54, "duration": 80, "velocity": 80}, {"time": 158320, "pitch": 59, "duration": 80, "velocity": 70}, {"time": 158320, "pitch": 63, "duration": 80, "velocity": 70}, {"time": 158320, "pitch": 66, "duration": 80, "velocity": 80}, {"time": 158400, "pitch": 54, "duration": 220, "velocity": 100}, {"time": 158400, "pitch": 59, "duration": 220, "velocity": 90}, {"time": 158410, "pitch": 63, "duration": 220, "velocity": 90}, {"time": 158410, "pitch": 66, "duration": 220, "velocity": 100}, {"time": 158640, "pitch": 54, "duration": 160, "velocity": 110}, {"time": 158640, "pitch": 59, "duration": 160, "velocity": 100}, {"time": 158640, "pitch": 63, "duration": 160, "velocity": 100}, {"time": 158640, "pitch": 66, "duration": 160, "velocity": 110}, {"time": 158800, "pitch": 54, "duration": 80, "velocity": 80}, {"time": 158800, "pitch": 59, "duration": 80, "velocity": 70}, {"time": 158800, "pitch": 63, "duration": 80, "velocity": 70}, {"time": 158800, "pitch": 66, "duration": 80, "velocity": 80}, {"time": 158880, "pitch": 56, "duration": 220, "velocity": 100}, {"time": 158880, "pitch": 61, "duration": 220, "velocity": 90}, {"time": 158890, "pitch": 64, "duration": 220, "velocity": 90}, {"time": 158890, "pitch": 68, "duration": 220, "velocity": 100}, {"time": 159120, "pitch": 56, "duration": 160, "velocity": 110}, {"time": 159120, "pitch": 61, "duration": 160, "velocity": 100}, {"time": 159120, "pitch": 64, "duration": 160, "velocity": 100}, {"time": 159120, "pitch": 68, "duration": 160, "velocity": 110}, {"time": 159280, "pitch": 56, "duration": 80, "velocity": 80}, {"time": 159280, "pitch": 61, "duration": 80, "velocity": 70}, {"time": 159280, "pitch": 64, "duration": 80, "velocity": 70}, {"time": 159280, "pitch": 68, "duration": 80, "velocity": 80}, {"time": 159360, "pitch": 56, "duration": 220, "velocity": 100}, {"time": 159360, "pitch": 61, "duration": 220, "velocity": 90}, {"time": 159370, "pitch": 64, "duration": 220, "velocity": 90}, {"time": 159370, "pitch": 68, "duration": 220, "velocity": 100}, {"time": 159600, "pitch": 56, "duration": 160, "velocity": 110}, {"time": 159600, "pitch": 61, "duration": 160, "velocity": 100}, {"time": 159600, "pitch": 64, "duration": 160, "velocity": 100}, {"time": 159600, "pitch": 68, "duration": 160, "velocity": 110}, {"time": 159760, "pitch": 56, "duration": 80, "velocity": 80}, {"time": 159760, "pitch": 61, "duration": 80, "velocity": 70}, {"time": 159760, "pitch": 64, "duration": 80, "velocity": 70}, {"time": 159760, "pitch": 68, "duration": 80, "velocity": 80}, {"time": 159840, "pitch": 54, "duration": 220, "velocity": 100}, {"time": 159840, "pitch": 59, "duration": 220, "velocity": 90}, {"time": 159850, "pitch": 63, "duration": 220, "velocity": 90}, {"time": 159850, "pitch": 68, "duration": 220, "velocity": 100}, {"time": 160080, "pitch": 54, "duration": 160, "velocity": 110}, {"time": 160080, "pitch": 59, "duration": 160, "velocity": 100}, {"time": 160080, "pitch": 63, "duration": 160, "velocity": 100}, {"time": 160080, "pitch": 68, "duration": 160, "velocity": 110}, {"time": 160240, "pitch": 54, "duration": 80, "velocity": 80}, {"time": 160240, "pitch": 59, "duration": 80, "velocity": 70}, {"time": 160240, "pitch": 63, "duration": 80, "velocity": 70}, {"time": 160240, "pitch": 68, "duration": 80, "velocity": 80}, {"time": 160320, "pitch": 54, "duration": 220, "velocity": 100}, {"time": 160320, "pitch": 59, "duration": 220, "velocity": 90}, {"time": 160330, "pitch": 63, "duration": 220, "velocity": 90}, {"time": 160330, "pitch": 68, "duration": 220, "velocity": 100}, {"time": 160560, "pitch": 54, "duration": 160, "velocity": 110}, {"time": 160560, "pitch": 59, "duration": 160, "velocity": 100}, {"time": 160560, "pitch": 63, "duration": 160, "velocity": 100}, {"time": 160560, "pitch": 68, "duration": 160, "velocity": 110}, {"time": 160720, "pitch": 54, "duration": 80, "velocity": 80}, {"time": 160720, "pitch": 59, "duration": 80, "velocity": 70}, {"time": 160720, "pitch": 63, "duration": 80, "velocity": 70}, {"time": 160720, "pitch": 68, "duration": 80, "velocity": 80}, {"time": 160800, "pitch": 57, "duration": 220, "velocity": 100}, {"time": 160800, "pitch": 61, "duration": 220, "velocity": 90}, {"time": 160810, "pitch": 64, "duration": 220, "velocity": 90}, {"time": 160810, "pitch": 69, "duration": 220, "velocity": 100}, {"time": 161040, "pitch": 57, "duration": 160, "velocity": 110}, {"time": 161040, "pitch": 61, "duration": 160, "velocity": 100}, {"time": 161040, "pitch": 64, "duration": 160, "velocity": 100}, {"time": 161040, "pitch": 69, "duration": 160, "velocity": 110}, {"time": 161200, "pitch": 57, "duration": 80, "velocity": 80}, {"time": 161200, "pitch": 61, "duration": 80, "velocity": 70}, {"time": 161200, "pitch": 64, "duration": 80, "velocity": 70}, {"time": 161200, "pitch": 69, "duration": 80, "velocity": 80}, {"time": 161280, "pitch": 57, "duration": 220, "velocity": 100}, {"time": 161280, "pitch": 61, "duration": 220, "velocity": 90}, {"time": 161290, "pitch": 64, "duration": 220, "velocity": 90}, {"time": 161290, "pitch": 69, "duration": 220, "velocity": 100}, {"time": 161520, "pitch": 57, "duration": 160, "velocity": 110}, {"time": 161520, "pitch": 61, "duration": 160, "velocity": 100}, {"time": 161520, "pitch": 64, "duration": 160, "velocity": 100}, {"time": 161520, "pitch": 69, "duration": 160, "velocity": 110}, {"time": 161680, "pitch": 57, "duration": 80, "velocity": 80}, {"time": 161680, "pitch": 61, "duration": 80, "velocity": 70}, {"time": 161680, "pitch": 64, "duration": 80, "velocity": 70}, {"time": 161680, "pitch": 69, "duration": 80, "velocity": 80}, {"time": 161760, "pitch": 56, "duration": 220, "velocity": 100}, {"time": 161760, "pitch": 59, "duration": 220, "velocity": 90}, {"time": 161770, "pitch": 64, "duration": 220, "velocity": 90}, {"time": 161770, "pitch": 68, "duration": 220, "velocity": 100}, {"time": 162000, "pitch": 56, "duration": 160, "velocity": 110}, {"time": 162000, "pitch": 59, "duration": 160, "velocity": 100}, {"time": 162000, "pitch": 64, "duration": 160, "velocity": 100}, {"time": 162000, "pitch": 68, "duration": 160, "velocity": 110}, {"time": 162160, "pitch": 56, "duration": 80, "velocity": 80}, {"time": 162160, "pitch": 59, "duration": 80, "velocity": 70}, {"time": 162160, "pitch": 64, "duration": 80, "velocity": 70}, {"time": 162160, "pitch": 68, "duration": 80, "velocity": 80}, {"time": 162240, "pitch": 56, "duration": 220, "velocity": 100}, {"time": 162240, "pitch": 59, "duration": 220, "velocity": 90}, {"time": 162250, "pitch": 64, "duration": 220, "velocity": 90}, {"time": 162250, "pitch": 68, "duration": 220, "velocity": 100}, {"time": 162480, "pitch": 56, "duration": 160, "velocity": 110}, {"time": 162480, "pitch": 59, "duration": 160, "velocity": 100}, {"time": 162480, "pitch": 64, "duration": 160, "velocity": 100}, {"time": 162480, "pitch": 68, "duration": 160, "velocity": 110}, {"time": 162640, "pitch": 56, "duration": 80, "velocity": 80}, {"time": 162640, "pitch": 59, "duration": 80, "velocity": 70}, {"time": 162640, "pitch": 64, "duration": 80, "velocity": 70}, {"time": 162640, "pitch": 68, "duration": 80, "velocity": 80}, {"time": 162720, "pitch": 57, "duration": 220, "velocity": 100}, {"time": 162720, "pitch": 61, "duration": 220, "velocity": 90}, {"time": 162730, "pitch": 64, "duration": 220, "velocity": 90}, {"time": 162730, "pitch": 69, "duration": 220, "velocity": 100}, {"time": 162960, "pitch": 57, "duration": 160, "velocity": 110}, {"time": 162960, "pitch": 61, "duration": 160, "velocity": 100}, {"time": 162960, "pitch": 64, "duration": 160, "velocity": 100}, {"time": 162960, "pitch": 69, "duration": 160, "velocity": 110}, {"time": 163120, "pitch": 57, "duration": 80, "velocity": 80}, {"time": 163120, "pitch": 61, "duration": 80, "velocity": 70}, {"time": 163120, "pitch": 64, "duration": 80, "velocity": 70}, {"time": 163120, "pitch": 69, "duration": 80, "velocity": 80}, {"time": 163200, "pitch": 57, "duration": 220, "velocity": 100}, {"time": 163200, "pitch": 61, "duration": 220, "velocity": 90}, {"time": 163210, "pitch": 64, "duration": 220, "velocity": 90}, {"time": 163210, "pitch": 69, "duration": 220, "velocity": 100}, {"time": 163440, "pitch": 57, "duration": 160, "velocity": 110}, {"time": 163440, "pitch": 61, "duration": 160, "velocity": 100}, {"time": 163440, "pitch": 64, "duration": 160, "velocity": 100}, {"time": 163440, "pitch": 69, "duration": 160, "velocity": 110}, {"time": 163600, "pitch": 57, "duration": 80, "velocity": 80}, {"time": 163600, "pitch": 61, "duration": 80, "velocity": 70}, {"time": 163600, "pitch": 64, "duration": 80, "velocity": 70}, {"time": 163600, "pitch": 69, "duration": 80, "velocity": 80}, {"time": 163680, "pitch": 55, "duration": 10, "velocity": 80}, {"time": 163680, "pitch": 60, "duration": 10, "velocity": 70}, {"time": 163680, "pitch": 64, "duration": 10, "velocity": 70}, {"time": 163680, "pitch": 67, "duration": 10, "velocity": 80}, {"time": 163760, "pitch": 55, "duration": 80, "velocity": 110}, {"time": 163760, "pitch": 60, "duration": 80, "velocity": 100}, {"time": 163760, "pitch": 64, "duration": 80, "velocity": 100}, {"time": 163760, "pitch": 67, "duration": 80, "velocity": 110}, {"time": 163920, "pitch": 55, "duration": 220, "velocity": 100}, {"time": 163920, "pitch": 60, "duration": 220, "velocity": 90}, {"time": 163930, "pitch": 64, "duration": 220, "velocity": 90}, {"time": 163930, "pitch": 67, "duration": 220, "velocity": 100}, {"time": 164160, "pitch": 54, "duration": 10, "velocity": 80}, {"time": 164160, "pitch": 57, "duration": 10, "velocity": 70}, {"time": 164160, "pitch": 62, "duration": 10, "velocity": 70}, {"time": 164160, "pitch": 66, "duration": 10, "velocity": 80}, {"time": 164240, "pitch": 54, "duration": 80, "velocity": 110}, {"time": 164240, "pitch": 57, "duration": 80, "velocity": 100}, {"time": 164240, "pitch": 62, "duration": 80, "velocity": 100}, {"time": 164240, "pitch": 66, "duration": 80, "velocity": 110}, {"time": 164400, "pitch": 54, "duration": 220, "velocity": 100}, {"time": 164400, "pitch": 57, "duration": 220, "velocity": 90}, {"time": 164410, "pitch": 62, "duration": 220, "velocity": 90}, {"time": 164410, "pitch": 66, "duration": 220, "velocity": 100}, {"time": 164640, "pitch": 56, "duration": 220, "velocity": 100}, {"time": 164640, "pitch": 59, "duration": 220, "velocity": 90}, {"time": 164650, "pitch": 64, "duration": 220, "velocity": 90}, {"time": 164650, "pitch": 68, "duration": 220, "velocity": 100}, {"time": 164880, "pitch": 56, "duration": 160, "velocity": 110}, {"time": 164880, "pitch": 59, "duration": 160, "velocity": 100}, {"time": 164880, "pitch": 64, "duration": 160, "velocity": 100}, {"time": 164880, "pitch": 68, "duration": 160, "velocity": 110}, {"time": 165040, "pitch": 56, "duration": 80, "velocity": 80}, {"time": 165040, "pitch": 59, "duration": 80, "velocity": 70}, {"time": 165040, "pitch": 64, "duration": 80, "velocity": 70}, {"time": 165040, "pitch": 68, "duration": 80, "velocity": 80}, {"time": 165120, "pitch": 56, "duration": 220, "velocity": 100}, {"time": 165120, "pitch": 59, "duration": 220, "velocity": 90}, {"time": 165130, "pitch": 64, "duration": 220, "velocity": 90}, {"time": 165130, "pitch": 68, "duration": 220, "velocity": 100}, {"time": 165360, "pitch": 56, "duration": 160, "velocity": 110}, {"time": 165360, "pitch": 59, "duration": 160, "velocity": 100}, {"time": 165360, "pitch": 64, "duration": 160, "velocity": 100}, {"time": 165360, "pitch": 68, "duration": 160, "velocity": 110}, {"time": 165520, "pitch": 56, "duration": 80, "velocity": 80}, {"time": 165520, "pitch": 59, "duration": 80, "velocity": 70}, {"time": 165520, "pitch": 64, "duration": 80, "velocity": 70}, {"time": 165520, "pitch": 68, "duration": 80, "velocity": 80}, {"time": 165600, "pitch": 54, "duration": 220, "velocity": 100}, {"time": 165600, "pitch": 59, "duration": 220, "velocity": 90}, {"time": 165610, "pitch": 63, "duration": 220, "velocity": 90}, {"time": 165610, "pitch": 66, "duration": 220, "velocity": 100}, {"time": 165840, "pitch": 54, "duration": 160, "velocity": 110}, {"time": 165840, "pitch": 59, "duration": 160, "velocity": 100}, {"time": 165840, "pitch": 63, "duration": 160, "velocity": 100}, {"time": 165840, "pitch": 66, "duration": 160, "velocity": 110}, {"time": 166000, "pitch": 54, "duration": 80, "velocity": 80}, {"time": 166000, "pitch": 59, "duration": 80, "velocity": 70}, {"time": 166000, "pitch": 63, "duration": 80, "velocity": 70}, {"time": 166000, "pitch": 66, "duration": 80, "velocity": 80}, {"time": 166080, "pitch": 54, "duration": 220, "velocity": 100}, {"time": 166080, "pitch": 59, "duration": 220, "velocity": 90}, {"time": 166090, "pitch": 63, "duration": 220, "velocity": 90}, {"time": 166090, "pitch": 66, "duration": 220, "velocity": 100}, {"time": 166320, "pitch": 54, "duration": 160, "velocity": 110}, {"time": 166320, "pitch": 59, "duration": 160, "velocity": 100}, {"time": 166320, "pitch": 63, "duration": 160, "velocity": 100}, {"time": 166320, "pitch": 66, "duration": 160, "velocity": 110}, {"time": 166480, "pitch": 54, "duration": 80, "velocity": 80}, {"time": 166480, "pitch": 59, "duration": 80, "velocity": 70}, {"time": 166480, "pitch": 63, "duration": 80, "velocity": 70}, {"time": 166480, "pitch": 66, "duration": 80, "velocity": 80}, {"time": 166560, "pitch": 56, "duration": 220, "velocity": 100}, {"time": 166560, "pitch": 61, "duration": 220, "velocity": 90}, {"time": 166570, "pitch": 64, "duration": 220, "velocity": 90}, {"time": 166570, "pitch": 68, "duration": 220, "velocity": 100}, {"time": 166800, "pitch": 56, "duration": 160, "velocity": 110}, {"time": 166800, "pitch": 61, "duration": 160, "velocity": 100}, {"time": 166800, "pitch": 64, "duration": 160, "velocity": 100}, {"time": 166800, "pitch": 68, "duration": 160, "velocity": 110}, {"time": 166960, "pitch": 56, "duration": 80, "velocity": 80}, {"time": 166960, "pitch": 61, "duration": 80, "velocity": 70}, {"time": 166960, "pitch": 64, "duration": 80, "velocity": 70}, {"time": 166960, "pitch": 68, "duration": 80, "velocity": 80}, {"time": 167040, "pitch": 56, "duration": 220, "velocity": 100}, {"time": 167040, "pitch": 61, "duration": 220, "velocity": 90}, {"time": 167050, "pitch": 64, "duration": 220, "velocity": 90}, {"time": 167050, "pitch": 68, "duration": 220, "velocity": 100}, {"time": 167280, "pitch": 56, "duration": 160, "velocity": 110}, {"time": 167280, "pitch": 61, "duration": 160, "velocity": 100}, {"time": 167280, "pitch": 64, "duration": 160, "velocity": 100}, {"time": 167280, "pitch": 68, "duration": 160, "velocity": 110}, {"time": 167440, "pitch": 56, "duration": 80, "velocity": 80}, {"time": 167440, "pitch": 61, "duration": 80, "velocity": 70}, {"time": 167440, "pitch": 64, "duration": 80, "velocity": 70}, {"time": 167440, "pitch": 68, "duration": 80, "velocity": 80}, {"time": 167520, "pitch": 54, "duration": 220, "velocity": 100}, {"time": 167520, "pitch": 59, "duration": 220, "velocity": 90}, {"time": 167530, "pitch": 63, "duration": 220, "velocity": 90}, {"time": 167530, "pitch": 68, "duration": 220, "velocity": 100}, {"time": 167760, "pitch": 54, "duration": 160, "velocity": 110}, {"time": 167760, "pitch": 59, "duration": 160, "velocity": 100}, {"time": 167760, "pitch": 63, "duration": 160, "velocity": 100}, {"time": 167760, "pitch": 68, "duration": 160, "velocity": 110}, {"time": 167920, "pitch": 54, "duration": 80, "velocity": 80}, {"time": 167920, "pitch": 59, "duration": 80, "velocity": 70}, {"time": 167920, "pitch": 63, "duration": 80, "velocity": 70}, {"time": 167920, "pitch": 68, "duration": 80, "velocity": 80}, {"time": 168000, "pitch": 54, "duration": 220, "velocity": 100}, {"time": 168000, "pitch": 59, "duration": 220, "velocity": 90}, {"time": 168010, "pitch": 63, "duration": 220, "velocity": 90}, {"time": 168010, "pitch": 68, "duration": 220, "velocity": 100}, {"time": 168240, "pitch": 54, "duration": 160, "velocity": 110}, {"time": 168240, "pitch": 59, "duration": 160, "velocity": 100}, {"time": 168240, "pitch": 63, "duration": 160, "velocity": 100}, {"time": 168240, "pitch": 68, "duration": 160, "velocity": 110}, {"time": 168400, "pitch": 54, "duration": 80, "velocity": 80}, {"time": 168400, "pitch": 59, "duration": 80, "velocity": 70}, {"time": 168400, "pitch": 63, "duration": 80, "velocity": 70}, {"time": 168400, "pitch": 68, "duration": 80, "velocity": 80}, {"time": 168480, "pitch": 57, "duration": 220, "velocity": 100}, {"time": 168480, "pitch": 61, "duration": 220, "velocity": 90}, {"time": 168490, "pitch": 64, "duration": 220, "velocity": 90}, {"time": 168490, "pitch": 69, "duration": 220, "velocity": 100}, {"time": 168720, "pitch": 57, "duration": 160, "velocity": 110}, {"time": 168720, "pitch": 61, "duration": 160, "velocity": 100}, {"time": 168720, "pitch": 64, "duration": 160, "velocity": 100}, {"time": 168720, "pitch": 69, "duration": 160, "velocity": 110}, {"time": 168880, "pitch": 57, "duration": 80, "velocity": 80}, {"time": 168880, "pitch": 61, "duration": 80, "velocity": 70}, {"time": 168880, "pitch": 64, "duration": 80, "velocity": 70}, {"time": 168880, "pitch": 69, "duration": 80, "velocity": 80}, {"time": 168960, "pitch": 57, "duration": 220, "velocity": 100}, {"time": 168960, "pitch": 61, "duration": 220, "velocity": 90}, {"time": 168970, "pitch": 64, "duration": 220, "velocity": 90}, {"time": 168970, "pitch": 69, "duration": 220, "velocity": 100}, {"time": 169200, "pitch": 57, "duration": 160, "velocity": 110}, {"time": 169200, "pitch": 61, "duration": 160, "velocity": 100}, {"time": 169200, "pitch": 64, "duration": 160, "velocity": 100}, {"time": 169200, "pitch": 69, "duration": 160, "velocity": 110}, {"time": 169360, "pitch": 57, "duration": 80, "velocity": 80}, {"time": 169360, "pitch": 61, "duration": 80, "velocity": 70}, {"time": 169360, "pitch": 64, "duration": 80, "velocity": 70}, {"time": 169360, "pitch": 69, "duration": 80, "velocity": 80}, {"time": 169440, "pitch": 56, "duration": 220, "velocity": 100}, {"time": 169440, "pitch": 59, "duration": 220, "velocity": 90}, {"time": 169450, "pitch": 64, "duration": 220, "velocity": 90}, {"time": 169450, "pitch": 68, "duration": 220, "velocity": 100}, {"time": 169680, "pitch": 56, "duration": 160, "velocity": 110}, {"time": 169680, "pitch": 59, "duration": 160, "velocity": 100}, {"time": 169680, "pitch": 64, "duration": 160, "velocity": 100}, {"time": 169680, "pitch": 68, "duration": 160, "velocity": 110}, {"time": 169840, "pitch": 56, "duration": 80, "velocity": 80}, {"time": 169840, "pitch": 59, "duration": 80, "velocity": 70}, {"time": 169840, "pitch": 64, "duration": 80, "velocity": 70}, {"time": 169840, "pitch": 68, "duration": 80, "velocity": 80}, {"time": 169920, "pitch": 56, "duration": 220, "velocity": 100}, {"time": 169920, "pitch": 59, "duration": 220, "velocity": 90}, {"time": 169930, "pitch": 64, "duration": 220, "velocity": 90}, {"time": 169930, "pitch": 68, "duration": 220, "velocity": 100}, {"time": 170160, "pitch": 56, "duration": 160, "velocity": 110}, {"time": 170160, "pitch": 59, "duration": 160, "velocity": 100}, {"time": 170160, "pitch": 64, "duration": 160, "velocity": 100}, {"time": 170160, "pitch": 68, "duration": 160, "velocity": 110}, {"time": 170320, "pitch": 56, "duration": 80, "velocity": 80}, {"time": 170320, "pitch": 59, "duration": 80, "velocity": 70}, {"time": 170320, "pitch": 64, "duration": 80, "velocity": 70}, {"time": 170320, "pitch": 68, "duration": 80, "velocity": 80}, {"time": 170400, "pitch": 57, "duration": 220, "velocity": 100}, {"time": 170400, "pitch": 61, "duration": 220, "velocity": 90}, {"time": 170410, "pitch": 64, "duration": 220, "velocity": 90}, {"time": 170410, "pitch": 69, "duration": 220, "velocity": 100}, {"time": 170640, "pitch": 57, "duration": 160, "velocity": 110}, {"time": 170640, "pitch": 61, "duration": 160, "velocity": 100}, {"time": 170640, "pitch": 64, "duration": 160, "velocity": 100}, {"time": 170640, "pitch": 69, "duration": 160, "velocity": 110}, {"time": 170800, "pitch": 57, "duration": 80, "velocity": 80}, {"time": 170800, "pitch": 61, "duration": 80, "velocity": 70}, {"time": 170800, "pitch": 64, "duration": 80, "velocity": 70}, {"time": 170800, "pitch": 69, "duration": 80, "velocity": 80}, {"time": 170880, "pitch": 57, "duration": 220, "velocity": 100}, {"time": 170880, "pitch": 61, "duration": 220, "velocity": 90}, {"time": 170890, "pitch": 64, "duration": 220, "velocity": 90}, {"time": 170890, "pitch": 69, "duration": 220, "velocity": 100}, {"time": 171120, "pitch": 57, "duration": 160, "velocity": 110}, {"time": 171120, "pitch": 61, "duration": 160, "velocity": 100}, {"time": 171120, "pitch": 64, "duration": 160, "velocity": 100}, {"time": 171120, "pitch": 69, "duration": 160, "velocity": 110}, {"time": 171280, "pitch": 57, "duration": 80, "velocity": 80}, {"time": 171280, "pitch": 61, "duration": 80, "velocity": 70}, {"time": 171280, "pitch": 64, "duration": 80, "velocity": 70}, {"time": 171280, "pitch": 69, "duration": 80, "velocity": 80}, {"time": 171360, "pitch": 54, "duration": 220, "velocity": 110}, {"time": 171360, "pitch": 59, "duration": 220, "velocity": 100}, {"time": 171370, "pitch": 64, "duration": 220, "velocity": 100}, {"time": 171370, "pitch": 69, "duration": 220, "velocity": 110}, {"time": 171600, "pitch": 54, "duration": 80, "velocity": 110}, {"time": 171600, "pitch": 59, "duration": 80, "velocity": 100}, {"time": 171610, "pitch": 64, "duration": 80, "velocity": 100}, {"time": 171610, "pitch": 69, "duration": 80, "velocity": 110}, {"time": 172320, "pitch": 46, "duration": 220, "velocity": 100}, {"time": 172320, "pitch": 56, "duration": 220, "velocity": 90}, {"time": 172330, "pitch": 61, "duration": 220, "velocity": 90}, {"time": 172330, "pitch": 64, "duration": 220, "velocity": 100}, {"time": 172560, "pitch": 46, "duration": 160, "velocity": 110}, {"time": 172560, "pitch": 56, "duration": 160, "velocity": 100}, {"time": 172560, "pitch": 61, "duration": 160, "velocity": 100}, {"time": 172560, "pitch": 64, "duration": 160, "velocity": 110}, {"time": 172720, "pitch": 46, "duration": 80, "velocity": 80}, {"time": 172720, "pitch": 56, "duration": 80, "velocity": 70}, {"time": 172720, "pitch": 61, "duration": 80, "velocity": 70}, {"time": 172720, "pitch": 64, "duration": 80, "velocity": 80}, {"time": 172800, "pitch": 46, "duration": 220, "velocity": 100}, {"time": 172800, "pitch": 56, "duration": 220, "velocity": 90}, {"time": 172810, "pitch": 61, "duration": 220, "velocity": 90}, {"time": 172810, "pitch": 64, "duration": 220, "velocity": 100}, {"time": 173040, "pitch": 46, "duration": 160, "velocity": 110}, {"time": 173040, "pitch": 56, "duration": 160, "velocity": 100}, {"time": 173040, "pitch": 61, "duration": 160, "velocity": 100}, {"time": 173040, "pitch": 64, "duration": 160, "velocity": 110}, {"time": 173200, "pitch": 46, "duration": 80, "velocity": 80}, {"time": 173200, "pitch": 56, "duration": 80, "velocity": 70}, {"time": 173200, "pitch": 61, "duration": 80, "velocity": 70}, {"time": 173200, "pitch": 64, "duration": 80, "velocity": 80}, {"time": 173280, "pitch": 45, "duration": 220, "velocity": 100}, {"time": 173280, "pitch": 54, "duration": 220, "velocity": 90}, {"time": 173290, "pitch": 60, "duration": 220, "velocity": 90}, {"time": 173290, "pitch": 64, "duration": 220, "velocity": 100}, {"time": 173520, "pitch": 45, "duration": 160, "velocity": 110}, {"time": 173520, "pitch": 54, "duration": 160, "velocity": 100}, {"time": 173520, "pitch": 60, "duration": 160, "velocity": 100}, {"time": 173520, "pitch": 64, "duration": 160, "velocity": 110}, {"time": 173680, "pitch": 45, "duration": 80, "velocity": 80}, {"time": 173680, "pitch": 54, "duration": 80, "velocity": 70}, {"time": 173680, "pitch": 60, "duration": 80, "velocity": 70}, {"time": 173680, "pitch": 64, "duration": 80, "velocity": 80}, {"time": 173760, "pitch": 45, "duration": 220, "velocity": 100}, {"time": 173760, "pitch": 54, "duration": 220, "velocity": 90}, {"time": 173770, "pitch": 60, "duration": 220, "velocity": 90}, {"time": 173770, "pitch": 64, "duration": 220, "velocity": 100}, {"time": 174000, "pitch": 45, "duration": 160, "velocity": 110}, {"time": 174000, "pitch": 54, "duration": 160, "velocity": 100}, {"time": 174000, "pitch": 60, "duration": 160, "velocity": 100}, {"time": 174000, "pitch": 64, "duration": 160, "velocity": 110}, {"time": 174160, "pitch": 45, "duration": 80, "velocity": 80}, {"time": 174160, "pitch": 54, "duration": 80, "velocity": 70}, {"time": 174160, "pitch": 60, "duration": 80, "velocity": 70}, {"time": 174160, "pitch": 64, "duration": 80, "velocity": 80}, {"time": 174240, "pitch": 56, "duration": 220, "velocity": 100}, {"time": 174240, "pitch": 59, "duration": 220, "velocity": 90}, {"time": 174250, "pitch": 64, "duration": 220, "velocity": 90}, {"time": 174250, "pitch": 68, "duration": 220, "velocity": 100}, {"time": 174480, "pitch": 56, "duration": 160, "velocity": 110}, {"time": 174480, "pitch": 59, "duration": 160, "velocity": 100}, {"time": 174480, "pitch": 64, "duration": 160, "velocity": 100}, {"time": 174480, "pitch": 68, "duration": 160, "velocity": 110}, {"time": 174640, "pitch": 56, "duration": 80, "velocity": 80}, {"time": 174640, "pitch": 59, "duration": 80, "velocity": 70}, {"time": 174640, "pitch": 64, "duration": 80, "velocity": 70}, {"time": 174640, "pitch": 68, "duration": 80, "velocity": 80}, {"time": 174720, "pitch": 56, "duration": 220, "velocity": 100}, {"time": 174720, "pitch": 59, "duration": 220, "velocity": 90}, {"time": 174730, "pitch": 64, "duration": 220, "velocity": 90}, {"time": 174730, "pitch": 68, "duration": 220, "velocity": 100}, {"time": 174960, "pitch": 56, "duration": 160, "velocity": 110}, {"time": 174960, "pitch": 59, "duration": 160, "velocity": 100}, {"time": 174960, "pitch": 64, "duration": 160, "velocity": 100}, {"time": 174960, "pitch": 68, "duration": 160, "velocity": 110}, {"time": 175120, "pitch": 56, "duration": 80, "velocity": 80}, {"time": 175120, "pitch": 59, "duration": 80, "velocity": 70}, {"time": 175120, "pitch": 64, "duration": 80, "velocity": 70}, {"time": 175120, "pitch": 68, "duration": 80, "velocity": 80}, {"time": 175200, "pitch": 55, "duration": 220, "velocity": 100}, {"time": 175200, "pitch": 61, "duration": 220, "velocity": 90}, {"time": 175210, "pitch": 64, "duration": 220, "velocity": 90}, {"time": 175210, "pitch": 70, "duration": 220, "velocity": 100}, {"time": 175440, "pitch": 55, "duration": 160, "velocity": 110}, {"time": 175440, "pitch": 61, "duration": 160, "velocity": 100}, {"time": 175440, "pitch": 64, "duration": 160, "velocity": 100}, {"time": 175440, "pitch": 70, "duration": 160, "velocity": 110}, {"time": 175600, "pitch": 55, "duration": 80, "velocity": 80}, {"time": 175600, "pitch": 61, "duration": 80, "velocity": 70}, {"time": 175600, "pitch": 64, "duration": 80, "velocity": 70}, {"time": 175600, "pitch": 70, "duration": 80, "velocity": 80}, {"time": 175680, "pitch": 52, "duration": 220, "velocity": 100}, {"time": 175680, "pitch": 58, "duration": 220, "velocity": 90}, {"time": 175690, "pitch": 61, "duration": 220, "velocity": 90}, {"time": 175690, "pitch": 67, "duration": 220, "velocity": 100}, {"time": 175920, "pitch": 52, "duration": 160, "velocity": 110}, {"time": 175920, "pitch": 58, "duration": 160, "velocity": 100}, {"time": 175920, "pitch": 61, "duration": 160, "velocity": 100}, {"time": 175920, "pitch": 67, "duration": 160, "velocity": 110}, {"time": 176080, "pitch": 52, "duration": 80, "velocity": 80}, {"time": 176080, "pitch": 58, "duration": 80, "velocity": 70}, {"time": 176080, "pitch": 61, "duration": 80, "velocity": 70}, {"time": 176080, "pitch": 67, "duration": 80, "velocity": 80}, {"time": 176160, "pitch": 47, "duration": 150, "velocity": 100}, {"time": 176160, "pitch": 52, "duration": 150, "velocity": 100}, {"time": 176160, "pitch": 57, "duration": 150, "velocity": 90}, {"time": 176170, "pitch": 61, "duration": 150, "velocity": 90}, {"time": 176170, "pitch": 66, "duration": 150, "velocity": 100}, {"time": 176640, "pitch": 47, "duration": 10, "velocity": 80}, {"time": 176640, "pitch": 52, "duration": 10, "velocity": 80}, {"time": 176640, "pitch": 57, "duration": 10, "velocity": 70}, {"time": 176640, "pitch": 61, "duration": 10, "velocity": 70}, {"time": 176640, "pitch": 66, "duration": 10, "velocity": 80}, {"time": 176800, "pitch": 47, "duration": 3180, "velocity": 100}, {"time": 176800, "pitch": 52, "duration": 3180, "velocity": 100}, {"time": 176800, "pitch": 57, "duration": 3180, "velocity": 90}, {"time": 176800, "pitch": 61, "duration": 3180, "velocity": 90}, {"time": 176800, "pitch": 66, "duration": 3180, "velocity": 100}], "annotations": [{"time": 990, "annotation": {"number": 7, "value": 80}, "group": "control_change"}, {"time": 1000, "annotation": {"number": 11, "value": 100}, "group": "control_change"}, {"time": 1010, "annotation": {"number": 10, "value": 20}, "group": "control_change"}, {"time": 1020, "annotation": {"number": 91, "value": 40}, "group": "control_change"}, {"time": 1030, "annotation": {"number": 93, "value": 0}, "group": "control_change"}, {"time": 1040, "annotation": {"number": 101, "value": 0}, "group": "control_change"}, {"time": 1050, "annotation": {"number": 100, "value": 0}, "group": "control_change"}, {"time": 1060, "annotation": {"number": 6, "value": 12}, "group": "control_change"}, {"time": 1070, "annotation": {"number": 101, "value": 127}, "group": "control_change"}, {"time": 1080, "annotation": {"number": 100, "value": 127}, "group": "control_change"}]}, {"program": 0, "is_drum": false, "name": "GUITAR2", "annotations": [{"time": 960, "annotation": {"number": 0, "value": 32}, "group": "control_change"}, {"time": 970, "annotation": {"number": 32, "value": 0}, "group": "control_change"}]}, {"program": 25, "is_drum": false, "name": "GUITAR2", "notes": [{"time": 6240, "pitch": 55, "duration": 220, "velocity": 100}, {"time": 6240, "pitch": 58, "duration": 220, "velocity": 90}, {"time": 6250, "pitch": 63, "duration": 220, "velocity": 90}, {"time": 6250, "pitch": 67, "duration": 220, "velocity": 100}, {"time": 6480, "pitch": 55, "duration": 80, "velocity": 110}, {"time": 6480, "pitch": 58, "duration": 80, "velocity": 100}, {"time": 6480, "pitch": 63, "duration": 80, "velocity": 100}, {"time": 6480, "pitch": 67, "duration": 80, "velocity": 110}, {"time": 6640, "pitch": 55, "duration": 10, "velocity": 80}, {"time": 6640, "pitch": 58, "duration": 10, "velocity": 70}, {"time": 6640, "pitch": 63, "duration": 10, "velocity": 70}, {"time": 6640, "pitch": 67, "duration": 10, "velocity": 80}, {"time": 6720, "pitch": 55, "duration": 220, "velocity": 100}, {"time": 6720, "pitch": 58, "duration": 220, "velocity": 90}, {"time": 6730, "pitch": 63, "duration": 220, "velocity": 90}, {"time": 6730, "pitch": 67, "duration": 220, "velocity": 100}, {"time": 6960, "pitch": 55, "duration": 80, "velocity": 110}, {"time": 6960, "pitch": 58, "duration": 80, "velocity": 100}, {"time": 6960, "pitch": 63, "duration": 80, "velocity": 100}, {"time": 6960, "pitch": 67, "duration": 80, "velocity": 110}, {"time": 7120, "pitch": 55, "duration": 10, "velocity": 80}, {"time": 7120, "pitch": 58, "duration": 10, "velocity": 70}, {"time": 7120, "pitch": 63, "duration": 10, "velocity": 70}, {"time": 7120, "pitch": 67, "duration": 10, "velocity": 80}, {"time": 7200, "pitch": 56, "duration": 220, "velocity": 100}, {"time": 7200, "pitch": 60, "duration": 220, "velocity": 90}, {"time": 7210, "pitch": 63, "duration": 220, "velocity": 90}, {"time": 7210, "pitch": 68, "duration": 220, "velocity": 100}, {"time": 7440, "pitch": 56, "duration": 80, "velocity": 110}, {"time": 7440, "pitch": 60, "duration": 80, "velocity": 100}, {"time": 7440, "pitch": 63, "duration": 80, "velocity": 100}, {"time": 7440, "pitch": 68, "duration": 80, "velocity": 110}, {"time": 7600, "pitch": 56, "duration": 10, "velocity": 80}, {"time": 7600, "pitch": 60, "duration": 10, "velocity": 70}, {"time": 7600, "pitch": 63, "duration": 10, "velocity": 70}, {"time": 7600, "pitch": 68, "duration": 10, "velocity": 80}, {"time": 7680, "pitch": 56, "duration": 220, "velocity": 100}, {"time": 7680, "pitch": 60, "duration": 220, "velocity": 90}, {"time": 7690, "pitch": 63, "duration": 220, "velocity": 90}, {"time": 7690, "pitch": 68, "duration": 220, "velocity": 100}, {"time": 7920, "pitch": 56, "duration": 80, "velocity": 110}, {"time": 7920, "pitch": 60, "duration": 80, "velocity": 100}, {"time": 7920, "pitch": 63, "duration": 80, "velocity": 100}, {"time": 7920, "pitch": 68, "duration": 80, "velocity": 110}, {"time": 8080, "pitch": 56, "duration": 10, "velocity": 80}, {"time": 8080, "pitch": 60, "duration": 10, "velocity": 70}, {"time": 8080, "pitch": 63, "duration": 10, "velocity": 70}, {"time": 8080, "pitch": 68, "duration": 10, "velocity": 80}, {"time": 8160, "pitch": 54, "duration": 220, "velocity": 100}, {"time": 8160, "pitch": 59, "duration": 220, "velocity": 90}, {"time": 8170, "pitch": 63, "duration": 220, "velocity": 90}, {"time": 8170, "pitch": 70, "duration": 220, "velocity": 100}, {"time": 8400, "pitch": 54, "duration": 80, "velocity": 110}, {"time": 8400, "pitch": 59, "duration": 80, "velocity": 100}, {"time": 8400, "pitch": 63, "duration": 80, "velocity": 100}, {"time": 8400, "pitch": 70, "duration": 80, "velocity": 110}, {"time": 8560, "pitch": 54, "duration": 10, "velocity": 80}, {"time": 8560, "pitch": 59, "duration": 10, "velocity": 70}, {"time": 8560, "pitch": 63, "duration": 10, "velocity": 70}, {"time": 8560, "pitch": 70, "duration": 10, "velocity": 80}, {"time": 8640, "pitch": 54, "duration": 220, "velocity": 100}, {"time": 8640, "pitch": 59, "duration": 220, "velocity": 90}, {"time": 8650, "pitch": 63, "duration": 220, "velocity": 90}, {"time": 8650, "pitch": 70, "duration": 220, "velocity": 100}, {"time": 8880, "pitch": 54, "duration": 80, "velocity": 110}, {"time": 8880, "pitch": 59, "duration": 80, "velocity": 100}, {"time": 8880, "pitch": 63, "duration": 80, "velocity": 100}, {"time": 8880, "pitch": 70, "duration": 80, "velocity": 110}, {"time": 9040, "pitch": 54, "duration": 10, "velocity": 80}, {"time": 9040, "pitch": 59, "duration": 10, "velocity": 70}, {"time": 9040, "pitch": 63, "duration": 10, "velocity": 70}, {"time": 9040, "pitch": 70, "duration": 10, "velocity": 80}, {"time": 9120, "pitch": 56, "duration": 220, "velocity": 100}, {"time": 9120, "pitch": 61, "duration": 220, "velocity": 90}, {"time": 9130, "pitch": 65, "duration": 220, "velocity": 90}, {"time": 9130, "pitch": 70, "duration": 220, "velocity": 100}, {"time": 9360, "pitch": 56, "duration": 80, "velocity": 110}, {"time": 9360, "pitch": 61, "duration": 80, "velocity": 100}, {"time": 9360, "pitch": 65, "duration": 80, "velocity": 100}, {"time": 9360, "pitch": 70, "duration": 80, "velocity": 110}, {"time": 9520, "pitch": 56, "duration": 10, "velocity": 80}, {"time": 9520, "pitch": 61, "duration": 10, "velocity": 70}, {"time": 9520, "pitch": 65, "duration": 10, "velocity": 70}, {"time": 9520, "pitch": 70, "duration": 10, "velocity": 80}, {"time": 9600, "pitch": 56, "duration": 220, "velocity": 100}, {"time": 9600, "pitch": 61, "duration": 220, "velocity": 90}, {"time": 9610, "pitch": 65, "duration": 220, "velocity": 90}, {"time": 9610, "pitch": 70, "duration": 220, "velocity": 100}, {"time": 9840, "pitch": 56, "duration": 80, "velocity": 110}, {"time": 9840, "pitch": 61, "duration": 80, "velocity": 100}, {"time": 9840, "pitch": 65, "duration": 80, "velocity": 100}, {"time": 9840, "pitch": 70, "duration": 80, "velocity": 110}, {"time": 10000, "pitch": 56, "duration": 10, "velocity": 80}, {"time": 10000, "pitch": 61, "duration": 10, "velocity": 70}, {"time": 10000, "pitch": 65, "duration": 10, "velocity": 70}, {"time": 10000, "pitch": 70, "duration": 10, "velocity": 80}, {"time": 10080, "pitch": 55, "duration": 220, "velocity": 100}, {"time": 10080, "pitch": 58, "duration": 220, "velocity": 90}, {"time": 10090, "pitch": 63, "duration": 220, "velocity": 90}, {"time": 10090, "pitch": 67, "duration": 220, "velocity": 100}, {"time": 10320, "pitch": 55, "duration": 80, "velocity": 110}, {"time": 10320, "pitch": 58, "duration": 80, "velocity": 100}, {"time": 10320, "pitch": 63, "duration": 80, "velocity": 100}, {"time": 10320, "pitch": 67, "duration": 80, "velocity": 110}, {"time": 10480, "pitch": 55, "duration": 10, "velocity": 80}, {"time": 10480, "pitch": 58, "duration": 10, "velocity": 70}, {"time": 10480, "pitch": 63, "duration": 10, "velocity": 70}, {"time": 10480, "pitch": 67, "duration": 10, "velocity": 80}, {"time": 10560, "pitch": 55, "duration": 220, "velocity": 100}, {"time": 10560, "pitch": 58, "duration": 220, "velocity": 90}, {"time": 10570, "pitch": 63, "duration": 220, "velocity": 90}, {"time": 10570, "pitch": 67, "duration": 220, "velocity": 100}, {"time": 10800, "pitch": 55, "duration": 80, "velocity": 110}, {"time": 10800, "pitch": 58, "duration": 80, "velocity": 100}, {"time": 10800, "pitch": 63, "duration": 80, "velocity": 100}, {"time": 10800, "pitch": 67, "duration": 80, "velocity": 110}, {"time": 10960, "pitch": 55, "duration": 10, "velocity": 80}, {"time": 10960, "pitch": 58, "duration": 10, "velocity": 70}, {"time": 10960, "pitch": 63, "duration": 10, "velocity": 70}, {"time": 10960, "pitch": 67, "duration": 10, "velocity": 80}, {"time": 11040, "pitch": 53, "duration": 220, "velocity": 100}, {"time": 11040, "pitch": 58, "duration": 220, "velocity": 90}, {"time": 11050, "pitch": 62, "duration": 220, "velocity": 90}, {"time": 11050, "pitch": 65, "duration": 220, "velocity": 100}, {"time": 11280, "pitch": 53, "duration": 80, "velocity": 110}, {"time": 11280, "pitch": 58, "duration": 80, "velocity": 100}, {"time": 11280, "pitch": 62, "duration": 80, "velocity": 100}, {"time": 11280, "pitch": 65, "duration": 80, "velocity": 110}, {"time": 11440, "pitch": 53, "duration": 10, "velocity": 80}, {"time": 11440, "pitch": 58, "duration": 10, "velocity": 70}, {"time": 11440, "pitch": 62, "duration": 10, "velocity": 70}, {"time": 11440, "pitch": 65, "duration": 10, "velocity": 80}, {"time": 11520, "pitch": 53, "duration": 220, "velocity": 100}, {"time": 11520, "pitch": 58, "duration": 220, "velocity": 90}, {"time": 11530, "pitch": 62, "duration": 220, "velocity": 90}, {"time": 11530, "pitch": 65, "duration": 220, "velocity": 100}, {"time": 11760, "pitch": 53, "duration": 80, "velocity": 110}, {"time": 11760, "pitch": 58, "duration": 80, "velocity": 100}, {"time": 11760, "pitch": 62, "duration": 80, "velocity": 100}, {"time": 11760, "pitch": 65, "duration": 80, "velocity": 110}, {"time": 11920, "pitch": 53, "duration": 10, "velocity": 80}, {"time": 11920, "pitch": 58, "duration": 10, "velocity": 70}, {"time": 11920, "pitch": 62, "duration": 10, "velocity": 70}, {"time": 11920, "pitch": 65, "duration": 10, "velocity": 80}, {"time": 12000, "pitch": 55, "duration": 220, "velocity": 100}, {"time": 12000, "pitch": 60, "duration": 220, "velocity": 90}, {"time": 12010, "pitch": 63, "duration": 220, "velocity": 90}, {"time": 12010, "pitch": 67, "duration": 220, "velocity": 100}, {"time": 12240, "pitch": 55, "duration": 80, "velocity": 110}, {"time": 12240, "pitch": 60, "duration": 80, "velocity": 100}, {"time": 12240, "pitch": 63, "duration": 80, "velocity": 100}, {"time": 12240, "pitch": 67, "duration": 80, "velocity": 110}, {"time": 12400, "pitch": 55, "duration": 10, "velocity": 80}, {"time": 12400, "pitch": 60, "duration": 10, "velocity": 70}, {"time": 12400, "pitch": 63, "duration": 10, "velocity": 70}, {"time": 12400, "pitch": 67, "duration": 10, "velocity": 80}, {"time": 12480, "pitch": 55, "duration": 220, "velocity": 100}, {"time": 12480, "pitch": 60, "duration": 220, "velocity": 90}, {"time": 12490, "pitch": 63, "duration": 220, "velocity": 90}, {"time": 12490, "pitch": 67, "duration": 220, "velocity": 100}, {"time": 12720, "pitch": 55, "duration": 80, "velocity": 110}, {"time": 12720, "pitch": 60, "duration": 80, "velocity": 100}, {"time": 12720, "pitch": 63, "duration": 80, "velocity": 100}, {"time": 12720, "pitch": 67, "duration": 80, "velocity": 110}, {"time": 12880, "pitch": 55, "duration": 10, "velocity": 80}, {"time": 12880, "pitch": 60, "duration": 10, "velocity": 70}, {"time": 12880, "pitch": 63, "duration": 10, "velocity": 70}, {"time": 12880, "pitch": 67, "duration": 10, "velocity": 80}, {"time": 12960, "pitch": 53, "duration": 220, "velocity": 100}, {"time": 12960, "pitch": 58, "duration": 220, "velocity": 90}, {"time": 12970, "pitch": 62, "duration": 220, "velocity": 90}, {"time": 12970, "pitch": 67, "duration": 220, "velocity": 100}, {"time": 13200, "pitch": 53, "duration": 80, "velocity": 110}, {"time": 13200, "pitch": 58, "duration": 80, "velocity": 100}, {"time": 13200, "pitch": 62, "duration": 80, "velocity": 100}, {"time": 13200, "pitch": 67, "duration": 80, "velocity": 110}, {"time": 13360, "pitch": 53, "duration": 10, "velocity": 80}, {"time": 13360, "pitch": 58, "duration": 10, "velocity": 70}, {"time": 13360, "pitch": 62, "duration": 10, "velocity": 70}, {"time": 13360, "pitch": 67, "duration": 10, "velocity": 80}, {"time": 13440, "pitch": 53, "duration": 220, "velocity": 100}, {"time": 13440, "pitch": 58, "duration": 220, "velocity": 90}, {"time": 13450, "pitch": 62, "duration": 220, "velocity": 90}, {"time": 13450, "pitch": 67, "duration": 220, "velocity": 100}, {"time": 13680, "pitch": 53, "duration": 80, "velocity": 110}, {"time": 13680, "pitch": 58, "duration": 80, "velocity": 100}, {"time": 13680, "pitch": 62, "duration": 80, "velocity": 100}, {"time": 13680, "pitch": 67, "duration": 80, "velocity": 110}, {"time": 13840, "pitch": 53, "duration": 10, "velocity": 80}, {"time": 13840, "pitch": 58, "duration": 10, "velocity": 70}, {"time": 13840, "pitch": 62, "duration": 10, "velocity": 70}, {"time": 13840, "pitch": 67, "duration": 10, "velocity": 80}, {"time": 13920, "pitch": 56, "duration": 220, "velocity": 100}, {"time": 13920, "pitch": 60, "duration": 220, "velocity": 90}, {"time": 13930, "pitch": 63, "duration": 220, "velocity": 90}, {"time": 13930, "pitch": 68, "duration": 220, "velocity": 100}, {"time": 14160, "pitch": 56, "duration": 80, "velocity": 110}, {"time": 14160, "pitch": 60, "duration": 80, "velocity": 100}, {"time": 14160, "pitch": 63, "duration": 80, "velocity": 100}, {"time": 14160, "pitch": 68, "duration": 80, "velocity": 110}, {"time": 14320, "pitch": 56, "duration": 10, "velocity": 80}, {"time": 14320, "pitch": 60, "duration": 10, "velocity": 70}, {"time": 14320, "pitch": 63, "duration": 10, "velocity": 70}, {"time": 14320, "pitch": 68, "duration": 10, "velocity": 80}, {"time": 14400, "pitch": 56, "duration": 220, "velocity": 100}, {"time": 14400, "pitch": 60, "duration": 220, "velocity": 90}, {"time": 14410, "pitch": 63, "duration": 220, "velocity": 90}, {"time": 14410, "pitch": 68, "duration": 220, "velocity": 100}, {"time": 14640, "pitch": 56, "duration": 80, "velocity": 110}, {"time": 14640, "pitch": 60, "duration": 80, "velocity": 100}, {"time": 14640, "pitch": 63, "duration": 80, "velocity": 100}, {"time": 14640, "pitch": 68, "duration": 80, "velocity": 110}, {"time": 14800, "pitch": 56, "duration": 10, "velocity": 80}, {"time": 14800, "pitch": 60, "duration": 10, "velocity": 70}, {"time": 14800, "pitch": 63, "duration": 10, "velocity": 70}, {"time": 14800, "pitch": 68, "duration": 10, "velocity": 80}, {"time": 14880, "pitch": 55, "duration": 220, "velocity": 100}, {"time": 14880, "pitch": 58, "duration": 220, "velocity": 90}, {"time": 14890, "pitch": 63, "duration": 220, "velocity": 90}, {"time": 14890, "pitch": 67, "duration": 220, "velocity": 100}, {"time": 15120, "pitch": 55, "duration": 80, "velocity": 110}, {"time": 15120, "pitch": 58, "duration": 80, "velocity": 100}, {"time": 15120, "pitch": 63, "duration": 80, "velocity": 100}, {"time": 15120, "pitch": 67, "duration": 80, "velocity": 110}, {"time": 15280, "pitch": 55, "duration": 10, "velocity": 80}, {"time": 15280, "pitch": 58, "duration": 10, "velocity": 70}, {"time": 15280, "pitch": 63, "duration": 10, "velocity": 70}, {"time": 15280, "pitch": 67, "duration": 10, "velocity": 80}, {"time": 15360, "pitch": 55, "duration": 220, "velocity": 100}, {"time": 15360, "pitch": 58, "duration": 220, "velocity": 90}, {"time": 15370, "pitch": 63, "duration": 220, "velocity": 90}, {"time": 15370, "pitch": 67, "duration": 220, "velocity": 100}, {"time": 15600, "pitch": 55, "duration": 80, "velocity": 110}, {"time": 15600, "pitch": 58, "duration": 80, "velocity": 100}, {"time": 15600, "pitch": 63, "duration": 80, "velocity": 100}, {"time": 15600, "pitch": 67, "duration": 80, "velocity": 110}, {"time": 15760, "pitch": 55, "duration": 10, "velocity": 80}, {"time": 15760, "pitch": 58, "duration": 10, "velocity": 70}, {"time": 15760, "pitch": 63, "duration": 10, "velocity": 70}, {"time": 15760, "pitch": 67, "duration": 10, "velocity": 80}, {"time": 15840, "pitch": 56, "duration": 220, "velocity": 100}, {"time": 15840, "pitch": 60, "duration": 220, "velocity": 90}, {"time": 15850, "pitch": 63, "duration": 220, "velocity": 90}, {"time": 15850, "pitch": 68, "duration": 220, "velocity": 100}, {"time": 16080, "pitch": 56, "duration": 80, "velocity": 110}, {"time": 16080, "pitch": 60, "duration": 80, "velocity": 100}, {"time": 16080, "pitch": 63, "duration": 80, "velocity": 100}, {"time": 16080, "pitch": 68, "duration": 80, "velocity": 110}, {"time": 16240, "pitch": 56, "duration": 10, "velocity": 80}, {"time": 16240, "pitch": 60, "duration": 10, "velocity": 70}, {"time": 16240, "pitch": 63, "duration": 10, "velocity": 70}, {"time": 16240, "pitch": 68, "duration": 10, "velocity": 80}, {"time": 16320, "pitch": 56, "duration": 220, "velocity": 100}, {"time": 16320, "pitch": 60, "duration": 220, "velocity": 90}, {"time": 16330, "pitch": 63, "duration": 220, "velocity": 90}, {"time": 16330, "pitch": 68, "duration": 220, "velocity": 100}, {"time": 16560, "pitch": 56, "duration": 80, "velocity": 110}, {"time": 16560, "pitch": 60, "duration": 80, "velocity": 100}, {"time": 16560, "pitch": 63, "duration": 80, "velocity": 100}, {"time": 16560, "pitch": 68, "duration": 80, "velocity": 110}, {"time": 16720, "pitch": 56, "duration": 10, "velocity": 80}, {"time": 16720, "pitch": 60, "duration": 10, "velocity": 70}, {"time": 16720, "pitch": 63, "duration": 10, "velocity": 70}, {"time": 16720, "pitch": 68, "duration": 10, "velocity": 80}, {"time": 16800, "pitch": 54, "duration": 10, "velocity": 80}, {"time": 16800, "pitch": 59, "duration": 10, "velocity": 70}, {"time": 16800, "pitch": 63, "duration": 10, "velocity": 70}, {"time": 16800, "pitch": 66, "duration": 10, "velocity": 80}, {"time": 16880, "pitch": 54, "duration": 80, "velocity": 110}, {"time": 16880, "pitch": 59, "duration": 80, "velocity": 100}, {"time": 16880, "pitch": 63, "duration": 80, "velocity": 100}, {"time": 16880, "pitch": 66, "duration": 80, "velocity": 110}, {"time": 17040, "pitch": 54, "duration": 220, "velocity": 100}, {"time": 17040, "pitch": 59, "duration": 220, "velocity": 90}, {"time": 17050, "pitch": 63, "duration": 220, "velocity": 90}, {"time": 17050, "pitch": 66, "duration": 220, "velocity": 100}, {"time": 17280, "pitch": 53, "duration": 10, "velocity": 80}, {"time": 17280, "pitch": 56, "duration": 10, "velocity": 70}, {"time": 17280, "pitch": 61, "duration": 10, "velocity": 70}, {"time": 17280, "pitch": 65, "duration": 10, "velocity": 80}, {"time": 17360, "pitch": 53, "duration": 80, "velocity": 110}, {"time": 17360, "pitch": 56, "duration": 80, "velocity": 100}, {"time": 17360, "pitch": 61, "duration": 80, "velocity": 100}, {"time": 17360, "pitch": 65, "duration": 80, "velocity": 110}, {"time": 17520, "pitch": 53, "duration": 220, "velocity": 100}, {"time": 17520, "pitch": 56, "duration": 220, "velocity": 90}, {"time": 17530, "pitch": 61, "duration": 220, "velocity": 90}, {"time": 17530, "pitch": 65, "duration": 220, "velocity": 100}, {"time": 17760, "pitch": 55, "duration": 220, "velocity": 100}, {"time": 17760, "pitch": 58, "duration": 220, "velocity": 90}, {"time": 17770, "pitch": 63, "duration": 220, "velocity": 90}, {"time": 17770, "pitch": 67, "duration": 220, "velocity": 100}, {"time": 18000, "pitch": 55, "duration": 80, "velocity": 110}, {"time": 18000, "pitch": 58, "duration": 80, "velocity": 100}, {"time": 18000, "pitch": 63, "duration": 80, "velocity": 100}, {"time": 18000, "pitch": 67, "duration": 80, "velocity": 110}, {"time": 18160, "pitch": 55, "duration": 10, "velocity": 80}, {"time": 18160, "pitch": 58, "duration": 10, "velocity": 70}, {"time": 18160, "pitch": 63, "duration": 10, "velocity": 70}, {"time": 18160, "pitch": 67, "duration": 10, "velocity": 80}, {"time": 18240, "pitch": 55, "duration": 220, "velocity": 100}, {"time": 18240, "pitch": 58, "duration": 220, "velocity": 90}, {"time": 18250, "pitch": 63, "duration": 220, "velocity": 90}, {"time": 18250, "pitch": 67, "duration": 220, "velocity": 100}, {"time": 18480, "pitch": 55, "duration": 80, "velocity": 110}, {"time": 18480, "pitch": 58, "duration": 80, "velocity": 100}, {"time": 18480, "pitch": 63, "duration": 80, "velocity": 100}, {"time": 18480, "pitch": 67, "duration": 80, "velocity": 110}, {"time": 18640, "pitch": 55, "duration": 10, "velocity": 80}, {"time": 18640, "pitch": 58, "duration": 10, "velocity": 70}, {"time": 18640, "pitch": 63, "duration": 10, "velocity": 70}, {"time": 18640, "pitch": 67, "duration": 10, "velocity": 80}, {"time": 18720, "pitch": 53, "duration": 220, "velocity": 100}, {"time": 18720, "pitch": 58, "duration": 220, "velocity": 90}, {"time": 18730, "pitch": 62, "duration": 220, "velocity": 90}, {"time": 18730, "pitch": 65, "duration": 220, "velocity": 100}, {"time": 18960, "pitch": 53, "duration": 80, "velocity": 110}, {"time": 18960, "pitch": 58, "duration": 80, "velocity": 100}, {"time": 18960, "pitch": 62, "duration": 80, "velocity": 100}, {"time": 18960, "pitch": 65, "duration": 80, "velocity": 110}, {"time": 19120, "pitch": 53, "duration": 10, "velocity": 80}, {"time": 19120, "pitch": 58, "duration": 10, "velocity": 70}, {"time": 19120, "pitch": 62, "duration": 10, "velocity": 70}, {"time": 19120, "pitch": 65, "duration": 10, "velocity": 80}, {"time": 19200, "pitch": 53, "duration": 220, "velocity": 100}, {"time": 19200, "pitch": 58, "duration": 220, "velocity": 90}, {"time": 19210, "pitch": 62, "duration": 220, "velocity": 90}, {"time": 19210, "pitch": 65, "duration": 220, "velocity": 100}, {"time": 19440, "pitch": 53, "duration": 80, "velocity": 110}, {"time": 19440, "pitch": 58, "duration": 80, "velocity": 100}, {"time": 19440, "pitch": 62, "duration": 80, "velocity": 100}, {"time": 19440, "pitch": 65, "duration": 80, "velocity": 110}, {"time": 19600, "pitch": 53, "duration": 10, "velocity": 80}, {"time": 19600, "pitch": 58, "duration": 10, "velocity": 70}, {"time": 19600, "pitch": 62, "duration": 10, "velocity": 70}, {"time": 19600, "pitch": 65, "duration": 10, "velocity": 80}, {"time": 19680, "pitch": 55, "duration": 220, "velocity": 100}, {"time": 19680, "pitch": 60, "duration": 220, "velocity": 90}, {"time": 19690, "pitch": 63, "duration": 220, "velocity": 90}, {"time": 19690, "pitch": 67, "duration": 220, "velocity": 100}, {"time": 19920, "pitch": 55, "duration": 80, "velocity": 110}, {"time": 19920, "pitch": 60, "duration": 80, "velocity": 100}, {"time": 19920, "pitch": 63, "duration": 80, "velocity": 100}, {"time": 19920, "pitch": 67, "duration": 80, "velocity": 110}, {"time": 20080, "pitch": 55, "duration": 10, "velocity": 80}, {"time": 20080, "pitch": 60, "duration": 10, "velocity": 70}, {"time": 20080, "pitch": 63, "duration": 10, "velocity": 70}, {"time": 20080, "pitch": 67, "duration": 10, "velocity": 80}, {"time": 20160, "pitch": 55, "duration": 220, "velocity": 100}, {"time": 20160, "pitch": 60, "duration": 220, "velocity": 90}, {"time": 20170, "pitch": 63, "duration": 220, "velocity": 90}, {"time": 20170, "pitch": 67, "duration": 220, "velocity": 100}, {"time": 20400, "pitch": 55, "duration": 80, "velocity": 110}, {"time": 20400, "pitch": 60, "duration": 80, "velocity": 100}, {"time": 20400, "pitch": 63, "duration": 80, "velocity": 100}, {"time": 20400, "pitch": 67, "duration": 80, "velocity": 110}, {"time": 20560, "pitch": 55, "duration": 10, "velocity": 80}, {"time": 20560, "pitch": 60, "duration": 10, "velocity": 70}, {"time": 20560, "pitch": 63, "duration": 10, "velocity": 70}, {"time": 20560, "pitch": 67, "duration": 10, "velocity": 80}, {"time": 20640, "pitch": 53, "duration": 220, "velocity": 100}, {"time": 20640, "pitch": 58, "duration": 220, "velocity": 90}, {"time": 20650, "pitch": 62, "duration": 220, "velocity": 90}, {"time": 20650, "pitch": 67, "duration": 220, "velocity": 100}, {"time": 20880, "pitch": 53, "duration": 80, "velocity": 110}, {"time": 20880, "pitch": 58, "duration": 80, "velocity": 100}, {"time": 20880, "pitch": 62, "duration": 80, "velocity": 100}, {"time": 20880, "pitch": 67, "duration": 80, "velocity": 110}, {"time": 21040, "pitch": 53, "duration": 10, "velocity": 80}, {"time": 21040, "pitch": 58, "duration": 10, "velocity": 70}, {"time": 21040, "pitch": 62, "duration": 10, "velocity": 70}, {"time": 21040, "pitch": 67, "duration": 10, "velocity": 80}, {"time": 21120, "pitch": 53, "duration": 220, "velocity": 100}, {"time": 21120, "pitch": 58, "duration": 220, "velocity": 90}, {"time": 21130, "pitch": 62, "duration": 220, "velocity": 90}, {"time": 21130, "pitch": 67, "duration": 220, "velocity": 100}, {"time": 21360, "pitch": 53, "duration": 80, "velocity": 110}, {"time": 21360, "pitch": 58, "duration": 80, "velocity": 100}, {"time": 21360, "pitch": 62, "duration": 80, "velocity": 100}, {"time": 21360, "pitch": 67, "duration": 80, "velocity": 110}, {"time": 21520, "pitch": 53, "duration": 10, "velocity": 80}, {"time": 21520, "pitch": 58, "duration": 10, "velocity": 70}, {"time": 21520, "pitch": 62, "duration": 10, "velocity": 70}, {"time": 21520, "pitch": 67, "duration": 10, "velocity": 80}, {"time": 21600, "pitch": 56, "duration": 220, "velocity": 100}, {"time": 21600, "pitch": 60, "duration": 220, "velocity": 90}, {"time": 21610, "pitch": 63, "duration": 220, "velocity": 90}, {"time": 21610, "pitch": 68, "duration": 220, "velocity": 100}, {"time": 21840, "pitch": 56, "duration": 80, "velocity": 110}, {"time": 21840, "pitch": 60, "duration": 80, "velocity": 100}, {"time": 21840, "pitch": 63, "duration": 80, "velocity": 100}, {"time": 21840, "pitch": 68, "duration": 80, "velocity": 110}, {"time": 22000, "pitch": 56, "duration": 10, "velocity": 80}, {"time": 22000, "pitch": 60, "duration": 10, "velocity": 70}, {"time": 22000, "pitch": 63, "duration": 10, "velocity": 70}, {"time": 22000, "pitch": 68, "duration": 10, "velocity": 80}, {"time": 22080, "pitch": 56, "duration": 220, "velocity": 100}, {"time": 22080, "pitch": 60, "duration": 220, "velocity": 90}, {"time": 22090, "pitch": 63, "duration": 220, "velocity": 90}, {"time": 22090, "pitch": 68, "duration": 220, "velocity": 100}, {"time": 22320, "pitch": 56, "duration": 80, "velocity": 110}, {"time": 22320, "pitch": 60, "duration": 80, "velocity": 100}, {"time": 22320, "pitch": 63, "duration": 80, "velocity": 100}, {"time": 22320, "pitch": 68, "duration": 80, "velocity": 110}, {"time": 22480, "pitch": 56, "duration": 10, "velocity": 80}, {"time": 22480, "pitch": 60, "duration": 10, "velocity": 70}, {"time": 22480, "pitch": 63, "duration": 10, "velocity": 70}, {"time": 22480, "pitch": 68, "duration": 10, "velocity": 80}, {"time": 22560, "pitch": 55, "duration": 220, "velocity": 100}, {"time": 22560, "pitch": 58, "duration": 220, "velocity": 90}, {"time": 22570, "pitch": 63, "duration": 220, "velocity": 90}, {"time": 22570, "pitch": 67, "duration": 220, "velocity": 100}, {"time": 22800, "pitch": 55, "duration": 80, "velocity": 110}, {"time": 22800, "pitch": 58, "duration": 80, "velocity": 100}, {"time": 22800, "pitch": 63, "duration": 80, "velocity": 100}, {"time": 22800, "pitch": 67, "duration": 80, "velocity": 110}, {"time": 22960, "pitch": 55, "duration": 10, "velocity": 80}, {"time": 22960, "pitch": 58, "duration": 10, "velocity": 70}, {"time": 22960, "pitch": 63, "duration": 10, "velocity": 70}, {"time": 22960, "pitch": 67, "duration": 10, "velocity": 80}, {"time": 23040, "pitch": 55, "duration": 220, "velocity": 100}, {"time": 23040, "pitch": 58, "duration": 220, "velocity": 90}, {"time": 23050, "pitch": 63, "duration": 220, "velocity": 90}, {"time": 23050, "pitch": 67, "duration": 220, "velocity": 100}, {"time": 23280, "pitch": 55, "duration": 80, "velocity": 110}, {"time": 23280, "pitch": 58, "duration": 80, "velocity": 100}, {"time": 23280, "pitch": 63, "duration": 80, "velocity": 100}, {"time": 23280, "pitch": 67, "duration": 80, "velocity": 110}, {"time": 23440, "pitch": 55, "duration": 10, "velocity": 80}, {"time": 23440, "pitch": 58, "duration": 10, "velocity": 70}, {"time": 23440, "pitch": 63, "duration": 10, "velocity": 70}, {"time": 23440, "pitch": 67, "duration": 10, "velocity": 80}, {"time": 23520, "pitch": 56, "duration": 220, "velocity": 100}, {"time": 23520, "pitch": 60, "duration": 220, "velocity": 90}, {"time": 23530, "pitch": 63, "duration": 220, "velocity": 90}, {"time": 23530, "pitch": 68, "duration": 220, "velocity": 100}, {"time": 23760, "pitch": 56, "duration": 80, "velocity": 110}, {"time": 23760, "pitch": 60, "duration": 80, "velocity": 100}, {"time": 23760, "pitch": 63, "duration": 80, "velocity": 100}, {"time": 23760, "pitch": 68, "duration": 80, "velocity": 110}, {"time": 23920, "pitch": 56, "duration": 10, "velocity": 80}, {"time": 23920, "pitch": 60, "duration": 10, "velocity": 70}, {"time": 23920, "pitch": 63, "duration": 10, "velocity": 70}, {"time": 23920, "pitch": 68, "duration": 10, "velocity": 80}, {"time": 24000, "pitch": 56, "duration": 220, "velocity": 100}, {"time": 24000, "pitch": 60, "duration": 220, "velocity": 90}, {"time": 24010, "pitch": 63, "duration": 220, "velocity": 90}, {"time": 24010, "pitch": 68, "duration": 220, "velocity": 100}, {"time": 24240, "pitch": 56, "duration": 80, "velocity": 110}, {"time": 24240, "pitch": 60, "duration": 80, "velocity": 100}, {"time": 24240, "pitch": 63, "duration": 80, "velocity": 100}, {"time": 24240, "pitch": 68, "duration": 80, "velocity": 110}, {"time": 24400, "pitch": 56, "duration": 10, "velocity": 80}, {"time": 24400, "pitch": 60, "duration": 10, "velocity": 70}, {"time": 24400, "pitch": 63, "duration": 10, "velocity": 70}, {"time": 24400, "pitch": 68, "duration": 10, "velocity": 80}, {"time": 24480, "pitch": 53, "duration": 220, "velocity": 110}, {"time": 24480, "pitch": 58, "duration": 220, "velocity": 100}, {"time": 24490, "pitch": 63, "duration": 220, "velocity": 100}, {"time": 24490, "pitch": 68, "duration": 220, "velocity": 110}, {"time": 24720, "pitch": 53, "duration": 80, "velocity": 110}, {"time": 24720, "pitch": 58, "duration": 80, "velocity": 100}, {"time": 24730, "pitch": 63, "duration": 80, "velocity": 100}, {"time": 24730, "pitch": 68, "duration": 80, "velocity": 110}, {"time": 25440, "pitch": 56, "duration": 220, "velocity": 100}, {"time": 25440, "pitch": 60, "duration": 220, "velocity": 90}, {"time": 25450, "pitch": 63, "duration": 220, "velocity": 90}, {"time": 25450, "pitch": 68, "duration": 220, "velocity": 100}, {"time": 25680, "pitch": 56, "duration": 80, "velocity": 110}, {"time": 25680, "pitch": 60, "duration": 80, "velocity": 100}, {"time": 25680, "pitch": 63, "duration": 80, "velocity": 100}, {"time": 25680, "pitch": 68, "duration": 80, "velocity": 110}, {"time": 25840, "pitch": 56, "duration": 10, "velocity": 80}, {"time": 25840, "pitch": 60, "duration": 10, "velocity": 70}, {"time": 25840, "pitch": 63, "duration": 10, "velocity": 70}, {"time": 25840, "pitch": 68, "duration": 10, "velocity": 80}, {"time": 25920, "pitch": 56, "duration": 220, "velocity": 100}, {"time": 25920, "pitch": 60, "duration": 220, "velocity": 90}, {"time": 25930, "pitch": 63, "duration": 220, "velocity": 90}, {"time": 25930, "pitch": 68, "duration": 220, "velocity": 100}, {"time": 26160, "pitch": 56, "duration": 80, "velocity": 110}, {"time": 26160, "pitch": 60, "duration": 80, "velocity": 100}, {"time": 26160, "pitch": 63, "duration": 80, "velocity": 100}, {"time": 26160, "pitch": 68, "duration": 80, "velocity": 110}, {"time": 26320, "pitch": 56, "duration": 10, "velocity": 80}, {"time": 26320, "pitch": 60, "duration": 10, "velocity": 70}, {"time": 26320, "pitch": 63, "duration": 10, "velocity": 70}, {"time": 26320, "pitch": 68, "duration": 10, "velocity": 80}, {"time": 26400, "pitch": 55, "duration": 220, "velocity": 100}, {"time": 26400, "pitch": 58, "duration": 220, "velocity": 90}, {"time": 26410, "pitch": 63, "duration": 220, "velocity": 90}, {"time": 26410, "pitch": 70, "duration": 220, "velocity": 100}, {"time": 26640, "pitch": 55, "duration": 80, "velocity": 110}, {"time": 26640, "pitch": 58, "duration": 80, "velocity": 100}, {"time": 26640, "pitch": 63, "duration": 80, "velocity": 100}, {"time": 26640, "pitch": 70, "duration": 80, "velocity": 110}, {"time": 26800, "pitch": 55, "duration": 10, "velocity": 80}, {"time": 26800, "pitch": 58, "duration": 10, "velocity": 70}, {"time": 26800, "pitch": 63, "duration": 10, "velocity": 70}, {"time": 26800, "pitch": 70, "duration": 10, "velocity": 80}, {"time": 26880, "pitch": 54, "duration": 220, "velocity": 100}, {"time": 26880, "pitch": 60, "duration": 220, "velocity": 90}, {"time": 26890, "pitch": 63, "duration": 220, "velocity": 90}, {"time": 26890, "pitch": 69, "duration": 220, "velocity": 100}, {"time": 27120, "pitch": 54, "duration": 80, "velocity": 110}, {"time": 27120, "pitch": 60, "duration": 80, "velocity": 100}, {"time": 27120, "pitch": 63, "duration": 80, "velocity": 100}, {"time": 27120, "pitch": 69, "duration": 80, "velocity": 110}, {"time": 27280, "pitch": 54, "duration": 10, "velocity": 80}, {"time": 27280, "pitch": 60, "duration": 10, "velocity": 70}, {"time": 27280, "pitch": 63, "duration": 10, "velocity": 70}, {"time": 27280, "pitch": 69, "duration": 10, "velocity": 80}, {"time": 27360, "pitch": 56, "duration": 450, "velocity": 100}, {"time": 27360, "pitch": 60, "duration": 450, "velocity": 90}, {"time": 27370, "pitch": 63, "duration": 450, "velocity": 90}, {"time": 27370, "pitch": 68, "duration": 450, "velocity": 100}, {"time": 27840, "pitch": 53, "duration": 10, "velocity": 80}, {"time": 27840, "pitch": 58, "duration": 10, "velocity": 70}, {"time": 27840, "pitch": 63, "duration": 10, "velocity": 70}, {"time": 27840, "pitch": 68, "duration": 10, "velocity": 80}, {"time": 28000, "pitch": 63, "duration": 310, "velocity": 100}, {"time": 28000, "pitch": 68, "duration": 310, "velocity": 110}, {"time": 28010, "pitch": 53, "duration": 310, "velocity": 110}, {"time": 28010, "pitch": 58, "duration": 310, "velocity": 100}, {"time": 28320, "pitch": 55, "duration": 150, "velocity": 100}, {"time": 28320, "pitch": 58, "duration": 150, "velocity": 90}, {"time": 28330, "pitch": 63, "duration": 150, "velocity": 90}, {"time": 28330, "pitch": 67, "duration": 150, "velocity": 100}, {"time": 28560, "pitch": 55, "duration": 150, "velocity": 100}, {"time": 28560, "pitch": 58, "duration": 150, "velocity": 90}, {"time": 28570, "pitch": 63, "duration": 150, "velocity": 90}, {"time": 28570, "pitch": 67, "duration": 150, "velocity": 100}, {"time": 28800, "pitch": 55, "duration": 150, "velocity": 100}, {"time": 28800, "pitch": 58, "duration": 150, "velocity": 90}, {"time": 28810, "pitch": 63, "duration": 150, "velocity": 90}, {"time": 28810, "pitch": 67, "duration": 150, "velocity": 100}, {"time": 29040, "pitch": 55, "duration": 150, "velocity": 100}, {"time": 29040, "pitch": 58, "duration": 150, "velocity": 90}, {"time": 29050, "pitch": 63, "duration": 150, "velocity": 90}, {"time": 29050, "pitch": 67, "duration": 150, "velocity": 100}, {"time": 29280, "pitch": 56, "duration": 150, "velocity": 100}, {"time": 29280, "pitch": 60, "duration": 150, "velocity": 90}, {"time": 29290, "pitch": 63, "duration": 150, "velocity": 90}, {"time": 29290, "pitch": 68, "duration": 150, "velocity": 100}, {"time": 29520, "pitch": 56, "duration": 150, "velocity": 100}, {"time": 29520, "pitch": 60, "duration": 150, "velocity": 90}, {"time": 29530, "pitch": 63, "duration": 150, "velocity": 90}, {"time": 29530, "pitch": 68, "duration": 150, "velocity": 100}, {"time": 29760, "pitch": 56, "duration": 150, "velocity": 100}, {"time": 29760, "pitch": 60, "duration": 150, "velocity": 90}, {"time": 29770, "pitch": 63, "duration": 150, "velocity": 90}, {"time": 29770, "pitch": 68, "duration": 150, "velocity": 100}, {"time": 30000, "pitch": 56, "duration": 150, "velocity": 100}, {"time": 30000, "pitch": 60, "duration": 150, "velocity": 90}, {"time": 30010, "pitch": 63, "duration": 150, "velocity": 90}, {"time": 30010, "pitch": 68, "duration": 150, "velocity": 100}, {"time": 30240, "pitch": 56, "duration": 150, "velocity": 100}, {"time": 30240, "pitch": 60, "duration": 150, "velocity": 90}, {"time": 30250, "pitch": 63, "duration": 150, "velocity": 90}, {"time": 30250, "pitch": 68, "duration": 150, "velocity": 100}, {"time": 30480, "pitch": 56, "duration": 150, "velocity": 100}, {"time": 30480, "pitch": 60, "duration": 150, "velocity": 90}, {"time": 30490, "pitch": 63, "duration": 150, "velocity": 90}, {"time": 30490, "pitch": 68, "duration": 150, "velocity": 100}, {"time": 30720, "pitch": 56, "duration": 150, "velocity": 100}, {"time": 30720, "pitch": 60, "duration": 150, "velocity": 90}, {"time": 30730, "pitch": 63, "duration": 150, "velocity": 90}, {"time": 30730, "pitch": 68, "duration": 150, "velocity": 100}, {"time": 30960, "pitch": 56, "duration": 150, "velocity": 100}, {"time": 30960, "pitch": 60, "duration": 150, "velocity": 90}, {"time": 30970, "pitch": 63, "duration": 150, "velocity": 90}, {"time": 30970, "pitch": 68, "duration": 150, "velocity": 100}, {"time": 31200, "pitch": 55, "duration": 150, "velocity": 100}, {"time": 31200, "pitch": 58, "duration": 150, "velocity": 90}, {"time": 31210, "pitch": 63, "duration": 150, "velocity": 90}, {"time": 31210, "pitch": 67, "duration": 150, "velocity": 100}, {"time": 31440, "pitch": 55, "duration": 150, "velocity": 100}, {"time": 31440, "pitch": 58, "duration": 150, "velocity": 90}, {"time": 31450, "pitch": 63, "duration": 150, "velocity": 90}, {"time": 31450, "pitch": 67, "duration": 150, "velocity": 100}, {"time": 31680, "pitch": 55, "duration": 150, "velocity": 100}, {"time": 31680, "pitch": 58, "duration": 150, "velocity": 90}, {"time": 31690, "pitch": 63, "duration": 150, "velocity": 90}, {"time": 31690, "pitch": 67, "duration": 150, "velocity": 100}, {"time": 31920, "pitch": 55, "duration": 150, "velocity": 100}, {"time": 31920, "pitch": 58, "duration": 150, "velocity": 90}, {"time": 31930, "pitch": 63, "duration": 150, "velocity": 90}, {"time": 31930, "pitch": 67, "duration": 150, "velocity": 100}, {"time": 32160, "pitch": 56, "duration": 150, "velocity": 100}, {"time": 32160, "pitch": 60, "duration": 150, "velocity": 90}, {"time": 32170, "pitch": 63, "duration": 150, "velocity": 90}, {"time": 32170, "pitch": 68, "duration": 150, "velocity": 100}, {"time": 32400, "pitch": 56, "duration": 150, "velocity": 100}, {"time": 32400, "pitch": 60, "duration": 150, "velocity": 90}, {"time": 32410, "pitch": 63, "duration": 150, "velocity": 90}, {"time": 32410, "pitch": 68, "duration": 150, "velocity": 100}, {"time": 32640, "pitch": 56, "duration": 150, "velocity": 100}, {"time": 32640, "pitch": 60, "duration": 150, "velocity": 90}, {"time": 32650, "pitch": 63, "duration": 150, "velocity": 90}, {"time": 32650, "pitch": 68, "duration": 150, "velocity": 100}, {"time": 32880, "pitch": 56, "duration": 150, "velocity": 100}, {"time": 32880, "pitch": 60, "duration": 150, "velocity": 90}, {"time": 32890, "pitch": 63, "duration": 150, "velocity": 90}, {"time": 32890, "pitch": 68, "duration": 150, "velocity": 100}, {"time": 33120, "pitch": 53, "duration": 150, "velocity": 100}, {"time": 33120, "pitch": 58, "duration": 150, "velocity": 90}, {"time": 33130, "pitch": 63, "duration": 150, "velocity": 90}, {"time": 33130, "pitch": 68, "duration": 150, "velocity": 100}, {"time": 33360, "pitch": 53, "duration": 150, "velocity": 100}, {"time": 33360, "pitch": 58, "duration": 150, "velocity": 90}, {"time": 33370, "pitch": 63, "duration": 150, "velocity": 90}, {"time": 33370, "pitch": 68, "duration": 150, "velocity": 100}, {"time": 33600, "pitch": 53, "duration": 150, "velocity": 100}, {"time": 33600, "pitch": 58, "duration": 150, "velocity": 90}, {"time": 33610, "pitch": 63, "duration": 150, "velocity": 90}, {"time": 33610, "pitch": 68, "duration": 150, "velocity": 100}, {"time": 33840, "pitch": 53, "duration": 150, "velocity": 100}, {"time": 33840, "pitch": 58, "duration": 150, "velocity": 90}, {"time": 33850, "pitch": 63, "duration": 150, "velocity": 90}, {"time": 33850, "pitch": 68, "duration": 150, "velocity": 100}, {"time": 34080, "pitch": 55, "duration": 150, "velocity": 100}, {"time": 34080, "pitch": 58, "duration": 150, "velocity": 90}, {"time": 34090, "pitch": 63, "duration": 150, "velocity": 90}, {"time": 34090, "pitch": 67, "duration": 150, "velocity": 100}, {"time": 34320, "pitch": 55, "duration": 150, "velocity": 100}, {"time": 34320, "pitch": 58, "duration": 150, "velocity": 90}, {"time": 34330, "pitch": 63, "duration": 150, "velocity": 90}, {"time": 34330, "pitch": 67, "duration": 150, "velocity": 100}, {"time": 34560, "pitch": 55, "duration": 150, "velocity": 100}, {"time": 34560, "pitch": 58, "duration": 150, "velocity": 90}, {"time": 34570, "pitch": 63, "duration": 150, "velocity": 90}, {"time": 34570, "pitch": 67, "duration": 150, "velocity": 100}, {"time": 34800, "pitch": 55, "duration": 150, "velocity": 100}, {"time": 34800, "pitch": 58, "duration": 150, "velocity": 90}, {"time": 34810, "pitch": 63, "duration": 150, "velocity": 90}, {"time": 34810, "pitch": 67, "duration": 150, "velocity": 100}, {"time": 35040, "pitch": 53, "duration": 10, "velocity": 80}, {"time": 35040, "pitch": 58, "duration": 10, "velocity": 70}, {"time": 35040, "pitch": 63, "duration": 10, "velocity": 70}, {"time": 35040, "pitch": 68, "duration": 10, "velocity": 80}, {"time": 35200, "pitch": 53, "duration": 10, "velocity": 80}, {"time": 35200, "pitch": 58, "duration": 10, "velocity": 70}, {"time": 35200, "pitch": 63, "duration": 10, "velocity": 70}, {"time": 35200, "pitch": 68, "duration": 10, "velocity": 80}, {"time": 35280, "pitch": 53, "duration": 80, "velocity": 110}, {"time": 35280, "pitch": 58, "duration": 80, "velocity": 100}, {"time": 35290, "pitch": 63, "duration": 80, "velocity": 100}, {"time": 35290, "pitch": 68, "duration": 80, "velocity": 110}, {"time": 35520, "pitch": 53, "duration": 10, "velocity": 80}, {"time": 35520, "pitch": 58, "duration": 10, "velocity": 70}, {"time": 35520, "pitch": 63, "duration": 10, "velocity": 70}, {"time": 35520, "pitch": 68, "duration": 10, "velocity": 80}, {"time": 35680, "pitch": 63, "duration": 310, "velocity": 100}, {"time": 35680, "pitch": 68, "duration": 310, "velocity": 110}, {"time": 35690, "pitch": 53, "duration": 310, "velocity": 110}, {"time": 35690, "pitch": 58, "duration": 310, "velocity": 100}, {"time": 36000, "pitch": 55, "duration": 150, "velocity": 100}, {"time": 36000, "pitch": 58, "duration": 150, "velocity": 90}, {"time": 36010, "pitch": 63, "duration": 150, "velocity": 90}, {"time": 36010, "pitch": 67, "duration": 150, "velocity": 100}, {"time": 36240, "pitch": 55, "duration": 150, "velocity": 100}, {"time": 36240, "pitch": 58, "duration": 150, "velocity": 90}, {"time": 36250, "pitch": 63, "duration": 150, "velocity": 90}, {"time": 36250, "pitch": 67, "duration": 150, "velocity": 100}, {"time": 36480, "pitch": 55, "duration": 150, "velocity": 100}, {"time": 36480, "pitch": 58, "duration": 150, "velocity": 90}, {"time": 36490, "pitch": 63, "duration": 150, "velocity": 90}, {"time": 36490, "pitch": 67, "duration": 150, "velocity": 100}, {"time": 36720, "pitch": 55, "duration": 150, "velocity": 100}, {"time": 36720, "pitch": 58, "duration": 150, "velocity": 90}, {"time": 36730, "pitch": 63, "duration": 150, "velocity": 90}, {"time": 36730, "pitch": 67, "duration": 150, "velocity": 100}, {"time": 36960, "pitch": 56, "duration": 150, "velocity": 100}, {"time": 36960, "pitch": 60, "duration": 150, "velocity": 90}, {"time": 36970, "pitch": 63, "duration": 150, "velocity": 90}, {"time": 36970, "pitch": 68, "duration": 150, "velocity": 100}, {"time": 37200, "pitch": 56, "duration": 150, "velocity": 100}, {"time": 37200, "pitch": 60, "duration": 150, "velocity": 90}, {"time": 37210, "pitch": 63, "duration": 150, "velocity": 90}, {"time": 37210, "pitch": 68, "duration": 150, "velocity": 100}, {"time": 37440, "pitch": 56, "duration": 150, "velocity": 100}, {"time": 37440, "pitch": 60, "duration": 150, "velocity": 90}, {"time": 37450, "pitch": 63, "duration": 150, "velocity": 90}, {"time": 37450, "pitch": 68, "duration": 150, "velocity": 100}, {"time": 37680, "pitch": 56, "duration": 150, "velocity": 100}, {"time": 37680, "pitch": 60, "duration": 150, "velocity": 90}, {"time": 37690, "pitch": 63, "duration": 150, "velocity": 90}, {"time": 37690, "pitch": 68, "duration": 150, "velocity": 100}, {"time": 37920, "pitch": 56, "duration": 150, "velocity": 100}, {"time": 37920, "pitch": 60, "duration": 150, "velocity": 90}, {"time": 37930, "pitch": 63, "duration": 150, "velocity": 90}, {"time": 37930, "pitch": 68, "duration": 150, "velocity": 100}, {"time": 38160, "pitch": 56, "duration": 150, "velocity": 100}, {"time": 38160, "pitch": 60, "duration": 150, "velocity": 90}, {"time": 38170, "pitch": 63, "duration": 150, "velocity": 90}, {"time": 38170, "pitch": 68, "duration": 150, "velocity": 100}, {"time": 38400, "pitch": 56, "duration": 150, "velocity": 100}, {"time": 38400, "pitch": 60, "duration": 150, "velocity": 90}, {"time": 38410, "pitch": 63, "duration": 150, "velocity": 90}, {"time": 38410, "pitch": 68, "duration": 150, "velocity": 100}, {"time": 38640, "pitch": 56, "duration": 150, "velocity": 100}, {"time": 38640, "pitch": 60, "duration": 150, "velocity": 90}, {"time": 38650, "pitch": 63, "duration": 150, "velocity": 90}, {"time": 38650, "pitch": 68, "duration": 150, "velocity": 100}, {"time": 38880, "pitch": 55, "duration": 150, "velocity": 100}, {"time": 38880, "pitch": 58, "duration": 150, "velocity": 90}, {"time": 38890, "pitch": 63, "duration": 150, "velocity": 90}, {"time": 38890, "pitch": 67, "duration": 150, "velocity": 100}, {"time": 39120, "pitch": 55, "duration": 150, "velocity": 100}, {"time": 39120, "pitch": 58, "duration": 150, "velocity": 90}, {"time": 39130, "pitch": 63, "duration": 150, "velocity": 90}, {"time": 39130, "pitch": 67, "duration": 150, "velocity": 100}, {"time": 39360, "pitch": 51, "duration": 150, "velocity": 100}, {"time": 39360, "pitch": 58, "duration": 150, "velocity": 90}, {"time": 39370, "pitch": 61, "duration": 150, "velocity": 90}, {"time": 39370, "pitch": 67, "duration": 150, "velocity": 100}, {"time": 39600, "pitch": 51, "duration": 150, "velocity": 100}, {"time": 39600, "pitch": 58, "duration": 150, "velocity": 90}, {"time": 39610, "pitch": 61, "duration": 150, "velocity": 90}, {"time": 39610, "pitch": 67, "duration": 150, "velocity": 100}, {"time": 39840, "pitch": 56, "duration": 150, "velocity": 100}, {"time": 39840, "pitch": 60, "duration": 150, "velocity": 90}, {"time": 39850, "pitch": 63, "duration": 150, "velocity": 90}, {"time": 39850, "pitch": 68, "duration": 150, "velocity": 100}, {"time": 40080, "pitch": 56, "duration": 150, "velocity": 100}, {"time": 40080, "pitch": 60, "duration": 150, "velocity": 90}, {"time": 40090, "pitch": 63, "duration": 150, "velocity": 90}, {"time": 40090, "pitch": 68, "duration": 150, "velocity": 100}, {"time": 40320, "pitch": 56, "duration": 150, "velocity": 100}, {"time": 40320, "pitch": 60, "duration": 150, "velocity": 90}, {"time": 40330, "pitch": 63, "duration": 150, "velocity": 90}, {"time": 40330, "pitch": 68, "duration": 150, "velocity": 100}, {"time": 40560, "pitch": 55, "duration": 150, "velocity": 100}, {"time": 40560, "pitch": 58, "duration": 150, "velocity": 90}, {"time": 40570, "pitch": 63, "duration": 150, "velocity": 90}, {"time": 40570, "pitch": 67, "duration": 150, "velocity": 100}, {"time": 40800, "pitch": 56, "duration": 150, "velocity": 100}, {"time": 40800, "pitch": 60, "duration": 150, "velocity": 90}, {"time": 40810, "pitch": 63, "duration": 150, "velocity": 90}, {"time": 40810, "pitch": 68, "duration": 150, "velocity": 100}, {"time": 41040, "pitch": 56, "duration": 150, "velocity": 100}, {"time": 41040, "pitch": 60, "duration": 150, "velocity": 90}, {"time": 41050, "pitch": 63, "duration": 150, "velocity": 90}, {"time": 41050, "pitch": 68, "duration": 150, "velocity": 100}, {"time": 41280, "pitch": 53, "duration": 150, "velocity": 100}, {"time": 41280, "pitch": 58, "duration": 150, "velocity": 90}, {"time": 41290, "pitch": 63, "duration": 150, "velocity": 90}, {"time": 41290, "pitch": 68, "duration": 150, "velocity": 100}, {"time": 41520, "pitch": 53, "duration": 150, "velocity": 100}, {"time": 41520, "pitch": 58, "duration": 150, "velocity": 90}, {"time": 41530, "pitch": 63, "duration": 150, "velocity": 90}, {"time": 41530, "pitch": 68, "duration": 150, "velocity": 100}, {"time": 41760, "pitch": 55, "duration": 150, "velocity": 100}, {"time": 41760, "pitch": 58, "duration": 150, "velocity": 90}, {"time": 41770, "pitch": 63, "duration": 150, "velocity": 90}, {"time": 41770, "pitch": 67, "duration": 150, "velocity": 100}, {"time": 42000, "pitch": 55, "duration": 150, "velocity": 100}, {"time": 42000, "pitch": 58, "duration": 150, "velocity": 90}, {"time": 42010, "pitch": 63, "duration": 150, "velocity": 90}, {"time": 42010, "pitch": 67, "duration": 150, "velocity": 100}, {"time": 42240, "pitch": 55, "duration": 150, "velocity": 100}, {"time": 42240, "pitch": 58, "duration": 150, "velocity": 90}, {"time": 42250, "pitch": 63, "duration": 150, "velocity": 90}, {"time": 42250, "pitch": 67, "duration": 150, "velocity": 100}, {"time": 42480, "pitch": 55, "duration": 150, "velocity": 100}, {"time": 42480, "pitch": 58, "duration": 150, "velocity": 90}, {"time": 42490, "pitch": 63, "duration": 150, "velocity": 90}, {"time": 42490, "pitch": 67, "duration": 150, "velocity": 100}, {"time": 42720, "pitch": 54, "duration": 10, "velocity": 80}, {"time": 42720, "pitch": 59, "duration": 10, "velocity": 70}, {"time": 42720, "pitch": 63, "duration": 10, "velocity": 70}, {"time": 42720, "pitch": 66, "duration": 10, "velocity": 80}, {"time": 42800, "pitch": 54, "duration": 80, "velocity": 110}, {"time": 42800, "pitch": 59, "duration": 80, "velocity": 100}, {"time": 42800, "pitch": 63, "duration": 80, "velocity": 100}, {"time": 42800, "pitch": 66, "duration": 80, "velocity": 110}, {"time": 42960, "pitch": 54, "duration": 220, "velocity": 100}, {"time": 42960, "pitch": 59, "duration": 220, "velocity": 90}, {"time": 42970, "pitch": 63, "duration": 220, "velocity": 90}, {"time": 42970, "pitch": 66, "duration": 220, "velocity": 100}, {"time": 43200, "pitch": 53, "duration": 10, "velocity": 80}, {"time": 43200, "pitch": 56, "duration": 10, "velocity": 70}, {"time": 43200, "pitch": 61, "duration": 10, "velocity": 70}, {"time": 43200, "pitch": 65, "duration": 10, "velocity": 80}, {"time": 43280, "pitch": 53, "duration": 80, "velocity": 110}, {"time": 43280, "pitch": 56, "duration": 80, "velocity": 100}, {"time": 43280, "pitch": 61, "duration": 80, "velocity": 100}, {"time": 43280, "pitch": 65, "duration": 80, "velocity": 110}, {"time": 43440, "pitch": 53, "duration": 220, "velocity": 100}, {"time": 43440, "pitch": 56, "duration": 220, "velocity": 90}, {"time": 43450, "pitch": 61, "duration": 220, "velocity": 90}, {"time": 43450, "pitch": 65, "duration": 220, "velocity": 100}, {"time": 43680, "pitch": 55, "duration": 220, "velocity": 100}, {"time": 43680, "pitch": 58, "duration": 220, "velocity": 90}, {"time": 43690, "pitch": 63, "duration": 220, "velocity": 90}, {"time": 43690, "pitch": 67, "duration": 220, "velocity": 100}, {"time": 43920, "pitch": 55, "duration": 80, "velocity": 110}, {"time": 43920, "pitch": 58, "duration": 80, "velocity": 100}, {"time": 43920, "pitch": 63, "duration": 80, "velocity": 100}, {"time": 43920, "pitch": 67, "duration": 80, "velocity": 110}, {"time": 44080, "pitch": 55, "duration": 10, "velocity": 80}, {"time": 44080, "pitch": 58, "duration": 10, "velocity": 70}, {"time": 44080, "pitch": 63, "duration": 10, "velocity": 70}, {"time": 44080, "pitch": 67, "duration": 10, "velocity": 80}, {"time": 44160, "pitch": 55, "duration": 220, "velocity": 100}, {"time": 44160, "pitch": 58, "duration": 220, "velocity": 90}, {"time": 44170, "pitch": 63, "duration": 220, "velocity": 90}, {"time": 44170, "pitch": 67, "duration": 220, "velocity": 100}, {"time": 44400, "pitch": 55, "duration": 80, "velocity": 110}, {"time": 44400, "pitch": 58, "duration": 80, "velocity": 100}, {"time": 44400, "pitch": 63, "duration": 80, "velocity": 100}, {"time": 44400, "pitch": 67, "duration": 80, "velocity": 110}, {"time": 44560, "pitch": 55, "duration": 10, "velocity": 80}, {"time": 44560, "pitch": 58, "duration": 10, "velocity": 70}, {"time": 44560, "pitch": 63, "duration": 10, "velocity": 70}, {"time": 44560, "pitch": 67, "duration": 10, "velocity": 80}, {"time": 44640, "pitch": 53, "duration": 220, "velocity": 100}, {"time": 44640, "pitch": 58, "duration": 220, "velocity": 90}, {"time": 44650, "pitch": 62, "duration": 220, "velocity": 90}, {"time": 44650, "pitch": 65, "duration": 220, "velocity": 100}, {"time": 44880, "pitch": 53, "duration": 80, "velocity": 110}, {"time": 44880, "pitch": 58, "duration": 80, "velocity": 100}, {"time": 44880, "pitch": 62, "duration": 80, "velocity": 100}, {"time": 44880, "pitch": 65, "duration": 80, "velocity": 110}, {"time": 45040, "pitch": 53, "duration": 10, "velocity": 80}, {"time": 45040, "pitch": 58, "duration": 10, "velocity": 70}, {"time": 45040, "pitch": 62, "duration": 10, "velocity": 70}, {"time": 45040, "pitch": 65, "duration": 10, "velocity": 80}, {"time": 45120, "pitch": 53, "duration": 220, "velocity": 100}, {"time": 45120, "pitch": 58, "duration": 220, "velocity": 90}, {"time": 45130, "pitch": 62, "duration": 220, "velocity": 90}, {"time": 45130, "pitch": 65, "duration": 220, "velocity": 100}, {"time": 45360, "pitch": 53, "duration": 80, "velocity": 110}, {"time": 45360, "pitch": 58, "duration": 80, "velocity": 100}, {"time": 45360, "pitch": 62, "duration": 80, "velocity": 100}, {"time": 45360, "pitch": 65, "duration": 80, "velocity": 110}, {"time": 45520, "pitch": 53, "duration": 10, "velocity": 80}, {"time": 45520, "pitch": 58, "duration": 10, "velocity": 70}, {"time": 45520, "pitch": 62, "duration": 10, "velocity": 70}, {"time": 45520, "pitch": 65, "duration": 10, "velocity": 80}, {"time": 45600, "pitch": 55, "duration": 220, "velocity": 100}, {"time": 45600, "pitch": 60, "duration": 220, "velocity": 90}, {"time": 45610, "pitch": 63, "duration": 220, "velocity": 90}, {"time": 45610, "pitch": 67, "duration": 220, "velocity": 100}, {"time": 45840, "pitch": 55, "duration": 80, "velocity": 110}, {"time": 45840, "pitch": 60, "duration": 80, "velocity": 100}, {"time": 45840, "pitch": 63, "duration": 80, "velocity": 100}, {"time": 45840, "pitch": 67, "duration": 80, "velocity": 110}, {"time": 46000, "pitch": 55, "duration": 10, "velocity": 80}, {"time": 46000, "pitch": 60, "duration": 10, "velocity": 70}, {"time": 46000, "pitch": 63, "duration": 10, "velocity": 70}, {"time": 46000, "pitch": 67, "duration": 10, "velocity": 80}, {"time": 46080, "pitch": 55, "duration": 220, "velocity": 100}, {"time": 46080, "pitch": 60, "duration": 220, "velocity": 90}, {"time": 46090, "pitch": 63, "duration": 220, "velocity": 90}, {"time": 46090, "pitch": 67, "duration": 220, "velocity": 100}, {"time": 46320, "pitch": 55, "duration": 80, "velocity": 110}, {"time": 46320, "pitch": 60, "duration": 80, "velocity": 100}, {"time": 46320, "pitch": 63, "duration": 80, "velocity": 100}, {"time": 46320, "pitch": 67, "duration": 80, "velocity": 110}, {"time": 46480, "pitch": 55, "duration": 10, "velocity": 80}, {"time": 46480, "pitch": 60, "duration": 10, "velocity": 70}, {"time": 46480, "pitch": 63, "duration": 10, "velocity": 70}, {"time": 46480, "pitch": 67, "duration": 10, "velocity": 80}, {"time": 46560, "pitch": 53, "duration": 220, "velocity": 100}, {"time": 46560, "pitch": 58, "duration": 220, "velocity": 90}, {"time": 46570, "pitch": 62, "duration": 220, "velocity": 90}, {"time": 46570, "pitch": 67, "duration": 220, "velocity": 100}, {"time": 46800, "pitch": 53, "duration": 80, "velocity": 110}, {"time": 46800, "pitch": 58, "duration": 80, "velocity": 100}, {"time": 46800, "pitch": 62, "duration": 80, "velocity": 100}, {"time": 46800, "pitch": 67, "duration": 80, "velocity": 110}, {"time": 46960, "pitch": 53, "duration": 10, "velocity": 80}, {"time": 46960, "pitch": 58, "duration": 10, "velocity": 70}, {"time": 46960, "pitch": 62, "duration": 10, "velocity": 70}, {"time": 46960, "pitch": 67, "duration": 10, "velocity": 80}, {"time": 47040, "pitch": 53, "duration": 220, "velocity": 100}, {"time": 47040, "pitch": 58, "duration": 220, "velocity": 90}, {"time": 47050, "pitch": 62, "duration": 220, "velocity": 90}, {"time": 47050, "pitch": 67, "duration": 220, "velocity": 100}, {"time": 47280, "pitch": 53, "duration": 80, "velocity": 110}, {"time": 47280, "pitch": 58, "duration": 80, "velocity": 100}, {"time": 47280, "pitch": 62, "duration": 80, "velocity": 100}, {"time": 47280, "pitch": 67, "duration": 80, "velocity": 110}, {"time": 47440, "pitch": 53, "duration": 10, "velocity": 80}, {"time": 47440, "pitch": 58, "duration": 10, "velocity": 70}, {"time": 47440, "pitch": 62, "duration": 10, "velocity": 70}, {"time": 47440, "pitch": 67, "duration": 10, "velocity": 80}, {"time": 47520, "pitch": 56, "duration": 220, "velocity": 100}, {"time": 47520, "pitch": 60, "duration": 220, "velocity": 90}, {"time": 47530, "pitch": 63, "duration": 220, "velocity": 90}, {"time": 47530, "pitch": 68, "duration": 220, "velocity": 100}, {"time": 47760, "pitch": 56, "duration": 80, "velocity": 110}, {"time": 47760, "pitch": 60, "duration": 80, "velocity": 100}, {"time": 47760, "pitch": 63, "duration": 80, "velocity": 100}, {"time": 47760, "pitch": 68, "duration": 80, "velocity": 110}, {"time": 47920, "pitch": 56, "duration": 10, "velocity": 80}, {"time": 47920, "pitch": 60, "duration": 10, "velocity": 70}, {"time": 47920, "pitch": 63, "duration": 10, "velocity": 70}, {"time": 47920, "pitch": 68, "duration": 10, "velocity": 80}, {"time": 48000, "pitch": 56, "duration": 220, "velocity": 100}, {"time": 48000, "pitch": 60, "duration": 220, "velocity": 90}, {"time": 48010, "pitch": 63, "duration": 220, "velocity": 90}, {"time": 48010, "pitch": 68, "duration": 220, "velocity": 100}, {"time": 48240, "pitch": 56, "duration": 80, "velocity": 110}, {"time": 48240, "pitch": 60, "duration": 80, "velocity": 100}, {"time": 48240, "pitch": 63, "duration": 80, "velocity": 100}, {"time": 48240, "pitch": 68, "duration": 80, "velocity": 110}, {"time": 48400, "pitch": 56, "duration": 10, "velocity": 80}, {"time": 48400, "pitch": 60, "duration": 10, "velocity": 70}, {"time": 48400, "pitch": 63, "duration": 10, "velocity": 70}, {"time": 48400, "pitch": 68, "duration": 10, "velocity": 80}, {"time": 48480, "pitch": 55, "duration": 220, "velocity": 100}, {"time": 48480, "pitch": 58, "duration": 220, "velocity": 90}, {"time": 48490, "pitch": 63, "duration": 220, "velocity": 90}, {"time": 48490, "pitch": 67, "duration": 220, "velocity": 100}, {"time": 48720, "pitch": 55, "duration": 80, "velocity": 110}, {"time": 48720, "pitch": 58, "duration": 80, "velocity": 100}, {"time": 48720, "pitch": 63, "duration": 80, "velocity": 100}, {"time": 48720, "pitch": 67, "duration": 80, "velocity": 110}, {"time": 48880, "pitch": 55, "duration": 10, "velocity": 80}, {"time": 48880, "pitch": 58, "duration": 10, "velocity": 70}, {"time": 48880, "pitch": 63, "duration": 10, "velocity": 70}, {"time": 48880, "pitch": 67, "duration": 10, "velocity": 80}, {"time": 48960, "pitch": 55, "duration": 220, "velocity": 100}, {"time": 48960, "pitch": 58, "duration": 220, "velocity": 90}, {"time": 48970, "pitch": 63, "duration": 220, "velocity": 90}, {"time": 48970, "pitch": 67, "duration": 220, "velocity": 100}, {"time": 49200, "pitch": 55, "duration": 80, "velocity": 110}, {"time": 49200, "pitch": 58, "duration": 80, "velocity": 100}, {"time": 49200, "pitch": 63, "duration": 80, "velocity": 100}, {"time": 49200, "pitch": 67, "duration": 80, "velocity": 110}, {"time": 49360, "pitch": 55, "duration": 10, "velocity": 80}, {"time": 49360, "pitch": 58, "duration": 10, "velocity": 70}, {"time": 49360, "pitch": 63, "duration": 10, "velocity": 70}, {"time": 49360, "pitch": 67, "duration": 10, "velocity": 80}, {"time": 49440, "pitch": 56, "duration": 220, "velocity": 100}, {"time": 49440, "pitch": 60, "duration": 220, "velocity": 90}, {"time": 49450, "pitch": 63, "duration": 220, "velocity": 90}, {"time": 49450, "pitch": 68, "duration": 220, "velocity": 100}, {"time": 49680, "pitch": 56, "duration": 80, "velocity": 110}, {"time": 49680, "pitch": 60, "duration": 80, "velocity": 100}, {"time": 49680, "pitch": 63, "duration": 80, "velocity": 100}, {"time": 49680, "pitch": 68, "duration": 80, "velocity": 110}, {"time": 49840, "pitch": 56, "duration": 10, "velocity": 80}, {"time": 49840, "pitch": 60, "duration": 10, "velocity": 70}, {"time": 49840, "pitch": 63, "duration": 10, "velocity": 70}, {"time": 49840, "pitch": 68, "duration": 10, "velocity": 80}, {"time": 49920, "pitch": 56, "duration": 220, "velocity": 100}, {"time": 49920, "pitch": 60, "duration": 220, "velocity": 90}, {"time": 49930, "pitch": 63, "duration": 220, "velocity": 90}, {"time": 49930, "pitch": 68, "duration": 220, "velocity": 100}, {"time": 50160, "pitch": 56, "duration": 80, "velocity": 110}, {"time": 50160, "pitch": 60, "duration": 80, "velocity": 100}, {"time": 50160, "pitch": 63, "duration": 80, "velocity": 100}, {"time": 50160, "pitch": 68, "duration": 80, "velocity": 110}, {"time": 50320, "pitch": 56, "duration": 10, "velocity": 80}, {"time": 50320, "pitch": 60, "duration": 10, "velocity": 70}, {"time": 50320, "pitch": 63, "duration": 10, "velocity": 70}, {"time": 50320, "pitch": 68, "duration": 10, "velocity": 80}, {"time": 50400, "pitch": 54, "duration": 10, "velocity": 80}, {"time": 50400, "pitch": 59, "duration": 10, "velocity": 70}, {"time": 50400, "pitch": 63, "duration": 10, "velocity": 70}, {"time": 50400, "pitch": 66, "duration": 10, "velocity": 80}, {"time": 50480, "pitch": 54, "duration": 80, "velocity": 110}, {"time": 50480, "pitch": 59, "duration": 80, "velocity": 100}, {"time": 50480, "pitch": 63, "duration": 80, "velocity": 100}, {"time": 50480, "pitch": 66, "duration": 80, "velocity": 110}, {"time": 50640, "pitch": 54, "duration": 220, "velocity": 100}, {"time": 50640, "pitch": 59, "duration": 220, "velocity": 90}, {"time": 50650, "pitch": 63, "duration": 220, "velocity": 90}, {"time": 50650, "pitch": 66, "duration": 220, "velocity": 100}, {"time": 50880, "pitch": 53, "duration": 10, "velocity": 80}, {"time": 50880, "pitch": 56, "duration": 10, "velocity": 70}, {"time": 50880, "pitch": 61, "duration": 10, "velocity": 70}, {"time": 50880, "pitch": 65, "duration": 10, "velocity": 80}, {"time": 50960, "pitch": 53, "duration": 80, "velocity": 110}, {"time": 50960, "pitch": 56, "duration": 80, "velocity": 100}, {"time": 50960, "pitch": 61, "duration": 80, "velocity": 100}, {"time": 50960, "pitch": 65, "duration": 80, "velocity": 110}, {"time": 51120, "pitch": 53, "duration": 220, "velocity": 100}, {"time": 51120, "pitch": 56, "duration": 220, "velocity": 90}, {"time": 51130, "pitch": 61, "duration": 220, "velocity": 90}, {"time": 51130, "pitch": 65, "duration": 220, "velocity": 100}, {"time": 51360, "pitch": 55, "duration": 220, "velocity": 100}, {"time": 51360, "pitch": 58, "duration": 220, "velocity": 90}, {"time": 51370, "pitch": 63, "duration": 220, "velocity": 90}, {"time": 51370, "pitch": 67, "duration": 220, "velocity": 100}, {"time": 51600, "pitch": 55, "duration": 80, "velocity": 110}, {"time": 51600, "pitch": 58, "duration": 80, "velocity": 100}, {"time": 51600, "pitch": 63, "duration": 80, "velocity": 100}, {"time": 51600, "pitch": 67, "duration": 80, "velocity": 110}, {"time": 51760, "pitch": 55, "duration": 10, "velocity": 80}, {"time": 51760, "pitch": 58, "duration": 10, "velocity": 70}, {"time": 51760, "pitch": 63, "duration": 10, "velocity": 70}, {"time": 51760, "pitch": 67, "duration": 10, "velocity": 80}, {"time": 51840, "pitch": 55, "duration": 220, "velocity": 100}, {"time": 51840, "pitch": 58, "duration": 220, "velocity": 90}, {"time": 51850, "pitch": 63, "duration": 220, "velocity": 90}, {"time": 51850, "pitch": 67, "duration": 220, "velocity": 100}, {"time": 52080, "pitch": 55, "duration": 80, "velocity": 110}, {"time": 52080, "pitch": 58, "duration": 80, "velocity": 100}, {"time": 52080, "pitch": 63, "duration": 80, "velocity": 100}, {"time": 52080, "pitch": 67, "duration": 80, "velocity": 110}, {"time": 52240, "pitch": 55, "duration": 10, "velocity": 80}, {"time": 52240, "pitch": 58, "duration": 10, "velocity": 70}, {"time": 52240, "pitch": 63, "duration": 10, "velocity": 70}, {"time": 52240, "pitch": 67, "duration": 10, "velocity": 80}, {"time": 52320, "pitch": 53, "duration": 220, "velocity": 100}, {"time": 52320, "pitch": 58, "duration": 220, "velocity": 90}, {"time": 52330, "pitch": 62, "duration": 220, "velocity": 90}, {"time": 52330, "pitch": 65, "duration": 220, "velocity": 100}, {"time": 52560, "pitch": 53, "duration": 80, "velocity": 110}, {"time": 52560, "pitch": 58, "duration": 80, "velocity": 100}, {"time": 52560, "pitch": 62, "duration": 80, "velocity": 100}, {"time": 52560, "pitch": 65, "duration": 80, "velocity": 110}, {"time": 52720, "pitch": 53, "duration": 10, "velocity": 80}, {"time": 52720, "pitch": 58, "duration": 10, "velocity": 70}, {"time": 52720, "pitch": 62, "duration": 10, "velocity": 70}, {"time": 52720, "pitch": 65, "duration": 10, "velocity": 80}, {"time": 52800, "pitch": 53, "duration": 220, "velocity": 100}, {"time": 52800, "pitch": 58, "duration": 220, "velocity": 90}, {"time": 52810, "pitch": 62, "duration": 220, "velocity": 90}, {"time": 52810, "pitch": 65, "duration": 220, "velocity": 100}, {"time": 53040, "pitch": 53, "duration": 80, "velocity": 110}, {"time": 53040, "pitch": 58, "duration": 80, "velocity": 100}, {"time": 53040, "pitch": 62, "duration": 80, "velocity": 100}, {"time": 53040, "pitch": 65, "duration": 80, "velocity": 110}, {"time": 53200, "pitch": 53, "duration": 10, "velocity": 80}, {"time": 53200, "pitch": 58, "duration": 10, "velocity": 70}, {"time": 53200, "pitch": 62, "duration": 10, "velocity": 70}, {"time": 53200, "pitch": 65, "duration": 10, "velocity": 80}, {"time": 53280, "pitch": 55, "duration": 220, "velocity": 100}, {"time": 53280, "pitch": 60, "duration": 220, "velocity": 90}, {"time": 53290, "pitch": 63, "duration": 220, "velocity": 90}, {"time": 53290, "pitch": 67, "duration": 220, "velocity": 100}, {"time": 53520, "pitch": 55, "duration": 80, "velocity": 110}, {"time": 53520, "pitch": 60, "duration": 80, "velocity": 100}, {"time": 53520, "pitch": 63, "duration": 80, "velocity": 100}, {"time": 53520, "pitch": 67, "duration": 80, "velocity": 110}, {"time": 53680, "pitch": 55, "duration": 10, "velocity": 80}, {"time": 53680, "pitch": 60, "duration": 10, "velocity": 70}, {"time": 53680, "pitch": 63, "duration": 10, "velocity": 70}, {"time": 53680, "pitch": 67, "duration": 10, "velocity": 80}, {"time": 53760, "pitch": 55, "duration": 220, "velocity": 100}, {"time": 53760, "pitch": 60, "duration": 220, "velocity": 90}, {"time": 53770, "pitch": 63, "duration": 220, "velocity": 90}, {"time": 53770, "pitch": 67, "duration": 220, "velocity": 100}, {"time": 54000, "pitch": 55, "duration": 80, "velocity": 110}, {"time": 54000, "pitch": 60, "duration": 80, "velocity": 100}, {"time": 54000, "pitch": 63, "duration": 80, "velocity": 100}, {"time": 54000, "pitch": 67, "duration": 80, "velocity": 110}, {"time": 54160, "pitch": 55, "duration": 10, "velocity": 80}, {"time": 54160, "pitch": 60, "duration": 10, "velocity": 70}, {"time": 54160, "pitch": 63, "duration": 10, "velocity": 70}, {"time": 54160, "pitch": 67, "duration": 10, "velocity": 80}, {"time": 54240, "pitch": 53, "duration": 220, "velocity": 100}, {"time": 54240, "pitch": 58, "duration": 220, "velocity": 90}, {"time": 54250, "pitch": 62, "duration": 220, "velocity": 90}, {"time": 54250, "pitch": 67, "duration": 220, "velocity": 100}, {"time": 54480, "pitch": 53, "duration": 80, "velocity": 110}, {"time": 54480, "pitch": 58, "duration": 80, "velocity": 100}, {"time": 54480, "pitch": 62, "duration": 80, "velocity": 100}, {"time": 54480, "pitch": 67, "duration": 80, "velocity": 110}, {"time": 54640, "pitch": 53, "duration": 10, "velocity": 80}, {"time": 54640, "pitch": 58, "duration": 10, "velocity": 70}, {"time": 54640, "pitch": 62, "duration": 10, "velocity": 70}, {"time": 54640, "pitch": 67, "duration": 10, "velocity": 80}, {"time": 54720, "pitch": 53, "duration": 220, "velocity": 100}, {"time": 54720, "pitch": 58, "duration": 220, "velocity": 90}, {"time": 54730, "pitch": 62, "duration": 220, "velocity": 90}, {"time": 54730, "pitch": 67, "duration": 220, "velocity": 100}, {"time": 54960, "pitch": 53, "duration": 80, "velocity": 110}, {"time": 54960, "pitch": 58, "duration": 80, "velocity": 100}, {"time": 54960, "pitch": 62, "duration": 80, "velocity": 100}, {"time": 54960, "pitch": 67, "duration": 80, "velocity": 110}, {"time": 55120, "pitch": 53, "duration": 10, "velocity": 80}, {"time": 55120, "pitch": 58, "duration": 10, "velocity": 70}, {"time": 55120, "pitch": 62, "duration": 10, "velocity": 70}, {"time": 55120, "pitch": 67, "duration": 10, "velocity": 80}, {"time": 55200, "pitch": 56, "duration": 220, "velocity": 100}, {"time": 55200, "pitch": 60, "duration": 220, "velocity": 90}, {"time": 55210, "pitch": 63, "duration": 220, "velocity": 90}, {"time": 55210, "pitch": 68, "duration": 220, "velocity": 100}, {"time": 55440, "pitch": 56, "duration": 80, "velocity": 110}, {"time": 55440, "pitch": 60, "duration": 80, "velocity": 100}, {"time": 55440, "pitch": 63, "duration": 80, "velocity": 100}, {"time": 55440, "pitch": 68, "duration": 80, "velocity": 110}, {"time": 55600, "pitch": 56, "duration": 10, "velocity": 80}, {"time": 55600, "pitch": 60, "duration": 10, "velocity": 70}, {"time": 55600, "pitch": 63, "duration": 10, "velocity": 70}, {"time": 55600, "pitch": 68, "duration": 10, "velocity": 80}, {"time": 55680, "pitch": 56, "duration": 220, "velocity": 100}, {"time": 55680, "pitch": 60, "duration": 220, "velocity": 90}, {"time": 55690, "pitch": 63, "duration": 220, "velocity": 90}, {"time": 55690, "pitch": 68, "duration": 220, "velocity": 100}, {"time": 55920, "pitch": 56, "duration": 80, "velocity": 110}, {"time": 55920, "pitch": 60, "duration": 80, "velocity": 100}, {"time": 55920, "pitch": 63, "duration": 80, "velocity": 100}, {"time": 55920, "pitch": 68, "duration": 80, "velocity": 110}, {"time": 56080, "pitch": 56, "duration": 10, "velocity": 80}, {"time": 56080, "pitch": 60, "duration": 10, "velocity": 70}, {"time": 56080, "pitch": 63, "duration": 10, "velocity": 70}, {"time": 56080, "pitch": 68, "duration": 10, "velocity": 80}, {"time": 56160, "pitch": 55, "duration": 220, "velocity": 100}, {"time": 56160, "pitch": 58, "duration": 220, "velocity": 90}, {"time": 56170, "pitch": 63, "duration": 220, "velocity": 90}, {"time": 56170, "pitch": 67, "duration": 220, "velocity": 100}, {"time": 56400, "pitch": 55, "duration": 80, "velocity": 110}, {"time": 56400, "pitch": 58, "duration": 80, "velocity": 100}, {"time": 56400, "pitch": 63, "duration": 80, "velocity": 100}, {"time": 56400, "pitch": 67, "duration": 80, "velocity": 110}, {"time": 56560, "pitch": 55, "duration": 10, "velocity": 80}, {"time": 56560, "pitch": 58, "duration": 10, "velocity": 70}, {"time": 56560, "pitch": 63, "duration": 10, "velocity": 70}, {"time": 56560, "pitch": 67, "duration": 10, "velocity": 80}, {"time": 56640, "pitch": 55, "duration": 220, "velocity": 100}, {"time": 56640, "pitch": 58, "duration": 220, "velocity": 90}, {"time": 56650, "pitch": 63, "duration": 220, "velocity": 90}, {"time": 56650, "pitch": 67, "duration": 220, "velocity": 100}, {"time": 56880, "pitch": 55, "duration": 80, "velocity": 110}, {"time": 56880, "pitch": 58, "duration": 80, "velocity": 100}, {"time": 56880, "pitch": 63, "duration": 80, "velocity": 100}, {"time": 56880, "pitch": 67, "duration": 80, "velocity": 110}, {"time": 57040, "pitch": 55, "duration": 10, "velocity": 80}, {"time": 57040, "pitch": 58, "duration": 10, "velocity": 70}, {"time": 57040, "pitch": 63, "duration": 10, "velocity": 70}, {"time": 57040, "pitch": 67, "duration": 10, "velocity": 80}, {"time": 57120, "pitch": 56, "duration": 220, "velocity": 100}, {"time": 57120, "pitch": 60, "duration": 220, "velocity": 90}, {"time": 57130, "pitch": 63, "duration": 220, "velocity": 90}, {"time": 57130, "pitch": 68, "duration": 220, "velocity": 100}, {"time": 57360, "pitch": 56, "duration": 80, "velocity": 110}, {"time": 57360, "pitch": 60, "duration": 80, "velocity": 100}, {"time": 57360, "pitch": 63, "duration": 80, "velocity": 100}, {"time": 57360, "pitch": 68, "duration": 80, "velocity": 110}, {"time": 57520, "pitch": 56, "duration": 10, "velocity": 80}, {"time": 57520, "pitch": 60, "duration": 10, "velocity": 70}, {"time": 57520, "pitch": 63, "duration": 10, "velocity": 70}, {"time": 57520, "pitch": 68, "duration": 10, "velocity": 80}, {"time": 57600, "pitch": 56, "duration": 220, "velocity": 100}, {"time": 57600, "pitch": 60, "duration": 220, "velocity": 90}, {"time": 57610, "pitch": 63, "duration": 220, "velocity": 90}, {"time": 57610, "pitch": 68, "duration": 220, "velocity": 100}, {"time": 57840, "pitch": 56, "duration": 80, "velocity": 110}, {"time": 57840, "pitch": 60, "duration": 80, "velocity": 100}, {"time": 57840, "pitch": 63, "duration": 80, "velocity": 100}, {"time": 57840, "pitch": 68, "duration": 80, "velocity": 110}, {"time": 58000, "pitch": 56, "duration": 10, "velocity": 80}, {"time": 58000, "pitch": 60, "duration": 10, "velocity": 70}, {"time": 58000, "pitch": 63, "duration": 10, "velocity": 70}, {"time": 58000, "pitch": 68, "duration": 10, "velocity": 80}, {"time": 58080, "pitch": 53, "duration": 220, "velocity": 110}, {"time": 58080, "pitch": 58, "duration": 220, "velocity": 100}, {"time": 58090, "pitch": 63, "duration": 220, "velocity": 100}, {"time": 58090, "pitch": 68, "duration": 220, "velocity": 110}, {"time": 58320, "pitch": 53, "duration": 80, "velocity": 110}, {"time": 58320, "pitch": 58, "duration": 80, "velocity": 100}, {"time": 58330, "pitch": 63, "duration": 80, "velocity": 100}, {"time": 58330, "pitch": 68, "duration": 80, "velocity": 110}, {"time": 59040, "pitch": 56, "duration": 220, "velocity": 100}, {"time": 59040, "pitch": 60, "duration": 220, "velocity": 90}, {"time": 59050, "pitch": 63, "duration": 220, "velocity": 90}, {"time": 59050, "pitch": 68, "duration": 220, "velocity": 100}, {"time": 59280, "pitch": 56, "duration": 80, "velocity": 110}, {"time": 59280, "pitch": 60, "duration": 80, "velocity": 100}, {"time": 59280, "pitch": 63, "duration": 80, "velocity": 100}, {"time": 59280, "pitch": 68, "duration": 80, "velocity": 110}, {"time": 59440, "pitch": 56, "duration": 10, "velocity": 80}, {"time": 59440, "pitch": 60, "duration": 10, "velocity": 70}, {"time": 59440, "pitch": 63, "duration": 10, "velocity": 70}, {"time": 59440, "pitch": 68, "duration": 10, "velocity": 80}, {"time": 59520, "pitch": 56, "duration": 220, "velocity": 100}, {"time": 59520, "pitch": 60, "duration": 220, "velocity": 90}, {"time": 59530, "pitch": 63, "duration": 220, "velocity": 90}, {"time": 59530, "pitch": 68, "duration": 220, "velocity": 100}, {"time": 59760, "pitch": 56, "duration": 80, "velocity": 110}, {"time": 59760, "pitch": 60, "duration": 80, "velocity": 100}, {"time": 59760, "pitch": 63, "duration": 80, "velocity": 100}, {"time": 59760, "pitch": 68, "duration": 80, "velocity": 110}, {"time": 59920, "pitch": 56, "duration": 10, "velocity": 80}, {"time": 59920, "pitch": 60, "duration": 10, "velocity": 70}, {"time": 59920, "pitch": 63, "duration": 10, "velocity": 70}, {"time": 59920, "pitch": 68, "duration": 10, "velocity": 80}, {"time": 60000, "pitch": 55, "duration": 220, "velocity": 100}, {"time": 60000, "pitch": 58, "duration": 220, "velocity": 90}, {"time": 60010, "pitch": 63, "duration": 220, "velocity": 90}, {"time": 60010, "pitch": 70, "duration": 220, "velocity": 100}, {"time": 60240, "pitch": 55, "duration": 80, "velocity": 110}, {"time": 60240, "pitch": 58, "duration": 80, "velocity": 100}, {"time": 60240, "pitch": 63, "duration": 80, "velocity": 100}, {"time": 60240, "pitch": 70, "duration": 80, "velocity": 110}, {"time": 60400, "pitch": 55, "duration": 10, "velocity": 80}, {"time": 60400, "pitch": 58, "duration": 10, "velocity": 70}, {"time": 60400, "pitch": 63, "duration": 10, "velocity": 70}, {"time": 60400, "pitch": 70, "duration": 10, "velocity": 80}, {"time": 60480, "pitch": 54, "duration": 220, "velocity": 100}, {"time": 60480, "pitch": 60, "duration": 220, "velocity": 90}, {"time": 60490, "pitch": 63, "duration": 220, "velocity": 90}, {"time": 60490, "pitch": 69, "duration": 220, "velocity": 100}, {"time": 60720, "pitch": 54, "duration": 80, "velocity": 110}, {"time": 60720, "pitch": 60, "duration": 80, "velocity": 100}, {"time": 60720, "pitch": 63, "duration": 80, "velocity": 100}, {"time": 60720, "pitch": 69, "duration": 80, "velocity": 110}, {"time": 60880, "pitch": 54, "duration": 10, "velocity": 80}, {"time": 60880, "pitch": 60, "duration": 10, "velocity": 70}, {"time": 60880, "pitch": 63, "duration": 10, "velocity": 70}, {"time": 60880, "pitch": 69, "duration": 10, "velocity": 80}, {"time": 60960, "pitch": 56, "duration": 450, "velocity": 100}, {"time": 60960, "pitch": 60, "duration": 450, "velocity": 90}, {"time": 60970, "pitch": 63, "duration": 450, "velocity": 90}, {"time": 60970, "pitch": 68, "duration": 450, "velocity": 100}, {"time": 61440, "pitch": 53, "duration": 10, "velocity": 80}, {"time": 61440, "pitch": 58, "duration": 10, "velocity": 70}, {"time": 61440, "pitch": 63, "duration": 10, "velocity": 70}, {"time": 61440, "pitch": 68, "duration": 10, "velocity": 80}, {"time": 61600, "pitch": 63, "duration": 310, "velocity": 100}, {"time": 61600, "pitch": 68, "duration": 310, "velocity": 110}, {"time": 61610, "pitch": 53, "duration": 310, "velocity": 110}, {"time": 61610, "pitch": 58, "duration": 310, "velocity": 100}, {"time": 61920, "pitch": 55, "duration": 150, "velocity": 100}, {"time": 61920, "pitch": 58, "duration": 150, "velocity": 90}, {"time": 61930, "pitch": 63, "duration": 150, "velocity": 90}, {"time": 61930, "pitch": 67, "duration": 150, "velocity": 100}, {"time": 62160, "pitch": 55, "duration": 150, "velocity": 100}, {"time": 62160, "pitch": 58, "duration": 150, "velocity": 90}, {"time": 62170, "pitch": 63, "duration": 150, "velocity": 90}, {"time": 62170, "pitch": 67, "duration": 150, "velocity": 100}, {"time": 62400, "pitch": 55, "duration": 150, "velocity": 100}, {"time": 62400, "pitch": 58, "duration": 150, "velocity": 90}, {"time": 62410, "pitch": 63, "duration": 150, "velocity": 90}, {"time": 62410, "pitch": 67, "duration": 150, "velocity": 100}, {"time": 62640, "pitch": 55, "duration": 150, "velocity": 100}, {"time": 62640, "pitch": 58, "duration": 150, "velocity": 90}, {"time": 62650, "pitch": 63, "duration": 150, "velocity": 90}, {"time": 62650, "pitch": 67, "duration": 150, "velocity": 100}, {"time": 62880, "pitch": 56, "duration": 150, "velocity": 100}, {"time": 62880, "pitch": 60, "duration": 150, "velocity": 90}, {"time": 62890, "pitch": 63, "duration": 150, "velocity": 90}, {"time": 62890, "pitch": 68, "duration": 150, "velocity": 100}, {"time": 63120, "pitch": 56, "duration": 150, "velocity": 100}, {"time": 63120, "pitch": 60, "duration": 150, "velocity": 90}, {"time": 63130, "pitch": 63, "duration": 150, "velocity": 90}, {"time": 63130, "pitch": 68, "duration": 150, "velocity": 100}, {"time": 63360, "pitch": 56, "duration": 150, "velocity": 100}, {"time": 63360, "pitch": 60, "duration": 150, "velocity": 90}, {"time": 63370, "pitch": 63, "duration": 150, "velocity": 90}, {"time": 63370, "pitch": 68, "duration": 150, "velocity": 100}, {"time": 63600, "pitch": 56, "duration": 150, "velocity": 100}, {"time": 63600, "pitch": 60, "duration": 150, "velocity": 90}, {"time": 63610, "pitch": 63, "duration": 150, "velocity": 90}, {"time": 63610, "pitch": 68, "duration": 150, "velocity": 100}, {"time": 63840, "pitch": 56, "duration": 150, "velocity": 100}, {"time": 63840, "pitch": 60, "duration": 150, "velocity": 90}, {"time": 63850, "pitch": 63, "duration": 150, "velocity": 90}, {"time": 63850, "pitch": 68, "duration": 150, "velocity": 100}, {"time": 64080, "pitch": 56, "duration": 150, "velocity": 100}, {"time": 64080, "pitch": 60, "duration": 150, "velocity": 90}, {"time": 64090, "pitch": 63, "duration": 150, "velocity": 90}, {"time": 64090, "pitch": 68, "duration": 150, "velocity": 100}, {"time": 64320, "pitch": 56, "duration": 150, "velocity": 100}, {"time": 64320, "pitch": 60, "duration": 150, "velocity": 90}, {"time": 64330, "pitch": 63, "duration": 150, "velocity": 90}, {"time": 64330, "pitch": 68, "duration": 150, "velocity": 100}, {"time": 64560, "pitch": 56, "duration": 150, "velocity": 100}, {"time": 64560, "pitch": 60, "duration": 150, "velocity": 90}, {"time": 64570, "pitch": 63, "duration": 150, "velocity": 90}, {"time": 64570, "pitch": 68, "duration": 150, "velocity": 100}, {"time": 64800, "pitch": 55, "duration": 150, "velocity": 100}, {"time": 64800, "pitch": 58, "duration": 150, "velocity": 90}, {"time": 64810, "pitch": 63, "duration": 150, "velocity": 90}, {"time": 64810, "pitch": 67, "duration": 150, "velocity": 100}, {"time": 65040, "pitch": 55, "duration": 150, "velocity": 100}, {"time": 65040, "pitch": 58, "duration": 150, "velocity": 90}, {"time": 65050, "pitch": 63, "duration": 150, "velocity": 90}, {"time": 65050, "pitch": 67, "duration": 150, "velocity": 100}, {"time": 65280, "pitch": 55, "duration": 150, "velocity": 100}, {"time": 65280, "pitch": 58, "duration": 150, "velocity": 90}, {"time": 65290, "pitch": 63, "duration": 150, "velocity": 90}, {"time": 65290, "pitch": 67, "duration": 150, "velocity": 100}, {"time": 65520, "pitch": 55, "duration": 150, "velocity": 100}, {"time": 65520, "pitch": 58, "duration": 150, "velocity": 90}, {"time": 65530, "pitch": 63, "duration": 150, "velocity": 90}, {"time": 65530, "pitch": 67, "duration": 150, "velocity": 100}, {"time": 65760, "pitch": 56, "duration": 150, "velocity": 100}, {"time": 65760, "pitch": 60, "duration": 150, "velocity": 90}, {"time": 65770, "pitch": 63, "duration": 150, "velocity": 90}, {"time": 65770, "pitch": 68, "duration": 150, "velocity": 100}, {"time": 66000, "pitch": 56, "duration": 150, "velocity": 100}, {"time": 66000, "pitch": 60, "duration": 150, "velocity": 90}, {"time": 66010, "pitch": 63, "duration": 150, "velocity": 90}, {"time": 66010, "pitch": 68, "duration": 150, "velocity": 100}, {"time": 66240, "pitch": 56, "duration": 150, "velocity": 100}, {"time": 66240, "pitch": 60, "duration": 150, "velocity": 90}, {"time": 66250, "pitch": 63, "duration": 150, "velocity": 90}, {"time": 66250, "pitch": 68, "duration": 150, "velocity": 100}, {"time": 66480, "pitch": 56, "duration": 150, "velocity": 100}, {"time": 66480, "pitch": 60, "duration": 150, "velocity": 90}, {"time": 66490, "pitch": 63, "duration": 150, "velocity": 90}, {"time": 66490, "pitch": 68, "duration": 150, "velocity": 100}, {"time": 66720, "pitch": 53, "duration": 150, "velocity": 100}, {"time": 66720, "pitch": 58, "duration": 150, "velocity": 90}, {"time": 66730, "pitch": 63, "duration": 150, "velocity": 90}, {"time": 66730, "pitch": 68, "duration": 150, "velocity": 100}, {"time": 66960, "pitch": 53, "duration": 150, "velocity": 100}, {"time": 66960, "pitch": 58, "duration": 150, "velocity": 90}, {"time": 66970, "pitch": 63, "duration": 150, "velocity": 90}, {"time": 66970, "pitch": 68, "duration": 150, "velocity": 100}, {"time": 67200, "pitch": 53, "duration": 150, "velocity": 100}, {"time": 67200, "pitch": 58, "duration": 150, "velocity": 90}, {"time": 67210, "pitch": 63, "duration": 150, "velocity": 90}, {"time": 67210, "pitch": 68, "duration": 150, "velocity": 100}, {"time": 67440, "pitch": 53, "duration": 150, "velocity": 100}, {"time": 67440, "pitch": 58, "duration": 150, "velocity": 90}, {"time": 67450, "pitch": 63, "duration": 150, "velocity": 90}, {"time": 67450, "pitch": 68, "duration": 150, "velocity": 100}, {"time": 67680, "pitch": 55, "duration": 150, "velocity": 100}, {"time": 67680, "pitch": 58, "duration": 150, "velocity": 90}, {"time": 67690, "pitch": 63, "duration": 150, "velocity": 90}, {"time": 67690, "pitch": 67, "duration": 150, "velocity": 100}, {"time": 67920, "pitch": 55, "duration": 150, "velocity": 100}, {"time": 67920, "pitch": 58, "duration": 150, "velocity": 90}, {"time": 67930, "pitch": 63, "duration": 150, "velocity": 90}, {"time": 67930, "pitch": 67, "duration": 150, "velocity": 100}, {"time": 68160, "pitch": 55, "duration": 150, "velocity": 100}, {"time": 68160, "pitch": 58, "duration": 150, "velocity": 90}, {"time": 68170, "pitch": 63, "duration": 150, "velocity": 90}, {"time": 68170, "pitch": 67, "duration": 150, "velocity": 100}, {"time": 68400, "pitch": 55, "duration": 150, "velocity": 100}, {"time": 68400, "pitch": 58, "duration": 150, "velocity": 90}, {"time": 68410, "pitch": 63, "duration": 150, "velocity": 90}, {"time": 68410, "pitch": 67, "duration": 150, "velocity": 100}, {"time": 68640, "pitch": 53, "duration": 10, "velocity": 80}, {"time": 68640, "pitch": 58, "duration": 10, "velocity": 70}, {"time": 68640, "pitch": 63, "duration": 10, "velocity": 70}, {"time": 68640, "pitch": 68, "duration": 10, "velocity": 80}, {"time": 68800, "pitch": 53, "duration": 10, "velocity": 80}, {"time": 68800, "pitch": 58, "duration": 10, "velocity": 70}, {"time": 68800, "pitch": 63, "duration": 10, "velocity": 70}, {"time": 68800, "pitch": 68, "duration": 10, "velocity": 80}, {"time": 68880, "pitch": 53, "duration": 80, "velocity": 110}, {"time": 68880, "pitch": 58, "duration": 80, "velocity": 100}, {"time": 68890, "pitch": 63, "duration": 80, "velocity": 100}, {"time": 68890, "pitch": 68, "duration": 80, "velocity": 110}, {"time": 69120, "pitch": 53, "duration": 10, "velocity": 80}, {"time": 69120, "pitch": 58, "duration": 10, "velocity": 70}, {"time": 69120, "pitch": 63, "duration": 10, "velocity": 70}, {"time": 69120, "pitch": 68, "duration": 10, "velocity": 80}, {"time": 69280, "pitch": 63, "duration": 310, "velocity": 100}, {"time": 69280, "pitch": 68, "duration": 310, "velocity": 110}, {"time": 69290, "pitch": 53, "duration": 310, "velocity": 110}, {"time": 69290, "pitch": 58, "duration": 310, "velocity": 100}, {"time": 69600, "pitch": 55, "duration": 150, "velocity": 100}, {"time": 69600, "pitch": 58, "duration": 150, "velocity": 90}, {"time": 69610, "pitch": 63, "duration": 150, "velocity": 90}, {"time": 69610, "pitch": 67, "duration": 150, "velocity": 100}, {"time": 69840, "pitch": 55, "duration": 150, "velocity": 100}, {"time": 69840, "pitch": 58, "duration": 150, "velocity": 90}, {"time": 69850, "pitch": 63, "duration": 150, "velocity": 90}, {"time": 69850, "pitch": 67, "duration": 150, "velocity": 100}, {"time": 70080, "pitch": 55, "duration": 150, "velocity": 100}, {"time": 70080, "pitch": 58, "duration": 150, "velocity": 90}, {"time": 70090, "pitch": 63, "duration": 150, "velocity": 90}, {"time": 70090, "pitch": 67, "duration": 150, "velocity": 100}, {"time": 70320, "pitch": 55, "duration": 150, "velocity": 100}, {"time": 70320, "pitch": 58, "duration": 150, "velocity": 90}, {"time": 70330, "pitch": 63, "duration": 150, "velocity": 90}, {"time": 70330, "pitch": 67, "duration": 150, "velocity": 100}, {"time": 70560, "pitch": 56, "duration": 150, "velocity": 100}, {"time": 70560, "pitch": 60, "duration": 150, "velocity": 90}, {"time": 70570, "pitch": 63, "duration": 150, "velocity": 90}, {"time": 70570, "pitch": 68, "duration": 150, "velocity": 100}, {"time": 70800, "pitch": 56, "duration": 150, "velocity": 100}, {"time": 70800, "pitch": 60, "duration": 150, "velocity": 90}, {"time": 70810, "pitch": 63, "duration": 150, "velocity": 90}, {"time": 70810, "pitch": 68, "duration": 150, "velocity": 100}, {"time": 71040, "pitch": 56, "duration": 150, "velocity": 100}, {"time": 71040, "pitch": 60, "duration": 150, "velocity": 90}, {"time": 71050, "pitch": 63, "duration": 150, "velocity": 90}, {"time": 71050, "pitch": 68, "duration": 150, "velocity": 100}, {"time": 71280, "pitch": 56, "duration": 150, "velocity": 100}, {"time": 71280, "pitch": 60, "duration": 150, "velocity": 90}, {"time": 71290, "pitch": 63, "duration": 150, "velocity": 90}, {"time": 71290, "pitch": 68, "duration": 150, "velocity": 100}, {"time": 71520, "pitch": 56, "duration": 150, "velocity": 100}, {"time": 71520, "pitch": 60, "duration": 150, "velocity": 90}, {"time": 71530, "pitch": 63, "duration": 150, "velocity": 90}, {"time": 71530, "pitch": 68, "duration": 150, "velocity": 100}, {"time": 71760, "pitch": 56, "duration": 150, "velocity": 100}, {"time": 71760, "pitch": 60, "duration": 150, "velocity": 90}, {"time": 71770, "pitch": 63, "duration": 150, "velocity": 90}, {"time": 71770, "pitch": 68, "duration": 150, "velocity": 100}, {"time": 72000, "pitch": 56, "duration": 150, "velocity": 100}, {"time": 72000, "pitch": 60, "duration": 150, "velocity": 90}, {"time": 72010, "pitch": 63, "duration": 150, "velocity": 90}, {"time": 72010, "pitch": 68, "duration": 150, "velocity": 100}, {"time": 72240, "pitch": 56, "duration": 150, "velocity": 100}, {"time": 72240, "pitch": 60, "duration": 150, "velocity": 90}, {"time": 72250, "pitch": 63, "duration": 150, "velocity": 90}, {"time": 72250, "pitch": 68, "duration": 150, "velocity": 100}, {"time": 72480, "pitch": 55, "duration": 150, "velocity": 100}, {"time": 72480, "pitch": 58, "duration": 150, "velocity": 90}, {"time": 72490, "pitch": 63, "duration": 150, "velocity": 90}, {"time": 72490, "pitch": 67, "duration": 150, "velocity": 100}, {"time": 72720, "pitch": 55, "duration": 150, "velocity": 100}, {"time": 72720, "pitch": 58, "duration": 150, "velocity": 90}, {"time": 72730, "pitch": 63, "duration": 150, "velocity": 90}, {"time": 72730, "pitch": 67, "duration": 150, "velocity": 100}, {"time": 72960, "pitch": 51, "duration": 150, "velocity": 100}, {"time": 72960, "pitch": 58, "duration": 150, "velocity": 90}, {"time": 72970, "pitch": 61, "duration": 150, "velocity": 90}, {"time": 72970, "pitch": 67, "duration": 150, "velocity": 100}, {"time": 73200, "pitch": 51, "duration": 150, "velocity": 100}, {"time": 73200, "pitch": 58, "duration": 150, "velocity": 90}, {"time": 73210, "pitch": 61, "duration": 150, "velocity": 90}, {"time": 73210, "pitch": 67, "duration": 150, "velocity": 100}, {"time": 73440, "pitch": 56, "duration": 150, "velocity": 100}, {"time": 73440, "pitch": 60, "duration": 150, "velocity": 90}, {"time": 73450, "pitch": 63, "duration": 150, "velocity": 90}, {"time": 73450, "pitch": 68, "duration": 150, "velocity": 100}, {"time": 73680, "pitch": 56, "duration": 150, "velocity": 100}, {"time": 73680, "pitch": 60, "duration": 150, "velocity": 90}, {"time": 73690, "pitch": 63, "duration": 150, "velocity": 90}, {"time": 73690, "pitch": 68, "duration": 150, "velocity": 100}, {"time": 73920, "pitch": 55, "duration": 150, "velocity": 100}, {"time": 73920, "pitch": 58, "duration": 150, "velocity": 90}, {"time": 73930, "pitch": 63, "duration": 150, "velocity": 90}, {"time": 73930, "pitch": 67, "duration": 150, "velocity": 100}, {"time": 74160, "pitch": 55, "duration": 150, "velocity": 100}, {"time": 74160, "pitch": 58, "duration": 150, "velocity": 90}, {"time": 74170, "pitch": 63, "duration": 150, "velocity": 90}, {"time": 74170, "pitch": 67, "duration": 150, "velocity": 100}, {"time": 74400, "pitch": 56, "duration": 150, "velocity": 100}, {"time": 74400, "pitch": 60, "duration": 150, "velocity": 90}, {"time": 74410, "pitch": 63, "duration": 150, "velocity": 90}, {"time": 74410, "pitch": 68, "duration": 150, "velocity": 100}, {"time": 74640, "pitch": 56, "duration": 150, "velocity": 100}, {"time": 74640, "pitch": 60, "duration": 150, "velocity": 90}, {"time": 74650, "pitch": 63, "duration": 150, "velocity": 90}, {"time": 74650, "pitch": 68, "duration": 150, "velocity": 100}, {"time": 74880, "pitch": 53, "duration": 150, "velocity": 100}, {"time": 74880, "pitch": 58, "duration": 150, "velocity": 90}, {"time": 74890, "pitch": 63, "duration": 150, "velocity": 90}, {"time": 74890, "pitch": 68, "duration": 150, "velocity": 100}, {"time": 75120, "pitch": 53, "duration": 150, "velocity": 100}, {"time": 75120, "pitch": 58, "duration": 150, "velocity": 90}, {"time": 75130, "pitch": 63, "duration": 150, "velocity": 90}, {"time": 75130, "pitch": 68, "duration": 150, "velocity": 100}, {"time": 75360, "pitch": 55, "duration": 150, "velocity": 100}, {"time": 75360, "pitch": 58, "duration": 150, "velocity": 90}, {"time": 75370, "pitch": 63, "duration": 150, "velocity": 90}, {"time": 75370, "pitch": 67, "duration": 150, "velocity": 100}, {"time": 75600, "pitch": 55, "duration": 150, "velocity": 100}, {"time": 75600, "pitch": 58, "duration": 150, "velocity": 90}, {"time": 75610, "pitch": 63, "duration": 150, "velocity": 90}, {"time": 75610, "pitch": 67, "duration": 150, "velocity": 100}, {"time": 75840, "pitch": 55, "duration": 150, "velocity": 100}, {"time": 75840, "pitch": 58, "duration": 150, "velocity": 90}, {"time": 75850, "pitch": 63, "duration": 150, "velocity": 90}, {"time": 75850, "pitch": 67, "duration": 150, "velocity": 100}, {"time": 76080, "pitch": 55, "duration": 150, "velocity": 100}, {"time": 76080, "pitch": 58, "duration": 150, "velocity": 90}, {"time": 76090, "pitch": 63, "duration": 150, "velocity": 90}, {"time": 76090, "pitch": 67, "duration": 150, "velocity": 100}, {"time": 76320, "pitch": 54, "duration": 10, "velocity": 80}, {"time": 76320, "pitch": 59, "duration": 10, "velocity": 70}, {"time": 76320, "pitch": 63, "duration": 10, "velocity": 70}, {"time": 76320, "pitch": 66, "duration": 10, "velocity": 80}, {"time": 76400, "pitch": 54, "duration": 80, "velocity": 110}, {"time": 76400, "pitch": 59, "duration": 80, "velocity": 100}, {"time": 76400, "pitch": 63, "duration": 80, "velocity": 100}, {"time": 76400, "pitch": 66, "duration": 80, "velocity": 110}, {"time": 76560, "pitch": 54, "duration": 220, "velocity": 100}, {"time": 76560, "pitch": 59, "duration": 220, "velocity": 90}, {"time": 76570, "pitch": 63, "duration": 220, "velocity": 90}, {"time": 76570, "pitch": 66, "duration": 220, "velocity": 100}, {"time": 76800, "pitch": 53, "duration": 10, "velocity": 80}, {"time": 76800, "pitch": 56, "duration": 10, "velocity": 70}, {"time": 76800, "pitch": 61, "duration": 10, "velocity": 70}, {"time": 76800, "pitch": 65, "duration": 10, "velocity": 80}, {"time": 76880, "pitch": 53, "duration": 80, "velocity": 110}, {"time": 76880, "pitch": 56, "duration": 80, "velocity": 100}, {"time": 76880, "pitch": 61, "duration": 80, "velocity": 100}, {"time": 76880, "pitch": 65, "duration": 80, "velocity": 110}, {"time": 77040, "pitch": 53, "duration": 220, "velocity": 100}, {"time": 77040, "pitch": 56, "duration": 220, "velocity": 90}, {"time": 77050, "pitch": 61, "duration": 220, "velocity": 90}, {"time": 77050, "pitch": 65, "duration": 220, "velocity": 100}, {"time": 77280, "pitch": 55, "duration": 220, "velocity": 100}, {"time": 77280, "pitch": 58, "duration": 220, "velocity": 90}, {"time": 77290, "pitch": 63, "duration": 220, "velocity": 90}, {"time": 77290, "pitch": 67, "duration": 220, "velocity": 100}, {"time": 77520, "pitch": 55, "duration": 80, "velocity": 110}, {"time": 77520, "pitch": 58, "duration": 80, "velocity": 100}, {"time": 77520, "pitch": 63, "duration": 80, "velocity": 100}, {"time": 77520, "pitch": 67, "duration": 80, "velocity": 110}, {"time": 77680, "pitch": 55, "duration": 10, "velocity": 80}, {"time": 77680, "pitch": 58, "duration": 10, "velocity": 70}, {"time": 77680, "pitch": 63, "duration": 10, "velocity": 70}, {"time": 77680, "pitch": 67, "duration": 10, "velocity": 80}, {"time": 77760, "pitch": 55, "duration": 220, "velocity": 100}, {"time": 77760, "pitch": 58, "duration": 220, "velocity": 90}, {"time": 77770, "pitch": 63, "duration": 220, "velocity": 90}, {"time": 77770, "pitch": 67, "duration": 220, "velocity": 100}, {"time": 78000, "pitch": 55, "duration": 80, "velocity": 110}, {"time": 78000, "pitch": 58, "duration": 80, "velocity": 100}, {"time": 78000, "pitch": 63, "duration": 80, "velocity": 100}, {"time": 78000, "pitch": 67, "duration": 80, "velocity": 110}, {"time": 78160, "pitch": 55, "duration": 10, "velocity": 80}, {"time": 78160, "pitch": 58, "duration": 10, "velocity": 70}, {"time": 78160, "pitch": 63, "duration": 10, "velocity": 70}, {"time": 78160, "pitch": 67, "duration": 10, "velocity": 80}, {"time": 78240, "pitch": 53, "duration": 220, "velocity": 100}, {"time": 78240, "pitch": 58, "duration": 220, "velocity": 90}, {"time": 78250, "pitch": 62, "duration": 220, "velocity": 90}, {"time": 78250, "pitch": 65, "duration": 220, "velocity": 100}, {"time": 78480, "pitch": 53, "duration": 80, "velocity": 110}, {"time": 78480, "pitch": 58, "duration": 80, "velocity": 100}, {"time": 78480, "pitch": 62, "duration": 80, "velocity": 100}, {"time": 78480, "pitch": 65, "duration": 80, "velocity": 110}, {"time": 78640, "pitch": 53, "duration": 10, "velocity": 80}, {"time": 78640, "pitch": 58, "duration": 10, "velocity": 70}, {"time": 78640, "pitch": 62, "duration": 10, "velocity": 70}, {"time": 78640, "pitch": 65, "duration": 10, "velocity": 80}, {"time": 78720, "pitch": 53, "duration": 220, "velocity": 100}, {"time": 78720, "pitch": 58, "duration": 220, "velocity": 90}, {"time": 78730, "pitch": 62, "duration": 220, "velocity": 90}, {"time": 78730, "pitch": 65, "duration": 220, "velocity": 100}, {"time": 78960, "pitch": 53, "duration": 80, "velocity": 110}, {"time": 78960, "pitch": 58, "duration": 80, "velocity": 100}, {"time": 78960, "pitch": 62, "duration": 80, "velocity": 100}, {"time": 78960, "pitch": 65, "duration": 80, "velocity": 110}, {"time": 79120, "pitch": 53, "duration": 10, "velocity": 80}, {"time": 79120, "pitch": 58, "duration": 10, "velocity": 70}, {"time": 79120, "pitch": 62, "duration": 10, "velocity": 70}, {"time": 79120, "pitch": 65, "duration": 10, "velocity": 80}, {"time": 79200, "pitch": 55, "duration": 220, "velocity": 100}, {"time": 79200, "pitch": 60, "duration": 220, "velocity": 90}, {"time": 79210, "pitch": 63, "duration": 220, "velocity": 90}, {"time": 79210, "pitch": 67, "duration": 220, "velocity": 100}, {"time": 79440, "pitch": 55, "duration": 80, "velocity": 110}, {"time": 79440, "pitch": 60, "duration": 80, "velocity": 100}, {"time": 79440, "pitch": 63, "duration": 80, "velocity": 100}, {"time": 79440, "pitch": 67, "duration": 80, "velocity": 110}, {"time": 79600, "pitch": 55, "duration": 10, "velocity": 80}, {"time": 79600, "pitch": 60, "duration": 10, "velocity": 70}, {"time": 79600, "pitch": 63, "duration": 10, "velocity": 70}, {"time": 79600, "pitch": 67, "duration": 10, "velocity": 80}, {"time": 79680, "pitch": 55, "duration": 220, "velocity": 100}, {"time": 79680, "pitch": 60, "duration": 220, "velocity": 90}, {"time": 79690, "pitch": 63, "duration": 220, "velocity": 90}, {"time": 79690, "pitch": 67, "duration": 220, "velocity": 100}, {"time": 79920, "pitch": 55, "duration": 80, "velocity": 110}, {"time": 79920, "pitch": 60, "duration": 80, "velocity": 100}, {"time": 79920, "pitch": 63, "duration": 80, "velocity": 100}, {"time": 79920, "pitch": 67, "duration": 80, "velocity": 110}, {"time": 80080, "pitch": 55, "duration": 10, "velocity": 80}, {"time": 80080, "pitch": 60, "duration": 10, "velocity": 70}, {"time": 80080, "pitch": 63, "duration": 10, "velocity": 70}, {"time": 80080, "pitch": 67, "duration": 10, "velocity": 80}, {"time": 80160, "pitch": 53, "duration": 220, "velocity": 100}, {"time": 80160, "pitch": 58, "duration": 220, "velocity": 90}, {"time": 80170, "pitch": 62, "duration": 220, "velocity": 90}, {"time": 80170, "pitch": 67, "duration": 220, "velocity": 100}, {"time": 80400, "pitch": 53, "duration": 80, "velocity": 110}, {"time": 80400, "pitch": 58, "duration": 80, "velocity": 100}, {"time": 80400, "pitch": 62, "duration": 80, "velocity": 100}, {"time": 80400, "pitch": 67, "duration": 80, "velocity": 110}, {"time": 80560, "pitch": 53, "duration": 10, "velocity": 80}, {"time": 80560, "pitch": 58, "duration": 10, "velocity": 70}, {"time": 80560, "pitch": 62, "duration": 10, "velocity": 70}, {"time": 80560, "pitch": 67, "duration": 10, "velocity": 80}, {"time": 80640, "pitch": 53, "duration": 220, "velocity": 100}, {"time": 80640, "pitch": 58, "duration": 220, "velocity": 90}, {"time": 80650, "pitch": 62, "duration": 220, "velocity": 90}, {"time": 80650, "pitch": 67, "duration": 220, "velocity": 100}, {"time": 80880, "pitch": 53, "duration": 80, "velocity": 110}, {"time": 80880, "pitch": 58, "duration": 80, "velocity": 100}, {"time": 80880, "pitch": 62, "duration": 80, "velocity": 100}, {"time": 80880, "pitch": 67, "duration": 80, "velocity": 110}, {"time": 81040, "pitch": 53, "duration": 10, "velocity": 80}, {"time": 81040, "pitch": 58, "duration": 10, "velocity": 70}, {"time": 81040, "pitch": 62, "duration": 10, "velocity": 70}, {"time": 81040, "pitch": 67, "duration": 10, "velocity": 80}, {"time": 81120, "pitch": 56, "duration": 220, "velocity": 100}, {"time": 81120, "pitch": 60, "duration": 220, "velocity": 90}, {"time": 81130, "pitch": 63, "duration": 220, "velocity": 90}, {"time": 81130, "pitch": 68, "duration": 220, "velocity": 100}, {"time": 81360, "pitch": 56, "duration": 80, "velocity": 110}, {"time": 81360, "pitch": 60, "duration": 80, "velocity": 100}, {"time": 81360, "pitch": 63, "duration": 80, "velocity": 100}, {"time": 81360, "pitch": 68, "duration": 80, "velocity": 110}, {"time": 81520, "pitch": 56, "duration": 10, "velocity": 80}, {"time": 81520, "pitch": 60, "duration": 10, "velocity": 70}, {"time": 81520, "pitch": 63, "duration": 10, "velocity": 70}, {"time": 81520, "pitch": 68, "duration": 10, "velocity": 80}, {"time": 81600, "pitch": 56, "duration": 220, "velocity": 100}, {"time": 81600, "pitch": 60, "duration": 220, "velocity": 90}, {"time": 81610, "pitch": 63, "duration": 220, "velocity": 90}, {"time": 81610, "pitch": 68, "duration": 220, "velocity": 100}, {"time": 81840, "pitch": 56, "duration": 80, "velocity": 110}, {"time": 81840, "pitch": 60, "duration": 80, "velocity": 100}, {"time": 81840, "pitch": 63, "duration": 80, "velocity": 100}, {"time": 81840, "pitch": 68, "duration": 80, "velocity": 110}, {"time": 82000, "pitch": 56, "duration": 10, "velocity": 80}, {"time": 82000, "pitch": 60, "duration": 10, "velocity": 70}, {"time": 82000, "pitch": 63, "duration": 10, "velocity": 70}, {"time": 82000, "pitch": 68, "duration": 10, "velocity": 80}, {"time": 82080, "pitch": 55, "duration": 220, "velocity": 100}, {"time": 82080, "pitch": 58, "duration": 220, "velocity": 90}, {"time": 82090, "pitch": 63, "duration": 220, "velocity": 90}, {"time": 82090, "pitch": 67, "duration": 220, "velocity": 100}, {"time": 82320, "pitch": 55, "duration": 80, "velocity": 110}, {"time": 82320, "pitch": 58, "duration": 80, "velocity": 100}, {"time": 82320, "pitch": 63, "duration": 80, "velocity": 100}, {"time": 82320, "pitch": 67, "duration": 80, "velocity": 110}, {"time": 82480, "pitch": 55, "duration": 10, "velocity": 80}, {"time": 82480, "pitch": 58, "duration": 10, "velocity": 70}, {"time": 82480, "pitch": 63, "duration": 10, "velocity": 70}, {"time": 82480, "pitch": 67, "duration": 10, "velocity": 80}, {"time": 82560, "pitch": 55, "duration": 220, "velocity": 100}, {"time": 82560, "pitch": 58, "duration": 220, "velocity": 90}, {"time": 82570, "pitch": 63, "duration": 220, "velocity": 90}, {"time": 82570, "pitch": 67, "duration": 220, "velocity": 100}, {"time": 82800, "pitch": 55, "duration": 80, "velocity": 110}, {"time": 82800, "pitch": 58, "duration": 80, "velocity": 100}, {"time": 82800, "pitch": 63, "duration": 80, "velocity": 100}, {"time": 82800, "pitch": 67, "duration": 80, "velocity": 110}, {"time": 82960, "pitch": 55, "duration": 10, "velocity": 80}, {"time": 82960, "pitch": 58, "duration": 10, "velocity": 70}, {"time": 82960, "pitch": 63, "duration": 10, "velocity": 70}, {"time": 82960, "pitch": 67, "duration": 10, "velocity": 80}, {"time": 83040, "pitch": 56, "duration": 220, "velocity": 100}, {"time": 83040, "pitch": 60, "duration": 220, "velocity": 90}, {"time": 83050, "pitch": 63, "duration": 220, "velocity": 90}, {"time": 83050, "pitch": 68, "duration": 220, "velocity": 100}, {"time": 83280, "pitch": 56, "duration": 80, "velocity": 110}, {"time": 83280, "pitch": 60, "duration": 80, "velocity": 100}, {"time": 83280, "pitch": 63, "duration": 80, "velocity": 100}, {"time": 83280, "pitch": 68, "duration": 80, "velocity": 110}, {"time": 83440, "pitch": 56, "duration": 10, "velocity": 80}, {"time": 83440, "pitch": 60, "duration": 10, "velocity": 70}, {"time": 83440, "pitch": 63, "duration": 10, "velocity": 70}, {"time": 83440, "pitch": 68, "duration": 10, "velocity": 80}, {"time": 83520, "pitch": 56, "duration": 220, "velocity": 100}, {"time": 83520, "pitch": 60, "duration": 220, "velocity": 90}, {"time": 83530, "pitch": 63, "duration": 220, "velocity": 90}, {"time": 83530, "pitch": 68, "duration": 220, "velocity": 100}, {"time": 83760, "pitch": 56, "duration": 80, "velocity": 110}, {"time": 83760, "pitch": 60, "duration": 80, "velocity": 100}, {"time": 83760, "pitch": 63, "duration": 80, "velocity": 100}, {"time": 83760, "pitch": 68, "duration": 80, "velocity": 110}, {"time": 83920, "pitch": 56, "duration": 10, "velocity": 80}, {"time": 83920, "pitch": 60, "duration": 10, "velocity": 70}, {"time": 83920, "pitch": 63, "duration": 10, "velocity": 70}, {"time": 83920, "pitch": 68, "duration": 10, "velocity": 80}, {"time": 84000, "pitch": 54, "duration": 10, "velocity": 80}, {"time": 84000, "pitch": 59, "duration": 10, "velocity": 70}, {"time": 84000, "pitch": 63, "duration": 10, "velocity": 70}, {"time": 84000, "pitch": 66, "duration": 10, "velocity": 80}, {"time": 84080, "pitch": 54, "duration": 80, "velocity": 110}, {"time": 84080, "pitch": 59, "duration": 80, "velocity": 100}, {"time": 84080, "pitch": 63, "duration": 80, "velocity": 100}, {"time": 84080, "pitch": 66, "duration": 80, "velocity": 110}, {"time": 84240, "pitch": 54, "duration": 220, "velocity": 100}, {"time": 84240, "pitch": 59, "duration": 220, "velocity": 90}, {"time": 84250, "pitch": 63, "duration": 220, "velocity": 90}, {"time": 84250, "pitch": 66, "duration": 220, "velocity": 100}, {"time": 84480, "pitch": 53, "duration": 10, "velocity": 80}, {"time": 84480, "pitch": 56, "duration": 10, "velocity": 70}, {"time": 84480, "pitch": 61, "duration": 10, "velocity": 70}, {"time": 84480, "pitch": 65, "duration": 10, "velocity": 80}, {"time": 84560, "pitch": 53, "duration": 80, "velocity": 110}, {"time": 84560, "pitch": 56, "duration": 80, "velocity": 100}, {"time": 84560, "pitch": 61, "duration": 80, "velocity": 100}, {"time": 84560, "pitch": 65, "duration": 80, "velocity": 110}, {"time": 84720, "pitch": 53, "duration": 220, "velocity": 100}, {"time": 84720, "pitch": 56, "duration": 220, "velocity": 90}, {"time": 84730, "pitch": 61, "duration": 220, "velocity": 90}, {"time": 84730, "pitch": 65, "duration": 220, "velocity": 100}, {"time": 84960, "pitch": 55, "duration": 220, "velocity": 100}, {"time": 84960, "pitch": 58, "duration": 220, "velocity": 90}, {"time": 84970, "pitch": 63, "duration": 220, "velocity": 90}, {"time": 84970, "pitch": 67, "duration": 220, "velocity": 100}, {"time": 85200, "pitch": 55, "duration": 80, "velocity": 110}, {"time": 85200, "pitch": 58, "duration": 80, "velocity": 100}, {"time": 85200, "pitch": 63, "duration": 80, "velocity": 100}, {"time": 85200, "pitch": 67, "duration": 80, "velocity": 110}, {"time": 85360, "pitch": 55, "duration": 10, "velocity": 80}, {"time": 85360, "pitch": 58, "duration": 10, "velocity": 70}, {"time": 85360, "pitch": 63, "duration": 10, "velocity": 70}, {"time": 85360, "pitch": 67, "duration": 10, "velocity": 80}, {"time": 85440, "pitch": 55, "duration": 220, "velocity": 100}, {"time": 85440, "pitch": 58, "duration": 220, "velocity": 90}, {"time": 85450, "pitch": 63, "duration": 220, "velocity": 90}, {"time": 85450, "pitch": 67, "duration": 220, "velocity": 100}, {"time": 85680, "pitch": 55, "duration": 80, "velocity": 110}, {"time": 85680, "pitch": 58, "duration": 80, "velocity": 100}, {"time": 85680, "pitch": 63, "duration": 80, "velocity": 100}, {"time": 85680, "pitch": 67, "duration": 80, "velocity": 110}, {"time": 85840, "pitch": 55, "duration": 10, "velocity": 80}, {"time": 85840, "pitch": 58, "duration": 10, "velocity": 70}, {"time": 85840, "pitch": 63, "duration": 10, "velocity": 70}, {"time": 85840, "pitch": 67, "duration": 10, "velocity": 80}, {"time": 85920, "pitch": 53, "duration": 220, "velocity": 100}, {"time": 85920, "pitch": 58, "duration": 220, "velocity": 90}, {"time": 85930, "pitch": 62, "duration": 220, "velocity": 90}, {"time": 85930, "pitch": 65, "duration": 220, "velocity": 100}, {"time": 86160, "pitch": 53, "duration": 80, "velocity": 110}, {"time": 86160, "pitch": 58, "duration": 80, "velocity": 100}, {"time": 86160, "pitch": 62, "duration": 80, "velocity": 100}, {"time": 86160, "pitch": 65, "duration": 80, "velocity": 110}, {"time": 86320, "pitch": 53, "duration": 10, "velocity": 80}, {"time": 86320, "pitch": 58, "duration": 10, "velocity": 70}, {"time": 86320, "pitch": 62, "duration": 10, "velocity": 70}, {"time": 86320, "pitch": 65, "duration": 10, "velocity": 80}, {"time": 86400, "pitch": 53, "duration": 220, "velocity": 100}, {"time": 86400, "pitch": 58, "duration": 220, "velocity": 90}, {"time": 86410, "pitch": 62, "duration": 220, "velocity": 90}, {"time": 86410, "pitch": 65, "duration": 220, "velocity": 100}, {"time": 86640, "pitch": 53, "duration": 80, "velocity": 110}, {"time": 86640, "pitch": 58, "duration": 80, "velocity": 100}, {"time": 86640, "pitch": 62, "duration": 80, "velocity": 100}, {"time": 86640, "pitch": 65, "duration": 80, "velocity": 110}, {"time": 86800, "pitch": 53, "duration": 10, "velocity": 80}, {"time": 86800, "pitch": 58, "duration": 10, "velocity": 70}, {"time": 86800, "pitch": 62, "duration": 10, "velocity": 70}, {"time": 86800, "pitch": 65, "duration": 10, "velocity": 80}, {"time": 86880, "pitch": 55, "duration": 220, "velocity": 100}, {"time": 86880, "pitch": 60, "duration": 220, "velocity": 90}, {"time": 86890, "pitch": 63, "duration": 220, "velocity": 90}, {"time": 86890, "pitch": 67, "duration": 220, "velocity": 100}, {"time": 87120, "pitch": 55, "duration": 80, "velocity": 110}, {"time": 87120, "pitch": 60, "duration": 80, "velocity": 100}, {"time": 87120, "pitch": 63, "duration": 80, "velocity": 100}, {"time": 87120, "pitch": 67, "duration": 80, "velocity": 110}, {"time": 87280, "pitch": 55, "duration": 10, "velocity": 80}, {"time": 87280, "pitch": 60, "duration": 10, "velocity": 70}, {"time": 87280, "pitch": 63, "duration": 10, "velocity": 70}, {"time": 87280, "pitch": 67, "duration": 10, "velocity": 80}, {"time": 87360, "pitch": 55, "duration": 220, "velocity": 100}, {"time": 87360, "pitch": 60, "duration": 220, "velocity": 90}, {"time": 87370, "pitch": 63, "duration": 220, "velocity": 90}, {"time": 87370, "pitch": 67, "duration": 220, "velocity": 100}, {"time": 87600, "pitch": 55, "duration": 80, "velocity": 110}, {"time": 87600, "pitch": 60, "duration": 80, "velocity": 100}, {"time": 87600, "pitch": 63, "duration": 80, "velocity": 100}, {"time": 87600, "pitch": 67, "duration": 80, "velocity": 110}, {"time": 87760, "pitch": 55, "duration": 10, "velocity": 80}, {"time": 87760, "pitch": 60, "duration": 10, "velocity": 70}, {"time": 87760, "pitch": 63, "duration": 10, "velocity": 70}, {"time": 87760, "pitch": 67, "duration": 10, "velocity": 80}, {"time": 87840, "pitch": 53, "duration": 220, "velocity": 100}, {"time": 87840, "pitch": 58, "duration": 220, "velocity": 90}, {"time": 87850, "pitch": 62, "duration": 220, "velocity": 90}, {"time": 87850, "pitch": 67, "duration": 220, "velocity": 100}, {"time": 88080, "pitch": 53, "duration": 80, "velocity": 110}, {"time": 88080, "pitch": 58, "duration": 80, "velocity": 100}, {"time": 88080, "pitch": 62, "duration": 80, "velocity": 100}, {"time": 88080, "pitch": 67, "duration": 80, "velocity": 110}, {"time": 88240, "pitch": 53, "duration": 10, "velocity": 80}, {"time": 88240, "pitch": 58, "duration": 10, "velocity": 70}, {"time": 88240, "pitch": 62, "duration": 10, "velocity": 70}, {"time": 88240, "pitch": 67, "duration": 10, "velocity": 80}, {"time": 88320, "pitch": 53, "duration": 220, "velocity": 100}, {"time": 88320, "pitch": 58, "duration": 220, "velocity": 90}, {"time": 88330, "pitch": 62, "duration": 220, "velocity": 90}, {"time": 88330, "pitch": 67, "duration": 220, "velocity": 100}, {"time": 88560, "pitch": 53, "duration": 80, "velocity": 110}, {"time": 88560, "pitch": 58, "duration": 80, "velocity": 100}, {"time": 88560, "pitch": 62, "duration": 80, "velocity": 100}, {"time": 88560, "pitch": 67, "duration": 80, "velocity": 110}, {"time": 88720, "pitch": 53, "duration": 10, "velocity": 80}, {"time": 88720, "pitch": 58, "duration": 10, "velocity": 70}, {"time": 88720, "pitch": 62, "duration": 10, "velocity": 70}, {"time": 88720, "pitch": 67, "duration": 10, "velocity": 80}, {"time": 88800, "pitch": 56, "duration": 220, "velocity": 100}, {"time": 88800, "pitch": 60, "duration": 220, "velocity": 90}, {"time": 88810, "pitch": 63, "duration": 220, "velocity": 90}, {"time": 88810, "pitch": 68, "duration": 220, "velocity": 100}, {"time": 89040, "pitch": 56, "duration": 80, "velocity": 110}, {"time": 89040, "pitch": 60, "duration": 80, "velocity": 100}, {"time": 89040, "pitch": 63, "duration": 80, "velocity": 100}, {"time": 89040, "pitch": 68, "duration": 80, "velocity": 110}, {"time": 89200, "pitch": 56, "duration": 10, "velocity": 80}, {"time": 89200, "pitch": 60, "duration": 10, "velocity": 70}, {"time": 89200, "pitch": 63, "duration": 10, "velocity": 70}, {"time": 89200, "pitch": 68, "duration": 10, "velocity": 80}, {"time": 89280, "pitch": 56, "duration": 220, "velocity": 100}, {"time": 89280, "pitch": 60, "duration": 220, "velocity": 90}, {"time": 89290, "pitch": 63, "duration": 220, "velocity": 90}, {"time": 89290, "pitch": 68, "duration": 220, "velocity": 100}, {"time": 89520, "pitch": 56, "duration": 80, "velocity": 110}, {"time": 89520, "pitch": 60, "duration": 80, "velocity": 100}, {"time": 89520, "pitch": 63, "duration": 80, "velocity": 100}, {"time": 89520, "pitch": 68, "duration": 80, "velocity": 110}, {"time": 89680, "pitch": 56, "duration": 10, "velocity": 80}, {"time": 89680, "pitch": 60, "duration": 10, "velocity": 70}, {"time": 89680, "pitch": 63, "duration": 10, "velocity": 70}, {"time": 89680, "pitch": 68, "duration": 10, "velocity": 80}, {"time": 89760, "pitch": 55, "duration": 220, "velocity": 100}, {"time": 89760, "pitch": 58, "duration": 220, "velocity": 90}, {"time": 89770, "pitch": 63, "duration": 220, "velocity": 90}, {"time": 89770, "pitch": 67, "duration": 220, "velocity": 100}, {"time": 90000, "pitch": 55, "duration": 80, "velocity": 110}, {"time": 90000, "pitch": 58, "duration": 80, "velocity": 100}, {"time": 90000, "pitch": 63, "duration": 80, "velocity": 100}, {"time": 90000, "pitch": 67, "duration": 80, "velocity": 110}, {"time": 90160, "pitch": 55, "duration": 10, "velocity": 80}, {"time": 90160, "pitch": 58, "duration": 10, "velocity": 70}, {"time": 90160, "pitch": 63, "duration": 10, "velocity": 70}, {"time": 90160, "pitch": 67, "duration": 10, "velocity": 80}, {"time": 90240, "pitch": 55, "duration": 220, "velocity": 100}, {"time": 90240, "pitch": 58, "duration": 220, "velocity": 90}, {"time": 90250, "pitch": 63, "duration": 220, "velocity": 90}, {"time": 90250, "pitch": 67, "duration": 220, "velocity": 100}, {"time": 90480, "pitch": 55, "duration": 80, "velocity": 110}, {"time": 90480, "pitch": 58, "duration": 80, "velocity": 100}, {"time": 90480, "pitch": 63, "duration": 80, "velocity": 100}, {"time": 90480, "pitch": 67, "duration": 80, "velocity": 110}, {"time": 90640, "pitch": 55, "duration": 10, "velocity": 80}, {"time": 90640, "pitch": 58, "duration": 10, "velocity": 70}, {"time": 90640, "pitch": 63, "duration": 10, "velocity": 70}, {"time": 90640, "pitch": 67, "duration": 10, "velocity": 80}, {"time": 90720, "pitch": 56, "duration": 220, "velocity": 100}, {"time": 90720, "pitch": 60, "duration": 220, "velocity": 90}, {"time": 90730, "pitch": 63, "duration": 220, "velocity": 90}, {"time": 90730, "pitch": 68, "duration": 220, "velocity": 100}, {"time": 90960, "pitch": 56, "duration": 80, "velocity": 110}, {"time": 90960, "pitch": 60, "duration": 80, "velocity": 100}, {"time": 90960, "pitch": 63, "duration": 80, "velocity": 100}, {"time": 90960, "pitch": 68, "duration": 80, "velocity": 110}, {"time": 91120, "pitch": 56, "duration": 10, "velocity": 80}, {"time": 91120, "pitch": 60, "duration": 10, "velocity": 70}, {"time": 91120, "pitch": 63, "duration": 10, "velocity": 70}, {"time": 91120, "pitch": 68, "duration": 10, "velocity": 80}, {"time": 91200, "pitch": 56, "duration": 220, "velocity": 100}, {"time": 91200, "pitch": 60, "duration": 220, "velocity": 90}, {"time": 91210, "pitch": 63, "duration": 220, "velocity": 90}, {"time": 91210, "pitch": 68, "duration": 220, "velocity": 100}, {"time": 91440, "pitch": 56, "duration": 80, "velocity": 110}, {"time": 91440, "pitch": 60, "duration": 80, "velocity": 100}, {"time": 91440, "pitch": 63, "duration": 80, "velocity": 100}, {"time": 91440, "pitch": 68, "duration": 80, "velocity": 110}, {"time": 91600, "pitch": 56, "duration": 10, "velocity": 80}, {"time": 91600, "pitch": 60, "duration": 10, "velocity": 70}, {"time": 91600, "pitch": 63, "duration": 10, "velocity": 70}, {"time": 91600, "pitch": 68, "duration": 10, "velocity": 80}, {"time": 91680, "pitch": 53, "duration": 220, "velocity": 110}, {"time": 91680, "pitch": 58, "duration": 220, "velocity": 100}, {"time": 91690, "pitch": 63, "duration": 220, "velocity": 100}, {"time": 91690, "pitch": 68, "duration": 220, "velocity": 110}, {"time": 91920, "pitch": 53, "duration": 80, "velocity": 110}, {"time": 91920, "pitch": 58, "duration": 80, "velocity": 100}, {"time": 91930, "pitch": 63, "duration": 80, "velocity": 100}, {"time": 91930, "pitch": 68, "duration": 80, "velocity": 110}, {"time": 92640, "pitch": 56, "duration": 220, "velocity": 100}, {"time": 92640, "pitch": 60, "duration": 220, "velocity": 90}, {"time": 92650, "pitch": 63, "duration": 220, "velocity": 90}, {"time": 92650, "pitch": 68, "duration": 220, "velocity": 100}, {"time": 92880, "pitch": 56, "duration": 80, "velocity": 110}, {"time": 92880, "pitch": 60, "duration": 80, "velocity": 100}, {"time": 92880, "pitch": 63, "duration": 80, "velocity": 100}, {"time": 92880, "pitch": 68, "duration": 80, "velocity": 110}, {"time": 93040, "pitch": 56, "duration": 10, "velocity": 80}, {"time": 93040, "pitch": 60, "duration": 10, "velocity": 70}, {"time": 93040, "pitch": 63, "duration": 10, "velocity": 70}, {"time": 93040, "pitch": 68, "duration": 10, "velocity": 80}, {"time": 93120, "pitch": 56, "duration": 220, "velocity": 100}, {"time": 93120, "pitch": 60, "duration": 220, "velocity": 90}, {"time": 93130, "pitch": 63, "duration": 220, "velocity": 90}, {"time": 93130, "pitch": 68, "duration": 220, "velocity": 100}, {"time": 93360, "pitch": 56, "duration": 80, "velocity": 110}, {"time": 93360, "pitch": 60, "duration": 80, "velocity": 100}, {"time": 93360, "pitch": 63, "duration": 80, "velocity": 100}, {"time": 93360, "pitch": 68, "duration": 80, "velocity": 110}, {"time": 93520, "pitch": 56, "duration": 10, "velocity": 80}, {"time": 93520, "pitch": 60, "duration": 10, "velocity": 70}, {"time": 93520, "pitch": 63, "duration": 10, "velocity": 70}, {"time": 93520, "pitch": 68, "duration": 10, "velocity": 80}, {"time": 93600, "pitch": 55, "duration": 220, "velocity": 100}, {"time": 93600, "pitch": 58, "duration": 220, "velocity": 90}, {"time": 93610, "pitch": 63, "duration": 220, "velocity": 90}, {"time": 93610, "pitch": 70, "duration": 220, "velocity": 100}, {"time": 93840, "pitch": 55, "duration": 80, "velocity": 110}, {"time": 93840, "pitch": 58, "duration": 80, "velocity": 100}, {"time": 93840, "pitch": 63, "duration": 80, "velocity": 100}, {"time": 93840, "pitch": 70, "duration": 80, "velocity": 110}, {"time": 94000, "pitch": 55, "duration": 10, "velocity": 80}, {"time": 94000, "pitch": 58, "duration": 10, "velocity": 70}, {"time": 94000, "pitch": 63, "duration": 10, "velocity": 70}, {"time": 94000, "pitch": 70, "duration": 10, "velocity": 80}, {"time": 94080, "pitch": 54, "duration": 220, "velocity": 100}, {"time": 94080, "pitch": 60, "duration": 220, "velocity": 90}, {"time": 94090, "pitch": 63, "duration": 220, "velocity": 90}, {"time": 94090, "pitch": 69, "duration": 220, "velocity": 100}, {"time": 94320, "pitch": 54, "duration": 80, "velocity": 110}, {"time": 94320, "pitch": 60, "duration": 80, "velocity": 100}, {"time": 94320, "pitch": 63, "duration": 80, "velocity": 100}, {"time": 94320, "pitch": 69, "duration": 80, "velocity": 110}, {"time": 94480, "pitch": 54, "duration": 10, "velocity": 80}, {"time": 94480, "pitch": 60, "duration": 10, "velocity": 70}, {"time": 94480, "pitch": 63, "duration": 10, "velocity": 70}, {"time": 94480, "pitch": 69, "duration": 10, "velocity": 80}, {"time": 94560, "pitch": 56, "duration": 450, "velocity": 100}, {"time": 94560, "pitch": 60, "duration": 450, "velocity": 90}, {"time": 94570, "pitch": 63, "duration": 450, "velocity": 90}, {"time": 94570, "pitch": 68, "duration": 450, "velocity": 100}, {"time": 95040, "pitch": 55, "duration": 10, "velocity": 80}, {"time": 95040, "pitch": 60, "duration": 10, "velocity": 70}, {"time": 95040, "pitch": 65, "duration": 10, "velocity": 70}, {"time": 95040, "pitch": 69, "duration": 10, "velocity": 80}, {"time": 95200, "pitch": 65, "duration": 310, "velocity": 100}, {"time": 95200, "pitch": 69, "duration": 310, "velocity": 110}, {"time": 95210, "pitch": 55, "duration": 310, "velocity": 110}, {"time": 95210, "pitch": 60, "duration": 310, "velocity": 100}, {"time": 95520, "pitch": 48, "duration": 180, "velocity": 110}, {"time": 95760, "pitch": 59, "duration": 180, "velocity": 100}, {"time": 95760, "pitch": 64, "duration": 180, "velocity": 100}, {"time": 95760, "pitch": 67, "duration": 180, "velocity": 110}, {"time": 96240, "pitch": 48, "duration": 950, "velocity": 110}, {"time": 96480, "pitch": 59, "duration": 920, "velocity": 100}, {"time": 96480, "pitch": 64, "duration": 920, "velocity": 100}, {"time": 96480, "pitch": 67, "duration": 920, "velocity": 110}, {"time": 97440, "pitch": 47, "duration": 450, "velocity": 110}, {"time": 97440, "pitch": 57, "duration": 450, "velocity": 100}, {"time": 97440, "pitch": 62, "duration": 450, "velocity": 100}, {"time": 97440, "pitch": 65, "duration": 450, "velocity": 110}, {"time": 98160, "pitch": 47, "duration": 450, "velocity": 110}, {"time": 98160, "pitch": 56, "duration": 450, "velocity": 100}, {"time": 98160, "pitch": 62, "duration": 450, "velocity": 100}, {"time": 98160, "pitch": 64, "duration": 450, "velocity": 110}, {"time": 98640, "pitch": 47, "duration": 700, "velocity": 110}, {"time": 98880, "pitch": 56, "duration": 450, "velocity": 100}, {"time": 98880, "pitch": 62, "duration": 450, "velocity": 100}, {"time": 98880, "pitch": 64, "duration": 450, "velocity": 110}, {"time": 99360, "pitch": 45, "duration": 180, "velocity": 110}, {"time": 99600, "pitch": 55, "duration": 180, "velocity": 100}, {"time": 99600, "pitch": 60, "duration": 180, "velocity": 100}, {"time": 99600, "pitch": 64, "duration": 180, "velocity": 110}, {"time": 100080, "pitch": 45, "duration": 220, "velocity": 110}, {"time": 100320, "pitch": 45, "duration": 180, "velocity": 110}, {"time": 100320, "pitch": 55, "duration": 180, "velocity": 100}, {"time": 100320, "pitch": 60, "duration": 180, "velocity": 100}, {"time": 100320, "pitch": 64, "duration": 180, "velocity": 110}, {"time": 100800, "pitch": 44, "duration": 180, "velocity": 110}, {"time": 100800, "pitch": 54, "duration": 180, "velocity": 100}, {"time": 100800, "pitch": 59, "duration": 180, "velocity": 100}, {"time": 100800, "pitch": 63, "duration": 180, "velocity": 110}, {"time": 101280, "pitch": 43, "duration": 680, "velocity": 110}, {"time": 101280, "pitch": 53, "duration": 680, "velocity": 100}, {"time": 101280, "pitch": 58, "duration": 680, "velocity": 100}, {"time": 101280, "pitch": 62, "duration": 680, "velocity": 110}, {"time": 102000, "pitch": 48, "duration": 450, "velocity": 110}, {"time": 102000, "pitch": 52, "duration": 450, "velocity": 100}, {"time": 102000, "pitch": 58, "duration": 450, "velocity": 100}, {"time": 102000, "pitch": 62, "duration": 450, "velocity": 110}, {"time": 102480, "pitch": 48, "duration": 700, "velocity": 110}, {"time": 102720, "pitch": 52, "duration": 450, "velocity": 100}, {"time": 102720, "pitch": 58, "duration": 450, "velocity": 100}, {"time": 102720, "pitch": 62, "duration": 450, "velocity": 110}, {"time": 103200, "pitch": 45, "duration": 180, "velocity": 110}, {"time": 103440, "pitch": 53, "duration": 180, "velocity": 100}, {"time": 103440, "pitch": 60, "duration": 180, "velocity": 100}, {"time": 103440, "pitch": 64, "duration": 180, "velocity": 110}, {"time": 103920, "pitch": 45, "duration": 950, "velocity": 110}, {"time": 104160, "pitch": 54, "duration": 450, "velocity": 100}, {"time": 104160, "pitch": 60, "duration": 450, "velocity": 100}, {"time": 104160, "pitch": 63, "duration": 450, "velocity": 110}, {"time": 104640, "pitch": 54, "duration": 220, "velocity": 100}, {"time": 104640, "pitch": 60, "duration": 220, "velocity": 100}, {"time": 104640, "pitch": 63, "duration": 220, "velocity": 110}, {"time": 105120, "pitch": 43, "duration": 450, "velocity": 110}, {"time": 105120, "pitch": 55, "duration": 450, "velocity": 100}, {"time": 105120, "pitch": 60, "duration": 450, "velocity": 100}, {"time": 105120, "pitch": 64, "duration": 450, "velocity": 110}, {"time": 105840, "pitch": 45, "duration": 450, "velocity": 110}, {"time": 105840, "pitch": 55, "duration": 450, "velocity": 100}, {"time": 105840, "pitch": 61, "duration": 450, "velocity": 100}, {"time": 105840, "pitch": 65, "duration": 450, "velocity": 110}, {"time": 106320, "pitch": 45, "duration": 680, "velocity": 110}, {"time": 106320, "pitch": 55, "duration": 680, "velocity": 100}, {"time": 106320, "pitch": 61, "duration": 680, "velocity": 100}, {"time": 106320, "pitch": 64, "duration": 680, "velocity": 110}, {"time": 107040, "pitch": 50, "duration": 180, "velocity": 110}, {"time": 107280, "pitch": 54, "duration": 180, "velocity": 100}, {"time": 107280, "pitch": 60, "duration": 180, "velocity": 100}, {"time": 107280, "pitch": 64, "duration": 180, "velocity": 110}, {"time": 107760, "pitch": 50, "duration": 680, "velocity": 110}, {"time": 108000, "pitch": 54, "duration": 450, "velocity": 100}, {"time": 108000, "pitch": 60, "duration": 450, "velocity": 100}, {"time": 108000, "pitch": 64, "duration": 450, "velocity": 110}, {"time": 108480, "pitch": 54, "duration": 220, "velocity": 100}, {"time": 108480, "pitch": 60, "duration": 220, "velocity": 100}, {"time": 108480, "pitch": 64, "duration": 220, "velocity": 110}, {"time": 108960, "pitch": 44, "duration": 480, "velocity": 110}, {"time": 108960, "pitch": 55, "duration": 480, "velocity": 100}, {"time": 108960, "pitch": 60, "duration": 480, "velocity": 100}, {"time": 108960, "pitch": 63, "duration": 480, "velocity": 110}, {"time": 109680, "pitch": 46, "duration": 450, "velocity": 110}, {"time": 109680, "pitch": 55, "duration": 450, "velocity": 100}, {"time": 109680, "pitch": 60, "duration": 450, "velocity": 100}, {"time": 109680, "pitch": 65, "duration": 450, "velocity": 110}, {"time": 110160, "pitch": 46, "duration": 700, "velocity": 110}, {"time": 110400, "pitch": 55, "duration": 450, "velocity": 100}, {"time": 110400, "pitch": 60, "duration": 450, "velocity": 100}, {"time": 110400, "pitch": 65, "duration": 450, "velocity": 110}, {"time": 110880, "pitch": 48, "duration": 180, "velocity": 110}, {"time": 111120, "pitch": 59, "duration": 180, "velocity": 100}, {"time": 111120, "pitch": 64, "duration": 180, "velocity": 100}, {"time": 111120, "pitch": 67, "duration": 180, "velocity": 110}, {"time": 111600, "pitch": 48, "duration": 950, "velocity": 110}, {"time": 111840, "pitch": 59, "duration": 920, "velocity": 100}, {"time": 111840, "pitch": 64, "duration": 920, "velocity": 100}, {"time": 111840, "pitch": 67, "duration": 920, "velocity": 110}, {"time": 112800, "pitch": 47, "duration": 450, "velocity": 110}, {"time": 112800, "pitch": 57, "duration": 450, "velocity": 100}, {"time": 112800, "pitch": 62, "duration": 450, "velocity": 100}, {"time": 112800, "pitch": 65, "duration": 450, "velocity": 110}, {"time": 113520, "pitch": 47, "duration": 450, "velocity": 110}, {"time": 113520, "pitch": 56, "duration": 450, "velocity": 100}, {"time": 113520, "pitch": 62, "duration": 450, "velocity": 100}, {"time": 113520, "pitch": 64, "duration": 450, "velocity": 110}, {"time": 114000, "pitch": 47, "duration": 700, "velocity": 110}, {"time": 114240, "pitch": 56, "duration": 450, "velocity": 100}, {"time": 114240, "pitch": 62, "duration": 450, "velocity": 100}, {"time": 114240, "pitch": 64, "duration": 450, "velocity": 110}, {"time": 114720, "pitch": 45, "duration": 180, "velocity": 110}, {"time": 114960, "pitch": 55, "duration": 180, "velocity": 100}, {"time": 114960, "pitch": 60, "duration": 180, "velocity": 100}, {"time": 114960, "pitch": 64, "duration": 180, "velocity": 110}, {"time": 115440, "pitch": 45, "duration": 220, "velocity": 110}, {"time": 115680, "pitch": 45, "duration": 180, "velocity": 110}, {"time": 115680, "pitch": 55, "duration": 180, "velocity": 100}, {"time": 115680, "pitch": 60, "duration": 180, "velocity": 100}, {"time": 115680, "pitch": 64, "duration": 180, "velocity": 110}, {"time": 116160, "pitch": 44, "duration": 180, "velocity": 110}, {"time": 116160, "pitch": 54, "duration": 180, "velocity": 100}, {"time": 116160, "pitch": 59, "duration": 180, "velocity": 100}, {"time": 116160, "pitch": 63, "duration": 180, "velocity": 110}, {"time": 116640, "pitch": 43, "duration": 680, "velocity": 110}, {"time": 116640, "pitch": 53, "duration": 680, "velocity": 100}, {"time": 116640, "pitch": 58, "duration": 680, "velocity": 100}, {"time": 116640, "pitch": 62, "duration": 680, "velocity": 110}, {"time": 117360, "pitch": 48, "duration": 450, "velocity": 110}, {"time": 117360, "pitch": 52, "duration": 450, "velocity": 100}, {"time": 117360, "pitch": 58, "duration": 450, "velocity": 100}, {"time": 117360, "pitch": 62, "duration": 450, "velocity": 110}, {"time": 117840, "pitch": 48, "duration": 700, "velocity": 110}, {"time": 118080, "pitch": 52, "duration": 450, "velocity": 100}, {"time": 118080, "pitch": 58, "duration": 450, "velocity": 100}, {"time": 118080, "pitch": 62, "duration": 450, "velocity": 110}, {"time": 118560, "pitch": 45, "duration": 180, "velocity": 110}, {"time": 118800, "pitch": 53, "duration": 180, "velocity": 100}, {"time": 118800, "pitch": 60, "duration": 180, "velocity": 100}, {"time": 118800, "pitch": 64, "duration": 180, "velocity": 110}, {"time": 119280, "pitch": 45, "duration": 710, "velocity": 110}, {"time": 119520, "pitch": 53, "duration": 450, "velocity": 100}, {"time": 119520, "pitch": 60, "duration": 450, "velocity": 100}, {"time": 119520, "pitch": 64, "duration": 450, "velocity": 110}, {"time": 120000, "pitch": 45, "duration": 220, "velocity": 110}, {"time": 120480, "pitch": 45, "duration": 450, "velocity": 110}, {"time": 120480, "pitch": 54, "duration": 450, "velocity": 100}, {"time": 120480, "pitch": 60, "duration": 450, "velocity": 100}, {"time": 120480, "pitch": 63, "duration": 450, "velocity": 110}, {"time": 120960, "pitch": 45, "duration": 450, "velocity": 110}, {"time": 121200, "pitch": 54, "duration": 450, "velocity": 100}, {"time": 121200, "pitch": 60, "duration": 450, "velocity": 100}, {"time": 121200, "pitch": 63, "duration": 450, "velocity": 110}, {"time": 121680, "pitch": 45, "duration": 700, "velocity": 110}, {"time": 121920, "pitch": 54, "duration": 450, "velocity": 100}, {"time": 121920, "pitch": 60, "duration": 450, "velocity": 100}, {"time": 121920, "pitch": 63, "duration": 450, "velocity": 110}, {"time": 122400, "pitch": 43, "duration": 180, "velocity": 110}, {"time": 122640, "pitch": 55, "duration": 180, "velocity": 100}, {"time": 122640, "pitch": 60, "duration": 180, "velocity": 100}, {"time": 122640, "pitch": 64, "duration": 180, "velocity": 110}, {"time": 123120, "pitch": 43, "duration": 680, "velocity": 110}, {"time": 123360, "pitch": 55, "duration": 450, "velocity": 100}, {"time": 123360, "pitch": 60, "duration": 450, "velocity": 100}, {"time": 123360, "pitch": 64, "duration": 450, "velocity": 110}, {"time": 123840, "pitch": 43, "duration": 220, "velocity": 110}, {"time": 124320, "pitch": 45, "duration": 480, "velocity": 110}, {"time": 124320, "pitch": 55, "duration": 480, "velocity": 100}, {"time": 124320, "pitch": 61, "duration": 480, "velocity": 100}, {"time": 124320, "pitch": 65, "duration": 480, "velocity": 110}, {"time": 125040, "pitch": 45, "duration": 450, "velocity": 110}, {"time": 125040, "pitch": 55, "duration": 450, "velocity": 100}, {"time": 125040, "pitch": 61, "duration": 450, "velocity": 100}, {"time": 125040, "pitch": 64, "duration": 450, "velocity": 110}, {"time": 125520, "pitch": 45, "duration": 700, "velocity": 110}, {"time": 125760, "pitch": 55, "duration": 450, "velocity": 100}, {"time": 125760, "pitch": 61, "duration": 450, "velocity": 100}, {"time": 125760, "pitch": 64, "duration": 450, "velocity": 110}, {"time": 126240, "pitch": 50, "duration": 180, "velocity": 110}, {"time": 126480, "pitch": 53, "duration": 180, "velocity": 100}, {"time": 126480, "pitch": 60, "duration": 180, "velocity": 100}, {"time": 126480, "pitch": 64, "duration": 180, "velocity": 110}, {"time": 126960, "pitch": 50, "duration": 700, "velocity": 110}, {"time": 127200, "pitch": 53, "duration": 450, "velocity": 100}, {"time": 127200, "pitch": 60, "duration": 450, "velocity": 100}, {"time": 127200, "pitch": 64, "duration": 450, "velocity": 110}, {"time": 127680, "pitch": 50, "duration": 220, "velocity": 110}, {"time": 128160, "pitch": 43, "duration": 450, "velocity": 110}, {"time": 128160, "pitch": 53, "duration": 450, "velocity": 100}, {"time": 128160, "pitch": 60, "duration": 450, "velocity": 100}, {"time": 128160, "pitch": 64, "duration": 450, "velocity": 110}, {"time": 128880, "pitch": 43, "duration": 450, "velocity": 110}, {"time": 128880, "pitch": 53, "duration": 450, "velocity": 100}, {"time": 128880, "pitch": 60, "duration": 450, "velocity": 100}, {"time": 128880, "pitch": 62, "duration": 450, "velocity": 110}, {"time": 129360, "pitch": 43, "duration": 700, "velocity": 110}, {"time": 129600, "pitch": 53, "duration": 450, "velocity": 100}, {"time": 129600, "pitch": 60, "duration": 450, "velocity": 100}, {"time": 129600, "pitch": 62, "duration": 450, "velocity": 110}, {"time": 130080, "pitch": 46, "duration": 180, "velocity": 110}, {"time": 130320, "pitch": 56, "duration": 180, "velocity": 100}, {"time": 130320, "pitch": 63, "duration": 180, "velocity": 100}, {"time": 130320, "pitch": 67, "duration": 180, "velocity": 110}, {"time": 130800, "pitch": 46, "duration": 700, "velocity": 110}, {"time": 131040, "pitch": 56, "duration": 450, "velocity": 100}, {"time": 131040, "pitch": 63, "duration": 450, "velocity": 100}, {"time": 131040, "pitch": 67, "duration": 450, "velocity": 110}, {"time": 131520, "pitch": 46, "duration": 220, "velocity": 110}, {"time": 132000, "pitch": 46, "duration": 480, "velocity": 110}, {"time": 132000, "pitch": 56, "duration": 480, "velocity": 100}, {"time": 132000, "pitch": 62, "duration": 480, "velocity": 100}, {"time": 132000, "pitch": 67, "duration": 480, "velocity": 110}, {"time": 132720, "pitch": 46, "duration": 1200, "velocity": 110}, {"time": 132720, "pitch": 56, "duration": 1200, "velocity": 100}, {"time": 132720, "pitch": 62, "duration": 1200, "velocity": 100}, {"time": 132720, "pitch": 65, "duration": 1200, "velocity": 110}, {"time": 133920, "pitch": 55, "duration": 220, "velocity": 100}, {"time": 133920, "pitch": 58, "duration": 220, "velocity": 90}, {"time": 133930, "pitch": 63, "duration": 220, "velocity": 90}, {"time": 133930, "pitch": 67, "duration": 220, "velocity": 100}, {"time": 134160, "pitch": 55, "duration": 160, "velocity": 110}, {"time": 134160, "pitch": 58, "duration": 160, "velocity": 100}, {"time": 134160, "pitch": 63, "duration": 160, "velocity": 100}, {"time": 134160, "pitch": 67, "duration": 160, "velocity": 110}, {"time": 134320, "pitch": 55, "duration": 80, "velocity": 80}, {"time": 134320, "pitch": 58, "duration": 80, "velocity": 70}, {"time": 134320, "pitch": 63, "duration": 80, "velocity": 70}, {"time": 134320, "pitch": 67, "duration": 80, "velocity": 80}, {"time": 134400, "pitch": 55, "duration": 220, "velocity": 100}, {"time": 134400, "pitch": 58, "duration": 220, "velocity": 90}, {"time": 134410, "pitch": 63, "duration": 220, "velocity": 90}, {"time": 134410, "pitch": 67, "duration": 220, "velocity": 100}, {"time": 134640, "pitch": 55, "duration": 160, "velocity": 110}, {"time": 134640, "pitch": 58, "duration": 160, "velocity": 100}, {"time": 134640, "pitch": 63, "duration": 160, "velocity": 100}, {"time": 134640, "pitch": 67, "duration": 160, "velocity": 110}, {"time": 134800, "pitch": 55, "duration": 80, "velocity": 80}, {"time": 134800, "pitch": 58, "duration": 80, "velocity": 70}, {"time": 134800, "pitch": 63, "duration": 80, "velocity": 70}, {"time": 134800, "pitch": 67, "duration": 80, "velocity": 80}, {"time": 134880, "pitch": 56, "duration": 220, "velocity": 100}, {"time": 134880, "pitch": 60, "duration": 220, "velocity": 90}, {"time": 134890, "pitch": 63, "duration": 220, "velocity": 90}, {"time": 134890, "pitch": 68, "duration": 220, "velocity": 100}, {"time": 135120, "pitch": 56, "duration": 160, "velocity": 110}, {"time": 135120, "pitch": 60, "duration": 160, "velocity": 100}, {"time": 135120, "pitch": 63, "duration": 160, "velocity": 100}, {"time": 135120, "pitch": 68, "duration": 160, "velocity": 110}, {"time": 135280, "pitch": 56, "duration": 80, "velocity": 80}, {"time": 135280, "pitch": 60, "duration": 80, "velocity": 70}, {"time": 135280, "pitch": 63, "duration": 80, "velocity": 70}, {"time": 135280, "pitch": 68, "duration": 80, "velocity": 80}, {"time": 135360, "pitch": 56, "duration": 220, "velocity": 100}, {"time": 135360, "pitch": 60, "duration": 220, "velocity": 90}, {"time": 135370, "pitch": 63, "duration": 220, "velocity": 90}, {"time": 135370, "pitch": 68, "duration": 220, "velocity": 100}, {"time": 135600, "pitch": 56, "duration": 160, "velocity": 110}, {"time": 135600, "pitch": 60, "duration": 160, "velocity": 100}, {"time": 135600, "pitch": 63, "duration": 160, "velocity": 100}, {"time": 135600, "pitch": 68, "duration": 160, "velocity": 110}, {"time": 135760, "pitch": 56, "duration": 80, "velocity": 80}, {"time": 135760, "pitch": 60, "duration": 80, "velocity": 70}, {"time": 135760, "pitch": 63, "duration": 80, "velocity": 70}, {"time": 135760, "pitch": 68, "duration": 80, "velocity": 80}, {"time": 135840, "pitch": 56, "duration": 220, "velocity": 100}, {"time": 135840, "pitch": 60, "duration": 220, "velocity": 90}, {"time": 135850, "pitch": 63, "duration": 220, "velocity": 90}, {"time": 135850, "pitch": 68, "duration": 220, "velocity": 100}, {"time": 136080, "pitch": 56, "duration": 160, "velocity": 110}, {"time": 136080, "pitch": 60, "duration": 160, "velocity": 100}, {"time": 136080, "pitch": 63, "duration": 160, "velocity": 100}, {"time": 136080, "pitch": 68, "duration": 160, "velocity": 110}, {"time": 136240, "pitch": 56, "duration": 80, "velocity": 80}, {"time": 136240, "pitch": 60, "duration": 80, "velocity": 70}, {"time": 136240, "pitch": 63, "duration": 80, "velocity": 70}, {"time": 136240, "pitch": 68, "duration": 80, "velocity": 80}, {"time": 136320, "pitch": 56, "duration": 220, "velocity": 100}, {"time": 136320, "pitch": 60, "duration": 220, "velocity": 90}, {"time": 136330, "pitch": 63, "duration": 220, "velocity": 90}, {"time": 136330, "pitch": 68, "duration": 220, "velocity": 100}, {"time": 136560, "pitch": 56, "duration": 160, "velocity": 110}, {"time": 136560, "pitch": 60, "duration": 160, "velocity": 100}, {"time": 136560, "pitch": 63, "duration": 160, "velocity": 100}, {"time": 136560, "pitch": 68, "duration": 160, "velocity": 110}, {"time": 136720, "pitch": 56, "duration": 80, "velocity": 80}, {"time": 136720, "pitch": 60, "duration": 80, "velocity": 70}, {"time": 136720, "pitch": 63, "duration": 80, "velocity": 70}, {"time": 136720, "pitch": 68, "duration": 80, "velocity": 80}, {"time": 136800, "pitch": 55, "duration": 220, "velocity": 100}, {"time": 136800, "pitch": 58, "duration": 220, "velocity": 90}, {"time": 136810, "pitch": 63, "duration": 220, "velocity": 90}, {"time": 136810, "pitch": 67, "duration": 220, "velocity": 100}, {"time": 137040, "pitch": 55, "duration": 160, "velocity": 110}, {"time": 137040, "pitch": 58, "duration": 160, "velocity": 100}, {"time": 137040, "pitch": 63, "duration": 160, "velocity": 100}, {"time": 137040, "pitch": 67, "duration": 160, "velocity": 110}, {"time": 137200, "pitch": 55, "duration": 80, "velocity": 80}, {"time": 137200, "pitch": 58, "duration": 80, "velocity": 70}, {"time": 137200, "pitch": 63, "duration": 80, "velocity": 70}, {"time": 137200, "pitch": 67, "duration": 80, "velocity": 80}, {"time": 137280, "pitch": 55, "duration": 220, "velocity": 100}, {"time": 137280, "pitch": 58, "duration": 220, "velocity": 90}, {"time": 137290, "pitch": 63, "duration": 220, "velocity": 90}, {"time": 137290, "pitch": 67, "duration": 220, "velocity": 100}, {"time": 137520, "pitch": 55, "duration": 160, "velocity": 110}, {"time": 137520, "pitch": 58, "duration": 160, "velocity": 100}, {"time": 137520, "pitch": 63, "duration": 160, "velocity": 100}, {"time": 137520, "pitch": 67, "duration": 160, "velocity": 110}, {"time": 137680, "pitch": 55, "duration": 80, "velocity": 80}, {"time": 137680, "pitch": 58, "duration": 80, "velocity": 70}, {"time": 137680, "pitch": 63, "duration": 80, "velocity": 70}, {"time": 137680, "pitch": 67, "duration": 80, "velocity": 80}, {"time": 137760, "pitch": 55, "duration": 220, "velocity": 100}, {"time": 137760, "pitch": 58, "duration": 220, "velocity": 90}, {"time": 137770, "pitch": 63, "duration": 220, "velocity": 90}, {"time": 137770, "pitch": 67, "duration": 220, "velocity": 100}, {"time": 138000, "pitch": 55, "duration": 160, "velocity": 110}, {"time": 138000, "pitch": 58, "duration": 160, "velocity": 100}, {"time": 138000, "pitch": 63, "duration": 160, "velocity": 100}, {"time": 138000, "pitch": 67, "duration": 160, "velocity": 110}, {"time": 138160, "pitch": 55, "duration": 80, "velocity": 80}, {"time": 138160, "pitch": 58, "duration": 80, "velocity": 70}, {"time": 138160, "pitch": 63, "duration": 80, "velocity": 70}, {"time": 138160, "pitch": 67, "duration": 80, "velocity": 80}, {"time": 138240, "pitch": 55, "duration": 220, "velocity": 100}, {"time": 138240, "pitch": 58, "duration": 220, "velocity": 90}, {"time": 138250, "pitch": 63, "duration": 220, "velocity": 90}, {"time": 138250, "pitch": 67, "duration": 220, "velocity": 100}, {"time": 138480, "pitch": 55, "duration": 160, "velocity": 110}, {"time": 138480, "pitch": 58, "duration": 160, "velocity": 100}, {"time": 138480, "pitch": 63, "duration": 160, "velocity": 100}, {"time": 138480, "pitch": 67, "duration": 160, "velocity": 110}, {"time": 138640, "pitch": 55, "duration": 80, "velocity": 80}, {"time": 138640, "pitch": 58, "duration": 80, "velocity": 70}, {"time": 138640, "pitch": 63, "duration": 80, "velocity": 70}, {"time": 138640, "pitch": 67, "duration": 80, "velocity": 80}, {"time": 138720, "pitch": 56, "duration": 220, "velocity": 100}, {"time": 138720, "pitch": 60, "duration": 220, "velocity": 90}, {"time": 138730, "pitch": 63, "duration": 220, "velocity": 90}, {"time": 138730, "pitch": 68, "duration": 220, "velocity": 100}, {"time": 138960, "pitch": 56, "duration": 160, "velocity": 110}, {"time": 138960, "pitch": 60, "duration": 160, "velocity": 100}, {"time": 138960, "pitch": 63, "duration": 160, "velocity": 100}, {"time": 138960, "pitch": 68, "duration": 160, "velocity": 110}, {"time": 139120, "pitch": 56, "duration": 80, "velocity": 80}, {"time": 139120, "pitch": 60, "duration": 80, "velocity": 70}, {"time": 139120, "pitch": 63, "duration": 80, "velocity": 70}, {"time": 139120, "pitch": 68, "duration": 80, "velocity": 80}, {"time": 139200, "pitch": 56, "duration": 220, "velocity": 100}, {"time": 139200, "pitch": 60, "duration": 220, "velocity": 90}, {"time": 139210, "pitch": 63, "duration": 220, "velocity": 90}, {"time": 139210, "pitch": 68, "duration": 220, "velocity": 100}, {"time": 139440, "pitch": 56, "duration": 160, "velocity": 110}, {"time": 139440, "pitch": 60, "duration": 160, "velocity": 100}, {"time": 139440, "pitch": 63, "duration": 160, "velocity": 100}, {"time": 139440, "pitch": 68, "duration": 160, "velocity": 110}, {"time": 139600, "pitch": 56, "duration": 80, "velocity": 80}, {"time": 139600, "pitch": 60, "duration": 80, "velocity": 70}, {"time": 139600, "pitch": 63, "duration": 80, "velocity": 70}, {"time": 139600, "pitch": 68, "duration": 80, "velocity": 80}, {"time": 139680, "pitch": 54, "duration": 220, "velocity": 100}, {"time": 139680, "pitch": 59, "duration": 220, "velocity": 90}, {"time": 139690, "pitch": 63, "duration": 220, "velocity": 90}, {"time": 139690, "pitch": 70, "duration": 220, "velocity": 100}, {"time": 139920, "pitch": 54, "duration": 160, "velocity": 110}, {"time": 139920, "pitch": 59, "duration": 160, "velocity": 100}, {"time": 139920, "pitch": 63, "duration": 160, "velocity": 100}, {"time": 139920, "pitch": 70, "duration": 160, "velocity": 110}, {"time": 140080, "pitch": 54, "duration": 80, "velocity": 80}, {"time": 140080, "pitch": 59, "duration": 80, "velocity": 70}, {"time": 140080, "pitch": 63, "duration": 80, "velocity": 70}, {"time": 140080, "pitch": 70, "duration": 80, "velocity": 80}, {"time": 140160, "pitch": 54, "duration": 220, "velocity": 100}, {"time": 140160, "pitch": 59, "duration": 220, "velocity": 90}, {"time": 140170, "pitch": 63, "duration": 220, "velocity": 90}, {"time": 140170, "pitch": 70, "duration": 220, "velocity": 100}, {"time": 140400, "pitch": 54, "duration": 160, "velocity": 110}, {"time": 140400, "pitch": 59, "duration": 160, "velocity": 100}, {"time": 140400, "pitch": 63, "duration": 160, "velocity": 100}, {"time": 140400, "pitch": 70, "duration": 160, "velocity": 110}, {"time": 140560, "pitch": 54, "duration": 80, "velocity": 80}, {"time": 140560, "pitch": 59, "duration": 80, "velocity": 70}, {"time": 140560, "pitch": 63, "duration": 80, "velocity": 70}, {"time": 140560, "pitch": 70, "duration": 80, "velocity": 80}, {"time": 140640, "pitch": 56, "duration": 920, "velocity": 100}, {"time": 140640, "pitch": 61, "duration": 920, "velocity": 90}, {"time": 140650, "pitch": 65, "duration": 920, "velocity": 90}, {"time": 140650, "pitch": 70, "duration": 920, "velocity": 100}, {"time": 148320, "pitch": 54, "duration": 10, "velocity": 80}, {"time": 148320, "pitch": 59, "duration": 10, "velocity": 70}, {"time": 148320, "pitch": 63, "duration": 10, "velocity": 70}, {"time": 148320, "pitch": 66, "duration": 10, "velocity": 80}, {"time": 148400, "pitch": 54, "duration": 80, "velocity": 110}, {"time": 148400, "pitch": 59, "duration": 80, "velocity": 100}, {"time": 148400, "pitch": 63, "duration": 80, "velocity": 100}, {"time": 148400, "pitch": 66, "duration": 80, "velocity": 110}, {"time": 148560, "pitch": 54, "duration": 220, "velocity": 100}, {"time": 148560, "pitch": 59, "duration": 220, "velocity": 90}, {"time": 148570, "pitch": 63, "duration": 220, "velocity": 90}, {"time": 148570, "pitch": 66, "duration": 220, "velocity": 100}, {"time": 148800, "pitch": 53, "duration": 10, "velocity": 80}, {"time": 148800, "pitch": 56, "duration": 10, "velocity": 70}, {"time": 148800, "pitch": 61, "duration": 10, "velocity": 70}, {"time": 148800, "pitch": 65, "duration": 10, "velocity": 80}, {"time": 148880, "pitch": 53, "duration": 80, "velocity": 110}, {"time": 148880, "pitch": 56, "duration": 80, "velocity": 100}, {"time": 148880, "pitch": 61, "duration": 80, "velocity": 100}, {"time": 148880, "pitch": 65, "duration": 80, "velocity": 110}, {"time": 149040, "pitch": 53, "duration": 220, "velocity": 100}, {"time": 149040, "pitch": 56, "duration": 220, "velocity": 90}, {"time": 149050, "pitch": 61, "duration": 220, "velocity": 90}, {"time": 149050, "pitch": 65, "duration": 220, "velocity": 100}, {"time": 149280, "pitch": 55, "duration": 220, "velocity": 100}, {"time": 149280, "pitch": 58, "duration": 220, "velocity": 90}, {"time": 149290, "pitch": 63, "duration": 220, "velocity": 90}, {"time": 149290, "pitch": 67, "duration": 220, "velocity": 100}, {"time": 149520, "pitch": 55, "duration": 160, "velocity": 110}, {"time": 149520, "pitch": 58, "duration": 160, "velocity": 100}, {"time": 149520, "pitch": 63, "duration": 160, "velocity": 100}, {"time": 149520, "pitch": 67, "duration": 160, "velocity": 110}, {"time": 149680, "pitch": 55, "duration": 80, "velocity": 80}, {"time": 149680, "pitch": 58, "duration": 80, "velocity": 70}, {"time": 149680, "pitch": 63, "duration": 80, "velocity": 70}, {"time": 149680, "pitch": 67, "duration": 80, "velocity": 80}, {"time": 149760, "pitch": 55, "duration": 220, "velocity": 100}, {"time": 149760, "pitch": 58, "duration": 220, "velocity": 90}, {"time": 149770, "pitch": 63, "duration": 220, "velocity": 90}, {"time": 149770, "pitch": 67, "duration": 220, "velocity": 100}, {"time": 150000, "pitch": 55, "duration": 160, "velocity": 110}, {"time": 150000, "pitch": 58, "duration": 160, "velocity": 100}, {"time": 150000, "pitch": 63, "duration": 160, "velocity": 100}, {"time": 150000, "pitch": 67, "duration": 160, "velocity": 110}, {"time": 150160, "pitch": 55, "duration": 80, "velocity": 80}, {"time": 150160, "pitch": 58, "duration": 80, "velocity": 70}, {"time": 150160, "pitch": 63, "duration": 80, "velocity": 70}, {"time": 150160, "pitch": 67, "duration": 80, "velocity": 80}, {"time": 150240, "pitch": 53, "duration": 220, "velocity": 100}, {"time": 150240, "pitch": 58, "duration": 220, "velocity": 90}, {"time": 150250, "pitch": 62, "duration": 220, "velocity": 90}, {"time": 150250, "pitch": 65, "duration": 220, "velocity": 100}, {"time": 150480, "pitch": 53, "duration": 160, "velocity": 110}, {"time": 150480, "pitch": 58, "duration": 160, "velocity": 100}, {"time": 150480, "pitch": 62, "duration": 160, "velocity": 100}, {"time": 150480, "pitch": 65, "duration": 160, "velocity": 110}, {"time": 150640, "pitch": 53, "duration": 80, "velocity": 80}, {"time": 150640, "pitch": 58, "duration": 80, "velocity": 70}, {"time": 150640, "pitch": 62, "duration": 80, "velocity": 70}, {"time": 150640, "pitch": 65, "duration": 80, "velocity": 80}, {"time": 150720, "pitch": 53, "duration": 220, "velocity": 100}, {"time": 150720, "pitch": 58, "duration": 220, "velocity": 90}, {"time": 150730, "pitch": 62, "duration": 220, "velocity": 90}, {"time": 150730, "pitch": 65, "duration": 220, "velocity": 100}, {"time": 150960, "pitch": 53, "duration": 160, "velocity": 110}, {"time": 150960, "pitch": 58, "duration": 160, "velocity": 100}, {"time": 150960, "pitch": 62, "duration": 160, "velocity": 100}, {"time": 150960, "pitch": 65, "duration": 160, "velocity": 110}, {"time": 151120, "pitch": 53, "duration": 80, "velocity": 80}, {"time": 151120, "pitch": 58, "duration": 80, "velocity": 70}, {"time": 151120, "pitch": 62, "duration": 80, "velocity": 70}, {"time": 151120, "pitch": 65, "duration": 80, "velocity": 80}, {"time": 151200, "pitch": 55, "duration": 220, "velocity": 100}, {"time": 151200, "pitch": 60, "duration": 220, "velocity": 90}, {"time": 151210, "pitch": 63, "duration": 220, "velocity": 90}, {"time": 151210, "pitch": 67, "duration": 220, "velocity": 100}, {"time": 151440, "pitch": 55, "duration": 160, "velocity": 110}, {"time": 151440, "pitch": 60, "duration": 160, "velocity": 100}, {"time": 151440, "pitch": 63, "duration": 160, "velocity": 100}, {"time": 151440, "pitch": 67, "duration": 160, "velocity": 110}, {"time": 151600, "pitch": 55, "duration": 80, "velocity": 80}, {"time": 151600, "pitch": 60, "duration": 80, "velocity": 70}, {"time": 151600, "pitch": 63, "duration": 80, "velocity": 70}, {"time": 151600, "pitch": 67, "duration": 80, "velocity": 80}, {"time": 151680, "pitch": 55, "duration": 220, "velocity": 100}, {"time": 151680, "pitch": 60, "duration": 220, "velocity": 90}, {"time": 151690, "pitch": 63, "duration": 220, "velocity": 90}, {"time": 151690, "pitch": 67, "duration": 220, "velocity": 100}, {"time": 151920, "pitch": 55, "duration": 160, "velocity": 110}, {"time": 151920, "pitch": 60, "duration": 160, "velocity": 100}, {"time": 151920, "pitch": 63, "duration": 160, "velocity": 100}, {"time": 151920, "pitch": 67, "duration": 160, "velocity": 110}, {"time": 152080, "pitch": 55, "duration": 80, "velocity": 80}, {"time": 152080, "pitch": 60, "duration": 80, "velocity": 70}, {"time": 152080, "pitch": 63, "duration": 80, "velocity": 70}, {"time": 152080, "pitch": 67, "duration": 80, "velocity": 80}, {"time": 152160, "pitch": 53, "duration": 220, "velocity": 100}, {"time": 152160, "pitch": 58, "duration": 220, "velocity": 90}, {"time": 152170, "pitch": 62, "duration": 220, "velocity": 90}, {"time": 152170, "pitch": 67, "duration": 220, "velocity": 100}, {"time": 152400, "pitch": 53, "duration": 160, "velocity": 110}, {"time": 152400, "pitch": 58, "duration": 160, "velocity": 100}, {"time": 152400, "pitch": 62, "duration": 160, "velocity": 100}, {"time": 152400, "pitch": 67, "duration": 160, "velocity": 110}, {"time": 152560, "pitch": 53, "duration": 80, "velocity": 80}, {"time": 152560, "pitch": 58, "duration": 80, "velocity": 70}, {"time": 152560, "pitch": 62, "duration": 80, "velocity": 70}, {"time": 152560, "pitch": 67, "duration": 80, "velocity": 80}, {"time": 152640, "pitch": 53, "duration": 220, "velocity": 100}, {"time": 152640, "pitch": 58, "duration": 220, "velocity": 90}, {"time": 152650, "pitch": 62, "duration": 220, "velocity": 90}, {"time": 152650, "pitch": 67, "duration": 220, "velocity": 100}, {"time": 152880, "pitch": 53, "duration": 160, "velocity": 110}, {"time": 152880, "pitch": 58, "duration": 160, "velocity": 100}, {"time": 152880, "pitch": 62, "duration": 160, "velocity": 100}, {"time": 152880, "pitch": 67, "duration": 160, "velocity": 110}, {"time": 153040, "pitch": 53, "duration": 80, "velocity": 80}, {"time": 153040, "pitch": 58, "duration": 80, "velocity": 70}, {"time": 153040, "pitch": 62, "duration": 80, "velocity": 70}, {"time": 153040, "pitch": 67, "duration": 80, "velocity": 80}, {"time": 153120, "pitch": 56, "duration": 220, "velocity": 100}, {"time": 153120, "pitch": 60, "duration": 220, "velocity": 90}, {"time": 153130, "pitch": 63, "duration": 220, "velocity": 90}, {"time": 153130, "pitch": 68, "duration": 220, "velocity": 100}, {"time": 153360, "pitch": 56, "duration": 160, "velocity": 110}, {"time": 153360, "pitch": 60, "duration": 160, "velocity": 100}, {"time": 153360, "pitch": 63, "duration": 160, "velocity": 100}, {"time": 153360, "pitch": 68, "duration": 160, "velocity": 110}, {"time": 153520, "pitch": 56, "duration": 80, "velocity": 80}, {"time": 153520, "pitch": 60, "duration": 80, "velocity": 70}, {"time": 153520, "pitch": 63, "duration": 80, "velocity": 70}, {"time": 153520, "pitch": 68, "duration": 80, "velocity": 80}, {"time": 153600, "pitch": 56, "duration": 220, "velocity": 100}, {"time": 153600, "pitch": 60, "duration": 220, "velocity": 90}, {"time": 153610, "pitch": 63, "duration": 220, "velocity": 90}, {"time": 153610, "pitch": 68, "duration": 220, "velocity": 100}, {"time": 153840, "pitch": 56, "duration": 160, "velocity": 110}, {"time": 153840, "pitch": 60, "duration": 160, "velocity": 100}, {"time": 153840, "pitch": 63, "duration": 160, "velocity": 100}, {"time": 153840, "pitch": 68, "duration": 160, "velocity": 110}, {"time": 154000, "pitch": 56, "duration": 80, "velocity": 80}, {"time": 154000, "pitch": 60, "duration": 80, "velocity": 70}, {"time": 154000, "pitch": 63, "duration": 80, "velocity": 70}, {"time": 154000, "pitch": 68, "duration": 80, "velocity": 80}, {"time": 154080, "pitch": 55, "duration": 220, "velocity": 100}, {"time": 154080, "pitch": 58, "duration": 220, "velocity": 90}, {"time": 154090, "pitch": 63, "duration": 220, "velocity": 90}, {"time": 154090, "pitch": 67, "duration": 220, "velocity": 100}, {"time": 154320, "pitch": 55, "duration": 160, "velocity": 110}, {"time": 154320, "pitch": 58, "duration": 160, "velocity": 100}, {"time": 154320, "pitch": 63, "duration": 160, "velocity": 100}, {"time": 154320, "pitch": 67, "duration": 160, "velocity": 110}, {"time": 154480, "pitch": 55, "duration": 80, "velocity": 80}, {"time": 154480, "pitch": 58, "duration": 80, "velocity": 70}, {"time": 154480, "pitch": 63, "duration": 80, "velocity": 70}, {"time": 154480, "pitch": 67, "duration": 80, "velocity": 80}, {"time": 154560, "pitch": 55, "duration": 220, "velocity": 100}, {"time": 154560, "pitch": 58, "duration": 220, "velocity": 90}, {"time": 154570, "pitch": 63, "duration": 220, "velocity": 90}, {"time": 154570, "pitch": 67, "duration": 220, "velocity": 100}, {"time": 154800, "pitch": 55, "duration": 160, "velocity": 110}, {"time": 154800, "pitch": 58, "duration": 160, "velocity": 100}, {"time": 154800, "pitch": 63, "duration": 160, "velocity": 100}, {"time": 154800, "pitch": 67, "duration": 160, "velocity": 110}, {"time": 154960, "pitch": 55, "duration": 80, "velocity": 80}, {"time": 154960, "pitch": 58, "duration": 80, "velocity": 70}, {"time": 154960, "pitch": 63, "duration": 80, "velocity": 70}, {"time": 154960, "pitch": 67, "duration": 80, "velocity": 80}, {"time": 155040, "pitch": 56, "duration": 220, "velocity": 100}, {"time": 155040, "pitch": 60, "duration": 220, "velocity": 90}, {"time": 155050, "pitch": 63, "duration": 220, "velocity": 90}, {"time": 155050, "pitch": 68, "duration": 220, "velocity": 100}, {"time": 155280, "pitch": 56, "duration": 160, "velocity": 110}, {"time": 155280, "pitch": 60, "duration": 160, "velocity": 100}, {"time": 155280, "pitch": 63, "duration": 160, "velocity": 100}, {"time": 155280, "pitch": 68, "duration": 160, "velocity": 110}, {"time": 155440, "pitch": 56, "duration": 80, "velocity": 80}, {"time": 155440, "pitch": 60, "duration": 80, "velocity": 70}, {"time": 155440, "pitch": 63, "duration": 80, "velocity": 70}, {"time": 155440, "pitch": 68, "duration": 80, "velocity": 80}, {"time": 155520, "pitch": 56, "duration": 220, "velocity": 100}, {"time": 155520, "pitch": 60, "duration": 220, "velocity": 90}, {"time": 155530, "pitch": 63, "duration": 220, "velocity": 90}, {"time": 155530, "pitch": 68, "duration": 220, "velocity": 100}, {"time": 155760, "pitch": 56, "duration": 160, "velocity": 110}, {"time": 155760, "pitch": 60, "duration": 160, "velocity": 100}, {"time": 155760, "pitch": 63, "duration": 160, "velocity": 100}, {"time": 155760, "pitch": 68, "duration": 160, "velocity": 110}, {"time": 155920, "pitch": 56, "duration": 80, "velocity": 80}, {"time": 155920, "pitch": 60, "duration": 80, "velocity": 70}, {"time": 155920, "pitch": 63, "duration": 80, "velocity": 70}, {"time": 155920, "pitch": 68, "duration": 80, "velocity": 80}, {"time": 156000, "pitch": 54, "duration": 220, "velocity": 100}, {"time": 156000, "pitch": 59, "duration": 220, "velocity": 90}, {"time": 156010, "pitch": 63, "duration": 220, "velocity": 90}, {"time": 156010, "pitch": 69, "duration": 220, "velocity": 100}, {"time": 156240, "pitch": 54, "duration": 160, "velocity": 110}, {"time": 156240, "pitch": 59, "duration": 160, "velocity": 100}, {"time": 156240, "pitch": 63, "duration": 160, "velocity": 100}, {"time": 156240, "pitch": 69, "duration": 160, "velocity": 110}, {"time": 156400, "pitch": 54, "duration": 80, "velocity": 80}, {"time": 156400, "pitch": 59, "duration": 80, "velocity": 70}, {"time": 156400, "pitch": 63, "duration": 80, "velocity": 70}, {"time": 156400, "pitch": 69, "duration": 80, "velocity": 80}, {"time": 156480, "pitch": 54, "duration": 220, "velocity": 100}, {"time": 156480, "pitch": 59, "duration": 220, "velocity": 90}, {"time": 156490, "pitch": 63, "duration": 220, "velocity": 90}, {"time": 156490, "pitch": 69, "duration": 220, "velocity": 100}, {"time": 156720, "pitch": 54, "duration": 160, "velocity": 110}, {"time": 156720, "pitch": 59, "duration": 160, "velocity": 100}, {"time": 156720, "pitch": 63, "duration": 160, "velocity": 100}, {"time": 156720, "pitch": 69, "duration": 160, "velocity": 110}, {"time": 156880, "pitch": 54, "duration": 80, "velocity": 80}, {"time": 156880, "pitch": 59, "duration": 80, "velocity": 70}, {"time": 156880, "pitch": 63, "duration": 80, "velocity": 70}, {"time": 156880, "pitch": 69, "duration": 80, "velocity": 80}, {"time": 156960, "pitch": 56, "duration": 220, "velocity": 100}, {"time": 156960, "pitch": 59, "duration": 220, "velocity": 90}, {"time": 156970, "pitch": 64, "duration": 220, "velocity": 90}, {"time": 156970, "pitch": 68, "duration": 220, "velocity": 100}, {"time": 157200, "pitch": 56, "duration": 160, "velocity": 110}, {"time": 157200, "pitch": 59, "duration": 160, "velocity": 100}, {"time": 157200, "pitch": 64, "duration": 160, "velocity": 100}, {"time": 157200, "pitch": 68, "duration": 160, "velocity": 110}, {"time": 157360, "pitch": 56, "duration": 80, "velocity": 80}, {"time": 157360, "pitch": 59, "duration": 80, "velocity": 70}, {"time": 157360, "pitch": 64, "duration": 80, "velocity": 70}, {"time": 157360, "pitch": 68, "duration": 80, "velocity": 80}, {"time": 157440, "pitch": 56, "duration": 220, "velocity": 100}, {"time": 157440, "pitch": 59, "duration": 220, "velocity": 90}, {"time": 157450, "pitch": 64, "duration": 220, "velocity": 90}, {"time": 157450, "pitch": 68, "duration": 220, "velocity": 100}, {"time": 157680, "pitch": 56, "duration": 160, "velocity": 110}, {"time": 157680, "pitch": 59, "duration": 160, "velocity": 100}, {"time": 157680, "pitch": 64, "duration": 160, "velocity": 100}, {"time": 157680, "pitch": 68, "duration": 160, "velocity": 110}, {"time": 157840, "pitch": 56, "duration": 80, "velocity": 80}, {"time": 157840, "pitch": 59, "duration": 80, "velocity": 70}, {"time": 157840, "pitch": 64, "duration": 80, "velocity": 70}, {"time": 157840, "pitch": 68, "duration": 80, "velocity": 80}, {"time": 157920, "pitch": 54, "duration": 220, "velocity": 100}, {"time": 157920, "pitch": 59, "duration": 220, "velocity": 90}, {"time": 157930, "pitch": 63, "duration": 220, "velocity": 90}, {"time": 157930, "pitch": 66, "duration": 220, "velocity": 100}, {"time": 158160, "pitch": 54, "duration": 160, "velocity": 110}, {"time": 158160, "pitch": 59, "duration": 160, "velocity": 100}, {"time": 158160, "pitch": 63, "duration": 160, "velocity": 100}, {"time": 158160, "pitch": 66, "duration": 160, "velocity": 110}, {"time": 158320, "pitch": 54, "duration": 80, "velocity": 80}, {"time": 158320, "pitch": 59, "duration": 80, "velocity": 70}, {"time": 158320, "pitch": 63, "duration": 80, "velocity": 70}, {"time": 158320, "pitch": 66, "duration": 80, "velocity": 80}, {"time": 158400, "pitch": 54, "duration": 220, "velocity": 100}, {"time": 158400, "pitch": 59, "duration": 220, "velocity": 90}, {"time": 158410, "pitch": 63, "duration": 220, "velocity": 90}, {"time": 158410, "pitch": 66, "duration": 220, "velocity": 100}, {"time": 158640, "pitch": 54, "duration": 160, "velocity": 110}, {"time": 158640, "pitch": 59, "duration": 160, "velocity": 100}, {"time": 158640, "pitch": 63, "duration": 160, "velocity": 100}, {"time": 158640, "pitch": 66, "duration": 160, "velocity": 110}, {"time": 158800, "pitch": 54, "duration": 80, "velocity": 80}, {"time": 158800, "pitch": 59, "duration": 80, "velocity": 70}, {"time": 158800, "pitch": 63, "duration": 80, "velocity": 70}, {"time": 158800, "pitch": 66, "duration": 80, "velocity": 80}, {"time": 158880, "pitch": 56, "duration": 220, "velocity": 100}, {"time": 158880, "pitch": 61, "duration": 220, "velocity": 90}, {"time": 158890, "pitch": 64, "duration": 220, "velocity": 90}, {"time": 158890, "pitch": 68, "duration": 220, "velocity": 100}, {"time": 159120, "pitch": 56, "duration": 160, "velocity": 110}, {"time": 159120, "pitch": 61, "duration": 160, "velocity": 100}, {"time": 159120, "pitch": 64, "duration": 160, "velocity": 100}, {"time": 159120, "pitch": 68, "duration": 160, "velocity": 110}, {"time": 159280, "pitch": 56, "duration": 80, "velocity": 80}, {"time": 159280, "pitch": 61, "duration": 80, "velocity": 70}, {"time": 159280, "pitch": 64, "duration": 80, "velocity": 70}, {"time": 159280, "pitch": 68, "duration": 80, "velocity": 80}, {"time": 159360, "pitch": 56, "duration": 220, "velocity": 100}, {"time": 159360, "pitch": 61, "duration": 220, "velocity": 90}, {"time": 159370, "pitch": 64, "duration": 220, "velocity": 90}, {"time": 159370, "pitch": 68, "duration": 220, "velocity": 100}, {"time": 159600, "pitch": 56, "duration": 160, "velocity": 110}, {"time": 159600, "pitch": 61, "duration": 160, "velocity": 100}, {"time": 159600, "pitch": 64, "duration": 160, "velocity": 100}, {"time": 159600, "pitch": 68, "duration": 160, "velocity": 110}, {"time": 159760, "pitch": 56, "duration": 80, "velocity": 80}, {"time": 159760, "pitch": 61, "duration": 80, "velocity": 70}, {"time": 159760, "pitch": 64, "duration": 80, "velocity": 70}, {"time": 159760, "pitch": 68, "duration": 80, "velocity": 80}, {"time": 159840, "pitch": 54, "duration": 220, "velocity": 100}, {"time": 159840, "pitch": 59, "duration": 220, "velocity": 90}, {"time": 159850, "pitch": 63, "duration": 220, "velocity": 90}, {"time": 159850, "pitch": 68, "duration": 220, "velocity": 100}, {"time": 160080, "pitch": 54, "duration": 160, "velocity": 110}, {"time": 160080, "pitch": 59, "duration": 160, "velocity": 100}, {"time": 160080, "pitch": 63, "duration": 160, "velocity": 100}, {"time": 160080, "pitch": 68, "duration": 160, "velocity": 110}, {"time": 160240, "pitch": 54, "duration": 80, "velocity": 80}, {"time": 160240, "pitch": 59, "duration": 80, "velocity": 70}, {"time": 160240, "pitch": 63, "duration": 80, "velocity": 70}, {"time": 160240, "pitch": 68, "duration": 80, "velocity": 80}, {"time": 160320, "pitch": 54, "duration": 220, "velocity": 100}, {"time": 160320, "pitch": 59, "duration": 220, "velocity": 90}, {"time": 160330, "pitch": 63, "duration": 220, "velocity": 90}, {"time": 160330, "pitch": 68, "duration": 220, "velocity": 100}, {"time": 160560, "pitch": 54, "duration": 160, "velocity": 110}, {"time": 160560, "pitch": 59, "duration": 160, "velocity": 100}, {"time": 160560, "pitch": 63, "duration": 160, "velocity": 100}, {"time": 160560, "pitch": 68, "duration": 160, "velocity": 110}, {"time": 160720, "pitch": 54, "duration": 80, "velocity": 80}, {"time": 160720, "pitch": 59, "duration": 80, "velocity": 70}, {"time": 160720, "pitch": 63, "duration": 80, "velocity": 70}, {"time": 160720, "pitch": 68, "duration": 80, "velocity": 80}, {"time": 160800, "pitch": 57, "duration": 220, "velocity": 100}, {"time": 160800, "pitch": 61, "duration": 220, "velocity": 90}, {"time": 160810, "pitch": 64, "duration": 220, "velocity": 90}, {"time": 160810, "pitch": 69, "duration": 220, "velocity": 100}, {"time": 161040, "pitch": 57, "duration": 160, "velocity": 110}, {"time": 161040, "pitch": 61, "duration": 160, "velocity": 100}, {"time": 161040, "pitch": 64, "duration": 160, "velocity": 100}, {"time": 161040, "pitch": 69, "duration": 160, "velocity": 110}, {"time": 161200, "pitch": 57, "duration": 80, "velocity": 80}, {"time": 161200, "pitch": 61, "duration": 80, "velocity": 70}, {"time": 161200, "pitch": 64, "duration": 80, "velocity": 70}, {"time": 161200, "pitch": 69, "duration": 80, "velocity": 80}, {"time": 161280, "pitch": 57, "duration": 220, "velocity": 100}, {"time": 161280, "pitch": 61, "duration": 220, "velocity": 90}, {"time": 161290, "pitch": 64, "duration": 220, "velocity": 90}, {"time": 161290, "pitch": 69, "duration": 220, "velocity": 100}, {"time": 161520, "pitch": 57, "duration": 160, "velocity": 110}, {"time": 161520, "pitch": 61, "duration": 160, "velocity": 100}, {"time": 161520, "pitch": 64, "duration": 160, "velocity": 100}, {"time": 161520, "pitch": 69, "duration": 160, "velocity": 110}, {"time": 161680, "pitch": 57, "duration": 80, "velocity": 80}, {"time": 161680, "pitch": 61, "duration": 80, "velocity": 70}, {"time": 161680, "pitch": 64, "duration": 80, "velocity": 70}, {"time": 161680, "pitch": 69, "duration": 80, "velocity": 80}, {"time": 161760, "pitch": 56, "duration": 220, "velocity": 100}, {"time": 161760, "pitch": 59, "duration": 220, "velocity": 90}, {"time": 161770, "pitch": 64, "duration": 220, "velocity": 90}, {"time": 161770, "pitch": 68, "duration": 220, "velocity": 100}, {"time": 162000, "pitch": 56, "duration": 160, "velocity": 110}, {"time": 162000, "pitch": 59, "duration": 160, "velocity": 100}, {"time": 162000, "pitch": 64, "duration": 160, "velocity": 100}, {"time": 162000, "pitch": 68, "duration": 160, "velocity": 110}, {"time": 162160, "pitch": 56, "duration": 80, "velocity": 80}, {"time": 162160, "pitch": 59, "duration": 80, "velocity": 70}, {"time": 162160, "pitch": 64, "duration": 80, "velocity": 70}, {"time": 162160, "pitch": 68, "duration": 80, "velocity": 80}, {"time": 162240, "pitch": 56, "duration": 220, "velocity": 100}, {"time": 162240, "pitch": 59, "duration": 220, "velocity": 90}, {"time": 162250, "pitch": 64, "duration": 220, "velocity": 90}, {"time": 162250, "pitch": 68, "duration": 220, "velocity": 100}, {"time": 162480, "pitch": 56, "duration": 160, "velocity": 110}, {"time": 162480, "pitch": 59, "duration": 160, "velocity": 100}, {"time": 162480, "pitch": 64, "duration": 160, "velocity": 100}, {"time": 162480, "pitch": 68, "duration": 160, "velocity": 110}, {"time": 162640, "pitch": 56, "duration": 80, "velocity": 80}, {"time": 162640, "pitch": 59, "duration": 80, "velocity": 70}, {"time": 162640, "pitch": 64, "duration": 80, "velocity": 70}, {"time": 162640, "pitch": 68, "duration": 80, "velocity": 80}, {"time": 162720, "pitch": 57, "duration": 220, "velocity": 100}, {"time": 162720, "pitch": 61, "duration": 220, "velocity": 90}, {"time": 162730, "pitch": 64, "duration": 220, "velocity": 90}, {"time": 162730, "pitch": 69, "duration": 220, "velocity": 100}, {"time": 162960, "pitch": 57, "duration": 160, "velocity": 110}, {"time": 162960, "pitch": 61, "duration": 160, "velocity": 100}, {"time": 162960, "pitch": 64, "duration": 160, "velocity": 100}, {"time": 162960, "pitch": 69, "duration": 160, "velocity": 110}, {"time": 163120, "pitch": 57, "duration": 80, "velocity": 80}, {"time": 163120, "pitch": 61, "duration": 80, "velocity": 70}, {"time": 163120, "pitch": 64, "duration": 80, "velocity": 70}, {"time": 163120, "pitch": 69, "duration": 80, "velocity": 80}, {"time": 163200, "pitch": 57, "duration": 220, "velocity": 100}, {"time": 163200, "pitch": 61, "duration": 220, "velocity": 90}, {"time": 163210, "pitch": 64, "duration": 220, "velocity": 90}, {"time": 163210, "pitch": 69, "duration": 220, "velocity": 100}, {"time": 163440, "pitch": 57, "duration": 160, "velocity": 110}, {"time": 163440, "pitch": 61, "duration": 160, "velocity": 100}, {"time": 163440, "pitch": 64, "duration": 160, "velocity": 100}, {"time": 163440, "pitch": 69, "duration": 160, "velocity": 110}, {"time": 163600, "pitch": 57, "duration": 80, "velocity": 80}, {"time": 163600, "pitch": 61, "duration": 80, "velocity": 70}, {"time": 163600, "pitch": 64, "duration": 80, "velocity": 70}, {"time": 163600, "pitch": 69, "duration": 80, "velocity": 80}, {"time": 163680, "pitch": 55, "duration": 10, "velocity": 80}, {"time": 163680, "pitch": 60, "duration": 10, "velocity": 70}, {"time": 163680, "pitch": 64, "duration": 10, "velocity": 70}, {"time": 163680, "pitch": 67, "duration": 10, "velocity": 80}, {"time": 163760, "pitch": 55, "duration": 80, "velocity": 110}, {"time": 163760, "pitch": 60, "duration": 80, "velocity": 100}, {"time": 163760, "pitch": 64, "duration": 80, "velocity": 100}, {"time": 163760, "pitch": 67, "duration": 80, "velocity": 110}, {"time": 163920, "pitch": 55, "duration": 220, "velocity": 100}, {"time": 163920, "pitch": 60, "duration": 220, "velocity": 90}, {"time": 163930, "pitch": 64, "duration": 220, "velocity": 90}, {"time": 163930, "pitch": 67, "duration": 220, "velocity": 100}, {"time": 164160, "pitch": 54, "duration": 10, "velocity": 80}, {"time": 164160, "pitch": 57, "duration": 10, "velocity": 70}, {"time": 164160, "pitch": 62, "duration": 10, "velocity": 70}, {"time": 164160, "pitch": 66, "duration": 10, "velocity": 80}, {"time": 164240, "pitch": 54, "duration": 80, "velocity": 110}, {"time": 164240, "pitch": 57, "duration": 80, "velocity": 100}, {"time": 164240, "pitch": 62, "duration": 80, "velocity": 100}, {"time": 164240, "pitch": 66, "duration": 80, "velocity": 110}, {"time": 164400, "pitch": 54, "duration": 220, "velocity": 100}, {"time": 164400, "pitch": 57, "duration": 220, "velocity": 90}, {"time": 164410, "pitch": 62, "duration": 220, "velocity": 90}, {"time": 164410, "pitch": 66, "duration": 220, "velocity": 100}, {"time": 164640, "pitch": 56, "duration": 220, "velocity": 100}, {"time": 164640, "pitch": 59, "duration": 220, "velocity": 90}, {"time": 164650, "pitch": 64, "duration": 220, "velocity": 90}, {"time": 164650, "pitch": 68, "duration": 220, "velocity": 100}, {"time": 164880, "pitch": 56, "duration": 160, "velocity": 110}, {"time": 164880, "pitch": 59, "duration": 160, "velocity": 100}, {"time": 164880, "pitch": 64, "duration": 160, "velocity": 100}, {"time": 164880, "pitch": 68, "duration": 160, "velocity": 110}, {"time": 165040, "pitch": 56, "duration": 80, "velocity": 80}, {"time": 165040, "pitch": 59, "duration": 80, "velocity": 70}, {"time": 165040, "pitch": 64, "duration": 80, "velocity": 70}, {"time": 165040, "pitch": 68, "duration": 80, "velocity": 80}, {"time": 165120, "pitch": 56, "duration": 220, "velocity": 100}, {"time": 165120, "pitch": 59, "duration": 220, "velocity": 90}, {"time": 165130, "pitch": 64, "duration": 220, "velocity": 90}, {"time": 165130, "pitch": 68, "duration": 220, "velocity": 100}, {"time": 165360, "pitch": 56, "duration": 160, "velocity": 110}, {"time": 165360, "pitch": 59, "duration": 160, "velocity": 100}, {"time": 165360, "pitch": 64, "duration": 160, "velocity": 100}, {"time": 165360, "pitch": 68, "duration": 160, "velocity": 110}, {"time": 165520, "pitch": 56, "duration": 80, "velocity": 80}, {"time": 165520, "pitch": 59, "duration": 80, "velocity": 70}, {"time": 165520, "pitch": 64, "duration": 80, "velocity": 70}, {"time": 165520, "pitch": 68, "duration": 80, "velocity": 80}, {"time": 165600, "pitch": 54, "duration": 220, "velocity": 100}, {"time": 165600, "pitch": 59, "duration": 220, "velocity": 90}, {"time": 165610, "pitch": 63, "duration": 220, "velocity": 90}, {"time": 165610, "pitch": 66, "duration": 220, "velocity": 100}, {"time": 165840, "pitch": 54, "duration": 160, "velocity": 110}, {"time": 165840, "pitch": 59, "duration": 160, "velocity": 100}, {"time": 165840, "pitch": 63, "duration": 160, "velocity": 100}, {"time": 165840, "pitch": 66, "duration": 160, "velocity": 110}, {"time": 166000, "pitch": 54, "duration": 80, "velocity": 80}, {"time": 166000, "pitch": 59, "duration": 80, "velocity": 70}, {"time": 166000, "pitch": 63, "duration": 80, "velocity": 70}, {"time": 166000, "pitch": 66, "duration": 80, "velocity": 80}, {"time": 166080, "pitch": 54, "duration": 220, "velocity": 100}, {"time": 166080, "pitch": 59, "duration": 220, "velocity": 90}, {"time": 166090, "pitch": 63, "duration": 220, "velocity": 90}, {"time": 166090, "pitch": 66, "duration": 220, "velocity": 100}, {"time": 166320, "pitch": 54, "duration": 160, "velocity": 110}, {"time": 166320, "pitch": 59, "duration": 160, "velocity": 100}, {"time": 166320, "pitch": 63, "duration": 160, "velocity": 100}, {"time": 166320, "pitch": 66, "duration": 160, "velocity": 110}, {"time": 166480, "pitch": 54, "duration": 80, "velocity": 80}, {"time": 166480, "pitch": 59, "duration": 80, "velocity": 70}, {"time": 166480, "pitch": 63, "duration": 80, "velocity": 70}, {"time": 166480, "pitch": 66, "duration": 80, "velocity": 80}, {"time": 166560, "pitch": 56, "duration": 220, "velocity": 100}, {"time": 166560, "pitch": 61, "duration": 220, "velocity": 90}, {"time": 166570, "pitch": 64, "duration": 220, "velocity": 90}, {"time": 166570, "pitch": 68, "duration": 220, "velocity": 100}, {"time": 166800, "pitch": 56, "duration": 160, "velocity": 110}, {"time": 166800, "pitch": 61, "duration": 160, "velocity": 100}, {"time": 166800, "pitch": 64, "duration": 160, "velocity": 100}, {"time": 166800, "pitch": 68, "duration": 160, "velocity": 110}, {"time": 166960, "pitch": 56, "duration": 80, "velocity": 80}, {"time": 166960, "pitch": 61, "duration": 80, "velocity": 70}, {"time": 166960, "pitch": 64, "duration": 80, "velocity": 70}, {"time": 166960, "pitch": 68, "duration": 80, "velocity": 80}, {"time": 167040, "pitch": 56, "duration": 220, "velocity": 100}, {"time": 167040, "pitch": 61, "duration": 220, "velocity": 90}, {"time": 167050, "pitch": 64, "duration": 220, "velocity": 90}, {"time": 167050, "pitch": 68, "duration": 220, "velocity": 100}, {"time": 167280, "pitch": 56, "duration": 160, "velocity": 110}, {"time": 167280, "pitch": 61, "duration": 160, "velocity": 100}, {"time": 167280, "pitch": 64, "duration": 160, "velocity": 100}, {"time": 167280, "pitch": 68, "duration": 160, "velocity": 110}, {"time": 167440, "pitch": 56, "duration": 80, "velocity": 80}, {"time": 167440, "pitch": 61, "duration": 80, "velocity": 70}, {"time": 167440, "pitch": 64, "duration": 80, "velocity": 70}, {"time": 167440, "pitch": 68, "duration": 80, "velocity": 80}, {"time": 167520, "pitch": 54, "duration": 220, "velocity": 100}, {"time": 167520, "pitch": 59, "duration": 220, "velocity": 90}, {"time": 167530, "pitch": 63, "duration": 220, "velocity": 90}, {"time": 167530, "pitch": 68, "duration": 220, "velocity": 100}, {"time": 167760, "pitch": 54, "duration": 160, "velocity": 110}, {"time": 167760, "pitch": 59, "duration": 160, "velocity": 100}, {"time": 167760, "pitch": 63, "duration": 160, "velocity": 100}, {"time": 167760, "pitch": 68, "duration": 160, "velocity": 110}, {"time": 167920, "pitch": 54, "duration": 80, "velocity": 80}, {"time": 167920, "pitch": 59, "duration": 80, "velocity": 70}, {"time": 167920, "pitch": 63, "duration": 80, "velocity": 70}, {"time": 167920, "pitch": 68, "duration": 80, "velocity": 80}, {"time": 168000, "pitch": 54, "duration": 220, "velocity": 100}, {"time": 168000, "pitch": 59, "duration": 220, "velocity": 90}, {"time": 168010, "pitch": 63, "duration": 220, "velocity": 90}, {"time": 168010, "pitch": 68, "duration": 220, "velocity": 100}, {"time": 168240, "pitch": 54, "duration": 160, "velocity": 110}, {"time": 168240, "pitch": 59, "duration": 160, "velocity": 100}, {"time": 168240, "pitch": 63, "duration": 160, "velocity": 100}, {"time": 168240, "pitch": 68, "duration": 160, "velocity": 110}, {"time": 168400, "pitch": 54, "duration": 80, "velocity": 80}, {"time": 168400, "pitch": 59, "duration": 80, "velocity": 70}, {"time": 168400, "pitch": 63, "duration": 80, "velocity": 70}, {"time": 168400, "pitch": 68, "duration": 80, "velocity": 80}, {"time": 168480, "pitch": 57, "duration": 220, "velocity": 100}, {"time": 168480, "pitch": 61, "duration": 220, "velocity": 90}, {"time": 168490, "pitch": 64, "duration": 220, "velocity": 90}, {"time": 168490, "pitch": 69, "duration": 220, "velocity": 100}, {"time": 168720, "pitch": 57, "duration": 160, "velocity": 110}, {"time": 168720, "pitch": 61, "duration": 160, "velocity": 100}, {"time": 168720, "pitch": 64, "duration": 160, "velocity": 100}, {"time": 168720, "pitch": 69, "duration": 160, "velocity": 110}, {"time": 168880, "pitch": 57, "duration": 80, "velocity": 80}, {"time": 168880, "pitch": 61, "duration": 80, "velocity": 70}, {"time": 168880, "pitch": 64, "duration": 80, "velocity": 70}, {"time": 168880, "pitch": 69, "duration": 80, "velocity": 80}, {"time": 168960, "pitch": 57, "duration": 220, "velocity": 100}, {"time": 168960, "pitch": 61, "duration": 220, "velocity": 90}, {"time": 168970, "pitch": 64, "duration": 220, "velocity": 90}, {"time": 168970, "pitch": 69, "duration": 220, "velocity": 100}, {"time": 169200, "pitch": 57, "duration": 160, "velocity": 110}, {"time": 169200, "pitch": 61, "duration": 160, "velocity": 100}, {"time": 169200, "pitch": 64, "duration": 160, "velocity": 100}, {"time": 169200, "pitch": 69, "duration": 160, "velocity": 110}, {"time": 169360, "pitch": 57, "duration": 80, "velocity": 80}, {"time": 169360, "pitch": 61, "duration": 80, "velocity": 70}, {"time": 169360, "pitch": 64, "duration": 80, "velocity": 70}, {"time": 169360, "pitch": 69, "duration": 80, "velocity": 80}, {"time": 169440, "pitch": 56, "duration": 220, "velocity": 100}, {"time": 169440, "pitch": 59, "duration": 220, "velocity": 90}, {"time": 169450, "pitch": 64, "duration": 220, "velocity": 90}, {"time": 169450, "pitch": 68, "duration": 220, "velocity": 100}, {"time": 169680, "pitch": 56, "duration": 160, "velocity": 110}, {"time": 169680, "pitch": 59, "duration": 160, "velocity": 100}, {"time": 169680, "pitch": 64, "duration": 160, "velocity": 100}, {"time": 169680, "pitch": 68, "duration": 160, "velocity": 110}, {"time": 169840, "pitch": 56, "duration": 80, "velocity": 80}, {"time": 169840, "pitch": 59, "duration": 80, "velocity": 70}, {"time": 169840, "pitch": 64, "duration": 80, "velocity": 70}, {"time": 169840, "pitch": 68, "duration": 80, "velocity": 80}, {"time": 169920, "pitch": 56, "duration": 220, "velocity": 100}, {"time": 169920, "pitch": 59, "duration": 220, "velocity": 90}, {"time": 169930, "pitch": 64, "duration": 220, "velocity": 90}, {"time": 169930, "pitch": 68, "duration": 220, "velocity": 100}, {"time": 170160, "pitch": 56, "duration": 160, "velocity": 110}, {"time": 170160, "pitch": 59, "duration": 160, "velocity": 100}, {"time": 170160, "pitch": 64, "duration": 160, "velocity": 100}, {"time": 170160, "pitch": 68, "duration": 160, "velocity": 110}, {"time": 170320, "pitch": 56, "duration": 80, "velocity": 80}, {"time": 170320, "pitch": 59, "duration": 80, "velocity": 70}, {"time": 170320, "pitch": 64, "duration": 80, "velocity": 70}, {"time": 170320, "pitch": 68, "duration": 80, "velocity": 80}, {"time": 170400, "pitch": 57, "duration": 220, "velocity": 100}, {"time": 170400, "pitch": 61, "duration": 220, "velocity": 90}, {"time": 170410, "pitch": 64, "duration": 220, "velocity": 90}, {"time": 170410, "pitch": 69, "duration": 220, "velocity": 100}, {"time": 170640, "pitch": 57, "duration": 160, "velocity": 110}, {"time": 170640, "pitch": 61, "duration": 160, "velocity": 100}, {"time": 170640, "pitch": 64, "duration": 160, "velocity": 100}, {"time": 170640, "pitch": 69, "duration": 160, "velocity": 110}, {"time": 170800, "pitch": 57, "duration": 80, "velocity": 80}, {"time": 170800, "pitch": 61, "duration": 80, "velocity": 70}, {"time": 170800, "pitch": 64, "duration": 80, "velocity": 70}, {"time": 170800, "pitch": 69, "duration": 80, "velocity": 80}, {"time": 170880, "pitch": 57, "duration": 220, "velocity": 100}, {"time": 170880, "pitch": 61, "duration": 220, "velocity": 90}, {"time": 170890, "pitch": 64, "duration": 220, "velocity": 90}, {"time": 170890, "pitch": 69, "duration": 220, "velocity": 100}, {"time": 171120, "pitch": 57, "duration": 160, "velocity": 110}, {"time": 171120, "pitch": 61, "duration": 160, "velocity": 100}, {"time": 171120, "pitch": 64, "duration": 160, "velocity": 100}, {"time": 171120, "pitch": 69, "duration": 160, "velocity": 110}, {"time": 171280, "pitch": 57, "duration": 80, "velocity": 80}, {"time": 171280, "pitch": 61, "duration": 80, "velocity": 70}, {"time": 171280, "pitch": 64, "duration": 80, "velocity": 70}, {"time": 171280, "pitch": 69, "duration": 80, "velocity": 80}, {"time": 171360, "pitch": 54, "duration": 220, "velocity": 110}, {"time": 171360, "pitch": 59, "duration": 220, "velocity": 100}, {"time": 171370, "pitch": 64, "duration": 220, "velocity": 100}, {"time": 171370, "pitch": 69, "duration": 220, "velocity": 110}, {"time": 171600, "pitch": 54, "duration": 80, "velocity": 110}, {"time": 171600, "pitch": 59, "duration": 80, "velocity": 100}, {"time": 171610, "pitch": 64, "duration": 80, "velocity": 100}, {"time": 171610, "pitch": 69, "duration": 80, "velocity": 110}, {"time": 172320, "pitch": 46, "duration": 220, "velocity": 100}, {"time": 172320, "pitch": 56, "duration": 220, "velocity": 90}, {"time": 172330, "pitch": 61, "duration": 220, "velocity": 90}, {"time": 172330, "pitch": 64, "duration": 220, "velocity": 100}, {"time": 172560, "pitch": 46, "duration": 160, "velocity": 110}, {"time": 172560, "pitch": 56, "duration": 160, "velocity": 100}, {"time": 172560, "pitch": 61, "duration": 160, "velocity": 100}, {"time": 172560, "pitch": 64, "duration": 160, "velocity": 110}, {"time": 172720, "pitch": 46, "duration": 80, "velocity": 80}, {"time": 172720, "pitch": 56, "duration": 80, "velocity": 70}, {"time": 172720, "pitch": 61, "duration": 80, "velocity": 70}, {"time": 172720, "pitch": 64, "duration": 80, "velocity": 80}, {"time": 172800, "pitch": 46, "duration": 220, "velocity": 100}, {"time": 172800, "pitch": 56, "duration": 220, "velocity": 90}, {"time": 172810, "pitch": 61, "duration": 220, "velocity": 90}, {"time": 172810, "pitch": 64, "duration": 220, "velocity": 100}, {"time": 173040, "pitch": 46, "duration": 160, "velocity": 110}, {"time": 173040, "pitch": 56, "duration": 160, "velocity": 100}, {"time": 173040, "pitch": 61, "duration": 160, "velocity": 100}, {"time": 173040, "pitch": 64, "duration": 160, "velocity": 110}, {"time": 173200, "pitch": 46, "duration": 80, "velocity": 80}, {"time": 173200, "pitch": 56, "duration": 80, "velocity": 70}, {"time": 173200, "pitch": 61, "duration": 80, "velocity": 70}, {"time": 173200, "pitch": 64, "duration": 80, "velocity": 80}, {"time": 173280, "pitch": 45, "duration": 220, "velocity": 100}, {"time": 173280, "pitch": 54, "duration": 220, "velocity": 90}, {"time": 173290, "pitch": 60, "duration": 220, "velocity": 90}, {"time": 173290, "pitch": 64, "duration": 220, "velocity": 100}, {"time": 173520, "pitch": 45, "duration": 160, "velocity": 110}, {"time": 173520, "pitch": 54, "duration": 160, "velocity": 100}, {"time": 173520, "pitch": 60, "duration": 160, "velocity": 100}, {"time": 173520, "pitch": 64, "duration": 160, "velocity": 110}, {"time": 173680, "pitch": 45, "duration": 80, "velocity": 80}, {"time": 173680, "pitch": 54, "duration": 80, "velocity": 70}, {"time": 173680, "pitch": 60, "duration": 80, "velocity": 70}, {"time": 173680, "pitch": 64, "duration": 80, "velocity": 80}, {"time": 173760, "pitch": 45, "duration": 220, "velocity": 100}, {"time": 173760, "pitch": 54, "duration": 220, "velocity": 90}, {"time": 173770, "pitch": 60, "duration": 220, "velocity": 90}, {"time": 173770, "pitch": 64, "duration": 220, "velocity": 100}, {"time": 174000, "pitch": 45, "duration": 160, "velocity": 110}, {"time": 174000, "pitch": 54, "duration": 160, "velocity": 100}, {"time": 174000, "pitch": 60, "duration": 160, "velocity": 100}, {"time": 174000, "pitch": 64, "duration": 160, "velocity": 110}, {"time": 174160, "pitch": 45, "duration": 80, "velocity": 80}, {"time": 174160, "pitch": 54, "duration": 80, "velocity": 70}, {"time": 174160, "pitch": 60, "duration": 80, "velocity": 70}, {"time": 174160, "pitch": 64, "duration": 80, "velocity": 80}, {"time": 174240, "pitch": 56, "duration": 220, "velocity": 100}, {"time": 174240, "pitch": 59, "duration": 220, "velocity": 90}, {"time": 174250, "pitch": 64, "duration": 220, "velocity": 90}, {"time": 174250, "pitch": 68, "duration": 220, "velocity": 100}, {"time": 174480, "pitch": 56, "duration": 160, "velocity": 110}, {"time": 174480, "pitch": 59, "duration": 160, "velocity": 100}, {"time": 174480, "pitch": 64, "duration": 160, "velocity": 100}, {"time": 174480, "pitch": 68, "duration": 160, "velocity": 110}, {"time": 174640, "pitch": 56, "duration": 80, "velocity": 80}, {"time": 174640, "pitch": 59, "duration": 80, "velocity": 70}, {"time": 174640, "pitch": 64, "duration": 80, "velocity": 70}, {"time": 174640, "pitch": 68, "duration": 80, "velocity": 80}, {"time": 174720, "pitch": 56, "duration": 220, "velocity": 100}, {"time": 174720, "pitch": 59, "duration": 220, "velocity": 90}, {"time": 174730, "pitch": 64, "duration": 220, "velocity": 90}, {"time": 174730, "pitch": 68, "duration": 220, "velocity": 100}, {"time": 174960, "pitch": 56, "duration": 160, "velocity": 110}, {"time": 174960, "pitch": 59, "duration": 160, "velocity": 100}, {"time": 174960, "pitch": 64, "duration": 160, "velocity": 100}, {"time": 174960, "pitch": 68, "duration": 160, "velocity": 110}, {"time": 175120, "pitch": 56, "duration": 80, "velocity": 80}, {"time": 175120, "pitch": 59, "duration": 80, "velocity": 70}, {"time": 175120, "pitch": 64, "duration": 80, "velocity": 70}, {"time": 175120, "pitch": 68, "duration": 80, "velocity": 80}, {"time": 175200, "pitch": 55, "duration": 220, "velocity": 100}, {"time": 175200, "pitch": 61, "duration": 220, "velocity": 90}, {"time": 175210, "pitch": 64, "duration": 220, "velocity": 90}, {"time": 175210, "pitch": 70, "duration": 220, "velocity": 100}, {"time": 175440, "pitch": 55, "duration": 160, "velocity": 110}, {"time": 175440, "pitch": 61, "duration": 160, "velocity": 100}, {"time": 175440, "pitch": 64, "duration": 160, "velocity": 100}, {"time": 175440, "pitch": 70, "duration": 160, "velocity": 110}, {"time": 175600, "pitch": 55, "duration": 80, "velocity": 80}, {"time": 175600, "pitch": 61, "duration": 80, "velocity": 70}, {"time": 175600, "pitch": 64, "duration": 80, "velocity": 70}, {"time": 175600, "pitch": 70, "duration": 80, "velocity": 80}, {"time": 175680, "pitch": 52, "duration": 220, "velocity": 100}, {"time": 175680, "pitch": 58, "duration": 220, "velocity": 90}, {"time": 175690, "pitch": 61, "duration": 220, "velocity": 90}, {"time": 175690, "pitch": 67, "duration": 220, "velocity": 100}, {"time": 175920, "pitch": 52, "duration": 160, "velocity": 110}, {"time": 175920, "pitch": 58, "duration": 160, "velocity": 100}, {"time": 175920, "pitch": 61, "duration": 160, "velocity": 100}, {"time": 175920, "pitch": 67, "duration": 160, "velocity": 110}, {"time": 176080, "pitch": 52, "duration": 80, "velocity": 80}, {"time": 176080, "pitch": 58, "duration": 80, "velocity": 70}, {"time": 176080, "pitch": 61, "duration": 80, "velocity": 70}, {"time": 176080, "pitch": 67, "duration": 80, "velocity": 80}, {"time": 176160, "pitch": 47, "duration": 150, "velocity": 100}, {"time": 176160, "pitch": 52, "duration": 150, "velocity": 100}, {"time": 176160, "pitch": 57, "duration": 150, "velocity": 90}, {"time": 176170, "pitch": 61, "duration": 150, "velocity": 90}, {"time": 176170, "pitch": 66, "duration": 150, "velocity": 100}, {"time": 176640, "pitch": 47, "duration": 10, "velocity": 80}, {"time": 176640, "pitch": 52, "duration": 10, "velocity": 80}, {"time": 176640, "pitch": 57, "duration": 10, "velocity": 70}, {"time": 176640, "pitch": 61, "duration": 10, "velocity": 70}, {"time": 176640, "pitch": 66, "duration": 10, "velocity": 80}, {"time": 176800, "pitch": 47, "duration": 3180, "velocity": 100}, {"time": 176800, "pitch": 52, "duration": 3180, "velocity": 100}, {"time": 176800, "pitch": 57, "duration": 3180, "velocity": 90}, {"time": 176800, "pitch": 61, "duration": 3180, "velocity": 90}, {"time": 176800, "pitch": 66, "duration": 3180, "velocity": 100}], "annotations": [{"time": 990, "annotation": {"number": 7, "value": 80}, "group": "control_change"}, {"time": 1000, "annotation": {"number": 11, "value": 100}, "group": "control_change"}, {"time": 1010, "annotation": {"number": 10, "value": 100}, "group": "control_change"}, {"time": 1020, "annotation": {"number": 91, "value": 40}, "group": "control_change"}, {"time": 1030, "annotation": {"number": 93, "value": 0}, "group": "control_change"}, {"time": 1040, "annotation": {"number": 101, "value": 0}, "group": "control_change"}, {"time": 1050, "annotation": {"number": 100, "value": 0}, "group": "control_change"}, {"time": 1060, "annotation": {"number": 6, "value": 12}, "group": "control_change"}, {"time": 1070, "annotation": {"number": 101, "value": 127}, "group": "control_change"}, {"time": 1080, "annotation": {"number": 100, "value": 127}, "group": "control_change"}]}, {"program": 0, "is_drum": false, "name": "MELODY", "annotations": [{"time": 960, "annotation": {"number": 0, "value": 0}, "group": "control_change"}, {"time": 970, "annotation": {"number": 32, "value": 0}, "group": "control_change"}]}, {"program": 73, "is_drum": false, "name": "MELODY", "notes": [{"time": 10080, "pitch": 79, "duration": 240, "velocity": 94}, {"time": 10320, "pitch": 79, "duration": 240, "velocity": 94}, {"time": 10560, "pitch": 79, "duration": 240, "velocity": 94}, {"time": 10800, "pitch": 79, "duration": 160, "velocity": 94}, {"time": 10960, "pitch": 77, "duration": 240, "velocity": 94}, {"time": 11200, "pitch": 82, "duration": 320, "velocity": 94}, {"time": 12000, "pitch": 75, "duration": 240, "velocity": 94}, {"time": 12240, "pitch": 75, "duration": 240, "velocity": 94}, {"time": 12480, "pitch": 75, "duration": 240, "velocity": 94}, {"time": 12720, "pitch": 75, "duration": 160, "velocity": 94}, {"time": 12880, "pitch": 74, "duration": 240, "velocity": 94}, {"time": 13120, "pitch": 79, "duration": 320, "velocity": 94}, {"time": 13680, "pitch": 70, "duration": 240, "velocity": 94}, {"time": 13920, "pitch": 72, "duration": 240, "velocity": 94}, {"time": 14160, "pitch": 75, "duration": 240, "velocity": 94}, {"time": 14400, "pitch": 84, "duration": 240, "velocity": 94}, {"time": 14640, "pitch": 84, "duration": 160, "velocity": 94}, {"time": 14800, "pitch": 82, "duration": 320, "velocity": 94}, {"time": 15120, "pitch": 80, "duration": 240, "velocity": 94}, {"time": 15360, "pitch": 79, "duration": 240, "velocity": 94}, {"time": 15600, "pitch": 80, "duration": 240, "velocity": 94}, {"time": 15840, "pitch": 79, "duration": 320, "velocity": 94}, {"time": 16160, "pitch": 80, "duration": 80, "velocity": 94}, {"time": 16240, "pitch": 79, "duration": 80, "velocity": 94}, {"time": 16320, "pitch": 77, "duration": 960, "velocity": 94}, {"time": 17760, "pitch": 79, "duration": 240, "velocity": 94}, {"time": 18000, "pitch": 79, "duration": 240, "velocity": 94}, {"time": 18240, "pitch": 79, "duration": 240, "velocity": 94}, {"time": 18480, "pitch": 79, "duration": 160, "velocity": 94}, {"time": 18640, "pitch": 77, "duration": 240, "velocity": 94}, {"time": 18880, "pitch": 82, "duration": 320, "velocity": 94}, {"time": 19680, "pitch": 75, "duration": 240, "velocity": 94}, {"time": 19920, "pitch": 75, "duration": 240, "velocity": 94}, {"time": 20160, "pitch": 75, "duration": 240, "velocity": 94}, {"time": 20400, "pitch": 75, "duration": 160, "velocity": 94}, {"time": 20560, "pitch": 74, "duration": 240, "velocity": 94}, {"time": 20800, "pitch": 79, "duration": 320, "velocity": 94}, {"time": 21360, "pitch": 70, "duration": 240, "velocity": 94}, {"time": 21600, "pitch": 72, "duration": 240, "velocity": 94}, {"time": 21840, "pitch": 75, "duration": 240, "velocity": 94}, {"time": 22080, "pitch": 84, "duration": 240, "velocity": 94}, {"time": 22320, "pitch": 84, "duration": 160, "velocity": 94}, {"time": 22480, "pitch": 82, "duration": 320, "velocity": 94}, {"time": 22800, "pitch": 80, "duration": 240, "velocity": 94}, {"time": 23040, "pitch": 79, "duration": 240, "velocity": 94}, {"time": 23280, "pitch": 80, "duration": 240, "velocity": 94}, {"time": 23520, "pitch": 79, "duration": 320, "velocity": 94}, {"time": 23840, "pitch": 80, "duration": 80, "velocity": 94}, {"time": 23920, "pitch": 79, "duration": 80, "velocity": 94}, {"time": 24000, "pitch": 77, "duration": 480, "velocity": 94}, {"time": 24880, "pitch": 77, "duration": 80, "velocity": 94}, {"time": 24960, "pitch": 77, "duration": 160, "velocity": 94}, {"time": 25120, "pitch": 80, "duration": 240, "velocity": 94}, {"time": 25360, "pitch": 75, "duration": 80, "velocity": 94}, {"time": 25440, "pitch": 77, "duration": 240, "velocity": 94}, {"time": 25680, "pitch": 75, "duration": 160, "velocity": 94}, {"time": 25840, "pitch": 75, "duration": 1040, "velocity": 94}, {"time": 28800, "pitch": 70, "duration": 240, "velocity": 94}, {"time": 29040, "pitch": 74, "duration": 160, "velocity": 94}, {"time": 29200, "pitch": 75, "duration": 560, "velocity": 94}, {"time": 30000, "pitch": 79, "duration": 240, "velocity": 94}, {"time": 30240, "pitch": 77, "duration": 240, "velocity": 94}, {"time": 30480, "pitch": 75, "duration": 240, "velocity": 94}, {"time": 30720, "pitch": 75, "duration": 240, "velocity": 94}, {"time": 30960, "pitch": 77, "duration": 160, "velocity": 94}, {"time": 31120, "pitch": 70, "duration": 560, "velocity": 94}, {"time": 31920, "pitch": 67, "duration": 240, "velocity": 94}, {"time": 32160, "pitch": 68, "duration": 240, "velocity": 94}, {"time": 32400, "pitch": 75, "duration": 160, "velocity": 94}, {"time": 32560, "pitch": 75, "duration": 560, "velocity": 94}, {"time": 33600, "pitch": 75, "duration": 240, "velocity": 94}, {"time": 33840, "pitch": 77, "duration": 240, "velocity": 94}, {"time": 34080, "pitch": 72, "duration": 400, "velocity": 94}, {"time": 34480, "pitch": 70, "duration": 1040, "velocity": 94}, {"time": 36480, "pitch": 70, "duration": 240, "velocity": 94}, {"time": 36720, "pitch": 74, "duration": 160, "velocity": 94}, {"time": 36880, "pitch": 75, "duration": 560, "velocity": 94}, {"time": 37680, "pitch": 79, "duration": 240, "velocity": 94}, {"time": 37920, "pitch": 77, "duration": 240, "velocity": 94}, {"time": 38160, "pitch": 75, "duration": 240, "velocity": 94}, {"time": 38400, "pitch": 75, "duration": 240, "velocity": 94}, {"time": 38640, "pitch": 82, "duration": 160, "velocity": 94}, {"time": 38800, "pitch": 79, "duration": 480, "velocity": 94}, {"time": 39360, "pitch": 79, "duration": 160, "velocity": 94}, {"time": 39520, "pitch": 80, "duration": 160, "velocity": 94}, {"time": 39680, "pitch": 82, "duration": 160, "velocity": 94}, {"time": 39840, "pitch": 82, "duration": 240, "velocity": 94}, {"time": 40080, "pitch": 75, "duration": 160, "velocity": 94}, {"time": 40240, "pitch": 75, "duration": 560, "velocity": 94}, {"time": 41040, "pitch": 75, "duration": 240, "velocity": 94}, {"time": 41280, "pitch": 80, "duration": 240, "velocity": 94}, {"time": 41520, "pitch": 79, "duration": 240, "velocity": 94}, {"time": 41760, "pitch": 77, "duration": 400, "velocity": 94}, {"time": 42160, "pitch": 75, "duration": 1040, "velocity": 94}, {"time": 43680, "pitch": 79, "duration": 240, "velocity": 94}, {"time": 43920, "pitch": 79, "duration": 240, "velocity": 94}, {"time": 44160, "pitch": 79, "duration": 240, "velocity": 94}, {"time": 44400, "pitch": 79, "duration": 160, "velocity": 94}, {"time": 44560, "pitch": 77, "duration": 240, "velocity": 94}, {"time": 44800, "pitch": 82, "duration": 320, "velocity": 94}, {"time": 45600, "pitch": 75, "duration": 240, "velocity": 94}, {"time": 45840, "pitch": 75, "duration": 240, "velocity": 94}, {"time": 46080, "pitch": 75, "duration": 240, "velocity": 94}, {"time": 46320, "pitch": 75, "duration": 160, "velocity": 94}, {"time": 46480, "pitch": 74, "duration": 240, "velocity": 94}, {"time": 46720, "pitch": 79, "duration": 320, "velocity": 94}, {"time": 47280, "pitch": 70, "duration": 240, "velocity": 94}, {"time": 47520, "pitch": 72, "duration": 240, "velocity": 94}, {"time": 47760, "pitch": 75, "duration": 240, "velocity": 94}, {"time": 48000, "pitch": 84, "duration": 240, "velocity": 94}, {"time": 48240, "pitch": 84, "duration": 160, "velocity": 94}, {"time": 48400, "pitch": 82, "duration": 320, "velocity": 94}, {"time": 48720, "pitch": 80, "duration": 240, "velocity": 94}, {"time": 48960, "pitch": 79, "duration": 240, "velocity": 94}, {"time": 49200, "pitch": 80, "duration": 240, "velocity": 94}, {"time": 49440, "pitch": 79, "duration": 320, "velocity": 94}, {"time": 49760, "pitch": 80, "duration": 80, "velocity": 94}, {"time": 49840, "pitch": 79, "duration": 80, "velocity": 94}, {"time": 49920, "pitch": 77, "duration": 960, "velocity": 94}, {"time": 51360, "pitch": 79, "duration": 240, "velocity": 94}, {"time": 51600, "pitch": 79, "duration": 240, "velocity": 94}, {"time": 51840, "pitch": 79, "duration": 240, "velocity": 94}, {"time": 52080, "pitch": 79, "duration": 160, "velocity": 94}, {"time": 52240, "pitch": 77, "duration": 240, "velocity": 94}, {"time": 52480, "pitch": 82, "duration": 320, "velocity": 94}, {"time": 53280, "pitch": 75, "duration": 240, "velocity": 94}, {"time": 53520, "pitch": 75, "duration": 240, "velocity": 94}, {"time": 53760, "pitch": 75, "duration": 240, "velocity": 94}, {"time": 54000, "pitch": 75, "duration": 160, "velocity": 94}, {"time": 54160, "pitch": 74, "duration": 240, "velocity": 94}, {"time": 54400, "pitch": 79, "duration": 320, "velocity": 94}, {"time": 54960, "pitch": 70, "duration": 240, "velocity": 94}, {"time": 55200, "pitch": 72, "duration": 240, "velocity": 94}, {"time": 55440, "pitch": 75, "duration": 240, "velocity": 94}, {"time": 55680, "pitch": 84, "duration": 240, "velocity": 94}, {"time": 55920, "pitch": 84, "duration": 160, "velocity": 94}, {"time": 56080, "pitch": 82, "duration": 320, "velocity": 94}, {"time": 56400, "pitch": 80, "duration": 240, "velocity": 94}, {"time": 56640, "pitch": 79, "duration": 240, "velocity": 94}, {"time": 56880, "pitch": 80, "duration": 240, "velocity": 94}, {"time": 57120, "pitch": 79, "duration": 320, "velocity": 94}, {"time": 57440, "pitch": 80, "duration": 80, "velocity": 94}, {"time": 57520, "pitch": 79, "duration": 80, "velocity": 94}, {"time": 57600, "pitch": 77, "duration": 480, "velocity": 94}, {"time": 58480, "pitch": 77, "duration": 80, "velocity": 94}, {"time": 58560, "pitch": 77, "duration": 160, "velocity": 94}, {"time": 58720, "pitch": 80, "duration": 240, "velocity": 94}, {"time": 58960, "pitch": 75, "duration": 80, "velocity": 94}, {"time": 59040, "pitch": 77, "duration": 240, "velocity": 94}, {"time": 59280, "pitch": 75, "duration": 160, "velocity": 94}, {"time": 59440, "pitch": 75, "duration": 1040, "velocity": 94}, {"time": 62400, "pitch": 70, "duration": 240, "velocity": 94}, {"time": 62640, "pitch": 74, "duration": 160, "velocity": 94}, {"time": 62800, "pitch": 75, "duration": 560, "velocity": 94}, {"time": 63600, "pitch": 79, "duration": 240, "velocity": 94}, {"time": 63840, "pitch": 77, "duration": 240, "velocity": 94}, {"time": 64080, "pitch": 75, "duration": 240, "velocity": 94}, {"time": 64320, "pitch": 75, "duration": 240, "velocity": 94}, {"time": 64560, "pitch": 77, "duration": 160, "velocity": 94}, {"time": 64720, "pitch": 70, "duration": 560, "velocity": 94}, {"time": 65520, "pitch": 67, "duration": 240, "velocity": 94}, {"time": 65760, "pitch": 68, "duration": 240, "velocity": 94}, {"time": 66000, "pitch": 75, "duration": 160, "velocity": 94}, {"time": 66160, "pitch": 75, "duration": 560, "velocity": 94}, {"time": 67200, "pitch": 75, "duration": 240, "velocity": 94}, {"time": 67440, "pitch": 77, "duration": 240, "velocity": 94}, {"time": 67680, "pitch": 72, "duration": 400, "velocity": 94}, {"time": 68080, "pitch": 70, "duration": 1040, "velocity": 94}, {"time": 70080, "pitch": 70, "duration": 240, "velocity": 94}, {"time": 70320, "pitch": 74, "duration": 160, "velocity": 94}, {"time": 70480, "pitch": 75, "duration": 560, "velocity": 94}, {"time": 71280, "pitch": 79, "duration": 240, "velocity": 94}, {"time": 71520, "pitch": 77, "duration": 240, "velocity": 94}, {"time": 71760, "pitch": 75, "duration": 240, "velocity": 94}, {"time": 72000, "pitch": 75, "duration": 240, "velocity": 94}, {"time": 72240, "pitch": 82, "duration": 160, "velocity": 94}, {"time": 72400, "pitch": 79, "duration": 480, "velocity": 94}, {"time": 72960, "pitch": 79, "duration": 160, "velocity": 94}, {"time": 73120, "pitch": 80, "duration": 160, "velocity": 94}, {"time": 73280, "pitch": 82, "duration": 160, "velocity": 94}, {"time": 73440, "pitch": 82, "duration": 240, "velocity": 94}, {"time": 73680, "pitch": 75, "duration": 160, "velocity": 94}, {"time": 73840, "pitch": 75, "duration": 560, "velocity": 94}, {"time": 74640, "pitch": 75, "duration": 240, "velocity": 94}, {"time": 74880, "pitch": 80, "duration": 240, "velocity": 94}, {"time": 75120, "pitch": 79, "duration": 240, "velocity": 94}, {"time": 75360, "pitch": 77, "duration": 400, "velocity": 94}, {"time": 75760, "pitch": 75, "duration": 1040, "velocity": 94}, {"time": 77280, "pitch": 79, "duration": 240, "velocity": 94}, {"time": 77520, "pitch": 79, "duration": 240, "velocity": 94}, {"time": 77760, "pitch": 79, "duration": 240, "velocity": 94}, {"time": 78000, "pitch": 79, "duration": 160, "velocity": 94}, {"time": 78160, "pitch": 77, "duration": 240, "velocity": 94}, {"time": 78400, "pitch": 82, "duration": 320, "velocity": 94}, {"time": 79200, "pitch": 75, "duration": 240, "velocity": 94}, {"time": 79440, "pitch": 75, "duration": 240, "velocity": 94}, {"time": 79680, "pitch": 75, "duration": 240, "velocity": 94}, {"time": 79920, "pitch": 75, "duration": 160, "velocity": 94}, {"time": 80080, "pitch": 74, "duration": 240, "velocity": 94}, {"time": 80320, "pitch": 79, "duration": 320, "velocity": 94}, {"time": 80880, "pitch": 70, "duration": 240, "velocity": 94}, {"time": 81120, "pitch": 72, "duration": 240, "velocity": 94}, {"time": 81360, "pitch": 75, "duration": 240, "velocity": 94}, {"time": 81600, "pitch": 84, "duration": 240, "velocity": 94}, {"time": 81840, "pitch": 84, "duration": 160, "velocity": 94}, {"time": 82000, "pitch": 82, "duration": 320, "velocity": 94}, {"time": 82320, "pitch": 80, "duration": 240, "velocity": 94}, {"time": 82560, "pitch": 79, "duration": 240, "velocity": 94}, {"time": 82800, "pitch": 80, "duration": 240, "velocity": 94}, {"time": 83040, "pitch": 79, "duration": 320, "velocity": 94}, {"time": 83360, "pitch": 80, "duration": 80, "velocity": 94}, {"time": 83440, "pitch": 79, "duration": 80, "velocity": 94}, {"time": 83520, "pitch": 77, "duration": 960, "velocity": 94}, {"time": 84960, "pitch": 79, "duration": 240, "velocity": 94}, {"time": 85200, "pitch": 79, "duration": 240, "velocity": 94}, {"time": 85440, "pitch": 79, "duration": 240, "velocity": 94}, {"time": 85680, "pitch": 79, "duration": 160, "velocity": 94}, {"time": 85840, "pitch": 77, "duration": 240, "velocity": 94}, {"time": 86080, "pitch": 82, "duration": 320, "velocity": 94}, {"time": 86880, "pitch": 75, "duration": 240, "velocity": 94}, {"time": 87120, "pitch": 75, "duration": 240, "velocity": 94}, {"time": 87360, "pitch": 75, "duration": 240, "velocity": 94}, {"time": 87600, "pitch": 75, "duration": 160, "velocity": 94}, {"time": 87760, "pitch": 74, "duration": 240, "velocity": 94}, {"time": 88000, "pitch": 79, "duration": 320, "velocity": 94}, {"time": 88560, "pitch": 70, "duration": 240, "velocity": 94}, {"time": 88800, "pitch": 72, "duration": 240, "velocity": 94}, {"time": 89040, "pitch": 75, "duration": 240, "velocity": 94}, {"time": 89280, "pitch": 84, "duration": 240, "velocity": 94}, {"time": 89520, "pitch": 84, "duration": 160, "velocity": 94}, {"time": 89680, "pitch": 82, "duration": 320, "velocity": 94}, {"time": 90000, "pitch": 80, "duration": 240, "velocity": 94}, {"time": 90240, "pitch": 79, "duration": 240, "velocity": 94}, {"time": 90480, "pitch": 80, "duration": 240, "velocity": 94}, {"time": 90720, "pitch": 79, "duration": 320, "velocity": 94}, {"time": 91040, "pitch": 80, "duration": 80, "velocity": 94}, {"time": 91120, "pitch": 79, "duration": 80, "velocity": 94}, {"time": 91200, "pitch": 77, "duration": 480, "velocity": 94}, {"time": 92080, "pitch": 77, "duration": 80, "velocity": 94}, {"time": 92160, "pitch": 77, "duration": 160, "velocity": 94}, {"time": 92320, "pitch": 80, "duration": 240, "velocity": 94}, {"time": 92560, "pitch": 75, "duration": 80, "velocity": 94}, {"time": 92640, "pitch": 77, "duration": 240, "velocity": 94}, {"time": 92880, "pitch": 75, "duration": 160, "velocity": 94}, {"time": 93040, "pitch": 75, "duration": 1040, "velocity": 94}, {"time": 141600, "pitch": 79, "duration": 240, "velocity": 94}, {"time": 141840, "pitch": 79, "duration": 240, "velocity": 94}, {"time": 142080, "pitch": 79, "duration": 240, "velocity": 94}, {"time": 142320, "pitch": 79, "duration": 160, "velocity": 94}, {"time": 142480, "pitch": 77, "duration": 240, "velocity": 94}, {"time": 142720, "pitch": 82, "duration": 320, "velocity": 94}, {"time": 143520, "pitch": 75, "duration": 240, "velocity": 94}, {"time": 143760, "pitch": 75, "duration": 240, "velocity": 94}, {"time": 144000, "pitch": 75, "duration": 240, "velocity": 94}, {"time": 144240, "pitch": 75, "duration": 160, "velocity": 94}, {"time": 144400, "pitch": 74, "duration": 240, "velocity": 94}, {"time": 144640, "pitch": 79, "duration": 320, "velocity": 94}, {"time": 145200, "pitch": 70, "duration": 240, "velocity": 94}, {"time": 145440, "pitch": 72, "duration": 240, "velocity": 94}, {"time": 145680, "pitch": 75, "duration": 240, "velocity": 94}, {"time": 145920, "pitch": 84, "duration": 240, "velocity": 94}, {"time": 146160, "pitch": 84, "duration": 160, "velocity": 94}, {"time": 146320, "pitch": 82, "duration": 320, "velocity": 94}, {"time": 146640, "pitch": 80, "duration": 240, "velocity": 94}, {"time": 146880, "pitch": 79, "duration": 240, "velocity": 94}, {"time": 147120, "pitch": 80, "duration": 240, "velocity": 94}, {"time": 147360, "pitch": 79, "duration": 320, "velocity": 94}, {"time": 147680, "pitch": 80, "duration": 80, "velocity": 94}, {"time": 147760, "pitch": 79, "duration": 80, "velocity": 94}, {"time": 147840, "pitch": 77, "duration": 960, "velocity": 94}, {"time": 149280, "pitch": 79, "duration": 240, "velocity": 94}, {"time": 149520, "pitch": 79, "duration": 240, "velocity": 94}, {"time": 149760, "pitch": 79, "duration": 240, "velocity": 94}, {"time": 150000, "pitch": 79, "duration": 160, "velocity": 94}, {"time": 150160, "pitch": 77, "duration": 240, "velocity": 94}, {"time": 150400, "pitch": 82, "duration": 320, "velocity": 94}, {"time": 151200, "pitch": 75, "duration": 240, "velocity": 94}, {"time": 151440, "pitch": 75, "duration": 240, "velocity": 94}, {"time": 151680, "pitch": 75, "duration": 240, "velocity": 94}, {"time": 151920, "pitch": 75, "duration": 160, "velocity": 94}, {"time": 152080, "pitch": 74, "duration": 240, "velocity": 94}, {"time": 152320, "pitch": 79, "duration": 320, "velocity": 94}, {"time": 152880, "pitch": 70, "duration": 240, "velocity": 94}, {"time": 153120, "pitch": 72, "duration": 240, "velocity": 94}, {"time": 153360, "pitch": 75, "duration": 240, "velocity": 94}, {"time": 153600, "pitch": 84, "duration": 240, "velocity": 94}, {"time": 153840, "pitch": 84, "duration": 160, "velocity": 94}, {"time": 154000, "pitch": 82, "duration": 320, "velocity": 94}, {"time": 154320, "pitch": 80, "duration": 240, "velocity": 94}, {"time": 154560, "pitch": 79, "duration": 240, "velocity": 94}, {"time": 154800, "pitch": 80, "duration": 240, "velocity": 94}, {"time": 155040, "pitch": 79, "duration": 320, "velocity": 94}, {"time": 155360, "pitch": 80, "duration": 80, "velocity": 94}, {"time": 155440, "pitch": 79, "duration": 80, "velocity": 94}, {"time": 155520, "pitch": 77, "duration": 960, "velocity": 94}, {"time": 156960, "pitch": 80, "duration": 240, "velocity": 94}, {"time": 157200, "pitch": 80, "duration": 240, "velocity": 94}, {"time": 157440, "pitch": 80, "duration": 240, "velocity": 94}, {"time": 157680, "pitch": 80, "duration": 160, "velocity": 94}, {"time": 157840, "pitch": 78, "duration": 240, "velocity": 94}, {"time": 158080, "pitch": 83, "duration": 320, "velocity": 94}, {"time": 158880, "pitch": 76, "duration": 240, "velocity": 94}, {"time": 159120, "pitch": 76, "duration": 240, "velocity": 94}, {"time": 159360, "pitch": 76, "duration": 240, "velocity": 94}, {"time": 159600, "pitch": 76, "duration": 160, "velocity": 94}, {"time": 159760, "pitch": 75, "duration": 240, "velocity": 94}, {"time": 160000, "pitch": 80, "duration": 320, "velocity": 94}, {"time": 160560, "pitch": 71, "duration": 240, "velocity": 94}, {"time": 160800, "pitch": 73, "duration": 240, "velocity": 94}, {"time": 161040, "pitch": 76, "duration": 240, "velocity": 94}, {"time": 161280, "pitch": 85, "duration": 240, "velocity": 94}, {"time": 161520, "pitch": 85, "duration": 160, "velocity": 94}, {"time": 161680, "pitch": 83, "duration": 320, "velocity": 94}, {"time": 162000, "pitch": 81, "duration": 240, "velocity": 94}, {"time": 162240, "pitch": 80, "duration": 240, "velocity": 94}, {"time": 162480, "pitch": 81, "duration": 240, "velocity": 94}, {"time": 162720, "pitch": 80, "duration": 320, "velocity": 94}, {"time": 163040, "pitch": 81, "duration": 80, "velocity": 94}, {"time": 163120, "pitch": 80, "duration": 80, "velocity": 94}, {"time": 163200, "pitch": 78, "duration": 960, "velocity": 94}, {"time": 164640, "pitch": 80, "duration": 240, "velocity": 94}, {"time": 164880, "pitch": 80, "duration": 240, "velocity": 94}, {"time": 165120, "pitch": 80, "duration": 240, "velocity": 94}, {"time": 165360, "pitch": 80, "duration": 160, "velocity": 94}, {"time": 165520, "pitch": 78, "duration": 240, "velocity": 94}, {"time": 165760, "pitch": 83, "duration": 320, "velocity": 94}, {"time": 166560, "pitch": 76, "duration": 240, "velocity": 94}, {"time": 166800, "pitch": 76, "duration": 240, "velocity": 94}, {"time": 167040, "pitch": 76, "duration": 240, "velocity": 94}, {"time": 167280, "pitch": 76, "duration": 160, "velocity": 94}, {"time": 167440, "pitch": 75, "duration": 240, "velocity": 94}, {"time": 167680, "pitch": 80, "duration": 320, "velocity": 94}, {"time": 168240, "pitch": 71, "duration": 240, "velocity": 94}, {"time": 168480, "pitch": 73, "duration": 240, "velocity": 94}, {"time": 168720, "pitch": 76, "duration": 240, "velocity": 94}, {"time": 168960, "pitch": 85, "duration": 240, "velocity": 94}, {"time": 169200, "pitch": 85, "duration": 160, "velocity": 94}, {"time": 169360, "pitch": 83, "duration": 320, "velocity": 94}, {"time": 169680, "pitch": 81, "duration": 240, "velocity": 94}, {"time": 169920, "pitch": 80, "duration": 240, "velocity": 94}, {"time": 170160, "pitch": 81, "duration": 240, "velocity": 94}, {"time": 170400, "pitch": 80, "duration": 320, "velocity": 94}, {"time": 170720, "pitch": 81, "duration": 80, "velocity": 94}, {"time": 170800, "pitch": 80, "duration": 80, "velocity": 94}, {"time": 170880, "pitch": 78, "duration": 480, "velocity": 94}, {"time": 171760, "pitch": 78, "duration": 80, "velocity": 94}, {"time": 171840, "pitch": 78, "duration": 160, "velocity": 94}, {"time": 172000, "pitch": 81, "duration": 240, "velocity": 94}, {"time": 172240, "pitch": 76, "duration": 80, "velocity": 94}, {"time": 172320, "pitch": 78, "duration": 240, "velocity": 94}, {"time": 172560, "pitch": 76, "duration": 160, "velocity": 94}, {"time": 172720, "pitch": 76, "duration": 1040, "velocity": 94}, {"time": 174240, "pitch": 78, "duration": 240, "velocity": 94}, {"time": 174480, "pitch": 76, "duration": 160, "velocity": 94}, {"time": 174640, "pitch": 76, "duration": 1040, "velocity": 94}], "annotations": [{"time": 990, "annotation": {"number": 7, "value": 120}, "group": "control_change"}, {"time": 1000, "annotation": {"number": 11, "value": 110}, "group": "control_change"}, {"time": 1010, "annotation": {"number": 10, "value": 64}, "group": "control_change"}, {"time": 1020, "annotation": {"number": 91, "value": 60}, "group": "control_change"}, {"time": 1030, "annotation": {"number": 93, "value": 0}, "group": "control_change"}, {"time": 1040, "annotation": {"number": 94, "value": 0}, "group": "control_change"}, {"time": 1050, "annotation": {"number": 101, "value": 0}, "group": "control_change"}, {"time": 1060, "annotation": {"number": 100, "value": 0}, "group": "control_change"}, {"time": 1070, "annotation": {"number": 6, "value": 12}, "group": "control_change"}, {"time": 1080, "annotation": {"number": 101, "value": 127}, "group": "control_change"}, {"time": 1090, "annotation": {"number": 100, "value": 127}, "group": "control_change"}]}]}