{"metadata": {"schema_version": "0.1", "title": "RWC-MDB-P-2001 No. 74: Kimi no iro / Kousuke Morimoto", "copyright": "RWC Music Database. Copyright (C) 2001 Real World Computing Partnership (contact: Masataka GOTO <m.goto@aist.go.jp>)", "source_filename": "RM-P074.SMF_SYNC.MID", "source_format": "midi"}, "resolution": 480, "tempos": [{"time": 0, "qpm": 56.074766355140184}, {"time": 480, "qpm": 93.75}, {"time": 960, "qpm": 95.23809523809524}, {"time": 1440, "qpm": 93.75}, {"time": 3840, "qpm": 95.23809523809524}, {"time": 4320, "qpm": 93.75}, {"time": 6720, "qpm": 95.23809523809524}, {"time": 7200, "qpm": 93.75}, {"time": 9120, "qpm": 95.23809523809524}, {"time": 9600, "qpm": 93.75}, {"time": 12000, "qpm": 95.23809523809524}, {"time": 12480, "qpm": 93.75}, {"time": 14880, "qpm": 95.23809523809524}, {"time": 15360, "qpm": 93.75}, {"time": 17760, "qpm": 95.23809523809524}, {"time": 18240, "qpm": 93.75}, {"time": 20160, "qpm": 95.23809523809524}, {"time": 20640, "qpm": 93.75}, {"time": 23040, "qpm": 95.23809523809524}, {"time": 23520, "qpm": 93.75}, {"time": 25920, "qpm": 95.23809523809524}, {"time": 26400, "qpm": 93.75}, {"time": 28800, "qpm": 95.23809523809524}, {"time": 29280, "qpm": 93.75}, {"time": 31680, "qpm": 95.23809523809524}, {"time": 32160, "qpm": 93.75}, {"time": 34560, "qpm": 95.23809523809524}, {"time": 35040, "qpm": 93.75}, {"time": 36960, "qpm": 95.23809523809524}, {"time": 37440, "qpm": 93.75}, {"time": 40320, "qpm": 95.23809523809524}, {"time": 40800, "qpm": 93.75}, {"time": 42720, "qpm": 95.23809523809524}, {"time": 43200, "qpm": 93.75}, {"time": 45600, "qpm": 95.23809523809524}, {"time": 46080, "qpm": 93.75}, {"time": 48000, "qpm": 95.23809523809524}, {"time": 48480, "qpm": 93.75}, {"time": 51360, "qpm": 95.23809523809524}, {"time": 51840, "qpm": 93.75}, {"time": 53760, "qpm": 95.23809523809524}, {"time": 54240, "qpm": 93.75}, {"time": 56640, "qpm": 95.23809523809524}, {"time": 57120, "qpm": 93.75}, {"time": 59520, "qpm": 95.23809523809524}, {"time": 60000, "qpm": 93.75}, {"time": 62400, "qpm": 95.23809523809524}, {"time": 62880, "qpm": 93.75}, {"time": 65280, "qpm": 95.23809523809524}, {"time": 65760, "qpm": 93.75}, {"time": 68160, "qpm": 95.23809523809524}, {"time": 68640, "qpm": 93.75}, {"time": 71040, "qpm": 95.23809523809524}, {"time": 71520, "qpm": 93.75}, {"time": 72960, "qpm": 95.23809523809524}, {"time": 73440, "qpm": 92.3076923076923}, {"time": 73920, "qpm": 95.23809523809524}, {"time": 74400, "qpm": 93.75}, {"time": 76320, "qpm": 95.23809523809524}, {"time": 76800, "qpm": 93.75}, {"time": 78720, "qpm": 95.23809523809524}, {"time": 79200, "qpm": 93.75}, {"time": 82080, "qpm": 95.23809523809524}, {"time": 82560, "qpm": 93.75}, {"time": 84480, "qpm": 95.23809523809524}, {"time": 84960, "qpm": 93.75}, {"time": 87360, "qpm": 95.23809523809524}, {"time": 87840, "qpm": 93.75}, {"time": 90240, "qpm": 95.23809523809524}, {"time": 90720, "qpm": 93.75}, {"time": 93120, "qpm": 95.23809523809524}, {"time": 93600, "qpm": 93.75}, {"time": 95520, "qpm": 95.23809523809524}, {"time": 96000, "qpm": 93.75}, {"time": 98880, "qpm": 95.23809523809524}, {"time": 99360, "qpm": 93.75}, {"time": 101760, "qpm": 95.23809523809524}, {"time": 102240, "qpm": 93.75}, {"time": 103680, "qpm": 95.23809523809524}, {"time": 104160, "qpm": 93.75}, {"time": 107040, "qpm": 95.23809523809524}, {"time": 107520, "qpm": 93.75}, {"time": 109920, "qpm": 95.23809523809524}, {"time": 110400, "qpm": 93.75}, {"time": 112800, "qpm": 95.23809523809524}, {"time": 113280, "qpm": 93.75}, {"time": 115680, "qpm": 95.23809523809524}, {"time": 116160, "qpm": 93.75}, {"time": 117120, "qpm": 95.23809523809524}, {"time": 117600, "qpm": 92.3076923076923}, {"time": 118080, "qpm": 95.23809523809524}, {"time": 118560, "qpm": 93.75}, {"time": 120960, "qpm": 95.23809523809524}, {"time": 121440, "qpm": 93.75}, {"time": 123840, "qpm": 95.23809523809524}, {"time": 124320, "qpm": 93.75}, {"time": 126720, "qpm": 95.23809523809524}, {"time": 127200, "qpm": 93.75}, {"time": 129600, "qpm": 95.23809523809524}, {"time": 130080, "qpm": 93.75}, {"time": 132480, "qpm": 95.23809523809524}, {"time": 132960, "qpm": 93.75}, {"time": 134880, "qpm": 95.23809523809524}, {"time": 135360, "qpm": 93.75}, {"time": 137760, "qpm": 95.23809523809524}, {"time": 138240, "qpm": 93.75}, {"time": 140160, "qpm": 95.23809523809524}, {"time": 140640, "qpm": 93.75}], "key_signatures": [{"time": 0, "root": 7, "mode": "major"}], "time_signatures": [{"time": 0, "numerator": 1, "denominator": 4}, {"time": 480, "numerator": 4, "denominator": 4}], "tracks": [{"program": 0, "is_drum": false, "name": "Guitar L", "annotations": [{"time": 126, "annotation": {"number": 0, "value": 0}, "group": "control_change"}, {"time": 126, "annotation": {"number": 32, "value": 2}, "group": "control_change"}]}, {"program": 25, "is_drum": false, "name": "Guitar L", "notes": [{"time": 478, "pitch": 50, "duration": 242, "velocity": 95}, {"time": 488, "pitch": 55, "duration": 242, "velocity": 100}, {"time": 498, "pitch": 59, "duration": 242, "velocity": 105}, {"time": 508, "pitch": 67, "duration": 232, "velocity": 110}, {"time": 720, "pitch": 50, "duration": 141, "velocity": 85}, {"time": 730, "pitch": 55, "duration": 121, "velocity": 90}, {"time": 740, "pitch": 59, "duration": 111, "velocity": 95}, {"time": 740, "pitch": 67, "duration": 101, "velocity": 100}, {"time": 841, "pitch": 67, "duration": 241, "velocity": 110}, {"time": 851, "pitch": 55, "duration": 241, "velocity": 100}, {"time": 851, "pitch": 59, "duration": 241, "velocity": 105}, {"time": 861, "pitch": 50, "duration": 241, "velocity": 95}, {"time": 1082, "pitch": 67, "duration": 139, "velocity": 100}, {"time": 1092, "pitch": 55, "duration": 119, "velocity": 90}, {"time": 1092, "pitch": 59, "duration": 129, "velocity": 95}, {"time": 1102, "pitch": 50, "duration": 99, "velocity": 85}, {"time": 1201, "pitch": 50, "duration": 139, "velocity": 95}, {"time": 1211, "pitch": 55, "duration": 119, "velocity": 100}, {"time": 1221, "pitch": 59, "duration": 100, "velocity": 105}, {"time": 1221, "pitch": 67, "duration": 100, "velocity": 110}, {"time": 1321, "pitch": 67, "duration": 99, "velocity": 90}, {"time": 1330, "pitch": 55, "duration": 90, "velocity": 80}, {"time": 1330, "pitch": 59, "duration": 90, "velocity": 85}, {"time": 1340, "pitch": 50, "duration": 80, "velocity": 75}, {"time": 1440, "pitch": 50, "duration": 378, "velocity": 95}, {"time": 1450, "pitch": 57, "duration": 358, "velocity": 100}, {"time": 1460, "pitch": 62, "duration": 348, "velocity": 105}, {"time": 1470, "pitch": 66, "duration": 328, "velocity": 110}, {"time": 1798, "pitch": 66, "duration": 241, "velocity": 110}, {"time": 1808, "pitch": 57, "duration": 241, "velocity": 100}, {"time": 1808, "pitch": 62, "duration": 241, "velocity": 105}, {"time": 1818, "pitch": 50, "duration": 241, "velocity": 95}, {"time": 2039, "pitch": 66, "duration": 141, "velocity": 100}, {"time": 2049, "pitch": 57, "duration": 121, "velocity": 90}, {"time": 2049, "pitch": 62, "duration": 131, "velocity": 95}, {"time": 2059, "pitch": 50, "duration": 101, "velocity": 85}, {"time": 2160, "pitch": 50, "duration": 141, "velocity": 95}, {"time": 2170, "pitch": 57, "duration": 121, "velocity": 100}, {"time": 2180, "pitch": 62, "duration": 101, "velocity": 105}, {"time": 2180, "pitch": 66, "duration": 101, "velocity": 110}, {"time": 2281, "pitch": 66, "duration": 101, "velocity": 90}, {"time": 2291, "pitch": 57, "duration": 91, "velocity": 80}, {"time": 2291, "pitch": 62, "duration": 91, "velocity": 85}, {"time": 2301, "pitch": 50, "duration": 81, "velocity": 75}, {"time": 2402, "pitch": 40, "duration": 378, "velocity": 95}, {"time": 2412, "pitch": 55, "duration": 358, "velocity": 100}, {"time": 2422, "pitch": 59, "duration": 348, "velocity": 105}, {"time": 2432, "pitch": 64, "duration": 328, "velocity": 110}, {"time": 2760, "pitch": 67, "duration": 239, "velocity": 110}, {"time": 2770, "pitch": 55, "duration": 239, "velocity": 100}, {"time": 2770, "pitch": 59, "duration": 239, "velocity": 105}, {"time": 2780, "pitch": 52, "duration": 239, "velocity": 95}, {"time": 2999, "pitch": 67, "duration": 140, "velocity": 100}, {"time": 3009, "pitch": 55, "duration": 120, "velocity": 90}, {"time": 3009, "pitch": 59, "duration": 130, "velocity": 95}, {"time": 3019, "pitch": 52, "duration": 100, "velocity": 85}, {"time": 3119, "pitch": 52, "duration": 139, "velocity": 95}, {"time": 3129, "pitch": 55, "duration": 119, "velocity": 100}, {"time": 3139, "pitch": 59, "duration": 99, "velocity": 105}, {"time": 3139, "pitch": 67, "duration": 99, "velocity": 110}, {"time": 3238, "pitch": 67, "duration": 100, "velocity": 90}, {"time": 3248, "pitch": 55, "duration": 90, "velocity": 80}, {"time": 3248, "pitch": 59, "duration": 90, "velocity": 85}, {"time": 3258, "pitch": 52, "duration": 80, "velocity": 75}, {"time": 3357, "pitch": 50, "duration": 384, "velocity": 95}, {"time": 3368, "pitch": 57, "duration": 363, "velocity": 100}, {"time": 3378, "pitch": 62, "duration": 353, "velocity": 105}, {"time": 3388, "pitch": 66, "duration": 333, "velocity": 110}, {"time": 3721, "pitch": 66, "duration": 241, "velocity": 110}, {"time": 3731, "pitch": 57, "duration": 241, "velocity": 100}, {"time": 3731, "pitch": 62, "duration": 241, "velocity": 105}, {"time": 3741, "pitch": 50, "duration": 241, "velocity": 95}, {"time": 3962, "pitch": 66, "duration": 139, "velocity": 100}, {"time": 3972, "pitch": 57, "duration": 119, "velocity": 90}, {"time": 3972, "pitch": 62, "duration": 129, "velocity": 95}, {"time": 3982, "pitch": 50, "duration": 99, "velocity": 85}, {"time": 4081, "pitch": 50, "duration": 139, "velocity": 95}, {"time": 4091, "pitch": 57, "duration": 119, "velocity": 100}, {"time": 4101, "pitch": 62, "duration": 99, "velocity": 105}, {"time": 4101, "pitch": 66, "duration": 99, "velocity": 110}, {"time": 4200, "pitch": 66, "duration": 100, "velocity": 90}, {"time": 4210, "pitch": 57, "duration": 90, "velocity": 80}, {"time": 4210, "pitch": 62, "duration": 90, "velocity": 85}, {"time": 4220, "pitch": 50, "duration": 80, "velocity": 75}, {"time": 4320, "pitch": 48, "duration": 378, "velocity": 95}, {"time": 4330, "pitch": 55, "duration": 358, "velocity": 100}, {"time": 4340, "pitch": 60, "duration": 348, "velocity": 105}, {"time": 4350, "pitch": 64, "duration": 328, "velocity": 110}, {"time": 4678, "pitch": 67, "duration": 241, "velocity": 110}, {"time": 4688, "pitch": 60, "duration": 241, "velocity": 100}, {"time": 4688, "pitch": 64, "duration": 241, "velocity": 105}, {"time": 4698, "pitch": 55, "duration": 241, "velocity": 95}, {"time": 4919, "pitch": 67, "duration": 141, "velocity": 100}, {"time": 4929, "pitch": 60, "duration": 121, "velocity": 90}, {"time": 4929, "pitch": 64, "duration": 131, "velocity": 95}, {"time": 4939, "pitch": 55, "duration": 101, "velocity": 85}, {"time": 5040, "pitch": 55, "duration": 141, "velocity": 95}, {"time": 5050, "pitch": 60, "duration": 121, "velocity": 100}, {"time": 5060, "pitch": 64, "duration": 101, "velocity": 105}, {"time": 5060, "pitch": 67, "duration": 101, "velocity": 110}, {"time": 5161, "pitch": 67, "duration": 101, "velocity": 90}, {"time": 5171, "pitch": 60, "duration": 91, "velocity": 80}, {"time": 5171, "pitch": 64, "duration": 91, "velocity": 85}, {"time": 5181, "pitch": 55, "duration": 81, "velocity": 75}, {"time": 5282, "pitch": 50, "duration": 239, "velocity": 95}, {"time": 5292, "pitch": 57, "duration": 239, "velocity": 100}, {"time": 5302, "pitch": 62, "duration": 239, "velocity": 105}, {"time": 5312, "pitch": 67, "duration": 229, "velocity": 110}, {"time": 5521, "pitch": 50, "duration": 139, "velocity": 85}, {"time": 5531, "pitch": 57, "duration": 119, "velocity": 90}, {"time": 5541, "pitch": 62, "duration": 109, "velocity": 95}, {"time": 5541, "pitch": 67, "duration": 99, "velocity": 100}, {"time": 5640, "pitch": 66, "duration": 239, "velocity": 110}, {"time": 5650, "pitch": 57, "duration": 239, "velocity": 100}, {"time": 5650, "pitch": 62, "duration": 239, "velocity": 105}, {"time": 5660, "pitch": 50, "duration": 239, "velocity": 95}, {"time": 5879, "pitch": 66, "duration": 140, "velocity": 100}, {"time": 5889, "pitch": 57, "duration": 120, "velocity": 90}, {"time": 5889, "pitch": 62, "duration": 130, "velocity": 95}, {"time": 5899, "pitch": 50, "duration": 100, "velocity": 85}, {"time": 5999, "pitch": 50, "duration": 139, "velocity": 95}, {"time": 6009, "pitch": 57, "duration": 119, "velocity": 100}, {"time": 6019, "pitch": 62, "duration": 99, "velocity": 105}, {"time": 6019, "pitch": 66, "duration": 99, "velocity": 110}, {"time": 6118, "pitch": 66, "duration": 100, "velocity": 90}, {"time": 6128, "pitch": 57, "duration": 90, "velocity": 80}, {"time": 6128, "pitch": 62, "duration": 90, "velocity": 85}, {"time": 6138, "pitch": 50, "duration": 80, "velocity": 75}, {"time": 6237, "pitch": 50, "duration": 384, "velocity": 95}, {"time": 6247, "pitch": 55, "duration": 364, "velocity": 100}, {"time": 6258, "pitch": 59, "duration": 353, "velocity": 105}, {"time": 6268, "pitch": 67, "duration": 333, "velocity": 110}, {"time": 6601, "pitch": 67, "duration": 241, "velocity": 110}, {"time": 6611, "pitch": 55, "duration": 241, "velocity": 100}, {"time": 6611, "pitch": 59, "duration": 241, "velocity": 105}, {"time": 6621, "pitch": 50, "duration": 240, "velocity": 95}, {"time": 6842, "pitch": 67, "duration": 139, "velocity": 100}, {"time": 6852, "pitch": 55, "duration": 119, "velocity": 90}, {"time": 6852, "pitch": 59, "duration": 129, "velocity": 95}, {"time": 6861, "pitch": 50, "duration": 100, "velocity": 85}, {"time": 6961, "pitch": 50, "duration": 139, "velocity": 95}, {"time": 6971, "pitch": 55, "duration": 119, "velocity": 100}, {"time": 6981, "pitch": 59, "duration": 99, "velocity": 105}, {"time": 6981, "pitch": 67, "duration": 99, "velocity": 110}, {"time": 7080, "pitch": 67, "duration": 100, "velocity": 90}, {"time": 7090, "pitch": 55, "duration": 90, "velocity": 80}, {"time": 7090, "pitch": 59, "duration": 90, "velocity": 85}, {"time": 7100, "pitch": 50, "duration": 80, "velocity": 75}, {"time": 7200, "pitch": 50, "duration": 258, "velocity": 95}, {"time": 7210, "pitch": 57, "duration": 239, "velocity": 100}, {"time": 7220, "pitch": 62, "duration": 229, "velocity": 105}, {"time": 7230, "pitch": 66, "duration": 209, "velocity": 110}, {"time": 7439, "pitch": 66, "duration": 238, "velocity": 105}, {"time": 7449, "pitch": 57, "duration": 238, "velocity": 95}, {"time": 7449, "pitch": 62, "duration": 238, "velocity": 100}, {"time": 7458, "pitch": 50, "duration": 219, "velocity": 90}, {"time": 7677, "pitch": 50, "duration": 243, "velocity": 95}, {"time": 7687, "pitch": 57, "duration": 243, "velocity": 100}, {"time": 7698, "pitch": 62, "duration": 242, "velocity": 105}, {"time": 7698, "pitch": 66, "duration": 242, "velocity": 110}, {"time": 7920, "pitch": 50, "duration": 141, "velocity": 95}, {"time": 7930, "pitch": 57, "duration": 121, "velocity": 100}, {"time": 7940, "pitch": 62, "duration": 101, "velocity": 105}, {"time": 7940, "pitch": 66, "duration": 101, "velocity": 110}, {"time": 8041, "pitch": 66, "duration": 101, "velocity": 90}, {"time": 8051, "pitch": 57, "duration": 91, "velocity": 80}, {"time": 8051, "pitch": 62, "duration": 91, "velocity": 85}, {"time": 8061, "pitch": 50, "duration": 81, "velocity": 75}, {"time": 8162, "pitch": 50, "duration": 239, "velocity": 95}, {"time": 8172, "pitch": 55, "duration": 239, "velocity": 100}, {"time": 8182, "pitch": 59, "duration": 239, "velocity": 105}, {"time": 8192, "pitch": 67, "duration": 229, "velocity": 110}, {"time": 8401, "pitch": 50, "duration": 139, "velocity": 85}, {"time": 8411, "pitch": 55, "duration": 119, "velocity": 90}, {"time": 8421, "pitch": 59, "duration": 109, "velocity": 95}, {"time": 8421, "pitch": 67, "duration": 99, "velocity": 100}, {"time": 8520, "pitch": 67, "duration": 239, "velocity": 110}, {"time": 8530, "pitch": 55, "duration": 239, "velocity": 100}, {"time": 8530, "pitch": 59, "duration": 239, "velocity": 105}, {"time": 8540, "pitch": 50, "duration": 239, "velocity": 95}, {"time": 8759, "pitch": 67, "duration": 139, "velocity": 100}, {"time": 8769, "pitch": 55, "duration": 119, "velocity": 90}, {"time": 8769, "pitch": 59, "duration": 129, "velocity": 95}, {"time": 8779, "pitch": 50, "duration": 100, "velocity": 85}, {"time": 8879, "pitch": 50, "duration": 139, "velocity": 95}, {"time": 8888, "pitch": 55, "duration": 120, "velocity": 100}, {"time": 8898, "pitch": 59, "duration": 100, "velocity": 105}, {"time": 8898, "pitch": 67, "duration": 100, "velocity": 110}, {"time": 8998, "pitch": 67, "duration": 99, "velocity": 90}, {"time": 9008, "pitch": 55, "duration": 89, "velocity": 80}, {"time": 9008, "pitch": 59, "duration": 89, "velocity": 85}, {"time": 9018, "pitch": 50, "duration": 79, "velocity": 75}, {"time": 9117, "pitch": 50, "duration": 384, "velocity": 95}, {"time": 9127, "pitch": 57, "duration": 364, "velocity": 100}, {"time": 9138, "pitch": 62, "duration": 353, "velocity": 105}, {"time": 9148, "pitch": 66, "duration": 333, "velocity": 110}, {"time": 9481, "pitch": 66, "duration": 241, "velocity": 110}, {"time": 9491, "pitch": 57, "duration": 240, "velocity": 100}, {"time": 9491, "pitch": 62, "duration": 240, "velocity": 105}, {"time": 9501, "pitch": 50, "duration": 240, "velocity": 95}, {"time": 9722, "pitch": 66, "duration": 139, "velocity": 100}, {"time": 9731, "pitch": 57, "duration": 120, "velocity": 90}, {"time": 9731, "pitch": 62, "duration": 130, "velocity": 95}, {"time": 9741, "pitch": 50, "duration": 100, "velocity": 85}, {"time": 9841, "pitch": 50, "duration": 139, "velocity": 95}, {"time": 9851, "pitch": 57, "duration": 119, "velocity": 100}, {"time": 9861, "pitch": 62, "duration": 99, "velocity": 105}, {"time": 9861, "pitch": 66, "duration": 99, "velocity": 110}, {"time": 9960, "pitch": 66, "duration": 100, "velocity": 90}, {"time": 9970, "pitch": 57, "duration": 90, "velocity": 80}, {"time": 9970, "pitch": 62, "duration": 90, "velocity": 85}, {"time": 9980, "pitch": 50, "duration": 80, "velocity": 75}, {"time": 10080, "pitch": 40, "duration": 378, "velocity": 95}, {"time": 10090, "pitch": 55, "duration": 358, "velocity": 100}, {"time": 10100, "pitch": 59, "duration": 348, "velocity": 105}, {"time": 10110, "pitch": 64, "duration": 328, "velocity": 110}, {"time": 10438, "pitch": 67, "duration": 240, "velocity": 110}, {"time": 10448, "pitch": 55, "duration": 241, "velocity": 100}, {"time": 10448, "pitch": 59, "duration": 241, "velocity": 105}, {"time": 10458, "pitch": 52, "duration": 241, "velocity": 95}, {"time": 10678, "pitch": 67, "duration": 142, "velocity": 100}, {"time": 10689, "pitch": 55, "duration": 121, "velocity": 90}, {"time": 10689, "pitch": 59, "duration": 131, "velocity": 95}, {"time": 10699, "pitch": 52, "duration": 101, "velocity": 85}, {"time": 10800, "pitch": 52, "duration": 141, "velocity": 95}, {"time": 10810, "pitch": 55, "duration": 121, "velocity": 100}, {"time": 10820, "pitch": 59, "duration": 101, "velocity": 105}, {"time": 10820, "pitch": 67, "duration": 101, "velocity": 110}, {"time": 10921, "pitch": 67, "duration": 141, "velocity": 90}, {"time": 10931, "pitch": 55, "duration": 121, "velocity": 80}, {"time": 10931, "pitch": 59, "duration": 121, "velocity": 85}, {"time": 10941, "pitch": 52, "duration": 101, "velocity": 75}, {"time": 11042, "pitch": 52, "duration": 378, "velocity": 95}, {"time": 11052, "pitch": 55, "duration": 358, "velocity": 100}, {"time": 11062, "pitch": 59, "duration": 348, "velocity": 105}, {"time": 11072, "pitch": 67, "duration": 328, "velocity": 110}, {"time": 11400, "pitch": 67, "duration": 239, "velocity": 110}, {"time": 11410, "pitch": 55, "duration": 239, "velocity": 100}, {"time": 11410, "pitch": 59, "duration": 239, "velocity": 105}, {"time": 11420, "pitch": 52, "duration": 239, "velocity": 95}, {"time": 11639, "pitch": 67, "duration": 139, "velocity": 100}, {"time": 11649, "pitch": 55, "duration": 119, "velocity": 90}, {"time": 11649, "pitch": 59, "duration": 129, "velocity": 95}, {"time": 11659, "pitch": 52, "duration": 99, "velocity": 85}, {"time": 11758, "pitch": 52, "duration": 140, "velocity": 95}, {"time": 11768, "pitch": 55, "duration": 120, "velocity": 100}, {"time": 11778, "pitch": 59, "duration": 100, "velocity": 105}, {"time": 11778, "pitch": 67, "duration": 100, "velocity": 110}, {"time": 11878, "pitch": 67, "duration": 99, "velocity": 90}, {"time": 11888, "pitch": 55, "duration": 89, "velocity": 80}, {"time": 11888, "pitch": 59, "duration": 89, "velocity": 85}, {"time": 11898, "pitch": 52, "duration": 79, "velocity": 75}, {"time": 11997, "pitch": 48, "duration": 384, "velocity": 95}, {"time": 12007, "pitch": 55, "duration": 364, "velocity": 100}, {"time": 12017, "pitch": 60, "duration": 354, "velocity": 105}, {"time": 12028, "pitch": 64, "duration": 333, "velocity": 110}, {"time": 12361, "pitch": 67, "duration": 240, "velocity": 110}, {"time": 12371, "pitch": 60, "duration": 240, "velocity": 100}, {"time": 12371, "pitch": 64, "duration": 240, "velocity": 105}, {"time": 12381, "pitch": 55, "duration": 240, "velocity": 95}, {"time": 12601, "pitch": 67, "duration": 140, "velocity": 100}, {"time": 12611, "pitch": 60, "duration": 120, "velocity": 90}, {"time": 12611, "pitch": 64, "duration": 130, "velocity": 95}, {"time": 12621, "pitch": 55, "duration": 100, "velocity": 85}, {"time": 12721, "pitch": 55, "duration": 139, "velocity": 95}, {"time": 12731, "pitch": 60, "duration": 119, "velocity": 100}, {"time": 12741, "pitch": 64, "duration": 99, "velocity": 105}, {"time": 12741, "pitch": 67, "duration": 99, "velocity": 110}, {"time": 12840, "pitch": 67, "duration": 100, "velocity": 90}, {"time": 12850, "pitch": 60, "duration": 90, "velocity": 80}, {"time": 12850, "pitch": 64, "duration": 90, "velocity": 85}, {"time": 12860, "pitch": 55, "duration": 80, "velocity": 75}, {"time": 12960, "pitch": 50, "duration": 238, "velocity": 95}, {"time": 12970, "pitch": 55, "duration": 238, "velocity": 100}, {"time": 12980, "pitch": 59, "duration": 238, "velocity": 105}, {"time": 12989, "pitch": 67, "duration": 229, "velocity": 110}, {"time": 13198, "pitch": 50, "duration": 140, "velocity": 85}, {"time": 13208, "pitch": 55, "duration": 120, "velocity": 90}, {"time": 13218, "pitch": 59, "duration": 110, "velocity": 95}, {"time": 13218, "pitch": 67, "duration": 100, "velocity": 100}, {"time": 13318, "pitch": 67, "duration": 240, "velocity": 110}, {"time": 13328, "pitch": 55, "duration": 241, "velocity": 100}, {"time": 13328, "pitch": 59, "duration": 241, "velocity": 105}, {"time": 13338, "pitch": 50, "duration": 241, "velocity": 95}, {"time": 13558, "pitch": 67, "duration": 142, "velocity": 100}, {"time": 13569, "pitch": 55, "duration": 121, "velocity": 90}, {"time": 13569, "pitch": 59, "duration": 131, "velocity": 95}, {"time": 13579, "pitch": 50, "duration": 101, "velocity": 85}, {"time": 13680, "pitch": 50, "duration": 141, "velocity": 95}, {"time": 13690, "pitch": 55, "duration": 121, "velocity": 100}, {"time": 13700, "pitch": 59, "duration": 101, "velocity": 105}, {"time": 13700, "pitch": 67, "duration": 101, "velocity": 110}, {"time": 13801, "pitch": 67, "duration": 101, "velocity": 90}, {"time": 13811, "pitch": 55, "duration": 91, "velocity": 80}, {"time": 13811, "pitch": 59, "duration": 91, "velocity": 85}, {"time": 13821, "pitch": 50, "duration": 81, "velocity": 75}, {"time": 13922, "pitch": 52, "duration": 378, "velocity": 95}, {"time": 13932, "pitch": 57, "duration": 358, "velocity": 100}, {"time": 13942, "pitch": 60, "duration": 348, "velocity": 105}, {"time": 13952, "pitch": 64, "duration": 328, "velocity": 110}, {"time": 14280, "pitch": 64, "duration": 239, "velocity": 110}, {"time": 14290, "pitch": 57, "duration": 239, "velocity": 100}, {"time": 14290, "pitch": 60, "duration": 239, "velocity": 105}, {"time": 14300, "pitch": 52, "duration": 239, "velocity": 95}, {"time": 14519, "pitch": 64, "duration": 139, "velocity": 100}, {"time": 14529, "pitch": 57, "duration": 119, "velocity": 90}, {"time": 14529, "pitch": 60, "duration": 129, "velocity": 95}, {"time": 14539, "pitch": 52, "duration": 99, "velocity": 85}, {"time": 14638, "pitch": 52, "duration": 140, "velocity": 95}, {"time": 14648, "pitch": 57, "duration": 120, "velocity": 100}, {"time": 14658, "pitch": 60, "duration": 100, "velocity": 105}, {"time": 14658, "pitch": 64, "duration": 100, "velocity": 110}, {"time": 14758, "pitch": 64, "duration": 99, "velocity": 90}, {"time": 14768, "pitch": 57, "duration": 89, "velocity": 80}, {"time": 14768, "pitch": 60, "duration": 89, "velocity": 85}, {"time": 14778, "pitch": 52, "duration": 79, "velocity": 75}, {"time": 14877, "pitch": 45, "duration": 263, "velocity": 105}, {"time": 14887, "pitch": 57, "duration": 243, "velocity": 100}, {"time": 14897, "pitch": 60, "duration": 233, "velocity": 105}, {"time": 14907, "pitch": 64, "duration": 213, "velocity": 110}, {"time": 15120, "pitch": 64, "duration": 242, "velocity": 105}, {"time": 15130, "pitch": 57, "duration": 242, "velocity": 105}, {"time": 15130, "pitch": 60, "duration": 242, "velocity": 100}, {"time": 15140, "pitch": 45, "duration": 222, "velocity": 90}, {"time": 15362, "pitch": 47, "duration": 239, "velocity": 105}, {"time": 15372, "pitch": 57, "duration": 239, "velocity": 100}, {"time": 15382, "pitch": 60, "duration": 239, "velocity": 105}, {"time": 15382, "pitch": 64, "duration": 239, "velocity": 110}, {"time": 15601, "pitch": 48, "duration": 219, "velocity": 105}, {"time": 15611, "pitch": 57, "duration": 209, "velocity": 100}, {"time": 15621, "pitch": 60, "duration": 199, "velocity": 105}, {"time": 15621, "pitch": 64, "duration": 199, "velocity": 110}, {"time": 15840, "pitch": 50, "duration": 378, "velocity": 95}, {"time": 15850, "pitch": 57, "duration": 358, "velocity": 100}, {"time": 15859, "pitch": 62, "duration": 349, "velocity": 105}, {"time": 15869, "pitch": 66, "duration": 329, "velocity": 110}, {"time": 16198, "pitch": 66, "duration": 240, "velocity": 110}, {"time": 16208, "pitch": 57, "duration": 240, "velocity": 100}, {"time": 16208, "pitch": 62, "duration": 240, "velocity": 105}, {"time": 16218, "pitch": 50, "duration": 241, "velocity": 95}, {"time": 16438, "pitch": 66, "duration": 142, "velocity": 100}, {"time": 16448, "pitch": 57, "duration": 122, "velocity": 90}, {"time": 16448, "pitch": 62, "duration": 132, "velocity": 95}, {"time": 16459, "pitch": 50, "duration": 101, "velocity": 85}, {"time": 16560, "pitch": 50, "duration": 141, "velocity": 95}, {"time": 16570, "pitch": 57, "duration": 121, "velocity": 100}, {"time": 16580, "pitch": 62, "duration": 101, "velocity": 105}, {"time": 16580, "pitch": 66, "duration": 101, "velocity": 110}, {"time": 16681, "pitch": 66, "duration": 101, "velocity": 90}, {"time": 16691, "pitch": 57, "duration": 91, "velocity": 80}, {"time": 16691, "pitch": 62, "duration": 91, "velocity": 85}, {"time": 16701, "pitch": 50, "duration": 81, "velocity": 75}, {"time": 16802, "pitch": 51, "duration": 378, "velocity": 95}, {"time": 16812, "pitch": 57, "duration": 358, "velocity": 100}, {"time": 16822, "pitch": 60, "duration": 348, "velocity": 105}, {"time": 16832, "pitch": 66, "duration": 328, "velocity": 110}, {"time": 17160, "pitch": 66, "duration": 239, "velocity": 110}, {"time": 17170, "pitch": 57, "duration": 239, "velocity": 100}, {"time": 17170, "pitch": 60, "duration": 239, "velocity": 105}, {"time": 17180, "pitch": 51, "duration": 239, "velocity": 95}, {"time": 17399, "pitch": 66, "duration": 139, "velocity": 100}, {"time": 17409, "pitch": 57, "duration": 119, "velocity": 90}, {"time": 17409, "pitch": 60, "duration": 129, "velocity": 95}, {"time": 17419, "pitch": 51, "duration": 99, "velocity": 85}, {"time": 17518, "pitch": 51, "duration": 140, "velocity": 95}, {"time": 17528, "pitch": 57, "duration": 120, "velocity": 100}, {"time": 17538, "pitch": 60, "duration": 100, "velocity": 105}, {"time": 17538, "pitch": 66, "duration": 100, "velocity": 110}, {"time": 17638, "pitch": 66, "duration": 99, "velocity": 90}, {"time": 17648, "pitch": 57, "duration": 89, "velocity": 80}, {"time": 17648, "pitch": 60, "duration": 89, "velocity": 85}, {"time": 17658, "pitch": 51, "duration": 79, "velocity": 75}, {"time": 17757, "pitch": 40, "duration": 384, "velocity": 95}, {"time": 17767, "pitch": 55, "duration": 364, "velocity": 100}, {"time": 17777, "pitch": 59, "duration": 354, "velocity": 105}, {"time": 17787, "pitch": 64, "duration": 334, "velocity": 110}, {"time": 18121, "pitch": 64, "duration": 240, "velocity": 110}, {"time": 18131, "pitch": 55, "duration": 240, "velocity": 100}, {"time": 18131, "pitch": 59, "duration": 240, "velocity": 105}, {"time": 18141, "pitch": 52, "duration": 240, "velocity": 95}, {"time": 18361, "pitch": 64, "duration": 140, "velocity": 100}, {"time": 18371, "pitch": 55, "duration": 120, "velocity": 90}, {"time": 18371, "pitch": 59, "duration": 130, "velocity": 95}, {"time": 18381, "pitch": 52, "duration": 100, "velocity": 85}, {"time": 18481, "pitch": 52, "duration": 139, "velocity": 95}, {"time": 18491, "pitch": 55, "duration": 119, "velocity": 100}, {"time": 18501, "pitch": 59, "duration": 99, "velocity": 105}, {"time": 18501, "pitch": 64, "duration": 99, "velocity": 110}, {"time": 18600, "pitch": 64, "duration": 100, "velocity": 90}, {"time": 18610, "pitch": 55, "duration": 90, "velocity": 80}, {"time": 18610, "pitch": 59, "duration": 90, "velocity": 85}, {"time": 18620, "pitch": 52, "duration": 80, "velocity": 75}, {"time": 18719, "pitch": 45, "duration": 379, "velocity": 95}, {"time": 18729, "pitch": 55, "duration": 359, "velocity": 100}, {"time": 18739, "pitch": 61, "duration": 349, "velocity": 105}, {"time": 18749, "pitch": 64, "duration": 329, "velocity": 110}, {"time": 19078, "pitch": 64, "duration": 240, "velocity": 110}, {"time": 19088, "pitch": 55, "duration": 240, "velocity": 100}, {"time": 19088, "pitch": 61, "duration": 240, "velocity": 105}, {"time": 19098, "pitch": 52, "duration": 240, "velocity": 95}, {"time": 19318, "pitch": 64, "duration": 142, "velocity": 100}, {"time": 19328, "pitch": 55, "duration": 122, "velocity": 90}, {"time": 19328, "pitch": 61, "duration": 132, "velocity": 95}, {"time": 19338, "pitch": 52, "duration": 101, "velocity": 85}, {"time": 19439, "pitch": 52, "duration": 142, "velocity": 95}, {"time": 19450, "pitch": 55, "duration": 121, "velocity": 100}, {"time": 19460, "pitch": 61, "duration": 101, "velocity": 105}, {"time": 19460, "pitch": 64, "duration": 101, "velocity": 110}, {"time": 19561, "pitch": 64, "duration": 101, "velocity": 90}, {"time": 19571, "pitch": 55, "duration": 91, "velocity": 80}, {"time": 19571, "pitch": 61, "duration": 91, "velocity": 85}, {"time": 19581, "pitch": 52, "duration": 81, "velocity": 75}, {"time": 19682, "pitch": 45, "duration": 378, "velocity": 95}, {"time": 19692, "pitch": 57, "duration": 358, "velocity": 100}, {"time": 19702, "pitch": 60, "duration": 348, "velocity": 105}, {"time": 19712, "pitch": 64, "duration": 328, "velocity": 110}, {"time": 20040, "pitch": 64, "duration": 239, "velocity": 110}, {"time": 20050, "pitch": 57, "duration": 239, "velocity": 100}, {"time": 20050, "pitch": 60, "duration": 239, "velocity": 105}, {"time": 20060, "pitch": 52, "duration": 239, "velocity": 95}, {"time": 20279, "pitch": 64, "duration": 139, "velocity": 100}, {"time": 20289, "pitch": 57, "duration": 119, "velocity": 90}, {"time": 20289, "pitch": 60, "duration": 129, "velocity": 95}, {"time": 20299, "pitch": 52, "duration": 99, "velocity": 85}, {"time": 20398, "pitch": 52, "duration": 140, "velocity": 95}, {"time": 20408, "pitch": 57, "duration": 120, "velocity": 100}, {"time": 20418, "pitch": 60, "duration": 100, "velocity": 105}, {"time": 20418, "pitch": 64, "duration": 100, "velocity": 110}, {"time": 20518, "pitch": 64, "duration": 99, "velocity": 90}, {"time": 20528, "pitch": 57, "duration": 89, "velocity": 80}, {"time": 20528, "pitch": 60, "duration": 89, "velocity": 85}, {"time": 20538, "pitch": 52, "duration": 79, "velocity": 75}, {"time": 20637, "pitch": 50, "duration": 384, "velocity": 95}, {"time": 20647, "pitch": 57, "duration": 364, "velocity": 100}, {"time": 20657, "pitch": 62, "duration": 354, "velocity": 105}, {"time": 20667, "pitch": 67, "duration": 334, "velocity": 110}, {"time": 21001, "pitch": 66, "duration": 240, "velocity": 110}, {"time": 21011, "pitch": 57, "duration": 240, "velocity": 100}, {"time": 21011, "pitch": 62, "duration": 240, "velocity": 105}, {"time": 21021, "pitch": 50, "duration": 240, "velocity": 95}, {"time": 21241, "pitch": 66, "duration": 140, "velocity": 100}, {"time": 21251, "pitch": 57, "duration": 120, "velocity": 90}, {"time": 21251, "pitch": 62, "duration": 130, "velocity": 95}, {"time": 21261, "pitch": 50, "duration": 100, "velocity": 85}, {"time": 21361, "pitch": 50, "duration": 139, "velocity": 95}, {"time": 21371, "pitch": 57, "duration": 119, "velocity": 100}, {"time": 21381, "pitch": 62, "duration": 99, "velocity": 105}, {"time": 21381, "pitch": 66, "duration": 99, "velocity": 110}, {"time": 21480, "pitch": 66, "duration": 100, "velocity": 90}, {"time": 21490, "pitch": 57, "duration": 90, "velocity": 80}, {"time": 21490, "pitch": 62, "duration": 90, "velocity": 85}, {"time": 21500, "pitch": 50, "duration": 80, "velocity": 75}, {"time": 21599, "pitch": 50, "duration": 379, "velocity": 95}, {"time": 21609, "pitch": 55, "duration": 359, "velocity": 100}, {"time": 21619, "pitch": 59, "duration": 349, "velocity": 105}, {"time": 21629, "pitch": 67, "duration": 329, "velocity": 110}, {"time": 21958, "pitch": 67, "duration": 240, "velocity": 110}, {"time": 21968, "pitch": 55, "duration": 240, "velocity": 100}, {"time": 21968, "pitch": 59, "duration": 240, "velocity": 105}, {"time": 21978, "pitch": 50, "duration": 240, "velocity": 95}, {"time": 22198, "pitch": 67, "duration": 142, "velocity": 100}, {"time": 22208, "pitch": 55, "duration": 122, "velocity": 90}, {"time": 22208, "pitch": 59, "duration": 132, "velocity": 95}, {"time": 22218, "pitch": 50, "duration": 101, "velocity": 85}, {"time": 22319, "pitch": 50, "duration": 142, "velocity": 95}, {"time": 22330, "pitch": 55, "duration": 121, "velocity": 100}, {"time": 22340, "pitch": 59, "duration": 101, "velocity": 105}, {"time": 22340, "pitch": 67, "duration": 101, "velocity": 110}, {"time": 22441, "pitch": 67, "duration": 101, "velocity": 90}, {"time": 22451, "pitch": 55, "duration": 91, "velocity": 80}, {"time": 22451, "pitch": 59, "duration": 91, "velocity": 85}, {"time": 22461, "pitch": 50, "duration": 81, "velocity": 75}, {"time": 22562, "pitch": 50, "duration": 258, "velocity": 95}, {"time": 22572, "pitch": 57, "duration": 239, "velocity": 100}, {"time": 22582, "pitch": 62, "duration": 229, "velocity": 105}, {"time": 22592, "pitch": 66, "duration": 209, "velocity": 110}, {"time": 22801, "pitch": 66, "duration": 238, "velocity": 105}, {"time": 22811, "pitch": 57, "duration": 238, "velocity": 95}, {"time": 22811, "pitch": 62, "duration": 238, "velocity": 100}, {"time": 22820, "pitch": 50, "duration": 219, "velocity": 90}, {"time": 23039, "pitch": 50, "duration": 239, "velocity": 95}, {"time": 23049, "pitch": 57, "duration": 239, "velocity": 100}, {"time": 23059, "pitch": 62, "duration": 239, "velocity": 105}, {"time": 23059, "pitch": 66, "duration": 239, "velocity": 110}, {"time": 23278, "pitch": 50, "duration": 139, "velocity": 95}, {"time": 23288, "pitch": 57, "duration": 120, "velocity": 100}, {"time": 23298, "pitch": 62, "duration": 100, "velocity": 105}, {"time": 23298, "pitch": 66, "duration": 100, "velocity": 110}, {"time": 23398, "pitch": 66, "duration": 99, "velocity": 90}, {"time": 23408, "pitch": 57, "duration": 89, "velocity": 80}, {"time": 23408, "pitch": 62, "duration": 89, "velocity": 85}, {"time": 23417, "pitch": 50, "duration": 80, "velocity": 75}, {"time": 23517, "pitch": 50, "duration": 242, "velocity": 95}, {"time": 23527, "pitch": 55, "duration": 242, "velocity": 100}, {"time": 23537, "pitch": 59, "duration": 243, "velocity": 105}, {"time": 23547, "pitch": 67, "duration": 233, "velocity": 110}, {"time": 23759, "pitch": 50, "duration": 142, "velocity": 85}, {"time": 23769, "pitch": 55, "duration": 122, "velocity": 90}, {"time": 23780, "pitch": 59, "duration": 111, "velocity": 95}, {"time": 23780, "pitch": 67, "duration": 101, "velocity": 100}, {"time": 23881, "pitch": 67, "duration": 240, "velocity": 110}, {"time": 23891, "pitch": 55, "duration": 240, "velocity": 100}, {"time": 23891, "pitch": 59, "duration": 240, "velocity": 105}, {"time": 23901, "pitch": 50, "duration": 240, "velocity": 95}, {"time": 24121, "pitch": 67, "duration": 139, "velocity": 100}, {"time": 24131, "pitch": 55, "duration": 120, "velocity": 90}, {"time": 24131, "pitch": 59, "duration": 129, "velocity": 95}, {"time": 24141, "pitch": 50, "duration": 100, "velocity": 85}, {"time": 24241, "pitch": 50, "duration": 139, "velocity": 95}, {"time": 24251, "pitch": 55, "duration": 119, "velocity": 100}, {"time": 24260, "pitch": 59, "duration": 100, "velocity": 105}, {"time": 24260, "pitch": 67, "duration": 100, "velocity": 110}, {"time": 24360, "pitch": 67, "duration": 99, "velocity": 90}, {"time": 24370, "pitch": 55, "duration": 89, "velocity": 80}, {"time": 24370, "pitch": 59, "duration": 89, "velocity": 85}, {"time": 24380, "pitch": 50, "duration": 79, "velocity": 75}, {"time": 24479, "pitch": 50, "duration": 378, "velocity": 95}, {"time": 24489, "pitch": 57, "duration": 359, "velocity": 100}, {"time": 24499, "pitch": 62, "duration": 349, "velocity": 105}, {"time": 24509, "pitch": 66, "duration": 329, "velocity": 110}, {"time": 24838, "pitch": 66, "duration": 240, "velocity": 110}, {"time": 24848, "pitch": 57, "duration": 240, "velocity": 100}, {"time": 24848, "pitch": 62, "duration": 240, "velocity": 105}, {"time": 24857, "pitch": 50, "duration": 241, "velocity": 95}, {"time": 25078, "pitch": 66, "duration": 142, "velocity": 100}, {"time": 25088, "pitch": 57, "duration": 121, "velocity": 90}, {"time": 25088, "pitch": 62, "duration": 132, "velocity": 95}, {"time": 25098, "pitch": 50, "duration": 101, "velocity": 85}, {"time": 25199, "pitch": 50, "duration": 142, "velocity": 95}, {"time": 25209, "pitch": 57, "duration": 122, "velocity": 100}, {"time": 25220, "pitch": 62, "duration": 101, "velocity": 105}, {"time": 25220, "pitch": 66, "duration": 101, "velocity": 110}, {"time": 25321, "pitch": 66, "duration": 101, "velocity": 90}, {"time": 25331, "pitch": 57, "duration": 91, "velocity": 80}, {"time": 25331, "pitch": 62, "duration": 91, "velocity": 85}, {"time": 25341, "pitch": 50, "duration": 81, "velocity": 75}, {"time": 25442, "pitch": 40, "duration": 378, "velocity": 95}, {"time": 25452, "pitch": 55, "duration": 358, "velocity": 100}, {"time": 25462, "pitch": 59, "duration": 348, "velocity": 105}, {"time": 25472, "pitch": 64, "duration": 328, "velocity": 110}, {"time": 25800, "pitch": 67, "duration": 239, "velocity": 110}, {"time": 25810, "pitch": 55, "duration": 239, "velocity": 100}, {"time": 25810, "pitch": 59, "duration": 239, "velocity": 105}, {"time": 25820, "pitch": 52, "duration": 239, "velocity": 95}, {"time": 26039, "pitch": 67, "duration": 139, "velocity": 100}, {"time": 26049, "pitch": 55, "duration": 119, "velocity": 90}, {"time": 26049, "pitch": 59, "duration": 129, "velocity": 95}, {"time": 26059, "pitch": 52, "duration": 99, "velocity": 85}, {"time": 26158, "pitch": 52, "duration": 139, "velocity": 95}, {"time": 26168, "pitch": 55, "duration": 119, "velocity": 100}, {"time": 26178, "pitch": 59, "duration": 100, "velocity": 105}, {"time": 26178, "pitch": 67, "duration": 100, "velocity": 110}, {"time": 26278, "pitch": 67, "duration": 99, "velocity": 90}, {"time": 26287, "pitch": 55, "duration": 90, "velocity": 80}, {"time": 26287, "pitch": 59, "duration": 90, "velocity": 85}, {"time": 26297, "pitch": 52, "duration": 80, "velocity": 75}, {"time": 26397, "pitch": 50, "duration": 384, "velocity": 95}, {"time": 26407, "pitch": 57, "duration": 364, "velocity": 100}, {"time": 26417, "pitch": 62, "duration": 354, "velocity": 105}, {"time": 26427, "pitch": 66, "duration": 334, "velocity": 110}, {"time": 26761, "pitch": 66, "duration": 240, "velocity": 110}, {"time": 26771, "pitch": 57, "duration": 240, "velocity": 100}, {"time": 26771, "pitch": 62, "duration": 240, "velocity": 105}, {"time": 26781, "pitch": 50, "duration": 240, "velocity": 95}, {"time": 27001, "pitch": 66, "duration": 139, "velocity": 100}, {"time": 27011, "pitch": 57, "duration": 119, "velocity": 90}, {"time": 27011, "pitch": 62, "duration": 129, "velocity": 95}, {"time": 27021, "pitch": 50, "duration": 99, "velocity": 85}, {"time": 27120, "pitch": 50, "duration": 140, "velocity": 95}, {"time": 27130, "pitch": 57, "duration": 120, "velocity": 100}, {"time": 27140, "pitch": 62, "duration": 100, "velocity": 105}, {"time": 27140, "pitch": 66, "duration": 100, "velocity": 110}, {"time": 27240, "pitch": 66, "duration": 99, "velocity": 90}, {"time": 27250, "pitch": 57, "duration": 89, "velocity": 80}, {"time": 27250, "pitch": 62, "duration": 89, "velocity": 85}, {"time": 27260, "pitch": 50, "duration": 79, "velocity": 75}, {"time": 27359, "pitch": 48, "duration": 378, "velocity": 95}, {"time": 27369, "pitch": 55, "duration": 358, "velocity": 100}, {"time": 27379, "pitch": 60, "duration": 348, "velocity": 105}, {"time": 27389, "pitch": 64, "duration": 328, "velocity": 110}, {"time": 27717, "pitch": 67, "duration": 241, "velocity": 110}, {"time": 27727, "pitch": 60, "duration": 241, "velocity": 100}, {"time": 27727, "pitch": 64, "duration": 241, "velocity": 105}, {"time": 27737, "pitch": 55, "duration": 241, "velocity": 95}, {"time": 27958, "pitch": 67, "duration": 141, "velocity": 100}, {"time": 27968, "pitch": 60, "duration": 121, "velocity": 90}, {"time": 27968, "pitch": 64, "duration": 131, "velocity": 95}, {"time": 27978, "pitch": 55, "duration": 101, "velocity": 85}, {"time": 28079, "pitch": 55, "duration": 142, "velocity": 95}, {"time": 28089, "pitch": 60, "duration": 122, "velocity": 100}, {"time": 28099, "pitch": 64, "duration": 101, "velocity": 105}, {"time": 28099, "pitch": 67, "duration": 101, "velocity": 110}, {"time": 28200, "pitch": 67, "duration": 101, "velocity": 90}, {"time": 28211, "pitch": 60, "duration": 90, "velocity": 80}, {"time": 28211, "pitch": 64, "duration": 90, "velocity": 85}, {"time": 28221, "pitch": 55, "duration": 80, "velocity": 75}, {"time": 28322, "pitch": 50, "duration": 238, "velocity": 95}, {"time": 28332, "pitch": 57, "duration": 238, "velocity": 100}, {"time": 28342, "pitch": 62, "duration": 238, "velocity": 105}, {"time": 28351, "pitch": 67, "duration": 229, "velocity": 110}, {"time": 28560, "pitch": 50, "duration": 140, "velocity": 85}, {"time": 28570, "pitch": 57, "duration": 120, "velocity": 90}, {"time": 28580, "pitch": 62, "duration": 110, "velocity": 95}, {"time": 28580, "pitch": 67, "duration": 100, "velocity": 100}, {"time": 28680, "pitch": 66, "duration": 239, "velocity": 110}, {"time": 28690, "pitch": 57, "duration": 239, "velocity": 100}, {"time": 28690, "pitch": 62, "duration": 239, "velocity": 105}, {"time": 28700, "pitch": 50, "duration": 239, "velocity": 95}, {"time": 28919, "pitch": 66, "duration": 139, "velocity": 100}, {"time": 28929, "pitch": 57, "duration": 119, "velocity": 90}, {"time": 28929, "pitch": 62, "duration": 129, "velocity": 95}, {"time": 28939, "pitch": 50, "duration": 99, "velocity": 85}, {"time": 29038, "pitch": 50, "duration": 139, "velocity": 95}, {"time": 29048, "pitch": 57, "duration": 119, "velocity": 100}, {"time": 29058, "pitch": 62, "duration": 99, "velocity": 105}, {"time": 29058, "pitch": 66, "duration": 99, "velocity": 110}, {"time": 29157, "pitch": 66, "duration": 100, "velocity": 90}, {"time": 29167, "pitch": 57, "duration": 90, "velocity": 80}, {"time": 29167, "pitch": 62, "duration": 90, "velocity": 85}, {"time": 29177, "pitch": 50, "duration": 80, "velocity": 75}, {"time": 29277, "pitch": 50, "duration": 384, "velocity": 95}, {"time": 29287, "pitch": 55, "duration": 364, "velocity": 100}, {"time": 29297, "pitch": 59, "duration": 354, "velocity": 105}, {"time": 29307, "pitch": 67, "duration": 333, "velocity": 110}, {"time": 29640, "pitch": 67, "duration": 241, "velocity": 110}, {"time": 29651, "pitch": 55, "duration": 240, "velocity": 100}, {"time": 29651, "pitch": 59, "duration": 240, "velocity": 105}, {"time": 29661, "pitch": 50, "duration": 240, "velocity": 95}, {"time": 29881, "pitch": 67, "duration": 139, "velocity": 100}, {"time": 29891, "pitch": 55, "duration": 119, "velocity": 90}, {"time": 29891, "pitch": 59, "duration": 129, "velocity": 95}, {"time": 29901, "pitch": 50, "duration": 99, "velocity": 85}, {"time": 30000, "pitch": 50, "duration": 140, "velocity": 95}, {"time": 30010, "pitch": 55, "duration": 120, "velocity": 100}, {"time": 30020, "pitch": 59, "duration": 100, "velocity": 105}, {"time": 30020, "pitch": 67, "duration": 100, "velocity": 110}, {"time": 30120, "pitch": 67, "duration": 99, "velocity": 90}, {"time": 30130, "pitch": 55, "duration": 89, "velocity": 80}, {"time": 30130, "pitch": 59, "duration": 89, "velocity": 85}, {"time": 30140, "pitch": 50, "duration": 79, "velocity": 75}, {"time": 30239, "pitch": 50, "duration": 259, "velocity": 95}, {"time": 30249, "pitch": 57, "duration": 239, "velocity": 100}, {"time": 30259, "pitch": 62, "duration": 229, "velocity": 105}, {"time": 30269, "pitch": 66, "duration": 209, "velocity": 110}, {"time": 30478, "pitch": 66, "duration": 239, "velocity": 105}, {"time": 30488, "pitch": 57, "duration": 239, "velocity": 95}, {"time": 30488, "pitch": 62, "duration": 239, "velocity": 100}, {"time": 30498, "pitch": 50, "duration": 219, "velocity": 90}, {"time": 30717, "pitch": 50, "duration": 242, "velocity": 95}, {"time": 30727, "pitch": 57, "duration": 242, "velocity": 100}, {"time": 30737, "pitch": 62, "duration": 242, "velocity": 105}, {"time": 30737, "pitch": 66, "duration": 242, "velocity": 110}, {"time": 30959, "pitch": 50, "duration": 142, "velocity": 95}, {"time": 30969, "pitch": 57, "duration": 121, "velocity": 100}, {"time": 30979, "pitch": 62, "duration": 101, "velocity": 105}, {"time": 30979, "pitch": 66, "duration": 101, "velocity": 110}, {"time": 31080, "pitch": 66, "duration": 101, "velocity": 90}, {"time": 31090, "pitch": 57, "duration": 91, "velocity": 80}, {"time": 31090, "pitch": 62, "duration": 91, "velocity": 85}, {"time": 31101, "pitch": 50, "duration": 80, "velocity": 75}, {"time": 31202, "pitch": 50, "duration": 238, "velocity": 95}, {"time": 31212, "pitch": 55, "duration": 238, "velocity": 100}, {"time": 31221, "pitch": 59, "duration": 239, "velocity": 105}, {"time": 31231, "pitch": 67, "duration": 229, "velocity": 110}, {"time": 31440, "pitch": 50, "duration": 140, "velocity": 85}, {"time": 31450, "pitch": 55, "duration": 120, "velocity": 90}, {"time": 31460, "pitch": 59, "duration": 110, "velocity": 95}, {"time": 31460, "pitch": 67, "duration": 100, "velocity": 100}, {"time": 31560, "pitch": 67, "duration": 239, "velocity": 110}, {"time": 31570, "pitch": 55, "duration": 239, "velocity": 100}, {"time": 31570, "pitch": 59, "duration": 239, "velocity": 105}, {"time": 31580, "pitch": 50, "duration": 238, "velocity": 95}, {"time": 31799, "pitch": 67, "duration": 139, "velocity": 100}, {"time": 31809, "pitch": 55, "duration": 119, "velocity": 90}, {"time": 31809, "pitch": 59, "duration": 129, "velocity": 95}, {"time": 31818, "pitch": 50, "duration": 100, "velocity": 85}, {"time": 31918, "pitch": 50, "duration": 139, "velocity": 95}, {"time": 31928, "pitch": 55, "duration": 119, "velocity": 100}, {"time": 31938, "pitch": 59, "duration": 99, "velocity": 105}, {"time": 31938, "pitch": 67, "duration": 99, "velocity": 110}, {"time": 32037, "pitch": 67, "duration": 100, "velocity": 90}, {"time": 32047, "pitch": 55, "duration": 90, "velocity": 80}, {"time": 32047, "pitch": 59, "duration": 90, "velocity": 85}, {"time": 32057, "pitch": 50, "duration": 80, "velocity": 75}, {"time": 32157, "pitch": 50, "duration": 384, "velocity": 95}, {"time": 32167, "pitch": 57, "duration": 363, "velocity": 100}, {"time": 32177, "pitch": 62, "duration": 353, "velocity": 105}, {"time": 32187, "pitch": 66, "duration": 333, "velocity": 110}, {"time": 32520, "pitch": 66, "duration": 241, "velocity": 110}, {"time": 32530, "pitch": 57, "duration": 241, "velocity": 100}, {"time": 32530, "pitch": 62, "duration": 241, "velocity": 105}, {"time": 32541, "pitch": 50, "duration": 240, "velocity": 95}, {"time": 32761, "pitch": 66, "duration": 139, "velocity": 100}, {"time": 32771, "pitch": 57, "duration": 119, "velocity": 90}, {"time": 32771, "pitch": 62, "duration": 129, "velocity": 95}, {"time": 32781, "pitch": 50, "duration": 99, "velocity": 85}, {"time": 32880, "pitch": 50, "duration": 140, "velocity": 95}, {"time": 32890, "pitch": 57, "duration": 120, "velocity": 100}, {"time": 32900, "pitch": 62, "duration": 100, "velocity": 105}, {"time": 32900, "pitch": 66, "duration": 100, "velocity": 110}, {"time": 33000, "pitch": 66, "duration": 99, "velocity": 90}, {"time": 33010, "pitch": 57, "duration": 89, "velocity": 80}, {"time": 33010, "pitch": 62, "duration": 89, "velocity": 85}, {"time": 33020, "pitch": 50, "duration": 79, "velocity": 75}, {"time": 33119, "pitch": 40, "duration": 378, "velocity": 95}, {"time": 33129, "pitch": 55, "duration": 358, "velocity": 100}, {"time": 33139, "pitch": 59, "duration": 348, "velocity": 105}, {"time": 33149, "pitch": 64, "duration": 328, "velocity": 110}, {"time": 33477, "pitch": 67, "duration": 241, "velocity": 110}, {"time": 33487, "pitch": 55, "duration": 241, "velocity": 100}, {"time": 33487, "pitch": 59, "duration": 241, "velocity": 105}, {"time": 33497, "pitch": 52, "duration": 241, "velocity": 95}, {"time": 33718, "pitch": 67, "duration": 141, "velocity": 100}, {"time": 33728, "pitch": 55, "duration": 121, "velocity": 90}, {"time": 33728, "pitch": 59, "duration": 131, "velocity": 95}, {"time": 33738, "pitch": 52, "duration": 101, "velocity": 85}, {"time": 33839, "pitch": 52, "duration": 142, "velocity": 95}, {"time": 33849, "pitch": 55, "duration": 121, "velocity": 100}, {"time": 33859, "pitch": 59, "duration": 101, "velocity": 105}, {"time": 33859, "pitch": 67, "duration": 101, "velocity": 110}, {"time": 33960, "pitch": 67, "duration": 141, "velocity": 90}, {"time": 33970, "pitch": 55, "duration": 121, "velocity": 80}, {"time": 33970, "pitch": 59, "duration": 121, "velocity": 85}, {"time": 33981, "pitch": 52, "duration": 101, "velocity": 75}, {"time": 34082, "pitch": 52, "duration": 378, "velocity": 95}, {"time": 34091, "pitch": 55, "duration": 359, "velocity": 100}, {"time": 34101, "pitch": 59, "duration": 349, "velocity": 105}, {"time": 34111, "pitch": 67, "duration": 329, "velocity": 110}, {"time": 34440, "pitch": 67, "duration": 239, "velocity": 110}, {"time": 34450, "pitch": 55, "duration": 238, "velocity": 100}, {"time": 34450, "pitch": 59, "duration": 238, "velocity": 105}, {"time": 34460, "pitch": 52, "duration": 238, "velocity": 95}, {"time": 34679, "pitch": 67, "duration": 139, "velocity": 100}, {"time": 34688, "pitch": 55, "duration": 120, "velocity": 90}, {"time": 34688, "pitch": 59, "duration": 130, "velocity": 95}, {"time": 34698, "pitch": 52, "duration": 100, "velocity": 85}, {"time": 34798, "pitch": 52, "duration": 139, "velocity": 95}, {"time": 34808, "pitch": 55, "duration": 119, "velocity": 100}, {"time": 34818, "pitch": 59, "duration": 99, "velocity": 105}, {"time": 34818, "pitch": 67, "duration": 99, "velocity": 110}, {"time": 34917, "pitch": 67, "duration": 100, "velocity": 90}, {"time": 34927, "pitch": 55, "duration": 90, "velocity": 80}, {"time": 34927, "pitch": 59, "duration": 90, "velocity": 85}, {"time": 34937, "pitch": 52, "duration": 80, "velocity": 75}, {"time": 35037, "pitch": 48, "duration": 383, "velocity": 95}, {"time": 35047, "pitch": 55, "duration": 363, "velocity": 100}, {"time": 35057, "pitch": 60, "duration": 353, "velocity": 105}, {"time": 35067, "pitch": 64, "duration": 333, "velocity": 110}, {"time": 35400, "pitch": 67, "duration": 241, "velocity": 110}, {"time": 35410, "pitch": 60, "duration": 241, "velocity": 100}, {"time": 35410, "pitch": 64, "duration": 241, "velocity": 105}, {"time": 35420, "pitch": 55, "duration": 241, "velocity": 95}, {"time": 35641, "pitch": 67, "duration": 139, "velocity": 100}, {"time": 35651, "pitch": 60, "duration": 119, "velocity": 90}, {"time": 35651, "pitch": 64, "duration": 129, "velocity": 95}, {"time": 35661, "pitch": 55, "duration": 99, "velocity": 85}, {"time": 35760, "pitch": 55, "duration": 140, "velocity": 95}, {"time": 35770, "pitch": 60, "duration": 120, "velocity": 100}, {"time": 35780, "pitch": 64, "duration": 100, "velocity": 105}, {"time": 35780, "pitch": 67, "duration": 100, "velocity": 110}, {"time": 35880, "pitch": 67, "duration": 99, "velocity": 90}, {"time": 35890, "pitch": 60, "duration": 89, "velocity": 80}, {"time": 35890, "pitch": 64, "duration": 89, "velocity": 85}, {"time": 35900, "pitch": 55, "duration": 79, "velocity": 75}, {"time": 35999, "pitch": 50, "duration": 239, "velocity": 95}, {"time": 36009, "pitch": 55, "duration": 239, "velocity": 100}, {"time": 36019, "pitch": 59, "duration": 239, "velocity": 105}, {"time": 36029, "pitch": 67, "duration": 229, "velocity": 110}, {"time": 36238, "pitch": 50, "duration": 139, "velocity": 85}, {"time": 36248, "pitch": 55, "duration": 119, "velocity": 90}, {"time": 36258, "pitch": 59, "duration": 109, "velocity": 95}, {"time": 36258, "pitch": 67, "duration": 99, "velocity": 100}, {"time": 36357, "pitch": 67, "duration": 241, "velocity": 110}, {"time": 36367, "pitch": 55, "duration": 241, "velocity": 100}, {"time": 36367, "pitch": 59, "duration": 241, "velocity": 105}, {"time": 36377, "pitch": 50, "duration": 241, "velocity": 95}, {"time": 36598, "pitch": 67, "duration": 141, "velocity": 100}, {"time": 36608, "pitch": 55, "duration": 121, "velocity": 90}, {"time": 36608, "pitch": 59, "duration": 131, "velocity": 95}, {"time": 36618, "pitch": 50, "duration": 101, "velocity": 85}, {"time": 36719, "pitch": 50, "duration": 141, "velocity": 95}, {"time": 36729, "pitch": 55, "duration": 121, "velocity": 100}, {"time": 36739, "pitch": 59, "duration": 101, "velocity": 105}, {"time": 36739, "pitch": 67, "duration": 101, "velocity": 110}, {"time": 36840, "pitch": 67, "duration": 101, "velocity": 90}, {"time": 36850, "pitch": 55, "duration": 91, "velocity": 80}, {"time": 36850, "pitch": 59, "duration": 91, "velocity": 85}, {"time": 36860, "pitch": 50, "duration": 81, "velocity": 75}, {"time": 36961, "pitch": 52, "duration": 379, "velocity": 95}, {"time": 36971, "pitch": 57, "duration": 359, "velocity": 100}, {"time": 36981, "pitch": 60, "duration": 349, "velocity": 105}, {"time": 36991, "pitch": 64, "duration": 329, "velocity": 110}, {"time": 37320, "pitch": 64, "duration": 238, "velocity": 110}, {"time": 37330, "pitch": 57, "duration": 238, "velocity": 100}, {"time": 37330, "pitch": 60, "duration": 238, "velocity": 105}, {"time": 37340, "pitch": 52, "duration": 238, "velocity": 95}, {"time": 37558, "pitch": 64, "duration": 140, "velocity": 100}, {"time": 37568, "pitch": 57, "duration": 120, "velocity": 90}, {"time": 37568, "pitch": 60, "duration": 130, "velocity": 95}, {"time": 37578, "pitch": 52, "duration": 100, "velocity": 85}, {"time": 37678, "pitch": 52, "duration": 139, "velocity": 95}, {"time": 37688, "pitch": 57, "duration": 119, "velocity": 100}, {"time": 37698, "pitch": 60, "duration": 99, "velocity": 105}, {"time": 37698, "pitch": 64, "duration": 99, "velocity": 110}, {"time": 37797, "pitch": 64, "duration": 100, "velocity": 90}, {"time": 37807, "pitch": 57, "duration": 90, "velocity": 80}, {"time": 37807, "pitch": 60, "duration": 90, "velocity": 85}, {"time": 37817, "pitch": 52, "duration": 80, "velocity": 75}, {"time": 37917, "pitch": 45, "duration": 262, "velocity": 105}, {"time": 37927, "pitch": 57, "duration": 242, "velocity": 100}, {"time": 37937, "pitch": 60, "duration": 232, "velocity": 105}, {"time": 37947, "pitch": 64, "duration": 212, "velocity": 110}, {"time": 38159, "pitch": 64, "duration": 242, "velocity": 105}, {"time": 38169, "pitch": 57, "duration": 242, "velocity": 105}, {"time": 38169, "pitch": 60, "duration": 242, "velocity": 100}, {"time": 38179, "pitch": 45, "duration": 222, "velocity": 90}, {"time": 38401, "pitch": 47, "duration": 239, "velocity": 105}, {"time": 38411, "pitch": 57, "duration": 239, "velocity": 100}, {"time": 38421, "pitch": 60, "duration": 239, "velocity": 105}, {"time": 38421, "pitch": 64, "duration": 239, "velocity": 110}, {"time": 38640, "pitch": 48, "duration": 219, "velocity": 105}, {"time": 38650, "pitch": 57, "duration": 209, "velocity": 100}, {"time": 38660, "pitch": 60, "duration": 199, "velocity": 105}, {"time": 38660, "pitch": 64, "duration": 199, "velocity": 110}, {"time": 38879, "pitch": 50, "duration": 378, "velocity": 95}, {"time": 38889, "pitch": 57, "duration": 358, "velocity": 100}, {"time": 38899, "pitch": 62, "duration": 348, "velocity": 105}, {"time": 38909, "pitch": 66, "duration": 328, "velocity": 110}, {"time": 39237, "pitch": 66, "duration": 241, "velocity": 110}, {"time": 39247, "pitch": 57, "duration": 241, "velocity": 100}, {"time": 39247, "pitch": 62, "duration": 241, "velocity": 105}, {"time": 39257, "pitch": 50, "duration": 241, "velocity": 95}, {"time": 39478, "pitch": 66, "duration": 141, "velocity": 100}, {"time": 39488, "pitch": 57, "duration": 121, "velocity": 90}, {"time": 39488, "pitch": 62, "duration": 131, "velocity": 95}, {"time": 39498, "pitch": 50, "duration": 101, "velocity": 85}, {"time": 39599, "pitch": 50, "duration": 141, "velocity": 95}, {"time": 39609, "pitch": 57, "duration": 121, "velocity": 100}, {"time": 39619, "pitch": 62, "duration": 101, "velocity": 105}, {"time": 39619, "pitch": 66, "duration": 101, "velocity": 110}, {"time": 39720, "pitch": 66, "duration": 101, "velocity": 90}, {"time": 39730, "pitch": 57, "duration": 91, "velocity": 80}, {"time": 39730, "pitch": 62, "duration": 91, "velocity": 85}, {"time": 39740, "pitch": 50, "duration": 81, "velocity": 75}, {"time": 39841, "pitch": 51, "duration": 378, "velocity": 95}, {"time": 39851, "pitch": 57, "duration": 359, "velocity": 100}, {"time": 39861, "pitch": 60, "duration": 349, "velocity": 105}, {"time": 39871, "pitch": 66, "duration": 329, "velocity": 110}, {"time": 40200, "pitch": 66, "duration": 238, "velocity": 110}, {"time": 40210, "pitch": 57, "duration": 238, "velocity": 100}, {"time": 40210, "pitch": 60, "duration": 238, "velocity": 105}, {"time": 40219, "pitch": 51, "duration": 239, "velocity": 95}, {"time": 40438, "pitch": 66, "duration": 140, "velocity": 100}, {"time": 40448, "pitch": 57, "duration": 120, "velocity": 90}, {"time": 40448, "pitch": 60, "duration": 130, "velocity": 95}, {"time": 40458, "pitch": 51, "duration": 100, "velocity": 85}, {"time": 40558, "pitch": 51, "duration": 139, "velocity": 95}, {"time": 40568, "pitch": 57, "duration": 119, "velocity": 100}, {"time": 40578, "pitch": 60, "duration": 99, "velocity": 105}, {"time": 40578, "pitch": 66, "duration": 99, "velocity": 110}, {"time": 40677, "pitch": 66, "duration": 100, "velocity": 90}, {"time": 40687, "pitch": 57, "duration": 90, "velocity": 80}, {"time": 40687, "pitch": 60, "duration": 90, "velocity": 85}, {"time": 40697, "pitch": 51, "duration": 80, "velocity": 75}, {"time": 40797, "pitch": 40, "duration": 383, "velocity": 95}, {"time": 40807, "pitch": 55, "duration": 363, "velocity": 100}, {"time": 40817, "pitch": 59, "duration": 353, "velocity": 105}, {"time": 40827, "pitch": 64, "duration": 333, "velocity": 110}, {"time": 41160, "pitch": 64, "duration": 241, "velocity": 110}, {"time": 41170, "pitch": 55, "duration": 241, "velocity": 100}, {"time": 41170, "pitch": 59, "duration": 241, "velocity": 105}, {"time": 41180, "pitch": 52, "duration": 241, "velocity": 95}, {"time": 41401, "pitch": 64, "duration": 139, "velocity": 100}, {"time": 41411, "pitch": 55, "duration": 119, "velocity": 90}, {"time": 41411, "pitch": 59, "duration": 129, "velocity": 95}, {"time": 41421, "pitch": 52, "duration": 99, "velocity": 85}, {"time": 41520, "pitch": 52, "duration": 139, "velocity": 95}, {"time": 41530, "pitch": 55, "duration": 119, "velocity": 100}, {"time": 41540, "pitch": 59, "duration": 100, "velocity": 105}, {"time": 41540, "pitch": 64, "duration": 100, "velocity": 110}, {"time": 41640, "pitch": 64, "duration": 99, "velocity": 90}, {"time": 41649, "pitch": 55, "duration": 90, "velocity": 80}, {"time": 41649, "pitch": 59, "duration": 90, "velocity": 85}, {"time": 41659, "pitch": 52, "duration": 80, "velocity": 75}, {"time": 41759, "pitch": 45, "duration": 378, "velocity": 95}, {"time": 41769, "pitch": 55, "duration": 358, "velocity": 100}, {"time": 41779, "pitch": 61, "duration": 348, "velocity": 105}, {"time": 41789, "pitch": 64, "duration": 328, "velocity": 110}, {"time": 42117, "pitch": 64, "duration": 241, "velocity": 110}, {"time": 42127, "pitch": 55, "duration": 241, "velocity": 100}, {"time": 42127, "pitch": 61, "duration": 241, "velocity": 105}, {"time": 42137, "pitch": 52, "duration": 241, "velocity": 95}, {"time": 42358, "pitch": 64, "duration": 141, "velocity": 100}, {"time": 42368, "pitch": 55, "duration": 121, "velocity": 90}, {"time": 42368, "pitch": 61, "duration": 131, "velocity": 95}, {"time": 42378, "pitch": 52, "duration": 101, "velocity": 85}, {"time": 42479, "pitch": 52, "duration": 141, "velocity": 95}, {"time": 42489, "pitch": 55, "duration": 121, "velocity": 100}, {"time": 42499, "pitch": 61, "duration": 101, "velocity": 105}, {"time": 42499, "pitch": 64, "duration": 101, "velocity": 110}, {"time": 42600, "pitch": 64, "duration": 101, "velocity": 90}, {"time": 42610, "pitch": 55, "duration": 91, "velocity": 80}, {"time": 42610, "pitch": 61, "duration": 91, "velocity": 85}, {"time": 42620, "pitch": 52, "duration": 81, "velocity": 75}, {"time": 42721, "pitch": 45, "duration": 378, "velocity": 95}, {"time": 42731, "pitch": 57, "duration": 358, "velocity": 100}, {"time": 42741, "pitch": 60, "duration": 348, "velocity": 105}, {"time": 42751, "pitch": 64, "duration": 328, "velocity": 110}, {"time": 43079, "pitch": 64, "duration": 239, "velocity": 110}, {"time": 43089, "pitch": 57, "duration": 239, "velocity": 100}, {"time": 43089, "pitch": 60, "duration": 239, "velocity": 105}, {"time": 43099, "pitch": 52, "duration": 239, "velocity": 95}, {"time": 43318, "pitch": 64, "duration": 140, "velocity": 100}, {"time": 43328, "pitch": 57, "duration": 120, "velocity": 90}, {"time": 43328, "pitch": 60, "duration": 130, "velocity": 95}, {"time": 43338, "pitch": 52, "duration": 100, "velocity": 85}, {"time": 43438, "pitch": 52, "duration": 139, "velocity": 95}, {"time": 43448, "pitch": 57, "duration": 119, "velocity": 100}, {"time": 43458, "pitch": 60, "duration": 99, "velocity": 105}, {"time": 43458, "pitch": 64, "duration": 99, "velocity": 110}, {"time": 43557, "pitch": 64, "duration": 100, "velocity": 90}, {"time": 43567, "pitch": 57, "duration": 90, "velocity": 80}, {"time": 43567, "pitch": 60, "duration": 90, "velocity": 85}, {"time": 43577, "pitch": 52, "duration": 80, "velocity": 75}, {"time": 43676, "pitch": 50, "duration": 384, "velocity": 95}, {"time": 43687, "pitch": 57, "duration": 363, "velocity": 100}, {"time": 43697, "pitch": 62, "duration": 353, "velocity": 105}, {"time": 43707, "pitch": 67, "duration": 333, "velocity": 110}, {"time": 44040, "pitch": 66, "duration": 241, "velocity": 110}, {"time": 44050, "pitch": 57, "duration": 241, "velocity": 100}, {"time": 44050, "pitch": 62, "duration": 241, "velocity": 105}, {"time": 44060, "pitch": 50, "duration": 241, "velocity": 95}, {"time": 44281, "pitch": 66, "duration": 139, "velocity": 100}, {"time": 44291, "pitch": 57, "duration": 119, "velocity": 90}, {"time": 44291, "pitch": 62, "duration": 129, "velocity": 95}, {"time": 44301, "pitch": 50, "duration": 99, "velocity": 85}, {"time": 44400, "pitch": 50, "duration": 139, "velocity": 95}, {"time": 44410, "pitch": 57, "duration": 119, "velocity": 100}, {"time": 44420, "pitch": 62, "duration": 99, "velocity": 105}, {"time": 44420, "pitch": 66, "duration": 99, "velocity": 110}, {"time": 44519, "pitch": 66, "duration": 100, "velocity": 90}, {"time": 44529, "pitch": 57, "duration": 90, "velocity": 80}, {"time": 44529, "pitch": 62, "duration": 90, "velocity": 85}, {"time": 44539, "pitch": 50, "duration": 80, "velocity": 75}, {"time": 44639, "pitch": 50, "duration": 378, "velocity": 95}, {"time": 44649, "pitch": 55, "duration": 358, "velocity": 100}, {"time": 44659, "pitch": 59, "duration": 348, "velocity": 105}, {"time": 44669, "pitch": 67, "duration": 328, "velocity": 110}, {"time": 44997, "pitch": 67, "duration": 241, "velocity": 110}, {"time": 45007, "pitch": 55, "duration": 241, "velocity": 100}, {"time": 45007, "pitch": 59, "duration": 241, "velocity": 105}, {"time": 45017, "pitch": 50, "duration": 241, "velocity": 95}, {"time": 45238, "pitch": 67, "duration": 141, "velocity": 100}, {"time": 45248, "pitch": 55, "duration": 121, "velocity": 90}, {"time": 45248, "pitch": 59, "duration": 131, "velocity": 95}, {"time": 45258, "pitch": 50, "duration": 101, "velocity": 85}, {"time": 45359, "pitch": 50, "duration": 141, "velocity": 95}, {"time": 45369, "pitch": 55, "duration": 121, "velocity": 100}, {"time": 45379, "pitch": 59, "duration": 101, "velocity": 105}, {"time": 45379, "pitch": 67, "duration": 101, "velocity": 110}, {"time": 45480, "pitch": 67, "duration": 101, "velocity": 90}, {"time": 45490, "pitch": 55, "duration": 91, "velocity": 80}, {"time": 45490, "pitch": 59, "duration": 91, "velocity": 85}, {"time": 45500, "pitch": 50, "duration": 81, "velocity": 75}, {"time": 45601, "pitch": 50, "duration": 942, "velocity": 95}, {"time": 45611, "pitch": 55, "duration": 932, "velocity": 100}, {"time": 45621, "pitch": 59, "duration": 922, "velocity": 105}, {"time": 45631, "pitch": 67, "duration": 912, "velocity": 110}, {"time": 46564, "pitch": 41, "duration": 378, "velocity": 95}, {"time": 46574, "pitch": 57, "duration": 358, "velocity": 100}, {"time": 46583, "pitch": 60, "duration": 349, "velocity": 105}, {"time": 46593, "pitch": 65, "duration": 329, "velocity": 110}, {"time": 46922, "pitch": 65, "duration": 239, "velocity": 110}, {"time": 46932, "pitch": 57, "duration": 239, "velocity": 100}, {"time": 46932, "pitch": 60, "duration": 239, "velocity": 105}, {"time": 46942, "pitch": 53, "duration": 238, "velocity": 95}, {"time": 47161, "pitch": 65, "duration": 139, "velocity": 100}, {"time": 47171, "pitch": 57, "duration": 119, "velocity": 90}, {"time": 47171, "pitch": 60, "duration": 129, "velocity": 95}, {"time": 47180, "pitch": 53, "duration": 100, "velocity": 85}, {"time": 47280, "pitch": 53, "duration": 139, "velocity": 95}, {"time": 47290, "pitch": 57, "duration": 119, "velocity": 100}, {"time": 47300, "pitch": 60, "duration": 99, "velocity": 105}, {"time": 47300, "pitch": 65, "duration": 99, "velocity": 110}, {"time": 47399, "pitch": 65, "duration": 100, "velocity": 90}, {"time": 47409, "pitch": 57, "duration": 90, "velocity": 80}, {"time": 47409, "pitch": 60, "duration": 90, "velocity": 85}, {"time": 47419, "pitch": 53, "duration": 80, "velocity": 75}, {"time": 47519, "pitch": 48, "duration": 384, "velocity": 95}, {"time": 47529, "pitch": 55, "duration": 363, "velocity": 100}, {"time": 47539, "pitch": 60, "duration": 353, "velocity": 105}, {"time": 47549, "pitch": 64, "duration": 333, "velocity": 110}, {"time": 47882, "pitch": 64, "duration": 241, "velocity": 110}, {"time": 47892, "pitch": 55, "duration": 241, "velocity": 100}, {"time": 47892, "pitch": 60, "duration": 241, "velocity": 105}, {"time": 47903, "pitch": 52, "duration": 240, "velocity": 95}, {"time": 48123, "pitch": 64, "duration": 139, "velocity": 100}, {"time": 48133, "pitch": 55, "duration": 119, "velocity": 90}, {"time": 48133, "pitch": 60, "duration": 129, "velocity": 95}, {"time": 48143, "pitch": 52, "duration": 99, "velocity": 85}, {"time": 48242, "pitch": 52, "duration": 140, "velocity": 95}, {"time": 48252, "pitch": 55, "duration": 120, "velocity": 100}, {"time": 48262, "pitch": 60, "duration": 100, "velocity": 105}, {"time": 48262, "pitch": 64, "duration": 100, "velocity": 110}, {"time": 48362, "pitch": 64, "duration": 99, "velocity": 90}, {"time": 48372, "pitch": 55, "duration": 89, "velocity": 80}, {"time": 48372, "pitch": 60, "duration": 89, "velocity": 85}, {"time": 48382, "pitch": 52, "duration": 79, "velocity": 75}, {"time": 48481, "pitch": 43, "duration": 378, "velocity": 95}, {"time": 48491, "pitch": 55, "duration": 358, "velocity": 100}, {"time": 48501, "pitch": 59, "duration": 348, "velocity": 105}, {"time": 48511, "pitch": 62, "duration": 328, "velocity": 110}, {"time": 48839, "pitch": 67, "duration": 241, "velocity": 120}, {"time": 48849, "pitch": 59, "duration": 241, "velocity": 110}, {"time": 48849, "pitch": 62, "duration": 241, "velocity": 115}, {"time": 48859, "pitch": 55, "duration": 241, "velocity": 105}, {"time": 49080, "pitch": 67, "duration": 141, "velocity": 100}, {"time": 49090, "pitch": 59, "duration": 121, "velocity": 90}, {"time": 49090, "pitch": 62, "duration": 131, "velocity": 95}, {"time": 49100, "pitch": 50, "duration": 101, "velocity": 85}, {"time": 49201, "pitch": 50, "duration": 142, "velocity": 95}, {"time": 49211, "pitch": 59, "duration": 121, "velocity": 100}, {"time": 49221, "pitch": 62, "duration": 101, "velocity": 105}, {"time": 49221, "pitch": 67, "duration": 101, "velocity": 110}, {"time": 49322, "pitch": 67, "duration": 101, "velocity": 90}, {"time": 49332, "pitch": 59, "duration": 91, "velocity": 80}, {"time": 49332, "pitch": 62, "duration": 91, "velocity": 85}, {"time": 49343, "pitch": 50, "duration": 80, "velocity": 75}, {"time": 49444, "pitch": 50, "duration": 378, "velocity": 95}, {"time": 49453, "pitch": 59, "duration": 359, "velocity": 100}, {"time": 49463, "pitch": 62, "duration": 349, "velocity": 105}, {"time": 49473, "pitch": 67, "duration": 329, "velocity": 110}, {"time": 49802, "pitch": 67, "duration": 239, "velocity": 110}, {"time": 49812, "pitch": 59, "duration": 238, "velocity": 100}, {"time": 49812, "pitch": 62, "duration": 238, "velocity": 105}, {"time": 49822, "pitch": 50, "duration": 238, "velocity": 95}, {"time": 50041, "pitch": 67, "duration": 139, "velocity": 100}, {"time": 50050, "pitch": 59, "duration": 120, "velocity": 90}, {"time": 50050, "pitch": 62, "duration": 130, "velocity": 95}, {"time": 50060, "pitch": 50, "duration": 100, "velocity": 85}, {"time": 50160, "pitch": 50, "duration": 139, "velocity": 95}, {"time": 50170, "pitch": 59, "duration": 119, "velocity": 100}, {"time": 50180, "pitch": 62, "duration": 99, "velocity": 105}, {"time": 50180, "pitch": 67, "duration": 99, "velocity": 110}, {"time": 50279, "pitch": 67, "duration": 100, "velocity": 90}, {"time": 50289, "pitch": 59, "duration": 90, "velocity": 80}, {"time": 50289, "pitch": 62, "duration": 90, "velocity": 85}, {"time": 50299, "pitch": 50, "duration": 80, "velocity": 75}, {"time": 50399, "pitch": 41, "duration": 384, "velocity": 95}, {"time": 50409, "pitch": 57, "duration": 363, "velocity": 100}, {"time": 50419, "pitch": 60, "duration": 353, "velocity": 105}, {"time": 50429, "pitch": 65, "duration": 333, "velocity": 110}, {"time": 50762, "pitch": 65, "duration": 241, "velocity": 110}, {"time": 50772, "pitch": 57, "duration": 241, "velocity": 100}, {"time": 50772, "pitch": 60, "duration": 241, "velocity": 105}, {"time": 50783, "pitch": 53, "duration": 240, "velocity": 95}, {"time": 51003, "pitch": 65, "duration": 139, "velocity": 100}, {"time": 51013, "pitch": 57, "duration": 119, "velocity": 90}, {"time": 51013, "pitch": 60, "duration": 129, "velocity": 95}, {"time": 51023, "pitch": 53, "duration": 99, "velocity": 85}, {"time": 51122, "pitch": 53, "duration": 140, "velocity": 95}, {"time": 51132, "pitch": 57, "duration": 120, "velocity": 100}, {"time": 51142, "pitch": 60, "duration": 100, "velocity": 105}, {"time": 51142, "pitch": 65, "duration": 100, "velocity": 110}, {"time": 51242, "pitch": 65, "duration": 99, "velocity": 90}, {"time": 51252, "pitch": 57, "duration": 89, "velocity": 80}, {"time": 51252, "pitch": 60, "duration": 89, "velocity": 85}, {"time": 51262, "pitch": 53, "duration": 79, "velocity": 75}, {"time": 51361, "pitch": 48, "duration": 378, "velocity": 95}, {"time": 51371, "pitch": 55, "duration": 358, "velocity": 100}, {"time": 51381, "pitch": 60, "duration": 348, "velocity": 105}, {"time": 51391, "pitch": 64, "duration": 328, "velocity": 110}, {"time": 51719, "pitch": 64, "duration": 241, "velocity": 110}, {"time": 51729, "pitch": 55, "duration": 241, "velocity": 100}, {"time": 51729, "pitch": 60, "duration": 241, "velocity": 105}, {"time": 51739, "pitch": 52, "duration": 241, "velocity": 95}, {"time": 51960, "pitch": 64, "duration": 141, "velocity": 100}, {"time": 51970, "pitch": 55, "duration": 121, "velocity": 90}, {"time": 51970, "pitch": 60, "duration": 131, "velocity": 95}, {"time": 51980, "pitch": 52, "duration": 101, "velocity": 85}, {"time": 52081, "pitch": 52, "duration": 141, "velocity": 95}, {"time": 52091, "pitch": 55, "duration": 121, "velocity": 100}, {"time": 52101, "pitch": 60, "duration": 101, "velocity": 105}, {"time": 52101, "pitch": 64, "duration": 101, "velocity": 110}, {"time": 52202, "pitch": 64, "duration": 101, "velocity": 90}, {"time": 52212, "pitch": 55, "duration": 91, "velocity": 80}, {"time": 52212, "pitch": 60, "duration": 91, "velocity": 85}, {"time": 52222, "pitch": 52, "duration": 81, "velocity": 75}, {"time": 52323, "pitch": 43, "duration": 379, "velocity": 95}, {"time": 52333, "pitch": 55, "duration": 359, "velocity": 100}, {"time": 52343, "pitch": 59, "duration": 349, "velocity": 105}, {"time": 52353, "pitch": 62, "duration": 329, "velocity": 110}, {"time": 52682, "pitch": 67, "duration": 238, "velocity": 120}, {"time": 52692, "pitch": 59, "duration": 238, "velocity": 110}, {"time": 52692, "pitch": 62, "duration": 238, "velocity": 115}, {"time": 52702, "pitch": 55, "duration": 238, "velocity": 105}, {"time": 52920, "pitch": 67, "duration": 140, "velocity": 100}, {"time": 52930, "pitch": 59, "duration": 120, "velocity": 90}, {"time": 52930, "pitch": 62, "duration": 130, "velocity": 95}, {"time": 52940, "pitch": 50, "duration": 100, "velocity": 85}, {"time": 53040, "pitch": 50, "duration": 139, "velocity": 95}, {"time": 53050, "pitch": 59, "duration": 119, "velocity": 100}, {"time": 53060, "pitch": 62, "duration": 99, "velocity": 105}, {"time": 53060, "pitch": 67, "duration": 99, "velocity": 110}, {"time": 53159, "pitch": 67, "duration": 100, "velocity": 90}, {"time": 53169, "pitch": 59, "duration": 90, "velocity": 80}, {"time": 53169, "pitch": 62, "duration": 90, "velocity": 85}, {"time": 53179, "pitch": 50, "duration": 80, "velocity": 75}, {"time": 53279, "pitch": 50, "duration": 383, "velocity": 95}, {"time": 53289, "pitch": 59, "duration": 363, "velocity": 100}, {"time": 53299, "pitch": 62, "duration": 353, "velocity": 105}, {"time": 53309, "pitch": 67, "duration": 333, "velocity": 110}, {"time": 53642, "pitch": 67, "duration": 241, "velocity": 110}, {"time": 53652, "pitch": 59, "duration": 241, "velocity": 100}, {"time": 53652, "pitch": 62, "duration": 241, "velocity": 105}, {"time": 53662, "pitch": 50, "duration": 241, "velocity": 95}, {"time": 53883, "pitch": 67, "duration": 139, "velocity": 100}, {"time": 53893, "pitch": 59, "duration": 119, "velocity": 90}, {"time": 53893, "pitch": 62, "duration": 129, "velocity": 95}, {"time": 53903, "pitch": 50, "duration": 99, "velocity": 85}, {"time": 54002, "pitch": 50, "duration": 140, "velocity": 95}, {"time": 54012, "pitch": 59, "duration": 120, "velocity": 100}, {"time": 54022, "pitch": 62, "duration": 100, "velocity": 105}, {"time": 54022, "pitch": 67, "duration": 100, "velocity": 110}, {"time": 54122, "pitch": 67, "duration": 99, "velocity": 90}, {"time": 54132, "pitch": 59, "duration": 89, "velocity": 80}, {"time": 54132, "pitch": 62, "duration": 89, "velocity": 85}, {"time": 54142, "pitch": 50, "duration": 79, "velocity": 75}, {"time": 54241, "pitch": 41, "duration": 378, "velocity": 95}, {"time": 54251, "pitch": 57, "duration": 358, "velocity": 100}, {"time": 54261, "pitch": 60, "duration": 348, "velocity": 105}, {"time": 54271, "pitch": 65, "duration": 328, "velocity": 110}, {"time": 54599, "pitch": 65, "duration": 241, "velocity": 110}, {"time": 54609, "pitch": 57, "duration": 241, "velocity": 100}, {"time": 54609, "pitch": 60, "duration": 241, "velocity": 105}, {"time": 54619, "pitch": 53, "duration": 241, "velocity": 95}, {"time": 54840, "pitch": 65, "duration": 141, "velocity": 100}, {"time": 54850, "pitch": 57, "duration": 121, "velocity": 90}, {"time": 54850, "pitch": 60, "duration": 131, "velocity": 95}, {"time": 54860, "pitch": 53, "duration": 101, "velocity": 85}, {"time": 54961, "pitch": 53, "duration": 141, "velocity": 95}, {"time": 54971, "pitch": 57, "duration": 121, "velocity": 100}, {"time": 54981, "pitch": 60, "duration": 101, "velocity": 105}, {"time": 54981, "pitch": 65, "duration": 101, "velocity": 110}, {"time": 55082, "pitch": 65, "duration": 101, "velocity": 90}, {"time": 55092, "pitch": 57, "duration": 91, "velocity": 80}, {"time": 55092, "pitch": 60, "duration": 91, "velocity": 85}, {"time": 55102, "pitch": 53, "duration": 81, "velocity": 75}, {"time": 55203, "pitch": 48, "duration": 378, "velocity": 95}, {"time": 55213, "pitch": 55, "duration": 359, "velocity": 100}, {"time": 55223, "pitch": 60, "duration": 349, "velocity": 105}, {"time": 55233, "pitch": 64, "duration": 329, "velocity": 110}, {"time": 55562, "pitch": 64, "duration": 238, "velocity": 110}, {"time": 55572, "pitch": 55, "duration": 238, "velocity": 100}, {"time": 55572, "pitch": 60, "duration": 238, "velocity": 105}, {"time": 55581, "pitch": 52, "duration": 239, "velocity": 95}, {"time": 55800, "pitch": 64, "duration": 140, "velocity": 100}, {"time": 55810, "pitch": 55, "duration": 120, "velocity": 90}, {"time": 55810, "pitch": 60, "duration": 130, "velocity": 95}, {"time": 55820, "pitch": 52, "duration": 100, "velocity": 85}, {"time": 55920, "pitch": 52, "duration": 139, "velocity": 95}, {"time": 55930, "pitch": 55, "duration": 119, "velocity": 100}, {"time": 55940, "pitch": 60, "duration": 99, "velocity": 105}, {"time": 55940, "pitch": 64, "duration": 99, "velocity": 110}, {"time": 56039, "pitch": 64, "duration": 100, "velocity": 90}, {"time": 56049, "pitch": 55, "duration": 90, "velocity": 80}, {"time": 56049, "pitch": 60, "duration": 90, "velocity": 85}, {"time": 56059, "pitch": 52, "duration": 80, "velocity": 75}, {"time": 56159, "pitch": 43, "duration": 383, "velocity": 95}, {"time": 56169, "pitch": 55, "duration": 363, "velocity": 100}, {"time": 56179, "pitch": 59, "duration": 353, "velocity": 105}, {"time": 56189, "pitch": 62, "duration": 333, "velocity": 110}, {"time": 56522, "pitch": 67, "duration": 241, "velocity": 120}, {"time": 56532, "pitch": 59, "duration": 241, "velocity": 110}, {"time": 56532, "pitch": 62, "duration": 241, "velocity": 115}, {"time": 56542, "pitch": 55, "duration": 241, "velocity": 105}, {"time": 56763, "pitch": 67, "duration": 139, "velocity": 100}, {"time": 56773, "pitch": 59, "duration": 119, "velocity": 90}, {"time": 56773, "pitch": 62, "duration": 129, "velocity": 95}, {"time": 56783, "pitch": 50, "duration": 99, "velocity": 85}, {"time": 56882, "pitch": 50, "duration": 139, "velocity": 95}, {"time": 56892, "pitch": 59, "duration": 119, "velocity": 100}, {"time": 56902, "pitch": 62, "duration": 100, "velocity": 105}, {"time": 56902, "pitch": 67, "duration": 100, "velocity": 110}, {"time": 57002, "pitch": 67, "duration": 99, "velocity": 90}, {"time": 57011, "pitch": 59, "duration": 90, "velocity": 80}, {"time": 57011, "pitch": 62, "duration": 90, "velocity": 85}, {"time": 57021, "pitch": 50, "duration": 80, "velocity": 75}, {"time": 57121, "pitch": 50, "duration": 378, "velocity": 95}, {"time": 57131, "pitch": 59, "duration": 358, "velocity": 100}, {"time": 57141, "pitch": 62, "duration": 348, "velocity": 105}, {"time": 57151, "pitch": 67, "duration": 328, "velocity": 110}, {"time": 57479, "pitch": 67, "duration": 241, "velocity": 110}, {"time": 57489, "pitch": 59, "duration": 241, "velocity": 100}, {"time": 57489, "pitch": 62, "duration": 241, "velocity": 105}, {"time": 57499, "pitch": 50, "duration": 241, "velocity": 95}, {"time": 57720, "pitch": 67, "duration": 141, "velocity": 100}, {"time": 57730, "pitch": 59, "duration": 121, "velocity": 90}, {"time": 57730, "pitch": 62, "duration": 131, "velocity": 95}, {"time": 57740, "pitch": 50, "duration": 101, "velocity": 85}, {"time": 57841, "pitch": 50, "duration": 141, "velocity": 95}, {"time": 57851, "pitch": 59, "duration": 121, "velocity": 100}, {"time": 57861, "pitch": 62, "duration": 101, "velocity": 105}, {"time": 57861, "pitch": 67, "duration": 101, "velocity": 110}, {"time": 57962, "pitch": 67, "duration": 101, "velocity": 90}, {"time": 57972, "pitch": 59, "duration": 91, "velocity": 80}, {"time": 57972, "pitch": 62, "duration": 91, "velocity": 85}, {"time": 57982, "pitch": 50, "duration": 81, "velocity": 75}, {"time": 58083, "pitch": 41, "duration": 378, "velocity": 95}, {"time": 58093, "pitch": 57, "duration": 358, "velocity": 100}, {"time": 58103, "pitch": 60, "duration": 348, "velocity": 105}, {"time": 58113, "pitch": 65, "duration": 328, "velocity": 110}, {"time": 58441, "pitch": 65, "duration": 239, "velocity": 110}, {"time": 58451, "pitch": 57, "duration": 239, "velocity": 100}, {"time": 58451, "pitch": 60, "duration": 239, "velocity": 105}, {"time": 58461, "pitch": 53, "duration": 239, "velocity": 95}, {"time": 58680, "pitch": 65, "duration": 140, "velocity": 100}, {"time": 58690, "pitch": 57, "duration": 120, "velocity": 90}, {"time": 58690, "pitch": 60, "duration": 130, "velocity": 95}, {"time": 58700, "pitch": 53, "duration": 100, "velocity": 85}, {"time": 58800, "pitch": 53, "duration": 139, "velocity": 95}, {"time": 58810, "pitch": 57, "duration": 119, "velocity": 100}, {"time": 58820, "pitch": 60, "duration": 99, "velocity": 105}, {"time": 58820, "pitch": 65, "duration": 99, "velocity": 110}, {"time": 58919, "pitch": 65, "duration": 100, "velocity": 90}, {"time": 58929, "pitch": 57, "duration": 90, "velocity": 80}, {"time": 58929, "pitch": 60, "duration": 90, "velocity": 85}, {"time": 58939, "pitch": 53, "duration": 80, "velocity": 75}, {"time": 59038, "pitch": 48, "duration": 384, "velocity": 95}, {"time": 59049, "pitch": 55, "duration": 363, "velocity": 100}, {"time": 59059, "pitch": 60, "duration": 353, "velocity": 105}, {"time": 59069, "pitch": 64, "duration": 333, "velocity": 110}, {"time": 59402, "pitch": 64, "duration": 241, "velocity": 110}, {"time": 59412, "pitch": 55, "duration": 241, "velocity": 100}, {"time": 59412, "pitch": 60, "duration": 241, "velocity": 105}, {"time": 59422, "pitch": 52, "duration": 241, "velocity": 95}, {"time": 59643, "pitch": 64, "duration": 139, "velocity": 100}, {"time": 59653, "pitch": 55, "duration": 119, "velocity": 90}, {"time": 59653, "pitch": 60, "duration": 129, "velocity": 95}, {"time": 59663, "pitch": 52, "duration": 99, "velocity": 85}, {"time": 59762, "pitch": 52, "duration": 139, "velocity": 95}, {"time": 59772, "pitch": 55, "duration": 119, "velocity": 100}, {"time": 59782, "pitch": 60, "duration": 99, "velocity": 105}, {"time": 59782, "pitch": 64, "duration": 99, "velocity": 110}, {"time": 59881, "pitch": 64, "duration": 100, "velocity": 90}, {"time": 59891, "pitch": 55, "duration": 90, "velocity": 80}, {"time": 59891, "pitch": 60, "duration": 90, "velocity": 85}, {"time": 59901, "pitch": 52, "duration": 80, "velocity": 75}, {"time": 60001, "pitch": 45, "duration": 378, "velocity": 95}, {"time": 60011, "pitch": 50, "duration": 358, "velocity": 100}, {"time": 60021, "pitch": 57, "duration": 348, "velocity": 105}, {"time": 60031, "pitch": 62, "duration": 328, "velocity": 110}, {"time": 60359, "pitch": 67, "duration": 241, "velocity": 120}, {"time": 60369, "pitch": 57, "duration": 241, "velocity": 110}, {"time": 60369, "pitch": 62, "duration": 241, "velocity": 115}, {"time": 60379, "pitch": 50, "duration": 241, "velocity": 105}, {"time": 60600, "pitch": 67, "duration": 141, "velocity": 100}, {"time": 60610, "pitch": 57, "duration": 121, "velocity": 90}, {"time": 60610, "pitch": 62, "duration": 131, "velocity": 95}, {"time": 60620, "pitch": 50, "duration": 101, "velocity": 85}, {"time": 60721, "pitch": 50, "duration": 141, "velocity": 95}, {"time": 60731, "pitch": 57, "duration": 121, "velocity": 100}, {"time": 60741, "pitch": 62, "duration": 101, "velocity": 105}, {"time": 60741, "pitch": 67, "duration": 101, "velocity": 110}, {"time": 60842, "pitch": 67, "duration": 101, "velocity": 90}, {"time": 60852, "pitch": 57, "duration": 91, "velocity": 80}, {"time": 60852, "pitch": 62, "duration": 91, "velocity": 85}, {"time": 60862, "pitch": 50, "duration": 81, "velocity": 75}, {"time": 60963, "pitch": 50, "duration": 936, "velocity": 105}, {"time": 60973, "pitch": 57, "duration": 926, "velocity": 110}, {"time": 60983, "pitch": 62, "duration": 916, "velocity": 115}, {"time": 60993, "pitch": 66, "duration": 906, "velocity": 120}, {"time": 61918, "pitch": 50, "duration": 243, "velocity": 95}, {"time": 61929, "pitch": 55, "duration": 242, "velocity": 100}, {"time": 61939, "pitch": 59, "duration": 242, "velocity": 105}, {"time": 61949, "pitch": 67, "duration": 232, "velocity": 110}, {"time": 62161, "pitch": 50, "duration": 141, "velocity": 85}, {"time": 62171, "pitch": 55, "duration": 121, "velocity": 90}, {"time": 62181, "pitch": 59, "duration": 111, "velocity": 95}, {"time": 62181, "pitch": 67, "duration": 101, "velocity": 100}, {"time": 62282, "pitch": 67, "duration": 241, "velocity": 110}, {"time": 62292, "pitch": 55, "duration": 241, "velocity": 100}, {"time": 62292, "pitch": 59, "duration": 241, "velocity": 105}, {"time": 62302, "pitch": 50, "duration": 240, "velocity": 95}, {"time": 62523, "pitch": 67, "duration": 139, "velocity": 100}, {"time": 62533, "pitch": 55, "duration": 119, "velocity": 90}, {"time": 62533, "pitch": 59, "duration": 129, "velocity": 95}, {"time": 62542, "pitch": 50, "duration": 100, "velocity": 85}, {"time": 62642, "pitch": 50, "duration": 139, "velocity": 95}, {"time": 62652, "pitch": 55, "duration": 119, "velocity": 100}, {"time": 62662, "pitch": 59, "duration": 99, "velocity": 105}, {"time": 62662, "pitch": 67, "duration": 99, "velocity": 110}, {"time": 62761, "pitch": 67, "duration": 100, "velocity": 90}, {"time": 62771, "pitch": 55, "duration": 90, "velocity": 80}, {"time": 62771, "pitch": 59, "duration": 90, "velocity": 85}, {"time": 62781, "pitch": 50, "duration": 80, "velocity": 75}, {"time": 62881, "pitch": 50, "duration": 378, "velocity": 95}, {"time": 62891, "pitch": 57, "duration": 358, "velocity": 100}, {"time": 62901, "pitch": 62, "duration": 348, "velocity": 105}, {"time": 62911, "pitch": 66, "duration": 328, "velocity": 110}, {"time": 63239, "pitch": 66, "duration": 241, "velocity": 110}, {"time": 63249, "pitch": 57, "duration": 241, "velocity": 100}, {"time": 63249, "pitch": 62, "duration": 241, "velocity": 105}, {"time": 63259, "pitch": 50, "duration": 241, "velocity": 95}, {"time": 63480, "pitch": 66, "duration": 141, "velocity": 100}, {"time": 63490, "pitch": 57, "duration": 121, "velocity": 90}, {"time": 63490, "pitch": 62, "duration": 131, "velocity": 95}, {"time": 63500, "pitch": 50, "duration": 101, "velocity": 85}, {"time": 63601, "pitch": 50, "duration": 141, "velocity": 95}, {"time": 63611, "pitch": 57, "duration": 121, "velocity": 100}, {"time": 63621, "pitch": 62, "duration": 101, "velocity": 105}, {"time": 63621, "pitch": 66, "duration": 101, "velocity": 110}, {"time": 63722, "pitch": 66, "duration": 101, "velocity": 90}, {"time": 63732, "pitch": 57, "duration": 91, "velocity": 80}, {"time": 63732, "pitch": 62, "duration": 91, "velocity": 85}, {"time": 63742, "pitch": 50, "duration": 81, "velocity": 75}, {"time": 63843, "pitch": 40, "duration": 378, "velocity": 95}, {"time": 63853, "pitch": 55, "duration": 358, "velocity": 100}, {"time": 63863, "pitch": 59, "duration": 348, "velocity": 105}, {"time": 63873, "pitch": 64, "duration": 328, "velocity": 110}, {"time": 64201, "pitch": 67, "duration": 239, "velocity": 110}, {"time": 64211, "pitch": 55, "duration": 239, "velocity": 100}, {"time": 64211, "pitch": 59, "duration": 239, "velocity": 105}, {"time": 64221, "pitch": 52, "duration": 239, "velocity": 95}, {"time": 64440, "pitch": 67, "duration": 139, "velocity": 100}, {"time": 64450, "pitch": 55, "duration": 120, "velocity": 90}, {"time": 64450, "pitch": 59, "duration": 129, "velocity": 95}, {"time": 64460, "pitch": 52, "duration": 100, "velocity": 85}, {"time": 64560, "pitch": 52, "duration": 139, "velocity": 95}, {"time": 64570, "pitch": 55, "duration": 119, "velocity": 100}, {"time": 64579, "pitch": 59, "duration": 100, "velocity": 105}, {"time": 64579, "pitch": 67, "duration": 100, "velocity": 110}, {"time": 64679, "pitch": 67, "duration": 140, "velocity": 90}, {"time": 64689, "pitch": 55, "duration": 119, "velocity": 80}, {"time": 64689, "pitch": 59, "duration": 119, "velocity": 85}, {"time": 64699, "pitch": 52, "duration": 99, "velocity": 75}, {"time": 64798, "pitch": 52, "duration": 384, "velocity": 95}, {"time": 64808, "pitch": 55, "duration": 364, "velocity": 100}, {"time": 64819, "pitch": 59, "duration": 353, "velocity": 105}, {"time": 64829, "pitch": 67, "duration": 333, "velocity": 110}, {"time": 65162, "pitch": 67, "duration": 241, "velocity": 110}, {"time": 65172, "pitch": 55, "duration": 240, "velocity": 100}, {"time": 65172, "pitch": 59, "duration": 240, "velocity": 105}, {"time": 65182, "pitch": 52, "duration": 240, "velocity": 95}, {"time": 65403, "pitch": 67, "duration": 139, "velocity": 100}, {"time": 65412, "pitch": 55, "duration": 120, "velocity": 90}, {"time": 65412, "pitch": 59, "duration": 130, "velocity": 95}, {"time": 65422, "pitch": 52, "duration": 100, "velocity": 85}, {"time": 65522, "pitch": 52, "duration": 139, "velocity": 95}, {"time": 65532, "pitch": 55, "duration": 119, "velocity": 100}, {"time": 65542, "pitch": 59, "duration": 99, "velocity": 105}, {"time": 65542, "pitch": 67, "duration": 99, "velocity": 110}, {"time": 65641, "pitch": 67, "duration": 100, "velocity": 90}, {"time": 65651, "pitch": 55, "duration": 90, "velocity": 80}, {"time": 65651, "pitch": 59, "duration": 90, "velocity": 85}, {"time": 65661, "pitch": 52, "duration": 80, "velocity": 75}, {"time": 65761, "pitch": 48, "duration": 378, "velocity": 95}, {"time": 65771, "pitch": 55, "duration": 358, "velocity": 100}, {"time": 65781, "pitch": 60, "duration": 348, "velocity": 105}, {"time": 65791, "pitch": 64, "duration": 328, "velocity": 110}, {"time": 66119, "pitch": 67, "duration": 241, "velocity": 110}, {"time": 66129, "pitch": 60, "duration": 241, "velocity": 100}, {"time": 66129, "pitch": 64, "duration": 241, "velocity": 105}, {"time": 66139, "pitch": 55, "duration": 241, "velocity": 95}, {"time": 66360, "pitch": 67, "duration": 141, "velocity": 100}, {"time": 66370, "pitch": 60, "duration": 121, "velocity": 90}, {"time": 66370, "pitch": 64, "duration": 131, "velocity": 95}, {"time": 66380, "pitch": 55, "duration": 101, "velocity": 85}, {"time": 66481, "pitch": 55, "duration": 141, "velocity": 95}, {"time": 66491, "pitch": 60, "duration": 121, "velocity": 100}, {"time": 66501, "pitch": 64, "duration": 101, "velocity": 105}, {"time": 66501, "pitch": 67, "duration": 101, "velocity": 110}, {"time": 66602, "pitch": 67, "duration": 101, "velocity": 90}, {"time": 66612, "pitch": 60, "duration": 91, "velocity": 80}, {"time": 66612, "pitch": 64, "duration": 91, "velocity": 85}, {"time": 66622, "pitch": 55, "duration": 81, "velocity": 75}, {"time": 66723, "pitch": 50, "duration": 239, "velocity": 95}, {"time": 66733, "pitch": 55, "duration": 239, "velocity": 100}, {"time": 66743, "pitch": 59, "duration": 239, "velocity": 105}, {"time": 66753, "pitch": 67, "duration": 229, "velocity": 110}, {"time": 66962, "pitch": 50, "duration": 139, "velocity": 85}, {"time": 66972, "pitch": 55, "duration": 119, "velocity": 90}, {"time": 66982, "pitch": 59, "duration": 109, "velocity": 95}, {"time": 66982, "pitch": 67, "duration": 99, "velocity": 100}, {"time": 67081, "pitch": 67, "duration": 239, "velocity": 110}, {"time": 67091, "pitch": 55, "duration": 239, "velocity": 100}, {"time": 67091, "pitch": 59, "duration": 239, "velocity": 105}, {"time": 67101, "pitch": 50, "duration": 239, "velocity": 95}, {"time": 67320, "pitch": 67, "duration": 139, "velocity": 100}, {"time": 67330, "pitch": 55, "duration": 119, "velocity": 90}, {"time": 67330, "pitch": 59, "duration": 129, "velocity": 95}, {"time": 67340, "pitch": 50, "duration": 99, "velocity": 85}, {"time": 67439, "pitch": 50, "duration": 140, "velocity": 95}, {"time": 67449, "pitch": 55, "duration": 120, "velocity": 100}, {"time": 67459, "pitch": 59, "duration": 100, "velocity": 105}, {"time": 67459, "pitch": 67, "duration": 100, "velocity": 110}, {"time": 67559, "pitch": 67, "duration": 99, "velocity": 90}, {"time": 67569, "pitch": 55, "duration": 89, "velocity": 80}, {"time": 67569, "pitch": 59, "duration": 89, "velocity": 85}, {"time": 67579, "pitch": 50, "duration": 79, "velocity": 75}, {"time": 67678, "pitch": 52, "duration": 384, "velocity": 95}, {"time": 67688, "pitch": 57, "duration": 364, "velocity": 100}, {"time": 67698, "pitch": 60, "duration": 354, "velocity": 105}, {"time": 67709, "pitch": 64, "duration": 333, "velocity": 110}, {"time": 68042, "pitch": 64, "duration": 240, "velocity": 110}, {"time": 68052, "pitch": 57, "duration": 240, "velocity": 100}, {"time": 68052, "pitch": 60, "duration": 240, "velocity": 105}, {"time": 68062, "pitch": 52, "duration": 240, "velocity": 95}, {"time": 68282, "pitch": 64, "duration": 140, "velocity": 100}, {"time": 68292, "pitch": 57, "duration": 120, "velocity": 90}, {"time": 68292, "pitch": 60, "duration": 130, "velocity": 95}, {"time": 68302, "pitch": 52, "duration": 100, "velocity": 85}, {"time": 68402, "pitch": 52, "duration": 139, "velocity": 95}, {"time": 68412, "pitch": 57, "duration": 119, "velocity": 100}, {"time": 68422, "pitch": 60, "duration": 99, "velocity": 105}, {"time": 68422, "pitch": 64, "duration": 99, "velocity": 110}, {"time": 68521, "pitch": 64, "duration": 100, "velocity": 90}, {"time": 68531, "pitch": 57, "duration": 90, "velocity": 80}, {"time": 68531, "pitch": 60, "duration": 90, "velocity": 85}, {"time": 68541, "pitch": 52, "duration": 80, "velocity": 75}, {"time": 68641, "pitch": 45, "duration": 258, "velocity": 105}, {"time": 68651, "pitch": 57, "duration": 238, "velocity": 100}, {"time": 68661, "pitch": 60, "duration": 228, "velocity": 105}, {"time": 68670, "pitch": 64, "duration": 209, "velocity": 110}, {"time": 68879, "pitch": 64, "duration": 239, "velocity": 105}, {"time": 68889, "pitch": 57, "duration": 239, "velocity": 105}, {"time": 68889, "pitch": 60, "duration": 239, "velocity": 100}, {"time": 68899, "pitch": 45, "duration": 219, "velocity": 90}, {"time": 69118, "pitch": 47, "duration": 243, "velocity": 105}, {"time": 69128, "pitch": 57, "duration": 243, "velocity": 100}, {"time": 69138, "pitch": 60, "duration": 243, "velocity": 105}, {"time": 69138, "pitch": 64, "duration": 243, "velocity": 110}, {"time": 69361, "pitch": 48, "duration": 222, "velocity": 105}, {"time": 69371, "pitch": 57, "duration": 212, "velocity": 100}, {"time": 69381, "pitch": 60, "duration": 202, "velocity": 105}, {"time": 69381, "pitch": 64, "duration": 202, "velocity": 110}, {"time": 69603, "pitch": 50, "duration": 378, "velocity": 95}, {"time": 69613, "pitch": 57, "duration": 358, "velocity": 100}, {"time": 69623, "pitch": 62, "duration": 348, "velocity": 105}, {"time": 69633, "pitch": 66, "duration": 328, "velocity": 110}, {"time": 69961, "pitch": 66, "duration": 239, "velocity": 110}, {"time": 69971, "pitch": 57, "duration": 239, "velocity": 100}, {"time": 69971, "pitch": 62, "duration": 239, "velocity": 105}, {"time": 69981, "pitch": 50, "duration": 239, "velocity": 95}, {"time": 70200, "pitch": 66, "duration": 139, "velocity": 100}, {"time": 70210, "pitch": 57, "duration": 119, "velocity": 90}, {"time": 70210, "pitch": 62, "duration": 129, "velocity": 95}, {"time": 70220, "pitch": 50, "duration": 99, "velocity": 85}, {"time": 70319, "pitch": 50, "duration": 140, "velocity": 95}, {"time": 70329, "pitch": 57, "duration": 120, "velocity": 100}, {"time": 70339, "pitch": 62, "duration": 100, "velocity": 105}, {"time": 70339, "pitch": 66, "duration": 100, "velocity": 110}, {"time": 70439, "pitch": 66, "duration": 99, "velocity": 90}, {"time": 70449, "pitch": 57, "duration": 89, "velocity": 80}, {"time": 70449, "pitch": 62, "duration": 89, "velocity": 85}, {"time": 70459, "pitch": 50, "duration": 79, "velocity": 75}, {"time": 70558, "pitch": 51, "duration": 384, "velocity": 95}, {"time": 70568, "pitch": 57, "duration": 364, "velocity": 100}, {"time": 70578, "pitch": 60, "duration": 354, "velocity": 105}, {"time": 70588, "pitch": 66, "duration": 334, "velocity": 110}, {"time": 70922, "pitch": 66, "duration": 240, "velocity": 110}, {"time": 70932, "pitch": 57, "duration": 240, "velocity": 100}, {"time": 70932, "pitch": 60, "duration": 240, "velocity": 105}, {"time": 70942, "pitch": 51, "duration": 240, "velocity": 95}, {"time": 71162, "pitch": 66, "duration": 140, "velocity": 100}, {"time": 71172, "pitch": 57, "duration": 120, "velocity": 90}, {"time": 71172, "pitch": 60, "duration": 130, "velocity": 95}, {"time": 71182, "pitch": 51, "duration": 100, "velocity": 85}, {"time": 71282, "pitch": 51, "duration": 139, "velocity": 95}, {"time": 71292, "pitch": 57, "duration": 119, "velocity": 100}, {"time": 71302, "pitch": 60, "duration": 99, "velocity": 105}, {"time": 71302, "pitch": 66, "duration": 99, "velocity": 110}, {"time": 71401, "pitch": 66, "duration": 100, "velocity": 90}, {"time": 71411, "pitch": 57, "duration": 90, "velocity": 80}, {"time": 71411, "pitch": 60, "duration": 90, "velocity": 85}, {"time": 71421, "pitch": 51, "duration": 80, "velocity": 75}, {"time": 71521, "pitch": 40, "duration": 378, "velocity": 95}, {"time": 71531, "pitch": 55, "duration": 358, "velocity": 100}, {"time": 71540, "pitch": 59, "duration": 349, "velocity": 105}, {"time": 71550, "pitch": 64, "duration": 329, "velocity": 110}, {"time": 71879, "pitch": 64, "duration": 240, "velocity": 110}, {"time": 71889, "pitch": 55, "duration": 240, "velocity": 100}, {"time": 71889, "pitch": 59, "duration": 240, "velocity": 105}, {"time": 71899, "pitch": 52, "duration": 241, "velocity": 95}, {"time": 72119, "pitch": 64, "duration": 142, "velocity": 100}, {"time": 72129, "pitch": 55, "duration": 122, "velocity": 90}, {"time": 72129, "pitch": 59, "duration": 132, "velocity": 95}, {"time": 72140, "pitch": 52, "duration": 101, "velocity": 85}, {"time": 72241, "pitch": 52, "duration": 141, "velocity": 95}, {"time": 72251, "pitch": 55, "duration": 121, "velocity": 100}, {"time": 72261, "pitch": 59, "duration": 101, "velocity": 105}, {"time": 72261, "pitch": 64, "duration": 101, "velocity": 110}, {"time": 72362, "pitch": 64, "duration": 101, "velocity": 90}, {"time": 72372, "pitch": 55, "duration": 91, "velocity": 80}, {"time": 72372, "pitch": 59, "duration": 91, "velocity": 85}, {"time": 72382, "pitch": 52, "duration": 81, "velocity": 75}, {"time": 72483, "pitch": 45, "duration": 378, "velocity": 95}, {"time": 72493, "pitch": 55, "duration": 358, "velocity": 100}, {"time": 72503, "pitch": 61, "duration": 348, "velocity": 105}, {"time": 72513, "pitch": 64, "duration": 328, "velocity": 110}, {"time": 72841, "pitch": 64, "duration": 239, "velocity": 110}, {"time": 72851, "pitch": 55, "duration": 239, "velocity": 100}, {"time": 72851, "pitch": 61, "duration": 239, "velocity": 105}, {"time": 72861, "pitch": 52, "duration": 239, "velocity": 95}, {"time": 73080, "pitch": 64, "duration": 139, "velocity": 100}, {"time": 73090, "pitch": 55, "duration": 119, "velocity": 90}, {"time": 73090, "pitch": 61, "duration": 129, "velocity": 95}, {"time": 73100, "pitch": 52, "duration": 99, "velocity": 85}, {"time": 73199, "pitch": 52, "duration": 140, "velocity": 95}, {"time": 73209, "pitch": 55, "duration": 120, "velocity": 100}, {"time": 73219, "pitch": 61, "duration": 100, "velocity": 105}, {"time": 73219, "pitch": 64, "duration": 100, "velocity": 110}, {"time": 73319, "pitch": 64, "duration": 99, "velocity": 90}, {"time": 73329, "pitch": 55, "duration": 89, "velocity": 80}, {"time": 73329, "pitch": 61, "duration": 89, "velocity": 85}, {"time": 73339, "pitch": 52, "duration": 79, "velocity": 75}, {"time": 73438, "pitch": 45, "duration": 384, "velocity": 95}, {"time": 73448, "pitch": 57, "duration": 364, "velocity": 100}, {"time": 73458, "pitch": 60, "duration": 354, "velocity": 105}, {"time": 73468, "pitch": 64, "duration": 334, "velocity": 110}, {"time": 73802, "pitch": 64, "duration": 240, "velocity": 110}, {"time": 73812, "pitch": 57, "duration": 240, "velocity": 100}, {"time": 73812, "pitch": 60, "duration": 240, "velocity": 105}, {"time": 73822, "pitch": 52, "duration": 240, "velocity": 95}, {"time": 74042, "pitch": 64, "duration": 140, "velocity": 100}, {"time": 74052, "pitch": 57, "duration": 120, "velocity": 90}, {"time": 74052, "pitch": 60, "duration": 130, "velocity": 95}, {"time": 74062, "pitch": 52, "duration": 100, "velocity": 85}, {"time": 74162, "pitch": 52, "duration": 139, "velocity": 95}, {"time": 74172, "pitch": 57, "duration": 119, "velocity": 100}, {"time": 74182, "pitch": 60, "duration": 99, "velocity": 105}, {"time": 74182, "pitch": 64, "duration": 99, "velocity": 110}, {"time": 74281, "pitch": 64, "duration": 100, "velocity": 90}, {"time": 74291, "pitch": 57, "duration": 90, "velocity": 80}, {"time": 74291, "pitch": 60, "duration": 90, "velocity": 85}, {"time": 74301, "pitch": 52, "duration": 80, "velocity": 75}, {"time": 74401, "pitch": 50, "duration": 378, "velocity": 95}, {"time": 74410, "pitch": 57, "duration": 359, "velocity": 100}, {"time": 74420, "pitch": 62, "duration": 349, "velocity": 105}, {"time": 74430, "pitch": 67, "duration": 329, "velocity": 110}, {"time": 74759, "pitch": 66, "duration": 240, "velocity": 110}, {"time": 74769, "pitch": 57, "duration": 240, "velocity": 100}, {"time": 74769, "pitch": 62, "duration": 240, "velocity": 105}, {"time": 74779, "pitch": 50, "duration": 240, "velocity": 95}, {"time": 74999, "pitch": 66, "duration": 142, "velocity": 100}, {"time": 75009, "pitch": 57, "duration": 122, "velocity": 90}, {"time": 75009, "pitch": 62, "duration": 132, "velocity": 95}, {"time": 75019, "pitch": 50, "duration": 101, "velocity": 85}, {"time": 75120, "pitch": 50, "duration": 142, "velocity": 95}, {"time": 75131, "pitch": 57, "duration": 121, "velocity": 100}, {"time": 75141, "pitch": 62, "duration": 101, "velocity": 105}, {"time": 75141, "pitch": 66, "duration": 101, "velocity": 110}, {"time": 75242, "pitch": 66, "duration": 101, "velocity": 90}, {"time": 75252, "pitch": 57, "duration": 91, "velocity": 80}, {"time": 75252, "pitch": 62, "duration": 91, "velocity": 85}, {"time": 75262, "pitch": 50, "duration": 81, "velocity": 75}, {"time": 75363, "pitch": 50, "duration": 378, "velocity": 95}, {"time": 75373, "pitch": 55, "duration": 358, "velocity": 100}, {"time": 75383, "pitch": 59, "duration": 348, "velocity": 105}, {"time": 75393, "pitch": 67, "duration": 328, "velocity": 110}, {"time": 75721, "pitch": 67, "duration": 239, "velocity": 110}, {"time": 75731, "pitch": 55, "duration": 239, "velocity": 100}, {"time": 75731, "pitch": 59, "duration": 239, "velocity": 105}, {"time": 75741, "pitch": 50, "duration": 239, "velocity": 95}, {"time": 75960, "pitch": 67, "duration": 139, "velocity": 100}, {"time": 75970, "pitch": 55, "duration": 119, "velocity": 90}, {"time": 75970, "pitch": 59, "duration": 129, "velocity": 95}, {"time": 75980, "pitch": 50, "duration": 99, "velocity": 85}, {"time": 76079, "pitch": 50, "duration": 140, "velocity": 95}, {"time": 76089, "pitch": 55, "duration": 120, "velocity": 100}, {"time": 76099, "pitch": 59, "duration": 100, "velocity": 105}, {"time": 76099, "pitch": 67, "duration": 100, "velocity": 110}, {"time": 76199, "pitch": 67, "duration": 99, "velocity": 90}, {"time": 76209, "pitch": 55, "duration": 89, "velocity": 80}, {"time": 76209, "pitch": 59, "duration": 89, "velocity": 85}, {"time": 76219, "pitch": 50, "duration": 79, "velocity": 75}, {"time": 76318, "pitch": 50, "duration": 263, "velocity": 95}, {"time": 76328, "pitch": 57, "duration": 243, "velocity": 100}, {"time": 76338, "pitch": 62, "duration": 233, "velocity": 105}, {"time": 76348, "pitch": 66, "duration": 212, "velocity": 110}, {"time": 76560, "pitch": 66, "duration": 243, "velocity": 105}, {"time": 76571, "pitch": 57, "duration": 242, "velocity": 95}, {"time": 76571, "pitch": 62, "duration": 242, "velocity": 100}, {"time": 76581, "pitch": 50, "duration": 222, "velocity": 90}, {"time": 76803, "pitch": 50, "duration": 239, "velocity": 95}, {"time": 76813, "pitch": 57, "duration": 239, "velocity": 100}, {"time": 76823, "pitch": 62, "duration": 239, "velocity": 105}, {"time": 76823, "pitch": 66, "duration": 239, "velocity": 110}, {"time": 77042, "pitch": 50, "duration": 139, "velocity": 95}, {"time": 77052, "pitch": 57, "duration": 119, "velocity": 100}, {"time": 77062, "pitch": 62, "duration": 99, "velocity": 105}, {"time": 77062, "pitch": 66, "duration": 99, "velocity": 110}, {"time": 77161, "pitch": 66, "duration": 100, "velocity": 90}, {"time": 77171, "pitch": 57, "duration": 90, "velocity": 80}, {"time": 77171, "pitch": 62, "duration": 90, "velocity": 85}, {"time": 77181, "pitch": 50, "duration": 80, "velocity": 75}, {"time": 77280, "pitch": 50, "duration": 239, "velocity": 95}, {"time": 77290, "pitch": 55, "duration": 239, "velocity": 100}, {"time": 77300, "pitch": 59, "duration": 239, "velocity": 105}, {"time": 77310, "pitch": 67, "duration": 229, "velocity": 110}, {"time": 77519, "pitch": 50, "duration": 140, "velocity": 85}, {"time": 77529, "pitch": 55, "duration": 120, "velocity": 90}, {"time": 77539, "pitch": 59, "duration": 110, "velocity": 95}, {"time": 77539, "pitch": 67, "duration": 100, "velocity": 100}, {"time": 77639, "pitch": 67, "duration": 240, "velocity": 110}, {"time": 77649, "pitch": 55, "duration": 240, "velocity": 100}, {"time": 77649, "pitch": 59, "duration": 240, "velocity": 105}, {"time": 77659, "pitch": 50, "duration": 240, "velocity": 95}, {"time": 77879, "pitch": 67, "duration": 142, "velocity": 100}, {"time": 77889, "pitch": 55, "duration": 122, "velocity": 90}, {"time": 77889, "pitch": 59, "duration": 132, "velocity": 95}, {"time": 77899, "pitch": 50, "duration": 101, "velocity": 85}, {"time": 78000, "pitch": 50, "duration": 142, "velocity": 95}, {"time": 78011, "pitch": 55, "duration": 121, "velocity": 100}, {"time": 78021, "pitch": 59, "duration": 101, "velocity": 105}, {"time": 78021, "pitch": 67, "duration": 101, "velocity": 110}, {"time": 78122, "pitch": 67, "duration": 101, "velocity": 90}, {"time": 78132, "pitch": 55, "duration": 91, "velocity": 80}, {"time": 78132, "pitch": 59, "duration": 91, "velocity": 85}, {"time": 78142, "pitch": 50, "duration": 81, "velocity": 75}, {"time": 78243, "pitch": 50, "duration": 378, "velocity": 95}, {"time": 78253, "pitch": 57, "duration": 358, "velocity": 100}, {"time": 78263, "pitch": 62, "duration": 348, "velocity": 105}, {"time": 78273, "pitch": 66, "duration": 328, "velocity": 110}, {"time": 78601, "pitch": 66, "duration": 239, "velocity": 110}, {"time": 78611, "pitch": 57, "duration": 239, "velocity": 100}, {"time": 78611, "pitch": 62, "duration": 239, "velocity": 105}, {"time": 78621, "pitch": 50, "duration": 239, "velocity": 95}, {"time": 78840, "pitch": 66, "duration": 139, "velocity": 100}, {"time": 78850, "pitch": 57, "duration": 119, "velocity": 90}, {"time": 78850, "pitch": 62, "duration": 129, "velocity": 95}, {"time": 78860, "pitch": 50, "duration": 99, "velocity": 85}, {"time": 78959, "pitch": 50, "duration": 139, "velocity": 95}, {"time": 78969, "pitch": 57, "duration": 120, "velocity": 100}, {"time": 78979, "pitch": 62, "duration": 100, "velocity": 105}, {"time": 78979, "pitch": 66, "duration": 100, "velocity": 110}, {"time": 79079, "pitch": 66, "duration": 99, "velocity": 90}, {"time": 79089, "pitch": 57, "duration": 89, "velocity": 80}, {"time": 79089, "pitch": 62, "duration": 89, "velocity": 85}, {"time": 79098, "pitch": 50, "duration": 80, "velocity": 75}, {"time": 79198, "pitch": 40, "duration": 384, "velocity": 95}, {"time": 79208, "pitch": 55, "duration": 364, "velocity": 100}, {"time": 79218, "pitch": 59, "duration": 354, "velocity": 105}, {"time": 79228, "pitch": 64, "duration": 334, "velocity": 110}, {"time": 79562, "pitch": 67, "duration": 240, "velocity": 110}, {"time": 79572, "pitch": 55, "duration": 240, "velocity": 100}, {"time": 79572, "pitch": 59, "duration": 240, "velocity": 105}, {"time": 79582, "pitch": 52, "duration": 240, "velocity": 95}, {"time": 79802, "pitch": 67, "duration": 139, "velocity": 100}, {"time": 79812, "pitch": 55, "duration": 120, "velocity": 90}, {"time": 79812, "pitch": 59, "duration": 129, "velocity": 95}, {"time": 79822, "pitch": 52, "duration": 100, "velocity": 85}, {"time": 79922, "pitch": 52, "duration": 139, "velocity": 95}, {"time": 79932, "pitch": 55, "duration": 119, "velocity": 100}, {"time": 79941, "pitch": 59, "duration": 100, "velocity": 105}, {"time": 79941, "pitch": 67, "duration": 100, "velocity": 110}, {"time": 80041, "pitch": 67, "duration": 99, "velocity": 90}, {"time": 80051, "pitch": 55, "duration": 89, "velocity": 80}, {"time": 80051, "pitch": 59, "duration": 89, "velocity": 85}, {"time": 80061, "pitch": 52, "duration": 79, "velocity": 75}, {"time": 80160, "pitch": 50, "duration": 378, "velocity": 95}, {"time": 80170, "pitch": 57, "duration": 359, "velocity": 100}, {"time": 80180, "pitch": 62, "duration": 349, "velocity": 105}, {"time": 80190, "pitch": 66, "duration": 329, "velocity": 110}, {"time": 80519, "pitch": 66, "duration": 240, "velocity": 110}, {"time": 80529, "pitch": 57, "duration": 240, "velocity": 100}, {"time": 80529, "pitch": 62, "duration": 240, "velocity": 105}, {"time": 80538, "pitch": 50, "duration": 241, "velocity": 95}, {"time": 80759, "pitch": 66, "duration": 142, "velocity": 100}, {"time": 80769, "pitch": 57, "duration": 121, "velocity": 90}, {"time": 80769, "pitch": 62, "duration": 132, "velocity": 95}, {"time": 80779, "pitch": 50, "duration": 101, "velocity": 85}, {"time": 80880, "pitch": 50, "duration": 142, "velocity": 95}, {"time": 80890, "pitch": 57, "duration": 122, "velocity": 100}, {"time": 80901, "pitch": 62, "duration": 101, "velocity": 105}, {"time": 80901, "pitch": 66, "duration": 101, "velocity": 110}, {"time": 81002, "pitch": 66, "duration": 101, "velocity": 90}, {"time": 81012, "pitch": 57, "duration": 91, "velocity": 80}, {"time": 81012, "pitch": 62, "duration": 91, "velocity": 85}, {"time": 81022, "pitch": 50, "duration": 81, "velocity": 75}, {"time": 81123, "pitch": 48, "duration": 378, "velocity": 95}, {"time": 81133, "pitch": 55, "duration": 358, "velocity": 100}, {"time": 81143, "pitch": 60, "duration": 348, "velocity": 105}, {"time": 81153, "pitch": 64, "duration": 328, "velocity": 110}, {"time": 81481, "pitch": 67, "duration": 239, "velocity": 110}, {"time": 81491, "pitch": 60, "duration": 239, "velocity": 100}, {"time": 81491, "pitch": 64, "duration": 239, "velocity": 105}, {"time": 81501, "pitch": 55, "duration": 239, "velocity": 95}, {"time": 81720, "pitch": 67, "duration": 139, "velocity": 100}, {"time": 81730, "pitch": 60, "duration": 119, "velocity": 90}, {"time": 81730, "pitch": 64, "duration": 129, "velocity": 95}, {"time": 81740, "pitch": 55, "duration": 99, "velocity": 85}, {"time": 81839, "pitch": 55, "duration": 139, "velocity": 95}, {"time": 81849, "pitch": 60, "duration": 119, "velocity": 100}, {"time": 81859, "pitch": 64, "duration": 100, "velocity": 105}, {"time": 81859, "pitch": 67, "duration": 100, "velocity": 110}, {"time": 81959, "pitch": 67, "duration": 99, "velocity": 90}, {"time": 81968, "pitch": 60, "duration": 90, "velocity": 80}, {"time": 81968, "pitch": 64, "duration": 90, "velocity": 85}, {"time": 81978, "pitch": 55, "duration": 80, "velocity": 75}, {"time": 82078, "pitch": 50, "duration": 242, "velocity": 95}, {"time": 82088, "pitch": 57, "duration": 242, "velocity": 100}, {"time": 82098, "pitch": 62, "duration": 243, "velocity": 105}, {"time": 82108, "pitch": 67, "duration": 233, "velocity": 110}, {"time": 82320, "pitch": 50, "duration": 142, "velocity": 85}, {"time": 82330, "pitch": 57, "duration": 122, "velocity": 90}, {"time": 82341, "pitch": 62, "duration": 111, "velocity": 95}, {"time": 82341, "pitch": 67, "duration": 101, "velocity": 100}, {"time": 82442, "pitch": 66, "duration": 240, "velocity": 110}, {"time": 82452, "pitch": 57, "duration": 240, "velocity": 100}, {"time": 82452, "pitch": 62, "duration": 240, "velocity": 105}, {"time": 82462, "pitch": 50, "duration": 240, "velocity": 95}, {"time": 82682, "pitch": 66, "duration": 139, "velocity": 100}, {"time": 82692, "pitch": 57, "duration": 119, "velocity": 90}, {"time": 82692, "pitch": 62, "duration": 129, "velocity": 95}, {"time": 82702, "pitch": 50, "duration": 99, "velocity": 85}, {"time": 82801, "pitch": 50, "duration": 140, "velocity": 95}, {"time": 82811, "pitch": 57, "duration": 120, "velocity": 100}, {"time": 82821, "pitch": 62, "duration": 100, "velocity": 105}, {"time": 82821, "pitch": 66, "duration": 100, "velocity": 110}, {"time": 82921, "pitch": 66, "duration": 99, "velocity": 90}, {"time": 82931, "pitch": 57, "duration": 89, "velocity": 80}, {"time": 82931, "pitch": 62, "duration": 89, "velocity": 85}, {"time": 82941, "pitch": 50, "duration": 79, "velocity": 75}, {"time": 83040, "pitch": 50, "duration": 378, "velocity": 95}, {"time": 83050, "pitch": 55, "duration": 358, "velocity": 100}, {"time": 83060, "pitch": 59, "duration": 348, "velocity": 105}, {"time": 83070, "pitch": 67, "duration": 328, "velocity": 110}, {"time": 83398, "pitch": 67, "duration": 241, "velocity": 110}, {"time": 83408, "pitch": 55, "duration": 241, "velocity": 100}, {"time": 83408, "pitch": 59, "duration": 241, "velocity": 105}, {"time": 83418, "pitch": 50, "duration": 241, "velocity": 95}, {"time": 83639, "pitch": 67, "duration": 141, "velocity": 100}, {"time": 83649, "pitch": 55, "duration": 121, "velocity": 90}, {"time": 83649, "pitch": 59, "duration": 131, "velocity": 95}, {"time": 83659, "pitch": 50, "duration": 101, "velocity": 85}, {"time": 83760, "pitch": 50, "duration": 142, "velocity": 95}, {"time": 83770, "pitch": 55, "duration": 122, "velocity": 100}, {"time": 83780, "pitch": 59, "duration": 101, "velocity": 105}, {"time": 83780, "pitch": 67, "duration": 101, "velocity": 110}, {"time": 83881, "pitch": 67, "duration": 101, "velocity": 90}, {"time": 83892, "pitch": 55, "duration": 90, "velocity": 80}, {"time": 83892, "pitch": 59, "duration": 90, "velocity": 85}, {"time": 83902, "pitch": 50, "duration": 80, "velocity": 75}, {"time": 84003, "pitch": 50, "duration": 258, "velocity": 95}, {"time": 84013, "pitch": 57, "duration": 238, "velocity": 100}, {"time": 84023, "pitch": 62, "duration": 228, "velocity": 105}, {"time": 84033, "pitch": 66, "duration": 208, "velocity": 110}, {"time": 84241, "pitch": 66, "duration": 239, "velocity": 105}, {"time": 84251, "pitch": 57, "duration": 239, "velocity": 95}, {"time": 84251, "pitch": 62, "duration": 239, "velocity": 100}, {"time": 84261, "pitch": 50, "duration": 219, "velocity": 90}, {"time": 84480, "pitch": 50, "duration": 239, "velocity": 95}, {"time": 84490, "pitch": 57, "duration": 239, "velocity": 100}, {"time": 84500, "pitch": 62, "duration": 239, "velocity": 105}, {"time": 84500, "pitch": 66, "duration": 239, "velocity": 110}, {"time": 84719, "pitch": 50, "duration": 139, "velocity": 95}, {"time": 84729, "pitch": 57, "duration": 119, "velocity": 100}, {"time": 84739, "pitch": 62, "duration": 99, "velocity": 105}, {"time": 84739, "pitch": 66, "duration": 99, "velocity": 110}, {"time": 84838, "pitch": 66, "duration": 100, "velocity": 90}, {"time": 84848, "pitch": 57, "duration": 90, "velocity": 80}, {"time": 84848, "pitch": 62, "duration": 90, "velocity": 85}, {"time": 84858, "pitch": 50, "duration": 80, "velocity": 75}, {"time": 84958, "pitch": 50, "duration": 242, "velocity": 95}, {"time": 84968, "pitch": 55, "duration": 242, "velocity": 100}, {"time": 84978, "pitch": 59, "duration": 242, "velocity": 105}, {"time": 84988, "pitch": 67, "duration": 232, "velocity": 110}, {"time": 85200, "pitch": 50, "duration": 142, "velocity": 85}, {"time": 85210, "pitch": 55, "duration": 122, "velocity": 90}, {"time": 85220, "pitch": 59, "duration": 112, "velocity": 95}, {"time": 85220, "pitch": 67, "duration": 101, "velocity": 100}, {"time": 85321, "pitch": 67, "duration": 241, "velocity": 110}, {"time": 85332, "pitch": 55, "duration": 240, "velocity": 100}, {"time": 85332, "pitch": 59, "duration": 240, "velocity": 105}, {"time": 85342, "pitch": 50, "duration": 240, "velocity": 95}, {"time": 85562, "pitch": 67, "duration": 139, "velocity": 100}, {"time": 85572, "pitch": 55, "duration": 119, "velocity": 90}, {"time": 85572, "pitch": 59, "duration": 129, "velocity": 95}, {"time": 85582, "pitch": 50, "duration": 99, "velocity": 85}, {"time": 85681, "pitch": 50, "duration": 140, "velocity": 95}, {"time": 85691, "pitch": 55, "duration": 120, "velocity": 100}, {"time": 85701, "pitch": 59, "duration": 100, "velocity": 105}, {"time": 85701, "pitch": 67, "duration": 100, "velocity": 110}, {"time": 85801, "pitch": 67, "duration": 99, "velocity": 90}, {"time": 85811, "pitch": 55, "duration": 89, "velocity": 80}, {"time": 85811, "pitch": 59, "duration": 89, "velocity": 85}, {"time": 85821, "pitch": 50, "duration": 79, "velocity": 75}, {"time": 85920, "pitch": 50, "duration": 378, "velocity": 95}, {"time": 85930, "pitch": 57, "duration": 358, "velocity": 100}, {"time": 85940, "pitch": 62, "duration": 348, "velocity": 105}, {"time": 85950, "pitch": 66, "duration": 328, "velocity": 110}, {"time": 86278, "pitch": 66, "duration": 241, "velocity": 110}, {"time": 86288, "pitch": 57, "duration": 241, "velocity": 100}, {"time": 86288, "pitch": 62, "duration": 241, "velocity": 105}, {"time": 86298, "pitch": 50, "duration": 241, "velocity": 95}, {"time": 86519, "pitch": 66, "duration": 141, "velocity": 100}, {"time": 86529, "pitch": 57, "duration": 121, "velocity": 90}, {"time": 86529, "pitch": 62, "duration": 131, "velocity": 95}, {"time": 86539, "pitch": 50, "duration": 101, "velocity": 85}, {"time": 86640, "pitch": 50, "duration": 142, "velocity": 95}, {"time": 86650, "pitch": 57, "duration": 122, "velocity": 100}, {"time": 86660, "pitch": 62, "duration": 101, "velocity": 105}, {"time": 86660, "pitch": 66, "duration": 101, "velocity": 110}, {"time": 86761, "pitch": 66, "duration": 101, "velocity": 90}, {"time": 86772, "pitch": 57, "duration": 90, "velocity": 80}, {"time": 86772, "pitch": 62, "duration": 90, "velocity": 85}, {"time": 86782, "pitch": 50, "duration": 80, "velocity": 75}, {"time": 86883, "pitch": 40, "duration": 378, "velocity": 95}, {"time": 86893, "pitch": 55, "duration": 358, "velocity": 100}, {"time": 86902, "pitch": 59, "duration": 349, "velocity": 105}, {"time": 86912, "pitch": 64, "duration": 329, "velocity": 110}, {"time": 87241, "pitch": 67, "duration": 239, "velocity": 110}, {"time": 87251, "pitch": 55, "duration": 239, "velocity": 100}, {"time": 87251, "pitch": 59, "duration": 239, "velocity": 105}, {"time": 87261, "pitch": 52, "duration": 238, "velocity": 95}, {"time": 87480, "pitch": 67, "duration": 139, "velocity": 100}, {"time": 87490, "pitch": 55, "duration": 119, "velocity": 90}, {"time": 87490, "pitch": 59, "duration": 129, "velocity": 95}, {"time": 87499, "pitch": 52, "duration": 100, "velocity": 85}, {"time": 87599, "pitch": 52, "duration": 139, "velocity": 95}, {"time": 87609, "pitch": 55, "duration": 119, "velocity": 100}, {"time": 87619, "pitch": 59, "duration": 99, "velocity": 105}, {"time": 87619, "pitch": 67, "duration": 99, "velocity": 110}, {"time": 87718, "pitch": 67, "duration": 140, "velocity": 90}, {"time": 87728, "pitch": 55, "duration": 120, "velocity": 80}, {"time": 87728, "pitch": 59, "duration": 120, "velocity": 85}, {"time": 87738, "pitch": 52, "duration": 100, "velocity": 75}, {"time": 87838, "pitch": 52, "duration": 384, "velocity": 95}, {"time": 87848, "pitch": 55, "duration": 363, "velocity": 100}, {"time": 87858, "pitch": 59, "duration": 353, "velocity": 105}, {"time": 87868, "pitch": 67, "duration": 333, "velocity": 110}, {"time": 88201, "pitch": 67, "duration": 241, "velocity": 110}, {"time": 88211, "pitch": 55, "duration": 241, "velocity": 100}, {"time": 88211, "pitch": 59, "duration": 241, "velocity": 105}, {"time": 88222, "pitch": 52, "duration": 240, "velocity": 95}, {"time": 88442, "pitch": 67, "duration": 139, "velocity": 100}, {"time": 88452, "pitch": 55, "duration": 119, "velocity": 90}, {"time": 88452, "pitch": 59, "duration": 129, "velocity": 95}, {"time": 88462, "pitch": 52, "duration": 99, "velocity": 85}, {"time": 88561, "pitch": 52, "duration": 140, "velocity": 95}, {"time": 88571, "pitch": 55, "duration": 120, "velocity": 100}, {"time": 88581, "pitch": 59, "duration": 100, "velocity": 105}, {"time": 88581, "pitch": 67, "duration": 100, "velocity": 110}, {"time": 88681, "pitch": 67, "duration": 99, "velocity": 90}, {"time": 88691, "pitch": 55, "duration": 89, "velocity": 80}, {"time": 88691, "pitch": 59, "duration": 89, "velocity": 85}, {"time": 88701, "pitch": 52, "duration": 79, "velocity": 75}, {"time": 88800, "pitch": 48, "duration": 378, "velocity": 95}, {"time": 88810, "pitch": 55, "duration": 358, "velocity": 100}, {"time": 88820, "pitch": 60, "duration": 348, "velocity": 105}, {"time": 88830, "pitch": 64, "duration": 328, "velocity": 110}, {"time": 89158, "pitch": 67, "duration": 241, "velocity": 110}, {"time": 89168, "pitch": 60, "duration": 241, "velocity": 100}, {"time": 89168, "pitch": 64, "duration": 241, "velocity": 105}, {"time": 89178, "pitch": 55, "duration": 241, "velocity": 95}, {"time": 89399, "pitch": 67, "duration": 141, "velocity": 100}, {"time": 89409, "pitch": 60, "duration": 121, "velocity": 90}, {"time": 89409, "pitch": 64, "duration": 131, "velocity": 95}, {"time": 89419, "pitch": 55, "duration": 101, "velocity": 85}, {"time": 89520, "pitch": 55, "duration": 142, "velocity": 95}, {"time": 89530, "pitch": 60, "duration": 121, "velocity": 100}, {"time": 89540, "pitch": 64, "duration": 101, "velocity": 105}, {"time": 89540, "pitch": 67, "duration": 101, "velocity": 110}, {"time": 89641, "pitch": 67, "duration": 101, "velocity": 90}, {"time": 89651, "pitch": 60, "duration": 91, "velocity": 80}, {"time": 89651, "pitch": 64, "duration": 91, "velocity": 85}, {"time": 89662, "pitch": 55, "duration": 80, "velocity": 75}, {"time": 89763, "pitch": 50, "duration": 238, "velocity": 95}, {"time": 89772, "pitch": 55, "duration": 239, "velocity": 100}, {"time": 89782, "pitch": 59, "duration": 239, "velocity": 105}, {"time": 89792, "pitch": 67, "duration": 229, "velocity": 110}, {"time": 90001, "pitch": 50, "duration": 140, "velocity": 85}, {"time": 90011, "pitch": 55, "duration": 120, "velocity": 90}, {"time": 90021, "pitch": 59, "duration": 110, "velocity": 95}, {"time": 90021, "pitch": 67, "duration": 100, "velocity": 100}, {"time": 90121, "pitch": 67, "duration": 239, "velocity": 110}, {"time": 90131, "pitch": 55, "duration": 238, "velocity": 100}, {"time": 90131, "pitch": 59, "duration": 238, "velocity": 105}, {"time": 90141, "pitch": 50, "duration": 238, "velocity": 95}, {"time": 90360, "pitch": 67, "duration": 139, "velocity": 100}, {"time": 90369, "pitch": 55, "duration": 120, "velocity": 90}, {"time": 90369, "pitch": 59, "duration": 130, "velocity": 95}, {"time": 90379, "pitch": 50, "duration": 100, "velocity": 85}, {"time": 90479, "pitch": 50, "duration": 139, "velocity": 95}, {"time": 90489, "pitch": 55, "duration": 119, "velocity": 100}, {"time": 90499, "pitch": 59, "duration": 99, "velocity": 105}, {"time": 90499, "pitch": 67, "duration": 99, "velocity": 110}, {"time": 90598, "pitch": 67, "duration": 100, "velocity": 90}, {"time": 90608, "pitch": 55, "duration": 90, "velocity": 80}, {"time": 90608, "pitch": 59, "duration": 90, "velocity": 85}, {"time": 90618, "pitch": 50, "duration": 80, "velocity": 75}, {"time": 90718, "pitch": 52, "duration": 384, "velocity": 95}, {"time": 90728, "pitch": 57, "duration": 363, "velocity": 100}, {"time": 90738, "pitch": 60, "duration": 353, "velocity": 105}, {"time": 90748, "pitch": 64, "duration": 333, "velocity": 110}, {"time": 91081, "pitch": 64, "duration": 241, "velocity": 110}, {"time": 91091, "pitch": 57, "duration": 241, "velocity": 100}, {"time": 91091, "pitch": 60, "duration": 241, "velocity": 105}, {"time": 91102, "pitch": 52, "duration": 240, "velocity": 95}, {"time": 91322, "pitch": 64, "duration": 139, "velocity": 100}, {"time": 91332, "pitch": 57, "duration": 119, "velocity": 90}, {"time": 91332, "pitch": 60, "duration": 129, "velocity": 95}, {"time": 91342, "pitch": 52, "duration": 99, "velocity": 85}, {"time": 91441, "pitch": 52, "duration": 140, "velocity": 95}, {"time": 91451, "pitch": 57, "duration": 120, "velocity": 100}, {"time": 91461, "pitch": 60, "duration": 100, "velocity": 105}, {"time": 91461, "pitch": 64, "duration": 100, "velocity": 110}, {"time": 91561, "pitch": 64, "duration": 99, "velocity": 90}, {"time": 91571, "pitch": 57, "duration": 89, "velocity": 80}, {"time": 91571, "pitch": 60, "duration": 89, "velocity": 85}, {"time": 91581, "pitch": 52, "duration": 79, "velocity": 75}, {"time": 91680, "pitch": 45, "duration": 259, "velocity": 105}, {"time": 91690, "pitch": 57, "duration": 239, "velocity": 100}, {"time": 91700, "pitch": 60, "duration": 229, "velocity": 105}, {"time": 91710, "pitch": 64, "duration": 209, "velocity": 110}, {"time": 91919, "pitch": 64, "duration": 239, "velocity": 105}, {"time": 91929, "pitch": 57, "duration": 239, "velocity": 105}, {"time": 91929, "pitch": 60, "duration": 239, "velocity": 100}, {"time": 91939, "pitch": 45, "duration": 219, "velocity": 90}, {"time": 92158, "pitch": 47, "duration": 242, "velocity": 105}, {"time": 92168, "pitch": 57, "duration": 242, "velocity": 100}, {"time": 92178, "pitch": 60, "duration": 242, "velocity": 105}, {"time": 92178, "pitch": 64, "duration": 242, "velocity": 110}, {"time": 92400, "pitch": 48, "duration": 222, "velocity": 105}, {"time": 92410, "pitch": 57, "duration": 212, "velocity": 100}, {"time": 92420, "pitch": 60, "duration": 202, "velocity": 105}, {"time": 92420, "pitch": 64, "duration": 202, "velocity": 110}, {"time": 92642, "pitch": 50, "duration": 379, "velocity": 95}, {"time": 92652, "pitch": 57, "duration": 359, "velocity": 100}, {"time": 92662, "pitch": 62, "duration": 349, "velocity": 105}, {"time": 92672, "pitch": 66, "duration": 329, "velocity": 110}, {"time": 93001, "pitch": 66, "duration": 238, "velocity": 110}, {"time": 93011, "pitch": 57, "duration": 238, "velocity": 100}, {"time": 93011, "pitch": 62, "duration": 238, "velocity": 105}, {"time": 93021, "pitch": 50, "duration": 238, "velocity": 95}, {"time": 93239, "pitch": 66, "duration": 140, "velocity": 100}, {"time": 93249, "pitch": 57, "duration": 120, "velocity": 90}, {"time": 93249, "pitch": 62, "duration": 130, "velocity": 95}, {"time": 93259, "pitch": 50, "duration": 100, "velocity": 85}, {"time": 93359, "pitch": 50, "duration": 139, "velocity": 95}, {"time": 93369, "pitch": 57, "duration": 119, "velocity": 100}, {"time": 93379, "pitch": 62, "duration": 99, "velocity": 105}, {"time": 93379, "pitch": 66, "duration": 99, "velocity": 110}, {"time": 93478, "pitch": 66, "duration": 100, "velocity": 90}, {"time": 93488, "pitch": 57, "duration": 90, "velocity": 80}, {"time": 93488, "pitch": 62, "duration": 90, "velocity": 85}, {"time": 93498, "pitch": 50, "duration": 80, "velocity": 75}, {"time": 93598, "pitch": 51, "duration": 383, "velocity": 95}, {"time": 93608, "pitch": 57, "duration": 363, "velocity": 100}, {"time": 93618, "pitch": 60, "duration": 353, "velocity": 105}, {"time": 93628, "pitch": 66, "duration": 333, "velocity": 110}, {"time": 93961, "pitch": 66, "duration": 241, "velocity": 110}, {"time": 93971, "pitch": 57, "duration": 241, "velocity": 100}, {"time": 93971, "pitch": 60, "duration": 241, "velocity": 105}, {"time": 93981, "pitch": 51, "duration": 241, "velocity": 95}, {"time": 94202, "pitch": 66, "duration": 139, "velocity": 100}, {"time": 94212, "pitch": 57, "duration": 119, "velocity": 90}, {"time": 94212, "pitch": 60, "duration": 129, "velocity": 95}, {"time": 94222, "pitch": 51, "duration": 99, "velocity": 85}, {"time": 94321, "pitch": 51, "duration": 140, "velocity": 95}, {"time": 94331, "pitch": 57, "duration": 120, "velocity": 100}, {"time": 94341, "pitch": 60, "duration": 100, "velocity": 105}, {"time": 94341, "pitch": 66, "duration": 100, "velocity": 110}, {"time": 94441, "pitch": 66, "duration": 99, "velocity": 90}, {"time": 94451, "pitch": 57, "duration": 89, "velocity": 80}, {"time": 94451, "pitch": 60, "duration": 89, "velocity": 85}, {"time": 94461, "pitch": 51, "duration": 79, "velocity": 75}, {"time": 94560, "pitch": 40, "duration": 378, "velocity": 95}, {"time": 94570, "pitch": 55, "duration": 358, "velocity": 100}, {"time": 94580, "pitch": 59, "duration": 348, "velocity": 105}, {"time": 94590, "pitch": 64, "duration": 328, "velocity": 110}, {"time": 94918, "pitch": 64, "duration": 241, "velocity": 110}, {"time": 94928, "pitch": 55, "duration": 241, "velocity": 100}, {"time": 94928, "pitch": 59, "duration": 241, "velocity": 105}, {"time": 94938, "pitch": 52, "duration": 241, "velocity": 95}, {"time": 95159, "pitch": 64, "duration": 141, "velocity": 100}, {"time": 95169, "pitch": 55, "duration": 121, "velocity": 90}, {"time": 95169, "pitch": 59, "duration": 131, "velocity": 95}, {"time": 95179, "pitch": 52, "duration": 101, "velocity": 85}, {"time": 95280, "pitch": 52, "duration": 141, "velocity": 95}, {"time": 95290, "pitch": 55, "duration": 121, "velocity": 100}, {"time": 95300, "pitch": 59, "duration": 101, "velocity": 105}, {"time": 95300, "pitch": 64, "duration": 101, "velocity": 110}, {"time": 95401, "pitch": 64, "duration": 101, "velocity": 90}, {"time": 95411, "pitch": 55, "duration": 91, "velocity": 80}, {"time": 95411, "pitch": 59, "duration": 91, "velocity": 85}, {"time": 95421, "pitch": 52, "duration": 81, "velocity": 75}, {"time": 95522, "pitch": 45, "duration": 378, "velocity": 95}, {"time": 95532, "pitch": 55, "duration": 359, "velocity": 100}, {"time": 95542, "pitch": 61, "duration": 349, "velocity": 105}, {"time": 95552, "pitch": 64, "duration": 329, "velocity": 110}, {"time": 95881, "pitch": 64, "duration": 238, "velocity": 110}, {"time": 95891, "pitch": 55, "duration": 238, "velocity": 100}, {"time": 95891, "pitch": 61, "duration": 238, "velocity": 105}, {"time": 95900, "pitch": 52, "duration": 239, "velocity": 95}, {"time": 96119, "pitch": 64, "duration": 140, "velocity": 100}, {"time": 96129, "pitch": 55, "duration": 120, "velocity": 90}, {"time": 96129, "pitch": 61, "duration": 130, "velocity": 95}, {"time": 96139, "pitch": 52, "duration": 100, "velocity": 85}, {"time": 96239, "pitch": 52, "duration": 139, "velocity": 95}, {"time": 96249, "pitch": 55, "duration": 119, "velocity": 100}, {"time": 96259, "pitch": 61, "duration": 99, "velocity": 105}, {"time": 96259, "pitch": 64, "duration": 99, "velocity": 110}, {"time": 96358, "pitch": 64, "duration": 100, "velocity": 90}, {"time": 96368, "pitch": 55, "duration": 90, "velocity": 80}, {"time": 96368, "pitch": 61, "duration": 90, "velocity": 85}, {"time": 96378, "pitch": 52, "duration": 80, "velocity": 75}, {"time": 96478, "pitch": 45, "duration": 383, "velocity": 95}, {"time": 96488, "pitch": 57, "duration": 363, "velocity": 100}, {"time": 96498, "pitch": 60, "duration": 353, "velocity": 105}, {"time": 96508, "pitch": 64, "duration": 333, "velocity": 110}, {"time": 96841, "pitch": 64, "duration": 241, "velocity": 110}, {"time": 96851, "pitch": 57, "duration": 241, "velocity": 100}, {"time": 96851, "pitch": 60, "duration": 241, "velocity": 105}, {"time": 96861, "pitch": 52, "duration": 241, "velocity": 95}, {"time": 97082, "pitch": 64, "duration": 139, "velocity": 100}, {"time": 97092, "pitch": 57, "duration": 119, "velocity": 90}, {"time": 97092, "pitch": 60, "duration": 129, "velocity": 95}, {"time": 97102, "pitch": 52, "duration": 99, "velocity": 85}, {"time": 97201, "pitch": 52, "duration": 139, "velocity": 95}, {"time": 97211, "pitch": 57, "duration": 119, "velocity": 100}, {"time": 97221, "pitch": 60, "duration": 100, "velocity": 105}, {"time": 97221, "pitch": 64, "duration": 100, "velocity": 110}, {"time": 97321, "pitch": 64, "duration": 99, "velocity": 90}, {"time": 97330, "pitch": 57, "duration": 90, "velocity": 80}, {"time": 97330, "pitch": 60, "duration": 90, "velocity": 85}, {"time": 97340, "pitch": 52, "duration": 80, "velocity": 75}, {"time": 97440, "pitch": 50, "duration": 378, "velocity": 95}, {"time": 97450, "pitch": 57, "duration": 358, "velocity": 100}, {"time": 97460, "pitch": 62, "duration": 348, "velocity": 105}, {"time": 97470, "pitch": 67, "duration": 328, "velocity": 110}, {"time": 97798, "pitch": 66, "duration": 241, "velocity": 110}, {"time": 97808, "pitch": 57, "duration": 241, "velocity": 100}, {"time": 97808, "pitch": 62, "duration": 241, "velocity": 105}, {"time": 97818, "pitch": 50, "duration": 241, "velocity": 95}, {"time": 98039, "pitch": 66, "duration": 141, "velocity": 100}, {"time": 98049, "pitch": 57, "duration": 121, "velocity": 90}, {"time": 98049, "pitch": 62, "duration": 131, "velocity": 95}, {"time": 98059, "pitch": 50, "duration": 101, "velocity": 85}, {"time": 98160, "pitch": 50, "duration": 141, "velocity": 95}, {"time": 98170, "pitch": 57, "duration": 121, "velocity": 100}, {"time": 98180, "pitch": 62, "duration": 101, "velocity": 105}, {"time": 98180, "pitch": 66, "duration": 101, "velocity": 110}, {"time": 98281, "pitch": 66, "duration": 101, "velocity": 90}, {"time": 98291, "pitch": 57, "duration": 91, "velocity": 80}, {"time": 98291, "pitch": 62, "duration": 91, "velocity": 85}, {"time": 98301, "pitch": 50, "duration": 81, "velocity": 75}, {"time": 98402, "pitch": 50, "duration": 378, "velocity": 95}, {"time": 98412, "pitch": 55, "duration": 358, "velocity": 100}, {"time": 98422, "pitch": 59, "duration": 348, "velocity": 105}, {"time": 98432, "pitch": 67, "duration": 328, "velocity": 110}, {"time": 98760, "pitch": 67, "duration": 239, "velocity": 110}, {"time": 98770, "pitch": 55, "duration": 239, "velocity": 100}, {"time": 98770, "pitch": 59, "duration": 239, "velocity": 105}, {"time": 98780, "pitch": 50, "duration": 239, "velocity": 95}, {"time": 98999, "pitch": 67, "duration": 140, "velocity": 100}, {"time": 99009, "pitch": 55, "duration": 120, "velocity": 90}, {"time": 99009, "pitch": 59, "duration": 130, "velocity": 95}, {"time": 99019, "pitch": 50, "duration": 100, "velocity": 85}, {"time": 99119, "pitch": 50, "duration": 139, "velocity": 95}, {"time": 99129, "pitch": 55, "duration": 119, "velocity": 100}, {"time": 99139, "pitch": 59, "duration": 99, "velocity": 105}, {"time": 99139, "pitch": 67, "duration": 99, "velocity": 110}, {"time": 99238, "pitch": 67, "duration": 100, "velocity": 90}, {"time": 99248, "pitch": 55, "duration": 90, "velocity": 80}, {"time": 99248, "pitch": 59, "duration": 90, "velocity": 85}, {"time": 99258, "pitch": 50, "duration": 80, "velocity": 75}, {"time": 99357, "pitch": 50, "duration": 943, "velocity": 95}, {"time": 99368, "pitch": 55, "duration": 932, "velocity": 100}, {"time": 99378, "pitch": 59, "duration": 922, "velocity": 105}, {"time": 99388, "pitch": 67, "duration": 912, "velocity": 110}, {"time": 100320, "pitch": 41, "duration": 378, "velocity": 95}, {"time": 100330, "pitch": 57, "duration": 358, "velocity": 100}, {"time": 100340, "pitch": 60, "duration": 348, "velocity": 105}, {"time": 100350, "pitch": 65, "duration": 328, "velocity": 110}, {"time": 100678, "pitch": 65, "duration": 241, "velocity": 110}, {"time": 100688, "pitch": 57, "duration": 241, "velocity": 100}, {"time": 100688, "pitch": 60, "duration": 241, "velocity": 105}, {"time": 100698, "pitch": 53, "duration": 241, "velocity": 95}, {"time": 100919, "pitch": 65, "duration": 141, "velocity": 100}, {"time": 100929, "pitch": 57, "duration": 121, "velocity": 90}, {"time": 100929, "pitch": 60, "duration": 131, "velocity": 95}, {"time": 100939, "pitch": 53, "duration": 101, "velocity": 85}, {"time": 101040, "pitch": 53, "duration": 141, "velocity": 95}, {"time": 101050, "pitch": 57, "duration": 121, "velocity": 100}, {"time": 101060, "pitch": 60, "duration": 101, "velocity": 105}, {"time": 101060, "pitch": 65, "duration": 101, "velocity": 110}, {"time": 101161, "pitch": 65, "duration": 101, "velocity": 90}, {"time": 101171, "pitch": 57, "duration": 91, "velocity": 80}, {"time": 101171, "pitch": 60, "duration": 91, "velocity": 85}, {"time": 101181, "pitch": 53, "duration": 81, "velocity": 75}, {"time": 101282, "pitch": 48, "duration": 378, "velocity": 95}, {"time": 101292, "pitch": 55, "duration": 358, "velocity": 100}, {"time": 101302, "pitch": 60, "duration": 348, "velocity": 105}, {"time": 101312, "pitch": 64, "duration": 328, "velocity": 110}, {"time": 101640, "pitch": 64, "duration": 239, "velocity": 110}, {"time": 101650, "pitch": 55, "duration": 239, "velocity": 100}, {"time": 101650, "pitch": 60, "duration": 239, "velocity": 105}, {"time": 101660, "pitch": 52, "duration": 239, "velocity": 95}, {"time": 101879, "pitch": 64, "duration": 140, "velocity": 100}, {"time": 101889, "pitch": 55, "duration": 120, "velocity": 90}, {"time": 101889, "pitch": 60, "duration": 130, "velocity": 95}, {"time": 101899, "pitch": 52, "duration": 100, "velocity": 85}, {"time": 101999, "pitch": 52, "duration": 139, "velocity": 95}, {"time": 102009, "pitch": 55, "duration": 119, "velocity": 100}, {"time": 102019, "pitch": 60, "duration": 99, "velocity": 105}, {"time": 102019, "pitch": 64, "duration": 99, "velocity": 110}, {"time": 102118, "pitch": 64, "duration": 100, "velocity": 90}, {"time": 102128, "pitch": 55, "duration": 90, "velocity": 80}, {"time": 102128, "pitch": 60, "duration": 90, "velocity": 85}, {"time": 102138, "pitch": 52, "duration": 80, "velocity": 75}, {"time": 102237, "pitch": 43, "duration": 384, "velocity": 95}, {"time": 102247, "pitch": 55, "duration": 364, "velocity": 100}, {"time": 102258, "pitch": 59, "duration": 353, "velocity": 105}, {"time": 102268, "pitch": 62, "duration": 333, "velocity": 110}, {"time": 102601, "pitch": 67, "duration": 241, "velocity": 120}, {"time": 102611, "pitch": 59, "duration": 241, "velocity": 110}, {"time": 102611, "pitch": 62, "duration": 241, "velocity": 115}, {"time": 102621, "pitch": 55, "duration": 240, "velocity": 105}, {"time": 102842, "pitch": 67, "duration": 139, "velocity": 100}, {"time": 102852, "pitch": 59, "duration": 119, "velocity": 90}, {"time": 102852, "pitch": 62, "duration": 129, "velocity": 95}, {"time": 102861, "pitch": 50, "duration": 100, "velocity": 85}, {"time": 102961, "pitch": 50, "duration": 139, "velocity": 95}, {"time": 102971, "pitch": 59, "duration": 119, "velocity": 100}, {"time": 102981, "pitch": 62, "duration": 99, "velocity": 105}, {"time": 102981, "pitch": 67, "duration": 99, "velocity": 110}, {"time": 103080, "pitch": 67, "duration": 100, "velocity": 90}, {"time": 103090, "pitch": 59, "duration": 90, "velocity": 80}, {"time": 103090, "pitch": 62, "duration": 90, "velocity": 85}, {"time": 103100, "pitch": 50, "duration": 80, "velocity": 75}, {"time": 103200, "pitch": 50, "duration": 378, "velocity": 95}, {"time": 103210, "pitch": 59, "duration": 358, "velocity": 100}, {"time": 103220, "pitch": 62, "duration": 348, "velocity": 105}, {"time": 103230, "pitch": 67, "duration": 328, "velocity": 110}, {"time": 103558, "pitch": 67, "duration": 241, "velocity": 110}, {"time": 103568, "pitch": 59, "duration": 241, "velocity": 100}, {"time": 103568, "pitch": 62, "duration": 241, "velocity": 105}, {"time": 103578, "pitch": 50, "duration": 241, "velocity": 95}, {"time": 103799, "pitch": 67, "duration": 141, "velocity": 100}, {"time": 103809, "pitch": 59, "duration": 121, "velocity": 90}, {"time": 103809, "pitch": 62, "duration": 131, "velocity": 95}, {"time": 103819, "pitch": 50, "duration": 101, "velocity": 85}, {"time": 103920, "pitch": 50, "duration": 141, "velocity": 95}, {"time": 103930, "pitch": 59, "duration": 121, "velocity": 100}, {"time": 103940, "pitch": 62, "duration": 101, "velocity": 105}, {"time": 103940, "pitch": 67, "duration": 101, "velocity": 110}, {"time": 104041, "pitch": 67, "duration": 101, "velocity": 90}, {"time": 104051, "pitch": 59, "duration": 91, "velocity": 80}, {"time": 104051, "pitch": 62, "duration": 91, "velocity": 85}, {"time": 104061, "pitch": 50, "duration": 81, "velocity": 75}, {"time": 104162, "pitch": 41, "duration": 378, "velocity": 95}, {"time": 104172, "pitch": 57, "duration": 358, "velocity": 100}, {"time": 104182, "pitch": 60, "duration": 348, "velocity": 105}, {"time": 104192, "pitch": 65, "duration": 328, "velocity": 110}, {"time": 104520, "pitch": 65, "duration": 239, "velocity": 110}, {"time": 104530, "pitch": 57, "duration": 239, "velocity": 100}, {"time": 104530, "pitch": 60, "duration": 239, "velocity": 105}, {"time": 104540, "pitch": 53, "duration": 239, "velocity": 95}, {"time": 104759, "pitch": 65, "duration": 139, "velocity": 100}, {"time": 104769, "pitch": 57, "duration": 119, "velocity": 90}, {"time": 104769, "pitch": 60, "duration": 129, "velocity": 95}, {"time": 104779, "pitch": 53, "duration": 100, "velocity": 85}, {"time": 104879, "pitch": 53, "duration": 139, "velocity": 95}, {"time": 104888, "pitch": 57, "duration": 120, "velocity": 100}, {"time": 104898, "pitch": 60, "duration": 100, "velocity": 105}, {"time": 104898, "pitch": 65, "duration": 100, "velocity": 110}, {"time": 104998, "pitch": 65, "duration": 99, "velocity": 90}, {"time": 105008, "pitch": 57, "duration": 89, "velocity": 80}, {"time": 105008, "pitch": 60, "duration": 89, "velocity": 85}, {"time": 105018, "pitch": 53, "duration": 79, "velocity": 75}, {"time": 105117, "pitch": 48, "duration": 384, "velocity": 95}, {"time": 105127, "pitch": 55, "duration": 364, "velocity": 100}, {"time": 105138, "pitch": 60, "duration": 353, "velocity": 105}, {"time": 105148, "pitch": 64, "duration": 333, "velocity": 110}, {"time": 105481, "pitch": 64, "duration": 241, "velocity": 110}, {"time": 105491, "pitch": 55, "duration": 240, "velocity": 100}, {"time": 105491, "pitch": 60, "duration": 240, "velocity": 105}, {"time": 105501, "pitch": 52, "duration": 240, "velocity": 95}, {"time": 105722, "pitch": 64, "duration": 139, "velocity": 100}, {"time": 105731, "pitch": 55, "duration": 120, "velocity": 90}, {"time": 105731, "pitch": 60, "duration": 130, "velocity": 95}, {"time": 105741, "pitch": 52, "duration": 100, "velocity": 85}, {"time": 105841, "pitch": 52, "duration": 139, "velocity": 95}, {"time": 105851, "pitch": 55, "duration": 119, "velocity": 100}, {"time": 105861, "pitch": 60, "duration": 99, "velocity": 105}, {"time": 105861, "pitch": 64, "duration": 99, "velocity": 110}, {"time": 105960, "pitch": 64, "duration": 100, "velocity": 90}, {"time": 105970, "pitch": 55, "duration": 90, "velocity": 80}, {"time": 105970, "pitch": 60, "duration": 90, "velocity": 85}, {"time": 105980, "pitch": 52, "duration": 80, "velocity": 75}, {"time": 106080, "pitch": 43, "duration": 378, "velocity": 95}, {"time": 106090, "pitch": 55, "duration": 358, "velocity": 100}, {"time": 106100, "pitch": 59, "duration": 348, "velocity": 105}, {"time": 106110, "pitch": 62, "duration": 328, "velocity": 110}, {"time": 106438, "pitch": 67, "duration": 240, "velocity": 120}, {"time": 106448, "pitch": 59, "duration": 241, "velocity": 110}, {"time": 106448, "pitch": 62, "duration": 241, "velocity": 115}, {"time": 106458, "pitch": 55, "duration": 241, "velocity": 105}, {"time": 106678, "pitch": 67, "duration": 142, "velocity": 100}, {"time": 106689, "pitch": 59, "duration": 121, "velocity": 90}, {"time": 106689, "pitch": 62, "duration": 131, "velocity": 95}, {"time": 106699, "pitch": 50, "duration": 101, "velocity": 85}, {"time": 106800, "pitch": 50, "duration": 141, "velocity": 95}, {"time": 106810, "pitch": 59, "duration": 121, "velocity": 100}, {"time": 106820, "pitch": 62, "duration": 101, "velocity": 105}, {"time": 106820, "pitch": 67, "duration": 101, "velocity": 110}, {"time": 106921, "pitch": 67, "duration": 101, "velocity": 90}, {"time": 106931, "pitch": 59, "duration": 91, "velocity": 80}, {"time": 106931, "pitch": 62, "duration": 91, "velocity": 85}, {"time": 106941, "pitch": 50, "duration": 81, "velocity": 75}, {"time": 107042, "pitch": 50, "duration": 378, "velocity": 95}, {"time": 107052, "pitch": 59, "duration": 358, "velocity": 100}, {"time": 107062, "pitch": 62, "duration": 348, "velocity": 105}, {"time": 107072, "pitch": 67, "duration": 328, "velocity": 110}, {"time": 107400, "pitch": 67, "duration": 239, "velocity": 110}, {"time": 107410, "pitch": 59, "duration": 239, "velocity": 100}, {"time": 107410, "pitch": 62, "duration": 239, "velocity": 105}, {"time": 107420, "pitch": 50, "duration": 239, "velocity": 95}, {"time": 107639, "pitch": 67, "duration": 139, "velocity": 100}, {"time": 107649, "pitch": 59, "duration": 119, "velocity": 90}, {"time": 107649, "pitch": 62, "duration": 129, "velocity": 95}, {"time": 107659, "pitch": 50, "duration": 99, "velocity": 85}, {"time": 107758, "pitch": 50, "duration": 140, "velocity": 95}, {"time": 107768, "pitch": 59, "duration": 120, "velocity": 100}, {"time": 107778, "pitch": 62, "duration": 100, "velocity": 105}, {"time": 107778, "pitch": 67, "duration": 100, "velocity": 110}, {"time": 107878, "pitch": 67, "duration": 99, "velocity": 90}, {"time": 107888, "pitch": 59, "duration": 89, "velocity": 80}, {"time": 107888, "pitch": 62, "duration": 89, "velocity": 85}, {"time": 107898, "pitch": 50, "duration": 79, "velocity": 75}, {"time": 107997, "pitch": 41, "duration": 384, "velocity": 95}, {"time": 108007, "pitch": 57, "duration": 364, "velocity": 100}, {"time": 108017, "pitch": 60, "duration": 354, "velocity": 105}, {"time": 108028, "pitch": 65, "duration": 333, "velocity": 110}, {"time": 108361, "pitch": 65, "duration": 240, "velocity": 110}, {"time": 108371, "pitch": 57, "duration": 240, "velocity": 100}, {"time": 108371, "pitch": 60, "duration": 240, "velocity": 105}, {"time": 108381, "pitch": 53, "duration": 240, "velocity": 95}, {"time": 108601, "pitch": 65, "duration": 140, "velocity": 100}, {"time": 108611, "pitch": 57, "duration": 120, "velocity": 90}, {"time": 108611, "pitch": 60, "duration": 130, "velocity": 95}, {"time": 108621, "pitch": 53, "duration": 100, "velocity": 85}, {"time": 108721, "pitch": 53, "duration": 139, "velocity": 95}, {"time": 108731, "pitch": 57, "duration": 119, "velocity": 100}, {"time": 108741, "pitch": 60, "duration": 99, "velocity": 105}, {"time": 108741, "pitch": 65, "duration": 99, "velocity": 110}, {"time": 108840, "pitch": 65, "duration": 100, "velocity": 90}, {"time": 108850, "pitch": 57, "duration": 90, "velocity": 80}, {"time": 108850, "pitch": 60, "duration": 90, "velocity": 85}, {"time": 108860, "pitch": 53, "duration": 80, "velocity": 75}, {"time": 108960, "pitch": 48, "duration": 378, "velocity": 95}, {"time": 108970, "pitch": 55, "duration": 358, "velocity": 100}, {"time": 108980, "pitch": 60, "duration": 348, "velocity": 105}, {"time": 108989, "pitch": 64, "duration": 329, "velocity": 110}, {"time": 109318, "pitch": 64, "duration": 240, "velocity": 110}, {"time": 109328, "pitch": 55, "duration": 241, "velocity": 100}, {"time": 109328, "pitch": 60, "duration": 241, "velocity": 105}, {"time": 109338, "pitch": 52, "duration": 241, "velocity": 95}, {"time": 109558, "pitch": 64, "duration": 142, "velocity": 100}, {"time": 109569, "pitch": 55, "duration": 121, "velocity": 90}, {"time": 109569, "pitch": 60, "duration": 131, "velocity": 95}, {"time": 109579, "pitch": 52, "duration": 101, "velocity": 85}, {"time": 109680, "pitch": 52, "duration": 141, "velocity": 95}, {"time": 109690, "pitch": 55, "duration": 121, "velocity": 100}, {"time": 109700, "pitch": 60, "duration": 101, "velocity": 105}, {"time": 109700, "pitch": 64, "duration": 101, "velocity": 110}, {"time": 109801, "pitch": 64, "duration": 101, "velocity": 90}, {"time": 109811, "pitch": 55, "duration": 91, "velocity": 80}, {"time": 109811, "pitch": 60, "duration": 91, "velocity": 85}, {"time": 109821, "pitch": 52, "duration": 81, "velocity": 75}, {"time": 109922, "pitch": 43, "duration": 378, "velocity": 95}, {"time": 109932, "pitch": 55, "duration": 358, "velocity": 100}, {"time": 109942, "pitch": 59, "duration": 348, "velocity": 105}, {"time": 109952, "pitch": 62, "duration": 328, "velocity": 110}, {"time": 110280, "pitch": 67, "duration": 239, "velocity": 120}, {"time": 110290, "pitch": 59, "duration": 239, "velocity": 110}, {"time": 110290, "pitch": 62, "duration": 239, "velocity": 115}, {"time": 110300, "pitch": 55, "duration": 239, "velocity": 105}, {"time": 110519, "pitch": 67, "duration": 139, "velocity": 100}, {"time": 110529, "pitch": 59, "duration": 119, "velocity": 90}, {"time": 110529, "pitch": 62, "duration": 129, "velocity": 95}, {"time": 110539, "pitch": 50, "duration": 99, "velocity": 85}, {"time": 110638, "pitch": 50, "duration": 140, "velocity": 95}, {"time": 110648, "pitch": 59, "duration": 120, "velocity": 100}, {"time": 110658, "pitch": 62, "duration": 100, "velocity": 105}, {"time": 110658, "pitch": 67, "duration": 100, "velocity": 110}, {"time": 110758, "pitch": 67, "duration": 99, "velocity": 90}, {"time": 110768, "pitch": 59, "duration": 89, "velocity": 80}, {"time": 110768, "pitch": 62, "duration": 89, "velocity": 85}, {"time": 110778, "pitch": 50, "duration": 79, "velocity": 75}, {"time": 110877, "pitch": 50, "duration": 384, "velocity": 95}, {"time": 110887, "pitch": 59, "duration": 364, "velocity": 100}, {"time": 110897, "pitch": 62, "duration": 354, "velocity": 105}, {"time": 110907, "pitch": 67, "duration": 334, "velocity": 110}, {"time": 111241, "pitch": 67, "duration": 240, "velocity": 110}, {"time": 111251, "pitch": 59, "duration": 240, "velocity": 100}, {"time": 111251, "pitch": 62, "duration": 240, "velocity": 105}, {"time": 111261, "pitch": 50, "duration": 240, "velocity": 95}, {"time": 111481, "pitch": 67, "duration": 140, "velocity": 100}, {"time": 111491, "pitch": 59, "duration": 120, "velocity": 90}, {"time": 111491, "pitch": 62, "duration": 130, "velocity": 95}, {"time": 111501, "pitch": 50, "duration": 100, "velocity": 85}, {"time": 111601, "pitch": 50, "duration": 139, "velocity": 95}, {"time": 111611, "pitch": 59, "duration": 119, "velocity": 100}, {"time": 111621, "pitch": 62, "duration": 99, "velocity": 105}, {"time": 111621, "pitch": 67, "duration": 99, "velocity": 110}, {"time": 111720, "pitch": 67, "duration": 100, "velocity": 90}, {"time": 111730, "pitch": 59, "duration": 90, "velocity": 80}, {"time": 111730, "pitch": 62, "duration": 90, "velocity": 85}, {"time": 111740, "pitch": 50, "duration": 80, "velocity": 75}, {"time": 111840, "pitch": 41, "duration": 378, "velocity": 95}, {"time": 111850, "pitch": 57, "duration": 358, "velocity": 100}, {"time": 111859, "pitch": 60, "duration": 349, "velocity": 105}, {"time": 111869, "pitch": 65, "duration": 329, "velocity": 110}, {"time": 112198, "pitch": 65, "duration": 240, "velocity": 110}, {"time": 112208, "pitch": 57, "duration": 240, "velocity": 100}, {"time": 112208, "pitch": 60, "duration": 240, "velocity": 105}, {"time": 112218, "pitch": 53, "duration": 241, "velocity": 95}, {"time": 112438, "pitch": 65, "duration": 142, "velocity": 100}, {"time": 112448, "pitch": 57, "duration": 122, "velocity": 90}, {"time": 112448, "pitch": 60, "duration": 132, "velocity": 95}, {"time": 112459, "pitch": 53, "duration": 101, "velocity": 85}, {"time": 112560, "pitch": 53, "duration": 141, "velocity": 95}, {"time": 112570, "pitch": 57, "duration": 121, "velocity": 100}, {"time": 112580, "pitch": 60, "duration": 101, "velocity": 105}, {"time": 112580, "pitch": 65, "duration": 101, "velocity": 110}, {"time": 112681, "pitch": 65, "duration": 101, "velocity": 90}, {"time": 112691, "pitch": 57, "duration": 91, "velocity": 80}, {"time": 112691, "pitch": 60, "duration": 91, "velocity": 85}, {"time": 112701, "pitch": 53, "duration": 81, "velocity": 75}, {"time": 112802, "pitch": 48, "duration": 378, "velocity": 95}, {"time": 112812, "pitch": 55, "duration": 358, "velocity": 100}, {"time": 112822, "pitch": 60, "duration": 348, "velocity": 105}, {"time": 112832, "pitch": 64, "duration": 328, "velocity": 110}, {"time": 113160, "pitch": 64, "duration": 239, "velocity": 110}, {"time": 113170, "pitch": 55, "duration": 239, "velocity": 100}, {"time": 113170, "pitch": 60, "duration": 239, "velocity": 105}, {"time": 113180, "pitch": 52, "duration": 239, "velocity": 95}, {"time": 113399, "pitch": 64, "duration": 139, "velocity": 100}, {"time": 113409, "pitch": 55, "duration": 119, "velocity": 90}, {"time": 113409, "pitch": 60, "duration": 129, "velocity": 95}, {"time": 113419, "pitch": 52, "duration": 99, "velocity": 85}, {"time": 113518, "pitch": 52, "duration": 140, "velocity": 95}, {"time": 113528, "pitch": 55, "duration": 120, "velocity": 100}, {"time": 113538, "pitch": 60, "duration": 100, "velocity": 105}, {"time": 113538, "pitch": 64, "duration": 100, "velocity": 110}, {"time": 113638, "pitch": 64, "duration": 99, "velocity": 90}, {"time": 113648, "pitch": 55, "duration": 89, "velocity": 80}, {"time": 113648, "pitch": 60, "duration": 89, "velocity": 85}, {"time": 113658, "pitch": 52, "duration": 79, "velocity": 75}, {"time": 113757, "pitch": 45, "duration": 384, "velocity": 95}, {"time": 113767, "pitch": 50, "duration": 364, "velocity": 100}, {"time": 113777, "pitch": 57, "duration": 354, "velocity": 105}, {"time": 113787, "pitch": 62, "duration": 334, "velocity": 110}, {"time": 114121, "pitch": 67, "duration": 240, "velocity": 120}, {"time": 114131, "pitch": 57, "duration": 240, "velocity": 110}, {"time": 114131, "pitch": 62, "duration": 240, "velocity": 115}, {"time": 114141, "pitch": 50, "duration": 240, "velocity": 105}, {"time": 114361, "pitch": 67, "duration": 140, "velocity": 100}, {"time": 114371, "pitch": 57, "duration": 120, "velocity": 90}, {"time": 114371, "pitch": 62, "duration": 130, "velocity": 95}, {"time": 114381, "pitch": 50, "duration": 100, "velocity": 85}, {"time": 114481, "pitch": 50, "duration": 139, "velocity": 95}, {"time": 114491, "pitch": 57, "duration": 119, "velocity": 100}, {"time": 114501, "pitch": 62, "duration": 99, "velocity": 105}, {"time": 114501, "pitch": 67, "duration": 99, "velocity": 110}, {"time": 114600, "pitch": 67, "duration": 100, "velocity": 90}, {"time": 114610, "pitch": 57, "duration": 90, "velocity": 80}, {"time": 114610, "pitch": 62, "duration": 90, "velocity": 85}, {"time": 114620, "pitch": 50, "duration": 80, "velocity": 75}, {"time": 114719, "pitch": 50, "duration": 943, "velocity": 105}, {"time": 114729, "pitch": 57, "duration": 933, "velocity": 110}, {"time": 114739, "pitch": 62, "duration": 923, "velocity": 115}, {"time": 114749, "pitch": 66, "duration": 913, "velocity": 120}, {"time": 115682, "pitch": 50, "duration": 239, "velocity": 95}, {"time": 115692, "pitch": 55, "duration": 239, "velocity": 100}, {"time": 115702, "pitch": 59, "duration": 239, "velocity": 105}, {"time": 115712, "pitch": 67, "duration": 229, "velocity": 110}, {"time": 115921, "pitch": 50, "duration": 139, "velocity": 85}, {"time": 115931, "pitch": 55, "duration": 119, "velocity": 90}, {"time": 115941, "pitch": 59, "duration": 109, "velocity": 95}, {"time": 115941, "pitch": 67, "duration": 99, "velocity": 100}, {"time": 116040, "pitch": 67, "duration": 239, "velocity": 110}, {"time": 116050, "pitch": 55, "duration": 239, "velocity": 100}, {"time": 116050, "pitch": 59, "duration": 239, "velocity": 105}, {"time": 116060, "pitch": 50, "duration": 239, "velocity": 95}, {"time": 116279, "pitch": 67, "duration": 139, "velocity": 100}, {"time": 116289, "pitch": 55, "duration": 119, "velocity": 90}, {"time": 116289, "pitch": 59, "duration": 129, "velocity": 95}, {"time": 116299, "pitch": 50, "duration": 99, "velocity": 85}, {"time": 116398, "pitch": 50, "duration": 140, "velocity": 95}, {"time": 116408, "pitch": 55, "duration": 120, "velocity": 100}, {"time": 116418, "pitch": 59, "duration": 100, "velocity": 105}, {"time": 116418, "pitch": 67, "duration": 100, "velocity": 110}, {"time": 116518, "pitch": 67, "duration": 99, "velocity": 90}, {"time": 116528, "pitch": 55, "duration": 89, "velocity": 80}, {"time": 116528, "pitch": 59, "duration": 89, "velocity": 85}, {"time": 116538, "pitch": 50, "duration": 79, "velocity": 75}, {"time": 116637, "pitch": 50, "duration": 384, "velocity": 95}, {"time": 116647, "pitch": 57, "duration": 364, "velocity": 100}, {"time": 116657, "pitch": 62, "duration": 354, "velocity": 105}, {"time": 116667, "pitch": 66, "duration": 334, "velocity": 110}, {"time": 117001, "pitch": 66, "duration": 240, "velocity": 110}, {"time": 117011, "pitch": 57, "duration": 240, "velocity": 100}, {"time": 117011, "pitch": 62, "duration": 240, "velocity": 105}, {"time": 117021, "pitch": 50, "duration": 240, "velocity": 95}, {"time": 117241, "pitch": 66, "duration": 140, "velocity": 100}, {"time": 117251, "pitch": 57, "duration": 120, "velocity": 90}, {"time": 117251, "pitch": 62, "duration": 130, "velocity": 95}, {"time": 117261, "pitch": 50, "duration": 100, "velocity": 85}, {"time": 117361, "pitch": 50, "duration": 139, "velocity": 95}, {"time": 117371, "pitch": 57, "duration": 119, "velocity": 100}, {"time": 117381, "pitch": 62, "duration": 99, "velocity": 105}, {"time": 117381, "pitch": 66, "duration": 99, "velocity": 110}, {"time": 117480, "pitch": 66, "duration": 100, "velocity": 90}, {"time": 117490, "pitch": 57, "duration": 90, "velocity": 80}, {"time": 117490, "pitch": 62, "duration": 90, "velocity": 85}, {"time": 117500, "pitch": 50, "duration": 80, "velocity": 75}, {"time": 117599, "pitch": 40, "duration": 379, "velocity": 95}, {"time": 117609, "pitch": 55, "duration": 359, "velocity": 100}, {"time": 117619, "pitch": 59, "duration": 349, "velocity": 105}, {"time": 117629, "pitch": 64, "duration": 329, "velocity": 110}, {"time": 117958, "pitch": 67, "duration": 240, "velocity": 110}, {"time": 117968, "pitch": 55, "duration": 240, "velocity": 100}, {"time": 117968, "pitch": 59, "duration": 240, "velocity": 105}, {"time": 117978, "pitch": 52, "duration": 240, "velocity": 95}, {"time": 118198, "pitch": 67, "duration": 142, "velocity": 100}, {"time": 118208, "pitch": 55, "duration": 122, "velocity": 90}, {"time": 118208, "pitch": 59, "duration": 132, "velocity": 95}, {"time": 118218, "pitch": 52, "duration": 101, "velocity": 85}, {"time": 118319, "pitch": 52, "duration": 142, "velocity": 95}, {"time": 118330, "pitch": 55, "duration": 121, "velocity": 100}, {"time": 118340, "pitch": 59, "duration": 101, "velocity": 105}, {"time": 118340, "pitch": 67, "duration": 101, "velocity": 110}, {"time": 118441, "pitch": 67, "duration": 141, "velocity": 90}, {"time": 118451, "pitch": 55, "duration": 121, "velocity": 80}, {"time": 118451, "pitch": 59, "duration": 121, "velocity": 85}, {"time": 118461, "pitch": 52, "duration": 101, "velocity": 75}, {"time": 118562, "pitch": 52, "duration": 378, "velocity": 95}, {"time": 118572, "pitch": 55, "duration": 358, "velocity": 100}, {"time": 118582, "pitch": 59, "duration": 348, "velocity": 105}, {"time": 118592, "pitch": 67, "duration": 328, "velocity": 110}, {"time": 118920, "pitch": 67, "duration": 239, "velocity": 110}, {"time": 118930, "pitch": 55, "duration": 239, "velocity": 100}, {"time": 118930, "pitch": 59, "duration": 239, "velocity": 105}, {"time": 118940, "pitch": 52, "duration": 239, "velocity": 95}, {"time": 119159, "pitch": 67, "duration": 139, "velocity": 100}, {"time": 119169, "pitch": 55, "duration": 119, "velocity": 90}, {"time": 119169, "pitch": 59, "duration": 129, "velocity": 95}, {"time": 119179, "pitch": 52, "duration": 99, "velocity": 85}, {"time": 119278, "pitch": 52, "duration": 139, "velocity": 95}, {"time": 119288, "pitch": 55, "duration": 120, "velocity": 100}, {"time": 119298, "pitch": 59, "duration": 100, "velocity": 105}, {"time": 119298, "pitch": 67, "duration": 100, "velocity": 110}, {"time": 119398, "pitch": 67, "duration": 99, "velocity": 90}, {"time": 119408, "pitch": 55, "duration": 89, "velocity": 80}, {"time": 119408, "pitch": 59, "duration": 89, "velocity": 85}, {"time": 119417, "pitch": 52, "duration": 80, "velocity": 75}, {"time": 119517, "pitch": 48, "duration": 384, "velocity": 95}, {"time": 119527, "pitch": 55, "duration": 364, "velocity": 100}, {"time": 119537, "pitch": 60, "duration": 354, "velocity": 105}, {"time": 119547, "pitch": 64, "duration": 334, "velocity": 110}, {"time": 119881, "pitch": 67, "duration": 240, "velocity": 110}, {"time": 119891, "pitch": 60, "duration": 240, "velocity": 100}, {"time": 119891, "pitch": 64, "duration": 240, "velocity": 105}, {"time": 119901, "pitch": 55, "duration": 240, "velocity": 95}, {"time": 120121, "pitch": 67, "duration": 139, "velocity": 100}, {"time": 120131, "pitch": 60, "duration": 120, "velocity": 90}, {"time": 120131, "pitch": 64, "duration": 129, "velocity": 95}, {"time": 120141, "pitch": 55, "duration": 100, "velocity": 85}, {"time": 120241, "pitch": 55, "duration": 139, "velocity": 95}, {"time": 120251, "pitch": 60, "duration": 119, "velocity": 100}, {"time": 120260, "pitch": 64, "duration": 100, "velocity": 105}, {"time": 120260, "pitch": 67, "duration": 100, "velocity": 110}, {"time": 120360, "pitch": 67, "duration": 99, "velocity": 90}, {"time": 120370, "pitch": 60, "duration": 89, "velocity": 80}, {"time": 120370, "pitch": 64, "duration": 89, "velocity": 85}, {"time": 120380, "pitch": 55, "duration": 79, "velocity": 75}, {"time": 120479, "pitch": 50, "duration": 239, "velocity": 95}, {"time": 120489, "pitch": 55, "duration": 239, "velocity": 100}, {"time": 120499, "pitch": 59, "duration": 239, "velocity": 105}, {"time": 120509, "pitch": 67, "duration": 229, "velocity": 110}, {"time": 120718, "pitch": 50, "duration": 139, "velocity": 85}, {"time": 120728, "pitch": 55, "duration": 120, "velocity": 90}, {"time": 120738, "pitch": 59, "duration": 110, "velocity": 95}, {"time": 120738, "pitch": 67, "duration": 100, "velocity": 100}, {"time": 120838, "pitch": 67, "duration": 240, "velocity": 110}, {"time": 120848, "pitch": 55, "duration": 240, "velocity": 100}, {"time": 120848, "pitch": 59, "duration": 240, "velocity": 105}, {"time": 120857, "pitch": 50, "duration": 241, "velocity": 95}, {"time": 121078, "pitch": 67, "duration": 142, "velocity": 100}, {"time": 121088, "pitch": 55, "duration": 121, "velocity": 90}, {"time": 121088, "pitch": 59, "duration": 132, "velocity": 95}, {"time": 121098, "pitch": 50, "duration": 101, "velocity": 85}, {"time": 121199, "pitch": 50, "duration": 142, "velocity": 95}, {"time": 121209, "pitch": 55, "duration": 122, "velocity": 100}, {"time": 121220, "pitch": 59, "duration": 101, "velocity": 105}, {"time": 121220, "pitch": 67, "duration": 101, "velocity": 110}, {"time": 121321, "pitch": 67, "duration": 101, "velocity": 90}, {"time": 121331, "pitch": 55, "duration": 91, "velocity": 80}, {"time": 121331, "pitch": 59, "duration": 91, "velocity": 85}, {"time": 121341, "pitch": 50, "duration": 81, "velocity": 75}, {"time": 121442, "pitch": 52, "duration": 378, "velocity": 95}, {"time": 121452, "pitch": 57, "duration": 358, "velocity": 100}, {"time": 121462, "pitch": 60, "duration": 348, "velocity": 105}, {"time": 121472, "pitch": 64, "duration": 328, "velocity": 110}, {"time": 121800, "pitch": 64, "duration": 239, "velocity": 110}, {"time": 121810, "pitch": 57, "duration": 239, "velocity": 100}, {"time": 121810, "pitch": 60, "duration": 239, "velocity": 105}, {"time": 121820, "pitch": 52, "duration": 239, "velocity": 95}, {"time": 122039, "pitch": 64, "duration": 139, "velocity": 100}, {"time": 122049, "pitch": 57, "duration": 119, "velocity": 90}, {"time": 122049, "pitch": 60, "duration": 129, "velocity": 95}, {"time": 122059, "pitch": 52, "duration": 99, "velocity": 85}, {"time": 122158, "pitch": 52, "duration": 139, "velocity": 95}, {"time": 122168, "pitch": 57, "duration": 119, "velocity": 100}, {"time": 122178, "pitch": 60, "duration": 100, "velocity": 105}, {"time": 122178, "pitch": 64, "duration": 100, "velocity": 110}, {"time": 122278, "pitch": 64, "duration": 99, "velocity": 90}, {"time": 122287, "pitch": 57, "duration": 90, "velocity": 80}, {"time": 122287, "pitch": 60, "duration": 90, "velocity": 85}, {"time": 122297, "pitch": 52, "duration": 80, "velocity": 75}, {"time": 122397, "pitch": 45, "duration": 262, "velocity": 105}, {"time": 122407, "pitch": 57, "duration": 242, "velocity": 100}, {"time": 122417, "pitch": 60, "duration": 232, "velocity": 105}, {"time": 122427, "pitch": 64, "duration": 212, "velocity": 110}, {"time": 122639, "pitch": 64, "duration": 243, "velocity": 105}, {"time": 122649, "pitch": 57, "duration": 243, "velocity": 105}, {"time": 122649, "pitch": 60, "duration": 243, "velocity": 100}, {"time": 122659, "pitch": 45, "duration": 223, "velocity": 90}, {"time": 122882, "pitch": 47, "duration": 238, "velocity": 105}, {"time": 122892, "pitch": 57, "duration": 238, "velocity": 100}, {"time": 122902, "pitch": 60, "duration": 238, "velocity": 105}, {"time": 122902, "pitch": 64, "duration": 238, "velocity": 110}, {"time": 123120, "pitch": 48, "duration": 219, "velocity": 105}, {"time": 123130, "pitch": 57, "duration": 209, "velocity": 100}, {"time": 123140, "pitch": 60, "duration": 199, "velocity": 105}, {"time": 123140, "pitch": 64, "duration": 199, "velocity": 110}, {"time": 123359, "pitch": 50, "duration": 378, "velocity": 95}, {"time": 123369, "pitch": 57, "duration": 358, "velocity": 100}, {"time": 123379, "pitch": 62, "duration": 348, "velocity": 105}, {"time": 123389, "pitch": 66, "duration": 328, "velocity": 110}, {"time": 123717, "pitch": 66, "duration": 241, "velocity": 110}, {"time": 123727, "pitch": 57, "duration": 241, "velocity": 100}, {"time": 123727, "pitch": 62, "duration": 241, "velocity": 105}, {"time": 123737, "pitch": 50, "duration": 241, "velocity": 95}, {"time": 123958, "pitch": 66, "duration": 141, "velocity": 100}, {"time": 123968, "pitch": 57, "duration": 121, "velocity": 90}, {"time": 123968, "pitch": 62, "duration": 131, "velocity": 95}, {"time": 123978, "pitch": 50, "duration": 101, "velocity": 85}, {"time": 124079, "pitch": 50, "duration": 142, "velocity": 95}, {"time": 124089, "pitch": 57, "duration": 122, "velocity": 100}, {"time": 124099, "pitch": 62, "duration": 101, "velocity": 105}, {"time": 124099, "pitch": 66, "duration": 101, "velocity": 110}, {"time": 124200, "pitch": 66, "duration": 101, "velocity": 90}, {"time": 124211, "pitch": 57, "duration": 90, "velocity": 80}, {"time": 124211, "pitch": 62, "duration": 90, "velocity": 85}, {"time": 124221, "pitch": 50, "duration": 80, "velocity": 75}, {"time": 124322, "pitch": 51, "duration": 378, "velocity": 95}, {"time": 124332, "pitch": 57, "duration": 358, "velocity": 100}, {"time": 124342, "pitch": 60, "duration": 348, "velocity": 105}, {"time": 124351, "pitch": 66, "duration": 329, "velocity": 110}, {"time": 124680, "pitch": 66, "duration": 239, "velocity": 110}, {"time": 124690, "pitch": 57, "duration": 239, "velocity": 100}, {"time": 124690, "pitch": 60, "duration": 239, "velocity": 105}, {"time": 124700, "pitch": 51, "duration": 239, "velocity": 95}, {"time": 124919, "pitch": 66, "duration": 139, "velocity": 100}, {"time": 124929, "pitch": 57, "duration": 119, "velocity": 90}, {"time": 124929, "pitch": 60, "duration": 129, "velocity": 95}, {"time": 124939, "pitch": 51, "duration": 99, "velocity": 85}, {"time": 125038, "pitch": 51, "duration": 139, "velocity": 95}, {"time": 125048, "pitch": 57, "duration": 119, "velocity": 100}, {"time": 125058, "pitch": 60, "duration": 99, "velocity": 105}, {"time": 125058, "pitch": 66, "duration": 99, "velocity": 110}, {"time": 125157, "pitch": 66, "duration": 100, "velocity": 90}, {"time": 125167, "pitch": 57, "duration": 90, "velocity": 80}, {"time": 125167, "pitch": 60, "duration": 90, "velocity": 85}, {"time": 125177, "pitch": 51, "duration": 80, "velocity": 75}, {"time": 125277, "pitch": 40, "duration": 384, "velocity": 95}, {"time": 125287, "pitch": 55, "duration": 364, "velocity": 100}, {"time": 125297, "pitch": 59, "duration": 354, "velocity": 105}, {"time": 125307, "pitch": 64, "duration": 333, "velocity": 110}, {"time": 125640, "pitch": 64, "duration": 241, "velocity": 110}, {"time": 125651, "pitch": 55, "duration": 240, "velocity": 100}, {"time": 125651, "pitch": 59, "duration": 240, "velocity": 105}, {"time": 125661, "pitch": 52, "duration": 240, "velocity": 95}, {"time": 125881, "pitch": 64, "duration": 139, "velocity": 100}, {"time": 125891, "pitch": 55, "duration": 119, "velocity": 90}, {"time": 125891, "pitch": 59, "duration": 129, "velocity": 95}, {"time": 125901, "pitch": 52, "duration": 99, "velocity": 85}, {"time": 126000, "pitch": 52, "duration": 140, "velocity": 95}, {"time": 126010, "pitch": 55, "duration": 120, "velocity": 100}, {"time": 126020, "pitch": 59, "duration": 100, "velocity": 105}, {"time": 126020, "pitch": 64, "duration": 100, "velocity": 110}, {"time": 126120, "pitch": 64, "duration": 99, "velocity": 90}, {"time": 126130, "pitch": 55, "duration": 89, "velocity": 80}, {"time": 126130, "pitch": 59, "duration": 89, "velocity": 85}, {"time": 126140, "pitch": 52, "duration": 79, "velocity": 75}, {"time": 126239, "pitch": 45, "duration": 378, "velocity": 95}, {"time": 126249, "pitch": 55, "duration": 358, "velocity": 100}, {"time": 126259, "pitch": 61, "duration": 348, "velocity": 105}, {"time": 126269, "pitch": 64, "duration": 328, "velocity": 110}, {"time": 126597, "pitch": 64, "duration": 241, "velocity": 110}, {"time": 126607, "pitch": 55, "duration": 241, "velocity": 100}, {"time": 126607, "pitch": 61, "duration": 241, "velocity": 105}, {"time": 126617, "pitch": 52, "duration": 241, "velocity": 95}, {"time": 126838, "pitch": 64, "duration": 141, "velocity": 100}, {"time": 126848, "pitch": 55, "duration": 121, "velocity": 90}, {"time": 126848, "pitch": 61, "duration": 131, "velocity": 95}, {"time": 126858, "pitch": 52, "duration": 101, "velocity": 85}, {"time": 126959, "pitch": 52, "duration": 142, "velocity": 95}, {"time": 126969, "pitch": 55, "duration": 121, "velocity": 100}, {"time": 126979, "pitch": 61, "duration": 101, "velocity": 105}, {"time": 126979, "pitch": 64, "duration": 101, "velocity": 110}, {"time": 127080, "pitch": 64, "duration": 101, "velocity": 90}, {"time": 127090, "pitch": 55, "duration": 91, "velocity": 80}, {"time": 127090, "pitch": 61, "duration": 91, "velocity": 85}, {"time": 127101, "pitch": 52, "duration": 80, "velocity": 75}, {"time": 127202, "pitch": 45, "duration": 378, "velocity": 95}, {"time": 127212, "pitch": 57, "duration": 358, "velocity": 100}, {"time": 127221, "pitch": 60, "duration": 349, "velocity": 105}, {"time": 127231, "pitch": 64, "duration": 329, "velocity": 110}, {"time": 127560, "pitch": 64, "duration": 239, "velocity": 110}, {"time": 127570, "pitch": 57, "duration": 239, "velocity": 100}, {"time": 127570, "pitch": 60, "duration": 239, "velocity": 105}, {"time": 127580, "pitch": 52, "duration": 238, "velocity": 95}, {"time": 127799, "pitch": 64, "duration": 139, "velocity": 100}, {"time": 127809, "pitch": 57, "duration": 119, "velocity": 90}, {"time": 127809, "pitch": 60, "duration": 129, "velocity": 95}, {"time": 127818, "pitch": 52, "duration": 100, "velocity": 85}, {"time": 127918, "pitch": 52, "duration": 139, "velocity": 95}, {"time": 127928, "pitch": 57, "duration": 119, "velocity": 100}, {"time": 127938, "pitch": 60, "duration": 99, "velocity": 105}, {"time": 127938, "pitch": 64, "duration": 99, "velocity": 110}, {"time": 128037, "pitch": 64, "duration": 100, "velocity": 90}, {"time": 128047, "pitch": 57, "duration": 90, "velocity": 80}, {"time": 128047, "pitch": 60, "duration": 90, "velocity": 85}, {"time": 128057, "pitch": 52, "duration": 80, "velocity": 75}, {"time": 128157, "pitch": 50, "duration": 384, "velocity": 95}, {"time": 128167, "pitch": 57, "duration": 363, "velocity": 100}, {"time": 128177, "pitch": 62, "duration": 353, "velocity": 105}, {"time": 128187, "pitch": 67, "duration": 333, "velocity": 110}, {"time": 128520, "pitch": 66, "duration": 241, "velocity": 110}, {"time": 128530, "pitch": 57, "duration": 241, "velocity": 100}, {"time": 128530, "pitch": 62, "duration": 241, "velocity": 105}, {"time": 128541, "pitch": 50, "duration": 240, "velocity": 95}, {"time": 128761, "pitch": 66, "duration": 139, "velocity": 100}, {"time": 128771, "pitch": 57, "duration": 119, "velocity": 90}, {"time": 128771, "pitch": 62, "duration": 129, "velocity": 95}, {"time": 128781, "pitch": 50, "duration": 99, "velocity": 85}, {"time": 128880, "pitch": 50, "duration": 140, "velocity": 95}, {"time": 128890, "pitch": 57, "duration": 120, "velocity": 100}, {"time": 128900, "pitch": 62, "duration": 100, "velocity": 105}, {"time": 128900, "pitch": 66, "duration": 100, "velocity": 110}, {"time": 129000, "pitch": 66, "duration": 99, "velocity": 90}, {"time": 129010, "pitch": 57, "duration": 89, "velocity": 80}, {"time": 129010, "pitch": 62, "duration": 89, "velocity": 85}, {"time": 129020, "pitch": 50, "duration": 79, "velocity": 75}, {"time": 129119, "pitch": 52, "duration": 378, "velocity": 95}, {"time": 129129, "pitch": 55, "duration": 358, "velocity": 100}, {"time": 129139, "pitch": 59, "duration": 348, "velocity": 105}, {"time": 129149, "pitch": 67, "duration": 328, "velocity": 110}, {"time": 129477, "pitch": 67, "duration": 241, "velocity": 110}, {"time": 129487, "pitch": 55, "duration": 241, "velocity": 100}, {"time": 129487, "pitch": 59, "duration": 241, "velocity": 105}, {"time": 129497, "pitch": 52, "duration": 241, "velocity": 95}, {"time": 129718, "pitch": 67, "duration": 141, "velocity": 100}, {"time": 129728, "pitch": 55, "duration": 121, "velocity": 90}, {"time": 129728, "pitch": 59, "duration": 131, "velocity": 95}, {"time": 129738, "pitch": 52, "duration": 101, "velocity": 85}, {"time": 129839, "pitch": 52, "duration": 142, "velocity": 95}, {"time": 129849, "pitch": 55, "duration": 121, "velocity": 100}, {"time": 129859, "pitch": 59, "duration": 101, "velocity": 105}, {"time": 129859, "pitch": 67, "duration": 101, "velocity": 110}, {"time": 129960, "pitch": 67, "duration": 101, "velocity": 90}, {"time": 129970, "pitch": 55, "duration": 91, "velocity": 80}, {"time": 129970, "pitch": 59, "duration": 91, "velocity": 85}, {"time": 129981, "pitch": 52, "duration": 80, "velocity": 75}, {"time": 130082, "pitch": 52, "duration": 378, "velocity": 95}, {"time": 130091, "pitch": 55, "duration": 359, "velocity": 100}, {"time": 130101, "pitch": 59, "duration": 349, "velocity": 105}, {"time": 130111, "pitch": 67, "duration": 329, "velocity": 110}, {"time": 130440, "pitch": 67, "duration": 239, "velocity": 110}, {"time": 130450, "pitch": 55, "duration": 238, "velocity": 100}, {"time": 130450, "pitch": 59, "duration": 238, "velocity": 105}, {"time": 130460, "pitch": 52, "duration": 238, "velocity": 95}, {"time": 130679, "pitch": 67, "duration": 139, "velocity": 100}, {"time": 130688, "pitch": 55, "duration": 120, "velocity": 90}, {"time": 130688, "pitch": 59, "duration": 130, "velocity": 95}, {"time": 130698, "pitch": 52, "duration": 100, "velocity": 85}, {"time": 130798, "pitch": 52, "duration": 139, "velocity": 95}, {"time": 130808, "pitch": 55, "duration": 119, "velocity": 100}, {"time": 130818, "pitch": 59, "duration": 99, "velocity": 105}, {"time": 130818, "pitch": 67, "duration": 99, "velocity": 110}, {"time": 130917, "pitch": 67, "duration": 100, "velocity": 90}, {"time": 130927, "pitch": 55, "duration": 90, "velocity": 80}, {"time": 130927, "pitch": 59, "duration": 90, "velocity": 85}, {"time": 130937, "pitch": 52, "duration": 80, "velocity": 75}, {"time": 131037, "pitch": 45, "duration": 942, "velocity": 105}, {"time": 131047, "pitch": 57, "duration": 932, "velocity": 100}, {"time": 131057, "pitch": 60, "duration": 922, "velocity": 105}, {"time": 131067, "pitch": 64, "duration": 912, "velocity": 110}, {"time": 131999, "pitch": 50, "duration": 478, "velocity": 105}, {"time": 132009, "pitch": 57, "duration": 468, "velocity": 100}, {"time": 132019, "pitch": 62, "duration": 458, "velocity": 105}, {"time": 132029, "pitch": 67, "duration": 448, "velocity": 110}, {"time": 132477, "pitch": 50, "duration": 464, "velocity": 95}, {"time": 132487, "pitch": 57, "duration": 454, "velocity": 90}, {"time": 132497, "pitch": 62, "duration": 444, "velocity": 95}, {"time": 132507, "pitch": 66, "duration": 434, "velocity": 100}, {"time": 132961, "pitch": 50, "duration": 239, "velocity": 95}, {"time": 132971, "pitch": 55, "duration": 239, "velocity": 100}, {"time": 132981, "pitch": 59, "duration": 239, "velocity": 105}, {"time": 132991, "pitch": 67, "duration": 229, "velocity": 110}, {"time": 133200, "pitch": 50, "duration": 140, "velocity": 85}, {"time": 133210, "pitch": 55, "duration": 120, "velocity": 90}, {"time": 133220, "pitch": 59, "duration": 110, "velocity": 95}, {"time": 133220, "pitch": 67, "duration": 100, "velocity": 100}, {"time": 133320, "pitch": 67, "duration": 238, "velocity": 110}, {"time": 133330, "pitch": 55, "duration": 238, "velocity": 100}, {"time": 133330, "pitch": 59, "duration": 238, "velocity": 105}, {"time": 133340, "pitch": 50, "duration": 238, "velocity": 95}, {"time": 133558, "pitch": 67, "duration": 140, "velocity": 100}, {"time": 133568, "pitch": 55, "duration": 120, "velocity": 90}, {"time": 133568, "pitch": 59, "duration": 130, "velocity": 95}, {"time": 133578, "pitch": 50, "duration": 100, "velocity": 85}, {"time": 133678, "pitch": 50, "duration": 139, "velocity": 95}, {"time": 133688, "pitch": 55, "duration": 119, "velocity": 100}, {"time": 133698, "pitch": 59, "duration": 99, "velocity": 105}, {"time": 133698, "pitch": 67, "duration": 99, "velocity": 110}, {"time": 133797, "pitch": 67, "duration": 100, "velocity": 90}, {"time": 133807, "pitch": 55, "duration": 90, "velocity": 80}, {"time": 133807, "pitch": 59, "duration": 90, "velocity": 85}, {"time": 133817, "pitch": 50, "duration": 80, "velocity": 75}, {"time": 133917, "pitch": 50, "duration": 383, "velocity": 95}, {"time": 133927, "pitch": 57, "duration": 363, "velocity": 100}, {"time": 133937, "pitch": 62, "duration": 353, "velocity": 105}, {"time": 133947, "pitch": 66, "duration": 333, "velocity": 110}, {"time": 134280, "pitch": 66, "duration": 241, "velocity": 110}, {"time": 134290, "pitch": 57, "duration": 241, "velocity": 100}, {"time": 134290, "pitch": 62, "duration": 241, "velocity": 105}, {"time": 134300, "pitch": 50, "duration": 241, "velocity": 95}, {"time": 134521, "pitch": 66, "duration": 139, "velocity": 100}, {"time": 134531, "pitch": 57, "duration": 119, "velocity": 90}, {"time": 134531, "pitch": 62, "duration": 129, "velocity": 95}, {"time": 134541, "pitch": 50, "duration": 99, "velocity": 85}, {"time": 134640, "pitch": 50, "duration": 139, "velocity": 95}, {"time": 134650, "pitch": 57, "duration": 120, "velocity": 100}, {"time": 134660, "pitch": 62, "duration": 100, "velocity": 105}, {"time": 134660, "pitch": 66, "duration": 100, "velocity": 110}, {"time": 134760, "pitch": 66, "duration": 99, "velocity": 90}, {"time": 134770, "pitch": 57, "duration": 89, "velocity": 80}, {"time": 134770, "pitch": 62, "duration": 89, "velocity": 85}, {"time": 134779, "pitch": 50, "duration": 80, "velocity": 75}, {"time": 134879, "pitch": 40, "duration": 378, "velocity": 95}, {"time": 134889, "pitch": 55, "duration": 358, "velocity": 100}, {"time": 134899, "pitch": 59, "duration": 348, "velocity": 105}, {"time": 134909, "pitch": 64, "duration": 328, "velocity": 110}, {"time": 135237, "pitch": 67, "duration": 241, "velocity": 110}, {"time": 135247, "pitch": 55, "duration": 241, "velocity": 100}, {"time": 135247, "pitch": 59, "duration": 241, "velocity": 105}, {"time": 135257, "pitch": 52, "duration": 241, "velocity": 95}, {"time": 135478, "pitch": 67, "duration": 141, "velocity": 100}, {"time": 135488, "pitch": 55, "duration": 121, "velocity": 90}, {"time": 135488, "pitch": 59, "duration": 131, "velocity": 95}, {"time": 135498, "pitch": 52, "duration": 101, "velocity": 85}, {"time": 135599, "pitch": 52, "duration": 141, "velocity": 95}, {"time": 135609, "pitch": 55, "duration": 121, "velocity": 100}, {"time": 135619, "pitch": 59, "duration": 101, "velocity": 105}, {"time": 135619, "pitch": 67, "duration": 101, "velocity": 110}, {"time": 135720, "pitch": 67, "duration": 101, "velocity": 90}, {"time": 135730, "pitch": 55, "duration": 91, "velocity": 80}, {"time": 135730, "pitch": 59, "duration": 91, "velocity": 85}, {"time": 135740, "pitch": 52, "duration": 81, "velocity": 75}, {"time": 135841, "pitch": 50, "duration": 378, "velocity": 95}, {"time": 135851, "pitch": 57, "duration": 359, "velocity": 100}, {"time": 135861, "pitch": 62, "duration": 349, "velocity": 105}, {"time": 135871, "pitch": 66, "duration": 329, "velocity": 110}, {"time": 136200, "pitch": 66, "duration": 238, "velocity": 110}, {"time": 136210, "pitch": 57, "duration": 238, "velocity": 100}, {"time": 136210, "pitch": 62, "duration": 238, "velocity": 105}, {"time": 136219, "pitch": 50, "duration": 239, "velocity": 95}, {"time": 136438, "pitch": 66, "duration": 140, "velocity": 100}, {"time": 136448, "pitch": 57, "duration": 120, "velocity": 90}, {"time": 136448, "pitch": 62, "duration": 130, "velocity": 95}, {"time": 136458, "pitch": 50, "duration": 100, "velocity": 85}, {"time": 136558, "pitch": 50, "duration": 139, "velocity": 95}, {"time": 136568, "pitch": 57, "duration": 119, "velocity": 100}, {"time": 136578, "pitch": 62, "duration": 99, "velocity": 105}, {"time": 136578, "pitch": 66, "duration": 99, "velocity": 110}, {"time": 136677, "pitch": 66, "duration": 100, "velocity": 90}, {"time": 136687, "pitch": 57, "duration": 90, "velocity": 80}, {"time": 136687, "pitch": 62, "duration": 90, "velocity": 85}, {"time": 136697, "pitch": 50, "duration": 80, "velocity": 75}, {"time": 136797, "pitch": 48, "duration": 383, "velocity": 95}, {"time": 136807, "pitch": 55, "duration": 363, "velocity": 100}, {"time": 136817, "pitch": 60, "duration": 353, "velocity": 105}, {"time": 136827, "pitch": 64, "duration": 333, "velocity": 110}, {"time": 137160, "pitch": 67, "duration": 246, "velocity": 110}, {"time": 137170, "pitch": 60, "duration": 247, "velocity": 100}, {"time": 137170, "pitch": 64, "duration": 247, "velocity": 105}, {"time": 137180, "pitch": 55, "duration": 247, "velocity": 95}, {"time": 137406, "pitch": 67, "duration": 146, "velocity": 100}, {"time": 137417, "pitch": 60, "duration": 125, "velocity": 90}, {"time": 137417, "pitch": 64, "duration": 135, "velocity": 95}, {"time": 137427, "pitch": 55, "duration": 104, "velocity": 85}, {"time": 137531, "pitch": 55, "duration": 146, "velocity": 95}, {"time": 137542, "pitch": 60, "duration": 125, "velocity": 100}, {"time": 137552, "pitch": 64, "duration": 104, "velocity": 105}, {"time": 137552, "pitch": 67, "duration": 104, "velocity": 110}, {"time": 137656, "pitch": 67, "duration": 105, "velocity": 90}, {"time": 137667, "pitch": 60, "duration": 94, "velocity": 80}, {"time": 137667, "pitch": 64, "duration": 94, "velocity": 85}, {"time": 137677, "pitch": 55, "duration": 84, "velocity": 75}, {"time": 137782, "pitch": 50, "duration": 254, "velocity": 95}, {"time": 137792, "pitch": 57, "duration": 254, "velocity": 100}, {"time": 137803, "pitch": 62, "duration": 254, "velocity": 105}, {"time": 137813, "pitch": 67, "duration": 244, "velocity": 110}, {"time": 138036, "pitch": 50, "duration": 148, "velocity": 85}, {"time": 138046, "pitch": 57, "duration": 127, "velocity": 90}, {"time": 138057, "pitch": 62, "duration": 116, "velocity": 95}, {"time": 138057, "pitch": 67, "duration": 106, "velocity": 100}, {"time": 138163, "pitch": 66, "duration": 251, "velocity": 110}, {"time": 138173, "pitch": 57, "duration": 251, "velocity": 100}, {"time": 138173, "pitch": 62, "duration": 251, "velocity": 105}, {"time": 138184, "pitch": 50, "duration": 251, "velocity": 95}, {"time": 138414, "pitch": 66, "duration": 146, "velocity": 100}, {"time": 138424, "pitch": 57, "duration": 125, "velocity": 90}, {"time": 138424, "pitch": 62, "duration": 136, "velocity": 95}, {"time": 138435, "pitch": 50, "duration": 104, "velocity": 85}, {"time": 138539, "pitch": 50, "duration": 146, "velocity": 95}, {"time": 138549, "pitch": 57, "duration": 125, "velocity": 100}, {"time": 138560, "pitch": 62, "duration": 104, "velocity": 105}, {"time": 138560, "pitch": 66, "duration": 104, "velocity": 110}, {"time": 138664, "pitch": 66, "duration": 104, "velocity": 90}, {"time": 138674, "pitch": 57, "duration": 94, "velocity": 80}, {"time": 138674, "pitch": 62, "duration": 94, "velocity": 85}, {"time": 138685, "pitch": 50, "duration": 83, "velocity": 75}, {"time": 138789, "pitch": 50, "duration": 396, "velocity": 95}, {"time": 138799, "pitch": 55, "duration": 375, "velocity": 100}, {"time": 138810, "pitch": 59, "duration": 364, "velocity": 105}, {"time": 138820, "pitch": 67, "duration": 344, "velocity": 110}, {"time": 139164, "pitch": 67, "duration": 250, "velocity": 110}, {"time": 139174, "pitch": 55, "duration": 250, "velocity": 100}, {"time": 139174, "pitch": 59, "duration": 250, "velocity": 105}, {"time": 139185, "pitch": 50, "duration": 250, "velocity": 95}, {"time": 139414, "pitch": 67, "duration": 146, "velocity": 100}, {"time": 139424, "pitch": 55, "duration": 125, "velocity": 90}, {"time": 139424, "pitch": 59, "duration": 136, "velocity": 95}, {"time": 139435, "pitch": 50, "duration": 104, "velocity": 85}, {"time": 139539, "pitch": 50, "duration": 146, "velocity": 95}, {"time": 139549, "pitch": 55, "duration": 125, "velocity": 100}, {"time": 139560, "pitch": 59, "duration": 104, "velocity": 105}, {"time": 139560, "pitch": 67, "duration": 104, "velocity": 110}, {"time": 139664, "pitch": 67, "duration": 104, "velocity": 90}, {"time": 139674, "pitch": 55, "duration": 94, "velocity": 80}, {"time": 139674, "pitch": 59, "duration": 94, "velocity": 85}, {"time": 139685, "pitch": 50, "duration": 83, "velocity": 75}, {"time": 139789, "pitch": 43, "duration": 986, "velocity": 95}, {"time": 139799, "pitch": 59, "duration": 976, "velocity": 100}, {"time": 139810, "pitch": 62, "duration": 965, "velocity": 105}, {"time": 139820, "pitch": 67, "duration": 955, "velocity": 110}], "annotations": [{"time": 139, "annotation": {"number": 7, "value": 90}, "group": "control_change"}, {"time": 139, "annotation": {"number": 10, "value": 1}, "group": "control_change"}, {"time": 139, "annotation": {"number": 11, "value": 100}, "group": "control_change"}, {"time": 151, "annotation": {"number": 91, "value": 60}, "group": "control_change"}, {"time": 151, "annotation": {"number": 93, "value": 0}, "group": "control_change"}, {"time": 302, "annotation": {"number": 101, "value": 0}, "group": "control_change"}, {"time": 315, "annotation": {"number": 100, "value": 0}, "group": "control_change"}, {"time": 327, "annotation": {"number": 6, "value": 12}, "group": "control_change"}, {"time": 340, "annotation": {"number": 1, "value": 0}, "group": "control_change"}, {"time": 340, "annotation": {"number": 64, "value": 0}, "group": "control_change"}]}, {"program": 0, "is_drum": false, "name": "Guitar R", "annotations": [{"time": 164, "annotation": {"number": 0, "value": 0}, "group": "control_change"}, {"time": 164, "annotation": {"number": 32, "value": 2}, "group": "control_change"}]}, {"program": 25, "is_drum": false, "name": "Guitar R", "notes": [{"time": 478, "pitch": 43, "duration": 962, "velocity": 100}, {"time": 720, "pitch": 55, "duration": 481, "velocity": 100}, {"time": 841, "pitch": 67, "duration": 599, "velocity": 110}, {"time": 1082, "pitch": 62, "duration": 358, "velocity": 105}, {"time": 1201, "pitch": 55, "duration": 239, "velocity": 100}, {"time": 1440, "pitch": 42, "duration": 962, "velocity": 100}, {"time": 1679, "pitch": 57, "duration": 481, "velocity": 100}, {"time": 1798, "pitch": 66, "duration": 604, "velocity": 110}, {"time": 2039, "pitch": 62, "duration": 363, "velocity": 105}, {"time": 2160, "pitch": 57, "duration": 242, "velocity": 100}, {"time": 2402, "pitch": 40, "duration": 955, "velocity": 100}, {"time": 2641, "pitch": 55, "duration": 478, "velocity": 100}, {"time": 2760, "pitch": 67, "duration": 597, "velocity": 110}, {"time": 2999, "pitch": 62, "duration": 358, "velocity": 105}, {"time": 3119, "pitch": 55, "duration": 238, "velocity": 100}, {"time": 3357, "pitch": 50, "duration": 963, "velocity": 100}, {"time": 3600, "pitch": 57, "duration": 481, "velocity": 100}, {"time": 3962, "pitch": 62, "duration": 358, "velocity": 105}, {"time": 4081, "pitch": 57, "duration": 239, "velocity": 100}, {"time": 4320, "pitch": 48, "duration": 962, "velocity": 100}, {"time": 4559, "pitch": 55, "duration": 481, "velocity": 100}, {"time": 4678, "pitch": 67, "duration": 604, "velocity": 110}, {"time": 4919, "pitch": 60, "duration": 363, "velocity": 105}, {"time": 5040, "pitch": 55, "duration": 242, "velocity": 100}, {"time": 5282, "pitch": 50, "duration": 955, "velocity": 110}, {"time": 5282, "pitch": 67, "duration": 478, "velocity": 100}, {"time": 5521, "pitch": 55, "duration": 119, "velocity": 90}, {"time": 5640, "pitch": 66, "duration": 597, "velocity": 110}, {"time": 5879, "pitch": 62, "duration": 358, "velocity": 105}, {"time": 5999, "pitch": 57, "duration": 238, "velocity": 100}, {"time": 6237, "pitch": 43, "duration": 963, "velocity": 100}, {"time": 6480, "pitch": 55, "duration": 481, "velocity": 100}, {"time": 6601, "pitch": 67, "duration": 599, "velocity": 110}, {"time": 6842, "pitch": 62, "duration": 358, "velocity": 105}, {"time": 6961, "pitch": 55, "duration": 239, "velocity": 100}, {"time": 7200, "pitch": 50, "duration": 962, "velocity": 100}, {"time": 7439, "pitch": 57, "duration": 481, "velocity": 100}, {"time": 7677, "pitch": 62, "duration": 485, "velocity": 100}, {"time": 7677, "pitch": 66, "duration": 485, "velocity": 110}, {"time": 7920, "pitch": 57, "duration": 242, "velocity": 80}, {"time": 8162, "pitch": 43, "duration": 955, "velocity": 100}, {"time": 8401, "pitch": 55, "duration": 478, "velocity": 100}, {"time": 8520, "pitch": 67, "duration": 597, "velocity": 110}, {"time": 8759, "pitch": 62, "duration": 358, "velocity": 105}, {"time": 8879, "pitch": 55, "duration": 238, "velocity": 100}, {"time": 9117, "pitch": 42, "duration": 963, "velocity": 100}, {"time": 9360, "pitch": 57, "duration": 481, "velocity": 100}, {"time": 9481, "pitch": 66, "duration": 599, "velocity": 110}, {"time": 9722, "pitch": 62, "duration": 358, "velocity": 105}, {"time": 9841, "pitch": 57, "duration": 239, "velocity": 100}, {"time": 10080, "pitch": 40, "duration": 962, "velocity": 100}, {"time": 10319, "pitch": 55, "duration": 481, "velocity": 100}, {"time": 10438, "pitch": 67, "duration": 962, "velocity": 110}, {"time": 10678, "pitch": 64, "duration": 961, "velocity": 105}, {"time": 10800, "pitch": 55, "duration": 481, "velocity": 100}, {"time": 11042, "pitch": 40, "duration": 955, "velocity": 100}, {"time": 11281, "pitch": 55, "duration": 477, "velocity": 100}, {"time": 11400, "pitch": 67, "duration": 597, "velocity": 110}, {"time": 11639, "pitch": 64, "duration": 358, "velocity": 105}, {"time": 11758, "pitch": 55, "duration": 239, "velocity": 100}, {"time": 11997, "pitch": 48, "duration": 963, "velocity": 100}, {"time": 12240, "pitch": 55, "duration": 481, "velocity": 100}, {"time": 12361, "pitch": 67, "duration": 599, "velocity": 110}, {"time": 12601, "pitch": 60, "duration": 359, "velocity": 105}, {"time": 12721, "pitch": 55, "duration": 239, "velocity": 100}, {"time": 12960, "pitch": 47, "duration": 962, "velocity": 100}, {"time": 13198, "pitch": 55, "duration": 482, "velocity": 100}, {"time": 13318, "pitch": 67, "duration": 604, "velocity": 110}, {"time": 13558, "pitch": 62, "duration": 364, "velocity": 105}, {"time": 13680, "pitch": 55, "duration": 242, "velocity": 100}, {"time": 13922, "pitch": 45, "duration": 955, "velocity": 100}, {"time": 14161, "pitch": 57, "duration": 477, "velocity": 100}, {"time": 14280, "pitch": 64, "duration": 840, "velocity": 110}, {"time": 14519, "pitch": 60, "duration": 479, "velocity": 105}, {"time": 14638, "pitch": 57, "duration": 1202, "velocity": 100}, {"time": 14877, "pitch": 45, "duration": 485, "velocity": 100}, {"time": 15120, "pitch": 60, "duration": 720, "velocity": 95}, {"time": 15120, "pitch": 64, "duration": 720, "velocity": 100}, {"time": 15362, "pitch": 47, "duration": 239, "velocity": 105}, {"time": 15601, "pitch": 48, "duration": 239, "velocity": 100}, {"time": 15840, "pitch": 50, "duration": 962, "velocity": 100}, {"time": 16078, "pitch": 57, "duration": 482, "velocity": 100}, {"time": 16198, "pitch": 66, "duration": 604, "velocity": 110}, {"time": 16438, "pitch": 62, "duration": 364, "velocity": 105}, {"time": 16560, "pitch": 57, "duration": 242, "velocity": 100}, {"time": 16802, "pitch": 51, "duration": 955, "velocity": 100}, {"time": 17041, "pitch": 57, "duration": 477, "velocity": 100}, {"time": 17160, "pitch": 66, "duration": 597, "velocity": 110}, {"time": 17399, "pitch": 60, "duration": 358, "velocity": 105}, {"time": 17518, "pitch": 57, "duration": 239, "velocity": 100}, {"time": 17757, "pitch": 40, "duration": 962, "velocity": 100}, {"time": 18000, "pitch": 55, "duration": 481, "velocity": 100}, {"time": 18121, "pitch": 67, "duration": 598, "velocity": 110}, {"time": 18361, "pitch": 64, "duration": 358, "velocity": 105}, {"time": 18481, "pitch": 55, "duration": 238, "velocity": 100}, {"time": 18719, "pitch": 45, "duration": 963, "velocity": 100}, {"time": 18958, "pitch": 55, "duration": 481, "velocity": 100}, {"time": 19078, "pitch": 64, "duration": 604, "velocity": 110}, {"time": 19318, "pitch": 61, "duration": 364, "velocity": 105}, {"time": 19439, "pitch": 55, "duration": 243, "velocity": 100}, {"time": 19682, "pitch": 45, "duration": 955, "velocity": 100}, {"time": 19921, "pitch": 55, "duration": 477, "velocity": 100}, {"time": 20040, "pitch": 67, "duration": 597, "velocity": 110}, {"time": 20279, "pitch": 60, "duration": 358, "velocity": 105}, {"time": 20398, "pitch": 55, "duration": 239, "velocity": 100}, {"time": 20637, "pitch": 50, "duration": 962, "velocity": 110}, {"time": 20637, "pitch": 67, "duration": 485, "velocity": 100}, {"time": 20879, "pitch": 55, "duration": 122, "velocity": 90}, {"time": 21001, "pitch": 66, "duration": 598, "velocity": 110}, {"time": 21241, "pitch": 62, "duration": 358, "velocity": 105}, {"time": 21361, "pitch": 57, "duration": 238, "velocity": 100}, {"time": 21599, "pitch": 43, "duration": 963, "velocity": 100}, {"time": 21838, "pitch": 55, "duration": 481, "velocity": 100}, {"time": 21958, "pitch": 67, "duration": 604, "velocity": 110}, {"time": 22198, "pitch": 62, "duration": 364, "velocity": 105}, {"time": 22319, "pitch": 55, "duration": 243, "velocity": 100}, {"time": 22562, "pitch": 50, "duration": 955, "velocity": 100}, {"time": 22801, "pitch": 57, "duration": 477, "velocity": 100}, {"time": 23039, "pitch": 62, "duration": 478, "velocity": 100}, {"time": 23039, "pitch": 66, "duration": 478, "velocity": 110}, {"time": 23278, "pitch": 57, "duration": 239, "velocity": 80}, {"time": 23517, "pitch": 43, "duration": 962, "velocity": 100}, {"time": 23759, "pitch": 55, "duration": 482, "velocity": 100}, {"time": 23881, "pitch": 67, "duration": 598, "velocity": 110}, {"time": 24121, "pitch": 62, "duration": 358, "velocity": 105}, {"time": 24241, "pitch": 55, "duration": 238, "velocity": 100}, {"time": 24479, "pitch": 42, "duration": 963, "velocity": 100}, {"time": 24718, "pitch": 57, "duration": 481, "velocity": 100}, {"time": 24838, "pitch": 66, "duration": 604, "velocity": 110}, {"time": 25078, "pitch": 62, "duration": 364, "velocity": 105}, {"time": 25199, "pitch": 57, "duration": 243, "velocity": 100}, {"time": 25442, "pitch": 40, "duration": 955, "velocity": 100}, {"time": 25681, "pitch": 55, "duration": 477, "velocity": 100}, {"time": 25800, "pitch": 67, "duration": 597, "velocity": 110}, {"time": 26039, "pitch": 62, "duration": 358, "velocity": 105}, {"time": 26158, "pitch": 55, "duration": 239, "velocity": 100}, {"time": 26397, "pitch": 50, "duration": 962, "velocity": 100}, {"time": 26639, "pitch": 57, "duration": 481, "velocity": 100}, {"time": 26761, "pitch": 66, "duration": 598, "velocity": 110}, {"time": 27001, "pitch": 62, "duration": 358, "velocity": 105}, {"time": 27120, "pitch": 57, "duration": 239, "velocity": 100}, {"time": 27359, "pitch": 48, "duration": 963, "velocity": 100}, {"time": 27598, "pitch": 55, "duration": 481, "velocity": 100}, {"time": 27717, "pitch": 67, "duration": 605, "velocity": 110}, {"time": 27958, "pitch": 60, "duration": 364, "velocity": 105}, {"time": 28079, "pitch": 55, "duration": 243, "velocity": 100}, {"time": 28322, "pitch": 50, "duration": 955, "velocity": 110}, {"time": 28322, "pitch": 67, "duration": 477, "velocity": 100}, {"time": 28560, "pitch": 55, "duration": 120, "velocity": 90}, {"time": 28680, "pitch": 66, "duration": 597, "velocity": 110}, {"time": 28919, "pitch": 62, "duration": 358, "velocity": 105}, {"time": 29038, "pitch": 57, "duration": 239, "velocity": 100}, {"time": 29277, "pitch": 43, "duration": 962, "velocity": 100}, {"time": 29519, "pitch": 55, "duration": 481, "velocity": 100}, {"time": 29640, "pitch": 67, "duration": 599, "velocity": 110}, {"time": 29881, "pitch": 62, "duration": 358, "velocity": 105}, {"time": 30000, "pitch": 55, "duration": 239, "velocity": 100}, {"time": 30239, "pitch": 50, "duration": 963, "velocity": 100}, {"time": 30478, "pitch": 57, "duration": 481, "velocity": 100}, {"time": 30717, "pitch": 62, "duration": 485, "velocity": 100}, {"time": 30717, "pitch": 66, "duration": 485, "velocity": 110}, {"time": 30959, "pitch": 57, "duration": 243, "velocity": 80}, {"time": 31202, "pitch": 43, "duration": 955, "velocity": 100}, {"time": 31440, "pitch": 55, "duration": 478, "velocity": 100}, {"time": 31560, "pitch": 67, "duration": 597, "velocity": 110}, {"time": 31799, "pitch": 62, "duration": 358, "velocity": 105}, {"time": 31918, "pitch": 55, "duration": 239, "velocity": 100}, {"time": 32157, "pitch": 42, "duration": 962, "velocity": 100}, {"time": 32399, "pitch": 57, "duration": 481, "velocity": 100}, {"time": 32520, "pitch": 66, "duration": 599, "velocity": 110}, {"time": 32761, "pitch": 62, "duration": 358, "velocity": 105}, {"time": 32880, "pitch": 57, "duration": 239, "velocity": 100}, {"time": 33119, "pitch": 40, "duration": 963, "velocity": 100}, {"time": 33358, "pitch": 55, "duration": 481, "velocity": 100}, {"time": 33477, "pitch": 67, "duration": 963, "velocity": 110}, {"time": 33718, "pitch": 64, "duration": 961, "velocity": 105}, {"time": 33839, "pitch": 55, "duration": 481, "velocity": 100}, {"time": 34082, "pitch": 40, "duration": 955, "velocity": 100}, {"time": 34320, "pitch": 55, "duration": 478, "velocity": 100}, {"time": 34440, "pitch": 67, "duration": 597, "velocity": 110}, {"time": 34679, "pitch": 64, "duration": 358, "velocity": 105}, {"time": 34798, "pitch": 55, "duration": 239, "velocity": 100}, {"time": 35037, "pitch": 48, "duration": 962, "velocity": 100}, {"time": 35279, "pitch": 55, "duration": 481, "velocity": 100}, {"time": 35400, "pitch": 67, "duration": 599, "velocity": 110}, {"time": 35641, "pitch": 60, "duration": 358, "velocity": 105}, {"time": 35760, "pitch": 55, "duration": 239, "velocity": 100}, {"time": 35999, "pitch": 47, "duration": 962, "velocity": 100}, {"time": 36238, "pitch": 55, "duration": 481, "velocity": 100}, {"time": 36357, "pitch": 67, "duration": 604, "velocity": 110}, {"time": 36598, "pitch": 62, "duration": 363, "velocity": 105}, {"time": 36719, "pitch": 55, "duration": 242, "velocity": 100}, {"time": 36961, "pitch": 45, "duration": 956, "velocity": 100}, {"time": 37200, "pitch": 57, "duration": 478, "velocity": 100}, {"time": 37320, "pitch": 64, "duration": 839, "velocity": 110}, {"time": 37558, "pitch": 60, "duration": 480, "velocity": 105}, {"time": 37678, "pitch": 57, "duration": 1201, "velocity": 100}, {"time": 37917, "pitch": 45, "duration": 484, "velocity": 100}, {"time": 38159, "pitch": 60, "duration": 720, "velocity": 95}, {"time": 38159, "pitch": 64, "duration": 720, "velocity": 100}, {"time": 38401, "pitch": 47, "duration": 239, "velocity": 105}, {"time": 38640, "pitch": 48, "duration": 239, "velocity": 100}, {"time": 38879, "pitch": 50, "duration": 962, "velocity": 100}, {"time": 39118, "pitch": 57, "duration": 481, "velocity": 100}, {"time": 39237, "pitch": 66, "duration": 604, "velocity": 110}, {"time": 39478, "pitch": 62, "duration": 363, "velocity": 105}, {"time": 39599, "pitch": 57, "duration": 242, "velocity": 100}, {"time": 39841, "pitch": 51, "duration": 956, "velocity": 100}, {"time": 40080, "pitch": 57, "duration": 478, "velocity": 100}, {"time": 40200, "pitch": 66, "duration": 597, "velocity": 110}, {"time": 40438, "pitch": 60, "duration": 359, "velocity": 105}, {"time": 40558, "pitch": 57, "duration": 239, "velocity": 100}, {"time": 40797, "pitch": 40, "duration": 962, "velocity": 100}, {"time": 41039, "pitch": 55, "duration": 481, "velocity": 100}, {"time": 41160, "pitch": 67, "duration": 599, "velocity": 110}, {"time": 41401, "pitch": 64, "duration": 358, "velocity": 105}, {"time": 41520, "pitch": 55, "duration": 239, "velocity": 100}, {"time": 41759, "pitch": 45, "duration": 962, "velocity": 100}, {"time": 41998, "pitch": 55, "duration": 481, "velocity": 100}, {"time": 42117, "pitch": 64, "duration": 604, "velocity": 110}, {"time": 42358, "pitch": 61, "duration": 363, "velocity": 105}, {"time": 42479, "pitch": 55, "duration": 242, "velocity": 100}, {"time": 42721, "pitch": 45, "duration": 955, "velocity": 100}, {"time": 42960, "pitch": 55, "duration": 478, "velocity": 100}, {"time": 43079, "pitch": 67, "duration": 597, "velocity": 110}, {"time": 43318, "pitch": 60, "duration": 358, "velocity": 105}, {"time": 43438, "pitch": 55, "duration": 238, "velocity": 100}, {"time": 43676, "pitch": 50, "duration": 963, "velocity": 110}, {"time": 43676, "pitch": 67, "duration": 485, "velocity": 100}, {"time": 43919, "pitch": 55, "duration": 121, "velocity": 90}, {"time": 44040, "pitch": 66, "duration": 599, "velocity": 110}, {"time": 44281, "pitch": 62, "duration": 358, "velocity": 105}, {"time": 44400, "pitch": 57, "duration": 239, "velocity": 100}, {"time": 44639, "pitch": 43, "duration": 922, "velocity": 100}, {"time": 44878, "pitch": 55, "duration": 481, "velocity": 100}, {"time": 44997, "pitch": 67, "duration": 664, "velocity": 110}, {"time": 45238, "pitch": 62, "duration": 403, "velocity": 105}, {"time": 45359, "pitch": 55, "duration": 242, "velocity": 100}, {"time": 45561, "pitch": 43, "duration": 982, "velocity": 100}, {"time": 45581, "pitch": 50, "duration": 962, "velocity": 90}, {"time": 45601, "pitch": 55, "duration": 942, "velocity": 95}, {"time": 45621, "pitch": 59, "duration": 922, "velocity": 100}, {"time": 45641, "pitch": 62, "duration": 902, "velocity": 105}, {"time": 45661, "pitch": 67, "duration": 882, "velocity": 110}, {"time": 46564, "pitch": 53, "duration": 955, "velocity": 100}, {"time": 46802, "pitch": 60, "duration": 359, "velocity": 95}, {"time": 47041, "pitch": 65, "duration": 478, "velocity": 100}, {"time": 47161, "pitch": 60, "duration": 358, "velocity": 90}, {"time": 47280, "pitch": 57, "duration": 239, "velocity": 100}, {"time": 47519, "pitch": 52, "duration": 962, "velocity": 100}, {"time": 47761, "pitch": 60, "duration": 362, "velocity": 95}, {"time": 48004, "pitch": 64, "duration": 477, "velocity": 100}, {"time": 48123, "pitch": 60, "duration": 358, "velocity": 90}, {"time": 48242, "pitch": 55, "duration": 239, "velocity": 100}, {"time": 48481, "pitch": 43, "duration": 963, "velocity": 100}, {"time": 48720, "pitch": 55, "duration": 481, "velocity": 100}, {"time": 48839, "pitch": 67, "duration": 963, "velocity": 110}, {"time": 49080, "pitch": 62, "duration": 961, "velocity": 105}, {"time": 49201, "pitch": 55, "duration": 481, "velocity": 100}, {"time": 49444, "pitch": 43, "duration": 955, "velocity": 100}, {"time": 49682, "pitch": 55, "duration": 478, "velocity": 100}, {"time": 49802, "pitch": 67, "duration": 597, "velocity": 110}, {"time": 50041, "pitch": 62, "duration": 358, "velocity": 105}, {"time": 50160, "pitch": 55, "duration": 239, "velocity": 100}, {"time": 50399, "pitch": 53, "duration": 962, "velocity": 100}, {"time": 50641, "pitch": 60, "duration": 362, "velocity": 95}, {"time": 50883, "pitch": 65, "duration": 478, "velocity": 100}, {"time": 51003, "pitch": 60, "duration": 358, "velocity": 90}, {"time": 51122, "pitch": 57, "duration": 239, "velocity": 100}, {"time": 51361, "pitch": 48, "duration": 962, "velocity": 100}, {"time": 51600, "pitch": 60, "duration": 360, "velocity": 95}, {"time": 51839, "pitch": 64, "duration": 484, "velocity": 100}, {"time": 51960, "pitch": 60, "duration": 363, "velocity": 90}, {"time": 52081, "pitch": 55, "duration": 242, "velocity": 100}, {"time": 52323, "pitch": 43, "duration": 956, "velocity": 100}, {"time": 52562, "pitch": 55, "duration": 478, "velocity": 100}, {"time": 52682, "pitch": 67, "duration": 960, "velocity": 110}, {"time": 52920, "pitch": 62, "duration": 963, "velocity": 105}, {"time": 53040, "pitch": 55, "duration": 481, "velocity": 100}, {"time": 53279, "pitch": 43, "duration": 962, "velocity": 100}, {"time": 53521, "pitch": 55, "duration": 481, "velocity": 100}, {"time": 53642, "pitch": 67, "duration": 599, "velocity": 110}, {"time": 53883, "pitch": 62, "duration": 358, "velocity": 105}, {"time": 54002, "pitch": 55, "duration": 239, "velocity": 100}, {"time": 54241, "pitch": 53, "duration": 962, "velocity": 100}, {"time": 54480, "pitch": 60, "duration": 360, "velocity": 95}, {"time": 54719, "pitch": 65, "duration": 484, "velocity": 100}, {"time": 54840, "pitch": 60, "duration": 363, "velocity": 90}, {"time": 54961, "pitch": 57, "duration": 242, "velocity": 100}, {"time": 55203, "pitch": 48, "duration": 956, "velocity": 100}, {"time": 55442, "pitch": 60, "duration": 358, "velocity": 95}, {"time": 55681, "pitch": 64, "duration": 478, "velocity": 100}, {"time": 55800, "pitch": 60, "duration": 359, "velocity": 90}, {"time": 55920, "pitch": 55, "duration": 239, "velocity": 100}, {"time": 56159, "pitch": 43, "duration": 962, "velocity": 100}, {"time": 56401, "pitch": 55, "duration": 481, "velocity": 100}, {"time": 56522, "pitch": 67, "duration": 957, "velocity": 110}, {"time": 56763, "pitch": 62, "duration": 957, "velocity": 105}, {"time": 56882, "pitch": 55, "duration": 478, "velocity": 100}, {"time": 57121, "pitch": 43, "duration": 962, "velocity": 100}, {"time": 57360, "pitch": 55, "duration": 481, "velocity": 100}, {"time": 57479, "pitch": 67, "duration": 604, "velocity": 110}, {"time": 57720, "pitch": 62, "duration": 363, "velocity": 105}, {"time": 57841, "pitch": 55, "duration": 242, "velocity": 100}, {"time": 58083, "pitch": 53, "duration": 955, "velocity": 100}, {"time": 58322, "pitch": 60, "duration": 358, "velocity": 95}, {"time": 58561, "pitch": 65, "duration": 477, "velocity": 100}, {"time": 58680, "pitch": 60, "duration": 358, "velocity": 90}, {"time": 58800, "pitch": 57, "duration": 238, "velocity": 100}, {"time": 59038, "pitch": 48, "duration": 963, "velocity": 100}, {"time": 59281, "pitch": 60, "duration": 362, "velocity": 95}, {"time": 59523, "pitch": 64, "duration": 478, "velocity": 100}, {"time": 59643, "pitch": 60, "duration": 358, "velocity": 90}, {"time": 59762, "pitch": 55, "duration": 239, "velocity": 100}, {"time": 60001, "pitch": 50, "duration": 922, "velocity": 100}, {"time": 60240, "pitch": 57, "duration": 481, "velocity": 100}, {"time": 60359, "pitch": 66, "duration": 664, "velocity": 110}, {"time": 60600, "pitch": 62, "duration": 403, "velocity": 105}, {"time": 60721, "pitch": 57, "duration": 242, "velocity": 100}, {"time": 60943, "pitch": 50, "duration": 956, "velocity": 90}, {"time": 60963, "pitch": 54, "duration": 936, "velocity": 95}, {"time": 60983, "pitch": 57, "duration": 916, "velocity": 100}, {"time": 61003, "pitch": 62, "duration": 896, "velocity": 105}, {"time": 61023, "pitch": 66, "duration": 876, "velocity": 110}, {"time": 61918, "pitch": 43, "duration": 963, "velocity": 100}, {"time": 62161, "pitch": 55, "duration": 481, "velocity": 100}, {"time": 62282, "pitch": 67, "duration": 599, "velocity": 110}, {"time": 62523, "pitch": 62, "duration": 358, "velocity": 105}, {"time": 62642, "pitch": 55, "duration": 239, "velocity": 100}, {"time": 62881, "pitch": 42, "duration": 962, "velocity": 100}, {"time": 63120, "pitch": 57, "duration": 481, "velocity": 100}, {"time": 63239, "pitch": 66, "duration": 604, "velocity": 110}, {"time": 63480, "pitch": 62, "duration": 363, "velocity": 105}, {"time": 63601, "pitch": 57, "duration": 242, "velocity": 100}, {"time": 63843, "pitch": 40, "duration": 955, "velocity": 100}, {"time": 64082, "pitch": 55, "duration": 478, "velocity": 100}, {"time": 64201, "pitch": 67, "duration": 961, "velocity": 110}, {"time": 64440, "pitch": 64, "duration": 963, "velocity": 105}, {"time": 64560, "pitch": 55, "duration": 481, "velocity": 100}, {"time": 64798, "pitch": 40, "duration": 963, "velocity": 100}, {"time": 65041, "pitch": 55, "duration": 481, "velocity": 100}, {"time": 65162, "pitch": 67, "duration": 599, "velocity": 110}, {"time": 65403, "pitch": 64, "duration": 358, "velocity": 105}, {"time": 65522, "pitch": 55, "duration": 239, "velocity": 100}, {"time": 65761, "pitch": 48, "duration": 962, "velocity": 100}, {"time": 66000, "pitch": 55, "duration": 481, "velocity": 100}, {"time": 66119, "pitch": 67, "duration": 604, "velocity": 110}, {"time": 66360, "pitch": 60, "duration": 363, "velocity": 105}, {"time": 66481, "pitch": 55, "duration": 242, "velocity": 100}, {"time": 66723, "pitch": 47, "duration": 955, "velocity": 100}, {"time": 66962, "pitch": 55, "duration": 477, "velocity": 100}, {"time": 67081, "pitch": 67, "duration": 597, "velocity": 110}, {"time": 67320, "pitch": 62, "duration": 358, "velocity": 105}, {"time": 67439, "pitch": 55, "duration": 239, "velocity": 100}, {"time": 67678, "pitch": 45, "duration": 963, "velocity": 100}, {"time": 67921, "pitch": 57, "duration": 481, "velocity": 100}, {"time": 68042, "pitch": 64, "duration": 837, "velocity": 110}, {"time": 68282, "pitch": 60, "duration": 478, "velocity": 105}, {"time": 68402, "pitch": 57, "duration": 1201, "velocity": 100}, {"time": 68641, "pitch": 45, "duration": 477, "velocity": 100}, {"time": 68879, "pitch": 60, "duration": 724, "velocity": 95}, {"time": 68879, "pitch": 64, "duration": 724, "velocity": 100}, {"time": 69118, "pitch": 47, "duration": 243, "velocity": 105}, {"time": 69361, "pitch": 48, "duration": 242, "velocity": 100}, {"time": 69603, "pitch": 50, "duration": 955, "velocity": 100}, {"time": 69842, "pitch": 57, "duration": 477, "velocity": 100}, {"time": 69961, "pitch": 66, "duration": 597, "velocity": 110}, {"time": 70200, "pitch": 62, "duration": 358, "velocity": 105}, {"time": 70319, "pitch": 57, "duration": 239, "velocity": 100}, {"time": 70558, "pitch": 51, "duration": 963, "velocity": 100}, {"time": 70801, "pitch": 57, "duration": 481, "velocity": 100}, {"time": 70922, "pitch": 66, "duration": 599, "velocity": 110}, {"time": 71162, "pitch": 60, "duration": 359, "velocity": 105}, {"time": 71282, "pitch": 57, "duration": 239, "velocity": 100}, {"time": 71521, "pitch": 40, "duration": 962, "velocity": 100}, {"time": 71759, "pitch": 55, "duration": 482, "velocity": 100}, {"time": 71879, "pitch": 67, "duration": 604, "velocity": 110}, {"time": 72119, "pitch": 64, "duration": 364, "velocity": 105}, {"time": 72241, "pitch": 55, "duration": 242, "velocity": 100}, {"time": 72483, "pitch": 45, "duration": 955, "velocity": 100}, {"time": 72722, "pitch": 55, "duration": 477, "velocity": 100}, {"time": 72841, "pitch": 64, "duration": 597, "velocity": 110}, {"time": 73080, "pitch": 61, "duration": 358, "velocity": 105}, {"time": 73199, "pitch": 55, "duration": 239, "velocity": 100}, {"time": 73438, "pitch": 45, "duration": 963, "velocity": 100}, {"time": 73681, "pitch": 55, "duration": 481, "velocity": 100}, {"time": 73802, "pitch": 67, "duration": 599, "velocity": 110}, {"time": 74042, "pitch": 60, "duration": 359, "velocity": 105}, {"time": 74162, "pitch": 55, "duration": 239, "velocity": 100}, {"time": 74401, "pitch": 50, "duration": 962, "velocity": 110}, {"time": 74401, "pitch": 67, "duration": 477, "velocity": 100}, {"time": 74639, "pitch": 55, "duration": 120, "velocity": 90}, {"time": 74759, "pitch": 66, "duration": 604, "velocity": 110}, {"time": 74999, "pitch": 62, "duration": 364, "velocity": 105}, {"time": 75120, "pitch": 57, "duration": 243, "velocity": 100}, {"time": 75363, "pitch": 43, "duration": 955, "velocity": 100}, {"time": 75602, "pitch": 55, "duration": 477, "velocity": 100}, {"time": 75721, "pitch": 67, "duration": 597, "velocity": 110}, {"time": 75960, "pitch": 62, "duration": 358, "velocity": 105}, {"time": 76079, "pitch": 55, "duration": 239, "velocity": 100}, {"time": 76318, "pitch": 50, "duration": 962, "velocity": 100}, {"time": 76560, "pitch": 57, "duration": 482, "velocity": 100}, {"time": 76803, "pitch": 62, "duration": 477, "velocity": 100}, {"time": 76803, "pitch": 66, "duration": 477, "velocity": 110}, {"time": 77042, "pitch": 57, "duration": 238, "velocity": 80}, {"time": 77280, "pitch": 43, "duration": 963, "velocity": 100}, {"time": 77519, "pitch": 55, "duration": 481, "velocity": 100}, {"time": 77639, "pitch": 67, "duration": 604, "velocity": 110}, {"time": 77879, "pitch": 62, "duration": 364, "velocity": 105}, {"time": 78000, "pitch": 55, "duration": 243, "velocity": 100}, {"time": 78243, "pitch": 42, "duration": 955, "velocity": 100}, {"time": 78482, "pitch": 57, "duration": 477, "velocity": 100}, {"time": 78601, "pitch": 66, "duration": 597, "velocity": 110}, {"time": 78840, "pitch": 62, "duration": 358, "velocity": 105}, {"time": 78959, "pitch": 57, "duration": 239, "velocity": 100}, {"time": 79198, "pitch": 40, "duration": 962, "velocity": 100}, {"time": 79440, "pitch": 55, "duration": 482, "velocity": 100}, {"time": 79562, "pitch": 67, "duration": 598, "velocity": 110}, {"time": 79802, "pitch": 62, "duration": 358, "velocity": 105}, {"time": 79922, "pitch": 55, "duration": 238, "velocity": 100}, {"time": 80160, "pitch": 50, "duration": 963, "velocity": 100}, {"time": 80399, "pitch": 57, "duration": 481, "velocity": 100}, {"time": 80759, "pitch": 62, "duration": 364, "velocity": 105}, {"time": 80880, "pitch": 57, "duration": 243, "velocity": 100}, {"time": 81123, "pitch": 48, "duration": 955, "velocity": 100}, {"time": 81362, "pitch": 55, "duration": 477, "velocity": 100}, {"time": 81481, "pitch": 67, "duration": 597, "velocity": 110}, {"time": 81720, "pitch": 60, "duration": 358, "velocity": 105}, {"time": 81839, "pitch": 55, "duration": 239, "velocity": 100}, {"time": 82078, "pitch": 50, "duration": 962, "velocity": 110}, {"time": 82078, "pitch": 67, "duration": 485, "velocity": 100}, {"time": 82320, "pitch": 55, "duration": 122, "velocity": 90}, {"time": 82442, "pitch": 66, "duration": 598, "velocity": 110}, {"time": 82682, "pitch": 62, "duration": 358, "velocity": 105}, {"time": 82801, "pitch": 57, "duration": 239, "velocity": 100}, {"time": 83040, "pitch": 43, "duration": 963, "velocity": 100}, {"time": 83279, "pitch": 55, "duration": 481, "velocity": 100}, {"time": 83398, "pitch": 67, "duration": 605, "velocity": 110}, {"time": 83639, "pitch": 62, "duration": 364, "velocity": 105}, {"time": 83760, "pitch": 55, "duration": 243, "velocity": 100}, {"time": 84003, "pitch": 50, "duration": 955, "velocity": 100}, {"time": 84241, "pitch": 57, "duration": 478, "velocity": 100}, {"time": 84480, "pitch": 62, "duration": 478, "velocity": 100}, {"time": 84480, "pitch": 66, "duration": 478, "velocity": 110}, {"time": 84719, "pitch": 57, "duration": 239, "velocity": 80}, {"time": 84958, "pitch": 43, "duration": 962, "velocity": 100}, {"time": 85200, "pitch": 55, "duration": 481, "velocity": 100}, {"time": 85321, "pitch": 67, "duration": 599, "velocity": 110}, {"time": 85562, "pitch": 62, "duration": 358, "velocity": 105}, {"time": 85681, "pitch": 55, "duration": 239, "velocity": 100}, {"time": 85920, "pitch": 42, "duration": 963, "velocity": 100}, {"time": 86159, "pitch": 57, "duration": 481, "velocity": 100}, {"time": 86278, "pitch": 66, "duration": 605, "velocity": 110}, {"time": 86519, "pitch": 62, "duration": 364, "velocity": 105}, {"time": 86640, "pitch": 57, "duration": 243, "velocity": 100}, {"time": 86883, "pitch": 40, "duration": 955, "velocity": 100}, {"time": 87121, "pitch": 55, "duration": 478, "velocity": 100}, {"time": 87241, "pitch": 67, "duration": 960, "velocity": 110}, {"time": 87480, "pitch": 64, "duration": 962, "velocity": 105}, {"time": 87599, "pitch": 55, "duration": 481, "velocity": 100}, {"time": 87838, "pitch": 40, "duration": 962, "velocity": 100}, {"time": 88080, "pitch": 55, "duration": 481, "velocity": 100}, {"time": 88201, "pitch": 67, "duration": 599, "velocity": 110}, {"time": 88442, "pitch": 64, "duration": 358, "velocity": 105}, {"time": 88561, "pitch": 55, "duration": 239, "velocity": 100}, {"time": 88800, "pitch": 48, "duration": 963, "velocity": 100}, {"time": 89039, "pitch": 55, "duration": 481, "velocity": 100}, {"time": 89158, "pitch": 67, "duration": 605, "velocity": 110}, {"time": 89399, "pitch": 60, "duration": 364, "velocity": 105}, {"time": 89520, "pitch": 55, "duration": 243, "velocity": 100}, {"time": 89763, "pitch": 47, "duration": 955, "velocity": 100}, {"time": 90001, "pitch": 55, "duration": 478, "velocity": 100}, {"time": 90121, "pitch": 67, "duration": 597, "velocity": 110}, {"time": 90360, "pitch": 62, "duration": 358, "velocity": 105}, {"time": 90479, "pitch": 55, "duration": 239, "velocity": 100}, {"time": 90718, "pitch": 45, "duration": 962, "velocity": 100}, {"time": 90960, "pitch": 57, "duration": 481, "velocity": 100}, {"time": 91081, "pitch": 64, "duration": 838, "velocity": 110}, {"time": 91322, "pitch": 60, "duration": 477, "velocity": 105}, {"time": 91441, "pitch": 57, "duration": 1201, "velocity": 100}, {"time": 91680, "pitch": 45, "duration": 478, "velocity": 100}, {"time": 91919, "pitch": 60, "duration": 723, "velocity": 95}, {"time": 91919, "pitch": 64, "duration": 723, "velocity": 100}, {"time": 92158, "pitch": 47, "duration": 242, "velocity": 105}, {"time": 92400, "pitch": 48, "duration": 242, "velocity": 100}, {"time": 92642, "pitch": 50, "duration": 956, "velocity": 100}, {"time": 92881, "pitch": 57, "duration": 478, "velocity": 100}, {"time": 93001, "pitch": 66, "duration": 597, "velocity": 110}, {"time": 93239, "pitch": 62, "duration": 359, "velocity": 105}, {"time": 93359, "pitch": 57, "duration": 239, "velocity": 100}, {"time": 93598, "pitch": 51, "duration": 962, "velocity": 100}, {"time": 93840, "pitch": 57, "duration": 481, "velocity": 100}, {"time": 93961, "pitch": 66, "duration": 599, "velocity": 110}, {"time": 94202, "pitch": 60, "duration": 358, "velocity": 105}, {"time": 94321, "pitch": 57, "duration": 239, "velocity": 100}, {"time": 94560, "pitch": 40, "duration": 962, "velocity": 100}, {"time": 94799, "pitch": 55, "duration": 481, "velocity": 100}, {"time": 94918, "pitch": 67, "duration": 604, "velocity": 110}, {"time": 95159, "pitch": 64, "duration": 363, "velocity": 105}, {"time": 95280, "pitch": 55, "duration": 242, "velocity": 100}, {"time": 95522, "pitch": 45, "duration": 956, "velocity": 100}, {"time": 95761, "pitch": 55, "duration": 478, "velocity": 100}, {"time": 95881, "pitch": 64, "duration": 597, "velocity": 110}, {"time": 96119, "pitch": 61, "duration": 359, "velocity": 105}, {"time": 96239, "pitch": 55, "duration": 239, "velocity": 100}, {"time": 96478, "pitch": 45, "duration": 962, "velocity": 100}, {"time": 96720, "pitch": 55, "duration": 481, "velocity": 100}, {"time": 96841, "pitch": 67, "duration": 599, "velocity": 110}, {"time": 97082, "pitch": 60, "duration": 358, "velocity": 105}, {"time": 97201, "pitch": 55, "duration": 239, "velocity": 100}, {"time": 97440, "pitch": 50, "duration": 962, "velocity": 110}, {"time": 97440, "pitch": 67, "duration": 478, "velocity": 100}, {"time": 97679, "pitch": 55, "duration": 119, "velocity": 90}, {"time": 97798, "pitch": 66, "duration": 604, "velocity": 110}, {"time": 98039, "pitch": 62, "duration": 363, "velocity": 105}, {"time": 98160, "pitch": 57, "duration": 242, "velocity": 100}, {"time": 98402, "pitch": 43, "duration": 916, "velocity": 100}, {"time": 98641, "pitch": 55, "duration": 478, "velocity": 100}, {"time": 98760, "pitch": 67, "duration": 658, "velocity": 110}, {"time": 98999, "pitch": 62, "duration": 399, "velocity": 105}, {"time": 99119, "pitch": 55, "duration": 238, "velocity": 100}, {"time": 99318, "pitch": 43, "duration": 982, "velocity": 100}, {"time": 99338, "pitch": 50, "duration": 962, "velocity": 90}, {"time": 99357, "pitch": 55, "duration": 943, "velocity": 95}, {"time": 99378, "pitch": 59, "duration": 922, "velocity": 100}, {"time": 99398, "pitch": 62, "duration": 902, "velocity": 105}, {"time": 99418, "pitch": 67, "duration": 882, "velocity": 110}, {"time": 100320, "pitch": 53, "duration": 962, "velocity": 100}, {"time": 100559, "pitch": 60, "duration": 360, "velocity": 95}, {"time": 100797, "pitch": 65, "duration": 485, "velocity": 100}, {"time": 100919, "pitch": 60, "duration": 363, "velocity": 90}, {"time": 101040, "pitch": 57, "duration": 242, "velocity": 100}, {"time": 101282, "pitch": 52, "duration": 955, "velocity": 100}, {"time": 101521, "pitch": 60, "duration": 358, "velocity": 95}, {"time": 101760, "pitch": 64, "duration": 477, "velocity": 100}, {"time": 101879, "pitch": 60, "duration": 358, "velocity": 90}, {"time": 101999, "pitch": 55, "duration": 238, "velocity": 100}, {"time": 102237, "pitch": 43, "duration": 963, "velocity": 100}, {"time": 102480, "pitch": 55, "duration": 481, "velocity": 100}, {"time": 102601, "pitch": 67, "duration": 957, "velocity": 110}, {"time": 102842, "pitch": 62, "duration": 957, "velocity": 105}, {"time": 102961, "pitch": 55, "duration": 478, "velocity": 100}, {"time": 103200, "pitch": 43, "duration": 962, "velocity": 100}, {"time": 103439, "pitch": 55, "duration": 481, "velocity": 100}, {"time": 103558, "pitch": 67, "duration": 604, "velocity": 110}, {"time": 103799, "pitch": 62, "duration": 363, "velocity": 105}, {"time": 103920, "pitch": 55, "duration": 242, "velocity": 100}, {"time": 104162, "pitch": 53, "duration": 955, "velocity": 100}, {"time": 104401, "pitch": 60, "duration": 358, "velocity": 95}, {"time": 104640, "pitch": 65, "duration": 477, "velocity": 100}, {"time": 104759, "pitch": 60, "duration": 358, "velocity": 90}, {"time": 104879, "pitch": 57, "duration": 238, "velocity": 100}, {"time": 105117, "pitch": 48, "duration": 963, "velocity": 100}, {"time": 105360, "pitch": 60, "duration": 362, "velocity": 95}, {"time": 105602, "pitch": 64, "duration": 478, "velocity": 100}, {"time": 105722, "pitch": 60, "duration": 358, "velocity": 90}, {"time": 105841, "pitch": 55, "duration": 239, "velocity": 100}, {"time": 106080, "pitch": 43, "duration": 962, "velocity": 100}, {"time": 106319, "pitch": 55, "duration": 481, "velocity": 100}, {"time": 106438, "pitch": 67, "duration": 962, "velocity": 110}, {"time": 106678, "pitch": 62, "duration": 961, "velocity": 105}, {"time": 106800, "pitch": 55, "duration": 481, "velocity": 100}, {"time": 107042, "pitch": 43, "duration": 955, "velocity": 100}, {"time": 107281, "pitch": 55, "duration": 477, "velocity": 100}, {"time": 107400, "pitch": 67, "duration": 597, "velocity": 110}, {"time": 107639, "pitch": 62, "duration": 358, "velocity": 105}, {"time": 107758, "pitch": 55, "duration": 239, "velocity": 100}, {"time": 107997, "pitch": 53, "duration": 963, "velocity": 100}, {"time": 108240, "pitch": 60, "duration": 361, "velocity": 95}, {"time": 108482, "pitch": 65, "duration": 478, "velocity": 100}, {"time": 108601, "pitch": 60, "duration": 359, "velocity": 90}, {"time": 108721, "pitch": 57, "duration": 239, "velocity": 100}, {"time": 108960, "pitch": 48, "duration": 962, "velocity": 100}, {"time": 109198, "pitch": 60, "duration": 360, "velocity": 95}, {"time": 109437, "pitch": 64, "duration": 485, "velocity": 100}, {"time": 109558, "pitch": 60, "duration": 364, "velocity": 90}, {"time": 109680, "pitch": 55, "duration": 242, "velocity": 100}, {"time": 109922, "pitch": 43, "duration": 955, "velocity": 100}, {"time": 110161, "pitch": 55, "duration": 477, "velocity": 100}, {"time": 110280, "pitch": 67, "duration": 961, "velocity": 110}, {"time": 110519, "pitch": 62, "duration": 962, "velocity": 105}, {"time": 110638, "pitch": 55, "duration": 482, "velocity": 100}, {"time": 110877, "pitch": 43, "duration": 963, "velocity": 100}, {"time": 111120, "pitch": 55, "duration": 481, "velocity": 100}, {"time": 111241, "pitch": 67, "duration": 599, "velocity": 110}, {"time": 111481, "pitch": 62, "duration": 359, "velocity": 105}, {"time": 111601, "pitch": 55, "duration": 239, "velocity": 100}, {"time": 111840, "pitch": 53, "duration": 962, "velocity": 100}, {"time": 112078, "pitch": 60, "duration": 360, "velocity": 95}, {"time": 112317, "pitch": 65, "duration": 485, "velocity": 100}, {"time": 112438, "pitch": 60, "duration": 364, "velocity": 90}, {"time": 112560, "pitch": 57, "duration": 242, "velocity": 100}, {"time": 112802, "pitch": 48, "duration": 955, "velocity": 100}, {"time": 113041, "pitch": 60, "duration": 358, "velocity": 95}, {"time": 113280, "pitch": 64, "duration": 477, "velocity": 100}, {"time": 113399, "pitch": 60, "duration": 358, "velocity": 90}, {"time": 113518, "pitch": 55, "duration": 239, "velocity": 100}, {"time": 113757, "pitch": 50, "duration": 923, "velocity": 100}, {"time": 114000, "pitch": 57, "duration": 481, "velocity": 100}, {"time": 114121, "pitch": 66, "duration": 658, "velocity": 110}, {"time": 114361, "pitch": 62, "duration": 398, "velocity": 105}, {"time": 114481, "pitch": 57, "duration": 238, "velocity": 100}, {"time": 114700, "pitch": 50, "duration": 962, "velocity": 90}, {"time": 114719, "pitch": 54, "duration": 943, "velocity": 95}, {"time": 114739, "pitch": 57, "duration": 923, "velocity": 100}, {"time": 114759, "pitch": 62, "duration": 903, "velocity": 105}, {"time": 114779, "pitch": 66, "duration": 883, "velocity": 110}, {"time": 115682, "pitch": 43, "duration": 955, "velocity": 100}, {"time": 115921, "pitch": 55, "duration": 477, "velocity": 100}, {"time": 116040, "pitch": 67, "duration": 597, "velocity": 110}, {"time": 116279, "pitch": 62, "duration": 358, "velocity": 105}, {"time": 116398, "pitch": 55, "duration": 239, "velocity": 100}, {"time": 116637, "pitch": 42, "duration": 962, "velocity": 100}, {"time": 116879, "pitch": 57, "duration": 482, "velocity": 100}, {"time": 117001, "pitch": 66, "duration": 598, "velocity": 110}, {"time": 117241, "pitch": 62, "duration": 358, "velocity": 105}, {"time": 117361, "pitch": 57, "duration": 238, "velocity": 100}, {"time": 117599, "pitch": 40, "duration": 963, "velocity": 100}, {"time": 117838, "pitch": 55, "duration": 481, "velocity": 100}, {"time": 117958, "pitch": 67, "duration": 962, "velocity": 110}, {"time": 118198, "pitch": 64, "duration": 961, "velocity": 105}, {"time": 118319, "pitch": 55, "duration": 482, "velocity": 100}, {"time": 118562, "pitch": 40, "duration": 955, "velocity": 100}, {"time": 118801, "pitch": 55, "duration": 477, "velocity": 100}, {"time": 118920, "pitch": 67, "duration": 597, "velocity": 110}, {"time": 119159, "pitch": 64, "duration": 358, "velocity": 105}, {"time": 119278, "pitch": 55, "duration": 239, "velocity": 100}, {"time": 119517, "pitch": 48, "duration": 962, "velocity": 100}, {"time": 119759, "pitch": 55, "duration": 482, "velocity": 100}, {"time": 119881, "pitch": 67, "duration": 598, "velocity": 110}, {"time": 120121, "pitch": 60, "duration": 358, "velocity": 105}, {"time": 120241, "pitch": 55, "duration": 238, "velocity": 100}, {"time": 120479, "pitch": 47, "duration": 963, "velocity": 100}, {"time": 120718, "pitch": 55, "duration": 481, "velocity": 100}, {"time": 120838, "pitch": 67, "duration": 604, "velocity": 110}, {"time": 121078, "pitch": 62, "duration": 364, "velocity": 105}, {"time": 121199, "pitch": 55, "duration": 243, "velocity": 100}, {"time": 121442, "pitch": 45, "duration": 955, "velocity": 100}, {"time": 121681, "pitch": 57, "duration": 477, "velocity": 100}, {"time": 121800, "pitch": 64, "duration": 839, "velocity": 110}, {"time": 122039, "pitch": 60, "duration": 479, "velocity": 105}, {"time": 122158, "pitch": 57, "duration": 1201, "velocity": 100}, {"time": 122397, "pitch": 45, "duration": 485, "velocity": 100}, {"time": 122639, "pitch": 60, "duration": 720, "velocity": 95}, {"time": 122639, "pitch": 64, "duration": 720, "velocity": 100}, {"time": 122882, "pitch": 47, "duration": 238, "velocity": 105}, {"time": 123120, "pitch": 48, "duration": 239, "velocity": 100}, {"time": 123359, "pitch": 50, "duration": 963, "velocity": 100}, {"time": 123598, "pitch": 57, "duration": 481, "velocity": 100}, {"time": 123717, "pitch": 66, "duration": 605, "velocity": 110}, {"time": 123958, "pitch": 62, "duration": 364, "velocity": 105}, {"time": 124079, "pitch": 57, "duration": 243, "velocity": 100}, {"time": 124322, "pitch": 51, "duration": 955, "velocity": 100}, {"time": 124560, "pitch": 57, "duration": 478, "velocity": 100}, {"time": 124680, "pitch": 66, "duration": 597, "velocity": 110}, {"time": 124919, "pitch": 60, "duration": 358, "velocity": 105}, {"time": 125038, "pitch": 57, "duration": 239, "velocity": 100}, {"time": 125277, "pitch": 40, "duration": 962, "velocity": 100}, {"time": 125519, "pitch": 55, "duration": 481, "velocity": 100}, {"time": 125640, "pitch": 67, "duration": 599, "velocity": 110}, {"time": 125881, "pitch": 64, "duration": 358, "velocity": 105}, {"time": 126000, "pitch": 55, "duration": 239, "velocity": 100}, {"time": 126239, "pitch": 45, "duration": 963, "velocity": 100}, {"time": 126478, "pitch": 55, "duration": 481, "velocity": 100}, {"time": 126597, "pitch": 64, "duration": 605, "velocity": 110}, {"time": 126838, "pitch": 61, "duration": 364, "velocity": 105}, {"time": 126959, "pitch": 55, "duration": 243, "velocity": 100}, {"time": 127202, "pitch": 45, "duration": 955, "velocity": 100}, {"time": 127440, "pitch": 55, "duration": 478, "velocity": 100}, {"time": 127560, "pitch": 67, "duration": 597, "velocity": 110}, {"time": 127799, "pitch": 60, "duration": 358, "velocity": 105}, {"time": 127918, "pitch": 55, "duration": 239, "velocity": 100}, {"time": 128157, "pitch": 50, "duration": 962, "velocity": 110}, {"time": 128157, "pitch": 67, "duration": 485, "velocity": 100}, {"time": 128399, "pitch": 55, "duration": 121, "velocity": 90}, {"time": 128520, "pitch": 66, "duration": 599, "velocity": 110}, {"time": 128761, "pitch": 62, "duration": 358, "velocity": 105}, {"time": 128880, "pitch": 57, "duration": 239, "velocity": 100}, {"time": 129119, "pitch": 40, "duration": 963, "velocity": 100}, {"time": 129358, "pitch": 55, "duration": 481, "velocity": 100}, {"time": 129477, "pitch": 67, "duration": 963, "velocity": 110}, {"time": 129718, "pitch": 64, "duration": 961, "velocity": 105}, {"time": 129839, "pitch": 55, "duration": 481, "velocity": 100}, {"time": 130082, "pitch": 40, "duration": 955, "velocity": 100}, {"time": 130320, "pitch": 55, "duration": 478, "velocity": 100}, {"time": 130440, "pitch": 67, "duration": 597, "velocity": 110}, {"time": 130679, "pitch": 64, "duration": 358, "velocity": 105}, {"time": 130798, "pitch": 55, "duration": 239, "velocity": 100}, {"time": 131037, "pitch": 45, "duration": 942, "velocity": 100}, {"time": 131979, "pitch": 50, "duration": 458, "velocity": 100}, {"time": 131999, "pitch": 55, "duration": 438, "velocity": 90}, {"time": 132019, "pitch": 57, "duration": 418, "velocity": 100}, {"time": 132039, "pitch": 62, "duration": 398, "velocity": 105}, {"time": 132059, "pitch": 67, "duration": 378, "velocity": 110}, {"time": 132457, "pitch": 50, "duration": 464, "velocity": 100}, {"time": 132477, "pitch": 54, "duration": 444, "velocity": 90}, {"time": 132497, "pitch": 57, "duration": 424, "velocity": 100}, {"time": 132517, "pitch": 62, "duration": 404, "velocity": 105}, {"time": 132537, "pitch": 66, "duration": 384, "velocity": 110}, {"time": 132961, "pitch": 43, "duration": 956, "velocity": 100}, {"time": 133200, "pitch": 55, "duration": 478, "velocity": 100}, {"time": 133320, "pitch": 67, "duration": 597, "velocity": 110}, {"time": 133558, "pitch": 62, "duration": 359, "velocity": 105}, {"time": 133678, "pitch": 55, "duration": 239, "velocity": 100}, {"time": 133917, "pitch": 42, "duration": 962, "velocity": 100}, {"time": 134159, "pitch": 57, "duration": 481, "velocity": 100}, {"time": 134280, "pitch": 66, "duration": 599, "velocity": 110}, {"time": 134521, "pitch": 62, "duration": 358, "velocity": 105}, {"time": 134640, "pitch": 57, "duration": 239, "velocity": 100}, {"time": 134879, "pitch": 40, "duration": 962, "velocity": 100}, {"time": 135118, "pitch": 55, "duration": 481, "velocity": 100}, {"time": 135237, "pitch": 67, "duration": 604, "velocity": 110}, {"time": 135478, "pitch": 62, "duration": 363, "velocity": 105}, {"time": 135599, "pitch": 55, "duration": 242, "velocity": 100}, {"time": 135841, "pitch": 50, "duration": 956, "velocity": 100}, {"time": 135961, "pitch": 57, "duration": 477, "velocity": 100}, {"time": 136438, "pitch": 62, "duration": 359, "velocity": 105}, {"time": 136558, "pitch": 57, "duration": 239, "velocity": 100}, {"time": 136797, "pitch": 48, "duration": 985, "velocity": 100}, {"time": 137039, "pitch": 55, "duration": 492, "velocity": 100}, {"time": 137160, "pitch": 67, "duration": 622, "velocity": 110}, {"time": 137406, "pitch": 60, "duration": 376, "velocity": 105}, {"time": 137531, "pitch": 55, "duration": 251, "velocity": 100}, {"time": 137782, "pitch": 50, "duration": 1007, "velocity": 110}, {"time": 137803, "pitch": 57, "duration": 233, "velocity": 80}, {"time": 137813, "pitch": 62, "duration": 601, "velocity": 90}, {"time": 137824, "pitch": 67, "duration": 339, "velocity": 100}, {"time": 138036, "pitch": 57, "duration": 503, "velocity": 90}, {"time": 138163, "pitch": 66, "duration": 626, "velocity": 110}, {"time": 138414, "pitch": 62, "duration": 375, "velocity": 105}, {"time": 138539, "pitch": 57, "duration": 250, "velocity": 100}, {"time": 138789, "pitch": 43, "duration": 1000, "velocity": 100}, {"time": 139039, "pitch": 55, "duration": 500, "velocity": 100}, {"time": 139164, "pitch": 67, "duration": 625, "velocity": 110}, {"time": 139414, "pitch": 62, "duration": 375, "velocity": 105}, {"time": 139539, "pitch": 55, "duration": 250, "velocity": 100}, {"time": 139789, "pitch": 43, "duration": 986, "velocity": 100}, {"time": 139810, "pitch": 55, "duration": 965, "velocity": 95}, {"time": 139830, "pitch": 59, "duration": 945, "velocity": 100}, {"time": 139851, "pitch": 62, "duration": 924, "velocity": 105}, {"time": 139872, "pitch": 67, "duration": 903, "velocity": 110}], "annotations": [{"time": 176, "annotation": {"number": 7, "value": 100}, "group": "control_change"}, {"time": 176, "annotation": {"number": 10, "value": 127}, "group": "control_change"}, {"time": 176, "annotation": {"number": 11, "value": 100}, "group": "control_change"}, {"time": 189, "annotation": {"number": 91, "value": 60}, "group": "control_change"}, {"time": 189, "annotation": {"number": 93, "value": 0}, "group": "control_change"}, {"time": 340, "annotation": {"number": 101, "value": 0}, "group": "control_change"}, {"time": 353, "annotation": {"number": 100, "value": 0}, "group": "control_change"}, {"time": 365, "annotation": {"number": 6, "value": 12}, "group": "control_change"}, {"time": 378, "annotation": {"number": 1, "value": 0}, "group": "control_change"}, {"time": 378, "annotation": {"number": 64, "value": 0}, "group": "control_change"}]}, {"program": 0, "is_drum": false, "name": "Melo", "annotations": [{"time": 239, "annotation": {"number": 0, "value": 0}, "group": "control_change"}, {"time": 252, "annotation": {"number": 32, "value": 2}, "group": "control_change"}]}, {"program": 22, "is_drum": false, "name": "Melo", "notes": [{"time": 8162, "pitch": 71, "duration": 219, "velocity": 90}, {"time": 8401, "pitch": 71, "duration": 99, "velocity": 90}, {"time": 8520, "pitch": 71, "duration": 339, "velocity": 90}, {"time": 8879, "pitch": 71, "duration": 99, "velocity": 90}, {"time": 8998, "pitch": 72, "duration": 342, "velocity": 90}, {"time": 9360, "pitch": 71, "duration": 121, "velocity": 90}, {"time": 9481, "pitch": 69, "duration": 221, "velocity": 90}, {"time": 9722, "pitch": 71, "duration": 218, "velocity": 90}, {"time": 9960, "pitch": 71, "duration": 239, "velocity": 90}, {"time": 10199, "pitch": 67, "duration": 843, "velocity": 90}, {"time": 11878, "pitch": 67, "duration": 119, "velocity": 90}, {"time": 11997, "pitch": 72, "duration": 222, "velocity": 90}, {"time": 12240, "pitch": 72, "duration": 101, "velocity": 90}, {"time": 12361, "pitch": 72, "duration": 221, "velocity": 90}, {"time": 12601, "pitch": 72, "duration": 219, "velocity": 90}, {"time": 12840, "pitch": 71, "duration": 100, "velocity": 90}, {"time": 12960, "pitch": 72, "duration": 219, "velocity": 90}, {"time": 13198, "pitch": 71, "duration": 120, "velocity": 90}, {"time": 13318, "pitch": 69, "duration": 220, "velocity": 90}, {"time": 13558, "pitch": 67, "duration": 223, "velocity": 90}, {"time": 13801, "pitch": 69, "duration": 1056, "velocity": 90}, {"time": 15840, "pitch": 74, "duration": 218, "velocity": 90}, {"time": 16078, "pitch": 74, "duration": 100, "velocity": 90}, {"time": 16198, "pitch": 74, "duration": 341, "velocity": 90}, {"time": 16560, "pitch": 74, "duration": 121, "velocity": 90}, {"time": 16681, "pitch": 75, "duration": 340, "velocity": 90}, {"time": 17041, "pitch": 71, "duration": 119, "velocity": 90}, {"time": 17160, "pitch": 69, "duration": 219, "velocity": 90}, {"time": 17399, "pitch": 71, "duration": 219, "velocity": 90}, {"time": 17638, "pitch": 69, "duration": 240, "velocity": 90}, {"time": 17878, "pitch": 67, "duration": 122, "velocity": 90}, {"time": 18000, "pitch": 67, "duration": 341, "velocity": 90}, {"time": 18361, "pitch": 69, "duration": 239, "velocity": 90}, {"time": 18600, "pitch": 71, "duration": 940, "velocity": 90}, {"time": 19561, "pitch": 62, "duration": 121, "velocity": 90}, {"time": 19682, "pitch": 64, "duration": 239, "velocity": 90}, {"time": 19921, "pitch": 67, "duration": 119, "velocity": 90}, {"time": 20040, "pitch": 67, "duration": 358, "velocity": 90}, {"time": 20398, "pitch": 71, "duration": 120, "velocity": 90}, {"time": 20518, "pitch": 72, "duration": 361, "velocity": 90}, {"time": 20879, "pitch": 71, "duration": 122, "velocity": 90}, {"time": 21001, "pitch": 69, "duration": 240, "velocity": 90}, {"time": 21241, "pitch": 67, "duration": 239, "velocity": 90}, {"time": 21480, "pitch": 67, "duration": 1082, "velocity": 90}, {"time": 31202, "pitch": 71, "duration": 218, "velocity": 90}, {"time": 31440, "pitch": 71, "duration": 100, "velocity": 90}, {"time": 31560, "pitch": 71, "duration": 338, "velocity": 90}, {"time": 31918, "pitch": 71, "duration": 99, "velocity": 90}, {"time": 32037, "pitch": 72, "duration": 342, "velocity": 90}, {"time": 32399, "pitch": 71, "duration": 121, "velocity": 90}, {"time": 32520, "pitch": 69, "duration": 221, "velocity": 90}, {"time": 32761, "pitch": 71, "duration": 219, "velocity": 90}, {"time": 33000, "pitch": 71, "duration": 239, "velocity": 90}, {"time": 33239, "pitch": 67, "duration": 843, "velocity": 90}, {"time": 34917, "pitch": 67, "duration": 120, "velocity": 90}, {"time": 35037, "pitch": 72, "duration": 222, "velocity": 90}, {"time": 35279, "pitch": 72, "duration": 101, "velocity": 90}, {"time": 35400, "pitch": 72, "duration": 221, "velocity": 90}, {"time": 35641, "pitch": 72, "duration": 219, "velocity": 90}, {"time": 35880, "pitch": 72, "duration": 338, "velocity": 90}, {"time": 36238, "pitch": 71, "duration": 119, "velocity": 90}, {"time": 36357, "pitch": 69, "duration": 221, "velocity": 90}, {"time": 36598, "pitch": 67, "duration": 222, "velocity": 90}, {"time": 36840, "pitch": 69, "duration": 1057, "velocity": 90}, {"time": 38879, "pitch": 74, "duration": 219, "velocity": 90}, {"time": 39118, "pitch": 74, "duration": 99, "velocity": 90}, {"time": 39237, "pitch": 74, "duration": 342, "velocity": 90}, {"time": 39599, "pitch": 74, "duration": 121, "velocity": 90}, {"time": 39720, "pitch": 75, "duration": 340, "velocity": 90}, {"time": 40080, "pitch": 71, "duration": 120, "velocity": 90}, {"time": 40200, "pitch": 69, "duration": 218, "velocity": 90}, {"time": 40438, "pitch": 71, "duration": 219, "velocity": 90}, {"time": 40677, "pitch": 69, "duration": 362, "velocity": 90}, {"time": 41039, "pitch": 67, "duration": 121, "velocity": 90}, {"time": 41160, "pitch": 67, "duration": 241, "velocity": 90}, {"time": 41401, "pitch": 69, "duration": 239, "velocity": 90}, {"time": 41640, "pitch": 71, "duration": 940, "velocity": 90}, {"time": 42600, "pitch": 62, "duration": 121, "velocity": 90}, {"time": 42721, "pitch": 64, "duration": 239, "velocity": 90}, {"time": 42960, "pitch": 67, "duration": 119, "velocity": 90}, {"time": 43079, "pitch": 67, "duration": 359, "velocity": 90}, {"time": 43438, "pitch": 71, "duration": 119, "velocity": 90}, {"time": 43557, "pitch": 72, "duration": 362, "velocity": 90}, {"time": 43919, "pitch": 71, "duration": 121, "velocity": 90}, {"time": 44040, "pitch": 69, "duration": 241, "velocity": 90}, {"time": 44281, "pitch": 67, "duration": 238, "velocity": 90}, {"time": 44519, "pitch": 67, "duration": 1082, "velocity": 90}, {"time": 46564, "pitch": 69, "duration": 477, "velocity": 90}, {"time": 47041, "pitch": 69, "duration": 120, "velocity": 90}, {"time": 47161, "pitch": 69, "duration": 238, "velocity": 90}, {"time": 47399, "pitch": 69, "duration": 120, "velocity": 90}, {"time": 47519, "pitch": 67, "duration": 485, "velocity": 90}, {"time": 48004, "pitch": 64, "duration": 119, "velocity": 90}, {"time": 48123, "pitch": 67, "duration": 239, "velocity": 90}, {"time": 48362, "pitch": 67, "duration": 1559, "velocity": 90}, {"time": 50399, "pitch": 69, "duration": 484, "velocity": 90}, {"time": 50883, "pitch": 69, "duration": 120, "velocity": 90}, {"time": 51003, "pitch": 69, "duration": 239, "velocity": 90}, {"time": 51242, "pitch": 69, "duration": 119, "velocity": 90}, {"time": 51361, "pitch": 67, "duration": 478, "velocity": 90}, {"time": 51839, "pitch": 64, "duration": 121, "velocity": 90}, {"time": 51960, "pitch": 67, "duration": 242, "velocity": 90}, {"time": 52202, "pitch": 67, "duration": 1561, "velocity": 90}, {"time": 54241, "pitch": 69, "duration": 478, "velocity": 90}, {"time": 54719, "pitch": 69, "duration": 121, "velocity": 90}, {"time": 54840, "pitch": 69, "duration": 242, "velocity": 90}, {"time": 55082, "pitch": 69, "duration": 121, "velocity": 90}, {"time": 55203, "pitch": 67, "duration": 478, "velocity": 90}, {"time": 55681, "pitch": 64, "duration": 119, "velocity": 90}, {"time": 55800, "pitch": 67, "duration": 239, "velocity": 90}, {"time": 56039, "pitch": 67, "duration": 1560, "velocity": 90}, {"time": 58083, "pitch": 69, "duration": 478, "velocity": 90}, {"time": 58561, "pitch": 69, "duration": 119, "velocity": 90}, {"time": 58680, "pitch": 69, "duration": 239, "velocity": 90}, {"time": 58919, "pitch": 69, "duration": 119, "velocity": 90}, {"time": 59038, "pitch": 67, "duration": 485, "velocity": 90}, {"time": 59523, "pitch": 64, "duration": 120, "velocity": 90}, {"time": 59643, "pitch": 67, "duration": 238, "velocity": 90}, {"time": 59881, "pitch": 69, "duration": 1082, "velocity": 90}, {"time": 61918, "pitch": 71, "duration": 223, "velocity": 90}, {"time": 62161, "pitch": 71, "duration": 101, "velocity": 90}, {"time": 62282, "pitch": 71, "duration": 340, "velocity": 90}, {"time": 62642, "pitch": 71, "duration": 99, "velocity": 90}, {"time": 62761, "pitch": 72, "duration": 339, "velocity": 90}, {"time": 63120, "pitch": 71, "duration": 119, "velocity": 90}, {"time": 63239, "pitch": 69, "duration": 220, "velocity": 90}, {"time": 63480, "pitch": 71, "duration": 222, "velocity": 90}, {"time": 63722, "pitch": 71, "duration": 241, "velocity": 90}, {"time": 63963, "pitch": 67, "duration": 835, "velocity": 90}, {"time": 65641, "pitch": 67, "duration": 120, "velocity": 90}, {"time": 65761, "pitch": 72, "duration": 219, "velocity": 90}, {"time": 66000, "pitch": 72, "duration": 99, "velocity": 90}, {"time": 66119, "pitch": 72, "duration": 342, "velocity": 90}, {"time": 66481, "pitch": 72, "duration": 222, "velocity": 90}, {"time": 66723, "pitch": 72, "duration": 219, "velocity": 90}, {"time": 66962, "pitch": 71, "duration": 119, "velocity": 90}, {"time": 67081, "pitch": 69, "duration": 219, "velocity": 90}, {"time": 67320, "pitch": 67, "duration": 219, "velocity": 90}, {"time": 67559, "pitch": 69, "duration": 1062, "velocity": 90}, {"time": 69603, "pitch": 74, "duration": 219, "velocity": 90}, {"time": 69842, "pitch": 74, "duration": 99, "velocity": 90}, {"time": 69961, "pitch": 74, "duration": 339, "velocity": 90}, {"time": 70319, "pitch": 74, "duration": 120, "velocity": 90}, {"time": 70439, "pitch": 75, "duration": 341, "velocity": 90}, {"time": 70801, "pitch": 71, "duration": 121, "velocity": 90}, {"time": 70922, "pitch": 69, "duration": 220, "velocity": 90}, {"time": 71162, "pitch": 71, "duration": 219, "velocity": 90}, {"time": 71401, "pitch": 69, "duration": 239, "velocity": 90}, {"time": 71640, "pitch": 67, "duration": 119, "velocity": 90}, {"time": 71759, "pitch": 67, "duration": 340, "velocity": 90}, {"time": 72119, "pitch": 69, "duration": 243, "velocity": 90}, {"time": 72362, "pitch": 71, "duration": 937, "velocity": 90}, {"time": 73319, "pitch": 62, "duration": 119, "velocity": 90}, {"time": 73438, "pitch": 64, "duration": 243, "velocity": 90}, {"time": 73681, "pitch": 67, "duration": 121, "velocity": 90}, {"time": 73802, "pitch": 67, "duration": 360, "velocity": 90}, {"time": 74162, "pitch": 71, "duration": 119, "velocity": 90}, {"time": 74281, "pitch": 72, "duration": 358, "velocity": 90}, {"time": 74639, "pitch": 71, "duration": 120, "velocity": 90}, {"time": 74759, "pitch": 69, "duration": 240, "velocity": 90}, {"time": 74999, "pitch": 67, "duration": 243, "velocity": 90}, {"time": 75242, "pitch": 67, "duration": 1056, "velocity": 90}, {"time": 84958, "pitch": 71, "duration": 222, "velocity": 90}, {"time": 85200, "pitch": 71, "duration": 101, "velocity": 90}, {"time": 85321, "pitch": 71, "duration": 341, "velocity": 90}, {"time": 85681, "pitch": 71, "duration": 120, "velocity": 90}, {"time": 85801, "pitch": 72, "duration": 338, "velocity": 90}, {"time": 86159, "pitch": 71, "duration": 119, "velocity": 90}, {"time": 86278, "pitch": 69, "duration": 221, "velocity": 90}, {"time": 86519, "pitch": 71, "duration": 222, "velocity": 90}, {"time": 86761, "pitch": 71, "duration": 241, "velocity": 90}, {"time": 87002, "pitch": 67, "duration": 836, "velocity": 90}, {"time": 88681, "pitch": 67, "duration": 119, "velocity": 90}, {"time": 88800, "pitch": 72, "duration": 219, "velocity": 90}, {"time": 89039, "pitch": 72, "duration": 99, "velocity": 90}, {"time": 89158, "pitch": 72, "duration": 342, "velocity": 90}, {"time": 89520, "pitch": 72, "duration": 222, "velocity": 90}, {"time": 89763, "pitch": 72, "duration": 218, "velocity": 90}, {"time": 90001, "pitch": 71, "duration": 120, "velocity": 90}, {"time": 90121, "pitch": 69, "duration": 219, "velocity": 90}, {"time": 90360, "pitch": 67, "duration": 218, "velocity": 90}, {"time": 90598, "pitch": 69, "duration": 1062, "velocity": 90}, {"time": 92642, "pitch": 74, "duration": 219, "velocity": 90}, {"time": 92881, "pitch": 74, "duration": 100, "velocity": 90}, {"time": 93001, "pitch": 74, "duration": 338, "velocity": 90}, {"time": 93359, "pitch": 74, "duration": 119, "velocity": 90}, {"time": 93478, "pitch": 75, "duration": 342, "velocity": 90}, {"time": 93840, "pitch": 71, "duration": 121, "velocity": 90}, {"time": 93961, "pitch": 69, "duration": 221, "velocity": 90}, {"time": 94202, "pitch": 71, "duration": 219, "velocity": 90}, {"time": 94441, "pitch": 69, "duration": 358, "velocity": 90}, {"time": 94799, "pitch": 67, "duration": 119, "velocity": 90}, {"time": 94918, "pitch": 67, "duration": 241, "velocity": 90}, {"time": 95159, "pitch": 69, "duration": 242, "velocity": 90}, {"time": 95401, "pitch": 71, "duration": 937, "velocity": 90}, {"time": 96358, "pitch": 62, "duration": 120, "velocity": 90}, {"time": 96478, "pitch": 64, "duration": 242, "velocity": 90}, {"time": 96720, "pitch": 67, "duration": 121, "velocity": 90}, {"time": 96841, "pitch": 67, "duration": 360, "velocity": 90}, {"time": 97201, "pitch": 71, "duration": 120, "velocity": 90}, {"time": 97321, "pitch": 72, "duration": 358, "velocity": 90}, {"time": 97679, "pitch": 71, "duration": 119, "velocity": 90}, {"time": 97798, "pitch": 69, "duration": 241, "velocity": 90}, {"time": 98039, "pitch": 67, "duration": 242, "velocity": 90}, {"time": 98281, "pitch": 67, "duration": 1057, "velocity": 90}, {"time": 100320, "pitch": 69, "duration": 477, "velocity": 90}, {"time": 100797, "pitch": 69, "duration": 122, "velocity": 90}, {"time": 100919, "pitch": 69, "duration": 242, "velocity": 90}, {"time": 101161, "pitch": 69, "duration": 121, "velocity": 90}, {"time": 101282, "pitch": 67, "duration": 478, "velocity": 90}, {"time": 101760, "pitch": 64, "duration": 119, "velocity": 90}, {"time": 101879, "pitch": 67, "duration": 239, "velocity": 90}, {"time": 102118, "pitch": 67, "duration": 1559, "velocity": 90}, {"time": 104162, "pitch": 69, "duration": 478, "velocity": 90}, {"time": 104640, "pitch": 69, "duration": 119, "velocity": 90}, {"time": 104759, "pitch": 69, "duration": 239, "velocity": 90}, {"time": 104998, "pitch": 69, "duration": 119, "velocity": 90}, {"time": 105117, "pitch": 67, "duration": 485, "velocity": 90}, {"time": 105602, "pitch": 64, "duration": 120, "velocity": 90}, {"time": 105722, "pitch": 67, "duration": 238, "velocity": 90}, {"time": 105960, "pitch": 67, "duration": 1560, "velocity": 90}, {"time": 107997, "pitch": 69, "duration": 485, "velocity": 90}, {"time": 108482, "pitch": 69, "duration": 119, "velocity": 90}, {"time": 108601, "pitch": 69, "duration": 239, "velocity": 90}, {"time": 108840, "pitch": 69, "duration": 120, "velocity": 90}, {"time": 108960, "pitch": 67, "duration": 477, "velocity": 90}, {"time": 109437, "pitch": 64, "duration": 121, "velocity": 90}, {"time": 109558, "pitch": 67, "duration": 243, "velocity": 90}, {"time": 109801, "pitch": 67, "duration": 1561, "velocity": 90}, {"time": 111840, "pitch": 69, "duration": 477, "velocity": 90}, {"time": 112317, "pitch": 69, "duration": 121, "velocity": 90}, {"time": 112438, "pitch": 69, "duration": 243, "velocity": 90}, {"time": 112681, "pitch": 69, "duration": 121, "velocity": 90}, {"time": 112802, "pitch": 67, "duration": 478, "velocity": 90}, {"time": 113280, "pitch": 64, "duration": 119, "velocity": 90}, {"time": 113399, "pitch": 67, "duration": 239, "velocity": 90}, {"time": 113638, "pitch": 69, "duration": 1081, "velocity": 90}, {"time": 115561, "pitch": 62, "duration": 121, "velocity": 90}, {"time": 115682, "pitch": 71, "duration": 219, "velocity": 90}, {"time": 115921, "pitch": 71, "duration": 99, "velocity": 90}, {"time": 116040, "pitch": 71, "duration": 338, "velocity": 90}, {"time": 116398, "pitch": 71, "duration": 100, "velocity": 90}, {"time": 116518, "pitch": 72, "duration": 341, "velocity": 90}, {"time": 116879, "pitch": 71, "duration": 122, "velocity": 90}, {"time": 117001, "pitch": 69, "duration": 220, "velocity": 90}, {"time": 117241, "pitch": 71, "duration": 219, "velocity": 90}, {"time": 117480, "pitch": 71, "duration": 239, "velocity": 90}, {"time": 117719, "pitch": 67, "duration": 843, "velocity": 90}, {"time": 119398, "pitch": 67, "duration": 119, "velocity": 90}, {"time": 119517, "pitch": 72, "duration": 222, "velocity": 90}, {"time": 119759, "pitch": 72, "duration": 101, "velocity": 90}, {"time": 119881, "pitch": 72, "duration": 220, "velocity": 90}, {"time": 120121, "pitch": 72, "duration": 219, "velocity": 90}, {"time": 120360, "pitch": 72, "duration": 338, "velocity": 90}, {"time": 120718, "pitch": 71, "duration": 120, "velocity": 90}, {"time": 120838, "pitch": 69, "duration": 220, "velocity": 90}, {"time": 121078, "pitch": 67, "duration": 222, "velocity": 90}, {"time": 121321, "pitch": 69, "duration": 1056, "velocity": 90}, {"time": 123359, "pitch": 74, "duration": 219, "velocity": 90}, {"time": 123598, "pitch": 74, "duration": 100, "velocity": 90}, {"time": 123717, "pitch": 74, "duration": 342, "velocity": 90}, {"time": 124079, "pitch": 74, "duration": 121, "velocity": 90}, {"time": 124200, "pitch": 75, "duration": 341, "velocity": 90}, {"time": 124560, "pitch": 71, "duration": 120, "velocity": 90}, {"time": 124680, "pitch": 69, "duration": 219, "velocity": 90}, {"time": 124919, "pitch": 71, "duration": 219, "velocity": 90}, {"time": 125157, "pitch": 69, "duration": 362, "velocity": 90}, {"time": 125519, "pitch": 67, "duration": 121, "velocity": 90}, {"time": 125640, "pitch": 67, "duration": 241, "velocity": 90}, {"time": 125881, "pitch": 69, "duration": 239, "velocity": 90}, {"time": 126120, "pitch": 71, "duration": 940, "velocity": 90}, {"time": 127080, "pitch": 62, "duration": 122, "velocity": 90}, {"time": 127202, "pitch": 64, "duration": 238, "velocity": 90}, {"time": 127440, "pitch": 67, "duration": 120, "velocity": 90}, {"time": 127560, "pitch": 67, "duration": 358, "velocity": 90}, {"time": 127918, "pitch": 71, "duration": 119, "velocity": 90}, {"time": 128037, "pitch": 72, "duration": 362, "velocity": 90}, {"time": 128399, "pitch": 71, "duration": 121, "velocity": 90}, {"time": 128520, "pitch": 69, "duration": 241, "velocity": 90}, {"time": 128761, "pitch": 67, "duration": 239, "velocity": 90}, {"time": 129000, "pitch": 67, "duration": 1082, "velocity": 90}, {"time": 130917, "pitch": 62, "duration": 120, "velocity": 90}, {"time": 131037, "pitch": 64, "duration": 242, "velocity": 90}, {"time": 131279, "pitch": 67, "duration": 121, "velocity": 90}, {"time": 131400, "pitch": 67, "duration": 360, "velocity": 90}, {"time": 131760, "pitch": 71, "duration": 120, "velocity": 90}, {"time": 131880, "pitch": 72, "duration": 358, "velocity": 90}, {"time": 132238, "pitch": 71, "duration": 119, "velocity": 90}, {"time": 132357, "pitch": 69, "duration": 241, "velocity": 90}, {"time": 132598, "pitch": 67, "duration": 242, "velocity": 90}, {"time": 132840, "pitch": 67, "duration": 2019, "velocity": 90}], "annotations": [{"time": 277, "annotation": {"number": 7, "value": 120}, "group": "control_change"}, {"time": 277, "annotation": {"number": 10, "value": 64}, "group": "control_change"}, {"time": 277, "annotation": {"number": 11, "value": 100}, "group": "control_change"}, {"time": 290, "annotation": {"number": 91, "value": 40}, "group": "control_change"}, {"time": 290, "annotation": {"number": 93, "value": 0}, "group": "control_change"}, {"time": 441, "annotation": {"number": 101, "value": 0}, "group": "control_change"}, {"time": 453, "annotation": {"number": 100, "value": 0}, "group": "control_change"}, {"time": 466, "annotation": {"number": 6, "value": 12}, "group": "control_change"}, {"time": 478, "annotation": {"number": 1, "value": 0}, "group": "control_change"}, {"time": 478, "annotation": {"number": 64, "value": 0}, "group": "control_change"}]}, {"program": 0, "is_drum": false, "name": "Chorus", "annotations": [{"time": 264, "annotation": {"number": 0, "value": 0}, "group": "control_change"}, {"time": 264, "annotation": {"number": 32, "value": 2}, "group": "control_change"}]}, {"program": 71, "is_drum": false, "name": "Chorus", "notes": [{"time": 8162, "pitch": 67, "duration": 219, "velocity": 90}, {"time": 8401, "pitch": 67, "duration": 99, "velocity": 90}, {"time": 8520, "pitch": 67, "duration": 339, "velocity": 90}, {"time": 8879, "pitch": 67, "duration": 99, "velocity": 90}, {"time": 8998, "pitch": 69, "duration": 342, "velocity": 90}, {"time": 9360, "pitch": 67, "duration": 121, "velocity": 90}, {"time": 9481, "pitch": 66, "duration": 221, "velocity": 90}, {"time": 9722, "pitch": 67, "duration": 218, "velocity": 90}, {"time": 9960, "pitch": 67, "duration": 239, "velocity": 90}, {"time": 10199, "pitch": 64, "duration": 843, "velocity": 90}, {"time": 11878, "pitch": 64, "duration": 119, "velocity": 90}, {"time": 11997, "pitch": 67, "duration": 222, "velocity": 90}, {"time": 12240, "pitch": 67, "duration": 101, "velocity": 90}, {"time": 12361, "pitch": 67, "duration": 221, "velocity": 90}, {"time": 12601, "pitch": 67, "duration": 219, "velocity": 90}, {"time": 12840, "pitch": 67, "duration": 100, "velocity": 90}, {"time": 12960, "pitch": 67, "duration": 219, "velocity": 90}, {"time": 13198, "pitch": 67, "duration": 120, "velocity": 90}, {"time": 13318, "pitch": 66, "duration": 220, "velocity": 90}, {"time": 13558, "pitch": 62, "duration": 223, "velocity": 90}, {"time": 13801, "pitch": 64, "duration": 1056, "velocity": 90}, {"time": 15840, "pitch": 69, "duration": 218, "velocity": 90}, {"time": 16078, "pitch": 69, "duration": 100, "velocity": 90}, {"time": 16198, "pitch": 69, "duration": 341, "velocity": 90}, {"time": 16560, "pitch": 69, "duration": 121, "velocity": 90}, {"time": 16681, "pitch": 72, "duration": 340, "velocity": 90}, {"time": 17041, "pitch": 67, "duration": 119, "velocity": 90}, {"time": 17160, "pitch": 66, "duration": 219, "velocity": 90}, {"time": 17399, "pitch": 67, "duration": 219, "velocity": 90}, {"time": 17638, "pitch": 66, "duration": 240, "velocity": 90}, {"time": 17878, "pitch": 64, "duration": 122, "velocity": 90}, {"time": 18000, "pitch": 64, "duration": 341, "velocity": 90}, {"time": 18361, "pitch": 66, "duration": 239, "velocity": 90}, {"time": 18600, "pitch": 67, "duration": 940, "velocity": 90}, {"time": 19561, "pitch": 59, "duration": 121, "velocity": 90}, {"time": 19682, "pitch": 60, "duration": 239, "velocity": 90}, {"time": 19921, "pitch": 64, "duration": 119, "velocity": 90}, {"time": 20040, "pitch": 64, "duration": 358, "velocity": 90}, {"time": 20398, "pitch": 67, "duration": 120, "velocity": 90}, {"time": 20518, "pitch": 69, "duration": 361, "velocity": 90}, {"time": 20879, "pitch": 67, "duration": 122, "velocity": 90}, {"time": 21001, "pitch": 66, "duration": 240, "velocity": 90}, {"time": 21241, "pitch": 62, "duration": 239, "velocity": 90}, {"time": 21480, "pitch": 62, "duration": 1082, "velocity": 90}, {"time": 31202, "pitch": 67, "duration": 218, "velocity": 90}, {"time": 31440, "pitch": 67, "duration": 100, "velocity": 90}, {"time": 31560, "pitch": 67, "duration": 338, "velocity": 90}, {"time": 31918, "pitch": 67, "duration": 99, "velocity": 90}, {"time": 32037, "pitch": 69, "duration": 342, "velocity": 90}, {"time": 32399, "pitch": 67, "duration": 121, "velocity": 90}, {"time": 32520, "pitch": 66, "duration": 221, "velocity": 90}, {"time": 32761, "pitch": 67, "duration": 219, "velocity": 90}, {"time": 33000, "pitch": 67, "duration": 239, "velocity": 90}, {"time": 33239, "pitch": 64, "duration": 843, "velocity": 90}, {"time": 34917, "pitch": 64, "duration": 120, "velocity": 90}, {"time": 35037, "pitch": 67, "duration": 222, "velocity": 90}, {"time": 35279, "pitch": 67, "duration": 101, "velocity": 90}, {"time": 35400, "pitch": 67, "duration": 221, "velocity": 90}, {"time": 35641, "pitch": 67, "duration": 219, "velocity": 90}, {"time": 35880, "pitch": 67, "duration": 338, "velocity": 90}, {"time": 36238, "pitch": 67, "duration": 119, "velocity": 90}, {"time": 36357, "pitch": 66, "duration": 221, "velocity": 90}, {"time": 36598, "pitch": 62, "duration": 222, "velocity": 90}, {"time": 36840, "pitch": 64, "duration": 1057, "velocity": 90}, {"time": 38879, "pitch": 69, "duration": 219, "velocity": 90}, {"time": 39118, "pitch": 69, "duration": 99, "velocity": 90}, {"time": 39237, "pitch": 69, "duration": 342, "velocity": 90}, {"time": 39599, "pitch": 69, "duration": 121, "velocity": 90}, {"time": 39720, "pitch": 72, "duration": 340, "velocity": 90}, {"time": 40080, "pitch": 67, "duration": 120, "velocity": 90}, {"time": 40200, "pitch": 66, "duration": 218, "velocity": 90}, {"time": 40438, "pitch": 67, "duration": 219, "velocity": 90}, {"time": 40677, "pitch": 66, "duration": 342, "velocity": 90}, {"time": 41039, "pitch": 64, "duration": 121, "velocity": 90}, {"time": 41160, "pitch": 64, "duration": 221, "velocity": 90}, {"time": 41401, "pitch": 66, "duration": 239, "velocity": 90}, {"time": 41640, "pitch": 67, "duration": 940, "velocity": 90}, {"time": 42600, "pitch": 59, "duration": 121, "velocity": 90}, {"time": 42721, "pitch": 60, "duration": 239, "velocity": 90}, {"time": 42960, "pitch": 64, "duration": 119, "velocity": 90}, {"time": 43079, "pitch": 64, "duration": 359, "velocity": 90}, {"time": 43438, "pitch": 67, "duration": 119, "velocity": 90}, {"time": 43557, "pitch": 69, "duration": 362, "velocity": 90}, {"time": 43919, "pitch": 67, "duration": 121, "velocity": 90}, {"time": 44040, "pitch": 66, "duration": 241, "velocity": 90}, {"time": 44281, "pitch": 62, "duration": 238, "velocity": 90}, {"time": 44519, "pitch": 62, "duration": 1082, "velocity": 90}, {"time": 46564, "pitch": 65, "duration": 477, "velocity": 90}, {"time": 47041, "pitch": 65, "duration": 120, "velocity": 90}, {"time": 47161, "pitch": 65, "duration": 238, "velocity": 90}, {"time": 47399, "pitch": 65, "duration": 120, "velocity": 90}, {"time": 47519, "pitch": 64, "duration": 485, "velocity": 90}, {"time": 48004, "pitch": 60, "duration": 119, "velocity": 90}, {"time": 48123, "pitch": 64, "duration": 239, "velocity": 90}, {"time": 48362, "pitch": 62, "duration": 1559, "velocity": 90}, {"time": 50399, "pitch": 65, "duration": 484, "velocity": 90}, {"time": 50883, "pitch": 65, "duration": 120, "velocity": 90}, {"time": 51003, "pitch": 65, "duration": 239, "velocity": 90}, {"time": 51242, "pitch": 65, "duration": 119, "velocity": 90}, {"time": 51361, "pitch": 64, "duration": 478, "velocity": 90}, {"time": 51839, "pitch": 60, "duration": 121, "velocity": 90}, {"time": 51960, "pitch": 64, "duration": 242, "velocity": 90}, {"time": 52202, "pitch": 62, "duration": 1561, "velocity": 90}, {"time": 54241, "pitch": 65, "duration": 478, "velocity": 90}, {"time": 54719, "pitch": 65, "duration": 121, "velocity": 90}, {"time": 54840, "pitch": 65, "duration": 242, "velocity": 90}, {"time": 55082, "pitch": 65, "duration": 121, "velocity": 90}, {"time": 55203, "pitch": 64, "duration": 478, "velocity": 90}, {"time": 55681, "pitch": 60, "duration": 119, "velocity": 90}, {"time": 55800, "pitch": 64, "duration": 239, "velocity": 90}, {"time": 56039, "pitch": 62, "duration": 1560, "velocity": 90}, {"time": 58083, "pitch": 65, "duration": 478, "velocity": 90}, {"time": 58561, "pitch": 65, "duration": 119, "velocity": 90}, {"time": 58680, "pitch": 65, "duration": 239, "velocity": 90}, {"time": 58919, "pitch": 65, "duration": 119, "velocity": 90}, {"time": 59038, "pitch": 64, "duration": 485, "velocity": 90}, {"time": 59523, "pitch": 60, "duration": 120, "velocity": 90}, {"time": 59643, "pitch": 64, "duration": 238, "velocity": 90}, {"time": 59881, "pitch": 66, "duration": 1082, "velocity": 90}, {"time": 61918, "pitch": 67, "duration": 223, "velocity": 90}, {"time": 62161, "pitch": 67, "duration": 101, "velocity": 90}, {"time": 62282, "pitch": 67, "duration": 340, "velocity": 90}, {"time": 62642, "pitch": 67, "duration": 99, "velocity": 90}, {"time": 62761, "pitch": 69, "duration": 339, "velocity": 90}, {"time": 63120, "pitch": 67, "duration": 119, "velocity": 90}, {"time": 63239, "pitch": 66, "duration": 220, "velocity": 90}, {"time": 63480, "pitch": 67, "duration": 222, "velocity": 90}, {"time": 63722, "pitch": 67, "duration": 241, "velocity": 90}, {"time": 63963, "pitch": 64, "duration": 835, "velocity": 90}, {"time": 65641, "pitch": 64, "duration": 120, "velocity": 90}, {"time": 65761, "pitch": 67, "duration": 219, "velocity": 90}, {"time": 66000, "pitch": 67, "duration": 99, "velocity": 90}, {"time": 66119, "pitch": 67, "duration": 342, "velocity": 90}, {"time": 66481, "pitch": 67, "duration": 222, "velocity": 90}, {"time": 66723, "pitch": 67, "duration": 219, "velocity": 90}, {"time": 66962, "pitch": 67, "duration": 119, "velocity": 90}, {"time": 67081, "pitch": 66, "duration": 219, "velocity": 90}, {"time": 67320, "pitch": 62, "duration": 219, "velocity": 90}, {"time": 67559, "pitch": 64, "duration": 1062, "velocity": 90}, {"time": 69603, "pitch": 69, "duration": 219, "velocity": 90}, {"time": 69842, "pitch": 69, "duration": 99, "velocity": 90}, {"time": 69961, "pitch": 69, "duration": 339, "velocity": 90}, {"time": 70319, "pitch": 69, "duration": 120, "velocity": 90}, {"time": 70439, "pitch": 72, "duration": 341, "velocity": 90}, {"time": 70801, "pitch": 67, "duration": 121, "velocity": 90}, {"time": 70922, "pitch": 66, "duration": 220, "velocity": 90}, {"time": 71162, "pitch": 67, "duration": 219, "velocity": 90}, {"time": 71401, "pitch": 66, "duration": 239, "velocity": 90}, {"time": 71640, "pitch": 64, "duration": 119, "velocity": 90}, {"time": 71759, "pitch": 64, "duration": 340, "velocity": 90}, {"time": 72119, "pitch": 66, "duration": 243, "velocity": 90}, {"time": 72362, "pitch": 67, "duration": 937, "velocity": 90}, {"time": 73319, "pitch": 59, "duration": 119, "velocity": 90}, {"time": 73438, "pitch": 60, "duration": 243, "velocity": 90}, {"time": 73681, "pitch": 64, "duration": 121, "velocity": 90}, {"time": 73802, "pitch": 64, "duration": 360, "velocity": 90}, {"time": 74162, "pitch": 67, "duration": 119, "velocity": 90}, {"time": 74281, "pitch": 69, "duration": 358, "velocity": 90}, {"time": 74639, "pitch": 67, "duration": 120, "velocity": 90}, {"time": 74759, "pitch": 66, "duration": 240, "velocity": 90}, {"time": 74999, "pitch": 62, "duration": 243, "velocity": 90}, {"time": 75242, "pitch": 62, "duration": 1056, "velocity": 90}, {"time": 84958, "pitch": 67, "duration": 222, "velocity": 90}, {"time": 85200, "pitch": 67, "duration": 101, "velocity": 90}, {"time": 85321, "pitch": 67, "duration": 341, "velocity": 90}, {"time": 85681, "pitch": 67, "duration": 100, "velocity": 90}, {"time": 85801, "pitch": 69, "duration": 338, "velocity": 90}, {"time": 86159, "pitch": 67, "duration": 119, "velocity": 90}, {"time": 86278, "pitch": 66, "duration": 221, "velocity": 90}, {"time": 86519, "pitch": 67, "duration": 222, "velocity": 90}, {"time": 86761, "pitch": 67, "duration": 241, "velocity": 90}, {"time": 87002, "pitch": 64, "duration": 836, "velocity": 90}, {"time": 88681, "pitch": 64, "duration": 119, "velocity": 90}, {"time": 88800, "pitch": 67, "duration": 219, "velocity": 90}, {"time": 89039, "pitch": 67, "duration": 99, "velocity": 90}, {"time": 89158, "pitch": 67, "duration": 342, "velocity": 90}, {"time": 89520, "pitch": 67, "duration": 222, "velocity": 90}, {"time": 89763, "pitch": 67, "duration": 218, "velocity": 90}, {"time": 90001, "pitch": 67, "duration": 120, "velocity": 90}, {"time": 90121, "pitch": 66, "duration": 219, "velocity": 90}, {"time": 90360, "pitch": 62, "duration": 218, "velocity": 90}, {"time": 90598, "pitch": 64, "duration": 1062, "velocity": 90}, {"time": 92642, "pitch": 69, "duration": 219, "velocity": 90}, {"time": 92881, "pitch": 69, "duration": 100, "velocity": 90}, {"time": 93001, "pitch": 69, "duration": 338, "velocity": 90}, {"time": 93359, "pitch": 69, "duration": 119, "velocity": 90}, {"time": 93478, "pitch": 72, "duration": 342, "velocity": 90}, {"time": 93840, "pitch": 67, "duration": 121, "velocity": 90}, {"time": 93961, "pitch": 66, "duration": 221, "velocity": 90}, {"time": 94202, "pitch": 67, "duration": 219, "velocity": 90}, {"time": 94441, "pitch": 66, "duration": 338, "velocity": 90}, {"time": 94799, "pitch": 64, "duration": 119, "velocity": 90}, {"time": 94918, "pitch": 64, "duration": 221, "velocity": 90}, {"time": 95159, "pitch": 66, "duration": 242, "velocity": 90}, {"time": 95401, "pitch": 67, "duration": 937, "velocity": 90}, {"time": 96358, "pitch": 59, "duration": 120, "velocity": 90}, {"time": 96478, "pitch": 60, "duration": 242, "velocity": 90}, {"time": 96720, "pitch": 64, "duration": 121, "velocity": 90}, {"time": 96841, "pitch": 64, "duration": 360, "velocity": 90}, {"time": 97201, "pitch": 67, "duration": 120, "velocity": 90}, {"time": 97321, "pitch": 69, "duration": 358, "velocity": 90}, {"time": 97679, "pitch": 67, "duration": 119, "velocity": 90}, {"time": 97798, "pitch": 66, "duration": 241, "velocity": 90}, {"time": 98039, "pitch": 62, "duration": 242, "velocity": 90}, {"time": 98281, "pitch": 62, "duration": 1057, "velocity": 90}, {"time": 100320, "pitch": 65, "duration": 477, "velocity": 90}, {"time": 100797, "pitch": 65, "duration": 122, "velocity": 90}, {"time": 100919, "pitch": 65, "duration": 242, "velocity": 90}, {"time": 101161, "pitch": 65, "duration": 121, "velocity": 90}, {"time": 101282, "pitch": 64, "duration": 478, "velocity": 90}, {"time": 101760, "pitch": 60, "duration": 119, "velocity": 90}, {"time": 101879, "pitch": 64, "duration": 239, "velocity": 90}, {"time": 102118, "pitch": 62, "duration": 1559, "velocity": 90}, {"time": 104162, "pitch": 65, "duration": 478, "velocity": 90}, {"time": 104640, "pitch": 65, "duration": 119, "velocity": 90}, {"time": 104759, "pitch": 65, "duration": 239, "velocity": 90}, {"time": 104998, "pitch": 65, "duration": 119, "velocity": 90}, {"time": 105117, "pitch": 64, "duration": 485, "velocity": 90}, {"time": 105602, "pitch": 60, "duration": 120, "velocity": 90}, {"time": 105722, "pitch": 64, "duration": 238, "velocity": 90}, {"time": 105960, "pitch": 62, "duration": 1560, "velocity": 90}, {"time": 107997, "pitch": 65, "duration": 485, "velocity": 90}, {"time": 108482, "pitch": 65, "duration": 119, "velocity": 90}, {"time": 108601, "pitch": 65, "duration": 239, "velocity": 90}, {"time": 108840, "pitch": 65, "duration": 120, "velocity": 90}, {"time": 108960, "pitch": 64, "duration": 477, "velocity": 90}, {"time": 109437, "pitch": 60, "duration": 121, "velocity": 90}, {"time": 109558, "pitch": 64, "duration": 243, "velocity": 90}, {"time": 109801, "pitch": 62, "duration": 1561, "velocity": 90}, {"time": 111840, "pitch": 65, "duration": 477, "velocity": 90}, {"time": 112317, "pitch": 65, "duration": 121, "velocity": 90}, {"time": 112438, "pitch": 65, "duration": 243, "velocity": 90}, {"time": 112681, "pitch": 65, "duration": 121, "velocity": 90}, {"time": 112802, "pitch": 64, "duration": 478, "velocity": 90}, {"time": 113280, "pitch": 60, "duration": 119, "velocity": 90}, {"time": 113399, "pitch": 64, "duration": 239, "velocity": 90}, {"time": 113638, "pitch": 66, "duration": 1081, "velocity": 90}], "annotations": [{"time": 277, "annotation": {"number": 7, "value": 120}, "group": "control_change"}, {"time": 277, "annotation": {"number": 10, "value": 64}, "group": "control_change"}, {"time": 277, "annotation": {"number": 11, "value": 100}, "group": "control_change"}, {"time": 290, "annotation": {"number": 91, "value": 40}, "group": "control_change"}, {"time": 290, "annotation": {"number": 93, "value": 0}, "group": "control_change"}, {"time": 441, "annotation": {"number": 101, "value": 0}, "group": "control_change"}, {"time": 453, "annotation": {"number": 100, "value": 0}, "group": "control_change"}, {"time": 466, "annotation": {"number": 6, "value": 12}, "group": "control_change"}, {"time": 478, "annotation": {"number": 1, "value": 0}, "group": "control_change"}, {"time": 478, "annotation": {"number": 64, "value": 0}, "group": "control_change"}]}, {"program": 0, "is_drum": false, "name": "Guitar R Sub", "annotations": [{"time": 201, "annotation": {"number": 0, "value": 0}, "group": "control_change"}, {"time": 201, "annotation": {"number": 32, "value": 2}, "group": "control_change"}]}, {"program": 25, "is_drum": false, "name": "Guitar R Sub", "notes": [{"time": 3721, "pitch": 66, "duration": 599, "velocity": 110}, {"time": 80519, "pitch": 66, "duration": 604, "velocity": 110}, {"time": 136080, "pitch": 66, "duration": 717, "velocity": 110}], "annotations": [{"time": 214, "annotation": {"number": 7, "value": 120}, "group": "control_change"}, {"time": 214, "annotation": {"number": 10, "value": 64}, "group": "control_change"}, {"time": 214, "annotation": {"number": 11, "value": 100}, "group": "control_change"}, {"time": 227, "annotation": {"number": 91, "value": 60}, "group": "control_change"}, {"time": 227, "annotation": {"number": 93, "value": 0}, "group": "control_change"}, {"time": 390, "annotation": {"number": 101, "value": 0}, "group": "control_change"}, {"time": 403, "annotation": {"number": 100, "value": 0}, "group": "control_change"}, {"time": 416, "annotation": {"number": 6, "value": 12}, "group": "control_change"}, {"time": 428, "annotation": {"number": 1, "value": 0}, "group": "control_change"}, {"time": 428, "annotation": {"number": 64, "value": 0}, "group": "control_change"}]}]}