{"metadata": {"schema_version": "0.1", "title": "RWC-MDB-P-2001 No. 67: Tokei no hayasa wa / Makiko Hattori", "copyright": "RWC Music Database. Copyright (C) 2001 Real World Computing Partnership (contact: Masataka GOTO <m.goto@aist.go.jp>)", "source_filename": "RM-P067.SMF_SYNC.MID", "source_format": "midi"}, "resolution": 480, "tempos": [{"time": 0, "qpm": 59.40594059405941}, {"time": 480, "qpm": 88.23529411764706}, {"time": 2400, "qpm": 86.95652173913044}, {"time": 2880, "qpm": 88.23529411764706}, {"time": 4800, "qpm": 86.95652173913044}, {"time": 5280, "qpm": 88.23529411764706}, {"time": 6720, "qpm": 86.95652173913044}, {"time": 7200, "qpm": 89.55223880597015}, {"time": 7680, "qpm": 86.95652173913044}, {"time": 8160, "qpm": 88.23529411764706}, {"time": 10560, "qpm": 86.95652173913044}, {"time": 11040, "qpm": 88.23529411764706}, {"time": 12960, "qpm": 86.95652173913044}, {"time": 13440, "qpm": 88.23529411764706}, {"time": 15360, "qpm": 86.95652173913044}, {"time": 15840, "qpm": 89.55223880597015}, {"time": 16320, "qpm": 86.95652173913044}, {"time": 16800, "qpm": 88.23529411764706}, {"time": 18240, "qpm": 86.95652173913044}, {"time": 18720, "qpm": 89.55223880597015}, {"time": 19200, "qpm": 86.95652173913044}, {"time": 19680, "qpm": 88.23529411764706}, {"time": 21120, "qpm": 86.95652173913044}, {"time": 21600, "qpm": 89.55223880597015}, {"time": 22080, "qpm": 86.95652173913044}, {"time": 22560, "qpm": 88.23529411764706}, {"time": 23040, "qpm": 86.95652173913044}, {"time": 23520, "qpm": 89.55223880597015}, {"time": 24000, "qpm": 86.95652173913044}, {"time": 24480, "qpm": 88.23529411764706}, {"time": 26880, "qpm": 86.95652173913044}, {"time": 27360, "qpm": 89.55223880597015}, {"time": 27840, "qpm": 86.95652173913044}, {"time": 28320, "qpm": 88.23529411764706}, {"time": 29760, "qpm": 86.95652173913044}, {"time": 30240, "qpm": 88.23529411764706}, {"time": 30720, "qpm": 86.95652173913044}, {"time": 31200, "qpm": 89.55223880597015}, {"time": 31680, "qpm": 86.95652173913044}, {"time": 32160, "qpm": 89.55223880597015}, {"time": 32640, "qpm": 86.95652173913044}, {"time": 33120, "qpm": 88.23529411764706}, {"time": 34560, "qpm": 86.95652173913044}, {"time": 35040, "qpm": 89.55223880597015}, {"time": 35520, "qpm": 86.95652173913044}, {"time": 36000, "qpm": 88.23529411764706}, {"time": 37440, "qpm": 86.95652173913044}, {"time": 37920, "qpm": 89.55223880597015}, {"time": 38400, "qpm": 86.95652173913044}, {"time": 38880, "qpm": 88.23529411764706}, {"time": 40320, "qpm": 86.95652173913044}, {"time": 40800, "qpm": 88.23529411764706}, {"time": 42240, "qpm": 86.95652173913044}, {"time": 42720, "qpm": 89.55223880597015}, {"time": 43200, "qpm": 86.95652173913044}, {"time": 43680, "qpm": 89.55223880597015}, {"time": 44160, "qpm": 86.95652173913044}, {"time": 44640, "qpm": 88.23529411764706}, {"time": 46080, "qpm": 86.95652173913044}, {"time": 46560, "qpm": 88.23529411764706}, {"time": 48000, "qpm": 86.95652173913044}, {"time": 48480, "qpm": 89.55223880597015}, {"time": 48960, "qpm": 86.95652173913044}, {"time": 49440, "qpm": 88.23529411764706}, {"time": 50880, "qpm": 86.95652173913044}, {"time": 51360, "qpm": 89.55223880597015}, {"time": 51840, "qpm": 86.95652173913044}, {"time": 52320, "qpm": 88.23529411764706}, {"time": 53760, "qpm": 86.95652173913044}, {"time": 54240, "qpm": 88.23529411764706}, {"time": 56640, "qpm": 86.95652173913044}, {"time": 57120, "qpm": 88.23529411764706}, {"time": 59520, "qpm": 86.95652173913044}, {"time": 60000, "qpm": 89.55223880597015}, {"time": 60480, "qpm": 86.95652173913044}, {"time": 60960, "qpm": 88.23529411764706}, {"time": 61440, "qpm": 86.95652173913044}, {"time": 61920, "qpm": 89.55223880597015}, {"time": 62400, "qpm": 86.95652173913044}, {"time": 62880, "qpm": 88.23529411764706}, {"time": 64800, "qpm": 86.95652173913044}, {"time": 65280, "qpm": 88.23529411764706}, {"time": 68160, "qpm": 86.95652173913044}, {"time": 68640, "qpm": 88.23529411764706}, {"time": 71040, "qpm": 86.95652173913044}, {"time": 71520, "qpm": 89.55223880597015}, {"time": 72000, "qpm": 88.23529411764706}, {"time": 72480, "qpm": 86.95652173913044}, {"time": 73440, "qpm": 89.55223880597015}, {"time": 73920, "qpm": 88.23529411764706}, {"time": 74880, "qpm": 86.95652173913044}, {"time": 75360, "qpm": 88.23529411764706}, {"time": 76320, "qpm": 86.95652173913044}, {"time": 76800, "qpm": 88.23529411764706}, {"time": 79680, "qpm": 86.95652173913044}, {"time": 80160, "qpm": 88.23529411764706}, {"time": 81600, "qpm": 86.95652173913044}, {"time": 82080, "qpm": 89.55223880597015}, {"time": 82560, "qpm": 86.95652173913044}, {"time": 83040, "qpm": 88.23529411764706}, {"time": 84480, "qpm": 86.95652173913044}, {"time": 84960, "qpm": 89.55223880597015}, {"time": 85440, "qpm": 86.95652173913044}, {"time": 85920, "qpm": 88.23529411764706}, {"time": 88800, "qpm": 86.95652173913044}, {"time": 89280, "qpm": 88.23529411764706}, {"time": 90240, "qpm": 86.95652173913044}, {"time": 90720, "qpm": 88.23529411764706}, {"time": 93120, "qpm": 86.95652173913044}, {"time": 93600, "qpm": 88.23529411764706}, {"time": 95040, "qpm": 86.95652173913044}, {"time": 95520, "qpm": 88.23529411764706}, {"time": 97920, "qpm": 86.95652173913044}, {"time": 98400, "qpm": 89.55223880597015}, {"time": 98880, "qpm": 86.95652173913044}, {"time": 99360, "qpm": 88.23529411764706}, {"time": 100800, "qpm": 86.95652173913044}, {"time": 101280, "qpm": 89.55223880597015}, {"time": 101760, "qpm": 86.95652173913044}, {"time": 102240, "qpm": 88.23529411764706}, {"time": 103680, "qpm": 86.95652173913044}, {"time": 104160, "qpm": 89.55223880597015}, {"time": 104640, "qpm": 86.95652173913044}, {"time": 105120, "qpm": 88.23529411764706}, {"time": 105600, "qpm": 86.95652173913044}, {"time": 106080, "qpm": 89.55223880597015}, {"time": 106560, "qpm": 86.95652173913044}, {"time": 107040, "qpm": 88.23529411764706}, {"time": 109440, "qpm": 86.95652173913044}, {"time": 109920, "qpm": 89.55223880597015}, {"time": 110400, "qpm": 86.95652173913044}, {"time": 110880, "qpm": 88.23529411764706}, {"time": 112320, "qpm": 86.95652173913044}, {"time": 112800, "qpm": 88.23529411764706}, {"time": 115200, "qpm": 86.95652173913044}, {"time": 115680, "qpm": 88.23529411764706}, {"time": 118080, "qpm": 86.95652173913044}, {"time": 118560, "qpm": 89.55223880597015}, {"time": 119040, "qpm": 86.95652173913044}, {"time": 119520, "qpm": 88.23529411764706}, {"time": 120960, "qpm": 86.95652173913044}, {"time": 121440, "qpm": 88.23529411764706}, {"time": 124320, "qpm": 86.95652173913044}, {"time": 124800, "qpm": 88.23529411764706}, {"time": 125760, "qpm": 86.95652173913044}, {"time": 126240, "qpm": 89.55223880597015}, {"time": 126720, "qpm": 86.95652173913044}, {"time": 127200, "qpm": 88.23529411764706}, {"time": 128640, "qpm": 86.95652173913044}, {"time": 129120, "qpm": 88.23529411764706}, {"time": 131520, "qpm": 86.95652173913044}, {"time": 132000, "qpm": 88.23529411764706}, {"time": 132960, "qpm": 89.55223880597015}, {"time": 133440, "qpm": 86.95652173913044}, {"time": 133920, "qpm": 88.23529411764706}, {"time": 134400, "qpm": 86.95652173913044}, {"time": 134880, "qpm": 89.55223880597015}, {"time": 135360, "qpm": 86.95652173913044}, {"time": 135840, "qpm": 88.23529411764706}, {"time": 138240, "qpm": 86.95652173913044}, {"time": 138720, "qpm": 88.23529411764706}, {"time": 140160, "qpm": 86.95652173913044}, {"time": 140640, "qpm": 88.23529411764706}, {"time": 143520, "qpm": 86.95652173913044}, {"time": 144000, "qpm": 88.23529411764706}, {"time": 145920, "qpm": 86.95652173913044}, {"time": 146400, "qpm": 89.55223880597015}, {"time": 146880, "qpm": 88.23529411764706}, {"time": 147360, "qpm": 86.95652173913044}, {"time": 147840, "qpm": 88.23529411764706}, {"time": 149760, "qpm": 86.95652173913044}, {"time": 150240, "qpm": 88.23529411764706}, {"time": 151680, "qpm": 86.95652173913044}, {"time": 152160, "qpm": 89.55223880597015}, {"time": 152640, "qpm": 86.95652173913044}, {"time": 153120, "qpm": 88.23529411764706}, {"time": 153600, "qpm": 86.95652173913044}, {"time": 154080, "qpm": 89.55223880597015}, {"time": 154560, "qpm": 88.23529411764706}, {"time": 155040, "qpm": 86.95652173913044}, {"time": 155520, "qpm": 88.23529411764706}, {"time": 157440, "qpm": 86.95652173913044}, {"time": 157920, "qpm": 89.55223880597015}, {"time": 158400, "qpm": 86.95652173913044}, {"time": 158880, "qpm": 88.23529411764706}, {"time": 159360, "qpm": 86.95652173913044}, {"time": 159840, "qpm": 89.55223880597015}, {"time": 160320, "qpm": 86.95652173913044}, {"time": 160800, "qpm": 88.23529411764706}, {"time": 163200, "qpm": 86.95652173913044}, {"time": 163680, "qpm": 88.23529411764706}, {"time": 166080, "qpm": 86.95652173913044}, {"time": 166560, "qpm": 88.23529411764706}, {"time": 168960, "qpm": 86.95652173913044}, {"time": 169440, "qpm": 88.23529411764706}], "key_signatures": [{"time": 0, "root": 8, "mode": "major"}], "time_signatures": [{"time": 0, "numerator": 1, "denominator": 4}, {"time": 480, "numerator": 4, "denominator": 4}], "tracks": [{"program": 0, "is_drum": false, "name": "Piano", "notes": [{"time": 4321, "pitch": 68, "duration": 976, "velocity": 85}, {"time": 4321, "pitch": 72, "duration": 906, "velocity": 72}, {"time": 4321, "pitch": 75, "duration": 897, "velocity": 82}, {"time": 4321, "pitch": 79, "duration": 936, "velocity": 91}, {"time": 5277, "pitch": 70, "duration": 952, "velocity": 82}, {"time": 5277, "pitch": 73, "duration": 942, "velocity": 75}, {"time": 5277, "pitch": 77, "duration": 932, "velocity": 69}, {"time": 5277, "pitch": 80, "duration": 922, "velocity": 90}, {"time": 6239, "pitch": 72, "duration": 963, "velocity": 80}, {"time": 6239, "pitch": 75, "duration": 923, "velocity": 80}, {"time": 6239, "pitch": 79, "duration": 933, "velocity": 78}, {"time": 6239, "pitch": 82, "duration": 943, "velocity": 86}, {"time": 7202, "pitch": 70, "duration": 926, "velocity": 79}, {"time": 7202, "pitch": 73, "duration": 896, "velocity": 74}, {"time": 7202, "pitch": 77, "duration": 926, "velocity": 74}, {"time": 7202, "pitch": 80, "duration": 916, "velocity": 85}, {"time": 8157, "pitch": 68, "duration": 973, "velocity": 81}, {"time": 8157, "pitch": 72, "duration": 933, "velocity": 79}, {"time": 8157, "pitch": 75, "duration": 933, "velocity": 88}, {"time": 8157, "pitch": 79, "duration": 993, "velocity": 82}, {"time": 9120, "pitch": 70, "duration": 953, "velocity": 81}, {"time": 9120, "pitch": 73, "duration": 922, "velocity": 77}, {"time": 9120, "pitch": 77, "duration": 953, "velocity": 73}, {"time": 9120, "pitch": 80, "duration": 902, "velocity": 88}, {"time": 10083, "pitch": 72, "duration": 955, "velocity": 63}, {"time": 10083, "pitch": 75, "duration": 925, "velocity": 85}, {"time": 10083, "pitch": 79, "duration": 925, "velocity": 83}, {"time": 10083, "pitch": 82, "duration": 915, "velocity": 93}, {"time": 11038, "pitch": 70, "duration": 4779, "velocity": 85}, {"time": 11038, "pitch": 73, "duration": 4779, "velocity": 79}, {"time": 11038, "pitch": 77, "duration": 4779, "velocity": 79}, {"time": 11038, "pitch": 80, "duration": 4779, "velocity": 90}, {"time": 15837, "pitch": 44, "duration": 912, "velocity": 79}, {"time": 15837, "pitch": 51, "duration": 922, "velocity": 71}, {"time": 15837, "pitch": 55, "duration": 892, "velocity": 79}, {"time": 15837, "pitch": 58, "duration": 912, "velocity": 76}, {"time": 15837, "pitch": 60, "duration": 902, "velocity": 75}, {"time": 15837, "pitch": 63, "duration": 912, "velocity": 83}, {"time": 16799, "pitch": 46, "duration": 963, "velocity": 80}, {"time": 16799, "pitch": 53, "duration": 943, "velocity": 76}, {"time": 16799, "pitch": 56, "duration": 953, "velocity": 73}, {"time": 16799, "pitch": 60, "duration": 913, "velocity": 71}, {"time": 16799, "pitch": 61, "duration": 933, "velocity": 79}, {"time": 16799, "pitch": 65, "duration": 923, "velocity": 84}, {"time": 17762, "pitch": 48, "duration": 946, "velocity": 79}, {"time": 17762, "pitch": 55, "duration": 926, "velocity": 73}, {"time": 17762, "pitch": 58, "duration": 906, "velocity": 81}, {"time": 17762, "pitch": 60, "duration": 926, "velocity": 72}, {"time": 17762, "pitch": 63, "duration": 936, "velocity": 75}, {"time": 17762, "pitch": 67, "duration": 906, "velocity": 84}, {"time": 18717, "pitch": 41, "duration": 973, "velocity": 81}, {"time": 18717, "pitch": 53, "duration": 913, "velocity": 82}, {"time": 18717, "pitch": 57, "duration": 923, "velocity": 79}, {"time": 18717, "pitch": 60, "duration": 953, "velocity": 73}, {"time": 18717, "pitch": 63, "duration": 923, "velocity": 71}, {"time": 18717, "pitch": 66, "duration": 893, "velocity": 84}, {"time": 19680, "pitch": 46, "duration": 963, "velocity": 85}, {"time": 19680, "pitch": 53, "duration": 972, "velocity": 76}, {"time": 19680, "pitch": 56, "duration": 932, "velocity": 79}, {"time": 19680, "pitch": 60, "duration": 912, "velocity": 67}, {"time": 19680, "pitch": 61, "duration": 902, "velocity": 71}, {"time": 19680, "pitch": 65, "duration": 932, "velocity": 88}, {"time": 20643, "pitch": 51, "duration": 895, "velocity": 78}, {"time": 20643, "pitch": 58, "duration": 905, "velocity": 80}, {"time": 20643, "pitch": 63, "duration": 474, "velocity": 80}, {"time": 20643, "pitch": 67, "duration": 484, "velocity": 90}, {"time": 21117, "pitch": 49, "duration": 471, "velocity": 84}, {"time": 21117, "pitch": 65, "duration": 481, "velocity": 87}, {"time": 21598, "pitch": 48, "duration": 933, "velocity": 79}, {"time": 21598, "pitch": 55, "duration": 902, "velocity": 73}, {"time": 21598, "pitch": 58, "duration": 902, "velocity": 81}, {"time": 21598, "pitch": 63, "duration": 902, "velocity": 87}, {"time": 22561, "pitch": 41, "duration": 962, "velocity": 79}, {"time": 22561, "pitch": 53, "duration": 962, "velocity": 78}, {"time": 22561, "pitch": 56, "duration": 942, "velocity": 80}, {"time": 22561, "pitch": 60, "duration": 922, "velocity": 77}, {"time": 22561, "pitch": 63, "duration": 932, "velocity": 75}, {"time": 22561, "pitch": 67, "duration": 912, "velocity": 84}, {"time": 23523, "pitch": 46, "duration": 505, "velocity": 83}, {"time": 23523, "pitch": 56, "duration": 825, "velocity": 73}, {"time": 23523, "pitch": 60, "duration": 845, "velocity": 83}, {"time": 23523, "pitch": 61, "duration": 845, "velocity": 81}, {"time": 23523, "pitch": 65, "duration": 845, "velocity": 88}, {"time": 23997, "pitch": 44, "duration": 512, "velocity": 79}, {"time": 24479, "pitch": 43, "duration": 561, "velocity": 78}, {"time": 24479, "pitch": 58, "duration": 942, "velocity": 83}, {"time": 24479, "pitch": 61, "duration": 531, "velocity": 82}, {"time": 24479, "pitch": 65, "duration": 501, "velocity": 86}, {"time": 24960, "pitch": 48, "duration": 481, "velocity": 76}, {"time": 24960, "pitch": 60, "duration": 441, "velocity": 77}, {"time": 24960, "pitch": 64, "duration": 411, "velocity": 86}, {"time": 25441, "pitch": 41, "duration": 926, "velocity": 86}, {"time": 25441, "pitch": 53, "duration": 946, "velocity": 84}, {"time": 25441, "pitch": 56, "duration": 926, "velocity": 76}, {"time": 25441, "pitch": 60, "duration": 936, "velocity": 80}, {"time": 25441, "pitch": 63, "duration": 926, "velocity": 75}, {"time": 25441, "pitch": 67, "duration": 906, "velocity": 90}, {"time": 26397, "pitch": 39, "duration": 852, "velocity": 78}, {"time": 26397, "pitch": 51, "duration": 862, "velocity": 84}, {"time": 26397, "pitch": 56, "duration": 882, "velocity": 75}, {"time": 26397, "pitch": 60, "duration": 882, "velocity": 75}, {"time": 26397, "pitch": 65, "duration": 902, "velocity": 91}, {"time": 27359, "pitch": 38, "duration": 1899, "velocity": 82}, {"time": 27359, "pitch": 50, "duration": 1918, "velocity": 82}, {"time": 27359, "pitch": 56, "duration": 943, "velocity": 72}, {"time": 27359, "pitch": 58, "duration": 923, "velocity": 77}, {"time": 27359, "pitch": 65, "duration": 943, "velocity": 87}, {"time": 28322, "pitch": 58, "duration": 550, "velocity": 79}, {"time": 28322, "pitch": 67, "duration": 491, "velocity": 89}, {"time": 28803, "pitch": 56, "duration": 445, "velocity": 81}, {"time": 28803, "pitch": 65, "duration": 455, "velocity": 84}, {"time": 29277, "pitch": 39, "duration": 1895, "velocity": 84}, {"time": 29277, "pitch": 51, "duration": 1906, "velocity": 80}, {"time": 29277, "pitch": 56, "duration": 913, "velocity": 76}, {"time": 29277, "pitch": 61, "duration": 913, "velocity": 76}, {"time": 29277, "pitch": 65, "duration": 913, "velocity": 87}, {"time": 30240, "pitch": 55, "duration": 441, "velocity": 76}, {"time": 30240, "pitch": 60, "duration": 441, "velocity": 78}, {"time": 30240, "pitch": 63, "duration": 471, "velocity": 89}, {"time": 30721, "pitch": 53, "duration": 491, "velocity": 68}, {"time": 30721, "pitch": 58, "duration": 441, "velocity": 77}, {"time": 30721, "pitch": 61, "duration": 401, "velocity": 87}, {"time": 31203, "pitch": 44, "duration": 935, "velocity": 79}, {"time": 31203, "pitch": 51, "duration": 925, "velocity": 72}, {"time": 31203, "pitch": 55, "duration": 915, "velocity": 69}, {"time": 31203, "pitch": 58, "duration": 925, "velocity": 66}, {"time": 31203, "pitch": 60, "duration": 935, "velocity": 63}, {"time": 31203, "pitch": 63, "duration": 925, "velocity": 86}, {"time": 32158, "pitch": 46, "duration": 953, "velocity": 79}, {"time": 32158, "pitch": 53, "duration": 923, "velocity": 71}, {"time": 32158, "pitch": 56, "duration": 963, "velocity": 71}, {"time": 32158, "pitch": 60, "duration": 963, "velocity": 77}, {"time": 32158, "pitch": 61, "duration": 953, "velocity": 69}, {"time": 32158, "pitch": 65, "duration": 953, "velocity": 85}, {"time": 33121, "pitch": 48, "duration": 952, "velocity": 75}, {"time": 33121, "pitch": 55, "duration": 882, "velocity": 73}, {"time": 33121, "pitch": 58, "duration": 882, "velocity": 76}, {"time": 33121, "pitch": 60, "duration": 922, "velocity": 64}, {"time": 33121, "pitch": 63, "duration": 892, "velocity": 75}, {"time": 33121, "pitch": 67, "duration": 932, "velocity": 84}, {"time": 34083, "pitch": 41, "duration": 946, "velocity": 74}, {"time": 34083, "pitch": 53, "duration": 956, "velocity": 77}, {"time": 34083, "pitch": 57, "duration": 936, "velocity": 76}, {"time": 34083, "pitch": 60, "duration": 926, "velocity": 69}, {"time": 34083, "pitch": 63, "duration": 906, "velocity": 77}, {"time": 34083, "pitch": 66, "duration": 906, "velocity": 85}, {"time": 35039, "pitch": 46, "duration": 942, "velocity": 80}, {"time": 35039, "pitch": 53, "duration": 922, "velocity": 69}, {"time": 35039, "pitch": 56, "duration": 932, "velocity": 75}, {"time": 35039, "pitch": 60, "duration": 922, "velocity": 76}, {"time": 35039, "pitch": 61, "duration": 932, "velocity": 69}, {"time": 35039, "pitch": 65, "duration": 902, "velocity": 87}, {"time": 36001, "pitch": 51, "duration": 491, "velocity": 80}, {"time": 36001, "pitch": 58, "duration": 906, "velocity": 79}, {"time": 36001, "pitch": 63, "duration": 501, "velocity": 76}, {"time": 36001, "pitch": 67, "duration": 501, "velocity": 87}, {"time": 36483, "pitch": 49, "duration": 464, "velocity": 82}, {"time": 36483, "pitch": 65, "duration": 474, "velocity": 84}, {"time": 36957, "pitch": 48, "duration": 972, "velocity": 76}, {"time": 36957, "pitch": 55, "duration": 982, "velocity": 65}, {"time": 36957, "pitch": 58, "duration": 942, "velocity": 77}, {"time": 36957, "pitch": 63, "duration": 932, "velocity": 83}, {"time": 37919, "pitch": 41, "duration": 943, "velocity": 77}, {"time": 37919, "pitch": 53, "duration": 903, "velocity": 72}, {"time": 37919, "pitch": 56, "duration": 923, "velocity": 72}, {"time": 37919, "pitch": 60, "duration": 953, "velocity": 74}, {"time": 37919, "pitch": 63, "duration": 953, "velocity": 69}, {"time": 37919, "pitch": 67, "duration": 943, "velocity": 83}, {"time": 38882, "pitch": 46, "duration": 936, "velocity": 80}, {"time": 38882, "pitch": 56, "duration": 916, "velocity": 73}, {"time": 38882, "pitch": 60, "duration": 926, "velocity": 69}, {"time": 38882, "pitch": 61, "duration": 896, "velocity": 70}, {"time": 38882, "pitch": 65, "duration": 916, "velocity": 84}, {"time": 39837, "pitch": 39, "duration": 963, "velocity": 75}, {"time": 39837, "pitch": 55, "duration": 913, "velocity": 73}, {"time": 39837, "pitch": 60, "duration": 913, "velocity": 76}, {"time": 39837, "pitch": 61, "duration": 953, "velocity": 71}, {"time": 39837, "pitch": 65, "duration": 933, "velocity": 84}, {"time": 40800, "pitch": 44, "duration": 471, "velocity": 80}, {"time": 40800, "pitch": 55, "duration": 943, "velocity": 68}, {"time": 40800, "pitch": 58, "duration": 902, "velocity": 70}, {"time": 40800, "pitch": 60, "duration": 902, "velocity": 72}, {"time": 40800, "pitch": 63, "duration": 932, "velocity": 85}, {"time": 41281, "pitch": 43, "duration": 472, "velocity": 78}, {"time": 41763, "pitch": 41, "duration": 955, "velocity": 75}, {"time": 41763, "pitch": 56, "duration": 905, "velocity": 71}, {"time": 41763, "pitch": 60, "duration": 945, "velocity": 74}, {"time": 41763, "pitch": 63, "duration": 895, "velocity": 86}, {"time": 42718, "pitch": 46, "duration": 973, "velocity": 79}, {"time": 42718, "pitch": 56, "duration": 953, "velocity": 76}, {"time": 42718, "pitch": 60, "duration": 923, "velocity": 73}, {"time": 42718, "pitch": 61, "duration": 902, "velocity": 71}, {"time": 42718, "pitch": 65, "duration": 943, "velocity": 84}, {"time": 43681, "pitch": 49, "duration": 952, "velocity": 75}, {"time": 43681, "pitch": 56, "duration": 942, "velocity": 67}, {"time": 43681, "pitch": 60, "duration": 521, "velocity": 76}, {"time": 43681, "pitch": 64, "duration": 942, "velocity": 84}, {"time": 44162, "pitch": 58, "duration": 461, "velocity": 75}, {"time": 44643, "pitch": 44, "duration": 1888, "velocity": 73}, {"time": 44643, "pitch": 51, "duration": 1908, "velocity": 78}, {"time": 44643, "pitch": 55, "duration": 1818, "velocity": 60}, {"time": 44643, "pitch": 58, "duration": 1818, "velocity": 54}, {"time": 44643, "pitch": 60, "duration": 1838, "velocity": 75}, {"time": 44643, "pitch": 63, "duration": 1868, "velocity": 86}, {"time": 46561, "pitch": 49, "duration": 1918, "velocity": 72}, {"time": 46561, "pitch": 56, "duration": 241, "velocity": 69}, {"time": 46561, "pitch": 60, "duration": 241, "velocity": 73}, {"time": 46561, "pitch": 63, "duration": 221, "velocity": 76}, {"time": 46802, "pitch": 53, "duration": 300, "velocity": 66}, {"time": 47043, "pitch": 56, "duration": 237, "velocity": 66}, {"time": 47043, "pitch": 60, "duration": 237, "velocity": 72}, {"time": 47043, "pitch": 63, "duration": 227, "velocity": 76}, {"time": 47280, "pitch": 53, "duration": 257, "velocity": 59}, {"time": 47517, "pitch": 56, "duration": 260, "velocity": 67}, {"time": 47517, "pitch": 60, "duration": 250, "velocity": 66}, {"time": 47517, "pitch": 63, "duration": 220, "velocity": 76}, {"time": 47757, "pitch": 53, "duration": 251, "velocity": 56}, {"time": 47998, "pitch": 56, "duration": 281, "velocity": 71}, {"time": 47998, "pitch": 60, "duration": 241, "velocity": 70}, {"time": 47998, "pitch": 63, "duration": 211, "velocity": 76}, {"time": 48239, "pitch": 53, "duration": 250, "velocity": 73}, {"time": 48479, "pitch": 48, "duration": 1918, "velocity": 73}, {"time": 48479, "pitch": 58, "duration": 251, "velocity": 80}, {"time": 48479, "pitch": 63, "duration": 251, "velocity": 84}, {"time": 48720, "pitch": 55, "duration": 291, "velocity": 72}, {"time": 48961, "pitch": 58, "duration": 240, "velocity": 80}, {"time": 48961, "pitch": 63, "duration": 220, "velocity": 84}, {"time": 49201, "pitch": 55, "duration": 281, "velocity": 72}, {"time": 49442, "pitch": 58, "duration": 261, "velocity": 79}, {"time": 49442, "pitch": 63, "duration": 231, "velocity": 85}, {"time": 49683, "pitch": 55, "duration": 280, "velocity": 73}, {"time": 49923, "pitch": 58, "duration": 237, "velocity": 81}, {"time": 49923, "pitch": 63, "duration": 237, "velocity": 85}, {"time": 50160, "pitch": 55, "duration": 247, "velocity": 69}, {"time": 50397, "pitch": 46, "duration": 953, "velocity": 71}, {"time": 50397, "pitch": 58, "duration": 221, "velocity": 74}, {"time": 50397, "pitch": 61, "duration": 231, "velocity": 76}, {"time": 50397, "pitch": 63, "duration": 211, "velocity": 83}, {"time": 50638, "pitch": 53, "duration": 251, "velocity": 72}, {"time": 50879, "pitch": 58, "duration": 230, "velocity": 73}, {"time": 50879, "pitch": 61, "duration": 220, "velocity": 71}, {"time": 50879, "pitch": 63, "duration": 210, "velocity": 83}, {"time": 51119, "pitch": 53, "duration": 251, "velocity": 76}, {"time": 51360, "pitch": 44, "duration": 963, "velocity": 70}, {"time": 51360, "pitch": 58, "duration": 241, "velocity": 78}, {"time": 51360, "pitch": 61, "duration": 221, "velocity": 81}, {"time": 51360, "pitch": 63, "duration": 241, "velocity": 84}, {"time": 51601, "pitch": 53, "duration": 270, "velocity": 73}, {"time": 51841, "pitch": 58, "duration": 261, "velocity": 69}, {"time": 51841, "pitch": 61, "duration": 221, "velocity": 78}, {"time": 51841, "pitch": 63, "duration": 221, "velocity": 83}, {"time": 52082, "pitch": 53, "duration": 231, "velocity": 69}, {"time": 52323, "pitch": 43, "duration": 965, "velocity": 71}, {"time": 52323, "pitch": 61, "duration": 237, "velocity": 81}, {"time": 52323, "pitch": 65, "duration": 237, "velocity": 85}, {"time": 52560, "pitch": 58, "duration": 257, "velocity": 79}, {"time": 52797, "pitch": 61, "duration": 240, "velocity": 80}, {"time": 52797, "pitch": 65, "duration": 240, "velocity": 85}, {"time": 53037, "pitch": 58, "duration": 231, "velocity": 79}, {"time": 53278, "pitch": 48, "duration": 511, "velocity": 78}, {"time": 53278, "pitch": 58, "duration": 963, "velocity": 79}, {"time": 53278, "pitch": 64, "duration": 501, "velocity": 88}, {"time": 53759, "pitch": 50, "duration": 251, "velocity": 71}, {"time": 53759, "pitch": 65, "duration": 241, "velocity": 79}, {"time": 54000, "pitch": 52, "duration": 241, "velocity": 73}, {"time": 54000, "pitch": 67, "duration": 241, "velocity": 78}, {"time": 54241, "pitch": 53, "duration": 952, "velocity": 76}, {"time": 54481, "pitch": 60, "duration": 291, "velocity": 83}, {"time": 54722, "pitch": 65, "duration": 461, "velocity": 74}, {"time": 54722, "pitch": 68, "duration": 441, "velocity": 82}, {"time": 55203, "pitch": 51, "duration": 956, "velocity": 84}, {"time": 55440, "pitch": 56, "duration": 257, "velocity": 75}, {"time": 55677, "pitch": 60, "duration": 482, "velocity": 60}, {"time": 55677, "pitch": 67, "duration": 442, "velocity": 78}, {"time": 56159, "pitch": 49, "duration": 972, "velocity": 84}, {"time": 56399, "pitch": 56, "duration": 271, "velocity": 79}, {"time": 56640, "pitch": 60, "duration": 511, "velocity": 68}, {"time": 56640, "pitch": 65, "duration": 481, "velocity": 88}, {"time": 57121, "pitch": 48, "duration": 491, "velocity": 74}, {"time": 57121, "pitch": 58, "duration": 491, "velocity": 77}, {"time": 57121, "pitch": 63, "duration": 946, "velocity": 85}, {"time": 57603, "pitch": 53, "duration": 444, "velocity": 69}, {"time": 57603, "pitch": 56, "duration": 444, "velocity": 74}, {"time": 58077, "pitch": 42, "duration": 1925, "velocity": 70}, {"time": 58077, "pitch": 49, "duration": 1925, "velocity": 70}, {"time": 58077, "pitch": 56, "duration": 1885, "velocity": 78}, {"time": 58077, "pitch": 58, "duration": 1905, "velocity": 67}, {"time": 58077, "pitch": 61, "duration": 1905, "velocity": 73}, {"time": 58077, "pitch": 65, "duration": 1895, "velocity": 83}, {"time": 60002, "pitch": 39, "duration": 1908, "velocity": 83}, {"time": 60002, "pitch": 51, "duration": 1898, "velocity": 81}, {"time": 60483, "pitch": 56, "duration": 445, "velocity": 77}, {"time": 60483, "pitch": 61, "duration": 465, "velocity": 78}, {"time": 60483, "pitch": 65, "duration": 465, "velocity": 82}, {"time": 60957, "pitch": 55, "duration": 492, "velocity": 76}, {"time": 60957, "pitch": 60, "duration": 482, "velocity": 69}, {"time": 60957, "pitch": 63, "duration": 512, "velocity": 81}, {"time": 61439, "pitch": 53, "duration": 471, "velocity": 70}, {"time": 61439, "pitch": 58, "duration": 421, "velocity": 76}, {"time": 61439, "pitch": 61, "duration": 471, "velocity": 82}, {"time": 61920, "pitch": 49, "duration": 1918, "velocity": 71}, {"time": 61920, "pitch": 56, "duration": 261, "velocity": 71}, {"time": 61920, "pitch": 60, "duration": 251, "velocity": 64}, {"time": 61920, "pitch": 63, "duration": 251, "velocity": 75}, {"time": 62161, "pitch": 53, "duration": 260, "velocity": 65}, {"time": 62401, "pitch": 56, "duration": 241, "velocity": 67}, {"time": 62401, "pitch": 60, "duration": 241, "velocity": 69}, {"time": 62401, "pitch": 63, "duration": 211, "velocity": 77}, {"time": 62642, "pitch": 53, "duration": 260, "velocity": 65}, {"time": 62883, "pitch": 56, "duration": 247, "velocity": 66}, {"time": 62883, "pitch": 60, "duration": 227, "velocity": 69}, {"time": 62883, "pitch": 63, "duration": 247, "velocity": 78}, {"time": 63120, "pitch": 53, "duration": 247, "velocity": 63}, {"time": 63357, "pitch": 56, "duration": 281, "velocity": 71}, {"time": 63357, "pitch": 60, "duration": 260, "velocity": 68}, {"time": 63357, "pitch": 63, "duration": 260, "velocity": 79}, {"time": 63597, "pitch": 53, "duration": 251, "velocity": 67}, {"time": 63838, "pitch": 44, "duration": 983, "velocity": 73}, {"time": 63838, "pitch": 58, "duration": 291, "velocity": 68}, {"time": 63838, "pitch": 60, "duration": 261, "velocity": 74}, {"time": 63838, "pitch": 63, "duration": 261, "velocity": 81}, {"time": 64079, "pitch": 55, "duration": 280, "velocity": 77}, {"time": 64319, "pitch": 58, "duration": 251, "velocity": 71}, {"time": 64319, "pitch": 60, "duration": 211, "velocity": 70}, {"time": 64319, "pitch": 63, "duration": 251, "velocity": 81}, {"time": 64560, "pitch": 55, "duration": 261, "velocity": 81}, {"time": 64801, "pitch": 43, "duration": 942, "velocity": 72}, {"time": 64801, "pitch": 58, "duration": 942, "velocity": 77}, {"time": 64801, "pitch": 60, "duration": 481, "velocity": 78}, {"time": 64801, "pitch": 64, "duration": 481, "velocity": 87}, {"time": 65282, "pitch": 62, "duration": 251, "velocity": 72}, {"time": 65282, "pitch": 65, "duration": 251, "velocity": 89}, {"time": 65523, "pitch": 64, "duration": 250, "velocity": 75}, {"time": 65523, "pitch": 67, "duration": 220, "velocity": 85}, {"time": 65763, "pitch": 53, "duration": 996, "velocity": 78}, {"time": 66000, "pitch": 60, "duration": 267, "velocity": 85}, {"time": 66237, "pitch": 65, "duration": 442, "velocity": 73}, {"time": 66237, "pitch": 68, "duration": 412, "velocity": 81}, {"time": 66719, "pitch": 51, "duration": 952, "velocity": 86}, {"time": 66959, "pitch": 56, "duration": 251, "velocity": 75}, {"time": 67200, "pitch": 60, "duration": 481, "velocity": 70}, {"time": 67200, "pitch": 67, "duration": 481, "velocity": 80}, {"time": 67681, "pitch": 49, "duration": 1698, "velocity": 82}, {"time": 67922, "pitch": 56, "duration": 231, "velocity": 84}, {"time": 68163, "pitch": 65, "duration": 247, "velocity": 81}, {"time": 68400, "pitch": 60, "duration": 267, "velocity": 82}, {"time": 68637, "pitch": 65, "duration": 752, "velocity": 73}, {"time": 68637, "pitch": 72, "duration": 732, "velocity": 84}, {"time": 69599, "pitch": 48, "duration": 1849, "velocity": 83}, {"time": 69639, "pitch": 55, "duration": 1799, "velocity": 63}, {"time": 69700, "pitch": 58, "duration": 1758, "velocity": 78}, {"time": 69750, "pitch": 63, "duration": 1679, "velocity": 83}, {"time": 69820, "pitch": 70, "duration": 1609, "velocity": 79}, {"time": 71517, "pitch": 41, "duration": 672, "velocity": 77}, {"time": 71517, "pitch": 58, "duration": 592, "velocity": 78}, {"time": 71517, "pitch": 63, "duration": 642, "velocity": 70}, {"time": 71517, "pitch": 67, "duration": 672, "velocity": 84}, {"time": 72239, "pitch": 53, "duration": 1163, "velocity": 65}, {"time": 72239, "pitch": 60, "duration": 1143, "velocity": 70}, {"time": 72239, "pitch": 63, "duration": 1133, "velocity": 78}, {"time": 72239, "pitch": 68, "duration": 1173, "velocity": 85}, {"time": 73443, "pitch": 46, "duration": 674, "velocity": 78}, {"time": 73443, "pitch": 56, "duration": 684, "velocity": 78}, {"time": 73443, "pitch": 61, "duration": 674, "velocity": 81}, {"time": 73443, "pitch": 65, "duration": 674, "velocity": 87}, {"time": 74157, "pitch": 46, "duration": 1194, "velocity": 79}, {"time": 74157, "pitch": 56, "duration": 1143, "velocity": 83}, {"time": 74157, "pitch": 61, "duration": 1133, "velocity": 78}, {"time": 74157, "pitch": 65, "duration": 1123, "velocity": 88}, {"time": 75361, "pitch": 37, "duration": 1858, "velocity": 74}, {"time": 75361, "pitch": 49, "duration": 1797, "velocity": 73}, {"time": 75361, "pitch": 56, "duration": 1817, "velocity": 77}, {"time": 75361, "pitch": 60, "duration": 1436, "velocity": 78}, {"time": 75361, "pitch": 64, "duration": 1858, "velocity": 86}, {"time": 76797, "pitch": 58, "duration": 462, "velocity": 81}, {"time": 77279, "pitch": 44, "duration": 1819, "velocity": 75}, {"time": 77279, "pitch": 51, "duration": 1809, "velocity": 74}, {"time": 77279, "pitch": 53, "duration": 1789, "velocity": 71}, {"time": 77279, "pitch": 58, "duration": 1809, "velocity": 75}, {"time": 77279, "pitch": 60, "duration": 1809, "velocity": 72}, {"time": 77279, "pitch": 63, "duration": 1809, "velocity": 81}, {"time": 79197, "pitch": 68, "duration": 982, "velocity": 85}, {"time": 79197, "pitch": 72, "duration": 912, "velocity": 72}, {"time": 79197, "pitch": 75, "duration": 902, "velocity": 82}, {"time": 79197, "pitch": 79, "duration": 942, "velocity": 91}, {"time": 80159, "pitch": 70, "duration": 953, "velocity": 82}, {"time": 80159, "pitch": 73, "duration": 943, "velocity": 75}, {"time": 80159, "pitch": 77, "duration": 933, "velocity": 69}, {"time": 80159, "pitch": 80, "duration": 923, "velocity": 90}, {"time": 81122, "pitch": 72, "duration": 955, "velocity": 80}, {"time": 81122, "pitch": 75, "duration": 916, "velocity": 80}, {"time": 81122, "pitch": 79, "duration": 926, "velocity": 78}, {"time": 81122, "pitch": 82, "duration": 936, "velocity": 86}, {"time": 82077, "pitch": 70, "duration": 933, "velocity": 79}, {"time": 82077, "pitch": 73, "duration": 903, "velocity": 74}, {"time": 82077, "pitch": 77, "duration": 933, "velocity": 74}, {"time": 82077, "pitch": 80, "duration": 923, "velocity": 85}, {"time": 83040, "pitch": 68, "duration": 972, "velocity": 81}, {"time": 83040, "pitch": 72, "duration": 932, "velocity": 79}, {"time": 83040, "pitch": 75, "duration": 932, "velocity": 88}, {"time": 83040, "pitch": 79, "duration": 992, "velocity": 82}, {"time": 84003, "pitch": 70, "duration": 945, "velocity": 81}, {"time": 84003, "pitch": 73, "duration": 915, "velocity": 77}, {"time": 84003, "pitch": 77, "duration": 945, "velocity": 73}, {"time": 84003, "pitch": 80, "duration": 895, "velocity": 88}, {"time": 84958, "pitch": 72, "duration": 963, "velocity": 63}, {"time": 84958, "pitch": 75, "duration": 933, "velocity": 85}, {"time": 84958, "pitch": 79, "duration": 933, "velocity": 83}, {"time": 84958, "pitch": 82, "duration": 923, "velocity": 93}, {"time": 85921, "pitch": 70, "duration": 3906, "velocity": 85}, {"time": 85921, "pitch": 73, "duration": 3906, "velocity": 79}, {"time": 85921, "pitch": 77, "duration": 3906, "velocity": 79}, {"time": 85921, "pitch": 80, "duration": 3906, "velocity": 90}, {"time": 90719, "pitch": 44, "duration": 1103, "velocity": 83}, {"time": 90960, "pitch": 55, "duration": 822, "velocity": 65}, {"time": 91201, "pitch": 58, "duration": 581, "velocity": 67}, {"time": 91201, "pitch": 60, "duration": 601, "velocity": 67}, {"time": 91201, "pitch": 63, "duration": 561, "velocity": 79}, {"time": 91682, "pitch": 46, "duration": 1056, "velocity": 79}, {"time": 91923, "pitch": 56, "duration": 795, "velocity": 73}, {"time": 92163, "pitch": 60, "duration": 525, "velocity": 54}, {"time": 92163, "pitch": 61, "duration": 525, "velocity": 60}, {"time": 92163, "pitch": 65, "duration": 525, "velocity": 68}, {"time": 92637, "pitch": 48, "duration": 1073, "velocity": 82}, {"time": 92878, "pitch": 58, "duration": 912, "velocity": 79}, {"time": 93119, "pitch": 60, "duration": 571, "velocity": 59}, {"time": 93119, "pitch": 63, "duration": 611, "velocity": 69}, {"time": 93119, "pitch": 67, "duration": 581, "velocity": 70}, {"time": 93600, "pitch": 41, "duration": 1061, "velocity": 84}, {"time": 93841, "pitch": 57, "duration": 801, "velocity": 80}, {"time": 94081, "pitch": 60, "duration": 531, "velocity": 54}, {"time": 94081, "pitch": 63, "duration": 531, "velocity": 74}, {"time": 94081, "pitch": 66, "duration": 521, "velocity": 72}, {"time": 94563, "pitch": 46, "duration": 1065, "velocity": 79}, {"time": 94800, "pitch": 56, "duration": 698, "velocity": 79}, {"time": 95037, "pitch": 60, "duration": 501, "velocity": 62}, {"time": 95037, "pitch": 61, "duration": 461, "velocity": 69}, {"time": 95037, "pitch": 65, "duration": 471, "velocity": 72}, {"time": 95518, "pitch": 51, "duration": 501, "velocity": 70}, {"time": 95518, "pitch": 58, "duration": 953, "velocity": 76}, {"time": 95518, "pitch": 63, "duration": 481, "velocity": 77}, {"time": 95518, "pitch": 67, "duration": 481, "velocity": 78}, {"time": 95999, "pitch": 49, "duration": 462, "velocity": 73}, {"time": 95999, "pitch": 65, "duration": 452, "velocity": 70}, {"time": 96481, "pitch": 48, "duration": 1140, "velocity": 82}, {"time": 96721, "pitch": 55, "duration": 781, "velocity": 77}, {"time": 96962, "pitch": 58, "duration": 550, "velocity": 64}, {"time": 96962, "pitch": 60, "duration": 570, "velocity": 65}, {"time": 96962, "pitch": 63, "duration": 521, "velocity": 77}, {"time": 97443, "pitch": 41, "duration": 1056, "velocity": 83}, {"time": 97680, "pitch": 56, "duration": 849, "velocity": 67}, {"time": 97917, "pitch": 60, "duration": 532, "velocity": 59}, {"time": 97917, "pitch": 63, "duration": 532, "velocity": 72}, {"time": 97917, "pitch": 67, "duration": 532, "velocity": 73}, {"time": 98399, "pitch": 46, "duration": 561, "velocity": 80}, {"time": 98639, "pitch": 56, "duration": 582, "velocity": 72}, {"time": 98880, "pitch": 44, "duration": 592, "velocity": 77}, {"time": 98880, "pitch": 60, "duration": 431, "velocity": 74}, {"time": 98880, "pitch": 61, "duration": 431, "velocity": 69}, {"time": 98880, "pitch": 65, "duration": 441, "velocity": 75}, {"time": 99361, "pitch": 43, "duration": 561, "velocity": 72}, {"time": 99361, "pitch": 58, "duration": 986, "velocity": 83}, {"time": 99361, "pitch": 61, "duration": 521, "velocity": 70}, {"time": 99361, "pitch": 65, "duration": 482, "velocity": 74}, {"time": 99843, "pitch": 48, "duration": 524, "velocity": 82}, {"time": 99843, "pitch": 60, "duration": 444, "velocity": 74}, {"time": 99843, "pitch": 64, "duration": 454, "velocity": 66}, {"time": 100317, "pitch": 41, "duration": 862, "velocity": 78}, {"time": 100317, "pitch": 53, "duration": 862, "velocity": 77}, {"time": 100557, "pitch": 56, "duration": 813, "velocity": 65}, {"time": 100798, "pitch": 60, "duration": 562, "velocity": 68}, {"time": 100798, "pitch": 63, "duration": 602, "velocity": 78}, {"time": 100798, "pitch": 67, "duration": 481, "velocity": 80}, {"time": 101279, "pitch": 39, "duration": 923, "velocity": 80}, {"time": 101279, "pitch": 51, "duration": 853, "velocity": 80}, {"time": 101520, "pitch": 56, "duration": 772, "velocity": 72}, {"time": 101761, "pitch": 60, "duration": 471, "velocity": 77}, {"time": 101761, "pitch": 65, "duration": 471, "velocity": 79}, {"time": 102242, "pitch": 38, "duration": 1898, "velocity": 77}, {"time": 102242, "pitch": 50, "duration": 1888, "velocity": 73}, {"time": 102483, "pitch": 56, "duration": 655, "velocity": 74}, {"time": 102723, "pitch": 58, "duration": 415, "velocity": 72}, {"time": 102723, "pitch": 65, "duration": 474, "velocity": 82}, {"time": 103197, "pitch": 58, "duration": 522, "velocity": 73}, {"time": 103197, "pitch": 67, "duration": 482, "velocity": 82}, {"time": 103679, "pitch": 56, "duration": 391, "velocity": 73}, {"time": 103679, "pitch": 65, "duration": 411, "velocity": 80}, {"time": 104160, "pitch": 39, "duration": 1918, "velocity": 80}, {"time": 104160, "pitch": 51, "duration": 1918, "velocity": 78}, {"time": 104401, "pitch": 56, "duration": 641, "velocity": 67}, {"time": 104641, "pitch": 61, "duration": 472, "velocity": 77}, {"time": 104641, "pitch": 65, "duration": 391, "velocity": 80}, {"time": 105123, "pitch": 55, "duration": 395, "velocity": 77}, {"time": 105123, "pitch": 60, "duration": 365, "velocity": 73}, {"time": 105123, "pitch": 63, "duration": 385, "velocity": 82}, {"time": 105597, "pitch": 53, "duration": 451, "velocity": 70}, {"time": 105597, "pitch": 58, "duration": 451, "velocity": 75}, {"time": 105597, "pitch": 61, "duration": 461, "velocity": 69}, {"time": 106078, "pitch": 44, "duration": 1103, "velocity": 83}, {"time": 106319, "pitch": 55, "duration": 822, "velocity": 65}, {"time": 106559, "pitch": 58, "duration": 582, "velocity": 67}, {"time": 106559, "pitch": 60, "duration": 602, "velocity": 67}, {"time": 106559, "pitch": 63, "duration": 562, "velocity": 79}, {"time": 107041, "pitch": 46, "duration": 1061, "velocity": 79}, {"time": 107281, "pitch": 56, "duration": 801, "velocity": 73}, {"time": 107522, "pitch": 60, "duration": 531, "velocity": 54}, {"time": 107522, "pitch": 61, "duration": 531, "velocity": 60}, {"time": 107522, "pitch": 65, "duration": 531, "velocity": 68}, {"time": 108003, "pitch": 48, "duration": 1066, "velocity": 82}, {"time": 108240, "pitch": 58, "duration": 909, "velocity": 79}, {"time": 108477, "pitch": 60, "duration": 572, "velocity": 59}, {"time": 108477, "pitch": 63, "duration": 612, "velocity": 69}, {"time": 108477, "pitch": 67, "duration": 582, "velocity": 70}, {"time": 108959, "pitch": 41, "duration": 1063, "velocity": 84}, {"time": 109199, "pitch": 57, "duration": 802, "velocity": 80}, {"time": 109440, "pitch": 60, "duration": 531, "velocity": 54}, {"time": 109440, "pitch": 63, "duration": 531, "velocity": 74}, {"time": 109440, "pitch": 66, "duration": 521, "velocity": 72}, {"time": 109921, "pitch": 46, "duration": 1066, "velocity": 79}, {"time": 110162, "pitch": 56, "duration": 695, "velocity": 79}, {"time": 110403, "pitch": 60, "duration": 494, "velocity": 62}, {"time": 110403, "pitch": 61, "duration": 454, "velocity": 69}, {"time": 110403, "pitch": 65, "duration": 464, "velocity": 72}, {"time": 110877, "pitch": 51, "duration": 501, "velocity": 70}, {"time": 110877, "pitch": 58, "duration": 952, "velocity": 76}, {"time": 110877, "pitch": 63, "duration": 942, "velocity": 77}, {"time": 110877, "pitch": 67, "duration": 481, "velocity": 78}, {"time": 111358, "pitch": 49, "duration": 461, "velocity": 73}, {"time": 111358, "pitch": 65, "duration": 451, "velocity": 70}, {"time": 111839, "pitch": 48, "duration": 1143, "velocity": 82}, {"time": 112080, "pitch": 55, "duration": 782, "velocity": 77}, {"time": 112321, "pitch": 58, "duration": 551, "velocity": 64}, {"time": 112321, "pitch": 60, "duration": 571, "velocity": 65}, {"time": 112321, "pitch": 63, "duration": 521, "velocity": 77}, {"time": 112802, "pitch": 41, "duration": 1056, "velocity": 83}, {"time": 113043, "pitch": 56, "duration": 845, "velocity": 67}, {"time": 113283, "pitch": 60, "duration": 525, "velocity": 59}, {"time": 113283, "pitch": 63, "duration": 525, "velocity": 72}, {"time": 113283, "pitch": 67, "duration": 525, "velocity": 73}, {"time": 113757, "pitch": 46, "duration": 1063, "velocity": 77}, {"time": 113998, "pitch": 56, "duration": 943, "velocity": 64}, {"time": 114239, "pitch": 60, "duration": 501, "velocity": 66}, {"time": 114239, "pitch": 61, "duration": 551, "velocity": 59}, {"time": 114239, "pitch": 65, "duration": 561, "velocity": 73}, {"time": 114720, "pitch": 39, "duration": 1061, "velocity": 78}, {"time": 114961, "pitch": 55, "duration": 801, "velocity": 67}, {"time": 115201, "pitch": 58, "duration": 531, "velocity": 63}, {"time": 115201, "pitch": 61, "duration": 531, "velocity": 58}, {"time": 115201, "pitch": 63, "duration": 531, "velocity": 74}, {"time": 115682, "pitch": 44, "duration": 505, "velocity": 79}, {"time": 115920, "pitch": 55, "duration": 768, "velocity": 66}, {"time": 116157, "pitch": 43, "duration": 581, "velocity": 64}, {"time": 116157, "pitch": 58, "duration": 501, "velocity": 57}, {"time": 116157, "pitch": 60, "duration": 531, "velocity": 62}, {"time": 116157, "pitch": 63, "duration": 491, "velocity": 74}, {"time": 116638, "pitch": 41, "duration": 1063, "velocity": 78}, {"time": 116879, "pitch": 56, "duration": 772, "velocity": 58}, {"time": 117119, "pitch": 60, "duration": 532, "velocity": 67}, {"time": 117119, "pitch": 63, "duration": 512, "velocity": 72}, {"time": 117601, "pitch": 46, "duration": 1061, "velocity": 78}, {"time": 117841, "pitch": 56, "duration": 682, "velocity": 61}, {"time": 118082, "pitch": 60, "duration": 421, "velocity": 61}, {"time": 118082, "pitch": 61, "duration": 481, "velocity": 63}, {"time": 118082, "pitch": 65, "duration": 491, "velocity": 67}, {"time": 118563, "pitch": 49, "duration": 946, "velocity": 67}, {"time": 118563, "pitch": 56, "duration": 946, "velocity": 60}, {"time": 118563, "pitch": 60, "duration": 525, "velocity": 76}, {"time": 118563, "pitch": 64, "duration": 946, "velocity": 72}, {"time": 119037, "pitch": 58, "duration": 472, "velocity": 74}, {"time": 119519, "pitch": 44, "duration": 1918, "velocity": 80}, {"time": 119759, "pitch": 51, "duration": 1678, "velocity": 75}, {"time": 120000, "pitch": 53, "duration": 1427, "velocity": 70}, {"time": 120241, "pitch": 58, "duration": 1166, "velocity": 76}, {"time": 120481, "pitch": 60, "duration": 857, "velocity": 68}, {"time": 120481, "pitch": 63, "duration": 897, "velocity": 76}, {"time": 121437, "pitch": 49, "duration": 1925, "velocity": 72}, {"time": 121437, "pitch": 56, "duration": 240, "velocity": 69}, {"time": 121437, "pitch": 60, "duration": 240, "velocity": 73}, {"time": 121437, "pitch": 63, "duration": 220, "velocity": 76}, {"time": 121677, "pitch": 53, "duration": 301, "velocity": 66}, {"time": 121918, "pitch": 56, "duration": 241, "velocity": 66}, {"time": 121918, "pitch": 60, "duration": 241, "velocity": 72}, {"time": 121918, "pitch": 63, "duration": 231, "velocity": 76}, {"time": 122159, "pitch": 53, "duration": 260, "velocity": 59}, {"time": 122399, "pitch": 56, "duration": 261, "velocity": 67}, {"time": 122399, "pitch": 60, "duration": 251, "velocity": 66}, {"time": 122399, "pitch": 63, "duration": 221, "velocity": 76}, {"time": 122640, "pitch": 53, "duration": 251, "velocity": 56}, {"time": 122881, "pitch": 56, "duration": 280, "velocity": 71}, {"time": 122881, "pitch": 60, "duration": 240, "velocity": 70}, {"time": 122881, "pitch": 63, "duration": 210, "velocity": 76}, {"time": 123121, "pitch": 53, "duration": 251, "velocity": 73}, {"time": 123362, "pitch": 48, "duration": 1918, "velocity": 73}, {"time": 123362, "pitch": 58, "duration": 251, "velocity": 80}, {"time": 123362, "pitch": 63, "duration": 251, "velocity": 84}, {"time": 123603, "pitch": 55, "duration": 290, "velocity": 72}, {"time": 123843, "pitch": 58, "duration": 237, "velocity": 80}, {"time": 123843, "pitch": 63, "duration": 218, "velocity": 84}, {"time": 124080, "pitch": 55, "duration": 278, "velocity": 72}, {"time": 124317, "pitch": 58, "duration": 261, "velocity": 79}, {"time": 124317, "pitch": 63, "duration": 231, "velocity": 85}, {"time": 124558, "pitch": 55, "duration": 281, "velocity": 73}, {"time": 124799, "pitch": 58, "duration": 240, "velocity": 81}, {"time": 124799, "pitch": 63, "duration": 240, "velocity": 85}, {"time": 125039, "pitch": 55, "duration": 251, "velocity": 69}, {"time": 125280, "pitch": 46, "duration": 953, "velocity": 71}, {"time": 125280, "pitch": 58, "duration": 221, "velocity": 74}, {"time": 125280, "pitch": 61, "duration": 231, "velocity": 76}, {"time": 125280, "pitch": 63, "duration": 211, "velocity": 83}, {"time": 125521, "pitch": 53, "duration": 250, "velocity": 72}, {"time": 125761, "pitch": 58, "duration": 231, "velocity": 73}, {"time": 125761, "pitch": 61, "duration": 221, "velocity": 71}, {"time": 125761, "pitch": 63, "duration": 211, "velocity": 83}, {"time": 126002, "pitch": 53, "duration": 250, "velocity": 76}, {"time": 126242, "pitch": 44, "duration": 956, "velocity": 70}, {"time": 126242, "pitch": 58, "duration": 238, "velocity": 78}, {"time": 126242, "pitch": 61, "duration": 218, "velocity": 81}, {"time": 126242, "pitch": 63, "duration": 238, "velocity": 84}, {"time": 126480, "pitch": 53, "duration": 267, "velocity": 73}, {"time": 126717, "pitch": 58, "duration": 260, "velocity": 69}, {"time": 126717, "pitch": 61, "duration": 220, "velocity": 78}, {"time": 126717, "pitch": 63, "duration": 220, "velocity": 83}, {"time": 126957, "pitch": 53, "duration": 231, "velocity": 69}, {"time": 127198, "pitch": 43, "duration": 973, "velocity": 71}, {"time": 127198, "pitch": 61, "duration": 241, "velocity": 81}, {"time": 127198, "pitch": 65, "duration": 241, "velocity": 85}, {"time": 127439, "pitch": 58, "duration": 260, "velocity": 79}, {"time": 127679, "pitch": 61, "duration": 241, "velocity": 80}, {"time": 127679, "pitch": 65, "duration": 241, "velocity": 85}, {"time": 127920, "pitch": 58, "duration": 231, "velocity": 79}, {"time": 128161, "pitch": 48, "duration": 511, "velocity": 78}, {"time": 128161, "pitch": 58, "duration": 962, "velocity": 79}, {"time": 128161, "pitch": 64, "duration": 501, "velocity": 88}, {"time": 128642, "pitch": 50, "duration": 251, "velocity": 71}, {"time": 128642, "pitch": 65, "duration": 241, "velocity": 79}, {"time": 128883, "pitch": 52, "duration": 240, "velocity": 73}, {"time": 128883, "pitch": 67, "duration": 240, "velocity": 78}, {"time": 129123, "pitch": 53, "duration": 946, "velocity": 76}, {"time": 129360, "pitch": 60, "duration": 288, "velocity": 83}, {"time": 129597, "pitch": 65, "duration": 462, "velocity": 74}, {"time": 129597, "pitch": 68, "duration": 442, "velocity": 82}, {"time": 130079, "pitch": 51, "duration": 962, "velocity": 84}, {"time": 130319, "pitch": 56, "duration": 261, "velocity": 75}, {"time": 130560, "pitch": 60, "duration": 481, "velocity": 60}, {"time": 130560, "pitch": 67, "duration": 441, "velocity": 78}, {"time": 131041, "pitch": 49, "duration": 966, "velocity": 84}, {"time": 131282, "pitch": 56, "duration": 270, "velocity": 79}, {"time": 131522, "pitch": 60, "duration": 505, "velocity": 68}, {"time": 131522, "pitch": 65, "duration": 475, "velocity": 88}, {"time": 131997, "pitch": 48, "duration": 491, "velocity": 74}, {"time": 131997, "pitch": 58, "duration": 491, "velocity": 77}, {"time": 131997, "pitch": 63, "duration": 952, "velocity": 85}, {"time": 132478, "pitch": 53, "duration": 451, "velocity": 69}, {"time": 132478, "pitch": 56, "duration": 451, "velocity": 74}, {"time": 132959, "pitch": 42, "duration": 1918, "velocity": 70}, {"time": 132959, "pitch": 49, "duration": 1918, "velocity": 70}, {"time": 132959, "pitch": 56, "duration": 1879, "velocity": 78}, {"time": 132959, "pitch": 58, "duration": 1899, "velocity": 67}, {"time": 132959, "pitch": 61, "duration": 1899, "velocity": 73}, {"time": 132959, "pitch": 65, "duration": 1889, "velocity": 83}, {"time": 134877, "pitch": 39, "duration": 1916, "velocity": 83}, {"time": 134877, "pitch": 51, "duration": 1905, "velocity": 81}, {"time": 135359, "pitch": 56, "duration": 451, "velocity": 77}, {"time": 135359, "pitch": 61, "duration": 471, "velocity": 78}, {"time": 135359, "pitch": 65, "duration": 471, "velocity": 82}, {"time": 135840, "pitch": 55, "duration": 491, "velocity": 76}, {"time": 135840, "pitch": 60, "duration": 481, "velocity": 69}, {"time": 135840, "pitch": 63, "duration": 511, "velocity": 81}, {"time": 136321, "pitch": 53, "duration": 472, "velocity": 70}, {"time": 136321, "pitch": 58, "duration": 421, "velocity": 76}, {"time": 136321, "pitch": 61, "duration": 472, "velocity": 82}, {"time": 136802, "pitch": 49, "duration": 1919, "velocity": 71}, {"time": 136802, "pitch": 56, "duration": 257, "velocity": 71}, {"time": 136802, "pitch": 60, "duration": 248, "velocity": 64}, {"time": 136802, "pitch": 63, "duration": 248, "velocity": 75}, {"time": 137040, "pitch": 53, "duration": 257, "velocity": 65}, {"time": 137277, "pitch": 56, "duration": 240, "velocity": 67}, {"time": 137277, "pitch": 60, "duration": 240, "velocity": 69}, {"time": 137277, "pitch": 63, "duration": 210, "velocity": 77}, {"time": 137517, "pitch": 53, "duration": 261, "velocity": 65}, {"time": 137758, "pitch": 56, "duration": 251, "velocity": 66}, {"time": 137758, "pitch": 60, "duration": 231, "velocity": 69}, {"time": 137758, "pitch": 63, "duration": 251, "velocity": 78}, {"time": 137999, "pitch": 53, "duration": 250, "velocity": 63}, {"time": 138239, "pitch": 56, "duration": 281, "velocity": 71}, {"time": 138239, "pitch": 60, "duration": 261, "velocity": 68}, {"time": 138239, "pitch": 63, "duration": 261, "velocity": 79}, {"time": 138480, "pitch": 53, "duration": 251, "velocity": 67}, {"time": 138721, "pitch": 44, "duration": 982, "velocity": 73}, {"time": 138721, "pitch": 58, "duration": 290, "velocity": 68}, {"time": 138721, "pitch": 60, "duration": 260, "velocity": 74}, {"time": 138721, "pitch": 63, "duration": 260, "velocity": 81}, {"time": 138961, "pitch": 55, "duration": 281, "velocity": 77}, {"time": 139202, "pitch": 58, "duration": 251, "velocity": 71}, {"time": 139202, "pitch": 60, "duration": 210, "velocity": 70}, {"time": 139202, "pitch": 63, "duration": 251, "velocity": 81}, {"time": 139443, "pitch": 55, "duration": 260, "velocity": 81}, {"time": 139683, "pitch": 43, "duration": 936, "velocity": 72}, {"time": 139683, "pitch": 58, "duration": 936, "velocity": 77}, {"time": 139683, "pitch": 60, "duration": 474, "velocity": 78}, {"time": 139683, "pitch": 64, "duration": 474, "velocity": 87}, {"time": 140157, "pitch": 62, "duration": 251, "velocity": 72}, {"time": 140157, "pitch": 65, "duration": 251, "velocity": 89}, {"time": 140398, "pitch": 64, "duration": 251, "velocity": 75}, {"time": 140398, "pitch": 67, "duration": 221, "velocity": 85}, {"time": 140639, "pitch": 53, "duration": 1002, "velocity": 78}, {"time": 140879, "pitch": 60, "duration": 271, "velocity": 85}, {"time": 141120, "pitch": 65, "duration": 441, "velocity": 73}, {"time": 141120, "pitch": 68, "duration": 411, "velocity": 81}, {"time": 141601, "pitch": 51, "duration": 946, "velocity": 86}, {"time": 141842, "pitch": 56, "duration": 250, "velocity": 75}, {"time": 142082, "pitch": 60, "duration": 475, "velocity": 70}, {"time": 142082, "pitch": 67, "duration": 475, "velocity": 80}, {"time": 142557, "pitch": 49, "duration": 1704, "velocity": 82}, {"time": 142797, "pitch": 56, "duration": 231, "velocity": 84}, {"time": 143038, "pitch": 65, "duration": 251, "velocity": 81}, {"time": 143279, "pitch": 60, "duration": 270, "velocity": 82}, {"time": 143519, "pitch": 65, "duration": 752, "velocity": 73}, {"time": 143519, "pitch": 72, "duration": 732, "velocity": 84}, {"time": 144482, "pitch": 48, "duration": 1848, "velocity": 83}, {"time": 144522, "pitch": 55, "duration": 1798, "velocity": 63}, {"time": 144582, "pitch": 58, "duration": 1758, "velocity": 78}, {"time": 144632, "pitch": 63, "duration": 1678, "velocity": 83}, {"time": 144702, "pitch": 70, "duration": 1608, "velocity": 79}, {"time": 146400, "pitch": 41, "duration": 672, "velocity": 77}, {"time": 146400, "pitch": 58, "duration": 592, "velocity": 78}, {"time": 146400, "pitch": 63, "duration": 642, "velocity": 70}, {"time": 146400, "pitch": 67, "duration": 672, "velocity": 84}, {"time": 147122, "pitch": 53, "duration": 1156, "velocity": 65}, {"time": 147122, "pitch": 60, "duration": 1136, "velocity": 70}, {"time": 147122, "pitch": 63, "duration": 1126, "velocity": 78}, {"time": 147122, "pitch": 68, "duration": 1166, "velocity": 85}, {"time": 148318, "pitch": 46, "duration": 682, "velocity": 78}, {"time": 148318, "pitch": 56, "duration": 692, "velocity": 78}, {"time": 148318, "pitch": 61, "duration": 682, "velocity": 81}, {"time": 148318, "pitch": 65, "duration": 682, "velocity": 87}, {"time": 149040, "pitch": 46, "duration": 1193, "velocity": 79}, {"time": 149040, "pitch": 56, "duration": 1143, "velocity": 83}, {"time": 149040, "pitch": 61, "duration": 1133, "velocity": 78}, {"time": 149040, "pitch": 65, "duration": 1123, "velocity": 88}, {"time": 150243, "pitch": 37, "duration": 1918, "velocity": 71}, {"time": 150243, "pitch": 49, "duration": 1918, "velocity": 74}, {"time": 150243, "pitch": 56, "duration": 1898, "velocity": 69}, {"time": 150243, "pitch": 60, "duration": 1447, "velocity": 82}, {"time": 150243, "pitch": 64, "duration": 1878, "velocity": 66}, {"time": 151680, "pitch": 58, "duration": 471, "velocity": 79}, {"time": 152161, "pitch": 48, "duration": 1918, "velocity": 77}, {"time": 152161, "pitch": 55, "duration": 887, "velocity": 70}, {"time": 152161, "pitch": 58, "duration": 897, "velocity": 66}, {"time": 152161, "pitch": 63, "duration": 956, "velocity": 82}, {"time": 153117, "pitch": 58, "duration": 912, "velocity": 70}, {"time": 153117, "pitch": 63, "duration": 902, "velocity": 71}, {"time": 153117, "pitch": 67, "duration": 942, "velocity": 82}, {"time": 154079, "pitch": 41, "duration": 1918, "velocity": 72}, {"time": 154079, "pitch": 58, "duration": 502, "velocity": 70}, {"time": 154079, "pitch": 63, "duration": 883, "velocity": 66}, {"time": 154079, "pitch": 67, "duration": 522, "velocity": 81}, {"time": 154561, "pitch": 60, "duration": 411, "velocity": 64}, {"time": 154561, "pitch": 68, "duration": 401, "velocity": 78}, {"time": 155042, "pitch": 56, "duration": 916, "velocity": 61}, {"time": 155042, "pitch": 60, "duration": 946, "velocity": 60}, {"time": 155042, "pitch": 63, "duration": 886, "velocity": 73}, {"time": 155997, "pitch": 46, "duration": 1915, "velocity": 84}, {"time": 155997, "pitch": 56, "duration": 1915, "velocity": 68}, {"time": 155997, "pitch": 60, "duration": 1795, "velocity": 56}, {"time": 155997, "pitch": 61, "duration": 1795, "velocity": 64}, {"time": 155997, "pitch": 65, "duration": 1835, "velocity": 66}, {"time": 157922, "pitch": 49, "duration": 1899, "velocity": 66}, {"time": 157922, "pitch": 56, "duration": 1959, "velocity": 69}, {"time": 157922, "pitch": 60, "duration": 1447, "velocity": 81}, {"time": 157922, "pitch": 64, "duration": 1959, "velocity": 69}, {"time": 159359, "pitch": 58, "duration": 441, "velocity": 74}, {"time": 159841, "pitch": 65, "duration": 952, "velocity": 69}, {"time": 159841, "pitch": 69, "duration": 912, "velocity": 67}, {"time": 159841, "pitch": 72, "duration": 972, "velocity": 62}, {"time": 159841, "pitch": 76, "duration": 972, "velocity": 73}, {"time": 160803, "pitch": 67, "duration": 956, "velocity": 69}, {"time": 160803, "pitch": 70, "duration": 916, "velocity": 74}, {"time": 160803, "pitch": 74, "duration": 946, "velocity": 64}, {"time": 160803, "pitch": 77, "duration": 855, "velocity": 69}, {"time": 161759, "pitch": 69, "duration": 932, "velocity": 67}, {"time": 161759, "pitch": 72, "duration": 942, "velocity": 68}, {"time": 161759, "pitch": 76, "duration": 952, "velocity": 66}, {"time": 161759, "pitch": 79, "duration": 862, "velocity": 72}, {"time": 162721, "pitch": 67, "duration": 966, "velocity": 65}, {"time": 162721, "pitch": 70, "duration": 926, "velocity": 69}, {"time": 162721, "pitch": 74, "duration": 906, "velocity": 74}, {"time": 162721, "pitch": 77, "duration": 926, "velocity": 68}, {"time": 163677, "pitch": 65, "duration": 972, "velocity": 67}, {"time": 163677, "pitch": 69, "duration": 902, "velocity": 60}, {"time": 163677, "pitch": 72, "duration": 962, "velocity": 60}, {"time": 163677, "pitch": 76, "duration": 952, "velocity": 66}, {"time": 164639, "pitch": 67, "duration": 953, "velocity": 67}, {"time": 164639, "pitch": 70, "duration": 933, "velocity": 67}, {"time": 164639, "pitch": 74, "duration": 953, "velocity": 74}, {"time": 164639, "pitch": 77, "duration": 903, "velocity": 67}, {"time": 165602, "pitch": 69, "duration": 965, "velocity": 67}, {"time": 165602, "pitch": 72, "duration": 946, "velocity": 62}, {"time": 165602, "pitch": 76, "duration": 965, "velocity": 64}, {"time": 165602, "pitch": 79, "duration": 926, "velocity": 70}, {"time": 166557, "pitch": 67, "duration": 963, "velocity": 63}, {"time": 166557, "pitch": 70, "duration": 903, "velocity": 60}, {"time": 166557, "pitch": 74, "duration": 953, "velocity": 65}, {"time": 166557, "pitch": 77, "duration": 903, "velocity": 72}, {"time": 167520, "pitch": 65, "duration": 972, "velocity": 67}, {"time": 167520, "pitch": 69, "duration": 902, "velocity": 60}, {"time": 167520, "pitch": 72, "duration": 962, "velocity": 60}, {"time": 167520, "pitch": 76, "duration": 952, "velocity": 66}, {"time": 168482, "pitch": 67, "duration": 946, "velocity": 67}, {"time": 168482, "pitch": 70, "duration": 926, "velocity": 67}, {"time": 168482, "pitch": 74, "duration": 946, "velocity": 74}, {"time": 168482, "pitch": 77, "duration": 896, "velocity": 67}, {"time": 169438, "pitch": 69, "duration": 973, "velocity": 67}, {"time": 169438, "pitch": 72, "duration": 953, "velocity": 62}, {"time": 169438, "pitch": 76, "duration": 973, "velocity": 64}, {"time": 169438, "pitch": 79, "duration": 933, "velocity": 70}, {"time": 170401, "pitch": 67, "duration": 962, "velocity": 63}, {"time": 170401, "pitch": 70, "duration": 902, "velocity": 60}, {"time": 170401, "pitch": 74, "duration": 952, "velocity": 65}, {"time": 170401, "pitch": 77, "duration": 902, "velocity": 72}, {"time": 171363, "pitch": 65, "duration": 973, "velocity": 67}, {"time": 171363, "pitch": 69, "duration": 903, "velocity": 60}, {"time": 171363, "pitch": 72, "duration": 963, "velocity": 60}, {"time": 171363, "pitch": 76, "duration": 953, "velocity": 66}, {"time": 172326, "pitch": 67, "duration": 952, "velocity": 67}, {"time": 172326, "pitch": 70, "duration": 932, "velocity": 67}, {"time": 172326, "pitch": 74, "duration": 952, "velocity": 74}, {"time": 172326, "pitch": 77, "duration": 902, "velocity": 67}, {"time": 173288, "pitch": 69, "duration": 973, "velocity": 67}, {"time": 173288, "pitch": 72, "duration": 953, "velocity": 62}, {"time": 173288, "pitch": 76, "duration": 973, "velocity": 64}, {"time": 173288, "pitch": 79, "duration": 933, "velocity": 70}, {"time": 174251, "pitch": 67, "duration": 962, "velocity": 63}, {"time": 174251, "pitch": 70, "duration": 902, "velocity": 60}, {"time": 174251, "pitch": 74, "duration": 952, "velocity": 65}, {"time": 174251, "pitch": 77, "duration": 902, "velocity": 72}, {"time": 175213, "pitch": 65, "duration": 973, "velocity": 67}, {"time": 175213, "pitch": 69, "duration": 903, "velocity": 60}, {"time": 175213, "pitch": 72, "duration": 963, "velocity": 60}, {"time": 175213, "pitch": 76, "duration": 953, "velocity": 66}, {"time": 176176, "pitch": 67, "duration": 953, "velocity": 67}, {"time": 176176, "pitch": 70, "duration": 932, "velocity": 67}, {"time": 176176, "pitch": 74, "duration": 953, "velocity": 74}, {"time": 176176, "pitch": 77, "duration": 902, "velocity": 67}, {"time": 177139, "pitch": 69, "duration": 972, "velocity": 67}, {"time": 177139, "pitch": 72, "duration": 952, "velocity": 62}, {"time": 177139, "pitch": 76, "duration": 972, "velocity": 64}, {"time": 177139, "pitch": 79, "duration": 932, "velocity": 70}, {"time": 178101, "pitch": 67, "duration": 963, "velocity": 63}, {"time": 178101, "pitch": 70, "duration": 903, "velocity": 60}, {"time": 178101, "pitch": 74, "duration": 953, "velocity": 65}, {"time": 178101, "pitch": 77, "duration": 903, "velocity": 72}], "annotations": [{"time": 287, "annotation": {"number": 0, "value": 0}, "group": "control_change"}, {"time": 303, "annotation": {"number": 32, "value": 2}, "group": "control_change"}, {"time": 335, "annotation": {"number": 7, "value": 115}, "group": "control_change"}, {"time": 351, "annotation": {"number": 11, "value": 100}, "group": "control_change"}, {"time": 367, "annotation": {"number": 10, "value": 64}, "group": "control_change"}, {"time": 383, "annotation": {"number": 91, "value": 80}, "group": "control_change"}, {"time": 399, "annotation": {"number": 93, "value": 20}, "group": "control_change"}, {"time": 415, "annotation": {"number": 101, "value": 0}, "group": "control_change"}, {"time": 431, "annotation": {"number": 100, "value": 0}, "group": "control_change"}, {"time": 447, "annotation": {"number": 6, "value": 12}, "group": "control_change"}, {"time": 463, "annotation": {"number": 101, "value": 127}, "group": "control_change"}, {"time": 479, "annotation": {"number": 100, "value": 127}, "group": "control_change"}]}, {"program": 0, "is_drum": false, "name": "Bass", "annotations": [{"time": 287, "annotation": {"number": 0, "value": 0}, "group": "control_change"}, {"time": 303, "annotation": {"number": 32, "value": 2}, "group": "control_change"}]}, {"program": 33, "is_drum": false, "name": "Bass", "notes": [{"time": 30721, "pitch": 39, "duration": 482, "velocity": 117}, {"time": 31203, "pitch": 32, "duration": 915, "velocity": 117}, {"time": 32158, "pitch": 34, "duration": 923, "velocity": 114}, {"time": 33121, "pitch": 36, "duration": 922, "velocity": 111}, {"time": 34083, "pitch": 41, "duration": 916, "velocity": 109}, {"time": 35039, "pitch": 34, "duration": 922, "velocity": 116}, {"time": 36001, "pitch": 39, "duration": 451, "velocity": 114}, {"time": 36483, "pitch": 37, "duration": 444, "velocity": 110}, {"time": 36957, "pitch": 36, "duration": 922, "velocity": 109}, {"time": 37919, "pitch": 29, "duration": 452, "velocity": 107}, {"time": 38401, "pitch": 41, "duration": 451, "velocity": 110}, {"time": 38882, "pitch": 34, "duration": 916, "velocity": 110}, {"time": 39837, "pitch": 39, "duration": 923, "velocity": 107}, {"time": 40800, "pitch": 44, "duration": 451, "velocity": 105}, {"time": 41281, "pitch": 43, "duration": 451, "velocity": 103}, {"time": 41763, "pitch": 41, "duration": 915, "velocity": 105}, {"time": 42718, "pitch": 34, "duration": 923, "velocity": 108}, {"time": 43681, "pitch": 37, "duration": 922, "velocity": 106}, {"time": 44643, "pitch": 32, "duration": 1898, "velocity": 106}, {"time": 46561, "pitch": 37, "duration": 1648, "velocity": 106}, {"time": 48239, "pitch": 37, "duration": 220, "velocity": 102}, {"time": 48479, "pitch": 36, "duration": 1424, "velocity": 109}, {"time": 49923, "pitch": 36, "duration": 445, "velocity": 105}, {"time": 50397, "pitch": 34, "duration": 923, "velocity": 111}, {"time": 51360, "pitch": 32, "duration": 682, "velocity": 110}, {"time": 52082, "pitch": 32, "duration": 220, "velocity": 108}, {"time": 52323, "pitch": 31, "duration": 915, "velocity": 112}, {"time": 53278, "pitch": 36, "duration": 923, "velocity": 109}, {"time": 54241, "pitch": 41, "duration": 451, "velocity": 111}, {"time": 54722, "pitch": 53, "duration": 451, "velocity": 114}, {"time": 55203, "pitch": 39, "duration": 445, "velocity": 112}, {"time": 55677, "pitch": 51, "duration": 452, "velocity": 116}, {"time": 56159, "pitch": 37, "duration": 451, "velocity": 108}, {"time": 56640, "pitch": 49, "duration": 451, "velocity": 112}, {"time": 57121, "pitch": 36, "duration": 451, "velocity": 110}, {"time": 57603, "pitch": 41, "duration": 444, "velocity": 113}, {"time": 58077, "pitch": 42, "duration": 922, "velocity": 113}, {"time": 59039, "pitch": 30, "duration": 452, "velocity": 112}, {"time": 59521, "pitch": 42, "duration": 451, "velocity": 110}, {"time": 60002, "pitch": 39, "duration": 1417, "velocity": 112}, {"time": 61439, "pitch": 39, "duration": 451, "velocity": 106}, {"time": 61920, "pitch": 37, "duration": 1637, "velocity": 111}, {"time": 63597, "pitch": 37, "duration": 221, "velocity": 104}, {"time": 63838, "pitch": 32, "duration": 451, "velocity": 111}, {"time": 64319, "pitch": 44, "duration": 452, "velocity": 113}, {"time": 64801, "pitch": 43, "duration": 922, "velocity": 109}, {"time": 65763, "pitch": 41, "duration": 445, "velocity": 113}, {"time": 66237, "pitch": 53, "duration": 452, "velocity": 117}, {"time": 66719, "pitch": 39, "duration": 451, "velocity": 113}, {"time": 67200, "pitch": 51, "duration": 451, "velocity": 115}, {"time": 67681, "pitch": 37, "duration": 451, "velocity": 107}, {"time": 68163, "pitch": 49, "duration": 915, "velocity": 111}, {"time": 69118, "pitch": 37, "duration": 451, "velocity": 107}, {"time": 69599, "pitch": 36, "duration": 1899, "velocity": 109}, {"time": 71517, "pitch": 41, "duration": 682, "velocity": 111}, {"time": 72239, "pitch": 41, "duration": 1173, "velocity": 114}, {"time": 73443, "pitch": 34, "duration": 674, "velocity": 112}, {"time": 74157, "pitch": 34, "duration": 1184, "velocity": 115}, {"time": 75361, "pitch": 37, "duration": 1417, "velocity": 110}, {"time": 76797, "pitch": 37, "duration": 452, "velocity": 105}, {"time": 77279, "pitch": 32, "duration": 1898, "velocity": 110}, {"time": 79197, "pitch": 32, "duration": 922, "velocity": 113}, {"time": 80159, "pitch": 34, "duration": 923, "velocity": 108}, {"time": 81122, "pitch": 36, "duration": 916, "velocity": 110}, {"time": 82077, "pitch": 34, "duration": 923, "velocity": 109}, {"time": 83040, "pitch": 32, "duration": 922, "velocity": 113}, {"time": 84003, "pitch": 34, "duration": 915, "velocity": 109}, {"time": 84958, "pitch": 36, "duration": 923, "velocity": 107}, {"time": 85921, "pitch": 34, "duration": 4778, "velocity": 104}, {"time": 90719, "pitch": 32, "duration": 682, "velocity": 111}, {"time": 91441, "pitch": 32, "duration": 221, "velocity": 106}, {"time": 91682, "pitch": 34, "duration": 679, "velocity": 111}, {"time": 92400, "pitch": 34, "duration": 218, "velocity": 107}, {"time": 92637, "pitch": 36, "duration": 682, "velocity": 110}, {"time": 93359, "pitch": 36, "duration": 221, "velocity": 104}, {"time": 93600, "pitch": 41, "duration": 682, "velocity": 109}, {"time": 94322, "pitch": 41, "duration": 220, "velocity": 104}, {"time": 94563, "pitch": 34, "duration": 674, "velocity": 111}, {"time": 95277, "pitch": 34, "duration": 221, "velocity": 106}, {"time": 95518, "pitch": 39, "duration": 451, "velocity": 114}, {"time": 95999, "pitch": 37, "duration": 452, "velocity": 111}, {"time": 96481, "pitch": 36, "duration": 681, "velocity": 110}, {"time": 97203, "pitch": 36, "duration": 220, "velocity": 103}, {"time": 97443, "pitch": 41, "duration": 675, "velocity": 110}, {"time": 98158, "pitch": 41, "duration": 221, "velocity": 106}, {"time": 98399, "pitch": 34, "duration": 451, "velocity": 109}, {"time": 98880, "pitch": 32, "duration": 451, "velocity": 107}, {"time": 99361, "pitch": 31, "duration": 451, "velocity": 110}, {"time": 99843, "pitch": 36, "duration": 444, "velocity": 107}, {"time": 100317, "pitch": 41, "duration": 682, "velocity": 110}, {"time": 101039, "pitch": 41, "duration": 220, "velocity": 102}, {"time": 101279, "pitch": 39, "duration": 682, "velocity": 111}, {"time": 102001, "pitch": 39, "duration": 221, "velocity": 107}, {"time": 102242, "pitch": 38, "duration": 679, "velocity": 111}, {"time": 102960, "pitch": 38, "duration": 218, "velocity": 106}, {"time": 103197, "pitch": 38, "duration": 923, "velocity": 110}, {"time": 104160, "pitch": 39, "duration": 682, "velocity": 112}, {"time": 104882, "pitch": 39, "duration": 220, "velocity": 108}, {"time": 105123, "pitch": 39, "duration": 915, "velocity": 113}, {"time": 106078, "pitch": 32, "duration": 682, "velocity": 111}, {"time": 106800, "pitch": 32, "duration": 221, "velocity": 110}, {"time": 107041, "pitch": 34, "duration": 681, "velocity": 113}, {"time": 107763, "pitch": 34, "duration": 220, "velocity": 109}, {"time": 108003, "pitch": 36, "duration": 675, "velocity": 110}, {"time": 108718, "pitch": 36, "duration": 221, "velocity": 105}, {"time": 108959, "pitch": 41, "duration": 682, "velocity": 112}, {"time": 109681, "pitch": 41, "duration": 220, "velocity": 106}, {"time": 109921, "pitch": 34, "duration": 679, "velocity": 110}, {"time": 110640, "pitch": 34, "duration": 217, "velocity": 106}, {"time": 110877, "pitch": 39, "duration": 451, "velocity": 114}, {"time": 111358, "pitch": 37, "duration": 451, "velocity": 110}, {"time": 111839, "pitch": 36, "duration": 682, "velocity": 112}, {"time": 112561, "pitch": 36, "duration": 221, "velocity": 104}, {"time": 112802, "pitch": 41, "duration": 679, "velocity": 112}, {"time": 113520, "pitch": 41, "duration": 218, "velocity": 108}, {"time": 113757, "pitch": 34, "duration": 682, "velocity": 111}, {"time": 114479, "pitch": 34, "duration": 221, "velocity": 103}, {"time": 114720, "pitch": 39, "duration": 682, "velocity": 112}, {"time": 115442, "pitch": 39, "duration": 220, "velocity": 106}, {"time": 115682, "pitch": 44, "duration": 445, "velocity": 110}, {"time": 116157, "pitch": 43, "duration": 451, "velocity": 107}, {"time": 116638, "pitch": 41, "duration": 923, "velocity": 114}, {"time": 117601, "pitch": 34, "duration": 922, "velocity": 113}, {"time": 118563, "pitch": 37, "duration": 916, "velocity": 105}, {"time": 119519, "pitch": 32, "duration": 682, "velocity": 113}, {"time": 120241, "pitch": 44, "duration": 100, "velocity": 112}, {"time": 120361, "pitch": 46, "duration": 100, "velocity": 105}, {"time": 120481, "pitch": 44, "duration": 916, "velocity": 110}, {"time": 121437, "pitch": 37, "duration": 1654, "velocity": 113}, {"time": 123121, "pitch": 37, "duration": 221, "velocity": 107}, {"time": 123362, "pitch": 36, "duration": 1417, "velocity": 111}, {"time": 124799, "pitch": 36, "duration": 451, "velocity": 109}, {"time": 125280, "pitch": 34, "duration": 922, "velocity": 111}, {"time": 126242, "pitch": 32, "duration": 675, "velocity": 105}, {"time": 126957, "pitch": 32, "duration": 221, "velocity": 109}, {"time": 127198, "pitch": 31, "duration": 923, "velocity": 111}, {"time": 128161, "pitch": 36, "duration": 922, "velocity": 109}, {"time": 129123, "pitch": 41, "duration": 445, "velocity": 112}, {"time": 129597, "pitch": 53, "duration": 452, "velocity": 116}, {"time": 130079, "pitch": 39, "duration": 451, "velocity": 113}, {"time": 130560, "pitch": 51, "duration": 451, "velocity": 116}, {"time": 131041, "pitch": 37, "duration": 451, "velocity": 110}, {"time": 131522, "pitch": 49, "duration": 445, "velocity": 113}, {"time": 131997, "pitch": 36, "duration": 451, "velocity": 110}, {"time": 132478, "pitch": 41, "duration": 451, "velocity": 113}, {"time": 132959, "pitch": 42, "duration": 923, "velocity": 114}, {"time": 133922, "pitch": 30, "duration": 451, "velocity": 112}, {"time": 134403, "pitch": 42, "duration": 445, "velocity": 110}, {"time": 134877, "pitch": 39, "duration": 1424, "velocity": 113}, {"time": 136321, "pitch": 39, "duration": 451, "velocity": 108}, {"time": 136802, "pitch": 37, "duration": 1658, "velocity": 113}, {"time": 138480, "pitch": 37, "duration": 221, "velocity": 109}, {"time": 138721, "pitch": 32, "duration": 451, "velocity": 112}, {"time": 139202, "pitch": 44, "duration": 451, "velocity": 113}, {"time": 139683, "pitch": 43, "duration": 916, "velocity": 109}, {"time": 140639, "pitch": 41, "duration": 451, "velocity": 113}, {"time": 141120, "pitch": 53, "duration": 451, "velocity": 115}, {"time": 141601, "pitch": 39, "duration": 451, "velocity": 111}, {"time": 142082, "pitch": 51, "duration": 445, "velocity": 114}, {"time": 142557, "pitch": 37, "duration": 451, "velocity": 107}, {"time": 143038, "pitch": 49, "duration": 922, "velocity": 112}, {"time": 144001, "pitch": 37, "duration": 451, "velocity": 109}, {"time": 144482, "pitch": 36, "duration": 1898, "velocity": 111}, {"time": 146400, "pitch": 41, "duration": 682, "velocity": 110}, {"time": 147122, "pitch": 41, "duration": 1176, "velocity": 112}, {"time": 148318, "pitch": 34, "duration": 682, "velocity": 110}, {"time": 149040, "pitch": 34, "duration": 1183, "velocity": 115}, {"time": 150243, "pitch": 37, "duration": 1417, "velocity": 114}, {"time": 151680, "pitch": 37, "duration": 451, "velocity": 108}, {"time": 152161, "pitch": 36, "duration": 916, "velocity": 111}, {"time": 153117, "pitch": 48, "duration": 922, "velocity": 108}, {"time": 154079, "pitch": 41, "duration": 1424, "velocity": 114}, {"time": 155523, "pitch": 29, "duration": 445, "velocity": 110}, {"time": 155997, "pitch": 34, "duration": 682, "velocity": 114}, {"time": 156719, "pitch": 34, "duration": 1183, "velocity": 116}, {"time": 157922, "pitch": 37, "duration": 1899, "velocity": 114}, {"time": 160081, "pitch": 41, "duration": 221, "velocity": 109}, {"time": 160322, "pitch": 53, "duration": 679, "velocity": 112}, {"time": 161040, "pitch": 41, "duration": 218, "velocity": 108}, {"time": 161277, "pitch": 53, "duration": 452, "velocity": 112}, {"time": 161999, "pitch": 41, "duration": 221, "velocity": 107}, {"time": 162240, "pitch": 53, "duration": 682, "velocity": 111}, {"time": 162962, "pitch": 41, "duration": 220, "velocity": 108}, {"time": 163202, "pitch": 53, "duration": 445, "velocity": 112}, {"time": 163917, "pitch": 41, "duration": 221, "velocity": 109}, {"time": 164158, "pitch": 53, "duration": 682, "velocity": 111}, {"time": 164880, "pitch": 41, "duration": 221, "velocity": 106}, {"time": 165121, "pitch": 53, "duration": 451, "velocity": 111}, {"time": 165843, "pitch": 41, "duration": 220, "velocity": 108}, {"time": 166083, "pitch": 53, "duration": 675, "velocity": 113}, {"time": 166798, "pitch": 41, "duration": 221, "velocity": 109}, {"time": 167039, "pitch": 53, "duration": 451, "velocity": 112}, {"time": 167761, "pitch": 41, "duration": 220, "velocity": 105}, {"time": 168001, "pitch": 53, "duration": 679, "velocity": 112}, {"time": 168720, "pitch": 41, "duration": 217, "velocity": 109}, {"time": 168957, "pitch": 53, "duration": 451, "velocity": 112}, {"time": 169679, "pitch": 41, "duration": 220, "velocity": 107}, {"time": 169919, "pitch": 53, "duration": 682, "velocity": 111}, {"time": 170641, "pitch": 41, "duration": 221, "velocity": 110}, {"time": 170882, "pitch": 53, "duration": 451, "velocity": 114}, {"time": 171604, "pitch": 41, "duration": 220, "velocity": 106}, {"time": 171844, "pitch": 53, "duration": 682, "velocity": 110}, {"time": 172566, "pitch": 41, "duration": 221, "velocity": 106}, {"time": 172807, "pitch": 53, "duration": 451, "velocity": 112}, {"time": 173529, "pitch": 41, "duration": 221, "velocity": 110}, {"time": 173770, "pitch": 53, "duration": 681, "velocity": 113}, {"time": 174492, "pitch": 41, "duration": 220, "velocity": 110}, {"time": 174732, "pitch": 53, "duration": 451, "velocity": 113}, {"time": 175454, "pitch": 41, "duration": 221, "velocity": 109}, {"time": 175695, "pitch": 53, "duration": 682, "velocity": 114}, {"time": 176417, "pitch": 41, "duration": 220, "velocity": 109}, {"time": 176657, "pitch": 53, "duration": 451, "velocity": 113}, {"time": 177379, "pitch": 41, "duration": 221, "velocity": 106}, {"time": 177620, "pitch": 53, "duration": 682, "velocity": 110}, {"time": 178342, "pitch": 41, "duration": 220, "velocity": 106}, {"time": 178582, "pitch": 53, "duration": 452, "velocity": 108}], "annotations": [{"time": 335, "annotation": {"number": 7, "value": 110}, "group": "control_change"}, {"time": 351, "annotation": {"number": 11, "value": 110}, "group": "control_change"}, {"time": 367, "annotation": {"number": 10, "value": 64}, "group": "control_change"}, {"time": 383, "annotation": {"number": 91, "value": 40}, "group": "control_change"}, {"time": 399, "annotation": {"number": 93, "value": 0}, "group": "control_change"}, {"time": 415, "annotation": {"number": 101, "value": 0}, "group": "control_change"}, {"time": 431, "annotation": {"number": 100, "value": 0}, "group": "control_change"}, {"time": 447, "annotation": {"number": 6, "value": 12}, "group": "control_change"}, {"time": 463, "annotation": {"number": 101, "value": 127}, "group": "control_change"}, {"time": 479, "annotation": {"number": 100, "value": 127}, "group": "control_change"}]}, {"program": 0, "is_drum": false, "name": "A.Guitar 1", "annotations": [{"time": 287, "annotation": {"number": 0, "value": 0}, "group": "control_change"}, {"time": 303, "annotation": {"number": 32, "value": 2}, "group": "control_change"}]}, {"program": 25, "is_drum": false, "name": "A.Guitar 1", "notes": [{"time": 31203, "pitch": 44, "duration": 915, "velocity": 78}, {"time": 31440, "pitch": 51, "duration": 357, "velocity": 86}, {"time": 31677, "pitch": 60, "duration": 361, "velocity": 89}, {"time": 31917, "pitch": 51, "duration": 221, "velocity": 82}, {"time": 32158, "pitch": 46, "duration": 923, "velocity": 79}, {"time": 32399, "pitch": 53, "duration": 371, "velocity": 85}, {"time": 32639, "pitch": 61, "duration": 361, "velocity": 89}, {"time": 32880, "pitch": 53, "duration": 221, "velocity": 83}, {"time": 33121, "pitch": 48, "duration": 922, "velocity": 83}, {"time": 33361, "pitch": 55, "duration": 361, "velocity": 90}, {"time": 33602, "pitch": 63, "duration": 361, "velocity": 94}, {"time": 33843, "pitch": 55, "duration": 220, "velocity": 87}, {"time": 34083, "pitch": 41, "duration": 916, "velocity": 85}, {"time": 34320, "pitch": 54, "duration": 358, "velocity": 89}, {"time": 34557, "pitch": 63, "duration": 361, "velocity": 91}, {"time": 34798, "pitch": 54, "duration": 221, "velocity": 81}, {"time": 35039, "pitch": 46, "duration": 922, "velocity": 78}, {"time": 35279, "pitch": 53, "duration": 361, "velocity": 86}, {"time": 35520, "pitch": 61, "duration": 361, "velocity": 89}, {"time": 35761, "pitch": 53, "duration": 220, "velocity": 82}, {"time": 36001, "pitch": 51, "duration": 916, "velocity": 79}, {"time": 36242, "pitch": 55, "duration": 369, "velocity": 85}, {"time": 36483, "pitch": 61, "duration": 355, "velocity": 89}, {"time": 36720, "pitch": 55, "duration": 217, "velocity": 83}, {"time": 36957, "pitch": 48, "duration": 922, "velocity": 83}, {"time": 37197, "pitch": 55, "duration": 361, "velocity": 90}, {"time": 37438, "pitch": 63, "duration": 361, "velocity": 94}, {"time": 37679, "pitch": 55, "duration": 220, "velocity": 87}, {"time": 37919, "pitch": 41, "duration": 923, "velocity": 85}, {"time": 38160, "pitch": 56, "duration": 361, "velocity": 89}, {"time": 38401, "pitch": 63, "duration": 361, "velocity": 91}, {"time": 38641, "pitch": 56, "duration": 221, "velocity": 81}, {"time": 38882, "pitch": 46, "duration": 916, "velocity": 78}, {"time": 39123, "pitch": 53, "duration": 359, "velocity": 86}, {"time": 39363, "pitch": 61, "duration": 356, "velocity": 89}, {"time": 39600, "pitch": 53, "duration": 218, "velocity": 82}, {"time": 39837, "pitch": 51, "duration": 923, "velocity": 79}, {"time": 40078, "pitch": 55, "duration": 371, "velocity": 85}, {"time": 40319, "pitch": 61, "duration": 361, "velocity": 89}, {"time": 40559, "pitch": 55, "duration": 221, "velocity": 83}, {"time": 40800, "pitch": 44, "duration": 922, "velocity": 83}, {"time": 41041, "pitch": 56, "duration": 361, "velocity": 90}, {"time": 41281, "pitch": 63, "duration": 361, "velocity": 94}, {"time": 41522, "pitch": 56, "duration": 221, "velocity": 87}, {"time": 41763, "pitch": 41, "duration": 915, "velocity": 85}, {"time": 42000, "pitch": 56, "duration": 357, "velocity": 89}, {"time": 42237, "pitch": 63, "duration": 361, "velocity": 91}, {"time": 42477, "pitch": 56, "duration": 221, "velocity": 81}, {"time": 42718, "pitch": 46, "duration": 923, "velocity": 88}, {"time": 42959, "pitch": 53, "duration": 671, "velocity": 82}, {"time": 43199, "pitch": 56, "duration": 411, "velocity": 91}, {"time": 43440, "pitch": 61, "duration": 201, "velocity": 85}, {"time": 43681, "pitch": 49, "duration": 922, "velocity": 89}, {"time": 43921, "pitch": 52, "duration": 682, "velocity": 82}, {"time": 44162, "pitch": 56, "duration": 391, "velocity": 91}, {"time": 44403, "pitch": 61, "duration": 190, "velocity": 85}, {"time": 44643, "pitch": 44, "duration": 845, "velocity": 99}, {"time": 44880, "pitch": 51, "duration": 598, "velocity": 85}, {"time": 45117, "pitch": 56, "duration": 341, "velocity": 81}, {"time": 45358, "pitch": 60, "duration": 140, "velocity": 73}, {"time": 45508, "pitch": 44, "duration": 1003, "velocity": 84}, {"time": 45559, "pitch": 51, "duration": 942, "velocity": 80}, {"time": 45609, "pitch": 60, "duration": 892, "velocity": 72}, {"time": 45659, "pitch": 68, "duration": 862, "velocity": 89}, {"time": 69599, "pitch": 48, "duration": 1909, "velocity": 100}, {"time": 69639, "pitch": 55, "duration": 1859, "velocity": 81}, {"time": 69670, "pitch": 58, "duration": 1838, "velocity": 86}, {"time": 69730, "pitch": 63, "duration": 1778, "velocity": 89}, {"time": 71517, "pitch": 41, "duration": 622, "velocity": 89}, {"time": 71517, "pitch": 51, "duration": 622, "velocity": 96}, {"time": 71517, "pitch": 56, "duration": 622, "velocity": 82}, {"time": 71517, "pitch": 60, "duration": 622, "velocity": 87}, {"time": 72239, "pitch": 41, "duration": 1103, "velocity": 86}, {"time": 72239, "pitch": 51, "duration": 1103, "velocity": 94}, {"time": 72239, "pitch": 56, "duration": 1103, "velocity": 80}, {"time": 72239, "pitch": 60, "duration": 1103, "velocity": 91}, {"time": 73443, "pitch": 46, "duration": 634, "velocity": 97}, {"time": 73443, "pitch": 53, "duration": 634, "velocity": 88}, {"time": 73443, "pitch": 56, "duration": 634, "velocity": 81}, {"time": 73443, "pitch": 61, "duration": 634, "velocity": 97}, {"time": 74157, "pitch": 46, "duration": 1063, "velocity": 84}, {"time": 74157, "pitch": 53, "duration": 1053, "velocity": 75}, {"time": 74157, "pitch": 56, "duration": 1063, "velocity": 76}, {"time": 74157, "pitch": 61, "duration": 1093, "velocity": 93}, {"time": 75361, "pitch": 49, "duration": 1787, "velocity": 95}, {"time": 75401, "pitch": 53, "duration": 1727, "velocity": 89}, {"time": 75451, "pitch": 56, "duration": 1677, "velocity": 76}, {"time": 75511, "pitch": 58, "duration": 1627, "velocity": 95}, {"time": 77269, "pitch": 44, "duration": 1869, "velocity": 89}, {"time": 77319, "pitch": 56, "duration": 1848, "velocity": 89}, {"time": 77379, "pitch": 60, "duration": 1808, "velocity": 84}, {"time": 77459, "pitch": 63, "duration": 1708, "velocity": 84}, {"time": 79197, "pitch": 44, "duration": 922, "velocity": 78}, {"time": 79437, "pitch": 51, "duration": 361, "velocity": 86}, {"time": 79678, "pitch": 60, "duration": 361, "velocity": 89}, {"time": 79919, "pitch": 51, "duration": 220, "velocity": 82}, {"time": 80159, "pitch": 46, "duration": 923, "velocity": 79}, {"time": 80400, "pitch": 53, "duration": 371, "velocity": 85}, {"time": 80641, "pitch": 61, "duration": 361, "velocity": 89}, {"time": 80881, "pitch": 53, "duration": 221, "velocity": 83}, {"time": 81122, "pitch": 48, "duration": 916, "velocity": 83}, {"time": 81363, "pitch": 55, "duration": 359, "velocity": 90}, {"time": 81603, "pitch": 63, "duration": 356, "velocity": 94}, {"time": 81840, "pitch": 55, "duration": 218, "velocity": 87}, {"time": 82077, "pitch": 46, "duration": 923, "velocity": 85}, {"time": 82318, "pitch": 53, "duration": 361, "velocity": 89}, {"time": 82559, "pitch": 61, "duration": 361, "velocity": 91}, {"time": 82799, "pitch": 53, "duration": 221, "velocity": 81}, {"time": 83040, "pitch": 44, "duration": 922, "velocity": 78}, {"time": 83281, "pitch": 51, "duration": 361, "velocity": 86}, {"time": 83521, "pitch": 60, "duration": 361, "velocity": 89}, {"time": 83762, "pitch": 51, "duration": 220, "velocity": 82}, {"time": 84003, "pitch": 46, "duration": 915, "velocity": 79}, {"time": 84240, "pitch": 53, "duration": 367, "velocity": 85}, {"time": 84477, "pitch": 61, "duration": 361, "velocity": 89}, {"time": 84717, "pitch": 53, "duration": 221, "velocity": 83}, {"time": 84958, "pitch": 48, "duration": 923, "velocity": 83}, {"time": 85199, "pitch": 55, "duration": 361, "velocity": 90}, {"time": 85439, "pitch": 63, "duration": 361, "velocity": 94}, {"time": 85680, "pitch": 55, "duration": 201, "velocity": 87}, {"time": 85901, "pitch": 46, "duration": 4798, "velocity": 85}, {"time": 85921, "pitch": 53, "duration": 4778, "velocity": 89}, {"time": 85941, "pitch": 61, "duration": 4758, "velocity": 91}, {"time": 85961, "pitch": 68, "duration": 4738, "velocity": 101}, {"time": 90719, "pitch": 44, "duration": 923, "velocity": 88}, {"time": 90960, "pitch": 51, "duration": 672, "velocity": 82}, {"time": 91201, "pitch": 55, "duration": 411, "velocity": 91}, {"time": 91441, "pitch": 60, "duration": 201, "velocity": 85}, {"time": 91682, "pitch": 46, "duration": 916, "velocity": 89}, {"time": 91923, "pitch": 53, "duration": 675, "velocity": 82}, {"time": 92163, "pitch": 56, "duration": 386, "velocity": 91}, {"time": 92400, "pitch": 61, "duration": 188, "velocity": 85}, {"time": 92637, "pitch": 48, "duration": 923, "velocity": 88}, {"time": 92878, "pitch": 55, "duration": 672, "velocity": 82}, {"time": 93119, "pitch": 58, "duration": 411, "velocity": 91}, {"time": 93359, "pitch": 63, "duration": 201, "velocity": 85}, {"time": 93600, "pitch": 41, "duration": 922, "velocity": 89}, {"time": 93841, "pitch": 48, "duration": 681, "velocity": 82}, {"time": 94081, "pitch": 54, "duration": 391, "velocity": 91}, {"time": 94322, "pitch": 63, "duration": 190, "velocity": 85}, {"time": 94563, "pitch": 46, "duration": 915, "velocity": 88}, {"time": 94800, "pitch": 53, "duration": 668, "velocity": 82}, {"time": 95037, "pitch": 56, "duration": 411, "velocity": 91}, {"time": 95277, "pitch": 61, "duration": 201, "velocity": 85}, {"time": 95518, "pitch": 51, "duration": 923, "velocity": 89}, {"time": 95759, "pitch": 58, "duration": 682, "velocity": 82}, {"time": 95999, "pitch": 61, "duration": 391, "velocity": 91}, {"time": 96240, "pitch": 63, "duration": 190, "velocity": 85}, {"time": 96481, "pitch": 48, "duration": 922, "velocity": 88}, {"time": 96721, "pitch": 55, "duration": 672, "velocity": 82}, {"time": 96962, "pitch": 58, "duration": 411, "velocity": 91}, {"time": 97203, "pitch": 63, "duration": 200, "velocity": 85}, {"time": 97443, "pitch": 41, "duration": 916, "velocity": 89}, {"time": 97680, "pitch": 48, "duration": 679, "velocity": 82}, {"time": 97917, "pitch": 51, "duration": 391, "velocity": 91}, {"time": 98158, "pitch": 56, "duration": 191, "velocity": 85}, {"time": 98399, "pitch": 46, "duration": 852, "velocity": 89}, {"time": 98639, "pitch": 53, "duration": 602, "velocity": 85}, {"time": 98880, "pitch": 56, "duration": 341, "velocity": 81}, {"time": 99121, "pitch": 61, "duration": 170, "velocity": 93}, {"time": 99321, "pitch": 43, "duration": 441, "velocity": 80}, {"time": 99341, "pitch": 49, "duration": 441, "velocity": 92}, {"time": 99361, "pitch": 58, "duration": 441, "velocity": 92}, {"time": 99381, "pitch": 64, "duration": 441, "velocity": 95}, {"time": 99802, "pitch": 48, "duration": 456, "velocity": 80}, {"time": 99822, "pitch": 52, "duration": 455, "velocity": 72}, {"time": 99843, "pitch": 58, "duration": 454, "velocity": 72}, {"time": 99862, "pitch": 60, "duration": 455, "velocity": 96}, {"time": 100317, "pitch": 41, "duration": 922, "velocity": 88}, {"time": 100557, "pitch": 48, "duration": 672, "velocity": 82}, {"time": 100798, "pitch": 51, "duration": 411, "velocity": 91}, {"time": 101039, "pitch": 56, "duration": 200, "velocity": 85}, {"time": 101279, "pitch": 51, "duration": 923, "velocity": 89}, {"time": 101520, "pitch": 53, "duration": 682, "velocity": 82}, {"time": 101761, "pitch": 56, "duration": 391, "velocity": 91}, {"time": 102001, "pitch": 60, "duration": 191, "velocity": 85}, {"time": 102242, "pitch": 50, "duration": 847, "velocity": 89}, {"time": 102483, "pitch": 53, "duration": 596, "velocity": 85}, {"time": 102723, "pitch": 56, "duration": 336, "velocity": 81}, {"time": 102960, "pitch": 58, "duration": 139, "velocity": 92}, {"time": 103109, "pitch": 46, "duration": 1001, "velocity": 84}, {"time": 103158, "pitch": 53, "duration": 942, "velocity": 80}, {"time": 103207, "pitch": 56, "duration": 893, "velocity": 72}, {"time": 103258, "pitch": 61, "duration": 862, "velocity": 89}, {"time": 104160, "pitch": 51, "duration": 852, "velocity": 89}, {"time": 104401, "pitch": 56, "duration": 601, "velocity": 85}, {"time": 104641, "pitch": 61, "duration": 341, "velocity": 81}, {"time": 104882, "pitch": 65, "duration": 180, "velocity": 93}, {"time": 105082, "pitch": 55, "duration": 436, "velocity": 80}, {"time": 105102, "pitch": 58, "duration": 436, "velocity": 82}, {"time": 105123, "pitch": 63, "duration": 434, "velocity": 96}, {"time": 105557, "pitch": 51, "duration": 461, "velocity": 80}, {"time": 105577, "pitch": 58, "duration": 461, "velocity": 72}, {"time": 105597, "pitch": 61, "duration": 461, "velocity": 96}, {"time": 106078, "pitch": 44, "duration": 923, "velocity": 88}, {"time": 106319, "pitch": 51, "duration": 671, "velocity": 82}, {"time": 106559, "pitch": 55, "duration": 411, "velocity": 91}, {"time": 106800, "pitch": 60, "duration": 201, "velocity": 85}, {"time": 107041, "pitch": 46, "duration": 922, "velocity": 89}, {"time": 107281, "pitch": 53, "duration": 682, "velocity": 82}, {"time": 107522, "pitch": 56, "duration": 391, "velocity": 91}, {"time": 107763, "pitch": 61, "duration": 190, "velocity": 85}, {"time": 108003, "pitch": 48, "duration": 916, "velocity": 88}, {"time": 108240, "pitch": 55, "duration": 669, "velocity": 82}, {"time": 108477, "pitch": 58, "duration": 411, "velocity": 91}, {"time": 108718, "pitch": 63, "duration": 201, "velocity": 85}, {"time": 108959, "pitch": 41, "duration": 922, "velocity": 89}, {"time": 109199, "pitch": 48, "duration": 682, "velocity": 82}, {"time": 109440, "pitch": 54, "duration": 391, "velocity": 91}, {"time": 109681, "pitch": 63, "duration": 190, "velocity": 85}, {"time": 109921, "pitch": 46, "duration": 916, "velocity": 88}, {"time": 110162, "pitch": 53, "duration": 665, "velocity": 82}, {"time": 110403, "pitch": 56, "duration": 405, "velocity": 91}, {"time": 110640, "pitch": 61, "duration": 197, "velocity": 85}, {"time": 110877, "pitch": 51, "duration": 922, "velocity": 89}, {"time": 111117, "pitch": 58, "duration": 682, "velocity": 82}, {"time": 111358, "pitch": 61, "duration": 391, "velocity": 91}, {"time": 111599, "pitch": 63, "duration": 190, "velocity": 85}, {"time": 111839, "pitch": 48, "duration": 923, "velocity": 88}, {"time": 112080, "pitch": 55, "duration": 672, "velocity": 82}, {"time": 112321, "pitch": 58, "duration": 411, "velocity": 91}, {"time": 112561, "pitch": 63, "duration": 201, "velocity": 85}, {"time": 112802, "pitch": 41, "duration": 916, "velocity": 89}, {"time": 113043, "pitch": 48, "duration": 675, "velocity": 82}, {"time": 113283, "pitch": 51, "duration": 386, "velocity": 91}, {"time": 113520, "pitch": 56, "duration": 188, "velocity": 85}, {"time": 113757, "pitch": 46, "duration": 923, "velocity": 88}, {"time": 113998, "pitch": 53, "duration": 672, "velocity": 82}, {"time": 114239, "pitch": 56, "duration": 411, "velocity": 91}, {"time": 114479, "pitch": 61, "duration": 201, "velocity": 85}, {"time": 114720, "pitch": 51, "duration": 922, "velocity": 89}, {"time": 114961, "pitch": 58, "duration": 681, "velocity": 82}, {"time": 115201, "pitch": 61, "duration": 391, "velocity": 91}, {"time": 115442, "pitch": 63, "duration": 190, "velocity": 85}, {"time": 115682, "pitch": 44, "duration": 916, "velocity": 88}, {"time": 115920, "pitch": 51, "duration": 668, "velocity": 82}, {"time": 116157, "pitch": 55, "duration": 411, "velocity": 91}, {"time": 116397, "pitch": 60, "duration": 201, "velocity": 85}, {"time": 116638, "pitch": 41, "duration": 923, "velocity": 89}, {"time": 116879, "pitch": 48, "duration": 682, "velocity": 82}, {"time": 117119, "pitch": 51, "duration": 391, "velocity": 91}, {"time": 117360, "pitch": 56, "duration": 190, "velocity": 85}, {"time": 117601, "pitch": 46, "duration": 852, "velocity": 89}, {"time": 117841, "pitch": 53, "duration": 602, "velocity": 85}, {"time": 118082, "pitch": 56, "duration": 341, "velocity": 81}, {"time": 118323, "pitch": 61, "duration": 140, "velocity": 73}, {"time": 118473, "pitch": 49, "duration": 996, "velocity": 84}, {"time": 118523, "pitch": 52, "duration": 936, "velocity": 80}, {"time": 118573, "pitch": 56, "duration": 886, "velocity": 72}, {"time": 118622, "pitch": 58, "duration": 857, "velocity": 89}, {"time": 119519, "pitch": 44, "duration": 852, "velocity": 89}, {"time": 119759, "pitch": 51, "duration": 602, "velocity": 85}, {"time": 120000, "pitch": 56, "duration": 341, "velocity": 81}, {"time": 120241, "pitch": 60, "duration": 140, "velocity": 73}, {"time": 120391, "pitch": 44, "duration": 996, "velocity": 84}, {"time": 120441, "pitch": 51, "duration": 937, "velocity": 80}, {"time": 120491, "pitch": 60, "duration": 887, "velocity": 72}, {"time": 120541, "pitch": 68, "duration": 856, "velocity": 89}, {"time": 150243, "pitch": 49, "duration": 1798, "velocity": 84}, {"time": 150293, "pitch": 52, "duration": 1778, "velocity": 80}, {"time": 150342, "pitch": 56, "duration": 1759, "velocity": 72}, {"time": 150391, "pitch": 58, "duration": 1740, "velocity": 89}, {"time": 152161, "pitch": 48, "duration": 916, "velocity": 88}, {"time": 152402, "pitch": 55, "duration": 665, "velocity": 82}, {"time": 152642, "pitch": 58, "duration": 406, "velocity": 91}, {"time": 152880, "pitch": 63, "duration": 197, "velocity": 85}, {"time": 153117, "pitch": 48, "duration": 922, "velocity": 89}, {"time": 153357, "pitch": 55, "duration": 682, "velocity": 82}, {"time": 153598, "pitch": 58, "duration": 391, "velocity": 91}, {"time": 153839, "pitch": 63, "duration": 190, "velocity": 85}, {"time": 154079, "pitch": 41, "duration": 853, "velocity": 89}, {"time": 154320, "pitch": 48, "duration": 602, "velocity": 85}, {"time": 154561, "pitch": 51, "duration": 341, "velocity": 81}, {"time": 154801, "pitch": 56, "duration": 141, "velocity": 73}, {"time": 154952, "pitch": 51, "duration": 996, "velocity": 84}, {"time": 155002, "pitch": 53, "duration": 936, "velocity": 80}, {"time": 155052, "pitch": 56, "duration": 886, "velocity": 72}, {"time": 155102, "pitch": 60, "duration": 856, "velocity": 89}, {"time": 155997, "pitch": 46, "duration": 632, "velocity": 98}, {"time": 155997, "pitch": 53, "duration": 642, "velocity": 76}, {"time": 156007, "pitch": 56, "duration": 672, "velocity": 90}, {"time": 156007, "pitch": 61, "duration": 692, "velocity": 82}, {"time": 156719, "pitch": 46, "duration": 1093, "velocity": 99}, {"time": 156719, "pitch": 53, "duration": 1123, "velocity": 89}, {"time": 156729, "pitch": 56, "duration": 1143, "velocity": 81}, {"time": 156729, "pitch": 61, "duration": 1183, "velocity": 76}, {"time": 157922, "pitch": 49, "duration": 1798, "velocity": 84}, {"time": 157972, "pitch": 52, "duration": 1778, "velocity": 80}, {"time": 158021, "pitch": 56, "duration": 1759, "velocity": 72}, {"time": 158071, "pitch": 58, "duration": 1740, "velocity": 89}, {"time": 159841, "pitch": 53, "duration": 922, "velocity": 88}, {"time": 160081, "pitch": 57, "duration": 672, "velocity": 82}, {"time": 160322, "pitch": 60, "duration": 411, "velocity": 91}, {"time": 160563, "pitch": 64, "duration": 200, "velocity": 85}, {"time": 160803, "pitch": 55, "duration": 916, "velocity": 89}, {"time": 161040, "pitch": 58, "duration": 679, "velocity": 82}, {"time": 161277, "pitch": 62, "duration": 391, "velocity": 91}, {"time": 161518, "pitch": 65, "duration": 191, "velocity": 85}, {"time": 161759, "pitch": 57, "duration": 922, "velocity": 88}, {"time": 161999, "pitch": 60, "duration": 672, "velocity": 82}, {"time": 162240, "pitch": 64, "duration": 411, "velocity": 91}, {"time": 162481, "pitch": 67, "duration": 200, "velocity": 85}, {"time": 162721, "pitch": 55, "duration": 916, "velocity": 89}, {"time": 162962, "pitch": 58, "duration": 675, "velocity": 82}, {"time": 163202, "pitch": 62, "duration": 386, "velocity": 91}, {"time": 163440, "pitch": 65, "duration": 187, "velocity": 85}, {"time": 163677, "pitch": 53, "duration": 922, "velocity": 88}, {"time": 163917, "pitch": 57, "duration": 672, "velocity": 82}, {"time": 164158, "pitch": 60, "duration": 411, "velocity": 91}, {"time": 164399, "pitch": 64, "duration": 200, "velocity": 85}, {"time": 164639, "pitch": 55, "duration": 923, "velocity": 89}, {"time": 164880, "pitch": 58, "duration": 682, "velocity": 82}, {"time": 165121, "pitch": 62, "duration": 391, "velocity": 91}, {"time": 165361, "pitch": 65, "duration": 191, "velocity": 85}, {"time": 165602, "pitch": 57, "duration": 916, "velocity": 88}, {"time": 165843, "pitch": 60, "duration": 665, "velocity": 82}, {"time": 166083, "pitch": 64, "duration": 405, "velocity": 91}, {"time": 166320, "pitch": 67, "duration": 198, "velocity": 85}, {"time": 166557, "pitch": 55, "duration": 923, "velocity": 89}, {"time": 166798, "pitch": 58, "duration": 682, "velocity": 82}, {"time": 167039, "pitch": 62, "duration": 391, "velocity": 91}, {"time": 167279, "pitch": 65, "duration": 191, "velocity": 85}, {"time": 167520, "pitch": 53, "duration": 922, "velocity": 88}, {"time": 167761, "pitch": 57, "duration": 671, "velocity": 82}, {"time": 168001, "pitch": 60, "duration": 411, "velocity": 91}, {"time": 168242, "pitch": 64, "duration": 200, "velocity": 85}, {"time": 168482, "pitch": 55, "duration": 916, "velocity": 89}, {"time": 168720, "pitch": 58, "duration": 678, "velocity": 82}, {"time": 168957, "pitch": 62, "duration": 391, "velocity": 91}, {"time": 169197, "pitch": 65, "duration": 191, "velocity": 85}, {"time": 169438, "pitch": 57, "duration": 922, "velocity": 88}, {"time": 169679, "pitch": 60, "duration": 671, "velocity": 82}, {"time": 169919, "pitch": 64, "duration": 411, "velocity": 91}, {"time": 170160, "pitch": 67, "duration": 200, "velocity": 85}, {"time": 170401, "pitch": 55, "duration": 922, "velocity": 89}, {"time": 170641, "pitch": 58, "duration": 682, "velocity": 82}, {"time": 170882, "pitch": 62, "duration": 391, "velocity": 91}, {"time": 171123, "pitch": 65, "duration": 190, "velocity": 85}, {"time": 171363, "pitch": 53, "duration": 923, "velocity": 88}, {"time": 171604, "pitch": 57, "duration": 672, "velocity": 82}, {"time": 171844, "pitch": 60, "duration": 412, "velocity": 91}, {"time": 172085, "pitch": 64, "duration": 201, "velocity": 85}, {"time": 172326, "pitch": 55, "duration": 922, "velocity": 89}, {"time": 172566, "pitch": 58, "duration": 682, "velocity": 82}, {"time": 172807, "pitch": 62, "duration": 391, "velocity": 91}, {"time": 173048, "pitch": 65, "duration": 190, "velocity": 85}, {"time": 173288, "pitch": 57, "duration": 923, "velocity": 88}, {"time": 173529, "pitch": 60, "duration": 672, "velocity": 82}, {"time": 173770, "pitch": 64, "duration": 411, "velocity": 91}, {"time": 174010, "pitch": 67, "duration": 201, "velocity": 85}, {"time": 174251, "pitch": 55, "duration": 922, "velocity": 89}, {"time": 174492, "pitch": 58, "duration": 681, "velocity": 82}, {"time": 174732, "pitch": 62, "duration": 391, "velocity": 91}, {"time": 174973, "pitch": 65, "duration": 190, "velocity": 85}, {"time": 175213, "pitch": 53, "duration": 923, "velocity": 88}, {"time": 175454, "pitch": 57, "duration": 672, "velocity": 82}, {"time": 175695, "pitch": 60, "duration": 411, "velocity": 91}, {"time": 175935, "pitch": 64, "duration": 201, "velocity": 85}, {"time": 176176, "pitch": 55, "duration": 922, "velocity": 89}, {"time": 176417, "pitch": 58, "duration": 681, "velocity": 82}, {"time": 176657, "pitch": 62, "duration": 391, "velocity": 91}, {"time": 176898, "pitch": 65, "duration": 190, "velocity": 85}, {"time": 177139, "pitch": 57, "duration": 922, "velocity": 88}, {"time": 177379, "pitch": 60, "duration": 672, "velocity": 82}, {"time": 177620, "pitch": 64, "duration": 411, "velocity": 91}, {"time": 177860, "pitch": 67, "duration": 201, "velocity": 85}, {"time": 178101, "pitch": 55, "duration": 923, "velocity": 89}, {"time": 178342, "pitch": 58, "duration": 682, "velocity": 82}, {"time": 178582, "pitch": 62, "duration": 391, "velocity": 91}, {"time": 178823, "pitch": 65, "duration": 191, "velocity": 85}], "annotations": [{"time": 335, "annotation": {"number": 7, "value": 110}, "group": "control_change"}, {"time": 351, "annotation": {"number": 11, "value": 100}, "group": "control_change"}, {"time": 367, "annotation": {"number": 10, "value": 10}, "group": "control_change"}, {"time": 383, "annotation": {"number": 91, "value": 80}, "group": "control_change"}, {"time": 399, "annotation": {"number": 93, "value": 0}, "group": "control_change"}, {"time": 415, "annotation": {"number": 101, "value": 0}, "group": "control_change"}, {"time": 431, "annotation": {"number": 100, "value": 0}, "group": "control_change"}, {"time": 447, "annotation": {"number": 6, "value": 12}, "group": "control_change"}, {"time": 463, "annotation": {"number": 101, "value": 127}, "group": "control_change"}, {"time": 479, "annotation": {"number": 100, "value": 127}, "group": "control_change"}]}, {"program": 0, "is_drum": false, "name": "Melody", "annotations": [{"time": 287, "annotation": {"number": 0, "value": 0}, "group": "control_change"}, {"time": 303, "annotation": {"number": 32, "value": 2}, "group": "control_change"}]}, {"program": 73, "is_drum": false, "name": "Melody", "notes": [{"time": 15837, "pitch": 75, "duration": 621, "velocity": 88}, {"time": 16559, "pitch": 75, "duration": 220, "velocity": 78}, {"time": 16799, "pitch": 80, "duration": 452, "velocity": 90}, {"time": 17281, "pitch": 72, "duration": 451, "velocity": 81}, {"time": 17762, "pitch": 75, "duration": 955, "velocity": 82}, {"time": 18958, "pitch": 75, "duration": 221, "velocity": 83}, {"time": 19199, "pitch": 73, "duration": 220, "velocity": 77}, {"time": 19439, "pitch": 72, "duration": 221, "velocity": 83}, {"time": 19680, "pitch": 73, "duration": 963, "velocity": 77}, {"time": 20643, "pitch": 79, "duration": 217, "velocity": 75}, {"time": 20880, "pitch": 80, "duration": 217, "velocity": 78}, {"time": 21117, "pitch": 77, "duration": 220, "velocity": 77}, {"time": 21357, "pitch": 79, "duration": 221, "velocity": 71}, {"time": 21598, "pitch": 75, "duration": 451, "velocity": 80}, {"time": 22079, "pitch": 75, "duration": 472, "velocity": 77}, {"time": 24238, "pitch": 73, "duration": 221, "velocity": 70}, {"time": 24479, "pitch": 72, "duration": 220, "velocity": 78}, {"time": 24719, "pitch": 73, "duration": 221, "velocity": 76}, {"time": 24960, "pitch": 72, "duration": 221, "velocity": 84}, {"time": 25201, "pitch": 70, "duration": 220, "velocity": 80}, {"time": 25441, "pitch": 72, "duration": 341, "velocity": 84}, {"time": 25802, "pitch": 75, "duration": 338, "velocity": 80}, {"time": 26160, "pitch": 75, "duration": 217, "velocity": 75}, {"time": 26397, "pitch": 77, "duration": 321, "velocity": 81}, {"time": 26718, "pitch": 79, "duration": 320, "velocity": 77}, {"time": 27038, "pitch": 80, "duration": 321, "velocity": 84}, {"time": 27359, "pitch": 70, "duration": 923, "velocity": 75}, {"time": 28322, "pitch": 79, "duration": 451, "velocity": 81}, {"time": 28803, "pitch": 77, "duration": 445, "velocity": 79}, {"time": 29277, "pitch": 77, "duration": 682, "velocity": 82}, {"time": 29999, "pitch": 75, "duration": 221, "velocity": 80}, {"time": 30240, "pitch": 75, "duration": 922, "velocity": 81}, {"time": 31203, "pitch": 75, "duration": 674, "velocity": 84}, {"time": 31917, "pitch": 75, "duration": 221, "velocity": 80}, {"time": 32158, "pitch": 80, "duration": 451, "velocity": 85}, {"time": 32639, "pitch": 72, "duration": 452, "velocity": 83}, {"time": 33121, "pitch": 75, "duration": 1002, "velocity": 86}, {"time": 34320, "pitch": 75, "duration": 218, "velocity": 84}, {"time": 34557, "pitch": 73, "duration": 221, "velocity": 75}, {"time": 34798, "pitch": 72, "duration": 221, "velocity": 80}, {"time": 35039, "pitch": 73, "duration": 922, "velocity": 76}, {"time": 36001, "pitch": 79, "duration": 221, "velocity": 84}, {"time": 36242, "pitch": 80, "duration": 221, "velocity": 82}, {"time": 36483, "pitch": 77, "duration": 217, "velocity": 79}, {"time": 36720, "pitch": 79, "duration": 217, "velocity": 67}, {"time": 36957, "pitch": 75, "duration": 451, "velocity": 83}, {"time": 37438, "pitch": 75, "duration": 973, "velocity": 75}, {"time": 39600, "pitch": 73, "duration": 218, "velocity": 70}, {"time": 39837, "pitch": 72, "duration": 221, "velocity": 78}, {"time": 40078, "pitch": 73, "duration": 221, "velocity": 79}, {"time": 40319, "pitch": 72, "duration": 220, "velocity": 76}, {"time": 40559, "pitch": 70, "duration": 221, "velocity": 81}, {"time": 40800, "pitch": 72, "duration": 451, "velocity": 80}, {"time": 41281, "pitch": 75, "duration": 451, "velocity": 84}, {"time": 41763, "pitch": 77, "duration": 444, "velocity": 81}, {"time": 42237, "pitch": 79, "duration": 220, "velocity": 75}, {"time": 42477, "pitch": 80, "duration": 221, "velocity": 83}, {"time": 42718, "pitch": 68, "duration": 923, "velocity": 77}, {"time": 43681, "pitch": 68, "duration": 922, "velocity": 81}, {"time": 44643, "pitch": 68, "duration": 1417, "velocity": 76}, {"time": 46561, "pitch": 75, "duration": 679, "velocity": 86}, {"time": 47280, "pitch": 75, "duration": 217, "velocity": 80}, {"time": 47517, "pitch": 75, "duration": 220, "velocity": 80}, {"time": 47757, "pitch": 73, "duration": 221, "velocity": 81}, {"time": 47998, "pitch": 72, "duration": 221, "velocity": 84}, {"time": 48239, "pitch": 73, "duration": 220, "velocity": 77}, {"time": 48479, "pitch": 75, "duration": 1533, "velocity": 84}, {"time": 50397, "pitch": 75, "duration": 682, "velocity": 79}, {"time": 51119, "pitch": 75, "duration": 221, "velocity": 72}, {"time": 51360, "pitch": 75, "duration": 221, "velocity": 80}, {"time": 51601, "pitch": 73, "duration": 220, "velocity": 75}, {"time": 51841, "pitch": 72, "duration": 221, "velocity": 73}, {"time": 52082, "pitch": 73, "duration": 220, "velocity": 75}, {"time": 52323, "pitch": 72, "duration": 915, "velocity": 78}, {"time": 53278, "pitch": 76, "duration": 451, "velocity": 71}, {"time": 53759, "pitch": 77, "duration": 221, "velocity": 79}, {"time": 54000, "pitch": 79, "duration": 221, "velocity": 75}, {"time": 54241, "pitch": 80, "duration": 681, "velocity": 80}, {"time": 54963, "pitch": 80, "duration": 220, "velocity": 78}, {"time": 55203, "pitch": 79, "duration": 445, "velocity": 82}, {"time": 55677, "pitch": 80, "duration": 221, "velocity": 83}, {"time": 55918, "pitch": 79, "duration": 221, "velocity": 77}, {"time": 56159, "pitch": 77, "duration": 922, "velocity": 76}, {"time": 57121, "pitch": 75, "duration": 221, "velocity": 85}, {"time": 57362, "pitch": 72, "duration": 220, "velocity": 75}, {"time": 57603, "pitch": 68, "duration": 217, "velocity": 71}, {"time": 57840, "pitch": 75, "duration": 217, "velocity": 82}, {"time": 58077, "pitch": 73, "duration": 451, "velocity": 75}, {"time": 58558, "pitch": 72, "duration": 451, "velocity": 82}, {"time": 59039, "pitch": 70, "duration": 452, "velocity": 77}, {"time": 59521, "pitch": 68, "duration": 451, "velocity": 70}, {"time": 60002, "pitch": 70, "duration": 1447, "velocity": 83}, {"time": 61920, "pitch": 75, "duration": 682, "velocity": 89}, {"time": 62642, "pitch": 75, "duration": 220, "velocity": 83}, {"time": 62883, "pitch": 75, "duration": 217, "velocity": 83}, {"time": 63120, "pitch": 73, "duration": 217, "velocity": 87}, {"time": 63357, "pitch": 72, "duration": 220, "velocity": 85}, {"time": 63597, "pitch": 73, "duration": 221, "velocity": 79}, {"time": 63838, "pitch": 75, "duration": 923, "velocity": 88}, {"time": 64801, "pitch": 76, "duration": 451, "velocity": 78}, {"time": 65282, "pitch": 77, "duration": 220, "velocity": 83}, {"time": 65523, "pitch": 79, "duration": 220, "velocity": 84}, {"time": 65763, "pitch": 80, "duration": 916, "velocity": 87}, {"time": 66719, "pitch": 79, "duration": 682, "velocity": 80}, {"time": 67441, "pitch": 79, "duration": 220, "velocity": 88}, {"time": 67681, "pitch": 77, "duration": 1638, "velocity": 84}, {"time": 70081, "pitch": 75, "duration": 451, "velocity": 95}, {"time": 70562, "pitch": 75, "duration": 451, "velocity": 94}, {"time": 71043, "pitch": 75, "duration": 445, "velocity": 89}, {"time": 71517, "pitch": 79, "duration": 452, "velocity": 88}, {"time": 71999, "pitch": 80, "duration": 220, "velocity": 84}, {"time": 72239, "pitch": 72, "duration": 682, "velocity": 89}, {"time": 72961, "pitch": 72, "duration": 451, "velocity": 88}, {"time": 73443, "pitch": 72, "duration": 444, "velocity": 90}, {"time": 73917, "pitch": 70, "duration": 220, "velocity": 85}, {"time": 74157, "pitch": 77, "duration": 1013, "velocity": 81}, {"time": 75361, "pitch": 72, "duration": 451, "velocity": 86}, {"time": 75842, "pitch": 70, "duration": 451, "velocity": 85}, {"time": 76323, "pitch": 68, "duration": 445, "velocity": 87}, {"time": 76797, "pitch": 70, "duration": 452, "velocity": 83}, {"time": 77279, "pitch": 68, "duration": 1463, "velocity": 82}, {"time": 90719, "pitch": 75, "duration": 682, "velocity": 92}, {"time": 91441, "pitch": 75, "duration": 221, "velocity": 86}, {"time": 91682, "pitch": 80, "duration": 451, "velocity": 88}, {"time": 92163, "pitch": 72, "duration": 445, "velocity": 81}, {"time": 92637, "pitch": 75, "duration": 973, "velocity": 86}, {"time": 93841, "pitch": 75, "duration": 220, "velocity": 88}, {"time": 94081, "pitch": 73, "duration": 221, "velocity": 83}, {"time": 94322, "pitch": 72, "duration": 220, "velocity": 79}, {"time": 94563, "pitch": 73, "duration": 915, "velocity": 85}, {"time": 95518, "pitch": 79, "duration": 221, "velocity": 78}, {"time": 95759, "pitch": 80, "duration": 220, "velocity": 84}, {"time": 95999, "pitch": 77, "duration": 221, "velocity": 81}, {"time": 96240, "pitch": 79, "duration": 221, "velocity": 77}, {"time": 96481, "pitch": 75, "duration": 1012, "velocity": 82}, {"time": 99121, "pitch": 73, "duration": 220, "velocity": 78}, {"time": 99361, "pitch": 72, "duration": 221, "velocity": 80}, {"time": 99602, "pitch": 73, "duration": 220, "velocity": 73}, {"time": 99843, "pitch": 72, "duration": 217, "velocity": 78}, {"time": 100080, "pitch": 70, "duration": 217, "velocity": 83}, {"time": 100317, "pitch": 72, "duration": 341, "velocity": 88}, {"time": 100678, "pitch": 75, "duration": 341, "velocity": 90}, {"time": 101039, "pitch": 75, "duration": 220, "velocity": 83}, {"time": 101279, "pitch": 77, "duration": 452, "velocity": 87}, {"time": 101761, "pitch": 79, "duration": 220, "velocity": 77}, {"time": 102001, "pitch": 80, "duration": 221, "velocity": 84}, {"time": 102242, "pitch": 70, "duration": 916, "velocity": 82}, {"time": 103197, "pitch": 79, "duration": 452, "velocity": 87}, {"time": 103679, "pitch": 77, "duration": 451, "velocity": 83}, {"time": 104160, "pitch": 77, "duration": 682, "velocity": 85}, {"time": 104882, "pitch": 75, "duration": 220, "velocity": 81}, {"time": 105123, "pitch": 75, "duration": 915, "velocity": 86}, {"time": 106078, "pitch": 75, "duration": 682, "velocity": 90}, {"time": 106800, "pitch": 75, "duration": 221, "velocity": 86}, {"time": 107041, "pitch": 80, "duration": 451, "velocity": 90}, {"time": 107522, "pitch": 72, "duration": 451, "velocity": 84}, {"time": 108003, "pitch": 75, "duration": 986, "velocity": 85}, {"time": 109199, "pitch": 75, "duration": 221, "velocity": 84}, {"time": 109440, "pitch": 73, "duration": 221, "velocity": 83}, {"time": 109681, "pitch": 72, "duration": 220, "velocity": 82}, {"time": 109921, "pitch": 73, "duration": 976, "velocity": 81}, {"time": 110877, "pitch": 79, "duration": 220, "velocity": 79}, {"time": 111117, "pitch": 80, "duration": 221, "velocity": 83}, {"time": 111358, "pitch": 77, "duration": 221, "velocity": 79}, {"time": 111599, "pitch": 79, "duration": 220, "velocity": 82}, {"time": 111839, "pitch": 75, "duration": 1043, "velocity": 85}, {"time": 114479, "pitch": 73, "duration": 221, "velocity": 75}, {"time": 114720, "pitch": 72, "duration": 221, "velocity": 81}, {"time": 114961, "pitch": 73, "duration": 220, "velocity": 78}, {"time": 115201, "pitch": 72, "duration": 221, "velocity": 82}, {"time": 115442, "pitch": 70, "duration": 220, "velocity": 80}, {"time": 115682, "pitch": 72, "duration": 445, "velocity": 79}, {"time": 116157, "pitch": 75, "duration": 451, "velocity": 84}, {"time": 116638, "pitch": 77, "duration": 451, "velocity": 81}, {"time": 117119, "pitch": 79, "duration": 221, "velocity": 75}, {"time": 117360, "pitch": 80, "duration": 221, "velocity": 83}, {"time": 117601, "pitch": 68, "duration": 922, "velocity": 83}, {"time": 118563, "pitch": 68, "duration": 916, "velocity": 82}, {"time": 119519, "pitch": 68, "duration": 1423, "velocity": 81}, {"time": 121437, "pitch": 75, "duration": 682, "velocity": 88}, {"time": 122159, "pitch": 75, "duration": 220, "velocity": 81}, {"time": 122399, "pitch": 75, "duration": 221, "velocity": 82}, {"time": 122640, "pitch": 73, "duration": 221, "velocity": 84}, {"time": 122881, "pitch": 72, "duration": 220, "velocity": 85}, {"time": 123121, "pitch": 73, "duration": 221, "velocity": 81}, {"time": 123362, "pitch": 75, "duration": 1547, "velocity": 86}, {"time": 125280, "pitch": 75, "duration": 682, "velocity": 87}, {"time": 126002, "pitch": 75, "duration": 220, "velocity": 79}, {"time": 126242, "pitch": 75, "duration": 218, "velocity": 86}, {"time": 126480, "pitch": 73, "duration": 217, "velocity": 79}, {"time": 126717, "pitch": 72, "duration": 220, "velocity": 82}, {"time": 126957, "pitch": 73, "duration": 221, "velocity": 76}, {"time": 127198, "pitch": 72, "duration": 923, "velocity": 83}, {"time": 128161, "pitch": 76, "duration": 451, "velocity": 77}, {"time": 128642, "pitch": 77, "duration": 220, "velocity": 85}, {"time": 128883, "pitch": 79, "duration": 220, "velocity": 78}, {"time": 129123, "pitch": 80, "duration": 675, "velocity": 88}, {"time": 129838, "pitch": 80, "duration": 221, "velocity": 91}, {"time": 130079, "pitch": 79, "duration": 451, "velocity": 87}, {"time": 130560, "pitch": 80, "duration": 221, "velocity": 90}, {"time": 130801, "pitch": 79, "duration": 220, "velocity": 82}, {"time": 131041, "pitch": 77, "duration": 916, "velocity": 87}, {"time": 131997, "pitch": 75, "duration": 220, "velocity": 88}, {"time": 132237, "pitch": 72, "duration": 221, "velocity": 82}, {"time": 132478, "pitch": 68, "duration": 221, "velocity": 84}, {"time": 132719, "pitch": 75, "duration": 220, "velocity": 85}, {"time": 132959, "pitch": 73, "duration": 452, "velocity": 81}, {"time": 133441, "pitch": 72, "duration": 451, "velocity": 87}, {"time": 133922, "pitch": 70, "duration": 451, "velocity": 86}, {"time": 134403, "pitch": 68, "duration": 445, "velocity": 75}, {"time": 134877, "pitch": 70, "duration": 1444, "velocity": 84}, {"time": 136802, "pitch": 75, "duration": 675, "velocity": 89}, {"time": 137517, "pitch": 75, "duration": 221, "velocity": 81}, {"time": 137758, "pitch": 75, "duration": 221, "velocity": 84}, {"time": 137999, "pitch": 73, "duration": 220, "velocity": 78}, {"time": 138239, "pitch": 72, "duration": 221, "velocity": 85}, {"time": 138480, "pitch": 73, "duration": 221, "velocity": 77}, {"time": 138721, "pitch": 75, "duration": 922, "velocity": 85}, {"time": 139683, "pitch": 76, "duration": 445, "velocity": 81}, {"time": 140157, "pitch": 77, "duration": 221, "velocity": 86}, {"time": 140398, "pitch": 79, "duration": 221, "velocity": 83}, {"time": 140639, "pitch": 80, "duration": 922, "velocity": 86}, {"time": 141601, "pitch": 79, "duration": 679, "velocity": 85}, {"time": 142320, "pitch": 79, "duration": 217, "velocity": 80}, {"time": 142557, "pitch": 77, "duration": 1454, "velocity": 84}, {"time": 144963, "pitch": 75, "duration": 445, "velocity": 90}, {"time": 145437, "pitch": 75, "duration": 452, "velocity": 91}, {"time": 145919, "pitch": 75, "duration": 451, "velocity": 90}, {"time": 146400, "pitch": 79, "duration": 451, "velocity": 82}, {"time": 146881, "pitch": 80, "duration": 221, "velocity": 86}, {"time": 147122, "pitch": 72, "duration": 675, "velocity": 84}, {"time": 147837, "pitch": 72, "duration": 451, "velocity": 84}, {"time": 148318, "pitch": 72, "duration": 451, "velocity": 82}, {"time": 148799, "pitch": 70, "duration": 221, "velocity": 86}, {"time": 149040, "pitch": 77, "duration": 1143, "velocity": 81}, {"time": 150243, "pitch": 72, "duration": 445, "velocity": 83}, {"time": 150717, "pitch": 70, "duration": 452, "velocity": 86}, {"time": 151199, "pitch": 68, "duration": 451, "velocity": 81}, {"time": 151680, "pitch": 70, "duration": 221, "velocity": 86}, {"time": 151921, "pitch": 68, "duration": 220, "velocity": 72}, {"time": 152161, "pitch": 72, "duration": 679, "velocity": 89}, {"time": 152880, "pitch": 75, "duration": 217, "velocity": 82}, {"time": 153117, "pitch": 75, "duration": 341, "velocity": 90}, {"time": 153478, "pitch": 75, "duration": 341, "velocity": 85}, {"time": 153839, "pitch": 79, "duration": 220, "velocity": 81}, {"time": 154079, "pitch": 79, "duration": 452, "velocity": 83}, {"time": 154561, "pitch": 80, "duration": 451, "velocity": 88}, {"time": 155042, "pitch": 72, "duration": 451, "velocity": 83}, {"time": 155523, "pitch": 72, "duration": 445, "velocity": 82}, {"time": 155997, "pitch": 72, "duration": 452, "velocity": 88}, {"time": 156479, "pitch": 70, "duration": 220, "velocity": 90}, {"time": 156719, "pitch": 77, "duration": 1003, "velocity": 82}, {"time": 157922, "pitch": 72, "duration": 445, "velocity": 81}, {"time": 158397, "pitch": 70, "duration": 451, "velocity": 83}, {"time": 158878, "pitch": 68, "duration": 451, "velocity": 77}, {"time": 159359, "pitch": 70, "duration": 452, "velocity": 83}, {"time": 159841, "pitch": 72, "duration": 1918, "velocity": 80}], "annotations": [{"time": 335, "annotation": {"number": 7, "value": 102}, "group": "control_change"}, {"time": 351, "annotation": {"number": 11, "value": 100}, "group": "control_change"}, {"time": 367, "annotation": {"number": 10, "value": 64}, "group": "control_change"}, {"time": 383, "annotation": {"number": 91, "value": 90}, "group": "control_change"}, {"time": 399, "annotation": {"number": 93, "value": 0}, "group": "control_change"}, {"time": 415, "annotation": {"number": 101, "value": 0}, "group": "control_change"}, {"time": 431, "annotation": {"number": 100, "value": 0}, "group": "control_change"}, {"time": 447, "annotation": {"number": 6, "value": 12}, "group": "control_change"}, {"time": 463, "annotation": {"number": 101, "value": 127}, "group": "control_change"}, {"time": 479, "annotation": {"number": 100, "value": 127}, "group": "control_change"}]}, {"program": 0, "is_drum": false, "name": "Glocken", "annotations": [{"time": 287, "annotation": {"number": 0, "value": 0}, "group": "control_change"}, {"time": 303, "annotation": {"number": 32, "value": 2}, "group": "control_change"}]}, {"program": 9, "is_drum": false, "name": "Glocken", "notes": [{"time": 479, "pitch": 99, "duration": 99, "velocity": 76}, {"time": 959, "pitch": 87, "duration": 101, "velocity": 65}, {"time": 1441, "pitch": 99, "duration": 100, "velocity": 76}, {"time": 1922, "pitch": 87, "duration": 100, "velocity": 65}, {"time": 2403, "pitch": 99, "duration": 99, "velocity": 76}, {"time": 2877, "pitch": 87, "duration": 101, "velocity": 63}, {"time": 3359, "pitch": 99, "duration": 100, "velocity": 75}, {"time": 3840, "pitch": 87, "duration": 100, "velocity": 62}, {"time": 4321, "pitch": 99, "duration": 101, "velocity": 76}, {"time": 4803, "pitch": 87, "duration": 98, "velocity": 64}, {"time": 5277, "pitch": 99, "duration": 100, "velocity": 79}, {"time": 5758, "pitch": 87, "duration": 100, "velocity": 67}, {"time": 6239, "pitch": 99, "duration": 101, "velocity": 78}, {"time": 6721, "pitch": 87, "duration": 100, "velocity": 66}, {"time": 7202, "pitch": 99, "duration": 100, "velocity": 76}, {"time": 7683, "pitch": 87, "duration": 99, "velocity": 64}, {"time": 8157, "pitch": 99, "duration": 101, "velocity": 76}, {"time": 8639, "pitch": 87, "duration": 100, "velocity": 63}, {"time": 9120, "pitch": 99, "duration": 100, "velocity": 79}, {"time": 9601, "pitch": 87, "duration": 101, "velocity": 67}, {"time": 10083, "pitch": 99, "duration": 98, "velocity": 79}, {"time": 10557, "pitch": 87, "duration": 100, "velocity": 65}, {"time": 11038, "pitch": 99, "duration": 100, "velocity": 75}, {"time": 11519, "pitch": 87, "duration": 101, "velocity": 60}, {"time": 12001, "pitch": 99, "duration": 100, "velocity": 76}, {"time": 12482, "pitch": 87, "duration": 100, "velocity": 65}, {"time": 12963, "pitch": 99, "duration": 99, "velocity": 76}, {"time": 13437, "pitch": 87, "duration": 101, "velocity": 67}, {"time": 13919, "pitch": 99, "duration": 100, "velocity": 76}, {"time": 14400, "pitch": 87, "duration": 100, "velocity": 62}, {"time": 14881, "pitch": 99, "duration": 401, "velocity": 78}, {"time": 31203, "pitch": 99, "duration": 98, "velocity": 61}, {"time": 31677, "pitch": 87, "duration": 100, "velocity": 50}, {"time": 32158, "pitch": 99, "duration": 100, "velocity": 61}, {"time": 32639, "pitch": 87, "duration": 101, "velocity": 50}, {"time": 33121, "pitch": 99, "duration": 100, "velocity": 61}, {"time": 33602, "pitch": 87, "duration": 100, "velocity": 48}, {"time": 34083, "pitch": 99, "duration": 99, "velocity": 60}, {"time": 34557, "pitch": 87, "duration": 101, "velocity": 47}, {"time": 35039, "pitch": 99, "duration": 100, "velocity": 61}, {"time": 35520, "pitch": 87, "duration": 100, "velocity": 49}, {"time": 36001, "pitch": 99, "duration": 101, "velocity": 64}, {"time": 36483, "pitch": 87, "duration": 98, "velocity": 52}, {"time": 36957, "pitch": 99, "duration": 100, "velocity": 63}, {"time": 37438, "pitch": 87, "duration": 100, "velocity": 51}, {"time": 37919, "pitch": 99, "duration": 101, "velocity": 61}, {"time": 38401, "pitch": 87, "duration": 100, "velocity": 49}, {"time": 38882, "pitch": 99, "duration": 100, "velocity": 61}, {"time": 39363, "pitch": 87, "duration": 99, "velocity": 48}, {"time": 39837, "pitch": 99, "duration": 101, "velocity": 64}, {"time": 40319, "pitch": 87, "duration": 100, "velocity": 52}, {"time": 40800, "pitch": 99, "duration": 100, "velocity": 64}, {"time": 41281, "pitch": 87, "duration": 101, "velocity": 50}, {"time": 41763, "pitch": 99, "duration": 98, "velocity": 60}, {"time": 42237, "pitch": 87, "duration": 100, "velocity": 45}, {"time": 42718, "pitch": 99, "duration": 100, "velocity": 61}, {"time": 43199, "pitch": 87, "duration": 101, "velocity": 50}, {"time": 43681, "pitch": 99, "duration": 100, "velocity": 61}, {"time": 44162, "pitch": 87, "duration": 100, "velocity": 52}, {"time": 44643, "pitch": 99, "duration": 99, "velocity": 61}, {"time": 45117, "pitch": 87, "duration": 101, "velocity": 47}, {"time": 45599, "pitch": 99, "duration": 401, "velocity": 63}, {"time": 77279, "pitch": 99, "duration": 100, "velocity": 61}, {"time": 77760, "pitch": 87, "duration": 100, "velocity": 50}, {"time": 78241, "pitch": 99, "duration": 101, "velocity": 61}, {"time": 78723, "pitch": 87, "duration": 98, "velocity": 50}, {"time": 79197, "pitch": 99, "duration": 100, "velocity": 61}, {"time": 79678, "pitch": 87, "duration": 100, "velocity": 48}, {"time": 80159, "pitch": 99, "duration": 101, "velocity": 60}, {"time": 80641, "pitch": 87, "duration": 100, "velocity": 47}, {"time": 81122, "pitch": 99, "duration": 100, "velocity": 61}, {"time": 81603, "pitch": 87, "duration": 99, "velocity": 49}, {"time": 82077, "pitch": 99, "duration": 101, "velocity": 64}, {"time": 82559, "pitch": 87, "duration": 100, "velocity": 52}, {"time": 83040, "pitch": 99, "duration": 100, "velocity": 63}, {"time": 83521, "pitch": 87, "duration": 101, "velocity": 51}, {"time": 84003, "pitch": 99, "duration": 98, "velocity": 61}, {"time": 84477, "pitch": 87, "duration": 100, "velocity": 49}, {"time": 84958, "pitch": 99, "duration": 100, "velocity": 61}, {"time": 85439, "pitch": 87, "duration": 101, "velocity": 48}, {"time": 85921, "pitch": 99, "duration": 100, "velocity": 64}, {"time": 86402, "pitch": 87, "duration": 100, "velocity": 52}, {"time": 86883, "pitch": 99, "duration": 99, "velocity": 64}, {"time": 87357, "pitch": 87, "duration": 101, "velocity": 50}, {"time": 87839, "pitch": 99, "duration": 100, "velocity": 60}, {"time": 88320, "pitch": 87, "duration": 100, "velocity": 45}, {"time": 88801, "pitch": 99, "duration": 101, "velocity": 61}, {"time": 89283, "pitch": 87, "duration": 98, "velocity": 47}, {"time": 89757, "pitch": 99, "duration": 401, "velocity": 63}, {"time": 106078, "pitch": 99, "duration": 100, "velocity": 61}, {"time": 106559, "pitch": 87, "duration": 101, "velocity": 50}, {"time": 107041, "pitch": 99, "duration": 100, "velocity": 61}, {"time": 107522, "pitch": 87, "duration": 100, "velocity": 50}, {"time": 108003, "pitch": 99, "duration": 99, "velocity": 61}, {"time": 108477, "pitch": 87, "duration": 101, "velocity": 48}, {"time": 108959, "pitch": 99, "duration": 100, "velocity": 60}, {"time": 109440, "pitch": 87, "duration": 100, "velocity": 47}, {"time": 109921, "pitch": 99, "duration": 101, "velocity": 61}, {"time": 110403, "pitch": 87, "duration": 98, "velocity": 49}, {"time": 110877, "pitch": 99, "duration": 100, "velocity": 64}, {"time": 111358, "pitch": 87, "duration": 100, "velocity": 52}, {"time": 111839, "pitch": 99, "duration": 101, "velocity": 63}, {"time": 112321, "pitch": 87, "duration": 100, "velocity": 51}, {"time": 112802, "pitch": 99, "duration": 100, "velocity": 61}, {"time": 113283, "pitch": 87, "duration": 99, "velocity": 49}, {"time": 113757, "pitch": 99, "duration": 101, "velocity": 61}, {"time": 114239, "pitch": 87, "duration": 100, "velocity": 48}, {"time": 114720, "pitch": 99, "duration": 100, "velocity": 64}, {"time": 115201, "pitch": 87, "duration": 101, "velocity": 52}, {"time": 115682, "pitch": 99, "duration": 99, "velocity": 64}, {"time": 116157, "pitch": 87, "duration": 100, "velocity": 50}, {"time": 116638, "pitch": 99, "duration": 100, "velocity": 60}, {"time": 117119, "pitch": 87, "duration": 101, "velocity": 45}, {"time": 117601, "pitch": 99, "duration": 100, "velocity": 61}, {"time": 118082, "pitch": 87, "duration": 100, "velocity": 50}, {"time": 118563, "pitch": 99, "duration": 99, "velocity": 61}, {"time": 119037, "pitch": 87, "duration": 101, "velocity": 52}, {"time": 119519, "pitch": 99, "duration": 100, "velocity": 61}, {"time": 120000, "pitch": 87, "duration": 100, "velocity": 47}, {"time": 120481, "pitch": 99, "duration": 401, "velocity": 63}, {"time": 159841, "pitch": 96, "duration": 100, "velocity": 61}, {"time": 160322, "pitch": 84, "duration": 100, "velocity": 50}, {"time": 160803, "pitch": 96, "duration": 99, "velocity": 61}, {"time": 161277, "pitch": 84, "duration": 101, "velocity": 50}, {"time": 161759, "pitch": 96, "duration": 100, "velocity": 61}, {"time": 162240, "pitch": 84, "duration": 100, "velocity": 48}, {"time": 162721, "pitch": 96, "duration": 101, "velocity": 60}, {"time": 163202, "pitch": 84, "duration": 99, "velocity": 47}, {"time": 163677, "pitch": 96, "duration": 100, "velocity": 61}, {"time": 164158, "pitch": 84, "duration": 100, "velocity": 50}, {"time": 164639, "pitch": 96, "duration": 101, "velocity": 61}, {"time": 165121, "pitch": 84, "duration": 100, "velocity": 50}, {"time": 165602, "pitch": 96, "duration": 100, "velocity": 61}, {"time": 166083, "pitch": 84, "duration": 99, "velocity": 48}, {"time": 166557, "pitch": 96, "duration": 101, "velocity": 60}, {"time": 167039, "pitch": 84, "duration": 100, "velocity": 47}, {"time": 167520, "pitch": 96, "duration": 100, "velocity": 61}, {"time": 168001, "pitch": 84, "duration": 101, "velocity": 50}, {"time": 168482, "pitch": 96, "duration": 99, "velocity": 61}, {"time": 168957, "pitch": 84, "duration": 100, "velocity": 50}, {"time": 169438, "pitch": 96, "duration": 100, "velocity": 61}, {"time": 169919, "pitch": 84, "duration": 101, "velocity": 48}, {"time": 170401, "pitch": 96, "duration": 100, "velocity": 60}, {"time": 170882, "pitch": 84, "duration": 100, "velocity": 47}, {"time": 171363, "pitch": 96, "duration": 100, "velocity": 61}, {"time": 171844, "pitch": 84, "duration": 101, "velocity": 50}, {"time": 172326, "pitch": 96, "duration": 100, "velocity": 61}, {"time": 172807, "pitch": 84, "duration": 100, "velocity": 50}, {"time": 173288, "pitch": 96, "duration": 101, "velocity": 61}, {"time": 173770, "pitch": 84, "duration": 100, "velocity": 48}, {"time": 174251, "pitch": 96, "duration": 100, "velocity": 60}, {"time": 174732, "pitch": 84, "duration": 100, "velocity": 47}, {"time": 175213, "pitch": 96, "duration": 101, "velocity": 61}, {"time": 175695, "pitch": 84, "duration": 100, "velocity": 50}, {"time": 176176, "pitch": 96, "duration": 100, "velocity": 61}, {"time": 176657, "pitch": 84, "duration": 101, "velocity": 50}, {"time": 177139, "pitch": 96, "duration": 100, "velocity": 61}, {"time": 177620, "pitch": 84, "duration": 100, "velocity": 48}, {"time": 178101, "pitch": 96, "duration": 100, "velocity": 60}, {"time": 178582, "pitch": 84, "duration": 101, "velocity": 47}], "annotations": [{"time": 335, "annotation": {"number": 7, "value": 110}, "group": "control_change"}, {"time": 351, "annotation": {"number": 11, "value": 105}, "group": "control_change"}, {"time": 367, "annotation": {"number": 10, "value": 34}, "group": "control_change"}, {"time": 383, "annotation": {"number": 91, "value": 80}, "group": "control_change"}, {"time": 399, "annotation": {"number": 93, "value": 30}, "group": "control_change"}, {"time": 415, "annotation": {"number": 101, "value": 0}, "group": "control_change"}, {"time": 431, "annotation": {"number": 100, "value": 0}, "group": "control_change"}, {"time": 447, "annotation": {"number": 6, "value": 12}, "group": "control_change"}, {"time": 463, "annotation": {"number": 101, "value": 127}, "group": "control_change"}, {"time": 479, "annotation": {"number": 100, "value": 127}, "group": "control_change"}]}, {"program": 0, "is_drum": false, "name": "Syn 1", "annotations": [{"time": 287, "annotation": {"number": 0, "value": 0}, "group": "control_change"}, {"time": 303, "annotation": {"number": 32, "value": 2}, "group": "control_change"}]}, {"program": 100, "is_drum": false, "name": "Syn 1", "notes": [{"time": 46802, "pitch": 65, "duration": 221, "velocity": 67}, {"time": 47043, "pitch": 72, "duration": 217, "velocity": 72}, {"time": 47280, "pitch": 70, "duration": 217, "velocity": 68}, {"time": 47517, "pitch": 75, "duration": 922, "velocity": 75}, {"time": 48720, "pitch": 63, "duration": 221, "velocity": 73}, {"time": 48961, "pitch": 70, "duration": 220, "velocity": 60}, {"time": 49201, "pitch": 68, "duration": 221, "velocity": 71}, {"time": 49442, "pitch": 75, "duration": 916, "velocity": 76}, {"time": 50638, "pitch": 61, "duration": 221, "velocity": 70}, {"time": 50879, "pitch": 72, "duration": 220, "velocity": 69}, {"time": 51119, "pitch": 70, "duration": 221, "velocity": 65}, {"time": 51360, "pitch": 75, "duration": 922, "velocity": 71}, {"time": 52560, "pitch": 65, "duration": 217, "velocity": 73}, {"time": 52797, "pitch": 72, "duration": 220, "velocity": 70}, {"time": 53037, "pitch": 70, "duration": 221, "velocity": 67}, {"time": 53278, "pitch": 64, "duration": 923, "velocity": 60}, {"time": 54722, "pitch": 77, "duration": 511, "velocity": 53}, {"time": 54722, "pitch": 84, "duration": 501, "velocity": 67}, {"time": 55677, "pitch": 77, "duration": 482, "velocity": 53}, {"time": 55677, "pitch": 84, "duration": 482, "velocity": 69}, {"time": 56640, "pitch": 77, "duration": 451, "velocity": 55}, {"time": 56640, "pitch": 84, "duration": 451, "velocity": 73}, {"time": 57121, "pitch": 75, "duration": 451, "velocity": 56}, {"time": 57121, "pitch": 82, "duration": 451, "velocity": 76}, {"time": 57603, "pitch": 68, "duration": 444, "velocity": 50}, {"time": 57603, "pitch": 75, "duration": 444, "velocity": 70}, {"time": 58077, "pitch": 73, "duration": 922, "velocity": 53}, {"time": 58077, "pitch": 80, "duration": 922, "velocity": 81}, {"time": 59039, "pitch": 70, "duration": 492, "velocity": 64}, {"time": 59039, "pitch": 77, "duration": 482, "velocity": 82}, {"time": 59521, "pitch": 66, "duration": 471, "velocity": 58}, {"time": 59521, "pitch": 73, "duration": 471, "velocity": 77}, {"time": 60002, "pitch": 63, "duration": 1407, "velocity": 48}, {"time": 60002, "pitch": 70, "duration": 1407, "velocity": 68}, {"time": 90719, "pitch": 60, "duration": 923, "velocity": 50}, {"time": 90719, "pitch": 63, "duration": 923, "velocity": 70}, {"time": 91682, "pitch": 61, "duration": 916, "velocity": 49}, {"time": 91682, "pitch": 65, "duration": 916, "velocity": 69}, {"time": 92637, "pitch": 63, "duration": 923, "velocity": 48}, {"time": 92637, "pitch": 67, "duration": 923, "velocity": 70}, {"time": 93600, "pitch": 63, "duration": 922, "velocity": 45}, {"time": 93600, "pitch": 66, "duration": 922, "velocity": 67}, {"time": 94563, "pitch": 61, "duration": 915, "velocity": 47}, {"time": 94563, "pitch": 65, "duration": 915, "velocity": 69}, {"time": 95518, "pitch": 63, "duration": 923, "velocity": 50}, {"time": 95518, "pitch": 67, "duration": 923, "velocity": 72}, {"time": 96481, "pitch": 58, "duration": 922, "velocity": 52}, {"time": 96481, "pitch": 63, "duration": 922, "velocity": 73}, {"time": 97443, "pitch": 56, "duration": 916, "velocity": 51}, {"time": 97443, "pitch": 63, "duration": 916, "velocity": 72}, {"time": 98399, "pitch": 61, "duration": 1423, "velocity": 58}, {"time": 98399, "pitch": 65, "duration": 1423, "velocity": 75}, {"time": 99843, "pitch": 60, "duration": 444, "velocity": 52}, {"time": 99843, "pitch": 64, "duration": 444, "velocity": 70}, {"time": 100317, "pitch": 60, "duration": 922, "velocity": 52}, {"time": 100317, "pitch": 63, "duration": 922, "velocity": 69}, {"time": 101279, "pitch": 56, "duration": 923, "velocity": 47}, {"time": 101279, "pitch": 60, "duration": 923, "velocity": 65}, {"time": 102242, "pitch": 58, "duration": 451, "velocity": 54}, {"time": 102242, "pitch": 62, "duration": 451, "velocity": 70}, {"time": 102723, "pitch": 62, "duration": 445, "velocity": 55}, {"time": 102723, "pitch": 65, "duration": 445, "velocity": 73}, {"time": 103197, "pitch": 67, "duration": 452, "velocity": 58}, {"time": 103197, "pitch": 70, "duration": 452, "velocity": 76}, {"time": 103679, "pitch": 65, "duration": 451, "velocity": 58}, {"time": 103679, "pitch": 68, "duration": 451, "velocity": 75}, {"time": 104160, "pitch": 65, "duration": 922, "velocity": 62}, {"time": 104160, "pitch": 68, "duration": 922, "velocity": 76}, {"time": 105123, "pitch": 63, "duration": 444, "velocity": 54}, {"time": 105123, "pitch": 67, "duration": 444, "velocity": 73}, {"time": 105597, "pitch": 65, "duration": 451, "velocity": 66}, {"time": 106078, "pitch": 60, "duration": 923, "velocity": 48}, {"time": 106078, "pitch": 63, "duration": 923, "velocity": 67}, {"time": 107041, "pitch": 61, "duration": 922, "velocity": 47}, {"time": 107041, "pitch": 65, "duration": 922, "velocity": 65}, {"time": 108003, "pitch": 63, "duration": 916, "velocity": 69}, {"time": 108003, "pitch": 67, "duration": 916, "velocity": 52}, {"time": 108959, "pitch": 63, "duration": 922, "velocity": 50}, {"time": 108959, "pitch": 66, "duration": 922, "velocity": 69}, {"time": 109921, "pitch": 61, "duration": 916, "velocity": 52}, {"time": 109921, "pitch": 65, "duration": 916, "velocity": 69}, {"time": 110877, "pitch": 63, "duration": 922, "velocity": 56}, {"time": 110877, "pitch": 67, "duration": 922, "velocity": 72}, {"time": 111839, "pitch": 58, "duration": 923, "velocity": 53}, {"time": 111839, "pitch": 63, "duration": 923, "velocity": 73}, {"time": 112802, "pitch": 56, "duration": 916, "velocity": 49}, {"time": 112802, "pitch": 63, "duration": 916, "velocity": 69}, {"time": 113757, "pitch": 61, "duration": 923, "velocity": 56}, {"time": 113757, "pitch": 65, "duration": 923, "velocity": 69}, {"time": 114720, "pitch": 63, "duration": 922, "velocity": 59}, {"time": 114720, "pitch": 67, "duration": 922, "velocity": 71}, {"time": 115682, "pitch": 60, "duration": 916, "velocity": 58}, {"time": 115682, "pitch": 63, "duration": 916, "velocity": 74}, {"time": 116638, "pitch": 63, "duration": 923, "velocity": 60}, {"time": 116638, "pitch": 68, "duration": 923, "velocity": 76}, {"time": 117601, "pitch": 61, "duration": 922, "velocity": 58}, {"time": 117601, "pitch": 65, "duration": 922, "velocity": 76}, {"time": 118563, "pitch": 58, "duration": 916, "velocity": 49}, {"time": 118563, "pitch": 64, "duration": 916, "velocity": 70}, {"time": 119519, "pitch": 60, "duration": 1898, "velocity": 50}, {"time": 119519, "pitch": 63, "duration": 1898, "velocity": 70}, {"time": 121677, "pitch": 65, "duration": 221, "velocity": 67}, {"time": 121918, "pitch": 72, "duration": 221, "velocity": 72}, {"time": 122159, "pitch": 70, "duration": 220, "velocity": 68}, {"time": 122399, "pitch": 75, "duration": 923, "velocity": 75}, {"time": 123603, "pitch": 63, "duration": 220, "velocity": 73}, {"time": 123843, "pitch": 70, "duration": 218, "velocity": 60}, {"time": 124080, "pitch": 68, "duration": 218, "velocity": 71}, {"time": 124317, "pitch": 75, "duration": 923, "velocity": 76}, {"time": 125521, "pitch": 61, "duration": 220, "velocity": 70}, {"time": 125761, "pitch": 72, "duration": 221, "velocity": 69}, {"time": 126002, "pitch": 70, "duration": 220, "velocity": 65}, {"time": 126242, "pitch": 75, "duration": 916, "velocity": 71}, {"time": 127439, "pitch": 65, "duration": 220, "velocity": 73}, {"time": 127679, "pitch": 72, "duration": 221, "velocity": 70}, {"time": 127920, "pitch": 70, "duration": 221, "velocity": 67}, {"time": 128161, "pitch": 64, "duration": 922, "velocity": 60}, {"time": 129597, "pitch": 77, "duration": 512, "velocity": 53}, {"time": 129597, "pitch": 84, "duration": 502, "velocity": 67}, {"time": 130560, "pitch": 77, "duration": 481, "velocity": 53}, {"time": 130560, "pitch": 84, "duration": 481, "velocity": 69}, {"time": 131522, "pitch": 77, "duration": 445, "velocity": 55}, {"time": 131522, "pitch": 84, "duration": 445, "velocity": 73}, {"time": 131997, "pitch": 75, "duration": 451, "velocity": 56}, {"time": 131997, "pitch": 82, "duration": 451, "velocity": 76}, {"time": 132478, "pitch": 68, "duration": 451, "velocity": 50}, {"time": 132478, "pitch": 75, "duration": 451, "velocity": 70}, {"time": 132959, "pitch": 73, "duration": 923, "velocity": 53}, {"time": 132959, "pitch": 80, "duration": 923, "velocity": 81}, {"time": 133922, "pitch": 70, "duration": 491, "velocity": 64}, {"time": 133922, "pitch": 77, "duration": 481, "velocity": 82}, {"time": 134403, "pitch": 66, "duration": 465, "velocity": 58}, {"time": 134403, "pitch": 73, "duration": 465, "velocity": 77}, {"time": 134877, "pitch": 63, "duration": 1414, "velocity": 48}, {"time": 134877, "pitch": 70, "duration": 1414, "velocity": 68}, {"time": 152642, "pitch": 82, "duration": 956, "velocity": 82}, {"time": 153598, "pitch": 80, "duration": 231, "velocity": 75}, {"time": 153839, "pitch": 79, "duration": 230, "velocity": 67}, {"time": 154079, "pitch": 79, "duration": 482, "velocity": 68}, {"time": 154561, "pitch": 77, "duration": 962, "velocity": 73}, {"time": 155523, "pitch": 75, "duration": 395, "velocity": 71}, {"time": 155997, "pitch": 75, "duration": 1444, "velocity": 73}, {"time": 157441, "pitch": 73, "duration": 481, "velocity": 66}, {"time": 157922, "pitch": 72, "duration": 1437, "velocity": 68}, {"time": 159359, "pitch": 70, "duration": 482, "velocity": 56}, {"time": 159841, "pitch": 72, "duration": 1918, "velocity": 60}], "annotations": [{"time": 335, "annotation": {"number": 7, "value": 90}, "group": "control_change"}, {"time": 351, "annotation": {"number": 11, "value": 90}, "group": "control_change"}, {"time": 367, "annotation": {"number": 10, "value": 34}, "group": "control_change"}, {"time": 383, "annotation": {"number": 91, "value": 90}, "group": "control_change"}, {"time": 399, "annotation": {"number": 93, "value": 0}, "group": "control_change"}, {"time": 415, "annotation": {"number": 101, "value": 0}, "group": "control_change"}, {"time": 431, "annotation": {"number": 100, "value": 0}, "group": "control_change"}, {"time": 447, "annotation": {"number": 6, "value": 12}, "group": "control_change"}, {"time": 463, "annotation": {"number": 101, "value": 127}, "group": "control_change"}, {"time": 479, "annotation": {"number": 100, "value": 127}, "group": "control_change"}]}, {"program": 0, "is_drum": false, "name": "Strings", "annotations": [{"time": 287, "annotation": {"number": 0, "value": 0}, "group": "control_change"}, {"time": 303, "annotation": {"number": 32, "value": 2}, "group": "control_change"}]}, {"program": 48, "is_drum": false, "name": "Strings", "notes": [{"time": 60957, "pitch": 77, "duration": 271, "velocity": 75}, {"time": 61198, "pitch": 79, "duration": 271, "velocity": 80}, {"time": 61439, "pitch": 80, "duration": 260, "velocity": 86}, {"time": 61679, "pitch": 82, "duration": 242, "velocity": 85}, {"time": 61920, "pitch": 84, "duration": 1918, "velocity": 81}, {"time": 63838, "pitch": 82, "duration": 1935, "velocity": 75}, {"time": 65763, "pitch": 84, "duration": 3455, "velocity": 73}, {"time": 66719, "pitch": 82, "duration": 972, "velocity": 60}, {"time": 67681, "pitch": 80, "duration": 1537, "velocity": 55}, {"time": 135840, "pitch": 77, "duration": 271, "velocity": 75}, {"time": 136081, "pitch": 79, "duration": 270, "velocity": 80}, {"time": 136321, "pitch": 80, "duration": 261, "velocity": 86}, {"time": 136562, "pitch": 82, "duration": 241, "velocity": 85}, {"time": 136802, "pitch": 84, "duration": 1919, "velocity": 81}, {"time": 138721, "pitch": 82, "duration": 1928, "velocity": 75}, {"time": 140639, "pitch": 84, "duration": 3462, "velocity": 73}, {"time": 141601, "pitch": 82, "duration": 966, "velocity": 60}, {"time": 142557, "pitch": 80, "duration": 1544, "velocity": 55}], "annotations": [{"time": 335, "annotation": {"number": 7, "value": 90}, "group": "control_change"}, {"time": 351, "annotation": {"number": 11, "value": 90}, "group": "control_change"}, {"time": 367, "annotation": {"number": 10, "value": 64}, "group": "control_change"}, {"time": 383, "annotation": {"number": 91, "value": 120}, "group": "control_change"}, {"time": 399, "annotation": {"number": 93, "value": 30}, "group": "control_change"}, {"time": 415, "annotation": {"number": 101, "value": 0}, "group": "control_change"}, {"time": 431, "annotation": {"number": 100, "value": 0}, "group": "control_change"}, {"time": 447, "annotation": {"number": 6, "value": 12}, "group": "control_change"}, {"time": 463, "annotation": {"number": 101, "value": 127}, "group": "control_change"}, {"time": 479, "annotation": {"number": 100, "value": 127}, "group": "control_change"}, {"time": 60957, "annotation": {"number": 11, "value": 58}, "group": "control_change"}, {"time": 60987, "annotation": {"number": 11, "value": 65}, "group": "control_change"}, {"time": 61018, "annotation": {"number": 11, "value": 71}, "group": "control_change"}, {"time": 61048, "annotation": {"number": 11, "value": 74}, "group": "control_change"}, {"time": 61078, "annotation": {"number": 11, "value": 78}, "group": "control_change"}, {"time": 61108, "annotation": {"number": 11, "value": 81}, "group": "control_change"}, {"time": 61138, "annotation": {"number": 11, "value": 82}, "group": "control_change"}, {"time": 61168, "annotation": {"number": 11, "value": 84}, "group": "control_change"}, {"time": 61198, "annotation": {"number": 11, "value": 86}, "group": "control_change"}, {"time": 61258, "annotation": {"number": 11, "value": 87}, "group": "control_change"}, {"time": 61288, "annotation": {"number": 11, "value": 88}, "group": "control_change"}, {"time": 61348, "annotation": {"number": 11, "value": 89}, "group": "control_change"}, {"time": 61439, "annotation": {"number": 11, "value": 90}, "group": "control_change"}, {"time": 61920, "annotation": {"number": 11, "value": 74}, "group": "control_change"}, {"time": 61950, "annotation": {"number": 11, "value": 76}, "group": "control_change"}, {"time": 61980, "annotation": {"number": 11, "value": 78}, "group": "control_change"}, {"time": 62010, "annotation": {"number": 11, "value": 80}, "group": "control_change"}, {"time": 62040, "annotation": {"number": 11, "value": 81}, "group": "control_change"}, {"time": 62070, "annotation": {"number": 11, "value": 82}, "group": "control_change"}, {"time": 62100, "annotation": {"number": 11, "value": 83}, "group": "control_change"}, {"time": 62131, "annotation": {"number": 11, "value": 84}, "group": "control_change"}, {"time": 62161, "annotation": {"number": 11, "value": 85}, "group": "control_change"}, {"time": 62191, "annotation": {"number": 11, "value": 86}, "group": "control_change"}, {"time": 62251, "annotation": {"number": 11, "value": 87}, "group": "control_change"}, {"time": 62311, "annotation": {"number": 11, "value": 88}, "group": "control_change"}, {"time": 62431, "annotation": {"number": 11, "value": 89}, "group": "control_change"}, {"time": 62582, "annotation": {"number": 11, "value": 90}, "group": "control_change"}, {"time": 67681, "annotation": {"number": 11, "value": 90}, "group": "control_change"}, {"time": 68132, "annotation": {"number": 11, "value": 89}, "group": "control_change"}, {"time": 68340, "annotation": {"number": 11, "value": 88}, "group": "control_change"}, {"time": 68429, "annotation": {"number": 11, "value": 87}, "group": "control_change"}, {"time": 68518, "annotation": {"number": 11, "value": 86}, "group": "control_change"}, {"time": 68548, "annotation": {"number": 11, "value": 85}, "group": "control_change"}, {"time": 68607, "annotation": {"number": 11, "value": 84}, "group": "control_change"}, {"time": 68637, "annotation": {"number": 11, "value": 83}, "group": "control_change"}, {"time": 68697, "annotation": {"number": 11, "value": 82}, "group": "control_change"}, {"time": 68727, "annotation": {"number": 11, "value": 81}, "group": "control_change"}, {"time": 68757, "annotation": {"number": 11, "value": 80}, "group": "control_change"}, {"time": 68787, "annotation": {"number": 11, "value": 79}, "group": "control_change"}, {"time": 68817, "annotation": {"number": 11, "value": 77}, "group": "control_change"}, {"time": 68847, "annotation": {"number": 11, "value": 76}, "group": "control_change"}, {"time": 68877, "annotation": {"number": 11, "value": 74}, "group": "control_change"}, {"time": 68907, "annotation": {"number": 11, "value": 72}, "group": "control_change"}, {"time": 68938, "annotation": {"number": 11, "value": 70}, "group": "control_change"}, {"time": 68968, "annotation": {"number": 11, "value": 68}, "group": "control_change"}, {"time": 68998, "annotation": {"number": 11, "value": 65}, "group": "control_change"}, {"time": 69028, "annotation": {"number": 11, "value": 62}, "group": "control_change"}, {"time": 69058, "annotation": {"number": 11, "value": 59}, "group": "control_change"}, {"time": 69088, "annotation": {"number": 11, "value": 55}, "group": "control_change"}, {"time": 69118, "annotation": {"number": 11, "value": 51}, "group": "control_change"}, {"time": 69148, "annotation": {"number": 11, "value": 47}, "group": "control_change"}, {"time": 69178, "annotation": {"number": 11, "value": 41}, "group": "control_change"}, {"time": 69208, "annotation": {"number": 11, "value": 34}, "group": "control_change"}, {"time": 135840, "annotation": {"number": 11, "value": 58}, "group": "control_change"}, {"time": 135870, "annotation": {"number": 11, "value": 65}, "group": "control_change"}, {"time": 135900, "annotation": {"number": 11, "value": 71}, "group": "control_change"}, {"time": 135930, "annotation": {"number": 11, "value": 74}, "group": "control_change"}, {"time": 135960, "annotation": {"number": 11, "value": 78}, "group": "control_change"}, {"time": 135990, "annotation": {"number": 11, "value": 81}, "group": "control_change"}, {"time": 136020, "annotation": {"number": 11, "value": 82}, "group": "control_change"}, {"time": 136051, "annotation": {"number": 11, "value": 84}, "group": "control_change"}, {"time": 136081, "annotation": {"number": 11, "value": 86}, "group": "control_change"}, {"time": 136141, "annotation": {"number": 11, "value": 87}, "group": "control_change"}, {"time": 136171, "annotation": {"number": 11, "value": 88}, "group": "control_change"}, {"time": 136231, "annotation": {"number": 11, "value": 89}, "group": "control_change"}, {"time": 136321, "annotation": {"number": 11, "value": 90}, "group": "control_change"}, {"time": 136802, "annotation": {"number": 11, "value": 74}, "group": "control_change"}, {"time": 136832, "annotation": {"number": 11, "value": 76}, "group": "control_change"}, {"time": 136862, "annotation": {"number": 11, "value": 78}, "group": "control_change"}, {"time": 136891, "annotation": {"number": 11, "value": 80}, "group": "control_change"}, {"time": 136921, "annotation": {"number": 11, "value": 81}, "group": "control_change"}, {"time": 136951, "annotation": {"number": 11, "value": 82}, "group": "control_change"}, {"time": 136980, "annotation": {"number": 11, "value": 83}, "group": "control_change"}, {"time": 137010, "annotation": {"number": 11, "value": 84}, "group": "control_change"}, {"time": 137040, "annotation": {"number": 11, "value": 85}, "group": "control_change"}, {"time": 137069, "annotation": {"number": 11, "value": 86}, "group": "control_change"}, {"time": 137129, "annotation": {"number": 11, "value": 87}, "group": "control_change"}, {"time": 137188, "annotation": {"number": 11, "value": 88}, "group": "control_change"}, {"time": 137307, "annotation": {"number": 11, "value": 89}, "group": "control_change"}, {"time": 137457, "annotation": {"number": 11, "value": 90}, "group": "control_change"}, {"time": 142557, "annotation": {"number": 11, "value": 90}, "group": "control_change"}, {"time": 143008, "annotation": {"number": 11, "value": 89}, "group": "control_change"}, {"time": 143219, "annotation": {"number": 11, "value": 88}, "group": "control_change"}, {"time": 143309, "annotation": {"number": 11, "value": 87}, "group": "control_change"}, {"time": 143399, "annotation": {"number": 11, "value": 86}, "group": "control_change"}, {"time": 143429, "annotation": {"number": 11, "value": 85}, "group": "control_change"}, {"time": 143489, "annotation": {"number": 11, "value": 84}, "group": "control_change"}, {"time": 143519, "annotation": {"number": 11, "value": 83}, "group": "control_change"}, {"time": 143579, "annotation": {"number": 11, "value": 82}, "group": "control_change"}, {"time": 143610, "annotation": {"number": 11, "value": 81}, "group": "control_change"}, {"time": 143640, "annotation": {"number": 11, "value": 80}, "group": "control_change"}, {"time": 143670, "annotation": {"number": 11, "value": 79}, "group": "control_change"}, {"time": 143700, "annotation": {"number": 11, "value": 77}, "group": "control_change"}, {"time": 143730, "annotation": {"number": 11, "value": 76}, "group": "control_change"}, {"time": 143760, "annotation": {"number": 11, "value": 74}, "group": "control_change"}, {"time": 143790, "annotation": {"number": 11, "value": 72}, "group": "control_change"}, {"time": 143820, "annotation": {"number": 11, "value": 70}, "group": "control_change"}, {"time": 143850, "annotation": {"number": 11, "value": 68}, "group": "control_change"}, {"time": 143880, "annotation": {"number": 11, "value": 65}, "group": "control_change"}, {"time": 143910, "annotation": {"number": 11, "value": 62}, "group": "control_change"}, {"time": 143940, "annotation": {"number": 11, "value": 59}, "group": "control_change"}, {"time": 143971, "annotation": {"number": 11, "value": 55}, "group": "control_change"}, {"time": 144001, "annotation": {"number": 11, "value": 51}, "group": "control_change"}, {"time": 144031, "annotation": {"number": 11, "value": 47}, "group": "control_change"}, {"time": 144061, "annotation": {"number": 11, "value": 41}, "group": "control_change"}, {"time": 144091, "annotation": {"number": 11, "value": 34}, "group": "control_change"}]}, {"program": 0, "is_drum": false, "name": "Syn 2", "annotations": [{"time": 287, "annotation": {"number": 0, "value": 0}, "group": "control_change"}, {"time": 303, "annotation": {"number": 32, "value": 2}, "group": "control_change"}]}, {"program": 78, "is_drum": false, "name": "Syn 2", "notes": [{"time": 53519, "pitch": 72, "duration": 220, "velocity": 86}, {"time": 53759, "pitch": 84, "duration": 221, "velocity": 98}, {"time": 54000, "pitch": 82, "duration": 241, "velocity": 93}, {"time": 54241, "pitch": 80, "duration": 220, "velocity": 95}, {"time": 54481, "pitch": 68, "duration": 221, "velocity": 85}, {"time": 54722, "pitch": 72, "duration": 220, "velocity": 91}, {"time": 54963, "pitch": 80, "duration": 220, "velocity": 96}, {"time": 55203, "pitch": 79, "duration": 218, "velocity": 99}, {"time": 55440, "pitch": 68, "duration": 218, "velocity": 88}, {"time": 55677, "pitch": 72, "duration": 221, "velocity": 92}, {"time": 55918, "pitch": 79, "duration": 221, "velocity": 97}, {"time": 56159, "pitch": 77, "duration": 220, "velocity": 96}, {"time": 56399, "pitch": 68, "duration": 221, "velocity": 84}, {"time": 56640, "pitch": 72, "duration": 221, "velocity": 90}, {"time": 56881, "pitch": 77, "duration": 220, "velocity": 96}, {"time": 57121, "pitch": 75, "duration": 451, "velocity": 100}, {"time": 57603, "pitch": 68, "duration": 444, "velocity": 89}, {"time": 65041, "pitch": 72, "duration": 221, "velocity": 88}, {"time": 65282, "pitch": 84, "duration": 220, "velocity": 93}, {"time": 65523, "pitch": 82, "duration": 220, "velocity": 90}, {"time": 65763, "pitch": 80, "duration": 218, "velocity": 94}, {"time": 66000, "pitch": 68, "duration": 218, "velocity": 85}, {"time": 66237, "pitch": 72, "duration": 221, "velocity": 89}, {"time": 66478, "pitch": 80, "duration": 221, "velocity": 94}, {"time": 66719, "pitch": 79, "duration": 220, "velocity": 97}, {"time": 66959, "pitch": 68, "duration": 221, "velocity": 87}, {"time": 67200, "pitch": 72, "duration": 221, "velocity": 92}, {"time": 67441, "pitch": 79, "duration": 220, "velocity": 86}, {"time": 67681, "pitch": 77, "duration": 221, "velocity": 92}, {"time": 67922, "pitch": 65, "duration": 220, "velocity": 84}, {"time": 68163, "pitch": 68, "duration": 217, "velocity": 88}, {"time": 68400, "pitch": 72, "duration": 217, "velocity": 91}, {"time": 68637, "pitch": 77, "duration": 220, "velocity": 87}, {"time": 68877, "pitch": 80, "duration": 221, "velocity": 91}, {"time": 69118, "pitch": 84, "duration": 482, "velocity": 92}, {"time": 69599, "pitch": 82, "duration": 1484, "velocity": 85}, {"time": 97680, "pitch": 72, "duration": 247, "velocity": 86}, {"time": 97917, "pitch": 77, "duration": 241, "velocity": 90}, {"time": 98158, "pitch": 84, "duration": 241, "velocity": 93}, {"time": 98399, "pitch": 84, "duration": 962, "velocity": 92}, {"time": 99361, "pitch": 82, "duration": 946, "velocity": 89}, {"time": 100317, "pitch": 82, "duration": 962, "velocity": 96}, {"time": 101279, "pitch": 80, "duration": 1969, "velocity": 89}, {"time": 104401, "pitch": 68, "duration": 220, "velocity": 85}, {"time": 104641, "pitch": 73, "duration": 221, "velocity": 89}, {"time": 104882, "pitch": 80, "duration": 220, "velocity": 93}, {"time": 105123, "pitch": 79, "duration": 474, "velocity": 90}, {"time": 105597, "pitch": 77, "duration": 471, "velocity": 81}, {"time": 106078, "pitch": 75, "duration": 1524, "velocity": 84}, {"time": 128401, "pitch": 72, "duration": 221, "velocity": 86}, {"time": 128642, "pitch": 84, "duration": 220, "velocity": 98}, {"time": 128883, "pitch": 82, "duration": 240, "velocity": 93}, {"time": 129123, "pitch": 80, "duration": 218, "velocity": 95}, {"time": 129360, "pitch": 68, "duration": 218, "velocity": 85}, {"time": 129597, "pitch": 72, "duration": 221, "velocity": 91}, {"time": 129838, "pitch": 80, "duration": 221, "velocity": 96}, {"time": 130079, "pitch": 79, "duration": 220, "velocity": 99}, {"time": 130319, "pitch": 68, "duration": 221, "velocity": 88}, {"time": 130560, "pitch": 72, "duration": 221, "velocity": 92}, {"time": 130801, "pitch": 79, "duration": 220, "velocity": 97}, {"time": 131041, "pitch": 77, "duration": 221, "velocity": 96}, {"time": 131282, "pitch": 68, "duration": 220, "velocity": 84}, {"time": 131522, "pitch": 72, "duration": 218, "velocity": 90}, {"time": 131760, "pitch": 77, "duration": 217, "velocity": 96}, {"time": 131997, "pitch": 75, "duration": 451, "velocity": 100}, {"time": 132478, "pitch": 68, "duration": 451, "velocity": 89}, {"time": 139920, "pitch": 72, "duration": 218, "velocity": 88}, {"time": 140157, "pitch": 84, "duration": 221, "velocity": 93}, {"time": 140398, "pitch": 82, "duration": 221, "velocity": 90}, {"time": 140639, "pitch": 80, "duration": 220, "velocity": 94}, {"time": 140879, "pitch": 68, "duration": 221, "velocity": 85}, {"time": 141120, "pitch": 72, "duration": 221, "velocity": 89}, {"time": 141361, "pitch": 80, "duration": 220, "velocity": 94}, {"time": 141601, "pitch": 79, "duration": 221, "velocity": 97}, {"time": 141842, "pitch": 68, "duration": 220, "velocity": 87}, {"time": 142082, "pitch": 72, "duration": 218, "velocity": 92}, {"time": 142320, "pitch": 79, "duration": 217, "velocity": 86}, {"time": 142557, "pitch": 77, "duration": 220, "velocity": 92}, {"time": 142797, "pitch": 65, "duration": 221, "velocity": 84}, {"time": 143038, "pitch": 68, "duration": 221, "velocity": 88}, {"time": 143279, "pitch": 72, "duration": 220, "velocity": 91}, {"time": 143519, "pitch": 77, "duration": 221, "velocity": 87}, {"time": 143760, "pitch": 80, "duration": 221, "velocity": 91}, {"time": 144001, "pitch": 84, "duration": 482, "velocity": 92}, {"time": 144482, "pitch": 82, "duration": 1477, "velocity": 85}], "annotations": [{"time": 335, "annotation": {"number": 7, "value": 85}, "group": "control_change"}, {"time": 351, "annotation": {"number": 11, "value": 90}, "group": "control_change"}, {"time": 367, "annotation": {"number": 10, "value": 40}, "group": "control_change"}, {"time": 383, "annotation": {"number": 91, "value": 80}, "group": "control_change"}, {"time": 399, "annotation": {"number": 93, "value": 20}, "group": "control_change"}, {"time": 415, "annotation": {"number": 101, "value": 0}, "group": "control_change"}, {"time": 431, "annotation": {"number": 100, "value": 0}, "group": "control_change"}, {"time": 447, "annotation": {"number": 6, "value": 12}, "group": "control_change"}, {"time": 463, "annotation": {"number": 101, "value": 127}, "group": "control_change"}, {"time": 479, "annotation": {"number": 100, "value": 127}, "group": "control_change"}, {"time": 69599, "annotation": {"number": 11, "value": 90}, "group": "control_change"}, {"time": 70081, "annotation": {"number": 11, "value": 89}, "group": "control_change"}, {"time": 70241, "annotation": {"number": 11, "value": 88}, "group": "control_change"}, {"time": 70341, "annotation": {"number": 11, "value": 87}, "group": "control_change"}, {"time": 70442, "annotation": {"number": 11, "value": 86}, "group": "control_change"}, {"time": 70482, "annotation": {"number": 11, "value": 85}, "group": "control_change"}, {"time": 70522, "annotation": {"number": 11, "value": 84}, "group": "control_change"}, {"time": 70582, "annotation": {"number": 11, "value": 83}, "group": "control_change"}, {"time": 70602, "annotation": {"number": 11, "value": 82}, "group": "control_change"}, {"time": 70642, "annotation": {"number": 11, "value": 81}, "group": "control_change"}, {"time": 70682, "annotation": {"number": 11, "value": 80}, "group": "control_change"}, {"time": 70702, "annotation": {"number": 11, "value": 79}, "group": "control_change"}, {"time": 70722, "annotation": {"number": 11, "value": 78}, "group": "control_change"}, {"time": 70742, "annotation": {"number": 11, "value": 77}, "group": "control_change"}, {"time": 70762, "annotation": {"number": 11, "value": 76}, "group": "control_change"}, {"time": 70782, "annotation": {"number": 11, "value": 75}, "group": "control_change"}, {"time": 70803, "annotation": {"number": 11, "value": 74}, "group": "control_change"}, {"time": 70823, "annotation": {"number": 11, "value": 72}, "group": "control_change"}, {"time": 70843, "annotation": {"number": 11, "value": 71}, "group": "control_change"}, {"time": 70863, "annotation": {"number": 11, "value": 69}, "group": "control_change"}, {"time": 70883, "annotation": {"number": 11, "value": 68}, "group": "control_change"}, {"time": 70903, "annotation": {"number": 11, "value": 66}, "group": "control_change"}, {"time": 70923, "annotation": {"number": 11, "value": 64}, "group": "control_change"}, {"time": 70943, "annotation": {"number": 11, "value": 61}, "group": "control_change"}, {"time": 70963, "annotation": {"number": 11, "value": 60}, "group": "control_change"}, {"time": 70983, "annotation": {"number": 11, "value": 57}, "group": "control_change"}, {"time": 71003, "annotation": {"number": 11, "value": 54}, "group": "control_change"}, {"time": 71023, "annotation": {"number": 11, "value": 51}, "group": "control_change"}, {"time": 71043, "annotation": {"number": 11, "value": 48}, "group": "control_change"}, {"time": 71063, "annotation": {"number": 11, "value": 45}, "group": "control_change"}, {"time": 71083, "annotation": {"number": 11, "value": 42}, "group": "control_change"}, {"time": 73443, "annotation": {"number": 11, "value": 90}, "group": "control_change"}, {"time": 102242, "annotation": {"number": 11, "value": 90}, "group": "control_change"}, {"time": 102503, "annotation": {"number": 11, "value": 89}, "group": "control_change"}, {"time": 102623, "annotation": {"number": 11, "value": 88}, "group": "control_change"}, {"time": 102703, "annotation": {"number": 11, "value": 87}, "group": "control_change"}, {"time": 102743, "annotation": {"number": 11, "value": 86}, "group": "control_change"}, {"time": 102802, "annotation": {"number": 11, "value": 85}, "group": "control_change"}, {"time": 102822, "annotation": {"number": 11, "value": 84}, "group": "control_change"}, {"time": 102861, "annotation": {"number": 11, "value": 83}, "group": "control_change"}, {"time": 102881, "annotation": {"number": 11, "value": 82}, "group": "control_change"}, {"time": 102901, "annotation": {"number": 11, "value": 81}, "group": "control_change"}, {"time": 102921, "annotation": {"number": 11, "value": 80}, "group": "control_change"}, {"time": 102941, "annotation": {"number": 11, "value": 78}, "group": "control_change"}, {"time": 102960, "annotation": {"number": 11, "value": 77}, "group": "control_change"}, {"time": 102980, "annotation": {"number": 11, "value": 76}, "group": "control_change"}, {"time": 103000, "annotation": {"number": 11, "value": 74}, "group": "control_change"}, {"time": 103020, "annotation": {"number": 11, "value": 72}, "group": "control_change"}, {"time": 103039, "annotation": {"number": 11, "value": 70}, "group": "control_change"}, {"time": 103059, "annotation": {"number": 11, "value": 67}, "group": "control_change"}, {"time": 103079, "annotation": {"number": 11, "value": 64}, "group": "control_change"}, {"time": 103099, "annotation": {"number": 11, "value": 61}, "group": "control_change"}, {"time": 103118, "annotation": {"number": 11, "value": 58}, "group": "control_change"}, {"time": 103138, "annotation": {"number": 11, "value": 54}, "group": "control_change"}, {"time": 103158, "annotation": {"number": 11, "value": 50}, "group": "control_change"}, {"time": 103178, "annotation": {"number": 11, "value": 45}, "group": "control_change"}, {"time": 103197, "annotation": {"number": 11, "value": 40}, "group": "control_change"}, {"time": 103217, "annotation": {"number": 11, "value": 34}, "group": "control_change"}, {"time": 103238, "annotation": {"number": 11, "value": 26}, "group": "control_change"}, {"time": 104401, "annotation": {"number": 11, "value": 90}, "group": "control_change"}, {"time": 106078, "annotation": {"number": 11, "value": 90}, "group": "control_change"}, {"time": 106118, "annotation": {"number": 11, "value": 88}, "group": "control_change"}, {"time": 106158, "annotation": {"number": 11, "value": 86}, "group": "control_change"}, {"time": 106198, "annotation": {"number": 11, "value": 83}, "group": "control_change"}, {"time": 106238, "annotation": {"number": 11, "value": 81}, "group": "control_change"}, {"time": 106279, "annotation": {"number": 11, "value": 79}, "group": "control_change"}, {"time": 106319, "annotation": {"number": 11, "value": 76}, "group": "control_change"}, {"time": 106359, "annotation": {"number": 11, "value": 74}, "group": "control_change"}, {"time": 106399, "annotation": {"number": 11, "value": 72}, "group": "control_change"}, {"time": 106439, "annotation": {"number": 11, "value": 69}, "group": "control_change"}, {"time": 106479, "annotation": {"number": 11, "value": 67}, "group": "control_change"}, {"time": 106519, "annotation": {"number": 11, "value": 64}, "group": "control_change"}, {"time": 106559, "annotation": {"number": 11, "value": 62}, "group": "control_change"}, {"time": 106599, "annotation": {"number": 11, "value": 60}, "group": "control_change"}, {"time": 106640, "annotation": {"number": 11, "value": 57}, "group": "control_change"}, {"time": 106680, "annotation": {"number": 11, "value": 55}, "group": "control_change"}, {"time": 106720, "annotation": {"number": 11, "value": 53}, "group": "control_change"}, {"time": 106760, "annotation": {"number": 11, "value": 50}, "group": "control_change"}, {"time": 106800, "annotation": {"number": 11, "value": 48}, "group": "control_change"}, {"time": 106840, "annotation": {"number": 11, "value": 45}, "group": "control_change"}, {"time": 106880, "annotation": {"number": 11, "value": 43}, "group": "control_change"}, {"time": 106920, "annotation": {"number": 11, "value": 41}, "group": "control_change"}, {"time": 106960, "annotation": {"number": 11, "value": 38}, "group": "control_change"}, {"time": 107001, "annotation": {"number": 11, "value": 36}, "group": "control_change"}, {"time": 107041, "annotation": {"number": 11, "value": 34}, "group": "control_change"}, {"time": 107081, "annotation": {"number": 11, "value": 31}, "group": "control_change"}, {"time": 107121, "annotation": {"number": 11, "value": 29}, "group": "control_change"}, {"time": 107161, "annotation": {"number": 11, "value": 27}, "group": "control_change"}, {"time": 107201, "annotation": {"number": 11, "value": 24}, "group": "control_change"}, {"time": 107241, "annotation": {"number": 11, "value": 22}, "group": "control_change"}, {"time": 107281, "annotation": {"number": 11, "value": 19}, "group": "control_change"}, {"time": 107321, "annotation": {"number": 11, "value": 17}, "group": "control_change"}, {"time": 107361, "annotation": {"number": 11, "value": 15}, "group": "control_change"}, {"time": 107402, "annotation": {"number": 11, "value": 12}, "group": "control_change"}, {"time": 107442, "annotation": {"number": 11, "value": 10}, "group": "control_change"}, {"time": 107482, "annotation": {"number": 11, "value": 8}, "group": "control_change"}, {"time": 107522, "annotation": {"number": 11, "value": 5}, "group": "control_change"}, {"time": 107562, "annotation": {"number": 11, "value": 3}, "group": "control_change"}, {"time": 107602, "annotation": {"number": 11, "value": 0}, "group": "control_change"}, {"time": 109921, "annotation": {"number": 11, "value": 90}, "group": "control_change"}, {"time": 144482, "annotation": {"number": 11, "value": 90}, "group": "control_change"}, {"time": 144963, "annotation": {"number": 11, "value": 89}, "group": "control_change"}, {"time": 145121, "annotation": {"number": 11, "value": 88}, "group": "control_change"}, {"time": 145220, "annotation": {"number": 11, "value": 87}, "group": "control_change"}, {"time": 145319, "annotation": {"number": 11, "value": 86}, "group": "control_change"}, {"time": 145358, "annotation": {"number": 11, "value": 85}, "group": "control_change"}, {"time": 145398, "annotation": {"number": 11, "value": 84}, "group": "control_change"}, {"time": 145457, "annotation": {"number": 11, "value": 83}, "group": "control_change"}, {"time": 145478, "annotation": {"number": 11, "value": 82}, "group": "control_change"}, {"time": 145518, "annotation": {"number": 11, "value": 81}, "group": "control_change"}, {"time": 145558, "annotation": {"number": 11, "value": 80}, "group": "control_change"}, {"time": 145578, "annotation": {"number": 11, "value": 79}, "group": "control_change"}, {"time": 145598, "annotation": {"number": 11, "value": 78}, "group": "control_change"}, {"time": 145618, "annotation": {"number": 11, "value": 77}, "group": "control_change"}, {"time": 145638, "annotation": {"number": 11, "value": 76}, "group": "control_change"}, {"time": 145658, "annotation": {"number": 11, "value": 75}, "group": "control_change"}, {"time": 145678, "annotation": {"number": 11, "value": 74}, "group": "control_change"}, {"time": 145698, "annotation": {"number": 11, "value": 72}, "group": "control_change"}, {"time": 145718, "annotation": {"number": 11, "value": 71}, "group": "control_change"}, {"time": 145738, "annotation": {"number": 11, "value": 69}, "group": "control_change"}, {"time": 145758, "annotation": {"number": 11, "value": 68}, "group": "control_change"}, {"time": 145778, "annotation": {"number": 11, "value": 66}, "group": "control_change"}, {"time": 145798, "annotation": {"number": 11, "value": 64}, "group": "control_change"}, {"time": 145818, "annotation": {"number": 11, "value": 61}, "group": "control_change"}, {"time": 145838, "annotation": {"number": 11, "value": 60}, "group": "control_change"}, {"time": 145859, "annotation": {"number": 11, "value": 57}, "group": "control_change"}, {"time": 145879, "annotation": {"number": 11, "value": 54}, "group": "control_change"}, {"time": 145899, "annotation": {"number": 11, "value": 51}, "group": "control_change"}, {"time": 145919, "annotation": {"number": 11, "value": 48}, "group": "control_change"}, {"time": 145939, "annotation": {"number": 11, "value": 45}, "group": "control_change"}, {"time": 145959, "annotation": {"number": 11, "value": 42}, "group": "control_change"}]}, {"program": 0, "is_drum": false, "name": "E.Guitar", "annotations": [{"time": 287, "annotation": {"number": 0, "value": 0}, "group": "control_change"}, {"time": 303, "annotation": {"number": 32, "value": 2}, "group": "control_change"}]}, {"program": 30, "is_drum": false, "name": "E.Guitar", "notes": [{"time": 62401, "pitch": 65, "duration": 472, "velocity": 84}, {"time": 62883, "pitch": 72, "duration": 464, "velocity": 88}, {"time": 63357, "pitch": 75, "duration": 471, "velocity": 90}, {"time": 63838, "pitch": 72, "duration": 1905, "velocity": 83}, {"time": 65763, "pitch": 53, "duration": 936, "velocity": 89}, {"time": 66719, "pitch": 51, "duration": 942, "velocity": 86}, {"time": 67681, "pitch": 49, "duration": 1918, "velocity": 80}, {"time": 137277, "pitch": 65, "duration": 471, "velocity": 84}, {"time": 137758, "pitch": 72, "duration": 471, "velocity": 88}, {"time": 138239, "pitch": 75, "duration": 472, "velocity": 90}, {"time": 138721, "pitch": 72, "duration": 1898, "velocity": 83}, {"time": 140639, "pitch": 53, "duration": 942, "velocity": 89}, {"time": 141601, "pitch": 51, "duration": 936, "velocity": 86}, {"time": 142557, "pitch": 49, "duration": 1925, "velocity": 80}], "annotations": [{"time": 335, "annotation": {"number": 7, "value": 105}, "group": "control_change"}, {"time": 351, "annotation": {"number": 11, "value": 100}, "group": "control_change"}, {"time": 367, "annotation": {"number": 10, "value": 74}, "group": "control_change"}, {"time": 383, "annotation": {"number": 91, "value": 110}, "group": "control_change"}, {"time": 399, "annotation": {"number": 93, "value": 10}, "group": "control_change"}, {"time": 415, "annotation": {"number": 101, "value": 0}, "group": "control_change"}, {"time": 431, "annotation": {"number": 100, "value": 0}, "group": "control_change"}, {"time": 447, "annotation": {"number": 6, "value": 12}, "group": "control_change"}, {"time": 463, "annotation": {"number": 101, "value": 127}, "group": "control_change"}, {"time": 479, "annotation": {"number": 100, "value": 127}, "group": "control_change"}, {"time": 63838, "annotation": {"number": 1, "value": 0}, "group": "control_change"}, {"time": 64380, "annotation": {"number": 1, "value": 9}, "group": "control_change"}, {"time": 64440, "annotation": {"number": 1, "value": 16}, "group": "control_change"}, {"time": 64500, "annotation": {"number": 1, "value": 20}, "group": "control_change"}, {"time": 64560, "annotation": {"number": 1, "value": 25}, "group": "control_change"}, {"time": 64620, "annotation": {"number": 1, "value": 28}, "group": "control_change"}, {"time": 64680, "annotation": {"number": 1, "value": 30}, "group": "control_change"}, {"time": 64740, "annotation": {"number": 1, "value": 33}, "group": "control_change"}, {"time": 64801, "annotation": {"number": 1, "value": 34}, "group": "control_change"}, {"time": 64861, "annotation": {"number": 1, "value": 35}, "group": "control_change"}, {"time": 64921, "annotation": {"number": 1, "value": 37}, "group": "control_change"}, {"time": 64981, "annotation": {"number": 1, "value": 38}, "group": "control_change"}, {"time": 65101, "annotation": {"number": 1, "value": 39}, "group": "control_change"}, {"time": 65282, "annotation": {"number": 1, "value": 40}, "group": "control_change"}, {"time": 65763, "annotation": {"number": 1, "value": 0}, "group": "control_change"}, {"time": 65862, "annotation": {"number": 1, "value": 5}, "group": "control_change"}, {"time": 65882, "annotation": {"number": 1, "value": 10}, "group": "control_change"}, {"time": 65901, "annotation": {"number": 1, "value": 13}, "group": "control_change"}, {"time": 65921, "annotation": {"number": 1, "value": 17}, "group": "control_change"}, {"time": 65941, "annotation": {"number": 1, "value": 20}, "group": "control_change"}, {"time": 65961, "annotation": {"number": 1, "value": 22}, "group": "control_change"}, {"time": 65981, "annotation": {"number": 1, "value": 24}, "group": "control_change"}, {"time": 66000, "annotation": {"number": 1, "value": 26}, "group": "control_change"}, {"time": 66020, "annotation": {"number": 1, "value": 28}, "group": "control_change"}, {"time": 66040, "annotation": {"number": 1, "value": 29}, "group": "control_change"}, {"time": 66060, "annotation": {"number": 1, "value": 30}, "group": "control_change"}, {"time": 66079, "annotation": {"number": 1, "value": 32}, "group": "control_change"}, {"time": 66099, "annotation": {"number": 1, "value": 33}, "group": "control_change"}, {"time": 66119, "annotation": {"number": 1, "value": 34}, "group": "control_change"}, {"time": 66139, "annotation": {"number": 1, "value": 35}, "group": "control_change"}, {"time": 66178, "annotation": {"number": 1, "value": 36}, "group": "control_change"}, {"time": 66218, "annotation": {"number": 1, "value": 37}, "group": "control_change"}, {"time": 66257, "annotation": {"number": 1, "value": 38}, "group": "control_change"}, {"time": 66318, "annotation": {"number": 1, "value": 39}, "group": "control_change"}, {"time": 66418, "annotation": {"number": 1, "value": 40}, "group": "control_change"}, {"time": 67681, "annotation": {"number": 11, "value": 100}, "group": "control_change"}, {"time": 68459, "annotation": {"number": 11, "value": 99}, "group": "control_change"}, {"time": 68657, "annotation": {"number": 11, "value": 98}, "group": "control_change"}, {"time": 68737, "annotation": {"number": 11, "value": 97}, "group": "control_change"}, {"time": 68837, "annotation": {"number": 11, "value": 96}, "group": "control_change"}, {"time": 68877, "annotation": {"number": 11, "value": 95}, "group": "control_change"}, {"time": 68938, "annotation": {"number": 11, "value": 94}, "group": "control_change"}, {"time": 68978, "annotation": {"number": 11, "value": 93}, "group": "control_change"}, {"time": 69018, "annotation": {"number": 11, "value": 92}, "group": "control_change"}, {"time": 69038, "annotation": {"number": 11, "value": 91}, "group": "control_change"}, {"time": 69078, "annotation": {"number": 11, "value": 90}, "group": "control_change"}, {"time": 69098, "annotation": {"number": 11, "value": 89}, "group": "control_change"}, {"time": 69118, "annotation": {"number": 11, "value": 88}, "group": "control_change"}, {"time": 69138, "annotation": {"number": 11, "value": 87}, "group": "control_change"}, {"time": 69158, "annotation": {"number": 11, "value": 86}, "group": "control_change"}, {"time": 69178, "annotation": {"number": 11, "value": 85}, "group": "control_change"}, {"time": 69198, "annotation": {"number": 11, "value": 84}, "group": "control_change"}, {"time": 69218, "annotation": {"number": 11, "value": 82}, "group": "control_change"}, {"time": 69238, "annotation": {"number": 11, "value": 81}, "group": "control_change"}, {"time": 69258, "annotation": {"number": 11, "value": 80}, "group": "control_change"}, {"time": 69278, "annotation": {"number": 11, "value": 78}, "group": "control_change"}, {"time": 69299, "annotation": {"number": 11, "value": 77}, "group": "control_change"}, {"time": 69319, "annotation": {"number": 11, "value": 75}, "group": "control_change"}, {"time": 69339, "annotation": {"number": 11, "value": 73}, "group": "control_change"}, {"time": 69359, "annotation": {"number": 11, "value": 71}, "group": "control_change"}, {"time": 69379, "annotation": {"number": 11, "value": 69}, "group": "control_change"}, {"time": 69399, "annotation": {"number": 11, "value": 66}, "group": "control_change"}, {"time": 69419, "annotation": {"number": 11, "value": 64}, "group": "control_change"}, {"time": 69439, "annotation": {"number": 11, "value": 61}, "group": "control_change"}, {"time": 69459, "annotation": {"number": 11, "value": 58}, "group": "control_change"}, {"time": 69479, "annotation": {"number": 11, "value": 55}, "group": "control_change"}, {"time": 69499, "annotation": {"number": 11, "value": 51}, "group": "control_change"}, {"time": 69519, "annotation": {"number": 11, "value": 47}, "group": "control_change"}, {"time": 69539, "annotation": {"number": 11, "value": 44}, "group": "control_change"}, {"time": 69559, "annotation": {"number": 11, "value": 39}, "group": "control_change"}, {"time": 69579, "annotation": {"number": 11, "value": 35}, "group": "control_change"}, {"time": 69599, "annotation": {"number": 11, "value": 28}, "group": "control_change"}, {"time": 71517, "annotation": {"number": 11, "value": 100}, "group": "control_change"}, {"time": 138721, "annotation": {"number": 1, "value": 0}, "group": "control_change"}, {"time": 139262, "annotation": {"number": 1, "value": 9}, "group": "control_change"}, {"time": 139322, "annotation": {"number": 1, "value": 16}, "group": "control_change"}, {"time": 139382, "annotation": {"number": 1, "value": 20}, "group": "control_change"}, {"time": 139443, "annotation": {"number": 1, "value": 25}, "group": "control_change"}, {"time": 139503, "annotation": {"number": 1, "value": 28}, "group": "control_change"}, {"time": 139563, "annotation": {"number": 1, "value": 30}, "group": "control_change"}, {"time": 139623, "annotation": {"number": 1, "value": 33}, "group": "control_change"}, {"time": 139683, "annotation": {"number": 1, "value": 34}, "group": "control_change"}, {"time": 139742, "annotation": {"number": 1, "value": 35}, "group": "control_change"}, {"time": 139802, "annotation": {"number": 1, "value": 37}, "group": "control_change"}, {"time": 139861, "annotation": {"number": 1, "value": 38}, "group": "control_change"}, {"time": 139980, "annotation": {"number": 1, "value": 39}, "group": "control_change"}, {"time": 140157, "annotation": {"number": 1, "value": 40}, "group": "control_change"}, {"time": 140639, "annotation": {"number": 1, "value": 0}, "group": "control_change"}, {"time": 140739, "annotation": {"number": 1, "value": 5}, "group": "control_change"}, {"time": 140759, "annotation": {"number": 1, "value": 10}, "group": "control_change"}, {"time": 140779, "annotation": {"number": 1, "value": 13}, "group": "control_change"}, {"time": 140799, "annotation": {"number": 1, "value": 17}, "group": "control_change"}, {"time": 140819, "annotation": {"number": 1, "value": 20}, "group": "control_change"}, {"time": 140839, "annotation": {"number": 1, "value": 22}, "group": "control_change"}, {"time": 140859, "annotation": {"number": 1, "value": 24}, "group": "control_change"}, {"time": 140879, "annotation": {"number": 1, "value": 26}, "group": "control_change"}, {"time": 140899, "annotation": {"number": 1, "value": 28}, "group": "control_change"}, {"time": 140919, "annotation": {"number": 1, "value": 29}, "group": "control_change"}, {"time": 140939, "annotation": {"number": 1, "value": 30}, "group": "control_change"}, {"time": 140960, "annotation": {"number": 1, "value": 32}, "group": "control_change"}, {"time": 140980, "annotation": {"number": 1, "value": 33}, "group": "control_change"}, {"time": 141000, "annotation": {"number": 1, "value": 34}, "group": "control_change"}, {"time": 141020, "annotation": {"number": 1, "value": 35}, "group": "control_change"}, {"time": 141060, "annotation": {"number": 1, "value": 36}, "group": "control_change"}, {"time": 141100, "annotation": {"number": 1, "value": 37}, "group": "control_change"}, {"time": 141140, "annotation": {"number": 1, "value": 38}, "group": "control_change"}, {"time": 141200, "annotation": {"number": 1, "value": 39}, "group": "control_change"}, {"time": 141300, "annotation": {"number": 1, "value": 40}, "group": "control_change"}, {"time": 142557, "annotation": {"number": 11, "value": 100}, "group": "control_change"}, {"time": 143339, "annotation": {"number": 11, "value": 99}, "group": "control_change"}, {"time": 143539, "annotation": {"number": 11, "value": 98}, "group": "control_change"}, {"time": 143620, "annotation": {"number": 11, "value": 97}, "group": "control_change"}, {"time": 143720, "annotation": {"number": 11, "value": 96}, "group": "control_change"}, {"time": 143760, "annotation": {"number": 11, "value": 95}, "group": "control_change"}, {"time": 143820, "annotation": {"number": 11, "value": 94}, "group": "control_change"}, {"time": 143860, "annotation": {"number": 11, "value": 93}, "group": "control_change"}, {"time": 143900, "annotation": {"number": 11, "value": 92}, "group": "control_change"}, {"time": 143920, "annotation": {"number": 11, "value": 91}, "group": "control_change"}, {"time": 143960, "annotation": {"number": 11, "value": 90}, "group": "control_change"}, {"time": 143981, "annotation": {"number": 11, "value": 89}, "group": "control_change"}, {"time": 144001, "annotation": {"number": 11, "value": 88}, "group": "control_change"}, {"time": 144021, "annotation": {"number": 11, "value": 87}, "group": "control_change"}, {"time": 144041, "annotation": {"number": 11, "value": 86}, "group": "control_change"}, {"time": 144061, "annotation": {"number": 11, "value": 85}, "group": "control_change"}, {"time": 144081, "annotation": {"number": 11, "value": 84}, "group": "control_change"}, {"time": 144101, "annotation": {"number": 11, "value": 82}, "group": "control_change"}, {"time": 144121, "annotation": {"number": 11, "value": 81}, "group": "control_change"}, {"time": 144141, "annotation": {"number": 11, "value": 80}, "group": "control_change"}, {"time": 144161, "annotation": {"number": 11, "value": 78}, "group": "control_change"}, {"time": 144181, "annotation": {"number": 11, "value": 77}, "group": "control_change"}, {"time": 144201, "annotation": {"number": 11, "value": 75}, "group": "control_change"}, {"time": 144221, "annotation": {"number": 11, "value": 73}, "group": "control_change"}, {"time": 144241, "annotation": {"number": 11, "value": 71}, "group": "control_change"}, {"time": 144261, "annotation": {"number": 11, "value": 69}, "group": "control_change"}, {"time": 144281, "annotation": {"number": 11, "value": 66}, "group": "control_change"}, {"time": 144301, "annotation": {"number": 11, "value": 64}, "group": "control_change"}, {"time": 144321, "annotation": {"number": 11, "value": 61}, "group": "control_change"}, {"time": 144342, "annotation": {"number": 11, "value": 58}, "group": "control_change"}, {"time": 144362, "annotation": {"number": 11, "value": 55}, "group": "control_change"}, {"time": 144382, "annotation": {"number": 11, "value": 51}, "group": "control_change"}, {"time": 144402, "annotation": {"number": 11, "value": 47}, "group": "control_change"}, {"time": 144422, "annotation": {"number": 11, "value": 44}, "group": "control_change"}, {"time": 144442, "annotation": {"number": 11, "value": 39}, "group": "control_change"}, {"time": 144462, "annotation": {"number": 11, "value": 35}, "group": "control_change"}, {"time": 144482, "annotation": {"number": 11, "value": 28}, "group": "control_change"}]}, {"program": 0, "is_drum": true, "name": "Drums", "notes": [{"time": 46561, "pitch": 36, "duration": 10, "velocity": 90}, {"time": 46561, "pitch": 42, "duration": 10, "velocity": 78}, {"time": 46802, "pitch": 42, "duration": 10, "velocity": 36}, {"time": 47043, "pitch": 42, "duration": 9, "velocity": 92}, {"time": 47280, "pitch": 42, "duration": 10, "velocity": 36}, {"time": 47517, "pitch": 40, "duration": 10, "velocity": 78}, {"time": 47517, "pitch": 42, "duration": 10, "velocity": 64}, {"time": 47757, "pitch": 42, "duration": 10, "velocity": 36}, {"time": 47998, "pitch": 42, "duration": 10, "velocity": 92}, {"time": 48239, "pitch": 36, "duration": 10, "velocity": 48}, {"time": 48239, "pitch": 42, "duration": 10, "velocity": 36}, {"time": 48479, "pitch": 36, "duration": 10, "velocity": 90}, {"time": 48479, "pitch": 42, "duration": 10, "velocity": 78}, {"time": 48720, "pitch": 42, "duration": 10, "velocity": 36}, {"time": 48961, "pitch": 42, "duration": 10, "velocity": 92}, {"time": 49201, "pitch": 42, "duration": 10, "velocity": 36}, {"time": 49442, "pitch": 40, "duration": 10, "velocity": 78}, {"time": 49442, "pitch": 42, "duration": 10, "velocity": 64}, {"time": 49683, "pitch": 42, "duration": 10, "velocity": 36}, {"time": 49923, "pitch": 42, "duration": 10, "velocity": 92}, {"time": 50160, "pitch": 36, "duration": 10, "velocity": 48}, {"time": 50160, "pitch": 42, "duration": 10, "velocity": 36}, {"time": 50397, "pitch": 36, "duration": 10, "velocity": 90}, {"time": 50397, "pitch": 42, "duration": 10, "velocity": 78}, {"time": 50638, "pitch": 42, "duration": 10, "velocity": 36}, {"time": 50879, "pitch": 42, "duration": 10, "velocity": 92}, {"time": 51119, "pitch": 42, "duration": 10, "velocity": 36}, {"time": 51360, "pitch": 40, "duration": 10, "velocity": 78}, {"time": 51360, "pitch": 42, "duration": 10, "velocity": 64}, {"time": 51601, "pitch": 42, "duration": 10, "velocity": 36}, {"time": 51841, "pitch": 42, "duration": 10, "velocity": 92}, {"time": 52082, "pitch": 36, "duration": 10, "velocity": 48}, {"time": 52082, "pitch": 42, "duration": 10, "velocity": 36}, {"time": 52323, "pitch": 36, "duration": 9, "velocity": 90}, {"time": 52323, "pitch": 42, "duration": 9, "velocity": 78}, {"time": 52560, "pitch": 42, "duration": 10, "velocity": 36}, {"time": 52797, "pitch": 42, "duration": 10, "velocity": 92}, {"time": 53037, "pitch": 42, "duration": 10, "velocity": 36}, {"time": 53278, "pitch": 40, "duration": 10, "velocity": 78}, {"time": 53278, "pitch": 42, "duration": 10, "velocity": 64}, {"time": 53519, "pitch": 42, "duration": 10, "velocity": 36}, {"time": 53759, "pitch": 46, "duration": 10, "velocity": 92}, {"time": 54241, "pitch": 36, "duration": 10, "velocity": 90}, {"time": 54241, "pitch": 44, "duration": 10, "velocity": 64}, {"time": 54241, "pitch": 49, "duration": 10, "velocity": 64}, {"time": 54481, "pitch": 42, "duration": 10, "velocity": 36}, {"time": 54722, "pitch": 46, "duration": 10, "velocity": 78}, {"time": 55203, "pitch": 36, "duration": 10, "velocity": 90}, {"time": 55203, "pitch": 42, "duration": 10, "velocity": 36}, {"time": 55440, "pitch": 42, "duration": 10, "velocity": 36}, {"time": 55677, "pitch": 46, "duration": 10, "velocity": 78}, {"time": 56159, "pitch": 36, "duration": 10, "velocity": 90}, {"time": 56159, "pitch": 42, "duration": 10, "velocity": 36}, {"time": 56399, "pitch": 42, "duration": 10, "velocity": 36}, {"time": 56640, "pitch": 46, "duration": 10, "velocity": 78}, {"time": 57121, "pitch": 36, "duration": 10, "velocity": 90}, {"time": 57121, "pitch": 42, "duration": 10, "velocity": 36}, {"time": 57362, "pitch": 42, "duration": 10, "velocity": 36}, {"time": 57603, "pitch": 46, "duration": 9, "velocity": 78}, {"time": 58077, "pitch": 36, "duration": 10, "velocity": 90}, {"time": 58077, "pitch": 49, "duration": 10, "velocity": 64}, {"time": 59039, "pitch": 36, "duration": 10, "velocity": 90}, {"time": 59039, "pitch": 57, "duration": 10, "velocity": 64}, {"time": 60002, "pitch": 36, "duration": 10, "velocity": 90}, {"time": 60002, "pitch": 49, "duration": 10, "velocity": 64}, {"time": 60720, "pitch": 48, "duration": 10, "velocity": 78}, {"time": 60740, "pitch": 48, "duration": 10, "velocity": 92}, {"time": 61198, "pitch": 45, "duration": 10, "velocity": 78}, {"time": 61439, "pitch": 41, "duration": 10, "velocity": 92}, {"time": 61679, "pitch": 46, "duration": 10, "velocity": 92}, {"time": 61920, "pitch": 36, "duration": 10, "velocity": 90}, {"time": 61920, "pitch": 42, "duration": 10, "velocity": 78}, {"time": 62161, "pitch": 42, "duration": 10, "velocity": 36}, {"time": 62401, "pitch": 42, "duration": 10, "velocity": 92}, {"time": 62642, "pitch": 42, "duration": 10, "velocity": 36}, {"time": 62883, "pitch": 40, "duration": 9, "velocity": 78}, {"time": 62883, "pitch": 42, "duration": 9, "velocity": 64}, {"time": 63120, "pitch": 42, "duration": 10, "velocity": 36}, {"time": 63357, "pitch": 42, "duration": 10, "velocity": 92}, {"time": 63597, "pitch": 36, "duration": 10, "velocity": 48}, {"time": 63597, "pitch": 42, "duration": 10, "velocity": 36}, {"time": 63838, "pitch": 36, "duration": 10, "velocity": 90}, {"time": 63838, "pitch": 42, "duration": 10, "velocity": 78}, {"time": 64079, "pitch": 42, "duration": 10, "velocity": 36}, {"time": 64319, "pitch": 42, "duration": 10, "velocity": 92}, {"time": 64560, "pitch": 42, "duration": 10, "velocity": 36}, {"time": 64801, "pitch": 40, "duration": 10, "velocity": 78}, {"time": 64801, "pitch": 42, "duration": 10, "velocity": 64}, {"time": 65041, "pitch": 42, "duration": 10, "velocity": 36}, {"time": 65282, "pitch": 42, "duration": 10, "velocity": 92}, {"time": 65523, "pitch": 36, "duration": 10, "velocity": 48}, {"time": 65523, "pitch": 42, "duration": 10, "velocity": 36}, {"time": 65763, "pitch": 36, "duration": 10, "velocity": 90}, {"time": 65763, "pitch": 44, "duration": 10, "velocity": 64}, {"time": 65763, "pitch": 49, "duration": 10, "velocity": 64}, {"time": 66000, "pitch": 42, "duration": 10, "velocity": 36}, {"time": 66237, "pitch": 46, "duration": 10, "velocity": 78}, {"time": 66719, "pitch": 36, "duration": 10, "velocity": 90}, {"time": 66719, "pitch": 42, "duration": 10, "velocity": 36}, {"time": 66959, "pitch": 42, "duration": 10, "velocity": 36}, {"time": 67200, "pitch": 46, "duration": 10, "velocity": 78}, {"time": 67681, "pitch": 36, "duration": 10, "velocity": 90}, {"time": 67681, "pitch": 42, "duration": 10, "velocity": 36}, {"time": 67922, "pitch": 42, "duration": 10, "velocity": 36}, {"time": 68163, "pitch": 46, "duration": 9, "velocity": 78}, {"time": 68637, "pitch": 46, "duration": 10, "velocity": 78}, {"time": 69118, "pitch": 49, "duration": 10, "velocity": 50}, {"time": 69599, "pitch": 36, "duration": 10, "velocity": 90}, {"time": 69599, "pitch": 57, "duration": 10, "velocity": 64}, {"time": 71043, "pitch": 45, "duration": 10, "velocity": 92}, {"time": 71517, "pitch": 36, "duration": 10, "velocity": 90}, {"time": 71517, "pitch": 57, "duration": 10, "velocity": 64}, {"time": 71999, "pitch": 41, "duration": 10, "velocity": 78}, {"time": 72239, "pitch": 36, "duration": 10, "velocity": 90}, {"time": 72239, "pitch": 49, "duration": 10, "velocity": 50}, {"time": 72961, "pitch": 45, "duration": 10, "velocity": 78}, {"time": 72981, "pitch": 48, "duration": 10, "velocity": 64}, {"time": 73443, "pitch": 36, "duration": 9, "velocity": 90}, {"time": 73443, "pitch": 57, "duration": 9, "velocity": 64}, {"time": 73917, "pitch": 41, "duration": 10, "velocity": 78}, {"time": 74157, "pitch": 36, "duration": 10, "velocity": 90}, {"time": 74157, "pitch": 49, "duration": 10, "velocity": 50}, {"time": 74639, "pitch": 48, "duration": 10, "velocity": 64}, {"time": 74879, "pitch": 45, "duration": 10, "velocity": 78}, {"time": 75120, "pitch": 41, "duration": 10, "velocity": 78}, {"time": 75361, "pitch": 36, "duration": 10, "velocity": 90}, {"time": 75361, "pitch": 57, "duration": 10, "velocity": 64}, {"time": 76560, "pitch": 42, "duration": 10, "velocity": 36}, {"time": 76639, "pitch": 42, "duration": 10, "velocity": 50}, {"time": 76718, "pitch": 42, "duration": 10, "velocity": 78}, {"time": 76797, "pitch": 46, "duration": 10, "velocity": 78}, {"time": 77279, "pitch": 36, "duration": 10, "velocity": 90}, {"time": 77279, "pitch": 49, "duration": 10, "velocity": 64}, {"time": 78482, "pitch": 45, "duration": 10, "velocity": 64}, {"time": 78723, "pitch": 48, "duration": 9, "velocity": 78}, {"time": 79197, "pitch": 36, "duration": 10, "velocity": 90}, {"time": 79197, "pitch": 57, "duration": 10, "velocity": 64}, {"time": 79437, "pitch": 42, "duration": 10, "velocity": 36}, {"time": 79678, "pitch": 46, "duration": 10, "velocity": 78}, {"time": 80159, "pitch": 36, "duration": 10, "velocity": 90}, {"time": 80159, "pitch": 42, "duration": 10, "velocity": 64}, {"time": 80400, "pitch": 42, "duration": 10, "velocity": 36}, {"time": 80641, "pitch": 46, "duration": 10, "velocity": 78}, {"time": 81122, "pitch": 36, "duration": 10, "velocity": 90}, {"time": 81122, "pitch": 42, "duration": 10, "velocity": 64}, {"time": 81363, "pitch": 42, "duration": 10, "velocity": 36}, {"time": 81603, "pitch": 46, "duration": 10, "velocity": 78}, {"time": 82077, "pitch": 36, "duration": 10, "velocity": 90}, {"time": 82077, "pitch": 42, "duration": 10, "velocity": 64}, {"time": 82318, "pitch": 42, "duration": 10, "velocity": 36}, {"time": 82448, "pitch": 42, "duration": 10, "velocity": 36}, {"time": 82559, "pitch": 46, "duration": 10, "velocity": 78}, {"time": 83040, "pitch": 36, "duration": 10, "velocity": 90}, {"time": 83040, "pitch": 42, "duration": 10, "velocity": 64}, {"time": 83281, "pitch": 42, "duration": 10, "velocity": 36}, {"time": 83521, "pitch": 46, "duration": 10, "velocity": 78}, {"time": 84003, "pitch": 36, "duration": 9, "velocity": 90}, {"time": 84003, "pitch": 42, "duration": 9, "velocity": 64}, {"time": 84240, "pitch": 42, "duration": 10, "velocity": 36}, {"time": 84477, "pitch": 46, "duration": 10, "velocity": 78}, {"time": 84958, "pitch": 36, "duration": 10, "velocity": 90}, {"time": 84958, "pitch": 42, "duration": 10, "velocity": 64}, {"time": 85199, "pitch": 42, "duration": 10, "velocity": 36}, {"time": 85329, "pitch": 42, "duration": 10, "velocity": 36}, {"time": 85439, "pitch": 46, "duration": 10, "velocity": 78}, {"time": 85921, "pitch": 36, "duration": 10, "velocity": 90}, {"time": 85921, "pitch": 49, "duration": 10, "velocity": 50}, {"time": 85921, "pitch": 57, "duration": 10, "velocity": 50}, {"time": 90719, "pitch": 36, "duration": 10, "velocity": 90}, {"time": 90719, "pitch": 42, "duration": 10, "velocity": 64}, {"time": 90960, "pitch": 42, "duration": 10, "velocity": 36}, {"time": 91201, "pitch": 40, "duration": 10, "velocity": 78}, {"time": 91201, "pitch": 42, "duration": 10, "velocity": 92}, {"time": 91441, "pitch": 36, "duration": 10, "velocity": 48}, {"time": 91441, "pitch": 42, "duration": 10, "velocity": 36}, {"time": 91682, "pitch": 36, "duration": 10, "velocity": 90}, {"time": 91682, "pitch": 42, "duration": 10, "velocity": 64}, {"time": 91923, "pitch": 42, "duration": 10, "velocity": 36}, {"time": 92163, "pitch": 40, "duration": 10, "velocity": 78}, {"time": 92163, "pitch": 42, "duration": 10, "velocity": 92}, {"time": 92400, "pitch": 42, "duration": 10, "velocity": 36}, {"time": 92637, "pitch": 36, "duration": 10, "velocity": 90}, {"time": 92637, "pitch": 42, "duration": 10, "velocity": 64}, {"time": 92878, "pitch": 42, "duration": 10, "velocity": 36}, {"time": 93119, "pitch": 40, "duration": 10, "velocity": 78}, {"time": 93119, "pitch": 42, "duration": 10, "velocity": 92}, {"time": 93359, "pitch": 36, "duration": 10, "velocity": 48}, {"time": 93359, "pitch": 42, "duration": 10, "velocity": 36}, {"time": 93600, "pitch": 36, "duration": 10, "velocity": 90}, {"time": 93600, "pitch": 42, "duration": 10, "velocity": 64}, {"time": 93841, "pitch": 42, "duration": 10, "velocity": 36}, {"time": 94081, "pitch": 40, "duration": 10, "velocity": 78}, {"time": 94081, "pitch": 42, "duration": 10, "velocity": 92}, {"time": 94322, "pitch": 42, "duration": 10, "velocity": 36}, {"time": 94563, "pitch": 36, "duration": 9, "velocity": 90}, {"time": 94563, "pitch": 42, "duration": 9, "velocity": 64}, {"time": 94800, "pitch": 42, "duration": 10, "velocity": 36}, {"time": 95037, "pitch": 40, "duration": 10, "velocity": 78}, {"time": 95037, "pitch": 42, "duration": 10, "velocity": 92}, {"time": 95277, "pitch": 36, "duration": 10, "velocity": 48}, {"time": 95277, "pitch": 42, "duration": 10, "velocity": 36}, {"time": 95518, "pitch": 36, "duration": 10, "velocity": 90}, {"time": 95518, "pitch": 42, "duration": 10, "velocity": 64}, {"time": 95759, "pitch": 42, "duration": 10, "velocity": 36}, {"time": 95999, "pitch": 40, "duration": 10, "velocity": 78}, {"time": 95999, "pitch": 42, "duration": 10, "velocity": 92}, {"time": 96240, "pitch": 42, "duration": 10, "velocity": 36}, {"time": 96481, "pitch": 36, "duration": 10, "velocity": 90}, {"time": 96481, "pitch": 42, "duration": 10, "velocity": 64}, {"time": 96721, "pitch": 42, "duration": 10, "velocity": 36}, {"time": 96962, "pitch": 40, "duration": 10, "velocity": 78}, {"time": 96962, "pitch": 42, "duration": 10, "velocity": 92}, {"time": 97203, "pitch": 36, "duration": 10, "velocity": 48}, {"time": 97203, "pitch": 42, "duration": 10, "velocity": 36}, {"time": 97443, "pitch": 36, "duration": 10, "velocity": 90}, {"time": 97443, "pitch": 42, "duration": 10, "velocity": 64}, {"time": 97680, "pitch": 42, "duration": 10, "velocity": 36}, {"time": 97917, "pitch": 40, "duration": 10, "velocity": 78}, {"time": 98158, "pitch": 46, "duration": 10, "velocity": 92}, {"time": 98399, "pitch": 36, "duration": 10, "velocity": 90}, {"time": 98399, "pitch": 42, "duration": 10, "velocity": 64}, {"time": 98639, "pitch": 42, "duration": 10, "velocity": 36}, {"time": 98880, "pitch": 40, "duration": 10, "velocity": 78}, {"time": 98880, "pitch": 42, "duration": 10, "velocity": 92}, {"time": 99121, "pitch": 36, "duration": 10, "velocity": 48}, {"time": 99121, "pitch": 42, "duration": 10, "velocity": 36}, {"time": 99361, "pitch": 36, "duration": 10, "velocity": 90}, {"time": 99361, "pitch": 42, "duration": 10, "velocity": 64}, {"time": 99602, "pitch": 42, "duration": 10, "velocity": 36}, {"time": 99843, "pitch": 40, "duration": 9, "velocity": 78}, {"time": 99843, "pitch": 42, "duration": 9, "velocity": 92}, {"time": 100080, "pitch": 42, "duration": 10, "velocity": 36}, {"time": 100317, "pitch": 36, "duration": 10, "velocity": 90}, {"time": 100317, "pitch": 42, "duration": 10, "velocity": 64}, {"time": 100557, "pitch": 42, "duration": 10, "velocity": 36}, {"time": 100798, "pitch": 40, "duration": 10, "velocity": 78}, {"time": 100798, "pitch": 42, "duration": 10, "velocity": 92}, {"time": 101039, "pitch": 36, "duration": 10, "velocity": 48}, {"time": 101039, "pitch": 42, "duration": 10, "velocity": 36}, {"time": 101279, "pitch": 36, "duration": 10, "velocity": 90}, {"time": 101279, "pitch": 42, "duration": 10, "velocity": 64}, {"time": 101520, "pitch": 42, "duration": 10, "velocity": 36}, {"time": 101761, "pitch": 40, "duration": 10, "velocity": 78}, {"time": 101761, "pitch": 42, "duration": 10, "velocity": 92}, {"time": 102001, "pitch": 42, "duration": 10, "velocity": 36}, {"time": 102242, "pitch": 36, "duration": 10, "velocity": 90}, {"time": 102242, "pitch": 42, "duration": 10, "velocity": 64}, {"time": 102483, "pitch": 42, "duration": 10, "velocity": 36}, {"time": 102723, "pitch": 40, "duration": 10, "velocity": 78}, {"time": 102723, "pitch": 42, "duration": 10, "velocity": 92}, {"time": 102960, "pitch": 36, "duration": 10, "velocity": 48}, {"time": 102960, "pitch": 42, "duration": 10, "velocity": 36}, {"time": 103197, "pitch": 36, "duration": 10, "velocity": 90}, {"time": 103197, "pitch": 42, "duration": 10, "velocity": 64}, {"time": 103438, "pitch": 42, "duration": 10, "velocity": 36}, {"time": 103679, "pitch": 40, "duration": 10, "velocity": 78}, {"time": 103679, "pitch": 42, "duration": 10, "velocity": 92}, {"time": 103919, "pitch": 42, "duration": 10, "velocity": 36}, {"time": 104160, "pitch": 36, "duration": 10, "velocity": 90}, {"time": 104160, "pitch": 42, "duration": 10, "velocity": 64}, {"time": 104401, "pitch": 42, "duration": 10, "velocity": 36}, {"time": 104641, "pitch": 40, "duration": 10, "velocity": 78}, {"time": 104641, "pitch": 42, "duration": 10, "velocity": 92}, {"time": 104882, "pitch": 36, "duration": 10, "velocity": 48}, {"time": 104882, "pitch": 42, "duration": 10, "velocity": 36}, {"time": 105123, "pitch": 36, "duration": 9, "velocity": 90}, {"time": 105123, "pitch": 42, "duration": 9, "velocity": 64}, {"time": 105360, "pitch": 42, "duration": 10, "velocity": 36}, {"time": 105597, "pitch": 40, "duration": 10, "velocity": 78}, {"time": 105837, "pitch": 46, "duration": 10, "velocity": 92}, {"time": 106078, "pitch": 36, "duration": 10, "velocity": 90}, {"time": 106078, "pitch": 42, "duration": 10, "velocity": 36}, {"time": 106319, "pitch": 42, "duration": 10, "velocity": 36}, {"time": 106559, "pitch": 40, "duration": 10, "velocity": 78}, {"time": 106559, "pitch": 42, "duration": 10, "velocity": 92}, {"time": 106800, "pitch": 36, "duration": 10, "velocity": 48}, {"time": 106800, "pitch": 42, "duration": 10, "velocity": 36}, {"time": 107041, "pitch": 36, "duration": 10, "velocity": 90}, {"time": 107041, "pitch": 42, "duration": 10, "velocity": 64}, {"time": 107281, "pitch": 42, "duration": 10, "velocity": 36}, {"time": 107522, "pitch": 40, "duration": 10, "velocity": 78}, {"time": 107522, "pitch": 42, "duration": 10, "velocity": 92}, {"time": 107763, "pitch": 42, "duration": 10, "velocity": 36}, {"time": 108003, "pitch": 36, "duration": 10, "velocity": 90}, {"time": 108003, "pitch": 42, "duration": 10, "velocity": 64}, {"time": 108240, "pitch": 42, "duration": 10, "velocity": 36}, {"time": 108477, "pitch": 40, "duration": 10, "velocity": 78}, {"time": 108477, "pitch": 42, "duration": 10, "velocity": 92}, {"time": 108718, "pitch": 36, "duration": 10, "velocity": 48}, {"time": 108718, "pitch": 42, "duration": 10, "velocity": 36}, {"time": 108959, "pitch": 36, "duration": 10, "velocity": 90}, {"time": 108959, "pitch": 42, "duration": 10, "velocity": 64}, {"time": 109199, "pitch": 42, "duration": 10, "velocity": 36}, {"time": 109440, "pitch": 40, "duration": 10, "velocity": 78}, {"time": 109440, "pitch": 42, "duration": 10, "velocity": 92}, {"time": 109681, "pitch": 42, "duration": 10, "velocity": 36}, {"time": 109921, "pitch": 36, "duration": 10, "velocity": 90}, {"time": 109921, "pitch": 42, "duration": 10, "velocity": 64}, {"time": 110162, "pitch": 42, "duration": 10, "velocity": 36}, {"time": 110403, "pitch": 40, "duration": 9, "velocity": 78}, {"time": 110403, "pitch": 42, "duration": 9, "velocity": 92}, {"time": 110640, "pitch": 36, "duration": 10, "velocity": 48}, {"time": 110640, "pitch": 42, "duration": 10, "velocity": 36}, {"time": 110877, "pitch": 36, "duration": 10, "velocity": 90}, {"time": 110877, "pitch": 42, "duration": 10, "velocity": 64}, {"time": 111117, "pitch": 42, "duration": 10, "velocity": 36}, {"time": 111358, "pitch": 40, "duration": 10, "velocity": 78}, {"time": 111358, "pitch": 42, "duration": 10, "velocity": 92}, {"time": 111599, "pitch": 42, "duration": 10, "velocity": 36}, {"time": 111839, "pitch": 36, "duration": 10, "velocity": 90}, {"time": 111839, "pitch": 42, "duration": 10, "velocity": 64}, {"time": 112080, "pitch": 42, "duration": 10, "velocity": 36}, {"time": 112321, "pitch": 40, "duration": 10, "velocity": 78}, {"time": 112321, "pitch": 42, "duration": 10, "velocity": 92}, {"time": 112561, "pitch": 36, "duration": 10, "velocity": 48}, {"time": 112561, "pitch": 42, "duration": 10, "velocity": 36}, {"time": 112802, "pitch": 36, "duration": 10, "velocity": 90}, {"time": 112802, "pitch": 42, "duration": 10, "velocity": 64}, {"time": 113043, "pitch": 42, "duration": 10, "velocity": 36}, {"time": 113283, "pitch": 40, "duration": 10, "velocity": 78}, {"time": 113520, "pitch": 46, "duration": 10, "velocity": 92}, {"time": 113757, "pitch": 36, "duration": 10, "velocity": 90}, {"time": 113757, "pitch": 42, "duration": 10, "velocity": 64}, {"time": 113998, "pitch": 42, "duration": 10, "velocity": 36}, {"time": 114239, "pitch": 40, "duration": 10, "velocity": 78}, {"time": 114239, "pitch": 42, "duration": 10, "velocity": 92}, {"time": 114479, "pitch": 36, "duration": 10, "velocity": 48}, {"time": 114479, "pitch": 42, "duration": 10, "velocity": 36}, {"time": 114720, "pitch": 36, "duration": 10, "velocity": 90}, {"time": 114720, "pitch": 42, "duration": 10, "velocity": 64}, {"time": 114961, "pitch": 42, "duration": 10, "velocity": 36}, {"time": 115201, "pitch": 40, "duration": 10, "velocity": 78}, {"time": 115201, "pitch": 42, "duration": 10, "velocity": 92}, {"time": 115442, "pitch": 42, "duration": 10, "velocity": 36}, {"time": 115682, "pitch": 36, "duration": 10, "velocity": 90}, {"time": 115682, "pitch": 42, "duration": 10, "velocity": 64}, {"time": 115920, "pitch": 42, "duration": 10, "velocity": 36}, {"time": 116157, "pitch": 40, "duration": 10, "velocity": 78}, {"time": 116157, "pitch": 42, "duration": 10, "velocity": 92}, {"time": 116397, "pitch": 36, "duration": 10, "velocity": 48}, {"time": 116397, "pitch": 42, "duration": 10, "velocity": 36}, {"time": 116638, "pitch": 36, "duration": 10, "velocity": 90}, {"time": 116638, "pitch": 42, "duration": 10, "velocity": 64}, {"time": 116879, "pitch": 42, "duration": 10, "velocity": 36}, {"time": 117119, "pitch": 40, "duration": 10, "velocity": 78}, {"time": 117119, "pitch": 42, "duration": 10, "velocity": 92}, {"time": 117360, "pitch": 42, "duration": 10, "velocity": 36}, {"time": 117601, "pitch": 36, "duration": 10, "velocity": 90}, {"time": 117601, "pitch": 42, "duration": 10, "velocity": 64}, {"time": 117841, "pitch": 42, "duration": 10, "velocity": 36}, {"time": 118082, "pitch": 40, "duration": 10, "velocity": 78}, {"time": 118082, "pitch": 42, "duration": 10, "velocity": 92}, {"time": 118323, "pitch": 36, "duration": 10, "velocity": 48}, {"time": 118323, "pitch": 42, "duration": 10, "velocity": 36}, {"time": 118563, "pitch": 36, "duration": 10, "velocity": 90}, {"time": 118563, "pitch": 42, "duration": 10, "velocity": 64}, {"time": 118800, "pitch": 42, "duration": 10, "velocity": 36}, {"time": 119037, "pitch": 40, "duration": 10, "velocity": 78}, {"time": 119037, "pitch": 42, "duration": 10, "velocity": 92}, {"time": 119278, "pitch": 42, "duration": 10, "velocity": 36}, {"time": 119519, "pitch": 36, "duration": 10, "velocity": 90}, {"time": 119519, "pitch": 42, "duration": 10, "velocity": 64}, {"time": 119759, "pitch": 48, "duration": 10, "velocity": 78}, {"time": 120000, "pitch": 45, "duration": 10, "velocity": 78}, {"time": 120241, "pitch": 41, "duration": 10, "velocity": 78}, {"time": 120481, "pitch": 36, "duration": 10, "velocity": 90}, {"time": 120481, "pitch": 57, "duration": 10, "velocity": 50}, {"time": 121437, "pitch": 36, "duration": 10, "velocity": 90}, {"time": 121437, "pitch": 42, "duration": 10, "velocity": 78}, {"time": 121677, "pitch": 42, "duration": 10, "velocity": 36}, {"time": 121918, "pitch": 42, "duration": 10, "velocity": 92}, {"time": 122159, "pitch": 42, "duration": 10, "velocity": 36}, {"time": 122399, "pitch": 40, "duration": 10, "velocity": 78}, {"time": 122399, "pitch": 42, "duration": 10, "velocity": 64}, {"time": 122640, "pitch": 42, "duration": 10, "velocity": 36}, {"time": 122881, "pitch": 42, "duration": 10, "velocity": 92}, {"time": 123121, "pitch": 36, "duration": 10, "velocity": 48}, {"time": 123121, "pitch": 42, "duration": 10, "velocity": 36}, {"time": 123362, "pitch": 36, "duration": 10, "velocity": 90}, {"time": 123362, "pitch": 42, "duration": 10, "velocity": 78}, {"time": 123603, "pitch": 42, "duration": 10, "velocity": 36}, {"time": 123843, "pitch": 42, "duration": 10, "velocity": 92}, {"time": 124080, "pitch": 42, "duration": 10, "velocity": 36}, {"time": 124317, "pitch": 40, "duration": 10, "velocity": 78}, {"time": 124317, "pitch": 42, "duration": 10, "velocity": 64}, {"time": 124558, "pitch": 42, "duration": 10, "velocity": 36}, {"time": 124799, "pitch": 42, "duration": 10, "velocity": 92}, {"time": 125039, "pitch": 42, "duration": 10, "velocity": 36}, {"time": 125280, "pitch": 36, "duration": 10, "velocity": 90}, {"time": 125280, "pitch": 42, "duration": 10, "velocity": 78}, {"time": 125521, "pitch": 42, "duration": 10, "velocity": 36}, {"time": 125761, "pitch": 42, "duration": 10, "velocity": 92}, {"time": 126002, "pitch": 42, "duration": 10, "velocity": 36}, {"time": 126242, "pitch": 40, "duration": 10, "velocity": 78}, {"time": 126242, "pitch": 42, "duration": 10, "velocity": 64}, {"time": 126480, "pitch": 42, "duration": 10, "velocity": 36}, {"time": 126717, "pitch": 42, "duration": 10, "velocity": 92}, {"time": 126957, "pitch": 36, "duration": 10, "velocity": 48}, {"time": 126957, "pitch": 42, "duration": 10, "velocity": 36}, {"time": 127198, "pitch": 36, "duration": 10, "velocity": 90}, {"time": 127198, "pitch": 42, "duration": 10, "velocity": 78}, {"time": 127439, "pitch": 42, "duration": 10, "velocity": 36}, {"time": 127679, "pitch": 42, "duration": 10, "velocity": 92}, {"time": 127920, "pitch": 42, "duration": 10, "velocity": 36}, {"time": 128161, "pitch": 40, "duration": 10, "velocity": 78}, {"time": 128161, "pitch": 42, "duration": 10, "velocity": 64}, {"time": 128401, "pitch": 42, "duration": 10, "velocity": 36}, {"time": 128642, "pitch": 46, "duration": 10, "velocity": 78}, {"time": 129123, "pitch": 36, "duration": 10, "velocity": 90}, {"time": 129123, "pitch": 44, "duration": 10, "velocity": 64}, {"time": 129123, "pitch": 49, "duration": 10, "velocity": 64}, {"time": 129360, "pitch": 42, "duration": 10, "velocity": 36}, {"time": 129597, "pitch": 46, "duration": 10, "velocity": 78}, {"time": 130079, "pitch": 36, "duration": 10, "velocity": 90}, {"time": 130079, "pitch": 42, "duration": 10, "velocity": 36}, {"time": 130319, "pitch": 42, "duration": 10, "velocity": 36}, {"time": 130560, "pitch": 46, "duration": 10, "velocity": 78}, {"time": 131041, "pitch": 36, "duration": 10, "velocity": 90}, {"time": 131041, "pitch": 42, "duration": 10, "velocity": 36}, {"time": 131282, "pitch": 42, "duration": 10, "velocity": 36}, {"time": 131522, "pitch": 46, "duration": 10, "velocity": 78}, {"time": 131997, "pitch": 36, "duration": 10, "velocity": 90}, {"time": 131997, "pitch": 42, "duration": 10, "velocity": 36}, {"time": 132237, "pitch": 42, "duration": 10, "velocity": 36}, {"time": 132478, "pitch": 46, "duration": 10, "velocity": 78}, {"time": 132959, "pitch": 36, "duration": 10, "velocity": 90}, {"time": 132959, "pitch": 49, "duration": 10, "velocity": 50}, {"time": 133922, "pitch": 36, "duration": 10, "velocity": 90}, {"time": 133922, "pitch": 57, "duration": 10, "velocity": 64}, {"time": 134877, "pitch": 36, "duration": 10, "velocity": 90}, {"time": 134877, "pitch": 49, "duration": 10, "velocity": 64}, {"time": 135118, "pitch": 40, "duration": 10, "velocity": 92}, {"time": 135599, "pitch": 48, "duration": 10, "velocity": 64}, {"time": 135840, "pitch": 45, "duration": 10, "velocity": 64}, {"time": 136081, "pitch": 41, "duration": 10, "velocity": 78}, {"time": 136321, "pitch": 40, "duration": 10, "velocity": 92}, {"time": 136562, "pitch": 46, "duration": 10, "velocity": 92}, {"time": 136802, "pitch": 36, "duration": 10, "velocity": 90}, {"time": 136802, "pitch": 42, "duration": 10, "velocity": 64}, {"time": 137040, "pitch": 42, "duration": 10, "velocity": 36}, {"time": 137277, "pitch": 42, "duration": 10, "velocity": 92}, {"time": 137517, "pitch": 42, "duration": 10, "velocity": 36}, {"time": 137758, "pitch": 40, "duration": 10, "velocity": 78}, {"time": 137758, "pitch": 42, "duration": 10, "velocity": 64}, {"time": 137999, "pitch": 42, "duration": 10, "velocity": 36}, {"time": 138239, "pitch": 42, "duration": 10, "velocity": 92}, {"time": 138480, "pitch": 36, "duration": 10, "velocity": 48}, {"time": 138480, "pitch": 42, "duration": 10, "velocity": 36}, {"time": 138721, "pitch": 36, "duration": 10, "velocity": 90}, {"time": 138721, "pitch": 42, "duration": 10, "velocity": 92}, {"time": 138961, "pitch": 42, "duration": 10, "velocity": 36}, {"time": 139202, "pitch": 42, "duration": 10, "velocity": 92}, {"time": 139443, "pitch": 42, "duration": 10, "velocity": 36}, {"time": 139683, "pitch": 40, "duration": 10, "velocity": 78}, {"time": 139683, "pitch": 42, "duration": 10, "velocity": 64}, {"time": 139920, "pitch": 42, "duration": 10, "velocity": 36}, {"time": 140157, "pitch": 46, "duration": 10, "velocity": 92}, {"time": 140639, "pitch": 36, "duration": 10, "velocity": 90}, {"time": 140639, "pitch": 44, "duration": 10, "velocity": 64}, {"time": 140639, "pitch": 49, "duration": 10, "velocity": 64}, {"time": 140879, "pitch": 42, "duration": 10, "velocity": 36}, {"time": 141120, "pitch": 46, "duration": 10, "velocity": 78}, {"time": 141601, "pitch": 36, "duration": 10, "velocity": 90}, {"time": 141601, "pitch": 42, "duration": 10, "velocity": 36}, {"time": 141842, "pitch": 42, "duration": 10, "velocity": 36}, {"time": 142082, "pitch": 46, "duration": 10, "velocity": 78}, {"time": 142557, "pitch": 36, "duration": 10, "velocity": 90}, {"time": 142557, "pitch": 42, "duration": 10, "velocity": 36}, {"time": 142797, "pitch": 42, "duration": 10, "velocity": 36}, {"time": 143038, "pitch": 46, "duration": 10, "velocity": 78}, {"time": 143519, "pitch": 46, "duration": 10, "velocity": 78}, {"time": 144001, "pitch": 49, "duration": 10, "velocity": 50}, {"time": 144482, "pitch": 36, "duration": 10, "velocity": 90}, {"time": 144482, "pitch": 57, "duration": 10, "velocity": 64}, {"time": 145919, "pitch": 45, "duration": 10, "velocity": 92}, {"time": 146400, "pitch": 36, "duration": 10, "velocity": 90}, {"time": 146400, "pitch": 57, "duration": 10, "velocity": 64}, {"time": 146881, "pitch": 41, "duration": 10, "velocity": 78}, {"time": 147122, "pitch": 36, "duration": 10, "velocity": 90}, {"time": 147122, "pitch": 49, "duration": 10, "velocity": 50}, {"time": 147837, "pitch": 45, "duration": 10, "velocity": 78}, {"time": 147857, "pitch": 48, "duration": 10, "velocity": 64}, {"time": 148318, "pitch": 36, "duration": 10, "velocity": 90}, {"time": 148318, "pitch": 57, "duration": 10, "velocity": 64}, {"time": 148799, "pitch": 41, "duration": 10, "velocity": 64}, {"time": 148809, "pitch": 41, "duration": 10, "velocity": 78}, {"time": 149040, "pitch": 36, "duration": 10, "velocity": 90}, {"time": 149040, "pitch": 49, "duration": 10, "velocity": 50}, {"time": 149521, "pitch": 48, "duration": 10, "velocity": 64}, {"time": 149762, "pitch": 45, "duration": 10, "velocity": 78}, {"time": 150003, "pitch": 41, "duration": 10, "velocity": 78}, {"time": 150243, "pitch": 36, "duration": 10, "velocity": 90}, {"time": 150243, "pitch": 57, "duration": 10, "velocity": 64}, {"time": 151439, "pitch": 42, "duration": 10, "velocity": 36}, {"time": 151520, "pitch": 42, "duration": 10, "velocity": 50}, {"time": 151600, "pitch": 42, "duration": 10, "velocity": 78}, {"time": 151680, "pitch": 46, "duration": 10, "velocity": 78}, {"time": 152161, "pitch": 36, "duration": 10, "velocity": 90}, {"time": 152161, "pitch": 44, "duration": 10, "velocity": 64}, {"time": 152161, "pitch": 49, "duration": 10, "velocity": 64}, {"time": 152642, "pitch": 46, "duration": 10, "velocity": 64}, {"time": 153117, "pitch": 36, "duration": 10, "velocity": 90}, {"time": 153117, "pitch": 44, "duration": 10, "velocity": 64}, {"time": 153598, "pitch": 46, "duration": 10, "velocity": 64}, {"time": 154079, "pitch": 36, "duration": 10, "velocity": 90}, {"time": 154079, "pitch": 44, "duration": 10, "velocity": 64}, {"time": 154561, "pitch": 46, "duration": 10, "velocity": 64}, {"time": 155042, "pitch": 36, "duration": 10, "velocity": 90}, {"time": 155042, "pitch": 44, "duration": 10, "velocity": 64}, {"time": 155042, "pitch": 49, "duration": 10, "velocity": 64}, {"time": 155997, "pitch": 36, "duration": 10, "velocity": 90}, {"time": 155997, "pitch": 57, "duration": 10, "velocity": 64}, {"time": 156479, "pitch": 41, "duration": 10, "velocity": 64}, {"time": 156489, "pitch": 41, "duration": 10, "velocity": 78}, {"time": 156719, "pitch": 36, "duration": 10, "velocity": 90}, {"time": 156719, "pitch": 49, "duration": 10, "velocity": 64}, {"time": 157201, "pitch": 48, "duration": 10, "velocity": 64}, {"time": 157441, "pitch": 45, "duration": 10, "velocity": 78}, {"time": 157682, "pitch": 41, "duration": 10, "velocity": 78}, {"time": 157922, "pitch": 36, "duration": 10, "velocity": 90}, {"time": 157922, "pitch": 49, "duration": 10, "velocity": 78}, {"time": 159841, "pitch": 51, "duration": 10, "velocity": 50}, {"time": 160081, "pitch": 51, "duration": 10, "velocity": 36}, {"time": 160322, "pitch": 51, "duration": 10, "velocity": 78}, {"time": 160563, "pitch": 51, "duration": 10, "velocity": 36}, {"time": 160803, "pitch": 51, "duration": 10, "velocity": 50}, {"time": 161040, "pitch": 51, "duration": 10, "velocity": 36}, {"time": 161277, "pitch": 51, "duration": 10, "velocity": 78}, {"time": 161518, "pitch": 51, "duration": 10, "velocity": 36}, {"time": 161638, "pitch": 51, "duration": 10, "velocity": 36}, {"time": 161759, "pitch": 51, "duration": 10, "velocity": 50}, {"time": 161999, "pitch": 51, "duration": 10, "velocity": 36}, {"time": 162240, "pitch": 51, "duration": 10, "velocity": 78}, {"time": 162481, "pitch": 51, "duration": 10, "velocity": 22}, {"time": 162541, "pitch": 51, "duration": 10, "velocity": 36}, {"time": 162601, "pitch": 51, "duration": 10, "velocity": 36}, {"time": 162661, "pitch": 51, "duration": 10, "velocity": 50}, {"time": 162721, "pitch": 51, "duration": 10, "velocity": 78}, {"time": 162962, "pitch": 51, "duration": 10, "velocity": 36}, {"time": 163202, "pitch": 51, "duration": 10, "velocity": 78}, {"time": 163440, "pitch": 51, "duration": 10, "velocity": 36}, {"time": 163677, "pitch": 51, "duration": 10, "velocity": 50}, {"time": 163917, "pitch": 51, "duration": 10, "velocity": 36}, {"time": 164158, "pitch": 51, "duration": 10, "velocity": 78}, {"time": 164399, "pitch": 51, "duration": 10, "velocity": 36}, {"time": 164639, "pitch": 51, "duration": 10, "velocity": 50}, {"time": 164880, "pitch": 51, "duration": 10, "velocity": 36}, {"time": 165121, "pitch": 51, "duration": 10, "velocity": 78}, {"time": 165361, "pitch": 51, "duration": 10, "velocity": 22}, {"time": 165421, "pitch": 51, "duration": 10, "velocity": 36}, {"time": 165482, "pitch": 51, "duration": 10, "velocity": 36}, {"time": 165542, "pitch": 51, "duration": 10, "velocity": 50}, {"time": 165602, "pitch": 51, "duration": 10, "velocity": 78}, {"time": 165843, "pitch": 51, "duration": 10, "velocity": 36}, {"time": 166083, "pitch": 51, "duration": 10, "velocity": 78}, {"time": 166320, "pitch": 51, "duration": 10, "velocity": 36}, {"time": 166439, "pitch": 51, "duration": 10, "velocity": 36}, {"time": 166557, "pitch": 51, "duration": 10, "velocity": 50}, {"time": 166798, "pitch": 51, "duration": 10, "velocity": 36}, {"time": 167039, "pitch": 51, "duration": 10, "velocity": 78}, {"time": 167279, "pitch": 51, "duration": 10, "velocity": 36}, {"time": 167520, "pitch": 51, "duration": 10, "velocity": 50}, {"time": 167761, "pitch": 51, "duration": 10, "velocity": 36}, {"time": 168001, "pitch": 51, "duration": 10, "velocity": 78}, {"time": 168242, "pitch": 51, "duration": 10, "velocity": 22}, {"time": 168302, "pitch": 51, "duration": 10, "velocity": 36}, {"time": 168362, "pitch": 51, "duration": 10, "velocity": 50}, {"time": 168422, "pitch": 51, "duration": 10, "velocity": 50}, {"time": 168482, "pitch": 51, "duration": 10, "velocity": 78}, {"time": 168720, "pitch": 51, "duration": 10, "velocity": 36}, {"time": 168957, "pitch": 51, "duration": 10, "velocity": 78}, {"time": 169197, "pitch": 51, "duration": 10, "velocity": 36}, {"time": 169318, "pitch": 51, "duration": 10, "velocity": 36}, {"time": 169438, "pitch": 51, "duration": 10, "velocity": 50}, {"time": 169679, "pitch": 51, "duration": 10, "velocity": 36}, {"time": 169919, "pitch": 51, "duration": 10, "velocity": 78}, {"time": 170160, "pitch": 51, "duration": 10, "velocity": 36}, {"time": 170401, "pitch": 51, "duration": 10, "velocity": 50}, {"time": 170641, "pitch": 51, "duration": 10, "velocity": 36}, {"time": 170882, "pitch": 51, "duration": 10, "velocity": 78}, {"time": 171123, "pitch": 51, "duration": 10, "velocity": 36}, {"time": 171363, "pitch": 51, "duration": 10, "velocity": 50}, {"time": 171604, "pitch": 51, "duration": 10, "velocity": 36}, {"time": 171844, "pitch": 51, "duration": 10, "velocity": 78}, {"time": 172085, "pitch": 51, "duration": 10, "velocity": 22}, {"time": 172145, "pitch": 51, "duration": 10, "velocity": 36}, {"time": 172205, "pitch": 51, "duration": 10, "velocity": 50}, {"time": 172266, "pitch": 51, "duration": 10, "velocity": 50}, {"time": 172326, "pitch": 51, "duration": 10, "velocity": 78}, {"time": 172566, "pitch": 51, "duration": 10, "velocity": 36}, {"time": 172807, "pitch": 51, "duration": 10, "velocity": 78}, {"time": 173048, "pitch": 51, "duration": 10, "velocity": 36}, {"time": 173168, "pitch": 51, "duration": 10, "velocity": 36}, {"time": 173288, "pitch": 51, "duration": 10, "velocity": 50}, {"time": 173529, "pitch": 51, "duration": 10, "velocity": 36}, {"time": 173770, "pitch": 51, "duration": 10, "velocity": 78}, {"time": 174010, "pitch": 51, "duration": 10, "velocity": 36}, {"time": 174251, "pitch": 51, "duration": 10, "velocity": 50}, {"time": 174492, "pitch": 51, "duration": 10, "velocity": 36}, {"time": 174732, "pitch": 51, "duration": 10, "velocity": 78}, {"time": 174973, "pitch": 51, "duration": 10, "velocity": 36}, {"time": 175213, "pitch": 51, "duration": 10, "velocity": 50}, {"time": 175454, "pitch": 51, "duration": 10, "velocity": 36}, {"time": 175695, "pitch": 51, "duration": 10, "velocity": 78}, {"time": 175935, "pitch": 51, "duration": 10, "velocity": 22}, {"time": 175996, "pitch": 51, "duration": 10, "velocity": 36}, {"time": 176056, "pitch": 51, "duration": 10, "velocity": 50}, {"time": 176116, "pitch": 51, "duration": 10, "velocity": 50}, {"time": 176176, "pitch": 51, "duration": 10, "velocity": 78}, {"time": 176417, "pitch": 51, "duration": 10, "velocity": 36}, {"time": 176657, "pitch": 51, "duration": 10, "velocity": 78}, {"time": 176898, "pitch": 51, "duration": 10, "velocity": 36}, {"time": 177018, "pitch": 51, "duration": 10, "velocity": 36}, {"time": 177139, "pitch": 51, "duration": 10, "velocity": 50}, {"time": 177379, "pitch": 51, "duration": 10, "velocity": 36}, {"time": 177620, "pitch": 51, "duration": 10, "velocity": 78}, {"time": 177860, "pitch": 51, "duration": 11, "velocity": 36}, {"time": 178101, "pitch": 51, "duration": 10, "velocity": 50}, {"time": 178342, "pitch": 51, "duration": 10, "velocity": 36}, {"time": 178582, "pitch": 51, "duration": 10, "velocity": 78}, {"time": 178823, "pitch": 51, "duration": 10, "velocity": 36}], "annotations": [{"time": 287, "annotation": {"number": 0, "value": 0}, "group": "control_change"}, {"time": 303, "annotation": {"number": 32, "value": 2}, "group": "control_change"}, {"time": 335, "annotation": {"number": 7, "value": 110}, "group": "control_change"}, {"time": 351, "annotation": {"number": 11, "value": 100}, "group": "control_change"}, {"time": 367, "annotation": {"number": 10, "value": 64}, "group": "control_change"}, {"time": 383, "annotation": {"number": 91, "value": 40}, "group": "control_change"}, {"time": 399, "annotation": {"number": 93, "value": 0}, "group": "control_change"}, {"time": 415, "annotation": {"number": 101, "value": 0}, "group": "control_change"}, {"time": 431, "annotation": {"number": 100, "value": 0}, "group": "control_change"}, {"time": 447, "annotation": {"number": 6, "value": 12}, "group": "control_change"}, {"time": 463, "annotation": {"number": 101, "value": 127}, "group": "control_change"}, {"time": 479, "annotation": {"number": 100, "value": 127}, "group": "control_change"}]}, {"program": 0, "is_drum": false, "name": "W.Chimre", "annotations": [{"time": 287, "annotation": {"number": 0, "value": 5}, "group": "control_change"}, {"time": 303, "annotation": {"number": 32, "value": 2}, "group": "control_change"}]}, {"program": 124, "is_drum": false, "name": "W.Chimre", "notes": [{"time": 13919, "pitch": 64, "duration": 3823, "velocity": 70}, {"time": 44643, "pitch": 64, "duration": 3816, "velocity": 70}, {"time": 88801, "pitch": 64, "duration": 3817, "velocity": 70}, {"time": 120481, "pitch": 64, "duration": 2861, "velocity": 70}, {"time": 158387, "pitch": 64, "duration": 3342, "velocity": 70}], "annotations": [{"time": 335, "annotation": {"number": 7, "value": 90}, "group": "control_change"}, {"time": 351, "annotation": {"number": 11, "value": 90}, "group": "control_change"}, {"time": 367, "annotation": {"number": 10, "value": 64}, "group": "control_change"}, {"time": 383, "annotation": {"number": 91, "value": 80}, "group": "control_change"}, {"time": 399, "annotation": {"number": 93, "value": 30}, "group": "control_change"}, {"time": 415, "annotation": {"number": 101, "value": 0}, "group": "control_change"}, {"time": 431, "annotation": {"number": 100, "value": 0}, "group": "control_change"}, {"time": 447, "annotation": {"number": 6, "value": 12}, "group": "control_change"}, {"time": 463, "annotation": {"number": 101, "value": 127}, "group": "control_change"}, {"time": 479, "annotation": {"number": 100, "value": 127}, "group": "control_change"}, {"time": 13919, "annotation": {"number": 10, "value": 10}, "group": "control_change"}, {"time": 13919, "annotation": {"number": 11, "value": 34}, "group": "control_change"}, {"time": 13959, "annotation": {"number": 11, "value": 36}, "group": "control_change"}, {"time": 13999, "annotation": {"number": 11, "value": 39}, "group": "control_change"}, {"time": 14039, "annotation": {"number": 10, "value": 20}, "group": "control_change"}, {"time": 14039, "annotation": {"number": 11, "value": 42}, "group": "control_change"}, {"time": 14079, "annotation": {"number": 11, "value": 45}, "group": "control_change"}, {"time": 14119, "annotation": {"number": 11, "value": 48}, "group": "control_change"}, {"time": 14159, "annotation": {"number": 10, "value": 30}, "group": "control_change"}, {"time": 14159, "annotation": {"number": 11, "value": 51}, "group": "control_change"}, {"time": 14199, "annotation": {"number": 11, "value": 54}, "group": "control_change"}, {"time": 14240, "annotation": {"number": 11, "value": 57}, "group": "control_change"}, {"time": 14280, "annotation": {"number": 10, "value": 40}, "group": "control_change"}, {"time": 14280, "annotation": {"number": 11, "value": 60}, "group": "control_change"}, {"time": 14320, "annotation": {"number": 11, "value": 63}, "group": "control_change"}, {"time": 14360, "annotation": {"number": 11, "value": 66}, "group": "control_change"}, {"time": 14400, "annotation": {"number": 10, "value": 50}, "group": "control_change"}, {"time": 14400, "annotation": {"number": 11, "value": 68}, "group": "control_change"}, {"time": 14440, "annotation": {"number": 11, "value": 71}, "group": "control_change"}, {"time": 14480, "annotation": {"number": 11, "value": 74}, "group": "control_change"}, {"time": 14520, "annotation": {"number": 10, "value": 60}, "group": "control_change"}, {"time": 14520, "annotation": {"number": 11, "value": 77}, "group": "control_change"}, {"time": 14560, "annotation": {"number": 11, "value": 80}, "group": "control_change"}, {"time": 14601, "annotation": {"number": 11, "value": 83}, "group": "control_change"}, {"time": 14641, "annotation": {"number": 10, "value": 70}, "group": "control_change"}, {"time": 14641, "annotation": {"number": 11, "value": 86}, "group": "control_change"}, {"time": 14681, "annotation": {"number": 11, "value": 89}, "group": "control_change"}, {"time": 14691, "annotation": {"number": 11, "value": 90}, "group": "control_change"}, {"time": 14751, "annotation": {"number": 10, "value": 80}, "group": "control_change"}, {"time": 14771, "annotation": {"number": 11, "value": 89}, "group": "control_change"}, {"time": 14811, "annotation": {"number": 11, "value": 88}, "group": "control_change"}, {"time": 14891, "annotation": {"number": 10, "value": 90}, "group": "control_change"}, {"time": 14891, "annotation": {"number": 11, "value": 87}, "group": "control_change"}, {"time": 14931, "annotation": {"number": 11, "value": 86}, "group": "control_change"}, {"time": 14972, "annotation": {"number": 11, "value": 85}, "group": "control_change"}, {"time": 15022, "annotation": {"number": 10, "value": 100}, "group": "control_change"}, {"time": 15052, "annotation": {"number": 11, "value": 84}, "group": "control_change"}, {"time": 15092, "annotation": {"number": 11, "value": 83}, "group": "control_change"}, {"time": 15132, "annotation": {"number": 10, "value": 105}, "group": "control_change"}, {"time": 15132, "annotation": {"number": 11, "value": 82}, "group": "control_change"}, {"time": 15212, "annotation": {"number": 11, "value": 81}, "group": "control_change"}, {"time": 15252, "annotation": {"number": 10, "value": 110}, "group": "control_change"}, {"time": 15252, "annotation": {"number": 11, "value": 80}, "group": "control_change"}, {"time": 15332, "annotation": {"number": 11, "value": 79}, "group": "control_change"}, {"time": 15372, "annotation": {"number": 10, "value": 115}, "group": "control_change"}, {"time": 15372, "annotation": {"number": 11, "value": 78}, "group": "control_change"}, {"time": 15412, "annotation": {"number": 11, "value": 77}, "group": "control_change"}, {"time": 15491, "annotation": {"number": 11, "value": 77}, "group": "control_change"}, {"time": 15491, "annotation": {"number": 10, "value": 120}, "group": "control_change"}, {"time": 15531, "annotation": {"number": 11, "value": 76}, "group": "control_change"}, {"time": 15570, "annotation": {"number": 10, "value": 125}, "group": "control_change"}, {"time": 15570, "annotation": {"number": 11, "value": 75}, "group": "control_change"}, {"time": 15610, "annotation": {"number": 11, "value": 73}, "group": "control_change"}, {"time": 15649, "annotation": {"number": 11, "value": 72}, "group": "control_change"}, {"time": 15689, "annotation": {"number": 11, "value": 71}, "group": "control_change"}, {"time": 15728, "annotation": {"number": 11, "value": 69}, "group": "control_change"}, {"time": 15768, "annotation": {"number": 11, "value": 68}, "group": "control_change"}, {"time": 15807, "annotation": {"number": 11, "value": 67}, "group": "control_change"}, {"time": 15847, "annotation": {"number": 11, "value": 65}, "group": "control_change"}, {"time": 15887, "annotation": {"number": 11, "value": 64}, "group": "control_change"}, {"time": 15927, "annotation": {"number": 11, "value": 63}, "group": "control_change"}, {"time": 15967, "annotation": {"number": 11, "value": 61}, "group": "control_change"}, {"time": 16007, "annotation": {"number": 11, "value": 60}, "group": "control_change"}, {"time": 16047, "annotation": {"number": 11, "value": 59}, "group": "control_change"}, {"time": 16087, "annotation": {"number": 11, "value": 57}, "group": "control_change"}, {"time": 16128, "annotation": {"number": 11, "value": 56}, "group": "control_change"}, {"time": 16168, "annotation": {"number": 11, "value": 54}, "group": "control_change"}, {"time": 16208, "annotation": {"number": 11, "value": 53}, "group": "control_change"}, {"time": 16248, "annotation": {"number": 11, "value": 52}, "group": "control_change"}, {"time": 16288, "annotation": {"number": 11, "value": 50}, "group": "control_change"}, {"time": 16328, "annotation": {"number": 11, "value": 49}, "group": "control_change"}, {"time": 16368, "annotation": {"number": 11, "value": 48}, "group": "control_change"}, {"time": 16408, "annotation": {"number": 11, "value": 46}, "group": "control_change"}, {"time": 16448, "annotation": {"number": 11, "value": 45}, "group": "control_change"}, {"time": 16489, "annotation": {"number": 11, "value": 44}, "group": "control_change"}, {"time": 16529, "annotation": {"number": 11, "value": 42}, "group": "control_change"}, {"time": 16569, "annotation": {"number": 11, "value": 41}, "group": "control_change"}, {"time": 16609, "annotation": {"number": 11, "value": 40}, "group": "control_change"}, {"time": 16649, "annotation": {"number": 11, "value": 38}, "group": "control_change"}, {"time": 16689, "annotation": {"number": 11, "value": 37}, "group": "control_change"}, {"time": 16729, "annotation": {"number": 11, "value": 35}, "group": "control_change"}, {"time": 16769, "annotation": {"number": 11, "value": 34}, "group": "control_change"}, {"time": 16809, "annotation": {"number": 11, "value": 33}, "group": "control_change"}, {"time": 16849, "annotation": {"number": 11, "value": 31}, "group": "control_change"}, {"time": 16890, "annotation": {"number": 11, "value": 30}, "group": "control_change"}, {"time": 16930, "annotation": {"number": 11, "value": 29}, "group": "control_change"}, {"time": 16970, "annotation": {"number": 11, "value": 27}, "group": "control_change"}, {"time": 17010, "annotation": {"number": 11, "value": 26}, "group": "control_change"}, {"time": 17050, "annotation": {"number": 11, "value": 25}, "group": "control_change"}, {"time": 17090, "annotation": {"number": 11, "value": 23}, "group": "control_change"}, {"time": 17130, "annotation": {"number": 11, "value": 22}, "group": "control_change"}, {"time": 17170, "annotation": {"number": 11, "value": 21}, "group": "control_change"}, {"time": 17210, "annotation": {"number": 11, "value": 19}, "group": "control_change"}, {"time": 17251, "annotation": {"number": 11, "value": 18}, "group": "control_change"}, {"time": 17291, "annotation": {"number": 11, "value": 16}, "group": "control_change"}, {"time": 17331, "annotation": {"number": 11, "value": 15}, "group": "control_change"}, {"time": 17371, "annotation": {"number": 11, "value": 14}, "group": "control_change"}, {"time": 17411, "annotation": {"number": 11, "value": 12}, "group": "control_change"}, {"time": 17451, "annotation": {"number": 11, "value": 11}, "group": "control_change"}, {"time": 17491, "annotation": {"number": 11, "value": 10}, "group": "control_change"}, {"time": 17531, "annotation": {"number": 11, "value": 8}, "group": "control_change"}, {"time": 17571, "annotation": {"number": 11, "value": 7}, "group": "control_change"}, {"time": 17612, "annotation": {"number": 11, "value": 6}, "group": "control_change"}, {"time": 17652, "annotation": {"number": 11, "value": 4}, "group": "control_change"}, {"time": 17692, "annotation": {"number": 11, "value": 3}, "group": "control_change"}, {"time": 17732, "annotation": {"number": 11, "value": 2}, "group": "control_change"}, {"time": 17762, "annotation": {"number": 11, "value": 0}, "group": "control_change"}, {"time": 44643, "annotation": {"number": 10, "value": 10}, "group": "control_change"}, {"time": 44643, "annotation": {"number": 11, "value": 34}, "group": "control_change"}, {"time": 44683, "annotation": {"number": 11, "value": 36}, "group": "control_change"}, {"time": 44722, "annotation": {"number": 11, "value": 39}, "group": "control_change"}, {"time": 44762, "annotation": {"number": 10, "value": 20}, "group": "control_change"}, {"time": 44762, "annotation": {"number": 11, "value": 42}, "group": "control_change"}, {"time": 44801, "annotation": {"number": 11, "value": 45}, "group": "control_change"}, {"time": 44841, "annotation": {"number": 11, "value": 48}, "group": "control_change"}, {"time": 44880, "annotation": {"number": 10, "value": 30}, "group": "control_change"}, {"time": 44880, "annotation": {"number": 11, "value": 51}, "group": "control_change"}, {"time": 44920, "annotation": {"number": 11, "value": 54}, "group": "control_change"}, {"time": 44959, "annotation": {"number": 11, "value": 57}, "group": "control_change"}, {"time": 44999, "annotation": {"number": 10, "value": 40}, "group": "control_change"}, {"time": 44999, "annotation": {"number": 11, "value": 60}, "group": "control_change"}, {"time": 45038, "annotation": {"number": 11, "value": 63}, "group": "control_change"}, {"time": 45078, "annotation": {"number": 11, "value": 66}, "group": "control_change"}, {"time": 45117, "annotation": {"number": 10, "value": 50}, "group": "control_change"}, {"time": 45117, "annotation": {"number": 11, "value": 68}, "group": "control_change"}, {"time": 45158, "annotation": {"number": 11, "value": 71}, "group": "control_change"}, {"time": 45198, "annotation": {"number": 11, "value": 74}, "group": "control_change"}, {"time": 45238, "annotation": {"number": 10, "value": 60}, "group": "control_change"}, {"time": 45238, "annotation": {"number": 11, "value": 77}, "group": "control_change"}, {"time": 45278, "annotation": {"number": 11, "value": 80}, "group": "control_change"}, {"time": 45318, "annotation": {"number": 11, "value": 83}, "group": "control_change"}, {"time": 45358, "annotation": {"number": 10, "value": 70}, "group": "control_change"}, {"time": 45358, "annotation": {"number": 11, "value": 86}, "group": "control_change"}, {"time": 45398, "annotation": {"number": 11, "value": 89}, "group": "control_change"}, {"time": 45408, "annotation": {"number": 11, "value": 90}, "group": "control_change"}, {"time": 45468, "annotation": {"number": 10, "value": 80}, "group": "control_change"}, {"time": 45488, "annotation": {"number": 11, "value": 89}, "group": "control_change"}, {"time": 45529, "annotation": {"number": 11, "value": 88}, "group": "control_change"}, {"time": 45609, "annotation": {"number": 10, "value": 90}, "group": "control_change"}, {"time": 45609, "annotation": {"number": 11, "value": 87}, "group": "control_change"}, {"time": 45649, "annotation": {"number": 11, "value": 86}, "group": "control_change"}, {"time": 45689, "annotation": {"number": 11, "value": 85}, "group": "control_change"}, {"time": 45739, "annotation": {"number": 10, "value": 100}, "group": "control_change"}, {"time": 45769, "annotation": {"number": 11, "value": 84}, "group": "control_change"}, {"time": 45809, "annotation": {"number": 11, "value": 83}, "group": "control_change"}, {"time": 45849, "annotation": {"number": 10, "value": 105}, "group": "control_change"}, {"time": 45849, "annotation": {"number": 11, "value": 82}, "group": "control_change"}, {"time": 45930, "annotation": {"number": 11, "value": 81}, "group": "control_change"}, {"time": 45970, "annotation": {"number": 10, "value": 110}, "group": "control_change"}, {"time": 45970, "annotation": {"number": 11, "value": 80}, "group": "control_change"}, {"time": 46050, "annotation": {"number": 11, "value": 79}, "group": "control_change"}, {"time": 46090, "annotation": {"number": 10, "value": 115}, "group": "control_change"}, {"time": 46090, "annotation": {"number": 11, "value": 78}, "group": "control_change"}, {"time": 46130, "annotation": {"number": 11, "value": 77}, "group": "control_change"}, {"time": 46210, "annotation": {"number": 11, "value": 77}, "group": "control_change"}, {"time": 46210, "annotation": {"number": 10, "value": 120}, "group": "control_change"}, {"time": 46250, "annotation": {"number": 11, "value": 76}, "group": "control_change"}, {"time": 46291, "annotation": {"number": 10, "value": 125}, "group": "control_change"}, {"time": 46291, "annotation": {"number": 11, "value": 75}, "group": "control_change"}, {"time": 46331, "annotation": {"number": 11, "value": 73}, "group": "control_change"}, {"time": 46371, "annotation": {"number": 11, "value": 72}, "group": "control_change"}, {"time": 46411, "annotation": {"number": 11, "value": 71}, "group": "control_change"}, {"time": 46451, "annotation": {"number": 11, "value": 69}, "group": "control_change"}, {"time": 46491, "annotation": {"number": 11, "value": 68}, "group": "control_change"}, {"time": 46531, "annotation": {"number": 11, "value": 67}, "group": "control_change"}, {"time": 46571, "annotation": {"number": 11, "value": 65}, "group": "control_change"}, {"time": 46611, "annotation": {"number": 11, "value": 64}, "group": "control_change"}, {"time": 46652, "annotation": {"number": 11, "value": 63}, "group": "control_change"}, {"time": 46692, "annotation": {"number": 11, "value": 61}, "group": "control_change"}, {"time": 46732, "annotation": {"number": 11, "value": 60}, "group": "control_change"}, {"time": 46772, "annotation": {"number": 11, "value": 59}, "group": "control_change"}, {"time": 46812, "annotation": {"number": 11, "value": 57}, "group": "control_change"}, {"time": 46852, "annotation": {"number": 11, "value": 56}, "group": "control_change"}, {"time": 46892, "annotation": {"number": 11, "value": 54}, "group": "control_change"}, {"time": 46932, "annotation": {"number": 11, "value": 53}, "group": "control_change"}, {"time": 46972, "annotation": {"number": 11, "value": 52}, "group": "control_change"}, {"time": 47012, "annotation": {"number": 11, "value": 50}, "group": "control_change"}, {"time": 47052, "annotation": {"number": 11, "value": 49}, "group": "control_change"}, {"time": 47092, "annotation": {"number": 11, "value": 48}, "group": "control_change"}, {"time": 47131, "annotation": {"number": 11, "value": 46}, "group": "control_change"}, {"time": 47171, "annotation": {"number": 11, "value": 45}, "group": "control_change"}, {"time": 47211, "annotation": {"number": 11, "value": 44}, "group": "control_change"}, {"time": 47250, "annotation": {"number": 11, "value": 42}, "group": "control_change"}, {"time": 47290, "annotation": {"number": 11, "value": 41}, "group": "control_change"}, {"time": 47329, "annotation": {"number": 11, "value": 40}, "group": "control_change"}, {"time": 47369, "annotation": {"number": 11, "value": 38}, "group": "control_change"}, {"time": 47408, "annotation": {"number": 11, "value": 37}, "group": "control_change"}, {"time": 47448, "annotation": {"number": 11, "value": 35}, "group": "control_change"}, {"time": 47487, "annotation": {"number": 11, "value": 34}, "group": "control_change"}, {"time": 47527, "annotation": {"number": 11, "value": 33}, "group": "control_change"}, {"time": 47567, "annotation": {"number": 11, "value": 31}, "group": "control_change"}, {"time": 47607, "annotation": {"number": 11, "value": 30}, "group": "control_change"}, {"time": 47647, "annotation": {"number": 11, "value": 29}, "group": "control_change"}, {"time": 47687, "annotation": {"number": 11, "value": 27}, "group": "control_change"}, {"time": 47727, "annotation": {"number": 11, "value": 26}, "group": "control_change"}, {"time": 47767, "annotation": {"number": 11, "value": 25}, "group": "control_change"}, {"time": 47808, "annotation": {"number": 11, "value": 23}, "group": "control_change"}, {"time": 47848, "annotation": {"number": 11, "value": 22}, "group": "control_change"}, {"time": 47888, "annotation": {"number": 11, "value": 21}, "group": "control_change"}, {"time": 47928, "annotation": {"number": 11, "value": 19}, "group": "control_change"}, {"time": 47968, "annotation": {"number": 11, "value": 18}, "group": "control_change"}, {"time": 48008, "annotation": {"number": 11, "value": 16}, "group": "control_change"}, {"time": 48048, "annotation": {"number": 11, "value": 15}, "group": "control_change"}, {"time": 48088, "annotation": {"number": 11, "value": 14}, "group": "control_change"}, {"time": 48128, "annotation": {"number": 11, "value": 12}, "group": "control_change"}, {"time": 48169, "annotation": {"number": 11, "value": 11}, "group": "control_change"}, {"time": 48209, "annotation": {"number": 11, "value": 10}, "group": "control_change"}, {"time": 48249, "annotation": {"number": 11, "value": 8}, "group": "control_change"}, {"time": 48289, "annotation": {"number": 11, "value": 7}, "group": "control_change"}, {"time": 48329, "annotation": {"number": 11, "value": 6}, "group": "control_change"}, {"time": 48369, "annotation": {"number": 11, "value": 4}, "group": "control_change"}, {"time": 48409, "annotation": {"number": 11, "value": 3}, "group": "control_change"}, {"time": 48449, "annotation": {"number": 11, "value": 2}, "group": "control_change"}, {"time": 48479, "annotation": {"number": 11, "value": 0}, "group": "control_change"}, {"time": 88801, "annotation": {"number": 10, "value": 10}, "group": "control_change"}, {"time": 88801, "annotation": {"number": 11, "value": 34}, "group": "control_change"}, {"time": 88841, "annotation": {"number": 11, "value": 36}, "group": "control_change"}, {"time": 88881, "annotation": {"number": 11, "value": 39}, "group": "control_change"}, {"time": 88922, "annotation": {"number": 10, "value": 20}, "group": "control_change"}, {"time": 88922, "annotation": {"number": 11, "value": 42}, "group": "control_change"}, {"time": 88962, "annotation": {"number": 11, "value": 45}, "group": "control_change"}, {"time": 89002, "annotation": {"number": 11, "value": 48}, "group": "control_change"}, {"time": 89042, "annotation": {"number": 10, "value": 30}, "group": "control_change"}, {"time": 89042, "annotation": {"number": 11, "value": 51}, "group": "control_change"}, {"time": 89082, "annotation": {"number": 11, "value": 54}, "group": "control_change"}, {"time": 89122, "annotation": {"number": 11, "value": 57}, "group": "control_change"}, {"time": 89162, "annotation": {"number": 10, "value": 40}, "group": "control_change"}, {"time": 89162, "annotation": {"number": 11, "value": 60}, "group": "control_change"}, {"time": 89202, "annotation": {"number": 11, "value": 63}, "group": "control_change"}, {"time": 89242, "annotation": {"number": 11, "value": 66}, "group": "control_change"}, {"time": 89283, "annotation": {"number": 10, "value": 50}, "group": "control_change"}, {"time": 89283, "annotation": {"number": 11, "value": 68}, "group": "control_change"}, {"time": 89322, "annotation": {"number": 11, "value": 71}, "group": "control_change"}, {"time": 89362, "annotation": {"number": 11, "value": 74}, "group": "control_change"}, {"time": 89401, "annotation": {"number": 10, "value": 60}, "group": "control_change"}, {"time": 89401, "annotation": {"number": 11, "value": 77}, "group": "control_change"}, {"time": 89441, "annotation": {"number": 11, "value": 80}, "group": "control_change"}, {"time": 89480, "annotation": {"number": 11, "value": 83}, "group": "control_change"}, {"time": 89520, "annotation": {"number": 10, "value": 70}, "group": "control_change"}, {"time": 89520, "annotation": {"number": 11, "value": 86}, "group": "control_change"}, {"time": 89559, "annotation": {"number": 11, "value": 89}, "group": "control_change"}, {"time": 89569, "annotation": {"number": 11, "value": 90}, "group": "control_change"}, {"time": 89628, "annotation": {"number": 10, "value": 80}, "group": "control_change"}, {"time": 89648, "annotation": {"number": 11, "value": 89}, "group": "control_change"}, {"time": 89688, "annotation": {"number": 11, "value": 88}, "group": "control_change"}, {"time": 89767, "annotation": {"number": 10, "value": 90}, "group": "control_change"}, {"time": 89767, "annotation": {"number": 11, "value": 87}, "group": "control_change"}, {"time": 89807, "annotation": {"number": 11, "value": 86}, "group": "control_change"}, {"time": 89847, "annotation": {"number": 11, "value": 85}, "group": "control_change"}, {"time": 89897, "annotation": {"number": 10, "value": 100}, "group": "control_change"}, {"time": 89927, "annotation": {"number": 11, "value": 84}, "group": "control_change"}, {"time": 89967, "annotation": {"number": 11, "value": 83}, "group": "control_change"}, {"time": 90007, "annotation": {"number": 10, "value": 105}, "group": "control_change"}, {"time": 90007, "annotation": {"number": 11, "value": 82}, "group": "control_change"}, {"time": 90088, "annotation": {"number": 11, "value": 81}, "group": "control_change"}, {"time": 90128, "annotation": {"number": 10, "value": 110}, "group": "control_change"}, {"time": 90128, "annotation": {"number": 11, "value": 80}, "group": "control_change"}, {"time": 90208, "annotation": {"number": 11, "value": 79}, "group": "control_change"}, {"time": 90238, "annotation": {"number": 11, "value": 79}, "group": "control_change"}, {"time": 90238, "annotation": {"number": 10, "value": 115}, "group": "control_change"}, {"time": 90278, "annotation": {"number": 11, "value": 78}, "group": "control_change"}, {"time": 90318, "annotation": {"number": 11, "value": 76}, "group": "control_change"}, {"time": 90358, "annotation": {"number": 10, "value": 120}, "group": "control_change"}, {"time": 90358, "annotation": {"number": 11, "value": 75}, "group": "control_change"}, {"time": 90398, "annotation": {"number": 11, "value": 73}, "group": "control_change"}, {"time": 90439, "annotation": {"number": 10, "value": 125}, "group": "control_change"}, {"time": 90439, "annotation": {"number": 11, "value": 71}, "group": "control_change"}, {"time": 90479, "annotation": {"number": 11, "value": 70}, "group": "control_change"}, {"time": 90519, "annotation": {"number": 11, "value": 68}, "group": "control_change"}, {"time": 90559, "annotation": {"number": 11, "value": 66}, "group": "control_change"}, {"time": 90599, "annotation": {"number": 11, "value": 65}, "group": "control_change"}, {"time": 90639, "annotation": {"number": 11, "value": 63}, "group": "control_change"}, {"time": 90679, "annotation": {"number": 11, "value": 61}, "group": "control_change"}, {"time": 90719, "annotation": {"number": 11, "value": 60}, "group": "control_change"}, {"time": 90759, "annotation": {"number": 11, "value": 58}, "group": "control_change"}, {"time": 90800, "annotation": {"number": 11, "value": 56}, "group": "control_change"}, {"time": 90840, "annotation": {"number": 11, "value": 55}, "group": "control_change"}, {"time": 90880, "annotation": {"number": 11, "value": 53}, "group": "control_change"}, {"time": 90920, "annotation": {"number": 11, "value": 52}, "group": "control_change"}, {"time": 90960, "annotation": {"number": 11, "value": 50}, "group": "control_change"}, {"time": 91000, "annotation": {"number": 11, "value": 48}, "group": "control_change"}, {"time": 91040, "annotation": {"number": 11, "value": 47}, "group": "control_change"}, {"time": 91080, "annotation": {"number": 11, "value": 45}, "group": "control_change"}, {"time": 91120, "annotation": {"number": 11, "value": 43}, "group": "control_change"}, {"time": 91161, "annotation": {"number": 11, "value": 42}, "group": "control_change"}, {"time": 91201, "annotation": {"number": 11, "value": 40}, "group": "control_change"}, {"time": 91241, "annotation": {"number": 11, "value": 38}, "group": "control_change"}, {"time": 91281, "annotation": {"number": 11, "value": 37}, "group": "control_change"}, {"time": 91321, "annotation": {"number": 11, "value": 35}, "group": "control_change"}, {"time": 91361, "annotation": {"number": 11, "value": 33}, "group": "control_change"}, {"time": 91401, "annotation": {"number": 11, "value": 32}, "group": "control_change"}, {"time": 91441, "annotation": {"number": 11, "value": 30}, "group": "control_change"}, {"time": 91481, "annotation": {"number": 11, "value": 28}, "group": "control_change"}, {"time": 91521, "annotation": {"number": 11, "value": 27}, "group": "control_change"}, {"time": 91562, "annotation": {"number": 11, "value": 25}, "group": "control_change"}, {"time": 91602, "annotation": {"number": 11, "value": 24}, "group": "control_change"}, {"time": 91642, "annotation": {"number": 11, "value": 22}, "group": "control_change"}, {"time": 91682, "annotation": {"number": 11, "value": 20}, "group": "control_change"}, {"time": 91722, "annotation": {"number": 11, "value": 19}, "group": "control_change"}, {"time": 91762, "annotation": {"number": 11, "value": 17}, "group": "control_change"}, {"time": 91802, "annotation": {"number": 11, "value": 15}, "group": "control_change"}, {"time": 91842, "annotation": {"number": 11, "value": 14}, "group": "control_change"}, {"time": 91882, "annotation": {"number": 11, "value": 12}, "group": "control_change"}, {"time": 91923, "annotation": {"number": 11, "value": 10}, "group": "control_change"}, {"time": 91963, "annotation": {"number": 11, "value": 9}, "group": "control_change"}, {"time": 92003, "annotation": {"number": 11, "value": 7}, "group": "control_change"}, {"time": 92043, "annotation": {"number": 11, "value": 5}, "group": "control_change"}, {"time": 92083, "annotation": {"number": 11, "value": 4}, "group": "control_change"}, {"time": 92123, "annotation": {"number": 11, "value": 2}, "group": "control_change"}, {"time": 92163, "annotation": {"number": 11, "value": 0}, "group": "control_change"}, {"time": 120481, "annotation": {"number": 10, "value": 10}, "group": "control_change"}, {"time": 120481, "annotation": {"number": 11, "value": 34}, "group": "control_change"}, {"time": 120521, "annotation": {"number": 11, "value": 36}, "group": "control_change"}, {"time": 120561, "annotation": {"number": 11, "value": 39}, "group": "control_change"}, {"time": 120602, "annotation": {"number": 10, "value": 20}, "group": "control_change"}, {"time": 120602, "annotation": {"number": 11, "value": 42}, "group": "control_change"}, {"time": 120642, "annotation": {"number": 11, "value": 45}, "group": "control_change"}, {"time": 120682, "annotation": {"number": 11, "value": 48}, "group": "control_change"}, {"time": 120722, "annotation": {"number": 10, "value": 30}, "group": "control_change"}, {"time": 120722, "annotation": {"number": 11, "value": 51}, "group": "control_change"}, {"time": 120762, "annotation": {"number": 11, "value": 54}, "group": "control_change"}, {"time": 120802, "annotation": {"number": 11, "value": 57}, "group": "control_change"}, {"time": 120842, "annotation": {"number": 10, "value": 40}, "group": "control_change"}, {"time": 120842, "annotation": {"number": 11, "value": 60}, "group": "control_change"}, {"time": 120882, "annotation": {"number": 11, "value": 63}, "group": "control_change"}, {"time": 120922, "annotation": {"number": 11, "value": 66}, "group": "control_change"}, {"time": 120962, "annotation": {"number": 10, "value": 50}, "group": "control_change"}, {"time": 120962, "annotation": {"number": 11, "value": 68}, "group": "control_change"}, {"time": 121002, "annotation": {"number": 11, "value": 71}, "group": "control_change"}, {"time": 121042, "annotation": {"number": 11, "value": 74}, "group": "control_change"}, {"time": 121081, "annotation": {"number": 10, "value": 60}, "group": "control_change"}, {"time": 121081, "annotation": {"number": 11, "value": 77}, "group": "control_change"}, {"time": 121121, "annotation": {"number": 11, "value": 80}, "group": "control_change"}, {"time": 121160, "annotation": {"number": 11, "value": 83}, "group": "control_change"}, {"time": 121200, "annotation": {"number": 10, "value": 70}, "group": "control_change"}, {"time": 121200, "annotation": {"number": 11, "value": 86}, "group": "control_change"}, {"time": 121239, "annotation": {"number": 11, "value": 89}, "group": "control_change"}, {"time": 121249, "annotation": {"number": 11, "value": 90}, "group": "control_change"}, {"time": 121308, "annotation": {"number": 10, "value": 80}, "group": "control_change"}, {"time": 121328, "annotation": {"number": 11, "value": 89}, "group": "control_change"}, {"time": 121368, "annotation": {"number": 11, "value": 88}, "group": "control_change"}, {"time": 121437, "annotation": {"number": 11, "value": 88}, "group": "control_change"}, {"time": 121437, "annotation": {"number": 10, "value": 90}, "group": "control_change"}, {"time": 121477, "annotation": {"number": 11, "value": 87}, "group": "control_change"}, {"time": 121517, "annotation": {"number": 11, "value": 85}, "group": "control_change"}, {"time": 121557, "annotation": {"number": 11, "value": 83}, "group": "control_change"}, {"time": 121567, "annotation": {"number": 10, "value": 100}, "group": "control_change"}, {"time": 121597, "annotation": {"number": 11, "value": 81}, "group": "control_change"}, {"time": 121637, "annotation": {"number": 11, "value": 79}, "group": "control_change"}, {"time": 121677, "annotation": {"number": 10, "value": 105}, "group": "control_change"}, {"time": 121677, "annotation": {"number": 11, "value": 77}, "group": "control_change"}, {"time": 121718, "annotation": {"number": 11, "value": 76}, "group": "control_change"}, {"time": 121758, "annotation": {"number": 11, "value": 74}, "group": "control_change"}, {"time": 121798, "annotation": {"number": 10, "value": 110}, "group": "control_change"}, {"time": 121798, "annotation": {"number": 11, "value": 72}, "group": "control_change"}, {"time": 121838, "annotation": {"number": 11, "value": 70}, "group": "control_change"}, {"time": 121878, "annotation": {"number": 11, "value": 68}, "group": "control_change"}, {"time": 121908, "annotation": {"number": 10, "value": 115}, "group": "control_change"}, {"time": 121918, "annotation": {"number": 11, "value": 66}, "group": "control_change"}, {"time": 121958, "annotation": {"number": 11, "value": 65}, "group": "control_change"}, {"time": 121998, "annotation": {"number": 11, "value": 63}, "group": "control_change"}, {"time": 122028, "annotation": {"number": 10, "value": 120}, "group": "control_change"}, {"time": 122038, "annotation": {"number": 11, "value": 61}, "group": "control_change"}, {"time": 122078, "annotation": {"number": 11, "value": 59}, "group": "control_change"}, {"time": 122109, "annotation": {"number": 10, "value": 125}, "group": "control_change"}, {"time": 122119, "annotation": {"number": 11, "value": 57}, "group": "control_change"}, {"time": 122159, "annotation": {"number": 11, "value": 55}, "group": "control_change"}, {"time": 122199, "annotation": {"number": 11, "value": 53}, "group": "control_change"}, {"time": 122239, "annotation": {"number": 11, "value": 52}, "group": "control_change"}, {"time": 122279, "annotation": {"number": 11, "value": 50}, "group": "control_change"}, {"time": 122319, "annotation": {"number": 11, "value": 48}, "group": "control_change"}, {"time": 122359, "annotation": {"number": 11, "value": 46}, "group": "control_change"}, {"time": 122399, "annotation": {"number": 11, "value": 44}, "group": "control_change"}, {"time": 122439, "annotation": {"number": 11, "value": 42}, "group": "control_change"}, {"time": 122480, "annotation": {"number": 11, "value": 41}, "group": "control_change"}, {"time": 122520, "annotation": {"number": 11, "value": 39}, "group": "control_change"}, {"time": 122560, "annotation": {"number": 11, "value": 37}, "group": "control_change"}, {"time": 122600, "annotation": {"number": 11, "value": 35}, "group": "control_change"}, {"time": 122640, "annotation": {"number": 11, "value": 33}, "group": "control_change"}, {"time": 122680, "annotation": {"number": 11, "value": 31}, "group": "control_change"}, {"time": 122720, "annotation": {"number": 11, "value": 30}, "group": "control_change"}, {"time": 122760, "annotation": {"number": 11, "value": 28}, "group": "control_change"}, {"time": 122800, "annotation": {"number": 11, "value": 26}, "group": "control_change"}, {"time": 122841, "annotation": {"number": 11, "value": 24}, "group": "control_change"}, {"time": 122881, "annotation": {"number": 11, "value": 22}, "group": "control_change"}, {"time": 122921, "annotation": {"number": 11, "value": 20}, "group": "control_change"}, {"time": 122961, "annotation": {"number": 11, "value": 18}, "group": "control_change"}, {"time": 123001, "annotation": {"number": 11, "value": 17}, "group": "control_change"}, {"time": 123041, "annotation": {"number": 11, "value": 15}, "group": "control_change"}, {"time": 123081, "annotation": {"number": 11, "value": 13}, "group": "control_change"}, {"time": 123121, "annotation": {"number": 11, "value": 11}, "group": "control_change"}, {"time": 123161, "annotation": {"number": 11, "value": 9}, "group": "control_change"}, {"time": 123201, "annotation": {"number": 11, "value": 7}, "group": "control_change"}, {"time": 123242, "annotation": {"number": 11, "value": 6}, "group": "control_change"}, {"time": 123282, "annotation": {"number": 11, "value": 4}, "group": "control_change"}, {"time": 123322, "annotation": {"number": 11, "value": 2}, "group": "control_change"}, {"time": 123352, "annotation": {"number": 11, "value": 0}, "group": "control_change"}, {"time": 158387, "annotation": {"number": 10, "value": 10}, "group": "control_change"}, {"time": 158387, "annotation": {"number": 11, "value": 34}, "group": "control_change"}, {"time": 158427, "annotation": {"number": 11, "value": 36}, "group": "control_change"}, {"time": 158467, "annotation": {"number": 11, "value": 39}, "group": "control_change"}, {"time": 158507, "annotation": {"number": 10, "value": 20}, "group": "control_change"}, {"time": 158507, "annotation": {"number": 11, "value": 42}, "group": "control_change"}, {"time": 158547, "annotation": {"number": 11, "value": 45}, "group": "control_change"}, {"time": 158587, "annotation": {"number": 11, "value": 48}, "group": "control_change"}, {"time": 158627, "annotation": {"number": 10, "value": 30}, "group": "control_change"}, {"time": 158627, "annotation": {"number": 11, "value": 51}, "group": "control_change"}, {"time": 158667, "annotation": {"number": 11, "value": 54}, "group": "control_change"}, {"time": 158708, "annotation": {"number": 11, "value": 57}, "group": "control_change"}, {"time": 158748, "annotation": {"number": 10, "value": 40}, "group": "control_change"}, {"time": 158748, "annotation": {"number": 11, "value": 60}, "group": "control_change"}, {"time": 158788, "annotation": {"number": 11, "value": 63}, "group": "control_change"}, {"time": 158828, "annotation": {"number": 11, "value": 66}, "group": "control_change"}, {"time": 158868, "annotation": {"number": 10, "value": 50}, "group": "control_change"}, {"time": 158868, "annotation": {"number": 11, "value": 68}, "group": "control_change"}, {"time": 158908, "annotation": {"number": 11, "value": 71}, "group": "control_change"}, {"time": 158948, "annotation": {"number": 11, "value": 74}, "group": "control_change"}, {"time": 158988, "annotation": {"number": 10, "value": 60}, "group": "control_change"}, {"time": 158988, "annotation": {"number": 11, "value": 77}, "group": "control_change"}, {"time": 159028, "annotation": {"number": 11, "value": 80}, "group": "control_change"}, {"time": 159069, "annotation": {"number": 11, "value": 83}, "group": "control_change"}, {"time": 159109, "annotation": {"number": 10, "value": 70}, "group": "control_change"}, {"time": 159109, "annotation": {"number": 11, "value": 86}, "group": "control_change"}, {"time": 159149, "annotation": {"number": 11, "value": 89}, "group": "control_change"}, {"time": 159159, "annotation": {"number": 11, "value": 90}, "group": "control_change"}, {"time": 159219, "annotation": {"number": 10, "value": 80}, "group": "control_change"}, {"time": 159239, "annotation": {"number": 11, "value": 89}, "group": "control_change"}, {"time": 159279, "annotation": {"number": 11, "value": 88}, "group": "control_change"}, {"time": 159359, "annotation": {"number": 10, "value": 90}, "group": "control_change"}, {"time": 159359, "annotation": {"number": 11, "value": 87}, "group": "control_change"}, {"time": 159399, "annotation": {"number": 11, "value": 86}, "group": "control_change"}, {"time": 159440, "annotation": {"number": 11, "value": 85}, "group": "control_change"}, {"time": 159490, "annotation": {"number": 10, "value": 100}, "group": "control_change"}, {"time": 159520, "annotation": {"number": 11, "value": 84}, "group": "control_change"}, {"time": 159560, "annotation": {"number": 11, "value": 83}, "group": "control_change"}, {"time": 159600, "annotation": {"number": 10, "value": 105}, "group": "control_change"}, {"time": 159600, "annotation": {"number": 11, "value": 82}, "group": "control_change"}, {"time": 159680, "annotation": {"number": 11, "value": 81}, "group": "control_change"}, {"time": 159720, "annotation": {"number": 10, "value": 110}, "group": "control_change"}, {"time": 159720, "annotation": {"number": 11, "value": 80}, "group": "control_change"}, {"time": 159800, "annotation": {"number": 11, "value": 79}, "group": "control_change"}, {"time": 159831, "annotation": {"number": 11, "value": 79}, "group": "control_change"}, {"time": 159831, "annotation": {"number": 10, "value": 115}, "group": "control_change"}, {"time": 159871, "annotation": {"number": 11, "value": 78}, "group": "control_change"}, {"time": 159911, "annotation": {"number": 11, "value": 76}, "group": "control_change"}, {"time": 159951, "annotation": {"number": 10, "value": 120}, "group": "control_change"}, {"time": 159951, "annotation": {"number": 11, "value": 75}, "group": "control_change"}, {"time": 159991, "annotation": {"number": 11, "value": 73}, "group": "control_change"}, {"time": 160031, "annotation": {"number": 10, "value": 125}, "group": "control_change"}, {"time": 160031, "annotation": {"number": 11, "value": 71}, "group": "control_change"}, {"time": 160071, "annotation": {"number": 11, "value": 70}, "group": "control_change"}, {"time": 160111, "annotation": {"number": 11, "value": 68}, "group": "control_change"}, {"time": 160151, "annotation": {"number": 11, "value": 66}, "group": "control_change"}, {"time": 160192, "annotation": {"number": 11, "value": 65}, "group": "control_change"}, {"time": 160232, "annotation": {"number": 11, "value": 63}, "group": "control_change"}, {"time": 160272, "annotation": {"number": 11, "value": 61}, "group": "control_change"}, {"time": 160312, "annotation": {"number": 11, "value": 60}, "group": "control_change"}, {"time": 160352, "annotation": {"number": 11, "value": 58}, "group": "control_change"}, {"time": 160392, "annotation": {"number": 11, "value": 56}, "group": "control_change"}, {"time": 160432, "annotation": {"number": 11, "value": 55}, "group": "control_change"}, {"time": 160472, "annotation": {"number": 11, "value": 53}, "group": "control_change"}, {"time": 160512, "annotation": {"number": 11, "value": 52}, "group": "control_change"}, {"time": 160552, "annotation": {"number": 11, "value": 50}, "group": "control_change"}, {"time": 160593, "annotation": {"number": 11, "value": 48}, "group": "control_change"}, {"time": 160633, "annotation": {"number": 11, "value": 47}, "group": "control_change"}, {"time": 160673, "annotation": {"number": 11, "value": 45}, "group": "control_change"}, {"time": 160713, "annotation": {"number": 11, "value": 43}, "group": "control_change"}, {"time": 160753, "annotation": {"number": 11, "value": 42}, "group": "control_change"}, {"time": 160793, "annotation": {"number": 11, "value": 40}, "group": "control_change"}, {"time": 160833, "annotation": {"number": 11, "value": 38}, "group": "control_change"}, {"time": 160872, "annotation": {"number": 11, "value": 37}, "group": "control_change"}, {"time": 160912, "annotation": {"number": 11, "value": 35}, "group": "control_change"}, {"time": 160951, "annotation": {"number": 11, "value": 33}, "group": "control_change"}, {"time": 160991, "annotation": {"number": 11, "value": 32}, "group": "control_change"}, {"time": 161030, "annotation": {"number": 11, "value": 30}, "group": "control_change"}, {"time": 161070, "annotation": {"number": 11, "value": 28}, "group": "control_change"}, {"time": 161109, "annotation": {"number": 11, "value": 27}, "group": "control_change"}, {"time": 161149, "annotation": {"number": 11, "value": 25}, "group": "control_change"}, {"time": 161188, "annotation": {"number": 11, "value": 24}, "group": "control_change"}, {"time": 161228, "annotation": {"number": 11, "value": 22}, "group": "control_change"}, {"time": 161268, "annotation": {"number": 11, "value": 20}, "group": "control_change"}, {"time": 161307, "annotation": {"number": 11, "value": 19}, "group": "control_change"}, {"time": 161348, "annotation": {"number": 11, "value": 17}, "group": "control_change"}, {"time": 161388, "annotation": {"number": 11, "value": 15}, "group": "control_change"}, {"time": 161428, "annotation": {"number": 11, "value": 14}, "group": "control_change"}, {"time": 161468, "annotation": {"number": 11, "value": 12}, "group": "control_change"}, {"time": 161508, "annotation": {"number": 11, "value": 10}, "group": "control_change"}, {"time": 161548, "annotation": {"number": 11, "value": 9}, "group": "control_change"}, {"time": 161588, "annotation": {"number": 11, "value": 7}, "group": "control_change"}, {"time": 161628, "annotation": {"number": 11, "value": 5}, "group": "control_change"}, {"time": 161668, "annotation": {"number": 11, "value": 4}, "group": "control_change"}, {"time": 161709, "annotation": {"number": 11, "value": 2}, "group": "control_change"}, {"time": 161749, "annotation": {"number": 11, "value": 0}, "group": "control_change"}]}, {"program": 0, "is_drum": false, "name": "Pad", "annotations": [{"time": 287, "annotation": {"number": 0, "value": 0}, "group": "control_change"}, {"time": 303, "annotation": {"number": 32, "value": 2}, "group": "control_change"}]}, {"program": 89, "is_drum": false, "name": "Pad", "notes": [{"time": 4331, "pitch": 56, "duration": 916, "velocity": 50}, {"time": 4331, "pitch": 60, "duration": 916, "velocity": 50}, {"time": 4331, "pitch": 63, "duration": 916, "velocity": 50}, {"time": 5267, "pitch": 58, "duration": 922, "velocity": 50}, {"time": 5267, "pitch": 61, "duration": 922, "velocity": 50}, {"time": 5267, "pitch": 65, "duration": 922, "velocity": 50}, {"time": 6229, "pitch": 60, "duration": 923, "velocity": 50}, {"time": 6229, "pitch": 63, "duration": 923, "velocity": 50}, {"time": 6229, "pitch": 67, "duration": 923, "velocity": 50}, {"time": 7192, "pitch": 58, "duration": 916, "velocity": 50}, {"time": 7192, "pitch": 61, "duration": 916, "velocity": 50}, {"time": 7192, "pitch": 65, "duration": 916, "velocity": 50}, {"time": 8148, "pitch": 56, "duration": 922, "velocity": 50}, {"time": 8148, "pitch": 60, "duration": 922, "velocity": 50}, {"time": 8148, "pitch": 63, "duration": 922, "velocity": 50}, {"time": 9110, "pitch": 58, "duration": 922, "velocity": 50}, {"time": 9110, "pitch": 61, "duration": 922, "velocity": 50}, {"time": 9110, "pitch": 65, "duration": 922, "velocity": 50}, {"time": 10073, "pitch": 60, "duration": 915, "velocity": 50}, {"time": 10073, "pitch": 63, "duration": 915, "velocity": 50}, {"time": 10073, "pitch": 67, "duration": 915, "velocity": 50}, {"time": 11028, "pitch": 58, "duration": 4779, "velocity": 50}, {"time": 11028, "pitch": 61, "duration": 4779, "velocity": 50}, {"time": 11028, "pitch": 65, "duration": 4779, "velocity": 50}, {"time": 15827, "pitch": 56, "duration": 922, "velocity": 50}, {"time": 15827, "pitch": 60, "duration": 922, "velocity": 50}, {"time": 15827, "pitch": 63, "duration": 922, "velocity": 50}, {"time": 16789, "pitch": 58, "duration": 923, "velocity": 50}, {"time": 16789, "pitch": 61, "duration": 923, "velocity": 50}, {"time": 16789, "pitch": 65, "duration": 923, "velocity": 50}, {"time": 17752, "pitch": 60, "duration": 916, "velocity": 50}, {"time": 17752, "pitch": 63, "duration": 916, "velocity": 50}, {"time": 17752, "pitch": 67, "duration": 916, "velocity": 50}, {"time": 18708, "pitch": 60, "duration": 922, "velocity": 50}, {"time": 18708, "pitch": 63, "duration": 892, "velocity": 50}, {"time": 18708, "pitch": 65, "duration": 952, "velocity": 50}, {"time": 19670, "pitch": 58, "duration": 922, "velocity": 50}, {"time": 19670, "pitch": 61, "duration": 922, "velocity": 50}, {"time": 19670, "pitch": 65, "duration": 922, "velocity": 50}, {"time": 20633, "pitch": 63, "duration": 444, "velocity": 50}, {"time": 20633, "pitch": 67, "duration": 444, "velocity": 50}, {"time": 21107, "pitch": 58, "duration": 451, "velocity": 50}, {"time": 21107, "pitch": 65, "duration": 451, "velocity": 50}, {"time": 21588, "pitch": 60, "duration": 923, "velocity": 50}, {"time": 21588, "pitch": 63, "duration": 923, "velocity": 50}, {"time": 21588, "pitch": 67, "duration": 923, "velocity": 50}, {"time": 22551, "pitch": 60, "duration": 922, "velocity": 50}, {"time": 22551, "pitch": 63, "duration": 922, "velocity": 50}, {"time": 22551, "pitch": 65, "duration": 922, "velocity": 50}, {"time": 23513, "pitch": 58, "duration": 916, "velocity": 50}, {"time": 23513, "pitch": 61, "duration": 916, "velocity": 50}, {"time": 23513, "pitch": 65, "duration": 916, "velocity": 50}, {"time": 24469, "pitch": 58, "duration": 451, "velocity": 50}, {"time": 24469, "pitch": 61, "duration": 451, "velocity": 50}, {"time": 24469, "pitch": 67, "duration": 451, "velocity": 50}, {"time": 24950, "pitch": 58, "duration": 451, "velocity": 50}, {"time": 24950, "pitch": 60, "duration": 451, "velocity": 50}, {"time": 24950, "pitch": 64, "duration": 451, "velocity": 50}, {"time": 25431, "pitch": 60, "duration": 1898, "velocity": 50}, {"time": 25431, "pitch": 63, "duration": 1898, "velocity": 50}, {"time": 25431, "pitch": 65, "duration": 1898, "velocity": 50}, {"time": 27349, "pitch": 58, "duration": 923, "velocity": 50}, {"time": 27349, "pitch": 61, "duration": 923, "velocity": 50}, {"time": 27349, "pitch": 65, "duration": 923, "velocity": 50}, {"time": 28312, "pitch": 58, "duration": 451, "velocity": 50}, {"time": 28312, "pitch": 67, "duration": 451, "velocity": 50}, {"time": 28793, "pitch": 56, "duration": 445, "velocity": 50}, {"time": 28793, "pitch": 65, "duration": 445, "velocity": 50}, {"time": 29268, "pitch": 61, "duration": 922, "velocity": 50}, {"time": 29268, "pitch": 65, "duration": 922, "velocity": 50}, {"time": 29268, "pitch": 68, "duration": 922, "velocity": 50}, {"time": 30230, "pitch": 60, "duration": 451, "velocity": 50}, {"time": 30230, "pitch": 63, "duration": 451, "velocity": 50}, {"time": 30230, "pitch": 67, "duration": 451, "velocity": 50}, {"time": 30711, "pitch": 58, "duration": 451, "velocity": 50}, {"time": 30711, "pitch": 61, "duration": 451, "velocity": 50}, {"time": 30711, "pitch": 65, "duration": 451, "velocity": 50}, {"time": 31193, "pitch": 56, "duration": 915, "velocity": 50}, {"time": 31193, "pitch": 60, "duration": 915, "velocity": 50}, {"time": 31193, "pitch": 63, "duration": 915, "velocity": 50}, {"time": 32148, "pitch": 58, "duration": 922, "velocity": 50}, {"time": 32148, "pitch": 61, "duration": 922, "velocity": 50}, {"time": 32148, "pitch": 65, "duration": 922, "velocity": 50}, {"time": 33111, "pitch": 60, "duration": 922, "velocity": 50}, {"time": 33111, "pitch": 63, "duration": 922, "velocity": 50}, {"time": 33111, "pitch": 67, "duration": 922, "velocity": 50}, {"time": 34073, "pitch": 60, "duration": 916, "velocity": 50}, {"time": 34073, "pitch": 63, "duration": 916, "velocity": 50}, {"time": 34073, "pitch": 65, "duration": 916, "velocity": 50}, {"time": 35029, "pitch": 58, "duration": 922, "velocity": 50}, {"time": 35029, "pitch": 61, "duration": 922, "velocity": 50}, {"time": 35029, "pitch": 65, "duration": 922, "velocity": 50}, {"time": 35991, "pitch": 63, "duration": 451, "velocity": 50}, {"time": 35991, "pitch": 67, "duration": 451, "velocity": 50}, {"time": 36473, "pitch": 58, "duration": 444, "velocity": 50}, {"time": 36473, "pitch": 65, "duration": 444, "velocity": 50}, {"time": 36947, "pitch": 60, "duration": 922, "velocity": 50}, {"time": 36947, "pitch": 63, "duration": 922, "velocity": 50}, {"time": 36947, "pitch": 67, "duration": 922, "velocity": 50}, {"time": 37909, "pitch": 60, "duration": 923, "velocity": 50}, {"time": 37909, "pitch": 63, "duration": 923, "velocity": 50}, {"time": 37909, "pitch": 65, "duration": 923, "velocity": 50}, {"time": 38872, "pitch": 58, "duration": 916, "velocity": 50}, {"time": 38872, "pitch": 61, "duration": 916, "velocity": 50}, {"time": 38872, "pitch": 65, "duration": 916, "velocity": 50}, {"time": 39828, "pitch": 58, "duration": 922, "velocity": 50}, {"time": 39828, "pitch": 63, "duration": 922, "velocity": 50}, {"time": 39828, "pitch": 67, "duration": 922, "velocity": 50}, {"time": 40790, "pitch": 56, "duration": 922, "velocity": 50}, {"time": 40790, "pitch": 60, "duration": 922, "velocity": 50}, {"time": 40790, "pitch": 63, "duration": 922, "velocity": 50}, {"time": 41753, "pitch": 60, "duration": 915, "velocity": 50}, {"time": 41753, "pitch": 63, "duration": 915, "velocity": 50}, {"time": 41753, "pitch": 65, "duration": 915, "velocity": 50}, {"time": 42708, "pitch": 58, "duration": 922, "velocity": 50}, {"time": 42708, "pitch": 61, "duration": 922, "velocity": 50}, {"time": 42708, "pitch": 65, "duration": 922, "velocity": 50}, {"time": 43671, "pitch": 61, "duration": 922, "velocity": 50}, {"time": 43671, "pitch": 64, "duration": 922, "velocity": 50}, {"time": 43671, "pitch": 68, "duration": 922, "velocity": 50}, {"time": 44633, "pitch": 56, "duration": 1898, "velocity": 50}, {"time": 44633, "pitch": 60, "duration": 1898, "velocity": 50}, {"time": 44633, "pitch": 63, "duration": 1898, "velocity": 50}, {"time": 46551, "pitch": 58, "duration": 1898, "velocity": 50}, {"time": 46551, "pitch": 61, "duration": 1898, "velocity": 50}, {"time": 46551, "pitch": 65, "duration": 1898, "velocity": 50}, {"time": 48469, "pitch": 60, "duration": 1899, "velocity": 50}, {"time": 48469, "pitch": 63, "duration": 1899, "velocity": 50}, {"time": 48469, "pitch": 67, "duration": 1899, "velocity": 50}, {"time": 50388, "pitch": 58, "duration": 1904, "velocity": 50}, {"time": 50388, "pitch": 61, "duration": 1904, "velocity": 50}, {"time": 50388, "pitch": 65, "duration": 1904, "velocity": 50}, {"time": 52313, "pitch": 58, "duration": 915, "velocity": 50}, {"time": 52313, "pitch": 61, "duration": 915, "velocity": 50}, {"time": 52313, "pitch": 65, "duration": 915, "velocity": 50}, {"time": 53268, "pitch": 58, "duration": 922, "velocity": 50}, {"time": 53268, "pitch": 60, "duration": 922, "velocity": 50}, {"time": 53268, "pitch": 64, "duration": 922, "velocity": 50}, {"time": 54231, "pitch": 60, "duration": 1898, "velocity": 50}, {"time": 54231, "pitch": 65, "duration": 1898, "velocity": 50}, {"time": 54231, "pitch": 68, "duration": 1898, "velocity": 50}, {"time": 56149, "pitch": 61, "duration": 922, "velocity": 50}, {"time": 56149, "pitch": 65, "duration": 922, "velocity": 50}, {"time": 56149, "pitch": 68, "duration": 922, "velocity": 50}, {"time": 57111, "pitch": 60, "duration": 451, "velocity": 50}, {"time": 57111, "pitch": 63, "duration": 451, "velocity": 50}, {"time": 57593, "pitch": 60, "duration": 444, "velocity": 50}, {"time": 57593, "pitch": 65, "duration": 444, "velocity": 50}, {"time": 58067, "pitch": 58, "duration": 1905, "velocity": 50}, {"time": 58067, "pitch": 61, "duration": 1905, "velocity": 50}, {"time": 58067, "pitch": 66, "duration": 1905, "velocity": 50}, {"time": 59992, "pitch": 61, "duration": 1898, "velocity": 50}, {"time": 59992, "pitch": 65, "duration": 1898, "velocity": 50}, {"time": 59992, "pitch": 68, "duration": 1898, "velocity": 50}, {"time": 61910, "pitch": 61, "duration": 1898, "velocity": 50}, {"time": 61910, "pitch": 65, "duration": 1898, "velocity": 50}, {"time": 61910, "pitch": 68, "duration": 1898, "velocity": 50}, {"time": 63828, "pitch": 60, "duration": 922, "velocity": 50}, {"time": 63828, "pitch": 63, "duration": 922, "velocity": 50}, {"time": 63828, "pitch": 68, "duration": 922, "velocity": 50}, {"time": 64791, "pitch": 60, "duration": 922, "velocity": 50}, {"time": 64791, "pitch": 64, "duration": 922, "velocity": 50}, {"time": 64791, "pitch": 67, "duration": 922, "velocity": 50}, {"time": 65753, "pitch": 60, "duration": 916, "velocity": 50}, {"time": 65753, "pitch": 65, "duration": 916, "velocity": 50}, {"time": 65753, "pitch": 68, "duration": 916, "velocity": 50}, {"time": 66709, "pitch": 60, "duration": 922, "velocity": 50}, {"time": 66709, "pitch": 63, "duration": 922, "velocity": 50}, {"time": 66709, "pitch": 67, "duration": 922, "velocity": 50}, {"time": 67671, "pitch": 61, "duration": 1898, "velocity": 50}, {"time": 67671, "pitch": 65, "duration": 1898, "velocity": 50}, {"time": 67671, "pitch": 68, "duration": 1898, "velocity": 50}, {"time": 69589, "pitch": 60, "duration": 1899, "velocity": 50}, {"time": 69589, "pitch": 63, "duration": 1899, "velocity": 50}, {"time": 69589, "pitch": 67, "duration": 1899, "velocity": 50}, {"time": 71508, "pitch": 60, "duration": 1904, "velocity": 50}, {"time": 71508, "pitch": 63, "duration": 1904, "velocity": 50}, {"time": 71508, "pitch": 65, "duration": 1904, "velocity": 50}, {"time": 73433, "pitch": 58, "duration": 1898, "velocity": 50}, {"time": 73433, "pitch": 61, "duration": 1898, "velocity": 50}, {"time": 73433, "pitch": 65, "duration": 1898, "velocity": 50}, {"time": 75351, "pitch": 60, "duration": 1898, "velocity": 50}, {"time": 75351, "pitch": 64, "duration": 1898, "velocity": 50}, {"time": 75351, "pitch": 68, "duration": 1898, "velocity": 50}, {"time": 77269, "pitch": 60, "duration": 1898, "velocity": 50}, {"time": 77269, "pitch": 63, "duration": 1898, "velocity": 50}, {"time": 77269, "pitch": 68, "duration": 1898, "velocity": 50}, {"time": 79187, "pitch": 56, "duration": 922, "velocity": 50}, {"time": 79187, "pitch": 60, "duration": 922, "velocity": 50}, {"time": 79187, "pitch": 63, "duration": 922, "velocity": 50}, {"time": 80149, "pitch": 58, "duration": 923, "velocity": 50}, {"time": 80149, "pitch": 61, "duration": 923, "velocity": 50}, {"time": 80149, "pitch": 65, "duration": 923, "velocity": 50}, {"time": 81112, "pitch": 60, "duration": 916, "velocity": 50}, {"time": 81112, "pitch": 63, "duration": 916, "velocity": 50}, {"time": 81112, "pitch": 67, "duration": 916, "velocity": 50}, {"time": 82068, "pitch": 58, "duration": 922, "velocity": 50}, {"time": 82068, "pitch": 61, "duration": 922, "velocity": 50}, {"time": 82068, "pitch": 65, "duration": 922, "velocity": 50}, {"time": 83030, "pitch": 56, "duration": 922, "velocity": 50}, {"time": 83030, "pitch": 60, "duration": 922, "velocity": 50}, {"time": 83030, "pitch": 63, "duration": 922, "velocity": 50}, {"time": 83993, "pitch": 58, "duration": 915, "velocity": 50}, {"time": 83993, "pitch": 61, "duration": 915, "velocity": 50}, {"time": 83993, "pitch": 65, "duration": 915, "velocity": 50}, {"time": 84948, "pitch": 60, "duration": 922, "velocity": 50}, {"time": 84948, "pitch": 63, "duration": 922, "velocity": 50}, {"time": 84948, "pitch": 67, "duration": 922, "velocity": 50}, {"time": 85911, "pitch": 58, "duration": 3906, "velocity": 50}, {"time": 85911, "pitch": 61, "duration": 3906, "velocity": 50}, {"time": 85911, "pitch": 65, "duration": 3906, "velocity": 50}, {"time": 90709, "pitch": 56, "duration": 923, "velocity": 50}, {"time": 90709, "pitch": 60, "duration": 923, "velocity": 50}, {"time": 90709, "pitch": 63, "duration": 923, "velocity": 50}, {"time": 91672, "pitch": 58, "duration": 916, "velocity": 50}, {"time": 91672, "pitch": 61, "duration": 916, "velocity": 50}, {"time": 91672, "pitch": 65, "duration": 916, "velocity": 50}, {"time": 92628, "pitch": 60, "duration": 922, "velocity": 50}, {"time": 92628, "pitch": 63, "duration": 922, "velocity": 50}, {"time": 92628, "pitch": 67, "duration": 922, "velocity": 50}, {"time": 93590, "pitch": 60, "duration": 922, "velocity": 50}, {"time": 93590, "pitch": 63, "duration": 922, "velocity": 50}, {"time": 93590, "pitch": 65, "duration": 922, "velocity": 50}, {"time": 94553, "pitch": 58, "duration": 915, "velocity": 50}, {"time": 94553, "pitch": 61, "duration": 915, "velocity": 50}, {"time": 94553, "pitch": 65, "duration": 915, "velocity": 50}, {"time": 95508, "pitch": 58, "duration": 922, "velocity": 50}, {"time": 95508, "pitch": 63, "duration": 922, "velocity": 50}, {"time": 95508, "pitch": 67, "duration": 922, "velocity": 50}, {"time": 96471, "pitch": 60, "duration": 922, "velocity": 50}, {"time": 96471, "pitch": 63, "duration": 922, "velocity": 50}, {"time": 96471, "pitch": 67, "duration": 922, "velocity": 50}, {"time": 97433, "pitch": 60, "duration": 916, "velocity": 50}, {"time": 97433, "pitch": 63, "duration": 916, "velocity": 50}, {"time": 97433, "pitch": 65, "duration": 916, "velocity": 50}, {"time": 98389, "pitch": 58, "duration": 922, "velocity": 50}, {"time": 98389, "pitch": 61, "duration": 922, "velocity": 50}, {"time": 98389, "pitch": 65, "duration": 922, "velocity": 50}, {"time": 99351, "pitch": 58, "duration": 451, "velocity": 50}, {"time": 99351, "pitch": 61, "duration": 451, "velocity": 50}, {"time": 99351, "pitch": 65, "duration": 451, "velocity": 50}, {"time": 99833, "pitch": 60, "duration": 444, "velocity": 50}, {"time": 99833, "pitch": 64, "duration": 444, "velocity": 50}, {"time": 99833, "pitch": 67, "duration": 444, "velocity": 50}, {"time": 100307, "pitch": 60, "duration": 1905, "velocity": 50}, {"time": 100307, "pitch": 63, "duration": 1905, "velocity": 50}, {"time": 100307, "pitch": 65, "duration": 1905, "velocity": 50}, {"time": 102232, "pitch": 58, "duration": 1898, "velocity": 50}, {"time": 102232, "pitch": 62, "duration": 1898, "velocity": 50}, {"time": 102232, "pitch": 65, "duration": 1898, "velocity": 50}, {"time": 104150, "pitch": 61, "duration": 1898, "velocity": 50}, {"time": 104150, "pitch": 65, "duration": 1898, "velocity": 50}, {"time": 104150, "pitch": 68, "duration": 1898, "velocity": 50}, {"time": 106068, "pitch": 56, "duration": 922, "velocity": 50}, {"time": 106068, "pitch": 60, "duration": 922, "velocity": 50}, {"time": 106068, "pitch": 63, "duration": 922, "velocity": 50}, {"time": 107031, "pitch": 58, "duration": 922, "velocity": 50}, {"time": 107031, "pitch": 61, "duration": 922, "velocity": 50}, {"time": 107031, "pitch": 65, "duration": 922, "velocity": 50}, {"time": 107993, "pitch": 60, "duration": 916, "velocity": 50}, {"time": 107993, "pitch": 63, "duration": 916, "velocity": 50}, {"time": 107993, "pitch": 67, "duration": 916, "velocity": 50}, {"time": 108949, "pitch": 60, "duration": 922, "velocity": 50}, {"time": 108949, "pitch": 63, "duration": 922, "velocity": 50}, {"time": 108949, "pitch": 65, "duration": 922, "velocity": 50}, {"time": 109911, "pitch": 58, "duration": 916, "velocity": 50}, {"time": 109911, "pitch": 61, "duration": 916, "velocity": 50}, {"time": 109911, "pitch": 65, "duration": 916, "velocity": 50}, {"time": 110867, "pitch": 58, "duration": 922, "velocity": 50}, {"time": 110867, "pitch": 63, "duration": 922, "velocity": 50}, {"time": 110867, "pitch": 67, "duration": 922, "velocity": 50}, {"time": 111829, "pitch": 60, "duration": 923, "velocity": 50}, {"time": 111829, "pitch": 63, "duration": 923, "velocity": 50}, {"time": 111829, "pitch": 67, "duration": 923, "velocity": 50}, {"time": 112792, "pitch": 60, "duration": 916, "velocity": 50}, {"time": 112792, "pitch": 63, "duration": 916, "velocity": 50}, {"time": 112792, "pitch": 65, "duration": 916, "velocity": 50}, {"time": 113748, "pitch": 58, "duration": 922, "velocity": 50}, {"time": 113748, "pitch": 61, "duration": 922, "velocity": 50}, {"time": 113748, "pitch": 65, "duration": 922, "velocity": 50}, {"time": 114710, "pitch": 58, "duration": 922, "velocity": 50}, {"time": 114710, "pitch": 63, "duration": 922, "velocity": 50}, {"time": 114710, "pitch": 67, "duration": 922, "velocity": 50}, {"time": 115673, "pitch": 60, "duration": 915, "velocity": 50}, {"time": 115673, "pitch": 63, "duration": 915, "velocity": 50}, {"time": 115673, "pitch": 68, "duration": 915, "velocity": 50}, {"time": 116628, "pitch": 60, "duration": 922, "velocity": 50}, {"time": 116628, "pitch": 63, "duration": 922, "velocity": 50}, {"time": 116628, "pitch": 65, "duration": 922, "velocity": 50}, {"time": 117591, "pitch": 58, "duration": 922, "velocity": 50}, {"time": 117591, "pitch": 61, "duration": 922, "velocity": 50}, {"time": 117591, "pitch": 65, "duration": 922, "velocity": 50}, {"time": 118553, "pitch": 56, "duration": 916, "velocity": 50}, {"time": 118553, "pitch": 60, "duration": 916, "velocity": 50}, {"time": 118553, "pitch": 64, "duration": 916, "velocity": 50}, {"time": 119509, "pitch": 56, "duration": 1898, "velocity": 50}, {"time": 119509, "pitch": 60, "duration": 1898, "velocity": 50}, {"time": 119509, "pitch": 63, "duration": 1898, "velocity": 50}, {"time": 121427, "pitch": 58, "duration": 1905, "velocity": 50}, {"time": 121427, "pitch": 61, "duration": 1905, "velocity": 50}, {"time": 121427, "pitch": 65, "duration": 1905, "velocity": 50}, {"time": 123352, "pitch": 60, "duration": 1898, "velocity": 50}, {"time": 123352, "pitch": 63, "duration": 1898, "velocity": 50}, {"time": 123352, "pitch": 67, "duration": 1898, "velocity": 50}, {"time": 125270, "pitch": 58, "duration": 1898, "velocity": 50}, {"time": 125270, "pitch": 61, "duration": 1898, "velocity": 50}, {"time": 125270, "pitch": 65, "duration": 1898, "velocity": 50}, {"time": 127188, "pitch": 58, "duration": 922, "velocity": 50}, {"time": 127188, "pitch": 61, "duration": 922, "velocity": 50}, {"time": 127188, "pitch": 65, "duration": 922, "velocity": 50}, {"time": 128151, "pitch": 58, "duration": 922, "velocity": 50}, {"time": 128151, "pitch": 60, "duration": 922, "velocity": 50}, {"time": 128151, "pitch": 64, "duration": 922, "velocity": 50}, {"time": 129113, "pitch": 60, "duration": 1898, "velocity": 50}, {"time": 129113, "pitch": 65, "duration": 1898, "velocity": 50}, {"time": 129113, "pitch": 68, "duration": 1898, "velocity": 50}, {"time": 131031, "pitch": 61, "duration": 916, "velocity": 50}, {"time": 131031, "pitch": 65, "duration": 916, "velocity": 50}, {"time": 131031, "pitch": 68, "duration": 916, "velocity": 50}, {"time": 131987, "pitch": 60, "duration": 451, "velocity": 50}, {"time": 131987, "pitch": 63, "duration": 451, "velocity": 50}, {"time": 132468, "pitch": 60, "duration": 451, "velocity": 50}, {"time": 132468, "pitch": 65, "duration": 451, "velocity": 50}, {"time": 132949, "pitch": 58, "duration": 1899, "velocity": 50}, {"time": 132949, "pitch": 61, "duration": 1899, "velocity": 50}, {"time": 132949, "pitch": 66, "duration": 1899, "velocity": 50}, {"time": 134868, "pitch": 61, "duration": 1904, "velocity": 50}, {"time": 134868, "pitch": 65, "duration": 1904, "velocity": 50}, {"time": 134868, "pitch": 68, "duration": 1904, "velocity": 50}, {"time": 136793, "pitch": 61, "duration": 1898, "velocity": 50}, {"time": 136793, "pitch": 65, "duration": 1898, "velocity": 50}, {"time": 136793, "pitch": 68, "duration": 1898, "velocity": 50}, {"time": 138711, "pitch": 60, "duration": 922, "velocity": 50}, {"time": 138711, "pitch": 63, "duration": 922, "velocity": 50}, {"time": 138711, "pitch": 68, "duration": 922, "velocity": 50}, {"time": 139673, "pitch": 60, "duration": 916, "velocity": 50}, {"time": 139673, "pitch": 64, "duration": 916, "velocity": 50}, {"time": 139673, "pitch": 67, "duration": 916, "velocity": 50}, {"time": 140629, "pitch": 60, "duration": 922, "velocity": 50}, {"time": 140629, "pitch": 65, "duration": 922, "velocity": 50}, {"time": 140629, "pitch": 68, "duration": 922, "velocity": 50}, {"time": 141591, "pitch": 60, "duration": 916, "velocity": 50}, {"time": 141591, "pitch": 63, "duration": 916, "velocity": 50}, {"time": 141591, "pitch": 67, "duration": 916, "velocity": 50}, {"time": 142547, "pitch": 61, "duration": 1905, "velocity": 50}, {"time": 142547, "pitch": 65, "duration": 1905, "velocity": 50}, {"time": 142547, "pitch": 68, "duration": 1905, "velocity": 50}, {"time": 144472, "pitch": 60, "duration": 1898, "velocity": 50}, {"time": 144472, "pitch": 63, "duration": 1898, "velocity": 50}, {"time": 144472, "pitch": 67, "duration": 1898, "velocity": 50}, {"time": 146390, "pitch": 60, "duration": 1898, "velocity": 50}, {"time": 146390, "pitch": 63, "duration": 1898, "velocity": 50}, {"time": 146390, "pitch": 65, "duration": 1898, "velocity": 50}, {"time": 148308, "pitch": 58, "duration": 1905, "velocity": 50}, {"time": 148308, "pitch": 61, "duration": 1905, "velocity": 50}, {"time": 148308, "pitch": 65, "duration": 1905, "velocity": 50}, {"time": 150233, "pitch": 60, "duration": 1898, "velocity": 50}, {"time": 150233, "pitch": 64, "duration": 1898, "velocity": 50}, {"time": 150233, "pitch": 68, "duration": 1898, "velocity": 50}, {"time": 152151, "pitch": 60, "duration": 1898, "velocity": 50}, {"time": 152151, "pitch": 63, "duration": 1898, "velocity": 50}, {"time": 152151, "pitch": 67, "duration": 1898, "velocity": 50}, {"time": 154069, "pitch": 60, "duration": 1899, "velocity": 50}, {"time": 154069, "pitch": 63, "duration": 1899, "velocity": 50}, {"time": 154069, "pitch": 65, "duration": 1899, "velocity": 50}, {"time": 155988, "pitch": 58, "duration": 1904, "velocity": 50}, {"time": 155988, "pitch": 61, "duration": 1904, "velocity": 50}, {"time": 155988, "pitch": 65, "duration": 1904, "velocity": 50}, {"time": 157912, "pitch": 61, "duration": 1899, "velocity": 50}, {"time": 157912, "pitch": 64, "duration": 1899, "velocity": 50}, {"time": 157912, "pitch": 68, "duration": 1899, "velocity": 50}, {"time": 159831, "pitch": 57, "duration": 922, "velocity": 50}, {"time": 159831, "pitch": 60, "duration": 922, "velocity": 50}, {"time": 159831, "pitch": 65, "duration": 922, "velocity": 50}, {"time": 160793, "pitch": 58, "duration": 916, "velocity": 50}, {"time": 160793, "pitch": 62, "duration": 916, "velocity": 50}, {"time": 160793, "pitch": 67, "duration": 916, "velocity": 50}, {"time": 161749, "pitch": 60, "duration": 922, "velocity": 50}, {"time": 161749, "pitch": 64, "duration": 922, "velocity": 50}, {"time": 161749, "pitch": 67, "duration": 922, "velocity": 50}, {"time": 162711, "pitch": 58, "duration": 916, "velocity": 50}, {"time": 162711, "pitch": 62, "duration": 916, "velocity": 50}, {"time": 162711, "pitch": 67, "duration": 916, "velocity": 50}, {"time": 163667, "pitch": 57, "duration": 922, "velocity": 50}, {"time": 163667, "pitch": 60, "duration": 922, "velocity": 50}, {"time": 163667, "pitch": 65, "duration": 922, "velocity": 50}, {"time": 164629, "pitch": 58, "duration": 923, "velocity": 50}, {"time": 164629, "pitch": 62, "duration": 923, "velocity": 50}, {"time": 164629, "pitch": 67, "duration": 923, "velocity": 50}, {"time": 165592, "pitch": 60, "duration": 916, "velocity": 50}, {"time": 165592, "pitch": 64, "duration": 916, "velocity": 50}, {"time": 165592, "pitch": 67, "duration": 916, "velocity": 50}, {"time": 166548, "pitch": 58, "duration": 922, "velocity": 50}, {"time": 166548, "pitch": 62, "duration": 922, "velocity": 50}, {"time": 166548, "pitch": 67, "duration": 922, "velocity": 50}, {"time": 167510, "pitch": 57, "duration": 922, "velocity": 50}, {"time": 167510, "pitch": 60, "duration": 922, "velocity": 50}, {"time": 167510, "pitch": 65, "duration": 922, "velocity": 50}, {"time": 168472, "pitch": 58, "duration": 916, "velocity": 50}, {"time": 168472, "pitch": 62, "duration": 916, "velocity": 50}, {"time": 168472, "pitch": 67, "duration": 916, "velocity": 50}, {"time": 169428, "pitch": 60, "duration": 922, "velocity": 50}, {"time": 169428, "pitch": 64, "duration": 922, "velocity": 50}, {"time": 169428, "pitch": 67, "duration": 922, "velocity": 50}, {"time": 170391, "pitch": 58, "duration": 922, "velocity": 50}, {"time": 170391, "pitch": 62, "duration": 922, "velocity": 50}, {"time": 170391, "pitch": 67, "duration": 922, "velocity": 50}, {"time": 171353, "pitch": 57, "duration": 923, "velocity": 50}, {"time": 171353, "pitch": 60, "duration": 923, "velocity": 50}, {"time": 171353, "pitch": 65, "duration": 923, "velocity": 50}, {"time": 172316, "pitch": 58, "duration": 922, "velocity": 50}, {"time": 172316, "pitch": 62, "duration": 922, "velocity": 50}, {"time": 172316, "pitch": 67, "duration": 922, "velocity": 50}, {"time": 173278, "pitch": 60, "duration": 923, "velocity": 50}, {"time": 173278, "pitch": 64, "duration": 923, "velocity": 50}, {"time": 173278, "pitch": 67, "duration": 923, "velocity": 50}, {"time": 174241, "pitch": 58, "duration": 922, "velocity": 50}, {"time": 174241, "pitch": 62, "duration": 922, "velocity": 50}, {"time": 174241, "pitch": 67, "duration": 922, "velocity": 50}, {"time": 175203, "pitch": 57, "duration": 923, "velocity": 50}, {"time": 175203, "pitch": 60, "duration": 923, "velocity": 50}, {"time": 175203, "pitch": 65, "duration": 923, "velocity": 50}, {"time": 176166, "pitch": 58, "duration": 922, "velocity": 50}, {"time": 176166, "pitch": 62, "duration": 922, "velocity": 50}, {"time": 176166, "pitch": 67, "duration": 922, "velocity": 50}, {"time": 177129, "pitch": 60, "duration": 922, "velocity": 50}, {"time": 177129, "pitch": 64, "duration": 922, "velocity": 50}, {"time": 177129, "pitch": 67, "duration": 922, "velocity": 50}, {"time": 178091, "pitch": 58, "duration": 923, "velocity": 50}, {"time": 178091, "pitch": 62, "duration": 923, "velocity": 50}, {"time": 178091, "pitch": 67, "duration": 923, "velocity": 50}], "annotations": [{"time": 335, "annotation": {"number": 7, "value": 62}, "group": "control_change"}, {"time": 351, "annotation": {"number": 11, "value": 100}, "group": "control_change"}, {"time": 367, "annotation": {"number": 10, "value": 64}, "group": "control_change"}, {"time": 383, "annotation": {"number": 91, "value": 120}, "group": "control_change"}, {"time": 399, "annotation": {"number": 93, "value": 0}, "group": "control_change"}, {"time": 415, "annotation": {"number": 101, "value": 0}, "group": "control_change"}, {"time": 431, "annotation": {"number": 100, "value": 0}, "group": "control_change"}, {"time": 447, "annotation": {"number": 6, "value": 12}, "group": "control_change"}, {"time": 463, "annotation": {"number": 101, "value": 127}, "group": "control_change"}, {"time": 479, "annotation": {"number": 100, "value": 127}, "group": "control_change"}]}, {"program": 0, "is_drum": false, "name": "A.Guitar 2", "annotations": [{"time": 287, "annotation": {"number": 0, "value": 0}, "group": "control_change"}, {"time": 303, "annotation": {"number": 32, "value": 2}, "group": "control_change"}]}, {"program": 25, "is_drum": false, "name": "A.Guitar 2", "notes": [{"time": 31203, "pitch": 44, "duration": 915, "velocity": 73}, {"time": 31440, "pitch": 51, "duration": 357, "velocity": 81}, {"time": 31677, "pitch": 60, "duration": 361, "velocity": 84}, {"time": 31917, "pitch": 51, "duration": 221, "velocity": 77}, {"time": 32158, "pitch": 46, "duration": 923, "velocity": 74}, {"time": 32399, "pitch": 53, "duration": 371, "velocity": 80}, {"time": 32639, "pitch": 61, "duration": 361, "velocity": 84}, {"time": 32880, "pitch": 53, "duration": 221, "velocity": 78}, {"time": 33121, "pitch": 48, "duration": 922, "velocity": 78}, {"time": 33361, "pitch": 55, "duration": 361, "velocity": 85}, {"time": 33602, "pitch": 63, "duration": 361, "velocity": 89}, {"time": 33843, "pitch": 55, "duration": 220, "velocity": 82}, {"time": 34083, "pitch": 41, "duration": 916, "velocity": 80}, {"time": 34320, "pitch": 54, "duration": 358, "velocity": 84}, {"time": 34557, "pitch": 63, "duration": 361, "velocity": 86}, {"time": 34798, "pitch": 54, "duration": 221, "velocity": 76}, {"time": 35039, "pitch": 46, "duration": 922, "velocity": 73}, {"time": 35279, "pitch": 53, "duration": 361, "velocity": 81}, {"time": 35520, "pitch": 61, "duration": 361, "velocity": 84}, {"time": 35761, "pitch": 53, "duration": 220, "velocity": 77}, {"time": 36001, "pitch": 51, "duration": 916, "velocity": 74}, {"time": 36242, "pitch": 55, "duration": 369, "velocity": 80}, {"time": 36483, "pitch": 61, "duration": 355, "velocity": 84}, {"time": 36720, "pitch": 55, "duration": 217, "velocity": 78}, {"time": 36957, "pitch": 48, "duration": 922, "velocity": 78}, {"time": 37197, "pitch": 55, "duration": 361, "velocity": 85}, {"time": 37438, "pitch": 63, "duration": 361, "velocity": 89}, {"time": 37679, "pitch": 55, "duration": 220, "velocity": 82}, {"time": 37919, "pitch": 41, "duration": 923, "velocity": 80}, {"time": 38160, "pitch": 56, "duration": 361, "velocity": 84}, {"time": 38401, "pitch": 63, "duration": 361, "velocity": 86}, {"time": 38641, "pitch": 56, "duration": 221, "velocity": 76}, {"time": 38882, "pitch": 46, "duration": 916, "velocity": 73}, {"time": 39123, "pitch": 53, "duration": 359, "velocity": 81}, {"time": 39363, "pitch": 61, "duration": 356, "velocity": 84}, {"time": 39600, "pitch": 53, "duration": 218, "velocity": 77}, {"time": 39837, "pitch": 51, "duration": 923, "velocity": 74}, {"time": 40078, "pitch": 55, "duration": 371, "velocity": 80}, {"time": 40319, "pitch": 61, "duration": 361, "velocity": 84}, {"time": 40559, "pitch": 55, "duration": 221, "velocity": 78}, {"time": 40800, "pitch": 44, "duration": 922, "velocity": 78}, {"time": 41041, "pitch": 56, "duration": 361, "velocity": 85}, {"time": 41281, "pitch": 63, "duration": 361, "velocity": 89}, {"time": 41522, "pitch": 56, "duration": 221, "velocity": 82}, {"time": 41763, "pitch": 41, "duration": 915, "velocity": 80}, {"time": 42000, "pitch": 56, "duration": 357, "velocity": 84}, {"time": 42237, "pitch": 63, "duration": 361, "velocity": 86}, {"time": 42477, "pitch": 56, "duration": 221, "velocity": 76}, {"time": 42718, "pitch": 46, "duration": 923, "velocity": 83}, {"time": 42959, "pitch": 53, "duration": 671, "velocity": 77}, {"time": 43199, "pitch": 56, "duration": 411, "velocity": 86}, {"time": 43440, "pitch": 61, "duration": 201, "velocity": 80}, {"time": 43681, "pitch": 49, "duration": 922, "velocity": 84}, {"time": 43921, "pitch": 52, "duration": 682, "velocity": 77}, {"time": 44162, "pitch": 56, "duration": 391, "velocity": 86}, {"time": 44403, "pitch": 61, "duration": 190, "velocity": 80}, {"time": 44643, "pitch": 44, "duration": 845, "velocity": 94}, {"time": 44880, "pitch": 51, "duration": 598, "velocity": 80}, {"time": 45117, "pitch": 56, "duration": 341, "velocity": 76}, {"time": 45358, "pitch": 60, "duration": 140, "velocity": 68}, {"time": 45508, "pitch": 44, "duration": 1003, "velocity": 79}, {"time": 45559, "pitch": 51, "duration": 942, "velocity": 75}, {"time": 45609, "pitch": 60, "duration": 892, "velocity": 67}, {"time": 45659, "pitch": 68, "duration": 862, "velocity": 84}, {"time": 69599, "pitch": 48, "duration": 1909, "velocity": 95}, {"time": 69639, "pitch": 55, "duration": 1859, "velocity": 76}, {"time": 69670, "pitch": 58, "duration": 1838, "velocity": 81}, {"time": 69730, "pitch": 63, "duration": 1778, "velocity": 84}, {"time": 71517, "pitch": 41, "duration": 622, "velocity": 84}, {"time": 71517, "pitch": 51, "duration": 622, "velocity": 91}, {"time": 71517, "pitch": 56, "duration": 622, "velocity": 77}, {"time": 71517, "pitch": 60, "duration": 622, "velocity": 82}, {"time": 72239, "pitch": 41, "duration": 1103, "velocity": 81}, {"time": 72239, "pitch": 51, "duration": 1103, "velocity": 89}, {"time": 72239, "pitch": 56, "duration": 1103, "velocity": 75}, {"time": 72239, "pitch": 60, "duration": 1103, "velocity": 86}, {"time": 73443, "pitch": 46, "duration": 634, "velocity": 92}, {"time": 73443, "pitch": 53, "duration": 634, "velocity": 83}, {"time": 73443, "pitch": 56, "duration": 634, "velocity": 76}, {"time": 73443, "pitch": 61, "duration": 634, "velocity": 92}, {"time": 74157, "pitch": 46, "duration": 1063, "velocity": 79}, {"time": 74157, "pitch": 53, "duration": 1053, "velocity": 70}, {"time": 74157, "pitch": 56, "duration": 1063, "velocity": 71}, {"time": 74157, "pitch": 61, "duration": 1093, "velocity": 88}, {"time": 75361, "pitch": 49, "duration": 1787, "velocity": 90}, {"time": 75401, "pitch": 53, "duration": 1727, "velocity": 84}, {"time": 75451, "pitch": 56, "duration": 1677, "velocity": 71}, {"time": 75511, "pitch": 58, "duration": 1627, "velocity": 90}, {"time": 77269, "pitch": 44, "duration": 1869, "velocity": 84}, {"time": 77319, "pitch": 56, "duration": 1848, "velocity": 84}, {"time": 77379, "pitch": 60, "duration": 1808, "velocity": 79}, {"time": 77459, "pitch": 63, "duration": 1708, "velocity": 79}, {"time": 79197, "pitch": 44, "duration": 922, "velocity": 73}, {"time": 79437, "pitch": 51, "duration": 361, "velocity": 81}, {"time": 79678, "pitch": 60, "duration": 361, "velocity": 84}, {"time": 79919, "pitch": 51, "duration": 220, "velocity": 77}, {"time": 80159, "pitch": 46, "duration": 923, "velocity": 74}, {"time": 80400, "pitch": 53, "duration": 371, "velocity": 80}, {"time": 80641, "pitch": 61, "duration": 361, "velocity": 84}, {"time": 80881, "pitch": 53, "duration": 221, "velocity": 78}, {"time": 81122, "pitch": 48, "duration": 916, "velocity": 78}, {"time": 81363, "pitch": 55, "duration": 359, "velocity": 85}, {"time": 81603, "pitch": 63, "duration": 356, "velocity": 89}, {"time": 81840, "pitch": 55, "duration": 218, "velocity": 82}, {"time": 82077, "pitch": 46, "duration": 923, "velocity": 80}, {"time": 82318, "pitch": 53, "duration": 361, "velocity": 84}, {"time": 82559, "pitch": 61, "duration": 361, "velocity": 86}, {"time": 82799, "pitch": 53, "duration": 221, "velocity": 76}, {"time": 83040, "pitch": 44, "duration": 922, "velocity": 73}, {"time": 83281, "pitch": 51, "duration": 361, "velocity": 81}, {"time": 83521, "pitch": 60, "duration": 361, "velocity": 84}, {"time": 83762, "pitch": 51, "duration": 220, "velocity": 77}, {"time": 84003, "pitch": 46, "duration": 915, "velocity": 74}, {"time": 84240, "pitch": 53, "duration": 367, "velocity": 80}, {"time": 84477, "pitch": 61, "duration": 361, "velocity": 84}, {"time": 84717, "pitch": 53, "duration": 221, "velocity": 78}, {"time": 84958, "pitch": 48, "duration": 923, "velocity": 78}, {"time": 85199, "pitch": 55, "duration": 361, "velocity": 85}, {"time": 85439, "pitch": 63, "duration": 361, "velocity": 89}, {"time": 85680, "pitch": 55, "duration": 201, "velocity": 82}, {"time": 85901, "pitch": 46, "duration": 4798, "velocity": 80}, {"time": 85921, "pitch": 53, "duration": 4778, "velocity": 84}, {"time": 85941, "pitch": 61, "duration": 4758, "velocity": 86}, {"time": 85961, "pitch": 68, "duration": 4738, "velocity": 96}, {"time": 90719, "pitch": 44, "duration": 923, "velocity": 83}, {"time": 90960, "pitch": 51, "duration": 672, "velocity": 77}, {"time": 91201, "pitch": 55, "duration": 411, "velocity": 86}, {"time": 91441, "pitch": 60, "duration": 201, "velocity": 80}, {"time": 91682, "pitch": 46, "duration": 916, "velocity": 84}, {"time": 91923, "pitch": 53, "duration": 675, "velocity": 77}, {"time": 92163, "pitch": 56, "duration": 386, "velocity": 86}, {"time": 92400, "pitch": 61, "duration": 188, "velocity": 80}, {"time": 92637, "pitch": 48, "duration": 923, "velocity": 83}, {"time": 92878, "pitch": 55, "duration": 672, "velocity": 77}, {"time": 93119, "pitch": 58, "duration": 411, "velocity": 86}, {"time": 93359, "pitch": 63, "duration": 201, "velocity": 80}, {"time": 93600, "pitch": 41, "duration": 922, "velocity": 84}, {"time": 93841, "pitch": 48, "duration": 681, "velocity": 77}, {"time": 94081, "pitch": 54, "duration": 391, "velocity": 86}, {"time": 94322, "pitch": 63, "duration": 190, "velocity": 80}, {"time": 94563, "pitch": 46, "duration": 915, "velocity": 83}, {"time": 94800, "pitch": 53, "duration": 668, "velocity": 77}, {"time": 95037, "pitch": 56, "duration": 411, "velocity": 86}, {"time": 95277, "pitch": 61, "duration": 201, "velocity": 80}, {"time": 95518, "pitch": 51, "duration": 923, "velocity": 84}, {"time": 95759, "pitch": 58, "duration": 682, "velocity": 77}, {"time": 95999, "pitch": 61, "duration": 391, "velocity": 86}, {"time": 96240, "pitch": 63, "duration": 190, "velocity": 80}, {"time": 96481, "pitch": 48, "duration": 922, "velocity": 83}, {"time": 96721, "pitch": 55, "duration": 672, "velocity": 77}, {"time": 96962, "pitch": 58, "duration": 411, "velocity": 86}, {"time": 97203, "pitch": 63, "duration": 200, "velocity": 80}, {"time": 97443, "pitch": 41, "duration": 916, "velocity": 84}, {"time": 97680, "pitch": 48, "duration": 679, "velocity": 77}, {"time": 97917, "pitch": 51, "duration": 391, "velocity": 86}, {"time": 98158, "pitch": 56, "duration": 191, "velocity": 80}, {"time": 98399, "pitch": 46, "duration": 852, "velocity": 84}, {"time": 98639, "pitch": 53, "duration": 602, "velocity": 80}, {"time": 98880, "pitch": 56, "duration": 341, "velocity": 76}, {"time": 99121, "pitch": 61, "duration": 170, "velocity": 88}, {"time": 99321, "pitch": 43, "duration": 441, "velocity": 75}, {"time": 99341, "pitch": 49, "duration": 441, "velocity": 87}, {"time": 99361, "pitch": 58, "duration": 441, "velocity": 87}, {"time": 99381, "pitch": 64, "duration": 441, "velocity": 90}, {"time": 99802, "pitch": 48, "duration": 456, "velocity": 75}, {"time": 99822, "pitch": 52, "duration": 455, "velocity": 67}, {"time": 99843, "pitch": 58, "duration": 454, "velocity": 67}, {"time": 99862, "pitch": 60, "duration": 455, "velocity": 91}, {"time": 100317, "pitch": 41, "duration": 922, "velocity": 83}, {"time": 100557, "pitch": 48, "duration": 672, "velocity": 77}, {"time": 100798, "pitch": 51, "duration": 411, "velocity": 86}, {"time": 101039, "pitch": 56, "duration": 200, "velocity": 80}, {"time": 101279, "pitch": 51, "duration": 923, "velocity": 84}, {"time": 101520, "pitch": 53, "duration": 682, "velocity": 77}, {"time": 101761, "pitch": 56, "duration": 391, "velocity": 86}, {"time": 102001, "pitch": 60, "duration": 191, "velocity": 80}, {"time": 102242, "pitch": 50, "duration": 847, "velocity": 84}, {"time": 102483, "pitch": 53, "duration": 596, "velocity": 80}, {"time": 102723, "pitch": 56, "duration": 336, "velocity": 76}, {"time": 102960, "pitch": 58, "duration": 139, "velocity": 87}, {"time": 103109, "pitch": 46, "duration": 1001, "velocity": 79}, {"time": 103158, "pitch": 53, "duration": 942, "velocity": 75}, {"time": 103207, "pitch": 56, "duration": 893, "velocity": 67}, {"time": 103258, "pitch": 61, "duration": 862, "velocity": 84}, {"time": 104160, "pitch": 51, "duration": 852, "velocity": 84}, {"time": 104401, "pitch": 56, "duration": 601, "velocity": 80}, {"time": 104641, "pitch": 61, "duration": 341, "velocity": 76}, {"time": 104882, "pitch": 65, "duration": 180, "velocity": 88}, {"time": 105082, "pitch": 55, "duration": 436, "velocity": 75}, {"time": 105102, "pitch": 58, "duration": 436, "velocity": 77}, {"time": 105123, "pitch": 63, "duration": 434, "velocity": 91}, {"time": 105557, "pitch": 51, "duration": 461, "velocity": 75}, {"time": 105577, "pitch": 58, "duration": 461, "velocity": 67}, {"time": 105597, "pitch": 61, "duration": 461, "velocity": 91}, {"time": 106078, "pitch": 44, "duration": 923, "velocity": 83}, {"time": 106319, "pitch": 51, "duration": 671, "velocity": 77}, {"time": 106559, "pitch": 55, "duration": 411, "velocity": 86}, {"time": 106800, "pitch": 60, "duration": 201, "velocity": 80}, {"time": 107041, "pitch": 46, "duration": 922, "velocity": 84}, {"time": 107281, "pitch": 53, "duration": 682, "velocity": 77}, {"time": 107522, "pitch": 56, "duration": 391, "velocity": 86}, {"time": 107763, "pitch": 61, "duration": 190, "velocity": 80}, {"time": 108003, "pitch": 48, "duration": 916, "velocity": 83}, {"time": 108240, "pitch": 55, "duration": 669, "velocity": 77}, {"time": 108477, "pitch": 58, "duration": 411, "velocity": 86}, {"time": 108718, "pitch": 63, "duration": 201, "velocity": 80}, {"time": 108959, "pitch": 41, "duration": 922, "velocity": 84}, {"time": 109199, "pitch": 48, "duration": 682, "velocity": 77}, {"time": 109440, "pitch": 54, "duration": 391, "velocity": 86}, {"time": 109681, "pitch": 63, "duration": 190, "velocity": 80}, {"time": 109921, "pitch": 46, "duration": 916, "velocity": 83}, {"time": 110162, "pitch": 53, "duration": 665, "velocity": 77}, {"time": 110403, "pitch": 56, "duration": 405, "velocity": 86}, {"time": 110640, "pitch": 61, "duration": 197, "velocity": 80}, {"time": 110877, "pitch": 51, "duration": 922, "velocity": 84}, {"time": 111117, "pitch": 58, "duration": 682, "velocity": 77}, {"time": 111358, "pitch": 61, "duration": 391, "velocity": 86}, {"time": 111599, "pitch": 63, "duration": 190, "velocity": 80}, {"time": 111839, "pitch": 48, "duration": 923, "velocity": 83}, {"time": 112080, "pitch": 55, "duration": 672, "velocity": 77}, {"time": 112321, "pitch": 58, "duration": 411, "velocity": 86}, {"time": 112561, "pitch": 63, "duration": 201, "velocity": 80}, {"time": 112802, "pitch": 41, "duration": 916, "velocity": 84}, {"time": 113043, "pitch": 48, "duration": 675, "velocity": 77}, {"time": 113283, "pitch": 51, "duration": 386, "velocity": 86}, {"time": 113520, "pitch": 56, "duration": 188, "velocity": 80}, {"time": 113757, "pitch": 46, "duration": 923, "velocity": 83}, {"time": 113998, "pitch": 53, "duration": 672, "velocity": 77}, {"time": 114239, "pitch": 56, "duration": 411, "velocity": 86}, {"time": 114479, "pitch": 61, "duration": 201, "velocity": 80}, {"time": 114720, "pitch": 51, "duration": 922, "velocity": 84}, {"time": 114961, "pitch": 58, "duration": 681, "velocity": 77}, {"time": 115201, "pitch": 61, "duration": 391, "velocity": 86}, {"time": 115442, "pitch": 63, "duration": 190, "velocity": 80}, {"time": 115682, "pitch": 44, "duration": 916, "velocity": 83}, {"time": 115920, "pitch": 51, "duration": 668, "velocity": 77}, {"time": 116157, "pitch": 55, "duration": 411, "velocity": 86}, {"time": 116397, "pitch": 60, "duration": 201, "velocity": 80}, {"time": 116638, "pitch": 41, "duration": 923, "velocity": 84}, {"time": 116879, "pitch": 48, "duration": 682, "velocity": 77}, {"time": 117119, "pitch": 51, "duration": 391, "velocity": 86}, {"time": 117360, "pitch": 56, "duration": 190, "velocity": 80}, {"time": 117601, "pitch": 46, "duration": 852, "velocity": 84}, {"time": 117841, "pitch": 53, "duration": 602, "velocity": 80}, {"time": 118082, "pitch": 56, "duration": 341, "velocity": 76}, {"time": 118323, "pitch": 61, "duration": 140, "velocity": 68}, {"time": 118473, "pitch": 49, "duration": 996, "velocity": 79}, {"time": 118523, "pitch": 52, "duration": 936, "velocity": 75}, {"time": 118573, "pitch": 56, "duration": 886, "velocity": 67}, {"time": 118622, "pitch": 58, "duration": 857, "velocity": 84}, {"time": 119519, "pitch": 44, "duration": 852, "velocity": 84}, {"time": 119759, "pitch": 51, "duration": 602, "velocity": 80}, {"time": 120000, "pitch": 56, "duration": 341, "velocity": 76}, {"time": 120241, "pitch": 60, "duration": 140, "velocity": 68}, {"time": 120391, "pitch": 44, "duration": 996, "velocity": 79}, {"time": 120441, "pitch": 51, "duration": 937, "velocity": 75}, {"time": 120491, "pitch": 60, "duration": 887, "velocity": 67}, {"time": 120541, "pitch": 68, "duration": 856, "velocity": 84}, {"time": 150243, "pitch": 49, "duration": 1798, "velocity": 79}, {"time": 150293, "pitch": 52, "duration": 1778, "velocity": 75}, {"time": 150342, "pitch": 56, "duration": 1759, "velocity": 67}, {"time": 150391, "pitch": 58, "duration": 1740, "velocity": 84}, {"time": 152161, "pitch": 48, "duration": 916, "velocity": 83}, {"time": 152402, "pitch": 55, "duration": 665, "velocity": 77}, {"time": 152642, "pitch": 58, "duration": 406, "velocity": 86}, {"time": 152880, "pitch": 63, "duration": 197, "velocity": 80}, {"time": 153117, "pitch": 48, "duration": 922, "velocity": 84}, {"time": 153357, "pitch": 55, "duration": 682, "velocity": 77}, {"time": 153598, "pitch": 58, "duration": 391, "velocity": 86}, {"time": 153839, "pitch": 63, "duration": 190, "velocity": 80}, {"time": 154079, "pitch": 41, "duration": 853, "velocity": 84}, {"time": 154320, "pitch": 48, "duration": 602, "velocity": 80}, {"time": 154561, "pitch": 51, "duration": 341, "velocity": 76}, {"time": 154801, "pitch": 56, "duration": 141, "velocity": 68}, {"time": 154952, "pitch": 51, "duration": 996, "velocity": 79}, {"time": 155002, "pitch": 53, "duration": 936, "velocity": 75}, {"time": 155052, "pitch": 56, "duration": 886, "velocity": 67}, {"time": 155102, "pitch": 60, "duration": 856, "velocity": 84}, {"time": 155997, "pitch": 46, "duration": 632, "velocity": 93}, {"time": 155997, "pitch": 53, "duration": 642, "velocity": 71}, {"time": 156007, "pitch": 56, "duration": 672, "velocity": 85}, {"time": 156007, "pitch": 61, "duration": 692, "velocity": 77}, {"time": 156719, "pitch": 46, "duration": 1093, "velocity": 94}, {"time": 156719, "pitch": 53, "duration": 1123, "velocity": 84}, {"time": 156729, "pitch": 56, "duration": 1143, "velocity": 76}, {"time": 156729, "pitch": 61, "duration": 1183, "velocity": 71}, {"time": 157922, "pitch": 49, "duration": 1798, "velocity": 79}, {"time": 157972, "pitch": 52, "duration": 1778, "velocity": 75}, {"time": 158021, "pitch": 56, "duration": 1759, "velocity": 67}, {"time": 158071, "pitch": 58, "duration": 1740, "velocity": 84}, {"time": 159841, "pitch": 53, "duration": 922, "velocity": 83}, {"time": 160081, "pitch": 57, "duration": 672, "velocity": 77}, {"time": 160322, "pitch": 60, "duration": 411, "velocity": 86}, {"time": 160563, "pitch": 64, "duration": 200, "velocity": 80}, {"time": 160803, "pitch": 55, "duration": 916, "velocity": 84}, {"time": 161040, "pitch": 58, "duration": 679, "velocity": 77}, {"time": 161277, "pitch": 62, "duration": 391, "velocity": 86}, {"time": 161518, "pitch": 65, "duration": 191, "velocity": 80}, {"time": 161759, "pitch": 57, "duration": 922, "velocity": 83}, {"time": 161999, "pitch": 60, "duration": 672, "velocity": 77}, {"time": 162240, "pitch": 64, "duration": 411, "velocity": 86}, {"time": 162481, "pitch": 67, "duration": 200, "velocity": 80}, {"time": 162721, "pitch": 55, "duration": 916, "velocity": 84}, {"time": 162962, "pitch": 58, "duration": 675, "velocity": 77}, {"time": 163202, "pitch": 62, "duration": 386, "velocity": 86}, {"time": 163440, "pitch": 65, "duration": 187, "velocity": 80}, {"time": 163677, "pitch": 53, "duration": 922, "velocity": 83}, {"time": 163917, "pitch": 57, "duration": 672, "velocity": 77}, {"time": 164158, "pitch": 60, "duration": 411, "velocity": 86}, {"time": 164399, "pitch": 64, "duration": 200, "velocity": 80}, {"time": 164639, "pitch": 55, "duration": 923, "velocity": 84}, {"time": 164880, "pitch": 58, "duration": 682, "velocity": 77}, {"time": 165121, "pitch": 62, "duration": 391, "velocity": 86}, {"time": 165361, "pitch": 65, "duration": 191, "velocity": 80}, {"time": 165602, "pitch": 57, "duration": 916, "velocity": 83}, {"time": 165843, "pitch": 60, "duration": 665, "velocity": 77}, {"time": 166083, "pitch": 64, "duration": 405, "velocity": 86}, {"time": 166320, "pitch": 67, "duration": 198, "velocity": 80}, {"time": 166557, "pitch": 55, "duration": 923, "velocity": 84}, {"time": 166798, "pitch": 58, "duration": 682, "velocity": 77}, {"time": 167039, "pitch": 62, "duration": 391, "velocity": 86}, {"time": 167279, "pitch": 65, "duration": 191, "velocity": 80}, {"time": 167520, "pitch": 53, "duration": 922, "velocity": 83}, {"time": 167761, "pitch": 57, "duration": 671, "velocity": 77}, {"time": 168001, "pitch": 60, "duration": 411, "velocity": 86}, {"time": 168242, "pitch": 64, "duration": 200, "velocity": 80}, {"time": 168482, "pitch": 55, "duration": 916, "velocity": 84}, {"time": 168720, "pitch": 58, "duration": 678, "velocity": 77}, {"time": 168957, "pitch": 62, "duration": 391, "velocity": 86}, {"time": 169197, "pitch": 65, "duration": 191, "velocity": 80}, {"time": 169438, "pitch": 57, "duration": 922, "velocity": 83}, {"time": 169679, "pitch": 60, "duration": 671, "velocity": 77}, {"time": 169919, "pitch": 64, "duration": 411, "velocity": 86}, {"time": 170160, "pitch": 67, "duration": 200, "velocity": 80}, {"time": 170401, "pitch": 55, "duration": 922, "velocity": 84}, {"time": 170641, "pitch": 58, "duration": 682, "velocity": 77}, {"time": 170882, "pitch": 62, "duration": 391, "velocity": 86}, {"time": 171123, "pitch": 65, "duration": 190, "velocity": 80}, {"time": 171363, "pitch": 53, "duration": 923, "velocity": 83}, {"time": 171604, "pitch": 57, "duration": 672, "velocity": 77}, {"time": 171844, "pitch": 60, "duration": 412, "velocity": 86}, {"time": 172085, "pitch": 64, "duration": 201, "velocity": 80}, {"time": 172326, "pitch": 55, "duration": 922, "velocity": 84}, {"time": 172566, "pitch": 58, "duration": 682, "velocity": 77}, {"time": 172807, "pitch": 62, "duration": 391, "velocity": 86}, {"time": 173048, "pitch": 65, "duration": 190, "velocity": 80}, {"time": 173288, "pitch": 57, "duration": 923, "velocity": 83}, {"time": 173529, "pitch": 60, "duration": 672, "velocity": 77}, {"time": 173770, "pitch": 64, "duration": 411, "velocity": 86}, {"time": 174010, "pitch": 67, "duration": 201, "velocity": 80}, {"time": 174251, "pitch": 55, "duration": 922, "velocity": 84}, {"time": 174492, "pitch": 58, "duration": 681, "velocity": 77}, {"time": 174732, "pitch": 62, "duration": 391, "velocity": 86}, {"time": 174973, "pitch": 65, "duration": 190, "velocity": 80}, {"time": 175213, "pitch": 53, "duration": 923, "velocity": 83}, {"time": 175454, "pitch": 57, "duration": 672, "velocity": 77}, {"time": 175695, "pitch": 60, "duration": 411, "velocity": 86}, {"time": 175935, "pitch": 64, "duration": 201, "velocity": 80}, {"time": 176176, "pitch": 55, "duration": 922, "velocity": 84}, {"time": 176417, "pitch": 58, "duration": 681, "velocity": 77}, {"time": 176657, "pitch": 62, "duration": 391, "velocity": 86}, {"time": 176898, "pitch": 65, "duration": 190, "velocity": 80}, {"time": 177139, "pitch": 57, "duration": 922, "velocity": 83}, {"time": 177379, "pitch": 60, "duration": 672, "velocity": 77}, {"time": 177620, "pitch": 64, "duration": 411, "velocity": 86}, {"time": 177860, "pitch": 67, "duration": 201, "velocity": 80}, {"time": 178101, "pitch": 55, "duration": 923, "velocity": 84}, {"time": 178342, "pitch": 58, "duration": 682, "velocity": 77}, {"time": 178582, "pitch": 62, "duration": 391, "velocity": 86}, {"time": 178823, "pitch": 65, "duration": 191, "velocity": 80}], "annotations": [{"time": 335, "annotation": {"number": 7, "value": 105}, "group": "control_change"}, {"time": 351, "annotation": {"number": 11, "value": 100}, "group": "control_change"}, {"time": 367, "annotation": {"number": 10, "value": 110}, "group": "control_change"}, {"time": 383, "annotation": {"number": 91, "value": 80}, "group": "control_change"}, {"time": 399, "annotation": {"number": 93, "value": 0}, "group": "control_change"}, {"time": 415, "annotation": {"number": 101, "value": 0}, "group": "control_change"}, {"time": 431, "annotation": {"number": 100, "value": 0}, "group": "control_change"}, {"time": 447, "annotation": {"number": 6, "value": 12}, "group": "control_change"}, {"time": 463, "annotation": {"number": 101, "value": 127}, "group": "control_change"}, {"time": 479, "annotation": {"number": 100, "value": 127}, "group": "control_change"}]}]}