{"metadata": {"schema_version": "0.1", "title": "RWC-MDB-P-2001 No. 76: Chikai / Kousuke Morimoto", "copyright": "RWC Music Database. Copyright (C) 2001 Real World Computing Partnership (contact: Masataka GOTO <m.goto@aist.go.jp>)", "source_filename": "RM-P076.SMF_SYNC.MID", "source_format": "midi"}, "resolution": 480, "tempos": [{"time": 0, "qpm": 52.17391304347826}, {"time": 480, "qpm": 69.76744186046511}, {"time": 1440, "qpm": 70.58823529411765}, {"time": 1920, "qpm": 69.76744186046511}, {"time": 2880, "qpm": 70.58823529411765}, {"time": 3360, "qpm": 69.76744186046511}, {"time": 4800, "qpm": 70.58823529411765}, {"time": 5280, "qpm": 69.76744186046511}, {"time": 6240, "qpm": 70.58823529411765}, {"time": 6720, "qpm": 69.76744186046511}, {"time": 8160, "qpm": 70.58823529411765}, {"time": 8640, "qpm": 69.76744186046511}, {"time": 9600, "qpm": 70.58823529411765}, {"time": 10080, "qpm": 69.76744186046511}, {"time": 11520, "qpm": 70.58823529411765}, {"time": 12000, "qpm": 69.76744186046511}, {"time": 12960, "qpm": 70.58823529411765}, {"time": 13440, "qpm": 69.76744186046511}, {"time": 14880, "qpm": 70.58823529411765}, {"time": 15360, "qpm": 69.76744186046511}, {"time": 16320, "qpm": 70.58823529411765}, {"time": 16800, "qpm": 69.76744186046511}, {"time": 18240, "qpm": 70.58823529411765}, {"time": 18720, "qpm": 69.76744186046511}, {"time": 20160, "qpm": 70.58823529411765}, {"time": 20640, "qpm": 69.76744186046511}, {"time": 21120, "qpm": 70.58823529411765}, {"time": 21600, "qpm": 69.76744186046511}, {"time": 23520, "qpm": 70.58823529411765}, {"time": 24000, "qpm": 69.76744186046511}, {"time": 24960, "qpm": 70.58823529411765}, {"time": 25440, "qpm": 69.76744186046511}, {"time": 26400, "qpm": 70.58823529411765}, {"time": 26880, "qpm": 69.76744186046511}, {"time": 28320, "qpm": 70.58823529411765}, {"time": 28800, "qpm": 69.76744186046511}, {"time": 29760, "qpm": 70.58823529411765}, {"time": 30240, "qpm": 69.76744186046511}, {"time": 31680, "qpm": 70.58823529411765}, {"time": 32160, "qpm": 69.76744186046511}, {"time": 33120, "qpm": 70.58823529411765}, {"time": 33600, "qpm": 69.76744186046511}, {"time": 35040, "qpm": 70.58823529411765}, {"time": 35520, "qpm": 69.76744186046511}, {"time": 36480, "qpm": 70.58823529411765}, {"time": 36960, "qpm": 69.76744186046511}, {"time": 38400, "qpm": 70.58823529411765}, {"time": 38880, "qpm": 69.76744186046511}, {"time": 39840, "qpm": 70.58823529411765}, {"time": 40320, "qpm": 69.76744186046511}, {"time": 41760, "qpm": 70.58823529411765}, {"time": 42240, "qpm": 69.76744186046511}, {"time": 43200, "qpm": 70.58823529411765}, {"time": 43680, "qpm": 69.76744186046511}, {"time": 44640, "qpm": 70.58823529411765}, {"time": 45120, "qpm": 69.76744186046511}, {"time": 46560, "qpm": 70.58823529411765}, {"time": 47040, "qpm": 69.76744186046511}, {"time": 48480, "qpm": 70.58823529411765}, {"time": 48960, "qpm": 69.76744186046511}, {"time": 49920, "qpm": 70.58823529411765}, {"time": 50400, "qpm": 69.76744186046511}, {"time": 51840, "qpm": 70.58823529411765}, {"time": 52320, "qpm": 69.76744186046511}, {"time": 53280, "qpm": 70.58823529411765}, {"time": 53760, "qpm": 69.76744186046511}, {"time": 55200, "qpm": 70.58823529411765}, {"time": 55680, "qpm": 69.76744186046511}, {"time": 56640, "qpm": 70.58823529411765}, {"time": 57120, "qpm": 69.76744186046511}, {"time": 58560, "qpm": 70.58823529411765}, {"time": 59040, "qpm": 69.76744186046511}, {"time": 60000, "qpm": 70.58823529411765}, {"time": 60480, "qpm": 69.76744186046511}, {"time": 61920, "qpm": 70.58823529411765}, {"time": 62400, "qpm": 69.76744186046511}, {"time": 63360, "qpm": 70.58823529411765}, {"time": 63840, "qpm": 69.76744186046511}, {"time": 65280, "qpm": 70.58823529411765}, {"time": 65760, "qpm": 69.76744186046511}, {"time": 66720, "qpm": 70.58823529411765}, {"time": 67200, "qpm": 69.76744186046511}, {"time": 68640, "qpm": 70.58823529411765}, {"time": 69120, "qpm": 69.76744186046511}, {"time": 70080, "qpm": 70.58823529411765}, {"time": 70560, "qpm": 69.76744186046511}, {"time": 72000, "qpm": 70.58823529411765}, {"time": 72480, "qpm": 69.76744186046511}, {"time": 73440, "qpm": 70.58823529411765}, {"time": 73920, "qpm": 69.76744186046511}, {"time": 75360, "qpm": 70.58823529411765}, {"time": 75840, "qpm": 69.76744186046511}, {"time": 76800, "qpm": 70.58823529411765}, {"time": 77280, "qpm": 69.76744186046511}, {"time": 78720, "qpm": 70.58823529411765}, {"time": 79200, "qpm": 69.76744186046511}, {"time": 80160, "qpm": 70.58823529411765}, {"time": 80640, "qpm": 69.76744186046511}, {"time": 82080, "qpm": 70.58823529411765}, {"time": 82560, "qpm": 69.76744186046511}, {"time": 83520, "qpm": 70.58823529411765}, {"time": 84000, "qpm": 69.76744186046511}, {"time": 85440, "qpm": 70.58823529411765}, {"time": 85920, "qpm": 69.76744186046511}, {"time": 86880, "qpm": 70.58823529411765}, {"time": 87360, "qpm": 69.76744186046511}, {"time": 88320, "qpm": 70.58823529411765}, {"time": 88800, "qpm": 69.76744186046511}, {"time": 90240, "qpm": 70.58823529411765}, {"time": 90720, "qpm": 69.76744186046511}, {"time": 91680, "qpm": 70.58823529411765}, {"time": 92160, "qpm": 69.76744186046511}, {"time": 93600, "qpm": 70.58823529411765}, {"time": 94080, "qpm": 69.76744186046511}, {"time": 95040, "qpm": 70.58823529411765}, {"time": 95520, "qpm": 69.76744186046511}, {"time": 96960, "qpm": 70.58823529411765}, {"time": 97440, "qpm": 69.76744186046511}, {"time": 98880, "qpm": 70.58823529411765}, {"time": 99360, "qpm": 69.76744186046511}, {"time": 100320, "qpm": 70.58823529411765}, {"time": 100800, "qpm": 69.76744186046511}, {"time": 101760, "qpm": 70.58823529411765}, {"time": 102240, "qpm": 69.76744186046511}, {"time": 103680, "qpm": 70.58823529411765}, {"time": 104160, "qpm": 69.76744186046511}, {"time": 105120, "qpm": 70.58823529411765}, {"time": 105600, "qpm": 69.76744186046511}, {"time": 107040, "qpm": 70.58823529411765}, {"time": 107520, "qpm": 69.76744186046511}, {"time": 108480, "qpm": 70.58823529411765}, {"time": 108960, "qpm": 69.76744186046511}, {"time": 110400, "qpm": 70.58823529411765}, {"time": 110880, "qpm": 69.76744186046511}, {"time": 111840, "qpm": 70.58823529411765}, {"time": 112320, "qpm": 69.76744186046511}, {"time": 113760, "qpm": 70.58823529411765}, {"time": 114240, "qpm": 69.76744186046511}, {"time": 115200, "qpm": 70.58823529411765}, {"time": 115680, "qpm": 69.76744186046511}, {"time": 117120, "qpm": 70.58823529411765}, {"time": 117600, "qpm": 69.76744186046511}, {"time": 118560, "qpm": 70.58823529411765}, {"time": 119040, "qpm": 69.76744186046511}, {"time": 120000, "qpm": 63.829787234042556}, {"time": 120480, "qpm": 57.69230769230769}, {"time": 120960, "qpm": 56.60377358490566}, {"time": 121440, "qpm": 59.40594059405941}, {"time": 121920, "qpm": 176.47058823529412}, {"time": 122400, "qpm": 153.84615384615384}, {"time": 122880, "qpm": 133.33333333333334}, {"time": 123360, "qpm": 51.724137931034484}], "key_signatures": [{"time": 0, "root": 0, "mode": "major"}], "time_signatures": [{"time": 0, "numerator": 1, "denominator": 4}, {"time": 480, "numerator": 4, "denominator": 4}, {"time": 113760, "numerator": 2, "denominator": 4}, {"time": 114720, "numerator": 4, "denominator": 4}, {"time": 120480, "numerator": 7, "denominator": 4}], "tracks": [{"program": 0, "is_drum": false, "name": "Guitar R", "annotations": [{"time": 285, "annotation": {"number": 0, "value": 0}, "group": "control_change"}, {"time": 285, "annotation": {"number": 32, "value": 2}, "group": "control_change"}]}, {"program": 25, "is_drum": false, "name": "Guitar R", "notes": [{"time": 482, "pitch": 48, "duration": 476, "velocity": 110}, {"time": 492, "pitch": 52, "duration": 466, "velocity": 100}, {"time": 502, "pitch": 55, "duration": 456, "velocity": 100}, {"time": 512, "pitch": 60, "duration": 446, "velocity": 105}, {"time": 521, "pitch": 64, "duration": 437, "velocity": 110}, {"time": 958, "pitch": 52, "duration": 10, "velocity": 50}, {"time": 958, "pitch": 55, "duration": 10, "velocity": 50}, {"time": 958, "pitch": 60, "duration": 10, "velocity": 50}, {"time": 958, "pitch": 64, "duration": 10, "velocity": 50}, {"time": 1199, "pitch": 48, "duration": 482, "velocity": 110}, {"time": 1209, "pitch": 52, "duration": 592, "velocity": 100}, {"time": 1209, "pitch": 55, "duration": 951, "velocity": 100}, {"time": 1219, "pitch": 60, "duration": 822, "velocity": 105}, {"time": 1219, "pitch": 65, "duration": 703, "velocity": 110}, {"time": 1681, "pitch": 48, "duration": 697, "velocity": 110}, {"time": 1801, "pitch": 52, "duration": 577, "velocity": 95}, {"time": 1922, "pitch": 65, "duration": 456, "velocity": 110}, {"time": 2041, "pitch": 60, "duration": 337, "velocity": 95}, {"time": 2160, "pitch": 55, "duration": 218, "velocity": 90}, {"time": 2398, "pitch": 48, "duration": 482, "velocity": 110}, {"time": 2408, "pitch": 52, "duration": 472, "velocity": 100}, {"time": 2418, "pitch": 59, "duration": 462, "velocity": 100}, {"time": 2428, "pitch": 64, "duration": 452, "velocity": 105}, {"time": 2438, "pitch": 67, "duration": 442, "velocity": 110}, {"time": 2880, "pitch": 48, "duration": 10, "velocity": 50}, {"time": 2880, "pitch": 52, "duration": 10, "velocity": 50}, {"time": 2880, "pitch": 59, "duration": 10, "velocity": 50}, {"time": 2880, "pitch": 64, "duration": 10, "velocity": 50}, {"time": 2880, "pitch": 67, "duration": 10, "velocity": 50}, {"time": 3121, "pitch": 48, "duration": 479, "velocity": 110}, {"time": 3131, "pitch": 52, "duration": 588, "velocity": 100}, {"time": 3131, "pitch": 55, "duration": 948, "velocity": 100}, {"time": 3141, "pitch": 60, "duration": 817, "velocity": 105}, {"time": 3141, "pitch": 65, "duration": 697, "velocity": 110}, {"time": 3600, "pitch": 48, "duration": 700, "velocity": 110}, {"time": 3838, "pitch": 65, "duration": 462, "velocity": 120}, {"time": 4079, "pitch": 55, "duration": 221, "velocity": 90}, {"time": 4320, "pitch": 48, "duration": 482, "velocity": 110}, {"time": 4330, "pitch": 52, "duration": 472, "velocity": 100}, {"time": 4340, "pitch": 55, "duration": 462, "velocity": 100}, {"time": 4350, "pitch": 60, "duration": 452, "velocity": 105}, {"time": 4360, "pitch": 64, "duration": 442, "velocity": 110}, {"time": 4802, "pitch": 52, "duration": 9, "velocity": 50}, {"time": 4802, "pitch": 55, "duration": 9, "velocity": 50}, {"time": 4802, "pitch": 60, "duration": 9, "velocity": 50}, {"time": 4802, "pitch": 64, "duration": 9, "velocity": 50}, {"time": 5040, "pitch": 48, "duration": 479, "velocity": 110}, {"time": 5050, "pitch": 52, "duration": 589, "velocity": 100}, {"time": 5050, "pitch": 55, "duration": 951, "velocity": 100}, {"time": 5059, "pitch": 60, "duration": 821, "velocity": 105}, {"time": 5059, "pitch": 65, "duration": 701, "velocity": 110}, {"time": 5519, "pitch": 48, "duration": 702, "velocity": 110}, {"time": 5639, "pitch": 52, "duration": 582, "velocity": 95}, {"time": 5760, "pitch": 65, "duration": 461, "velocity": 110}, {"time": 5880, "pitch": 60, "duration": 341, "velocity": 95}, {"time": 6001, "pitch": 55, "duration": 220, "velocity": 90}, {"time": 6241, "pitch": 48, "duration": 477, "velocity": 110}, {"time": 6251, "pitch": 52, "duration": 467, "velocity": 100}, {"time": 6261, "pitch": 59, "duration": 457, "velocity": 100}, {"time": 6271, "pitch": 64, "duration": 447, "velocity": 105}, {"time": 6281, "pitch": 67, "duration": 437, "velocity": 110}, {"time": 6718, "pitch": 48, "duration": 10, "velocity": 50}, {"time": 6718, "pitch": 52, "duration": 10, "velocity": 50}, {"time": 6718, "pitch": 59, "duration": 10, "velocity": 50}, {"time": 6718, "pitch": 64, "duration": 10, "velocity": 50}, {"time": 6718, "pitch": 67, "duration": 10, "velocity": 50}, {"time": 6959, "pitch": 48, "duration": 481, "velocity": 110}, {"time": 6969, "pitch": 52, "duration": 592, "velocity": 100}, {"time": 6969, "pitch": 55, "duration": 951, "velocity": 100}, {"time": 6979, "pitch": 60, "duration": 821, "velocity": 105}, {"time": 6979, "pitch": 65, "duration": 702, "velocity": 110}, {"time": 7440, "pitch": 48, "duration": 698, "velocity": 110}, {"time": 7681, "pitch": 65, "duration": 457, "velocity": 110}, {"time": 7920, "pitch": 55, "duration": 218, "velocity": 90}, {"time": 8158, "pitch": 48, "duration": 481, "velocity": 110}, {"time": 8168, "pitch": 52, "duration": 471, "velocity": 100}, {"time": 8178, "pitch": 55, "duration": 461, "velocity": 100}, {"time": 8188, "pitch": 60, "duration": 451, "velocity": 105}, {"time": 8198, "pitch": 64, "duration": 441, "velocity": 110}, {"time": 8639, "pitch": 52, "duration": 11, "velocity": 50}, {"time": 8639, "pitch": 55, "duration": 11, "velocity": 50}, {"time": 8639, "pitch": 60, "duration": 11, "velocity": 50}, {"time": 8639, "pitch": 64, "duration": 11, "velocity": 50}, {"time": 8880, "pitch": 48, "duration": 479, "velocity": 110}, {"time": 8890, "pitch": 52, "duration": 1169, "velocity": 100}, {"time": 8890, "pitch": 55, "duration": 948, "velocity": 100}, {"time": 8900, "pitch": 60, "duration": 1159, "velocity": 105}, {"time": 8900, "pitch": 65, "duration": 698, "velocity": 110}, {"time": 9359, "pitch": 48, "duration": 700, "velocity": 110}, {"time": 9598, "pitch": 65, "duration": 461, "velocity": 100}, {"time": 9838, "pitch": 55, "duration": 221, "velocity": 90}, {"time": 10079, "pitch": 48, "duration": 482, "velocity": 110}, {"time": 10089, "pitch": 52, "duration": 472, "velocity": 100}, {"time": 10099, "pitch": 59, "duration": 462, "velocity": 100}, {"time": 10110, "pitch": 64, "duration": 451, "velocity": 105}, {"time": 10120, "pitch": 67, "duration": 441, "velocity": 110}, {"time": 10561, "pitch": 48, "duration": 10, "velocity": 50}, {"time": 10561, "pitch": 52, "duration": 10, "velocity": 50}, {"time": 10561, "pitch": 59, "duration": 10, "velocity": 50}, {"time": 10561, "pitch": 64, "duration": 10, "velocity": 50}, {"time": 10561, "pitch": 67, "duration": 10, "velocity": 50}, {"time": 10799, "pitch": 48, "duration": 700, "velocity": 110}, {"time": 10809, "pitch": 52, "duration": 690, "velocity": 100}, {"time": 10809, "pitch": 55, "duration": 690, "velocity": 100}, {"time": 10819, "pitch": 60, "duration": 680, "velocity": 105}, {"time": 10819, "pitch": 64, "duration": 680, "velocity": 110}, {"time": 11519, "pitch": 47, "duration": 462, "velocity": 110}, {"time": 11529, "pitch": 50, "duration": 462, "velocity": 100}, {"time": 11529, "pitch": 55, "duration": 452, "velocity": 100}, {"time": 11539, "pitch": 59, "duration": 452, "velocity": 105}, {"time": 11539, "pitch": 67, "duration": 442, "velocity": 110}, {"time": 12001, "pitch": 45, "duration": 938, "velocity": 100}, {"time": 12011, "pitch": 52, "duration": 707, "velocity": 90}, {"time": 12011, "pitch": 57, "duration": 228, "velocity": 90}, {"time": 12021, "pitch": 60, "duration": 456, "velocity": 95}, {"time": 12021, "pitch": 64, "duration": 938, "velocity": 100}, {"time": 12239, "pitch": 57, "duration": 700, "velocity": 105}, {"time": 12477, "pitch": 60, "duration": 462, "velocity": 110}, {"time": 12718, "pitch": 52, "duration": 221, "velocity": 100}, {"time": 12959, "pitch": 43, "duration": 938, "velocity": 100}, {"time": 12969, "pitch": 52, "duration": 710, "velocity": 90}, {"time": 12969, "pitch": 55, "duration": 231, "velocity": 90}, {"time": 12979, "pitch": 60, "duration": 462, "velocity": 95}, {"time": 12979, "pitch": 64, "duration": 938, "velocity": 100}, {"time": 13200, "pitch": 55, "duration": 697, "velocity": 105}, {"time": 13441, "pitch": 60, "duration": 456, "velocity": 110}, {"time": 13679, "pitch": 52, "duration": 218, "velocity": 100}, {"time": 13917, "pitch": 41, "duration": 944, "velocity": 100}, {"time": 13927, "pitch": 53, "duration": 934, "velocity": 90}, {"time": 13927, "pitch": 57, "duration": 231, "velocity": 90}, {"time": 13937, "pitch": 60, "duration": 462, "velocity": 95}, {"time": 13937, "pitch": 65, "duration": 703, "velocity": 100}, {"time": 14158, "pitch": 57, "duration": 703, "velocity": 105}, {"time": 14399, "pitch": 60, "duration": 462, "velocity": 110}, {"time": 14640, "pitch": 65, "duration": 221, "velocity": 100}, {"time": 14881, "pitch": 43, "duration": 258, "velocity": 100}, {"time": 14891, "pitch": 50, "duration": 238, "velocity": 95}, {"time": 14891, "pitch": 55, "duration": 238, "velocity": 95}, {"time": 14901, "pitch": 60, "duration": 218, "velocity": 100}, {"time": 14901, "pitch": 67, "duration": 218, "velocity": 105}, {"time": 15119, "pitch": 67, "duration": 258, "velocity": 85}, {"time": 15129, "pitch": 55, "duration": 238, "velocity": 75}, {"time": 15129, "pitch": 60, "duration": 238, "velocity": 80}, {"time": 15139, "pitch": 43, "duration": 218, "velocity": 60}, {"time": 15139, "pitch": 50, "duration": 218, "velocity": 75}, {"time": 15357, "pitch": 43, "duration": 261, "velocity": 100}, {"time": 15367, "pitch": 50, "duration": 241, "velocity": 95}, {"time": 15367, "pitch": 55, "duration": 241, "velocity": 95}, {"time": 15377, "pitch": 59, "duration": 221, "velocity": 100}, {"time": 15377, "pitch": 67, "duration": 221, "velocity": 105}, {"time": 15598, "pitch": 67, "duration": 221, "velocity": 85}, {"time": 15608, "pitch": 55, "duration": 211, "velocity": 75}, {"time": 15608, "pitch": 59, "duration": 211, "velocity": 80}, {"time": 15618, "pitch": 43, "duration": 201, "velocity": 60}, {"time": 15618, "pitch": 50, "duration": 201, "velocity": 75}, {"time": 15839, "pitch": 48, "duration": 482, "velocity": 110}, {"time": 15849, "pitch": 52, "duration": 472, "velocity": 100}, {"time": 15859, "pitch": 55, "duration": 462, "velocity": 100}, {"time": 15869, "pitch": 60, "duration": 452, "velocity": 105}, {"time": 15879, "pitch": 64, "duration": 442, "velocity": 110}, {"time": 16321, "pitch": 52, "duration": 10, "velocity": 50}, {"time": 16321, "pitch": 55, "duration": 10, "velocity": 50}, {"time": 16321, "pitch": 60, "duration": 10, "velocity": 50}, {"time": 16321, "pitch": 64, "duration": 10, "velocity": 50}, {"time": 16562, "pitch": 48, "duration": 479, "velocity": 110}, {"time": 16572, "pitch": 52, "duration": 1169, "velocity": 100}, {"time": 16572, "pitch": 55, "duration": 948, "velocity": 100}, {"time": 16582, "pitch": 60, "duration": 1159, "velocity": 105}, {"time": 16582, "pitch": 65, "duration": 697, "velocity": 110}, {"time": 17041, "pitch": 48, "duration": 700, "velocity": 110}, {"time": 17279, "pitch": 65, "duration": 462, "velocity": 100}, {"time": 17520, "pitch": 55, "duration": 221, "velocity": 90}, {"time": 17761, "pitch": 48, "duration": 482, "velocity": 110}, {"time": 17771, "pitch": 52, "duration": 472, "velocity": 100}, {"time": 17781, "pitch": 59, "duration": 462, "velocity": 100}, {"time": 17791, "pitch": 64, "duration": 452, "velocity": 105}, {"time": 17801, "pitch": 67, "duration": 442, "velocity": 110}, {"time": 18243, "pitch": 48, "duration": 10, "velocity": 50}, {"time": 18243, "pitch": 52, "duration": 10, "velocity": 50}, {"time": 18243, "pitch": 59, "duration": 10, "velocity": 50}, {"time": 18243, "pitch": 64, "duration": 10, "velocity": 50}, {"time": 18243, "pitch": 67, "duration": 10, "velocity": 50}, {"time": 18481, "pitch": 48, "duration": 700, "velocity": 110}, {"time": 18491, "pitch": 52, "duration": 690, "velocity": 100}, {"time": 18491, "pitch": 55, "duration": 690, "velocity": 100}, {"time": 18501, "pitch": 60, "duration": 680, "velocity": 105}, {"time": 18501, "pitch": 64, "duration": 680, "velocity": 110}, {"time": 19201, "pitch": 47, "duration": 462, "velocity": 110}, {"time": 19211, "pitch": 50, "duration": 462, "velocity": 100}, {"time": 19211, "pitch": 55, "duration": 452, "velocity": 100}, {"time": 19221, "pitch": 59, "duration": 452, "velocity": 105}, {"time": 19221, "pitch": 67, "duration": 442, "velocity": 110}, {"time": 19683, "pitch": 45, "duration": 938, "velocity": 100}, {"time": 19693, "pitch": 52, "duration": 707, "velocity": 90}, {"time": 19693, "pitch": 57, "duration": 228, "velocity": 90}, {"time": 19703, "pitch": 60, "duration": 456, "velocity": 95}, {"time": 19703, "pitch": 64, "duration": 938, "velocity": 100}, {"time": 19921, "pitch": 57, "duration": 700, "velocity": 105}, {"time": 20159, "pitch": 60, "duration": 462, "velocity": 110}, {"time": 20400, "pitch": 52, "duration": 221, "velocity": 100}, {"time": 20641, "pitch": 43, "duration": 938, "velocity": 100}, {"time": 20651, "pitch": 52, "duration": 710, "velocity": 90}, {"time": 20651, "pitch": 55, "duration": 231, "velocity": 90}, {"time": 20661, "pitch": 60, "duration": 462, "velocity": 95}, {"time": 20661, "pitch": 64, "duration": 938, "velocity": 100}, {"time": 20882, "pitch": 55, "duration": 697, "velocity": 105}, {"time": 21123, "pitch": 60, "duration": 456, "velocity": 110}, {"time": 21361, "pitch": 52, "duration": 218, "velocity": 100}, {"time": 21599, "pitch": 41, "duration": 943, "velocity": 100}, {"time": 21609, "pitch": 53, "duration": 933, "velocity": 90}, {"time": 21609, "pitch": 57, "duration": 231, "velocity": 90}, {"time": 21619, "pitch": 60, "duration": 462, "velocity": 95}, {"time": 21619, "pitch": 65, "duration": 703, "velocity": 100}, {"time": 21840, "pitch": 57, "duration": 702, "velocity": 105}, {"time": 22081, "pitch": 60, "duration": 461, "velocity": 110}, {"time": 22322, "pitch": 65, "duration": 220, "velocity": 100}, {"time": 22563, "pitch": 43, "duration": 257, "velocity": 100}, {"time": 22572, "pitch": 50, "duration": 239, "velocity": 95}, {"time": 22572, "pitch": 55, "duration": 239, "velocity": 95}, {"time": 22582, "pitch": 60, "duration": 219, "velocity": 100}, {"time": 22582, "pitch": 67, "duration": 219, "velocity": 105}, {"time": 22801, "pitch": 67, "duration": 258, "velocity": 85}, {"time": 22811, "pitch": 55, "duration": 238, "velocity": 75}, {"time": 22811, "pitch": 60, "duration": 238, "velocity": 80}, {"time": 22820, "pitch": 43, "duration": 219, "velocity": 60}, {"time": 22820, "pitch": 50, "duration": 219, "velocity": 75}, {"time": 23039, "pitch": 43, "duration": 261, "velocity": 100}, {"time": 23049, "pitch": 50, "duration": 241, "velocity": 95}, {"time": 23049, "pitch": 55, "duration": 241, "velocity": 95}, {"time": 23059, "pitch": 59, "duration": 221, "velocity": 100}, {"time": 23059, "pitch": 67, "duration": 221, "velocity": 105}, {"time": 23280, "pitch": 67, "duration": 221, "velocity": 85}, {"time": 23290, "pitch": 55, "duration": 211, "velocity": 75}, {"time": 23290, "pitch": 59, "duration": 211, "velocity": 80}, {"time": 23300, "pitch": 43, "duration": 201, "velocity": 60}, {"time": 23300, "pitch": 50, "duration": 201, "velocity": 75}, {"time": 23521, "pitch": 41, "duration": 261, "velocity": 90}, {"time": 23531, "pitch": 53, "duration": 241, "velocity": 85}, {"time": 23531, "pitch": 57, "duration": 241, "velocity": 85}, {"time": 23541, "pitch": 60, "duration": 221, "velocity": 90}, {"time": 23541, "pitch": 64, "duration": 221, "velocity": 95}, {"time": 23762, "pitch": 64, "duration": 260, "velocity": 85}, {"time": 23772, "pitch": 57, "duration": 240, "velocity": 75}, {"time": 23772, "pitch": 60, "duration": 240, "velocity": 80}, {"time": 23782, "pitch": 48, "duration": 220, "velocity": 60}, {"time": 23782, "pitch": 53, "duration": 220, "velocity": 75}, {"time": 24002, "pitch": 48, "duration": 258, "velocity": 100}, {"time": 24012, "pitch": 53, "duration": 238, "velocity": 95}, {"time": 24012, "pitch": 57, "duration": 238, "velocity": 100}, {"time": 24022, "pitch": 60, "duration": 219, "velocity": 105}, {"time": 24022, "pitch": 64, "duration": 219, "velocity": 110}, {"time": 24241, "pitch": 64, "duration": 218, "velocity": 85}, {"time": 24250, "pitch": 57, "duration": 209, "velocity": 75}, {"time": 24250, "pitch": 60, "duration": 209, "velocity": 80}, {"time": 24260, "pitch": 48, "duration": 199, "velocity": 60}, {"time": 24260, "pitch": 53, "duration": 199, "velocity": 75}, {"time": 24479, "pitch": 40, "duration": 261, "velocity": 90}, {"time": 24489, "pitch": 52, "duration": 241, "velocity": 85}, {"time": 24489, "pitch": 55, "duration": 241, "velocity": 85}, {"time": 24499, "pitch": 60, "duration": 221, "velocity": 90}, {"time": 24499, "pitch": 64, "duration": 221, "velocity": 95}, {"time": 24720, "pitch": 64, "duration": 261, "velocity": 85}, {"time": 24730, "pitch": 55, "duration": 241, "velocity": 75}, {"time": 24730, "pitch": 60, "duration": 241, "velocity": 80}, {"time": 24740, "pitch": 48, "duration": 221, "velocity": 60}, {"time": 24740, "pitch": 52, "duration": 221, "velocity": 75}, {"time": 24961, "pitch": 48, "duration": 261, "velocity": 100}, {"time": 24971, "pitch": 52, "duration": 241, "velocity": 95}, {"time": 24971, "pitch": 55, "duration": 241, "velocity": 100}, {"time": 24981, "pitch": 60, "duration": 220, "velocity": 105}, {"time": 24981, "pitch": 64, "duration": 220, "velocity": 110}, {"time": 25201, "pitch": 64, "duration": 221, "velocity": 85}, {"time": 25212, "pitch": 55, "duration": 210, "velocity": 75}, {"time": 25212, "pitch": 60, "duration": 210, "velocity": 80}, {"time": 25222, "pitch": 48, "duration": 200, "velocity": 60}, {"time": 25222, "pitch": 52, "duration": 200, "velocity": 75}, {"time": 25442, "pitch": 50, "duration": 258, "velocity": 90}, {"time": 25452, "pitch": 57, "duration": 238, "velocity": 85}, {"time": 25462, "pitch": 62, "duration": 218, "velocity": 90}, {"time": 25462, "pitch": 65, "duration": 218, "velocity": 95}, {"time": 25680, "pitch": 65, "duration": 259, "velocity": 85}, {"time": 25690, "pitch": 57, "duration": 239, "velocity": 75}, {"time": 25690, "pitch": 62, "duration": 239, "velocity": 80}, {"time": 25700, "pitch": 50, "duration": 219, "velocity": 60}, {"time": 25919, "pitch": 50, "duration": 261, "velocity": 100}, {"time": 25929, "pitch": 57, "duration": 241, "velocity": 100}, {"time": 25939, "pitch": 62, "duration": 220, "velocity": 105}, {"time": 25939, "pitch": 65, "duration": 220, "velocity": 110}, {"time": 26159, "pitch": 65, "duration": 221, "velocity": 85}, {"time": 26170, "pitch": 57, "duration": 210, "velocity": 75}, {"time": 26170, "pitch": 62, "duration": 210, "velocity": 80}, {"time": 26180, "pitch": 50, "duration": 200, "velocity": 60}, {"time": 26400, "pitch": 48, "duration": 261, "velocity": 90}, {"time": 26410, "pitch": 52, "duration": 241, "velocity": 85}, {"time": 26410, "pitch": 55, "duration": 241, "velocity": 85}, {"time": 26421, "pitch": 60, "duration": 220, "velocity": 90}, {"time": 26421, "pitch": 64, "duration": 220, "velocity": 95}, {"time": 26641, "pitch": 64, "duration": 261, "velocity": 85}, {"time": 26651, "pitch": 55, "duration": 241, "velocity": 75}, {"time": 26651, "pitch": 60, "duration": 241, "velocity": 80}, {"time": 26661, "pitch": 48, "duration": 221, "velocity": 60}, {"time": 26661, "pitch": 52, "duration": 221, "velocity": 75}, {"time": 26882, "pitch": 48, "duration": 258, "velocity": 100}, {"time": 26892, "pitch": 52, "duration": 238, "velocity": 95}, {"time": 26892, "pitch": 55, "duration": 238, "velocity": 100}, {"time": 26902, "pitch": 60, "duration": 218, "velocity": 105}, {"time": 26902, "pitch": 64, "duration": 218, "velocity": 110}, {"time": 27120, "pitch": 64, "duration": 219, "velocity": 85}, {"time": 27130, "pitch": 55, "duration": 209, "velocity": 75}, {"time": 27130, "pitch": 60, "duration": 209, "velocity": 80}, {"time": 27140, "pitch": 48, "duration": 199, "velocity": 60}, {"time": 27140, "pitch": 52, "duration": 199, "velocity": 75}, {"time": 27358, "pitch": 41, "duration": 261, "velocity": 90}, {"time": 27369, "pitch": 53, "duration": 240, "velocity": 85}, {"time": 27369, "pitch": 57, "duration": 240, "velocity": 85}, {"time": 27379, "pitch": 60, "duration": 220, "velocity": 90}, {"time": 27379, "pitch": 64, "duration": 220, "velocity": 95}, {"time": 27599, "pitch": 64, "duration": 261, "velocity": 85}, {"time": 27609, "pitch": 57, "duration": 241, "velocity": 75}, {"time": 27609, "pitch": 60, "duration": 241, "velocity": 80}, {"time": 27619, "pitch": 48, "duration": 221, "velocity": 60}, {"time": 27619, "pitch": 53, "duration": 221, "velocity": 75}, {"time": 27840, "pitch": 48, "duration": 261, "velocity": 100}, {"time": 27850, "pitch": 53, "duration": 241, "velocity": 95}, {"time": 27850, "pitch": 57, "duration": 241, "velocity": 100}, {"time": 27860, "pitch": 60, "duration": 221, "velocity": 105}, {"time": 27860, "pitch": 64, "duration": 221, "velocity": 110}, {"time": 28081, "pitch": 64, "duration": 221, "velocity": 85}, {"time": 28091, "pitch": 57, "duration": 211, "velocity": 75}, {"time": 28091, "pitch": 60, "duration": 211, "velocity": 80}, {"time": 28101, "pitch": 48, "duration": 201, "velocity": 60}, {"time": 28101, "pitch": 53, "duration": 201, "velocity": 75}, {"time": 28322, "pitch": 40, "duration": 258, "velocity": 90}, {"time": 28332, "pitch": 52, "duration": 238, "velocity": 85}, {"time": 28332, "pitch": 56, "duration": 238, "velocity": 85}, {"time": 28342, "pitch": 59, "duration": 218, "velocity": 90}, {"time": 28342, "pitch": 64, "duration": 218, "velocity": 95}, {"time": 28560, "pitch": 64, "duration": 258, "velocity": 85}, {"time": 28570, "pitch": 56, "duration": 238, "velocity": 75}, {"time": 28570, "pitch": 59, "duration": 238, "velocity": 80}, {"time": 28580, "pitch": 47, "duration": 218, "velocity": 60}, {"time": 28580, "pitch": 52, "duration": 218, "velocity": 75}, {"time": 28798, "pitch": 47, "duration": 261, "velocity": 100}, {"time": 28808, "pitch": 52, "duration": 241, "velocity": 95}, {"time": 28808, "pitch": 56, "duration": 241, "velocity": 100}, {"time": 28818, "pitch": 59, "duration": 221, "velocity": 105}, {"time": 28818, "pitch": 64, "duration": 221, "velocity": 110}, {"time": 29039, "pitch": 64, "duration": 221, "velocity": 85}, {"time": 29049, "pitch": 56, "duration": 211, "velocity": 75}, {"time": 29049, "pitch": 59, "duration": 211, "velocity": 80}, {"time": 29059, "pitch": 47, "duration": 201, "velocity": 60}, {"time": 29059, "pitch": 52, "duration": 201, "velocity": 75}, {"time": 29280, "pitch": 45, "duration": 482, "velocity": 110}, {"time": 29290, "pitch": 52, "duration": 472, "velocity": 100}, {"time": 29300, "pitch": 57, "duration": 462, "velocity": 100}, {"time": 29310, "pitch": 60, "duration": 452, "velocity": 105}, {"time": 29320, "pitch": 64, "duration": 442, "velocity": 110}, {"time": 29762, "pitch": 45, "duration": 10, "velocity": 50}, {"time": 29762, "pitch": 52, "duration": 10, "velocity": 50}, {"time": 29762, "pitch": 57, "duration": 10, "velocity": 50}, {"time": 29762, "pitch": 60, "duration": 10, "velocity": 50}, {"time": 29762, "pitch": 64, "duration": 10, "velocity": 50}, {"time": 30000, "pitch": 64, "duration": 479, "velocity": 110}, {"time": 30010, "pitch": 57, "duration": 720, "velocity": 100}, {"time": 30010, "pitch": 60, "duration": 730, "velocity": 100}, {"time": 30020, "pitch": 45, "duration": 459, "velocity": 110}, {"time": 30020, "pitch": 52, "duration": 710, "velocity": 105}, {"time": 30479, "pitch": 45, "duration": 241, "velocity": 100}, {"time": 30720, "pitch": 45, "duration": 261, "velocity": 100}, {"time": 30730, "pitch": 52, "duration": 241, "velocity": 95}, {"time": 30730, "pitch": 57, "duration": 241, "velocity": 95}, {"time": 30740, "pitch": 60, "duration": 221, "velocity": 100}, {"time": 30740, "pitch": 64, "duration": 221, "velocity": 105}, {"time": 30961, "pitch": 64, "duration": 221, "velocity": 95}, {"time": 30971, "pitch": 57, "duration": 211, "velocity": 85}, {"time": 30971, "pitch": 60, "duration": 211, "velocity": 90}, {"time": 30981, "pitch": 45, "duration": 201, "velocity": 70}, {"time": 30981, "pitch": 52, "duration": 201, "velocity": 85}, {"time": 31202, "pitch": 43, "duration": 258, "velocity": 90}, {"time": 31212, "pitch": 50, "duration": 238, "velocity": 85}, {"time": 31212, "pitch": 57, "duration": 238, "velocity": 85}, {"time": 31222, "pitch": 62, "duration": 218, "velocity": 90}, {"time": 31222, "pitch": 65, "duration": 218, "velocity": 95}, {"time": 31440, "pitch": 65, "duration": 258, "velocity": 85}, {"time": 31450, "pitch": 57, "duration": 238, "velocity": 75}, {"time": 31450, "pitch": 62, "duration": 238, "velocity": 80}, {"time": 31460, "pitch": 43, "duration": 218, "velocity": 60}, {"time": 31460, "pitch": 50, "duration": 218, "velocity": 75}, {"time": 31678, "pitch": 43, "duration": 261, "velocity": 100}, {"time": 31688, "pitch": 50, "duration": 241, "velocity": 95}, {"time": 31688, "pitch": 57, "duration": 241, "velocity": 100}, {"time": 31698, "pitch": 62, "duration": 221, "velocity": 105}, {"time": 31698, "pitch": 65, "duration": 221, "velocity": 110}, {"time": 31919, "pitch": 65, "duration": 261, "velocity": 85}, {"time": 31929, "pitch": 57, "duration": 241, "velocity": 75}, {"time": 31929, "pitch": 62, "duration": 241, "velocity": 80}, {"time": 31939, "pitch": 43, "duration": 221, "velocity": 60}, {"time": 31939, "pitch": 50, "duration": 221, "velocity": 75}, {"time": 32160, "pitch": 43, "duration": 261, "velocity": 100}, {"time": 32170, "pitch": 50, "duration": 241, "velocity": 95}, {"time": 32170, "pitch": 57, "duration": 241, "velocity": 95}, {"time": 32180, "pitch": 62, "duration": 221, "velocity": 100}, {"time": 32180, "pitch": 65, "duration": 221, "velocity": 105}, {"time": 32401, "pitch": 65, "duration": 261, "velocity": 95}, {"time": 32411, "pitch": 57, "duration": 241, "velocity": 85}, {"time": 32411, "pitch": 62, "duration": 241, "velocity": 90}, {"time": 32421, "pitch": 43, "duration": 221, "velocity": 70}, {"time": 32421, "pitch": 50, "duration": 221, "velocity": 85}, {"time": 32642, "pitch": 43, "duration": 456, "velocity": 100}, {"time": 32652, "pitch": 50, "duration": 446, "velocity": 95}, {"time": 32652, "pitch": 57, "duration": 446, "velocity": 100}, {"time": 32662, "pitch": 62, "duration": 436, "velocity": 105}, {"time": 32662, "pitch": 65, "duration": 436, "velocity": 110}, {"time": 33118, "pitch": 48, "duration": 261, "velocity": 90}, {"time": 33128, "pitch": 52, "duration": 241, "velocity": 85}, {"time": 33128, "pitch": 55, "duration": 241, "velocity": 85}, {"time": 33138, "pitch": 60, "duration": 221, "velocity": 90}, {"time": 33138, "pitch": 64, "duration": 221, "velocity": 95}, {"time": 33359, "pitch": 64, "duration": 261, "velocity": 75}, {"time": 33369, "pitch": 55, "duration": 241, "velocity": 65}, {"time": 33369, "pitch": 60, "duration": 241, "velocity": 70}, {"time": 33379, "pitch": 48, "duration": 221, "velocity": 50}, {"time": 33379, "pitch": 52, "duration": 221, "velocity": 65}, {"time": 33600, "pitch": 48, "duration": 261, "velocity": 100}, {"time": 33610, "pitch": 52, "duration": 241, "velocity": 95}, {"time": 33610, "pitch": 55, "duration": 241, "velocity": 100}, {"time": 33620, "pitch": 60, "duration": 221, "velocity": 105}, {"time": 33620, "pitch": 64, "duration": 221, "velocity": 110}, {"time": 33841, "pitch": 64, "duration": 261, "velocity": 85}, {"time": 33851, "pitch": 55, "duration": 241, "velocity": 75}, {"time": 33851, "pitch": 60, "duration": 241, "velocity": 80}, {"time": 33861, "pitch": 48, "duration": 221, "velocity": 60}, {"time": 33861, "pitch": 52, "duration": 221, "velocity": 75}, {"time": 34082, "pitch": 48, "duration": 258, "velocity": 90}, {"time": 34092, "pitch": 52, "duration": 238, "velocity": 85}, {"time": 34092, "pitch": 55, "duration": 238, "velocity": 85}, {"time": 34102, "pitch": 60, "duration": 218, "velocity": 90}, {"time": 34102, "pitch": 64, "duration": 218, "velocity": 95}, {"time": 34320, "pitch": 64, "duration": 258, "velocity": 85}, {"time": 34330, "pitch": 55, "duration": 238, "velocity": 75}, {"time": 34330, "pitch": 60, "duration": 238, "velocity": 80}, {"time": 34340, "pitch": 48, "duration": 218, "velocity": 60}, {"time": 34340, "pitch": 52, "duration": 218, "velocity": 75}, {"time": 34558, "pitch": 48, "duration": 462, "velocity": 100}, {"time": 34568, "pitch": 52, "duration": 452, "velocity": 95}, {"time": 34568, "pitch": 55, "duration": 452, "velocity": 100}, {"time": 34578, "pitch": 60, "duration": 442, "velocity": 105}, {"time": 34578, "pitch": 64, "duration": 442, "velocity": 110}, {"time": 35040, "pitch": 47, "duration": 261, "velocity": 90}, {"time": 35050, "pitch": 50, "duration": 241, "velocity": 85}, {"time": 35050, "pitch": 57, "duration": 241, "velocity": 85}, {"time": 35060, "pitch": 59, "duration": 221, "velocity": 90}, {"time": 35060, "pitch": 65, "duration": 221, "velocity": 95}, {"time": 35281, "pitch": 65, "duration": 261, "velocity": 85}, {"time": 35291, "pitch": 57, "duration": 241, "velocity": 75}, {"time": 35291, "pitch": 59, "duration": 241, "velocity": 80}, {"time": 35301, "pitch": 47, "duration": 221, "velocity": 60}, {"time": 35301, "pitch": 50, "duration": 221, "velocity": 75}, {"time": 35522, "pitch": 47, "duration": 258, "velocity": 100}, {"time": 35532, "pitch": 50, "duration": 238, "velocity": 95}, {"time": 35532, "pitch": 57, "duration": 238, "velocity": 100}, {"time": 35542, "pitch": 59, "duration": 218, "velocity": 105}, {"time": 35542, "pitch": 65, "duration": 218, "velocity": 110}, {"time": 35760, "pitch": 65, "duration": 258, "velocity": 85}, {"time": 35770, "pitch": 57, "duration": 238, "velocity": 75}, {"time": 35770, "pitch": 59, "duration": 238, "velocity": 80}, {"time": 35780, "pitch": 47, "duration": 218, "velocity": 60}, {"time": 35780, "pitch": 50, "duration": 218, "velocity": 75}, {"time": 35998, "pitch": 47, "duration": 261, "velocity": 90}, {"time": 36008, "pitch": 50, "duration": 241, "velocity": 85}, {"time": 36008, "pitch": 56, "duration": 241, "velocity": 85}, {"time": 36018, "pitch": 59, "duration": 221, "velocity": 90}, {"time": 36018, "pitch": 64, "duration": 221, "velocity": 95}, {"time": 36239, "pitch": 64, "duration": 261, "velocity": 85}, {"time": 36249, "pitch": 56, "duration": 241, "velocity": 75}, {"time": 36249, "pitch": 59, "duration": 241, "velocity": 80}, {"time": 36259, "pitch": 47, "duration": 221, "velocity": 60}, {"time": 36259, "pitch": 50, "duration": 221, "velocity": 75}, {"time": 36480, "pitch": 47, "duration": 261, "velocity": 100}, {"time": 36490, "pitch": 50, "duration": 241, "velocity": 95}, {"time": 36490, "pitch": 56, "duration": 241, "velocity": 100}, {"time": 36500, "pitch": 59, "duration": 221, "velocity": 105}, {"time": 36500, "pitch": 64, "duration": 221, "velocity": 110}, {"time": 36721, "pitch": 64, "duration": 261, "velocity": 85}, {"time": 36731, "pitch": 56, "duration": 241, "velocity": 75}, {"time": 36731, "pitch": 59, "duration": 241, "velocity": 80}, {"time": 36741, "pitch": 47, "duration": 221, "velocity": 60}, {"time": 36741, "pitch": 50, "duration": 221, "velocity": 75}, {"time": 36962, "pitch": 45, "duration": 258, "velocity": 90}, {"time": 36972, "pitch": 52, "duration": 238, "velocity": 85}, {"time": 36972, "pitch": 57, "duration": 238, "velocity": 85}, {"time": 36982, "pitch": 60, "duration": 218, "velocity": 90}, {"time": 36982, "pitch": 64, "duration": 218, "velocity": 95}, {"time": 37200, "pitch": 64, "duration": 258, "velocity": 85}, {"time": 37210, "pitch": 57, "duration": 238, "velocity": 75}, {"time": 37210, "pitch": 60, "duration": 238, "velocity": 80}, {"time": 37220, "pitch": 45, "duration": 218, "velocity": 60}, {"time": 37220, "pitch": 52, "duration": 218, "velocity": 75}, {"time": 37438, "pitch": 45, "duration": 261, "velocity": 100}, {"time": 37448, "pitch": 52, "duration": 241, "velocity": 95}, {"time": 37448, "pitch": 57, "duration": 241, "velocity": 100}, {"time": 37458, "pitch": 60, "duration": 221, "velocity": 105}, {"time": 37458, "pitch": 64, "duration": 221, "velocity": 110}, {"time": 37679, "pitch": 64, "duration": 261, "velocity": 85}, {"time": 37689, "pitch": 57, "duration": 241, "velocity": 75}, {"time": 37689, "pitch": 60, "duration": 241, "velocity": 80}, {"time": 37699, "pitch": 45, "duration": 221, "velocity": 60}, {"time": 37699, "pitch": 52, "duration": 221, "velocity": 75}, {"time": 37920, "pitch": 43, "duration": 261, "velocity": 90}, {"time": 37930, "pitch": 52, "duration": 241, "velocity": 85}, {"time": 37930, "pitch": 55, "duration": 241, "velocity": 85}, {"time": 37940, "pitch": 60, "duration": 221, "velocity": 90}, {"time": 37940, "pitch": 64, "duration": 221, "velocity": 95}, {"time": 38161, "pitch": 64, "duration": 261, "velocity": 85}, {"time": 38171, "pitch": 55, "duration": 241, "velocity": 75}, {"time": 38171, "pitch": 60, "duration": 241, "velocity": 80}, {"time": 38181, "pitch": 43, "duration": 221, "velocity": 60}, {"time": 38181, "pitch": 52, "duration": 221, "velocity": 75}, {"time": 38402, "pitch": 43, "duration": 258, "velocity": 100}, {"time": 38412, "pitch": 52, "duration": 238, "velocity": 95}, {"time": 38412, "pitch": 55, "duration": 238, "velocity": 100}, {"time": 38422, "pitch": 60, "duration": 218, "velocity": 105}, {"time": 38422, "pitch": 64, "duration": 218, "velocity": 110}, {"time": 38640, "pitch": 64, "duration": 258, "velocity": 85}, {"time": 38650, "pitch": 55, "duration": 238, "velocity": 75}, {"time": 38650, "pitch": 60, "duration": 238, "velocity": 80}, {"time": 38660, "pitch": 43, "duration": 218, "velocity": 60}, {"time": 38660, "pitch": 52, "duration": 218, "velocity": 75}, {"time": 38878, "pitch": 41, "duration": 261, "velocity": 90}, {"time": 38888, "pitch": 53, "duration": 241, "velocity": 85}, {"time": 38888, "pitch": 57, "duration": 241, "velocity": 85}, {"time": 38898, "pitch": 60, "duration": 221, "velocity": 90}, {"time": 38898, "pitch": 64, "duration": 221, "velocity": 95}, {"time": 39119, "pitch": 64, "duration": 261, "velocity": 85}, {"time": 39129, "pitch": 57, "duration": 241, "velocity": 75}, {"time": 39129, "pitch": 60, "duration": 241, "velocity": 80}, {"time": 39139, "pitch": 48, "duration": 221, "velocity": 60}, {"time": 39139, "pitch": 53, "duration": 221, "velocity": 75}, {"time": 39360, "pitch": 48, "duration": 261, "velocity": 100}, {"time": 39370, "pitch": 53, "duration": 241, "velocity": 95}, {"time": 39370, "pitch": 57, "duration": 241, "velocity": 100}, {"time": 39380, "pitch": 60, "duration": 221, "velocity": 105}, {"time": 39380, "pitch": 64, "duration": 221, "velocity": 110}, {"time": 39601, "pitch": 64, "duration": 221, "velocity": 85}, {"time": 39611, "pitch": 57, "duration": 211, "velocity": 75}, {"time": 39611, "pitch": 60, "duration": 211, "velocity": 80}, {"time": 39621, "pitch": 48, "duration": 201, "velocity": 60}, {"time": 39621, "pitch": 53, "duration": 201, "velocity": 75}, {"time": 39842, "pitch": 48, "duration": 258, "velocity": 90}, {"time": 39852, "pitch": 50, "duration": 238, "velocity": 85}, {"time": 39852, "pitch": 55, "duration": 238, "velocity": 85}, {"time": 39861, "pitch": 60, "duration": 219, "velocity": 90}, {"time": 39861, "pitch": 67, "duration": 219, "velocity": 95}, {"time": 40080, "pitch": 67, "duration": 258, "velocity": 75}, {"time": 40090, "pitch": 55, "duration": 238, "velocity": 65}, {"time": 40090, "pitch": 60, "duration": 238, "velocity": 70}, {"time": 40100, "pitch": 48, "duration": 218, "velocity": 50}, {"time": 40100, "pitch": 50, "duration": 218, "velocity": 65}, {"time": 40318, "pitch": 47, "duration": 462, "velocity": 100}, {"time": 40328, "pitch": 50, "duration": 452, "velocity": 95}, {"time": 40328, "pitch": 55, "duration": 452, "velocity": 100}, {"time": 40338, "pitch": 59, "duration": 442, "velocity": 105}, {"time": 40338, "pitch": 67, "duration": 442, "velocity": 110}, {"time": 40800, "pitch": 48, "duration": 261, "velocity": 90}, {"time": 40810, "pitch": 52, "duration": 241, "velocity": 85}, {"time": 40810, "pitch": 55, "duration": 241, "velocity": 85}, {"time": 40820, "pitch": 60, "duration": 221, "velocity": 90}, {"time": 40820, "pitch": 64, "duration": 221, "velocity": 95}, {"time": 41041, "pitch": 64, "duration": 260, "velocity": 75}, {"time": 41051, "pitch": 55, "duration": 240, "velocity": 65}, {"time": 41051, "pitch": 60, "duration": 240, "velocity": 70}, {"time": 41061, "pitch": 48, "duration": 221, "velocity": 50}, {"time": 41061, "pitch": 52, "duration": 221, "velocity": 65}, {"time": 41282, "pitch": 48, "duration": 257, "velocity": 100}, {"time": 41291, "pitch": 52, "duration": 239, "velocity": 95}, {"time": 41291, "pitch": 55, "duration": 239, "velocity": 100}, {"time": 41301, "pitch": 60, "duration": 219, "velocity": 105}, {"time": 41301, "pitch": 64, "duration": 219, "velocity": 110}, {"time": 41520, "pitch": 64, "duration": 258, "velocity": 85}, {"time": 41530, "pitch": 55, "duration": 238, "velocity": 75}, {"time": 41530, "pitch": 60, "duration": 238, "velocity": 80}, {"time": 41539, "pitch": 48, "duration": 219, "velocity": 60}, {"time": 41539, "pitch": 52, "duration": 219, "velocity": 75}, {"time": 41758, "pitch": 48, "duration": 261, "velocity": 90}, {"time": 41768, "pitch": 52, "duration": 241, "velocity": 85}, {"time": 41768, "pitch": 55, "duration": 241, "velocity": 85}, {"time": 41778, "pitch": 60, "duration": 221, "velocity": 90}, {"time": 41778, "pitch": 64, "duration": 221, "velocity": 95}, {"time": 41999, "pitch": 64, "duration": 261, "velocity": 85}, {"time": 42009, "pitch": 55, "duration": 241, "velocity": 75}, {"time": 42009, "pitch": 60, "duration": 241, "velocity": 80}, {"time": 42019, "pitch": 48, "duration": 221, "velocity": 60}, {"time": 42019, "pitch": 52, "duration": 221, "velocity": 75}, {"time": 42240, "pitch": 48, "duration": 461, "velocity": 100}, {"time": 42250, "pitch": 52, "duration": 451, "velocity": 95}, {"time": 42250, "pitch": 55, "duration": 451, "velocity": 100}, {"time": 42260, "pitch": 60, "duration": 441, "velocity": 105}, {"time": 42260, "pitch": 64, "duration": 441, "velocity": 110}, {"time": 42721, "pitch": 47, "duration": 258, "velocity": 90}, {"time": 42731, "pitch": 50, "duration": 238, "velocity": 85}, {"time": 42731, "pitch": 57, "duration": 238, "velocity": 85}, {"time": 42741, "pitch": 59, "duration": 219, "velocity": 90}, {"time": 42741, "pitch": 65, "duration": 219, "velocity": 95}, {"time": 42960, "pitch": 65, "duration": 258, "velocity": 85}, {"time": 42969, "pitch": 57, "duration": 239, "velocity": 75}, {"time": 42969, "pitch": 59, "duration": 239, "velocity": 80}, {"time": 42979, "pitch": 47, "duration": 219, "velocity": 60}, {"time": 42979, "pitch": 50, "duration": 219, "velocity": 75}, {"time": 43198, "pitch": 47, "duration": 261, "velocity": 100}, {"time": 43208, "pitch": 50, "duration": 241, "velocity": 95}, {"time": 43208, "pitch": 57, "duration": 241, "velocity": 100}, {"time": 43218, "pitch": 59, "duration": 221, "velocity": 105}, {"time": 43218, "pitch": 65, "duration": 221, "velocity": 110}, {"time": 43439, "pitch": 65, "duration": 261, "velocity": 85}, {"time": 43449, "pitch": 57, "duration": 241, "velocity": 75}, {"time": 43449, "pitch": 59, "duration": 241, "velocity": 80}, {"time": 43459, "pitch": 47, "duration": 221, "velocity": 60}, {"time": 43459, "pitch": 50, "duration": 221, "velocity": 75}, {"time": 43680, "pitch": 47, "duration": 261, "velocity": 90}, {"time": 43690, "pitch": 50, "duration": 241, "velocity": 85}, {"time": 43690, "pitch": 56, "duration": 241, "velocity": 85}, {"time": 43700, "pitch": 59, "duration": 220, "velocity": 90}, {"time": 43700, "pitch": 64, "duration": 220, "velocity": 95}, {"time": 43920, "pitch": 64, "duration": 261, "velocity": 85}, {"time": 43931, "pitch": 56, "duration": 240, "velocity": 75}, {"time": 43931, "pitch": 59, "duration": 240, "velocity": 80}, {"time": 43941, "pitch": 47, "duration": 220, "velocity": 60}, {"time": 43941, "pitch": 50, "duration": 220, "velocity": 75}, {"time": 44161, "pitch": 47, "duration": 258, "velocity": 100}, {"time": 44171, "pitch": 50, "duration": 238, "velocity": 95}, {"time": 44171, "pitch": 56, "duration": 238, "velocity": 100}, {"time": 44181, "pitch": 59, "duration": 218, "velocity": 105}, {"time": 44181, "pitch": 64, "duration": 218, "velocity": 110}, {"time": 44399, "pitch": 64, "duration": 259, "velocity": 85}, {"time": 44409, "pitch": 56, "duration": 239, "velocity": 75}, {"time": 44409, "pitch": 59, "duration": 239, "velocity": 80}, {"time": 44419, "pitch": 47, "duration": 219, "velocity": 60}, {"time": 44419, "pitch": 50, "duration": 219, "velocity": 75}, {"time": 44638, "pitch": 45, "duration": 261, "velocity": 90}, {"time": 44648, "pitch": 52, "duration": 241, "velocity": 85}, {"time": 44648, "pitch": 57, "duration": 241, "velocity": 85}, {"time": 44658, "pitch": 60, "duration": 220, "velocity": 90}, {"time": 44658, "pitch": 64, "duration": 220, "velocity": 95}, {"time": 44878, "pitch": 64, "duration": 241, "velocity": 85}, {"time": 44889, "pitch": 57, "duration": 230, "velocity": 75}, {"time": 44889, "pitch": 60, "duration": 230, "velocity": 80}, {"time": 44899, "pitch": 45, "duration": 220, "velocity": 60}, {"time": 44899, "pitch": 52, "duration": 220, "velocity": 75}, {"time": 45119, "pitch": 45, "duration": 10, "velocity": 40}, {"time": 45119, "pitch": 52, "duration": 10, "velocity": 40}, {"time": 45119, "pitch": 57, "duration": 10, "velocity": 40}, {"time": 45119, "pitch": 60, "duration": 10, "velocity": 40}, {"time": 45119, "pitch": 64, "duration": 10, "velocity": 40}, {"time": 45360, "pitch": 64, "duration": 479, "velocity": 100}, {"time": 45370, "pitch": 56, "duration": 479, "velocity": 90}, {"time": 45370, "pitch": 60, "duration": 469, "velocity": 95}, {"time": 45380, "pitch": 44, "duration": 479, "velocity": 75}, {"time": 45380, "pitch": 52, "duration": 469, "velocity": 90}, {"time": 45839, "pitch": 64, "duration": 259, "velocity": 85}, {"time": 45849, "pitch": 56, "duration": 239, "velocity": 75}, {"time": 45849, "pitch": 60, "duration": 239, "velocity": 80}, {"time": 45859, "pitch": 44, "duration": 218, "velocity": 60}, {"time": 45859, "pitch": 52, "duration": 218, "velocity": 75}, {"time": 46077, "pitch": 44, "duration": 261, "velocity": 100}, {"time": 46088, "pitch": 52, "duration": 240, "velocity": 95}, {"time": 46088, "pitch": 56, "duration": 240, "velocity": 100}, {"time": 46098, "pitch": 60, "duration": 220, "velocity": 105}, {"time": 46098, "pitch": 64, "duration": 220, "velocity": 110}, {"time": 46318, "pitch": 64, "duration": 261, "velocity": 85}, {"time": 46328, "pitch": 56, "duration": 241, "velocity": 75}, {"time": 46328, "pitch": 60, "duration": 241, "velocity": 80}, {"time": 46338, "pitch": 44, "duration": 221, "velocity": 60}, {"time": 46338, "pitch": 52, "duration": 221, "velocity": 75}, {"time": 46559, "pitch": 43, "duration": 482, "velocity": 90}, {"time": 46569, "pitch": 52, "duration": 472, "velocity": 85}, {"time": 46569, "pitch": 55, "duration": 472, "velocity": 85}, {"time": 46579, "pitch": 60, "duration": 462, "velocity": 90}, {"time": 46579, "pitch": 64, "duration": 462, "velocity": 95}, {"time": 47041, "pitch": 43, "duration": 10, "velocity": 40}, {"time": 47041, "pitch": 52, "duration": 10, "velocity": 40}, {"time": 47041, "pitch": 55, "duration": 10, "velocity": 40}, {"time": 47041, "pitch": 60, "duration": 10, "velocity": 40}, {"time": 47041, "pitch": 64, "duration": 10, "velocity": 40}, {"time": 47279, "pitch": 64, "duration": 1182, "velocity": 100}, {"time": 47289, "pitch": 57, "duration": 1172, "velocity": 90}, {"time": 47289, "pitch": 60, "duration": 1172, "velocity": 95}, {"time": 47299, "pitch": 42, "duration": 1162, "velocity": 105}, {"time": 47299, "pitch": 52, "duration": 1162, "velocity": 90}, {"time": 48481, "pitch": 41, "duration": 938, "velocity": 110}, {"time": 48491, "pitch": 45, "duration": 928, "velocity": 90}, {"time": 48501, "pitch": 53, "duration": 918, "velocity": 95}, {"time": 48511, "pitch": 57, "duration": 908, "velocity": 100}, {"time": 48521, "pitch": 60, "duration": 898, "velocity": 105}, {"time": 48531, "pitch": 64, "duration": 888, "velocity": 110}, {"time": 49439, "pitch": 41, "duration": 938, "velocity": 110}, {"time": 49449, "pitch": 47, "duration": 928, "velocity": 90}, {"time": 49459, "pitch": 50, "duration": 918, "velocity": 95}, {"time": 49469, "pitch": 55, "duration": 908, "velocity": 100}, {"time": 49479, "pitch": 59, "duration": 898, "velocity": 105}, {"time": 49489, "pitch": 67, "duration": 888, "velocity": 110}, {"time": 50397, "pitch": 40, "duration": 944, "velocity": 110}, {"time": 50407, "pitch": 47, "duration": 934, "velocity": 90}, {"time": 50417, "pitch": 50, "duration": 924, "velocity": 95}, {"time": 50427, "pitch": 55, "duration": 914, "velocity": 100}, {"time": 50437, "pitch": 59, "duration": 904, "velocity": 105}, {"time": 50447, "pitch": 64, "duration": 894, "velocity": 110}, {"time": 51361, "pitch": 43, "duration": 938, "velocity": 110}, {"time": 51371, "pitch": 46, "duration": 928, "velocity": 90}, {"time": 51381, "pitch": 51, "duration": 918, "velocity": 95}, {"time": 51391, "pitch": 55, "duration": 908, "velocity": 100}, {"time": 51401, "pitch": 63, "duration": 898, "velocity": 105}, {"time": 51411, "pitch": 67, "duration": 888, "velocity": 110}, {"time": 52319, "pitch": 41, "duration": 944, "velocity": 110}, {"time": 52329, "pitch": 45, "duration": 934, "velocity": 90}, {"time": 52339, "pitch": 50, "duration": 924, "velocity": 95}, {"time": 52349, "pitch": 57, "duration": 914, "velocity": 100}, {"time": 52359, "pitch": 60, "duration": 904, "velocity": 105}, {"time": 52369, "pitch": 65, "duration": 894, "velocity": 110}, {"time": 53283, "pitch": 43, "duration": 938, "velocity": 110}, {"time": 53293, "pitch": 48, "duration": 928, "velocity": 90}, {"time": 53303, "pitch": 50, "duration": 918, "velocity": 95}, {"time": 53313, "pitch": 55, "duration": 908, "velocity": 100}, {"time": 53323, "pitch": 60, "duration": 898, "velocity": 105}, {"time": 53332, "pitch": 67, "duration": 889, "velocity": 110}, {"time": 54241, "pitch": 40, "duration": 1420, "velocity": 110}, {"time": 54251, "pitch": 48, "duration": 1410, "velocity": 90}, {"time": 54261, "pitch": 52, "duration": 1400, "velocity": 95}, {"time": 54271, "pitch": 55, "duration": 1390, "velocity": 100}, {"time": 54281, "pitch": 60, "duration": 1380, "velocity": 105}, {"time": 54291, "pitch": 64, "duration": 1370, "velocity": 110}, {"time": 55681, "pitch": 43, "duration": 462, "velocity": 110}, {"time": 55691, "pitch": 45, "duration": 452, "velocity": 90}, {"time": 55701, "pitch": 50, "duration": 442, "velocity": 95}, {"time": 55711, "pitch": 57, "duration": 432, "velocity": 100}, {"time": 55721, "pitch": 62, "duration": 422, "velocity": 105}, {"time": 55731, "pitch": 65, "duration": 412, "velocity": 110}, {"time": 56163, "pitch": 48, "duration": 476, "velocity": 110}, {"time": 56173, "pitch": 52, "duration": 466, "velocity": 100}, {"time": 56183, "pitch": 55, "duration": 456, "velocity": 100}, {"time": 56192, "pitch": 60, "duration": 447, "velocity": 105}, {"time": 56202, "pitch": 64, "duration": 437, "velocity": 110}, {"time": 56639, "pitch": 52, "duration": 10, "velocity": 50}, {"time": 56639, "pitch": 55, "duration": 10, "velocity": 50}, {"time": 56639, "pitch": 60, "duration": 10, "velocity": 50}, {"time": 56639, "pitch": 64, "duration": 10, "velocity": 50}, {"time": 56880, "pitch": 48, "duration": 482, "velocity": 110}, {"time": 56890, "pitch": 52, "duration": 1169, "velocity": 100}, {"time": 56890, "pitch": 55, "duration": 951, "velocity": 100}, {"time": 56900, "pitch": 60, "duration": 1159, "velocity": 105}, {"time": 56900, "pitch": 65, "duration": 703, "velocity": 110}, {"time": 57362, "pitch": 48, "duration": 697, "velocity": 110}, {"time": 57603, "pitch": 65, "duration": 456, "velocity": 100}, {"time": 57841, "pitch": 55, "duration": 218, "velocity": 90}, {"time": 58079, "pitch": 48, "duration": 482, "velocity": 110}, {"time": 58089, "pitch": 52, "duration": 472, "velocity": 100}, {"time": 58099, "pitch": 59, "duration": 462, "velocity": 100}, {"time": 58109, "pitch": 64, "duration": 452, "velocity": 105}, {"time": 58119, "pitch": 67, "duration": 442, "velocity": 110}, {"time": 58561, "pitch": 48, "duration": 10, "velocity": 50}, {"time": 58561, "pitch": 52, "duration": 10, "velocity": 50}, {"time": 58561, "pitch": 59, "duration": 10, "velocity": 50}, {"time": 58561, "pitch": 64, "duration": 10, "velocity": 50}, {"time": 58561, "pitch": 67, "duration": 10, "velocity": 50}, {"time": 58802, "pitch": 48, "duration": 697, "velocity": 110}, {"time": 58812, "pitch": 52, "duration": 687, "velocity": 100}, {"time": 58812, "pitch": 55, "duration": 687, "velocity": 100}, {"time": 58822, "pitch": 60, "duration": 677, "velocity": 105}, {"time": 58822, "pitch": 64, "duration": 677, "velocity": 110}, {"time": 59519, "pitch": 47, "duration": 461, "velocity": 110}, {"time": 59529, "pitch": 50, "duration": 462, "velocity": 100}, {"time": 59529, "pitch": 55, "duration": 451, "velocity": 100}, {"time": 59539, "pitch": 59, "duration": 452, "velocity": 105}, {"time": 59539, "pitch": 67, "duration": 441, "velocity": 110}, {"time": 60001, "pitch": 45, "duration": 938, "velocity": 100}, {"time": 60011, "pitch": 52, "duration": 710, "velocity": 90}, {"time": 60011, "pitch": 57, "duration": 231, "velocity": 90}, {"time": 60021, "pitch": 60, "duration": 461, "velocity": 95}, {"time": 60021, "pitch": 64, "duration": 938, "velocity": 100}, {"time": 60242, "pitch": 57, "duration": 697, "velocity": 105}, {"time": 60482, "pitch": 60, "duration": 457, "velocity": 110}, {"time": 60721, "pitch": 52, "duration": 218, "velocity": 100}, {"time": 60959, "pitch": 43, "duration": 943, "velocity": 100}, {"time": 60969, "pitch": 52, "duration": 712, "velocity": 90}, {"time": 60969, "pitch": 55, "duration": 231, "velocity": 90}, {"time": 60979, "pitch": 60, "duration": 461, "velocity": 95}, {"time": 60979, "pitch": 64, "duration": 943, "velocity": 100}, {"time": 61200, "pitch": 55, "duration": 702, "velocity": 105}, {"time": 61440, "pitch": 60, "duration": 462, "velocity": 110}, {"time": 61681, "pitch": 52, "duration": 221, "velocity": 100}, {"time": 61922, "pitch": 41, "duration": 938, "velocity": 100}, {"time": 61932, "pitch": 53, "duration": 928, "velocity": 90}, {"time": 61932, "pitch": 57, "duration": 228, "velocity": 90}, {"time": 61942, "pitch": 60, "duration": 457, "velocity": 95}, {"time": 61942, "pitch": 65, "duration": 697, "velocity": 100}, {"time": 62160, "pitch": 57, "duration": 700, "velocity": 105}, {"time": 62399, "pitch": 60, "duration": 461, "velocity": 110}, {"time": 62639, "pitch": 65, "duration": 221, "velocity": 100}, {"time": 62880, "pitch": 43, "duration": 261, "velocity": 100}, {"time": 62890, "pitch": 50, "duration": 241, "velocity": 95}, {"time": 62890, "pitch": 55, "duration": 241, "velocity": 95}, {"time": 62900, "pitch": 60, "duration": 221, "velocity": 100}, {"time": 62900, "pitch": 67, "duration": 221, "velocity": 105}, {"time": 63121, "pitch": 67, "duration": 261, "velocity": 85}, {"time": 63131, "pitch": 55, "duration": 241, "velocity": 75}, {"time": 63131, "pitch": 60, "duration": 241, "velocity": 80}, {"time": 63141, "pitch": 43, "duration": 221, "velocity": 60}, {"time": 63141, "pitch": 50, "duration": 221, "velocity": 75}, {"time": 63362, "pitch": 43, "duration": 258, "velocity": 100}, {"time": 63372, "pitch": 50, "duration": 238, "velocity": 95}, {"time": 63372, "pitch": 55, "duration": 238, "velocity": 95}, {"time": 63382, "pitch": 59, "duration": 218, "velocity": 100}, {"time": 63382, "pitch": 67, "duration": 218, "velocity": 105}, {"time": 63600, "pitch": 67, "duration": 219, "velocity": 85}, {"time": 63610, "pitch": 55, "duration": 209, "velocity": 75}, {"time": 63610, "pitch": 59, "duration": 209, "velocity": 80}, {"time": 63620, "pitch": 43, "duration": 199, "velocity": 60}, {"time": 63620, "pitch": 50, "duration": 199, "velocity": 75}, {"time": 63838, "pitch": 48, "duration": 482, "velocity": 110}, {"time": 63848, "pitch": 52, "duration": 472, "velocity": 100}, {"time": 63859, "pitch": 55, "duration": 461, "velocity": 100}, {"time": 63869, "pitch": 60, "duration": 451, "velocity": 105}, {"time": 63879, "pitch": 64, "duration": 441, "velocity": 110}, {"time": 64320, "pitch": 52, "duration": 10, "velocity": 50}, {"time": 64320, "pitch": 55, "duration": 10, "velocity": 50}, {"time": 64320, "pitch": 60, "duration": 10, "velocity": 50}, {"time": 64320, "pitch": 64, "duration": 10, "velocity": 50}, {"time": 64561, "pitch": 48, "duration": 479, "velocity": 110}, {"time": 64571, "pitch": 52, "duration": 1169, "velocity": 100}, {"time": 64571, "pitch": 55, "duration": 948, "velocity": 100}, {"time": 64581, "pitch": 60, "duration": 1159, "velocity": 105}, {"time": 64581, "pitch": 65, "duration": 697, "velocity": 110}, {"time": 65040, "pitch": 48, "duration": 700, "velocity": 110}, {"time": 65278, "pitch": 65, "duration": 462, "velocity": 100}, {"time": 65519, "pitch": 55, "duration": 221, "velocity": 90}, {"time": 65760, "pitch": 48, "duration": 482, "velocity": 110}, {"time": 65770, "pitch": 52, "duration": 472, "velocity": 100}, {"time": 65780, "pitch": 59, "duration": 462, "velocity": 100}, {"time": 65790, "pitch": 64, "duration": 452, "velocity": 105}, {"time": 65800, "pitch": 67, "duration": 442, "velocity": 110}, {"time": 66242, "pitch": 48, "duration": 10, "velocity": 50}, {"time": 66242, "pitch": 52, "duration": 10, "velocity": 50}, {"time": 66242, "pitch": 59, "duration": 10, "velocity": 50}, {"time": 66242, "pitch": 64, "duration": 10, "velocity": 50}, {"time": 66242, "pitch": 67, "duration": 10, "velocity": 50}, {"time": 66480, "pitch": 48, "duration": 700, "velocity": 110}, {"time": 66490, "pitch": 52, "duration": 690, "velocity": 100}, {"time": 66490, "pitch": 55, "duration": 690, "velocity": 100}, {"time": 66500, "pitch": 60, "duration": 680, "velocity": 105}, {"time": 66500, "pitch": 64, "duration": 680, "velocity": 110}, {"time": 67200, "pitch": 47, "duration": 462, "velocity": 110}, {"time": 67210, "pitch": 50, "duration": 462, "velocity": 100}, {"time": 67210, "pitch": 55, "duration": 452, "velocity": 100}, {"time": 67220, "pitch": 59, "duration": 452, "velocity": 105}, {"time": 67220, "pitch": 67, "duration": 442, "velocity": 110}, {"time": 67682, "pitch": 45, "duration": 938, "velocity": 100}, {"time": 67692, "pitch": 52, "duration": 707, "velocity": 90}, {"time": 67692, "pitch": 57, "duration": 228, "velocity": 90}, {"time": 67702, "pitch": 60, "duration": 456, "velocity": 95}, {"time": 67702, "pitch": 64, "duration": 938, "velocity": 100}, {"time": 67920, "pitch": 57, "duration": 700, "velocity": 105}, {"time": 68158, "pitch": 60, "duration": 462, "velocity": 110}, {"time": 68399, "pitch": 52, "duration": 221, "velocity": 100}, {"time": 68640, "pitch": 43, "duration": 938, "velocity": 100}, {"time": 68650, "pitch": 52, "duration": 710, "velocity": 90}, {"time": 68650, "pitch": 55, "duration": 231, "velocity": 90}, {"time": 68660, "pitch": 60, "duration": 462, "velocity": 95}, {"time": 68660, "pitch": 64, "duration": 938, "velocity": 100}, {"time": 68881, "pitch": 55, "duration": 697, "velocity": 105}, {"time": 69122, "pitch": 60, "duration": 456, "velocity": 110}, {"time": 69360, "pitch": 52, "duration": 218, "velocity": 100}, {"time": 69598, "pitch": 41, "duration": 944, "velocity": 100}, {"time": 69608, "pitch": 53, "duration": 934, "velocity": 90}, {"time": 69608, "pitch": 57, "duration": 231, "velocity": 90}, {"time": 69618, "pitch": 60, "duration": 462, "velocity": 95}, {"time": 69618, "pitch": 65, "duration": 703, "velocity": 100}, {"time": 69839, "pitch": 57, "duration": 703, "velocity": 105}, {"time": 70080, "pitch": 60, "duration": 462, "velocity": 110}, {"time": 70321, "pitch": 65, "duration": 221, "velocity": 100}, {"time": 70562, "pitch": 43, "duration": 258, "velocity": 100}, {"time": 70572, "pitch": 50, "duration": 238, "velocity": 95}, {"time": 70572, "pitch": 55, "duration": 238, "velocity": 95}, {"time": 70582, "pitch": 60, "duration": 218, "velocity": 100}, {"time": 70582, "pitch": 67, "duration": 218, "velocity": 105}, {"time": 70800, "pitch": 67, "duration": 258, "velocity": 85}, {"time": 70810, "pitch": 55, "duration": 238, "velocity": 75}, {"time": 70810, "pitch": 60, "duration": 238, "velocity": 80}, {"time": 70820, "pitch": 43, "duration": 218, "velocity": 60}, {"time": 70820, "pitch": 50, "duration": 218, "velocity": 75}, {"time": 71038, "pitch": 43, "duration": 261, "velocity": 100}, {"time": 71048, "pitch": 50, "duration": 241, "velocity": 95}, {"time": 71048, "pitch": 55, "duration": 241, "velocity": 95}, {"time": 71058, "pitch": 59, "duration": 221, "velocity": 100}, {"time": 71058, "pitch": 67, "duration": 221, "velocity": 105}, {"time": 71279, "pitch": 67, "duration": 221, "velocity": 85}, {"time": 71289, "pitch": 55, "duration": 211, "velocity": 75}, {"time": 71289, "pitch": 59, "duration": 211, "velocity": 80}, {"time": 71299, "pitch": 43, "duration": 201, "velocity": 60}, {"time": 71299, "pitch": 50, "duration": 201, "velocity": 75}, {"time": 71520, "pitch": 41, "duration": 261, "velocity": 90}, {"time": 71530, "pitch": 53, "duration": 241, "velocity": 85}, {"time": 71530, "pitch": 57, "duration": 241, "velocity": 85}, {"time": 71540, "pitch": 60, "duration": 221, "velocity": 90}, {"time": 71540, "pitch": 64, "duration": 221, "velocity": 95}, {"time": 71761, "pitch": 64, "duration": 261, "velocity": 85}, {"time": 71771, "pitch": 57, "duration": 241, "velocity": 75}, {"time": 71771, "pitch": 60, "duration": 241, "velocity": 80}, {"time": 71781, "pitch": 48, "duration": 221, "velocity": 60}, {"time": 71781, "pitch": 53, "duration": 221, "velocity": 75}, {"time": 72002, "pitch": 48, "duration": 258, "velocity": 100}, {"time": 72012, "pitch": 53, "duration": 238, "velocity": 95}, {"time": 72012, "pitch": 57, "duration": 238, "velocity": 100}, {"time": 72022, "pitch": 60, "duration": 218, "velocity": 105}, {"time": 72022, "pitch": 64, "duration": 218, "velocity": 110}, {"time": 72240, "pitch": 64, "duration": 218, "velocity": 85}, {"time": 72250, "pitch": 57, "duration": 208, "velocity": 75}, {"time": 72250, "pitch": 60, "duration": 208, "velocity": 80}, {"time": 72260, "pitch": 48, "duration": 198, "velocity": 60}, {"time": 72260, "pitch": 53, "duration": 198, "velocity": 75}, {"time": 72478, "pitch": 40, "duration": 261, "velocity": 90}, {"time": 72488, "pitch": 52, "duration": 241, "velocity": 85}, {"time": 72488, "pitch": 55, "duration": 241, "velocity": 85}, {"time": 72498, "pitch": 60, "duration": 221, "velocity": 90}, {"time": 72498, "pitch": 64, "duration": 221, "velocity": 95}, {"time": 72719, "pitch": 64, "duration": 261, "velocity": 85}, {"time": 72729, "pitch": 55, "duration": 241, "velocity": 75}, {"time": 72729, "pitch": 60, "duration": 241, "velocity": 80}, {"time": 72739, "pitch": 48, "duration": 221, "velocity": 60}, {"time": 72739, "pitch": 52, "duration": 221, "velocity": 75}, {"time": 72960, "pitch": 48, "duration": 261, "velocity": 100}, {"time": 72970, "pitch": 52, "duration": 241, "velocity": 95}, {"time": 72970, "pitch": 55, "duration": 241, "velocity": 100}, {"time": 72980, "pitch": 60, "duration": 221, "velocity": 105}, {"time": 72980, "pitch": 64, "duration": 221, "velocity": 110}, {"time": 73201, "pitch": 64, "duration": 221, "velocity": 85}, {"time": 73211, "pitch": 55, "duration": 211, "velocity": 75}, {"time": 73211, "pitch": 60, "duration": 211, "velocity": 80}, {"time": 73221, "pitch": 48, "duration": 201, "velocity": 60}, {"time": 73221, "pitch": 52, "duration": 201, "velocity": 75}, {"time": 73442, "pitch": 50, "duration": 258, "velocity": 90}, {"time": 73452, "pitch": 57, "duration": 238, "velocity": 85}, {"time": 73462, "pitch": 62, "duration": 218, "velocity": 90}, {"time": 73462, "pitch": 65, "duration": 218, "velocity": 95}, {"time": 73680, "pitch": 65, "duration": 258, "velocity": 85}, {"time": 73690, "pitch": 57, "duration": 238, "velocity": 75}, {"time": 73690, "pitch": 62, "duration": 238, "velocity": 80}, {"time": 73700, "pitch": 50, "duration": 218, "velocity": 60}, {"time": 73918, "pitch": 50, "duration": 261, "velocity": 100}, {"time": 73928, "pitch": 57, "duration": 241, "velocity": 100}, {"time": 73938, "pitch": 62, "duration": 221, "velocity": 105}, {"time": 73938, "pitch": 65, "duration": 221, "velocity": 110}, {"time": 74159, "pitch": 65, "duration": 221, "velocity": 85}, {"time": 74169, "pitch": 57, "duration": 211, "velocity": 75}, {"time": 74169, "pitch": 62, "duration": 211, "velocity": 80}, {"time": 74179, "pitch": 50, "duration": 201, "velocity": 60}, {"time": 74400, "pitch": 48, "duration": 261, "velocity": 90}, {"time": 74410, "pitch": 52, "duration": 241, "velocity": 85}, {"time": 74410, "pitch": 55, "duration": 241, "velocity": 85}, {"time": 74420, "pitch": 60, "duration": 221, "velocity": 90}, {"time": 74420, "pitch": 64, "duration": 221, "velocity": 95}, {"time": 74641, "pitch": 64, "duration": 261, "velocity": 85}, {"time": 74651, "pitch": 55, "duration": 241, "velocity": 75}, {"time": 74651, "pitch": 60, "duration": 241, "velocity": 80}, {"time": 74661, "pitch": 48, "duration": 221, "velocity": 60}, {"time": 74661, "pitch": 52, "duration": 221, "velocity": 75}, {"time": 74882, "pitch": 48, "duration": 258, "velocity": 100}, {"time": 74892, "pitch": 52, "duration": 238, "velocity": 95}, {"time": 74892, "pitch": 55, "duration": 238, "velocity": 100}, {"time": 74902, "pitch": 60, "duration": 218, "velocity": 105}, {"time": 74902, "pitch": 64, "duration": 218, "velocity": 110}, {"time": 75120, "pitch": 64, "duration": 218, "velocity": 85}, {"time": 75130, "pitch": 55, "duration": 208, "velocity": 75}, {"time": 75130, "pitch": 60, "duration": 208, "velocity": 80}, {"time": 75140, "pitch": 48, "duration": 198, "velocity": 60}, {"time": 75140, "pitch": 52, "duration": 198, "velocity": 75}, {"time": 75358, "pitch": 41, "duration": 261, "velocity": 90}, {"time": 75368, "pitch": 53, "duration": 241, "velocity": 85}, {"time": 75368, "pitch": 57, "duration": 241, "velocity": 85}, {"time": 75378, "pitch": 60, "duration": 221, "velocity": 90}, {"time": 75378, "pitch": 64, "duration": 221, "velocity": 95}, {"time": 75599, "pitch": 64, "duration": 261, "velocity": 85}, {"time": 75609, "pitch": 57, "duration": 241, "velocity": 75}, {"time": 75609, "pitch": 60, "duration": 241, "velocity": 80}, {"time": 75619, "pitch": 48, "duration": 221, "velocity": 60}, {"time": 75619, "pitch": 53, "duration": 221, "velocity": 75}, {"time": 75840, "pitch": 48, "duration": 261, "velocity": 100}, {"time": 75850, "pitch": 53, "duration": 241, "velocity": 95}, {"time": 75850, "pitch": 57, "duration": 241, "velocity": 100}, {"time": 75860, "pitch": 60, "duration": 221, "velocity": 105}, {"time": 75860, "pitch": 64, "duration": 221, "velocity": 110}, {"time": 76081, "pitch": 64, "duration": 221, "velocity": 85}, {"time": 76091, "pitch": 57, "duration": 211, "velocity": 75}, {"time": 76091, "pitch": 60, "duration": 211, "velocity": 80}, {"time": 76101, "pitch": 48, "duration": 201, "velocity": 60}, {"time": 76101, "pitch": 53, "duration": 201, "velocity": 75}, {"time": 76322, "pitch": 40, "duration": 258, "velocity": 90}, {"time": 76332, "pitch": 52, "duration": 238, "velocity": 85}, {"time": 76332, "pitch": 56, "duration": 238, "velocity": 85}, {"time": 76341, "pitch": 59, "duration": 219, "velocity": 90}, {"time": 76341, "pitch": 64, "duration": 219, "velocity": 95}, {"time": 76560, "pitch": 64, "duration": 258, "velocity": 85}, {"time": 76570, "pitch": 56, "duration": 238, "velocity": 75}, {"time": 76570, "pitch": 59, "duration": 238, "velocity": 80}, {"time": 76580, "pitch": 47, "duration": 218, "velocity": 60}, {"time": 76580, "pitch": 52, "duration": 218, "velocity": 75}, {"time": 76798, "pitch": 47, "duration": 261, "velocity": 100}, {"time": 76808, "pitch": 52, "duration": 241, "velocity": 95}, {"time": 76808, "pitch": 56, "duration": 241, "velocity": 100}, {"time": 76818, "pitch": 59, "duration": 221, "velocity": 105}, {"time": 76818, "pitch": 64, "duration": 221, "velocity": 110}, {"time": 77039, "pitch": 64, "duration": 221, "velocity": 85}, {"time": 77049, "pitch": 56, "duration": 211, "velocity": 75}, {"time": 77049, "pitch": 59, "duration": 211, "velocity": 80}, {"time": 77059, "pitch": 47, "duration": 201, "velocity": 60}, {"time": 77059, "pitch": 52, "duration": 201, "velocity": 75}, {"time": 77280, "pitch": 45, "duration": 482, "velocity": 110}, {"time": 77290, "pitch": 52, "duration": 472, "velocity": 100}, {"time": 77300, "pitch": 57, "duration": 462, "velocity": 100}, {"time": 77310, "pitch": 60, "duration": 452, "velocity": 105}, {"time": 77320, "pitch": 64, "duration": 442, "velocity": 110}, {"time": 77762, "pitch": 45, "duration": 9, "velocity": 50}, {"time": 77762, "pitch": 52, "duration": 9, "velocity": 50}, {"time": 77762, "pitch": 57, "duration": 9, "velocity": 50}, {"time": 77762, "pitch": 60, "duration": 9, "velocity": 50}, {"time": 77762, "pitch": 64, "duration": 9, "velocity": 50}, {"time": 78000, "pitch": 64, "duration": 479, "velocity": 110}, {"time": 78010, "pitch": 57, "duration": 720, "velocity": 100}, {"time": 78010, "pitch": 60, "duration": 730, "velocity": 100}, {"time": 78019, "pitch": 45, "duration": 460, "velocity": 110}, {"time": 78019, "pitch": 52, "duration": 711, "velocity": 105}, {"time": 78479, "pitch": 45, "duration": 241, "velocity": 100}, {"time": 78720, "pitch": 45, "duration": 261, "velocity": 100}, {"time": 78730, "pitch": 52, "duration": 241, "velocity": 95}, {"time": 78730, "pitch": 57, "duration": 241, "velocity": 95}, {"time": 78740, "pitch": 60, "duration": 221, "velocity": 100}, {"time": 78740, "pitch": 64, "duration": 221, "velocity": 105}, {"time": 78961, "pitch": 64, "duration": 220, "velocity": 95}, {"time": 78971, "pitch": 57, "duration": 210, "velocity": 85}, {"time": 78971, "pitch": 60, "duration": 210, "velocity": 90}, {"time": 78981, "pitch": 45, "duration": 200, "velocity": 70}, {"time": 78981, "pitch": 52, "duration": 200, "velocity": 85}, {"time": 79201, "pitch": 43, "duration": 258, "velocity": 90}, {"time": 79211, "pitch": 50, "duration": 238, "velocity": 85}, {"time": 79211, "pitch": 57, "duration": 238, "velocity": 85}, {"time": 79221, "pitch": 62, "duration": 219, "velocity": 90}, {"time": 79221, "pitch": 65, "duration": 219, "velocity": 95}, {"time": 79440, "pitch": 65, "duration": 258, "velocity": 85}, {"time": 79449, "pitch": 57, "duration": 239, "velocity": 75}, {"time": 79449, "pitch": 62, "duration": 239, "velocity": 80}, {"time": 79459, "pitch": 43, "duration": 219, "velocity": 60}, {"time": 79459, "pitch": 50, "duration": 219, "velocity": 75}, {"time": 79678, "pitch": 43, "duration": 261, "velocity": 100}, {"time": 79688, "pitch": 50, "duration": 241, "velocity": 95}, {"time": 79688, "pitch": 57, "duration": 241, "velocity": 100}, {"time": 79698, "pitch": 62, "duration": 221, "velocity": 105}, {"time": 79698, "pitch": 65, "duration": 221, "velocity": 110}, {"time": 79919, "pitch": 65, "duration": 261, "velocity": 85}, {"time": 79929, "pitch": 57, "duration": 241, "velocity": 75}, {"time": 79929, "pitch": 62, "duration": 241, "velocity": 80}, {"time": 79939, "pitch": 43, "duration": 220, "velocity": 60}, {"time": 79939, "pitch": 50, "duration": 220, "velocity": 75}, {"time": 80159, "pitch": 43, "duration": 262, "velocity": 100}, {"time": 80170, "pitch": 50, "duration": 240, "velocity": 95}, {"time": 80170, "pitch": 57, "duration": 240, "velocity": 95}, {"time": 80180, "pitch": 62, "duration": 220, "velocity": 100}, {"time": 80180, "pitch": 65, "duration": 220, "velocity": 105}, {"time": 80400, "pitch": 65, "duration": 261, "velocity": 95}, {"time": 80410, "pitch": 57, "duration": 241, "velocity": 85}, {"time": 80410, "pitch": 62, "duration": 241, "velocity": 90}, {"time": 80421, "pitch": 43, "duration": 220, "velocity": 70}, {"time": 80421, "pitch": 50, "duration": 220, "velocity": 85}, {"time": 80641, "pitch": 43, "duration": 258, "velocity": 100}, {"time": 80651, "pitch": 50, "duration": 238, "velocity": 95}, {"time": 80651, "pitch": 57, "duration": 238, "velocity": 100}, {"time": 80661, "pitch": 62, "duration": 218, "velocity": 105}, {"time": 80661, "pitch": 65, "duration": 218, "velocity": 110}, {"time": 80879, "pitch": 65, "duration": 259, "velocity": 85}, {"time": 80889, "pitch": 57, "duration": 239, "velocity": 75}, {"time": 80889, "pitch": 62, "duration": 239, "velocity": 80}, {"time": 80899, "pitch": 43, "duration": 219, "velocity": 60}, {"time": 80899, "pitch": 50, "duration": 219, "velocity": 75}, {"time": 81118, "pitch": 43, "duration": 1901, "velocity": 100}, {"time": 81128, "pitch": 50, "duration": 1891, "velocity": 95}, {"time": 81138, "pitch": 57, "duration": 1881, "velocity": 100}, {"time": 81148, "pitch": 62, "duration": 1871, "velocity": 105}, {"time": 81158, "pitch": 65, "duration": 1861, "velocity": 110}, {"time": 83039, "pitch": 48, "duration": 261, "velocity": 90}, {"time": 83049, "pitch": 52, "duration": 241, "velocity": 85}, {"time": 83049, "pitch": 55, "duration": 241, "velocity": 85}, {"time": 83059, "pitch": 60, "duration": 221, "velocity": 90}, {"time": 83059, "pitch": 64, "duration": 221, "velocity": 95}, {"time": 83280, "pitch": 64, "duration": 261, "velocity": 75}, {"time": 83290, "pitch": 55, "duration": 241, "velocity": 65}, {"time": 83290, "pitch": 60, "duration": 241, "velocity": 70}, {"time": 83300, "pitch": 48, "duration": 221, "velocity": 50}, {"time": 83300, "pitch": 52, "duration": 221, "velocity": 65}, {"time": 83521, "pitch": 48, "duration": 258, "velocity": 100}, {"time": 83531, "pitch": 52, "duration": 238, "velocity": 95}, {"time": 83531, "pitch": 55, "duration": 238, "velocity": 100}, {"time": 83541, "pitch": 60, "duration": 218, "velocity": 105}, {"time": 83541, "pitch": 64, "duration": 218, "velocity": 110}, {"time": 83759, "pitch": 64, "duration": 258, "velocity": 85}, {"time": 83769, "pitch": 55, "duration": 238, "velocity": 75}, {"time": 83769, "pitch": 60, "duration": 238, "velocity": 80}, {"time": 83779, "pitch": 48, "duration": 218, "velocity": 60}, {"time": 83779, "pitch": 52, "duration": 218, "velocity": 75}, {"time": 83997, "pitch": 48, "duration": 261, "velocity": 90}, {"time": 84007, "pitch": 52, "duration": 241, "velocity": 85}, {"time": 84007, "pitch": 55, "duration": 241, "velocity": 85}, {"time": 84017, "pitch": 60, "duration": 221, "velocity": 90}, {"time": 84017, "pitch": 64, "duration": 221, "velocity": 95}, {"time": 84238, "pitch": 64, "duration": 261, "velocity": 85}, {"time": 84248, "pitch": 55, "duration": 241, "velocity": 75}, {"time": 84248, "pitch": 60, "duration": 241, "velocity": 80}, {"time": 84258, "pitch": 48, "duration": 221, "velocity": 60}, {"time": 84258, "pitch": 52, "duration": 221, "velocity": 75}, {"time": 84479, "pitch": 48, "duration": 462, "velocity": 100}, {"time": 84489, "pitch": 52, "duration": 452, "velocity": 95}, {"time": 84489, "pitch": 55, "duration": 452, "velocity": 100}, {"time": 84499, "pitch": 60, "duration": 442, "velocity": 105}, {"time": 84499, "pitch": 64, "duration": 442, "velocity": 110}, {"time": 84961, "pitch": 47, "duration": 258, "velocity": 90}, {"time": 84971, "pitch": 50, "duration": 238, "velocity": 85}, {"time": 84971, "pitch": 57, "duration": 238, "velocity": 85}, {"time": 84981, "pitch": 59, "duration": 218, "velocity": 90}, {"time": 84981, "pitch": 65, "duration": 218, "velocity": 95}, {"time": 85199, "pitch": 65, "duration": 258, "velocity": 85}, {"time": 85209, "pitch": 57, "duration": 238, "velocity": 75}, {"time": 85209, "pitch": 59, "duration": 238, "velocity": 80}, {"time": 85219, "pitch": 47, "duration": 218, "velocity": 60}, {"time": 85219, "pitch": 50, "duration": 218, "velocity": 75}, {"time": 85437, "pitch": 47, "duration": 261, "velocity": 100}, {"time": 85447, "pitch": 50, "duration": 241, "velocity": 95}, {"time": 85447, "pitch": 57, "duration": 241, "velocity": 100}, {"time": 85457, "pitch": 59, "duration": 221, "velocity": 105}, {"time": 85457, "pitch": 65, "duration": 221, "velocity": 110}, {"time": 85678, "pitch": 65, "duration": 261, "velocity": 85}, {"time": 85688, "pitch": 57, "duration": 241, "velocity": 75}, {"time": 85688, "pitch": 59, "duration": 241, "velocity": 80}, {"time": 85698, "pitch": 47, "duration": 221, "velocity": 60}, {"time": 85698, "pitch": 50, "duration": 221, "velocity": 75}, {"time": 85919, "pitch": 47, "duration": 261, "velocity": 90}, {"time": 85929, "pitch": 50, "duration": 241, "velocity": 85}, {"time": 85929, "pitch": 56, "duration": 241, "velocity": 85}, {"time": 85939, "pitch": 59, "duration": 221, "velocity": 90}, {"time": 85939, "pitch": 64, "duration": 221, "velocity": 95}, {"time": 86160, "pitch": 64, "duration": 261, "velocity": 85}, {"time": 86170, "pitch": 56, "duration": 241, "velocity": 75}, {"time": 86170, "pitch": 59, "duration": 241, "velocity": 80}, {"time": 86180, "pitch": 47, "duration": 221, "velocity": 60}, {"time": 86180, "pitch": 50, "duration": 221, "velocity": 75}, {"time": 86401, "pitch": 47, "duration": 258, "velocity": 100}, {"time": 86411, "pitch": 50, "duration": 238, "velocity": 95}, {"time": 86411, "pitch": 56, "duration": 238, "velocity": 100}, {"time": 86421, "pitch": 59, "duration": 218, "velocity": 105}, {"time": 86421, "pitch": 64, "duration": 218, "velocity": 110}, {"time": 86639, "pitch": 64, "duration": 258, "velocity": 85}, {"time": 86649, "pitch": 56, "duration": 238, "velocity": 75}, {"time": 86649, "pitch": 59, "duration": 238, "velocity": 80}, {"time": 86659, "pitch": 47, "duration": 218, "velocity": 60}, {"time": 86659, "pitch": 50, "duration": 218, "velocity": 75}, {"time": 86877, "pitch": 45, "duration": 261, "velocity": 90}, {"time": 86887, "pitch": 52, "duration": 241, "velocity": 85}, {"time": 86887, "pitch": 57, "duration": 241, "velocity": 85}, {"time": 86897, "pitch": 60, "duration": 221, "velocity": 90}, {"time": 86897, "pitch": 64, "duration": 221, "velocity": 95}, {"time": 87118, "pitch": 64, "duration": 261, "velocity": 85}, {"time": 87128, "pitch": 57, "duration": 241, "velocity": 75}, {"time": 87128, "pitch": 60, "duration": 241, "velocity": 80}, {"time": 87138, "pitch": 45, "duration": 221, "velocity": 60}, {"time": 87138, "pitch": 52, "duration": 221, "velocity": 75}, {"time": 87359, "pitch": 45, "duration": 261, "velocity": 100}, {"time": 87369, "pitch": 52, "duration": 241, "velocity": 95}, {"time": 87369, "pitch": 57, "duration": 241, "velocity": 100}, {"time": 87379, "pitch": 60, "duration": 221, "velocity": 105}, {"time": 87379, "pitch": 64, "duration": 221, "velocity": 110}, {"time": 87600, "pitch": 64, "duration": 261, "velocity": 85}, {"time": 87610, "pitch": 57, "duration": 241, "velocity": 75}, {"time": 87610, "pitch": 60, "duration": 241, "velocity": 80}, {"time": 87620, "pitch": 45, "duration": 221, "velocity": 60}, {"time": 87620, "pitch": 52, "duration": 221, "velocity": 75}, {"time": 87841, "pitch": 43, "duration": 258, "velocity": 90}, {"time": 87851, "pitch": 52, "duration": 238, "velocity": 85}, {"time": 87851, "pitch": 55, "duration": 238, "velocity": 85}, {"time": 87861, "pitch": 60, "duration": 218, "velocity": 90}, {"time": 87861, "pitch": 64, "duration": 218, "velocity": 95}, {"time": 88079, "pitch": 64, "duration": 258, "velocity": 85}, {"time": 88089, "pitch": 55, "duration": 238, "velocity": 75}, {"time": 88089, "pitch": 60, "duration": 238, "velocity": 80}, {"time": 88099, "pitch": 43, "duration": 218, "velocity": 60}, {"time": 88099, "pitch": 52, "duration": 218, "velocity": 75}, {"time": 88317, "pitch": 43, "duration": 261, "velocity": 100}, {"time": 88327, "pitch": 52, "duration": 241, "velocity": 95}, {"time": 88327, "pitch": 55, "duration": 241, "velocity": 100}, {"time": 88337, "pitch": 60, "duration": 221, "velocity": 105}, {"time": 88337, "pitch": 64, "duration": 221, "velocity": 110}, {"time": 88558, "pitch": 64, "duration": 261, "velocity": 85}, {"time": 88568, "pitch": 55, "duration": 241, "velocity": 75}, {"time": 88568, "pitch": 60, "duration": 241, "velocity": 80}, {"time": 88578, "pitch": 43, "duration": 221, "velocity": 60}, {"time": 88578, "pitch": 52, "duration": 221, "velocity": 75}, {"time": 88799, "pitch": 41, "duration": 261, "velocity": 90}, {"time": 88809, "pitch": 53, "duration": 241, "velocity": 85}, {"time": 88809, "pitch": 57, "duration": 241, "velocity": 85}, {"time": 88819, "pitch": 60, "duration": 221, "velocity": 90}, {"time": 88819, "pitch": 64, "duration": 221, "velocity": 95}, {"time": 89040, "pitch": 64, "duration": 261, "velocity": 85}, {"time": 89050, "pitch": 57, "duration": 241, "velocity": 75}, {"time": 89050, "pitch": 60, "duration": 241, "velocity": 80}, {"time": 89060, "pitch": 48, "duration": 221, "velocity": 60}, {"time": 89060, "pitch": 53, "duration": 221, "velocity": 75}, {"time": 89281, "pitch": 48, "duration": 261, "velocity": 100}, {"time": 89291, "pitch": 53, "duration": 241, "velocity": 95}, {"time": 89291, "pitch": 57, "duration": 241, "velocity": 100}, {"time": 89301, "pitch": 60, "duration": 221, "velocity": 105}, {"time": 89301, "pitch": 64, "duration": 221, "velocity": 110}, {"time": 89522, "pitch": 64, "duration": 221, "velocity": 85}, {"time": 89532, "pitch": 57, "duration": 211, "velocity": 75}, {"time": 89532, "pitch": 60, "duration": 211, "velocity": 80}, {"time": 89542, "pitch": 48, "duration": 201, "velocity": 60}, {"time": 89542, "pitch": 53, "duration": 201, "velocity": 75}, {"time": 89763, "pitch": 48, "duration": 258, "velocity": 90}, {"time": 89773, "pitch": 50, "duration": 238, "velocity": 85}, {"time": 89773, "pitch": 55, "duration": 238, "velocity": 85}, {"time": 89783, "pitch": 60, "duration": 218, "velocity": 90}, {"time": 89783, "pitch": 67, "duration": 218, "velocity": 95}, {"time": 90001, "pitch": 67, "duration": 258, "velocity": 75}, {"time": 90011, "pitch": 55, "duration": 238, "velocity": 65}, {"time": 90011, "pitch": 60, "duration": 238, "velocity": 70}, {"time": 90021, "pitch": 48, "duration": 218, "velocity": 50}, {"time": 90021, "pitch": 50, "duration": 218, "velocity": 65}, {"time": 90239, "pitch": 47, "duration": 462, "velocity": 100}, {"time": 90249, "pitch": 50, "duration": 452, "velocity": 95}, {"time": 90249, "pitch": 55, "duration": 452, "velocity": 100}, {"time": 90259, "pitch": 59, "duration": 442, "velocity": 105}, {"time": 90259, "pitch": 67, "duration": 442, "velocity": 110}, {"time": 90721, "pitch": 48, "duration": 261, "velocity": 90}, {"time": 90731, "pitch": 52, "duration": 241, "velocity": 85}, {"time": 90731, "pitch": 55, "duration": 241, "velocity": 85}, {"time": 90741, "pitch": 60, "duration": 221, "velocity": 90}, {"time": 90741, "pitch": 64, "duration": 221, "velocity": 95}, {"time": 90962, "pitch": 64, "duration": 261, "velocity": 75}, {"time": 90972, "pitch": 55, "duration": 241, "velocity": 65}, {"time": 90972, "pitch": 60, "duration": 241, "velocity": 70}, {"time": 90982, "pitch": 48, "duration": 221, "velocity": 50}, {"time": 90982, "pitch": 52, "duration": 221, "velocity": 65}, {"time": 91203, "pitch": 48, "duration": 258, "velocity": 100}, {"time": 91213, "pitch": 52, "duration": 238, "velocity": 95}, {"time": 91213, "pitch": 55, "duration": 238, "velocity": 100}, {"time": 91223, "pitch": 60, "duration": 218, "velocity": 105}, {"time": 91223, "pitch": 64, "duration": 218, "velocity": 110}, {"time": 91441, "pitch": 64, "duration": 258, "velocity": 85}, {"time": 91451, "pitch": 55, "duration": 238, "velocity": 75}, {"time": 91451, "pitch": 60, "duration": 238, "velocity": 80}, {"time": 91461, "pitch": 48, "duration": 218, "velocity": 60}, {"time": 91461, "pitch": 52, "duration": 218, "velocity": 75}, {"time": 91679, "pitch": 48, "duration": 261, "velocity": 90}, {"time": 91689, "pitch": 52, "duration": 241, "velocity": 85}, {"time": 91689, "pitch": 55, "duration": 241, "velocity": 85}, {"time": 91699, "pitch": 60, "duration": 221, "velocity": 90}, {"time": 91699, "pitch": 64, "duration": 221, "velocity": 95}, {"time": 91920, "pitch": 64, "duration": 261, "velocity": 85}, {"time": 91930, "pitch": 55, "duration": 241, "velocity": 75}, {"time": 91930, "pitch": 60, "duration": 241, "velocity": 80}, {"time": 91940, "pitch": 48, "duration": 221, "velocity": 60}, {"time": 91940, "pitch": 52, "duration": 221, "velocity": 75}, {"time": 92161, "pitch": 48, "duration": 462, "velocity": 100}, {"time": 92171, "pitch": 52, "duration": 452, "velocity": 95}, {"time": 92171, "pitch": 55, "duration": 452, "velocity": 100}, {"time": 92181, "pitch": 60, "duration": 442, "velocity": 105}, {"time": 92181, "pitch": 64, "duration": 442, "velocity": 110}, {"time": 92643, "pitch": 47, "duration": 258, "velocity": 90}, {"time": 92653, "pitch": 50, "duration": 238, "velocity": 85}, {"time": 92653, "pitch": 57, "duration": 238, "velocity": 85}, {"time": 92662, "pitch": 59, "duration": 219, "velocity": 90}, {"time": 92662, "pitch": 65, "duration": 219, "velocity": 95}, {"time": 92881, "pitch": 65, "duration": 258, "velocity": 85}, {"time": 92891, "pitch": 57, "duration": 238, "velocity": 75}, {"time": 92891, "pitch": 59, "duration": 238, "velocity": 80}, {"time": 92901, "pitch": 47, "duration": 218, "velocity": 60}, {"time": 92901, "pitch": 50, "duration": 218, "velocity": 75}, {"time": 93119, "pitch": 47, "duration": 261, "velocity": 100}, {"time": 93129, "pitch": 50, "duration": 241, "velocity": 95}, {"time": 93129, "pitch": 57, "duration": 241, "velocity": 100}, {"time": 93139, "pitch": 59, "duration": 221, "velocity": 105}, {"time": 93139, "pitch": 65, "duration": 221, "velocity": 110}, {"time": 93360, "pitch": 65, "duration": 261, "velocity": 85}, {"time": 93370, "pitch": 57, "duration": 241, "velocity": 75}, {"time": 93370, "pitch": 59, "duration": 241, "velocity": 80}, {"time": 93380, "pitch": 47, "duration": 221, "velocity": 60}, {"time": 93380, "pitch": 50, "duration": 221, "velocity": 75}, {"time": 93601, "pitch": 47, "duration": 261, "velocity": 90}, {"time": 93611, "pitch": 50, "duration": 241, "velocity": 85}, {"time": 93611, "pitch": 56, "duration": 241, "velocity": 85}, {"time": 93621, "pitch": 59, "duration": 221, "velocity": 90}, {"time": 93621, "pitch": 64, "duration": 221, "velocity": 95}, {"time": 93842, "pitch": 64, "duration": 260, "velocity": 85}, {"time": 93852, "pitch": 56, "duration": 240, "velocity": 75}, {"time": 93852, "pitch": 59, "duration": 240, "velocity": 80}, {"time": 93862, "pitch": 47, "duration": 221, "velocity": 60}, {"time": 93862, "pitch": 50, "duration": 221, "velocity": 75}, {"time": 94083, "pitch": 47, "duration": 258, "velocity": 100}, {"time": 94092, "pitch": 50, "duration": 239, "velocity": 95}, {"time": 94092, "pitch": 56, "duration": 239, "velocity": 100}, {"time": 94102, "pitch": 59, "duration": 219, "velocity": 105}, {"time": 94102, "pitch": 64, "duration": 219, "velocity": 110}, {"time": 94321, "pitch": 64, "duration": 258, "velocity": 85}, {"time": 94331, "pitch": 56, "duration": 238, "velocity": 75}, {"time": 94331, "pitch": 59, "duration": 238, "velocity": 80}, {"time": 94341, "pitch": 47, "duration": 218, "velocity": 60}, {"time": 94341, "pitch": 50, "duration": 218, "velocity": 75}, {"time": 94559, "pitch": 45, "duration": 261, "velocity": 90}, {"time": 94569, "pitch": 52, "duration": 241, "velocity": 85}, {"time": 94569, "pitch": 57, "duration": 241, "velocity": 85}, {"time": 94579, "pitch": 60, "duration": 221, "velocity": 90}, {"time": 94579, "pitch": 64, "duration": 221, "velocity": 95}, {"time": 94800, "pitch": 64, "duration": 241, "velocity": 85}, {"time": 94810, "pitch": 57, "duration": 231, "velocity": 75}, {"time": 94810, "pitch": 60, "duration": 231, "velocity": 80}, {"time": 94820, "pitch": 45, "duration": 221, "velocity": 60}, {"time": 94820, "pitch": 52, "duration": 221, "velocity": 75}, {"time": 95041, "pitch": 45, "duration": 10, "velocity": 40}, {"time": 95041, "pitch": 52, "duration": 10, "velocity": 40}, {"time": 95041, "pitch": 57, "duration": 10, "velocity": 40}, {"time": 95041, "pitch": 60, "duration": 10, "velocity": 40}, {"time": 95041, "pitch": 64, "duration": 10, "velocity": 40}, {"time": 95282, "pitch": 64, "duration": 479, "velocity": 100}, {"time": 95292, "pitch": 56, "duration": 479, "velocity": 90}, {"time": 95292, "pitch": 60, "duration": 469, "velocity": 95}, {"time": 95302, "pitch": 44, "duration": 478, "velocity": 75}, {"time": 95302, "pitch": 52, "duration": 469, "velocity": 90}, {"time": 95761, "pitch": 64, "duration": 258, "velocity": 85}, {"time": 95771, "pitch": 56, "duration": 238, "velocity": 75}, {"time": 95771, "pitch": 60, "duration": 238, "velocity": 80}, {"time": 95780, "pitch": 44, "duration": 219, "velocity": 60}, {"time": 95780, "pitch": 52, "duration": 219, "velocity": 75}, {"time": 95999, "pitch": 44, "duration": 261, "velocity": 100}, {"time": 96009, "pitch": 52, "duration": 241, "velocity": 95}, {"time": 96009, "pitch": 56, "duration": 241, "velocity": 100}, {"time": 96019, "pitch": 60, "duration": 221, "velocity": 105}, {"time": 96019, "pitch": 64, "duration": 221, "velocity": 110}, {"time": 96240, "pitch": 64, "duration": 261, "velocity": 85}, {"time": 96250, "pitch": 56, "duration": 241, "velocity": 75}, {"time": 96250, "pitch": 60, "duration": 241, "velocity": 80}, {"time": 96260, "pitch": 44, "duration": 221, "velocity": 60}, {"time": 96260, "pitch": 52, "duration": 221, "velocity": 75}, {"time": 96481, "pitch": 43, "duration": 481, "velocity": 90}, {"time": 96491, "pitch": 52, "duration": 471, "velocity": 85}, {"time": 96491, "pitch": 55, "duration": 471, "velocity": 85}, {"time": 96501, "pitch": 60, "duration": 461, "velocity": 90}, {"time": 96501, "pitch": 64, "duration": 461, "velocity": 95}, {"time": 96962, "pitch": 43, "duration": 10, "velocity": 40}, {"time": 96962, "pitch": 52, "duration": 10, "velocity": 40}, {"time": 96962, "pitch": 55, "duration": 10, "velocity": 40}, {"time": 96962, "pitch": 60, "duration": 10, "velocity": 40}, {"time": 96962, "pitch": 64, "duration": 10, "velocity": 40}, {"time": 97201, "pitch": 64, "duration": 1181, "velocity": 100}, {"time": 97210, "pitch": 57, "duration": 1172, "velocity": 90}, {"time": 97210, "pitch": 60, "duration": 1172, "velocity": 95}, {"time": 97220, "pitch": 42, "duration": 1162, "velocity": 105}, {"time": 97220, "pitch": 52, "duration": 1162, "velocity": 90}, {"time": 98402, "pitch": 41, "duration": 258, "velocity": 90}, {"time": 98412, "pitch": 53, "duration": 238, "velocity": 85}, {"time": 98412, "pitch": 57, "duration": 238, "velocity": 85}, {"time": 98422, "pitch": 60, "duration": 218, "velocity": 90}, {"time": 98422, "pitch": 64, "duration": 218, "velocity": 95}, {"time": 98640, "pitch": 64, "duration": 259, "velocity": 85}, {"time": 98650, "pitch": 57, "duration": 239, "velocity": 75}, {"time": 98650, "pitch": 60, "duration": 239, "velocity": 80}, {"time": 98660, "pitch": 48, "duration": 219, "velocity": 60}, {"time": 98660, "pitch": 53, "duration": 219, "velocity": 75}, {"time": 98879, "pitch": 48, "duration": 261, "velocity": 100}, {"time": 98889, "pitch": 53, "duration": 240, "velocity": 95}, {"time": 98889, "pitch": 57, "duration": 240, "velocity": 100}, {"time": 98899, "pitch": 60, "duration": 220, "velocity": 105}, {"time": 98899, "pitch": 64, "duration": 220, "velocity": 110}, {"time": 99119, "pitch": 64, "duration": 261, "velocity": 85}, {"time": 99129, "pitch": 57, "duration": 241, "velocity": 75}, {"time": 99129, "pitch": 60, "duration": 241, "velocity": 80}, {"time": 99140, "pitch": 48, "duration": 220, "velocity": 60}, {"time": 99140, "pitch": 53, "duration": 220, "velocity": 75}, {"time": 99360, "pitch": 41, "duration": 261, "velocity": 90}, {"time": 99370, "pitch": 53, "duration": 241, "velocity": 85}, {"time": 99370, "pitch": 59, "duration": 241, "velocity": 85}, {"time": 99380, "pitch": 62, "duration": 221, "velocity": 90}, {"time": 99380, "pitch": 67, "duration": 221, "velocity": 95}, {"time": 99601, "pitch": 67, "duration": 261, "velocity": 85}, {"time": 99611, "pitch": 59, "duration": 241, "velocity": 75}, {"time": 99611, "pitch": 62, "duration": 241, "velocity": 80}, {"time": 99621, "pitch": 50, "duration": 221, "velocity": 60}, {"time": 99621, "pitch": 53, "duration": 221, "velocity": 75}, {"time": 99842, "pitch": 50, "duration": 258, "velocity": 100}, {"time": 99852, "pitch": 53, "duration": 238, "velocity": 95}, {"time": 99852, "pitch": 59, "duration": 238, "velocity": 100}, {"time": 99862, "pitch": 62, "duration": 218, "velocity": 105}, {"time": 99862, "pitch": 67, "duration": 218, "velocity": 110}, {"time": 100080, "pitch": 67, "duration": 258, "velocity": 85}, {"time": 100090, "pitch": 59, "duration": 238, "velocity": 75}, {"time": 100090, "pitch": 62, "duration": 238, "velocity": 80}, {"time": 100100, "pitch": 50, "duration": 218, "velocity": 60}, {"time": 100100, "pitch": 53, "duration": 218, "velocity": 75}, {"time": 100318, "pitch": 40, "duration": 261, "velocity": 90}, {"time": 100328, "pitch": 50, "duration": 241, "velocity": 85}, {"time": 100328, "pitch": 55, "duration": 241, "velocity": 85}, {"time": 100338, "pitch": 59, "duration": 221, "velocity": 90}, {"time": 100338, "pitch": 64, "duration": 221, "velocity": 95}, {"time": 100559, "pitch": 64, "duration": 261, "velocity": 85}, {"time": 100569, "pitch": 55, "duration": 241, "velocity": 75}, {"time": 100569, "pitch": 59, "duration": 241, "velocity": 80}, {"time": 100579, "pitch": 47, "duration": 221, "velocity": 60}, {"time": 100579, "pitch": 50, "duration": 221, "velocity": 75}, {"time": 100800, "pitch": 47, "duration": 261, "velocity": 100}, {"time": 100810, "pitch": 50, "duration": 241, "velocity": 95}, {"time": 100810, "pitch": 55, "duration": 241, "velocity": 100}, {"time": 100820, "pitch": 59, "duration": 221, "velocity": 105}, {"time": 100820, "pitch": 64, "duration": 221, "velocity": 110}, {"time": 101041, "pitch": 64, "duration": 261, "velocity": 85}, {"time": 101051, "pitch": 55, "duration": 241, "velocity": 75}, {"time": 101051, "pitch": 59, "duration": 241, "velocity": 80}, {"time": 101061, "pitch": 47, "duration": 221, "velocity": 60}, {"time": 101061, "pitch": 50, "duration": 221, "velocity": 75}, {"time": 101282, "pitch": 46, "duration": 258, "velocity": 90}, {"time": 101292, "pitch": 51, "duration": 238, "velocity": 85}, {"time": 101292, "pitch": 55, "duration": 238, "velocity": 85}, {"time": 101302, "pitch": 63, "duration": 218, "velocity": 90}, {"time": 101302, "pitch": 67, "duration": 218, "velocity": 95}, {"time": 101520, "pitch": 67, "duration": 258, "velocity": 85}, {"time": 101530, "pitch": 55, "duration": 238, "velocity": 75}, {"time": 101530, "pitch": 63, "duration": 238, "velocity": 80}, {"time": 101540, "pitch": 46, "duration": 218, "velocity": 60}, {"time": 101540, "pitch": 51, "duration": 218, "velocity": 75}, {"time": 101758, "pitch": 46, "duration": 261, "velocity": 100}, {"time": 101768, "pitch": 51, "duration": 241, "velocity": 95}, {"time": 101768, "pitch": 55, "duration": 241, "velocity": 100}, {"time": 101778, "pitch": 63, "duration": 221, "velocity": 105}, {"time": 101778, "pitch": 67, "duration": 221, "velocity": 110}, {"time": 101999, "pitch": 67, "duration": 261, "velocity": 85}, {"time": 102009, "pitch": 55, "duration": 241, "velocity": 75}, {"time": 102009, "pitch": 63, "duration": 241, "velocity": 80}, {"time": 102019, "pitch": 46, "duration": 221, "velocity": 60}, {"time": 102019, "pitch": 51, "duration": 221, "velocity": 75}, {"time": 102240, "pitch": 45, "duration": 261, "velocity": 90}, {"time": 102250, "pitch": 50, "duration": 241, "velocity": 85}, {"time": 102250, "pitch": 57, "duration": 241, "velocity": 85}, {"time": 102260, "pitch": 60, "duration": 221, "velocity": 90}, {"time": 102260, "pitch": 65, "duration": 221, "velocity": 95}, {"time": 102481, "pitch": 65, "duration": 261, "velocity": 85}, {"time": 102491, "pitch": 57, "duration": 241, "velocity": 75}, {"time": 102491, "pitch": 60, "duration": 241, "velocity": 80}, {"time": 102501, "pitch": 45, "duration": 221, "velocity": 60}, {"time": 102501, "pitch": 50, "duration": 221, "velocity": 75}, {"time": 102722, "pitch": 45, "duration": 258, "velocity": 100}, {"time": 102732, "pitch": 50, "duration": 238, "velocity": 95}, {"time": 102732, "pitch": 57, "duration": 238, "velocity": 100}, {"time": 102742, "pitch": 60, "duration": 218, "velocity": 105}, {"time": 102742, "pitch": 65, "duration": 218, "velocity": 110}, {"time": 102960, "pitch": 65, "duration": 258, "velocity": 85}, {"time": 102970, "pitch": 57, "duration": 238, "velocity": 75}, {"time": 102970, "pitch": 60, "duration": 238, "velocity": 80}, {"time": 102980, "pitch": 45, "duration": 218, "velocity": 60}, {"time": 102980, "pitch": 50, "duration": 218, "velocity": 75}, {"time": 103198, "pitch": 48, "duration": 261, "velocity": 90}, {"time": 103208, "pitch": 50, "duration": 241, "velocity": 85}, {"time": 103208, "pitch": 55, "duration": 241, "velocity": 85}, {"time": 103218, "pitch": 60, "duration": 221, "velocity": 90}, {"time": 103218, "pitch": 67, "duration": 221, "velocity": 95}, {"time": 103439, "pitch": 67, "duration": 261, "velocity": 85}, {"time": 103449, "pitch": 55, "duration": 241, "velocity": 75}, {"time": 103449, "pitch": 60, "duration": 241, "velocity": 80}, {"time": 103459, "pitch": 48, "duration": 221, "velocity": 60}, {"time": 103459, "pitch": 50, "duration": 221, "velocity": 75}, {"time": 103680, "pitch": 47, "duration": 261, "velocity": 100}, {"time": 103690, "pitch": 50, "duration": 241, "velocity": 95}, {"time": 103690, "pitch": 55, "duration": 241, "velocity": 100}, {"time": 103700, "pitch": 59, "duration": 221, "velocity": 105}, {"time": 103700, "pitch": 67, "duration": 221, "velocity": 110}, {"time": 103921, "pitch": 67, "duration": 261, "velocity": 85}, {"time": 103931, "pitch": 55, "duration": 241, "velocity": 75}, {"time": 103931, "pitch": 59, "duration": 241, "velocity": 80}, {"time": 103941, "pitch": 47, "duration": 221, "velocity": 60}, {"time": 103941, "pitch": 50, "duration": 221, "velocity": 75}, {"time": 104162, "pitch": 45, "duration": 476, "velocity": 90}, {"time": 104172, "pitch": 52, "duration": 466, "velocity": 85}, {"time": 104172, "pitch": 57, "duration": 466, "velocity": 85}, {"time": 104182, "pitch": 60, "duration": 456, "velocity": 90}, {"time": 104182, "pitch": 64, "duration": 456, "velocity": 95}, {"time": 104638, "pitch": 45, "duration": 10, "velocity": 40}, {"time": 104638, "pitch": 52, "duration": 10, "velocity": 40}, {"time": 104638, "pitch": 57, "duration": 10, "velocity": 40}, {"time": 104638, "pitch": 60, "duration": 10, "velocity": 40}, {"time": 104638, "pitch": 64, "duration": 10, "velocity": 40}, {"time": 104879, "pitch": 64, "duration": 482, "velocity": 100}, {"time": 104889, "pitch": 56, "duration": 482, "velocity": 90}, {"time": 104889, "pitch": 60, "duration": 472, "velocity": 95}, {"time": 104899, "pitch": 44, "duration": 482, "velocity": 75}, {"time": 104899, "pitch": 52, "duration": 472, "velocity": 90}, {"time": 105361, "pitch": 64, "duration": 261, "velocity": 85}, {"time": 105371, "pitch": 56, "duration": 241, "velocity": 75}, {"time": 105371, "pitch": 60, "duration": 241, "velocity": 80}, {"time": 105381, "pitch": 44, "duration": 221, "velocity": 60}, {"time": 105381, "pitch": 52, "duration": 221, "velocity": 75}, {"time": 105602, "pitch": 44, "duration": 258, "velocity": 100}, {"time": 105612, "pitch": 52, "duration": 238, "velocity": 95}, {"time": 105612, "pitch": 56, "duration": 238, "velocity": 100}, {"time": 105622, "pitch": 60, "duration": 218, "velocity": 105}, {"time": 105622, "pitch": 64, "duration": 218, "velocity": 110}, {"time": 105840, "pitch": 64, "duration": 258, "velocity": 85}, {"time": 105850, "pitch": 56, "duration": 238, "velocity": 75}, {"time": 105850, "pitch": 60, "duration": 238, "velocity": 80}, {"time": 105860, "pitch": 44, "duration": 218, "velocity": 60}, {"time": 105860, "pitch": 52, "duration": 218, "velocity": 75}, {"time": 106078, "pitch": 43, "duration": 482, "velocity": 90}, {"time": 106088, "pitch": 52, "duration": 472, "velocity": 85}, {"time": 106088, "pitch": 55, "duration": 472, "velocity": 85}, {"time": 106098, "pitch": 60, "duration": 462, "velocity": 90}, {"time": 106098, "pitch": 64, "duration": 462, "velocity": 95}, {"time": 106560, "pitch": 43, "duration": 10, "velocity": 40}, {"time": 106560, "pitch": 52, "duration": 10, "velocity": 40}, {"time": 106560, "pitch": 55, "duration": 10, "velocity": 40}, {"time": 106560, "pitch": 60, "duration": 10, "velocity": 40}, {"time": 106560, "pitch": 64, "duration": 10, "velocity": 40}, {"time": 106801, "pitch": 64, "duration": 1179, "velocity": 100}, {"time": 106811, "pitch": 57, "duration": 1169, "velocity": 90}, {"time": 106811, "pitch": 60, "duration": 1169, "velocity": 95}, {"time": 106821, "pitch": 42, "duration": 1159, "velocity": 105}, {"time": 106821, "pitch": 52, "duration": 1159, "velocity": 90}, {"time": 108000, "pitch": 41, "duration": 938, "velocity": 110}, {"time": 108010, "pitch": 45, "duration": 928, "velocity": 90}, {"time": 108020, "pitch": 53, "duration": 918, "velocity": 95}, {"time": 108030, "pitch": 57, "duration": 908, "velocity": 100}, {"time": 108040, "pitch": 60, "duration": 898, "velocity": 105}, {"time": 108050, "pitch": 64, "duration": 888, "velocity": 110}, {"time": 108958, "pitch": 41, "duration": 944, "velocity": 110}, {"time": 108968, "pitch": 47, "duration": 934, "velocity": 90}, {"time": 108978, "pitch": 50, "duration": 924, "velocity": 95}, {"time": 108988, "pitch": 55, "duration": 914, "velocity": 100}, {"time": 108998, "pitch": 59, "duration": 904, "velocity": 105}, {"time": 109008, "pitch": 67, "duration": 894, "velocity": 110}, {"time": 109922, "pitch": 40, "duration": 938, "velocity": 110}, {"time": 109932, "pitch": 47, "duration": 928, "velocity": 90}, {"time": 109942, "pitch": 50, "duration": 918, "velocity": 95}, {"time": 109952, "pitch": 55, "duration": 908, "velocity": 100}, {"time": 109961, "pitch": 59, "duration": 899, "velocity": 105}, {"time": 109971, "pitch": 64, "duration": 889, "velocity": 110}, {"time": 110880, "pitch": 43, "duration": 938, "velocity": 110}, {"time": 110890, "pitch": 46, "duration": 928, "velocity": 90}, {"time": 110900, "pitch": 51, "duration": 918, "velocity": 95}, {"time": 110910, "pitch": 55, "duration": 908, "velocity": 100}, {"time": 110920, "pitch": 63, "duration": 898, "velocity": 105}, {"time": 110930, "pitch": 67, "duration": 888, "velocity": 110}, {"time": 111838, "pitch": 41, "duration": 944, "velocity": 110}, {"time": 111848, "pitch": 45, "duration": 934, "velocity": 90}, {"time": 111858, "pitch": 50, "duration": 924, "velocity": 95}, {"time": 111868, "pitch": 57, "duration": 914, "velocity": 100}, {"time": 111878, "pitch": 60, "duration": 904, "velocity": 105}, {"time": 111888, "pitch": 65, "duration": 894, "velocity": 110}, {"time": 112801, "pitch": 43, "duration": 939, "velocity": 110}, {"time": 112811, "pitch": 48, "duration": 929, "velocity": 90}, {"time": 112821, "pitch": 50, "duration": 919, "velocity": 95}, {"time": 112831, "pitch": 55, "duration": 909, "velocity": 100}, {"time": 112841, "pitch": 60, "duration": 899, "velocity": 105}, {"time": 112851, "pitch": 67, "duration": 889, "velocity": 110}, {"time": 114718, "pitch": 48, "duration": 482, "velocity": 110}, {"time": 114728, "pitch": 52, "duration": 472, "velocity": 100}, {"time": 114738, "pitch": 55, "duration": 462, "velocity": 100}, {"time": 114748, "pitch": 60, "duration": 452, "velocity": 105}, {"time": 114758, "pitch": 64, "duration": 442, "velocity": 110}, {"time": 115200, "pitch": 52, "duration": 10, "velocity": 50}, {"time": 115200, "pitch": 55, "duration": 10, "velocity": 50}, {"time": 115200, "pitch": 60, "duration": 10, "velocity": 50}, {"time": 115200, "pitch": 64, "duration": 10, "velocity": 50}, {"time": 115441, "pitch": 48, "duration": 479, "velocity": 110}, {"time": 115451, "pitch": 52, "duration": 588, "velocity": 100}, {"time": 115451, "pitch": 55, "duration": 948, "velocity": 100}, {"time": 115461, "pitch": 60, "duration": 818, "velocity": 105}, {"time": 115461, "pitch": 65, "duration": 697, "velocity": 110}, {"time": 115920, "pitch": 48, "duration": 700, "velocity": 110}, {"time": 116039, "pitch": 52, "duration": 581, "velocity": 95}, {"time": 116158, "pitch": 65, "duration": 462, "velocity": 110}, {"time": 116279, "pitch": 60, "duration": 341, "velocity": 95}, {"time": 116399, "pitch": 55, "duration": 221, "velocity": 90}, {"time": 116640, "pitch": 48, "duration": 482, "velocity": 110}, {"time": 116650, "pitch": 52, "duration": 472, "velocity": 100}, {"time": 116660, "pitch": 59, "duration": 462, "velocity": 100}, {"time": 116670, "pitch": 64, "duration": 452, "velocity": 105}, {"time": 116680, "pitch": 67, "duration": 442, "velocity": 110}, {"time": 117122, "pitch": 48, "duration": 10, "velocity": 50}, {"time": 117122, "pitch": 52, "duration": 10, "velocity": 50}, {"time": 117122, "pitch": 59, "duration": 10, "velocity": 50}, {"time": 117122, "pitch": 64, "duration": 10, "velocity": 50}, {"time": 117122, "pitch": 67, "duration": 10, "velocity": 50}, {"time": 117360, "pitch": 48, "duration": 479, "velocity": 110}, {"time": 117370, "pitch": 52, "duration": 590, "velocity": 100}, {"time": 117370, "pitch": 55, "duration": 951, "velocity": 100}, {"time": 117380, "pitch": 60, "duration": 821, "velocity": 105}, {"time": 117380, "pitch": 65, "duration": 700, "velocity": 110}, {"time": 117839, "pitch": 48, "duration": 703, "velocity": 110}, {"time": 118080, "pitch": 65, "duration": 462, "velocity": 120}, {"time": 118321, "pitch": 55, "duration": 221, "velocity": 90}, {"time": 118562, "pitch": 48, "duration": 476, "velocity": 110}, {"time": 118572, "pitch": 52, "duration": 466, "velocity": 100}, {"time": 118582, "pitch": 55, "duration": 456, "velocity": 100}, {"time": 118592, "pitch": 60, "duration": 446, "velocity": 105}, {"time": 118602, "pitch": 64, "duration": 436, "velocity": 110}, {"time": 119038, "pitch": 52, "duration": 10, "velocity": 50}, {"time": 119038, "pitch": 55, "duration": 10, "velocity": 50}, {"time": 119038, "pitch": 60, "duration": 10, "velocity": 50}, {"time": 119038, "pitch": 64, "duration": 10, "velocity": 50}, {"time": 119279, "pitch": 48, "duration": 482, "velocity": 110}, {"time": 119289, "pitch": 52, "duration": 592, "velocity": 100}, {"time": 119289, "pitch": 55, "duration": 951, "velocity": 100}, {"time": 119299, "pitch": 60, "duration": 822, "velocity": 105}, {"time": 119299, "pitch": 65, "duration": 703, "velocity": 110}, {"time": 119761, "pitch": 48, "duration": 697, "velocity": 110}, {"time": 119881, "pitch": 52, "duration": 577, "velocity": 95}, {"time": 120002, "pitch": 65, "duration": 456, "velocity": 110}, {"time": 120121, "pitch": 60, "duration": 337, "velocity": 95}, {"time": 120240, "pitch": 55, "duration": 218, "velocity": 90}, {"time": 120478, "pitch": 48, "duration": 482, "velocity": 110}, {"time": 120488, "pitch": 52, "duration": 472, "velocity": 100}, {"time": 120498, "pitch": 59, "duration": 462, "velocity": 100}, {"time": 120508, "pitch": 64, "duration": 452, "velocity": 105}, {"time": 120518, "pitch": 67, "duration": 442, "velocity": 110}, {"time": 120960, "pitch": 48, "duration": 10, "velocity": 50}, {"time": 120960, "pitch": 52, "duration": 10, "velocity": 50}, {"time": 120960, "pitch": 59, "duration": 10, "velocity": 50}, {"time": 120960, "pitch": 64, "duration": 10, "velocity": 50}, {"time": 120960, "pitch": 67, "duration": 10, "velocity": 50}, {"time": 121201, "pitch": 48, "duration": 414, "velocity": 110}, {"time": 121211, "pitch": 52, "duration": 539, "velocity": 100}, {"time": 121211, "pitch": 55, "duration": 1671, "velocity": 100}, {"time": 121221, "pitch": 60, "duration": 1194, "velocity": 105}, {"time": 121221, "pitch": 65, "duration": 703, "velocity": 110}, {"time": 121615, "pitch": 48, "duration": 1926, "velocity": 110}, {"time": 121750, "pitch": 52, "duration": 1614, "velocity": 95}, {"time": 121924, "pitch": 65, "duration": 1617, "velocity": 110}, {"time": 122415, "pitch": 60, "duration": 1126, "velocity": 95}, {"time": 122882, "pitch": 55, "duration": 659, "velocity": 90}, {"time": 123364, "pitch": 52, "duration": 212, "velocity": 85}, {"time": 123844, "pitch": 48, "duration": 1399, "velocity": 110}, {"time": 123858, "pitch": 52, "duration": 1385, "velocity": 100}, {"time": 123872, "pitch": 59, "duration": 1371, "velocity": 100}, {"time": 123886, "pitch": 64, "duration": 1357, "velocity": 105}, {"time": 123901, "pitch": 67, "duration": 1342, "velocity": 110}], "annotations": [{"time": 306, "annotation": {"number": 7, "value": 120}, "group": "control_change"}, {"time": 306, "annotation": {"number": 10, "value": 64}, "group": "control_change"}, {"time": 306, "annotation": {"number": 11, "value": 100}, "group": "control_change"}, {"time": 328, "annotation": {"number": 91, "value": 60}, "group": "control_change"}, {"time": 328, "annotation": {"number": 93, "value": 0}, "group": "control_change"}, {"time": 416, "annotation": {"number": 101, "value": 0}, "group": "control_change"}, {"time": 438, "annotation": {"number": 100, "value": 0}, "group": "control_change"}, {"time": 460, "annotation": {"number": 6, "value": 12}, "group": "control_change"}, {"time": 482, "annotation": {"number": 1, "value": 0}, "group": "control_change"}, {"time": 482, "annotation": {"number": 64, "value": 0}, "group": "control_change"}]}, {"program": 0, "is_drum": false, "name": "Melo", "annotations": [{"time": 219, "annotation": {"number": 0, "value": 0}, "group": "control_change"}, {"time": 219, "annotation": {"number": 32, "value": 2}, "group": "control_change"}]}, {"program": 73, "is_drum": false, "name": "Melo", "notes": [{"time": 8639, "pitch": 67, "duration": 221, "velocity": 100}, {"time": 8880, "pitch": 67, "duration": 101, "velocity": 100}, {"time": 9001, "pitch": 67, "duration": 358, "velocity": 100}, {"time": 9359, "pitch": 60, "duration": 359, "velocity": 100}, {"time": 9838, "pitch": 55, "duration": 241, "velocity": 100}, {"time": 10079, "pitch": 65, "duration": 241, "velocity": 100}, {"time": 10320, "pitch": 64, "duration": 241, "velocity": 100}, {"time": 10561, "pitch": 62, "duration": 238, "velocity": 100}, {"time": 10799, "pitch": 64, "duration": 479, "velocity": 100}, {"time": 11760, "pitch": 64, "duration": 241, "velocity": 100}, {"time": 12001, "pitch": 62, "duration": 238, "velocity": 100}, {"time": 12239, "pitch": 60, "duration": 119, "velocity": 100}, {"time": 12358, "pitch": 60, "duration": 360, "velocity": 100}, {"time": 12718, "pitch": 64, "duration": 241, "velocity": 100}, {"time": 12959, "pitch": 62, "duration": 241, "velocity": 100}, {"time": 13200, "pitch": 60, "duration": 121, "velocity": 100}, {"time": 13321, "pitch": 60, "duration": 358, "velocity": 100}, {"time": 13679, "pitch": 64, "duration": 238, "velocity": 100}, {"time": 13917, "pitch": 65, "duration": 241, "velocity": 100}, {"time": 14158, "pitch": 64, "duration": 241, "velocity": 100}, {"time": 14399, "pitch": 62, "duration": 241, "velocity": 100}, {"time": 14640, "pitch": 60, "duration": 241, "velocity": 100}, {"time": 14881, "pitch": 64, "duration": 238, "velocity": 100}, {"time": 15119, "pitch": 62, "duration": 238, "velocity": 100}, {"time": 15357, "pitch": 62, "duration": 482, "velocity": 100}, {"time": 16321, "pitch": 67, "duration": 221, "velocity": 100}, {"time": 16562, "pitch": 67, "duration": 221, "velocity": 100}, {"time": 16803, "pitch": 60, "duration": 218, "velocity": 100}, {"time": 17041, "pitch": 60, "duration": 218, "velocity": 100}, {"time": 17520, "pitch": 55, "duration": 241, "velocity": 100}, {"time": 17761, "pitch": 65, "duration": 241, "velocity": 100}, {"time": 18002, "pitch": 64, "duration": 241, "velocity": 100}, {"time": 18243, "pitch": 62, "duration": 238, "velocity": 100}, {"time": 18481, "pitch": 64, "duration": 479, "velocity": 100}, {"time": 19442, "pitch": 64, "duration": 241, "velocity": 100}, {"time": 19683, "pitch": 62, "duration": 238, "velocity": 100}, {"time": 19921, "pitch": 60, "duration": 119, "velocity": 100}, {"time": 20040, "pitch": 60, "duration": 360, "velocity": 100}, {"time": 20400, "pitch": 64, "duration": 241, "velocity": 100}, {"time": 20641, "pitch": 62, "duration": 241, "velocity": 100}, {"time": 20882, "pitch": 60, "duration": 120, "velocity": 100}, {"time": 21002, "pitch": 60, "duration": 359, "velocity": 100}, {"time": 21361, "pitch": 64, "duration": 238, "velocity": 100}, {"time": 21599, "pitch": 65, "duration": 241, "velocity": 100}, {"time": 21840, "pitch": 64, "duration": 241, "velocity": 100}, {"time": 22081, "pitch": 62, "duration": 241, "velocity": 100}, {"time": 22322, "pitch": 60, "duration": 241, "velocity": 100}, {"time": 22563, "pitch": 64, "duration": 238, "velocity": 100}, {"time": 22801, "pitch": 62, "duration": 238, "velocity": 100}, {"time": 23039, "pitch": 62, "duration": 482, "velocity": 100}, {"time": 23521, "pitch": 69, "duration": 241, "velocity": 100}, {"time": 23762, "pitch": 69, "duration": 240, "velocity": 100}, {"time": 24002, "pitch": 69, "duration": 239, "velocity": 100}, {"time": 24241, "pitch": 69, "duration": 119, "velocity": 100}, {"time": 24360, "pitch": 67, "duration": 239, "velocity": 100}, {"time": 24599, "pitch": 60, "duration": 121, "velocity": 100}, {"time": 24720, "pitch": 60, "duration": 241, "velocity": 100}, {"time": 25201, "pitch": 55, "duration": 241, "velocity": 100}, {"time": 25442, "pitch": 65, "duration": 238, "velocity": 100}, {"time": 25680, "pitch": 65, "duration": 239, "velocity": 100}, {"time": 25919, "pitch": 67, "duration": 240, "velocity": 100}, {"time": 26159, "pitch": 65, "duration": 241, "velocity": 100}, {"time": 26400, "pitch": 65, "duration": 241, "velocity": 100}, {"time": 26641, "pitch": 64, "duration": 479, "velocity": 100}, {"time": 27358, "pitch": 69, "duration": 241, "velocity": 100}, {"time": 27599, "pitch": 69, "duration": 241, "velocity": 100}, {"time": 27840, "pitch": 68, "duration": 241, "velocity": 100}, {"time": 28081, "pitch": 69, "duration": 241, "velocity": 100}, {"time": 28322, "pitch": 71, "duration": 238, "velocity": 100}, {"time": 28560, "pitch": 64, "duration": 238, "velocity": 100}, {"time": 28798, "pitch": 64, "duration": 241, "velocity": 100}, {"time": 29039, "pitch": 71, "duration": 362, "velocity": 100}, {"time": 29401, "pitch": 72, "duration": 120, "velocity": 100}, {"time": 29521, "pitch": 72, "duration": 1199, "velocity": 100}, {"time": 32401, "pitch": 67, "duration": 241, "velocity": 100}, {"time": 32642, "pitch": 72, "duration": 238, "velocity": 100}, {"time": 32880, "pitch": 74, "duration": 119, "velocity": 100}, {"time": 32999, "pitch": 77, "duration": 360, "velocity": 100}, {"time": 33359, "pitch": 76, "duration": 121, "velocity": 100}, {"time": 33480, "pitch": 76, "duration": 361, "velocity": 100}, {"time": 33841, "pitch": 74, "duration": 241, "velocity": 100}, {"time": 34082, "pitch": 74, "duration": 238, "velocity": 100}, {"time": 34320, "pitch": 72, "duration": 238, "velocity": 100}, {"time": 34558, "pitch": 71, "duration": 241, "velocity": 100}, {"time": 34799, "pitch": 72, "duration": 241, "velocity": 100}, {"time": 35040, "pitch": 76, "duration": 241, "velocity": 100}, {"time": 35281, "pitch": 74, "duration": 120, "velocity": 100}, {"time": 35401, "pitch": 74, "duration": 240, "velocity": 100}, {"time": 35879, "pitch": 74, "duration": 119, "velocity": 100}, {"time": 35998, "pitch": 77, "duration": 241, "velocity": 100}, {"time": 36239, "pitch": 76, "duration": 241, "velocity": 100}, {"time": 36480, "pitch": 74, "duration": 241, "velocity": 100}, {"time": 36721, "pitch": 71, "duration": 120, "velocity": 100}, {"time": 36841, "pitch": 74, "duration": 359, "velocity": 100}, {"time": 37200, "pitch": 72, "duration": 1202, "velocity": 100}, {"time": 38640, "pitch": 67, "duration": 238, "velocity": 100}, {"time": 38878, "pitch": 69, "duration": 241, "velocity": 100}, {"time": 39119, "pitch": 71, "duration": 241, "velocity": 100}, {"time": 39360, "pitch": 72, "duration": 241, "velocity": 100}, {"time": 39601, "pitch": 76, "duration": 241, "velocity": 100}, {"time": 39842, "pitch": 76, "duration": 238, "velocity": 100}, {"time": 40080, "pitch": 74, "duration": 238, "velocity": 100}, {"time": 40318, "pitch": 74, "duration": 482, "velocity": 100}, {"time": 40800, "pitch": 77, "duration": 241, "velocity": 100}, {"time": 41041, "pitch": 76, "duration": 241, "velocity": 100}, {"time": 41282, "pitch": 76, "duration": 238, "velocity": 100}, {"time": 41520, "pitch": 74, "duration": 119, "velocity": 100}, {"time": 41639, "pitch": 74, "duration": 360, "velocity": 100}, {"time": 41999, "pitch": 72, "duration": 241, "velocity": 100}, {"time": 42240, "pitch": 71, "duration": 241, "velocity": 100}, {"time": 42481, "pitch": 72, "duration": 240, "velocity": 100}, {"time": 42721, "pitch": 76, "duration": 239, "velocity": 100}, {"time": 42960, "pitch": 74, "duration": 119, "velocity": 100}, {"time": 43079, "pitch": 74, "duration": 239, "velocity": 100}, {"time": 43559, "pitch": 74, "duration": 121, "velocity": 100}, {"time": 43680, "pitch": 77, "duration": 240, "velocity": 100}, {"time": 43920, "pitch": 76, "duration": 241, "velocity": 100}, {"time": 44161, "pitch": 74, "duration": 238, "velocity": 100}, {"time": 44399, "pitch": 71, "duration": 120, "velocity": 100}, {"time": 44519, "pitch": 74, "duration": 359, "velocity": 100}, {"time": 44878, "pitch": 72, "duration": 1199, "velocity": 100}, {"time": 48481, "pitch": 69, "duration": 238, "velocity": 100}, {"time": 48719, "pitch": 71, "duration": 119, "velocity": 100}, {"time": 48838, "pitch": 72, "duration": 360, "velocity": 100}, {"time": 49198, "pitch": 76, "duration": 241, "velocity": 100}, {"time": 49439, "pitch": 74, "duration": 241, "velocity": 100}, {"time": 49680, "pitch": 71, "duration": 241, "velocity": 100}, {"time": 49921, "pitch": 71, "duration": 238, "velocity": 100}, {"time": 50159, "pitch": 69, "duration": 238, "velocity": 100}, {"time": 50397, "pitch": 67, "duration": 241, "velocity": 100}, {"time": 50638, "pitch": 69, "duration": 241, "velocity": 100}, {"time": 50879, "pitch": 71, "duration": 241, "velocity": 100}, {"time": 51120, "pitch": 74, "duration": 241, "velocity": 100}, {"time": 51361, "pitch": 72, "duration": 119, "velocity": 100}, {"time": 51480, "pitch": 74, "duration": 119, "velocity": 100}, {"time": 51599, "pitch": 72, "duration": 479, "velocity": 100}, {"time": 52078, "pitch": 69, "duration": 241, "velocity": 100}, {"time": 52319, "pitch": 77, "duration": 241, "velocity": 100}, {"time": 52560, "pitch": 77, "duration": 120, "velocity": 100}, {"time": 52680, "pitch": 69, "duration": 241, "velocity": 100}, {"time": 53042, "pitch": 69, "duration": 241, "velocity": 100}, {"time": 53283, "pitch": 72, "duration": 476, "velocity": 100}, {"time": 53759, "pitch": 71, "duration": 482, "velocity": 100}, {"time": 54241, "pitch": 72, "duration": 1440, "velocity": 100}, {"time": 71520, "pitch": 69, "duration": 221, "velocity": 100}, {"time": 71761, "pitch": 69, "duration": 221, "velocity": 100}, {"time": 72002, "pitch": 69, "duration": 218, "velocity": 100}, {"time": 72240, "pitch": 69, "duration": 218, "velocity": 100}, {"time": 72478, "pitch": 67, "duration": 221, "velocity": 100}, {"time": 72719, "pitch": 60, "duration": 462, "velocity": 100}, {"time": 73201, "pitch": 55, "duration": 221, "velocity": 100}, {"time": 73442, "pitch": 65, "duration": 218, "velocity": 100}, {"time": 73680, "pitch": 65, "duration": 218, "velocity": 100}, {"time": 73918, "pitch": 67, "duration": 221, "velocity": 100}, {"time": 74159, "pitch": 65, "duration": 221, "velocity": 100}, {"time": 74400, "pitch": 65, "duration": 221, "velocity": 100}, {"time": 74641, "pitch": 64, "duration": 479, "velocity": 100}, {"time": 75358, "pitch": 69, "duration": 241, "velocity": 100}, {"time": 75599, "pitch": 69, "duration": 241, "velocity": 100}, {"time": 75840, "pitch": 68, "duration": 241, "velocity": 100}, {"time": 76081, "pitch": 69, "duration": 241, "velocity": 100}, {"time": 76322, "pitch": 71, "duration": 238, "velocity": 100}, {"time": 76560, "pitch": 64, "duration": 238, "velocity": 100}, {"time": 76798, "pitch": 64, "duration": 241, "velocity": 100}, {"time": 77039, "pitch": 71, "duration": 361, "velocity": 100}, {"time": 77400, "pitch": 72, "duration": 121, "velocity": 100}, {"time": 77521, "pitch": 72, "duration": 1199, "velocity": 100}, {"time": 82319, "pitch": 67, "duration": 238, "velocity": 100}, {"time": 82557, "pitch": 72, "duration": 241, "velocity": 100}, {"time": 82798, "pitch": 74, "duration": 121, "velocity": 100}, {"time": 82919, "pitch": 77, "duration": 361, "velocity": 100}, {"time": 83280, "pitch": 76, "duration": 121, "velocity": 100}, {"time": 83401, "pitch": 76, "duration": 358, "velocity": 100}, {"time": 83759, "pitch": 74, "duration": 238, "velocity": 100}, {"time": 83997, "pitch": 74, "duration": 241, "velocity": 100}, {"time": 84238, "pitch": 72, "duration": 241, "velocity": 100}, {"time": 84479, "pitch": 71, "duration": 241, "velocity": 100}, {"time": 84720, "pitch": 72, "duration": 241, "velocity": 100}, {"time": 84961, "pitch": 76, "duration": 238, "velocity": 100}, {"time": 85199, "pitch": 74, "duration": 119, "velocity": 100}, {"time": 85318, "pitch": 74, "duration": 240, "velocity": 100}, {"time": 85799, "pitch": 74, "duration": 120, "velocity": 100}, {"time": 85919, "pitch": 77, "duration": 241, "velocity": 100}, {"time": 86160, "pitch": 76, "duration": 241, "velocity": 100}, {"time": 86401, "pitch": 74, "duration": 238, "velocity": 100}, {"time": 86639, "pitch": 71, "duration": 119, "velocity": 100}, {"time": 86758, "pitch": 74, "duration": 360, "velocity": 100}, {"time": 87118, "pitch": 72, "duration": 1199, "velocity": 100}, {"time": 88558, "pitch": 67, "duration": 241, "velocity": 100}, {"time": 88799, "pitch": 69, "duration": 241, "velocity": 100}, {"time": 89040, "pitch": 71, "duration": 241, "velocity": 100}, {"time": 89281, "pitch": 72, "duration": 241, "velocity": 100}, {"time": 89522, "pitch": 76, "duration": 241, "velocity": 100}, {"time": 89763, "pitch": 76, "duration": 238, "velocity": 100}, {"time": 90001, "pitch": 74, "duration": 238, "velocity": 100}, {"time": 90239, "pitch": 74, "duration": 482, "velocity": 100}, {"time": 90721, "pitch": 77, "duration": 241, "velocity": 100}, {"time": 90962, "pitch": 76, "duration": 241, "velocity": 100}, {"time": 91203, "pitch": 76, "duration": 238, "velocity": 100}, {"time": 91441, "pitch": 74, "duration": 119, "velocity": 100}, {"time": 91560, "pitch": 74, "duration": 360, "velocity": 100}, {"time": 91920, "pitch": 72, "duration": 241, "velocity": 100}, {"time": 92161, "pitch": 71, "duration": 241, "velocity": 100}, {"time": 92402, "pitch": 72, "duration": 241, "velocity": 100}, {"time": 92643, "pitch": 76, "duration": 238, "velocity": 100}, {"time": 92881, "pitch": 74, "duration": 119, "velocity": 100}, {"time": 93000, "pitch": 74, "duration": 239, "velocity": 100}, {"time": 93480, "pitch": 74, "duration": 121, "velocity": 100}, {"time": 93601, "pitch": 77, "duration": 241, "velocity": 100}, {"time": 93842, "pitch": 76, "duration": 241, "velocity": 100}, {"time": 94083, "pitch": 74, "duration": 238, "velocity": 100}, {"time": 94321, "pitch": 71, "duration": 119, "velocity": 100}, {"time": 94440, "pitch": 74, "duration": 360, "velocity": 100}, {"time": 94800, "pitch": 72, "duration": 1199, "velocity": 100}, {"time": 98402, "pitch": 69, "duration": 238, "velocity": 100}, {"time": 98640, "pitch": 71, "duration": 119, "velocity": 100}, {"time": 98759, "pitch": 72, "duration": 360, "velocity": 100}, {"time": 99119, "pitch": 76, "duration": 241, "velocity": 100}, {"time": 99360, "pitch": 74, "duration": 241, "velocity": 100}, {"time": 99601, "pitch": 71, "duration": 241, "velocity": 100}, {"time": 99842, "pitch": 71, "duration": 238, "velocity": 100}, {"time": 100080, "pitch": 69, "duration": 238, "velocity": 100}, {"time": 100318, "pitch": 67, "duration": 241, "velocity": 100}, {"time": 100559, "pitch": 69, "duration": 241, "velocity": 100}, {"time": 100800, "pitch": 71, "duration": 241, "velocity": 100}, {"time": 101041, "pitch": 74, "duration": 241, "velocity": 100}, {"time": 101282, "pitch": 72, "duration": 119, "velocity": 100}, {"time": 101401, "pitch": 74, "duration": 119, "velocity": 100}, {"time": 101520, "pitch": 72, "duration": 479, "velocity": 100}, {"time": 101999, "pitch": 69, "duration": 241, "velocity": 100}, {"time": 102240, "pitch": 77, "duration": 241, "velocity": 100}, {"time": 102481, "pitch": 77, "duration": 121, "velocity": 100}, {"time": 102602, "pitch": 69, "duration": 239, "velocity": 100}, {"time": 102960, "pitch": 69, "duration": 238, "velocity": 100}, {"time": 103198, "pitch": 72, "duration": 482, "velocity": 100}, {"time": 103680, "pitch": 71, "duration": 241, "velocity": 100}, {"time": 103921, "pitch": 72, "duration": 1681, "velocity": 100}, {"time": 108000, "pitch": 69, "duration": 241, "velocity": 100}, {"time": 108241, "pitch": 71, "duration": 120, "velocity": 100}, {"time": 108361, "pitch": 72, "duration": 359, "velocity": 100}, {"time": 108720, "pitch": 76, "duration": 238, "velocity": 100}, {"time": 108958, "pitch": 74, "duration": 241, "velocity": 100}, {"time": 109199, "pitch": 71, "duration": 241, "velocity": 100}, {"time": 109440, "pitch": 71, "duration": 241, "velocity": 100}, {"time": 109681, "pitch": 69, "duration": 241, "velocity": 100}, {"time": 109922, "pitch": 67, "duration": 238, "velocity": 100}, {"time": 110160, "pitch": 69, "duration": 238, "velocity": 100}, {"time": 110398, "pitch": 71, "duration": 241, "velocity": 100}, {"time": 110639, "pitch": 74, "duration": 241, "velocity": 100}, {"time": 110880, "pitch": 72, "duration": 120, "velocity": 100}, {"time": 111000, "pitch": 74, "duration": 121, "velocity": 100}, {"time": 111121, "pitch": 72, "duration": 479, "velocity": 100}, {"time": 111600, "pitch": 69, "duration": 238, "velocity": 100}, {"time": 111838, "pitch": 77, "duration": 241, "velocity": 100}, {"time": 112079, "pitch": 77, "duration": 120, "velocity": 100}, {"time": 112199, "pitch": 69, "duration": 241, "velocity": 100}, {"time": 112561, "pitch": 69, "duration": 240, "velocity": 100}, {"time": 112801, "pitch": 72, "duration": 480, "velocity": 100}, {"time": 113281, "pitch": 71, "duration": 479, "velocity": 100}, {"time": 113760, "pitch": 72, "duration": 1922, "velocity": 100}], "annotations": [{"time": 241, "annotation": {"number": 7, "value": 90}, "group": "control_change"}, {"time": 241, "annotation": {"number": 10, "value": 64}, "group": "control_change"}, {"time": 241, "annotation": {"number": 11, "value": 100}, "group": "control_change"}, {"time": 263, "annotation": {"number": 91, "value": 40}, "group": "control_change"}, {"time": 263, "annotation": {"number": 93, "value": 0}, "group": "control_change"}, {"time": 350, "annotation": {"number": 101, "value": 0}, "group": "control_change"}, {"time": 372, "annotation": {"number": 100, "value": 0}, "group": "control_change"}, {"time": 394, "annotation": {"number": 6, "value": 12}, "group": "control_change"}, {"time": 416, "annotation": {"number": 1, "value": 0}, "group": "control_change"}, {"time": 416, "annotation": {"number": 64, "value": 0}, "group": "control_change"}]}]}