{"metadata": {"schema_version": "0.1", "title": "RWC-MDB-P-2001 No. 96: Weekend / Betty", "copyright": "RWC Music Database. Copyright (C) 2001 Real World Computing Partnership (contact: Masataka GOTO <m.goto@aist.go.jp>)", "source_filename": "RM-P096.SMF_SYNC.MID", "source_format": "midi"}, "resolution": 480, "tempos": [{"time": 0, "qpm": 58.8235294117647}, {"time": 480, "qpm": 130.43478260869566}, {"time": 2880, "qpm": 127.65957446808511}, {"time": 3360, "qpm": 130.43478260869566}, {"time": 5760, "qpm": 127.65957446808511}, {"time": 6240, "qpm": 130.43478260869566}, {"time": 9120, "qpm": 127.65957446808511}, {"time": 9600, "qpm": 130.43478260869566}, {"time": 12000, "qpm": 127.65957446808511}, {"time": 12480, "qpm": 130.43478260869566}, {"time": 14880, "qpm": 127.65957446808511}, {"time": 15360, "qpm": 130.43478260869566}, {"time": 18240, "qpm": 127.65957446808511}, {"time": 18720, "qpm": 130.43478260869566}, {"time": 21600, "qpm": 127.65957446808511}, {"time": 22080, "qpm": 130.43478260869566}, {"time": 24480, "qpm": 127.65957446808511}, {"time": 24960, "qpm": 130.43478260869566}, {"time": 27840, "qpm": 127.65957446808511}, {"time": 28320, "qpm": 130.43478260869566}, {"time": 31200, "qpm": 127.65957446808511}, {"time": 31680, "qpm": 130.43478260869566}, {"time": 34560, "qpm": 127.65957446808511}, {"time": 35040, "qpm": 130.43478260869566}, {"time": 37440, "qpm": 127.65957446808511}, {"time": 37920, "qpm": 130.43478260869566}, {"time": 40320, "qpm": 127.65957446808511}, {"time": 40800, "qpm": 130.43478260869566}, {"time": 43680, "qpm": 127.65957446808511}, {"time": 44160, "qpm": 130.43478260869566}, {"time": 47040, "qpm": 127.65957446808511}, {"time": 47520, "qpm": 130.43478260869566}, {"time": 50400, "qpm": 127.65957446808511}, {"time": 50880, "qpm": 130.43478260869566}, {"time": 53280, "qpm": 127.65957446808511}, {"time": 53760, "qpm": 130.43478260869566}, {"time": 56640, "qpm": 127.65957446808511}, {"time": 57120, "qpm": 130.43478260869566}, {"time": 59520, "qpm": 127.65957446808511}, {"time": 60000, "qpm": 130.43478260869566}, {"time": 62400, "qpm": 127.65957446808511}, {"time": 62880, "qpm": 130.43478260869566}, {"time": 65760, "qpm": 127.65957446808511}, {"time": 66240, "qpm": 130.43478260869566}, {"time": 68640, "qpm": 127.65957446808511}, {"time": 69120, "qpm": 130.43478260869566}, {"time": 72000, "qpm": 127.65957446808511}, {"time": 72480, "qpm": 130.43478260869566}, {"time": 75840, "qpm": 127.65957446808511}, {"time": 76320, "qpm": 130.43478260869566}, {"time": 78240, "qpm": 127.65957446808511}, {"time": 78720, "qpm": 130.43478260869566}, {"time": 81600, "qpm": 127.65957446808511}, {"time": 82080, "qpm": 130.43478260869566}, {"time": 84480, "qpm": 127.65957446808511}, {"time": 84960, "qpm": 130.43478260869566}, {"time": 87840, "qpm": 127.65957446808511}, {"time": 88320, "qpm": 130.43478260869566}, {"time": 91200, "qpm": 127.65957446808511}, {"time": 91680, "qpm": 130.43478260869566}, {"time": 94080, "qpm": 127.65957446808511}, {"time": 94560, "qpm": 130.43478260869566}, {"time": 97440, "qpm": 127.65957446808511}, {"time": 97920, "qpm": 130.43478260869566}, {"time": 100320, "qpm": 127.65957446808511}, {"time": 100800, "qpm": 130.43478260869566}, {"time": 103680, "qpm": 127.65957446808511}, {"time": 104160, "qpm": 130.43478260869566}, {"time": 107040, "qpm": 127.65957446808511}, {"time": 107520, "qpm": 130.43478260869566}, {"time": 109920, "qpm": 127.65957446808511}, {"time": 110400, "qpm": 130.43478260869566}, {"time": 113280, "qpm": 127.65957446808511}, {"time": 113760, "qpm": 130.43478260869566}, {"time": 116160, "qpm": 127.65957446808511}, {"time": 116640, "qpm": 130.43478260869566}, {"time": 119040, "qpm": 127.65957446808511}, {"time": 119520, "qpm": 130.43478260869566}, {"time": 122400, "qpm": 127.65957446808511}, {"time": 122880, "qpm": 130.43478260869566}, {"time": 126240, "qpm": 127.65957446808511}, {"time": 126720, "qpm": 130.43478260869566}, {"time": 129120, "qpm": 127.65957446808511}, {"time": 129600, "qpm": 130.43478260869566}, {"time": 132000, "qpm": 127.65957446808511}, {"time": 132480, "qpm": 130.43478260869566}, {"time": 135360, "qpm": 127.65957446808511}, {"time": 135840, "qpm": 130.43478260869566}, {"time": 138240, "qpm": 127.65957446808511}, {"time": 138720, "qpm": 130.43478260869566}, {"time": 141120, "qpm": 127.65957446808511}, {"time": 141600, "qpm": 130.43478260869566}, {"time": 144960, "qpm": 127.65957446808511}, {"time": 145440, "qpm": 130.43478260869566}, {"time": 147840, "qpm": 127.65957446808511}, {"time": 148320, "qpm": 130.43478260869566}, {"time": 150720, "qpm": 127.65957446808511}, {"time": 151200, "qpm": 130.43478260869566}, {"time": 154080, "qpm": 127.65957446808511}, {"time": 154560, "qpm": 130.43478260869566}, {"time": 157440, "qpm": 127.65957446808511}, {"time": 157920, "qpm": 130.43478260869566}, {"time": 160800, "qpm": 127.65957446808511}, {"time": 161280, "qpm": 130.43478260869566}, {"time": 164160, "qpm": 127.65957446808511}, {"time": 164640, "qpm": 130.43478260869566}, {"time": 166560, "qpm": 127.65957446808511}, {"time": 167040, "qpm": 130.43478260869566}, {"time": 169920, "qpm": 127.65957446808511}, {"time": 170400, "qpm": 130.43478260869566}, {"time": 173280, "qpm": 127.65957446808511}, {"time": 173760, "qpm": 130.43478260869566}, {"time": 176160, "qpm": 127.65957446808511}, {"time": 176640, "qpm": 130.43478260869566}, {"time": 179520, "qpm": 127.65957446808511}, {"time": 180000, "qpm": 130.43478260869566}, {"time": 182400, "qpm": 127.65957446808511}, {"time": 182880, "qpm": 130.43478260869566}, {"time": 185760, "qpm": 127.65957446808511}, {"time": 186240, "qpm": 130.43478260869566}, {"time": 188640, "qpm": 127.65957446808511}, {"time": 189120, "qpm": 130.43478260869566}, {"time": 192000, "qpm": 127.65957446808511}, {"time": 192480, "qpm": 130.43478260869566}, {"time": 194880, "qpm": 127.65957446808511}, {"time": 195360, "qpm": 130.43478260869566}, {"time": 198240, "qpm": 127.65957446808511}, {"time": 198720, "qpm": 130.43478260869566}, {"time": 201600, "qpm": 127.65957446808511}, {"time": 202080, "qpm": 130.43478260869566}, {"time": 204960, "qpm": 127.65957446808511}, {"time": 205440, "qpm": 130.43478260869566}, {"time": 207360, "qpm": 127.65957446808511}, {"time": 207840, "qpm": 130.43478260869566}, {"time": 211200, "qpm": 127.65957446808511}, {"time": 211680, "qpm": 130.43478260869566}, {"time": 215040, "qpm": 127.65957446808511}, {"time": 215520, "qpm": 130.43478260869566}, {"time": 217920, "qpm": 127.65957446808511}, {"time": 218400, "qpm": 130.43478260869566}, {"time": 220800, "qpm": 127.65957446808511}, {"time": 221280, "qpm": 130.43478260869566}, {"time": 224160, "qpm": 127.65957446808511}, {"time": 224640, "qpm": 130.43478260869566}, {"time": 226560, "qpm": 127.65957446808511}, {"time": 227040, "qpm": 130.43478260869566}, {"time": 229920, "qpm": 127.65957446808511}, {"time": 230400, "qpm": 130.43478260869566}, {"time": 233280, "qpm": 127.65957446808511}, {"time": 233760, "qpm": 130.43478260869566}, {"time": 236160, "qpm": 127.65957446808511}, {"time": 236640, "qpm": 130.43478260869566}, {"time": 239040, "qpm": 127.65957446808511}, {"time": 239520, "qpm": 130.43478260869566}, {"time": 242880, "qpm": 127.65957446808511}, {"time": 243360, "qpm": 130.43478260869566}, {"time": 245760, "qpm": 127.65957446808511}, {"time": 246240, "qpm": 130.43478260869566}, {"time": 249120, "qpm": 127.65957446808511}, {"time": 249600, "qpm": 130.43478260869566}, {"time": 251520, "qpm": 127.65957446808511}, {"time": 252000, "qpm": 130.43478260869566}, {"time": 255360, "qpm": 127.65957446808511}, {"time": 255840, "qpm": 130.43478260869566}, {"time": 258720, "qpm": 127.65957446808511}, {"time": 259200, "qpm": 130.43478260869566}, {"time": 261120, "qpm": 127.65957446808511}, {"time": 261600, "qpm": 130.43478260869566}, {"time": 264960, "qpm": 127.65957446808511}, {"time": 265440, "qpm": 130.43478260869566}, {"time": 267840, "qpm": 127.65957446808511}, {"time": 268320, "qpm": 130.43478260869566}, {"time": 270720, "qpm": 127.65957446808511}, {"time": 271200, "qpm": 130.43478260869566}, {"time": 274080, "qpm": 127.65957446808511}, {"time": 274560, "qpm": 130.43478260869566}, {"time": 276960, "qpm": 127.65957446808511}, {"time": 277440, "qpm": 130.43478260869566}, {"time": 280800, "qpm": 127.65957446808511}, {"time": 281280, "qpm": 130.43478260869566}], "key_signatures": [{"time": 0, "root": 4, "mode": "minor"}], "time_signatures": [{"time": 0, "numerator": 1, "denominator": 4}, {"time": 480, "numerator": 4, "denominator": 4}], "tracks": [{"program": 0, "is_drum": false, "name": "BURST SE", "annotations": [{"time": 217, "annotation": {"number": 0, "value": 2}, "group": "control_change"}, {"time": 239, "annotation": {"number": 32, "value": 0}, "group": "control_change"}]}, {"program": 122, "is_drum": false, "name": "BURST SE", "notes": [{"time": 2402, "pitch": 66, "duration": 3872, "velocity": 127}, {"time": 17762, "pitch": 66, "duration": 3871, "velocity": 127}, {"time": 81125, "pitch": 66, "duration": 3862, "velocity": 127}, {"time": 96484, "pitch": 66, "duration": 3862, "velocity": 127}, {"time": 115675, "pitch": 66, "duration": 3873, "velocity": 127}, {"time": 123360, "pitch": 66, "duration": 3872, "velocity": 127}, {"time": 163679, "pitch": 66, "duration": 3873, "velocity": 127}, {"time": 179038, "pitch": 66, "duration": 3873, "velocity": 127}, {"time": 211683, "pitch": 66, "duration": 3862, "velocity": 127}, {"time": 227042, "pitch": 66, "duration": 3872, "velocity": 127}, {"time": 246244, "pitch": 66, "duration": 3862, "velocity": 127}, {"time": 253918, "pitch": 66, "duration": 3873, "velocity": 127}, {"time": 261603, "pitch": 66, "duration": 3862, "velocity": 127}, {"time": 269277, "pitch": 66, "duration": 3873, "velocity": 127}, {"time": 276962, "pitch": 66, "duration": 3872, "velocity": 127}, {"time": 284647, "pitch": 66, "duration": 3883, "velocity": 127}], "annotations": [{"time": 283, "annotation": {"number": 7, "value": 90}, "group": "control_change"}, {"time": 304, "annotation": {"number": 11, "value": 127}, "group": "control_change"}, {"time": 326, "annotation": {"number": 10, "value": 64}, "group": "control_change"}, {"time": 348, "annotation": {"number": 91, "value": 60}, "group": "control_change"}, {"time": 370, "annotation": {"number": 93, "value": 0}, "group": "control_change"}, {"time": 391, "annotation": {"number": 101, "value": 0}, "group": "control_change"}, {"time": 413, "annotation": {"number": 100, "value": 0}, "group": "control_change"}, {"time": 435, "annotation": {"number": 6, "value": 12}, "group": "control_change"}, {"time": 456, "annotation": {"number": 101, "value": 127}, "group": "control_change"}, {"time": 478, "annotation": {"number": 100, "value": 127}, "group": "control_change"}]}, {"program": 0, "is_drum": false, "name": "BASS", "annotations": [{"time": 217, "annotation": {"number": 0, "value": 0}, "group": "control_change"}, {"time": 239, "annotation": {"number": 32, "value": 0}, "group": "control_change"}]}, {"program": 38, "is_drum": false, "name": "BASS", "notes": [{"time": 2402, "pitch": 40, "duration": 121, "velocity": 127}, {"time": 2523, "pitch": 40, "duration": 120, "velocity": 127}, {"time": 2643, "pitch": 40, "duration": 241, "velocity": 127}, {"time": 2884, "pitch": 38, "duration": 118, "velocity": 127}, {"time": 3002, "pitch": 40, "duration": 235, "velocity": 127}, {"time": 3237, "pitch": 38, "duration": 118, "velocity": 127}, {"time": 3355, "pitch": 40, "duration": 241, "velocity": 127}, {"time": 3596, "pitch": 40, "duration": 120, "velocity": 127}, {"time": 3716, "pitch": 40, "duration": 241, "velocity": 127}, {"time": 3957, "pitch": 40, "duration": 121, "velocity": 127}, {"time": 4078, "pitch": 40, "duration": 240, "velocity": 127}, {"time": 4318, "pitch": 38, "duration": 121, "velocity": 127}, {"time": 4439, "pitch": 38, "duration": 120, "velocity": 127}, {"time": 4559, "pitch": 38, "duration": 241, "velocity": 127}, {"time": 4800, "pitch": 36, "duration": 120, "velocity": 127}, {"time": 4920, "pitch": 38, "duration": 241, "velocity": 127}, {"time": 5161, "pitch": 36, "duration": 121, "velocity": 127}, {"time": 5282, "pitch": 38, "duration": 240, "velocity": 127}, {"time": 5522, "pitch": 38, "duration": 121, "velocity": 127}, {"time": 5643, "pitch": 38, "duration": 241, "velocity": 127}, {"time": 5884, "pitch": 38, "duration": 120, "velocity": 127}, {"time": 6004, "pitch": 38, "duration": 241, "velocity": 127}, {"time": 6245, "pitch": 36, "duration": 118, "velocity": 127}, {"time": 6363, "pitch": 36, "duration": 117, "velocity": 127}, {"time": 6480, "pitch": 36, "duration": 236, "velocity": 127}, {"time": 6716, "pitch": 35, "duration": 120, "velocity": 127}, {"time": 6836, "pitch": 36, "duration": 241, "velocity": 127}, {"time": 7077, "pitch": 35, "duration": 121, "velocity": 127}, {"time": 7198, "pitch": 36, "duration": 240, "velocity": 127}, {"time": 7438, "pitch": 36, "duration": 121, "velocity": 127}, {"time": 7559, "pitch": 36, "duration": 241, "velocity": 127}, {"time": 7800, "pitch": 36, "duration": 120, "velocity": 127}, {"time": 7920, "pitch": 36, "duration": 241, "velocity": 127}, {"time": 8161, "pitch": 36, "duration": 120, "velocity": 127}, {"time": 8281, "pitch": 36, "duration": 121, "velocity": 127}, {"time": 8402, "pitch": 36, "duration": 240, "velocity": 127}, {"time": 8642, "pitch": 35, "duration": 121, "velocity": 127}, {"time": 8763, "pitch": 36, "duration": 241, "velocity": 127}, {"time": 9004, "pitch": 35, "duration": 120, "velocity": 127}, {"time": 9124, "pitch": 36, "duration": 236, "velocity": 127}, {"time": 9360, "pitch": 36, "duration": 117, "velocity": 127}, {"time": 9477, "pitch": 36, "duration": 239, "velocity": 127}, {"time": 9716, "pitch": 36, "duration": 120, "velocity": 127}, {"time": 9836, "pitch": 36, "duration": 241, "velocity": 127}, {"time": 10077, "pitch": 40, "duration": 120, "velocity": 127}, {"time": 10197, "pitch": 40, "duration": 121, "velocity": 127}, {"time": 10318, "pitch": 40, "duration": 240, "velocity": 127}, {"time": 10558, "pitch": 38, "duration": 121, "velocity": 127}, {"time": 10679, "pitch": 40, "duration": 241, "velocity": 127}, {"time": 10920, "pitch": 38, "duration": 120, "velocity": 127}, {"time": 11040, "pitch": 40, "duration": 241, "velocity": 127}, {"time": 11281, "pitch": 40, "duration": 120, "velocity": 127}, {"time": 11401, "pitch": 40, "duration": 241, "velocity": 127}, {"time": 11642, "pitch": 40, "duration": 120, "velocity": 127}, {"time": 11762, "pitch": 40, "duration": 241, "velocity": 127}, {"time": 12003, "pitch": 38, "duration": 121, "velocity": 127}, {"time": 12124, "pitch": 38, "duration": 120, "velocity": 127}, {"time": 12244, "pitch": 38, "duration": 241, "velocity": 127}, {"time": 12485, "pitch": 36, "duration": 118, "velocity": 127}, {"time": 12603, "pitch": 38, "duration": 235, "velocity": 127}, {"time": 12838, "pitch": 36, "duration": 118, "velocity": 127}, {"time": 12956, "pitch": 38, "duration": 241, "velocity": 127}, {"time": 13197, "pitch": 38, "duration": 120, "velocity": 127}, {"time": 13317, "pitch": 38, "duration": 241, "velocity": 127}, {"time": 13558, "pitch": 38, "duration": 120, "velocity": 127}, {"time": 13678, "pitch": 38, "duration": 241, "velocity": 127}, {"time": 13919, "pitch": 36, "duration": 121, "velocity": 127}, {"time": 14040, "pitch": 36, "duration": 120, "velocity": 127}, {"time": 14160, "pitch": 36, "duration": 241, "velocity": 127}, {"time": 14401, "pitch": 35, "duration": 120, "velocity": 127}, {"time": 14521, "pitch": 36, "duration": 241, "velocity": 127}, {"time": 14762, "pitch": 35, "duration": 120, "velocity": 127}, {"time": 14882, "pitch": 36, "duration": 241, "velocity": 127}, {"time": 15123, "pitch": 36, "duration": 121, "velocity": 127}, {"time": 15244, "pitch": 36, "duration": 238, "velocity": 127}, {"time": 15482, "pitch": 36, "duration": 118, "velocity": 127}, {"time": 15600, "pitch": 36, "duration": 235, "velocity": 127}, {"time": 15835, "pitch": 36, "duration": 121, "velocity": 127}, {"time": 15956, "pitch": 36, "duration": 120, "velocity": 127}, {"time": 16076, "pitch": 36, "duration": 241, "velocity": 127}, {"time": 16317, "pitch": 35, "duration": 120, "velocity": 127}, {"time": 16437, "pitch": 36, "duration": 241, "velocity": 127}, {"time": 16678, "pitch": 35, "duration": 120, "velocity": 127}, {"time": 16798, "pitch": 36, "duration": 241, "velocity": 127}, {"time": 17039, "pitch": 36, "duration": 121, "velocity": 127}, {"time": 17160, "pitch": 36, "duration": 240, "velocity": 127}, {"time": 17400, "pitch": 36, "duration": 121, "velocity": 127}, {"time": 17521, "pitch": 36, "duration": 241, "velocity": 127}, {"time": 17762, "pitch": 40, "duration": 120, "velocity": 127}, {"time": 17882, "pitch": 40, "duration": 120, "velocity": 127}, {"time": 18002, "pitch": 40, "duration": 241, "velocity": 127}, {"time": 18243, "pitch": 38, "duration": 121, "velocity": 127}, {"time": 18364, "pitch": 40, "duration": 240, "velocity": 127}, {"time": 18604, "pitch": 38, "duration": 121, "velocity": 127}, {"time": 18725, "pitch": 40, "duration": 235, "velocity": 127}, {"time": 18960, "pitch": 40, "duration": 118, "velocity": 127}, {"time": 19078, "pitch": 40, "duration": 238, "velocity": 127}, {"time": 19316, "pitch": 40, "duration": 121, "velocity": 127}, {"time": 19437, "pitch": 40, "duration": 241, "velocity": 127}, {"time": 19678, "pitch": 38, "duration": 120, "velocity": 127}, {"time": 19798, "pitch": 38, "duration": 120, "velocity": 127}, {"time": 19918, "pitch": 38, "duration": 241, "velocity": 127}, {"time": 20159, "pitch": 36, "duration": 121, "velocity": 127}, {"time": 20280, "pitch": 38, "duration": 240, "velocity": 127}, {"time": 20520, "pitch": 36, "duration": 121, "velocity": 127}, {"time": 20641, "pitch": 38, "duration": 241, "velocity": 127}, {"time": 20882, "pitch": 38, "duration": 120, "velocity": 127}, {"time": 21002, "pitch": 38, "duration": 241, "velocity": 127}, {"time": 21243, "pitch": 38, "duration": 120, "velocity": 127}, {"time": 21363, "pitch": 38, "duration": 241, "velocity": 127}, {"time": 21604, "pitch": 36, "duration": 118, "velocity": 127}, {"time": 21722, "pitch": 36, "duration": 118, "velocity": 127}, {"time": 21840, "pitch": 36, "duration": 235, "velocity": 127}, {"time": 22075, "pitch": 35, "duration": 121, "velocity": 127}, {"time": 22196, "pitch": 36, "duration": 240, "velocity": 127}, {"time": 22436, "pitch": 35, "duration": 121, "velocity": 127}, {"time": 22557, "pitch": 36, "duration": 241, "velocity": 127}, {"time": 22798, "pitch": 36, "duration": 120, "velocity": 127}, {"time": 22918, "pitch": 36, "duration": 241, "velocity": 127}, {"time": 23159, "pitch": 36, "duration": 120, "velocity": 127}, {"time": 23279, "pitch": 36, "duration": 241, "velocity": 127}, {"time": 23520, "pitch": 36, "duration": 120, "velocity": 127}, {"time": 23640, "pitch": 36, "duration": 121, "velocity": 127}, {"time": 23761, "pitch": 36, "duration": 241, "velocity": 127}, {"time": 24002, "pitch": 35, "duration": 120, "velocity": 127}, {"time": 24122, "pitch": 36, "duration": 241, "velocity": 127}, {"time": 24363, "pitch": 35, "duration": 120, "velocity": 127}, {"time": 24483, "pitch": 36, "duration": 241, "velocity": 127}, {"time": 24724, "pitch": 36, "duration": 120, "velocity": 127}, {"time": 24844, "pitch": 36, "duration": 239, "velocity": 127}, {"time": 25083, "pitch": 36, "duration": 117, "velocity": 127}, {"time": 25200, "pitch": 36, "duration": 236, "velocity": 127}, {"time": 25436, "pitch": 40, "duration": 120, "velocity": 127}, {"time": 25556, "pitch": 40, "duration": 121, "velocity": 127}, {"time": 25677, "pitch": 40, "duration": 241, "velocity": 127}, {"time": 25918, "pitch": 38, "duration": 120, "velocity": 127}, {"time": 26038, "pitch": 40, "duration": 241, "velocity": 127}, {"time": 26279, "pitch": 38, "duration": 120, "velocity": 127}, {"time": 26399, "pitch": 40, "duration": 241, "velocity": 127}, {"time": 26640, "pitch": 40, "duration": 120, "velocity": 127}, {"time": 26760, "pitch": 40, "duration": 241, "velocity": 127}, {"time": 27001, "pitch": 40, "duration": 121, "velocity": 127}, {"time": 27122, "pitch": 40, "duration": 240, "velocity": 127}, {"time": 27362, "pitch": 38, "duration": 121, "velocity": 127}, {"time": 27483, "pitch": 38, "duration": 120, "velocity": 127}, {"time": 27603, "pitch": 38, "duration": 241, "velocity": 127}, {"time": 27844, "pitch": 36, "duration": 118, "velocity": 127}, {"time": 27962, "pitch": 38, "duration": 235, "velocity": 127}, {"time": 28197, "pitch": 36, "duration": 118, "velocity": 127}, {"time": 28315, "pitch": 38, "duration": 241, "velocity": 127}, {"time": 28556, "pitch": 38, "duration": 120, "velocity": 127}, {"time": 28676, "pitch": 38, "duration": 241, "velocity": 127}, {"time": 28917, "pitch": 38, "duration": 121, "velocity": 127}, {"time": 29038, "pitch": 38, "duration": 240, "velocity": 127}, {"time": 29278, "pitch": 36, "duration": 121, "velocity": 127}, {"time": 29399, "pitch": 36, "duration": 120, "velocity": 127}, {"time": 29519, "pitch": 36, "duration": 241, "velocity": 127}, {"time": 29760, "pitch": 35, "duration": 120, "velocity": 127}, {"time": 29880, "pitch": 36, "duration": 241, "velocity": 127}, {"time": 30121, "pitch": 35, "duration": 121, "velocity": 127}, {"time": 30242, "pitch": 36, "duration": 240, "velocity": 127}, {"time": 30482, "pitch": 36, "duration": 121, "velocity": 127}, {"time": 30603, "pitch": 36, "duration": 241, "velocity": 127}, {"time": 30844, "pitch": 36, "duration": 120, "velocity": 127}, {"time": 30964, "pitch": 36, "duration": 241, "velocity": 127}, {"time": 31205, "pitch": 36, "duration": 118, "velocity": 127}, {"time": 31323, "pitch": 36, "duration": 117, "velocity": 127}, {"time": 31440, "pitch": 36, "duration": 236, "velocity": 127}, {"time": 31676, "pitch": 35, "duration": 120, "velocity": 127}, {"time": 31796, "pitch": 36, "duration": 241, "velocity": 127}, {"time": 32037, "pitch": 35, "duration": 121, "velocity": 127}, {"time": 32158, "pitch": 36, "duration": 240, "velocity": 127}, {"time": 32398, "pitch": 36, "duration": 121, "velocity": 127}, {"time": 32519, "pitch": 36, "duration": 241, "velocity": 127}, {"time": 32760, "pitch": 36, "duration": 120, "velocity": 127}, {"time": 32880, "pitch": 36, "duration": 241, "velocity": 127}, {"time": 46564, "pitch": 38, "duration": 118, "velocity": 127}, {"time": 46682, "pitch": 40, "duration": 235, "velocity": 127}, {"time": 46917, "pitch": 38, "duration": 118, "velocity": 127}, {"time": 47035, "pitch": 40, "duration": 241, "velocity": 127}, {"time": 47276, "pitch": 38, "duration": 120, "velocity": 127}, {"time": 47396, "pitch": 40, "duration": 241, "velocity": 127}, {"time": 47637, "pitch": 38, "duration": 121, "velocity": 127}, {"time": 47758, "pitch": 40, "duration": 240, "velocity": 127}, {"time": 47998, "pitch": 38, "duration": 121, "velocity": 127}, {"time": 48119, "pitch": 40, "duration": 120, "velocity": 127}, {"time": 48239, "pitch": 38, "duration": 121, "velocity": 127}, {"time": 48360, "pitch": 40, "duration": 120, "velocity": 127}, {"time": 48480, "pitch": 38, "duration": 120, "velocity": 127}, {"time": 48600, "pitch": 40, "duration": 241, "velocity": 127}, {"time": 48841, "pitch": 38, "duration": 121, "velocity": 127}, {"time": 48962, "pitch": 35, "duration": 120, "velocity": 127}, {"time": 49082, "pitch": 33, "duration": 120, "velocity": 127}, {"time": 49202, "pitch": 31, "duration": 121, "velocity": 127}, {"time": 49323, "pitch": 28, "duration": 120, "velocity": 127}, {"time": 49443, "pitch": 38, "duration": 121, "velocity": 127}, {"time": 49564, "pitch": 40, "duration": 240, "velocity": 127}, {"time": 49804, "pitch": 38, "duration": 121, "velocity": 127}, {"time": 49925, "pitch": 35, "duration": 118, "velocity": 127}, {"time": 50043, "pitch": 33, "duration": 117, "velocity": 127}, {"time": 50160, "pitch": 31, "duration": 118, "velocity": 127}, {"time": 50278, "pitch": 28, "duration": 118, "velocity": 127}, {"time": 50396, "pitch": 38, "duration": 120, "velocity": 127}, {"time": 50516, "pitch": 40, "duration": 241, "velocity": 127}, {"time": 50757, "pitch": 38, "duration": 121, "velocity": 127}, {"time": 50878, "pitch": 35, "duration": 120, "velocity": 127}, {"time": 50998, "pitch": 33, "duration": 120, "velocity": 127}, {"time": 51118, "pitch": 31, "duration": 121, "velocity": 127}, {"time": 51239, "pitch": 28, "duration": 120, "velocity": 127}, {"time": 51359, "pitch": 38, "duration": 121, "velocity": 127}, {"time": 51480, "pitch": 40, "duration": 240, "velocity": 127}, {"time": 51720, "pitch": 38, "duration": 121, "velocity": 127}, {"time": 51841, "pitch": 35, "duration": 120, "velocity": 127}, {"time": 51961, "pitch": 33, "duration": 121, "velocity": 127}, {"time": 52082, "pitch": 31, "duration": 120, "velocity": 127}, {"time": 52202, "pitch": 28, "duration": 120, "velocity": 127}, {"time": 52322, "pitch": 38, "duration": 121, "velocity": 127}, {"time": 52443, "pitch": 40, "duration": 241, "velocity": 127}, {"time": 52684, "pitch": 38, "duration": 120, "velocity": 127}, {"time": 52804, "pitch": 35, "duration": 118, "velocity": 127}, {"time": 52922, "pitch": 33, "duration": 118, "velocity": 127}, {"time": 53040, "pitch": 31, "duration": 117, "velocity": 127}, {"time": 53157, "pitch": 28, "duration": 118, "velocity": 127}, {"time": 53275, "pitch": 38, "duration": 121, "velocity": 127}, {"time": 53396, "pitch": 40, "duration": 240, "velocity": 127}, {"time": 53636, "pitch": 38, "duration": 121, "velocity": 127}, {"time": 53757, "pitch": 35, "duration": 120, "velocity": 127}, {"time": 53877, "pitch": 33, "duration": 121, "velocity": 127}, {"time": 53998, "pitch": 31, "duration": 120, "velocity": 127}, {"time": 54118, "pitch": 28, "duration": 120, "velocity": 127}, {"time": 54238, "pitch": 38, "duration": 121, "velocity": 127}, {"time": 54359, "pitch": 40, "duration": 241, "velocity": 127}, {"time": 54600, "pitch": 38, "duration": 120, "velocity": 127}, {"time": 54720, "pitch": 35, "duration": 120, "velocity": 127}, {"time": 54840, "pitch": 33, "duration": 121, "velocity": 127}, {"time": 54961, "pitch": 31, "duration": 120, "velocity": 127}, {"time": 55081, "pitch": 28, "duration": 121, "velocity": 127}, {"time": 55202, "pitch": 38, "duration": 120, "velocity": 127}, {"time": 55322, "pitch": 40, "duration": 241, "velocity": 127}, {"time": 55563, "pitch": 38, "duration": 120, "velocity": 127}, {"time": 55683, "pitch": 35, "duration": 121, "velocity": 127}, {"time": 55804, "pitch": 33, "duration": 120, "velocity": 127}, {"time": 55924, "pitch": 31, "duration": 120, "velocity": 127}, {"time": 56044, "pitch": 28, "duration": 121, "velocity": 127}, {"time": 56165, "pitch": 38, "duration": 117, "velocity": 127}, {"time": 56282, "pitch": 40, "duration": 236, "velocity": 127}, {"time": 56518, "pitch": 38, "duration": 118, "velocity": 127}, {"time": 56636, "pitch": 35, "duration": 120, "velocity": 127}, {"time": 56756, "pitch": 33, "duration": 121, "velocity": 127}, {"time": 56877, "pitch": 31, "duration": 120, "velocity": 127}, {"time": 56997, "pitch": 28, "duration": 121, "velocity": 127}, {"time": 57118, "pitch": 38, "duration": 120, "velocity": 127}, {"time": 57238, "pitch": 40, "duration": 241, "velocity": 127}, {"time": 57479, "pitch": 38, "duration": 120, "velocity": 127}, {"time": 57599, "pitch": 35, "duration": 121, "velocity": 127}, {"time": 57720, "pitch": 33, "duration": 120, "velocity": 127}, {"time": 57840, "pitch": 31, "duration": 120, "velocity": 127}, {"time": 57960, "pitch": 28, "duration": 121, "velocity": 127}, {"time": 58081, "pitch": 38, "duration": 120, "velocity": 127}, {"time": 58201, "pitch": 40, "duration": 241, "velocity": 127}, {"time": 58442, "pitch": 38, "duration": 120, "velocity": 127}, {"time": 58562, "pitch": 35, "duration": 121, "velocity": 127}, {"time": 58683, "pitch": 33, "duration": 120, "velocity": 127}, {"time": 58803, "pitch": 31, "duration": 121, "velocity": 127}, {"time": 58924, "pitch": 28, "duration": 120, "velocity": 127}, {"time": 59044, "pitch": 38, "duration": 118, "velocity": 127}, {"time": 59162, "pitch": 40, "duration": 235, "velocity": 127}, {"time": 59397, "pitch": 38, "duration": 118, "velocity": 127}, {"time": 59515, "pitch": 35, "duration": 121, "velocity": 127}, {"time": 59636, "pitch": 33, "duration": 120, "velocity": 127}, {"time": 59756, "pitch": 31, "duration": 120, "velocity": 127}, {"time": 59876, "pitch": 28, "duration": 121, "velocity": 127}, {"time": 59997, "pitch": 38, "duration": 120, "velocity": 127}, {"time": 60117, "pitch": 40, "duration": 241, "velocity": 127}, {"time": 60358, "pitch": 38, "duration": 120, "velocity": 127}, {"time": 60478, "pitch": 35, "duration": 121, "velocity": 127}, {"time": 60599, "pitch": 33, "duration": 120, "velocity": 127}, {"time": 60719, "pitch": 31, "duration": 121, "velocity": 127}, {"time": 60840, "pitch": 28, "duration": 120, "velocity": 127}, {"time": 60960, "pitch": 38, "duration": 120, "velocity": 127}, {"time": 61080, "pitch": 40, "duration": 241, "velocity": 127}, {"time": 61321, "pitch": 38, "duration": 121, "velocity": 127}, {"time": 61442, "pitch": 35, "duration": 120, "velocity": 127}, {"time": 61562, "pitch": 33, "duration": 120, "velocity": 127}, {"time": 61682, "pitch": 31, "duration": 121, "velocity": 127}, {"time": 61803, "pitch": 28, "duration": 120, "velocity": 127}, {"time": 61923, "pitch": 38, "duration": 121, "velocity": 127}, {"time": 62044, "pitch": 40, "duration": 240, "velocity": 127}, {"time": 62284, "pitch": 38, "duration": 121, "velocity": 127}, {"time": 62405, "pitch": 40, "duration": 235, "velocity": 127}, {"time": 62640, "pitch": 38, "duration": 118, "velocity": 127}, {"time": 62758, "pitch": 40, "duration": 238, "velocity": 127}, {"time": 62996, "pitch": 38, "duration": 121, "velocity": 127}, {"time": 63117, "pitch": 40, "duration": 241, "velocity": 127}, {"time": 63358, "pitch": 38, "duration": 120, "velocity": 127}, {"time": 63478, "pitch": 40, "duration": 120, "velocity": 127}, {"time": 63598, "pitch": 38, "duration": 121, "velocity": 127}, {"time": 63719, "pitch": 40, "duration": 120, "velocity": 127}, {"time": 63839, "pitch": 36, "duration": 60, "velocity": 127}, {"time": 63960, "pitch": 36, "duration": 60, "velocity": 127}, {"time": 64080, "pitch": 36, "duration": 241, "velocity": 127}, {"time": 64321, "pitch": 35, "duration": 60, "velocity": 127}, {"time": 64441, "pitch": 36, "duration": 60, "velocity": 127}, {"time": 64562, "pitch": 36, "duration": 240, "velocity": 127}, {"time": 64802, "pitch": 36, "duration": 61, "velocity": 127}, {"time": 64923, "pitch": 36, "duration": 60, "velocity": 127}, {"time": 65043, "pitch": 36, "duration": 241, "velocity": 127}, {"time": 65284, "pitch": 35, "duration": 59, "velocity": 127}, {"time": 65402, "pitch": 36, "duration": 59, "velocity": 127}, {"time": 65520, "pitch": 36, "duration": 235, "velocity": 127}, {"time": 65755, "pitch": 31, "duration": 60, "velocity": 127}, {"time": 65876, "pitch": 31, "duration": 60, "velocity": 127}, {"time": 65996, "pitch": 31, "duration": 241, "velocity": 127}, {"time": 66237, "pitch": 30, "duration": 60, "velocity": 127}, {"time": 66357, "pitch": 31, "duration": 60, "velocity": 127}, {"time": 66478, "pitch": 31, "duration": 240, "velocity": 127}, {"time": 66718, "pitch": 31, "duration": 61, "velocity": 127}, {"time": 66839, "pitch": 31, "duration": 60, "velocity": 127}, {"time": 66959, "pitch": 31, "duration": 241, "velocity": 127}, {"time": 67200, "pitch": 30, "duration": 60, "velocity": 127}, {"time": 67320, "pitch": 31, "duration": 61, "velocity": 127}, {"time": 67441, "pitch": 31, "duration": 241, "velocity": 127}, {"time": 67682, "pitch": 38, "duration": 60, "velocity": 127}, {"time": 67802, "pitch": 38, "duration": 60, "velocity": 127}, {"time": 67922, "pitch": 38, "duration": 241, "velocity": 127}, {"time": 68163, "pitch": 37, "duration": 60, "velocity": 127}, {"time": 68284, "pitch": 38, "duration": 60, "velocity": 127}, {"time": 68404, "pitch": 38, "duration": 241, "velocity": 127}, {"time": 68645, "pitch": 38, "duration": 59, "velocity": 127}, {"time": 68762, "pitch": 38, "duration": 59, "velocity": 127}, {"time": 68880, "pitch": 38, "duration": 236, "velocity": 127}, {"time": 69116, "pitch": 37, "duration": 60, "velocity": 127}, {"time": 69236, "pitch": 38, "duration": 61, "velocity": 127}, {"time": 69357, "pitch": 38, "duration": 241, "velocity": 127}, {"time": 69598, "pitch": 40, "duration": 60, "velocity": 127}, {"time": 69718, "pitch": 40, "duration": 60, "velocity": 127}, {"time": 69838, "pitch": 40, "duration": 241, "velocity": 127}, {"time": 70079, "pitch": 39, "duration": 60, "velocity": 127}, {"time": 70200, "pitch": 40, "duration": 60, "velocity": 127}, {"time": 70320, "pitch": 40, "duration": 241, "velocity": 127}, {"time": 70561, "pitch": 40, "duration": 60, "velocity": 127}, {"time": 70681, "pitch": 40, "duration": 60, "velocity": 127}, {"time": 70802, "pitch": 40, "duration": 240, "velocity": 127}, {"time": 71042, "pitch": 39, "duration": 61, "velocity": 127}, {"time": 71163, "pitch": 40, "duration": 60, "velocity": 127}, {"time": 71283, "pitch": 40, "duration": 241, "velocity": 127}, {"time": 71524, "pitch": 36, "duration": 59, "velocity": 127}, {"time": 71642, "pitch": 36, "duration": 59, "velocity": 127}, {"time": 71760, "pitch": 36, "duration": 235, "velocity": 127}, {"time": 71995, "pitch": 35, "duration": 60, "velocity": 127}, {"time": 72116, "pitch": 36, "duration": 60, "velocity": 127}, {"time": 72236, "pitch": 36, "duration": 241, "velocity": 127}, {"time": 72477, "pitch": 36, "duration": 60, "velocity": 127}, {"time": 72597, "pitch": 36, "duration": 60, "velocity": 127}, {"time": 72718, "pitch": 36, "duration": 240, "velocity": 127}, {"time": 72958, "pitch": 35, "duration": 61, "velocity": 127}, {"time": 73079, "pitch": 36, "duration": 60, "velocity": 127}, {"time": 73199, "pitch": 36, "duration": 241, "velocity": 127}, {"time": 73440, "pitch": 43, "duration": 60, "velocity": 127}, {"time": 73560, "pitch": 43, "duration": 61, "velocity": 127}, {"time": 73681, "pitch": 43, "duration": 241, "velocity": 127}, {"time": 73922, "pitch": 42, "duration": 60, "velocity": 127}, {"time": 74042, "pitch": 43, "duration": 60, "velocity": 127}, {"time": 74162, "pitch": 43, "duration": 241, "velocity": 127}, {"time": 74403, "pitch": 43, "duration": 60, "velocity": 127}, {"time": 74524, "pitch": 43, "duration": 60, "velocity": 127}, {"time": 74644, "pitch": 43, "duration": 241, "velocity": 127}, {"time": 74885, "pitch": 42, "duration": 59, "velocity": 127}, {"time": 75002, "pitch": 43, "duration": 59, "velocity": 127}, {"time": 75120, "pitch": 43, "duration": 118, "velocity": 127}, {"time": 75238, "pitch": 44, "duration": 118, "velocity": 127}, {"time": 75356, "pitch": 45, "duration": 60, "velocity": 127}, {"time": 75476, "pitch": 45, "duration": 61, "velocity": 127}, {"time": 75597, "pitch": 45, "duration": 241, "velocity": 127}, {"time": 75838, "pitch": 44, "duration": 60, "velocity": 127}, {"time": 75958, "pitch": 45, "duration": 60, "velocity": 127}, {"time": 76078, "pitch": 45, "duration": 241, "velocity": 127}, {"time": 76319, "pitch": 45, "duration": 60, "velocity": 127}, {"time": 76440, "pitch": 45, "duration": 60, "velocity": 127}, {"time": 76560, "pitch": 45, "duration": 241, "velocity": 127}, {"time": 76801, "pitch": 44, "duration": 60, "velocity": 127}, {"time": 76921, "pitch": 45, "duration": 60, "velocity": 127}, {"time": 77042, "pitch": 45, "duration": 240, "velocity": 127}, {"time": 77282, "pitch": 47, "duration": 61, "velocity": 127}, {"time": 77403, "pitch": 47, "duration": 60, "velocity": 127}, {"time": 77523, "pitch": 47, "duration": 241, "velocity": 127}, {"time": 77764, "pitch": 46, "duration": 59, "velocity": 127}, {"time": 77882, "pitch": 47, "duration": 59, "velocity": 127}, {"time": 78000, "pitch": 47, "duration": 235, "velocity": 127}, {"time": 78235, "pitch": 45, "duration": 121, "velocity": 127}, {"time": 78356, "pitch": 47, "duration": 240, "velocity": 127}, {"time": 78596, "pitch": 45, "duration": 121, "velocity": 127}, {"time": 78717, "pitch": 47, "duration": 120, "velocity": 127}, {"time": 78837, "pitch": 43, "duration": 121, "velocity": 127}, {"time": 78958, "pitch": 45, "duration": 120, "velocity": 127}, {"time": 79078, "pitch": 46, "duration": 120, "velocity": 127}, {"time": 79198, "pitch": 47, "duration": 121, "velocity": 127}, {"time": 81125, "pitch": 40, "duration": 59, "velocity": 127}, {"time": 81242, "pitch": 40, "duration": 59, "velocity": 127}, {"time": 81360, "pitch": 40, "duration": 236, "velocity": 127}, {"time": 81596, "pitch": 40, "duration": 60, "velocity": 127}, {"time": 81716, "pitch": 40, "duration": 61, "velocity": 127}, {"time": 81837, "pitch": 40, "duration": 241, "velocity": 127}, {"time": 82078, "pitch": 40, "duration": 60, "velocity": 127}, {"time": 82198, "pitch": 40, "duration": 60, "velocity": 127}, {"time": 82318, "pitch": 40, "duration": 241, "velocity": 127}, {"time": 82559, "pitch": 40, "duration": 60, "velocity": 127}, {"time": 82680, "pitch": 40, "duration": 60, "velocity": 127}, {"time": 82800, "pitch": 40, "duration": 241, "velocity": 127}, {"time": 83041, "pitch": 38, "duration": 60, "velocity": 127}, {"time": 83161, "pitch": 38, "duration": 60, "velocity": 127}, {"time": 83282, "pitch": 38, "duration": 240, "velocity": 127}, {"time": 83522, "pitch": 38, "duration": 61, "velocity": 127}, {"time": 83643, "pitch": 38, "duration": 60, "velocity": 127}, {"time": 83763, "pitch": 38, "duration": 241, "velocity": 127}, {"time": 84004, "pitch": 38, "duration": 59, "velocity": 127}, {"time": 84122, "pitch": 38, "duration": 59, "velocity": 127}, {"time": 84240, "pitch": 38, "duration": 235, "velocity": 127}, {"time": 84475, "pitch": 38, "duration": 60, "velocity": 127}, {"time": 84595, "pitch": 38, "duration": 61, "velocity": 127}, {"time": 84716, "pitch": 38, "duration": 241, "velocity": 127}, {"time": 84957, "pitch": 36, "duration": 60, "velocity": 127}, {"time": 85077, "pitch": 36, "duration": 60, "velocity": 127}, {"time": 85198, "pitch": 36, "duration": 240, "velocity": 127}, {"time": 85438, "pitch": 36, "duration": 61, "velocity": 127}, {"time": 85559, "pitch": 36, "duration": 60, "velocity": 127}, {"time": 85679, "pitch": 36, "duration": 241, "velocity": 127}, {"time": 85920, "pitch": 36, "duration": 60, "velocity": 127}, {"time": 86040, "pitch": 36, "duration": 61, "velocity": 127}, {"time": 86161, "pitch": 36, "duration": 241, "velocity": 127}, {"time": 86402, "pitch": 36, "duration": 60, "velocity": 127}, {"time": 86522, "pitch": 36, "duration": 60, "velocity": 127}, {"time": 86642, "pitch": 36, "duration": 241, "velocity": 127}, {"time": 86883, "pitch": 31, "duration": 60, "velocity": 127}, {"time": 87004, "pitch": 31, "duration": 60, "velocity": 127}, {"time": 87124, "pitch": 31, "duration": 241, "velocity": 127}, {"time": 87365, "pitch": 31, "duration": 59, "velocity": 127}, {"time": 87482, "pitch": 31, "duration": 59, "velocity": 127}, {"time": 87600, "pitch": 31, "duration": 236, "velocity": 127}, {"time": 87836, "pitch": 31, "duration": 60, "velocity": 127}, {"time": 87956, "pitch": 31, "duration": 60, "velocity": 127}, {"time": 88077, "pitch": 31, "duration": 241, "velocity": 127}, {"time": 88318, "pitch": 31, "duration": 60, "velocity": 127}, {"time": 88438, "pitch": 31, "duration": 60, "velocity": 127}, {"time": 88558, "pitch": 31, "duration": 241, "velocity": 127}, {"time": 88799, "pitch": 33, "duration": 60, "velocity": 127}, {"time": 88920, "pitch": 33, "duration": 60, "velocity": 127}, {"time": 89040, "pitch": 33, "duration": 241, "velocity": 127}, {"time": 89281, "pitch": 33, "duration": 60, "velocity": 127}, {"time": 89401, "pitch": 33, "duration": 60, "velocity": 127}, {"time": 89522, "pitch": 33, "duration": 240, "velocity": 127}, {"time": 89762, "pitch": 33, "duration": 61, "velocity": 127}, {"time": 89883, "pitch": 33, "duration": 60, "velocity": 127}, {"time": 90003, "pitch": 33, "duration": 241, "velocity": 127}, {"time": 90244, "pitch": 33, "duration": 59, "velocity": 127}, {"time": 90362, "pitch": 33, "duration": 59, "velocity": 127}, {"time": 90480, "pitch": 33, "duration": 235, "velocity": 127}, {"time": 90715, "pitch": 43, "duration": 60, "velocity": 127}, {"time": 90835, "pitch": 43, "duration": 61, "velocity": 127}, {"time": 90956, "pitch": 43, "duration": 241, "velocity": 127}, {"time": 91197, "pitch": 43, "duration": 60, "velocity": 127}, {"time": 91317, "pitch": 43, "duration": 60, "velocity": 127}, {"time": 91437, "pitch": 43, "duration": 241, "velocity": 127}, {"time": 91678, "pitch": 43, "duration": 61, "velocity": 127}, {"time": 91799, "pitch": 43, "duration": 60, "velocity": 127}, {"time": 91919, "pitch": 43, "duration": 241, "velocity": 127}, {"time": 92160, "pitch": 43, "duration": 60, "velocity": 127}, {"time": 92280, "pitch": 43, "duration": 61, "velocity": 127}, {"time": 92401, "pitch": 43, "duration": 120, "velocity": 127}, {"time": 92521, "pitch": 44, "duration": 121, "velocity": 127}, {"time": 92642, "pitch": 45, "duration": 60, "velocity": 127}, {"time": 92762, "pitch": 45, "duration": 60, "velocity": 127}, {"time": 92882, "pitch": 45, "duration": 241, "velocity": 127}, {"time": 93123, "pitch": 45, "duration": 60, "velocity": 127}, {"time": 93244, "pitch": 45, "duration": 60, "velocity": 127}, {"time": 93364, "pitch": 45, "duration": 241, "velocity": 127}, {"time": 93605, "pitch": 45, "duration": 59, "velocity": 127}, {"time": 93722, "pitch": 45, "duration": 59, "velocity": 127}, {"time": 93840, "pitch": 45, "duration": 236, "velocity": 127}, {"time": 94076, "pitch": 45, "duration": 60, "velocity": 127}, {"time": 94196, "pitch": 45, "duration": 60, "velocity": 127}, {"time": 94317, "pitch": 45, "duration": 120, "velocity": 127}, {"time": 94437, "pitch": 46, "duration": 120, "velocity": 127}, {"time": 94557, "pitch": 45, "duration": 121, "velocity": 127}, {"time": 94678, "pitch": 47, "duration": 241, "velocity": 127}, {"time": 94919, "pitch": 45, "duration": 120, "velocity": 127}, {"time": 95039, "pitch": 47, "duration": 241, "velocity": 127}, {"time": 95280, "pitch": 45, "duration": 120, "velocity": 127}, {"time": 95400, "pitch": 47, "duration": 241, "velocity": 127}, {"time": 95641, "pitch": 45, "duration": 121, "velocity": 127}, {"time": 95762, "pitch": 47, "duration": 240, "velocity": 127}, {"time": 96002, "pitch": 35, "duration": 121, "velocity": 127}, {"time": 96123, "pitch": 47, "duration": 120, "velocity": 127}, {"time": 96243, "pitch": 35, "duration": 121, "velocity": 127}, {"time": 96364, "pitch": 47, "duration": 120, "velocity": 127}, {"time": 96484, "pitch": 40, "duration": 59, "velocity": 127}, {"time": 96602, "pitch": 40, "duration": 59, "velocity": 127}, {"time": 96720, "pitch": 40, "duration": 235, "velocity": 127}, {"time": 96955, "pitch": 40, "duration": 60, "velocity": 127}, {"time": 97075, "pitch": 40, "duration": 61, "velocity": 127}, {"time": 97196, "pitch": 40, "duration": 241, "velocity": 127}, {"time": 97437, "pitch": 40, "duration": 60, "velocity": 127}, {"time": 97557, "pitch": 40, "duration": 60, "velocity": 127}, {"time": 97677, "pitch": 40, "duration": 241, "velocity": 127}, {"time": 97918, "pitch": 40, "duration": 60, "velocity": 127}, {"time": 98039, "pitch": 40, "duration": 60, "velocity": 127}, {"time": 98159, "pitch": 40, "duration": 241, "velocity": 127}, {"time": 98400, "pitch": 38, "duration": 60, "velocity": 127}, {"time": 98520, "pitch": 38, "duration": 61, "velocity": 127}, {"time": 98641, "pitch": 38, "duration": 241, "velocity": 127}, {"time": 98882, "pitch": 38, "duration": 60, "velocity": 127}, {"time": 99002, "pitch": 38, "duration": 60, "velocity": 127}, {"time": 99122, "pitch": 38, "duration": 241, "velocity": 127}, {"time": 99363, "pitch": 38, "duration": 60, "velocity": 127}, {"time": 99484, "pitch": 38, "duration": 60, "velocity": 127}, {"time": 99604, "pitch": 38, "duration": 241, "velocity": 127}, {"time": 99845, "pitch": 38, "duration": 59, "velocity": 127}, {"time": 99962, "pitch": 38, "duration": 59, "velocity": 127}, {"time": 100080, "pitch": 38, "duration": 236, "velocity": 127}, {"time": 100316, "pitch": 36, "duration": 60, "velocity": 127}, {"time": 100436, "pitch": 36, "duration": 60, "velocity": 127}, {"time": 100557, "pitch": 36, "duration": 240, "velocity": 127}, {"time": 100797, "pitch": 36, "duration": 61, "velocity": 127}, {"time": 100918, "pitch": 36, "duration": 60, "velocity": 127}, {"time": 101038, "pitch": 36, "duration": 241, "velocity": 127}, {"time": 101279, "pitch": 36, "duration": 60, "velocity": 127}, {"time": 101399, "pitch": 36, "duration": 61, "velocity": 127}, {"time": 101520, "pitch": 36, "duration": 241, "velocity": 127}, {"time": 101761, "pitch": 36, "duration": 60, "velocity": 127}, {"time": 101881, "pitch": 36, "duration": 60, "velocity": 127}, {"time": 102002, "pitch": 36, "duration": 240, "velocity": 127}, {"time": 102242, "pitch": 31, "duration": 61, "velocity": 127}, {"time": 102363, "pitch": 31, "duration": 60, "velocity": 127}, {"time": 102483, "pitch": 31, "duration": 241, "velocity": 127}, {"time": 102724, "pitch": 31, "duration": 59, "velocity": 127}, {"time": 102842, "pitch": 31, "duration": 59, "velocity": 127}, {"time": 102960, "pitch": 31, "duration": 235, "velocity": 127}, {"time": 103195, "pitch": 31, "duration": 60, "velocity": 127}, {"time": 103315, "pitch": 31, "duration": 61, "velocity": 127}, {"time": 103436, "pitch": 31, "duration": 241, "velocity": 127}, {"time": 103677, "pitch": 31, "duration": 60, "velocity": 127}, {"time": 103797, "pitch": 31, "duration": 60, "velocity": 127}, {"time": 103917, "pitch": 31, "duration": 241, "velocity": 127}, {"time": 104158, "pitch": 33, "duration": 60, "velocity": 127}, {"time": 104279, "pitch": 33, "duration": 60, "velocity": 127}, {"time": 104399, "pitch": 33, "duration": 241, "velocity": 127}, {"time": 104640, "pitch": 33, "duration": 60, "velocity": 127}, {"time": 104760, "pitch": 33, "duration": 60, "velocity": 127}, {"time": 104881, "pitch": 33, "duration": 240, "velocity": 127}, {"time": 105121, "pitch": 33, "duration": 61, "velocity": 127}, {"time": 105242, "pitch": 33, "duration": 60, "velocity": 127}, {"time": 105362, "pitch": 33, "duration": 241, "velocity": 127}, {"time": 105603, "pitch": 33, "duration": 60, "velocity": 127}, {"time": 105724, "pitch": 33, "duration": 60, "velocity": 127}, {"time": 105844, "pitch": 33, "duration": 241, "velocity": 127}, {"time": 106085, "pitch": 31, "duration": 59, "velocity": 127}, {"time": 106202, "pitch": 31, "duration": 59, "velocity": 127}, {"time": 106320, "pitch": 31, "duration": 236, "velocity": 127}, {"time": 106556, "pitch": 31, "duration": 60, "velocity": 127}, {"time": 106676, "pitch": 31, "duration": 60, "velocity": 127}, {"time": 106797, "pitch": 31, "duration": 240, "velocity": 127}, {"time": 107037, "pitch": 31, "duration": 61, "velocity": 127}, {"time": 107158, "pitch": 31, "duration": 60, "velocity": 127}, {"time": 107278, "pitch": 31, "duration": 241, "velocity": 127}, {"time": 107519, "pitch": 31, "duration": 60, "velocity": 127}, {"time": 107639, "pitch": 31, "duration": 61, "velocity": 127}, {"time": 107760, "pitch": 31, "duration": 120, "velocity": 127}, {"time": 107880, "pitch": 32, "duration": 121, "velocity": 127}, {"time": 108001, "pitch": 33, "duration": 60, "velocity": 127}, {"time": 108121, "pitch": 33, "duration": 60, "velocity": 127}, {"time": 108241, "pitch": 33, "duration": 241, "velocity": 127}, {"time": 108482, "pitch": 33, "duration": 60, "velocity": 127}, {"time": 108603, "pitch": 33, "duration": 60, "velocity": 127}, {"time": 108723, "pitch": 33, "duration": 241, "velocity": 127}, {"time": 108964, "pitch": 33, "duration": 59, "velocity": 127}, {"time": 109082, "pitch": 33, "duration": 59, "velocity": 127}, {"time": 109199, "pitch": 33, "duration": 236, "velocity": 127}, {"time": 109435, "pitch": 33, "duration": 60, "velocity": 127}, {"time": 109555, "pitch": 33, "duration": 61, "velocity": 127}, {"time": 109676, "pitch": 33, "duration": 120, "velocity": 127}, {"time": 109796, "pitch": 33, "duration": 121, "velocity": 127}, {"time": 109917, "pitch": 38, "duration": 60, "velocity": 127}, {"time": 110037, "pitch": 38, "duration": 60, "velocity": 127}, {"time": 110157, "pitch": 38, "duration": 241, "velocity": 127}, {"time": 110398, "pitch": 38, "duration": 60, "velocity": 127}, {"time": 110519, "pitch": 38, "duration": 60, "velocity": 127}, {"time": 110639, "pitch": 38, "duration": 241, "velocity": 127}, {"time": 110880, "pitch": 38, "duration": 60, "velocity": 127}, {"time": 111000, "pitch": 38, "duration": 60, "velocity": 127}, {"time": 111121, "pitch": 38, "duration": 240, "velocity": 127}, {"time": 111361, "pitch": 38, "duration": 61, "velocity": 127}, {"time": 111482, "pitch": 38, "duration": 60, "velocity": 127}, {"time": 111602, "pitch": 38, "duration": 241, "velocity": 127}, {"time": 111843, "pitch": 36, "duration": 60, "velocity": 127}, {"time": 111963, "pitch": 36, "duration": 61, "velocity": 127}, {"time": 112084, "pitch": 36, "duration": 241, "velocity": 127}, {"time": 112325, "pitch": 36, "duration": 59, "velocity": 127}, {"time": 112442, "pitch": 36, "duration": 59, "velocity": 127}, {"time": 112560, "pitch": 36, "duration": 236, "velocity": 127}, {"time": 112796, "pitch": 36, "duration": 60, "velocity": 127}, {"time": 112916, "pitch": 36, "duration": 60, "velocity": 127}, {"time": 113037, "pitch": 36, "duration": 240, "velocity": 127}, {"time": 113277, "pitch": 36, "duration": 61, "velocity": 127}, {"time": 113398, "pitch": 36, "duration": 60, "velocity": 127}, {"time": 113518, "pitch": 36, "duration": 241, "velocity": 127}, {"time": 113759, "pitch": 36, "duration": 60, "velocity": 127}, {"time": 113879, "pitch": 36, "duration": 61, "velocity": 127}, {"time": 114000, "pitch": 36, "duration": 241, "velocity": 127}, {"time": 114241, "pitch": 36, "duration": 60, "velocity": 127}, {"time": 114361, "pitch": 36, "duration": 60, "velocity": 127}, {"time": 114481, "pitch": 36, "duration": 241, "velocity": 127}, {"time": 114722, "pitch": 36, "duration": 60, "velocity": 127}, {"time": 114843, "pitch": 36, "duration": 60, "velocity": 127}, {"time": 114963, "pitch": 36, "duration": 241, "velocity": 127}, {"time": 115204, "pitch": 36, "duration": 59, "velocity": 127}, {"time": 115322, "pitch": 36, "duration": 59, "velocity": 127}, {"time": 115439, "pitch": 36, "duration": 236, "velocity": 127}, {"time": 115675, "pitch": 40, "duration": 120, "velocity": 127}, {"time": 115795, "pitch": 40, "duration": 121, "velocity": 127}, {"time": 115916, "pitch": 40, "duration": 241, "velocity": 127}, {"time": 116157, "pitch": 38, "duration": 120, "velocity": 127}, {"time": 116277, "pitch": 40, "duration": 241, "velocity": 127}, {"time": 116518, "pitch": 38, "duration": 120, "velocity": 127}, {"time": 116638, "pitch": 40, "duration": 241, "velocity": 127}, {"time": 116879, "pitch": 40, "duration": 120, "velocity": 127}, {"time": 116999, "pitch": 40, "duration": 241, "velocity": 127}, {"time": 117240, "pitch": 40, "duration": 121, "velocity": 127}, {"time": 117361, "pitch": 40, "duration": 240, "velocity": 127}, {"time": 117601, "pitch": 38, "duration": 121, "velocity": 127}, {"time": 117722, "pitch": 38, "duration": 120, "velocity": 127}, {"time": 117842, "pitch": 38, "duration": 241, "velocity": 127}, {"time": 118083, "pitch": 36, "duration": 120, "velocity": 127}, {"time": 118203, "pitch": 38, "duration": 241, "velocity": 127}, {"time": 118444, "pitch": 36, "duration": 121, "velocity": 127}, {"time": 118565, "pitch": 38, "duration": 235, "velocity": 127}, {"time": 118800, "pitch": 38, "duration": 118, "velocity": 127}, {"time": 118918, "pitch": 38, "duration": 238, "velocity": 127}, {"time": 119156, "pitch": 38, "duration": 121, "velocity": 127}, {"time": 119277, "pitch": 38, "duration": 240, "velocity": 127}, {"time": 119517, "pitch": 36, "duration": 121, "velocity": 127}, {"time": 119638, "pitch": 36, "duration": 120, "velocity": 127}, {"time": 119758, "pitch": 36, "duration": 241, "velocity": 127}, {"time": 119999, "pitch": 35, "duration": 120, "velocity": 127}, {"time": 120119, "pitch": 36, "duration": 241, "velocity": 127}, {"time": 120360, "pitch": 35, "duration": 121, "velocity": 127}, {"time": 120481, "pitch": 36, "duration": 240, "velocity": 127}, {"time": 120721, "pitch": 36, "duration": 121, "velocity": 127}, {"time": 120842, "pitch": 36, "duration": 241, "velocity": 127}, {"time": 121083, "pitch": 36, "duration": 120, "velocity": 127}, {"time": 121203, "pitch": 36, "duration": 241, "velocity": 127}, {"time": 121444, "pitch": 36, "duration": 118, "velocity": 127}, {"time": 121562, "pitch": 36, "duration": 117, "velocity": 127}, {"time": 121679, "pitch": 36, "duration": 236, "velocity": 127}, {"time": 121915, "pitch": 35, "duration": 120, "velocity": 127}, {"time": 122035, "pitch": 36, "duration": 241, "velocity": 127}, {"time": 122276, "pitch": 35, "duration": 121, "velocity": 127}, {"time": 122397, "pitch": 36, "duration": 240, "velocity": 127}, {"time": 122637, "pitch": 36, "duration": 121, "velocity": 127}, {"time": 122758, "pitch": 36, "duration": 241, "velocity": 127}, {"time": 122999, "pitch": 36, "duration": 120, "velocity": 127}, {"time": 123119, "pitch": 36, "duration": 241, "velocity": 127}, {"time": 123360, "pitch": 40, "duration": 120, "velocity": 127}, {"time": 123480, "pitch": 40, "duration": 121, "velocity": 127}, {"time": 123601, "pitch": 40, "duration": 240, "velocity": 127}, {"time": 123841, "pitch": 38, "duration": 121, "velocity": 127}, {"time": 123962, "pitch": 40, "duration": 241, "velocity": 127}, {"time": 124203, "pitch": 38, "duration": 120, "velocity": 127}, {"time": 124323, "pitch": 40, "duration": 241, "velocity": 127}, {"time": 124564, "pitch": 40, "duration": 120, "velocity": 127}, {"time": 124684, "pitch": 40, "duration": 238, "velocity": 127}, {"time": 124922, "pitch": 40, "duration": 118, "velocity": 127}, {"time": 125040, "pitch": 40, "duration": 236, "velocity": 127}, {"time": 125276, "pitch": 38, "duration": 120, "velocity": 127}, {"time": 125396, "pitch": 38, "duration": 121, "velocity": 127}, {"time": 125517, "pitch": 38, "duration": 240, "velocity": 127}, {"time": 125757, "pitch": 36, "duration": 121, "velocity": 127}, {"time": 125878, "pitch": 38, "duration": 241, "velocity": 127}, {"time": 126119, "pitch": 36, "duration": 120, "velocity": 127}, {"time": 126239, "pitch": 38, "duration": 241, "velocity": 127}, {"time": 126480, "pitch": 38, "duration": 120, "velocity": 127}, {"time": 126600, "pitch": 38, "duration": 241, "velocity": 127}, {"time": 126841, "pitch": 38, "duration": 120, "velocity": 127}, {"time": 126961, "pitch": 38, "duration": 241, "velocity": 127}, {"time": 127202, "pitch": 36, "duration": 121, "velocity": 127}, {"time": 127323, "pitch": 36, "duration": 120, "velocity": 127}, {"time": 127443, "pitch": 36, "duration": 241, "velocity": 127}, {"time": 127684, "pitch": 35, "duration": 118, "velocity": 127}, {"time": 127802, "pitch": 36, "duration": 235, "velocity": 127}, {"time": 128037, "pitch": 35, "duration": 118, "velocity": 127}, {"time": 128155, "pitch": 36, "duration": 241, "velocity": 127}, {"time": 128396, "pitch": 36, "duration": 120, "velocity": 127}, {"time": 128516, "pitch": 36, "duration": 241, "velocity": 127}, {"time": 128757, "pitch": 36, "duration": 120, "velocity": 127}, {"time": 128877, "pitch": 36, "duration": 241, "velocity": 127}, {"time": 129118, "pitch": 36, "duration": 121, "velocity": 127}, {"time": 129239, "pitch": 36, "duration": 120, "velocity": 127}, {"time": 129359, "pitch": 36, "duration": 241, "velocity": 127}, {"time": 129600, "pitch": 35, "duration": 120, "velocity": 127}, {"time": 129720, "pitch": 36, "duration": 241, "velocity": 127}, {"time": 129961, "pitch": 35, "duration": 120, "velocity": 127}, {"time": 130081, "pitch": 36, "duration": 241, "velocity": 127}, {"time": 130322, "pitch": 36, "duration": 121, "velocity": 127}, {"time": 130443, "pitch": 36, "duration": 240, "velocity": 127}, {"time": 130683, "pitch": 36, "duration": 121, "velocity": 127}, {"time": 130804, "pitch": 36, "duration": 241, "velocity": 127}, {"time": 131045, "pitch": 38, "duration": 117, "velocity": 127}, {"time": 131162, "pitch": 40, "duration": 236, "velocity": 127}, {"time": 131398, "pitch": 38, "duration": 118, "velocity": 127}, {"time": 131516, "pitch": 35, "duration": 120, "velocity": 127}, {"time": 131636, "pitch": 33, "duration": 121, "velocity": 127}, {"time": 131757, "pitch": 31, "duration": 120, "velocity": 127}, {"time": 131877, "pitch": 28, "duration": 120, "velocity": 127}, {"time": 131997, "pitch": 38, "duration": 121, "velocity": 127}, {"time": 132118, "pitch": 40, "duration": 241, "velocity": 127}, {"time": 132359, "pitch": 38, "duration": 120, "velocity": 127}, {"time": 132479, "pitch": 35, "duration": 120, "velocity": 127}, {"time": 132599, "pitch": 33, "duration": 121, "velocity": 127}, {"time": 132720, "pitch": 31, "duration": 120, "velocity": 127}, {"time": 132840, "pitch": 28, "duration": 121, "velocity": 127}, {"time": 132961, "pitch": 38, "duration": 120, "velocity": 127}, {"time": 133081, "pitch": 40, "duration": 241, "velocity": 127}, {"time": 133322, "pitch": 38, "duration": 120, "velocity": 127}, {"time": 133442, "pitch": 35, "duration": 121, "velocity": 127}, {"time": 133563, "pitch": 33, "duration": 120, "velocity": 127}, {"time": 133683, "pitch": 31, "duration": 120, "velocity": 127}, {"time": 133803, "pitch": 28, "duration": 121, "velocity": 127}, {"time": 133924, "pitch": 38, "duration": 118, "velocity": 127}, {"time": 134042, "pitch": 40, "duration": 235, "velocity": 127}, {"time": 134277, "pitch": 38, "duration": 118, "velocity": 127}, {"time": 134395, "pitch": 35, "duration": 120, "velocity": 127}, {"time": 134515, "pitch": 33, "duration": 121, "velocity": 127}, {"time": 134636, "pitch": 31, "duration": 120, "velocity": 127}, {"time": 134756, "pitch": 28, "duration": 121, "velocity": 127}, {"time": 134877, "pitch": 38, "duration": 120, "velocity": 127}, {"time": 134997, "pitch": 40, "duration": 241, "velocity": 127}, {"time": 135238, "pitch": 38, "duration": 120, "velocity": 127}, {"time": 135358, "pitch": 35, "duration": 121, "velocity": 127}, {"time": 135479, "pitch": 33, "duration": 120, "velocity": 127}, {"time": 135599, "pitch": 31, "duration": 120, "velocity": 127}, {"time": 135719, "pitch": 28, "duration": 121, "velocity": 127}, {"time": 135840, "pitch": 38, "duration": 120, "velocity": 127}, {"time": 135960, "pitch": 40, "duration": 241, "velocity": 127}, {"time": 136201, "pitch": 38, "duration": 120, "velocity": 127}, {"time": 136321, "pitch": 35, "duration": 121, "velocity": 127}, {"time": 136442, "pitch": 33, "duration": 120, "velocity": 127}, {"time": 136562, "pitch": 31, "duration": 121, "velocity": 127}, {"time": 136683, "pitch": 28, "duration": 120, "velocity": 127}, {"time": 136803, "pitch": 38, "duration": 120, "velocity": 127}, {"time": 136923, "pitch": 40, "duration": 241, "velocity": 127}, {"time": 137164, "pitch": 38, "duration": 121, "velocity": 127}, {"time": 137285, "pitch": 35, "duration": 117, "velocity": 127}, {"time": 137402, "pitch": 33, "duration": 118, "velocity": 127}, {"time": 137520, "pitch": 31, "duration": 118, "velocity": 127}, {"time": 137638, "pitch": 28, "duration": 118, "velocity": 127}, {"time": 137756, "pitch": 38, "duration": 120, "velocity": 127}, {"time": 137876, "pitch": 40, "duration": 241, "velocity": 127}, {"time": 138117, "pitch": 38, "duration": 120, "velocity": 127}, {"time": 138237, "pitch": 35, "duration": 121, "velocity": 127}, {"time": 138358, "pitch": 33, "duration": 120, "velocity": 127}, {"time": 138478, "pitch": 31, "duration": 121, "velocity": 127}, {"time": 138599, "pitch": 28, "duration": 120, "velocity": 127}, {"time": 138719, "pitch": 38, "duration": 120, "velocity": 127}, {"time": 138839, "pitch": 40, "duration": 241, "velocity": 127}, {"time": 139080, "pitch": 38, "duration": 121, "velocity": 127}, {"time": 139201, "pitch": 35, "duration": 120, "velocity": 127}, {"time": 139321, "pitch": 33, "duration": 120, "velocity": 127}, {"time": 139441, "pitch": 31, "duration": 121, "velocity": 127}, {"time": 139562, "pitch": 28, "duration": 120, "velocity": 127}, {"time": 139682, "pitch": 38, "duration": 121, "velocity": 127}, {"time": 139803, "pitch": 40, "duration": 240, "velocity": 127}, {"time": 140043, "pitch": 38, "duration": 121, "velocity": 127}, {"time": 140164, "pitch": 35, "duration": 118, "velocity": 127}, {"time": 140282, "pitch": 33, "duration": 117, "velocity": 127}, {"time": 140399, "pitch": 31, "duration": 118, "velocity": 127}, {"time": 140517, "pitch": 28, "duration": 118, "velocity": 127}, {"time": 140635, "pitch": 38, "duration": 120, "velocity": 127}, {"time": 140755, "pitch": 40, "duration": 241, "velocity": 127}, {"time": 140996, "pitch": 38, "duration": 121, "velocity": 127}, {"time": 141117, "pitch": 35, "duration": 120, "velocity": 127}, {"time": 141237, "pitch": 33, "duration": 120, "velocity": 127}, {"time": 141357, "pitch": 31, "duration": 121, "velocity": 127}, {"time": 141478, "pitch": 28, "duration": 120, "velocity": 127}, {"time": 141598, "pitch": 38, "duration": 121, "velocity": 127}, {"time": 141719, "pitch": 40, "duration": 240, "velocity": 127}, {"time": 141959, "pitch": 38, "duration": 121, "velocity": 127}, {"time": 142080, "pitch": 35, "duration": 120, "velocity": 127}, {"time": 142200, "pitch": 33, "duration": 121, "velocity": 127}, {"time": 142321, "pitch": 31, "duration": 120, "velocity": 127}, {"time": 142441, "pitch": 28, "duration": 120, "velocity": 127}, {"time": 142561, "pitch": 38, "duration": 121, "velocity": 127}, {"time": 142682, "pitch": 40, "duration": 241, "velocity": 127}, {"time": 142923, "pitch": 38, "duration": 120, "velocity": 127}, {"time": 143043, "pitch": 35, "duration": 120, "velocity": 127}, {"time": 143163, "pitch": 33, "duration": 121, "velocity": 127}, {"time": 143284, "pitch": 31, "duration": 120, "velocity": 127}, {"time": 143404, "pitch": 28, "duration": 121, "velocity": 127}, {"time": 143525, "pitch": 38, "duration": 117, "velocity": 127}, {"time": 143642, "pitch": 40, "duration": 236, "velocity": 127}, {"time": 143878, "pitch": 38, "duration": 118, "velocity": 127}, {"time": 143996, "pitch": 35, "duration": 120, "velocity": 127}, {"time": 144116, "pitch": 33, "duration": 121, "velocity": 127}, {"time": 144237, "pitch": 31, "duration": 120, "velocity": 127}, {"time": 144357, "pitch": 28, "duration": 120, "velocity": 127}, {"time": 144477, "pitch": 38, "duration": 121, "velocity": 127}, {"time": 144598, "pitch": 40, "duration": 241, "velocity": 127}, {"time": 144839, "pitch": 38, "duration": 120, "velocity": 127}, {"time": 144959, "pitch": 40, "duration": 241, "velocity": 127}, {"time": 145200, "pitch": 38, "duration": 120, "velocity": 127}, {"time": 145320, "pitch": 40, "duration": 241, "velocity": 127}, {"time": 145561, "pitch": 38, "duration": 120, "velocity": 127}, {"time": 145681, "pitch": 40, "duration": 241, "velocity": 127}, {"time": 145922, "pitch": 38, "duration": 121, "velocity": 127}, {"time": 146043, "pitch": 40, "duration": 120, "velocity": 127}, {"time": 146163, "pitch": 38, "duration": 120, "velocity": 127}, {"time": 146283, "pitch": 40, "duration": 121, "velocity": 127}, {"time": 146404, "pitch": 36, "duration": 59, "velocity": 127}, {"time": 146522, "pitch": 36, "duration": 59, "velocity": 127}, {"time": 146639, "pitch": 36, "duration": 236, "velocity": 127}, {"time": 146875, "pitch": 35, "duration": 60, "velocity": 127}, {"time": 146995, "pitch": 36, "duration": 61, "velocity": 127}, {"time": 147116, "pitch": 36, "duration": 241, "velocity": 127}, {"time": 147357, "pitch": 36, "duration": 60, "velocity": 127}, {"time": 147477, "pitch": 36, "duration": 60, "velocity": 127}, {"time": 147597, "pitch": 36, "duration": 241, "velocity": 127}, {"time": 147838, "pitch": 35, "duration": 60, "velocity": 127}, {"time": 147959, "pitch": 36, "duration": 60, "velocity": 127}, {"time": 148079, "pitch": 36, "duration": 241, "velocity": 127}, {"time": 148320, "pitch": 31, "duration": 60, "velocity": 127}, {"time": 148440, "pitch": 31, "duration": 60, "velocity": 127}, {"time": 148561, "pitch": 31, "duration": 240, "velocity": 127}, {"time": 148801, "pitch": 30, "duration": 61, "velocity": 127}, {"time": 148922, "pitch": 31, "duration": 60, "velocity": 127}, {"time": 149042, "pitch": 31, "duration": 241, "velocity": 127}, {"time": 149283, "pitch": 31, "duration": 60, "velocity": 127}, {"time": 149403, "pitch": 31, "duration": 61, "velocity": 127}, {"time": 149524, "pitch": 31, "duration": 241, "velocity": 127}, {"time": 149765, "pitch": 30, "duration": 58, "velocity": 127}, {"time": 149882, "pitch": 31, "duration": 59, "velocity": 127}, {"time": 150000, "pitch": 31, "duration": 236, "velocity": 127}, {"time": 150236, "pitch": 38, "duration": 60, "velocity": 127}, {"time": 150356, "pitch": 38, "duration": 60, "velocity": 127}, {"time": 150477, "pitch": 38, "duration": 240, "velocity": 127}, {"time": 150717, "pitch": 37, "duration": 61, "velocity": 127}, {"time": 150838, "pitch": 38, "duration": 60, "velocity": 127}, {"time": 150958, "pitch": 38, "duration": 241, "velocity": 127}, {"time": 151199, "pitch": 38, "duration": 60, "velocity": 127}, {"time": 151319, "pitch": 38, "duration": 61, "velocity": 127}, {"time": 151440, "pitch": 38, "duration": 241, "velocity": 127}, {"time": 151681, "pitch": 37, "duration": 60, "velocity": 127}, {"time": 151801, "pitch": 38, "duration": 60, "velocity": 127}, {"time": 151921, "pitch": 38, "duration": 241, "velocity": 127}, {"time": 152162, "pitch": 40, "duration": 60, "velocity": 127}, {"time": 152283, "pitch": 40, "duration": 60, "velocity": 127}, {"time": 152403, "pitch": 40, "duration": 241, "velocity": 127}, {"time": 152644, "pitch": 39, "duration": 59, "velocity": 127}, {"time": 152762, "pitch": 40, "duration": 59, "velocity": 127}, {"time": 152879, "pitch": 40, "duration": 236, "velocity": 127}, {"time": 153115, "pitch": 40, "duration": 60, "velocity": 127}, {"time": 153235, "pitch": 40, "duration": 61, "velocity": 127}, {"time": 153356, "pitch": 40, "duration": 241, "velocity": 127}, {"time": 153597, "pitch": 39, "duration": 60, "velocity": 127}, {"time": 153717, "pitch": 40, "duration": 60, "velocity": 127}, {"time": 153837, "pitch": 40, "duration": 241, "velocity": 127}, {"time": 154078, "pitch": 36, "duration": 60, "velocity": 127}, {"time": 154199, "pitch": 36, "duration": 60, "velocity": 127}, {"time": 154319, "pitch": 36, "duration": 241, "velocity": 127}, {"time": 154560, "pitch": 35, "duration": 60, "velocity": 127}, {"time": 154680, "pitch": 36, "duration": 60, "velocity": 127}, {"time": 154801, "pitch": 36, "duration": 240, "velocity": 127}, {"time": 155041, "pitch": 36, "duration": 61, "velocity": 127}, {"time": 155162, "pitch": 36, "duration": 60, "velocity": 127}, {"time": 155282, "pitch": 36, "duration": 241, "velocity": 127}, {"time": 155523, "pitch": 35, "duration": 60, "velocity": 127}, {"time": 155643, "pitch": 36, "duration": 61, "velocity": 127}, {"time": 155764, "pitch": 36, "duration": 241, "velocity": 127}, {"time": 156005, "pitch": 43, "duration": 58, "velocity": 127}, {"time": 156122, "pitch": 43, "duration": 59, "velocity": 127}, {"time": 156240, "pitch": 43, "duration": 236, "velocity": 127}, {"time": 156476, "pitch": 42, "duration": 60, "velocity": 127}, {"time": 156596, "pitch": 43, "duration": 60, "velocity": 127}, {"time": 156717, "pitch": 43, "duration": 240, "velocity": 127}, {"time": 156957, "pitch": 43, "duration": 61, "velocity": 127}, {"time": 157078, "pitch": 43, "duration": 60, "velocity": 127}, {"time": 157198, "pitch": 43, "duration": 241, "velocity": 127}, {"time": 157439, "pitch": 42, "duration": 60, "velocity": 127}, {"time": 157559, "pitch": 43, "duration": 61, "velocity": 127}, {"time": 157680, "pitch": 43, "duration": 120, "velocity": 127}, {"time": 157800, "pitch": 44, "duration": 121, "velocity": 127}, {"time": 157921, "pitch": 45, "duration": 60, "velocity": 127}, {"time": 158041, "pitch": 45, "duration": 60, "velocity": 127}, {"time": 158161, "pitch": 45, "duration": 241, "velocity": 127}, {"time": 158402, "pitch": 44, "duration": 60, "velocity": 127}, {"time": 158523, "pitch": 45, "duration": 60, "velocity": 127}, {"time": 158643, "pitch": 45, "duration": 241, "velocity": 127}, {"time": 158884, "pitch": 45, "duration": 59, "velocity": 127}, {"time": 159002, "pitch": 45, "duration": 59, "velocity": 127}, {"time": 159119, "pitch": 45, "duration": 236, "velocity": 127}, {"time": 159355, "pitch": 44, "duration": 60, "velocity": 127}, {"time": 159475, "pitch": 45, "duration": 61, "velocity": 127}, {"time": 159596, "pitch": 45, "duration": 241, "velocity": 127}, {"time": 159837, "pitch": 47, "duration": 60, "velocity": 127}, {"time": 159957, "pitch": 47, "duration": 60, "velocity": 127}, {"time": 160077, "pitch": 47, "duration": 241, "velocity": 127}, {"time": 160318, "pitch": 46, "duration": 60, "velocity": 127}, {"time": 160439, "pitch": 47, "duration": 60, "velocity": 127}, {"time": 160559, "pitch": 47, "duration": 241, "velocity": 127}, {"time": 160800, "pitch": 45, "duration": 120, "velocity": 127}, {"time": 160920, "pitch": 47, "duration": 241, "velocity": 127}, {"time": 161161, "pitch": 45, "duration": 120, "velocity": 127}, {"time": 161281, "pitch": 47, "duration": 121, "velocity": 127}, {"time": 161402, "pitch": 43, "duration": 120, "velocity": 127}, {"time": 161522, "pitch": 45, "duration": 121, "velocity": 127}, {"time": 161643, "pitch": 46, "duration": 120, "velocity": 127}, {"time": 161763, "pitch": 47, "duration": 120, "velocity": 127}, {"time": 163679, "pitch": 40, "duration": 60, "velocity": 127}, {"time": 163799, "pitch": 40, "duration": 61, "velocity": 127}, {"time": 163920, "pitch": 40, "duration": 241, "velocity": 127}, {"time": 164161, "pitch": 40, "duration": 60, "velocity": 127}, {"time": 164281, "pitch": 40, "duration": 60, "velocity": 127}, {"time": 164401, "pitch": 40, "duration": 241, "velocity": 127}, {"time": 164642, "pitch": 40, "duration": 60, "velocity": 127}, {"time": 164763, "pitch": 40, "duration": 60, "velocity": 127}, {"time": 164883, "pitch": 40, "duration": 241, "velocity": 127}, {"time": 165124, "pitch": 40, "duration": 59, "velocity": 127}, {"time": 165242, "pitch": 40, "duration": 59, "velocity": 127}, {"time": 165359, "pitch": 40, "duration": 236, "velocity": 127}, {"time": 165595, "pitch": 38, "duration": 60, "velocity": 127}, {"time": 165715, "pitch": 38, "duration": 61, "velocity": 127}, {"time": 165836, "pitch": 38, "duration": 241, "velocity": 127}, {"time": 166077, "pitch": 38, "duration": 60, "velocity": 127}, {"time": 166197, "pitch": 38, "duration": 60, "velocity": 127}, {"time": 166317, "pitch": 38, "duration": 241, "velocity": 127}, {"time": 166558, "pitch": 38, "duration": 60, "velocity": 127}, {"time": 166679, "pitch": 38, "duration": 60, "velocity": 127}, {"time": 166799, "pitch": 38, "duration": 241, "velocity": 127}, {"time": 167040, "pitch": 38, "duration": 60, "velocity": 127}, {"time": 167160, "pitch": 38, "duration": 60, "velocity": 127}, {"time": 167281, "pitch": 38, "duration": 240, "velocity": 127}, {"time": 167521, "pitch": 36, "duration": 61, "velocity": 127}, {"time": 167642, "pitch": 36, "duration": 60, "velocity": 127}, {"time": 167762, "pitch": 36, "duration": 241, "velocity": 127}, {"time": 168003, "pitch": 36, "duration": 60, "velocity": 127}, {"time": 168123, "pitch": 36, "duration": 61, "velocity": 127}, {"time": 168244, "pitch": 36, "duration": 241, "velocity": 127}, {"time": 168485, "pitch": 36, "duration": 58, "velocity": 127}, {"time": 168602, "pitch": 36, "duration": 59, "velocity": 127}, {"time": 168720, "pitch": 36, "duration": 236, "velocity": 127}, {"time": 168956, "pitch": 36, "duration": 60, "velocity": 127}, {"time": 169076, "pitch": 36, "duration": 60, "velocity": 127}, {"time": 169197, "pitch": 36, "duration": 240, "velocity": 127}, {"time": 169437, "pitch": 31, "duration": 61, "velocity": 127}, {"time": 169558, "pitch": 31, "duration": 60, "velocity": 127}, {"time": 169678, "pitch": 31, "duration": 241, "velocity": 127}, {"time": 169919, "pitch": 31, "duration": 60, "velocity": 127}, {"time": 170039, "pitch": 31, "duration": 61, "velocity": 127}, {"time": 170160, "pitch": 31, "duration": 241, "velocity": 127}, {"time": 170401, "pitch": 31, "duration": 60, "velocity": 127}, {"time": 170521, "pitch": 31, "duration": 60, "velocity": 127}, {"time": 170641, "pitch": 31, "duration": 241, "velocity": 127}, {"time": 170882, "pitch": 31, "duration": 60, "velocity": 127}, {"time": 171003, "pitch": 31, "duration": 60, "velocity": 127}, {"time": 171123, "pitch": 31, "duration": 241, "velocity": 127}, {"time": 171364, "pitch": 33, "duration": 59, "velocity": 127}, {"time": 171482, "pitch": 33, "duration": 59, "velocity": 127}, {"time": 171599, "pitch": 33, "duration": 236, "velocity": 127}, {"time": 171835, "pitch": 33, "duration": 60, "velocity": 127}, {"time": 171955, "pitch": 33, "duration": 61, "velocity": 127}, {"time": 172076, "pitch": 33, "duration": 241, "velocity": 127}, {"time": 172317, "pitch": 33, "duration": 60, "velocity": 127}, {"time": 172437, "pitch": 33, "duration": 60, "velocity": 127}, {"time": 172557, "pitch": 33, "duration": 241, "velocity": 127}, {"time": 172798, "pitch": 33, "duration": 60, "velocity": 127}, {"time": 172919, "pitch": 33, "duration": 60, "velocity": 127}, {"time": 173039, "pitch": 33, "duration": 241, "velocity": 127}, {"time": 173280, "pitch": 43, "duration": 60, "velocity": 127}, {"time": 173400, "pitch": 43, "duration": 60, "velocity": 127}, {"time": 173521, "pitch": 43, "duration": 240, "velocity": 127}, {"time": 173761, "pitch": 43, "duration": 61, "velocity": 127}, {"time": 173882, "pitch": 43, "duration": 60, "velocity": 127}, {"time": 174002, "pitch": 43, "duration": 241, "velocity": 127}, {"time": 174243, "pitch": 43, "duration": 60, "velocity": 127}, {"time": 174363, "pitch": 43, "duration": 61, "velocity": 127}, {"time": 174484, "pitch": 43, "duration": 241, "velocity": 127}, {"time": 174725, "pitch": 43, "duration": 58, "velocity": 127}, {"time": 174842, "pitch": 43, "duration": 59, "velocity": 127}, {"time": 174960, "pitch": 43, "duration": 118, "velocity": 127}, {"time": 175078, "pitch": 44, "duration": 118, "velocity": 127}, {"time": 175196, "pitch": 45, "duration": 60, "velocity": 127}, {"time": 175316, "pitch": 45, "duration": 60, "velocity": 127}, {"time": 175437, "pitch": 45, "duration": 240, "velocity": 127}, {"time": 175677, "pitch": 45, "duration": 61, "velocity": 127}, {"time": 175798, "pitch": 45, "duration": 60, "velocity": 127}, {"time": 175918, "pitch": 45, "duration": 241, "velocity": 127}, {"time": 176159, "pitch": 45, "duration": 60, "velocity": 127}, {"time": 176279, "pitch": 45, "duration": 61, "velocity": 127}, {"time": 176400, "pitch": 45, "duration": 241, "velocity": 127}, {"time": 176641, "pitch": 45, "duration": 60, "velocity": 127}, {"time": 176761, "pitch": 45, "duration": 60, "velocity": 127}, {"time": 176881, "pitch": 45, "duration": 121, "velocity": 127}, {"time": 177002, "pitch": 46, "duration": 120, "velocity": 127}, {"time": 177122, "pitch": 45, "duration": 121, "velocity": 127}, {"time": 177243, "pitch": 47, "duration": 240, "velocity": 127}, {"time": 177483, "pitch": 45, "duration": 121, "velocity": 127}, {"time": 177604, "pitch": 47, "duration": 235, "velocity": 127}, {"time": 177839, "pitch": 45, "duration": 118, "velocity": 127}, {"time": 177957, "pitch": 47, "duration": 238, "velocity": 127}, {"time": 178195, "pitch": 45, "duration": 121, "velocity": 127}, {"time": 178316, "pitch": 47, "duration": 241, "velocity": 127}, {"time": 178557, "pitch": 35, "duration": 120, "velocity": 127}, {"time": 178677, "pitch": 47, "duration": 120, "velocity": 127}, {"time": 178797, "pitch": 35, "duration": 121, "velocity": 127}, {"time": 178918, "pitch": 47, "duration": 120, "velocity": 127}, {"time": 179038, "pitch": 40, "duration": 60, "velocity": 127}, {"time": 179159, "pitch": 40, "duration": 60, "velocity": 127}, {"time": 179279, "pitch": 40, "duration": 241, "velocity": 127}, {"time": 179520, "pitch": 40, "duration": 60, "velocity": 127}, {"time": 179640, "pitch": 40, "duration": 60, "velocity": 127}, {"time": 179761, "pitch": 40, "duration": 240, "velocity": 127}, {"time": 180001, "pitch": 40, "duration": 61, "velocity": 127}, {"time": 180122, "pitch": 40, "duration": 60, "velocity": 127}, {"time": 180242, "pitch": 40, "duration": 241, "velocity": 127}, {"time": 180483, "pitch": 40, "duration": 60, "velocity": 127}, {"time": 180603, "pitch": 40, "duration": 61, "velocity": 127}, {"time": 180724, "pitch": 40, "duration": 241, "velocity": 127}, {"time": 180965, "pitch": 38, "duration": 58, "velocity": 127}, {"time": 181082, "pitch": 38, "duration": 59, "velocity": 127}, {"time": 181200, "pitch": 38, "duration": 236, "velocity": 127}, {"time": 181436, "pitch": 38, "duration": 60, "velocity": 127}, {"time": 181556, "pitch": 38, "duration": 60, "velocity": 127}, {"time": 181677, "pitch": 38, "duration": 240, "velocity": 127}, {"time": 181917, "pitch": 38, "duration": 61, "velocity": 127}, {"time": 182038, "pitch": 38, "duration": 60, "velocity": 127}, {"time": 182158, "pitch": 38, "duration": 241, "velocity": 127}, {"time": 182399, "pitch": 38, "duration": 60, "velocity": 127}, {"time": 182519, "pitch": 38, "duration": 61, "velocity": 127}, {"time": 182640, "pitch": 38, "duration": 241, "velocity": 127}, {"time": 182881, "pitch": 36, "duration": 60, "velocity": 127}, {"time": 183001, "pitch": 36, "duration": 60, "velocity": 127}, {"time": 183121, "pitch": 36, "duration": 241, "velocity": 127}, {"time": 183362, "pitch": 36, "duration": 60, "velocity": 127}, {"time": 183483, "pitch": 36, "duration": 60, "velocity": 127}, {"time": 183603, "pitch": 36, "duration": 241, "velocity": 127}, {"time": 183844, "pitch": 36, "duration": 59, "velocity": 127}, {"time": 183962, "pitch": 36, "duration": 59, "velocity": 127}, {"time": 184079, "pitch": 36, "duration": 236, "velocity": 127}, {"time": 184315, "pitch": 36, "duration": 60, "velocity": 127}, {"time": 184435, "pitch": 36, "duration": 61, "velocity": 127}, {"time": 184556, "pitch": 36, "duration": 241, "velocity": 127}, {"time": 184797, "pitch": 31, "duration": 60, "velocity": 127}, {"time": 184917, "pitch": 31, "duration": 60, "velocity": 127}, {"time": 185037, "pitch": 31, "duration": 241, "velocity": 127}, {"time": 185278, "pitch": 31, "duration": 60, "velocity": 127}, {"time": 185399, "pitch": 31, "duration": 60, "velocity": 127}, {"time": 185519, "pitch": 31, "duration": 241, "velocity": 127}, {"time": 185760, "pitch": 31, "duration": 60, "velocity": 127}, {"time": 185880, "pitch": 31, "duration": 60, "velocity": 127}, {"time": 186001, "pitch": 31, "duration": 240, "velocity": 127}, {"time": 186241, "pitch": 31, "duration": 61, "velocity": 127}, {"time": 186362, "pitch": 31, "duration": 60, "velocity": 127}, {"time": 186482, "pitch": 31, "duration": 241, "velocity": 127}, {"time": 186723, "pitch": 33, "duration": 60, "velocity": 127}, {"time": 186843, "pitch": 33, "duration": 61, "velocity": 127}, {"time": 186964, "pitch": 33, "duration": 241, "velocity": 127}, {"time": 187205, "pitch": 33, "duration": 58, "velocity": 127}, {"time": 187322, "pitch": 33, "duration": 59, "velocity": 127}, {"time": 187440, "pitch": 33, "duration": 236, "velocity": 127}, {"time": 187676, "pitch": 33, "duration": 60, "velocity": 127}, {"time": 187796, "pitch": 33, "duration": 60, "velocity": 127}, {"time": 187917, "pitch": 33, "duration": 240, "velocity": 127}, {"time": 188157, "pitch": 33, "duration": 61, "velocity": 127}, {"time": 188278, "pitch": 33, "duration": 60, "velocity": 127}, {"time": 188398, "pitch": 33, "duration": 241, "velocity": 127}, {"time": 188639, "pitch": 31, "duration": 60, "velocity": 127}, {"time": 188759, "pitch": 31, "duration": 61, "velocity": 127}, {"time": 188880, "pitch": 31, "duration": 241, "velocity": 127}, {"time": 189121, "pitch": 31, "duration": 60, "velocity": 127}, {"time": 189241, "pitch": 31, "duration": 60, "velocity": 127}, {"time": 189361, "pitch": 31, "duration": 241, "velocity": 127}, {"time": 189602, "pitch": 31, "duration": 60, "velocity": 127}, {"time": 189723, "pitch": 31, "duration": 60, "velocity": 127}, {"time": 189843, "pitch": 31, "duration": 241, "velocity": 127}, {"time": 190084, "pitch": 31, "duration": 59, "velocity": 127}, {"time": 190202, "pitch": 31, "duration": 58, "velocity": 127}, {"time": 190319, "pitch": 31, "duration": 118, "velocity": 127}, {"time": 190437, "pitch": 32, "duration": 118, "velocity": 127}, {"time": 190555, "pitch": 33, "duration": 60, "velocity": 127}, {"time": 190675, "pitch": 33, "duration": 61, "velocity": 127}, {"time": 190796, "pitch": 33, "duration": 241, "velocity": 127}, {"time": 191037, "pitch": 33, "duration": 60, "velocity": 127}, {"time": 191157, "pitch": 33, "duration": 60, "velocity": 127}, {"time": 191277, "pitch": 33, "duration": 241, "velocity": 127}, {"time": 191518, "pitch": 33, "duration": 60, "velocity": 127}, {"time": 191639, "pitch": 33, "duration": 60, "velocity": 127}, {"time": 191759, "pitch": 33, "duration": 241, "velocity": 127}, {"time": 192000, "pitch": 33, "duration": 60, "velocity": 127}, {"time": 192120, "pitch": 33, "duration": 60, "velocity": 127}, {"time": 192241, "pitch": 33, "duration": 120, "velocity": 127}, {"time": 192361, "pitch": 33, "duration": 120, "velocity": 127}, {"time": 192481, "pitch": 38, "duration": 61, "velocity": 127}, {"time": 192602, "pitch": 38, "duration": 60, "velocity": 127}, {"time": 192722, "pitch": 38, "duration": 241, "velocity": 127}, {"time": 192963, "pitch": 38, "duration": 60, "velocity": 127}, {"time": 193083, "pitch": 38, "duration": 61, "velocity": 127}, {"time": 193204, "pitch": 38, "duration": 241, "velocity": 127}, {"time": 193445, "pitch": 38, "duration": 58, "velocity": 127}, {"time": 193562, "pitch": 38, "duration": 59, "velocity": 127}, {"time": 193680, "pitch": 38, "duration": 236, "velocity": 127}, {"time": 193916, "pitch": 38, "duration": 60, "velocity": 127}, {"time": 194036, "pitch": 38, "duration": 60, "velocity": 127}, {"time": 194157, "pitch": 38, "duration": 240, "velocity": 127}, {"time": 194397, "pitch": 36, "duration": 61, "velocity": 127}, {"time": 194518, "pitch": 36, "duration": 60, "velocity": 127}, {"time": 194638, "pitch": 36, "duration": 241, "velocity": 127}, {"time": 194879, "pitch": 36, "duration": 60, "velocity": 127}, {"time": 194999, "pitch": 36, "duration": 61, "velocity": 127}, {"time": 195120, "pitch": 36, "duration": 241, "velocity": 127}, {"time": 195361, "pitch": 36, "duration": 60, "velocity": 127}, {"time": 195481, "pitch": 36, "duration": 60, "velocity": 127}, {"time": 195601, "pitch": 36, "duration": 241, "velocity": 127}, {"time": 195842, "pitch": 36, "duration": 60, "velocity": 127}, {"time": 195963, "pitch": 36, "duration": 60, "velocity": 127}, {"time": 196083, "pitch": 36, "duration": 241, "velocity": 127}, {"time": 196324, "pitch": 31, "duration": 59, "velocity": 127}, {"time": 196442, "pitch": 31, "duration": 58, "velocity": 127}, {"time": 196559, "pitch": 31, "duration": 236, "velocity": 127}, {"time": 196795, "pitch": 30, "duration": 60, "velocity": 127}, {"time": 196915, "pitch": 31, "duration": 61, "velocity": 127}, {"time": 197036, "pitch": 31, "duration": 241, "velocity": 127}, {"time": 197277, "pitch": 31, "duration": 60, "velocity": 127}, {"time": 197397, "pitch": 31, "duration": 60, "velocity": 127}, {"time": 197517, "pitch": 31, "duration": 241, "velocity": 127}, {"time": 197758, "pitch": 30, "duration": 60, "velocity": 127}, {"time": 197879, "pitch": 31, "duration": 60, "velocity": 127}, {"time": 197999, "pitch": 31, "duration": 241, "velocity": 127}, {"time": 198240, "pitch": 38, "duration": 60, "velocity": 127}, {"time": 198360, "pitch": 38, "duration": 60, "velocity": 127}, {"time": 198481, "pitch": 38, "duration": 240, "velocity": 127}, {"time": 198721, "pitch": 37, "duration": 61, "velocity": 127}, {"time": 198842, "pitch": 38, "duration": 60, "velocity": 127}, {"time": 198962, "pitch": 38, "duration": 241, "velocity": 127}, {"time": 199203, "pitch": 38, "duration": 60, "velocity": 127}, {"time": 199323, "pitch": 38, "duration": 61, "velocity": 127}, {"time": 199444, "pitch": 38, "duration": 241, "velocity": 127}, {"time": 199685, "pitch": 37, "duration": 58, "velocity": 127}, {"time": 199802, "pitch": 38, "duration": 59, "velocity": 127}, {"time": 199920, "pitch": 38, "duration": 236, "velocity": 127}, {"time": 200156, "pitch": 40, "duration": 60, "velocity": 127}, {"time": 200276, "pitch": 40, "duration": 60, "velocity": 127}, {"time": 200397, "pitch": 40, "duration": 240, "velocity": 127}, {"time": 200637, "pitch": 39, "duration": 61, "velocity": 127}, {"time": 200758, "pitch": 40, "duration": 60, "velocity": 127}, {"time": 200878, "pitch": 40, "duration": 241, "velocity": 127}, {"time": 201119, "pitch": 40, "duration": 60, "velocity": 127}, {"time": 201239, "pitch": 40, "duration": 61, "velocity": 127}, {"time": 201360, "pitch": 40, "duration": 241, "velocity": 127}, {"time": 201601, "pitch": 39, "duration": 60, "velocity": 127}, {"time": 201721, "pitch": 40, "duration": 60, "velocity": 127}, {"time": 201841, "pitch": 40, "duration": 241, "velocity": 127}, {"time": 202082, "pitch": 36, "duration": 60, "velocity": 127}, {"time": 202203, "pitch": 36, "duration": 60, "velocity": 127}, {"time": 202323, "pitch": 36, "duration": 241, "velocity": 127}, {"time": 202564, "pitch": 35, "duration": 59, "velocity": 127}, {"time": 202682, "pitch": 36, "duration": 58, "velocity": 127}, {"time": 202799, "pitch": 36, "duration": 236, "velocity": 127}, {"time": 203035, "pitch": 36, "duration": 60, "velocity": 127}, {"time": 203155, "pitch": 36, "duration": 61, "velocity": 127}, {"time": 203276, "pitch": 36, "duration": 241, "velocity": 127}, {"time": 203517, "pitch": 35, "duration": 60, "velocity": 127}, {"time": 203637, "pitch": 36, "duration": 60, "velocity": 127}, {"time": 203757, "pitch": 36, "duration": 241, "velocity": 127}, {"time": 203998, "pitch": 43, "duration": 60, "velocity": 127}, {"time": 204119, "pitch": 43, "duration": 60, "velocity": 127}, {"time": 204239, "pitch": 43, "duration": 241, "velocity": 127}, {"time": 204480, "pitch": 42, "duration": 60, "velocity": 127}, {"time": 204600, "pitch": 43, "duration": 60, "velocity": 127}, {"time": 204721, "pitch": 43, "duration": 240, "velocity": 127}, {"time": 204961, "pitch": 43, "duration": 61, "velocity": 127}, {"time": 205082, "pitch": 43, "duration": 60, "velocity": 127}, {"time": 205202, "pitch": 43, "duration": 241, "velocity": 127}, {"time": 205443, "pitch": 42, "duration": 60, "velocity": 127}, {"time": 205563, "pitch": 43, "duration": 61, "velocity": 127}, {"time": 205684, "pitch": 43, "duration": 120, "velocity": 127}, {"time": 205804, "pitch": 44, "duration": 121, "velocity": 127}, {"time": 205925, "pitch": 45, "duration": 58, "velocity": 127}, {"time": 206042, "pitch": 45, "duration": 59, "velocity": 127}, {"time": 206160, "pitch": 45, "duration": 236, "velocity": 127}, {"time": 206396, "pitch": 44, "duration": 60, "velocity": 127}, {"time": 206516, "pitch": 45, "duration": 60, "velocity": 127}, {"time": 206637, "pitch": 45, "duration": 240, "velocity": 127}, {"time": 206877, "pitch": 45, "duration": 61, "velocity": 127}, {"time": 206998, "pitch": 45, "duration": 60, "velocity": 127}, {"time": 207118, "pitch": 45, "duration": 241, "velocity": 127}, {"time": 207359, "pitch": 44, "duration": 60, "velocity": 127}, {"time": 207479, "pitch": 45, "duration": 61, "velocity": 127}, {"time": 207600, "pitch": 45, "duration": 241, "velocity": 127}, {"time": 207841, "pitch": 47, "duration": 60, "velocity": 127}, {"time": 207961, "pitch": 47, "duration": 60, "velocity": 127}, {"time": 208081, "pitch": 47, "duration": 241, "velocity": 127}, {"time": 208322, "pitch": 46, "duration": 60, "velocity": 127}, {"time": 208443, "pitch": 47, "duration": 60, "velocity": 127}, {"time": 208563, "pitch": 47, "duration": 241, "velocity": 127}, {"time": 208804, "pitch": 45, "duration": 118, "velocity": 127}, {"time": 208922, "pitch": 47, "duration": 235, "velocity": 127}, {"time": 209157, "pitch": 45, "duration": 118, "velocity": 127}, {"time": 209275, "pitch": 47, "duration": 120, "velocity": 127}, {"time": 209395, "pitch": 43, "duration": 121, "velocity": 127}, {"time": 209516, "pitch": 45, "duration": 120, "velocity": 127}, {"time": 209636, "pitch": 46, "duration": 121, "velocity": 127}, {"time": 209757, "pitch": 47, "duration": 120, "velocity": 127}, {"time": 227042, "pitch": 40, "duration": 60, "velocity": 127}, {"time": 227163, "pitch": 40, "duration": 60, "velocity": 127}, {"time": 227283, "pitch": 40, "duration": 241, "velocity": 127}, {"time": 227524, "pitch": 40, "duration": 59, "velocity": 127}, {"time": 227642, "pitch": 40, "duration": 58, "velocity": 127}, {"time": 227759, "pitch": 40, "duration": 236, "velocity": 127}, {"time": 227995, "pitch": 40, "duration": 60, "velocity": 127}, {"time": 228115, "pitch": 40, "duration": 61, "velocity": 127}, {"time": 228236, "pitch": 40, "duration": 241, "velocity": 127}, {"time": 228477, "pitch": 40, "duration": 60, "velocity": 127}, {"time": 228597, "pitch": 40, "duration": 60, "velocity": 127}, {"time": 228717, "pitch": 40, "duration": 241, "velocity": 127}, {"time": 228958, "pitch": 38, "duration": 60, "velocity": 127}, {"time": 229079, "pitch": 38, "duration": 60, "velocity": 127}, {"time": 229199, "pitch": 38, "duration": 241, "velocity": 127}, {"time": 229440, "pitch": 38, "duration": 60, "velocity": 127}, {"time": 229560, "pitch": 38, "duration": 60, "velocity": 127}, {"time": 229681, "pitch": 38, "duration": 240, "velocity": 127}, {"time": 229921, "pitch": 38, "duration": 61, "velocity": 127}, {"time": 230042, "pitch": 38, "duration": 60, "velocity": 127}, {"time": 230162, "pitch": 38, "duration": 241, "velocity": 127}, {"time": 230403, "pitch": 38, "duration": 60, "velocity": 127}, {"time": 230523, "pitch": 38, "duration": 61, "velocity": 127}, {"time": 230644, "pitch": 38, "duration": 240, "velocity": 127}, {"time": 230884, "pitch": 36, "duration": 59, "velocity": 127}, {"time": 231002, "pitch": 36, "duration": 59, "velocity": 127}, {"time": 231120, "pitch": 36, "duration": 236, "velocity": 127}, {"time": 231356, "pitch": 36, "duration": 60, "velocity": 127}, {"time": 231476, "pitch": 36, "duration": 60, "velocity": 127}, {"time": 231597, "pitch": 36, "duration": 240, "velocity": 127}, {"time": 231837, "pitch": 36, "duration": 61, "velocity": 127}, {"time": 231958, "pitch": 36, "duration": 60, "velocity": 127}, {"time": 232078, "pitch": 36, "duration": 241, "velocity": 127}, {"time": 232319, "pitch": 36, "duration": 60, "velocity": 127}, {"time": 232439, "pitch": 36, "duration": 61, "velocity": 127}, {"time": 232560, "pitch": 36, "duration": 241, "velocity": 127}, {"time": 232801, "pitch": 31, "duration": 60, "velocity": 127}, {"time": 232921, "pitch": 31, "duration": 60, "velocity": 127}, {"time": 233041, "pitch": 31, "duration": 241, "velocity": 127}, {"time": 233282, "pitch": 31, "duration": 60, "velocity": 127}, {"time": 233403, "pitch": 31, "duration": 60, "velocity": 127}, {"time": 233523, "pitch": 31, "duration": 241, "velocity": 127}, {"time": 233764, "pitch": 31, "duration": 59, "velocity": 127}, {"time": 233882, "pitch": 31, "duration": 58, "velocity": 127}, {"time": 233999, "pitch": 31, "duration": 236, "velocity": 127}, {"time": 234235, "pitch": 31, "duration": 60, "velocity": 127}, {"time": 234355, "pitch": 31, "duration": 61, "velocity": 127}, {"time": 234476, "pitch": 31, "duration": 241, "velocity": 127}, {"time": 234717, "pitch": 33, "duration": 60, "velocity": 127}, {"time": 234837, "pitch": 33, "duration": 60, "velocity": 127}, {"time": 234957, "pitch": 33, "duration": 241, "velocity": 127}, {"time": 235198, "pitch": 33, "duration": 60, "velocity": 127}, {"time": 235319, "pitch": 33, "duration": 60, "velocity": 127}, {"time": 235439, "pitch": 33, "duration": 241, "velocity": 127}, {"time": 235680, "pitch": 33, "duration": 60, "velocity": 127}, {"time": 235800, "pitch": 33, "duration": 60, "velocity": 127}, {"time": 235921, "pitch": 33, "duration": 240, "velocity": 127}, {"time": 236161, "pitch": 33, "duration": 61, "velocity": 127}, {"time": 236282, "pitch": 33, "duration": 60, "velocity": 127}, {"time": 236402, "pitch": 33, "duration": 241, "velocity": 127}, {"time": 236643, "pitch": 31, "duration": 60, "velocity": 127}, {"time": 236763, "pitch": 31, "duration": 61, "velocity": 127}, {"time": 236884, "pitch": 31, "duration": 240, "velocity": 127}, {"time": 237124, "pitch": 31, "duration": 59, "velocity": 127}, {"time": 237242, "pitch": 31, "duration": 59, "velocity": 127}, {"time": 237360, "pitch": 31, "duration": 236, "velocity": 127}, {"time": 237596, "pitch": 31, "duration": 60, "velocity": 127}, {"time": 237716, "pitch": 31, "duration": 60, "velocity": 127}, {"time": 237837, "pitch": 31, "duration": 240, "velocity": 127}, {"time": 238077, "pitch": 31, "duration": 61, "velocity": 127}, {"time": 238198, "pitch": 31, "duration": 60, "velocity": 127}, {"time": 238318, "pitch": 31, "duration": 121, "velocity": 127}, {"time": 238439, "pitch": 32, "duration": 120, "velocity": 127}, {"time": 238559, "pitch": 33, "duration": 60, "velocity": 127}, {"time": 238679, "pitch": 33, "duration": 61, "velocity": 127}, {"time": 238800, "pitch": 33, "duration": 241, "velocity": 127}, {"time": 239041, "pitch": 33, "duration": 60, "velocity": 127}, {"time": 239161, "pitch": 33, "duration": 60, "velocity": 127}, {"time": 239281, "pitch": 33, "duration": 241, "velocity": 127}, {"time": 239522, "pitch": 33, "duration": 60, "velocity": 127}, {"time": 239643, "pitch": 33, "duration": 60, "velocity": 127}, {"time": 239763, "pitch": 33, "duration": 241, "velocity": 127}, {"time": 240004, "pitch": 33, "duration": 59, "velocity": 127}, {"time": 240122, "pitch": 33, "duration": 58, "velocity": 127}, {"time": 240239, "pitch": 33, "duration": 118, "velocity": 127}, {"time": 240357, "pitch": 33, "duration": 118, "velocity": 127}, {"time": 240475, "pitch": 38, "duration": 60, "velocity": 127}, {"time": 240595, "pitch": 38, "duration": 61, "velocity": 127}, {"time": 240716, "pitch": 38, "duration": 241, "velocity": 127}, {"time": 240957, "pitch": 38, "duration": 60, "velocity": 127}, {"time": 241077, "pitch": 38, "duration": 60, "velocity": 127}, {"time": 241197, "pitch": 38, "duration": 241, "velocity": 127}, {"time": 241438, "pitch": 38, "duration": 60, "velocity": 127}, {"time": 241559, "pitch": 38, "duration": 60, "velocity": 127}, {"time": 241679, "pitch": 38, "duration": 241, "velocity": 127}, {"time": 241920, "pitch": 38, "duration": 60, "velocity": 127}, {"time": 242040, "pitch": 38, "duration": 60, "velocity": 127}, {"time": 242161, "pitch": 38, "duration": 240, "velocity": 127}, {"time": 246244, "pitch": 40, "duration": 118, "velocity": 127}, {"time": 246362, "pitch": 40, "duration": 117, "velocity": 127}, {"time": 246479, "pitch": 40, "duration": 236, "velocity": 127}, {"time": 246715, "pitch": 38, "duration": 120, "velocity": 127}, {"time": 246835, "pitch": 40, "duration": 241, "velocity": 127}, {"time": 247076, "pitch": 38, "duration": 121, "velocity": 127}, {"time": 247197, "pitch": 40, "duration": 240, "velocity": 127}, {"time": 247437, "pitch": 40, "duration": 121, "velocity": 127}, {"time": 247558, "pitch": 40, "duration": 241, "velocity": 127}, {"time": 247799, "pitch": 40, "duration": 120, "velocity": 127}, {"time": 247919, "pitch": 40, "duration": 241, "velocity": 127}, {"time": 248160, "pitch": 38, "duration": 120, "velocity": 127}, {"time": 248280, "pitch": 38, "duration": 121, "velocity": 127}, {"time": 248401, "pitch": 38, "duration": 240, "velocity": 127}, {"time": 248641, "pitch": 36, "duration": 121, "velocity": 127}, {"time": 248762, "pitch": 38, "duration": 241, "velocity": 127}, {"time": 249003, "pitch": 36, "duration": 120, "velocity": 127}, {"time": 249123, "pitch": 38, "duration": 241, "velocity": 127}, {"time": 249364, "pitch": 38, "duration": 120, "velocity": 127}, {"time": 249484, "pitch": 38, "duration": 238, "velocity": 127}, {"time": 249722, "pitch": 38, "duration": 118, "velocity": 127}, {"time": 249840, "pitch": 38, "duration": 236, "velocity": 127}, {"time": 250076, "pitch": 36, "duration": 120, "velocity": 127}, {"time": 250196, "pitch": 36, "duration": 121, "velocity": 127}, {"time": 250317, "pitch": 36, "duration": 240, "velocity": 127}, {"time": 250557, "pitch": 35, "duration": 121, "velocity": 127}, {"time": 250678, "pitch": 36, "duration": 241, "velocity": 127}, {"time": 250919, "pitch": 35, "duration": 120, "velocity": 127}, {"time": 251039, "pitch": 36, "duration": 241, "velocity": 127}, {"time": 251280, "pitch": 36, "duration": 120, "velocity": 127}, {"time": 251400, "pitch": 36, "duration": 241, "velocity": 127}, {"time": 251641, "pitch": 36, "duration": 120, "velocity": 127}, {"time": 251761, "pitch": 36, "duration": 241, "velocity": 127}, {"time": 252002, "pitch": 36, "duration": 121, "velocity": 127}, {"time": 252123, "pitch": 36, "duration": 120, "velocity": 127}, {"time": 252243, "pitch": 36, "duration": 241, "velocity": 127}, {"time": 252484, "pitch": 35, "duration": 118, "velocity": 127}, {"time": 252602, "pitch": 36, "duration": 235, "velocity": 127}, {"time": 252837, "pitch": 35, "duration": 118, "velocity": 127}, {"time": 252955, "pitch": 36, "duration": 241, "velocity": 127}, {"time": 253196, "pitch": 36, "duration": 120, "velocity": 127}, {"time": 253316, "pitch": 36, "duration": 241, "velocity": 127}, {"time": 253557, "pitch": 36, "duration": 120, "velocity": 127}, {"time": 253677, "pitch": 36, "duration": 241, "velocity": 127}, {"time": 253918, "pitch": 40, "duration": 121, "velocity": 127}, {"time": 254039, "pitch": 40, "duration": 120, "velocity": 127}, {"time": 254159, "pitch": 40, "duration": 241, "velocity": 127}, {"time": 254400, "pitch": 38, "duration": 120, "velocity": 127}, {"time": 254520, "pitch": 40, "duration": 241, "velocity": 127}, {"time": 254761, "pitch": 38, "duration": 120, "velocity": 127}, {"time": 254881, "pitch": 40, "duration": 241, "velocity": 127}, {"time": 255122, "pitch": 40, "duration": 121, "velocity": 127}, {"time": 255243, "pitch": 40, "duration": 240, "velocity": 127}, {"time": 255483, "pitch": 40, "duration": 121, "velocity": 127}, {"time": 255604, "pitch": 40, "duration": 240, "velocity": 127}, {"time": 255844, "pitch": 38, "duration": 118, "velocity": 127}, {"time": 255962, "pitch": 38, "duration": 118, "velocity": 127}, {"time": 256080, "pitch": 38, "duration": 236, "velocity": 127}, {"time": 256316, "pitch": 36, "duration": 120, "velocity": 127}, {"time": 256436, "pitch": 38, "duration": 241, "velocity": 127}, {"time": 256677, "pitch": 36, "duration": 120, "velocity": 127}, {"time": 256797, "pitch": 38, "duration": 241, "velocity": 127}, {"time": 257038, "pitch": 38, "duration": 121, "velocity": 127}, {"time": 257159, "pitch": 38, "duration": 240, "velocity": 127}, {"time": 257399, "pitch": 38, "duration": 121, "velocity": 127}, {"time": 257520, "pitch": 38, "duration": 241, "velocity": 127}, {"time": 257761, "pitch": 36, "duration": 120, "velocity": 127}, {"time": 257881, "pitch": 36, "duration": 120, "velocity": 127}, {"time": 258001, "pitch": 36, "duration": 241, "velocity": 127}, {"time": 258242, "pitch": 35, "duration": 121, "velocity": 127}, {"time": 258363, "pitch": 36, "duration": 240, "velocity": 127}, {"time": 258603, "pitch": 35, "duration": 121, "velocity": 127}, {"time": 258724, "pitch": 36, "duration": 235, "velocity": 127}, {"time": 258959, "pitch": 36, "duration": 118, "velocity": 127}, {"time": 259077, "pitch": 36, "duration": 238, "velocity": 127}, {"time": 259315, "pitch": 36, "duration": 121, "velocity": 127}, {"time": 259436, "pitch": 36, "duration": 241, "velocity": 127}, {"time": 259677, "pitch": 36, "duration": 120, "velocity": 127}, {"time": 259797, "pitch": 36, "duration": 120, "velocity": 127}, {"time": 259917, "pitch": 36, "duration": 241, "velocity": 127}, {"time": 260158, "pitch": 35, "duration": 121, "velocity": 127}, {"time": 260279, "pitch": 36, "duration": 240, "velocity": 127}, {"time": 260519, "pitch": 35, "duration": 121, "velocity": 127}, {"time": 260640, "pitch": 36, "duration": 241, "velocity": 127}, {"time": 260881, "pitch": 36, "duration": 120, "velocity": 127}, {"time": 261001, "pitch": 36, "duration": 241, "velocity": 127}, {"time": 261242, "pitch": 36, "duration": 120, "velocity": 127}, {"time": 261362, "pitch": 36, "duration": 241, "velocity": 127}, {"time": 261603, "pitch": 40, "duration": 120, "velocity": 127}, {"time": 261723, "pitch": 40, "duration": 121, "velocity": 127}, {"time": 261844, "pitch": 40, "duration": 240, "velocity": 127}, {"time": 262084, "pitch": 38, "duration": 118, "velocity": 127}, {"time": 262202, "pitch": 40, "duration": 236, "velocity": 127}, {"time": 262438, "pitch": 38, "duration": 118, "velocity": 127}, {"time": 262556, "pitch": 40, "duration": 241, "velocity": 127}, {"time": 262797, "pitch": 40, "duration": 120, "velocity": 127}, {"time": 262917, "pitch": 40, "duration": 241, "velocity": 127}, {"time": 263158, "pitch": 40, "duration": 120, "velocity": 127}, {"time": 263278, "pitch": 40, "duration": 241, "velocity": 127}, {"time": 263519, "pitch": 38, "duration": 120, "velocity": 127}, {"time": 263639, "pitch": 38, "duration": 121, "velocity": 127}, {"time": 263760, "pitch": 38, "duration": 241, "velocity": 127}, {"time": 264001, "pitch": 36, "duration": 120, "velocity": 127}, {"time": 264121, "pitch": 38, "duration": 241, "velocity": 127}, {"time": 264362, "pitch": 36, "duration": 120, "velocity": 127}, {"time": 264482, "pitch": 38, "duration": 241, "velocity": 127}, {"time": 264723, "pitch": 38, "duration": 120, "velocity": 127}, {"time": 264843, "pitch": 38, "duration": 239, "velocity": 127}, {"time": 265082, "pitch": 38, "duration": 117, "velocity": 127}, {"time": 265199, "pitch": 38, "duration": 236, "velocity": 127}, {"time": 265435, "pitch": 36, "duration": 120, "velocity": 127}, {"time": 265555, "pitch": 36, "duration": 121, "velocity": 127}, {"time": 265676, "pitch": 36, "duration": 241, "velocity": 127}, {"time": 265917, "pitch": 35, "duration": 120, "velocity": 127}, {"time": 266037, "pitch": 36, "duration": 241, "velocity": 127}, {"time": 266278, "pitch": 35, "duration": 120, "velocity": 127}, {"time": 266398, "pitch": 36, "duration": 241, "velocity": 127}, {"time": 266639, "pitch": 36, "duration": 120, "velocity": 127}, {"time": 266759, "pitch": 36, "duration": 241, "velocity": 127}, {"time": 267000, "pitch": 36, "duration": 121, "velocity": 127}, {"time": 267121, "pitch": 36, "duration": 240, "velocity": 127}, {"time": 267361, "pitch": 36, "duration": 121, "velocity": 127}, {"time": 267482, "pitch": 36, "duration": 120, "velocity": 127}, {"time": 267602, "pitch": 36, "duration": 241, "velocity": 127}, {"time": 267843, "pitch": 35, "duration": 120, "velocity": 127}, {"time": 267963, "pitch": 36, "duration": 241, "velocity": 127}, {"time": 268204, "pitch": 35, "duration": 120, "velocity": 127}, {"time": 268324, "pitch": 36, "duration": 236, "velocity": 127}, {"time": 268560, "pitch": 36, "duration": 118, "velocity": 127}, {"time": 268678, "pitch": 36, "duration": 238, "velocity": 127}, {"time": 268916, "pitch": 36, "duration": 121, "velocity": 127}, {"time": 269037, "pitch": 36, "duration": 240, "velocity": 127}, {"time": 269277, "pitch": 40, "duration": 121, "velocity": 127}, {"time": 269398, "pitch": 40, "duration": 120, "velocity": 127}, {"time": 269518, "pitch": 40, "duration": 241, "velocity": 127}, {"time": 269759, "pitch": 38, "duration": 120, "velocity": 127}, {"time": 269879, "pitch": 40, "duration": 241, "velocity": 127}, {"time": 270120, "pitch": 38, "duration": 121, "velocity": 127}, {"time": 270241, "pitch": 40, "duration": 240, "velocity": 127}, {"time": 270481, "pitch": 40, "duration": 121, "velocity": 127}, {"time": 270602, "pitch": 40, "duration": 241, "velocity": 127}, {"time": 270843, "pitch": 40, "duration": 120, "velocity": 127}, {"time": 270963, "pitch": 40, "duration": 241, "velocity": 127}, {"time": 271204, "pitch": 38, "duration": 118, "velocity": 127}, {"time": 271322, "pitch": 38, "duration": 117, "velocity": 127}, {"time": 271439, "pitch": 38, "duration": 236, "velocity": 127}, {"time": 271675, "pitch": 36, "duration": 120, "velocity": 127}, {"time": 271795, "pitch": 38, "duration": 241, "velocity": 127}, {"time": 272036, "pitch": 36, "duration": 121, "velocity": 127}, {"time": 272157, "pitch": 38, "duration": 240, "velocity": 127}, {"time": 272397, "pitch": 38, "duration": 121, "velocity": 127}, {"time": 272518, "pitch": 38, "duration": 241, "velocity": 127}, {"time": 272759, "pitch": 38, "duration": 120, "velocity": 127}, {"time": 272879, "pitch": 38, "duration": 241, "velocity": 127}, {"time": 273120, "pitch": 36, "duration": 120, "velocity": 127}, {"time": 273240, "pitch": 36, "duration": 121, "velocity": 127}, {"time": 273361, "pitch": 36, "duration": 240, "velocity": 127}, {"time": 273601, "pitch": 35, "duration": 121, "velocity": 127}, {"time": 273722, "pitch": 36, "duration": 241, "velocity": 127}, {"time": 273963, "pitch": 35, "duration": 120, "velocity": 127}, {"time": 274083, "pitch": 36, "duration": 241, "velocity": 127}, {"time": 274324, "pitch": 36, "duration": 120, "velocity": 127}, {"time": 274444, "pitch": 36, "duration": 238, "velocity": 127}, {"time": 274682, "pitch": 36, "duration": 118, "velocity": 127}, {"time": 274800, "pitch": 36, "duration": 236, "velocity": 127}, {"time": 275036, "pitch": 36, "duration": 120, "velocity": 127}, {"time": 275156, "pitch": 36, "duration": 121, "velocity": 127}, {"time": 275277, "pitch": 36, "duration": 240, "velocity": 127}, {"time": 275517, "pitch": 35, "duration": 121, "velocity": 127}, {"time": 275638, "pitch": 36, "duration": 241, "velocity": 127}, {"time": 275879, "pitch": 35, "duration": 120, "velocity": 127}, {"time": 275999, "pitch": 36, "duration": 241, "velocity": 127}, {"time": 276240, "pitch": 36, "duration": 120, "velocity": 127}, {"time": 276360, "pitch": 36, "duration": 241, "velocity": 127}, {"time": 276601, "pitch": 36, "duration": 120, "velocity": 127}, {"time": 276721, "pitch": 36, "duration": 241, "velocity": 127}, {"time": 276962, "pitch": 40, "duration": 121, "velocity": 127}, {"time": 277083, "pitch": 40, "duration": 120, "velocity": 127}, {"time": 277203, "pitch": 40, "duration": 241, "velocity": 127}, {"time": 277444, "pitch": 38, "duration": 117, "velocity": 127}, {"time": 277561, "pitch": 40, "duration": 236, "velocity": 127}, {"time": 277797, "pitch": 38, "duration": 118, "velocity": 127}, {"time": 277915, "pitch": 40, "duration": 241, "velocity": 127}, {"time": 278156, "pitch": 40, "duration": 120, "velocity": 127}, {"time": 278276, "pitch": 40, "duration": 241, "velocity": 127}, {"time": 278517, "pitch": 40, "duration": 120, "velocity": 127}, {"time": 278637, "pitch": 40, "duration": 241, "velocity": 127}, {"time": 278878, "pitch": 38, "duration": 121, "velocity": 127}, {"time": 278999, "pitch": 38, "duration": 120, "velocity": 127}, {"time": 279119, "pitch": 38, "duration": 241, "velocity": 127}, {"time": 279360, "pitch": 36, "duration": 120, "velocity": 127}, {"time": 279480, "pitch": 38, "duration": 241, "velocity": 127}, {"time": 279721, "pitch": 36, "duration": 120, "velocity": 127}, {"time": 279841, "pitch": 38, "duration": 241, "velocity": 127}, {"time": 280082, "pitch": 38, "duration": 121, "velocity": 127}, {"time": 280203, "pitch": 38, "duration": 240, "velocity": 127}, {"time": 280443, "pitch": 38, "duration": 121, "velocity": 127}, {"time": 280564, "pitch": 38, "duration": 240, "velocity": 127}, {"time": 280804, "pitch": 36, "duration": 118, "velocity": 127}, {"time": 280922, "pitch": 36, "duration": 118, "velocity": 127}, {"time": 281040, "pitch": 36, "duration": 236, "velocity": 127}, {"time": 281276, "pitch": 35, "duration": 120, "velocity": 127}, {"time": 281396, "pitch": 36, "duration": 241, "velocity": 127}, {"time": 281637, "pitch": 35, "duration": 120, "velocity": 127}, {"time": 281757, "pitch": 36, "duration": 241, "velocity": 127}, {"time": 281998, "pitch": 36, "duration": 121, "velocity": 127}, {"time": 282119, "pitch": 36, "duration": 240, "velocity": 127}, {"time": 282359, "pitch": 36, "duration": 121, "velocity": 127}, {"time": 282480, "pitch": 36, "duration": 241, "velocity": 127}, {"time": 282721, "pitch": 36, "duration": 120, "velocity": 127}, {"time": 282841, "pitch": 36, "duration": 120, "velocity": 127}, {"time": 282961, "pitch": 36, "duration": 241, "velocity": 127}, {"time": 283202, "pitch": 35, "duration": 121, "velocity": 127}, {"time": 283323, "pitch": 36, "duration": 240, "velocity": 127}, {"time": 283563, "pitch": 35, "duration": 121, "velocity": 127}, {"time": 283684, "pitch": 36, "duration": 241, "velocity": 127}, {"time": 283925, "pitch": 36, "duration": 120, "velocity": 127}, {"time": 284045, "pitch": 36, "duration": 241, "velocity": 127}, {"time": 284286, "pitch": 36, "duration": 120, "velocity": 127}, {"time": 284406, "pitch": 36, "duration": 241, "velocity": 127}, {"time": 284647, "pitch": 40, "duration": 120, "velocity": 127}, {"time": 284767, "pitch": 40, "duration": 121, "velocity": 127}, {"time": 284888, "pitch": 40, "duration": 241, "velocity": 127}, {"time": 285129, "pitch": 38, "duration": 120, "velocity": 127}, {"time": 285249, "pitch": 40, "duration": 241, "velocity": 127}, {"time": 285490, "pitch": 38, "duration": 120, "velocity": 127}, {"time": 285610, "pitch": 40, "duration": 241, "velocity": 127}, {"time": 285851, "pitch": 40, "duration": 120, "velocity": 127}, {"time": 285971, "pitch": 40, "duration": 241, "velocity": 127}, {"time": 286212, "pitch": 40, "duration": 121, "velocity": 127}, {"time": 286333, "pitch": 40, "duration": 240, "velocity": 127}, {"time": 286573, "pitch": 38, "duration": 121, "velocity": 127}, {"time": 286694, "pitch": 38, "duration": 120, "velocity": 127}, {"time": 286814, "pitch": 38, "duration": 241, "velocity": 127}, {"time": 287055, "pitch": 36, "duration": 120, "velocity": 127}, {"time": 287175, "pitch": 38, "duration": 241, "velocity": 127}, {"time": 287416, "pitch": 36, "duration": 121, "velocity": 127}, {"time": 287537, "pitch": 38, "duration": 240, "velocity": 127}, {"time": 287777, "pitch": 38, "duration": 121, "velocity": 127}, {"time": 287898, "pitch": 38, "duration": 241, "velocity": 127}, {"time": 288139, "pitch": 38, "duration": 120, "velocity": 127}, {"time": 288259, "pitch": 38, "duration": 241, "velocity": 127}, {"time": 288500, "pitch": 36, "duration": 120, "velocity": 127}, {"time": 288620, "pitch": 36, "duration": 121, "velocity": 127}, {"time": 288741, "pitch": 36, "duration": 240, "velocity": 127}, {"time": 288981, "pitch": 35, "duration": 121, "velocity": 127}, {"time": 289102, "pitch": 36, "duration": 241, "velocity": 127}, {"time": 289343, "pitch": 35, "duration": 120, "velocity": 127}, {"time": 289463, "pitch": 36, "duration": 241, "velocity": 127}, {"time": 289704, "pitch": 36, "duration": 120, "velocity": 127}, {"time": 289824, "pitch": 36, "duration": 241, "velocity": 127}, {"time": 290065, "pitch": 36, "duration": 120, "velocity": 127}, {"time": 290185, "pitch": 36, "duration": 241, "velocity": 127}, {"time": 290426, "pitch": 36, "duration": 121, "velocity": 127}, {"time": 290547, "pitch": 36, "duration": 120, "velocity": 127}, {"time": 290667, "pitch": 36, "duration": 241, "velocity": 127}, {"time": 290908, "pitch": 35, "duration": 120, "velocity": 127}, {"time": 291028, "pitch": 36, "duration": 241, "velocity": 127}, {"time": 291269, "pitch": 35, "duration": 120, "velocity": 127}, {"time": 291389, "pitch": 36, "duration": 241, "velocity": 127}, {"time": 291630, "pitch": 36, "duration": 121, "velocity": 127}, {"time": 291751, "pitch": 36, "duration": 240, "velocity": 127}, {"time": 291991, "pitch": 36, "duration": 121, "velocity": 127}, {"time": 292112, "pitch": 36, "duration": 241, "velocity": 127}], "annotations": [{"time": 283, "annotation": {"number": 7, "value": 74}, "group": "control_change"}, {"time": 304, "annotation": {"number": 11, "value": 127}, "group": "control_change"}, {"time": 326, "annotation": {"number": 10, "value": 66}, "group": "control_change"}, {"time": 348, "annotation": {"number": 91, "value": 0}, "group": "control_change"}, {"time": 370, "annotation": {"number": 93, "value": 0}, "group": "control_change"}, {"time": 391, "annotation": {"number": 101, "value": 0}, "group": "control_change"}, {"time": 413, "annotation": {"number": 100, "value": 0}, "group": "control_change"}, {"time": 435, "annotation": {"number": 6, "value": 12}, "group": "control_change"}, {"time": 456, "annotation": {"number": 101, "value": 127}, "group": "control_change"}, {"time": 478, "annotation": {"number": 100, "value": 127}, "group": "control_change"}]}, {"program": 0, "is_drum": false, "name": "A.PIANO", "annotations": [{"time": 217, "annotation": {"number": 0, "value": 0}, "group": "control_change"}, {"time": 239, "annotation": {"number": 32, "value": 0}, "group": "control_change"}]}, {"program": 2, "is_drum": false, "name": "A.PIANO", "notes": [{"time": 2402, "pitch": 40, "duration": 181, "velocity": 112}, {"time": 2402, "pitch": 55, "duration": 241, "velocity": 112}, {"time": 2402, "pitch": 59, "duration": 301, "velocity": 112}, {"time": 2402, "pitch": 64, "duration": 301, "velocity": 105}, {"time": 2643, "pitch": 40, "duration": 241, "velocity": 105}, {"time": 2764, "pitch": 55, "duration": 238, "velocity": 105}, {"time": 2764, "pitch": 59, "duration": 297, "velocity": 110}, {"time": 2764, "pitch": 64, "duration": 297, "velocity": 112}, {"time": 3002, "pitch": 40, "duration": 413, "velocity": 110}, {"time": 3120, "pitch": 55, "duration": 536, "velocity": 103}, {"time": 3120, "pitch": 59, "duration": 596, "velocity": 103}, {"time": 3120, "pitch": 64, "duration": 536, "velocity": 112}, {"time": 3596, "pitch": 40, "duration": 241, "velocity": 105}, {"time": 3837, "pitch": 40, "duration": 301, "velocity": 107}, {"time": 3837, "pitch": 55, "duration": 361, "velocity": 110}, {"time": 3837, "pitch": 59, "duration": 301, "velocity": 110}, {"time": 3837, "pitch": 64, "duration": 301, "velocity": 102}, {"time": 4198, "pitch": 38, "duration": 120, "velocity": 98}, {"time": 4318, "pitch": 54, "duration": 301, "velocity": 107}, {"time": 4318, "pitch": 57, "duration": 301, "velocity": 107}, {"time": 4318, "pitch": 62, "duration": 301, "velocity": 102}, {"time": 4559, "pitch": 38, "duration": 301, "velocity": 98}, {"time": 4680, "pitch": 54, "duration": 240, "velocity": 92}, {"time": 4680, "pitch": 57, "duration": 301, "velocity": 105}, {"time": 4680, "pitch": 62, "duration": 301, "velocity": 105}, {"time": 4920, "pitch": 38, "duration": 482, "velocity": 100}, {"time": 5041, "pitch": 54, "duration": 542, "velocity": 102}, {"time": 5041, "pitch": 57, "duration": 542, "velocity": 105}, {"time": 5041, "pitch": 62, "duration": 542, "velocity": 107}, {"time": 5522, "pitch": 38, "duration": 241, "velocity": 107}, {"time": 5763, "pitch": 54, "duration": 361, "velocity": 100}, {"time": 5763, "pitch": 57, "duration": 361, "velocity": 96}, {"time": 5763, "pitch": 62, "duration": 361, "velocity": 103}, {"time": 5884, "pitch": 38, "duration": 301, "velocity": 103}, {"time": 6124, "pitch": 36, "duration": 180, "velocity": 110}, {"time": 6245, "pitch": 55, "duration": 235, "velocity": 112}, {"time": 6245, "pitch": 59, "duration": 235, "velocity": 107}, {"time": 6245, "pitch": 64, "duration": 294, "velocity": 112}, {"time": 6480, "pitch": 36, "duration": 177, "velocity": 105}, {"time": 6598, "pitch": 55, "duration": 238, "velocity": 98}, {"time": 6598, "pitch": 59, "duration": 299, "velocity": 103}, {"time": 6598, "pitch": 64, "duration": 299, "velocity": 107}, {"time": 6836, "pitch": 36, "duration": 542, "velocity": 105}, {"time": 6957, "pitch": 55, "duration": 542, "velocity": 110}, {"time": 6957, "pitch": 59, "duration": 602, "velocity": 102}, {"time": 6957, "pitch": 64, "duration": 542, "velocity": 103}, {"time": 7438, "pitch": 36, "duration": 241, "velocity": 105}, {"time": 7679, "pitch": 55, "duration": 422, "velocity": 122}, {"time": 7679, "pitch": 59, "duration": 422, "velocity": 100}, {"time": 7679, "pitch": 64, "duration": 422, "velocity": 103}, {"time": 7800, "pitch": 36, "duration": 361, "velocity": 100}, {"time": 8161, "pitch": 36, "duration": 180, "velocity": 119}, {"time": 8161, "pitch": 55, "duration": 241, "velocity": 112}, {"time": 8161, "pitch": 59, "duration": 241, "velocity": 107}, {"time": 8161, "pitch": 64, "duration": 241, "velocity": 114}, {"time": 8402, "pitch": 36, "duration": 180, "velocity": 103}, {"time": 8522, "pitch": 55, "duration": 241, "velocity": 102}, {"time": 8522, "pitch": 59, "duration": 301, "velocity": 103}, {"time": 8522, "pitch": 64, "duration": 241, "velocity": 110}, {"time": 8763, "pitch": 36, "duration": 479, "velocity": 96}, {"time": 8883, "pitch": 55, "duration": 477, "velocity": 110}, {"time": 8883, "pitch": 59, "duration": 536, "velocity": 102}, {"time": 8883, "pitch": 64, "duration": 536, "velocity": 107}, {"time": 9360, "pitch": 36, "duration": 235, "velocity": 105}, {"time": 9595, "pitch": 55, "duration": 422, "velocity": 119}, {"time": 9595, "pitch": 59, "duration": 482, "velocity": 102}, {"time": 9595, "pitch": 64, "duration": 482, "velocity": 105}, {"time": 9716, "pitch": 36, "duration": 361, "velocity": 110}, {"time": 10077, "pitch": 40, "duration": 180, "velocity": 112}, {"time": 10077, "pitch": 55, "duration": 241, "velocity": 112}, {"time": 10077, "pitch": 59, "duration": 301, "velocity": 112}, {"time": 10077, "pitch": 64, "duration": 301, "velocity": 105}, {"time": 10318, "pitch": 40, "duration": 240, "velocity": 105}, {"time": 10438, "pitch": 55, "duration": 241, "velocity": 105}, {"time": 10438, "pitch": 59, "duration": 301, "velocity": 110}, {"time": 10438, "pitch": 64, "duration": 301, "velocity": 112}, {"time": 10679, "pitch": 40, "duration": 421, "velocity": 110}, {"time": 10799, "pitch": 55, "duration": 542, "velocity": 103}, {"time": 10799, "pitch": 59, "duration": 602, "velocity": 103}, {"time": 10799, "pitch": 64, "duration": 542, "velocity": 112}, {"time": 11281, "pitch": 40, "duration": 241, "velocity": 105}, {"time": 11522, "pitch": 40, "duration": 301, "velocity": 107}, {"time": 11522, "pitch": 55, "duration": 361, "velocity": 110}, {"time": 11522, "pitch": 59, "duration": 301, "velocity": 110}, {"time": 11522, "pitch": 64, "duration": 301, "velocity": 102}, {"time": 11883, "pitch": 38, "duration": 120, "velocity": 98}, {"time": 12003, "pitch": 54, "duration": 301, "velocity": 107}, {"time": 12003, "pitch": 57, "duration": 301, "velocity": 107}, {"time": 12003, "pitch": 62, "duration": 301, "velocity": 102}, {"time": 12244, "pitch": 38, "duration": 300, "velocity": 98}, {"time": 12364, "pitch": 54, "duration": 239, "velocity": 92}, {"time": 12364, "pitch": 57, "duration": 297, "velocity": 105}, {"time": 12364, "pitch": 62, "duration": 297, "velocity": 105}, {"time": 12603, "pitch": 38, "duration": 473, "velocity": 100}, {"time": 12720, "pitch": 54, "duration": 537, "velocity": 102}, {"time": 12720, "pitch": 57, "duration": 537, "velocity": 105}, {"time": 12720, "pitch": 62, "duration": 537, "velocity": 107}, {"time": 13197, "pitch": 38, "duration": 241, "velocity": 107}, {"time": 13438, "pitch": 54, "duration": 361, "velocity": 100}, {"time": 13438, "pitch": 57, "duration": 361, "velocity": 96}, {"time": 13438, "pitch": 62, "duration": 361, "velocity": 103}, {"time": 13558, "pitch": 38, "duration": 301, "velocity": 103}, {"time": 13799, "pitch": 36, "duration": 180, "velocity": 110}, {"time": 13919, "pitch": 55, "duration": 241, "velocity": 112}, {"time": 13919, "pitch": 59, "duration": 241, "velocity": 107}, {"time": 13919, "pitch": 64, "duration": 301, "velocity": 112}, {"time": 14160, "pitch": 36, "duration": 181, "velocity": 105}, {"time": 14280, "pitch": 55, "duration": 241, "velocity": 98}, {"time": 14280, "pitch": 59, "duration": 301, "velocity": 103}, {"time": 14280, "pitch": 64, "duration": 301, "velocity": 107}, {"time": 14521, "pitch": 36, "duration": 542, "velocity": 105}, {"time": 14642, "pitch": 55, "duration": 541, "velocity": 110}, {"time": 14642, "pitch": 59, "duration": 602, "velocity": 102}, {"time": 14642, "pitch": 64, "duration": 541, "velocity": 103}, {"time": 15123, "pitch": 36, "duration": 241, "velocity": 105}, {"time": 15364, "pitch": 55, "duration": 412, "velocity": 122}, {"time": 15364, "pitch": 59, "duration": 412, "velocity": 100}, {"time": 15364, "pitch": 64, "duration": 412, "velocity": 103}, {"time": 15482, "pitch": 36, "duration": 353, "velocity": 100}, {"time": 15835, "pitch": 36, "duration": 181, "velocity": 119}, {"time": 15835, "pitch": 55, "duration": 241, "velocity": 112}, {"time": 15835, "pitch": 59, "duration": 241, "velocity": 107}, {"time": 15835, "pitch": 64, "duration": 241, "velocity": 114}, {"time": 16076, "pitch": 36, "duration": 181, "velocity": 103}, {"time": 16196, "pitch": 55, "duration": 241, "velocity": 102}, {"time": 16196, "pitch": 59, "duration": 301, "velocity": 103}, {"time": 16196, "pitch": 64, "duration": 241, "velocity": 110}, {"time": 16437, "pitch": 36, "duration": 482, "velocity": 96}, {"time": 16558, "pitch": 55, "duration": 481, "velocity": 110}, {"time": 16558, "pitch": 59, "duration": 541, "velocity": 102}, {"time": 16558, "pitch": 64, "duration": 541, "velocity": 107}, {"time": 17039, "pitch": 36, "duration": 241, "velocity": 105}, {"time": 17280, "pitch": 55, "duration": 421, "velocity": 119}, {"time": 17280, "pitch": 59, "duration": 482, "velocity": 102}, {"time": 17280, "pitch": 64, "duration": 482, "velocity": 105}, {"time": 17400, "pitch": 36, "duration": 362, "velocity": 110}, {"time": 17762, "pitch": 40, "duration": 180, "velocity": 112}, {"time": 17762, "pitch": 55, "duration": 240, "velocity": 112}, {"time": 17762, "pitch": 59, "duration": 301, "velocity": 112}, {"time": 17762, "pitch": 64, "duration": 301, "velocity": 105}, {"time": 18002, "pitch": 40, "duration": 241, "velocity": 105}, {"time": 18123, "pitch": 55, "duration": 241, "velocity": 105}, {"time": 18123, "pitch": 59, "duration": 301, "velocity": 110}, {"time": 18123, "pitch": 64, "duration": 301, "velocity": 112}, {"time": 18364, "pitch": 40, "duration": 420, "velocity": 110}, {"time": 18484, "pitch": 55, "duration": 535, "velocity": 103}, {"time": 18484, "pitch": 59, "duration": 594, "velocity": 103}, {"time": 18484, "pitch": 64, "duration": 535, "velocity": 112}, {"time": 18960, "pitch": 40, "duration": 236, "velocity": 105}, {"time": 19196, "pitch": 40, "duration": 301, "velocity": 107}, {"time": 19196, "pitch": 55, "duration": 361, "velocity": 110}, {"time": 19196, "pitch": 59, "duration": 301, "velocity": 110}, {"time": 19196, "pitch": 64, "duration": 301, "velocity": 102}, {"time": 19557, "pitch": 38, "duration": 121, "velocity": 98}, {"time": 19678, "pitch": 54, "duration": 301, "velocity": 107}, {"time": 19678, "pitch": 57, "duration": 301, "velocity": 107}, {"time": 19678, "pitch": 62, "duration": 301, "velocity": 102}, {"time": 19918, "pitch": 38, "duration": 301, "velocity": 98}, {"time": 20039, "pitch": 54, "duration": 241, "velocity": 92}, {"time": 20039, "pitch": 57, "duration": 301, "velocity": 105}, {"time": 20039, "pitch": 62, "duration": 301, "velocity": 105}, {"time": 20280, "pitch": 38, "duration": 481, "velocity": 100}, {"time": 20400, "pitch": 54, "duration": 542, "velocity": 102}, {"time": 20400, "pitch": 57, "duration": 542, "velocity": 105}, {"time": 20400, "pitch": 62, "duration": 542, "velocity": 107}, {"time": 20882, "pitch": 38, "duration": 240, "velocity": 107}, {"time": 21122, "pitch": 54, "duration": 362, "velocity": 100}, {"time": 21122, "pitch": 57, "duration": 362, "velocity": 96}, {"time": 21122, "pitch": 62, "duration": 362, "velocity": 103}, {"time": 21243, "pitch": 38, "duration": 301, "velocity": 103}, {"time": 21484, "pitch": 36, "duration": 179, "velocity": 110}, {"time": 21604, "pitch": 55, "duration": 236, "velocity": 112}, {"time": 21604, "pitch": 59, "duration": 236, "velocity": 107}, {"time": 21604, "pitch": 64, "duration": 295, "velocity": 112}, {"time": 21840, "pitch": 36, "duration": 176, "velocity": 105}, {"time": 21957, "pitch": 55, "duration": 239, "velocity": 98}, {"time": 21957, "pitch": 59, "duration": 299, "velocity": 103}, {"time": 21957, "pitch": 64, "duration": 299, "velocity": 107}, {"time": 22196, "pitch": 36, "duration": 541, "velocity": 105}, {"time": 22316, "pitch": 55, "duration": 542, "velocity": 110}, {"time": 22316, "pitch": 59, "duration": 602, "velocity": 102}, {"time": 22316, "pitch": 64, "duration": 542, "velocity": 103}, {"time": 22798, "pitch": 36, "duration": 240, "velocity": 105}, {"time": 23038, "pitch": 55, "duration": 422, "velocity": 122}, {"time": 23038, "pitch": 59, "duration": 422, "velocity": 100}, {"time": 23038, "pitch": 64, "duration": 422, "velocity": 103}, {"time": 23159, "pitch": 36, "duration": 361, "velocity": 100}, {"time": 23520, "pitch": 36, "duration": 181, "velocity": 119}, {"time": 23520, "pitch": 55, "duration": 241, "velocity": 112}, {"time": 23520, "pitch": 59, "duration": 241, "velocity": 107}, {"time": 23520, "pitch": 64, "duration": 241, "velocity": 114}, {"time": 23761, "pitch": 36, "duration": 180, "velocity": 103}, {"time": 23881, "pitch": 55, "duration": 241, "velocity": 102}, {"time": 23881, "pitch": 59, "duration": 301, "velocity": 103}, {"time": 23881, "pitch": 64, "duration": 241, "velocity": 110}, {"time": 24122, "pitch": 36, "duration": 482, "velocity": 96}, {"time": 24242, "pitch": 55, "duration": 482, "velocity": 110}, {"time": 24242, "pitch": 59, "duration": 542, "velocity": 102}, {"time": 24242, "pitch": 64, "duration": 542, "velocity": 107}, {"time": 24724, "pitch": 36, "duration": 241, "velocity": 105}, {"time": 24965, "pitch": 55, "duration": 412, "velocity": 119}, {"time": 24965, "pitch": 59, "duration": 471, "velocity": 102}, {"time": 24965, "pitch": 64, "duration": 471, "velocity": 105}, {"time": 25083, "pitch": 36, "duration": 353, "velocity": 110}, {"time": 25436, "pitch": 40, "duration": 181, "velocity": 112}, {"time": 25436, "pitch": 55, "duration": 241, "velocity": 112}, {"time": 25436, "pitch": 59, "duration": 301, "velocity": 112}, {"time": 25436, "pitch": 64, "duration": 301, "velocity": 105}, {"time": 25677, "pitch": 40, "duration": 241, "velocity": 105}, {"time": 25797, "pitch": 55, "duration": 241, "velocity": 105}, {"time": 25797, "pitch": 59, "duration": 301, "velocity": 110}, {"time": 25797, "pitch": 64, "duration": 301, "velocity": 112}, {"time": 26038, "pitch": 40, "duration": 421, "velocity": 110}, {"time": 26158, "pitch": 55, "duration": 542, "velocity": 103}, {"time": 26158, "pitch": 59, "duration": 602, "velocity": 103}, {"time": 26158, "pitch": 64, "duration": 542, "velocity": 112}, {"time": 26640, "pitch": 40, "duration": 241, "velocity": 105}, {"time": 26881, "pitch": 40, "duration": 301, "velocity": 107}, {"time": 26881, "pitch": 55, "duration": 361, "velocity": 110}, {"time": 26881, "pitch": 59, "duration": 301, "velocity": 110}, {"time": 26881, "pitch": 64, "duration": 301, "velocity": 102}, {"time": 27242, "pitch": 38, "duration": 120, "velocity": 98}, {"time": 27362, "pitch": 54, "duration": 301, "velocity": 107}, {"time": 27362, "pitch": 57, "duration": 301, "velocity": 107}, {"time": 27362, "pitch": 62, "duration": 301, "velocity": 102}, {"time": 27603, "pitch": 38, "duration": 300, "velocity": 98}, {"time": 27724, "pitch": 54, "duration": 238, "velocity": 92}, {"time": 27724, "pitch": 57, "duration": 297, "velocity": 105}, {"time": 27724, "pitch": 62, "duration": 297, "velocity": 105}, {"time": 27962, "pitch": 38, "duration": 474, "velocity": 100}, {"time": 28080, "pitch": 54, "duration": 536, "velocity": 102}, {"time": 28080, "pitch": 57, "duration": 536, "velocity": 105}, {"time": 28080, "pitch": 62, "duration": 536, "velocity": 107}, {"time": 28556, "pitch": 38, "duration": 241, "velocity": 107}, {"time": 28797, "pitch": 54, "duration": 361, "velocity": 100}, {"time": 28797, "pitch": 57, "duration": 361, "velocity": 96}, {"time": 28797, "pitch": 62, "duration": 361, "velocity": 103}, {"time": 28917, "pitch": 38, "duration": 301, "velocity": 103}, {"time": 29158, "pitch": 36, "duration": 181, "velocity": 110}, {"time": 29278, "pitch": 55, "duration": 241, "velocity": 112}, {"time": 29278, "pitch": 59, "duration": 241, "velocity": 107}, {"time": 29278, "pitch": 64, "duration": 301, "velocity": 112}, {"time": 29519, "pitch": 36, "duration": 181, "velocity": 105}, {"time": 29640, "pitch": 55, "duration": 240, "velocity": 98}, {"time": 29640, "pitch": 59, "duration": 301, "velocity": 103}, {"time": 29640, "pitch": 64, "duration": 301, "velocity": 107}, {"time": 29880, "pitch": 36, "duration": 542, "velocity": 105}, {"time": 30001, "pitch": 55, "duration": 542, "velocity": 110}, {"time": 30001, "pitch": 59, "duration": 602, "velocity": 102}, {"time": 30001, "pitch": 64, "duration": 542, "velocity": 103}, {"time": 30482, "pitch": 36, "duration": 241, "velocity": 105}, {"time": 30723, "pitch": 55, "duration": 422, "velocity": 122}, {"time": 30723, "pitch": 59, "duration": 422, "velocity": 100}, {"time": 30723, "pitch": 64, "duration": 422, "velocity": 103}, {"time": 30844, "pitch": 36, "duration": 361, "velocity": 100}, {"time": 31205, "pitch": 36, "duration": 176, "velocity": 119}, {"time": 31205, "pitch": 55, "duration": 235, "velocity": 112}, {"time": 31205, "pitch": 59, "duration": 235, "velocity": 107}, {"time": 31205, "pitch": 64, "duration": 235, "velocity": 114}, {"time": 31440, "pitch": 36, "duration": 177, "velocity": 103}, {"time": 31558, "pitch": 55, "duration": 238, "velocity": 102}, {"time": 31558, "pitch": 59, "duration": 299, "velocity": 103}, {"time": 31558, "pitch": 64, "duration": 238, "velocity": 110}, {"time": 31796, "pitch": 36, "duration": 482, "velocity": 96}, {"time": 31917, "pitch": 55, "duration": 481, "velocity": 110}, {"time": 31917, "pitch": 59, "duration": 542, "velocity": 102}, {"time": 31917, "pitch": 64, "duration": 542, "velocity": 107}, {"time": 32398, "pitch": 36, "duration": 241, "velocity": 105}, {"time": 32639, "pitch": 55, "duration": 422, "velocity": 119}, {"time": 32639, "pitch": 59, "duration": 482, "velocity": 102}, {"time": 32639, "pitch": 64, "duration": 482, "velocity": 105}, {"time": 32760, "pitch": 36, "duration": 361, "velocity": 110}, {"time": 33121, "pitch": 40, "duration": 60, "velocity": 112}, {"time": 33121, "pitch": 55, "duration": 60, "velocity": 112}, {"time": 33121, "pitch": 59, "duration": 60, "velocity": 105}, {"time": 33121, "pitch": 62, "duration": 60, "velocity": 107}, {"time": 34796, "pitch": 40, "duration": 60, "velocity": 103}, {"time": 34796, "pitch": 55, "duration": 60, "velocity": 107}, {"time": 34796, "pitch": 59, "duration": 60, "velocity": 105}, {"time": 34796, "pitch": 62, "duration": 60, "velocity": 110}, {"time": 35278, "pitch": 40, "duration": 60, "velocity": 102}, {"time": 35278, "pitch": 55, "duration": 60, "velocity": 102}, {"time": 35278, "pitch": 59, "duration": 60, "velocity": 92}, {"time": 35278, "pitch": 62, "duration": 60, "velocity": 94}, {"time": 35639, "pitch": 40, "duration": 361, "velocity": 107}, {"time": 35639, "pitch": 55, "duration": 361, "velocity": 107}, {"time": 35639, "pitch": 59, "duration": 361, "velocity": 102}, {"time": 35639, "pitch": 62, "duration": 361, "velocity": 102}, {"time": 36241, "pitch": 40, "duration": 60, "velocity": 102}, {"time": 36241, "pitch": 55, "duration": 60, "velocity": 100}, {"time": 36241, "pitch": 59, "duration": 60, "velocity": 100}, {"time": 36241, "pitch": 62, "duration": 60, "velocity": 96}, {"time": 36602, "pitch": 38, "duration": 301, "velocity": 105}, {"time": 36602, "pitch": 54, "duration": 301, "velocity": 105}, {"time": 36602, "pitch": 57, "duration": 301, "velocity": 110}, {"time": 36602, "pitch": 62, "duration": 301, "velocity": 105}, {"time": 36963, "pitch": 40, "duration": 301, "velocity": 103}, {"time": 36963, "pitch": 55, "duration": 301, "velocity": 107}, {"time": 36963, "pitch": 59, "duration": 301, "velocity": 94}, {"time": 36963, "pitch": 62, "duration": 301, "velocity": 105}, {"time": 37324, "pitch": 40, "duration": 121, "velocity": 103}, {"time": 37324, "pitch": 55, "duration": 61, "velocity": 96}, {"time": 37324, "pitch": 59, "duration": 61, "velocity": 91}, {"time": 37324, "pitch": 62, "duration": 61, "velocity": 73}, {"time": 38638, "pitch": 40, "duration": 121, "velocity": 96}, {"time": 38638, "pitch": 55, "duration": 61, "velocity": 102}, {"time": 38638, "pitch": 59, "duration": 61, "velocity": 98}, {"time": 38638, "pitch": 62, "duration": 61, "velocity": 100}, {"time": 39120, "pitch": 40, "duration": 60, "velocity": 102}, {"time": 39120, "pitch": 55, "duration": 60, "velocity": 91}, {"time": 39120, "pitch": 59, "duration": 60, "velocity": 91}, {"time": 39120, "pitch": 62, "duration": 60, "velocity": 96}, {"time": 39481, "pitch": 40, "duration": 361, "velocity": 102}, {"time": 39481, "pitch": 55, "duration": 301, "velocity": 98}, {"time": 39481, "pitch": 59, "duration": 361, "velocity": 102}, {"time": 39481, "pitch": 62, "duration": 361, "velocity": 103}, {"time": 40083, "pitch": 40, "duration": 181, "velocity": 98}, {"time": 40083, "pitch": 55, "duration": 60, "velocity": 98}, {"time": 40083, "pitch": 59, "duration": 121, "velocity": 98}, {"time": 40083, "pitch": 62, "duration": 121, "velocity": 96}, {"time": 40442, "pitch": 38, "duration": 353, "velocity": 103}, {"time": 40442, "pitch": 54, "duration": 353, "velocity": 107}, {"time": 40442, "pitch": 57, "duration": 353, "velocity": 112}, {"time": 40442, "pitch": 62, "duration": 353, "velocity": 107}, {"time": 40795, "pitch": 40, "duration": 301, "velocity": 110}, {"time": 40795, "pitch": 55, "duration": 301, "velocity": 103}, {"time": 40795, "pitch": 59, "duration": 301, "velocity": 103}, {"time": 40795, "pitch": 62, "duration": 301, "velocity": 107}, {"time": 41156, "pitch": 40, "duration": 61, "velocity": 107}, {"time": 41156, "pitch": 55, "duration": 61, "velocity": 112}, {"time": 41156, "pitch": 59, "duration": 61, "velocity": 103}, {"time": 41156, "pitch": 62, "duration": 61, "velocity": 102}, {"time": 42481, "pitch": 40, "duration": 120, "velocity": 92}, {"time": 42481, "pitch": 55, "duration": 60, "velocity": 94}, {"time": 42481, "pitch": 59, "duration": 60, "velocity": 92}, {"time": 42481, "pitch": 62, "duration": 120, "velocity": 88}, {"time": 42962, "pitch": 40, "duration": 61, "velocity": 96}, {"time": 42962, "pitch": 55, "duration": 61, "velocity": 96}, {"time": 42962, "pitch": 59, "duration": 61, "velocity": 94}, {"time": 42962, "pitch": 62, "duration": 61, "velocity": 96}, {"time": 43324, "pitch": 40, "duration": 361, "velocity": 105}, {"time": 43324, "pitch": 55, "duration": 301, "velocity": 98}, {"time": 43324, "pitch": 59, "duration": 361, "velocity": 98}, {"time": 43324, "pitch": 62, "duration": 361, "velocity": 105}, {"time": 43920, "pitch": 40, "duration": 118, "velocity": 102}, {"time": 43920, "pitch": 55, "duration": 59, "velocity": 88}, {"time": 43920, "pitch": 59, "duration": 59, "velocity": 91}, {"time": 43920, "pitch": 62, "duration": 118, "velocity": 88}, {"time": 44276, "pitch": 38, "duration": 301, "velocity": 105}, {"time": 44276, "pitch": 54, "duration": 241, "velocity": 117}, {"time": 44276, "pitch": 57, "duration": 241, "velocity": 110}, {"time": 44276, "pitch": 62, "duration": 301, "velocity": 105}, {"time": 44638, "pitch": 40, "duration": 301, "velocity": 110}, {"time": 44638, "pitch": 55, "duration": 301, "velocity": 103}, {"time": 44638, "pitch": 59, "duration": 301, "velocity": 103}, {"time": 44638, "pitch": 62, "duration": 301, "velocity": 107}, {"time": 44999, "pitch": 40, "duration": 60, "velocity": 107}, {"time": 44999, "pitch": 55, "duration": 60, "velocity": 112}, {"time": 44999, "pitch": 59, "duration": 60, "velocity": 103}, {"time": 44999, "pitch": 62, "duration": 60, "velocity": 102}, {"time": 46323, "pitch": 40, "duration": 60, "velocity": 89}, {"time": 46323, "pitch": 55, "duration": 60, "velocity": 96}, {"time": 46323, "pitch": 59, "duration": 60, "velocity": 96}, {"time": 46323, "pitch": 62, "duration": 60, "velocity": 102}, {"time": 46800, "pitch": 40, "duration": 58, "velocity": 102}, {"time": 46800, "pitch": 55, "duration": 58, "velocity": 100}, {"time": 46800, "pitch": 59, "duration": 58, "velocity": 96}, {"time": 46800, "pitch": 62, "duration": 58, "velocity": 100}, {"time": 47156, "pitch": 40, "duration": 361, "velocity": 100}, {"time": 47156, "pitch": 55, "duration": 301, "velocity": 96}, {"time": 47156, "pitch": 59, "duration": 361, "velocity": 94}, {"time": 47156, "pitch": 62, "duration": 361, "velocity": 103}, {"time": 47758, "pitch": 40, "duration": 120, "velocity": 107}, {"time": 47758, "pitch": 55, "duration": 60, "velocity": 103}, {"time": 47758, "pitch": 59, "duration": 60, "velocity": 107}, {"time": 47758, "pitch": 62, "duration": 120, "velocity": 103}, {"time": 48119, "pitch": 38, "duration": 241, "velocity": 110}, {"time": 48119, "pitch": 54, "duration": 241, "velocity": 110}, {"time": 48119, "pitch": 57, "duration": 241, "velocity": 110}, {"time": 48119, "pitch": 62, "duration": 301, "velocity": 110}, {"time": 48480, "pitch": 40, "duration": 301, "velocity": 112}, {"time": 48480, "pitch": 55, "duration": 301, "velocity": 112}, {"time": 48480, "pitch": 59, "duration": 301, "velocity": 107}, {"time": 48480, "pitch": 62, "duration": 301, "velocity": 114}, {"time": 48841, "pitch": 40, "duration": 121, "velocity": 112}, {"time": 48841, "pitch": 55, "duration": 60, "velocity": 103}, {"time": 48841, "pitch": 59, "duration": 60, "velocity": 103}, {"time": 48841, "pitch": 62, "duration": 60, "velocity": 96}, {"time": 50160, "pitch": 40, "duration": 59, "velocity": 103}, {"time": 50160, "pitch": 55, "duration": 59, "velocity": 107}, {"time": 50160, "pitch": 59, "duration": 59, "velocity": 105}, {"time": 50160, "pitch": 62, "duration": 59, "velocity": 110}, {"time": 50637, "pitch": 40, "duration": 60, "velocity": 102}, {"time": 50637, "pitch": 55, "duration": 60, "velocity": 102}, {"time": 50637, "pitch": 59, "duration": 60, "velocity": 92}, {"time": 50637, "pitch": 62, "duration": 60, "velocity": 94}, {"time": 50998, "pitch": 40, "duration": 361, "velocity": 107}, {"time": 50998, "pitch": 55, "duration": 361, "velocity": 107}, {"time": 50998, "pitch": 59, "duration": 361, "velocity": 102}, {"time": 50998, "pitch": 62, "duration": 361, "velocity": 102}, {"time": 51600, "pitch": 40, "duration": 60, "velocity": 102}, {"time": 51600, "pitch": 55, "duration": 60, "velocity": 100}, {"time": 51600, "pitch": 59, "duration": 60, "velocity": 100}, {"time": 51600, "pitch": 62, "duration": 60, "velocity": 96}, {"time": 51961, "pitch": 38, "duration": 301, "velocity": 105}, {"time": 51961, "pitch": 54, "duration": 301, "velocity": 105}, {"time": 51961, "pitch": 57, "duration": 301, "velocity": 110}, {"time": 51961, "pitch": 62, "duration": 301, "velocity": 105}, {"time": 52322, "pitch": 40, "duration": 301, "velocity": 103}, {"time": 52322, "pitch": 55, "duration": 301, "velocity": 107}, {"time": 52322, "pitch": 59, "duration": 301, "velocity": 94}, {"time": 52322, "pitch": 62, "duration": 301, "velocity": 105}, {"time": 52684, "pitch": 40, "duration": 120, "velocity": 103}, {"time": 52684, "pitch": 55, "duration": 60, "velocity": 96}, {"time": 52684, "pitch": 59, "duration": 60, "velocity": 91}, {"time": 52684, "pitch": 62, "duration": 60, "velocity": 73}, {"time": 53998, "pitch": 40, "duration": 120, "velocity": 96}, {"time": 53998, "pitch": 55, "duration": 60, "velocity": 102}, {"time": 53998, "pitch": 59, "duration": 60, "velocity": 98}, {"time": 53998, "pitch": 62, "duration": 60, "velocity": 100}, {"time": 54479, "pitch": 40, "duration": 60, "velocity": 102}, {"time": 54479, "pitch": 55, "duration": 60, "velocity": 91}, {"time": 54479, "pitch": 59, "duration": 60, "velocity": 91}, {"time": 54479, "pitch": 62, "duration": 60, "velocity": 96}, {"time": 54840, "pitch": 40, "duration": 362, "velocity": 102}, {"time": 54840, "pitch": 55, "duration": 301, "velocity": 98}, {"time": 54840, "pitch": 59, "duration": 362, "velocity": 102}, {"time": 54840, "pitch": 62, "duration": 362, "velocity": 103}, {"time": 55442, "pitch": 40, "duration": 181, "velocity": 98}, {"time": 55442, "pitch": 55, "duration": 61, "velocity": 98}, {"time": 55442, "pitch": 59, "duration": 121, "velocity": 98}, {"time": 55442, "pitch": 62, "duration": 121, "velocity": 96}, {"time": 55804, "pitch": 38, "duration": 361, "velocity": 103}, {"time": 55804, "pitch": 54, "duration": 361, "velocity": 107}, {"time": 55804, "pitch": 57, "duration": 361, "velocity": 112}, {"time": 55804, "pitch": 62, "duration": 361, "velocity": 107}, {"time": 56165, "pitch": 40, "duration": 294, "velocity": 110}, {"time": 56165, "pitch": 55, "duration": 294, "velocity": 103}, {"time": 56165, "pitch": 59, "duration": 294, "velocity": 103}, {"time": 56165, "pitch": 62, "duration": 294, "velocity": 107}, {"time": 56518, "pitch": 40, "duration": 59, "velocity": 107}, {"time": 56518, "pitch": 55, "duration": 59, "velocity": 112}, {"time": 56518, "pitch": 59, "duration": 59, "velocity": 103}, {"time": 56518, "pitch": 62, "duration": 59, "velocity": 102}, {"time": 57840, "pitch": 40, "duration": 120, "velocity": 92}, {"time": 57840, "pitch": 55, "duration": 60, "velocity": 94}, {"time": 57840, "pitch": 59, "duration": 60, "velocity": 92}, {"time": 57840, "pitch": 62, "duration": 120, "velocity": 88}, {"time": 58322, "pitch": 40, "duration": 60, "velocity": 96}, {"time": 58322, "pitch": 55, "duration": 60, "velocity": 96}, {"time": 58322, "pitch": 59, "duration": 60, "velocity": 94}, {"time": 58322, "pitch": 62, "duration": 60, "velocity": 96}, {"time": 58683, "pitch": 40, "duration": 361, "velocity": 105}, {"time": 58683, "pitch": 55, "duration": 301, "velocity": 98}, {"time": 58683, "pitch": 59, "duration": 361, "velocity": 98}, {"time": 58683, "pitch": 62, "duration": 361, "velocity": 105}, {"time": 59280, "pitch": 40, "duration": 117, "velocity": 102}, {"time": 59280, "pitch": 55, "duration": 58, "velocity": 88}, {"time": 59280, "pitch": 59, "duration": 58, "velocity": 91}, {"time": 59280, "pitch": 62, "duration": 117, "velocity": 88}, {"time": 59636, "pitch": 38, "duration": 301, "velocity": 105}, {"time": 59636, "pitch": 54, "duration": 240, "velocity": 117}, {"time": 59636, "pitch": 57, "duration": 240, "velocity": 110}, {"time": 59636, "pitch": 62, "duration": 301, "velocity": 105}, {"time": 59997, "pitch": 40, "duration": 301, "velocity": 110}, {"time": 59997, "pitch": 55, "duration": 301, "velocity": 103}, {"time": 59997, "pitch": 59, "duration": 301, "velocity": 103}, {"time": 59997, "pitch": 62, "duration": 301, "velocity": 107}, {"time": 60358, "pitch": 40, "duration": 60, "velocity": 107}, {"time": 60358, "pitch": 55, "duration": 60, "velocity": 112}, {"time": 60358, "pitch": 59, "duration": 60, "velocity": 103}, {"time": 60358, "pitch": 62, "duration": 60, "velocity": 102}, {"time": 61682, "pitch": 40, "duration": 61, "velocity": 89}, {"time": 61682, "pitch": 55, "duration": 61, "velocity": 96}, {"time": 61682, "pitch": 59, "duration": 61, "velocity": 96}, {"time": 61682, "pitch": 62, "duration": 61, "velocity": 102}, {"time": 62164, "pitch": 40, "duration": 60, "velocity": 103}, {"time": 62164, "pitch": 55, "duration": 60, "velocity": 112}, {"time": 62164, "pitch": 59, "duration": 60, "velocity": 103}, {"time": 62164, "pitch": 62, "duration": 60, "velocity": 96}, {"time": 62522, "pitch": 40, "duration": 354, "velocity": 112}, {"time": 62522, "pitch": 55, "duration": 354, "velocity": 107}, {"time": 62522, "pitch": 59, "duration": 354, "velocity": 92}, {"time": 62522, "pitch": 62, "duration": 354, "velocity": 100}, {"time": 62876, "pitch": 40, "duration": 241, "velocity": 114}, {"time": 62876, "pitch": 55, "duration": 241, "velocity": 119}, {"time": 62876, "pitch": 59, "duration": 241, "velocity": 117}, {"time": 62876, "pitch": 62, "duration": 241, "velocity": 110}, {"time": 63117, "pitch": 40, "duration": 241, "velocity": 104}, {"time": 63117, "pitch": 55, "duration": 241, "velocity": 109}, {"time": 63117, "pitch": 59, "duration": 241, "velocity": 97}, {"time": 63117, "pitch": 62, "duration": 241, "velocity": 92}, {"time": 63478, "pitch": 40, "duration": 361, "velocity": 110}, {"time": 63478, "pitch": 55, "duration": 361, "velocity": 122}, {"time": 63478, "pitch": 59, "duration": 361, "velocity": 112}, {"time": 63478, "pitch": 62, "duration": 361, "velocity": 112}, {"time": 63839, "pitch": 36, "duration": 1681, "velocity": 105}, {"time": 63839, "pitch": 55, "duration": 241, "velocity": 112}, {"time": 63839, "pitch": 59, "duration": 241, "velocity": 107}, {"time": 63839, "pitch": 62, "duration": 241, "velocity": 110}, {"time": 64562, "pitch": 64, "duration": 301, "velocity": 112}, {"time": 64562, "pitch": 71, "duration": 361, "velocity": 112}, {"time": 65043, "pitch": 67, "duration": 181, "velocity": 98}, {"time": 65284, "pitch": 64, "duration": 118, "velocity": 102}, {"time": 65755, "pitch": 43, "duration": 121, "velocity": 103}, {"time": 65755, "pitch": 62, "duration": 241, "velocity": 112}, {"time": 65755, "pitch": 67, "duration": 301, "velocity": 112}, {"time": 65755, "pitch": 71, "duration": 241, "velocity": 112}, {"time": 65996, "pitch": 43, "duration": 602, "velocity": 96}, {"time": 66116, "pitch": 62, "duration": 241, "velocity": 102}, {"time": 66116, "pitch": 67, "duration": 241, "velocity": 107}, {"time": 66116, "pitch": 72, "duration": 181, "velocity": 107}, {"time": 66478, "pitch": 62, "duration": 301, "velocity": 103}, {"time": 66478, "pitch": 67, "duration": 240, "velocity": 98}, {"time": 66478, "pitch": 71, "duration": 301, "velocity": 112}, {"time": 66959, "pitch": 62, "duration": 121, "velocity": 92}, {"time": 66959, "pitch": 67, "duration": 241, "velocity": 110}, {"time": 67200, "pitch": 62, "duration": 241, "velocity": 105}, {"time": 67682, "pitch": 38, "duration": 180, "velocity": 100}, {"time": 67682, "pitch": 54, "duration": 180, "velocity": 107}, {"time": 67682, "pitch": 57, "duration": 240, "velocity": 110}, {"time": 67682, "pitch": 62, "duration": 240, "velocity": 110}, {"time": 68043, "pitch": 38, "duration": 120, "velocity": 76}, {"time": 68043, "pitch": 54, "duration": 60, "velocity": 98}, {"time": 68043, "pitch": 57, "duration": 120, "velocity": 100}, {"time": 68043, "pitch": 62, "duration": 120, "velocity": 100}, {"time": 68284, "pitch": 38, "duration": 773, "velocity": 84}, {"time": 68404, "pitch": 62, "duration": 300, "velocity": 100}, {"time": 68404, "pitch": 66, "duration": 300, "velocity": 91}, {"time": 68404, "pitch": 69, "duration": 241, "velocity": 98}, {"time": 68880, "pitch": 62, "duration": 356, "velocity": 107}, {"time": 68880, "pitch": 66, "duration": 296, "velocity": 92}, {"time": 68880, "pitch": 69, "duration": 356, "velocity": 98}, {"time": 69357, "pitch": 38, "duration": 180, "velocity": 98}, {"time": 69598, "pitch": 40, "duration": 301, "velocity": 103}, {"time": 69598, "pitch": 59, "duration": 240, "velocity": 105}, {"time": 69598, "pitch": 64, "duration": 240, "velocity": 110}, {"time": 69598, "pitch": 67, "duration": 240, "velocity": 105}, {"time": 69959, "pitch": 59, "duration": 60, "velocity": 96}, {"time": 69959, "pitch": 64, "duration": 60, "velocity": 107}, {"time": 69959, "pitch": 67, "duration": 120, "velocity": 100}, {"time": 70079, "pitch": 40, "duration": 121, "velocity": 100}, {"time": 70320, "pitch": 40, "duration": 903, "velocity": 107}, {"time": 70320, "pitch": 64, "duration": 301, "velocity": 114}, {"time": 70320, "pitch": 67, "duration": 241, "velocity": 107}, {"time": 70320, "pitch": 71, "duration": 241, "velocity": 117}, {"time": 70802, "pitch": 64, "duration": 120, "velocity": 102}, {"time": 70802, "pitch": 67, "duration": 120, "velocity": 100}, {"time": 70802, "pitch": 72, "duration": 120, "velocity": 107}, {"time": 71042, "pitch": 64, "duration": 181, "velocity": 105}, {"time": 71042, "pitch": 67, "duration": 121, "velocity": 98}, {"time": 71042, "pitch": 74, "duration": 181, "velocity": 112}, {"time": 71524, "pitch": 36, "duration": 236, "velocity": 110}, {"time": 71524, "pitch": 64, "duration": 177, "velocity": 105}, {"time": 71524, "pitch": 67, "duration": 177, "velocity": 110}, {"time": 71524, "pitch": 71, "duration": 236, "velocity": 110}, {"time": 71760, "pitch": 43, "duration": 235, "velocity": 100}, {"time": 71995, "pitch": 48, "duration": 121, "velocity": 96}, {"time": 72241, "pitch": 76, "duration": 124, "velocity": 100}, {"time": 72271, "pitch": 79, "duration": 66, "velocity": 109}, {"time": 72290, "pitch": 83, "duration": 374, "velocity": 114}, {"time": 72718, "pitch": 79, "duration": 180, "velocity": 114}, {"time": 72958, "pitch": 76, "duration": 121, "velocity": 102}, {"time": 73199, "pitch": 67, "duration": 60, "velocity": 98}, {"time": 73440, "pitch": 43, "duration": 120, "velocity": 98}, {"time": 73440, "pitch": 62, "duration": 241, "velocity": 112}, {"time": 73440, "pitch": 67, "duration": 241, "velocity": 107}, {"time": 73440, "pitch": 71, "duration": 301, "velocity": 110}, {"time": 73681, "pitch": 43, "duration": 120, "velocity": 91}, {"time": 73801, "pitch": 62, "duration": 181, "velocity": 107}, {"time": 73801, "pitch": 67, "duration": 241, "velocity": 100}, {"time": 73801, "pitch": 72, "duration": 181, "velocity": 107}, {"time": 74042, "pitch": 43, "duration": 120, "velocity": 94}, {"time": 74162, "pitch": 62, "duration": 362, "velocity": 102}, {"time": 74162, "pitch": 67, "duration": 301, "velocity": 94}, {"time": 74162, "pitch": 74, "duration": 241, "velocity": 112}, {"time": 74524, "pitch": 43, "duration": 60, "velocity": 40}, {"time": 74644, "pitch": 62, "duration": 181, "velocity": 107}, {"time": 74644, "pitch": 67, "duration": 181, "velocity": 61}, {"time": 74644, "pitch": 71, "duration": 181, "velocity": 100}, {"time": 74885, "pitch": 62, "duration": 412, "velocity": 98}, {"time": 74885, "pitch": 67, "duration": 412, "velocity": 102}, {"time": 75120, "pitch": 43, "duration": 177, "velocity": 92}, {"time": 75356, "pitch": 45, "duration": 181, "velocity": 114}, {"time": 75356, "pitch": 61, "duration": 241, "velocity": 107}, {"time": 75356, "pitch": 64, "duration": 241, "velocity": 105}, {"time": 75356, "pitch": 69, "duration": 241, "velocity": 103}, {"time": 75597, "pitch": 45, "duration": 602, "velocity": 117}, {"time": 75717, "pitch": 61, "duration": 241, "velocity": 94}, {"time": 75717, "pitch": 64, "duration": 241, "velocity": 107}, {"time": 75717, "pitch": 69, "duration": 241, "velocity": 94}, {"time": 76078, "pitch": 61, "duration": 482, "velocity": 103}, {"time": 76078, "pitch": 64, "duration": 542, "velocity": 114}, {"time": 76078, "pitch": 69, "duration": 422, "velocity": 102}, {"time": 76560, "pitch": 45, "duration": 301, "velocity": 94}, {"time": 76801, "pitch": 61, "duration": 301, "velocity": 103}, {"time": 76801, "pitch": 64, "duration": 301, "velocity": 105}, {"time": 76801, "pitch": 69, "duration": 301, "velocity": 100}, {"time": 77042, "pitch": 45, "duration": 120, "velocity": 76}, {"time": 77282, "pitch": 47, "duration": 422, "velocity": 112}, {"time": 77282, "pitch": 59, "duration": 181, "velocity": 107}, {"time": 77282, "pitch": 64, "duration": 181, "velocity": 107}, {"time": 77282, "pitch": 66, "duration": 241, "velocity": 107}, {"time": 77644, "pitch": 59, "duration": 120, "velocity": 105}, {"time": 77644, "pitch": 64, "duration": 120, "velocity": 98}, {"time": 77644, "pitch": 66, "duration": 120, "velocity": 107}, {"time": 77764, "pitch": 47, "duration": 953, "velocity": 96}, {"time": 78000, "pitch": 59, "duration": 295, "velocity": 114}, {"time": 78000, "pitch": 64, "duration": 295, "velocity": 110}, {"time": 78000, "pitch": 66, "duration": 295, "velocity": 85}, {"time": 78000, "pitch": 69, "duration": 235, "velocity": 105}, {"time": 78476, "pitch": 59, "duration": 60, "velocity": 92}, {"time": 78476, "pitch": 64, "duration": 120, "velocity": 91}, {"time": 78476, "pitch": 66, "duration": 120, "velocity": 80}, {"time": 78476, "pitch": 69, "duration": 120, "velocity": 85}, {"time": 78717, "pitch": 59, "duration": 180, "velocity": 107}, {"time": 78717, "pitch": 64, "duration": 180, "velocity": 100}, {"time": 78717, "pitch": 66, "duration": 180, "velocity": 102}, {"time": 78717, "pitch": 69, "duration": 180, "velocity": 98}, {"time": 78958, "pitch": 47, "duration": 60, "velocity": 94}, {"time": 79198, "pitch": 47, "duration": 241, "velocity": 117}, {"time": 79198, "pitch": 59, "duration": 241, "velocity": 119}, {"time": 79198, "pitch": 63, "duration": 241, "velocity": 103}, {"time": 79198, "pitch": 66, "duration": 241, "velocity": 103}, {"time": 79198, "pitch": 71, "duration": 241, "velocity": 107}, {"time": 81125, "pitch": 40, "duration": 117, "velocity": 100}, {"time": 81125, "pitch": 59, "duration": 235, "velocity": 110}, {"time": 81125, "pitch": 64, "duration": 235, "velocity": 110}, {"time": 81125, "pitch": 67, "duration": 235, "velocity": 105}, {"time": 81360, "pitch": 40, "duration": 177, "velocity": 94}, {"time": 81478, "pitch": 59, "duration": 238, "velocity": 102}, {"time": 81478, "pitch": 64, "duration": 238, "velocity": 105}, {"time": 81478, "pitch": 67, "duration": 238, "velocity": 102}, {"time": 81716, "pitch": 40, "duration": 422, "velocity": 102}, {"time": 81837, "pitch": 59, "duration": 542, "velocity": 105}, {"time": 81837, "pitch": 64, "duration": 542, "velocity": 112}, {"time": 81837, "pitch": 67, "duration": 542, "velocity": 102}, {"time": 82318, "pitch": 40, "duration": 241, "velocity": 98}, {"time": 82559, "pitch": 59, "duration": 361, "velocity": 105}, {"time": 82559, "pitch": 64, "duration": 361, "velocity": 105}, {"time": 82559, "pitch": 67, "duration": 482, "velocity": 102}, {"time": 82680, "pitch": 40, "duration": 361, "velocity": 94}, {"time": 83041, "pitch": 38, "duration": 120, "velocity": 98}, {"time": 83041, "pitch": 57, "duration": 241, "velocity": 102}, {"time": 83041, "pitch": 62, "duration": 241, "velocity": 107}, {"time": 83041, "pitch": 67, "duration": 241, "velocity": 103}, {"time": 83282, "pitch": 38, "duration": 180, "velocity": 85}, {"time": 83402, "pitch": 57, "duration": 241, "velocity": 102}, {"time": 83402, "pitch": 62, "duration": 241, "velocity": 105}, {"time": 83402, "pitch": 67, "duration": 241, "velocity": 98}, {"time": 83643, "pitch": 38, "duration": 420, "velocity": 92}, {"time": 83763, "pitch": 57, "duration": 535, "velocity": 107}, {"time": 83763, "pitch": 62, "duration": 535, "velocity": 105}, {"time": 83763, "pitch": 66, "duration": 535, "velocity": 88}, {"time": 84240, "pitch": 38, "duration": 235, "velocity": 100}, {"time": 84475, "pitch": 57, "duration": 422, "velocity": 110}, {"time": 84475, "pitch": 62, "duration": 422, "velocity": 100}, {"time": 84475, "pitch": 66, "duration": 482, "velocity": 105}, {"time": 84595, "pitch": 38, "duration": 362, "velocity": 86}, {"time": 84957, "pitch": 36, "duration": 120, "velocity": 100}, {"time": 84957, "pitch": 59, "duration": 241, "velocity": 110}, {"time": 84957, "pitch": 64, "duration": 241, "velocity": 110}, {"time": 84957, "pitch": 67, "duration": 241, "velocity": 105}, {"time": 85198, "pitch": 36, "duration": 180, "velocity": 94}, {"time": 85318, "pitch": 59, "duration": 241, "velocity": 102}, {"time": 85318, "pitch": 64, "duration": 241, "velocity": 105}, {"time": 85318, "pitch": 67, "duration": 241, "velocity": 102}, {"time": 85559, "pitch": 36, "duration": 421, "velocity": 102}, {"time": 85679, "pitch": 59, "duration": 542, "velocity": 105}, {"time": 85679, "pitch": 64, "duration": 542, "velocity": 112}, {"time": 85679, "pitch": 67, "duration": 542, "velocity": 102}, {"time": 86161, "pitch": 36, "duration": 241, "velocity": 98}, {"time": 86402, "pitch": 59, "duration": 361, "velocity": 105}, {"time": 86402, "pitch": 64, "duration": 361, "velocity": 105}, {"time": 86402, "pitch": 67, "duration": 481, "velocity": 102}, {"time": 86522, "pitch": 36, "duration": 361, "velocity": 94}, {"time": 86883, "pitch": 43, "duration": 181, "velocity": 107}, {"time": 86883, "pitch": 57, "duration": 241, "velocity": 114}, {"time": 86883, "pitch": 62, "duration": 301, "velocity": 114}, {"time": 86883, "pitch": 67, "duration": 301, "velocity": 110}, {"time": 87124, "pitch": 43, "duration": 241, "velocity": 98}, {"time": 87244, "pitch": 59, "duration": 238, "velocity": 107}, {"time": 87244, "pitch": 62, "duration": 238, "velocity": 114}, {"time": 87244, "pitch": 67, "duration": 238, "velocity": 117}, {"time": 87482, "pitch": 43, "duration": 295, "velocity": 83}, {"time": 87600, "pitch": 57, "duration": 356, "velocity": 119}, {"time": 87600, "pitch": 62, "duration": 416, "velocity": 100}, {"time": 87600, "pitch": 67, "duration": 356, "velocity": 103}, {"time": 87836, "pitch": 43, "duration": 120, "velocity": 66}, {"time": 88077, "pitch": 43, "duration": 60, "velocity": 102}, {"time": 88077, "pitch": 59, "duration": 60, "velocity": 110}, {"time": 88077, "pitch": 62, "duration": 60, "velocity": 100}, {"time": 88077, "pitch": 67, "duration": 60, "velocity": 119}, {"time": 88318, "pitch": 43, "duration": 240, "velocity": 91}, {"time": 88318, "pitch": 59, "duration": 421, "velocity": 102}, {"time": 88318, "pitch": 62, "duration": 421, "velocity": 98}, {"time": 88318, "pitch": 67, "duration": 421, "velocity": 100}, {"time": 88558, "pitch": 43, "duration": 121, "velocity": 100}, {"time": 88679, "pitch": 44, "duration": 120, "velocity": 100}, {"time": 88799, "pitch": 45, "duration": 121, "velocity": 100}, {"time": 88799, "pitch": 55, "duration": 241, "velocity": 110}, {"time": 88799, "pitch": 60, "duration": 241, "velocity": 110}, {"time": 88799, "pitch": 64, "duration": 241, "velocity": 105}, {"time": 89040, "pitch": 45, "duration": 181, "velocity": 94}, {"time": 89160, "pitch": 55, "duration": 241, "velocity": 102}, {"time": 89160, "pitch": 60, "duration": 241, "velocity": 105}, {"time": 89160, "pitch": 64, "duration": 241, "velocity": 102}, {"time": 89401, "pitch": 45, "duration": 422, "velocity": 102}, {"time": 89522, "pitch": 55, "duration": 541, "velocity": 105}, {"time": 89522, "pitch": 60, "duration": 541, "velocity": 112}, {"time": 89522, "pitch": 64, "duration": 541, "velocity": 102}, {"time": 90003, "pitch": 45, "duration": 241, "velocity": 98}, {"time": 90244, "pitch": 55, "duration": 353, "velocity": 105}, {"time": 90244, "pitch": 60, "duration": 353, "velocity": 105}, {"time": 90244, "pitch": 64, "duration": 471, "velocity": 102}, {"time": 90362, "pitch": 45, "duration": 353, "velocity": 94}, {"time": 90715, "pitch": 43, "duration": 120, "velocity": 98}, {"time": 90715, "pitch": 59, "duration": 241, "velocity": 102}, {"time": 90715, "pitch": 62, "duration": 241, "velocity": 107}, {"time": 90715, "pitch": 67, "duration": 241, "velocity": 103}, {"time": 90956, "pitch": 43, "duration": 180, "velocity": 85}, {"time": 91076, "pitch": 59, "duration": 241, "velocity": 102}, {"time": 91076, "pitch": 62, "duration": 241, "velocity": 105}, {"time": 91076, "pitch": 67, "duration": 241, "velocity": 98}, {"time": 91317, "pitch": 43, "duration": 422, "velocity": 92}, {"time": 91437, "pitch": 59, "duration": 542, "velocity": 107}, {"time": 91437, "pitch": 62, "duration": 542, "velocity": 105}, {"time": 91437, "pitch": 67, "duration": 542, "velocity": 88}, {"time": 91919, "pitch": 43, "duration": 241, "velocity": 100}, {"time": 92160, "pitch": 59, "duration": 421, "velocity": 110}, {"time": 92160, "pitch": 62, "duration": 421, "velocity": 100}, {"time": 92160, "pitch": 67, "duration": 482, "velocity": 105}, {"time": 92280, "pitch": 43, "duration": 121, "velocity": 86}, {"time": 92401, "pitch": 43, "duration": 120, "velocity": 100}, {"time": 92521, "pitch": 44, "duration": 121, "velocity": 100}, {"time": 92642, "pitch": 45, "duration": 120, "velocity": 100}, {"time": 92642, "pitch": 55, "duration": 240, "velocity": 110}, {"time": 92642, "pitch": 60, "duration": 240, "velocity": 110}, {"time": 92642, "pitch": 64, "duration": 240, "velocity": 105}, {"time": 92882, "pitch": 45, "duration": 181, "velocity": 94}, {"time": 93003, "pitch": 55, "duration": 241, "velocity": 102}, {"time": 93003, "pitch": 60, "duration": 241, "velocity": 105}, {"time": 93003, "pitch": 64, "duration": 241, "velocity": 102}, {"time": 93244, "pitch": 45, "duration": 420, "velocity": 102}, {"time": 93364, "pitch": 55, "duration": 535, "velocity": 105}, {"time": 93364, "pitch": 60, "duration": 535, "velocity": 112}, {"time": 93364, "pitch": 64, "duration": 535, "velocity": 102}, {"time": 93840, "pitch": 45, "duration": 236, "velocity": 98}, {"time": 94076, "pitch": 55, "duration": 361, "velocity": 105}, {"time": 94076, "pitch": 60, "duration": 361, "velocity": 105}, {"time": 94076, "pitch": 64, "duration": 481, "velocity": 102}, {"time": 94196, "pitch": 45, "duration": 121, "velocity": 94}, {"time": 94317, "pitch": 45, "duration": 120, "velocity": 100}, {"time": 94437, "pitch": 46, "duration": 120, "velocity": 100}, {"time": 94557, "pitch": 47, "duration": 241, "velocity": 107}, {"time": 94557, "pitch": 59, "duration": 301, "velocity": 103}, {"time": 94557, "pitch": 64, "duration": 301, "velocity": 110}, {"time": 94557, "pitch": 66, "duration": 301, "velocity": 91}, {"time": 94557, "pitch": 69, "duration": 301, "velocity": 91}, {"time": 94919, "pitch": 47, "duration": 301, "velocity": 94}, {"time": 94919, "pitch": 59, "duration": 301, "velocity": 88}, {"time": 94919, "pitch": 64, "duration": 301, "velocity": 107}, {"time": 94919, "pitch": 66, "duration": 361, "velocity": 86}, {"time": 94919, "pitch": 69, "duration": 361, "velocity": 86}, {"time": 95280, "pitch": 47, "duration": 361, "velocity": 103}, {"time": 95280, "pitch": 59, "duration": 361, "velocity": 110}, {"time": 95280, "pitch": 63, "duration": 361, "velocity": 103}, {"time": 95280, "pitch": 66, "duration": 361, "velocity": 88}, {"time": 95280, "pitch": 69, "duration": 361, "velocity": 102}, {"time": 95762, "pitch": 47, "duration": 60, "velocity": 102}, {"time": 95762, "pitch": 59, "duration": 60, "velocity": 102}, {"time": 95762, "pitch": 63, "duration": 60, "velocity": 102}, {"time": 95762, "pitch": 66, "duration": 60, "velocity": 88}, {"time": 95762, "pitch": 69, "duration": 60, "velocity": 80}, {"time": 96002, "pitch": 47, "duration": 61, "velocity": 76}, {"time": 96002, "pitch": 59, "duration": 61, "velocity": 102}, {"time": 96002, "pitch": 63, "duration": 61, "velocity": 88}, {"time": 96002, "pitch": 66, "duration": 61, "velocity": 72}, {"time": 96002, "pitch": 69, "duration": 61, "velocity": 87}, {"time": 96123, "pitch": 47, "duration": 361, "velocity": 106}, {"time": 96123, "pitch": 59, "duration": 361, "velocity": 104}, {"time": 96123, "pitch": 63, "duration": 361, "velocity": 113}, {"time": 96123, "pitch": 66, "duration": 361, "velocity": 106}, {"time": 96123, "pitch": 69, "duration": 361, "velocity": 111}, {"time": 96484, "pitch": 40, "duration": 118, "velocity": 100}, {"time": 96484, "pitch": 59, "duration": 236, "velocity": 110}, {"time": 96484, "pitch": 64, "duration": 236, "velocity": 110}, {"time": 96484, "pitch": 67, "duration": 236, "velocity": 105}, {"time": 96720, "pitch": 40, "duration": 176, "velocity": 94}, {"time": 96837, "pitch": 59, "duration": 238, "velocity": 102}, {"time": 96837, "pitch": 64, "duration": 238, "velocity": 105}, {"time": 96837, "pitch": 67, "duration": 238, "velocity": 102}, {"time": 97075, "pitch": 40, "duration": 422, "velocity": 102}, {"time": 97196, "pitch": 59, "duration": 542, "velocity": 105}, {"time": 97196, "pitch": 64, "duration": 542, "velocity": 112}, {"time": 97196, "pitch": 67, "duration": 542, "velocity": 102}, {"time": 97677, "pitch": 40, "duration": 241, "velocity": 98}, {"time": 97918, "pitch": 59, "duration": 361, "velocity": 105}, {"time": 97918, "pitch": 64, "duration": 361, "velocity": 105}, {"time": 97918, "pitch": 67, "duration": 482, "velocity": 102}, {"time": 98039, "pitch": 40, "duration": 361, "velocity": 94}, {"time": 98400, "pitch": 38, "duration": 120, "velocity": 98}, {"time": 98400, "pitch": 57, "duration": 241, "velocity": 102}, {"time": 98400, "pitch": 62, "duration": 241, "velocity": 107}, {"time": 98400, "pitch": 67, "duration": 241, "velocity": 103}, {"time": 98641, "pitch": 38, "duration": 180, "velocity": 85}, {"time": 98761, "pitch": 57, "duration": 241, "velocity": 102}, {"time": 98761, "pitch": 62, "duration": 241, "velocity": 105}, {"time": 98761, "pitch": 67, "duration": 241, "velocity": 98}, {"time": 99002, "pitch": 38, "duration": 421, "velocity": 92}, {"time": 99122, "pitch": 57, "duration": 542, "velocity": 107}, {"time": 99122, "pitch": 62, "duration": 542, "velocity": 105}, {"time": 99122, "pitch": 66, "duration": 542, "velocity": 88}, {"time": 99604, "pitch": 38, "duration": 241, "velocity": 100}, {"time": 99845, "pitch": 57, "duration": 412, "velocity": 110}, {"time": 99845, "pitch": 62, "duration": 412, "velocity": 100}, {"time": 99845, "pitch": 66, "duration": 471, "velocity": 105}, {"time": 99962, "pitch": 38, "duration": 354, "velocity": 86}, {"time": 100316, "pitch": 36, "duration": 120, "velocity": 100}, {"time": 100316, "pitch": 59, "duration": 241, "velocity": 110}, {"time": 100316, "pitch": 64, "duration": 241, "velocity": 110}, {"time": 100316, "pitch": 67, "duration": 241, "velocity": 105}, {"time": 100557, "pitch": 36, "duration": 180, "velocity": 94}, {"time": 100677, "pitch": 59, "duration": 241, "velocity": 102}, {"time": 100677, "pitch": 64, "duration": 241, "velocity": 105}, {"time": 100677, "pitch": 67, "duration": 241, "velocity": 102}, {"time": 100918, "pitch": 36, "duration": 421, "velocity": 102}, {"time": 101038, "pitch": 59, "duration": 542, "velocity": 105}, {"time": 101038, "pitch": 64, "duration": 542, "velocity": 112}, {"time": 101038, "pitch": 67, "duration": 542, "velocity": 102}, {"time": 101520, "pitch": 36, "duration": 241, "velocity": 98}, {"time": 101761, "pitch": 59, "duration": 361, "velocity": 105}, {"time": 101761, "pitch": 64, "duration": 361, "velocity": 105}, {"time": 101761, "pitch": 67, "duration": 481, "velocity": 102}, {"time": 101881, "pitch": 36, "duration": 361, "velocity": 94}, {"time": 102242, "pitch": 43, "duration": 181, "velocity": 107}, {"time": 102242, "pitch": 57, "duration": 241, "velocity": 114}, {"time": 102242, "pitch": 62, "duration": 301, "velocity": 114}, {"time": 102242, "pitch": 67, "duration": 301, "velocity": 110}, {"time": 102483, "pitch": 43, "duration": 241, "velocity": 98}, {"time": 102604, "pitch": 59, "duration": 238, "velocity": 107}, {"time": 102604, "pitch": 62, "duration": 238, "velocity": 114}, {"time": 102604, "pitch": 67, "duration": 238, "velocity": 117}, {"time": 102842, "pitch": 43, "duration": 294, "velocity": 83}, {"time": 102960, "pitch": 57, "duration": 355, "velocity": 119}, {"time": 102960, "pitch": 62, "duration": 416, "velocity": 100}, {"time": 102960, "pitch": 67, "duration": 355, "velocity": 103}, {"time": 103195, "pitch": 43, "duration": 120, "velocity": 66}, {"time": 103436, "pitch": 43, "duration": 60, "velocity": 102}, {"time": 103436, "pitch": 59, "duration": 60, "velocity": 110}, {"time": 103436, "pitch": 62, "duration": 60, "velocity": 100}, {"time": 103436, "pitch": 67, "duration": 60, "velocity": 119}, {"time": 103677, "pitch": 43, "duration": 240, "velocity": 91}, {"time": 103677, "pitch": 59, "duration": 421, "velocity": 102}, {"time": 103677, "pitch": 62, "duration": 421, "velocity": 98}, {"time": 103677, "pitch": 67, "duration": 421, "velocity": 100}, {"time": 103917, "pitch": 43, "duration": 121, "velocity": 100}, {"time": 104038, "pitch": 44, "duration": 120, "velocity": 100}, {"time": 104158, "pitch": 45, "duration": 121, "velocity": 100}, {"time": 104158, "pitch": 55, "duration": 241, "velocity": 110}, {"time": 104158, "pitch": 60, "duration": 241, "velocity": 110}, {"time": 104158, "pitch": 64, "duration": 241, "velocity": 105}, {"time": 104399, "pitch": 45, "duration": 181, "velocity": 94}, {"time": 104519, "pitch": 55, "duration": 241, "velocity": 102}, {"time": 104519, "pitch": 60, "duration": 241, "velocity": 105}, {"time": 104519, "pitch": 64, "duration": 241, "velocity": 102}, {"time": 104760, "pitch": 45, "duration": 422, "velocity": 102}, {"time": 104881, "pitch": 55, "duration": 542, "velocity": 105}, {"time": 104881, "pitch": 60, "duration": 542, "velocity": 112}, {"time": 104881, "pitch": 64, "duration": 542, "velocity": 102}, {"time": 105362, "pitch": 45, "duration": 241, "velocity": 98}, {"time": 105603, "pitch": 55, "duration": 361, "velocity": 105}, {"time": 105603, "pitch": 60, "duration": 361, "velocity": 105}, {"time": 105603, "pitch": 64, "duration": 482, "velocity": 102}, {"time": 105724, "pitch": 45, "duration": 361, "velocity": 94}, {"time": 106085, "pitch": 43, "duration": 117, "velocity": 98}, {"time": 106085, "pitch": 59, "duration": 235, "velocity": 102}, {"time": 106085, "pitch": 62, "duration": 235, "velocity": 107}, {"time": 106085, "pitch": 67, "duration": 235, "velocity": 103}, {"time": 106320, "pitch": 43, "duration": 177, "velocity": 85}, {"time": 106438, "pitch": 59, "duration": 238, "velocity": 102}, {"time": 106438, "pitch": 62, "duration": 238, "velocity": 105}, {"time": 106438, "pitch": 67, "duration": 238, "velocity": 98}, {"time": 106676, "pitch": 43, "duration": 422, "velocity": 92}, {"time": 106797, "pitch": 59, "duration": 541, "velocity": 107}, {"time": 106797, "pitch": 62, "duration": 541, "velocity": 105}, {"time": 106797, "pitch": 67, "duration": 541, "velocity": 88}, {"time": 107278, "pitch": 43, "duration": 241, "velocity": 100}, {"time": 107519, "pitch": 59, "duration": 421, "velocity": 110}, {"time": 107519, "pitch": 62, "duration": 421, "velocity": 100}, {"time": 107519, "pitch": 67, "duration": 482, "velocity": 105}, {"time": 107639, "pitch": 43, "duration": 121, "velocity": 86}, {"time": 107760, "pitch": 43, "duration": 120, "velocity": 100}, {"time": 107880, "pitch": 44, "duration": 121, "velocity": 100}, {"time": 108001, "pitch": 45, "duration": 120, "velocity": 100}, {"time": 108001, "pitch": 55, "duration": 240, "velocity": 110}, {"time": 108001, "pitch": 60, "duration": 240, "velocity": 110}, {"time": 108001, "pitch": 64, "duration": 240, "velocity": 105}, {"time": 108241, "pitch": 45, "duration": 181, "velocity": 94}, {"time": 108362, "pitch": 55, "duration": 241, "velocity": 102}, {"time": 108362, "pitch": 60, "duration": 241, "velocity": 105}, {"time": 108362, "pitch": 64, "duration": 241, "velocity": 102}, {"time": 108603, "pitch": 45, "duration": 420, "velocity": 102}, {"time": 108723, "pitch": 55, "duration": 535, "velocity": 105}, {"time": 108723, "pitch": 60, "duration": 535, "velocity": 112}, {"time": 108723, "pitch": 64, "duration": 535, "velocity": 102}, {"time": 109199, "pitch": 45, "duration": 236, "velocity": 98}, {"time": 109435, "pitch": 55, "duration": 361, "velocity": 105}, {"time": 109435, "pitch": 60, "duration": 361, "velocity": 105}, {"time": 109435, "pitch": 64, "duration": 482, "velocity": 102}, {"time": 109555, "pitch": 45, "duration": 121, "velocity": 94}, {"time": 109676, "pitch": 45, "duration": 120, "velocity": 100}, {"time": 109796, "pitch": 45, "duration": 121, "velocity": 100}, {"time": 109917, "pitch": 50, "duration": 240, "velocity": 107}, {"time": 109917, "pitch": 54, "duration": 301, "velocity": 103}, {"time": 109917, "pitch": 57, "duration": 301, "velocity": 110}, {"time": 109917, "pitch": 62, "duration": 301, "velocity": 91}, {"time": 110278, "pitch": 50, "duration": 301, "velocity": 94}, {"time": 110278, "pitch": 54, "duration": 301, "velocity": 88}, {"time": 110278, "pitch": 57, "duration": 301, "velocity": 107}, {"time": 110278, "pitch": 62, "duration": 361, "velocity": 86}, {"time": 110639, "pitch": 50, "duration": 361, "velocity": 103}, {"time": 110639, "pitch": 54, "duration": 361, "velocity": 110}, {"time": 110639, "pitch": 57, "duration": 361, "velocity": 103}, {"time": 110639, "pitch": 62, "duration": 361, "velocity": 102}, {"time": 111121, "pitch": 50, "duration": 60, "velocity": 102}, {"time": 111121, "pitch": 54, "duration": 60, "velocity": 102}, {"time": 111121, "pitch": 57, "duration": 60, "velocity": 102}, {"time": 111121, "pitch": 62, "duration": 60, "velocity": 80}, {"time": 111361, "pitch": 50, "duration": 61, "velocity": 76}, {"time": 111361, "pitch": 54, "duration": 61, "velocity": 102}, {"time": 111361, "pitch": 57, "duration": 61, "velocity": 88}, {"time": 111361, "pitch": 62, "duration": 61, "velocity": 87}, {"time": 111482, "pitch": 50, "duration": 361, "velocity": 106}, {"time": 111482, "pitch": 54, "duration": 361, "velocity": 104}, {"time": 111482, "pitch": 57, "duration": 361, "velocity": 113}, {"time": 111482, "pitch": 62, "duration": 361, "velocity": 111}, {"time": 111843, "pitch": 36, "duration": 541, "velocity": 110}, {"time": 111843, "pitch": 55, "duration": 599, "velocity": 114}, {"time": 111843, "pitch": 59, "duration": 599, "velocity": 107}, {"time": 111843, "pitch": 64, "duration": 599, "velocity": 112}, {"time": 112796, "pitch": 59, "duration": 60, "velocity": 105}, {"time": 112796, "pitch": 64, "duration": 60, "velocity": 100}, {"time": 112796, "pitch": 67, "duration": 120, "velocity": 102}, {"time": 113759, "pitch": 64, "duration": 181, "velocity": 114}, {"time": 113759, "pitch": 71, "duration": 241, "velocity": 117}, {"time": 114120, "pitch": 64, "duration": 241, "velocity": 110}, {"time": 114120, "pitch": 67, "duration": 181, "velocity": 112}, {"time": 114481, "pitch": 59, "duration": 241, "velocity": 107}, {"time": 114481, "pitch": 64, "duration": 301, "velocity": 110}, {"time": 114963, "pitch": 59, "duration": 60, "velocity": 83}, {"time": 114963, "pitch": 64, "duration": 60, "velocity": 85}, {"time": 115204, "pitch": 59, "duration": 59, "velocity": 102}, {"time": 115204, "pitch": 64, "duration": 59, "velocity": 111}, {"time": 115322, "pitch": 59, "duration": 117, "velocity": 110}, {"time": 115322, "pitch": 64, "duration": 117, "velocity": 122}, {"time": 115675, "pitch": 40, "duration": 181, "velocity": 112}, {"time": 115675, "pitch": 55, "duration": 241, "velocity": 112}, {"time": 115675, "pitch": 59, "duration": 301, "velocity": 112}, {"time": 115675, "pitch": 64, "duration": 301, "velocity": 105}, {"time": 115916, "pitch": 40, "duration": 241, "velocity": 105}, {"time": 116036, "pitch": 55, "duration": 241, "velocity": 105}, {"time": 116036, "pitch": 59, "duration": 301, "velocity": 110}, {"time": 116036, "pitch": 64, "duration": 301, "velocity": 112}, {"time": 116277, "pitch": 40, "duration": 421, "velocity": 110}, {"time": 116397, "pitch": 55, "duration": 542, "velocity": 103}, {"time": 116397, "pitch": 59, "duration": 602, "velocity": 103}, {"time": 116397, "pitch": 64, "duration": 542, "velocity": 112}, {"time": 116879, "pitch": 40, "duration": 241, "velocity": 105}, {"time": 117120, "pitch": 40, "duration": 301, "velocity": 107}, {"time": 117120, "pitch": 55, "duration": 361, "velocity": 110}, {"time": 117120, "pitch": 59, "duration": 301, "velocity": 110}, {"time": 117120, "pitch": 64, "duration": 301, "velocity": 102}, {"time": 117481, "pitch": 38, "duration": 120, "velocity": 98}, {"time": 117601, "pitch": 54, "duration": 301, "velocity": 107}, {"time": 117601, "pitch": 57, "duration": 301, "velocity": 107}, {"time": 117601, "pitch": 62, "duration": 301, "velocity": 102}, {"time": 117842, "pitch": 38, "duration": 301, "velocity": 98}, {"time": 117963, "pitch": 54, "duration": 240, "velocity": 92}, {"time": 117963, "pitch": 57, "duration": 301, "velocity": 105}, {"time": 117963, "pitch": 62, "duration": 301, "velocity": 105}, {"time": 118203, "pitch": 38, "duration": 479, "velocity": 100}, {"time": 118324, "pitch": 54, "duration": 535, "velocity": 102}, {"time": 118324, "pitch": 57, "duration": 535, "velocity": 105}, {"time": 118324, "pitch": 62, "duration": 535, "velocity": 107}, {"time": 118800, "pitch": 38, "duration": 236, "velocity": 107}, {"time": 119036, "pitch": 54, "duration": 361, "velocity": 100}, {"time": 119036, "pitch": 57, "duration": 361, "velocity": 96}, {"time": 119036, "pitch": 62, "duration": 361, "velocity": 103}, {"time": 119156, "pitch": 38, "duration": 301, "velocity": 103}, {"time": 119397, "pitch": 36, "duration": 181, "velocity": 110}, {"time": 119517, "pitch": 55, "duration": 241, "velocity": 112}, {"time": 119517, "pitch": 59, "duration": 241, "velocity": 107}, {"time": 119517, "pitch": 64, "duration": 301, "velocity": 112}, {"time": 119758, "pitch": 36, "duration": 181, "velocity": 105}, {"time": 119879, "pitch": 55, "duration": 240, "velocity": 98}, {"time": 119879, "pitch": 59, "duration": 301, "velocity": 103}, {"time": 119879, "pitch": 64, "duration": 301, "velocity": 107}, {"time": 120119, "pitch": 36, "duration": 542, "velocity": 105}, {"time": 120240, "pitch": 55, "duration": 542, "velocity": 110}, {"time": 120240, "pitch": 59, "duration": 602, "velocity": 102}, {"time": 120240, "pitch": 64, "duration": 542, "velocity": 103}, {"time": 120721, "pitch": 36, "duration": 241, "velocity": 105}, {"time": 120962, "pitch": 55, "duration": 422, "velocity": 122}, {"time": 120962, "pitch": 59, "duration": 422, "velocity": 100}, {"time": 120962, "pitch": 64, "duration": 422, "velocity": 103}, {"time": 121083, "pitch": 36, "duration": 361, "velocity": 100}, {"time": 121444, "pitch": 36, "duration": 177, "velocity": 119}, {"time": 121444, "pitch": 55, "duration": 235, "velocity": 112}, {"time": 121444, "pitch": 59, "duration": 235, "velocity": 107}, {"time": 121444, "pitch": 64, "duration": 235, "velocity": 114}, {"time": 121679, "pitch": 36, "duration": 177, "velocity": 103}, {"time": 121797, "pitch": 55, "duration": 238, "velocity": 102}, {"time": 121797, "pitch": 59, "duration": 299, "velocity": 103}, {"time": 121797, "pitch": 64, "duration": 238, "velocity": 110}, {"time": 122035, "pitch": 36, "duration": 482, "velocity": 96}, {"time": 122156, "pitch": 55, "duration": 481, "velocity": 110}, {"time": 122156, "pitch": 59, "duration": 542, "velocity": 102}, {"time": 122156, "pitch": 64, "duration": 542, "velocity": 107}, {"time": 122637, "pitch": 36, "duration": 241, "velocity": 105}, {"time": 122878, "pitch": 55, "duration": 422, "velocity": 119}, {"time": 122878, "pitch": 59, "duration": 482, "velocity": 102}, {"time": 122878, "pitch": 64, "duration": 482, "velocity": 105}, {"time": 122999, "pitch": 36, "duration": 361, "velocity": 110}, {"time": 123360, "pitch": 40, "duration": 180, "velocity": 112}, {"time": 123360, "pitch": 55, "duration": 241, "velocity": 112}, {"time": 123360, "pitch": 59, "duration": 301, "velocity": 112}, {"time": 123360, "pitch": 64, "duration": 301, "velocity": 105}, {"time": 123601, "pitch": 40, "duration": 240, "velocity": 105}, {"time": 123721, "pitch": 55, "duration": 241, "velocity": 105}, {"time": 123721, "pitch": 59, "duration": 301, "velocity": 110}, {"time": 123721, "pitch": 64, "duration": 301, "velocity": 112}, {"time": 123962, "pitch": 40, "duration": 421, "velocity": 110}, {"time": 124082, "pitch": 55, "duration": 542, "velocity": 103}, {"time": 124082, "pitch": 59, "duration": 602, "velocity": 103}, {"time": 124082, "pitch": 64, "duration": 542, "velocity": 112}, {"time": 124564, "pitch": 40, "duration": 241, "velocity": 105}, {"time": 124805, "pitch": 40, "duration": 294, "velocity": 107}, {"time": 124805, "pitch": 55, "duration": 353, "velocity": 110}, {"time": 124805, "pitch": 59, "duration": 294, "velocity": 110}, {"time": 124805, "pitch": 64, "duration": 294, "velocity": 102}, {"time": 125158, "pitch": 38, "duration": 118, "velocity": 98}, {"time": 125276, "pitch": 54, "duration": 301, "velocity": 107}, {"time": 125276, "pitch": 57, "duration": 301, "velocity": 107}, {"time": 125276, "pitch": 62, "duration": 301, "velocity": 102}, {"time": 125517, "pitch": 38, "duration": 301, "velocity": 98}, {"time": 125637, "pitch": 54, "duration": 241, "velocity": 92}, {"time": 125637, "pitch": 57, "duration": 301, "velocity": 105}, {"time": 125637, "pitch": 62, "duration": 301, "velocity": 105}, {"time": 125878, "pitch": 38, "duration": 481, "velocity": 100}, {"time": 125998, "pitch": 54, "duration": 542, "velocity": 102}, {"time": 125998, "pitch": 57, "duration": 542, "velocity": 105}, {"time": 125998, "pitch": 62, "duration": 542, "velocity": 107}, {"time": 126480, "pitch": 38, "duration": 241, "velocity": 107}, {"time": 126721, "pitch": 54, "duration": 361, "velocity": 100}, {"time": 126721, "pitch": 57, "duration": 361, "velocity": 96}, {"time": 126721, "pitch": 62, "duration": 361, "velocity": 103}, {"time": 126841, "pitch": 38, "duration": 301, "velocity": 103}, {"time": 127082, "pitch": 36, "duration": 180, "velocity": 110}, {"time": 127202, "pitch": 55, "duration": 241, "velocity": 112}, {"time": 127202, "pitch": 59, "duration": 241, "velocity": 107}, {"time": 127202, "pitch": 64, "duration": 301, "velocity": 112}, {"time": 127443, "pitch": 36, "duration": 181, "velocity": 105}, {"time": 127563, "pitch": 55, "duration": 239, "velocity": 98}, {"time": 127563, "pitch": 59, "duration": 298, "velocity": 103}, {"time": 127563, "pitch": 64, "duration": 298, "velocity": 107}, {"time": 127802, "pitch": 36, "duration": 534, "velocity": 105}, {"time": 127919, "pitch": 55, "duration": 537, "velocity": 110}, {"time": 127919, "pitch": 59, "duration": 597, "velocity": 102}, {"time": 127919, "pitch": 64, "duration": 537, "velocity": 103}, {"time": 128396, "pitch": 36, "duration": 241, "velocity": 105}, {"time": 128637, "pitch": 55, "duration": 421, "velocity": 122}, {"time": 128637, "pitch": 59, "duration": 421, "velocity": 100}, {"time": 128637, "pitch": 64, "duration": 421, "velocity": 103}, {"time": 128757, "pitch": 36, "duration": 361, "velocity": 100}, {"time": 129118, "pitch": 36, "duration": 181, "velocity": 119}, {"time": 129118, "pitch": 55, "duration": 241, "velocity": 112}, {"time": 129118, "pitch": 59, "duration": 241, "velocity": 107}, {"time": 129118, "pitch": 64, "duration": 241, "velocity": 114}, {"time": 129359, "pitch": 36, "duration": 181, "velocity": 103}, {"time": 129479, "pitch": 55, "duration": 241, "velocity": 102}, {"time": 129479, "pitch": 59, "duration": 301, "velocity": 103}, {"time": 129479, "pitch": 64, "duration": 241, "velocity": 110}, {"time": 129720, "pitch": 36, "duration": 482, "velocity": 96}, {"time": 129841, "pitch": 55, "duration": 481, "velocity": 110}, {"time": 129841, "pitch": 59, "duration": 541, "velocity": 102}, {"time": 129841, "pitch": 64, "duration": 541, "velocity": 107}, {"time": 130322, "pitch": 36, "duration": 241, "velocity": 105}, {"time": 130563, "pitch": 55, "duration": 421, "velocity": 119}, {"time": 130563, "pitch": 59, "duration": 482, "velocity": 102}, {"time": 130563, "pitch": 64, "duration": 482, "velocity": 105}, {"time": 130683, "pitch": 36, "duration": 362, "velocity": 110}, {"time": 131045, "pitch": 40, "duration": 294, "velocity": 112}, {"time": 131045, "pitch": 55, "duration": 294, "velocity": 112}, {"time": 131045, "pitch": 59, "duration": 294, "velocity": 107}, {"time": 131045, "pitch": 62, "duration": 294, "velocity": 114}, {"time": 131398, "pitch": 40, "duration": 118, "velocity": 112}, {"time": 131398, "pitch": 55, "duration": 59, "velocity": 103}, {"time": 131398, "pitch": 59, "duration": 59, "velocity": 103}, {"time": 131398, "pitch": 62, "duration": 59, "velocity": 96}, {"time": 132720, "pitch": 40, "duration": 60, "velocity": 103}, {"time": 132720, "pitch": 55, "duration": 60, "velocity": 107}, {"time": 132720, "pitch": 59, "duration": 60, "velocity": 105}, {"time": 132720, "pitch": 62, "duration": 60, "velocity": 110}, {"time": 133201, "pitch": 40, "duration": 61, "velocity": 102}, {"time": 133201, "pitch": 55, "duration": 61, "velocity": 102}, {"time": 133201, "pitch": 59, "duration": 61, "velocity": 92}, {"time": 133201, "pitch": 62, "duration": 61, "velocity": 94}, {"time": 133563, "pitch": 40, "duration": 361, "velocity": 107}, {"time": 133563, "pitch": 55, "duration": 361, "velocity": 107}, {"time": 133563, "pitch": 59, "duration": 361, "velocity": 102}, {"time": 133563, "pitch": 62, "duration": 361, "velocity": 102}, {"time": 134159, "pitch": 40, "duration": 59, "velocity": 102}, {"time": 134159, "pitch": 55, "duration": 59, "velocity": 100}, {"time": 134159, "pitch": 59, "duration": 59, "velocity": 100}, {"time": 134159, "pitch": 62, "duration": 59, "velocity": 96}, {"time": 134515, "pitch": 38, "duration": 301, "velocity": 105}, {"time": 134515, "pitch": 54, "duration": 301, "velocity": 105}, {"time": 134515, "pitch": 57, "duration": 301, "velocity": 110}, {"time": 134515, "pitch": 62, "duration": 301, "velocity": 105}, {"time": 134877, "pitch": 40, "duration": 301, "velocity": 103}, {"time": 134877, "pitch": 55, "duration": 301, "velocity": 107}, {"time": 134877, "pitch": 59, "duration": 301, "velocity": 94}, {"time": 134877, "pitch": 62, "duration": 301, "velocity": 105}, {"time": 135238, "pitch": 40, "duration": 120, "velocity": 103}, {"time": 135238, "pitch": 55, "duration": 60, "velocity": 96}, {"time": 135238, "pitch": 59, "duration": 60, "velocity": 91}, {"time": 135238, "pitch": 62, "duration": 60, "velocity": 73}, {"time": 136562, "pitch": 40, "duration": 121, "velocity": 96}, {"time": 136562, "pitch": 55, "duration": 60, "velocity": 102}, {"time": 136562, "pitch": 59, "duration": 60, "velocity": 98}, {"time": 136562, "pitch": 62, "duration": 60, "velocity": 100}, {"time": 137044, "pitch": 40, "duration": 60, "velocity": 102}, {"time": 137044, "pitch": 55, "duration": 60, "velocity": 91}, {"time": 137044, "pitch": 59, "duration": 60, "velocity": 91}, {"time": 137044, "pitch": 62, "duration": 60, "velocity": 96}, {"time": 137402, "pitch": 40, "duration": 354, "velocity": 102}, {"time": 137402, "pitch": 55, "duration": 295, "velocity": 98}, {"time": 137402, "pitch": 59, "duration": 354, "velocity": 102}, {"time": 137402, "pitch": 62, "duration": 354, "velocity": 103}, {"time": 137997, "pitch": 40, "duration": 180, "velocity": 98}, {"time": 137997, "pitch": 55, "duration": 60, "velocity": 98}, {"time": 137997, "pitch": 59, "duration": 120, "velocity": 98}, {"time": 137997, "pitch": 62, "duration": 120, "velocity": 96}, {"time": 138358, "pitch": 38, "duration": 361, "velocity": 103}, {"time": 138358, "pitch": 54, "duration": 361, "velocity": 107}, {"time": 138358, "pitch": 57, "duration": 361, "velocity": 112}, {"time": 138358, "pitch": 62, "duration": 361, "velocity": 107}, {"time": 138719, "pitch": 40, "duration": 301, "velocity": 110}, {"time": 138719, "pitch": 55, "duration": 301, "velocity": 103}, {"time": 138719, "pitch": 59, "duration": 301, "velocity": 103}, {"time": 138719, "pitch": 62, "duration": 301, "velocity": 107}, {"time": 139080, "pitch": 40, "duration": 60, "velocity": 107}, {"time": 139080, "pitch": 55, "duration": 60, "velocity": 112}, {"time": 139080, "pitch": 59, "duration": 60, "velocity": 103}, {"time": 139080, "pitch": 62, "duration": 60, "velocity": 102}, {"time": 140399, "pitch": 40, "duration": 118, "velocity": 92}, {"time": 140399, "pitch": 55, "duration": 59, "velocity": 94}, {"time": 140399, "pitch": 59, "duration": 59, "velocity": 92}, {"time": 140399, "pitch": 62, "duration": 118, "velocity": 88}, {"time": 140876, "pitch": 40, "duration": 60, "velocity": 96}, {"time": 140876, "pitch": 55, "duration": 60, "velocity": 96}, {"time": 140876, "pitch": 59, "duration": 60, "velocity": 94}, {"time": 140876, "pitch": 62, "duration": 60, "velocity": 96}, {"time": 141237, "pitch": 40, "duration": 361, "velocity": 105}, {"time": 141237, "pitch": 55, "duration": 301, "velocity": 98}, {"time": 141237, "pitch": 59, "duration": 361, "velocity": 98}, {"time": 141237, "pitch": 62, "duration": 361, "velocity": 105}, {"time": 141839, "pitch": 40, "duration": 120, "velocity": 102}, {"time": 141839, "pitch": 55, "duration": 60, "velocity": 88}, {"time": 141839, "pitch": 59, "duration": 60, "velocity": 91}, {"time": 141839, "pitch": 62, "duration": 120, "velocity": 88}, {"time": 142200, "pitch": 38, "duration": 301, "velocity": 105}, {"time": 142200, "pitch": 54, "duration": 241, "velocity": 117}, {"time": 142200, "pitch": 57, "duration": 241, "velocity": 110}, {"time": 142200, "pitch": 62, "duration": 301, "velocity": 105}, {"time": 142561, "pitch": 40, "duration": 301, "velocity": 110}, {"time": 142561, "pitch": 55, "duration": 301, "velocity": 103}, {"time": 142561, "pitch": 59, "duration": 301, "velocity": 103}, {"time": 142561, "pitch": 62, "duration": 301, "velocity": 107}, {"time": 142923, "pitch": 40, "duration": 60, "velocity": 107}, {"time": 142923, "pitch": 55, "duration": 60, "velocity": 112}, {"time": 142923, "pitch": 59, "duration": 60, "velocity": 103}, {"time": 142923, "pitch": 62, "duration": 60, "velocity": 102}, {"time": 144237, "pitch": 40, "duration": 60, "velocity": 89}, {"time": 144237, "pitch": 55, "duration": 60, "velocity": 96}, {"time": 144237, "pitch": 59, "duration": 60, "velocity": 96}, {"time": 144237, "pitch": 62, "duration": 60, "velocity": 102}, {"time": 144718, "pitch": 40, "duration": 60, "velocity": 103}, {"time": 144718, "pitch": 55, "duration": 60, "velocity": 112}, {"time": 144718, "pitch": 59, "duration": 60, "velocity": 103}, {"time": 144718, "pitch": 62, "duration": 60, "velocity": 96}, {"time": 145079, "pitch": 40, "duration": 362, "velocity": 112}, {"time": 145079, "pitch": 55, "duration": 362, "velocity": 107}, {"time": 145079, "pitch": 59, "duration": 362, "velocity": 92}, {"time": 145079, "pitch": 62, "duration": 362, "velocity": 100}, {"time": 145441, "pitch": 40, "duration": 240, "velocity": 114}, {"time": 145441, "pitch": 55, "duration": 240, "velocity": 119}, {"time": 145441, "pitch": 59, "duration": 240, "velocity": 117}, {"time": 145441, "pitch": 62, "duration": 240, "velocity": 110}, {"time": 145681, "pitch": 40, "duration": 241, "velocity": 104}, {"time": 145681, "pitch": 55, "duration": 241, "velocity": 109}, {"time": 145681, "pitch": 59, "duration": 241, "velocity": 97}, {"time": 145681, "pitch": 62, "duration": 241, "velocity": 92}, {"time": 146043, "pitch": 40, "duration": 361, "velocity": 110}, {"time": 146043, "pitch": 55, "duration": 361, "velocity": 122}, {"time": 146043, "pitch": 59, "duration": 361, "velocity": 112}, {"time": 146043, "pitch": 62, "duration": 361, "velocity": 112}, {"time": 146404, "pitch": 36, "duration": 1675, "velocity": 105}, {"time": 146404, "pitch": 55, "duration": 235, "velocity": 112}, {"time": 146404, "pitch": 59, "duration": 235, "velocity": 107}, {"time": 146404, "pitch": 62, "duration": 235, "velocity": 110}, {"time": 147116, "pitch": 64, "duration": 301, "velocity": 112}, {"time": 147116, "pitch": 71, "duration": 361, "velocity": 112}, {"time": 147597, "pitch": 67, "duration": 181, "velocity": 98}, {"time": 147838, "pitch": 64, "duration": 121, "velocity": 102}, {"time": 148320, "pitch": 43, "duration": 120, "velocity": 103}, {"time": 148320, "pitch": 62, "duration": 241, "velocity": 112}, {"time": 148320, "pitch": 67, "duration": 301, "velocity": 112}, {"time": 148320, "pitch": 71, "duration": 241, "velocity": 112}, {"time": 148561, "pitch": 43, "duration": 602, "velocity": 96}, {"time": 148681, "pitch": 62, "duration": 241, "velocity": 102}, {"time": 148681, "pitch": 67, "duration": 241, "velocity": 107}, {"time": 148681, "pitch": 72, "duration": 181, "velocity": 107}, {"time": 149042, "pitch": 62, "duration": 301, "velocity": 103}, {"time": 149042, "pitch": 67, "duration": 241, "velocity": 98}, {"time": 149042, "pitch": 71, "duration": 301, "velocity": 112}, {"time": 149524, "pitch": 62, "duration": 120, "velocity": 92}, {"time": 149524, "pitch": 67, "duration": 241, "velocity": 110}, {"time": 149765, "pitch": 62, "duration": 235, "velocity": 105}, {"time": 150236, "pitch": 38, "duration": 180, "velocity": 100}, {"time": 150236, "pitch": 54, "duration": 180, "velocity": 107}, {"time": 150236, "pitch": 57, "duration": 241, "velocity": 110}, {"time": 150236, "pitch": 62, "duration": 241, "velocity": 110}, {"time": 150597, "pitch": 38, "duration": 120, "velocity": 76}, {"time": 150597, "pitch": 54, "duration": 60, "velocity": 98}, {"time": 150597, "pitch": 57, "duration": 120, "velocity": 100}, {"time": 150597, "pitch": 62, "duration": 120, "velocity": 100}, {"time": 150838, "pitch": 38, "duration": 782, "velocity": 84}, {"time": 150958, "pitch": 62, "duration": 301, "velocity": 100}, {"time": 150958, "pitch": 66, "duration": 301, "velocity": 91}, {"time": 150958, "pitch": 69, "duration": 241, "velocity": 98}, {"time": 151440, "pitch": 62, "duration": 361, "velocity": 107}, {"time": 151440, "pitch": 66, "duration": 301, "velocity": 92}, {"time": 151440, "pitch": 69, "duration": 361, "velocity": 98}, {"time": 151921, "pitch": 38, "duration": 181, "velocity": 98}, {"time": 152162, "pitch": 40, "duration": 301, "velocity": 103}, {"time": 152162, "pitch": 59, "duration": 241, "velocity": 105}, {"time": 152162, "pitch": 64, "duration": 241, "velocity": 110}, {"time": 152162, "pitch": 67, "duration": 241, "velocity": 105}, {"time": 152523, "pitch": 59, "duration": 61, "velocity": 96}, {"time": 152523, "pitch": 64, "duration": 61, "velocity": 107}, {"time": 152523, "pitch": 67, "duration": 121, "velocity": 100}, {"time": 152644, "pitch": 40, "duration": 118, "velocity": 100}, {"time": 152879, "pitch": 40, "duration": 898, "velocity": 107}, {"time": 152879, "pitch": 64, "duration": 296, "velocity": 114}, {"time": 152879, "pitch": 67, "duration": 236, "velocity": 107}, {"time": 152879, "pitch": 71, "duration": 236, "velocity": 117}, {"time": 153356, "pitch": 64, "duration": 120, "velocity": 102}, {"time": 153356, "pitch": 67, "duration": 120, "velocity": 100}, {"time": 153356, "pitch": 72, "duration": 120, "velocity": 107}, {"time": 153597, "pitch": 64, "duration": 180, "velocity": 105}, {"time": 153597, "pitch": 67, "duration": 120, "velocity": 98}, {"time": 153597, "pitch": 74, "duration": 180, "velocity": 112}, {"time": 154078, "pitch": 36, "duration": 241, "velocity": 110}, {"time": 154078, "pitch": 64, "duration": 181, "velocity": 105}, {"time": 154078, "pitch": 67, "duration": 181, "velocity": 110}, {"time": 154078, "pitch": 71, "duration": 241, "velocity": 110}, {"time": 154319, "pitch": 43, "duration": 241, "velocity": 100}, {"time": 154560, "pitch": 48, "duration": 120, "velocity": 96}, {"time": 154806, "pitch": 76, "duration": 124, "velocity": 100}, {"time": 154836, "pitch": 79, "duration": 66, "velocity": 109}, {"time": 154855, "pitch": 83, "duration": 374, "velocity": 114}, {"time": 155282, "pitch": 79, "duration": 181, "velocity": 114}, {"time": 155523, "pitch": 76, "duration": 120, "velocity": 102}, {"time": 155764, "pitch": 67, "duration": 60, "velocity": 98}, {"time": 156005, "pitch": 43, "duration": 117, "velocity": 98}, {"time": 156005, "pitch": 62, "duration": 235, "velocity": 112}, {"time": 156005, "pitch": 67, "duration": 235, "velocity": 107}, {"time": 156005, "pitch": 71, "duration": 294, "velocity": 110}, {"time": 156240, "pitch": 43, "duration": 118, "velocity": 91}, {"time": 156358, "pitch": 62, "duration": 178, "velocity": 107}, {"time": 156358, "pitch": 67, "duration": 238, "velocity": 100}, {"time": 156358, "pitch": 72, "duration": 178, "velocity": 107}, {"time": 156596, "pitch": 43, "duration": 121, "velocity": 94}, {"time": 156717, "pitch": 62, "duration": 361, "velocity": 102}, {"time": 156717, "pitch": 67, "duration": 301, "velocity": 94}, {"time": 156717, "pitch": 74, "duration": 240, "velocity": 112}, {"time": 157078, "pitch": 43, "duration": 60, "velocity": 40}, {"time": 157198, "pitch": 62, "duration": 181, "velocity": 107}, {"time": 157198, "pitch": 67, "duration": 181, "velocity": 61}, {"time": 157198, "pitch": 71, "duration": 181, "velocity": 100}, {"time": 157439, "pitch": 62, "duration": 421, "velocity": 98}, {"time": 157439, "pitch": 67, "duration": 421, "velocity": 102}, {"time": 157680, "pitch": 43, "duration": 180, "velocity": 92}, {"time": 157921, "pitch": 45, "duration": 180, "velocity": 114}, {"time": 157921, "pitch": 61, "duration": 240, "velocity": 107}, {"time": 157921, "pitch": 64, "duration": 240, "velocity": 105}, {"time": 157921, "pitch": 69, "duration": 240, "velocity": 103}, {"time": 158161, "pitch": 45, "duration": 602, "velocity": 117}, {"time": 158282, "pitch": 61, "duration": 241, "velocity": 94}, {"time": 158282, "pitch": 64, "duration": 241, "velocity": 107}, {"time": 158282, "pitch": 69, "duration": 241, "velocity": 94}, {"time": 158643, "pitch": 61, "duration": 476, "velocity": 103}, {"time": 158643, "pitch": 64, "duration": 535, "velocity": 114}, {"time": 158643, "pitch": 69, "duration": 418, "velocity": 102}, {"time": 159119, "pitch": 45, "duration": 296, "velocity": 94}, {"time": 159355, "pitch": 61, "duration": 301, "velocity": 103}, {"time": 159355, "pitch": 64, "duration": 301, "velocity": 105}, {"time": 159355, "pitch": 69, "duration": 301, "velocity": 100}, {"time": 159596, "pitch": 45, "duration": 120, "velocity": 76}, {"time": 159837, "pitch": 47, "duration": 421, "velocity": 112}, {"time": 159837, "pitch": 59, "duration": 180, "velocity": 107}, {"time": 159837, "pitch": 64, "duration": 180, "velocity": 107}, {"time": 159837, "pitch": 66, "duration": 240, "velocity": 107}, {"time": 160198, "pitch": 59, "duration": 120, "velocity": 105}, {"time": 160198, "pitch": 64, "duration": 120, "velocity": 98}, {"time": 160198, "pitch": 66, "duration": 120, "velocity": 107}, {"time": 160318, "pitch": 47, "duration": 963, "velocity": 96}, {"time": 160559, "pitch": 59, "duration": 301, "velocity": 114}, {"time": 160559, "pitch": 64, "duration": 301, "velocity": 110}, {"time": 160559, "pitch": 66, "duration": 301, "velocity": 85}, {"time": 160559, "pitch": 69, "duration": 241, "velocity": 105}, {"time": 161041, "pitch": 59, "duration": 60, "velocity": 92}, {"time": 161041, "pitch": 64, "duration": 120, "velocity": 91}, {"time": 161041, "pitch": 66, "duration": 120, "velocity": 80}, {"time": 161041, "pitch": 69, "duration": 120, "velocity": 85}, {"time": 161281, "pitch": 59, "duration": 181, "velocity": 107}, {"time": 161281, "pitch": 64, "duration": 181, "velocity": 100}, {"time": 161281, "pitch": 66, "duration": 181, "velocity": 102}, {"time": 161281, "pitch": 69, "duration": 181, "velocity": 98}, {"time": 161522, "pitch": 47, "duration": 60, "velocity": 94}, {"time": 161763, "pitch": 47, "duration": 241, "velocity": 117}, {"time": 161763, "pitch": 59, "duration": 241, "velocity": 119}, {"time": 161763, "pitch": 63, "duration": 241, "velocity": 103}, {"time": 161763, "pitch": 66, "duration": 241, "velocity": 103}, {"time": 161763, "pitch": 71, "duration": 241, "velocity": 107}, {"time": 163679, "pitch": 40, "duration": 120, "velocity": 100}, {"time": 163679, "pitch": 59, "duration": 241, "velocity": 110}, {"time": 163679, "pitch": 64, "duration": 241, "velocity": 110}, {"time": 163679, "pitch": 67, "duration": 241, "velocity": 105}, {"time": 163920, "pitch": 40, "duration": 180, "velocity": 94}, {"time": 164040, "pitch": 59, "duration": 241, "velocity": 102}, {"time": 164040, "pitch": 64, "duration": 241, "velocity": 105}, {"time": 164040, "pitch": 67, "duration": 241, "velocity": 102}, {"time": 164281, "pitch": 40, "duration": 421, "velocity": 102}, {"time": 164401, "pitch": 59, "duration": 542, "velocity": 105}, {"time": 164401, "pitch": 64, "duration": 542, "velocity": 112}, {"time": 164401, "pitch": 67, "duration": 542, "velocity": 102}, {"time": 164883, "pitch": 40, "duration": 241, "velocity": 98}, {"time": 165124, "pitch": 59, "duration": 353, "velocity": 105}, {"time": 165124, "pitch": 64, "duration": 353, "velocity": 105}, {"time": 165124, "pitch": 67, "duration": 471, "velocity": 102}, {"time": 165242, "pitch": 40, "duration": 353, "velocity": 94}, {"time": 165595, "pitch": 38, "duration": 120, "velocity": 98}, {"time": 165595, "pitch": 57, "duration": 241, "velocity": 102}, {"time": 165595, "pitch": 62, "duration": 241, "velocity": 107}, {"time": 165595, "pitch": 67, "duration": 241, "velocity": 103}, {"time": 165836, "pitch": 38, "duration": 180, "velocity": 85}, {"time": 165956, "pitch": 57, "duration": 241, "velocity": 102}, {"time": 165956, "pitch": 62, "duration": 241, "velocity": 105}, {"time": 165956, "pitch": 67, "duration": 241, "velocity": 98}, {"time": 166197, "pitch": 38, "duration": 421, "velocity": 92}, {"time": 166317, "pitch": 57, "duration": 542, "velocity": 107}, {"time": 166317, "pitch": 62, "duration": 542, "velocity": 105}, {"time": 166317, "pitch": 66, "duration": 542, "velocity": 88}, {"time": 166799, "pitch": 38, "duration": 241, "velocity": 100}, {"time": 167040, "pitch": 57, "duration": 421, "velocity": 110}, {"time": 167040, "pitch": 62, "duration": 421, "velocity": 100}, {"time": 167040, "pitch": 66, "duration": 481, "velocity": 105}, {"time": 167160, "pitch": 38, "duration": 361, "velocity": 86}, {"time": 167521, "pitch": 36, "duration": 121, "velocity": 100}, {"time": 167521, "pitch": 59, "duration": 241, "velocity": 110}, {"time": 167521, "pitch": 64, "duration": 241, "velocity": 110}, {"time": 167521, "pitch": 67, "duration": 241, "velocity": 105}, {"time": 167762, "pitch": 36, "duration": 181, "velocity": 94}, {"time": 167883, "pitch": 59, "duration": 240, "velocity": 102}, {"time": 167883, "pitch": 64, "duration": 240, "velocity": 105}, {"time": 167883, "pitch": 67, "duration": 240, "velocity": 102}, {"time": 168123, "pitch": 36, "duration": 420, "velocity": 102}, {"time": 168244, "pitch": 59, "duration": 535, "velocity": 105}, {"time": 168244, "pitch": 64, "duration": 535, "velocity": 112}, {"time": 168244, "pitch": 67, "duration": 535, "velocity": 102}, {"time": 168720, "pitch": 36, "duration": 236, "velocity": 98}, {"time": 168956, "pitch": 59, "duration": 361, "velocity": 105}, {"time": 168956, "pitch": 64, "duration": 361, "velocity": 105}, {"time": 168956, "pitch": 67, "duration": 481, "velocity": 102}, {"time": 169076, "pitch": 36, "duration": 361, "velocity": 94}, {"time": 169437, "pitch": 43, "duration": 181, "velocity": 107}, {"time": 169437, "pitch": 57, "duration": 241, "velocity": 114}, {"time": 169437, "pitch": 62, "duration": 301, "velocity": 114}, {"time": 169437, "pitch": 67, "duration": 301, "velocity": 110}, {"time": 169678, "pitch": 43, "duration": 241, "velocity": 98}, {"time": 169799, "pitch": 59, "duration": 240, "velocity": 107}, {"time": 169799, "pitch": 62, "duration": 240, "velocity": 114}, {"time": 169799, "pitch": 67, "duration": 240, "velocity": 117}, {"time": 170039, "pitch": 43, "duration": 301, "velocity": 83}, {"time": 170160, "pitch": 57, "duration": 361, "velocity": 119}, {"time": 170160, "pitch": 62, "duration": 421, "velocity": 100}, {"time": 170160, "pitch": 67, "duration": 361, "velocity": 103}, {"time": 170401, "pitch": 43, "duration": 120, "velocity": 66}, {"time": 170641, "pitch": 43, "duration": 61, "velocity": 102}, {"time": 170641, "pitch": 59, "duration": 61, "velocity": 110}, {"time": 170641, "pitch": 62, "duration": 61, "velocity": 100}, {"time": 170641, "pitch": 67, "duration": 61, "velocity": 119}, {"time": 170882, "pitch": 43, "duration": 241, "velocity": 91}, {"time": 170882, "pitch": 59, "duration": 422, "velocity": 102}, {"time": 170882, "pitch": 62, "duration": 422, "velocity": 98}, {"time": 170882, "pitch": 67, "duration": 422, "velocity": 100}, {"time": 171123, "pitch": 43, "duration": 120, "velocity": 100}, {"time": 171243, "pitch": 44, "duration": 121, "velocity": 100}, {"time": 171364, "pitch": 45, "duration": 118, "velocity": 100}, {"time": 171364, "pitch": 55, "duration": 235, "velocity": 110}, {"time": 171364, "pitch": 60, "duration": 235, "velocity": 110}, {"time": 171364, "pitch": 64, "duration": 235, "velocity": 105}, {"time": 171599, "pitch": 45, "duration": 177, "velocity": 94}, {"time": 171717, "pitch": 55, "duration": 238, "velocity": 102}, {"time": 171717, "pitch": 60, "duration": 238, "velocity": 105}, {"time": 171717, "pitch": 64, "duration": 238, "velocity": 102}, {"time": 171955, "pitch": 45, "duration": 422, "velocity": 102}, {"time": 172076, "pitch": 55, "duration": 542, "velocity": 105}, {"time": 172076, "pitch": 60, "duration": 542, "velocity": 112}, {"time": 172076, "pitch": 64, "duration": 542, "velocity": 102}, {"time": 172557, "pitch": 45, "duration": 241, "velocity": 98}, {"time": 172798, "pitch": 55, "duration": 361, "velocity": 105}, {"time": 172798, "pitch": 60, "duration": 361, "velocity": 105}, {"time": 172798, "pitch": 64, "duration": 482, "velocity": 102}, {"time": 172919, "pitch": 45, "duration": 361, "velocity": 94}, {"time": 173280, "pitch": 43, "duration": 120, "velocity": 98}, {"time": 173280, "pitch": 59, "duration": 241, "velocity": 102}, {"time": 173280, "pitch": 62, "duration": 241, "velocity": 107}, {"time": 173280, "pitch": 67, "duration": 241, "velocity": 103}, {"time": 173521, "pitch": 43, "duration": 180, "velocity": 85}, {"time": 173641, "pitch": 59, "duration": 241, "velocity": 102}, {"time": 173641, "pitch": 62, "duration": 241, "velocity": 105}, {"time": 173641, "pitch": 67, "duration": 241, "velocity": 98}, {"time": 173882, "pitch": 43, "duration": 421, "velocity": 92}, {"time": 174002, "pitch": 59, "duration": 542, "velocity": 107}, {"time": 174002, "pitch": 62, "duration": 542, "velocity": 105}, {"time": 174002, "pitch": 67, "duration": 542, "velocity": 88}, {"time": 174484, "pitch": 43, "duration": 241, "velocity": 100}, {"time": 174725, "pitch": 59, "duration": 412, "velocity": 110}, {"time": 174725, "pitch": 62, "duration": 412, "velocity": 100}, {"time": 174725, "pitch": 67, "duration": 471, "velocity": 105}, {"time": 174842, "pitch": 43, "duration": 118, "velocity": 86}, {"time": 174960, "pitch": 43, "duration": 118, "velocity": 100}, {"time": 175078, "pitch": 44, "duration": 118, "velocity": 100}, {"time": 175196, "pitch": 45, "duration": 120, "velocity": 100}, {"time": 175196, "pitch": 55, "duration": 241, "velocity": 110}, {"time": 175196, "pitch": 60, "duration": 241, "velocity": 110}, {"time": 175196, "pitch": 64, "duration": 241, "velocity": 105}, {"time": 175437, "pitch": 45, "duration": 180, "velocity": 94}, {"time": 175557, "pitch": 55, "duration": 241, "velocity": 102}, {"time": 175557, "pitch": 60, "duration": 241, "velocity": 105}, {"time": 175557, "pitch": 64, "duration": 241, "velocity": 102}, {"time": 175798, "pitch": 45, "duration": 421, "velocity": 102}, {"time": 175918, "pitch": 55, "duration": 542, "velocity": 105}, {"time": 175918, "pitch": 60, "duration": 542, "velocity": 112}, {"time": 175918, "pitch": 64, "duration": 542, "velocity": 102}, {"time": 176400, "pitch": 45, "duration": 241, "velocity": 98}, {"time": 176641, "pitch": 55, "duration": 361, "velocity": 105}, {"time": 176641, "pitch": 60, "duration": 361, "velocity": 105}, {"time": 176641, "pitch": 64, "duration": 481, "velocity": 102}, {"time": 176761, "pitch": 45, "duration": 120, "velocity": 94}, {"time": 176881, "pitch": 45, "duration": 121, "velocity": 100}, {"time": 177002, "pitch": 46, "duration": 120, "velocity": 100}, {"time": 177122, "pitch": 47, "duration": 241, "velocity": 107}, {"time": 177122, "pitch": 59, "duration": 301, "velocity": 103}, {"time": 177122, "pitch": 64, "duration": 301, "velocity": 110}, {"time": 177122, "pitch": 66, "duration": 301, "velocity": 91}, {"time": 177122, "pitch": 69, "duration": 301, "velocity": 91}, {"time": 177483, "pitch": 47, "duration": 298, "velocity": 94}, {"time": 177483, "pitch": 59, "duration": 298, "velocity": 88}, {"time": 177483, "pitch": 64, "duration": 298, "velocity": 107}, {"time": 177483, "pitch": 66, "duration": 356, "velocity": 86}, {"time": 177483, "pitch": 69, "duration": 356, "velocity": 86}, {"time": 177839, "pitch": 47, "duration": 356, "velocity": 103}, {"time": 177839, "pitch": 59, "duration": 356, "velocity": 110}, {"time": 177839, "pitch": 63, "duration": 356, "velocity": 103}, {"time": 177839, "pitch": 66, "duration": 356, "velocity": 88}, {"time": 177839, "pitch": 69, "duration": 356, "velocity": 102}, {"time": 178316, "pitch": 47, "duration": 60, "velocity": 102}, {"time": 178316, "pitch": 59, "duration": 60, "velocity": 102}, {"time": 178316, "pitch": 63, "duration": 60, "velocity": 102}, {"time": 178316, "pitch": 66, "duration": 60, "velocity": 88}, {"time": 178316, "pitch": 69, "duration": 60, "velocity": 80}, {"time": 178557, "pitch": 47, "duration": 60, "velocity": 76}, {"time": 178557, "pitch": 59, "duration": 60, "velocity": 102}, {"time": 178557, "pitch": 63, "duration": 60, "velocity": 88}, {"time": 178557, "pitch": 66, "duration": 60, "velocity": 72}, {"time": 178557, "pitch": 69, "duration": 60, "velocity": 87}, {"time": 178677, "pitch": 47, "duration": 361, "velocity": 106}, {"time": 178677, "pitch": 59, "duration": 361, "velocity": 104}, {"time": 178677, "pitch": 63, "duration": 361, "velocity": 113}, {"time": 178677, "pitch": 66, "duration": 361, "velocity": 106}, {"time": 178677, "pitch": 69, "duration": 361, "velocity": 111}, {"time": 179038, "pitch": 40, "duration": 121, "velocity": 100}, {"time": 179038, "pitch": 59, "duration": 241, "velocity": 110}, {"time": 179038, "pitch": 64, "duration": 241, "velocity": 110}, {"time": 179038, "pitch": 67, "duration": 241, "velocity": 105}, {"time": 179279, "pitch": 40, "duration": 181, "velocity": 94}, {"time": 179399, "pitch": 59, "duration": 241, "velocity": 102}, {"time": 179399, "pitch": 64, "duration": 241, "velocity": 105}, {"time": 179399, "pitch": 67, "duration": 241, "velocity": 102}, {"time": 179640, "pitch": 40, "duration": 422, "velocity": 102}, {"time": 179761, "pitch": 59, "duration": 541, "velocity": 105}, {"time": 179761, "pitch": 64, "duration": 541, "velocity": 112}, {"time": 179761, "pitch": 67, "duration": 541, "velocity": 102}, {"time": 180242, "pitch": 40, "duration": 241, "velocity": 98}, {"time": 180483, "pitch": 59, "duration": 361, "velocity": 105}, {"time": 180483, "pitch": 64, "duration": 361, "velocity": 105}, {"time": 180483, "pitch": 67, "duration": 482, "velocity": 102}, {"time": 180603, "pitch": 40, "duration": 362, "velocity": 94}, {"time": 180965, "pitch": 38, "duration": 117, "velocity": 98}, {"time": 180965, "pitch": 57, "duration": 235, "velocity": 102}, {"time": 180965, "pitch": 62, "duration": 235, "velocity": 107}, {"time": 180965, "pitch": 67, "duration": 235, "velocity": 103}, {"time": 181200, "pitch": 38, "duration": 177, "velocity": 85}, {"time": 181318, "pitch": 57, "duration": 238, "velocity": 102}, {"time": 181318, "pitch": 62, "duration": 238, "velocity": 105}, {"time": 181318, "pitch": 67, "duration": 238, "velocity": 98}, {"time": 181556, "pitch": 38, "duration": 422, "velocity": 92}, {"time": 181677, "pitch": 57, "duration": 541, "velocity": 107}, {"time": 181677, "pitch": 62, "duration": 541, "velocity": 105}, {"time": 181677, "pitch": 66, "duration": 541, "velocity": 88}, {"time": 182158, "pitch": 38, "duration": 241, "velocity": 100}, {"time": 182399, "pitch": 57, "duration": 421, "velocity": 110}, {"time": 182399, "pitch": 62, "duration": 421, "velocity": 100}, {"time": 182399, "pitch": 66, "duration": 482, "velocity": 105}, {"time": 182519, "pitch": 38, "duration": 362, "velocity": 86}, {"time": 182881, "pitch": 36, "duration": 120, "velocity": 100}, {"time": 182881, "pitch": 59, "duration": 240, "velocity": 110}, {"time": 182881, "pitch": 64, "duration": 240, "velocity": 110}, {"time": 182881, "pitch": 67, "duration": 240, "velocity": 105}, {"time": 183121, "pitch": 36, "duration": 181, "velocity": 94}, {"time": 183242, "pitch": 59, "duration": 241, "velocity": 102}, {"time": 183242, "pitch": 64, "duration": 241, "velocity": 105}, {"time": 183242, "pitch": 67, "duration": 241, "velocity": 102}, {"time": 183483, "pitch": 36, "duration": 420, "velocity": 102}, {"time": 183603, "pitch": 59, "duration": 535, "velocity": 105}, {"time": 183603, "pitch": 64, "duration": 535, "velocity": 112}, {"time": 183603, "pitch": 67, "duration": 535, "velocity": 102}, {"time": 184079, "pitch": 36, "duration": 236, "velocity": 98}, {"time": 184315, "pitch": 59, "duration": 361, "velocity": 105}, {"time": 184315, "pitch": 64, "duration": 361, "velocity": 105}, {"time": 184315, "pitch": 67, "duration": 482, "velocity": 102}, {"time": 184435, "pitch": 36, "duration": 362, "velocity": 94}, {"time": 184797, "pitch": 43, "duration": 180, "velocity": 107}, {"time": 184797, "pitch": 57, "duration": 240, "velocity": 114}, {"time": 184797, "pitch": 62, "duration": 301, "velocity": 114}, {"time": 184797, "pitch": 67, "duration": 301, "velocity": 110}, {"time": 185037, "pitch": 43, "duration": 241, "velocity": 98}, {"time": 185158, "pitch": 59, "duration": 241, "velocity": 107}, {"time": 185158, "pitch": 62, "duration": 241, "velocity": 114}, {"time": 185158, "pitch": 67, "duration": 241, "velocity": 117}, {"time": 185399, "pitch": 43, "duration": 301, "velocity": 83}, {"time": 185519, "pitch": 57, "duration": 361, "velocity": 119}, {"time": 185519, "pitch": 62, "duration": 421, "velocity": 100}, {"time": 185519, "pitch": 67, "duration": 361, "velocity": 103}, {"time": 185760, "pitch": 43, "duration": 120, "velocity": 66}, {"time": 186001, "pitch": 43, "duration": 60, "velocity": 102}, {"time": 186001, "pitch": 59, "duration": 60, "velocity": 110}, {"time": 186001, "pitch": 62, "duration": 60, "velocity": 100}, {"time": 186001, "pitch": 67, "duration": 60, "velocity": 119}, {"time": 186241, "pitch": 43, "duration": 241, "velocity": 91}, {"time": 186241, "pitch": 59, "duration": 422, "velocity": 102}, {"time": 186241, "pitch": 62, "duration": 422, "velocity": 98}, {"time": 186241, "pitch": 67, "duration": 422, "velocity": 100}, {"time": 186482, "pitch": 43, "duration": 121, "velocity": 100}, {"time": 186603, "pitch": 44, "duration": 120, "velocity": 100}, {"time": 186723, "pitch": 45, "duration": 120, "velocity": 100}, {"time": 186723, "pitch": 55, "duration": 241, "velocity": 110}, {"time": 186723, "pitch": 60, "duration": 241, "velocity": 110}, {"time": 186723, "pitch": 64, "duration": 241, "velocity": 105}, {"time": 186964, "pitch": 45, "duration": 180, "velocity": 94}, {"time": 187084, "pitch": 55, "duration": 238, "velocity": 102}, {"time": 187084, "pitch": 60, "duration": 238, "velocity": 105}, {"time": 187084, "pitch": 64, "duration": 238, "velocity": 102}, {"time": 187322, "pitch": 45, "duration": 414, "velocity": 102}, {"time": 187440, "pitch": 55, "duration": 537, "velocity": 105}, {"time": 187440, "pitch": 60, "duration": 537, "velocity": 112}, {"time": 187440, "pitch": 64, "duration": 537, "velocity": 102}, {"time": 187917, "pitch": 45, "duration": 240, "velocity": 98}, {"time": 188157, "pitch": 55, "duration": 362, "velocity": 105}, {"time": 188157, "pitch": 60, "duration": 362, "velocity": 105}, {"time": 188157, "pitch": 64, "duration": 482, "velocity": 102}, {"time": 188278, "pitch": 45, "duration": 361, "velocity": 94}, {"time": 188639, "pitch": 43, "duration": 120, "velocity": 98}, {"time": 188639, "pitch": 59, "duration": 241, "velocity": 102}, {"time": 188639, "pitch": 62, "duration": 241, "velocity": 107}, {"time": 188639, "pitch": 67, "duration": 241, "velocity": 103}, {"time": 188880, "pitch": 43, "duration": 180, "velocity": 85}, {"time": 189000, "pitch": 59, "duration": 241, "velocity": 102}, {"time": 189000, "pitch": 62, "duration": 241, "velocity": 105}, {"time": 189000, "pitch": 67, "duration": 241, "velocity": 98}, {"time": 189241, "pitch": 43, "duration": 421, "velocity": 92}, {"time": 189361, "pitch": 59, "duration": 542, "velocity": 107}, {"time": 189361, "pitch": 62, "duration": 542, "velocity": 105}, {"time": 189361, "pitch": 67, "duration": 542, "velocity": 88}, {"time": 189843, "pitch": 43, "duration": 241, "velocity": 100}, {"time": 190084, "pitch": 59, "duration": 412, "velocity": 110}, {"time": 190084, "pitch": 62, "duration": 412, "velocity": 100}, {"time": 190084, "pitch": 67, "duration": 471, "velocity": 105}, {"time": 190202, "pitch": 43, "duration": 117, "velocity": 86}, {"time": 190319, "pitch": 43, "duration": 118, "velocity": 100}, {"time": 190437, "pitch": 44, "duration": 118, "velocity": 100}, {"time": 190555, "pitch": 45, "duration": 120, "velocity": 100}, {"time": 190555, "pitch": 55, "duration": 241, "velocity": 110}, {"time": 190555, "pitch": 60, "duration": 241, "velocity": 110}, {"time": 190555, "pitch": 64, "duration": 241, "velocity": 105}, {"time": 190796, "pitch": 45, "duration": 180, "velocity": 94}, {"time": 190916, "pitch": 55, "duration": 241, "velocity": 102}, {"time": 190916, "pitch": 60, "duration": 241, "velocity": 105}, {"time": 190916, "pitch": 64, "duration": 241, "velocity": 102}, {"time": 191157, "pitch": 45, "duration": 421, "velocity": 102}, {"time": 191277, "pitch": 55, "duration": 542, "velocity": 105}, {"time": 191277, "pitch": 60, "duration": 542, "velocity": 112}, {"time": 191277, "pitch": 64, "duration": 542, "velocity": 102}, {"time": 191759, "pitch": 45, "duration": 241, "velocity": 98}, {"time": 192000, "pitch": 55, "duration": 361, "velocity": 105}, {"time": 192000, "pitch": 60, "duration": 361, "velocity": 105}, {"time": 192000, "pitch": 64, "duration": 481, "velocity": 102}, {"time": 192120, "pitch": 45, "duration": 121, "velocity": 94}, {"time": 192241, "pitch": 45, "duration": 120, "velocity": 100}, {"time": 192361, "pitch": 45, "duration": 120, "velocity": 100}, {"time": 192481, "pitch": 50, "duration": 241, "velocity": 107}, {"time": 192481, "pitch": 54, "duration": 301, "velocity": 103}, {"time": 192481, "pitch": 57, "duration": 301, "velocity": 110}, {"time": 192481, "pitch": 62, "duration": 301, "velocity": 91}, {"time": 192843, "pitch": 50, "duration": 301, "velocity": 94}, {"time": 192843, "pitch": 54, "duration": 301, "velocity": 88}, {"time": 192843, "pitch": 57, "duration": 301, "velocity": 107}, {"time": 192843, "pitch": 62, "duration": 361, "velocity": 86}, {"time": 193204, "pitch": 50, "duration": 358, "velocity": 103}, {"time": 193204, "pitch": 54, "duration": 358, "velocity": 110}, {"time": 193204, "pitch": 57, "duration": 358, "velocity": 103}, {"time": 193204, "pitch": 62, "duration": 358, "velocity": 102}, {"time": 193680, "pitch": 50, "duration": 59, "velocity": 102}, {"time": 193680, "pitch": 54, "duration": 59, "velocity": 102}, {"time": 193680, "pitch": 57, "duration": 59, "velocity": 102}, {"time": 193680, "pitch": 62, "duration": 59, "velocity": 80}, {"time": 193916, "pitch": 50, "duration": 60, "velocity": 76}, {"time": 193916, "pitch": 54, "duration": 60, "velocity": 102}, {"time": 193916, "pitch": 57, "duration": 60, "velocity": 88}, {"time": 193916, "pitch": 62, "duration": 60, "velocity": 87}, {"time": 194036, "pitch": 50, "duration": 361, "velocity": 106}, {"time": 194036, "pitch": 54, "duration": 361, "velocity": 104}, {"time": 194036, "pitch": 57, "duration": 361, "velocity": 113}, {"time": 194036, "pitch": 62, "duration": 361, "velocity": 111}, {"time": 194397, "pitch": 36, "duration": 542, "velocity": 110}, {"time": 194397, "pitch": 55, "duration": 602, "velocity": 114}, {"time": 194397, "pitch": 59, "duration": 602, "velocity": 107}, {"time": 194397, "pitch": 64, "duration": 602, "velocity": 112}, {"time": 195361, "pitch": 59, "duration": 60, "velocity": 105}, {"time": 195361, "pitch": 64, "duration": 60, "velocity": 100}, {"time": 195361, "pitch": 67, "duration": 120, "velocity": 102}, {"time": 196324, "pitch": 43, "duration": 118, "velocity": 103}, {"time": 196324, "pitch": 62, "duration": 235, "velocity": 112}, {"time": 196324, "pitch": 67, "duration": 294, "velocity": 112}, {"time": 196324, "pitch": 71, "duration": 235, "velocity": 112}, {"time": 196559, "pitch": 43, "duration": 597, "velocity": 96}, {"time": 196677, "pitch": 62, "duration": 238, "velocity": 102}, {"time": 196677, "pitch": 67, "duration": 238, "velocity": 107}, {"time": 196677, "pitch": 72, "duration": 178, "velocity": 107}, {"time": 197036, "pitch": 62, "duration": 301, "velocity": 103}, {"time": 197036, "pitch": 67, "duration": 241, "velocity": 98}, {"time": 197036, "pitch": 71, "duration": 301, "velocity": 112}, {"time": 197517, "pitch": 62, "duration": 121, "velocity": 92}, {"time": 197517, "pitch": 67, "duration": 241, "velocity": 110}, {"time": 197758, "pitch": 62, "duration": 241, "velocity": 105}, {"time": 198240, "pitch": 38, "duration": 180, "velocity": 100}, {"time": 198240, "pitch": 54, "duration": 180, "velocity": 107}, {"time": 198240, "pitch": 57, "duration": 241, "velocity": 110}, {"time": 198240, "pitch": 62, "duration": 241, "velocity": 110}, {"time": 198601, "pitch": 38, "duration": 120, "velocity": 76}, {"time": 198601, "pitch": 54, "duration": 60, "velocity": 98}, {"time": 198601, "pitch": 57, "duration": 120, "velocity": 100}, {"time": 198601, "pitch": 62, "duration": 120, "velocity": 100}, {"time": 198842, "pitch": 38, "duration": 782, "velocity": 84}, {"time": 198962, "pitch": 62, "duration": 301, "velocity": 100}, {"time": 198962, "pitch": 66, "duration": 301, "velocity": 91}, {"time": 198962, "pitch": 69, "duration": 241, "velocity": 98}, {"time": 199444, "pitch": 62, "duration": 358, "velocity": 107}, {"time": 199444, "pitch": 66, "duration": 299, "velocity": 92}, {"time": 199444, "pitch": 69, "duration": 358, "velocity": 98}, {"time": 199920, "pitch": 38, "duration": 177, "velocity": 98}, {"time": 200156, "pitch": 40, "duration": 301, "velocity": 103}, {"time": 200156, "pitch": 59, "duration": 241, "velocity": 105}, {"time": 200156, "pitch": 64, "duration": 241, "velocity": 110}, {"time": 200156, "pitch": 67, "duration": 241, "velocity": 105}, {"time": 200517, "pitch": 59, "duration": 60, "velocity": 96}, {"time": 200517, "pitch": 64, "duration": 60, "velocity": 107}, {"time": 200517, "pitch": 67, "duration": 120, "velocity": 100}, {"time": 200637, "pitch": 40, "duration": 121, "velocity": 100}, {"time": 200878, "pitch": 40, "duration": 903, "velocity": 107}, {"time": 200878, "pitch": 64, "duration": 301, "velocity": 114}, {"time": 200878, "pitch": 67, "duration": 241, "velocity": 107}, {"time": 200878, "pitch": 71, "duration": 241, "velocity": 117}, {"time": 201360, "pitch": 64, "duration": 120, "velocity": 102}, {"time": 201360, "pitch": 67, "duration": 120, "velocity": 100}, {"time": 201360, "pitch": 72, "duration": 120, "velocity": 107}, {"time": 201601, "pitch": 64, "duration": 180, "velocity": 105}, {"time": 201601, "pitch": 67, "duration": 120, "velocity": 98}, {"time": 201601, "pitch": 74, "duration": 180, "velocity": 112}, {"time": 202082, "pitch": 36, "duration": 241, "velocity": 110}, {"time": 202082, "pitch": 64, "duration": 181, "velocity": 105}, {"time": 202082, "pitch": 67, "duration": 181, "velocity": 110}, {"time": 202082, "pitch": 71, "duration": 241, "velocity": 110}, {"time": 202323, "pitch": 43, "duration": 241, "velocity": 100}, {"time": 202564, "pitch": 48, "duration": 118, "velocity": 96}, {"time": 202804, "pitch": 76, "duration": 122, "velocity": 100}, {"time": 202834, "pitch": 79, "duration": 65, "velocity": 109}, {"time": 202852, "pitch": 83, "duration": 371, "velocity": 114}, {"time": 203276, "pitch": 79, "duration": 180, "velocity": 114}, {"time": 203517, "pitch": 76, "duration": 120, "velocity": 102}, {"time": 203757, "pitch": 67, "duration": 61, "velocity": 98}, {"time": 203998, "pitch": 43, "duration": 121, "velocity": 98}, {"time": 203998, "pitch": 62, "duration": 241, "velocity": 112}, {"time": 203998, "pitch": 67, "duration": 241, "velocity": 107}, {"time": 203998, "pitch": 71, "duration": 301, "velocity": 110}, {"time": 204239, "pitch": 43, "duration": 120, "velocity": 91}, {"time": 204359, "pitch": 62, "duration": 181, "velocity": 107}, {"time": 204359, "pitch": 67, "duration": 241, "velocity": 100}, {"time": 204359, "pitch": 72, "duration": 181, "velocity": 107}, {"time": 204600, "pitch": 43, "duration": 121, "velocity": 94}, {"time": 204721, "pitch": 62, "duration": 361, "velocity": 102}, {"time": 204721, "pitch": 67, "duration": 301, "velocity": 94}, {"time": 204721, "pitch": 74, "duration": 240, "velocity": 112}, {"time": 205082, "pitch": 43, "duration": 60, "velocity": 40}, {"time": 205202, "pitch": 62, "duration": 181, "velocity": 107}, {"time": 205202, "pitch": 67, "duration": 181, "velocity": 61}, {"time": 205202, "pitch": 71, "duration": 181, "velocity": 100}, {"time": 205443, "pitch": 62, "duration": 421, "velocity": 98}, {"time": 205443, "pitch": 67, "duration": 421, "velocity": 102}, {"time": 205684, "pitch": 43, "duration": 180, "velocity": 92}, {"time": 205925, "pitch": 45, "duration": 176, "velocity": 114}, {"time": 205925, "pitch": 61, "duration": 235, "velocity": 107}, {"time": 205925, "pitch": 64, "duration": 235, "velocity": 105}, {"time": 205925, "pitch": 69, "duration": 235, "velocity": 103}, {"time": 206160, "pitch": 45, "duration": 597, "velocity": 117}, {"time": 206278, "pitch": 61, "duration": 238, "velocity": 94}, {"time": 206278, "pitch": 64, "duration": 238, "velocity": 107}, {"time": 206278, "pitch": 69, "duration": 238, "velocity": 94}, {"time": 206637, "pitch": 61, "duration": 481, "velocity": 103}, {"time": 206637, "pitch": 64, "duration": 541, "velocity": 114}, {"time": 206637, "pitch": 69, "duration": 421, "velocity": 102}, {"time": 207118, "pitch": 45, "duration": 301, "velocity": 94}, {"time": 207359, "pitch": 61, "duration": 301, "velocity": 103}, {"time": 207359, "pitch": 64, "duration": 301, "velocity": 105}, {"time": 207359, "pitch": 69, "duration": 301, "velocity": 100}, {"time": 207600, "pitch": 45, "duration": 120, "velocity": 76}, {"time": 207841, "pitch": 47, "duration": 421, "velocity": 112}, {"time": 207841, "pitch": 59, "duration": 180, "velocity": 107}, {"time": 207841, "pitch": 64, "duration": 180, "velocity": 107}, {"time": 207841, "pitch": 66, "duration": 240, "velocity": 107}, {"time": 208202, "pitch": 59, "duration": 120, "velocity": 105}, {"time": 208202, "pitch": 64, "duration": 120, "velocity": 98}, {"time": 208202, "pitch": 66, "duration": 120, "velocity": 107}, {"time": 208322, "pitch": 47, "duration": 953, "velocity": 96}, {"time": 208563, "pitch": 59, "duration": 300, "velocity": 114}, {"time": 208563, "pitch": 64, "duration": 300, "velocity": 110}, {"time": 208563, "pitch": 66, "duration": 300, "velocity": 85}, {"time": 208563, "pitch": 69, "duration": 241, "velocity": 105}, {"time": 209039, "pitch": 59, "duration": 59, "velocity": 92}, {"time": 209039, "pitch": 64, "duration": 118, "velocity": 91}, {"time": 209039, "pitch": 66, "duration": 118, "velocity": 80}, {"time": 209039, "pitch": 69, "duration": 118, "velocity": 85}, {"time": 209275, "pitch": 59, "duration": 181, "velocity": 107}, {"time": 209275, "pitch": 64, "duration": 181, "velocity": 100}, {"time": 209275, "pitch": 66, "duration": 181, "velocity": 102}, {"time": 209275, "pitch": 69, "duration": 181, "velocity": 98}, {"time": 209516, "pitch": 47, "duration": 60, "velocity": 94}, {"time": 209757, "pitch": 47, "duration": 240, "velocity": 117}, {"time": 209757, "pitch": 59, "duration": 240, "velocity": 119}, {"time": 209757, "pitch": 63, "duration": 240, "velocity": 103}, {"time": 209757, "pitch": 66, "duration": 240, "velocity": 103}, {"time": 209757, "pitch": 71, "duration": 240, "velocity": 107}, {"time": 227042, "pitch": 40, "duration": 121, "velocity": 100}, {"time": 227042, "pitch": 59, "duration": 241, "velocity": 110}, {"time": 227042, "pitch": 64, "duration": 241, "velocity": 110}, {"time": 227042, "pitch": 67, "duration": 241, "velocity": 105}, {"time": 227283, "pitch": 40, "duration": 181, "velocity": 94}, {"time": 227403, "pitch": 59, "duration": 239, "velocity": 102}, {"time": 227403, "pitch": 64, "duration": 239, "velocity": 105}, {"time": 227403, "pitch": 67, "duration": 239, "velocity": 102}, {"time": 227642, "pitch": 40, "duration": 413, "velocity": 102}, {"time": 227759, "pitch": 59, "duration": 537, "velocity": 105}, {"time": 227759, "pitch": 64, "duration": 537, "velocity": 112}, {"time": 227759, "pitch": 67, "duration": 537, "velocity": 102}, {"time": 228236, "pitch": 40, "duration": 241, "velocity": 98}, {"time": 228477, "pitch": 59, "duration": 361, "velocity": 105}, {"time": 228477, "pitch": 64, "duration": 361, "velocity": 105}, {"time": 228477, "pitch": 67, "duration": 481, "velocity": 102}, {"time": 228597, "pitch": 40, "duration": 361, "velocity": 94}, {"time": 228958, "pitch": 38, "duration": 121, "velocity": 98}, {"time": 228958, "pitch": 57, "duration": 241, "velocity": 102}, {"time": 228958, "pitch": 62, "duration": 241, "velocity": 107}, {"time": 228958, "pitch": 67, "duration": 241, "velocity": 103}, {"time": 229199, "pitch": 38, "duration": 181, "velocity": 85}, {"time": 229319, "pitch": 57, "duration": 241, "velocity": 102}, {"time": 229319, "pitch": 62, "duration": 241, "velocity": 105}, {"time": 229319, "pitch": 67, "duration": 241, "velocity": 98}, {"time": 229560, "pitch": 38, "duration": 422, "velocity": 92}, {"time": 229681, "pitch": 57, "duration": 541, "velocity": 107}, {"time": 229681, "pitch": 62, "duration": 541, "velocity": 105}, {"time": 229681, "pitch": 66, "duration": 541, "velocity": 88}, {"time": 230162, "pitch": 38, "duration": 241, "velocity": 100}, {"time": 230403, "pitch": 57, "duration": 421, "velocity": 110}, {"time": 230403, "pitch": 62, "duration": 421, "velocity": 100}, {"time": 230403, "pitch": 66, "duration": 481, "velocity": 105}, {"time": 230523, "pitch": 38, "duration": 361, "velocity": 86}, {"time": 230884, "pitch": 36, "duration": 118, "velocity": 100}, {"time": 230884, "pitch": 59, "duration": 236, "velocity": 110}, {"time": 230884, "pitch": 64, "duration": 236, "velocity": 110}, {"time": 230884, "pitch": 67, "duration": 236, "velocity": 105}, {"time": 231120, "pitch": 36, "duration": 177, "velocity": 94}, {"time": 231238, "pitch": 59, "duration": 238, "velocity": 102}, {"time": 231238, "pitch": 64, "duration": 238, "velocity": 105}, {"time": 231238, "pitch": 67, "duration": 238, "velocity": 102}, {"time": 231476, "pitch": 36, "duration": 422, "velocity": 102}, {"time": 231597, "pitch": 59, "duration": 541, "velocity": 105}, {"time": 231597, "pitch": 64, "duration": 541, "velocity": 112}, {"time": 231597, "pitch": 67, "duration": 541, "velocity": 102}, {"time": 232078, "pitch": 36, "duration": 241, "velocity": 98}, {"time": 232319, "pitch": 59, "duration": 361, "velocity": 105}, {"time": 232319, "pitch": 64, "duration": 361, "velocity": 105}, {"time": 232319, "pitch": 67, "duration": 482, "velocity": 102}, {"time": 232439, "pitch": 36, "duration": 362, "velocity": 94}, {"time": 232801, "pitch": 43, "duration": 180, "velocity": 107}, {"time": 232801, "pitch": 57, "duration": 240, "velocity": 114}, {"time": 232801, "pitch": 62, "duration": 301, "velocity": 114}, {"time": 232801, "pitch": 67, "duration": 301, "velocity": 110}, {"time": 233041, "pitch": 43, "duration": 241, "velocity": 98}, {"time": 233162, "pitch": 59, "duration": 241, "velocity": 107}, {"time": 233162, "pitch": 62, "duration": 241, "velocity": 114}, {"time": 233162, "pitch": 67, "duration": 241, "velocity": 117}, {"time": 233403, "pitch": 43, "duration": 301, "velocity": 83}, {"time": 233523, "pitch": 57, "duration": 359, "velocity": 119}, {"time": 233523, "pitch": 62, "duration": 417, "velocity": 100}, {"time": 233523, "pitch": 67, "duration": 359, "velocity": 103}, {"time": 233764, "pitch": 43, "duration": 118, "velocity": 66}, {"time": 233999, "pitch": 43, "duration": 59, "velocity": 102}, {"time": 233999, "pitch": 59, "duration": 59, "velocity": 110}, {"time": 233999, "pitch": 62, "duration": 59, "velocity": 100}, {"time": 233999, "pitch": 67, "duration": 59, "velocity": 119}, {"time": 234235, "pitch": 43, "duration": 241, "velocity": 91}, {"time": 234235, "pitch": 59, "duration": 421, "velocity": 102}, {"time": 234235, "pitch": 62, "duration": 421, "velocity": 98}, {"time": 234235, "pitch": 67, "duration": 421, "velocity": 100}, {"time": 234476, "pitch": 43, "duration": 120, "velocity": 100}, {"time": 234596, "pitch": 44, "duration": 121, "velocity": 100}, {"time": 234717, "pitch": 45, "duration": 120, "velocity": 100}, {"time": 234717, "pitch": 55, "duration": 240, "velocity": 110}, {"time": 234717, "pitch": 60, "duration": 240, "velocity": 110}, {"time": 234717, "pitch": 64, "duration": 240, "velocity": 105}, {"time": 234957, "pitch": 45, "duration": 181, "velocity": 94}, {"time": 235078, "pitch": 55, "duration": 241, "velocity": 102}, {"time": 235078, "pitch": 60, "duration": 241, "velocity": 105}, {"time": 235078, "pitch": 64, "duration": 241, "velocity": 102}, {"time": 235319, "pitch": 45, "duration": 421, "velocity": 102}, {"time": 235439, "pitch": 55, "duration": 542, "velocity": 105}, {"time": 235439, "pitch": 60, "duration": 542, "velocity": 112}, {"time": 235439, "pitch": 64, "duration": 542, "velocity": 102}, {"time": 235921, "pitch": 45, "duration": 240, "velocity": 98}, {"time": 236161, "pitch": 55, "duration": 362, "velocity": 105}, {"time": 236161, "pitch": 60, "duration": 362, "velocity": 105}, {"time": 236161, "pitch": 64, "duration": 482, "velocity": 102}, {"time": 236282, "pitch": 45, "duration": 361, "velocity": 94}, {"time": 236643, "pitch": 43, "duration": 120, "velocity": 98}, {"time": 236643, "pitch": 59, "duration": 241, "velocity": 102}, {"time": 236643, "pitch": 62, "duration": 241, "velocity": 107}, {"time": 236643, "pitch": 67, "duration": 241, "velocity": 103}, {"time": 236884, "pitch": 43, "duration": 180, "velocity": 85}, {"time": 237004, "pitch": 59, "duration": 238, "velocity": 102}, {"time": 237004, "pitch": 62, "duration": 238, "velocity": 105}, {"time": 237004, "pitch": 67, "duration": 238, "velocity": 98}, {"time": 237242, "pitch": 43, "duration": 414, "velocity": 92}, {"time": 237360, "pitch": 59, "duration": 537, "velocity": 107}, {"time": 237360, "pitch": 62, "duration": 537, "velocity": 105}, {"time": 237360, "pitch": 67, "duration": 537, "velocity": 88}, {"time": 237837, "pitch": 43, "duration": 240, "velocity": 100}, {"time": 238077, "pitch": 59, "duration": 422, "velocity": 110}, {"time": 238077, "pitch": 62, "duration": 422, "velocity": 100}, {"time": 238077, "pitch": 67, "duration": 482, "velocity": 105}, {"time": 238198, "pitch": 43, "duration": 120, "velocity": 86}, {"time": 238318, "pitch": 43, "duration": 121, "velocity": 100}, {"time": 238439, "pitch": 44, "duration": 120, "velocity": 100}, {"time": 238559, "pitch": 45, "duration": 120, "velocity": 100}, {"time": 238559, "pitch": 55, "duration": 241, "velocity": 110}, {"time": 238559, "pitch": 60, "duration": 241, "velocity": 110}, {"time": 238559, "pitch": 64, "duration": 241, "velocity": 105}, {"time": 238800, "pitch": 45, "duration": 180, "velocity": 94}, {"time": 238920, "pitch": 55, "duration": 241, "velocity": 102}, {"time": 238920, "pitch": 60, "duration": 241, "velocity": 105}, {"time": 238920, "pitch": 64, "duration": 241, "velocity": 102}, {"time": 239161, "pitch": 45, "duration": 421, "velocity": 102}, {"time": 239281, "pitch": 55, "duration": 542, "velocity": 105}, {"time": 239281, "pitch": 60, "duration": 542, "velocity": 112}, {"time": 239281, "pitch": 64, "duration": 542, "velocity": 102}, {"time": 239763, "pitch": 45, "duration": 241, "velocity": 98}, {"time": 240004, "pitch": 55, "duration": 353, "velocity": 105}, {"time": 240004, "pitch": 60, "duration": 353, "velocity": 105}, {"time": 240004, "pitch": 64, "duration": 471, "velocity": 102}, {"time": 240122, "pitch": 45, "duration": 117, "velocity": 94}, {"time": 240239, "pitch": 45, "duration": 118, "velocity": 100}, {"time": 240357, "pitch": 45, "duration": 118, "velocity": 100}, {"time": 240475, "pitch": 50, "duration": 241, "velocity": 107}, {"time": 240475, "pitch": 54, "duration": 301, "velocity": 103}, {"time": 240475, "pitch": 57, "duration": 301, "velocity": 110}, {"time": 240475, "pitch": 62, "duration": 301, "velocity": 91}, {"time": 240836, "pitch": 50, "duration": 301, "velocity": 94}, {"time": 240836, "pitch": 54, "duration": 301, "velocity": 88}, {"time": 240836, "pitch": 57, "duration": 301, "velocity": 107}, {"time": 240836, "pitch": 62, "duration": 361, "velocity": 86}, {"time": 241197, "pitch": 50, "duration": 362, "velocity": 103}, {"time": 241197, "pitch": 54, "duration": 362, "velocity": 110}, {"time": 241197, "pitch": 57, "duration": 362, "velocity": 103}, {"time": 241197, "pitch": 62, "duration": 362, "velocity": 102}, {"time": 241679, "pitch": 50, "duration": 60, "velocity": 102}, {"time": 241679, "pitch": 54, "duration": 60, "velocity": 102}, {"time": 241679, "pitch": 57, "duration": 60, "velocity": 102}, {"time": 241679, "pitch": 62, "duration": 60, "velocity": 80}, {"time": 241920, "pitch": 50, "duration": 60, "velocity": 76}, {"time": 241920, "pitch": 54, "duration": 60, "velocity": 102}, {"time": 241920, "pitch": 57, "duration": 60, "velocity": 88}, {"time": 241920, "pitch": 62, "duration": 60, "velocity": 87}, {"time": 242040, "pitch": 50, "duration": 361, "velocity": 106}, {"time": 242040, "pitch": 54, "duration": 361, "velocity": 104}, {"time": 242040, "pitch": 57, "duration": 361, "velocity": 113}, {"time": 242040, "pitch": 62, "duration": 361, "velocity": 111}, {"time": 246244, "pitch": 40, "duration": 176, "velocity": 112}, {"time": 246244, "pitch": 55, "duration": 235, "velocity": 112}, {"time": 246244, "pitch": 59, "duration": 294, "velocity": 112}, {"time": 246244, "pitch": 64, "duration": 294, "velocity": 105}, {"time": 246479, "pitch": 40, "duration": 236, "velocity": 105}, {"time": 246597, "pitch": 55, "duration": 238, "velocity": 105}, {"time": 246597, "pitch": 59, "duration": 299, "velocity": 110}, {"time": 246597, "pitch": 64, "duration": 299, "velocity": 112}, {"time": 246835, "pitch": 40, "duration": 422, "velocity": 110}, {"time": 246956, "pitch": 55, "duration": 542, "velocity": 103}, {"time": 246956, "pitch": 59, "duration": 602, "velocity": 103}, {"time": 246956, "pitch": 64, "duration": 542, "velocity": 112}, {"time": 247437, "pitch": 40, "duration": 241, "velocity": 105}, {"time": 247678, "pitch": 40, "duration": 301, "velocity": 107}, {"time": 247678, "pitch": 55, "duration": 361, "velocity": 110}, {"time": 247678, "pitch": 59, "duration": 301, "velocity": 110}, {"time": 247678, "pitch": 64, "duration": 301, "velocity": 102}, {"time": 248039, "pitch": 38, "duration": 121, "velocity": 98}, {"time": 248160, "pitch": 54, "duration": 301, "velocity": 107}, {"time": 248160, "pitch": 57, "duration": 301, "velocity": 107}, {"time": 248160, "pitch": 62, "duration": 301, "velocity": 102}, {"time": 248401, "pitch": 38, "duration": 301, "velocity": 98}, {"time": 248521, "pitch": 54, "duration": 241, "velocity": 92}, {"time": 248521, "pitch": 57, "duration": 301, "velocity": 105}, {"time": 248521, "pitch": 62, "duration": 301, "velocity": 105}, {"time": 248762, "pitch": 38, "duration": 481, "velocity": 100}, {"time": 248882, "pitch": 54, "duration": 542, "velocity": 102}, {"time": 248882, "pitch": 57, "duration": 542, "velocity": 105}, {"time": 248882, "pitch": 62, "duration": 542, "velocity": 107}, {"time": 249364, "pitch": 38, "duration": 240, "velocity": 107}, {"time": 249604, "pitch": 54, "duration": 354, "velocity": 100}, {"time": 249604, "pitch": 57, "duration": 354, "velocity": 96}, {"time": 249604, "pitch": 62, "duration": 354, "velocity": 103}, {"time": 249722, "pitch": 38, "duration": 295, "velocity": 103}, {"time": 249958, "pitch": 36, "duration": 178, "velocity": 110}, {"time": 250076, "pitch": 55, "duration": 241, "velocity": 112}, {"time": 250076, "pitch": 59, "duration": 241, "velocity": 107}, {"time": 250076, "pitch": 64, "duration": 301, "velocity": 112}, {"time": 250317, "pitch": 36, "duration": 180, "velocity": 105}, {"time": 250437, "pitch": 55, "duration": 241, "velocity": 98}, {"time": 250437, "pitch": 59, "duration": 301, "velocity": 103}, {"time": 250437, "pitch": 64, "duration": 301, "velocity": 107}, {"time": 250678, "pitch": 36, "duration": 542, "velocity": 105}, {"time": 250798, "pitch": 55, "duration": 542, "velocity": 110}, {"time": 250798, "pitch": 59, "duration": 602, "velocity": 102}, {"time": 250798, "pitch": 64, "duration": 542, "velocity": 103}, {"time": 251280, "pitch": 36, "duration": 241, "velocity": 105}, {"time": 251521, "pitch": 55, "duration": 421, "velocity": 122}, {"time": 251521, "pitch": 59, "duration": 421, "velocity": 100}, {"time": 251521, "pitch": 64, "duration": 421, "velocity": 103}, {"time": 251641, "pitch": 36, "duration": 361, "velocity": 100}, {"time": 252002, "pitch": 36, "duration": 181, "velocity": 119}, {"time": 252002, "pitch": 55, "duration": 241, "velocity": 112}, {"time": 252002, "pitch": 59, "duration": 241, "velocity": 107}, {"time": 252002, "pitch": 64, "duration": 241, "velocity": 114}, {"time": 252243, "pitch": 36, "duration": 181, "velocity": 103}, {"time": 252363, "pitch": 55, "duration": 239, "velocity": 102}, {"time": 252363, "pitch": 59, "duration": 297, "velocity": 103}, {"time": 252363, "pitch": 64, "duration": 239, "velocity": 110}, {"time": 252602, "pitch": 36, "duration": 473, "velocity": 96}, {"time": 252719, "pitch": 55, "duration": 477, "velocity": 110}, {"time": 252719, "pitch": 59, "duration": 537, "velocity": 102}, {"time": 252719, "pitch": 64, "duration": 537, "velocity": 107}, {"time": 253196, "pitch": 36, "duration": 241, "velocity": 105}, {"time": 253437, "pitch": 55, "duration": 421, "velocity": 119}, {"time": 253437, "pitch": 59, "duration": 481, "velocity": 102}, {"time": 253437, "pitch": 64, "duration": 481, "velocity": 105}, {"time": 253557, "pitch": 36, "duration": 361, "velocity": 110}, {"time": 253918, "pitch": 40, "duration": 181, "velocity": 112}, {"time": 253918, "pitch": 55, "duration": 241, "velocity": 112}, {"time": 253918, "pitch": 59, "duration": 301, "velocity": 112}, {"time": 253918, "pitch": 64, "duration": 301, "velocity": 105}, {"time": 254159, "pitch": 40, "duration": 241, "velocity": 105}, {"time": 254279, "pitch": 55, "duration": 241, "velocity": 105}, {"time": 254279, "pitch": 59, "duration": 301, "velocity": 110}, {"time": 254279, "pitch": 64, "duration": 301, "velocity": 112}, {"time": 254520, "pitch": 40, "duration": 422, "velocity": 110}, {"time": 254641, "pitch": 55, "duration": 541, "velocity": 103}, {"time": 254641, "pitch": 59, "duration": 602, "velocity": 103}, {"time": 254641, "pitch": 64, "duration": 541, "velocity": 112}, {"time": 255122, "pitch": 40, "duration": 241, "velocity": 105}, {"time": 255363, "pitch": 40, "duration": 301, "velocity": 107}, {"time": 255363, "pitch": 55, "duration": 361, "velocity": 110}, {"time": 255363, "pitch": 59, "duration": 301, "velocity": 110}, {"time": 255363, "pitch": 64, "duration": 301, "velocity": 102}, {"time": 255724, "pitch": 38, "duration": 120, "velocity": 98}, {"time": 255844, "pitch": 54, "duration": 295, "velocity": 107}, {"time": 255844, "pitch": 57, "duration": 295, "velocity": 107}, {"time": 255844, "pitch": 62, "duration": 295, "velocity": 102}, {"time": 256080, "pitch": 38, "duration": 296, "velocity": 98}, {"time": 256198, "pitch": 54, "duration": 238, "velocity": 92}, {"time": 256198, "pitch": 57, "duration": 298, "velocity": 105}, {"time": 256198, "pitch": 62, "duration": 298, "velocity": 105}, {"time": 256436, "pitch": 38, "duration": 482, "velocity": 100}, {"time": 256557, "pitch": 54, "duration": 541, "velocity": 102}, {"time": 256557, "pitch": 57, "duration": 541, "velocity": 105}, {"time": 256557, "pitch": 62, "duration": 541, "velocity": 107}, {"time": 257038, "pitch": 38, "duration": 241, "velocity": 107}, {"time": 257279, "pitch": 54, "duration": 361, "velocity": 100}, {"time": 257279, "pitch": 57, "duration": 361, "velocity": 96}, {"time": 257279, "pitch": 62, "duration": 361, "velocity": 103}, {"time": 257399, "pitch": 38, "duration": 301, "velocity": 103}, {"time": 257640, "pitch": 36, "duration": 181, "velocity": 110}, {"time": 257761, "pitch": 55, "duration": 240, "velocity": 112}, {"time": 257761, "pitch": 59, "duration": 240, "velocity": 107}, {"time": 257761, "pitch": 64, "duration": 301, "velocity": 112}, {"time": 258001, "pitch": 36, "duration": 181, "velocity": 105}, {"time": 258122, "pitch": 55, "duration": 241, "velocity": 98}, {"time": 258122, "pitch": 59, "duration": 301, "velocity": 103}, {"time": 258122, "pitch": 64, "duration": 301, "velocity": 107}, {"time": 258363, "pitch": 36, "duration": 537, "velocity": 105}, {"time": 258483, "pitch": 55, "duration": 535, "velocity": 110}, {"time": 258483, "pitch": 59, "duration": 594, "velocity": 102}, {"time": 258483, "pitch": 64, "duration": 535, "velocity": 103}, {"time": 258959, "pitch": 36, "duration": 236, "velocity": 105}, {"time": 259195, "pitch": 55, "duration": 421, "velocity": 122}, {"time": 259195, "pitch": 59, "duration": 421, "velocity": 100}, {"time": 259195, "pitch": 64, "duration": 421, "velocity": 103}, {"time": 259315, "pitch": 36, "duration": 362, "velocity": 100}, {"time": 259677, "pitch": 36, "duration": 180, "velocity": 119}, {"time": 259677, "pitch": 55, "duration": 240, "velocity": 112}, {"time": 259677, "pitch": 59, "duration": 240, "velocity": 107}, {"time": 259677, "pitch": 64, "duration": 240, "velocity": 114}, {"time": 259917, "pitch": 36, "duration": 181, "velocity": 103}, {"time": 260038, "pitch": 55, "duration": 241, "velocity": 102}, {"time": 260038, "pitch": 59, "duration": 301, "velocity": 103}, {"time": 260038, "pitch": 64, "duration": 241, "velocity": 110}, {"time": 260279, "pitch": 36, "duration": 481, "velocity": 96}, {"time": 260399, "pitch": 55, "duration": 482, "velocity": 110}, {"time": 260399, "pitch": 59, "duration": 542, "velocity": 102}, {"time": 260399, "pitch": 64, "duration": 542, "velocity": 107}, {"time": 260881, "pitch": 36, "duration": 240, "velocity": 105}, {"time": 261121, "pitch": 55, "duration": 422, "velocity": 119}, {"time": 261121, "pitch": 59, "duration": 482, "velocity": 102}, {"time": 261121, "pitch": 64, "duration": 482, "velocity": 105}, {"time": 261242, "pitch": 36, "duration": 361, "velocity": 110}, {"time": 261603, "pitch": 40, "duration": 181, "velocity": 112}, {"time": 261603, "pitch": 55, "duration": 241, "velocity": 112}, {"time": 261603, "pitch": 59, "duration": 301, "velocity": 112}, {"time": 261603, "pitch": 64, "duration": 301, "velocity": 105}, {"time": 261844, "pitch": 40, "duration": 240, "velocity": 105}, {"time": 261964, "pitch": 55, "duration": 238, "velocity": 105}, {"time": 261964, "pitch": 59, "duration": 297, "velocity": 110}, {"time": 261964, "pitch": 64, "duration": 297, "velocity": 112}, {"time": 262202, "pitch": 40, "duration": 414, "velocity": 110}, {"time": 262320, "pitch": 55, "duration": 537, "velocity": 103}, {"time": 262320, "pitch": 59, "duration": 597, "velocity": 103}, {"time": 262320, "pitch": 64, "duration": 537, "velocity": 112}, {"time": 262797, "pitch": 40, "duration": 240, "velocity": 105}, {"time": 263037, "pitch": 40, "duration": 301, "velocity": 107}, {"time": 263037, "pitch": 55, "duration": 362, "velocity": 110}, {"time": 263037, "pitch": 59, "duration": 301, "velocity": 110}, {"time": 263037, "pitch": 64, "duration": 301, "velocity": 102}, {"time": 263399, "pitch": 38, "duration": 120, "velocity": 98}, {"time": 263519, "pitch": 54, "duration": 301, "velocity": 107}, {"time": 263519, "pitch": 57, "duration": 301, "velocity": 107}, {"time": 263519, "pitch": 62, "duration": 301, "velocity": 102}, {"time": 263760, "pitch": 38, "duration": 301, "velocity": 98}, {"time": 263880, "pitch": 54, "duration": 241, "velocity": 92}, {"time": 263880, "pitch": 57, "duration": 301, "velocity": 105}, {"time": 263880, "pitch": 62, "duration": 301, "velocity": 105}, {"time": 264121, "pitch": 38, "duration": 482, "velocity": 100}, {"time": 264241, "pitch": 54, "duration": 542, "velocity": 102}, {"time": 264241, "pitch": 57, "duration": 542, "velocity": 105}, {"time": 264241, "pitch": 62, "duration": 542, "velocity": 107}, {"time": 264723, "pitch": 38, "duration": 241, "velocity": 107}, {"time": 264964, "pitch": 54, "duration": 353, "velocity": 100}, {"time": 264964, "pitch": 57, "duration": 353, "velocity": 96}, {"time": 264964, "pitch": 62, "duration": 353, "velocity": 103}, {"time": 265082, "pitch": 38, "duration": 294, "velocity": 103}, {"time": 265317, "pitch": 36, "duration": 178, "velocity": 110}, {"time": 265435, "pitch": 55, "duration": 241, "velocity": 112}, {"time": 265435, "pitch": 59, "duration": 241, "velocity": 107}, {"time": 265435, "pitch": 64, "duration": 301, "velocity": 112}, {"time": 265676, "pitch": 36, "duration": 180, "velocity": 105}, {"time": 265796, "pitch": 55, "duration": 241, "velocity": 98}, {"time": 265796, "pitch": 59, "duration": 301, "velocity": 103}, {"time": 265796, "pitch": 64, "duration": 301, "velocity": 107}, {"time": 266037, "pitch": 36, "duration": 542, "velocity": 105}, {"time": 266157, "pitch": 55, "duration": 542, "velocity": 110}, {"time": 266157, "pitch": 59, "duration": 602, "velocity": 102}, {"time": 266157, "pitch": 64, "duration": 542, "velocity": 103}, {"time": 266639, "pitch": 36, "duration": 241, "velocity": 105}, {"time": 266880, "pitch": 55, "duration": 421, "velocity": 122}, {"time": 266880, "pitch": 59, "duration": 421, "velocity": 100}, {"time": 266880, "pitch": 64, "duration": 421, "velocity": 103}, {"time": 267000, "pitch": 36, "duration": 361, "velocity": 100}, {"time": 267361, "pitch": 36, "duration": 181, "velocity": 119}, {"time": 267361, "pitch": 55, "duration": 241, "velocity": 112}, {"time": 267361, "pitch": 59, "duration": 241, "velocity": 107}, {"time": 267361, "pitch": 64, "duration": 241, "velocity": 114}, {"time": 267602, "pitch": 36, "duration": 181, "velocity": 103}, {"time": 267723, "pitch": 55, "duration": 240, "velocity": 102}, {"time": 267723, "pitch": 59, "duration": 301, "velocity": 103}, {"time": 267723, "pitch": 64, "duration": 240, "velocity": 110}, {"time": 267963, "pitch": 36, "duration": 479, "velocity": 96}, {"time": 268084, "pitch": 55, "duration": 476, "velocity": 110}, {"time": 268084, "pitch": 59, "duration": 535, "velocity": 102}, {"time": 268084, "pitch": 64, "duration": 535, "velocity": 107}, {"time": 268560, "pitch": 36, "duration": 236, "velocity": 105}, {"time": 268796, "pitch": 55, "duration": 421, "velocity": 119}, {"time": 268796, "pitch": 59, "duration": 481, "velocity": 102}, {"time": 268796, "pitch": 64, "duration": 481, "velocity": 105}, {"time": 268916, "pitch": 36, "duration": 361, "velocity": 110}, {"time": 269277, "pitch": 40, "duration": 181, "velocity": 112}, {"time": 269277, "pitch": 55, "duration": 241, "velocity": 112}, {"time": 269277, "pitch": 59, "duration": 301, "velocity": 112}, {"time": 269277, "pitch": 64, "duration": 301, "velocity": 105}, {"time": 269518, "pitch": 40, "duration": 241, "velocity": 105}, {"time": 269639, "pitch": 55, "duration": 240, "velocity": 105}, {"time": 269639, "pitch": 59, "duration": 301, "velocity": 110}, {"time": 269639, "pitch": 64, "duration": 301, "velocity": 112}, {"time": 269879, "pitch": 40, "duration": 422, "velocity": 110}, {"time": 270000, "pitch": 55, "duration": 542, "velocity": 103}, {"time": 270000, "pitch": 59, "duration": 602, "velocity": 103}, {"time": 270000, "pitch": 64, "duration": 542, "velocity": 112}, {"time": 270481, "pitch": 40, "duration": 241, "velocity": 105}, {"time": 270722, "pitch": 40, "duration": 301, "velocity": 107}, {"time": 270722, "pitch": 55, "duration": 361, "velocity": 110}, {"time": 270722, "pitch": 59, "duration": 301, "velocity": 110}, {"time": 270722, "pitch": 64, "duration": 301, "velocity": 102}, {"time": 271083, "pitch": 38, "duration": 121, "velocity": 98}, {"time": 271204, "pitch": 54, "duration": 294, "velocity": 107}, {"time": 271204, "pitch": 57, "duration": 294, "velocity": 107}, {"time": 271204, "pitch": 62, "duration": 294, "velocity": 102}, {"time": 271439, "pitch": 38, "duration": 296, "velocity": 98}, {"time": 271557, "pitch": 54, "duration": 238, "velocity": 92}, {"time": 271557, "pitch": 57, "duration": 299, "velocity": 105}, {"time": 271557, "pitch": 62, "duration": 299, "velocity": 105}, {"time": 271795, "pitch": 38, "duration": 482, "velocity": 100}, {"time": 271916, "pitch": 54, "duration": 542, "velocity": 102}, {"time": 271916, "pitch": 57, "duration": 542, "velocity": 105}, {"time": 271916, "pitch": 62, "duration": 542, "velocity": 107}, {"time": 272397, "pitch": 38, "duration": 241, "velocity": 107}, {"time": 272638, "pitch": 54, "duration": 361, "velocity": 100}, {"time": 272638, "pitch": 57, "duration": 361, "velocity": 96}, {"time": 272638, "pitch": 62, "duration": 361, "velocity": 103}, {"time": 272759, "pitch": 38, "duration": 301, "velocity": 103}, {"time": 272999, "pitch": 36, "duration": 181, "velocity": 110}, {"time": 273120, "pitch": 55, "duration": 241, "velocity": 112}, {"time": 273120, "pitch": 59, "duration": 241, "velocity": 107}, {"time": 273120, "pitch": 64, "duration": 301, "velocity": 112}, {"time": 273361, "pitch": 36, "duration": 180, "velocity": 105}, {"time": 273481, "pitch": 55, "duration": 241, "velocity": 98}, {"time": 273481, "pitch": 59, "duration": 301, "velocity": 103}, {"time": 273481, "pitch": 64, "duration": 301, "velocity": 107}, {"time": 273722, "pitch": 36, "duration": 542, "velocity": 105}, {"time": 273842, "pitch": 55, "duration": 542, "velocity": 110}, {"time": 273842, "pitch": 59, "duration": 602, "velocity": 102}, {"time": 273842, "pitch": 64, "duration": 542, "velocity": 103}, {"time": 274324, "pitch": 36, "duration": 240, "velocity": 105}, {"time": 274564, "pitch": 55, "duration": 413, "velocity": 122}, {"time": 274564, "pitch": 59, "duration": 413, "velocity": 100}, {"time": 274564, "pitch": 64, "duration": 413, "velocity": 103}, {"time": 274682, "pitch": 36, "duration": 354, "velocity": 100}, {"time": 275036, "pitch": 36, "duration": 180, "velocity": 119}, {"time": 275036, "pitch": 55, "duration": 241, "velocity": 112}, {"time": 275036, "pitch": 59, "duration": 241, "velocity": 107}, {"time": 275036, "pitch": 64, "duration": 241, "velocity": 114}, {"time": 275277, "pitch": 36, "duration": 180, "velocity": 103}, {"time": 275397, "pitch": 55, "duration": 241, "velocity": 102}, {"time": 275397, "pitch": 59, "duration": 301, "velocity": 103}, {"time": 275397, "pitch": 64, "duration": 241, "velocity": 110}, {"time": 275638, "pitch": 36, "duration": 481, "velocity": 96}, {"time": 275758, "pitch": 55, "duration": 482, "velocity": 110}, {"time": 275758, "pitch": 59, "duration": 542, "velocity": 102}, {"time": 275758, "pitch": 64, "duration": 542, "velocity": 107}, {"time": 276240, "pitch": 36, "duration": 241, "velocity": 105}, {"time": 276481, "pitch": 55, "duration": 421, "velocity": 119}, {"time": 276481, "pitch": 59, "duration": 481, "velocity": 102}, {"time": 276481, "pitch": 64, "duration": 481, "velocity": 105}, {"time": 276601, "pitch": 36, "duration": 361, "velocity": 110}, {"time": 276962, "pitch": 40, "duration": 181, "velocity": 112}, {"time": 276962, "pitch": 55, "duration": 241, "velocity": 112}, {"time": 276962, "pitch": 59, "duration": 301, "velocity": 112}, {"time": 276962, "pitch": 64, "duration": 301, "velocity": 105}, {"time": 277203, "pitch": 40, "duration": 241, "velocity": 105}, {"time": 277323, "pitch": 55, "duration": 238, "velocity": 105}, {"time": 277323, "pitch": 59, "duration": 297, "velocity": 110}, {"time": 277323, "pitch": 64, "duration": 297, "velocity": 112}, {"time": 277561, "pitch": 40, "duration": 414, "velocity": 110}, {"time": 277679, "pitch": 55, "duration": 537, "velocity": 103}, {"time": 277679, "pitch": 59, "duration": 597, "velocity": 103}, {"time": 277679, "pitch": 64, "duration": 537, "velocity": 112}, {"time": 278156, "pitch": 40, "duration": 241, "velocity": 105}, {"time": 278397, "pitch": 40, "duration": 301, "velocity": 107}, {"time": 278397, "pitch": 55, "duration": 361, "velocity": 110}, {"time": 278397, "pitch": 59, "duration": 301, "velocity": 110}, {"time": 278397, "pitch": 64, "duration": 301, "velocity": 102}, {"time": 278758, "pitch": 38, "duration": 120, "velocity": 98}, {"time": 278878, "pitch": 54, "duration": 301, "velocity": 107}, {"time": 278878, "pitch": 57, "duration": 301, "velocity": 107}, {"time": 278878, "pitch": 62, "duration": 301, "velocity": 102}, {"time": 279119, "pitch": 38, "duration": 301, "velocity": 98}, {"time": 279239, "pitch": 54, "duration": 241, "velocity": 92}, {"time": 279239, "pitch": 57, "duration": 301, "velocity": 105}, {"time": 279239, "pitch": 62, "duration": 301, "velocity": 105}, {"time": 279480, "pitch": 38, "duration": 482, "velocity": 100}, {"time": 279601, "pitch": 54, "duration": 541, "velocity": 102}, {"time": 279601, "pitch": 57, "duration": 541, "velocity": 105}, {"time": 279601, "pitch": 62, "duration": 541, "velocity": 107}, {"time": 280082, "pitch": 38, "duration": 241, "velocity": 107}, {"time": 280323, "pitch": 54, "duration": 361, "velocity": 100}, {"time": 280323, "pitch": 57, "duration": 361, "velocity": 96}, {"time": 280323, "pitch": 62, "duration": 361, "velocity": 103}, {"time": 280443, "pitch": 38, "duration": 301, "velocity": 103}, {"time": 280684, "pitch": 36, "duration": 179, "velocity": 110}, {"time": 280804, "pitch": 55, "duration": 236, "velocity": 112}, {"time": 280804, "pitch": 59, "duration": 236, "velocity": 107}, {"time": 280804, "pitch": 64, "duration": 295, "velocity": 112}, {"time": 281040, "pitch": 36, "duration": 177, "velocity": 105}, {"time": 281158, "pitch": 55, "duration": 238, "velocity": 98}, {"time": 281158, "pitch": 59, "duration": 298, "velocity": 103}, {"time": 281158, "pitch": 64, "duration": 298, "velocity": 107}, {"time": 281396, "pitch": 36, "duration": 542, "velocity": 105}, {"time": 281517, "pitch": 55, "duration": 541, "velocity": 110}, {"time": 281517, "pitch": 59, "duration": 602, "velocity": 102}, {"time": 281517, "pitch": 64, "duration": 541, "velocity": 103}, {"time": 281998, "pitch": 36, "duration": 241, "velocity": 105}, {"time": 282239, "pitch": 55, "duration": 421, "velocity": 122}, {"time": 282239, "pitch": 59, "duration": 421, "velocity": 100}, {"time": 282239, "pitch": 64, "duration": 421, "velocity": 103}, {"time": 282359, "pitch": 36, "duration": 362, "velocity": 100}, {"time": 282721, "pitch": 36, "duration": 180, "velocity": 119}, {"time": 282721, "pitch": 55, "duration": 240, "velocity": 112}, {"time": 282721, "pitch": 59, "duration": 240, "velocity": 107}, {"time": 282721, "pitch": 64, "duration": 240, "velocity": 114}, {"time": 282961, "pitch": 36, "duration": 181, "velocity": 103}, {"time": 283082, "pitch": 55, "duration": 241, "velocity": 102}, {"time": 283082, "pitch": 59, "duration": 301, "velocity": 103}, {"time": 283082, "pitch": 64, "duration": 241, "velocity": 110}, {"time": 283323, "pitch": 36, "duration": 481, "velocity": 96}, {"time": 283443, "pitch": 55, "duration": 482, "velocity": 110}, {"time": 283443, "pitch": 59, "duration": 542, "velocity": 102}, {"time": 283443, "pitch": 64, "duration": 542, "velocity": 107}, {"time": 283925, "pitch": 36, "duration": 240, "velocity": 105}, {"time": 284165, "pitch": 55, "duration": 422, "velocity": 119}, {"time": 284165, "pitch": 59, "duration": 482, "velocity": 102}, {"time": 284165, "pitch": 64, "duration": 482, "velocity": 105}, {"time": 284286, "pitch": 36, "duration": 361, "velocity": 110}, {"time": 284647, "pitch": 40, "duration": 181, "velocity": 112}, {"time": 284647, "pitch": 55, "duration": 241, "velocity": 112}, {"time": 284647, "pitch": 59, "duration": 301, "velocity": 112}, {"time": 284647, "pitch": 64, "duration": 301, "velocity": 105}, {"time": 284888, "pitch": 40, "duration": 241, "velocity": 105}, {"time": 285008, "pitch": 55, "duration": 241, "velocity": 105}, {"time": 285008, "pitch": 59, "duration": 301, "velocity": 110}, {"time": 285008, "pitch": 64, "duration": 301, "velocity": 112}, {"time": 285249, "pitch": 40, "duration": 421, "velocity": 110}, {"time": 285369, "pitch": 55, "duration": 542, "velocity": 103}, {"time": 285369, "pitch": 59, "duration": 602, "velocity": 103}, {"time": 285369, "pitch": 64, "duration": 542, "velocity": 112}, {"time": 285851, "pitch": 40, "duration": 241, "velocity": 105}, {"time": 286092, "pitch": 40, "duration": 301, "velocity": 107}, {"time": 286092, "pitch": 55, "duration": 361, "velocity": 110}, {"time": 286092, "pitch": 59, "duration": 301, "velocity": 110}, {"time": 286092, "pitch": 64, "duration": 301, "velocity": 102}, {"time": 286453, "pitch": 38, "duration": 120, "velocity": 98}, {"time": 286573, "pitch": 54, "duration": 301, "velocity": 107}, {"time": 286573, "pitch": 57, "duration": 301, "velocity": 107}, {"time": 286573, "pitch": 62, "duration": 301, "velocity": 102}, {"time": 286814, "pitch": 38, "duration": 301, "velocity": 98}, {"time": 286935, "pitch": 54, "duration": 240, "velocity": 92}, {"time": 286935, "pitch": 57, "duration": 301, "velocity": 105}, {"time": 286935, "pitch": 62, "duration": 301, "velocity": 105}, {"time": 287175, "pitch": 38, "duration": 482, "velocity": 100}, {"time": 287296, "pitch": 54, "duration": 542, "velocity": 102}, {"time": 287296, "pitch": 57, "duration": 542, "velocity": 105}, {"time": 287296, "pitch": 62, "duration": 542, "velocity": 107}, {"time": 287777, "pitch": 38, "duration": 241, "velocity": 107}, {"time": 288018, "pitch": 54, "duration": 361, "velocity": 100}, {"time": 288018, "pitch": 57, "duration": 361, "velocity": 96}, {"time": 288018, "pitch": 62, "duration": 361, "velocity": 103}, {"time": 288139, "pitch": 38, "duration": 301, "velocity": 103}, {"time": 288379, "pitch": 36, "duration": 181, "velocity": 110}, {"time": 288500, "pitch": 55, "duration": 241, "velocity": 112}, {"time": 288500, "pitch": 59, "duration": 241, "velocity": 107}, {"time": 288500, "pitch": 64, "duration": 301, "velocity": 112}, {"time": 288741, "pitch": 36, "duration": 180, "velocity": 105}, {"time": 288861, "pitch": 55, "duration": 241, "velocity": 98}, {"time": 288861, "pitch": 59, "duration": 301, "velocity": 103}, {"time": 288861, "pitch": 64, "duration": 301, "velocity": 107}, {"time": 289102, "pitch": 36, "duration": 542, "velocity": 105}, {"time": 289222, "pitch": 55, "duration": 542, "velocity": 110}, {"time": 289222, "pitch": 59, "duration": 602, "velocity": 102}, {"time": 289222, "pitch": 64, "duration": 542, "velocity": 103}, {"time": 289704, "pitch": 36, "duration": 241, "velocity": 105}, {"time": 289945, "pitch": 55, "duration": 421, "velocity": 122}, {"time": 289945, "pitch": 59, "duration": 421, "velocity": 100}, {"time": 289945, "pitch": 64, "duration": 421, "velocity": 103}, {"time": 290065, "pitch": 36, "duration": 361, "velocity": 100}, {"time": 290426, "pitch": 36, "duration": 181, "velocity": 119}, {"time": 290426, "pitch": 55, "duration": 241, "velocity": 112}, {"time": 290426, "pitch": 59, "duration": 241, "velocity": 107}, {"time": 290426, "pitch": 64, "duration": 241, "velocity": 114}, {"time": 290667, "pitch": 36, "duration": 181, "velocity": 103}, {"time": 290787, "pitch": 55, "duration": 241, "velocity": 102}, {"time": 290787, "pitch": 59, "duration": 301, "velocity": 103}, {"time": 290787, "pitch": 64, "duration": 241, "velocity": 110}, {"time": 291028, "pitch": 36, "duration": 482, "velocity": 96}, {"time": 291149, "pitch": 55, "duration": 481, "velocity": 110}, {"time": 291149, "pitch": 59, "duration": 541, "velocity": 102}, {"time": 291149, "pitch": 64, "duration": 541, "velocity": 107}, {"time": 291630, "pitch": 36, "duration": 241, "velocity": 105}, {"time": 291871, "pitch": 55, "duration": 421, "velocity": 119}, {"time": 291871, "pitch": 59, "duration": 482, "velocity": 102}, {"time": 291871, "pitch": 64, "duration": 482, "velocity": 105}, {"time": 291991, "pitch": 36, "duration": 362, "velocity": 110}], "annotations": [{"time": 283, "annotation": {"number": 7, "value": 80}, "group": "control_change"}, {"time": 304, "annotation": {"number": 11, "value": 127}, "group": "control_change"}, {"time": 326, "annotation": {"number": 10, "value": 54}, "group": "control_change"}, {"time": 348, "annotation": {"number": 91, "value": 0}, "group": "control_change"}, {"time": 370, "annotation": {"number": 93, "value": 0}, "group": "control_change"}, {"time": 391, "annotation": {"number": 101, "value": 0}, "group": "control_change"}, {"time": 413, "annotation": {"number": 100, "value": 0}, "group": "control_change"}, {"time": 435, "annotation": {"number": 6, "value": 12}, "group": "control_change"}, {"time": 456, "annotation": {"number": 101, "value": 127}, "group": "control_change"}, {"time": 478, "annotation": {"number": 100, "value": 127}, "group": "control_change"}, {"time": 63871, "annotation": {"number": 64, "value": 127}, "group": "control_change"}, {"time": 65728, "annotation": {"number": 64, "value": 0}, "group": "control_change"}, {"time": 65787, "annotation": {"number": 64, "value": 127}, "group": "control_change"}, {"time": 67618, "annotation": {"number": 64, "value": 0}, "group": "control_change"}, {"time": 67682, "annotation": {"number": 64, "value": 127}, "group": "control_change"}, {"time": 69587, "annotation": {"number": 64, "value": 0}, "group": "control_change"}, {"time": 69656, "annotation": {"number": 64, "value": 127}, "group": "control_change"}, {"time": 70368, "annotation": {"number": 64, "value": 0}, "group": "control_change"}, {"time": 70539, "annotation": {"number": 64, "value": 127}, "group": "control_change"}, {"time": 71489, "annotation": {"number": 64, "value": 0}, "group": "control_change"}, {"time": 71599, "annotation": {"number": 64, "value": 127}, "group": "control_change"}, {"time": 73430, "annotation": {"number": 64, "value": 0}, "group": "control_change"}, {"time": 73488, "annotation": {"number": 64, "value": 127}, "group": "control_change"}, {"time": 75346, "annotation": {"number": 64, "value": 0}, "group": "control_change"}, {"time": 75416, "annotation": {"number": 64, "value": 127}, "group": "control_change"}, {"time": 77272, "annotation": {"number": 64, "value": 0}, "group": "control_change"}, {"time": 77369, "annotation": {"number": 64, "value": 127}, "group": "control_change"}, {"time": 79193, "annotation": {"number": 64, "value": 0}, "group": "control_change"}, {"time": 112185, "annotation": {"number": 64, "value": 127}, "group": "control_change"}, {"time": 115665, "annotation": {"number": 64, "value": 0}, "group": "control_change"}, {"time": 146435, "annotation": {"number": 64, "value": 127}, "group": "control_change"}, {"time": 148292, "annotation": {"number": 64, "value": 0}, "group": "control_change"}, {"time": 148352, "annotation": {"number": 64, "value": 127}, "group": "control_change"}, {"time": 150174, "annotation": {"number": 64, "value": 0}, "group": "control_change"}, {"time": 150236, "annotation": {"number": 64, "value": 127}, "group": "control_change"}, {"time": 152152, "annotation": {"number": 64, "value": 0}, "group": "control_change"}, {"time": 152220, "annotation": {"number": 64, "value": 127}, "group": "control_change"}, {"time": 152927, "annotation": {"number": 64, "value": 0}, "group": "control_change"}, {"time": 153094, "annotation": {"number": 64, "value": 127}, "group": "control_change"}, {"time": 154043, "annotation": {"number": 64, "value": 0}, "group": "control_change"}, {"time": 154155, "annotation": {"number": 64, "value": 127}, "group": "control_change"}, {"time": 155995, "annotation": {"number": 64, "value": 0}, "group": "control_change"}, {"time": 156052, "annotation": {"number": 64, "value": 127}, "group": "control_change"}, {"time": 157911, "annotation": {"number": 64, "value": 0}, "group": "control_change"}, {"time": 157981, "annotation": {"number": 64, "value": 127}, "group": "control_change"}, {"time": 159827, "annotation": {"number": 64, "value": 0}, "group": "control_change"}, {"time": 159923, "annotation": {"number": 64, "value": 127}, "group": "control_change"}, {"time": 161758, "annotation": {"number": 64, "value": 0}, "group": "control_change"}, {"time": 194740, "annotation": {"number": 64, "value": 127}, "group": "control_change"}, {"time": 196355, "annotation": {"number": 64, "value": 127}, "group": "control_change"}, {"time": 198177, "annotation": {"number": 64, "value": 0}, "group": "control_change"}, {"time": 198240, "annotation": {"number": 64, "value": 127}, "group": "control_change"}, {"time": 200146, "annotation": {"number": 64, "value": 0}, "group": "control_change"}, {"time": 200214, "annotation": {"number": 64, "value": 127}, "group": "control_change"}, {"time": 200926, "annotation": {"number": 64, "value": 0}, "group": "control_change"}, {"time": 201097, "annotation": {"number": 64, "value": 127}, "group": "control_change"}, {"time": 202047, "annotation": {"number": 64, "value": 0}, "group": "control_change"}, {"time": 202159, "annotation": {"number": 64, "value": 127}, "group": "control_change"}, {"time": 203988, "annotation": {"number": 64, "value": 0}, "group": "control_change"}, {"time": 204046, "annotation": {"number": 64, "value": 127}, "group": "control_change"}, {"time": 205915, "annotation": {"number": 64, "value": 0}, "group": "control_change"}, {"time": 205983, "annotation": {"number": 64, "value": 127}, "group": "control_change"}, {"time": 207831, "annotation": {"number": 64, "value": 0}, "group": "control_change"}, {"time": 207927, "annotation": {"number": 64, "value": 127}, "group": "control_change"}, {"time": 209752, "annotation": {"number": 64, "value": 0}, "group": "control_change"}]}, {"program": 0, "is_drum": false, "name": "MELODY", "annotations": [{"time": 217, "annotation": {"number": 0, "value": 0}, "group": "control_change"}, {"time": 239, "annotation": {"number": 32, "value": 0}, "group": "control_change"}]}, {"program": 11, "is_drum": false, "name": "MELODY", "notes": [{"time": 33241, "pitch": 79, "duration": 60, "velocity": 118}, {"time": 33362, "pitch": 79, "duration": 60, "velocity": 122}, {"time": 33482, "pitch": 79, "duration": 60, "velocity": 118}, {"time": 33602, "pitch": 79, "duration": 61, "velocity": 117}, {"time": 33602, "pitch": 79, "duration": 61, "velocity": 120}, {"time": 33843, "pitch": 76, "duration": 121, "velocity": 109}, {"time": 34084, "pitch": 79, "duration": 59, "velocity": 109}, {"time": 34320, "pitch": 76, "duration": 58, "velocity": 113}, {"time": 34437, "pitch": 76, "duration": 359, "velocity": 125}, {"time": 34796, "pitch": 76, "duration": 60, "velocity": 118}, {"time": 35037, "pitch": 79, "duration": 60, "velocity": 106}, {"time": 35157, "pitch": 79, "duration": 60, "velocity": 106}, {"time": 35278, "pitch": 79, "duration": 60, "velocity": 109}, {"time": 35398, "pitch": 79, "duration": 60, "velocity": 118}, {"time": 35518, "pitch": 79, "duration": 121, "velocity": 122}, {"time": 35759, "pitch": 76, "duration": 121, "velocity": 103}, {"time": 36000, "pitch": 79, "duration": 120, "velocity": 109}, {"time": 36241, "pitch": 76, "duration": 60, "velocity": 86}, {"time": 36361, "pitch": 74, "duration": 301, "velocity": 111}, {"time": 37084, "pitch": 79, "duration": 60, "velocity": 118}, {"time": 37204, "pitch": 79, "duration": 60, "velocity": 122}, {"time": 37324, "pitch": 79, "duration": 61, "velocity": 118}, {"time": 37445, "pitch": 79, "duration": 59, "velocity": 117}, {"time": 37445, "pitch": 79, "duration": 59, "velocity": 120}, {"time": 37680, "pitch": 76, "duration": 118, "velocity": 109}, {"time": 37916, "pitch": 79, "duration": 60, "velocity": 109}, {"time": 38157, "pitch": 76, "duration": 60, "velocity": 113}, {"time": 38277, "pitch": 76, "duration": 361, "velocity": 125}, {"time": 38638, "pitch": 76, "duration": 61, "velocity": 118}, {"time": 38879, "pitch": 79, "duration": 60, "velocity": 106}, {"time": 39000, "pitch": 79, "duration": 60, "velocity": 106}, {"time": 39120, "pitch": 79, "duration": 60, "velocity": 109}, {"time": 39240, "pitch": 79, "duration": 61, "velocity": 118}, {"time": 39361, "pitch": 79, "duration": 120, "velocity": 122}, {"time": 39602, "pitch": 81, "duration": 120, "velocity": 107}, {"time": 39722, "pitch": 83, "duration": 120, "velocity": 113}, {"time": 40083, "pitch": 74, "duration": 535, "velocity": 107}, {"time": 40916, "pitch": 79, "duration": 60, "velocity": 118}, {"time": 41036, "pitch": 79, "duration": 60, "velocity": 122}, {"time": 41156, "pitch": 79, "duration": 61, "velocity": 118}, {"time": 41277, "pitch": 79, "duration": 60, "velocity": 117}, {"time": 41277, "pitch": 79, "duration": 60, "velocity": 120}, {"time": 41518, "pitch": 76, "duration": 120, "velocity": 109}, {"time": 41758, "pitch": 79, "duration": 61, "velocity": 109}, {"time": 41999, "pitch": 76, "duration": 60, "velocity": 113}, {"time": 42120, "pitch": 76, "duration": 361, "velocity": 125}, {"time": 42481, "pitch": 76, "duration": 60, "velocity": 118}, {"time": 42722, "pitch": 79, "duration": 60, "velocity": 106}, {"time": 42842, "pitch": 79, "duration": 60, "velocity": 106}, {"time": 42962, "pitch": 79, "duration": 61, "velocity": 109}, {"time": 43083, "pitch": 79, "duration": 60, "velocity": 118}, {"time": 43203, "pitch": 79, "duration": 121, "velocity": 122}, {"time": 43444, "pitch": 76, "duration": 120, "velocity": 103}, {"time": 43685, "pitch": 79, "duration": 118, "velocity": 109}, {"time": 43920, "pitch": 76, "duration": 59, "velocity": 86}, {"time": 44038, "pitch": 74, "duration": 299, "velocity": 111}, {"time": 44758, "pitch": 79, "duration": 60, "velocity": 118}, {"time": 44878, "pitch": 79, "duration": 61, "velocity": 122}, {"time": 44999, "pitch": 79, "duration": 60, "velocity": 118}, {"time": 45119, "pitch": 79, "duration": 60, "velocity": 117}, {"time": 45119, "pitch": 79, "duration": 60, "velocity": 120}, {"time": 45360, "pitch": 76, "duration": 120, "velocity": 109}, {"time": 45601, "pitch": 79, "duration": 60, "velocity": 109}, {"time": 45842, "pitch": 76, "duration": 60, "velocity": 113}, {"time": 45962, "pitch": 76, "duration": 361, "velocity": 125}, {"time": 46323, "pitch": 76, "duration": 60, "velocity": 118}, {"time": 46564, "pitch": 79, "duration": 59, "velocity": 106}, {"time": 46682, "pitch": 79, "duration": 59, "velocity": 106}, {"time": 46800, "pitch": 79, "duration": 58, "velocity": 109}, {"time": 46917, "pitch": 79, "duration": 59, "velocity": 118}, {"time": 47035, "pitch": 79, "duration": 121, "velocity": 122}, {"time": 47276, "pitch": 76, "duration": 120, "velocity": 103}, {"time": 47517, "pitch": 79, "duration": 120, "velocity": 109}, {"time": 47758, "pitch": 76, "duration": 60, "velocity": 86}, {"time": 47878, "pitch": 74, "duration": 301, "velocity": 111}, {"time": 48600, "pitch": 79, "duration": 61, "velocity": 118}, {"time": 48721, "pitch": 79, "duration": 60, "velocity": 122}, {"time": 48841, "pitch": 79, "duration": 60, "velocity": 118}, {"time": 48962, "pitch": 79, "duration": 60, "velocity": 117}, {"time": 48962, "pitch": 79, "duration": 60, "velocity": 120}, {"time": 49202, "pitch": 76, "duration": 121, "velocity": 109}, {"time": 49443, "pitch": 79, "duration": 60, "velocity": 109}, {"time": 49684, "pitch": 76, "duration": 60, "velocity": 113}, {"time": 49804, "pitch": 76, "duration": 356, "velocity": 125}, {"time": 50160, "pitch": 76, "duration": 59, "velocity": 118}, {"time": 50396, "pitch": 79, "duration": 60, "velocity": 106}, {"time": 50516, "pitch": 79, "duration": 61, "velocity": 106}, {"time": 50637, "pitch": 79, "duration": 60, "velocity": 109}, {"time": 50757, "pitch": 79, "duration": 60, "velocity": 118}, {"time": 50878, "pitch": 79, "duration": 120, "velocity": 122}, {"time": 51118, "pitch": 76, "duration": 121, "velocity": 103}, {"time": 51359, "pitch": 79, "duration": 121, "velocity": 109}, {"time": 51600, "pitch": 76, "duration": 60, "velocity": 86}, {"time": 51720, "pitch": 74, "duration": 301, "velocity": 111}, {"time": 52443, "pitch": 79, "duration": 60, "velocity": 118}, {"time": 52563, "pitch": 79, "duration": 60, "velocity": 122}, {"time": 52684, "pitch": 79, "duration": 60, "velocity": 118}, {"time": 52804, "pitch": 79, "duration": 59, "velocity": 117}, {"time": 52804, "pitch": 79, "duration": 59, "velocity": 120}, {"time": 53040, "pitch": 76, "duration": 117, "velocity": 109}, {"time": 53275, "pitch": 79, "duration": 60, "velocity": 109}, {"time": 53516, "pitch": 76, "duration": 60, "velocity": 113}, {"time": 53636, "pitch": 76, "duration": 362, "velocity": 125}, {"time": 53998, "pitch": 76, "duration": 60, "velocity": 118}, {"time": 54238, "pitch": 79, "duration": 61, "velocity": 106}, {"time": 54359, "pitch": 79, "duration": 60, "velocity": 106}, {"time": 54479, "pitch": 79, "duration": 60, "velocity": 109}, {"time": 54600, "pitch": 79, "duration": 60, "velocity": 118}, {"time": 54720, "pitch": 79, "duration": 120, "velocity": 122}, {"time": 54961, "pitch": 81, "duration": 120, "velocity": 107}, {"time": 55081, "pitch": 83, "duration": 121, "velocity": 113}, {"time": 55442, "pitch": 74, "duration": 542, "velocity": 107}, {"time": 56282, "pitch": 79, "duration": 59, "velocity": 118}, {"time": 56400, "pitch": 79, "duration": 59, "velocity": 122}, {"time": 56518, "pitch": 79, "duration": 59, "velocity": 118}, {"time": 56636, "pitch": 79, "duration": 60, "velocity": 117}, {"time": 56636, "pitch": 79, "duration": 60, "velocity": 120}, {"time": 56877, "pitch": 76, "duration": 120, "velocity": 109}, {"time": 57118, "pitch": 79, "duration": 60, "velocity": 109}, {"time": 57358, "pitch": 76, "duration": 61, "velocity": 113}, {"time": 57479, "pitch": 76, "duration": 361, "velocity": 125}, {"time": 57840, "pitch": 76, "duration": 60, "velocity": 118}, {"time": 58081, "pitch": 79, "duration": 60, "velocity": 106}, {"time": 58201, "pitch": 79, "duration": 60, "velocity": 106}, {"time": 58322, "pitch": 79, "duration": 60, "velocity": 109}, {"time": 58442, "pitch": 79, "duration": 60, "velocity": 118}, {"time": 58562, "pitch": 79, "duration": 121, "velocity": 122}, {"time": 58803, "pitch": 76, "duration": 121, "velocity": 103}, {"time": 59044, "pitch": 79, "duration": 118, "velocity": 109}, {"time": 59280, "pitch": 76, "duration": 58, "velocity": 86}, {"time": 59397, "pitch": 74, "duration": 299, "velocity": 111}, {"time": 60117, "pitch": 79, "duration": 60, "velocity": 118}, {"time": 60238, "pitch": 79, "duration": 60, "velocity": 122}, {"time": 60358, "pitch": 79, "duration": 60, "velocity": 118}, {"time": 60478, "pitch": 79, "duration": 61, "velocity": 117}, {"time": 60478, "pitch": 79, "duration": 61, "velocity": 120}, {"time": 60719, "pitch": 76, "duration": 121, "velocity": 109}, {"time": 60960, "pitch": 79, "duration": 60, "velocity": 109}, {"time": 61201, "pitch": 76, "duration": 60, "velocity": 113}, {"time": 61321, "pitch": 76, "duration": 361, "velocity": 125}, {"time": 61682, "pitch": 76, "duration": 61, "velocity": 118}, {"time": 61923, "pitch": 79, "duration": 60, "velocity": 106}, {"time": 62044, "pitch": 79, "duration": 60, "velocity": 106}, {"time": 62164, "pitch": 79, "duration": 60, "velocity": 109}, {"time": 62284, "pitch": 79, "duration": 61, "velocity": 118}, {"time": 62405, "pitch": 79, "duration": 59, "velocity": 106}, {"time": 62522, "pitch": 79, "duration": 59, "velocity": 106}, {"time": 62640, "pitch": 79, "duration": 59, "velocity": 109}, {"time": 62758, "pitch": 79, "duration": 178, "velocity": 118}, {"time": 62996, "pitch": 79, "duration": 61, "velocity": 106}, {"time": 63117, "pitch": 79, "duration": 60, "velocity": 109}, {"time": 63237, "pitch": 79, "duration": 60, "velocity": 118}, {"time": 63358, "pitch": 79, "duration": 60, "velocity": 106}, {"time": 63478, "pitch": 79, "duration": 60, "velocity": 106}, {"time": 63598, "pitch": 79, "duration": 181, "velocity": 109}, {"time": 63839, "pitch": 83, "duration": 783, "velocity": 113}, {"time": 64562, "pitch": 81, "duration": 662, "velocity": 118}, {"time": 65284, "pitch": 76, "duration": 471, "velocity": 120}, {"time": 65755, "pitch": 83, "duration": 723, "velocity": 113}, {"time": 66478, "pitch": 79, "duration": 1023, "velocity": 117}, {"time": 67682, "pitch": 81, "duration": 301, "velocity": 122}, {"time": 68043, "pitch": 81, "duration": 301, "velocity": 107}, {"time": 68404, "pitch": 81, "duration": 417, "velocity": 106}, {"time": 68880, "pitch": 81, "duration": 236, "velocity": 113}, {"time": 69116, "pitch": 83, "duration": 181, "velocity": 109}, {"time": 69357, "pitch": 84, "duration": 180, "velocity": 117}, {"time": 69598, "pitch": 84, "duration": 301, "velocity": 113}, {"time": 69959, "pitch": 83, "duration": 301, "velocity": 113}, {"time": 70320, "pitch": 83, "duration": 1023, "velocity": 117}, {"time": 71524, "pitch": 86, "duration": 531, "velocity": 117}, {"time": 72236, "pitch": 79, "duration": 181, "velocity": 107}, {"time": 72477, "pitch": 79, "duration": 903, "velocity": 104}, {"time": 73440, "pitch": 86, "duration": 602, "velocity": 107}, {"time": 74162, "pitch": 79, "duration": 1017, "velocity": 113}, {"time": 75356, "pitch": 81, "duration": 602, "velocity": 118}, {"time": 76078, "pitch": 79, "duration": 602, "velocity": 113}, {"time": 76801, "pitch": 81, "duration": 481, "velocity": 107}, {"time": 77282, "pitch": 83, "duration": 600, "velocity": 118}, {"time": 78000, "pitch": 81, "duration": 1138, "velocity": 118}, {"time": 80884, "pitch": 79, "duration": 120, "velocity": 109}, {"time": 81004, "pitch": 81, "duration": 121, "velocity": 113}, {"time": 81125, "pitch": 83, "duration": 353, "velocity": 117}, {"time": 81596, "pitch": 83, "duration": 241, "velocity": 99}, {"time": 81837, "pitch": 79, "duration": 120, "velocity": 107}, {"time": 81957, "pitch": 81, "duration": 241, "velocity": 113}, {"time": 82318, "pitch": 83, "duration": 422, "velocity": 104}, {"time": 82800, "pitch": 79, "duration": 120, "velocity": 109}, {"time": 82920, "pitch": 81, "duration": 121, "velocity": 113}, {"time": 83041, "pitch": 83, "duration": 361, "velocity": 109}, {"time": 83522, "pitch": 83, "duration": 241, "velocity": 100}, {"time": 83763, "pitch": 79, "duration": 121, "velocity": 106}, {"time": 83884, "pitch": 81, "duration": 297, "velocity": 109}, {"time": 84240, "pitch": 83, "duration": 416, "velocity": 113}, {"time": 84716, "pitch": 79, "duration": 120, "velocity": 113}, {"time": 84836, "pitch": 81, "duration": 121, "velocity": 113}, {"time": 84957, "pitch": 83, "duration": 421, "velocity": 122}, {"time": 85438, "pitch": 83, "duration": 181, "velocity": 101}, {"time": 85679, "pitch": 84, "duration": 60, "velocity": 107}, {"time": 85800, "pitch": 84, "duration": 301, "velocity": 104}, {"time": 86161, "pitch": 83, "duration": 120, "velocity": 118}, {"time": 86402, "pitch": 83, "duration": 180, "velocity": 102}, {"time": 86642, "pitch": 86, "duration": 181, "velocity": 117}, {"time": 86883, "pitch": 86, "duration": 541, "velocity": 106}, {"time": 87600, "pitch": 79, "duration": 177, "velocity": 104}, {"time": 87836, "pitch": 79, "duration": 722, "velocity": 102}, {"time": 88799, "pitch": 86, "duration": 301, "velocity": 120}, {"time": 89160, "pitch": 86, "duration": 301, "velocity": 113}, {"time": 89522, "pitch": 86, "duration": 361, "velocity": 117}, {"time": 90003, "pitch": 86, "duration": 241, "velocity": 117}, {"time": 90244, "pitch": 84, "duration": 236, "velocity": 117}, {"time": 90480, "pitch": 83, "duration": 176, "velocity": 113}, {"time": 90715, "pitch": 83, "duration": 301, "velocity": 122}, {"time": 91076, "pitch": 81, "duration": 301, "velocity": 113}, {"time": 91437, "pitch": 79, "duration": 241, "velocity": 117}, {"time": 91678, "pitch": 79, "duration": 723, "velocity": 120}, {"time": 92401, "pitch": 79, "duration": 120, "velocity": 107}, {"time": 92521, "pitch": 81, "duration": 121, "velocity": 109}, {"time": 92642, "pitch": 83, "duration": 301, "velocity": 117}, {"time": 93003, "pitch": 83, "duration": 301, "velocity": 115}, {"time": 93364, "pitch": 79, "duration": 241, "velocity": 107}, {"time": 93605, "pitch": 79, "duration": 294, "velocity": 115}, {"time": 93958, "pitch": 81, "duration": 298, "velocity": 117}, {"time": 94317, "pitch": 83, "duration": 301, "velocity": 107}, {"time": 94557, "pitch": 87, "duration": 362, "velocity": 113}, {"time": 94919, "pitch": 83, "duration": 301, "velocity": 115}, {"time": 95280, "pitch": 81, "duration": 241, "velocity": 109}, {"time": 95521, "pitch": 78, "duration": 542, "velocity": 113}, {"time": 96243, "pitch": 79, "duration": 121, "velocity": 109}, {"time": 96364, "pitch": 81, "duration": 120, "velocity": 113}, {"time": 96484, "pitch": 83, "duration": 353, "velocity": 117}, {"time": 96955, "pitch": 83, "duration": 241, "velocity": 99}, {"time": 97196, "pitch": 79, "duration": 120, "velocity": 107}, {"time": 97316, "pitch": 81, "duration": 241, "velocity": 113}, {"time": 97677, "pitch": 83, "duration": 422, "velocity": 104}, {"time": 98159, "pitch": 79, "duration": 120, "velocity": 109}, {"time": 98279, "pitch": 81, "duration": 121, "velocity": 113}, {"time": 98400, "pitch": 83, "duration": 361, "velocity": 109}, {"time": 98882, "pitch": 83, "duration": 240, "velocity": 100}, {"time": 99122, "pitch": 79, "duration": 121, "velocity": 106}, {"time": 99243, "pitch": 81, "duration": 301, "velocity": 109}, {"time": 99604, "pitch": 83, "duration": 417, "velocity": 113}, {"time": 100080, "pitch": 79, "duration": 118, "velocity": 113}, {"time": 100198, "pitch": 81, "duration": 118, "velocity": 113}, {"time": 100316, "pitch": 83, "duration": 421, "velocity": 122}, {"time": 100797, "pitch": 83, "duration": 181, "velocity": 101}, {"time": 101038, "pitch": 84, "duration": 60, "velocity": 107}, {"time": 101159, "pitch": 84, "duration": 301, "velocity": 104}, {"time": 101520, "pitch": 83, "duration": 120, "velocity": 118}, {"time": 101761, "pitch": 83, "duration": 180, "velocity": 102}, {"time": 102002, "pitch": 86, "duration": 180, "velocity": 117}, {"time": 102242, "pitch": 86, "duration": 541, "velocity": 106}, {"time": 102960, "pitch": 91, "duration": 176, "velocity": 104}, {"time": 103195, "pitch": 86, "duration": 722, "velocity": 102}, {"time": 104158, "pitch": 86, "duration": 301, "velocity": 120}, {"time": 104519, "pitch": 86, "duration": 301, "velocity": 113}, {"time": 104881, "pitch": 86, "duration": 361, "velocity": 117}, {"time": 105362, "pitch": 86, "duration": 241, "velocity": 117}, {"time": 105603, "pitch": 91, "duration": 241, "velocity": 117}, {"time": 105844, "pitch": 86, "duration": 181, "velocity": 113}, {"time": 106085, "pitch": 84, "duration": 294, "velocity": 122}, {"time": 106438, "pitch": 83, "duration": 298, "velocity": 113}, {"time": 106797, "pitch": 84, "duration": 240, "velocity": 117}, {"time": 107037, "pitch": 83, "duration": 723, "velocity": 120}, {"time": 107760, "pitch": 79, "duration": 120, "velocity": 107}, {"time": 107880, "pitch": 81, "duration": 121, "velocity": 109}, {"time": 108001, "pitch": 83, "duration": 301, "velocity": 117}, {"time": 108362, "pitch": 83, "duration": 301, "velocity": 115}, {"time": 108723, "pitch": 84, "duration": 241, "velocity": 107}, {"time": 108964, "pitch": 84, "duration": 353, "velocity": 127}, {"time": 109435, "pitch": 86, "duration": 421, "velocity": 118}, {"time": 109917, "pitch": 81, "duration": 481, "velocity": 115}, {"time": 110639, "pitch": 79, "duration": 120, "velocity": 117}, {"time": 110880, "pitch": 79, "duration": 301, "velocity": 104}, {"time": 111241, "pitch": 81, "duration": 301, "velocity": 115}, {"time": 111602, "pitch": 83, "duration": 241, "velocity": 104}, {"time": 111843, "pitch": 83, "duration": 1856, "velocity": 113}, {"time": 131162, "pitch": 79, "duration": 59, "velocity": 118}, {"time": 131280, "pitch": 79, "duration": 59, "velocity": 122}, {"time": 131398, "pitch": 79, "duration": 59, "velocity": 118}, {"time": 131516, "pitch": 79, "duration": 60, "velocity": 117}, {"time": 131516, "pitch": 79, "duration": 60, "velocity": 120}, {"time": 131757, "pitch": 76, "duration": 120, "velocity": 109}, {"time": 131997, "pitch": 79, "duration": 61, "velocity": 109}, {"time": 132238, "pitch": 76, "duration": 60, "velocity": 113}, {"time": 132359, "pitch": 76, "duration": 361, "velocity": 125}, {"time": 132720, "pitch": 76, "duration": 60, "velocity": 118}, {"time": 132961, "pitch": 79, "duration": 60, "velocity": 106}, {"time": 133081, "pitch": 79, "duration": 60, "velocity": 106}, {"time": 133201, "pitch": 79, "duration": 61, "velocity": 109}, {"time": 133322, "pitch": 79, "duration": 60, "velocity": 118}, {"time": 133442, "pitch": 79, "duration": 121, "velocity": 122}, {"time": 133683, "pitch": 76, "duration": 120, "velocity": 103}, {"time": 133924, "pitch": 79, "duration": 118, "velocity": 109}, {"time": 134159, "pitch": 76, "duration": 59, "velocity": 86}, {"time": 134277, "pitch": 74, "duration": 299, "velocity": 111}, {"time": 134997, "pitch": 79, "duration": 60, "velocity": 118}, {"time": 135117, "pitch": 79, "duration": 61, "velocity": 122}, {"time": 135238, "pitch": 79, "duration": 60, "velocity": 118}, {"time": 135358, "pitch": 79, "duration": 60, "velocity": 117}, {"time": 135358, "pitch": 79, "duration": 60, "velocity": 120}, {"time": 135599, "pitch": 76, "duration": 120, "velocity": 109}, {"time": 135840, "pitch": 79, "duration": 60, "velocity": 109}, {"time": 136081, "pitch": 76, "duration": 60, "velocity": 113}, {"time": 136201, "pitch": 76, "duration": 361, "velocity": 125}, {"time": 136562, "pitch": 76, "duration": 60, "velocity": 118}, {"time": 136803, "pitch": 79, "duration": 60, "velocity": 106}, {"time": 136923, "pitch": 79, "duration": 61, "velocity": 106}, {"time": 137044, "pitch": 79, "duration": 60, "velocity": 109}, {"time": 137164, "pitch": 79, "duration": 60, "velocity": 118}, {"time": 137285, "pitch": 79, "duration": 117, "velocity": 122}, {"time": 137520, "pitch": 81, "duration": 118, "velocity": 107}, {"time": 137638, "pitch": 83, "duration": 118, "velocity": 113}, {"time": 137997, "pitch": 74, "duration": 541, "velocity": 107}, {"time": 138839, "pitch": 79, "duration": 61, "velocity": 118}, {"time": 138960, "pitch": 79, "duration": 60, "velocity": 122}, {"time": 139080, "pitch": 79, "duration": 60, "velocity": 118}, {"time": 139201, "pitch": 79, "duration": 60, "velocity": 117}, {"time": 139201, "pitch": 79, "duration": 60, "velocity": 120}, {"time": 139441, "pitch": 76, "duration": 121, "velocity": 109}, {"time": 139682, "pitch": 79, "duration": 60, "velocity": 109}, {"time": 139923, "pitch": 76, "duration": 60, "velocity": 113}, {"time": 140043, "pitch": 76, "duration": 356, "velocity": 125}, {"time": 140399, "pitch": 76, "duration": 59, "velocity": 118}, {"time": 140635, "pitch": 79, "duration": 60, "velocity": 106}, {"time": 140755, "pitch": 79, "duration": 61, "velocity": 106}, {"time": 140876, "pitch": 79, "duration": 60, "velocity": 109}, {"time": 140996, "pitch": 79, "duration": 60, "velocity": 118}, {"time": 141117, "pitch": 79, "duration": 120, "velocity": 122}, {"time": 141357, "pitch": 76, "duration": 121, "velocity": 103}, {"time": 141598, "pitch": 79, "duration": 121, "velocity": 109}, {"time": 141839, "pitch": 76, "duration": 60, "velocity": 86}, {"time": 141959, "pitch": 74, "duration": 301, "velocity": 111}, {"time": 142682, "pitch": 79, "duration": 60, "velocity": 118}, {"time": 142802, "pitch": 79, "duration": 60, "velocity": 122}, {"time": 142923, "pitch": 79, "duration": 60, "velocity": 118}, {"time": 143043, "pitch": 79, "duration": 60, "velocity": 117}, {"time": 143043, "pitch": 79, "duration": 60, "velocity": 120}, {"time": 143284, "pitch": 76, "duration": 120, "velocity": 109}, {"time": 143525, "pitch": 79, "duration": 58, "velocity": 109}, {"time": 143760, "pitch": 76, "duration": 59, "velocity": 113}, {"time": 143878, "pitch": 76, "duration": 359, "velocity": 125}, {"time": 144237, "pitch": 76, "duration": 60, "velocity": 118}, {"time": 144477, "pitch": 79, "duration": 61, "velocity": 106}, {"time": 144598, "pitch": 79, "duration": 60, "velocity": 106}, {"time": 144718, "pitch": 79, "duration": 60, "velocity": 109}, {"time": 144839, "pitch": 79, "duration": 60, "velocity": 118}, {"time": 144959, "pitch": 79, "duration": 60, "velocity": 106}, {"time": 145079, "pitch": 79, "duration": 61, "velocity": 106}, {"time": 145200, "pitch": 79, "duration": 60, "velocity": 109}, {"time": 145320, "pitch": 79, "duration": 181, "velocity": 118}, {"time": 145561, "pitch": 79, "duration": 60, "velocity": 106}, {"time": 145681, "pitch": 79, "duration": 61, "velocity": 109}, {"time": 145802, "pitch": 79, "duration": 60, "velocity": 118}, {"time": 145922, "pitch": 79, "duration": 60, "velocity": 106}, {"time": 146043, "pitch": 79, "duration": 60, "velocity": 106}, {"time": 146163, "pitch": 79, "duration": 181, "velocity": 109}, {"time": 146404, "pitch": 83, "duration": 772, "velocity": 113}, {"time": 147116, "pitch": 81, "duration": 662, "velocity": 118}, {"time": 147838, "pitch": 76, "duration": 482, "velocity": 120}, {"time": 148320, "pitch": 83, "duration": 722, "velocity": 113}, {"time": 149042, "pitch": 79, "duration": 1017, "velocity": 117}, {"time": 150236, "pitch": 81, "duration": 301, "velocity": 122}, {"time": 150597, "pitch": 81, "duration": 301, "velocity": 107}, {"time": 150958, "pitch": 81, "duration": 422, "velocity": 106}, {"time": 151440, "pitch": 81, "duration": 241, "velocity": 113}, {"time": 151681, "pitch": 83, "duration": 180, "velocity": 109}, {"time": 151921, "pitch": 84, "duration": 181, "velocity": 117}, {"time": 152162, "pitch": 84, "duration": 301, "velocity": 113}, {"time": 152523, "pitch": 83, "duration": 298, "velocity": 113}, {"time": 152879, "pitch": 83, "duration": 1019, "velocity": 117}, {"time": 154078, "pitch": 86, "duration": 542, "velocity": 117}, {"time": 154801, "pitch": 79, "duration": 180, "velocity": 107}, {"time": 155041, "pitch": 79, "duration": 903, "velocity": 104}, {"time": 156005, "pitch": 86, "duration": 591, "velocity": 107}, {"time": 156717, "pitch": 79, "duration": 1023, "velocity": 113}, {"time": 157921, "pitch": 81, "duration": 602, "velocity": 118}, {"time": 158643, "pitch": 79, "duration": 594, "velocity": 113}, {"time": 159355, "pitch": 81, "duration": 482, "velocity": 107}, {"time": 159837, "pitch": 83, "duration": 602, "velocity": 118}, {"time": 160559, "pitch": 81, "duration": 1144, "velocity": 118}, {"time": 163438, "pitch": 79, "duration": 121, "velocity": 109}, {"time": 163559, "pitch": 81, "duration": 120, "velocity": 113}, {"time": 163679, "pitch": 83, "duration": 361, "velocity": 117}, {"time": 164161, "pitch": 83, "duration": 240, "velocity": 99}, {"time": 164401, "pitch": 79, "duration": 121, "velocity": 107}, {"time": 164522, "pitch": 81, "duration": 241, "velocity": 113}, {"time": 164883, "pitch": 83, "duration": 418, "velocity": 104}, {"time": 165359, "pitch": 79, "duration": 118, "velocity": 109}, {"time": 165477, "pitch": 81, "duration": 118, "velocity": 113}, {"time": 165595, "pitch": 83, "duration": 361, "velocity": 109}, {"time": 166077, "pitch": 83, "duration": 240, "velocity": 100}, {"time": 166317, "pitch": 79, "duration": 121, "velocity": 106}, {"time": 166438, "pitch": 81, "duration": 301, "velocity": 109}, {"time": 166799, "pitch": 83, "duration": 421, "velocity": 113}, {"time": 167281, "pitch": 79, "duration": 120, "velocity": 113}, {"time": 167401, "pitch": 81, "duration": 120, "velocity": 113}, {"time": 167521, "pitch": 83, "duration": 422, "velocity": 122}, {"time": 168003, "pitch": 83, "duration": 181, "velocity": 101}, {"time": 168244, "pitch": 84, "duration": 60, "velocity": 107}, {"time": 168364, "pitch": 84, "duration": 297, "velocity": 104}, {"time": 168720, "pitch": 83, "duration": 118, "velocity": 118}, {"time": 168956, "pitch": 83, "duration": 180, "velocity": 102}, {"time": 169197, "pitch": 86, "duration": 180, "velocity": 117}, {"time": 169437, "pitch": 86, "duration": 542, "velocity": 106}, {"time": 170160, "pitch": 79, "duration": 180, "velocity": 104}, {"time": 170401, "pitch": 79, "duration": 722, "velocity": 102}, {"time": 171364, "pitch": 86, "duration": 294, "velocity": 120}, {"time": 171717, "pitch": 86, "duration": 299, "velocity": 113}, {"time": 172076, "pitch": 86, "duration": 361, "velocity": 117}, {"time": 172557, "pitch": 86, "duration": 241, "velocity": 117}, {"time": 172798, "pitch": 84, "duration": 241, "velocity": 117}, {"time": 173039, "pitch": 83, "duration": 181, "velocity": 113}, {"time": 173280, "pitch": 83, "duration": 301, "velocity": 122}, {"time": 173641, "pitch": 81, "duration": 301, "velocity": 113}, {"time": 174002, "pitch": 79, "duration": 241, "velocity": 117}, {"time": 174243, "pitch": 79, "duration": 717, "velocity": 120}, {"time": 174960, "pitch": 79, "duration": 118, "velocity": 107}, {"time": 175078, "pitch": 81, "duration": 118, "velocity": 109}, {"time": 175196, "pitch": 83, "duration": 301, "velocity": 117}, {"time": 175557, "pitch": 83, "duration": 301, "velocity": 115}, {"time": 175918, "pitch": 79, "duration": 241, "velocity": 107}, {"time": 176159, "pitch": 79, "duration": 301, "velocity": 115}, {"time": 176520, "pitch": 81, "duration": 301, "velocity": 117}, {"time": 176881, "pitch": 83, "duration": 301, "velocity": 107}, {"time": 177122, "pitch": 87, "duration": 361, "velocity": 113}, {"time": 177483, "pitch": 83, "duration": 298, "velocity": 115}, {"time": 177839, "pitch": 81, "duration": 236, "velocity": 109}, {"time": 178075, "pitch": 78, "duration": 542, "velocity": 113}, {"time": 178797, "pitch": 79, "duration": 121, "velocity": 109}, {"time": 178918, "pitch": 81, "duration": 120, "velocity": 113}, {"time": 179038, "pitch": 83, "duration": 361, "velocity": 117}, {"time": 179520, "pitch": 83, "duration": 241, "velocity": 99}, {"time": 179761, "pitch": 79, "duration": 120, "velocity": 107}, {"time": 179881, "pitch": 81, "duration": 241, "velocity": 113}, {"time": 180242, "pitch": 83, "duration": 422, "velocity": 104}, {"time": 180724, "pitch": 79, "duration": 120, "velocity": 109}, {"time": 180844, "pitch": 81, "duration": 121, "velocity": 113}, {"time": 180965, "pitch": 83, "duration": 353, "velocity": 109}, {"time": 181436, "pitch": 83, "duration": 241, "velocity": 100}, {"time": 181677, "pitch": 79, "duration": 120, "velocity": 106}, {"time": 181797, "pitch": 81, "duration": 301, "velocity": 109}, {"time": 182158, "pitch": 83, "duration": 422, "velocity": 113}, {"time": 182640, "pitch": 79, "duration": 120, "velocity": 113}, {"time": 182760, "pitch": 81, "duration": 121, "velocity": 113}, {"time": 182881, "pitch": 83, "duration": 421, "velocity": 122}, {"time": 183362, "pitch": 83, "duration": 181, "velocity": 101}, {"time": 183603, "pitch": 84, "duration": 60, "velocity": 107}, {"time": 183723, "pitch": 84, "duration": 298, "velocity": 104}, {"time": 184079, "pitch": 83, "duration": 118, "velocity": 118}, {"time": 184315, "pitch": 83, "duration": 181, "velocity": 102}, {"time": 184556, "pitch": 86, "duration": 180, "velocity": 117}, {"time": 184797, "pitch": 86, "duration": 541, "velocity": 106}, {"time": 185519, "pitch": 91, "duration": 181, "velocity": 104}, {"time": 185760, "pitch": 86, "duration": 722, "velocity": 102}, {"time": 186723, "pitch": 86, "duration": 301, "velocity": 120}, {"time": 187084, "pitch": 86, "duration": 297, "velocity": 113}, {"time": 187440, "pitch": 86, "duration": 356, "velocity": 117}, {"time": 187917, "pitch": 86, "duration": 240, "velocity": 117}, {"time": 188157, "pitch": 91, "duration": 241, "velocity": 117}, {"time": 188398, "pitch": 86, "duration": 181, "velocity": 113}, {"time": 188639, "pitch": 84, "duration": 301, "velocity": 122}, {"time": 189000, "pitch": 83, "duration": 301, "velocity": 113}, {"time": 189361, "pitch": 84, "duration": 241, "velocity": 117}, {"time": 189602, "pitch": 83, "duration": 717, "velocity": 120}, {"time": 190319, "pitch": 79, "duration": 118, "velocity": 107}, {"time": 190437, "pitch": 81, "duration": 118, "velocity": 109}, {"time": 190555, "pitch": 83, "duration": 301, "velocity": 117}, {"time": 190916, "pitch": 83, "duration": 301, "velocity": 115}, {"time": 191277, "pitch": 84, "duration": 241, "velocity": 107}, {"time": 191518, "pitch": 84, "duration": 361, "velocity": 127}, {"time": 192000, "pitch": 86, "duration": 421, "velocity": 118}, {"time": 192481, "pitch": 81, "duration": 482, "velocity": 115}, {"time": 193204, "pitch": 79, "duration": 120, "velocity": 117}, {"time": 193445, "pitch": 79, "duration": 294, "velocity": 104}, {"time": 193798, "pitch": 81, "duration": 298, "velocity": 115}, {"time": 194157, "pitch": 83, "duration": 240, "velocity": 104}, {"time": 194397, "pitch": 83, "duration": 1867, "velocity": 113}, {"time": 211442, "pitch": 79, "duration": 121, "velocity": 109}, {"time": 211563, "pitch": 81, "duration": 120, "velocity": 113}, {"time": 211683, "pitch": 83, "duration": 361, "velocity": 117}, {"time": 212165, "pitch": 83, "duration": 235, "velocity": 99}, {"time": 212400, "pitch": 79, "duration": 118, "velocity": 107}, {"time": 212518, "pitch": 81, "duration": 238, "velocity": 113}, {"time": 212877, "pitch": 83, "duration": 421, "velocity": 104}, {"time": 213358, "pitch": 79, "duration": 121, "velocity": 109}, {"time": 213479, "pitch": 81, "duration": 120, "velocity": 113}, {"time": 213599, "pitch": 83, "duration": 361, "velocity": 109}, {"time": 214081, "pitch": 83, "duration": 240, "velocity": 100}, {"time": 214321, "pitch": 79, "duration": 121, "velocity": 106}, {"time": 214442, "pitch": 81, "duration": 301, "velocity": 109}, {"time": 214803, "pitch": 83, "duration": 417, "velocity": 113}, {"time": 215279, "pitch": 79, "duration": 118, "velocity": 113}, {"time": 215397, "pitch": 81, "duration": 118, "velocity": 113}, {"time": 215515, "pitch": 83, "duration": 421, "velocity": 122}, {"time": 215997, "pitch": 83, "duration": 180, "velocity": 101}, {"time": 216237, "pitch": 84, "duration": 61, "velocity": 107}, {"time": 216358, "pitch": 84, "duration": 301, "velocity": 104}, {"time": 216719, "pitch": 83, "duration": 120, "velocity": 118}, {"time": 216960, "pitch": 83, "duration": 180, "velocity": 102}, {"time": 217201, "pitch": 86, "duration": 180, "velocity": 117}, {"time": 217441, "pitch": 86, "duration": 542, "velocity": 106}, {"time": 218164, "pitch": 79, "duration": 180, "velocity": 104}, {"time": 218404, "pitch": 79, "duration": 713, "velocity": 102}, {"time": 219357, "pitch": 86, "duration": 301, "velocity": 120}, {"time": 219719, "pitch": 86, "duration": 301, "velocity": 113}, {"time": 220080, "pitch": 86, "duration": 361, "velocity": 117}, {"time": 220561, "pitch": 86, "duration": 241, "velocity": 117}, {"time": 220802, "pitch": 84, "duration": 241, "velocity": 117}, {"time": 221043, "pitch": 83, "duration": 181, "velocity": 113}, {"time": 221284, "pitch": 83, "duration": 294, "velocity": 122}, {"time": 221637, "pitch": 81, "duration": 299, "velocity": 113}, {"time": 221996, "pitch": 79, "duration": 241, "velocity": 117}, {"time": 222237, "pitch": 79, "duration": 722, "velocity": 120}, {"time": 222959, "pitch": 79, "duration": 120, "velocity": 107}, {"time": 223079, "pitch": 81, "duration": 121, "velocity": 109}, {"time": 223200, "pitch": 83, "duration": 301, "velocity": 117}, {"time": 223561, "pitch": 83, "duration": 301, "velocity": 115}, {"time": 223922, "pitch": 79, "duration": 241, "velocity": 107}, {"time": 224163, "pitch": 79, "duration": 301, "velocity": 115}, {"time": 224524, "pitch": 81, "duration": 297, "velocity": 117}, {"time": 224880, "pitch": 83, "duration": 296, "velocity": 107}, {"time": 225116, "pitch": 87, "duration": 361, "velocity": 113}, {"time": 225477, "pitch": 83, "duration": 301, "velocity": 115}, {"time": 225838, "pitch": 81, "duration": 241, "velocity": 109}, {"time": 226079, "pitch": 78, "duration": 542, "velocity": 113}, {"time": 226801, "pitch": 79, "duration": 121, "velocity": 109}, {"time": 226922, "pitch": 81, "duration": 120, "velocity": 113}, {"time": 227042, "pitch": 83, "duration": 361, "velocity": 117}, {"time": 227524, "pitch": 83, "duration": 235, "velocity": 99}, {"time": 227759, "pitch": 79, "duration": 118, "velocity": 107}, {"time": 227877, "pitch": 81, "duration": 238, "velocity": 113}, {"time": 228236, "pitch": 83, "duration": 421, "velocity": 104}, {"time": 228717, "pitch": 79, "duration": 121, "velocity": 109}, {"time": 228838, "pitch": 81, "duration": 120, "velocity": 113}, {"time": 228958, "pitch": 83, "duration": 361, "velocity": 109}, {"time": 229440, "pitch": 83, "duration": 241, "velocity": 100}, {"time": 229681, "pitch": 79, "duration": 120, "velocity": 106}, {"time": 229801, "pitch": 81, "duration": 301, "velocity": 109}, {"time": 230162, "pitch": 83, "duration": 422, "velocity": 113}, {"time": 230644, "pitch": 79, "duration": 120, "velocity": 113}, {"time": 230764, "pitch": 81, "duration": 120, "velocity": 113}, {"time": 230884, "pitch": 83, "duration": 413, "velocity": 122}, {"time": 231356, "pitch": 83, "duration": 180, "velocity": 101}, {"time": 231597, "pitch": 84, "duration": 60, "velocity": 107}, {"time": 231717, "pitch": 84, "duration": 301, "velocity": 104}, {"time": 232078, "pitch": 83, "duration": 121, "velocity": 118}, {"time": 232319, "pitch": 83, "duration": 181, "velocity": 102}, {"time": 232560, "pitch": 86, "duration": 180, "velocity": 117}, {"time": 232801, "pitch": 86, "duration": 541, "velocity": 106}, {"time": 233523, "pitch": 91, "duration": 181, "velocity": 104}, {"time": 233764, "pitch": 86, "duration": 712, "velocity": 102}, {"time": 234717, "pitch": 86, "duration": 301, "velocity": 120}, {"time": 235078, "pitch": 86, "duration": 301, "velocity": 113}, {"time": 235439, "pitch": 86, "duration": 361, "velocity": 117}, {"time": 235921, "pitch": 86, "duration": 240, "velocity": 117}, {"time": 236161, "pitch": 91, "duration": 241, "velocity": 117}, {"time": 236402, "pitch": 86, "duration": 181, "velocity": 113}, {"time": 236643, "pitch": 84, "duration": 301, "velocity": 122}, {"time": 237004, "pitch": 83, "duration": 297, "velocity": 113}, {"time": 237360, "pitch": 84, "duration": 236, "velocity": 117}, {"time": 237596, "pitch": 83, "duration": 722, "velocity": 120}, {"time": 238318, "pitch": 79, "duration": 121, "velocity": 107}, {"time": 238439, "pitch": 81, "duration": 120, "velocity": 109}, {"time": 238559, "pitch": 83, "duration": 301, "velocity": 117}, {"time": 238920, "pitch": 83, "duration": 301, "velocity": 115}, {"time": 239281, "pitch": 84, "duration": 241, "velocity": 107}, {"time": 239522, "pitch": 84, "duration": 361, "velocity": 127}, {"time": 240004, "pitch": 86, "duration": 412, "velocity": 118}, {"time": 240475, "pitch": 81, "duration": 482, "velocity": 115}, {"time": 241197, "pitch": 79, "duration": 121, "velocity": 117}, {"time": 241438, "pitch": 79, "duration": 301, "velocity": 104}, {"time": 241799, "pitch": 81, "duration": 301, "velocity": 115}, {"time": 242161, "pitch": 83, "duration": 240, "velocity": 104}, {"time": 242401, "pitch": 83, "duration": 1856, "velocity": 113}], "annotations": [{"time": 283, "annotation": {"number": 7, "value": 100}, "group": "control_change"}, {"time": 304, "annotation": {"number": 11, "value": 100}, "group": "control_change"}, {"time": 326, "annotation": {"number": 10, "value": 64}, "group": "control_change"}, {"time": 348, "annotation": {"number": 91, "value": 40}, "group": "control_change"}, {"time": 370, "annotation": {"number": 93, "value": 0}, "group": "control_change"}, {"time": 391, "annotation": {"number": 101, "value": 0}, "group": "control_change"}, {"time": 413, "annotation": {"number": 100, "value": 0}, "group": "control_change"}, {"time": 435, "annotation": {"number": 6, "value": 12}, "group": "control_change"}, {"time": 456, "annotation": {"number": 101, "value": 127}, "group": "control_change"}, {"time": 478, "annotation": {"number": 100, "value": 127}, "group": "control_change"}]}, {"program": 0, "is_drum": false, "name": "CHORUS", "annotations": [{"time": 217, "annotation": {"number": 0, "value": 0}, "group": "control_change"}, {"time": 239, "annotation": {"number": 32, "value": 0}, "group": "control_change"}]}, {"program": 52, "is_drum": false, "name": "CHORUS", "notes": [{"time": 48600, "pitch": 76, "duration": 61, "velocity": 103}, {"time": 48721, "pitch": 76, "duration": 60, "velocity": 107}, {"time": 48841, "pitch": 76, "duration": 60, "velocity": 103}, {"time": 48962, "pitch": 76, "duration": 60, "velocity": 102}, {"time": 48962, "pitch": 76, "duration": 60, "velocity": 105}, {"time": 49202, "pitch": 71, "duration": 121, "velocity": 94}, {"time": 49443, "pitch": 76, "duration": 60, "velocity": 94}, {"time": 49684, "pitch": 71, "duration": 60, "velocity": 98}, {"time": 49804, "pitch": 71, "duration": 356, "velocity": 110}, {"time": 50160, "pitch": 71, "duration": 59, "velocity": 103}, {"time": 50396, "pitch": 76, "duration": 60, "velocity": 91}, {"time": 50516, "pitch": 76, "duration": 61, "velocity": 91}, {"time": 50637, "pitch": 76, "duration": 60, "velocity": 94}, {"time": 50757, "pitch": 76, "duration": 60, "velocity": 103}, {"time": 50878, "pitch": 76, "duration": 120, "velocity": 107}, {"time": 51118, "pitch": 71, "duration": 121, "velocity": 88}, {"time": 51359, "pitch": 76, "duration": 121, "velocity": 94}, {"time": 51600, "pitch": 71, "duration": 60, "velocity": 71}, {"time": 51720, "pitch": 69, "duration": 301, "velocity": 96}, {"time": 52443, "pitch": 76, "duration": 60, "velocity": 103}, {"time": 52563, "pitch": 76, "duration": 60, "velocity": 107}, {"time": 52684, "pitch": 76, "duration": 60, "velocity": 103}, {"time": 52804, "pitch": 76, "duration": 59, "velocity": 102}, {"time": 52804, "pitch": 76, "duration": 59, "velocity": 105}, {"time": 53040, "pitch": 71, "duration": 117, "velocity": 94}, {"time": 53275, "pitch": 76, "duration": 60, "velocity": 94}, {"time": 53516, "pitch": 71, "duration": 60, "velocity": 98}, {"time": 53636, "pitch": 71, "duration": 362, "velocity": 110}, {"time": 53998, "pitch": 71, "duration": 60, "velocity": 103}, {"time": 54238, "pitch": 76, "duration": 61, "velocity": 91}, {"time": 54359, "pitch": 76, "duration": 60, "velocity": 91}, {"time": 54479, "pitch": 76, "duration": 60, "velocity": 94}, {"time": 54600, "pitch": 76, "duration": 60, "velocity": 103}, {"time": 54720, "pitch": 76, "duration": 120, "velocity": 107}, {"time": 54961, "pitch": 78, "duration": 120, "velocity": 92}, {"time": 55081, "pitch": 79, "duration": 121, "velocity": 98}, {"time": 55442, "pitch": 69, "duration": 542, "velocity": 92}, {"time": 56282, "pitch": 76, "duration": 59, "velocity": 103}, {"time": 56400, "pitch": 76, "duration": 59, "velocity": 107}, {"time": 56518, "pitch": 76, "duration": 59, "velocity": 103}, {"time": 56636, "pitch": 76, "duration": 60, "velocity": 102}, {"time": 56636, "pitch": 76, "duration": 60, "velocity": 105}, {"time": 56877, "pitch": 71, "duration": 120, "velocity": 94}, {"time": 57118, "pitch": 76, "duration": 60, "velocity": 94}, {"time": 57358, "pitch": 71, "duration": 61, "velocity": 98}, {"time": 57479, "pitch": 71, "duration": 361, "velocity": 110}, {"time": 57840, "pitch": 71, "duration": 60, "velocity": 103}, {"time": 58081, "pitch": 76, "duration": 60, "velocity": 91}, {"time": 58201, "pitch": 76, "duration": 60, "velocity": 91}, {"time": 58322, "pitch": 76, "duration": 60, "velocity": 94}, {"time": 58442, "pitch": 76, "duration": 60, "velocity": 103}, {"time": 58562, "pitch": 76, "duration": 121, "velocity": 107}, {"time": 58803, "pitch": 71, "duration": 121, "velocity": 88}, {"time": 59044, "pitch": 76, "duration": 118, "velocity": 94}, {"time": 59280, "pitch": 71, "duration": 58, "velocity": 71}, {"time": 59397, "pitch": 69, "duration": 299, "velocity": 96}, {"time": 60117, "pitch": 76, "duration": 60, "velocity": 103}, {"time": 60238, "pitch": 76, "duration": 60, "velocity": 107}, {"time": 60358, "pitch": 76, "duration": 60, "velocity": 103}, {"time": 60478, "pitch": 76, "duration": 61, "velocity": 102}, {"time": 60478, "pitch": 76, "duration": 61, "velocity": 105}, {"time": 60719, "pitch": 71, "duration": 121, "velocity": 94}, {"time": 60960, "pitch": 76, "duration": 60, "velocity": 94}, {"time": 61201, "pitch": 71, "duration": 60, "velocity": 98}, {"time": 61321, "pitch": 71, "duration": 361, "velocity": 110}, {"time": 61682, "pitch": 71, "duration": 61, "velocity": 103}, {"time": 61923, "pitch": 76, "duration": 60, "velocity": 91}, {"time": 62044, "pitch": 76, "duration": 60, "velocity": 91}, {"time": 62164, "pitch": 76, "duration": 60, "velocity": 94}, {"time": 62284, "pitch": 76, "duration": 61, "velocity": 103}, {"time": 62405, "pitch": 76, "duration": 59, "velocity": 91}, {"time": 62522, "pitch": 76, "duration": 59, "velocity": 91}, {"time": 62640, "pitch": 76, "duration": 59, "velocity": 94}, {"time": 62758, "pitch": 76, "duration": 178, "velocity": 103}, {"time": 62996, "pitch": 76, "duration": 61, "velocity": 91}, {"time": 63117, "pitch": 76, "duration": 60, "velocity": 94}, {"time": 63237, "pitch": 76, "duration": 60, "velocity": 103}, {"time": 63358, "pitch": 76, "duration": 60, "velocity": 91}, {"time": 63478, "pitch": 76, "duration": 60, "velocity": 91}, {"time": 63598, "pitch": 76, "duration": 181, "velocity": 94}, {"time": 80884, "pitch": 76, "duration": 120, "velocity": 94}, {"time": 81004, "pitch": 78, "duration": 121, "velocity": 98}, {"time": 81125, "pitch": 79, "duration": 353, "velocity": 102}, {"time": 81596, "pitch": 79, "duration": 241, "velocity": 84}, {"time": 81837, "pitch": 76, "duration": 120, "velocity": 92}, {"time": 81957, "pitch": 78, "duration": 241, "velocity": 98}, {"time": 82318, "pitch": 79, "duration": 422, "velocity": 89}, {"time": 82800, "pitch": 76, "duration": 120, "velocity": 94}, {"time": 82920, "pitch": 78, "duration": 121, "velocity": 98}, {"time": 83041, "pitch": 79, "duration": 361, "velocity": 94}, {"time": 83522, "pitch": 79, "duration": 241, "velocity": 85}, {"time": 83763, "pitch": 76, "duration": 121, "velocity": 91}, {"time": 83884, "pitch": 78, "duration": 297, "velocity": 94}, {"time": 84240, "pitch": 79, "duration": 416, "velocity": 98}, {"time": 96243, "pitch": 76, "duration": 121, "velocity": 94}, {"time": 96364, "pitch": 78, "duration": 120, "velocity": 98}, {"time": 96484, "pitch": 79, "duration": 353, "velocity": 102}, {"time": 96955, "pitch": 79, "duration": 241, "velocity": 84}, {"time": 97196, "pitch": 76, "duration": 120, "velocity": 92}, {"time": 97316, "pitch": 78, "duration": 241, "velocity": 98}, {"time": 97677, "pitch": 79, "duration": 422, "velocity": 89}, {"time": 98159, "pitch": 76, "duration": 120, "velocity": 94}, {"time": 98279, "pitch": 78, "duration": 121, "velocity": 98}, {"time": 98400, "pitch": 79, "duration": 361, "velocity": 94}, {"time": 98882, "pitch": 79, "duration": 240, "velocity": 85}, {"time": 99122, "pitch": 76, "duration": 121, "velocity": 91}, {"time": 99243, "pitch": 78, "duration": 301, "velocity": 94}, {"time": 99604, "pitch": 79, "duration": 417, "velocity": 98}, {"time": 110639, "pitch": 76, "duration": 120, "velocity": 102}, {"time": 110880, "pitch": 76, "duration": 301, "velocity": 89}, {"time": 111241, "pitch": 78, "duration": 301, "velocity": 100}, {"time": 111602, "pitch": 79, "duration": 241, "velocity": 89}, {"time": 111843, "pitch": 79, "duration": 1856, "velocity": 98}, {"time": 131162, "pitch": 76, "duration": 59, "velocity": 103}, {"time": 131280, "pitch": 76, "duration": 59, "velocity": 107}, {"time": 131398, "pitch": 76, "duration": 59, "velocity": 103}, {"time": 131516, "pitch": 76, "duration": 60, "velocity": 102}, {"time": 131516, "pitch": 76, "duration": 60, "velocity": 105}, {"time": 131757, "pitch": 71, "duration": 120, "velocity": 94}, {"time": 131997, "pitch": 76, "duration": 61, "velocity": 94}, {"time": 132238, "pitch": 71, "duration": 60, "velocity": 98}, {"time": 132359, "pitch": 71, "duration": 361, "velocity": 110}, {"time": 132720, "pitch": 71, "duration": 60, "velocity": 103}, {"time": 132961, "pitch": 76, "duration": 60, "velocity": 91}, {"time": 133081, "pitch": 76, "duration": 60, "velocity": 91}, {"time": 133201, "pitch": 76, "duration": 61, "velocity": 94}, {"time": 133322, "pitch": 76, "duration": 60, "velocity": 103}, {"time": 133442, "pitch": 76, "duration": 121, "velocity": 107}, {"time": 133683, "pitch": 71, "duration": 120, "velocity": 88}, {"time": 133924, "pitch": 76, "duration": 118, "velocity": 94}, {"time": 134159, "pitch": 71, "duration": 59, "velocity": 71}, {"time": 134277, "pitch": 69, "duration": 299, "velocity": 96}, {"time": 134997, "pitch": 76, "duration": 60, "velocity": 103}, {"time": 135117, "pitch": 76, "duration": 61, "velocity": 107}, {"time": 135238, "pitch": 76, "duration": 60, "velocity": 103}, {"time": 135358, "pitch": 76, "duration": 60, "velocity": 102}, {"time": 135358, "pitch": 76, "duration": 60, "velocity": 105}, {"time": 135599, "pitch": 71, "duration": 120, "velocity": 94}, {"time": 135840, "pitch": 76, "duration": 60, "velocity": 94}, {"time": 136081, "pitch": 71, "duration": 60, "velocity": 98}, {"time": 136201, "pitch": 71, "duration": 361, "velocity": 110}, {"time": 136562, "pitch": 71, "duration": 60, "velocity": 103}, {"time": 136803, "pitch": 76, "duration": 60, "velocity": 91}, {"time": 136923, "pitch": 76, "duration": 61, "velocity": 91}, {"time": 137044, "pitch": 76, "duration": 60, "velocity": 94}, {"time": 137164, "pitch": 76, "duration": 60, "velocity": 103}, {"time": 137285, "pitch": 76, "duration": 117, "velocity": 107}, {"time": 137520, "pitch": 78, "duration": 118, "velocity": 92}, {"time": 137638, "pitch": 79, "duration": 118, "velocity": 98}, {"time": 137997, "pitch": 69, "duration": 541, "velocity": 92}, {"time": 138839, "pitch": 76, "duration": 61, "velocity": 103}, {"time": 138960, "pitch": 76, "duration": 60, "velocity": 107}, {"time": 139080, "pitch": 76, "duration": 60, "velocity": 103}, {"time": 139201, "pitch": 76, "duration": 60, "velocity": 102}, {"time": 139201, "pitch": 76, "duration": 60, "velocity": 105}, {"time": 139441, "pitch": 71, "duration": 121, "velocity": 94}, {"time": 139682, "pitch": 76, "duration": 60, "velocity": 94}, {"time": 139923, "pitch": 71, "duration": 60, "velocity": 98}, {"time": 140043, "pitch": 71, "duration": 356, "velocity": 110}, {"time": 140399, "pitch": 71, "duration": 59, "velocity": 103}, {"time": 140635, "pitch": 76, "duration": 60, "velocity": 91}, {"time": 140755, "pitch": 76, "duration": 61, "velocity": 91}, {"time": 140876, "pitch": 76, "duration": 60, "velocity": 94}, {"time": 140996, "pitch": 76, "duration": 60, "velocity": 103}, {"time": 141117, "pitch": 76, "duration": 120, "velocity": 107}, {"time": 141357, "pitch": 71, "duration": 121, "velocity": 88}, {"time": 141598, "pitch": 76, "duration": 121, "velocity": 94}, {"time": 141839, "pitch": 71, "duration": 60, "velocity": 71}, {"time": 141959, "pitch": 69, "duration": 301, "velocity": 96}, {"time": 142682, "pitch": 76, "duration": 60, "velocity": 103}, {"time": 142802, "pitch": 76, "duration": 60, "velocity": 107}, {"time": 142923, "pitch": 76, "duration": 60, "velocity": 103}, {"time": 143043, "pitch": 76, "duration": 60, "velocity": 102}, {"time": 143043, "pitch": 76, "duration": 60, "velocity": 105}, {"time": 143284, "pitch": 71, "duration": 120, "velocity": 94}, {"time": 143525, "pitch": 76, "duration": 58, "velocity": 94}, {"time": 143760, "pitch": 71, "duration": 59, "velocity": 98}, {"time": 143878, "pitch": 71, "duration": 359, "velocity": 110}, {"time": 144237, "pitch": 71, "duration": 60, "velocity": 103}, {"time": 144477, "pitch": 76, "duration": 61, "velocity": 91}, {"time": 144598, "pitch": 76, "duration": 60, "velocity": 91}, {"time": 144718, "pitch": 76, "duration": 60, "velocity": 94}, {"time": 144839, "pitch": 76, "duration": 60, "velocity": 103}, {"time": 144959, "pitch": 76, "duration": 60, "velocity": 91}, {"time": 145079, "pitch": 76, "duration": 61, "velocity": 91}, {"time": 145200, "pitch": 76, "duration": 60, "velocity": 94}, {"time": 145320, "pitch": 76, "duration": 181, "velocity": 103}, {"time": 145561, "pitch": 76, "duration": 60, "velocity": 91}, {"time": 145681, "pitch": 76, "duration": 61, "velocity": 94}, {"time": 145802, "pitch": 76, "duration": 60, "velocity": 103}, {"time": 145922, "pitch": 76, "duration": 60, "velocity": 91}, {"time": 146043, "pitch": 76, "duration": 60, "velocity": 91}, {"time": 146163, "pitch": 76, "duration": 181, "velocity": 94}, {"time": 163438, "pitch": 76, "duration": 121, "velocity": 94}, {"time": 163559, "pitch": 78, "duration": 120, "velocity": 98}, {"time": 163679, "pitch": 79, "duration": 361, "velocity": 102}, {"time": 164161, "pitch": 79, "duration": 240, "velocity": 84}, {"time": 164401, "pitch": 76, "duration": 121, "velocity": 92}, {"time": 164522, "pitch": 78, "duration": 241, "velocity": 98}, {"time": 164883, "pitch": 79, "duration": 418, "velocity": 89}, {"time": 165359, "pitch": 76, "duration": 118, "velocity": 94}, {"time": 165477, "pitch": 78, "duration": 118, "velocity": 98}, {"time": 165595, "pitch": 79, "duration": 361, "velocity": 94}, {"time": 166077, "pitch": 79, "duration": 240, "velocity": 85}, {"time": 166317, "pitch": 76, "duration": 121, "velocity": 91}, {"time": 166438, "pitch": 78, "duration": 301, "velocity": 94}, {"time": 166799, "pitch": 79, "duration": 421, "velocity": 98}, {"time": 178797, "pitch": 76, "duration": 121, "velocity": 94}, {"time": 178918, "pitch": 78, "duration": 120, "velocity": 98}, {"time": 179038, "pitch": 79, "duration": 361, "velocity": 102}, {"time": 179520, "pitch": 79, "duration": 241, "velocity": 84}, {"time": 179761, "pitch": 76, "duration": 120, "velocity": 92}, {"time": 179881, "pitch": 78, "duration": 241, "velocity": 98}, {"time": 180242, "pitch": 79, "duration": 422, "velocity": 89}, {"time": 180724, "pitch": 76, "duration": 120, "velocity": 94}, {"time": 180844, "pitch": 78, "duration": 121, "velocity": 98}, {"time": 180965, "pitch": 79, "duration": 353, "velocity": 94}, {"time": 181436, "pitch": 79, "duration": 241, "velocity": 85}, {"time": 181677, "pitch": 76, "duration": 120, "velocity": 91}, {"time": 181797, "pitch": 78, "duration": 301, "velocity": 94}, {"time": 182158, "pitch": 79, "duration": 422, "velocity": 98}, {"time": 193204, "pitch": 76, "duration": 120, "velocity": 102}, {"time": 193445, "pitch": 76, "duration": 294, "velocity": 89}, {"time": 193798, "pitch": 78, "duration": 298, "velocity": 100}, {"time": 194157, "pitch": 79, "duration": 240, "velocity": 89}, {"time": 194397, "pitch": 79, "duration": 1867, "velocity": 98}, {"time": 211442, "pitch": 76, "duration": 121, "velocity": 94}, {"time": 211563, "pitch": 78, "duration": 120, "velocity": 98}, {"time": 211683, "pitch": 79, "duration": 361, "velocity": 102}, {"time": 212165, "pitch": 79, "duration": 235, "velocity": 84}, {"time": 212400, "pitch": 76, "duration": 118, "velocity": 92}, {"time": 212518, "pitch": 78, "duration": 238, "velocity": 98}, {"time": 212877, "pitch": 79, "duration": 421, "velocity": 89}, {"time": 213358, "pitch": 76, "duration": 121, "velocity": 94}, {"time": 213479, "pitch": 78, "duration": 120, "velocity": 98}, {"time": 213599, "pitch": 79, "duration": 361, "velocity": 94}, {"time": 214081, "pitch": 79, "duration": 240, "velocity": 85}, {"time": 214321, "pitch": 76, "duration": 121, "velocity": 91}, {"time": 214442, "pitch": 78, "duration": 301, "velocity": 94}, {"time": 214803, "pitch": 79, "duration": 417, "velocity": 98}, {"time": 226801, "pitch": 76, "duration": 121, "velocity": 94}, {"time": 226922, "pitch": 78, "duration": 120, "velocity": 98}, {"time": 227042, "pitch": 79, "duration": 361, "velocity": 102}, {"time": 227524, "pitch": 79, "duration": 235, "velocity": 84}, {"time": 227759, "pitch": 76, "duration": 118, "velocity": 92}, {"time": 227877, "pitch": 78, "duration": 238, "velocity": 98}, {"time": 228236, "pitch": 79, "duration": 421, "velocity": 89}, {"time": 228717, "pitch": 76, "duration": 121, "velocity": 94}, {"time": 228838, "pitch": 78, "duration": 120, "velocity": 98}, {"time": 228958, "pitch": 79, "duration": 361, "velocity": 94}, {"time": 229440, "pitch": 79, "duration": 241, "velocity": 85}, {"time": 229681, "pitch": 76, "duration": 120, "velocity": 91}, {"time": 229801, "pitch": 78, "duration": 301, "velocity": 94}, {"time": 230162, "pitch": 79, "duration": 422, "velocity": 98}, {"time": 241197, "pitch": 76, "duration": 121, "velocity": 102}, {"time": 241438, "pitch": 76, "duration": 301, "velocity": 89}, {"time": 241799, "pitch": 78, "duration": 301, "velocity": 100}, {"time": 242161, "pitch": 79, "duration": 240, "velocity": 89}, {"time": 242401, "pitch": 79, "duration": 1856, "velocity": 98}], "annotations": [{"time": 283, "annotation": {"number": 7, "value": 90}, "group": "control_change"}, {"time": 304, "annotation": {"number": 11, "value": 100}, "group": "control_change"}, {"time": 326, "annotation": {"number": 10, "value": 70}, "group": "control_change"}, {"time": 348, "annotation": {"number": 91, "value": 40}, "group": "control_change"}, {"time": 370, "annotation": {"number": 93, "value": 0}, "group": "control_change"}, {"time": 391, "annotation": {"number": 101, "value": 0}, "group": "control_change"}, {"time": 413, "annotation": {"number": 100, "value": 0}, "group": "control_change"}, {"time": 435, "annotation": {"number": 6, "value": 12}, "group": "control_change"}, {"time": 456, "annotation": {"number": 101, "value": 127}, "group": "control_change"}, {"time": 478, "annotation": {"number": 100, "value": 127}, "group": "control_change"}]}, {"program": 0, "is_drum": false, "name": "PAD SYNTH", "annotations": [{"time": 217, "annotation": {"number": 0, "value": 0}, "group": "control_change"}, {"time": 239, "annotation": {"number": 32, "value": 0}, "group": "control_change"}]}, {"program": 50, "is_drum": false, "name": "PAD SYNTH", "notes": [{"time": 2402, "pitch": 40, "duration": 1916, "velocity": 127}, {"time": 2402, "pitch": 59, "duration": 1916, "velocity": 127}, {"time": 2402, "pitch": 64, "duration": 1916, "velocity": 127}, {"time": 2402, "pitch": 67, "duration": 1916, "velocity": 127}, {"time": 4318, "pitch": 38, "duration": 1927, "velocity": 127}, {"time": 4318, "pitch": 57, "duration": 1927, "velocity": 127}, {"time": 4318, "pitch": 62, "duration": 1927, "velocity": 127}, {"time": 4318, "pitch": 66, "duration": 1927, "velocity": 127}, {"time": 6245, "pitch": 36, "duration": 3832, "velocity": 127}, {"time": 6245, "pitch": 59, "duration": 3832, "velocity": 127}, {"time": 6245, "pitch": 64, "duration": 3832, "velocity": 127}, {"time": 6245, "pitch": 67, "duration": 3832, "velocity": 127}, {"time": 10077, "pitch": 40, "duration": 1926, "velocity": 127}, {"time": 10077, "pitch": 59, "duration": 1926, "velocity": 127}, {"time": 10077, "pitch": 64, "duration": 1926, "velocity": 127}, {"time": 10077, "pitch": 67, "duration": 1926, "velocity": 127}, {"time": 12003, "pitch": 38, "duration": 1916, "velocity": 127}, {"time": 12003, "pitch": 57, "duration": 1916, "velocity": 127}, {"time": 12003, "pitch": 62, "duration": 1916, "velocity": 127}, {"time": 12003, "pitch": 66, "duration": 1916, "velocity": 127}, {"time": 13919, "pitch": 36, "duration": 3843, "velocity": 127}, {"time": 13919, "pitch": 59, "duration": 3843, "velocity": 127}, {"time": 13919, "pitch": 64, "duration": 3843, "velocity": 127}, {"time": 13919, "pitch": 67, "duration": 3843, "velocity": 127}, {"time": 17762, "pitch": 40, "duration": 1916, "velocity": 127}, {"time": 17762, "pitch": 59, "duration": 1916, "velocity": 127}, {"time": 17762, "pitch": 64, "duration": 1916, "velocity": 127}, {"time": 17762, "pitch": 67, "duration": 1916, "velocity": 127}, {"time": 19678, "pitch": 38, "duration": 1926, "velocity": 127}, {"time": 19678, "pitch": 57, "duration": 1926, "velocity": 127}, {"time": 19678, "pitch": 62, "duration": 1926, "velocity": 127}, {"time": 19678, "pitch": 66, "duration": 1926, "velocity": 127}, {"time": 21604, "pitch": 36, "duration": 3832, "velocity": 127}, {"time": 21604, "pitch": 59, "duration": 3832, "velocity": 127}, {"time": 21604, "pitch": 64, "duration": 3832, "velocity": 127}, {"time": 21604, "pitch": 67, "duration": 3832, "velocity": 127}, {"time": 25436, "pitch": 40, "duration": 1926, "velocity": 127}, {"time": 25436, "pitch": 59, "duration": 1926, "velocity": 127}, {"time": 25436, "pitch": 64, "duration": 1926, "velocity": 127}, {"time": 25436, "pitch": 67, "duration": 1926, "velocity": 127}, {"time": 27362, "pitch": 38, "duration": 1916, "velocity": 127}, {"time": 27362, "pitch": 57, "duration": 1916, "velocity": 127}, {"time": 27362, "pitch": 62, "duration": 1916, "velocity": 127}, {"time": 27362, "pitch": 66, "duration": 1916, "velocity": 127}, {"time": 29278, "pitch": 36, "duration": 3843, "velocity": 127}, {"time": 29278, "pitch": 59, "duration": 3843, "velocity": 127}, {"time": 29278, "pitch": 64, "duration": 3843, "velocity": 127}, {"time": 29278, "pitch": 67, "duration": 3843, "velocity": 127}, {"time": 48480, "pitch": 40, "duration": 3481, "velocity": 127}, {"time": 48480, "pitch": 59, "duration": 3481, "velocity": 127}, {"time": 48480, "pitch": 64, "duration": 3481, "velocity": 127}, {"time": 48480, "pitch": 67, "duration": 3481, "velocity": 127}, {"time": 51961, "pitch": 38, "duration": 361, "velocity": 127}, {"time": 51961, "pitch": 62, "duration": 361, "velocity": 127}, {"time": 51961, "pitch": 66, "duration": 361, "velocity": 127}, {"time": 51961, "pitch": 69, "duration": 361, "velocity": 127}, {"time": 52322, "pitch": 40, "duration": 3482, "velocity": 127}, {"time": 52322, "pitch": 59, "duration": 3482, "velocity": 127}, {"time": 52322, "pitch": 64, "duration": 3482, "velocity": 127}, {"time": 52322, "pitch": 67, "duration": 3482, "velocity": 127}, {"time": 55804, "pitch": 38, "duration": 361, "velocity": 127}, {"time": 55804, "pitch": 62, "duration": 361, "velocity": 127}, {"time": 55804, "pitch": 66, "duration": 361, "velocity": 127}, {"time": 55804, "pitch": 69, "duration": 361, "velocity": 127}, {"time": 56165, "pitch": 40, "duration": 3471, "velocity": 127}, {"time": 56165, "pitch": 59, "duration": 3471, "velocity": 127}, {"time": 56165, "pitch": 64, "duration": 3471, "velocity": 127}, {"time": 56165, "pitch": 67, "duration": 3471, "velocity": 127}, {"time": 59636, "pitch": 38, "duration": 361, "velocity": 127}, {"time": 59636, "pitch": 62, "duration": 361, "velocity": 127}, {"time": 59636, "pitch": 66, "duration": 361, "velocity": 127}, {"time": 59636, "pitch": 69, "duration": 361, "velocity": 127}, {"time": 59997, "pitch": 40, "duration": 3842, "velocity": 127}, {"time": 59997, "pitch": 59, "duration": 3842, "velocity": 127}, {"time": 59997, "pitch": 64, "duration": 3842, "velocity": 127}, {"time": 59997, "pitch": 67, "duration": 3842, "velocity": 127}, {"time": 63839, "pitch": 36, "duration": 1916, "velocity": 127}, {"time": 63839, "pitch": 59, "duration": 1916, "velocity": 127}, {"time": 63839, "pitch": 64, "duration": 1916, "velocity": 127}, {"time": 63839, "pitch": 67, "duration": 3843, "velocity": 127}, {"time": 65755, "pitch": 43, "duration": 1927, "velocity": 127}, {"time": 65755, "pitch": 59, "duration": 1927, "velocity": 127}, {"time": 65755, "pitch": 62, "duration": 1927, "velocity": 127}, {"time": 67682, "pitch": 38, "duration": 1916, "velocity": 127}, {"time": 67682, "pitch": 57, "duration": 1916, "velocity": 127}, {"time": 67682, "pitch": 62, "duration": 1916, "velocity": 127}, {"time": 67682, "pitch": 66, "duration": 1916, "velocity": 127}, {"time": 69598, "pitch": 40, "duration": 1926, "velocity": 127}, {"time": 69598, "pitch": 59, "duration": 1926, "velocity": 127}, {"time": 69598, "pitch": 64, "duration": 1926, "velocity": 127}, {"time": 69598, "pitch": 67, "duration": 1926, "velocity": 127}, {"time": 71524, "pitch": 36, "duration": 1916, "velocity": 127}, {"time": 71524, "pitch": 59, "duration": 3832, "velocity": 127}, {"time": 71524, "pitch": 62, "duration": 3832, "velocity": 127}, {"time": 71524, "pitch": 67, "duration": 3832, "velocity": 127}, {"time": 73440, "pitch": 43, "duration": 1916, "velocity": 127}, {"time": 75356, "pitch": 45, "duration": 1926, "velocity": 127}, {"time": 75356, "pitch": 57, "duration": 1926, "velocity": 127}, {"time": 75356, "pitch": 61, "duration": 1926, "velocity": 127}, {"time": 75356, "pitch": 64, "duration": 1926, "velocity": 127}, {"time": 77282, "pitch": 35, "duration": 2157, "velocity": 127}, {"time": 77282, "pitch": 59, "duration": 2157, "velocity": 127}, {"time": 77282, "pitch": 64, "duration": 1916, "velocity": 127}, {"time": 77282, "pitch": 66, "duration": 2157, "velocity": 127}, {"time": 77282, "pitch": 69, "duration": 2157, "velocity": 127}, {"time": 79198, "pitch": 63, "duration": 241, "velocity": 127}, {"time": 81125, "pitch": 40, "duration": 1916, "velocity": 127}, {"time": 81125, "pitch": 55, "duration": 1916, "velocity": 127}, {"time": 81125, "pitch": 59, "duration": 1916, "velocity": 127}, {"time": 81125, "pitch": 64, "duration": 1916, "velocity": 127}, {"time": 81125, "pitch": 67, "duration": 1916, "velocity": 127}, {"time": 83041, "pitch": 38, "duration": 1916, "velocity": 127}, {"time": 83041, "pitch": 57, "duration": 1916, "velocity": 127}, {"time": 83041, "pitch": 62, "duration": 1916, "velocity": 127}, {"time": 83041, "pitch": 67, "duration": 963, "velocity": 127}, {"time": 84004, "pitch": 66, "duration": 953, "velocity": 127}, {"time": 84957, "pitch": 36, "duration": 1926, "velocity": 127}, {"time": 84957, "pitch": 59, "duration": 1926, "velocity": 127}, {"time": 84957, "pitch": 62, "duration": 3842, "velocity": 127}, {"time": 84957, "pitch": 64, "duration": 1926, "velocity": 127}, {"time": 84957, "pitch": 67, "duration": 3842, "velocity": 127}, {"time": 86883, "pitch": 43, "duration": 1916, "velocity": 127}, {"time": 86883, "pitch": 59, "duration": 1916, "velocity": 127}, {"time": 88799, "pitch": 45, "duration": 1909, "velocity": 127}, {"time": 88799, "pitch": 57, "duration": 1916, "velocity": 127}, {"time": 88799, "pitch": 60, "duration": 1916, "velocity": 127}, {"time": 88799, "pitch": 64, "duration": 1916, "velocity": 127}, {"time": 88799, "pitch": 67, "duration": 3843, "velocity": 127}, {"time": 90715, "pitch": 43, "duration": 1927, "velocity": 127}, {"time": 90715, "pitch": 59, "duration": 1927, "velocity": 127}, {"time": 90715, "pitch": 62, "duration": 1927, "velocity": 127}, {"time": 92642, "pitch": 45, "duration": 1915, "velocity": 127}, {"time": 92642, "pitch": 57, "duration": 1915, "velocity": 127}, {"time": 92642, "pitch": 60, "duration": 1915, "velocity": 127}, {"time": 92642, "pitch": 64, "duration": 1915, "velocity": 127}, {"time": 92642, "pitch": 67, "duration": 1915, "velocity": 127}, {"time": 94557, "pitch": 47, "duration": 1927, "velocity": 127}, {"time": 94557, "pitch": 59, "duration": 1927, "velocity": 127}, {"time": 94557, "pitch": 64, "duration": 964, "velocity": 127}, {"time": 94557, "pitch": 66, "duration": 1927, "velocity": 127}, {"time": 94557, "pitch": 69, "duration": 1927, "velocity": 127}, {"time": 95521, "pitch": 63, "duration": 963, "velocity": 127}, {"time": 96484, "pitch": 40, "duration": 1916, "velocity": 127}, {"time": 96484, "pitch": 55, "duration": 1916, "velocity": 127}, {"time": 96484, "pitch": 59, "duration": 1916, "velocity": 127}, {"time": 96484, "pitch": 64, "duration": 1916, "velocity": 127}, {"time": 96484, "pitch": 67, "duration": 1916, "velocity": 127}, {"time": 98400, "pitch": 38, "duration": 1916, "velocity": 127}, {"time": 98400, "pitch": 57, "duration": 1916, "velocity": 127}, {"time": 98400, "pitch": 62, "duration": 1916, "velocity": 127}, {"time": 98400, "pitch": 67, "duration": 963, "velocity": 127}, {"time": 99363, "pitch": 66, "duration": 953, "velocity": 127}, {"time": 100316, "pitch": 36, "duration": 1926, "velocity": 127}, {"time": 100316, "pitch": 59, "duration": 1926, "velocity": 127}, {"time": 100316, "pitch": 62, "duration": 3842, "velocity": 127}, {"time": 100316, "pitch": 64, "duration": 1926, "velocity": 127}, {"time": 100316, "pitch": 67, "duration": 3842, "velocity": 127}, {"time": 102242, "pitch": 43, "duration": 1916, "velocity": 127}, {"time": 102242, "pitch": 59, "duration": 1916, "velocity": 127}, {"time": 104158, "pitch": 45, "duration": 1920, "velocity": 127}, {"time": 104158, "pitch": 57, "duration": 1927, "velocity": 127}, {"time": 104158, "pitch": 60, "duration": 1927, "velocity": 127}, {"time": 104158, "pitch": 64, "duration": 1927, "velocity": 127}, {"time": 104158, "pitch": 67, "duration": 3843, "velocity": 127}, {"time": 106085, "pitch": 43, "duration": 1916, "velocity": 127}, {"time": 106085, "pitch": 59, "duration": 1916, "velocity": 127}, {"time": 106085, "pitch": 62, "duration": 1916, "velocity": 127}, {"time": 108001, "pitch": 45, "duration": 1916, "velocity": 127}, {"time": 108001, "pitch": 57, "duration": 1916, "velocity": 127}, {"time": 108001, "pitch": 60, "duration": 1916, "velocity": 127}, {"time": 108001, "pitch": 64, "duration": 1916, "velocity": 127}, {"time": 108001, "pitch": 67, "duration": 1916, "velocity": 127}, {"time": 109917, "pitch": 38, "duration": 1926, "velocity": 127}, {"time": 109917, "pitch": 57, "duration": 1926, "velocity": 127}, {"time": 109917, "pitch": 62, "duration": 1926, "velocity": 127}, {"time": 109917, "pitch": 66, "duration": 1926, "velocity": 127}, {"time": 111843, "pitch": 36, "duration": 3832, "velocity": 127}, {"time": 111843, "pitch": 59, "duration": 3832, "velocity": 127}, {"time": 111843, "pitch": 62, "duration": 3832, "velocity": 127}, {"time": 111843, "pitch": 64, "duration": 3832, "velocity": 127}, {"time": 111843, "pitch": 67, "duration": 3832, "velocity": 127}, {"time": 115675, "pitch": 40, "duration": 1926, "velocity": 127}, {"time": 115675, "pitch": 59, "duration": 1926, "velocity": 127}, {"time": 115675, "pitch": 64, "duration": 1926, "velocity": 127}, {"time": 115675, "pitch": 67, "duration": 1926, "velocity": 127}, {"time": 117601, "pitch": 38, "duration": 1916, "velocity": 127}, {"time": 117601, "pitch": 57, "duration": 1916, "velocity": 127}, {"time": 117601, "pitch": 62, "duration": 1916, "velocity": 127}, {"time": 117601, "pitch": 66, "duration": 1916, "velocity": 127}, {"time": 119517, "pitch": 36, "duration": 3843, "velocity": 127}, {"time": 119517, "pitch": 59, "duration": 3843, "velocity": 127}, {"time": 119517, "pitch": 64, "duration": 3843, "velocity": 127}, {"time": 119517, "pitch": 67, "duration": 3843, "velocity": 127}, {"time": 123360, "pitch": 40, "duration": 1916, "velocity": 127}, {"time": 123360, "pitch": 59, "duration": 1916, "velocity": 127}, {"time": 123360, "pitch": 64, "duration": 1916, "velocity": 127}, {"time": 123360, "pitch": 67, "duration": 1916, "velocity": 127}, {"time": 125276, "pitch": 38, "duration": 1926, "velocity": 127}, {"time": 125276, "pitch": 57, "duration": 1926, "velocity": 127}, {"time": 125276, "pitch": 62, "duration": 1926, "velocity": 127}, {"time": 125276, "pitch": 66, "duration": 1926, "velocity": 127}, {"time": 127202, "pitch": 36, "duration": 3843, "velocity": 127}, {"time": 127202, "pitch": 59, "duration": 3843, "velocity": 127}, {"time": 127202, "pitch": 64, "duration": 3843, "velocity": 127}, {"time": 127202, "pitch": 67, "duration": 3843, "velocity": 127}, {"time": 146404, "pitch": 36, "duration": 1916, "velocity": 127}, {"time": 146404, "pitch": 59, "duration": 1916, "velocity": 127}, {"time": 146404, "pitch": 64, "duration": 1916, "velocity": 127}, {"time": 146404, "pitch": 67, "duration": 3832, "velocity": 127}, {"time": 148320, "pitch": 43, "duration": 1916, "velocity": 127}, {"time": 148320, "pitch": 59, "duration": 1916, "velocity": 127}, {"time": 148320, "pitch": 62, "duration": 1916, "velocity": 127}, {"time": 150236, "pitch": 38, "duration": 1926, "velocity": 127}, {"time": 150236, "pitch": 57, "duration": 1926, "velocity": 127}, {"time": 150236, "pitch": 62, "duration": 1926, "velocity": 127}, {"time": 150236, "pitch": 66, "duration": 1926, "velocity": 127}, {"time": 152162, "pitch": 40, "duration": 1916, "velocity": 127}, {"time": 152162, "pitch": 59, "duration": 1916, "velocity": 127}, {"time": 152162, "pitch": 64, "duration": 1916, "velocity": 127}, {"time": 152162, "pitch": 67, "duration": 1916, "velocity": 127}, {"time": 154078, "pitch": 36, "duration": 1927, "velocity": 127}, {"time": 154078, "pitch": 59, "duration": 3843, "velocity": 127}, {"time": 154078, "pitch": 62, "duration": 3843, "velocity": 127}, {"time": 154078, "pitch": 67, "duration": 3843, "velocity": 127}, {"time": 156005, "pitch": 43, "duration": 1916, "velocity": 127}, {"time": 157921, "pitch": 45, "duration": 1916, "velocity": 127}, {"time": 157921, "pitch": 57, "duration": 1916, "velocity": 127}, {"time": 157921, "pitch": 61, "duration": 1916, "velocity": 127}, {"time": 157921, "pitch": 64, "duration": 1916, "velocity": 127}, {"time": 159837, "pitch": 35, "duration": 2167, "velocity": 127}, {"time": 159837, "pitch": 59, "duration": 2167, "velocity": 127}, {"time": 159837, "pitch": 64, "duration": 1926, "velocity": 127}, {"time": 159837, "pitch": 66, "duration": 2167, "velocity": 127}, {"time": 159837, "pitch": 69, "duration": 2167, "velocity": 127}, {"time": 161763, "pitch": 63, "duration": 241, "velocity": 127}, {"time": 163679, "pitch": 40, "duration": 1916, "velocity": 127}, {"time": 163679, "pitch": 55, "duration": 1916, "velocity": 127}, {"time": 163679, "pitch": 59, "duration": 1916, "velocity": 127}, {"time": 163679, "pitch": 64, "duration": 1916, "velocity": 127}, {"time": 163679, "pitch": 67, "duration": 1916, "velocity": 127}, {"time": 165595, "pitch": 38, "duration": 1926, "velocity": 127}, {"time": 165595, "pitch": 57, "duration": 1926, "velocity": 127}, {"time": 165595, "pitch": 62, "duration": 1926, "velocity": 127}, {"time": 165595, "pitch": 67, "duration": 963, "velocity": 127}, {"time": 166558, "pitch": 66, "duration": 963, "velocity": 127}, {"time": 167521, "pitch": 36, "duration": 1916, "velocity": 127}, {"time": 167521, "pitch": 59, "duration": 1916, "velocity": 127}, {"time": 167521, "pitch": 62, "duration": 3843, "velocity": 127}, {"time": 167521, "pitch": 64, "duration": 1916, "velocity": 127}, {"time": 167521, "pitch": 67, "duration": 3843, "velocity": 127}, {"time": 169437, "pitch": 43, "duration": 1927, "velocity": 127}, {"time": 169437, "pitch": 59, "duration": 1927, "velocity": 127}, {"time": 171364, "pitch": 45, "duration": 1909, "velocity": 127}, {"time": 171364, "pitch": 57, "duration": 1916, "velocity": 127}, {"time": 171364, "pitch": 60, "duration": 1916, "velocity": 127}, {"time": 171364, "pitch": 64, "duration": 1916, "velocity": 127}, {"time": 171364, "pitch": 67, "duration": 3832, "velocity": 127}, {"time": 173280, "pitch": 43, "duration": 1916, "velocity": 127}, {"time": 173280, "pitch": 59, "duration": 1916, "velocity": 127}, {"time": 173280, "pitch": 62, "duration": 1916, "velocity": 127}, {"time": 175196, "pitch": 45, "duration": 1926, "velocity": 127}, {"time": 175196, "pitch": 57, "duration": 1926, "velocity": 127}, {"time": 175196, "pitch": 60, "duration": 1926, "velocity": 127}, {"time": 175196, "pitch": 64, "duration": 1926, "velocity": 127}, {"time": 175196, "pitch": 67, "duration": 1926, "velocity": 127}, {"time": 177122, "pitch": 47, "duration": 1916, "velocity": 127}, {"time": 177122, "pitch": 59, "duration": 1916, "velocity": 127}, {"time": 177122, "pitch": 64, "duration": 953, "velocity": 127}, {"time": 177122, "pitch": 66, "duration": 1916, "velocity": 127}, {"time": 177122, "pitch": 69, "duration": 1916, "velocity": 127}, {"time": 178075, "pitch": 63, "duration": 963, "velocity": 127}, {"time": 179038, "pitch": 40, "duration": 1927, "velocity": 127}, {"time": 179038, "pitch": 55, "duration": 1927, "velocity": 127}, {"time": 179038, "pitch": 59, "duration": 1927, "velocity": 127}, {"time": 179038, "pitch": 64, "duration": 1927, "velocity": 127}, {"time": 179038, "pitch": 67, "duration": 1927, "velocity": 127}, {"time": 180965, "pitch": 38, "duration": 1916, "velocity": 127}, {"time": 180965, "pitch": 57, "duration": 1916, "velocity": 127}, {"time": 180965, "pitch": 62, "duration": 1916, "velocity": 127}, {"time": 180965, "pitch": 67, "duration": 952, "velocity": 127}, {"time": 181917, "pitch": 66, "duration": 964, "velocity": 127}, {"time": 182881, "pitch": 36, "duration": 1916, "velocity": 127}, {"time": 182881, "pitch": 59, "duration": 1916, "velocity": 127}, {"time": 182881, "pitch": 62, "duration": 3842, "velocity": 127}, {"time": 182881, "pitch": 64, "duration": 1916, "velocity": 127}, {"time": 182881, "pitch": 67, "duration": 3842, "velocity": 127}, {"time": 184797, "pitch": 43, "duration": 1926, "velocity": 127}, {"time": 184797, "pitch": 59, "duration": 1926, "velocity": 127}, {"time": 186723, "pitch": 45, "duration": 1909, "velocity": 127}, {"time": 186723, "pitch": 57, "duration": 1916, "velocity": 127}, {"time": 186723, "pitch": 60, "duration": 1916, "velocity": 127}, {"time": 186723, "pitch": 64, "duration": 1916, "velocity": 127}, {"time": 186723, "pitch": 67, "duration": 3832, "velocity": 127}, {"time": 188639, "pitch": 43, "duration": 1916, "velocity": 127}, {"time": 188639, "pitch": 59, "duration": 1916, "velocity": 127}, {"time": 188639, "pitch": 62, "duration": 1916, "velocity": 127}, {"time": 190555, "pitch": 45, "duration": 1926, "velocity": 127}, {"time": 190555, "pitch": 57, "duration": 1926, "velocity": 127}, {"time": 190555, "pitch": 60, "duration": 1926, "velocity": 127}, {"time": 190555, "pitch": 64, "duration": 1926, "velocity": 127}, {"time": 190555, "pitch": 67, "duration": 1926, "velocity": 127}, {"time": 192481, "pitch": 38, "duration": 1916, "velocity": 127}, {"time": 192481, "pitch": 57, "duration": 1916, "velocity": 127}, {"time": 192481, "pitch": 62, "duration": 1916, "velocity": 127}, {"time": 192481, "pitch": 66, "duration": 1916, "velocity": 127}, {"time": 194397, "pitch": 36, "duration": 1927, "velocity": 127}, {"time": 194397, "pitch": 59, "duration": 1927, "velocity": 127}, {"time": 194397, "pitch": 62, "duration": 1927, "velocity": 127}, {"time": 194397, "pitch": 64, "duration": 1927, "velocity": 127}, {"time": 194397, "pitch": 67, "duration": 1927, "velocity": 127}, {"time": 196324, "pitch": 43, "duration": 1916, "velocity": 127}, {"time": 196324, "pitch": 59, "duration": 1916, "velocity": 127}, {"time": 196324, "pitch": 62, "duration": 1916, "velocity": 127}, {"time": 198240, "pitch": 38, "duration": 1916, "velocity": 127}, {"time": 198240, "pitch": 57, "duration": 1916, "velocity": 127}, {"time": 198240, "pitch": 62, "duration": 1916, "velocity": 127}, {"time": 198240, "pitch": 66, "duration": 1916, "velocity": 127}, {"time": 200156, "pitch": 40, "duration": 1926, "velocity": 127}, {"time": 200156, "pitch": 59, "duration": 1926, "velocity": 127}, {"time": 200156, "pitch": 64, "duration": 1926, "velocity": 127}, {"time": 200156, "pitch": 67, "duration": 1926, "velocity": 127}, {"time": 202082, "pitch": 36, "duration": 1916, "velocity": 127}, {"time": 202082, "pitch": 59, "duration": 3843, "velocity": 127}, {"time": 202082, "pitch": 62, "duration": 3843, "velocity": 127}, {"time": 202082, "pitch": 67, "duration": 3843, "velocity": 127}, {"time": 203998, "pitch": 43, "duration": 1927, "velocity": 127}, {"time": 205925, "pitch": 45, "duration": 1916, "velocity": 127}, {"time": 205925, "pitch": 57, "duration": 1916, "velocity": 127}, {"time": 205925, "pitch": 61, "duration": 1916, "velocity": 127}, {"time": 205925, "pitch": 64, "duration": 1916, "velocity": 127}, {"time": 207841, "pitch": 35, "duration": 2156, "velocity": 127}, {"time": 207841, "pitch": 59, "duration": 2156, "velocity": 127}, {"time": 207841, "pitch": 64, "duration": 1916, "velocity": 127}, {"time": 207841, "pitch": 66, "duration": 2156, "velocity": 127}, {"time": 207841, "pitch": 69, "duration": 2156, "velocity": 127}, {"time": 209757, "pitch": 63, "duration": 240, "velocity": 127}, {"time": 211683, "pitch": 40, "duration": 1916, "velocity": 127}, {"time": 211683, "pitch": 55, "duration": 1916, "velocity": 127}, {"time": 211683, "pitch": 59, "duration": 1916, "velocity": 127}, {"time": 211683, "pitch": 64, "duration": 1916, "velocity": 127}, {"time": 211683, "pitch": 67, "duration": 1916, "velocity": 127}, {"time": 213599, "pitch": 38, "duration": 1916, "velocity": 127}, {"time": 213599, "pitch": 57, "duration": 1916, "velocity": 127}, {"time": 213599, "pitch": 62, "duration": 1916, "velocity": 127}, {"time": 213599, "pitch": 67, "duration": 963, "velocity": 127}, {"time": 214562, "pitch": 66, "duration": 953, "velocity": 127}, {"time": 215515, "pitch": 36, "duration": 1926, "velocity": 127}, {"time": 215515, "pitch": 59, "duration": 1926, "velocity": 127}, {"time": 215515, "pitch": 62, "duration": 3842, "velocity": 127}, {"time": 215515, "pitch": 64, "duration": 1926, "velocity": 127}, {"time": 215515, "pitch": 67, "duration": 3842, "velocity": 127}, {"time": 217441, "pitch": 43, "duration": 1916, "velocity": 127}, {"time": 217441, "pitch": 59, "duration": 1916, "velocity": 127}, {"time": 219357, "pitch": 45, "duration": 1920, "velocity": 127}, {"time": 219357, "pitch": 57, "duration": 1927, "velocity": 127}, {"time": 219357, "pitch": 60, "duration": 1927, "velocity": 127}, {"time": 219357, "pitch": 64, "duration": 1927, "velocity": 127}, {"time": 219357, "pitch": 67, "duration": 3843, "velocity": 127}, {"time": 221284, "pitch": 43, "duration": 1916, "velocity": 127}, {"time": 221284, "pitch": 59, "duration": 1916, "velocity": 127}, {"time": 221284, "pitch": 62, "duration": 1916, "velocity": 127}, {"time": 223200, "pitch": 45, "duration": 1916, "velocity": 127}, {"time": 223200, "pitch": 57, "duration": 1916, "velocity": 127}, {"time": 223200, "pitch": 60, "duration": 1916, "velocity": 127}, {"time": 223200, "pitch": 64, "duration": 1916, "velocity": 127}, {"time": 223200, "pitch": 67, "duration": 1916, "velocity": 127}, {"time": 225116, "pitch": 47, "duration": 1926, "velocity": 127}, {"time": 225116, "pitch": 59, "duration": 1926, "velocity": 127}, {"time": 225116, "pitch": 64, "duration": 963, "velocity": 127}, {"time": 225116, "pitch": 66, "duration": 1926, "velocity": 127}, {"time": 225116, "pitch": 69, "duration": 1926, "velocity": 127}, {"time": 226079, "pitch": 63, "duration": 963, "velocity": 127}, {"time": 227042, "pitch": 40, "duration": 1916, "velocity": 127}, {"time": 227042, "pitch": 55, "duration": 1916, "velocity": 127}, {"time": 227042, "pitch": 59, "duration": 1916, "velocity": 127}, {"time": 227042, "pitch": 64, "duration": 1916, "velocity": 127}, {"time": 227042, "pitch": 67, "duration": 1916, "velocity": 127}, {"time": 228958, "pitch": 38, "duration": 1926, "velocity": 127}, {"time": 228958, "pitch": 57, "duration": 1926, "velocity": 127}, {"time": 228958, "pitch": 62, "duration": 1926, "velocity": 127}, {"time": 228958, "pitch": 67, "duration": 963, "velocity": 127}, {"time": 229921, "pitch": 66, "duration": 963, "velocity": 127}, {"time": 230884, "pitch": 36, "duration": 1917, "velocity": 127}, {"time": 230884, "pitch": 59, "duration": 1917, "velocity": 127}, {"time": 230884, "pitch": 62, "duration": 3833, "velocity": 127}, {"time": 230884, "pitch": 64, "duration": 1917, "velocity": 127}, {"time": 230884, "pitch": 67, "duration": 3833, "velocity": 127}, {"time": 232801, "pitch": 43, "duration": 1916, "velocity": 127}, {"time": 232801, "pitch": 59, "duration": 1916, "velocity": 127}, {"time": 234717, "pitch": 45, "duration": 1919, "velocity": 127}, {"time": 234717, "pitch": 57, "duration": 1926, "velocity": 127}, {"time": 234717, "pitch": 60, "duration": 1926, "velocity": 127}, {"time": 234717, "pitch": 64, "duration": 1926, "velocity": 127}, {"time": 234717, "pitch": 67, "duration": 3842, "velocity": 127}, {"time": 236643, "pitch": 43, "duration": 1916, "velocity": 127}, {"time": 236643, "pitch": 59, "duration": 1916, "velocity": 127}, {"time": 236643, "pitch": 62, "duration": 1916, "velocity": 127}, {"time": 238559, "pitch": 45, "duration": 1916, "velocity": 127}, {"time": 238559, "pitch": 57, "duration": 1916, "velocity": 127}, {"time": 238559, "pitch": 60, "duration": 1916, "velocity": 127}, {"time": 238559, "pitch": 64, "duration": 1916, "velocity": 127}, {"time": 238559, "pitch": 67, "duration": 1916, "velocity": 127}, {"time": 240475, "pitch": 38, "duration": 1926, "velocity": 127}, {"time": 240475, "pitch": 57, "duration": 1926, "velocity": 127}, {"time": 240475, "pitch": 62, "duration": 1926, "velocity": 127}, {"time": 240475, "pitch": 66, "duration": 1926, "velocity": 127}, {"time": 246244, "pitch": 40, "duration": 1916, "velocity": 127}, {"time": 246244, "pitch": 59, "duration": 1916, "velocity": 127}, {"time": 246244, "pitch": 64, "duration": 1916, "velocity": 127}, {"time": 246244, "pitch": 67, "duration": 1916, "velocity": 127}, {"time": 248160, "pitch": 38, "duration": 1916, "velocity": 127}, {"time": 248160, "pitch": 57, "duration": 1916, "velocity": 127}, {"time": 248160, "pitch": 62, "duration": 1916, "velocity": 127}, {"time": 248160, "pitch": 66, "duration": 1916, "velocity": 127}, {"time": 250076, "pitch": 36, "duration": 3842, "velocity": 127}, {"time": 250076, "pitch": 59, "duration": 3842, "velocity": 127}, {"time": 250076, "pitch": 64, "duration": 3842, "velocity": 127}, {"time": 250076, "pitch": 67, "duration": 3842, "velocity": 127}, {"time": 253918, "pitch": 40, "duration": 1926, "velocity": 127}, {"time": 253918, "pitch": 59, "duration": 1926, "velocity": 127}, {"time": 253918, "pitch": 64, "duration": 1926, "velocity": 127}, {"time": 253918, "pitch": 67, "duration": 1926, "velocity": 127}, {"time": 255844, "pitch": 38, "duration": 1917, "velocity": 127}, {"time": 255844, "pitch": 57, "duration": 1917, "velocity": 127}, {"time": 255844, "pitch": 62, "duration": 1917, "velocity": 127}, {"time": 255844, "pitch": 66, "duration": 1917, "velocity": 127}, {"time": 257761, "pitch": 36, "duration": 3842, "velocity": 127}, {"time": 257761, "pitch": 59, "duration": 3842, "velocity": 127}, {"time": 257761, "pitch": 64, "duration": 3842, "velocity": 127}, {"time": 257761, "pitch": 67, "duration": 3842, "velocity": 127}, {"time": 261603, "pitch": 40, "duration": 1916, "velocity": 127}, {"time": 261603, "pitch": 59, "duration": 1916, "velocity": 127}, {"time": 261603, "pitch": 64, "duration": 1916, "velocity": 127}, {"time": 261603, "pitch": 67, "duration": 1916, "velocity": 127}, {"time": 263519, "pitch": 38, "duration": 1916, "velocity": 127}, {"time": 263519, "pitch": 57, "duration": 1916, "velocity": 127}, {"time": 263519, "pitch": 62, "duration": 1916, "velocity": 127}, {"time": 263519, "pitch": 66, "duration": 1916, "velocity": 127}, {"time": 265435, "pitch": 36, "duration": 3842, "velocity": 127}, {"time": 265435, "pitch": 59, "duration": 3842, "velocity": 127}, {"time": 265435, "pitch": 64, "duration": 3842, "velocity": 127}, {"time": 265435, "pitch": 67, "duration": 3842, "velocity": 127}, {"time": 269277, "pitch": 40, "duration": 1927, "velocity": 127}, {"time": 269277, "pitch": 59, "duration": 1927, "velocity": 127}, {"time": 269277, "pitch": 64, "duration": 1927, "velocity": 127}, {"time": 269277, "pitch": 67, "duration": 1927, "velocity": 127}, {"time": 271204, "pitch": 38, "duration": 1916, "velocity": 127}, {"time": 271204, "pitch": 57, "duration": 1916, "velocity": 127}, {"time": 271204, "pitch": 62, "duration": 1916, "velocity": 127}, {"time": 271204, "pitch": 66, "duration": 1916, "velocity": 127}, {"time": 273120, "pitch": 36, "duration": 3842, "velocity": 127}, {"time": 273120, "pitch": 59, "duration": 3842, "velocity": 127}, {"time": 273120, "pitch": 64, "duration": 3842, "velocity": 127}, {"time": 273120, "pitch": 67, "duration": 3842, "velocity": 127}, {"time": 276962, "pitch": 40, "duration": 1916, "velocity": 127}, {"time": 276962, "pitch": 59, "duration": 1916, "velocity": 127}, {"time": 276962, "pitch": 64, "duration": 1916, "velocity": 127}, {"time": 276962, "pitch": 67, "duration": 1916, "velocity": 127}, {"time": 278878, "pitch": 38, "duration": 1926, "velocity": 127}, {"time": 278878, "pitch": 57, "duration": 1926, "velocity": 127}, {"time": 278878, "pitch": 62, "duration": 1926, "velocity": 127}, {"time": 278878, "pitch": 66, "duration": 1926, "velocity": 127}, {"time": 280804, "pitch": 36, "duration": 3843, "velocity": 127}, {"time": 280804, "pitch": 59, "duration": 3843, "velocity": 127}, {"time": 280804, "pitch": 64, "duration": 3843, "velocity": 127}, {"time": 280804, "pitch": 67, "duration": 3843, "velocity": 127}, {"time": 284647, "pitch": 40, "duration": 1926, "velocity": 127}, {"time": 284647, "pitch": 59, "duration": 1926, "velocity": 127}, {"time": 284647, "pitch": 64, "duration": 1926, "velocity": 127}, {"time": 284647, "pitch": 67, "duration": 1926, "velocity": 127}, {"time": 286573, "pitch": 38, "duration": 1927, "velocity": 127}, {"time": 286573, "pitch": 57, "duration": 1927, "velocity": 127}, {"time": 286573, "pitch": 62, "duration": 1927, "velocity": 127}, {"time": 286573, "pitch": 66, "duration": 1927, "velocity": 127}, {"time": 288500, "pitch": 36, "duration": 3853, "velocity": 127}, {"time": 288500, "pitch": 59, "duration": 3853, "velocity": 127}, {"time": 288500, "pitch": 64, "duration": 3853, "velocity": 127}, {"time": 288500, "pitch": 67, "duration": 3853, "velocity": 127}], "annotations": [{"time": 283, "annotation": {"number": 7, "value": 48}, "group": "control_change"}, {"time": 304, "annotation": {"number": 11, "value": 100}, "group": "control_change"}, {"time": 326, "annotation": {"number": 10, "value": 44}, "group": "control_change"}, {"time": 348, "annotation": {"number": 91, "value": 90}, "group": "control_change"}, {"time": 370, "annotation": {"number": 93, "value": 50}, "group": "control_change"}, {"time": 391, "annotation": {"number": 101, "value": 0}, "group": "control_change"}, {"time": 413, "annotation": {"number": 100, "value": 0}, "group": "control_change"}, {"time": 435, "annotation": {"number": 6, "value": 12}, "group": "control_change"}, {"time": 456, "annotation": {"number": 101, "value": 127}, "group": "control_change"}, {"time": 478, "annotation": {"number": 100, "value": 127}, "group": "control_change"}]}, {"program": 0, "is_drum": false, "name": "ARPEGGIO L", "annotations": [{"time": 217, "annotation": {"number": 0, "value": 0}, "group": "control_change"}, {"time": 239, "annotation": {"number": 32, "value": 0}, "group": "control_change"}]}, {"program": 88, "is_drum": false, "name": "ARPEGGIO L", "notes": [{"time": 2402, "pitch": 79, "duration": 121, "velocity": 127}, {"time": 2643, "pitch": 71, "duration": 121, "velocity": 127}, {"time": 2884, "pitch": 74, "duration": 118, "velocity": 127}, {"time": 3120, "pitch": 71, "duration": 117, "velocity": 127}, {"time": 3237, "pitch": 79, "duration": 118, "velocity": 127}, {"time": 3476, "pitch": 71, "duration": 120, "velocity": 127}, {"time": 3596, "pitch": 74, "duration": 120, "velocity": 127}, {"time": 3837, "pitch": 76, "duration": 120, "velocity": 127}, {"time": 3957, "pitch": 71, "duration": 121, "velocity": 127}, {"time": 4318, "pitch": 79, "duration": 121, "velocity": 127}, {"time": 4559, "pitch": 71, "duration": 121, "velocity": 127}, {"time": 4800, "pitch": 74, "duration": 120, "velocity": 127}, {"time": 5041, "pitch": 71, "duration": 120, "velocity": 127}, {"time": 5161, "pitch": 79, "duration": 121, "velocity": 127}, {"time": 5402, "pitch": 71, "duration": 120, "velocity": 127}, {"time": 5522, "pitch": 74, "duration": 121, "velocity": 127}, {"time": 5763, "pitch": 76, "duration": 121, "velocity": 127}, {"time": 5884, "pitch": 71, "duration": 120, "velocity": 127}, {"time": 6245, "pitch": 79, "duration": 118, "velocity": 127}, {"time": 6480, "pitch": 71, "duration": 118, "velocity": 127}, {"time": 6716, "pitch": 74, "duration": 120, "velocity": 127}, {"time": 6957, "pitch": 71, "duration": 120, "velocity": 127}, {"time": 7077, "pitch": 79, "duration": 121, "velocity": 127}, {"time": 7318, "pitch": 71, "duration": 120, "velocity": 127}, {"time": 7438, "pitch": 74, "duration": 121, "velocity": 127}, {"time": 7679, "pitch": 76, "duration": 121, "velocity": 127}, {"time": 7800, "pitch": 71, "duration": 120, "velocity": 127}, {"time": 8161, "pitch": 79, "duration": 120, "velocity": 127}, {"time": 8402, "pitch": 71, "duration": 120, "velocity": 127}, {"time": 8642, "pitch": 74, "duration": 121, "velocity": 127}, {"time": 8883, "pitch": 71, "duration": 121, "velocity": 127}, {"time": 9004, "pitch": 79, "duration": 120, "velocity": 127}, {"time": 9242, "pitch": 71, "duration": 118, "velocity": 127}, {"time": 9360, "pitch": 74, "duration": 117, "velocity": 127}, {"time": 9595, "pitch": 76, "duration": 121, "velocity": 127}, {"time": 9716, "pitch": 71, "duration": 120, "velocity": 127}, {"time": 10077, "pitch": 79, "duration": 120, "velocity": 127}, {"time": 10318, "pitch": 71, "duration": 120, "velocity": 127}, {"time": 10558, "pitch": 74, "duration": 121, "velocity": 127}, {"time": 10799, "pitch": 71, "duration": 121, "velocity": 127}, {"time": 10920, "pitch": 79, "duration": 120, "velocity": 127}, {"time": 11160, "pitch": 71, "duration": 121, "velocity": 127}, {"time": 11281, "pitch": 74, "duration": 120, "velocity": 127}, {"time": 11522, "pitch": 76, "duration": 120, "velocity": 127}, {"time": 11642, "pitch": 71, "duration": 120, "velocity": 127}, {"time": 12003, "pitch": 79, "duration": 121, "velocity": 127}, {"time": 12244, "pitch": 71, "duration": 120, "velocity": 127}, {"time": 12485, "pitch": 74, "duration": 118, "velocity": 127}, {"time": 12720, "pitch": 71, "duration": 118, "velocity": 127}, {"time": 12838, "pitch": 79, "duration": 118, "velocity": 127}, {"time": 13076, "pitch": 71, "duration": 121, "velocity": 127}, {"time": 13197, "pitch": 74, "duration": 120, "velocity": 127}, {"time": 13438, "pitch": 76, "duration": 120, "velocity": 127}, {"time": 13558, "pitch": 71, "duration": 120, "velocity": 127}, {"time": 13919, "pitch": 79, "duration": 121, "velocity": 127}, {"time": 14160, "pitch": 71, "duration": 120, "velocity": 127}, {"time": 14401, "pitch": 74, "duration": 120, "velocity": 127}, {"time": 14642, "pitch": 71, "duration": 120, "velocity": 127}, {"time": 14762, "pitch": 79, "duration": 120, "velocity": 127}, {"time": 15003, "pitch": 71, "duration": 120, "velocity": 127}, {"time": 15123, "pitch": 74, "duration": 121, "velocity": 127}, {"time": 15364, "pitch": 76, "duration": 118, "velocity": 127}, {"time": 15482, "pitch": 71, "duration": 118, "velocity": 127}, {"time": 15835, "pitch": 79, "duration": 121, "velocity": 127}, {"time": 16076, "pitch": 71, "duration": 120, "velocity": 127}, {"time": 16317, "pitch": 74, "duration": 120, "velocity": 127}, {"time": 16558, "pitch": 71, "duration": 120, "velocity": 127}, {"time": 16678, "pitch": 79, "duration": 120, "velocity": 127}, {"time": 16919, "pitch": 71, "duration": 120, "velocity": 127}, {"time": 17039, "pitch": 74, "duration": 121, "velocity": 127}, {"time": 17280, "pitch": 76, "duration": 120, "velocity": 127}, {"time": 17400, "pitch": 71, "duration": 121, "velocity": 127}, {"time": 17762, "pitch": 79, "duration": 120, "velocity": 127}, {"time": 18002, "pitch": 71, "duration": 121, "velocity": 127}, {"time": 18243, "pitch": 74, "duration": 121, "velocity": 127}, {"time": 18484, "pitch": 71, "duration": 120, "velocity": 127}, {"time": 18604, "pitch": 79, "duration": 121, "velocity": 127}, {"time": 18843, "pitch": 71, "duration": 117, "velocity": 127}, {"time": 18960, "pitch": 74, "duration": 118, "velocity": 127}, {"time": 19196, "pitch": 76, "duration": 120, "velocity": 127}, {"time": 19316, "pitch": 71, "duration": 121, "velocity": 127}, {"time": 19678, "pitch": 79, "duration": 120, "velocity": 127}, {"time": 19918, "pitch": 71, "duration": 121, "velocity": 127}, {"time": 20159, "pitch": 74, "duration": 121, "velocity": 127}, {"time": 20400, "pitch": 71, "duration": 120, "velocity": 127}, {"time": 20520, "pitch": 79, "duration": 121, "velocity": 127}, {"time": 20761, "pitch": 71, "duration": 121, "velocity": 127}, {"time": 20882, "pitch": 74, "duration": 120, "velocity": 127}, {"time": 21122, "pitch": 76, "duration": 121, "velocity": 127}, {"time": 21243, "pitch": 71, "duration": 120, "velocity": 127}, {"time": 21604, "pitch": 79, "duration": 118, "velocity": 127}, {"time": 21840, "pitch": 71, "duration": 117, "velocity": 127}, {"time": 22075, "pitch": 74, "duration": 121, "velocity": 127}, {"time": 22316, "pitch": 71, "duration": 120, "velocity": 127}, {"time": 22436, "pitch": 79, "duration": 121, "velocity": 127}, {"time": 22677, "pitch": 71, "duration": 121, "velocity": 127}, {"time": 22798, "pitch": 74, "duration": 120, "velocity": 127}, {"time": 23038, "pitch": 76, "duration": 121, "velocity": 127}, {"time": 23159, "pitch": 71, "duration": 120, "velocity": 127}, {"time": 23520, "pitch": 79, "duration": 120, "velocity": 127}, {"time": 23761, "pitch": 71, "duration": 120, "velocity": 127}, {"time": 24002, "pitch": 74, "duration": 120, "velocity": 127}, {"time": 24242, "pitch": 71, "duration": 121, "velocity": 127}, {"time": 24363, "pitch": 79, "duration": 120, "velocity": 127}, {"time": 24604, "pitch": 71, "duration": 120, "velocity": 127}, {"time": 24724, "pitch": 74, "duration": 120, "velocity": 127}, {"time": 24965, "pitch": 76, "duration": 118, "velocity": 127}, {"time": 25083, "pitch": 71, "duration": 117, "velocity": 127}, {"time": 25436, "pitch": 79, "duration": 120, "velocity": 127}, {"time": 25677, "pitch": 71, "duration": 120, "velocity": 127}, {"time": 25918, "pitch": 74, "duration": 120, "velocity": 127}, {"time": 26158, "pitch": 71, "duration": 121, "velocity": 127}, {"time": 26279, "pitch": 79, "duration": 120, "velocity": 127}, {"time": 26520, "pitch": 71, "duration": 120, "velocity": 127}, {"time": 26640, "pitch": 74, "duration": 120, "velocity": 127}, {"time": 26881, "pitch": 76, "duration": 120, "velocity": 127}, {"time": 27001, "pitch": 71, "duration": 121, "velocity": 127}, {"time": 27362, "pitch": 79, "duration": 121, "velocity": 127}, {"time": 27603, "pitch": 71, "duration": 121, "velocity": 127}, {"time": 27844, "pitch": 74, "duration": 118, "velocity": 127}, {"time": 28080, "pitch": 71, "duration": 117, "velocity": 127}, {"time": 28197, "pitch": 79, "duration": 118, "velocity": 127}, {"time": 28436, "pitch": 71, "duration": 120, "velocity": 127}, {"time": 28556, "pitch": 74, "duration": 120, "velocity": 127}, {"time": 28797, "pitch": 76, "duration": 120, "velocity": 127}, {"time": 28917, "pitch": 71, "duration": 121, "velocity": 127}, {"time": 29278, "pitch": 79, "duration": 121, "velocity": 127}, {"time": 29519, "pitch": 71, "duration": 121, "velocity": 127}, {"time": 29760, "pitch": 74, "duration": 120, "velocity": 127}, {"time": 30001, "pitch": 71, "duration": 120, "velocity": 127}, {"time": 30121, "pitch": 79, "duration": 121, "velocity": 127}, {"time": 30362, "pitch": 71, "duration": 120, "velocity": 127}, {"time": 30482, "pitch": 74, "duration": 121, "velocity": 127}, {"time": 30723, "pitch": 76, "duration": 121, "velocity": 127}, {"time": 30844, "pitch": 71, "duration": 120, "velocity": 127}, {"time": 31205, "pitch": 79, "duration": 118, "velocity": 127}, {"time": 31440, "pitch": 71, "duration": 118, "velocity": 127}, {"time": 31676, "pitch": 74, "duration": 120, "velocity": 127}, {"time": 31917, "pitch": 71, "duration": 120, "velocity": 127}, {"time": 32037, "pitch": 79, "duration": 121, "velocity": 127}, {"time": 32278, "pitch": 71, "duration": 120, "velocity": 127}, {"time": 32398, "pitch": 74, "duration": 121, "velocity": 127}, {"time": 32639, "pitch": 76, "duration": 121, "velocity": 127}, {"time": 32760, "pitch": 71, "duration": 120, "velocity": 127}, {"time": 48480, "pitch": 79, "duration": 120, "velocity": 127}, {"time": 48721, "pitch": 71, "duration": 120, "velocity": 127}, {"time": 48962, "pitch": 74, "duration": 120, "velocity": 127}, {"time": 49202, "pitch": 71, "duration": 121, "velocity": 127}, {"time": 49323, "pitch": 79, "duration": 120, "velocity": 127}, {"time": 49564, "pitch": 71, "duration": 120, "velocity": 127}, {"time": 49684, "pitch": 74, "duration": 120, "velocity": 127}, {"time": 49925, "pitch": 76, "duration": 118, "velocity": 127}, {"time": 50043, "pitch": 71, "duration": 117, "velocity": 127}, {"time": 50396, "pitch": 79, "duration": 120, "velocity": 127}, {"time": 50637, "pitch": 71, "duration": 120, "velocity": 127}, {"time": 50878, "pitch": 74, "duration": 120, "velocity": 127}, {"time": 51118, "pitch": 71, "duration": 121, "velocity": 127}, {"time": 51239, "pitch": 79, "duration": 120, "velocity": 127}, {"time": 51480, "pitch": 71, "duration": 120, "velocity": 127}, {"time": 51600, "pitch": 74, "duration": 120, "velocity": 127}, {"time": 51841, "pitch": 76, "duration": 120, "velocity": 127}, {"time": 51961, "pitch": 71, "duration": 121, "velocity": 127}, {"time": 52322, "pitch": 79, "duration": 121, "velocity": 127}, {"time": 52563, "pitch": 71, "duration": 121, "velocity": 127}, {"time": 52804, "pitch": 74, "duration": 118, "velocity": 127}, {"time": 53040, "pitch": 71, "duration": 117, "velocity": 127}, {"time": 53157, "pitch": 79, "duration": 118, "velocity": 127}, {"time": 53396, "pitch": 71, "duration": 120, "velocity": 127}, {"time": 53516, "pitch": 74, "duration": 120, "velocity": 127}, {"time": 53757, "pitch": 76, "duration": 120, "velocity": 127}, {"time": 53877, "pitch": 71, "duration": 121, "velocity": 127}, {"time": 54238, "pitch": 79, "duration": 121, "velocity": 127}, {"time": 54479, "pitch": 71, "duration": 121, "velocity": 127}, {"time": 54720, "pitch": 74, "duration": 120, "velocity": 127}, {"time": 54961, "pitch": 71, "duration": 120, "velocity": 127}, {"time": 55081, "pitch": 79, "duration": 121, "velocity": 127}, {"time": 55322, "pitch": 71, "duration": 120, "velocity": 127}, {"time": 55442, "pitch": 74, "duration": 121, "velocity": 127}, {"time": 55683, "pitch": 76, "duration": 121, "velocity": 127}, {"time": 55804, "pitch": 71, "duration": 120, "velocity": 127}, {"time": 56165, "pitch": 79, "duration": 117, "velocity": 127}, {"time": 56400, "pitch": 71, "duration": 118, "velocity": 127}, {"time": 56636, "pitch": 74, "duration": 120, "velocity": 127}, {"time": 56877, "pitch": 71, "duration": 120, "velocity": 127}, {"time": 56997, "pitch": 79, "duration": 121, "velocity": 127}, {"time": 57238, "pitch": 71, "duration": 120, "velocity": 127}, {"time": 57358, "pitch": 74, "duration": 121, "velocity": 127}, {"time": 57599, "pitch": 76, "duration": 121, "velocity": 127}, {"time": 57720, "pitch": 71, "duration": 120, "velocity": 127}, {"time": 58081, "pitch": 79, "duration": 120, "velocity": 127}, {"time": 58322, "pitch": 71, "duration": 120, "velocity": 127}, {"time": 58562, "pitch": 74, "duration": 121, "velocity": 127}, {"time": 58803, "pitch": 71, "duration": 121, "velocity": 127}, {"time": 58924, "pitch": 79, "duration": 120, "velocity": 127}, {"time": 59162, "pitch": 71, "duration": 118, "velocity": 127}, {"time": 59280, "pitch": 74, "duration": 117, "velocity": 127}, {"time": 59515, "pitch": 76, "duration": 121, "velocity": 127}, {"time": 59636, "pitch": 71, "duration": 120, "velocity": 127}, {"time": 59997, "pitch": 79, "duration": 120, "velocity": 127}, {"time": 60238, "pitch": 71, "duration": 120, "velocity": 127}, {"time": 60478, "pitch": 74, "duration": 121, "velocity": 127}, {"time": 60719, "pitch": 71, "duration": 121, "velocity": 127}, {"time": 60840, "pitch": 79, "duration": 120, "velocity": 127}, {"time": 61080, "pitch": 71, "duration": 121, "velocity": 127}, {"time": 61201, "pitch": 74, "duration": 120, "velocity": 127}, {"time": 61442, "pitch": 76, "duration": 120, "velocity": 127}, {"time": 61562, "pitch": 71, "duration": 120, "velocity": 127}, {"time": 61923, "pitch": 79, "duration": 121, "velocity": 127}, {"time": 62164, "pitch": 71, "duration": 120, "velocity": 127}, {"time": 62405, "pitch": 74, "duration": 117, "velocity": 127}, {"time": 62640, "pitch": 71, "duration": 118, "velocity": 127}, {"time": 62758, "pitch": 79, "duration": 118, "velocity": 127}, {"time": 62996, "pitch": 71, "duration": 121, "velocity": 127}, {"time": 63117, "pitch": 74, "duration": 120, "velocity": 127}, {"time": 63358, "pitch": 76, "duration": 120, "velocity": 127}, {"time": 63478, "pitch": 71, "duration": 120, "velocity": 127}, {"time": 63839, "pitch": 79, "duration": 121, "velocity": 127}, {"time": 64080, "pitch": 71, "duration": 120, "velocity": 127}, {"time": 64321, "pitch": 74, "duration": 120, "velocity": 127}, {"time": 64562, "pitch": 71, "duration": 120, "velocity": 127}, {"time": 64682, "pitch": 79, "duration": 120, "velocity": 127}, {"time": 64923, "pitch": 71, "duration": 120, "velocity": 127}, {"time": 65043, "pitch": 74, "duration": 121, "velocity": 127}, {"time": 65284, "pitch": 76, "duration": 118, "velocity": 127}, {"time": 65402, "pitch": 71, "duration": 118, "velocity": 127}, {"time": 65755, "pitch": 79, "duration": 121, "velocity": 127}, {"time": 65996, "pitch": 71, "duration": 120, "velocity": 127}, {"time": 66237, "pitch": 74, "duration": 120, "velocity": 127}, {"time": 66478, "pitch": 71, "duration": 120, "velocity": 127}, {"time": 66598, "pitch": 79, "duration": 120, "velocity": 127}, {"time": 66839, "pitch": 71, "duration": 120, "velocity": 127}, {"time": 66959, "pitch": 74, "duration": 121, "velocity": 127}, {"time": 67200, "pitch": 76, "duration": 120, "velocity": 127}, {"time": 67320, "pitch": 71, "duration": 121, "velocity": 127}, {"time": 67682, "pitch": 79, "duration": 120, "velocity": 127}, {"time": 67922, "pitch": 71, "duration": 121, "velocity": 127}, {"time": 68163, "pitch": 74, "duration": 121, "velocity": 127}, {"time": 68404, "pitch": 71, "duration": 120, "velocity": 127}, {"time": 68524, "pitch": 79, "duration": 121, "velocity": 127}, {"time": 68762, "pitch": 71, "duration": 118, "velocity": 127}, {"time": 68880, "pitch": 74, "duration": 118, "velocity": 127}, {"time": 69116, "pitch": 76, "duration": 120, "velocity": 127}, {"time": 69236, "pitch": 71, "duration": 121, "velocity": 127}, {"time": 69598, "pitch": 79, "duration": 120, "velocity": 127}, {"time": 69838, "pitch": 71, "duration": 121, "velocity": 127}, {"time": 70079, "pitch": 74, "duration": 121, "velocity": 127}, {"time": 70320, "pitch": 71, "duration": 120, "velocity": 127}, {"time": 70440, "pitch": 79, "duration": 121, "velocity": 127}, {"time": 70681, "pitch": 71, "duration": 121, "velocity": 127}, {"time": 70802, "pitch": 74, "duration": 120, "velocity": 127}, {"time": 71042, "pitch": 76, "duration": 121, "velocity": 127}, {"time": 71163, "pitch": 71, "duration": 120, "velocity": 127}, {"time": 71524, "pitch": 79, "duration": 118, "velocity": 127}, {"time": 71760, "pitch": 71, "duration": 117, "velocity": 127}, {"time": 71995, "pitch": 74, "duration": 121, "velocity": 127}, {"time": 72236, "pitch": 71, "duration": 120, "velocity": 127}, {"time": 72356, "pitch": 79, "duration": 121, "velocity": 127}, {"time": 72597, "pitch": 71, "duration": 121, "velocity": 127}, {"time": 72718, "pitch": 74, "duration": 120, "velocity": 127}, {"time": 72958, "pitch": 76, "duration": 121, "velocity": 127}, {"time": 73079, "pitch": 71, "duration": 120, "velocity": 127}, {"time": 73440, "pitch": 79, "duration": 120, "velocity": 127}, {"time": 73681, "pitch": 71, "duration": 120, "velocity": 127}, {"time": 73922, "pitch": 74, "duration": 120, "velocity": 127}, {"time": 74162, "pitch": 71, "duration": 121, "velocity": 127}, {"time": 74283, "pitch": 79, "duration": 120, "velocity": 127}, {"time": 74524, "pitch": 71, "duration": 120, "velocity": 127}, {"time": 74644, "pitch": 74, "duration": 120, "velocity": 127}, {"time": 74885, "pitch": 76, "duration": 117, "velocity": 127}, {"time": 75002, "pitch": 71, "duration": 118, "velocity": 127}, {"time": 75356, "pitch": 81, "duration": 120, "velocity": 127}, {"time": 75597, "pitch": 69, "duration": 120, "velocity": 127}, {"time": 75838, "pitch": 73, "duration": 120, "velocity": 127}, {"time": 76078, "pitch": 69, "duration": 121, "velocity": 127}, {"time": 76199, "pitch": 81, "duration": 120, "velocity": 127}, {"time": 76440, "pitch": 69, "duration": 120, "velocity": 127}, {"time": 76560, "pitch": 73, "duration": 120, "velocity": 127}, {"time": 76801, "pitch": 76, "duration": 120, "velocity": 127}, {"time": 76921, "pitch": 69, "duration": 121, "velocity": 127}, {"time": 77282, "pitch": 81, "duration": 121, "velocity": 127}, {"time": 77523, "pitch": 71, "duration": 121, "velocity": 127}, {"time": 77764, "pitch": 76, "duration": 118, "velocity": 127}, {"time": 78000, "pitch": 71, "duration": 117, "velocity": 127}, {"time": 78117, "pitch": 81, "duration": 118, "velocity": 127}, {"time": 78356, "pitch": 71, "duration": 120, "velocity": 127}, {"time": 78476, "pitch": 76, "duration": 120, "velocity": 127}, {"time": 78717, "pitch": 78, "duration": 120, "velocity": 127}, {"time": 78837, "pitch": 71, "duration": 121, "velocity": 127}, {"time": 81125, "pitch": 79, "duration": 117, "velocity": 127}, {"time": 81360, "pitch": 71, "duration": 118, "velocity": 127}, {"time": 81596, "pitch": 74, "duration": 120, "velocity": 127}, {"time": 81837, "pitch": 71, "duration": 120, "velocity": 127}, {"time": 81957, "pitch": 79, "duration": 121, "velocity": 127}, {"time": 82198, "pitch": 71, "duration": 120, "velocity": 127}, {"time": 82318, "pitch": 74, "duration": 121, "velocity": 127}, {"time": 82559, "pitch": 76, "duration": 121, "velocity": 127}, {"time": 82680, "pitch": 71, "duration": 120, "velocity": 127}, {"time": 83041, "pitch": 79, "duration": 120, "velocity": 127}, {"time": 83282, "pitch": 71, "duration": 120, "velocity": 127}, {"time": 83522, "pitch": 74, "duration": 121, "velocity": 127}, {"time": 83763, "pitch": 71, "duration": 121, "velocity": 127}, {"time": 83884, "pitch": 79, "duration": 120, "velocity": 127}, {"time": 84122, "pitch": 71, "duration": 118, "velocity": 127}, {"time": 84240, "pitch": 74, "duration": 117, "velocity": 127}, {"time": 84475, "pitch": 76, "duration": 120, "velocity": 127}, {"time": 84595, "pitch": 71, "duration": 121, "velocity": 127}, {"time": 84957, "pitch": 79, "duration": 120, "velocity": 127}, {"time": 85198, "pitch": 71, "duration": 120, "velocity": 127}, {"time": 85438, "pitch": 74, "duration": 121, "velocity": 127}, {"time": 85679, "pitch": 71, "duration": 121, "velocity": 127}, {"time": 85800, "pitch": 79, "duration": 120, "velocity": 127}, {"time": 86040, "pitch": 71, "duration": 121, "velocity": 127}, {"time": 86161, "pitch": 74, "duration": 120, "velocity": 127}, {"time": 86402, "pitch": 76, "duration": 120, "velocity": 127}, {"time": 86522, "pitch": 71, "duration": 120, "velocity": 127}, {"time": 86883, "pitch": 79, "duration": 121, "velocity": 127}, {"time": 87124, "pitch": 71, "duration": 120, "velocity": 127}, {"time": 87365, "pitch": 74, "duration": 117, "velocity": 127}, {"time": 87600, "pitch": 71, "duration": 118, "velocity": 127}, {"time": 87718, "pitch": 79, "duration": 118, "velocity": 127}, {"time": 87956, "pitch": 71, "duration": 121, "velocity": 127}, {"time": 88077, "pitch": 74, "duration": 120, "velocity": 127}, {"time": 88318, "pitch": 76, "duration": 120, "velocity": 127}, {"time": 88438, "pitch": 71, "duration": 120, "velocity": 127}, {"time": 88799, "pitch": 79, "duration": 121, "velocity": 127}, {"time": 89040, "pitch": 71, "duration": 120, "velocity": 127}, {"time": 89281, "pitch": 74, "duration": 120, "velocity": 127}, {"time": 89522, "pitch": 71, "duration": 120, "velocity": 127}, {"time": 89642, "pitch": 79, "duration": 120, "velocity": 127}, {"time": 89883, "pitch": 71, "duration": 120, "velocity": 127}, {"time": 90003, "pitch": 74, "duration": 121, "velocity": 127}, {"time": 90244, "pitch": 76, "duration": 118, "velocity": 127}, {"time": 90362, "pitch": 71, "duration": 118, "velocity": 127}, {"time": 90715, "pitch": 79, "duration": 120, "velocity": 127}, {"time": 90956, "pitch": 71, "duration": 120, "velocity": 127}, {"time": 91197, "pitch": 74, "duration": 120, "velocity": 127}, {"time": 91437, "pitch": 71, "duration": 121, "velocity": 127}, {"time": 91558, "pitch": 79, "duration": 120, "velocity": 127}, {"time": 91799, "pitch": 71, "duration": 120, "velocity": 127}, {"time": 91919, "pitch": 74, "duration": 121, "velocity": 127}, {"time": 92160, "pitch": 76, "duration": 120, "velocity": 127}, {"time": 92280, "pitch": 71, "duration": 121, "velocity": 127}, {"time": 92642, "pitch": 81, "duration": 120, "velocity": 127}, {"time": 92882, "pitch": 72, "duration": 121, "velocity": 127}, {"time": 93123, "pitch": 76, "duration": 121, "velocity": 127}, {"time": 93364, "pitch": 72, "duration": 120, "velocity": 127}, {"time": 93484, "pitch": 81, "duration": 121, "velocity": 127}, {"time": 93722, "pitch": 72, "duration": 118, "velocity": 127}, {"time": 93840, "pitch": 76, "duration": 118, "velocity": 127}, {"time": 94076, "pitch": 81, "duration": 120, "velocity": 127}, {"time": 94196, "pitch": 72, "duration": 121, "velocity": 127}, {"time": 94557, "pitch": 83, "duration": 121, "velocity": 127}, {"time": 94798, "pitch": 75, "duration": 121, "velocity": 127}, {"time": 95039, "pitch": 78, "duration": 121, "velocity": 127}, {"time": 95280, "pitch": 75, "duration": 120, "velocity": 127}, {"time": 95400, "pitch": 83, "duration": 121, "velocity": 127}, {"time": 95641, "pitch": 75, "duration": 121, "velocity": 127}, {"time": 95762, "pitch": 78, "duration": 120, "velocity": 127}, {"time": 96002, "pitch": 83, "duration": 121, "velocity": 127}, {"time": 96123, "pitch": 75, "duration": 120, "velocity": 127}, {"time": 96484, "pitch": 79, "duration": 118, "velocity": 127}, {"time": 96720, "pitch": 71, "duration": 117, "velocity": 127}, {"time": 96955, "pitch": 74, "duration": 120, "velocity": 127}, {"time": 97196, "pitch": 71, "duration": 120, "velocity": 127}, {"time": 97316, "pitch": 79, "duration": 121, "velocity": 127}, {"time": 97557, "pitch": 71, "duration": 120, "velocity": 127}, {"time": 97677, "pitch": 74, "duration": 121, "velocity": 127}, {"time": 97918, "pitch": 76, "duration": 121, "velocity": 127}, {"time": 98039, "pitch": 71, "duration": 120, "velocity": 127}, {"time": 98400, "pitch": 79, "duration": 120, "velocity": 127}, {"time": 98641, "pitch": 71, "duration": 120, "velocity": 127}, {"time": 98882, "pitch": 74, "duration": 120, "velocity": 127}, {"time": 99122, "pitch": 71, "duration": 121, "velocity": 127}, {"time": 99243, "pitch": 79, "duration": 120, "velocity": 127}, {"time": 99484, "pitch": 71, "duration": 120, "velocity": 127}, {"time": 99604, "pitch": 74, "duration": 120, "velocity": 127}, {"time": 99845, "pitch": 76, "duration": 117, "velocity": 127}, {"time": 99962, "pitch": 71, "duration": 118, "velocity": 127}, {"time": 100316, "pitch": 79, "duration": 120, "velocity": 127}, {"time": 100557, "pitch": 71, "duration": 120, "velocity": 127}, {"time": 100797, "pitch": 74, "duration": 121, "velocity": 127}, {"time": 101038, "pitch": 71, "duration": 121, "velocity": 127}, {"time": 101159, "pitch": 79, "duration": 120, "velocity": 127}, {"time": 101399, "pitch": 71, "duration": 121, "velocity": 127}, {"time": 101520, "pitch": 74, "duration": 120, "velocity": 127}, {"time": 101761, "pitch": 76, "duration": 120, "velocity": 127}, {"time": 101881, "pitch": 71, "duration": 121, "velocity": 127}, {"time": 102242, "pitch": 79, "duration": 121, "velocity": 127}, {"time": 102483, "pitch": 71, "duration": 121, "velocity": 127}, {"time": 102724, "pitch": 74, "duration": 118, "velocity": 127}, {"time": 102960, "pitch": 71, "duration": 117, "velocity": 127}, {"time": 103077, "pitch": 79, "duration": 118, "velocity": 127}, {"time": 103315, "pitch": 71, "duration": 121, "velocity": 127}, {"time": 103436, "pitch": 74, "duration": 120, "velocity": 127}, {"time": 103677, "pitch": 76, "duration": 120, "velocity": 127}, {"time": 103797, "pitch": 71, "duration": 120, "velocity": 127}, {"time": 104158, "pitch": 79, "duration": 121, "velocity": 127}, {"time": 104399, "pitch": 71, "duration": 120, "velocity": 127}, {"time": 104640, "pitch": 74, "duration": 120, "velocity": 127}, {"time": 104881, "pitch": 71, "duration": 120, "velocity": 127}, {"time": 105001, "pitch": 79, "duration": 120, "velocity": 127}, {"time": 105242, "pitch": 71, "duration": 120, "velocity": 127}, {"time": 105362, "pitch": 74, "duration": 121, "velocity": 127}, {"time": 105603, "pitch": 76, "duration": 121, "velocity": 127}, {"time": 105724, "pitch": 71, "duration": 120, "velocity": 127}, {"time": 106085, "pitch": 79, "duration": 117, "velocity": 127}, {"time": 106320, "pitch": 71, "duration": 118, "velocity": 127}, {"time": 106556, "pitch": 74, "duration": 120, "velocity": 127}, {"time": 106797, "pitch": 71, "duration": 120, "velocity": 127}, {"time": 106917, "pitch": 79, "duration": 120, "velocity": 127}, {"time": 107158, "pitch": 71, "duration": 120, "velocity": 127}, {"time": 107278, "pitch": 74, "duration": 121, "velocity": 127}, {"time": 107519, "pitch": 76, "duration": 120, "velocity": 127}, {"time": 107639, "pitch": 71, "duration": 121, "velocity": 127}, {"time": 108001, "pitch": 81, "duration": 120, "velocity": 127}, {"time": 108241, "pitch": 72, "duration": 121, "velocity": 127}, {"time": 108482, "pitch": 76, "duration": 121, "velocity": 127}, {"time": 108723, "pitch": 72, "duration": 121, "velocity": 127}, {"time": 108844, "pitch": 81, "duration": 120, "velocity": 127}, {"time": 109082, "pitch": 72, "duration": 117, "velocity": 127}, {"time": 109199, "pitch": 76, "duration": 118, "velocity": 127}, {"time": 109435, "pitch": 81, "duration": 120, "velocity": 127}, {"time": 109555, "pitch": 72, "duration": 121, "velocity": 127}, {"time": 109917, "pitch": 78, "duration": 120, "velocity": 127}, {"time": 110157, "pitch": 69, "duration": 121, "velocity": 127}, {"time": 110398, "pitch": 74, "duration": 121, "velocity": 127}, {"time": 110639, "pitch": 69, "duration": 120, "velocity": 127}, {"time": 110759, "pitch": 78, "duration": 121, "velocity": 127}, {"time": 111000, "pitch": 69, "duration": 121, "velocity": 127}, {"time": 111121, "pitch": 74, "duration": 120, "velocity": 127}, {"time": 111361, "pitch": 78, "duration": 121, "velocity": 127}, {"time": 111482, "pitch": 69, "duration": 120, "velocity": 127}, {"time": 111843, "pitch": 79, "duration": 120, "velocity": 127}, {"time": 112084, "pitch": 71, "duration": 120, "velocity": 127}, {"time": 112325, "pitch": 74, "duration": 117, "velocity": 127}, {"time": 112560, "pitch": 71, "duration": 118, "velocity": 127}, {"time": 112678, "pitch": 79, "duration": 118, "velocity": 127}, {"time": 112916, "pitch": 71, "duration": 121, "velocity": 127}, {"time": 113037, "pitch": 74, "duration": 120, "velocity": 127}, {"time": 113277, "pitch": 76, "duration": 121, "velocity": 127}, {"time": 113398, "pitch": 71, "duration": 120, "velocity": 127}, {"time": 113759, "pitch": 79, "duration": 120, "velocity": 127}, {"time": 114000, "pitch": 71, "duration": 120, "velocity": 127}, {"time": 114241, "pitch": 74, "duration": 120, "velocity": 127}, {"time": 114481, "pitch": 71, "duration": 121, "velocity": 127}, {"time": 114602, "pitch": 79, "duration": 120, "velocity": 127}, {"time": 114843, "pitch": 71, "duration": 120, "velocity": 127}, {"time": 114963, "pitch": 74, "duration": 120, "velocity": 127}, {"time": 115204, "pitch": 76, "duration": 118, "velocity": 127}, {"time": 115322, "pitch": 71, "duration": 117, "velocity": 127}, {"time": 115675, "pitch": 79, "duration": 120, "velocity": 127}, {"time": 115916, "pitch": 71, "duration": 120, "velocity": 127}, {"time": 116157, "pitch": 74, "duration": 120, "velocity": 127}, {"time": 116397, "pitch": 71, "duration": 121, "velocity": 127}, {"time": 116518, "pitch": 79, "duration": 120, "velocity": 127}, {"time": 116759, "pitch": 71, "duration": 120, "velocity": 127}, {"time": 116879, "pitch": 74, "duration": 120, "velocity": 127}, {"time": 117120, "pitch": 76, "duration": 120, "velocity": 127}, {"time": 117240, "pitch": 71, "duration": 121, "velocity": 127}, {"time": 117601, "pitch": 79, "duration": 121, "velocity": 127}, {"time": 117842, "pitch": 71, "duration": 121, "velocity": 127}, {"time": 118083, "pitch": 74, "duration": 120, "velocity": 127}, {"time": 118324, "pitch": 71, "duration": 120, "velocity": 127}, {"time": 118444, "pitch": 79, "duration": 121, "velocity": 127}, {"time": 118682, "pitch": 71, "duration": 118, "velocity": 127}, {"time": 118800, "pitch": 74, "duration": 118, "velocity": 127}, {"time": 119036, "pitch": 76, "duration": 120, "velocity": 127}, {"time": 119156, "pitch": 71, "duration": 121, "velocity": 127}, {"time": 119517, "pitch": 79, "duration": 121, "velocity": 127}, {"time": 119758, "pitch": 71, "duration": 121, "velocity": 127}, {"time": 119999, "pitch": 74, "duration": 120, "velocity": 127}, {"time": 120240, "pitch": 71, "duration": 120, "velocity": 127}, {"time": 120360, "pitch": 79, "duration": 121, "velocity": 127}, {"time": 120601, "pitch": 71, "duration": 120, "velocity": 127}, {"time": 120721, "pitch": 74, "duration": 121, "velocity": 127}, {"time": 120962, "pitch": 76, "duration": 121, "velocity": 127}, {"time": 121083, "pitch": 71, "duration": 120, "velocity": 127}, {"time": 121444, "pitch": 79, "duration": 118, "velocity": 127}, {"time": 121679, "pitch": 71, "duration": 118, "velocity": 127}, {"time": 121915, "pitch": 74, "duration": 120, "velocity": 127}, {"time": 122156, "pitch": 71, "duration": 120, "velocity": 127}, {"time": 122276, "pitch": 79, "duration": 121, "velocity": 127}, {"time": 122517, "pitch": 71, "duration": 120, "velocity": 127}, {"time": 122637, "pitch": 74, "duration": 121, "velocity": 127}, {"time": 122878, "pitch": 76, "duration": 121, "velocity": 127}, {"time": 122999, "pitch": 71, "duration": 120, "velocity": 127}, {"time": 123360, "pitch": 79, "duration": 120, "velocity": 127}, {"time": 123601, "pitch": 71, "duration": 120, "velocity": 127}, {"time": 123841, "pitch": 74, "duration": 121, "velocity": 127}, {"time": 124082, "pitch": 71, "duration": 121, "velocity": 127}, {"time": 124203, "pitch": 79, "duration": 120, "velocity": 127}, {"time": 124443, "pitch": 71, "duration": 121, "velocity": 127}, {"time": 124564, "pitch": 74, "duration": 120, "velocity": 127}, {"time": 124805, "pitch": 76, "duration": 117, "velocity": 127}, {"time": 124922, "pitch": 71, "duration": 118, "velocity": 127}, {"time": 125276, "pitch": 79, "duration": 120, "velocity": 127}, {"time": 125517, "pitch": 71, "duration": 120, "velocity": 127}, {"time": 125757, "pitch": 74, "duration": 121, "velocity": 127}, {"time": 125998, "pitch": 71, "duration": 121, "velocity": 127}, {"time": 126119, "pitch": 79, "duration": 120, "velocity": 127}, {"time": 126359, "pitch": 71, "duration": 121, "velocity": 127}, {"time": 126480, "pitch": 74, "duration": 120, "velocity": 127}, {"time": 126721, "pitch": 76, "duration": 120, "velocity": 127}, {"time": 126841, "pitch": 71, "duration": 120, "velocity": 127}, {"time": 127202, "pitch": 79, "duration": 121, "velocity": 127}, {"time": 127443, "pitch": 71, "duration": 120, "velocity": 127}, {"time": 127684, "pitch": 74, "duration": 118, "velocity": 127}, {"time": 127919, "pitch": 71, "duration": 118, "velocity": 127}, {"time": 128037, "pitch": 79, "duration": 118, "velocity": 127}, {"time": 128275, "pitch": 71, "duration": 121, "velocity": 127}, {"time": 128396, "pitch": 74, "duration": 120, "velocity": 127}, {"time": 128637, "pitch": 76, "duration": 120, "velocity": 127}, {"time": 128757, "pitch": 71, "duration": 120, "velocity": 127}, {"time": 129118, "pitch": 79, "duration": 121, "velocity": 127}, {"time": 129359, "pitch": 71, "duration": 120, "velocity": 127}, {"time": 129600, "pitch": 74, "duration": 120, "velocity": 127}, {"time": 129841, "pitch": 71, "duration": 120, "velocity": 127}, {"time": 129961, "pitch": 79, "duration": 120, "velocity": 127}, {"time": 130202, "pitch": 71, "duration": 120, "velocity": 127}, {"time": 130322, "pitch": 74, "duration": 121, "velocity": 127}, {"time": 130563, "pitch": 76, "duration": 120, "velocity": 127}, {"time": 130683, "pitch": 71, "duration": 121, "velocity": 127}, {"time": 146404, "pitch": 79, "duration": 118, "velocity": 127}, {"time": 146639, "pitch": 71, "duration": 118, "velocity": 127}, {"time": 146875, "pitch": 74, "duration": 120, "velocity": 127}, {"time": 147116, "pitch": 71, "duration": 120, "velocity": 127}, {"time": 147236, "pitch": 79, "duration": 121, "velocity": 127}, {"time": 147477, "pitch": 71, "duration": 120, "velocity": 127}, {"time": 147597, "pitch": 74, "duration": 121, "velocity": 127}, {"time": 147838, "pitch": 76, "duration": 121, "velocity": 127}, {"time": 147959, "pitch": 71, "duration": 120, "velocity": 127}, {"time": 148320, "pitch": 79, "duration": 120, "velocity": 127}, {"time": 148561, "pitch": 71, "duration": 120, "velocity": 127}, {"time": 148801, "pitch": 74, "duration": 121, "velocity": 127}, {"time": 149042, "pitch": 71, "duration": 121, "velocity": 127}, {"time": 149163, "pitch": 79, "duration": 120, "velocity": 127}, {"time": 149403, "pitch": 71, "duration": 121, "velocity": 127}, {"time": 149524, "pitch": 74, "duration": 120, "velocity": 127}, {"time": 149765, "pitch": 76, "duration": 117, "velocity": 127}, {"time": 149882, "pitch": 71, "duration": 118, "velocity": 127}, {"time": 150236, "pitch": 79, "duration": 120, "velocity": 127}, {"time": 150477, "pitch": 71, "duration": 120, "velocity": 127}, {"time": 150717, "pitch": 74, "duration": 121, "velocity": 127}, {"time": 150958, "pitch": 71, "duration": 121, "velocity": 127}, {"time": 151079, "pitch": 79, "duration": 120, "velocity": 127}, {"time": 151319, "pitch": 71, "duration": 121, "velocity": 127}, {"time": 151440, "pitch": 74, "duration": 120, "velocity": 127}, {"time": 151681, "pitch": 76, "duration": 120, "velocity": 127}, {"time": 151801, "pitch": 71, "duration": 120, "velocity": 127}, {"time": 152162, "pitch": 79, "duration": 121, "velocity": 127}, {"time": 152403, "pitch": 71, "duration": 120, "velocity": 127}, {"time": 152644, "pitch": 74, "duration": 118, "velocity": 127}, {"time": 152879, "pitch": 71, "duration": 118, "velocity": 127}, {"time": 152997, "pitch": 79, "duration": 118, "velocity": 127}, {"time": 153235, "pitch": 71, "duration": 121, "velocity": 127}, {"time": 153356, "pitch": 74, "duration": 120, "velocity": 127}, {"time": 153597, "pitch": 76, "duration": 120, "velocity": 127}, {"time": 153717, "pitch": 71, "duration": 120, "velocity": 127}, {"time": 154078, "pitch": 79, "duration": 121, "velocity": 127}, {"time": 154319, "pitch": 71, "duration": 120, "velocity": 127}, {"time": 154560, "pitch": 74, "duration": 120, "velocity": 127}, {"time": 154801, "pitch": 71, "duration": 120, "velocity": 127}, {"time": 154921, "pitch": 79, "duration": 120, "velocity": 127}, {"time": 155162, "pitch": 71, "duration": 120, "velocity": 127}, {"time": 155282, "pitch": 74, "duration": 121, "velocity": 127}, {"time": 155523, "pitch": 76, "duration": 120, "velocity": 127}, {"time": 155643, "pitch": 71, "duration": 121, "velocity": 127}, {"time": 156005, "pitch": 79, "duration": 117, "velocity": 127}, {"time": 156240, "pitch": 71, "duration": 118, "velocity": 127}, {"time": 156476, "pitch": 74, "duration": 120, "velocity": 127}, {"time": 156717, "pitch": 71, "duration": 120, "velocity": 127}, {"time": 156837, "pitch": 79, "duration": 120, "velocity": 127}, {"time": 157078, "pitch": 71, "duration": 120, "velocity": 127}, {"time": 157198, "pitch": 74, "duration": 121, "velocity": 127}, {"time": 157439, "pitch": 76, "duration": 120, "velocity": 127}, {"time": 157559, "pitch": 71, "duration": 121, "velocity": 127}, {"time": 157921, "pitch": 81, "duration": 120, "velocity": 127}, {"time": 158161, "pitch": 69, "duration": 121, "velocity": 127}, {"time": 158402, "pitch": 73, "duration": 121, "velocity": 127}, {"time": 158643, "pitch": 69, "duration": 120, "velocity": 127}, {"time": 158763, "pitch": 81, "duration": 121, "velocity": 127}, {"time": 159002, "pitch": 69, "duration": 117, "velocity": 127}, {"time": 159119, "pitch": 73, "duration": 118, "velocity": 127}, {"time": 159355, "pitch": 76, "duration": 120, "velocity": 127}, {"time": 159475, "pitch": 69, "duration": 121, "velocity": 127}, {"time": 159837, "pitch": 81, "duration": 120, "velocity": 127}, {"time": 160077, "pitch": 71, "duration": 121, "velocity": 127}, {"time": 160318, "pitch": 76, "duration": 121, "velocity": 127}, {"time": 160559, "pitch": 71, "duration": 120, "velocity": 127}, {"time": 160679, "pitch": 81, "duration": 121, "velocity": 127}, {"time": 160920, "pitch": 71, "duration": 121, "velocity": 127}, {"time": 161041, "pitch": 76, "duration": 120, "velocity": 127}, {"time": 161281, "pitch": 78, "duration": 121, "velocity": 127}, {"time": 161402, "pitch": 71, "duration": 120, "velocity": 127}, {"time": 163679, "pitch": 79, "duration": 120, "velocity": 127}, {"time": 163920, "pitch": 71, "duration": 120, "velocity": 127}, {"time": 164161, "pitch": 74, "duration": 120, "velocity": 127}, {"time": 164401, "pitch": 71, "duration": 121, "velocity": 127}, {"time": 164522, "pitch": 79, "duration": 120, "velocity": 127}, {"time": 164763, "pitch": 71, "duration": 120, "velocity": 127}, {"time": 164883, "pitch": 74, "duration": 120, "velocity": 127}, {"time": 165124, "pitch": 76, "duration": 118, "velocity": 127}, {"time": 165242, "pitch": 71, "duration": 117, "velocity": 127}, {"time": 165595, "pitch": 79, "duration": 120, "velocity": 127}, {"time": 165836, "pitch": 71, "duration": 120, "velocity": 127}, {"time": 166077, "pitch": 74, "duration": 120, "velocity": 127}, {"time": 166317, "pitch": 71, "duration": 121, "velocity": 127}, {"time": 166438, "pitch": 79, "duration": 120, "velocity": 127}, {"time": 166679, "pitch": 71, "duration": 120, "velocity": 127}, {"time": 166799, "pitch": 74, "duration": 120, "velocity": 127}, {"time": 167040, "pitch": 76, "duration": 120, "velocity": 127}, {"time": 167160, "pitch": 71, "duration": 121, "velocity": 127}, {"time": 167521, "pitch": 79, "duration": 121, "velocity": 127}, {"time": 167762, "pitch": 71, "duration": 121, "velocity": 127}, {"time": 168003, "pitch": 74, "duration": 120, "velocity": 127}, {"time": 168244, "pitch": 71, "duration": 120, "velocity": 127}, {"time": 168364, "pitch": 79, "duration": 121, "velocity": 127}, {"time": 168602, "pitch": 71, "duration": 118, "velocity": 127}, {"time": 168720, "pitch": 74, "duration": 118, "velocity": 127}, {"time": 168956, "pitch": 76, "duration": 120, "velocity": 127}, {"time": 169076, "pitch": 71, "duration": 121, "velocity": 127}, {"time": 169437, "pitch": 79, "duration": 121, "velocity": 127}, {"time": 169678, "pitch": 71, "duration": 121, "velocity": 127}, {"time": 169919, "pitch": 74, "duration": 120, "velocity": 127}, {"time": 170160, "pitch": 71, "duration": 120, "velocity": 127}, {"time": 170280, "pitch": 79, "duration": 121, "velocity": 127}, {"time": 170521, "pitch": 71, "duration": 120, "velocity": 127}, {"time": 170641, "pitch": 74, "duration": 121, "velocity": 127}, {"time": 170882, "pitch": 76, "duration": 121, "velocity": 127}, {"time": 171003, "pitch": 71, "duration": 120, "velocity": 127}, {"time": 171364, "pitch": 79, "duration": 118, "velocity": 127}, {"time": 171599, "pitch": 71, "duration": 118, "velocity": 127}, {"time": 171835, "pitch": 74, "duration": 120, "velocity": 127}, {"time": 172076, "pitch": 71, "duration": 120, "velocity": 127}, {"time": 172196, "pitch": 79, "duration": 121, "velocity": 127}, {"time": 172437, "pitch": 71, "duration": 120, "velocity": 127}, {"time": 172557, "pitch": 74, "duration": 121, "velocity": 127}, {"time": 172798, "pitch": 76, "duration": 121, "velocity": 127}, {"time": 172919, "pitch": 71, "duration": 120, "velocity": 127}, {"time": 173280, "pitch": 79, "duration": 120, "velocity": 127}, {"time": 173521, "pitch": 71, "duration": 120, "velocity": 127}, {"time": 173761, "pitch": 74, "duration": 121, "velocity": 127}, {"time": 174002, "pitch": 71, "duration": 121, "velocity": 127}, {"time": 174123, "pitch": 79, "duration": 120, "velocity": 127}, {"time": 174363, "pitch": 71, "duration": 121, "velocity": 127}, {"time": 174484, "pitch": 74, "duration": 120, "velocity": 127}, {"time": 174725, "pitch": 76, "duration": 117, "velocity": 127}, {"time": 174842, "pitch": 71, "duration": 118, "velocity": 127}, {"time": 175196, "pitch": 81, "duration": 120, "velocity": 127}, {"time": 175437, "pitch": 72, "duration": 120, "velocity": 127}, {"time": 175677, "pitch": 76, "duration": 121, "velocity": 127}, {"time": 175918, "pitch": 72, "duration": 121, "velocity": 127}, {"time": 176039, "pitch": 81, "duration": 120, "velocity": 127}, {"time": 176279, "pitch": 72, "duration": 121, "velocity": 127}, {"time": 176400, "pitch": 76, "duration": 120, "velocity": 127}, {"time": 176641, "pitch": 81, "duration": 120, "velocity": 127}, {"time": 176761, "pitch": 72, "duration": 120, "velocity": 127}, {"time": 177122, "pitch": 83, "duration": 121, "velocity": 127}, {"time": 177363, "pitch": 75, "duration": 120, "velocity": 127}, {"time": 177604, "pitch": 78, "duration": 118, "velocity": 127}, {"time": 177839, "pitch": 75, "duration": 118, "velocity": 127}, {"time": 177957, "pitch": 83, "duration": 118, "velocity": 127}, {"time": 178195, "pitch": 75, "duration": 121, "velocity": 127}, {"time": 178316, "pitch": 78, "duration": 120, "velocity": 127}, {"time": 178557, "pitch": 83, "duration": 120, "velocity": 127}, {"time": 178677, "pitch": 75, "duration": 120, "velocity": 127}, {"time": 179038, "pitch": 79, "duration": 121, "velocity": 127}, {"time": 179279, "pitch": 71, "duration": 120, "velocity": 127}, {"time": 179520, "pitch": 74, "duration": 120, "velocity": 127}, {"time": 179761, "pitch": 71, "duration": 120, "velocity": 127}, {"time": 179881, "pitch": 79, "duration": 120, "velocity": 127}, {"time": 180122, "pitch": 71, "duration": 120, "velocity": 127}, {"time": 180242, "pitch": 74, "duration": 121, "velocity": 127}, {"time": 180483, "pitch": 76, "duration": 120, "velocity": 127}, {"time": 180603, "pitch": 71, "duration": 121, "velocity": 127}, {"time": 180965, "pitch": 79, "duration": 117, "velocity": 127}, {"time": 181200, "pitch": 71, "duration": 118, "velocity": 127}, {"time": 181436, "pitch": 74, "duration": 120, "velocity": 127}, {"time": 181677, "pitch": 71, "duration": 120, "velocity": 127}, {"time": 181797, "pitch": 79, "duration": 120, "velocity": 127}, {"time": 182038, "pitch": 71, "duration": 120, "velocity": 127}, {"time": 182158, "pitch": 74, "duration": 121, "velocity": 127}, {"time": 182399, "pitch": 76, "duration": 120, "velocity": 127}, {"time": 182519, "pitch": 71, "duration": 121, "velocity": 127}, {"time": 182881, "pitch": 79, "duration": 120, "velocity": 127}, {"time": 183121, "pitch": 71, "duration": 121, "velocity": 127}, {"time": 183362, "pitch": 74, "duration": 121, "velocity": 127}, {"time": 183603, "pitch": 71, "duration": 120, "velocity": 127}, {"time": 183723, "pitch": 79, "duration": 121, "velocity": 127}, {"time": 183962, "pitch": 71, "duration": 117, "velocity": 127}, {"time": 184079, "pitch": 74, "duration": 118, "velocity": 127}, {"time": 184315, "pitch": 76, "duration": 120, "velocity": 127}, {"time": 184435, "pitch": 71, "duration": 121, "velocity": 127}, {"time": 184797, "pitch": 79, "duration": 120, "velocity": 127}, {"time": 185037, "pitch": 71, "duration": 121, "velocity": 127}, {"time": 185278, "pitch": 74, "duration": 121, "velocity": 127}, {"time": 185519, "pitch": 71, "duration": 120, "velocity": 127}, {"time": 185639, "pitch": 79, "duration": 121, "velocity": 127}, {"time": 185880, "pitch": 71, "duration": 121, "velocity": 127}, {"time": 186001, "pitch": 74, "duration": 120, "velocity": 127}, {"time": 186241, "pitch": 76, "duration": 121, "velocity": 127}, {"time": 186362, "pitch": 71, "duration": 120, "velocity": 127}, {"time": 186723, "pitch": 79, "duration": 120, "velocity": 127}, {"time": 186964, "pitch": 71, "duration": 120, "velocity": 127}, {"time": 187205, "pitch": 74, "duration": 117, "velocity": 127}, {"time": 187440, "pitch": 71, "duration": 118, "velocity": 127}, {"time": 187558, "pitch": 79, "duration": 118, "velocity": 127}, {"time": 187796, "pitch": 71, "duration": 121, "velocity": 127}, {"time": 187917, "pitch": 74, "duration": 120, "velocity": 127}, {"time": 188157, "pitch": 76, "duration": 121, "velocity": 127}, {"time": 188278, "pitch": 71, "duration": 120, "velocity": 127}, {"time": 188639, "pitch": 79, "duration": 120, "velocity": 127}, {"time": 188880, "pitch": 71, "duration": 120, "velocity": 127}, {"time": 189121, "pitch": 74, "duration": 120, "velocity": 127}, {"time": 189361, "pitch": 71, "duration": 121, "velocity": 127}, {"time": 189482, "pitch": 79, "duration": 120, "velocity": 127}, {"time": 189723, "pitch": 71, "duration": 120, "velocity": 127}, {"time": 189843, "pitch": 74, "duration": 120, "velocity": 127}, {"time": 190084, "pitch": 76, "duration": 118, "velocity": 127}, {"time": 190202, "pitch": 71, "duration": 117, "velocity": 127}, {"time": 190555, "pitch": 81, "duration": 120, "velocity": 127}, {"time": 190796, "pitch": 72, "duration": 120, "velocity": 127}, {"time": 191037, "pitch": 76, "duration": 120, "velocity": 127}, {"time": 191277, "pitch": 72, "duration": 121, "velocity": 127}, {"time": 191398, "pitch": 81, "duration": 120, "velocity": 127}, {"time": 191639, "pitch": 72, "duration": 120, "velocity": 127}, {"time": 191759, "pitch": 76, "duration": 120, "velocity": 127}, {"time": 192000, "pitch": 81, "duration": 120, "velocity": 127}, {"time": 192120, "pitch": 72, "duration": 121, "velocity": 127}, {"time": 192481, "pitch": 78, "duration": 121, "velocity": 127}, {"time": 192722, "pitch": 69, "duration": 121, "velocity": 127}, {"time": 192963, "pitch": 74, "duration": 120, "velocity": 127}, {"time": 193204, "pitch": 69, "duration": 120, "velocity": 127}, {"time": 193324, "pitch": 78, "duration": 121, "velocity": 127}, {"time": 193562, "pitch": 69, "duration": 118, "velocity": 127}, {"time": 193680, "pitch": 74, "duration": 118, "velocity": 127}, {"time": 193916, "pitch": 78, "duration": 120, "velocity": 127}, {"time": 194036, "pitch": 69, "duration": 121, "velocity": 127}, {"time": 194397, "pitch": 79, "duration": 121, "velocity": 127}, {"time": 194638, "pitch": 71, "duration": 121, "velocity": 127}, {"time": 194879, "pitch": 74, "duration": 120, "velocity": 127}, {"time": 195120, "pitch": 71, "duration": 120, "velocity": 127}, {"time": 195240, "pitch": 79, "duration": 121, "velocity": 127}, {"time": 195481, "pitch": 71, "duration": 120, "velocity": 127}, {"time": 195601, "pitch": 74, "duration": 121, "velocity": 127}, {"time": 195842, "pitch": 76, "duration": 121, "velocity": 127}, {"time": 195963, "pitch": 71, "duration": 120, "velocity": 127}, {"time": 196324, "pitch": 79, "duration": 118, "velocity": 127}, {"time": 196559, "pitch": 71, "duration": 118, "velocity": 127}, {"time": 196795, "pitch": 74, "duration": 120, "velocity": 127}, {"time": 197036, "pitch": 71, "duration": 120, "velocity": 127}, {"time": 197156, "pitch": 79, "duration": 121, "velocity": 127}, {"time": 197397, "pitch": 71, "duration": 120, "velocity": 127}, {"time": 197517, "pitch": 74, "duration": 121, "velocity": 127}, {"time": 197758, "pitch": 76, "duration": 121, "velocity": 127}, {"time": 197879, "pitch": 71, "duration": 120, "velocity": 127}, {"time": 198240, "pitch": 79, "duration": 120, "velocity": 127}, {"time": 198481, "pitch": 71, "duration": 120, "velocity": 127}, {"time": 198721, "pitch": 74, "duration": 121, "velocity": 127}, {"time": 198962, "pitch": 71, "duration": 121, "velocity": 127}, {"time": 199083, "pitch": 79, "duration": 120, "velocity": 127}, {"time": 199323, "pitch": 71, "duration": 121, "velocity": 127}, {"time": 199444, "pitch": 74, "duration": 120, "velocity": 127}, {"time": 199685, "pitch": 76, "duration": 117, "velocity": 127}, {"time": 199802, "pitch": 71, "duration": 118, "velocity": 127}, {"time": 200156, "pitch": 79, "duration": 120, "velocity": 127}, {"time": 200397, "pitch": 71, "duration": 120, "velocity": 127}, {"time": 200637, "pitch": 74, "duration": 121, "velocity": 127}, {"time": 200878, "pitch": 71, "duration": 121, "velocity": 127}, {"time": 200999, "pitch": 79, "duration": 120, "velocity": 127}, {"time": 201239, "pitch": 71, "duration": 121, "velocity": 127}, {"time": 201360, "pitch": 74, "duration": 120, "velocity": 127}, {"time": 201601, "pitch": 76, "duration": 120, "velocity": 127}, {"time": 201721, "pitch": 71, "duration": 120, "velocity": 127}, {"time": 202082, "pitch": 79, "duration": 121, "velocity": 127}, {"time": 202323, "pitch": 71, "duration": 120, "velocity": 127}, {"time": 202564, "pitch": 74, "duration": 118, "velocity": 127}, {"time": 202799, "pitch": 71, "duration": 118, "velocity": 127}, {"time": 202917, "pitch": 79, "duration": 118, "velocity": 127}, {"time": 203155, "pitch": 71, "duration": 121, "velocity": 127}, {"time": 203276, "pitch": 74, "duration": 120, "velocity": 127}, {"time": 203517, "pitch": 76, "duration": 120, "velocity": 127}, {"time": 203637, "pitch": 71, "duration": 120, "velocity": 127}, {"time": 203998, "pitch": 79, "duration": 121, "velocity": 127}, {"time": 204239, "pitch": 71, "duration": 120, "velocity": 127}, {"time": 204480, "pitch": 74, "duration": 120, "velocity": 127}, {"time": 204721, "pitch": 71, "duration": 120, "velocity": 127}, {"time": 204841, "pitch": 79, "duration": 120, "velocity": 127}, {"time": 205082, "pitch": 71, "duration": 120, "velocity": 127}, {"time": 205202, "pitch": 74, "duration": 121, "velocity": 127}, {"time": 205443, "pitch": 76, "duration": 120, "velocity": 127}, {"time": 205563, "pitch": 71, "duration": 121, "velocity": 127}, {"time": 205925, "pitch": 81, "duration": 117, "velocity": 127}, {"time": 206160, "pitch": 69, "duration": 118, "velocity": 127}, {"time": 206396, "pitch": 73, "duration": 120, "velocity": 127}, {"time": 206637, "pitch": 69, "duration": 120, "velocity": 127}, {"time": 206757, "pitch": 81, "duration": 120, "velocity": 127}, {"time": 206998, "pitch": 69, "duration": 120, "velocity": 127}, {"time": 207118, "pitch": 73, "duration": 121, "velocity": 127}, {"time": 207359, "pitch": 76, "duration": 120, "velocity": 127}, {"time": 207479, "pitch": 69, "duration": 121, "velocity": 127}, {"time": 207841, "pitch": 81, "duration": 120, "velocity": 127}, {"time": 208081, "pitch": 71, "duration": 121, "velocity": 127}, {"time": 208322, "pitch": 76, "duration": 121, "velocity": 127}, {"time": 208563, "pitch": 71, "duration": 120, "velocity": 127}, {"time": 208683, "pitch": 81, "duration": 121, "velocity": 127}, {"time": 208922, "pitch": 71, "duration": 117, "velocity": 127}, {"time": 209039, "pitch": 76, "duration": 118, "velocity": 127}, {"time": 209275, "pitch": 78, "duration": 120, "velocity": 127}, {"time": 209395, "pitch": 71, "duration": 121, "velocity": 127}, {"time": 227042, "pitch": 79, "duration": 121, "velocity": 127}, {"time": 227283, "pitch": 71, "duration": 120, "velocity": 127}, {"time": 227524, "pitch": 74, "duration": 118, "velocity": 127}, {"time": 227759, "pitch": 71, "duration": 118, "velocity": 127}, {"time": 227877, "pitch": 79, "duration": 118, "velocity": 127}, {"time": 228115, "pitch": 71, "duration": 121, "velocity": 127}, {"time": 228236, "pitch": 74, "duration": 120, "velocity": 127}, {"time": 228477, "pitch": 76, "duration": 120, "velocity": 127}, {"time": 228597, "pitch": 71, "duration": 120, "velocity": 127}, {"time": 228958, "pitch": 79, "duration": 121, "velocity": 127}, {"time": 229199, "pitch": 71, "duration": 120, "velocity": 127}, {"time": 229440, "pitch": 74, "duration": 120, "velocity": 127}, {"time": 229681, "pitch": 71, "duration": 120, "velocity": 127}, {"time": 229801, "pitch": 79, "duration": 120, "velocity": 127}, {"time": 230042, "pitch": 71, "duration": 120, "velocity": 127}, {"time": 230162, "pitch": 74, "duration": 121, "velocity": 127}, {"time": 230403, "pitch": 76, "duration": 120, "velocity": 127}, {"time": 230523, "pitch": 71, "duration": 121, "velocity": 127}, {"time": 230884, "pitch": 79, "duration": 118, "velocity": 127}, {"time": 231120, "pitch": 71, "duration": 118, "velocity": 127}, {"time": 231356, "pitch": 74, "duration": 120, "velocity": 127}, {"time": 231597, "pitch": 71, "duration": 120, "velocity": 127}, {"time": 231717, "pitch": 79, "duration": 120, "velocity": 127}, {"time": 231958, "pitch": 71, "duration": 120, "velocity": 127}, {"time": 232078, "pitch": 74, "duration": 121, "velocity": 127}, {"time": 232319, "pitch": 76, "duration": 120, "velocity": 127}, {"time": 232439, "pitch": 71, "duration": 121, "velocity": 127}, {"time": 232801, "pitch": 79, "duration": 120, "velocity": 127}, {"time": 233041, "pitch": 71, "duration": 121, "velocity": 127}, {"time": 233282, "pitch": 74, "duration": 121, "velocity": 127}, {"time": 233523, "pitch": 71, "duration": 120, "velocity": 127}, {"time": 233643, "pitch": 79, "duration": 121, "velocity": 127}, {"time": 233882, "pitch": 71, "duration": 117, "velocity": 127}, {"time": 233999, "pitch": 74, "duration": 118, "velocity": 127}, {"time": 234235, "pitch": 76, "duration": 120, "velocity": 127}, {"time": 234355, "pitch": 71, "duration": 121, "velocity": 127}, {"time": 234717, "pitch": 79, "duration": 120, "velocity": 127}, {"time": 234957, "pitch": 71, "duration": 121, "velocity": 127}, {"time": 235198, "pitch": 74, "duration": 121, "velocity": 127}, {"time": 235439, "pitch": 71, "duration": 120, "velocity": 127}, {"time": 235559, "pitch": 79, "duration": 121, "velocity": 127}, {"time": 235800, "pitch": 71, "duration": 121, "velocity": 127}, {"time": 235921, "pitch": 74, "duration": 120, "velocity": 127}, {"time": 236161, "pitch": 76, "duration": 121, "velocity": 127}, {"time": 236282, "pitch": 71, "duration": 120, "velocity": 127}, {"time": 236643, "pitch": 79, "duration": 120, "velocity": 127}, {"time": 236884, "pitch": 71, "duration": 120, "velocity": 127}, {"time": 237124, "pitch": 74, "duration": 118, "velocity": 127}, {"time": 237360, "pitch": 71, "duration": 118, "velocity": 127}, {"time": 237478, "pitch": 79, "duration": 118, "velocity": 127}, {"time": 237716, "pitch": 71, "duration": 121, "velocity": 127}, {"time": 237837, "pitch": 74, "duration": 120, "velocity": 127}, {"time": 238077, "pitch": 76, "duration": 121, "velocity": 127}, {"time": 238198, "pitch": 71, "duration": 120, "velocity": 127}, {"time": 238559, "pitch": 81, "duration": 120, "velocity": 127}, {"time": 238800, "pitch": 72, "duration": 120, "velocity": 127}, {"time": 239041, "pitch": 76, "duration": 120, "velocity": 127}, {"time": 239281, "pitch": 72, "duration": 121, "velocity": 127}, {"time": 239402, "pitch": 81, "duration": 120, "velocity": 127}, {"time": 239643, "pitch": 72, "duration": 120, "velocity": 127}, {"time": 239763, "pitch": 76, "duration": 120, "velocity": 127}, {"time": 240004, "pitch": 81, "duration": 118, "velocity": 127}, {"time": 240122, "pitch": 72, "duration": 117, "velocity": 127}, {"time": 240475, "pitch": 78, "duration": 120, "velocity": 127}, {"time": 240716, "pitch": 69, "duration": 120, "velocity": 127}, {"time": 240957, "pitch": 74, "duration": 120, "velocity": 127}, {"time": 241197, "pitch": 69, "duration": 121, "velocity": 127}, {"time": 241318, "pitch": 78, "duration": 120, "velocity": 127}, {"time": 241559, "pitch": 69, "duration": 120, "velocity": 127}, {"time": 241679, "pitch": 74, "duration": 120, "velocity": 127}, {"time": 241920, "pitch": 78, "duration": 120, "velocity": 127}, {"time": 242040, "pitch": 69, "duration": 121, "velocity": 127}, {"time": 246244, "pitch": 79, "duration": 118, "velocity": 127}, {"time": 246479, "pitch": 71, "duration": 118, "velocity": 127}, {"time": 246715, "pitch": 74, "duration": 120, "velocity": 127}, {"time": 246956, "pitch": 71, "duration": 120, "velocity": 127}, {"time": 247076, "pitch": 79, "duration": 121, "velocity": 127}, {"time": 247317, "pitch": 71, "duration": 120, "velocity": 127}, {"time": 247437, "pitch": 74, "duration": 121, "velocity": 127}, {"time": 247678, "pitch": 76, "duration": 121, "velocity": 127}, {"time": 247799, "pitch": 71, "duration": 120, "velocity": 127}, {"time": 248160, "pitch": 79, "duration": 120, "velocity": 127}, {"time": 248401, "pitch": 71, "duration": 120, "velocity": 127}, {"time": 248641, "pitch": 74, "duration": 121, "velocity": 127}, {"time": 248882, "pitch": 71, "duration": 121, "velocity": 127}, {"time": 249003, "pitch": 79, "duration": 120, "velocity": 127}, {"time": 249243, "pitch": 71, "duration": 121, "velocity": 127}, {"time": 249364, "pitch": 74, "duration": 120, "velocity": 127}, {"time": 249604, "pitch": 76, "duration": 118, "velocity": 127}, {"time": 249722, "pitch": 71, "duration": 118, "velocity": 127}, {"time": 250076, "pitch": 79, "duration": 120, "velocity": 127}, {"time": 250317, "pitch": 71, "duration": 120, "velocity": 127}, {"time": 250557, "pitch": 74, "duration": 121, "velocity": 127}, {"time": 250798, "pitch": 71, "duration": 121, "velocity": 127}, {"time": 250919, "pitch": 79, "duration": 120, "velocity": 127}, {"time": 251159, "pitch": 71, "duration": 121, "velocity": 127}, {"time": 251280, "pitch": 74, "duration": 120, "velocity": 127}, {"time": 251521, "pitch": 76, "duration": 120, "velocity": 127}, {"time": 251641, "pitch": 71, "duration": 120, "velocity": 127}, {"time": 252002, "pitch": 79, "duration": 121, "velocity": 127}, {"time": 252243, "pitch": 71, "duration": 120, "velocity": 127}, {"time": 252484, "pitch": 74, "duration": 118, "velocity": 127}, {"time": 252719, "pitch": 71, "duration": 118, "velocity": 127}, {"time": 252837, "pitch": 79, "duration": 118, "velocity": 127}, {"time": 253075, "pitch": 71, "duration": 121, "velocity": 127}, {"time": 253196, "pitch": 74, "duration": 120, "velocity": 127}, {"time": 253437, "pitch": 76, "duration": 120, "velocity": 127}, {"time": 253557, "pitch": 71, "duration": 120, "velocity": 127}, {"time": 253918, "pitch": 79, "duration": 121, "velocity": 127}, {"time": 254159, "pitch": 71, "duration": 120, "velocity": 127}, {"time": 254400, "pitch": 74, "duration": 120, "velocity": 127}, {"time": 254641, "pitch": 71, "duration": 120, "velocity": 127}, {"time": 254761, "pitch": 79, "duration": 120, "velocity": 127}, {"time": 255002, "pitch": 71, "duration": 120, "velocity": 127}, {"time": 255122, "pitch": 74, "duration": 121, "velocity": 127}, {"time": 255363, "pitch": 76, "duration": 120, "velocity": 127}, {"time": 255483, "pitch": 71, "duration": 121, "velocity": 127}, {"time": 255844, "pitch": 79, "duration": 118, "velocity": 127}, {"time": 256080, "pitch": 71, "duration": 118, "velocity": 127}, {"time": 256316, "pitch": 74, "duration": 120, "velocity": 127}, {"time": 256557, "pitch": 71, "duration": 120, "velocity": 127}, {"time": 256677, "pitch": 79, "duration": 120, "velocity": 127}, {"time": 256918, "pitch": 71, "duration": 120, "velocity": 127}, {"time": 257038, "pitch": 74, "duration": 121, "velocity": 127}, {"time": 257279, "pitch": 76, "duration": 120, "velocity": 127}, {"time": 257399, "pitch": 71, "duration": 121, "velocity": 127}, {"time": 257761, "pitch": 79, "duration": 120, "velocity": 127}, {"time": 258001, "pitch": 71, "duration": 121, "velocity": 127}, {"time": 258242, "pitch": 74, "duration": 121, "velocity": 127}, {"time": 258483, "pitch": 71, "duration": 120, "velocity": 127}, {"time": 258603, "pitch": 79, "duration": 121, "velocity": 127}, {"time": 258842, "pitch": 71, "duration": 117, "velocity": 127}, {"time": 258959, "pitch": 74, "duration": 118, "velocity": 127}, {"time": 259195, "pitch": 76, "duration": 120, "velocity": 127}, {"time": 259315, "pitch": 71, "duration": 121, "velocity": 127}, {"time": 259677, "pitch": 79, "duration": 120, "velocity": 127}, {"time": 259917, "pitch": 71, "duration": 121, "velocity": 127}, {"time": 260158, "pitch": 74, "duration": 121, "velocity": 127}, {"time": 260399, "pitch": 71, "duration": 120, "velocity": 127}, {"time": 260519, "pitch": 79, "duration": 121, "velocity": 127}, {"time": 260760, "pitch": 71, "duration": 121, "velocity": 127}, {"time": 260881, "pitch": 74, "duration": 120, "velocity": 127}, {"time": 261121, "pitch": 76, "duration": 121, "velocity": 127}, {"time": 261242, "pitch": 71, "duration": 120, "velocity": 127}, {"time": 261603, "pitch": 79, "duration": 120, "velocity": 127}, {"time": 261844, "pitch": 71, "duration": 120, "velocity": 127}, {"time": 262084, "pitch": 74, "duration": 118, "velocity": 127}, {"time": 262320, "pitch": 71, "duration": 118, "velocity": 127}, {"time": 262438, "pitch": 79, "duration": 118, "velocity": 127}, {"time": 262676, "pitch": 71, "duration": 121, "velocity": 127}, {"time": 262797, "pitch": 74, "duration": 120, "velocity": 127}, {"time": 263037, "pitch": 76, "duration": 121, "velocity": 127}, {"time": 263158, "pitch": 71, "duration": 120, "velocity": 127}, {"time": 263519, "pitch": 79, "duration": 120, "velocity": 127}, {"time": 263760, "pitch": 71, "duration": 120, "velocity": 127}, {"time": 264001, "pitch": 74, "duration": 120, "velocity": 127}, {"time": 264241, "pitch": 71, "duration": 121, "velocity": 127}, {"time": 264362, "pitch": 79, "duration": 120, "velocity": 127}, {"time": 264603, "pitch": 71, "duration": 120, "velocity": 127}, {"time": 264723, "pitch": 74, "duration": 120, "velocity": 127}, {"time": 264964, "pitch": 76, "duration": 118, "velocity": 127}, {"time": 265082, "pitch": 71, "duration": 117, "velocity": 127}, {"time": 265435, "pitch": 79, "duration": 120, "velocity": 127}, {"time": 265676, "pitch": 71, "duration": 120, "velocity": 127}, {"time": 265917, "pitch": 74, "duration": 120, "velocity": 127}, {"time": 266157, "pitch": 71, "duration": 121, "velocity": 127}, {"time": 266278, "pitch": 79, "duration": 120, "velocity": 127}, {"time": 266519, "pitch": 71, "duration": 120, "velocity": 127}, {"time": 266639, "pitch": 74, "duration": 120, "velocity": 127}, {"time": 266880, "pitch": 76, "duration": 120, "velocity": 127}, {"time": 267000, "pitch": 71, "duration": 121, "velocity": 127}, {"time": 267361, "pitch": 79, "duration": 121, "velocity": 127}, {"time": 267602, "pitch": 71, "duration": 121, "velocity": 127}, {"time": 267843, "pitch": 74, "duration": 120, "velocity": 127}, {"time": 268084, "pitch": 71, "duration": 120, "velocity": 127}, {"time": 268204, "pitch": 79, "duration": 120, "velocity": 127}, {"time": 268442, "pitch": 71, "duration": 118, "velocity": 127}, {"time": 268560, "pitch": 74, "duration": 118, "velocity": 127}, {"time": 268796, "pitch": 76, "duration": 120, "velocity": 127}, {"time": 268916, "pitch": 71, "duration": 121, "velocity": 127}, {"time": 269277, "pitch": 79, "duration": 121, "velocity": 127}, {"time": 269518, "pitch": 71, "duration": 121, "velocity": 127}, {"time": 269759, "pitch": 74, "duration": 120, "velocity": 127}, {"time": 270000, "pitch": 71, "duration": 120, "velocity": 127}, {"time": 270120, "pitch": 79, "duration": 121, "velocity": 127}, {"time": 270361, "pitch": 71, "duration": 120, "velocity": 127}, {"time": 270481, "pitch": 74, "duration": 121, "velocity": 127}, {"time": 270722, "pitch": 76, "duration": 121, "velocity": 127}, {"time": 270843, "pitch": 71, "duration": 120, "velocity": 127}, {"time": 271204, "pitch": 79, "duration": 118, "velocity": 127}, {"time": 271439, "pitch": 71, "duration": 118, "velocity": 127}, {"time": 271675, "pitch": 74, "duration": 120, "velocity": 127}, {"time": 271916, "pitch": 71, "duration": 120, "velocity": 127}, {"time": 272036, "pitch": 79, "duration": 121, "velocity": 127}, {"time": 272277, "pitch": 71, "duration": 120, "velocity": 127}, {"time": 272397, "pitch": 74, "duration": 121, "velocity": 127}, {"time": 272638, "pitch": 76, "duration": 121, "velocity": 127}, {"time": 272759, "pitch": 71, "duration": 120, "velocity": 127}, {"time": 273120, "pitch": 79, "duration": 120, "velocity": 127}, {"time": 273361, "pitch": 71, "duration": 120, "velocity": 127}, {"time": 273601, "pitch": 74, "duration": 121, "velocity": 127}, {"time": 273842, "pitch": 71, "duration": 121, "velocity": 127}, {"time": 273963, "pitch": 79, "duration": 120, "velocity": 127}, {"time": 274203, "pitch": 71, "duration": 121, "velocity": 127}, {"time": 274324, "pitch": 74, "duration": 120, "velocity": 127}, {"time": 274564, "pitch": 76, "duration": 118, "velocity": 127}, {"time": 274682, "pitch": 71, "duration": 118, "velocity": 127}, {"time": 275036, "pitch": 79, "duration": 120, "velocity": 127}, {"time": 275277, "pitch": 71, "duration": 120, "velocity": 127}, {"time": 275517, "pitch": 74, "duration": 121, "velocity": 127}, {"time": 275758, "pitch": 71, "duration": 121, "velocity": 127}, {"time": 275879, "pitch": 79, "duration": 120, "velocity": 127}, {"time": 276119, "pitch": 71, "duration": 121, "velocity": 127}, {"time": 276240, "pitch": 74, "duration": 120, "velocity": 127}, {"time": 276481, "pitch": 76, "duration": 120, "velocity": 127}, {"time": 276601, "pitch": 71, "duration": 120, "velocity": 127}, {"time": 276962, "pitch": 79, "duration": 121, "velocity": 127}, {"time": 277203, "pitch": 71, "duration": 120, "velocity": 127}, {"time": 277444, "pitch": 74, "duration": 117, "velocity": 127}, {"time": 277679, "pitch": 71, "duration": 118, "velocity": 127}, {"time": 277797, "pitch": 79, "duration": 118, "velocity": 127}, {"time": 278035, "pitch": 71, "duration": 121, "velocity": 127}, {"time": 278156, "pitch": 74, "duration": 120, "velocity": 127}, {"time": 278397, "pitch": 76, "duration": 120, "velocity": 127}, {"time": 278517, "pitch": 71, "duration": 120, "velocity": 127}, {"time": 278878, "pitch": 79, "duration": 121, "velocity": 127}, {"time": 279119, "pitch": 71, "duration": 120, "velocity": 127}, {"time": 279360, "pitch": 74, "duration": 120, "velocity": 127}, {"time": 279601, "pitch": 71, "duration": 120, "velocity": 127}, {"time": 279721, "pitch": 79, "duration": 120, "velocity": 127}, {"time": 279962, "pitch": 71, "duration": 120, "velocity": 127}, {"time": 280082, "pitch": 74, "duration": 121, "velocity": 127}, {"time": 280323, "pitch": 76, "duration": 120, "velocity": 127}, {"time": 280443, "pitch": 71, "duration": 121, "velocity": 127}, {"time": 280804, "pitch": 79, "duration": 118, "velocity": 127}, {"time": 281040, "pitch": 71, "duration": 118, "velocity": 127}, {"time": 281276, "pitch": 74, "duration": 120, "velocity": 127}, {"time": 281517, "pitch": 71, "duration": 120, "velocity": 127}, {"time": 281637, "pitch": 79, "duration": 120, "velocity": 127}, {"time": 281878, "pitch": 71, "duration": 120, "velocity": 127}, {"time": 281998, "pitch": 74, "duration": 121, "velocity": 127}, {"time": 282239, "pitch": 76, "duration": 120, "velocity": 127}, {"time": 282359, "pitch": 71, "duration": 121, "velocity": 127}, {"time": 282721, "pitch": 79, "duration": 120, "velocity": 127}, {"time": 282961, "pitch": 71, "duration": 121, "velocity": 127}, {"time": 283202, "pitch": 74, "duration": 121, "velocity": 127}, {"time": 283443, "pitch": 71, "duration": 120, "velocity": 127}, {"time": 283563, "pitch": 79, "duration": 121, "velocity": 127}, {"time": 283804, "pitch": 71, "duration": 121, "velocity": 127}, {"time": 283925, "pitch": 74, "duration": 120, "velocity": 127}, {"time": 284165, "pitch": 76, "duration": 121, "velocity": 127}, {"time": 284286, "pitch": 71, "duration": 120, "velocity": 127}, {"time": 284647, "pitch": 79, "duration": 120, "velocity": 127}, {"time": 284888, "pitch": 71, "duration": 120, "velocity": 127}, {"time": 285129, "pitch": 74, "duration": 120, "velocity": 127}, {"time": 285369, "pitch": 71, "duration": 121, "velocity": 127}, {"time": 285490, "pitch": 79, "duration": 120, "velocity": 127}, {"time": 285731, "pitch": 71, "duration": 120, "velocity": 127}, {"time": 285851, "pitch": 74, "duration": 120, "velocity": 127}, {"time": 286092, "pitch": 76, "duration": 120, "velocity": 127}, {"time": 286212, "pitch": 71, "duration": 121, "velocity": 127}, {"time": 286573, "pitch": 79, "duration": 121, "velocity": 127}, {"time": 286814, "pitch": 71, "duration": 121, "velocity": 127}, {"time": 287055, "pitch": 74, "duration": 120, "velocity": 127}, {"time": 287296, "pitch": 71, "duration": 120, "velocity": 127}, {"time": 287416, "pitch": 79, "duration": 121, "velocity": 127}, {"time": 287657, "pitch": 71, "duration": 120, "velocity": 127}, {"time": 287777, "pitch": 74, "duration": 121, "velocity": 127}, {"time": 288018, "pitch": 76, "duration": 121, "velocity": 127}, {"time": 288139, "pitch": 71, "duration": 120, "velocity": 127}, {"time": 288500, "pitch": 79, "duration": 120, "velocity": 127}, {"time": 288741, "pitch": 71, "duration": 120, "velocity": 127}, {"time": 288981, "pitch": 74, "duration": 121, "velocity": 127}, {"time": 289222, "pitch": 71, "duration": 121, "velocity": 127}, {"time": 289343, "pitch": 79, "duration": 120, "velocity": 127}, {"time": 289583, "pitch": 71, "duration": 121, "velocity": 127}, {"time": 289704, "pitch": 74, "duration": 120, "velocity": 127}, {"time": 289945, "pitch": 76, "duration": 120, "velocity": 127}, {"time": 290065, "pitch": 71, "duration": 120, "velocity": 127}, {"time": 290426, "pitch": 79, "duration": 121, "velocity": 127}, {"time": 290667, "pitch": 71, "duration": 120, "velocity": 127}, {"time": 290908, "pitch": 74, "duration": 120, "velocity": 127}, {"time": 291149, "pitch": 71, "duration": 120, "velocity": 127}, {"time": 291269, "pitch": 79, "duration": 120, "velocity": 127}, {"time": 291510, "pitch": 71, "duration": 120, "velocity": 127}, {"time": 291630, "pitch": 74, "duration": 121, "velocity": 127}, {"time": 291871, "pitch": 76, "duration": 120, "velocity": 127}, {"time": 291991, "pitch": 71, "duration": 121, "velocity": 127}], "annotations": [{"time": 283, "annotation": {"number": 7, "value": 56}, "group": "control_change"}, {"time": 304, "annotation": {"number": 11, "value": 100}, "group": "control_change"}, {"time": 326, "annotation": {"number": 10, "value": 4}, "group": "control_change"}, {"time": 348, "annotation": {"number": 91, "value": 0}, "group": "control_change"}, {"time": 370, "annotation": {"number": 93, "value": 0}, "group": "control_change"}, {"time": 391, "annotation": {"number": 101, "value": 0}, "group": "control_change"}, {"time": 413, "annotation": {"number": 100, "value": 0}, "group": "control_change"}, {"time": 435, "annotation": {"number": 6, "value": 12}, "group": "control_change"}, {"time": 456, "annotation": {"number": 101, "value": 127}, "group": "control_change"}, {"time": 478, "annotation": {"number": 100, "value": 127}, "group": "control_change"}]}, {"program": 0, "is_drum": false, "name": "ARPEGGIO R", "annotations": [{"time": 217, "annotation": {"number": 0, "value": 0}, "group": "control_change"}, {"time": 239, "annotation": {"number": 32, "value": 0}, "group": "control_change"}]}, {"program": 98, "is_drum": false, "name": "ARPEGGIO R", "notes": [{"time": 2884, "pitch": 100, "duration": 118, "velocity": 127}, {"time": 3237, "pitch": 95, "duration": 118, "velocity": 127}, {"time": 4800, "pitch": 100, "duration": 120, "velocity": 127}, {"time": 5041, "pitch": 95, "duration": 120, "velocity": 127}, {"time": 5161, "pitch": 98, "duration": 121, "velocity": 127}, {"time": 6716, "pitch": 100, "duration": 120, "velocity": 127}, {"time": 7077, "pitch": 95, "duration": 121, "velocity": 127}, {"time": 8642, "pitch": 100, "duration": 121, "velocity": 127}, {"time": 8883, "pitch": 95, "duration": 121, "velocity": 127}, {"time": 9004, "pitch": 98, "duration": 120, "velocity": 127}, {"time": 10558, "pitch": 100, "duration": 121, "velocity": 127}, {"time": 10920, "pitch": 95, "duration": 120, "velocity": 127}, {"time": 12485, "pitch": 100, "duration": 118, "velocity": 127}, {"time": 12720, "pitch": 95, "duration": 118, "velocity": 127}, {"time": 12838, "pitch": 98, "duration": 118, "velocity": 127}, {"time": 14401, "pitch": 100, "duration": 120, "velocity": 127}, {"time": 14642, "pitch": 95, "duration": 120, "velocity": 127}, {"time": 16317, "pitch": 100, "duration": 120, "velocity": 127}, {"time": 16558, "pitch": 95, "duration": 120, "velocity": 127}, {"time": 16678, "pitch": 98, "duration": 120, "velocity": 127}, {"time": 18243, "pitch": 100, "duration": 121, "velocity": 127}, {"time": 18604, "pitch": 95, "duration": 121, "velocity": 127}, {"time": 20159, "pitch": 100, "duration": 121, "velocity": 127}, {"time": 20400, "pitch": 95, "duration": 120, "velocity": 127}, {"time": 20520, "pitch": 98, "duration": 121, "velocity": 127}, {"time": 22075, "pitch": 100, "duration": 121, "velocity": 127}, {"time": 22436, "pitch": 95, "duration": 121, "velocity": 127}, {"time": 24002, "pitch": 100, "duration": 120, "velocity": 127}, {"time": 24242, "pitch": 95, "duration": 121, "velocity": 127}, {"time": 24363, "pitch": 98, "duration": 120, "velocity": 127}, {"time": 25918, "pitch": 100, "duration": 120, "velocity": 127}, {"time": 26279, "pitch": 95, "duration": 120, "velocity": 127}, {"time": 27844, "pitch": 100, "duration": 118, "velocity": 127}, {"time": 28080, "pitch": 95, "duration": 117, "velocity": 127}, {"time": 28197, "pitch": 98, "duration": 118, "velocity": 127}, {"time": 29760, "pitch": 100, "duration": 120, "velocity": 127}, {"time": 30001, "pitch": 95, "duration": 120, "velocity": 127}, {"time": 31676, "pitch": 100, "duration": 120, "velocity": 127}, {"time": 31917, "pitch": 95, "duration": 120, "velocity": 127}, {"time": 32037, "pitch": 98, "duration": 121, "velocity": 127}, {"time": 81125, "pitch": 95, "duration": 117, "velocity": 127}, {"time": 81360, "pitch": 103, "duration": 118, "velocity": 127}, {"time": 81596, "pitch": 95, "duration": 120, "velocity": 127}, {"time": 81716, "pitch": 98, "duration": 121, "velocity": 127}, {"time": 81837, "pitch": 100, "duration": 120, "velocity": 127}, {"time": 82078, "pitch": 103, "duration": 120, "velocity": 127}, {"time": 82198, "pitch": 98, "duration": 120, "velocity": 127}, {"time": 82318, "pitch": 100, "duration": 121, "velocity": 127}, {"time": 82439, "pitch": 103, "duration": 120, "velocity": 127}, {"time": 82800, "pitch": 98, "duration": 120, "velocity": 127}, {"time": 82920, "pitch": 100, "duration": 121, "velocity": 127}, {"time": 83041, "pitch": 95, "duration": 120, "velocity": 127}, {"time": 83282, "pitch": 103, "duration": 120, "velocity": 127}, {"time": 83522, "pitch": 95, "duration": 121, "velocity": 127}, {"time": 83643, "pitch": 98, "duration": 120, "velocity": 127}, {"time": 83763, "pitch": 100, "duration": 121, "velocity": 127}, {"time": 84004, "pitch": 103, "duration": 118, "velocity": 127}, {"time": 84122, "pitch": 98, "duration": 118, "velocity": 127}, {"time": 84240, "pitch": 100, "duration": 117, "velocity": 127}, {"time": 84357, "pitch": 103, "duration": 118, "velocity": 127}, {"time": 84716, "pitch": 98, "duration": 120, "velocity": 127}, {"time": 84836, "pitch": 100, "duration": 121, "velocity": 127}, {"time": 84957, "pitch": 95, "duration": 120, "velocity": 127}, {"time": 85198, "pitch": 103, "duration": 120, "velocity": 127}, {"time": 85438, "pitch": 95, "duration": 121, "velocity": 127}, {"time": 85559, "pitch": 98, "duration": 120, "velocity": 127}, {"time": 85679, "pitch": 100, "duration": 121, "velocity": 127}, {"time": 85920, "pitch": 103, "duration": 120, "velocity": 127}, {"time": 86040, "pitch": 98, "duration": 121, "velocity": 127}, {"time": 86161, "pitch": 100, "duration": 120, "velocity": 127}, {"time": 86281, "pitch": 103, "duration": 121, "velocity": 127}, {"time": 86642, "pitch": 98, "duration": 121, "velocity": 127}, {"time": 86763, "pitch": 100, "duration": 120, "velocity": 127}, {"time": 86883, "pitch": 95, "duration": 121, "velocity": 127}, {"time": 87124, "pitch": 103, "duration": 120, "velocity": 127}, {"time": 87365, "pitch": 95, "duration": 117, "velocity": 127}, {"time": 87482, "pitch": 98, "duration": 118, "velocity": 127}, {"time": 87600, "pitch": 100, "duration": 118, "velocity": 127}, {"time": 87836, "pitch": 103, "duration": 120, "velocity": 127}, {"time": 87956, "pitch": 98, "duration": 121, "velocity": 127}, {"time": 88077, "pitch": 100, "duration": 120, "velocity": 127}, {"time": 88197, "pitch": 103, "duration": 121, "velocity": 127}, {"time": 88558, "pitch": 98, "duration": 121, "velocity": 127}, {"time": 88679, "pitch": 100, "duration": 120, "velocity": 127}, {"time": 88799, "pitch": 95, "duration": 121, "velocity": 127}, {"time": 89040, "pitch": 103, "duration": 120, "velocity": 127}, {"time": 89281, "pitch": 95, "duration": 120, "velocity": 127}, {"time": 89401, "pitch": 98, "duration": 121, "velocity": 127}, {"time": 89522, "pitch": 100, "duration": 120, "velocity": 127}, {"time": 89762, "pitch": 103, "duration": 121, "velocity": 127}, {"time": 89883, "pitch": 98, "duration": 120, "velocity": 127}, {"time": 90003, "pitch": 100, "duration": 121, "velocity": 127}, {"time": 90124, "pitch": 103, "duration": 120, "velocity": 127}, {"time": 90480, "pitch": 98, "duration": 117, "velocity": 127}, {"time": 90597, "pitch": 100, "duration": 118, "velocity": 127}, {"time": 90715, "pitch": 95, "duration": 120, "velocity": 127}, {"time": 90956, "pitch": 103, "duration": 120, "velocity": 127}, {"time": 91197, "pitch": 95, "duration": 120, "velocity": 127}, {"time": 91317, "pitch": 98, "duration": 120, "velocity": 127}, {"time": 91437, "pitch": 100, "duration": 121, "velocity": 127}, {"time": 91678, "pitch": 103, "duration": 121, "velocity": 127}, {"time": 91799, "pitch": 98, "duration": 120, "velocity": 127}, {"time": 91919, "pitch": 100, "duration": 121, "velocity": 127}, {"time": 92040, "pitch": 103, "duration": 120, "velocity": 127}, {"time": 92401, "pitch": 98, "duration": 120, "velocity": 127}, {"time": 92521, "pitch": 100, "duration": 121, "velocity": 127}, {"time": 92642, "pitch": 95, "duration": 120, "velocity": 127}, {"time": 92882, "pitch": 103, "duration": 121, "velocity": 127}, {"time": 93123, "pitch": 95, "duration": 121, "velocity": 127}, {"time": 93244, "pitch": 98, "duration": 120, "velocity": 127}, {"time": 93364, "pitch": 100, "duration": 120, "velocity": 127}, {"time": 93605, "pitch": 103, "duration": 117, "velocity": 127}, {"time": 93722, "pitch": 98, "duration": 118, "velocity": 127}, {"time": 93840, "pitch": 100, "duration": 118, "velocity": 127}, {"time": 93958, "pitch": 103, "duration": 118, "velocity": 127}, {"time": 94317, "pitch": 98, "duration": 120, "velocity": 127}, {"time": 94437, "pitch": 100, "duration": 120, "velocity": 127}, {"time": 94557, "pitch": 90, "duration": 121, "velocity": 127}, {"time": 94798, "pitch": 102, "duration": 121, "velocity": 127}, {"time": 95039, "pitch": 90, "duration": 121, "velocity": 127}, {"time": 95160, "pitch": 95, "duration": 120, "velocity": 127}, {"time": 95280, "pitch": 99, "duration": 120, "velocity": 127}, {"time": 95521, "pitch": 102, "duration": 120, "velocity": 127}, {"time": 95641, "pitch": 95, "duration": 121, "velocity": 127}, {"time": 95762, "pitch": 99, "duration": 120, "velocity": 127}, {"time": 95882, "pitch": 102, "duration": 120, "velocity": 127}, {"time": 96243, "pitch": 95, "duration": 121, "velocity": 127}, {"time": 96364, "pitch": 99, "duration": 120, "velocity": 127}, {"time": 96484, "pitch": 95, "duration": 118, "velocity": 127}, {"time": 96720, "pitch": 103, "duration": 117, "velocity": 127}, {"time": 96955, "pitch": 95, "duration": 120, "velocity": 127}, {"time": 97075, "pitch": 98, "duration": 121, "velocity": 127}, {"time": 97196, "pitch": 100, "duration": 120, "velocity": 127}, {"time": 97437, "pitch": 103, "duration": 120, "velocity": 127}, {"time": 97557, "pitch": 98, "duration": 120, "velocity": 127}, {"time": 97677, "pitch": 100, "duration": 121, "velocity": 127}, {"time": 97798, "pitch": 103, "duration": 120, "velocity": 127}, {"time": 98159, "pitch": 98, "duration": 120, "velocity": 127}, {"time": 98279, "pitch": 100, "duration": 121, "velocity": 127}, {"time": 98400, "pitch": 95, "duration": 120, "velocity": 127}, {"time": 98641, "pitch": 103, "duration": 120, "velocity": 127}, {"time": 98882, "pitch": 95, "duration": 120, "velocity": 127}, {"time": 99002, "pitch": 98, "duration": 120, "velocity": 127}, {"time": 99122, "pitch": 100, "duration": 121, "velocity": 127}, {"time": 99363, "pitch": 103, "duration": 121, "velocity": 127}, {"time": 99484, "pitch": 98, "duration": 120, "velocity": 127}, {"time": 99604, "pitch": 100, "duration": 120, "velocity": 127}, {"time": 99724, "pitch": 103, "duration": 121, "velocity": 127}, {"time": 100080, "pitch": 98, "duration": 118, "velocity": 127}, {"time": 100198, "pitch": 100, "duration": 118, "velocity": 127}, {"time": 100316, "pitch": 95, "duration": 120, "velocity": 127}, {"time": 100557, "pitch": 103, "duration": 120, "velocity": 127}, {"time": 100797, "pitch": 95, "duration": 121, "velocity": 127}, {"time": 100918, "pitch": 98, "duration": 120, "velocity": 127}, {"time": 101038, "pitch": 100, "duration": 121, "velocity": 127}, {"time": 101279, "pitch": 103, "duration": 120, "velocity": 127}, {"time": 101399, "pitch": 98, "duration": 121, "velocity": 127}, {"time": 101520, "pitch": 100, "duration": 120, "velocity": 127}, {"time": 101640, "pitch": 103, "duration": 121, "velocity": 127}, {"time": 102002, "pitch": 98, "duration": 120, "velocity": 127}, {"time": 102122, "pitch": 100, "duration": 120, "velocity": 127}, {"time": 102242, "pitch": 95, "duration": 121, "velocity": 127}, {"time": 102483, "pitch": 103, "duration": 121, "velocity": 127}, {"time": 102724, "pitch": 95, "duration": 118, "velocity": 127}, {"time": 102842, "pitch": 98, "duration": 118, "velocity": 127}, {"time": 102960, "pitch": 100, "duration": 117, "velocity": 127}, {"time": 103195, "pitch": 103, "duration": 120, "velocity": 127}, {"time": 103315, "pitch": 98, "duration": 121, "velocity": 127}, {"time": 103436, "pitch": 100, "duration": 120, "velocity": 127}, {"time": 103556, "pitch": 103, "duration": 121, "velocity": 127}, {"time": 103917, "pitch": 98, "duration": 121, "velocity": 127}, {"time": 104038, "pitch": 100, "duration": 120, "velocity": 127}, {"time": 104158, "pitch": 95, "duration": 121, "velocity": 127}, {"time": 104399, "pitch": 103, "duration": 120, "velocity": 127}, {"time": 104640, "pitch": 95, "duration": 120, "velocity": 127}, {"time": 104760, "pitch": 98, "duration": 121, "velocity": 127}, {"time": 104881, "pitch": 100, "duration": 120, "velocity": 127}, {"time": 105121, "pitch": 103, "duration": 121, "velocity": 127}, {"time": 105242, "pitch": 98, "duration": 120, "velocity": 127}, {"time": 105362, "pitch": 100, "duration": 121, "velocity": 127}, {"time": 105483, "pitch": 103, "duration": 120, "velocity": 127}, {"time": 105844, "pitch": 98, "duration": 120, "velocity": 127}, {"time": 105964, "pitch": 100, "duration": 121, "velocity": 127}, {"time": 106085, "pitch": 95, "duration": 117, "velocity": 127}, {"time": 106320, "pitch": 103, "duration": 118, "velocity": 127}, {"time": 106556, "pitch": 95, "duration": 120, "velocity": 127}, {"time": 106676, "pitch": 98, "duration": 121, "velocity": 127}, {"time": 106797, "pitch": 100, "duration": 120, "velocity": 127}, {"time": 107037, "pitch": 103, "duration": 121, "velocity": 127}, {"time": 107158, "pitch": 98, "duration": 120, "velocity": 127}, {"time": 107278, "pitch": 100, "duration": 121, "velocity": 127}, {"time": 107399, "pitch": 103, "duration": 120, "velocity": 127}, {"time": 107760, "pitch": 98, "duration": 120, "velocity": 127}, {"time": 107880, "pitch": 100, "duration": 121, "velocity": 127}, {"time": 108001, "pitch": 95, "duration": 120, "velocity": 127}, {"time": 108241, "pitch": 103, "duration": 121, "velocity": 127}, {"time": 108482, "pitch": 95, "duration": 121, "velocity": 127}, {"time": 108603, "pitch": 98, "duration": 120, "velocity": 127}, {"time": 108723, "pitch": 100, "duration": 121, "velocity": 127}, {"time": 108964, "pitch": 103, "duration": 118, "velocity": 127}, {"time": 109082, "pitch": 98, "duration": 117, "velocity": 127}, {"time": 109199, "pitch": 100, "duration": 118, "velocity": 127}, {"time": 109317, "pitch": 103, "duration": 118, "velocity": 127}, {"time": 109676, "pitch": 98, "duration": 120, "velocity": 127}, {"time": 109796, "pitch": 100, "duration": 121, "velocity": 127}, {"time": 109917, "pitch": 93, "duration": 120, "velocity": 127}, {"time": 110157, "pitch": 102, "duration": 121, "velocity": 127}, {"time": 110398, "pitch": 93, "duration": 121, "velocity": 127}, {"time": 110519, "pitch": 98, "duration": 120, "velocity": 127}, {"time": 110639, "pitch": 100, "duration": 120, "velocity": 127}, {"time": 110880, "pitch": 102, "duration": 120, "velocity": 127}, {"time": 111000, "pitch": 98, "duration": 121, "velocity": 127}, {"time": 111121, "pitch": 100, "duration": 120, "velocity": 127}, {"time": 111241, "pitch": 102, "duration": 120, "velocity": 127}, {"time": 111602, "pitch": 98, "duration": 121, "velocity": 127}, {"time": 111723, "pitch": 100, "duration": 120, "velocity": 127}, {"time": 111843, "pitch": 95, "duration": 120, "velocity": 127}, {"time": 112084, "pitch": 103, "duration": 120, "velocity": 127}, {"time": 112325, "pitch": 95, "duration": 117, "velocity": 127}, {"time": 112442, "pitch": 98, "duration": 118, "velocity": 127}, {"time": 112560, "pitch": 100, "duration": 118, "velocity": 127}, {"time": 112796, "pitch": 103, "duration": 120, "velocity": 127}, {"time": 112916, "pitch": 98, "duration": 121, "velocity": 127}, {"time": 113037, "pitch": 100, "duration": 120, "velocity": 127}, {"time": 113157, "pitch": 103, "duration": 120, "velocity": 127}, {"time": 113518, "pitch": 98, "duration": 121, "velocity": 127}, {"time": 113639, "pitch": 100, "duration": 120, "velocity": 127}, {"time": 113759, "pitch": 95, "duration": 120, "velocity": 127}, {"time": 114000, "pitch": 103, "duration": 120, "velocity": 127}, {"time": 114241, "pitch": 95, "duration": 120, "velocity": 127}, {"time": 114361, "pitch": 98, "duration": 120, "velocity": 127}, {"time": 114481, "pitch": 100, "duration": 121, "velocity": 127}, {"time": 114722, "pitch": 103, "duration": 121, "velocity": 127}, {"time": 114843, "pitch": 98, "duration": 120, "velocity": 127}, {"time": 114963, "pitch": 100, "duration": 120, "velocity": 127}, {"time": 115083, "pitch": 103, "duration": 121, "velocity": 127}, {"time": 115439, "pitch": 98, "duration": 118, "velocity": 127}, {"time": 115557, "pitch": 100, "duration": 118, "velocity": 127}, {"time": 116157, "pitch": 100, "duration": 120, "velocity": 127}, {"time": 116518, "pitch": 95, "duration": 120, "velocity": 127}, {"time": 118083, "pitch": 100, "duration": 120, "velocity": 127}, {"time": 118324, "pitch": 95, "duration": 120, "velocity": 127}, {"time": 118444, "pitch": 98, "duration": 121, "velocity": 127}, {"time": 119999, "pitch": 100, "duration": 120, "velocity": 127}, {"time": 120360, "pitch": 95, "duration": 121, "velocity": 127}, {"time": 121915, "pitch": 100, "duration": 120, "velocity": 127}, {"time": 122156, "pitch": 95, "duration": 120, "velocity": 127}, {"time": 122276, "pitch": 98, "duration": 121, "velocity": 127}, {"time": 123841, "pitch": 100, "duration": 121, "velocity": 127}, {"time": 124203, "pitch": 95, "duration": 120, "velocity": 127}, {"time": 125757, "pitch": 100, "duration": 121, "velocity": 127}, {"time": 125998, "pitch": 95, "duration": 121, "velocity": 127}, {"time": 126119, "pitch": 98, "duration": 120, "velocity": 127}, {"time": 127684, "pitch": 100, "duration": 118, "velocity": 127}, {"time": 127919, "pitch": 95, "duration": 118, "velocity": 127}, {"time": 129600, "pitch": 100, "duration": 120, "velocity": 127}, {"time": 129841, "pitch": 95, "duration": 120, "velocity": 127}, {"time": 129961, "pitch": 98, "duration": 120, "velocity": 127}, {"time": 163679, "pitch": 95, "duration": 120, "velocity": 127}, {"time": 163920, "pitch": 103, "duration": 120, "velocity": 127}, {"time": 164161, "pitch": 95, "duration": 120, "velocity": 127}, {"time": 164281, "pitch": 98, "duration": 120, "velocity": 127}, {"time": 164401, "pitch": 100, "duration": 121, "velocity": 127}, {"time": 164642, "pitch": 103, "duration": 121, "velocity": 127}, {"time": 164763, "pitch": 98, "duration": 120, "velocity": 127}, {"time": 164883, "pitch": 100, "duration": 120, "velocity": 127}, {"time": 165003, "pitch": 103, "duration": 121, "velocity": 127}, {"time": 165359, "pitch": 98, "duration": 118, "velocity": 127}, {"time": 165477, "pitch": 100, "duration": 118, "velocity": 127}, {"time": 165595, "pitch": 95, "duration": 120, "velocity": 127}, {"time": 165836, "pitch": 103, "duration": 120, "velocity": 127}, {"time": 166077, "pitch": 95, "duration": 120, "velocity": 127}, {"time": 166197, "pitch": 98, "duration": 120, "velocity": 127}, {"time": 166317, "pitch": 100, "duration": 121, "velocity": 127}, {"time": 166558, "pitch": 103, "duration": 121, "velocity": 127}, {"time": 166679, "pitch": 98, "duration": 120, "velocity": 127}, {"time": 166799, "pitch": 100, "duration": 120, "velocity": 127}, {"time": 166919, "pitch": 103, "duration": 121, "velocity": 127}, {"time": 167281, "pitch": 98, "duration": 120, "velocity": 127}, {"time": 167401, "pitch": 100, "duration": 120, "velocity": 127}, {"time": 167521, "pitch": 95, "duration": 121, "velocity": 127}, {"time": 167762, "pitch": 103, "duration": 121, "velocity": 127}, {"time": 168003, "pitch": 95, "duration": 120, "velocity": 127}, {"time": 168123, "pitch": 98, "duration": 121, "velocity": 127}, {"time": 168244, "pitch": 100, "duration": 120, "velocity": 127}, {"time": 168485, "pitch": 103, "duration": 117, "velocity": 127}, {"time": 168602, "pitch": 98, "duration": 118, "velocity": 127}, {"time": 168720, "pitch": 100, "duration": 118, "velocity": 127}, {"time": 168838, "pitch": 103, "duration": 118, "velocity": 127}, {"time": 169197, "pitch": 98, "duration": 120, "velocity": 127}, {"time": 169317, "pitch": 100, "duration": 120, "velocity": 127}, {"time": 169437, "pitch": 95, "duration": 121, "velocity": 127}, {"time": 169678, "pitch": 103, "duration": 121, "velocity": 127}, {"time": 169919, "pitch": 95, "duration": 120, "velocity": 127}, {"time": 170039, "pitch": 98, "duration": 121, "velocity": 127}, {"time": 170160, "pitch": 100, "duration": 120, "velocity": 127}, {"time": 170401, "pitch": 103, "duration": 120, "velocity": 127}, {"time": 170521, "pitch": 98, "duration": 120, "velocity": 127}, {"time": 170641, "pitch": 100, "duration": 121, "velocity": 127}, {"time": 170762, "pitch": 103, "duration": 120, "velocity": 127}, {"time": 171123, "pitch": 98, "duration": 120, "velocity": 127}, {"time": 171243, "pitch": 100, "duration": 121, "velocity": 127}, {"time": 171364, "pitch": 95, "duration": 118, "velocity": 127}, {"time": 171599, "pitch": 103, "duration": 118, "velocity": 127}, {"time": 171835, "pitch": 95, "duration": 120, "velocity": 127}, {"time": 171955, "pitch": 98, "duration": 121, "velocity": 127}, {"time": 172076, "pitch": 100, "duration": 120, "velocity": 127}, {"time": 172317, "pitch": 103, "duration": 120, "velocity": 127}, {"time": 172437, "pitch": 98, "duration": 120, "velocity": 127}, {"time": 172557, "pitch": 100, "duration": 121, "velocity": 127}, {"time": 172678, "pitch": 103, "duration": 120, "velocity": 127}, {"time": 173039, "pitch": 98, "duration": 120, "velocity": 127}, {"time": 173159, "pitch": 100, "duration": 121, "velocity": 127}, {"time": 173280, "pitch": 95, "duration": 120, "velocity": 127}, {"time": 173521, "pitch": 103, "duration": 120, "velocity": 127}, {"time": 173761, "pitch": 95, "duration": 121, "velocity": 127}, {"time": 173882, "pitch": 98, "duration": 120, "velocity": 127}, {"time": 174002, "pitch": 100, "duration": 121, "velocity": 127}, {"time": 174243, "pitch": 103, "duration": 120, "velocity": 127}, {"time": 174363, "pitch": 98, "duration": 121, "velocity": 127}, {"time": 174484, "pitch": 100, "duration": 120, "velocity": 127}, {"time": 174604, "pitch": 103, "duration": 121, "velocity": 127}, {"time": 174960, "pitch": 98, "duration": 118, "velocity": 127}, {"time": 175078, "pitch": 100, "duration": 118, "velocity": 127}, {"time": 175196, "pitch": 95, "duration": 120, "velocity": 127}, {"time": 175437, "pitch": 103, "duration": 120, "velocity": 127}, {"time": 175677, "pitch": 95, "duration": 121, "velocity": 127}, {"time": 175798, "pitch": 98, "duration": 120, "velocity": 127}, {"time": 175918, "pitch": 100, "duration": 121, "velocity": 127}, {"time": 176159, "pitch": 103, "duration": 120, "velocity": 127}, {"time": 176279, "pitch": 98, "duration": 121, "velocity": 127}, {"time": 176400, "pitch": 100, "duration": 120, "velocity": 127}, {"time": 176520, "pitch": 103, "duration": 121, "velocity": 127}, {"time": 176881, "pitch": 98, "duration": 121, "velocity": 127}, {"time": 177002, "pitch": 100, "duration": 120, "velocity": 127}, {"time": 177122, "pitch": 90, "duration": 121, "velocity": 127}, {"time": 177363, "pitch": 102, "duration": 120, "velocity": 127}, {"time": 177604, "pitch": 90, "duration": 118, "velocity": 127}, {"time": 177722, "pitch": 95, "duration": 117, "velocity": 127}, {"time": 177839, "pitch": 99, "duration": 118, "velocity": 127}, {"time": 178075, "pitch": 102, "duration": 120, "velocity": 127}, {"time": 178195, "pitch": 95, "duration": 121, "velocity": 127}, {"time": 178316, "pitch": 99, "duration": 120, "velocity": 127}, {"time": 178436, "pitch": 102, "duration": 121, "velocity": 127}, {"time": 178797, "pitch": 95, "duration": 121, "velocity": 127}, {"time": 178918, "pitch": 99, "duration": 120, "velocity": 127}, {"time": 179038, "pitch": 95, "duration": 121, "velocity": 127}, {"time": 179279, "pitch": 103, "duration": 120, "velocity": 127}, {"time": 179520, "pitch": 95, "duration": 120, "velocity": 127}, {"time": 179640, "pitch": 98, "duration": 121, "velocity": 127}, {"time": 179761, "pitch": 100, "duration": 120, "velocity": 127}, {"time": 180001, "pitch": 103, "duration": 121, "velocity": 127}, {"time": 180122, "pitch": 98, "duration": 120, "velocity": 127}, {"time": 180242, "pitch": 100, "duration": 121, "velocity": 127}, {"time": 180363, "pitch": 103, "duration": 120, "velocity": 127}, {"time": 180724, "pitch": 98, "duration": 120, "velocity": 127}, {"time": 180844, "pitch": 100, "duration": 121, "velocity": 127}, {"time": 180965, "pitch": 95, "duration": 117, "velocity": 127}, {"time": 181200, "pitch": 103, "duration": 118, "velocity": 127}, {"time": 181436, "pitch": 95, "duration": 120, "velocity": 127}, {"time": 181556, "pitch": 98, "duration": 121, "velocity": 127}, {"time": 181677, "pitch": 100, "duration": 120, "velocity": 127}, {"time": 181917, "pitch": 103, "duration": 121, "velocity": 127}, {"time": 182038, "pitch": 98, "duration": 120, "velocity": 127}, {"time": 182158, "pitch": 100, "duration": 121, "velocity": 127}, {"time": 182279, "pitch": 103, "duration": 120, "velocity": 127}, {"time": 182640, "pitch": 98, "duration": 120, "velocity": 127}, {"time": 182760, "pitch": 100, "duration": 121, "velocity": 127}, {"time": 182881, "pitch": 95, "duration": 120, "velocity": 127}, {"time": 183121, "pitch": 103, "duration": 121, "velocity": 127}, {"time": 183362, "pitch": 95, "duration": 121, "velocity": 127}, {"time": 183483, "pitch": 98, "duration": 120, "velocity": 127}, {"time": 183603, "pitch": 100, "duration": 120, "velocity": 127}, {"time": 183844, "pitch": 103, "duration": 118, "velocity": 127}, {"time": 183962, "pitch": 98, "duration": 117, "velocity": 127}, {"time": 184079, "pitch": 100, "duration": 118, "velocity": 127}, {"time": 184197, "pitch": 103, "duration": 118, "velocity": 127}, {"time": 184556, "pitch": 98, "duration": 120, "velocity": 127}, {"time": 184676, "pitch": 100, "duration": 121, "velocity": 127}, {"time": 184797, "pitch": 95, "duration": 120, "velocity": 127}, {"time": 185037, "pitch": 103, "duration": 121, "velocity": 127}, {"time": 185278, "pitch": 95, "duration": 121, "velocity": 127}, {"time": 185399, "pitch": 98, "duration": 120, "velocity": 127}, {"time": 185519, "pitch": 100, "duration": 120, "velocity": 127}, {"time": 185760, "pitch": 103, "duration": 120, "velocity": 127}, {"time": 185880, "pitch": 98, "duration": 121, "velocity": 127}, {"time": 186001, "pitch": 100, "duration": 120, "velocity": 127}, {"time": 186121, "pitch": 103, "duration": 120, "velocity": 127}, {"time": 186482, "pitch": 98, "duration": 121, "velocity": 127}, {"time": 186603, "pitch": 100, "duration": 120, "velocity": 127}, {"time": 186723, "pitch": 95, "duration": 120, "velocity": 127}, {"time": 186964, "pitch": 103, "duration": 120, "velocity": 127}, {"time": 187205, "pitch": 95, "duration": 117, "velocity": 127}, {"time": 187322, "pitch": 98, "duration": 118, "velocity": 127}, {"time": 187440, "pitch": 100, "duration": 118, "velocity": 127}, {"time": 187676, "pitch": 103, "duration": 120, "velocity": 127}, {"time": 187796, "pitch": 98, "duration": 121, "velocity": 127}, {"time": 187917, "pitch": 100, "duration": 120, "velocity": 127}, {"time": 188037, "pitch": 103, "duration": 120, "velocity": 127}, {"time": 188398, "pitch": 98, "duration": 121, "velocity": 127}, {"time": 188519, "pitch": 100, "duration": 120, "velocity": 127}, {"time": 188639, "pitch": 95, "duration": 120, "velocity": 127}, {"time": 188880, "pitch": 103, "duration": 120, "velocity": 127}, {"time": 189121, "pitch": 95, "duration": 120, "velocity": 127}, {"time": 189241, "pitch": 98, "duration": 120, "velocity": 127}, {"time": 189361, "pitch": 100, "duration": 121, "velocity": 127}, {"time": 189602, "pitch": 103, "duration": 121, "velocity": 127}, {"time": 189723, "pitch": 98, "duration": 120, "velocity": 127}, {"time": 189843, "pitch": 100, "duration": 120, "velocity": 127}, {"time": 189963, "pitch": 103, "duration": 121, "velocity": 127}, {"time": 190319, "pitch": 98, "duration": 118, "velocity": 127}, {"time": 190437, "pitch": 100, "duration": 118, "velocity": 127}, {"time": 190555, "pitch": 95, "duration": 120, "velocity": 127}, {"time": 190796, "pitch": 103, "duration": 120, "velocity": 127}, {"time": 191037, "pitch": 95, "duration": 120, "velocity": 127}, {"time": 191157, "pitch": 98, "duration": 120, "velocity": 127}, {"time": 191277, "pitch": 100, "duration": 121, "velocity": 127}, {"time": 191518, "pitch": 103, "duration": 121, "velocity": 127}, {"time": 191639, "pitch": 98, "duration": 120, "velocity": 127}, {"time": 191759, "pitch": 100, "duration": 120, "velocity": 127}, {"time": 191879, "pitch": 103, "duration": 121, "velocity": 127}, {"time": 192241, "pitch": 98, "duration": 120, "velocity": 127}, {"time": 192361, "pitch": 100, "duration": 120, "velocity": 127}, {"time": 192481, "pitch": 93, "duration": 121, "velocity": 127}, {"time": 192722, "pitch": 102, "duration": 121, "velocity": 127}, {"time": 192963, "pitch": 93, "duration": 120, "velocity": 127}, {"time": 193083, "pitch": 98, "duration": 121, "velocity": 127}, {"time": 193204, "pitch": 100, "duration": 120, "velocity": 127}, {"time": 193445, "pitch": 102, "duration": 117, "velocity": 127}, {"time": 193562, "pitch": 98, "duration": 118, "velocity": 127}, {"time": 193680, "pitch": 100, "duration": 118, "velocity": 127}, {"time": 193798, "pitch": 102, "duration": 118, "velocity": 127}, {"time": 194157, "pitch": 98, "duration": 120, "velocity": 127}, {"time": 194277, "pitch": 100, "duration": 120, "velocity": 127}, {"time": 194397, "pitch": 95, "duration": 121, "velocity": 127}, {"time": 194638, "pitch": 103, "duration": 121, "velocity": 127}, {"time": 194879, "pitch": 95, "duration": 120, "velocity": 127}, {"time": 194999, "pitch": 98, "duration": 121, "velocity": 127}, {"time": 195120, "pitch": 100, "duration": 120, "velocity": 127}, {"time": 195361, "pitch": 103, "duration": 120, "velocity": 127}, {"time": 195481, "pitch": 98, "duration": 120, "velocity": 127}, {"time": 195601, "pitch": 100, "duration": 121, "velocity": 127}, {"time": 195722, "pitch": 103, "duration": 120, "velocity": 127}, {"time": 196083, "pitch": 98, "duration": 120, "velocity": 127}, {"time": 196203, "pitch": 100, "duration": 121, "velocity": 127}, {"time": 227042, "pitch": 95, "duration": 121, "velocity": 127}, {"time": 227283, "pitch": 103, "duration": 120, "velocity": 127}, {"time": 227524, "pitch": 95, "duration": 118, "velocity": 127}, {"time": 227642, "pitch": 98, "duration": 117, "velocity": 127}, {"time": 227759, "pitch": 100, "duration": 118, "velocity": 127}, {"time": 227995, "pitch": 103, "duration": 120, "velocity": 127}, {"time": 228115, "pitch": 98, "duration": 121, "velocity": 127}, {"time": 228236, "pitch": 100, "duration": 120, "velocity": 127}, {"time": 228356, "pitch": 103, "duration": 121, "velocity": 127}, {"time": 228717, "pitch": 98, "duration": 121, "velocity": 127}, {"time": 228838, "pitch": 100, "duration": 120, "velocity": 127}, {"time": 228958, "pitch": 95, "duration": 121, "velocity": 127}, {"time": 229199, "pitch": 103, "duration": 120, "velocity": 127}, {"time": 229440, "pitch": 95, "duration": 120, "velocity": 127}, {"time": 229560, "pitch": 98, "duration": 121, "velocity": 127}, {"time": 229681, "pitch": 100, "duration": 120, "velocity": 127}, {"time": 229921, "pitch": 103, "duration": 121, "velocity": 127}, {"time": 230042, "pitch": 98, "duration": 120, "velocity": 127}, {"time": 230162, "pitch": 100, "duration": 121, "velocity": 127}, {"time": 230283, "pitch": 103, "duration": 120, "velocity": 127}, {"time": 230644, "pitch": 98, "duration": 120, "velocity": 127}, {"time": 230764, "pitch": 100, "duration": 120, "velocity": 127}, {"time": 230884, "pitch": 95, "duration": 118, "velocity": 127}, {"time": 231120, "pitch": 103, "duration": 118, "velocity": 127}, {"time": 231356, "pitch": 95, "duration": 120, "velocity": 127}, {"time": 231476, "pitch": 98, "duration": 121, "velocity": 127}, {"time": 231597, "pitch": 100, "duration": 120, "velocity": 127}, {"time": 231837, "pitch": 103, "duration": 121, "velocity": 127}, {"time": 231958, "pitch": 98, "duration": 120, "velocity": 127}, {"time": 232078, "pitch": 100, "duration": 121, "velocity": 127}, {"time": 232199, "pitch": 103, "duration": 120, "velocity": 127}, {"time": 232560, "pitch": 98, "duration": 120, "velocity": 127}, {"time": 232680, "pitch": 100, "duration": 121, "velocity": 127}, {"time": 232801, "pitch": 95, "duration": 120, "velocity": 127}, {"time": 233041, "pitch": 103, "duration": 121, "velocity": 127}, {"time": 233282, "pitch": 95, "duration": 121, "velocity": 127}, {"time": 233403, "pitch": 98, "duration": 120, "velocity": 127}, {"time": 233523, "pitch": 100, "duration": 120, "velocity": 127}, {"time": 233764, "pitch": 103, "duration": 118, "velocity": 127}, {"time": 233882, "pitch": 98, "duration": 117, "velocity": 127}, {"time": 233999, "pitch": 100, "duration": 118, "velocity": 127}, {"time": 234117, "pitch": 103, "duration": 118, "velocity": 127}, {"time": 234476, "pitch": 98, "duration": 120, "velocity": 127}, {"time": 234596, "pitch": 100, "duration": 121, "velocity": 127}, {"time": 234717, "pitch": 95, "duration": 120, "velocity": 127}, {"time": 234957, "pitch": 103, "duration": 121, "velocity": 127}, {"time": 235198, "pitch": 95, "duration": 121, "velocity": 127}, {"time": 235319, "pitch": 98, "duration": 120, "velocity": 127}, {"time": 235439, "pitch": 100, "duration": 120, "velocity": 127}, {"time": 235680, "pitch": 103, "duration": 120, "velocity": 127}, {"time": 235800, "pitch": 98, "duration": 121, "velocity": 127}, {"time": 235921, "pitch": 100, "duration": 120, "velocity": 127}, {"time": 236041, "pitch": 103, "duration": 120, "velocity": 127}, {"time": 236402, "pitch": 98, "duration": 121, "velocity": 127}, {"time": 236523, "pitch": 100, "duration": 120, "velocity": 127}, {"time": 236643, "pitch": 95, "duration": 120, "velocity": 127}, {"time": 236884, "pitch": 103, "duration": 120, "velocity": 127}, {"time": 237124, "pitch": 95, "duration": 118, "velocity": 127}, {"time": 237242, "pitch": 98, "duration": 118, "velocity": 127}, {"time": 237360, "pitch": 100, "duration": 118, "velocity": 127}, {"time": 237596, "pitch": 103, "duration": 120, "velocity": 127}, {"time": 237716, "pitch": 98, "duration": 121, "velocity": 127}, {"time": 237837, "pitch": 100, "duration": 120, "velocity": 127}, {"time": 237957, "pitch": 103, "duration": 120, "velocity": 127}, {"time": 238318, "pitch": 98, "duration": 121, "velocity": 127}, {"time": 238439, "pitch": 100, "duration": 120, "velocity": 127}, {"time": 238559, "pitch": 95, "duration": 120, "velocity": 127}, {"time": 238800, "pitch": 103, "duration": 120, "velocity": 127}, {"time": 239041, "pitch": 95, "duration": 120, "velocity": 127}, {"time": 239161, "pitch": 98, "duration": 120, "velocity": 127}, {"time": 239281, "pitch": 100, "duration": 121, "velocity": 127}, {"time": 239522, "pitch": 103, "duration": 121, "velocity": 127}, {"time": 239643, "pitch": 98, "duration": 120, "velocity": 127}, {"time": 239763, "pitch": 100, "duration": 120, "velocity": 127}, {"time": 239883, "pitch": 103, "duration": 121, "velocity": 127}, {"time": 240239, "pitch": 98, "duration": 118, "velocity": 127}, {"time": 240357, "pitch": 100, "duration": 118, "velocity": 127}, {"time": 240475, "pitch": 93, "duration": 120, "velocity": 127}, {"time": 240716, "pitch": 102, "duration": 120, "velocity": 127}, {"time": 240957, "pitch": 93, "duration": 120, "velocity": 127}, {"time": 241077, "pitch": 98, "duration": 120, "velocity": 127}, {"time": 241197, "pitch": 100, "duration": 121, "velocity": 127}, {"time": 241438, "pitch": 102, "duration": 121, "velocity": 127}, {"time": 241559, "pitch": 98, "duration": 120, "velocity": 127}, {"time": 241679, "pitch": 100, "duration": 120, "velocity": 127}, {"time": 241799, "pitch": 102, "duration": 121, "velocity": 127}, {"time": 242161, "pitch": 98, "duration": 120, "velocity": 127}, {"time": 242281, "pitch": 100, "duration": 120, "velocity": 127}, {"time": 246715, "pitch": 100, "duration": 120, "velocity": 127}, {"time": 247076, "pitch": 95, "duration": 121, "velocity": 127}, {"time": 248641, "pitch": 100, "duration": 121, "velocity": 127}, {"time": 248882, "pitch": 95, "duration": 121, "velocity": 127}, {"time": 249003, "pitch": 98, "duration": 120, "velocity": 127}, {"time": 250557, "pitch": 100, "duration": 121, "velocity": 127}, {"time": 250919, "pitch": 95, "duration": 120, "velocity": 127}, {"time": 252484, "pitch": 100, "duration": 118, "velocity": 127}, {"time": 252719, "pitch": 95, "duration": 118, "velocity": 127}, {"time": 252837, "pitch": 98, "duration": 118, "velocity": 127}, {"time": 254400, "pitch": 100, "duration": 120, "velocity": 127}, {"time": 254761, "pitch": 95, "duration": 120, "velocity": 127}, {"time": 256316, "pitch": 100, "duration": 120, "velocity": 127}, {"time": 256557, "pitch": 95, "duration": 120, "velocity": 127}, {"time": 256677, "pitch": 98, "duration": 120, "velocity": 127}, {"time": 258242, "pitch": 100, "duration": 121, "velocity": 127}, {"time": 258483, "pitch": 95, "duration": 120, "velocity": 127}, {"time": 260158, "pitch": 100, "duration": 121, "velocity": 127}, {"time": 260399, "pitch": 95, "duration": 120, "velocity": 127}, {"time": 260519, "pitch": 98, "duration": 121, "velocity": 127}, {"time": 262084, "pitch": 100, "duration": 118, "velocity": 127}, {"time": 262438, "pitch": 95, "duration": 118, "velocity": 127}, {"time": 264001, "pitch": 100, "duration": 120, "velocity": 127}, {"time": 264241, "pitch": 95, "duration": 121, "velocity": 127}, {"time": 264362, "pitch": 98, "duration": 120, "velocity": 127}, {"time": 265917, "pitch": 100, "duration": 120, "velocity": 127}, {"time": 266278, "pitch": 95, "duration": 120, "velocity": 127}, {"time": 267843, "pitch": 100, "duration": 120, "velocity": 127}, {"time": 268084, "pitch": 95, "duration": 120, "velocity": 127}, {"time": 268204, "pitch": 98, "duration": 120, "velocity": 127}, {"time": 269759, "pitch": 100, "duration": 120, "velocity": 127}, {"time": 270120, "pitch": 95, "duration": 121, "velocity": 127}, {"time": 271675, "pitch": 100, "duration": 120, "velocity": 127}, {"time": 271916, "pitch": 95, "duration": 120, "velocity": 127}, {"time": 272036, "pitch": 98, "duration": 121, "velocity": 127}, {"time": 273601, "pitch": 100, "duration": 121, "velocity": 127}, {"time": 273842, "pitch": 95, "duration": 121, "velocity": 127}, {"time": 275517, "pitch": 100, "duration": 121, "velocity": 127}, {"time": 275758, "pitch": 95, "duration": 121, "velocity": 127}, {"time": 275879, "pitch": 98, "duration": 120, "velocity": 127}, {"time": 277444, "pitch": 100, "duration": 117, "velocity": 127}, {"time": 277797, "pitch": 95, "duration": 118, "velocity": 127}, {"time": 279360, "pitch": 100, "duration": 120, "velocity": 127}, {"time": 279601, "pitch": 95, "duration": 120, "velocity": 127}, {"time": 279721, "pitch": 98, "duration": 120, "velocity": 127}, {"time": 281276, "pitch": 100, "duration": 120, "velocity": 127}, {"time": 281637, "pitch": 95, "duration": 120, "velocity": 127}, {"time": 283202, "pitch": 100, "duration": 121, "velocity": 127}, {"time": 283443, "pitch": 95, "duration": 120, "velocity": 127}, {"time": 283563, "pitch": 98, "duration": 121, "velocity": 127}, {"time": 285129, "pitch": 100, "duration": 120, "velocity": 127}, {"time": 285490, "pitch": 95, "duration": 120, "velocity": 127}, {"time": 287055, "pitch": 100, "duration": 120, "velocity": 127}, {"time": 287296, "pitch": 95, "duration": 120, "velocity": 127}, {"time": 287416, "pitch": 98, "duration": 121, "velocity": 127}, {"time": 288981, "pitch": 100, "duration": 121, "velocity": 127}, {"time": 289222, "pitch": 95, "duration": 121, "velocity": 127}, {"time": 290908, "pitch": 100, "duration": 120, "velocity": 127}, {"time": 291149, "pitch": 95, "duration": 120, "velocity": 127}, {"time": 291269, "pitch": 98, "duration": 120, "velocity": 127}], "annotations": [{"time": 283, "annotation": {"number": 7, "value": 50}, "group": "control_change"}, {"time": 304, "annotation": {"number": 11, "value": 100}, "group": "control_change"}, {"time": 326, "annotation": {"number": 10, "value": 124}, "group": "control_change"}, {"time": 348, "annotation": {"number": 91, "value": 80}, "group": "control_change"}, {"time": 370, "annotation": {"number": 93, "value": 0}, "group": "control_change"}, {"time": 391, "annotation": {"number": 101, "value": 0}, "group": "control_change"}, {"time": 413, "annotation": {"number": 100, "value": 0}, "group": "control_change"}, {"time": 435, "annotation": {"number": 6, "value": 12}, "group": "control_change"}, {"time": 456, "annotation": {"number": 101, "value": 127}, "group": "control_change"}, {"time": 478, "annotation": {"number": 100, "value": 127}, "group": "control_change"}]}, {"program": 0, "is_drum": false, "name": "ARPEGGIO C1", "annotations": [{"time": 217, "annotation": {"number": 0, "value": 0}, "group": "control_change"}, {"time": 239, "annotation": {"number": 32, "value": 0}, "group": "control_change"}]}, {"program": 1, "is_drum": false, "name": "ARPEGGIO C1", "notes": [{"time": 64321, "pitch": 71, "duration": 241, "velocity": 127}, {"time": 64562, "pitch": 83, "duration": 120, "velocity": 127}, {"time": 64682, "pitch": 71, "duration": 120, "velocity": 127}, {"time": 66237, "pitch": 71, "duration": 241, "velocity": 127}, {"time": 66478, "pitch": 83, "duration": 120, "velocity": 127}, {"time": 66598, "pitch": 71, "duration": 120, "velocity": 127}, {"time": 68163, "pitch": 74, "duration": 241, "velocity": 127}, {"time": 68404, "pitch": 86, "duration": 120, "velocity": 127}, {"time": 68524, "pitch": 74, "duration": 238, "velocity": 127}, {"time": 70079, "pitch": 76, "duration": 121, "velocity": 127}, {"time": 70320, "pitch": 88, "duration": 120, "velocity": 127}, {"time": 70440, "pitch": 76, "duration": 121, "velocity": 127}, {"time": 71995, "pitch": 71, "duration": 121, "velocity": 127}, {"time": 72236, "pitch": 83, "duration": 120, "velocity": 127}, {"time": 72356, "pitch": 71, "duration": 241, "velocity": 127}, {"time": 73922, "pitch": 71, "duration": 240, "velocity": 127}, {"time": 74162, "pitch": 83, "duration": 121, "velocity": 127}, {"time": 74283, "pitch": 71, "duration": 120, "velocity": 127}, {"time": 75838, "pitch": 76, "duration": 240, "velocity": 127}, {"time": 76078, "pitch": 88, "duration": 121, "velocity": 127}, {"time": 76199, "pitch": 76, "duration": 120, "velocity": 127}, {"time": 77764, "pitch": 78, "duration": 118, "velocity": 127}, {"time": 78000, "pitch": 90, "duration": 117, "velocity": 127}, {"time": 78117, "pitch": 78, "duration": 118, "velocity": 127}, {"time": 146875, "pitch": 71, "duration": 241, "velocity": 127}, {"time": 147116, "pitch": 83, "duration": 120, "velocity": 127}, {"time": 147236, "pitch": 71, "duration": 121, "velocity": 127}, {"time": 148801, "pitch": 71, "duration": 241, "velocity": 127}, {"time": 149042, "pitch": 83, "duration": 121, "velocity": 127}, {"time": 149163, "pitch": 71, "duration": 120, "velocity": 127}, {"time": 150717, "pitch": 74, "duration": 241, "velocity": 127}, {"time": 150958, "pitch": 86, "duration": 121, "velocity": 127}, {"time": 151079, "pitch": 74, "duration": 240, "velocity": 127}, {"time": 152644, "pitch": 76, "duration": 118, "velocity": 127}, {"time": 152879, "pitch": 88, "duration": 118, "velocity": 127}, {"time": 152997, "pitch": 76, "duration": 118, "velocity": 127}, {"time": 154560, "pitch": 71, "duration": 120, "velocity": 127}, {"time": 154801, "pitch": 83, "duration": 120, "velocity": 127}, {"time": 154921, "pitch": 71, "duration": 241, "velocity": 127}, {"time": 156476, "pitch": 71, "duration": 241, "velocity": 127}, {"time": 156717, "pitch": 83, "duration": 120, "velocity": 127}, {"time": 156837, "pitch": 71, "duration": 120, "velocity": 127}, {"time": 158402, "pitch": 76, "duration": 241, "velocity": 127}, {"time": 158643, "pitch": 88, "duration": 120, "velocity": 127}, {"time": 158763, "pitch": 76, "duration": 121, "velocity": 127}, {"time": 160318, "pitch": 78, "duration": 121, "velocity": 127}, {"time": 160559, "pitch": 90, "duration": 120, "velocity": 127}, {"time": 160679, "pitch": 78, "duration": 121, "velocity": 127}, {"time": 194879, "pitch": 71, "duration": 241, "velocity": 127}, {"time": 195120, "pitch": 83, "duration": 120, "velocity": 127}, {"time": 195240, "pitch": 71, "duration": 121, "velocity": 127}, {"time": 196795, "pitch": 71, "duration": 241, "velocity": 127}, {"time": 197036, "pitch": 83, "duration": 120, "velocity": 127}, {"time": 197156, "pitch": 71, "duration": 121, "velocity": 127}, {"time": 198721, "pitch": 74, "duration": 241, "velocity": 127}, {"time": 198962, "pitch": 86, "duration": 121, "velocity": 127}, {"time": 199083, "pitch": 74, "duration": 240, "velocity": 127}, {"time": 200637, "pitch": 76, "duration": 121, "velocity": 127}, {"time": 200878, "pitch": 88, "duration": 121, "velocity": 127}, {"time": 200999, "pitch": 76, "duration": 120, "velocity": 127}, {"time": 202564, "pitch": 71, "duration": 118, "velocity": 127}, {"time": 202799, "pitch": 83, "duration": 118, "velocity": 127}, {"time": 202917, "pitch": 71, "duration": 238, "velocity": 127}, {"time": 204480, "pitch": 71, "duration": 241, "velocity": 127}, {"time": 204721, "pitch": 83, "duration": 120, "velocity": 127}, {"time": 204841, "pitch": 71, "duration": 120, "velocity": 127}, {"time": 206396, "pitch": 76, "duration": 241, "velocity": 127}, {"time": 206637, "pitch": 88, "duration": 120, "velocity": 127}, {"time": 206757, "pitch": 76, "duration": 120, "velocity": 127}, {"time": 208322, "pitch": 78, "duration": 121, "velocity": 127}, {"time": 208563, "pitch": 90, "duration": 120, "velocity": 127}, {"time": 208683, "pitch": 78, "duration": 121, "velocity": 127}], "annotations": [{"time": 283, "annotation": {"number": 7, "value": 85}, "group": "control_change"}, {"time": 304, "annotation": {"number": 11, "value": 127}, "group": "control_change"}, {"time": 326, "annotation": {"number": 10, "value": 89}, "group": "control_change"}, {"time": 348, "annotation": {"number": 91, "value": 80}, "group": "control_change"}, {"time": 370, "annotation": {"number": 93, "value": 0}, "group": "control_change"}, {"time": 391, "annotation": {"number": 101, "value": 0}, "group": "control_change"}, {"time": 413, "annotation": {"number": 100, "value": 0}, "group": "control_change"}, {"time": 435, "annotation": {"number": 6, "value": 12}, "group": "control_change"}, {"time": 456, "annotation": {"number": 101, "value": 127}, "group": "control_change"}, {"time": 478, "annotation": {"number": 100, "value": 127}, "group": "control_change"}]}, {"program": 0, "is_drum": true, "name": "DRUMS", "notes": [{"time": 2402, "pitch": 35, "duration": 61, "velocity": 107}, {"time": 2402, "pitch": 42, "duration": 61, "velocity": 67}, {"time": 2402, "pitch": 49, "duration": 61, "velocity": 107}, {"time": 2523, "pitch": 42, "duration": 60, "velocity": 67}, {"time": 2643, "pitch": 46, "duration": 60, "velocity": 107}, {"time": 2643, "pitch": 70, "duration": 60, "velocity": 75}, {"time": 2764, "pitch": 70, "duration": 60, "velocity": 75}, {"time": 2884, "pitch": 38, "duration": 59, "velocity": 107}, {"time": 2884, "pitch": 42, "duration": 59, "velocity": 67}, {"time": 2888, "pitch": 35, "duration": 59, "velocity": 107}, {"time": 3002, "pitch": 42, "duration": 59, "velocity": 67}, {"time": 3120, "pitch": 46, "duration": 59, "velocity": 107}, {"time": 3120, "pitch": 82, "duration": 59, "velocity": 75}, {"time": 3237, "pitch": 38, "duration": 59, "velocity": 107}, {"time": 3237, "pitch": 82, "duration": 59, "velocity": 75}, {"time": 3354, "pitch": 35, "duration": 60, "velocity": 107}, {"time": 3355, "pitch": 42, "duration": 60, "velocity": 67}, {"time": 3476, "pitch": 42, "duration": 60, "velocity": 67}, {"time": 3596, "pitch": 46, "duration": 60, "velocity": 107}, {"time": 3596, "pitch": 70, "duration": 60, "velocity": 75}, {"time": 3716, "pitch": 70, "duration": 61, "velocity": 75}, {"time": 3827, "pitch": 35, "duration": 60, "velocity": 107}, {"time": 3837, "pitch": 38, "duration": 60, "velocity": 107}, {"time": 3837, "pitch": 42, "duration": 60, "velocity": 67}, {"time": 3957, "pitch": 42, "duration": 60, "velocity": 67}, {"time": 4078, "pitch": 46, "duration": 60, "velocity": 107}, {"time": 4078, "pitch": 82, "duration": 60, "velocity": 75}, {"time": 4198, "pitch": 38, "duration": 60, "velocity": 107}, {"time": 4318, "pitch": 35, "duration": 61, "velocity": 107}, {"time": 4318, "pitch": 42, "duration": 61, "velocity": 67}, {"time": 4439, "pitch": 42, "duration": 60, "velocity": 67}, {"time": 4559, "pitch": 46, "duration": 60, "velocity": 107}, {"time": 4559, "pitch": 70, "duration": 60, "velocity": 75}, {"time": 4680, "pitch": 70, "duration": 60, "velocity": 75}, {"time": 4800, "pitch": 38, "duration": 60, "velocity": 107}, {"time": 4800, "pitch": 42, "duration": 60, "velocity": 67}, {"time": 4804, "pitch": 35, "duration": 60, "velocity": 107}, {"time": 4920, "pitch": 42, "duration": 61, "velocity": 67}, {"time": 5041, "pitch": 46, "duration": 60, "velocity": 107}, {"time": 5041, "pitch": 82, "duration": 60, "velocity": 75}, {"time": 5161, "pitch": 38, "duration": 60, "velocity": 107}, {"time": 5161, "pitch": 82, "duration": 60, "velocity": 75}, {"time": 5281, "pitch": 35, "duration": 60, "velocity": 107}, {"time": 5282, "pitch": 42, "duration": 60, "velocity": 67}, {"time": 5402, "pitch": 42, "duration": 60, "velocity": 67}, {"time": 5522, "pitch": 46, "duration": 61, "velocity": 107}, {"time": 5522, "pitch": 70, "duration": 61, "velocity": 75}, {"time": 5643, "pitch": 70, "duration": 60, "velocity": 75}, {"time": 5753, "pitch": 35, "duration": 60, "velocity": 107}, {"time": 5763, "pitch": 38, "duration": 60, "velocity": 107}, {"time": 5763, "pitch": 42, "duration": 60, "velocity": 67}, {"time": 5884, "pitch": 42, "duration": 60, "velocity": 67}, {"time": 6004, "pitch": 46, "duration": 60, "velocity": 107}, {"time": 6004, "pitch": 82, "duration": 60, "velocity": 75}, {"time": 6124, "pitch": 38, "duration": 61, "velocity": 107}, {"time": 6245, "pitch": 35, "duration": 59, "velocity": 107}, {"time": 6245, "pitch": 42, "duration": 59, "velocity": 67}, {"time": 6363, "pitch": 42, "duration": 58, "velocity": 67}, {"time": 6480, "pitch": 46, "duration": 59, "velocity": 107}, {"time": 6480, "pitch": 70, "duration": 59, "velocity": 75}, {"time": 6598, "pitch": 70, "duration": 59, "velocity": 75}, {"time": 6716, "pitch": 38, "duration": 60, "velocity": 107}, {"time": 6716, "pitch": 42, "duration": 60, "velocity": 67}, {"time": 6720, "pitch": 35, "duration": 60, "velocity": 107}, {"time": 6836, "pitch": 42, "duration": 61, "velocity": 67}, {"time": 6957, "pitch": 46, "duration": 60, "velocity": 107}, {"time": 6957, "pitch": 82, "duration": 60, "velocity": 75}, {"time": 7077, "pitch": 38, "duration": 60, "velocity": 107}, {"time": 7077, "pitch": 82, "duration": 60, "velocity": 75}, {"time": 7197, "pitch": 35, "duration": 60, "velocity": 107}, {"time": 7198, "pitch": 42, "duration": 60, "velocity": 67}, {"time": 7318, "pitch": 42, "duration": 60, "velocity": 67}, {"time": 7438, "pitch": 46, "duration": 61, "velocity": 107}, {"time": 7438, "pitch": 70, "duration": 61, "velocity": 75}, {"time": 7559, "pitch": 70, "duration": 60, "velocity": 75}, {"time": 7669, "pitch": 35, "duration": 60, "velocity": 107}, {"time": 7679, "pitch": 38, "duration": 60, "velocity": 107}, {"time": 7679, "pitch": 42, "duration": 60, "velocity": 67}, {"time": 7800, "pitch": 42, "duration": 60, "velocity": 67}, {"time": 7920, "pitch": 46, "duration": 60, "velocity": 107}, {"time": 7920, "pitch": 82, "duration": 60, "velocity": 75}, {"time": 8040, "pitch": 38, "duration": 61, "velocity": 107}, {"time": 8161, "pitch": 35, "duration": 60, "velocity": 107}, {"time": 8161, "pitch": 42, "duration": 60, "velocity": 67}, {"time": 8281, "pitch": 42, "duration": 60, "velocity": 67}, {"time": 8402, "pitch": 46, "duration": 60, "velocity": 107}, {"time": 8402, "pitch": 70, "duration": 60, "velocity": 75}, {"time": 8522, "pitch": 70, "duration": 60, "velocity": 75}, {"time": 8642, "pitch": 38, "duration": 61, "velocity": 107}, {"time": 8642, "pitch": 42, "duration": 61, "velocity": 67}, {"time": 8646, "pitch": 35, "duration": 61, "velocity": 107}, {"time": 8763, "pitch": 42, "duration": 60, "velocity": 67}, {"time": 8883, "pitch": 46, "duration": 60, "velocity": 107}, {"time": 8883, "pitch": 82, "duration": 60, "velocity": 75}, {"time": 9004, "pitch": 38, "duration": 60, "velocity": 107}, {"time": 9004, "pitch": 82, "duration": 60, "velocity": 75}, {"time": 9123, "pitch": 35, "duration": 59, "velocity": 107}, {"time": 9124, "pitch": 42, "duration": 59, "velocity": 67}, {"time": 9242, "pitch": 42, "duration": 59, "velocity": 67}, {"time": 9360, "pitch": 38, "duration": 59, "velocity": 107}, {"time": 9360, "pitch": 46, "duration": 59, "velocity": 107}, {"time": 9360, "pitch": 70, "duration": 59, "velocity": 75}, {"time": 9477, "pitch": 70, "duration": 59, "velocity": 75}, {"time": 9585, "pitch": 35, "duration": 60, "velocity": 107}, {"time": 9595, "pitch": 38, "duration": 60, "velocity": 107}, {"time": 9595, "pitch": 42, "duration": 60, "velocity": 67}, {"time": 9595, "pitch": 82, "duration": 60, "velocity": 75}, {"time": 9716, "pitch": 38, "duration": 60, "velocity": 107}, {"time": 9716, "pitch": 42, "duration": 60, "velocity": 67}, {"time": 9716, "pitch": 82, "duration": 60, "velocity": 75}, {"time": 9836, "pitch": 46, "duration": 60, "velocity": 107}, {"time": 9956, "pitch": 38, "duration": 61, "velocity": 107}, {"time": 9956, "pitch": 82, "duration": 61, "velocity": 75}, {"time": 10077, "pitch": 35, "duration": 60, "velocity": 107}, {"time": 10077, "pitch": 42, "duration": 60, "velocity": 67}, {"time": 10077, "pitch": 49, "duration": 60, "velocity": 107}, {"time": 10197, "pitch": 42, "duration": 60, "velocity": 67}, {"time": 10318, "pitch": 46, "duration": 60, "velocity": 107}, {"time": 10318, "pitch": 70, "duration": 60, "velocity": 75}, {"time": 10438, "pitch": 70, "duration": 60, "velocity": 75}, {"time": 10558, "pitch": 38, "duration": 61, "velocity": 107}, {"time": 10558, "pitch": 42, "duration": 61, "velocity": 67}, {"time": 10562, "pitch": 35, "duration": 61, "velocity": 107}, {"time": 10679, "pitch": 42, "duration": 60, "velocity": 67}, {"time": 10799, "pitch": 46, "duration": 60, "velocity": 107}, {"time": 10799, "pitch": 82, "duration": 60, "velocity": 75}, {"time": 10920, "pitch": 38, "duration": 60, "velocity": 107}, {"time": 10920, "pitch": 82, "duration": 60, "velocity": 75}, {"time": 11039, "pitch": 35, "duration": 60, "velocity": 107}, {"time": 11040, "pitch": 42, "duration": 60, "velocity": 67}, {"time": 11160, "pitch": 42, "duration": 61, "velocity": 67}, {"time": 11281, "pitch": 46, "duration": 60, "velocity": 107}, {"time": 11281, "pitch": 70, "duration": 60, "velocity": 75}, {"time": 11401, "pitch": 70, "duration": 60, "velocity": 75}, {"time": 11512, "pitch": 35, "duration": 60, "velocity": 107}, {"time": 11522, "pitch": 38, "duration": 60, "velocity": 107}, {"time": 11522, "pitch": 42, "duration": 60, "velocity": 67}, {"time": 11642, "pitch": 42, "duration": 60, "velocity": 67}, {"time": 11762, "pitch": 46, "duration": 61, "velocity": 107}, {"time": 11762, "pitch": 82, "duration": 61, "velocity": 75}, {"time": 11883, "pitch": 38, "duration": 60, "velocity": 107}, {"time": 12003, "pitch": 35, "duration": 60, "velocity": 107}, {"time": 12003, "pitch": 42, "duration": 60, "velocity": 67}, {"time": 12124, "pitch": 42, "duration": 60, "velocity": 67}, {"time": 12244, "pitch": 46, "duration": 60, "velocity": 107}, {"time": 12244, "pitch": 70, "duration": 60, "velocity": 75}, {"time": 12364, "pitch": 70, "duration": 61, "velocity": 75}, {"time": 12485, "pitch": 38, "duration": 59, "velocity": 107}, {"time": 12485, "pitch": 42, "duration": 59, "velocity": 67}, {"time": 12489, "pitch": 35, "duration": 59, "velocity": 107}, {"time": 12603, "pitch": 42, "duration": 58, "velocity": 67}, {"time": 12720, "pitch": 46, "duration": 59, "velocity": 107}, {"time": 12720, "pitch": 82, "duration": 59, "velocity": 75}, {"time": 12838, "pitch": 38, "duration": 59, "velocity": 107}, {"time": 12838, "pitch": 82, "duration": 59, "velocity": 75}, {"time": 12955, "pitch": 35, "duration": 60, "velocity": 107}, {"time": 12956, "pitch": 42, "duration": 60, "velocity": 67}, {"time": 13076, "pitch": 42, "duration": 61, "velocity": 67}, {"time": 13197, "pitch": 46, "duration": 60, "velocity": 107}, {"time": 13197, "pitch": 70, "duration": 60, "velocity": 75}, {"time": 13317, "pitch": 70, "duration": 60, "velocity": 75}, {"time": 13428, "pitch": 35, "duration": 60, "velocity": 107}, {"time": 13438, "pitch": 38, "duration": 60, "velocity": 107}, {"time": 13438, "pitch": 42, "duration": 60, "velocity": 67}, {"time": 13558, "pitch": 42, "duration": 60, "velocity": 67}, {"time": 13678, "pitch": 46, "duration": 61, "velocity": 107}, {"time": 13678, "pitch": 82, "duration": 61, "velocity": 75}, {"time": 13799, "pitch": 38, "duration": 60, "velocity": 107}, {"time": 13919, "pitch": 35, "duration": 60, "velocity": 107}, {"time": 13919, "pitch": 42, "duration": 60, "velocity": 67}, {"time": 14040, "pitch": 42, "duration": 60, "velocity": 67}, {"time": 14160, "pitch": 46, "duration": 60, "velocity": 107}, {"time": 14160, "pitch": 70, "duration": 60, "velocity": 75}, {"time": 14280, "pitch": 70, "duration": 61, "velocity": 75}, {"time": 14401, "pitch": 38, "duration": 60, "velocity": 107}, {"time": 14401, "pitch": 42, "duration": 60, "velocity": 67}, {"time": 14405, "pitch": 35, "duration": 60, "velocity": 107}, {"time": 14521, "pitch": 42, "duration": 60, "velocity": 67}, {"time": 14642, "pitch": 46, "duration": 60, "velocity": 107}, {"time": 14642, "pitch": 82, "duration": 60, "velocity": 75}, {"time": 14762, "pitch": 38, "duration": 60, "velocity": 107}, {"time": 14762, "pitch": 82, "duration": 60, "velocity": 75}, {"time": 14881, "pitch": 35, "duration": 61, "velocity": 107}, {"time": 14882, "pitch": 42, "duration": 61, "velocity": 67}, {"time": 15003, "pitch": 42, "duration": 60, "velocity": 67}, {"time": 15123, "pitch": 46, "duration": 60, "velocity": 107}, {"time": 15123, "pitch": 70, "duration": 60, "velocity": 75}, {"time": 15244, "pitch": 70, "duration": 60, "velocity": 75}, {"time": 15354, "pitch": 35, "duration": 59, "velocity": 107}, {"time": 15364, "pitch": 38, "duration": 59, "velocity": 107}, {"time": 15364, "pitch": 42, "duration": 59, "velocity": 67}, {"time": 15482, "pitch": 42, "duration": 59, "velocity": 67}, {"time": 15600, "pitch": 46, "duration": 59, "velocity": 107}, {"time": 15600, "pitch": 82, "duration": 59, "velocity": 75}, {"time": 15717, "pitch": 38, "duration": 59, "velocity": 107}, {"time": 15835, "pitch": 35, "duration": 60, "velocity": 107}, {"time": 15835, "pitch": 42, "duration": 60, "velocity": 67}, {"time": 15956, "pitch": 42, "duration": 60, "velocity": 67}, {"time": 16076, "pitch": 46, "duration": 60, "velocity": 107}, {"time": 16076, "pitch": 70, "duration": 60, "velocity": 75}, {"time": 16196, "pitch": 70, "duration": 61, "velocity": 75}, {"time": 16317, "pitch": 38, "duration": 60, "velocity": 107}, {"time": 16317, "pitch": 42, "duration": 60, "velocity": 67}, {"time": 16321, "pitch": 35, "duration": 60, "velocity": 107}, {"time": 16437, "pitch": 42, "duration": 60, "velocity": 67}, {"time": 16558, "pitch": 46, "duration": 60, "velocity": 107}, {"time": 16558, "pitch": 82, "duration": 60, "velocity": 75}, {"time": 16678, "pitch": 38, "duration": 60, "velocity": 107}, {"time": 16678, "pitch": 82, "duration": 60, "velocity": 75}, {"time": 16797, "pitch": 35, "duration": 61, "velocity": 107}, {"time": 16798, "pitch": 40, "duration": 61, "velocity": 59}, {"time": 16798, "pitch": 42, "duration": 61, "velocity": 67}, {"time": 16919, "pitch": 40, "duration": 60, "velocity": 68}, {"time": 16919, "pitch": 42, "duration": 60, "velocity": 67}, {"time": 17039, "pitch": 38, "duration": 60, "velocity": 107}, {"time": 17039, "pitch": 40, "duration": 60, "velocity": 78}, {"time": 17039, "pitch": 46, "duration": 60, "velocity": 107}, {"time": 17039, "pitch": 70, "duration": 60, "velocity": 75}, {"time": 17160, "pitch": 40, "duration": 60, "velocity": 87}, {"time": 17160, "pitch": 70, "duration": 60, "velocity": 75}, {"time": 17270, "pitch": 35, "duration": 60, "velocity": 107}, {"time": 17280, "pitch": 38, "duration": 60, "velocity": 107}, {"time": 17280, "pitch": 40, "duration": 60, "velocity": 97}, {"time": 17280, "pitch": 42, "duration": 60, "velocity": 67}, {"time": 17280, "pitch": 82, "duration": 60, "velocity": 75}, {"time": 17400, "pitch": 38, "duration": 61, "velocity": 107}, {"time": 17400, "pitch": 40, "duration": 61, "velocity": 106}, {"time": 17400, "pitch": 42, "duration": 61, "velocity": 67}, {"time": 17400, "pitch": 82, "duration": 61, "velocity": 75}, {"time": 17521, "pitch": 40, "duration": 60, "velocity": 116}, {"time": 17521, "pitch": 46, "duration": 60, "velocity": 107}, {"time": 17641, "pitch": 38, "duration": 60, "velocity": 107}, {"time": 17641, "pitch": 40, "duration": 60, "velocity": 127}, {"time": 17641, "pitch": 82, "duration": 60, "velocity": 75}, {"time": 17762, "pitch": 35, "duration": 60, "velocity": 107}, {"time": 17762, "pitch": 42, "duration": 60, "velocity": 67}, {"time": 17762, "pitch": 49, "duration": 60, "velocity": 107}, {"time": 17882, "pitch": 42, "duration": 60, "velocity": 67}, {"time": 18002, "pitch": 46, "duration": 61, "velocity": 107}, {"time": 18002, "pitch": 70, "duration": 61, "velocity": 75}, {"time": 18123, "pitch": 70, "duration": 60, "velocity": 75}, {"time": 18243, "pitch": 38, "duration": 60, "velocity": 107}, {"time": 18243, "pitch": 42, "duration": 60, "velocity": 67}, {"time": 18247, "pitch": 35, "duration": 60, "velocity": 107}, {"time": 18364, "pitch": 42, "duration": 60, "velocity": 67}, {"time": 18484, "pitch": 46, "duration": 60, "velocity": 107}, {"time": 18484, "pitch": 82, "duration": 60, "velocity": 75}, {"time": 18604, "pitch": 38, "duration": 61, "velocity": 107}, {"time": 18604, "pitch": 82, "duration": 61, "velocity": 75}, {"time": 18724, "pitch": 35, "duration": 59, "velocity": 107}, {"time": 18725, "pitch": 42, "duration": 59, "velocity": 67}, {"time": 18843, "pitch": 42, "duration": 58, "velocity": 67}, {"time": 18960, "pitch": 46, "duration": 59, "velocity": 107}, {"time": 18960, "pitch": 70, "duration": 59, "velocity": 75}, {"time": 19078, "pitch": 70, "duration": 59, "velocity": 75}, {"time": 19186, "pitch": 35, "duration": 60, "velocity": 107}, {"time": 19196, "pitch": 38, "duration": 60, "velocity": 107}, {"time": 19196, "pitch": 42, "duration": 60, "velocity": 67}, {"time": 19316, "pitch": 42, "duration": 61, "velocity": 67}, {"time": 19437, "pitch": 46, "duration": 60, "velocity": 107}, {"time": 19437, "pitch": 82, "duration": 60, "velocity": 75}, {"time": 19557, "pitch": 38, "duration": 60, "velocity": 107}, {"time": 19678, "pitch": 35, "duration": 60, "velocity": 107}, {"time": 19678, "pitch": 42, "duration": 60, "velocity": 67}, {"time": 19798, "pitch": 42, "duration": 60, "velocity": 67}, {"time": 19918, "pitch": 46, "duration": 61, "velocity": 107}, {"time": 19918, "pitch": 70, "duration": 61, "velocity": 75}, {"time": 20039, "pitch": 70, "duration": 60, "velocity": 75}, {"time": 20159, "pitch": 38, "duration": 60, "velocity": 107}, {"time": 20159, "pitch": 42, "duration": 60, "velocity": 67}, {"time": 20163, "pitch": 35, "duration": 60, "velocity": 107}, {"time": 20280, "pitch": 42, "duration": 60, "velocity": 67}, {"time": 20400, "pitch": 46, "duration": 60, "velocity": 107}, {"time": 20400, "pitch": 82, "duration": 60, "velocity": 75}, {"time": 20520, "pitch": 38, "duration": 61, "velocity": 107}, {"time": 20520, "pitch": 82, "duration": 61, "velocity": 75}, {"time": 20640, "pitch": 35, "duration": 60, "velocity": 107}, {"time": 20641, "pitch": 42, "duration": 60, "velocity": 67}, {"time": 20761, "pitch": 42, "duration": 60, "velocity": 67}, {"time": 20882, "pitch": 46, "duration": 60, "velocity": 107}, {"time": 20882, "pitch": 70, "duration": 60, "velocity": 75}, {"time": 21002, "pitch": 70, "duration": 60, "velocity": 75}, {"time": 21112, "pitch": 35, "duration": 61, "velocity": 107}, {"time": 21122, "pitch": 38, "duration": 61, "velocity": 107}, {"time": 21122, "pitch": 42, "duration": 61, "velocity": 67}, {"time": 21243, "pitch": 42, "duration": 60, "velocity": 67}, {"time": 21363, "pitch": 46, "duration": 60, "velocity": 107}, {"time": 21363, "pitch": 82, "duration": 60, "velocity": 75}, {"time": 21484, "pitch": 38, "duration": 60, "velocity": 107}, {"time": 21604, "pitch": 35, "duration": 59, "velocity": 107}, {"time": 21604, "pitch": 42, "duration": 59, "velocity": 67}, {"time": 21722, "pitch": 42, "duration": 59, "velocity": 67}, {"time": 21840, "pitch": 46, "duration": 59, "velocity": 107}, {"time": 21840, "pitch": 70, "duration": 59, "velocity": 75}, {"time": 21957, "pitch": 70, "duration": 59, "velocity": 75}, {"time": 22075, "pitch": 38, "duration": 60, "velocity": 107}, {"time": 22075, "pitch": 42, "duration": 60, "velocity": 67}, {"time": 22079, "pitch": 35, "duration": 60, "velocity": 107}, {"time": 22196, "pitch": 42, "duration": 60, "velocity": 67}, {"time": 22316, "pitch": 46, "duration": 60, "velocity": 107}, {"time": 22316, "pitch": 82, "duration": 60, "velocity": 75}, {"time": 22436, "pitch": 38, "duration": 61, "velocity": 107}, {"time": 22436, "pitch": 82, "duration": 61, "velocity": 75}, {"time": 22556, "pitch": 35, "duration": 60, "velocity": 107}, {"time": 22557, "pitch": 42, "duration": 60, "velocity": 67}, {"time": 22677, "pitch": 42, "duration": 60, "velocity": 67}, {"time": 22798, "pitch": 46, "duration": 60, "velocity": 107}, {"time": 22798, "pitch": 70, "duration": 60, "velocity": 75}, {"time": 22918, "pitch": 70, "duration": 60, "velocity": 75}, {"time": 23028, "pitch": 35, "duration": 61, "velocity": 107}, {"time": 23038, "pitch": 38, "duration": 61, "velocity": 107}, {"time": 23038, "pitch": 42, "duration": 61, "velocity": 67}, {"time": 23159, "pitch": 42, "duration": 60, "velocity": 67}, {"time": 23279, "pitch": 46, "duration": 60, "velocity": 107}, {"time": 23279, "pitch": 82, "duration": 60, "velocity": 75}, {"time": 23400, "pitch": 38, "duration": 60, "velocity": 107}, {"time": 23520, "pitch": 35, "duration": 60, "velocity": 107}, {"time": 23520, "pitch": 42, "duration": 60, "velocity": 67}, {"time": 23640, "pitch": 42, "duration": 61, "velocity": 67}, {"time": 23761, "pitch": 46, "duration": 60, "velocity": 107}, {"time": 23761, "pitch": 70, "duration": 60, "velocity": 75}, {"time": 23881, "pitch": 70, "duration": 60, "velocity": 75}, {"time": 24002, "pitch": 38, "duration": 60, "velocity": 107}, {"time": 24002, "pitch": 42, "duration": 60, "velocity": 67}, {"time": 24006, "pitch": 35, "duration": 60, "velocity": 107}, {"time": 24122, "pitch": 42, "duration": 60, "velocity": 67}, {"time": 24242, "pitch": 46, "duration": 61, "velocity": 107}, {"time": 24242, "pitch": 82, "duration": 61, "velocity": 75}, {"time": 24363, "pitch": 38, "duration": 60, "velocity": 107}, {"time": 24363, "pitch": 82, "duration": 60, "velocity": 75}, {"time": 24482, "pitch": 35, "duration": 60, "velocity": 107}, {"time": 24483, "pitch": 42, "duration": 60, "velocity": 67}, {"time": 24604, "pitch": 42, "duration": 60, "velocity": 67}, {"time": 24724, "pitch": 38, "duration": 60, "velocity": 107}, {"time": 24724, "pitch": 46, "duration": 60, "velocity": 107}, {"time": 24724, "pitch": 70, "duration": 60, "velocity": 75}, {"time": 24844, "pitch": 70, "duration": 61, "velocity": 75}, {"time": 24955, "pitch": 35, "duration": 59, "velocity": 107}, {"time": 24965, "pitch": 38, "duration": 59, "velocity": 107}, {"time": 24965, "pitch": 42, "duration": 59, "velocity": 67}, {"time": 24965, "pitch": 82, "duration": 59, "velocity": 75}, {"time": 25083, "pitch": 38, "duration": 58, "velocity": 107}, {"time": 25083, "pitch": 42, "duration": 58, "velocity": 67}, {"time": 25083, "pitch": 82, "duration": 58, "velocity": 75}, {"time": 25200, "pitch": 46, "duration": 59, "velocity": 107}, {"time": 25318, "pitch": 38, "duration": 59, "velocity": 107}, {"time": 25318, "pitch": 82, "duration": 59, "velocity": 75}, {"time": 25436, "pitch": 35, "duration": 60, "velocity": 107}, {"time": 25436, "pitch": 42, "duration": 60, "velocity": 67}, {"time": 25436, "pitch": 49, "duration": 60, "velocity": 107}, {"time": 25556, "pitch": 42, "duration": 61, "velocity": 67}, {"time": 25677, "pitch": 46, "duration": 60, "velocity": 107}, {"time": 25677, "pitch": 70, "duration": 60, "velocity": 75}, {"time": 25797, "pitch": 70, "duration": 60, "velocity": 75}, {"time": 25918, "pitch": 38, "duration": 60, "velocity": 107}, {"time": 25918, "pitch": 42, "duration": 60, "velocity": 67}, {"time": 25922, "pitch": 35, "duration": 60, "velocity": 107}, {"time": 26038, "pitch": 42, "duration": 60, "velocity": 67}, {"time": 26158, "pitch": 46, "duration": 61, "velocity": 107}, {"time": 26158, "pitch": 82, "duration": 61, "velocity": 75}, {"time": 26279, "pitch": 38, "duration": 60, "velocity": 107}, {"time": 26279, "pitch": 82, "duration": 60, "velocity": 75}, {"time": 26398, "pitch": 35, "duration": 60, "velocity": 107}, {"time": 26399, "pitch": 42, "duration": 60, "velocity": 67}, {"time": 26520, "pitch": 42, "duration": 60, "velocity": 67}, {"time": 26640, "pitch": 46, "duration": 60, "velocity": 107}, {"time": 26640, "pitch": 70, "duration": 60, "velocity": 75}, {"time": 26760, "pitch": 70, "duration": 61, "velocity": 75}, {"time": 26871, "pitch": 35, "duration": 60, "velocity": 107}, {"time": 26881, "pitch": 38, "duration": 60, "velocity": 107}, {"time": 26881, "pitch": 42, "duration": 60, "velocity": 67}, {"time": 27001, "pitch": 42, "duration": 60, "velocity": 67}, {"time": 27122, "pitch": 46, "duration": 60, "velocity": 107}, {"time": 27122, "pitch": 82, "duration": 60, "velocity": 75}, {"time": 27242, "pitch": 38, "duration": 60, "velocity": 107}, {"time": 27362, "pitch": 35, "duration": 61, "velocity": 107}, {"time": 27362, "pitch": 42, "duration": 61, "velocity": 67}, {"time": 27483, "pitch": 42, "duration": 60, "velocity": 67}, {"time": 27603, "pitch": 46, "duration": 60, "velocity": 107}, {"time": 27603, "pitch": 70, "duration": 60, "velocity": 75}, {"time": 27724, "pitch": 70, "duration": 60, "velocity": 75}, {"time": 27844, "pitch": 38, "duration": 59, "velocity": 107}, {"time": 27844, "pitch": 42, "duration": 59, "velocity": 67}, {"time": 27848, "pitch": 35, "duration": 59, "velocity": 107}, {"time": 27962, "pitch": 42, "duration": 59, "velocity": 67}, {"time": 28080, "pitch": 46, "duration": 58, "velocity": 107}, {"time": 28080, "pitch": 82, "duration": 58, "velocity": 75}, {"time": 28197, "pitch": 38, "duration": 59, "velocity": 107}, {"time": 28197, "pitch": 82, "duration": 59, "velocity": 75}, {"time": 28314, "pitch": 35, "duration": 60, "velocity": 107}, {"time": 28315, "pitch": 42, "duration": 60, "velocity": 67}, {"time": 28436, "pitch": 42, "duration": 60, "velocity": 67}, {"time": 28556, "pitch": 46, "duration": 60, "velocity": 107}, {"time": 28556, "pitch": 70, "duration": 60, "velocity": 75}, {"time": 28676, "pitch": 70, "duration": 61, "velocity": 75}, {"time": 28787, "pitch": 35, "duration": 60, "velocity": 107}, {"time": 28797, "pitch": 38, "duration": 60, "velocity": 107}, {"time": 28797, "pitch": 42, "duration": 60, "velocity": 67}, {"time": 28917, "pitch": 42, "duration": 60, "velocity": 67}, {"time": 29038, "pitch": 46, "duration": 60, "velocity": 107}, {"time": 29038, "pitch": 82, "duration": 60, "velocity": 75}, {"time": 29158, "pitch": 38, "duration": 60, "velocity": 107}, {"time": 29278, "pitch": 35, "duration": 61, "velocity": 107}, {"time": 29278, "pitch": 42, "duration": 61, "velocity": 67}, {"time": 29399, "pitch": 42, "duration": 60, "velocity": 67}, {"time": 29519, "pitch": 46, "duration": 60, "velocity": 107}, {"time": 29519, "pitch": 70, "duration": 60, "velocity": 75}, {"time": 29640, "pitch": 70, "duration": 60, "velocity": 75}, {"time": 29760, "pitch": 38, "duration": 60, "velocity": 107}, {"time": 29760, "pitch": 42, "duration": 60, "velocity": 67}, {"time": 29764, "pitch": 35, "duration": 60, "velocity": 107}, {"time": 29880, "pitch": 42, "duration": 61, "velocity": 67}, {"time": 30001, "pitch": 46, "duration": 60, "velocity": 107}, {"time": 30001, "pitch": 82, "duration": 60, "velocity": 75}, {"time": 30121, "pitch": 38, "duration": 60, "velocity": 107}, {"time": 30121, "pitch": 82, "duration": 60, "velocity": 75}, {"time": 30241, "pitch": 35, "duration": 60, "velocity": 107}, {"time": 30242, "pitch": 42, "duration": 60, "velocity": 67}, {"time": 30362, "pitch": 42, "duration": 60, "velocity": 67}, {"time": 30482, "pitch": 46, "duration": 61, "velocity": 107}, {"time": 30482, "pitch": 70, "duration": 61, "velocity": 75}, {"time": 30603, "pitch": 70, "duration": 60, "velocity": 75}, {"time": 30713, "pitch": 35, "duration": 60, "velocity": 107}, {"time": 30723, "pitch": 38, "duration": 60, "velocity": 107}, {"time": 30723, "pitch": 42, "duration": 60, "velocity": 67}, {"time": 30844, "pitch": 42, "duration": 60, "velocity": 67}, {"time": 30964, "pitch": 46, "duration": 60, "velocity": 107}, {"time": 30964, "pitch": 82, "duration": 60, "velocity": 75}, {"time": 31084, "pitch": 38, "duration": 61, "velocity": 107}, {"time": 31205, "pitch": 35, "duration": 59, "velocity": 107}, {"time": 31205, "pitch": 42, "duration": 59, "velocity": 67}, {"time": 31323, "pitch": 42, "duration": 58, "velocity": 67}, {"time": 31440, "pitch": 46, "duration": 59, "velocity": 107}, {"time": 31440, "pitch": 70, "duration": 59, "velocity": 75}, {"time": 31558, "pitch": 70, "duration": 59, "velocity": 75}, {"time": 31676, "pitch": 38, "duration": 60, "velocity": 107}, {"time": 31676, "pitch": 42, "duration": 60, "velocity": 67}, {"time": 31680, "pitch": 35, "duration": 60, "velocity": 107}, {"time": 31796, "pitch": 42, "duration": 61, "velocity": 67}, {"time": 31917, "pitch": 46, "duration": 60, "velocity": 107}, {"time": 31917, "pitch": 82, "duration": 60, "velocity": 75}, {"time": 32037, "pitch": 38, "duration": 60, "velocity": 107}, {"time": 32037, "pitch": 82, "duration": 60, "velocity": 75}, {"time": 32157, "pitch": 35, "duration": 60, "velocity": 107}, {"time": 32158, "pitch": 40, "duration": 60, "velocity": 59}, {"time": 32158, "pitch": 42, "duration": 60, "velocity": 67}, {"time": 32278, "pitch": 40, "duration": 60, "velocity": 68}, {"time": 32278, "pitch": 42, "duration": 60, "velocity": 67}, {"time": 32398, "pitch": 38, "duration": 61, "velocity": 107}, {"time": 32398, "pitch": 40, "duration": 61, "velocity": 78}, {"time": 32398, "pitch": 46, "duration": 61, "velocity": 107}, {"time": 32398, "pitch": 70, "duration": 61, "velocity": 75}, {"time": 32519, "pitch": 40, "duration": 60, "velocity": 87}, {"time": 32519, "pitch": 70, "duration": 60, "velocity": 75}, {"time": 32629, "pitch": 35, "duration": 60, "velocity": 107}, {"time": 32639, "pitch": 38, "duration": 60, "velocity": 107}, {"time": 32639, "pitch": 40, "duration": 60, "velocity": 97}, {"time": 32639, "pitch": 42, "duration": 60, "velocity": 67}, {"time": 32639, "pitch": 82, "duration": 60, "velocity": 75}, {"time": 32760, "pitch": 38, "duration": 60, "velocity": 107}, {"time": 32760, "pitch": 40, "duration": 60, "velocity": 106}, {"time": 32760, "pitch": 42, "duration": 60, "velocity": 67}, {"time": 32760, "pitch": 82, "duration": 60, "velocity": 75}, {"time": 32880, "pitch": 40, "duration": 60, "velocity": 116}, {"time": 32880, "pitch": 46, "duration": 60, "velocity": 107}, {"time": 33000, "pitch": 38, "duration": 61, "velocity": 107}, {"time": 33000, "pitch": 40, "duration": 61, "velocity": 127}, {"time": 33000, "pitch": 82, "duration": 61, "velocity": 75}, {"time": 33121, "pitch": 35, "duration": 60, "velocity": 107}, {"time": 33121, "pitch": 42, "duration": 60, "velocity": 67}, {"time": 33121, "pitch": 49, "duration": 60, "velocity": 107}, {"time": 33241, "pitch": 42, "duration": 60, "velocity": 67}, {"time": 33362, "pitch": 46, "duration": 60, "velocity": 107}, {"time": 33362, "pitch": 70, "duration": 60, "velocity": 75}, {"time": 33482, "pitch": 70, "duration": 60, "velocity": 75}, {"time": 33602, "pitch": 38, "duration": 61, "velocity": 107}, {"time": 33602, "pitch": 42, "duration": 61, "velocity": 67}, {"time": 33606, "pitch": 35, "duration": 61, "velocity": 107}, {"time": 33723, "pitch": 42, "duration": 60, "velocity": 67}, {"time": 33843, "pitch": 46, "duration": 60, "velocity": 107}, {"time": 33843, "pitch": 82, "duration": 60, "velocity": 75}, {"time": 33964, "pitch": 38, "duration": 60, "velocity": 107}, {"time": 33964, "pitch": 82, "duration": 60, "velocity": 75}, {"time": 34083, "pitch": 35, "duration": 59, "velocity": 107}, {"time": 34084, "pitch": 42, "duration": 59, "velocity": 67}, {"time": 34202, "pitch": 42, "duration": 59, "velocity": 67}, {"time": 34320, "pitch": 46, "duration": 58, "velocity": 107}, {"time": 34320, "pitch": 70, "duration": 58, "velocity": 75}, {"time": 34437, "pitch": 70, "duration": 59, "velocity": 75}, {"time": 34545, "pitch": 35, "duration": 60, "velocity": 107}, {"time": 34555, "pitch": 38, "duration": 60, "velocity": 107}, {"time": 34555, "pitch": 42, "duration": 60, "velocity": 67}, {"time": 34676, "pitch": 42, "duration": 60, "velocity": 67}, {"time": 34796, "pitch": 46, "duration": 60, "velocity": 107}, {"time": 34796, "pitch": 82, "duration": 60, "velocity": 75}, {"time": 34916, "pitch": 38, "duration": 61, "velocity": 107}, {"time": 35037, "pitch": 35, "duration": 60, "velocity": 107}, {"time": 35037, "pitch": 42, "duration": 60, "velocity": 67}, {"time": 35157, "pitch": 42, "duration": 60, "velocity": 67}, {"time": 35278, "pitch": 46, "duration": 60, "velocity": 107}, {"time": 35278, "pitch": 70, "duration": 60, "velocity": 75}, {"time": 35398, "pitch": 70, "duration": 60, "velocity": 75}, {"time": 35518, "pitch": 38, "duration": 61, "velocity": 107}, {"time": 35518, "pitch": 42, "duration": 61, "velocity": 67}, {"time": 35522, "pitch": 35, "duration": 61, "velocity": 107}, {"time": 35639, "pitch": 42, "duration": 60, "velocity": 67}, {"time": 35759, "pitch": 46, "duration": 60, "velocity": 107}, {"time": 35759, "pitch": 82, "duration": 60, "velocity": 75}, {"time": 35880, "pitch": 38, "duration": 60, "velocity": 107}, {"time": 35880, "pitch": 82, "duration": 60, "velocity": 75}, {"time": 35999, "pitch": 35, "duration": 60, "velocity": 107}, {"time": 36000, "pitch": 42, "duration": 60, "velocity": 67}, {"time": 36120, "pitch": 42, "duration": 61, "velocity": 67}, {"time": 36241, "pitch": 46, "duration": 60, "velocity": 107}, {"time": 36241, "pitch": 70, "duration": 60, "velocity": 75}, {"time": 36361, "pitch": 70, "duration": 60, "velocity": 75}, {"time": 36472, "pitch": 35, "duration": 60, "velocity": 107}, {"time": 36482, "pitch": 38, "duration": 60, "velocity": 107}, {"time": 36482, "pitch": 42, "duration": 60, "velocity": 67}, {"time": 36602, "pitch": 42, "duration": 60, "velocity": 67}, {"time": 36722, "pitch": 46, "duration": 61, "velocity": 107}, {"time": 36722, "pitch": 82, "duration": 61, "velocity": 75}, {"time": 36843, "pitch": 38, "duration": 60, "velocity": 107}, {"time": 36963, "pitch": 35, "duration": 60, "velocity": 107}, {"time": 36963, "pitch": 42, "duration": 60, "velocity": 67}, {"time": 37084, "pitch": 42, "duration": 60, "velocity": 67}, {"time": 37204, "pitch": 46, "duration": 60, "velocity": 107}, {"time": 37204, "pitch": 70, "duration": 60, "velocity": 75}, {"time": 37324, "pitch": 70, "duration": 61, "velocity": 75}, {"time": 37445, "pitch": 38, "duration": 59, "velocity": 107}, {"time": 37445, "pitch": 42, "duration": 59, "velocity": 67}, {"time": 37449, "pitch": 35, "duration": 59, "velocity": 107}, {"time": 37563, "pitch": 42, "duration": 58, "velocity": 67}, {"time": 37680, "pitch": 46, "duration": 59, "velocity": 107}, {"time": 37680, "pitch": 82, "duration": 59, "velocity": 75}, {"time": 37798, "pitch": 38, "duration": 59, "velocity": 107}, {"time": 37798, "pitch": 82, "duration": 59, "velocity": 75}, {"time": 37915, "pitch": 35, "duration": 60, "velocity": 107}, {"time": 37916, "pitch": 42, "duration": 60, "velocity": 67}, {"time": 38036, "pitch": 42, "duration": 61, "velocity": 67}, {"time": 38157, "pitch": 46, "duration": 60, "velocity": 107}, {"time": 38157, "pitch": 70, "duration": 60, "velocity": 75}, {"time": 38277, "pitch": 70, "duration": 60, "velocity": 75}, {"time": 38388, "pitch": 35, "duration": 60, "velocity": 107}, {"time": 38398, "pitch": 38, "duration": 60, "velocity": 107}, {"time": 38398, "pitch": 42, "duration": 60, "velocity": 67}, {"time": 38518, "pitch": 42, "duration": 60, "velocity": 67}, {"time": 38638, "pitch": 46, "duration": 61, "velocity": 107}, {"time": 38638, "pitch": 82, "duration": 61, "velocity": 75}, {"time": 38759, "pitch": 38, "duration": 60, "velocity": 107}, {"time": 38879, "pitch": 35, "duration": 60, "velocity": 107}, {"time": 38879, "pitch": 42, "duration": 60, "velocity": 67}, {"time": 39000, "pitch": 42, "duration": 60, "velocity": 67}, {"time": 39120, "pitch": 46, "duration": 60, "velocity": 107}, {"time": 39120, "pitch": 70, "duration": 60, "velocity": 75}, {"time": 39240, "pitch": 70, "duration": 61, "velocity": 75}, {"time": 39361, "pitch": 38, "duration": 60, "velocity": 107}, {"time": 39361, "pitch": 42, "duration": 60, "velocity": 67}, {"time": 39365, "pitch": 35, "duration": 60, "velocity": 107}, {"time": 39481, "pitch": 42, "duration": 60, "velocity": 67}, {"time": 39602, "pitch": 46, "duration": 60, "velocity": 107}, {"time": 39602, "pitch": 82, "duration": 60, "velocity": 75}, {"time": 39722, "pitch": 38, "duration": 60, "velocity": 107}, {"time": 39722, "pitch": 82, "duration": 60, "velocity": 75}, {"time": 39841, "pitch": 35, "duration": 61, "velocity": 107}, {"time": 39842, "pitch": 42, "duration": 61, "velocity": 67}, {"time": 39963, "pitch": 42, "duration": 60, "velocity": 67}, {"time": 40083, "pitch": 38, "duration": 60, "velocity": 107}, {"time": 40083, "pitch": 46, "duration": 60, "velocity": 107}, {"time": 40083, "pitch": 70, "duration": 60, "velocity": 75}, {"time": 40204, "pitch": 70, "duration": 60, "velocity": 75}, {"time": 40314, "pitch": 35, "duration": 59, "velocity": 107}, {"time": 40324, "pitch": 38, "duration": 59, "velocity": 107}, {"time": 40324, "pitch": 42, "duration": 59, "velocity": 67}, {"time": 40324, "pitch": 82, "duration": 59, "velocity": 75}, {"time": 40442, "pitch": 38, "duration": 59, "velocity": 107}, {"time": 40442, "pitch": 42, "duration": 59, "velocity": 67}, {"time": 40442, "pitch": 82, "duration": 59, "velocity": 75}, {"time": 40560, "pitch": 46, "duration": 58, "velocity": 107}, {"time": 40677, "pitch": 38, "duration": 59, "velocity": 107}, {"time": 40677, "pitch": 82, "duration": 59, "velocity": 75}, {"time": 40795, "pitch": 35, "duration": 60, "velocity": 107}, {"time": 40795, "pitch": 42, "duration": 60, "velocity": 67}, {"time": 40795, "pitch": 49, "duration": 60, "velocity": 107}, {"time": 40916, "pitch": 42, "duration": 60, "velocity": 67}, {"time": 41036, "pitch": 46, "duration": 60, "velocity": 107}, {"time": 41036, "pitch": 70, "duration": 60, "velocity": 75}, {"time": 41156, "pitch": 70, "duration": 61, "velocity": 75}, {"time": 41277, "pitch": 38, "duration": 60, "velocity": 107}, {"time": 41277, "pitch": 42, "duration": 60, "velocity": 67}, {"time": 41281, "pitch": 35, "duration": 60, "velocity": 107}, {"time": 41397, "pitch": 42, "duration": 60, "velocity": 67}, {"time": 41518, "pitch": 46, "duration": 60, "velocity": 107}, {"time": 41518, "pitch": 82, "duration": 60, "velocity": 75}, {"time": 41638, "pitch": 38, "duration": 60, "velocity": 107}, {"time": 41638, "pitch": 82, "duration": 60, "velocity": 75}, {"time": 41757, "pitch": 35, "duration": 61, "velocity": 107}, {"time": 41758, "pitch": 42, "duration": 61, "velocity": 67}, {"time": 41879, "pitch": 42, "duration": 60, "velocity": 67}, {"time": 41999, "pitch": 46, "duration": 60, "velocity": 107}, {"time": 41999, "pitch": 70, "duration": 60, "velocity": 75}, {"time": 42120, "pitch": 70, "duration": 60, "velocity": 75}, {"time": 42230, "pitch": 35, "duration": 60, "velocity": 107}, {"time": 42240, "pitch": 38, "duration": 60, "velocity": 107}, {"time": 42240, "pitch": 42, "duration": 60, "velocity": 67}, {"time": 42360, "pitch": 42, "duration": 61, "velocity": 67}, {"time": 42481, "pitch": 46, "duration": 60, "velocity": 107}, {"time": 42481, "pitch": 82, "duration": 60, "velocity": 75}, {"time": 42601, "pitch": 38, "duration": 60, "velocity": 107}, {"time": 42722, "pitch": 35, "duration": 60, "velocity": 107}, {"time": 42722, "pitch": 42, "duration": 60, "velocity": 67}, {"time": 42842, "pitch": 42, "duration": 60, "velocity": 67}, {"time": 42962, "pitch": 46, "duration": 61, "velocity": 107}, {"time": 42962, "pitch": 70, "duration": 61, "velocity": 75}, {"time": 43083, "pitch": 70, "duration": 60, "velocity": 75}, {"time": 43203, "pitch": 38, "duration": 60, "velocity": 107}, {"time": 43203, "pitch": 42, "duration": 60, "velocity": 67}, {"time": 43207, "pitch": 35, "duration": 60, "velocity": 107}, {"time": 43324, "pitch": 42, "duration": 60, "velocity": 67}, {"time": 43444, "pitch": 46, "duration": 60, "velocity": 107}, {"time": 43444, "pitch": 82, "duration": 60, "velocity": 75}, {"time": 43564, "pitch": 38, "duration": 61, "velocity": 107}, {"time": 43564, "pitch": 82, "duration": 61, "velocity": 75}, {"time": 43684, "pitch": 35, "duration": 59, "velocity": 107}, {"time": 43685, "pitch": 42, "duration": 59, "velocity": 67}, {"time": 43803, "pitch": 42, "duration": 58, "velocity": 67}, {"time": 43920, "pitch": 46, "duration": 59, "velocity": 107}, {"time": 43920, "pitch": 70, "duration": 59, "velocity": 75}, {"time": 44038, "pitch": 70, "duration": 59, "velocity": 75}, {"time": 44146, "pitch": 35, "duration": 60, "velocity": 107}, {"time": 44156, "pitch": 38, "duration": 60, "velocity": 107}, {"time": 44156, "pitch": 42, "duration": 60, "velocity": 67}, {"time": 44276, "pitch": 42, "duration": 61, "velocity": 67}, {"time": 44397, "pitch": 46, "duration": 60, "velocity": 107}, {"time": 44397, "pitch": 82, "duration": 60, "velocity": 75}, {"time": 44517, "pitch": 38, "duration": 60, "velocity": 107}, {"time": 44638, "pitch": 35, "duration": 60, "velocity": 107}, {"time": 44638, "pitch": 42, "duration": 60, "velocity": 67}, {"time": 44758, "pitch": 42, "duration": 60, "velocity": 67}, {"time": 44878, "pitch": 46, "duration": 61, "velocity": 107}, {"time": 44878, "pitch": 70, "duration": 61, "velocity": 75}, {"time": 44999, "pitch": 70, "duration": 60, "velocity": 75}, {"time": 45119, "pitch": 38, "duration": 60, "velocity": 107}, {"time": 45119, "pitch": 42, "duration": 60, "velocity": 67}, {"time": 45123, "pitch": 35, "duration": 60, "velocity": 107}, {"time": 45240, "pitch": 42, "duration": 60, "velocity": 67}, {"time": 45360, "pitch": 46, "duration": 60, "velocity": 107}, {"time": 45360, "pitch": 82, "duration": 60, "velocity": 75}, {"time": 45480, "pitch": 38, "duration": 61, "velocity": 107}, {"time": 45480, "pitch": 82, "duration": 61, "velocity": 75}, {"time": 45600, "pitch": 35, "duration": 60, "velocity": 107}, {"time": 45601, "pitch": 42, "duration": 60, "velocity": 67}, {"time": 45721, "pitch": 42, "duration": 60, "velocity": 67}, {"time": 45842, "pitch": 46, "duration": 60, "velocity": 107}, {"time": 45842, "pitch": 70, "duration": 60, "velocity": 75}, {"time": 45962, "pitch": 70, "duration": 60, "velocity": 75}, {"time": 46072, "pitch": 35, "duration": 61, "velocity": 107}, {"time": 46082, "pitch": 38, "duration": 61, "velocity": 107}, {"time": 46082, "pitch": 42, "duration": 61, "velocity": 67}, {"time": 46203, "pitch": 42, "duration": 60, "velocity": 67}, {"time": 46323, "pitch": 46, "duration": 60, "velocity": 107}, {"time": 46323, "pitch": 82, "duration": 60, "velocity": 75}, {"time": 46444, "pitch": 38, "duration": 60, "velocity": 107}, {"time": 46564, "pitch": 35, "duration": 59, "velocity": 107}, {"time": 46564, "pitch": 42, "duration": 59, "velocity": 67}, {"time": 46682, "pitch": 42, "duration": 59, "velocity": 67}, {"time": 46800, "pitch": 46, "duration": 58, "velocity": 107}, {"time": 46800, "pitch": 70, "duration": 58, "velocity": 75}, {"time": 46917, "pitch": 70, "duration": 59, "velocity": 75}, {"time": 47035, "pitch": 38, "duration": 60, "velocity": 107}, {"time": 47035, "pitch": 42, "duration": 60, "velocity": 67}, {"time": 47039, "pitch": 35, "duration": 60, "velocity": 107}, {"time": 47156, "pitch": 42, "duration": 60, "velocity": 67}, {"time": 47276, "pitch": 46, "duration": 60, "velocity": 107}, {"time": 47276, "pitch": 82, "duration": 60, "velocity": 75}, {"time": 47396, "pitch": 38, "duration": 61, "velocity": 107}, {"time": 47396, "pitch": 82, "duration": 61, "velocity": 75}, {"time": 47516, "pitch": 35, "duration": 60, "velocity": 107}, {"time": 47517, "pitch": 40, "duration": 60, "velocity": 59}, {"time": 47517, "pitch": 42, "duration": 60, "velocity": 67}, {"time": 47597, "pitch": 40, "duration": 60, "velocity": 59}, {"time": 47637, "pitch": 42, "duration": 60, "velocity": 67}, {"time": 47677, "pitch": 40, "duration": 60, "velocity": 59}, {"time": 47758, "pitch": 38, "duration": 60, "velocity": 107}, {"time": 47758, "pitch": 40, "duration": 60, "velocity": 78}, {"time": 47758, "pitch": 46, "duration": 60, "velocity": 107}, {"time": 47758, "pitch": 70, "duration": 60, "velocity": 75}, {"time": 47878, "pitch": 40, "duration": 60, "velocity": 87}, {"time": 47878, "pitch": 70, "duration": 60, "velocity": 75}, {"time": 47988, "pitch": 35, "duration": 61, "velocity": 107}, {"time": 47998, "pitch": 38, "duration": 61, "velocity": 107}, {"time": 47998, "pitch": 40, "duration": 61, "velocity": 97}, {"time": 47998, "pitch": 42, "duration": 61, "velocity": 67}, {"time": 47998, "pitch": 82, "duration": 61, "velocity": 75}, {"time": 48119, "pitch": 38, "duration": 60, "velocity": 107}, {"time": 48119, "pitch": 40, "duration": 60, "velocity": 106}, {"time": 48119, "pitch": 42, "duration": 60, "velocity": 67}, {"time": 48119, "pitch": 82, "duration": 60, "velocity": 75}, {"time": 48239, "pitch": 40, "duration": 60, "velocity": 116}, {"time": 48239, "pitch": 46, "duration": 60, "velocity": 107}, {"time": 48360, "pitch": 38, "duration": 60, "velocity": 107}, {"time": 48360, "pitch": 40, "duration": 60, "velocity": 127}, {"time": 48360, "pitch": 82, "duration": 60, "velocity": 75}, {"time": 48480, "pitch": 35, "duration": 60, "velocity": 107}, {"time": 48480, "pitch": 42, "duration": 60, "velocity": 67}, {"time": 48480, "pitch": 49, "duration": 60, "velocity": 107}, {"time": 48600, "pitch": 42, "duration": 61, "velocity": 67}, {"time": 48721, "pitch": 46, "duration": 60, "velocity": 107}, {"time": 48721, "pitch": 70, "duration": 60, "velocity": 75}, {"time": 48841, "pitch": 70, "duration": 60, "velocity": 75}, {"time": 48962, "pitch": 38, "duration": 60, "velocity": 107}, {"time": 48962, "pitch": 42, "duration": 60, "velocity": 67}, {"time": 48966, "pitch": 35, "duration": 60, "velocity": 107}, {"time": 49082, "pitch": 42, "duration": 60, "velocity": 67}, {"time": 49202, "pitch": 46, "duration": 61, "velocity": 107}, {"time": 49202, "pitch": 82, "duration": 61, "velocity": 75}, {"time": 49323, "pitch": 38, "duration": 60, "velocity": 107}, {"time": 49323, "pitch": 82, "duration": 60, "velocity": 75}, {"time": 49442, "pitch": 35, "duration": 60, "velocity": 107}, {"time": 49443, "pitch": 42, "duration": 60, "velocity": 67}, {"time": 49564, "pitch": 42, "duration": 60, "velocity": 67}, {"time": 49684, "pitch": 46, "duration": 60, "velocity": 107}, {"time": 49684, "pitch": 70, "duration": 60, "velocity": 75}, {"time": 49804, "pitch": 70, "duration": 61, "velocity": 75}, {"time": 49915, "pitch": 35, "duration": 59, "velocity": 107}, {"time": 49925, "pitch": 38, "duration": 59, "velocity": 107}, {"time": 49925, "pitch": 42, "duration": 59, "velocity": 67}, {"time": 50043, "pitch": 42, "duration": 58, "velocity": 67}, {"time": 50160, "pitch": 46, "duration": 59, "velocity": 107}, {"time": 50160, "pitch": 82, "duration": 59, "velocity": 75}, {"time": 50278, "pitch": 38, "duration": 59, "velocity": 107}, {"time": 50396, "pitch": 35, "duration": 60, "velocity": 107}, {"time": 50396, "pitch": 42, "duration": 60, "velocity": 67}, {"time": 50516, "pitch": 42, "duration": 61, "velocity": 67}, {"time": 50637, "pitch": 46, "duration": 60, "velocity": 107}, {"time": 50637, "pitch": 70, "duration": 60, "velocity": 75}, {"time": 50757, "pitch": 70, "duration": 60, "velocity": 75}, {"time": 50878, "pitch": 38, "duration": 60, "velocity": 107}, {"time": 50878, "pitch": 42, "duration": 60, "velocity": 67}, {"time": 50882, "pitch": 35, "duration": 60, "velocity": 107}, {"time": 50998, "pitch": 42, "duration": 60, "velocity": 67}, {"time": 51118, "pitch": 46, "duration": 61, "velocity": 107}, {"time": 51118, "pitch": 82, "duration": 61, "velocity": 75}, {"time": 51239, "pitch": 38, "duration": 60, "velocity": 107}, {"time": 51239, "pitch": 82, "duration": 60, "velocity": 75}, {"time": 51358, "pitch": 35, "duration": 60, "velocity": 107}, {"time": 51359, "pitch": 42, "duration": 60, "velocity": 67}, {"time": 51480, "pitch": 42, "duration": 60, "velocity": 67}, {"time": 51600, "pitch": 46, "duration": 60, "velocity": 107}, {"time": 51600, "pitch": 70, "duration": 60, "velocity": 75}, {"time": 51720, "pitch": 70, "duration": 61, "velocity": 75}, {"time": 51831, "pitch": 35, "duration": 60, "velocity": 107}, {"time": 51841, "pitch": 38, "duration": 60, "velocity": 107}, {"time": 51841, "pitch": 42, "duration": 60, "velocity": 67}, {"time": 51961, "pitch": 42, "duration": 60, "velocity": 67}, {"time": 52082, "pitch": 46, "duration": 60, "velocity": 107}, {"time": 52082, "pitch": 82, "duration": 60, "velocity": 75}, {"time": 52202, "pitch": 38, "duration": 60, "velocity": 107}, {"time": 52322, "pitch": 35, "duration": 61, "velocity": 107}, {"time": 52322, "pitch": 42, "duration": 61, "velocity": 67}, {"time": 52443, "pitch": 42, "duration": 60, "velocity": 67}, {"time": 52563, "pitch": 46, "duration": 60, "velocity": 107}, {"time": 52563, "pitch": 70, "duration": 60, "velocity": 75}, {"time": 52684, "pitch": 70, "duration": 60, "velocity": 75}, {"time": 52804, "pitch": 38, "duration": 59, "velocity": 107}, {"time": 52804, "pitch": 42, "duration": 59, "velocity": 67}, {"time": 52808, "pitch": 35, "duration": 59, "velocity": 107}, {"time": 52922, "pitch": 42, "duration": 59, "velocity": 67}, {"time": 53040, "pitch": 46, "duration": 58, "velocity": 107}, {"time": 53040, "pitch": 82, "duration": 58, "velocity": 75}, {"time": 53157, "pitch": 38, "duration": 59, "velocity": 107}, {"time": 53157, "pitch": 82, "duration": 59, "velocity": 75}, {"time": 53274, "pitch": 35, "duration": 60, "velocity": 107}, {"time": 53275, "pitch": 42, "duration": 60, "velocity": 67}, {"time": 53396, "pitch": 42, "duration": 60, "velocity": 67}, {"time": 53516, "pitch": 46, "duration": 60, "velocity": 107}, {"time": 53516, "pitch": 70, "duration": 60, "velocity": 75}, {"time": 53636, "pitch": 70, "duration": 61, "velocity": 75}, {"time": 53747, "pitch": 35, "duration": 60, "velocity": 107}, {"time": 53757, "pitch": 38, "duration": 60, "velocity": 107}, {"time": 53757, "pitch": 42, "duration": 60, "velocity": 67}, {"time": 53877, "pitch": 42, "duration": 60, "velocity": 67}, {"time": 53998, "pitch": 46, "duration": 60, "velocity": 107}, {"time": 53998, "pitch": 82, "duration": 60, "velocity": 75}, {"time": 54118, "pitch": 38, "duration": 60, "velocity": 107}, {"time": 54238, "pitch": 35, "duration": 61, "velocity": 107}, {"time": 54238, "pitch": 42, "duration": 61, "velocity": 67}, {"time": 54359, "pitch": 42, "duration": 60, "velocity": 67}, {"time": 54479, "pitch": 46, "duration": 60, "velocity": 107}, {"time": 54479, "pitch": 70, "duration": 60, "velocity": 75}, {"time": 54600, "pitch": 70, "duration": 60, "velocity": 75}, {"time": 54720, "pitch": 38, "duration": 60, "velocity": 107}, {"time": 54720, "pitch": 42, "duration": 60, "velocity": 67}, {"time": 54724, "pitch": 35, "duration": 60, "velocity": 107}, {"time": 54840, "pitch": 42, "duration": 61, "velocity": 67}, {"time": 54961, "pitch": 46, "duration": 60, "velocity": 107}, {"time": 54961, "pitch": 82, "duration": 60, "velocity": 75}, {"time": 55081, "pitch": 38, "duration": 60, "velocity": 107}, {"time": 55081, "pitch": 82, "duration": 60, "velocity": 75}, {"time": 55201, "pitch": 35, "duration": 60, "velocity": 107}, {"time": 55202, "pitch": 42, "duration": 60, "velocity": 67}, {"time": 55322, "pitch": 42, "duration": 60, "velocity": 67}, {"time": 55442, "pitch": 38, "duration": 61, "velocity": 107}, {"time": 55442, "pitch": 46, "duration": 61, "velocity": 107}, {"time": 55442, "pitch": 70, "duration": 61, "velocity": 75}, {"time": 55563, "pitch": 70, "duration": 60, "velocity": 75}, {"time": 55673, "pitch": 35, "duration": 60, "velocity": 107}, {"time": 55683, "pitch": 38, "duration": 60, "velocity": 107}, {"time": 55683, "pitch": 42, "duration": 60, "velocity": 67}, {"time": 55683, "pitch": 82, "duration": 60, "velocity": 75}, {"time": 55804, "pitch": 38, "duration": 60, "velocity": 107}, {"time": 55804, "pitch": 42, "duration": 60, "velocity": 67}, {"time": 55804, "pitch": 82, "duration": 60, "velocity": 75}, {"time": 55924, "pitch": 46, "duration": 60, "velocity": 107}, {"time": 56044, "pitch": 38, "duration": 61, "velocity": 107}, {"time": 56044, "pitch": 82, "duration": 61, "velocity": 75}, {"time": 56165, "pitch": 35, "duration": 59, "velocity": 107}, {"time": 56165, "pitch": 42, "duration": 59, "velocity": 67}, {"time": 56165, "pitch": 49, "duration": 59, "velocity": 107}, {"time": 56282, "pitch": 42, "duration": 59, "velocity": 67}, {"time": 56400, "pitch": 46, "duration": 59, "velocity": 107}, {"time": 56400, "pitch": 70, "duration": 59, "velocity": 75}, {"time": 56518, "pitch": 70, "duration": 59, "velocity": 75}, {"time": 56636, "pitch": 38, "duration": 60, "velocity": 107}, {"time": 56636, "pitch": 42, "duration": 60, "velocity": 67}, {"time": 56640, "pitch": 35, "duration": 60, "velocity": 107}, {"time": 56756, "pitch": 42, "duration": 61, "velocity": 67}, {"time": 56877, "pitch": 46, "duration": 60, "velocity": 107}, {"time": 56877, "pitch": 82, "duration": 60, "velocity": 75}, {"time": 56997, "pitch": 38, "duration": 60, "velocity": 107}, {"time": 56997, "pitch": 82, "duration": 60, "velocity": 75}, {"time": 57117, "pitch": 35, "duration": 60, "velocity": 107}, {"time": 57118, "pitch": 42, "duration": 60, "velocity": 67}, {"time": 57238, "pitch": 42, "duration": 60, "velocity": 67}, {"time": 57358, "pitch": 46, "duration": 61, "velocity": 107}, {"time": 57358, "pitch": 70, "duration": 61, "velocity": 75}, {"time": 57479, "pitch": 70, "duration": 60, "velocity": 75}, {"time": 57589, "pitch": 35, "duration": 60, "velocity": 107}, {"time": 57599, "pitch": 38, "duration": 60, "velocity": 107}, {"time": 57599, "pitch": 42, "duration": 60, "velocity": 67}, {"time": 57720, "pitch": 42, "duration": 60, "velocity": 67}, {"time": 57840, "pitch": 46, "duration": 60, "velocity": 107}, {"time": 57840, "pitch": 82, "duration": 60, "velocity": 75}, {"time": 57960, "pitch": 38, "duration": 61, "velocity": 107}, {"time": 58081, "pitch": 35, "duration": 60, "velocity": 107}, {"time": 58081, "pitch": 42, "duration": 60, "velocity": 67}, {"time": 58201, "pitch": 42, "duration": 60, "velocity": 67}, {"time": 58322, "pitch": 46, "duration": 60, "velocity": 107}, {"time": 58322, "pitch": 70, "duration": 60, "velocity": 75}, {"time": 58442, "pitch": 70, "duration": 60, "velocity": 75}, {"time": 58562, "pitch": 38, "duration": 61, "velocity": 107}, {"time": 58562, "pitch": 42, "duration": 61, "velocity": 67}, {"time": 58566, "pitch": 35, "duration": 61, "velocity": 107}, {"time": 58683, "pitch": 42, "duration": 60, "velocity": 67}, {"time": 58803, "pitch": 46, "duration": 60, "velocity": 107}, {"time": 58803, "pitch": 82, "duration": 60, "velocity": 75}, {"time": 58924, "pitch": 38, "duration": 60, "velocity": 107}, {"time": 58924, "pitch": 82, "duration": 60, "velocity": 75}, {"time": 59043, "pitch": 35, "duration": 59, "velocity": 107}, {"time": 59044, "pitch": 42, "duration": 59, "velocity": 67}, {"time": 59162, "pitch": 42, "duration": 59, "velocity": 67}, {"time": 59280, "pitch": 46, "duration": 58, "velocity": 107}, {"time": 59280, "pitch": 70, "duration": 58, "velocity": 75}, {"time": 59397, "pitch": 70, "duration": 59, "velocity": 75}, {"time": 59505, "pitch": 35, "duration": 60, "velocity": 107}, {"time": 59515, "pitch": 38, "duration": 60, "velocity": 107}, {"time": 59515, "pitch": 42, "duration": 60, "velocity": 67}, {"time": 59636, "pitch": 42, "duration": 60, "velocity": 67}, {"time": 59756, "pitch": 46, "duration": 60, "velocity": 107}, {"time": 59756, "pitch": 82, "duration": 60, "velocity": 75}, {"time": 59876, "pitch": 38, "duration": 61, "velocity": 107}, {"time": 59997, "pitch": 35, "duration": 60, "velocity": 107}, {"time": 59997, "pitch": 42, "duration": 60, "velocity": 67}, {"time": 60117, "pitch": 42, "duration": 60, "velocity": 67}, {"time": 60238, "pitch": 46, "duration": 60, "velocity": 107}, {"time": 60238, "pitch": 70, "duration": 60, "velocity": 75}, {"time": 60358, "pitch": 70, "duration": 60, "velocity": 75}, {"time": 60478, "pitch": 38, "duration": 61, "velocity": 107}, {"time": 60478, "pitch": 42, "duration": 61, "velocity": 67}, {"time": 60482, "pitch": 35, "duration": 61, "velocity": 107}, {"time": 60599, "pitch": 42, "duration": 60, "velocity": 67}, {"time": 60719, "pitch": 46, "duration": 60, "velocity": 107}, {"time": 60719, "pitch": 82, "duration": 60, "velocity": 75}, {"time": 60840, "pitch": 38, "duration": 60, "velocity": 107}, {"time": 60840, "pitch": 82, "duration": 60, "velocity": 75}, {"time": 60959, "pitch": 35, "duration": 60, "velocity": 107}, {"time": 60960, "pitch": 42, "duration": 60, "velocity": 67}, {"time": 61080, "pitch": 42, "duration": 61, "velocity": 67}, {"time": 61201, "pitch": 46, "duration": 60, "velocity": 107}, {"time": 61201, "pitch": 70, "duration": 60, "velocity": 75}, {"time": 61321, "pitch": 70, "duration": 60, "velocity": 75}, {"time": 61432, "pitch": 35, "duration": 60, "velocity": 107}, {"time": 61442, "pitch": 38, "duration": 60, "velocity": 107}, {"time": 61442, "pitch": 42, "duration": 60, "velocity": 67}, {"time": 61562, "pitch": 42, "duration": 60, "velocity": 67}, {"time": 61682, "pitch": 46, "duration": 61, "velocity": 107}, {"time": 61682, "pitch": 82, "duration": 61, "velocity": 75}, {"time": 61803, "pitch": 38, "duration": 60, "velocity": 107}, {"time": 61923, "pitch": 35, "duration": 60, "velocity": 107}, {"time": 61923, "pitch": 42, "duration": 60, "velocity": 67}, {"time": 62044, "pitch": 42, "duration": 60, "velocity": 67}, {"time": 62164, "pitch": 46, "duration": 60, "velocity": 107}, {"time": 62164, "pitch": 70, "duration": 60, "velocity": 75}, {"time": 62284, "pitch": 70, "duration": 61, "velocity": 75}, {"time": 62405, "pitch": 38, "duration": 59, "velocity": 107}, {"time": 62405, "pitch": 42, "duration": 59, "velocity": 67}, {"time": 62409, "pitch": 35, "duration": 58, "velocity": 107}, {"time": 62522, "pitch": 42, "duration": 59, "velocity": 67}, {"time": 62640, "pitch": 46, "duration": 59, "velocity": 107}, {"time": 62640, "pitch": 82, "duration": 59, "velocity": 75}, {"time": 62758, "pitch": 38, "duration": 59, "velocity": 107}, {"time": 62758, "pitch": 82, "duration": 59, "velocity": 75}, {"time": 62875, "pitch": 35, "duration": 60, "velocity": 107}, {"time": 62876, "pitch": 42, "duration": 60, "velocity": 67}, {"time": 62996, "pitch": 42, "duration": 61, "velocity": 67}, {"time": 63117, "pitch": 38, "duration": 60, "velocity": 107}, {"time": 63117, "pitch": 46, "duration": 60, "velocity": 107}, {"time": 63117, "pitch": 70, "duration": 60, "velocity": 75}, {"time": 63237, "pitch": 70, "duration": 60, "velocity": 75}, {"time": 63347, "pitch": 35, "duration": 61, "velocity": 107}, {"time": 63358, "pitch": 38, "duration": 60, "velocity": 107}, {"time": 63358, "pitch": 42, "duration": 60, "velocity": 67}, {"time": 63358, "pitch": 82, "duration": 60, "velocity": 75}, {"time": 63478, "pitch": 38, "duration": 60, "velocity": 107}, {"time": 63478, "pitch": 42, "duration": 60, "velocity": 67}, {"time": 63478, "pitch": 82, "duration": 60, "velocity": 75}, {"time": 63598, "pitch": 46, "duration": 61, "velocity": 107}, {"time": 63719, "pitch": 38, "duration": 60, "velocity": 107}, {"time": 63719, "pitch": 82, "duration": 60, "velocity": 75}, {"time": 63839, "pitch": 35, "duration": 60, "velocity": 107}, {"time": 63839, "pitch": 42, "duration": 60, "velocity": 67}, {"time": 63839, "pitch": 49, "duration": 60, "velocity": 107}, {"time": 63960, "pitch": 42, "duration": 60, "velocity": 67}, {"time": 64080, "pitch": 46, "duration": 60, "velocity": 107}, {"time": 64080, "pitch": 70, "duration": 60, "velocity": 75}, {"time": 64200, "pitch": 70, "duration": 61, "velocity": 75}, {"time": 64321, "pitch": 38, "duration": 60, "velocity": 107}, {"time": 64321, "pitch": 42, "duration": 60, "velocity": 67}, {"time": 64325, "pitch": 35, "duration": 60, "velocity": 107}, {"time": 64441, "pitch": 42, "duration": 60, "velocity": 67}, {"time": 64562, "pitch": 46, "duration": 60, "velocity": 107}, {"time": 64562, "pitch": 82, "duration": 60, "velocity": 75}, {"time": 64682, "pitch": 38, "duration": 60, "velocity": 107}, {"time": 64682, "pitch": 82, "duration": 60, "velocity": 75}, {"time": 64801, "pitch": 35, "duration": 61, "velocity": 107}, {"time": 64802, "pitch": 42, "duration": 61, "velocity": 67}, {"time": 64923, "pitch": 42, "duration": 60, "velocity": 67}, {"time": 65043, "pitch": 46, "duration": 60, "velocity": 107}, {"time": 65043, "pitch": 70, "duration": 60, "velocity": 75}, {"time": 65164, "pitch": 70, "duration": 60, "velocity": 75}, {"time": 65274, "pitch": 35, "duration": 59, "velocity": 107}, {"time": 65284, "pitch": 38, "duration": 59, "velocity": 107}, {"time": 65284, "pitch": 42, "duration": 59, "velocity": 67}, {"time": 65402, "pitch": 42, "duration": 59, "velocity": 67}, {"time": 65520, "pitch": 46, "duration": 58, "velocity": 107}, {"time": 65520, "pitch": 82, "duration": 58, "velocity": 75}, {"time": 65637, "pitch": 38, "duration": 59, "velocity": 107}, {"time": 65755, "pitch": 35, "duration": 60, "velocity": 107}, {"time": 65755, "pitch": 42, "duration": 60, "velocity": 67}, {"time": 65876, "pitch": 42, "duration": 60, "velocity": 67}, {"time": 65996, "pitch": 46, "duration": 60, "velocity": 107}, {"time": 65996, "pitch": 70, "duration": 60, "velocity": 75}, {"time": 66116, "pitch": 70, "duration": 61, "velocity": 75}, {"time": 66237, "pitch": 38, "duration": 60, "velocity": 107}, {"time": 66237, "pitch": 42, "duration": 60, "velocity": 67}, {"time": 66241, "pitch": 35, "duration": 60, "velocity": 107}, {"time": 66357, "pitch": 42, "duration": 60, "velocity": 67}, {"time": 66478, "pitch": 46, "duration": 60, "velocity": 107}, {"time": 66478, "pitch": 82, "duration": 60, "velocity": 75}, {"time": 66598, "pitch": 38, "duration": 60, "velocity": 107}, {"time": 66598, "pitch": 82, "duration": 60, "velocity": 75}, {"time": 66717, "pitch": 35, "duration": 61, "velocity": 107}, {"time": 66718, "pitch": 42, "duration": 61, "velocity": 67}, {"time": 66839, "pitch": 42, "duration": 60, "velocity": 67}, {"time": 66959, "pitch": 46, "duration": 60, "velocity": 107}, {"time": 66959, "pitch": 70, "duration": 60, "velocity": 75}, {"time": 67080, "pitch": 70, "duration": 60, "velocity": 75}, {"time": 67190, "pitch": 35, "duration": 60, "velocity": 107}, {"time": 67200, "pitch": 38, "duration": 60, "velocity": 107}, {"time": 67200, "pitch": 42, "duration": 60, "velocity": 67}, {"time": 67320, "pitch": 42, "duration": 61, "velocity": 67}, {"time": 67441, "pitch": 46, "duration": 60, "velocity": 107}, {"time": 67441, "pitch": 82, "duration": 60, "velocity": 75}, {"time": 67561, "pitch": 38, "duration": 60, "velocity": 107}, {"time": 67682, "pitch": 35, "duration": 60, "velocity": 107}, {"time": 67682, "pitch": 42, "duration": 60, "velocity": 67}, {"time": 67802, "pitch": 42, "duration": 60, "velocity": 67}, {"time": 67922, "pitch": 46, "duration": 61, "velocity": 107}, {"time": 67922, "pitch": 70, "duration": 61, "velocity": 75}, {"time": 68043, "pitch": 70, "duration": 60, "velocity": 75}, {"time": 68163, "pitch": 38, "duration": 60, "velocity": 107}, {"time": 68163, "pitch": 42, "duration": 60, "velocity": 67}, {"time": 68167, "pitch": 35, "duration": 60, "velocity": 107}, {"time": 68284, "pitch": 42, "duration": 60, "velocity": 67}, {"time": 68404, "pitch": 46, "duration": 60, "velocity": 107}, {"time": 68404, "pitch": 82, "duration": 60, "velocity": 75}, {"time": 68524, "pitch": 38, "duration": 61, "velocity": 107}, {"time": 68524, "pitch": 82, "duration": 61, "velocity": 75}, {"time": 68644, "pitch": 35, "duration": 59, "velocity": 107}, {"time": 68645, "pitch": 42, "duration": 59, "velocity": 67}, {"time": 68762, "pitch": 42, "duration": 59, "velocity": 67}, {"time": 68880, "pitch": 46, "duration": 59, "velocity": 107}, {"time": 68880, "pitch": 70, "duration": 59, "velocity": 75}, {"time": 68998, "pitch": 70, "duration": 59, "velocity": 75}, {"time": 69106, "pitch": 35, "duration": 60, "velocity": 107}, {"time": 69116, "pitch": 38, "duration": 60, "velocity": 107}, {"time": 69116, "pitch": 42, "duration": 60, "velocity": 67}, {"time": 69236, "pitch": 42, "duration": 61, "velocity": 67}, {"time": 69357, "pitch": 46, "duration": 60, "velocity": 107}, {"time": 69357, "pitch": 82, "duration": 60, "velocity": 75}, {"time": 69477, "pitch": 38, "duration": 60, "velocity": 107}, {"time": 69598, "pitch": 35, "duration": 60, "velocity": 107}, {"time": 69598, "pitch": 42, "duration": 60, "velocity": 67}, {"time": 69718, "pitch": 42, "duration": 60, "velocity": 67}, {"time": 69838, "pitch": 46, "duration": 61, "velocity": 107}, {"time": 69838, "pitch": 70, "duration": 61, "velocity": 75}, {"time": 69959, "pitch": 70, "duration": 60, "velocity": 75}, {"time": 70079, "pitch": 38, "duration": 60, "velocity": 107}, {"time": 70079, "pitch": 42, "duration": 60, "velocity": 67}, {"time": 70083, "pitch": 35, "duration": 60, "velocity": 107}, {"time": 70200, "pitch": 42, "duration": 60, "velocity": 67}, {"time": 70320, "pitch": 46, "duration": 60, "velocity": 107}, {"time": 70320, "pitch": 82, "duration": 60, "velocity": 75}, {"time": 70440, "pitch": 38, "duration": 61, "velocity": 107}, {"time": 70440, "pitch": 82, "duration": 61, "velocity": 75}, {"time": 70560, "pitch": 35, "duration": 60, "velocity": 107}, {"time": 70561, "pitch": 42, "duration": 60, "velocity": 67}, {"time": 70681, "pitch": 42, "duration": 60, "velocity": 67}, {"time": 70802, "pitch": 38, "duration": 60, "velocity": 107}, {"time": 70802, "pitch": 46, "duration": 60, "velocity": 107}, {"time": 70802, "pitch": 70, "duration": 60, "velocity": 75}, {"time": 70922, "pitch": 70, "duration": 60, "velocity": 75}, {"time": 71032, "pitch": 35, "duration": 61, "velocity": 107}, {"time": 71042, "pitch": 38, "duration": 61, "velocity": 107}, {"time": 71042, "pitch": 42, "duration": 61, "velocity": 67}, {"time": 71042, "pitch": 82, "duration": 61, "velocity": 75}, {"time": 71163, "pitch": 38, "duration": 60, "velocity": 107}, {"time": 71163, "pitch": 42, "duration": 60, "velocity": 67}, {"time": 71163, "pitch": 82, "duration": 60, "velocity": 75}, {"time": 71283, "pitch": 46, "duration": 60, "velocity": 107}, {"time": 71404, "pitch": 38, "duration": 60, "velocity": 107}, {"time": 71404, "pitch": 82, "duration": 60, "velocity": 75}, {"time": 71524, "pitch": 35, "duration": 59, "velocity": 107}, {"time": 71524, "pitch": 42, "duration": 59, "velocity": 67}, {"time": 71524, "pitch": 49, "duration": 59, "velocity": 107}, {"time": 71642, "pitch": 42, "duration": 59, "velocity": 67}, {"time": 71760, "pitch": 46, "duration": 58, "velocity": 107}, {"time": 71760, "pitch": 70, "duration": 58, "velocity": 75}, {"time": 71877, "pitch": 70, "duration": 59, "velocity": 75}, {"time": 71995, "pitch": 38, "duration": 60, "velocity": 107}, {"time": 71995, "pitch": 42, "duration": 60, "velocity": 67}, {"time": 71999, "pitch": 35, "duration": 60, "velocity": 107}, {"time": 72116, "pitch": 42, "duration": 60, "velocity": 67}, {"time": 72236, "pitch": 46, "duration": 60, "velocity": 107}, {"time": 72236, "pitch": 82, "duration": 60, "velocity": 75}, {"time": 72356, "pitch": 38, "duration": 61, "velocity": 107}, {"time": 72356, "pitch": 82, "duration": 61, "velocity": 75}, {"time": 72476, "pitch": 35, "duration": 60, "velocity": 107}, {"time": 72477, "pitch": 42, "duration": 60, "velocity": 67}, {"time": 72597, "pitch": 42, "duration": 60, "velocity": 67}, {"time": 72718, "pitch": 46, "duration": 60, "velocity": 107}, {"time": 72718, "pitch": 70, "duration": 60, "velocity": 75}, {"time": 72838, "pitch": 70, "duration": 60, "velocity": 75}, {"time": 72948, "pitch": 35, "duration": 60, "velocity": 107}, {"time": 72958, "pitch": 38, "duration": 61, "velocity": 107}, {"time": 72958, "pitch": 42, "duration": 61, "velocity": 67}, {"time": 73079, "pitch": 42, "duration": 60, "velocity": 67}, {"time": 73199, "pitch": 46, "duration": 60, "velocity": 107}, {"time": 73199, "pitch": 82, "duration": 60, "velocity": 75}, {"time": 73320, "pitch": 38, "duration": 60, "velocity": 107}, {"time": 73440, "pitch": 35, "duration": 60, "velocity": 107}, {"time": 73440, "pitch": 42, "duration": 60, "velocity": 67}, {"time": 73560, "pitch": 42, "duration": 61, "velocity": 67}, {"time": 73681, "pitch": 46, "duration": 60, "velocity": 107}, {"time": 73681, "pitch": 70, "duration": 60, "velocity": 75}, {"time": 73801, "pitch": 70, "duration": 60, "velocity": 75}, {"time": 73922, "pitch": 38, "duration": 60, "velocity": 107}, {"time": 73922, "pitch": 42, "duration": 60, "velocity": 67}, {"time": 73926, "pitch": 35, "duration": 60, "velocity": 107}, {"time": 74042, "pitch": 42, "duration": 60, "velocity": 67}, {"time": 74162, "pitch": 46, "duration": 61, "velocity": 107}, {"time": 74162, "pitch": 82, "duration": 61, "velocity": 75}, {"time": 74283, "pitch": 38, "duration": 60, "velocity": 107}, {"time": 74283, "pitch": 82, "duration": 60, "velocity": 75}, {"time": 74402, "pitch": 35, "duration": 60, "velocity": 107}, {"time": 74403, "pitch": 42, "duration": 60, "velocity": 67}, {"time": 74524, "pitch": 42, "duration": 60, "velocity": 67}, {"time": 74644, "pitch": 46, "duration": 60, "velocity": 107}, {"time": 74644, "pitch": 70, "duration": 60, "velocity": 75}, {"time": 74764, "pitch": 70, "duration": 61, "velocity": 75}, {"time": 74875, "pitch": 35, "duration": 59, "velocity": 107}, {"time": 74885, "pitch": 38, "duration": 59, "velocity": 107}, {"time": 74885, "pitch": 42, "duration": 59, "velocity": 67}, {"time": 75002, "pitch": 42, "duration": 59, "velocity": 67}, {"time": 75120, "pitch": 46, "duration": 59, "velocity": 107}, {"time": 75120, "pitch": 82, "duration": 59, "velocity": 75}, {"time": 75238, "pitch": 38, "duration": 59, "velocity": 107}, {"time": 75356, "pitch": 35, "duration": 60, "velocity": 107}, {"time": 75356, "pitch": 42, "duration": 60, "velocity": 67}, {"time": 75476, "pitch": 42, "duration": 61, "velocity": 67}, {"time": 75597, "pitch": 46, "duration": 60, "velocity": 107}, {"time": 75597, "pitch": 70, "duration": 60, "velocity": 75}, {"time": 75717, "pitch": 70, "duration": 60, "velocity": 75}, {"time": 75838, "pitch": 38, "duration": 60, "velocity": 107}, {"time": 75838, "pitch": 42, "duration": 60, "velocity": 67}, {"time": 75842, "pitch": 35, "duration": 60, "velocity": 107}, {"time": 75958, "pitch": 42, "duration": 60, "velocity": 67}, {"time": 76078, "pitch": 46, "duration": 61, "velocity": 107}, {"time": 76078, "pitch": 82, "duration": 61, "velocity": 75}, {"time": 76199, "pitch": 38, "duration": 60, "velocity": 107}, {"time": 76199, "pitch": 82, "duration": 60, "velocity": 75}, {"time": 76318, "pitch": 35, "duration": 60, "velocity": 107}, {"time": 76319, "pitch": 42, "duration": 60, "velocity": 67}, {"time": 76440, "pitch": 42, "duration": 60, "velocity": 67}, {"time": 76560, "pitch": 46, "duration": 60, "velocity": 107}, {"time": 76560, "pitch": 70, "duration": 60, "velocity": 75}, {"time": 76680, "pitch": 70, "duration": 61, "velocity": 75}, {"time": 76791, "pitch": 35, "duration": 60, "velocity": 107}, {"time": 76801, "pitch": 38, "duration": 60, "velocity": 107}, {"time": 76801, "pitch": 42, "duration": 60, "velocity": 67}, {"time": 76921, "pitch": 42, "duration": 60, "velocity": 67}, {"time": 77042, "pitch": 46, "duration": 60, "velocity": 107}, {"time": 77042, "pitch": 82, "duration": 60, "velocity": 75}, {"time": 77162, "pitch": 38, "duration": 60, "velocity": 107}, {"time": 77282, "pitch": 35, "duration": 61, "velocity": 107}, {"time": 77282, "pitch": 42, "duration": 61, "velocity": 67}, {"time": 77403, "pitch": 42, "duration": 60, "velocity": 67}, {"time": 77523, "pitch": 46, "duration": 60, "velocity": 107}, {"time": 77523, "pitch": 70, "duration": 60, "velocity": 75}, {"time": 77644, "pitch": 70, "duration": 60, "velocity": 75}, {"time": 77764, "pitch": 38, "duration": 59, "velocity": 107}, {"time": 77764, "pitch": 42, "duration": 59, "velocity": 67}, {"time": 77768, "pitch": 35, "duration": 59, "velocity": 107}, {"time": 77882, "pitch": 42, "duration": 59, "velocity": 67}, {"time": 78000, "pitch": 46, "duration": 58, "velocity": 107}, {"time": 78000, "pitch": 82, "duration": 58, "velocity": 75}, {"time": 78117, "pitch": 38, "duration": 59, "velocity": 107}, {"time": 78117, "pitch": 82, "duration": 59, "velocity": 75}, {"time": 78234, "pitch": 35, "duration": 60, "velocity": 107}, {"time": 78235, "pitch": 42, "duration": 60, "velocity": 67}, {"time": 78356, "pitch": 42, "duration": 60, "velocity": 67}, {"time": 78476, "pitch": 38, "duration": 60, "velocity": 107}, {"time": 78476, "pitch": 46, "duration": 60, "velocity": 107}, {"time": 78476, "pitch": 70, "duration": 60, "velocity": 75}, {"time": 78596, "pitch": 70, "duration": 61, "velocity": 75}, {"time": 78707, "pitch": 35, "duration": 60, "velocity": 107}, {"time": 78717, "pitch": 38, "duration": 60, "velocity": 107}, {"time": 78717, "pitch": 42, "duration": 60, "velocity": 67}, {"time": 78837, "pitch": 38, "duration": 60, "velocity": 107}, {"time": 78837, "pitch": 42, "duration": 60, "velocity": 67}, {"time": 78958, "pitch": 46, "duration": 60, "velocity": 107}, {"time": 78958, "pitch": 82, "duration": 60, "velocity": 75}, {"time": 79078, "pitch": 38, "duration": 60, "velocity": 107}, {"time": 79198, "pitch": 35, "duration": 61, "velocity": 107}, {"time": 79198, "pitch": 42, "duration": 61, "velocity": 67}, {"time": 79319, "pitch": 42, "duration": 60, "velocity": 67}, {"time": 79439, "pitch": 46, "duration": 60, "velocity": 107}, {"time": 79680, "pitch": 38, "duration": 60, "velocity": 107}, {"time": 79680, "pitch": 42, "duration": 60, "velocity": 67}, {"time": 79684, "pitch": 35, "duration": 60, "velocity": 107}, {"time": 79800, "pitch": 42, "duration": 61, "velocity": 67}, {"time": 79921, "pitch": 46, "duration": 60, "velocity": 107}, {"time": 80041, "pitch": 38, "duration": 60, "velocity": 107}, {"time": 80161, "pitch": 35, "duration": 60, "velocity": 107}, {"time": 80162, "pitch": 40, "duration": 60, "velocity": 127}, {"time": 80162, "pitch": 42, "duration": 60, "velocity": 67}, {"time": 80242, "pitch": 40, "duration": 60, "velocity": 127}, {"time": 80282, "pitch": 42, "duration": 60, "velocity": 67}, {"time": 80322, "pitch": 40, "duration": 60, "velocity": 127}, {"time": 80402, "pitch": 40, "duration": 61, "velocity": 127}, {"time": 80402, "pitch": 46, "duration": 61, "velocity": 107}, {"time": 80523, "pitch": 40, "duration": 60, "velocity": 127}, {"time": 80633, "pitch": 35, "duration": 60, "velocity": 107}, {"time": 80643, "pitch": 38, "duration": 60, "velocity": 107}, {"time": 80643, "pitch": 40, "duration": 60, "velocity": 127}, {"time": 80643, "pitch": 42, "duration": 60, "velocity": 67}, {"time": 80764, "pitch": 40, "duration": 60, "velocity": 127}, {"time": 80764, "pitch": 42, "duration": 60, "velocity": 67}, {"time": 80884, "pitch": 40, "duration": 60, "velocity": 127}, {"time": 80884, "pitch": 46, "duration": 60, "velocity": 107}, {"time": 81004, "pitch": 38, "duration": 61, "velocity": 107}, {"time": 81004, "pitch": 40, "duration": 61, "velocity": 127}, {"time": 81125, "pitch": 35, "duration": 59, "velocity": 107}, {"time": 81125, "pitch": 42, "duration": 59, "velocity": 67}, {"time": 81125, "pitch": 49, "duration": 59, "velocity": 107}, {"time": 81242, "pitch": 42, "duration": 59, "velocity": 67}, {"time": 81360, "pitch": 46, "duration": 59, "velocity": 107}, {"time": 81360, "pitch": 70, "duration": 59, "velocity": 75}, {"time": 81478, "pitch": 70, "duration": 59, "velocity": 75}, {"time": 81596, "pitch": 38, "duration": 60, "velocity": 107}, {"time": 81596, "pitch": 42, "duration": 60, "velocity": 67}, {"time": 81600, "pitch": 35, "duration": 60, "velocity": 107}, {"time": 81716, "pitch": 42, "duration": 61, "velocity": 67}, {"time": 81837, "pitch": 46, "duration": 60, "velocity": 107}, {"time": 81837, "pitch": 82, "duration": 60, "velocity": 75}, {"time": 81957, "pitch": 38, "duration": 60, "velocity": 107}, {"time": 81957, "pitch": 82, "duration": 60, "velocity": 75}, {"time": 82077, "pitch": 35, "duration": 60, "velocity": 107}, {"time": 82078, "pitch": 42, "duration": 60, "velocity": 67}, {"time": 82198, "pitch": 42, "duration": 60, "velocity": 67}, {"time": 82318, "pitch": 46, "duration": 61, "velocity": 107}, {"time": 82318, "pitch": 70, "duration": 61, "velocity": 75}, {"time": 82439, "pitch": 70, "duration": 60, "velocity": 75}, {"time": 82549, "pitch": 35, "duration": 60, "velocity": 107}, {"time": 82559, "pitch": 38, "duration": 60, "velocity": 107}, {"time": 82559, "pitch": 42, "duration": 60, "velocity": 67}, {"time": 82680, "pitch": 42, "duration": 60, "velocity": 67}, {"time": 82800, "pitch": 46, "duration": 60, "velocity": 107}, {"time": 82800, "pitch": 82, "duration": 60, "velocity": 75}, {"time": 82920, "pitch": 38, "duration": 61, "velocity": 107}, {"time": 83041, "pitch": 35, "duration": 60, "velocity": 107}, {"time": 83041, "pitch": 42, "duration": 60, "velocity": 67}, {"time": 83161, "pitch": 42, "duration": 60, "velocity": 67}, {"time": 83282, "pitch": 46, "duration": 60, "velocity": 107}, {"time": 83282, "pitch": 70, "duration": 60, "velocity": 75}, {"time": 83402, "pitch": 70, "duration": 60, "velocity": 75}, {"time": 83522, "pitch": 38, "duration": 61, "velocity": 107}, {"time": 83522, "pitch": 42, "duration": 61, "velocity": 67}, {"time": 83526, "pitch": 35, "duration": 61, "velocity": 107}, {"time": 83643, "pitch": 42, "duration": 60, "velocity": 67}, {"time": 83763, "pitch": 46, "duration": 60, "velocity": 107}, {"time": 83763, "pitch": 82, "duration": 60, "velocity": 75}, {"time": 83884, "pitch": 38, "duration": 60, "velocity": 107}, {"time": 83884, "pitch": 82, "duration": 60, "velocity": 75}, {"time": 84003, "pitch": 35, "duration": 59, "velocity": 107}, {"time": 84004, "pitch": 42, "duration": 59, "velocity": 67}, {"time": 84122, "pitch": 42, "duration": 59, "velocity": 67}, {"time": 84240, "pitch": 46, "duration": 58, "velocity": 107}, {"time": 84240, "pitch": 70, "duration": 58, "velocity": 75}, {"time": 84357, "pitch": 70, "duration": 59, "velocity": 75}, {"time": 84465, "pitch": 35, "duration": 60, "velocity": 107}, {"time": 84475, "pitch": 38, "duration": 60, "velocity": 107}, {"time": 84475, "pitch": 42, "duration": 60, "velocity": 67}, {"time": 84595, "pitch": 42, "duration": 61, "velocity": 67}, {"time": 84716, "pitch": 46, "duration": 60, "velocity": 107}, {"time": 84716, "pitch": 82, "duration": 60, "velocity": 75}, {"time": 84836, "pitch": 38, "duration": 61, "velocity": 107}, {"time": 84957, "pitch": 35, "duration": 60, "velocity": 107}, {"time": 84957, "pitch": 42, "duration": 60, "velocity": 67}, {"time": 85077, "pitch": 42, "duration": 60, "velocity": 67}, {"time": 85198, "pitch": 46, "duration": 60, "velocity": 107}, {"time": 85198, "pitch": 70, "duration": 60, "velocity": 75}, {"time": 85318, "pitch": 70, "duration": 60, "velocity": 75}, {"time": 85438, "pitch": 38, "duration": 61, "velocity": 107}, {"time": 85438, "pitch": 42, "duration": 61, "velocity": 67}, {"time": 85442, "pitch": 35, "duration": 61, "velocity": 107}, {"time": 85559, "pitch": 42, "duration": 60, "velocity": 67}, {"time": 85679, "pitch": 46, "duration": 60, "velocity": 107}, {"time": 85679, "pitch": 82, "duration": 60, "velocity": 75}, {"time": 85800, "pitch": 38, "duration": 60, "velocity": 107}, {"time": 85800, "pitch": 82, "duration": 60, "velocity": 75}, {"time": 85919, "pitch": 35, "duration": 60, "velocity": 107}, {"time": 85920, "pitch": 42, "duration": 60, "velocity": 67}, {"time": 86040, "pitch": 42, "duration": 61, "velocity": 67}, {"time": 86161, "pitch": 38, "duration": 60, "velocity": 107}, {"time": 86161, "pitch": 46, "duration": 60, "velocity": 107}, {"time": 86161, "pitch": 70, "duration": 60, "velocity": 75}, {"time": 86281, "pitch": 70, "duration": 60, "velocity": 75}, {"time": 86391, "pitch": 35, "duration": 61, "velocity": 107}, {"time": 86402, "pitch": 38, "duration": 60, "velocity": 107}, {"time": 86402, "pitch": 42, "duration": 60, "velocity": 67}, {"time": 86522, "pitch": 38, "duration": 60, "velocity": 107}, {"time": 86522, "pitch": 42, "duration": 60, "velocity": 67}, {"time": 86642, "pitch": 46, "duration": 61, "velocity": 107}, {"time": 86642, "pitch": 82, "duration": 61, "velocity": 75}, {"time": 86763, "pitch": 38, "duration": 60, "velocity": 107}, {"time": 86883, "pitch": 35, "duration": 60, "velocity": 107}, {"time": 86883, "pitch": 42, "duration": 60, "velocity": 67}, {"time": 87004, "pitch": 42, "duration": 60, "velocity": 67}, {"time": 87124, "pitch": 46, "duration": 60, "velocity": 107}, {"time": 87124, "pitch": 70, "duration": 60, "velocity": 75}, {"time": 87244, "pitch": 70, "duration": 61, "velocity": 75}, {"time": 87365, "pitch": 38, "duration": 59, "velocity": 107}, {"time": 87365, "pitch": 42, "duration": 59, "velocity": 67}, {"time": 87369, "pitch": 35, "duration": 58, "velocity": 107}, {"time": 87482, "pitch": 42, "duration": 59, "velocity": 67}, {"time": 87600, "pitch": 46, "duration": 59, "velocity": 107}, {"time": 87600, "pitch": 82, "duration": 59, "velocity": 75}, {"time": 87718, "pitch": 38, "duration": 59, "velocity": 107}, {"time": 87718, "pitch": 82, "duration": 59, "velocity": 75}, {"time": 87835, "pitch": 35, "duration": 60, "velocity": 107}, {"time": 87836, "pitch": 42, "duration": 60, "velocity": 67}, {"time": 87956, "pitch": 42, "duration": 60, "velocity": 67}, {"time": 88077, "pitch": 46, "duration": 60, "velocity": 107}, {"time": 88077, "pitch": 70, "duration": 60, "velocity": 75}, {"time": 88197, "pitch": 70, "duration": 60, "velocity": 75}, {"time": 88307, "pitch": 35, "duration": 61, "velocity": 107}, {"time": 88318, "pitch": 38, "duration": 60, "velocity": 107}, {"time": 88318, "pitch": 42, "duration": 60, "velocity": 67}, {"time": 88318, "pitch": 82, "duration": 60, "velocity": 75}, {"time": 88438, "pitch": 42, "duration": 60, "velocity": 67}, {"time": 88438, "pitch": 82, "duration": 60, "velocity": 75}, {"time": 88558, "pitch": 46, "duration": 61, "velocity": 107}, {"time": 88679, "pitch": 38, "duration": 60, "velocity": 107}, {"time": 88679, "pitch": 82, "duration": 60, "velocity": 75}, {"time": 88799, "pitch": 35, "duration": 60, "velocity": 107}, {"time": 88799, "pitch": 42, "duration": 60, "velocity": 67}, {"time": 88799, "pitch": 49, "duration": 60, "velocity": 107}, {"time": 88920, "pitch": 42, "duration": 60, "velocity": 67}, {"time": 89040, "pitch": 46, "duration": 60, "velocity": 107}, {"time": 89040, "pitch": 70, "duration": 60, "velocity": 75}, {"time": 89160, "pitch": 70, "duration": 61, "velocity": 75}, {"time": 89281, "pitch": 38, "duration": 60, "velocity": 107}, {"time": 89281, "pitch": 42, "duration": 60, "velocity": 67}, {"time": 89285, "pitch": 35, "duration": 60, "velocity": 107}, {"time": 89401, "pitch": 42, "duration": 60, "velocity": 67}, {"time": 89522, "pitch": 46, "duration": 60, "velocity": 107}, {"time": 89522, "pitch": 82, "duration": 60, "velocity": 75}, {"time": 89642, "pitch": 38, "duration": 60, "velocity": 107}, {"time": 89642, "pitch": 82, "duration": 60, "velocity": 75}, {"time": 89761, "pitch": 35, "duration": 61, "velocity": 107}, {"time": 89762, "pitch": 42, "duration": 61, "velocity": 67}, {"time": 89883, "pitch": 42, "duration": 60, "velocity": 67}, {"time": 90003, "pitch": 46, "duration": 60, "velocity": 107}, {"time": 90003, "pitch": 70, "duration": 60, "velocity": 75}, {"time": 90124, "pitch": 70, "duration": 60, "velocity": 75}, {"time": 90234, "pitch": 35, "duration": 59, "velocity": 107}, {"time": 90244, "pitch": 38, "duration": 59, "velocity": 107}, {"time": 90244, "pitch": 42, "duration": 59, "velocity": 67}, {"time": 90362, "pitch": 42, "duration": 59, "velocity": 67}, {"time": 90480, "pitch": 46, "duration": 58, "velocity": 107}, {"time": 90480, "pitch": 82, "duration": 58, "velocity": 75}, {"time": 90597, "pitch": 38, "duration": 59, "velocity": 107}, {"time": 90715, "pitch": 35, "duration": 60, "velocity": 107}, {"time": 90715, "pitch": 42, "duration": 60, "velocity": 67}, {"time": 90835, "pitch": 42, "duration": 61, "velocity": 67}, {"time": 90956, "pitch": 46, "duration": 60, "velocity": 107}, {"time": 90956, "pitch": 70, "duration": 60, "velocity": 75}, {"time": 91076, "pitch": 70, "duration": 60, "velocity": 75}, {"time": 91197, "pitch": 38, "duration": 60, "velocity": 107}, {"time": 91197, "pitch": 42, "duration": 60, "velocity": 67}, {"time": 91201, "pitch": 35, "duration": 60, "velocity": 107}, {"time": 91317, "pitch": 42, "duration": 60, "velocity": 67}, {"time": 91437, "pitch": 46, "duration": 61, "velocity": 107}, {"time": 91437, "pitch": 82, "duration": 61, "velocity": 75}, {"time": 91558, "pitch": 38, "duration": 60, "velocity": 107}, {"time": 91558, "pitch": 82, "duration": 60, "velocity": 75}, {"time": 91677, "pitch": 35, "duration": 60, "velocity": 107}, {"time": 91678, "pitch": 42, "duration": 61, "velocity": 67}, {"time": 91799, "pitch": 42, "duration": 60, "velocity": 67}, {"time": 91919, "pitch": 46, "duration": 60, "velocity": 107}, {"time": 91919, "pitch": 70, "duration": 60, "velocity": 75}, {"time": 92040, "pitch": 70, "duration": 60, "velocity": 75}, {"time": 92150, "pitch": 35, "duration": 60, "velocity": 107}, {"time": 92160, "pitch": 38, "duration": 60, "velocity": 107}, {"time": 92160, "pitch": 42, "duration": 60, "velocity": 67}, {"time": 92280, "pitch": 42, "duration": 61, "velocity": 67}, {"time": 92401, "pitch": 46, "duration": 60, "velocity": 107}, {"time": 92401, "pitch": 82, "duration": 60, "velocity": 75}, {"time": 92521, "pitch": 38, "duration": 60, "velocity": 107}, {"time": 92642, "pitch": 35, "duration": 60, "velocity": 107}, {"time": 92642, "pitch": 42, "duration": 60, "velocity": 67}, {"time": 92762, "pitch": 42, "duration": 60, "velocity": 67}, {"time": 92882, "pitch": 46, "duration": 61, "velocity": 107}, {"time": 92882, "pitch": 70, "duration": 61, "velocity": 75}, {"time": 93003, "pitch": 70, "duration": 60, "velocity": 75}, {"time": 93123, "pitch": 38, "duration": 60, "velocity": 107}, {"time": 93123, "pitch": 42, "duration": 60, "velocity": 67}, {"time": 93127, "pitch": 35, "duration": 60, "velocity": 107}, {"time": 93244, "pitch": 42, "duration": 60, "velocity": 67}, {"time": 93364, "pitch": 46, "duration": 60, "velocity": 107}, {"time": 93364, "pitch": 82, "duration": 60, "velocity": 75}, {"time": 93484, "pitch": 38, "duration": 61, "velocity": 107}, {"time": 93484, "pitch": 82, "duration": 61, "velocity": 75}, {"time": 93604, "pitch": 35, "duration": 59, "velocity": 107}, {"time": 93605, "pitch": 42, "duration": 59, "velocity": 67}, {"time": 93722, "pitch": 42, "duration": 59, "velocity": 67}, {"time": 93840, "pitch": 38, "duration": 59, "velocity": 107}, {"time": 93840, "pitch": 46, "duration": 59, "velocity": 107}, {"time": 93840, "pitch": 70, "duration": 59, "velocity": 75}, {"time": 93958, "pitch": 70, "duration": 59, "velocity": 75}, {"time": 94066, "pitch": 35, "duration": 60, "velocity": 107}, {"time": 94076, "pitch": 38, "duration": 60, "velocity": 107}, {"time": 94076, "pitch": 42, "duration": 60, "velocity": 67}, {"time": 94196, "pitch": 38, "duration": 60, "velocity": 107}, {"time": 94196, "pitch": 42, "duration": 60, "velocity": 67}, {"time": 94317, "pitch": 46, "duration": 60, "velocity": 107}, {"time": 94317, "pitch": 82, "duration": 60, "velocity": 75}, {"time": 94437, "pitch": 38, "duration": 60, "velocity": 107}, {"time": 94557, "pitch": 35, "duration": 61, "velocity": 107}, {"time": 94557, "pitch": 40, "duration": 61, "velocity": 78}, {"time": 94557, "pitch": 42, "duration": 61, "velocity": 67}, {"time": 94678, "pitch": 40, "duration": 60, "velocity": 81}, {"time": 94678, "pitch": 42, "duration": 60, "velocity": 67}, {"time": 94798, "pitch": 40, "duration": 60, "velocity": 83}, {"time": 94798, "pitch": 46, "duration": 60, "velocity": 107}, {"time": 94798, "pitch": 70, "duration": 60, "velocity": 75}, {"time": 94919, "pitch": 40, "duration": 60, "velocity": 87}, {"time": 94919, "pitch": 70, "duration": 60, "velocity": 75}, {"time": 95039, "pitch": 38, "duration": 60, "velocity": 107}, {"time": 95039, "pitch": 40, "duration": 60, "velocity": 90}, {"time": 95039, "pitch": 42, "duration": 60, "velocity": 67}, {"time": 95043, "pitch": 35, "duration": 60, "velocity": 107}, {"time": 95160, "pitch": 40, "duration": 60, "velocity": 92}, {"time": 95160, "pitch": 42, "duration": 60, "velocity": 67}, {"time": 95280, "pitch": 40, "duration": 60, "velocity": 96}, {"time": 95280, "pitch": 46, "duration": 60, "velocity": 107}, {"time": 95280, "pitch": 82, "duration": 60, "velocity": 75}, {"time": 95400, "pitch": 38, "duration": 61, "velocity": 107}, {"time": 95400, "pitch": 40, "duration": 61, "velocity": 99}, {"time": 95400, "pitch": 82, "duration": 61, "velocity": 75}, {"time": 95520, "pitch": 35, "duration": 60, "velocity": 107}, {"time": 95521, "pitch": 40, "duration": 60, "velocity": 101}, {"time": 95521, "pitch": 42, "duration": 60, "velocity": 67}, {"time": 95641, "pitch": 40, "duration": 60, "velocity": 105}, {"time": 95641, "pitch": 42, "duration": 60, "velocity": 67}, {"time": 95762, "pitch": 40, "duration": 60, "velocity": 107}, {"time": 95762, "pitch": 46, "duration": 60, "velocity": 107}, {"time": 95762, "pitch": 70, "duration": 60, "velocity": 75}, {"time": 95882, "pitch": 40, "duration": 60, "velocity": 111}, {"time": 95882, "pitch": 70, "duration": 60, "velocity": 75}, {"time": 95992, "pitch": 35, "duration": 60, "velocity": 107}, {"time": 96002, "pitch": 38, "duration": 61, "velocity": 107}, {"time": 96002, "pitch": 40, "duration": 61, "velocity": 101}, {"time": 96002, "pitch": 42, "duration": 61, "velocity": 67}, {"time": 96002, "pitch": 82, "duration": 61, "velocity": 75}, {"time": 96063, "pitch": 40, "duration": 60, "velocity": 101}, {"time": 96123, "pitch": 40, "duration": 60, "velocity": 105}, {"time": 96123, "pitch": 42, "duration": 60, "velocity": 67}, {"time": 96123, "pitch": 82, "duration": 60, "velocity": 75}, {"time": 96183, "pitch": 40, "duration": 60, "velocity": 105}, {"time": 96243, "pitch": 40, "duration": 60, "velocity": 107}, {"time": 96243, "pitch": 46, "duration": 60, "velocity": 107}, {"time": 96303, "pitch": 40, "duration": 61, "velocity": 107}, {"time": 96364, "pitch": 38, "duration": 60, "velocity": 107}, {"time": 96364, "pitch": 40, "duration": 60, "velocity": 111}, {"time": 96364, "pitch": 82, "duration": 60, "velocity": 75}, {"time": 96424, "pitch": 40, "duration": 60, "velocity": 111}, {"time": 96484, "pitch": 35, "duration": 59, "velocity": 107}, {"time": 96484, "pitch": 42, "duration": 59, "velocity": 67}, {"time": 96484, "pitch": 49, "duration": 59, "velocity": 107}, {"time": 96602, "pitch": 42, "duration": 59, "velocity": 67}, {"time": 96720, "pitch": 46, "duration": 58, "velocity": 107}, {"time": 96720, "pitch": 70, "duration": 58, "velocity": 75}, {"time": 96837, "pitch": 70, "duration": 59, "velocity": 75}, {"time": 96955, "pitch": 38, "duration": 60, "velocity": 107}, {"time": 96955, "pitch": 42, "duration": 60, "velocity": 67}, {"time": 96959, "pitch": 35, "duration": 60, "velocity": 107}, {"time": 97075, "pitch": 42, "duration": 61, "velocity": 67}, {"time": 97196, "pitch": 46, "duration": 60, "velocity": 107}, {"time": 97196, "pitch": 82, "duration": 60, "velocity": 75}, {"time": 97316, "pitch": 38, "duration": 60, "velocity": 107}, {"time": 97316, "pitch": 82, "duration": 60, "velocity": 75}, {"time": 97436, "pitch": 35, "duration": 60, "velocity": 107}, {"time": 97437, "pitch": 42, "duration": 60, "velocity": 67}, {"time": 97557, "pitch": 42, "duration": 60, "velocity": 67}, {"time": 97677, "pitch": 46, "duration": 61, "velocity": 107}, {"time": 97677, "pitch": 70, "duration": 61, "velocity": 75}, {"time": 97798, "pitch": 70, "duration": 60, "velocity": 75}, {"time": 97908, "pitch": 35, "duration": 60, "velocity": 107}, {"time": 97918, "pitch": 38, "duration": 60, "velocity": 107}, {"time": 97918, "pitch": 42, "duration": 60, "velocity": 67}, {"time": 98039, "pitch": 42, "duration": 60, "velocity": 67}, {"time": 98159, "pitch": 46, "duration": 60, "velocity": 107}, {"time": 98159, "pitch": 82, "duration": 60, "velocity": 75}, {"time": 98279, "pitch": 38, "duration": 61, "velocity": 107}, {"time": 98400, "pitch": 35, "duration": 60, "velocity": 107}, {"time": 98400, "pitch": 42, "duration": 60, "velocity": 67}, {"time": 98520, "pitch": 42, "duration": 61, "velocity": 67}, {"time": 98641, "pitch": 46, "duration": 60, "velocity": 107}, {"time": 98641, "pitch": 70, "duration": 60, "velocity": 75}, {"time": 98761, "pitch": 70, "duration": 60, "velocity": 75}, {"time": 98882, "pitch": 38, "duration": 60, "velocity": 107}, {"time": 98882, "pitch": 42, "duration": 60, "velocity": 67}, {"time": 98886, "pitch": 35, "duration": 60, "velocity": 107}, {"time": 99002, "pitch": 42, "duration": 60, "velocity": 67}, {"time": 99122, "pitch": 46, "duration": 61, "velocity": 107}, {"time": 99122, "pitch": 82, "duration": 61, "velocity": 75}, {"time": 99243, "pitch": 38, "duration": 60, "velocity": 107}, {"time": 99243, "pitch": 82, "duration": 60, "velocity": 75}, {"time": 99362, "pitch": 35, "duration": 60, "velocity": 107}, {"time": 99363, "pitch": 42, "duration": 60, "velocity": 67}, {"time": 99484, "pitch": 42, "duration": 60, "velocity": 67}, {"time": 99604, "pitch": 46, "duration": 60, "velocity": 107}, {"time": 99604, "pitch": 70, "duration": 60, "velocity": 75}, {"time": 99724, "pitch": 70, "duration": 61, "velocity": 75}, {"time": 99835, "pitch": 35, "duration": 59, "velocity": 107}, {"time": 99845, "pitch": 38, "duration": 59, "velocity": 107}, {"time": 99845, "pitch": 42, "duration": 59, "velocity": 67}, {"time": 99962, "pitch": 42, "duration": 59, "velocity": 67}, {"time": 100080, "pitch": 46, "duration": 59, "velocity": 107}, {"time": 100080, "pitch": 82, "duration": 59, "velocity": 75}, {"time": 100198, "pitch": 38, "duration": 59, "velocity": 107}, {"time": 100316, "pitch": 35, "duration": 60, "velocity": 107}, {"time": 100316, "pitch": 42, "duration": 60, "velocity": 67}, {"time": 100436, "pitch": 42, "duration": 60, "velocity": 67}, {"time": 100557, "pitch": 46, "duration": 60, "velocity": 107}, {"time": 100557, "pitch": 70, "duration": 60, "velocity": 75}, {"time": 100677, "pitch": 70, "duration": 60, "velocity": 75}, {"time": 100797, "pitch": 38, "duration": 61, "velocity": 107}, {"time": 100797, "pitch": 42, "duration": 61, "velocity": 67}, {"time": 100802, "pitch": 35, "duration": 60, "velocity": 107}, {"time": 100918, "pitch": 42, "duration": 60, "velocity": 67}, {"time": 101038, "pitch": 46, "duration": 60, "velocity": 107}, {"time": 101038, "pitch": 82, "duration": 60, "velocity": 75}, {"time": 101159, "pitch": 38, "duration": 60, "velocity": 107}, {"time": 101159, "pitch": 82, "duration": 60, "velocity": 75}, {"time": 101278, "pitch": 35, "duration": 60, "velocity": 107}, {"time": 101279, "pitch": 42, "duration": 60, "velocity": 67}, {"time": 101399, "pitch": 42, "duration": 61, "velocity": 67}, {"time": 101520, "pitch": 38, "duration": 60, "velocity": 107}, {"time": 101520, "pitch": 46, "duration": 60, "velocity": 107}, {"time": 101520, "pitch": 70, "duration": 60, "velocity": 75}, {"time": 101640, "pitch": 70, "duration": 60, "velocity": 75}, {"time": 101751, "pitch": 35, "duration": 60, "velocity": 107}, {"time": 101761, "pitch": 38, "duration": 60, "velocity": 107}, {"time": 101761, "pitch": 42, "duration": 60, "velocity": 67}, {"time": 101881, "pitch": 38, "duration": 60, "velocity": 107}, {"time": 101881, "pitch": 42, "duration": 60, "velocity": 67}, {"time": 102002, "pitch": 46, "duration": 60, "velocity": 107}, {"time": 102002, "pitch": 82, "duration": 60, "velocity": 75}, {"time": 102122, "pitch": 38, "duration": 60, "velocity": 107}, {"time": 102242, "pitch": 35, "duration": 61, "velocity": 107}, {"time": 102242, "pitch": 42, "duration": 61, "velocity": 67}, {"time": 102363, "pitch": 42, "duration": 60, "velocity": 67}, {"time": 102483, "pitch": 46, "duration": 60, "velocity": 107}, {"time": 102483, "pitch": 70, "duration": 60, "velocity": 75}, {"time": 102604, "pitch": 70, "duration": 60, "velocity": 75}, {"time": 102724, "pitch": 38, "duration": 59, "velocity": 107}, {"time": 102724, "pitch": 42, "duration": 59, "velocity": 67}, {"time": 102728, "pitch": 35, "duration": 59, "velocity": 107}, {"time": 102842, "pitch": 42, "duration": 59, "velocity": 67}, {"time": 102960, "pitch": 46, "duration": 58, "velocity": 107}, {"time": 102960, "pitch": 82, "duration": 58, "velocity": 75}, {"time": 103077, "pitch": 38, "duration": 59, "velocity": 107}, {"time": 103077, "pitch": 82, "duration": 59, "velocity": 75}, {"time": 103194, "pitch": 35, "duration": 60, "velocity": 107}, {"time": 103195, "pitch": 42, "duration": 60, "velocity": 67}, {"time": 103315, "pitch": 42, "duration": 61, "velocity": 67}, {"time": 103436, "pitch": 46, "duration": 60, "velocity": 107}, {"time": 103436, "pitch": 70, "duration": 60, "velocity": 75}, {"time": 103556, "pitch": 70, "duration": 60, "velocity": 75}, {"time": 103667, "pitch": 35, "duration": 60, "velocity": 107}, {"time": 103677, "pitch": 38, "duration": 60, "velocity": 107}, {"time": 103677, "pitch": 42, "duration": 60, "velocity": 67}, {"time": 103677, "pitch": 82, "duration": 60, "velocity": 75}, {"time": 103797, "pitch": 42, "duration": 60, "velocity": 67}, {"time": 103797, "pitch": 82, "duration": 60, "velocity": 75}, {"time": 103917, "pitch": 46, "duration": 61, "velocity": 107}, {"time": 104038, "pitch": 38, "duration": 60, "velocity": 107}, {"time": 104038, "pitch": 82, "duration": 60, "velocity": 75}, {"time": 104158, "pitch": 35, "duration": 60, "velocity": 107}, {"time": 104158, "pitch": 42, "duration": 60, "velocity": 67}, {"time": 104158, "pitch": 49, "duration": 60, "velocity": 107}, {"time": 104279, "pitch": 42, "duration": 60, "velocity": 67}, {"time": 104399, "pitch": 46, "duration": 60, "velocity": 107}, {"time": 104399, "pitch": 70, "duration": 60, "velocity": 75}, {"time": 104519, "pitch": 70, "duration": 61, "velocity": 75}, {"time": 104640, "pitch": 38, "duration": 60, "velocity": 107}, {"time": 104640, "pitch": 42, "duration": 60, "velocity": 67}, {"time": 104644, "pitch": 35, "duration": 60, "velocity": 107}, {"time": 104760, "pitch": 42, "duration": 60, "velocity": 67}, {"time": 104881, "pitch": 46, "duration": 60, "velocity": 107}, {"time": 104881, "pitch": 82, "duration": 60, "velocity": 75}, {"time": 105001, "pitch": 38, "duration": 60, "velocity": 107}, {"time": 105001, "pitch": 82, "duration": 60, "velocity": 75}, {"time": 105120, "pitch": 35, "duration": 61, "velocity": 107}, {"time": 105121, "pitch": 42, "duration": 61, "velocity": 67}, {"time": 105242, "pitch": 42, "duration": 60, "velocity": 67}, {"time": 105362, "pitch": 46, "duration": 61, "velocity": 107}, {"time": 105362, "pitch": 70, "duration": 61, "velocity": 75}, {"time": 105483, "pitch": 70, "duration": 60, "velocity": 75}, {"time": 105593, "pitch": 35, "duration": 60, "velocity": 107}, {"time": 105603, "pitch": 38, "duration": 60, "velocity": 107}, {"time": 105603, "pitch": 42, "duration": 60, "velocity": 67}, {"time": 105724, "pitch": 42, "duration": 60, "velocity": 67}, {"time": 105844, "pitch": 46, "duration": 60, "velocity": 107}, {"time": 105844, "pitch": 82, "duration": 60, "velocity": 75}, {"time": 105964, "pitch": 38, "duration": 61, "velocity": 107}, {"time": 106085, "pitch": 35, "duration": 59, "velocity": 107}, {"time": 106085, "pitch": 42, "duration": 59, "velocity": 67}, {"time": 106202, "pitch": 42, "duration": 59, "velocity": 67}, {"time": 106320, "pitch": 46, "duration": 59, "velocity": 107}, {"time": 106320, "pitch": 70, "duration": 59, "velocity": 75}, {"time": 106438, "pitch": 70, "duration": 59, "velocity": 75}, {"time": 106556, "pitch": 38, "duration": 60, "velocity": 107}, {"time": 106556, "pitch": 42, "duration": 60, "velocity": 67}, {"time": 106560, "pitch": 35, "duration": 60, "velocity": 107}, {"time": 106676, "pitch": 42, "duration": 60, "velocity": 67}, {"time": 106797, "pitch": 46, "duration": 60, "velocity": 107}, {"time": 106797, "pitch": 82, "duration": 60, "velocity": 75}, {"time": 106917, "pitch": 38, "duration": 60, "velocity": 107}, {"time": 106917, "pitch": 82, "duration": 60, "velocity": 75}, {"time": 107036, "pitch": 35, "duration": 61, "velocity": 107}, {"time": 107037, "pitch": 42, "duration": 61, "velocity": 67}, {"time": 107158, "pitch": 42, "duration": 60, "velocity": 67}, {"time": 107278, "pitch": 46, "duration": 60, "velocity": 107}, {"time": 107278, "pitch": 70, "duration": 60, "velocity": 75}, {"time": 107399, "pitch": 70, "duration": 60, "velocity": 75}, {"time": 107509, "pitch": 35, "duration": 60, "velocity": 107}, {"time": 107519, "pitch": 38, "duration": 60, "velocity": 107}, {"time": 107519, "pitch": 42, "duration": 60, "velocity": 67}, {"time": 107639, "pitch": 42, "duration": 61, "velocity": 67}, {"time": 107760, "pitch": 46, "duration": 60, "velocity": 107}, {"time": 107760, "pitch": 82, "duration": 60, "velocity": 75}, {"time": 107880, "pitch": 38, "duration": 60, "velocity": 107}, {"time": 108001, "pitch": 35, "duration": 60, "velocity": 107}, {"time": 108001, "pitch": 42, "duration": 60, "velocity": 67}, {"time": 108121, "pitch": 42, "duration": 60, "velocity": 67}, {"time": 108241, "pitch": 46, "duration": 61, "velocity": 107}, {"time": 108241, "pitch": 70, "duration": 61, "velocity": 75}, {"time": 108362, "pitch": 70, "duration": 60, "velocity": 75}, {"time": 108482, "pitch": 38, "duration": 60, "velocity": 107}, {"time": 108482, "pitch": 42, "duration": 60, "velocity": 67}, {"time": 108486, "pitch": 35, "duration": 61, "velocity": 107}, {"time": 108603, "pitch": 42, "duration": 60, "velocity": 67}, {"time": 108723, "pitch": 46, "duration": 60, "velocity": 107}, {"time": 108723, "pitch": 82, "duration": 60, "velocity": 75}, {"time": 108844, "pitch": 38, "duration": 60, "velocity": 107}, {"time": 108844, "pitch": 82, "duration": 60, "velocity": 75}, {"time": 108963, "pitch": 35, "duration": 59, "velocity": 107}, {"time": 108964, "pitch": 42, "duration": 59, "velocity": 67}, {"time": 109082, "pitch": 42, "duration": 59, "velocity": 67}, {"time": 109199, "pitch": 38, "duration": 59, "velocity": 107}, {"time": 109199, "pitch": 46, "duration": 59, "velocity": 107}, {"time": 109199, "pitch": 70, "duration": 59, "velocity": 75}, {"time": 109317, "pitch": 70, "duration": 59, "velocity": 75}, {"time": 109425, "pitch": 35, "duration": 60, "velocity": 107}, {"time": 109435, "pitch": 38, "duration": 60, "velocity": 107}, {"time": 109435, "pitch": 42, "duration": 60, "velocity": 67}, {"time": 109555, "pitch": 38, "duration": 61, "velocity": 107}, {"time": 109555, "pitch": 42, "duration": 61, "velocity": 67}, {"time": 109676, "pitch": 46, "duration": 60, "velocity": 107}, {"time": 109676, "pitch": 82, "duration": 60, "velocity": 75}, {"time": 109796, "pitch": 38, "duration": 60, "velocity": 107}, {"time": 109917, "pitch": 35, "duration": 60, "velocity": 107}, {"time": 109917, "pitch": 42, "duration": 60, "velocity": 67}, {"time": 110037, "pitch": 42, "duration": 60, "velocity": 67}, {"time": 110157, "pitch": 46, "duration": 61, "velocity": 107}, {"time": 110157, "pitch": 70, "duration": 61, "velocity": 75}, {"time": 110278, "pitch": 70, "duration": 60, "velocity": 75}, {"time": 110398, "pitch": 38, "duration": 60, "velocity": 107}, {"time": 110398, "pitch": 42, "duration": 60, "velocity": 67}, {"time": 110402, "pitch": 35, "duration": 60, "velocity": 107}, {"time": 110519, "pitch": 42, "duration": 60, "velocity": 67}, {"time": 110639, "pitch": 46, "duration": 60, "velocity": 107}, {"time": 110639, "pitch": 82, "duration": 60, "velocity": 75}, {"time": 110759, "pitch": 38, "duration": 61, "velocity": 107}, {"time": 110759, "pitch": 82, "duration": 61, "velocity": 75}, {"time": 110879, "pitch": 35, "duration": 60, "velocity": 107}, {"time": 110880, "pitch": 42, "duration": 60, "velocity": 67}, {"time": 111000, "pitch": 42, "duration": 60, "velocity": 67}, {"time": 111121, "pitch": 46, "duration": 60, "velocity": 107}, {"time": 111121, "pitch": 70, "duration": 60, "velocity": 75}, {"time": 111241, "pitch": 70, "duration": 60, "velocity": 75}, {"time": 111351, "pitch": 35, "duration": 61, "velocity": 107}, {"time": 111361, "pitch": 38, "duration": 61, "velocity": 107}, {"time": 111361, "pitch": 42, "duration": 61, "velocity": 67}, {"time": 111361, "pitch": 82, "duration": 61, "velocity": 75}, {"time": 111482, "pitch": 42, "duration": 60, "velocity": 67}, {"time": 111482, "pitch": 82, "duration": 60, "velocity": 75}, {"time": 111602, "pitch": 46, "duration": 60, "velocity": 107}, {"time": 111723, "pitch": 38, "duration": 60, "velocity": 107}, {"time": 111723, "pitch": 82, "duration": 60, "velocity": 75}, {"time": 111843, "pitch": 35, "duration": 60, "velocity": 107}, {"time": 111843, "pitch": 42, "duration": 60, "velocity": 67}, {"time": 111843, "pitch": 49, "duration": 60, "velocity": 107}, {"time": 111963, "pitch": 42, "duration": 61, "velocity": 67}, {"time": 112084, "pitch": 46, "duration": 60, "velocity": 107}, {"time": 112084, "pitch": 70, "duration": 60, "velocity": 75}, {"time": 112204, "pitch": 70, "duration": 61, "velocity": 75}, {"time": 112325, "pitch": 38, "duration": 59, "velocity": 107}, {"time": 112325, "pitch": 42, "duration": 59, "velocity": 67}, {"time": 112329, "pitch": 35, "duration": 58, "velocity": 107}, {"time": 112442, "pitch": 42, "duration": 59, "velocity": 67}, {"time": 112560, "pitch": 46, "duration": 59, "velocity": 107}, {"time": 112560, "pitch": 82, "duration": 59, "velocity": 75}, {"time": 112678, "pitch": 38, "duration": 59, "velocity": 107}, {"time": 112678, "pitch": 82, "duration": 59, "velocity": 75}, {"time": 112795, "pitch": 35, "duration": 60, "velocity": 107}, {"time": 112796, "pitch": 42, "duration": 60, "velocity": 67}, {"time": 112916, "pitch": 42, "duration": 60, "velocity": 67}, {"time": 113037, "pitch": 46, "duration": 60, "velocity": 107}, {"time": 113037, "pitch": 70, "duration": 60, "velocity": 75}, {"time": 113157, "pitch": 70, "duration": 60, "velocity": 75}, {"time": 113267, "pitch": 35, "duration": 61, "velocity": 107}, {"time": 113277, "pitch": 38, "duration": 61, "velocity": 107}, {"time": 113277, "pitch": 42, "duration": 61, "velocity": 67}, {"time": 113398, "pitch": 42, "duration": 60, "velocity": 67}, {"time": 113518, "pitch": 46, "duration": 60, "velocity": 107}, {"time": 113518, "pitch": 82, "duration": 60, "velocity": 75}, {"time": 113639, "pitch": 38, "duration": 60, "velocity": 107}, {"time": 113759, "pitch": 35, "duration": 60, "velocity": 107}, {"time": 113759, "pitch": 40, "duration": 40, "velocity": 58}, {"time": 113759, "pitch": 42, "duration": 60, "velocity": 67}, {"time": 113799, "pitch": 40, "duration": 40, "velocity": 59}, {"time": 113839, "pitch": 40, "duration": 40, "velocity": 62}, {"time": 113879, "pitch": 40, "duration": 41, "velocity": 64}, {"time": 113879, "pitch": 42, "duration": 61, "velocity": 67}, {"time": 113920, "pitch": 40, "duration": 40, "velocity": 66}, {"time": 113960, "pitch": 40, "duration": 40, "velocity": 68}, {"time": 114000, "pitch": 40, "duration": 40, "velocity": 69}, {"time": 114000, "pitch": 46, "duration": 60, "velocity": 107}, {"time": 114000, "pitch": 70, "duration": 60, "velocity": 75}, {"time": 114040, "pitch": 40, "duration": 40, "velocity": 72}, {"time": 114080, "pitch": 40, "duration": 40, "velocity": 74}, {"time": 114120, "pitch": 40, "duration": 40, "velocity": 76}, {"time": 114120, "pitch": 70, "duration": 60, "velocity": 75}, {"time": 114160, "pitch": 40, "duration": 41, "velocity": 78}, {"time": 114201, "pitch": 40, "duration": 40, "velocity": 80}, {"time": 114241, "pitch": 38, "duration": 60, "velocity": 107}, {"time": 114241, "pitch": 40, "duration": 40, "velocity": 82}, {"time": 114241, "pitch": 42, "duration": 60, "velocity": 67}, {"time": 114245, "pitch": 35, "duration": 60, "velocity": 107}, {"time": 114281, "pitch": 40, "duration": 40, "velocity": 85}, {"time": 114321, "pitch": 40, "duration": 40, "velocity": 86}, {"time": 114361, "pitch": 40, "duration": 40, "velocity": 88}, {"time": 114361, "pitch": 42, "duration": 60, "velocity": 67}, {"time": 114401, "pitch": 40, "duration": 40, "velocity": 90}, {"time": 114441, "pitch": 40, "duration": 40, "velocity": 92}, {"time": 114481, "pitch": 40, "duration": 41, "velocity": 95}, {"time": 114481, "pitch": 46, "duration": 61, "velocity": 107}, {"time": 114481, "pitch": 82, "duration": 61, "velocity": 75}, {"time": 114522, "pitch": 40, "duration": 40, "velocity": 96}, {"time": 114562, "pitch": 40, "duration": 40, "velocity": 99}, {"time": 114602, "pitch": 38, "duration": 60, "velocity": 107}, {"time": 114602, "pitch": 40, "duration": 40, "velocity": 100}, {"time": 114602, "pitch": 82, "duration": 60, "velocity": 75}, {"time": 114642, "pitch": 40, "duration": 40, "velocity": 102}, {"time": 114682, "pitch": 40, "duration": 40, "velocity": 105}, {"time": 114721, "pitch": 35, "duration": 60, "velocity": 107}, {"time": 114722, "pitch": 40, "duration": 40, "velocity": 106}, {"time": 114722, "pitch": 42, "duration": 60, "velocity": 67}, {"time": 114762, "pitch": 40, "duration": 41, "velocity": 109}, {"time": 114803, "pitch": 40, "duration": 40, "velocity": 110}, {"time": 114843, "pitch": 40, "duration": 40, "velocity": 113}, {"time": 114843, "pitch": 42, "duration": 60, "velocity": 67}, {"time": 114883, "pitch": 40, "duration": 40, "velocity": 115}, {"time": 114923, "pitch": 40, "duration": 40, "velocity": 116}, {"time": 114963, "pitch": 40, "duration": 40, "velocity": 119}, {"time": 114963, "pitch": 46, "duration": 60, "velocity": 107}, {"time": 114963, "pitch": 70, "duration": 60, "velocity": 75}, {"time": 115003, "pitch": 40, "duration": 40, "velocity": 120}, {"time": 115043, "pitch": 40, "duration": 40, "velocity": 123}, {"time": 115083, "pitch": 40, "duration": 41, "velocity": 125}, {"time": 115083, "pitch": 70, "duration": 61, "velocity": 75}, {"time": 115124, "pitch": 40, "duration": 40, "velocity": 127}, {"time": 115164, "pitch": 40, "duration": 40, "velocity": 127}, {"time": 115194, "pitch": 35, "duration": 59, "velocity": 107}, {"time": 115204, "pitch": 38, "duration": 59, "velocity": 107}, {"time": 115204, "pitch": 40, "duration": 59, "velocity": 127}, {"time": 115204, "pitch": 42, "duration": 59, "velocity": 67}, {"time": 115322, "pitch": 40, "duration": 59, "velocity": 127}, {"time": 115322, "pitch": 42, "duration": 59, "velocity": 67}, {"time": 115439, "pitch": 40, "duration": 59, "velocity": 127}, {"time": 115439, "pitch": 46, "duration": 59, "velocity": 107}, {"time": 115439, "pitch": 82, "duration": 59, "velocity": 75}, {"time": 115557, "pitch": 38, "duration": 59, "velocity": 107}, {"time": 115557, "pitch": 40, "duration": 59, "velocity": 127}, {"time": 115675, "pitch": 35, "duration": 60, "velocity": 107}, {"time": 115675, "pitch": 42, "duration": 60, "velocity": 67}, {"time": 115675, "pitch": 49, "duration": 60, "velocity": 107}, {"time": 115795, "pitch": 42, "duration": 61, "velocity": 67}, {"time": 115916, "pitch": 46, "duration": 60, "velocity": 107}, {"time": 115916, "pitch": 70, "duration": 60, "velocity": 75}, {"time": 116036, "pitch": 70, "duration": 60, "velocity": 75}, {"time": 116157, "pitch": 38, "duration": 60, "velocity": 107}, {"time": 116157, "pitch": 42, "duration": 60, "velocity": 67}, {"time": 116161, "pitch": 35, "duration": 60, "velocity": 107}, {"time": 116277, "pitch": 42, "duration": 60, "velocity": 67}, {"time": 116397, "pitch": 46, "duration": 61, "velocity": 107}, {"time": 116397, "pitch": 82, "duration": 61, "velocity": 75}, {"time": 116518, "pitch": 38, "duration": 60, "velocity": 107}, {"time": 116518, "pitch": 82, "duration": 60, "velocity": 75}, {"time": 116637, "pitch": 35, "duration": 60, "velocity": 107}, {"time": 116638, "pitch": 42, "duration": 60, "velocity": 67}, {"time": 116759, "pitch": 42, "duration": 60, "velocity": 67}, {"time": 116879, "pitch": 46, "duration": 60, "velocity": 107}, {"time": 116879, "pitch": 70, "duration": 60, "velocity": 75}, {"time": 116999, "pitch": 70, "duration": 61, "velocity": 75}, {"time": 117110, "pitch": 35, "duration": 60, "velocity": 107}, {"time": 117120, "pitch": 38, "duration": 60, "velocity": 107}, {"time": 117120, "pitch": 42, "duration": 60, "velocity": 67}, {"time": 117240, "pitch": 42, "duration": 60, "velocity": 67}, {"time": 117361, "pitch": 46, "duration": 60, "velocity": 107}, {"time": 117361, "pitch": 82, "duration": 60, "velocity": 75}, {"time": 117481, "pitch": 38, "duration": 60, "velocity": 107}, {"time": 117601, "pitch": 35, "duration": 61, "velocity": 107}, {"time": 117601, "pitch": 42, "duration": 61, "velocity": 67}, {"time": 117722, "pitch": 42, "duration": 60, "velocity": 67}, {"time": 117842, "pitch": 46, "duration": 60, "velocity": 107}, {"time": 117842, "pitch": 70, "duration": 60, "velocity": 75}, {"time": 117963, "pitch": 70, "duration": 60, "velocity": 75}, {"time": 118083, "pitch": 38, "duration": 60, "velocity": 107}, {"time": 118083, "pitch": 42, "duration": 60, "velocity": 67}, {"time": 118087, "pitch": 35, "duration": 60, "velocity": 107}, {"time": 118203, "pitch": 42, "duration": 61, "velocity": 67}, {"time": 118324, "pitch": 46, "duration": 60, "velocity": 107}, {"time": 118324, "pitch": 82, "duration": 60, "velocity": 75}, {"time": 118444, "pitch": 38, "duration": 60, "velocity": 107}, {"time": 118444, "pitch": 82, "duration": 60, "velocity": 75}, {"time": 118564, "pitch": 35, "duration": 59, "velocity": 107}, {"time": 118565, "pitch": 42, "duration": 59, "velocity": 67}, {"time": 118682, "pitch": 42, "duration": 59, "velocity": 67}, {"time": 118800, "pitch": 46, "duration": 59, "velocity": 107}, {"time": 118800, "pitch": 70, "duration": 59, "velocity": 75}, {"time": 118918, "pitch": 70, "duration": 59, "velocity": 75}, {"time": 119026, "pitch": 35, "duration": 60, "velocity": 107}, {"time": 119036, "pitch": 38, "duration": 60, "velocity": 107}, {"time": 119036, "pitch": 42, "duration": 60, "velocity": 67}, {"time": 119156, "pitch": 42, "duration": 60, "velocity": 67}, {"time": 119277, "pitch": 46, "duration": 60, "velocity": 107}, {"time": 119277, "pitch": 82, "duration": 60, "velocity": 75}, {"time": 119397, "pitch": 38, "duration": 60, "velocity": 107}, {"time": 119517, "pitch": 35, "duration": 61, "velocity": 107}, {"time": 119517, "pitch": 42, "duration": 61, "velocity": 67}, {"time": 119638, "pitch": 42, "duration": 60, "velocity": 67}, {"time": 119758, "pitch": 46, "duration": 60, "velocity": 107}, {"time": 119758, "pitch": 70, "duration": 60, "velocity": 75}, {"time": 119879, "pitch": 70, "duration": 60, "velocity": 75}, {"time": 119999, "pitch": 38, "duration": 60, "velocity": 107}, {"time": 119999, "pitch": 42, "duration": 60, "velocity": 67}, {"time": 120003, "pitch": 35, "duration": 60, "velocity": 107}, {"time": 120119, "pitch": 42, "duration": 61, "velocity": 67}, {"time": 120240, "pitch": 46, "duration": 60, "velocity": 107}, {"time": 120240, "pitch": 82, "duration": 60, "velocity": 75}, {"time": 120360, "pitch": 38, "duration": 60, "velocity": 107}, {"time": 120360, "pitch": 82, "duration": 60, "velocity": 75}, {"time": 120480, "pitch": 35, "duration": 60, "velocity": 107}, {"time": 120481, "pitch": 42, "duration": 60, "velocity": 67}, {"time": 120601, "pitch": 42, "duration": 60, "velocity": 67}, {"time": 120721, "pitch": 46, "duration": 61, "velocity": 107}, {"time": 120721, "pitch": 70, "duration": 61, "velocity": 75}, {"time": 120842, "pitch": 70, "duration": 60, "velocity": 75}, {"time": 120952, "pitch": 35, "duration": 60, "velocity": 107}, {"time": 120962, "pitch": 38, "duration": 60, "velocity": 107}, {"time": 120962, "pitch": 42, "duration": 60, "velocity": 67}, {"time": 121083, "pitch": 42, "duration": 60, "velocity": 67}, {"time": 121203, "pitch": 46, "duration": 60, "velocity": 107}, {"time": 121203, "pitch": 82, "duration": 60, "velocity": 75}, {"time": 121323, "pitch": 38, "duration": 61, "velocity": 107}, {"time": 121444, "pitch": 35, "duration": 59, "velocity": 107}, {"time": 121444, "pitch": 42, "duration": 59, "velocity": 67}, {"time": 121562, "pitch": 42, "duration": 59, "velocity": 67}, {"time": 121679, "pitch": 46, "duration": 59, "velocity": 107}, {"time": 121679, "pitch": 70, "duration": 59, "velocity": 75}, {"time": 121797, "pitch": 70, "duration": 59, "velocity": 75}, {"time": 121915, "pitch": 38, "duration": 60, "velocity": 107}, {"time": 121915, "pitch": 42, "duration": 60, "velocity": 67}, {"time": 121919, "pitch": 35, "duration": 60, "velocity": 107}, {"time": 122035, "pitch": 42, "duration": 61, "velocity": 67}, {"time": 122156, "pitch": 46, "duration": 60, "velocity": 107}, {"time": 122156, "pitch": 82, "duration": 60, "velocity": 75}, {"time": 122276, "pitch": 38, "duration": 60, "velocity": 107}, {"time": 122276, "pitch": 82, "duration": 60, "velocity": 75}, {"time": 122396, "pitch": 35, "duration": 60, "velocity": 107}, {"time": 122397, "pitch": 42, "duration": 60, "velocity": 67}, {"time": 122517, "pitch": 42, "duration": 60, "velocity": 67}, {"time": 122637, "pitch": 38, "duration": 61, "velocity": 107}, {"time": 122637, "pitch": 46, "duration": 61, "velocity": 107}, {"time": 122637, "pitch": 70, "duration": 61, "velocity": 75}, {"time": 122758, "pitch": 70, "duration": 60, "velocity": 75}, {"time": 122868, "pitch": 35, "duration": 60, "velocity": 107}, {"time": 122878, "pitch": 38, "duration": 60, "velocity": 107}, {"time": 122878, "pitch": 42, "duration": 60, "velocity": 67}, {"time": 122878, "pitch": 82, "duration": 60, "velocity": 75}, {"time": 122999, "pitch": 38, "duration": 60, "velocity": 107}, {"time": 122999, "pitch": 42, "duration": 60, "velocity": 67}, {"time": 122999, "pitch": 82, "duration": 60, "velocity": 75}, {"time": 123119, "pitch": 46, "duration": 60, "velocity": 107}, {"time": 123239, "pitch": 38, "duration": 61, "velocity": 107}, {"time": 123239, "pitch": 82, "duration": 61, "velocity": 75}, {"time": 123360, "pitch": 35, "duration": 60, "velocity": 107}, {"time": 123360, "pitch": 42, "duration": 60, "velocity": 67}, {"time": 123360, "pitch": 49, "duration": 60, "velocity": 107}, {"time": 123480, "pitch": 42, "duration": 60, "velocity": 67}, {"time": 123601, "pitch": 46, "duration": 60, "velocity": 107}, {"time": 123601, "pitch": 70, "duration": 60, "velocity": 75}, {"time": 123721, "pitch": 70, "duration": 60, "velocity": 75}, {"time": 123841, "pitch": 38, "duration": 61, "velocity": 107}, {"time": 123841, "pitch": 42, "duration": 61, "velocity": 67}, {"time": 123845, "pitch": 35, "duration": 61, "velocity": 107}, {"time": 123962, "pitch": 42, "duration": 60, "velocity": 67}, {"time": 124082, "pitch": 46, "duration": 60, "velocity": 107}, {"time": 124082, "pitch": 82, "duration": 60, "velocity": 75}, {"time": 124203, "pitch": 38, "duration": 60, "velocity": 107}, {"time": 124203, "pitch": 82, "duration": 60, "velocity": 75}, {"time": 124322, "pitch": 35, "duration": 60, "velocity": 107}, {"time": 124323, "pitch": 42, "duration": 60, "velocity": 67}, {"time": 124443, "pitch": 42, "duration": 61, "velocity": 67}, {"time": 124564, "pitch": 46, "duration": 60, "velocity": 107}, {"time": 124564, "pitch": 70, "duration": 60, "velocity": 75}, {"time": 124684, "pitch": 70, "duration": 60, "velocity": 75}, {"time": 124795, "pitch": 35, "duration": 59, "velocity": 107}, {"time": 124805, "pitch": 38, "duration": 59, "velocity": 107}, {"time": 124805, "pitch": 42, "duration": 59, "velocity": 67}, {"time": 124922, "pitch": 42, "duration": 59, "velocity": 67}, {"time": 125040, "pitch": 46, "duration": 59, "velocity": 107}, {"time": 125040, "pitch": 82, "duration": 59, "velocity": 75}, {"time": 125158, "pitch": 38, "duration": 59, "velocity": 107}, {"time": 125276, "pitch": 35, "duration": 60, "velocity": 107}, {"time": 125276, "pitch": 42, "duration": 60, "velocity": 67}, {"time": 125396, "pitch": 42, "duration": 60, "velocity": 67}, {"time": 125517, "pitch": 46, "duration": 60, "velocity": 107}, {"time": 125517, "pitch": 70, "duration": 60, "velocity": 75}, {"time": 125637, "pitch": 70, "duration": 60, "velocity": 75}, {"time": 125757, "pitch": 38, "duration": 61, "velocity": 107}, {"time": 125757, "pitch": 42, "duration": 61, "velocity": 67}, {"time": 125761, "pitch": 35, "duration": 61, "velocity": 107}, {"time": 125878, "pitch": 42, "duration": 60, "velocity": 67}, {"time": 125998, "pitch": 46, "duration": 60, "velocity": 107}, {"time": 125998, "pitch": 82, "duration": 60, "velocity": 75}, {"time": 126119, "pitch": 38, "duration": 60, "velocity": 107}, {"time": 126119, "pitch": 82, "duration": 60, "velocity": 75}, {"time": 126238, "pitch": 35, "duration": 60, "velocity": 107}, {"time": 126239, "pitch": 42, "duration": 60, "velocity": 67}, {"time": 126359, "pitch": 42, "duration": 61, "velocity": 67}, {"time": 126480, "pitch": 46, "duration": 60, "velocity": 107}, {"time": 126480, "pitch": 70, "duration": 60, "velocity": 75}, {"time": 126600, "pitch": 70, "duration": 60, "velocity": 75}, {"time": 126711, "pitch": 35, "duration": 60, "velocity": 107}, {"time": 126721, "pitch": 38, "duration": 60, "velocity": 107}, {"time": 126721, "pitch": 42, "duration": 60, "velocity": 67}, {"time": 126841, "pitch": 42, "duration": 60, "velocity": 67}, {"time": 126961, "pitch": 46, "duration": 61, "velocity": 107}, {"time": 126961, "pitch": 82, "duration": 61, "velocity": 75}, {"time": 127082, "pitch": 38, "duration": 60, "velocity": 107}, {"time": 127202, "pitch": 35, "duration": 60, "velocity": 107}, {"time": 127202, "pitch": 42, "duration": 60, "velocity": 67}, {"time": 127323, "pitch": 42, "duration": 60, "velocity": 67}, {"time": 127443, "pitch": 46, "duration": 60, "velocity": 107}, {"time": 127443, "pitch": 70, "duration": 60, "velocity": 75}, {"time": 127563, "pitch": 70, "duration": 61, "velocity": 75}, {"time": 127684, "pitch": 38, "duration": 59, "velocity": 107}, {"time": 127684, "pitch": 42, "duration": 59, "velocity": 67}, {"time": 127688, "pitch": 35, "duration": 59, "velocity": 107}, {"time": 127802, "pitch": 42, "duration": 59, "velocity": 67}, {"time": 127919, "pitch": 46, "duration": 59, "velocity": 107}, {"time": 127919, "pitch": 82, "duration": 59, "velocity": 75}, {"time": 128037, "pitch": 38, "duration": 59, "velocity": 107}, {"time": 128037, "pitch": 82, "duration": 59, "velocity": 75}, {"time": 128154, "pitch": 35, "duration": 60, "velocity": 107}, {"time": 128155, "pitch": 42, "duration": 60, "velocity": 67}, {"time": 128275, "pitch": 42, "duration": 61, "velocity": 67}, {"time": 128396, "pitch": 46, "duration": 60, "velocity": 107}, {"time": 128396, "pitch": 70, "duration": 60, "velocity": 75}, {"time": 128516, "pitch": 70, "duration": 60, "velocity": 75}, {"time": 128627, "pitch": 35, "duration": 60, "velocity": 107}, {"time": 128637, "pitch": 38, "duration": 60, "velocity": 107}, {"time": 128637, "pitch": 42, "duration": 60, "velocity": 67}, {"time": 128757, "pitch": 42, "duration": 60, "velocity": 67}, {"time": 128877, "pitch": 46, "duration": 61, "velocity": 107}, {"time": 128877, "pitch": 82, "duration": 61, "velocity": 75}, {"time": 128998, "pitch": 38, "duration": 60, "velocity": 107}, {"time": 129118, "pitch": 35, "duration": 60, "velocity": 107}, {"time": 129118, "pitch": 40, "duration": 60, "velocity": 78}, {"time": 129118, "pitch": 42, "duration": 60, "velocity": 67}, {"time": 129239, "pitch": 40, "duration": 60, "velocity": 81}, {"time": 129239, "pitch": 42, "duration": 60, "velocity": 67}, {"time": 129359, "pitch": 40, "duration": 60, "velocity": 85}, {"time": 129359, "pitch": 46, "duration": 60, "velocity": 107}, {"time": 129359, "pitch": 70, "duration": 60, "velocity": 75}, {"time": 129479, "pitch": 40, "duration": 61, "velocity": 88}, {"time": 129479, "pitch": 70, "duration": 61, "velocity": 75}, {"time": 129600, "pitch": 38, "duration": 60, "velocity": 107}, {"time": 129600, "pitch": 40, "duration": 60, "velocity": 92}, {"time": 129600, "pitch": 42, "duration": 60, "velocity": 67}, {"time": 129604, "pitch": 35, "duration": 60, "velocity": 107}, {"time": 129720, "pitch": 40, "duration": 60, "velocity": 96}, {"time": 129720, "pitch": 42, "duration": 60, "velocity": 67}, {"time": 129841, "pitch": 40, "duration": 60, "velocity": 99}, {"time": 129841, "pitch": 46, "duration": 60, "velocity": 107}, {"time": 129841, "pitch": 82, "duration": 60, "velocity": 75}, {"time": 129961, "pitch": 38, "duration": 60, "velocity": 107}, {"time": 129961, "pitch": 40, "duration": 60, "velocity": 102}, {"time": 129961, "pitch": 82, "duration": 60, "velocity": 75}, {"time": 130080, "pitch": 35, "duration": 61, "velocity": 107}, {"time": 130081, "pitch": 40, "duration": 61, "velocity": 106}, {"time": 130081, "pitch": 42, "duration": 61, "velocity": 67}, {"time": 130202, "pitch": 40, "duration": 60, "velocity": 110}, {"time": 130202, "pitch": 42, "duration": 60, "velocity": 67}, {"time": 130322, "pitch": 38, "duration": 60, "velocity": 107}, {"time": 130322, "pitch": 40, "duration": 60, "velocity": 114}, {"time": 130322, "pitch": 46, "duration": 60, "velocity": 107}, {"time": 130322, "pitch": 70, "duration": 60, "velocity": 75}, {"time": 130443, "pitch": 40, "duration": 60, "velocity": 118}, {"time": 130443, "pitch": 70, "duration": 60, "velocity": 75}, {"time": 130553, "pitch": 35, "duration": 60, "velocity": 107}, {"time": 130563, "pitch": 38, "duration": 60, "velocity": 107}, {"time": 130563, "pitch": 40, "duration": 60, "velocity": 127}, {"time": 130563, "pitch": 42, "duration": 60, "velocity": 67}, {"time": 130563, "pitch": 82, "duration": 60, "velocity": 75}, {"time": 130683, "pitch": 38, "duration": 61, "velocity": 107}, {"time": 130683, "pitch": 40, "duration": 61, "velocity": 127}, {"time": 130683, "pitch": 42, "duration": 61, "velocity": 67}, {"time": 130683, "pitch": 82, "duration": 61, "velocity": 75}, {"time": 130804, "pitch": 40, "duration": 60, "velocity": 127}, {"time": 130804, "pitch": 46, "duration": 60, "velocity": 107}, {"time": 130924, "pitch": 38, "duration": 60, "velocity": 107}, {"time": 130924, "pitch": 40, "duration": 60, "velocity": 127}, {"time": 130924, "pitch": 82, "duration": 60, "velocity": 75}, {"time": 131045, "pitch": 35, "duration": 59, "velocity": 107}, {"time": 131045, "pitch": 42, "duration": 59, "velocity": 67}, {"time": 131045, "pitch": 49, "duration": 59, "velocity": 107}, {"time": 131162, "pitch": 42, "duration": 59, "velocity": 67}, {"time": 131280, "pitch": 46, "duration": 59, "velocity": 107}, {"time": 131280, "pitch": 70, "duration": 59, "velocity": 75}, {"time": 131398, "pitch": 70, "duration": 59, "velocity": 75}, {"time": 131516, "pitch": 38, "duration": 60, "velocity": 107}, {"time": 131516, "pitch": 42, "duration": 60, "velocity": 67}, {"time": 131520, "pitch": 35, "duration": 60, "velocity": 107}, {"time": 131636, "pitch": 42, "duration": 60, "velocity": 67}, {"time": 131757, "pitch": 46, "duration": 60, "velocity": 107}, {"time": 131757, "pitch": 82, "duration": 60, "velocity": 75}, {"time": 131877, "pitch": 38, "duration": 60, "velocity": 107}, {"time": 131877, "pitch": 82, "duration": 60, "velocity": 75}, {"time": 131996, "pitch": 35, "duration": 61, "velocity": 107}, {"time": 131997, "pitch": 42, "duration": 61, "velocity": 67}, {"time": 132118, "pitch": 42, "duration": 60, "velocity": 67}, {"time": 132238, "pitch": 46, "duration": 60, "velocity": 107}, {"time": 132238, "pitch": 70, "duration": 60, "velocity": 75}, {"time": 132359, "pitch": 70, "duration": 60, "velocity": 75}, {"time": 132469, "pitch": 35, "duration": 60, "velocity": 107}, {"time": 132479, "pitch": 38, "duration": 60, "velocity": 107}, {"time": 132479, "pitch": 42, "duration": 60, "velocity": 67}, {"time": 132599, "pitch": 42, "duration": 61, "velocity": 67}, {"time": 132720, "pitch": 46, "duration": 60, "velocity": 107}, {"time": 132720, "pitch": 82, "duration": 60, "velocity": 75}, {"time": 132840, "pitch": 38, "duration": 60, "velocity": 107}, {"time": 132961, "pitch": 35, "duration": 60, "velocity": 107}, {"time": 132961, "pitch": 42, "duration": 60, "velocity": 67}, {"time": 133081, "pitch": 42, "duration": 60, "velocity": 67}, {"time": 133201, "pitch": 46, "duration": 61, "velocity": 107}, {"time": 133201, "pitch": 70, "duration": 61, "velocity": 75}, {"time": 133322, "pitch": 70, "duration": 60, "velocity": 75}, {"time": 133442, "pitch": 38, "duration": 60, "velocity": 107}, {"time": 133442, "pitch": 42, "duration": 60, "velocity": 67}, {"time": 133446, "pitch": 35, "duration": 60, "velocity": 107}, {"time": 133563, "pitch": 42, "duration": 60, "velocity": 67}, {"time": 133683, "pitch": 46, "duration": 60, "velocity": 107}, {"time": 133683, "pitch": 82, "duration": 60, "velocity": 75}, {"time": 133803, "pitch": 38, "duration": 61, "velocity": 107}, {"time": 133803, "pitch": 82, "duration": 61, "velocity": 75}, {"time": 133923, "pitch": 35, "duration": 59, "velocity": 107}, {"time": 133924, "pitch": 42, "duration": 59, "velocity": 67}, {"time": 134042, "pitch": 42, "duration": 59, "velocity": 67}, {"time": 134159, "pitch": 46, "duration": 59, "velocity": 107}, {"time": 134159, "pitch": 70, "duration": 59, "velocity": 75}, {"time": 134277, "pitch": 70, "duration": 59, "velocity": 75}, {"time": 134385, "pitch": 35, "duration": 60, "velocity": 107}, {"time": 134395, "pitch": 38, "duration": 60, "velocity": 107}, {"time": 134395, "pitch": 42, "duration": 60, "velocity": 67}, {"time": 134515, "pitch": 42, "duration": 61, "velocity": 67}, {"time": 134636, "pitch": 46, "duration": 60, "velocity": 107}, {"time": 134636, "pitch": 82, "duration": 60, "velocity": 75}, {"time": 134756, "pitch": 38, "duration": 60, "velocity": 107}, {"time": 134877, "pitch": 35, "duration": 60, "velocity": 107}, {"time": 134877, "pitch": 42, "duration": 60, "velocity": 67}, {"time": 134997, "pitch": 42, "duration": 60, "velocity": 67}, {"time": 135117, "pitch": 46, "duration": 61, "velocity": 107}, {"time": 135117, "pitch": 70, "duration": 61, "velocity": 75}, {"time": 135238, "pitch": 70, "duration": 60, "velocity": 75}, {"time": 135358, "pitch": 38, "duration": 60, "velocity": 107}, {"time": 135358, "pitch": 42, "duration": 60, "velocity": 67}, {"time": 135362, "pitch": 35, "duration": 60, "velocity": 107}, {"time": 135479, "pitch": 42, "duration": 60, "velocity": 67}, {"time": 135599, "pitch": 46, "duration": 60, "velocity": 107}, {"time": 135599, "pitch": 82, "duration": 60, "velocity": 75}, {"time": 135719, "pitch": 38, "duration": 61, "velocity": 107}, {"time": 135719, "pitch": 82, "duration": 61, "velocity": 75}, {"time": 135839, "pitch": 35, "duration": 60, "velocity": 107}, {"time": 135840, "pitch": 42, "duration": 60, "velocity": 67}, {"time": 135960, "pitch": 42, "duration": 60, "velocity": 67}, {"time": 136081, "pitch": 46, "duration": 60, "velocity": 107}, {"time": 136081, "pitch": 70, "duration": 60, "velocity": 75}, {"time": 136201, "pitch": 70, "duration": 60, "velocity": 75}, {"time": 136311, "pitch": 35, "duration": 61, "velocity": 107}, {"time": 136321, "pitch": 38, "duration": 61, "velocity": 107}, {"time": 136321, "pitch": 42, "duration": 61, "velocity": 67}, {"time": 136442, "pitch": 42, "duration": 60, "velocity": 67}, {"time": 136562, "pitch": 46, "duration": 60, "velocity": 107}, {"time": 136562, "pitch": 82, "duration": 60, "velocity": 75}, {"time": 136683, "pitch": 38, "duration": 60, "velocity": 107}, {"time": 136803, "pitch": 35, "duration": 60, "velocity": 107}, {"time": 136803, "pitch": 42, "duration": 60, "velocity": 67}, {"time": 136923, "pitch": 42, "duration": 61, "velocity": 67}, {"time": 137044, "pitch": 46, "duration": 60, "velocity": 107}, {"time": 137044, "pitch": 70, "duration": 60, "velocity": 75}, {"time": 137164, "pitch": 70, "duration": 60, "velocity": 75}, {"time": 137285, "pitch": 38, "duration": 58, "velocity": 107}, {"time": 137285, "pitch": 42, "duration": 58, "velocity": 67}, {"time": 137289, "pitch": 35, "duration": 58, "velocity": 107}, {"time": 137402, "pitch": 42, "duration": 59, "velocity": 67}, {"time": 137520, "pitch": 46, "duration": 59, "velocity": 107}, {"time": 137520, "pitch": 82, "duration": 59, "velocity": 75}, {"time": 137638, "pitch": 38, "duration": 59, "velocity": 107}, {"time": 137638, "pitch": 82, "duration": 59, "velocity": 75}, {"time": 137755, "pitch": 35, "duration": 60, "velocity": 107}, {"time": 137756, "pitch": 42, "duration": 60, "velocity": 67}, {"time": 137876, "pitch": 42, "duration": 60, "velocity": 67}, {"time": 137997, "pitch": 38, "duration": 60, "velocity": 107}, {"time": 137997, "pitch": 46, "duration": 60, "velocity": 107}, {"time": 137997, "pitch": 70, "duration": 60, "velocity": 75}, {"time": 138117, "pitch": 70, "duration": 60, "velocity": 75}, {"time": 138227, "pitch": 35, "duration": 61, "velocity": 107}, {"time": 138237, "pitch": 38, "duration": 61, "velocity": 107}, {"time": 138237, "pitch": 42, "duration": 61, "velocity": 67}, {"time": 138237, "pitch": 82, "duration": 61, "velocity": 75}, {"time": 138358, "pitch": 38, "duration": 60, "velocity": 107}, {"time": 138358, "pitch": 42, "duration": 60, "velocity": 67}, {"time": 138358, "pitch": 82, "duration": 60, "velocity": 75}, {"time": 138478, "pitch": 46, "duration": 60, "velocity": 107}, {"time": 138599, "pitch": 38, "duration": 60, "velocity": 107}, {"time": 138599, "pitch": 82, "duration": 60, "velocity": 75}, {"time": 138719, "pitch": 35, "duration": 60, "velocity": 107}, {"time": 138719, "pitch": 42, "duration": 60, "velocity": 67}, {"time": 138719, "pitch": 49, "duration": 60, "velocity": 107}, {"time": 138839, "pitch": 42, "duration": 61, "velocity": 67}, {"time": 138960, "pitch": 46, "duration": 60, "velocity": 107}, {"time": 138960, "pitch": 70, "duration": 60, "velocity": 75}, {"time": 139080, "pitch": 70, "duration": 60, "velocity": 75}, {"time": 139201, "pitch": 38, "duration": 60, "velocity": 107}, {"time": 139201, "pitch": 42, "duration": 60, "velocity": 67}, {"time": 139205, "pitch": 35, "duration": 60, "velocity": 107}, {"time": 139321, "pitch": 42, "duration": 60, "velocity": 67}, {"time": 139441, "pitch": 46, "duration": 61, "velocity": 107}, {"time": 139441, "pitch": 82, "duration": 61, "velocity": 75}, {"time": 139562, "pitch": 38, "duration": 60, "velocity": 107}, {"time": 139562, "pitch": 82, "duration": 60, "velocity": 75}, {"time": 139681, "pitch": 35, "duration": 60, "velocity": 107}, {"time": 139682, "pitch": 42, "duration": 60, "velocity": 67}, {"time": 139803, "pitch": 42, "duration": 60, "velocity": 67}, {"time": 139923, "pitch": 46, "duration": 60, "velocity": 107}, {"time": 139923, "pitch": 70, "duration": 60, "velocity": 75}, {"time": 140043, "pitch": 70, "duration": 61, "velocity": 75}, {"time": 140154, "pitch": 35, "duration": 59, "velocity": 107}, {"time": 140164, "pitch": 38, "duration": 59, "velocity": 107}, {"time": 140164, "pitch": 42, "duration": 59, "velocity": 67}, {"time": 140282, "pitch": 42, "duration": 59, "velocity": 67}, {"time": 140399, "pitch": 46, "duration": 59, "velocity": 107}, {"time": 140399, "pitch": 82, "duration": 59, "velocity": 75}, {"time": 140517, "pitch": 38, "duration": 59, "velocity": 107}, {"time": 140635, "pitch": 35, "duration": 60, "velocity": 107}, {"time": 140635, "pitch": 42, "duration": 60, "velocity": 67}, {"time": 140755, "pitch": 42, "duration": 61, "velocity": 67}, {"time": 140876, "pitch": 46, "duration": 60, "velocity": 107}, {"time": 140876, "pitch": 70, "duration": 60, "velocity": 75}, {"time": 140996, "pitch": 70, "duration": 60, "velocity": 75}, {"time": 141117, "pitch": 38, "duration": 60, "velocity": 107}, {"time": 141117, "pitch": 42, "duration": 60, "velocity": 67}, {"time": 141121, "pitch": 35, "duration": 60, "velocity": 107}, {"time": 141237, "pitch": 42, "duration": 60, "velocity": 67}, {"time": 141357, "pitch": 46, "duration": 61, "velocity": 107}, {"time": 141357, "pitch": 82, "duration": 61, "velocity": 75}, {"time": 141478, "pitch": 38, "duration": 60, "velocity": 107}, {"time": 141478, "pitch": 82, "duration": 60, "velocity": 75}, {"time": 141597, "pitch": 35, "duration": 60, "velocity": 107}, {"time": 141598, "pitch": 42, "duration": 60, "velocity": 67}, {"time": 141719, "pitch": 42, "duration": 60, "velocity": 67}, {"time": 141839, "pitch": 46, "duration": 60, "velocity": 107}, {"time": 141839, "pitch": 70, "duration": 60, "velocity": 75}, {"time": 141959, "pitch": 70, "duration": 61, "velocity": 75}, {"time": 142070, "pitch": 35, "duration": 60, "velocity": 107}, {"time": 142080, "pitch": 38, "duration": 60, "velocity": 107}, {"time": 142080, "pitch": 42, "duration": 60, "velocity": 67}, {"time": 142200, "pitch": 42, "duration": 60, "velocity": 67}, {"time": 142321, "pitch": 46, "duration": 60, "velocity": 107}, {"time": 142321, "pitch": 82, "duration": 60, "velocity": 75}, {"time": 142441, "pitch": 38, "duration": 60, "velocity": 107}, {"time": 142561, "pitch": 35, "duration": 61, "velocity": 107}, {"time": 142561, "pitch": 42, "duration": 61, "velocity": 67}, {"time": 142682, "pitch": 42, "duration": 60, "velocity": 67}, {"time": 142802, "pitch": 46, "duration": 60, "velocity": 107}, {"time": 142802, "pitch": 70, "duration": 60, "velocity": 75}, {"time": 142923, "pitch": 70, "duration": 60, "velocity": 75}, {"time": 143043, "pitch": 38, "duration": 60, "velocity": 107}, {"time": 143043, "pitch": 42, "duration": 60, "velocity": 67}, {"time": 143047, "pitch": 35, "duration": 60, "velocity": 107}, {"time": 143163, "pitch": 42, "duration": 61, "velocity": 67}, {"time": 143284, "pitch": 46, "duration": 60, "velocity": 107}, {"time": 143284, "pitch": 82, "duration": 60, "velocity": 75}, {"time": 143404, "pitch": 38, "duration": 60, "velocity": 107}, {"time": 143404, "pitch": 82, "duration": 60, "velocity": 75}, {"time": 143524, "pitch": 35, "duration": 59, "velocity": 107}, {"time": 143525, "pitch": 42, "duration": 58, "velocity": 67}, {"time": 143642, "pitch": 42, "duration": 59, "velocity": 67}, {"time": 143760, "pitch": 46, "duration": 59, "velocity": 107}, {"time": 143760, "pitch": 70, "duration": 59, "velocity": 75}, {"time": 143878, "pitch": 70, "duration": 59, "velocity": 75}, {"time": 143986, "pitch": 35, "duration": 60, "velocity": 107}, {"time": 143996, "pitch": 38, "duration": 60, "velocity": 107}, {"time": 143996, "pitch": 42, "duration": 60, "velocity": 67}, {"time": 144116, "pitch": 42, "duration": 60, "velocity": 67}, {"time": 144237, "pitch": 46, "duration": 60, "velocity": 107}, {"time": 144237, "pitch": 82, "duration": 60, "velocity": 75}, {"time": 144357, "pitch": 38, "duration": 60, "velocity": 107}, {"time": 144477, "pitch": 35, "duration": 61, "velocity": 107}, {"time": 144477, "pitch": 42, "duration": 61, "velocity": 67}, {"time": 144598, "pitch": 42, "duration": 60, "velocity": 67}, {"time": 144718, "pitch": 46, "duration": 60, "velocity": 107}, {"time": 144718, "pitch": 70, "duration": 60, "velocity": 75}, {"time": 144839, "pitch": 70, "duration": 60, "velocity": 75}, {"time": 144959, "pitch": 38, "duration": 60, "velocity": 107}, {"time": 144959, "pitch": 42, "duration": 60, "velocity": 67}, {"time": 144963, "pitch": 35, "duration": 60, "velocity": 107}, {"time": 145079, "pitch": 42, "duration": 61, "velocity": 67}, {"time": 145200, "pitch": 46, "duration": 60, "velocity": 107}, {"time": 145200, "pitch": 82, "duration": 60, "velocity": 75}, {"time": 145320, "pitch": 38, "duration": 60, "velocity": 107}, {"time": 145320, "pitch": 82, "duration": 60, "velocity": 75}, {"time": 145440, "pitch": 35, "duration": 60, "velocity": 107}, {"time": 145441, "pitch": 40, "duration": 60, "velocity": 127}, {"time": 145441, "pitch": 42, "duration": 60, "velocity": 67}, {"time": 145521, "pitch": 40, "duration": 60, "velocity": 127}, {"time": 145561, "pitch": 42, "duration": 60, "velocity": 67}, {"time": 145601, "pitch": 40, "duration": 60, "velocity": 127}, {"time": 145681, "pitch": 38, "duration": 61, "velocity": 107}, {"time": 145681, "pitch": 40, "duration": 61, "velocity": 127}, {"time": 145681, "pitch": 46, "duration": 61, "velocity": 107}, {"time": 145681, "pitch": 70, "duration": 61, "velocity": 75}, {"time": 145802, "pitch": 40, "duration": 60, "velocity": 127}, {"time": 145802, "pitch": 70, "duration": 60, "velocity": 75}, {"time": 145912, "pitch": 35, "duration": 60, "velocity": 107}, {"time": 145922, "pitch": 38, "duration": 60, "velocity": 107}, {"time": 145922, "pitch": 40, "duration": 60, "velocity": 127}, {"time": 145922, "pitch": 42, "duration": 60, "velocity": 67}, {"time": 145922, "pitch": 82, "duration": 60, "velocity": 75}, {"time": 146043, "pitch": 38, "duration": 60, "velocity": 107}, {"time": 146043, "pitch": 40, "duration": 60, "velocity": 127}, {"time": 146043, "pitch": 42, "duration": 60, "velocity": 67}, {"time": 146043, "pitch": 82, "duration": 60, "velocity": 75}, {"time": 146163, "pitch": 40, "duration": 60, "velocity": 127}, {"time": 146163, "pitch": 46, "duration": 60, "velocity": 107}, {"time": 146283, "pitch": 38, "duration": 61, "velocity": 107}, {"time": 146283, "pitch": 40, "duration": 61, "velocity": 127}, {"time": 146283, "pitch": 82, "duration": 61, "velocity": 75}, {"time": 146404, "pitch": 35, "duration": 59, "velocity": 107}, {"time": 146404, "pitch": 42, "duration": 59, "velocity": 67}, {"time": 146404, "pitch": 49, "duration": 59, "velocity": 107}, {"time": 146522, "pitch": 42, "duration": 59, "velocity": 67}, {"time": 146639, "pitch": 46, "duration": 59, "velocity": 107}, {"time": 146639, "pitch": 70, "duration": 59, "velocity": 75}, {"time": 146757, "pitch": 70, "duration": 59, "velocity": 75}, {"time": 146875, "pitch": 38, "duration": 60, "velocity": 107}, {"time": 146875, "pitch": 42, "duration": 60, "velocity": 67}, {"time": 146879, "pitch": 35, "duration": 60, "velocity": 107}, {"time": 146995, "pitch": 42, "duration": 61, "velocity": 67}, {"time": 147116, "pitch": 46, "duration": 60, "velocity": 107}, {"time": 147116, "pitch": 82, "duration": 60, "velocity": 75}, {"time": 147236, "pitch": 38, "duration": 60, "velocity": 107}, {"time": 147236, "pitch": 82, "duration": 60, "velocity": 75}, {"time": 147356, "pitch": 35, "duration": 60, "velocity": 107}, {"time": 147357, "pitch": 42, "duration": 60, "velocity": 67}, {"time": 147477, "pitch": 42, "duration": 60, "velocity": 67}, {"time": 147597, "pitch": 46, "duration": 61, "velocity": 107}, {"time": 147597, "pitch": 70, "duration": 61, "velocity": 75}, {"time": 147718, "pitch": 70, "duration": 60, "velocity": 75}, {"time": 147828, "pitch": 35, "duration": 60, "velocity": 107}, {"time": 147838, "pitch": 38, "duration": 60, "velocity": 107}, {"time": 147838, "pitch": 42, "duration": 60, "velocity": 67}, {"time": 147959, "pitch": 42, "duration": 60, "velocity": 67}, {"time": 148079, "pitch": 46, "duration": 60, "velocity": 107}, {"time": 148079, "pitch": 82, "duration": 60, "velocity": 75}, {"time": 148199, "pitch": 38, "duration": 61, "velocity": 107}, {"time": 148320, "pitch": 35, "duration": 60, "velocity": 107}, {"time": 148320, "pitch": 42, "duration": 60, "velocity": 67}, {"time": 148440, "pitch": 42, "duration": 60, "velocity": 67}, {"time": 148561, "pitch": 46, "duration": 60, "velocity": 107}, {"time": 148561, "pitch": 70, "duration": 60, "velocity": 75}, {"time": 148681, "pitch": 70, "duration": 60, "velocity": 75}, {"time": 148801, "pitch": 38, "duration": 61, "velocity": 107}, {"time": 148801, "pitch": 42, "duration": 61, "velocity": 67}, {"time": 148805, "pitch": 35, "duration": 61, "velocity": 107}, {"time": 148922, "pitch": 42, "duration": 60, "velocity": 67}, {"time": 149042, "pitch": 46, "duration": 60, "velocity": 107}, {"time": 149042, "pitch": 82, "duration": 60, "velocity": 75}, {"time": 149163, "pitch": 38, "duration": 60, "velocity": 107}, {"time": 149163, "pitch": 82, "duration": 60, "velocity": 75}, {"time": 149282, "pitch": 35, "duration": 60, "velocity": 107}, {"time": 149283, "pitch": 42, "duration": 60, "velocity": 67}, {"time": 149403, "pitch": 42, "duration": 61, "velocity": 67}, {"time": 149524, "pitch": 46, "duration": 60, "velocity": 107}, {"time": 149524, "pitch": 70, "duration": 60, "velocity": 75}, {"time": 149644, "pitch": 70, "duration": 60, "velocity": 75}, {"time": 149755, "pitch": 35, "duration": 59, "velocity": 107}, {"time": 149765, "pitch": 38, "duration": 58, "velocity": 107}, {"time": 149765, "pitch": 42, "duration": 58, "velocity": 67}, {"time": 149882, "pitch": 42, "duration": 59, "velocity": 67}, {"time": 150000, "pitch": 46, "duration": 59, "velocity": 107}, {"time": 150000, "pitch": 82, "duration": 59, "velocity": 75}, {"time": 150118, "pitch": 38, "duration": 59, "velocity": 107}, {"time": 150236, "pitch": 35, "duration": 60, "velocity": 107}, {"time": 150236, "pitch": 42, "duration": 60, "velocity": 67}, {"time": 150356, "pitch": 42, "duration": 60, "velocity": 67}, {"time": 150477, "pitch": 46, "duration": 60, "velocity": 107}, {"time": 150477, "pitch": 70, "duration": 60, "velocity": 75}, {"time": 150597, "pitch": 70, "duration": 60, "velocity": 75}, {"time": 150717, "pitch": 38, "duration": 61, "velocity": 107}, {"time": 150717, "pitch": 42, "duration": 61, "velocity": 67}, {"time": 150721, "pitch": 35, "duration": 61, "velocity": 107}, {"time": 150838, "pitch": 42, "duration": 60, "velocity": 67}, {"time": 150958, "pitch": 46, "duration": 60, "velocity": 107}, {"time": 150958, "pitch": 82, "duration": 60, "velocity": 75}, {"time": 151079, "pitch": 38, "duration": 60, "velocity": 107}, {"time": 151079, "pitch": 82, "duration": 60, "velocity": 75}, {"time": 151198, "pitch": 35, "duration": 60, "velocity": 107}, {"time": 151199, "pitch": 42, "duration": 60, "velocity": 67}, {"time": 151319, "pitch": 42, "duration": 61, "velocity": 67}, {"time": 151440, "pitch": 46, "duration": 60, "velocity": 107}, {"time": 151440, "pitch": 70, "duration": 60, "velocity": 75}, {"time": 151560, "pitch": 70, "duration": 60, "velocity": 75}, {"time": 151671, "pitch": 35, "duration": 60, "velocity": 107}, {"time": 151681, "pitch": 38, "duration": 60, "velocity": 107}, {"time": 151681, "pitch": 42, "duration": 60, "velocity": 67}, {"time": 151801, "pitch": 42, "duration": 60, "velocity": 67}, {"time": 151921, "pitch": 46, "duration": 61, "velocity": 107}, {"time": 151921, "pitch": 82, "duration": 61, "velocity": 75}, {"time": 152042, "pitch": 38, "duration": 60, "velocity": 107}, {"time": 152162, "pitch": 35, "duration": 60, "velocity": 107}, {"time": 152162, "pitch": 42, "duration": 60, "velocity": 67}, {"time": 152283, "pitch": 42, "duration": 60, "velocity": 67}, {"time": 152403, "pitch": 46, "duration": 60, "velocity": 107}, {"time": 152403, "pitch": 70, "duration": 60, "velocity": 75}, {"time": 152523, "pitch": 70, "duration": 61, "velocity": 75}, {"time": 152644, "pitch": 38, "duration": 59, "velocity": 107}, {"time": 152644, "pitch": 42, "duration": 59, "velocity": 67}, {"time": 152648, "pitch": 35, "duration": 59, "velocity": 107}, {"time": 152762, "pitch": 42, "duration": 59, "velocity": 67}, {"time": 152879, "pitch": 46, "duration": 59, "velocity": 107}, {"time": 152879, "pitch": 82, "duration": 59, "velocity": 75}, {"time": 152997, "pitch": 38, "duration": 59, "velocity": 107}, {"time": 152997, "pitch": 82, "duration": 59, "velocity": 75}, {"time": 153114, "pitch": 35, "duration": 60, "velocity": 107}, {"time": 153115, "pitch": 42, "duration": 60, "velocity": 67}, {"time": 153235, "pitch": 42, "duration": 61, "velocity": 67}, {"time": 153356, "pitch": 38, "duration": 60, "velocity": 107}, {"time": 153356, "pitch": 46, "duration": 60, "velocity": 107}, {"time": 153356, "pitch": 70, "duration": 60, "velocity": 75}, {"time": 153476, "pitch": 70, "duration": 60, "velocity": 75}, {"time": 153587, "pitch": 35, "duration": 60, "velocity": 107}, {"time": 153597, "pitch": 38, "duration": 60, "velocity": 107}, {"time": 153597, "pitch": 42, "duration": 60, "velocity": 67}, {"time": 153597, "pitch": 82, "duration": 60, "velocity": 75}, {"time": 153717, "pitch": 38, "duration": 60, "velocity": 107}, {"time": 153717, "pitch": 42, "duration": 60, "velocity": 67}, {"time": 153717, "pitch": 82, "duration": 60, "velocity": 75}, {"time": 153837, "pitch": 46, "duration": 61, "velocity": 107}, {"time": 153958, "pitch": 38, "duration": 60, "velocity": 107}, {"time": 153958, "pitch": 82, "duration": 60, "velocity": 75}, {"time": 154078, "pitch": 35, "duration": 60, "velocity": 107}, {"time": 154078, "pitch": 42, "duration": 60, "velocity": 67}, {"time": 154078, "pitch": 49, "duration": 60, "velocity": 107}, {"time": 154199, "pitch": 42, "duration": 60, "velocity": 67}, {"time": 154319, "pitch": 46, "duration": 60, "velocity": 107}, {"time": 154319, "pitch": 70, "duration": 60, "velocity": 75}, {"time": 154439, "pitch": 70, "duration": 61, "velocity": 75}, {"time": 154560, "pitch": 38, "duration": 60, "velocity": 107}, {"time": 154560, "pitch": 42, "duration": 60, "velocity": 67}, {"time": 154564, "pitch": 35, "duration": 60, "velocity": 107}, {"time": 154680, "pitch": 42, "duration": 60, "velocity": 67}, {"time": 154801, "pitch": 46, "duration": 60, "velocity": 107}, {"time": 154801, "pitch": 82, "duration": 60, "velocity": 75}, {"time": 154921, "pitch": 38, "duration": 60, "velocity": 107}, {"time": 154921, "pitch": 82, "duration": 60, "velocity": 75}, {"time": 155040, "pitch": 35, "duration": 61, "velocity": 107}, {"time": 155041, "pitch": 42, "duration": 61, "velocity": 67}, {"time": 155162, "pitch": 42, "duration": 60, "velocity": 67}, {"time": 155282, "pitch": 46, "duration": 60, "velocity": 107}, {"time": 155282, "pitch": 70, "duration": 60, "velocity": 75}, {"time": 155403, "pitch": 70, "duration": 60, "velocity": 75}, {"time": 155513, "pitch": 35, "duration": 60, "velocity": 107}, {"time": 155523, "pitch": 38, "duration": 60, "velocity": 107}, {"time": 155523, "pitch": 42, "duration": 60, "velocity": 67}, {"time": 155643, "pitch": 42, "duration": 61, "velocity": 67}, {"time": 155764, "pitch": 46, "duration": 60, "velocity": 107}, {"time": 155764, "pitch": 82, "duration": 60, "velocity": 75}, {"time": 155884, "pitch": 38, "duration": 60, "velocity": 107}, {"time": 156005, "pitch": 35, "duration": 58, "velocity": 107}, {"time": 156005, "pitch": 42, "duration": 58, "velocity": 67}, {"time": 156122, "pitch": 42, "duration": 59, "velocity": 67}, {"time": 156240, "pitch": 46, "duration": 59, "velocity": 107}, {"time": 156240, "pitch": 70, "duration": 59, "velocity": 75}, {"time": 156358, "pitch": 70, "duration": 59, "velocity": 75}, {"time": 156476, "pitch": 38, "duration": 60, "velocity": 107}, {"time": 156476, "pitch": 42, "duration": 60, "velocity": 67}, {"time": 156480, "pitch": 35, "duration": 60, "velocity": 107}, {"time": 156596, "pitch": 42, "duration": 60, "velocity": 67}, {"time": 156717, "pitch": 46, "duration": 60, "velocity": 107}, {"time": 156717, "pitch": 82, "duration": 60, "velocity": 75}, {"time": 156837, "pitch": 38, "duration": 60, "velocity": 107}, {"time": 156837, "pitch": 82, "duration": 60, "velocity": 75}, {"time": 156956, "pitch": 35, "duration": 61, "velocity": 107}, {"time": 156957, "pitch": 42, "duration": 61, "velocity": 67}, {"time": 157078, "pitch": 42, "duration": 60, "velocity": 67}, {"time": 157198, "pitch": 46, "duration": 60, "velocity": 107}, {"time": 157198, "pitch": 70, "duration": 60, "velocity": 75}, {"time": 157319, "pitch": 70, "duration": 60, "velocity": 75}, {"time": 157429, "pitch": 35, "duration": 60, "velocity": 107}, {"time": 157439, "pitch": 38, "duration": 60, "velocity": 107}, {"time": 157439, "pitch": 42, "duration": 60, "velocity": 67}, {"time": 157559, "pitch": 42, "duration": 61, "velocity": 67}, {"time": 157680, "pitch": 46, "duration": 60, "velocity": 107}, {"time": 157680, "pitch": 82, "duration": 60, "velocity": 75}, {"time": 157800, "pitch": 38, "duration": 60, "velocity": 107}, {"time": 157921, "pitch": 35, "duration": 60, "velocity": 107}, {"time": 157921, "pitch": 42, "duration": 60, "velocity": 67}, {"time": 158041, "pitch": 42, "duration": 60, "velocity": 67}, {"time": 158161, "pitch": 46, "duration": 61, "velocity": 107}, {"time": 158161, "pitch": 70, "duration": 61, "velocity": 75}, {"time": 158282, "pitch": 70, "duration": 60, "velocity": 75}, {"time": 158402, "pitch": 38, "duration": 60, "velocity": 107}, {"time": 158402, "pitch": 42, "duration": 60, "velocity": 67}, {"time": 158406, "pitch": 35, "duration": 60, "velocity": 107}, {"time": 158523, "pitch": 42, "duration": 60, "velocity": 67}, {"time": 158643, "pitch": 46, "duration": 60, "velocity": 107}, {"time": 158643, "pitch": 82, "duration": 60, "velocity": 75}, {"time": 158763, "pitch": 38, "duration": 61, "velocity": 107}, {"time": 158763, "pitch": 82, "duration": 61, "velocity": 75}, {"time": 158883, "pitch": 35, "duration": 59, "velocity": 107}, {"time": 158884, "pitch": 42, "duration": 59, "velocity": 67}, {"time": 159002, "pitch": 42, "duration": 59, "velocity": 67}, {"time": 159119, "pitch": 46, "duration": 59, "velocity": 107}, {"time": 159119, "pitch": 70, "duration": 59, "velocity": 75}, {"time": 159237, "pitch": 70, "duration": 59, "velocity": 75}, {"time": 159345, "pitch": 35, "duration": 60, "velocity": 107}, {"time": 159355, "pitch": 38, "duration": 60, "velocity": 107}, {"time": 159355, "pitch": 42, "duration": 60, "velocity": 67}, {"time": 159475, "pitch": 42, "duration": 61, "velocity": 67}, {"time": 159596, "pitch": 46, "duration": 60, "velocity": 107}, {"time": 159596, "pitch": 82, "duration": 60, "velocity": 75}, {"time": 159716, "pitch": 38, "duration": 60, "velocity": 107}, {"time": 159837, "pitch": 35, "duration": 60, "velocity": 107}, {"time": 159837, "pitch": 42, "duration": 60, "velocity": 67}, {"time": 159957, "pitch": 42, "duration": 60, "velocity": 67}, {"time": 160077, "pitch": 46, "duration": 61, "velocity": 107}, {"time": 160077, "pitch": 70, "duration": 61, "velocity": 75}, {"time": 160198, "pitch": 70, "duration": 60, "velocity": 75}, {"time": 160318, "pitch": 38, "duration": 60, "velocity": 107}, {"time": 160318, "pitch": 42, "duration": 60, "velocity": 67}, {"time": 160322, "pitch": 35, "duration": 60, "velocity": 107}, {"time": 160439, "pitch": 42, "duration": 60, "velocity": 67}, {"time": 160559, "pitch": 46, "duration": 60, "velocity": 107}, {"time": 160559, "pitch": 82, "duration": 60, "velocity": 75}, {"time": 160679, "pitch": 38, "duration": 61, "velocity": 107}, {"time": 160679, "pitch": 82, "duration": 61, "velocity": 75}, {"time": 160799, "pitch": 35, "duration": 60, "velocity": 107}, {"time": 160800, "pitch": 42, "duration": 60, "velocity": 67}, {"time": 160920, "pitch": 42, "duration": 60, "velocity": 67}, {"time": 161041, "pitch": 38, "duration": 60, "velocity": 107}, {"time": 161041, "pitch": 46, "duration": 60, "velocity": 107}, {"time": 161041, "pitch": 70, "duration": 60, "velocity": 75}, {"time": 161161, "pitch": 70, "duration": 60, "velocity": 75}, {"time": 161271, "pitch": 35, "duration": 61, "velocity": 107}, {"time": 161281, "pitch": 38, "duration": 61, "velocity": 107}, {"time": 161281, "pitch": 42, "duration": 61, "velocity": 67}, {"time": 161281, "pitch": 82, "duration": 61, "velocity": 75}, {"time": 161402, "pitch": 38, "duration": 60, "velocity": 107}, {"time": 161402, "pitch": 42, "duration": 60, "velocity": 67}, {"time": 161402, "pitch": 82, "duration": 60, "velocity": 75}, {"time": 161522, "pitch": 46, "duration": 60, "velocity": 107}, {"time": 161643, "pitch": 38, "duration": 60, "velocity": 107}, {"time": 161643, "pitch": 82, "duration": 60, "velocity": 75}, {"time": 161763, "pitch": 35, "duration": 60, "velocity": 107}, {"time": 161763, "pitch": 40, "duration": 60, "velocity": 78}, {"time": 161763, "pitch": 42, "duration": 60, "velocity": 67}, {"time": 161883, "pitch": 40, "duration": 61, "velocity": 81}, {"time": 161883, "pitch": 42, "duration": 61, "velocity": 67}, {"time": 162004, "pitch": 40, "duration": 60, "velocity": 83}, {"time": 162004, "pitch": 46, "duration": 60, "velocity": 107}, {"time": 162004, "pitch": 70, "duration": 60, "velocity": 75}, {"time": 162124, "pitch": 40, "duration": 60, "velocity": 87}, {"time": 162124, "pitch": 70, "duration": 60, "velocity": 75}, {"time": 162245, "pitch": 38, "duration": 58, "velocity": 107}, {"time": 162245, "pitch": 40, "duration": 58, "velocity": 90}, {"time": 162245, "pitch": 42, "duration": 58, "velocity": 67}, {"time": 162248, "pitch": 35, "duration": 59, "velocity": 107}, {"time": 162362, "pitch": 40, "duration": 59, "velocity": 92}, {"time": 162362, "pitch": 42, "duration": 59, "velocity": 67}, {"time": 162480, "pitch": 40, "duration": 59, "velocity": 96}, {"time": 162480, "pitch": 46, "duration": 59, "velocity": 107}, {"time": 162480, "pitch": 82, "duration": 59, "velocity": 75}, {"time": 162598, "pitch": 38, "duration": 59, "velocity": 107}, {"time": 162598, "pitch": 40, "duration": 59, "velocity": 99}, {"time": 162598, "pitch": 82, "duration": 59, "velocity": 75}, {"time": 162715, "pitch": 35, "duration": 60, "velocity": 107}, {"time": 162716, "pitch": 40, "duration": 60, "velocity": 101}, {"time": 162716, "pitch": 42, "duration": 60, "velocity": 67}, {"time": 162836, "pitch": 40, "duration": 60, "velocity": 105}, {"time": 162836, "pitch": 42, "duration": 60, "velocity": 67}, {"time": 162957, "pitch": 40, "duration": 60, "velocity": 107}, {"time": 162957, "pitch": 46, "duration": 60, "velocity": 107}, {"time": 162957, "pitch": 70, "duration": 60, "velocity": 75}, {"time": 163077, "pitch": 40, "duration": 60, "velocity": 111}, {"time": 163077, "pitch": 70, "duration": 60, "velocity": 75}, {"time": 163187, "pitch": 35, "duration": 61, "velocity": 107}, {"time": 163197, "pitch": 38, "duration": 61, "velocity": 107}, {"time": 163197, "pitch": 40, "duration": 61, "velocity": 101}, {"time": 163197, "pitch": 42, "duration": 61, "velocity": 67}, {"time": 163258, "pitch": 40, "duration": 60, "velocity": 101}, {"time": 163318, "pitch": 40, "duration": 60, "velocity": 105}, {"time": 163318, "pitch": 42, "duration": 60, "velocity": 67}, {"time": 163378, "pitch": 40, "duration": 60, "velocity": 105}, {"time": 163438, "pitch": 40, "duration": 60, "velocity": 107}, {"time": 163438, "pitch": 46, "duration": 60, "velocity": 107}, {"time": 163438, "pitch": 82, "duration": 60, "velocity": 75}, {"time": 163498, "pitch": 40, "duration": 61, "velocity": 107}, {"time": 163559, "pitch": 38, "duration": 60, "velocity": 107}, {"time": 163559, "pitch": 40, "duration": 60, "velocity": 111}, {"time": 163619, "pitch": 40, "duration": 60, "velocity": 111}, {"time": 163679, "pitch": 35, "duration": 60, "velocity": 107}, {"time": 163679, "pitch": 42, "duration": 60, "velocity": 67}, {"time": 163679, "pitch": 49, "duration": 60, "velocity": 107}, {"time": 163799, "pitch": 42, "duration": 61, "velocity": 67}, {"time": 163920, "pitch": 46, "duration": 60, "velocity": 107}, {"time": 163920, "pitch": 70, "duration": 60, "velocity": 75}, {"time": 164040, "pitch": 70, "duration": 60, "velocity": 75}, {"time": 164161, "pitch": 38, "duration": 60, "velocity": 107}, {"time": 164161, "pitch": 42, "duration": 60, "velocity": 67}, {"time": 164165, "pitch": 35, "duration": 60, "velocity": 107}, {"time": 164281, "pitch": 42, "duration": 60, "velocity": 67}, {"time": 164401, "pitch": 46, "duration": 61, "velocity": 107}, {"time": 164401, "pitch": 82, "duration": 61, "velocity": 75}, {"time": 164522, "pitch": 38, "duration": 60, "velocity": 107}, {"time": 164522, "pitch": 82, "duration": 60, "velocity": 75}, {"time": 164641, "pitch": 35, "duration": 60, "velocity": 107}, {"time": 164642, "pitch": 42, "duration": 60, "velocity": 67}, {"time": 164763, "pitch": 42, "duration": 60, "velocity": 67}, {"time": 164883, "pitch": 46, "duration": 60, "velocity": 107}, {"time": 164883, "pitch": 70, "duration": 60, "velocity": 75}, {"time": 165003, "pitch": 70, "duration": 61, "velocity": 75}, {"time": 165114, "pitch": 35, "duration": 59, "velocity": 107}, {"time": 165124, "pitch": 38, "duration": 59, "velocity": 107}, {"time": 165124, "pitch": 42, "duration": 59, "velocity": 67}, {"time": 165242, "pitch": 42, "duration": 59, "velocity": 67}, {"time": 165359, "pitch": 46, "duration": 59, "velocity": 107}, {"time": 165359, "pitch": 82, "duration": 59, "velocity": 75}, {"time": 165477, "pitch": 38, "duration": 59, "velocity": 107}, {"time": 165595, "pitch": 35, "duration": 60, "velocity": 107}, {"time": 165595, "pitch": 42, "duration": 60, "velocity": 67}, {"time": 165715, "pitch": 42, "duration": 61, "velocity": 67}, {"time": 165836, "pitch": 46, "duration": 60, "velocity": 107}, {"time": 165836, "pitch": 70, "duration": 60, "velocity": 75}, {"time": 165956, "pitch": 70, "duration": 60, "velocity": 75}, {"time": 166077, "pitch": 38, "duration": 60, "velocity": 107}, {"time": 166077, "pitch": 42, "duration": 60, "velocity": 67}, {"time": 166081, "pitch": 35, "duration": 60, "velocity": 107}, {"time": 166197, "pitch": 42, "duration": 60, "velocity": 67}, {"time": 166317, "pitch": 46, "duration": 61, "velocity": 107}, {"time": 166317, "pitch": 82, "duration": 61, "velocity": 75}, {"time": 166438, "pitch": 38, "duration": 60, "velocity": 107}, {"time": 166438, "pitch": 82, "duration": 60, "velocity": 75}, {"time": 166557, "pitch": 35, "duration": 60, "velocity": 107}, {"time": 166558, "pitch": 42, "duration": 60, "velocity": 67}, {"time": 166679, "pitch": 42, "duration": 60, "velocity": 67}, {"time": 166799, "pitch": 46, "duration": 60, "velocity": 107}, {"time": 166799, "pitch": 70, "duration": 60, "velocity": 75}, {"time": 166919, "pitch": 70, "duration": 61, "velocity": 75}, {"time": 167030, "pitch": 35, "duration": 60, "velocity": 107}, {"time": 167040, "pitch": 38, "duration": 60, "velocity": 107}, {"time": 167040, "pitch": 42, "duration": 60, "velocity": 67}, {"time": 167160, "pitch": 42, "duration": 60, "velocity": 67}, {"time": 167281, "pitch": 46, "duration": 60, "velocity": 107}, {"time": 167281, "pitch": 82, "duration": 60, "velocity": 75}, {"time": 167401, "pitch": 38, "duration": 60, "velocity": 107}, {"time": 167521, "pitch": 35, "duration": 61, "velocity": 107}, {"time": 167521, "pitch": 42, "duration": 61, "velocity": 67}, {"time": 167642, "pitch": 42, "duration": 60, "velocity": 67}, {"time": 167762, "pitch": 46, "duration": 60, "velocity": 107}, {"time": 167762, "pitch": 70, "duration": 60, "velocity": 75}, {"time": 167883, "pitch": 70, "duration": 60, "velocity": 75}, {"time": 168003, "pitch": 38, "duration": 60, "velocity": 107}, {"time": 168003, "pitch": 42, "duration": 60, "velocity": 67}, {"time": 168007, "pitch": 35, "duration": 60, "velocity": 107}, {"time": 168123, "pitch": 42, "duration": 61, "velocity": 67}, {"time": 168244, "pitch": 46, "duration": 60, "velocity": 107}, {"time": 168244, "pitch": 82, "duration": 60, "velocity": 75}, {"time": 168364, "pitch": 38, "duration": 60, "velocity": 107}, {"time": 168364, "pitch": 82, "duration": 60, "velocity": 75}, {"time": 168484, "pitch": 35, "duration": 58, "velocity": 107}, {"time": 168485, "pitch": 42, "duration": 58, "velocity": 67}, {"time": 168602, "pitch": 42, "duration": 59, "velocity": 67}, {"time": 168720, "pitch": 38, "duration": 59, "velocity": 107}, {"time": 168720, "pitch": 46, "duration": 59, "velocity": 107}, {"time": 168720, "pitch": 70, "duration": 59, "velocity": 75}, {"time": 168838, "pitch": 70, "duration": 59, "velocity": 75}, {"time": 168946, "pitch": 35, "duration": 60, "velocity": 107}, {"time": 168956, "pitch": 38, "duration": 60, "velocity": 107}, {"time": 168956, "pitch": 42, "duration": 60, "velocity": 67}, {"time": 169076, "pitch": 38, "duration": 60, "velocity": 107}, {"time": 169076, "pitch": 42, "duration": 60, "velocity": 67}, {"time": 169197, "pitch": 46, "duration": 60, "velocity": 107}, {"time": 169197, "pitch": 82, "duration": 60, "velocity": 75}, {"time": 169317, "pitch": 38, "duration": 60, "velocity": 107}, {"time": 169437, "pitch": 35, "duration": 61, "velocity": 107}, {"time": 169437, "pitch": 42, "duration": 61, "velocity": 67}, {"time": 169558, "pitch": 42, "duration": 60, "velocity": 67}, {"time": 169678, "pitch": 46, "duration": 60, "velocity": 107}, {"time": 169678, "pitch": 70, "duration": 60, "velocity": 75}, {"time": 169799, "pitch": 70, "duration": 60, "velocity": 75}, {"time": 169919, "pitch": 38, "duration": 60, "velocity": 107}, {"time": 169919, "pitch": 42, "duration": 60, "velocity": 67}, {"time": 169923, "pitch": 35, "duration": 60, "velocity": 107}, {"time": 170039, "pitch": 42, "duration": 61, "velocity": 67}, {"time": 170160, "pitch": 46, "duration": 60, "velocity": 107}, {"time": 170160, "pitch": 82, "duration": 60, "velocity": 75}, {"time": 170280, "pitch": 38, "duration": 60, "velocity": 107}, {"time": 170280, "pitch": 82, "duration": 60, "velocity": 75}, {"time": 170400, "pitch": 35, "duration": 60, "velocity": 107}, {"time": 170401, "pitch": 42, "duration": 60, "velocity": 67}, {"time": 170521, "pitch": 42, "duration": 60, "velocity": 67}, {"time": 170641, "pitch": 46, "duration": 61, "velocity": 107}, {"time": 170641, "pitch": 70, "duration": 61, "velocity": 75}, {"time": 170762, "pitch": 70, "duration": 60, "velocity": 75}, {"time": 170872, "pitch": 35, "duration": 60, "velocity": 107}, {"time": 170882, "pitch": 38, "duration": 60, "velocity": 107}, {"time": 170882, "pitch": 42, "duration": 60, "velocity": 67}, {"time": 170882, "pitch": 82, "duration": 60, "velocity": 75}, {"time": 171003, "pitch": 42, "duration": 60, "velocity": 67}, {"time": 171003, "pitch": 82, "duration": 60, "velocity": 75}, {"time": 171123, "pitch": 46, "duration": 60, "velocity": 107}, {"time": 171243, "pitch": 38, "duration": 61, "velocity": 107}, {"time": 171243, "pitch": 82, "duration": 61, "velocity": 75}, {"time": 171364, "pitch": 35, "duration": 59, "velocity": 107}, {"time": 171364, "pitch": 42, "duration": 59, "velocity": 67}, {"time": 171364, "pitch": 49, "duration": 59, "velocity": 107}, {"time": 171482, "pitch": 42, "duration": 59, "velocity": 67}, {"time": 171599, "pitch": 46, "duration": 59, "velocity": 107}, {"time": 171599, "pitch": 70, "duration": 59, "velocity": 75}, {"time": 171717, "pitch": 70, "duration": 59, "velocity": 75}, {"time": 171835, "pitch": 38, "duration": 60, "velocity": 107}, {"time": 171835, "pitch": 42, "duration": 60, "velocity": 67}, {"time": 171839, "pitch": 35, "duration": 60, "velocity": 107}, {"time": 171955, "pitch": 42, "duration": 61, "velocity": 67}, {"time": 172076, "pitch": 46, "duration": 60, "velocity": 107}, {"time": 172076, "pitch": 82, "duration": 60, "velocity": 75}, {"time": 172196, "pitch": 38, "duration": 60, "velocity": 107}, {"time": 172196, "pitch": 82, "duration": 60, "velocity": 75}, {"time": 172316, "pitch": 35, "duration": 60, "velocity": 107}, {"time": 172317, "pitch": 42, "duration": 60, "velocity": 67}, {"time": 172437, "pitch": 42, "duration": 60, "velocity": 67}, {"time": 172557, "pitch": 46, "duration": 61, "velocity": 107}, {"time": 172557, "pitch": 70, "duration": 61, "velocity": 75}, {"time": 172678, "pitch": 70, "duration": 60, "velocity": 75}, {"time": 172788, "pitch": 35, "duration": 60, "velocity": 107}, {"time": 172798, "pitch": 38, "duration": 60, "velocity": 107}, {"time": 172798, "pitch": 42, "duration": 60, "velocity": 67}, {"time": 172919, "pitch": 42, "duration": 60, "velocity": 67}, {"time": 173039, "pitch": 46, "duration": 60, "velocity": 107}, {"time": 173039, "pitch": 82, "duration": 60, "velocity": 75}, {"time": 173159, "pitch": 38, "duration": 61, "velocity": 107}, {"time": 173280, "pitch": 35, "duration": 60, "velocity": 107}, {"time": 173280, "pitch": 42, "duration": 60, "velocity": 67}, {"time": 173400, "pitch": 42, "duration": 60, "velocity": 67}, {"time": 173521, "pitch": 46, "duration": 60, "velocity": 107}, {"time": 173521, "pitch": 70, "duration": 60, "velocity": 75}, {"time": 173641, "pitch": 70, "duration": 60, "velocity": 75}, {"time": 173761, "pitch": 38, "duration": 61, "velocity": 107}, {"time": 173761, "pitch": 42, "duration": 61, "velocity": 67}, {"time": 173765, "pitch": 35, "duration": 61, "velocity": 107}, {"time": 173882, "pitch": 42, "duration": 60, "velocity": 67}, {"time": 174002, "pitch": 46, "duration": 60, "velocity": 107}, {"time": 174002, "pitch": 82, "duration": 60, "velocity": 75}, {"time": 174123, "pitch": 38, "duration": 60, "velocity": 107}, {"time": 174123, "pitch": 82, "duration": 60, "velocity": 75}, {"time": 174242, "pitch": 35, "duration": 60, "velocity": 107}, {"time": 174243, "pitch": 42, "duration": 60, "velocity": 67}, {"time": 174363, "pitch": 42, "duration": 61, "velocity": 67}, {"time": 174484, "pitch": 46, "duration": 60, "velocity": 107}, {"time": 174484, "pitch": 70, "duration": 60, "velocity": 75}, {"time": 174604, "pitch": 70, "duration": 60, "velocity": 75}, {"time": 174715, "pitch": 35, "duration": 59, "velocity": 107}, {"time": 174725, "pitch": 38, "duration": 58, "velocity": 107}, {"time": 174725, "pitch": 42, "duration": 58, "velocity": 67}, {"time": 174842, "pitch": 42, "duration": 59, "velocity": 67}, {"time": 174960, "pitch": 46, "duration": 59, "velocity": 107}, {"time": 174960, "pitch": 82, "duration": 59, "velocity": 75}, {"time": 175078, "pitch": 38, "duration": 59, "velocity": 107}, {"time": 175196, "pitch": 35, "duration": 60, "velocity": 107}, {"time": 175196, "pitch": 42, "duration": 60, "velocity": 67}, {"time": 175316, "pitch": 42, "duration": 60, "velocity": 67}, {"time": 175437, "pitch": 46, "duration": 60, "velocity": 107}, {"time": 175437, "pitch": 70, "duration": 60, "velocity": 75}, {"time": 175557, "pitch": 70, "duration": 60, "velocity": 75}, {"time": 175677, "pitch": 38, "duration": 61, "velocity": 107}, {"time": 175677, "pitch": 42, "duration": 61, "velocity": 67}, {"time": 175681, "pitch": 35, "duration": 61, "velocity": 107}, {"time": 175798, "pitch": 42, "duration": 60, "velocity": 67}, {"time": 175918, "pitch": 46, "duration": 60, "velocity": 107}, {"time": 175918, "pitch": 82, "duration": 60, "velocity": 75}, {"time": 176039, "pitch": 38, "duration": 60, "velocity": 107}, {"time": 176039, "pitch": 82, "duration": 60, "velocity": 75}, {"time": 176158, "pitch": 35, "duration": 60, "velocity": 107}, {"time": 176159, "pitch": 42, "duration": 60, "velocity": 67}, {"time": 176279, "pitch": 42, "duration": 61, "velocity": 67}, {"time": 176400, "pitch": 38, "duration": 60, "velocity": 107}, {"time": 176400, "pitch": 46, "duration": 60, "velocity": 107}, {"time": 176400, "pitch": 70, "duration": 60, "velocity": 75}, {"time": 176520, "pitch": 70, "duration": 60, "velocity": 75}, {"time": 176631, "pitch": 35, "duration": 60, "velocity": 107}, {"time": 176641, "pitch": 38, "duration": 60, "velocity": 107}, {"time": 176641, "pitch": 42, "duration": 60, "velocity": 67}, {"time": 176761, "pitch": 38, "duration": 60, "velocity": 107}, {"time": 176761, "pitch": 42, "duration": 60, "velocity": 67}, {"time": 176881, "pitch": 46, "duration": 61, "velocity": 107}, {"time": 176881, "pitch": 82, "duration": 61, "velocity": 75}, {"time": 177002, "pitch": 38, "duration": 60, "velocity": 107}, {"time": 177122, "pitch": 35, "duration": 60, "velocity": 107}, {"time": 177122, "pitch": 40, "duration": 40, "velocity": 58}, {"time": 177122, "pitch": 42, "duration": 60, "velocity": 67}, {"time": 177162, "pitch": 40, "duration": 40, "velocity": 59}, {"time": 177202, "pitch": 40, "duration": 41, "velocity": 62}, {"time": 177243, "pitch": 40, "duration": 40, "velocity": 64}, {"time": 177243, "pitch": 42, "duration": 60, "velocity": 67}, {"time": 177283, "pitch": 40, "duration": 40, "velocity": 66}, {"time": 177323, "pitch": 40, "duration": 40, "velocity": 68}, {"time": 177363, "pitch": 40, "duration": 40, "velocity": 69}, {"time": 177363, "pitch": 46, "duration": 60, "velocity": 107}, {"time": 177363, "pitch": 70, "duration": 60, "velocity": 75}, {"time": 177403, "pitch": 40, "duration": 40, "velocity": 72}, {"time": 177443, "pitch": 40, "duration": 40, "velocity": 74}, {"time": 177483, "pitch": 40, "duration": 41, "velocity": 76}, {"time": 177483, "pitch": 70, "duration": 61, "velocity": 75}, {"time": 177524, "pitch": 40, "duration": 40, "velocity": 78}, {"time": 177564, "pitch": 40, "duration": 40, "velocity": 80}, {"time": 177604, "pitch": 38, "duration": 59, "velocity": 107}, {"time": 177604, "pitch": 40, "duration": 39, "velocity": 82}, {"time": 177604, "pitch": 42, "duration": 59, "velocity": 67}, {"time": 177608, "pitch": 35, "duration": 59, "velocity": 107}, {"time": 177643, "pitch": 40, "duration": 39, "velocity": 85}, {"time": 177682, "pitch": 40, "duration": 40, "velocity": 86}, {"time": 177722, "pitch": 40, "duration": 39, "velocity": 88}, {"time": 177722, "pitch": 42, "duration": 59, "velocity": 67}, {"time": 177761, "pitch": 40, "duration": 39, "velocity": 90}, {"time": 177800, "pitch": 40, "duration": 39, "velocity": 92}, {"time": 177839, "pitch": 40, "duration": 40, "velocity": 95}, {"time": 177839, "pitch": 46, "duration": 59, "velocity": 107}, {"time": 177839, "pitch": 82, "duration": 59, "velocity": 75}, {"time": 177879, "pitch": 40, "duration": 39, "velocity": 96}, {"time": 177918, "pitch": 40, "duration": 39, "velocity": 99}, {"time": 177957, "pitch": 38, "duration": 59, "velocity": 107}, {"time": 177957, "pitch": 40, "duration": 40, "velocity": 100}, {"time": 177957, "pitch": 82, "duration": 59, "velocity": 75}, {"time": 177997, "pitch": 40, "duration": 39, "velocity": 102}, {"time": 178036, "pitch": 40, "duration": 39, "velocity": 105}, {"time": 178074, "pitch": 35, "duration": 60, "velocity": 107}, {"time": 178075, "pitch": 40, "duration": 40, "velocity": 106}, {"time": 178075, "pitch": 42, "duration": 60, "velocity": 67}, {"time": 178115, "pitch": 40, "duration": 40, "velocity": 109}, {"time": 178155, "pitch": 40, "duration": 40, "velocity": 110}, {"time": 178195, "pitch": 40, "duration": 41, "velocity": 113}, {"time": 178195, "pitch": 42, "duration": 61, "velocity": 67}, {"time": 178236, "pitch": 40, "duration": 40, "velocity": 115}, {"time": 178276, "pitch": 40, "duration": 40, "velocity": 116}, {"time": 178316, "pitch": 40, "duration": 40, "velocity": 119}, {"time": 178316, "pitch": 46, "duration": 60, "velocity": 107}, {"time": 178316, "pitch": 70, "duration": 60, "velocity": 75}, {"time": 178356, "pitch": 40, "duration": 40, "velocity": 120}, {"time": 178396, "pitch": 40, "duration": 40, "velocity": 123}, {"time": 178436, "pitch": 40, "duration": 40, "velocity": 125}, {"time": 178436, "pitch": 70, "duration": 60, "velocity": 75}, {"time": 178476, "pitch": 40, "duration": 40, "velocity": 127}, {"time": 178516, "pitch": 40, "duration": 41, "velocity": 127}, {"time": 178547, "pitch": 35, "duration": 60, "velocity": 107}, {"time": 178557, "pitch": 38, "duration": 60, "velocity": 107}, {"time": 178557, "pitch": 40, "duration": 60, "velocity": 127}, {"time": 178557, "pitch": 42, "duration": 60, "velocity": 67}, {"time": 178557, "pitch": 82, "duration": 60, "velocity": 75}, {"time": 178677, "pitch": 40, "duration": 60, "velocity": 127}, {"time": 178677, "pitch": 42, "duration": 60, "velocity": 67}, {"time": 178677, "pitch": 82, "duration": 60, "velocity": 75}, {"time": 178797, "pitch": 40, "duration": 61, "velocity": 127}, {"time": 178797, "pitch": 46, "duration": 61, "velocity": 107}, {"time": 178918, "pitch": 38, "duration": 60, "velocity": 107}, {"time": 178918, "pitch": 40, "duration": 60, "velocity": 127}, {"time": 178918, "pitch": 82, "duration": 60, "velocity": 75}, {"time": 179038, "pitch": 35, "duration": 60, "velocity": 107}, {"time": 179038, "pitch": 42, "duration": 60, "velocity": 67}, {"time": 179038, "pitch": 49, "duration": 60, "velocity": 107}, {"time": 179159, "pitch": 42, "duration": 60, "velocity": 67}, {"time": 179279, "pitch": 46, "duration": 60, "velocity": 107}, {"time": 179279, "pitch": 70, "duration": 60, "velocity": 75}, {"time": 179399, "pitch": 70, "duration": 61, "velocity": 75}, {"time": 179520, "pitch": 38, "duration": 60, "velocity": 107}, {"time": 179520, "pitch": 42, "duration": 60, "velocity": 67}, {"time": 179524, "pitch": 35, "duration": 60, "velocity": 107}, {"time": 179640, "pitch": 42, "duration": 60, "velocity": 67}, {"time": 179761, "pitch": 46, "duration": 60, "velocity": 107}, {"time": 179761, "pitch": 82, "duration": 60, "velocity": 75}, {"time": 179881, "pitch": 38, "duration": 60, "velocity": 107}, {"time": 179881, "pitch": 82, "duration": 60, "velocity": 75}, {"time": 180000, "pitch": 35, "duration": 61, "velocity": 107}, {"time": 180001, "pitch": 42, "duration": 61, "velocity": 67}, {"time": 180122, "pitch": 42, "duration": 60, "velocity": 67}, {"time": 180242, "pitch": 46, "duration": 60, "velocity": 107}, {"time": 180242, "pitch": 70, "duration": 60, "velocity": 75}, {"time": 180363, "pitch": 70, "duration": 60, "velocity": 75}, {"time": 180473, "pitch": 35, "duration": 60, "velocity": 107}, {"time": 180483, "pitch": 38, "duration": 60, "velocity": 107}, {"time": 180483, "pitch": 42, "duration": 60, "velocity": 67}, {"time": 180603, "pitch": 42, "duration": 61, "velocity": 67}, {"time": 180724, "pitch": 46, "duration": 60, "velocity": 107}, {"time": 180724, "pitch": 82, "duration": 60, "velocity": 75}, {"time": 180844, "pitch": 38, "duration": 60, "velocity": 107}, {"time": 180965, "pitch": 35, "duration": 58, "velocity": 107}, {"time": 180965, "pitch": 42, "duration": 58, "velocity": 67}, {"time": 181082, "pitch": 42, "duration": 59, "velocity": 67}, {"time": 181200, "pitch": 46, "duration": 59, "velocity": 107}, {"time": 181200, "pitch": 70, "duration": 59, "velocity": 75}, {"time": 181318, "pitch": 70, "duration": 59, "velocity": 75}, {"time": 181436, "pitch": 38, "duration": 60, "velocity": 107}, {"time": 181436, "pitch": 42, "duration": 60, "velocity": 67}, {"time": 181440, "pitch": 35, "duration": 60, "velocity": 107}, {"time": 181556, "pitch": 42, "duration": 60, "velocity": 67}, {"time": 181677, "pitch": 46, "duration": 60, "velocity": 107}, {"time": 181677, "pitch": 82, "duration": 60, "velocity": 75}, {"time": 181797, "pitch": 38, "duration": 60, "velocity": 107}, {"time": 181797, "pitch": 82, "duration": 60, "velocity": 75}, {"time": 181916, "pitch": 35, "duration": 61, "velocity": 107}, {"time": 181917, "pitch": 42, "duration": 61, "velocity": 67}, {"time": 182038, "pitch": 42, "duration": 60, "velocity": 67}, {"time": 182158, "pitch": 46, "duration": 60, "velocity": 107}, {"time": 182158, "pitch": 70, "duration": 60, "velocity": 75}, {"time": 182279, "pitch": 70, "duration": 60, "velocity": 75}, {"time": 182389, "pitch": 35, "duration": 60, "velocity": 107}, {"time": 182399, "pitch": 38, "duration": 60, "velocity": 107}, {"time": 182399, "pitch": 42, "duration": 60, "velocity": 67}, {"time": 182519, "pitch": 42, "duration": 61, "velocity": 67}, {"time": 182640, "pitch": 46, "duration": 60, "velocity": 107}, {"time": 182640, "pitch": 82, "duration": 60, "velocity": 75}, {"time": 182760, "pitch": 38, "duration": 60, "velocity": 107}, {"time": 182881, "pitch": 35, "duration": 60, "velocity": 107}, {"time": 182881, "pitch": 42, "duration": 60, "velocity": 67}, {"time": 183001, "pitch": 42, "duration": 60, "velocity": 67}, {"time": 183121, "pitch": 46, "duration": 61, "velocity": 107}, {"time": 183121, "pitch": 70, "duration": 61, "velocity": 75}, {"time": 183242, "pitch": 70, "duration": 60, "velocity": 75}, {"time": 183362, "pitch": 38, "duration": 60, "velocity": 107}, {"time": 183362, "pitch": 42, "duration": 60, "velocity": 67}, {"time": 183366, "pitch": 35, "duration": 60, "velocity": 107}, {"time": 183483, "pitch": 42, "duration": 60, "velocity": 67}, {"time": 183603, "pitch": 46, "duration": 60, "velocity": 107}, {"time": 183603, "pitch": 82, "duration": 60, "velocity": 75}, {"time": 183723, "pitch": 38, "duration": 61, "velocity": 107}, {"time": 183723, "pitch": 82, "duration": 61, "velocity": 75}, {"time": 183843, "pitch": 35, "duration": 59, "velocity": 107}, {"time": 183844, "pitch": 42, "duration": 59, "velocity": 67}, {"time": 183962, "pitch": 42, "duration": 59, "velocity": 67}, {"time": 184079, "pitch": 38, "duration": 59, "velocity": 107}, {"time": 184079, "pitch": 46, "duration": 59, "velocity": 107}, {"time": 184079, "pitch": 70, "duration": 59, "velocity": 75}, {"time": 184197, "pitch": 70, "duration": 59, "velocity": 75}, {"time": 184305, "pitch": 35, "duration": 60, "velocity": 107}, {"time": 184315, "pitch": 38, "duration": 60, "velocity": 107}, {"time": 184315, "pitch": 42, "duration": 60, "velocity": 67}, {"time": 184435, "pitch": 38, "duration": 61, "velocity": 107}, {"time": 184435, "pitch": 42, "duration": 61, "velocity": 67}, {"time": 184556, "pitch": 46, "duration": 60, "velocity": 107}, {"time": 184556, "pitch": 82, "duration": 60, "velocity": 75}, {"time": 184676, "pitch": 38, "duration": 60, "velocity": 107}, {"time": 184797, "pitch": 35, "duration": 60, "velocity": 107}, {"time": 184797, "pitch": 42, "duration": 60, "velocity": 67}, {"time": 184917, "pitch": 42, "duration": 60, "velocity": 67}, {"time": 185037, "pitch": 46, "duration": 61, "velocity": 107}, {"time": 185037, "pitch": 70, "duration": 61, "velocity": 75}, {"time": 185158, "pitch": 70, "duration": 60, "velocity": 75}, {"time": 185278, "pitch": 38, "duration": 60, "velocity": 107}, {"time": 185278, "pitch": 42, "duration": 60, "velocity": 67}, {"time": 185282, "pitch": 35, "duration": 60, "velocity": 107}, {"time": 185399, "pitch": 42, "duration": 60, "velocity": 67}, {"time": 185519, "pitch": 46, "duration": 60, "velocity": 107}, {"time": 185519, "pitch": 82, "duration": 60, "velocity": 75}, {"time": 185639, "pitch": 38, "duration": 61, "velocity": 107}, {"time": 185639, "pitch": 82, "duration": 61, "velocity": 75}, {"time": 185759, "pitch": 35, "duration": 60, "velocity": 107}, {"time": 185760, "pitch": 42, "duration": 60, "velocity": 67}, {"time": 185880, "pitch": 42, "duration": 60, "velocity": 67}, {"time": 186001, "pitch": 46, "duration": 60, "velocity": 107}, {"time": 186001, "pitch": 70, "duration": 60, "velocity": 75}, {"time": 186121, "pitch": 70, "duration": 60, "velocity": 75}, {"time": 186231, "pitch": 35, "duration": 61, "velocity": 107}, {"time": 186241, "pitch": 38, "duration": 61, "velocity": 107}, {"time": 186241, "pitch": 42, "duration": 61, "velocity": 67}, {"time": 186241, "pitch": 82, "duration": 61, "velocity": 75}, {"time": 186362, "pitch": 42, "duration": 60, "velocity": 67}, {"time": 186362, "pitch": 82, "duration": 60, "velocity": 75}, {"time": 186482, "pitch": 46, "duration": 60, "velocity": 107}, {"time": 186603, "pitch": 38, "duration": 60, "velocity": 107}, {"time": 186603, "pitch": 82, "duration": 60, "velocity": 75}, {"time": 186723, "pitch": 35, "duration": 60, "velocity": 107}, {"time": 186723, "pitch": 42, "duration": 60, "velocity": 67}, {"time": 186723, "pitch": 49, "duration": 60, "velocity": 107}, {"time": 186843, "pitch": 42, "duration": 61, "velocity": 67}, {"time": 186964, "pitch": 46, "duration": 60, "velocity": 107}, {"time": 186964, "pitch": 70, "duration": 60, "velocity": 75}, {"time": 187084, "pitch": 70, "duration": 60, "velocity": 75}, {"time": 187205, "pitch": 38, "duration": 58, "velocity": 107}, {"time": 187205, "pitch": 42, "duration": 58, "velocity": 67}, {"time": 187208, "pitch": 35, "duration": 59, "velocity": 107}, {"time": 187322, "pitch": 42, "duration": 59, "velocity": 67}, {"time": 187440, "pitch": 46, "duration": 59, "velocity": 107}, {"time": 187440, "pitch": 82, "duration": 59, "velocity": 75}, {"time": 187558, "pitch": 38, "duration": 59, "velocity": 107}, {"time": 187558, "pitch": 82, "duration": 59, "velocity": 75}, {"time": 187675, "pitch": 35, "duration": 60, "velocity": 107}, {"time": 187676, "pitch": 42, "duration": 60, "velocity": 67}, {"time": 187796, "pitch": 42, "duration": 60, "velocity": 67}, {"time": 187917, "pitch": 46, "duration": 60, "velocity": 107}, {"time": 187917, "pitch": 70, "duration": 60, "velocity": 75}, {"time": 188037, "pitch": 70, "duration": 60, "velocity": 75}, {"time": 188147, "pitch": 35, "duration": 61, "velocity": 107}, {"time": 188157, "pitch": 38, "duration": 61, "velocity": 107}, {"time": 188157, "pitch": 42, "duration": 61, "velocity": 67}, {"time": 188278, "pitch": 42, "duration": 60, "velocity": 67}, {"time": 188398, "pitch": 46, "duration": 60, "velocity": 107}, {"time": 188398, "pitch": 82, "duration": 60, "velocity": 75}, {"time": 188519, "pitch": 38, "duration": 60, "velocity": 107}, {"time": 188639, "pitch": 35, "duration": 60, "velocity": 107}, {"time": 188639, "pitch": 42, "duration": 60, "velocity": 67}, {"time": 188759, "pitch": 42, "duration": 61, "velocity": 67}, {"time": 188880, "pitch": 46, "duration": 60, "velocity": 107}, {"time": 188880, "pitch": 70, "duration": 60, "velocity": 75}, {"time": 189000, "pitch": 70, "duration": 60, "velocity": 75}, {"time": 189121, "pitch": 38, "duration": 60, "velocity": 107}, {"time": 189121, "pitch": 42, "duration": 60, "velocity": 67}, {"time": 189125, "pitch": 35, "duration": 60, "velocity": 107}, {"time": 189241, "pitch": 42, "duration": 60, "velocity": 67}, {"time": 189361, "pitch": 46, "duration": 61, "velocity": 107}, {"time": 189361, "pitch": 82, "duration": 61, "velocity": 75}, {"time": 189482, "pitch": 38, "duration": 60, "velocity": 107}, {"time": 189482, "pitch": 82, "duration": 60, "velocity": 75}, {"time": 189601, "pitch": 35, "duration": 60, "velocity": 107}, {"time": 189602, "pitch": 42, "duration": 60, "velocity": 67}, {"time": 189723, "pitch": 42, "duration": 60, "velocity": 67}, {"time": 189843, "pitch": 46, "duration": 60, "velocity": 107}, {"time": 189843, "pitch": 70, "duration": 60, "velocity": 75}, {"time": 189963, "pitch": 70, "duration": 61, "velocity": 75}, {"time": 190074, "pitch": 35, "duration": 59, "velocity": 107}, {"time": 190084, "pitch": 38, "duration": 59, "velocity": 107}, {"time": 190084, "pitch": 42, "duration": 59, "velocity": 67}, {"time": 190202, "pitch": 42, "duration": 58, "velocity": 67}, {"time": 190319, "pitch": 46, "duration": 59, "velocity": 107}, {"time": 190319, "pitch": 82, "duration": 59, "velocity": 75}, {"time": 190437, "pitch": 38, "duration": 59, "velocity": 107}, {"time": 190555, "pitch": 35, "duration": 60, "velocity": 107}, {"time": 190555, "pitch": 42, "duration": 60, "velocity": 67}, {"time": 190675, "pitch": 42, "duration": 61, "velocity": 67}, {"time": 190796, "pitch": 46, "duration": 60, "velocity": 107}, {"time": 190796, "pitch": 70, "duration": 60, "velocity": 75}, {"time": 190916, "pitch": 70, "duration": 60, "velocity": 75}, {"time": 191037, "pitch": 38, "duration": 60, "velocity": 107}, {"time": 191037, "pitch": 42, "duration": 60, "velocity": 67}, {"time": 191041, "pitch": 35, "duration": 60, "velocity": 107}, {"time": 191157, "pitch": 42, "duration": 60, "velocity": 67}, {"time": 191277, "pitch": 46, "duration": 61, "velocity": 107}, {"time": 191277, "pitch": 82, "duration": 61, "velocity": 75}, {"time": 191398, "pitch": 38, "duration": 60, "velocity": 107}, {"time": 191398, "pitch": 82, "duration": 60, "velocity": 75}, {"time": 191517, "pitch": 35, "duration": 60, "velocity": 107}, {"time": 191518, "pitch": 42, "duration": 60, "velocity": 67}, {"time": 191639, "pitch": 42, "duration": 60, "velocity": 67}, {"time": 191759, "pitch": 38, "duration": 60, "velocity": 107}, {"time": 191759, "pitch": 46, "duration": 60, "velocity": 107}, {"time": 191759, "pitch": 70, "duration": 60, "velocity": 75}, {"time": 191879, "pitch": 70, "duration": 61, "velocity": 75}, {"time": 191990, "pitch": 35, "duration": 60, "velocity": 107}, {"time": 192000, "pitch": 38, "duration": 60, "velocity": 107}, {"time": 192000, "pitch": 42, "duration": 60, "velocity": 67}, {"time": 192120, "pitch": 38, "duration": 60, "velocity": 107}, {"time": 192120, "pitch": 42, "duration": 60, "velocity": 67}, {"time": 192241, "pitch": 46, "duration": 60, "velocity": 107}, {"time": 192241, "pitch": 82, "duration": 60, "velocity": 75}, {"time": 192361, "pitch": 38, "duration": 60, "velocity": 107}, {"time": 192481, "pitch": 35, "duration": 61, "velocity": 107}, {"time": 192481, "pitch": 40, "duration": 41, "velocity": 72}, {"time": 192481, "pitch": 42, "duration": 61, "velocity": 67}, {"time": 192522, "pitch": 40, "duration": 40, "velocity": 73}, {"time": 192562, "pitch": 40, "duration": 40, "velocity": 74}, {"time": 192602, "pitch": 40, "duration": 40, "velocity": 76}, {"time": 192602, "pitch": 42, "duration": 60, "velocity": 67}, {"time": 192642, "pitch": 40, "duration": 40, "velocity": 77}, {"time": 192682, "pitch": 40, "duration": 40, "velocity": 78}, {"time": 192722, "pitch": 40, "duration": 40, "velocity": 81}, {"time": 192722, "pitch": 46, "duration": 60, "velocity": 107}, {"time": 192722, "pitch": 70, "duration": 60, "velocity": 75}, {"time": 192762, "pitch": 40, "duration": 40, "velocity": 82}, {"time": 192802, "pitch": 40, "duration": 41, "velocity": 83}, {"time": 192843, "pitch": 40, "duration": 40, "velocity": 85}, {"time": 192843, "pitch": 70, "duration": 60, "velocity": 75}, {"time": 192883, "pitch": 40, "duration": 40, "velocity": 86}, {"time": 192923, "pitch": 40, "duration": 40, "velocity": 88}, {"time": 192963, "pitch": 38, "duration": 60, "velocity": 107}, {"time": 192963, "pitch": 40, "duration": 40, "velocity": 90}, {"time": 192963, "pitch": 42, "duration": 60, "velocity": 67}, {"time": 192967, "pitch": 35, "duration": 60, "velocity": 107}, {"time": 193003, "pitch": 40, "duration": 40, "velocity": 91}, {"time": 193043, "pitch": 40, "duration": 40, "velocity": 92}, {"time": 193083, "pitch": 40, "duration": 41, "velocity": 93}, {"time": 193083, "pitch": 42, "duration": 61, "velocity": 67}, {"time": 193124, "pitch": 40, "duration": 40, "velocity": 96}, {"time": 193164, "pitch": 40, "duration": 40, "velocity": 97}, {"time": 193204, "pitch": 40, "duration": 40, "velocity": 99}, {"time": 193204, "pitch": 46, "duration": 60, "velocity": 107}, {"time": 193204, "pitch": 82, "duration": 60, "velocity": 75}, {"time": 193244, "pitch": 40, "duration": 40, "velocity": 100}, {"time": 193284, "pitch": 40, "duration": 40, "velocity": 101}, {"time": 193324, "pitch": 38, "duration": 60, "velocity": 107}, {"time": 193324, "pitch": 40, "duration": 40, "velocity": 104}, {"time": 193324, "pitch": 82, "duration": 60, "velocity": 75}, {"time": 193364, "pitch": 40, "duration": 40, "velocity": 105}, {"time": 193404, "pitch": 40, "duration": 41, "velocity": 106}, {"time": 193444, "pitch": 35, "duration": 58, "velocity": 107}, {"time": 193445, "pitch": 40, "duration": 39, "velocity": 107}, {"time": 193445, "pitch": 42, "duration": 58, "velocity": 67}, {"time": 193484, "pitch": 40, "duration": 39, "velocity": 109}, {"time": 193523, "pitch": 40, "duration": 39, "velocity": 111}, {"time": 193562, "pitch": 40, "duration": 40, "velocity": 113}, {"time": 193562, "pitch": 42, "duration": 59, "velocity": 67}, {"time": 193602, "pitch": 40, "duration": 39, "velocity": 114}, {"time": 193641, "pitch": 40, "duration": 39, "velocity": 115}, {"time": 193680, "pitch": 40, "duration": 39, "velocity": 116}, {"time": 193680, "pitch": 46, "duration": 59, "velocity": 107}, {"time": 193680, "pitch": 70, "duration": 59, "velocity": 75}, {"time": 193719, "pitch": 40, "duration": 40, "velocity": 119}, {"time": 193759, "pitch": 40, "duration": 39, "velocity": 120}, {"time": 193798, "pitch": 40, "duration": 39, "velocity": 121}, {"time": 193798, "pitch": 70, "duration": 59, "velocity": 75}, {"time": 193837, "pitch": 40, "duration": 40, "velocity": 123}, {"time": 193877, "pitch": 40, "duration": 39, "velocity": 124}, {"time": 193906, "pitch": 35, "duration": 60, "velocity": 107}, {"time": 193916, "pitch": 38, "duration": 60, "velocity": 107}, {"time": 193916, "pitch": 40, "duration": 40, "velocity": 127}, {"time": 193916, "pitch": 42, "duration": 60, "velocity": 67}, {"time": 193916, "pitch": 82, "duration": 60, "velocity": 75}, {"time": 193956, "pitch": 40, "duration": 40, "velocity": 127}, {"time": 193996, "pitch": 40, "duration": 40, "velocity": 127}, {"time": 194036, "pitch": 40, "duration": 40, "velocity": 127}, {"time": 194036, "pitch": 42, "duration": 60, "velocity": 67}, {"time": 194036, "pitch": 82, "duration": 60, "velocity": 75}, {"time": 194076, "pitch": 40, "duration": 40, "velocity": 127}, {"time": 194116, "pitch": 40, "duration": 41, "velocity": 127}, {"time": 194157, "pitch": 40, "duration": 40, "velocity": 127}, {"time": 194157, "pitch": 46, "duration": 60, "velocity": 107}, {"time": 194197, "pitch": 40, "duration": 40, "velocity": 127}, {"time": 194237, "pitch": 40, "duration": 40, "velocity": 127}, {"time": 194277, "pitch": 38, "duration": 60, "velocity": 107}, {"time": 194277, "pitch": 40, "duration": 40, "velocity": 127}, {"time": 194277, "pitch": 82, "duration": 60, "velocity": 75}, {"time": 194317, "pitch": 40, "duration": 40, "velocity": 127}, {"time": 194357, "pitch": 40, "duration": 40, "velocity": 127}, {"time": 194397, "pitch": 35, "duration": 61, "velocity": 107}, {"time": 194397, "pitch": 42, "duration": 61, "velocity": 67}, {"time": 194518, "pitch": 42, "duration": 60, "velocity": 67}, {"time": 194638, "pitch": 46, "duration": 60, "velocity": 107}, {"time": 194638, "pitch": 70, "duration": 60, "velocity": 75}, {"time": 194759, "pitch": 70, "duration": 60, "velocity": 75}, {"time": 194879, "pitch": 38, "duration": 60, "velocity": 107}, {"time": 194879, "pitch": 42, "duration": 60, "velocity": 67}, {"time": 194883, "pitch": 35, "duration": 60, "velocity": 107}, {"time": 194999, "pitch": 42, "duration": 61, "velocity": 67}, {"time": 195120, "pitch": 46, "duration": 60, "velocity": 107}, {"time": 195120, "pitch": 82, "duration": 60, "velocity": 75}, {"time": 195240, "pitch": 38, "duration": 60, "velocity": 107}, {"time": 195240, "pitch": 82, "duration": 60, "velocity": 75}, {"time": 195360, "pitch": 35, "duration": 60, "velocity": 107}, {"time": 195361, "pitch": 42, "duration": 60, "velocity": 67}, {"time": 195481, "pitch": 42, "duration": 60, "velocity": 67}, {"time": 195601, "pitch": 46, "duration": 61, "velocity": 107}, {"time": 195601, "pitch": 70, "duration": 61, "velocity": 75}, {"time": 195722, "pitch": 70, "duration": 60, "velocity": 75}, {"time": 195832, "pitch": 35, "duration": 60, "velocity": 107}, {"time": 195842, "pitch": 38, "duration": 60, "velocity": 107}, {"time": 195842, "pitch": 42, "duration": 60, "velocity": 67}, {"time": 195963, "pitch": 42, "duration": 60, "velocity": 67}, {"time": 196083, "pitch": 46, "duration": 60, "velocity": 107}, {"time": 196083, "pitch": 82, "duration": 60, "velocity": 75}, {"time": 196203, "pitch": 38, "duration": 61, "velocity": 107}, {"time": 196324, "pitch": 35, "duration": 59, "velocity": 107}, {"time": 196324, "pitch": 42, "duration": 59, "velocity": 67}, {"time": 196324, "pitch": 49, "duration": 59, "velocity": 107}, {"time": 196442, "pitch": 42, "duration": 58, "velocity": 67}, {"time": 196559, "pitch": 46, "duration": 59, "velocity": 107}, {"time": 196559, "pitch": 70, "duration": 59, "velocity": 75}, {"time": 196677, "pitch": 70, "duration": 59, "velocity": 75}, {"time": 196795, "pitch": 38, "duration": 60, "velocity": 107}, {"time": 196795, "pitch": 42, "duration": 60, "velocity": 67}, {"time": 196799, "pitch": 35, "duration": 60, "velocity": 107}, {"time": 196915, "pitch": 42, "duration": 61, "velocity": 67}, {"time": 197036, "pitch": 46, "duration": 60, "velocity": 107}, {"time": 197036, "pitch": 82, "duration": 60, "velocity": 75}, {"time": 197156, "pitch": 38, "duration": 60, "velocity": 107}, {"time": 197156, "pitch": 82, "duration": 60, "velocity": 75}, {"time": 197276, "pitch": 35, "duration": 60, "velocity": 107}, {"time": 197277, "pitch": 42, "duration": 60, "velocity": 67}, {"time": 197397, "pitch": 42, "duration": 60, "velocity": 67}, {"time": 197517, "pitch": 46, "duration": 61, "velocity": 107}, {"time": 197517, "pitch": 70, "duration": 61, "velocity": 75}, {"time": 197638, "pitch": 70, "duration": 60, "velocity": 75}, {"time": 197748, "pitch": 35, "duration": 60, "velocity": 107}, {"time": 197758, "pitch": 38, "duration": 60, "velocity": 107}, {"time": 197758, "pitch": 42, "duration": 60, "velocity": 67}, {"time": 197879, "pitch": 42, "duration": 60, "velocity": 67}, {"time": 197999, "pitch": 46, "duration": 60, "velocity": 107}, {"time": 197999, "pitch": 82, "duration": 60, "velocity": 75}, {"time": 198119, "pitch": 38, "duration": 61, "velocity": 107}, {"time": 198240, "pitch": 35, "duration": 60, "velocity": 107}, {"time": 198240, "pitch": 42, "duration": 60, "velocity": 67}, {"time": 198360, "pitch": 42, "duration": 60, "velocity": 67}, {"time": 198481, "pitch": 46, "duration": 60, "velocity": 107}, {"time": 198481, "pitch": 70, "duration": 60, "velocity": 75}, {"time": 198601, "pitch": 70, "duration": 60, "velocity": 75}, {"time": 198721, "pitch": 38, "duration": 61, "velocity": 107}, {"time": 198721, "pitch": 42, "duration": 61, "velocity": 67}, {"time": 198725, "pitch": 35, "duration": 61, "velocity": 107}, {"time": 198842, "pitch": 42, "duration": 60, "velocity": 67}, {"time": 198962, "pitch": 46, "duration": 60, "velocity": 107}, {"time": 198962, "pitch": 82, "duration": 60, "velocity": 75}, {"time": 199083, "pitch": 38, "duration": 60, "velocity": 107}, {"time": 199083, "pitch": 82, "duration": 60, "velocity": 75}, {"time": 199202, "pitch": 35, "duration": 60, "velocity": 107}, {"time": 199203, "pitch": 42, "duration": 60, "velocity": 67}, {"time": 199323, "pitch": 42, "duration": 61, "velocity": 67}, {"time": 199444, "pitch": 46, "duration": 60, "velocity": 107}, {"time": 199444, "pitch": 70, "duration": 60, "velocity": 75}, {"time": 199564, "pitch": 70, "duration": 60, "velocity": 75}, {"time": 199675, "pitch": 35, "duration": 59, "velocity": 107}, {"time": 199685, "pitch": 38, "duration": 58, "velocity": 107}, {"time": 199685, "pitch": 42, "duration": 58, "velocity": 67}, {"time": 199802, "pitch": 42, "duration": 59, "velocity": 67}, {"time": 199920, "pitch": 46, "duration": 59, "velocity": 107}, {"time": 199920, "pitch": 82, "duration": 59, "velocity": 75}, {"time": 200038, "pitch": 38, "duration": 59, "velocity": 107}, {"time": 200156, "pitch": 35, "duration": 60, "velocity": 107}, {"time": 200156, "pitch": 42, "duration": 60, "velocity": 67}, {"time": 200276, "pitch": 42, "duration": 60, "velocity": 67}, {"time": 200397, "pitch": 46, "duration": 60, "velocity": 107}, {"time": 200397, "pitch": 70, "duration": 60, "velocity": 75}, {"time": 200517, "pitch": 70, "duration": 60, "velocity": 75}, {"time": 200637, "pitch": 38, "duration": 61, "velocity": 107}, {"time": 200637, "pitch": 42, "duration": 61, "velocity": 67}, {"time": 200641, "pitch": 35, "duration": 61, "velocity": 107}, {"time": 200758, "pitch": 42, "duration": 60, "velocity": 67}, {"time": 200878, "pitch": 46, "duration": 60, "velocity": 107}, {"time": 200878, "pitch": 82, "duration": 60, "velocity": 75}, {"time": 200999, "pitch": 38, "duration": 60, "velocity": 107}, {"time": 200999, "pitch": 82, "duration": 60, "velocity": 75}, {"time": 201118, "pitch": 35, "duration": 60, "velocity": 107}, {"time": 201119, "pitch": 42, "duration": 60, "velocity": 67}, {"time": 201239, "pitch": 42, "duration": 61, "velocity": 67}, {"time": 201360, "pitch": 38, "duration": 60, "velocity": 107}, {"time": 201360, "pitch": 46, "duration": 60, "velocity": 107}, {"time": 201360, "pitch": 70, "duration": 60, "velocity": 75}, {"time": 201480, "pitch": 70, "duration": 60, "velocity": 75}, {"time": 201591, "pitch": 35, "duration": 60, "velocity": 107}, {"time": 201601, "pitch": 38, "duration": 60, "velocity": 107}, {"time": 201601, "pitch": 42, "duration": 60, "velocity": 67}, {"time": 201601, "pitch": 82, "duration": 60, "velocity": 75}, {"time": 201721, "pitch": 38, "duration": 60, "velocity": 107}, {"time": 201721, "pitch": 42, "duration": 60, "velocity": 67}, {"time": 201721, "pitch": 82, "duration": 60, "velocity": 75}, {"time": 201841, "pitch": 46, "duration": 61, "velocity": 107}, {"time": 201962, "pitch": 38, "duration": 60, "velocity": 107}, {"time": 201962, "pitch": 82, "duration": 60, "velocity": 75}, {"time": 202082, "pitch": 35, "duration": 60, "velocity": 107}, {"time": 202082, "pitch": 42, "duration": 60, "velocity": 67}, {"time": 202082, "pitch": 49, "duration": 60, "velocity": 107}, {"time": 202203, "pitch": 42, "duration": 60, "velocity": 67}, {"time": 202323, "pitch": 46, "duration": 60, "velocity": 107}, {"time": 202323, "pitch": 70, "duration": 60, "velocity": 75}, {"time": 202443, "pitch": 70, "duration": 61, "velocity": 75}, {"time": 202564, "pitch": 38, "duration": 59, "velocity": 107}, {"time": 202564, "pitch": 42, "duration": 59, "velocity": 67}, {"time": 202568, "pitch": 35, "duration": 59, "velocity": 107}, {"time": 202682, "pitch": 42, "duration": 58, "velocity": 67}, {"time": 202799, "pitch": 46, "duration": 59, "velocity": 107}, {"time": 202799, "pitch": 82, "duration": 59, "velocity": 75}, {"time": 202917, "pitch": 38, "duration": 59, "velocity": 107}, {"time": 202917, "pitch": 82, "duration": 59, "velocity": 75}, {"time": 203034, "pitch": 35, "duration": 60, "velocity": 107}, {"time": 203035, "pitch": 42, "duration": 60, "velocity": 67}, {"time": 203155, "pitch": 42, "duration": 61, "velocity": 67}, {"time": 203276, "pitch": 46, "duration": 60, "velocity": 107}, {"time": 203276, "pitch": 70, "duration": 60, "velocity": 75}, {"time": 203396, "pitch": 70, "duration": 60, "velocity": 75}, {"time": 203507, "pitch": 35, "duration": 60, "velocity": 107}, {"time": 203517, "pitch": 38, "duration": 60, "velocity": 107}, {"time": 203517, "pitch": 42, "duration": 60, "velocity": 67}, {"time": 203637, "pitch": 42, "duration": 60, "velocity": 67}, {"time": 203757, "pitch": 46, "duration": 61, "velocity": 107}, {"time": 203757, "pitch": 82, "duration": 61, "velocity": 75}, {"time": 203878, "pitch": 38, "duration": 60, "velocity": 107}, {"time": 203998, "pitch": 35, "duration": 60, "velocity": 107}, {"time": 203998, "pitch": 42, "duration": 60, "velocity": 67}, {"time": 204119, "pitch": 42, "duration": 60, "velocity": 67}, {"time": 204239, "pitch": 46, "duration": 60, "velocity": 107}, {"time": 204239, "pitch": 70, "duration": 60, "velocity": 75}, {"time": 204359, "pitch": 70, "duration": 61, "velocity": 75}, {"time": 204480, "pitch": 38, "duration": 60, "velocity": 107}, {"time": 204480, "pitch": 42, "duration": 60, "velocity": 67}, {"time": 204484, "pitch": 35, "duration": 60, "velocity": 107}, {"time": 204600, "pitch": 42, "duration": 60, "velocity": 67}, {"time": 204721, "pitch": 46, "duration": 60, "velocity": 107}, {"time": 204721, "pitch": 82, "duration": 60, "velocity": 75}, {"time": 204841, "pitch": 38, "duration": 60, "velocity": 107}, {"time": 204841, "pitch": 82, "duration": 60, "velocity": 75}, {"time": 204960, "pitch": 35, "duration": 61, "velocity": 107}, {"time": 204961, "pitch": 42, "duration": 61, "velocity": 67}, {"time": 205082, "pitch": 42, "duration": 60, "velocity": 67}, {"time": 205202, "pitch": 46, "duration": 60, "velocity": 107}, {"time": 205202, "pitch": 70, "duration": 60, "velocity": 75}, {"time": 205323, "pitch": 70, "duration": 60, "velocity": 75}, {"time": 205433, "pitch": 35, "duration": 60, "velocity": 107}, {"time": 205443, "pitch": 38, "duration": 60, "velocity": 107}, {"time": 205443, "pitch": 42, "duration": 60, "velocity": 67}, {"time": 205563, "pitch": 42, "duration": 61, "velocity": 67}, {"time": 205684, "pitch": 46, "duration": 60, "velocity": 107}, {"time": 205684, "pitch": 82, "duration": 60, "velocity": 75}, {"time": 205804, "pitch": 38, "duration": 60, "velocity": 107}, {"time": 205925, "pitch": 35, "duration": 58, "velocity": 107}, {"time": 205925, "pitch": 42, "duration": 58, "velocity": 67}, {"time": 206042, "pitch": 42, "duration": 59, "velocity": 67}, {"time": 206160, "pitch": 46, "duration": 59, "velocity": 107}, {"time": 206160, "pitch": 70, "duration": 59, "velocity": 75}, {"time": 206278, "pitch": 70, "duration": 59, "velocity": 75}, {"time": 206396, "pitch": 38, "duration": 60, "velocity": 107}, {"time": 206396, "pitch": 42, "duration": 60, "velocity": 67}, {"time": 206400, "pitch": 35, "duration": 60, "velocity": 107}, {"time": 206516, "pitch": 42, "duration": 60, "velocity": 67}, {"time": 206637, "pitch": 46, "duration": 60, "velocity": 107}, {"time": 206637, "pitch": 82, "duration": 60, "velocity": 75}, {"time": 206757, "pitch": 38, "duration": 60, "velocity": 107}, {"time": 206757, "pitch": 82, "duration": 60, "velocity": 75}, {"time": 206876, "pitch": 35, "duration": 61, "velocity": 107}, {"time": 206877, "pitch": 42, "duration": 61, "velocity": 67}, {"time": 206998, "pitch": 42, "duration": 60, "velocity": 67}, {"time": 207118, "pitch": 46, "duration": 60, "velocity": 107}, {"time": 207118, "pitch": 70, "duration": 60, "velocity": 75}, {"time": 207239, "pitch": 70, "duration": 60, "velocity": 75}, {"time": 207349, "pitch": 35, "duration": 60, "velocity": 107}, {"time": 207359, "pitch": 38, "duration": 60, "velocity": 107}, {"time": 207359, "pitch": 42, "duration": 60, "velocity": 67}, {"time": 207479, "pitch": 42, "duration": 61, "velocity": 67}, {"time": 207600, "pitch": 46, "duration": 60, "velocity": 107}, {"time": 207600, "pitch": 82, "duration": 60, "velocity": 75}, {"time": 207720, "pitch": 38, "duration": 60, "velocity": 107}, {"time": 207841, "pitch": 35, "duration": 60, "velocity": 107}, {"time": 207841, "pitch": 42, "duration": 60, "velocity": 67}, {"time": 207961, "pitch": 42, "duration": 60, "velocity": 67}, {"time": 208081, "pitch": 46, "duration": 61, "velocity": 107}, {"time": 208081, "pitch": 70, "duration": 61, "velocity": 75}, {"time": 208202, "pitch": 70, "duration": 60, "velocity": 75}, {"time": 208322, "pitch": 38, "duration": 60, "velocity": 107}, {"time": 208322, "pitch": 42, "duration": 60, "velocity": 67}, {"time": 208326, "pitch": 35, "duration": 60, "velocity": 107}, {"time": 208443, "pitch": 42, "duration": 60, "velocity": 67}, {"time": 208563, "pitch": 46, "duration": 60, "velocity": 107}, {"time": 208563, "pitch": 82, "duration": 60, "velocity": 75}, {"time": 208683, "pitch": 38, "duration": 61, "velocity": 107}, {"time": 208683, "pitch": 82, "duration": 61, "velocity": 75}, {"time": 208803, "pitch": 35, "duration": 59, "velocity": 107}, {"time": 208804, "pitch": 42, "duration": 59, "velocity": 67}, {"time": 208922, "pitch": 42, "duration": 58, "velocity": 67}, {"time": 209039, "pitch": 38, "duration": 59, "velocity": 107}, {"time": 209039, "pitch": 46, "duration": 59, "velocity": 107}, {"time": 209039, "pitch": 70, "duration": 59, "velocity": 75}, {"time": 209157, "pitch": 70, "duration": 59, "velocity": 75}, {"time": 209265, "pitch": 35, "duration": 60, "velocity": 107}, {"time": 209275, "pitch": 38, "duration": 60, "velocity": 107}, {"time": 209275, "pitch": 42, "duration": 60, "velocity": 67}, {"time": 209395, "pitch": 38, "duration": 61, "velocity": 107}, {"time": 209395, "pitch": 42, "duration": 61, "velocity": 67}, {"time": 209516, "pitch": 46, "duration": 60, "velocity": 107}, {"time": 209516, "pitch": 82, "duration": 60, "velocity": 75}, {"time": 209636, "pitch": 38, "duration": 60, "velocity": 107}, {"time": 209757, "pitch": 35, "duration": 60, "velocity": 107}, {"time": 209757, "pitch": 40, "duration": 40, "velocity": 72}, {"time": 209757, "pitch": 42, "duration": 60, "velocity": 67}, {"time": 209797, "pitch": 40, "duration": 40, "velocity": 73}, {"time": 209837, "pitch": 40, "duration": 40, "velocity": 74}, {"time": 209877, "pitch": 40, "duration": 40, "velocity": 76}, {"time": 209877, "pitch": 42, "duration": 60, "velocity": 67}, {"time": 209917, "pitch": 40, "duration": 40, "velocity": 77}, {"time": 209957, "pitch": 40, "duration": 40, "velocity": 78}, {"time": 209997, "pitch": 40, "duration": 41, "velocity": 81}, {"time": 209997, "pitch": 46, "duration": 61, "velocity": 107}, {"time": 210038, "pitch": 40, "duration": 40, "velocity": 82}, {"time": 210078, "pitch": 40, "duration": 40, "velocity": 83}, {"time": 210118, "pitch": 40, "duration": 40, "velocity": 85}, {"time": 210158, "pitch": 40, "duration": 40, "velocity": 86}, {"time": 210198, "pitch": 40, "duration": 40, "velocity": 88}, {"time": 210238, "pitch": 38, "duration": 60, "velocity": 107}, {"time": 210238, "pitch": 40, "duration": 40, "velocity": 90}, {"time": 210238, "pitch": 42, "duration": 60, "velocity": 67}, {"time": 210242, "pitch": 35, "duration": 60, "velocity": 107}, {"time": 210278, "pitch": 40, "duration": 40, "velocity": 91}, {"time": 210318, "pitch": 40, "duration": 41, "velocity": 92}, {"time": 210359, "pitch": 40, "duration": 40, "velocity": 93}, {"time": 210359, "pitch": 42, "duration": 60, "velocity": 67}, {"time": 210399, "pitch": 40, "duration": 40, "velocity": 96}, {"time": 210439, "pitch": 40, "duration": 40, "velocity": 97}, {"time": 210479, "pitch": 40, "duration": 40, "velocity": 99}, {"time": 210479, "pitch": 46, "duration": 60, "velocity": 107}, {"time": 210519, "pitch": 40, "duration": 40, "velocity": 100}, {"time": 210559, "pitch": 40, "duration": 40, "velocity": 101}, {"time": 210599, "pitch": 38, "duration": 61, "velocity": 107}, {"time": 210599, "pitch": 40, "duration": 41, "velocity": 104}, {"time": 210640, "pitch": 40, "duration": 40, "velocity": 105}, {"time": 210680, "pitch": 40, "duration": 40, "velocity": 106}, {"time": 210719, "pitch": 35, "duration": 60, "velocity": 107}, {"time": 210720, "pitch": 40, "duration": 40, "velocity": 107}, {"time": 210720, "pitch": 42, "duration": 60, "velocity": 67}, {"time": 210760, "pitch": 40, "duration": 40, "velocity": 109}, {"time": 210800, "pitch": 40, "duration": 40, "velocity": 111}, {"time": 210840, "pitch": 40, "duration": 40, "velocity": 113}, {"time": 210840, "pitch": 42, "duration": 60, "velocity": 67}, {"time": 210880, "pitch": 40, "duration": 40, "velocity": 114}, {"time": 210920, "pitch": 40, "duration": 41, "velocity": 115}, {"time": 210961, "pitch": 40, "duration": 40, "velocity": 116}, {"time": 210961, "pitch": 46, "duration": 60, "velocity": 107}, {"time": 211001, "pitch": 40, "duration": 40, "velocity": 119}, {"time": 211041, "pitch": 40, "duration": 40, "velocity": 120}, {"time": 211081, "pitch": 40, "duration": 40, "velocity": 121}, {"time": 211121, "pitch": 40, "duration": 40, "velocity": 123}, {"time": 211161, "pitch": 40, "duration": 40, "velocity": 124}, {"time": 211191, "pitch": 35, "duration": 61, "velocity": 107}, {"time": 211201, "pitch": 38, "duration": 61, "velocity": 107}, {"time": 211201, "pitch": 40, "duration": 41, "velocity": 127}, {"time": 211201, "pitch": 42, "duration": 61, "velocity": 67}, {"time": 211242, "pitch": 40, "duration": 40, "velocity": 127}, {"time": 211282, "pitch": 40, "duration": 40, "velocity": 127}, {"time": 211322, "pitch": 40, "duration": 40, "velocity": 127}, {"time": 211322, "pitch": 42, "duration": 60, "velocity": 67}, {"time": 211362, "pitch": 40, "duration": 40, "velocity": 127}, {"time": 211402, "pitch": 40, "duration": 40, "velocity": 127}, {"time": 211442, "pitch": 40, "duration": 40, "velocity": 127}, {"time": 211442, "pitch": 46, "duration": 60, "velocity": 107}, {"time": 211482, "pitch": 40, "duration": 40, "velocity": 127}, {"time": 211522, "pitch": 40, "duration": 41, "velocity": 127}, {"time": 211563, "pitch": 38, "duration": 60, "velocity": 107}, {"time": 211563, "pitch": 40, "duration": 40, "velocity": 127}, {"time": 211603, "pitch": 40, "duration": 40, "velocity": 127}, {"time": 211643, "pitch": 40, "duration": 40, "velocity": 127}, {"time": 211683, "pitch": 49, "duration": 60, "velocity": 107}, {"time": 225116, "pitch": 40, "duration": 60, "velocity": 78}, {"time": 225236, "pitch": 40, "duration": 60, "velocity": 81}, {"time": 225357, "pitch": 40, "duration": 60, "velocity": 83}, {"time": 225477, "pitch": 40, "duration": 60, "velocity": 87}, {"time": 225597, "pitch": 40, "duration": 61, "velocity": 90}, {"time": 225718, "pitch": 40, "duration": 60, "velocity": 92}, {"time": 225838, "pitch": 40, "duration": 60, "velocity": 96}, {"time": 225959, "pitch": 40, "duration": 60, "velocity": 99}, {"time": 226079, "pitch": 40, "duration": 60, "velocity": 101}, {"time": 226199, "pitch": 40, "duration": 61, "velocity": 105}, {"time": 226320, "pitch": 40, "duration": 60, "velocity": 107}, {"time": 226440, "pitch": 40, "duration": 60, "velocity": 111}, {"time": 226561, "pitch": 40, "duration": 60, "velocity": 101}, {"time": 226621, "pitch": 40, "duration": 60, "velocity": 101}, {"time": 226681, "pitch": 40, "duration": 60, "velocity": 105}, {"time": 226741, "pitch": 40, "duration": 60, "velocity": 105}, {"time": 226801, "pitch": 40, "duration": 61, "velocity": 107}, {"time": 226862, "pitch": 40, "duration": 60, "velocity": 107}, {"time": 226922, "pitch": 40, "duration": 60, "velocity": 111}, {"time": 226982, "pitch": 40, "duration": 60, "velocity": 111}, {"time": 227042, "pitch": 35, "duration": 60, "velocity": 107}, {"time": 227042, "pitch": 42, "duration": 60, "velocity": 67}, {"time": 227042, "pitch": 49, "duration": 60, "velocity": 107}, {"time": 227163, "pitch": 42, "duration": 60, "velocity": 67}, {"time": 227283, "pitch": 46, "duration": 60, "velocity": 107}, {"time": 227283, "pitch": 70, "duration": 60, "velocity": 75}, {"time": 227403, "pitch": 70, "duration": 61, "velocity": 75}, {"time": 227524, "pitch": 38, "duration": 59, "velocity": 107}, {"time": 227524, "pitch": 42, "duration": 59, "velocity": 67}, {"time": 227528, "pitch": 35, "duration": 59, "velocity": 107}, {"time": 227642, "pitch": 42, "duration": 58, "velocity": 67}, {"time": 227759, "pitch": 46, "duration": 59, "velocity": 107}, {"time": 227759, "pitch": 82, "duration": 59, "velocity": 75}, {"time": 227877, "pitch": 38, "duration": 59, "velocity": 107}, {"time": 227877, "pitch": 82, "duration": 59, "velocity": 75}, {"time": 227994, "pitch": 35, "duration": 60, "velocity": 107}, {"time": 227995, "pitch": 42, "duration": 60, "velocity": 67}, {"time": 228115, "pitch": 42, "duration": 61, "velocity": 67}, {"time": 228236, "pitch": 46, "duration": 60, "velocity": 107}, {"time": 228236, "pitch": 70, "duration": 60, "velocity": 75}, {"time": 228356, "pitch": 70, "duration": 60, "velocity": 75}, {"time": 228467, "pitch": 35, "duration": 60, "velocity": 107}, {"time": 228477, "pitch": 38, "duration": 60, "velocity": 107}, {"time": 228477, "pitch": 42, "duration": 60, "velocity": 67}, {"time": 228597, "pitch": 42, "duration": 60, "velocity": 67}, {"time": 228717, "pitch": 46, "duration": 61, "velocity": 107}, {"time": 228717, "pitch": 82, "duration": 61, "velocity": 75}, {"time": 228838, "pitch": 38, "duration": 60, "velocity": 107}, {"time": 228958, "pitch": 35, "duration": 60, "velocity": 107}, {"time": 228958, "pitch": 42, "duration": 60, "velocity": 67}, {"time": 229079, "pitch": 42, "duration": 60, "velocity": 67}, {"time": 229199, "pitch": 46, "duration": 60, "velocity": 107}, {"time": 229199, "pitch": 70, "duration": 60, "velocity": 75}, {"time": 229319, "pitch": 70, "duration": 61, "velocity": 75}, {"time": 229440, "pitch": 38, "duration": 60, "velocity": 107}, {"time": 229440, "pitch": 42, "duration": 60, "velocity": 67}, {"time": 229444, "pitch": 35, "duration": 60, "velocity": 107}, {"time": 229560, "pitch": 42, "duration": 60, "velocity": 67}, {"time": 229681, "pitch": 46, "duration": 60, "velocity": 107}, {"time": 229681, "pitch": 82, "duration": 60, "velocity": 75}, {"time": 229801, "pitch": 38, "duration": 60, "velocity": 107}, {"time": 229801, "pitch": 82, "duration": 60, "velocity": 75}, {"time": 229920, "pitch": 35, "duration": 61, "velocity": 107}, {"time": 229921, "pitch": 42, "duration": 61, "velocity": 67}, {"time": 230042, "pitch": 42, "duration": 60, "velocity": 67}, {"time": 230162, "pitch": 46, "duration": 60, "velocity": 107}, {"time": 230162, "pitch": 70, "duration": 60, "velocity": 75}, {"time": 230283, "pitch": 70, "duration": 60, "velocity": 75}, {"time": 230393, "pitch": 35, "duration": 60, "velocity": 107}, {"time": 230403, "pitch": 38, "duration": 60, "velocity": 107}, {"time": 230403, "pitch": 42, "duration": 60, "velocity": 67}, {"time": 230523, "pitch": 42, "duration": 61, "velocity": 67}, {"time": 230644, "pitch": 46, "duration": 60, "velocity": 107}, {"time": 230644, "pitch": 82, "duration": 60, "velocity": 75}, {"time": 230764, "pitch": 38, "duration": 60, "velocity": 107}, {"time": 230884, "pitch": 35, "duration": 59, "velocity": 107}, {"time": 230884, "pitch": 42, "duration": 59, "velocity": 67}, {"time": 231002, "pitch": 42, "duration": 59, "velocity": 67}, {"time": 231120, "pitch": 46, "duration": 59, "velocity": 107}, {"time": 231120, "pitch": 70, "duration": 59, "velocity": 75}, {"time": 231238, "pitch": 70, "duration": 59, "velocity": 75}, {"time": 231356, "pitch": 38, "duration": 60, "velocity": 107}, {"time": 231356, "pitch": 42, "duration": 60, "velocity": 67}, {"time": 231360, "pitch": 35, "duration": 60, "velocity": 107}, {"time": 231476, "pitch": 42, "duration": 60, "velocity": 67}, {"time": 231597, "pitch": 46, "duration": 60, "velocity": 107}, {"time": 231597, "pitch": 82, "duration": 60, "velocity": 75}, {"time": 231717, "pitch": 38, "duration": 60, "velocity": 107}, {"time": 231717, "pitch": 82, "duration": 60, "velocity": 75}, {"time": 231836, "pitch": 35, "duration": 61, "velocity": 107}, {"time": 231837, "pitch": 42, "duration": 61, "velocity": 67}, {"time": 231958, "pitch": 42, "duration": 60, "velocity": 67}, {"time": 232078, "pitch": 38, "duration": 60, "velocity": 107}, {"time": 232078, "pitch": 46, "duration": 60, "velocity": 107}, {"time": 232078, "pitch": 70, "duration": 60, "velocity": 75}, {"time": 232199, "pitch": 70, "duration": 60, "velocity": 75}, {"time": 232309, "pitch": 35, "duration": 60, "velocity": 107}, {"time": 232319, "pitch": 38, "duration": 60, "velocity": 107}, {"time": 232319, "pitch": 42, "duration": 60, "velocity": 67}, {"time": 232439, "pitch": 38, "duration": 61, "velocity": 107}, {"time": 232439, "pitch": 42, "duration": 61, "velocity": 67}, {"time": 232560, "pitch": 46, "duration": 60, "velocity": 107}, {"time": 232560, "pitch": 82, "duration": 60, "velocity": 75}, {"time": 232680, "pitch": 38, "duration": 60, "velocity": 107}, {"time": 232801, "pitch": 35, "duration": 60, "velocity": 107}, {"time": 232801, "pitch": 42, "duration": 60, "velocity": 67}, {"time": 232921, "pitch": 42, "duration": 60, "velocity": 67}, {"time": 233041, "pitch": 46, "duration": 61, "velocity": 107}, {"time": 233041, "pitch": 70, "duration": 61, "velocity": 75}, {"time": 233162, "pitch": 70, "duration": 60, "velocity": 75}, {"time": 233282, "pitch": 38, "duration": 60, "velocity": 107}, {"time": 233282, "pitch": 42, "duration": 60, "velocity": 67}, {"time": 233286, "pitch": 35, "duration": 60, "velocity": 107}, {"time": 233403, "pitch": 42, "duration": 60, "velocity": 67}, {"time": 233523, "pitch": 46, "duration": 60, "velocity": 107}, {"time": 233523, "pitch": 82, "duration": 60, "velocity": 75}, {"time": 233643, "pitch": 38, "duration": 61, "velocity": 107}, {"time": 233643, "pitch": 82, "duration": 61, "velocity": 75}, {"time": 233763, "pitch": 35, "duration": 59, "velocity": 107}, {"time": 233764, "pitch": 42, "duration": 59, "velocity": 67}, {"time": 233882, "pitch": 42, "duration": 58, "velocity": 67}, {"time": 233999, "pitch": 46, "duration": 59, "velocity": 107}, {"time": 233999, "pitch": 70, "duration": 59, "velocity": 75}, {"time": 234117, "pitch": 70, "duration": 59, "velocity": 75}, {"time": 234225, "pitch": 35, "duration": 60, "velocity": 107}, {"time": 234235, "pitch": 38, "duration": 60, "velocity": 107}, {"time": 234235, "pitch": 42, "duration": 60, "velocity": 67}, {"time": 234235, "pitch": 82, "duration": 60, "velocity": 75}, {"time": 234355, "pitch": 42, "duration": 61, "velocity": 67}, {"time": 234355, "pitch": 82, "duration": 61, "velocity": 75}, {"time": 234476, "pitch": 46, "duration": 60, "velocity": 107}, {"time": 234596, "pitch": 38, "duration": 60, "velocity": 107}, {"time": 234596, "pitch": 82, "duration": 60, "velocity": 75}, {"time": 234717, "pitch": 35, "duration": 60, "velocity": 107}, {"time": 234717, "pitch": 42, "duration": 60, "velocity": 67}, {"time": 234717, "pitch": 49, "duration": 60, "velocity": 107}, {"time": 234837, "pitch": 42, "duration": 60, "velocity": 67}, {"time": 234957, "pitch": 46, "duration": 61, "velocity": 107}, {"time": 234957, "pitch": 70, "duration": 61, "velocity": 75}, {"time": 235078, "pitch": 70, "duration": 60, "velocity": 75}, {"time": 235198, "pitch": 38, "duration": 60, "velocity": 107}, {"time": 235198, "pitch": 42, "duration": 60, "velocity": 67}, {"time": 235202, "pitch": 35, "duration": 60, "velocity": 107}, {"time": 235319, "pitch": 42, "duration": 60, "velocity": 67}, {"time": 235439, "pitch": 46, "duration": 60, "velocity": 107}, {"time": 235439, "pitch": 82, "duration": 60, "velocity": 75}, {"time": 235559, "pitch": 38, "duration": 61, "velocity": 107}, {"time": 235559, "pitch": 82, "duration": 61, "velocity": 75}, {"time": 235679, "pitch": 35, "duration": 60, "velocity": 107}, {"time": 235680, "pitch": 42, "duration": 60, "velocity": 67}, {"time": 235800, "pitch": 42, "duration": 60, "velocity": 67}, {"time": 235921, "pitch": 46, "duration": 60, "velocity": 107}, {"time": 235921, "pitch": 70, "duration": 60, "velocity": 75}, {"time": 236041, "pitch": 70, "duration": 60, "velocity": 75}, {"time": 236151, "pitch": 35, "duration": 61, "velocity": 107}, {"time": 236161, "pitch": 38, "duration": 61, "velocity": 107}, {"time": 236161, "pitch": 42, "duration": 61, "velocity": 67}, {"time": 236282, "pitch": 42, "duration": 60, "velocity": 67}, {"time": 236402, "pitch": 46, "duration": 60, "velocity": 107}, {"time": 236402, "pitch": 82, "duration": 60, "velocity": 75}, {"time": 236523, "pitch": 38, "duration": 60, "velocity": 107}, {"time": 236643, "pitch": 35, "duration": 60, "velocity": 107}, {"time": 236643, "pitch": 42, "duration": 60, "velocity": 67}, {"time": 236763, "pitch": 42, "duration": 61, "velocity": 67}, {"time": 236884, "pitch": 46, "duration": 60, "velocity": 107}, {"time": 236884, "pitch": 70, "duration": 60, "velocity": 75}, {"time": 237004, "pitch": 70, "duration": 60, "velocity": 75}, {"time": 237124, "pitch": 38, "duration": 59, "velocity": 107}, {"time": 237124, "pitch": 42, "duration": 59, "velocity": 67}, {"time": 237128, "pitch": 35, "duration": 59, "velocity": 107}, {"time": 237242, "pitch": 42, "duration": 59, "velocity": 67}, {"time": 237360, "pitch": 46, "duration": 59, "velocity": 107}, {"time": 237360, "pitch": 82, "duration": 59, "velocity": 75}, {"time": 237478, "pitch": 38, "duration": 59, "velocity": 107}, {"time": 237478, "pitch": 82, "duration": 59, "velocity": 75}, {"time": 237595, "pitch": 35, "duration": 60, "velocity": 107}, {"time": 237596, "pitch": 42, "duration": 60, "velocity": 67}, {"time": 237716, "pitch": 42, "duration": 60, "velocity": 67}, {"time": 237837, "pitch": 46, "duration": 60, "velocity": 107}, {"time": 237837, "pitch": 70, "duration": 60, "velocity": 75}, {"time": 237957, "pitch": 70, "duration": 60, "velocity": 75}, {"time": 238067, "pitch": 35, "duration": 61, "velocity": 107}, {"time": 238077, "pitch": 38, "duration": 61, "velocity": 107}, {"time": 238077, "pitch": 42, "duration": 61, "velocity": 67}, {"time": 238198, "pitch": 42, "duration": 60, "velocity": 67}, {"time": 238318, "pitch": 46, "duration": 60, "velocity": 107}, {"time": 238318, "pitch": 82, "duration": 60, "velocity": 75}, {"time": 238439, "pitch": 38, "duration": 60, "velocity": 107}, {"time": 238559, "pitch": 35, "duration": 60, "velocity": 107}, {"time": 238559, "pitch": 42, "duration": 60, "velocity": 67}, {"time": 238679, "pitch": 42, "duration": 61, "velocity": 67}, {"time": 238800, "pitch": 46, "duration": 60, "velocity": 107}, {"time": 238800, "pitch": 70, "duration": 60, "velocity": 75}, {"time": 238920, "pitch": 70, "duration": 60, "velocity": 75}, {"time": 239041, "pitch": 38, "duration": 60, "velocity": 107}, {"time": 239041, "pitch": 42, "duration": 60, "velocity": 67}, {"time": 239045, "pitch": 35, "duration": 60, "velocity": 107}, {"time": 239161, "pitch": 42, "duration": 60, "velocity": 67}, {"time": 239281, "pitch": 46, "duration": 61, "velocity": 107}, {"time": 239281, "pitch": 82, "duration": 61, "velocity": 75}, {"time": 239402, "pitch": 38, "duration": 60, "velocity": 107}, {"time": 239402, "pitch": 82, "duration": 60, "velocity": 75}, {"time": 239521, "pitch": 35, "duration": 60, "velocity": 107}, {"time": 239522, "pitch": 42, "duration": 60, "velocity": 67}, {"time": 239643, "pitch": 42, "duration": 60, "velocity": 67}, {"time": 239763, "pitch": 38, "duration": 60, "velocity": 107}, {"time": 239763, "pitch": 46, "duration": 60, "velocity": 107}, {"time": 239763, "pitch": 70, "duration": 60, "velocity": 75}, {"time": 239883, "pitch": 70, "duration": 61, "velocity": 75}, {"time": 239994, "pitch": 35, "duration": 59, "velocity": 107}, {"time": 240004, "pitch": 38, "duration": 59, "velocity": 107}, {"time": 240004, "pitch": 42, "duration": 59, "velocity": 67}, {"time": 240122, "pitch": 38, "duration": 58, "velocity": 107}, {"time": 240122, "pitch": 42, "duration": 58, "velocity": 67}, {"time": 240239, "pitch": 46, "duration": 59, "velocity": 107}, {"time": 240239, "pitch": 82, "duration": 59, "velocity": 75}, {"time": 240357, "pitch": 38, "duration": 59, "velocity": 107}, {"time": 240475, "pitch": 35, "duration": 60, "velocity": 107}, {"time": 240475, "pitch": 42, "duration": 60, "velocity": 67}, {"time": 240595, "pitch": 42, "duration": 61, "velocity": 67}, {"time": 240716, "pitch": 46, "duration": 60, "velocity": 107}, {"time": 240716, "pitch": 70, "duration": 60, "velocity": 75}, {"time": 240836, "pitch": 70, "duration": 60, "velocity": 75}, {"time": 240957, "pitch": 38, "duration": 60, "velocity": 107}, {"time": 240957, "pitch": 42, "duration": 60, "velocity": 67}, {"time": 240961, "pitch": 35, "duration": 60, "velocity": 107}, {"time": 241077, "pitch": 42, "duration": 60, "velocity": 67}, {"time": 241197, "pitch": 46, "duration": 61, "velocity": 107}, {"time": 241197, "pitch": 82, "duration": 61, "velocity": 75}, {"time": 241318, "pitch": 38, "duration": 60, "velocity": 107}, {"time": 241318, "pitch": 82, "duration": 60, "velocity": 75}, {"time": 241437, "pitch": 35, "duration": 60, "velocity": 107}, {"time": 241438, "pitch": 42, "duration": 60, "velocity": 67}, {"time": 241559, "pitch": 42, "duration": 60, "velocity": 67}, {"time": 241679, "pitch": 46, "duration": 60, "velocity": 107}, {"time": 241679, "pitch": 70, "duration": 60, "velocity": 75}, {"time": 241799, "pitch": 70, "duration": 61, "velocity": 75}, {"time": 241910, "pitch": 35, "duration": 60, "velocity": 107}, {"time": 241920, "pitch": 38, "duration": 60, "velocity": 107}, {"time": 241920, "pitch": 42, "duration": 60, "velocity": 67}, {"time": 241920, "pitch": 82, "duration": 60, "velocity": 75}, {"time": 242040, "pitch": 42, "duration": 60, "velocity": 67}, {"time": 242040, "pitch": 82, "duration": 60, "velocity": 75}, {"time": 242161, "pitch": 46, "duration": 60, "velocity": 107}, {"time": 242281, "pitch": 38, "duration": 60, "velocity": 107}, {"time": 242281, "pitch": 82, "duration": 60, "velocity": 75}, {"time": 244317, "pitch": 40, "duration": 40, "velocity": 22}, {"time": 244357, "pitch": 40, "duration": 41, "velocity": 22}, {"time": 244398, "pitch": 40, "duration": 40, "velocity": 24}, {"time": 244438, "pitch": 40, "duration": 40, "velocity": 26}, {"time": 244478, "pitch": 40, "duration": 40, "velocity": 27}, {"time": 244518, "pitch": 40, "duration": 40, "velocity": 28}, {"time": 244558, "pitch": 40, "duration": 40, "velocity": 31}, {"time": 244598, "pitch": 40, "duration": 40, "velocity": 31}, {"time": 244638, "pitch": 40, "duration": 41, "velocity": 34}, {"time": 244679, "pitch": 40, "duration": 40, "velocity": 35}, {"time": 244719, "pitch": 40, "duration": 40, "velocity": 37}, {"time": 244759, "pitch": 40, "duration": 40, "velocity": 39}, {"time": 244799, "pitch": 40, "duration": 40, "velocity": 41}, {"time": 244839, "pitch": 40, "duration": 40, "velocity": 42}, {"time": 244879, "pitch": 40, "duration": 40, "velocity": 44}, {"time": 244919, "pitch": 40, "duration": 40, "velocity": 47}, {"time": 244959, "pitch": 40, "duration": 41, "velocity": 48}, {"time": 245000, "pitch": 40, "duration": 40, "velocity": 51}, {"time": 245040, "pitch": 40, "duration": 40, "velocity": 52}, {"time": 245080, "pitch": 40, "duration": 40, "velocity": 55}, {"time": 245120, "pitch": 40, "duration": 40, "velocity": 56}, {"time": 245160, "pitch": 40, "duration": 40, "velocity": 59}, {"time": 245200, "pitch": 40, "duration": 40, "velocity": 60}, {"time": 245240, "pitch": 40, "duration": 41, "velocity": 63}, {"time": 245281, "pitch": 40, "duration": 40, "velocity": 64}, {"time": 245321, "pitch": 40, "duration": 40, "velocity": 68}, {"time": 245361, "pitch": 40, "duration": 40, "velocity": 68}, {"time": 245401, "pitch": 40, "duration": 40, "velocity": 72}, {"time": 245441, "pitch": 40, "duration": 40, "velocity": 74}, {"time": 245481, "pitch": 40, "duration": 40, "velocity": 75}, {"time": 245521, "pitch": 40, "duration": 40, "velocity": 79}, {"time": 245561, "pitch": 40, "duration": 41, "velocity": 80}, {"time": 245602, "pitch": 40, "duration": 40, "velocity": 83}, {"time": 245642, "pitch": 40, "duration": 40, "velocity": 85}, {"time": 245682, "pitch": 40, "duration": 40, "velocity": 89}, {"time": 245722, "pitch": 40, "duration": 40, "velocity": 91}, {"time": 245762, "pitch": 40, "duration": 40, "velocity": 92}, {"time": 245802, "pitch": 40, "duration": 40, "velocity": 95}, {"time": 245842, "pitch": 40, "duration": 41, "velocity": 98}, {"time": 245883, "pitch": 40, "duration": 40, "velocity": 99}, {"time": 245923, "pitch": 40, "duration": 40, "velocity": 103}, {"time": 245963, "pitch": 40, "duration": 40, "velocity": 107}, {"time": 246003, "pitch": 40, "duration": 40, "velocity": 108}, {"time": 246043, "pitch": 40, "duration": 40, "velocity": 111}, {"time": 246083, "pitch": 40, "duration": 40, "velocity": 114}, {"time": 246123, "pitch": 40, "duration": 40, "velocity": 116}, {"time": 246163, "pitch": 40, "duration": 41, "velocity": 118}, {"time": 246204, "pitch": 40, "duration": 40, "velocity": 122}, {"time": 246244, "pitch": 35, "duration": 59, "velocity": 107}, {"time": 246244, "pitch": 42, "duration": 59, "velocity": 67}, {"time": 246244, "pitch": 49, "duration": 59, "velocity": 107}, {"time": 246362, "pitch": 42, "duration": 58, "velocity": 67}, {"time": 246479, "pitch": 46, "duration": 59, "velocity": 107}, {"time": 246479, "pitch": 70, "duration": 59, "velocity": 75}, {"time": 246597, "pitch": 70, "duration": 59, "velocity": 75}, {"time": 246715, "pitch": 38, "duration": 60, "velocity": 107}, {"time": 246715, "pitch": 42, "duration": 60, "velocity": 67}, {"time": 246719, "pitch": 35, "duration": 60, "velocity": 107}, {"time": 246835, "pitch": 42, "duration": 61, "velocity": 67}, {"time": 246956, "pitch": 46, "duration": 60, "velocity": 107}, {"time": 246956, "pitch": 82, "duration": 60, "velocity": 75}, {"time": 247076, "pitch": 38, "duration": 60, "velocity": 107}, {"time": 247076, "pitch": 82, "duration": 60, "velocity": 75}, {"time": 247196, "pitch": 35, "duration": 60, "velocity": 107}, {"time": 247197, "pitch": 42, "duration": 60, "velocity": 67}, {"time": 247317, "pitch": 42, "duration": 60, "velocity": 67}, {"time": 247437, "pitch": 46, "duration": 61, "velocity": 107}, {"time": 247437, "pitch": 70, "duration": 61, "velocity": 75}, {"time": 247558, "pitch": 70, "duration": 60, "velocity": 75}, {"time": 247668, "pitch": 35, "duration": 60, "velocity": 107}, {"time": 247678, "pitch": 38, "duration": 60, "velocity": 107}, {"time": 247678, "pitch": 42, "duration": 60, "velocity": 67}, {"time": 247799, "pitch": 42, "duration": 60, "velocity": 67}, {"time": 247919, "pitch": 46, "duration": 60, "velocity": 107}, {"time": 247919, "pitch": 82, "duration": 60, "velocity": 75}, {"time": 248039, "pitch": 38, "duration": 61, "velocity": 107}, {"time": 248160, "pitch": 35, "duration": 60, "velocity": 107}, {"time": 248160, "pitch": 42, "duration": 60, "velocity": 67}, {"time": 248280, "pitch": 42, "duration": 60, "velocity": 67}, {"time": 248401, "pitch": 46, "duration": 60, "velocity": 107}, {"time": 248401, "pitch": 70, "duration": 60, "velocity": 75}, {"time": 248521, "pitch": 70, "duration": 60, "velocity": 75}, {"time": 248641, "pitch": 38, "duration": 61, "velocity": 107}, {"time": 248641, "pitch": 42, "duration": 61, "velocity": 67}, {"time": 248645, "pitch": 35, "duration": 61, "velocity": 107}, {"time": 248762, "pitch": 42, "duration": 60, "velocity": 67}, {"time": 248882, "pitch": 46, "duration": 60, "velocity": 107}, {"time": 248882, "pitch": 82, "duration": 60, "velocity": 75}, {"time": 249003, "pitch": 38, "duration": 60, "velocity": 107}, {"time": 249003, "pitch": 82, "duration": 60, "velocity": 75}, {"time": 249122, "pitch": 35, "duration": 60, "velocity": 107}, {"time": 249123, "pitch": 42, "duration": 60, "velocity": 67}, {"time": 249243, "pitch": 42, "duration": 61, "velocity": 67}, {"time": 249364, "pitch": 46, "duration": 60, "velocity": 107}, {"time": 249364, "pitch": 70, "duration": 60, "velocity": 75}, {"time": 249484, "pitch": 70, "duration": 60, "velocity": 75}, {"time": 249595, "pitch": 35, "duration": 59, "velocity": 107}, {"time": 249604, "pitch": 38, "duration": 59, "velocity": 107}, {"time": 249604, "pitch": 42, "duration": 59, "velocity": 67}, {"time": 249722, "pitch": 42, "duration": 59, "velocity": 67}, {"time": 249840, "pitch": 46, "duration": 59, "velocity": 107}, {"time": 249840, "pitch": 82, "duration": 59, "velocity": 75}, {"time": 249958, "pitch": 38, "duration": 59, "velocity": 107}, {"time": 250076, "pitch": 35, "duration": 60, "velocity": 107}, {"time": 250076, "pitch": 42, "duration": 60, "velocity": 67}, {"time": 250196, "pitch": 42, "duration": 60, "velocity": 67}, {"time": 250317, "pitch": 46, "duration": 60, "velocity": 107}, {"time": 250317, "pitch": 70, "duration": 60, "velocity": 75}, {"time": 250437, "pitch": 70, "duration": 60, "velocity": 75}, {"time": 250557, "pitch": 38, "duration": 61, "velocity": 107}, {"time": 250557, "pitch": 42, "duration": 61, "velocity": 67}, {"time": 250561, "pitch": 35, "duration": 61, "velocity": 107}, {"time": 250678, "pitch": 42, "duration": 60, "velocity": 67}, {"time": 250798, "pitch": 46, "duration": 60, "velocity": 107}, {"time": 250798, "pitch": 82, "duration": 60, "velocity": 75}, {"time": 250919, "pitch": 38, "duration": 60, "velocity": 107}, {"time": 250919, "pitch": 82, "duration": 60, "velocity": 75}, {"time": 251038, "pitch": 35, "duration": 60, "velocity": 107}, {"time": 251039, "pitch": 42, "duration": 60, "velocity": 67}, {"time": 251159, "pitch": 42, "duration": 61, "velocity": 67}, {"time": 251280, "pitch": 46, "duration": 60, "velocity": 107}, {"time": 251280, "pitch": 70, "duration": 60, "velocity": 75}, {"time": 251400, "pitch": 70, "duration": 60, "velocity": 75}, {"time": 251511, "pitch": 35, "duration": 60, "velocity": 107}, {"time": 251521, "pitch": 38, "duration": 60, "velocity": 107}, {"time": 251521, "pitch": 42, "duration": 60, "velocity": 67}, {"time": 251641, "pitch": 42, "duration": 60, "velocity": 67}, {"time": 251761, "pitch": 46, "duration": 61, "velocity": 107}, {"time": 251761, "pitch": 82, "duration": 61, "velocity": 75}, {"time": 251882, "pitch": 38, "duration": 60, "velocity": 107}, {"time": 252002, "pitch": 35, "duration": 60, "velocity": 107}, {"time": 252002, "pitch": 42, "duration": 60, "velocity": 67}, {"time": 252123, "pitch": 42, "duration": 60, "velocity": 67}, {"time": 252243, "pitch": 46, "duration": 60, "velocity": 107}, {"time": 252243, "pitch": 70, "duration": 60, "velocity": 75}, {"time": 252363, "pitch": 70, "duration": 61, "velocity": 75}, {"time": 252484, "pitch": 38, "duration": 59, "velocity": 107}, {"time": 252484, "pitch": 42, "duration": 59, "velocity": 67}, {"time": 252488, "pitch": 35, "duration": 59, "velocity": 107}, {"time": 252602, "pitch": 42, "duration": 58, "velocity": 67}, {"time": 252719, "pitch": 46, "duration": 59, "velocity": 107}, {"time": 252719, "pitch": 82, "duration": 59, "velocity": 75}, {"time": 252837, "pitch": 38, "duration": 59, "velocity": 107}, {"time": 252837, "pitch": 82, "duration": 59, "velocity": 75}, {"time": 252954, "pitch": 35, "duration": 60, "velocity": 107}, {"time": 252955, "pitch": 42, "duration": 60, "velocity": 67}, {"time": 253075, "pitch": 42, "duration": 61, "velocity": 67}, {"time": 253196, "pitch": 38, "duration": 60, "velocity": 107}, {"time": 253196, "pitch": 46, "duration": 60, "velocity": 107}, {"time": 253196, "pitch": 70, "duration": 60, "velocity": 75}, {"time": 253316, "pitch": 70, "duration": 60, "velocity": 75}, {"time": 253427, "pitch": 35, "duration": 60, "velocity": 107}, {"time": 253437, "pitch": 38, "duration": 60, "velocity": 107}, {"time": 253437, "pitch": 42, "duration": 60, "velocity": 67}, {"time": 253437, "pitch": 82, "duration": 60, "velocity": 75}, {"time": 253557, "pitch": 38, "duration": 60, "velocity": 107}, {"time": 253557, "pitch": 42, "duration": 60, "velocity": 67}, {"time": 253557, "pitch": 82, "duration": 60, "velocity": 75}, {"time": 253677, "pitch": 46, "duration": 61, "velocity": 107}, {"time": 253798, "pitch": 38, "duration": 60, "velocity": 107}, {"time": 253798, "pitch": 82, "duration": 60, "velocity": 75}, {"time": 253918, "pitch": 35, "duration": 60, "velocity": 107}, {"time": 253918, "pitch": 42, "duration": 60, "velocity": 67}, {"time": 253918, "pitch": 49, "duration": 60, "velocity": 107}, {"time": 254039, "pitch": 42, "duration": 60, "velocity": 67}, {"time": 254159, "pitch": 46, "duration": 60, "velocity": 107}, {"time": 254159, "pitch": 70, "duration": 60, "velocity": 75}, {"time": 254279, "pitch": 70, "duration": 61, "velocity": 75}, {"time": 254400, "pitch": 38, "duration": 60, "velocity": 107}, {"time": 254400, "pitch": 42, "duration": 60, "velocity": 67}, {"time": 254404, "pitch": 35, "duration": 60, "velocity": 107}, {"time": 254520, "pitch": 42, "duration": 60, "velocity": 67}, {"time": 254641, "pitch": 46, "duration": 60, "velocity": 107}, {"time": 254641, "pitch": 82, "duration": 60, "velocity": 75}, {"time": 254761, "pitch": 38, "duration": 60, "velocity": 107}, {"time": 254761, "pitch": 82, "duration": 60, "velocity": 75}, {"time": 254880, "pitch": 35, "duration": 61, "velocity": 107}, {"time": 254881, "pitch": 42, "duration": 61, "velocity": 67}, {"time": 255002, "pitch": 42, "duration": 60, "velocity": 67}, {"time": 255122, "pitch": 46, "duration": 60, "velocity": 107}, {"time": 255122, "pitch": 70, "duration": 60, "velocity": 75}, {"time": 255243, "pitch": 70, "duration": 60, "velocity": 75}, {"time": 255353, "pitch": 35, "duration": 60, "velocity": 107}, {"time": 255363, "pitch": 38, "duration": 60, "velocity": 107}, {"time": 255363, "pitch": 42, "duration": 60, "velocity": 67}, {"time": 255483, "pitch": 42, "duration": 61, "velocity": 67}, {"time": 255604, "pitch": 46, "duration": 60, "velocity": 107}, {"time": 255604, "pitch": 82, "duration": 60, "velocity": 75}, {"time": 255724, "pitch": 38, "duration": 60, "velocity": 107}, {"time": 255844, "pitch": 35, "duration": 59, "velocity": 107}, {"time": 255844, "pitch": 42, "duration": 59, "velocity": 67}, {"time": 255962, "pitch": 42, "duration": 59, "velocity": 67}, {"time": 256080, "pitch": 46, "duration": 59, "velocity": 107}, {"time": 256080, "pitch": 70, "duration": 59, "velocity": 75}, {"time": 256198, "pitch": 70, "duration": 59, "velocity": 75}, {"time": 256316, "pitch": 38, "duration": 60, "velocity": 107}, {"time": 256316, "pitch": 42, "duration": 60, "velocity": 67}, {"time": 256320, "pitch": 35, "duration": 60, "velocity": 107}, {"time": 256436, "pitch": 42, "duration": 60, "velocity": 67}, {"time": 256557, "pitch": 46, "duration": 60, "velocity": 107}, {"time": 256557, "pitch": 82, "duration": 60, "velocity": 75}, {"time": 256677, "pitch": 38, "duration": 60, "velocity": 107}, {"time": 256677, "pitch": 82, "duration": 60, "velocity": 75}, {"time": 256796, "pitch": 35, "duration": 61, "velocity": 107}, {"time": 256797, "pitch": 42, "duration": 61, "velocity": 67}, {"time": 256918, "pitch": 42, "duration": 60, "velocity": 67}, {"time": 257038, "pitch": 46, "duration": 60, "velocity": 107}, {"time": 257038, "pitch": 70, "duration": 60, "velocity": 75}, {"time": 257159, "pitch": 70, "duration": 60, "velocity": 75}, {"time": 257269, "pitch": 35, "duration": 60, "velocity": 107}, {"time": 257279, "pitch": 38, "duration": 60, "velocity": 107}, {"time": 257279, "pitch": 42, "duration": 60, "velocity": 67}, {"time": 257399, "pitch": 42, "duration": 61, "velocity": 67}, {"time": 257520, "pitch": 46, "duration": 60, "velocity": 107}, {"time": 257520, "pitch": 82, "duration": 60, "velocity": 75}, {"time": 257640, "pitch": 38, "duration": 60, "velocity": 107}, {"time": 257761, "pitch": 35, "duration": 60, "velocity": 107}, {"time": 257761, "pitch": 42, "duration": 60, "velocity": 67}, {"time": 257881, "pitch": 42, "duration": 60, "velocity": 67}, {"time": 258001, "pitch": 46, "duration": 61, "velocity": 107}, {"time": 258001, "pitch": 70, "duration": 61, "velocity": 75}, {"time": 258122, "pitch": 70, "duration": 60, "velocity": 75}, {"time": 258242, "pitch": 38, "duration": 60, "velocity": 107}, {"time": 258242, "pitch": 42, "duration": 60, "velocity": 67}, {"time": 258246, "pitch": 35, "duration": 60, "velocity": 107}, {"time": 258363, "pitch": 42, "duration": 60, "velocity": 67}, {"time": 258483, "pitch": 46, "duration": 60, "velocity": 107}, {"time": 258483, "pitch": 82, "duration": 60, "velocity": 75}, {"time": 258603, "pitch": 38, "duration": 61, "velocity": 107}, {"time": 258603, "pitch": 82, "duration": 61, "velocity": 75}, {"time": 258723, "pitch": 35, "duration": 59, "velocity": 107}, {"time": 258724, "pitch": 42, "duration": 59, "velocity": 67}, {"time": 258842, "pitch": 42, "duration": 58, "velocity": 67}, {"time": 258959, "pitch": 46, "duration": 59, "velocity": 107}, {"time": 258959, "pitch": 70, "duration": 59, "velocity": 75}, {"time": 259077, "pitch": 70, "duration": 59, "velocity": 75}, {"time": 259185, "pitch": 35, "duration": 60, "velocity": 107}, {"time": 259195, "pitch": 38, "duration": 60, "velocity": 107}, {"time": 259195, "pitch": 42, "duration": 60, "velocity": 67}, {"time": 259315, "pitch": 42, "duration": 61, "velocity": 67}, {"time": 259436, "pitch": 46, "duration": 60, "velocity": 107}, {"time": 259436, "pitch": 82, "duration": 60, "velocity": 75}, {"time": 259556, "pitch": 38, "duration": 60, "velocity": 107}, {"time": 259677, "pitch": 35, "duration": 60, "velocity": 107}, {"time": 259677, "pitch": 40, "duration": 60, "velocity": 78}, {"time": 259677, "pitch": 42, "duration": 60, "velocity": 67}, {"time": 259797, "pitch": 40, "duration": 60, "velocity": 81}, {"time": 259797, "pitch": 42, "duration": 60, "velocity": 67}, {"time": 259917, "pitch": 40, "duration": 61, "velocity": 85}, {"time": 259917, "pitch": 46, "duration": 61, "velocity": 107}, {"time": 259917, "pitch": 70, "duration": 61, "velocity": 75}, {"time": 260038, "pitch": 40, "duration": 60, "velocity": 88}, {"time": 260038, "pitch": 70, "duration": 60, "velocity": 75}, {"time": 260158, "pitch": 38, "duration": 60, "velocity": 107}, {"time": 260158, "pitch": 40, "duration": 60, "velocity": 92}, {"time": 260158, "pitch": 42, "duration": 60, "velocity": 67}, {"time": 260162, "pitch": 35, "duration": 60, "velocity": 107}, {"time": 260279, "pitch": 40, "duration": 60, "velocity": 96}, {"time": 260279, "pitch": 42, "duration": 60, "velocity": 67}, {"time": 260399, "pitch": 40, "duration": 60, "velocity": 99}, {"time": 260399, "pitch": 46, "duration": 60, "velocity": 107}, {"time": 260399, "pitch": 82, "duration": 60, "velocity": 75}, {"time": 260519, "pitch": 38, "duration": 61, "velocity": 107}, {"time": 260519, "pitch": 40, "duration": 61, "velocity": 102}, {"time": 260519, "pitch": 82, "duration": 61, "velocity": 75}, {"time": 260639, "pitch": 35, "duration": 60, "velocity": 107}, {"time": 260640, "pitch": 40, "duration": 60, "velocity": 106}, {"time": 260640, "pitch": 42, "duration": 60, "velocity": 67}, {"time": 260760, "pitch": 40, "duration": 60, "velocity": 110}, {"time": 260760, "pitch": 42, "duration": 60, "velocity": 67}, {"time": 260881, "pitch": 38, "duration": 60, "velocity": 107}, {"time": 260881, "pitch": 40, "duration": 60, "velocity": 114}, {"time": 260881, "pitch": 46, "duration": 60, "velocity": 107}, {"time": 260881, "pitch": 70, "duration": 60, "velocity": 75}, {"time": 261001, "pitch": 40, "duration": 60, "velocity": 118}, {"time": 261001, "pitch": 70, "duration": 60, "velocity": 75}, {"time": 261111, "pitch": 35, "duration": 61, "velocity": 107}, {"time": 261121, "pitch": 38, "duration": 61, "velocity": 107}, {"time": 261121, "pitch": 40, "duration": 61, "velocity": 127}, {"time": 261121, "pitch": 42, "duration": 61, "velocity": 67}, {"time": 261121, "pitch": 82, "duration": 61, "velocity": 75}, {"time": 261242, "pitch": 38, "duration": 60, "velocity": 107}, {"time": 261242, "pitch": 40, "duration": 60, "velocity": 127}, {"time": 261242, "pitch": 42, "duration": 60, "velocity": 67}, {"time": 261242, "pitch": 82, "duration": 60, "velocity": 75}, {"time": 261362, "pitch": 40, "duration": 60, "velocity": 127}, {"time": 261362, "pitch": 46, "duration": 60, "velocity": 107}, {"time": 261483, "pitch": 38, "duration": 60, "velocity": 107}, {"time": 261483, "pitch": 40, "duration": 60, "velocity": 127}, {"time": 261483, "pitch": 82, "duration": 60, "velocity": 75}, {"time": 261603, "pitch": 35, "duration": 60, "velocity": 107}, {"time": 261603, "pitch": 42, "duration": 60, "velocity": 67}, {"time": 261603, "pitch": 49, "duration": 60, "velocity": 107}, {"time": 261723, "pitch": 42, "duration": 61, "velocity": 67}, {"time": 261844, "pitch": 46, "duration": 60, "velocity": 107}, {"time": 261844, "pitch": 70, "duration": 60, "velocity": 75}, {"time": 261964, "pitch": 70, "duration": 60, "velocity": 75}, {"time": 262084, "pitch": 38, "duration": 59, "velocity": 107}, {"time": 262084, "pitch": 42, "duration": 59, "velocity": 67}, {"time": 262088, "pitch": 35, "duration": 59, "velocity": 107}, {"time": 262202, "pitch": 42, "duration": 59, "velocity": 67}, {"time": 262320, "pitch": 46, "duration": 59, "velocity": 107}, {"time": 262320, "pitch": 82, "duration": 59, "velocity": 75}, {"time": 262438, "pitch": 38, "duration": 59, "velocity": 107}, {"time": 262438, "pitch": 82, "duration": 59, "velocity": 75}, {"time": 262555, "pitch": 35, "duration": 60, "velocity": 107}, {"time": 262556, "pitch": 42, "duration": 60, "velocity": 67}, {"time": 262676, "pitch": 42, "duration": 60, "velocity": 67}, {"time": 262797, "pitch": 46, "duration": 60, "velocity": 107}, {"time": 262797, "pitch": 70, "duration": 60, "velocity": 75}, {"time": 262917, "pitch": 70, "duration": 60, "velocity": 75}, {"time": 263027, "pitch": 35, "duration": 60, "velocity": 107}, {"time": 263037, "pitch": 38, "duration": 61, "velocity": 107}, {"time": 263037, "pitch": 42, "duration": 61, "velocity": 67}, {"time": 263158, "pitch": 42, "duration": 60, "velocity": 67}, {"time": 263278, "pitch": 46, "duration": 60, "velocity": 107}, {"time": 263278, "pitch": 82, "duration": 60, "velocity": 75}, {"time": 263399, "pitch": 38, "duration": 60, "velocity": 107}, {"time": 263519, "pitch": 35, "duration": 60, "velocity": 107}, {"time": 263519, "pitch": 42, "duration": 60, "velocity": 67}, {"time": 263639, "pitch": 42, "duration": 61, "velocity": 67}, {"time": 263760, "pitch": 46, "duration": 60, "velocity": 107}, {"time": 263760, "pitch": 70, "duration": 60, "velocity": 75}, {"time": 263880, "pitch": 70, "duration": 60, "velocity": 75}, {"time": 264001, "pitch": 38, "duration": 60, "velocity": 107}, {"time": 264001, "pitch": 42, "duration": 60, "velocity": 67}, {"time": 264005, "pitch": 35, "duration": 60, "velocity": 107}, {"time": 264121, "pitch": 42, "duration": 60, "velocity": 67}, {"time": 264241, "pitch": 46, "duration": 61, "velocity": 107}, {"time": 264241, "pitch": 82, "duration": 61, "velocity": 75}, {"time": 264362, "pitch": 38, "duration": 60, "velocity": 107}, {"time": 264362, "pitch": 82, "duration": 60, "velocity": 75}, {"time": 264481, "pitch": 35, "duration": 60, "velocity": 107}, {"time": 264482, "pitch": 42, "duration": 60, "velocity": 67}, {"time": 264603, "pitch": 42, "duration": 60, "velocity": 67}, {"time": 264723, "pitch": 46, "duration": 60, "velocity": 107}, {"time": 264723, "pitch": 70, "duration": 60, "velocity": 75}, {"time": 264843, "pitch": 70, "duration": 61, "velocity": 75}, {"time": 264954, "pitch": 35, "duration": 59, "velocity": 107}, {"time": 264964, "pitch": 38, "duration": 59, "velocity": 107}, {"time": 264964, "pitch": 42, "duration": 59, "velocity": 67}, {"time": 265082, "pitch": 42, "duration": 58, "velocity": 67}, {"time": 265199, "pitch": 46, "duration": 59, "velocity": 107}, {"time": 265199, "pitch": 82, "duration": 59, "velocity": 75}, {"time": 265317, "pitch": 38, "duration": 59, "velocity": 107}, {"time": 265435, "pitch": 35, "duration": 60, "velocity": 107}, {"time": 265435, "pitch": 42, "duration": 60, "velocity": 67}, {"time": 265555, "pitch": 42, "duration": 61, "velocity": 67}, {"time": 265676, "pitch": 46, "duration": 60, "velocity": 107}, {"time": 265676, "pitch": 70, "duration": 60, "velocity": 75}, {"time": 265796, "pitch": 70, "duration": 60, "velocity": 75}, {"time": 265917, "pitch": 38, "duration": 60, "velocity": 107}, {"time": 265917, "pitch": 42, "duration": 60, "velocity": 67}, {"time": 265921, "pitch": 35, "duration": 60, "velocity": 107}, {"time": 266037, "pitch": 42, "duration": 60, "velocity": 67}, {"time": 266157, "pitch": 46, "duration": 61, "velocity": 107}, {"time": 266157, "pitch": 82, "duration": 61, "velocity": 75}, {"time": 266278, "pitch": 38, "duration": 60, "velocity": 107}, {"time": 266278, "pitch": 82, "duration": 60, "velocity": 75}, {"time": 266397, "pitch": 35, "duration": 60, "velocity": 107}, {"time": 266398, "pitch": 42, "duration": 60, "velocity": 67}, {"time": 266519, "pitch": 42, "duration": 60, "velocity": 67}, {"time": 266639, "pitch": 46, "duration": 60, "velocity": 107}, {"time": 266639, "pitch": 70, "duration": 60, "velocity": 75}, {"time": 266759, "pitch": 70, "duration": 61, "velocity": 75}, {"time": 266870, "pitch": 35, "duration": 60, "velocity": 107}, {"time": 266880, "pitch": 38, "duration": 60, "velocity": 107}, {"time": 266880, "pitch": 42, "duration": 60, "velocity": 67}, {"time": 267000, "pitch": 42, "duration": 60, "velocity": 67}, {"time": 267121, "pitch": 46, "duration": 60, "velocity": 107}, {"time": 267121, "pitch": 82, "duration": 60, "velocity": 75}, {"time": 267241, "pitch": 38, "duration": 60, "velocity": 107}, {"time": 267361, "pitch": 35, "duration": 61, "velocity": 107}, {"time": 267361, "pitch": 42, "duration": 61, "velocity": 67}, {"time": 267482, "pitch": 42, "duration": 60, "velocity": 67}, {"time": 267602, "pitch": 46, "duration": 60, "velocity": 107}, {"time": 267602, "pitch": 70, "duration": 60, "velocity": 75}, {"time": 267723, "pitch": 70, "duration": 60, "velocity": 75}, {"time": 267843, "pitch": 38, "duration": 60, "velocity": 107}, {"time": 267843, "pitch": 42, "duration": 60, "velocity": 67}, {"time": 267847, "pitch": 35, "duration": 60, "velocity": 107}, {"time": 267963, "pitch": 42, "duration": 61, "velocity": 67}, {"time": 268084, "pitch": 46, "duration": 60, "velocity": 107}, {"time": 268084, "pitch": 82, "duration": 60, "velocity": 75}, {"time": 268204, "pitch": 38, "duration": 60, "velocity": 107}, {"time": 268204, "pitch": 82, "duration": 60, "velocity": 75}, {"time": 268323, "pitch": 35, "duration": 59, "velocity": 107}, {"time": 268324, "pitch": 42, "duration": 59, "velocity": 67}, {"time": 268442, "pitch": 42, "duration": 59, "velocity": 67}, {"time": 268560, "pitch": 38, "duration": 59, "velocity": 107}, {"time": 268560, "pitch": 46, "duration": 59, "velocity": 107}, {"time": 268560, "pitch": 70, "duration": 59, "velocity": 75}, {"time": 268678, "pitch": 70, "duration": 59, "velocity": 75}, {"time": 268786, "pitch": 35, "duration": 60, "velocity": 107}, {"time": 268796, "pitch": 38, "duration": 60, "velocity": 107}, {"time": 268796, "pitch": 42, "duration": 60, "velocity": 67}, {"time": 268796, "pitch": 82, "duration": 60, "velocity": 75}, {"time": 268916, "pitch": 38, "duration": 60, "velocity": 107}, {"time": 268916, "pitch": 42, "duration": 60, "velocity": 67}, {"time": 268916, "pitch": 82, "duration": 60, "velocity": 75}, {"time": 269037, "pitch": 46, "duration": 60, "velocity": 107}, {"time": 269157, "pitch": 38, "duration": 60, "velocity": 107}, {"time": 269157, "pitch": 82, "duration": 60, "velocity": 75}, {"time": 269277, "pitch": 35, "duration": 61, "velocity": 107}, {"time": 269277, "pitch": 42, "duration": 61, "velocity": 67}, {"time": 269277, "pitch": 49, "duration": 61, "velocity": 107}, {"time": 269398, "pitch": 42, "duration": 60, "velocity": 67}, {"time": 269518, "pitch": 46, "duration": 60, "velocity": 107}, {"time": 269518, "pitch": 70, "duration": 60, "velocity": 75}, {"time": 269639, "pitch": 70, "duration": 60, "velocity": 75}, {"time": 269759, "pitch": 38, "duration": 60, "velocity": 107}, {"time": 269759, "pitch": 42, "duration": 60, "velocity": 67}, {"time": 269763, "pitch": 35, "duration": 60, "velocity": 107}, {"time": 269879, "pitch": 42, "duration": 61, "velocity": 67}, {"time": 270000, "pitch": 46, "duration": 60, "velocity": 107}, {"time": 270000, "pitch": 82, "duration": 60, "velocity": 75}, {"time": 270120, "pitch": 38, "duration": 60, "velocity": 107}, {"time": 270120, "pitch": 82, "duration": 60, "velocity": 75}, {"time": 270240, "pitch": 35, "duration": 60, "velocity": 107}, {"time": 270241, "pitch": 42, "duration": 60, "velocity": 67}, {"time": 270361, "pitch": 42, "duration": 60, "velocity": 67}, {"time": 270481, "pitch": 46, "duration": 61, "velocity": 107}, {"time": 270481, "pitch": 70, "duration": 61, "velocity": 75}, {"time": 270602, "pitch": 70, "duration": 60, "velocity": 75}, {"time": 270712, "pitch": 35, "duration": 60, "velocity": 107}, {"time": 270722, "pitch": 38, "duration": 60, "velocity": 107}, {"time": 270722, "pitch": 42, "duration": 60, "velocity": 67}, {"time": 270843, "pitch": 42, "duration": 60, "velocity": 67}, {"time": 270963, "pitch": 46, "duration": 60, "velocity": 107}, {"time": 270963, "pitch": 82, "duration": 60, "velocity": 75}, {"time": 271083, "pitch": 38, "duration": 61, "velocity": 107}, {"time": 271204, "pitch": 35, "duration": 59, "velocity": 107}, {"time": 271204, "pitch": 42, "duration": 59, "velocity": 67}, {"time": 271322, "pitch": 42, "duration": 58, "velocity": 67}, {"time": 271439, "pitch": 46, "duration": 59, "velocity": 107}, {"time": 271439, "pitch": 70, "duration": 59, "velocity": 75}, {"time": 271557, "pitch": 70, "duration": 59, "velocity": 75}, {"time": 271675, "pitch": 38, "duration": 60, "velocity": 107}, {"time": 271675, "pitch": 42, "duration": 60, "velocity": 67}, {"time": 271679, "pitch": 35, "duration": 60, "velocity": 107}, {"time": 271795, "pitch": 42, "duration": 61, "velocity": 67}, {"time": 271916, "pitch": 46, "duration": 60, "velocity": 107}, {"time": 271916, "pitch": 82, "duration": 60, "velocity": 75}, {"time": 272036, "pitch": 38, "duration": 60, "velocity": 107}, {"time": 272036, "pitch": 82, "duration": 60, "velocity": 75}, {"time": 272156, "pitch": 35, "duration": 60, "velocity": 107}, {"time": 272157, "pitch": 42, "duration": 60, "velocity": 67}, {"time": 272277, "pitch": 42, "duration": 60, "velocity": 67}, {"time": 272397, "pitch": 46, "duration": 61, "velocity": 107}, {"time": 272397, "pitch": 70, "duration": 61, "velocity": 75}, {"time": 272518, "pitch": 70, "duration": 60, "velocity": 75}, {"time": 272628, "pitch": 35, "duration": 60, "velocity": 107}, {"time": 272638, "pitch": 38, "duration": 60, "velocity": 107}, {"time": 272638, "pitch": 42, "duration": 60, "velocity": 67}, {"time": 272759, "pitch": 42, "duration": 60, "velocity": 67}, {"time": 272879, "pitch": 46, "duration": 60, "velocity": 107}, {"time": 272879, "pitch": 82, "duration": 60, "velocity": 75}, {"time": 272999, "pitch": 38, "duration": 61, "velocity": 107}, {"time": 273120, "pitch": 35, "duration": 60, "velocity": 107}, {"time": 273120, "pitch": 42, "duration": 60, "velocity": 67}, {"time": 273240, "pitch": 42, "duration": 60, "velocity": 67}, {"time": 273361, "pitch": 46, "duration": 60, "velocity": 107}, {"time": 273361, "pitch": 70, "duration": 60, "velocity": 75}, {"time": 273481, "pitch": 70, "duration": 60, "velocity": 75}, {"time": 273601, "pitch": 38, "duration": 61, "velocity": 107}, {"time": 273601, "pitch": 42, "duration": 61, "velocity": 67}, {"time": 273605, "pitch": 35, "duration": 61, "velocity": 107}, {"time": 273722, "pitch": 42, "duration": 60, "velocity": 67}, {"time": 273842, "pitch": 46, "duration": 60, "velocity": 107}, {"time": 273842, "pitch": 82, "duration": 60, "velocity": 75}, {"time": 273963, "pitch": 38, "duration": 60, "velocity": 107}, {"time": 273963, "pitch": 82, "duration": 60, "velocity": 75}, {"time": 274082, "pitch": 35, "duration": 60, "velocity": 107}, {"time": 274083, "pitch": 42, "duration": 60, "velocity": 67}, {"time": 274203, "pitch": 42, "duration": 61, "velocity": 67}, {"time": 274324, "pitch": 46, "duration": 60, "velocity": 107}, {"time": 274324, "pitch": 70, "duration": 60, "velocity": 75}, {"time": 274444, "pitch": 70, "duration": 60, "velocity": 75}, {"time": 274555, "pitch": 35, "duration": 59, "velocity": 107}, {"time": 274564, "pitch": 38, "duration": 59, "velocity": 107}, {"time": 274564, "pitch": 42, "duration": 59, "velocity": 67}, {"time": 274682, "pitch": 42, "duration": 59, "velocity": 67}, {"time": 274800, "pitch": 46, "duration": 59, "velocity": 107}, {"time": 274800, "pitch": 82, "duration": 59, "velocity": 75}, {"time": 274918, "pitch": 38, "duration": 59, "velocity": 107}, {"time": 275036, "pitch": 35, "duration": 60, "velocity": 107}, {"time": 275036, "pitch": 40, "duration": 60, "velocity": 78}, {"time": 275036, "pitch": 42, "duration": 60, "velocity": 67}, {"time": 275156, "pitch": 40, "duration": 60, "velocity": 81}, {"time": 275156, "pitch": 42, "duration": 60, "velocity": 67}, {"time": 275277, "pitch": 40, "duration": 60, "velocity": 85}, {"time": 275277, "pitch": 46, "duration": 60, "velocity": 107}, {"time": 275277, "pitch": 70, "duration": 60, "velocity": 75}, {"time": 275397, "pitch": 40, "duration": 60, "velocity": 88}, {"time": 275397, "pitch": 70, "duration": 60, "velocity": 75}, {"time": 275517, "pitch": 38, "duration": 61, "velocity": 107}, {"time": 275517, "pitch": 40, "duration": 61, "velocity": 92}, {"time": 275517, "pitch": 42, "duration": 61, "velocity": 67}, {"time": 275521, "pitch": 35, "duration": 61, "velocity": 107}, {"time": 275638, "pitch": 40, "duration": 60, "velocity": 96}, {"time": 275638, "pitch": 42, "duration": 60, "velocity": 67}, {"time": 275758, "pitch": 40, "duration": 60, "velocity": 99}, {"time": 275758, "pitch": 46, "duration": 60, "velocity": 107}, {"time": 275758, "pitch": 82, "duration": 60, "velocity": 75}, {"time": 275879, "pitch": 38, "duration": 60, "velocity": 107}, {"time": 275879, "pitch": 40, "duration": 60, "velocity": 102}, {"time": 275879, "pitch": 82, "duration": 60, "velocity": 75}, {"time": 275998, "pitch": 35, "duration": 60, "velocity": 107}, {"time": 275999, "pitch": 40, "duration": 60, "velocity": 106}, {"time": 275999, "pitch": 42, "duration": 60, "velocity": 67}, {"time": 276119, "pitch": 40, "duration": 61, "velocity": 110}, {"time": 276119, "pitch": 42, "duration": 61, "velocity": 67}, {"time": 276240, "pitch": 38, "duration": 60, "velocity": 107}, {"time": 276240, "pitch": 40, "duration": 60, "velocity": 114}, {"time": 276240, "pitch": 46, "duration": 60, "velocity": 107}, {"time": 276240, "pitch": 70, "duration": 60, "velocity": 75}, {"time": 276360, "pitch": 40, "duration": 60, "velocity": 118}, {"time": 276360, "pitch": 70, "duration": 60, "velocity": 75}, {"time": 276470, "pitch": 35, "duration": 61, "velocity": 107}, {"time": 276481, "pitch": 38, "duration": 60, "velocity": 107}, {"time": 276481, "pitch": 40, "duration": 60, "velocity": 127}, {"time": 276481, "pitch": 42, "duration": 60, "velocity": 67}, {"time": 276481, "pitch": 82, "duration": 60, "velocity": 75}, {"time": 276601, "pitch": 38, "duration": 60, "velocity": 107}, {"time": 276601, "pitch": 40, "duration": 60, "velocity": 127}, {"time": 276601, "pitch": 42, "duration": 60, "velocity": 67}, {"time": 276601, "pitch": 82, "duration": 60, "velocity": 75}, {"time": 276721, "pitch": 40, "duration": 61, "velocity": 127}, {"time": 276721, "pitch": 46, "duration": 61, "velocity": 107}, {"time": 276842, "pitch": 38, "duration": 60, "velocity": 107}, {"time": 276842, "pitch": 40, "duration": 60, "velocity": 127}, {"time": 276842, "pitch": 82, "duration": 60, "velocity": 75}, {"time": 276962, "pitch": 35, "duration": 60, "velocity": 107}, {"time": 276962, "pitch": 42, "duration": 60, "velocity": 67}, {"time": 276962, "pitch": 49, "duration": 60, "velocity": 107}, {"time": 277083, "pitch": 42, "duration": 60, "velocity": 67}, {"time": 277203, "pitch": 46, "duration": 60, "velocity": 107}, {"time": 277203, "pitch": 70, "duration": 60, "velocity": 75}, {"time": 277323, "pitch": 70, "duration": 61, "velocity": 75}, {"time": 277444, "pitch": 38, "duration": 59, "velocity": 107}, {"time": 277444, "pitch": 42, "duration": 59, "velocity": 67}, {"time": 277448, "pitch": 35, "duration": 59, "velocity": 107}, {"time": 277561, "pitch": 42, "duration": 59, "velocity": 67}, {"time": 277679, "pitch": 46, "duration": 59, "velocity": 107}, {"time": 277679, "pitch": 82, "duration": 59, "velocity": 75}, {"time": 277797, "pitch": 38, "duration": 59, "velocity": 107}, {"time": 277797, "pitch": 82, "duration": 59, "velocity": 75}, {"time": 277914, "pitch": 35, "duration": 60, "velocity": 107}, {"time": 277915, "pitch": 42, "duration": 60, "velocity": 67}, {"time": 278035, "pitch": 42, "duration": 61, "velocity": 67}, {"time": 278156, "pitch": 46, "duration": 60, "velocity": 107}, {"time": 278156, "pitch": 70, "duration": 60, "velocity": 75}, {"time": 278276, "pitch": 70, "duration": 60, "velocity": 75}, {"time": 278386, "pitch": 35, "duration": 61, "velocity": 107}, {"time": 278397, "pitch": 38, "duration": 60, "velocity": 107}, {"time": 278397, "pitch": 42, "duration": 60, "velocity": 67}, {"time": 278517, "pitch": 42, "duration": 60, "velocity": 67}, {"time": 278637, "pitch": 46, "duration": 61, "velocity": 107}, {"time": 278637, "pitch": 82, "duration": 61, "velocity": 75}, {"time": 278758, "pitch": 38, "duration": 60, "velocity": 107}, {"time": 278878, "pitch": 35, "duration": 60, "velocity": 107}, {"time": 278878, "pitch": 42, "duration": 60, "velocity": 67}, {"time": 278999, "pitch": 42, "duration": 60, "velocity": 67}, {"time": 279119, "pitch": 46, "duration": 60, "velocity": 107}, {"time": 279119, "pitch": 70, "duration": 60, "velocity": 75}, {"time": 279239, "pitch": 70, "duration": 61, "velocity": 75}, {"time": 279360, "pitch": 38, "duration": 60, "velocity": 107}, {"time": 279360, "pitch": 42, "duration": 60, "velocity": 67}, {"time": 279364, "pitch": 35, "duration": 60, "velocity": 107}, {"time": 279480, "pitch": 42, "duration": 60, "velocity": 67}, {"time": 279601, "pitch": 46, "duration": 60, "velocity": 107}, {"time": 279601, "pitch": 82, "duration": 60, "velocity": 75}, {"time": 279721, "pitch": 38, "duration": 60, "velocity": 107}, {"time": 279721, "pitch": 82, "duration": 60, "velocity": 75}, {"time": 279840, "pitch": 35, "duration": 61, "velocity": 107}, {"time": 279841, "pitch": 42, "duration": 61, "velocity": 67}, {"time": 279962, "pitch": 42, "duration": 60, "velocity": 67}, {"time": 280082, "pitch": 46, "duration": 60, "velocity": 107}, {"time": 280082, "pitch": 70, "duration": 60, "velocity": 75}, {"time": 280203, "pitch": 70, "duration": 60, "velocity": 75}, {"time": 280313, "pitch": 35, "duration": 60, "velocity": 107}, {"time": 280323, "pitch": 38, "duration": 60, "velocity": 107}, {"time": 280323, "pitch": 42, "duration": 60, "velocity": 67}, {"time": 280443, "pitch": 42, "duration": 61, "velocity": 67}, {"time": 280564, "pitch": 46, "duration": 60, "velocity": 107}, {"time": 280564, "pitch": 82, "duration": 60, "velocity": 75}, {"time": 280684, "pitch": 38, "duration": 60, "velocity": 107}, {"time": 280804, "pitch": 35, "duration": 59, "velocity": 107}, {"time": 280804, "pitch": 42, "duration": 59, "velocity": 67}, {"time": 280922, "pitch": 42, "duration": 59, "velocity": 67}, {"time": 281040, "pitch": 46, "duration": 59, "velocity": 107}, {"time": 281040, "pitch": 70, "duration": 59, "velocity": 75}, {"time": 281158, "pitch": 70, "duration": 59, "velocity": 75}, {"time": 281276, "pitch": 38, "duration": 60, "velocity": 107}, {"time": 281276, "pitch": 42, "duration": 60, "velocity": 67}, {"time": 281280, "pitch": 35, "duration": 60, "velocity": 107}, {"time": 281396, "pitch": 42, "duration": 60, "velocity": 67}, {"time": 281517, "pitch": 46, "duration": 60, "velocity": 107}, {"time": 281517, "pitch": 82, "duration": 60, "velocity": 75}, {"time": 281637, "pitch": 38, "duration": 60, "velocity": 107}, {"time": 281637, "pitch": 82, "duration": 60, "velocity": 75}, {"time": 281756, "pitch": 35, "duration": 61, "velocity": 107}, {"time": 281757, "pitch": 42, "duration": 61, "velocity": 67}, {"time": 281878, "pitch": 42, "duration": 60, "velocity": 67}, {"time": 281998, "pitch": 46, "duration": 60, "velocity": 107}, {"time": 281998, "pitch": 70, "duration": 60, "velocity": 75}, {"time": 282119, "pitch": 70, "duration": 60, "velocity": 75}, {"time": 282229, "pitch": 35, "duration": 60, "velocity": 107}, {"time": 282239, "pitch": 38, "duration": 60, "velocity": 107}, {"time": 282239, "pitch": 42, "duration": 60, "velocity": 67}, {"time": 282359, "pitch": 42, "duration": 61, "velocity": 67}, {"time": 282480, "pitch": 46, "duration": 60, "velocity": 107}, {"time": 282480, "pitch": 82, "duration": 60, "velocity": 75}, {"time": 282600, "pitch": 38, "duration": 60, "velocity": 107}, {"time": 282721, "pitch": 35, "duration": 60, "velocity": 107}, {"time": 282721, "pitch": 42, "duration": 60, "velocity": 67}, {"time": 282841, "pitch": 42, "duration": 60, "velocity": 67}, {"time": 282961, "pitch": 46, "duration": 61, "velocity": 107}, {"time": 282961, "pitch": 70, "duration": 61, "velocity": 75}, {"time": 283082, "pitch": 70, "duration": 60, "velocity": 75}, {"time": 283202, "pitch": 38, "duration": 60, "velocity": 107}, {"time": 283202, "pitch": 42, "duration": 60, "velocity": 67}, {"time": 283206, "pitch": 35, "duration": 60, "velocity": 107}, {"time": 283323, "pitch": 42, "duration": 60, "velocity": 67}, {"time": 283443, "pitch": 46, "duration": 60, "velocity": 107}, {"time": 283443, "pitch": 82, "duration": 60, "velocity": 75}, {"time": 283563, "pitch": 38, "duration": 61, "velocity": 107}, {"time": 283563, "pitch": 82, "duration": 61, "velocity": 75}, {"time": 283683, "pitch": 35, "duration": 60, "velocity": 107}, {"time": 283684, "pitch": 42, "duration": 60, "velocity": 67}, {"time": 283804, "pitch": 42, "duration": 60, "velocity": 67}, {"time": 283925, "pitch": 38, "duration": 60, "velocity": 107}, {"time": 283925, "pitch": 46, "duration": 60, "velocity": 107}, {"time": 283925, "pitch": 70, "duration": 60, "velocity": 75}, {"time": 284045, "pitch": 70, "duration": 60, "velocity": 75}, {"time": 284155, "pitch": 35, "duration": 60, "velocity": 107}, {"time": 284165, "pitch": 38, "duration": 61, "velocity": 107}, {"time": 284165, "pitch": 42, "duration": 61, "velocity": 67}, {"time": 284165, "pitch": 82, "duration": 61, "velocity": 75}, {"time": 284286, "pitch": 38, "duration": 60, "velocity": 107}, {"time": 284286, "pitch": 42, "duration": 60, "velocity": 67}, {"time": 284286, "pitch": 82, "duration": 60, "velocity": 75}, {"time": 284406, "pitch": 46, "duration": 60, "velocity": 107}, {"time": 284527, "pitch": 38, "duration": 60, "velocity": 107}, {"time": 284527, "pitch": 82, "duration": 60, "velocity": 75}, {"time": 284647, "pitch": 35, "duration": 60, "velocity": 107}, {"time": 284647, "pitch": 42, "duration": 60, "velocity": 67}, {"time": 284647, "pitch": 49, "duration": 60, "velocity": 107}, {"time": 284767, "pitch": 42, "duration": 61, "velocity": 67}, {"time": 284888, "pitch": 46, "duration": 60, "velocity": 107}, {"time": 284888, "pitch": 70, "duration": 60, "velocity": 75}, {"time": 285008, "pitch": 70, "duration": 60, "velocity": 75}, {"time": 285129, "pitch": 38, "duration": 60, "velocity": 107}, {"time": 285129, "pitch": 42, "duration": 60, "velocity": 67}, {"time": 285133, "pitch": 35, "duration": 60, "velocity": 107}, {"time": 285249, "pitch": 42, "duration": 60, "velocity": 67}, {"time": 285369, "pitch": 46, "duration": 61, "velocity": 107}, {"time": 285369, "pitch": 82, "duration": 61, "velocity": 75}, {"time": 285490, "pitch": 38, "duration": 60, "velocity": 107}, {"time": 285490, "pitch": 82, "duration": 60, "velocity": 75}, {"time": 285609, "pitch": 35, "duration": 60, "velocity": 107}, {"time": 285610, "pitch": 42, "duration": 60, "velocity": 67}, {"time": 285731, "pitch": 42, "duration": 60, "velocity": 67}, {"time": 285851, "pitch": 46, "duration": 60, "velocity": 107}, {"time": 285851, "pitch": 70, "duration": 60, "velocity": 75}, {"time": 285971, "pitch": 70, "duration": 61, "velocity": 75}, {"time": 286082, "pitch": 35, "duration": 60, "velocity": 107}, {"time": 286092, "pitch": 38, "duration": 60, "velocity": 107}, {"time": 286092, "pitch": 42, "duration": 60, "velocity": 67}, {"time": 286212, "pitch": 42, "duration": 60, "velocity": 67}, {"time": 286333, "pitch": 46, "duration": 60, "velocity": 107}, {"time": 286333, "pitch": 82, "duration": 60, "velocity": 75}, {"time": 286453, "pitch": 38, "duration": 60, "velocity": 107}, {"time": 286573, "pitch": 35, "duration": 61, "velocity": 107}, {"time": 286573, "pitch": 42, "duration": 61, "velocity": 67}, {"time": 286694, "pitch": 42, "duration": 60, "velocity": 67}, {"time": 286814, "pitch": 46, "duration": 60, "velocity": 107}, {"time": 286814, "pitch": 70, "duration": 60, "velocity": 75}, {"time": 286935, "pitch": 70, "duration": 60, "velocity": 75}, {"time": 287055, "pitch": 38, "duration": 60, "velocity": 107}, {"time": 287055, "pitch": 42, "duration": 60, "velocity": 67}, {"time": 287059, "pitch": 35, "duration": 60, "velocity": 107}, {"time": 287175, "pitch": 42, "duration": 61, "velocity": 67}, {"time": 287296, "pitch": 46, "duration": 60, "velocity": 107}, {"time": 287296, "pitch": 82, "duration": 60, "velocity": 75}, {"time": 287416, "pitch": 38, "duration": 60, "velocity": 107}, {"time": 287416, "pitch": 82, "duration": 60, "velocity": 75}, {"time": 287536, "pitch": 35, "duration": 60, "velocity": 107}, {"time": 287537, "pitch": 42, "duration": 60, "velocity": 67}, {"time": 287657, "pitch": 42, "duration": 60, "velocity": 67}, {"time": 287777, "pitch": 46, "duration": 61, "velocity": 107}, {"time": 287777, "pitch": 70, "duration": 61, "velocity": 75}, {"time": 287898, "pitch": 70, "duration": 60, "velocity": 75}, {"time": 288008, "pitch": 35, "duration": 60, "velocity": 107}, {"time": 288018, "pitch": 38, "duration": 60, "velocity": 107}, {"time": 288018, "pitch": 42, "duration": 60, "velocity": 67}, {"time": 288139, "pitch": 42, "duration": 60, "velocity": 67}, {"time": 288259, "pitch": 46, "duration": 60, "velocity": 107}, {"time": 288259, "pitch": 82, "duration": 60, "velocity": 75}, {"time": 288379, "pitch": 38, "duration": 61, "velocity": 107}, {"time": 288500, "pitch": 35, "duration": 60, "velocity": 107}, {"time": 288500, "pitch": 42, "duration": 60, "velocity": 67}, {"time": 288620, "pitch": 42, "duration": 60, "velocity": 67}, {"time": 288741, "pitch": 46, "duration": 60, "velocity": 107}, {"time": 288741, "pitch": 70, "duration": 60, "velocity": 75}, {"time": 288861, "pitch": 70, "duration": 60, "velocity": 75}, {"time": 288981, "pitch": 38, "duration": 61, "velocity": 107}, {"time": 288981, "pitch": 42, "duration": 61, "velocity": 67}, {"time": 288985, "pitch": 35, "duration": 61, "velocity": 107}, {"time": 289102, "pitch": 42, "duration": 60, "velocity": 67}, {"time": 289222, "pitch": 46, "duration": 60, "velocity": 107}, {"time": 289222, "pitch": 82, "duration": 60, "velocity": 75}, {"time": 289343, "pitch": 38, "duration": 60, "velocity": 107}, {"time": 289343, "pitch": 82, "duration": 60, "velocity": 75}, {"time": 289462, "pitch": 35, "duration": 60, "velocity": 107}, {"time": 289463, "pitch": 42, "duration": 60, "velocity": 67}, {"time": 289583, "pitch": 42, "duration": 61, "velocity": 67}, {"time": 289704, "pitch": 46, "duration": 60, "velocity": 107}, {"time": 289704, "pitch": 70, "duration": 60, "velocity": 75}, {"time": 289824, "pitch": 70, "duration": 60, "velocity": 75}, {"time": 289935, "pitch": 35, "duration": 60, "velocity": 107}, {"time": 289945, "pitch": 38, "duration": 60, "velocity": 107}, {"time": 289945, "pitch": 42, "duration": 60, "velocity": 67}, {"time": 290065, "pitch": 42, "duration": 60, "velocity": 67}, {"time": 290185, "pitch": 46, "duration": 61, "velocity": 107}, {"time": 290185, "pitch": 82, "duration": 61, "velocity": 75}, {"time": 290306, "pitch": 38, "duration": 60, "velocity": 107}, {"time": 290426, "pitch": 35, "duration": 60, "velocity": 107}, {"time": 290426, "pitch": 40, "duration": 60, "velocity": 78}, {"time": 290426, "pitch": 42, "duration": 60, "velocity": 67}, {"time": 290547, "pitch": 40, "duration": 60, "velocity": 81}, {"time": 290547, "pitch": 42, "duration": 60, "velocity": 67}, {"time": 290667, "pitch": 40, "duration": 60, "velocity": 85}, {"time": 290667, "pitch": 46, "duration": 60, "velocity": 107}, {"time": 290667, "pitch": 70, "duration": 60, "velocity": 75}, {"time": 290787, "pitch": 40, "duration": 61, "velocity": 88}, {"time": 290787, "pitch": 70, "duration": 61, "velocity": 75}, {"time": 290908, "pitch": 38, "duration": 60, "velocity": 107}, {"time": 290908, "pitch": 40, "duration": 60, "velocity": 92}, {"time": 290908, "pitch": 42, "duration": 60, "velocity": 67}, {"time": 290912, "pitch": 35, "duration": 60, "velocity": 107}, {"time": 291028, "pitch": 40, "duration": 60, "velocity": 96}, {"time": 291028, "pitch": 42, "duration": 60, "velocity": 67}, {"time": 291149, "pitch": 40, "duration": 60, "velocity": 99}, {"time": 291149, "pitch": 46, "duration": 60, "velocity": 107}, {"time": 291149, "pitch": 82, "duration": 60, "velocity": 75}, {"time": 291269, "pitch": 38, "duration": 60, "velocity": 107}, {"time": 291269, "pitch": 40, "duration": 60, "velocity": 102}, {"time": 291269, "pitch": 82, "duration": 60, "velocity": 75}, {"time": 291388, "pitch": 35, "duration": 61, "velocity": 107}, {"time": 291389, "pitch": 40, "duration": 61, "velocity": 106}, {"time": 291389, "pitch": 42, "duration": 61, "velocity": 67}, {"time": 291510, "pitch": 40, "duration": 60, "velocity": 110}, {"time": 291510, "pitch": 42, "duration": 60, "velocity": 67}, {"time": 291630, "pitch": 38, "duration": 60, "velocity": 107}, {"time": 291630, "pitch": 40, "duration": 60, "velocity": 114}, {"time": 291630, "pitch": 46, "duration": 60, "velocity": 107}, {"time": 291630, "pitch": 70, "duration": 60, "velocity": 75}, {"time": 291751, "pitch": 40, "duration": 60, "velocity": 118}, {"time": 291751, "pitch": 70, "duration": 60, "velocity": 75}, {"time": 291861, "pitch": 35, "duration": 60, "velocity": 107}, {"time": 291871, "pitch": 38, "duration": 60, "velocity": 107}, {"time": 291871, "pitch": 40, "duration": 60, "velocity": 127}, {"time": 291871, "pitch": 42, "duration": 60, "velocity": 67}, {"time": 291871, "pitch": 82, "duration": 60, "velocity": 75}, {"time": 291991, "pitch": 38, "duration": 61, "velocity": 107}, {"time": 291991, "pitch": 40, "duration": 61, "velocity": 127}, {"time": 291991, "pitch": 42, "duration": 61, "velocity": 67}, {"time": 291991, "pitch": 82, "duration": 61, "velocity": 75}, {"time": 292112, "pitch": 40, "duration": 60, "velocity": 127}, {"time": 292112, "pitch": 46, "duration": 60, "velocity": 107}, {"time": 292232, "pitch": 38, "duration": 60, "velocity": 107}, {"time": 292232, "pitch": 40, "duration": 60, "velocity": 127}, {"time": 292232, "pitch": 82, "duration": 60, "velocity": 75}], "annotations": [{"time": 217, "annotation": {"number": 0, "value": 0}, "group": "control_change"}, {"time": 239, "annotation": {"number": 32, "value": 0}, "group": "control_change"}, {"time": 283, "annotation": {"number": 7, "value": 98}, "group": "control_change"}, {"time": 304, "annotation": {"number": 11, "value": 127}, "group": "control_change"}, {"time": 326, "annotation": {"number": 91, "value": 0}, "group": "control_change"}, {"time": 348, "annotation": {"number": 101, "value": 127}, "group": "control_change"}, {"time": 370, "annotation": {"number": 100, "value": 127}, "group": "control_change"}, {"time": 244317, "annotation": {"number": 10, "value": 127}, "group": "control_change"}, {"time": 244343, "annotation": {"number": 10, "value": 113}, "group": "control_change"}, {"time": 244371, "annotation": {"number": 10, "value": 99}, "group": "control_change"}, {"time": 244398, "annotation": {"number": 10, "value": 84}, "group": "control_change"}, {"time": 244424, "annotation": {"number": 10, "value": 71}, "group": "control_change"}, {"time": 244451, "annotation": {"number": 10, "value": 56}, "group": "control_change"}, {"time": 244478, "annotation": {"number": 10, "value": 42}, "group": "control_change"}, {"time": 244504, "annotation": {"number": 10, "value": 28}, "group": "control_change"}, {"time": 244531, "annotation": {"number": 10, "value": 14}, "group": "control_change"}, {"time": 244557, "annotation": {"number": 10, "value": 0}, "group": "control_change"}, {"time": 244558, "annotation": {"number": 10, "value": 2}, "group": "control_change"}, {"time": 244584, "annotation": {"number": 10, "value": 15}, "group": "control_change"}, {"time": 244611, "annotation": {"number": 10, "value": 29}, "group": "control_change"}, {"time": 244638, "annotation": {"number": 10, "value": 43}, "group": "control_change"}, {"time": 244665, "annotation": {"number": 10, "value": 57}, "group": "control_change"}, {"time": 244692, "annotation": {"number": 10, "value": 71}, "group": "control_change"}, {"time": 244719, "annotation": {"number": 10, "value": 85}, "group": "control_change"}, {"time": 244745, "annotation": {"number": 10, "value": 98}, "group": "control_change"}, {"time": 244772, "annotation": {"number": 10, "value": 112}, "group": "control_change"}, {"time": 244798, "annotation": {"number": 10, "value": 127}, "group": "control_change"}, {"time": 244799, "annotation": {"number": 10, "value": 127}, "group": "control_change"}, {"time": 244825, "annotation": {"number": 10, "value": 113}, "group": "control_change"}, {"time": 244852, "annotation": {"number": 10, "value": 99}, "group": "control_change"}, {"time": 244879, "annotation": {"number": 10, "value": 84}, "group": "control_change"}, {"time": 244905, "annotation": {"number": 10, "value": 71}, "group": "control_change"}, {"time": 244932, "annotation": {"number": 10, "value": 56}, "group": "control_change"}, {"time": 244959, "annotation": {"number": 10, "value": 42}, "group": "control_change"}, {"time": 244986, "annotation": {"number": 10, "value": 28}, "group": "control_change"}, {"time": 245013, "annotation": {"number": 10, "value": 14}, "group": "control_change"}, {"time": 245039, "annotation": {"number": 10, "value": 0}, "group": "control_change"}, {"time": 245040, "annotation": {"number": 10, "value": 2}, "group": "control_change"}, {"time": 245066, "annotation": {"number": 10, "value": 15}, "group": "control_change"}, {"time": 245093, "annotation": {"number": 10, "value": 29}, "group": "control_change"}, {"time": 245120, "annotation": {"number": 10, "value": 43}, "group": "control_change"}, {"time": 245146, "annotation": {"number": 10, "value": 57}, "group": "control_change"}, {"time": 245173, "annotation": {"number": 10, "value": 71}, "group": "control_change"}, {"time": 245200, "annotation": {"number": 10, "value": 85}, "group": "control_change"}, {"time": 245226, "annotation": {"number": 10, "value": 98}, "group": "control_change"}, {"time": 245253, "annotation": {"number": 10, "value": 112}, "group": "control_change"}, {"time": 245280, "annotation": {"number": 10, "value": 127}, "group": "control_change"}, {"time": 245281, "annotation": {"number": 10, "value": 127}, "group": "control_change"}, {"time": 245307, "annotation": {"number": 10, "value": 113}, "group": "control_change"}, {"time": 245334, "annotation": {"number": 10, "value": 99}, "group": "control_change"}, {"time": 245361, "annotation": {"number": 10, "value": 84}, "group": "control_change"}, {"time": 245387, "annotation": {"number": 10, "value": 71}, "group": "control_change"}, {"time": 245414, "annotation": {"number": 10, "value": 56}, "group": "control_change"}, {"time": 245441, "annotation": {"number": 10, "value": 42}, "group": "control_change"}, {"time": 245467, "annotation": {"number": 10, "value": 28}, "group": "control_change"}, {"time": 245494, "annotation": {"number": 10, "value": 14}, "group": "control_change"}, {"time": 245520, "annotation": {"number": 10, "value": 0}, "group": "control_change"}, {"time": 245521, "annotation": {"number": 10, "value": 2}, "group": "control_change"}, {"time": 245547, "annotation": {"number": 10, "value": 15}, "group": "control_change"}, {"time": 245575, "annotation": {"number": 10, "value": 29}, "group": "control_change"}, {"time": 245602, "annotation": {"number": 10, "value": 43}, "group": "control_change"}, {"time": 245628, "annotation": {"number": 10, "value": 57}, "group": "control_change"}, {"time": 245655, "annotation": {"number": 10, "value": 71}, "group": "control_change"}, {"time": 245682, "annotation": {"number": 10, "value": 85}, "group": "control_change"}, {"time": 245708, "annotation": {"number": 10, "value": 98}, "group": "control_change"}, {"time": 245735, "annotation": {"number": 10, "value": 112}, "group": "control_change"}, {"time": 245761, "annotation": {"number": 10, "value": 127}, "group": "control_change"}, {"time": 245762, "annotation": {"number": 10, "value": 127}, "group": "control_change"}, {"time": 245788, "annotation": {"number": 10, "value": 113}, "group": "control_change"}, {"time": 245815, "annotation": {"number": 10, "value": 99}, "group": "control_change"}, {"time": 245842, "annotation": {"number": 10, "value": 84}, "group": "control_change"}, {"time": 245869, "annotation": {"number": 10, "value": 71}, "group": "control_change"}, {"time": 245896, "annotation": {"number": 10, "value": 56}, "group": "control_change"}, {"time": 245923, "annotation": {"number": 10, "value": 42}, "group": "control_change"}, {"time": 245949, "annotation": {"number": 10, "value": 28}, "group": "control_change"}, {"time": 245976, "annotation": {"number": 10, "value": 14}, "group": "control_change"}, {"time": 246002, "annotation": {"number": 10, "value": 0}, "group": "control_change"}, {"time": 246003, "annotation": {"number": 10, "value": 2}, "group": "control_change"}, {"time": 246029, "annotation": {"number": 10, "value": 15}, "group": "control_change"}, {"time": 246056, "annotation": {"number": 10, "value": 29}, "group": "control_change"}, {"time": 246083, "annotation": {"number": 10, "value": 43}, "group": "control_change"}, {"time": 246109, "annotation": {"number": 10, "value": 57}, "group": "control_change"}, {"time": 246136, "annotation": {"number": 10, "value": 71}, "group": "control_change"}, {"time": 246163, "annotation": {"number": 10, "value": 85}, "group": "control_change"}, {"time": 246190, "annotation": {"number": 10, "value": 98}, "group": "control_change"}, {"time": 246217, "annotation": {"number": 10, "value": 112}, "group": "control_change"}, {"time": 246243, "annotation": {"number": 10, "value": 127}, "group": "control_change"}, {"time": 246244, "annotation": {"number": 10, "value": 64}, "group": "control_change"}, {"time": 276962, "annotation": {"number": 10, "value": 64}, "group": "control_change"}]}, {"program": 0, "is_drum": false, "name": "LOOP DRUMS", "annotations": [{"time": 217, "annotation": {"number": 0, "value": 0}, "group": "control_change"}, {"time": 239, "annotation": {"number": 32, "value": 0}, "group": "control_change"}]}, {"program": 1, "is_drum": false, "name": "LOOP DRUMS", "notes": [{"time": 2402, "pitch": 35, "duration": 61, "velocity": 114}, {"time": 2402, "pitch": 42, "duration": 61, "velocity": 107}, {"time": 2402, "pitch": 54, "duration": 61, "velocity": 75}, {"time": 2523, "pitch": 54, "duration": 60, "velocity": 55}, {"time": 2643, "pitch": 42, "duration": 60, "velocity": 64}, {"time": 2643, "pitch": 54, "duration": 60, "velocity": 85}, {"time": 2764, "pitch": 54, "duration": 60, "velocity": 55}, {"time": 2884, "pitch": 35, "duration": 59, "velocity": 105}, {"time": 2884, "pitch": 38, "duration": 59, "velocity": 100}, {"time": 2884, "pitch": 42, "duration": 59, "velocity": 85}, {"time": 2884, "pitch": 54, "duration": 59, "velocity": 75}, {"time": 3002, "pitch": 54, "duration": 59, "velocity": 55}, {"time": 3120, "pitch": 46, "duration": 59, "velocity": 107}, {"time": 3120, "pitch": 54, "duration": 59, "velocity": 85}, {"time": 3237, "pitch": 38, "duration": 59, "velocity": 114}, {"time": 3237, "pitch": 54, "duration": 59, "velocity": 55}, {"time": 3355, "pitch": 35, "duration": 60, "velocity": 127}, {"time": 3355, "pitch": 42, "duration": 60, "velocity": 94}, {"time": 3355, "pitch": 54, "duration": 60, "velocity": 75}, {"time": 3476, "pitch": 54, "duration": 60, "velocity": 55}, {"time": 3596, "pitch": 46, "duration": 60, "velocity": 105}, {"time": 3596, "pitch": 54, "duration": 60, "velocity": 85}, {"time": 3716, "pitch": 54, "duration": 61, "velocity": 55}, {"time": 3837, "pitch": 35, "duration": 60, "velocity": 110}, {"time": 3837, "pitch": 38, "duration": 60, "velocity": 105}, {"time": 3837, "pitch": 42, "duration": 60, "velocity": 91}, {"time": 3837, "pitch": 54, "duration": 60, "velocity": 75}, {"time": 3957, "pitch": 54, "duration": 60, "velocity": 55}, {"time": 4078, "pitch": 46, "duration": 60, "velocity": 107}, {"time": 4078, "pitch": 54, "duration": 60, "velocity": 85}, {"time": 4198, "pitch": 54, "duration": 60, "velocity": 55}, {"time": 4318, "pitch": 35, "duration": 61, "velocity": 114}, {"time": 4318, "pitch": 42, "duration": 61, "velocity": 107}, {"time": 4318, "pitch": 54, "duration": 61, "velocity": 75}, {"time": 4439, "pitch": 54, "duration": 60, "velocity": 55}, {"time": 4559, "pitch": 42, "duration": 60, "velocity": 64}, {"time": 4559, "pitch": 54, "duration": 60, "velocity": 85}, {"time": 4680, "pitch": 54, "duration": 60, "velocity": 55}, {"time": 4800, "pitch": 35, "duration": 60, "velocity": 105}, {"time": 4800, "pitch": 38, "duration": 60, "velocity": 100}, {"time": 4800, "pitch": 42, "duration": 60, "velocity": 85}, {"time": 4800, "pitch": 54, "duration": 60, "velocity": 75}, {"time": 4920, "pitch": 54, "duration": 61, "velocity": 55}, {"time": 5041, "pitch": 46, "duration": 60, "velocity": 107}, {"time": 5041, "pitch": 54, "duration": 60, "velocity": 85}, {"time": 5161, "pitch": 38, "duration": 60, "velocity": 114}, {"time": 5161, "pitch": 54, "duration": 60, "velocity": 55}, {"time": 5282, "pitch": 35, "duration": 60, "velocity": 127}, {"time": 5282, "pitch": 42, "duration": 60, "velocity": 94}, {"time": 5282, "pitch": 54, "duration": 60, "velocity": 75}, {"time": 5402, "pitch": 54, "duration": 60, "velocity": 55}, {"time": 5522, "pitch": 46, "duration": 61, "velocity": 105}, {"time": 5522, "pitch": 54, "duration": 61, "velocity": 85}, {"time": 5643, "pitch": 54, "duration": 60, "velocity": 55}, {"time": 5763, "pitch": 35, "duration": 60, "velocity": 110}, {"time": 5763, "pitch": 38, "duration": 60, "velocity": 105}, {"time": 5763, "pitch": 42, "duration": 60, "velocity": 91}, {"time": 5763, "pitch": 54, "duration": 60, "velocity": 75}, {"time": 5884, "pitch": 54, "duration": 60, "velocity": 55}, {"time": 6004, "pitch": 46, "duration": 60, "velocity": 107}, {"time": 6004, "pitch": 54, "duration": 60, "velocity": 85}, {"time": 6124, "pitch": 54, "duration": 61, "velocity": 55}, {"time": 6245, "pitch": 35, "duration": 59, "velocity": 114}, {"time": 6245, "pitch": 42, "duration": 59, "velocity": 107}, {"time": 6245, "pitch": 54, "duration": 59, "velocity": 75}, {"time": 6363, "pitch": 54, "duration": 58, "velocity": 55}, {"time": 6480, "pitch": 42, "duration": 59, "velocity": 64}, {"time": 6480, "pitch": 54, "duration": 59, "velocity": 85}, {"time": 6598, "pitch": 54, "duration": 59, "velocity": 55}, {"time": 6716, "pitch": 35, "duration": 60, "velocity": 105}, {"time": 6716, "pitch": 38, "duration": 60, "velocity": 100}, {"time": 6716, "pitch": 42, "duration": 60, "velocity": 85}, {"time": 6716, "pitch": 54, "duration": 60, "velocity": 75}, {"time": 6836, "pitch": 54, "duration": 61, "velocity": 55}, {"time": 6957, "pitch": 46, "duration": 60, "velocity": 107}, {"time": 6957, "pitch": 54, "duration": 60, "velocity": 85}, {"time": 7077, "pitch": 38, "duration": 60, "velocity": 114}, {"time": 7077, "pitch": 54, "duration": 60, "velocity": 55}, {"time": 7198, "pitch": 35, "duration": 60, "velocity": 127}, {"time": 7198, "pitch": 42, "duration": 60, "velocity": 94}, {"time": 7198, "pitch": 54, "duration": 60, "velocity": 75}, {"time": 7318, "pitch": 54, "duration": 60, "velocity": 55}, {"time": 7438, "pitch": 46, "duration": 61, "velocity": 105}, {"time": 7438, "pitch": 54, "duration": 61, "velocity": 85}, {"time": 7559, "pitch": 54, "duration": 60, "velocity": 55}, {"time": 7679, "pitch": 35, "duration": 60, "velocity": 110}, {"time": 7679, "pitch": 38, "duration": 60, "velocity": 105}, {"time": 7679, "pitch": 42, "duration": 60, "velocity": 91}, {"time": 7679, "pitch": 54, "duration": 60, "velocity": 75}, {"time": 7800, "pitch": 54, "duration": 60, "velocity": 55}, {"time": 7920, "pitch": 46, "duration": 60, "velocity": 107}, {"time": 7920, "pitch": 54, "duration": 60, "velocity": 85}, {"time": 8040, "pitch": 54, "duration": 61, "velocity": 55}, {"time": 8161, "pitch": 35, "duration": 60, "velocity": 114}, {"time": 8161, "pitch": 42, "duration": 60, "velocity": 107}, {"time": 8161, "pitch": 54, "duration": 60, "velocity": 75}, {"time": 8281, "pitch": 54, "duration": 60, "velocity": 55}, {"time": 8402, "pitch": 42, "duration": 60, "velocity": 64}, {"time": 8402, "pitch": 54, "duration": 60, "velocity": 85}, {"time": 8522, "pitch": 54, "duration": 60, "velocity": 55}, {"time": 8642, "pitch": 35, "duration": 61, "velocity": 105}, {"time": 8642, "pitch": 38, "duration": 61, "velocity": 100}, {"time": 8642, "pitch": 42, "duration": 61, "velocity": 85}, {"time": 8642, "pitch": 54, "duration": 61, "velocity": 75}, {"time": 8763, "pitch": 54, "duration": 60, "velocity": 55}, {"time": 8883, "pitch": 46, "duration": 60, "velocity": 107}, {"time": 8883, "pitch": 54, "duration": 60, "velocity": 85}, {"time": 9004, "pitch": 38, "duration": 60, "velocity": 114}, {"time": 9004, "pitch": 54, "duration": 60, "velocity": 55}, {"time": 9124, "pitch": 35, "duration": 59, "velocity": 127}, {"time": 9124, "pitch": 42, "duration": 59, "velocity": 94}, {"time": 9124, "pitch": 54, "duration": 59, "velocity": 75}, {"time": 9242, "pitch": 54, "duration": 59, "velocity": 55}, {"time": 9360, "pitch": 46, "duration": 59, "velocity": 105}, {"time": 9360, "pitch": 54, "duration": 59, "velocity": 85}, {"time": 9477, "pitch": 54, "duration": 59, "velocity": 55}, {"time": 9595, "pitch": 35, "duration": 60, "velocity": 110}, {"time": 9595, "pitch": 38, "duration": 60, "velocity": 105}, {"time": 9595, "pitch": 42, "duration": 60, "velocity": 91}, {"time": 9595, "pitch": 54, "duration": 60, "velocity": 75}, {"time": 9716, "pitch": 54, "duration": 60, "velocity": 55}, {"time": 9836, "pitch": 46, "duration": 60, "velocity": 107}, {"time": 9836, "pitch": 54, "duration": 60, "velocity": 85}, {"time": 9956, "pitch": 54, "duration": 61, "velocity": 55}, {"time": 10077, "pitch": 35, "duration": 60, "velocity": 114}, {"time": 10077, "pitch": 42, "duration": 60, "velocity": 107}, {"time": 10077, "pitch": 54, "duration": 60, "velocity": 75}, {"time": 10197, "pitch": 54, "duration": 60, "velocity": 55}, {"time": 10318, "pitch": 42, "duration": 60, "velocity": 64}, {"time": 10318, "pitch": 54, "duration": 60, "velocity": 85}, {"time": 10438, "pitch": 54, "duration": 60, "velocity": 55}, {"time": 10558, "pitch": 35, "duration": 61, "velocity": 105}, {"time": 10558, "pitch": 38, "duration": 61, "velocity": 100}, {"time": 10558, "pitch": 42, "duration": 61, "velocity": 85}, {"time": 10558, "pitch": 54, "duration": 61, "velocity": 75}, {"time": 10679, "pitch": 54, "duration": 60, "velocity": 55}, {"time": 10799, "pitch": 46, "duration": 60, "velocity": 107}, {"time": 10799, "pitch": 54, "duration": 60, "velocity": 85}, {"time": 10920, "pitch": 38, "duration": 60, "velocity": 114}, {"time": 10920, "pitch": 54, "duration": 60, "velocity": 55}, {"time": 11040, "pitch": 35, "duration": 60, "velocity": 127}, {"time": 11040, "pitch": 42, "duration": 60, "velocity": 94}, {"time": 11040, "pitch": 54, "duration": 60, "velocity": 75}, {"time": 11160, "pitch": 54, "duration": 61, "velocity": 55}, {"time": 11281, "pitch": 46, "duration": 60, "velocity": 105}, {"time": 11281, "pitch": 54, "duration": 60, "velocity": 85}, {"time": 11401, "pitch": 54, "duration": 60, "velocity": 55}, {"time": 11522, "pitch": 35, "duration": 60, "velocity": 110}, {"time": 11522, "pitch": 38, "duration": 60, "velocity": 105}, {"time": 11522, "pitch": 42, "duration": 60, "velocity": 91}, {"time": 11522, "pitch": 54, "duration": 60, "velocity": 75}, {"time": 11642, "pitch": 54, "duration": 60, "velocity": 55}, {"time": 11762, "pitch": 46, "duration": 61, "velocity": 107}, {"time": 11762, "pitch": 54, "duration": 61, "velocity": 85}, {"time": 11883, "pitch": 54, "duration": 60, "velocity": 55}, {"time": 12003, "pitch": 35, "duration": 60, "velocity": 114}, {"time": 12003, "pitch": 42, "duration": 60, "velocity": 107}, {"time": 12003, "pitch": 54, "duration": 60, "velocity": 75}, {"time": 12124, "pitch": 54, "duration": 60, "velocity": 55}, {"time": 12244, "pitch": 42, "duration": 60, "velocity": 64}, {"time": 12244, "pitch": 54, "duration": 60, "velocity": 85}, {"time": 12364, "pitch": 54, "duration": 61, "velocity": 55}, {"time": 12485, "pitch": 35, "duration": 59, "velocity": 105}, {"time": 12485, "pitch": 38, "duration": 59, "velocity": 100}, {"time": 12485, "pitch": 42, "duration": 59, "velocity": 85}, {"time": 12485, "pitch": 54, "duration": 59, "velocity": 75}, {"time": 12603, "pitch": 54, "duration": 58, "velocity": 55}, {"time": 12720, "pitch": 46, "duration": 59, "velocity": 107}, {"time": 12720, "pitch": 54, "duration": 59, "velocity": 85}, {"time": 12838, "pitch": 38, "duration": 59, "velocity": 114}, {"time": 12838, "pitch": 54, "duration": 59, "velocity": 55}, {"time": 12956, "pitch": 35, "duration": 60, "velocity": 127}, {"time": 12956, "pitch": 42, "duration": 60, "velocity": 94}, {"time": 12956, "pitch": 54, "duration": 60, "velocity": 75}, {"time": 13076, "pitch": 54, "duration": 61, "velocity": 55}, {"time": 13197, "pitch": 46, "duration": 60, "velocity": 105}, {"time": 13197, "pitch": 54, "duration": 60, "velocity": 85}, {"time": 13317, "pitch": 54, "duration": 60, "velocity": 55}, {"time": 13438, "pitch": 35, "duration": 60, "velocity": 110}, {"time": 13438, "pitch": 38, "duration": 60, "velocity": 105}, {"time": 13438, "pitch": 42, "duration": 60, "velocity": 91}, {"time": 13438, "pitch": 54, "duration": 60, "velocity": 75}, {"time": 13558, "pitch": 54, "duration": 60, "velocity": 55}, {"time": 13678, "pitch": 46, "duration": 61, "velocity": 107}, {"time": 13678, "pitch": 54, "duration": 61, "velocity": 85}, {"time": 13799, "pitch": 54, "duration": 60, "velocity": 55}, {"time": 13919, "pitch": 35, "duration": 60, "velocity": 114}, {"time": 13919, "pitch": 42, "duration": 60, "velocity": 107}, {"time": 13919, "pitch": 54, "duration": 60, "velocity": 75}, {"time": 14040, "pitch": 54, "duration": 60, "velocity": 55}, {"time": 14160, "pitch": 42, "duration": 60, "velocity": 64}, {"time": 14160, "pitch": 54, "duration": 60, "velocity": 85}, {"time": 14280, "pitch": 54, "duration": 61, "velocity": 55}, {"time": 14401, "pitch": 35, "duration": 60, "velocity": 105}, {"time": 14401, "pitch": 38, "duration": 60, "velocity": 100}, {"time": 14401, "pitch": 42, "duration": 60, "velocity": 85}, {"time": 14401, "pitch": 54, "duration": 60, "velocity": 75}, {"time": 14521, "pitch": 54, "duration": 60, "velocity": 55}, {"time": 14642, "pitch": 46, "duration": 60, "velocity": 107}, {"time": 14642, "pitch": 54, "duration": 60, "velocity": 85}, {"time": 14762, "pitch": 38, "duration": 60, "velocity": 114}, {"time": 14762, "pitch": 54, "duration": 60, "velocity": 55}, {"time": 14882, "pitch": 35, "duration": 61, "velocity": 127}, {"time": 14882, "pitch": 42, "duration": 61, "velocity": 94}, {"time": 14882, "pitch": 54, "duration": 61, "velocity": 75}, {"time": 15003, "pitch": 54, "duration": 60, "velocity": 55}, {"time": 15123, "pitch": 46, "duration": 60, "velocity": 105}, {"time": 15123, "pitch": 54, "duration": 60, "velocity": 85}, {"time": 15244, "pitch": 54, "duration": 60, "velocity": 55}, {"time": 15364, "pitch": 35, "duration": 59, "velocity": 110}, {"time": 15364, "pitch": 38, "duration": 59, "velocity": 105}, {"time": 15364, "pitch": 42, "duration": 59, "velocity": 91}, {"time": 15364, "pitch": 54, "duration": 59, "velocity": 75}, {"time": 15482, "pitch": 54, "duration": 59, "velocity": 55}, {"time": 15600, "pitch": 46, "duration": 59, "velocity": 107}, {"time": 15600, "pitch": 54, "duration": 59, "velocity": 85}, {"time": 15717, "pitch": 54, "duration": 59, "velocity": 55}, {"time": 15835, "pitch": 35, "duration": 60, "velocity": 114}, {"time": 15835, "pitch": 42, "duration": 60, "velocity": 107}, {"time": 15835, "pitch": 54, "duration": 60, "velocity": 75}, {"time": 15956, "pitch": 54, "duration": 60, "velocity": 55}, {"time": 16076, "pitch": 42, "duration": 60, "velocity": 64}, {"time": 16076, "pitch": 54, "duration": 60, "velocity": 85}, {"time": 16196, "pitch": 54, "duration": 61, "velocity": 55}, {"time": 16317, "pitch": 35, "duration": 60, "velocity": 105}, {"time": 16317, "pitch": 38, "duration": 60, "velocity": 100}, {"time": 16317, "pitch": 42, "duration": 60, "velocity": 85}, {"time": 16317, "pitch": 54, "duration": 60, "velocity": 75}, {"time": 16437, "pitch": 54, "duration": 60, "velocity": 55}, {"time": 16558, "pitch": 46, "duration": 60, "velocity": 107}, {"time": 16558, "pitch": 54, "duration": 60, "velocity": 85}, {"time": 16678, "pitch": 38, "duration": 60, "velocity": 114}, {"time": 16678, "pitch": 54, "duration": 60, "velocity": 55}, {"time": 16798, "pitch": 35, "duration": 61, "velocity": 127}, {"time": 16798, "pitch": 42, "duration": 61, "velocity": 94}, {"time": 16798, "pitch": 54, "duration": 61, "velocity": 75}, {"time": 16919, "pitch": 54, "duration": 60, "velocity": 55}, {"time": 17039, "pitch": 46, "duration": 60, "velocity": 105}, {"time": 17039, "pitch": 54, "duration": 60, "velocity": 85}, {"time": 17160, "pitch": 54, "duration": 60, "velocity": 55}, {"time": 17280, "pitch": 35, "duration": 60, "velocity": 110}, {"time": 17280, "pitch": 38, "duration": 60, "velocity": 105}, {"time": 17280, "pitch": 42, "duration": 60, "velocity": 91}, {"time": 17280, "pitch": 54, "duration": 60, "velocity": 75}, {"time": 17400, "pitch": 54, "duration": 61, "velocity": 55}, {"time": 17521, "pitch": 46, "duration": 60, "velocity": 107}, {"time": 17521, "pitch": 54, "duration": 60, "velocity": 85}, {"time": 17641, "pitch": 54, "duration": 60, "velocity": 55}, {"time": 17762, "pitch": 35, "duration": 60, "velocity": 114}, {"time": 17762, "pitch": 42, "duration": 60, "velocity": 107}, {"time": 17762, "pitch": 54, "duration": 60, "velocity": 75}, {"time": 17882, "pitch": 54, "duration": 60, "velocity": 55}, {"time": 18002, "pitch": 42, "duration": 61, "velocity": 64}, {"time": 18002, "pitch": 54, "duration": 61, "velocity": 85}, {"time": 18123, "pitch": 54, "duration": 60, "velocity": 55}, {"time": 18243, "pitch": 35, "duration": 60, "velocity": 105}, {"time": 18243, "pitch": 38, "duration": 60, "velocity": 100}, {"time": 18243, "pitch": 42, "duration": 60, "velocity": 85}, {"time": 18243, "pitch": 54, "duration": 60, "velocity": 75}, {"time": 18364, "pitch": 54, "duration": 60, "velocity": 55}, {"time": 18484, "pitch": 46, "duration": 60, "velocity": 107}, {"time": 18484, "pitch": 54, "duration": 60, "velocity": 85}, {"time": 18604, "pitch": 38, "duration": 61, "velocity": 114}, {"time": 18604, "pitch": 54, "duration": 61, "velocity": 55}, {"time": 18725, "pitch": 35, "duration": 59, "velocity": 127}, {"time": 18725, "pitch": 42, "duration": 59, "velocity": 94}, {"time": 18725, "pitch": 54, "duration": 59, "velocity": 75}, {"time": 18843, "pitch": 54, "duration": 58, "velocity": 55}, {"time": 18960, "pitch": 46, "duration": 59, "velocity": 105}, {"time": 18960, "pitch": 54, "duration": 59, "velocity": 85}, {"time": 19078, "pitch": 54, "duration": 59, "velocity": 55}, {"time": 19196, "pitch": 35, "duration": 60, "velocity": 110}, {"time": 19196, "pitch": 38, "duration": 60, "velocity": 105}, {"time": 19196, "pitch": 42, "duration": 60, "velocity": 91}, {"time": 19196, "pitch": 54, "duration": 60, "velocity": 75}, {"time": 19316, "pitch": 54, "duration": 61, "velocity": 55}, {"time": 19437, "pitch": 46, "duration": 60, "velocity": 107}, {"time": 19437, "pitch": 54, "duration": 60, "velocity": 85}, {"time": 19557, "pitch": 54, "duration": 60, "velocity": 55}, {"time": 19678, "pitch": 35, "duration": 60, "velocity": 114}, {"time": 19678, "pitch": 42, "duration": 60, "velocity": 107}, {"time": 19678, "pitch": 54, "duration": 60, "velocity": 75}, {"time": 19798, "pitch": 54, "duration": 60, "velocity": 55}, {"time": 19918, "pitch": 42, "duration": 61, "velocity": 64}, {"time": 19918, "pitch": 54, "duration": 61, "velocity": 85}, {"time": 20039, "pitch": 54, "duration": 60, "velocity": 55}, {"time": 20159, "pitch": 35, "duration": 60, "velocity": 105}, {"time": 20159, "pitch": 38, "duration": 60, "velocity": 100}, {"time": 20159, "pitch": 42, "duration": 60, "velocity": 85}, {"time": 20159, "pitch": 54, "duration": 60, "velocity": 75}, {"time": 20280, "pitch": 54, "duration": 60, "velocity": 55}, {"time": 20400, "pitch": 46, "duration": 60, "velocity": 107}, {"time": 20400, "pitch": 54, "duration": 60, "velocity": 85}, {"time": 20520, "pitch": 38, "duration": 61, "velocity": 114}, {"time": 20520, "pitch": 54, "duration": 61, "velocity": 55}, {"time": 20641, "pitch": 35, "duration": 60, "velocity": 127}, {"time": 20641, "pitch": 42, "duration": 60, "velocity": 94}, {"time": 20641, "pitch": 54, "duration": 60, "velocity": 75}, {"time": 20761, "pitch": 54, "duration": 60, "velocity": 55}, {"time": 20882, "pitch": 46, "duration": 60, "velocity": 105}, {"time": 20882, "pitch": 54, "duration": 60, "velocity": 85}, {"time": 21002, "pitch": 54, "duration": 60, "velocity": 55}, {"time": 21122, "pitch": 35, "duration": 61, "velocity": 110}, {"time": 21122, "pitch": 38, "duration": 61, "velocity": 105}, {"time": 21122, "pitch": 42, "duration": 61, "velocity": 91}, {"time": 21122, "pitch": 54, "duration": 61, "velocity": 75}, {"time": 21243, "pitch": 54, "duration": 60, "velocity": 55}, {"time": 21363, "pitch": 46, "duration": 60, "velocity": 107}, {"time": 21363, "pitch": 54, "duration": 60, "velocity": 85}, {"time": 21484, "pitch": 54, "duration": 60, "velocity": 55}, {"time": 21604, "pitch": 35, "duration": 59, "velocity": 114}, {"time": 21604, "pitch": 42, "duration": 59, "velocity": 107}, {"time": 21604, "pitch": 54, "duration": 59, "velocity": 75}, {"time": 21722, "pitch": 54, "duration": 59, "velocity": 55}, {"time": 21840, "pitch": 42, "duration": 59, "velocity": 64}, {"time": 21840, "pitch": 54, "duration": 59, "velocity": 85}, {"time": 21957, "pitch": 54, "duration": 59, "velocity": 55}, {"time": 22075, "pitch": 35, "duration": 60, "velocity": 105}, {"time": 22075, "pitch": 38, "duration": 60, "velocity": 100}, {"time": 22075, "pitch": 42, "duration": 60, "velocity": 85}, {"time": 22075, "pitch": 54, "duration": 60, "velocity": 75}, {"time": 22196, "pitch": 54, "duration": 60, "velocity": 55}, {"time": 22316, "pitch": 46, "duration": 60, "velocity": 107}, {"time": 22316, "pitch": 54, "duration": 60, "velocity": 85}, {"time": 22436, "pitch": 38, "duration": 61, "velocity": 114}, {"time": 22436, "pitch": 54, "duration": 61, "velocity": 55}, {"time": 22557, "pitch": 35, "duration": 60, "velocity": 127}, {"time": 22557, "pitch": 42, "duration": 60, "velocity": 94}, {"time": 22557, "pitch": 54, "duration": 60, "velocity": 75}, {"time": 22677, "pitch": 54, "duration": 60, "velocity": 55}, {"time": 22798, "pitch": 46, "duration": 60, "velocity": 105}, {"time": 22798, "pitch": 54, "duration": 60, "velocity": 85}, {"time": 22918, "pitch": 54, "duration": 60, "velocity": 55}, {"time": 23038, "pitch": 35, "duration": 61, "velocity": 110}, {"time": 23038, "pitch": 38, "duration": 61, "velocity": 105}, {"time": 23038, "pitch": 42, "duration": 61, "velocity": 91}, {"time": 23038, "pitch": 54, "duration": 61, "velocity": 75}, {"time": 23159, "pitch": 54, "duration": 60, "velocity": 55}, {"time": 23279, "pitch": 46, "duration": 60, "velocity": 107}, {"time": 23279, "pitch": 54, "duration": 60, "velocity": 85}, {"time": 23400, "pitch": 54, "duration": 60, "velocity": 55}, {"time": 23520, "pitch": 35, "duration": 60, "velocity": 114}, {"time": 23520, "pitch": 42, "duration": 60, "velocity": 107}, {"time": 23520, "pitch": 54, "duration": 60, "velocity": 75}, {"time": 23640, "pitch": 54, "duration": 61, "velocity": 55}, {"time": 23761, "pitch": 42, "duration": 60, "velocity": 64}, {"time": 23761, "pitch": 54, "duration": 60, "velocity": 85}, {"time": 23881, "pitch": 54, "duration": 60, "velocity": 55}, {"time": 24002, "pitch": 35, "duration": 60, "velocity": 105}, {"time": 24002, "pitch": 38, "duration": 60, "velocity": 100}, {"time": 24002, "pitch": 42, "duration": 60, "velocity": 85}, {"time": 24002, "pitch": 54, "duration": 60, "velocity": 75}, {"time": 24122, "pitch": 54, "duration": 60, "velocity": 55}, {"time": 24242, "pitch": 46, "duration": 61, "velocity": 107}, {"time": 24242, "pitch": 54, "duration": 61, "velocity": 85}, {"time": 24363, "pitch": 38, "duration": 60, "velocity": 114}, {"time": 24363, "pitch": 54, "duration": 60, "velocity": 55}, {"time": 24483, "pitch": 35, "duration": 60, "velocity": 127}, {"time": 24483, "pitch": 42, "duration": 60, "velocity": 94}, {"time": 24483, "pitch": 54, "duration": 60, "velocity": 75}, {"time": 24604, "pitch": 54, "duration": 60, "velocity": 55}, {"time": 24724, "pitch": 46, "duration": 60, "velocity": 105}, {"time": 24724, "pitch": 54, "duration": 60, "velocity": 85}, {"time": 24844, "pitch": 54, "duration": 61, "velocity": 55}, {"time": 24965, "pitch": 35, "duration": 59, "velocity": 110}, {"time": 24965, "pitch": 38, "duration": 59, "velocity": 105}, {"time": 24965, "pitch": 42, "duration": 59, "velocity": 91}, {"time": 24965, "pitch": 54, "duration": 59, "velocity": 75}, {"time": 25083, "pitch": 54, "duration": 58, "velocity": 55}, {"time": 25200, "pitch": 46, "duration": 59, "velocity": 107}, {"time": 25200, "pitch": 54, "duration": 59, "velocity": 85}, {"time": 25318, "pitch": 54, "duration": 59, "velocity": 55}, {"time": 25436, "pitch": 35, "duration": 60, "velocity": 114}, {"time": 25436, "pitch": 42, "duration": 60, "velocity": 107}, {"time": 25436, "pitch": 54, "duration": 60, "velocity": 75}, {"time": 25556, "pitch": 54, "duration": 61, "velocity": 55}, {"time": 25677, "pitch": 42, "duration": 60, "velocity": 64}, {"time": 25677, "pitch": 54, "duration": 60, "velocity": 85}, {"time": 25797, "pitch": 54, "duration": 60, "velocity": 55}, {"time": 25918, "pitch": 35, "duration": 60, "velocity": 105}, {"time": 25918, "pitch": 38, "duration": 60, "velocity": 100}, {"time": 25918, "pitch": 42, "duration": 60, "velocity": 85}, {"time": 25918, "pitch": 54, "duration": 60, "velocity": 75}, {"time": 26038, "pitch": 54, "duration": 60, "velocity": 55}, {"time": 26158, "pitch": 46, "duration": 61, "velocity": 107}, {"time": 26158, "pitch": 54, "duration": 61, "velocity": 85}, {"time": 26279, "pitch": 38, "duration": 60, "velocity": 114}, {"time": 26279, "pitch": 54, "duration": 60, "velocity": 55}, {"time": 26399, "pitch": 35, "duration": 60, "velocity": 127}, {"time": 26399, "pitch": 42, "duration": 60, "velocity": 94}, {"time": 26399, "pitch": 54, "duration": 60, "velocity": 75}, {"time": 26520, "pitch": 54, "duration": 60, "velocity": 55}, {"time": 26640, "pitch": 46, "duration": 60, "velocity": 105}, {"time": 26640, "pitch": 54, "duration": 60, "velocity": 85}, {"time": 26760, "pitch": 54, "duration": 61, "velocity": 55}, {"time": 26881, "pitch": 35, "duration": 60, "velocity": 110}, {"time": 26881, "pitch": 38, "duration": 60, "velocity": 105}, {"time": 26881, "pitch": 42, "duration": 60, "velocity": 91}, {"time": 26881, "pitch": 54, "duration": 60, "velocity": 75}, {"time": 27001, "pitch": 54, "duration": 60, "velocity": 55}, {"time": 27122, "pitch": 46, "duration": 60, "velocity": 107}, {"time": 27122, "pitch": 54, "duration": 60, "velocity": 85}, {"time": 27242, "pitch": 54, "duration": 60, "velocity": 55}, {"time": 27362, "pitch": 35, "duration": 61, "velocity": 114}, {"time": 27362, "pitch": 42, "duration": 61, "velocity": 107}, {"time": 27362, "pitch": 54, "duration": 61, "velocity": 75}, {"time": 27483, "pitch": 54, "duration": 60, "velocity": 55}, {"time": 27603, "pitch": 42, "duration": 60, "velocity": 64}, {"time": 27603, "pitch": 54, "duration": 60, "velocity": 85}, {"time": 27724, "pitch": 54, "duration": 60, "velocity": 55}, {"time": 27844, "pitch": 35, "duration": 59, "velocity": 105}, {"time": 27844, "pitch": 38, "duration": 59, "velocity": 100}, {"time": 27844, "pitch": 42, "duration": 59, "velocity": 85}, {"time": 27844, "pitch": 54, "duration": 59, "velocity": 75}, {"time": 27962, "pitch": 54, "duration": 59, "velocity": 55}, {"time": 28080, "pitch": 46, "duration": 58, "velocity": 107}, {"time": 28080, "pitch": 54, "duration": 58, "velocity": 85}, {"time": 28197, "pitch": 38, "duration": 59, "velocity": 114}, {"time": 28197, "pitch": 54, "duration": 59, "velocity": 55}, {"time": 28315, "pitch": 35, "duration": 60, "velocity": 127}, {"time": 28315, "pitch": 42, "duration": 60, "velocity": 94}, {"time": 28315, "pitch": 54, "duration": 60, "velocity": 75}, {"time": 28436, "pitch": 54, "duration": 60, "velocity": 55}, {"time": 28556, "pitch": 46, "duration": 60, "velocity": 105}, {"time": 28556, "pitch": 54, "duration": 60, "velocity": 85}, {"time": 28676, "pitch": 54, "duration": 61, "velocity": 55}, {"time": 28797, "pitch": 35, "duration": 60, "velocity": 110}, {"time": 28797, "pitch": 38, "duration": 60, "velocity": 105}, {"time": 28797, "pitch": 42, "duration": 60, "velocity": 91}, {"time": 28797, "pitch": 54, "duration": 60, "velocity": 75}, {"time": 28917, "pitch": 54, "duration": 60, "velocity": 55}, {"time": 29038, "pitch": 46, "duration": 60, "velocity": 107}, {"time": 29038, "pitch": 54, "duration": 60, "velocity": 85}, {"time": 29158, "pitch": 54, "duration": 60, "velocity": 55}, {"time": 29278, "pitch": 35, "duration": 61, "velocity": 114}, {"time": 29278, "pitch": 42, "duration": 61, "velocity": 107}, {"time": 29278, "pitch": 54, "duration": 61, "velocity": 75}, {"time": 29399, "pitch": 54, "duration": 60, "velocity": 55}, {"time": 29519, "pitch": 42, "duration": 60, "velocity": 64}, {"time": 29519, "pitch": 54, "duration": 60, "velocity": 85}, {"time": 29640, "pitch": 54, "duration": 60, "velocity": 55}, {"time": 29760, "pitch": 35, "duration": 60, "velocity": 105}, {"time": 29760, "pitch": 38, "duration": 60, "velocity": 100}, {"time": 29760, "pitch": 42, "duration": 60, "velocity": 85}, {"time": 29760, "pitch": 54, "duration": 60, "velocity": 75}, {"time": 29880, "pitch": 54, "duration": 61, "velocity": 55}, {"time": 30001, "pitch": 46, "duration": 60, "velocity": 107}, {"time": 30001, "pitch": 54, "duration": 60, "velocity": 85}, {"time": 30121, "pitch": 38, "duration": 60, "velocity": 114}, {"time": 30121, "pitch": 54, "duration": 60, "velocity": 55}, {"time": 30242, "pitch": 35, "duration": 60, "velocity": 127}, {"time": 30242, "pitch": 42, "duration": 60, "velocity": 94}, {"time": 30242, "pitch": 54, "duration": 60, "velocity": 75}, {"time": 30362, "pitch": 54, "duration": 60, "velocity": 55}, {"time": 30482, "pitch": 46, "duration": 61, "velocity": 105}, {"time": 30482, "pitch": 54, "duration": 61, "velocity": 85}, {"time": 30603, "pitch": 54, "duration": 60, "velocity": 55}, {"time": 30723, "pitch": 35, "duration": 60, "velocity": 110}, {"time": 30723, "pitch": 38, "duration": 60, "velocity": 105}, {"time": 30723, "pitch": 42, "duration": 60, "velocity": 91}, {"time": 30723, "pitch": 54, "duration": 60, "velocity": 75}, {"time": 30844, "pitch": 54, "duration": 60, "velocity": 55}, {"time": 30964, "pitch": 46, "duration": 60, "velocity": 107}, {"time": 30964, "pitch": 54, "duration": 60, "velocity": 85}, {"time": 31084, "pitch": 54, "duration": 61, "velocity": 55}, {"time": 31205, "pitch": 35, "duration": 59, "velocity": 114}, {"time": 31205, "pitch": 42, "duration": 59, "velocity": 107}, {"time": 31205, "pitch": 54, "duration": 59, "velocity": 75}, {"time": 31323, "pitch": 54, "duration": 58, "velocity": 55}, {"time": 31440, "pitch": 42, "duration": 59, "velocity": 64}, {"time": 31440, "pitch": 54, "duration": 59, "velocity": 85}, {"time": 31558, "pitch": 54, "duration": 59, "velocity": 55}, {"time": 31676, "pitch": 35, "duration": 60, "velocity": 105}, {"time": 31676, "pitch": 38, "duration": 60, "velocity": 100}, {"time": 31676, "pitch": 42, "duration": 60, "velocity": 85}, {"time": 31676, "pitch": 54, "duration": 60, "velocity": 75}, {"time": 31796, "pitch": 54, "duration": 61, "velocity": 55}, {"time": 31917, "pitch": 46, "duration": 60, "velocity": 107}, {"time": 31917, "pitch": 54, "duration": 60, "velocity": 85}, {"time": 32037, "pitch": 38, "duration": 60, "velocity": 114}, {"time": 32037, "pitch": 54, "duration": 60, "velocity": 55}, {"time": 32158, "pitch": 35, "duration": 60, "velocity": 127}, {"time": 32158, "pitch": 42, "duration": 60, "velocity": 94}, {"time": 32158, "pitch": 54, "duration": 60, "velocity": 75}, {"time": 32278, "pitch": 54, "duration": 60, "velocity": 55}, {"time": 32398, "pitch": 46, "duration": 61, "velocity": 105}, {"time": 32398, "pitch": 54, "duration": 61, "velocity": 85}, {"time": 32519, "pitch": 54, "duration": 60, "velocity": 55}, {"time": 32639, "pitch": 35, "duration": 60, "velocity": 110}, {"time": 32639, "pitch": 38, "duration": 60, "velocity": 105}, {"time": 32639, "pitch": 42, "duration": 60, "velocity": 91}, {"time": 32639, "pitch": 54, "duration": 60, "velocity": 75}, {"time": 32760, "pitch": 54, "duration": 60, "velocity": 55}, {"time": 32880, "pitch": 46, "duration": 60, "velocity": 107}, {"time": 32880, "pitch": 54, "duration": 60, "velocity": 85}, {"time": 33000, "pitch": 54, "duration": 61, "velocity": 55}, {"time": 33121, "pitch": 35, "duration": 60, "velocity": 114}, {"time": 33121, "pitch": 42, "duration": 60, "velocity": 107}, {"time": 33121, "pitch": 54, "duration": 60, "velocity": 75}, {"time": 33241, "pitch": 54, "duration": 60, "velocity": 55}, {"time": 33362, "pitch": 42, "duration": 60, "velocity": 64}, {"time": 33362, "pitch": 54, "duration": 60, "velocity": 85}, {"time": 33482, "pitch": 54, "duration": 60, "velocity": 55}, {"time": 33602, "pitch": 35, "duration": 61, "velocity": 105}, {"time": 33602, "pitch": 38, "duration": 61, "velocity": 100}, {"time": 33602, "pitch": 42, "duration": 61, "velocity": 85}, {"time": 33602, "pitch": 54, "duration": 61, "velocity": 75}, {"time": 33723, "pitch": 54, "duration": 60, "velocity": 55}, {"time": 33843, "pitch": 46, "duration": 60, "velocity": 107}, {"time": 33843, "pitch": 54, "duration": 60, "velocity": 85}, {"time": 33964, "pitch": 38, "duration": 60, "velocity": 114}, {"time": 33964, "pitch": 54, "duration": 60, "velocity": 55}, {"time": 34084, "pitch": 35, "duration": 59, "velocity": 127}, {"time": 34084, "pitch": 42, "duration": 59, "velocity": 94}, {"time": 34084, "pitch": 54, "duration": 59, "velocity": 75}, {"time": 34202, "pitch": 54, "duration": 59, "velocity": 55}, {"time": 34320, "pitch": 46, "duration": 58, "velocity": 105}, {"time": 34320, "pitch": 54, "duration": 58, "velocity": 85}, {"time": 34437, "pitch": 54, "duration": 59, "velocity": 55}, {"time": 34555, "pitch": 35, "duration": 60, "velocity": 110}, {"time": 34555, "pitch": 38, "duration": 60, "velocity": 105}, {"time": 34555, "pitch": 42, "duration": 60, "velocity": 91}, {"time": 34555, "pitch": 54, "duration": 60, "velocity": 75}, {"time": 34676, "pitch": 54, "duration": 60, "velocity": 55}, {"time": 34796, "pitch": 46, "duration": 60, "velocity": 107}, {"time": 34796, "pitch": 54, "duration": 60, "velocity": 85}, {"time": 34916, "pitch": 54, "duration": 61, "velocity": 55}, {"time": 35037, "pitch": 35, "duration": 60, "velocity": 114}, {"time": 35037, "pitch": 42, "duration": 60, "velocity": 107}, {"time": 35037, "pitch": 54, "duration": 60, "velocity": 75}, {"time": 35157, "pitch": 54, "duration": 60, "velocity": 55}, {"time": 35278, "pitch": 42, "duration": 60, "velocity": 64}, {"time": 35278, "pitch": 54, "duration": 60, "velocity": 85}, {"time": 35398, "pitch": 54, "duration": 60, "velocity": 55}, {"time": 35518, "pitch": 35, "duration": 61, "velocity": 105}, {"time": 35518, "pitch": 38, "duration": 61, "velocity": 100}, {"time": 35518, "pitch": 42, "duration": 61, "velocity": 85}, {"time": 35518, "pitch": 54, "duration": 61, "velocity": 75}, {"time": 35639, "pitch": 54, "duration": 60, "velocity": 55}, {"time": 35759, "pitch": 46, "duration": 60, "velocity": 107}, {"time": 35759, "pitch": 54, "duration": 60, "velocity": 85}, {"time": 35880, "pitch": 38, "duration": 60, "velocity": 114}, {"time": 35880, "pitch": 54, "duration": 60, "velocity": 55}, {"time": 36000, "pitch": 35, "duration": 60, "velocity": 127}, {"time": 36000, "pitch": 42, "duration": 60, "velocity": 94}, {"time": 36000, "pitch": 54, "duration": 60, "velocity": 75}, {"time": 36120, "pitch": 54, "duration": 61, "velocity": 55}, {"time": 36241, "pitch": 46, "duration": 60, "velocity": 105}, {"time": 36241, "pitch": 54, "duration": 60, "velocity": 85}, {"time": 36361, "pitch": 54, "duration": 60, "velocity": 55}, {"time": 36482, "pitch": 35, "duration": 60, "velocity": 110}, {"time": 36482, "pitch": 38, "duration": 60, "velocity": 105}, {"time": 36482, "pitch": 42, "duration": 60, "velocity": 91}, {"time": 36482, "pitch": 54, "duration": 60, "velocity": 75}, {"time": 36602, "pitch": 54, "duration": 60, "velocity": 55}, {"time": 36722, "pitch": 46, "duration": 61, "velocity": 107}, {"time": 36722, "pitch": 54, "duration": 61, "velocity": 85}, {"time": 36843, "pitch": 54, "duration": 60, "velocity": 55}, {"time": 36963, "pitch": 35, "duration": 60, "velocity": 114}, {"time": 36963, "pitch": 42, "duration": 60, "velocity": 107}, {"time": 36963, "pitch": 54, "duration": 60, "velocity": 75}, {"time": 37084, "pitch": 54, "duration": 60, "velocity": 55}, {"time": 37204, "pitch": 42, "duration": 60, "velocity": 64}, {"time": 37204, "pitch": 54, "duration": 60, "velocity": 85}, {"time": 37324, "pitch": 54, "duration": 61, "velocity": 55}, {"time": 37445, "pitch": 35, "duration": 59, "velocity": 105}, {"time": 37445, "pitch": 38, "duration": 59, "velocity": 100}, {"time": 37445, "pitch": 42, "duration": 59, "velocity": 85}, {"time": 37445, "pitch": 54, "duration": 59, "velocity": 75}, {"time": 37563, "pitch": 54, "duration": 58, "velocity": 55}, {"time": 37680, "pitch": 46, "duration": 59, "velocity": 107}, {"time": 37680, "pitch": 54, "duration": 59, "velocity": 85}, {"time": 37798, "pitch": 38, "duration": 59, "velocity": 114}, {"time": 37798, "pitch": 54, "duration": 59, "velocity": 55}, {"time": 37916, "pitch": 35, "duration": 60, "velocity": 127}, {"time": 37916, "pitch": 42, "duration": 60, "velocity": 94}, {"time": 37916, "pitch": 54, "duration": 60, "velocity": 75}, {"time": 38036, "pitch": 54, "duration": 61, "velocity": 55}, {"time": 38157, "pitch": 46, "duration": 60, "velocity": 105}, {"time": 38157, "pitch": 54, "duration": 60, "velocity": 85}, {"time": 38277, "pitch": 54, "duration": 60, "velocity": 55}, {"time": 38398, "pitch": 35, "duration": 60, "velocity": 110}, {"time": 38398, "pitch": 38, "duration": 60, "velocity": 105}, {"time": 38398, "pitch": 42, "duration": 60, "velocity": 91}, {"time": 38398, "pitch": 54, "duration": 60, "velocity": 75}, {"time": 38518, "pitch": 54, "duration": 60, "velocity": 55}, {"time": 38638, "pitch": 46, "duration": 61, "velocity": 107}, {"time": 38638, "pitch": 54, "duration": 61, "velocity": 85}, {"time": 38759, "pitch": 54, "duration": 60, "velocity": 55}, {"time": 38879, "pitch": 35, "duration": 60, "velocity": 114}, {"time": 38879, "pitch": 42, "duration": 60, "velocity": 107}, {"time": 38879, "pitch": 54, "duration": 60, "velocity": 75}, {"time": 39000, "pitch": 54, "duration": 60, "velocity": 55}, {"time": 39120, "pitch": 42, "duration": 60, "velocity": 64}, {"time": 39120, "pitch": 54, "duration": 60, "velocity": 85}, {"time": 39240, "pitch": 54, "duration": 61, "velocity": 55}, {"time": 39361, "pitch": 35, "duration": 60, "velocity": 105}, {"time": 39361, "pitch": 38, "duration": 60, "velocity": 100}, {"time": 39361, "pitch": 42, "duration": 60, "velocity": 85}, {"time": 39361, "pitch": 54, "duration": 60, "velocity": 75}, {"time": 39481, "pitch": 54, "duration": 60, "velocity": 55}, {"time": 39602, "pitch": 46, "duration": 60, "velocity": 107}, {"time": 39602, "pitch": 54, "duration": 60, "velocity": 85}, {"time": 39722, "pitch": 38, "duration": 60, "velocity": 114}, {"time": 39722, "pitch": 54, "duration": 60, "velocity": 55}, {"time": 39842, "pitch": 35, "duration": 61, "velocity": 127}, {"time": 39842, "pitch": 42, "duration": 61, "velocity": 94}, {"time": 39842, "pitch": 54, "duration": 61, "velocity": 75}, {"time": 39963, "pitch": 54, "duration": 60, "velocity": 55}, {"time": 40083, "pitch": 46, "duration": 60, "velocity": 105}, {"time": 40083, "pitch": 54, "duration": 60, "velocity": 85}, {"time": 40204, "pitch": 54, "duration": 60, "velocity": 55}, {"time": 40324, "pitch": 35, "duration": 59, "velocity": 110}, {"time": 40324, "pitch": 38, "duration": 59, "velocity": 105}, {"time": 40324, "pitch": 42, "duration": 59, "velocity": 91}, {"time": 40324, "pitch": 54, "duration": 59, "velocity": 75}, {"time": 40442, "pitch": 54, "duration": 59, "velocity": 55}, {"time": 40560, "pitch": 46, "duration": 58, "velocity": 107}, {"time": 40560, "pitch": 54, "duration": 58, "velocity": 85}, {"time": 40677, "pitch": 54, "duration": 59, "velocity": 55}, {"time": 40795, "pitch": 35, "duration": 60, "velocity": 114}, {"time": 40795, "pitch": 42, "duration": 60, "velocity": 107}, {"time": 40795, "pitch": 54, "duration": 60, "velocity": 75}, {"time": 40916, "pitch": 54, "duration": 60, "velocity": 55}, {"time": 41036, "pitch": 42, "duration": 60, "velocity": 64}, {"time": 41036, "pitch": 54, "duration": 60, "velocity": 85}, {"time": 41156, "pitch": 54, "duration": 61, "velocity": 55}, {"time": 41277, "pitch": 35, "duration": 60, "velocity": 105}, {"time": 41277, "pitch": 38, "duration": 60, "velocity": 100}, {"time": 41277, "pitch": 42, "duration": 60, "velocity": 85}, {"time": 41277, "pitch": 54, "duration": 60, "velocity": 75}, {"time": 41397, "pitch": 54, "duration": 60, "velocity": 55}, {"time": 41518, "pitch": 46, "duration": 60, "velocity": 107}, {"time": 41518, "pitch": 54, "duration": 60, "velocity": 85}, {"time": 41638, "pitch": 38, "duration": 60, "velocity": 114}, {"time": 41638, "pitch": 54, "duration": 60, "velocity": 55}, {"time": 41758, "pitch": 35, "duration": 61, "velocity": 127}, {"time": 41758, "pitch": 42, "duration": 61, "velocity": 94}, {"time": 41758, "pitch": 54, "duration": 61, "velocity": 75}, {"time": 41879, "pitch": 54, "duration": 60, "velocity": 55}, {"time": 41999, "pitch": 46, "duration": 60, "velocity": 105}, {"time": 41999, "pitch": 54, "duration": 60, "velocity": 85}, {"time": 42120, "pitch": 54, "duration": 60, "velocity": 55}, {"time": 42240, "pitch": 35, "duration": 60, "velocity": 110}, {"time": 42240, "pitch": 38, "duration": 60, "velocity": 105}, {"time": 42240, "pitch": 42, "duration": 60, "velocity": 91}, {"time": 42240, "pitch": 54, "duration": 60, "velocity": 75}, {"time": 42360, "pitch": 54, "duration": 61, "velocity": 55}, {"time": 42481, "pitch": 46, "duration": 60, "velocity": 107}, {"time": 42481, "pitch": 54, "duration": 60, "velocity": 85}, {"time": 42601, "pitch": 54, "duration": 60, "velocity": 55}, {"time": 42722, "pitch": 35, "duration": 60, "velocity": 114}, {"time": 42722, "pitch": 42, "duration": 60, "velocity": 107}, {"time": 42722, "pitch": 54, "duration": 60, "velocity": 75}, {"time": 42842, "pitch": 54, "duration": 60, "velocity": 55}, {"time": 42962, "pitch": 42, "duration": 61, "velocity": 64}, {"time": 42962, "pitch": 54, "duration": 61, "velocity": 85}, {"time": 43083, "pitch": 54, "duration": 60, "velocity": 55}, {"time": 43203, "pitch": 35, "duration": 60, "velocity": 105}, {"time": 43203, "pitch": 38, "duration": 60, "velocity": 100}, {"time": 43203, "pitch": 42, "duration": 60, "velocity": 85}, {"time": 43203, "pitch": 54, "duration": 60, "velocity": 75}, {"time": 43324, "pitch": 54, "duration": 60, "velocity": 55}, {"time": 43444, "pitch": 46, "duration": 60, "velocity": 107}, {"time": 43444, "pitch": 54, "duration": 60, "velocity": 85}, {"time": 43564, "pitch": 38, "duration": 61, "velocity": 114}, {"time": 43564, "pitch": 54, "duration": 61, "velocity": 55}, {"time": 43685, "pitch": 35, "duration": 59, "velocity": 127}, {"time": 43685, "pitch": 42, "duration": 59, "velocity": 94}, {"time": 43685, "pitch": 54, "duration": 59, "velocity": 75}, {"time": 43803, "pitch": 54, "duration": 58, "velocity": 55}, {"time": 43920, "pitch": 46, "duration": 59, "velocity": 105}, {"time": 43920, "pitch": 54, "duration": 59, "velocity": 85}, {"time": 44038, "pitch": 54, "duration": 59, "velocity": 55}, {"time": 44156, "pitch": 35, "duration": 60, "velocity": 110}, {"time": 44156, "pitch": 38, "duration": 60, "velocity": 105}, {"time": 44156, "pitch": 42, "duration": 60, "velocity": 91}, {"time": 44156, "pitch": 54, "duration": 60, "velocity": 75}, {"time": 44276, "pitch": 54, "duration": 61, "velocity": 55}, {"time": 44397, "pitch": 46, "duration": 60, "velocity": 107}, {"time": 44397, "pitch": 54, "duration": 60, "velocity": 85}, {"time": 44517, "pitch": 54, "duration": 60, "velocity": 55}, {"time": 44638, "pitch": 35, "duration": 60, "velocity": 114}, {"time": 44638, "pitch": 42, "duration": 60, "velocity": 107}, {"time": 44638, "pitch": 54, "duration": 60, "velocity": 75}, {"time": 44758, "pitch": 54, "duration": 60, "velocity": 55}, {"time": 44878, "pitch": 42, "duration": 61, "velocity": 64}, {"time": 44878, "pitch": 54, "duration": 61, "velocity": 85}, {"time": 44999, "pitch": 54, "duration": 60, "velocity": 55}, {"time": 45119, "pitch": 35, "duration": 60, "velocity": 105}, {"time": 45119, "pitch": 38, "duration": 60, "velocity": 100}, {"time": 45119, "pitch": 42, "duration": 60, "velocity": 85}, {"time": 45119, "pitch": 54, "duration": 60, "velocity": 75}, {"time": 45240, "pitch": 54, "duration": 60, "velocity": 55}, {"time": 45360, "pitch": 46, "duration": 60, "velocity": 107}, {"time": 45360, "pitch": 54, "duration": 60, "velocity": 85}, {"time": 45480, "pitch": 38, "duration": 61, "velocity": 114}, {"time": 45480, "pitch": 54, "duration": 61, "velocity": 55}, {"time": 45601, "pitch": 35, "duration": 60, "velocity": 127}, {"time": 45601, "pitch": 42, "duration": 60, "velocity": 94}, {"time": 45601, "pitch": 54, "duration": 60, "velocity": 75}, {"time": 45721, "pitch": 54, "duration": 60, "velocity": 55}, {"time": 45842, "pitch": 46, "duration": 60, "velocity": 105}, {"time": 45842, "pitch": 54, "duration": 60, "velocity": 85}, {"time": 45962, "pitch": 54, "duration": 60, "velocity": 55}, {"time": 46082, "pitch": 35, "duration": 61, "velocity": 110}, {"time": 46082, "pitch": 38, "duration": 61, "velocity": 105}, {"time": 46082, "pitch": 42, "duration": 61, "velocity": 91}, {"time": 46082, "pitch": 54, "duration": 61, "velocity": 75}, {"time": 46203, "pitch": 54, "duration": 60, "velocity": 55}, {"time": 46323, "pitch": 46, "duration": 60, "velocity": 107}, {"time": 46323, "pitch": 54, "duration": 60, "velocity": 85}, {"time": 46444, "pitch": 54, "duration": 60, "velocity": 55}, {"time": 46564, "pitch": 35, "duration": 59, "velocity": 114}, {"time": 46564, "pitch": 42, "duration": 59, "velocity": 107}, {"time": 46564, "pitch": 54, "duration": 59, "velocity": 75}, {"time": 46682, "pitch": 54, "duration": 59, "velocity": 55}, {"time": 46800, "pitch": 42, "duration": 58, "velocity": 64}, {"time": 46800, "pitch": 54, "duration": 58, "velocity": 85}, {"time": 46917, "pitch": 54, "duration": 59, "velocity": 55}, {"time": 47035, "pitch": 35, "duration": 60, "velocity": 105}, {"time": 47035, "pitch": 38, "duration": 60, "velocity": 100}, {"time": 47035, "pitch": 42, "duration": 60, "velocity": 85}, {"time": 47035, "pitch": 54, "duration": 60, "velocity": 75}, {"time": 47156, "pitch": 54, "duration": 60, "velocity": 55}, {"time": 47276, "pitch": 46, "duration": 60, "velocity": 107}, {"time": 47276, "pitch": 54, "duration": 60, "velocity": 85}, {"time": 47396, "pitch": 38, "duration": 61, "velocity": 114}, {"time": 47396, "pitch": 54, "duration": 61, "velocity": 55}, {"time": 47517, "pitch": 35, "duration": 60, "velocity": 127}, {"time": 47517, "pitch": 42, "duration": 60, "velocity": 94}, {"time": 47517, "pitch": 54, "duration": 60, "velocity": 75}, {"time": 47637, "pitch": 54, "duration": 60, "velocity": 55}, {"time": 47758, "pitch": 46, "duration": 60, "velocity": 105}, {"time": 47758, "pitch": 54, "duration": 60, "velocity": 85}, {"time": 47878, "pitch": 54, "duration": 60, "velocity": 55}, {"time": 47998, "pitch": 35, "duration": 61, "velocity": 110}, {"time": 47998, "pitch": 38, "duration": 61, "velocity": 105}, {"time": 47998, "pitch": 42, "duration": 61, "velocity": 91}, {"time": 47998, "pitch": 54, "duration": 61, "velocity": 75}, {"time": 48119, "pitch": 54, "duration": 60, "velocity": 55}, {"time": 48239, "pitch": 46, "duration": 60, "velocity": 107}, {"time": 48239, "pitch": 54, "duration": 60, "velocity": 85}, {"time": 48360, "pitch": 54, "duration": 60, "velocity": 55}, {"time": 48480, "pitch": 35, "duration": 60, "velocity": 114}, {"time": 48480, "pitch": 42, "duration": 60, "velocity": 107}, {"time": 48480, "pitch": 54, "duration": 60, "velocity": 75}, {"time": 48600, "pitch": 54, "duration": 61, "velocity": 55}, {"time": 48721, "pitch": 42, "duration": 60, "velocity": 64}, {"time": 48721, "pitch": 54, "duration": 60, "velocity": 85}, {"time": 48841, "pitch": 54, "duration": 60, "velocity": 55}, {"time": 48962, "pitch": 35, "duration": 60, "velocity": 105}, {"time": 48962, "pitch": 38, "duration": 60, "velocity": 100}, {"time": 48962, "pitch": 42, "duration": 60, "velocity": 85}, {"time": 48962, "pitch": 54, "duration": 60, "velocity": 75}, {"time": 49082, "pitch": 54, "duration": 60, "velocity": 55}, {"time": 49202, "pitch": 46, "duration": 61, "velocity": 107}, {"time": 49202, "pitch": 54, "duration": 61, "velocity": 85}, {"time": 49323, "pitch": 38, "duration": 60, "velocity": 114}, {"time": 49323, "pitch": 54, "duration": 60, "velocity": 55}, {"time": 49443, "pitch": 35, "duration": 60, "velocity": 127}, {"time": 49443, "pitch": 42, "duration": 60, "velocity": 94}, {"time": 49443, "pitch": 54, "duration": 60, "velocity": 75}, {"time": 49564, "pitch": 54, "duration": 60, "velocity": 55}, {"time": 49684, "pitch": 46, "duration": 60, "velocity": 105}, {"time": 49684, "pitch": 54, "duration": 60, "velocity": 85}, {"time": 49804, "pitch": 54, "duration": 61, "velocity": 55}, {"time": 49925, "pitch": 35, "duration": 59, "velocity": 110}, {"time": 49925, "pitch": 38, "duration": 59, "velocity": 105}, {"time": 49925, "pitch": 42, "duration": 59, "velocity": 91}, {"time": 49925, "pitch": 54, "duration": 59, "velocity": 75}, {"time": 50043, "pitch": 54, "duration": 58, "velocity": 55}, {"time": 50160, "pitch": 46, "duration": 59, "velocity": 107}, {"time": 50160, "pitch": 54, "duration": 59, "velocity": 85}, {"time": 50278, "pitch": 54, "duration": 59, "velocity": 55}, {"time": 50396, "pitch": 35, "duration": 60, "velocity": 114}, {"time": 50396, "pitch": 42, "duration": 60, "velocity": 107}, {"time": 50396, "pitch": 54, "duration": 60, "velocity": 75}, {"time": 50516, "pitch": 54, "duration": 61, "velocity": 55}, {"time": 50637, "pitch": 42, "duration": 60, "velocity": 64}, {"time": 50637, "pitch": 54, "duration": 60, "velocity": 85}, {"time": 50757, "pitch": 54, "duration": 60, "velocity": 55}, {"time": 50878, "pitch": 35, "duration": 60, "velocity": 105}, {"time": 50878, "pitch": 38, "duration": 60, "velocity": 100}, {"time": 50878, "pitch": 42, "duration": 60, "velocity": 85}, {"time": 50878, "pitch": 54, "duration": 60, "velocity": 75}, {"time": 50998, "pitch": 54, "duration": 60, "velocity": 55}, {"time": 51118, "pitch": 46, "duration": 61, "velocity": 107}, {"time": 51118, "pitch": 54, "duration": 61, "velocity": 85}, {"time": 51239, "pitch": 38, "duration": 60, "velocity": 114}, {"time": 51239, "pitch": 54, "duration": 60, "velocity": 55}, {"time": 51359, "pitch": 35, "duration": 60, "velocity": 127}, {"time": 51359, "pitch": 42, "duration": 60, "velocity": 94}, {"time": 51359, "pitch": 54, "duration": 60, "velocity": 75}, {"time": 51480, "pitch": 54, "duration": 60, "velocity": 55}, {"time": 51600, "pitch": 46, "duration": 60, "velocity": 105}, {"time": 51600, "pitch": 54, "duration": 60, "velocity": 85}, {"time": 51720, "pitch": 54, "duration": 61, "velocity": 55}, {"time": 51841, "pitch": 35, "duration": 60, "velocity": 110}, {"time": 51841, "pitch": 38, "duration": 60, "velocity": 105}, {"time": 51841, "pitch": 42, "duration": 60, "velocity": 91}, {"time": 51841, "pitch": 54, "duration": 60, "velocity": 75}, {"time": 51961, "pitch": 54, "duration": 60, "velocity": 55}, {"time": 52082, "pitch": 46, "duration": 60, "velocity": 107}, {"time": 52082, "pitch": 54, "duration": 60, "velocity": 85}, {"time": 52202, "pitch": 54, "duration": 60, "velocity": 55}, {"time": 52322, "pitch": 35, "duration": 61, "velocity": 114}, {"time": 52322, "pitch": 42, "duration": 61, "velocity": 107}, {"time": 52322, "pitch": 54, "duration": 61, "velocity": 75}, {"time": 52443, "pitch": 54, "duration": 60, "velocity": 55}, {"time": 52563, "pitch": 42, "duration": 60, "velocity": 64}, {"time": 52563, "pitch": 54, "duration": 60, "velocity": 85}, {"time": 52684, "pitch": 54, "duration": 60, "velocity": 55}, {"time": 52804, "pitch": 35, "duration": 59, "velocity": 105}, {"time": 52804, "pitch": 38, "duration": 59, "velocity": 100}, {"time": 52804, "pitch": 42, "duration": 59, "velocity": 85}, {"time": 52804, "pitch": 54, "duration": 59, "velocity": 75}, {"time": 52922, "pitch": 54, "duration": 59, "velocity": 55}, {"time": 53040, "pitch": 46, "duration": 58, "velocity": 107}, {"time": 53040, "pitch": 54, "duration": 58, "velocity": 85}, {"time": 53157, "pitch": 38, "duration": 59, "velocity": 114}, {"time": 53157, "pitch": 54, "duration": 59, "velocity": 55}, {"time": 53275, "pitch": 35, "duration": 60, "velocity": 127}, {"time": 53275, "pitch": 42, "duration": 60, "velocity": 94}, {"time": 53275, "pitch": 54, "duration": 60, "velocity": 75}, {"time": 53396, "pitch": 54, "duration": 60, "velocity": 55}, {"time": 53516, "pitch": 46, "duration": 60, "velocity": 105}, {"time": 53516, "pitch": 54, "duration": 60, "velocity": 85}, {"time": 53636, "pitch": 54, "duration": 61, "velocity": 55}, {"time": 53757, "pitch": 35, "duration": 60, "velocity": 110}, {"time": 53757, "pitch": 38, "duration": 60, "velocity": 105}, {"time": 53757, "pitch": 42, "duration": 60, "velocity": 91}, {"time": 53757, "pitch": 54, "duration": 60, "velocity": 75}, {"time": 53877, "pitch": 54, "duration": 60, "velocity": 55}, {"time": 53998, "pitch": 46, "duration": 60, "velocity": 107}, {"time": 53998, "pitch": 54, "duration": 60, "velocity": 85}, {"time": 54118, "pitch": 54, "duration": 60, "velocity": 55}, {"time": 54238, "pitch": 35, "duration": 61, "velocity": 114}, {"time": 54238, "pitch": 42, "duration": 61, "velocity": 107}, {"time": 54238, "pitch": 54, "duration": 61, "velocity": 75}, {"time": 54359, "pitch": 54, "duration": 60, "velocity": 55}, {"time": 54479, "pitch": 42, "duration": 60, "velocity": 64}, {"time": 54479, "pitch": 54, "duration": 60, "velocity": 85}, {"time": 54600, "pitch": 54, "duration": 60, "velocity": 55}, {"time": 54720, "pitch": 35, "duration": 60, "velocity": 105}, {"time": 54720, "pitch": 38, "duration": 60, "velocity": 100}, {"time": 54720, "pitch": 42, "duration": 60, "velocity": 85}, {"time": 54720, "pitch": 54, "duration": 60, "velocity": 75}, {"time": 54840, "pitch": 54, "duration": 61, "velocity": 55}, {"time": 54961, "pitch": 46, "duration": 60, "velocity": 107}, {"time": 54961, "pitch": 54, "duration": 60, "velocity": 85}, {"time": 55081, "pitch": 38, "duration": 60, "velocity": 114}, {"time": 55081, "pitch": 54, "duration": 60, "velocity": 55}, {"time": 55202, "pitch": 35, "duration": 60, "velocity": 127}, {"time": 55202, "pitch": 42, "duration": 60, "velocity": 94}, {"time": 55202, "pitch": 54, "duration": 60, "velocity": 75}, {"time": 55322, "pitch": 54, "duration": 60, "velocity": 55}, {"time": 55442, "pitch": 46, "duration": 61, "velocity": 105}, {"time": 55442, "pitch": 54, "duration": 61, "velocity": 85}, {"time": 55563, "pitch": 54, "duration": 60, "velocity": 55}, {"time": 55683, "pitch": 35, "duration": 60, "velocity": 110}, {"time": 55683, "pitch": 38, "duration": 60, "velocity": 105}, {"time": 55683, "pitch": 42, "duration": 60, "velocity": 91}, {"time": 55683, "pitch": 54, "duration": 60, "velocity": 75}, {"time": 55804, "pitch": 54, "duration": 60, "velocity": 55}, {"time": 55924, "pitch": 46, "duration": 60, "velocity": 107}, {"time": 55924, "pitch": 54, "duration": 60, "velocity": 85}, {"time": 56044, "pitch": 54, "duration": 61, "velocity": 55}, {"time": 56165, "pitch": 35, "duration": 59, "velocity": 114}, {"time": 56165, "pitch": 42, "duration": 59, "velocity": 107}, {"time": 56165, "pitch": 54, "duration": 59, "velocity": 75}, {"time": 56282, "pitch": 54, "duration": 59, "velocity": 55}, {"time": 56400, "pitch": 42, "duration": 59, "velocity": 64}, {"time": 56400, "pitch": 54, "duration": 59, "velocity": 85}, {"time": 56518, "pitch": 54, "duration": 59, "velocity": 55}, {"time": 56636, "pitch": 35, "duration": 60, "velocity": 105}, {"time": 56636, "pitch": 38, "duration": 60, "velocity": 100}, {"time": 56636, "pitch": 42, "duration": 60, "velocity": 85}, {"time": 56636, "pitch": 54, "duration": 60, "velocity": 75}, {"time": 56756, "pitch": 54, "duration": 61, "velocity": 55}, {"time": 56877, "pitch": 46, "duration": 60, "velocity": 107}, {"time": 56877, "pitch": 54, "duration": 60, "velocity": 85}, {"time": 56997, "pitch": 38, "duration": 60, "velocity": 114}, {"time": 56997, "pitch": 54, "duration": 60, "velocity": 55}, {"time": 57118, "pitch": 35, "duration": 60, "velocity": 127}, {"time": 57118, "pitch": 42, "duration": 60, "velocity": 94}, {"time": 57118, "pitch": 54, "duration": 60, "velocity": 75}, {"time": 57238, "pitch": 54, "duration": 60, "velocity": 55}, {"time": 57358, "pitch": 46, "duration": 61, "velocity": 105}, {"time": 57358, "pitch": 54, "duration": 61, "velocity": 85}, {"time": 57479, "pitch": 54, "duration": 60, "velocity": 55}, {"time": 57599, "pitch": 35, "duration": 60, "velocity": 110}, {"time": 57599, "pitch": 38, "duration": 60, "velocity": 105}, {"time": 57599, "pitch": 42, "duration": 60, "velocity": 91}, {"time": 57599, "pitch": 54, "duration": 60, "velocity": 75}, {"time": 57720, "pitch": 54, "duration": 60, "velocity": 55}, {"time": 57840, "pitch": 46, "duration": 60, "velocity": 107}, {"time": 57840, "pitch": 54, "duration": 60, "velocity": 85}, {"time": 57960, "pitch": 54, "duration": 61, "velocity": 55}, {"time": 58081, "pitch": 35, "duration": 60, "velocity": 114}, {"time": 58081, "pitch": 42, "duration": 60, "velocity": 107}, {"time": 58081, "pitch": 54, "duration": 60, "velocity": 75}, {"time": 58201, "pitch": 54, "duration": 60, "velocity": 55}, {"time": 58322, "pitch": 42, "duration": 60, "velocity": 64}, {"time": 58322, "pitch": 54, "duration": 60, "velocity": 85}, {"time": 58442, "pitch": 54, "duration": 60, "velocity": 55}, {"time": 58562, "pitch": 35, "duration": 61, "velocity": 105}, {"time": 58562, "pitch": 38, "duration": 61, "velocity": 100}, {"time": 58562, "pitch": 42, "duration": 61, "velocity": 85}, {"time": 58562, "pitch": 54, "duration": 61, "velocity": 75}, {"time": 58683, "pitch": 54, "duration": 60, "velocity": 55}, {"time": 58803, "pitch": 46, "duration": 60, "velocity": 107}, {"time": 58803, "pitch": 54, "duration": 60, "velocity": 85}, {"time": 58924, "pitch": 38, "duration": 60, "velocity": 114}, {"time": 58924, "pitch": 54, "duration": 60, "velocity": 55}, {"time": 59044, "pitch": 35, "duration": 59, "velocity": 127}, {"time": 59044, "pitch": 42, "duration": 59, "velocity": 94}, {"time": 59044, "pitch": 54, "duration": 59, "velocity": 75}, {"time": 59162, "pitch": 54, "duration": 59, "velocity": 55}, {"time": 59280, "pitch": 46, "duration": 58, "velocity": 105}, {"time": 59280, "pitch": 54, "duration": 58, "velocity": 85}, {"time": 59397, "pitch": 54, "duration": 59, "velocity": 55}, {"time": 59515, "pitch": 35, "duration": 60, "velocity": 110}, {"time": 59515, "pitch": 38, "duration": 60, "velocity": 105}, {"time": 59515, "pitch": 42, "duration": 60, "velocity": 91}, {"time": 59515, "pitch": 54, "duration": 60, "velocity": 75}, {"time": 59636, "pitch": 54, "duration": 60, "velocity": 55}, {"time": 59756, "pitch": 46, "duration": 60, "velocity": 107}, {"time": 59756, "pitch": 54, "duration": 60, "velocity": 85}, {"time": 59876, "pitch": 54, "duration": 61, "velocity": 55}, {"time": 59997, "pitch": 35, "duration": 60, "velocity": 114}, {"time": 59997, "pitch": 42, "duration": 60, "velocity": 107}, {"time": 59997, "pitch": 54, "duration": 60, "velocity": 75}, {"time": 60117, "pitch": 54, "duration": 60, "velocity": 55}, {"time": 60238, "pitch": 42, "duration": 60, "velocity": 64}, {"time": 60238, "pitch": 54, "duration": 60, "velocity": 85}, {"time": 60358, "pitch": 54, "duration": 60, "velocity": 55}, {"time": 60478, "pitch": 35, "duration": 61, "velocity": 105}, {"time": 60478, "pitch": 38, "duration": 61, "velocity": 100}, {"time": 60478, "pitch": 42, "duration": 61, "velocity": 85}, {"time": 60478, "pitch": 54, "duration": 61, "velocity": 75}, {"time": 60599, "pitch": 54, "duration": 60, "velocity": 55}, {"time": 60719, "pitch": 46, "duration": 60, "velocity": 107}, {"time": 60719, "pitch": 54, "duration": 60, "velocity": 85}, {"time": 60840, "pitch": 38, "duration": 60, "velocity": 114}, {"time": 60840, "pitch": 54, "duration": 60, "velocity": 55}, {"time": 60960, "pitch": 35, "duration": 60, "velocity": 127}, {"time": 60960, "pitch": 42, "duration": 60, "velocity": 94}, {"time": 60960, "pitch": 54, "duration": 60, "velocity": 75}, {"time": 61080, "pitch": 54, "duration": 61, "velocity": 55}, {"time": 61201, "pitch": 46, "duration": 60, "velocity": 105}, {"time": 61201, "pitch": 54, "duration": 60, "velocity": 85}, {"time": 61321, "pitch": 54, "duration": 60, "velocity": 55}, {"time": 61442, "pitch": 35, "duration": 60, "velocity": 110}, {"time": 61442, "pitch": 38, "duration": 60, "velocity": 105}, {"time": 61442, "pitch": 42, "duration": 60, "velocity": 91}, {"time": 61442, "pitch": 54, "duration": 60, "velocity": 75}, {"time": 61562, "pitch": 54, "duration": 60, "velocity": 55}, {"time": 61682, "pitch": 46, "duration": 61, "velocity": 107}, {"time": 61682, "pitch": 54, "duration": 61, "velocity": 85}, {"time": 61803, "pitch": 54, "duration": 60, "velocity": 55}, {"time": 61923, "pitch": 35, "duration": 60, "velocity": 114}, {"time": 61923, "pitch": 42, "duration": 60, "velocity": 107}, {"time": 61923, "pitch": 54, "duration": 60, "velocity": 75}, {"time": 62044, "pitch": 54, "duration": 60, "velocity": 55}, {"time": 62164, "pitch": 42, "duration": 60, "velocity": 64}, {"time": 62164, "pitch": 54, "duration": 60, "velocity": 85}, {"time": 62284, "pitch": 54, "duration": 61, "velocity": 55}, {"time": 62405, "pitch": 35, "duration": 59, "velocity": 105}, {"time": 62405, "pitch": 38, "duration": 59, "velocity": 100}, {"time": 62405, "pitch": 42, "duration": 59, "velocity": 85}, {"time": 62405, "pitch": 54, "duration": 59, "velocity": 75}, {"time": 62522, "pitch": 54, "duration": 59, "velocity": 55}, {"time": 62640, "pitch": 46, "duration": 59, "velocity": 107}, {"time": 62640, "pitch": 54, "duration": 59, "velocity": 85}, {"time": 62758, "pitch": 38, "duration": 59, "velocity": 114}, {"time": 62758, "pitch": 54, "duration": 59, "velocity": 55}, {"time": 62876, "pitch": 35, "duration": 60, "velocity": 127}, {"time": 62876, "pitch": 42, "duration": 60, "velocity": 94}, {"time": 62876, "pitch": 54, "duration": 60, "velocity": 75}, {"time": 62996, "pitch": 54, "duration": 61, "velocity": 55}, {"time": 63117, "pitch": 46, "duration": 60, "velocity": 105}, {"time": 63117, "pitch": 54, "duration": 60, "velocity": 85}, {"time": 63237, "pitch": 54, "duration": 60, "velocity": 55}, {"time": 63358, "pitch": 35, "duration": 60, "velocity": 110}, {"time": 63358, "pitch": 38, "duration": 60, "velocity": 105}, {"time": 63358, "pitch": 42, "duration": 60, "velocity": 91}, {"time": 63358, "pitch": 54, "duration": 60, "velocity": 75}, {"time": 63478, "pitch": 54, "duration": 60, "velocity": 55}, {"time": 63598, "pitch": 46, "duration": 61, "velocity": 107}, {"time": 63598, "pitch": 54, "duration": 61, "velocity": 85}, {"time": 63719, "pitch": 54, "duration": 60, "velocity": 55}, {"time": 63839, "pitch": 35, "duration": 60, "velocity": 114}, {"time": 63839, "pitch": 42, "duration": 60, "velocity": 107}, {"time": 63839, "pitch": 54, "duration": 60, "velocity": 75}, {"time": 63960, "pitch": 54, "duration": 60, "velocity": 55}, {"time": 64080, "pitch": 42, "duration": 60, "velocity": 64}, {"time": 64080, "pitch": 54, "duration": 60, "velocity": 85}, {"time": 64200, "pitch": 54, "duration": 61, "velocity": 55}, {"time": 64321, "pitch": 35, "duration": 60, "velocity": 105}, {"time": 64321, "pitch": 38, "duration": 60, "velocity": 100}, {"time": 64321, "pitch": 42, "duration": 60, "velocity": 85}, {"time": 64321, "pitch": 54, "duration": 60, "velocity": 75}, {"time": 64441, "pitch": 54, "duration": 60, "velocity": 55}, {"time": 64562, "pitch": 46, "duration": 60, "velocity": 107}, {"time": 64562, "pitch": 54, "duration": 60, "velocity": 85}, {"time": 64682, "pitch": 38, "duration": 60, "velocity": 114}, {"time": 64682, "pitch": 54, "duration": 60, "velocity": 55}, {"time": 64802, "pitch": 35, "duration": 61, "velocity": 127}, {"time": 64802, "pitch": 42, "duration": 61, "velocity": 94}, {"time": 64802, "pitch": 54, "duration": 61, "velocity": 75}, {"time": 64923, "pitch": 54, "duration": 60, "velocity": 55}, {"time": 65043, "pitch": 46, "duration": 60, "velocity": 105}, {"time": 65043, "pitch": 54, "duration": 60, "velocity": 85}, {"time": 65164, "pitch": 54, "duration": 60, "velocity": 55}, {"time": 65284, "pitch": 35, "duration": 59, "velocity": 110}, {"time": 65284, "pitch": 38, "duration": 59, "velocity": 105}, {"time": 65284, "pitch": 42, "duration": 59, "velocity": 91}, {"time": 65284, "pitch": 54, "duration": 59, "velocity": 75}, {"time": 65402, "pitch": 54, "duration": 59, "velocity": 55}, {"time": 65520, "pitch": 46, "duration": 58, "velocity": 107}, {"time": 65520, "pitch": 54, "duration": 58, "velocity": 85}, {"time": 65637, "pitch": 54, "duration": 59, "velocity": 55}, {"time": 65755, "pitch": 35, "duration": 60, "velocity": 114}, {"time": 65755, "pitch": 42, "duration": 60, "velocity": 107}, {"time": 65755, "pitch": 54, "duration": 60, "velocity": 75}, {"time": 65876, "pitch": 54, "duration": 60, "velocity": 55}, {"time": 65996, "pitch": 42, "duration": 60, "velocity": 64}, {"time": 65996, "pitch": 54, "duration": 60, "velocity": 85}, {"time": 66116, "pitch": 54, "duration": 61, "velocity": 55}, {"time": 66237, "pitch": 35, "duration": 60, "velocity": 105}, {"time": 66237, "pitch": 38, "duration": 60, "velocity": 100}, {"time": 66237, "pitch": 42, "duration": 60, "velocity": 85}, {"time": 66237, "pitch": 54, "duration": 60, "velocity": 75}, {"time": 66357, "pitch": 54, "duration": 60, "velocity": 55}, {"time": 66478, "pitch": 46, "duration": 60, "velocity": 107}, {"time": 66478, "pitch": 54, "duration": 60, "velocity": 85}, {"time": 66598, "pitch": 38, "duration": 60, "velocity": 114}, {"time": 66598, "pitch": 54, "duration": 60, "velocity": 55}, {"time": 66718, "pitch": 35, "duration": 61, "velocity": 127}, {"time": 66718, "pitch": 42, "duration": 61, "velocity": 94}, {"time": 66718, "pitch": 54, "duration": 61, "velocity": 75}, {"time": 66839, "pitch": 54, "duration": 60, "velocity": 55}, {"time": 66959, "pitch": 46, "duration": 60, "velocity": 105}, {"time": 66959, "pitch": 54, "duration": 60, "velocity": 85}, {"time": 67080, "pitch": 54, "duration": 60, "velocity": 55}, {"time": 67200, "pitch": 35, "duration": 60, "velocity": 110}, {"time": 67200, "pitch": 38, "duration": 60, "velocity": 105}, {"time": 67200, "pitch": 42, "duration": 60, "velocity": 91}, {"time": 67200, "pitch": 54, "duration": 60, "velocity": 75}, {"time": 67320, "pitch": 54, "duration": 61, "velocity": 55}, {"time": 67441, "pitch": 46, "duration": 60, "velocity": 107}, {"time": 67441, "pitch": 54, "duration": 60, "velocity": 85}, {"time": 67561, "pitch": 54, "duration": 60, "velocity": 55}, {"time": 67682, "pitch": 35, "duration": 60, "velocity": 114}, {"time": 67682, "pitch": 42, "duration": 60, "velocity": 107}, {"time": 67682, "pitch": 54, "duration": 60, "velocity": 75}, {"time": 67802, "pitch": 54, "duration": 60, "velocity": 55}, {"time": 67922, "pitch": 42, "duration": 61, "velocity": 64}, {"time": 67922, "pitch": 54, "duration": 61, "velocity": 85}, {"time": 68043, "pitch": 54, "duration": 60, "velocity": 55}, {"time": 68163, "pitch": 35, "duration": 60, "velocity": 105}, {"time": 68163, "pitch": 38, "duration": 60, "velocity": 100}, {"time": 68163, "pitch": 42, "duration": 60, "velocity": 85}, {"time": 68163, "pitch": 54, "duration": 60, "velocity": 75}, {"time": 68284, "pitch": 54, "duration": 60, "velocity": 55}, {"time": 68404, "pitch": 46, "duration": 60, "velocity": 107}, {"time": 68404, "pitch": 54, "duration": 60, "velocity": 85}, {"time": 68524, "pitch": 38, "duration": 61, "velocity": 114}, {"time": 68524, "pitch": 54, "duration": 61, "velocity": 55}, {"time": 68645, "pitch": 35, "duration": 59, "velocity": 127}, {"time": 68645, "pitch": 42, "duration": 59, "velocity": 94}, {"time": 68645, "pitch": 54, "duration": 59, "velocity": 75}, {"time": 68762, "pitch": 54, "duration": 59, "velocity": 55}, {"time": 68880, "pitch": 46, "duration": 59, "velocity": 105}, {"time": 68880, "pitch": 54, "duration": 59, "velocity": 85}, {"time": 68998, "pitch": 54, "duration": 59, "velocity": 55}, {"time": 69116, "pitch": 35, "duration": 60, "velocity": 110}, {"time": 69116, "pitch": 38, "duration": 60, "velocity": 105}, {"time": 69116, "pitch": 42, "duration": 60, "velocity": 91}, {"time": 69116, "pitch": 54, "duration": 60, "velocity": 75}, {"time": 69236, "pitch": 54, "duration": 61, "velocity": 55}, {"time": 69357, "pitch": 46, "duration": 60, "velocity": 107}, {"time": 69357, "pitch": 54, "duration": 60, "velocity": 85}, {"time": 69477, "pitch": 54, "duration": 60, "velocity": 55}, {"time": 69598, "pitch": 35, "duration": 60, "velocity": 114}, {"time": 69598, "pitch": 42, "duration": 60, "velocity": 107}, {"time": 69598, "pitch": 54, "duration": 60, "velocity": 75}, {"time": 69718, "pitch": 54, "duration": 60, "velocity": 55}, {"time": 69838, "pitch": 42, "duration": 61, "velocity": 64}, {"time": 69838, "pitch": 54, "duration": 61, "velocity": 85}, {"time": 69959, "pitch": 54, "duration": 60, "velocity": 55}, {"time": 70079, "pitch": 35, "duration": 60, "velocity": 105}, {"time": 70079, "pitch": 38, "duration": 60, "velocity": 100}, {"time": 70079, "pitch": 42, "duration": 60, "velocity": 85}, {"time": 70079, "pitch": 54, "duration": 60, "velocity": 75}, {"time": 70200, "pitch": 54, "duration": 60, "velocity": 55}, {"time": 70320, "pitch": 46, "duration": 60, "velocity": 107}, {"time": 70320, "pitch": 54, "duration": 60, "velocity": 85}, {"time": 70440, "pitch": 38, "duration": 61, "velocity": 114}, {"time": 70440, "pitch": 54, "duration": 61, "velocity": 55}, {"time": 70561, "pitch": 35, "duration": 60, "velocity": 127}, {"time": 70561, "pitch": 42, "duration": 60, "velocity": 94}, {"time": 70561, "pitch": 54, "duration": 60, "velocity": 75}, {"time": 70681, "pitch": 54, "duration": 60, "velocity": 55}, {"time": 70802, "pitch": 46, "duration": 60, "velocity": 105}, {"time": 70802, "pitch": 54, "duration": 60, "velocity": 85}, {"time": 70922, "pitch": 54, "duration": 60, "velocity": 55}, {"time": 71042, "pitch": 35, "duration": 61, "velocity": 110}, {"time": 71042, "pitch": 38, "duration": 61, "velocity": 105}, {"time": 71042, "pitch": 42, "duration": 61, "velocity": 91}, {"time": 71042, "pitch": 54, "duration": 61, "velocity": 75}, {"time": 71163, "pitch": 54, "duration": 60, "velocity": 55}, {"time": 71283, "pitch": 46, "duration": 60, "velocity": 107}, {"time": 71283, "pitch": 54, "duration": 60, "velocity": 85}, {"time": 71404, "pitch": 54, "duration": 60, "velocity": 55}, {"time": 71524, "pitch": 35, "duration": 59, "velocity": 114}, {"time": 71524, "pitch": 42, "duration": 59, "velocity": 107}, {"time": 71524, "pitch": 54, "duration": 59, "velocity": 75}, {"time": 71642, "pitch": 54, "duration": 59, "velocity": 55}, {"time": 71760, "pitch": 42, "duration": 58, "velocity": 64}, {"time": 71760, "pitch": 54, "duration": 58, "velocity": 85}, {"time": 71877, "pitch": 54, "duration": 59, "velocity": 55}, {"time": 71995, "pitch": 35, "duration": 60, "velocity": 105}, {"time": 71995, "pitch": 38, "duration": 60, "velocity": 100}, {"time": 71995, "pitch": 42, "duration": 60, "velocity": 85}, {"time": 71995, "pitch": 54, "duration": 60, "velocity": 75}, {"time": 72116, "pitch": 54, "duration": 60, "velocity": 55}, {"time": 72236, "pitch": 46, "duration": 60, "velocity": 107}, {"time": 72236, "pitch": 54, "duration": 60, "velocity": 85}, {"time": 72356, "pitch": 38, "duration": 61, "velocity": 114}, {"time": 72356, "pitch": 54, "duration": 61, "velocity": 55}, {"time": 72477, "pitch": 35, "duration": 60, "velocity": 127}, {"time": 72477, "pitch": 42, "duration": 60, "velocity": 94}, {"time": 72477, "pitch": 54, "duration": 60, "velocity": 75}, {"time": 72597, "pitch": 54, "duration": 60, "velocity": 55}, {"time": 72718, "pitch": 46, "duration": 60, "velocity": 105}, {"time": 72718, "pitch": 54, "duration": 60, "velocity": 85}, {"time": 72838, "pitch": 54, "duration": 60, "velocity": 55}, {"time": 72958, "pitch": 35, "duration": 61, "velocity": 110}, {"time": 72958, "pitch": 38, "duration": 61, "velocity": 105}, {"time": 72958, "pitch": 42, "duration": 61, "velocity": 91}, {"time": 72958, "pitch": 54, "duration": 61, "velocity": 75}, {"time": 73079, "pitch": 54, "duration": 60, "velocity": 55}, {"time": 73199, "pitch": 46, "duration": 60, "velocity": 107}, {"time": 73199, "pitch": 54, "duration": 60, "velocity": 85}, {"time": 73320, "pitch": 54, "duration": 60, "velocity": 55}, {"time": 73440, "pitch": 35, "duration": 60, "velocity": 114}, {"time": 73440, "pitch": 42, "duration": 60, "velocity": 107}, {"time": 73440, "pitch": 54, "duration": 60, "velocity": 75}, {"time": 73560, "pitch": 54, "duration": 61, "velocity": 55}, {"time": 73681, "pitch": 42, "duration": 60, "velocity": 64}, {"time": 73681, "pitch": 54, "duration": 60, "velocity": 85}, {"time": 73801, "pitch": 54, "duration": 60, "velocity": 55}, {"time": 73922, "pitch": 35, "duration": 60, "velocity": 105}, {"time": 73922, "pitch": 38, "duration": 60, "velocity": 100}, {"time": 73922, "pitch": 42, "duration": 60, "velocity": 85}, {"time": 73922, "pitch": 54, "duration": 60, "velocity": 75}, {"time": 74042, "pitch": 54, "duration": 60, "velocity": 55}, {"time": 74162, "pitch": 46, "duration": 61, "velocity": 107}, {"time": 74162, "pitch": 54, "duration": 61, "velocity": 85}, {"time": 74283, "pitch": 38, "duration": 60, "velocity": 114}, {"time": 74283, "pitch": 54, "duration": 60, "velocity": 55}, {"time": 74403, "pitch": 35, "duration": 60, "velocity": 127}, {"time": 74403, "pitch": 42, "duration": 60, "velocity": 94}, {"time": 74403, "pitch": 54, "duration": 60, "velocity": 75}, {"time": 74524, "pitch": 54, "duration": 60, "velocity": 55}, {"time": 74644, "pitch": 46, "duration": 60, "velocity": 105}, {"time": 74644, "pitch": 54, "duration": 60, "velocity": 85}, {"time": 74764, "pitch": 54, "duration": 61, "velocity": 55}, {"time": 74885, "pitch": 35, "duration": 59, "velocity": 110}, {"time": 74885, "pitch": 38, "duration": 59, "velocity": 105}, {"time": 74885, "pitch": 42, "duration": 59, "velocity": 91}, {"time": 74885, "pitch": 54, "duration": 59, "velocity": 75}, {"time": 75002, "pitch": 54, "duration": 59, "velocity": 55}, {"time": 75120, "pitch": 46, "duration": 59, "velocity": 107}, {"time": 75120, "pitch": 54, "duration": 59, "velocity": 85}, {"time": 75238, "pitch": 54, "duration": 59, "velocity": 55}, {"time": 75356, "pitch": 35, "duration": 60, "velocity": 114}, {"time": 75356, "pitch": 42, "duration": 60, "velocity": 107}, {"time": 75356, "pitch": 54, "duration": 60, "velocity": 75}, {"time": 75476, "pitch": 54, "duration": 61, "velocity": 55}, {"time": 75597, "pitch": 42, "duration": 60, "velocity": 64}, {"time": 75597, "pitch": 54, "duration": 60, "velocity": 85}, {"time": 75717, "pitch": 54, "duration": 60, "velocity": 55}, {"time": 75838, "pitch": 35, "duration": 60, "velocity": 105}, {"time": 75838, "pitch": 38, "duration": 60, "velocity": 100}, {"time": 75838, "pitch": 42, "duration": 60, "velocity": 85}, {"time": 75838, "pitch": 54, "duration": 60, "velocity": 75}, {"time": 75958, "pitch": 54, "duration": 60, "velocity": 55}, {"time": 76078, "pitch": 46, "duration": 61, "velocity": 107}, {"time": 76078, "pitch": 54, "duration": 61, "velocity": 85}, {"time": 76199, "pitch": 38, "duration": 60, "velocity": 114}, {"time": 76199, "pitch": 54, "duration": 60, "velocity": 55}, {"time": 76319, "pitch": 35, "duration": 60, "velocity": 127}, {"time": 76319, "pitch": 42, "duration": 60, "velocity": 94}, {"time": 76319, "pitch": 54, "duration": 60, "velocity": 75}, {"time": 76440, "pitch": 54, "duration": 60, "velocity": 55}, {"time": 76560, "pitch": 46, "duration": 60, "velocity": 105}, {"time": 76560, "pitch": 54, "duration": 60, "velocity": 85}, {"time": 76680, "pitch": 54, "duration": 61, "velocity": 55}, {"time": 76801, "pitch": 35, "duration": 60, "velocity": 110}, {"time": 76801, "pitch": 38, "duration": 60, "velocity": 105}, {"time": 76801, "pitch": 42, "duration": 60, "velocity": 91}, {"time": 76801, "pitch": 54, "duration": 60, "velocity": 75}, {"time": 76921, "pitch": 54, "duration": 60, "velocity": 55}, {"time": 77042, "pitch": 46, "duration": 60, "velocity": 107}, {"time": 77042, "pitch": 54, "duration": 60, "velocity": 85}, {"time": 77162, "pitch": 54, "duration": 60, "velocity": 55}, {"time": 77282, "pitch": 35, "duration": 61, "velocity": 114}, {"time": 77282, "pitch": 42, "duration": 61, "velocity": 107}, {"time": 77282, "pitch": 54, "duration": 61, "velocity": 75}, {"time": 77403, "pitch": 54, "duration": 60, "velocity": 55}, {"time": 77523, "pitch": 42, "duration": 60, "velocity": 64}, {"time": 77523, "pitch": 54, "duration": 60, "velocity": 85}, {"time": 77644, "pitch": 54, "duration": 60, "velocity": 55}, {"time": 77764, "pitch": 35, "duration": 59, "velocity": 105}, {"time": 77764, "pitch": 38, "duration": 59, "velocity": 100}, {"time": 77764, "pitch": 42, "duration": 59, "velocity": 85}, {"time": 77764, "pitch": 54, "duration": 59, "velocity": 75}, {"time": 77882, "pitch": 54, "duration": 59, "velocity": 55}, {"time": 78000, "pitch": 46, "duration": 58, "velocity": 107}, {"time": 78000, "pitch": 54, "duration": 58, "velocity": 85}, {"time": 78117, "pitch": 38, "duration": 59, "velocity": 114}, {"time": 78117, "pitch": 54, "duration": 59, "velocity": 55}, {"time": 78235, "pitch": 35, "duration": 60, "velocity": 127}, {"time": 78235, "pitch": 42, "duration": 60, "velocity": 94}, {"time": 78235, "pitch": 54, "duration": 60, "velocity": 75}, {"time": 78356, "pitch": 54, "duration": 60, "velocity": 55}, {"time": 78476, "pitch": 46, "duration": 60, "velocity": 105}, {"time": 78476, "pitch": 54, "duration": 60, "velocity": 85}, {"time": 78596, "pitch": 54, "duration": 61, "velocity": 55}, {"time": 78717, "pitch": 35, "duration": 60, "velocity": 110}, {"time": 78717, "pitch": 38, "duration": 60, "velocity": 105}, {"time": 78717, "pitch": 42, "duration": 60, "velocity": 91}, {"time": 78717, "pitch": 54, "duration": 60, "velocity": 75}, {"time": 78837, "pitch": 54, "duration": 60, "velocity": 55}, {"time": 78958, "pitch": 46, "duration": 60, "velocity": 107}, {"time": 78958, "pitch": 54, "duration": 60, "velocity": 85}, {"time": 79078, "pitch": 54, "duration": 60, "velocity": 55}, {"time": 79198, "pitch": 35, "duration": 61, "velocity": 114}, {"time": 79198, "pitch": 42, "duration": 61, "velocity": 107}, {"time": 79198, "pitch": 54, "duration": 61, "velocity": 75}, {"time": 79319, "pitch": 54, "duration": 60, "velocity": 55}, {"time": 79439, "pitch": 42, "duration": 60, "velocity": 64}, {"time": 79439, "pitch": 54, "duration": 60, "velocity": 85}, {"time": 79560, "pitch": 54, "duration": 60, "velocity": 55}, {"time": 79680, "pitch": 35, "duration": 60, "velocity": 105}, {"time": 79680, "pitch": 38, "duration": 60, "velocity": 100}, {"time": 79680, "pitch": 42, "duration": 60, "velocity": 85}, {"time": 79680, "pitch": 54, "duration": 60, "velocity": 75}, {"time": 79800, "pitch": 54, "duration": 61, "velocity": 55}, {"time": 79921, "pitch": 46, "duration": 60, "velocity": 107}, {"time": 79921, "pitch": 54, "duration": 60, "velocity": 85}, {"time": 80041, "pitch": 38, "duration": 60, "velocity": 114}, {"time": 80041, "pitch": 54, "duration": 60, "velocity": 55}, {"time": 80162, "pitch": 35, "duration": 60, "velocity": 127}, {"time": 80162, "pitch": 42, "duration": 60, "velocity": 94}, {"time": 80162, "pitch": 54, "duration": 60, "velocity": 75}, {"time": 80282, "pitch": 54, "duration": 60, "velocity": 55}, {"time": 80402, "pitch": 46, "duration": 61, "velocity": 105}, {"time": 80402, "pitch": 54, "duration": 61, "velocity": 85}, {"time": 80523, "pitch": 54, "duration": 60, "velocity": 55}, {"time": 80643, "pitch": 35, "duration": 60, "velocity": 110}, {"time": 80643, "pitch": 38, "duration": 60, "velocity": 105}, {"time": 80643, "pitch": 42, "duration": 60, "velocity": 91}, {"time": 80643, "pitch": 54, "duration": 60, "velocity": 75}, {"time": 80764, "pitch": 54, "duration": 60, "velocity": 55}, {"time": 80884, "pitch": 46, "duration": 60, "velocity": 107}, {"time": 80884, "pitch": 54, "duration": 60, "velocity": 85}, {"time": 81004, "pitch": 54, "duration": 61, "velocity": 55}, {"time": 81125, "pitch": 35, "duration": 59, "velocity": 114}, {"time": 81125, "pitch": 42, "duration": 59, "velocity": 107}, {"time": 81125, "pitch": 54, "duration": 59, "velocity": 75}, {"time": 81242, "pitch": 54, "duration": 59, "velocity": 55}, {"time": 81360, "pitch": 42, "duration": 59, "velocity": 64}, {"time": 81360, "pitch": 54, "duration": 59, "velocity": 85}, {"time": 81478, "pitch": 54, "duration": 59, "velocity": 55}, {"time": 81596, "pitch": 35, "duration": 60, "velocity": 105}, {"time": 81596, "pitch": 38, "duration": 60, "velocity": 100}, {"time": 81596, "pitch": 42, "duration": 60, "velocity": 85}, {"time": 81596, "pitch": 54, "duration": 60, "velocity": 75}, {"time": 81716, "pitch": 54, "duration": 61, "velocity": 55}, {"time": 81837, "pitch": 46, "duration": 60, "velocity": 107}, {"time": 81837, "pitch": 54, "duration": 60, "velocity": 85}, {"time": 81957, "pitch": 38, "duration": 60, "velocity": 114}, {"time": 81957, "pitch": 54, "duration": 60, "velocity": 55}, {"time": 82078, "pitch": 35, "duration": 60, "velocity": 127}, {"time": 82078, "pitch": 42, "duration": 60, "velocity": 94}, {"time": 82078, "pitch": 54, "duration": 60, "velocity": 75}, {"time": 82198, "pitch": 54, "duration": 60, "velocity": 55}, {"time": 82318, "pitch": 46, "duration": 61, "velocity": 105}, {"time": 82318, "pitch": 54, "duration": 61, "velocity": 85}, {"time": 82439, "pitch": 54, "duration": 60, "velocity": 55}, {"time": 82559, "pitch": 35, "duration": 60, "velocity": 110}, {"time": 82559, "pitch": 38, "duration": 60, "velocity": 105}, {"time": 82559, "pitch": 42, "duration": 60, "velocity": 91}, {"time": 82559, "pitch": 54, "duration": 60, "velocity": 75}, {"time": 82680, "pitch": 54, "duration": 60, "velocity": 55}, {"time": 82800, "pitch": 46, "duration": 60, "velocity": 107}, {"time": 82800, "pitch": 54, "duration": 60, "velocity": 85}, {"time": 82920, "pitch": 54, "duration": 61, "velocity": 55}, {"time": 83041, "pitch": 35, "duration": 60, "velocity": 114}, {"time": 83041, "pitch": 42, "duration": 60, "velocity": 107}, {"time": 83041, "pitch": 54, "duration": 60, "velocity": 75}, {"time": 83161, "pitch": 54, "duration": 60, "velocity": 55}, {"time": 83282, "pitch": 42, "duration": 60, "velocity": 64}, {"time": 83282, "pitch": 54, "duration": 60, "velocity": 85}, {"time": 83402, "pitch": 54, "duration": 60, "velocity": 55}, {"time": 83522, "pitch": 35, "duration": 61, "velocity": 105}, {"time": 83522, "pitch": 38, "duration": 61, "velocity": 100}, {"time": 83522, "pitch": 42, "duration": 61, "velocity": 85}, {"time": 83522, "pitch": 54, "duration": 61, "velocity": 75}, {"time": 83643, "pitch": 54, "duration": 60, "velocity": 55}, {"time": 83763, "pitch": 46, "duration": 60, "velocity": 107}, {"time": 83763, "pitch": 54, "duration": 60, "velocity": 85}, {"time": 83884, "pitch": 38, "duration": 60, "velocity": 114}, {"time": 83884, "pitch": 54, "duration": 60, "velocity": 55}, {"time": 84004, "pitch": 35, "duration": 59, "velocity": 127}, {"time": 84004, "pitch": 42, "duration": 59, "velocity": 94}, {"time": 84004, "pitch": 54, "duration": 59, "velocity": 75}, {"time": 84122, "pitch": 54, "duration": 59, "velocity": 55}, {"time": 84240, "pitch": 46, "duration": 58, "velocity": 105}, {"time": 84240, "pitch": 54, "duration": 58, "velocity": 85}, {"time": 84357, "pitch": 54, "duration": 59, "velocity": 55}, {"time": 84475, "pitch": 35, "duration": 60, "velocity": 110}, {"time": 84475, "pitch": 38, "duration": 60, "velocity": 105}, {"time": 84475, "pitch": 42, "duration": 60, "velocity": 91}, {"time": 84475, "pitch": 54, "duration": 60, "velocity": 75}, {"time": 84595, "pitch": 54, "duration": 61, "velocity": 55}, {"time": 84716, "pitch": 46, "duration": 60, "velocity": 107}, {"time": 84716, "pitch": 54, "duration": 60, "velocity": 85}, {"time": 84836, "pitch": 54, "duration": 61, "velocity": 55}, {"time": 84957, "pitch": 35, "duration": 60, "velocity": 114}, {"time": 84957, "pitch": 42, "duration": 60, "velocity": 107}, {"time": 84957, "pitch": 54, "duration": 60, "velocity": 75}, {"time": 85077, "pitch": 54, "duration": 60, "velocity": 55}, {"time": 85198, "pitch": 42, "duration": 60, "velocity": 64}, {"time": 85198, "pitch": 54, "duration": 60, "velocity": 85}, {"time": 85318, "pitch": 54, "duration": 60, "velocity": 55}, {"time": 85438, "pitch": 35, "duration": 61, "velocity": 105}, {"time": 85438, "pitch": 38, "duration": 61, "velocity": 100}, {"time": 85438, "pitch": 42, "duration": 61, "velocity": 85}, {"time": 85438, "pitch": 54, "duration": 61, "velocity": 75}, {"time": 85559, "pitch": 54, "duration": 60, "velocity": 55}, {"time": 85679, "pitch": 46, "duration": 60, "velocity": 107}, {"time": 85679, "pitch": 54, "duration": 60, "velocity": 85}, {"time": 85800, "pitch": 38, "duration": 60, "velocity": 114}, {"time": 85800, "pitch": 54, "duration": 60, "velocity": 55}, {"time": 85920, "pitch": 35, "duration": 60, "velocity": 127}, {"time": 85920, "pitch": 42, "duration": 60, "velocity": 94}, {"time": 85920, "pitch": 54, "duration": 60, "velocity": 75}, {"time": 86040, "pitch": 54, "duration": 61, "velocity": 55}, {"time": 86161, "pitch": 46, "duration": 60, "velocity": 105}, {"time": 86161, "pitch": 54, "duration": 60, "velocity": 85}, {"time": 86281, "pitch": 54, "duration": 60, "velocity": 55}, {"time": 86402, "pitch": 35, "duration": 60, "velocity": 110}, {"time": 86402, "pitch": 38, "duration": 60, "velocity": 105}, {"time": 86402, "pitch": 42, "duration": 60, "velocity": 91}, {"time": 86402, "pitch": 54, "duration": 60, "velocity": 75}, {"time": 86522, "pitch": 54, "duration": 60, "velocity": 55}, {"time": 86642, "pitch": 46, "duration": 61, "velocity": 107}, {"time": 86642, "pitch": 54, "duration": 61, "velocity": 85}, {"time": 86763, "pitch": 54, "duration": 60, "velocity": 55}, {"time": 86883, "pitch": 35, "duration": 60, "velocity": 114}, {"time": 86883, "pitch": 42, "duration": 60, "velocity": 107}, {"time": 86883, "pitch": 54, "duration": 60, "velocity": 75}, {"time": 87004, "pitch": 54, "duration": 60, "velocity": 55}, {"time": 87124, "pitch": 42, "duration": 60, "velocity": 64}, {"time": 87124, "pitch": 54, "duration": 60, "velocity": 85}, {"time": 87244, "pitch": 54, "duration": 61, "velocity": 55}, {"time": 87365, "pitch": 35, "duration": 59, "velocity": 105}, {"time": 87365, "pitch": 38, "duration": 59, "velocity": 100}, {"time": 87365, "pitch": 42, "duration": 59, "velocity": 85}, {"time": 87365, "pitch": 54, "duration": 59, "velocity": 75}, {"time": 87482, "pitch": 54, "duration": 59, "velocity": 55}, {"time": 87600, "pitch": 46, "duration": 59, "velocity": 107}, {"time": 87600, "pitch": 54, "duration": 59, "velocity": 85}, {"time": 87718, "pitch": 38, "duration": 59, "velocity": 114}, {"time": 87718, "pitch": 54, "duration": 59, "velocity": 55}, {"time": 87836, "pitch": 35, "duration": 60, "velocity": 127}, {"time": 87836, "pitch": 42, "duration": 60, "velocity": 94}, {"time": 87836, "pitch": 54, "duration": 60, "velocity": 75}, {"time": 87956, "pitch": 54, "duration": 60, "velocity": 55}, {"time": 88077, "pitch": 46, "duration": 60, "velocity": 105}, {"time": 88077, "pitch": 54, "duration": 60, "velocity": 85}, {"time": 88197, "pitch": 54, "duration": 60, "velocity": 55}, {"time": 88318, "pitch": 35, "duration": 60, "velocity": 110}, {"time": 88318, "pitch": 38, "duration": 60, "velocity": 105}, {"time": 88318, "pitch": 42, "duration": 60, "velocity": 91}, {"time": 88318, "pitch": 54, "duration": 60, "velocity": 75}, {"time": 88438, "pitch": 54, "duration": 60, "velocity": 55}, {"time": 88558, "pitch": 46, "duration": 61, "velocity": 107}, {"time": 88558, "pitch": 54, "duration": 61, "velocity": 85}, {"time": 88679, "pitch": 54, "duration": 60, "velocity": 55}, {"time": 88799, "pitch": 35, "duration": 60, "velocity": 114}, {"time": 88799, "pitch": 42, "duration": 60, "velocity": 107}, {"time": 88799, "pitch": 54, "duration": 60, "velocity": 75}, {"time": 88920, "pitch": 54, "duration": 60, "velocity": 55}, {"time": 89040, "pitch": 42, "duration": 60, "velocity": 64}, {"time": 89040, "pitch": 54, "duration": 60, "velocity": 85}, {"time": 89160, "pitch": 54, "duration": 61, "velocity": 55}, {"time": 89281, "pitch": 35, "duration": 60, "velocity": 105}, {"time": 89281, "pitch": 38, "duration": 60, "velocity": 100}, {"time": 89281, "pitch": 42, "duration": 60, "velocity": 85}, {"time": 89281, "pitch": 54, "duration": 60, "velocity": 75}, {"time": 89401, "pitch": 54, "duration": 60, "velocity": 55}, {"time": 89522, "pitch": 46, "duration": 60, "velocity": 107}, {"time": 89522, "pitch": 54, "duration": 60, "velocity": 85}, {"time": 89642, "pitch": 38, "duration": 60, "velocity": 114}, {"time": 89642, "pitch": 54, "duration": 60, "velocity": 55}, {"time": 89762, "pitch": 35, "duration": 61, "velocity": 127}, {"time": 89762, "pitch": 42, "duration": 61, "velocity": 94}, {"time": 89762, "pitch": 54, "duration": 61, "velocity": 75}, {"time": 89883, "pitch": 54, "duration": 60, "velocity": 55}, {"time": 90003, "pitch": 46, "duration": 60, "velocity": 105}, {"time": 90003, "pitch": 54, "duration": 60, "velocity": 85}, {"time": 90124, "pitch": 54, "duration": 60, "velocity": 55}, {"time": 90244, "pitch": 35, "duration": 59, "velocity": 110}, {"time": 90244, "pitch": 38, "duration": 59, "velocity": 105}, {"time": 90244, "pitch": 42, "duration": 59, "velocity": 91}, {"time": 90244, "pitch": 54, "duration": 59, "velocity": 75}, {"time": 90362, "pitch": 54, "duration": 59, "velocity": 55}, {"time": 90480, "pitch": 46, "duration": 58, "velocity": 107}, {"time": 90480, "pitch": 54, "duration": 58, "velocity": 85}, {"time": 90597, "pitch": 54, "duration": 59, "velocity": 55}, {"time": 90715, "pitch": 35, "duration": 60, "velocity": 114}, {"time": 90715, "pitch": 42, "duration": 60, "velocity": 107}, {"time": 90715, "pitch": 54, "duration": 60, "velocity": 75}, {"time": 90835, "pitch": 54, "duration": 61, "velocity": 55}, {"time": 90956, "pitch": 42, "duration": 60, "velocity": 64}, {"time": 90956, "pitch": 54, "duration": 60, "velocity": 85}, {"time": 91076, "pitch": 54, "duration": 60, "velocity": 55}, {"time": 91197, "pitch": 35, "duration": 60, "velocity": 105}, {"time": 91197, "pitch": 38, "duration": 60, "velocity": 100}, {"time": 91197, "pitch": 42, "duration": 60, "velocity": 85}, {"time": 91197, "pitch": 54, "duration": 60, "velocity": 75}, {"time": 91317, "pitch": 54, "duration": 60, "velocity": 55}, {"time": 91437, "pitch": 46, "duration": 61, "velocity": 107}, {"time": 91437, "pitch": 54, "duration": 61, "velocity": 85}, {"time": 91558, "pitch": 38, "duration": 60, "velocity": 114}, {"time": 91558, "pitch": 54, "duration": 60, "velocity": 55}, {"time": 91678, "pitch": 35, "duration": 61, "velocity": 127}, {"time": 91678, "pitch": 42, "duration": 61, "velocity": 94}, {"time": 91678, "pitch": 54, "duration": 61, "velocity": 75}, {"time": 91799, "pitch": 54, "duration": 60, "velocity": 55}, {"time": 91919, "pitch": 46, "duration": 60, "velocity": 105}, {"time": 91919, "pitch": 54, "duration": 60, "velocity": 85}, {"time": 92040, "pitch": 54, "duration": 60, "velocity": 55}, {"time": 92160, "pitch": 35, "duration": 60, "velocity": 110}, {"time": 92160, "pitch": 38, "duration": 60, "velocity": 105}, {"time": 92160, "pitch": 42, "duration": 60, "velocity": 91}, {"time": 92160, "pitch": 54, "duration": 60, "velocity": 75}, {"time": 92280, "pitch": 54, "duration": 61, "velocity": 55}, {"time": 92401, "pitch": 46, "duration": 60, "velocity": 107}, {"time": 92401, "pitch": 54, "duration": 60, "velocity": 85}, {"time": 92521, "pitch": 54, "duration": 60, "velocity": 55}, {"time": 92642, "pitch": 35, "duration": 60, "velocity": 114}, {"time": 92642, "pitch": 42, "duration": 60, "velocity": 107}, {"time": 92642, "pitch": 54, "duration": 60, "velocity": 75}, {"time": 92762, "pitch": 54, "duration": 60, "velocity": 55}, {"time": 92882, "pitch": 42, "duration": 61, "velocity": 64}, {"time": 92882, "pitch": 54, "duration": 61, "velocity": 85}, {"time": 93003, "pitch": 54, "duration": 60, "velocity": 55}, {"time": 93123, "pitch": 35, "duration": 60, "velocity": 105}, {"time": 93123, "pitch": 38, "duration": 60, "velocity": 100}, {"time": 93123, "pitch": 42, "duration": 60, "velocity": 85}, {"time": 93123, "pitch": 54, "duration": 60, "velocity": 75}, {"time": 93244, "pitch": 54, "duration": 60, "velocity": 55}, {"time": 93364, "pitch": 46, "duration": 60, "velocity": 107}, {"time": 93364, "pitch": 54, "duration": 60, "velocity": 85}, {"time": 93484, "pitch": 38, "duration": 61, "velocity": 114}, {"time": 93484, "pitch": 54, "duration": 61, "velocity": 55}, {"time": 93605, "pitch": 35, "duration": 59, "velocity": 127}, {"time": 93605, "pitch": 42, "duration": 59, "velocity": 94}, {"time": 93605, "pitch": 54, "duration": 59, "velocity": 75}, {"time": 93722, "pitch": 54, "duration": 59, "velocity": 55}, {"time": 93840, "pitch": 46, "duration": 59, "velocity": 105}, {"time": 93840, "pitch": 54, "duration": 59, "velocity": 85}, {"time": 93958, "pitch": 54, "duration": 59, "velocity": 55}, {"time": 94076, "pitch": 35, "duration": 60, "velocity": 110}, {"time": 94076, "pitch": 38, "duration": 60, "velocity": 105}, {"time": 94076, "pitch": 42, "duration": 60, "velocity": 91}, {"time": 94076, "pitch": 54, "duration": 60, "velocity": 75}, {"time": 94196, "pitch": 54, "duration": 60, "velocity": 55}, {"time": 94317, "pitch": 46, "duration": 60, "velocity": 107}, {"time": 94317, "pitch": 54, "duration": 60, "velocity": 85}, {"time": 94437, "pitch": 54, "duration": 60, "velocity": 55}, {"time": 94557, "pitch": 35, "duration": 61, "velocity": 114}, {"time": 94557, "pitch": 42, "duration": 61, "velocity": 107}, {"time": 94557, "pitch": 54, "duration": 61, "velocity": 75}, {"time": 94678, "pitch": 54, "duration": 60, "velocity": 55}, {"time": 94798, "pitch": 42, "duration": 60, "velocity": 64}, {"time": 94798, "pitch": 54, "duration": 60, "velocity": 85}, {"time": 94919, "pitch": 54, "duration": 60, "velocity": 55}, {"time": 95039, "pitch": 35, "duration": 60, "velocity": 105}, {"time": 95039, "pitch": 38, "duration": 60, "velocity": 100}, {"time": 95039, "pitch": 42, "duration": 60, "velocity": 85}, {"time": 95039, "pitch": 54, "duration": 60, "velocity": 75}, {"time": 95160, "pitch": 54, "duration": 60, "velocity": 55}, {"time": 95280, "pitch": 46, "duration": 60, "velocity": 107}, {"time": 95280, "pitch": 54, "duration": 60, "velocity": 85}, {"time": 95400, "pitch": 38, "duration": 61, "velocity": 114}, {"time": 95400, "pitch": 54, "duration": 61, "velocity": 55}, {"time": 95521, "pitch": 35, "duration": 60, "velocity": 127}, {"time": 95521, "pitch": 42, "duration": 60, "velocity": 94}, {"time": 95521, "pitch": 54, "duration": 60, "velocity": 75}, {"time": 95641, "pitch": 54, "duration": 60, "velocity": 55}, {"time": 95762, "pitch": 46, "duration": 60, "velocity": 105}, {"time": 95762, "pitch": 54, "duration": 60, "velocity": 85}, {"time": 95882, "pitch": 54, "duration": 60, "velocity": 55}, {"time": 96002, "pitch": 35, "duration": 61, "velocity": 110}, {"time": 96002, "pitch": 38, "duration": 61, "velocity": 105}, {"time": 96002, "pitch": 42, "duration": 61, "velocity": 91}, {"time": 96002, "pitch": 54, "duration": 61, "velocity": 75}, {"time": 96123, "pitch": 54, "duration": 60, "velocity": 55}, {"time": 96243, "pitch": 46, "duration": 60, "velocity": 107}, {"time": 96243, "pitch": 54, "duration": 60, "velocity": 85}, {"time": 96364, "pitch": 54, "duration": 60, "velocity": 55}, {"time": 96484, "pitch": 35, "duration": 59, "velocity": 114}, {"time": 96484, "pitch": 42, "duration": 59, "velocity": 107}, {"time": 96484, "pitch": 54, "duration": 59, "velocity": 75}, {"time": 96602, "pitch": 54, "duration": 59, "velocity": 55}, {"time": 96720, "pitch": 42, "duration": 58, "velocity": 64}, {"time": 96720, "pitch": 54, "duration": 58, "velocity": 85}, {"time": 96837, "pitch": 54, "duration": 59, "velocity": 55}, {"time": 96955, "pitch": 35, "duration": 60, "velocity": 105}, {"time": 96955, "pitch": 38, "duration": 60, "velocity": 100}, {"time": 96955, "pitch": 42, "duration": 60, "velocity": 85}, {"time": 96955, "pitch": 54, "duration": 60, "velocity": 75}, {"time": 97075, "pitch": 54, "duration": 61, "velocity": 55}, {"time": 97196, "pitch": 46, "duration": 60, "velocity": 107}, {"time": 97196, "pitch": 54, "duration": 60, "velocity": 85}, {"time": 97316, "pitch": 38, "duration": 60, "velocity": 114}, {"time": 97316, "pitch": 54, "duration": 60, "velocity": 55}, {"time": 97437, "pitch": 35, "duration": 60, "velocity": 127}, {"time": 97437, "pitch": 42, "duration": 60, "velocity": 94}, {"time": 97437, "pitch": 54, "duration": 60, "velocity": 75}, {"time": 97557, "pitch": 54, "duration": 60, "velocity": 55}, {"time": 97677, "pitch": 46, "duration": 61, "velocity": 105}, {"time": 97677, "pitch": 54, "duration": 61, "velocity": 85}, {"time": 97798, "pitch": 54, "duration": 60, "velocity": 55}, {"time": 97918, "pitch": 35, "duration": 60, "velocity": 110}, {"time": 97918, "pitch": 38, "duration": 60, "velocity": 105}, {"time": 97918, "pitch": 42, "duration": 60, "velocity": 91}, {"time": 97918, "pitch": 54, "duration": 60, "velocity": 75}, {"time": 98039, "pitch": 54, "duration": 60, "velocity": 55}, {"time": 98159, "pitch": 46, "duration": 60, "velocity": 107}, {"time": 98159, "pitch": 54, "duration": 60, "velocity": 85}, {"time": 98279, "pitch": 54, "duration": 61, "velocity": 55}, {"time": 98400, "pitch": 35, "duration": 60, "velocity": 114}, {"time": 98400, "pitch": 42, "duration": 60, "velocity": 107}, {"time": 98400, "pitch": 54, "duration": 60, "velocity": 75}, {"time": 98520, "pitch": 54, "duration": 61, "velocity": 55}, {"time": 98641, "pitch": 42, "duration": 60, "velocity": 64}, {"time": 98641, "pitch": 54, "duration": 60, "velocity": 85}, {"time": 98761, "pitch": 54, "duration": 60, "velocity": 55}, {"time": 98882, "pitch": 35, "duration": 60, "velocity": 105}, {"time": 98882, "pitch": 38, "duration": 60, "velocity": 100}, {"time": 98882, "pitch": 42, "duration": 60, "velocity": 85}, {"time": 98882, "pitch": 54, "duration": 60, "velocity": 75}, {"time": 99002, "pitch": 54, "duration": 60, "velocity": 55}, {"time": 99122, "pitch": 46, "duration": 61, "velocity": 107}, {"time": 99122, "pitch": 54, "duration": 61, "velocity": 85}, {"time": 99243, "pitch": 38, "duration": 60, "velocity": 114}, {"time": 99243, "pitch": 54, "duration": 60, "velocity": 55}, {"time": 99363, "pitch": 35, "duration": 60, "velocity": 127}, {"time": 99363, "pitch": 42, "duration": 60, "velocity": 94}, {"time": 99363, "pitch": 54, "duration": 60, "velocity": 75}, {"time": 99484, "pitch": 54, "duration": 60, "velocity": 55}, {"time": 99604, "pitch": 46, "duration": 60, "velocity": 105}, {"time": 99604, "pitch": 54, "duration": 60, "velocity": 85}, {"time": 99724, "pitch": 54, "duration": 61, "velocity": 55}, {"time": 99845, "pitch": 35, "duration": 59, "velocity": 110}, {"time": 99845, "pitch": 38, "duration": 59, "velocity": 105}, {"time": 99845, "pitch": 42, "duration": 59, "velocity": 91}, {"time": 99845, "pitch": 54, "duration": 59, "velocity": 75}, {"time": 99962, "pitch": 54, "duration": 59, "velocity": 55}, {"time": 100080, "pitch": 46, "duration": 59, "velocity": 107}, {"time": 100080, "pitch": 54, "duration": 59, "velocity": 85}, {"time": 100198, "pitch": 54, "duration": 59, "velocity": 55}, {"time": 100316, "pitch": 35, "duration": 60, "velocity": 114}, {"time": 100316, "pitch": 42, "duration": 60, "velocity": 107}, {"time": 100316, "pitch": 54, "duration": 60, "velocity": 75}, {"time": 100436, "pitch": 54, "duration": 60, "velocity": 55}, {"time": 100557, "pitch": 42, "duration": 60, "velocity": 64}, {"time": 100557, "pitch": 54, "duration": 60, "velocity": 85}, {"time": 100677, "pitch": 54, "duration": 60, "velocity": 55}, {"time": 100797, "pitch": 35, "duration": 61, "velocity": 105}, {"time": 100797, "pitch": 38, "duration": 61, "velocity": 100}, {"time": 100797, "pitch": 42, "duration": 61, "velocity": 85}, {"time": 100797, "pitch": 54, "duration": 61, "velocity": 75}, {"time": 100918, "pitch": 54, "duration": 60, "velocity": 55}, {"time": 101038, "pitch": 46, "duration": 60, "velocity": 107}, {"time": 101038, "pitch": 54, "duration": 60, "velocity": 85}, {"time": 101159, "pitch": 38, "duration": 60, "velocity": 114}, {"time": 101159, "pitch": 54, "duration": 60, "velocity": 55}, {"time": 101279, "pitch": 35, "duration": 60, "velocity": 127}, {"time": 101279, "pitch": 42, "duration": 60, "velocity": 94}, {"time": 101279, "pitch": 54, "duration": 60, "velocity": 75}, {"time": 101399, "pitch": 54, "duration": 61, "velocity": 55}, {"time": 101520, "pitch": 46, "duration": 60, "velocity": 105}, {"time": 101520, "pitch": 54, "duration": 60, "velocity": 85}, {"time": 101640, "pitch": 54, "duration": 60, "velocity": 55}, {"time": 101761, "pitch": 35, "duration": 60, "velocity": 110}, {"time": 101761, "pitch": 38, "duration": 60, "velocity": 105}, {"time": 101761, "pitch": 42, "duration": 60, "velocity": 91}, {"time": 101761, "pitch": 54, "duration": 60, "velocity": 75}, {"time": 101881, "pitch": 54, "duration": 60, "velocity": 55}, {"time": 102002, "pitch": 46, "duration": 60, "velocity": 107}, {"time": 102002, "pitch": 54, "duration": 60, "velocity": 85}, {"time": 102122, "pitch": 54, "duration": 60, "velocity": 55}, {"time": 102242, "pitch": 35, "duration": 61, "velocity": 114}, {"time": 102242, "pitch": 42, "duration": 61, "velocity": 107}, {"time": 102242, "pitch": 54, "duration": 61, "velocity": 75}, {"time": 102363, "pitch": 54, "duration": 60, "velocity": 55}, {"time": 102483, "pitch": 42, "duration": 60, "velocity": 64}, {"time": 102483, "pitch": 54, "duration": 60, "velocity": 85}, {"time": 102604, "pitch": 54, "duration": 60, "velocity": 55}, {"time": 102724, "pitch": 35, "duration": 59, "velocity": 105}, {"time": 102724, "pitch": 38, "duration": 59, "velocity": 100}, {"time": 102724, "pitch": 42, "duration": 59, "velocity": 85}, {"time": 102724, "pitch": 54, "duration": 59, "velocity": 75}, {"time": 102842, "pitch": 54, "duration": 59, "velocity": 55}, {"time": 102960, "pitch": 46, "duration": 58, "velocity": 107}, {"time": 102960, "pitch": 54, "duration": 58, "velocity": 85}, {"time": 103077, "pitch": 38, "duration": 59, "velocity": 114}, {"time": 103077, "pitch": 54, "duration": 59, "velocity": 55}, {"time": 103195, "pitch": 35, "duration": 60, "velocity": 127}, {"time": 103195, "pitch": 42, "duration": 60, "velocity": 94}, {"time": 103195, "pitch": 54, "duration": 60, "velocity": 75}, {"time": 103315, "pitch": 54, "duration": 61, "velocity": 55}, {"time": 103436, "pitch": 46, "duration": 60, "velocity": 105}, {"time": 103436, "pitch": 54, "duration": 60, "velocity": 85}, {"time": 103556, "pitch": 54, "duration": 60, "velocity": 55}, {"time": 103677, "pitch": 35, "duration": 60, "velocity": 110}, {"time": 103677, "pitch": 38, "duration": 60, "velocity": 105}, {"time": 103677, "pitch": 42, "duration": 60, "velocity": 91}, {"time": 103677, "pitch": 54, "duration": 60, "velocity": 75}, {"time": 103797, "pitch": 54, "duration": 60, "velocity": 55}, {"time": 103917, "pitch": 46, "duration": 61, "velocity": 107}, {"time": 103917, "pitch": 54, "duration": 61, "velocity": 85}, {"time": 104038, "pitch": 54, "duration": 60, "velocity": 55}, {"time": 104158, "pitch": 35, "duration": 60, "velocity": 114}, {"time": 104158, "pitch": 42, "duration": 60, "velocity": 107}, {"time": 104158, "pitch": 54, "duration": 60, "velocity": 75}, {"time": 104279, "pitch": 54, "duration": 60, "velocity": 55}, {"time": 104399, "pitch": 42, "duration": 60, "velocity": 64}, {"time": 104399, "pitch": 54, "duration": 60, "velocity": 85}, {"time": 104519, "pitch": 54, "duration": 61, "velocity": 55}, {"time": 104640, "pitch": 35, "duration": 60, "velocity": 105}, {"time": 104640, "pitch": 38, "duration": 60, "velocity": 100}, {"time": 104640, "pitch": 42, "duration": 60, "velocity": 85}, {"time": 104640, "pitch": 54, "duration": 60, "velocity": 75}, {"time": 104760, "pitch": 54, "duration": 60, "velocity": 55}, {"time": 104881, "pitch": 46, "duration": 60, "velocity": 107}, {"time": 104881, "pitch": 54, "duration": 60, "velocity": 85}, {"time": 105001, "pitch": 38, "duration": 60, "velocity": 114}, {"time": 105001, "pitch": 54, "duration": 60, "velocity": 55}, {"time": 105121, "pitch": 35, "duration": 61, "velocity": 127}, {"time": 105121, "pitch": 42, "duration": 61, "velocity": 94}, {"time": 105121, "pitch": 54, "duration": 61, "velocity": 75}, {"time": 105242, "pitch": 54, "duration": 60, "velocity": 55}, {"time": 105362, "pitch": 46, "duration": 61, "velocity": 105}, {"time": 105362, "pitch": 54, "duration": 61, "velocity": 85}, {"time": 105483, "pitch": 54, "duration": 60, "velocity": 55}, {"time": 105603, "pitch": 35, "duration": 60, "velocity": 110}, {"time": 105603, "pitch": 38, "duration": 60, "velocity": 105}, {"time": 105603, "pitch": 42, "duration": 60, "velocity": 91}, {"time": 105603, "pitch": 54, "duration": 60, "velocity": 75}, {"time": 105724, "pitch": 54, "duration": 60, "velocity": 55}, {"time": 105844, "pitch": 46, "duration": 60, "velocity": 107}, {"time": 105844, "pitch": 54, "duration": 60, "velocity": 85}, {"time": 105964, "pitch": 54, "duration": 61, "velocity": 55}, {"time": 106085, "pitch": 35, "duration": 59, "velocity": 114}, {"time": 106085, "pitch": 42, "duration": 59, "velocity": 107}, {"time": 106085, "pitch": 54, "duration": 59, "velocity": 75}, {"time": 106202, "pitch": 54, "duration": 59, "velocity": 55}, {"time": 106320, "pitch": 42, "duration": 59, "velocity": 64}, {"time": 106320, "pitch": 54, "duration": 59, "velocity": 85}, {"time": 106438, "pitch": 54, "duration": 59, "velocity": 55}, {"time": 106556, "pitch": 35, "duration": 60, "velocity": 105}, {"time": 106556, "pitch": 38, "duration": 60, "velocity": 100}, {"time": 106556, "pitch": 42, "duration": 60, "velocity": 85}, {"time": 106556, "pitch": 54, "duration": 60, "velocity": 75}, {"time": 106676, "pitch": 54, "duration": 60, "velocity": 55}, {"time": 106797, "pitch": 46, "duration": 60, "velocity": 107}, {"time": 106797, "pitch": 54, "duration": 60, "velocity": 85}, {"time": 106917, "pitch": 38, "duration": 60, "velocity": 114}, {"time": 106917, "pitch": 54, "duration": 60, "velocity": 55}, {"time": 107037, "pitch": 35, "duration": 61, "velocity": 127}, {"time": 107037, "pitch": 42, "duration": 61, "velocity": 94}, {"time": 107037, "pitch": 54, "duration": 61, "velocity": 75}, {"time": 107158, "pitch": 54, "duration": 60, "velocity": 55}, {"time": 107278, "pitch": 46, "duration": 60, "velocity": 105}, {"time": 107278, "pitch": 54, "duration": 60, "velocity": 85}, {"time": 107399, "pitch": 54, "duration": 60, "velocity": 55}, {"time": 107519, "pitch": 35, "duration": 60, "velocity": 110}, {"time": 107519, "pitch": 38, "duration": 60, "velocity": 105}, {"time": 107519, "pitch": 42, "duration": 60, "velocity": 91}, {"time": 107519, "pitch": 54, "duration": 60, "velocity": 75}, {"time": 107639, "pitch": 54, "duration": 61, "velocity": 55}, {"time": 107760, "pitch": 46, "duration": 60, "velocity": 107}, {"time": 107760, "pitch": 54, "duration": 60, "velocity": 85}, {"time": 107880, "pitch": 54, "duration": 60, "velocity": 55}, {"time": 108001, "pitch": 35, "duration": 60, "velocity": 114}, {"time": 108001, "pitch": 42, "duration": 60, "velocity": 107}, {"time": 108001, "pitch": 54, "duration": 60, "velocity": 75}, {"time": 108121, "pitch": 54, "duration": 60, "velocity": 55}, {"time": 108241, "pitch": 42, "duration": 61, "velocity": 64}, {"time": 108241, "pitch": 54, "duration": 61, "velocity": 85}, {"time": 108362, "pitch": 54, "duration": 60, "velocity": 55}, {"time": 108482, "pitch": 35, "duration": 60, "velocity": 105}, {"time": 108482, "pitch": 38, "duration": 60, "velocity": 100}, {"time": 108482, "pitch": 42, "duration": 60, "velocity": 85}, {"time": 108482, "pitch": 54, "duration": 60, "velocity": 75}, {"time": 108603, "pitch": 54, "duration": 60, "velocity": 55}, {"time": 108723, "pitch": 46, "duration": 60, "velocity": 107}, {"time": 108723, "pitch": 54, "duration": 60, "velocity": 85}, {"time": 108844, "pitch": 38, "duration": 60, "velocity": 114}, {"time": 108844, "pitch": 54, "duration": 60, "velocity": 55}, {"time": 108964, "pitch": 35, "duration": 59, "velocity": 127}, {"time": 108964, "pitch": 42, "duration": 59, "velocity": 94}, {"time": 108964, "pitch": 54, "duration": 59, "velocity": 75}, {"time": 109082, "pitch": 54, "duration": 59, "velocity": 55}, {"time": 109199, "pitch": 46, "duration": 59, "velocity": 105}, {"time": 109199, "pitch": 54, "duration": 59, "velocity": 85}, {"time": 109317, "pitch": 54, "duration": 59, "velocity": 55}, {"time": 109435, "pitch": 35, "duration": 60, "velocity": 110}, {"time": 109435, "pitch": 38, "duration": 60, "velocity": 105}, {"time": 109435, "pitch": 42, "duration": 60, "velocity": 91}, {"time": 109435, "pitch": 54, "duration": 60, "velocity": 75}, {"time": 109555, "pitch": 54, "duration": 61, "velocity": 55}, {"time": 109676, "pitch": 46, "duration": 60, "velocity": 107}, {"time": 109676, "pitch": 54, "duration": 60, "velocity": 85}, {"time": 109796, "pitch": 54, "duration": 60, "velocity": 55}, {"time": 109917, "pitch": 35, "duration": 60, "velocity": 114}, {"time": 109917, "pitch": 42, "duration": 60, "velocity": 107}, {"time": 109917, "pitch": 54, "duration": 60, "velocity": 75}, {"time": 110037, "pitch": 54, "duration": 60, "velocity": 55}, {"time": 110157, "pitch": 42, "duration": 61, "velocity": 64}, {"time": 110157, "pitch": 54, "duration": 61, "velocity": 85}, {"time": 110278, "pitch": 54, "duration": 60, "velocity": 55}, {"time": 110398, "pitch": 35, "duration": 60, "velocity": 105}, {"time": 110398, "pitch": 38, "duration": 60, "velocity": 100}, {"time": 110398, "pitch": 42, "duration": 60, "velocity": 85}, {"time": 110398, "pitch": 54, "duration": 60, "velocity": 75}, {"time": 110519, "pitch": 54, "duration": 60, "velocity": 55}, {"time": 110639, "pitch": 46, "duration": 60, "velocity": 107}, {"time": 110639, "pitch": 54, "duration": 60, "velocity": 85}, {"time": 110759, "pitch": 38, "duration": 61, "velocity": 114}, {"time": 110759, "pitch": 54, "duration": 61, "velocity": 55}, {"time": 110880, "pitch": 35, "duration": 60, "velocity": 127}, {"time": 110880, "pitch": 42, "duration": 60, "velocity": 94}, {"time": 110880, "pitch": 54, "duration": 60, "velocity": 75}, {"time": 111000, "pitch": 54, "duration": 60, "velocity": 55}, {"time": 111121, "pitch": 46, "duration": 60, "velocity": 105}, {"time": 111121, "pitch": 54, "duration": 60, "velocity": 85}, {"time": 111241, "pitch": 54, "duration": 60, "velocity": 55}, {"time": 111361, "pitch": 35, "duration": 61, "velocity": 110}, {"time": 111361, "pitch": 38, "duration": 61, "velocity": 105}, {"time": 111361, "pitch": 42, "duration": 61, "velocity": 91}, {"time": 111361, "pitch": 54, "duration": 61, "velocity": 75}, {"time": 111482, "pitch": 54, "duration": 60, "velocity": 55}, {"time": 111602, "pitch": 46, "duration": 60, "velocity": 107}, {"time": 111602, "pitch": 54, "duration": 60, "velocity": 85}, {"time": 111723, "pitch": 54, "duration": 60, "velocity": 55}, {"time": 111843, "pitch": 35, "duration": 60, "velocity": 114}, {"time": 111843, "pitch": 42, "duration": 60, "velocity": 107}, {"time": 111843, "pitch": 54, "duration": 60, "velocity": 75}, {"time": 111963, "pitch": 54, "duration": 61, "velocity": 55}, {"time": 112084, "pitch": 42, "duration": 60, "velocity": 64}, {"time": 112084, "pitch": 54, "duration": 60, "velocity": 85}, {"time": 112204, "pitch": 54, "duration": 61, "velocity": 55}, {"time": 112325, "pitch": 35, "duration": 59, "velocity": 105}, {"time": 112325, "pitch": 38, "duration": 59, "velocity": 100}, {"time": 112325, "pitch": 42, "duration": 59, "velocity": 85}, {"time": 112325, "pitch": 54, "duration": 59, "velocity": 75}, {"time": 112442, "pitch": 54, "duration": 59, "velocity": 55}, {"time": 112560, "pitch": 46, "duration": 59, "velocity": 107}, {"time": 112560, "pitch": 54, "duration": 59, "velocity": 85}, {"time": 112678, "pitch": 38, "duration": 59, "velocity": 114}, {"time": 112678, "pitch": 54, "duration": 59, "velocity": 55}, {"time": 112796, "pitch": 35, "duration": 60, "velocity": 127}, {"time": 112796, "pitch": 42, "duration": 60, "velocity": 94}, {"time": 112796, "pitch": 54, "duration": 60, "velocity": 75}, {"time": 112916, "pitch": 54, "duration": 60, "velocity": 55}, {"time": 113037, "pitch": 46, "duration": 60, "velocity": 105}, {"time": 113037, "pitch": 54, "duration": 60, "velocity": 85}, {"time": 113157, "pitch": 54, "duration": 60, "velocity": 55}, {"time": 113277, "pitch": 35, "duration": 61, "velocity": 110}, {"time": 113277, "pitch": 38, "duration": 61, "velocity": 105}, {"time": 113277, "pitch": 42, "duration": 61, "velocity": 91}, {"time": 113277, "pitch": 54, "duration": 61, "velocity": 75}, {"time": 113398, "pitch": 54, "duration": 60, "velocity": 55}, {"time": 113518, "pitch": 46, "duration": 60, "velocity": 107}, {"time": 113518, "pitch": 54, "duration": 60, "velocity": 85}, {"time": 113639, "pitch": 54, "duration": 60, "velocity": 55}, {"time": 113759, "pitch": 35, "duration": 60, "velocity": 114}, {"time": 113759, "pitch": 42, "duration": 60, "velocity": 107}, {"time": 113759, "pitch": 54, "duration": 60, "velocity": 75}, {"time": 113879, "pitch": 54, "duration": 61, "velocity": 55}, {"time": 114000, "pitch": 42, "duration": 60, "velocity": 64}, {"time": 114000, "pitch": 54, "duration": 60, "velocity": 85}, {"time": 114120, "pitch": 54, "duration": 60, "velocity": 55}, {"time": 114241, "pitch": 35, "duration": 60, "velocity": 105}, {"time": 114241, "pitch": 38, "duration": 60, "velocity": 100}, {"time": 114241, "pitch": 42, "duration": 60, "velocity": 85}, {"time": 114241, "pitch": 54, "duration": 60, "velocity": 75}, {"time": 114361, "pitch": 54, "duration": 60, "velocity": 55}, {"time": 114481, "pitch": 46, "duration": 61, "velocity": 107}, {"time": 114481, "pitch": 54, "duration": 61, "velocity": 85}, {"time": 114602, "pitch": 38, "duration": 60, "velocity": 114}, {"time": 114602, "pitch": 54, "duration": 60, "velocity": 55}, {"time": 114722, "pitch": 35, "duration": 60, "velocity": 127}, {"time": 114722, "pitch": 42, "duration": 60, "velocity": 94}, {"time": 114722, "pitch": 54, "duration": 60, "velocity": 75}, {"time": 114843, "pitch": 54, "duration": 60, "velocity": 55}, {"time": 114963, "pitch": 46, "duration": 60, "velocity": 105}, {"time": 114963, "pitch": 54, "duration": 60, "velocity": 85}, {"time": 115083, "pitch": 54, "duration": 61, "velocity": 55}, {"time": 115204, "pitch": 35, "duration": 59, "velocity": 110}, {"time": 115204, "pitch": 38, "duration": 59, "velocity": 105}, {"time": 115204, "pitch": 42, "duration": 59, "velocity": 91}, {"time": 115204, "pitch": 54, "duration": 59, "velocity": 75}, {"time": 115322, "pitch": 54, "duration": 59, "velocity": 55}, {"time": 115439, "pitch": 46, "duration": 59, "velocity": 107}, {"time": 115439, "pitch": 54, "duration": 59, "velocity": 85}, {"time": 115557, "pitch": 54, "duration": 59, "velocity": 55}, {"time": 115675, "pitch": 35, "duration": 60, "velocity": 114}, {"time": 115675, "pitch": 42, "duration": 60, "velocity": 107}, {"time": 115675, "pitch": 54, "duration": 60, "velocity": 75}, {"time": 115795, "pitch": 54, "duration": 61, "velocity": 55}, {"time": 115916, "pitch": 42, "duration": 60, "velocity": 64}, {"time": 115916, "pitch": 54, "duration": 60, "velocity": 85}, {"time": 116036, "pitch": 54, "duration": 60, "velocity": 55}, {"time": 116157, "pitch": 35, "duration": 60, "velocity": 105}, {"time": 116157, "pitch": 38, "duration": 60, "velocity": 100}, {"time": 116157, "pitch": 42, "duration": 60, "velocity": 85}, {"time": 116157, "pitch": 54, "duration": 60, "velocity": 75}, {"time": 116277, "pitch": 54, "duration": 60, "velocity": 55}, {"time": 116397, "pitch": 46, "duration": 61, "velocity": 107}, {"time": 116397, "pitch": 54, "duration": 61, "velocity": 85}, {"time": 116518, "pitch": 38, "duration": 60, "velocity": 114}, {"time": 116518, "pitch": 54, "duration": 60, "velocity": 55}, {"time": 116638, "pitch": 35, "duration": 60, "velocity": 127}, {"time": 116638, "pitch": 42, "duration": 60, "velocity": 94}, {"time": 116638, "pitch": 54, "duration": 60, "velocity": 75}, {"time": 116759, "pitch": 54, "duration": 60, "velocity": 55}, {"time": 116879, "pitch": 46, "duration": 60, "velocity": 105}, {"time": 116879, "pitch": 54, "duration": 60, "velocity": 85}, {"time": 116999, "pitch": 54, "duration": 61, "velocity": 55}, {"time": 117120, "pitch": 35, "duration": 60, "velocity": 110}, {"time": 117120, "pitch": 38, "duration": 60, "velocity": 105}, {"time": 117120, "pitch": 42, "duration": 60, "velocity": 91}, {"time": 117120, "pitch": 54, "duration": 60, "velocity": 75}, {"time": 117240, "pitch": 54, "duration": 60, "velocity": 55}, {"time": 117361, "pitch": 46, "duration": 60, "velocity": 107}, {"time": 117361, "pitch": 54, "duration": 60, "velocity": 85}, {"time": 117481, "pitch": 54, "duration": 60, "velocity": 55}, {"time": 117601, "pitch": 35, "duration": 61, "velocity": 114}, {"time": 117601, "pitch": 42, "duration": 61, "velocity": 107}, {"time": 117601, "pitch": 54, "duration": 61, "velocity": 75}, {"time": 117722, "pitch": 54, "duration": 60, "velocity": 55}, {"time": 117842, "pitch": 42, "duration": 60, "velocity": 64}, {"time": 117842, "pitch": 54, "duration": 60, "velocity": 85}, {"time": 117963, "pitch": 54, "duration": 60, "velocity": 55}, {"time": 118083, "pitch": 35, "duration": 60, "velocity": 105}, {"time": 118083, "pitch": 38, "duration": 60, "velocity": 100}, {"time": 118083, "pitch": 42, "duration": 60, "velocity": 85}, {"time": 118083, "pitch": 54, "duration": 60, "velocity": 75}, {"time": 118203, "pitch": 54, "duration": 61, "velocity": 55}, {"time": 118324, "pitch": 46, "duration": 60, "velocity": 107}, {"time": 118324, "pitch": 54, "duration": 60, "velocity": 85}, {"time": 118444, "pitch": 38, "duration": 60, "velocity": 114}, {"time": 118444, "pitch": 54, "duration": 60, "velocity": 55}, {"time": 118565, "pitch": 35, "duration": 59, "velocity": 127}, {"time": 118565, "pitch": 42, "duration": 59, "velocity": 94}, {"time": 118565, "pitch": 54, "duration": 59, "velocity": 75}, {"time": 118682, "pitch": 54, "duration": 59, "velocity": 55}, {"time": 118800, "pitch": 46, "duration": 59, "velocity": 105}, {"time": 118800, "pitch": 54, "duration": 59, "velocity": 85}, {"time": 118918, "pitch": 54, "duration": 59, "velocity": 55}, {"time": 119036, "pitch": 35, "duration": 60, "velocity": 110}, {"time": 119036, "pitch": 38, "duration": 60, "velocity": 105}, {"time": 119036, "pitch": 42, "duration": 60, "velocity": 91}, {"time": 119036, "pitch": 54, "duration": 60, "velocity": 75}, {"time": 119156, "pitch": 54, "duration": 60, "velocity": 55}, {"time": 119277, "pitch": 46, "duration": 60, "velocity": 107}, {"time": 119277, "pitch": 54, "duration": 60, "velocity": 85}, {"time": 119397, "pitch": 54, "duration": 60, "velocity": 55}, {"time": 119517, "pitch": 35, "duration": 61, "velocity": 114}, {"time": 119517, "pitch": 42, "duration": 61, "velocity": 107}, {"time": 119517, "pitch": 54, "duration": 61, "velocity": 75}, {"time": 119638, "pitch": 54, "duration": 60, "velocity": 55}, {"time": 119758, "pitch": 42, "duration": 60, "velocity": 64}, {"time": 119758, "pitch": 54, "duration": 60, "velocity": 85}, {"time": 119879, "pitch": 54, "duration": 60, "velocity": 55}, {"time": 119999, "pitch": 35, "duration": 60, "velocity": 105}, {"time": 119999, "pitch": 38, "duration": 60, "velocity": 100}, {"time": 119999, "pitch": 42, "duration": 60, "velocity": 85}, {"time": 119999, "pitch": 54, "duration": 60, "velocity": 75}, {"time": 120119, "pitch": 54, "duration": 61, "velocity": 55}, {"time": 120240, "pitch": 46, "duration": 60, "velocity": 107}, {"time": 120240, "pitch": 54, "duration": 60, "velocity": 85}, {"time": 120360, "pitch": 38, "duration": 60, "velocity": 114}, {"time": 120360, "pitch": 54, "duration": 60, "velocity": 55}, {"time": 120481, "pitch": 35, "duration": 60, "velocity": 127}, {"time": 120481, "pitch": 42, "duration": 60, "velocity": 94}, {"time": 120481, "pitch": 54, "duration": 60, "velocity": 75}, {"time": 120601, "pitch": 54, "duration": 60, "velocity": 55}, {"time": 120721, "pitch": 46, "duration": 61, "velocity": 105}, {"time": 120721, "pitch": 54, "duration": 61, "velocity": 85}, {"time": 120842, "pitch": 54, "duration": 60, "velocity": 55}, {"time": 120962, "pitch": 35, "duration": 60, "velocity": 110}, {"time": 120962, "pitch": 38, "duration": 60, "velocity": 105}, {"time": 120962, "pitch": 42, "duration": 60, "velocity": 91}, {"time": 120962, "pitch": 54, "duration": 60, "velocity": 75}, {"time": 121083, "pitch": 54, "duration": 60, "velocity": 55}, {"time": 121203, "pitch": 46, "duration": 60, "velocity": 107}, {"time": 121203, "pitch": 54, "duration": 60, "velocity": 85}, {"time": 121323, "pitch": 54, "duration": 61, "velocity": 55}, {"time": 121444, "pitch": 35, "duration": 59, "velocity": 114}, {"time": 121444, "pitch": 42, "duration": 59, "velocity": 107}, {"time": 121444, "pitch": 54, "duration": 59, "velocity": 75}, {"time": 121562, "pitch": 54, "duration": 59, "velocity": 55}, {"time": 121679, "pitch": 42, "duration": 59, "velocity": 64}, {"time": 121679, "pitch": 54, "duration": 59, "velocity": 85}, {"time": 121797, "pitch": 54, "duration": 59, "velocity": 55}, {"time": 121915, "pitch": 35, "duration": 60, "velocity": 105}, {"time": 121915, "pitch": 38, "duration": 60, "velocity": 100}, {"time": 121915, "pitch": 42, "duration": 60, "velocity": 85}, {"time": 121915, "pitch": 54, "duration": 60, "velocity": 75}, {"time": 122035, "pitch": 54, "duration": 61, "velocity": 55}, {"time": 122156, "pitch": 46, "duration": 60, "velocity": 107}, {"time": 122156, "pitch": 54, "duration": 60, "velocity": 85}, {"time": 122276, "pitch": 38, "duration": 60, "velocity": 114}, {"time": 122276, "pitch": 54, "duration": 60, "velocity": 55}, {"time": 122397, "pitch": 35, "duration": 60, "velocity": 127}, {"time": 122397, "pitch": 42, "duration": 60, "velocity": 94}, {"time": 122397, "pitch": 54, "duration": 60, "velocity": 75}, {"time": 122517, "pitch": 54, "duration": 60, "velocity": 55}, {"time": 122637, "pitch": 46, "duration": 61, "velocity": 105}, {"time": 122637, "pitch": 54, "duration": 61, "velocity": 85}, {"time": 122758, "pitch": 54, "duration": 60, "velocity": 55}, {"time": 122878, "pitch": 35, "duration": 60, "velocity": 110}, {"time": 122878, "pitch": 38, "duration": 60, "velocity": 105}, {"time": 122878, "pitch": 42, "duration": 60, "velocity": 91}, {"time": 122878, "pitch": 54, "duration": 60, "velocity": 75}, {"time": 122999, "pitch": 54, "duration": 60, "velocity": 55}, {"time": 123119, "pitch": 46, "duration": 60, "velocity": 107}, {"time": 123119, "pitch": 54, "duration": 60, "velocity": 85}, {"time": 123239, "pitch": 54, "duration": 61, "velocity": 55}, {"time": 123360, "pitch": 35, "duration": 60, "velocity": 114}, {"time": 123360, "pitch": 42, "duration": 60, "velocity": 107}, {"time": 123360, "pitch": 54, "duration": 60, "velocity": 75}, {"time": 123480, "pitch": 54, "duration": 60, "velocity": 55}, {"time": 123601, "pitch": 42, "duration": 60, "velocity": 64}, {"time": 123601, "pitch": 54, "duration": 60, "velocity": 85}, {"time": 123721, "pitch": 54, "duration": 60, "velocity": 55}, {"time": 123841, "pitch": 35, "duration": 61, "velocity": 105}, {"time": 123841, "pitch": 38, "duration": 61, "velocity": 100}, {"time": 123841, "pitch": 42, "duration": 61, "velocity": 85}, {"time": 123841, "pitch": 54, "duration": 61, "velocity": 75}, {"time": 123962, "pitch": 54, "duration": 60, "velocity": 55}, {"time": 124082, "pitch": 46, "duration": 60, "velocity": 107}, {"time": 124082, "pitch": 54, "duration": 60, "velocity": 85}, {"time": 124203, "pitch": 38, "duration": 60, "velocity": 114}, {"time": 124203, "pitch": 54, "duration": 60, "velocity": 55}, {"time": 124323, "pitch": 35, "duration": 60, "velocity": 127}, {"time": 124323, "pitch": 42, "duration": 60, "velocity": 94}, {"time": 124323, "pitch": 54, "duration": 60, "velocity": 75}, {"time": 124443, "pitch": 54, "duration": 61, "velocity": 55}, {"time": 124564, "pitch": 46, "duration": 60, "velocity": 105}, {"time": 124564, "pitch": 54, "duration": 60, "velocity": 85}, {"time": 124684, "pitch": 54, "duration": 60, "velocity": 55}, {"time": 124805, "pitch": 35, "duration": 59, "velocity": 110}, {"time": 124805, "pitch": 38, "duration": 59, "velocity": 105}, {"time": 124805, "pitch": 42, "duration": 59, "velocity": 91}, {"time": 124805, "pitch": 54, "duration": 59, "velocity": 75}, {"time": 124922, "pitch": 54, "duration": 59, "velocity": 55}, {"time": 125040, "pitch": 46, "duration": 59, "velocity": 107}, {"time": 125040, "pitch": 54, "duration": 59, "velocity": 85}, {"time": 125158, "pitch": 54, "duration": 59, "velocity": 55}, {"time": 125276, "pitch": 35, "duration": 60, "velocity": 114}, {"time": 125276, "pitch": 42, "duration": 60, "velocity": 107}, {"time": 125276, "pitch": 54, "duration": 60, "velocity": 75}, {"time": 125396, "pitch": 54, "duration": 60, "velocity": 55}, {"time": 125517, "pitch": 42, "duration": 60, "velocity": 64}, {"time": 125517, "pitch": 54, "duration": 60, "velocity": 85}, {"time": 125637, "pitch": 54, "duration": 60, "velocity": 55}, {"time": 125757, "pitch": 35, "duration": 61, "velocity": 105}, {"time": 125757, "pitch": 38, "duration": 61, "velocity": 100}, {"time": 125757, "pitch": 42, "duration": 61, "velocity": 85}, {"time": 125757, "pitch": 54, "duration": 61, "velocity": 75}, {"time": 125878, "pitch": 54, "duration": 60, "velocity": 55}, {"time": 125998, "pitch": 46, "duration": 60, "velocity": 107}, {"time": 125998, "pitch": 54, "duration": 60, "velocity": 85}, {"time": 126119, "pitch": 38, "duration": 60, "velocity": 114}, {"time": 126119, "pitch": 54, "duration": 60, "velocity": 55}, {"time": 126239, "pitch": 35, "duration": 60, "velocity": 127}, {"time": 126239, "pitch": 42, "duration": 60, "velocity": 94}, {"time": 126239, "pitch": 54, "duration": 60, "velocity": 75}, {"time": 126359, "pitch": 54, "duration": 61, "velocity": 55}, {"time": 126480, "pitch": 46, "duration": 60, "velocity": 105}, {"time": 126480, "pitch": 54, "duration": 60, "velocity": 85}, {"time": 126600, "pitch": 54, "duration": 60, "velocity": 55}, {"time": 126721, "pitch": 35, "duration": 60, "velocity": 110}, {"time": 126721, "pitch": 38, "duration": 60, "velocity": 105}, {"time": 126721, "pitch": 42, "duration": 60, "velocity": 91}, {"time": 126721, "pitch": 54, "duration": 60, "velocity": 75}, {"time": 126841, "pitch": 54, "duration": 60, "velocity": 55}, {"time": 126961, "pitch": 46, "duration": 61, "velocity": 107}, {"time": 126961, "pitch": 54, "duration": 61, "velocity": 85}, {"time": 127082, "pitch": 54, "duration": 60, "velocity": 55}, {"time": 127202, "pitch": 35, "duration": 60, "velocity": 114}, {"time": 127202, "pitch": 42, "duration": 60, "velocity": 107}, {"time": 127202, "pitch": 54, "duration": 60, "velocity": 75}, {"time": 127323, "pitch": 54, "duration": 60, "velocity": 55}, {"time": 127443, "pitch": 42, "duration": 60, "velocity": 64}, {"time": 127443, "pitch": 54, "duration": 60, "velocity": 85}, {"time": 127563, "pitch": 54, "duration": 61, "velocity": 55}, {"time": 127684, "pitch": 35, "duration": 59, "velocity": 105}, {"time": 127684, "pitch": 38, "duration": 59, "velocity": 100}, {"time": 127684, "pitch": 42, "duration": 59, "velocity": 85}, {"time": 127684, "pitch": 54, "duration": 59, "velocity": 75}, {"time": 127802, "pitch": 54, "duration": 59, "velocity": 55}, {"time": 127919, "pitch": 46, "duration": 59, "velocity": 107}, {"time": 127919, "pitch": 54, "duration": 59, "velocity": 85}, {"time": 128037, "pitch": 38, "duration": 59, "velocity": 114}, {"time": 128037, "pitch": 54, "duration": 59, "velocity": 55}, {"time": 128155, "pitch": 35, "duration": 60, "velocity": 127}, {"time": 128155, "pitch": 42, "duration": 60, "velocity": 94}, {"time": 128155, "pitch": 54, "duration": 60, "velocity": 75}, {"time": 128275, "pitch": 54, "duration": 61, "velocity": 55}, {"time": 128396, "pitch": 46, "duration": 60, "velocity": 105}, {"time": 128396, "pitch": 54, "duration": 60, "velocity": 85}, {"time": 128516, "pitch": 54, "duration": 60, "velocity": 55}, {"time": 128637, "pitch": 35, "duration": 60, "velocity": 110}, {"time": 128637, "pitch": 38, "duration": 60, "velocity": 105}, {"time": 128637, "pitch": 42, "duration": 60, "velocity": 91}, {"time": 128637, "pitch": 54, "duration": 60, "velocity": 75}, {"time": 128757, "pitch": 54, "duration": 60, "velocity": 55}, {"time": 128877, "pitch": 46, "duration": 61, "velocity": 107}, {"time": 128877, "pitch": 54, "duration": 61, "velocity": 85}, {"time": 128998, "pitch": 54, "duration": 60, "velocity": 55}, {"time": 129118, "pitch": 35, "duration": 60, "velocity": 114}, {"time": 129118, "pitch": 42, "duration": 60, "velocity": 107}, {"time": 129118, "pitch": 54, "duration": 60, "velocity": 75}, {"time": 129239, "pitch": 54, "duration": 60, "velocity": 55}, {"time": 129359, "pitch": 42, "duration": 60, "velocity": 64}, {"time": 129359, "pitch": 54, "duration": 60, "velocity": 85}, {"time": 129479, "pitch": 54, "duration": 61, "velocity": 55}, {"time": 129600, "pitch": 35, "duration": 60, "velocity": 105}, {"time": 129600, "pitch": 38, "duration": 60, "velocity": 100}, {"time": 129600, "pitch": 42, "duration": 60, "velocity": 85}, {"time": 129600, "pitch": 54, "duration": 60, "velocity": 75}, {"time": 129720, "pitch": 54, "duration": 60, "velocity": 55}, {"time": 129841, "pitch": 46, "duration": 60, "velocity": 107}, {"time": 129841, "pitch": 54, "duration": 60, "velocity": 85}, {"time": 129961, "pitch": 38, "duration": 60, "velocity": 114}, {"time": 129961, "pitch": 54, "duration": 60, "velocity": 55}, {"time": 130081, "pitch": 35, "duration": 61, "velocity": 127}, {"time": 130081, "pitch": 42, "duration": 61, "velocity": 94}, {"time": 130081, "pitch": 54, "duration": 61, "velocity": 75}, {"time": 130202, "pitch": 54, "duration": 60, "velocity": 55}, {"time": 130322, "pitch": 46, "duration": 60, "velocity": 105}, {"time": 130322, "pitch": 54, "duration": 60, "velocity": 85}, {"time": 130443, "pitch": 54, "duration": 60, "velocity": 55}, {"time": 130563, "pitch": 35, "duration": 60, "velocity": 110}, {"time": 130563, "pitch": 38, "duration": 60, "velocity": 105}, {"time": 130563, "pitch": 42, "duration": 60, "velocity": 91}, {"time": 130563, "pitch": 54, "duration": 60, "velocity": 75}, {"time": 130683, "pitch": 54, "duration": 61, "velocity": 55}, {"time": 130804, "pitch": 46, "duration": 60, "velocity": 107}, {"time": 130804, "pitch": 54, "duration": 60, "velocity": 85}, {"time": 130924, "pitch": 54, "duration": 60, "velocity": 55}, {"time": 131045, "pitch": 35, "duration": 59, "velocity": 114}, {"time": 131045, "pitch": 42, "duration": 59, "velocity": 107}, {"time": 131045, "pitch": 54, "duration": 59, "velocity": 75}, {"time": 131162, "pitch": 54, "duration": 59, "velocity": 55}, {"time": 131280, "pitch": 42, "duration": 59, "velocity": 64}, {"time": 131280, "pitch": 54, "duration": 59, "velocity": 85}, {"time": 131398, "pitch": 54, "duration": 59, "velocity": 55}, {"time": 131516, "pitch": 35, "duration": 60, "velocity": 105}, {"time": 131516, "pitch": 38, "duration": 60, "velocity": 100}, {"time": 131516, "pitch": 42, "duration": 60, "velocity": 85}, {"time": 131516, "pitch": 54, "duration": 60, "velocity": 75}, {"time": 131636, "pitch": 54, "duration": 60, "velocity": 55}, {"time": 131757, "pitch": 46, "duration": 60, "velocity": 107}, {"time": 131757, "pitch": 54, "duration": 60, "velocity": 85}, {"time": 131877, "pitch": 38, "duration": 60, "velocity": 114}, {"time": 131877, "pitch": 54, "duration": 60, "velocity": 55}, {"time": 131997, "pitch": 35, "duration": 61, "velocity": 127}, {"time": 131997, "pitch": 42, "duration": 61, "velocity": 94}, {"time": 131997, "pitch": 54, "duration": 61, "velocity": 75}, {"time": 132118, "pitch": 54, "duration": 60, "velocity": 55}, {"time": 132238, "pitch": 46, "duration": 60, "velocity": 105}, {"time": 132238, "pitch": 54, "duration": 60, "velocity": 85}, {"time": 132359, "pitch": 54, "duration": 60, "velocity": 55}, {"time": 132479, "pitch": 35, "duration": 60, "velocity": 110}, {"time": 132479, "pitch": 38, "duration": 60, "velocity": 105}, {"time": 132479, "pitch": 42, "duration": 60, "velocity": 91}, {"time": 132479, "pitch": 54, "duration": 60, "velocity": 75}, {"time": 132599, "pitch": 54, "duration": 61, "velocity": 55}, {"time": 132720, "pitch": 46, "duration": 60, "velocity": 107}, {"time": 132720, "pitch": 54, "duration": 60, "velocity": 85}, {"time": 132840, "pitch": 54, "duration": 60, "velocity": 55}, {"time": 132961, "pitch": 35, "duration": 60, "velocity": 114}, {"time": 132961, "pitch": 42, "duration": 60, "velocity": 107}, {"time": 132961, "pitch": 54, "duration": 60, "velocity": 75}, {"time": 133081, "pitch": 54, "duration": 60, "velocity": 55}, {"time": 133201, "pitch": 42, "duration": 61, "velocity": 64}, {"time": 133201, "pitch": 54, "duration": 61, "velocity": 85}, {"time": 133322, "pitch": 54, "duration": 60, "velocity": 55}, {"time": 133442, "pitch": 35, "duration": 60, "velocity": 105}, {"time": 133442, "pitch": 38, "duration": 60, "velocity": 100}, {"time": 133442, "pitch": 42, "duration": 60, "velocity": 85}, {"time": 133442, "pitch": 54, "duration": 60, "velocity": 75}, {"time": 133563, "pitch": 54, "duration": 60, "velocity": 55}, {"time": 133683, "pitch": 46, "duration": 60, "velocity": 107}, {"time": 133683, "pitch": 54, "duration": 60, "velocity": 85}, {"time": 133803, "pitch": 38, "duration": 61, "velocity": 114}, {"time": 133803, "pitch": 54, "duration": 61, "velocity": 55}, {"time": 133924, "pitch": 35, "duration": 59, "velocity": 127}, {"time": 133924, "pitch": 42, "duration": 59, "velocity": 94}, {"time": 133924, "pitch": 54, "duration": 59, "velocity": 75}, {"time": 134042, "pitch": 54, "duration": 59, "velocity": 55}, {"time": 134159, "pitch": 46, "duration": 59, "velocity": 105}, {"time": 134159, "pitch": 54, "duration": 59, "velocity": 85}, {"time": 134277, "pitch": 54, "duration": 59, "velocity": 55}, {"time": 134395, "pitch": 35, "duration": 60, "velocity": 110}, {"time": 134395, "pitch": 38, "duration": 60, "velocity": 105}, {"time": 134395, "pitch": 42, "duration": 60, "velocity": 91}, {"time": 134395, "pitch": 54, "duration": 60, "velocity": 75}, {"time": 134515, "pitch": 54, "duration": 61, "velocity": 55}, {"time": 134636, "pitch": 46, "duration": 60, "velocity": 107}, {"time": 134636, "pitch": 54, "duration": 60, "velocity": 85}, {"time": 134756, "pitch": 54, "duration": 60, "velocity": 55}, {"time": 134877, "pitch": 35, "duration": 60, "velocity": 114}, {"time": 134877, "pitch": 42, "duration": 60, "velocity": 107}, {"time": 134877, "pitch": 54, "duration": 60, "velocity": 75}, {"time": 134997, "pitch": 54, "duration": 60, "velocity": 55}, {"time": 135117, "pitch": 42, "duration": 61, "velocity": 64}, {"time": 135117, "pitch": 54, "duration": 61, "velocity": 85}, {"time": 135238, "pitch": 54, "duration": 60, "velocity": 55}, {"time": 135358, "pitch": 35, "duration": 60, "velocity": 105}, {"time": 135358, "pitch": 38, "duration": 60, "velocity": 100}, {"time": 135358, "pitch": 42, "duration": 60, "velocity": 85}, {"time": 135358, "pitch": 54, "duration": 60, "velocity": 75}, {"time": 135479, "pitch": 54, "duration": 60, "velocity": 55}, {"time": 135599, "pitch": 46, "duration": 60, "velocity": 107}, {"time": 135599, "pitch": 54, "duration": 60, "velocity": 85}, {"time": 135719, "pitch": 38, "duration": 61, "velocity": 114}, {"time": 135719, "pitch": 54, "duration": 61, "velocity": 55}, {"time": 135840, "pitch": 35, "duration": 60, "velocity": 127}, {"time": 135840, "pitch": 42, "duration": 60, "velocity": 94}, {"time": 135840, "pitch": 54, "duration": 60, "velocity": 75}, {"time": 135960, "pitch": 54, "duration": 60, "velocity": 55}, {"time": 136081, "pitch": 46, "duration": 60, "velocity": 105}, {"time": 136081, "pitch": 54, "duration": 60, "velocity": 85}, {"time": 136201, "pitch": 54, "duration": 60, "velocity": 55}, {"time": 136321, "pitch": 35, "duration": 61, "velocity": 110}, {"time": 136321, "pitch": 38, "duration": 61, "velocity": 105}, {"time": 136321, "pitch": 42, "duration": 61, "velocity": 91}, {"time": 136321, "pitch": 54, "duration": 61, "velocity": 75}, {"time": 136442, "pitch": 54, "duration": 60, "velocity": 55}, {"time": 136562, "pitch": 46, "duration": 60, "velocity": 107}, {"time": 136562, "pitch": 54, "duration": 60, "velocity": 85}, {"time": 136683, "pitch": 54, "duration": 60, "velocity": 55}, {"time": 136803, "pitch": 35, "duration": 60, "velocity": 114}, {"time": 136803, "pitch": 42, "duration": 60, "velocity": 107}, {"time": 136803, "pitch": 54, "duration": 60, "velocity": 75}, {"time": 136923, "pitch": 54, "duration": 61, "velocity": 55}, {"time": 137044, "pitch": 42, "duration": 60, "velocity": 64}, {"time": 137044, "pitch": 54, "duration": 60, "velocity": 85}, {"time": 137164, "pitch": 54, "duration": 60, "velocity": 55}, {"time": 137285, "pitch": 35, "duration": 58, "velocity": 105}, {"time": 137285, "pitch": 38, "duration": 58, "velocity": 100}, {"time": 137285, "pitch": 42, "duration": 58, "velocity": 85}, {"time": 137285, "pitch": 54, "duration": 58, "velocity": 75}, {"time": 137402, "pitch": 54, "duration": 59, "velocity": 55}, {"time": 137520, "pitch": 46, "duration": 59, "velocity": 107}, {"time": 137520, "pitch": 54, "duration": 59, "velocity": 85}, {"time": 137638, "pitch": 38, "duration": 59, "velocity": 114}, {"time": 137638, "pitch": 54, "duration": 59, "velocity": 55}, {"time": 137756, "pitch": 35, "duration": 60, "velocity": 127}, {"time": 137756, "pitch": 42, "duration": 60, "velocity": 94}, {"time": 137756, "pitch": 54, "duration": 60, "velocity": 75}, {"time": 137876, "pitch": 54, "duration": 60, "velocity": 55}, {"time": 137997, "pitch": 46, "duration": 60, "velocity": 105}, {"time": 137997, "pitch": 54, "duration": 60, "velocity": 85}, {"time": 138117, "pitch": 54, "duration": 60, "velocity": 55}, {"time": 138237, "pitch": 35, "duration": 61, "velocity": 110}, {"time": 138237, "pitch": 38, "duration": 61, "velocity": 105}, {"time": 138237, "pitch": 42, "duration": 61, "velocity": 91}, {"time": 138237, "pitch": 54, "duration": 61, "velocity": 75}, {"time": 138358, "pitch": 54, "duration": 60, "velocity": 55}, {"time": 138478, "pitch": 46, "duration": 60, "velocity": 107}, {"time": 138478, "pitch": 54, "duration": 60, "velocity": 85}, {"time": 138599, "pitch": 54, "duration": 60, "velocity": 55}, {"time": 138719, "pitch": 35, "duration": 60, "velocity": 114}, {"time": 138719, "pitch": 42, "duration": 60, "velocity": 107}, {"time": 138719, "pitch": 54, "duration": 60, "velocity": 75}, {"time": 138839, "pitch": 54, "duration": 61, "velocity": 55}, {"time": 138960, "pitch": 42, "duration": 60, "velocity": 64}, {"time": 138960, "pitch": 54, "duration": 60, "velocity": 85}, {"time": 139080, "pitch": 54, "duration": 60, "velocity": 55}, {"time": 139201, "pitch": 35, "duration": 60, "velocity": 105}, {"time": 139201, "pitch": 38, "duration": 60, "velocity": 100}, {"time": 139201, "pitch": 42, "duration": 60, "velocity": 85}, {"time": 139201, "pitch": 54, "duration": 60, "velocity": 75}, {"time": 139321, "pitch": 54, "duration": 60, "velocity": 55}, {"time": 139441, "pitch": 46, "duration": 61, "velocity": 107}, {"time": 139441, "pitch": 54, "duration": 61, "velocity": 85}, {"time": 139562, "pitch": 38, "duration": 60, "velocity": 114}, {"time": 139562, "pitch": 54, "duration": 60, "velocity": 55}, {"time": 139682, "pitch": 35, "duration": 60, "velocity": 127}, {"time": 139682, "pitch": 42, "duration": 60, "velocity": 94}, {"time": 139682, "pitch": 54, "duration": 60, "velocity": 75}, {"time": 139803, "pitch": 54, "duration": 60, "velocity": 55}, {"time": 139923, "pitch": 46, "duration": 60, "velocity": 105}, {"time": 139923, "pitch": 54, "duration": 60, "velocity": 85}, {"time": 140043, "pitch": 54, "duration": 61, "velocity": 55}, {"time": 140164, "pitch": 35, "duration": 59, "velocity": 110}, {"time": 140164, "pitch": 38, "duration": 59, "velocity": 105}, {"time": 140164, "pitch": 42, "duration": 59, "velocity": 91}, {"time": 140164, "pitch": 54, "duration": 59, "velocity": 75}, {"time": 140282, "pitch": 54, "duration": 59, "velocity": 55}, {"time": 140399, "pitch": 46, "duration": 59, "velocity": 107}, {"time": 140399, "pitch": 54, "duration": 59, "velocity": 85}, {"time": 140517, "pitch": 54, "duration": 59, "velocity": 55}, {"time": 140635, "pitch": 35, "duration": 60, "velocity": 114}, {"time": 140635, "pitch": 42, "duration": 60, "velocity": 107}, {"time": 140635, "pitch": 54, "duration": 60, "velocity": 75}, {"time": 140755, "pitch": 54, "duration": 61, "velocity": 55}, {"time": 140876, "pitch": 42, "duration": 60, "velocity": 64}, {"time": 140876, "pitch": 54, "duration": 60, "velocity": 85}, {"time": 140996, "pitch": 54, "duration": 60, "velocity": 55}, {"time": 141117, "pitch": 35, "duration": 60, "velocity": 105}, {"time": 141117, "pitch": 38, "duration": 60, "velocity": 100}, {"time": 141117, "pitch": 42, "duration": 60, "velocity": 85}, {"time": 141117, "pitch": 54, "duration": 60, "velocity": 75}, {"time": 141237, "pitch": 54, "duration": 60, "velocity": 55}, {"time": 141357, "pitch": 46, "duration": 61, "velocity": 107}, {"time": 141357, "pitch": 54, "duration": 61, "velocity": 85}, {"time": 141478, "pitch": 38, "duration": 60, "velocity": 114}, {"time": 141478, "pitch": 54, "duration": 60, "velocity": 55}, {"time": 141598, "pitch": 35, "duration": 60, "velocity": 127}, {"time": 141598, "pitch": 42, "duration": 60, "velocity": 94}, {"time": 141598, "pitch": 54, "duration": 60, "velocity": 75}, {"time": 141719, "pitch": 54, "duration": 60, "velocity": 55}, {"time": 141839, "pitch": 46, "duration": 60, "velocity": 105}, {"time": 141839, "pitch": 54, "duration": 60, "velocity": 85}, {"time": 141959, "pitch": 54, "duration": 61, "velocity": 55}, {"time": 142080, "pitch": 35, "duration": 60, "velocity": 110}, {"time": 142080, "pitch": 38, "duration": 60, "velocity": 105}, {"time": 142080, "pitch": 42, "duration": 60, "velocity": 91}, {"time": 142080, "pitch": 54, "duration": 60, "velocity": 75}, {"time": 142200, "pitch": 54, "duration": 60, "velocity": 55}, {"time": 142321, "pitch": 46, "duration": 60, "velocity": 107}, {"time": 142321, "pitch": 54, "duration": 60, "velocity": 85}, {"time": 142441, "pitch": 54, "duration": 60, "velocity": 55}, {"time": 142561, "pitch": 35, "duration": 61, "velocity": 114}, {"time": 142561, "pitch": 42, "duration": 61, "velocity": 107}, {"time": 142561, "pitch": 54, "duration": 61, "velocity": 75}, {"time": 142682, "pitch": 54, "duration": 60, "velocity": 55}, {"time": 142802, "pitch": 42, "duration": 60, "velocity": 64}, {"time": 142802, "pitch": 54, "duration": 60, "velocity": 85}, {"time": 142923, "pitch": 54, "duration": 60, "velocity": 55}, {"time": 143043, "pitch": 35, "duration": 60, "velocity": 105}, {"time": 143043, "pitch": 38, "duration": 60, "velocity": 100}, {"time": 143043, "pitch": 42, "duration": 60, "velocity": 85}, {"time": 143043, "pitch": 54, "duration": 60, "velocity": 75}, {"time": 143163, "pitch": 54, "duration": 61, "velocity": 55}, {"time": 143284, "pitch": 46, "duration": 60, "velocity": 107}, {"time": 143284, "pitch": 54, "duration": 60, "velocity": 85}, {"time": 143404, "pitch": 38, "duration": 60, "velocity": 114}, {"time": 143404, "pitch": 54, "duration": 60, "velocity": 55}, {"time": 143525, "pitch": 35, "duration": 58, "velocity": 127}, {"time": 143525, "pitch": 42, "duration": 58, "velocity": 94}, {"time": 143525, "pitch": 54, "duration": 58, "velocity": 75}, {"time": 143642, "pitch": 54, "duration": 59, "velocity": 55}, {"time": 143760, "pitch": 46, "duration": 59, "velocity": 105}, {"time": 143760, "pitch": 54, "duration": 59, "velocity": 85}, {"time": 143878, "pitch": 54, "duration": 59, "velocity": 55}, {"time": 143996, "pitch": 35, "duration": 60, "velocity": 110}, {"time": 143996, "pitch": 38, "duration": 60, "velocity": 105}, {"time": 143996, "pitch": 42, "duration": 60, "velocity": 91}, {"time": 143996, "pitch": 54, "duration": 60, "velocity": 75}, {"time": 144116, "pitch": 54, "duration": 60, "velocity": 55}, {"time": 144237, "pitch": 46, "duration": 60, "velocity": 107}, {"time": 144237, "pitch": 54, "duration": 60, "velocity": 85}, {"time": 144357, "pitch": 54, "duration": 60, "velocity": 55}, {"time": 144477, "pitch": 35, "duration": 61, "velocity": 114}, {"time": 144477, "pitch": 42, "duration": 61, "velocity": 107}, {"time": 144477, "pitch": 54, "duration": 61, "velocity": 75}, {"time": 144598, "pitch": 54, "duration": 60, "velocity": 55}, {"time": 144718, "pitch": 42, "duration": 60, "velocity": 64}, {"time": 144718, "pitch": 54, "duration": 60, "velocity": 85}, {"time": 144839, "pitch": 54, "duration": 60, "velocity": 55}, {"time": 144959, "pitch": 35, "duration": 60, "velocity": 105}, {"time": 144959, "pitch": 38, "duration": 60, "velocity": 100}, {"time": 144959, "pitch": 42, "duration": 60, "velocity": 85}, {"time": 144959, "pitch": 54, "duration": 60, "velocity": 75}, {"time": 145079, "pitch": 54, "duration": 61, "velocity": 55}, {"time": 145200, "pitch": 46, "duration": 60, "velocity": 107}, {"time": 145200, "pitch": 54, "duration": 60, "velocity": 85}, {"time": 145320, "pitch": 38, "duration": 60, "velocity": 114}, {"time": 145320, "pitch": 54, "duration": 60, "velocity": 55}, {"time": 145441, "pitch": 35, "duration": 60, "velocity": 127}, {"time": 145441, "pitch": 42, "duration": 60, "velocity": 94}, {"time": 145441, "pitch": 54, "duration": 60, "velocity": 75}, {"time": 145561, "pitch": 54, "duration": 60, "velocity": 55}, {"time": 145681, "pitch": 46, "duration": 61, "velocity": 105}, {"time": 145681, "pitch": 54, "duration": 61, "velocity": 85}, {"time": 145802, "pitch": 54, "duration": 60, "velocity": 55}, {"time": 145922, "pitch": 35, "duration": 60, "velocity": 110}, {"time": 145922, "pitch": 38, "duration": 60, "velocity": 105}, {"time": 145922, "pitch": 42, "duration": 60, "velocity": 91}, {"time": 145922, "pitch": 54, "duration": 60, "velocity": 75}, {"time": 146043, "pitch": 54, "duration": 60, "velocity": 55}, {"time": 146163, "pitch": 46, "duration": 60, "velocity": 107}, {"time": 146163, "pitch": 54, "duration": 60, "velocity": 85}, {"time": 146283, "pitch": 54, "duration": 61, "velocity": 55}, {"time": 146404, "pitch": 35, "duration": 59, "velocity": 114}, {"time": 146404, "pitch": 42, "duration": 59, "velocity": 107}, {"time": 146404, "pitch": 54, "duration": 59, "velocity": 75}, {"time": 146522, "pitch": 54, "duration": 59, "velocity": 55}, {"time": 146639, "pitch": 42, "duration": 59, "velocity": 64}, {"time": 146639, "pitch": 54, "duration": 59, "velocity": 85}, {"time": 146757, "pitch": 54, "duration": 59, "velocity": 55}, {"time": 146875, "pitch": 35, "duration": 60, "velocity": 105}, {"time": 146875, "pitch": 38, "duration": 60, "velocity": 100}, {"time": 146875, "pitch": 42, "duration": 60, "velocity": 85}, {"time": 146875, "pitch": 54, "duration": 60, "velocity": 75}, {"time": 146995, "pitch": 54, "duration": 61, "velocity": 55}, {"time": 147116, "pitch": 46, "duration": 60, "velocity": 107}, {"time": 147116, "pitch": 54, "duration": 60, "velocity": 85}, {"time": 147236, "pitch": 38, "duration": 60, "velocity": 114}, {"time": 147236, "pitch": 54, "duration": 60, "velocity": 55}, {"time": 147357, "pitch": 35, "duration": 60, "velocity": 127}, {"time": 147357, "pitch": 42, "duration": 60, "velocity": 94}, {"time": 147357, "pitch": 54, "duration": 60, "velocity": 75}, {"time": 147477, "pitch": 54, "duration": 60, "velocity": 55}, {"time": 147597, "pitch": 46, "duration": 61, "velocity": 105}, {"time": 147597, "pitch": 54, "duration": 61, "velocity": 85}, {"time": 147718, "pitch": 54, "duration": 60, "velocity": 55}, {"time": 147838, "pitch": 35, "duration": 60, "velocity": 110}, {"time": 147838, "pitch": 38, "duration": 60, "velocity": 105}, {"time": 147838, "pitch": 42, "duration": 60, "velocity": 91}, {"time": 147838, "pitch": 54, "duration": 60, "velocity": 75}, {"time": 147959, "pitch": 54, "duration": 60, "velocity": 55}, {"time": 148079, "pitch": 46, "duration": 60, "velocity": 107}, {"time": 148079, "pitch": 54, "duration": 60, "velocity": 85}, {"time": 148199, "pitch": 54, "duration": 61, "velocity": 55}, {"time": 148320, "pitch": 35, "duration": 60, "velocity": 114}, {"time": 148320, "pitch": 42, "duration": 60, "velocity": 107}, {"time": 148320, "pitch": 54, "duration": 60, "velocity": 75}, {"time": 148440, "pitch": 54, "duration": 60, "velocity": 55}, {"time": 148561, "pitch": 42, "duration": 60, "velocity": 64}, {"time": 148561, "pitch": 54, "duration": 60, "velocity": 85}, {"time": 148681, "pitch": 54, "duration": 60, "velocity": 55}, {"time": 148801, "pitch": 35, "duration": 61, "velocity": 105}, {"time": 148801, "pitch": 38, "duration": 61, "velocity": 100}, {"time": 148801, "pitch": 42, "duration": 61, "velocity": 85}, {"time": 148801, "pitch": 54, "duration": 61, "velocity": 75}, {"time": 148922, "pitch": 54, "duration": 60, "velocity": 55}, {"time": 149042, "pitch": 46, "duration": 60, "velocity": 107}, {"time": 149042, "pitch": 54, "duration": 60, "velocity": 85}, {"time": 149163, "pitch": 38, "duration": 60, "velocity": 114}, {"time": 149163, "pitch": 54, "duration": 60, "velocity": 55}, {"time": 149283, "pitch": 35, "duration": 60, "velocity": 127}, {"time": 149283, "pitch": 42, "duration": 60, "velocity": 94}, {"time": 149283, "pitch": 54, "duration": 60, "velocity": 75}, {"time": 149403, "pitch": 54, "duration": 61, "velocity": 55}, {"time": 149524, "pitch": 46, "duration": 60, "velocity": 105}, {"time": 149524, "pitch": 54, "duration": 60, "velocity": 85}, {"time": 149644, "pitch": 54, "duration": 60, "velocity": 55}, {"time": 149765, "pitch": 35, "duration": 58, "velocity": 110}, {"time": 149765, "pitch": 38, "duration": 58, "velocity": 105}, {"time": 149765, "pitch": 42, "duration": 58, "velocity": 91}, {"time": 149765, "pitch": 54, "duration": 58, "velocity": 75}, {"time": 149882, "pitch": 54, "duration": 59, "velocity": 55}, {"time": 150000, "pitch": 46, "duration": 59, "velocity": 107}, {"time": 150000, "pitch": 54, "duration": 59, "velocity": 85}, {"time": 150118, "pitch": 54, "duration": 59, "velocity": 55}, {"time": 150236, "pitch": 35, "duration": 60, "velocity": 114}, {"time": 150236, "pitch": 42, "duration": 60, "velocity": 107}, {"time": 150236, "pitch": 54, "duration": 60, "velocity": 75}, {"time": 150356, "pitch": 54, "duration": 60, "velocity": 55}, {"time": 150477, "pitch": 42, "duration": 60, "velocity": 64}, {"time": 150477, "pitch": 54, "duration": 60, "velocity": 85}, {"time": 150597, "pitch": 54, "duration": 60, "velocity": 55}, {"time": 150717, "pitch": 35, "duration": 61, "velocity": 105}, {"time": 150717, "pitch": 38, "duration": 61, "velocity": 100}, {"time": 150717, "pitch": 42, "duration": 61, "velocity": 85}, {"time": 150717, "pitch": 54, "duration": 61, "velocity": 75}, {"time": 150838, "pitch": 54, "duration": 60, "velocity": 55}, {"time": 150958, "pitch": 46, "duration": 60, "velocity": 107}, {"time": 150958, "pitch": 54, "duration": 60, "velocity": 85}, {"time": 151079, "pitch": 38, "duration": 60, "velocity": 114}, {"time": 151079, "pitch": 54, "duration": 60, "velocity": 55}, {"time": 151199, "pitch": 35, "duration": 60, "velocity": 127}, {"time": 151199, "pitch": 42, "duration": 60, "velocity": 94}, {"time": 151199, "pitch": 54, "duration": 60, "velocity": 75}, {"time": 151319, "pitch": 54, "duration": 61, "velocity": 55}, {"time": 151440, "pitch": 46, "duration": 60, "velocity": 105}, {"time": 151440, "pitch": 54, "duration": 60, "velocity": 85}, {"time": 151560, "pitch": 54, "duration": 60, "velocity": 55}, {"time": 151681, "pitch": 35, "duration": 60, "velocity": 110}, {"time": 151681, "pitch": 38, "duration": 60, "velocity": 105}, {"time": 151681, "pitch": 42, "duration": 60, "velocity": 91}, {"time": 151681, "pitch": 54, "duration": 60, "velocity": 75}, {"time": 151801, "pitch": 54, "duration": 60, "velocity": 55}, {"time": 151921, "pitch": 46, "duration": 61, "velocity": 107}, {"time": 151921, "pitch": 54, "duration": 61, "velocity": 85}, {"time": 152042, "pitch": 54, "duration": 60, "velocity": 55}, {"time": 152162, "pitch": 35, "duration": 60, "velocity": 114}, {"time": 152162, "pitch": 42, "duration": 60, "velocity": 107}, {"time": 152162, "pitch": 54, "duration": 60, "velocity": 75}, {"time": 152283, "pitch": 54, "duration": 60, "velocity": 55}, {"time": 152403, "pitch": 42, "duration": 60, "velocity": 64}, {"time": 152403, "pitch": 54, "duration": 60, "velocity": 85}, {"time": 152523, "pitch": 54, "duration": 61, "velocity": 55}, {"time": 152644, "pitch": 35, "duration": 59, "velocity": 105}, {"time": 152644, "pitch": 38, "duration": 59, "velocity": 100}, {"time": 152644, "pitch": 42, "duration": 59, "velocity": 85}, {"time": 152644, "pitch": 54, "duration": 59, "velocity": 75}, {"time": 152762, "pitch": 54, "duration": 59, "velocity": 55}, {"time": 152879, "pitch": 46, "duration": 59, "velocity": 107}, {"time": 152879, "pitch": 54, "duration": 59, "velocity": 85}, {"time": 152997, "pitch": 38, "duration": 59, "velocity": 114}, {"time": 152997, "pitch": 54, "duration": 59, "velocity": 55}, {"time": 153115, "pitch": 35, "duration": 60, "velocity": 127}, {"time": 153115, "pitch": 42, "duration": 60, "velocity": 94}, {"time": 153115, "pitch": 54, "duration": 60, "velocity": 75}, {"time": 153235, "pitch": 54, "duration": 61, "velocity": 55}, {"time": 153356, "pitch": 46, "duration": 60, "velocity": 105}, {"time": 153356, "pitch": 54, "duration": 60, "velocity": 85}, {"time": 153476, "pitch": 54, "duration": 60, "velocity": 55}, {"time": 153597, "pitch": 35, "duration": 60, "velocity": 110}, {"time": 153597, "pitch": 38, "duration": 60, "velocity": 105}, {"time": 153597, "pitch": 42, "duration": 60, "velocity": 91}, {"time": 153597, "pitch": 54, "duration": 60, "velocity": 75}, {"time": 153717, "pitch": 54, "duration": 60, "velocity": 55}, {"time": 153837, "pitch": 46, "duration": 61, "velocity": 107}, {"time": 153837, "pitch": 54, "duration": 61, "velocity": 85}, {"time": 153958, "pitch": 54, "duration": 60, "velocity": 55}, {"time": 154078, "pitch": 35, "duration": 60, "velocity": 114}, {"time": 154078, "pitch": 42, "duration": 60, "velocity": 107}, {"time": 154078, "pitch": 54, "duration": 60, "velocity": 75}, {"time": 154199, "pitch": 54, "duration": 60, "velocity": 55}, {"time": 154319, "pitch": 42, "duration": 60, "velocity": 64}, {"time": 154319, "pitch": 54, "duration": 60, "velocity": 85}, {"time": 154439, "pitch": 54, "duration": 61, "velocity": 55}, {"time": 154560, "pitch": 35, "duration": 60, "velocity": 105}, {"time": 154560, "pitch": 38, "duration": 60, "velocity": 100}, {"time": 154560, "pitch": 42, "duration": 60, "velocity": 85}, {"time": 154560, "pitch": 54, "duration": 60, "velocity": 75}, {"time": 154680, "pitch": 54, "duration": 60, "velocity": 55}, {"time": 154801, "pitch": 46, "duration": 60, "velocity": 107}, {"time": 154801, "pitch": 54, "duration": 60, "velocity": 85}, {"time": 154921, "pitch": 38, "duration": 60, "velocity": 114}, {"time": 154921, "pitch": 54, "duration": 60, "velocity": 55}, {"time": 155041, "pitch": 35, "duration": 61, "velocity": 127}, {"time": 155041, "pitch": 42, "duration": 61, "velocity": 94}, {"time": 155041, "pitch": 54, "duration": 61, "velocity": 75}, {"time": 155162, "pitch": 54, "duration": 60, "velocity": 55}, {"time": 155282, "pitch": 46, "duration": 60, "velocity": 105}, {"time": 155282, "pitch": 54, "duration": 60, "velocity": 85}, {"time": 155403, "pitch": 54, "duration": 60, "velocity": 55}, {"time": 155523, "pitch": 35, "duration": 60, "velocity": 110}, {"time": 155523, "pitch": 38, "duration": 60, "velocity": 105}, {"time": 155523, "pitch": 42, "duration": 60, "velocity": 91}, {"time": 155523, "pitch": 54, "duration": 60, "velocity": 75}, {"time": 155643, "pitch": 54, "duration": 61, "velocity": 55}, {"time": 155764, "pitch": 46, "duration": 60, "velocity": 107}, {"time": 155764, "pitch": 54, "duration": 60, "velocity": 85}, {"time": 155884, "pitch": 54, "duration": 60, "velocity": 55}, {"time": 156005, "pitch": 35, "duration": 58, "velocity": 114}, {"time": 156005, "pitch": 42, "duration": 58, "velocity": 107}, {"time": 156005, "pitch": 54, "duration": 58, "velocity": 75}, {"time": 156122, "pitch": 54, "duration": 59, "velocity": 55}, {"time": 156240, "pitch": 42, "duration": 59, "velocity": 64}, {"time": 156240, "pitch": 54, "duration": 59, "velocity": 85}, {"time": 156358, "pitch": 54, "duration": 59, "velocity": 55}, {"time": 156476, "pitch": 35, "duration": 60, "velocity": 105}, {"time": 156476, "pitch": 38, "duration": 60, "velocity": 100}, {"time": 156476, "pitch": 42, "duration": 60, "velocity": 85}, {"time": 156476, "pitch": 54, "duration": 60, "velocity": 75}, {"time": 156596, "pitch": 54, "duration": 60, "velocity": 55}, {"time": 156717, "pitch": 46, "duration": 60, "velocity": 107}, {"time": 156717, "pitch": 54, "duration": 60, "velocity": 85}, {"time": 156837, "pitch": 38, "duration": 60, "velocity": 114}, {"time": 156837, "pitch": 54, "duration": 60, "velocity": 55}, {"time": 156957, "pitch": 35, "duration": 61, "velocity": 127}, {"time": 156957, "pitch": 42, "duration": 61, "velocity": 94}, {"time": 156957, "pitch": 54, "duration": 61, "velocity": 75}, {"time": 157078, "pitch": 54, "duration": 60, "velocity": 55}, {"time": 157198, "pitch": 46, "duration": 60, "velocity": 105}, {"time": 157198, "pitch": 54, "duration": 60, "velocity": 85}, {"time": 157319, "pitch": 54, "duration": 60, "velocity": 55}, {"time": 157439, "pitch": 35, "duration": 60, "velocity": 110}, {"time": 157439, "pitch": 38, "duration": 60, "velocity": 105}, {"time": 157439, "pitch": 42, "duration": 60, "velocity": 91}, {"time": 157439, "pitch": 54, "duration": 60, "velocity": 75}, {"time": 157559, "pitch": 54, "duration": 61, "velocity": 55}, {"time": 157680, "pitch": 46, "duration": 60, "velocity": 107}, {"time": 157680, "pitch": 54, "duration": 60, "velocity": 85}, {"time": 157800, "pitch": 54, "duration": 60, "velocity": 55}, {"time": 157921, "pitch": 35, "duration": 60, "velocity": 114}, {"time": 157921, "pitch": 42, "duration": 60, "velocity": 107}, {"time": 157921, "pitch": 54, "duration": 60, "velocity": 75}, {"time": 158041, "pitch": 54, "duration": 60, "velocity": 55}, {"time": 158161, "pitch": 42, "duration": 61, "velocity": 64}, {"time": 158161, "pitch": 54, "duration": 61, "velocity": 85}, {"time": 158282, "pitch": 54, "duration": 60, "velocity": 55}, {"time": 158402, "pitch": 35, "duration": 60, "velocity": 105}, {"time": 158402, "pitch": 38, "duration": 60, "velocity": 100}, {"time": 158402, "pitch": 42, "duration": 60, "velocity": 85}, {"time": 158402, "pitch": 54, "duration": 60, "velocity": 75}, {"time": 158523, "pitch": 54, "duration": 60, "velocity": 55}, {"time": 158643, "pitch": 46, "duration": 60, "velocity": 107}, {"time": 158643, "pitch": 54, "duration": 60, "velocity": 85}, {"time": 158763, "pitch": 38, "duration": 61, "velocity": 114}, {"time": 158763, "pitch": 54, "duration": 61, "velocity": 55}, {"time": 158884, "pitch": 35, "duration": 59, "velocity": 127}, {"time": 158884, "pitch": 42, "duration": 59, "velocity": 94}, {"time": 158884, "pitch": 54, "duration": 59, "velocity": 75}, {"time": 159002, "pitch": 54, "duration": 59, "velocity": 55}, {"time": 159119, "pitch": 46, "duration": 59, "velocity": 105}, {"time": 159119, "pitch": 54, "duration": 59, "velocity": 85}, {"time": 159237, "pitch": 54, "duration": 59, "velocity": 55}, {"time": 159355, "pitch": 35, "duration": 60, "velocity": 110}, {"time": 159355, "pitch": 38, "duration": 60, "velocity": 105}, {"time": 159355, "pitch": 42, "duration": 60, "velocity": 91}, {"time": 159355, "pitch": 54, "duration": 60, "velocity": 75}, {"time": 159475, "pitch": 54, "duration": 61, "velocity": 55}, {"time": 159596, "pitch": 46, "duration": 60, "velocity": 107}, {"time": 159596, "pitch": 54, "duration": 60, "velocity": 85}, {"time": 159716, "pitch": 54, "duration": 60, "velocity": 55}, {"time": 159837, "pitch": 35, "duration": 60, "velocity": 114}, {"time": 159837, "pitch": 42, "duration": 60, "velocity": 107}, {"time": 159837, "pitch": 54, "duration": 60, "velocity": 75}, {"time": 159957, "pitch": 54, "duration": 60, "velocity": 55}, {"time": 160077, "pitch": 42, "duration": 61, "velocity": 64}, {"time": 160077, "pitch": 54, "duration": 61, "velocity": 85}, {"time": 160198, "pitch": 54, "duration": 60, "velocity": 55}, {"time": 160318, "pitch": 35, "duration": 60, "velocity": 105}, {"time": 160318, "pitch": 38, "duration": 60, "velocity": 100}, {"time": 160318, "pitch": 42, "duration": 60, "velocity": 85}, {"time": 160318, "pitch": 54, "duration": 60, "velocity": 75}, {"time": 160439, "pitch": 54, "duration": 60, "velocity": 55}, {"time": 160559, "pitch": 46, "duration": 60, "velocity": 107}, {"time": 160559, "pitch": 54, "duration": 60, "velocity": 85}, {"time": 160679, "pitch": 38, "duration": 61, "velocity": 114}, {"time": 160679, "pitch": 54, "duration": 61, "velocity": 55}, {"time": 160800, "pitch": 35, "duration": 60, "velocity": 127}, {"time": 160800, "pitch": 42, "duration": 60, "velocity": 94}, {"time": 160800, "pitch": 54, "duration": 60, "velocity": 75}, {"time": 160920, "pitch": 54, "duration": 60, "velocity": 55}, {"time": 161041, "pitch": 46, "duration": 60, "velocity": 105}, {"time": 161041, "pitch": 54, "duration": 60, "velocity": 85}, {"time": 161161, "pitch": 54, "duration": 60, "velocity": 55}, {"time": 161281, "pitch": 35, "duration": 61, "velocity": 110}, {"time": 161281, "pitch": 38, "duration": 61, "velocity": 105}, {"time": 161281, "pitch": 42, "duration": 61, "velocity": 91}, {"time": 161281, "pitch": 54, "duration": 61, "velocity": 75}, {"time": 161402, "pitch": 54, "duration": 60, "velocity": 55}, {"time": 161522, "pitch": 46, "duration": 60, "velocity": 107}, {"time": 161522, "pitch": 54, "duration": 60, "velocity": 85}, {"time": 161643, "pitch": 54, "duration": 60, "velocity": 55}, {"time": 161763, "pitch": 35, "duration": 60, "velocity": 114}, {"time": 161763, "pitch": 42, "duration": 60, "velocity": 107}, {"time": 161763, "pitch": 54, "duration": 60, "velocity": 75}, {"time": 161883, "pitch": 54, "duration": 61, "velocity": 55}, {"time": 162004, "pitch": 42, "duration": 60, "velocity": 64}, {"time": 162004, "pitch": 54, "duration": 60, "velocity": 85}, {"time": 162124, "pitch": 54, "duration": 60, "velocity": 55}, {"time": 162245, "pitch": 35, "duration": 58, "velocity": 105}, {"time": 162245, "pitch": 38, "duration": 58, "velocity": 100}, {"time": 162245, "pitch": 42, "duration": 58, "velocity": 85}, {"time": 162245, "pitch": 54, "duration": 58, "velocity": 75}, {"time": 162362, "pitch": 54, "duration": 59, "velocity": 55}, {"time": 162480, "pitch": 46, "duration": 59, "velocity": 107}, {"time": 162480, "pitch": 54, "duration": 59, "velocity": 85}, {"time": 162598, "pitch": 38, "duration": 59, "velocity": 114}, {"time": 162598, "pitch": 54, "duration": 59, "velocity": 55}, {"time": 162716, "pitch": 35, "duration": 60, "velocity": 127}, {"time": 162716, "pitch": 42, "duration": 60, "velocity": 94}, {"time": 162716, "pitch": 54, "duration": 60, "velocity": 75}, {"time": 162836, "pitch": 54, "duration": 60, "velocity": 55}, {"time": 162957, "pitch": 46, "duration": 60, "velocity": 105}, {"time": 162957, "pitch": 54, "duration": 60, "velocity": 85}, {"time": 163077, "pitch": 54, "duration": 60, "velocity": 55}, {"time": 163197, "pitch": 35, "duration": 61, "velocity": 110}, {"time": 163197, "pitch": 38, "duration": 61, "velocity": 105}, {"time": 163197, "pitch": 42, "duration": 61, "velocity": 91}, {"time": 163197, "pitch": 54, "duration": 61, "velocity": 75}, {"time": 163318, "pitch": 54, "duration": 60, "velocity": 55}, {"time": 163438, "pitch": 46, "duration": 60, "velocity": 107}, {"time": 163438, "pitch": 54, "duration": 60, "velocity": 85}, {"time": 163559, "pitch": 54, "duration": 60, "velocity": 55}, {"time": 163679, "pitch": 35, "duration": 60, "velocity": 114}, {"time": 163679, "pitch": 42, "duration": 60, "velocity": 107}, {"time": 163679, "pitch": 54, "duration": 60, "velocity": 75}, {"time": 163799, "pitch": 54, "duration": 61, "velocity": 55}, {"time": 163920, "pitch": 42, "duration": 60, "velocity": 64}, {"time": 163920, "pitch": 54, "duration": 60, "velocity": 85}, {"time": 164040, "pitch": 54, "duration": 60, "velocity": 55}, {"time": 164161, "pitch": 35, "duration": 60, "velocity": 105}, {"time": 164161, "pitch": 38, "duration": 60, "velocity": 100}, {"time": 164161, "pitch": 42, "duration": 60, "velocity": 85}, {"time": 164161, "pitch": 54, "duration": 60, "velocity": 75}, {"time": 164281, "pitch": 54, "duration": 60, "velocity": 55}, {"time": 164401, "pitch": 46, "duration": 61, "velocity": 107}, {"time": 164401, "pitch": 54, "duration": 61, "velocity": 85}, {"time": 164522, "pitch": 38, "duration": 60, "velocity": 114}, {"time": 164522, "pitch": 54, "duration": 60, "velocity": 55}, {"time": 164642, "pitch": 35, "duration": 60, "velocity": 127}, {"time": 164642, "pitch": 42, "duration": 60, "velocity": 94}, {"time": 164642, "pitch": 54, "duration": 60, "velocity": 75}, {"time": 164763, "pitch": 54, "duration": 60, "velocity": 55}, {"time": 164883, "pitch": 46, "duration": 60, "velocity": 105}, {"time": 164883, "pitch": 54, "duration": 60, "velocity": 85}, {"time": 165003, "pitch": 54, "duration": 61, "velocity": 55}, {"time": 165124, "pitch": 35, "duration": 59, "velocity": 110}, {"time": 165124, "pitch": 38, "duration": 59, "velocity": 105}, {"time": 165124, "pitch": 42, "duration": 59, "velocity": 91}, {"time": 165124, "pitch": 54, "duration": 59, "velocity": 75}, {"time": 165242, "pitch": 54, "duration": 59, "velocity": 55}, {"time": 165359, "pitch": 46, "duration": 59, "velocity": 107}, {"time": 165359, "pitch": 54, "duration": 59, "velocity": 85}, {"time": 165477, "pitch": 54, "duration": 59, "velocity": 55}, {"time": 165595, "pitch": 35, "duration": 60, "velocity": 114}, {"time": 165595, "pitch": 42, "duration": 60, "velocity": 107}, {"time": 165595, "pitch": 54, "duration": 60, "velocity": 75}, {"time": 165715, "pitch": 54, "duration": 61, "velocity": 55}, {"time": 165836, "pitch": 42, "duration": 60, "velocity": 64}, {"time": 165836, "pitch": 54, "duration": 60, "velocity": 85}, {"time": 165956, "pitch": 54, "duration": 60, "velocity": 55}, {"time": 166077, "pitch": 35, "duration": 60, "velocity": 105}, {"time": 166077, "pitch": 38, "duration": 60, "velocity": 100}, {"time": 166077, "pitch": 42, "duration": 60, "velocity": 85}, {"time": 166077, "pitch": 54, "duration": 60, "velocity": 75}, {"time": 166197, "pitch": 54, "duration": 60, "velocity": 55}, {"time": 166317, "pitch": 46, "duration": 61, "velocity": 107}, {"time": 166317, "pitch": 54, "duration": 61, "velocity": 85}, {"time": 166438, "pitch": 38, "duration": 60, "velocity": 114}, {"time": 166438, "pitch": 54, "duration": 60, "velocity": 55}, {"time": 166558, "pitch": 35, "duration": 60, "velocity": 127}, {"time": 166558, "pitch": 42, "duration": 60, "velocity": 94}, {"time": 166558, "pitch": 54, "duration": 60, "velocity": 75}, {"time": 166679, "pitch": 54, "duration": 60, "velocity": 55}, {"time": 166799, "pitch": 46, "duration": 60, "velocity": 105}, {"time": 166799, "pitch": 54, "duration": 60, "velocity": 85}, {"time": 166919, "pitch": 54, "duration": 61, "velocity": 55}, {"time": 167040, "pitch": 35, "duration": 60, "velocity": 110}, {"time": 167040, "pitch": 38, "duration": 60, "velocity": 105}, {"time": 167040, "pitch": 42, "duration": 60, "velocity": 91}, {"time": 167040, "pitch": 54, "duration": 60, "velocity": 75}, {"time": 167160, "pitch": 54, "duration": 60, "velocity": 55}, {"time": 167281, "pitch": 46, "duration": 60, "velocity": 107}, {"time": 167281, "pitch": 54, "duration": 60, "velocity": 85}, {"time": 167401, "pitch": 54, "duration": 60, "velocity": 55}, {"time": 167521, "pitch": 35, "duration": 61, "velocity": 114}, {"time": 167521, "pitch": 42, "duration": 61, "velocity": 107}, {"time": 167521, "pitch": 54, "duration": 61, "velocity": 75}, {"time": 167642, "pitch": 54, "duration": 60, "velocity": 55}, {"time": 167762, "pitch": 42, "duration": 60, "velocity": 64}, {"time": 167762, "pitch": 54, "duration": 60, "velocity": 85}, {"time": 167883, "pitch": 54, "duration": 60, "velocity": 55}, {"time": 168003, "pitch": 35, "duration": 60, "velocity": 105}, {"time": 168003, "pitch": 38, "duration": 60, "velocity": 100}, {"time": 168003, "pitch": 42, "duration": 60, "velocity": 85}, {"time": 168003, "pitch": 54, "duration": 60, "velocity": 75}, {"time": 168123, "pitch": 54, "duration": 61, "velocity": 55}, {"time": 168244, "pitch": 46, "duration": 60, "velocity": 107}, {"time": 168244, "pitch": 54, "duration": 60, "velocity": 85}, {"time": 168364, "pitch": 38, "duration": 60, "velocity": 114}, {"time": 168364, "pitch": 54, "duration": 60, "velocity": 55}, {"time": 168485, "pitch": 35, "duration": 58, "velocity": 127}, {"time": 168485, "pitch": 42, "duration": 58, "velocity": 94}, {"time": 168485, "pitch": 54, "duration": 58, "velocity": 75}, {"time": 168602, "pitch": 54, "duration": 59, "velocity": 55}, {"time": 168720, "pitch": 46, "duration": 59, "velocity": 105}, {"time": 168720, "pitch": 54, "duration": 59, "velocity": 85}, {"time": 168838, "pitch": 54, "duration": 59, "velocity": 55}, {"time": 168956, "pitch": 35, "duration": 60, "velocity": 110}, {"time": 168956, "pitch": 38, "duration": 60, "velocity": 105}, {"time": 168956, "pitch": 42, "duration": 60, "velocity": 91}, {"time": 168956, "pitch": 54, "duration": 60, "velocity": 75}, {"time": 169076, "pitch": 54, "duration": 60, "velocity": 55}, {"time": 169197, "pitch": 46, "duration": 60, "velocity": 107}, {"time": 169197, "pitch": 54, "duration": 60, "velocity": 85}, {"time": 169317, "pitch": 54, "duration": 60, "velocity": 55}, {"time": 169437, "pitch": 35, "duration": 61, "velocity": 114}, {"time": 169437, "pitch": 42, "duration": 61, "velocity": 107}, {"time": 169437, "pitch": 54, "duration": 61, "velocity": 75}, {"time": 169558, "pitch": 54, "duration": 60, "velocity": 55}, {"time": 169678, "pitch": 42, "duration": 60, "velocity": 64}, {"time": 169678, "pitch": 54, "duration": 60, "velocity": 85}, {"time": 169799, "pitch": 54, "duration": 60, "velocity": 55}, {"time": 169919, "pitch": 35, "duration": 60, "velocity": 105}, {"time": 169919, "pitch": 38, "duration": 60, "velocity": 100}, {"time": 169919, "pitch": 42, "duration": 60, "velocity": 85}, {"time": 169919, "pitch": 54, "duration": 60, "velocity": 75}, {"time": 170039, "pitch": 54, "duration": 61, "velocity": 55}, {"time": 170160, "pitch": 46, "duration": 60, "velocity": 107}, {"time": 170160, "pitch": 54, "duration": 60, "velocity": 85}, {"time": 170280, "pitch": 38, "duration": 60, "velocity": 114}, {"time": 170280, "pitch": 54, "duration": 60, "velocity": 55}, {"time": 170401, "pitch": 35, "duration": 60, "velocity": 127}, {"time": 170401, "pitch": 42, "duration": 60, "velocity": 94}, {"time": 170401, "pitch": 54, "duration": 60, "velocity": 75}, {"time": 170521, "pitch": 54, "duration": 60, "velocity": 55}, {"time": 170641, "pitch": 46, "duration": 61, "velocity": 105}, {"time": 170641, "pitch": 54, "duration": 61, "velocity": 85}, {"time": 170762, "pitch": 54, "duration": 60, "velocity": 55}, {"time": 170882, "pitch": 35, "duration": 60, "velocity": 110}, {"time": 170882, "pitch": 38, "duration": 60, "velocity": 105}, {"time": 170882, "pitch": 42, "duration": 60, "velocity": 91}, {"time": 170882, "pitch": 54, "duration": 60, "velocity": 75}, {"time": 171003, "pitch": 54, "duration": 60, "velocity": 55}, {"time": 171123, "pitch": 46, "duration": 60, "velocity": 107}, {"time": 171123, "pitch": 54, "duration": 60, "velocity": 85}, {"time": 171243, "pitch": 54, "duration": 61, "velocity": 55}, {"time": 171364, "pitch": 35, "duration": 59, "velocity": 114}, {"time": 171364, "pitch": 42, "duration": 59, "velocity": 107}, {"time": 171364, "pitch": 54, "duration": 59, "velocity": 75}, {"time": 171482, "pitch": 54, "duration": 59, "velocity": 55}, {"time": 171599, "pitch": 42, "duration": 59, "velocity": 64}, {"time": 171599, "pitch": 54, "duration": 59, "velocity": 85}, {"time": 171717, "pitch": 54, "duration": 59, "velocity": 55}, {"time": 171835, "pitch": 35, "duration": 60, "velocity": 105}, {"time": 171835, "pitch": 38, "duration": 60, "velocity": 100}, {"time": 171835, "pitch": 42, "duration": 60, "velocity": 85}, {"time": 171835, "pitch": 54, "duration": 60, "velocity": 75}, {"time": 171955, "pitch": 54, "duration": 61, "velocity": 55}, {"time": 172076, "pitch": 46, "duration": 60, "velocity": 107}, {"time": 172076, "pitch": 54, "duration": 60, "velocity": 85}, {"time": 172196, "pitch": 38, "duration": 60, "velocity": 114}, {"time": 172196, "pitch": 54, "duration": 60, "velocity": 55}, {"time": 172317, "pitch": 35, "duration": 60, "velocity": 127}, {"time": 172317, "pitch": 42, "duration": 60, "velocity": 94}, {"time": 172317, "pitch": 54, "duration": 60, "velocity": 75}, {"time": 172437, "pitch": 54, "duration": 60, "velocity": 55}, {"time": 172557, "pitch": 46, "duration": 61, "velocity": 105}, {"time": 172557, "pitch": 54, "duration": 61, "velocity": 85}, {"time": 172678, "pitch": 54, "duration": 60, "velocity": 55}, {"time": 172798, "pitch": 35, "duration": 60, "velocity": 110}, {"time": 172798, "pitch": 38, "duration": 60, "velocity": 105}, {"time": 172798, "pitch": 42, "duration": 60, "velocity": 91}, {"time": 172798, "pitch": 54, "duration": 60, "velocity": 75}, {"time": 172919, "pitch": 54, "duration": 60, "velocity": 55}, {"time": 173039, "pitch": 46, "duration": 60, "velocity": 107}, {"time": 173039, "pitch": 54, "duration": 60, "velocity": 85}, {"time": 173159, "pitch": 54, "duration": 61, "velocity": 55}, {"time": 173280, "pitch": 35, "duration": 60, "velocity": 114}, {"time": 173280, "pitch": 42, "duration": 60, "velocity": 107}, {"time": 173280, "pitch": 54, "duration": 60, "velocity": 75}, {"time": 173400, "pitch": 54, "duration": 60, "velocity": 55}, {"time": 173521, "pitch": 42, "duration": 60, "velocity": 64}, {"time": 173521, "pitch": 54, "duration": 60, "velocity": 85}, {"time": 173641, "pitch": 54, "duration": 60, "velocity": 55}, {"time": 173761, "pitch": 35, "duration": 61, "velocity": 105}, {"time": 173761, "pitch": 38, "duration": 61, "velocity": 100}, {"time": 173761, "pitch": 42, "duration": 61, "velocity": 85}, {"time": 173761, "pitch": 54, "duration": 61, "velocity": 75}, {"time": 173882, "pitch": 54, "duration": 60, "velocity": 55}, {"time": 174002, "pitch": 46, "duration": 60, "velocity": 107}, {"time": 174002, "pitch": 54, "duration": 60, "velocity": 85}, {"time": 174123, "pitch": 38, "duration": 60, "velocity": 114}, {"time": 174123, "pitch": 54, "duration": 60, "velocity": 55}, {"time": 174243, "pitch": 35, "duration": 60, "velocity": 127}, {"time": 174243, "pitch": 42, "duration": 60, "velocity": 94}, {"time": 174243, "pitch": 54, "duration": 60, "velocity": 75}, {"time": 174363, "pitch": 54, "duration": 61, "velocity": 55}, {"time": 174484, "pitch": 46, "duration": 60, "velocity": 105}, {"time": 174484, "pitch": 54, "duration": 60, "velocity": 85}, {"time": 174604, "pitch": 54, "duration": 60, "velocity": 55}, {"time": 174725, "pitch": 35, "duration": 58, "velocity": 110}, {"time": 174725, "pitch": 38, "duration": 58, "velocity": 105}, {"time": 174725, "pitch": 42, "duration": 58, "velocity": 91}, {"time": 174725, "pitch": 54, "duration": 58, "velocity": 75}, {"time": 174842, "pitch": 54, "duration": 59, "velocity": 55}, {"time": 174960, "pitch": 46, "duration": 59, "velocity": 107}, {"time": 174960, "pitch": 54, "duration": 59, "velocity": 85}, {"time": 175078, "pitch": 54, "duration": 59, "velocity": 55}, {"time": 175196, "pitch": 35, "duration": 60, "velocity": 114}, {"time": 175196, "pitch": 42, "duration": 60, "velocity": 107}, {"time": 175196, "pitch": 54, "duration": 60, "velocity": 75}, {"time": 175316, "pitch": 54, "duration": 60, "velocity": 55}, {"time": 175437, "pitch": 42, "duration": 60, "velocity": 64}, {"time": 175437, "pitch": 54, "duration": 60, "velocity": 85}, {"time": 175557, "pitch": 54, "duration": 60, "velocity": 55}, {"time": 175677, "pitch": 35, "duration": 61, "velocity": 105}, {"time": 175677, "pitch": 38, "duration": 61, "velocity": 100}, {"time": 175677, "pitch": 42, "duration": 61, "velocity": 85}, {"time": 175677, "pitch": 54, "duration": 61, "velocity": 75}, {"time": 175798, "pitch": 54, "duration": 60, "velocity": 55}, {"time": 175918, "pitch": 46, "duration": 60, "velocity": 107}, {"time": 175918, "pitch": 54, "duration": 60, "velocity": 85}, {"time": 176039, "pitch": 38, "duration": 60, "velocity": 114}, {"time": 176039, "pitch": 54, "duration": 60, "velocity": 55}, {"time": 176159, "pitch": 35, "duration": 60, "velocity": 127}, {"time": 176159, "pitch": 42, "duration": 60, "velocity": 94}, {"time": 176159, "pitch": 54, "duration": 60, "velocity": 75}, {"time": 176279, "pitch": 54, "duration": 61, "velocity": 55}, {"time": 176400, "pitch": 46, "duration": 60, "velocity": 105}, {"time": 176400, "pitch": 54, "duration": 60, "velocity": 85}, {"time": 176520, "pitch": 54, "duration": 60, "velocity": 55}, {"time": 176641, "pitch": 35, "duration": 60, "velocity": 110}, {"time": 176641, "pitch": 38, "duration": 60, "velocity": 105}, {"time": 176641, "pitch": 42, "duration": 60, "velocity": 91}, {"time": 176641, "pitch": 54, "duration": 60, "velocity": 75}, {"time": 176761, "pitch": 54, "duration": 60, "velocity": 55}, {"time": 176881, "pitch": 46, "duration": 61, "velocity": 107}, {"time": 176881, "pitch": 54, "duration": 61, "velocity": 85}, {"time": 177002, "pitch": 54, "duration": 60, "velocity": 55}, {"time": 177122, "pitch": 35, "duration": 60, "velocity": 114}, {"time": 177122, "pitch": 42, "duration": 60, "velocity": 107}, {"time": 177122, "pitch": 54, "duration": 60, "velocity": 75}, {"time": 177243, "pitch": 54, "duration": 60, "velocity": 55}, {"time": 177363, "pitch": 42, "duration": 60, "velocity": 64}, {"time": 177363, "pitch": 54, "duration": 60, "velocity": 85}, {"time": 177483, "pitch": 54, "duration": 61, "velocity": 55}, {"time": 177604, "pitch": 35, "duration": 59, "velocity": 105}, {"time": 177604, "pitch": 38, "duration": 59, "velocity": 100}, {"time": 177604, "pitch": 42, "duration": 59, "velocity": 85}, {"time": 177604, "pitch": 54, "duration": 59, "velocity": 75}, {"time": 177722, "pitch": 54, "duration": 59, "velocity": 55}, {"time": 177839, "pitch": 46, "duration": 59, "velocity": 107}, {"time": 177839, "pitch": 54, "duration": 59, "velocity": 85}, {"time": 177957, "pitch": 38, "duration": 59, "velocity": 114}, {"time": 177957, "pitch": 54, "duration": 59, "velocity": 55}, {"time": 178075, "pitch": 35, "duration": 60, "velocity": 127}, {"time": 178075, "pitch": 42, "duration": 60, "velocity": 94}, {"time": 178075, "pitch": 54, "duration": 60, "velocity": 75}, {"time": 178195, "pitch": 54, "duration": 61, "velocity": 55}, {"time": 178316, "pitch": 46, "duration": 60, "velocity": 105}, {"time": 178316, "pitch": 54, "duration": 60, "velocity": 85}, {"time": 178436, "pitch": 54, "duration": 60, "velocity": 55}, {"time": 178557, "pitch": 35, "duration": 60, "velocity": 110}, {"time": 178557, "pitch": 38, "duration": 60, "velocity": 105}, {"time": 178557, "pitch": 42, "duration": 60, "velocity": 91}, {"time": 178557, "pitch": 54, "duration": 60, "velocity": 75}, {"time": 178677, "pitch": 54, "duration": 60, "velocity": 55}, {"time": 178797, "pitch": 46, "duration": 61, "velocity": 107}, {"time": 178797, "pitch": 54, "duration": 61, "velocity": 85}, {"time": 178918, "pitch": 54, "duration": 60, "velocity": 55}, {"time": 179038, "pitch": 35, "duration": 60, "velocity": 114}, {"time": 179038, "pitch": 42, "duration": 60, "velocity": 107}, {"time": 179038, "pitch": 54, "duration": 60, "velocity": 75}, {"time": 179159, "pitch": 54, "duration": 60, "velocity": 55}, {"time": 179279, "pitch": 42, "duration": 60, "velocity": 64}, {"time": 179279, "pitch": 54, "duration": 60, "velocity": 85}, {"time": 179399, "pitch": 54, "duration": 61, "velocity": 55}, {"time": 179520, "pitch": 35, "duration": 60, "velocity": 105}, {"time": 179520, "pitch": 38, "duration": 60, "velocity": 100}, {"time": 179520, "pitch": 42, "duration": 60, "velocity": 85}, {"time": 179520, "pitch": 54, "duration": 60, "velocity": 75}, {"time": 179640, "pitch": 54, "duration": 60, "velocity": 55}, {"time": 179761, "pitch": 46, "duration": 60, "velocity": 107}, {"time": 179761, "pitch": 54, "duration": 60, "velocity": 85}, {"time": 179881, "pitch": 38, "duration": 60, "velocity": 114}, {"time": 179881, "pitch": 54, "duration": 60, "velocity": 55}, {"time": 180001, "pitch": 35, "duration": 61, "velocity": 127}, {"time": 180001, "pitch": 42, "duration": 61, "velocity": 94}, {"time": 180001, "pitch": 54, "duration": 61, "velocity": 75}, {"time": 180122, "pitch": 54, "duration": 60, "velocity": 55}, {"time": 180242, "pitch": 46, "duration": 60, "velocity": 105}, {"time": 180242, "pitch": 54, "duration": 60, "velocity": 85}, {"time": 180363, "pitch": 54, "duration": 60, "velocity": 55}, {"time": 180483, "pitch": 35, "duration": 60, "velocity": 110}, {"time": 180483, "pitch": 38, "duration": 60, "velocity": 105}, {"time": 180483, "pitch": 42, "duration": 60, "velocity": 91}, {"time": 180483, "pitch": 54, "duration": 60, "velocity": 75}, {"time": 180603, "pitch": 54, "duration": 61, "velocity": 55}, {"time": 180724, "pitch": 46, "duration": 60, "velocity": 107}, {"time": 180724, "pitch": 54, "duration": 60, "velocity": 85}, {"time": 180844, "pitch": 54, "duration": 60, "velocity": 55}, {"time": 180965, "pitch": 35, "duration": 58, "velocity": 114}, {"time": 180965, "pitch": 42, "duration": 58, "velocity": 107}, {"time": 180965, "pitch": 54, "duration": 58, "velocity": 75}, {"time": 181082, "pitch": 54, "duration": 59, "velocity": 55}, {"time": 181200, "pitch": 42, "duration": 59, "velocity": 64}, {"time": 181200, "pitch": 54, "duration": 59, "velocity": 85}, {"time": 181318, "pitch": 54, "duration": 59, "velocity": 55}, {"time": 181436, "pitch": 35, "duration": 60, "velocity": 105}, {"time": 181436, "pitch": 38, "duration": 60, "velocity": 100}, {"time": 181436, "pitch": 42, "duration": 60, "velocity": 85}, {"time": 181436, "pitch": 54, "duration": 60, "velocity": 75}, {"time": 181556, "pitch": 54, "duration": 60, "velocity": 55}, {"time": 181677, "pitch": 46, "duration": 60, "velocity": 107}, {"time": 181677, "pitch": 54, "duration": 60, "velocity": 85}, {"time": 181797, "pitch": 38, "duration": 60, "velocity": 114}, {"time": 181797, "pitch": 54, "duration": 60, "velocity": 55}, {"time": 181917, "pitch": 35, "duration": 61, "velocity": 127}, {"time": 181917, "pitch": 42, "duration": 61, "velocity": 94}, {"time": 181917, "pitch": 54, "duration": 61, "velocity": 75}, {"time": 182038, "pitch": 54, "duration": 60, "velocity": 55}, {"time": 182158, "pitch": 46, "duration": 60, "velocity": 105}, {"time": 182158, "pitch": 54, "duration": 60, "velocity": 85}, {"time": 182279, "pitch": 54, "duration": 60, "velocity": 55}, {"time": 182399, "pitch": 35, "duration": 60, "velocity": 110}, {"time": 182399, "pitch": 38, "duration": 60, "velocity": 105}, {"time": 182399, "pitch": 42, "duration": 60, "velocity": 91}, {"time": 182399, "pitch": 54, "duration": 60, "velocity": 75}, {"time": 182519, "pitch": 54, "duration": 61, "velocity": 55}, {"time": 182640, "pitch": 46, "duration": 60, "velocity": 107}, {"time": 182640, "pitch": 54, "duration": 60, "velocity": 85}, {"time": 182760, "pitch": 54, "duration": 60, "velocity": 55}, {"time": 182881, "pitch": 35, "duration": 60, "velocity": 114}, {"time": 182881, "pitch": 42, "duration": 60, "velocity": 107}, {"time": 182881, "pitch": 54, "duration": 60, "velocity": 75}, {"time": 183001, "pitch": 54, "duration": 60, "velocity": 55}, {"time": 183121, "pitch": 42, "duration": 61, "velocity": 64}, {"time": 183121, "pitch": 54, "duration": 61, "velocity": 85}, {"time": 183242, "pitch": 54, "duration": 60, "velocity": 55}, {"time": 183362, "pitch": 35, "duration": 60, "velocity": 105}, {"time": 183362, "pitch": 38, "duration": 60, "velocity": 100}, {"time": 183362, "pitch": 42, "duration": 60, "velocity": 85}, {"time": 183362, "pitch": 54, "duration": 60, "velocity": 75}, {"time": 183483, "pitch": 54, "duration": 60, "velocity": 55}, {"time": 183603, "pitch": 46, "duration": 60, "velocity": 107}, {"time": 183603, "pitch": 54, "duration": 60, "velocity": 85}, {"time": 183723, "pitch": 38, "duration": 61, "velocity": 114}, {"time": 183723, "pitch": 54, "duration": 61, "velocity": 55}, {"time": 183844, "pitch": 35, "duration": 59, "velocity": 127}, {"time": 183844, "pitch": 42, "duration": 59, "velocity": 94}, {"time": 183844, "pitch": 54, "duration": 59, "velocity": 75}, {"time": 183962, "pitch": 54, "duration": 59, "velocity": 55}, {"time": 184079, "pitch": 46, "duration": 59, "velocity": 105}, {"time": 184079, "pitch": 54, "duration": 59, "velocity": 85}, {"time": 184197, "pitch": 54, "duration": 59, "velocity": 55}, {"time": 184315, "pitch": 35, "duration": 60, "velocity": 110}, {"time": 184315, "pitch": 38, "duration": 60, "velocity": 105}, {"time": 184315, "pitch": 42, "duration": 60, "velocity": 91}, {"time": 184315, "pitch": 54, "duration": 60, "velocity": 75}, {"time": 184435, "pitch": 54, "duration": 61, "velocity": 55}, {"time": 184556, "pitch": 46, "duration": 60, "velocity": 107}, {"time": 184556, "pitch": 54, "duration": 60, "velocity": 85}, {"time": 184676, "pitch": 54, "duration": 60, "velocity": 55}, {"time": 184797, "pitch": 35, "duration": 60, "velocity": 114}, {"time": 184797, "pitch": 42, "duration": 60, "velocity": 107}, {"time": 184797, "pitch": 54, "duration": 60, "velocity": 75}, {"time": 184917, "pitch": 54, "duration": 60, "velocity": 55}, {"time": 185037, "pitch": 42, "duration": 61, "velocity": 64}, {"time": 185037, "pitch": 54, "duration": 61, "velocity": 85}, {"time": 185158, "pitch": 54, "duration": 60, "velocity": 55}, {"time": 185278, "pitch": 35, "duration": 60, "velocity": 105}, {"time": 185278, "pitch": 38, "duration": 60, "velocity": 100}, {"time": 185278, "pitch": 42, "duration": 60, "velocity": 85}, {"time": 185278, "pitch": 54, "duration": 60, "velocity": 75}, {"time": 185399, "pitch": 54, "duration": 60, "velocity": 55}, {"time": 185519, "pitch": 46, "duration": 60, "velocity": 107}, {"time": 185519, "pitch": 54, "duration": 60, "velocity": 85}, {"time": 185639, "pitch": 38, "duration": 61, "velocity": 114}, {"time": 185639, "pitch": 54, "duration": 61, "velocity": 55}, {"time": 185760, "pitch": 35, "duration": 60, "velocity": 127}, {"time": 185760, "pitch": 42, "duration": 60, "velocity": 94}, {"time": 185760, "pitch": 54, "duration": 60, "velocity": 75}, {"time": 185880, "pitch": 54, "duration": 60, "velocity": 55}, {"time": 186001, "pitch": 46, "duration": 60, "velocity": 105}, {"time": 186001, "pitch": 54, "duration": 60, "velocity": 85}, {"time": 186121, "pitch": 54, "duration": 60, "velocity": 55}, {"time": 186241, "pitch": 35, "duration": 61, "velocity": 110}, {"time": 186241, "pitch": 38, "duration": 61, "velocity": 105}, {"time": 186241, "pitch": 42, "duration": 61, "velocity": 91}, {"time": 186241, "pitch": 54, "duration": 61, "velocity": 75}, {"time": 186362, "pitch": 54, "duration": 60, "velocity": 55}, {"time": 186482, "pitch": 46, "duration": 60, "velocity": 107}, {"time": 186482, "pitch": 54, "duration": 60, "velocity": 85}, {"time": 186603, "pitch": 54, "duration": 60, "velocity": 55}, {"time": 186723, "pitch": 35, "duration": 60, "velocity": 114}, {"time": 186723, "pitch": 42, "duration": 60, "velocity": 107}, {"time": 186723, "pitch": 54, "duration": 60, "velocity": 75}, {"time": 186843, "pitch": 54, "duration": 61, "velocity": 55}, {"time": 186964, "pitch": 42, "duration": 60, "velocity": 64}, {"time": 186964, "pitch": 54, "duration": 60, "velocity": 85}, {"time": 187084, "pitch": 54, "duration": 60, "velocity": 55}, {"time": 187205, "pitch": 35, "duration": 58, "velocity": 105}, {"time": 187205, "pitch": 38, "duration": 58, "velocity": 100}, {"time": 187205, "pitch": 42, "duration": 58, "velocity": 85}, {"time": 187205, "pitch": 54, "duration": 58, "velocity": 75}, {"time": 187322, "pitch": 54, "duration": 59, "velocity": 55}, {"time": 187440, "pitch": 46, "duration": 59, "velocity": 107}, {"time": 187440, "pitch": 54, "duration": 59, "velocity": 85}, {"time": 187558, "pitch": 38, "duration": 59, "velocity": 114}, {"time": 187558, "pitch": 54, "duration": 59, "velocity": 55}, {"time": 187676, "pitch": 35, "duration": 60, "velocity": 127}, {"time": 187676, "pitch": 42, "duration": 60, "velocity": 94}, {"time": 187676, "pitch": 54, "duration": 60, "velocity": 75}, {"time": 187796, "pitch": 54, "duration": 60, "velocity": 55}, {"time": 187917, "pitch": 46, "duration": 60, "velocity": 105}, {"time": 187917, "pitch": 54, "duration": 60, "velocity": 85}, {"time": 188037, "pitch": 54, "duration": 60, "velocity": 55}, {"time": 188157, "pitch": 35, "duration": 61, "velocity": 110}, {"time": 188157, "pitch": 38, "duration": 61, "velocity": 105}, {"time": 188157, "pitch": 42, "duration": 61, "velocity": 91}, {"time": 188157, "pitch": 54, "duration": 61, "velocity": 75}, {"time": 188278, "pitch": 54, "duration": 60, "velocity": 55}, {"time": 188398, "pitch": 46, "duration": 60, "velocity": 107}, {"time": 188398, "pitch": 54, "duration": 60, "velocity": 85}, {"time": 188519, "pitch": 54, "duration": 60, "velocity": 55}, {"time": 188639, "pitch": 35, "duration": 60, "velocity": 114}, {"time": 188639, "pitch": 42, "duration": 60, "velocity": 107}, {"time": 188639, "pitch": 54, "duration": 60, "velocity": 75}, {"time": 188759, "pitch": 54, "duration": 61, "velocity": 55}, {"time": 188880, "pitch": 42, "duration": 60, "velocity": 64}, {"time": 188880, "pitch": 54, "duration": 60, "velocity": 85}, {"time": 189000, "pitch": 54, "duration": 60, "velocity": 55}, {"time": 189121, "pitch": 35, "duration": 60, "velocity": 105}, {"time": 189121, "pitch": 38, "duration": 60, "velocity": 100}, {"time": 189121, "pitch": 42, "duration": 60, "velocity": 85}, {"time": 189121, "pitch": 54, "duration": 60, "velocity": 75}, {"time": 189241, "pitch": 54, "duration": 60, "velocity": 55}, {"time": 189361, "pitch": 46, "duration": 61, "velocity": 107}, {"time": 189361, "pitch": 54, "duration": 61, "velocity": 85}, {"time": 189482, "pitch": 38, "duration": 60, "velocity": 114}, {"time": 189482, "pitch": 54, "duration": 60, "velocity": 55}, {"time": 189602, "pitch": 35, "duration": 60, "velocity": 127}, {"time": 189602, "pitch": 42, "duration": 60, "velocity": 94}, {"time": 189602, "pitch": 54, "duration": 60, "velocity": 75}, {"time": 189723, "pitch": 54, "duration": 60, "velocity": 55}, {"time": 189843, "pitch": 46, "duration": 60, "velocity": 105}, {"time": 189843, "pitch": 54, "duration": 60, "velocity": 85}, {"time": 189963, "pitch": 54, "duration": 61, "velocity": 55}, {"time": 190084, "pitch": 35, "duration": 59, "velocity": 110}, {"time": 190084, "pitch": 38, "duration": 59, "velocity": 105}, {"time": 190084, "pitch": 42, "duration": 59, "velocity": 91}, {"time": 190084, "pitch": 54, "duration": 59, "velocity": 75}, {"time": 190202, "pitch": 54, "duration": 58, "velocity": 55}, {"time": 190319, "pitch": 46, "duration": 59, "velocity": 107}, {"time": 190319, "pitch": 54, "duration": 59, "velocity": 85}, {"time": 190437, "pitch": 54, "duration": 59, "velocity": 55}, {"time": 190555, "pitch": 35, "duration": 60, "velocity": 114}, {"time": 190555, "pitch": 42, "duration": 60, "velocity": 107}, {"time": 190555, "pitch": 54, "duration": 60, "velocity": 75}, {"time": 190675, "pitch": 54, "duration": 61, "velocity": 55}, {"time": 190796, "pitch": 42, "duration": 60, "velocity": 64}, {"time": 190796, "pitch": 54, "duration": 60, "velocity": 85}, {"time": 190916, "pitch": 54, "duration": 60, "velocity": 55}, {"time": 191037, "pitch": 35, "duration": 60, "velocity": 105}, {"time": 191037, "pitch": 38, "duration": 60, "velocity": 100}, {"time": 191037, "pitch": 42, "duration": 60, "velocity": 85}, {"time": 191037, "pitch": 54, "duration": 60, "velocity": 75}, {"time": 191157, "pitch": 54, "duration": 60, "velocity": 55}, {"time": 191277, "pitch": 46, "duration": 61, "velocity": 107}, {"time": 191277, "pitch": 54, "duration": 61, "velocity": 85}, {"time": 191398, "pitch": 38, "duration": 60, "velocity": 114}, {"time": 191398, "pitch": 54, "duration": 60, "velocity": 55}, {"time": 191518, "pitch": 35, "duration": 60, "velocity": 127}, {"time": 191518, "pitch": 42, "duration": 60, "velocity": 94}, {"time": 191518, "pitch": 54, "duration": 60, "velocity": 75}, {"time": 191639, "pitch": 54, "duration": 60, "velocity": 55}, {"time": 191759, "pitch": 46, "duration": 60, "velocity": 105}, {"time": 191759, "pitch": 54, "duration": 60, "velocity": 85}, {"time": 191879, "pitch": 54, "duration": 61, "velocity": 55}, {"time": 192000, "pitch": 35, "duration": 60, "velocity": 110}, {"time": 192000, "pitch": 38, "duration": 60, "velocity": 105}, {"time": 192000, "pitch": 42, "duration": 60, "velocity": 91}, {"time": 192000, "pitch": 54, "duration": 60, "velocity": 75}, {"time": 192120, "pitch": 54, "duration": 60, "velocity": 55}, {"time": 192241, "pitch": 46, "duration": 60, "velocity": 107}, {"time": 192241, "pitch": 54, "duration": 60, "velocity": 85}, {"time": 192361, "pitch": 54, "duration": 60, "velocity": 55}, {"time": 192481, "pitch": 35, "duration": 61, "velocity": 114}, {"time": 192481, "pitch": 42, "duration": 61, "velocity": 107}, {"time": 192481, "pitch": 54, "duration": 61, "velocity": 75}, {"time": 192602, "pitch": 54, "duration": 60, "velocity": 55}, {"time": 192722, "pitch": 42, "duration": 60, "velocity": 64}, {"time": 192722, "pitch": 54, "duration": 60, "velocity": 85}, {"time": 192843, "pitch": 54, "duration": 60, "velocity": 55}, {"time": 192963, "pitch": 35, "duration": 60, "velocity": 105}, {"time": 192963, "pitch": 38, "duration": 60, "velocity": 100}, {"time": 192963, "pitch": 42, "duration": 60, "velocity": 85}, {"time": 192963, "pitch": 54, "duration": 60, "velocity": 75}, {"time": 193083, "pitch": 54, "duration": 61, "velocity": 55}, {"time": 193204, "pitch": 46, "duration": 60, "velocity": 107}, {"time": 193204, "pitch": 54, "duration": 60, "velocity": 85}, {"time": 193324, "pitch": 38, "duration": 60, "velocity": 114}, {"time": 193324, "pitch": 54, "duration": 60, "velocity": 55}, {"time": 193445, "pitch": 35, "duration": 58, "velocity": 127}, {"time": 193445, "pitch": 42, "duration": 58, "velocity": 94}, {"time": 193445, "pitch": 54, "duration": 58, "velocity": 75}, {"time": 193562, "pitch": 54, "duration": 59, "velocity": 55}, {"time": 193680, "pitch": 46, "duration": 59, "velocity": 105}, {"time": 193680, "pitch": 54, "duration": 59, "velocity": 85}, {"time": 193798, "pitch": 54, "duration": 59, "velocity": 55}, {"time": 193916, "pitch": 35, "duration": 60, "velocity": 110}, {"time": 193916, "pitch": 38, "duration": 60, "velocity": 105}, {"time": 193916, "pitch": 42, "duration": 60, "velocity": 91}, {"time": 193916, "pitch": 54, "duration": 60, "velocity": 75}, {"time": 194036, "pitch": 54, "duration": 60, "velocity": 55}, {"time": 194157, "pitch": 46, "duration": 60, "velocity": 107}, {"time": 194157, "pitch": 54, "duration": 60, "velocity": 85}, {"time": 194277, "pitch": 54, "duration": 60, "velocity": 55}, {"time": 194397, "pitch": 35, "duration": 61, "velocity": 114}, {"time": 194397, "pitch": 42, "duration": 61, "velocity": 107}, {"time": 194397, "pitch": 54, "duration": 61, "velocity": 75}, {"time": 194518, "pitch": 54, "duration": 60, "velocity": 55}, {"time": 194638, "pitch": 42, "duration": 60, "velocity": 64}, {"time": 194638, "pitch": 54, "duration": 60, "velocity": 85}, {"time": 194759, "pitch": 54, "duration": 60, "velocity": 55}, {"time": 194879, "pitch": 35, "duration": 60, "velocity": 105}, {"time": 194879, "pitch": 38, "duration": 60, "velocity": 100}, {"time": 194879, "pitch": 42, "duration": 60, "velocity": 85}, {"time": 194879, "pitch": 54, "duration": 60, "velocity": 75}, {"time": 194999, "pitch": 54, "duration": 61, "velocity": 55}, {"time": 195120, "pitch": 46, "duration": 60, "velocity": 107}, {"time": 195120, "pitch": 54, "duration": 60, "velocity": 85}, {"time": 195240, "pitch": 38, "duration": 60, "velocity": 114}, {"time": 195240, "pitch": 54, "duration": 60, "velocity": 55}, {"time": 195361, "pitch": 35, "duration": 60, "velocity": 127}, {"time": 195361, "pitch": 42, "duration": 60, "velocity": 94}, {"time": 195361, "pitch": 54, "duration": 60, "velocity": 75}, {"time": 195481, "pitch": 54, "duration": 60, "velocity": 55}, {"time": 195601, "pitch": 46, "duration": 61, "velocity": 105}, {"time": 195601, "pitch": 54, "duration": 61, "velocity": 85}, {"time": 195722, "pitch": 54, "duration": 60, "velocity": 55}, {"time": 195842, "pitch": 35, "duration": 60, "velocity": 110}, {"time": 195842, "pitch": 38, "duration": 60, "velocity": 105}, {"time": 195842, "pitch": 42, "duration": 60, "velocity": 91}, {"time": 195842, "pitch": 54, "duration": 60, "velocity": 75}, {"time": 195963, "pitch": 54, "duration": 60, "velocity": 55}, {"time": 196083, "pitch": 46, "duration": 60, "velocity": 107}, {"time": 196083, "pitch": 54, "duration": 60, "velocity": 85}, {"time": 196203, "pitch": 54, "duration": 61, "velocity": 55}, {"time": 196324, "pitch": 35, "duration": 59, "velocity": 114}, {"time": 196324, "pitch": 42, "duration": 59, "velocity": 107}, {"time": 196324, "pitch": 54, "duration": 59, "velocity": 75}, {"time": 196442, "pitch": 54, "duration": 58, "velocity": 55}, {"time": 196559, "pitch": 42, "duration": 59, "velocity": 64}, {"time": 196559, "pitch": 54, "duration": 59, "velocity": 85}, {"time": 196677, "pitch": 54, "duration": 59, "velocity": 55}, {"time": 196795, "pitch": 35, "duration": 60, "velocity": 105}, {"time": 196795, "pitch": 38, "duration": 60, "velocity": 100}, {"time": 196795, "pitch": 42, "duration": 60, "velocity": 85}, {"time": 196795, "pitch": 54, "duration": 60, "velocity": 75}, {"time": 196915, "pitch": 54, "duration": 61, "velocity": 55}, {"time": 197036, "pitch": 46, "duration": 60, "velocity": 107}, {"time": 197036, "pitch": 54, "duration": 60, "velocity": 85}, {"time": 197156, "pitch": 38, "duration": 60, "velocity": 114}, {"time": 197156, "pitch": 54, "duration": 60, "velocity": 55}, {"time": 197277, "pitch": 35, "duration": 60, "velocity": 127}, {"time": 197277, "pitch": 42, "duration": 60, "velocity": 94}, {"time": 197277, "pitch": 54, "duration": 60, "velocity": 75}, {"time": 197397, "pitch": 54, "duration": 60, "velocity": 55}, {"time": 197517, "pitch": 46, "duration": 61, "velocity": 105}, {"time": 197517, "pitch": 54, "duration": 61, "velocity": 85}, {"time": 197638, "pitch": 54, "duration": 60, "velocity": 55}, {"time": 197758, "pitch": 35, "duration": 60, "velocity": 110}, {"time": 197758, "pitch": 38, "duration": 60, "velocity": 105}, {"time": 197758, "pitch": 42, "duration": 60, "velocity": 91}, {"time": 197758, "pitch": 54, "duration": 60, "velocity": 75}, {"time": 197879, "pitch": 54, "duration": 60, "velocity": 55}, {"time": 197999, "pitch": 46, "duration": 60, "velocity": 107}, {"time": 197999, "pitch": 54, "duration": 60, "velocity": 85}, {"time": 198119, "pitch": 54, "duration": 61, "velocity": 55}, {"time": 198240, "pitch": 35, "duration": 60, "velocity": 114}, {"time": 198240, "pitch": 42, "duration": 60, "velocity": 107}, {"time": 198240, "pitch": 54, "duration": 60, "velocity": 75}, {"time": 198360, "pitch": 54, "duration": 60, "velocity": 55}, {"time": 198481, "pitch": 42, "duration": 60, "velocity": 64}, {"time": 198481, "pitch": 54, "duration": 60, "velocity": 85}, {"time": 198601, "pitch": 54, "duration": 60, "velocity": 55}, {"time": 198721, "pitch": 35, "duration": 61, "velocity": 105}, {"time": 198721, "pitch": 38, "duration": 61, "velocity": 100}, {"time": 198721, "pitch": 42, "duration": 61, "velocity": 85}, {"time": 198721, "pitch": 54, "duration": 61, "velocity": 75}, {"time": 198842, "pitch": 54, "duration": 60, "velocity": 55}, {"time": 198962, "pitch": 46, "duration": 60, "velocity": 107}, {"time": 198962, "pitch": 54, "duration": 60, "velocity": 85}, {"time": 199083, "pitch": 38, "duration": 60, "velocity": 114}, {"time": 199083, "pitch": 54, "duration": 60, "velocity": 55}, {"time": 199203, "pitch": 35, "duration": 60, "velocity": 127}, {"time": 199203, "pitch": 42, "duration": 60, "velocity": 94}, {"time": 199203, "pitch": 54, "duration": 60, "velocity": 75}, {"time": 199323, "pitch": 54, "duration": 61, "velocity": 55}, {"time": 199444, "pitch": 46, "duration": 60, "velocity": 105}, {"time": 199444, "pitch": 54, "duration": 60, "velocity": 85}, {"time": 199564, "pitch": 54, "duration": 60, "velocity": 55}, {"time": 199685, "pitch": 35, "duration": 58, "velocity": 110}, {"time": 199685, "pitch": 38, "duration": 58, "velocity": 105}, {"time": 199685, "pitch": 42, "duration": 58, "velocity": 91}, {"time": 199685, "pitch": 54, "duration": 58, "velocity": 75}, {"time": 199802, "pitch": 54, "duration": 59, "velocity": 55}, {"time": 199920, "pitch": 46, "duration": 59, "velocity": 107}, {"time": 199920, "pitch": 54, "duration": 59, "velocity": 85}, {"time": 200038, "pitch": 54, "duration": 59, "velocity": 55}, {"time": 200156, "pitch": 35, "duration": 60, "velocity": 114}, {"time": 200156, "pitch": 42, "duration": 60, "velocity": 107}, {"time": 200156, "pitch": 54, "duration": 60, "velocity": 75}, {"time": 200276, "pitch": 54, "duration": 60, "velocity": 55}, {"time": 200397, "pitch": 42, "duration": 60, "velocity": 64}, {"time": 200397, "pitch": 54, "duration": 60, "velocity": 85}, {"time": 200517, "pitch": 54, "duration": 60, "velocity": 55}, {"time": 200637, "pitch": 35, "duration": 61, "velocity": 105}, {"time": 200637, "pitch": 38, "duration": 61, "velocity": 100}, {"time": 200637, "pitch": 42, "duration": 61, "velocity": 85}, {"time": 200637, "pitch": 54, "duration": 61, "velocity": 75}, {"time": 200758, "pitch": 54, "duration": 60, "velocity": 55}, {"time": 200878, "pitch": 46, "duration": 60, "velocity": 107}, {"time": 200878, "pitch": 54, "duration": 60, "velocity": 85}, {"time": 200999, "pitch": 38, "duration": 60, "velocity": 114}, {"time": 200999, "pitch": 54, "duration": 60, "velocity": 55}, {"time": 201119, "pitch": 35, "duration": 60, "velocity": 127}, {"time": 201119, "pitch": 42, "duration": 60, "velocity": 94}, {"time": 201119, "pitch": 54, "duration": 60, "velocity": 75}, {"time": 201239, "pitch": 54, "duration": 61, "velocity": 55}, {"time": 201360, "pitch": 46, "duration": 60, "velocity": 105}, {"time": 201360, "pitch": 54, "duration": 60, "velocity": 85}, {"time": 201480, "pitch": 54, "duration": 60, "velocity": 55}, {"time": 201601, "pitch": 35, "duration": 60, "velocity": 110}, {"time": 201601, "pitch": 38, "duration": 60, "velocity": 105}, {"time": 201601, "pitch": 42, "duration": 60, "velocity": 91}, {"time": 201601, "pitch": 54, "duration": 60, "velocity": 75}, {"time": 201721, "pitch": 54, "duration": 60, "velocity": 55}, {"time": 201841, "pitch": 46, "duration": 61, "velocity": 107}, {"time": 201841, "pitch": 54, "duration": 61, "velocity": 85}, {"time": 201962, "pitch": 54, "duration": 60, "velocity": 55}, {"time": 202082, "pitch": 35, "duration": 60, "velocity": 114}, {"time": 202082, "pitch": 42, "duration": 60, "velocity": 107}, {"time": 202082, "pitch": 54, "duration": 60, "velocity": 75}, {"time": 202203, "pitch": 54, "duration": 60, "velocity": 55}, {"time": 202323, "pitch": 42, "duration": 60, "velocity": 64}, {"time": 202323, "pitch": 54, "duration": 60, "velocity": 85}, {"time": 202443, "pitch": 54, "duration": 61, "velocity": 55}, {"time": 202564, "pitch": 35, "duration": 59, "velocity": 105}, {"time": 202564, "pitch": 38, "duration": 59, "velocity": 100}, {"time": 202564, "pitch": 42, "duration": 59, "velocity": 85}, {"time": 202564, "pitch": 54, "duration": 59, "velocity": 75}, {"time": 202682, "pitch": 54, "duration": 58, "velocity": 55}, {"time": 202799, "pitch": 46, "duration": 59, "velocity": 107}, {"time": 202799, "pitch": 54, "duration": 59, "velocity": 85}, {"time": 202917, "pitch": 38, "duration": 59, "velocity": 114}, {"time": 202917, "pitch": 54, "duration": 59, "velocity": 55}, {"time": 203035, "pitch": 35, "duration": 60, "velocity": 127}, {"time": 203035, "pitch": 42, "duration": 60, "velocity": 94}, {"time": 203035, "pitch": 54, "duration": 60, "velocity": 75}, {"time": 203155, "pitch": 54, "duration": 61, "velocity": 55}, {"time": 203276, "pitch": 46, "duration": 60, "velocity": 105}, {"time": 203276, "pitch": 54, "duration": 60, "velocity": 85}, {"time": 203396, "pitch": 54, "duration": 60, "velocity": 55}, {"time": 203517, "pitch": 35, "duration": 60, "velocity": 110}, {"time": 203517, "pitch": 38, "duration": 60, "velocity": 105}, {"time": 203517, "pitch": 42, "duration": 60, "velocity": 91}, {"time": 203517, "pitch": 54, "duration": 60, "velocity": 75}, {"time": 203637, "pitch": 54, "duration": 60, "velocity": 55}, {"time": 203757, "pitch": 46, "duration": 61, "velocity": 107}, {"time": 203757, "pitch": 54, "duration": 61, "velocity": 85}, {"time": 203878, "pitch": 54, "duration": 60, "velocity": 55}, {"time": 203998, "pitch": 35, "duration": 60, "velocity": 114}, {"time": 203998, "pitch": 42, "duration": 60, "velocity": 107}, {"time": 203998, "pitch": 54, "duration": 60, "velocity": 75}, {"time": 204119, "pitch": 54, "duration": 60, "velocity": 55}, {"time": 204239, "pitch": 42, "duration": 60, "velocity": 64}, {"time": 204239, "pitch": 54, "duration": 60, "velocity": 85}, {"time": 204359, "pitch": 54, "duration": 61, "velocity": 55}, {"time": 204480, "pitch": 35, "duration": 60, "velocity": 105}, {"time": 204480, "pitch": 38, "duration": 60, "velocity": 100}, {"time": 204480, "pitch": 42, "duration": 60, "velocity": 85}, {"time": 204480, "pitch": 54, "duration": 60, "velocity": 75}, {"time": 204600, "pitch": 54, "duration": 60, "velocity": 55}, {"time": 204721, "pitch": 46, "duration": 60, "velocity": 107}, {"time": 204721, "pitch": 54, "duration": 60, "velocity": 85}, {"time": 204841, "pitch": 38, "duration": 60, "velocity": 114}, {"time": 204841, "pitch": 54, "duration": 60, "velocity": 55}, {"time": 204961, "pitch": 35, "duration": 61, "velocity": 127}, {"time": 204961, "pitch": 42, "duration": 61, "velocity": 94}, {"time": 204961, "pitch": 54, "duration": 61, "velocity": 75}, {"time": 205082, "pitch": 54, "duration": 60, "velocity": 55}, {"time": 205202, "pitch": 46, "duration": 60, "velocity": 105}, {"time": 205202, "pitch": 54, "duration": 60, "velocity": 85}, {"time": 205323, "pitch": 54, "duration": 60, "velocity": 55}, {"time": 205443, "pitch": 35, "duration": 60, "velocity": 110}, {"time": 205443, "pitch": 38, "duration": 60, "velocity": 105}, {"time": 205443, "pitch": 42, "duration": 60, "velocity": 91}, {"time": 205443, "pitch": 54, "duration": 60, "velocity": 75}, {"time": 205563, "pitch": 54, "duration": 61, "velocity": 55}, {"time": 205684, "pitch": 46, "duration": 60, "velocity": 107}, {"time": 205684, "pitch": 54, "duration": 60, "velocity": 85}, {"time": 205804, "pitch": 54, "duration": 60, "velocity": 55}, {"time": 205925, "pitch": 35, "duration": 58, "velocity": 114}, {"time": 205925, "pitch": 42, "duration": 58, "velocity": 107}, {"time": 205925, "pitch": 54, "duration": 58, "velocity": 75}, {"time": 206042, "pitch": 54, "duration": 59, "velocity": 55}, {"time": 206160, "pitch": 42, "duration": 59, "velocity": 64}, {"time": 206160, "pitch": 54, "duration": 59, "velocity": 85}, {"time": 206278, "pitch": 54, "duration": 59, "velocity": 55}, {"time": 206396, "pitch": 35, "duration": 60, "velocity": 105}, {"time": 206396, "pitch": 38, "duration": 60, "velocity": 100}, {"time": 206396, "pitch": 42, "duration": 60, "velocity": 85}, {"time": 206396, "pitch": 54, "duration": 60, "velocity": 75}, {"time": 206516, "pitch": 54, "duration": 60, "velocity": 55}, {"time": 206637, "pitch": 46, "duration": 60, "velocity": 107}, {"time": 206637, "pitch": 54, "duration": 60, "velocity": 85}, {"time": 206757, "pitch": 38, "duration": 60, "velocity": 114}, {"time": 206757, "pitch": 54, "duration": 60, "velocity": 55}, {"time": 206877, "pitch": 35, "duration": 61, "velocity": 127}, {"time": 206877, "pitch": 42, "duration": 61, "velocity": 94}, {"time": 206877, "pitch": 54, "duration": 61, "velocity": 75}, {"time": 206998, "pitch": 54, "duration": 60, "velocity": 55}, {"time": 207118, "pitch": 46, "duration": 60, "velocity": 105}, {"time": 207118, "pitch": 54, "duration": 60, "velocity": 85}, {"time": 207239, "pitch": 54, "duration": 60, "velocity": 55}, {"time": 207359, "pitch": 35, "duration": 60, "velocity": 110}, {"time": 207359, "pitch": 38, "duration": 60, "velocity": 105}, {"time": 207359, "pitch": 42, "duration": 60, "velocity": 91}, {"time": 207359, "pitch": 54, "duration": 60, "velocity": 75}, {"time": 207479, "pitch": 54, "duration": 61, "velocity": 55}, {"time": 207600, "pitch": 46, "duration": 60, "velocity": 107}, {"time": 207600, "pitch": 54, "duration": 60, "velocity": 85}, {"time": 207720, "pitch": 54, "duration": 60, "velocity": 55}, {"time": 207841, "pitch": 35, "duration": 60, "velocity": 114}, {"time": 207841, "pitch": 42, "duration": 60, "velocity": 107}, {"time": 207841, "pitch": 54, "duration": 60, "velocity": 75}, {"time": 207961, "pitch": 54, "duration": 60, "velocity": 55}, {"time": 208081, "pitch": 42, "duration": 61, "velocity": 64}, {"time": 208081, "pitch": 54, "duration": 61, "velocity": 85}, {"time": 208202, "pitch": 54, "duration": 60, "velocity": 55}, {"time": 208322, "pitch": 35, "duration": 60, "velocity": 105}, {"time": 208322, "pitch": 38, "duration": 60, "velocity": 100}, {"time": 208322, "pitch": 42, "duration": 60, "velocity": 85}, {"time": 208322, "pitch": 54, "duration": 60, "velocity": 75}, {"time": 208443, "pitch": 54, "duration": 60, "velocity": 55}, {"time": 208563, "pitch": 46, "duration": 60, "velocity": 107}, {"time": 208563, "pitch": 54, "duration": 60, "velocity": 85}, {"time": 208683, "pitch": 38, "duration": 61, "velocity": 114}, {"time": 208683, "pitch": 54, "duration": 61, "velocity": 55}, {"time": 208804, "pitch": 35, "duration": 59, "velocity": 127}, {"time": 208804, "pitch": 42, "duration": 59, "velocity": 94}, {"time": 208804, "pitch": 54, "duration": 59, "velocity": 75}, {"time": 208922, "pitch": 54, "duration": 58, "velocity": 55}, {"time": 209039, "pitch": 46, "duration": 59, "velocity": 105}, {"time": 209039, "pitch": 54, "duration": 59, "velocity": 85}, {"time": 209157, "pitch": 54, "duration": 59, "velocity": 55}, {"time": 209275, "pitch": 35, "duration": 60, "velocity": 110}, {"time": 209275, "pitch": 38, "duration": 60, "velocity": 105}, {"time": 209275, "pitch": 42, "duration": 60, "velocity": 91}, {"time": 209275, "pitch": 54, "duration": 60, "velocity": 75}, {"time": 209395, "pitch": 54, "duration": 61, "velocity": 55}, {"time": 209516, "pitch": 46, "duration": 60, "velocity": 107}, {"time": 209516, "pitch": 54, "duration": 60, "velocity": 85}, {"time": 209636, "pitch": 54, "duration": 60, "velocity": 55}, {"time": 209757, "pitch": 35, "duration": 60, "velocity": 114}, {"time": 209757, "pitch": 42, "duration": 60, "velocity": 107}, {"time": 209757, "pitch": 54, "duration": 60, "velocity": 75}, {"time": 209877, "pitch": 54, "duration": 60, "velocity": 55}, {"time": 209997, "pitch": 42, "duration": 61, "velocity": 64}, {"time": 209997, "pitch": 54, "duration": 61, "velocity": 85}, {"time": 210118, "pitch": 54, "duration": 60, "velocity": 55}, {"time": 210238, "pitch": 35, "duration": 60, "velocity": 105}, {"time": 210238, "pitch": 38, "duration": 60, "velocity": 100}, {"time": 210238, "pitch": 42, "duration": 60, "velocity": 85}, {"time": 210238, "pitch": 54, "duration": 60, "velocity": 75}, {"time": 210359, "pitch": 54, "duration": 60, "velocity": 55}, {"time": 210479, "pitch": 46, "duration": 60, "velocity": 107}, {"time": 210479, "pitch": 54, "duration": 60, "velocity": 85}, {"time": 210599, "pitch": 38, "duration": 61, "velocity": 114}, {"time": 210599, "pitch": 54, "duration": 61, "velocity": 55}, {"time": 210720, "pitch": 35, "duration": 60, "velocity": 127}, {"time": 210720, "pitch": 42, "duration": 60, "velocity": 94}, {"time": 210720, "pitch": 54, "duration": 60, "velocity": 75}, {"time": 210840, "pitch": 54, "duration": 60, "velocity": 55}, {"time": 210961, "pitch": 46, "duration": 60, "velocity": 105}, {"time": 210961, "pitch": 54, "duration": 60, "velocity": 85}, {"time": 211081, "pitch": 54, "duration": 60, "velocity": 55}, {"time": 211201, "pitch": 35, "duration": 61, "velocity": 110}, {"time": 211201, "pitch": 38, "duration": 61, "velocity": 105}, {"time": 211201, "pitch": 42, "duration": 61, "velocity": 91}, {"time": 211201, "pitch": 54, "duration": 61, "velocity": 75}, {"time": 211322, "pitch": 54, "duration": 60, "velocity": 55}, {"time": 211442, "pitch": 46, "duration": 60, "velocity": 107}, {"time": 211442, "pitch": 54, "duration": 60, "velocity": 85}, {"time": 211563, "pitch": 54, "duration": 60, "velocity": 55}, {"time": 227042, "pitch": 35, "duration": 60, "velocity": 114}, {"time": 227042, "pitch": 42, "duration": 60, "velocity": 107}, {"time": 227042, "pitch": 54, "duration": 60, "velocity": 75}, {"time": 227163, "pitch": 54, "duration": 60, "velocity": 55}, {"time": 227283, "pitch": 42, "duration": 60, "velocity": 64}, {"time": 227283, "pitch": 54, "duration": 60, "velocity": 85}, {"time": 227403, "pitch": 54, "duration": 61, "velocity": 55}, {"time": 227524, "pitch": 35, "duration": 59, "velocity": 105}, {"time": 227524, "pitch": 38, "duration": 59, "velocity": 100}, {"time": 227524, "pitch": 42, "duration": 59, "velocity": 85}, {"time": 227524, "pitch": 54, "duration": 59, "velocity": 75}, {"time": 227642, "pitch": 54, "duration": 58, "velocity": 55}, {"time": 227759, "pitch": 46, "duration": 59, "velocity": 107}, {"time": 227759, "pitch": 54, "duration": 59, "velocity": 85}, {"time": 227877, "pitch": 38, "duration": 59, "velocity": 114}, {"time": 227877, "pitch": 54, "duration": 59, "velocity": 55}, {"time": 227995, "pitch": 35, "duration": 60, "velocity": 127}, {"time": 227995, "pitch": 42, "duration": 60, "velocity": 94}, {"time": 227995, "pitch": 54, "duration": 60, "velocity": 75}, {"time": 228115, "pitch": 54, "duration": 61, "velocity": 55}, {"time": 228236, "pitch": 46, "duration": 60, "velocity": 105}, {"time": 228236, "pitch": 54, "duration": 60, "velocity": 85}, {"time": 228356, "pitch": 54, "duration": 60, "velocity": 55}, {"time": 228477, "pitch": 35, "duration": 60, "velocity": 110}, {"time": 228477, "pitch": 38, "duration": 60, "velocity": 105}, {"time": 228477, "pitch": 42, "duration": 60, "velocity": 91}, {"time": 228477, "pitch": 54, "duration": 60, "velocity": 75}, {"time": 228597, "pitch": 54, "duration": 60, "velocity": 55}, {"time": 228717, "pitch": 46, "duration": 61, "velocity": 107}, {"time": 228717, "pitch": 54, "duration": 61, "velocity": 85}, {"time": 228838, "pitch": 54, "duration": 60, "velocity": 55}, {"time": 228958, "pitch": 35, "duration": 60, "velocity": 114}, {"time": 228958, "pitch": 42, "duration": 60, "velocity": 107}, {"time": 228958, "pitch": 54, "duration": 60, "velocity": 75}, {"time": 229079, "pitch": 54, "duration": 60, "velocity": 55}, {"time": 229199, "pitch": 42, "duration": 60, "velocity": 64}, {"time": 229199, "pitch": 54, "duration": 60, "velocity": 85}, {"time": 229319, "pitch": 54, "duration": 61, "velocity": 55}, {"time": 229440, "pitch": 35, "duration": 60, "velocity": 105}, {"time": 229440, "pitch": 38, "duration": 60, "velocity": 100}, {"time": 229440, "pitch": 42, "duration": 60, "velocity": 85}, {"time": 229440, "pitch": 54, "duration": 60, "velocity": 75}, {"time": 229560, "pitch": 54, "duration": 60, "velocity": 55}, {"time": 229681, "pitch": 46, "duration": 60, "velocity": 107}, {"time": 229681, "pitch": 54, "duration": 60, "velocity": 85}, {"time": 229801, "pitch": 38, "duration": 60, "velocity": 114}, {"time": 229801, "pitch": 54, "duration": 60, "velocity": 55}, {"time": 229921, "pitch": 35, "duration": 61, "velocity": 127}, {"time": 229921, "pitch": 42, "duration": 61, "velocity": 94}, {"time": 229921, "pitch": 54, "duration": 61, "velocity": 75}, {"time": 230042, "pitch": 54, "duration": 60, "velocity": 55}, {"time": 230162, "pitch": 46, "duration": 60, "velocity": 105}, {"time": 230162, "pitch": 54, "duration": 60, "velocity": 85}, {"time": 230283, "pitch": 54, "duration": 60, "velocity": 55}, {"time": 230403, "pitch": 35, "duration": 60, "velocity": 110}, {"time": 230403, "pitch": 38, "duration": 60, "velocity": 105}, {"time": 230403, "pitch": 42, "duration": 60, "velocity": 91}, {"time": 230403, "pitch": 54, "duration": 60, "velocity": 75}, {"time": 230523, "pitch": 54, "duration": 61, "velocity": 55}, {"time": 230644, "pitch": 46, "duration": 60, "velocity": 107}, {"time": 230644, "pitch": 54, "duration": 60, "velocity": 85}, {"time": 230764, "pitch": 54, "duration": 60, "velocity": 55}, {"time": 230884, "pitch": 35, "duration": 59, "velocity": 114}, {"time": 230884, "pitch": 42, "duration": 59, "velocity": 107}, {"time": 230884, "pitch": 54, "duration": 59, "velocity": 75}, {"time": 231002, "pitch": 54, "duration": 59, "velocity": 55}, {"time": 231120, "pitch": 42, "duration": 59, "velocity": 64}, {"time": 231120, "pitch": 54, "duration": 59, "velocity": 85}, {"time": 231238, "pitch": 54, "duration": 59, "velocity": 55}, {"time": 231356, "pitch": 35, "duration": 60, "velocity": 105}, {"time": 231356, "pitch": 38, "duration": 60, "velocity": 100}, {"time": 231356, "pitch": 42, "duration": 60, "velocity": 85}, {"time": 231356, "pitch": 54, "duration": 60, "velocity": 75}, {"time": 231476, "pitch": 54, "duration": 60, "velocity": 55}, {"time": 231597, "pitch": 46, "duration": 60, "velocity": 107}, {"time": 231597, "pitch": 54, "duration": 60, "velocity": 85}, {"time": 231717, "pitch": 38, "duration": 60, "velocity": 114}, {"time": 231717, "pitch": 54, "duration": 60, "velocity": 55}, {"time": 231837, "pitch": 35, "duration": 61, "velocity": 127}, {"time": 231837, "pitch": 42, "duration": 61, "velocity": 94}, {"time": 231837, "pitch": 54, "duration": 61, "velocity": 75}, {"time": 231958, "pitch": 54, "duration": 60, "velocity": 55}, {"time": 232078, "pitch": 46, "duration": 60, "velocity": 105}, {"time": 232078, "pitch": 54, "duration": 60, "velocity": 85}, {"time": 232199, "pitch": 54, "duration": 60, "velocity": 55}, {"time": 232319, "pitch": 35, "duration": 60, "velocity": 110}, {"time": 232319, "pitch": 38, "duration": 60, "velocity": 105}, {"time": 232319, "pitch": 42, "duration": 60, "velocity": 91}, {"time": 232319, "pitch": 54, "duration": 60, "velocity": 75}, {"time": 232439, "pitch": 54, "duration": 61, "velocity": 55}, {"time": 232560, "pitch": 46, "duration": 60, "velocity": 107}, {"time": 232560, "pitch": 54, "duration": 60, "velocity": 85}, {"time": 232680, "pitch": 54, "duration": 60, "velocity": 55}, {"time": 232801, "pitch": 35, "duration": 60, "velocity": 114}, {"time": 232801, "pitch": 42, "duration": 60, "velocity": 107}, {"time": 232801, "pitch": 54, "duration": 60, "velocity": 75}, {"time": 232921, "pitch": 54, "duration": 60, "velocity": 55}, {"time": 233041, "pitch": 42, "duration": 61, "velocity": 64}, {"time": 233041, "pitch": 54, "duration": 61, "velocity": 85}, {"time": 233162, "pitch": 54, "duration": 60, "velocity": 55}, {"time": 233282, "pitch": 35, "duration": 60, "velocity": 105}, {"time": 233282, "pitch": 38, "duration": 60, "velocity": 100}, {"time": 233282, "pitch": 42, "duration": 60, "velocity": 85}, {"time": 233282, "pitch": 54, "duration": 60, "velocity": 75}, {"time": 233403, "pitch": 54, "duration": 60, "velocity": 55}, {"time": 233523, "pitch": 46, "duration": 60, "velocity": 107}, {"time": 233523, "pitch": 54, "duration": 60, "velocity": 85}, {"time": 233643, "pitch": 38, "duration": 61, "velocity": 114}, {"time": 233643, "pitch": 54, "duration": 61, "velocity": 55}, {"time": 233764, "pitch": 35, "duration": 59, "velocity": 127}, {"time": 233764, "pitch": 42, "duration": 59, "velocity": 94}, {"time": 233764, "pitch": 54, "duration": 59, "velocity": 75}, {"time": 233882, "pitch": 54, "duration": 58, "velocity": 55}, {"time": 233999, "pitch": 46, "duration": 59, "velocity": 105}, {"time": 233999, "pitch": 54, "duration": 59, "velocity": 85}, {"time": 234117, "pitch": 54, "duration": 59, "velocity": 55}, {"time": 234235, "pitch": 35, "duration": 60, "velocity": 110}, {"time": 234235, "pitch": 38, "duration": 60, "velocity": 105}, {"time": 234235, "pitch": 42, "duration": 60, "velocity": 91}, {"time": 234235, "pitch": 54, "duration": 60, "velocity": 75}, {"time": 234355, "pitch": 54, "duration": 61, "velocity": 55}, {"time": 234476, "pitch": 46, "duration": 60, "velocity": 107}, {"time": 234476, "pitch": 54, "duration": 60, "velocity": 85}, {"time": 234596, "pitch": 54, "duration": 60, "velocity": 55}, {"time": 234717, "pitch": 35, "duration": 60, "velocity": 114}, {"time": 234717, "pitch": 42, "duration": 60, "velocity": 107}, {"time": 234717, "pitch": 54, "duration": 60, "velocity": 75}, {"time": 234837, "pitch": 54, "duration": 60, "velocity": 55}, {"time": 234957, "pitch": 42, "duration": 61, "velocity": 64}, {"time": 234957, "pitch": 54, "duration": 61, "velocity": 85}, {"time": 235078, "pitch": 54, "duration": 60, "velocity": 55}, {"time": 235198, "pitch": 35, "duration": 60, "velocity": 105}, {"time": 235198, "pitch": 38, "duration": 60, "velocity": 100}, {"time": 235198, "pitch": 42, "duration": 60, "velocity": 85}, {"time": 235198, "pitch": 54, "duration": 60, "velocity": 75}, {"time": 235319, "pitch": 54, "duration": 60, "velocity": 55}, {"time": 235439, "pitch": 46, "duration": 60, "velocity": 107}, {"time": 235439, "pitch": 54, "duration": 60, "velocity": 85}, {"time": 235559, "pitch": 38, "duration": 61, "velocity": 114}, {"time": 235559, "pitch": 54, "duration": 61, "velocity": 55}, {"time": 235680, "pitch": 35, "duration": 60, "velocity": 127}, {"time": 235680, "pitch": 42, "duration": 60, "velocity": 94}, {"time": 235680, "pitch": 54, "duration": 60, "velocity": 75}, {"time": 235800, "pitch": 54, "duration": 60, "velocity": 55}, {"time": 235921, "pitch": 46, "duration": 60, "velocity": 105}, {"time": 235921, "pitch": 54, "duration": 60, "velocity": 85}, {"time": 236041, "pitch": 54, "duration": 60, "velocity": 55}, {"time": 236161, "pitch": 35, "duration": 61, "velocity": 110}, {"time": 236161, "pitch": 38, "duration": 61, "velocity": 105}, {"time": 236161, "pitch": 42, "duration": 61, "velocity": 91}, {"time": 236161, "pitch": 54, "duration": 61, "velocity": 75}, {"time": 236282, "pitch": 54, "duration": 60, "velocity": 55}, {"time": 236402, "pitch": 46, "duration": 60, "velocity": 107}, {"time": 236402, "pitch": 54, "duration": 60, "velocity": 85}, {"time": 236523, "pitch": 54, "duration": 60, "velocity": 55}, {"time": 236643, "pitch": 35, "duration": 60, "velocity": 114}, {"time": 236643, "pitch": 42, "duration": 60, "velocity": 107}, {"time": 236643, "pitch": 54, "duration": 60, "velocity": 75}, {"time": 236763, "pitch": 54, "duration": 61, "velocity": 55}, {"time": 236884, "pitch": 42, "duration": 60, "velocity": 64}, {"time": 236884, "pitch": 54, "duration": 60, "velocity": 85}, {"time": 237004, "pitch": 54, "duration": 60, "velocity": 55}, {"time": 237124, "pitch": 35, "duration": 59, "velocity": 105}, {"time": 237124, "pitch": 38, "duration": 59, "velocity": 100}, {"time": 237124, "pitch": 42, "duration": 59, "velocity": 85}, {"time": 237124, "pitch": 54, "duration": 59, "velocity": 75}, {"time": 237242, "pitch": 54, "duration": 59, "velocity": 55}, {"time": 237360, "pitch": 46, "duration": 59, "velocity": 107}, {"time": 237360, "pitch": 54, "duration": 59, "velocity": 85}, {"time": 237478, "pitch": 38, "duration": 59, "velocity": 114}, {"time": 237478, "pitch": 54, "duration": 59, "velocity": 55}, {"time": 237596, "pitch": 35, "duration": 60, "velocity": 127}, {"time": 237596, "pitch": 42, "duration": 60, "velocity": 94}, {"time": 237596, "pitch": 54, "duration": 60, "velocity": 75}, {"time": 237716, "pitch": 54, "duration": 60, "velocity": 55}, {"time": 237837, "pitch": 46, "duration": 60, "velocity": 105}, {"time": 237837, "pitch": 54, "duration": 60, "velocity": 85}, {"time": 237957, "pitch": 54, "duration": 60, "velocity": 55}, {"time": 238077, "pitch": 35, "duration": 61, "velocity": 110}, {"time": 238077, "pitch": 38, "duration": 61, "velocity": 105}, {"time": 238077, "pitch": 42, "duration": 61, "velocity": 91}, {"time": 238077, "pitch": 54, "duration": 61, "velocity": 75}, {"time": 238198, "pitch": 54, "duration": 60, "velocity": 55}, {"time": 238318, "pitch": 46, "duration": 60, "velocity": 107}, {"time": 238318, "pitch": 54, "duration": 60, "velocity": 85}, {"time": 238439, "pitch": 54, "duration": 60, "velocity": 55}, {"time": 238559, "pitch": 35, "duration": 60, "velocity": 114}, {"time": 238559, "pitch": 42, "duration": 60, "velocity": 107}, {"time": 238559, "pitch": 54, "duration": 60, "velocity": 75}, {"time": 238679, "pitch": 54, "duration": 61, "velocity": 55}, {"time": 238800, "pitch": 42, "duration": 60, "velocity": 64}, {"time": 238800, "pitch": 54, "duration": 60, "velocity": 85}, {"time": 238920, "pitch": 54, "duration": 60, "velocity": 55}, {"time": 239041, "pitch": 35, "duration": 60, "velocity": 105}, {"time": 239041, "pitch": 38, "duration": 60, "velocity": 100}, {"time": 239041, "pitch": 42, "duration": 60, "velocity": 85}, {"time": 239041, "pitch": 54, "duration": 60, "velocity": 75}, {"time": 239161, "pitch": 54, "duration": 60, "velocity": 55}, {"time": 239281, "pitch": 46, "duration": 61, "velocity": 107}, {"time": 239281, "pitch": 54, "duration": 61, "velocity": 85}, {"time": 239402, "pitch": 38, "duration": 60, "velocity": 114}, {"time": 239402, "pitch": 54, "duration": 60, "velocity": 55}, {"time": 239522, "pitch": 35, "duration": 60, "velocity": 127}, {"time": 239522, "pitch": 42, "duration": 60, "velocity": 94}, {"time": 239522, "pitch": 54, "duration": 60, "velocity": 75}, {"time": 239643, "pitch": 54, "duration": 60, "velocity": 55}, {"time": 239763, "pitch": 46, "duration": 60, "velocity": 105}, {"time": 239763, "pitch": 54, "duration": 60, "velocity": 85}, {"time": 239883, "pitch": 54, "duration": 61, "velocity": 55}, {"time": 240004, "pitch": 35, "duration": 59, "velocity": 110}, {"time": 240004, "pitch": 38, "duration": 59, "velocity": 105}, {"time": 240004, "pitch": 42, "duration": 59, "velocity": 91}, {"time": 240004, "pitch": 54, "duration": 59, "velocity": 75}, {"time": 240122, "pitch": 54, "duration": 58, "velocity": 55}, {"time": 240239, "pitch": 46, "duration": 59, "velocity": 107}, {"time": 240239, "pitch": 54, "duration": 59, "velocity": 85}, {"time": 240357, "pitch": 54, "duration": 59, "velocity": 55}, {"time": 240475, "pitch": 35, "duration": 60, "velocity": 114}, {"time": 240475, "pitch": 42, "duration": 60, "velocity": 107}, {"time": 240475, "pitch": 54, "duration": 60, "velocity": 75}, {"time": 240595, "pitch": 54, "duration": 61, "velocity": 55}, {"time": 240716, "pitch": 42, "duration": 60, "velocity": 64}, {"time": 240716, "pitch": 54, "duration": 60, "velocity": 85}, {"time": 240836, "pitch": 54, "duration": 60, "velocity": 55}, {"time": 240957, "pitch": 35, "duration": 60, "velocity": 105}, {"time": 240957, "pitch": 38, "duration": 60, "velocity": 100}, {"time": 240957, "pitch": 42, "duration": 60, "velocity": 85}, {"time": 240957, "pitch": 54, "duration": 60, "velocity": 75}, {"time": 241077, "pitch": 54, "duration": 60, "velocity": 55}, {"time": 241197, "pitch": 46, "duration": 61, "velocity": 107}, {"time": 241197, "pitch": 54, "duration": 61, "velocity": 85}, {"time": 241318, "pitch": 38, "duration": 60, "velocity": 114}, {"time": 241318, "pitch": 54, "duration": 60, "velocity": 55}, {"time": 241438, "pitch": 35, "duration": 60, "velocity": 127}, {"time": 241438, "pitch": 42, "duration": 60, "velocity": 94}, {"time": 241438, "pitch": 54, "duration": 60, "velocity": 75}, {"time": 241559, "pitch": 54, "duration": 60, "velocity": 55}, {"time": 241679, "pitch": 46, "duration": 60, "velocity": 105}, {"time": 241679, "pitch": 54, "duration": 60, "velocity": 85}, {"time": 241799, "pitch": 54, "duration": 61, "velocity": 55}, {"time": 241920, "pitch": 35, "duration": 60, "velocity": 110}, {"time": 241920, "pitch": 38, "duration": 60, "velocity": 105}, {"time": 241920, "pitch": 42, "duration": 60, "velocity": 91}, {"time": 241920, "pitch": 54, "duration": 60, "velocity": 75}, {"time": 242040, "pitch": 54, "duration": 60, "velocity": 55}, {"time": 242161, "pitch": 46, "duration": 60, "velocity": 107}, {"time": 242161, "pitch": 54, "duration": 60, "velocity": 85}, {"time": 242281, "pitch": 54, "duration": 60, "velocity": 55}, {"time": 246244, "pitch": 35, "duration": 59, "velocity": 114}, {"time": 246244, "pitch": 42, "duration": 59, "velocity": 107}, {"time": 246244, "pitch": 54, "duration": 59, "velocity": 75}, {"time": 246362, "pitch": 54, "duration": 58, "velocity": 55}, {"time": 246479, "pitch": 42, "duration": 59, "velocity": 64}, {"time": 246479, "pitch": 54, "duration": 59, "velocity": 85}, {"time": 246597, "pitch": 54, "duration": 59, "velocity": 55}, {"time": 246715, "pitch": 35, "duration": 60, "velocity": 105}, {"time": 246715, "pitch": 38, "duration": 60, "velocity": 100}, {"time": 246715, "pitch": 42, "duration": 60, "velocity": 85}, {"time": 246715, "pitch": 54, "duration": 60, "velocity": 75}, {"time": 246835, "pitch": 54, "duration": 61, "velocity": 55}, {"time": 246956, "pitch": 46, "duration": 60, "velocity": 107}, {"time": 246956, "pitch": 54, "duration": 60, "velocity": 85}, {"time": 247076, "pitch": 38, "duration": 60, "velocity": 114}, {"time": 247076, "pitch": 54, "duration": 60, "velocity": 55}, {"time": 247197, "pitch": 35, "duration": 60, "velocity": 127}, {"time": 247197, "pitch": 42, "duration": 60, "velocity": 94}, {"time": 247197, "pitch": 54, "duration": 60, "velocity": 75}, {"time": 247317, "pitch": 54, "duration": 60, "velocity": 55}, {"time": 247437, "pitch": 46, "duration": 61, "velocity": 105}, {"time": 247437, "pitch": 54, "duration": 61, "velocity": 85}, {"time": 247558, "pitch": 54, "duration": 60, "velocity": 55}, {"time": 247678, "pitch": 35, "duration": 60, "velocity": 110}, {"time": 247678, "pitch": 38, "duration": 60, "velocity": 105}, {"time": 247678, "pitch": 42, "duration": 60, "velocity": 91}, {"time": 247678, "pitch": 54, "duration": 60, "velocity": 75}, {"time": 247799, "pitch": 54, "duration": 60, "velocity": 55}, {"time": 247919, "pitch": 46, "duration": 60, "velocity": 107}, {"time": 247919, "pitch": 54, "duration": 60, "velocity": 85}, {"time": 248039, "pitch": 54, "duration": 61, "velocity": 55}, {"time": 248160, "pitch": 35, "duration": 60, "velocity": 114}, {"time": 248160, "pitch": 42, "duration": 60, "velocity": 107}, {"time": 248160, "pitch": 54, "duration": 60, "velocity": 75}, {"time": 248280, "pitch": 54, "duration": 60, "velocity": 55}, {"time": 248401, "pitch": 42, "duration": 60, "velocity": 64}, {"time": 248401, "pitch": 54, "duration": 60, "velocity": 85}, {"time": 248521, "pitch": 54, "duration": 60, "velocity": 55}, {"time": 248641, "pitch": 35, "duration": 61, "velocity": 105}, {"time": 248641, "pitch": 38, "duration": 61, "velocity": 100}, {"time": 248641, "pitch": 42, "duration": 61, "velocity": 85}, {"time": 248641, "pitch": 54, "duration": 61, "velocity": 75}, {"time": 248762, "pitch": 54, "duration": 60, "velocity": 55}, {"time": 248882, "pitch": 46, "duration": 60, "velocity": 107}, {"time": 248882, "pitch": 54, "duration": 60, "velocity": 85}, {"time": 249003, "pitch": 38, "duration": 60, "velocity": 114}, {"time": 249003, "pitch": 54, "duration": 60, "velocity": 55}, {"time": 249123, "pitch": 35, "duration": 60, "velocity": 127}, {"time": 249123, "pitch": 42, "duration": 60, "velocity": 94}, {"time": 249123, "pitch": 54, "duration": 60, "velocity": 75}, {"time": 249243, "pitch": 54, "duration": 61, "velocity": 55}, {"time": 249364, "pitch": 46, "duration": 60, "velocity": 105}, {"time": 249364, "pitch": 54, "duration": 60, "velocity": 85}, {"time": 249484, "pitch": 54, "duration": 60, "velocity": 55}, {"time": 249604, "pitch": 35, "duration": 59, "velocity": 110}, {"time": 249604, "pitch": 38, "duration": 59, "velocity": 105}, {"time": 249604, "pitch": 42, "duration": 59, "velocity": 91}, {"time": 249604, "pitch": 54, "duration": 59, "velocity": 75}, {"time": 249722, "pitch": 54, "duration": 59, "velocity": 55}, {"time": 249840, "pitch": 46, "duration": 59, "velocity": 107}, {"time": 249840, "pitch": 54, "duration": 59, "velocity": 85}, {"time": 249958, "pitch": 54, "duration": 59, "velocity": 55}, {"time": 250076, "pitch": 35, "duration": 60, "velocity": 114}, {"time": 250076, "pitch": 42, "duration": 60, "velocity": 107}, {"time": 250076, "pitch": 54, "duration": 60, "velocity": 75}, {"time": 250196, "pitch": 54, "duration": 60, "velocity": 55}, {"time": 250317, "pitch": 42, "duration": 60, "velocity": 64}, {"time": 250317, "pitch": 54, "duration": 60, "velocity": 85}, {"time": 250437, "pitch": 54, "duration": 60, "velocity": 55}, {"time": 250557, "pitch": 35, "duration": 61, "velocity": 105}, {"time": 250557, "pitch": 38, "duration": 61, "velocity": 100}, {"time": 250557, "pitch": 42, "duration": 61, "velocity": 85}, {"time": 250557, "pitch": 54, "duration": 61, "velocity": 75}, {"time": 250678, "pitch": 54, "duration": 60, "velocity": 55}, {"time": 250798, "pitch": 46, "duration": 60, "velocity": 107}, {"time": 250798, "pitch": 54, "duration": 60, "velocity": 85}, {"time": 250919, "pitch": 38, "duration": 60, "velocity": 114}, {"time": 250919, "pitch": 54, "duration": 60, "velocity": 55}, {"time": 251039, "pitch": 35, "duration": 60, "velocity": 127}, {"time": 251039, "pitch": 42, "duration": 60, "velocity": 94}, {"time": 251039, "pitch": 54, "duration": 60, "velocity": 75}, {"time": 251159, "pitch": 54, "duration": 61, "velocity": 55}, {"time": 251280, "pitch": 46, "duration": 60, "velocity": 105}, {"time": 251280, "pitch": 54, "duration": 60, "velocity": 85}, {"time": 251400, "pitch": 54, "duration": 60, "velocity": 55}, {"time": 251521, "pitch": 35, "duration": 60, "velocity": 110}, {"time": 251521, "pitch": 38, "duration": 60, "velocity": 105}, {"time": 251521, "pitch": 42, "duration": 60, "velocity": 91}, {"time": 251521, "pitch": 54, "duration": 60, "velocity": 75}, {"time": 251641, "pitch": 54, "duration": 60, "velocity": 55}, {"time": 251761, "pitch": 46, "duration": 61, "velocity": 107}, {"time": 251761, "pitch": 54, "duration": 61, "velocity": 85}, {"time": 251882, "pitch": 54, "duration": 60, "velocity": 55}, {"time": 252002, "pitch": 35, "duration": 60, "velocity": 114}, {"time": 252002, "pitch": 42, "duration": 60, "velocity": 107}, {"time": 252002, "pitch": 54, "duration": 60, "velocity": 75}, {"time": 252123, "pitch": 54, "duration": 60, "velocity": 55}, {"time": 252243, "pitch": 42, "duration": 60, "velocity": 64}, {"time": 252243, "pitch": 54, "duration": 60, "velocity": 85}, {"time": 252363, "pitch": 54, "duration": 61, "velocity": 55}, {"time": 252484, "pitch": 35, "duration": 59, "velocity": 105}, {"time": 252484, "pitch": 38, "duration": 59, "velocity": 100}, {"time": 252484, "pitch": 42, "duration": 59, "velocity": 85}, {"time": 252484, "pitch": 54, "duration": 59, "velocity": 75}, {"time": 252602, "pitch": 54, "duration": 58, "velocity": 55}, {"time": 252719, "pitch": 46, "duration": 59, "velocity": 107}, {"time": 252719, "pitch": 54, "duration": 59, "velocity": 85}, {"time": 252837, "pitch": 38, "duration": 59, "velocity": 114}, {"time": 252837, "pitch": 54, "duration": 59, "velocity": 55}, {"time": 252955, "pitch": 35, "duration": 60, "velocity": 127}, {"time": 252955, "pitch": 42, "duration": 60, "velocity": 94}, {"time": 252955, "pitch": 54, "duration": 60, "velocity": 75}, {"time": 253075, "pitch": 54, "duration": 61, "velocity": 55}, {"time": 253196, "pitch": 46, "duration": 60, "velocity": 105}, {"time": 253196, "pitch": 54, "duration": 60, "velocity": 85}, {"time": 253316, "pitch": 54, "duration": 60, "velocity": 55}, {"time": 253437, "pitch": 35, "duration": 60, "velocity": 110}, {"time": 253437, "pitch": 38, "duration": 60, "velocity": 105}, {"time": 253437, "pitch": 42, "duration": 60, "velocity": 91}, {"time": 253437, "pitch": 54, "duration": 60, "velocity": 75}, {"time": 253557, "pitch": 54, "duration": 60, "velocity": 55}, {"time": 253677, "pitch": 46, "duration": 61, "velocity": 107}, {"time": 253677, "pitch": 54, "duration": 61, "velocity": 85}, {"time": 253798, "pitch": 54, "duration": 60, "velocity": 55}, {"time": 253918, "pitch": 35, "duration": 60, "velocity": 114}, {"time": 253918, "pitch": 42, "duration": 60, "velocity": 107}, {"time": 253918, "pitch": 54, "duration": 60, "velocity": 75}, {"time": 254039, "pitch": 54, "duration": 60, "velocity": 55}, {"time": 254159, "pitch": 42, "duration": 60, "velocity": 64}, {"time": 254159, "pitch": 54, "duration": 60, "velocity": 85}, {"time": 254279, "pitch": 54, "duration": 61, "velocity": 55}, {"time": 254400, "pitch": 35, "duration": 60, "velocity": 105}, {"time": 254400, "pitch": 38, "duration": 60, "velocity": 100}, {"time": 254400, "pitch": 42, "duration": 60, "velocity": 85}, {"time": 254400, "pitch": 54, "duration": 60, "velocity": 75}, {"time": 254520, "pitch": 54, "duration": 60, "velocity": 55}, {"time": 254641, "pitch": 46, "duration": 60, "velocity": 107}, {"time": 254641, "pitch": 54, "duration": 60, "velocity": 85}, {"time": 254761, "pitch": 38, "duration": 60, "velocity": 114}, {"time": 254761, "pitch": 54, "duration": 60, "velocity": 55}, {"time": 254881, "pitch": 35, "duration": 61, "velocity": 127}, {"time": 254881, "pitch": 42, "duration": 61, "velocity": 94}, {"time": 254881, "pitch": 54, "duration": 61, "velocity": 75}, {"time": 255002, "pitch": 54, "duration": 60, "velocity": 55}, {"time": 255122, "pitch": 46, "duration": 60, "velocity": 105}, {"time": 255122, "pitch": 54, "duration": 60, "velocity": 85}, {"time": 255243, "pitch": 54, "duration": 60, "velocity": 55}, {"time": 255363, "pitch": 35, "duration": 60, "velocity": 110}, {"time": 255363, "pitch": 38, "duration": 60, "velocity": 105}, {"time": 255363, "pitch": 42, "duration": 60, "velocity": 91}, {"time": 255363, "pitch": 54, "duration": 60, "velocity": 75}, {"time": 255483, "pitch": 54, "duration": 61, "velocity": 55}, {"time": 255604, "pitch": 46, "duration": 60, "velocity": 107}, {"time": 255604, "pitch": 54, "duration": 60, "velocity": 85}, {"time": 255724, "pitch": 54, "duration": 60, "velocity": 55}, {"time": 255844, "pitch": 35, "duration": 59, "velocity": 114}, {"time": 255844, "pitch": 42, "duration": 59, "velocity": 107}, {"time": 255844, "pitch": 54, "duration": 59, "velocity": 75}, {"time": 255962, "pitch": 54, "duration": 59, "velocity": 55}, {"time": 256080, "pitch": 42, "duration": 59, "velocity": 64}, {"time": 256080, "pitch": 54, "duration": 59, "velocity": 85}, {"time": 256198, "pitch": 54, "duration": 59, "velocity": 55}, {"time": 256316, "pitch": 35, "duration": 60, "velocity": 105}, {"time": 256316, "pitch": 38, "duration": 60, "velocity": 100}, {"time": 256316, "pitch": 42, "duration": 60, "velocity": 85}, {"time": 256316, "pitch": 54, "duration": 60, "velocity": 75}, {"time": 256436, "pitch": 54, "duration": 60, "velocity": 55}, {"time": 256557, "pitch": 46, "duration": 60, "velocity": 107}, {"time": 256557, "pitch": 54, "duration": 60, "velocity": 85}, {"time": 256677, "pitch": 38, "duration": 60, "velocity": 114}, {"time": 256677, "pitch": 54, "duration": 60, "velocity": 55}, {"time": 256797, "pitch": 35, "duration": 61, "velocity": 127}, {"time": 256797, "pitch": 42, "duration": 61, "velocity": 94}, {"time": 256797, "pitch": 54, "duration": 61, "velocity": 75}, {"time": 256918, "pitch": 54, "duration": 60, "velocity": 55}, {"time": 257038, "pitch": 46, "duration": 60, "velocity": 105}, {"time": 257038, "pitch": 54, "duration": 60, "velocity": 85}, {"time": 257159, "pitch": 54, "duration": 60, "velocity": 55}, {"time": 257279, "pitch": 35, "duration": 60, "velocity": 110}, {"time": 257279, "pitch": 38, "duration": 60, "velocity": 105}, {"time": 257279, "pitch": 42, "duration": 60, "velocity": 91}, {"time": 257279, "pitch": 54, "duration": 60, "velocity": 75}, {"time": 257399, "pitch": 54, "duration": 61, "velocity": 55}, {"time": 257520, "pitch": 46, "duration": 60, "velocity": 107}, {"time": 257520, "pitch": 54, "duration": 60, "velocity": 85}, {"time": 257640, "pitch": 54, "duration": 60, "velocity": 55}, {"time": 257761, "pitch": 35, "duration": 60, "velocity": 114}, {"time": 257761, "pitch": 42, "duration": 60, "velocity": 107}, {"time": 257761, "pitch": 54, "duration": 60, "velocity": 75}, {"time": 257881, "pitch": 54, "duration": 60, "velocity": 55}, {"time": 258001, "pitch": 42, "duration": 61, "velocity": 64}, {"time": 258001, "pitch": 54, "duration": 61, "velocity": 85}, {"time": 258122, "pitch": 54, "duration": 60, "velocity": 55}, {"time": 258242, "pitch": 35, "duration": 60, "velocity": 105}, {"time": 258242, "pitch": 38, "duration": 60, "velocity": 100}, {"time": 258242, "pitch": 42, "duration": 60, "velocity": 85}, {"time": 258242, "pitch": 54, "duration": 60, "velocity": 75}, {"time": 258363, "pitch": 54, "duration": 60, "velocity": 55}, {"time": 258483, "pitch": 46, "duration": 60, "velocity": 107}, {"time": 258483, "pitch": 54, "duration": 60, "velocity": 85}, {"time": 258603, "pitch": 38, "duration": 61, "velocity": 114}, {"time": 258603, "pitch": 54, "duration": 61, "velocity": 55}, {"time": 258724, "pitch": 35, "duration": 59, "velocity": 127}, {"time": 258724, "pitch": 42, "duration": 59, "velocity": 94}, {"time": 258724, "pitch": 54, "duration": 59, "velocity": 75}, {"time": 258842, "pitch": 54, "duration": 58, "velocity": 55}, {"time": 258959, "pitch": 46, "duration": 59, "velocity": 105}, {"time": 258959, "pitch": 54, "duration": 59, "velocity": 85}, {"time": 259077, "pitch": 54, "duration": 59, "velocity": 55}, {"time": 259195, "pitch": 35, "duration": 60, "velocity": 110}, {"time": 259195, "pitch": 38, "duration": 60, "velocity": 105}, {"time": 259195, "pitch": 42, "duration": 60, "velocity": 91}, {"time": 259195, "pitch": 54, "duration": 60, "velocity": 75}, {"time": 259315, "pitch": 54, "duration": 61, "velocity": 55}, {"time": 259436, "pitch": 46, "duration": 60, "velocity": 107}, {"time": 259436, "pitch": 54, "duration": 60, "velocity": 85}, {"time": 259556, "pitch": 54, "duration": 60, "velocity": 55}, {"time": 259677, "pitch": 35, "duration": 60, "velocity": 114}, {"time": 259677, "pitch": 42, "duration": 60, "velocity": 107}, {"time": 259677, "pitch": 54, "duration": 60, "velocity": 75}, {"time": 259797, "pitch": 54, "duration": 60, "velocity": 55}, {"time": 259917, "pitch": 42, "duration": 61, "velocity": 64}, {"time": 259917, "pitch": 54, "duration": 61, "velocity": 85}, {"time": 260038, "pitch": 54, "duration": 60, "velocity": 55}, {"time": 260158, "pitch": 35, "duration": 60, "velocity": 105}, {"time": 260158, "pitch": 38, "duration": 60, "velocity": 100}, {"time": 260158, "pitch": 42, "duration": 60, "velocity": 85}, {"time": 260158, "pitch": 54, "duration": 60, "velocity": 75}, {"time": 260279, "pitch": 54, "duration": 60, "velocity": 55}, {"time": 260399, "pitch": 46, "duration": 60, "velocity": 107}, {"time": 260399, "pitch": 54, "duration": 60, "velocity": 85}, {"time": 260519, "pitch": 38, "duration": 61, "velocity": 114}, {"time": 260519, "pitch": 54, "duration": 61, "velocity": 55}, {"time": 260640, "pitch": 35, "duration": 60, "velocity": 127}, {"time": 260640, "pitch": 42, "duration": 60, "velocity": 94}, {"time": 260640, "pitch": 54, "duration": 60, "velocity": 75}, {"time": 260760, "pitch": 54, "duration": 60, "velocity": 55}, {"time": 260881, "pitch": 46, "duration": 60, "velocity": 105}, {"time": 260881, "pitch": 54, "duration": 60, "velocity": 85}, {"time": 261001, "pitch": 54, "duration": 60, "velocity": 55}, {"time": 261121, "pitch": 35, "duration": 61, "velocity": 110}, {"time": 261121, "pitch": 38, "duration": 61, "velocity": 105}, {"time": 261121, "pitch": 42, "duration": 61, "velocity": 91}, {"time": 261121, "pitch": 54, "duration": 61, "velocity": 75}, {"time": 261242, "pitch": 54, "duration": 60, "velocity": 55}, {"time": 261362, "pitch": 46, "duration": 60, "velocity": 107}, {"time": 261362, "pitch": 54, "duration": 60, "velocity": 85}, {"time": 261483, "pitch": 54, "duration": 60, "velocity": 55}, {"time": 261603, "pitch": 35, "duration": 60, "velocity": 114}, {"time": 261603, "pitch": 42, "duration": 60, "velocity": 107}, {"time": 261603, "pitch": 54, "duration": 60, "velocity": 75}, {"time": 261723, "pitch": 54, "duration": 61, "velocity": 55}, {"time": 261844, "pitch": 42, "duration": 60, "velocity": 64}, {"time": 261844, "pitch": 54, "duration": 60, "velocity": 85}, {"time": 261964, "pitch": 54, "duration": 60, "velocity": 55}, {"time": 262084, "pitch": 35, "duration": 59, "velocity": 105}, {"time": 262084, "pitch": 38, "duration": 59, "velocity": 100}, {"time": 262084, "pitch": 42, "duration": 59, "velocity": 85}, {"time": 262084, "pitch": 54, "duration": 59, "velocity": 75}, {"time": 262202, "pitch": 54, "duration": 59, "velocity": 55}, {"time": 262320, "pitch": 46, "duration": 59, "velocity": 107}, {"time": 262320, "pitch": 54, "duration": 59, "velocity": 85}, {"time": 262438, "pitch": 38, "duration": 59, "velocity": 114}, {"time": 262438, "pitch": 54, "duration": 59, "velocity": 55}, {"time": 262556, "pitch": 35, "duration": 60, "velocity": 127}, {"time": 262556, "pitch": 42, "duration": 60, "velocity": 94}, {"time": 262556, "pitch": 54, "duration": 60, "velocity": 75}, {"time": 262676, "pitch": 54, "duration": 60, "velocity": 55}, {"time": 262797, "pitch": 46, "duration": 60, "velocity": 105}, {"time": 262797, "pitch": 54, "duration": 60, "velocity": 85}, {"time": 262917, "pitch": 54, "duration": 60, "velocity": 55}, {"time": 263037, "pitch": 35, "duration": 61, "velocity": 110}, {"time": 263037, "pitch": 38, "duration": 61, "velocity": 105}, {"time": 263037, "pitch": 42, "duration": 61, "velocity": 91}, {"time": 263037, "pitch": 54, "duration": 61, "velocity": 75}, {"time": 263158, "pitch": 54, "duration": 60, "velocity": 55}, {"time": 263278, "pitch": 46, "duration": 60, "velocity": 107}, {"time": 263278, "pitch": 54, "duration": 60, "velocity": 85}, {"time": 263399, "pitch": 54, "duration": 60, "velocity": 55}, {"time": 263519, "pitch": 35, "duration": 60, "velocity": 114}, {"time": 263519, "pitch": 42, "duration": 60, "velocity": 107}, {"time": 263519, "pitch": 54, "duration": 60, "velocity": 75}, {"time": 263639, "pitch": 54, "duration": 61, "velocity": 55}, {"time": 263760, "pitch": 42, "duration": 60, "velocity": 64}, {"time": 263760, "pitch": 54, "duration": 60, "velocity": 85}, {"time": 263880, "pitch": 54, "duration": 60, "velocity": 55}, {"time": 264001, "pitch": 35, "duration": 60, "velocity": 105}, {"time": 264001, "pitch": 38, "duration": 60, "velocity": 100}, {"time": 264001, "pitch": 42, "duration": 60, "velocity": 85}, {"time": 264001, "pitch": 54, "duration": 60, "velocity": 75}, {"time": 264121, "pitch": 54, "duration": 60, "velocity": 55}, {"time": 264241, "pitch": 46, "duration": 61, "velocity": 107}, {"time": 264241, "pitch": 54, "duration": 61, "velocity": 85}, {"time": 264362, "pitch": 38, "duration": 60, "velocity": 114}, {"time": 264362, "pitch": 54, "duration": 60, "velocity": 55}, {"time": 264482, "pitch": 35, "duration": 60, "velocity": 127}, {"time": 264482, "pitch": 42, "duration": 60, "velocity": 94}, {"time": 264482, "pitch": 54, "duration": 60, "velocity": 75}, {"time": 264603, "pitch": 54, "duration": 60, "velocity": 55}, {"time": 264723, "pitch": 46, "duration": 60, "velocity": 105}, {"time": 264723, "pitch": 54, "duration": 60, "velocity": 85}, {"time": 264843, "pitch": 54, "duration": 61, "velocity": 55}, {"time": 264964, "pitch": 35, "duration": 59, "velocity": 110}, {"time": 264964, "pitch": 38, "duration": 59, "velocity": 105}, {"time": 264964, "pitch": 42, "duration": 59, "velocity": 91}, {"time": 264964, "pitch": 54, "duration": 59, "velocity": 75}, {"time": 265082, "pitch": 54, "duration": 58, "velocity": 55}, {"time": 265199, "pitch": 46, "duration": 59, "velocity": 107}, {"time": 265199, "pitch": 54, "duration": 59, "velocity": 85}, {"time": 265317, "pitch": 54, "duration": 59, "velocity": 55}, {"time": 265435, "pitch": 35, "duration": 60, "velocity": 114}, {"time": 265435, "pitch": 42, "duration": 60, "velocity": 107}, {"time": 265435, "pitch": 54, "duration": 60, "velocity": 75}, {"time": 265555, "pitch": 54, "duration": 61, "velocity": 55}, {"time": 265676, "pitch": 42, "duration": 60, "velocity": 64}, {"time": 265676, "pitch": 54, "duration": 60, "velocity": 85}, {"time": 265796, "pitch": 54, "duration": 60, "velocity": 55}, {"time": 265917, "pitch": 35, "duration": 60, "velocity": 105}, {"time": 265917, "pitch": 38, "duration": 60, "velocity": 100}, {"time": 265917, "pitch": 42, "duration": 60, "velocity": 85}, {"time": 265917, "pitch": 54, "duration": 60, "velocity": 75}, {"time": 266037, "pitch": 54, "duration": 60, "velocity": 55}, {"time": 266157, "pitch": 46, "duration": 61, "velocity": 107}, {"time": 266157, "pitch": 54, "duration": 61, "velocity": 85}, {"time": 266278, "pitch": 38, "duration": 60, "velocity": 114}, {"time": 266278, "pitch": 54, "duration": 60, "velocity": 55}, {"time": 266398, "pitch": 35, "duration": 60, "velocity": 127}, {"time": 266398, "pitch": 42, "duration": 60, "velocity": 94}, {"time": 266398, "pitch": 54, "duration": 60, "velocity": 75}, {"time": 266519, "pitch": 54, "duration": 60, "velocity": 55}, {"time": 266639, "pitch": 46, "duration": 60, "velocity": 105}, {"time": 266639, "pitch": 54, "duration": 60, "velocity": 85}, {"time": 266759, "pitch": 54, "duration": 61, "velocity": 55}, {"time": 266880, "pitch": 35, "duration": 60, "velocity": 110}, {"time": 266880, "pitch": 38, "duration": 60, "velocity": 105}, {"time": 266880, "pitch": 42, "duration": 60, "velocity": 91}, {"time": 266880, "pitch": 54, "duration": 60, "velocity": 75}, {"time": 267000, "pitch": 54, "duration": 60, "velocity": 55}, {"time": 267121, "pitch": 46, "duration": 60, "velocity": 107}, {"time": 267121, "pitch": 54, "duration": 60, "velocity": 85}, {"time": 267241, "pitch": 54, "duration": 60, "velocity": 55}, {"time": 267361, "pitch": 35, "duration": 61, "velocity": 114}, {"time": 267361, "pitch": 42, "duration": 61, "velocity": 107}, {"time": 267361, "pitch": 54, "duration": 61, "velocity": 75}, {"time": 267482, "pitch": 54, "duration": 60, "velocity": 55}, {"time": 267602, "pitch": 42, "duration": 60, "velocity": 64}, {"time": 267602, "pitch": 54, "duration": 60, "velocity": 85}, {"time": 267723, "pitch": 54, "duration": 60, "velocity": 55}, {"time": 267843, "pitch": 35, "duration": 60, "velocity": 105}, {"time": 267843, "pitch": 38, "duration": 60, "velocity": 100}, {"time": 267843, "pitch": 42, "duration": 60, "velocity": 85}, {"time": 267843, "pitch": 54, "duration": 60, "velocity": 75}, {"time": 267963, "pitch": 54, "duration": 61, "velocity": 55}, {"time": 268084, "pitch": 46, "duration": 60, "velocity": 107}, {"time": 268084, "pitch": 54, "duration": 60, "velocity": 85}, {"time": 268204, "pitch": 38, "duration": 60, "velocity": 114}, {"time": 268204, "pitch": 54, "duration": 60, "velocity": 55}, {"time": 268324, "pitch": 35, "duration": 59, "velocity": 127}, {"time": 268324, "pitch": 42, "duration": 59, "velocity": 94}, {"time": 268324, "pitch": 54, "duration": 59, "velocity": 75}, {"time": 268442, "pitch": 54, "duration": 59, "velocity": 55}, {"time": 268560, "pitch": 46, "duration": 59, "velocity": 105}, {"time": 268560, "pitch": 54, "duration": 59, "velocity": 85}, {"time": 268678, "pitch": 54, "duration": 59, "velocity": 55}, {"time": 268796, "pitch": 35, "duration": 60, "velocity": 110}, {"time": 268796, "pitch": 38, "duration": 60, "velocity": 105}, {"time": 268796, "pitch": 42, "duration": 60, "velocity": 91}, {"time": 268796, "pitch": 54, "duration": 60, "velocity": 75}, {"time": 268916, "pitch": 54, "duration": 60, "velocity": 55}, {"time": 269037, "pitch": 46, "duration": 60, "velocity": 107}, {"time": 269037, "pitch": 54, "duration": 60, "velocity": 85}, {"time": 269157, "pitch": 54, "duration": 60, "velocity": 55}, {"time": 269277, "pitch": 35, "duration": 61, "velocity": 114}, {"time": 269277, "pitch": 42, "duration": 61, "velocity": 107}, {"time": 269277, "pitch": 54, "duration": 61, "velocity": 75}, {"time": 269398, "pitch": 54, "duration": 60, "velocity": 55}, {"time": 269518, "pitch": 42, "duration": 60, "velocity": 64}, {"time": 269518, "pitch": 54, "duration": 60, "velocity": 85}, {"time": 269639, "pitch": 54, "duration": 60, "velocity": 55}, {"time": 269759, "pitch": 35, "duration": 60, "velocity": 105}, {"time": 269759, "pitch": 38, "duration": 60, "velocity": 100}, {"time": 269759, "pitch": 42, "duration": 60, "velocity": 85}, {"time": 269759, "pitch": 54, "duration": 60, "velocity": 75}, {"time": 269879, "pitch": 54, "duration": 61, "velocity": 55}, {"time": 270000, "pitch": 46, "duration": 60, "velocity": 107}, {"time": 270000, "pitch": 54, "duration": 60, "velocity": 85}, {"time": 270120, "pitch": 38, "duration": 60, "velocity": 114}, {"time": 270120, "pitch": 54, "duration": 60, "velocity": 55}, {"time": 270241, "pitch": 35, "duration": 60, "velocity": 127}, {"time": 270241, "pitch": 42, "duration": 60, "velocity": 94}, {"time": 270241, "pitch": 54, "duration": 60, "velocity": 75}, {"time": 270361, "pitch": 54, "duration": 60, "velocity": 55}, {"time": 270481, "pitch": 46, "duration": 61, "velocity": 105}, {"time": 270481, "pitch": 54, "duration": 61, "velocity": 85}, {"time": 270602, "pitch": 54, "duration": 60, "velocity": 55}, {"time": 270722, "pitch": 35, "duration": 60, "velocity": 110}, {"time": 270722, "pitch": 38, "duration": 60, "velocity": 105}, {"time": 270722, "pitch": 42, "duration": 60, "velocity": 91}, {"time": 270722, "pitch": 54, "duration": 60, "velocity": 75}, {"time": 270843, "pitch": 54, "duration": 60, "velocity": 55}, {"time": 270963, "pitch": 46, "duration": 60, "velocity": 107}, {"time": 270963, "pitch": 54, "duration": 60, "velocity": 85}, {"time": 271083, "pitch": 54, "duration": 61, "velocity": 55}, {"time": 271204, "pitch": 35, "duration": 59, "velocity": 114}, {"time": 271204, "pitch": 42, "duration": 59, "velocity": 107}, {"time": 271204, "pitch": 54, "duration": 59, "velocity": 75}, {"time": 271322, "pitch": 54, "duration": 58, "velocity": 55}, {"time": 271439, "pitch": 42, "duration": 59, "velocity": 64}, {"time": 271439, "pitch": 54, "duration": 59, "velocity": 85}, {"time": 271557, "pitch": 54, "duration": 59, "velocity": 55}, {"time": 271675, "pitch": 35, "duration": 60, "velocity": 105}, {"time": 271675, "pitch": 38, "duration": 60, "velocity": 100}, {"time": 271675, "pitch": 42, "duration": 60, "velocity": 85}, {"time": 271675, "pitch": 54, "duration": 60, "velocity": 75}, {"time": 271795, "pitch": 54, "duration": 61, "velocity": 55}, {"time": 271916, "pitch": 46, "duration": 60, "velocity": 107}, {"time": 271916, "pitch": 54, "duration": 60, "velocity": 85}, {"time": 272036, "pitch": 38, "duration": 60, "velocity": 114}, {"time": 272036, "pitch": 54, "duration": 60, "velocity": 55}, {"time": 272157, "pitch": 35, "duration": 60, "velocity": 127}, {"time": 272157, "pitch": 42, "duration": 60, "velocity": 94}, {"time": 272157, "pitch": 54, "duration": 60, "velocity": 75}, {"time": 272277, "pitch": 54, "duration": 60, "velocity": 55}, {"time": 272397, "pitch": 46, "duration": 61, "velocity": 105}, {"time": 272397, "pitch": 54, "duration": 61, "velocity": 85}, {"time": 272518, "pitch": 54, "duration": 60, "velocity": 55}, {"time": 272638, "pitch": 35, "duration": 60, "velocity": 110}, {"time": 272638, "pitch": 38, "duration": 60, "velocity": 105}, {"time": 272638, "pitch": 42, "duration": 60, "velocity": 91}, {"time": 272638, "pitch": 54, "duration": 60, "velocity": 75}, {"time": 272759, "pitch": 54, "duration": 60, "velocity": 55}, {"time": 272879, "pitch": 46, "duration": 60, "velocity": 107}, {"time": 272879, "pitch": 54, "duration": 60, "velocity": 85}, {"time": 272999, "pitch": 54, "duration": 61, "velocity": 55}, {"time": 273120, "pitch": 35, "duration": 60, "velocity": 114}, {"time": 273120, "pitch": 42, "duration": 60, "velocity": 107}, {"time": 273120, "pitch": 54, "duration": 60, "velocity": 75}, {"time": 273240, "pitch": 54, "duration": 60, "velocity": 55}, {"time": 273361, "pitch": 42, "duration": 60, "velocity": 64}, {"time": 273361, "pitch": 54, "duration": 60, "velocity": 85}, {"time": 273481, "pitch": 54, "duration": 60, "velocity": 55}, {"time": 273601, "pitch": 35, "duration": 61, "velocity": 105}, {"time": 273601, "pitch": 38, "duration": 61, "velocity": 100}, {"time": 273601, "pitch": 42, "duration": 61, "velocity": 85}, {"time": 273601, "pitch": 54, "duration": 61, "velocity": 75}, {"time": 273722, "pitch": 54, "duration": 60, "velocity": 55}, {"time": 273842, "pitch": 46, "duration": 60, "velocity": 107}, {"time": 273842, "pitch": 54, "duration": 60, "velocity": 85}, {"time": 273963, "pitch": 38, "duration": 60, "velocity": 114}, {"time": 273963, "pitch": 54, "duration": 60, "velocity": 55}, {"time": 274083, "pitch": 35, "duration": 60, "velocity": 127}, {"time": 274083, "pitch": 42, "duration": 60, "velocity": 94}, {"time": 274083, "pitch": 54, "duration": 60, "velocity": 75}, {"time": 274203, "pitch": 54, "duration": 61, "velocity": 55}, {"time": 274324, "pitch": 46, "duration": 60, "velocity": 105}, {"time": 274324, "pitch": 54, "duration": 60, "velocity": 85}, {"time": 274444, "pitch": 54, "duration": 60, "velocity": 55}, {"time": 274564, "pitch": 35, "duration": 59, "velocity": 110}, {"time": 274564, "pitch": 38, "duration": 59, "velocity": 105}, {"time": 274564, "pitch": 42, "duration": 59, "velocity": 91}, {"time": 274564, "pitch": 54, "duration": 59, "velocity": 75}, {"time": 274682, "pitch": 54, "duration": 59, "velocity": 55}, {"time": 274800, "pitch": 46, "duration": 59, "velocity": 107}, {"time": 274800, "pitch": 54, "duration": 59, "velocity": 85}, {"time": 274918, "pitch": 54, "duration": 59, "velocity": 55}, {"time": 275036, "pitch": 35, "duration": 60, "velocity": 114}, {"time": 275036, "pitch": 42, "duration": 60, "velocity": 107}, {"time": 275036, "pitch": 54, "duration": 60, "velocity": 75}, {"time": 275156, "pitch": 54, "duration": 60, "velocity": 55}, {"time": 275277, "pitch": 42, "duration": 60, "velocity": 64}, {"time": 275277, "pitch": 54, "duration": 60, "velocity": 85}, {"time": 275397, "pitch": 54, "duration": 60, "velocity": 55}, {"time": 275517, "pitch": 35, "duration": 61, "velocity": 105}, {"time": 275517, "pitch": 38, "duration": 61, "velocity": 100}, {"time": 275517, "pitch": 42, "duration": 61, "velocity": 85}, {"time": 275517, "pitch": 54, "duration": 61, "velocity": 75}, {"time": 275638, "pitch": 54, "duration": 60, "velocity": 55}, {"time": 275758, "pitch": 46, "duration": 60, "velocity": 107}, {"time": 275758, "pitch": 54, "duration": 60, "velocity": 85}, {"time": 275879, "pitch": 38, "duration": 60, "velocity": 114}, {"time": 275879, "pitch": 54, "duration": 60, "velocity": 55}, {"time": 275999, "pitch": 35, "duration": 60, "velocity": 127}, {"time": 275999, "pitch": 42, "duration": 60, "velocity": 94}, {"time": 275999, "pitch": 54, "duration": 60, "velocity": 75}, {"time": 276119, "pitch": 54, "duration": 61, "velocity": 55}, {"time": 276240, "pitch": 46, "duration": 60, "velocity": 105}, {"time": 276240, "pitch": 54, "duration": 60, "velocity": 85}, {"time": 276360, "pitch": 54, "duration": 60, "velocity": 55}, {"time": 276481, "pitch": 35, "duration": 60, "velocity": 110}, {"time": 276481, "pitch": 38, "duration": 60, "velocity": 105}, {"time": 276481, "pitch": 42, "duration": 60, "velocity": 91}, {"time": 276481, "pitch": 54, "duration": 60, "velocity": 75}, {"time": 276601, "pitch": 54, "duration": 60, "velocity": 55}, {"time": 276721, "pitch": 46, "duration": 61, "velocity": 107}, {"time": 276721, "pitch": 54, "duration": 61, "velocity": 85}, {"time": 276842, "pitch": 54, "duration": 60, "velocity": 55}, {"time": 276962, "pitch": 35, "duration": 60, "velocity": 114}, {"time": 276962, "pitch": 42, "duration": 60, "velocity": 107}, {"time": 276962, "pitch": 54, "duration": 60, "velocity": 75}, {"time": 277083, "pitch": 54, "duration": 60, "velocity": 55}, {"time": 277203, "pitch": 42, "duration": 60, "velocity": 64}, {"time": 277203, "pitch": 54, "duration": 60, "velocity": 85}, {"time": 277323, "pitch": 54, "duration": 61, "velocity": 55}, {"time": 277444, "pitch": 35, "duration": 59, "velocity": 105}, {"time": 277444, "pitch": 38, "duration": 59, "velocity": 100}, {"time": 277444, "pitch": 42, "duration": 59, "velocity": 85}, {"time": 277444, "pitch": 54, "duration": 59, "velocity": 75}, {"time": 277561, "pitch": 54, "duration": 59, "velocity": 55}, {"time": 277679, "pitch": 46, "duration": 59, "velocity": 107}, {"time": 277679, "pitch": 54, "duration": 59, "velocity": 85}, {"time": 277797, "pitch": 38, "duration": 59, "velocity": 114}, {"time": 277797, "pitch": 54, "duration": 59, "velocity": 55}, {"time": 277915, "pitch": 35, "duration": 60, "velocity": 127}, {"time": 277915, "pitch": 42, "duration": 60, "velocity": 94}, {"time": 277915, "pitch": 54, "duration": 60, "velocity": 75}, {"time": 278035, "pitch": 54, "duration": 61, "velocity": 55}, {"time": 278156, "pitch": 46, "duration": 60, "velocity": 105}, {"time": 278156, "pitch": 54, "duration": 60, "velocity": 85}, {"time": 278276, "pitch": 54, "duration": 60, "velocity": 55}, {"time": 278397, "pitch": 35, "duration": 60, "velocity": 110}, {"time": 278397, "pitch": 38, "duration": 60, "velocity": 105}, {"time": 278397, "pitch": 42, "duration": 60, "velocity": 91}, {"time": 278397, "pitch": 54, "duration": 60, "velocity": 75}, {"time": 278517, "pitch": 54, "duration": 60, "velocity": 55}, {"time": 278637, "pitch": 46, "duration": 61, "velocity": 107}, {"time": 278637, "pitch": 54, "duration": 61, "velocity": 85}, {"time": 278758, "pitch": 54, "duration": 60, "velocity": 55}, {"time": 278878, "pitch": 35, "duration": 60, "velocity": 114}, {"time": 278878, "pitch": 42, "duration": 60, "velocity": 107}, {"time": 278878, "pitch": 54, "duration": 60, "velocity": 75}, {"time": 278999, "pitch": 54, "duration": 60, "velocity": 55}, {"time": 279119, "pitch": 42, "duration": 60, "velocity": 64}, {"time": 279119, "pitch": 54, "duration": 60, "velocity": 85}, {"time": 279239, "pitch": 54, "duration": 61, "velocity": 55}, {"time": 279360, "pitch": 35, "duration": 60, "velocity": 105}, {"time": 279360, "pitch": 38, "duration": 60, "velocity": 100}, {"time": 279360, "pitch": 42, "duration": 60, "velocity": 85}, {"time": 279360, "pitch": 54, "duration": 60, "velocity": 75}, {"time": 279480, "pitch": 54, "duration": 60, "velocity": 55}, {"time": 279601, "pitch": 46, "duration": 60, "velocity": 107}, {"time": 279601, "pitch": 54, "duration": 60, "velocity": 85}, {"time": 279721, "pitch": 38, "duration": 60, "velocity": 114}, {"time": 279721, "pitch": 54, "duration": 60, "velocity": 55}, {"time": 279841, "pitch": 35, "duration": 61, "velocity": 127}, {"time": 279841, "pitch": 42, "duration": 61, "velocity": 94}, {"time": 279841, "pitch": 54, "duration": 61, "velocity": 75}, {"time": 279962, "pitch": 54, "duration": 60, "velocity": 55}, {"time": 280082, "pitch": 46, "duration": 60, "velocity": 105}, {"time": 280082, "pitch": 54, "duration": 60, "velocity": 85}, {"time": 280203, "pitch": 54, "duration": 60, "velocity": 55}, {"time": 280323, "pitch": 35, "duration": 60, "velocity": 110}, {"time": 280323, "pitch": 38, "duration": 60, "velocity": 105}, {"time": 280323, "pitch": 42, "duration": 60, "velocity": 91}, {"time": 280323, "pitch": 54, "duration": 60, "velocity": 75}, {"time": 280443, "pitch": 54, "duration": 61, "velocity": 55}, {"time": 280564, "pitch": 46, "duration": 60, "velocity": 107}, {"time": 280564, "pitch": 54, "duration": 60, "velocity": 85}, {"time": 280684, "pitch": 54, "duration": 60, "velocity": 55}, {"time": 280804, "pitch": 35, "duration": 59, "velocity": 114}, {"time": 280804, "pitch": 42, "duration": 59, "velocity": 107}, {"time": 280804, "pitch": 54, "duration": 59, "velocity": 75}, {"time": 280922, "pitch": 54, "duration": 59, "velocity": 55}, {"time": 281040, "pitch": 42, "duration": 59, "velocity": 64}, {"time": 281040, "pitch": 54, "duration": 59, "velocity": 85}, {"time": 281158, "pitch": 54, "duration": 59, "velocity": 55}, {"time": 281276, "pitch": 35, "duration": 60, "velocity": 105}, {"time": 281276, "pitch": 38, "duration": 60, "velocity": 100}, {"time": 281276, "pitch": 42, "duration": 60, "velocity": 85}, {"time": 281276, "pitch": 54, "duration": 60, "velocity": 75}, {"time": 281396, "pitch": 54, "duration": 60, "velocity": 55}, {"time": 281517, "pitch": 46, "duration": 60, "velocity": 107}, {"time": 281517, "pitch": 54, "duration": 60, "velocity": 85}, {"time": 281637, "pitch": 38, "duration": 60, "velocity": 114}, {"time": 281637, "pitch": 54, "duration": 60, "velocity": 55}, {"time": 281757, "pitch": 35, "duration": 61, "velocity": 127}, {"time": 281757, "pitch": 42, "duration": 61, "velocity": 94}, {"time": 281757, "pitch": 54, "duration": 61, "velocity": 75}, {"time": 281878, "pitch": 54, "duration": 60, "velocity": 55}, {"time": 281998, "pitch": 46, "duration": 60, "velocity": 105}, {"time": 281998, "pitch": 54, "duration": 60, "velocity": 85}, {"time": 282119, "pitch": 54, "duration": 60, "velocity": 55}, {"time": 282239, "pitch": 35, "duration": 60, "velocity": 110}, {"time": 282239, "pitch": 38, "duration": 60, "velocity": 105}, {"time": 282239, "pitch": 42, "duration": 60, "velocity": 91}, {"time": 282239, "pitch": 54, "duration": 60, "velocity": 75}, {"time": 282359, "pitch": 54, "duration": 61, "velocity": 55}, {"time": 282480, "pitch": 46, "duration": 60, "velocity": 107}, {"time": 282480, "pitch": 54, "duration": 60, "velocity": 85}, {"time": 282600, "pitch": 54, "duration": 60, "velocity": 55}, {"time": 282721, "pitch": 35, "duration": 60, "velocity": 114}, {"time": 282721, "pitch": 42, "duration": 60, "velocity": 107}, {"time": 282721, "pitch": 54, "duration": 60, "velocity": 75}, {"time": 282841, "pitch": 54, "duration": 60, "velocity": 55}, {"time": 282961, "pitch": 42, "duration": 61, "velocity": 64}, {"time": 282961, "pitch": 54, "duration": 61, "velocity": 85}, {"time": 283082, "pitch": 54, "duration": 60, "velocity": 55}, {"time": 283202, "pitch": 35, "duration": 60, "velocity": 105}, {"time": 283202, "pitch": 38, "duration": 60, "velocity": 100}, {"time": 283202, "pitch": 42, "duration": 60, "velocity": 85}, {"time": 283202, "pitch": 54, "duration": 60, "velocity": 75}, {"time": 283323, "pitch": 54, "duration": 60, "velocity": 55}, {"time": 283443, "pitch": 46, "duration": 60, "velocity": 107}, {"time": 283443, "pitch": 54, "duration": 60, "velocity": 85}, {"time": 283563, "pitch": 38, "duration": 61, "velocity": 114}, {"time": 283563, "pitch": 54, "duration": 61, "velocity": 55}, {"time": 283684, "pitch": 35, "duration": 60, "velocity": 127}, {"time": 283684, "pitch": 42, "duration": 60, "velocity": 94}, {"time": 283684, "pitch": 54, "duration": 60, "velocity": 75}, {"time": 283804, "pitch": 54, "duration": 60, "velocity": 55}, {"time": 283925, "pitch": 46, "duration": 60, "velocity": 105}, {"time": 283925, "pitch": 54, "duration": 60, "velocity": 85}, {"time": 284045, "pitch": 54, "duration": 60, "velocity": 55}, {"time": 284165, "pitch": 35, "duration": 61, "velocity": 110}, {"time": 284165, "pitch": 38, "duration": 61, "velocity": 105}, {"time": 284165, "pitch": 42, "duration": 61, "velocity": 91}, {"time": 284165, "pitch": 54, "duration": 61, "velocity": 75}, {"time": 284286, "pitch": 54, "duration": 60, "velocity": 55}, {"time": 284406, "pitch": 46, "duration": 60, "velocity": 107}, {"time": 284406, "pitch": 54, "duration": 60, "velocity": 85}, {"time": 284527, "pitch": 54, "duration": 60, "velocity": 55}, {"time": 284647, "pitch": 35, "duration": 60, "velocity": 114}, {"time": 284647, "pitch": 42, "duration": 60, "velocity": 107}, {"time": 284647, "pitch": 54, "duration": 60, "velocity": 75}, {"time": 284767, "pitch": 54, "duration": 61, "velocity": 55}, {"time": 284888, "pitch": 42, "duration": 60, "velocity": 64}, {"time": 284888, "pitch": 54, "duration": 60, "velocity": 85}, {"time": 285008, "pitch": 54, "duration": 60, "velocity": 55}, {"time": 285129, "pitch": 35, "duration": 60, "velocity": 105}, {"time": 285129, "pitch": 38, "duration": 60, "velocity": 100}, {"time": 285129, "pitch": 42, "duration": 60, "velocity": 85}, {"time": 285129, "pitch": 54, "duration": 60, "velocity": 75}, {"time": 285249, "pitch": 54, "duration": 60, "velocity": 55}, {"time": 285369, "pitch": 46, "duration": 61, "velocity": 107}, {"time": 285369, "pitch": 54, "duration": 61, "velocity": 85}, {"time": 285490, "pitch": 38, "duration": 60, "velocity": 114}, {"time": 285490, "pitch": 54, "duration": 60, "velocity": 55}, {"time": 285610, "pitch": 35, "duration": 60, "velocity": 127}, {"time": 285610, "pitch": 42, "duration": 60, "velocity": 94}, {"time": 285610, "pitch": 54, "duration": 60, "velocity": 75}, {"time": 285731, "pitch": 54, "duration": 60, "velocity": 55}, {"time": 285851, "pitch": 46, "duration": 60, "velocity": 105}, {"time": 285851, "pitch": 54, "duration": 60, "velocity": 85}, {"time": 285971, "pitch": 54, "duration": 61, "velocity": 55}, {"time": 286092, "pitch": 35, "duration": 60, "velocity": 110}, {"time": 286092, "pitch": 38, "duration": 60, "velocity": 105}, {"time": 286092, "pitch": 42, "duration": 60, "velocity": 91}, {"time": 286092, "pitch": 54, "duration": 60, "velocity": 75}, {"time": 286212, "pitch": 54, "duration": 60, "velocity": 55}, {"time": 286333, "pitch": 46, "duration": 60, "velocity": 107}, {"time": 286333, "pitch": 54, "duration": 60, "velocity": 85}, {"time": 286453, "pitch": 54, "duration": 60, "velocity": 55}, {"time": 286573, "pitch": 35, "duration": 61, "velocity": 114}, {"time": 286573, "pitch": 42, "duration": 61, "velocity": 107}, {"time": 286573, "pitch": 54, "duration": 61, "velocity": 75}, {"time": 286694, "pitch": 54, "duration": 60, "velocity": 55}, {"time": 286814, "pitch": 42, "duration": 60, "velocity": 64}, {"time": 286814, "pitch": 54, "duration": 60, "velocity": 85}, {"time": 286935, "pitch": 54, "duration": 60, "velocity": 55}, {"time": 287055, "pitch": 35, "duration": 60, "velocity": 105}, {"time": 287055, "pitch": 38, "duration": 60, "velocity": 100}, {"time": 287055, "pitch": 42, "duration": 60, "velocity": 85}, {"time": 287055, "pitch": 54, "duration": 60, "velocity": 75}, {"time": 287175, "pitch": 54, "duration": 61, "velocity": 55}, {"time": 287296, "pitch": 46, "duration": 60, "velocity": 107}, {"time": 287296, "pitch": 54, "duration": 60, "velocity": 85}, {"time": 287416, "pitch": 38, "duration": 60, "velocity": 114}, {"time": 287416, "pitch": 54, "duration": 60, "velocity": 55}, {"time": 287537, "pitch": 35, "duration": 60, "velocity": 127}, {"time": 287537, "pitch": 42, "duration": 60, "velocity": 94}, {"time": 287537, "pitch": 54, "duration": 60, "velocity": 75}, {"time": 287657, "pitch": 54, "duration": 60, "velocity": 55}, {"time": 287777, "pitch": 46, "duration": 61, "velocity": 105}, {"time": 287777, "pitch": 54, "duration": 61, "velocity": 85}, {"time": 287898, "pitch": 54, "duration": 60, "velocity": 55}, {"time": 288018, "pitch": 35, "duration": 60, "velocity": 110}, {"time": 288018, "pitch": 38, "duration": 60, "velocity": 105}, {"time": 288018, "pitch": 42, "duration": 60, "velocity": 91}, {"time": 288018, "pitch": 54, "duration": 60, "velocity": 75}, {"time": 288139, "pitch": 54, "duration": 60, "velocity": 55}, {"time": 288259, "pitch": 46, "duration": 60, "velocity": 107}, {"time": 288259, "pitch": 54, "duration": 60, "velocity": 85}, {"time": 288379, "pitch": 54, "duration": 61, "velocity": 55}, {"time": 288500, "pitch": 35, "duration": 60, "velocity": 114}, {"time": 288500, "pitch": 42, "duration": 60, "velocity": 107}, {"time": 288500, "pitch": 54, "duration": 60, "velocity": 75}, {"time": 288620, "pitch": 54, "duration": 60, "velocity": 55}, {"time": 288741, "pitch": 42, "duration": 60, "velocity": 64}, {"time": 288741, "pitch": 54, "duration": 60, "velocity": 85}, {"time": 288861, "pitch": 54, "duration": 60, "velocity": 55}, {"time": 288981, "pitch": 35, "duration": 61, "velocity": 105}, {"time": 288981, "pitch": 38, "duration": 61, "velocity": 100}, {"time": 288981, "pitch": 42, "duration": 61, "velocity": 85}, {"time": 288981, "pitch": 54, "duration": 61, "velocity": 75}, {"time": 289102, "pitch": 54, "duration": 60, "velocity": 55}, {"time": 289222, "pitch": 46, "duration": 60, "velocity": 107}, {"time": 289222, "pitch": 54, "duration": 60, "velocity": 85}, {"time": 289343, "pitch": 38, "duration": 60, "velocity": 114}, {"time": 289343, "pitch": 54, "duration": 60, "velocity": 55}, {"time": 289463, "pitch": 35, "duration": 60, "velocity": 127}, {"time": 289463, "pitch": 42, "duration": 60, "velocity": 94}, {"time": 289463, "pitch": 54, "duration": 60, "velocity": 75}, {"time": 289583, "pitch": 54, "duration": 61, "velocity": 55}, {"time": 289704, "pitch": 46, "duration": 60, "velocity": 105}, {"time": 289704, "pitch": 54, "duration": 60, "velocity": 85}, {"time": 289824, "pitch": 54, "duration": 60, "velocity": 55}, {"time": 289945, "pitch": 35, "duration": 60, "velocity": 110}, {"time": 289945, "pitch": 38, "duration": 60, "velocity": 105}, {"time": 289945, "pitch": 42, "duration": 60, "velocity": 91}, {"time": 289945, "pitch": 54, "duration": 60, "velocity": 75}, {"time": 290065, "pitch": 54, "duration": 60, "velocity": 55}, {"time": 290185, "pitch": 46, "duration": 61, "velocity": 107}, {"time": 290185, "pitch": 54, "duration": 61, "velocity": 85}, {"time": 290306, "pitch": 54, "duration": 60, "velocity": 55}, {"time": 290426, "pitch": 35, "duration": 60, "velocity": 114}, {"time": 290426, "pitch": 42, "duration": 60, "velocity": 107}, {"time": 290426, "pitch": 54, "duration": 60, "velocity": 75}, {"time": 290547, "pitch": 54, "duration": 60, "velocity": 55}, {"time": 290667, "pitch": 42, "duration": 60, "velocity": 64}, {"time": 290667, "pitch": 54, "duration": 60, "velocity": 85}, {"time": 290787, "pitch": 54, "duration": 61, "velocity": 55}, {"time": 290908, "pitch": 35, "duration": 60, "velocity": 105}, {"time": 290908, "pitch": 38, "duration": 60, "velocity": 100}, {"time": 290908, "pitch": 42, "duration": 60, "velocity": 85}, {"time": 290908, "pitch": 54, "duration": 60, "velocity": 75}, {"time": 291028, "pitch": 54, "duration": 60, "velocity": 55}, {"time": 291149, "pitch": 46, "duration": 60, "velocity": 107}, {"time": 291149, "pitch": 54, "duration": 60, "velocity": 85}, {"time": 291269, "pitch": 38, "duration": 60, "velocity": 114}, {"time": 291269, "pitch": 54, "duration": 60, "velocity": 55}, {"time": 291389, "pitch": 35, "duration": 61, "velocity": 127}, {"time": 291389, "pitch": 42, "duration": 61, "velocity": 94}, {"time": 291389, "pitch": 54, "duration": 61, "velocity": 75}, {"time": 291510, "pitch": 54, "duration": 60, "velocity": 55}, {"time": 291630, "pitch": 46, "duration": 60, "velocity": 105}, {"time": 291630, "pitch": 54, "duration": 60, "velocity": 85}, {"time": 291751, "pitch": 54, "duration": 60, "velocity": 55}, {"time": 291871, "pitch": 35, "duration": 60, "velocity": 110}, {"time": 291871, "pitch": 38, "duration": 60, "velocity": 105}, {"time": 291871, "pitch": 42, "duration": 60, "velocity": 91}, {"time": 291871, "pitch": 54, "duration": 60, "velocity": 75}, {"time": 291991, "pitch": 54, "duration": 61, "velocity": 55}, {"time": 292112, "pitch": 46, "duration": 60, "velocity": 107}, {"time": 292112, "pitch": 54, "duration": 60, "velocity": 85}, {"time": 292232, "pitch": 54, "duration": 60, "velocity": 55}], "annotations": [{"time": 283, "annotation": {"number": 7, "value": 80}, "group": "control_change"}, {"time": 304, "annotation": {"number": 11, "value": 127}, "group": "control_change"}, {"time": 326, "annotation": {"number": 10, "value": 64}, "group": "control_change"}, {"time": 348, "annotation": {"number": 91, "value": 0}, "group": "control_change"}, {"time": 370, "annotation": {"number": 93, "value": 0}, "group": "control_change"}, {"time": 391, "annotation": {"number": 101, "value": 0}, "group": "control_change"}, {"time": 413, "annotation": {"number": 100, "value": 0}, "group": "control_change"}, {"time": 435, "annotation": {"number": 6, "value": 12}, "group": "control_change"}, {"time": 456, "annotation": {"number": 101, "value": 127}, "group": "control_change"}, {"time": 478, "annotation": {"number": 100, "value": 127}, "group": "control_change"}]}, {"program": 0, "is_drum": false, "name": "ARPEGGIO C2", "annotations": [{"time": 217, "annotation": {"number": 0, "value": 1}, "group": "control_change"}, {"time": 239, "annotation": {"number": 32, "value": 0}, "group": "control_change"}]}, {"program": 98, "is_drum": false, "name": "ARPEGGIO C2", "notes": [{"time": 64321, "pitch": 83, "duration": 60, "velocity": 127}, {"time": 64562, "pitch": 95, "duration": 60, "velocity": 127}, {"time": 64682, "pitch": 83, "duration": 60, "velocity": 127}, {"time": 66237, "pitch": 83, "duration": 60, "velocity": 127}, {"time": 66478, "pitch": 95, "duration": 60, "velocity": 127}, {"time": 66598, "pitch": 83, "duration": 60, "velocity": 127}, {"time": 68163, "pitch": 86, "duration": 60, "velocity": 127}, {"time": 68404, "pitch": 98, "duration": 60, "velocity": 127}, {"time": 68524, "pitch": 86, "duration": 61, "velocity": 127}, {"time": 70079, "pitch": 88, "duration": 60, "velocity": 127}, {"time": 70320, "pitch": 100, "duration": 60, "velocity": 127}, {"time": 70440, "pitch": 88, "duration": 61, "velocity": 127}, {"time": 71995, "pitch": 83, "duration": 60, "velocity": 127}, {"time": 72236, "pitch": 95, "duration": 60, "velocity": 127}, {"time": 72356, "pitch": 83, "duration": 61, "velocity": 127}, {"time": 73922, "pitch": 83, "duration": 60, "velocity": 127}, {"time": 74162, "pitch": 95, "duration": 61, "velocity": 127}, {"time": 74283, "pitch": 83, "duration": 60, "velocity": 127}, {"time": 75838, "pitch": 88, "duration": 60, "velocity": 127}, {"time": 76078, "pitch": 100, "duration": 61, "velocity": 127}, {"time": 76199, "pitch": 88, "duration": 60, "velocity": 127}, {"time": 77764, "pitch": 90, "duration": 59, "velocity": 127}, {"time": 78000, "pitch": 102, "duration": 58, "velocity": 127}, {"time": 78117, "pitch": 90, "duration": 59, "velocity": 127}, {"time": 146875, "pitch": 83, "duration": 60, "velocity": 127}, {"time": 147116, "pitch": 95, "duration": 60, "velocity": 127}, {"time": 147236, "pitch": 83, "duration": 60, "velocity": 127}, {"time": 148801, "pitch": 83, "duration": 61, "velocity": 127}, {"time": 149042, "pitch": 95, "duration": 60, "velocity": 127}, {"time": 149163, "pitch": 83, "duration": 60, "velocity": 127}, {"time": 150717, "pitch": 86, "duration": 61, "velocity": 127}, {"time": 150958, "pitch": 98, "duration": 60, "velocity": 127}, {"time": 151079, "pitch": 86, "duration": 60, "velocity": 127}, {"time": 152644, "pitch": 88, "duration": 59, "velocity": 127}, {"time": 152879, "pitch": 100, "duration": 59, "velocity": 127}, {"time": 152997, "pitch": 88, "duration": 59, "velocity": 127}, {"time": 154560, "pitch": 83, "duration": 60, "velocity": 127}, {"time": 154801, "pitch": 95, "duration": 60, "velocity": 127}, {"time": 154921, "pitch": 83, "duration": 60, "velocity": 127}, {"time": 156476, "pitch": 83, "duration": 60, "velocity": 127}, {"time": 156717, "pitch": 95, "duration": 60, "velocity": 127}, {"time": 156837, "pitch": 83, "duration": 60, "velocity": 127}, {"time": 158402, "pitch": 88, "duration": 60, "velocity": 127}, {"time": 158643, "pitch": 100, "duration": 60, "velocity": 127}, {"time": 158763, "pitch": 88, "duration": 61, "velocity": 127}, {"time": 160318, "pitch": 90, "duration": 60, "velocity": 127}, {"time": 160559, "pitch": 102, "duration": 60, "velocity": 127}, {"time": 160679, "pitch": 90, "duration": 61, "velocity": 127}, {"time": 194879, "pitch": 83, "duration": 60, "velocity": 127}, {"time": 195120, "pitch": 95, "duration": 60, "velocity": 127}, {"time": 195240, "pitch": 83, "duration": 60, "velocity": 127}, {"time": 196795, "pitch": 83, "duration": 60, "velocity": 127}, {"time": 197036, "pitch": 95, "duration": 60, "velocity": 127}, {"time": 197156, "pitch": 83, "duration": 60, "velocity": 127}, {"time": 198721, "pitch": 86, "duration": 61, "velocity": 127}, {"time": 198962, "pitch": 98, "duration": 60, "velocity": 127}, {"time": 199083, "pitch": 86, "duration": 60, "velocity": 127}, {"time": 200637, "pitch": 88, "duration": 61, "velocity": 127}, {"time": 200878, "pitch": 100, "duration": 60, "velocity": 127}, {"time": 200999, "pitch": 88, "duration": 60, "velocity": 127}, {"time": 202564, "pitch": 83, "duration": 59, "velocity": 127}, {"time": 202799, "pitch": 95, "duration": 59, "velocity": 127}, {"time": 202917, "pitch": 83, "duration": 59, "velocity": 127}, {"time": 204480, "pitch": 83, "duration": 60, "velocity": 127}, {"time": 204721, "pitch": 95, "duration": 60, "velocity": 127}, {"time": 204841, "pitch": 83, "duration": 60, "velocity": 127}, {"time": 206396, "pitch": 88, "duration": 60, "velocity": 127}, {"time": 206637, "pitch": 100, "duration": 60, "velocity": 127}, {"time": 206757, "pitch": 88, "duration": 60, "velocity": 127}, {"time": 208322, "pitch": 90, "duration": 60, "velocity": 127}, {"time": 208563, "pitch": 102, "duration": 60, "velocity": 127}, {"time": 208683, "pitch": 90, "duration": 61, "velocity": 127}], "annotations": [{"time": 283, "annotation": {"number": 7, "value": 85}, "group": "control_change"}, {"time": 304, "annotation": {"number": 11, "value": 127}, "group": "control_change"}, {"time": 326, "annotation": {"number": 10, "value": 89}, "group": "control_change"}, {"time": 348, "annotation": {"number": 91, "value": 80}, "group": "control_change"}, {"time": 370, "annotation": {"number": 93, "value": 0}, "group": "control_change"}, {"time": 391, "annotation": {"number": 101, "value": 0}, "group": "control_change"}, {"time": 413, "annotation": {"number": 100, "value": 0}, "group": "control_change"}, {"time": 435, "annotation": {"number": 6, "value": 12}, "group": "control_change"}, {"time": 456, "annotation": {"number": 101, "value": 127}, "group": "control_change"}, {"time": 478, "annotation": {"number": 100, "value": 127}, "group": "control_change"}]}, {"program": 0, "is_drum": false, "name": "A.PIANO 2", "notes": [{"time": 211683, "pitch": 40, "duration": 120, "velocity": 100}, {"time": 211683, "pitch": 59, "duration": 241, "velocity": 110}, {"time": 211683, "pitch": 64, "duration": 241, "velocity": 110}, {"time": 211683, "pitch": 67, "duration": 241, "velocity": 105}, {"time": 211924, "pitch": 40, "duration": 180, "velocity": 94}, {"time": 212044, "pitch": 59, "duration": 238, "velocity": 102}, {"time": 212044, "pitch": 64, "duration": 238, "velocity": 105}, {"time": 212044, "pitch": 67, "duration": 238, "velocity": 102}, {"time": 212282, "pitch": 40, "duration": 414, "velocity": 102}, {"time": 212400, "pitch": 59, "duration": 537, "velocity": 105}, {"time": 212400, "pitch": 64, "duration": 537, "velocity": 112}, {"time": 212400, "pitch": 67, "duration": 537, "velocity": 102}, {"time": 212877, "pitch": 40, "duration": 240, "velocity": 98}, {"time": 213117, "pitch": 59, "duration": 362, "velocity": 105}, {"time": 213117, "pitch": 64, "duration": 362, "velocity": 105}, {"time": 213117, "pitch": 67, "duration": 482, "velocity": 102}, {"time": 213238, "pitch": 40, "duration": 361, "velocity": 94}, {"time": 213599, "pitch": 38, "duration": 120, "velocity": 98}, {"time": 213599, "pitch": 57, "duration": 241, "velocity": 102}, {"time": 213599, "pitch": 62, "duration": 241, "velocity": 107}, {"time": 213599, "pitch": 67, "duration": 241, "velocity": 103}, {"time": 213840, "pitch": 38, "duration": 180, "velocity": 85}, {"time": 213960, "pitch": 57, "duration": 241, "velocity": 102}, {"time": 213960, "pitch": 62, "duration": 241, "velocity": 105}, {"time": 213960, "pitch": 67, "duration": 241, "velocity": 98}, {"time": 214201, "pitch": 38, "duration": 421, "velocity": 92}, {"time": 214321, "pitch": 57, "duration": 542, "velocity": 107}, {"time": 214321, "pitch": 62, "duration": 542, "velocity": 105}, {"time": 214321, "pitch": 66, "duration": 542, "velocity": 88}, {"time": 214803, "pitch": 38, "duration": 241, "velocity": 100}, {"time": 215044, "pitch": 57, "duration": 412, "velocity": 110}, {"time": 215044, "pitch": 62, "duration": 412, "velocity": 100}, {"time": 215044, "pitch": 66, "duration": 471, "velocity": 105}, {"time": 215162, "pitch": 38, "duration": 353, "velocity": 86}, {"time": 215515, "pitch": 36, "duration": 120, "velocity": 100}, {"time": 215515, "pitch": 59, "duration": 241, "velocity": 110}, {"time": 215515, "pitch": 64, "duration": 241, "velocity": 110}, {"time": 215515, "pitch": 67, "duration": 241, "velocity": 105}, {"time": 215756, "pitch": 36, "duration": 180, "velocity": 94}, {"time": 215876, "pitch": 59, "duration": 241, "velocity": 102}, {"time": 215876, "pitch": 64, "duration": 241, "velocity": 105}, {"time": 215876, "pitch": 67, "duration": 241, "velocity": 102}, {"time": 216117, "pitch": 36, "duration": 421, "velocity": 102}, {"time": 216237, "pitch": 59, "duration": 542, "velocity": 105}, {"time": 216237, "pitch": 64, "duration": 542, "velocity": 112}, {"time": 216237, "pitch": 67, "duration": 542, "velocity": 102}, {"time": 216719, "pitch": 36, "duration": 241, "velocity": 98}, {"time": 216960, "pitch": 59, "duration": 361, "velocity": 105}, {"time": 216960, "pitch": 64, "duration": 361, "velocity": 105}, {"time": 216960, "pitch": 67, "duration": 481, "velocity": 102}, {"time": 217080, "pitch": 36, "duration": 361, "velocity": 94}, {"time": 217441, "pitch": 43, "duration": 181, "velocity": 107}, {"time": 217441, "pitch": 57, "duration": 241, "velocity": 114}, {"time": 217441, "pitch": 62, "duration": 301, "velocity": 114}, {"time": 217441, "pitch": 67, "duration": 301, "velocity": 110}, {"time": 217682, "pitch": 43, "duration": 241, "velocity": 98}, {"time": 217803, "pitch": 59, "duration": 240, "velocity": 107}, {"time": 217803, "pitch": 62, "duration": 240, "velocity": 114}, {"time": 217803, "pitch": 67, "duration": 240, "velocity": 117}, {"time": 218043, "pitch": 43, "duration": 301, "velocity": 83}, {"time": 218164, "pitch": 57, "duration": 358, "velocity": 119}, {"time": 218164, "pitch": 62, "duration": 417, "velocity": 100}, {"time": 218164, "pitch": 67, "duration": 358, "velocity": 103}, {"time": 218404, "pitch": 43, "duration": 118, "velocity": 66}, {"time": 218640, "pitch": 43, "duration": 59, "velocity": 102}, {"time": 218640, "pitch": 59, "duration": 59, "velocity": 110}, {"time": 218640, "pitch": 62, "duration": 59, "velocity": 100}, {"time": 218640, "pitch": 67, "duration": 59, "velocity": 119}, {"time": 218876, "pitch": 43, "duration": 241, "velocity": 91}, {"time": 218876, "pitch": 59, "duration": 421, "velocity": 102}, {"time": 218876, "pitch": 62, "duration": 421, "velocity": 98}, {"time": 218876, "pitch": 67, "duration": 421, "velocity": 100}, {"time": 219117, "pitch": 43, "duration": 120, "velocity": 100}, {"time": 219237, "pitch": 44, "duration": 120, "velocity": 100}, {"time": 219357, "pitch": 45, "duration": 121, "velocity": 100}, {"time": 219357, "pitch": 55, "duration": 241, "velocity": 110}, {"time": 219357, "pitch": 60, "duration": 241, "velocity": 110}, {"time": 219357, "pitch": 64, "duration": 241, "velocity": 105}, {"time": 219598, "pitch": 45, "duration": 181, "velocity": 94}, {"time": 219719, "pitch": 55, "duration": 240, "velocity": 102}, {"time": 219719, "pitch": 60, "duration": 240, "velocity": 105}, {"time": 219719, "pitch": 64, "duration": 240, "velocity": 102}, {"time": 219959, "pitch": 45, "duration": 422, "velocity": 102}, {"time": 220080, "pitch": 55, "duration": 542, "velocity": 105}, {"time": 220080, "pitch": 60, "duration": 542, "velocity": 112}, {"time": 220080, "pitch": 64, "duration": 542, "velocity": 102}, {"time": 220561, "pitch": 45, "duration": 241, "velocity": 98}, {"time": 220802, "pitch": 55, "duration": 361, "velocity": 105}, {"time": 220802, "pitch": 60, "duration": 361, "velocity": 105}, {"time": 220802, "pitch": 64, "duration": 482, "velocity": 102}, {"time": 220923, "pitch": 45, "duration": 361, "velocity": 94}, {"time": 221284, "pitch": 43, "duration": 118, "velocity": 98}, {"time": 221284, "pitch": 59, "duration": 235, "velocity": 102}, {"time": 221284, "pitch": 62, "duration": 235, "velocity": 107}, {"time": 221284, "pitch": 67, "duration": 235, "velocity": 103}, {"time": 221519, "pitch": 43, "duration": 177, "velocity": 85}, {"time": 221637, "pitch": 59, "duration": 238, "velocity": 102}, {"time": 221637, "pitch": 62, "duration": 238, "velocity": 105}, {"time": 221637, "pitch": 67, "duration": 238, "velocity": 98}, {"time": 221875, "pitch": 43, "duration": 422, "velocity": 92}, {"time": 221996, "pitch": 59, "duration": 542, "velocity": 107}, {"time": 221996, "pitch": 62, "duration": 542, "velocity": 105}, {"time": 221996, "pitch": 67, "duration": 542, "velocity": 88}, {"time": 222477, "pitch": 43, "duration": 241, "velocity": 100}, {"time": 222718, "pitch": 59, "duration": 422, "velocity": 110}, {"time": 222718, "pitch": 62, "duration": 422, "velocity": 100}, {"time": 222718, "pitch": 67, "duration": 482, "velocity": 105}, {"time": 222839, "pitch": 43, "duration": 120, "velocity": 86}, {"time": 222959, "pitch": 43, "duration": 120, "velocity": 100}, {"time": 223079, "pitch": 44, "duration": 121, "velocity": 100}, {"time": 223200, "pitch": 45, "duration": 120, "velocity": 100}, {"time": 223200, "pitch": 55, "duration": 241, "velocity": 110}, {"time": 223200, "pitch": 60, "duration": 241, "velocity": 110}, {"time": 223200, "pitch": 64, "duration": 241, "velocity": 105}, {"time": 223441, "pitch": 45, "duration": 180, "velocity": 94}, {"time": 223561, "pitch": 55, "duration": 241, "velocity": 102}, {"time": 223561, "pitch": 60, "duration": 241, "velocity": 105}, {"time": 223561, "pitch": 64, "duration": 241, "velocity": 102}, {"time": 223802, "pitch": 45, "duration": 421, "velocity": 102}, {"time": 223922, "pitch": 55, "duration": 542, "velocity": 105}, {"time": 223922, "pitch": 60, "duration": 542, "velocity": 112}, {"time": 223922, "pitch": 64, "duration": 542, "velocity": 102}, {"time": 224404, "pitch": 45, "duration": 240, "velocity": 98}, {"time": 224644, "pitch": 55, "duration": 354, "velocity": 105}, {"time": 224644, "pitch": 60, "duration": 354, "velocity": 105}, {"time": 224644, "pitch": 64, "duration": 472, "velocity": 102}, {"time": 224762, "pitch": 45, "duration": 118, "velocity": 94}, {"time": 224880, "pitch": 45, "duration": 118, "velocity": 100}, {"time": 224998, "pitch": 46, "duration": 118, "velocity": 100}, {"time": 225116, "pitch": 47, "duration": 241, "velocity": 107}, {"time": 225116, "pitch": 59, "duration": 301, "velocity": 103}, {"time": 225116, "pitch": 64, "duration": 301, "velocity": 110}, {"time": 225116, "pitch": 66, "duration": 301, "velocity": 91}, {"time": 225116, "pitch": 69, "duration": 301, "velocity": 91}, {"time": 225477, "pitch": 47, "duration": 301, "velocity": 94}, {"time": 225477, "pitch": 59, "duration": 301, "velocity": 88}, {"time": 225477, "pitch": 64, "duration": 301, "velocity": 107}, {"time": 225477, "pitch": 66, "duration": 361, "velocity": 86}, {"time": 225477, "pitch": 69, "duration": 361, "velocity": 86}, {"time": 225838, "pitch": 47, "duration": 361, "velocity": 103}, {"time": 225838, "pitch": 59, "duration": 361, "velocity": 110}, {"time": 225838, "pitch": 63, "duration": 361, "velocity": 103}, {"time": 225838, "pitch": 66, "duration": 361, "velocity": 88}, {"time": 225838, "pitch": 69, "duration": 361, "velocity": 102}, {"time": 226320, "pitch": 47, "duration": 60, "velocity": 102}, {"time": 226320, "pitch": 59, "duration": 60, "velocity": 102}, {"time": 226320, "pitch": 63, "duration": 60, "velocity": 102}, {"time": 226320, "pitch": 66, "duration": 60, "velocity": 88}, {"time": 226320, "pitch": 69, "duration": 60, "velocity": 80}, {"time": 226561, "pitch": 47, "duration": 60, "velocity": 76}, {"time": 226561, "pitch": 59, "duration": 60, "velocity": 102}, {"time": 226561, "pitch": 63, "duration": 60, "velocity": 88}, {"time": 226561, "pitch": 66, "duration": 60, "velocity": 72}, {"time": 226561, "pitch": 69, "duration": 60, "velocity": 87}, {"time": 226681, "pitch": 47, "duration": 361, "velocity": 106}, {"time": 226681, "pitch": 59, "duration": 361, "velocity": 104}, {"time": 226681, "pitch": 63, "duration": 361, "velocity": 113}, {"time": 226681, "pitch": 66, "duration": 361, "velocity": 106}, {"time": 226681, "pitch": 69, "duration": 361, "velocity": 111}], "annotations": [{"time": 217, "annotation": {"number": 0, "value": 0}, "group": "control_change"}, {"time": 239, "annotation": {"number": 32, "value": 0}, "group": "control_change"}, {"time": 283, "annotation": {"number": 7, "value": 110}, "group": "control_change"}, {"time": 304, "annotation": {"number": 11, "value": 127}, "group": "control_change"}, {"time": 326, "annotation": {"number": 10, "value": 76}, "group": "control_change"}, {"time": 348, "annotation": {"number": 91, "value": 100}, "group": "control_change"}, {"time": 370, "annotation": {"number": 93, "value": 0}, "group": "control_change"}, {"time": 391, "annotation": {"number": 101, "value": 0}, "group": "control_change"}, {"time": 413, "annotation": {"number": 100, "value": 0}, "group": "control_change"}, {"time": 435, "annotation": {"number": 6, "value": 12}, "group": "control_change"}, {"time": 456, "annotation": {"number": 101, "value": 127}, "group": "control_change"}, {"time": 478, "annotation": {"number": 100, "value": 127}, "group": "control_change"}]}, {"program": 0, "is_drum": false, "name": "WIND CHAIM", "annotations": [{"time": 217, "annotation": {"number": 0, "value": 5}, "group": "control_change"}, {"time": 239, "annotation": {"number": 32, "value": 0}, "group": "control_change"}]}, {"program": 124, "is_drum": false, "name": "WIND CHAIM", "notes": [{"time": 478, "pitch": 105, "duration": 66, "velocity": 112}, {"time": 491, "pitch": 103, "duration": 120, "velocity": 122}, {"time": 554, "pitch": 101, "duration": 115, "velocity": 94}, {"time": 627, "pitch": 100, "duration": 119, "velocity": 100}, {"time": 696, "pitch": 98, "duration": 121, "velocity": 103}, {"time": 773, "pitch": 96, "duration": 118, "velocity": 105}, {"time": 846, "pitch": 95, "duration": 125, "velocity": 104}, {"time": 927, "pitch": 93, "duration": 120, "velocity": 100}, {"time": 1002, "pitch": 91, "duration": 116, "velocity": 99}, {"time": 1076, "pitch": 89, "duration": 112, "velocity": 99}, {"time": 1146, "pitch": 88, "duration": 127, "velocity": 105}, {"time": 1220, "pitch": 86, "duration": 136, "velocity": 103}, {"time": 1302, "pitch": 84, "duration": 138, "velocity": 105}, {"time": 1389, "pitch": 83, "duration": 151, "velocity": 94}, {"time": 1487, "pitch": 81, "duration": 145, "velocity": 90}, {"time": 1579, "pitch": 79, "duration": 143, "velocity": 98}, {"time": 1671, "pitch": 77, "duration": 136, "velocity": 96}, {"time": 1763, "pitch": 76, "duration": 146, "velocity": 100}, {"time": 1856, "pitch": 74, "duration": 144, "velocity": 91}, {"time": 1954, "pitch": 72, "duration": 135, "velocity": 87}, {"time": 2043, "pitch": 71, "duration": 138, "velocity": 92}, {"time": 2133, "pitch": 69, "duration": 136, "velocity": 99}, {"time": 2219, "pitch": 67, "duration": 132, "velocity": 94}, {"time": 2303, "pitch": 65, "duration": 137, "velocity": 98}, {"time": 2396, "pitch": 64, "duration": 87, "velocity": 90}, {"time": 15835, "pitch": 105, "duration": 68, "velocity": 112}, {"time": 15850, "pitch": 103, "duration": 121, "velocity": 122}, {"time": 15913, "pitch": 101, "duration": 115, "velocity": 94}, {"time": 15987, "pitch": 100, "duration": 118, "velocity": 100}, {"time": 16055, "pitch": 98, "duration": 121, "velocity": 103}, {"time": 16132, "pitch": 96, "duration": 119, "velocity": 105}, {"time": 16205, "pitch": 95, "duration": 125, "velocity": 104}, {"time": 16287, "pitch": 93, "duration": 119, "velocity": 100}, {"time": 16361, "pitch": 91, "duration": 116, "velocity": 99}, {"time": 16435, "pitch": 89, "duration": 113, "velocity": 99}, {"time": 16505, "pitch": 88, "duration": 127, "velocity": 105}, {"time": 16580, "pitch": 86, "duration": 135, "velocity": 103}, {"time": 16661, "pitch": 84, "duration": 138, "velocity": 105}, {"time": 16748, "pitch": 83, "duration": 151, "velocity": 94}, {"time": 16847, "pitch": 81, "duration": 144, "velocity": 90}, {"time": 16938, "pitch": 79, "duration": 143, "velocity": 98}, {"time": 17030, "pitch": 77, "duration": 137, "velocity": 96}, {"time": 17122, "pitch": 76, "duration": 146, "velocity": 100}, {"time": 17215, "pitch": 74, "duration": 144, "velocity": 91}, {"time": 17313, "pitch": 72, "duration": 136, "velocity": 87}, {"time": 17402, "pitch": 71, "duration": 138, "velocity": 92}, {"time": 17492, "pitch": 69, "duration": 136, "velocity": 99}, {"time": 17578, "pitch": 67, "duration": 132, "velocity": 94}, {"time": 17662, "pitch": 65, "duration": 137, "velocity": 98}, {"time": 17756, "pitch": 64, "duration": 86, "velocity": 90}, {"time": 31205, "pitch": 105, "duration": 66, "velocity": 112}, {"time": 31219, "pitch": 103, "duration": 118, "velocity": 122}, {"time": 31281, "pitch": 101, "duration": 112, "velocity": 94}, {"time": 31353, "pitch": 100, "duration": 116, "velocity": 100}, {"time": 31420, "pitch": 98, "duration": 119, "velocity": 103}, {"time": 31495, "pitch": 96, "duration": 116, "velocity": 105}, {"time": 31567, "pitch": 95, "duration": 122, "velocity": 104}, {"time": 31647, "pitch": 93, "duration": 118, "velocity": 100}, {"time": 31720, "pitch": 91, "duration": 116, "velocity": 99}, {"time": 31794, "pitch": 89, "duration": 113, "velocity": 99}, {"time": 31865, "pitch": 88, "duration": 126, "velocity": 105}, {"time": 31939, "pitch": 86, "duration": 135, "velocity": 103}, {"time": 32020, "pitch": 84, "duration": 139, "velocity": 105}, {"time": 32107, "pitch": 83, "duration": 151, "velocity": 94}, {"time": 32206, "pitch": 81, "duration": 144, "velocity": 90}, {"time": 32297, "pitch": 79, "duration": 144, "velocity": 98}, {"time": 32389, "pitch": 77, "duration": 137, "velocity": 96}, {"time": 32482, "pitch": 76, "duration": 145, "velocity": 100}, {"time": 32574, "pitch": 74, "duration": 144, "velocity": 91}, {"time": 32672, "pitch": 72, "duration": 136, "velocity": 87}, {"time": 32762, "pitch": 71, "duration": 137, "velocity": 92}, {"time": 32851, "pitch": 69, "duration": 136, "velocity": 99}, {"time": 32937, "pitch": 67, "duration": 133, "velocity": 94}, {"time": 33021, "pitch": 65, "duration": 137, "velocity": 98}, {"time": 33115, "pitch": 64, "duration": 86, "velocity": 90}, {"time": 79198, "pitch": 105, "duration": 69, "velocity": 112}, {"time": 79213, "pitch": 103, "duration": 121, "velocity": 122}, {"time": 79277, "pitch": 101, "duration": 114, "velocity": 94}, {"time": 79350, "pitch": 100, "duration": 118, "velocity": 100}, {"time": 79418, "pitch": 98, "duration": 121, "velocity": 103}, {"time": 79495, "pitch": 96, "duration": 119, "velocity": 105}, {"time": 79569, "pitch": 95, "duration": 124, "velocity": 104}, {"time": 79650, "pitch": 93, "duration": 119, "velocity": 100}, {"time": 79724, "pitch": 91, "duration": 116, "velocity": 99}, {"time": 79798, "pitch": 89, "duration": 113, "velocity": 99}, {"time": 79869, "pitch": 88, "duration": 126, "velocity": 105}, {"time": 79943, "pitch": 86, "duration": 135, "velocity": 103}, {"time": 80024, "pitch": 84, "duration": 139, "velocity": 105}, {"time": 80111, "pitch": 83, "duration": 151, "velocity": 94}, {"time": 80210, "pitch": 81, "duration": 144, "velocity": 90}, {"time": 80301, "pitch": 79, "duration": 143, "velocity": 98}, {"time": 80393, "pitch": 77, "duration": 137, "velocity": 96}, {"time": 80486, "pitch": 76, "duration": 145, "velocity": 100}, {"time": 80578, "pitch": 74, "duration": 144, "velocity": 91}, {"time": 80676, "pitch": 72, "duration": 136, "velocity": 87}, {"time": 80766, "pitch": 71, "duration": 137, "velocity": 92}, {"time": 80855, "pitch": 69, "duration": 136, "velocity": 99}, {"time": 80941, "pitch": 67, "duration": 133, "velocity": 94}, {"time": 81025, "pitch": 65, "duration": 136, "velocity": 98}, {"time": 81119, "pitch": 64, "duration": 84, "velocity": 90}, {"time": 94557, "pitch": 105, "duration": 69, "velocity": 112}, {"time": 94573, "pitch": 103, "duration": 120, "velocity": 122}, {"time": 94636, "pitch": 101, "duration": 114, "velocity": 94}, {"time": 94709, "pitch": 100, "duration": 118, "velocity": 100}, {"time": 94777, "pitch": 98, "duration": 122, "velocity": 103}, {"time": 94854, "pitch": 96, "duration": 119, "velocity": 105}, {"time": 94928, "pitch": 95, "duration": 124, "velocity": 104}, {"time": 95009, "pitch": 93, "duration": 119, "velocity": 100}, {"time": 95083, "pitch": 91, "duration": 117, "velocity": 99}, {"time": 95157, "pitch": 89, "duration": 113, "velocity": 99}, {"time": 95228, "pitch": 88, "duration": 126, "velocity": 105}, {"time": 95302, "pitch": 86, "duration": 135, "velocity": 103}, {"time": 95383, "pitch": 84, "duration": 139, "velocity": 105}, {"time": 95471, "pitch": 83, "duration": 150, "velocity": 94}, {"time": 95569, "pitch": 81, "duration": 144, "velocity": 90}, {"time": 95660, "pitch": 79, "duration": 144, "velocity": 98}, {"time": 95752, "pitch": 77, "duration": 137, "velocity": 96}, {"time": 95845, "pitch": 76, "duration": 145, "velocity": 100}, {"time": 95937, "pitch": 74, "duration": 145, "velocity": 91}, {"time": 96035, "pitch": 72, "duration": 136, "velocity": 87}, {"time": 96125, "pitch": 71, "duration": 137, "velocity": 92}, {"time": 96214, "pitch": 69, "duration": 136, "velocity": 99}, {"time": 96300, "pitch": 67, "duration": 133, "velocity": 94}, {"time": 96385, "pitch": 65, "duration": 135, "velocity": 98}, {"time": 96478, "pitch": 64, "duration": 84, "velocity": 90}, {"time": 113759, "pitch": 105, "duration": 68, "velocity": 112}, {"time": 113774, "pitch": 103, "duration": 121, "velocity": 122}, {"time": 113837, "pitch": 101, "duration": 115, "velocity": 94}, {"time": 113911, "pitch": 100, "duration": 118, "velocity": 100}, {"time": 113979, "pitch": 98, "duration": 121, "velocity": 103}, {"time": 114056, "pitch": 96, "duration": 118, "velocity": 105}, {"time": 114129, "pitch": 95, "duration": 125, "velocity": 104}, {"time": 114211, "pitch": 93, "duration": 119, "velocity": 100}, {"time": 114285, "pitch": 91, "duration": 116, "velocity": 99}, {"time": 114359, "pitch": 89, "duration": 112, "velocity": 99}, {"time": 114429, "pitch": 88, "duration": 127, "velocity": 105}, {"time": 114504, "pitch": 86, "duration": 135, "velocity": 103}, {"time": 114585, "pitch": 84, "duration": 138, "velocity": 105}, {"time": 114672, "pitch": 83, "duration": 151, "velocity": 94}, {"time": 114770, "pitch": 81, "duration": 145, "velocity": 90}, {"time": 114862, "pitch": 79, "duration": 143, "velocity": 98}, {"time": 114954, "pitch": 77, "duration": 137, "velocity": 96}, {"time": 115046, "pitch": 76, "duration": 146, "velocity": 100}, {"time": 115139, "pitch": 74, "duration": 142, "velocity": 91}, {"time": 115236, "pitch": 72, "duration": 133, "velocity": 87}, {"time": 115324, "pitch": 71, "duration": 134, "velocity": 92}, {"time": 115411, "pitch": 69, "duration": 134, "velocity": 99}, {"time": 115495, "pitch": 67, "duration": 130, "velocity": 94}, {"time": 115578, "pitch": 65, "duration": 134, "velocity": 98}, {"time": 115669, "pitch": 64, "duration": 86, "velocity": 90}, {"time": 121444, "pitch": 105, "duration": 67, "velocity": 112}, {"time": 121459, "pitch": 103, "duration": 117, "velocity": 122}, {"time": 121520, "pitch": 101, "duration": 112, "velocity": 94}, {"time": 121592, "pitch": 100, "duration": 116, "velocity": 100}, {"time": 121659, "pitch": 98, "duration": 119, "velocity": 103}, {"time": 121734, "pitch": 96, "duration": 116, "velocity": 105}, {"time": 121806, "pitch": 95, "duration": 122, "velocity": 104}, {"time": 121886, "pitch": 93, "duration": 118, "velocity": 100}, {"time": 121959, "pitch": 91, "duration": 117, "velocity": 99}, {"time": 122033, "pitch": 89, "duration": 113, "velocity": 99}, {"time": 122104, "pitch": 88, "duration": 126, "velocity": 105}, {"time": 122178, "pitch": 86, "duration": 135, "velocity": 103}, {"time": 122259, "pitch": 84, "duration": 139, "velocity": 105}, {"time": 122346, "pitch": 83, "duration": 151, "velocity": 94}, {"time": 122445, "pitch": 81, "duration": 144, "velocity": 90}, {"time": 122536, "pitch": 79, "duration": 144, "velocity": 98}, {"time": 122628, "pitch": 77, "duration": 137, "velocity": 96}, {"time": 122721, "pitch": 76, "duration": 145, "velocity": 100}, {"time": 122813, "pitch": 74, "duration": 145, "velocity": 91}, {"time": 122911, "pitch": 72, "duration": 136, "velocity": 87}, {"time": 123001, "pitch": 71, "duration": 137, "velocity": 92}, {"time": 123090, "pitch": 69, "duration": 136, "velocity": 99}, {"time": 123176, "pitch": 67, "duration": 133, "velocity": 94}, {"time": 123261, "pitch": 65, "duration": 136, "velocity": 98}, {"time": 123354, "pitch": 64, "duration": 86, "velocity": 90}, {"time": 161763, "pitch": 105, "duration": 68, "velocity": 112}, {"time": 161778, "pitch": 103, "duration": 120, "velocity": 122}, {"time": 161841, "pitch": 101, "duration": 115, "velocity": 94}, {"time": 161915, "pitch": 100, "duration": 118, "velocity": 100}, {"time": 161983, "pitch": 98, "duration": 121, "velocity": 103}, {"time": 162060, "pitch": 96, "duration": 118, "velocity": 105}, {"time": 162133, "pitch": 95, "duration": 124, "velocity": 104}, {"time": 162215, "pitch": 93, "duration": 117, "velocity": 100}, {"time": 162288, "pitch": 91, "duration": 114, "velocity": 99}, {"time": 162360, "pitch": 89, "duration": 110, "velocity": 99}, {"time": 162429, "pitch": 88, "duration": 124, "velocity": 105}, {"time": 162502, "pitch": 86, "duration": 132, "velocity": 103}, {"time": 162581, "pitch": 84, "duration": 136, "velocity": 105}, {"time": 162667, "pitch": 83, "duration": 149, "velocity": 94}, {"time": 162764, "pitch": 81, "duration": 144, "velocity": 90}, {"time": 162855, "pitch": 79, "duration": 144, "velocity": 98}, {"time": 162948, "pitch": 77, "duration": 136, "velocity": 96}, {"time": 163040, "pitch": 76, "duration": 145, "velocity": 100}, {"time": 163132, "pitch": 74, "duration": 145, "velocity": 91}, {"time": 163231, "pitch": 72, "duration": 135, "velocity": 87}, {"time": 163320, "pitch": 71, "duration": 137, "velocity": 92}, {"time": 163409, "pitch": 69, "duration": 137, "velocity": 99}, {"time": 163495, "pitch": 67, "duration": 133, "velocity": 94}, {"time": 163580, "pitch": 65, "duration": 136, "velocity": 98}, {"time": 163673, "pitch": 64, "duration": 86, "velocity": 90}, {"time": 177122, "pitch": 105, "duration": 68, "velocity": 112}, {"time": 177137, "pitch": 103, "duration": 121, "velocity": 122}, {"time": 177200, "pitch": 101, "duration": 115, "velocity": 94}, {"time": 177274, "pitch": 100, "duration": 118, "velocity": 100}, {"time": 177342, "pitch": 98, "duration": 121, "velocity": 103}, {"time": 177419, "pitch": 96, "duration": 119, "velocity": 105}, {"time": 177492, "pitch": 95, "duration": 125, "velocity": 104}, {"time": 177574, "pitch": 93, "duration": 117, "velocity": 100}, {"time": 177647, "pitch": 91, "duration": 114, "velocity": 99}, {"time": 177720, "pitch": 89, "duration": 110, "velocity": 99}, {"time": 177788, "pitch": 88, "duration": 124, "velocity": 105}, {"time": 177861, "pitch": 86, "duration": 133, "velocity": 103}, {"time": 177941, "pitch": 84, "duration": 135, "velocity": 105}, {"time": 178026, "pitch": 83, "duration": 149, "velocity": 94}, {"time": 178123, "pitch": 81, "duration": 145, "velocity": 90}, {"time": 178214, "pitch": 79, "duration": 144, "velocity": 98}, {"time": 178307, "pitch": 77, "duration": 136, "velocity": 96}, {"time": 178399, "pitch": 76, "duration": 146, "velocity": 100}, {"time": 178491, "pitch": 74, "duration": 145, "velocity": 91}, {"time": 178590, "pitch": 72, "duration": 135, "velocity": 87}, {"time": 178679, "pitch": 71, "duration": 137, "velocity": 92}, {"time": 178768, "pitch": 69, "duration": 137, "velocity": 99}, {"time": 178855, "pitch": 67, "duration": 132, "velocity": 94}, {"time": 178939, "pitch": 65, "duration": 136, "velocity": 98}, {"time": 179032, "pitch": 64, "duration": 86, "velocity": 90}, {"time": 209757, "pitch": 105, "duration": 68, "velocity": 112}, {"time": 209772, "pitch": 103, "duration": 120, "velocity": 122}, {"time": 209835, "pitch": 101, "duration": 114, "velocity": 94}, {"time": 209908, "pitch": 100, "duration": 118, "velocity": 100}, {"time": 209976, "pitch": 98, "duration": 122, "velocity": 103}, {"time": 210054, "pitch": 96, "duration": 118, "velocity": 105}, {"time": 210127, "pitch": 95, "duration": 124, "velocity": 104}, {"time": 210208, "pitch": 93, "duration": 119, "velocity": 100}, {"time": 210282, "pitch": 91, "duration": 117, "velocity": 99}, {"time": 210357, "pitch": 89, "duration": 112, "velocity": 99}, {"time": 210427, "pitch": 88, "duration": 126, "velocity": 105}, {"time": 210501, "pitch": 86, "duration": 136, "velocity": 103}, {"time": 210582, "pitch": 84, "duration": 139, "velocity": 105}, {"time": 210670, "pitch": 83, "duration": 150, "velocity": 94}, {"time": 210768, "pitch": 81, "duration": 144, "velocity": 90}, {"time": 210859, "pitch": 79, "duration": 144, "velocity": 98}, {"time": 210952, "pitch": 77, "duration": 136, "velocity": 96}, {"time": 211044, "pitch": 76, "duration": 145, "velocity": 100}, {"time": 211136, "pitch": 74, "duration": 145, "velocity": 91}, {"time": 211235, "pitch": 72, "duration": 135, "velocity": 87}, {"time": 211324, "pitch": 71, "duration": 137, "velocity": 92}, {"time": 211413, "pitch": 69, "duration": 137, "velocity": 99}, {"time": 211499, "pitch": 67, "duration": 133, "velocity": 94}, {"time": 211584, "pitch": 65, "duration": 136, "velocity": 98}, {"time": 211677, "pitch": 64, "duration": 86, "velocity": 90}, {"time": 225116, "pitch": 105, "duration": 68, "velocity": 112}, {"time": 225131, "pitch": 103, "duration": 120, "velocity": 122}, {"time": 225194, "pitch": 101, "duration": 114, "velocity": 94}, {"time": 225267, "pitch": 100, "duration": 119, "velocity": 100}, {"time": 225335, "pitch": 98, "duration": 122, "velocity": 103}, {"time": 225413, "pitch": 96, "duration": 118, "velocity": 105}, {"time": 225486, "pitch": 95, "duration": 124, "velocity": 104}, {"time": 225567, "pitch": 93, "duration": 120, "velocity": 100}, {"time": 225642, "pitch": 91, "duration": 116, "velocity": 99}, {"time": 225716, "pitch": 89, "duration": 112, "velocity": 99}, {"time": 225786, "pitch": 88, "duration": 126, "velocity": 105}, {"time": 225860, "pitch": 86, "duration": 136, "velocity": 103}, {"time": 225942, "pitch": 84, "duration": 138, "velocity": 105}, {"time": 226029, "pitch": 83, "duration": 150, "velocity": 94}, {"time": 226127, "pitch": 81, "duration": 145, "velocity": 90}, {"time": 226218, "pitch": 79, "duration": 144, "velocity": 98}, {"time": 226311, "pitch": 77, "duration": 136, "velocity": 96}, {"time": 226403, "pitch": 76, "duration": 146, "velocity": 100}, {"time": 226495, "pitch": 74, "duration": 145, "velocity": 91}, {"time": 226594, "pitch": 72, "duration": 135, "velocity": 87}, {"time": 226683, "pitch": 71, "duration": 137, "velocity": 92}, {"time": 226772, "pitch": 69, "duration": 137, "velocity": 99}, {"time": 226859, "pitch": 67, "duration": 132, "velocity": 94}, {"time": 226943, "pitch": 65, "duration": 136, "velocity": 98}, {"time": 227036, "pitch": 64, "duration": 86, "velocity": 90}, {"time": 244317, "pitch": 105, "duration": 69, "velocity": 112}, {"time": 244332, "pitch": 103, "duration": 121, "velocity": 122}, {"time": 244396, "pitch": 101, "duration": 114, "velocity": 94}, {"time": 244469, "pitch": 100, "duration": 118, "velocity": 100}, {"time": 244537, "pitch": 98, "duration": 121, "velocity": 103}, {"time": 244614, "pitch": 96, "duration": 119, "velocity": 105}, {"time": 244688, "pitch": 95, "duration": 124, "velocity": 104}, {"time": 244769, "pitch": 93, "duration": 119, "velocity": 100}, {"time": 244843, "pitch": 91, "duration": 116, "velocity": 99}, {"time": 244917, "pitch": 89, "duration": 113, "velocity": 99}, {"time": 244988, "pitch": 88, "duration": 126, "velocity": 105}, {"time": 245062, "pitch": 86, "duration": 135, "velocity": 103}, {"time": 245143, "pitch": 84, "duration": 139, "velocity": 105}, {"time": 245230, "pitch": 83, "duration": 151, "velocity": 94}, {"time": 245329, "pitch": 81, "duration": 144, "velocity": 90}, {"time": 245420, "pitch": 79, "duration": 143, "velocity": 98}, {"time": 245512, "pitch": 77, "duration": 137, "velocity": 96}, {"time": 245605, "pitch": 76, "duration": 145, "velocity": 100}, {"time": 245697, "pitch": 74, "duration": 144, "velocity": 91}, {"time": 245795, "pitch": 72, "duration": 136, "velocity": 87}, {"time": 245885, "pitch": 71, "duration": 137, "velocity": 92}, {"time": 245974, "pitch": 69, "duration": 136, "velocity": 99}, {"time": 246060, "pitch": 67, "duration": 133, "velocity": 94}, {"time": 246144, "pitch": 65, "duration": 136, "velocity": 98}, {"time": 246238, "pitch": 64, "duration": 84, "velocity": 90}, {"time": 252002, "pitch": 105, "duration": 68, "velocity": 112}, {"time": 252017, "pitch": 103, "duration": 121, "velocity": 122}, {"time": 252080, "pitch": 101, "duration": 115, "velocity": 94}, {"time": 252154, "pitch": 100, "duration": 118, "velocity": 100}, {"time": 252222, "pitch": 98, "duration": 121, "velocity": 103}, {"time": 252299, "pitch": 96, "duration": 119, "velocity": 105}, {"time": 252372, "pitch": 95, "duration": 124, "velocity": 104}, {"time": 252454, "pitch": 93, "duration": 117, "velocity": 100}, {"time": 252527, "pitch": 91, "duration": 114, "velocity": 99}, {"time": 252600, "pitch": 89, "duration": 110, "velocity": 99}, {"time": 252668, "pitch": 88, "duration": 124, "velocity": 105}, {"time": 252741, "pitch": 86, "duration": 133, "velocity": 103}, {"time": 252821, "pitch": 84, "duration": 135, "velocity": 105}, {"time": 252906, "pitch": 83, "duration": 149, "velocity": 94}, {"time": 253003, "pitch": 81, "duration": 145, "velocity": 90}, {"time": 253094, "pitch": 79, "duration": 144, "velocity": 98}, {"time": 253187, "pitch": 77, "duration": 136, "velocity": 96}, {"time": 253279, "pitch": 76, "duration": 145, "velocity": 100}, {"time": 253371, "pitch": 74, "duration": 145, "velocity": 91}, {"time": 253470, "pitch": 72, "duration": 135, "velocity": 87}, {"time": 253559, "pitch": 71, "duration": 137, "velocity": 92}, {"time": 253648, "pitch": 69, "duration": 137, "velocity": 99}, {"time": 253735, "pitch": 67, "duration": 132, "velocity": 94}, {"time": 253819, "pitch": 65, "duration": 136, "velocity": 98}, {"time": 253912, "pitch": 64, "duration": 86, "velocity": 90}, {"time": 259677, "pitch": 105, "duration": 68, "velocity": 112}, {"time": 259692, "pitch": 103, "duration": 120, "velocity": 122}, {"time": 259755, "pitch": 101, "duration": 114, "velocity": 94}, {"time": 259828, "pitch": 100, "duration": 118, "velocity": 100}, {"time": 259896, "pitch": 98, "duration": 122, "velocity": 103}, {"time": 259974, "pitch": 96, "duration": 118, "velocity": 105}, {"time": 260047, "pitch": 95, "duration": 124, "velocity": 104}, {"time": 260128, "pitch": 93, "duration": 119, "velocity": 100}, {"time": 260202, "pitch": 91, "duration": 117, "velocity": 99}, {"time": 260277, "pitch": 89, "duration": 112, "velocity": 99}, {"time": 260347, "pitch": 88, "duration": 126, "velocity": 105}, {"time": 260421, "pitch": 86, "duration": 135, "velocity": 103}, {"time": 260502, "pitch": 84, "duration": 139, "velocity": 105}, {"time": 260590, "pitch": 83, "duration": 150, "velocity": 94}, {"time": 260688, "pitch": 81, "duration": 144, "velocity": 90}, {"time": 260779, "pitch": 79, "duration": 144, "velocity": 98}, {"time": 260872, "pitch": 77, "duration": 136, "velocity": 96}, {"time": 260964, "pitch": 76, "duration": 145, "velocity": 100}, {"time": 261056, "pitch": 74, "duration": 145, "velocity": 91}, {"time": 261154, "pitch": 72, "duration": 136, "velocity": 87}, {"time": 261244, "pitch": 71, "duration": 137, "velocity": 92}, {"time": 261333, "pitch": 69, "duration": 137, "velocity": 99}, {"time": 261419, "pitch": 67, "duration": 133, "velocity": 94}, {"time": 261504, "pitch": 65, "duration": 136, "velocity": 98}, {"time": 261597, "pitch": 64, "duration": 86, "velocity": 90}, {"time": 267361, "pitch": 105, "duration": 69, "velocity": 112}, {"time": 267376, "pitch": 103, "duration": 121, "velocity": 122}, {"time": 267440, "pitch": 101, "duration": 114, "velocity": 94}, {"time": 267513, "pitch": 100, "duration": 118, "velocity": 100}, {"time": 267581, "pitch": 98, "duration": 121, "velocity": 103}, {"time": 267658, "pitch": 96, "duration": 119, "velocity": 105}, {"time": 267732, "pitch": 95, "duration": 124, "velocity": 104}, {"time": 267813, "pitch": 93, "duration": 119, "velocity": 100}, {"time": 267887, "pitch": 91, "duration": 116, "velocity": 99}, {"time": 267961, "pitch": 89, "duration": 113, "velocity": 99}, {"time": 268032, "pitch": 88, "duration": 126, "velocity": 105}, {"time": 268106, "pitch": 86, "duration": 135, "velocity": 103}, {"time": 268187, "pitch": 84, "duration": 138, "velocity": 105}, {"time": 268274, "pitch": 83, "duration": 149, "velocity": 94}, {"time": 268372, "pitch": 81, "duration": 141, "velocity": 90}, {"time": 268461, "pitch": 79, "duration": 140, "velocity": 98}, {"time": 268551, "pitch": 77, "duration": 134, "velocity": 96}, {"time": 268642, "pitch": 76, "duration": 142, "velocity": 100}, {"time": 268732, "pitch": 74, "duration": 143, "velocity": 91}, {"time": 268829, "pitch": 72, "duration": 135, "velocity": 87}, {"time": 268918, "pitch": 71, "duration": 138, "velocity": 92}, {"time": 269007, "pitch": 69, "duration": 137, "velocity": 99}, {"time": 269094, "pitch": 67, "duration": 132, "velocity": 94}, {"time": 269178, "pitch": 65, "duration": 136, "velocity": 98}, {"time": 269271, "pitch": 64, "duration": 87, "velocity": 90}, {"time": 275036, "pitch": 105, "duration": 68, "velocity": 112}, {"time": 275051, "pitch": 103, "duration": 120, "velocity": 122}, {"time": 275114, "pitch": 101, "duration": 114, "velocity": 94}, {"time": 275187, "pitch": 100, "duration": 119, "velocity": 100}, {"time": 275255, "pitch": 98, "duration": 122, "velocity": 103}, {"time": 275333, "pitch": 96, "duration": 118, "velocity": 105}, {"time": 275406, "pitch": 95, "duration": 124, "velocity": 104}, {"time": 275487, "pitch": 93, "duration": 120, "velocity": 100}, {"time": 275561, "pitch": 91, "duration": 117, "velocity": 99}, {"time": 275636, "pitch": 89, "duration": 112, "velocity": 99}, {"time": 275706, "pitch": 88, "duration": 126, "velocity": 105}, {"time": 275780, "pitch": 86, "duration": 136, "velocity": 103}, {"time": 275861, "pitch": 84, "duration": 139, "velocity": 105}, {"time": 275949, "pitch": 83, "duration": 150, "velocity": 94}, {"time": 276047, "pitch": 81, "duration": 145, "velocity": 90}, {"time": 276138, "pitch": 79, "duration": 144, "velocity": 98}, {"time": 276231, "pitch": 77, "duration": 136, "velocity": 96}, {"time": 276323, "pitch": 76, "duration": 145, "velocity": 100}, {"time": 276415, "pitch": 74, "duration": 145, "velocity": 91}, {"time": 276514, "pitch": 72, "duration": 135, "velocity": 87}, {"time": 276603, "pitch": 71, "duration": 137, "velocity": 92}, {"time": 276692, "pitch": 69, "duration": 137, "velocity": 99}, {"time": 276779, "pitch": 67, "duration": 132, "velocity": 94}, {"time": 276863, "pitch": 65, "duration": 136, "velocity": 98}, {"time": 276956, "pitch": 64, "duration": 86, "velocity": 90}, {"time": 282721, "pitch": 105, "duration": 68, "velocity": 112}, {"time": 282736, "pitch": 103, "duration": 120, "velocity": 122}, {"time": 282799, "pitch": 101, "duration": 114, "velocity": 94}, {"time": 282872, "pitch": 100, "duration": 118, "velocity": 100}, {"time": 282940, "pitch": 98, "duration": 122, "velocity": 103}, {"time": 283018, "pitch": 96, "duration": 118, "velocity": 105}, {"time": 283091, "pitch": 95, "duration": 124, "velocity": 104}, {"time": 283172, "pitch": 93, "duration": 119, "velocity": 100}, {"time": 283246, "pitch": 91, "duration": 117, "velocity": 99}, {"time": 283321, "pitch": 89, "duration": 112, "velocity": 99}, {"time": 283391, "pitch": 88, "duration": 126, "velocity": 105}, {"time": 283465, "pitch": 86, "duration": 135, "velocity": 103}, {"time": 283546, "pitch": 84, "duration": 139, "velocity": 105}, {"time": 283634, "pitch": 83, "duration": 150, "velocity": 94}, {"time": 283732, "pitch": 81, "duration": 144, "velocity": 90}, {"time": 283823, "pitch": 79, "duration": 144, "velocity": 98}, {"time": 283915, "pitch": 77, "duration": 137, "velocity": 96}, {"time": 284008, "pitch": 76, "duration": 145, "velocity": 100}, {"time": 284100, "pitch": 74, "duration": 145, "velocity": 91}, {"time": 284198, "pitch": 72, "duration": 136, "velocity": 87}, {"time": 284288, "pitch": 71, "duration": 137, "velocity": 92}, {"time": 284377, "pitch": 69, "duration": 136, "velocity": 99}, {"time": 284463, "pitch": 67, "duration": 133, "velocity": 94}, {"time": 284548, "pitch": 65, "duration": 136, "velocity": 98}, {"time": 284641, "pitch": 64, "duration": 86, "velocity": 90}, {"time": 290426, "pitch": 105, "duration": 68, "velocity": 112}, {"time": 290441, "pitch": 103, "duration": 121, "velocity": 122}, {"time": 290504, "pitch": 101, "duration": 115, "velocity": 94}, {"time": 290578, "pitch": 100, "duration": 118, "velocity": 100}, {"time": 290646, "pitch": 98, "duration": 121, "velocity": 103}, {"time": 290723, "pitch": 96, "duration": 119, "velocity": 105}, {"time": 290796, "pitch": 95, "duration": 125, "velocity": 104}, {"time": 290878, "pitch": 93, "duration": 119, "velocity": 100}, {"time": 290952, "pitch": 91, "duration": 116, "velocity": 99}, {"time": 291026, "pitch": 89, "duration": 113, "velocity": 99}, {"time": 291096, "pitch": 88, "duration": 127, "velocity": 105}, {"time": 291171, "pitch": 86, "duration": 135, "velocity": 103}, {"time": 291252, "pitch": 84, "duration": 138, "velocity": 105}, {"time": 291339, "pitch": 83, "duration": 151, "velocity": 94}, {"time": 291438, "pitch": 81, "duration": 144, "velocity": 90}, {"time": 291529, "pitch": 79, "duration": 143, "velocity": 98}, {"time": 291621, "pitch": 77, "duration": 137, "velocity": 96}, {"time": 291713, "pitch": 76, "duration": 146, "velocity": 100}, {"time": 291806, "pitch": 74, "duration": 144, "velocity": 91}, {"time": 291904, "pitch": 72, "duration": 136, "velocity": 87}, {"time": 291993, "pitch": 71, "duration": 138, "velocity": 92}, {"time": 292083, "pitch": 69, "duration": 136, "velocity": 99}, {"time": 292169, "pitch": 67, "duration": 132, "velocity": 94}, {"time": 292253, "pitch": 65, "duration": 137, "velocity": 98}, {"time": 292347, "pitch": 64, "duration": 86, "velocity": 90}], "annotations": [{"time": 283, "annotation": {"number": 7, "value": 80}, "group": "control_change"}, {"time": 304, "annotation": {"number": 11, "value": 127}, "group": "control_change"}, {"time": 326, "annotation": {"number": 10, "value": 64}, "group": "control_change"}, {"time": 348, "annotation": {"number": 91, "value": 127}, "group": "control_change"}, {"time": 370, "annotation": {"number": 93, "value": 0}, "group": "control_change"}, {"time": 391, "annotation": {"number": 101, "value": 0}, "group": "control_change"}, {"time": 413, "annotation": {"number": 100, "value": 0}, "group": "control_change"}, {"time": 435, "annotation": {"number": 6, "value": 12}, "group": "control_change"}, {"time": 456, "annotation": {"number": 101, "value": 127}, "group": "control_change"}, {"time": 478, "annotation": {"number": 100, "value": 127}, "group": "control_change"}, {"time": 478, "annotation": {"number": 10, "value": 126}, "group": "control_change"}, {"time": 502, "annotation": {"number": 10, "value": 124}, "group": "control_change"}, {"time": 529, "annotation": {"number": 10, "value": 122}, "group": "control_change"}, {"time": 556, "annotation": {"number": 10, "value": 120}, "group": "control_change"}, {"time": 582, "annotation": {"number": 10, "value": 119}, "group": "control_change"}, {"time": 609, "annotation": {"number": 10, "value": 117}, "group": "control_change"}, {"time": 637, "annotation": {"number": 10, "value": 115}, "group": "control_change"}, {"time": 663, "annotation": {"number": 10, "value": 113}, "group": "control_change"}, {"time": 690, "annotation": {"number": 10, "value": 112}, "group": "control_change"}, {"time": 717, "annotation": {"number": 10, "value": 110}, "group": "control_change"}, {"time": 743, "annotation": {"number": 10, "value": 108}, "group": "control_change"}, {"time": 770, "annotation": {"number": 10, "value": 106}, "group": "control_change"}, {"time": 797, "annotation": {"number": 10, "value": 105}, "group": "control_change"}, {"time": 823, "annotation": {"number": 10, "value": 103}, "group": "control_change"}, {"time": 850, "annotation": {"number": 10, "value": 101}, "group": "control_change"}, {"time": 877, "annotation": {"number": 10, "value": 99}, "group": "control_change"}, {"time": 903, "annotation": {"number": 10, "value": 98}, "group": "control_change"}, {"time": 930, "annotation": {"number": 10, "value": 96}, "group": "control_change"}, {"time": 958, "annotation": {"number": 10, "value": 94}, "group": "control_change"}, {"time": 984, "annotation": {"number": 10, "value": 92}, "group": "control_change"}, {"time": 1011, "annotation": {"number": 10, "value": 91}, "group": "control_change"}, {"time": 1038, "annotation": {"number": 10, "value": 89}, "group": "control_change"}, {"time": 1064, "annotation": {"number": 10, "value": 87}, "group": "control_change"}, {"time": 1091, "annotation": {"number": 10, "value": 85}, "group": "control_change"}, {"time": 1118, "annotation": {"number": 10, "value": 84}, "group": "control_change"}, {"time": 1144, "annotation": {"number": 10, "value": 82}, "group": "control_change"}, {"time": 1171, "annotation": {"number": 10, "value": 80}, "group": "control_change"}, {"time": 1198, "annotation": {"number": 10, "value": 78}, "group": "control_change"}, {"time": 1224, "annotation": {"number": 10, "value": 77}, "group": "control_change"}, {"time": 1252, "annotation": {"number": 10, "value": 75}, "group": "control_change"}, {"time": 1279, "annotation": {"number": 10, "value": 73}, "group": "control_change"}, {"time": 1305, "annotation": {"number": 10, "value": 71}, "group": "control_change"}, {"time": 1332, "annotation": {"number": 10, "value": 70}, "group": "control_change"}, {"time": 1359, "annotation": {"number": 10, "value": 68}, "group": "control_change"}, {"time": 1385, "annotation": {"number": 10, "value": 66}, "group": "control_change"}, {"time": 1412, "annotation": {"number": 10, "value": 64}, "group": "control_change"}, {"time": 1439, "annotation": {"number": 10, "value": 63}, "group": "control_change"}, {"time": 1465, "annotation": {"number": 10, "value": 61}, "group": "control_change"}, {"time": 1492, "annotation": {"number": 10, "value": 59}, "group": "control_change"}, {"time": 1519, "annotation": {"number": 10, "value": 57}, "group": "control_change"}, {"time": 1546, "annotation": {"number": 10, "value": 56}, "group": "control_change"}, {"time": 1573, "annotation": {"number": 10, "value": 54}, "group": "control_change"}, {"time": 1600, "annotation": {"number": 10, "value": 52}, "group": "control_change"}, {"time": 1626, "annotation": {"number": 10, "value": 51}, "group": "control_change"}, {"time": 1653, "annotation": {"number": 10, "value": 49}, "group": "control_change"}, {"time": 1680, "annotation": {"number": 10, "value": 47}, "group": "control_change"}, {"time": 1706, "annotation": {"number": 10, "value": 45}, "group": "control_change"}, {"time": 1733, "annotation": {"number": 10, "value": 44}, "group": "control_change"}, {"time": 1760, "annotation": {"number": 10, "value": 42}, "group": "control_change"}, {"time": 1786, "annotation": {"number": 10, "value": 40}, "group": "control_change"}, {"time": 1813, "annotation": {"number": 10, "value": 38}, "group": "control_change"}, {"time": 1841, "annotation": {"number": 10, "value": 37}, "group": "control_change"}, {"time": 1867, "annotation": {"number": 10, "value": 35}, "group": "control_change"}, {"time": 1894, "annotation": {"number": 10, "value": 33}, "group": "control_change"}, {"time": 1921, "annotation": {"number": 10, "value": 31}, "group": "control_change"}, {"time": 1947, "annotation": {"number": 10, "value": 30}, "group": "control_change"}, {"time": 1974, "annotation": {"number": 10, "value": 28}, "group": "control_change"}, {"time": 2001, "annotation": {"number": 10, "value": 26}, "group": "control_change"}, {"time": 2027, "annotation": {"number": 10, "value": 24}, "group": "control_change"}, {"time": 2054, "annotation": {"number": 10, "value": 23}, "group": "control_change"}, {"time": 2081, "annotation": {"number": 10, "value": 21}, "group": "control_change"}, {"time": 2107, "annotation": {"number": 10, "value": 19}, "group": "control_change"}, {"time": 2135, "annotation": {"number": 10, "value": 17}, "group": "control_change"}, {"time": 2162, "annotation": {"number": 10, "value": 16}, "group": "control_change"}, {"time": 2188, "annotation": {"number": 10, "value": 14}, "group": "control_change"}, {"time": 2215, "annotation": {"number": 10, "value": 12}, "group": "control_change"}, {"time": 2242, "annotation": {"number": 10, "value": 10}, "group": "control_change"}, {"time": 2268, "annotation": {"number": 10, "value": 9}, "group": "control_change"}, {"time": 2295, "annotation": {"number": 10, "value": 7}, "group": "control_change"}, {"time": 2322, "annotation": {"number": 10, "value": 5}, "group": "control_change"}, {"time": 2348, "annotation": {"number": 10, "value": 3}, "group": "control_change"}, {"time": 2375, "annotation": {"number": 10, "value": 2}, "group": "control_change"}, {"time": 2401, "annotation": {"number": 10, "value": 0}, "group": "control_change"}, {"time": 15835, "annotation": {"number": 10, "value": 126}, "group": "control_change"}, {"time": 15861, "annotation": {"number": 10, "value": 124}, "group": "control_change"}, {"time": 15888, "annotation": {"number": 10, "value": 122}, "group": "control_change"}, {"time": 15915, "annotation": {"number": 10, "value": 120}, "group": "control_change"}, {"time": 15942, "annotation": {"number": 10, "value": 119}, "group": "control_change"}, {"time": 15969, "annotation": {"number": 10, "value": 117}, "group": "control_change"}, {"time": 15996, "annotation": {"number": 10, "value": 115}, "group": "control_change"}, {"time": 16022, "annotation": {"number": 10, "value": 113}, "group": "control_change"}, {"time": 16049, "annotation": {"number": 10, "value": 112}, "group": "control_change"}, {"time": 16076, "annotation": {"number": 10, "value": 110}, "group": "control_change"}, {"time": 16102, "annotation": {"number": 10, "value": 108}, "group": "control_change"}, {"time": 16129, "annotation": {"number": 10, "value": 106}, "group": "control_change"}, {"time": 16156, "annotation": {"number": 10, "value": 105}, "group": "control_change"}, {"time": 16182, "annotation": {"number": 10, "value": 103}, "group": "control_change"}, {"time": 16209, "annotation": {"number": 10, "value": 101}, "group": "control_change"}, {"time": 16237, "annotation": {"number": 10, "value": 99}, "group": "control_change"}, {"time": 16263, "annotation": {"number": 10, "value": 98}, "group": "control_change"}, {"time": 16290, "annotation": {"number": 10, "value": 96}, "group": "control_change"}, {"time": 16317, "annotation": {"number": 10, "value": 94}, "group": "control_change"}, {"time": 16343, "annotation": {"number": 10, "value": 92}, "group": "control_change"}, {"time": 16370, "annotation": {"number": 10, "value": 91}, "group": "control_change"}, {"time": 16397, "annotation": {"number": 10, "value": 89}, "group": "control_change"}, {"time": 16423, "annotation": {"number": 10, "value": 87}, "group": "control_change"}, {"time": 16450, "annotation": {"number": 10, "value": 85}, "group": "control_change"}, {"time": 16477, "annotation": {"number": 10, "value": 84}, "group": "control_change"}, {"time": 16503, "annotation": {"number": 10, "value": 82}, "group": "control_change"}, {"time": 16530, "annotation": {"number": 10, "value": 80}, "group": "control_change"}, {"time": 16558, "annotation": {"number": 10, "value": 78}, "group": "control_change"}, {"time": 16584, "annotation": {"number": 10, "value": 77}, "group": "control_change"}, {"time": 16611, "annotation": {"number": 10, "value": 75}, "group": "control_change"}, {"time": 16638, "annotation": {"number": 10, "value": 73}, "group": "control_change"}, {"time": 16664, "annotation": {"number": 10, "value": 71}, "group": "control_change"}, {"time": 16691, "annotation": {"number": 10, "value": 70}, "group": "control_change"}, {"time": 16718, "annotation": {"number": 10, "value": 68}, "group": "control_change"}, {"time": 16744, "annotation": {"number": 10, "value": 66}, "group": "control_change"}, {"time": 16771, "annotation": {"number": 10, "value": 64}, "group": "control_change"}, {"time": 16798, "annotation": {"number": 10, "value": 63}, "group": "control_change"}, {"time": 16824, "annotation": {"number": 10, "value": 61}, "group": "control_change"}, {"time": 16852, "annotation": {"number": 10, "value": 59}, "group": "control_change"}, {"time": 16879, "annotation": {"number": 10, "value": 57}, "group": "control_change"}, {"time": 16905, "annotation": {"number": 10, "value": 56}, "group": "control_change"}, {"time": 16932, "annotation": {"number": 10, "value": 54}, "group": "control_change"}, {"time": 16959, "annotation": {"number": 10, "value": 52}, "group": "control_change"}, {"time": 16985, "annotation": {"number": 10, "value": 51}, "group": "control_change"}, {"time": 17012, "annotation": {"number": 10, "value": 49}, "group": "control_change"}, {"time": 17039, "annotation": {"number": 10, "value": 47}, "group": "control_change"}, {"time": 17065, "annotation": {"number": 10, "value": 45}, "group": "control_change"}, {"time": 17092, "annotation": {"number": 10, "value": 44}, "group": "control_change"}, {"time": 17119, "annotation": {"number": 10, "value": 42}, "group": "control_change"}, {"time": 17146, "annotation": {"number": 10, "value": 40}, "group": "control_change"}, {"time": 17173, "annotation": {"number": 10, "value": 38}, "group": "control_change"}, {"time": 17200, "annotation": {"number": 10, "value": 37}, "group": "control_change"}, {"time": 17226, "annotation": {"number": 10, "value": 35}, "group": "control_change"}, {"time": 17253, "annotation": {"number": 10, "value": 33}, "group": "control_change"}, {"time": 17280, "annotation": {"number": 10, "value": 31}, "group": "control_change"}, {"time": 17306, "annotation": {"number": 10, "value": 30}, "group": "control_change"}, {"time": 17333, "annotation": {"number": 10, "value": 28}, "group": "control_change"}, {"time": 17360, "annotation": {"number": 10, "value": 26}, "group": "control_change"}, {"time": 17386, "annotation": {"number": 10, "value": 24}, "group": "control_change"}, {"time": 17413, "annotation": {"number": 10, "value": 23}, "group": "control_change"}, {"time": 17441, "annotation": {"number": 10, "value": 21}, "group": "control_change"}, {"time": 17467, "annotation": {"number": 10, "value": 19}, "group": "control_change"}, {"time": 17494, "annotation": {"number": 10, "value": 17}, "group": "control_change"}, {"time": 17521, "annotation": {"number": 10, "value": 16}, "group": "control_change"}, {"time": 17547, "annotation": {"number": 10, "value": 14}, "group": "control_change"}, {"time": 17574, "annotation": {"number": 10, "value": 12}, "group": "control_change"}, {"time": 17601, "annotation": {"number": 10, "value": 10}, "group": "control_change"}, {"time": 17627, "annotation": {"number": 10, "value": 9}, "group": "control_change"}, {"time": 17654, "annotation": {"number": 10, "value": 7}, "group": "control_change"}, {"time": 17681, "annotation": {"number": 10, "value": 5}, "group": "control_change"}, {"time": 17707, "annotation": {"number": 10, "value": 3}, "group": "control_change"}, {"time": 17734, "annotation": {"number": 10, "value": 2}, "group": "control_change"}, {"time": 17761, "annotation": {"number": 10, "value": 0}, "group": "control_change"}, {"time": 31205, "annotation": {"number": 10, "value": 126}, "group": "control_change"}, {"time": 31230, "annotation": {"number": 10, "value": 124}, "group": "control_change"}, {"time": 31257, "annotation": {"number": 10, "value": 122}, "group": "control_change"}, {"time": 31283, "annotation": {"number": 10, "value": 120}, "group": "control_change"}, {"time": 31309, "annotation": {"number": 10, "value": 119}, "group": "control_change"}, {"time": 31335, "annotation": {"number": 10, "value": 117}, "group": "control_change"}, {"time": 31362, "annotation": {"number": 10, "value": 115}, "group": "control_change"}, {"time": 31387, "annotation": {"number": 10, "value": 113}, "group": "control_change"}, {"time": 31414, "annotation": {"number": 10, "value": 112}, "group": "control_change"}, {"time": 31440, "annotation": {"number": 10, "value": 110}, "group": "control_change"}, {"time": 31466, "annotation": {"number": 10, "value": 108}, "group": "control_change"}, {"time": 31492, "annotation": {"number": 10, "value": 106}, "group": "control_change"}, {"time": 31519, "annotation": {"number": 10, "value": 105}, "group": "control_change"}, {"time": 31544, "annotation": {"number": 10, "value": 103}, "group": "control_change"}, {"time": 31571, "annotation": {"number": 10, "value": 101}, "group": "control_change"}, {"time": 31597, "annotation": {"number": 10, "value": 99}, "group": "control_change"}, {"time": 31623, "annotation": {"number": 10, "value": 98}, "group": "control_change"}, {"time": 31650, "annotation": {"number": 10, "value": 96}, "group": "control_change"}, {"time": 31676, "annotation": {"number": 10, "value": 94}, "group": "control_change"}, {"time": 31702, "annotation": {"number": 10, "value": 92}, "group": "control_change"}, {"time": 31729, "annotation": {"number": 10, "value": 91}, "group": "control_change"}, {"time": 31756, "annotation": {"number": 10, "value": 89}, "group": "control_change"}, {"time": 31782, "annotation": {"number": 10, "value": 87}, "group": "control_change"}, {"time": 31809, "annotation": {"number": 10, "value": 85}, "group": "control_change"}, {"time": 31836, "annotation": {"number": 10, "value": 84}, "group": "control_change"}, {"time": 31863, "annotation": {"number": 10, "value": 82}, "group": "control_change"}, {"time": 31890, "annotation": {"number": 10, "value": 80}, "group": "control_change"}, {"time": 31917, "annotation": {"number": 10, "value": 78}, "group": "control_change"}, {"time": 31943, "annotation": {"number": 10, "value": 77}, "group": "control_change"}, {"time": 31970, "annotation": {"number": 10, "value": 75}, "group": "control_change"}, {"time": 31997, "annotation": {"number": 10, "value": 73}, "group": "control_change"}, {"time": 32023, "annotation": {"number": 10, "value": 71}, "group": "control_change"}, {"time": 32050, "annotation": {"number": 10, "value": 70}, "group": "control_change"}, {"time": 32077, "annotation": {"number": 10, "value": 68}, "group": "control_change"}, {"time": 32103, "annotation": {"number": 10, "value": 66}, "group": "control_change"}, {"time": 32130, "annotation": {"number": 10, "value": 64}, "group": "control_change"}, {"time": 32158, "annotation": {"number": 10, "value": 63}, "group": "control_change"}, {"time": 32184, "annotation": {"number": 10, "value": 61}, "group": "control_change"}, {"time": 32211, "annotation": {"number": 10, "value": 59}, "group": "control_change"}, {"time": 32238, "annotation": {"number": 10, "value": 57}, "group": "control_change"}, {"time": 32264, "annotation": {"number": 10, "value": 56}, "group": "control_change"}, {"time": 32291, "annotation": {"number": 10, "value": 54}, "group": "control_change"}, {"time": 32318, "annotation": {"number": 10, "value": 52}, "group": "control_change"}, {"time": 32344, "annotation": {"number": 10, "value": 51}, "group": "control_change"}, {"time": 32371, "annotation": {"number": 10, "value": 49}, "group": "control_change"}, {"time": 32398, "annotation": {"number": 10, "value": 47}, "group": "control_change"}, {"time": 32424, "annotation": {"number": 10, "value": 45}, "group": "control_change"}, {"time": 32452, "annotation": {"number": 10, "value": 44}, "group": "control_change"}, {"time": 32479, "annotation": {"number": 10, "value": 42}, "group": "control_change"}, {"time": 32505, "annotation": {"number": 10, "value": 40}, "group": "control_change"}, {"time": 32532, "annotation": {"number": 10, "value": 38}, "group": "control_change"}, {"time": 32559, "annotation": {"number": 10, "value": 37}, "group": "control_change"}, {"time": 32585, "annotation": {"number": 10, "value": 35}, "group": "control_change"}, {"time": 32612, "annotation": {"number": 10, "value": 33}, "group": "control_change"}, {"time": 32639, "annotation": {"number": 10, "value": 31}, "group": "control_change"}, {"time": 32665, "annotation": {"number": 10, "value": 30}, "group": "control_change"}, {"time": 32692, "annotation": {"number": 10, "value": 28}, "group": "control_change"}, {"time": 32719, "annotation": {"number": 10, "value": 26}, "group": "control_change"}, {"time": 32746, "annotation": {"number": 10, "value": 24}, "group": "control_change"}, {"time": 32773, "annotation": {"number": 10, "value": 23}, "group": "control_change"}, {"time": 32800, "annotation": {"number": 10, "value": 21}, "group": "control_change"}, {"time": 32826, "annotation": {"number": 10, "value": 19}, "group": "control_change"}, {"time": 32853, "annotation": {"number": 10, "value": 17}, "group": "control_change"}, {"time": 32880, "annotation": {"number": 10, "value": 16}, "group": "control_change"}, {"time": 32906, "annotation": {"number": 10, "value": 14}, "group": "control_change"}, {"time": 32933, "annotation": {"number": 10, "value": 12}, "group": "control_change"}, {"time": 32960, "annotation": {"number": 10, "value": 10}, "group": "control_change"}, {"time": 32986, "annotation": {"number": 10, "value": 9}, "group": "control_change"}, {"time": 33013, "annotation": {"number": 10, "value": 7}, "group": "control_change"}, {"time": 33041, "annotation": {"number": 10, "value": 5}, "group": "control_change"}, {"time": 33067, "annotation": {"number": 10, "value": 3}, "group": "control_change"}, {"time": 33094, "annotation": {"number": 10, "value": 2}, "group": "control_change"}, {"time": 33120, "annotation": {"number": 10, "value": 0}, "group": "control_change"}, {"time": 79198, "annotation": {"number": 10, "value": 126}, "group": "control_change"}, {"time": 79224, "annotation": {"number": 10, "value": 124}, "group": "control_change"}, {"time": 79251, "annotation": {"number": 10, "value": 122}, "group": "control_change"}, {"time": 79279, "annotation": {"number": 10, "value": 120}, "group": "control_change"}, {"time": 79305, "annotation": {"number": 10, "value": 119}, "group": "control_change"}, {"time": 79332, "annotation": {"number": 10, "value": 117}, "group": "control_change"}, {"time": 79359, "annotation": {"number": 10, "value": 115}, "group": "control_change"}, {"time": 79385, "annotation": {"number": 10, "value": 113}, "group": "control_change"}, {"time": 79412, "annotation": {"number": 10, "value": 112}, "group": "control_change"}, {"time": 79439, "annotation": {"number": 10, "value": 110}, "group": "control_change"}, {"time": 79465, "annotation": {"number": 10, "value": 108}, "group": "control_change"}, {"time": 79492, "annotation": {"number": 10, "value": 106}, "group": "control_change"}, {"time": 79519, "annotation": {"number": 10, "value": 105}, "group": "control_change"}, {"time": 79545, "annotation": {"number": 10, "value": 103}, "group": "control_change"}, {"time": 79573, "annotation": {"number": 10, "value": 101}, "group": "control_change"}, {"time": 79600, "annotation": {"number": 10, "value": 99}, "group": "control_change"}, {"time": 79626, "annotation": {"number": 10, "value": 98}, "group": "control_change"}, {"time": 79653, "annotation": {"number": 10, "value": 96}, "group": "control_change"}, {"time": 79680, "annotation": {"number": 10, "value": 94}, "group": "control_change"}, {"time": 79706, "annotation": {"number": 10, "value": 92}, "group": "control_change"}, {"time": 79733, "annotation": {"number": 10, "value": 91}, "group": "control_change"}, {"time": 79760, "annotation": {"number": 10, "value": 89}, "group": "control_change"}, {"time": 79786, "annotation": {"number": 10, "value": 87}, "group": "control_change"}, {"time": 79813, "annotation": {"number": 10, "value": 85}, "group": "control_change"}, {"time": 79840, "annotation": {"number": 10, "value": 84}, "group": "control_change"}, {"time": 79867, "annotation": {"number": 10, "value": 82}, "group": "control_change"}, {"time": 79894, "annotation": {"number": 10, "value": 80}, "group": "control_change"}, {"time": 79921, "annotation": {"number": 10, "value": 78}, "group": "control_change"}, {"time": 79947, "annotation": {"number": 10, "value": 77}, "group": "control_change"}, {"time": 79974, "annotation": {"number": 10, "value": 75}, "group": "control_change"}, {"time": 80001, "annotation": {"number": 10, "value": 73}, "group": "control_change"}, {"time": 80027, "annotation": {"number": 10, "value": 71}, "group": "control_change"}, {"time": 80054, "annotation": {"number": 10, "value": 70}, "group": "control_change"}, {"time": 80081, "annotation": {"number": 10, "value": 68}, "group": "control_change"}, {"time": 80107, "annotation": {"number": 10, "value": 66}, "group": "control_change"}, {"time": 80134, "annotation": {"number": 10, "value": 64}, "group": "control_change"}, {"time": 80162, "annotation": {"number": 10, "value": 63}, "group": "control_change"}, {"time": 80188, "annotation": {"number": 10, "value": 61}, "group": "control_change"}, {"time": 80215, "annotation": {"number": 10, "value": 59}, "group": "control_change"}, {"time": 80242, "annotation": {"number": 10, "value": 57}, "group": "control_change"}, {"time": 80268, "annotation": {"number": 10, "value": 56}, "group": "control_change"}, {"time": 80295, "annotation": {"number": 10, "value": 54}, "group": "control_change"}, {"time": 80322, "annotation": {"number": 10, "value": 52}, "group": "control_change"}, {"time": 80348, "annotation": {"number": 10, "value": 51}, "group": "control_change"}, {"time": 80375, "annotation": {"number": 10, "value": 49}, "group": "control_change"}, {"time": 80402, "annotation": {"number": 10, "value": 47}, "group": "control_change"}, {"time": 80428, "annotation": {"number": 10, "value": 45}, "group": "control_change"}, {"time": 80456, "annotation": {"number": 10, "value": 44}, "group": "control_change"}, {"time": 80483, "annotation": {"number": 10, "value": 42}, "group": "control_change"}, {"time": 80509, "annotation": {"number": 10, "value": 40}, "group": "control_change"}, {"time": 80536, "annotation": {"number": 10, "value": 38}, "group": "control_change"}, {"time": 80563, "annotation": {"number": 10, "value": 37}, "group": "control_change"}, {"time": 80589, "annotation": {"number": 10, "value": 35}, "group": "control_change"}, {"time": 80616, "annotation": {"number": 10, "value": 33}, "group": "control_change"}, {"time": 80643, "annotation": {"number": 10, "value": 31}, "group": "control_change"}, {"time": 80669, "annotation": {"number": 10, "value": 30}, "group": "control_change"}, {"time": 80696, "annotation": {"number": 10, "value": 28}, "group": "control_change"}, {"time": 80723, "annotation": {"number": 10, "value": 26}, "group": "control_change"}, {"time": 80749, "annotation": {"number": 10, "value": 24}, "group": "control_change"}, {"time": 80777, "annotation": {"number": 10, "value": 23}, "group": "control_change"}, {"time": 80804, "annotation": {"number": 10, "value": 21}, "group": "control_change"}, {"time": 80830, "annotation": {"number": 10, "value": 19}, "group": "control_change"}, {"time": 80857, "annotation": {"number": 10, "value": 17}, "group": "control_change"}, {"time": 80884, "annotation": {"number": 10, "value": 16}, "group": "control_change"}, {"time": 80910, "annotation": {"number": 10, "value": 14}, "group": "control_change"}, {"time": 80937, "annotation": {"number": 10, "value": 12}, "group": "control_change"}, {"time": 80964, "annotation": {"number": 10, "value": 10}, "group": "control_change"}, {"time": 80990, "annotation": {"number": 10, "value": 9}, "group": "control_change"}, {"time": 81017, "annotation": {"number": 10, "value": 7}, "group": "control_change"}, {"time": 81044, "annotation": {"number": 10, "value": 5}, "group": "control_change"}, {"time": 81071, "annotation": {"number": 10, "value": 3}, "group": "control_change"}, {"time": 81098, "annotation": {"number": 10, "value": 2}, "group": "control_change"}, {"time": 81124, "annotation": {"number": 10, "value": 0}, "group": "control_change"}, {"time": 94557, "annotation": {"number": 10, "value": 126}, "group": "control_change"}, {"time": 94584, "annotation": {"number": 10, "value": 124}, "group": "control_change"}, {"time": 94611, "annotation": {"number": 10, "value": 122}, "group": "control_change"}, {"time": 94638, "annotation": {"number": 10, "value": 120}, "group": "control_change"}, {"time": 94664, "annotation": {"number": 10, "value": 119}, "group": "control_change"}, {"time": 94691, "annotation": {"number": 10, "value": 117}, "group": "control_change"}, {"time": 94718, "annotation": {"number": 10, "value": 115}, "group": "control_change"}, {"time": 94744, "annotation": {"number": 10, "value": 113}, "group": "control_change"}, {"time": 94771, "annotation": {"number": 10, "value": 112}, "group": "control_change"}, {"time": 94798, "annotation": {"number": 10, "value": 110}, "group": "control_change"}, {"time": 94824, "annotation": {"number": 10, "value": 108}, "group": "control_change"}, {"time": 94851, "annotation": {"number": 10, "value": 106}, "group": "control_change"}, {"time": 94879, "annotation": {"number": 10, "value": 105}, "group": "control_change"}, {"time": 94905, "annotation": {"number": 10, "value": 103}, "group": "control_change"}, {"time": 94932, "annotation": {"number": 10, "value": 101}, "group": "control_change"}, {"time": 94959, "annotation": {"number": 10, "value": 99}, "group": "control_change"}, {"time": 94985, "annotation": {"number": 10, "value": 98}, "group": "control_change"}, {"time": 95012, "annotation": {"number": 10, "value": 96}, "group": "control_change"}, {"time": 95039, "annotation": {"number": 10, "value": 94}, "group": "control_change"}, {"time": 95065, "annotation": {"number": 10, "value": 92}, "group": "control_change"}, {"time": 95092, "annotation": {"number": 10, "value": 91}, "group": "control_change"}, {"time": 95119, "annotation": {"number": 10, "value": 89}, "group": "control_change"}, {"time": 95145, "annotation": {"number": 10, "value": 87}, "group": "control_change"}, {"time": 95173, "annotation": {"number": 10, "value": 85}, "group": "control_change"}, {"time": 95200, "annotation": {"number": 10, "value": 84}, "group": "control_change"}, {"time": 95226, "annotation": {"number": 10, "value": 82}, "group": "control_change"}, {"time": 95253, "annotation": {"number": 10, "value": 80}, "group": "control_change"}, {"time": 95280, "annotation": {"number": 10, "value": 78}, "group": "control_change"}, {"time": 95306, "annotation": {"number": 10, "value": 77}, "group": "control_change"}, {"time": 95333, "annotation": {"number": 10, "value": 75}, "group": "control_change"}, {"time": 95360, "annotation": {"number": 10, "value": 73}, "group": "control_change"}, {"time": 95386, "annotation": {"number": 10, "value": 71}, "group": "control_change"}, {"time": 95413, "annotation": {"number": 10, "value": 70}, "group": "control_change"}, {"time": 95440, "annotation": {"number": 10, "value": 68}, "group": "control_change"}, {"time": 95467, "annotation": {"number": 10, "value": 66}, "group": "control_change"}, {"time": 95494, "annotation": {"number": 10, "value": 64}, "group": "control_change"}, {"time": 95521, "annotation": {"number": 10, "value": 63}, "group": "control_change"}, {"time": 95547, "annotation": {"number": 10, "value": 61}, "group": "control_change"}, {"time": 95574, "annotation": {"number": 10, "value": 59}, "group": "control_change"}, {"time": 95601, "annotation": {"number": 10, "value": 57}, "group": "control_change"}, {"time": 95627, "annotation": {"number": 10, "value": 56}, "group": "control_change"}, {"time": 95654, "annotation": {"number": 10, "value": 54}, "group": "control_change"}, {"time": 95681, "annotation": {"number": 10, "value": 52}, "group": "control_change"}, {"time": 95707, "annotation": {"number": 10, "value": 51}, "group": "control_change"}, {"time": 95734, "annotation": {"number": 10, "value": 49}, "group": "control_change"}, {"time": 95762, "annotation": {"number": 10, "value": 47}, "group": "control_change"}, {"time": 95788, "annotation": {"number": 10, "value": 45}, "group": "control_change"}, {"time": 95815, "annotation": {"number": 10, "value": 44}, "group": "control_change"}, {"time": 95842, "annotation": {"number": 10, "value": 42}, "group": "control_change"}, {"time": 95868, "annotation": {"number": 10, "value": 40}, "group": "control_change"}, {"time": 95895, "annotation": {"number": 10, "value": 38}, "group": "control_change"}, {"time": 95922, "annotation": {"number": 10, "value": 37}, "group": "control_change"}, {"time": 95948, "annotation": {"number": 10, "value": 35}, "group": "control_change"}, {"time": 95975, "annotation": {"number": 10, "value": 33}, "group": "control_change"}, {"time": 96002, "annotation": {"number": 10, "value": 31}, "group": "control_change"}, {"time": 96028, "annotation": {"number": 10, "value": 30}, "group": "control_change"}, {"time": 96055, "annotation": {"number": 10, "value": 28}, "group": "control_change"}, {"time": 96083, "annotation": {"number": 10, "value": 26}, "group": "control_change"}, {"time": 96109, "annotation": {"number": 10, "value": 24}, "group": "control_change"}, {"time": 96136, "annotation": {"number": 10, "value": 23}, "group": "control_change"}, {"time": 96163, "annotation": {"number": 10, "value": 21}, "group": "control_change"}, {"time": 96189, "annotation": {"number": 10, "value": 19}, "group": "control_change"}, {"time": 96216, "annotation": {"number": 10, "value": 17}, "group": "control_change"}, {"time": 96243, "annotation": {"number": 10, "value": 16}, "group": "control_change"}, {"time": 96269, "annotation": {"number": 10, "value": 14}, "group": "control_change"}, {"time": 96296, "annotation": {"number": 10, "value": 12}, "group": "control_change"}, {"time": 96323, "annotation": {"number": 10, "value": 10}, "group": "control_change"}, {"time": 96349, "annotation": {"number": 10, "value": 9}, "group": "control_change"}, {"time": 96377, "annotation": {"number": 10, "value": 7}, "group": "control_change"}, {"time": 96404, "annotation": {"number": 10, "value": 5}, "group": "control_change"}, {"time": 96430, "annotation": {"number": 10, "value": 3}, "group": "control_change"}, {"time": 96457, "annotation": {"number": 10, "value": 2}, "group": "control_change"}, {"time": 96483, "annotation": {"number": 10, "value": 0}, "group": "control_change"}, {"time": 113759, "annotation": {"number": 10, "value": 126}, "group": "control_change"}, {"time": 113785, "annotation": {"number": 10, "value": 124}, "group": "control_change"}, {"time": 113812, "annotation": {"number": 10, "value": 122}, "group": "control_change"}, {"time": 113839, "annotation": {"number": 10, "value": 120}, "group": "control_change"}, {"time": 113865, "annotation": {"number": 10, "value": 119}, "group": "control_change"}, {"time": 113893, "annotation": {"number": 10, "value": 117}, "group": "control_change"}, {"time": 113920, "annotation": {"number": 10, "value": 115}, "group": "control_change"}, {"time": 113946, "annotation": {"number": 10, "value": 113}, "group": "control_change"}, {"time": 113973, "annotation": {"number": 10, "value": 112}, "group": "control_change"}, {"time": 114000, "annotation": {"number": 10, "value": 110}, "group": "control_change"}, {"time": 114026, "annotation": {"number": 10, "value": 108}, "group": "control_change"}, {"time": 114053, "annotation": {"number": 10, "value": 106}, "group": "control_change"}, {"time": 114080, "annotation": {"number": 10, "value": 105}, "group": "control_change"}, {"time": 114106, "annotation": {"number": 10, "value": 103}, "group": "control_change"}, {"time": 114133, "annotation": {"number": 10, "value": 101}, "group": "control_change"}, {"time": 114160, "annotation": {"number": 10, "value": 99}, "group": "control_change"}, {"time": 114187, "annotation": {"number": 10, "value": 98}, "group": "control_change"}, {"time": 114214, "annotation": {"number": 10, "value": 96}, "group": "control_change"}, {"time": 114241, "annotation": {"number": 10, "value": 94}, "group": "control_change"}, {"time": 114267, "annotation": {"number": 10, "value": 92}, "group": "control_change"}, {"time": 114294, "annotation": {"number": 10, "value": 91}, "group": "control_change"}, {"time": 114321, "annotation": {"number": 10, "value": 89}, "group": "control_change"}, {"time": 114347, "annotation": {"number": 10, "value": 87}, "group": "control_change"}, {"time": 114374, "annotation": {"number": 10, "value": 85}, "group": "control_change"}, {"time": 114401, "annotation": {"number": 10, "value": 84}, "group": "control_change"}, {"time": 114427, "annotation": {"number": 10, "value": 82}, "group": "control_change"}, {"time": 114454, "annotation": {"number": 10, "value": 80}, "group": "control_change"}, {"time": 114481, "annotation": {"number": 10, "value": 78}, "group": "control_change"}, {"time": 114508, "annotation": {"number": 10, "value": 77}, "group": "control_change"}, {"time": 114535, "annotation": {"number": 10, "value": 75}, "group": "control_change"}, {"time": 114562, "annotation": {"number": 10, "value": 73}, "group": "control_change"}, {"time": 114588, "annotation": {"number": 10, "value": 71}, "group": "control_change"}, {"time": 114615, "annotation": {"number": 10, "value": 70}, "group": "control_change"}, {"time": 114642, "annotation": {"number": 10, "value": 68}, "group": "control_change"}, {"time": 114668, "annotation": {"number": 10, "value": 66}, "group": "control_change"}, {"time": 114695, "annotation": {"number": 10, "value": 64}, "group": "control_change"}, {"time": 114722, "annotation": {"number": 10, "value": 63}, "group": "control_change"}, {"time": 114748, "annotation": {"number": 10, "value": 61}, "group": "control_change"}, {"time": 114775, "annotation": {"number": 10, "value": 59}, "group": "control_change"}, {"time": 114803, "annotation": {"number": 10, "value": 57}, "group": "control_change"}, {"time": 114829, "annotation": {"number": 10, "value": 56}, "group": "control_change"}, {"time": 114856, "annotation": {"number": 10, "value": 54}, "group": "control_change"}, {"time": 114883, "annotation": {"number": 10, "value": 52}, "group": "control_change"}, {"time": 114909, "annotation": {"number": 10, "value": 51}, "group": "control_change"}, {"time": 114936, "annotation": {"number": 10, "value": 49}, "group": "control_change"}, {"time": 114963, "annotation": {"number": 10, "value": 47}, "group": "control_change"}, {"time": 114989, "annotation": {"number": 10, "value": 45}, "group": "control_change"}, {"time": 115016, "annotation": {"number": 10, "value": 44}, "group": "control_change"}, {"time": 115043, "annotation": {"number": 10, "value": 42}, "group": "control_change"}, {"time": 115069, "annotation": {"number": 10, "value": 40}, "group": "control_change"}, {"time": 115097, "annotation": {"number": 10, "value": 38}, "group": "control_change"}, {"time": 115124, "annotation": {"number": 10, "value": 37}, "group": "control_change"}, {"time": 115150, "annotation": {"number": 10, "value": 35}, "group": "control_change"}, {"time": 115177, "annotation": {"number": 10, "value": 33}, "group": "control_change"}, {"time": 115204, "annotation": {"number": 10, "value": 31}, "group": "control_change"}, {"time": 115229, "annotation": {"number": 10, "value": 30}, "group": "control_change"}, {"time": 115256, "annotation": {"number": 10, "value": 28}, "group": "control_change"}, {"time": 115282, "annotation": {"number": 10, "value": 26}, "group": "control_change"}, {"time": 115308, "annotation": {"number": 10, "value": 24}, "group": "control_change"}, {"time": 115334, "annotation": {"number": 10, "value": 23}, "group": "control_change"}, {"time": 115361, "annotation": {"number": 10, "value": 21}, "group": "control_change"}, {"time": 115386, "annotation": {"number": 10, "value": 19}, "group": "control_change"}, {"time": 115413, "annotation": {"number": 10, "value": 17}, "group": "control_change"}, {"time": 115439, "annotation": {"number": 10, "value": 16}, "group": "control_change"}, {"time": 115465, "annotation": {"number": 10, "value": 14}, "group": "control_change"}, {"time": 115492, "annotation": {"number": 10, "value": 12}, "group": "control_change"}, {"time": 115518, "annotation": {"number": 10, "value": 10}, "group": "control_change"}, {"time": 115544, "annotation": {"number": 10, "value": 9}, "group": "control_change"}, {"time": 115570, "annotation": {"number": 10, "value": 7}, "group": "control_change"}, {"time": 115597, "annotation": {"number": 10, "value": 5}, "group": "control_change"}, {"time": 115622, "annotation": {"number": 10, "value": 3}, "group": "control_change"}, {"time": 115649, "annotation": {"number": 10, "value": 2}, "group": "control_change"}, {"time": 115674, "annotation": {"number": 10, "value": 0}, "group": "control_change"}, {"time": 121444, "annotation": {"number": 10, "value": 126}, "group": "control_change"}, {"time": 121469, "annotation": {"number": 10, "value": 124}, "group": "control_change"}, {"time": 121496, "annotation": {"number": 10, "value": 122}, "group": "control_change"}, {"time": 121522, "annotation": {"number": 10, "value": 120}, "group": "control_change"}, {"time": 121548, "annotation": {"number": 10, "value": 119}, "group": "control_change"}, {"time": 121574, "annotation": {"number": 10, "value": 117}, "group": "control_change"}, {"time": 121601, "annotation": {"number": 10, "value": 115}, "group": "control_change"}, {"time": 121626, "annotation": {"number": 10, "value": 113}, "group": "control_change"}, {"time": 121653, "annotation": {"number": 10, "value": 112}, "group": "control_change"}, {"time": 121679, "annotation": {"number": 10, "value": 110}, "group": "control_change"}, {"time": 121705, "annotation": {"number": 10, "value": 108}, "group": "control_change"}, {"time": 121732, "annotation": {"number": 10, "value": 106}, "group": "control_change"}, {"time": 121758, "annotation": {"number": 10, "value": 105}, "group": "control_change"}, {"time": 121784, "annotation": {"number": 10, "value": 103}, "group": "control_change"}, {"time": 121810, "annotation": {"number": 10, "value": 101}, "group": "control_change"}, {"time": 121837, "annotation": {"number": 10, "value": 99}, "group": "control_change"}, {"time": 121862, "annotation": {"number": 10, "value": 98}, "group": "control_change"}, {"time": 121889, "annotation": {"number": 10, "value": 96}, "group": "control_change"}, {"time": 121915, "annotation": {"number": 10, "value": 94}, "group": "control_change"}, {"time": 121941, "annotation": {"number": 10, "value": 92}, "group": "control_change"}, {"time": 121968, "annotation": {"number": 10, "value": 91}, "group": "control_change"}, {"time": 121995, "annotation": {"number": 10, "value": 89}, "group": "control_change"}, {"time": 122021, "annotation": {"number": 10, "value": 87}, "group": "control_change"}, {"time": 122049, "annotation": {"number": 10, "value": 85}, "group": "control_change"}, {"time": 122076, "annotation": {"number": 10, "value": 84}, "group": "control_change"}, {"time": 122102, "annotation": {"number": 10, "value": 82}, "group": "control_change"}, {"time": 122129, "annotation": {"number": 10, "value": 80}, "group": "control_change"}, {"time": 122156, "annotation": {"number": 10, "value": 78}, "group": "control_change"}, {"time": 122182, "annotation": {"number": 10, "value": 77}, "group": "control_change"}, {"time": 122209, "annotation": {"number": 10, "value": 75}, "group": "control_change"}, {"time": 122236, "annotation": {"number": 10, "value": 73}, "group": "control_change"}, {"time": 122262, "annotation": {"number": 10, "value": 71}, "group": "control_change"}, {"time": 122289, "annotation": {"number": 10, "value": 70}, "group": "control_change"}, {"time": 122316, "annotation": {"number": 10, "value": 68}, "group": "control_change"}, {"time": 122342, "annotation": {"number": 10, "value": 66}, "group": "control_change"}, {"time": 122370, "annotation": {"number": 10, "value": 64}, "group": "control_change"}, {"time": 122397, "annotation": {"number": 10, "value": 63}, "group": "control_change"}, {"time": 122423, "annotation": {"number": 10, "value": 61}, "group": "control_change"}, {"time": 122450, "annotation": {"number": 10, "value": 59}, "group": "control_change"}, {"time": 122477, "annotation": {"number": 10, "value": 57}, "group": "control_change"}, {"time": 122503, "annotation": {"number": 10, "value": 56}, "group": "control_change"}, {"time": 122530, "annotation": {"number": 10, "value": 54}, "group": "control_change"}, {"time": 122557, "annotation": {"number": 10, "value": 52}, "group": "control_change"}, {"time": 122583, "annotation": {"number": 10, "value": 51}, "group": "control_change"}, {"time": 122610, "annotation": {"number": 10, "value": 49}, "group": "control_change"}, {"time": 122637, "annotation": {"number": 10, "value": 47}, "group": "control_change"}, {"time": 122664, "annotation": {"number": 10, "value": 45}, "group": "control_change"}, {"time": 122691, "annotation": {"number": 10, "value": 44}, "group": "control_change"}, {"time": 122718, "annotation": {"number": 10, "value": 42}, "group": "control_change"}, {"time": 122744, "annotation": {"number": 10, "value": 40}, "group": "control_change"}, {"time": 122771, "annotation": {"number": 10, "value": 38}, "group": "control_change"}, {"time": 122798, "annotation": {"number": 10, "value": 37}, "group": "control_change"}, {"time": 122824, "annotation": {"number": 10, "value": 35}, "group": "control_change"}, {"time": 122851, "annotation": {"number": 10, "value": 33}, "group": "control_change"}, {"time": 122878, "annotation": {"number": 10, "value": 31}, "group": "control_change"}, {"time": 122904, "annotation": {"number": 10, "value": 30}, "group": "control_change"}, {"time": 122931, "annotation": {"number": 10, "value": 28}, "group": "control_change"}, {"time": 122959, "annotation": {"number": 10, "value": 26}, "group": "control_change"}, {"time": 122985, "annotation": {"number": 10, "value": 24}, "group": "control_change"}, {"time": 123012, "annotation": {"number": 10, "value": 23}, "group": "control_change"}, {"time": 123039, "annotation": {"number": 10, "value": 21}, "group": "control_change"}, {"time": 123065, "annotation": {"number": 10, "value": 19}, "group": "control_change"}, {"time": 123092, "annotation": {"number": 10, "value": 17}, "group": "control_change"}, {"time": 123119, "annotation": {"number": 10, "value": 16}, "group": "control_change"}, {"time": 123145, "annotation": {"number": 10, "value": 14}, "group": "control_change"}, {"time": 123172, "annotation": {"number": 10, "value": 12}, "group": "control_change"}, {"time": 123199, "annotation": {"number": 10, "value": 10}, "group": "control_change"}, {"time": 123225, "annotation": {"number": 10, "value": 9}, "group": "control_change"}, {"time": 123253, "annotation": {"number": 10, "value": 7}, "group": "control_change"}, {"time": 123280, "annotation": {"number": 10, "value": 5}, "group": "control_change"}, {"time": 123306, "annotation": {"number": 10, "value": 3}, "group": "control_change"}, {"time": 123333, "annotation": {"number": 10, "value": 2}, "group": "control_change"}, {"time": 123359, "annotation": {"number": 10, "value": 0}, "group": "control_change"}, {"time": 161763, "annotation": {"number": 10, "value": 126}, "group": "control_change"}, {"time": 161789, "annotation": {"number": 10, "value": 124}, "group": "control_change"}, {"time": 161816, "annotation": {"number": 10, "value": 122}, "group": "control_change"}, {"time": 161843, "annotation": {"number": 10, "value": 120}, "group": "control_change"}, {"time": 161869, "annotation": {"number": 10, "value": 119}, "group": "control_change"}, {"time": 161896, "annotation": {"number": 10, "value": 117}, "group": "control_change"}, {"time": 161924, "annotation": {"number": 10, "value": 115}, "group": "control_change"}, {"time": 161950, "annotation": {"number": 10, "value": 113}, "group": "control_change"}, {"time": 161977, "annotation": {"number": 10, "value": 112}, "group": "control_change"}, {"time": 162004, "annotation": {"number": 10, "value": 110}, "group": "control_change"}, {"time": 162030, "annotation": {"number": 10, "value": 108}, "group": "control_change"}, {"time": 162057, "annotation": {"number": 10, "value": 106}, "group": "control_change"}, {"time": 162084, "annotation": {"number": 10, "value": 105}, "group": "control_change"}, {"time": 162110, "annotation": {"number": 10, "value": 103}, "group": "control_change"}, {"time": 162137, "annotation": {"number": 10, "value": 101}, "group": "control_change"}, {"time": 162164, "annotation": {"number": 10, "value": 99}, "group": "control_change"}, {"time": 162190, "annotation": {"number": 10, "value": 98}, "group": "control_change"}, {"time": 162218, "annotation": {"number": 10, "value": 96}, "group": "control_change"}, {"time": 162245, "annotation": {"number": 10, "value": 94}, "group": "control_change"}, {"time": 162270, "annotation": {"number": 10, "value": 92}, "group": "control_change"}, {"time": 162297, "annotation": {"number": 10, "value": 91}, "group": "control_change"}, {"time": 162323, "annotation": {"number": 10, "value": 89}, "group": "control_change"}, {"time": 162349, "annotation": {"number": 10, "value": 87}, "group": "control_change"}, {"time": 162375, "annotation": {"number": 10, "value": 85}, "group": "control_change"}, {"time": 162402, "annotation": {"number": 10, "value": 84}, "group": "control_change"}, {"time": 162427, "annotation": {"number": 10, "value": 82}, "group": "control_change"}, {"time": 162454, "annotation": {"number": 10, "value": 80}, "group": "control_change"}, {"time": 162480, "annotation": {"number": 10, "value": 78}, "group": "control_change"}, {"time": 162506, "annotation": {"number": 10, "value": 77}, "group": "control_change"}, {"time": 162532, "annotation": {"number": 10, "value": 75}, "group": "control_change"}, {"time": 162559, "annotation": {"number": 10, "value": 73}, "group": "control_change"}, {"time": 162584, "annotation": {"number": 10, "value": 71}, "group": "control_change"}, {"time": 162611, "annotation": {"number": 10, "value": 70}, "group": "control_change"}, {"time": 162637, "annotation": {"number": 10, "value": 68}, "group": "control_change"}, {"time": 162663, "annotation": {"number": 10, "value": 66}, "group": "control_change"}, {"time": 162689, "annotation": {"number": 10, "value": 64}, "group": "control_change"}, {"time": 162716, "annotation": {"number": 10, "value": 63}, "group": "control_change"}, {"time": 162742, "annotation": {"number": 10, "value": 61}, "group": "control_change"}, {"time": 162769, "annotation": {"number": 10, "value": 59}, "group": "control_change"}, {"time": 162796, "annotation": {"number": 10, "value": 57}, "group": "control_change"}, {"time": 162822, "annotation": {"number": 10, "value": 56}, "group": "control_change"}, {"time": 162849, "annotation": {"number": 10, "value": 54}, "group": "control_change"}, {"time": 162876, "annotation": {"number": 10, "value": 52}, "group": "control_change"}, {"time": 162902, "annotation": {"number": 10, "value": 51}, "group": "control_change"}, {"time": 162930, "annotation": {"number": 10, "value": 49}, "group": "control_change"}, {"time": 162957, "annotation": {"number": 10, "value": 47}, "group": "control_change"}, {"time": 162983, "annotation": {"number": 10, "value": 45}, "group": "control_change"}, {"time": 163010, "annotation": {"number": 10, "value": 44}, "group": "control_change"}, {"time": 163037, "annotation": {"number": 10, "value": 42}, "group": "control_change"}, {"time": 163063, "annotation": {"number": 10, "value": 40}, "group": "control_change"}, {"time": 163090, "annotation": {"number": 10, "value": 38}, "group": "control_change"}, {"time": 163117, "annotation": {"number": 10, "value": 37}, "group": "control_change"}, {"time": 163143, "annotation": {"number": 10, "value": 35}, "group": "control_change"}, {"time": 163170, "annotation": {"number": 10, "value": 33}, "group": "control_change"}, {"time": 163197, "annotation": {"number": 10, "value": 31}, "group": "control_change"}, {"time": 163224, "annotation": {"number": 10, "value": 30}, "group": "control_change"}, {"time": 163251, "annotation": {"number": 10, "value": 28}, "group": "control_change"}, {"time": 163278, "annotation": {"number": 10, "value": 26}, "group": "control_change"}, {"time": 163304, "annotation": {"number": 10, "value": 24}, "group": "control_change"}, {"time": 163331, "annotation": {"number": 10, "value": 23}, "group": "control_change"}, {"time": 163358, "annotation": {"number": 10, "value": 21}, "group": "control_change"}, {"time": 163384, "annotation": {"number": 10, "value": 19}, "group": "control_change"}, {"time": 163411, "annotation": {"number": 10, "value": 17}, "group": "control_change"}, {"time": 163438, "annotation": {"number": 10, "value": 16}, "group": "control_change"}, {"time": 163464, "annotation": {"number": 10, "value": 14}, "group": "control_change"}, {"time": 163491, "annotation": {"number": 10, "value": 12}, "group": "control_change"}, {"time": 163518, "annotation": {"number": 10, "value": 10}, "group": "control_change"}, {"time": 163545, "annotation": {"number": 10, "value": 9}, "group": "control_change"}, {"time": 163572, "annotation": {"number": 10, "value": 7}, "group": "control_change"}, {"time": 163599, "annotation": {"number": 10, "value": 5}, "group": "control_change"}, {"time": 163625, "annotation": {"number": 10, "value": 3}, "group": "control_change"}, {"time": 163652, "annotation": {"number": 10, "value": 2}, "group": "control_change"}, {"time": 163678, "annotation": {"number": 10, "value": 0}, "group": "control_change"}, {"time": 177122, "annotation": {"number": 10, "value": 126}, "group": "control_change"}, {"time": 177148, "annotation": {"number": 10, "value": 124}, "group": "control_change"}, {"time": 177175, "annotation": {"number": 10, "value": 122}, "group": "control_change"}, {"time": 177202, "annotation": {"number": 10, "value": 120}, "group": "control_change"}, {"time": 177229, "annotation": {"number": 10, "value": 119}, "group": "control_change"}, {"time": 177256, "annotation": {"number": 10, "value": 117}, "group": "control_change"}, {"time": 177283, "annotation": {"number": 10, "value": 115}, "group": "control_change"}, {"time": 177309, "annotation": {"number": 10, "value": 113}, "group": "control_change"}, {"time": 177336, "annotation": {"number": 10, "value": 112}, "group": "control_change"}, {"time": 177363, "annotation": {"number": 10, "value": 110}, "group": "control_change"}, {"time": 177389, "annotation": {"number": 10, "value": 108}, "group": "control_change"}, {"time": 177416, "annotation": {"number": 10, "value": 106}, "group": "control_change"}, {"time": 177443, "annotation": {"number": 10, "value": 105}, "group": "control_change"}, {"time": 177469, "annotation": {"number": 10, "value": 103}, "group": "control_change"}, {"time": 177496, "annotation": {"number": 10, "value": 101}, "group": "control_change"}, {"time": 177524, "annotation": {"number": 10, "value": 99}, "group": "control_change"}, {"time": 177550, "annotation": {"number": 10, "value": 98}, "group": "control_change"}, {"time": 177577, "annotation": {"number": 10, "value": 96}, "group": "control_change"}, {"time": 177604, "annotation": {"number": 10, "value": 94}, "group": "control_change"}, {"time": 177629, "annotation": {"number": 10, "value": 92}, "group": "control_change"}, {"time": 177656, "annotation": {"number": 10, "value": 91}, "group": "control_change"}, {"time": 177682, "annotation": {"number": 10, "value": 89}, "group": "control_change"}, {"time": 177708, "annotation": {"number": 10, "value": 87}, "group": "control_change"}, {"time": 177734, "annotation": {"number": 10, "value": 85}, "group": "control_change"}, {"time": 177761, "annotation": {"number": 10, "value": 84}, "group": "control_change"}, {"time": 177786, "annotation": {"number": 10, "value": 82}, "group": "control_change"}, {"time": 177813, "annotation": {"number": 10, "value": 80}, "group": "control_change"}, {"time": 177839, "annotation": {"number": 10, "value": 78}, "group": "control_change"}, {"time": 177865, "annotation": {"number": 10, "value": 77}, "group": "control_change"}, {"time": 177891, "annotation": {"number": 10, "value": 75}, "group": "control_change"}, {"time": 177918, "annotation": {"number": 10, "value": 73}, "group": "control_change"}, {"time": 177944, "annotation": {"number": 10, "value": 71}, "group": "control_change"}, {"time": 177970, "annotation": {"number": 10, "value": 70}, "group": "control_change"}, {"time": 177997, "annotation": {"number": 10, "value": 68}, "group": "control_change"}, {"time": 178022, "annotation": {"number": 10, "value": 66}, "group": "control_change"}, {"time": 178049, "annotation": {"number": 10, "value": 64}, "group": "control_change"}, {"time": 178075, "annotation": {"number": 10, "value": 63}, "group": "control_change"}, {"time": 178101, "annotation": {"number": 10, "value": 61}, "group": "control_change"}, {"time": 178128, "annotation": {"number": 10, "value": 59}, "group": "control_change"}, {"time": 178155, "annotation": {"number": 10, "value": 57}, "group": "control_change"}, {"time": 178181, "annotation": {"number": 10, "value": 56}, "group": "control_change"}, {"time": 178208, "annotation": {"number": 10, "value": 54}, "group": "control_change"}, {"time": 178236, "annotation": {"number": 10, "value": 52}, "group": "control_change"}, {"time": 178262, "annotation": {"number": 10, "value": 51}, "group": "control_change"}, {"time": 178289, "annotation": {"number": 10, "value": 49}, "group": "control_change"}, {"time": 178316, "annotation": {"number": 10, "value": 47}, "group": "control_change"}, {"time": 178342, "annotation": {"number": 10, "value": 45}, "group": "control_change"}, {"time": 178369, "annotation": {"number": 10, "value": 44}, "group": "control_change"}, {"time": 178396, "annotation": {"number": 10, "value": 42}, "group": "control_change"}, {"time": 178422, "annotation": {"number": 10, "value": 40}, "group": "control_change"}, {"time": 178449, "annotation": {"number": 10, "value": 38}, "group": "control_change"}, {"time": 178476, "annotation": {"number": 10, "value": 37}, "group": "control_change"}, {"time": 178502, "annotation": {"number": 10, "value": 35}, "group": "control_change"}, {"time": 178530, "annotation": {"number": 10, "value": 33}, "group": "control_change"}, {"time": 178557, "annotation": {"number": 10, "value": 31}, "group": "control_change"}, {"time": 178583, "annotation": {"number": 10, "value": 30}, "group": "control_change"}, {"time": 178610, "annotation": {"number": 10, "value": 28}, "group": "control_change"}, {"time": 178637, "annotation": {"number": 10, "value": 26}, "group": "control_change"}, {"time": 178663, "annotation": {"number": 10, "value": 24}, "group": "control_change"}, {"time": 178690, "annotation": {"number": 10, "value": 23}, "group": "control_change"}, {"time": 178717, "annotation": {"number": 10, "value": 21}, "group": "control_change"}, {"time": 178743, "annotation": {"number": 10, "value": 19}, "group": "control_change"}, {"time": 178770, "annotation": {"number": 10, "value": 17}, "group": "control_change"}, {"time": 178797, "annotation": {"number": 10, "value": 16}, "group": "control_change"}, {"time": 178823, "annotation": {"number": 10, "value": 14}, "group": "control_change"}, {"time": 178851, "annotation": {"number": 10, "value": 12}, "group": "control_change"}, {"time": 178878, "annotation": {"number": 10, "value": 10}, "group": "control_change"}, {"time": 178904, "annotation": {"number": 10, "value": 9}, "group": "control_change"}, {"time": 178931, "annotation": {"number": 10, "value": 7}, "group": "control_change"}, {"time": 178958, "annotation": {"number": 10, "value": 5}, "group": "control_change"}, {"time": 178984, "annotation": {"number": 10, "value": 3}, "group": "control_change"}, {"time": 179011, "annotation": {"number": 10, "value": 2}, "group": "control_change"}, {"time": 179037, "annotation": {"number": 10, "value": 0}, "group": "control_change"}, {"time": 209757, "annotation": {"number": 10, "value": 126}, "group": "control_change"}, {"time": 209783, "annotation": {"number": 10, "value": 124}, "group": "control_change"}, {"time": 209810, "annotation": {"number": 10, "value": 122}, "group": "control_change"}, {"time": 209837, "annotation": {"number": 10, "value": 120}, "group": "control_change"}, {"time": 209863, "annotation": {"number": 10, "value": 119}, "group": "control_change"}, {"time": 209890, "annotation": {"number": 10, "value": 117}, "group": "control_change"}, {"time": 209917, "annotation": {"number": 10, "value": 115}, "group": "control_change"}, {"time": 209943, "annotation": {"number": 10, "value": 113}, "group": "control_change"}, {"time": 209970, "annotation": {"number": 10, "value": 112}, "group": "control_change"}, {"time": 209997, "annotation": {"number": 10, "value": 110}, "group": "control_change"}, {"time": 210023, "annotation": {"number": 10, "value": 108}, "group": "control_change"}, {"time": 210051, "annotation": {"number": 10, "value": 106}, "group": "control_change"}, {"time": 210078, "annotation": {"number": 10, "value": 105}, "group": "control_change"}, {"time": 210104, "annotation": {"number": 10, "value": 103}, "group": "control_change"}, {"time": 210131, "annotation": {"number": 10, "value": 101}, "group": "control_change"}, {"time": 210158, "annotation": {"number": 10, "value": 99}, "group": "control_change"}, {"time": 210184, "annotation": {"number": 10, "value": 98}, "group": "control_change"}, {"time": 210211, "annotation": {"number": 10, "value": 96}, "group": "control_change"}, {"time": 210238, "annotation": {"number": 10, "value": 94}, "group": "control_change"}, {"time": 210264, "annotation": {"number": 10, "value": 92}, "group": "control_change"}, {"time": 210291, "annotation": {"number": 10, "value": 91}, "group": "control_change"}, {"time": 210318, "annotation": {"number": 10, "value": 89}, "group": "control_change"}, {"time": 210345, "annotation": {"number": 10, "value": 87}, "group": "control_change"}, {"time": 210372, "annotation": {"number": 10, "value": 85}, "group": "control_change"}, {"time": 210399, "annotation": {"number": 10, "value": 84}, "group": "control_change"}, {"time": 210425, "annotation": {"number": 10, "value": 82}, "group": "control_change"}, {"time": 210452, "annotation": {"number": 10, "value": 80}, "group": "control_change"}, {"time": 210479, "annotation": {"number": 10, "value": 78}, "group": "control_change"}, {"time": 210505, "annotation": {"number": 10, "value": 77}, "group": "control_change"}, {"time": 210532, "annotation": {"number": 10, "value": 75}, "group": "control_change"}, {"time": 210559, "annotation": {"number": 10, "value": 73}, "group": "control_change"}, {"time": 210585, "annotation": {"number": 10, "value": 71}, "group": "control_change"}, {"time": 210612, "annotation": {"number": 10, "value": 70}, "group": "control_change"}, {"time": 210640, "annotation": {"number": 10, "value": 68}, "group": "control_change"}, {"time": 210666, "annotation": {"number": 10, "value": 66}, "group": "control_change"}, {"time": 210693, "annotation": {"number": 10, "value": 64}, "group": "control_change"}, {"time": 210720, "annotation": {"number": 10, "value": 63}, "group": "control_change"}, {"time": 210746, "annotation": {"number": 10, "value": 61}, "group": "control_change"}, {"time": 210773, "annotation": {"number": 10, "value": 59}, "group": "control_change"}, {"time": 210800, "annotation": {"number": 10, "value": 57}, "group": "control_change"}, {"time": 210826, "annotation": {"number": 10, "value": 56}, "group": "control_change"}, {"time": 210853, "annotation": {"number": 10, "value": 54}, "group": "control_change"}, {"time": 210880, "annotation": {"number": 10, "value": 52}, "group": "control_change"}, {"time": 210906, "annotation": {"number": 10, "value": 51}, "group": "control_change"}, {"time": 210933, "annotation": {"number": 10, "value": 49}, "group": "control_change"}, {"time": 210961, "annotation": {"number": 10, "value": 47}, "group": "control_change"}, {"time": 210987, "annotation": {"number": 10, "value": 45}, "group": "control_change"}, {"time": 211014, "annotation": {"number": 10, "value": 44}, "group": "control_change"}, {"time": 211041, "annotation": {"number": 10, "value": 42}, "group": "control_change"}, {"time": 211067, "annotation": {"number": 10, "value": 40}, "group": "control_change"}, {"time": 211094, "annotation": {"number": 10, "value": 38}, "group": "control_change"}, {"time": 211121, "annotation": {"number": 10, "value": 37}, "group": "control_change"}, {"time": 211147, "annotation": {"number": 10, "value": 35}, "group": "control_change"}, {"time": 211174, "annotation": {"number": 10, "value": 33}, "group": "control_change"}, {"time": 211201, "annotation": {"number": 10, "value": 31}, "group": "control_change"}, {"time": 211227, "annotation": {"number": 10, "value": 30}, "group": "control_change"}, {"time": 211255, "annotation": {"number": 10, "value": 28}, "group": "control_change"}, {"time": 211282, "annotation": {"number": 10, "value": 26}, "group": "control_change"}, {"time": 211308, "annotation": {"number": 10, "value": 24}, "group": "control_change"}, {"time": 211335, "annotation": {"number": 10, "value": 23}, "group": "control_change"}, {"time": 211362, "annotation": {"number": 10, "value": 21}, "group": "control_change"}, {"time": 211388, "annotation": {"number": 10, "value": 19}, "group": "control_change"}, {"time": 211415, "annotation": {"number": 10, "value": 17}, "group": "control_change"}, {"time": 211442, "annotation": {"number": 10, "value": 16}, "group": "control_change"}, {"time": 211468, "annotation": {"number": 10, "value": 14}, "group": "control_change"}, {"time": 211495, "annotation": {"number": 10, "value": 12}, "group": "control_change"}, {"time": 211522, "annotation": {"number": 10, "value": 10}, "group": "control_change"}, {"time": 211549, "annotation": {"number": 10, "value": 9}, "group": "control_change"}, {"time": 211576, "annotation": {"number": 10, "value": 7}, "group": "control_change"}, {"time": 211603, "annotation": {"number": 10, "value": 5}, "group": "control_change"}, {"time": 211629, "annotation": {"number": 10, "value": 3}, "group": "control_change"}, {"time": 211656, "annotation": {"number": 10, "value": 2}, "group": "control_change"}, {"time": 211682, "annotation": {"number": 10, "value": 0}, "group": "control_change"}, {"time": 225116, "annotation": {"number": 10, "value": 126}, "group": "control_change"}, {"time": 225142, "annotation": {"number": 10, "value": 124}, "group": "control_change"}, {"time": 225169, "annotation": {"number": 10, "value": 122}, "group": "control_change"}, {"time": 225196, "annotation": {"number": 10, "value": 120}, "group": "control_change"}, {"time": 225222, "annotation": {"number": 10, "value": 119}, "group": "control_change"}, {"time": 225249, "annotation": {"number": 10, "value": 117}, "group": "control_change"}, {"time": 225276, "annotation": {"number": 10, "value": 115}, "group": "control_change"}, {"time": 225302, "annotation": {"number": 10, "value": 113}, "group": "control_change"}, {"time": 225329, "annotation": {"number": 10, "value": 112}, "group": "control_change"}, {"time": 225357, "annotation": {"number": 10, "value": 110}, "group": "control_change"}, {"time": 225383, "annotation": {"number": 10, "value": 108}, "group": "control_change"}, {"time": 225410, "annotation": {"number": 10, "value": 106}, "group": "control_change"}, {"time": 225437, "annotation": {"number": 10, "value": 105}, "group": "control_change"}, {"time": 225463, "annotation": {"number": 10, "value": 103}, "group": "control_change"}, {"time": 225490, "annotation": {"number": 10, "value": 101}, "group": "control_change"}, {"time": 225517, "annotation": {"number": 10, "value": 99}, "group": "control_change"}, {"time": 225543, "annotation": {"number": 10, "value": 98}, "group": "control_change"}, {"time": 225570, "annotation": {"number": 10, "value": 96}, "group": "control_change"}, {"time": 225597, "annotation": {"number": 10, "value": 94}, "group": "control_change"}, {"time": 225623, "annotation": {"number": 10, "value": 92}, "group": "control_change"}, {"time": 225651, "annotation": {"number": 10, "value": 91}, "group": "control_change"}, {"time": 225678, "annotation": {"number": 10, "value": 89}, "group": "control_change"}, {"time": 225704, "annotation": {"number": 10, "value": 87}, "group": "control_change"}, {"time": 225731, "annotation": {"number": 10, "value": 85}, "group": "control_change"}, {"time": 225758, "annotation": {"number": 10, "value": 84}, "group": "control_change"}, {"time": 225784, "annotation": {"number": 10, "value": 82}, "group": "control_change"}, {"time": 225811, "annotation": {"number": 10, "value": 80}, "group": "control_change"}, {"time": 225838, "annotation": {"number": 10, "value": 78}, "group": "control_change"}, {"time": 225864, "annotation": {"number": 10, "value": 77}, "group": "control_change"}, {"time": 225891, "annotation": {"number": 10, "value": 75}, "group": "control_change"}, {"time": 225918, "annotation": {"number": 10, "value": 73}, "group": "control_change"}, {"time": 225945, "annotation": {"number": 10, "value": 71}, "group": "control_change"}, {"time": 225972, "annotation": {"number": 10, "value": 70}, "group": "control_change"}, {"time": 225999, "annotation": {"number": 10, "value": 68}, "group": "control_change"}, {"time": 226025, "annotation": {"number": 10, "value": 66}, "group": "control_change"}, {"time": 226052, "annotation": {"number": 10, "value": 64}, "group": "control_change"}, {"time": 226079, "annotation": {"number": 10, "value": 63}, "group": "control_change"}, {"time": 226105, "annotation": {"number": 10, "value": 61}, "group": "control_change"}, {"time": 226132, "annotation": {"number": 10, "value": 59}, "group": "control_change"}, {"time": 226159, "annotation": {"number": 10, "value": 57}, "group": "control_change"}, {"time": 226185, "annotation": {"number": 10, "value": 56}, "group": "control_change"}, {"time": 226212, "annotation": {"number": 10, "value": 54}, "group": "control_change"}, {"time": 226240, "annotation": {"number": 10, "value": 52}, "group": "control_change"}, {"time": 226266, "annotation": {"number": 10, "value": 51}, "group": "control_change"}, {"time": 226293, "annotation": {"number": 10, "value": 49}, "group": "control_change"}, {"time": 226320, "annotation": {"number": 10, "value": 47}, "group": "control_change"}, {"time": 226346, "annotation": {"number": 10, "value": 45}, "group": "control_change"}, {"time": 226373, "annotation": {"number": 10, "value": 44}, "group": "control_change"}, {"time": 226400, "annotation": {"number": 10, "value": 42}, "group": "control_change"}, {"time": 226426, "annotation": {"number": 10, "value": 40}, "group": "control_change"}, {"time": 226453, "annotation": {"number": 10, "value": 38}, "group": "control_change"}, {"time": 226480, "annotation": {"number": 10, "value": 37}, "group": "control_change"}, {"time": 226506, "annotation": {"number": 10, "value": 35}, "group": "control_change"}, {"time": 226533, "annotation": {"number": 10, "value": 33}, "group": "control_change"}, {"time": 226561, "annotation": {"number": 10, "value": 31}, "group": "control_change"}, {"time": 226587, "annotation": {"number": 10, "value": 30}, "group": "control_change"}, {"time": 226614, "annotation": {"number": 10, "value": 28}, "group": "control_change"}, {"time": 226641, "annotation": {"number": 10, "value": 26}, "group": "control_change"}, {"time": 226667, "annotation": {"number": 10, "value": 24}, "group": "control_change"}, {"time": 226694, "annotation": {"number": 10, "value": 23}, "group": "control_change"}, {"time": 226721, "annotation": {"number": 10, "value": 21}, "group": "control_change"}, {"time": 226747, "annotation": {"number": 10, "value": 19}, "group": "control_change"}, {"time": 226774, "annotation": {"number": 10, "value": 17}, "group": "control_change"}, {"time": 226801, "annotation": {"number": 10, "value": 16}, "group": "control_change"}, {"time": 226827, "annotation": {"number": 10, "value": 14}, "group": "control_change"}, {"time": 226855, "annotation": {"number": 10, "value": 12}, "group": "control_change"}, {"time": 226882, "annotation": {"number": 10, "value": 10}, "group": "control_change"}, {"time": 226908, "annotation": {"number": 10, "value": 9}, "group": "control_change"}, {"time": 226935, "annotation": {"number": 10, "value": 7}, "group": "control_change"}, {"time": 226962, "annotation": {"number": 10, "value": 5}, "group": "control_change"}, {"time": 226988, "annotation": {"number": 10, "value": 3}, "group": "control_change"}, {"time": 227015, "annotation": {"number": 10, "value": 2}, "group": "control_change"}, {"time": 227041, "annotation": {"number": 10, "value": 0}, "group": "control_change"}, {"time": 244317, "annotation": {"number": 10, "value": 126}, "group": "control_change"}, {"time": 244343, "annotation": {"number": 10, "value": 124}, "group": "control_change"}, {"time": 244371, "annotation": {"number": 10, "value": 122}, "group": "control_change"}, {"time": 244398, "annotation": {"number": 10, "value": 120}, "group": "control_change"}, {"time": 244424, "annotation": {"number": 10, "value": 119}, "group": "control_change"}, {"time": 244451, "annotation": {"number": 10, "value": 117}, "group": "control_change"}, {"time": 244478, "annotation": {"number": 10, "value": 115}, "group": "control_change"}, {"time": 244504, "annotation": {"number": 10, "value": 113}, "group": "control_change"}, {"time": 244531, "annotation": {"number": 10, "value": 112}, "group": "control_change"}, {"time": 244558, "annotation": {"number": 10, "value": 110}, "group": "control_change"}, {"time": 244584, "annotation": {"number": 10, "value": 108}, "group": "control_change"}, {"time": 244611, "annotation": {"number": 10, "value": 106}, "group": "control_change"}, {"time": 244638, "annotation": {"number": 10, "value": 105}, "group": "control_change"}, {"time": 244665, "annotation": {"number": 10, "value": 103}, "group": "control_change"}, {"time": 244692, "annotation": {"number": 10, "value": 101}, "group": "control_change"}, {"time": 244719, "annotation": {"number": 10, "value": 99}, "group": "control_change"}, {"time": 244745, "annotation": {"number": 10, "value": 98}, "group": "control_change"}, {"time": 244772, "annotation": {"number": 10, "value": 96}, "group": "control_change"}, {"time": 244799, "annotation": {"number": 10, "value": 94}, "group": "control_change"}, {"time": 244825, "annotation": {"number": 10, "value": 92}, "group": "control_change"}, {"time": 244852, "annotation": {"number": 10, "value": 91}, "group": "control_change"}, {"time": 244879, "annotation": {"number": 10, "value": 89}, "group": "control_change"}, {"time": 244905, "annotation": {"number": 10, "value": 87}, "group": "control_change"}, {"time": 244932, "annotation": {"number": 10, "value": 85}, "group": "control_change"}, {"time": 244959, "annotation": {"number": 10, "value": 84}, "group": "control_change"}, {"time": 244986, "annotation": {"number": 10, "value": 82}, "group": "control_change"}, {"time": 245013, "annotation": {"number": 10, "value": 80}, "group": "control_change"}, {"time": 245040, "annotation": {"number": 10, "value": 78}, "group": "control_change"}, {"time": 245066, "annotation": {"number": 10, "value": 77}, "group": "control_change"}, {"time": 245093, "annotation": {"number": 10, "value": 75}, "group": "control_change"}, {"time": 245120, "annotation": {"number": 10, "value": 73}, "group": "control_change"}, {"time": 245146, "annotation": {"number": 10, "value": 71}, "group": "control_change"}, {"time": 245173, "annotation": {"number": 10, "value": 70}, "group": "control_change"}, {"time": 245200, "annotation": {"number": 10, "value": 68}, "group": "control_change"}, {"time": 245226, "annotation": {"number": 10, "value": 66}, "group": "control_change"}, {"time": 245253, "annotation": {"number": 10, "value": 64}, "group": "control_change"}, {"time": 245281, "annotation": {"number": 10, "value": 63}, "group": "control_change"}, {"time": 245307, "annotation": {"number": 10, "value": 61}, "group": "control_change"}, {"time": 245334, "annotation": {"number": 10, "value": 59}, "group": "control_change"}, {"time": 245361, "annotation": {"number": 10, "value": 57}, "group": "control_change"}, {"time": 245387, "annotation": {"number": 10, "value": 56}, "group": "control_change"}, {"time": 245414, "annotation": {"number": 10, "value": 54}, "group": "control_change"}, {"time": 245441, "annotation": {"number": 10, "value": 52}, "group": "control_change"}, {"time": 245467, "annotation": {"number": 10, "value": 51}, "group": "control_change"}, {"time": 245494, "annotation": {"number": 10, "value": 49}, "group": "control_change"}, {"time": 245521, "annotation": {"number": 10, "value": 47}, "group": "control_change"}, {"time": 245547, "annotation": {"number": 10, "value": 45}, "group": "control_change"}, {"time": 245575, "annotation": {"number": 10, "value": 44}, "group": "control_change"}, {"time": 245602, "annotation": {"number": 10, "value": 42}, "group": "control_change"}, {"time": 245628, "annotation": {"number": 10, "value": 40}, "group": "control_change"}, {"time": 245655, "annotation": {"number": 10, "value": 38}, "group": "control_change"}, {"time": 245682, "annotation": {"number": 10, "value": 37}, "group": "control_change"}, {"time": 245708, "annotation": {"number": 10, "value": 35}, "group": "control_change"}, {"time": 245735, "annotation": {"number": 10, "value": 33}, "group": "control_change"}, {"time": 245762, "annotation": {"number": 10, "value": 31}, "group": "control_change"}, {"time": 245788, "annotation": {"number": 10, "value": 30}, "group": "control_change"}, {"time": 245815, "annotation": {"number": 10, "value": 28}, "group": "control_change"}, {"time": 245842, "annotation": {"number": 10, "value": 26}, "group": "control_change"}, {"time": 245869, "annotation": {"number": 10, "value": 24}, "group": "control_change"}, {"time": 245896, "annotation": {"number": 10, "value": 23}, "group": "control_change"}, {"time": 245923, "annotation": {"number": 10, "value": 21}, "group": "control_change"}, {"time": 245949, "annotation": {"number": 10, "value": 19}, "group": "control_change"}, {"time": 245976, "annotation": {"number": 10, "value": 17}, "group": "control_change"}, {"time": 246003, "annotation": {"number": 10, "value": 16}, "group": "control_change"}, {"time": 246029, "annotation": {"number": 10, "value": 14}, "group": "control_change"}, {"time": 246056, "annotation": {"number": 10, "value": 12}, "group": "control_change"}, {"time": 246083, "annotation": {"number": 10, "value": 10}, "group": "control_change"}, {"time": 246109, "annotation": {"number": 10, "value": 9}, "group": "control_change"}, {"time": 246136, "annotation": {"number": 10, "value": 7}, "group": "control_change"}, {"time": 246163, "annotation": {"number": 10, "value": 5}, "group": "control_change"}, {"time": 246190, "annotation": {"number": 10, "value": 3}, "group": "control_change"}, {"time": 246217, "annotation": {"number": 10, "value": 2}, "group": "control_change"}, {"time": 246243, "annotation": {"number": 10, "value": 0}, "group": "control_change"}, {"time": 252002, "annotation": {"number": 10, "value": 126}, "group": "control_change"}, {"time": 252028, "annotation": {"number": 10, "value": 124}, "group": "control_change"}, {"time": 252055, "annotation": {"number": 10, "value": 122}, "group": "control_change"}, {"time": 252082, "annotation": {"number": 10, "value": 120}, "group": "control_change"}, {"time": 252109, "annotation": {"number": 10, "value": 119}, "group": "control_change"}, {"time": 252136, "annotation": {"number": 10, "value": 117}, "group": "control_change"}, {"time": 252163, "annotation": {"number": 10, "value": 115}, "group": "control_change"}, {"time": 252189, "annotation": {"number": 10, "value": 113}, "group": "control_change"}, {"time": 252216, "annotation": {"number": 10, "value": 112}, "group": "control_change"}, {"time": 252243, "annotation": {"number": 10, "value": 110}, "group": "control_change"}, {"time": 252269, "annotation": {"number": 10, "value": 108}, "group": "control_change"}, {"time": 252296, "annotation": {"number": 10, "value": 106}, "group": "control_change"}, {"time": 252323, "annotation": {"number": 10, "value": 105}, "group": "control_change"}, {"time": 252349, "annotation": {"number": 10, "value": 103}, "group": "control_change"}, {"time": 252376, "annotation": {"number": 10, "value": 101}, "group": "control_change"}, {"time": 252403, "annotation": {"number": 10, "value": 99}, "group": "control_change"}, {"time": 252430, "annotation": {"number": 10, "value": 98}, "group": "control_change"}, {"time": 252457, "annotation": {"number": 10, "value": 96}, "group": "control_change"}, {"time": 252484, "annotation": {"number": 10, "value": 94}, "group": "control_change"}, {"time": 252509, "annotation": {"number": 10, "value": 92}, "group": "control_change"}, {"time": 252536, "annotation": {"number": 10, "value": 91}, "group": "control_change"}, {"time": 252562, "annotation": {"number": 10, "value": 89}, "group": "control_change"}, {"time": 252588, "annotation": {"number": 10, "value": 87}, "group": "control_change"}, {"time": 252614, "annotation": {"number": 10, "value": 85}, "group": "control_change"}, {"time": 252641, "annotation": {"number": 10, "value": 84}, "group": "control_change"}, {"time": 252666, "annotation": {"number": 10, "value": 82}, "group": "control_change"}, {"time": 252693, "annotation": {"number": 10, "value": 80}, "group": "control_change"}, {"time": 252719, "annotation": {"number": 10, "value": 78}, "group": "control_change"}, {"time": 252745, "annotation": {"number": 10, "value": 77}, "group": "control_change"}, {"time": 252771, "annotation": {"number": 10, "value": 75}, "group": "control_change"}, {"time": 252798, "annotation": {"number": 10, "value": 73}, "group": "control_change"}, {"time": 252823, "annotation": {"number": 10, "value": 71}, "group": "control_change"}, {"time": 252850, "annotation": {"number": 10, "value": 70}, "group": "control_change"}, {"time": 252876, "annotation": {"number": 10, "value": 68}, "group": "control_change"}, {"time": 252902, "annotation": {"number": 10, "value": 66}, "group": "control_change"}, {"time": 252929, "annotation": {"number": 10, "value": 64}, "group": "control_change"}, {"time": 252955, "annotation": {"number": 10, "value": 63}, "group": "control_change"}, {"time": 252981, "annotation": {"number": 10, "value": 61}, "group": "control_change"}, {"time": 253008, "annotation": {"number": 10, "value": 59}, "group": "control_change"}, {"time": 253035, "annotation": {"number": 10, "value": 57}, "group": "control_change"}, {"time": 253061, "annotation": {"number": 10, "value": 56}, "group": "control_change"}, {"time": 253088, "annotation": {"number": 10, "value": 54}, "group": "control_change"}, {"time": 253115, "annotation": {"number": 10, "value": 52}, "group": "control_change"}, {"time": 253142, "annotation": {"number": 10, "value": 51}, "group": "control_change"}, {"time": 253169, "annotation": {"number": 10, "value": 49}, "group": "control_change"}, {"time": 253196, "annotation": {"number": 10, "value": 47}, "group": "control_change"}, {"time": 253222, "annotation": {"number": 10, "value": 45}, "group": "control_change"}, {"time": 253249, "annotation": {"number": 10, "value": 44}, "group": "control_change"}, {"time": 253276, "annotation": {"number": 10, "value": 42}, "group": "control_change"}, {"time": 253302, "annotation": {"number": 10, "value": 40}, "group": "control_change"}, {"time": 253329, "annotation": {"number": 10, "value": 38}, "group": "control_change"}, {"time": 253356, "annotation": {"number": 10, "value": 37}, "group": "control_change"}, {"time": 253382, "annotation": {"number": 10, "value": 35}, "group": "control_change"}, {"time": 253409, "annotation": {"number": 10, "value": 33}, "group": "control_change"}, {"time": 253437, "annotation": {"number": 10, "value": 31}, "group": "control_change"}, {"time": 253463, "annotation": {"number": 10, "value": 30}, "group": "control_change"}, {"time": 253490, "annotation": {"number": 10, "value": 28}, "group": "control_change"}, {"time": 253517, "annotation": {"number": 10, "value": 26}, "group": "control_change"}, {"time": 253543, "annotation": {"number": 10, "value": 24}, "group": "control_change"}, {"time": 253570, "annotation": {"number": 10, "value": 23}, "group": "control_change"}, {"time": 253597, "annotation": {"number": 10, "value": 21}, "group": "control_change"}, {"time": 253623, "annotation": {"number": 10, "value": 19}, "group": "control_change"}, {"time": 253650, "annotation": {"number": 10, "value": 17}, "group": "control_change"}, {"time": 253677, "annotation": {"number": 10, "value": 16}, "group": "control_change"}, {"time": 253703, "annotation": {"number": 10, "value": 14}, "group": "control_change"}, {"time": 253731, "annotation": {"number": 10, "value": 12}, "group": "control_change"}, {"time": 253758, "annotation": {"number": 10, "value": 10}, "group": "control_change"}, {"time": 253784, "annotation": {"number": 10, "value": 9}, "group": "control_change"}, {"time": 253811, "annotation": {"number": 10, "value": 7}, "group": "control_change"}, {"time": 253838, "annotation": {"number": 10, "value": 5}, "group": "control_change"}, {"time": 253864, "annotation": {"number": 10, "value": 3}, "group": "control_change"}, {"time": 253891, "annotation": {"number": 10, "value": 2}, "group": "control_change"}, {"time": 253917, "annotation": {"number": 10, "value": 0}, "group": "control_change"}, {"time": 259677, "annotation": {"number": 10, "value": 126}, "group": "control_change"}, {"time": 259703, "annotation": {"number": 10, "value": 124}, "group": "control_change"}, {"time": 259730, "annotation": {"number": 10, "value": 122}, "group": "control_change"}, {"time": 259757, "annotation": {"number": 10, "value": 120}, "group": "control_change"}, {"time": 259783, "annotation": {"number": 10, "value": 119}, "group": "control_change"}, {"time": 259810, "annotation": {"number": 10, "value": 117}, "group": "control_change"}, {"time": 259837, "annotation": {"number": 10, "value": 115}, "group": "control_change"}, {"time": 259863, "annotation": {"number": 10, "value": 113}, "group": "control_change"}, {"time": 259890, "annotation": {"number": 10, "value": 112}, "group": "control_change"}, {"time": 259917, "annotation": {"number": 10, "value": 110}, "group": "control_change"}, {"time": 259943, "annotation": {"number": 10, "value": 108}, "group": "control_change"}, {"time": 259971, "annotation": {"number": 10, "value": 106}, "group": "control_change"}, {"time": 259998, "annotation": {"number": 10, "value": 105}, "group": "control_change"}, {"time": 260024, "annotation": {"number": 10, "value": 103}, "group": "control_change"}, {"time": 260051, "annotation": {"number": 10, "value": 101}, "group": "control_change"}, {"time": 260078, "annotation": {"number": 10, "value": 99}, "group": "control_change"}, {"time": 260104, "annotation": {"number": 10, "value": 98}, "group": "control_change"}, {"time": 260131, "annotation": {"number": 10, "value": 96}, "group": "control_change"}, {"time": 260158, "annotation": {"number": 10, "value": 94}, "group": "control_change"}, {"time": 260184, "annotation": {"number": 10, "value": 92}, "group": "control_change"}, {"time": 260211, "annotation": {"number": 10, "value": 91}, "group": "control_change"}, {"time": 260238, "annotation": {"number": 10, "value": 89}, "group": "control_change"}, {"time": 260264, "annotation": {"number": 10, "value": 87}, "group": "control_change"}, {"time": 260292, "annotation": {"number": 10, "value": 85}, "group": "control_change"}, {"time": 260319, "annotation": {"number": 10, "value": 84}, "group": "control_change"}, {"time": 260345, "annotation": {"number": 10, "value": 82}, "group": "control_change"}, {"time": 260372, "annotation": {"number": 10, "value": 80}, "group": "control_change"}, {"time": 260399, "annotation": {"number": 10, "value": 78}, "group": "control_change"}, {"time": 260425, "annotation": {"number": 10, "value": 77}, "group": "control_change"}, {"time": 260452, "annotation": {"number": 10, "value": 75}, "group": "control_change"}, {"time": 260479, "annotation": {"number": 10, "value": 73}, "group": "control_change"}, {"time": 260505, "annotation": {"number": 10, "value": 71}, "group": "control_change"}, {"time": 260532, "annotation": {"number": 10, "value": 70}, "group": "control_change"}, {"time": 260559, "annotation": {"number": 10, "value": 68}, "group": "control_change"}, {"time": 260586, "annotation": {"number": 10, "value": 66}, "group": "control_change"}, {"time": 260613, "annotation": {"number": 10, "value": 64}, "group": "control_change"}, {"time": 260640, "annotation": {"number": 10, "value": 63}, "group": "control_change"}, {"time": 260666, "annotation": {"number": 10, "value": 61}, "group": "control_change"}, {"time": 260693, "annotation": {"number": 10, "value": 59}, "group": "control_change"}, {"time": 260720, "annotation": {"number": 10, "value": 57}, "group": "control_change"}, {"time": 260746, "annotation": {"number": 10, "value": 56}, "group": "control_change"}, {"time": 260773, "annotation": {"number": 10, "value": 54}, "group": "control_change"}, {"time": 260800, "annotation": {"number": 10, "value": 52}, "group": "control_change"}, {"time": 260826, "annotation": {"number": 10, "value": 51}, "group": "control_change"}, {"time": 260853, "annotation": {"number": 10, "value": 49}, "group": "control_change"}, {"time": 260881, "annotation": {"number": 10, "value": 47}, "group": "control_change"}, {"time": 260907, "annotation": {"number": 10, "value": 45}, "group": "control_change"}, {"time": 260934, "annotation": {"number": 10, "value": 44}, "group": "control_change"}, {"time": 260961, "annotation": {"number": 10, "value": 42}, "group": "control_change"}, {"time": 260987, "annotation": {"number": 10, "value": 40}, "group": "control_change"}, {"time": 261014, "annotation": {"number": 10, "value": 38}, "group": "control_change"}, {"time": 261041, "annotation": {"number": 10, "value": 37}, "group": "control_change"}, {"time": 261067, "annotation": {"number": 10, "value": 35}, "group": "control_change"}, {"time": 261094, "annotation": {"number": 10, "value": 33}, "group": "control_change"}, {"time": 261121, "annotation": {"number": 10, "value": 31}, "group": "control_change"}, {"time": 261147, "annotation": {"number": 10, "value": 30}, "group": "control_change"}, {"time": 261175, "annotation": {"number": 10, "value": 28}, "group": "control_change"}, {"time": 261202, "annotation": {"number": 10, "value": 26}, "group": "control_change"}, {"time": 261228, "annotation": {"number": 10, "value": 24}, "group": "control_change"}, {"time": 261255, "annotation": {"number": 10, "value": 23}, "group": "control_change"}, {"time": 261282, "annotation": {"number": 10, "value": 21}, "group": "control_change"}, {"time": 261308, "annotation": {"number": 10, "value": 19}, "group": "control_change"}, {"time": 261335, "annotation": {"number": 10, "value": 17}, "group": "control_change"}, {"time": 261362, "annotation": {"number": 10, "value": 16}, "group": "control_change"}, {"time": 261388, "annotation": {"number": 10, "value": 14}, "group": "control_change"}, {"time": 261415, "annotation": {"number": 10, "value": 12}, "group": "control_change"}, {"time": 261442, "annotation": {"number": 10, "value": 10}, "group": "control_change"}, {"time": 261468, "annotation": {"number": 10, "value": 9}, "group": "control_change"}, {"time": 261496, "annotation": {"number": 10, "value": 7}, "group": "control_change"}, {"time": 261523, "annotation": {"number": 10, "value": 5}, "group": "control_change"}, {"time": 261549, "annotation": {"number": 10, "value": 3}, "group": "control_change"}, {"time": 261576, "annotation": {"number": 10, "value": 2}, "group": "control_change"}, {"time": 261602, "annotation": {"number": 10, "value": 0}, "group": "control_change"}, {"time": 267361, "annotation": {"number": 10, "value": 126}, "group": "control_change"}, {"time": 267387, "annotation": {"number": 10, "value": 124}, "group": "control_change"}, {"time": 267415, "annotation": {"number": 10, "value": 122}, "group": "control_change"}, {"time": 267442, "annotation": {"number": 10, "value": 120}, "group": "control_change"}, {"time": 267468, "annotation": {"number": 10, "value": 119}, "group": "control_change"}, {"time": 267495, "annotation": {"number": 10, "value": 117}, "group": "control_change"}, {"time": 267522, "annotation": {"number": 10, "value": 115}, "group": "control_change"}, {"time": 267548, "annotation": {"number": 10, "value": 113}, "group": "control_change"}, {"time": 267575, "annotation": {"number": 10, "value": 112}, "group": "control_change"}, {"time": 267602, "annotation": {"number": 10, "value": 110}, "group": "control_change"}, {"time": 267628, "annotation": {"number": 10, "value": 108}, "group": "control_change"}, {"time": 267655, "annotation": {"number": 10, "value": 106}, "group": "control_change"}, {"time": 267682, "annotation": {"number": 10, "value": 105}, "group": "control_change"}, {"time": 267708, "annotation": {"number": 10, "value": 103}, "group": "control_change"}, {"time": 267736, "annotation": {"number": 10, "value": 101}, "group": "control_change"}, {"time": 267763, "annotation": {"number": 10, "value": 99}, "group": "control_change"}, {"time": 267789, "annotation": {"number": 10, "value": 98}, "group": "control_change"}, {"time": 267816, "annotation": {"number": 10, "value": 96}, "group": "control_change"}, {"time": 267843, "annotation": {"number": 10, "value": 94}, "group": "control_change"}, {"time": 267869, "annotation": {"number": 10, "value": 92}, "group": "control_change"}, {"time": 267896, "annotation": {"number": 10, "value": 91}, "group": "control_change"}, {"time": 267923, "annotation": {"number": 10, "value": 89}, "group": "control_change"}, {"time": 267949, "annotation": {"number": 10, "value": 87}, "group": "control_change"}, {"time": 267976, "annotation": {"number": 10, "value": 85}, "group": "control_change"}, {"time": 268003, "annotation": {"number": 10, "value": 84}, "group": "control_change"}, {"time": 268030, "annotation": {"number": 10, "value": 82}, "group": "control_change"}, {"time": 268057, "annotation": {"number": 10, "value": 80}, "group": "control_change"}, {"time": 268084, "annotation": {"number": 10, "value": 78}, "group": "control_change"}, {"time": 268110, "annotation": {"number": 10, "value": 77}, "group": "control_change"}, {"time": 268137, "annotation": {"number": 10, "value": 75}, "group": "control_change"}, {"time": 268164, "annotation": {"number": 10, "value": 73}, "group": "control_change"}, {"time": 268190, "annotation": {"number": 10, "value": 71}, "group": "control_change"}, {"time": 268217, "annotation": {"number": 10, "value": 70}, "group": "control_change"}, {"time": 268244, "annotation": {"number": 10, "value": 68}, "group": "control_change"}, {"time": 268270, "annotation": {"number": 10, "value": 66}, "group": "control_change"}, {"time": 268297, "annotation": {"number": 10, "value": 64}, "group": "control_change"}, {"time": 268324, "annotation": {"number": 10, "value": 63}, "group": "control_change"}, {"time": 268350, "annotation": {"number": 10, "value": 61}, "group": "control_change"}, {"time": 268376, "annotation": {"number": 10, "value": 59}, "group": "control_change"}, {"time": 268403, "annotation": {"number": 10, "value": 57}, "group": "control_change"}, {"time": 268429, "annotation": {"number": 10, "value": 56}, "group": "control_change"}, {"time": 268455, "annotation": {"number": 10, "value": 54}, "group": "control_change"}, {"time": 268482, "annotation": {"number": 10, "value": 52}, "group": "control_change"}, {"time": 268507, "annotation": {"number": 10, "value": 51}, "group": "control_change"}, {"time": 268534, "annotation": {"number": 10, "value": 49}, "group": "control_change"}, {"time": 268560, "annotation": {"number": 10, "value": 47}, "group": "control_change"}, {"time": 268586, "annotation": {"number": 10, "value": 45}, "group": "control_change"}, {"time": 268612, "annotation": {"number": 10, "value": 44}, "group": "control_change"}, {"time": 268639, "annotation": {"number": 10, "value": 42}, "group": "control_change"}, {"time": 268664, "annotation": {"number": 10, "value": 40}, "group": "control_change"}, {"time": 268691, "annotation": {"number": 10, "value": 38}, "group": "control_change"}, {"time": 268717, "annotation": {"number": 10, "value": 37}, "group": "control_change"}, {"time": 268743, "annotation": {"number": 10, "value": 35}, "group": "control_change"}, {"time": 268769, "annotation": {"number": 10, "value": 33}, "group": "control_change"}, {"time": 268796, "annotation": {"number": 10, "value": 31}, "group": "control_change"}, {"time": 268822, "annotation": {"number": 10, "value": 30}, "group": "control_change"}, {"time": 268849, "annotation": {"number": 10, "value": 28}, "group": "control_change"}, {"time": 268876, "annotation": {"number": 10, "value": 26}, "group": "control_change"}, {"time": 268902, "annotation": {"number": 10, "value": 24}, "group": "control_change"}, {"time": 268929, "annotation": {"number": 10, "value": 23}, "group": "control_change"}, {"time": 268956, "annotation": {"number": 10, "value": 21}, "group": "control_change"}, {"time": 268982, "annotation": {"number": 10, "value": 19}, "group": "control_change"}, {"time": 269009, "annotation": {"number": 10, "value": 17}, "group": "control_change"}, {"time": 269037, "annotation": {"number": 10, "value": 16}, "group": "control_change"}, {"time": 269063, "annotation": {"number": 10, "value": 14}, "group": "control_change"}, {"time": 269090, "annotation": {"number": 10, "value": 12}, "group": "control_change"}, {"time": 269117, "annotation": {"number": 10, "value": 10}, "group": "control_change"}, {"time": 269143, "annotation": {"number": 10, "value": 9}, "group": "control_change"}, {"time": 269170, "annotation": {"number": 10, "value": 7}, "group": "control_change"}, {"time": 269197, "annotation": {"number": 10, "value": 5}, "group": "control_change"}, {"time": 269223, "annotation": {"number": 10, "value": 3}, "group": "control_change"}, {"time": 269250, "annotation": {"number": 10, "value": 2}, "group": "control_change"}, {"time": 269276, "annotation": {"number": 10, "value": 0}, "group": "control_change"}, {"time": 275036, "annotation": {"number": 10, "value": 126}, "group": "control_change"}, {"time": 275062, "annotation": {"number": 10, "value": 124}, "group": "control_change"}, {"time": 275089, "annotation": {"number": 10, "value": 122}, "group": "control_change"}, {"time": 275116, "annotation": {"number": 10, "value": 120}, "group": "control_change"}, {"time": 275142, "annotation": {"number": 10, "value": 119}, "group": "control_change"}, {"time": 275169, "annotation": {"number": 10, "value": 117}, "group": "control_change"}, {"time": 275196, "annotation": {"number": 10, "value": 115}, "group": "control_change"}, {"time": 275222, "annotation": {"number": 10, "value": 113}, "group": "control_change"}, {"time": 275249, "annotation": {"number": 10, "value": 112}, "group": "control_change"}, {"time": 275277, "annotation": {"number": 10, "value": 110}, "group": "control_change"}, {"time": 275303, "annotation": {"number": 10, "value": 108}, "group": "control_change"}, {"time": 275330, "annotation": {"number": 10, "value": 106}, "group": "control_change"}, {"time": 275357, "annotation": {"number": 10, "value": 105}, "group": "control_change"}, {"time": 275383, "annotation": {"number": 10, "value": 103}, "group": "control_change"}, {"time": 275410, "annotation": {"number": 10, "value": 101}, "group": "control_change"}, {"time": 275437, "annotation": {"number": 10, "value": 99}, "group": "control_change"}, {"time": 275463, "annotation": {"number": 10, "value": 98}, "group": "control_change"}, {"time": 275490, "annotation": {"number": 10, "value": 96}, "group": "control_change"}, {"time": 275517, "annotation": {"number": 10, "value": 94}, "group": "control_change"}, {"time": 275543, "annotation": {"number": 10, "value": 92}, "group": "control_change"}, {"time": 275570, "annotation": {"number": 10, "value": 91}, "group": "control_change"}, {"time": 275598, "annotation": {"number": 10, "value": 89}, "group": "control_change"}, {"time": 275624, "annotation": {"number": 10, "value": 87}, "group": "control_change"}, {"time": 275651, "annotation": {"number": 10, "value": 85}, "group": "control_change"}, {"time": 275678, "annotation": {"number": 10, "value": 84}, "group": "control_change"}, {"time": 275704, "annotation": {"number": 10, "value": 82}, "group": "control_change"}, {"time": 275731, "annotation": {"number": 10, "value": 80}, "group": "control_change"}, {"time": 275758, "annotation": {"number": 10, "value": 78}, "group": "control_change"}, {"time": 275784, "annotation": {"number": 10, "value": 77}, "group": "control_change"}, {"time": 275811, "annotation": {"number": 10, "value": 75}, "group": "control_change"}, {"time": 275838, "annotation": {"number": 10, "value": 73}, "group": "control_change"}, {"time": 275864, "annotation": {"number": 10, "value": 71}, "group": "control_change"}, {"time": 275892, "annotation": {"number": 10, "value": 70}, "group": "control_change"}, {"time": 275919, "annotation": {"number": 10, "value": 68}, "group": "control_change"}, {"time": 275945, "annotation": {"number": 10, "value": 66}, "group": "control_change"}, {"time": 275972, "annotation": {"number": 10, "value": 64}, "group": "control_change"}, {"time": 275999, "annotation": {"number": 10, "value": 63}, "group": "control_change"}, {"time": 276025, "annotation": {"number": 10, "value": 61}, "group": "control_change"}, {"time": 276052, "annotation": {"number": 10, "value": 59}, "group": "control_change"}, {"time": 276079, "annotation": {"number": 10, "value": 57}, "group": "control_change"}, {"time": 276105, "annotation": {"number": 10, "value": 56}, "group": "control_change"}, {"time": 276132, "annotation": {"number": 10, "value": 54}, "group": "control_change"}, {"time": 276159, "annotation": {"number": 10, "value": 52}, "group": "control_change"}, {"time": 276186, "annotation": {"number": 10, "value": 51}, "group": "control_change"}, {"time": 276213, "annotation": {"number": 10, "value": 49}, "group": "control_change"}, {"time": 276240, "annotation": {"number": 10, "value": 47}, "group": "control_change"}, {"time": 276266, "annotation": {"number": 10, "value": 45}, "group": "control_change"}, {"time": 276293, "annotation": {"number": 10, "value": 44}, "group": "control_change"}, {"time": 276320, "annotation": {"number": 10, "value": 42}, "group": "control_change"}, {"time": 276346, "annotation": {"number": 10, "value": 40}, "group": "control_change"}, {"time": 276373, "annotation": {"number": 10, "value": 38}, "group": "control_change"}, {"time": 276400, "annotation": {"number": 10, "value": 37}, "group": "control_change"}, {"time": 276426, "annotation": {"number": 10, "value": 35}, "group": "control_change"}, {"time": 276453, "annotation": {"number": 10, "value": 33}, "group": "control_change"}, {"time": 276481, "annotation": {"number": 10, "value": 31}, "group": "control_change"}, {"time": 276507, "annotation": {"number": 10, "value": 30}, "group": "control_change"}, {"time": 276534, "annotation": {"number": 10, "value": 28}, "group": "control_change"}, {"time": 276561, "annotation": {"number": 10, "value": 26}, "group": "control_change"}, {"time": 276587, "annotation": {"number": 10, "value": 24}, "group": "control_change"}, {"time": 276614, "annotation": {"number": 10, "value": 23}, "group": "control_change"}, {"time": 276641, "annotation": {"number": 10, "value": 21}, "group": "control_change"}, {"time": 276667, "annotation": {"number": 10, "value": 19}, "group": "control_change"}, {"time": 276694, "annotation": {"number": 10, "value": 17}, "group": "control_change"}, {"time": 276721, "annotation": {"number": 10, "value": 16}, "group": "control_change"}, {"time": 276747, "annotation": {"number": 10, "value": 14}, "group": "control_change"}, {"time": 276775, "annotation": {"number": 10, "value": 12}, "group": "control_change"}, {"time": 276802, "annotation": {"number": 10, "value": 10}, "group": "control_change"}, {"time": 276828, "annotation": {"number": 10, "value": 9}, "group": "control_change"}, {"time": 276855, "annotation": {"number": 10, "value": 7}, "group": "control_change"}, {"time": 276882, "annotation": {"number": 10, "value": 5}, "group": "control_change"}, {"time": 276908, "annotation": {"number": 10, "value": 3}, "group": "control_change"}, {"time": 276935, "annotation": {"number": 10, "value": 2}, "group": "control_change"}, {"time": 276961, "annotation": {"number": 10, "value": 0}, "group": "control_change"}, {"time": 282721, "annotation": {"number": 10, "value": 126}, "group": "control_change"}, {"time": 282747, "annotation": {"number": 10, "value": 124}, "group": "control_change"}, {"time": 282774, "annotation": {"number": 10, "value": 122}, "group": "control_change"}, {"time": 282801, "annotation": {"number": 10, "value": 120}, "group": "control_change"}, {"time": 282827, "annotation": {"number": 10, "value": 119}, "group": "control_change"}, {"time": 282854, "annotation": {"number": 10, "value": 117}, "group": "control_change"}, {"time": 282881, "annotation": {"number": 10, "value": 115}, "group": "control_change"}, {"time": 282907, "annotation": {"number": 10, "value": 113}, "group": "control_change"}, {"time": 282934, "annotation": {"number": 10, "value": 112}, "group": "control_change"}, {"time": 282961, "annotation": {"number": 10, "value": 110}, "group": "control_change"}, {"time": 282987, "annotation": {"number": 10, "value": 108}, "group": "control_change"}, {"time": 283014, "annotation": {"number": 10, "value": 106}, "group": "control_change"}, {"time": 283042, "annotation": {"number": 10, "value": 105}, "group": "control_change"}, {"time": 283068, "annotation": {"number": 10, "value": 103}, "group": "control_change"}, {"time": 283095, "annotation": {"number": 10, "value": 101}, "group": "control_change"}, {"time": 283122, "annotation": {"number": 10, "value": 99}, "group": "control_change"}, {"time": 283148, "annotation": {"number": 10, "value": 98}, "group": "control_change"}, {"time": 283175, "annotation": {"number": 10, "value": 96}, "group": "control_change"}, {"time": 283202, "annotation": {"number": 10, "value": 94}, "group": "control_change"}, {"time": 283228, "annotation": {"number": 10, "value": 92}, "group": "control_change"}, {"time": 283255, "annotation": {"number": 10, "value": 91}, "group": "control_change"}, {"time": 283282, "annotation": {"number": 10, "value": 89}, "group": "control_change"}, {"time": 283308, "annotation": {"number": 10, "value": 87}, "group": "control_change"}, {"time": 283336, "annotation": {"number": 10, "value": 85}, "group": "control_change"}, {"time": 283363, "annotation": {"number": 10, "value": 84}, "group": "control_change"}, {"time": 283389, "annotation": {"number": 10, "value": 82}, "group": "control_change"}, {"time": 283416, "annotation": {"number": 10, "value": 80}, "group": "control_change"}, {"time": 283443, "annotation": {"number": 10, "value": 78}, "group": "control_change"}, {"time": 283469, "annotation": {"number": 10, "value": 77}, "group": "control_change"}, {"time": 283496, "annotation": {"number": 10, "value": 75}, "group": "control_change"}, {"time": 283523, "annotation": {"number": 10, "value": 73}, "group": "control_change"}, {"time": 283549, "annotation": {"number": 10, "value": 71}, "group": "control_change"}, {"time": 283576, "annotation": {"number": 10, "value": 70}, "group": "control_change"}, {"time": 283603, "annotation": {"number": 10, "value": 68}, "group": "control_change"}, {"time": 283630, "annotation": {"number": 10, "value": 66}, "group": "control_change"}, {"time": 283657, "annotation": {"number": 10, "value": 64}, "group": "control_change"}, {"time": 283684, "annotation": {"number": 10, "value": 63}, "group": "control_change"}, {"time": 283710, "annotation": {"number": 10, "value": 61}, "group": "control_change"}, {"time": 283737, "annotation": {"number": 10, "value": 59}, "group": "control_change"}, {"time": 283764, "annotation": {"number": 10, "value": 57}, "group": "control_change"}, {"time": 283790, "annotation": {"number": 10, "value": 56}, "group": "control_change"}, {"time": 283817, "annotation": {"number": 10, "value": 54}, "group": "control_change"}, {"time": 283844, "annotation": {"number": 10, "value": 52}, "group": "control_change"}, {"time": 283870, "annotation": {"number": 10, "value": 51}, "group": "control_change"}, {"time": 283897, "annotation": {"number": 10, "value": 49}, "group": "control_change"}, {"time": 283925, "annotation": {"number": 10, "value": 47}, "group": "control_change"}, {"time": 283951, "annotation": {"number": 10, "value": 45}, "group": "control_change"}, {"time": 283978, "annotation": {"number": 10, "value": 44}, "group": "control_change"}, {"time": 284005, "annotation": {"number": 10, "value": 42}, "group": "control_change"}, {"time": 284031, "annotation": {"number": 10, "value": 40}, "group": "control_change"}, {"time": 284058, "annotation": {"number": 10, "value": 38}, "group": "control_change"}, {"time": 284085, "annotation": {"number": 10, "value": 37}, "group": "control_change"}, {"time": 284111, "annotation": {"number": 10, "value": 35}, "group": "control_change"}, {"time": 284138, "annotation": {"number": 10, "value": 33}, "group": "control_change"}, {"time": 284165, "annotation": {"number": 10, "value": 31}, "group": "control_change"}, {"time": 284191, "annotation": {"number": 10, "value": 30}, "group": "control_change"}, {"time": 284219, "annotation": {"number": 10, "value": 28}, "group": "control_change"}, {"time": 284246, "annotation": {"number": 10, "value": 26}, "group": "control_change"}, {"time": 284272, "annotation": {"number": 10, "value": 24}, "group": "control_change"}, {"time": 284299, "annotation": {"number": 10, "value": 23}, "group": "control_change"}, {"time": 284326, "annotation": {"number": 10, "value": 21}, "group": "control_change"}, {"time": 284352, "annotation": {"number": 10, "value": 19}, "group": "control_change"}, {"time": 284379, "annotation": {"number": 10, "value": 17}, "group": "control_change"}, {"time": 284406, "annotation": {"number": 10, "value": 16}, "group": "control_change"}, {"time": 284432, "annotation": {"number": 10, "value": 14}, "group": "control_change"}, {"time": 284459, "annotation": {"number": 10, "value": 12}, "group": "control_change"}, {"time": 284486, "annotation": {"number": 10, "value": 10}, "group": "control_change"}, {"time": 284512, "annotation": {"number": 10, "value": 9}, "group": "control_change"}, {"time": 284540, "annotation": {"number": 10, "value": 7}, "group": "control_change"}, {"time": 284567, "annotation": {"number": 10, "value": 5}, "group": "control_change"}, {"time": 284593, "annotation": {"number": 10, "value": 3}, "group": "control_change"}, {"time": 284620, "annotation": {"number": 10, "value": 2}, "group": "control_change"}, {"time": 284646, "annotation": {"number": 10, "value": 0}, "group": "control_change"}, {"time": 290426, "annotation": {"number": 10, "value": 126}, "group": "control_change"}, {"time": 290452, "annotation": {"number": 10, "value": 124}, "group": "control_change"}, {"time": 290479, "annotation": {"number": 10, "value": 122}, "group": "control_change"}, {"time": 290506, "annotation": {"number": 10, "value": 120}, "group": "control_change"}, {"time": 290533, "annotation": {"number": 10, "value": 119}, "group": "control_change"}, {"time": 290560, "annotation": {"number": 10, "value": 117}, "group": "control_change"}, {"time": 290587, "annotation": {"number": 10, "value": 115}, "group": "control_change"}, {"time": 290613, "annotation": {"number": 10, "value": 113}, "group": "control_change"}, {"time": 290640, "annotation": {"number": 10, "value": 112}, "group": "control_change"}, {"time": 290667, "annotation": {"number": 10, "value": 110}, "group": "control_change"}, {"time": 290693, "annotation": {"number": 10, "value": 108}, "group": "control_change"}, {"time": 290720, "annotation": {"number": 10, "value": 106}, "group": "control_change"}, {"time": 290747, "annotation": {"number": 10, "value": 105}, "group": "control_change"}, {"time": 290773, "annotation": {"number": 10, "value": 103}, "group": "control_change"}, {"time": 290800, "annotation": {"number": 10, "value": 101}, "group": "control_change"}, {"time": 290828, "annotation": {"number": 10, "value": 99}, "group": "control_change"}, {"time": 290854, "annotation": {"number": 10, "value": 98}, "group": "control_change"}, {"time": 290881, "annotation": {"number": 10, "value": 96}, "group": "control_change"}, {"time": 290908, "annotation": {"number": 10, "value": 94}, "group": "control_change"}, {"time": 290934, "annotation": {"number": 10, "value": 92}, "group": "control_change"}, {"time": 290961, "annotation": {"number": 10, "value": 91}, "group": "control_change"}, {"time": 290988, "annotation": {"number": 10, "value": 89}, "group": "control_change"}, {"time": 291014, "annotation": {"number": 10, "value": 87}, "group": "control_change"}, {"time": 291041, "annotation": {"number": 10, "value": 85}, "group": "control_change"}, {"time": 291068, "annotation": {"number": 10, "value": 84}, "group": "control_change"}, {"time": 291094, "annotation": {"number": 10, "value": 82}, "group": "control_change"}, {"time": 291122, "annotation": {"number": 10, "value": 80}, "group": "control_change"}, {"time": 291149, "annotation": {"number": 10, "value": 78}, "group": "control_change"}, {"time": 291175, "annotation": {"number": 10, "value": 77}, "group": "control_change"}, {"time": 291202, "annotation": {"number": 10, "value": 75}, "group": "control_change"}, {"time": 291229, "annotation": {"number": 10, "value": 73}, "group": "control_change"}, {"time": 291255, "annotation": {"number": 10, "value": 71}, "group": "control_change"}, {"time": 291282, "annotation": {"number": 10, "value": 70}, "group": "control_change"}, {"time": 291309, "annotation": {"number": 10, "value": 68}, "group": "control_change"}, {"time": 291335, "annotation": {"number": 10, "value": 66}, "group": "control_change"}, {"time": 291362, "annotation": {"number": 10, "value": 64}, "group": "control_change"}, {"time": 291389, "annotation": {"number": 10, "value": 63}, "group": "control_change"}, {"time": 291415, "annotation": {"number": 10, "value": 61}, "group": "control_change"}, {"time": 291443, "annotation": {"number": 10, "value": 59}, "group": "control_change"}, {"time": 291470, "annotation": {"number": 10, "value": 57}, "group": "control_change"}, {"time": 291496, "annotation": {"number": 10, "value": 56}, "group": "control_change"}, {"time": 291523, "annotation": {"number": 10, "value": 54}, "group": "control_change"}, {"time": 291550, "annotation": {"number": 10, "value": 52}, "group": "control_change"}, {"time": 291576, "annotation": {"number": 10, "value": 51}, "group": "control_change"}, {"time": 291603, "annotation": {"number": 10, "value": 49}, "group": "control_change"}, {"time": 291630, "annotation": {"number": 10, "value": 47}, "group": "control_change"}, {"time": 291656, "annotation": {"number": 10, "value": 45}, "group": "control_change"}, {"time": 291683, "annotation": {"number": 10, "value": 44}, "group": "control_change"}, {"time": 291710, "annotation": {"number": 10, "value": 42}, "group": "control_change"}, {"time": 291737, "annotation": {"number": 10, "value": 40}, "group": "control_change"}, {"time": 291764, "annotation": {"number": 10, "value": 38}, "group": "control_change"}, {"time": 291791, "annotation": {"number": 10, "value": 37}, "group": "control_change"}, {"time": 291817, "annotation": {"number": 10, "value": 35}, "group": "control_change"}, {"time": 291844, "annotation": {"number": 10, "value": 33}, "group": "control_change"}, {"time": 291871, "annotation": {"number": 10, "value": 31}, "group": "control_change"}, {"time": 291897, "annotation": {"number": 10, "value": 30}, "group": "control_change"}, {"time": 291924, "annotation": {"number": 10, "value": 28}, "group": "control_change"}, {"time": 291951, "annotation": {"number": 10, "value": 26}, "group": "control_change"}, {"time": 291977, "annotation": {"number": 10, "value": 24}, "group": "control_change"}, {"time": 292004, "annotation": {"number": 10, "value": 23}, "group": "control_change"}, {"time": 292032, "annotation": {"number": 10, "value": 21}, "group": "control_change"}, {"time": 292058, "annotation": {"number": 10, "value": 19}, "group": "control_change"}, {"time": 292085, "annotation": {"number": 10, "value": 17}, "group": "control_change"}, {"time": 292112, "annotation": {"number": 10, "value": 16}, "group": "control_change"}, {"time": 292138, "annotation": {"number": 10, "value": 14}, "group": "control_change"}, {"time": 292165, "annotation": {"number": 10, "value": 12}, "group": "control_change"}, {"time": 292192, "annotation": {"number": 10, "value": 10}, "group": "control_change"}, {"time": 292218, "annotation": {"number": 10, "value": 9}, "group": "control_change"}, {"time": 292245, "annotation": {"number": 10, "value": 7}, "group": "control_change"}, {"time": 292272, "annotation": {"number": 10, "value": 5}, "group": "control_change"}, {"time": 292298, "annotation": {"number": 10, "value": 3}, "group": "control_change"}, {"time": 292326, "annotation": {"number": 10, "value": 2}, "group": "control_change"}, {"time": 292352, "annotation": {"number": 10, "value": 0}, "group": "control_change"}]}, {"program": 0, "is_drum": false, "name": "REVERSE", "annotations": [{"time": 217, "annotation": {"number": 0, "value": 0}, "group": "control_change"}, {"time": 239, "annotation": {"number": 32, "value": 0}, "group": "control_change"}]}, {"program": 119, "is_drum": false, "name": "REVERSE", "notes": [{"time": 958, "pitch": 57, "duration": 1444, "velocity": 127}, {"time": 16317, "pitch": 57, "duration": 1445, "velocity": 127}, {"time": 31676, "pitch": 57, "duration": 1445, "velocity": 127}, {"time": 62405, "pitch": 57, "duration": 1434, "velocity": 127}, {"time": 79680, "pitch": 57, "duration": 1445, "velocity": 127}, {"time": 95039, "pitch": 57, "duration": 1445, "velocity": 127}, {"time": 114241, "pitch": 57, "duration": 1434, "velocity": 127}, {"time": 121915, "pitch": 57, "duration": 1445, "velocity": 127}, {"time": 144959, "pitch": 57, "duration": 1445, "velocity": 127}, {"time": 162245, "pitch": 57, "duration": 1434, "velocity": 127}, {"time": 177604, "pitch": 57, "duration": 1434, "velocity": 127}, {"time": 210238, "pitch": 57, "duration": 1445, "velocity": 127}, {"time": 225597, "pitch": 57, "duration": 1445, "velocity": 127}, {"time": 244799, "pitch": 57, "duration": 1445, "velocity": 127}, {"time": 252484, "pitch": 57, "duration": 1434, "velocity": 127}, {"time": 260158, "pitch": 57, "duration": 1445, "velocity": 127}, {"time": 267843, "pitch": 57, "duration": 1434, "velocity": 127}, {"time": 275517, "pitch": 57, "duration": 1445, "velocity": 127}, {"time": 283202, "pitch": 57, "duration": 1445, "velocity": 127}, {"time": 290908, "pitch": 57, "duration": 1445, "velocity": 127}], "annotations": [{"time": 283, "annotation": {"number": 7, "value": 100}, "group": "control_change"}, {"time": 304, "annotation": {"number": 11, "value": 127}, "group": "control_change"}, {"time": 326, "annotation": {"number": 10, "value": 64}, "group": "control_change"}, {"time": 348, "annotation": {"number": 91, "value": 0}, "group": "control_change"}, {"time": 370, "annotation": {"number": 93, "value": 0}, "group": "control_change"}, {"time": 391, "annotation": {"number": 101, "value": 0}, "group": "control_change"}, {"time": 413, "annotation": {"number": 100, "value": 0}, "group": "control_change"}, {"time": 435, "annotation": {"number": 6, "value": 12}, "group": "control_change"}, {"time": 456, "annotation": {"number": 101, "value": 127}, "group": "control_change"}, {"time": 478, "annotation": {"number": 100, "value": 127}, "group": "control_change"}]}, {"program": 0, "is_drum": false, "name": "A.PIANO 3", "notes": [{"time": 15600, "pitch": 74, "duration": 61, "velocity": 114}, {"time": 15600, "pitch": 86, "duration": 43, "velocity": 107}, {"time": 15717, "pitch": 74, "duration": 57, "velocity": 117}, {"time": 15717, "pitch": 86, "duration": 85, "velocity": 107}, {"time": 15956, "pitch": 72, "duration": 21, "velocity": 103}, {"time": 15956, "pitch": 84, "duration": 27, "velocity": 96}, {"time": 16076, "pitch": 72, "duration": 57, "velocity": 100}, {"time": 16076, "pitch": 84, "duration": 87, "velocity": 91}, {"time": 16317, "pitch": 71, "duration": 35, "velocity": 107}, {"time": 16317, "pitch": 83, "duration": 68, "velocity": 103}, {"time": 16437, "pitch": 71, "duration": 64, "velocity": 103}, {"time": 16437, "pitch": 83, "duration": 81, "velocity": 89}, {"time": 16678, "pitch": 69, "duration": 28, "velocity": 103}, {"time": 16678, "pitch": 81, "duration": 71, "velocity": 107}, {"time": 16798, "pitch": 69, "duration": 53, "velocity": 112}, {"time": 16798, "pitch": 81, "duration": 79, "velocity": 96}, {"time": 17039, "pitch": 67, "duration": 31, "velocity": 103}, {"time": 17039, "pitch": 79, "duration": 61, "velocity": 102}, {"time": 17160, "pitch": 67, "duration": 30, "velocity": 112}, {"time": 17160, "pitch": 79, "duration": 69, "velocity": 92}, {"time": 17400, "pitch": 66, "duration": 59, "velocity": 103}, {"time": 17400, "pitch": 78, "duration": 75, "velocity": 106}, {"time": 17521, "pitch": 66, "duration": 58, "velocity": 103}, {"time": 17521, "pitch": 78, "duration": 74, "velocity": 96}, {"time": 17762, "pitch": 64, "duration": 114, "velocity": 114}, {"time": 17762, "pitch": 76, "duration": 136, "velocity": 119}, {"time": 18484, "pitch": 76, "duration": 114, "velocity": 114}, {"time": 18484, "pitch": 88, "duration": 136, "velocity": 119}, {"time": 20400, "pitch": 67, "duration": 64, "velocity": 98}, {"time": 20400, "pitch": 79, "duration": 64, "velocity": 96}, {"time": 20641, "pitch": 66, "duration": 103, "velocity": 110}, {"time": 20641, "pitch": 78, "duration": 146, "velocity": 112}, {"time": 21002, "pitch": 67, "duration": 60, "velocity": 107}, {"time": 21002, "pitch": 79, "duration": 68, "velocity": 85}, {"time": 21363, "pitch": 69, "duration": 91, "velocity": 98}, {"time": 21363, "pitch": 81, "duration": 53, "velocity": 77}, {"time": 21604, "pitch": 71, "duration": 71, "velocity": 107}, {"time": 21604, "pitch": 83, "duration": 129, "velocity": 107}, {"time": 25436, "pitch": 76, "duration": 205, "velocity": 91}, {"time": 25436, "pitch": 88, "duration": 177, "velocity": 107}, {"time": 28080, "pitch": 79, "duration": 58, "velocity": 107}, {"time": 28080, "pitch": 91, "duration": 64, "velocity": 107}, {"time": 28315, "pitch": 78, "duration": 69, "velocity": 102}, {"time": 28315, "pitch": 90, "duration": 113, "velocity": 103}, {"time": 28676, "pitch": 79, "duration": 68, "velocity": 100}, {"time": 28676, "pitch": 91, "duration": 75, "velocity": 103}, {"time": 29038, "pitch": 81, "duration": 80, "velocity": 103}, {"time": 29038, "pitch": 93, "duration": 84, "velocity": 103}, {"time": 29278, "pitch": 83, "duration": 66, "velocity": 117}, {"time": 29278, "pitch": 95, "duration": 88, "velocity": 112}, {"time": 30255, "pitch": 88, "duration": 331, "velocity": 105}, {"time": 30282, "pitch": 100, "duration": 333, "velocity": 112}, {"time": 259677, "pitch": 79, "duration": 158, "velocity": 114}, {"time": 259677, "pitch": 91, "duration": 174, "velocity": 114}, {"time": 260399, "pitch": 78, "duration": 88, "velocity": 107}, {"time": 260399, "pitch": 90, "duration": 124, "velocity": 105}, {"time": 261121, "pitch": 76, "duration": 65, "velocity": 112}, {"time": 261121, "pitch": 88, "duration": 91, "velocity": 105}, {"time": 261603, "pitch": 71, "duration": 74, "velocity": 114}, {"time": 261603, "pitch": 83, "duration": 118, "velocity": 110}, {"time": 263519, "pitch": 74, "duration": 125, "velocity": 117}, {"time": 263519, "pitch": 86, "duration": 134, "velocity": 110}, {"time": 264241, "pitch": 69, "duration": 82, "velocity": 110}, {"time": 264241, "pitch": 81, "duration": 119, "velocity": 98}, {"time": 264964, "pitch": 71, "duration": 63, "velocity": 105}, {"time": 264964, "pitch": 83, "duration": 100, "velocity": 98}, {"time": 265435, "pitch": 67, "duration": 94, "velocity": 107}, {"time": 265435, "pitch": 79, "duration": 124, "velocity": 107}, {"time": 271916, "pitch": 79, "duration": 66, "velocity": 102}, {"time": 271916, "pitch": 91, "duration": 72, "velocity": 107}, {"time": 272157, "pitch": 78, "duration": 64, "velocity": 105}, {"time": 272157, "pitch": 90, "duration": 122, "velocity": 103}, {"time": 272518, "pitch": 74, "duration": 73, "velocity": 102}, {"time": 272518, "pitch": 86, "duration": 89, "velocity": 86}, {"time": 272879, "pitch": 71, "duration": 79, "velocity": 103}, {"time": 272879, "pitch": 83, "duration": 75, "velocity": 103}, {"time": 273120, "pitch": 76, "duration": 164, "velocity": 119}, {"time": 273120, "pitch": 88, "duration": 178, "velocity": 117}, {"time": 274083, "pitch": 79, "duration": 146, "velocity": 107}, {"time": 274083, "pitch": 91, "duration": 163, "velocity": 105}, {"time": 275036, "pitch": 83, "duration": 147, "velocity": 103}, {"time": 275036, "pitch": 95, "duration": 178, "velocity": 102}, {"time": 275999, "pitch": 86, "duration": 153, "velocity": 87}, {"time": 275999, "pitch": 98, "duration": 207, "velocity": 94}, {"time": 276962, "pitch": 88, "duration": 418, "velocity": 73}, {"time": 276962, "pitch": 100, "duration": 355, "velocity": 92}, {"time": 279841, "pitch": 83, "duration": 159, "velocity": 100}, {"time": 279841, "pitch": 95, "duration": 163, "velocity": 96}, {"time": 280203, "pitch": 81, "duration": 114, "velocity": 98}, {"time": 280203, "pitch": 93, "duration": 133, "velocity": 102}, {"time": 280564, "pitch": 79, "duration": 78, "velocity": 89}, {"time": 280564, "pitch": 91, "duration": 84, "velocity": 92}, {"time": 280804, "pitch": 78, "duration": 102, "velocity": 102}, {"time": 280804, "pitch": 90, "duration": 124, "velocity": 98}, {"time": 281757, "pitch": 74, "duration": 187, "velocity": 100}, {"time": 281757, "pitch": 86, "duration": 187, "velocity": 92}, {"time": 282721, "pitch": 71, "duration": 259, "velocity": 87}, {"time": 282721, "pitch": 83, "duration": 276, "velocity": 82}, {"time": 283684, "pitch": 67, "duration": 198, "velocity": 84}, {"time": 283684, "pitch": 79, "duration": 369, "velocity": 82}, {"time": 286573, "pitch": 76, "duration": 141, "velocity": 107}, {"time": 286573, "pitch": 88, "duration": 199, "velocity": 103}, {"time": 287537, "pitch": 83, "duration": 133, "velocity": 100}, {"time": 287537, "pitch": 95, "duration": 166, "velocity": 98}, {"time": 288500, "pitch": 79, "duration": 213, "velocity": 94}, {"time": 288500, "pitch": 91, "duration": 219, "velocity": 98}, {"time": 289463, "pitch": 88, "duration": 330, "velocity": 81}, {"time": 289463, "pitch": 100, "duration": 251, "velocity": 102}], "annotations": [{"time": 217, "annotation": {"number": 0, "value": 0}, "group": "control_change"}, {"time": 239, "annotation": {"number": 32, "value": 0}, "group": "control_change"}, {"time": 283, "annotation": {"number": 7, "value": 106}, "group": "control_change"}, {"time": 304, "annotation": {"number": 11, "value": 127}, "group": "control_change"}, {"time": 326, "annotation": {"number": 10, "value": 72}, "group": "control_change"}, {"time": 348, "annotation": {"number": 91, "value": 100}, "group": "control_change"}, {"time": 370, "annotation": {"number": 93, "value": 0}, "group": "control_change"}, {"time": 391, "annotation": {"number": 101, "value": 0}, "group": "control_change"}, {"time": 413, "annotation": {"number": 100, "value": 0}, "group": "control_change"}, {"time": 435, "annotation": {"number": 6, "value": 12}, "group": "control_change"}, {"time": 456, "annotation": {"number": 101, "value": 127}, "group": "control_change"}, {"time": 478, "annotation": {"number": 100, "value": 127}, "group": "control_change"}, {"time": 13914, "annotation": {"number": 64, "value": 127}, "group": "control_change"}, {"time": 33198, "annotation": {"number": 64, "value": 0}, "group": "control_change"}, {"time": 257836, "annotation": {"number": 64, "value": 127}, "group": "control_change"}, {"time": 292166, "annotation": {"number": 64, "value": 0}, "group": "control_change"}]}]}