{"metadata": {"schema_version": "0.1", "title": "RWC-MDB-P-2001 No. 81: How Deep Is Your Love? / Donna Burke", "copyright": "RWC Music Database. Copyright (C) 2001 Real World Computing Partnership (contact: Masataka GOTO <m.goto@aist.go.jp>)", "source_filename": "RM-P081.SMF_SYNC.MID", "source_format": "midi"}, "resolution": 480, "tempos": [{"time": 0, "qpm": 44.44444444444444}, {"time": 480, "qpm": 90.9090909090909}, {"time": 960, "qpm": 89.55223880597015}, {"time": 1920, "qpm": 90.9090909090909}, {"time": 2400, "qpm": 89.55223880597015}, {"time": 3360, "qpm": 90.9090909090909}, {"time": 3840, "qpm": 89.55223880597015}, {"time": 4800, "qpm": 90.9090909090909}, {"time": 5280, "qpm": 89.55223880597015}, {"time": 6240, "qpm": 90.9090909090909}, {"time": 6720, "qpm": 89.55223880597015}, {"time": 7680, "qpm": 90.9090909090909}, {"time": 8160, "qpm": 89.55223880597015}, {"time": 9120, "qpm": 90.9090909090909}, {"time": 9600, "qpm": 89.55223880597015}, {"time": 10560, "qpm": 90.9090909090909}, {"time": 11040, "qpm": 89.55223880597015}, {"time": 12000, "qpm": 90.9090909090909}, {"time": 12480, "qpm": 89.55223880597015}, {"time": 13440, "qpm": 90.9090909090909}, {"time": 13920, "qpm": 89.55223880597015}, {"time": 14880, "qpm": 90.9090909090909}, {"time": 15360, "qpm": 89.55223880597015}, {"time": 16320, "qpm": 90.9090909090909}, {"time": 16800, "qpm": 89.55223880597015}, {"time": 17760, "qpm": 90.9090909090909}, {"time": 18240, "qpm": 89.55223880597015}, {"time": 19200, "qpm": 90.9090909090909}, {"time": 19680, "qpm": 89.55223880597015}, {"time": 20640, "qpm": 90.9090909090909}, {"time": 21120, "qpm": 89.55223880597015}, {"time": 22080, "qpm": 90.9090909090909}, {"time": 22560, "qpm": 89.55223880597015}, {"time": 23520, "qpm": 90.9090909090909}, {"time": 24000, "qpm": 89.55223880597015}, {"time": 24960, "qpm": 90.9090909090909}, {"time": 25440, "qpm": 89.55223880597015}, {"time": 26400, "qpm": 90.9090909090909}, {"time": 26880, "qpm": 89.55223880597015}, {"time": 27840, "qpm": 90.9090909090909}, {"time": 28320, "qpm": 89.55223880597015}, {"time": 29280, "qpm": 90.9090909090909}, {"time": 29760, "qpm": 89.55223880597015}, {"time": 30720, "qpm": 90.9090909090909}, {"time": 31200, "qpm": 89.55223880597015}, {"time": 32160, "qpm": 90.9090909090909}, {"time": 32640, "qpm": 89.55223880597015}, {"time": 33600, "qpm": 90.9090909090909}, {"time": 34080, "qpm": 89.55223880597015}, {"time": 35040, "qpm": 90.9090909090909}, {"time": 35520, "qpm": 89.55223880597015}, {"time": 36480, "qpm": 90.9090909090909}, {"time": 36960, "qpm": 89.55223880597015}, {"time": 37920, "qpm": 90.9090909090909}, {"time": 38400, "qpm": 89.55223880597015}, {"time": 39360, "qpm": 90.9090909090909}, {"time": 39840, "qpm": 89.55223880597015}, {"time": 40800, "qpm": 90.9090909090909}, {"time": 41280, "qpm": 89.55223880597015}, {"time": 42240, "qpm": 90.9090909090909}, {"time": 42720, "qpm": 89.55223880597015}, {"time": 43680, "qpm": 90.9090909090909}, {"time": 44160, "qpm": 89.55223880597015}, {"time": 45120, "qpm": 90.9090909090909}, {"time": 45600, "qpm": 89.55223880597015}, {"time": 46560, "qpm": 90.9090909090909}, {"time": 47040, "qpm": 89.55223880597015}, {"time": 48000, "qpm": 90.9090909090909}, {"time": 48480, "qpm": 89.55223880597015}, {"time": 48960, "qpm": 90.9090909090909}, {"time": 49440, "qpm": 89.55223880597015}, {"time": 50880, "qpm": 90.9090909090909}, {"time": 51360, "qpm": 89.55223880597015}, {"time": 52320, "qpm": 90.9090909090909}, {"time": 52800, "qpm": 89.55223880597015}, {"time": 53760, "qpm": 90.9090909090909}, {"time": 54240, "qpm": 89.55223880597015}, {"time": 54720, "qpm": 90.9090909090909}, {"time": 55200, "qpm": 89.55223880597015}, {"time": 56640, "qpm": 90.9090909090909}, {"time": 57120, "qpm": 89.55223880597015}, {"time": 58080, "qpm": 90.9090909090909}, {"time": 58560, "qpm": 89.55223880597015}, {"time": 59520, "qpm": 90.9090909090909}, {"time": 60000, "qpm": 89.55223880597015}, {"time": 60960, "qpm": 90.9090909090909}, {"time": 61440, "qpm": 89.55223880597015}, {"time": 62400, "qpm": 90.9090909090909}, {"time": 62880, "qpm": 89.55223880597015}, {"time": 63840, "qpm": 90.9090909090909}, {"time": 64320, "qpm": 89.55223880597015}, {"time": 65280, "qpm": 90.9090909090909}, {"time": 65760, "qpm": 89.55223880597015}, {"time": 66720, "qpm": 90.9090909090909}, {"time": 67200, "qpm": 89.55223880597015}, {"time": 68160, "qpm": 90.9090909090909}, {"time": 68640, "qpm": 89.55223880597015}, {"time": 69600, "qpm": 90.9090909090909}, {"time": 70080, "qpm": 89.55223880597015}, {"time": 70560, "qpm": 90.9090909090909}, {"time": 71040, "qpm": 89.55223880597015}, {"time": 72480, "qpm": 90.9090909090909}, {"time": 72960, "qpm": 89.55223880597015}, {"time": 73440, "qpm": 90.9090909090909}, {"time": 73920, "qpm": 89.55223880597015}, {"time": 74880, "qpm": 90.9090909090909}, {"time": 75360, "qpm": 89.55223880597015}, {"time": 76800, "qpm": 90.9090909090909}, {"time": 77280, "qpm": 89.55223880597015}, {"time": 78240, "qpm": 90.9090909090909}, {"time": 78720, "qpm": 89.55223880597015}, {"time": 79200, "qpm": 90.9090909090909}, {"time": 79680, "qpm": 89.55223880597015}, {"time": 81120, "qpm": 90.9090909090909}, {"time": 81600, "qpm": 89.55223880597015}, {"time": 82080, "qpm": 90.9090909090909}, {"time": 82560, "qpm": 89.55223880597015}, {"time": 83520, "qpm": 90.9090909090909}, {"time": 84000, "qpm": 89.55223880597015}, {"time": 85440, "qpm": 90.9090909090909}, {"time": 85920, "qpm": 89.55223880597015}, {"time": 86880, "qpm": 90.9090909090909}, {"time": 87360, "qpm": 89.55223880597015}, {"time": 87840, "qpm": 90.9090909090909}, {"time": 88320, "qpm": 89.55223880597015}, {"time": 89760, "qpm": 90.9090909090909}, {"time": 90240, "qpm": 89.55223880597015}, {"time": 90720, "qpm": 90.9090909090909}, {"time": 91200, "qpm": 89.55223880597015}, {"time": 92160, "qpm": 90.9090909090909}, {"time": 92640, "qpm": 89.55223880597015}, {"time": 93600, "qpm": 90.9090909090909}, {"time": 94080, "qpm": 89.55223880597015}, {"time": 95040, "qpm": 90.9090909090909}, {"time": 95520, "qpm": 89.55223880597015}, {"time": 96480, "qpm": 90.9090909090909}, {"time": 96960, "qpm": 89.55223880597015}, {"time": 98400, "qpm": 90.9090909090909}, {"time": 98880, "qpm": 89.55223880597015}, {"time": 99840, "qpm": 90.9090909090909}, {"time": 100320, "qpm": 89.55223880597015}, {"time": 101280, "qpm": 90.9090909090909}, {"time": 101760, "qpm": 89.55223880597015}, {"time": 102240, "qpm": 90.9090909090909}, {"time": 102720, "qpm": 89.55223880597015}, {"time": 104160, "qpm": 90.9090909090909}, {"time": 104640, "qpm": 89.55223880597015}, {"time": 105120, "qpm": 90.9090909090909}, {"time": 105600, "qpm": 89.55223880597015}, {"time": 106560, "qpm": 90.9090909090909}, {"time": 107040, "qpm": 89.55223880597015}, {"time": 108480, "qpm": 90.9090909090909}, {"time": 108960, "qpm": 89.55223880597015}, {"time": 109920, "qpm": 90.9090909090909}, {"time": 110400, "qpm": 89.55223880597015}, {"time": 110880, "qpm": 90.9090909090909}, {"time": 111360, "qpm": 89.55223880597015}, {"time": 112320, "qpm": 90.9090909090909}, {"time": 112800, "qpm": 89.55223880597015}, {"time": 113760, "qpm": 90.9090909090909}, {"time": 114240, "qpm": 89.55223880597015}, {"time": 115200, "qpm": 90.9090909090909}, {"time": 115680, "qpm": 89.55223880597015}, {"time": 116640, "qpm": 90.9090909090909}, {"time": 117120, "qpm": 89.55223880597015}, {"time": 118080, "qpm": 90.9090909090909}, {"time": 118560, "qpm": 89.55223880597015}, {"time": 119520, "qpm": 90.9090909090909}, {"time": 120000, "qpm": 89.55223880597015}, {"time": 120960, "qpm": 90.9090909090909}, {"time": 121440, "qpm": 89.55223880597015}, {"time": 122400, "qpm": 90.9090909090909}, {"time": 122880, "qpm": 89.55223880597015}, {"time": 123840, "qpm": 90.9090909090909}, {"time": 124320, "qpm": 89.55223880597015}, {"time": 125280, "qpm": 90.9090909090909}, {"time": 125760, "qpm": 89.55223880597015}, {"time": 126720, "qpm": 90.9090909090909}, {"time": 127200, "qpm": 89.55223880597015}, {"time": 128160, "qpm": 90.9090909090909}, {"time": 128640, "qpm": 89.55223880597015}, {"time": 129600, "qpm": 90.9090909090909}, {"time": 130080, "qpm": 89.55223880597015}, {"time": 131040, "qpm": 90.9090909090909}, {"time": 131520, "qpm": 89.55223880597015}, {"time": 132480, "qpm": 90.9090909090909}, {"time": 132960, "qpm": 89.55223880597015}, {"time": 133920, "qpm": 90.9090909090909}, {"time": 134400, "qpm": 89.55223880597015}, {"time": 135360, "qpm": 90.9090909090909}, {"time": 135840, "qpm": 89.55223880597015}, {"time": 136800, "qpm": 90.9090909090909}, {"time": 137280, "qpm": 89.55223880597015}, {"time": 138240, "qpm": 90.9090909090909}, {"time": 138720, "qpm": 89.55223880597015}, {"time": 139680, "qpm": 90.9090909090909}, {"time": 140160, "qpm": 89.55223880597015}, {"time": 141600, "qpm": 90.9090909090909}, {"time": 142080, "qpm": 89.55223880597015}, {"time": 142560, "qpm": 90.9090909090909}, {"time": 143040, "qpm": 89.55223880597015}, {"time": 144000, "qpm": 90.9090909090909}, {"time": 144480, "qpm": 89.55223880597015}, {"time": 145440, "qpm": 90.9090909090909}, {"time": 145920, "qpm": 89.55223880597015}, {"time": 146880, "qpm": 90.9090909090909}, {"time": 147360, "qpm": 89.55223880597015}, {"time": 148320, "qpm": 90.9090909090909}, {"time": 148800, "qpm": 89.55223880597015}, {"time": 149760, "qpm": 90.9090909090909}, {"time": 150240, "qpm": 89.55223880597015}, {"time": 151200, "qpm": 90.9090909090909}, {"time": 151680, "qpm": 89.55223880597015}, {"time": 152640, "qpm": 90.9090909090909}, {"time": 153120, "qpm": 89.55223880597015}, {"time": 154080, "qpm": 90.9090909090909}, {"time": 154560, "qpm": 89.55223880597015}, {"time": 155520, "qpm": 90.9090909090909}, {"time": 156000, "qpm": 89.55223880597015}, {"time": 156960, "qpm": 90.9090909090909}, {"time": 157440, "qpm": 89.55223880597015}, {"time": 158400, "qpm": 90.9090909090909}, {"time": 158880, "qpm": 89.55223880597015}, {"time": 159840, "qpm": 90.9090909090909}], "key_signatures": [{"time": 0, "root": 0, "mode": "major"}], "time_signatures": [{"time": 0, "numerator": 2, "denominator": 4}, {"time": 960, "numerator": 4, "denominator": 4}], "tracks": [{"program": 0, "is_drum": false, "name": "E.PIANO", "annotations": [{"time": 187, "annotation": {"number": 0, "value": 16}, "group": "control_change"}, {"time": 197, "annotation": {"number": 32, "value": 2}, "group": "control_change"}]}, {"program": 5, "is_drum": false, "name": "E.PIANO", "notes": [{"time": 960, "pitch": 46, "duration": 1917, "velocity": 65}, {"time": 960, "pitch": 58, "duration": 710, "velocity": 74}, {"time": 960, "pitch": 62, "duration": 710, "velocity": 78}, {"time": 960, "pitch": 65, "duration": 710, "velocity": 84}, {"time": 960, "pitch": 69, "duration": 710, "velocity": 88}, {"time": 1680, "pitch": 58, "duration": 1188, "velocity": 74}, {"time": 1680, "pitch": 62, "duration": 1188, "velocity": 78}, {"time": 1680, "pitch": 65, "duration": 710, "velocity": 84}, {"time": 1680, "pitch": 69, "duration": 710, "velocity": 88}, {"time": 2400, "pitch": 65, "duration": 477, "velocity": 84}, {"time": 2400, "pitch": 69, "duration": 477, "velocity": 88}, {"time": 2400, "pitch": 72, "duration": 477, "velocity": 95}, {"time": 2877, "pitch": 45, "duration": 1925, "velocity": 64}, {"time": 2877, "pitch": 57, "duration": 354, "velocity": 72}, {"time": 2877, "pitch": 64, "duration": 354, "velocity": 88}, {"time": 2877, "pitch": 67, "duration": 354, "velocity": 84}, {"time": 2877, "pitch": 72, "duration": 354, "velocity": 95}, {"time": 3241, "pitch": 60, "duration": 350, "velocity": 88}, {"time": 3241, "pitch": 64, "duration": 350, "velocity": 84}, {"time": 3241, "pitch": 67, "duration": 350, "velocity": 95}, {"time": 3601, "pitch": 57, "duration": 707, "velocity": 88}, {"time": 3601, "pitch": 60, "duration": 707, "velocity": 84}, {"time": 3601, "pitch": 65, "duration": 707, "velocity": 95}, {"time": 4317, "pitch": 60, "duration": 122, "velocity": 97}, {"time": 4439, "pitch": 62, "duration": 121, "velocity": 95}, {"time": 4560, "pitch": 65, "duration": 111, "velocity": 92}, {"time": 4681, "pitch": 67, "duration": 111, "velocity": 87}, {"time": 4802, "pitch": 43, "duration": 1918, "velocity": 56}, {"time": 4802, "pitch": 55, "duration": 707, "velocity": 64}, {"time": 4802, "pitch": 62, "duration": 707, "velocity": 90}, {"time": 4802, "pitch": 65, "duration": 707, "velocity": 90}, {"time": 4802, "pitch": 69, "duration": 707, "velocity": 95}, {"time": 5519, "pitch": 55, "duration": 1181, "velocity": 83}, {"time": 5519, "pitch": 62, "duration": 1181, "velocity": 94}, {"time": 5519, "pitch": 65, "duration": 1181, "velocity": 95}, {"time": 5519, "pitch": 70, "duration": 1181, "velocity": 97}, {"time": 6720, "pitch": 53, "duration": 1440, "velocity": 64}, {"time": 6720, "pitch": 57, "duration": 348, "velocity": 72}, {"time": 6720, "pitch": 62, "duration": 348, "velocity": 88}, {"time": 6720, "pitch": 67, "duration": 348, "velocity": 84}, {"time": 6720, "pitch": 72, "duration": 348, "velocity": 88}, {"time": 7078, "pitch": 60, "duration": 352, "velocity": 88}, {"time": 7078, "pitch": 64, "duration": 352, "velocity": 84}, {"time": 7078, "pitch": 67, "duration": 352, "velocity": 95}, {"time": 7440, "pitch": 57, "duration": 710, "velocity": 88}, {"time": 7440, "pitch": 60, "duration": 710, "velocity": 84}, {"time": 7440, "pitch": 65, "duration": 710, "velocity": 95}, {"time": 8160, "pitch": 48, "duration": 477, "velocity": 88}, {"time": 8160, "pitch": 58, "duration": 477, "velocity": 84}, {"time": 8160, "pitch": 62, "duration": 477, "velocity": 88}, {"time": 8160, "pitch": 64, "duration": 477, "velocity": 72}, {"time": 8160, "pitch": 69, "duration": 477, "velocity": 64}, {"time": 8637, "pitch": 46, "duration": 1925, "velocity": 65}, {"time": 8637, "pitch": 58, "duration": 714, "velocity": 74}, {"time": 8637, "pitch": 62, "duration": 714, "velocity": 78}, {"time": 8637, "pitch": 65, "duration": 714, "velocity": 84}, {"time": 8637, "pitch": 69, "duration": 714, "velocity": 88}, {"time": 9361, "pitch": 58, "duration": 1191, "velocity": 74}, {"time": 9361, "pitch": 62, "duration": 1191, "velocity": 78}, {"time": 9361, "pitch": 65, "duration": 706, "velocity": 84}, {"time": 9361, "pitch": 69, "duration": 706, "velocity": 88}, {"time": 10077, "pitch": 65, "duration": 485, "velocity": 84}, {"time": 10077, "pitch": 69, "duration": 485, "velocity": 88}, {"time": 10077, "pitch": 72, "duration": 485, "velocity": 95}, {"time": 10562, "pitch": 45, "duration": 1918, "velocity": 64}, {"time": 10562, "pitch": 57, "duration": 348, "velocity": 72}, {"time": 10562, "pitch": 64, "duration": 348, "velocity": 88}, {"time": 10562, "pitch": 67, "duration": 348, "velocity": 84}, {"time": 10562, "pitch": 72, "duration": 348, "velocity": 95}, {"time": 10920, "pitch": 60, "duration": 349, "velocity": 88}, {"time": 10920, "pitch": 64, "duration": 349, "velocity": 84}, {"time": 10920, "pitch": 67, "duration": 349, "velocity": 95}, {"time": 11278, "pitch": 57, "duration": 714, "velocity": 88}, {"time": 11278, "pitch": 60, "duration": 714, "velocity": 84}, {"time": 11278, "pitch": 65, "duration": 714, "velocity": 95}, {"time": 12002, "pitch": 60, "duration": 119, "velocity": 97}, {"time": 12121, "pitch": 62, "duration": 120, "velocity": 95}, {"time": 12241, "pitch": 65, "duration": 109, "velocity": 92}, {"time": 12360, "pitch": 67, "duration": 110, "velocity": 87}, {"time": 12480, "pitch": 43, "duration": 1917, "velocity": 56}, {"time": 12480, "pitch": 55, "duration": 710, "velocity": 64}, {"time": 12480, "pitch": 62, "duration": 710, "velocity": 90}, {"time": 12480, "pitch": 65, "duration": 710, "velocity": 90}, {"time": 12480, "pitch": 69, "duration": 710, "velocity": 95}, {"time": 13200, "pitch": 55, "duration": 1177, "velocity": 83}, {"time": 13200, "pitch": 62, "duration": 1177, "velocity": 94}, {"time": 13200, "pitch": 65, "duration": 1177, "velocity": 95}, {"time": 13200, "pitch": 70, "duration": 1177, "velocity": 97}, {"time": 14397, "pitch": 53, "duration": 1440, "velocity": 64}, {"time": 14397, "pitch": 57, "duration": 354, "velocity": 72}, {"time": 14397, "pitch": 62, "duration": 354, "velocity": 88}, {"time": 14397, "pitch": 67, "duration": 354, "velocity": 84}, {"time": 14397, "pitch": 72, "duration": 354, "velocity": 88}, {"time": 14761, "pitch": 60, "duration": 350, "velocity": 88}, {"time": 14761, "pitch": 64, "duration": 350, "velocity": 84}, {"time": 14761, "pitch": 67, "duration": 350, "velocity": 95}, {"time": 15121, "pitch": 57, "duration": 706, "velocity": 88}, {"time": 15121, "pitch": 60, "duration": 706, "velocity": 84}, {"time": 15121, "pitch": 65, "duration": 706, "velocity": 95}, {"time": 15837, "pitch": 44, "duration": 485, "velocity": 64}, {"time": 15837, "pitch": 56, "duration": 485, "velocity": 87}, {"time": 15837, "pitch": 60, "duration": 485, "velocity": 88}, {"time": 15837, "pitch": 62, "duration": 485, "velocity": 92}, {"time": 15837, "pitch": 66, "duration": 485, "velocity": 98}, {"time": 16322, "pitch": 43, "duration": 1917, "velocity": 65}, {"time": 16322, "pitch": 55, "duration": 706, "velocity": 74}, {"time": 16322, "pitch": 58, "duration": 706, "velocity": 78}, {"time": 16322, "pitch": 62, "duration": 706, "velocity": 84}, {"time": 16322, "pitch": 65, "duration": 706, "velocity": 88}, {"time": 17038, "pitch": 55, "duration": 1192, "velocity": 74}, {"time": 17038, "pitch": 58, "duration": 714, "velocity": 78}, {"time": 17038, "pitch": 62, "duration": 714, "velocity": 84}, {"time": 17038, "pitch": 65, "duration": 714, "velocity": 88}, {"time": 17762, "pitch": 58, "duration": 477, "velocity": 88}, {"time": 17762, "pitch": 62, "duration": 477, "velocity": 84}, {"time": 17762, "pitch": 65, "duration": 477, "velocity": 95}, {"time": 18239, "pitch": 53, "duration": 1918, "velocity": 64}, {"time": 18239, "pitch": 57, "duration": 349, "velocity": 72}, {"time": 18239, "pitch": 60, "duration": 349, "velocity": 88}, {"time": 18239, "pitch": 62, "duration": 349, "velocity": 84}, {"time": 18239, "pitch": 67, "duration": 349, "velocity": 95}, {"time": 18598, "pitch": 60, "duration": 351, "velocity": 88}, {"time": 18598, "pitch": 62, "duration": 351, "velocity": 84}, {"time": 18598, "pitch": 67, "duration": 351, "velocity": 95}, {"time": 18959, "pitch": 60, "duration": 362, "velocity": 84}, {"time": 18959, "pitch": 65, "duration": 591, "velocity": 88}, {"time": 18959, "pitch": 69, "duration": 711, "velocity": 95}, {"time": 19799, "pitch": 60, "duration": 119, "velocity": 83}, {"time": 19918, "pitch": 62, "duration": 110, "velocity": 92}, {"time": 20038, "pitch": 65, "duration": 109, "velocity": 87}, {"time": 20157, "pitch": 43, "duration": 1925, "velocity": 65}, {"time": 20157, "pitch": 55, "duration": 714, "velocity": 74}, {"time": 20157, "pitch": 58, "duration": 714, "velocity": 78}, {"time": 20157, "pitch": 62, "duration": 714, "velocity": 84}, {"time": 20157, "pitch": 65, "duration": 714, "velocity": 88}, {"time": 20881, "pitch": 55, "duration": 1191, "velocity": 74}, {"time": 20881, "pitch": 58, "duration": 1191, "velocity": 78}, {"time": 20881, "pitch": 62, "duration": 706, "velocity": 84}, {"time": 20881, "pitch": 65, "duration": 706, "velocity": 88}, {"time": 21597, "pitch": 62, "duration": 485, "velocity": 88}, {"time": 21597, "pitch": 65, "duration": 485, "velocity": 84}, {"time": 21597, "pitch": 69, "duration": 485, "velocity": 95}, {"time": 22082, "pitch": 53, "duration": 1917, "velocity": 64}, {"time": 22082, "pitch": 57, "duration": 348, "velocity": 72}, {"time": 22082, "pitch": 60, "duration": 348, "velocity": 88}, {"time": 22082, "pitch": 62, "duration": 348, "velocity": 84}, {"time": 22082, "pitch": 67, "duration": 348, "velocity": 95}, {"time": 22440, "pitch": 60, "duration": 348, "velocity": 88}, {"time": 22440, "pitch": 62, "duration": 348, "velocity": 84}, {"time": 22440, "pitch": 69, "duration": 348, "velocity": 95}, {"time": 22798, "pitch": 62, "duration": 229, "velocity": 84}, {"time": 22798, "pitch": 65, "duration": 229, "velocity": 80}, {"time": 22798, "pitch": 70, "duration": 229, "velocity": 95}, {"time": 23037, "pitch": 60, "duration": 594, "velocity": 84}, {"time": 23037, "pitch": 65, "duration": 833, "velocity": 80}, {"time": 23037, "pitch": 69, "duration": 962, "velocity": 95}, {"time": 23641, "pitch": 60, "duration": 120, "velocity": 83}, {"time": 23761, "pitch": 62, "duration": 109, "velocity": 92}, {"time": 23880, "pitch": 65, "duration": 109, "velocity": 87}, {"time": 23999, "pitch": 43, "duration": 1918, "velocity": 65}, {"time": 23999, "pitch": 55, "duration": 710, "velocity": 74}, {"time": 23999, "pitch": 58, "duration": 710, "velocity": 78}, {"time": 23999, "pitch": 62, "duration": 710, "velocity": 84}, {"time": 23999, "pitch": 65, "duration": 710, "velocity": 88}, {"time": 24719, "pitch": 55, "duration": 1188, "velocity": 74}, {"time": 24719, "pitch": 58, "duration": 1188, "velocity": 78}, {"time": 24719, "pitch": 62, "duration": 710, "velocity": 84}, {"time": 24719, "pitch": 65, "duration": 710, "velocity": 88}, {"time": 25439, "pitch": 62, "duration": 478, "velocity": 88}, {"time": 25439, "pitch": 65, "duration": 478, "velocity": 84}, {"time": 25439, "pitch": 69, "duration": 478, "velocity": 95}, {"time": 25917, "pitch": 53, "duration": 1925, "velocity": 64}, {"time": 25917, "pitch": 57, "duration": 353, "velocity": 72}, {"time": 25917, "pitch": 60, "duration": 353, "velocity": 88}, {"time": 25917, "pitch": 62, "duration": 353, "velocity": 84}, {"time": 25917, "pitch": 67, "duration": 353, "velocity": 95}, {"time": 26281, "pitch": 60, "duration": 350, "velocity": 88}, {"time": 26281, "pitch": 62, "duration": 350, "velocity": 84}, {"time": 26281, "pitch": 67, "duration": 350, "velocity": 95}, {"time": 26640, "pitch": 60, "duration": 359, "velocity": 84}, {"time": 26640, "pitch": 65, "duration": 588, "velocity": 88}, {"time": 26640, "pitch": 69, "duration": 707, "velocity": 95}, {"time": 27478, "pitch": 60, "duration": 121, "velocity": 83}, {"time": 27599, "pitch": 62, "duration": 111, "velocity": 92}, {"time": 27720, "pitch": 65, "duration": 112, "velocity": 87}, {"time": 27842, "pitch": 43, "duration": 1917, "velocity": 65}, {"time": 27842, "pitch": 55, "duration": 706, "velocity": 74}, {"time": 27842, "pitch": 58, "duration": 706, "velocity": 78}, {"time": 27842, "pitch": 62, "duration": 706, "velocity": 84}, {"time": 27842, "pitch": 65, "duration": 706, "velocity": 88}, {"time": 28558, "pitch": 55, "duration": 1191, "velocity": 74}, {"time": 28558, "pitch": 58, "duration": 1191, "velocity": 78}, {"time": 28558, "pitch": 62, "duration": 714, "velocity": 84}, {"time": 28558, "pitch": 65, "duration": 714, "velocity": 88}, {"time": 29282, "pitch": 62, "duration": 477, "velocity": 88}, {"time": 29282, "pitch": 65, "duration": 477, "velocity": 84}, {"time": 29282, "pitch": 69, "duration": 477, "velocity": 95}, {"time": 29759, "pitch": 53, "duration": 1918, "velocity": 64}, {"time": 29759, "pitch": 60, "duration": 348, "velocity": 72}, {"time": 29759, "pitch": 65, "duration": 348, "velocity": 84}, {"time": 29759, "pitch": 69, "duration": 348, "velocity": 88}, {"time": 29759, "pitch": 72, "duration": 348, "velocity": 95}, {"time": 30117, "pitch": 62, "duration": 352, "velocity": 88}, {"time": 30117, "pitch": 65, "duration": 352, "velocity": 84}, {"time": 30117, "pitch": 70, "duration": 352, "velocity": 95}, {"time": 30479, "pitch": 62, "duration": 232, "velocity": 84}, {"time": 30479, "pitch": 65, "duration": 232, "velocity": 80}, {"time": 30479, "pitch": 69, "duration": 232, "velocity": 95}, {"time": 30722, "pitch": 57, "duration": 477, "velocity": 80}, {"time": 30722, "pitch": 60, "duration": 477, "velocity": 84}, {"time": 30722, "pitch": 67, "duration": 477, "velocity": 95}, {"time": 31199, "pitch": 57, "duration": 478, "velocity": 80}, {"time": 31199, "pitch": 60, "duration": 478, "velocity": 84}, {"time": 31199, "pitch": 65, "duration": 478, "velocity": 95}, {"time": 31677, "pitch": 46, "duration": 1925, "velocity": 65}, {"time": 31677, "pitch": 58, "duration": 713, "velocity": 74}, {"time": 31677, "pitch": 62, "duration": 713, "velocity": 78}, {"time": 31677, "pitch": 65, "duration": 713, "velocity": 84}, {"time": 31677, "pitch": 67, "duration": 713, "velocity": 88}, {"time": 32400, "pitch": 58, "duration": 1191, "velocity": 74}, {"time": 32400, "pitch": 62, "duration": 1191, "velocity": 78}, {"time": 32400, "pitch": 65, "duration": 707, "velocity": 84}, {"time": 32400, "pitch": 67, "duration": 707, "velocity": 88}, {"time": 33117, "pitch": 65, "duration": 485, "velocity": 84}, {"time": 33117, "pitch": 67, "duration": 485, "velocity": 88}, {"time": 33117, "pitch": 72, "duration": 485, "velocity": 95}, {"time": 33602, "pitch": 45, "duration": 1917, "velocity": 64}, {"time": 33602, "pitch": 57, "duration": 348, "velocity": 72}, {"time": 33602, "pitch": 64, "duration": 348, "velocity": 88}, {"time": 33602, "pitch": 67, "duration": 348, "velocity": 84}, {"time": 33602, "pitch": 72, "duration": 348, "velocity": 95}, {"time": 33960, "pitch": 60, "duration": 348, "velocity": 88}, {"time": 33960, "pitch": 64, "duration": 348, "velocity": 84}, {"time": 33960, "pitch": 67, "duration": 348, "velocity": 95}, {"time": 34318, "pitch": 57, "duration": 713, "velocity": 88}, {"time": 34318, "pitch": 60, "duration": 713, "velocity": 84}, {"time": 34318, "pitch": 65, "duration": 713, "velocity": 95}, {"time": 35041, "pitch": 60, "duration": 120, "velocity": 97}, {"time": 35161, "pitch": 62, "duration": 119, "velocity": 95}, {"time": 35280, "pitch": 65, "duration": 110, "velocity": 92}, {"time": 35400, "pitch": 67, "duration": 109, "velocity": 87}, {"time": 35519, "pitch": 43, "duration": 1918, "velocity": 56}, {"time": 35519, "pitch": 55, "duration": 710, "velocity": 64}, {"time": 35519, "pitch": 62, "duration": 710, "velocity": 90}, {"time": 35519, "pitch": 65, "duration": 710, "velocity": 90}, {"time": 35519, "pitch": 69, "duration": 710, "velocity": 95}, {"time": 36239, "pitch": 55, "duration": 1178, "velocity": 83}, {"time": 36239, "pitch": 62, "duration": 1178, "velocity": 94}, {"time": 36239, "pitch": 65, "duration": 1178, "velocity": 95}, {"time": 36239, "pitch": 70, "duration": 1178, "velocity": 97}, {"time": 37437, "pitch": 53, "duration": 952, "velocity": 67}, {"time": 37437, "pitch": 57, "duration": 952, "velocity": 77}, {"time": 37437, "pitch": 60, "duration": 952, "velocity": 81}, {"time": 37437, "pitch": 65, "duration": 952, "velocity": 86}, {"time": 38399, "pitch": 50, "duration": 468, "velocity": 65}, {"time": 38399, "pitch": 60, "duration": 468, "velocity": 79}, {"time": 38399, "pitch": 63, "duration": 428, "velocity": 89}, {"time": 38399, "pitch": 66, "duration": 448, "velocity": 86}, {"time": 38399, "pitch": 69, "duration": 468, "velocity": 89}, {"time": 38837, "pitch": 63, "duration": 514, "velocity": 75}, {"time": 38867, "pitch": 66, "duration": 484, "velocity": 83}, {"time": 38877, "pitch": 69, "duration": 474, "velocity": 89}, {"time": 38917, "pitch": 74, "duration": 434, "velocity": 81}, {"time": 39361, "pitch": 46, "duration": 1918, "velocity": 65}, {"time": 39361, "pitch": 58, "duration": 707, "velocity": 74}, {"time": 39361, "pitch": 62, "duration": 707, "velocity": 78}, {"time": 39361, "pitch": 65, "duration": 707, "velocity": 84}, {"time": 39361, "pitch": 67, "duration": 707, "velocity": 88}, {"time": 40078, "pitch": 58, "duration": 1191, "velocity": 74}, {"time": 40078, "pitch": 62, "duration": 1191, "velocity": 78}, {"time": 40078, "pitch": 65, "duration": 713, "velocity": 84}, {"time": 40078, "pitch": 67, "duration": 713, "velocity": 88}, {"time": 40801, "pitch": 65, "duration": 478, "velocity": 84}, {"time": 40801, "pitch": 70, "duration": 478, "velocity": 88}, {"time": 40801, "pitch": 72, "duration": 478, "velocity": 95}, {"time": 41279, "pitch": 45, "duration": 1917, "velocity": 64}, {"time": 41279, "pitch": 57, "duration": 348, "velocity": 72}, {"time": 41279, "pitch": 64, "duration": 348, "velocity": 88}, {"time": 41279, "pitch": 67, "duration": 348, "velocity": 84}, {"time": 41279, "pitch": 72, "duration": 348, "velocity": 95}, {"time": 41637, "pitch": 60, "duration": 352, "velocity": 88}, {"time": 41637, "pitch": 64, "duration": 352, "velocity": 84}, {"time": 41637, "pitch": 67, "duration": 352, "velocity": 95}, {"time": 41999, "pitch": 57, "duration": 710, "velocity": 88}, {"time": 41999, "pitch": 60, "duration": 710, "velocity": 84}, {"time": 41999, "pitch": 65, "duration": 710, "velocity": 95}, {"time": 42719, "pitch": 60, "duration": 119, "velocity": 97}, {"time": 42838, "pitch": 62, "duration": 120, "velocity": 95}, {"time": 42958, "pitch": 65, "duration": 109, "velocity": 92}, {"time": 43077, "pitch": 67, "duration": 110, "velocity": 87}, {"time": 43196, "pitch": 43, "duration": 963, "velocity": 65}, {"time": 43196, "pitch": 55, "duration": 714, "velocity": 74}, {"time": 43196, "pitch": 58, "duration": 714, "velocity": 78}, {"time": 43196, "pitch": 61, "duration": 714, "velocity": 84}, {"time": 43196, "pitch": 65, "duration": 714, "velocity": 88}, {"time": 43920, "pitch": 55, "duration": 229, "velocity": 74}, {"time": 43920, "pitch": 58, "duration": 478, "velocity": 78}, {"time": 43920, "pitch": 65, "duration": 478, "velocity": 88}, {"time": 43920, "pitch": 69, "duration": 478, "velocity": 84}, {"time": 44159, "pitch": 48, "duration": 952, "velocity": 65}, {"time": 44398, "pitch": 58, "duration": 713, "velocity": 88}, {"time": 44398, "pitch": 62, "duration": 713, "velocity": 84}, {"time": 44398, "pitch": 65, "duration": 713, "velocity": 95}, {"time": 45121, "pitch": 53, "duration": 710, "velocity": 67}, {"time": 45121, "pitch": 57, "duration": 710, "velocity": 77}, {"time": 45121, "pitch": 60, "duration": 710, "velocity": 81}, {"time": 45121, "pitch": 64, "duration": 710, "velocity": 81}, {"time": 45121, "pitch": 67, "duration": 710, "velocity": 86}, {"time": 45841, "pitch": 53, "duration": 1188, "velocity": 67}, {"time": 45841, "pitch": 57, "duration": 1188, "velocity": 77}, {"time": 45841, "pitch": 60, "duration": 1188, "velocity": 81}, {"time": 45841, "pitch": 65, "duration": 1188, "velocity": 86}, {"time": 47039, "pitch": 46, "duration": 1925, "velocity": 65}, {"time": 47039, "pitch": 58, "duration": 713, "velocity": 74}, {"time": 47039, "pitch": 62, "duration": 713, "velocity": 78}, {"time": 47039, "pitch": 65, "duration": 713, "velocity": 84}, {"time": 47039, "pitch": 69, "duration": 713, "velocity": 88}, {"time": 47762, "pitch": 58, "duration": 1191, "velocity": 74}, {"time": 47762, "pitch": 62, "duration": 1191, "velocity": 78}, {"time": 47762, "pitch": 65, "duration": 707, "velocity": 84}, {"time": 47762, "pitch": 69, "duration": 707, "velocity": 88}, {"time": 48479, "pitch": 65, "duration": 485, "velocity": 84}, {"time": 48479, "pitch": 69, "duration": 485, "velocity": 88}, {"time": 48479, "pitch": 72, "duration": 485, "velocity": 95}, {"time": 48964, "pitch": 45, "duration": 1917, "velocity": 64}, {"time": 48964, "pitch": 57, "duration": 348, "velocity": 72}, {"time": 48964, "pitch": 64, "duration": 348, "velocity": 88}, {"time": 48964, "pitch": 67, "duration": 348, "velocity": 84}, {"time": 48964, "pitch": 72, "duration": 348, "velocity": 95}, {"time": 49322, "pitch": 60, "duration": 348, "velocity": 88}, {"time": 49322, "pitch": 64, "duration": 348, "velocity": 84}, {"time": 49322, "pitch": 67, "duration": 348, "velocity": 95}, {"time": 49680, "pitch": 57, "duration": 713, "velocity": 88}, {"time": 49680, "pitch": 60, "duration": 713, "velocity": 84}, {"time": 49680, "pitch": 65, "duration": 713, "velocity": 95}, {"time": 50403, "pitch": 60, "duration": 120, "velocity": 97}, {"time": 50523, "pitch": 62, "duration": 119, "velocity": 95}, {"time": 50642, "pitch": 65, "duration": 110, "velocity": 92}, {"time": 50762, "pitch": 67, "duration": 109, "velocity": 87}, {"time": 50881, "pitch": 43, "duration": 1918, "velocity": 56}, {"time": 50881, "pitch": 55, "duration": 710, "velocity": 64}, {"time": 50881, "pitch": 62, "duration": 710, "velocity": 90}, {"time": 50881, "pitch": 65, "duration": 710, "velocity": 90}, {"time": 50881, "pitch": 69, "duration": 710, "velocity": 95}, {"time": 51601, "pitch": 55, "duration": 1178, "velocity": 83}, {"time": 51601, "pitch": 62, "duration": 1178, "velocity": 94}, {"time": 51601, "pitch": 65, "duration": 1178, "velocity": 95}, {"time": 51601, "pitch": 70, "duration": 1178, "velocity": 97}, {"time": 52799, "pitch": 53, "duration": 1440, "velocity": 64}, {"time": 52799, "pitch": 57, "duration": 353, "velocity": 72}, {"time": 52799, "pitch": 62, "duration": 353, "velocity": 88}, {"time": 52799, "pitch": 67, "duration": 353, "velocity": 84}, {"time": 52799, "pitch": 72, "duration": 353, "velocity": 88}, {"time": 53162, "pitch": 60, "duration": 350, "velocity": 88}, {"time": 53162, "pitch": 64, "duration": 350, "velocity": 84}, {"time": 53162, "pitch": 67, "duration": 350, "velocity": 95}, {"time": 53522, "pitch": 57, "duration": 707, "velocity": 88}, {"time": 53522, "pitch": 60, "duration": 707, "velocity": 84}, {"time": 53522, "pitch": 65, "duration": 707, "velocity": 95}, {"time": 54239, "pitch": 48, "duration": 484, "velocity": 88}, {"time": 54239, "pitch": 58, "duration": 484, "velocity": 84}, {"time": 54239, "pitch": 62, "duration": 484, "velocity": 88}, {"time": 54239, "pitch": 64, "duration": 484, "velocity": 72}, {"time": 54239, "pitch": 69, "duration": 484, "velocity": 64}, {"time": 54723, "pitch": 46, "duration": 1918, "velocity": 65}, {"time": 54723, "pitch": 58, "duration": 707, "velocity": 74}, {"time": 54723, "pitch": 62, "duration": 707, "velocity": 78}, {"time": 54723, "pitch": 65, "duration": 707, "velocity": 84}, {"time": 54723, "pitch": 69, "duration": 707, "velocity": 88}, {"time": 55440, "pitch": 58, "duration": 1191, "velocity": 74}, {"time": 55440, "pitch": 62, "duration": 1191, "velocity": 78}, {"time": 55440, "pitch": 65, "duration": 713, "velocity": 84}, {"time": 55440, "pitch": 69, "duration": 713, "velocity": 88}, {"time": 56163, "pitch": 65, "duration": 478, "velocity": 84}, {"time": 56163, "pitch": 69, "duration": 478, "velocity": 88}, {"time": 56163, "pitch": 72, "duration": 478, "velocity": 95}, {"time": 56641, "pitch": 45, "duration": 1917, "velocity": 64}, {"time": 56641, "pitch": 57, "duration": 348, "velocity": 72}, {"time": 56641, "pitch": 64, "duration": 348, "velocity": 88}, {"time": 56641, "pitch": 67, "duration": 348, "velocity": 84}, {"time": 56641, "pitch": 72, "duration": 348, "velocity": 95}, {"time": 56999, "pitch": 60, "duration": 352, "velocity": 88}, {"time": 56999, "pitch": 64, "duration": 352, "velocity": 84}, {"time": 56999, "pitch": 67, "duration": 352, "velocity": 95}, {"time": 57361, "pitch": 57, "duration": 710, "velocity": 88}, {"time": 57361, "pitch": 60, "duration": 710, "velocity": 84}, {"time": 57361, "pitch": 65, "duration": 710, "velocity": 95}, {"time": 58081, "pitch": 60, "duration": 119, "velocity": 97}, {"time": 58200, "pitch": 62, "duration": 120, "velocity": 95}, {"time": 58320, "pitch": 65, "duration": 109, "velocity": 92}, {"time": 58439, "pitch": 67, "duration": 110, "velocity": 87}, {"time": 58558, "pitch": 43, "duration": 1925, "velocity": 56}, {"time": 58558, "pitch": 55, "duration": 714, "velocity": 64}, {"time": 58558, "pitch": 62, "duration": 714, "velocity": 90}, {"time": 58558, "pitch": 65, "duration": 714, "velocity": 90}, {"time": 58558, "pitch": 69, "duration": 714, "velocity": 95}, {"time": 59282, "pitch": 55, "duration": 1181, "velocity": 83}, {"time": 59282, "pitch": 62, "duration": 1181, "velocity": 94}, {"time": 59282, "pitch": 65, "duration": 1181, "velocity": 95}, {"time": 59282, "pitch": 70, "duration": 1181, "velocity": 97}, {"time": 60483, "pitch": 53, "duration": 1440, "velocity": 64}, {"time": 60483, "pitch": 57, "duration": 348, "velocity": 72}, {"time": 60483, "pitch": 62, "duration": 348, "velocity": 88}, {"time": 60483, "pitch": 67, "duration": 348, "velocity": 84}, {"time": 60483, "pitch": 72, "duration": 348, "velocity": 88}, {"time": 60841, "pitch": 60, "duration": 349, "velocity": 88}, {"time": 60841, "pitch": 64, "duration": 349, "velocity": 84}, {"time": 60841, "pitch": 67, "duration": 349, "velocity": 95}, {"time": 61200, "pitch": 57, "duration": 713, "velocity": 88}, {"time": 61200, "pitch": 60, "duration": 713, "velocity": 84}, {"time": 61200, "pitch": 65, "duration": 713, "velocity": 95}, {"time": 61923, "pitch": 44, "duration": 478, "velocity": 64}, {"time": 61923, "pitch": 56, "duration": 478, "velocity": 87}, {"time": 61923, "pitch": 60, "duration": 478, "velocity": 88}, {"time": 61923, "pitch": 62, "duration": 478, "velocity": 92}, {"time": 61923, "pitch": 66, "duration": 478, "velocity": 98}, {"time": 62401, "pitch": 43, "duration": 1917, "velocity": 65}, {"time": 62401, "pitch": 55, "duration": 710, "velocity": 74}, {"time": 62401, "pitch": 58, "duration": 710, "velocity": 78}, {"time": 62401, "pitch": 62, "duration": 710, "velocity": 84}, {"time": 62401, "pitch": 65, "duration": 710, "velocity": 88}, {"time": 63121, "pitch": 55, "duration": 1187, "velocity": 74}, {"time": 63121, "pitch": 58, "duration": 710, "velocity": 78}, {"time": 63121, "pitch": 62, "duration": 710, "velocity": 84}, {"time": 63121, "pitch": 65, "duration": 710, "velocity": 88}, {"time": 63841, "pitch": 58, "duration": 477, "velocity": 88}, {"time": 63841, "pitch": 62, "duration": 477, "velocity": 84}, {"time": 63841, "pitch": 65, "duration": 477, "velocity": 95}, {"time": 64318, "pitch": 53, "duration": 1925, "velocity": 64}, {"time": 64318, "pitch": 57, "duration": 354, "velocity": 72}, {"time": 64318, "pitch": 60, "duration": 354, "velocity": 88}, {"time": 64318, "pitch": 62, "duration": 354, "velocity": 84}, {"time": 64318, "pitch": 67, "duration": 354, "velocity": 95}, {"time": 64682, "pitch": 60, "duration": 350, "velocity": 88}, {"time": 64682, "pitch": 62, "duration": 350, "velocity": 84}, {"time": 64682, "pitch": 67, "duration": 350, "velocity": 95}, {"time": 65042, "pitch": 60, "duration": 358, "velocity": 84}, {"time": 65042, "pitch": 65, "duration": 587, "velocity": 88}, {"time": 65042, "pitch": 69, "duration": 706, "velocity": 95}, {"time": 65880, "pitch": 60, "duration": 121, "velocity": 83}, {"time": 66001, "pitch": 62, "duration": 111, "velocity": 92}, {"time": 66122, "pitch": 65, "duration": 111, "velocity": 87}, {"time": 66243, "pitch": 43, "duration": 1918, "velocity": 65}, {"time": 66243, "pitch": 55, "duration": 707, "velocity": 74}, {"time": 66243, "pitch": 58, "duration": 707, "velocity": 78}, {"time": 66243, "pitch": 62, "duration": 707, "velocity": 84}, {"time": 66243, "pitch": 65, "duration": 707, "velocity": 88}, {"time": 66959, "pitch": 55, "duration": 1192, "velocity": 74}, {"time": 66959, "pitch": 58, "duration": 1192, "velocity": 78}, {"time": 66959, "pitch": 62, "duration": 714, "velocity": 84}, {"time": 66959, "pitch": 65, "duration": 714, "velocity": 88}, {"time": 67683, "pitch": 62, "duration": 478, "velocity": 88}, {"time": 67683, "pitch": 65, "duration": 478, "velocity": 84}, {"time": 67683, "pitch": 69, "duration": 478, "velocity": 95}, {"time": 68161, "pitch": 53, "duration": 1917, "velocity": 64}, {"time": 68161, "pitch": 57, "duration": 348, "velocity": 72}, {"time": 68161, "pitch": 60, "duration": 348, "velocity": 88}, {"time": 68161, "pitch": 62, "duration": 348, "velocity": 84}, {"time": 68161, "pitch": 67, "duration": 348, "velocity": 95}, {"time": 68519, "pitch": 60, "duration": 352, "velocity": 88}, {"time": 68519, "pitch": 62, "duration": 352, "velocity": 84}, {"time": 68519, "pitch": 69, "duration": 352, "velocity": 95}, {"time": 68881, "pitch": 62, "duration": 232, "velocity": 84}, {"time": 68881, "pitch": 65, "duration": 232, "velocity": 80}, {"time": 68881, "pitch": 70, "duration": 232, "velocity": 95}, {"time": 69123, "pitch": 60, "duration": 587, "velocity": 84}, {"time": 69123, "pitch": 65, "duration": 826, "velocity": 80}, {"time": 69123, "pitch": 69, "duration": 955, "velocity": 95}, {"time": 69720, "pitch": 60, "duration": 119, "velocity": 83}, {"time": 69839, "pitch": 62, "duration": 110, "velocity": 92}, {"time": 69959, "pitch": 65, "duration": 109, "velocity": 87}, {"time": 70078, "pitch": 43, "duration": 1925, "velocity": 65}, {"time": 70078, "pitch": 55, "duration": 714, "velocity": 74}, {"time": 70078, "pitch": 58, "duration": 714, "velocity": 78}, {"time": 70078, "pitch": 62, "duration": 714, "velocity": 84}, {"time": 70078, "pitch": 65, "duration": 714, "velocity": 88}, {"time": 70802, "pitch": 55, "duration": 1191, "velocity": 74}, {"time": 70802, "pitch": 58, "duration": 1191, "velocity": 78}, {"time": 70802, "pitch": 62, "duration": 706, "velocity": 84}, {"time": 70802, "pitch": 65, "duration": 706, "velocity": 88}, {"time": 71518, "pitch": 62, "duration": 485, "velocity": 88}, {"time": 71518, "pitch": 65, "duration": 485, "velocity": 84}, {"time": 71518, "pitch": 69, "duration": 485, "velocity": 95}, {"time": 72003, "pitch": 53, "duration": 1918, "velocity": 64}, {"time": 72003, "pitch": 57, "duration": 348, "velocity": 72}, {"time": 72003, "pitch": 60, "duration": 348, "velocity": 88}, {"time": 72003, "pitch": 62, "duration": 348, "velocity": 84}, {"time": 72003, "pitch": 67, "duration": 348, "velocity": 95}, {"time": 72361, "pitch": 60, "duration": 348, "velocity": 88}, {"time": 72361, "pitch": 62, "duration": 348, "velocity": 84}, {"time": 72361, "pitch": 67, "duration": 348, "velocity": 95}, {"time": 72719, "pitch": 60, "duration": 360, "velocity": 84}, {"time": 72719, "pitch": 65, "duration": 593, "velocity": 88}, {"time": 72719, "pitch": 69, "duration": 714, "velocity": 95}, {"time": 73562, "pitch": 60, "duration": 120, "velocity": 83}, {"time": 73682, "pitch": 62, "duration": 109, "velocity": 92}, {"time": 73801, "pitch": 65, "duration": 110, "velocity": 87}, {"time": 73921, "pitch": 43, "duration": 1917, "velocity": 65}, {"time": 73921, "pitch": 55, "duration": 709, "velocity": 74}, {"time": 73921, "pitch": 58, "duration": 709, "velocity": 78}, {"time": 73921, "pitch": 62, "duration": 709, "velocity": 84}, {"time": 73921, "pitch": 65, "duration": 709, "velocity": 88}, {"time": 74640, "pitch": 55, "duration": 1188, "velocity": 74}, {"time": 74640, "pitch": 58, "duration": 1188, "velocity": 78}, {"time": 74640, "pitch": 62, "duration": 711, "velocity": 84}, {"time": 74640, "pitch": 65, "duration": 711, "velocity": 88}, {"time": 75360, "pitch": 62, "duration": 478, "velocity": 88}, {"time": 75360, "pitch": 65, "duration": 478, "velocity": 84}, {"time": 75360, "pitch": 69, "duration": 478, "velocity": 95}, {"time": 75838, "pitch": 53, "duration": 1925, "velocity": 64}, {"time": 75838, "pitch": 60, "duration": 354, "velocity": 72}, {"time": 75838, "pitch": 65, "duration": 354, "velocity": 84}, {"time": 75838, "pitch": 69, "duration": 354, "velocity": 88}, {"time": 75838, "pitch": 72, "duration": 354, "velocity": 95}, {"time": 76202, "pitch": 62, "duration": 350, "velocity": 88}, {"time": 76202, "pitch": 65, "duration": 350, "velocity": 84}, {"time": 76202, "pitch": 70, "duration": 350, "velocity": 95}, {"time": 76562, "pitch": 62, "duration": 228, "velocity": 84}, {"time": 76562, "pitch": 65, "duration": 228, "velocity": 80}, {"time": 76562, "pitch": 69, "duration": 228, "velocity": 95}, {"time": 76800, "pitch": 57, "duration": 478, "velocity": 80}, {"time": 76800, "pitch": 60, "duration": 478, "velocity": 84}, {"time": 76800, "pitch": 67, "duration": 478, "velocity": 95}, {"time": 77278, "pitch": 57, "duration": 485, "velocity": 80}, {"time": 77278, "pitch": 60, "duration": 485, "velocity": 84}, {"time": 77278, "pitch": 65, "duration": 485, "velocity": 95}, {"time": 77763, "pitch": 46, "duration": 1917, "velocity": 65}, {"time": 77763, "pitch": 58, "duration": 706, "velocity": 74}, {"time": 77763, "pitch": 62, "duration": 706, "velocity": 78}, {"time": 77763, "pitch": 65, "duration": 706, "velocity": 84}, {"time": 77763, "pitch": 67, "duration": 706, "velocity": 88}, {"time": 78479, "pitch": 58, "duration": 1191, "velocity": 74}, {"time": 78479, "pitch": 62, "duration": 1191, "velocity": 78}, {"time": 78479, "pitch": 65, "duration": 714, "velocity": 84}, {"time": 78479, "pitch": 67, "duration": 714, "velocity": 88}, {"time": 79203, "pitch": 65, "duration": 477, "velocity": 84}, {"time": 79203, "pitch": 67, "duration": 477, "velocity": 88}, {"time": 79203, "pitch": 72, "duration": 477, "velocity": 95}, {"time": 79680, "pitch": 45, "duration": 1918, "velocity": 64}, {"time": 79680, "pitch": 57, "duration": 349, "velocity": 72}, {"time": 79680, "pitch": 64, "duration": 349, "velocity": 88}, {"time": 79680, "pitch": 67, "duration": 349, "velocity": 84}, {"time": 79680, "pitch": 72, "duration": 349, "velocity": 95}, {"time": 80039, "pitch": 60, "duration": 351, "velocity": 88}, {"time": 80039, "pitch": 64, "duration": 351, "velocity": 84}, {"time": 80039, "pitch": 67, "duration": 351, "velocity": 95}, {"time": 80400, "pitch": 57, "duration": 710, "velocity": 88}, {"time": 80400, "pitch": 60, "duration": 710, "velocity": 84}, {"time": 80400, "pitch": 65, "duration": 710, "velocity": 95}, {"time": 81120, "pitch": 60, "duration": 120, "velocity": 97}, {"time": 81240, "pitch": 62, "duration": 119, "velocity": 95}, {"time": 81359, "pitch": 65, "duration": 110, "velocity": 92}, {"time": 81479, "pitch": 67, "duration": 109, "velocity": 87}, {"time": 81598, "pitch": 43, "duration": 1925, "velocity": 56}, {"time": 81598, "pitch": 55, "duration": 714, "velocity": 64}, {"time": 81598, "pitch": 62, "duration": 714, "velocity": 90}, {"time": 81598, "pitch": 65, "duration": 714, "velocity": 90}, {"time": 81598, "pitch": 69, "duration": 714, "velocity": 95}, {"time": 82321, "pitch": 55, "duration": 1181, "velocity": 83}, {"time": 82321, "pitch": 62, "duration": 1181, "velocity": 94}, {"time": 82321, "pitch": 65, "duration": 1181, "velocity": 95}, {"time": 82321, "pitch": 70, "duration": 1181, "velocity": 97}, {"time": 83523, "pitch": 53, "duration": 945, "velocity": 67}, {"time": 83523, "pitch": 57, "duration": 945, "velocity": 77}, {"time": 83523, "pitch": 60, "duration": 945, "velocity": 81}, {"time": 83523, "pitch": 65, "duration": 945, "velocity": 86}, {"time": 84478, "pitch": 50, "duration": 475, "velocity": 65}, {"time": 84478, "pitch": 60, "duration": 475, "velocity": 79}, {"time": 84478, "pitch": 63, "duration": 434, "velocity": 89}, {"time": 84478, "pitch": 66, "duration": 454, "velocity": 86}, {"time": 84478, "pitch": 69, "duration": 475, "velocity": 89}, {"time": 84922, "pitch": 63, "duration": 508, "velocity": 75}, {"time": 84953, "pitch": 66, "duration": 477, "velocity": 83}, {"time": 84963, "pitch": 69, "duration": 467, "velocity": 89}, {"time": 85002, "pitch": 74, "duration": 428, "velocity": 81}, {"time": 85440, "pitch": 46, "duration": 1918, "velocity": 65}, {"time": 85440, "pitch": 58, "duration": 710, "velocity": 74}, {"time": 85440, "pitch": 62, "duration": 710, "velocity": 78}, {"time": 85440, "pitch": 65, "duration": 710, "velocity": 84}, {"time": 85440, "pitch": 67, "duration": 710, "velocity": 88}, {"time": 86160, "pitch": 58, "duration": 1188, "velocity": 74}, {"time": 86160, "pitch": 62, "duration": 1188, "velocity": 78}, {"time": 86160, "pitch": 65, "duration": 710, "velocity": 84}, {"time": 86160, "pitch": 67, "duration": 710, "velocity": 88}, {"time": 86880, "pitch": 65, "duration": 478, "velocity": 84}, {"time": 86880, "pitch": 70, "duration": 478, "velocity": 88}, {"time": 86880, "pitch": 72, "duration": 478, "velocity": 95}, {"time": 87358, "pitch": 45, "duration": 1925, "velocity": 64}, {"time": 87358, "pitch": 57, "duration": 353, "velocity": 72}, {"time": 87358, "pitch": 64, "duration": 353, "velocity": 88}, {"time": 87358, "pitch": 67, "duration": 353, "velocity": 84}, {"time": 87358, "pitch": 72, "duration": 353, "velocity": 95}, {"time": 87721, "pitch": 60, "duration": 350, "velocity": 88}, {"time": 87721, "pitch": 64, "duration": 350, "velocity": 84}, {"time": 87721, "pitch": 67, "duration": 350, "velocity": 95}, {"time": 88081, "pitch": 57, "duration": 707, "velocity": 88}, {"time": 88081, "pitch": 60, "duration": 707, "velocity": 84}, {"time": 88081, "pitch": 65, "duration": 707, "velocity": 95}, {"time": 88798, "pitch": 60, "duration": 121, "velocity": 97}, {"time": 88919, "pitch": 62, "duration": 121, "velocity": 95}, {"time": 89040, "pitch": 65, "duration": 111, "velocity": 92}, {"time": 89161, "pitch": 67, "duration": 111, "velocity": 87}, {"time": 89283, "pitch": 43, "duration": 955, "velocity": 65}, {"time": 89283, "pitch": 55, "duration": 706, "velocity": 74}, {"time": 89283, "pitch": 58, "duration": 706, "velocity": 78}, {"time": 89283, "pitch": 61, "duration": 706, "velocity": 84}, {"time": 89283, "pitch": 65, "duration": 706, "velocity": 88}, {"time": 89999, "pitch": 55, "duration": 229, "velocity": 74}, {"time": 89999, "pitch": 58, "duration": 481, "velocity": 78}, {"time": 89999, "pitch": 65, "duration": 481, "velocity": 88}, {"time": 89999, "pitch": 69, "duration": 481, "velocity": 84}, {"time": 90238, "pitch": 48, "duration": 952, "velocity": 65}, {"time": 90480, "pitch": 58, "duration": 710, "velocity": 88}, {"time": 90480, "pitch": 62, "duration": 710, "velocity": 84}, {"time": 90480, "pitch": 65, "duration": 710, "velocity": 95}, {"time": 91200, "pitch": 53, "duration": 710, "velocity": 67}, {"time": 91200, "pitch": 57, "duration": 710, "velocity": 77}, {"time": 91200, "pitch": 60, "duration": 710, "velocity": 81}, {"time": 91200, "pitch": 64, "duration": 710, "velocity": 81}, {"time": 91200, "pitch": 67, "duration": 710, "velocity": 86}, {"time": 91920, "pitch": 53, "duration": 1188, "velocity": 67}, {"time": 91920, "pitch": 57, "duration": 1188, "velocity": 77}, {"time": 91920, "pitch": 60, "duration": 1188, "velocity": 81}, {"time": 91920, "pitch": 65, "duration": 1188, "velocity": 86}, {"time": 93118, "pitch": 46, "duration": 1924, "velocity": 65}, {"time": 93118, "pitch": 58, "duration": 713, "velocity": 74}, {"time": 93118, "pitch": 62, "duration": 713, "velocity": 78}, {"time": 93118, "pitch": 65, "duration": 713, "velocity": 84}, {"time": 93118, "pitch": 69, "duration": 713, "velocity": 88}, {"time": 93841, "pitch": 58, "duration": 1191, "velocity": 74}, {"time": 93841, "pitch": 62, "duration": 1191, "velocity": 78}, {"time": 93841, "pitch": 65, "duration": 707, "velocity": 84}, {"time": 93841, "pitch": 69, "duration": 707, "velocity": 88}, {"time": 94558, "pitch": 65, "duration": 484, "velocity": 84}, {"time": 94558, "pitch": 69, "duration": 484, "velocity": 88}, {"time": 94558, "pitch": 72, "duration": 484, "velocity": 95}, {"time": 95042, "pitch": 45, "duration": 1918, "velocity": 64}, {"time": 95042, "pitch": 57, "duration": 349, "velocity": 72}, {"time": 95042, "pitch": 64, "duration": 349, "velocity": 88}, {"time": 95042, "pitch": 67, "duration": 349, "velocity": 84}, {"time": 95042, "pitch": 72, "duration": 349, "velocity": 95}, {"time": 95401, "pitch": 60, "duration": 348, "velocity": 88}, {"time": 95401, "pitch": 64, "duration": 348, "velocity": 84}, {"time": 95401, "pitch": 67, "duration": 348, "velocity": 95}, {"time": 95759, "pitch": 57, "duration": 713, "velocity": 88}, {"time": 95759, "pitch": 60, "duration": 713, "velocity": 84}, {"time": 95759, "pitch": 65, "duration": 713, "velocity": 95}, {"time": 96482, "pitch": 60, "duration": 120, "velocity": 97}, {"time": 96602, "pitch": 62, "duration": 119, "velocity": 95}, {"time": 96721, "pitch": 65, "duration": 110, "velocity": 92}, {"time": 96841, "pitch": 67, "duration": 109, "velocity": 87}, {"time": 96960, "pitch": 43, "duration": 1917, "velocity": 56}, {"time": 96960, "pitch": 55, "duration": 710, "velocity": 64}, {"time": 96960, "pitch": 62, "duration": 710, "velocity": 90}, {"time": 96960, "pitch": 65, "duration": 710, "velocity": 90}, {"time": 96960, "pitch": 69, "duration": 710, "velocity": 95}, {"time": 97680, "pitch": 55, "duration": 1178, "velocity": 83}, {"time": 97680, "pitch": 62, "duration": 1178, "velocity": 94}, {"time": 97680, "pitch": 65, "duration": 1178, "velocity": 95}, {"time": 97680, "pitch": 70, "duration": 1178, "velocity": 97}, {"time": 98877, "pitch": 53, "duration": 1440, "velocity": 64}, {"time": 98877, "pitch": 57, "duration": 354, "velocity": 72}, {"time": 98877, "pitch": 62, "duration": 354, "velocity": 88}, {"time": 98877, "pitch": 67, "duration": 354, "velocity": 84}, {"time": 98877, "pitch": 72, "duration": 354, "velocity": 88}, {"time": 99241, "pitch": 60, "duration": 350, "velocity": 88}, {"time": 99241, "pitch": 64, "duration": 350, "velocity": 84}, {"time": 99241, "pitch": 67, "duration": 350, "velocity": 95}, {"time": 99601, "pitch": 57, "duration": 707, "velocity": 88}, {"time": 99601, "pitch": 60, "duration": 707, "velocity": 84}, {"time": 99601, "pitch": 65, "duration": 707, "velocity": 95}, {"time": 100317, "pitch": 48, "duration": 485, "velocity": 88}, {"time": 100317, "pitch": 58, "duration": 485, "velocity": 84}, {"time": 100317, "pitch": 62, "duration": 485, "velocity": 88}, {"time": 100317, "pitch": 64, "duration": 485, "velocity": 72}, {"time": 100317, "pitch": 69, "duration": 485, "velocity": 64}, {"time": 100802, "pitch": 46, "duration": 1918, "velocity": 65}, {"time": 100802, "pitch": 58, "duration": 707, "velocity": 74}, {"time": 100802, "pitch": 62, "duration": 707, "velocity": 78}, {"time": 100802, "pitch": 65, "duration": 707, "velocity": 84}, {"time": 100802, "pitch": 69, "duration": 707, "velocity": 88}, {"time": 101519, "pitch": 58, "duration": 1191, "velocity": 74}, {"time": 101519, "pitch": 62, "duration": 1191, "velocity": 78}, {"time": 101519, "pitch": 65, "duration": 713, "velocity": 84}, {"time": 101519, "pitch": 69, "duration": 713, "velocity": 88}, {"time": 102242, "pitch": 65, "duration": 478, "velocity": 84}, {"time": 102242, "pitch": 69, "duration": 478, "velocity": 88}, {"time": 102242, "pitch": 72, "duration": 478, "velocity": 95}, {"time": 102720, "pitch": 45, "duration": 1917, "velocity": 64}, {"time": 102720, "pitch": 57, "duration": 348, "velocity": 72}, {"time": 102720, "pitch": 64, "duration": 348, "velocity": 88}, {"time": 102720, "pitch": 67, "duration": 348, "velocity": 84}, {"time": 102720, "pitch": 72, "duration": 348, "velocity": 95}, {"time": 103078, "pitch": 60, "duration": 352, "velocity": 88}, {"time": 103078, "pitch": 64, "duration": 352, "velocity": 84}, {"time": 103078, "pitch": 67, "duration": 352, "velocity": 95}, {"time": 103440, "pitch": 57, "duration": 710, "velocity": 88}, {"time": 103440, "pitch": 60, "duration": 710, "velocity": 84}, {"time": 103440, "pitch": 65, "duration": 710, "velocity": 95}, {"time": 104160, "pitch": 60, "duration": 119, "velocity": 97}, {"time": 104279, "pitch": 62, "duration": 120, "velocity": 95}, {"time": 104399, "pitch": 65, "duration": 109, "velocity": 92}, {"time": 104518, "pitch": 67, "duration": 109, "velocity": 87}, {"time": 104637, "pitch": 55, "duration": 714, "velocity": 64}, {"time": 104637, "pitch": 62, "duration": 714, "velocity": 90}, {"time": 104637, "pitch": 65, "duration": 714, "velocity": 90}, {"time": 104637, "pitch": 69, "duration": 714, "velocity": 95}, {"time": 105361, "pitch": 55, "duration": 1060, "velocity": 83}, {"time": 105361, "pitch": 62, "duration": 1060, "velocity": 94}, {"time": 105361, "pitch": 65, "duration": 1060, "velocity": 95}, {"time": 105361, "pitch": 70, "duration": 1060, "velocity": 97}, {"time": 106441, "pitch": 43, "duration": 121, "velocity": 70}, {"time": 106441, "pitch": 58, "duration": 350, "velocity": 103}, {"time": 106441, "pitch": 62, "duration": 350, "velocity": 92}, {"time": 106441, "pitch": 65, "duration": 350, "velocity": 107}, {"time": 106441, "pitch": 69, "duration": 350, "velocity": 118}, {"time": 106801, "pitch": 44, "duration": 159, "velocity": 70}, {"time": 106801, "pitch": 60, "duration": 159, "velocity": 118}, {"time": 106801, "pitch": 63, "duration": 159, "velocity": 107}, {"time": 106801, "pitch": 66, "duration": 159, "velocity": 117}, {"time": 106801, "pitch": 70, "duration": 159, "velocity": 127}, {"time": 107040, "pitch": 49, "duration": 139, "velocity": 70}, {"time": 107040, "pitch": 61, "duration": 139, "velocity": 112}, {"time": 107040, "pitch": 65, "duration": 139, "velocity": 118}, {"time": 107040, "pitch": 68, "duration": 139, "velocity": 127}, {"time": 107040, "pitch": 72, "duration": 139, "velocity": 95}, {"time": 107760, "pitch": 44, "duration": 710, "velocity": 70}, {"time": 107760, "pitch": 68, "duration": 710, "velocity": 114}, {"time": 107760, "pitch": 71, "duration": 710, "velocity": 118}, {"time": 107760, "pitch": 73, "duration": 710, "velocity": 120}, {"time": 107760, "pitch": 77, "duration": 710, "velocity": 118}, {"time": 108480, "pitch": 46, "duration": 1917, "velocity": 65}, {"time": 108480, "pitch": 58, "duration": 710, "velocity": 74}, {"time": 108480, "pitch": 62, "duration": 710, "velocity": 78}, {"time": 108480, "pitch": 65, "duration": 710, "velocity": 84}, {"time": 108480, "pitch": 67, "duration": 710, "velocity": 88}, {"time": 109200, "pitch": 58, "duration": 1187, "velocity": 74}, {"time": 109200, "pitch": 62, "duration": 1187, "velocity": 78}, {"time": 109200, "pitch": 65, "duration": 710, "velocity": 84}, {"time": 109200, "pitch": 67, "duration": 710, "velocity": 88}, {"time": 109920, "pitch": 65, "duration": 477, "velocity": 84}, {"time": 109920, "pitch": 67, "duration": 477, "velocity": 88}, {"time": 109920, "pitch": 72, "duration": 477, "velocity": 95}, {"time": 110397, "pitch": 45, "duration": 1925, "velocity": 64}, {"time": 110397, "pitch": 57, "duration": 354, "velocity": 72}, {"time": 110397, "pitch": 64, "duration": 354, "velocity": 88}, {"time": 110397, "pitch": 67, "duration": 354, "velocity": 84}, {"time": 110397, "pitch": 72, "duration": 354, "velocity": 95}, {"time": 110761, "pitch": 60, "duration": 350, "velocity": 88}, {"time": 110761, "pitch": 64, "duration": 350, "velocity": 84}, {"time": 110761, "pitch": 67, "duration": 350, "velocity": 95}, {"time": 111121, "pitch": 57, "duration": 706, "velocity": 88}, {"time": 111121, "pitch": 60, "duration": 706, "velocity": 84}, {"time": 111121, "pitch": 65, "duration": 706, "velocity": 95}, {"time": 111837, "pitch": 60, "duration": 121, "velocity": 97}, {"time": 111958, "pitch": 62, "duration": 122, "velocity": 95}, {"time": 112080, "pitch": 65, "duration": 111, "velocity": 92}, {"time": 112201, "pitch": 67, "duration": 111, "velocity": 87}, {"time": 112322, "pitch": 43, "duration": 1917, "velocity": 56}, {"time": 112322, "pitch": 55, "duration": 706, "velocity": 64}, {"time": 112322, "pitch": 62, "duration": 706, "velocity": 90}, {"time": 112322, "pitch": 65, "duration": 706, "velocity": 90}, {"time": 112322, "pitch": 69, "duration": 706, "velocity": 95}, {"time": 113038, "pitch": 55, "duration": 1182, "velocity": 83}, {"time": 113038, "pitch": 62, "duration": 1182, "velocity": 94}, {"time": 113038, "pitch": 65, "duration": 1182, "velocity": 95}, {"time": 113038, "pitch": 70, "duration": 1182, "velocity": 97}, {"time": 114239, "pitch": 53, "duration": 953, "velocity": 67}, {"time": 114239, "pitch": 57, "duration": 953, "velocity": 77}, {"time": 114239, "pitch": 60, "duration": 953, "velocity": 81}, {"time": 114239, "pitch": 65, "duration": 953, "velocity": 86}, {"time": 115202, "pitch": 50, "duration": 468, "velocity": 65}, {"time": 115202, "pitch": 60, "duration": 468, "velocity": 79}, {"time": 115202, "pitch": 63, "duration": 428, "velocity": 89}, {"time": 115202, "pitch": 66, "duration": 448, "velocity": 86}, {"time": 115202, "pitch": 69, "duration": 468, "velocity": 89}, {"time": 115640, "pitch": 63, "duration": 507, "velocity": 75}, {"time": 115670, "pitch": 66, "duration": 477, "velocity": 83}, {"time": 115679, "pitch": 69, "duration": 468, "velocity": 89}, {"time": 115719, "pitch": 74, "duration": 428, "velocity": 81}, {"time": 116157, "pitch": 46, "duration": 1925, "velocity": 65}, {"time": 116157, "pitch": 58, "duration": 714, "velocity": 74}, {"time": 116157, "pitch": 62, "duration": 714, "velocity": 78}, {"time": 116157, "pitch": 65, "duration": 714, "velocity": 84}, {"time": 116157, "pitch": 67, "duration": 714, "velocity": 88}, {"time": 116881, "pitch": 58, "duration": 1191, "velocity": 74}, {"time": 116881, "pitch": 62, "duration": 1191, "velocity": 78}, {"time": 116881, "pitch": 65, "duration": 706, "velocity": 84}, {"time": 116881, "pitch": 67, "duration": 706, "velocity": 88}, {"time": 117597, "pitch": 65, "duration": 485, "velocity": 84}, {"time": 117597, "pitch": 70, "duration": 485, "velocity": 88}, {"time": 117597, "pitch": 72, "duration": 485, "velocity": 95}, {"time": 118082, "pitch": 45, "duration": 1917, "velocity": 64}, {"time": 118082, "pitch": 57, "duration": 348, "velocity": 72}, {"time": 118082, "pitch": 64, "duration": 348, "velocity": 88}, {"time": 118082, "pitch": 67, "duration": 348, "velocity": 84}, {"time": 118082, "pitch": 72, "duration": 348, "velocity": 95}, {"time": 118440, "pitch": 60, "duration": 348, "velocity": 88}, {"time": 118440, "pitch": 64, "duration": 348, "velocity": 84}, {"time": 118440, "pitch": 67, "duration": 348, "velocity": 95}, {"time": 118798, "pitch": 57, "duration": 714, "velocity": 88}, {"time": 118798, "pitch": 60, "duration": 714, "velocity": 84}, {"time": 118798, "pitch": 65, "duration": 714, "velocity": 95}, {"time": 119522, "pitch": 60, "duration": 119, "velocity": 97}, {"time": 119641, "pitch": 62, "duration": 120, "velocity": 95}, {"time": 119761, "pitch": 65, "duration": 109, "velocity": 92}, {"time": 119880, "pitch": 67, "duration": 109, "velocity": 87}, {"time": 119999, "pitch": 43, "duration": 963, "velocity": 65}, {"time": 119999, "pitch": 55, "duration": 710, "velocity": 74}, {"time": 119999, "pitch": 58, "duration": 710, "velocity": 78}, {"time": 119999, "pitch": 61, "duration": 710, "velocity": 84}, {"time": 119999, "pitch": 65, "duration": 710, "velocity": 88}, {"time": 120719, "pitch": 55, "duration": 233, "velocity": 74}, {"time": 120719, "pitch": 58, "duration": 482, "velocity": 78}, {"time": 120719, "pitch": 65, "duration": 482, "velocity": 88}, {"time": 120719, "pitch": 69, "duration": 482, "velocity": 84}, {"time": 120962, "pitch": 48, "duration": 945, "velocity": 65}, {"time": 121201, "pitch": 58, "duration": 706, "velocity": 88}, {"time": 121201, "pitch": 62, "duration": 706, "velocity": 84}, {"time": 121201, "pitch": 65, "duration": 706, "velocity": 95}, {"time": 121917, "pitch": 53, "duration": 714, "velocity": 67}, {"time": 121917, "pitch": 57, "duration": 714, "velocity": 77}, {"time": 121917, "pitch": 60, "duration": 714, "velocity": 81}, {"time": 121917, "pitch": 64, "duration": 714, "velocity": 81}, {"time": 121917, "pitch": 67, "duration": 714, "velocity": 86}, {"time": 122640, "pitch": 53, "duration": 1192, "velocity": 67}, {"time": 122640, "pitch": 57, "duration": 1192, "velocity": 77}, {"time": 122640, "pitch": 60, "duration": 1192, "velocity": 81}, {"time": 122640, "pitch": 65, "duration": 1192, "velocity": 86}, {"time": 123842, "pitch": 46, "duration": 1917, "velocity": 65}, {"time": 123842, "pitch": 58, "duration": 706, "velocity": 74}, {"time": 123842, "pitch": 62, "duration": 706, "velocity": 78}, {"time": 123842, "pitch": 65, "duration": 706, "velocity": 84}, {"time": 123842, "pitch": 69, "duration": 706, "velocity": 88}, {"time": 124558, "pitch": 58, "duration": 1191, "velocity": 74}, {"time": 124558, "pitch": 62, "duration": 1191, "velocity": 78}, {"time": 124558, "pitch": 65, "duration": 714, "velocity": 84}, {"time": 124558, "pitch": 69, "duration": 714, "velocity": 88}, {"time": 125282, "pitch": 65, "duration": 477, "velocity": 84}, {"time": 125282, "pitch": 69, "duration": 477, "velocity": 88}, {"time": 125282, "pitch": 72, "duration": 477, "velocity": 95}, {"time": 125759, "pitch": 45, "duration": 1918, "velocity": 64}, {"time": 125759, "pitch": 57, "duration": 348, "velocity": 72}, {"time": 125759, "pitch": 64, "duration": 348, "velocity": 88}, {"time": 125759, "pitch": 67, "duration": 348, "velocity": 84}, {"time": 125759, "pitch": 72, "duration": 348, "velocity": 95}, {"time": 126117, "pitch": 60, "duration": 352, "velocity": 88}, {"time": 126117, "pitch": 64, "duration": 352, "velocity": 84}, {"time": 126117, "pitch": 67, "duration": 352, "velocity": 95}, {"time": 126479, "pitch": 57, "duration": 710, "velocity": 88}, {"time": 126479, "pitch": 60, "duration": 710, "velocity": 84}, {"time": 126479, "pitch": 65, "duration": 710, "velocity": 95}, {"time": 127199, "pitch": 60, "duration": 120, "velocity": 97}, {"time": 127319, "pitch": 62, "duration": 119, "velocity": 95}, {"time": 127438, "pitch": 65, "duration": 109, "velocity": 92}, {"time": 127557, "pitch": 67, "duration": 110, "velocity": 87}, {"time": 127677, "pitch": 43, "duration": 1925, "velocity": 56}, {"time": 127677, "pitch": 55, "duration": 713, "velocity": 64}, {"time": 127677, "pitch": 62, "duration": 713, "velocity": 90}, {"time": 127677, "pitch": 65, "duration": 713, "velocity": 90}, {"time": 127677, "pitch": 69, "duration": 713, "velocity": 95}, {"time": 128400, "pitch": 55, "duration": 1181, "velocity": 83}, {"time": 128400, "pitch": 62, "duration": 1181, "velocity": 94}, {"time": 128400, "pitch": 65, "duration": 1181, "velocity": 95}, {"time": 128400, "pitch": 70, "duration": 1181, "velocity": 97}, {"time": 129602, "pitch": 53, "duration": 1439, "velocity": 64}, {"time": 129602, "pitch": 57, "duration": 348, "velocity": 72}, {"time": 129602, "pitch": 62, "duration": 348, "velocity": 88}, {"time": 129602, "pitch": 67, "duration": 348, "velocity": 84}, {"time": 129602, "pitch": 72, "duration": 348, "velocity": 88}, {"time": 129960, "pitch": 60, "duration": 348, "velocity": 88}, {"time": 129960, "pitch": 64, "duration": 348, "velocity": 84}, {"time": 129960, "pitch": 67, "duration": 348, "velocity": 95}, {"time": 130318, "pitch": 57, "duration": 713, "velocity": 88}, {"time": 130318, "pitch": 60, "duration": 713, "velocity": 84}, {"time": 130318, "pitch": 65, "duration": 713, "velocity": 95}, {"time": 131041, "pitch": 48, "duration": 478, "velocity": 88}, {"time": 131041, "pitch": 58, "duration": 478, "velocity": 84}, {"time": 131041, "pitch": 62, "duration": 478, "velocity": 88}, {"time": 131041, "pitch": 64, "duration": 478, "velocity": 72}, {"time": 131041, "pitch": 69, "duration": 478, "velocity": 64}, {"time": 131519, "pitch": 46, "duration": 1918, "velocity": 65}, {"time": 131519, "pitch": 58, "duration": 710, "velocity": 74}, {"time": 131519, "pitch": 62, "duration": 710, "velocity": 78}, {"time": 131519, "pitch": 65, "duration": 710, "velocity": 84}, {"time": 131519, "pitch": 69, "duration": 710, "velocity": 88}, {"time": 132239, "pitch": 58, "duration": 1188, "velocity": 74}, {"time": 132239, "pitch": 62, "duration": 1188, "velocity": 78}, {"time": 132239, "pitch": 65, "duration": 710, "velocity": 84}, {"time": 132239, "pitch": 69, "duration": 710, "velocity": 88}, {"time": 132959, "pitch": 65, "duration": 478, "velocity": 84}, {"time": 132959, "pitch": 69, "duration": 478, "velocity": 88}, {"time": 132959, "pitch": 72, "duration": 478, "velocity": 95}, {"time": 133437, "pitch": 45, "duration": 1924, "velocity": 64}, {"time": 133437, "pitch": 57, "duration": 353, "velocity": 72}, {"time": 133437, "pitch": 64, "duration": 353, "velocity": 88}, {"time": 133437, "pitch": 67, "duration": 353, "velocity": 84}, {"time": 133437, "pitch": 72, "duration": 353, "velocity": 95}, {"time": 133800, "pitch": 60, "duration": 350, "velocity": 88}, {"time": 133800, "pitch": 64, "duration": 350, "velocity": 84}, {"time": 133800, "pitch": 67, "duration": 350, "velocity": 95}, {"time": 134160, "pitch": 57, "duration": 707, "velocity": 88}, {"time": 134160, "pitch": 60, "duration": 707, "velocity": 84}, {"time": 134160, "pitch": 65, "duration": 707, "velocity": 95}, {"time": 134877, "pitch": 60, "duration": 121, "velocity": 97}, {"time": 134998, "pitch": 62, "duration": 121, "velocity": 95}, {"time": 135119, "pitch": 65, "duration": 111, "velocity": 92}, {"time": 135240, "pitch": 67, "duration": 111, "velocity": 87}, {"time": 135361, "pitch": 43, "duration": 1918, "velocity": 56}, {"time": 135361, "pitch": 55, "duration": 707, "velocity": 64}, {"time": 135361, "pitch": 62, "duration": 707, "velocity": 90}, {"time": 135361, "pitch": 65, "duration": 707, "velocity": 90}, {"time": 135361, "pitch": 69, "duration": 707, "velocity": 95}, {"time": 136078, "pitch": 55, "duration": 1181, "velocity": 83}, {"time": 136078, "pitch": 62, "duration": 1181, "velocity": 94}, {"time": 136078, "pitch": 65, "duration": 1181, "velocity": 95}, {"time": 136078, "pitch": 70, "duration": 1181, "velocity": 97}, {"time": 137279, "pitch": 53, "duration": 1440, "velocity": 64}, {"time": 137279, "pitch": 57, "duration": 348, "velocity": 72}, {"time": 137279, "pitch": 62, "duration": 348, "velocity": 88}, {"time": 137279, "pitch": 67, "duration": 348, "velocity": 84}, {"time": 137279, "pitch": 72, "duration": 348, "velocity": 88}, {"time": 137637, "pitch": 60, "duration": 352, "velocity": 88}, {"time": 137637, "pitch": 64, "duration": 352, "velocity": 84}, {"time": 137637, "pitch": 67, "duration": 352, "velocity": 95}, {"time": 137999, "pitch": 57, "duration": 710, "velocity": 88}, {"time": 137999, "pitch": 60, "duration": 710, "velocity": 84}, {"time": 137999, "pitch": 65, "duration": 710, "velocity": 95}, {"time": 138719, "pitch": 41, "duration": 477, "velocity": 64}, {"time": 138719, "pitch": 57, "duration": 477, "velocity": 87}, {"time": 138719, "pitch": 60, "duration": 477, "velocity": 88}, {"time": 138719, "pitch": 63, "duration": 477, "velocity": 92}, {"time": 138719, "pitch": 67, "duration": 477, "velocity": 98}, {"time": 139196, "pitch": 46, "duration": 1925, "velocity": 65}, {"time": 139196, "pitch": 58, "duration": 714, "velocity": 74}, {"time": 139196, "pitch": 62, "duration": 714, "velocity": 78}, {"time": 139196, "pitch": 65, "duration": 714, "velocity": 84}, {"time": 139196, "pitch": 69, "duration": 714, "velocity": 88}, {"time": 139920, "pitch": 58, "duration": 1191, "velocity": 74}, {"time": 139920, "pitch": 62, "duration": 1191, "velocity": 78}, {"time": 139920, "pitch": 65, "duration": 707, "velocity": 84}, {"time": 139920, "pitch": 69, "duration": 707, "velocity": 88}, {"time": 140636, "pitch": 65, "duration": 485, "velocity": 84}, {"time": 140636, "pitch": 69, "duration": 485, "velocity": 88}, {"time": 140636, "pitch": 72, "duration": 485, "velocity": 95}, {"time": 141121, "pitch": 45, "duration": 1918, "velocity": 64}, {"time": 141121, "pitch": 57, "duration": 348, "velocity": 72}, {"time": 141121, "pitch": 64, "duration": 348, "velocity": 88}, {"time": 141121, "pitch": 67, "duration": 348, "velocity": 84}, {"time": 141121, "pitch": 72, "duration": 348, "velocity": 95}, {"time": 141479, "pitch": 60, "duration": 349, "velocity": 88}, {"time": 141479, "pitch": 64, "duration": 349, "velocity": 84}, {"time": 141479, "pitch": 67, "duration": 349, "velocity": 95}, {"time": 141838, "pitch": 57, "duration": 713, "velocity": 88}, {"time": 141838, "pitch": 60, "duration": 713, "velocity": 84}, {"time": 141838, "pitch": 65, "duration": 713, "velocity": 95}, {"time": 142561, "pitch": 60, "duration": 120, "velocity": 97}, {"time": 142681, "pitch": 62, "duration": 119, "velocity": 95}, {"time": 142800, "pitch": 65, "duration": 109, "velocity": 92}, {"time": 142919, "pitch": 67, "duration": 110, "velocity": 87}, {"time": 143039, "pitch": 43, "duration": 1925, "velocity": 56}, {"time": 143039, "pitch": 55, "duration": 713, "velocity": 64}, {"time": 143039, "pitch": 62, "duration": 713, "velocity": 90}, {"time": 143039, "pitch": 65, "duration": 713, "velocity": 90}, {"time": 143039, "pitch": 69, "duration": 713, "velocity": 95}, {"time": 143762, "pitch": 55, "duration": 1181, "velocity": 83}, {"time": 143762, "pitch": 62, "duration": 1181, "velocity": 94}, {"time": 143762, "pitch": 65, "duration": 1181, "velocity": 95}, {"time": 143762, "pitch": 70, "duration": 1181, "velocity": 97}, {"time": 144964, "pitch": 53, "duration": 1439, "velocity": 64}, {"time": 144964, "pitch": 57, "duration": 348, "velocity": 72}, {"time": 144964, "pitch": 62, "duration": 348, "velocity": 88}, {"time": 144964, "pitch": 67, "duration": 348, "velocity": 84}, {"time": 144964, "pitch": 72, "duration": 348, "velocity": 88}, {"time": 145322, "pitch": 60, "duration": 348, "velocity": 88}, {"time": 145322, "pitch": 64, "duration": 348, "velocity": 84}, {"time": 145322, "pitch": 67, "duration": 348, "velocity": 95}, {"time": 145680, "pitch": 57, "duration": 713, "velocity": 88}, {"time": 145680, "pitch": 60, "duration": 713, "velocity": 84}, {"time": 145680, "pitch": 65, "duration": 713, "velocity": 95}, {"time": 146403, "pitch": 48, "duration": 478, "velocity": 88}, {"time": 146403, "pitch": 58, "duration": 478, "velocity": 84}, {"time": 146403, "pitch": 62, "duration": 478, "velocity": 88}, {"time": 146403, "pitch": 64, "duration": 478, "velocity": 72}, {"time": 146403, "pitch": 69, "duration": 478, "velocity": 64}, {"time": 146881, "pitch": 46, "duration": 1918, "velocity": 65}, {"time": 146881, "pitch": 58, "duration": 710, "velocity": 74}, {"time": 146881, "pitch": 62, "duration": 710, "velocity": 78}, {"time": 146881, "pitch": 65, "duration": 710, "velocity": 84}, {"time": 146881, "pitch": 69, "duration": 710, "velocity": 88}, {"time": 147601, "pitch": 58, "duration": 1188, "velocity": 74}, {"time": 147601, "pitch": 62, "duration": 1188, "velocity": 78}, {"time": 147601, "pitch": 65, "duration": 710, "velocity": 84}, {"time": 147601, "pitch": 69, "duration": 710, "velocity": 88}, {"time": 148321, "pitch": 65, "duration": 478, "velocity": 84}, {"time": 148321, "pitch": 69, "duration": 478, "velocity": 88}, {"time": 148321, "pitch": 72, "duration": 478, "velocity": 95}, {"time": 148799, "pitch": 45, "duration": 1924, "velocity": 64}, {"time": 148799, "pitch": 57, "duration": 353, "velocity": 72}, {"time": 148799, "pitch": 64, "duration": 353, "velocity": 88}, {"time": 148799, "pitch": 67, "duration": 353, "velocity": 84}, {"time": 148799, "pitch": 72, "duration": 353, "velocity": 95}, {"time": 149162, "pitch": 60, "duration": 350, "velocity": 88}, {"time": 149162, "pitch": 64, "duration": 350, "velocity": 84}, {"time": 149162, "pitch": 67, "duration": 350, "velocity": 95}, {"time": 149522, "pitch": 57, "duration": 707, "velocity": 88}, {"time": 149522, "pitch": 60, "duration": 707, "velocity": 84}, {"time": 149522, "pitch": 65, "duration": 707, "velocity": 95}, {"time": 150239, "pitch": 60, "duration": 121, "velocity": 97}, {"time": 150360, "pitch": 62, "duration": 121, "velocity": 95}, {"time": 150481, "pitch": 65, "duration": 111, "velocity": 92}, {"time": 150602, "pitch": 67, "duration": 111, "velocity": 87}, {"time": 150723, "pitch": 43, "duration": 1918, "velocity": 56}, {"time": 150723, "pitch": 55, "duration": 707, "velocity": 64}, {"time": 150723, "pitch": 62, "duration": 707, "velocity": 90}, {"time": 150723, "pitch": 65, "duration": 707, "velocity": 90}, {"time": 150723, "pitch": 69, "duration": 707, "velocity": 95}, {"time": 151440, "pitch": 55, "duration": 1181, "velocity": 83}, {"time": 151440, "pitch": 62, "duration": 1181, "velocity": 94}, {"time": 151440, "pitch": 65, "duration": 1181, "velocity": 95}, {"time": 151440, "pitch": 70, "duration": 1181, "velocity": 97}, {"time": 152641, "pitch": 53, "duration": 1440, "velocity": 64}, {"time": 152641, "pitch": 57, "duration": 348, "velocity": 72}, {"time": 152641, "pitch": 62, "duration": 348, "velocity": 88}, {"time": 152641, "pitch": 67, "duration": 348, "velocity": 84}, {"time": 152641, "pitch": 72, "duration": 348, "velocity": 88}, {"time": 152999, "pitch": 60, "duration": 352, "velocity": 88}, {"time": 152999, "pitch": 64, "duration": 352, "velocity": 84}, {"time": 152999, "pitch": 67, "duration": 352, "velocity": 95}, {"time": 153361, "pitch": 57, "duration": 710, "velocity": 88}, {"time": 153361, "pitch": 60, "duration": 710, "velocity": 84}, {"time": 153361, "pitch": 65, "duration": 710, "velocity": 95}, {"time": 154081, "pitch": 41, "duration": 477, "velocity": 64}, {"time": 154081, "pitch": 57, "duration": 477, "velocity": 87}, {"time": 154081, "pitch": 60, "duration": 477, "velocity": 88}, {"time": 154081, "pitch": 63, "duration": 477, "velocity": 92}, {"time": 154081, "pitch": 67, "duration": 477, "velocity": 98}, {"time": 154558, "pitch": 46, "duration": 1925, "velocity": 65}, {"time": 154558, "pitch": 58, "duration": 714, "velocity": 74}, {"time": 154558, "pitch": 62, "duration": 714, "velocity": 78}, {"time": 154558, "pitch": 65, "duration": 714, "velocity": 84}, {"time": 154558, "pitch": 69, "duration": 714, "velocity": 88}, {"time": 155282, "pitch": 58, "duration": 1191, "velocity": 74}, {"time": 155282, "pitch": 62, "duration": 1191, "velocity": 78}, {"time": 155282, "pitch": 65, "duration": 707, "velocity": 84}, {"time": 155282, "pitch": 69, "duration": 707, "velocity": 88}, {"time": 155998, "pitch": 65, "duration": 485, "velocity": 84}, {"time": 155998, "pitch": 69, "duration": 485, "velocity": 88}, {"time": 155998, "pitch": 72, "duration": 485, "velocity": 95}, {"time": 156483, "pitch": 45, "duration": 1918, "velocity": 64}, {"time": 156483, "pitch": 57, "duration": 348, "velocity": 72}, {"time": 156483, "pitch": 64, "duration": 348, "velocity": 88}, {"time": 156483, "pitch": 67, "duration": 348, "velocity": 84}, {"time": 156483, "pitch": 72, "duration": 348, "velocity": 95}, {"time": 156841, "pitch": 60, "duration": 349, "velocity": 88}, {"time": 156841, "pitch": 64, "duration": 349, "velocity": 84}, {"time": 156841, "pitch": 67, "duration": 349, "velocity": 95}, {"time": 157200, "pitch": 57, "duration": 713, "velocity": 88}, {"time": 157200, "pitch": 60, "duration": 713, "velocity": 84}, {"time": 157200, "pitch": 65, "duration": 713, "velocity": 95}, {"time": 157923, "pitch": 60, "duration": 120, "velocity": 97}, {"time": 158043, "pitch": 62, "duration": 119, "velocity": 95}, {"time": 158162, "pitch": 65, "duration": 109, "velocity": 92}, {"time": 158281, "pitch": 67, "duration": 110, "velocity": 87}, {"time": 158401, "pitch": 43, "duration": 1917, "velocity": 56}, {"time": 158401, "pitch": 55, "duration": 710, "velocity": 64}, {"time": 158401, "pitch": 62, "duration": 710, "velocity": 90}, {"time": 158401, "pitch": 65, "duration": 710, "velocity": 90}, {"time": 158401, "pitch": 69, "duration": 710, "velocity": 95}, {"time": 159121, "pitch": 55, "duration": 1177, "velocity": 83}, {"time": 159121, "pitch": 62, "duration": 1177, "velocity": 94}, {"time": 159121, "pitch": 65, "duration": 1177, "velocity": 95}, {"time": 159121, "pitch": 70, "duration": 1177, "velocity": 97}, {"time": 160318, "pitch": 53, "duration": 1455, "velocity": 64}, {"time": 160318, "pitch": 57, "duration": 354, "velocity": 72}, {"time": 160318, "pitch": 62, "duration": 354, "velocity": 88}, {"time": 160318, "pitch": 67, "duration": 354, "velocity": 84}, {"time": 160318, "pitch": 72, "duration": 354, "velocity": 88}, {"time": 160682, "pitch": 60, "duration": 353, "velocity": 88}, {"time": 160682, "pitch": 64, "duration": 353, "velocity": 84}, {"time": 160682, "pitch": 67, "duration": 353, "velocity": 95}, {"time": 161046, "pitch": 57, "duration": 717, "velocity": 88}, {"time": 161046, "pitch": 60, "duration": 717, "velocity": 84}, {"time": 161046, "pitch": 65, "duration": 717, "velocity": 95}, {"time": 161773, "pitch": 48, "duration": 485, "velocity": 88}, {"time": 161773, "pitch": 58, "duration": 485, "velocity": 84}, {"time": 161773, "pitch": 62, "duration": 485, "velocity": 88}, {"time": 161773, "pitch": 64, "duration": 485, "velocity": 72}, {"time": 161773, "pitch": 69, "duration": 485, "velocity": 64}], "annotations": [{"time": 218, "annotation": {"number": 7, "value": 71}, "group": "control_change"}, {"time": 228, "annotation": {"number": 11, "value": 120}, "group": "control_change"}, {"time": 238, "annotation": {"number": 10, "value": 75}, "group": "control_change"}, {"time": 249, "annotation": {"number": 91, "value": 60}, "group": "control_change"}, {"time": 259, "annotation": {"number": 93, "value": 37}, "group": "control_change"}, {"time": 269, "annotation": {"number": 101, "value": 0}, "group": "control_change"}, {"time": 280, "annotation": {"number": 100, "value": 0}, "group": "control_change"}, {"time": 290, "annotation": {"number": 6, "value": 12}, "group": "control_change"}, {"time": 300, "annotation": {"number": 101, "value": 127}, "group": "control_change"}, {"time": 311, "annotation": {"number": 100, "value": 127}, "group": "control_change"}]}, {"program": 0, "is_drum": false, "name": "BASS", "annotations": [{"time": 187, "annotation": {"number": 0, "value": 2}, "group": "control_change"}, {"time": 197, "annotation": {"number": 32, "value": 2}, "group": "control_change"}]}, {"program": 39, "is_drum": false, "name": "BASS", "notes": [{"time": 960, "pitch": 34, "duration": 318, "velocity": 108}, {"time": 1318, "pitch": 34, "duration": 130, "velocity": 84}, {"time": 1680, "pitch": 34, "duration": 1128, "velocity": 97}, {"time": 2877, "pitch": 33, "duration": 324, "velocity": 105}, {"time": 3241, "pitch": 33, "duration": 131, "velocity": 88}, {"time": 3601, "pitch": 33, "duration": 1201, "velocity": 97}, {"time": 4802, "pitch": 31, "duration": 348, "velocity": 102}, {"time": 5160, "pitch": 31, "duration": 110, "velocity": 97}, {"time": 5519, "pitch": 31, "duration": 461, "velocity": 93}, {"time": 6000, "pitch": 41, "duration": 111, "velocity": 95}, {"time": 6121, "pitch": 43, "duration": 111, "velocity": 80}, {"time": 6242, "pitch": 41, "duration": 110, "velocity": 95}, {"time": 6362, "pitch": 38, "duration": 119, "velocity": 90}, {"time": 6481, "pitch": 34, "duration": 109, "velocity": 85}, {"time": 6600, "pitch": 36, "duration": 110, "velocity": 80}, {"time": 6720, "pitch": 29, "duration": 338, "velocity": 103}, {"time": 7078, "pitch": 29, "duration": 109, "velocity": 90}, {"time": 7440, "pitch": 29, "duration": 700, "velocity": 90}, {"time": 8160, "pitch": 36, "duration": 467, "velocity": 100}, {"time": 8637, "pitch": 34, "duration": 324, "velocity": 108}, {"time": 9001, "pitch": 34, "duration": 131, "velocity": 84}, {"time": 9361, "pitch": 34, "duration": 1130, "velocity": 97}, {"time": 10562, "pitch": 33, "duration": 318, "velocity": 105}, {"time": 10920, "pitch": 33, "duration": 130, "velocity": 88}, {"time": 11278, "pitch": 33, "duration": 1202, "velocity": 97}, {"time": 12480, "pitch": 31, "duration": 348, "velocity": 102}, {"time": 12838, "pitch": 31, "duration": 109, "velocity": 97}, {"time": 13200, "pitch": 31, "duration": 461, "velocity": 93}, {"time": 13681, "pitch": 41, "duration": 109, "velocity": 95}, {"time": 13800, "pitch": 43, "duration": 110, "velocity": 80}, {"time": 13920, "pitch": 41, "duration": 109, "velocity": 95}, {"time": 14039, "pitch": 38, "duration": 119, "velocity": 90}, {"time": 14158, "pitch": 34, "duration": 110, "velocity": 85}, {"time": 14278, "pitch": 36, "duration": 109, "velocity": 80}, {"time": 14397, "pitch": 29, "duration": 344, "velocity": 103}, {"time": 14761, "pitch": 29, "duration": 111, "velocity": 90}, {"time": 15121, "pitch": 29, "duration": 696, "velocity": 90}, {"time": 15837, "pitch": 32, "duration": 475, "velocity": 90}, {"time": 16322, "pitch": 31, "duration": 109, "velocity": 106}, {"time": 16441, "pitch": 31, "duration": 140, "velocity": 97}, {"time": 17038, "pitch": 31, "duration": 833, "velocity": 106}, {"time": 18001, "pitch": 31, "duration": 209, "velocity": 97}, {"time": 18239, "pitch": 29, "duration": 110, "velocity": 106}, {"time": 18359, "pitch": 29, "duration": 50, "velocity": 98}, {"time": 18478, "pitch": 29, "duration": 60, "velocity": 80}, {"time": 18959, "pitch": 29, "duration": 860, "velocity": 94}, {"time": 19918, "pitch": 29, "duration": 189, "velocity": 83}, {"time": 20157, "pitch": 31, "duration": 121, "velocity": 89}, {"time": 20278, "pitch": 31, "duration": 142, "velocity": 97}, {"time": 20881, "pitch": 31, "duration": 857, "velocity": 95}, {"time": 21839, "pitch": 31, "duration": 223, "velocity": 89}, {"time": 22082, "pitch": 29, "duration": 109, "velocity": 106}, {"time": 22201, "pitch": 29, "duration": 70, "velocity": 102}, {"time": 22321, "pitch": 29, "duration": 59, "velocity": 106}, {"time": 22798, "pitch": 29, "duration": 833, "velocity": 95}, {"time": 23761, "pitch": 29, "duration": 159, "velocity": 89}, {"time": 23999, "pitch": 31, "duration": 100, "velocity": 106}, {"time": 24119, "pitch": 31, "duration": 139, "velocity": 96}, {"time": 24719, "pitch": 31, "duration": 830, "velocity": 94}, {"time": 25678, "pitch": 31, "duration": 209, "velocity": 83}, {"time": 25917, "pitch": 29, "duration": 111, "velocity": 104}, {"time": 26038, "pitch": 29, "duration": 81, "velocity": 97}, {"time": 26159, "pitch": 29, "duration": 142, "velocity": 93}, {"time": 26640, "pitch": 29, "duration": 838, "velocity": 102}, {"time": 27599, "pitch": 29, "duration": 172, "velocity": 83}, {"time": 27842, "pitch": 31, "duration": 109, "velocity": 108}, {"time": 27961, "pitch": 31, "duration": 90, "velocity": 83}, {"time": 28080, "pitch": 31, "duration": 140, "velocity": 100}, {"time": 28558, "pitch": 31, "duration": 744, "velocity": 95}, {"time": 29282, "pitch": 36, "duration": 199, "velocity": 97}, {"time": 29520, "pitch": 31, "duration": 180, "velocity": 99}, {"time": 29759, "pitch": 29, "duration": 348, "velocity": 101}, {"time": 30117, "pitch": 29, "duration": 50, "velocity": 83}, {"time": 30479, "pitch": 29, "duration": 929, "velocity": 89}, {"time": 31438, "pitch": 29, "duration": 169, "velocity": 71}, {"time": 31677, "pitch": 34, "duration": 594, "velocity": 108}, {"time": 32400, "pitch": 34, "duration": 687, "velocity": 100}, {"time": 33117, "pitch": 36, "duration": 232, "velocity": 97}, {"time": 33359, "pitch": 34, "duration": 182, "velocity": 89}, {"time": 33602, "pitch": 33, "duration": 308, "velocity": 89}, {"time": 33960, "pitch": 33, "duration": 99, "velocity": 77}, {"time": 34318, "pitch": 33, "duration": 441, "velocity": 89}, {"time": 34799, "pitch": 33, "duration": 202, "velocity": 77}, {"time": 35041, "pitch": 36, "duration": 219, "velocity": 103}, {"time": 35280, "pitch": 29, "duration": 189, "velocity": 65}, {"time": 35519, "pitch": 31, "duration": 299, "velocity": 106}, {"time": 35877, "pitch": 31, "duration": 80, "velocity": 77}, {"time": 36239, "pitch": 31, "duration": 451, "velocity": 106}, {"time": 36720, "pitch": 36, "duration": 388, "velocity": 106}, {"time": 37198, "pitch": 36, "duration": 199, "velocity": 106}, {"time": 37437, "pitch": 29, "duration": 323, "velocity": 106}, {"time": 37800, "pitch": 29, "duration": 71, "velocity": 89}, {"time": 38160, "pitch": 29, "duration": 229, "velocity": 96}, {"time": 38399, "pitch": 33, "duration": 468, "velocity": 96}, {"time": 38877, "pitch": 38, "duration": 232, "velocity": 97}, {"time": 39119, "pitch": 33, "duration": 232, "velocity": 93}, {"time": 39361, "pitch": 34, "duration": 329, "velocity": 107}, {"time": 39720, "pitch": 34, "duration": 59, "velocity": 98}, {"time": 40078, "pitch": 34, "duration": 410, "velocity": 106}, {"time": 40559, "pitch": 34, "duration": 232, "velocity": 101}, {"time": 40801, "pitch": 36, "duration": 239, "velocity": 77}, {"time": 41040, "pitch": 31, "duration": 199, "velocity": 92}, {"time": 41279, "pitch": 33, "duration": 328, "velocity": 101}, {"time": 41637, "pitch": 33, "duration": 80, "velocity": 97}, {"time": 41999, "pitch": 33, "duration": 770, "velocity": 89}, {"time": 42958, "pitch": 33, "duration": 229, "velocity": 85}, {"time": 43196, "pitch": 31, "duration": 314, "velocity": 101}, {"time": 43560, "pitch": 31, "duration": 101, "velocity": 89}, {"time": 43920, "pitch": 31, "duration": 209, "velocity": 97}, {"time": 44159, "pitch": 36, "duration": 619, "velocity": 106}, {"time": 44879, "pitch": 36, "duration": 202, "velocity": 97}, {"time": 45121, "pitch": 29, "duration": 289, "velocity": 89}, {"time": 45479, "pitch": 29, "duration": 70, "velocity": 83}, {"time": 45841, "pitch": 29, "duration": 919, "velocity": 89}, {"time": 46800, "pitch": 29, "duration": 70, "velocity": 89}, {"time": 47039, "pitch": 34, "duration": 323, "velocity": 108}, {"time": 47402, "pitch": 34, "duration": 131, "velocity": 84}, {"time": 47762, "pitch": 34, "duration": 1131, "velocity": 97}, {"time": 48964, "pitch": 33, "duration": 318, "velocity": 105}, {"time": 49322, "pitch": 33, "duration": 129, "velocity": 88}, {"time": 49680, "pitch": 33, "duration": 1201, "velocity": 97}, {"time": 50881, "pitch": 31, "duration": 348, "velocity": 102}, {"time": 51239, "pitch": 31, "duration": 110, "velocity": 97}, {"time": 51601, "pitch": 31, "duration": 461, "velocity": 93}, {"time": 52082, "pitch": 41, "duration": 110, "velocity": 95}, {"time": 52202, "pitch": 43, "duration": 109, "velocity": 80}, {"time": 52321, "pitch": 41, "duration": 109, "velocity": 95}, {"time": 52440, "pitch": 38, "duration": 120, "velocity": 90}, {"time": 52560, "pitch": 34, "duration": 109, "velocity": 85}, {"time": 52679, "pitch": 36, "duration": 110, "velocity": 80}, {"time": 52799, "pitch": 29, "duration": 343, "velocity": 103}, {"time": 53162, "pitch": 29, "duration": 111, "velocity": 90}, {"time": 53522, "pitch": 29, "duration": 697, "velocity": 90}, {"time": 54239, "pitch": 36, "duration": 474, "velocity": 100}, {"time": 54723, "pitch": 34, "duration": 319, "velocity": 108}, {"time": 55082, "pitch": 34, "duration": 129, "velocity": 84}, {"time": 55440, "pitch": 34, "duration": 1131, "velocity": 97}, {"time": 56641, "pitch": 33, "duration": 318, "velocity": 105}, {"time": 56999, "pitch": 33, "duration": 130, "velocity": 88}, {"time": 57361, "pitch": 33, "duration": 1197, "velocity": 97}, {"time": 58558, "pitch": 31, "duration": 354, "velocity": 102}, {"time": 58922, "pitch": 31, "duration": 111, "velocity": 97}, {"time": 59282, "pitch": 31, "duration": 458, "velocity": 93}, {"time": 59760, "pitch": 41, "duration": 109, "velocity": 95}, {"time": 59879, "pitch": 43, "duration": 110, "velocity": 80}, {"time": 59998, "pitch": 41, "duration": 112, "velocity": 95}, {"time": 60120, "pitch": 38, "duration": 121, "velocity": 90}, {"time": 60241, "pitch": 34, "duration": 111, "velocity": 85}, {"time": 60362, "pitch": 36, "duration": 111, "velocity": 80}, {"time": 60483, "pitch": 29, "duration": 339, "velocity": 103}, {"time": 60841, "pitch": 29, "duration": 110, "velocity": 90}, {"time": 61200, "pitch": 29, "duration": 703, "velocity": 90}, {"time": 61923, "pitch": 32, "duration": 468, "velocity": 90}, {"time": 62401, "pitch": 31, "duration": 109, "velocity": 106}, {"time": 62520, "pitch": 31, "duration": 139, "velocity": 97}, {"time": 63121, "pitch": 31, "duration": 829, "velocity": 106}, {"time": 64080, "pitch": 31, "duration": 209, "velocity": 97}, {"time": 64318, "pitch": 29, "duration": 111, "velocity": 106}, {"time": 64440, "pitch": 29, "duration": 50, "velocity": 98}, {"time": 64561, "pitch": 29, "duration": 60, "velocity": 80}, {"time": 65042, "pitch": 29, "duration": 858, "velocity": 94}, {"time": 66001, "pitch": 29, "duration": 192, "velocity": 83}, {"time": 66243, "pitch": 31, "duration": 119, "velocity": 89}, {"time": 66362, "pitch": 31, "duration": 140, "velocity": 97}, {"time": 66959, "pitch": 31, "duration": 863, "velocity": 95}, {"time": 67922, "pitch": 31, "duration": 219, "velocity": 89}, {"time": 68161, "pitch": 29, "duration": 109, "velocity": 106}, {"time": 68280, "pitch": 29, "duration": 70, "velocity": 102}, {"time": 68399, "pitch": 29, "duration": 60, "velocity": 106}, {"time": 68881, "pitch": 29, "duration": 829, "velocity": 95}, {"time": 69839, "pitch": 29, "duration": 160, "velocity": 89}, {"time": 70078, "pitch": 31, "duration": 101, "velocity": 106}, {"time": 70199, "pitch": 31, "duration": 142, "velocity": 96}, {"time": 70802, "pitch": 31, "duration": 827, "velocity": 94}, {"time": 71761, "pitch": 31, "duration": 212, "velocity": 83}, {"time": 72003, "pitch": 29, "duration": 109, "velocity": 104}, {"time": 72122, "pitch": 29, "duration": 80, "velocity": 97}, {"time": 72242, "pitch": 29, "duration": 139, "velocity": 93}, {"time": 72719, "pitch": 29, "duration": 843, "velocity": 102}, {"time": 73682, "pitch": 29, "duration": 169, "velocity": 83}, {"time": 73921, "pitch": 31, "duration": 109, "velocity": 108}, {"time": 74040, "pitch": 31, "duration": 89, "velocity": 83}, {"time": 74159, "pitch": 31, "duration": 140, "velocity": 100}, {"time": 74640, "pitch": 31, "duration": 740, "velocity": 95}, {"time": 75360, "pitch": 36, "duration": 199, "velocity": 97}, {"time": 75599, "pitch": 31, "duration": 179, "velocity": 99}, {"time": 75838, "pitch": 29, "duration": 354, "velocity": 101}, {"time": 76202, "pitch": 29, "duration": 50, "velocity": 83}, {"time": 76562, "pitch": 29, "duration": 928, "velocity": 89}, {"time": 77520, "pitch": 29, "duration": 172, "velocity": 71}, {"time": 77763, "pitch": 34, "duration": 587, "velocity": 108}, {"time": 78479, "pitch": 34, "duration": 693, "velocity": 100}, {"time": 79203, "pitch": 36, "duration": 229, "velocity": 97}, {"time": 79442, "pitch": 34, "duration": 179, "velocity": 89}, {"time": 79680, "pitch": 33, "duration": 309, "velocity": 89}, {"time": 80039, "pitch": 33, "duration": 99, "velocity": 77}, {"time": 80400, "pitch": 33, "duration": 442, "velocity": 89}, {"time": 80882, "pitch": 33, "duration": 199, "velocity": 77}, {"time": 81120, "pitch": 36, "duration": 219, "velocity": 103}, {"time": 81359, "pitch": 29, "duration": 189, "velocity": 65}, {"time": 81598, "pitch": 31, "duration": 303, "velocity": 106}, {"time": 81962, "pitch": 31, "duration": 80, "velocity": 77}, {"time": 82321, "pitch": 31, "duration": 448, "velocity": 106}, {"time": 82799, "pitch": 36, "duration": 390, "velocity": 106}, {"time": 83280, "pitch": 36, "duration": 202, "velocity": 106}, {"time": 83523, "pitch": 29, "duration": 318, "velocity": 106}, {"time": 83881, "pitch": 29, "duration": 70, "velocity": 89}, {"time": 84239, "pitch": 29, "duration": 229, "velocity": 96}, {"time": 84478, "pitch": 33, "duration": 475, "velocity": 96}, {"time": 84963, "pitch": 38, "duration": 228, "velocity": 97}, {"time": 85201, "pitch": 33, "duration": 229, "velocity": 93}, {"time": 85440, "pitch": 34, "duration": 329, "velocity": 107}, {"time": 85798, "pitch": 34, "duration": 60, "velocity": 98}, {"time": 86160, "pitch": 34, "duration": 412, "velocity": 106}, {"time": 86641, "pitch": 34, "duration": 229, "velocity": 101}, {"time": 86880, "pitch": 36, "duration": 239, "velocity": 77}, {"time": 87119, "pitch": 31, "duration": 199, "velocity": 92}, {"time": 87358, "pitch": 33, "duration": 333, "velocity": 101}, {"time": 87721, "pitch": 33, "duration": 81, "velocity": 97}, {"time": 88081, "pitch": 33, "duration": 767, "velocity": 89}, {"time": 89040, "pitch": 33, "duration": 232, "velocity": 85}, {"time": 89283, "pitch": 31, "duration": 308, "velocity": 101}, {"time": 89641, "pitch": 31, "duration": 99, "velocity": 89}, {"time": 89999, "pitch": 31, "duration": 209, "velocity": 97}, {"time": 90238, "pitch": 36, "duration": 624, "velocity": 106}, {"time": 90961, "pitch": 36, "duration": 199, "velocity": 97}, {"time": 91200, "pitch": 29, "duration": 289, "velocity": 89}, {"time": 91558, "pitch": 29, "duration": 70, "velocity": 83}, {"time": 91920, "pitch": 29, "duration": 919, "velocity": 89}, {"time": 92879, "pitch": 29, "duration": 69, "velocity": 89}, {"time": 93118, "pitch": 34, "duration": 323, "velocity": 108}, {"time": 93481, "pitch": 34, "duration": 131, "velocity": 84}, {"time": 93841, "pitch": 34, "duration": 1131, "velocity": 97}, {"time": 95042, "pitch": 33, "duration": 319, "velocity": 105}, {"time": 95401, "pitch": 33, "duration": 129, "velocity": 88}, {"time": 95759, "pitch": 33, "duration": 1201, "velocity": 97}, {"time": 96960, "pitch": 31, "duration": 348, "velocity": 102}, {"time": 97318, "pitch": 31, "duration": 110, "velocity": 97}, {"time": 97680, "pitch": 31, "duration": 461, "velocity": 93}, {"time": 98161, "pitch": 41, "duration": 110, "velocity": 95}, {"time": 98280, "pitch": 43, "duration": 110, "velocity": 80}, {"time": 98400, "pitch": 41, "duration": 109, "velocity": 95}, {"time": 98519, "pitch": 38, "duration": 120, "velocity": 90}, {"time": 98639, "pitch": 34, "duration": 109, "velocity": 85}, {"time": 98758, "pitch": 36, "duration": 110, "velocity": 80}, {"time": 98877, "pitch": 29, "duration": 344, "velocity": 103}, {"time": 99241, "pitch": 29, "duration": 111, "velocity": 90}, {"time": 99601, "pitch": 29, "duration": 697, "velocity": 90}, {"time": 100317, "pitch": 36, "duration": 475, "velocity": 100}, {"time": 100802, "pitch": 34, "duration": 319, "velocity": 108}, {"time": 101160, "pitch": 34, "duration": 130, "velocity": 84}, {"time": 101519, "pitch": 34, "duration": 1131, "velocity": 97}, {"time": 102720, "pitch": 33, "duration": 318, "velocity": 105}, {"time": 103078, "pitch": 33, "duration": 129, "velocity": 88}, {"time": 103440, "pitch": 33, "duration": 1197, "velocity": 97}, {"time": 104637, "pitch": 31, "duration": 354, "velocity": 102}, {"time": 105001, "pitch": 31, "duration": 111, "velocity": 97}, {"time": 105361, "pitch": 31, "duration": 458, "velocity": 93}, {"time": 105839, "pitch": 41, "duration": 109, "velocity": 95}, {"time": 105958, "pitch": 43, "duration": 109, "velocity": 80}, {"time": 106077, "pitch": 41, "duration": 111, "velocity": 95}, {"time": 106198, "pitch": 38, "duration": 122, "velocity": 90}, {"time": 106320, "pitch": 34, "duration": 111, "velocity": 85}, {"time": 106441, "pitch": 31, "duration": 350, "velocity": 80}, {"time": 106801, "pitch": 32, "duration": 159, "velocity": 90}, {"time": 107040, "pitch": 37, "duration": 139, "velocity": 90}, {"time": 107760, "pitch": 32, "duration": 710, "velocity": 90}, {"time": 108480, "pitch": 34, "duration": 588, "velocity": 108}, {"time": 109200, "pitch": 34, "duration": 690, "velocity": 100}, {"time": 109920, "pitch": 36, "duration": 228, "velocity": 97}, {"time": 110158, "pitch": 34, "duration": 180, "velocity": 89}, {"time": 110397, "pitch": 33, "duration": 313, "velocity": 89}, {"time": 110761, "pitch": 33, "duration": 101, "velocity": 77}, {"time": 111121, "pitch": 33, "duration": 438, "velocity": 89}, {"time": 111598, "pitch": 33, "duration": 199, "velocity": 77}, {"time": 111837, "pitch": 36, "duration": 222, "velocity": 103}, {"time": 112080, "pitch": 29, "duration": 191, "velocity": 65}, {"time": 112322, "pitch": 31, "duration": 298, "velocity": 106}, {"time": 112680, "pitch": 31, "duration": 80, "velocity": 77}, {"time": 113038, "pitch": 31, "duration": 451, "velocity": 106}, {"time": 113520, "pitch": 36, "duration": 391, "velocity": 106}, {"time": 114001, "pitch": 36, "duration": 199, "velocity": 106}, {"time": 114239, "pitch": 29, "duration": 319, "velocity": 106}, {"time": 114598, "pitch": 29, "duration": 69, "velocity": 89}, {"time": 114959, "pitch": 29, "duration": 233, "velocity": 96}, {"time": 115202, "pitch": 33, "duration": 468, "velocity": 96}, {"time": 115679, "pitch": 38, "duration": 229, "velocity": 97}, {"time": 115918, "pitch": 33, "duration": 229, "velocity": 93}, {"time": 116157, "pitch": 34, "duration": 333, "velocity": 107}, {"time": 116521, "pitch": 34, "duration": 60, "velocity": 98}, {"time": 116881, "pitch": 34, "duration": 408, "velocity": 106}, {"time": 117358, "pitch": 34, "duration": 229, "velocity": 101}, {"time": 117597, "pitch": 36, "duration": 242, "velocity": 77}, {"time": 117839, "pitch": 31, "duration": 202, "velocity": 92}, {"time": 118082, "pitch": 33, "duration": 328, "velocity": 101}, {"time": 118440, "pitch": 33, "duration": 80, "velocity": 97}, {"time": 118798, "pitch": 33, "duration": 774, "velocity": 89}, {"time": 119761, "pitch": 33, "duration": 228, "velocity": 85}, {"time": 119999, "pitch": 31, "duration": 309, "velocity": 101}, {"time": 120358, "pitch": 31, "duration": 99, "velocity": 89}, {"time": 120719, "pitch": 31, "duration": 212, "velocity": 97}, {"time": 120962, "pitch": 36, "duration": 617, "velocity": 106}, {"time": 121678, "pitch": 36, "duration": 199, "velocity": 97}, {"time": 121917, "pitch": 29, "duration": 293, "velocity": 89}, {"time": 122281, "pitch": 29, "duration": 70, "velocity": 83}, {"time": 122640, "pitch": 29, "duration": 919, "velocity": 89}, {"time": 123599, "pitch": 29, "duration": 71, "velocity": 89}, {"time": 123842, "pitch": 34, "duration": 318, "velocity": 108}, {"time": 124200, "pitch": 34, "duration": 129, "velocity": 84}, {"time": 124558, "pitch": 34, "duration": 1132, "velocity": 97}, {"time": 125759, "pitch": 33, "duration": 319, "velocity": 105}, {"time": 126117, "pitch": 33, "duration": 130, "velocity": 88}, {"time": 126479, "pitch": 33, "duration": 1198, "velocity": 97}, {"time": 127677, "pitch": 31, "duration": 353, "velocity": 102}, {"time": 128040, "pitch": 31, "duration": 111, "velocity": 97}, {"time": 128400, "pitch": 31, "duration": 458, "velocity": 93}, {"time": 128878, "pitch": 41, "duration": 109, "velocity": 95}, {"time": 128997, "pitch": 43, "duration": 110, "velocity": 80}, {"time": 129117, "pitch": 41, "duration": 111, "velocity": 95}, {"time": 129238, "pitch": 38, "duration": 121, "velocity": 90}, {"time": 129359, "pitch": 34, "duration": 111, "velocity": 85}, {"time": 129480, "pitch": 36, "duration": 111, "velocity": 80}, {"time": 129602, "pitch": 29, "duration": 338, "velocity": 103}, {"time": 129960, "pitch": 29, "duration": 109, "velocity": 90}, {"time": 130318, "pitch": 29, "duration": 703, "velocity": 90}, {"time": 131041, "pitch": 36, "duration": 468, "velocity": 100}, {"time": 131519, "pitch": 34, "duration": 318, "velocity": 108}, {"time": 131877, "pitch": 34, "duration": 130, "velocity": 84}, {"time": 132239, "pitch": 34, "duration": 1128, "velocity": 97}, {"time": 133437, "pitch": 33, "duration": 323, "velocity": 105}, {"time": 133800, "pitch": 33, "duration": 131, "velocity": 88}, {"time": 134160, "pitch": 33, "duration": 1201, "velocity": 97}, {"time": 135361, "pitch": 31, "duration": 349, "velocity": 102}, {"time": 135720, "pitch": 31, "duration": 109, "velocity": 97}, {"time": 136078, "pitch": 31, "duration": 461, "velocity": 93}, {"time": 136559, "pitch": 41, "duration": 111, "velocity": 95}, {"time": 136680, "pitch": 43, "duration": 111, "velocity": 80}, {"time": 136801, "pitch": 41, "duration": 110, "velocity": 95}, {"time": 136921, "pitch": 38, "duration": 119, "velocity": 90}, {"time": 137040, "pitch": 34, "duration": 110, "velocity": 85}, {"time": 137160, "pitch": 36, "duration": 109, "velocity": 80}, {"time": 137279, "pitch": 29, "duration": 338, "velocity": 103}, {"time": 137637, "pitch": 29, "duration": 110, "velocity": 90}, {"time": 137999, "pitch": 29, "duration": 700, "velocity": 90}, {"time": 138480, "pitch": 41, "duration": 707, "velocity": 90}, {"time": 139196, "pitch": 34, "duration": 324, "velocity": 108}, {"time": 139560, "pitch": 34, "duration": 131, "velocity": 84}, {"time": 139920, "pitch": 34, "duration": 1131, "velocity": 97}, {"time": 141121, "pitch": 33, "duration": 319, "velocity": 105}, {"time": 141479, "pitch": 33, "duration": 130, "velocity": 88}, {"time": 141838, "pitch": 33, "duration": 1201, "velocity": 97}, {"time": 143039, "pitch": 31, "duration": 353, "velocity": 102}, {"time": 143402, "pitch": 31, "duration": 111, "velocity": 97}, {"time": 143762, "pitch": 31, "duration": 458, "velocity": 93}, {"time": 144240, "pitch": 41, "duration": 109, "velocity": 95}, {"time": 144359, "pitch": 43, "duration": 110, "velocity": 80}, {"time": 144479, "pitch": 41, "duration": 111, "velocity": 95}, {"time": 144600, "pitch": 38, "duration": 121, "velocity": 90}, {"time": 144721, "pitch": 34, "duration": 111, "velocity": 85}, {"time": 144842, "pitch": 36, "duration": 111, "velocity": 80}, {"time": 144964, "pitch": 29, "duration": 338, "velocity": 103}, {"time": 145322, "pitch": 29, "duration": 109, "velocity": 90}, {"time": 145680, "pitch": 29, "duration": 703, "velocity": 90}, {"time": 146403, "pitch": 36, "duration": 468, "velocity": 100}, {"time": 146881, "pitch": 34, "duration": 318, "velocity": 108}, {"time": 147239, "pitch": 34, "duration": 130, "velocity": 84}, {"time": 147601, "pitch": 34, "duration": 1128, "velocity": 97}, {"time": 148799, "pitch": 33, "duration": 323, "velocity": 105}, {"time": 149162, "pitch": 33, "duration": 131, "velocity": 88}, {"time": 149522, "pitch": 33, "duration": 1201, "velocity": 97}, {"time": 150723, "pitch": 31, "duration": 349, "velocity": 102}, {"time": 151082, "pitch": 31, "duration": 109, "velocity": 97}, {"time": 151440, "pitch": 31, "duration": 461, "velocity": 93}, {"time": 151921, "pitch": 41, "duration": 111, "velocity": 95}, {"time": 152042, "pitch": 43, "duration": 111, "velocity": 80}, {"time": 152163, "pitch": 41, "duration": 110, "velocity": 95}, {"time": 152283, "pitch": 38, "duration": 119, "velocity": 90}, {"time": 152402, "pitch": 34, "duration": 110, "velocity": 85}, {"time": 152522, "pitch": 36, "duration": 109, "velocity": 80}, {"time": 152641, "pitch": 29, "duration": 338, "velocity": 103}, {"time": 152999, "pitch": 29, "duration": 110, "velocity": 90}, {"time": 153361, "pitch": 29, "duration": 700, "velocity": 90}, {"time": 153842, "pitch": 41, "duration": 707, "velocity": 90}, {"time": 154558, "pitch": 34, "duration": 324, "velocity": 108}, {"time": 154922, "pitch": 34, "duration": 131, "velocity": 84}, {"time": 155282, "pitch": 34, "duration": 1131, "velocity": 97}, {"time": 156483, "pitch": 33, "duration": 319, "velocity": 105}, {"time": 156841, "pitch": 33, "duration": 130, "velocity": 88}, {"time": 157200, "pitch": 33, "duration": 1201, "velocity": 97}, {"time": 158401, "pitch": 31, "duration": 348, "velocity": 102}, {"time": 158759, "pitch": 31, "duration": 109, "velocity": 97}, {"time": 159121, "pitch": 31, "duration": 461, "velocity": 93}, {"time": 159602, "pitch": 41, "duration": 109, "velocity": 95}, {"time": 159721, "pitch": 43, "duration": 110, "velocity": 80}, {"time": 159841, "pitch": 41, "duration": 109, "velocity": 95}, {"time": 159960, "pitch": 38, "duration": 120, "velocity": 90}, {"time": 160080, "pitch": 34, "duration": 109, "velocity": 85}, {"time": 160199, "pitch": 36, "duration": 109, "velocity": 80}, {"time": 160318, "pitch": 29, "duration": 344, "velocity": 103}, {"time": 160682, "pitch": 29, "duration": 111, "velocity": 90}, {"time": 161046, "pitch": 29, "duration": 707, "velocity": 90}, {"time": 161773, "pitch": 36, "duration": 475, "velocity": 100}], "annotations": [{"time": 218, "annotation": {"number": 7, "value": 68}, "group": "control_change"}, {"time": 228, "annotation": {"number": 11, "value": 127}, "group": "control_change"}, {"time": 238, "annotation": {"number": 10, "value": 64}, "group": "control_change"}, {"time": 249, "annotation": {"number": 91, "value": 6}, "group": "control_change"}, {"time": 259, "annotation": {"number": 93, "value": 10}, "group": "control_change"}, {"time": 269, "annotation": {"number": 101, "value": 0}, "group": "control_change"}, {"time": 280, "annotation": {"number": 100, "value": 0}, "group": "control_change"}, {"time": 290, "annotation": {"number": 6, "value": 12}, "group": "control_change"}, {"time": 300, "annotation": {"number": 101, "value": 127}, "group": "control_change"}, {"time": 311, "annotation": {"number": 100, "value": 127}, "group": "control_change"}]}, {"program": 0, "is_drum": false, "name": "F.GT", "annotations": [{"time": 187, "annotation": {"number": 0, "value": 32}, "group": "control_change"}, {"time": 197, "annotation": {"number": 32, "value": 2}, "group": "control_change"}]}, {"program": 25, "is_drum": false, "name": "F.GT", "notes": [{"time": 31677, "pitch": 60, "duration": 1824, "velocity": 95}, {"time": 31798, "pitch": 58, "duration": 1652, "velocity": 97}, {"time": 31919, "pitch": 53, "duration": 1561, "velocity": 71}, {"time": 32040, "pitch": 65, "duration": 1440, "velocity": 95}, {"time": 32400, "pitch": 62, "duration": 1131, "velocity": 97}, {"time": 35519, "pitch": 58, "duration": 358, "velocity": 95}, {"time": 35638, "pitch": 53, "duration": 1649, "velocity": 97}, {"time": 35758, "pitch": 50, "duration": 1559, "velocity": 71}, {"time": 35877, "pitch": 60, "duration": 1440, "velocity": 95}, {"time": 36239, "pitch": 58, "duration": 1128, "velocity": 97}, {"time": 39361, "pitch": 60, "duration": 1818, "velocity": 95}, {"time": 39481, "pitch": 58, "duration": 1649, "velocity": 97}, {"time": 39600, "pitch": 53, "duration": 1560, "velocity": 71}, {"time": 39720, "pitch": 65, "duration": 1440, "velocity": 95}, {"time": 40078, "pitch": 62, "duration": 1131, "velocity": 97}, {"time": 43196, "pitch": 58, "duration": 364, "velocity": 95}, {"time": 43318, "pitch": 55, "duration": 1652, "velocity": 97}, {"time": 43439, "pitch": 53, "duration": 1561, "velocity": 71}, {"time": 43560, "pitch": 58, "duration": 1440, "velocity": 95}, {"time": 43920, "pitch": 60, "duration": 1131, "velocity": 97}, {"time": 77763, "pitch": 60, "duration": 1818, "velocity": 95}, {"time": 77882, "pitch": 58, "duration": 1649, "velocity": 97}, {"time": 78002, "pitch": 53, "duration": 1559, "velocity": 71}, {"time": 78121, "pitch": 65, "duration": 1440, "velocity": 95}, {"time": 78479, "pitch": 62, "duration": 1132, "velocity": 97}, {"time": 81598, "pitch": 58, "duration": 364, "velocity": 95}, {"time": 81719, "pitch": 53, "duration": 1652, "velocity": 97}, {"time": 81840, "pitch": 50, "duration": 1561, "velocity": 71}, {"time": 81962, "pitch": 60, "duration": 1439, "velocity": 95}, {"time": 82321, "pitch": 58, "duration": 1131, "velocity": 97}, {"time": 85440, "pitch": 60, "duration": 1818, "velocity": 95}, {"time": 85560, "pitch": 58, "duration": 1649, "velocity": 97}, {"time": 85679, "pitch": 53, "duration": 1559, "velocity": 71}, {"time": 85798, "pitch": 65, "duration": 1440, "velocity": 95}, {"time": 86160, "pitch": 62, "duration": 1128, "velocity": 97}, {"time": 89283, "pitch": 58, "duration": 358, "velocity": 95}, {"time": 89402, "pitch": 55, "duration": 1649, "velocity": 97}, {"time": 89521, "pitch": 53, "duration": 1560, "velocity": 71}, {"time": 89641, "pitch": 58, "duration": 1440, "velocity": 95}, {"time": 89999, "pitch": 60, "duration": 1131, "velocity": 97}, {"time": 108480, "pitch": 60, "duration": 1818, "velocity": 95}, {"time": 108599, "pitch": 58, "duration": 1649, "velocity": 97}, {"time": 108718, "pitch": 53, "duration": 1560, "velocity": 71}, {"time": 108838, "pitch": 65, "duration": 1440, "velocity": 95}, {"time": 109200, "pitch": 62, "duration": 1128, "velocity": 97}, {"time": 112322, "pitch": 58, "duration": 358, "velocity": 95}, {"time": 112441, "pitch": 53, "duration": 1649, "velocity": 97}, {"time": 112561, "pitch": 50, "duration": 1559, "velocity": 71}, {"time": 112680, "pitch": 60, "duration": 1440, "velocity": 95}, {"time": 113038, "pitch": 58, "duration": 1132, "velocity": 97}, {"time": 116157, "pitch": 60, "duration": 1824, "velocity": 95}, {"time": 116278, "pitch": 58, "duration": 1652, "velocity": 97}, {"time": 116399, "pitch": 53, "duration": 1562, "velocity": 71}, {"time": 116521, "pitch": 65, "duration": 1440, "velocity": 95}, {"time": 116881, "pitch": 62, "duration": 1130, "velocity": 97}, {"time": 119999, "pitch": 58, "duration": 359, "velocity": 95}, {"time": 120119, "pitch": 55, "duration": 1649, "velocity": 97}, {"time": 120238, "pitch": 53, "duration": 1560, "velocity": 71}, {"time": 120358, "pitch": 58, "duration": 1440, "velocity": 95}, {"time": 120719, "pitch": 60, "duration": 1128, "velocity": 97}], "annotations": [{"time": 218, "annotation": {"number": 7, "value": 68}, "group": "control_change"}, {"time": 228, "annotation": {"number": 11, "value": 120}, "group": "control_change"}, {"time": 238, "annotation": {"number": 10, "value": 123}, "group": "control_change"}, {"time": 249, "annotation": {"number": 91, "value": 68}, "group": "control_change"}, {"time": 259, "annotation": {"number": 93, "value": 11}, "group": "control_change"}, {"time": 269, "annotation": {"number": 101, "value": 0}, "group": "control_change"}, {"time": 280, "annotation": {"number": 100, "value": 0}, "group": "control_change"}, {"time": 290, "annotation": {"number": 6, "value": 12}, "group": "control_change"}, {"time": 300, "annotation": {"number": 101, "value": 127}, "group": "control_change"}, {"time": 311, "annotation": {"number": 100, "value": 127}, "group": "control_change"}]}, {"program": 0, "is_drum": false, "name": "MELODY", "annotations": [{"time": 187, "annotation": {"number": 0, "value": 0}, "group": "control_change"}, {"time": 197, "annotation": {"number": 32, "value": 2}, "group": "control_change"}]}, {"program": 73, "is_drum": false, "name": "MELODY", "notes": [{"time": 960, "pitch": 69, "duration": 1420, "velocity": 100}, {"time": 2400, "pitch": 69, "duration": 119, "velocity": 95}, {"time": 2539, "pitch": 67, "duration": 100, "velocity": 91}, {"time": 2639, "pitch": 65, "duration": 219, "velocity": 86}, {"time": 2877, "pitch": 67, "duration": 684, "velocity": 97}, {"time": 3601, "pitch": 65, "duration": 1201, "velocity": 90}, {"time": 4802, "pitch": 69, "duration": 448, "velocity": 98}, {"time": 5280, "pitch": 70, "duration": 219, "velocity": 106}, {"time": 5519, "pitch": 69, "duration": 450, "velocity": 101}, {"time": 6000, "pitch": 67, "duration": 451, "velocity": 95}, {"time": 6481, "pitch": 65, "duration": 219, "velocity": 88}, {"time": 6720, "pitch": 67, "duration": 448, "velocity": 98}, {"time": 7197, "pitch": 72, "duration": 223, "velocity": 106}, {"time": 7440, "pitch": 69, "duration": 959, "velocity": 97}, {"time": 8637, "pitch": 69, "duration": 1420, "velocity": 106}, {"time": 10077, "pitch": 69, "duration": 121, "velocity": 100}, {"time": 10219, "pitch": 67, "duration": 101, "velocity": 97}, {"time": 10320, "pitch": 65, "duration": 222, "velocity": 90}, {"time": 10562, "pitch": 67, "duration": 338, "velocity": 101}, {"time": 10920, "pitch": 67, "duration": 339, "velocity": 96}, {"time": 11278, "pitch": 65, "duration": 724, "velocity": 92}, {"time": 12002, "pitch": 60, "duration": 119, "velocity": 85}, {"time": 12121, "pitch": 62, "duration": 120, "velocity": 92}, {"time": 12241, "pitch": 65, "duration": 119, "velocity": 97}, {"time": 12360, "pitch": 67, "duration": 120, "velocity": 103}, {"time": 12480, "pitch": 69, "duration": 679, "velocity": 105}, {"time": 13200, "pitch": 70, "duration": 222, "velocity": 112}, {"time": 13442, "pitch": 69, "duration": 219, "velocity": 106}, {"time": 13681, "pitch": 67, "duration": 219, "velocity": 99}, {"time": 13920, "pitch": 65, "duration": 219, "velocity": 94}, {"time": 14158, "pitch": 67, "duration": 219, "velocity": 104}, {"time": 14397, "pitch": 65, "duration": 1440, "velocity": 99}, {"time": 16322, "pitch": 62, "duration": 119, "velocity": 99}, {"time": 16441, "pitch": 65, "duration": 80, "velocity": 99}, {"time": 16561, "pitch": 65, "duration": 119, "velocity": 99}, {"time": 16680, "pitch": 62, "duration": 100, "velocity": 99}, {"time": 16800, "pitch": 67, "duration": 228, "velocity": 99}, {"time": 17038, "pitch": 62, "duration": 120, "velocity": 99}, {"time": 17158, "pitch": 62, "duration": 654, "velocity": 85}, {"time": 18001, "pitch": 65, "duration": 159, "velocity": 107}, {"time": 18239, "pitch": 62, "duration": 448, "velocity": 107}, {"time": 18717, "pitch": 62, "duration": 222, "velocity": 90}, {"time": 18959, "pitch": 60, "duration": 780, "velocity": 90}, {"time": 20157, "pitch": 62, "duration": 121, "velocity": 99}, {"time": 20278, "pitch": 65, "duration": 81, "velocity": 96}, {"time": 20399, "pitch": 65, "duration": 122, "velocity": 99}, {"time": 20521, "pitch": 62, "duration": 121, "velocity": 91}, {"time": 20642, "pitch": 67, "duration": 229, "velocity": 94}, {"time": 20881, "pitch": 62, "duration": 477, "velocity": 87}, {"time": 21597, "pitch": 62, "duration": 232, "velocity": 99}, {"time": 21839, "pitch": 60, "duration": 223, "velocity": 85}, {"time": 22082, "pitch": 67, "duration": 338, "velocity": 81}, {"time": 22440, "pitch": 69, "duration": 358, "velocity": 99}, {"time": 22798, "pitch": 70, "duration": 229, "velocity": 99}, {"time": 23037, "pitch": 69, "duration": 364, "velocity": 107}, {"time": 23401, "pitch": 67, "duration": 340, "velocity": 101}, {"time": 23761, "pitch": 65, "duration": 159, "velocity": 95}, {"time": 23999, "pitch": 65, "duration": 100, "velocity": 97}, {"time": 24119, "pitch": 65, "duration": 99, "velocity": 97}, {"time": 24238, "pitch": 65, "duration": 100, "velocity": 99}, {"time": 24358, "pitch": 65, "duration": 99, "velocity": 91}, {"time": 24477, "pitch": 67, "duration": 242, "velocity": 91}, {"time": 24719, "pitch": 62, "duration": 482, "velocity": 105}, {"time": 25678, "pitch": 65, "duration": 219, "velocity": 107}, {"time": 25917, "pitch": 62, "duration": 454, "velocity": 107}, {"time": 26402, "pitch": 62, "duration": 229, "velocity": 98}, {"time": 26640, "pitch": 60, "duration": 617, "velocity": 90}, {"time": 27842, "pitch": 62, "duration": 119, "velocity": 99}, {"time": 27961, "pitch": 65, "duration": 80, "velocity": 99}, {"time": 28080, "pitch": 65, "duration": 110, "velocity": 93}, {"time": 28200, "pitch": 62, "duration": 119, "velocity": 99}, {"time": 28319, "pitch": 67, "duration": 209, "velocity": 93}, {"time": 28558, "pitch": 62, "duration": 80, "velocity": 96}, {"time": 28677, "pitch": 62, "duration": 574, "velocity": 86}, {"time": 29520, "pitch": 60, "duration": 120, "velocity": 107}, {"time": 29640, "pitch": 62, "duration": 109, "velocity": 105}, {"time": 29759, "pitch": 67, "duration": 358, "velocity": 107}, {"time": 30117, "pitch": 69, "duration": 362, "velocity": 107}, {"time": 30479, "pitch": 70, "duration": 232, "velocity": 93}, {"time": 30722, "pitch": 69, "duration": 477, "velocity": 103}, {"time": 31438, "pitch": 65, "duration": 239, "velocity": 103}, {"time": 31677, "pitch": 67, "duration": 323, "velocity": 91}, {"time": 32040, "pitch": 67, "duration": 340, "velocity": 107}, {"time": 32400, "pitch": 65, "duration": 697, "velocity": 90}, {"time": 33359, "pitch": 65, "duration": 222, "velocity": 99}, {"time": 33602, "pitch": 67, "duration": 338, "velocity": 99}, {"time": 33960, "pitch": 67, "duration": 338, "velocity": 93}, {"time": 34318, "pitch": 69, "duration": 723, "velocity": 93}, {"time": 35280, "pitch": 65, "duration": 159, "velocity": 106}, {"time": 35519, "pitch": 67, "duration": 299, "velocity": 107}, {"time": 35877, "pitch": 67, "duration": 312, "velocity": 90}, {"time": 36239, "pitch": 65, "duration": 451, "velocity": 81}, {"time": 36720, "pitch": 60, "duration": 239, "velocity": 93}, {"time": 36959, "pitch": 62, "duration": 239, "velocity": 93}, {"time": 37198, "pitch": 60, "duration": 1161, "velocity": 93}, {"time": 39361, "pitch": 67, "duration": 299, "velocity": 110}, {"time": 39720, "pitch": 67, "duration": 298, "velocity": 99}, {"time": 40078, "pitch": 65, "duration": 723, "velocity": 91}, {"time": 41040, "pitch": 65, "duration": 219, "velocity": 104}, {"time": 41279, "pitch": 67, "duration": 269, "velocity": 93}, {"time": 41637, "pitch": 67, "duration": 321, "velocity": 99}, {"time": 41999, "pitch": 69, "duration": 700, "velocity": 105}, {"time": 42719, "pitch": 67, "duration": 219, "velocity": 94}, {"time": 42958, "pitch": 65, "duration": 219, "velocity": 107}, {"time": 43196, "pitch": 67, "duration": 364, "velocity": 107}, {"time": 43560, "pitch": 67, "duration": 310, "velocity": 93}, {"time": 43920, "pitch": 69, "duration": 577, "velocity": 81}, {"time": 44517, "pitch": 60, "duration": 100, "velocity": 98}, {"time": 44636, "pitch": 65, "duration": 202, "velocity": 98}, {"time": 44879, "pitch": 67, "duration": 461, "velocity": 98}, {"time": 45360, "pitch": 65, "duration": 1022, "velocity": 93}, {"time": 48479, "pitch": 69, "duration": 121, "velocity": 95}, {"time": 48620, "pitch": 67, "duration": 101, "velocity": 91}, {"time": 48721, "pitch": 65, "duration": 222, "velocity": 86}, {"time": 48964, "pitch": 67, "duration": 676, "velocity": 97}, {"time": 49680, "pitch": 65, "duration": 1201, "velocity": 90}, {"time": 50881, "pitch": 69, "duration": 448, "velocity": 98}, {"time": 51359, "pitch": 70, "duration": 222, "velocity": 106}, {"time": 51601, "pitch": 69, "duration": 451, "velocity": 101}, {"time": 52082, "pitch": 67, "duration": 448, "velocity": 95}, {"time": 52560, "pitch": 65, "duration": 219, "velocity": 88}, {"time": 52799, "pitch": 67, "duration": 454, "velocity": 98}, {"time": 53283, "pitch": 72, "duration": 219, "velocity": 106}, {"time": 53522, "pitch": 69, "duration": 959, "velocity": 97}, {"time": 56163, "pitch": 65, "duration": 120, "velocity": 100}, {"time": 56402, "pitch": 65, "duration": 219, "velocity": 90}, {"time": 56641, "pitch": 67, "duration": 338, "velocity": 101}, {"time": 56999, "pitch": 67, "duration": 342, "velocity": 96}, {"time": 57361, "pitch": 65, "duration": 720, "velocity": 92}, {"time": 58081, "pitch": 60, "duration": 119, "velocity": 85}, {"time": 58200, "pitch": 62, "duration": 120, "velocity": 92}, {"time": 58320, "pitch": 65, "duration": 119, "velocity": 97}, {"time": 58439, "pitch": 67, "duration": 119, "velocity": 103}, {"time": 58558, "pitch": 69, "duration": 684, "velocity": 105}, {"time": 59282, "pitch": 70, "duration": 219, "velocity": 112}, {"time": 59521, "pitch": 69, "duration": 219, "velocity": 106}, {"time": 59760, "pitch": 67, "duration": 219, "velocity": 99}, {"time": 59998, "pitch": 65, "duration": 223, "velocity": 94}, {"time": 60241, "pitch": 67, "duration": 222, "velocity": 104}, {"time": 60483, "pitch": 65, "duration": 1440, "velocity": 99}, {"time": 62401, "pitch": 62, "duration": 119, "velocity": 99}, {"time": 62520, "pitch": 65, "duration": 80, "velocity": 99}, {"time": 62640, "pitch": 65, "duration": 119, "velocity": 99}, {"time": 62759, "pitch": 62, "duration": 99, "velocity": 99}, {"time": 62878, "pitch": 67, "duration": 233, "velocity": 99}, {"time": 63121, "pitch": 62, "duration": 121, "velocity": 99}, {"time": 63242, "pitch": 62, "duration": 649, "velocity": 85}, {"time": 64080, "pitch": 65, "duration": 159, "velocity": 107}, {"time": 64318, "pitch": 62, "duration": 455, "velocity": 107}, {"time": 64803, "pitch": 62, "duration": 219, "velocity": 90}, {"time": 65042, "pitch": 60, "duration": 777, "velocity": 90}, {"time": 66243, "pitch": 62, "duration": 119, "velocity": 99}, {"time": 66362, "pitch": 65, "duration": 80, "velocity": 96}, {"time": 66482, "pitch": 65, "duration": 119, "velocity": 99}, {"time": 66601, "pitch": 62, "duration": 120, "velocity": 91}, {"time": 66721, "pitch": 67, "duration": 229, "velocity": 94}, {"time": 66959, "pitch": 62, "duration": 482, "velocity": 87}, {"time": 67922, "pitch": 60, "duration": 219, "velocity": 85}, {"time": 68161, "pitch": 67, "duration": 338, "velocity": 81}, {"time": 68519, "pitch": 69, "duration": 362, "velocity": 99}, {"time": 68881, "pitch": 70, "duration": 232, "velocity": 99}, {"time": 69123, "pitch": 69, "duration": 597, "velocity": 107}, {"time": 70078, "pitch": 65, "duration": 101, "velocity": 97}, {"time": 70199, "pitch": 65, "duration": 101, "velocity": 97}, {"time": 70321, "pitch": 65, "duration": 101, "velocity": 99}, {"time": 70442, "pitch": 65, "duration": 101, "velocity": 91}, {"time": 70563, "pitch": 67, "duration": 239, "velocity": 91}, {"time": 70802, "pitch": 62, "duration": 477, "velocity": 105}, {"time": 71761, "pitch": 65, "duration": 222, "velocity": 107}, {"time": 72003, "pitch": 62, "duration": 448, "velocity": 107}, {"time": 72481, "pitch": 62, "duration": 228, "velocity": 98}, {"time": 72719, "pitch": 60, "duration": 623, "velocity": 90}, {"time": 73921, "pitch": 62, "duration": 119, "velocity": 99}, {"time": 74040, "pitch": 65, "duration": 80, "velocity": 99}, {"time": 74159, "pitch": 65, "duration": 110, "velocity": 93}, {"time": 74279, "pitch": 62, "duration": 119, "velocity": 99}, {"time": 74398, "pitch": 67, "duration": 212, "velocity": 93}, {"time": 74640, "pitch": 62, "duration": 402, "velocity": 86}, {"time": 75261, "pitch": 60, "duration": 90, "velocity": 107}, {"time": 75360, "pitch": 60, "duration": 219, "velocity": 105}, {"time": 75599, "pitch": 60, "duration": 219, "velocity": 105}, {"time": 75838, "pitch": 67, "duration": 364, "velocity": 107}, {"time": 76202, "pitch": 69, "duration": 360, "velocity": 107}, {"time": 76562, "pitch": 70, "duration": 228, "velocity": 93}, {"time": 76800, "pitch": 69, "duration": 478, "velocity": 103}, {"time": 77520, "pitch": 65, "duration": 243, "velocity": 103}, {"time": 77763, "pitch": 67, "duration": 318, "velocity": 91}, {"time": 78121, "pitch": 67, "duration": 338, "velocity": 107}, {"time": 78479, "pitch": 65, "duration": 704, "velocity": 90}, {"time": 79442, "pitch": 65, "duration": 218, "velocity": 99}, {"time": 79680, "pitch": 67, "duration": 339, "velocity": 99}, {"time": 80039, "pitch": 67, "duration": 341, "velocity": 93}, {"time": 80400, "pitch": 69, "duration": 720, "velocity": 93}, {"time": 81359, "pitch": 65, "duration": 159, "velocity": 106}, {"time": 81598, "pitch": 67, "duration": 303, "velocity": 107}, {"time": 81962, "pitch": 67, "duration": 310, "velocity": 90}, {"time": 82321, "pitch": 65, "duration": 448, "velocity": 81}, {"time": 82799, "pitch": 60, "duration": 239, "velocity": 93}, {"time": 83038, "pitch": 62, "duration": 242, "velocity": 93}, {"time": 83280, "pitch": 60, "duration": 1158, "velocity": 93}, {"time": 85440, "pitch": 67, "duration": 299, "velocity": 110}, {"time": 85798, "pitch": 67, "duration": 302, "velocity": 99}, {"time": 86160, "pitch": 65, "duration": 720, "velocity": 91}, {"time": 87119, "pitch": 65, "duration": 219, "velocity": 104}, {"time": 87358, "pitch": 67, "duration": 272, "velocity": 93}, {"time": 87721, "pitch": 67, "duration": 321, "velocity": 99}, {"time": 88081, "pitch": 69, "duration": 697, "velocity": 105}, {"time": 88798, "pitch": 67, "duration": 222, "velocity": 94}, {"time": 89040, "pitch": 65, "duration": 222, "velocity": 107}, {"time": 89283, "pitch": 67, "duration": 358, "velocity": 107}, {"time": 89641, "pitch": 67, "duration": 308, "velocity": 93}, {"time": 89999, "pitch": 69, "duration": 582, "velocity": 81}, {"time": 90601, "pitch": 60, "duration": 101, "velocity": 98}, {"time": 90722, "pitch": 65, "duration": 199, "velocity": 98}, {"time": 90961, "pitch": 67, "duration": 458, "velocity": 98}, {"time": 91439, "pitch": 65, "duration": 1022, "velocity": 93}, {"time": 108480, "pitch": 67, "duration": 318, "velocity": 91}, {"time": 108838, "pitch": 67, "duration": 341, "velocity": 107}, {"time": 109200, "pitch": 65, "duration": 700, "velocity": 90}, {"time": 110158, "pitch": 65, "duration": 219, "velocity": 99}, {"time": 110397, "pitch": 67, "duration": 344, "velocity": 99}, {"time": 110761, "pitch": 67, "duration": 340, "velocity": 93}, {"time": 111121, "pitch": 69, "duration": 716, "velocity": 93}, {"time": 112080, "pitch": 65, "duration": 161, "velocity": 106}, {"time": 112322, "pitch": 67, "duration": 298, "velocity": 107}, {"time": 112680, "pitch": 67, "duration": 309, "velocity": 90}, {"time": 113038, "pitch": 65, "duration": 451, "velocity": 81}, {"time": 113520, "pitch": 60, "duration": 242, "velocity": 93}, {"time": 113762, "pitch": 62, "duration": 239, "velocity": 93}, {"time": 114001, "pitch": 60, "duration": 1160, "velocity": 93}, {"time": 116157, "pitch": 67, "duration": 303, "velocity": 110}, {"time": 116521, "pitch": 67, "duration": 300, "velocity": 99}, {"time": 116881, "pitch": 65, "duration": 716, "velocity": 91}, {"time": 117839, "pitch": 65, "duration": 223, "velocity": 104}, {"time": 118082, "pitch": 67, "duration": 318, "velocity": 93}, {"time": 118440, "pitch": 67, "duration": 318, "velocity": 99}, {"time": 118798, "pitch": 69, "duration": 502, "velocity": 105}, {"time": 119300, "pitch": 67, "duration": 202, "velocity": 80}, {"time": 119900, "pitch": 60, "duration": 99, "velocity": 80}, {"time": 119999, "pitch": 67, "duration": 359, "velocity": 107}, {"time": 120358, "pitch": 67, "duration": 311, "velocity": 93}, {"time": 120719, "pitch": 69, "duration": 581, "velocity": 81}, {"time": 121320, "pitch": 60, "duration": 99, "velocity": 98}, {"time": 121439, "pitch": 65, "duration": 199, "velocity": 98}, {"time": 121678, "pitch": 67, "duration": 461, "velocity": 98}, {"time": 122159, "pitch": 65, "duration": 1019, "velocity": 93}, {"time": 125282, "pitch": 69, "duration": 119, "velocity": 95}, {"time": 125421, "pitch": 67, "duration": 99, "velocity": 91}, {"time": 125520, "pitch": 65, "duration": 219, "velocity": 86}, {"time": 125759, "pitch": 67, "duration": 680, "velocity": 97}, {"time": 126479, "pitch": 65, "duration": 1198, "velocity": 90}, {"time": 127677, "pitch": 69, "duration": 454, "velocity": 98}, {"time": 128162, "pitch": 70, "duration": 218, "velocity": 106}, {"time": 128400, "pitch": 69, "duration": 448, "velocity": 101}, {"time": 128878, "pitch": 67, "duration": 451, "velocity": 95}, {"time": 129359, "pitch": 65, "duration": 222, "velocity": 88}, {"time": 129602, "pitch": 67, "duration": 447, "velocity": 98}, {"time": 130079, "pitch": 72, "duration": 219, "velocity": 106}, {"time": 130318, "pitch": 69, "duration": 962, "velocity": 97}, {"time": 131519, "pitch": 69, "duration": 1420, "velocity": 100}, {"time": 132959, "pitch": 65, "duration": 119, "velocity": 100}, {"time": 133198, "pitch": 65, "duration": 219, "velocity": 90}, {"time": 133437, "pitch": 67, "duration": 343, "velocity": 101}, {"time": 133800, "pitch": 67, "duration": 340, "velocity": 96}, {"time": 134160, "pitch": 65, "duration": 717, "velocity": 92}, {"time": 134877, "pitch": 60, "duration": 121, "velocity": 85}, {"time": 134998, "pitch": 62, "duration": 121, "velocity": 92}, {"time": 135119, "pitch": 65, "duration": 121, "velocity": 97}, {"time": 135240, "pitch": 67, "duration": 121, "velocity": 103}, {"time": 135361, "pitch": 69, "duration": 677, "velocity": 105}, {"time": 136078, "pitch": 70, "duration": 219, "velocity": 112}, {"time": 136317, "pitch": 69, "duration": 222, "velocity": 106}, {"time": 136559, "pitch": 67, "duration": 222, "velocity": 99}, {"time": 136801, "pitch": 65, "duration": 219, "velocity": 94}, {"time": 137040, "pitch": 67, "duration": 219, "velocity": 104}, {"time": 137279, "pitch": 65, "duration": 1440, "velocity": 99}, {"time": 139196, "pitch": 69, "duration": 684, "velocity": 100}, {"time": 139920, "pitch": 72, "duration": 448, "velocity": 95}, {"time": 140398, "pitch": 70, "duration": 451, "velocity": 91}, {"time": 140879, "pitch": 69, "duration": 222, "velocity": 86}, {"time": 141121, "pitch": 67, "duration": 677, "velocity": 97}, {"time": 141838, "pitch": 69, "duration": 481, "velocity": 90}, {"time": 142319, "pitch": 67, "duration": 242, "velocity": 85}, {"time": 142561, "pitch": 65, "duration": 239, "velocity": 80}, {"time": 143039, "pitch": 72, "duration": 101, "velocity": 98}, {"time": 143160, "pitch": 70, "duration": 222, "velocity": 106}, {"time": 143402, "pitch": 70, "duration": 281, "velocity": 101}, {"time": 143762, "pitch": 69, "duration": 448, "velocity": 95}, {"time": 144240, "pitch": 72, "duration": 451, "velocity": 89}, {"time": 144721, "pitch": 69, "duration": 222, "velocity": 89}, {"time": 144964, "pitch": 70, "duration": 218, "velocity": 89}, {"time": 145202, "pitch": 69, "duration": 219, "velocity": 89}, {"time": 145441, "pitch": 65, "duration": 219, "velocity": 89}, {"time": 145680, "pitch": 65, "duration": 602, "velocity": 89}, {"time": 146881, "pitch": 65, "duration": 680, "velocity": 95}, {"time": 147601, "pitch": 69, "duration": 451, "velocity": 100}, {"time": 148082, "pitch": 65, "duration": 219, "velocity": 90}, {"time": 148321, "pitch": 65, "duration": 478, "velocity": 95}, {"time": 148799, "pitch": 64, "duration": 343, "velocity": 101}, {"time": 149162, "pitch": 67, "duration": 340, "velocity": 96}, {"time": 149522, "pitch": 65, "duration": 717, "velocity": 92}, {"time": 150723, "pitch": 69, "duration": 677, "velocity": 105}, {"time": 151440, "pitch": 67, "duration": 99, "velocity": 112}, {"time": 151619, "pitch": 67, "duration": 100, "velocity": 106}, {"time": 151800, "pitch": 65, "duration": 101, "velocity": 99}, {"time": 151982, "pitch": 69, "duration": 500, "velocity": 94}, {"time": 152502, "pitch": 67, "duration": 99, "velocity": 104}, {"time": 152641, "pitch": 67, "duration": 119, "velocity": 104}, {"time": 152800, "pitch": 65, "duration": 1201, "velocity": 99}, {"time": 154558, "pitch": 72, "duration": 684, "velocity": 100}, {"time": 155282, "pitch": 77, "duration": 448, "velocity": 95}, {"time": 155760, "pitch": 76, "duration": 451, "velocity": 91}, {"time": 156241, "pitch": 72, "duration": 222, "velocity": 86}, {"time": 156483, "pitch": 74, "duration": 677, "velocity": 97}, {"time": 157200, "pitch": 72, "duration": 723, "velocity": 90}, {"time": 158401, "pitch": 69, "duration": 448, "velocity": 100}, {"time": 158878, "pitch": 65, "duration": 455, "velocity": 95}, {"time": 159363, "pitch": 67, "duration": 448, "velocity": 91}, {"time": 159841, "pitch": 65, "duration": 448, "velocity": 86}, {"time": 160318, "pitch": 64, "duration": 344, "velocity": 86}, {"time": 160682, "pitch": 67, "duration": 343, "velocity": 86}, {"time": 161046, "pitch": 65, "duration": 929, "velocity": 86}], "annotations": [{"time": 218, "annotation": {"number": 7, "value": 90}, "group": "control_change"}, {"time": 228, "annotation": {"number": 11, "value": 115}, "group": "control_change"}, {"time": 238, "annotation": {"number": 10, "value": 64}, "group": "control_change"}, {"time": 249, "annotation": {"number": 91, "value": 50}, "group": "control_change"}, {"time": 259, "annotation": {"number": 93, "value": 0}, "group": "control_change"}, {"time": 269, "annotation": {"number": 101, "value": 0}, "group": "control_change"}, {"time": 280, "annotation": {"number": 100, "value": 0}, "group": "control_change"}, {"time": 290, "annotation": {"number": 6, "value": 12}, "group": "control_change"}, {"time": 321, "annotation": {"number": 101, "value": 127}, "group": "control_change"}, {"time": 332, "annotation": {"number": 100, "value": 127}, "group": "control_change"}]}, {"program": 0, "is_drum": false, "name": "STR", "annotations": [{"time": 187, "annotation": {"number": 0, "value": 0}, "group": "control_change"}, {"time": 197, "annotation": {"number": 32, "value": 2}, "group": "control_change"}]}, {"program": 49, "is_drum": false, "name": "STR", "notes": [{"time": 38399, "pitch": 96, "duration": 40, "velocity": 101}, {"time": 38479, "pitch": 93, "duration": 39, "velocity": 89}, {"time": 38558, "pitch": 90, "duration": 40, "velocity": 89}, {"time": 38638, "pitch": 87, "duration": 40, "velocity": 76}, {"time": 38717, "pitch": 84, "duration": 40, "velocity": 68}, {"time": 38797, "pitch": 81, "duration": 40, "velocity": 62}, {"time": 38877, "pitch": 78, "duration": 40, "velocity": 56}, {"time": 84478, "pitch": 96, "duration": 40, "velocity": 101}, {"time": 84559, "pitch": 93, "duration": 40, "velocity": 89}, {"time": 84639, "pitch": 90, "duration": 41, "velocity": 89}, {"time": 84720, "pitch": 87, "duration": 41, "velocity": 76}, {"time": 84801, "pitch": 84, "duration": 40, "velocity": 68}, {"time": 84882, "pitch": 81, "duration": 40, "velocity": 62}, {"time": 84963, "pitch": 78, "duration": 39, "velocity": 56}, {"time": 93118, "pitch": 46, "duration": 383, "velocity": 68}, {"time": 93118, "pitch": 62, "duration": 1914, "velocity": 89}, {"time": 93118, "pitch": 65, "duration": 1914, "velocity": 62}, {"time": 93118, "pitch": 81, "duration": 1914, "velocity": 62}, {"time": 93481, "pitch": 53, "duration": 131, "velocity": 72}, {"time": 93602, "pitch": 58, "duration": 120, "velocity": 78}, {"time": 93722, "pitch": 60, "duration": 119, "velocity": 80}, {"time": 93961, "pitch": 58, "duration": 1071, "velocity": 72}, {"time": 95042, "pitch": 57, "duration": 339, "velocity": 64}, {"time": 95042, "pitch": 60, "duration": 388, "velocity": 78}, {"time": 95042, "pitch": 64, "duration": 319, "velocity": 65}, {"time": 95042, "pitch": 79, "duration": 319, "velocity": 65}, {"time": 95401, "pitch": 57, "duration": 278, "velocity": 64}, {"time": 95401, "pitch": 67, "duration": 308, "velocity": 70}, {"time": 95401, "pitch": 79, "duration": 308, "velocity": 70}, {"time": 95759, "pitch": 57, "duration": 1141, "velocity": 80}, {"time": 95759, "pitch": 65, "duration": 1141, "velocity": 85}, {"time": 95759, "pitch": 69, "duration": 1171, "velocity": 63}, {"time": 95759, "pitch": 77, "duration": 1171, "velocity": 57}, {"time": 96960, "pitch": 55, "duration": 720, "velocity": 78}, {"time": 96960, "pitch": 58, "duration": 720, "velocity": 78}, {"time": 96960, "pitch": 65, "duration": 710, "velocity": 76}, {"time": 96960, "pitch": 81, "duration": 710, "velocity": 76}, {"time": 97680, "pitch": 60, "duration": 242, "velocity": 72}, {"time": 97680, "pitch": 65, "duration": 242, "velocity": 56}, {"time": 97680, "pitch": 70, "duration": 1178, "velocity": 68}, {"time": 97680, "pitch": 82, "duration": 1178, "velocity": 68}, {"time": 97922, "pitch": 58, "duration": 946, "velocity": 85}, {"time": 97922, "pitch": 62, "duration": 955, "velocity": 66}, {"time": 98877, "pitch": 57, "duration": 1915, "velocity": 72}, {"time": 98877, "pitch": 60, "duration": 1915, "velocity": 76}, {"time": 98877, "pitch": 72, "duration": 334, "velocity": 76}, {"time": 98877, "pitch": 84, "duration": 1905, "velocity": 50}, {"time": 99241, "pitch": 67, "duration": 340, "velocity": 68}, {"time": 99601, "pitch": 69, "duration": 707, "velocity": 59}, {"time": 100317, "pitch": 72, "duration": 2403, "velocity": 60}, {"time": 100802, "pitch": 46, "duration": 80, "velocity": 82}, {"time": 100802, "pitch": 62, "duration": 90, "velocity": 97}, {"time": 100802, "pitch": 89, "duration": 717, "velocity": 74}, {"time": 100922, "pitch": 46, "duration": 99, "velocity": 89}, {"time": 100922, "pitch": 62, "duration": 99, "velocity": 80}, {"time": 101041, "pitch": 53, "duration": 100, "velocity": 72}, {"time": 101041, "pitch": 60, "duration": 80, "velocity": 89}, {"time": 101160, "pitch": 46, "duration": 120, "velocity": 67}, {"time": 101160, "pitch": 62, "duration": 100, "velocity": 78}, {"time": 101519, "pitch": 46, "duration": 1191, "velocity": 63}, {"time": 101519, "pitch": 62, "duration": 1191, "velocity": 85}, {"time": 101519, "pitch": 88, "duration": 238, "velocity": 60}, {"time": 101757, "pitch": 84, "duration": 243, "velocity": 74}, {"time": 102000, "pitch": 86, "duration": 242, "velocity": 60}, {"time": 102242, "pitch": 81, "duration": 209, "velocity": 68}, {"time": 102481, "pitch": 82, "duration": 229, "velocity": 85}, {"time": 102720, "pitch": 45, "duration": 679, "velocity": 69}, {"time": 102720, "pitch": 60, "duration": 710, "velocity": 75}, {"time": 102720, "pitch": 67, "duration": 962, "velocity": 78}, {"time": 102720, "pitch": 84, "duration": 962, "velocity": 89}, {"time": 103440, "pitch": 57, "duration": 1187, "velocity": 62}, {"time": 103440, "pitch": 65, "duration": 242, "velocity": 78}, {"time": 103682, "pitch": 64, "duration": 229, "velocity": 80}, {"time": 103682, "pitch": 69, "duration": 896, "velocity": 65}, {"time": 103682, "pitch": 77, "duration": 896, "velocity": 65}, {"time": 103921, "pitch": 60, "duration": 706, "velocity": 68}, {"time": 104637, "pitch": 55, "duration": 1794, "velocity": 67}, {"time": 104637, "pitch": 58, "duration": 674, "velocity": 81}, {"time": 104637, "pitch": 77, "duration": 1794, "velocity": 70}, {"time": 104637, "pitch": 84, "duration": 714, "velocity": 85}, {"time": 105361, "pitch": 65, "duration": 1070, "velocity": 75}, {"time": 105361, "pitch": 89, "duration": 706, "velocity": 76}, {"time": 106077, "pitch": 84, "duration": 354, "velocity": 59}, {"time": 106441, "pitch": 43, "duration": 350, "velocity": 73}, {"time": 106441, "pitch": 62, "duration": 350, "velocity": 75}, {"time": 106441, "pitch": 65, "duration": 350, "velocity": 90}, {"time": 106441, "pitch": 69, "duration": 350, "velocity": 101}, {"time": 106441, "pitch": 81, "duration": 350, "velocity": 101}, {"time": 106801, "pitch": 44, "duration": 159, "velocity": 73}, {"time": 106801, "pitch": 60, "duration": 159, "velocity": 100}, {"time": 106801, "pitch": 63, "duration": 159, "velocity": 90}, {"time": 106801, "pitch": 66, "duration": 159, "velocity": 100}, {"time": 106801, "pitch": 70, "duration": 109, "velocity": 106}, {"time": 106801, "pitch": 82, "duration": 109, "velocity": 106}, {"time": 107040, "pitch": 49, "duration": 139, "velocity": 73}, {"time": 107040, "pitch": 61, "duration": 139, "velocity": 95}, {"time": 107040, "pitch": 65, "duration": 139, "velocity": 95}, {"time": 107040, "pitch": 68, "duration": 139, "velocity": 97}, {"time": 107040, "pitch": 72, "duration": 149, "velocity": 106}, {"time": 107040, "pitch": 84, "duration": 149, "velocity": 106}, {"time": 107760, "pitch": 44, "duration": 710, "velocity": 54}, {"time": 107760, "pitch": 59, "duration": 710, "velocity": 78}, {"time": 107760, "pitch": 61, "duration": 710, "velocity": 75}, {"time": 107760, "pitch": 65, "duration": 710, "velocity": 84}, {"time": 107760, "pitch": 68, "duration": 710, "velocity": 75}, {"time": 115202, "pitch": 96, "duration": 40, "velocity": 101}, {"time": 115281, "pitch": 93, "duration": 40, "velocity": 89}, {"time": 115361, "pitch": 90, "duration": 40, "velocity": 89}, {"time": 115441, "pitch": 87, "duration": 39, "velocity": 76}, {"time": 115520, "pitch": 84, "duration": 40, "velocity": 68}, {"time": 115600, "pitch": 81, "duration": 40, "velocity": 62}, {"time": 115679, "pitch": 78, "duration": 40, "velocity": 56}, {"time": 138241, "pitch": 48, "duration": 229, "velocity": 68}, {"time": 138241, "pitch": 60, "duration": 229, "velocity": 64}, {"time": 138241, "pitch": 72, "duration": 229, "velocity": 64}, {"time": 138480, "pitch": 50, "duration": 229, "velocity": 72}, {"time": 138480, "pitch": 62, "duration": 229, "velocity": 68}, {"time": 138480, "pitch": 74, "duration": 229, "velocity": 68}, {"time": 138719, "pitch": 53, "duration": 229, "velocity": 72}, {"time": 138719, "pitch": 65, "duration": 229, "velocity": 68}, {"time": 138719, "pitch": 77, "duration": 229, "velocity": 68}, {"time": 138958, "pitch": 55, "duration": 229, "velocity": 72}, {"time": 138958, "pitch": 67, "duration": 229, "velocity": 68}, {"time": 138958, "pitch": 79, "duration": 229, "velocity": 68}, {"time": 139196, "pitch": 46, "duration": 384, "velocity": 68}, {"time": 139196, "pitch": 65, "duration": 1915, "velocity": 69}, {"time": 139196, "pitch": 69, "duration": 1915, "velocity": 62}, {"time": 139196, "pitch": 81, "duration": 1915, "velocity": 62}, {"time": 139560, "pitch": 53, "duration": 131, "velocity": 72}, {"time": 139681, "pitch": 58, "duration": 120, "velocity": 78}, {"time": 139801, "pitch": 60, "duration": 119, "velocity": 80}, {"time": 140039, "pitch": 58, "duration": 1072, "velocity": 72}, {"time": 141121, "pitch": 57, "duration": 339, "velocity": 64}, {"time": 141121, "pitch": 60, "duration": 388, "velocity": 78}, {"time": 141121, "pitch": 64, "duration": 319, "velocity": 65}, {"time": 141121, "pitch": 79, "duration": 319, "velocity": 65}, {"time": 141479, "pitch": 57, "duration": 279, "velocity": 64}, {"time": 141479, "pitch": 67, "duration": 309, "velocity": 70}, {"time": 141479, "pitch": 79, "duration": 309, "velocity": 70}, {"time": 141838, "pitch": 57, "duration": 1141, "velocity": 80}, {"time": 141838, "pitch": 65, "duration": 1141, "velocity": 85}, {"time": 141838, "pitch": 69, "duration": 1171, "velocity": 63}, {"time": 141838, "pitch": 77, "duration": 1171, "velocity": 57}, {"time": 143039, "pitch": 55, "duration": 723, "velocity": 78}, {"time": 143039, "pitch": 58, "duration": 723, "velocity": 78}, {"time": 143039, "pitch": 65, "duration": 713, "velocity": 76}, {"time": 143039, "pitch": 81, "duration": 713, "velocity": 76}, {"time": 143762, "pitch": 60, "duration": 239, "velocity": 72}, {"time": 143762, "pitch": 65, "duration": 239, "velocity": 56}, {"time": 143762, "pitch": 70, "duration": 1181, "velocity": 68}, {"time": 143762, "pitch": 82, "duration": 1181, "velocity": 68}, {"time": 144001, "pitch": 58, "duration": 952, "velocity": 85}, {"time": 144001, "pitch": 62, "duration": 963, "velocity": 66}, {"time": 144964, "pitch": 57, "duration": 1907, "velocity": 72}, {"time": 144964, "pitch": 60, "duration": 1907, "velocity": 76}, {"time": 144964, "pitch": 72, "duration": 328, "velocity": 76}, {"time": 144964, "pitch": 84, "duration": 1897, "velocity": 50}, {"time": 145322, "pitch": 67, "duration": 338, "velocity": 68}, {"time": 145680, "pitch": 69, "duration": 713, "velocity": 59}, {"time": 146403, "pitch": 72, "duration": 2396, "velocity": 60}, {"time": 146881, "pitch": 46, "duration": 80, "velocity": 82}, {"time": 146881, "pitch": 62, "duration": 90, "velocity": 97}, {"time": 146881, "pitch": 89, "duration": 720, "velocity": 74}, {"time": 147000, "pitch": 46, "duration": 100, "velocity": 89}, {"time": 147000, "pitch": 62, "duration": 100, "velocity": 80}, {"time": 147120, "pitch": 53, "duration": 99, "velocity": 72}, {"time": 147120, "pitch": 60, "duration": 79, "velocity": 89}, {"time": 147239, "pitch": 46, "duration": 120, "velocity": 67}, {"time": 147239, "pitch": 62, "duration": 100, "velocity": 78}, {"time": 147601, "pitch": 46, "duration": 1188, "velocity": 63}, {"time": 147601, "pitch": 62, "duration": 1188, "velocity": 85}, {"time": 147601, "pitch": 88, "duration": 242, "velocity": 60}, {"time": 147843, "pitch": 84, "duration": 239, "velocity": 74}, {"time": 148082, "pitch": 86, "duration": 239, "velocity": 60}, {"time": 148321, "pitch": 81, "duration": 209, "velocity": 68}, {"time": 148560, "pitch": 82, "duration": 229, "velocity": 85}, {"time": 148799, "pitch": 45, "duration": 683, "velocity": 69}, {"time": 148799, "pitch": 60, "duration": 713, "velocity": 75}, {"time": 148799, "pitch": 67, "duration": 962, "velocity": 78}, {"time": 148799, "pitch": 84, "duration": 962, "velocity": 89}, {"time": 149522, "pitch": 57, "duration": 1191, "velocity": 62}, {"time": 149522, "pitch": 65, "duration": 239, "velocity": 78}, {"time": 149761, "pitch": 64, "duration": 229, "velocity": 80}, {"time": 149761, "pitch": 69, "duration": 902, "velocity": 65}, {"time": 149761, "pitch": 77, "duration": 902, "velocity": 65}, {"time": 150000, "pitch": 60, "duration": 713, "velocity": 68}, {"time": 150723, "pitch": 55, "duration": 956, "velocity": 67}, {"time": 150723, "pitch": 58, "duration": 667, "velocity": 81}, {"time": 150723, "pitch": 77, "duration": 1440, "velocity": 70}, {"time": 150723, "pitch": 84, "duration": 707, "velocity": 85}, {"time": 151440, "pitch": 65, "duration": 1191, "velocity": 75}, {"time": 151440, "pitch": 89, "duration": 713, "velocity": 76}, {"time": 151679, "pitch": 48, "duration": 962, "velocity": 67}, {"time": 152163, "pitch": 72, "duration": 468, "velocity": 59}, {"time": 152163, "pitch": 84, "duration": 468, "velocity": 59}, {"time": 152641, "pitch": 53, "duration": 710, "velocity": 54}, {"time": 152641, "pitch": 57, "duration": 669, "velocity": 69}, {"time": 152641, "pitch": 72, "duration": 1917, "velocity": 68}, {"time": 152641, "pitch": 84, "duration": 1917, "velocity": 68}, {"time": 153361, "pitch": 60, "duration": 680, "velocity": 69}, {"time": 153361, "pitch": 65, "duration": 700, "velocity": 68}, {"time": 154081, "pitch": 57, "duration": 477, "velocity": 61}, {"time": 154081, "pitch": 63, "duration": 477, "velocity": 70}, {"time": 154558, "pitch": 46, "duration": 384, "velocity": 68}, {"time": 154558, "pitch": 62, "duration": 1915, "velocity": 66}, {"time": 154558, "pitch": 65, "duration": 1915, "velocity": 62}, {"time": 154558, "pitch": 81, "duration": 1915, "velocity": 62}, {"time": 154922, "pitch": 53, "duration": 131, "velocity": 72}, {"time": 155043, "pitch": 58, "duration": 120, "velocity": 78}, {"time": 155163, "pitch": 60, "duration": 119, "velocity": 80}, {"time": 155401, "pitch": 58, "duration": 1072, "velocity": 72}, {"time": 156483, "pitch": 57, "duration": 339, "velocity": 64}, {"time": 156483, "pitch": 60, "duration": 388, "velocity": 78}, {"time": 156483, "pitch": 64, "duration": 319, "velocity": 65}, {"time": 156483, "pitch": 79, "duration": 319, "velocity": 65}, {"time": 156841, "pitch": 57, "duration": 279, "velocity": 64}, {"time": 156841, "pitch": 67, "duration": 309, "velocity": 70}, {"time": 156841, "pitch": 79, "duration": 309, "velocity": 70}, {"time": 157200, "pitch": 57, "duration": 1141, "velocity": 80}, {"time": 157200, "pitch": 65, "duration": 1141, "velocity": 85}, {"time": 157200, "pitch": 69, "duration": 1171, "velocity": 63}, {"time": 157200, "pitch": 77, "duration": 1171, "velocity": 57}, {"time": 158401, "pitch": 55, "duration": 720, "velocity": 78}, {"time": 158401, "pitch": 58, "duration": 720, "velocity": 78}, {"time": 158401, "pitch": 65, "duration": 710, "velocity": 76}, {"time": 158401, "pitch": 81, "duration": 710, "velocity": 76}, {"time": 159121, "pitch": 60, "duration": 242, "velocity": 72}, {"time": 159121, "pitch": 65, "duration": 242, "velocity": 56}, {"time": 159121, "pitch": 70, "duration": 1177, "velocity": 68}, {"time": 159121, "pitch": 82, "duration": 1177, "velocity": 68}, {"time": 159363, "pitch": 58, "duration": 945, "velocity": 85}, {"time": 159363, "pitch": 62, "duration": 955, "velocity": 66}, {"time": 160318, "pitch": 57, "duration": 1930, "velocity": 72}, {"time": 160318, "pitch": 60, "duration": 1930, "velocity": 76}, {"time": 160318, "pitch": 72, "duration": 334, "velocity": 76}, {"time": 160318, "pitch": 84, "duration": 1919, "velocity": 50}, {"time": 160682, "pitch": 67, "duration": 343, "velocity": 68}, {"time": 161046, "pitch": 69, "duration": 717, "velocity": 59}, {"time": 161773, "pitch": 72, "duration": 485, "velocity": 60}], "annotations": [{"time": 218, "annotation": {"number": 7, "value": 50}, "group": "control_change"}, {"time": 228, "annotation": {"number": 11, "value": 127}, "group": "control_change"}, {"time": 238, "annotation": {"number": 10, "value": 109}, "group": "control_change"}, {"time": 249, "annotation": {"number": 91, "value": 120}, "group": "control_change"}, {"time": 259, "annotation": {"number": 93, "value": 56}, "group": "control_change"}, {"time": 269, "annotation": {"number": 101, "value": 0}, "group": "control_change"}, {"time": 280, "annotation": {"number": 100, "value": 0}, "group": "control_change"}, {"time": 290, "annotation": {"number": 6, "value": 12}, "group": "control_change"}, {"time": 300, "annotation": {"number": 101, "value": 127}, "group": "control_change"}, {"time": 311, "annotation": {"number": 100, "value": 127}, "group": "control_change"}]}, {"program": 0, "is_drum": false, "name": "MUTE GT", "annotations": [{"time": 187, "annotation": {"number": 0, "value": 0}, "group": "control_change"}, {"time": 197, "annotation": {"number": 32, "value": 1}, "group": "control_change"}]}, {"program": 28, "is_drum": false, "name": "MUTE GT", "notes": [{"time": 1199, "pitch": 60, "duration": 119, "velocity": 97}, {"time": 1318, "pitch": 62, "duration": 20, "velocity": 82}, {"time": 1559, "pitch": 65, "duration": 40, "velocity": 106}, {"time": 1801, "pitch": 60, "duration": 121, "velocity": 96}, {"time": 1922, "pitch": 62, "duration": 20, "velocity": 75}, {"time": 2161, "pitch": 65, "duration": 80, "velocity": 108}, {"time": 3120, "pitch": 55, "duration": 121, "velocity": 106}, {"time": 3241, "pitch": 57, "duration": 20, "velocity": 90}, {"time": 3482, "pitch": 60, "duration": 39, "velocity": 100}, {"time": 3720, "pitch": 57, "duration": 70, "velocity": 83}, {"time": 3840, "pitch": 60, "duration": 30, "velocity": 89}, {"time": 4079, "pitch": 62, "duration": 209, "velocity": 125}, {"time": 4317, "pitch": 60, "duration": 81, "velocity": 97}, {"time": 5041, "pitch": 60, "duration": 119, "velocity": 97}, {"time": 5160, "pitch": 62, "duration": 20, "velocity": 82}, {"time": 5399, "pitch": 65, "duration": 40, "velocity": 106}, {"time": 5638, "pitch": 60, "duration": 119, "velocity": 96}, {"time": 5757, "pitch": 62, "duration": 21, "velocity": 75}, {"time": 6000, "pitch": 65, "duration": 81, "velocity": 108}, {"time": 6362, "pitch": 67, "duration": 209, "velocity": 89}, {"time": 6600, "pitch": 65, "duration": 20, "velocity": 85}, {"time": 7921, "pitch": 60, "duration": 119, "velocity": 97}, {"time": 8040, "pitch": 62, "duration": 20, "velocity": 82}, {"time": 8279, "pitch": 60, "duration": 40, "velocity": 106}, {"time": 8880, "pitch": 60, "duration": 121, "velocity": 97}, {"time": 9001, "pitch": 62, "duration": 20, "velocity": 82}, {"time": 9242, "pitch": 65, "duration": 39, "velocity": 106}, {"time": 9480, "pitch": 60, "duration": 120, "velocity": 96}, {"time": 9600, "pitch": 62, "duration": 20, "velocity": 75}, {"time": 9839, "pitch": 65, "duration": 79, "velocity": 108}, {"time": 10801, "pitch": 55, "duration": 119, "velocity": 106}, {"time": 10920, "pitch": 57, "duration": 20, "velocity": 90}, {"time": 11159, "pitch": 60, "duration": 40, "velocity": 100}, {"time": 11398, "pitch": 57, "duration": 70, "velocity": 83}, {"time": 11517, "pitch": 60, "duration": 31, "velocity": 89}, {"time": 11760, "pitch": 62, "duration": 212, "velocity": 125}, {"time": 12002, "pitch": 60, "duration": 80, "velocity": 97}, {"time": 12718, "pitch": 60, "duration": 120, "velocity": 97}, {"time": 12838, "pitch": 62, "duration": 20, "velocity": 82}, {"time": 13078, "pitch": 65, "duration": 41, "velocity": 106}, {"time": 13321, "pitch": 60, "duration": 121, "velocity": 96}, {"time": 13442, "pitch": 62, "duration": 20, "velocity": 75}, {"time": 13681, "pitch": 65, "duration": 79, "velocity": 108}, {"time": 14039, "pitch": 67, "duration": 209, "velocity": 89}, {"time": 14278, "pitch": 65, "duration": 20, "velocity": 85}, {"time": 15598, "pitch": 60, "duration": 120, "velocity": 97}, {"time": 15718, "pitch": 62, "duration": 20, "velocity": 82}, {"time": 15958, "pitch": 60, "duration": 41, "velocity": 106}, {"time": 16680, "pitch": 55, "duration": 120, "velocity": 106}, {"time": 16919, "pitch": 55, "duration": 30, "velocity": 97}, {"time": 17038, "pitch": 50, "duration": 120, "velocity": 111}, {"time": 17158, "pitch": 53, "duration": 20, "velocity": 77}, {"time": 17277, "pitch": 55, "duration": 81, "velocity": 89}, {"time": 18598, "pitch": 53, "duration": 119, "velocity": 106}, {"time": 18838, "pitch": 53, "duration": 31, "velocity": 97}, {"time": 18959, "pitch": 48, "duration": 122, "velocity": 111}, {"time": 19081, "pitch": 50, "duration": 20, "velocity": 77}, {"time": 19202, "pitch": 53, "duration": 79, "velocity": 89}, {"time": 20521, "pitch": 55, "duration": 121, "velocity": 106}, {"time": 20761, "pitch": 55, "duration": 30, "velocity": 97}, {"time": 20881, "pitch": 50, "duration": 119, "velocity": 111}, {"time": 21000, "pitch": 53, "duration": 20, "velocity": 77}, {"time": 21119, "pitch": 55, "duration": 80, "velocity": 89}, {"time": 22440, "pitch": 53, "duration": 119, "velocity": 106}, {"time": 22679, "pitch": 53, "duration": 30, "velocity": 97}, {"time": 22798, "pitch": 48, "duration": 120, "velocity": 111}, {"time": 22918, "pitch": 50, "duration": 19, "velocity": 77}, {"time": 23037, "pitch": 53, "duration": 81, "velocity": 89}, {"time": 23401, "pitch": 62, "duration": 230, "velocity": 116}, {"time": 23641, "pitch": 57, "duration": 10, "velocity": 67}, {"time": 23761, "pitch": 60, "duration": 79, "velocity": 103}, {"time": 24358, "pitch": 55, "duration": 119, "velocity": 106}, {"time": 24598, "pitch": 55, "duration": 30, "velocity": 97}, {"time": 24719, "pitch": 50, "duration": 122, "velocity": 111}, {"time": 24841, "pitch": 53, "duration": 20, "velocity": 77}, {"time": 24962, "pitch": 55, "duration": 79, "velocity": 89}, {"time": 26281, "pitch": 53, "duration": 121, "velocity": 106}, {"time": 26521, "pitch": 53, "duration": 30, "velocity": 97}, {"time": 26640, "pitch": 48, "duration": 120, "velocity": 111}, {"time": 26760, "pitch": 50, "duration": 20, "velocity": 77}, {"time": 26879, "pitch": 53, "duration": 80, "velocity": 89}, {"time": 28200, "pitch": 55, "duration": 119, "velocity": 106}, {"time": 28439, "pitch": 55, "duration": 29, "velocity": 97}, {"time": 28558, "pitch": 50, "duration": 119, "velocity": 111}, {"time": 28677, "pitch": 53, "duration": 20, "velocity": 77}, {"time": 28797, "pitch": 55, "duration": 81, "velocity": 89}, {"time": 30117, "pitch": 53, "duration": 120, "velocity": 106}, {"time": 30358, "pitch": 53, "duration": 30, "velocity": 97}, {"time": 30479, "pitch": 48, "duration": 121, "velocity": 111}, {"time": 30600, "pitch": 50, "duration": 21, "velocity": 77}, {"time": 30722, "pitch": 53, "duration": 79, "velocity": 89}, {"time": 31080, "pitch": 48, "duration": 229, "velocity": 108}, {"time": 31319, "pitch": 50, "duration": 10, "velocity": 67}, {"time": 31438, "pitch": 53, "duration": 80, "velocity": 103}, {"time": 47281, "pitch": 60, "duration": 121, "velocity": 97}, {"time": 47402, "pitch": 62, "duration": 21, "velocity": 82}, {"time": 47643, "pitch": 65, "duration": 40, "velocity": 106}, {"time": 47882, "pitch": 60, "duration": 119, "velocity": 96}, {"time": 48001, "pitch": 62, "duration": 20, "velocity": 75}, {"time": 48240, "pitch": 65, "duration": 80, "velocity": 108}, {"time": 49202, "pitch": 55, "duration": 120, "velocity": 106}, {"time": 49322, "pitch": 57, "duration": 20, "velocity": 90}, {"time": 49561, "pitch": 60, "duration": 39, "velocity": 100}, {"time": 49799, "pitch": 57, "duration": 70, "velocity": 83}, {"time": 49919, "pitch": 60, "duration": 30, "velocity": 89}, {"time": 50161, "pitch": 62, "duration": 212, "velocity": 125}, {"time": 50403, "pitch": 60, "duration": 80, "velocity": 97}, {"time": 51120, "pitch": 60, "duration": 119, "velocity": 97}, {"time": 51239, "pitch": 62, "duration": 20, "velocity": 82}, {"time": 51480, "pitch": 65, "duration": 40, "velocity": 106}, {"time": 51722, "pitch": 60, "duration": 121, "velocity": 96}, {"time": 51843, "pitch": 62, "duration": 20, "velocity": 75}, {"time": 52082, "pitch": 65, "duration": 80, "velocity": 108}, {"time": 52440, "pitch": 67, "duration": 209, "velocity": 89}, {"time": 52679, "pitch": 65, "duration": 20, "velocity": 85}, {"time": 54000, "pitch": 60, "duration": 119, "velocity": 97}, {"time": 54119, "pitch": 62, "duration": 20, "velocity": 82}, {"time": 54360, "pitch": 60, "duration": 40, "velocity": 106}, {"time": 54962, "pitch": 60, "duration": 120, "velocity": 97}, {"time": 55082, "pitch": 62, "duration": 19, "velocity": 82}, {"time": 55320, "pitch": 65, "duration": 40, "velocity": 106}, {"time": 55559, "pitch": 60, "duration": 120, "velocity": 96}, {"time": 55679, "pitch": 62, "duration": 20, "velocity": 75}, {"time": 55921, "pitch": 65, "duration": 81, "velocity": 108}, {"time": 56880, "pitch": 55, "duration": 119, "velocity": 106}, {"time": 56999, "pitch": 57, "duration": 20, "velocity": 90}, {"time": 57240, "pitch": 60, "duration": 40, "velocity": 100}, {"time": 57482, "pitch": 57, "duration": 71, "velocity": 83}, {"time": 57603, "pitch": 60, "duration": 30, "velocity": 89}, {"time": 57842, "pitch": 62, "duration": 209, "velocity": 125}, {"time": 58081, "pitch": 60, "duration": 79, "velocity": 97}, {"time": 58801, "pitch": 60, "duration": 121, "velocity": 97}, {"time": 58922, "pitch": 62, "duration": 20, "velocity": 82}, {"time": 59163, "pitch": 65, "duration": 39, "velocity": 106}, {"time": 59401, "pitch": 60, "duration": 120, "velocity": 96}, {"time": 59521, "pitch": 62, "duration": 20, "velocity": 75}, {"time": 59760, "pitch": 65, "duration": 79, "velocity": 108}, {"time": 60120, "pitch": 67, "duration": 212, "velocity": 89}, {"time": 60362, "pitch": 65, "duration": 20, "velocity": 85}, {"time": 61681, "pitch": 60, "duration": 121, "velocity": 97}, {"time": 61802, "pitch": 62, "duration": 20, "velocity": 82}, {"time": 62043, "pitch": 60, "duration": 39, "velocity": 106}, {"time": 62759, "pitch": 55, "duration": 119, "velocity": 106}, {"time": 63000, "pitch": 55, "duration": 30, "velocity": 97}, {"time": 63121, "pitch": 50, "duration": 121, "velocity": 111}, {"time": 63242, "pitch": 53, "duration": 20, "velocity": 77}, {"time": 63363, "pitch": 55, "duration": 80, "velocity": 89}, {"time": 64682, "pitch": 53, "duration": 121, "velocity": 106}, {"time": 64923, "pitch": 53, "duration": 29, "velocity": 97}, {"time": 65042, "pitch": 48, "duration": 119, "velocity": 111}, {"time": 65161, "pitch": 50, "duration": 20, "velocity": 77}, {"time": 65281, "pitch": 53, "duration": 79, "velocity": 89}, {"time": 66601, "pitch": 55, "duration": 120, "velocity": 106}, {"time": 66840, "pitch": 55, "duration": 30, "velocity": 97}, {"time": 66959, "pitch": 50, "duration": 120, "velocity": 111}, {"time": 67079, "pitch": 53, "duration": 20, "velocity": 77}, {"time": 67198, "pitch": 55, "duration": 81, "velocity": 89}, {"time": 68519, "pitch": 53, "duration": 119, "velocity": 106}, {"time": 68759, "pitch": 53, "duration": 31, "velocity": 97}, {"time": 68881, "pitch": 48, "duration": 121, "velocity": 111}, {"time": 69002, "pitch": 50, "duration": 20, "velocity": 77}, {"time": 69123, "pitch": 53, "duration": 80, "velocity": 89}, {"time": 69481, "pitch": 62, "duration": 229, "velocity": 116}, {"time": 69720, "pitch": 57, "duration": 10, "velocity": 67}, {"time": 69839, "pitch": 60, "duration": 80, "velocity": 103}, {"time": 70442, "pitch": 55, "duration": 121, "velocity": 106}, {"time": 70682, "pitch": 55, "duration": 30, "velocity": 97}, {"time": 70802, "pitch": 50, "duration": 119, "velocity": 111}, {"time": 70921, "pitch": 53, "duration": 20, "velocity": 77}, {"time": 71041, "pitch": 55, "duration": 79, "velocity": 89}, {"time": 72361, "pitch": 53, "duration": 120, "velocity": 106}, {"time": 72600, "pitch": 53, "duration": 30, "velocity": 97}, {"time": 72719, "pitch": 48, "duration": 120, "velocity": 111}, {"time": 72839, "pitch": 50, "duration": 20, "velocity": 77}, {"time": 72958, "pitch": 53, "duration": 81, "velocity": 89}, {"time": 74279, "pitch": 55, "duration": 119, "velocity": 106}, {"time": 74519, "pitch": 55, "duration": 31, "velocity": 97}, {"time": 74640, "pitch": 50, "duration": 122, "velocity": 111}, {"time": 74762, "pitch": 53, "duration": 20, "velocity": 77}, {"time": 74883, "pitch": 55, "duration": 79, "velocity": 89}, {"time": 76202, "pitch": 53, "duration": 121, "velocity": 106}, {"time": 76442, "pitch": 53, "duration": 30, "velocity": 97}, {"time": 76562, "pitch": 48, "duration": 119, "velocity": 111}, {"time": 76681, "pitch": 50, "duration": 20, "velocity": 77}, {"time": 76800, "pitch": 53, "duration": 80, "velocity": 89}, {"time": 77159, "pitch": 48, "duration": 230, "velocity": 108}, {"time": 77399, "pitch": 50, "duration": 10, "velocity": 67}, {"time": 77520, "pitch": 53, "duration": 81, "velocity": 103}, {"time": 93360, "pitch": 60, "duration": 121, "velocity": 97}, {"time": 93481, "pitch": 62, "duration": 20, "velocity": 82}, {"time": 93722, "pitch": 65, "duration": 40, "velocity": 106}, {"time": 93961, "pitch": 60, "duration": 119, "velocity": 96}, {"time": 94080, "pitch": 62, "duration": 20, "velocity": 75}, {"time": 94319, "pitch": 65, "duration": 79, "velocity": 108}, {"time": 95281, "pitch": 55, "duration": 120, "velocity": 106}, {"time": 95401, "pitch": 57, "duration": 19, "velocity": 90}, {"time": 95639, "pitch": 60, "duration": 40, "velocity": 100}, {"time": 95878, "pitch": 57, "duration": 70, "velocity": 83}, {"time": 95998, "pitch": 60, "duration": 30, "velocity": 89}, {"time": 96240, "pitch": 62, "duration": 212, "velocity": 125}, {"time": 96482, "pitch": 60, "duration": 80, "velocity": 97}, {"time": 97199, "pitch": 60, "duration": 119, "velocity": 97}, {"time": 97318, "pitch": 62, "duration": 20, "velocity": 82}, {"time": 97559, "pitch": 65, "duration": 40, "velocity": 106}, {"time": 97801, "pitch": 60, "duration": 121, "velocity": 96}, {"time": 97922, "pitch": 62, "duration": 20, "velocity": 75}, {"time": 98161, "pitch": 65, "duration": 80, "velocity": 108}, {"time": 98519, "pitch": 67, "duration": 209, "velocity": 89}, {"time": 98758, "pitch": 65, "duration": 20, "velocity": 85}, {"time": 100079, "pitch": 60, "duration": 119, "velocity": 97}, {"time": 100198, "pitch": 62, "duration": 20, "velocity": 82}, {"time": 100439, "pitch": 60, "duration": 40, "velocity": 106}, {"time": 101041, "pitch": 60, "duration": 119, "velocity": 97}, {"time": 101160, "pitch": 62, "duration": 20, "velocity": 82}, {"time": 101399, "pitch": 65, "duration": 40, "velocity": 106}, {"time": 101638, "pitch": 60, "duration": 119, "velocity": 96}, {"time": 101757, "pitch": 62, "duration": 21, "velocity": 75}, {"time": 102000, "pitch": 65, "duration": 81, "velocity": 108}, {"time": 102959, "pitch": 55, "duration": 119, "velocity": 106}, {"time": 103078, "pitch": 57, "duration": 20, "velocity": 90}, {"time": 103319, "pitch": 60, "duration": 40, "velocity": 100}, {"time": 103561, "pitch": 57, "duration": 71, "velocity": 83}, {"time": 103682, "pitch": 60, "duration": 30, "velocity": 89}, {"time": 103921, "pitch": 62, "duration": 209, "velocity": 125}, {"time": 104160, "pitch": 60, "duration": 79, "velocity": 97}, {"time": 104880, "pitch": 60, "duration": 121, "velocity": 97}, {"time": 105001, "pitch": 62, "duration": 20, "velocity": 82}, {"time": 105242, "pitch": 65, "duration": 39, "velocity": 106}, {"time": 105480, "pitch": 60, "duration": 120, "velocity": 96}, {"time": 105600, "pitch": 62, "duration": 20, "velocity": 75}, {"time": 105839, "pitch": 65, "duration": 79, "velocity": 108}, {"time": 106198, "pitch": 67, "duration": 213, "velocity": 89}, {"time": 106441, "pitch": 65, "duration": 20, "velocity": 85}, {"time": 124080, "pitch": 60, "duration": 120, "velocity": 97}, {"time": 124200, "pitch": 62, "duration": 20, "velocity": 82}, {"time": 124439, "pitch": 65, "duration": 39, "velocity": 106}, {"time": 124677, "pitch": 60, "duration": 120, "velocity": 96}, {"time": 124797, "pitch": 62, "duration": 20, "velocity": 75}, {"time": 125039, "pitch": 65, "duration": 81, "velocity": 108}, {"time": 125998, "pitch": 55, "duration": 119, "velocity": 106}, {"time": 126117, "pitch": 57, "duration": 20, "velocity": 90}, {"time": 126358, "pitch": 60, "duration": 40, "velocity": 100}, {"time": 126600, "pitch": 57, "duration": 71, "velocity": 83}, {"time": 126722, "pitch": 60, "duration": 29, "velocity": 89}, {"time": 126960, "pitch": 62, "duration": 209, "velocity": 125}, {"time": 127199, "pitch": 60, "duration": 80, "velocity": 97}, {"time": 127919, "pitch": 60, "duration": 121, "velocity": 97}, {"time": 128040, "pitch": 62, "duration": 21, "velocity": 82}, {"time": 128281, "pitch": 65, "duration": 40, "velocity": 106}, {"time": 128520, "pitch": 60, "duration": 119, "velocity": 96}, {"time": 128639, "pitch": 62, "duration": 20, "velocity": 75}, {"time": 128878, "pitch": 65, "duration": 80, "velocity": 108}, {"time": 129238, "pitch": 67, "duration": 212, "velocity": 89}, {"time": 129480, "pitch": 65, "duration": 21, "velocity": 85}, {"time": 130799, "pitch": 60, "duration": 121, "velocity": 97}, {"time": 130920, "pitch": 62, "duration": 20, "velocity": 82}, {"time": 131161, "pitch": 60, "duration": 40, "velocity": 106}, {"time": 131758, "pitch": 60, "duration": 119, "velocity": 97}, {"time": 131877, "pitch": 62, "duration": 20, "velocity": 82}, {"time": 132118, "pitch": 65, "duration": 40, "velocity": 106}, {"time": 132360, "pitch": 60, "duration": 121, "velocity": 96}, {"time": 132481, "pitch": 62, "duration": 20, "velocity": 75}, {"time": 132720, "pitch": 65, "duration": 80, "velocity": 108}, {"time": 133679, "pitch": 55, "duration": 121, "velocity": 106}, {"time": 133800, "pitch": 57, "duration": 20, "velocity": 90}, {"time": 134041, "pitch": 60, "duration": 40, "velocity": 100}, {"time": 134280, "pitch": 57, "duration": 69, "velocity": 83}, {"time": 134399, "pitch": 60, "duration": 30, "velocity": 89}, {"time": 134638, "pitch": 62, "duration": 209, "velocity": 125}, {"time": 134877, "pitch": 60, "duration": 80, "velocity": 97}, {"time": 135600, "pitch": 60, "duration": 120, "velocity": 97}, {"time": 135720, "pitch": 62, "duration": 19, "velocity": 82}, {"time": 135958, "pitch": 65, "duration": 40, "velocity": 106}, {"time": 136197, "pitch": 60, "duration": 120, "velocity": 96}, {"time": 136317, "pitch": 62, "duration": 20, "velocity": 75}, {"time": 136559, "pitch": 65, "duration": 81, "velocity": 108}, {"time": 136921, "pitch": 67, "duration": 209, "velocity": 89}, {"time": 137160, "pitch": 65, "duration": 19, "velocity": 85}, {"time": 138480, "pitch": 60, "duration": 119, "velocity": 97}, {"time": 138599, "pitch": 62, "duration": 20, "velocity": 82}, {"time": 138838, "pitch": 60, "duration": 40, "velocity": 106}, {"time": 139439, "pitch": 60, "duration": 121, "velocity": 97}, {"time": 139560, "pitch": 62, "duration": 20, "velocity": 82}, {"time": 139801, "pitch": 65, "duration": 39, "velocity": 106}, {"time": 140039, "pitch": 60, "duration": 120, "velocity": 96}, {"time": 140159, "pitch": 62, "duration": 20, "velocity": 75}, {"time": 140398, "pitch": 65, "duration": 79, "velocity": 108}, {"time": 141360, "pitch": 55, "duration": 119, "velocity": 106}, {"time": 141479, "pitch": 57, "duration": 20, "velocity": 90}, {"time": 141718, "pitch": 60, "duration": 40, "velocity": 100}, {"time": 141957, "pitch": 57, "duration": 70, "velocity": 83}, {"time": 142076, "pitch": 60, "duration": 31, "velocity": 89}, {"time": 142319, "pitch": 62, "duration": 212, "velocity": 125}, {"time": 142561, "pitch": 60, "duration": 80, "velocity": 97}, {"time": 143281, "pitch": 60, "duration": 121, "velocity": 97}, {"time": 143402, "pitch": 62, "duration": 21, "velocity": 82}, {"time": 143643, "pitch": 65, "duration": 40, "velocity": 106}, {"time": 143882, "pitch": 60, "duration": 119, "velocity": 96}, {"time": 144001, "pitch": 62, "duration": 20, "velocity": 75}, {"time": 144240, "pitch": 65, "duration": 80, "velocity": 108}, {"time": 144600, "pitch": 67, "duration": 212, "velocity": 89}, {"time": 144842, "pitch": 65, "duration": 21, "velocity": 85}, {"time": 146161, "pitch": 60, "duration": 121, "velocity": 97}, {"time": 146282, "pitch": 62, "duration": 21, "velocity": 82}, {"time": 146523, "pitch": 60, "duration": 40, "velocity": 106}, {"time": 147120, "pitch": 60, "duration": 119, "velocity": 97}, {"time": 147239, "pitch": 62, "duration": 20, "velocity": 82}, {"time": 147480, "pitch": 65, "duration": 40, "velocity": 106}, {"time": 147722, "pitch": 60, "duration": 121, "velocity": 96}, {"time": 147843, "pitch": 62, "duration": 20, "velocity": 75}, {"time": 148082, "pitch": 65, "duration": 80, "velocity": 108}, {"time": 149041, "pitch": 55, "duration": 121, "velocity": 106}, {"time": 149162, "pitch": 57, "duration": 20, "velocity": 90}, {"time": 149403, "pitch": 60, "duration": 40, "velocity": 100}, {"time": 149642, "pitch": 57, "duration": 69, "velocity": 83}, {"time": 149761, "pitch": 60, "duration": 30, "velocity": 89}, {"time": 150000, "pitch": 62, "duration": 209, "velocity": 125}, {"time": 150239, "pitch": 60, "duration": 80, "velocity": 97}, {"time": 150962, "pitch": 60, "duration": 120, "velocity": 97}, {"time": 151082, "pitch": 62, "duration": 19, "velocity": 82}, {"time": 151320, "pitch": 65, "duration": 40, "velocity": 106}, {"time": 151559, "pitch": 60, "duration": 120, "velocity": 96}, {"time": 151679, "pitch": 62, "duration": 20, "velocity": 75}, {"time": 151921, "pitch": 65, "duration": 81, "velocity": 108}, {"time": 152283, "pitch": 67, "duration": 209, "velocity": 89}, {"time": 152522, "pitch": 65, "duration": 19, "velocity": 85}, {"time": 153842, "pitch": 60, "duration": 119, "velocity": 97}, {"time": 153961, "pitch": 62, "duration": 20, "velocity": 82}, {"time": 154200, "pitch": 60, "duration": 40, "velocity": 106}, {"time": 154801, "pitch": 60, "duration": 121, "velocity": 97}, {"time": 154922, "pitch": 62, "duration": 20, "velocity": 82}, {"time": 155163, "pitch": 65, "duration": 39, "velocity": 106}, {"time": 155401, "pitch": 60, "duration": 120, "velocity": 96}, {"time": 155521, "pitch": 62, "duration": 20, "velocity": 75}, {"time": 155760, "pitch": 65, "duration": 79, "velocity": 108}, {"time": 156722, "pitch": 55, "duration": 119, "velocity": 106}, {"time": 156841, "pitch": 57, "duration": 20, "velocity": 90}, {"time": 157080, "pitch": 60, "duration": 40, "velocity": 100}, {"time": 157319, "pitch": 57, "duration": 70, "velocity": 83}, {"time": 157438, "pitch": 60, "duration": 31, "velocity": 89}, {"time": 157681, "pitch": 62, "duration": 212, "velocity": 125}, {"time": 157923, "pitch": 60, "duration": 80, "velocity": 97}, {"time": 158640, "pitch": 60, "duration": 119, "velocity": 97}, {"time": 158759, "pitch": 62, "duration": 20, "velocity": 82}, {"time": 159000, "pitch": 65, "duration": 40, "velocity": 106}, {"time": 159242, "pitch": 60, "duration": 121, "velocity": 96}, {"time": 159363, "pitch": 62, "duration": 20, "velocity": 75}, {"time": 159602, "pitch": 65, "duration": 80, "velocity": 108}, {"time": 159960, "pitch": 67, "duration": 209, "velocity": 89}, {"time": 160199, "pitch": 65, "duration": 20, "velocity": 85}, {"time": 161530, "pitch": 60, "duration": 122, "velocity": 97}, {"time": 161652, "pitch": 62, "duration": 20, "velocity": 82}, {"time": 161894, "pitch": 60, "duration": 40, "velocity": 106}], "annotations": [{"time": 218, "annotation": {"number": 7, "value": 58}, "group": "control_change"}, {"time": 228, "annotation": {"number": 11, "value": 127}, "group": "control_change"}, {"time": 238, "annotation": {"number": 10, "value": 127}, "group": "control_change"}, {"time": 249, "annotation": {"number": 91, "value": 24}, "group": "control_change"}, {"time": 259, "annotation": {"number": 93, "value": 7}, "group": "control_change"}, {"time": 269, "annotation": {"number": 101, "value": 0}, "group": "control_change"}, {"time": 280, "annotation": {"number": 100, "value": 0}, "group": "control_change"}, {"time": 290, "annotation": {"number": 6, "value": 12}, "group": "control_change"}, {"time": 300, "annotation": {"number": 101, "value": 127}, "group": "control_change"}, {"time": 311, "annotation": {"number": 100, "value": 127}, "group": "control_change"}]}, {"program": 0, "is_drum": false, "name": "WOW GT", "annotations": [{"time": 187, "annotation": {"number": 0, "value": 0}, "group": "control_change"}, {"time": 197, "annotation": {"number": 32, "value": 2}, "group": "control_change"}]}, {"program": 27, "is_drum": false, "name": "WOW GT", "notes": [{"time": 960, "pitch": 62, "duration": 119, "velocity": 97}, {"time": 960, "pitch": 65, "duration": 119, "velocity": 95}, {"time": 960, "pitch": 69, "duration": 119, "velocity": 95}, {"time": 1079, "pitch": 62, "duration": 60, "velocity": 54}, {"time": 1079, "pitch": 65, "duration": 60, "velocity": 55}, {"time": 1079, "pitch": 69, "duration": 60, "velocity": 59}, {"time": 1199, "pitch": 62, "duration": 59, "velocity": 61}, {"time": 1199, "pitch": 65, "duration": 59, "velocity": 72}, {"time": 1199, "pitch": 69, "duration": 59, "velocity": 60}, {"time": 1318, "pitch": 62, "duration": 60, "velocity": 95}, {"time": 1318, "pitch": 65, "duration": 60, "velocity": 105}, {"time": 1318, "pitch": 69, "duration": 60, "velocity": 99}, {"time": 1559, "pitch": 62, "duration": 121, "velocity": 50}, {"time": 1559, "pitch": 65, "duration": 121, "velocity": 45}, {"time": 1559, "pitch": 69, "duration": 121, "velocity": 69}, {"time": 1680, "pitch": 62, "duration": 121, "velocity": 95}, {"time": 1680, "pitch": 65, "duration": 121, "velocity": 103}, {"time": 1680, "pitch": 69, "duration": 121, "velocity": 95}, {"time": 1801, "pitch": 62, "duration": 231, "velocity": 65}, {"time": 1801, "pitch": 65, "duration": 231, "velocity": 74}, {"time": 1801, "pitch": 69, "duration": 231, "velocity": 79}, {"time": 2042, "pitch": 62, "duration": 79, "velocity": 97}, {"time": 2042, "pitch": 65, "duration": 79, "velocity": 97}, {"time": 2042, "pitch": 69, "duration": 79, "velocity": 99}, {"time": 2877, "pitch": 60, "duration": 122, "velocity": 97}, {"time": 2877, "pitch": 62, "duration": 122, "velocity": 95}, {"time": 2877, "pitch": 67, "duration": 122, "velocity": 95}, {"time": 2999, "pitch": 60, "duration": 121, "velocity": 61}, {"time": 2999, "pitch": 62, "duration": 121, "velocity": 72}, {"time": 2999, "pitch": 67, "duration": 121, "velocity": 60}, {"time": 3120, "pitch": 60, "duration": 121, "velocity": 61}, {"time": 3120, "pitch": 62, "duration": 121, "velocity": 72}, {"time": 3120, "pitch": 67, "duration": 121, "velocity": 60}, {"time": 3241, "pitch": 60, "duration": 61, "velocity": 90}, {"time": 3241, "pitch": 62, "duration": 61, "velocity": 90}, {"time": 3241, "pitch": 67, "duration": 61, "velocity": 90}, {"time": 3482, "pitch": 60, "duration": 119, "velocity": 50}, {"time": 3482, "pitch": 65, "duration": 119, "velocity": 45}, {"time": 3482, "pitch": 69, "duration": 119, "velocity": 69}, {"time": 3601, "pitch": 60, "duration": 119, "velocity": 95}, {"time": 3601, "pitch": 65, "duration": 119, "velocity": 103}, {"time": 3601, "pitch": 69, "duration": 119, "velocity": 95}, {"time": 3720, "pitch": 60, "duration": 229, "velocity": 65}, {"time": 3720, "pitch": 65, "duration": 229, "velocity": 74}, {"time": 3720, "pitch": 69, "duration": 229, "velocity": 79}, {"time": 3959, "pitch": 60, "duration": 120, "velocity": 80}, {"time": 3959, "pitch": 65, "duration": 120, "velocity": 80}, {"time": 3959, "pitch": 69, "duration": 120, "velocity": 80}, {"time": 4079, "pitch": 60, "duration": 79, "velocity": 97}, {"time": 4079, "pitch": 65, "duration": 79, "velocity": 97}, {"time": 4079, "pitch": 69, "duration": 79, "velocity": 99}, {"time": 4198, "pitch": 60, "duration": 231, "velocity": 65}, {"time": 4198, "pitch": 65, "duration": 231, "velocity": 74}, {"time": 4198, "pitch": 69, "duration": 231, "velocity": 79}, {"time": 4439, "pitch": 60, "duration": 40, "velocity": 80}, {"time": 4439, "pitch": 65, "duration": 40, "velocity": 80}, {"time": 4439, "pitch": 69, "duration": 40, "velocity": 80}, {"time": 4560, "pitch": 60, "duration": 232, "velocity": 97}, {"time": 4560, "pitch": 65, "duration": 232, "velocity": 97}, {"time": 4560, "pitch": 69, "duration": 232, "velocity": 99}, {"time": 4802, "pitch": 62, "duration": 120, "velocity": 97}, {"time": 4802, "pitch": 65, "duration": 120, "velocity": 95}, {"time": 4802, "pitch": 69, "duration": 120, "velocity": 95}, {"time": 4922, "pitch": 62, "duration": 59, "velocity": 54}, {"time": 4922, "pitch": 65, "duration": 59, "velocity": 55}, {"time": 4922, "pitch": 69, "duration": 59, "velocity": 59}, {"time": 5041, "pitch": 62, "duration": 60, "velocity": 61}, {"time": 5041, "pitch": 65, "duration": 60, "velocity": 72}, {"time": 5041, "pitch": 69, "duration": 60, "velocity": 60}, {"time": 5160, "pitch": 62, "duration": 60, "velocity": 95}, {"time": 5160, "pitch": 65, "duration": 60, "velocity": 105}, {"time": 5160, "pitch": 69, "duration": 60, "velocity": 99}, {"time": 5399, "pitch": 62, "duration": 120, "velocity": 50}, {"time": 5399, "pitch": 65, "duration": 120, "velocity": 45}, {"time": 5399, "pitch": 69, "duration": 120, "velocity": 69}, {"time": 5519, "pitch": 62, "duration": 119, "velocity": 95}, {"time": 5519, "pitch": 65, "duration": 119, "velocity": 103}, {"time": 5519, "pitch": 69, "duration": 119, "velocity": 95}, {"time": 5638, "pitch": 62, "duration": 230, "velocity": 65}, {"time": 5638, "pitch": 65, "duration": 230, "velocity": 74}, {"time": 5638, "pitch": 69, "duration": 230, "velocity": 79}, {"time": 5879, "pitch": 62, "duration": 80, "velocity": 97}, {"time": 5879, "pitch": 65, "duration": 80, "velocity": 97}, {"time": 5879, "pitch": 69, "duration": 80, "velocity": 99}, {"time": 6720, "pitch": 60, "duration": 119, "velocity": 97}, {"time": 6720, "pitch": 62, "duration": 119, "velocity": 95}, {"time": 6720, "pitch": 67, "duration": 119, "velocity": 95}, {"time": 6839, "pitch": 60, "duration": 120, "velocity": 61}, {"time": 6839, "pitch": 62, "duration": 120, "velocity": 72}, {"time": 6839, "pitch": 67, "duration": 120, "velocity": 60}, {"time": 6959, "pitch": 60, "duration": 119, "velocity": 61}, {"time": 6959, "pitch": 62, "duration": 119, "velocity": 72}, {"time": 6959, "pitch": 67, "duration": 119, "velocity": 60}, {"time": 7078, "pitch": 60, "duration": 60, "velocity": 90}, {"time": 7078, "pitch": 62, "duration": 60, "velocity": 90}, {"time": 7078, "pitch": 67, "duration": 60, "velocity": 90}, {"time": 7319, "pitch": 60, "duration": 121, "velocity": 50}, {"time": 7319, "pitch": 65, "duration": 121, "velocity": 45}, {"time": 7319, "pitch": 69, "duration": 121, "velocity": 69}, {"time": 7440, "pitch": 60, "duration": 121, "velocity": 95}, {"time": 7440, "pitch": 65, "duration": 121, "velocity": 103}, {"time": 7440, "pitch": 69, "duration": 121, "velocity": 95}, {"time": 7561, "pitch": 60, "duration": 231, "velocity": 65}, {"time": 7561, "pitch": 65, "duration": 231, "velocity": 74}, {"time": 7561, "pitch": 69, "duration": 231, "velocity": 79}, {"time": 7802, "pitch": 60, "duration": 119, "velocity": 80}, {"time": 7802, "pitch": 65, "duration": 119, "velocity": 80}, {"time": 7802, "pitch": 69, "duration": 119, "velocity": 80}, {"time": 7921, "pitch": 60, "duration": 80, "velocity": 97}, {"time": 7921, "pitch": 65, "duration": 80, "velocity": 97}, {"time": 7921, "pitch": 69, "duration": 80, "velocity": 99}, {"time": 8040, "pitch": 60, "duration": 229, "velocity": 65}, {"time": 8040, "pitch": 65, "duration": 229, "velocity": 74}, {"time": 8040, "pitch": 69, "duration": 229, "velocity": 79}, {"time": 8279, "pitch": 60, "duration": 40, "velocity": 80}, {"time": 8279, "pitch": 65, "duration": 40, "velocity": 80}, {"time": 8279, "pitch": 69, "duration": 40, "velocity": 80}, {"time": 8399, "pitch": 60, "duration": 228, "velocity": 97}, {"time": 8399, "pitch": 65, "duration": 228, "velocity": 97}, {"time": 8399, "pitch": 69, "duration": 228, "velocity": 99}, {"time": 8637, "pitch": 62, "duration": 122, "velocity": 97}, {"time": 8637, "pitch": 65, "duration": 122, "velocity": 95}, {"time": 8637, "pitch": 69, "duration": 122, "velocity": 95}, {"time": 8759, "pitch": 62, "duration": 60, "velocity": 54}, {"time": 8759, "pitch": 65, "duration": 60, "velocity": 55}, {"time": 8759, "pitch": 69, "duration": 60, "velocity": 59}, {"time": 8880, "pitch": 62, "duration": 60, "velocity": 61}, {"time": 8880, "pitch": 65, "duration": 60, "velocity": 72}, {"time": 8880, "pitch": 69, "duration": 60, "velocity": 60}, {"time": 9001, "pitch": 62, "duration": 61, "velocity": 95}, {"time": 9001, "pitch": 65, "duration": 61, "velocity": 105}, {"time": 9001, "pitch": 69, "duration": 61, "velocity": 99}, {"time": 9242, "pitch": 62, "duration": 119, "velocity": 50}, {"time": 9242, "pitch": 65, "duration": 119, "velocity": 45}, {"time": 9242, "pitch": 69, "duration": 119, "velocity": 69}, {"time": 9361, "pitch": 62, "duration": 119, "velocity": 95}, {"time": 9361, "pitch": 65, "duration": 119, "velocity": 103}, {"time": 9361, "pitch": 69, "duration": 119, "velocity": 95}, {"time": 9480, "pitch": 62, "duration": 229, "velocity": 65}, {"time": 9480, "pitch": 65, "duration": 229, "velocity": 74}, {"time": 9480, "pitch": 69, "duration": 229, "velocity": 79}, {"time": 9719, "pitch": 62, "duration": 80, "velocity": 97}, {"time": 9719, "pitch": 65, "duration": 80, "velocity": 97}, {"time": 9719, "pitch": 69, "duration": 80, "velocity": 99}, {"time": 10562, "pitch": 60, "duration": 119, "velocity": 97}, {"time": 10562, "pitch": 62, "duration": 119, "velocity": 95}, {"time": 10562, "pitch": 67, "duration": 119, "velocity": 95}, {"time": 10681, "pitch": 60, "duration": 120, "velocity": 61}, {"time": 10681, "pitch": 62, "duration": 120, "velocity": 72}, {"time": 10681, "pitch": 67, "duration": 120, "velocity": 60}, {"time": 10801, "pitch": 60, "duration": 119, "velocity": 61}, {"time": 10801, "pitch": 62, "duration": 119, "velocity": 72}, {"time": 10801, "pitch": 67, "duration": 119, "velocity": 60}, {"time": 10920, "pitch": 60, "duration": 60, "velocity": 90}, {"time": 10920, "pitch": 62, "duration": 60, "velocity": 90}, {"time": 10920, "pitch": 67, "duration": 60, "velocity": 90}, {"time": 11159, "pitch": 60, "duration": 119, "velocity": 50}, {"time": 11159, "pitch": 65, "duration": 119, "velocity": 45}, {"time": 11159, "pitch": 69, "duration": 119, "velocity": 69}, {"time": 11278, "pitch": 60, "duration": 120, "velocity": 95}, {"time": 11278, "pitch": 65, "duration": 120, "velocity": 103}, {"time": 11278, "pitch": 69, "duration": 120, "velocity": 95}, {"time": 11398, "pitch": 60, "duration": 230, "velocity": 65}, {"time": 11398, "pitch": 65, "duration": 230, "velocity": 74}, {"time": 11398, "pitch": 69, "duration": 230, "velocity": 79}, {"time": 11638, "pitch": 60, "duration": 122, "velocity": 80}, {"time": 11638, "pitch": 65, "duration": 122, "velocity": 80}, {"time": 11638, "pitch": 69, "duration": 122, "velocity": 80}, {"time": 11760, "pitch": 60, "duration": 80, "velocity": 97}, {"time": 11760, "pitch": 65, "duration": 80, "velocity": 97}, {"time": 11760, "pitch": 69, "duration": 80, "velocity": 99}, {"time": 11881, "pitch": 60, "duration": 230, "velocity": 65}, {"time": 11881, "pitch": 65, "duration": 230, "velocity": 74}, {"time": 11881, "pitch": 69, "duration": 230, "velocity": 79}, {"time": 12121, "pitch": 60, "duration": 40, "velocity": 80}, {"time": 12121, "pitch": 65, "duration": 40, "velocity": 80}, {"time": 12121, "pitch": 69, "duration": 40, "velocity": 80}, {"time": 12241, "pitch": 60, "duration": 229, "velocity": 97}, {"time": 12241, "pitch": 65, "duration": 229, "velocity": 97}, {"time": 12241, "pitch": 69, "duration": 229, "velocity": 99}, {"time": 12480, "pitch": 62, "duration": 119, "velocity": 97}, {"time": 12480, "pitch": 65, "duration": 119, "velocity": 95}, {"time": 12480, "pitch": 69, "duration": 119, "velocity": 95}, {"time": 12599, "pitch": 62, "duration": 60, "velocity": 54}, {"time": 12599, "pitch": 65, "duration": 60, "velocity": 55}, {"time": 12599, "pitch": 69, "duration": 60, "velocity": 59}, {"time": 12718, "pitch": 62, "duration": 60, "velocity": 61}, {"time": 12718, "pitch": 65, "duration": 60, "velocity": 72}, {"time": 12718, "pitch": 69, "duration": 60, "velocity": 60}, {"time": 12838, "pitch": 62, "duration": 60, "velocity": 95}, {"time": 12838, "pitch": 65, "duration": 60, "velocity": 105}, {"time": 12838, "pitch": 69, "duration": 60, "velocity": 99}, {"time": 13078, "pitch": 62, "duration": 122, "velocity": 50}, {"time": 13078, "pitch": 65, "duration": 122, "velocity": 45}, {"time": 13078, "pitch": 69, "duration": 122, "velocity": 69}, {"time": 13200, "pitch": 62, "duration": 121, "velocity": 95}, {"time": 13200, "pitch": 65, "duration": 121, "velocity": 103}, {"time": 13200, "pitch": 69, "duration": 121, "velocity": 95}, {"time": 13321, "pitch": 62, "duration": 230, "velocity": 65}, {"time": 13321, "pitch": 65, "duration": 230, "velocity": 74}, {"time": 13321, "pitch": 69, "duration": 230, "velocity": 79}, {"time": 13561, "pitch": 62, "duration": 80, "velocity": 97}, {"time": 13561, "pitch": 65, "duration": 80, "velocity": 97}, {"time": 13561, "pitch": 69, "duration": 80, "velocity": 99}, {"time": 14397, "pitch": 60, "duration": 121, "velocity": 97}, {"time": 14397, "pitch": 62, "duration": 121, "velocity": 95}, {"time": 14397, "pitch": 67, "duration": 121, "velocity": 95}, {"time": 14518, "pitch": 60, "duration": 122, "velocity": 61}, {"time": 14518, "pitch": 62, "duration": 122, "velocity": 72}, {"time": 14518, "pitch": 67, "duration": 122, "velocity": 60}, {"time": 14640, "pitch": 60, "duration": 121, "velocity": 61}, {"time": 14640, "pitch": 62, "duration": 121, "velocity": 72}, {"time": 14640, "pitch": 67, "duration": 121, "velocity": 60}, {"time": 14761, "pitch": 60, "duration": 60, "velocity": 90}, {"time": 14761, "pitch": 62, "duration": 60, "velocity": 90}, {"time": 14761, "pitch": 67, "duration": 60, "velocity": 90}, {"time": 15001, "pitch": 60, "duration": 120, "velocity": 50}, {"time": 15001, "pitch": 65, "duration": 120, "velocity": 45}, {"time": 15001, "pitch": 69, "duration": 120, "velocity": 69}, {"time": 15121, "pitch": 60, "duration": 119, "velocity": 95}, {"time": 15121, "pitch": 65, "duration": 119, "velocity": 103}, {"time": 15121, "pitch": 69, "duration": 119, "velocity": 95}, {"time": 15240, "pitch": 60, "duration": 229, "velocity": 65}, {"time": 15240, "pitch": 65, "duration": 229, "velocity": 74}, {"time": 15240, "pitch": 69, "duration": 229, "velocity": 79}, {"time": 15479, "pitch": 60, "duration": 119, "velocity": 80}, {"time": 15479, "pitch": 65, "duration": 119, "velocity": 80}, {"time": 15479, "pitch": 69, "duration": 119, "velocity": 80}, {"time": 15598, "pitch": 60, "duration": 80, "velocity": 97}, {"time": 15598, "pitch": 65, "duration": 80, "velocity": 97}, {"time": 15598, "pitch": 69, "duration": 80, "velocity": 99}, {"time": 15718, "pitch": 60, "duration": 109, "velocity": 65}, {"time": 15718, "pitch": 65, "duration": 109, "velocity": 74}, {"time": 15718, "pitch": 69, "duration": 109, "velocity": 79}, {"time": 15837, "pitch": 60, "duration": 475, "velocity": 101}, {"time": 15837, "pitch": 66, "duration": 475, "velocity": 108}, {"time": 15837, "pitch": 68, "duration": 475, "velocity": 96}, {"time": 16322, "pitch": 62, "duration": 119, "velocity": 97}, {"time": 16322, "pitch": 65, "duration": 119, "velocity": 95}, {"time": 16322, "pitch": 69, "duration": 119, "velocity": 95}, {"time": 16441, "pitch": 62, "duration": 60, "velocity": 54}, {"time": 16441, "pitch": 65, "duration": 60, "velocity": 55}, {"time": 16441, "pitch": 69, "duration": 60, "velocity": 59}, {"time": 16561, "pitch": 62, "duration": 59, "velocity": 61}, {"time": 16561, "pitch": 65, "duration": 59, "velocity": 72}, {"time": 16561, "pitch": 69, "duration": 59, "velocity": 60}, {"time": 16680, "pitch": 62, "duration": 60, "velocity": 95}, {"time": 16680, "pitch": 65, "duration": 60, "velocity": 105}, {"time": 16680, "pitch": 69, "duration": 60, "velocity": 99}, {"time": 16919, "pitch": 62, "duration": 119, "velocity": 50}, {"time": 16919, "pitch": 65, "duration": 119, "velocity": 45}, {"time": 16919, "pitch": 69, "duration": 119, "velocity": 69}, {"time": 17038, "pitch": 62, "duration": 120, "velocity": 95}, {"time": 17038, "pitch": 65, "duration": 120, "velocity": 103}, {"time": 17038, "pitch": 69, "duration": 120, "velocity": 95}, {"time": 17158, "pitch": 62, "duration": 230, "velocity": 65}, {"time": 17158, "pitch": 65, "duration": 230, "velocity": 74}, {"time": 17158, "pitch": 69, "duration": 230, "velocity": 79}, {"time": 17398, "pitch": 62, "duration": 81, "velocity": 97}, {"time": 17398, "pitch": 65, "duration": 81, "velocity": 97}, {"time": 17398, "pitch": 69, "duration": 81, "velocity": 99}, {"time": 18239, "pitch": 60, "duration": 120, "velocity": 61}, {"time": 18239, "pitch": 62, "duration": 120, "velocity": 72}, {"time": 18239, "pitch": 67, "duration": 120, "velocity": 60}, {"time": 18359, "pitch": 60, "duration": 119, "velocity": 97}, {"time": 18359, "pitch": 62, "duration": 119, "velocity": 95}, {"time": 18359, "pitch": 67, "duration": 119, "velocity": 95}, {"time": 18478, "pitch": 60, "duration": 120, "velocity": 61}, {"time": 18478, "pitch": 62, "duration": 120, "velocity": 72}, {"time": 18478, "pitch": 67, "duration": 120, "velocity": 60}, {"time": 18598, "pitch": 60, "duration": 59, "velocity": 90}, {"time": 18598, "pitch": 62, "duration": 59, "velocity": 90}, {"time": 18598, "pitch": 67, "duration": 59, "velocity": 90}, {"time": 18838, "pitch": 60, "duration": 121, "velocity": 50}, {"time": 18838, "pitch": 65, "duration": 121, "velocity": 45}, {"time": 18838, "pitch": 69, "duration": 121, "velocity": 69}, {"time": 18959, "pitch": 60, "duration": 122, "velocity": 95}, {"time": 18959, "pitch": 65, "duration": 122, "velocity": 103}, {"time": 18959, "pitch": 69, "duration": 122, "velocity": 95}, {"time": 19081, "pitch": 60, "duration": 230, "velocity": 65}, {"time": 19081, "pitch": 65, "duration": 230, "velocity": 74}, {"time": 19081, "pitch": 69, "duration": 230, "velocity": 79}, {"time": 19321, "pitch": 60, "duration": 120, "velocity": 80}, {"time": 19321, "pitch": 65, "duration": 120, "velocity": 80}, {"time": 19321, "pitch": 69, "duration": 120, "velocity": 80}, {"time": 19441, "pitch": 60, "duration": 79, "velocity": 97}, {"time": 19441, "pitch": 65, "duration": 79, "velocity": 97}, {"time": 19441, "pitch": 69, "duration": 79, "velocity": 99}, {"time": 19560, "pitch": 60, "duration": 229, "velocity": 65}, {"time": 19560, "pitch": 65, "duration": 229, "velocity": 74}, {"time": 19560, "pitch": 69, "duration": 229, "velocity": 79}, {"time": 19799, "pitch": 60, "duration": 40, "velocity": 80}, {"time": 19799, "pitch": 65, "duration": 40, "velocity": 80}, {"time": 19799, "pitch": 69, "duration": 40, "velocity": 80}, {"time": 19918, "pitch": 60, "duration": 229, "velocity": 97}, {"time": 19918, "pitch": 65, "duration": 229, "velocity": 97}, {"time": 19918, "pitch": 69, "duration": 229, "velocity": 99}, {"time": 20157, "pitch": 62, "duration": 51, "velocity": 97}, {"time": 20157, "pitch": 65, "duration": 51, "velocity": 95}, {"time": 20157, "pitch": 69, "duration": 51, "velocity": 95}, {"time": 20278, "pitch": 62, "duration": 121, "velocity": 54}, {"time": 20278, "pitch": 65, "duration": 121, "velocity": 55}, {"time": 20278, "pitch": 69, "duration": 121, "velocity": 59}, {"time": 20399, "pitch": 62, "duration": 122, "velocity": 61}, {"time": 20399, "pitch": 65, "duration": 122, "velocity": 72}, {"time": 20399, "pitch": 69, "duration": 122, "velocity": 60}, {"time": 20521, "pitch": 62, "duration": 121, "velocity": 95}, {"time": 20521, "pitch": 65, "duration": 121, "velocity": 105}, {"time": 20521, "pitch": 69, "duration": 121, "velocity": 99}, {"time": 20761, "pitch": 62, "duration": 120, "velocity": 50}, {"time": 20761, "pitch": 65, "duration": 120, "velocity": 45}, {"time": 20761, "pitch": 69, "duration": 120, "velocity": 69}, {"time": 20881, "pitch": 62, "duration": 119, "velocity": 95}, {"time": 20881, "pitch": 65, "duration": 119, "velocity": 103}, {"time": 20881, "pitch": 69, "duration": 119, "velocity": 95}, {"time": 21000, "pitch": 62, "duration": 229, "velocity": 65}, {"time": 21000, "pitch": 65, "duration": 229, "velocity": 74}, {"time": 21000, "pitch": 69, "duration": 229, "velocity": 79}, {"time": 21239, "pitch": 62, "duration": 79, "velocity": 97}, {"time": 21239, "pitch": 65, "duration": 79, "velocity": 97}, {"time": 21239, "pitch": 69, "duration": 79, "velocity": 99}, {"time": 22082, "pitch": 60, "duration": 119, "velocity": 97}, {"time": 22082, "pitch": 62, "duration": 119, "velocity": 95}, {"time": 22082, "pitch": 67, "duration": 119, "velocity": 95}, {"time": 22201, "pitch": 60, "duration": 120, "velocity": 54}, {"time": 22201, "pitch": 62, "duration": 120, "velocity": 55}, {"time": 22201, "pitch": 67, "duration": 120, "velocity": 59}, {"time": 22321, "pitch": 60, "duration": 119, "velocity": 61}, {"time": 22321, "pitch": 62, "duration": 119, "velocity": 72}, {"time": 22321, "pitch": 67, "duration": 119, "velocity": 60}, {"time": 22440, "pitch": 60, "duration": 119, "velocity": 95}, {"time": 22440, "pitch": 62, "duration": 119, "velocity": 105}, {"time": 22440, "pitch": 67, "duration": 119, "velocity": 99}, {"time": 22679, "pitch": 60, "duration": 119, "velocity": 50}, {"time": 22679, "pitch": 65, "duration": 119, "velocity": 45}, {"time": 22679, "pitch": 69, "duration": 119, "velocity": 69}, {"time": 22798, "pitch": 60, "duration": 120, "velocity": 95}, {"time": 22798, "pitch": 65, "duration": 120, "velocity": 103}, {"time": 22798, "pitch": 69, "duration": 120, "velocity": 95}, {"time": 22918, "pitch": 60, "duration": 230, "velocity": 65}, {"time": 22918, "pitch": 65, "duration": 230, "velocity": 74}, {"time": 22918, "pitch": 69, "duration": 230, "velocity": 79}, {"time": 23158, "pitch": 60, "duration": 81, "velocity": 97}, {"time": 23158, "pitch": 65, "duration": 81, "velocity": 97}, {"time": 23158, "pitch": 69, "duration": 81, "velocity": 99}, {"time": 23522, "pitch": 60, "duration": 119, "velocity": 61}, {"time": 23522, "pitch": 62, "duration": 119, "velocity": 72}, {"time": 23522, "pitch": 69, "duration": 119, "velocity": 60}, {"time": 23641, "pitch": 60, "duration": 80, "velocity": 95}, {"time": 23641, "pitch": 62, "duration": 80, "velocity": 105}, {"time": 23641, "pitch": 69, "duration": 80, "velocity": 99}, {"time": 23999, "pitch": 62, "duration": 120, "velocity": 97}, {"time": 23999, "pitch": 65, "duration": 120, "velocity": 95}, {"time": 23999, "pitch": 69, "duration": 120, "velocity": 95}, {"time": 24119, "pitch": 62, "duration": 59, "velocity": 54}, {"time": 24119, "pitch": 65, "duration": 59, "velocity": 55}, {"time": 24119, "pitch": 69, "duration": 59, "velocity": 59}, {"time": 24238, "pitch": 62, "duration": 60, "velocity": 61}, {"time": 24238, "pitch": 65, "duration": 60, "velocity": 72}, {"time": 24238, "pitch": 69, "duration": 60, "velocity": 60}, {"time": 24358, "pitch": 62, "duration": 59, "velocity": 95}, {"time": 24358, "pitch": 65, "duration": 59, "velocity": 105}, {"time": 24358, "pitch": 69, "duration": 59, "velocity": 99}, {"time": 24598, "pitch": 62, "duration": 121, "velocity": 50}, {"time": 24598, "pitch": 65, "duration": 121, "velocity": 45}, {"time": 24598, "pitch": 69, "duration": 121, "velocity": 69}, {"time": 24719, "pitch": 62, "duration": 122, "velocity": 95}, {"time": 24719, "pitch": 65, "duration": 122, "velocity": 103}, {"time": 24719, "pitch": 69, "duration": 122, "velocity": 95}, {"time": 24841, "pitch": 62, "duration": 230, "velocity": 65}, {"time": 24841, "pitch": 65, "duration": 230, "velocity": 74}, {"time": 24841, "pitch": 69, "duration": 230, "velocity": 79}, {"time": 25081, "pitch": 62, "duration": 80, "velocity": 97}, {"time": 25081, "pitch": 65, "duration": 80, "velocity": 97}, {"time": 25081, "pitch": 69, "duration": 80, "velocity": 99}, {"time": 25917, "pitch": 60, "duration": 121, "velocity": 61}, {"time": 25917, "pitch": 62, "duration": 121, "velocity": 72}, {"time": 25917, "pitch": 67, "duration": 121, "velocity": 60}, {"time": 26038, "pitch": 60, "duration": 121, "velocity": 97}, {"time": 26038, "pitch": 62, "duration": 121, "velocity": 95}, {"time": 26038, "pitch": 67, "duration": 121, "velocity": 95}, {"time": 26159, "pitch": 60, "duration": 122, "velocity": 61}, {"time": 26159, "pitch": 62, "duration": 122, "velocity": 72}, {"time": 26159, "pitch": 67, "duration": 122, "velocity": 60}, {"time": 26281, "pitch": 60, "duration": 60, "velocity": 90}, {"time": 26281, "pitch": 62, "duration": 60, "velocity": 90}, {"time": 26281, "pitch": 67, "duration": 60, "velocity": 90}, {"time": 26521, "pitch": 60, "duration": 119, "velocity": 50}, {"time": 26521, "pitch": 65, "duration": 119, "velocity": 45}, {"time": 26521, "pitch": 69, "duration": 119, "velocity": 69}, {"time": 26640, "pitch": 60, "duration": 120, "velocity": 95}, {"time": 26640, "pitch": 65, "duration": 120, "velocity": 103}, {"time": 26640, "pitch": 69, "duration": 120, "velocity": 95}, {"time": 26760, "pitch": 60, "duration": 229, "velocity": 65}, {"time": 26760, "pitch": 65, "duration": 229, "velocity": 74}, {"time": 26760, "pitch": 69, "duration": 229, "velocity": 79}, {"time": 26999, "pitch": 60, "duration": 119, "velocity": 80}, {"time": 26999, "pitch": 65, "duration": 119, "velocity": 80}, {"time": 26999, "pitch": 69, "duration": 119, "velocity": 80}, {"time": 27118, "pitch": 60, "duration": 80, "velocity": 97}, {"time": 27118, "pitch": 65, "duration": 80, "velocity": 97}, {"time": 27118, "pitch": 69, "duration": 80, "velocity": 99}, {"time": 27237, "pitch": 60, "duration": 231, "velocity": 65}, {"time": 27237, "pitch": 65, "duration": 231, "velocity": 74}, {"time": 27237, "pitch": 69, "duration": 231, "velocity": 79}, {"time": 27478, "pitch": 60, "duration": 40, "velocity": 80}, {"time": 27478, "pitch": 65, "duration": 40, "velocity": 80}, {"time": 27478, "pitch": 69, "duration": 40, "velocity": 80}, {"time": 27599, "pitch": 60, "duration": 233, "velocity": 97}, {"time": 27599, "pitch": 65, "duration": 233, "velocity": 97}, {"time": 27599, "pitch": 69, "duration": 233, "velocity": 99}, {"time": 27842, "pitch": 62, "duration": 119, "velocity": 97}, {"time": 27842, "pitch": 65, "duration": 119, "velocity": 95}, {"time": 27842, "pitch": 69, "duration": 119, "velocity": 95}, {"time": 27961, "pitch": 62, "duration": 119, "velocity": 54}, {"time": 27961, "pitch": 65, "duration": 119, "velocity": 55}, {"time": 27961, "pitch": 69, "duration": 119, "velocity": 59}, {"time": 28080, "pitch": 62, "duration": 120, "velocity": 61}, {"time": 28080, "pitch": 65, "duration": 120, "velocity": 72}, {"time": 28080, "pitch": 69, "duration": 120, "velocity": 60}, {"time": 28200, "pitch": 62, "duration": 119, "velocity": 95}, {"time": 28200, "pitch": 65, "duration": 119, "velocity": 105}, {"time": 28200, "pitch": 69, "duration": 119, "velocity": 99}, {"time": 28439, "pitch": 62, "duration": 119, "velocity": 50}, {"time": 28439, "pitch": 65, "duration": 119, "velocity": 45}, {"time": 28439, "pitch": 69, "duration": 119, "velocity": 69}, {"time": 28558, "pitch": 62, "duration": 119, "velocity": 95}, {"time": 28558, "pitch": 65, "duration": 119, "velocity": 103}, {"time": 28558, "pitch": 69, "duration": 119, "velocity": 95}, {"time": 28677, "pitch": 62, "duration": 231, "velocity": 65}, {"time": 28677, "pitch": 65, "duration": 231, "velocity": 74}, {"time": 28677, "pitch": 69, "duration": 231, "velocity": 79}, {"time": 28918, "pitch": 62, "duration": 81, "velocity": 97}, {"time": 28918, "pitch": 65, "duration": 81, "velocity": 97}, {"time": 28918, "pitch": 69, "duration": 81, "velocity": 99}, {"time": 29520, "pitch": 62, "duration": 80, "velocity": 97}, {"time": 29520, "pitch": 65, "duration": 80, "velocity": 97}, {"time": 29520, "pitch": 69, "duration": 80, "velocity": 99}, {"time": 29759, "pitch": 60, "duration": 120, "velocity": 97}, {"time": 29759, "pitch": 62, "duration": 120, "velocity": 95}, {"time": 29759, "pitch": 69, "duration": 120, "velocity": 95}, {"time": 29879, "pitch": 60, "duration": 119, "velocity": 54}, {"time": 29879, "pitch": 62, "duration": 119, "velocity": 55}, {"time": 29879, "pitch": 69, "duration": 119, "velocity": 59}, {"time": 29998, "pitch": 60, "duration": 119, "velocity": 61}, {"time": 29998, "pitch": 62, "duration": 119, "velocity": 72}, {"time": 29998, "pitch": 69, "duration": 119, "velocity": 60}, {"time": 30117, "pitch": 60, "duration": 120, "velocity": 95}, {"time": 30117, "pitch": 62, "duration": 120, "velocity": 105}, {"time": 30117, "pitch": 69, "duration": 120, "velocity": 99}, {"time": 30358, "pitch": 60, "duration": 121, "velocity": 50}, {"time": 30358, "pitch": 65, "duration": 121, "velocity": 45}, {"time": 30358, "pitch": 69, "duration": 121, "velocity": 69}, {"time": 30479, "pitch": 60, "duration": 121, "velocity": 95}, {"time": 30479, "pitch": 65, "duration": 121, "velocity": 103}, {"time": 30479, "pitch": 69, "duration": 121, "velocity": 95}, {"time": 30600, "pitch": 60, "duration": 231, "velocity": 65}, {"time": 30600, "pitch": 65, "duration": 231, "velocity": 74}, {"time": 30600, "pitch": 69, "duration": 231, "velocity": 79}, {"time": 30841, "pitch": 60, "duration": 80, "velocity": 97}, {"time": 30841, "pitch": 65, "duration": 80, "velocity": 97}, {"time": 30841, "pitch": 69, "duration": 80, "velocity": 99}, {"time": 31199, "pitch": 60, "duration": 120, "velocity": 61}, {"time": 31199, "pitch": 62, "duration": 120, "velocity": 72}, {"time": 31199, "pitch": 69, "duration": 120, "velocity": 60}, {"time": 31319, "pitch": 60, "duration": 79, "velocity": 95}, {"time": 31319, "pitch": 62, "duration": 79, "velocity": 105}, {"time": 31319, "pitch": 69, "duration": 79, "velocity": 99}, {"time": 31677, "pitch": 62, "duration": 121, "velocity": 97}, {"time": 31677, "pitch": 65, "duration": 121, "velocity": 95}, {"time": 31677, "pitch": 70, "duration": 121, "velocity": 95}, {"time": 31798, "pitch": 62, "duration": 61, "velocity": 54}, {"time": 31798, "pitch": 65, "duration": 61, "velocity": 55}, {"time": 31798, "pitch": 70, "duration": 61, "velocity": 59}, {"time": 31919, "pitch": 62, "duration": 61, "velocity": 61}, {"time": 31919, "pitch": 65, "duration": 61, "velocity": 72}, {"time": 31919, "pitch": 70, "duration": 61, "velocity": 60}, {"time": 32040, "pitch": 62, "duration": 61, "velocity": 95}, {"time": 32040, "pitch": 65, "duration": 61, "velocity": 105}, {"time": 32040, "pitch": 70, "duration": 61, "velocity": 99}, {"time": 32281, "pitch": 62, "duration": 119, "velocity": 50}, {"time": 32281, "pitch": 65, "duration": 119, "velocity": 45}, {"time": 32281, "pitch": 70, "duration": 119, "velocity": 69}, {"time": 32400, "pitch": 62, "duration": 120, "velocity": 95}, {"time": 32400, "pitch": 65, "duration": 120, "velocity": 103}, {"time": 32400, "pitch": 70, "duration": 120, "velocity": 95}, {"time": 32520, "pitch": 62, "duration": 229, "velocity": 65}, {"time": 32520, "pitch": 65, "duration": 229, "velocity": 74}, {"time": 32520, "pitch": 70, "duration": 229, "velocity": 79}, {"time": 32759, "pitch": 62, "duration": 79, "velocity": 97}, {"time": 32759, "pitch": 65, "duration": 79, "velocity": 97}, {"time": 32759, "pitch": 70, "duration": 79, "velocity": 99}, {"time": 33117, "pitch": 62, "duration": 121, "velocity": 97}, {"time": 33117, "pitch": 65, "duration": 121, "velocity": 95}, {"time": 33117, "pitch": 70, "duration": 121, "velocity": 95}, {"time": 33238, "pitch": 62, "duration": 61, "velocity": 54}, {"time": 33238, "pitch": 65, "duration": 61, "velocity": 55}, {"time": 33238, "pitch": 70, "duration": 61, "velocity": 59}, {"time": 33359, "pitch": 62, "duration": 61, "velocity": 61}, {"time": 33359, "pitch": 65, "duration": 61, "velocity": 72}, {"time": 33359, "pitch": 70, "duration": 61, "velocity": 60}, {"time": 33480, "pitch": 62, "duration": 61, "velocity": 95}, {"time": 33480, "pitch": 65, "duration": 61, "velocity": 105}, {"time": 33480, "pitch": 70, "duration": 61, "velocity": 99}, {"time": 33602, "pitch": 60, "duration": 119, "velocity": 97}, {"time": 33602, "pitch": 65, "duration": 119, "velocity": 95}, {"time": 33602, "pitch": 69, "duration": 119, "velocity": 95}, {"time": 33721, "pitch": 60, "duration": 60, "velocity": 54}, {"time": 33721, "pitch": 65, "duration": 60, "velocity": 55}, {"time": 33721, "pitch": 69, "duration": 60, "velocity": 59}, {"time": 33840, "pitch": 60, "duration": 60, "velocity": 61}, {"time": 33840, "pitch": 65, "duration": 60, "velocity": 72}, {"time": 33840, "pitch": 69, "duration": 60, "velocity": 60}, {"time": 33960, "pitch": 60, "duration": 59, "velocity": 95}, {"time": 33960, "pitch": 65, "duration": 59, "velocity": 105}, {"time": 33960, "pitch": 69, "duration": 59, "velocity": 99}, {"time": 34199, "pitch": 60, "duration": 119, "velocity": 50}, {"time": 34199, "pitch": 65, "duration": 119, "velocity": 45}, {"time": 34199, "pitch": 69, "duration": 119, "velocity": 69}, {"time": 34318, "pitch": 60, "duration": 119, "velocity": 95}, {"time": 34318, "pitch": 65, "duration": 119, "velocity": 103}, {"time": 34318, "pitch": 69, "duration": 119, "velocity": 95}, {"time": 34437, "pitch": 60, "duration": 231, "velocity": 65}, {"time": 34437, "pitch": 65, "duration": 231, "velocity": 74}, {"time": 34437, "pitch": 69, "duration": 231, "velocity": 79}, {"time": 34678, "pitch": 60, "duration": 81, "velocity": 97}, {"time": 34678, "pitch": 65, "duration": 81, "velocity": 97}, {"time": 34678, "pitch": 69, "duration": 81, "velocity": 99}, {"time": 35041, "pitch": 60, "duration": 120, "velocity": 97}, {"time": 35041, "pitch": 65, "duration": 120, "velocity": 95}, {"time": 35041, "pitch": 69, "duration": 120, "velocity": 95}, {"time": 35161, "pitch": 60, "duration": 60, "velocity": 54}, {"time": 35161, "pitch": 65, "duration": 60, "velocity": 55}, {"time": 35161, "pitch": 69, "duration": 60, "velocity": 59}, {"time": 35280, "pitch": 60, "duration": 60, "velocity": 61}, {"time": 35280, "pitch": 65, "duration": 60, "velocity": 72}, {"time": 35280, "pitch": 69, "duration": 60, "velocity": 60}, {"time": 35400, "pitch": 60, "duration": 59, "velocity": 95}, {"time": 35400, "pitch": 65, "duration": 59, "velocity": 105}, {"time": 35400, "pitch": 69, "duration": 59, "velocity": 99}, {"time": 35519, "pitch": 58, "duration": 119, "velocity": 97}, {"time": 35519, "pitch": 62, "duration": 119, "velocity": 95}, {"time": 35519, "pitch": 65, "duration": 119, "velocity": 95}, {"time": 35638, "pitch": 58, "duration": 60, "velocity": 54}, {"time": 35638, "pitch": 62, "duration": 60, "velocity": 55}, {"time": 35638, "pitch": 65, "duration": 60, "velocity": 59}, {"time": 35758, "pitch": 58, "duration": 60, "velocity": 61}, {"time": 35758, "pitch": 62, "duration": 60, "velocity": 72}, {"time": 35758, "pitch": 65, "duration": 60, "velocity": 60}, {"time": 35877, "pitch": 58, "duration": 60, "velocity": 95}, {"time": 35877, "pitch": 62, "duration": 60, "velocity": 105}, {"time": 35877, "pitch": 65, "duration": 60, "velocity": 99}, {"time": 36118, "pitch": 58, "duration": 121, "velocity": 50}, {"time": 36118, "pitch": 62, "duration": 121, "velocity": 45}, {"time": 36118, "pitch": 65, "duration": 121, "velocity": 69}, {"time": 36239, "pitch": 58, "duration": 121, "velocity": 95}, {"time": 36239, "pitch": 62, "duration": 121, "velocity": 103}, {"time": 36239, "pitch": 65, "duration": 121, "velocity": 95}, {"time": 36360, "pitch": 58, "duration": 231, "velocity": 65}, {"time": 36360, "pitch": 62, "duration": 231, "velocity": 74}, {"time": 36360, "pitch": 65, "duration": 231, "velocity": 79}, {"time": 36601, "pitch": 58, "duration": 79, "velocity": 97}, {"time": 36601, "pitch": 62, "duration": 79, "velocity": 97}, {"time": 36601, "pitch": 65, "duration": 79, "velocity": 99}, {"time": 36959, "pitch": 58, "duration": 119, "velocity": 97}, {"time": 36959, "pitch": 62, "duration": 119, "velocity": 95}, {"time": 36959, "pitch": 65, "duration": 119, "velocity": 95}, {"time": 37078, "pitch": 58, "duration": 60, "velocity": 54}, {"time": 37078, "pitch": 62, "duration": 60, "velocity": 55}, {"time": 37078, "pitch": 65, "duration": 60, "velocity": 59}, {"time": 37198, "pitch": 58, "duration": 60, "velocity": 61}, {"time": 37198, "pitch": 62, "duration": 60, "velocity": 72}, {"time": 37198, "pitch": 65, "duration": 60, "velocity": 60}, {"time": 37317, "pitch": 58, "duration": 60, "velocity": 95}, {"time": 37317, "pitch": 62, "duration": 60, "velocity": 105}, {"time": 37317, "pitch": 65, "duration": 60, "velocity": 99}, {"time": 37437, "pitch": 60, "duration": 121, "velocity": 97}, {"time": 37437, "pitch": 65, "duration": 121, "velocity": 95}, {"time": 37437, "pitch": 69, "duration": 121, "velocity": 95}, {"time": 37558, "pitch": 60, "duration": 60, "velocity": 54}, {"time": 37558, "pitch": 65, "duration": 60, "velocity": 55}, {"time": 37558, "pitch": 69, "duration": 60, "velocity": 59}, {"time": 37679, "pitch": 60, "duration": 61, "velocity": 61}, {"time": 37679, "pitch": 65, "duration": 61, "velocity": 72}, {"time": 37679, "pitch": 69, "duration": 61, "velocity": 60}, {"time": 37800, "pitch": 60, "duration": 61, "velocity": 95}, {"time": 37800, "pitch": 65, "duration": 61, "velocity": 105}, {"time": 37800, "pitch": 69, "duration": 61, "velocity": 99}, {"time": 38041, "pitch": 60, "duration": 119, "velocity": 50}, {"time": 38041, "pitch": 65, "duration": 119, "velocity": 45}, {"time": 38041, "pitch": 69, "duration": 119, "velocity": 69}, {"time": 38160, "pitch": 60, "duration": 120, "velocity": 95}, {"time": 38160, "pitch": 65, "duration": 120, "velocity": 103}, {"time": 38160, "pitch": 69, "duration": 120, "velocity": 95}, {"time": 38280, "pitch": 60, "duration": 109, "velocity": 65}, {"time": 38280, "pitch": 65, "duration": 109, "velocity": 74}, {"time": 38280, "pitch": 69, "duration": 109, "velocity": 79}, {"time": 38518, "pitch": 60, "duration": 80, "velocity": 97}, {"time": 38518, "pitch": 66, "duration": 80, "velocity": 97}, {"time": 38518, "pitch": 69, "duration": 80, "velocity": 99}, {"time": 38877, "pitch": 60, "duration": 121, "velocity": 97}, {"time": 38877, "pitch": 66, "duration": 121, "velocity": 95}, {"time": 38877, "pitch": 69, "duration": 121, "velocity": 95}, {"time": 38998, "pitch": 60, "duration": 60, "velocity": 54}, {"time": 38998, "pitch": 66, "duration": 60, "velocity": 55}, {"time": 38998, "pitch": 69, "duration": 60, "velocity": 59}, {"time": 39119, "pitch": 60, "duration": 61, "velocity": 61}, {"time": 39119, "pitch": 66, "duration": 61, "velocity": 72}, {"time": 39119, "pitch": 69, "duration": 61, "velocity": 60}, {"time": 39240, "pitch": 60, "duration": 61, "velocity": 95}, {"time": 39240, "pitch": 66, "duration": 61, "velocity": 105}, {"time": 39240, "pitch": 69, "duration": 61, "velocity": 99}, {"time": 39361, "pitch": 62, "duration": 120, "velocity": 97}, {"time": 39361, "pitch": 65, "duration": 120, "velocity": 95}, {"time": 39361, "pitch": 70, "duration": 120, "velocity": 95}, {"time": 39481, "pitch": 62, "duration": 59, "velocity": 54}, {"time": 39481, "pitch": 65, "duration": 59, "velocity": 55}, {"time": 39481, "pitch": 70, "duration": 59, "velocity": 59}, {"time": 39600, "pitch": 62, "duration": 60, "velocity": 61}, {"time": 39600, "pitch": 65, "duration": 60, "velocity": 72}, {"time": 39600, "pitch": 70, "duration": 60, "velocity": 60}, {"time": 39720, "pitch": 62, "duration": 59, "velocity": 95}, {"time": 39720, "pitch": 65, "duration": 59, "velocity": 105}, {"time": 39720, "pitch": 70, "duration": 59, "velocity": 99}, {"time": 39958, "pitch": 62, "duration": 120, "velocity": 50}, {"time": 39958, "pitch": 65, "duration": 120, "velocity": 45}, {"time": 39958, "pitch": 70, "duration": 120, "velocity": 69}, {"time": 40078, "pitch": 62, "duration": 119, "velocity": 95}, {"time": 40078, "pitch": 65, "duration": 119, "velocity": 103}, {"time": 40078, "pitch": 70, "duration": 119, "velocity": 95}, {"time": 40197, "pitch": 62, "duration": 231, "velocity": 65}, {"time": 40197, "pitch": 65, "duration": 231, "velocity": 74}, {"time": 40197, "pitch": 70, "duration": 231, "velocity": 79}, {"time": 40438, "pitch": 62, "duration": 81, "velocity": 97}, {"time": 40438, "pitch": 65, "duration": 81, "velocity": 97}, {"time": 40438, "pitch": 70, "duration": 81, "velocity": 99}, {"time": 40801, "pitch": 62, "duration": 120, "velocity": 97}, {"time": 40801, "pitch": 65, "duration": 120, "velocity": 95}, {"time": 40801, "pitch": 70, "duration": 120, "velocity": 95}, {"time": 40921, "pitch": 62, "duration": 59, "velocity": 54}, {"time": 40921, "pitch": 65, "duration": 59, "velocity": 55}, {"time": 40921, "pitch": 70, "duration": 59, "velocity": 59}, {"time": 41040, "pitch": 62, "duration": 60, "velocity": 61}, {"time": 41040, "pitch": 65, "duration": 60, "velocity": 72}, {"time": 41040, "pitch": 70, "duration": 60, "velocity": 60}, {"time": 41160, "pitch": 62, "duration": 59, "velocity": 95}, {"time": 41160, "pitch": 65, "duration": 59, "velocity": 105}, {"time": 41160, "pitch": 70, "duration": 59, "velocity": 99}, {"time": 41279, "pitch": 60, "duration": 119, "velocity": 97}, {"time": 41279, "pitch": 65, "duration": 119, "velocity": 95}, {"time": 41279, "pitch": 69, "duration": 119, "velocity": 95}, {"time": 41398, "pitch": 60, "duration": 60, "velocity": 54}, {"time": 41398, "pitch": 65, "duration": 60, "velocity": 55}, {"time": 41398, "pitch": 69, "duration": 60, "velocity": 59}, {"time": 41518, "pitch": 60, "duration": 59, "velocity": 61}, {"time": 41518, "pitch": 65, "duration": 59, "velocity": 72}, {"time": 41518, "pitch": 69, "duration": 59, "velocity": 60}, {"time": 41637, "pitch": 60, "duration": 60, "velocity": 95}, {"time": 41637, "pitch": 65, "duration": 60, "velocity": 105}, {"time": 41637, "pitch": 69, "duration": 60, "velocity": 99}, {"time": 41878, "pitch": 60, "duration": 121, "velocity": 50}, {"time": 41878, "pitch": 65, "duration": 121, "velocity": 45}, {"time": 41878, "pitch": 69, "duration": 121, "velocity": 69}, {"time": 41999, "pitch": 60, "duration": 121, "velocity": 95}, {"time": 41999, "pitch": 65, "duration": 121, "velocity": 103}, {"time": 41999, "pitch": 69, "duration": 121, "velocity": 95}, {"time": 42120, "pitch": 60, "duration": 231, "velocity": 65}, {"time": 42120, "pitch": 65, "duration": 231, "velocity": 74}, {"time": 42120, "pitch": 69, "duration": 231, "velocity": 79}, {"time": 42361, "pitch": 60, "duration": 79, "velocity": 97}, {"time": 42361, "pitch": 65, "duration": 79, "velocity": 97}, {"time": 42361, "pitch": 69, "duration": 79, "velocity": 99}, {"time": 42719, "pitch": 60, "duration": 119, "velocity": 97}, {"time": 42719, "pitch": 65, "duration": 119, "velocity": 95}, {"time": 42719, "pitch": 69, "duration": 119, "velocity": 95}, {"time": 42838, "pitch": 60, "duration": 60, "velocity": 54}, {"time": 42838, "pitch": 65, "duration": 60, "velocity": 55}, {"time": 42838, "pitch": 69, "duration": 60, "velocity": 59}, {"time": 42958, "pitch": 60, "duration": 59, "velocity": 61}, {"time": 42958, "pitch": 65, "duration": 59, "velocity": 72}, {"time": 42958, "pitch": 69, "duration": 59, "velocity": 60}, {"time": 43077, "pitch": 60, "duration": 60, "velocity": 95}, {"time": 43077, "pitch": 65, "duration": 60, "velocity": 105}, {"time": 43077, "pitch": 69, "duration": 60, "velocity": 99}, {"time": 43196, "pitch": 58, "duration": 122, "velocity": 97}, {"time": 43196, "pitch": 61, "duration": 122, "velocity": 95}, {"time": 43196, "pitch": 65, "duration": 122, "velocity": 95}, {"time": 43318, "pitch": 58, "duration": 60, "velocity": 54}, {"time": 43318, "pitch": 61, "duration": 60, "velocity": 55}, {"time": 43318, "pitch": 65, "duration": 60, "velocity": 59}, {"time": 43439, "pitch": 58, "duration": 60, "velocity": 61}, {"time": 43439, "pitch": 61, "duration": 60, "velocity": 72}, {"time": 43439, "pitch": 65, "duration": 60, "velocity": 60}, {"time": 43560, "pitch": 58, "duration": 61, "velocity": 95}, {"time": 43560, "pitch": 61, "duration": 61, "velocity": 105}, {"time": 43560, "pitch": 65, "duration": 61, "velocity": 99}, {"time": 43801, "pitch": 58, "duration": 119, "velocity": 50}, {"time": 43801, "pitch": 61, "duration": 119, "velocity": 45}, {"time": 43801, "pitch": 65, "duration": 119, "velocity": 69}, {"time": 43920, "pitch": 58, "duration": 119, "velocity": 95}, {"time": 43920, "pitch": 61, "duration": 119, "velocity": 103}, {"time": 43920, "pitch": 65, "duration": 119, "velocity": 95}, {"time": 44039, "pitch": 60, "duration": 229, "velocity": 65}, {"time": 44039, "pitch": 65, "duration": 229, "velocity": 74}, {"time": 44039, "pitch": 69, "duration": 229, "velocity": 79}, {"time": 44278, "pitch": 62, "duration": 80, "velocity": 97}, {"time": 44278, "pitch": 65, "duration": 80, "velocity": 97}, {"time": 44278, "pitch": 69, "duration": 80, "velocity": 99}, {"time": 44636, "pitch": 62, "duration": 122, "velocity": 97}, {"time": 44636, "pitch": 65, "duration": 122, "velocity": 95}, {"time": 44636, "pitch": 69, "duration": 122, "velocity": 95}, {"time": 44758, "pitch": 62, "duration": 60, "velocity": 54}, {"time": 44758, "pitch": 65, "duration": 60, "velocity": 55}, {"time": 44758, "pitch": 69, "duration": 60, "velocity": 59}, {"time": 44879, "pitch": 62, "duration": 60, "velocity": 61}, {"time": 44879, "pitch": 65, "duration": 60, "velocity": 72}, {"time": 44879, "pitch": 69, "duration": 60, "velocity": 60}, {"time": 45000, "pitch": 62, "duration": 61, "velocity": 95}, {"time": 45000, "pitch": 65, "duration": 61, "velocity": 105}, {"time": 45000, "pitch": 69, "duration": 61, "velocity": 99}, {"time": 45121, "pitch": 60, "duration": 120, "velocity": 97}, {"time": 45121, "pitch": 65, "duration": 120, "velocity": 95}, {"time": 45121, "pitch": 69, "duration": 120, "velocity": 95}, {"time": 45241, "pitch": 60, "duration": 59, "velocity": 54}, {"time": 45241, "pitch": 65, "duration": 59, "velocity": 55}, {"time": 45241, "pitch": 69, "duration": 59, "velocity": 59}, {"time": 45360, "pitch": 60, "duration": 60, "velocity": 61}, {"time": 45360, "pitch": 65, "duration": 60, "velocity": 72}, {"time": 45360, "pitch": 69, "duration": 60, "velocity": 60}, {"time": 45479, "pitch": 60, "duration": 60, "velocity": 95}, {"time": 45479, "pitch": 65, "duration": 60, "velocity": 105}, {"time": 45479, "pitch": 69, "duration": 60, "velocity": 99}, {"time": 45720, "pitch": 60, "duration": 121, "velocity": 50}, {"time": 45720, "pitch": 65, "duration": 121, "velocity": 45}, {"time": 45720, "pitch": 69, "duration": 121, "velocity": 69}, {"time": 45841, "pitch": 60, "duration": 121, "velocity": 95}, {"time": 45841, "pitch": 65, "duration": 121, "velocity": 103}, {"time": 45841, "pitch": 69, "duration": 121, "velocity": 95}, {"time": 45962, "pitch": 60, "duration": 112, "velocity": 65}, {"time": 45962, "pitch": 65, "duration": 112, "velocity": 74}, {"time": 45962, "pitch": 69, "duration": 112, "velocity": 79}, {"time": 46203, "pitch": 60, "duration": 80, "velocity": 97}, {"time": 46203, "pitch": 65, "duration": 80, "velocity": 97}, {"time": 46203, "pitch": 69, "duration": 80, "velocity": 99}, {"time": 46561, "pitch": 60, "duration": 120, "velocity": 97}, {"time": 46561, "pitch": 65, "duration": 120, "velocity": 95}, {"time": 46561, "pitch": 69, "duration": 120, "velocity": 95}, {"time": 46681, "pitch": 60, "duration": 59, "velocity": 54}, {"time": 46681, "pitch": 65, "duration": 59, "velocity": 55}, {"time": 46681, "pitch": 69, "duration": 59, "velocity": 59}, {"time": 46800, "pitch": 60, "duration": 60, "velocity": 61}, {"time": 46800, "pitch": 65, "duration": 60, "velocity": 72}, {"time": 46800, "pitch": 69, "duration": 60, "velocity": 60}, {"time": 46919, "pitch": 60, "duration": 60, "velocity": 95}, {"time": 46919, "pitch": 65, "duration": 60, "velocity": 105}, {"time": 46919, "pitch": 69, "duration": 60, "velocity": 99}, {"time": 47039, "pitch": 62, "duration": 121, "velocity": 97}, {"time": 47039, "pitch": 65, "duration": 121, "velocity": 95}, {"time": 47039, "pitch": 69, "duration": 121, "velocity": 95}, {"time": 47160, "pitch": 62, "duration": 61, "velocity": 54}, {"time": 47160, "pitch": 65, "duration": 61, "velocity": 55}, {"time": 47160, "pitch": 69, "duration": 61, "velocity": 59}, {"time": 47281, "pitch": 62, "duration": 61, "velocity": 61}, {"time": 47281, "pitch": 65, "duration": 61, "velocity": 72}, {"time": 47281, "pitch": 69, "duration": 61, "velocity": 60}, {"time": 47402, "pitch": 62, "duration": 61, "velocity": 95}, {"time": 47402, "pitch": 65, "duration": 61, "velocity": 105}, {"time": 47402, "pitch": 69, "duration": 61, "velocity": 99}, {"time": 47643, "pitch": 62, "duration": 119, "velocity": 50}, {"time": 47643, "pitch": 65, "duration": 119, "velocity": 45}, {"time": 47643, "pitch": 69, "duration": 119, "velocity": 69}, {"time": 47762, "pitch": 62, "duration": 120, "velocity": 95}, {"time": 47762, "pitch": 65, "duration": 120, "velocity": 103}, {"time": 47762, "pitch": 69, "duration": 120, "velocity": 95}, {"time": 47882, "pitch": 62, "duration": 229, "velocity": 65}, {"time": 47882, "pitch": 65, "duration": 229, "velocity": 74}, {"time": 47882, "pitch": 69, "duration": 229, "velocity": 79}, {"time": 48121, "pitch": 62, "duration": 79, "velocity": 97}, {"time": 48121, "pitch": 65, "duration": 79, "velocity": 97}, {"time": 48121, "pitch": 69, "duration": 79, "velocity": 99}, {"time": 48964, "pitch": 60, "duration": 119, "velocity": 97}, {"time": 48964, "pitch": 62, "duration": 119, "velocity": 95}, {"time": 48964, "pitch": 67, "duration": 119, "velocity": 95}, {"time": 49083, "pitch": 60, "duration": 119, "velocity": 61}, {"time": 49083, "pitch": 62, "duration": 119, "velocity": 72}, {"time": 49083, "pitch": 67, "duration": 119, "velocity": 60}, {"time": 49202, "pitch": 60, "duration": 120, "velocity": 61}, {"time": 49202, "pitch": 62, "duration": 120, "velocity": 72}, {"time": 49202, "pitch": 67, "duration": 120, "velocity": 60}, {"time": 49322, "pitch": 60, "duration": 59, "velocity": 90}, {"time": 49322, "pitch": 62, "duration": 59, "velocity": 90}, {"time": 49322, "pitch": 67, "duration": 59, "velocity": 90}, {"time": 49561, "pitch": 60, "duration": 119, "velocity": 50}, {"time": 49561, "pitch": 65, "duration": 119, "velocity": 45}, {"time": 49561, "pitch": 69, "duration": 119, "velocity": 69}, {"time": 49680, "pitch": 60, "duration": 119, "velocity": 95}, {"time": 49680, "pitch": 65, "duration": 119, "velocity": 103}, {"time": 49680, "pitch": 69, "duration": 119, "velocity": 95}, {"time": 49799, "pitch": 60, "duration": 231, "velocity": 65}, {"time": 49799, "pitch": 65, "duration": 231, "velocity": 74}, {"time": 49799, "pitch": 69, "duration": 231, "velocity": 79}, {"time": 50040, "pitch": 60, "duration": 121, "velocity": 80}, {"time": 50040, "pitch": 65, "duration": 121, "velocity": 80}, {"time": 50040, "pitch": 69, "duration": 121, "velocity": 80}, {"time": 50161, "pitch": 60, "duration": 81, "velocity": 97}, {"time": 50161, "pitch": 65, "duration": 81, "velocity": 97}, {"time": 50161, "pitch": 69, "duration": 81, "velocity": 99}, {"time": 50282, "pitch": 60, "duration": 231, "velocity": 65}, {"time": 50282, "pitch": 65, "duration": 231, "velocity": 74}, {"time": 50282, "pitch": 69, "duration": 231, "velocity": 79}, {"time": 50523, "pitch": 60, "duration": 40, "velocity": 80}, {"time": 50523, "pitch": 65, "duration": 40, "velocity": 80}, {"time": 50523, "pitch": 69, "duration": 40, "velocity": 80}, {"time": 50642, "pitch": 60, "duration": 229, "velocity": 97}, {"time": 50642, "pitch": 65, "duration": 229, "velocity": 97}, {"time": 50642, "pitch": 69, "duration": 229, "velocity": 99}, {"time": 50881, "pitch": 62, "duration": 119, "velocity": 97}, {"time": 50881, "pitch": 65, "duration": 119, "velocity": 95}, {"time": 50881, "pitch": 69, "duration": 119, "velocity": 95}, {"time": 51000, "pitch": 62, "duration": 60, "velocity": 54}, {"time": 51000, "pitch": 65, "duration": 60, "velocity": 55}, {"time": 51000, "pitch": 69, "duration": 60, "velocity": 59}, {"time": 51120, "pitch": 62, "duration": 60, "velocity": 61}, {"time": 51120, "pitch": 65, "duration": 60, "velocity": 72}, {"time": 51120, "pitch": 69, "duration": 60, "velocity": 60}, {"time": 51239, "pitch": 62, "duration": 60, "velocity": 95}, {"time": 51239, "pitch": 65, "duration": 60, "velocity": 105}, {"time": 51239, "pitch": 69, "duration": 60, "velocity": 99}, {"time": 51480, "pitch": 62, "duration": 121, "velocity": 50}, {"time": 51480, "pitch": 65, "duration": 121, "velocity": 45}, {"time": 51480, "pitch": 69, "duration": 121, "velocity": 69}, {"time": 51601, "pitch": 62, "duration": 121, "velocity": 95}, {"time": 51601, "pitch": 65, "duration": 121, "velocity": 103}, {"time": 51601, "pitch": 69, "duration": 121, "velocity": 95}, {"time": 51722, "pitch": 62, "duration": 231, "velocity": 65}, {"time": 51722, "pitch": 65, "duration": 231, "velocity": 74}, {"time": 51722, "pitch": 69, "duration": 231, "velocity": 79}, {"time": 51963, "pitch": 62, "duration": 79, "velocity": 97}, {"time": 51963, "pitch": 65, "duration": 79, "velocity": 97}, {"time": 51963, "pitch": 69, "duration": 79, "velocity": 99}, {"time": 52799, "pitch": 60, "duration": 121, "velocity": 97}, {"time": 52799, "pitch": 62, "duration": 121, "velocity": 95}, {"time": 52799, "pitch": 67, "duration": 121, "velocity": 95}, {"time": 52920, "pitch": 60, "duration": 121, "velocity": 61}, {"time": 52920, "pitch": 62, "duration": 121, "velocity": 72}, {"time": 52920, "pitch": 67, "duration": 121, "velocity": 60}, {"time": 53041, "pitch": 60, "duration": 121, "velocity": 61}, {"time": 53041, "pitch": 62, "duration": 121, "velocity": 72}, {"time": 53041, "pitch": 67, "duration": 121, "velocity": 60}, {"time": 53162, "pitch": 60, "duration": 61, "velocity": 90}, {"time": 53162, "pitch": 62, "duration": 61, "velocity": 90}, {"time": 53162, "pitch": 67, "duration": 61, "velocity": 90}, {"time": 53403, "pitch": 60, "duration": 119, "velocity": 50}, {"time": 53403, "pitch": 65, "duration": 119, "velocity": 45}, {"time": 53403, "pitch": 69, "duration": 119, "velocity": 69}, {"time": 53522, "pitch": 60, "duration": 120, "velocity": 95}, {"time": 53522, "pitch": 65, "duration": 120, "velocity": 103}, {"time": 53522, "pitch": 69, "duration": 120, "velocity": 95}, {"time": 53642, "pitch": 60, "duration": 228, "velocity": 65}, {"time": 53642, "pitch": 65, "duration": 228, "velocity": 74}, {"time": 53642, "pitch": 69, "duration": 228, "velocity": 79}, {"time": 53880, "pitch": 60, "duration": 120, "velocity": 80}, {"time": 53880, "pitch": 65, "duration": 120, "velocity": 80}, {"time": 53880, "pitch": 69, "duration": 120, "velocity": 80}, {"time": 54000, "pitch": 60, "duration": 79, "velocity": 97}, {"time": 54000, "pitch": 65, "duration": 79, "velocity": 97}, {"time": 54000, "pitch": 69, "duration": 79, "velocity": 99}, {"time": 54119, "pitch": 60, "duration": 231, "velocity": 65}, {"time": 54119, "pitch": 65, "duration": 231, "velocity": 74}, {"time": 54119, "pitch": 69, "duration": 231, "velocity": 79}, {"time": 54360, "pitch": 60, "duration": 40, "velocity": 80}, {"time": 54360, "pitch": 65, "duration": 40, "velocity": 80}, {"time": 54360, "pitch": 69, "duration": 40, "velocity": 80}, {"time": 54481, "pitch": 60, "duration": 232, "velocity": 97}, {"time": 54481, "pitch": 65, "duration": 232, "velocity": 97}, {"time": 54481, "pitch": 69, "duration": 232, "velocity": 99}, {"time": 54723, "pitch": 62, "duration": 120, "velocity": 97}, {"time": 54723, "pitch": 65, "duration": 120, "velocity": 95}, {"time": 54723, "pitch": 69, "duration": 120, "velocity": 95}, {"time": 54843, "pitch": 62, "duration": 59, "velocity": 54}, {"time": 54843, "pitch": 65, "duration": 59, "velocity": 55}, {"time": 54843, "pitch": 69, "duration": 59, "velocity": 59}, {"time": 54962, "pitch": 62, "duration": 60, "velocity": 61}, {"time": 54962, "pitch": 65, "duration": 60, "velocity": 72}, {"time": 54962, "pitch": 69, "duration": 60, "velocity": 60}, {"time": 55082, "pitch": 62, "duration": 59, "velocity": 95}, {"time": 55082, "pitch": 65, "duration": 59, "velocity": 105}, {"time": 55082, "pitch": 69, "duration": 59, "velocity": 99}, {"time": 55320, "pitch": 62, "duration": 120, "velocity": 50}, {"time": 55320, "pitch": 65, "duration": 120, "velocity": 45}, {"time": 55320, "pitch": 69, "duration": 120, "velocity": 69}, {"time": 55440, "pitch": 62, "duration": 119, "velocity": 95}, {"time": 55440, "pitch": 65, "duration": 119, "velocity": 103}, {"time": 55440, "pitch": 69, "duration": 119, "velocity": 95}, {"time": 55559, "pitch": 62, "duration": 231, "velocity": 65}, {"time": 55559, "pitch": 65, "duration": 231, "velocity": 74}, {"time": 55559, "pitch": 69, "duration": 231, "velocity": 79}, {"time": 55800, "pitch": 62, "duration": 81, "velocity": 97}, {"time": 55800, "pitch": 65, "duration": 81, "velocity": 97}, {"time": 55800, "pitch": 69, "duration": 81, "velocity": 99}, {"time": 56641, "pitch": 60, "duration": 119, "velocity": 97}, {"time": 56641, "pitch": 62, "duration": 119, "velocity": 95}, {"time": 56641, "pitch": 67, "duration": 119, "velocity": 95}, {"time": 56760, "pitch": 60, "duration": 120, "velocity": 61}, {"time": 56760, "pitch": 62, "duration": 120, "velocity": 72}, {"time": 56760, "pitch": 67, "duration": 120, "velocity": 60}, {"time": 56880, "pitch": 60, "duration": 119, "velocity": 61}, {"time": 56880, "pitch": 62, "duration": 119, "velocity": 72}, {"time": 56880, "pitch": 67, "duration": 119, "velocity": 60}, {"time": 56999, "pitch": 60, "duration": 60, "velocity": 90}, {"time": 56999, "pitch": 62, "duration": 60, "velocity": 90}, {"time": 56999, "pitch": 67, "duration": 60, "velocity": 90}, {"time": 57240, "pitch": 60, "duration": 121, "velocity": 50}, {"time": 57240, "pitch": 65, "duration": 121, "velocity": 45}, {"time": 57240, "pitch": 69, "duration": 121, "velocity": 69}, {"time": 57361, "pitch": 60, "duration": 121, "velocity": 95}, {"time": 57361, "pitch": 65, "duration": 121, "velocity": 103}, {"time": 57361, "pitch": 69, "duration": 121, "velocity": 95}, {"time": 57482, "pitch": 60, "duration": 231, "velocity": 65}, {"time": 57482, "pitch": 65, "duration": 231, "velocity": 74}, {"time": 57482, "pitch": 69, "duration": 231, "velocity": 79}, {"time": 57723, "pitch": 60, "duration": 119, "velocity": 80}, {"time": 57723, "pitch": 65, "duration": 119, "velocity": 80}, {"time": 57723, "pitch": 69, "duration": 119, "velocity": 80}, {"time": 57842, "pitch": 60, "duration": 80, "velocity": 97}, {"time": 57842, "pitch": 65, "duration": 80, "velocity": 97}, {"time": 57842, "pitch": 69, "duration": 80, "velocity": 99}, {"time": 57961, "pitch": 60, "duration": 229, "velocity": 65}, {"time": 57961, "pitch": 65, "duration": 229, "velocity": 74}, {"time": 57961, "pitch": 69, "duration": 229, "velocity": 79}, {"time": 58200, "pitch": 60, "duration": 40, "velocity": 80}, {"time": 58200, "pitch": 65, "duration": 40, "velocity": 80}, {"time": 58200, "pitch": 69, "duration": 40, "velocity": 80}, {"time": 58320, "pitch": 60, "duration": 229, "velocity": 97}, {"time": 58320, "pitch": 65, "duration": 229, "velocity": 97}, {"time": 58320, "pitch": 69, "duration": 229, "velocity": 99}, {"time": 58558, "pitch": 62, "duration": 122, "velocity": 97}, {"time": 58558, "pitch": 65, "duration": 122, "velocity": 95}, {"time": 58558, "pitch": 69, "duration": 122, "velocity": 95}, {"time": 58680, "pitch": 62, "duration": 60, "velocity": 54}, {"time": 58680, "pitch": 65, "duration": 60, "velocity": 55}, {"time": 58680, "pitch": 69, "duration": 60, "velocity": 59}, {"time": 58801, "pitch": 62, "duration": 60, "velocity": 61}, {"time": 58801, "pitch": 65, "duration": 60, "velocity": 72}, {"time": 58801, "pitch": 69, "duration": 60, "velocity": 60}, {"time": 58922, "pitch": 62, "duration": 61, "velocity": 95}, {"time": 58922, "pitch": 65, "duration": 61, "velocity": 105}, {"time": 58922, "pitch": 69, "duration": 61, "velocity": 99}, {"time": 59163, "pitch": 62, "duration": 119, "velocity": 50}, {"time": 59163, "pitch": 65, "duration": 119, "velocity": 45}, {"time": 59163, "pitch": 69, "duration": 119, "velocity": 69}, {"time": 59282, "pitch": 62, "duration": 119, "velocity": 95}, {"time": 59282, "pitch": 65, "duration": 119, "velocity": 103}, {"time": 59282, "pitch": 69, "duration": 119, "velocity": 95}, {"time": 59401, "pitch": 62, "duration": 229, "velocity": 65}, {"time": 59401, "pitch": 65, "duration": 229, "velocity": 74}, {"time": 59401, "pitch": 69, "duration": 229, "velocity": 79}, {"time": 59640, "pitch": 62, "duration": 80, "velocity": 97}, {"time": 59640, "pitch": 65, "duration": 80, "velocity": 97}, {"time": 59640, "pitch": 69, "duration": 80, "velocity": 99}, {"time": 60483, "pitch": 60, "duration": 120, "velocity": 97}, {"time": 60483, "pitch": 62, "duration": 120, "velocity": 95}, {"time": 60483, "pitch": 67, "duration": 120, "velocity": 95}, {"time": 60603, "pitch": 60, "duration": 119, "velocity": 61}, {"time": 60603, "pitch": 62, "duration": 119, "velocity": 72}, {"time": 60603, "pitch": 67, "duration": 119, "velocity": 60}, {"time": 60722, "pitch": 60, "duration": 119, "velocity": 61}, {"time": 60722, "pitch": 62, "duration": 119, "velocity": 72}, {"time": 60722, "pitch": 67, "duration": 119, "velocity": 60}, {"time": 60841, "pitch": 60, "duration": 60, "velocity": 90}, {"time": 60841, "pitch": 62, "duration": 60, "velocity": 90}, {"time": 60841, "pitch": 67, "duration": 60, "velocity": 90}, {"time": 61080, "pitch": 60, "duration": 120, "velocity": 50}, {"time": 61080, "pitch": 65, "duration": 120, "velocity": 45}, {"time": 61080, "pitch": 69, "duration": 120, "velocity": 69}, {"time": 61200, "pitch": 60, "duration": 119, "velocity": 95}, {"time": 61200, "pitch": 65, "duration": 119, "velocity": 103}, {"time": 61200, "pitch": 69, "duration": 119, "velocity": 95}, {"time": 61319, "pitch": 60, "duration": 231, "velocity": 65}, {"time": 61319, "pitch": 65, "duration": 231, "velocity": 74}, {"time": 61319, "pitch": 69, "duration": 231, "velocity": 79}, {"time": 61560, "pitch": 60, "duration": 121, "velocity": 80}, {"time": 61560, "pitch": 65, "duration": 121, "velocity": 80}, {"time": 61560, "pitch": 69, "duration": 121, "velocity": 80}, {"time": 61681, "pitch": 60, "duration": 81, "velocity": 97}, {"time": 61681, "pitch": 65, "duration": 81, "velocity": 97}, {"time": 61681, "pitch": 69, "duration": 81, "velocity": 99}, {"time": 61802, "pitch": 60, "duration": 111, "velocity": 65}, {"time": 61802, "pitch": 65, "duration": 111, "velocity": 74}, {"time": 61802, "pitch": 69, "duration": 111, "velocity": 79}, {"time": 61923, "pitch": 60, "duration": 468, "velocity": 101}, {"time": 61923, "pitch": 66, "duration": 468, "velocity": 108}, {"time": 61923, "pitch": 68, "duration": 468, "velocity": 96}, {"time": 62401, "pitch": 62, "duration": 119, "velocity": 97}, {"time": 62401, "pitch": 65, "duration": 119, "velocity": 95}, {"time": 62401, "pitch": 69, "duration": 119, "velocity": 95}, {"time": 62520, "pitch": 62, "duration": 60, "velocity": 54}, {"time": 62520, "pitch": 65, "duration": 60, "velocity": 55}, {"time": 62520, "pitch": 69, "duration": 60, "velocity": 59}, {"time": 62640, "pitch": 62, "duration": 59, "velocity": 61}, {"time": 62640, "pitch": 65, "duration": 59, "velocity": 72}, {"time": 62640, "pitch": 69, "duration": 59, "velocity": 60}, {"time": 62759, "pitch": 62, "duration": 60, "velocity": 95}, {"time": 62759, "pitch": 65, "duration": 60, "velocity": 105}, {"time": 62759, "pitch": 69, "duration": 60, "velocity": 99}, {"time": 63000, "pitch": 62, "duration": 121, "velocity": 50}, {"time": 63000, "pitch": 65, "duration": 121, "velocity": 45}, {"time": 63000, "pitch": 69, "duration": 121, "velocity": 69}, {"time": 63121, "pitch": 62, "duration": 121, "velocity": 95}, {"time": 63121, "pitch": 65, "duration": 121, "velocity": 103}, {"time": 63121, "pitch": 69, "duration": 121, "velocity": 95}, {"time": 63242, "pitch": 62, "duration": 231, "velocity": 65}, {"time": 63242, "pitch": 65, "duration": 231, "velocity": 74}, {"time": 63242, "pitch": 69, "duration": 231, "velocity": 79}, {"time": 63483, "pitch": 62, "duration": 79, "velocity": 97}, {"time": 63483, "pitch": 65, "duration": 79, "velocity": 97}, {"time": 63483, "pitch": 69, "duration": 79, "velocity": 99}, {"time": 64318, "pitch": 60, "duration": 122, "velocity": 61}, {"time": 64318, "pitch": 62, "duration": 122, "velocity": 72}, {"time": 64318, "pitch": 67, "duration": 122, "velocity": 60}, {"time": 64440, "pitch": 60, "duration": 121, "velocity": 97}, {"time": 64440, "pitch": 62, "duration": 121, "velocity": 95}, {"time": 64440, "pitch": 67, "duration": 121, "velocity": 95}, {"time": 64561, "pitch": 60, "duration": 121, "velocity": 61}, {"time": 64561, "pitch": 62, "duration": 121, "velocity": 72}, {"time": 64561, "pitch": 67, "duration": 121, "velocity": 60}, {"time": 64682, "pitch": 60, "duration": 61, "velocity": 90}, {"time": 64682, "pitch": 62, "duration": 61, "velocity": 90}, {"time": 64682, "pitch": 67, "duration": 61, "velocity": 90}, {"time": 64923, "pitch": 60, "duration": 119, "velocity": 50}, {"time": 64923, "pitch": 65, "duration": 119, "velocity": 45}, {"time": 64923, "pitch": 69, "duration": 119, "velocity": 69}, {"time": 65042, "pitch": 60, "duration": 119, "velocity": 95}, {"time": 65042, "pitch": 65, "duration": 119, "velocity": 103}, {"time": 65042, "pitch": 69, "duration": 119, "velocity": 95}, {"time": 65161, "pitch": 60, "duration": 229, "velocity": 65}, {"time": 65161, "pitch": 65, "duration": 229, "velocity": 74}, {"time": 65161, "pitch": 69, "duration": 229, "velocity": 79}, {"time": 65400, "pitch": 60, "duration": 120, "velocity": 80}, {"time": 65400, "pitch": 65, "duration": 120, "velocity": 80}, {"time": 65400, "pitch": 69, "duration": 120, "velocity": 80}, {"time": 65520, "pitch": 60, "duration": 79, "velocity": 97}, {"time": 65520, "pitch": 65, "duration": 79, "velocity": 97}, {"time": 65520, "pitch": 69, "duration": 79, "velocity": 99}, {"time": 65639, "pitch": 60, "duration": 230, "velocity": 65}, {"time": 65639, "pitch": 65, "duration": 230, "velocity": 74}, {"time": 65639, "pitch": 69, "duration": 230, "velocity": 79}, {"time": 65880, "pitch": 60, "duration": 40, "velocity": 80}, {"time": 65880, "pitch": 65, "duration": 40, "velocity": 80}, {"time": 65880, "pitch": 69, "duration": 40, "velocity": 80}, {"time": 66001, "pitch": 60, "duration": 232, "velocity": 97}, {"time": 66001, "pitch": 65, "duration": 232, "velocity": 97}, {"time": 66001, "pitch": 69, "duration": 232, "velocity": 99}, {"time": 66243, "pitch": 62, "duration": 50, "velocity": 97}, {"time": 66243, "pitch": 65, "duration": 50, "velocity": 95}, {"time": 66243, "pitch": 69, "duration": 50, "velocity": 95}, {"time": 66362, "pitch": 62, "duration": 120, "velocity": 54}, {"time": 66362, "pitch": 65, "duration": 120, "velocity": 55}, {"time": 66362, "pitch": 69, "duration": 120, "velocity": 59}, {"time": 66482, "pitch": 62, "duration": 119, "velocity": 61}, {"time": 66482, "pitch": 65, "duration": 119, "velocity": 72}, {"time": 66482, "pitch": 69, "duration": 119, "velocity": 60}, {"time": 66601, "pitch": 62, "duration": 120, "velocity": 95}, {"time": 66601, "pitch": 65, "duration": 120, "velocity": 105}, {"time": 66601, "pitch": 69, "duration": 120, "velocity": 99}, {"time": 66840, "pitch": 62, "duration": 119, "velocity": 50}, {"time": 66840, "pitch": 65, "duration": 119, "velocity": 45}, {"time": 66840, "pitch": 69, "duration": 119, "velocity": 69}, {"time": 66959, "pitch": 62, "duration": 120, "velocity": 95}, {"time": 66959, "pitch": 65, "duration": 120, "velocity": 103}, {"time": 66959, "pitch": 69, "duration": 120, "velocity": 95}, {"time": 67079, "pitch": 62, "duration": 230, "velocity": 65}, {"time": 67079, "pitch": 65, "duration": 230, "velocity": 74}, {"time": 67079, "pitch": 69, "duration": 230, "velocity": 79}, {"time": 67319, "pitch": 62, "duration": 81, "velocity": 97}, {"time": 67319, "pitch": 65, "duration": 81, "velocity": 97}, {"time": 67319, "pitch": 69, "duration": 81, "velocity": 99}, {"time": 68161, "pitch": 60, "duration": 119, "velocity": 97}, {"time": 68161, "pitch": 62, "duration": 119, "velocity": 95}, {"time": 68161, "pitch": 67, "duration": 119, "velocity": 95}, {"time": 68280, "pitch": 60, "duration": 119, "velocity": 54}, {"time": 68280, "pitch": 62, "duration": 119, "velocity": 55}, {"time": 68280, "pitch": 67, "duration": 119, "velocity": 59}, {"time": 68399, "pitch": 60, "duration": 120, "velocity": 61}, {"time": 68399, "pitch": 62, "duration": 120, "velocity": 72}, {"time": 68399, "pitch": 67, "duration": 120, "velocity": 60}, {"time": 68519, "pitch": 60, "duration": 119, "velocity": 95}, {"time": 68519, "pitch": 62, "duration": 119, "velocity": 105}, {"time": 68519, "pitch": 67, "duration": 119, "velocity": 99}, {"time": 68759, "pitch": 60, "duration": 122, "velocity": 50}, {"time": 68759, "pitch": 65, "duration": 122, "velocity": 45}, {"time": 68759, "pitch": 69, "duration": 122, "velocity": 69}, {"time": 68881, "pitch": 60, "duration": 121, "velocity": 95}, {"time": 68881, "pitch": 65, "duration": 121, "velocity": 103}, {"time": 68881, "pitch": 69, "duration": 121, "velocity": 95}, {"time": 69002, "pitch": 60, "duration": 230, "velocity": 65}, {"time": 69002, "pitch": 65, "duration": 230, "velocity": 74}, {"time": 69002, "pitch": 69, "duration": 230, "velocity": 79}, {"time": 69242, "pitch": 60, "duration": 80, "velocity": 97}, {"time": 69242, "pitch": 65, "duration": 80, "velocity": 97}, {"time": 69242, "pitch": 69, "duration": 80, "velocity": 99}, {"time": 69601, "pitch": 60, "duration": 119, "velocity": 61}, {"time": 69601, "pitch": 62, "duration": 119, "velocity": 72}, {"time": 69601, "pitch": 69, "duration": 119, "velocity": 60}, {"time": 69720, "pitch": 60, "duration": 80, "velocity": 95}, {"time": 69720, "pitch": 62, "duration": 80, "velocity": 105}, {"time": 69720, "pitch": 69, "duration": 80, "velocity": 99}, {"time": 70078, "pitch": 62, "duration": 121, "velocity": 97}, {"time": 70078, "pitch": 65, "duration": 121, "velocity": 95}, {"time": 70078, "pitch": 69, "duration": 121, "velocity": 95}, {"time": 70199, "pitch": 62, "duration": 61, "velocity": 54}, {"time": 70199, "pitch": 65, "duration": 61, "velocity": 55}, {"time": 70199, "pitch": 69, "duration": 61, "velocity": 59}, {"time": 70321, "pitch": 62, "duration": 60, "velocity": 61}, {"time": 70321, "pitch": 65, "duration": 60, "velocity": 72}, {"time": 70321, "pitch": 69, "duration": 60, "velocity": 60}, {"time": 70442, "pitch": 62, "duration": 60, "velocity": 95}, {"time": 70442, "pitch": 65, "duration": 60, "velocity": 105}, {"time": 70442, "pitch": 69, "duration": 60, "velocity": 99}, {"time": 70682, "pitch": 62, "duration": 120, "velocity": 50}, {"time": 70682, "pitch": 65, "duration": 120, "velocity": 45}, {"time": 70682, "pitch": 69, "duration": 120, "velocity": 69}, {"time": 70802, "pitch": 62, "duration": 119, "velocity": 95}, {"time": 70802, "pitch": 65, "duration": 119, "velocity": 103}, {"time": 70802, "pitch": 69, "duration": 119, "velocity": 95}, {"time": 70921, "pitch": 62, "duration": 229, "velocity": 65}, {"time": 70921, "pitch": 65, "duration": 229, "velocity": 74}, {"time": 70921, "pitch": 69, "duration": 229, "velocity": 79}, {"time": 71160, "pitch": 62, "duration": 80, "velocity": 97}, {"time": 71160, "pitch": 65, "duration": 80, "velocity": 97}, {"time": 71160, "pitch": 69, "duration": 80, "velocity": 99}, {"time": 72003, "pitch": 60, "duration": 119, "velocity": 61}, {"time": 72003, "pitch": 62, "duration": 119, "velocity": 72}, {"time": 72003, "pitch": 67, "duration": 119, "velocity": 60}, {"time": 72122, "pitch": 60, "duration": 120, "velocity": 97}, {"time": 72122, "pitch": 62, "duration": 120, "velocity": 95}, {"time": 72122, "pitch": 67, "duration": 120, "velocity": 95}, {"time": 72242, "pitch": 60, "duration": 119, "velocity": 61}, {"time": 72242, "pitch": 62, "duration": 119, "velocity": 72}, {"time": 72242, "pitch": 67, "duration": 119, "velocity": 60}, {"time": 72361, "pitch": 60, "duration": 60, "velocity": 90}, {"time": 72361, "pitch": 62, "duration": 60, "velocity": 90}, {"time": 72361, "pitch": 67, "duration": 60, "velocity": 90}, {"time": 72600, "pitch": 60, "duration": 119, "velocity": 50}, {"time": 72600, "pitch": 65, "duration": 119, "velocity": 45}, {"time": 72600, "pitch": 69, "duration": 119, "velocity": 69}, {"time": 72719, "pitch": 60, "duration": 120, "velocity": 95}, {"time": 72719, "pitch": 65, "duration": 120, "velocity": 103}, {"time": 72719, "pitch": 69, "duration": 120, "velocity": 95}, {"time": 72839, "pitch": 60, "duration": 230, "velocity": 65}, {"time": 72839, "pitch": 65, "duration": 230, "velocity": 74}, {"time": 72839, "pitch": 69, "duration": 230, "velocity": 79}, {"time": 73079, "pitch": 60, "duration": 122, "velocity": 80}, {"time": 73079, "pitch": 65, "duration": 122, "velocity": 80}, {"time": 73079, "pitch": 69, "duration": 122, "velocity": 80}, {"time": 73201, "pitch": 60, "duration": 80, "velocity": 97}, {"time": 73201, "pitch": 65, "duration": 80, "velocity": 97}, {"time": 73201, "pitch": 69, "duration": 80, "velocity": 99}, {"time": 73322, "pitch": 60, "duration": 230, "velocity": 65}, {"time": 73322, "pitch": 65, "duration": 230, "velocity": 74}, {"time": 73322, "pitch": 69, "duration": 230, "velocity": 79}, {"time": 73562, "pitch": 60, "duration": 40, "velocity": 80}, {"time": 73562, "pitch": 65, "duration": 40, "velocity": 80}, {"time": 73562, "pitch": 69, "duration": 40, "velocity": 80}, {"time": 73682, "pitch": 60, "duration": 229, "velocity": 97}, {"time": 73682, "pitch": 65, "duration": 229, "velocity": 97}, {"time": 73682, "pitch": 69, "duration": 229, "velocity": 99}, {"time": 73921, "pitch": 62, "duration": 119, "velocity": 97}, {"time": 73921, "pitch": 65, "duration": 119, "velocity": 95}, {"time": 73921, "pitch": 69, "duration": 119, "velocity": 95}, {"time": 74040, "pitch": 62, "duration": 119, "velocity": 54}, {"time": 74040, "pitch": 65, "duration": 119, "velocity": 55}, {"time": 74040, "pitch": 69, "duration": 119, "velocity": 59}, {"time": 74159, "pitch": 62, "duration": 120, "velocity": 61}, {"time": 74159, "pitch": 65, "duration": 120, "velocity": 72}, {"time": 74159, "pitch": 69, "duration": 120, "velocity": 60}, {"time": 74279, "pitch": 62, "duration": 119, "velocity": 95}, {"time": 74279, "pitch": 65, "duration": 119, "velocity": 105}, {"time": 74279, "pitch": 69, "duration": 119, "velocity": 99}, {"time": 74519, "pitch": 62, "duration": 121, "velocity": 50}, {"time": 74519, "pitch": 65, "duration": 121, "velocity": 45}, {"time": 74519, "pitch": 69, "duration": 121, "velocity": 69}, {"time": 74640, "pitch": 62, "duration": 122, "velocity": 95}, {"time": 74640, "pitch": 65, "duration": 122, "velocity": 103}, {"time": 74640, "pitch": 69, "duration": 122, "velocity": 95}, {"time": 74762, "pitch": 62, "duration": 230, "velocity": 65}, {"time": 74762, "pitch": 65, "duration": 230, "velocity": 74}, {"time": 74762, "pitch": 69, "duration": 230, "velocity": 79}, {"time": 75002, "pitch": 62, "duration": 80, "velocity": 97}, {"time": 75002, "pitch": 65, "duration": 80, "velocity": 97}, {"time": 75002, "pitch": 69, "duration": 80, "velocity": 99}, {"time": 75599, "pitch": 62, "duration": 80, "velocity": 97}, {"time": 75599, "pitch": 65, "duration": 80, "velocity": 97}, {"time": 75599, "pitch": 69, "duration": 80, "velocity": 99}, {"time": 75838, "pitch": 60, "duration": 121, "velocity": 97}, {"time": 75838, "pitch": 62, "duration": 121, "velocity": 95}, {"time": 75838, "pitch": 69, "duration": 121, "velocity": 95}, {"time": 75959, "pitch": 60, "duration": 121, "velocity": 54}, {"time": 75959, "pitch": 62, "duration": 121, "velocity": 55}, {"time": 75959, "pitch": 69, "duration": 121, "velocity": 59}, {"time": 76080, "pitch": 60, "duration": 122, "velocity": 61}, {"time": 76080, "pitch": 62, "duration": 122, "velocity": 72}, {"time": 76080, "pitch": 69, "duration": 122, "velocity": 60}, {"time": 76202, "pitch": 60, "duration": 121, "velocity": 95}, {"time": 76202, "pitch": 62, "duration": 121, "velocity": 105}, {"time": 76202, "pitch": 69, "duration": 121, "velocity": 99}, {"time": 76442, "pitch": 60, "duration": 120, "velocity": 50}, {"time": 76442, "pitch": 65, "duration": 120, "velocity": 45}, {"time": 76442, "pitch": 69, "duration": 120, "velocity": 69}, {"time": 76562, "pitch": 60, "duration": 119, "velocity": 95}, {"time": 76562, "pitch": 65, "duration": 119, "velocity": 103}, {"time": 76562, "pitch": 69, "duration": 119, "velocity": 95}, {"time": 76681, "pitch": 60, "duration": 229, "velocity": 65}, {"time": 76681, "pitch": 65, "duration": 229, "velocity": 74}, {"time": 76681, "pitch": 69, "duration": 229, "velocity": 79}, {"time": 76920, "pitch": 60, "duration": 79, "velocity": 97}, {"time": 76920, "pitch": 65, "duration": 79, "velocity": 97}, {"time": 76920, "pitch": 69, "duration": 79, "velocity": 99}, {"time": 77278, "pitch": 60, "duration": 121, "velocity": 61}, {"time": 77278, "pitch": 62, "duration": 121, "velocity": 72}, {"time": 77278, "pitch": 69, "duration": 121, "velocity": 60}, {"time": 77399, "pitch": 60, "duration": 81, "velocity": 95}, {"time": 77399, "pitch": 62, "duration": 81, "velocity": 105}, {"time": 77399, "pitch": 69, "duration": 81, "velocity": 99}, {"time": 77763, "pitch": 62, "duration": 119, "velocity": 97}, {"time": 77763, "pitch": 65, "duration": 119, "velocity": 95}, {"time": 77763, "pitch": 70, "duration": 119, "velocity": 95}, {"time": 77882, "pitch": 62, "duration": 60, "velocity": 54}, {"time": 77882, "pitch": 65, "duration": 60, "velocity": 55}, {"time": 77882, "pitch": 70, "duration": 60, "velocity": 59}, {"time": 78002, "pitch": 62, "duration": 59, "velocity": 61}, {"time": 78002, "pitch": 65, "duration": 59, "velocity": 72}, {"time": 78002, "pitch": 70, "duration": 59, "velocity": 60}, {"time": 78121, "pitch": 62, "duration": 60, "velocity": 95}, {"time": 78121, "pitch": 65, "duration": 60, "velocity": 105}, {"time": 78121, "pitch": 70, "duration": 60, "velocity": 99}, {"time": 78360, "pitch": 62, "duration": 119, "velocity": 50}, {"time": 78360, "pitch": 65, "duration": 119, "velocity": 45}, {"time": 78360, "pitch": 70, "duration": 119, "velocity": 69}, {"time": 78479, "pitch": 62, "duration": 120, "velocity": 95}, {"time": 78479, "pitch": 65, "duration": 120, "velocity": 103}, {"time": 78479, "pitch": 70, "duration": 120, "velocity": 95}, {"time": 78599, "pitch": 62, "duration": 230, "velocity": 65}, {"time": 78599, "pitch": 65, "duration": 230, "velocity": 74}, {"time": 78599, "pitch": 70, "duration": 230, "velocity": 79}, {"time": 78839, "pitch": 62, "duration": 81, "velocity": 97}, {"time": 78839, "pitch": 65, "duration": 81, "velocity": 97}, {"time": 78839, "pitch": 70, "duration": 81, "velocity": 99}, {"time": 79203, "pitch": 62, "duration": 119, "velocity": 97}, {"time": 79203, "pitch": 65, "duration": 119, "velocity": 95}, {"time": 79203, "pitch": 70, "duration": 119, "velocity": 95}, {"time": 79322, "pitch": 62, "duration": 60, "velocity": 54}, {"time": 79322, "pitch": 65, "duration": 60, "velocity": 55}, {"time": 79322, "pitch": 70, "duration": 60, "velocity": 59}, {"time": 79442, "pitch": 62, "duration": 59, "velocity": 61}, {"time": 79442, "pitch": 65, "duration": 59, "velocity": 72}, {"time": 79442, "pitch": 70, "duration": 59, "velocity": 60}, {"time": 79561, "pitch": 62, "duration": 60, "velocity": 95}, {"time": 79561, "pitch": 65, "duration": 60, "velocity": 105}, {"time": 79561, "pitch": 70, "duration": 60, "velocity": 99}, {"time": 79680, "pitch": 60, "duration": 120, "velocity": 97}, {"time": 79680, "pitch": 65, "duration": 120, "velocity": 95}, {"time": 79680, "pitch": 69, "duration": 120, "velocity": 95}, {"time": 79800, "pitch": 60, "duration": 59, "velocity": 54}, {"time": 79800, "pitch": 65, "duration": 59, "velocity": 55}, {"time": 79800, "pitch": 69, "duration": 59, "velocity": 59}, {"time": 79919, "pitch": 60, "duration": 60, "velocity": 61}, {"time": 79919, "pitch": 65, "duration": 60, "velocity": 72}, {"time": 79919, "pitch": 69, "duration": 60, "velocity": 60}, {"time": 80039, "pitch": 60, "duration": 59, "velocity": 95}, {"time": 80039, "pitch": 65, "duration": 59, "velocity": 105}, {"time": 80039, "pitch": 69, "duration": 59, "velocity": 99}, {"time": 80279, "pitch": 60, "duration": 121, "velocity": 50}, {"time": 80279, "pitch": 65, "duration": 121, "velocity": 45}, {"time": 80279, "pitch": 69, "duration": 121, "velocity": 69}, {"time": 80400, "pitch": 60, "duration": 122, "velocity": 95}, {"time": 80400, "pitch": 65, "duration": 122, "velocity": 103}, {"time": 80400, "pitch": 69, "duration": 122, "velocity": 95}, {"time": 80522, "pitch": 60, "duration": 230, "velocity": 65}, {"time": 80522, "pitch": 65, "duration": 230, "velocity": 74}, {"time": 80522, "pitch": 69, "duration": 230, "velocity": 79}, {"time": 80762, "pitch": 60, "duration": 80, "velocity": 97}, {"time": 80762, "pitch": 65, "duration": 80, "velocity": 97}, {"time": 80762, "pitch": 69, "duration": 80, "velocity": 99}, {"time": 81120, "pitch": 60, "duration": 120, "velocity": 97}, {"time": 81120, "pitch": 65, "duration": 120, "velocity": 95}, {"time": 81120, "pitch": 69, "duration": 120, "velocity": 95}, {"time": 81240, "pitch": 60, "duration": 59, "velocity": 54}, {"time": 81240, "pitch": 65, "duration": 59, "velocity": 55}, {"time": 81240, "pitch": 69, "duration": 59, "velocity": 59}, {"time": 81359, "pitch": 60, "duration": 60, "velocity": 61}, {"time": 81359, "pitch": 65, "duration": 60, "velocity": 72}, {"time": 81359, "pitch": 69, "duration": 60, "velocity": 60}, {"time": 81479, "pitch": 60, "duration": 59, "velocity": 95}, {"time": 81479, "pitch": 65, "duration": 59, "velocity": 105}, {"time": 81479, "pitch": 69, "duration": 59, "velocity": 99}, {"time": 81598, "pitch": 58, "duration": 121, "velocity": 97}, {"time": 81598, "pitch": 62, "duration": 121, "velocity": 95}, {"time": 81598, "pitch": 65, "duration": 121, "velocity": 95}, {"time": 81719, "pitch": 58, "duration": 61, "velocity": 54}, {"time": 81719, "pitch": 62, "duration": 61, "velocity": 55}, {"time": 81719, "pitch": 65, "duration": 61, "velocity": 59}, {"time": 81840, "pitch": 58, "duration": 61, "velocity": 61}, {"time": 81840, "pitch": 62, "duration": 61, "velocity": 72}, {"time": 81840, "pitch": 65, "duration": 61, "velocity": 60}, {"time": 81962, "pitch": 58, "duration": 60, "velocity": 95}, {"time": 81962, "pitch": 62, "duration": 60, "velocity": 105}, {"time": 81962, "pitch": 65, "duration": 60, "velocity": 99}, {"time": 82202, "pitch": 58, "duration": 119, "velocity": 50}, {"time": 82202, "pitch": 62, "duration": 119, "velocity": 45}, {"time": 82202, "pitch": 65, "duration": 119, "velocity": 69}, {"time": 82321, "pitch": 58, "duration": 120, "velocity": 95}, {"time": 82321, "pitch": 62, "duration": 120, "velocity": 103}, {"time": 82321, "pitch": 65, "duration": 120, "velocity": 95}, {"time": 82441, "pitch": 58, "duration": 229, "velocity": 65}, {"time": 82441, "pitch": 62, "duration": 229, "velocity": 74}, {"time": 82441, "pitch": 65, "duration": 229, "velocity": 79}, {"time": 82680, "pitch": 58, "duration": 79, "velocity": 97}, {"time": 82680, "pitch": 62, "duration": 79, "velocity": 97}, {"time": 82680, "pitch": 65, "duration": 79, "velocity": 99}, {"time": 83038, "pitch": 58, "duration": 121, "velocity": 97}, {"time": 83038, "pitch": 62, "duration": 121, "velocity": 95}, {"time": 83038, "pitch": 65, "duration": 121, "velocity": 95}, {"time": 83159, "pitch": 58, "duration": 61, "velocity": 54}, {"time": 83159, "pitch": 62, "duration": 61, "velocity": 55}, {"time": 83159, "pitch": 65, "duration": 61, "velocity": 59}, {"time": 83280, "pitch": 58, "duration": 61, "velocity": 61}, {"time": 83280, "pitch": 62, "duration": 61, "velocity": 72}, {"time": 83280, "pitch": 65, "duration": 61, "velocity": 60}, {"time": 83401, "pitch": 58, "duration": 61, "velocity": 95}, {"time": 83401, "pitch": 62, "duration": 61, "velocity": 105}, {"time": 83401, "pitch": 65, "duration": 61, "velocity": 99}, {"time": 83523, "pitch": 60, "duration": 119, "velocity": 97}, {"time": 83523, "pitch": 65, "duration": 119, "velocity": 95}, {"time": 83523, "pitch": 69, "duration": 119, "velocity": 95}, {"time": 83642, "pitch": 60, "duration": 60, "velocity": 54}, {"time": 83642, "pitch": 65, "duration": 60, "velocity": 55}, {"time": 83642, "pitch": 69, "duration": 60, "velocity": 59}, {"time": 83761, "pitch": 60, "duration": 60, "velocity": 61}, {"time": 83761, "pitch": 65, "duration": 60, "velocity": 72}, {"time": 83761, "pitch": 69, "duration": 60, "velocity": 60}, {"time": 83881, "pitch": 60, "duration": 60, "velocity": 95}, {"time": 83881, "pitch": 65, "duration": 60, "velocity": 105}, {"time": 83881, "pitch": 69, "duration": 60, "velocity": 99}, {"time": 84120, "pitch": 60, "duration": 119, "velocity": 50}, {"time": 84120, "pitch": 65, "duration": 119, "velocity": 45}, {"time": 84120, "pitch": 69, "duration": 119, "velocity": 69}, {"time": 84239, "pitch": 60, "duration": 119, "velocity": 95}, {"time": 84239, "pitch": 65, "duration": 119, "velocity": 103}, {"time": 84239, "pitch": 69, "duration": 119, "velocity": 95}, {"time": 84358, "pitch": 60, "duration": 110, "velocity": 65}, {"time": 84358, "pitch": 65, "duration": 110, "velocity": 74}, {"time": 84358, "pitch": 69, "duration": 110, "velocity": 79}, {"time": 84599, "pitch": 60, "duration": 81, "velocity": 97}, {"time": 84599, "pitch": 66, "duration": 81, "velocity": 97}, {"time": 84599, "pitch": 69, "duration": 81, "velocity": 99}, {"time": 84963, "pitch": 60, "duration": 119, "velocity": 97}, {"time": 84963, "pitch": 66, "duration": 119, "velocity": 95}, {"time": 84963, "pitch": 69, "duration": 119, "velocity": 95}, {"time": 85082, "pitch": 60, "duration": 60, "velocity": 54}, {"time": 85082, "pitch": 66, "duration": 60, "velocity": 55}, {"time": 85082, "pitch": 69, "duration": 60, "velocity": 59}, {"time": 85201, "pitch": 60, "duration": 60, "velocity": 61}, {"time": 85201, "pitch": 66, "duration": 60, "velocity": 72}, {"time": 85201, "pitch": 69, "duration": 60, "velocity": 60}, {"time": 85321, "pitch": 60, "duration": 60, "velocity": 95}, {"time": 85321, "pitch": 66, "duration": 60, "velocity": 105}, {"time": 85321, "pitch": 69, "duration": 60, "velocity": 99}, {"time": 85440, "pitch": 62, "duration": 120, "velocity": 97}, {"time": 85440, "pitch": 65, "duration": 120, "velocity": 95}, {"time": 85440, "pitch": 70, "duration": 120, "velocity": 95}, {"time": 85560, "pitch": 62, "duration": 59, "velocity": 54}, {"time": 85560, "pitch": 65, "duration": 59, "velocity": 55}, {"time": 85560, "pitch": 70, "duration": 59, "velocity": 59}, {"time": 85679, "pitch": 62, "duration": 60, "velocity": 61}, {"time": 85679, "pitch": 65, "duration": 60, "velocity": 72}, {"time": 85679, "pitch": 70, "duration": 60, "velocity": 60}, {"time": 85798, "pitch": 62, "duration": 60, "velocity": 95}, {"time": 85798, "pitch": 65, "duration": 60, "velocity": 105}, {"time": 85798, "pitch": 70, "duration": 60, "velocity": 99}, {"time": 86039, "pitch": 62, "duration": 121, "velocity": 50}, {"time": 86039, "pitch": 65, "duration": 121, "velocity": 45}, {"time": 86039, "pitch": 70, "duration": 121, "velocity": 69}, {"time": 86160, "pitch": 62, "duration": 121, "velocity": 95}, {"time": 86160, "pitch": 65, "duration": 121, "velocity": 103}, {"time": 86160, "pitch": 70, "duration": 121, "velocity": 95}, {"time": 86281, "pitch": 62, "duration": 231, "velocity": 65}, {"time": 86281, "pitch": 65, "duration": 231, "velocity": 74}, {"time": 86281, "pitch": 70, "duration": 231, "velocity": 79}, {"time": 86522, "pitch": 62, "duration": 80, "velocity": 97}, {"time": 86522, "pitch": 65, "duration": 80, "velocity": 97}, {"time": 86522, "pitch": 70, "duration": 80, "velocity": 99}, {"time": 86880, "pitch": 62, "duration": 120, "velocity": 97}, {"time": 86880, "pitch": 65, "duration": 120, "velocity": 95}, {"time": 86880, "pitch": 70, "duration": 120, "velocity": 95}, {"time": 87000, "pitch": 62, "duration": 59, "velocity": 54}, {"time": 87000, "pitch": 65, "duration": 59, "velocity": 55}, {"time": 87000, "pitch": 70, "duration": 59, "velocity": 59}, {"time": 87119, "pitch": 62, "duration": 60, "velocity": 61}, {"time": 87119, "pitch": 65, "duration": 60, "velocity": 72}, {"time": 87119, "pitch": 70, "duration": 60, "velocity": 60}, {"time": 87238, "pitch": 62, "duration": 60, "velocity": 95}, {"time": 87238, "pitch": 65, "duration": 60, "velocity": 105}, {"time": 87238, "pitch": 70, "duration": 60, "velocity": 99}, {"time": 87358, "pitch": 60, "duration": 121, "velocity": 97}, {"time": 87358, "pitch": 65, "duration": 121, "velocity": 95}, {"time": 87358, "pitch": 69, "duration": 121, "velocity": 95}, {"time": 87479, "pitch": 60, "duration": 61, "velocity": 54}, {"time": 87479, "pitch": 65, "duration": 61, "velocity": 55}, {"time": 87479, "pitch": 69, "duration": 61, "velocity": 59}, {"time": 87600, "pitch": 60, "duration": 61, "velocity": 61}, {"time": 87600, "pitch": 65, "duration": 61, "velocity": 72}, {"time": 87600, "pitch": 69, "duration": 61, "velocity": 60}, {"time": 87721, "pitch": 60, "duration": 61, "velocity": 95}, {"time": 87721, "pitch": 65, "duration": 61, "velocity": 105}, {"time": 87721, "pitch": 69, "duration": 61, "velocity": 99}, {"time": 87962, "pitch": 60, "duration": 119, "velocity": 50}, {"time": 87962, "pitch": 65, "duration": 119, "velocity": 45}, {"time": 87962, "pitch": 69, "duration": 119, "velocity": 69}, {"time": 88081, "pitch": 60, "duration": 120, "velocity": 95}, {"time": 88081, "pitch": 65, "duration": 120, "velocity": 103}, {"time": 88081, "pitch": 69, "duration": 120, "velocity": 95}, {"time": 88201, "pitch": 60, "duration": 229, "velocity": 65}, {"time": 88201, "pitch": 65, "duration": 229, "velocity": 74}, {"time": 88201, "pitch": 69, "duration": 229, "velocity": 79}, {"time": 88440, "pitch": 60, "duration": 79, "velocity": 97}, {"time": 88440, "pitch": 65, "duration": 79, "velocity": 97}, {"time": 88440, "pitch": 69, "duration": 79, "velocity": 99}, {"time": 88798, "pitch": 60, "duration": 121, "velocity": 97}, {"time": 88798, "pitch": 65, "duration": 121, "velocity": 95}, {"time": 88798, "pitch": 69, "duration": 121, "velocity": 95}, {"time": 88919, "pitch": 60, "duration": 61, "velocity": 54}, {"time": 88919, "pitch": 65, "duration": 61, "velocity": 55}, {"time": 88919, "pitch": 69, "duration": 61, "velocity": 59}, {"time": 89040, "pitch": 60, "duration": 61, "velocity": 61}, {"time": 89040, "pitch": 65, "duration": 61, "velocity": 72}, {"time": 89040, "pitch": 69, "duration": 61, "velocity": 60}, {"time": 89161, "pitch": 60, "duration": 61, "velocity": 95}, {"time": 89161, "pitch": 65, "duration": 61, "velocity": 105}, {"time": 89161, "pitch": 69, "duration": 61, "velocity": 99}, {"time": 89283, "pitch": 58, "duration": 119, "velocity": 97}, {"time": 89283, "pitch": 61, "duration": 119, "velocity": 95}, {"time": 89283, "pitch": 65, "duration": 119, "velocity": 95}, {"time": 89402, "pitch": 58, "duration": 60, "velocity": 54}, {"time": 89402, "pitch": 61, "duration": 60, "velocity": 55}, {"time": 89402, "pitch": 65, "duration": 60, "velocity": 59}, {"time": 89521, "pitch": 58, "duration": 60, "velocity": 61}, {"time": 89521, "pitch": 61, "duration": 60, "velocity": 72}, {"time": 89521, "pitch": 65, "duration": 60, "velocity": 60}, {"time": 89641, "pitch": 58, "duration": 59, "velocity": 95}, {"time": 89641, "pitch": 61, "duration": 59, "velocity": 105}, {"time": 89641, "pitch": 65, "duration": 59, "velocity": 99}, {"time": 89880, "pitch": 58, "duration": 119, "velocity": 50}, {"time": 89880, "pitch": 61, "duration": 119, "velocity": 45}, {"time": 89880, "pitch": 65, "duration": 119, "velocity": 69}, {"time": 89999, "pitch": 58, "duration": 119, "velocity": 95}, {"time": 89999, "pitch": 61, "duration": 119, "velocity": 103}, {"time": 89999, "pitch": 65, "duration": 119, "velocity": 95}, {"time": 90118, "pitch": 60, "duration": 231, "velocity": 65}, {"time": 90118, "pitch": 65, "duration": 231, "velocity": 74}, {"time": 90118, "pitch": 69, "duration": 231, "velocity": 79}, {"time": 90359, "pitch": 62, "duration": 81, "velocity": 97}, {"time": 90359, "pitch": 65, "duration": 81, "velocity": 97}, {"time": 90359, "pitch": 69, "duration": 81, "velocity": 99}, {"time": 90722, "pitch": 62, "duration": 120, "velocity": 97}, {"time": 90722, "pitch": 65, "duration": 120, "velocity": 95}, {"time": 90722, "pitch": 69, "duration": 120, "velocity": 95}, {"time": 90842, "pitch": 62, "duration": 60, "velocity": 54}, {"time": 90842, "pitch": 65, "duration": 60, "velocity": 55}, {"time": 90842, "pitch": 69, "duration": 60, "velocity": 59}, {"time": 90961, "pitch": 62, "duration": 60, "velocity": 61}, {"time": 90961, "pitch": 65, "duration": 60, "velocity": 72}, {"time": 90961, "pitch": 69, "duration": 60, "velocity": 60}, {"time": 91081, "pitch": 62, "duration": 59, "velocity": 95}, {"time": 91081, "pitch": 65, "duration": 59, "velocity": 105}, {"time": 91081, "pitch": 69, "duration": 59, "velocity": 99}, {"time": 91200, "pitch": 60, "duration": 119, "velocity": 97}, {"time": 91200, "pitch": 65, "duration": 119, "velocity": 95}, {"time": 91200, "pitch": 69, "duration": 119, "velocity": 95}, {"time": 91319, "pitch": 60, "duration": 60, "velocity": 54}, {"time": 91319, "pitch": 65, "duration": 60, "velocity": 55}, {"time": 91319, "pitch": 69, "duration": 60, "velocity": 59}, {"time": 91439, "pitch": 60, "duration": 60, "velocity": 61}, {"time": 91439, "pitch": 65, "duration": 60, "velocity": 72}, {"time": 91439, "pitch": 69, "duration": 60, "velocity": 60}, {"time": 91558, "pitch": 60, "duration": 60, "velocity": 95}, {"time": 91558, "pitch": 65, "duration": 60, "velocity": 105}, {"time": 91558, "pitch": 69, "duration": 60, "velocity": 99}, {"time": 91799, "pitch": 60, "duration": 121, "velocity": 50}, {"time": 91799, "pitch": 65, "duration": 121, "velocity": 45}, {"time": 91799, "pitch": 69, "duration": 121, "velocity": 69}, {"time": 91920, "pitch": 60, "duration": 121, "velocity": 95}, {"time": 91920, "pitch": 65, "duration": 121, "velocity": 103}, {"time": 91920, "pitch": 69, "duration": 121, "velocity": 95}, {"time": 92041, "pitch": 60, "duration": 111, "velocity": 65}, {"time": 92041, "pitch": 65, "duration": 111, "velocity": 74}, {"time": 92041, "pitch": 69, "duration": 111, "velocity": 79}, {"time": 92282, "pitch": 60, "duration": 79, "velocity": 97}, {"time": 92282, "pitch": 65, "duration": 79, "velocity": 97}, {"time": 92282, "pitch": 69, "duration": 79, "velocity": 99}, {"time": 92640, "pitch": 60, "duration": 119, "velocity": 97}, {"time": 92640, "pitch": 65, "duration": 119, "velocity": 95}, {"time": 92640, "pitch": 69, "duration": 119, "velocity": 95}, {"time": 92759, "pitch": 60, "duration": 60, "velocity": 54}, {"time": 92759, "pitch": 65, "duration": 60, "velocity": 55}, {"time": 92759, "pitch": 69, "duration": 60, "velocity": 59}, {"time": 92879, "pitch": 60, "duration": 60, "velocity": 61}, {"time": 92879, "pitch": 65, "duration": 60, "velocity": 72}, {"time": 92879, "pitch": 69, "duration": 60, "velocity": 60}, {"time": 92998, "pitch": 60, "duration": 60, "velocity": 95}, {"time": 92998, "pitch": 65, "duration": 60, "velocity": 105}, {"time": 92998, "pitch": 69, "duration": 60, "velocity": 99}, {"time": 93118, "pitch": 62, "duration": 121, "velocity": 97}, {"time": 93118, "pitch": 65, "duration": 121, "velocity": 95}, {"time": 93118, "pitch": 69, "duration": 121, "velocity": 95}, {"time": 93239, "pitch": 62, "duration": 60, "velocity": 54}, {"time": 93239, "pitch": 65, "duration": 60, "velocity": 55}, {"time": 93239, "pitch": 69, "duration": 60, "velocity": 59}, {"time": 93360, "pitch": 62, "duration": 61, "velocity": 61}, {"time": 93360, "pitch": 65, "duration": 61, "velocity": 72}, {"time": 93360, "pitch": 69, "duration": 61, "velocity": 60}, {"time": 93481, "pitch": 62, "duration": 61, "velocity": 95}, {"time": 93481, "pitch": 65, "duration": 61, "velocity": 105}, {"time": 93481, "pitch": 69, "duration": 61, "velocity": 99}, {"time": 93722, "pitch": 62, "duration": 119, "velocity": 50}, {"time": 93722, "pitch": 65, "duration": 119, "velocity": 45}, {"time": 93722, "pitch": 69, "duration": 119, "velocity": 69}, {"time": 93841, "pitch": 62, "duration": 120, "velocity": 95}, {"time": 93841, "pitch": 65, "duration": 120, "velocity": 103}, {"time": 93841, "pitch": 69, "duration": 120, "velocity": 95}, {"time": 93961, "pitch": 62, "duration": 228, "velocity": 65}, {"time": 93961, "pitch": 65, "duration": 228, "velocity": 74}, {"time": 93961, "pitch": 69, "duration": 228, "velocity": 79}, {"time": 94199, "pitch": 62, "duration": 80, "velocity": 97}, {"time": 94199, "pitch": 65, "duration": 80, "velocity": 97}, {"time": 94199, "pitch": 69, "duration": 80, "velocity": 99}, {"time": 95042, "pitch": 60, "duration": 120, "velocity": 97}, {"time": 95042, "pitch": 62, "duration": 120, "velocity": 95}, {"time": 95042, "pitch": 67, "duration": 120, "velocity": 95}, {"time": 95162, "pitch": 60, "duration": 119, "velocity": 61}, {"time": 95162, "pitch": 62, "duration": 119, "velocity": 72}, {"time": 95162, "pitch": 67, "duration": 119, "velocity": 60}, {"time": 95281, "pitch": 60, "duration": 120, "velocity": 61}, {"time": 95281, "pitch": 62, "duration": 120, "velocity": 72}, {"time": 95281, "pitch": 67, "duration": 120, "velocity": 60}, {"time": 95401, "pitch": 60, "duration": 59, "velocity": 90}, {"time": 95401, "pitch": 62, "duration": 59, "velocity": 90}, {"time": 95401, "pitch": 67, "duration": 59, "velocity": 90}, {"time": 95639, "pitch": 60, "duration": 120, "velocity": 50}, {"time": 95639, "pitch": 65, "duration": 120, "velocity": 45}, {"time": 95639, "pitch": 69, "duration": 120, "velocity": 69}, {"time": 95759, "pitch": 60, "duration": 119, "velocity": 95}, {"time": 95759, "pitch": 65, "duration": 119, "velocity": 103}, {"time": 95759, "pitch": 69, "duration": 119, "velocity": 95}, {"time": 95878, "pitch": 60, "duration": 231, "velocity": 65}, {"time": 95878, "pitch": 65, "duration": 231, "velocity": 74}, {"time": 95878, "pitch": 69, "duration": 231, "velocity": 79}, {"time": 96119, "pitch": 60, "duration": 121, "velocity": 80}, {"time": 96119, "pitch": 65, "duration": 121, "velocity": 80}, {"time": 96119, "pitch": 69, "duration": 121, "velocity": 80}, {"time": 96240, "pitch": 60, "duration": 81, "velocity": 97}, {"time": 96240, "pitch": 65, "duration": 81, "velocity": 97}, {"time": 96240, "pitch": 69, "duration": 81, "velocity": 99}, {"time": 96361, "pitch": 60, "duration": 231, "velocity": 65}, {"time": 96361, "pitch": 65, "duration": 231, "velocity": 74}, {"time": 96361, "pitch": 69, "duration": 231, "velocity": 79}, {"time": 96602, "pitch": 60, "duration": 40, "velocity": 80}, {"time": 96602, "pitch": 65, "duration": 40, "velocity": 80}, {"time": 96602, "pitch": 69, "duration": 40, "velocity": 80}, {"time": 96721, "pitch": 60, "duration": 229, "velocity": 97}, {"time": 96721, "pitch": 65, "duration": 229, "velocity": 97}, {"time": 96721, "pitch": 69, "duration": 229, "velocity": 99}, {"time": 96960, "pitch": 62, "duration": 119, "velocity": 97}, {"time": 96960, "pitch": 65, "duration": 119, "velocity": 95}, {"time": 96960, "pitch": 69, "duration": 119, "velocity": 95}, {"time": 97079, "pitch": 62, "duration": 60, "velocity": 54}, {"time": 97079, "pitch": 65, "duration": 60, "velocity": 55}, {"time": 97079, "pitch": 69, "duration": 60, "velocity": 59}, {"time": 97199, "pitch": 62, "duration": 59, "velocity": 61}, {"time": 97199, "pitch": 65, "duration": 59, "velocity": 72}, {"time": 97199, "pitch": 69, "duration": 59, "velocity": 60}, {"time": 97318, "pitch": 62, "duration": 60, "velocity": 95}, {"time": 97318, "pitch": 65, "duration": 60, "velocity": 105}, {"time": 97318, "pitch": 69, "duration": 60, "velocity": 99}, {"time": 97559, "pitch": 62, "duration": 121, "velocity": 50}, {"time": 97559, "pitch": 65, "duration": 121, "velocity": 45}, {"time": 97559, "pitch": 69, "duration": 121, "velocity": 69}, {"time": 97680, "pitch": 62, "duration": 121, "velocity": 95}, {"time": 97680, "pitch": 65, "duration": 121, "velocity": 103}, {"time": 97680, "pitch": 69, "duration": 121, "velocity": 95}, {"time": 97801, "pitch": 62, "duration": 231, "velocity": 65}, {"time": 97801, "pitch": 65, "duration": 231, "velocity": 74}, {"time": 97801, "pitch": 69, "duration": 231, "velocity": 79}, {"time": 98042, "pitch": 62, "duration": 79, "velocity": 97}, {"time": 98042, "pitch": 65, "duration": 79, "velocity": 97}, {"time": 98042, "pitch": 69, "duration": 79, "velocity": 99}, {"time": 98877, "pitch": 60, "duration": 122, "velocity": 97}, {"time": 98877, "pitch": 62, "duration": 122, "velocity": 95}, {"time": 98877, "pitch": 67, "duration": 122, "velocity": 95}, {"time": 98999, "pitch": 60, "duration": 121, "velocity": 61}, {"time": 98999, "pitch": 62, "duration": 121, "velocity": 72}, {"time": 98999, "pitch": 67, "duration": 121, "velocity": 60}, {"time": 99120, "pitch": 60, "duration": 121, "velocity": 61}, {"time": 99120, "pitch": 62, "duration": 121, "velocity": 72}, {"time": 99120, "pitch": 67, "duration": 121, "velocity": 60}, {"time": 99241, "pitch": 60, "duration": 61, "velocity": 90}, {"time": 99241, "pitch": 62, "duration": 61, "velocity": 90}, {"time": 99241, "pitch": 67, "duration": 61, "velocity": 90}, {"time": 99482, "pitch": 60, "duration": 119, "velocity": 50}, {"time": 99482, "pitch": 65, "duration": 119, "velocity": 45}, {"time": 99482, "pitch": 69, "duration": 119, "velocity": 69}, {"time": 99601, "pitch": 60, "duration": 119, "velocity": 95}, {"time": 99601, "pitch": 65, "duration": 119, "velocity": 103}, {"time": 99601, "pitch": 69, "duration": 119, "velocity": 95}, {"time": 99720, "pitch": 60, "duration": 229, "velocity": 65}, {"time": 99720, "pitch": 65, "duration": 229, "velocity": 74}, {"time": 99720, "pitch": 69, "duration": 229, "velocity": 79}, {"time": 99959, "pitch": 60, "duration": 120, "velocity": 80}, {"time": 99959, "pitch": 65, "duration": 120, "velocity": 80}, {"time": 99959, "pitch": 69, "duration": 120, "velocity": 80}, {"time": 100079, "pitch": 60, "duration": 79, "velocity": 97}, {"time": 100079, "pitch": 65, "duration": 79, "velocity": 97}, {"time": 100079, "pitch": 69, "duration": 79, "velocity": 99}, {"time": 100198, "pitch": 60, "duration": 231, "velocity": 65}, {"time": 100198, "pitch": 65, "duration": 231, "velocity": 74}, {"time": 100198, "pitch": 69, "duration": 231, "velocity": 79}, {"time": 100439, "pitch": 60, "duration": 40, "velocity": 80}, {"time": 100439, "pitch": 65, "duration": 40, "velocity": 80}, {"time": 100439, "pitch": 69, "duration": 40, "velocity": 80}, {"time": 100560, "pitch": 60, "duration": 232, "velocity": 97}, {"time": 100560, "pitch": 65, "duration": 232, "velocity": 97}, {"time": 100560, "pitch": 69, "duration": 232, "velocity": 99}, {"time": 100802, "pitch": 62, "duration": 120, "velocity": 97}, {"time": 100802, "pitch": 65, "duration": 120, "velocity": 95}, {"time": 100802, "pitch": 69, "duration": 120, "velocity": 95}, {"time": 100922, "pitch": 62, "duration": 59, "velocity": 54}, {"time": 100922, "pitch": 65, "duration": 59, "velocity": 55}, {"time": 100922, "pitch": 69, "duration": 59, "velocity": 59}, {"time": 101041, "pitch": 62, "duration": 60, "velocity": 61}, {"time": 101041, "pitch": 65, "duration": 60, "velocity": 72}, {"time": 101041, "pitch": 69, "duration": 60, "velocity": 60}, {"time": 101160, "pitch": 62, "duration": 60, "velocity": 95}, {"time": 101160, "pitch": 65, "duration": 60, "velocity": 105}, {"time": 101160, "pitch": 69, "duration": 60, "velocity": 99}, {"time": 101399, "pitch": 62, "duration": 120, "velocity": 50}, {"time": 101399, "pitch": 65, "duration": 120, "velocity": 45}, {"time": 101399, "pitch": 69, "duration": 120, "velocity": 69}, {"time": 101519, "pitch": 62, "duration": 119, "velocity": 95}, {"time": 101519, "pitch": 65, "duration": 119, "velocity": 103}, {"time": 101519, "pitch": 69, "duration": 119, "velocity": 95}, {"time": 101638, "pitch": 62, "duration": 230, "velocity": 65}, {"time": 101638, "pitch": 65, "duration": 230, "velocity": 74}, {"time": 101638, "pitch": 69, "duration": 230, "velocity": 79}, {"time": 101879, "pitch": 62, "duration": 80, "velocity": 97}, {"time": 101879, "pitch": 65, "duration": 80, "velocity": 97}, {"time": 101879, "pitch": 69, "duration": 80, "velocity": 99}, {"time": 102720, "pitch": 60, "duration": 119, "velocity": 97}, {"time": 102720, "pitch": 62, "duration": 119, "velocity": 95}, {"time": 102720, "pitch": 67, "duration": 119, "velocity": 95}, {"time": 102839, "pitch": 60, "duration": 120, "velocity": 61}, {"time": 102839, "pitch": 62, "duration": 120, "velocity": 72}, {"time": 102839, "pitch": 67, "duration": 120, "velocity": 60}, {"time": 102959, "pitch": 60, "duration": 119, "velocity": 61}, {"time": 102959, "pitch": 62, "duration": 119, "velocity": 72}, {"time": 102959, "pitch": 67, "duration": 119, "velocity": 60}, {"time": 103078, "pitch": 60, "duration": 60, "velocity": 90}, {"time": 103078, "pitch": 62, "duration": 60, "velocity": 90}, {"time": 103078, "pitch": 67, "duration": 60, "velocity": 90}, {"time": 103319, "pitch": 60, "duration": 121, "velocity": 50}, {"time": 103319, "pitch": 65, "duration": 121, "velocity": 45}, {"time": 103319, "pitch": 69, "duration": 121, "velocity": 69}, {"time": 103440, "pitch": 60, "duration": 121, "velocity": 95}, {"time": 103440, "pitch": 65, "duration": 121, "velocity": 103}, {"time": 103440, "pitch": 69, "duration": 121, "velocity": 95}, {"time": 103561, "pitch": 60, "duration": 231, "velocity": 65}, {"time": 103561, "pitch": 65, "duration": 231, "velocity": 74}, {"time": 103561, "pitch": 69, "duration": 231, "velocity": 79}, {"time": 103802, "pitch": 60, "duration": 119, "velocity": 80}, {"time": 103802, "pitch": 65, "duration": 119, "velocity": 80}, {"time": 103802, "pitch": 69, "duration": 119, "velocity": 80}, {"time": 103921, "pitch": 60, "duration": 80, "velocity": 97}, {"time": 103921, "pitch": 65, "duration": 80, "velocity": 97}, {"time": 103921, "pitch": 69, "duration": 80, "velocity": 99}, {"time": 104040, "pitch": 60, "duration": 229, "velocity": 65}, {"time": 104040, "pitch": 65, "duration": 229, "velocity": 74}, {"time": 104040, "pitch": 69, "duration": 229, "velocity": 79}, {"time": 104279, "pitch": 60, "duration": 40, "velocity": 80}, {"time": 104279, "pitch": 65, "duration": 40, "velocity": 80}, {"time": 104279, "pitch": 69, "duration": 40, "velocity": 80}, {"time": 104399, "pitch": 60, "duration": 228, "velocity": 97}, {"time": 104399, "pitch": 65, "duration": 228, "velocity": 97}, {"time": 104399, "pitch": 69, "duration": 228, "velocity": 99}, {"time": 104637, "pitch": 62, "duration": 122, "velocity": 97}, {"time": 104637, "pitch": 65, "duration": 122, "velocity": 95}, {"time": 104637, "pitch": 69, "duration": 122, "velocity": 95}, {"time": 104759, "pitch": 62, "duration": 60, "velocity": 54}, {"time": 104759, "pitch": 65, "duration": 60, "velocity": 55}, {"time": 104759, "pitch": 69, "duration": 60, "velocity": 59}, {"time": 104880, "pitch": 62, "duration": 60, "velocity": 61}, {"time": 104880, "pitch": 65, "duration": 60, "velocity": 72}, {"time": 104880, "pitch": 69, "duration": 60, "velocity": 60}, {"time": 105001, "pitch": 62, "duration": 61, "velocity": 95}, {"time": 105001, "pitch": 65, "duration": 61, "velocity": 105}, {"time": 105001, "pitch": 69, "duration": 61, "velocity": 99}, {"time": 105242, "pitch": 62, "duration": 119, "velocity": 50}, {"time": 105242, "pitch": 65, "duration": 119, "velocity": 45}, {"time": 105242, "pitch": 69, "duration": 119, "velocity": 69}, {"time": 105361, "pitch": 62, "duration": 119, "velocity": 95}, {"time": 105361, "pitch": 65, "duration": 119, "velocity": 103}, {"time": 105361, "pitch": 69, "duration": 119, "velocity": 95}, {"time": 105480, "pitch": 62, "duration": 229, "velocity": 65}, {"time": 105480, "pitch": 65, "duration": 229, "velocity": 74}, {"time": 105480, "pitch": 69, "duration": 229, "velocity": 79}, {"time": 105719, "pitch": 62, "duration": 80, "velocity": 97}, {"time": 105719, "pitch": 65, "duration": 80, "velocity": 97}, {"time": 105719, "pitch": 69, "duration": 80, "velocity": 99}, {"time": 106441, "pitch": 62, "duration": 81, "velocity": 97}, {"time": 106441, "pitch": 65, "duration": 81, "velocity": 97}, {"time": 106441, "pitch": 69, "duration": 81, "velocity": 99}, {"time": 106801, "pitch": 63, "duration": 79, "velocity": 97}, {"time": 106801, "pitch": 66, "duration": 79, "velocity": 97}, {"time": 106801, "pitch": 70, "duration": 79, "velocity": 99}, {"time": 107040, "pitch": 65, "duration": 79, "velocity": 97}, {"time": 107040, "pitch": 68, "duration": 79, "velocity": 97}, {"time": 107040, "pitch": 72, "duration": 79, "velocity": 99}, {"time": 108480, "pitch": 62, "duration": 119, "velocity": 97}, {"time": 108480, "pitch": 65, "duration": 119, "velocity": 95}, {"time": 108480, "pitch": 70, "duration": 119, "velocity": 95}, {"time": 108599, "pitch": 62, "duration": 60, "velocity": 54}, {"time": 108599, "pitch": 65, "duration": 60, "velocity": 55}, {"time": 108599, "pitch": 70, "duration": 60, "velocity": 59}, {"time": 108718, "pitch": 62, "duration": 60, "velocity": 61}, {"time": 108718, "pitch": 65, "duration": 60, "velocity": 72}, {"time": 108718, "pitch": 70, "duration": 60, "velocity": 60}, {"time": 108838, "pitch": 62, "duration": 60, "velocity": 95}, {"time": 108838, "pitch": 65, "duration": 60, "velocity": 105}, {"time": 108838, "pitch": 70, "duration": 60, "velocity": 99}, {"time": 109078, "pitch": 62, "duration": 122, "velocity": 50}, {"time": 109078, "pitch": 65, "duration": 122, "velocity": 45}, {"time": 109078, "pitch": 70, "duration": 122, "velocity": 69}, {"time": 109200, "pitch": 62, "duration": 121, "velocity": 95}, {"time": 109200, "pitch": 65, "duration": 121, "velocity": 103}, {"time": 109200, "pitch": 70, "duration": 121, "velocity": 95}, {"time": 109321, "pitch": 62, "duration": 230, "velocity": 65}, {"time": 109321, "pitch": 65, "duration": 230, "velocity": 74}, {"time": 109321, "pitch": 70, "duration": 230, "velocity": 79}, {"time": 109561, "pitch": 62, "duration": 80, "velocity": 97}, {"time": 109561, "pitch": 65, "duration": 80, "velocity": 97}, {"time": 109561, "pitch": 70, "duration": 80, "velocity": 99}, {"time": 109920, "pitch": 62, "duration": 119, "velocity": 97}, {"time": 109920, "pitch": 65, "duration": 119, "velocity": 95}, {"time": 109920, "pitch": 70, "duration": 119, "velocity": 95}, {"time": 110039, "pitch": 62, "duration": 60, "velocity": 54}, {"time": 110039, "pitch": 65, "duration": 60, "velocity": 55}, {"time": 110039, "pitch": 70, "duration": 60, "velocity": 59}, {"time": 110158, "pitch": 62, "duration": 60, "velocity": 61}, {"time": 110158, "pitch": 65, "duration": 60, "velocity": 72}, {"time": 110158, "pitch": 70, "duration": 60, "velocity": 60}, {"time": 110278, "pitch": 62, "duration": 60, "velocity": 95}, {"time": 110278, "pitch": 65, "duration": 60, "velocity": 105}, {"time": 110278, "pitch": 70, "duration": 60, "velocity": 99}, {"time": 110397, "pitch": 60, "duration": 121, "velocity": 97}, {"time": 110397, "pitch": 65, "duration": 121, "velocity": 95}, {"time": 110397, "pitch": 69, "duration": 121, "velocity": 95}, {"time": 110518, "pitch": 60, "duration": 61, "velocity": 54}, {"time": 110518, "pitch": 65, "duration": 61, "velocity": 55}, {"time": 110518, "pitch": 69, "duration": 61, "velocity": 59}, {"time": 110640, "pitch": 60, "duration": 60, "velocity": 61}, {"time": 110640, "pitch": 65, "duration": 60, "velocity": 72}, {"time": 110640, "pitch": 69, "duration": 60, "velocity": 60}, {"time": 110761, "pitch": 60, "duration": 60, "velocity": 95}, {"time": 110761, "pitch": 65, "duration": 60, "velocity": 105}, {"time": 110761, "pitch": 69, "duration": 60, "velocity": 99}, {"time": 111001, "pitch": 60, "duration": 120, "velocity": 50}, {"time": 111001, "pitch": 65, "duration": 120, "velocity": 45}, {"time": 111001, "pitch": 69, "duration": 120, "velocity": 69}, {"time": 111121, "pitch": 60, "duration": 119, "velocity": 95}, {"time": 111121, "pitch": 65, "duration": 119, "velocity": 103}, {"time": 111121, "pitch": 69, "duration": 119, "velocity": 95}, {"time": 111240, "pitch": 60, "duration": 229, "velocity": 65}, {"time": 111240, "pitch": 65, "duration": 229, "velocity": 74}, {"time": 111240, "pitch": 69, "duration": 229, "velocity": 79}, {"time": 111479, "pitch": 60, "duration": 80, "velocity": 97}, {"time": 111479, "pitch": 65, "duration": 80, "velocity": 97}, {"time": 111479, "pitch": 69, "duration": 80, "velocity": 99}, {"time": 111837, "pitch": 60, "duration": 121, "velocity": 97}, {"time": 111837, "pitch": 65, "duration": 121, "velocity": 95}, {"time": 111837, "pitch": 69, "duration": 121, "velocity": 95}, {"time": 111958, "pitch": 60, "duration": 61, "velocity": 54}, {"time": 111958, "pitch": 65, "duration": 61, "velocity": 55}, {"time": 111958, "pitch": 69, "duration": 61, "velocity": 59}, {"time": 112080, "pitch": 60, "duration": 60, "velocity": 61}, {"time": 112080, "pitch": 65, "duration": 60, "velocity": 72}, {"time": 112080, "pitch": 69, "duration": 60, "velocity": 60}, {"time": 112201, "pitch": 60, "duration": 60, "velocity": 95}, {"time": 112201, "pitch": 65, "duration": 60, "velocity": 105}, {"time": 112201, "pitch": 69, "duration": 60, "velocity": 99}, {"time": 112322, "pitch": 58, "duration": 119, "velocity": 97}, {"time": 112322, "pitch": 62, "duration": 119, "velocity": 95}, {"time": 112322, "pitch": 65, "duration": 119, "velocity": 95}, {"time": 112441, "pitch": 58, "duration": 60, "velocity": 54}, {"time": 112441, "pitch": 62, "duration": 60, "velocity": 55}, {"time": 112441, "pitch": 65, "duration": 60, "velocity": 59}, {"time": 112561, "pitch": 58, "duration": 59, "velocity": 61}, {"time": 112561, "pitch": 62, "duration": 59, "velocity": 72}, {"time": 112561, "pitch": 65, "duration": 59, "velocity": 60}, {"time": 112680, "pitch": 58, "duration": 60, "velocity": 95}, {"time": 112680, "pitch": 62, "duration": 60, "velocity": 105}, {"time": 112680, "pitch": 65, "duration": 60, "velocity": 99}, {"time": 112919, "pitch": 58, "duration": 119, "velocity": 50}, {"time": 112919, "pitch": 62, "duration": 119, "velocity": 45}, {"time": 112919, "pitch": 65, "duration": 119, "velocity": 69}, {"time": 113038, "pitch": 58, "duration": 120, "velocity": 95}, {"time": 113038, "pitch": 62, "duration": 120, "velocity": 103}, {"time": 113038, "pitch": 65, "duration": 120, "velocity": 95}, {"time": 113158, "pitch": 58, "duration": 230, "velocity": 65}, {"time": 113158, "pitch": 62, "duration": 230, "velocity": 74}, {"time": 113158, "pitch": 65, "duration": 230, "velocity": 79}, {"time": 113398, "pitch": 58, "duration": 81, "velocity": 97}, {"time": 113398, "pitch": 62, "duration": 81, "velocity": 97}, {"time": 113398, "pitch": 65, "duration": 81, "velocity": 99}, {"time": 113762, "pitch": 58, "duration": 119, "velocity": 97}, {"time": 113762, "pitch": 62, "duration": 119, "velocity": 95}, {"time": 113762, "pitch": 65, "duration": 119, "velocity": 95}, {"time": 113881, "pitch": 58, "duration": 60, "velocity": 54}, {"time": 113881, "pitch": 62, "duration": 60, "velocity": 55}, {"time": 113881, "pitch": 65, "duration": 60, "velocity": 59}, {"time": 114001, "pitch": 58, "duration": 59, "velocity": 61}, {"time": 114001, "pitch": 62, "duration": 59, "velocity": 72}, {"time": 114001, "pitch": 65, "duration": 59, "velocity": 60}, {"time": 114120, "pitch": 58, "duration": 60, "velocity": 95}, {"time": 114120, "pitch": 62, "duration": 60, "velocity": 105}, {"time": 114120, "pitch": 65, "duration": 60, "velocity": 99}, {"time": 114239, "pitch": 60, "duration": 120, "velocity": 97}, {"time": 114239, "pitch": 65, "duration": 120, "velocity": 95}, {"time": 114239, "pitch": 69, "duration": 120, "velocity": 95}, {"time": 114359, "pitch": 60, "duration": 60, "velocity": 54}, {"time": 114359, "pitch": 65, "duration": 60, "velocity": 55}, {"time": 114359, "pitch": 69, "duration": 60, "velocity": 59}, {"time": 114478, "pitch": 60, "duration": 60, "velocity": 61}, {"time": 114478, "pitch": 65, "duration": 60, "velocity": 72}, {"time": 114478, "pitch": 69, "duration": 60, "velocity": 60}, {"time": 114598, "pitch": 60, "duration": 59, "velocity": 95}, {"time": 114598, "pitch": 65, "duration": 59, "velocity": 105}, {"time": 114598, "pitch": 69, "duration": 59, "velocity": 99}, {"time": 114838, "pitch": 60, "duration": 121, "velocity": 50}, {"time": 114838, "pitch": 65, "duration": 121, "velocity": 45}, {"time": 114838, "pitch": 69, "duration": 121, "velocity": 69}, {"time": 114959, "pitch": 60, "duration": 122, "velocity": 95}, {"time": 114959, "pitch": 65, "duration": 122, "velocity": 103}, {"time": 114959, "pitch": 69, "duration": 122, "velocity": 95}, {"time": 115081, "pitch": 60, "duration": 111, "velocity": 65}, {"time": 115081, "pitch": 65, "duration": 111, "velocity": 74}, {"time": 115081, "pitch": 69, "duration": 111, "velocity": 79}, {"time": 115321, "pitch": 60, "duration": 80, "velocity": 97}, {"time": 115321, "pitch": 66, "duration": 80, "velocity": 97}, {"time": 115321, "pitch": 69, "duration": 80, "velocity": 99}, {"time": 115679, "pitch": 60, "duration": 120, "velocity": 97}, {"time": 115679, "pitch": 66, "duration": 120, "velocity": 95}, {"time": 115679, "pitch": 69, "duration": 120, "velocity": 95}, {"time": 115799, "pitch": 60, "duration": 60, "velocity": 54}, {"time": 115799, "pitch": 66, "duration": 60, "velocity": 55}, {"time": 115799, "pitch": 69, "duration": 60, "velocity": 59}, {"time": 115918, "pitch": 60, "duration": 60, "velocity": 61}, {"time": 115918, "pitch": 66, "duration": 60, "velocity": 72}, {"time": 115918, "pitch": 69, "duration": 60, "velocity": 60}, {"time": 116038, "pitch": 60, "duration": 59, "velocity": 95}, {"time": 116038, "pitch": 66, "duration": 59, "velocity": 105}, {"time": 116038, "pitch": 69, "duration": 59, "velocity": 99}, {"time": 116157, "pitch": 62, "duration": 121, "velocity": 97}, {"time": 116157, "pitch": 65, "duration": 121, "velocity": 95}, {"time": 116157, "pitch": 70, "duration": 121, "velocity": 95}, {"time": 116278, "pitch": 62, "duration": 61, "velocity": 54}, {"time": 116278, "pitch": 65, "duration": 61, "velocity": 55}, {"time": 116278, "pitch": 70, "duration": 61, "velocity": 59}, {"time": 116399, "pitch": 62, "duration": 61, "velocity": 61}, {"time": 116399, "pitch": 65, "duration": 61, "velocity": 72}, {"time": 116399, "pitch": 70, "duration": 61, "velocity": 60}, {"time": 116521, "pitch": 62, "duration": 60, "velocity": 95}, {"time": 116521, "pitch": 65, "duration": 60, "velocity": 105}, {"time": 116521, "pitch": 70, "duration": 60, "velocity": 99}, {"time": 116761, "pitch": 62, "duration": 120, "velocity": 50}, {"time": 116761, "pitch": 65, "duration": 120, "velocity": 45}, {"time": 116761, "pitch": 70, "duration": 120, "velocity": 69}, {"time": 116881, "pitch": 62, "duration": 119, "velocity": 95}, {"time": 116881, "pitch": 65, "duration": 119, "velocity": 103}, {"time": 116881, "pitch": 70, "duration": 119, "velocity": 95}, {"time": 117000, "pitch": 62, "duration": 229, "velocity": 65}, {"time": 117000, "pitch": 65, "duration": 229, "velocity": 74}, {"time": 117000, "pitch": 70, "duration": 229, "velocity": 79}, {"time": 117239, "pitch": 62, "duration": 79, "velocity": 97}, {"time": 117239, "pitch": 65, "duration": 79, "velocity": 97}, {"time": 117239, "pitch": 70, "duration": 79, "velocity": 99}, {"time": 117597, "pitch": 62, "duration": 121, "velocity": 97}, {"time": 117597, "pitch": 65, "duration": 121, "velocity": 95}, {"time": 117597, "pitch": 70, "duration": 121, "velocity": 95}, {"time": 117718, "pitch": 62, "duration": 61, "velocity": 54}, {"time": 117718, "pitch": 65, "duration": 61, "velocity": 55}, {"time": 117718, "pitch": 70, "duration": 61, "velocity": 59}, {"time": 117839, "pitch": 62, "duration": 61, "velocity": 61}, {"time": 117839, "pitch": 65, "duration": 61, "velocity": 72}, {"time": 117839, "pitch": 70, "duration": 61, "velocity": 60}, {"time": 117961, "pitch": 62, "duration": 60, "velocity": 95}, {"time": 117961, "pitch": 65, "duration": 60, "velocity": 105}, {"time": 117961, "pitch": 70, "duration": 60, "velocity": 99}, {"time": 118082, "pitch": 60, "duration": 119, "velocity": 97}, {"time": 118082, "pitch": 65, "duration": 119, "velocity": 95}, {"time": 118082, "pitch": 69, "duration": 119, "velocity": 95}, {"time": 118201, "pitch": 60, "duration": 60, "velocity": 54}, {"time": 118201, "pitch": 65, "duration": 60, "velocity": 55}, {"time": 118201, "pitch": 69, "duration": 60, "velocity": 59}, {"time": 118321, "pitch": 60, "duration": 59, "velocity": 61}, {"time": 118321, "pitch": 65, "duration": 59, "velocity": 72}, {"time": 118321, "pitch": 69, "duration": 59, "velocity": 60}, {"time": 118440, "pitch": 60, "duration": 60, "velocity": 95}, {"time": 118440, "pitch": 65, "duration": 60, "velocity": 105}, {"time": 118440, "pitch": 69, "duration": 60, "velocity": 99}, {"time": 118679, "pitch": 60, "duration": 119, "velocity": 50}, {"time": 118679, "pitch": 65, "duration": 119, "velocity": 45}, {"time": 118679, "pitch": 69, "duration": 119, "velocity": 69}, {"time": 118798, "pitch": 60, "duration": 120, "velocity": 95}, {"time": 118798, "pitch": 65, "duration": 120, "velocity": 103}, {"time": 118798, "pitch": 69, "duration": 120, "velocity": 95}, {"time": 118918, "pitch": 60, "duration": 230, "velocity": 65}, {"time": 118918, "pitch": 65, "duration": 230, "velocity": 74}, {"time": 118918, "pitch": 69, "duration": 230, "velocity": 79}, {"time": 119158, "pitch": 60, "duration": 81, "velocity": 97}, {"time": 119158, "pitch": 65, "duration": 81, "velocity": 97}, {"time": 119158, "pitch": 69, "duration": 81, "velocity": 99}, {"time": 119522, "pitch": 60, "duration": 119, "velocity": 97}, {"time": 119522, "pitch": 65, "duration": 119, "velocity": 95}, {"time": 119522, "pitch": 69, "duration": 119, "velocity": 95}, {"time": 119641, "pitch": 60, "duration": 60, "velocity": 54}, {"time": 119641, "pitch": 65, "duration": 60, "velocity": 55}, {"time": 119641, "pitch": 69, "duration": 60, "velocity": 59}, {"time": 119761, "pitch": 60, "duration": 59, "velocity": 61}, {"time": 119761, "pitch": 65, "duration": 59, "velocity": 72}, {"time": 119761, "pitch": 69, "duration": 59, "velocity": 60}, {"time": 119880, "pitch": 60, "duration": 60, "velocity": 95}, {"time": 119880, "pitch": 65, "duration": 60, "velocity": 105}, {"time": 119880, "pitch": 69, "duration": 60, "velocity": 99}, {"time": 119999, "pitch": 58, "duration": 120, "velocity": 97}, {"time": 119999, "pitch": 61, "duration": 120, "velocity": 95}, {"time": 119999, "pitch": 65, "duration": 120, "velocity": 95}, {"time": 120119, "pitch": 58, "duration": 59, "velocity": 54}, {"time": 120119, "pitch": 61, "duration": 59, "velocity": 55}, {"time": 120119, "pitch": 65, "duration": 59, "velocity": 59}, {"time": 120238, "pitch": 58, "duration": 60, "velocity": 61}, {"time": 120238, "pitch": 61, "duration": 60, "velocity": 72}, {"time": 120238, "pitch": 65, "duration": 60, "velocity": 60}, {"time": 120358, "pitch": 58, "duration": 59, "velocity": 95}, {"time": 120358, "pitch": 61, "duration": 59, "velocity": 105}, {"time": 120358, "pitch": 65, "duration": 59, "velocity": 99}, {"time": 120598, "pitch": 58, "duration": 121, "velocity": 50}, {"time": 120598, "pitch": 61, "duration": 121, "velocity": 45}, {"time": 120598, "pitch": 65, "duration": 121, "velocity": 69}, {"time": 120719, "pitch": 58, "duration": 122, "velocity": 95}, {"time": 120719, "pitch": 61, "duration": 122, "velocity": 103}, {"time": 120719, "pitch": 65, "duration": 122, "velocity": 95}, {"time": 120841, "pitch": 60, "duration": 230, "velocity": 65}, {"time": 120841, "pitch": 65, "duration": 230, "velocity": 74}, {"time": 120841, "pitch": 69, "duration": 230, "velocity": 79}, {"time": 121081, "pitch": 62, "duration": 80, "velocity": 97}, {"time": 121081, "pitch": 65, "duration": 80, "velocity": 97}, {"time": 121081, "pitch": 69, "duration": 80, "velocity": 99}, {"time": 121439, "pitch": 62, "duration": 120, "velocity": 97}, {"time": 121439, "pitch": 65, "duration": 120, "velocity": 95}, {"time": 121439, "pitch": 69, "duration": 120, "velocity": 95}, {"time": 121559, "pitch": 62, "duration": 59, "velocity": 54}, {"time": 121559, "pitch": 65, "duration": 59, "velocity": 55}, {"time": 121559, "pitch": 69, "duration": 59, "velocity": 59}, {"time": 121678, "pitch": 62, "duration": 60, "velocity": 61}, {"time": 121678, "pitch": 65, "duration": 60, "velocity": 72}, {"time": 121678, "pitch": 69, "duration": 60, "velocity": 60}, {"time": 121798, "pitch": 62, "duration": 59, "velocity": 95}, {"time": 121798, "pitch": 65, "duration": 59, "velocity": 105}, {"time": 121798, "pitch": 69, "duration": 59, "velocity": 99}, {"time": 121917, "pitch": 60, "duration": 121, "velocity": 97}, {"time": 121917, "pitch": 65, "duration": 121, "velocity": 95}, {"time": 121917, "pitch": 69, "duration": 121, "velocity": 95}, {"time": 122038, "pitch": 60, "duration": 61, "velocity": 54}, {"time": 122038, "pitch": 65, "duration": 61, "velocity": 55}, {"time": 122038, "pitch": 69, "duration": 61, "velocity": 59}, {"time": 122159, "pitch": 60, "duration": 61, "velocity": 61}, {"time": 122159, "pitch": 65, "duration": 61, "velocity": 72}, {"time": 122159, "pitch": 69, "duration": 61, "velocity": 60}, {"time": 122281, "pitch": 60, "duration": 60, "velocity": 95}, {"time": 122281, "pitch": 65, "duration": 60, "velocity": 105}, {"time": 122281, "pitch": 69, "duration": 60, "velocity": 99}, {"time": 122521, "pitch": 60, "duration": 119, "velocity": 50}, {"time": 122521, "pitch": 65, "duration": 119, "velocity": 45}, {"time": 122521, "pitch": 69, "duration": 119, "velocity": 69}, {"time": 122640, "pitch": 60, "duration": 120, "velocity": 95}, {"time": 122640, "pitch": 65, "duration": 120, "velocity": 103}, {"time": 122640, "pitch": 69, "duration": 120, "velocity": 95}, {"time": 122760, "pitch": 60, "duration": 109, "velocity": 65}, {"time": 122760, "pitch": 65, "duration": 109, "velocity": 74}, {"time": 122760, "pitch": 69, "duration": 109, "velocity": 79}, {"time": 122999, "pitch": 60, "duration": 79, "velocity": 97}, {"time": 122999, "pitch": 65, "duration": 79, "velocity": 97}, {"time": 122999, "pitch": 69, "duration": 79, "velocity": 99}, {"time": 123357, "pitch": 60, "duration": 121, "velocity": 97}, {"time": 123357, "pitch": 65, "duration": 121, "velocity": 95}, {"time": 123357, "pitch": 69, "duration": 121, "velocity": 95}, {"time": 123478, "pitch": 60, "duration": 61, "velocity": 54}, {"time": 123478, "pitch": 65, "duration": 61, "velocity": 55}, {"time": 123478, "pitch": 69, "duration": 61, "velocity": 59}, {"time": 123599, "pitch": 60, "duration": 61, "velocity": 61}, {"time": 123599, "pitch": 65, "duration": 61, "velocity": 72}, {"time": 123599, "pitch": 69, "duration": 61, "velocity": 60}, {"time": 123720, "pitch": 60, "duration": 61, "velocity": 95}, {"time": 123720, "pitch": 65, "duration": 61, "velocity": 105}, {"time": 123720, "pitch": 69, "duration": 61, "velocity": 99}, {"time": 123842, "pitch": 62, "duration": 119, "velocity": 97}, {"time": 123842, "pitch": 65, "duration": 119, "velocity": 95}, {"time": 123842, "pitch": 69, "duration": 119, "velocity": 95}, {"time": 123961, "pitch": 62, "duration": 60, "velocity": 54}, {"time": 123961, "pitch": 65, "duration": 60, "velocity": 55}, {"time": 123961, "pitch": 69, "duration": 60, "velocity": 59}, {"time": 124080, "pitch": 62, "duration": 60, "velocity": 61}, {"time": 124080, "pitch": 65, "duration": 60, "velocity": 72}, {"time": 124080, "pitch": 69, "duration": 60, "velocity": 60}, {"time": 124200, "pitch": 62, "duration": 60, "velocity": 95}, {"time": 124200, "pitch": 65, "duration": 60, "velocity": 105}, {"time": 124200, "pitch": 69, "duration": 60, "velocity": 99}, {"time": 124439, "pitch": 62, "duration": 119, "velocity": 50}, {"time": 124439, "pitch": 65, "duration": 119, "velocity": 45}, {"time": 124439, "pitch": 69, "duration": 119, "velocity": 69}, {"time": 124558, "pitch": 62, "duration": 119, "velocity": 95}, {"time": 124558, "pitch": 65, "duration": 119, "velocity": 103}, {"time": 124558, "pitch": 69, "duration": 119, "velocity": 95}, {"time": 124677, "pitch": 62, "duration": 231, "velocity": 65}, {"time": 124677, "pitch": 65, "duration": 231, "velocity": 74}, {"time": 124677, "pitch": 69, "duration": 231, "velocity": 79}, {"time": 124918, "pitch": 62, "duration": 81, "velocity": 97}, {"time": 124918, "pitch": 65, "duration": 81, "velocity": 97}, {"time": 124918, "pitch": 69, "duration": 81, "velocity": 99}, {"time": 125759, "pitch": 60, "duration": 120, "velocity": 97}, {"time": 125759, "pitch": 62, "duration": 120, "velocity": 95}, {"time": 125759, "pitch": 67, "duration": 120, "velocity": 95}, {"time": 125879, "pitch": 60, "duration": 119, "velocity": 61}, {"time": 125879, "pitch": 62, "duration": 119, "velocity": 72}, {"time": 125879, "pitch": 67, "duration": 119, "velocity": 60}, {"time": 125998, "pitch": 60, "duration": 119, "velocity": 61}, {"time": 125998, "pitch": 62, "duration": 119, "velocity": 72}, {"time": 125998, "pitch": 67, "duration": 119, "velocity": 60}, {"time": 126117, "pitch": 60, "duration": 60, "velocity": 90}, {"time": 126117, "pitch": 62, "duration": 60, "velocity": 90}, {"time": 126117, "pitch": 67, "duration": 60, "velocity": 90}, {"time": 126358, "pitch": 60, "duration": 121, "velocity": 50}, {"time": 126358, "pitch": 65, "duration": 121, "velocity": 45}, {"time": 126358, "pitch": 69, "duration": 121, "velocity": 69}, {"time": 126479, "pitch": 60, "duration": 121, "velocity": 95}, {"time": 126479, "pitch": 65, "duration": 121, "velocity": 103}, {"time": 126479, "pitch": 69, "duration": 121, "velocity": 95}, {"time": 126600, "pitch": 60, "duration": 231, "velocity": 65}, {"time": 126600, "pitch": 65, "duration": 231, "velocity": 74}, {"time": 126600, "pitch": 69, "duration": 231, "velocity": 79}, {"time": 126841, "pitch": 60, "duration": 119, "velocity": 80}, {"time": 126841, "pitch": 65, "duration": 119, "velocity": 80}, {"time": 126841, "pitch": 69, "duration": 119, "velocity": 80}, {"time": 126960, "pitch": 60, "duration": 80, "velocity": 97}, {"time": 126960, "pitch": 65, "duration": 80, "velocity": 97}, {"time": 126960, "pitch": 69, "duration": 80, "velocity": 99}, {"time": 127080, "pitch": 60, "duration": 229, "velocity": 65}, {"time": 127080, "pitch": 65, "duration": 229, "velocity": 74}, {"time": 127080, "pitch": 69, "duration": 229, "velocity": 79}, {"time": 127319, "pitch": 60, "duration": 39, "velocity": 80}, {"time": 127319, "pitch": 65, "duration": 39, "velocity": 80}, {"time": 127319, "pitch": 69, "duration": 39, "velocity": 80}, {"time": 127438, "pitch": 60, "duration": 229, "velocity": 97}, {"time": 127438, "pitch": 65, "duration": 229, "velocity": 97}, {"time": 127438, "pitch": 69, "duration": 229, "velocity": 99}, {"time": 127677, "pitch": 62, "duration": 121, "velocity": 97}, {"time": 127677, "pitch": 65, "duration": 121, "velocity": 95}, {"time": 127677, "pitch": 69, "duration": 121, "velocity": 95}, {"time": 127798, "pitch": 62, "duration": 61, "velocity": 54}, {"time": 127798, "pitch": 65, "duration": 61, "velocity": 55}, {"time": 127798, "pitch": 69, "duration": 61, "velocity": 59}, {"time": 127919, "pitch": 62, "duration": 61, "velocity": 61}, {"time": 127919, "pitch": 65, "duration": 61, "velocity": 72}, {"time": 127919, "pitch": 69, "duration": 61, "velocity": 60}, {"time": 128040, "pitch": 62, "duration": 61, "velocity": 95}, {"time": 128040, "pitch": 65, "duration": 61, "velocity": 105}, {"time": 128040, "pitch": 69, "duration": 61, "velocity": 99}, {"time": 128281, "pitch": 62, "duration": 119, "velocity": 50}, {"time": 128281, "pitch": 65, "duration": 119, "velocity": 45}, {"time": 128281, "pitch": 69, "duration": 119, "velocity": 69}, {"time": 128400, "pitch": 62, "duration": 120, "velocity": 95}, {"time": 128400, "pitch": 65, "duration": 120, "velocity": 103}, {"time": 128400, "pitch": 69, "duration": 120, "velocity": 95}, {"time": 128520, "pitch": 62, "duration": 229, "velocity": 65}, {"time": 128520, "pitch": 65, "duration": 229, "velocity": 74}, {"time": 128520, "pitch": 69, "duration": 229, "velocity": 79}, {"time": 128759, "pitch": 62, "duration": 79, "velocity": 97}, {"time": 128759, "pitch": 65, "duration": 79, "velocity": 97}, {"time": 128759, "pitch": 69, "duration": 79, "velocity": 99}, {"time": 129602, "pitch": 60, "duration": 119, "velocity": 97}, {"time": 129602, "pitch": 62, "duration": 119, "velocity": 95}, {"time": 129602, "pitch": 67, "duration": 119, "velocity": 95}, {"time": 129721, "pitch": 60, "duration": 119, "velocity": 61}, {"time": 129721, "pitch": 62, "duration": 119, "velocity": 72}, {"time": 129721, "pitch": 67, "duration": 119, "velocity": 60}, {"time": 129840, "pitch": 60, "duration": 120, "velocity": 61}, {"time": 129840, "pitch": 62, "duration": 120, "velocity": 72}, {"time": 129840, "pitch": 67, "duration": 120, "velocity": 60}, {"time": 129960, "pitch": 60, "duration": 59, "velocity": 90}, {"time": 129960, "pitch": 62, "duration": 59, "velocity": 90}, {"time": 129960, "pitch": 67, "duration": 59, "velocity": 90}, {"time": 130199, "pitch": 60, "duration": 119, "velocity": 50}, {"time": 130199, "pitch": 65, "duration": 119, "velocity": 45}, {"time": 130199, "pitch": 69, "duration": 119, "velocity": 69}, {"time": 130318, "pitch": 60, "duration": 119, "velocity": 95}, {"time": 130318, "pitch": 65, "duration": 119, "velocity": 103}, {"time": 130318, "pitch": 69, "duration": 119, "velocity": 95}, {"time": 130437, "pitch": 60, "duration": 231, "velocity": 65}, {"time": 130437, "pitch": 65, "duration": 231, "velocity": 74}, {"time": 130437, "pitch": 69, "duration": 231, "velocity": 79}, {"time": 130678, "pitch": 60, "duration": 121, "velocity": 80}, {"time": 130678, "pitch": 65, "duration": 121, "velocity": 80}, {"time": 130678, "pitch": 69, "duration": 121, "velocity": 80}, {"time": 130799, "pitch": 60, "duration": 81, "velocity": 97}, {"time": 130799, "pitch": 65, "duration": 81, "velocity": 97}, {"time": 130799, "pitch": 69, "duration": 81, "velocity": 99}, {"time": 130920, "pitch": 60, "duration": 231, "velocity": 65}, {"time": 130920, "pitch": 65, "duration": 231, "velocity": 74}, {"time": 130920, "pitch": 69, "duration": 231, "velocity": 79}, {"time": 131161, "pitch": 60, "duration": 40, "velocity": 80}, {"time": 131161, "pitch": 65, "duration": 40, "velocity": 80}, {"time": 131161, "pitch": 69, "duration": 40, "velocity": 80}, {"time": 131280, "pitch": 60, "duration": 229, "velocity": 97}, {"time": 131280, "pitch": 65, "duration": 229, "velocity": 97}, {"time": 131280, "pitch": 69, "duration": 229, "velocity": 99}, {"time": 131519, "pitch": 62, "duration": 119, "velocity": 97}, {"time": 131519, "pitch": 65, "duration": 119, "velocity": 95}, {"time": 131519, "pitch": 69, "duration": 119, "velocity": 95}, {"time": 131638, "pitch": 62, "duration": 60, "velocity": 54}, {"time": 131638, "pitch": 65, "duration": 60, "velocity": 55}, {"time": 131638, "pitch": 69, "duration": 60, "velocity": 59}, {"time": 131758, "pitch": 62, "duration": 60, "velocity": 61}, {"time": 131758, "pitch": 65, "duration": 60, "velocity": 72}, {"time": 131758, "pitch": 69, "duration": 60, "velocity": 60}, {"time": 131877, "pitch": 62, "duration": 60, "velocity": 95}, {"time": 131877, "pitch": 65, "duration": 60, "velocity": 105}, {"time": 131877, "pitch": 69, "duration": 60, "velocity": 99}, {"time": 132118, "pitch": 62, "duration": 121, "velocity": 50}, {"time": 132118, "pitch": 65, "duration": 121, "velocity": 45}, {"time": 132118, "pitch": 69, "duration": 121, "velocity": 69}, {"time": 132239, "pitch": 62, "duration": 121, "velocity": 95}, {"time": 132239, "pitch": 65, "duration": 121, "velocity": 103}, {"time": 132239, "pitch": 69, "duration": 121, "velocity": 95}, {"time": 132360, "pitch": 62, "duration": 231, "velocity": 65}, {"time": 132360, "pitch": 65, "duration": 231, "velocity": 74}, {"time": 132360, "pitch": 69, "duration": 231, "velocity": 79}, {"time": 132601, "pitch": 62, "duration": 79, "velocity": 97}, {"time": 132601, "pitch": 65, "duration": 79, "velocity": 97}, {"time": 132601, "pitch": 69, "duration": 79, "velocity": 99}, {"time": 133437, "pitch": 60, "duration": 121, "velocity": 97}, {"time": 133437, "pitch": 62, "duration": 121, "velocity": 95}, {"time": 133437, "pitch": 67, "duration": 121, "velocity": 95}, {"time": 133558, "pitch": 60, "duration": 121, "velocity": 61}, {"time": 133558, "pitch": 62, "duration": 121, "velocity": 72}, {"time": 133558, "pitch": 67, "duration": 121, "velocity": 60}, {"time": 133679, "pitch": 60, "duration": 121, "velocity": 61}, {"time": 133679, "pitch": 62, "duration": 121, "velocity": 72}, {"time": 133679, "pitch": 67, "duration": 121, "velocity": 60}, {"time": 133800, "pitch": 60, "duration": 61, "velocity": 90}, {"time": 133800, "pitch": 62, "duration": 61, "velocity": 90}, {"time": 133800, "pitch": 67, "duration": 61, "velocity": 90}, {"time": 134041, "pitch": 60, "duration": 119, "velocity": 50}, {"time": 134041, "pitch": 65, "duration": 119, "velocity": 45}, {"time": 134041, "pitch": 69, "duration": 119, "velocity": 69}, {"time": 134160, "pitch": 60, "duration": 120, "velocity": 95}, {"time": 134160, "pitch": 65, "duration": 120, "velocity": 103}, {"time": 134160, "pitch": 69, "duration": 120, "velocity": 95}, {"time": 134280, "pitch": 60, "duration": 228, "velocity": 65}, {"time": 134280, "pitch": 65, "duration": 228, "velocity": 74}, {"time": 134280, "pitch": 69, "duration": 228, "velocity": 79}, {"time": 134518, "pitch": 60, "duration": 120, "velocity": 80}, {"time": 134518, "pitch": 65, "duration": 120, "velocity": 80}, {"time": 134518, "pitch": 69, "duration": 120, "velocity": 80}, {"time": 134638, "pitch": 60, "duration": 79, "velocity": 97}, {"time": 134638, "pitch": 65, "duration": 79, "velocity": 97}, {"time": 134638, "pitch": 69, "duration": 79, "velocity": 99}, {"time": 134757, "pitch": 60, "duration": 231, "velocity": 65}, {"time": 134757, "pitch": 65, "duration": 231, "velocity": 74}, {"time": 134757, "pitch": 69, "duration": 231, "velocity": 79}, {"time": 134998, "pitch": 60, "duration": 40, "velocity": 80}, {"time": 134998, "pitch": 65, "duration": 40, "velocity": 80}, {"time": 134998, "pitch": 69, "duration": 40, "velocity": 80}, {"time": 135119, "pitch": 60, "duration": 232, "velocity": 97}, {"time": 135119, "pitch": 65, "duration": 232, "velocity": 97}, {"time": 135119, "pitch": 69, "duration": 232, "velocity": 99}, {"time": 135361, "pitch": 62, "duration": 120, "velocity": 97}, {"time": 135361, "pitch": 65, "duration": 120, "velocity": 95}, {"time": 135361, "pitch": 69, "duration": 120, "velocity": 95}, {"time": 135481, "pitch": 62, "duration": 59, "velocity": 54}, {"time": 135481, "pitch": 65, "duration": 59, "velocity": 55}, {"time": 135481, "pitch": 69, "duration": 59, "velocity": 59}, {"time": 135600, "pitch": 62, "duration": 60, "velocity": 61}, {"time": 135600, "pitch": 65, "duration": 60, "velocity": 72}, {"time": 135600, "pitch": 69, "duration": 60, "velocity": 60}, {"time": 135720, "pitch": 62, "duration": 59, "velocity": 95}, {"time": 135720, "pitch": 65, "duration": 59, "velocity": 105}, {"time": 135720, "pitch": 69, "duration": 59, "velocity": 99}, {"time": 135958, "pitch": 62, "duration": 120, "velocity": 50}, {"time": 135958, "pitch": 65, "duration": 120, "velocity": 45}, {"time": 135958, "pitch": 69, "duration": 120, "velocity": 69}, {"time": 136078, "pitch": 62, "duration": 119, "velocity": 95}, {"time": 136078, "pitch": 65, "duration": 119, "velocity": 103}, {"time": 136078, "pitch": 69, "duration": 119, "velocity": 95}, {"time": 136197, "pitch": 62, "duration": 231, "velocity": 65}, {"time": 136197, "pitch": 65, "duration": 231, "velocity": 74}, {"time": 136197, "pitch": 69, "duration": 231, "velocity": 79}, {"time": 136438, "pitch": 62, "duration": 81, "velocity": 97}, {"time": 136438, "pitch": 65, "duration": 81, "velocity": 97}, {"time": 136438, "pitch": 69, "duration": 81, "velocity": 99}, {"time": 137279, "pitch": 60, "duration": 119, "velocity": 97}, {"time": 137279, "pitch": 62, "duration": 119, "velocity": 95}, {"time": 137279, "pitch": 67, "duration": 119, "velocity": 95}, {"time": 137398, "pitch": 60, "duration": 120, "velocity": 61}, {"time": 137398, "pitch": 62, "duration": 120, "velocity": 72}, {"time": 137398, "pitch": 67, "duration": 120, "velocity": 60}, {"time": 137518, "pitch": 60, "duration": 119, "velocity": 61}, {"time": 137518, "pitch": 62, "duration": 119, "velocity": 72}, {"time": 137518, "pitch": 67, "duration": 119, "velocity": 60}, {"time": 137637, "pitch": 60, "duration": 60, "velocity": 90}, {"time": 137637, "pitch": 62, "duration": 60, "velocity": 90}, {"time": 137637, "pitch": 67, "duration": 60, "velocity": 90}, {"time": 137878, "pitch": 60, "duration": 121, "velocity": 50}, {"time": 137878, "pitch": 65, "duration": 121, "velocity": 45}, {"time": 137878, "pitch": 69, "duration": 121, "velocity": 69}, {"time": 137999, "pitch": 60, "duration": 121, "velocity": 95}, {"time": 137999, "pitch": 65, "duration": 121, "velocity": 103}, {"time": 137999, "pitch": 69, "duration": 121, "velocity": 95}, {"time": 138120, "pitch": 60, "duration": 231, "velocity": 65}, {"time": 138120, "pitch": 65, "duration": 231, "velocity": 74}, {"time": 138120, "pitch": 69, "duration": 231, "velocity": 79}, {"time": 138361, "pitch": 60, "duration": 119, "velocity": 80}, {"time": 138361, "pitch": 65, "duration": 119, "velocity": 80}, {"time": 138361, "pitch": 69, "duration": 119, "velocity": 80}, {"time": 138480, "pitch": 60, "duration": 80, "velocity": 97}, {"time": 138480, "pitch": 65, "duration": 80, "velocity": 97}, {"time": 138480, "pitch": 69, "duration": 80, "velocity": 99}, {"time": 138599, "pitch": 60, "duration": 110, "velocity": 65}, {"time": 138599, "pitch": 65, "duration": 110, "velocity": 74}, {"time": 138599, "pitch": 69, "duration": 110, "velocity": 79}, {"time": 138719, "pitch": 60, "duration": 468, "velocity": 101}, {"time": 138719, "pitch": 65, "duration": 468, "velocity": 108}, {"time": 138719, "pitch": 69, "duration": 468, "velocity": 96}, {"time": 139196, "pitch": 62, "duration": 122, "velocity": 97}, {"time": 139196, "pitch": 65, "duration": 122, "velocity": 95}, {"time": 139196, "pitch": 69, "duration": 122, "velocity": 95}, {"time": 139318, "pitch": 62, "duration": 60, "velocity": 54}, {"time": 139318, "pitch": 65, "duration": 60, "velocity": 55}, {"time": 139318, "pitch": 69, "duration": 60, "velocity": 59}, {"time": 139439, "pitch": 62, "duration": 60, "velocity": 61}, {"time": 139439, "pitch": 65, "duration": 60, "velocity": 72}, {"time": 139439, "pitch": 69, "duration": 60, "velocity": 60}, {"time": 139560, "pitch": 62, "duration": 61, "velocity": 95}, {"time": 139560, "pitch": 65, "duration": 61, "velocity": 105}, {"time": 139560, "pitch": 69, "duration": 61, "velocity": 99}, {"time": 139801, "pitch": 62, "duration": 119, "velocity": 50}, {"time": 139801, "pitch": 65, "duration": 119, "velocity": 45}, {"time": 139801, "pitch": 69, "duration": 119, "velocity": 69}, {"time": 139920, "pitch": 62, "duration": 119, "velocity": 95}, {"time": 139920, "pitch": 65, "duration": 119, "velocity": 103}, {"time": 139920, "pitch": 69, "duration": 119, "velocity": 95}, {"time": 140039, "pitch": 62, "duration": 229, "velocity": 65}, {"time": 140039, "pitch": 65, "duration": 229, "velocity": 74}, {"time": 140039, "pitch": 69, "duration": 229, "velocity": 79}, {"time": 140278, "pitch": 62, "duration": 80, "velocity": 97}, {"time": 140278, "pitch": 65, "duration": 80, "velocity": 97}, {"time": 140278, "pitch": 69, "duration": 80, "velocity": 99}, {"time": 141121, "pitch": 60, "duration": 120, "velocity": 97}, {"time": 141121, "pitch": 62, "duration": 120, "velocity": 95}, {"time": 141121, "pitch": 67, "duration": 120, "velocity": 95}, {"time": 141241, "pitch": 60, "duration": 119, "velocity": 61}, {"time": 141241, "pitch": 62, "duration": 119, "velocity": 72}, {"time": 141241, "pitch": 67, "duration": 119, "velocity": 60}, {"time": 141360, "pitch": 60, "duration": 119, "velocity": 61}, {"time": 141360, "pitch": 62, "duration": 119, "velocity": 72}, {"time": 141360, "pitch": 67, "duration": 119, "velocity": 60}, {"time": 141479, "pitch": 60, "duration": 60, "velocity": 90}, {"time": 141479, "pitch": 62, "duration": 60, "velocity": 90}, {"time": 141479, "pitch": 67, "duration": 60, "velocity": 90}, {"time": 141718, "pitch": 60, "duration": 120, "velocity": 50}, {"time": 141718, "pitch": 65, "duration": 120, "velocity": 45}, {"time": 141718, "pitch": 69, "duration": 120, "velocity": 69}, {"time": 141838, "pitch": 60, "duration": 119, "velocity": 95}, {"time": 141838, "pitch": 65, "duration": 119, "velocity": 103}, {"time": 141838, "pitch": 69, "duration": 119, "velocity": 95}, {"time": 141957, "pitch": 60, "duration": 230, "velocity": 65}, {"time": 141957, "pitch": 65, "duration": 230, "velocity": 74}, {"time": 141957, "pitch": 69, "duration": 230, "velocity": 79}, {"time": 142198, "pitch": 60, "duration": 121, "velocity": 80}, {"time": 142198, "pitch": 65, "duration": 121, "velocity": 80}, {"time": 142198, "pitch": 69, "duration": 121, "velocity": 80}, {"time": 142319, "pitch": 60, "duration": 81, "velocity": 97}, {"time": 142319, "pitch": 65, "duration": 81, "velocity": 97}, {"time": 142319, "pitch": 69, "duration": 81, "velocity": 99}, {"time": 142440, "pitch": 60, "duration": 231, "velocity": 65}, {"time": 142440, "pitch": 65, "duration": 231, "velocity": 74}, {"time": 142440, "pitch": 69, "duration": 231, "velocity": 79}, {"time": 142681, "pitch": 60, "duration": 39, "velocity": 80}, {"time": 142681, "pitch": 65, "duration": 39, "velocity": 80}, {"time": 142681, "pitch": 69, "duration": 39, "velocity": 80}, {"time": 142800, "pitch": 60, "duration": 229, "velocity": 97}, {"time": 142800, "pitch": 65, "duration": 229, "velocity": 97}, {"time": 142800, "pitch": 69, "duration": 229, "velocity": 99}, {"time": 143039, "pitch": 62, "duration": 121, "velocity": 97}, {"time": 143039, "pitch": 65, "duration": 121, "velocity": 95}, {"time": 143039, "pitch": 69, "duration": 121, "velocity": 95}, {"time": 143160, "pitch": 62, "duration": 61, "velocity": 54}, {"time": 143160, "pitch": 65, "duration": 61, "velocity": 55}, {"time": 143160, "pitch": 69, "duration": 61, "velocity": 59}, {"time": 143281, "pitch": 62, "duration": 61, "velocity": 61}, {"time": 143281, "pitch": 65, "duration": 61, "velocity": 72}, {"time": 143281, "pitch": 69, "duration": 61, "velocity": 60}, {"time": 143402, "pitch": 62, "duration": 61, "velocity": 95}, {"time": 143402, "pitch": 65, "duration": 61, "velocity": 105}, {"time": 143402, "pitch": 69, "duration": 61, "velocity": 99}, {"time": 143643, "pitch": 62, "duration": 119, "velocity": 50}, {"time": 143643, "pitch": 65, "duration": 119, "velocity": 45}, {"time": 143643, "pitch": 69, "duration": 119, "velocity": 69}, {"time": 143762, "pitch": 62, "duration": 120, "velocity": 95}, {"time": 143762, "pitch": 65, "duration": 120, "velocity": 103}, {"time": 143762, "pitch": 69, "duration": 120, "velocity": 95}, {"time": 143882, "pitch": 62, "duration": 229, "velocity": 65}, {"time": 143882, "pitch": 65, "duration": 229, "velocity": 74}, {"time": 143882, "pitch": 69, "duration": 229, "velocity": 79}, {"time": 144121, "pitch": 62, "duration": 79, "velocity": 97}, {"time": 144121, "pitch": 65, "duration": 79, "velocity": 97}, {"time": 144121, "pitch": 69, "duration": 79, "velocity": 99}, {"time": 144964, "pitch": 60, "duration": 119, "velocity": 97}, {"time": 144964, "pitch": 62, "duration": 119, "velocity": 95}, {"time": 144964, "pitch": 67, "duration": 119, "velocity": 95}, {"time": 145083, "pitch": 60, "duration": 119, "velocity": 61}, {"time": 145083, "pitch": 62, "duration": 119, "velocity": 72}, {"time": 145083, "pitch": 67, "duration": 119, "velocity": 60}, {"time": 145202, "pitch": 60, "duration": 120, "velocity": 61}, {"time": 145202, "pitch": 62, "duration": 120, "velocity": 72}, {"time": 145202, "pitch": 67, "duration": 120, "velocity": 60}, {"time": 145322, "pitch": 60, "duration": 59, "velocity": 90}, {"time": 145322, "pitch": 62, "duration": 59, "velocity": 90}, {"time": 145322, "pitch": 67, "duration": 59, "velocity": 90}, {"time": 145561, "pitch": 60, "duration": 119, "velocity": 50}, {"time": 145561, "pitch": 65, "duration": 119, "velocity": 45}, {"time": 145561, "pitch": 69, "duration": 119, "velocity": 69}, {"time": 145680, "pitch": 60, "duration": 119, "velocity": 95}, {"time": 145680, "pitch": 65, "duration": 119, "velocity": 103}, {"time": 145680, "pitch": 69, "duration": 119, "velocity": 95}, {"time": 145799, "pitch": 60, "duration": 231, "velocity": 65}, {"time": 145799, "pitch": 65, "duration": 231, "velocity": 74}, {"time": 145799, "pitch": 69, "duration": 231, "velocity": 79}, {"time": 146040, "pitch": 60, "duration": 121, "velocity": 80}, {"time": 146040, "pitch": 65, "duration": 121, "velocity": 80}, {"time": 146040, "pitch": 69, "duration": 121, "velocity": 80}, {"time": 146161, "pitch": 60, "duration": 81, "velocity": 97}, {"time": 146161, "pitch": 65, "duration": 81, "velocity": 97}, {"time": 146161, "pitch": 69, "duration": 81, "velocity": 99}, {"time": 146282, "pitch": 60, "duration": 231, "velocity": 65}, {"time": 146282, "pitch": 65, "duration": 231, "velocity": 74}, {"time": 146282, "pitch": 69, "duration": 231, "velocity": 79}, {"time": 146523, "pitch": 60, "duration": 40, "velocity": 80}, {"time": 146523, "pitch": 65, "duration": 40, "velocity": 80}, {"time": 146523, "pitch": 69, "duration": 40, "velocity": 80}, {"time": 146642, "pitch": 60, "duration": 229, "velocity": 97}, {"time": 146642, "pitch": 65, "duration": 229, "velocity": 97}, {"time": 146642, "pitch": 69, "duration": 229, "velocity": 99}, {"time": 146881, "pitch": 62, "duration": 119, "velocity": 97}, {"time": 146881, "pitch": 65, "duration": 119, "velocity": 95}, {"time": 146881, "pitch": 69, "duration": 119, "velocity": 95}, {"time": 147000, "pitch": 62, "duration": 60, "velocity": 54}, {"time": 147000, "pitch": 65, "duration": 60, "velocity": 55}, {"time": 147000, "pitch": 69, "duration": 60, "velocity": 59}, {"time": 147120, "pitch": 62, "duration": 60, "velocity": 61}, {"time": 147120, "pitch": 65, "duration": 60, "velocity": 72}, {"time": 147120, "pitch": 69, "duration": 60, "velocity": 60}, {"time": 147239, "pitch": 62, "duration": 60, "velocity": 95}, {"time": 147239, "pitch": 65, "duration": 60, "velocity": 105}, {"time": 147239, "pitch": 69, "duration": 60, "velocity": 99}, {"time": 147480, "pitch": 62, "duration": 121, "velocity": 50}, {"time": 147480, "pitch": 65, "duration": 121, "velocity": 45}, {"time": 147480, "pitch": 69, "duration": 121, "velocity": 69}, {"time": 147601, "pitch": 62, "duration": 121, "velocity": 95}, {"time": 147601, "pitch": 65, "duration": 121, "velocity": 103}, {"time": 147601, "pitch": 69, "duration": 121, "velocity": 95}, {"time": 147722, "pitch": 62, "duration": 231, "velocity": 65}, {"time": 147722, "pitch": 65, "duration": 231, "velocity": 74}, {"time": 147722, "pitch": 69, "duration": 231, "velocity": 79}, {"time": 147963, "pitch": 62, "duration": 79, "velocity": 97}, {"time": 147963, "pitch": 65, "duration": 79, "velocity": 97}, {"time": 147963, "pitch": 69, "duration": 79, "velocity": 99}, {"time": 148799, "pitch": 60, "duration": 121, "velocity": 97}, {"time": 148799, "pitch": 62, "duration": 121, "velocity": 95}, {"time": 148799, "pitch": 67, "duration": 121, "velocity": 95}, {"time": 148920, "pitch": 60, "duration": 121, "velocity": 61}, {"time": 148920, "pitch": 62, "duration": 121, "velocity": 72}, {"time": 148920, "pitch": 67, "duration": 121, "velocity": 60}, {"time": 149041, "pitch": 60, "duration": 121, "velocity": 61}, {"time": 149041, "pitch": 62, "duration": 121, "velocity": 72}, {"time": 149041, "pitch": 67, "duration": 121, "velocity": 60}, {"time": 149162, "pitch": 60, "duration": 61, "velocity": 90}, {"time": 149162, "pitch": 62, "duration": 61, "velocity": 90}, {"time": 149162, "pitch": 67, "duration": 61, "velocity": 90}, {"time": 149403, "pitch": 60, "duration": 119, "velocity": 50}, {"time": 149403, "pitch": 65, "duration": 119, "velocity": 45}, {"time": 149403, "pitch": 69, "duration": 119, "velocity": 69}, {"time": 149522, "pitch": 60, "duration": 120, "velocity": 95}, {"time": 149522, "pitch": 65, "duration": 120, "velocity": 103}, {"time": 149522, "pitch": 69, "duration": 120, "velocity": 95}, {"time": 149642, "pitch": 60, "duration": 228, "velocity": 65}, {"time": 149642, "pitch": 65, "duration": 228, "velocity": 74}, {"time": 149642, "pitch": 69, "duration": 228, "velocity": 79}, {"time": 149880, "pitch": 60, "duration": 120, "velocity": 80}, {"time": 149880, "pitch": 65, "duration": 120, "velocity": 80}, {"time": 149880, "pitch": 69, "duration": 120, "velocity": 80}, {"time": 150000, "pitch": 60, "duration": 79, "velocity": 97}, {"time": 150000, "pitch": 65, "duration": 79, "velocity": 97}, {"time": 150000, "pitch": 69, "duration": 79, "velocity": 99}, {"time": 150119, "pitch": 60, "duration": 231, "velocity": 65}, {"time": 150119, "pitch": 65, "duration": 231, "velocity": 74}, {"time": 150119, "pitch": 69, "duration": 231, "velocity": 79}, {"time": 150360, "pitch": 60, "duration": 40, "velocity": 80}, {"time": 150360, "pitch": 65, "duration": 40, "velocity": 80}, {"time": 150360, "pitch": 69, "duration": 40, "velocity": 80}, {"time": 150481, "pitch": 60, "duration": 232, "velocity": 97}, {"time": 150481, "pitch": 65, "duration": 232, "velocity": 97}, {"time": 150481, "pitch": 69, "duration": 232, "velocity": 99}, {"time": 150723, "pitch": 62, "duration": 120, "velocity": 97}, {"time": 150723, "pitch": 65, "duration": 120, "velocity": 95}, {"time": 150723, "pitch": 69, "duration": 120, "velocity": 95}, {"time": 150843, "pitch": 62, "duration": 59, "velocity": 54}, {"time": 150843, "pitch": 65, "duration": 59, "velocity": 55}, {"time": 150843, "pitch": 69, "duration": 59, "velocity": 59}, {"time": 150962, "pitch": 62, "duration": 60, "velocity": 61}, {"time": 150962, "pitch": 65, "duration": 60, "velocity": 72}, {"time": 150962, "pitch": 69, "duration": 60, "velocity": 60}, {"time": 151082, "pitch": 62, "duration": 59, "velocity": 95}, {"time": 151082, "pitch": 65, "duration": 59, "velocity": 105}, {"time": 151082, "pitch": 69, "duration": 59, "velocity": 99}, {"time": 151320, "pitch": 62, "duration": 120, "velocity": 50}, {"time": 151320, "pitch": 65, "duration": 120, "velocity": 45}, {"time": 151320, "pitch": 69, "duration": 120, "velocity": 69}, {"time": 151440, "pitch": 62, "duration": 119, "velocity": 95}, {"time": 151440, "pitch": 65, "duration": 119, "velocity": 103}, {"time": 151440, "pitch": 69, "duration": 119, "velocity": 95}, {"time": 151559, "pitch": 62, "duration": 231, "velocity": 65}, {"time": 151559, "pitch": 65, "duration": 231, "velocity": 74}, {"time": 151559, "pitch": 69, "duration": 231, "velocity": 79}, {"time": 151800, "pitch": 62, "duration": 81, "velocity": 97}, {"time": 151800, "pitch": 65, "duration": 81, "velocity": 97}, {"time": 151800, "pitch": 69, "duration": 81, "velocity": 99}, {"time": 152641, "pitch": 60, "duration": 119, "velocity": 97}, {"time": 152641, "pitch": 62, "duration": 119, "velocity": 95}, {"time": 152641, "pitch": 67, "duration": 119, "velocity": 95}, {"time": 152760, "pitch": 60, "duration": 120, "velocity": 61}, {"time": 152760, "pitch": 62, "duration": 120, "velocity": 72}, {"time": 152760, "pitch": 67, "duration": 120, "velocity": 60}, {"time": 152880, "pitch": 60, "duration": 119, "velocity": 61}, {"time": 152880, "pitch": 62, "duration": 119, "velocity": 72}, {"time": 152880, "pitch": 67, "duration": 119, "velocity": 60}, {"time": 152999, "pitch": 60, "duration": 60, "velocity": 90}, {"time": 152999, "pitch": 62, "duration": 60, "velocity": 90}, {"time": 152999, "pitch": 67, "duration": 60, "velocity": 90}, {"time": 153240, "pitch": 60, "duration": 121, "velocity": 50}, {"time": 153240, "pitch": 65, "duration": 121, "velocity": 45}, {"time": 153240, "pitch": 69, "duration": 121, "velocity": 69}, {"time": 153361, "pitch": 60, "duration": 121, "velocity": 95}, {"time": 153361, "pitch": 65, "duration": 121, "velocity": 103}, {"time": 153361, "pitch": 69, "duration": 121, "velocity": 95}, {"time": 153482, "pitch": 60, "duration": 231, "velocity": 65}, {"time": 153482, "pitch": 65, "duration": 231, "velocity": 74}, {"time": 153482, "pitch": 69, "duration": 231, "velocity": 79}, {"time": 153723, "pitch": 60, "duration": 119, "velocity": 80}, {"time": 153723, "pitch": 65, "duration": 119, "velocity": 80}, {"time": 153723, "pitch": 69, "duration": 119, "velocity": 80}, {"time": 153842, "pitch": 60, "duration": 80, "velocity": 97}, {"time": 153842, "pitch": 65, "duration": 80, "velocity": 97}, {"time": 153842, "pitch": 69, "duration": 80, "velocity": 99}, {"time": 153961, "pitch": 60, "duration": 110, "velocity": 65}, {"time": 153961, "pitch": 65, "duration": 110, "velocity": 74}, {"time": 153961, "pitch": 69, "duration": 110, "velocity": 79}, {"time": 154081, "pitch": 60, "duration": 468, "velocity": 101}, {"time": 154081, "pitch": 65, "duration": 468, "velocity": 108}, {"time": 154081, "pitch": 69, "duration": 468, "velocity": 96}, {"time": 154558, "pitch": 62, "duration": 122, "velocity": 97}, {"time": 154558, "pitch": 65, "duration": 122, "velocity": 95}, {"time": 154558, "pitch": 69, "duration": 122, "velocity": 95}, {"time": 154680, "pitch": 62, "duration": 60, "velocity": 54}, {"time": 154680, "pitch": 65, "duration": 60, "velocity": 55}, {"time": 154680, "pitch": 69, "duration": 60, "velocity": 59}, {"time": 154801, "pitch": 62, "duration": 60, "velocity": 61}, {"time": 154801, "pitch": 65, "duration": 60, "velocity": 72}, {"time": 154801, "pitch": 69, "duration": 60, "velocity": 60}, {"time": 154922, "pitch": 62, "duration": 61, "velocity": 95}, {"time": 154922, "pitch": 65, "duration": 61, "velocity": 105}, {"time": 154922, "pitch": 69, "duration": 61, "velocity": 99}, {"time": 155163, "pitch": 62, "duration": 119, "velocity": 50}, {"time": 155163, "pitch": 65, "duration": 119, "velocity": 45}, {"time": 155163, "pitch": 69, "duration": 119, "velocity": 69}, {"time": 155282, "pitch": 62, "duration": 119, "velocity": 95}, {"time": 155282, "pitch": 65, "duration": 119, "velocity": 103}, {"time": 155282, "pitch": 69, "duration": 119, "velocity": 95}, {"time": 155401, "pitch": 62, "duration": 229, "velocity": 65}, {"time": 155401, "pitch": 65, "duration": 229, "velocity": 74}, {"time": 155401, "pitch": 69, "duration": 229, "velocity": 79}, {"time": 155640, "pitch": 62, "duration": 80, "velocity": 97}, {"time": 155640, "pitch": 65, "duration": 80, "velocity": 97}, {"time": 155640, "pitch": 69, "duration": 80, "velocity": 99}, {"time": 156483, "pitch": 60, "duration": 120, "velocity": 97}, {"time": 156483, "pitch": 62, "duration": 120, "velocity": 95}, {"time": 156483, "pitch": 67, "duration": 120, "velocity": 95}, {"time": 156603, "pitch": 60, "duration": 119, "velocity": 61}, {"time": 156603, "pitch": 62, "duration": 119, "velocity": 72}, {"time": 156603, "pitch": 67, "duration": 119, "velocity": 60}, {"time": 156722, "pitch": 60, "duration": 119, "velocity": 61}, {"time": 156722, "pitch": 62, "duration": 119, "velocity": 72}, {"time": 156722, "pitch": 67, "duration": 119, "velocity": 60}, {"time": 156841, "pitch": 60, "duration": 60, "velocity": 90}, {"time": 156841, "pitch": 62, "duration": 60, "velocity": 90}, {"time": 156841, "pitch": 67, "duration": 60, "velocity": 90}, {"time": 157080, "pitch": 60, "duration": 120, "velocity": 50}, {"time": 157080, "pitch": 65, "duration": 120, "velocity": 45}, {"time": 157080, "pitch": 69, "duration": 120, "velocity": 69}, {"time": 157200, "pitch": 60, "duration": 119, "velocity": 95}, {"time": 157200, "pitch": 65, "duration": 119, "velocity": 103}, {"time": 157200, "pitch": 69, "duration": 119, "velocity": 95}, {"time": 157319, "pitch": 60, "duration": 231, "velocity": 65}, {"time": 157319, "pitch": 65, "duration": 231, "velocity": 74}, {"time": 157319, "pitch": 69, "duration": 231, "velocity": 79}, {"time": 157560, "pitch": 60, "duration": 121, "velocity": 80}, {"time": 157560, "pitch": 65, "duration": 121, "velocity": 80}, {"time": 157560, "pitch": 69, "duration": 121, "velocity": 80}, {"time": 157681, "pitch": 60, "duration": 81, "velocity": 97}, {"time": 157681, "pitch": 65, "duration": 81, "velocity": 97}, {"time": 157681, "pitch": 69, "duration": 81, "velocity": 99}, {"time": 157802, "pitch": 60, "duration": 231, "velocity": 65}, {"time": 157802, "pitch": 65, "duration": 231, "velocity": 74}, {"time": 157802, "pitch": 69, "duration": 231, "velocity": 79}, {"time": 158043, "pitch": 60, "duration": 39, "velocity": 80}, {"time": 158043, "pitch": 65, "duration": 39, "velocity": 80}, {"time": 158043, "pitch": 69, "duration": 39, "velocity": 80}, {"time": 158162, "pitch": 60, "duration": 229, "velocity": 97}, {"time": 158162, "pitch": 65, "duration": 229, "velocity": 97}, {"time": 158162, "pitch": 69, "duration": 229, "velocity": 99}, {"time": 158401, "pitch": 62, "duration": 119, "velocity": 97}, {"time": 158401, "pitch": 65, "duration": 119, "velocity": 95}, {"time": 158401, "pitch": 69, "duration": 119, "velocity": 95}, {"time": 158520, "pitch": 62, "duration": 60, "velocity": 54}, {"time": 158520, "pitch": 65, "duration": 60, "velocity": 55}, {"time": 158520, "pitch": 69, "duration": 60, "velocity": 59}, {"time": 158640, "pitch": 62, "duration": 59, "velocity": 61}, {"time": 158640, "pitch": 65, "duration": 59, "velocity": 72}, {"time": 158640, "pitch": 69, "duration": 59, "velocity": 60}, {"time": 158759, "pitch": 62, "duration": 60, "velocity": 95}, {"time": 158759, "pitch": 65, "duration": 60, "velocity": 105}, {"time": 158759, "pitch": 69, "duration": 60, "velocity": 99}, {"time": 159000, "pitch": 62, "duration": 121, "velocity": 50}, {"time": 159000, "pitch": 65, "duration": 121, "velocity": 45}, {"time": 159000, "pitch": 69, "duration": 121, "velocity": 69}, {"time": 159121, "pitch": 62, "duration": 121, "velocity": 95}, {"time": 159121, "pitch": 65, "duration": 121, "velocity": 103}, {"time": 159121, "pitch": 69, "duration": 121, "velocity": 95}, {"time": 159242, "pitch": 62, "duration": 231, "velocity": 65}, {"time": 159242, "pitch": 65, "duration": 231, "velocity": 74}, {"time": 159242, "pitch": 69, "duration": 231, "velocity": 79}, {"time": 159483, "pitch": 62, "duration": 79, "velocity": 97}, {"time": 159483, "pitch": 65, "duration": 79, "velocity": 97}, {"time": 159483, "pitch": 69, "duration": 79, "velocity": 99}, {"time": 160318, "pitch": 60, "duration": 122, "velocity": 97}, {"time": 160318, "pitch": 62, "duration": 122, "velocity": 95}, {"time": 160318, "pitch": 67, "duration": 122, "velocity": 95}, {"time": 160440, "pitch": 60, "duration": 121, "velocity": 61}, {"time": 160440, "pitch": 62, "duration": 121, "velocity": 72}, {"time": 160440, "pitch": 67, "duration": 121, "velocity": 60}, {"time": 160561, "pitch": 60, "duration": 121, "velocity": 61}, {"time": 160561, "pitch": 62, "duration": 121, "velocity": 72}, {"time": 160561, "pitch": 67, "duration": 121, "velocity": 60}, {"time": 160682, "pitch": 60, "duration": 61, "velocity": 90}, {"time": 160682, "pitch": 62, "duration": 61, "velocity": 90}, {"time": 160682, "pitch": 67, "duration": 61, "velocity": 90}, {"time": 160924, "pitch": 60, "duration": 122, "velocity": 50}, {"time": 160924, "pitch": 65, "duration": 122, "velocity": 45}, {"time": 160924, "pitch": 69, "duration": 122, "velocity": 69}, {"time": 161046, "pitch": 60, "duration": 121, "velocity": 95}, {"time": 161046, "pitch": 65, "duration": 121, "velocity": 103}, {"time": 161046, "pitch": 69, "duration": 121, "velocity": 95}, {"time": 161167, "pitch": 60, "duration": 232, "velocity": 65}, {"time": 161167, "pitch": 65, "duration": 232, "velocity": 74}, {"time": 161167, "pitch": 69, "duration": 232, "velocity": 79}, {"time": 161409, "pitch": 60, "duration": 121, "velocity": 80}, {"time": 161409, "pitch": 65, "duration": 121, "velocity": 80}, {"time": 161409, "pitch": 69, "duration": 121, "velocity": 80}, {"time": 161530, "pitch": 60, "duration": 81, "velocity": 97}, {"time": 161530, "pitch": 65, "duration": 81, "velocity": 97}, {"time": 161530, "pitch": 69, "duration": 81, "velocity": 99}, {"time": 161652, "pitch": 60, "duration": 232, "velocity": 65}, {"time": 161652, "pitch": 65, "duration": 232, "velocity": 74}, {"time": 161652, "pitch": 69, "duration": 232, "velocity": 79}, {"time": 161894, "pitch": 60, "duration": 40, "velocity": 80}, {"time": 161894, "pitch": 65, "duration": 40, "velocity": 80}, {"time": 161894, "pitch": 69, "duration": 40, "velocity": 80}, {"time": 162015, "pitch": 60, "duration": 233, "velocity": 97}, {"time": 162015, "pitch": 65, "duration": 233, "velocity": 97}, {"time": 162015, "pitch": 69, "duration": 233, "velocity": 99}], "annotations": [{"time": 218, "annotation": {"number": 7, "value": 62}, "group": "control_change"}, {"time": 228, "annotation": {"number": 11, "value": 127}, "group": "control_change"}, {"time": 238, "annotation": {"number": 10, "value": 0}, "group": "control_change"}, {"time": 249, "annotation": {"number": 91, "value": 57}, "group": "control_change"}, {"time": 259, "annotation": {"number": 93, "value": 21}, "group": "control_change"}, {"time": 269, "annotation": {"number": 101, "value": 0}, "group": "control_change"}, {"time": 280, "annotation": {"number": 100, "value": 0}, "group": "control_change"}, {"time": 290, "annotation": {"number": 6, "value": 12}, "group": "control_change"}, {"time": 300, "annotation": {"number": 101, "value": 127}, "group": "control_change"}, {"time": 311, "annotation": {"number": 100, "value": 127}, "group": "control_change"}]}, {"program": 0, "is_drum": false, "name": "MALLET", "annotations": [{"time": 187, "annotation": {"number": 0, "value": 0}, "group": "control_change"}, {"time": 197, "annotation": {"number": 32, "value": 2}, "group": "control_change"}]}, {"program": 13, "is_drum": false, "name": "MALLET", "notes": [{"time": 31677, "pitch": 57, "duration": 121, "velocity": 100}, {"time": 31798, "pitch": 60, "duration": 121, "velocity": 100}, {"time": 31919, "pitch": 55, "duration": 121, "velocity": 100}, {"time": 32040, "pitch": 57, "duration": 122, "velocity": 100}, {"time": 32162, "pitch": 60, "duration": 119, "velocity": 100}, {"time": 32281, "pitch": 65, "duration": 119, "velocity": 100}, {"time": 32400, "pitch": 57, "duration": 120, "velocity": 100}, {"time": 32520, "pitch": 55, "duration": 119, "velocity": 100}, {"time": 32639, "pitch": 57, "duration": 120, "velocity": 100}, {"time": 32759, "pitch": 55, "duration": 119, "velocity": 100}, {"time": 32878, "pitch": 60, "duration": 119, "velocity": 100}, {"time": 32997, "pitch": 57, "duration": 120, "velocity": 100}, {"time": 33117, "pitch": 65, "duration": 121, "velocity": 100}, {"time": 33238, "pitch": 55, "duration": 121, "velocity": 100}, {"time": 33359, "pitch": 57, "duration": 121, "velocity": 100}, {"time": 33480, "pitch": 60, "duration": 122, "velocity": 100}, {"time": 33602, "pitch": 57, "duration": 119, "velocity": 100}, {"time": 33721, "pitch": 60, "duration": 119, "velocity": 100}, {"time": 33840, "pitch": 55, "duration": 120, "velocity": 100}, {"time": 33960, "pitch": 57, "duration": 119, "velocity": 100}, {"time": 34079, "pitch": 60, "duration": 120, "velocity": 100}, {"time": 34199, "pitch": 65, "duration": 119, "velocity": 100}, {"time": 34318, "pitch": 57, "duration": 119, "velocity": 100}, {"time": 34437, "pitch": 55, "duration": 120, "velocity": 100}, {"time": 34557, "pitch": 57, "duration": 121, "velocity": 100}, {"time": 34678, "pitch": 55, "duration": 121, "velocity": 100}, {"time": 34799, "pitch": 60, "duration": 121, "velocity": 100}, {"time": 34920, "pitch": 57, "duration": 121, "velocity": 100}, {"time": 35041, "pitch": 65, "duration": 120, "velocity": 100}, {"time": 35161, "pitch": 55, "duration": 119, "velocity": 100}, {"time": 35280, "pitch": 57, "duration": 120, "velocity": 100}, {"time": 35400, "pitch": 60, "duration": 119, "velocity": 100}, {"time": 35519, "pitch": 57, "duration": 119, "velocity": 100}, {"time": 35638, "pitch": 60, "duration": 120, "velocity": 100}, {"time": 35758, "pitch": 55, "duration": 119, "velocity": 100}, {"time": 35877, "pitch": 57, "duration": 120, "velocity": 100}, {"time": 35997, "pitch": 60, "duration": 121, "velocity": 100}, {"time": 36118, "pitch": 65, "duration": 121, "velocity": 100}, {"time": 36239, "pitch": 57, "duration": 121, "velocity": 100}, {"time": 36360, "pitch": 55, "duration": 121, "velocity": 100}, {"time": 36481, "pitch": 57, "duration": 120, "velocity": 100}, {"time": 36601, "pitch": 55, "duration": 119, "velocity": 100}, {"time": 36720, "pitch": 60, "duration": 120, "velocity": 100}, {"time": 36840, "pitch": 57, "duration": 119, "velocity": 100}, {"time": 36959, "pitch": 65, "duration": 119, "velocity": 100}, {"time": 37078, "pitch": 55, "duration": 120, "velocity": 100}, {"time": 37198, "pitch": 57, "duration": 119, "velocity": 100}, {"time": 37317, "pitch": 60, "duration": 120, "velocity": 100}, {"time": 37437, "pitch": 57, "duration": 121, "velocity": 100}, {"time": 37558, "pitch": 60, "duration": 121, "velocity": 100}, {"time": 37679, "pitch": 55, "duration": 121, "velocity": 100}, {"time": 37800, "pitch": 57, "duration": 121, "velocity": 100}, {"time": 37921, "pitch": 60, "duration": 120, "velocity": 100}, {"time": 38041, "pitch": 65, "duration": 119, "velocity": 100}, {"time": 38160, "pitch": 57, "duration": 120, "velocity": 100}, {"time": 38280, "pitch": 55, "duration": 119, "velocity": 100}, {"time": 38399, "pitch": 57, "duration": 119, "velocity": 100}, {"time": 38518, "pitch": 54, "duration": 120, "velocity": 100}, {"time": 38638, "pitch": 60, "duration": 119, "velocity": 100}, {"time": 38757, "pitch": 57, "duration": 120, "velocity": 100}, {"time": 38877, "pitch": 65, "duration": 121, "velocity": 100}, {"time": 38998, "pitch": 54, "duration": 121, "velocity": 100}, {"time": 39119, "pitch": 57, "duration": 121, "velocity": 100}, {"time": 39240, "pitch": 60, "duration": 121, "velocity": 100}, {"time": 39361, "pitch": 57, "duration": 120, "velocity": 100}, {"time": 39481, "pitch": 60, "duration": 119, "velocity": 100}, {"time": 39600, "pitch": 55, "duration": 120, "velocity": 100}, {"time": 39720, "pitch": 57, "duration": 119, "velocity": 100}, {"time": 39839, "pitch": 60, "duration": 119, "velocity": 100}, {"time": 39958, "pitch": 65, "duration": 120, "velocity": 100}, {"time": 40078, "pitch": 57, "duration": 119, "velocity": 100}, {"time": 40197, "pitch": 55, "duration": 120, "velocity": 100}, {"time": 40317, "pitch": 57, "duration": 121, "velocity": 100}, {"time": 40438, "pitch": 55, "duration": 121, "velocity": 100}, {"time": 40559, "pitch": 60, "duration": 121, "velocity": 100}, {"time": 40680, "pitch": 57, "duration": 121, "velocity": 100}, {"time": 40801, "pitch": 65, "duration": 120, "velocity": 100}, {"time": 40921, "pitch": 55, "duration": 119, "velocity": 100}, {"time": 41040, "pitch": 57, "duration": 120, "velocity": 100}, {"time": 41160, "pitch": 60, "duration": 119, "velocity": 100}, {"time": 41279, "pitch": 57, "duration": 119, "velocity": 100}, {"time": 41398, "pitch": 60, "duration": 120, "velocity": 100}, {"time": 41518, "pitch": 55, "duration": 119, "velocity": 100}, {"time": 41637, "pitch": 57, "duration": 120, "velocity": 100}, {"time": 41757, "pitch": 60, "duration": 121, "velocity": 100}, {"time": 41878, "pitch": 65, "duration": 121, "velocity": 100}, {"time": 41999, "pitch": 57, "duration": 121, "velocity": 100}, {"time": 42120, "pitch": 55, "duration": 121, "velocity": 100}, {"time": 42241, "pitch": 57, "duration": 120, "velocity": 100}, {"time": 42361, "pitch": 55, "duration": 119, "velocity": 100}, {"time": 42480, "pitch": 60, "duration": 119, "velocity": 100}, {"time": 42599, "pitch": 57, "duration": 120, "velocity": 100}, {"time": 42719, "pitch": 65, "duration": 119, "velocity": 100}, {"time": 42838, "pitch": 55, "duration": 120, "velocity": 100}, {"time": 42958, "pitch": 57, "duration": 119, "velocity": 100}, {"time": 43077, "pitch": 60, "duration": 119, "velocity": 100}, {"time": 77763, "pitch": 57, "duration": 119, "velocity": 100}, {"time": 77882, "pitch": 60, "duration": 120, "velocity": 100}, {"time": 78002, "pitch": 55, "duration": 119, "velocity": 100}, {"time": 78121, "pitch": 57, "duration": 119, "velocity": 100}, {"time": 78240, "pitch": 60, "duration": 120, "velocity": 100}, {"time": 78360, "pitch": 65, "duration": 119, "velocity": 100}, {"time": 78479, "pitch": 57, "duration": 120, "velocity": 100}, {"time": 78599, "pitch": 55, "duration": 119, "velocity": 100}, {"time": 78718, "pitch": 57, "duration": 121, "velocity": 100}, {"time": 78839, "pitch": 55, "duration": 121, "velocity": 100}, {"time": 78960, "pitch": 60, "duration": 122, "velocity": 100}, {"time": 79082, "pitch": 57, "duration": 121, "velocity": 100}, {"time": 79203, "pitch": 65, "duration": 119, "velocity": 100}, {"time": 79322, "pitch": 55, "duration": 120, "velocity": 100}, {"time": 79442, "pitch": 57, "duration": 119, "velocity": 100}, {"time": 79561, "pitch": 60, "duration": 119, "velocity": 100}, {"time": 79680, "pitch": 57, "duration": 120, "velocity": 100}, {"time": 79800, "pitch": 60, "duration": 119, "velocity": 100}, {"time": 79919, "pitch": 55, "duration": 120, "velocity": 100}, {"time": 80039, "pitch": 57, "duration": 119, "velocity": 100}, {"time": 80158, "pitch": 60, "duration": 121, "velocity": 100}, {"time": 80279, "pitch": 65, "duration": 121, "velocity": 100}, {"time": 80400, "pitch": 57, "duration": 122, "velocity": 100}, {"time": 80522, "pitch": 55, "duration": 121, "velocity": 100}, {"time": 80643, "pitch": 57, "duration": 119, "velocity": 100}, {"time": 80762, "pitch": 55, "duration": 120, "velocity": 100}, {"time": 80882, "pitch": 60, "duration": 119, "velocity": 100}, {"time": 81001, "pitch": 57, "duration": 119, "velocity": 100}, {"time": 81120, "pitch": 65, "duration": 120, "velocity": 100}, {"time": 81240, "pitch": 55, "duration": 119, "velocity": 100}, {"time": 81359, "pitch": 57, "duration": 120, "velocity": 100}, {"time": 81479, "pitch": 60, "duration": 119, "velocity": 100}, {"time": 81598, "pitch": 57, "duration": 121, "velocity": 100}, {"time": 81719, "pitch": 60, "duration": 121, "velocity": 100}, {"time": 81840, "pitch": 55, "duration": 122, "velocity": 100}, {"time": 81962, "pitch": 57, "duration": 121, "velocity": 100}, {"time": 82083, "pitch": 60, "duration": 119, "velocity": 100}, {"time": 82202, "pitch": 65, "duration": 119, "velocity": 100}, {"time": 82321, "pitch": 57, "duration": 120, "velocity": 100}, {"time": 82441, "pitch": 55, "duration": 119, "velocity": 100}, {"time": 82560, "pitch": 57, "duration": 120, "velocity": 100}, {"time": 82680, "pitch": 55, "duration": 119, "velocity": 100}, {"time": 82799, "pitch": 60, "duration": 119, "velocity": 100}, {"time": 82918, "pitch": 57, "duration": 120, "velocity": 100}, {"time": 83038, "pitch": 65, "duration": 121, "velocity": 100}, {"time": 83159, "pitch": 55, "duration": 121, "velocity": 100}, {"time": 83280, "pitch": 57, "duration": 121, "velocity": 100}, {"time": 83401, "pitch": 60, "duration": 122, "velocity": 100}, {"time": 83523, "pitch": 57, "duration": 119, "velocity": 100}, {"time": 83642, "pitch": 60, "duration": 119, "velocity": 100}, {"time": 83761, "pitch": 55, "duration": 120, "velocity": 100}, {"time": 83881, "pitch": 57, "duration": 119, "velocity": 100}, {"time": 84000, "pitch": 60, "duration": 120, "velocity": 100}, {"time": 84120, "pitch": 65, "duration": 119, "velocity": 100}, {"time": 84239, "pitch": 57, "duration": 119, "velocity": 100}, {"time": 84358, "pitch": 55, "duration": 120, "velocity": 100}, {"time": 84478, "pitch": 57, "duration": 121, "velocity": 100}, {"time": 84599, "pitch": 54, "duration": 121, "velocity": 100}, {"time": 84720, "pitch": 60, "duration": 121, "velocity": 100}, {"time": 84841, "pitch": 57, "duration": 122, "velocity": 100}, {"time": 84963, "pitch": 65, "duration": 119, "velocity": 100}, {"time": 85082, "pitch": 54, "duration": 119, "velocity": 100}, {"time": 85201, "pitch": 57, "duration": 120, "velocity": 100}, {"time": 85321, "pitch": 60, "duration": 119, "velocity": 100}, {"time": 85440, "pitch": 57, "duration": 120, "velocity": 100}, {"time": 85560, "pitch": 60, "duration": 119, "velocity": 100}, {"time": 85679, "pitch": 55, "duration": 119, "velocity": 100}, {"time": 85798, "pitch": 57, "duration": 120, "velocity": 100}, {"time": 85918, "pitch": 60, "duration": 121, "velocity": 100}, {"time": 86039, "pitch": 65, "duration": 121, "velocity": 100}, {"time": 86160, "pitch": 57, "duration": 121, "velocity": 100}, {"time": 86281, "pitch": 55, "duration": 122, "velocity": 100}, {"time": 86403, "pitch": 57, "duration": 119, "velocity": 100}, {"time": 86522, "pitch": 55, "duration": 119, "velocity": 100}, {"time": 86641, "pitch": 60, "duration": 120, "velocity": 100}, {"time": 86761, "pitch": 57, "duration": 119, "velocity": 100}, {"time": 86880, "pitch": 65, "duration": 120, "velocity": 100}, {"time": 87000, "pitch": 55, "duration": 119, "velocity": 100}, {"time": 87119, "pitch": 57, "duration": 119, "velocity": 100}, {"time": 87238, "pitch": 60, "duration": 120, "velocity": 100}, {"time": 87358, "pitch": 57, "duration": 121, "velocity": 100}, {"time": 87479, "pitch": 60, "duration": 121, "velocity": 100}, {"time": 87600, "pitch": 55, "duration": 121, "velocity": 100}, {"time": 87721, "pitch": 57, "duration": 122, "velocity": 100}, {"time": 87843, "pitch": 60, "duration": 119, "velocity": 100}, {"time": 87962, "pitch": 65, "duration": 119, "velocity": 100}, {"time": 88081, "pitch": 57, "duration": 120, "velocity": 100}, {"time": 88201, "pitch": 55, "duration": 119, "velocity": 100}, {"time": 88320, "pitch": 57, "duration": 120, "velocity": 100}, {"time": 88440, "pitch": 55, "duration": 119, "velocity": 100}, {"time": 88559, "pitch": 60, "duration": 119, "velocity": 100}, {"time": 88678, "pitch": 57, "duration": 120, "velocity": 100}, {"time": 88798, "pitch": 65, "duration": 121, "velocity": 100}, {"time": 88919, "pitch": 55, "duration": 121, "velocity": 100}, {"time": 89040, "pitch": 57, "duration": 121, "velocity": 100}, {"time": 89161, "pitch": 60, "duration": 122, "velocity": 100}, {"time": 108480, "pitch": 57, "duration": 119, "velocity": 100}, {"time": 108599, "pitch": 60, "duration": 119, "velocity": 100}, {"time": 108718, "pitch": 55, "duration": 120, "velocity": 100}, {"time": 108838, "pitch": 57, "duration": 119, "velocity": 100}, {"time": 108957, "pitch": 60, "duration": 121, "velocity": 100}, {"time": 109078, "pitch": 65, "duration": 122, "velocity": 100}, {"time": 109200, "pitch": 57, "duration": 121, "velocity": 100}, {"time": 109321, "pitch": 55, "duration": 121, "velocity": 100}, {"time": 109442, "pitch": 57, "duration": 119, "velocity": 100}, {"time": 109561, "pitch": 55, "duration": 120, "velocity": 100}, {"time": 109681, "pitch": 60, "duration": 119, "velocity": 100}, {"time": 109800, "pitch": 57, "duration": 120, "velocity": 100}, {"time": 109920, "pitch": 65, "duration": 119, "velocity": 100}, {"time": 110039, "pitch": 55, "duration": 119, "velocity": 100}, {"time": 110158, "pitch": 57, "duration": 120, "velocity": 100}, {"time": 110278, "pitch": 60, "duration": 119, "velocity": 100}, {"time": 110397, "pitch": 57, "duration": 121, "velocity": 100}, {"time": 110518, "pitch": 60, "duration": 122, "velocity": 100}, {"time": 110640, "pitch": 55, "duration": 121, "velocity": 100}, {"time": 110761, "pitch": 57, "duration": 121, "velocity": 100}, {"time": 110882, "pitch": 60, "duration": 119, "velocity": 100}, {"time": 111001, "pitch": 65, "duration": 120, "velocity": 100}, {"time": 111121, "pitch": 57, "duration": 119, "velocity": 100}, {"time": 111240, "pitch": 55, "duration": 120, "velocity": 100}, {"time": 111360, "pitch": 57, "duration": 119, "velocity": 100}, {"time": 111479, "pitch": 55, "duration": 119, "velocity": 100}, {"time": 111598, "pitch": 60, "duration": 120, "velocity": 100}, {"time": 111718, "pitch": 57, "duration": 119, "velocity": 100}, {"time": 111837, "pitch": 65, "duration": 121, "velocity": 100}, {"time": 111958, "pitch": 55, "duration": 122, "velocity": 100}, {"time": 112080, "pitch": 57, "duration": 121, "velocity": 100}, {"time": 112201, "pitch": 60, "duration": 121, "velocity": 100}, {"time": 112322, "pitch": 57, "duration": 119, "velocity": 100}, {"time": 112441, "pitch": 60, "duration": 120, "velocity": 100}, {"time": 112561, "pitch": 55, "duration": 119, "velocity": 100}, {"time": 112680, "pitch": 57, "duration": 120, "velocity": 100}, {"time": 112800, "pitch": 60, "duration": 119, "velocity": 100}, {"time": 112919, "pitch": 65, "duration": 119, "velocity": 100}, {"time": 113038, "pitch": 57, "duration": 120, "velocity": 100}, {"time": 113158, "pitch": 55, "duration": 119, "velocity": 100}, {"time": 113277, "pitch": 57, "duration": 121, "velocity": 100}, {"time": 113398, "pitch": 55, "duration": 122, "velocity": 100}, {"time": 113520, "pitch": 60, "duration": 121, "velocity": 100}, {"time": 113641, "pitch": 57, "duration": 121, "velocity": 100}, {"time": 113762, "pitch": 65, "duration": 119, "velocity": 100}, {"time": 113881, "pitch": 55, "duration": 120, "velocity": 100}, {"time": 114001, "pitch": 57, "duration": 119, "velocity": 100}, {"time": 114120, "pitch": 60, "duration": 119, "velocity": 100}, {"time": 114239, "pitch": 57, "duration": 120, "velocity": 100}, {"time": 114359, "pitch": 60, "duration": 119, "velocity": 100}, {"time": 114478, "pitch": 55, "duration": 120, "velocity": 100}, {"time": 114598, "pitch": 57, "duration": 119, "velocity": 100}, {"time": 114717, "pitch": 60, "duration": 121, "velocity": 100}, {"time": 114838, "pitch": 65, "duration": 121, "velocity": 100}, {"time": 114959, "pitch": 57, "duration": 122, "velocity": 100}, {"time": 115081, "pitch": 55, "duration": 121, "velocity": 100}, {"time": 115202, "pitch": 57, "duration": 119, "velocity": 100}, {"time": 115321, "pitch": 54, "duration": 120, "velocity": 100}, {"time": 115441, "pitch": 60, "duration": 119, "velocity": 100}, {"time": 115560, "pitch": 57, "duration": 119, "velocity": 100}, {"time": 115679, "pitch": 65, "duration": 120, "velocity": 100}, {"time": 115799, "pitch": 54, "duration": 119, "velocity": 100}, {"time": 115918, "pitch": 57, "duration": 120, "velocity": 100}, {"time": 116038, "pitch": 60, "duration": 119, "velocity": 100}, {"time": 116157, "pitch": 57, "duration": 121, "velocity": 100}, {"time": 116278, "pitch": 60, "duration": 121, "velocity": 100}, {"time": 116399, "pitch": 55, "duration": 122, "velocity": 100}, {"time": 116521, "pitch": 57, "duration": 121, "velocity": 100}, {"time": 116642, "pitch": 60, "duration": 119, "velocity": 100}, {"time": 116761, "pitch": 65, "duration": 120, "velocity": 100}, {"time": 116881, "pitch": 57, "duration": 119, "velocity": 100}, {"time": 117000, "pitch": 55, "duration": 119, "velocity": 100}, {"time": 117119, "pitch": 57, "duration": 120, "velocity": 100}, {"time": 117239, "pitch": 55, "duration": 119, "velocity": 100}, {"time": 117358, "pitch": 60, "duration": 120, "velocity": 100}, {"time": 117478, "pitch": 57, "duration": 119, "velocity": 100}, {"time": 117597, "pitch": 65, "duration": 121, "velocity": 100}, {"time": 117718, "pitch": 55, "duration": 121, "velocity": 100}, {"time": 117839, "pitch": 57, "duration": 122, "velocity": 100}, {"time": 117961, "pitch": 60, "duration": 121, "velocity": 100}, {"time": 118082, "pitch": 57, "duration": 119, "velocity": 100}, {"time": 118201, "pitch": 60, "duration": 120, "velocity": 100}, {"time": 118321, "pitch": 55, "duration": 119, "velocity": 100}, {"time": 118440, "pitch": 57, "duration": 119, "velocity": 100}, {"time": 118559, "pitch": 60, "duration": 120, "velocity": 100}, {"time": 118679, "pitch": 65, "duration": 119, "velocity": 100}, {"time": 118798, "pitch": 57, "duration": 120, "velocity": 100}, {"time": 118918, "pitch": 55, "duration": 119, "velocity": 100}, {"time": 119037, "pitch": 57, "duration": 121, "velocity": 100}, {"time": 119158, "pitch": 55, "duration": 121, "velocity": 100}, {"time": 119279, "pitch": 60, "duration": 122, "velocity": 100}, {"time": 119401, "pitch": 57, "duration": 121, "velocity": 100}, {"time": 119522, "pitch": 65, "duration": 119, "velocity": 100}, {"time": 119641, "pitch": 55, "duration": 120, "velocity": 100}, {"time": 119761, "pitch": 57, "duration": 119, "velocity": 100}, {"time": 119880, "pitch": 60, "duration": 119, "velocity": 100}], "annotations": [{"time": 218, "annotation": {"number": 7, "value": 52}, "group": "control_change"}, {"time": 228, "annotation": {"number": 11, "value": 120}, "group": "control_change"}, {"time": 238, "annotation": {"number": 10, "value": 64}, "group": "control_change"}, {"time": 249, "annotation": {"number": 91, "value": 41}, "group": "control_change"}, {"time": 259, "annotation": {"number": 93, "value": 14}, "group": "control_change"}, {"time": 269, "annotation": {"number": 101, "value": 0}, "group": "control_change"}, {"time": 280, "annotation": {"number": 100, "value": 0}, "group": "control_change"}, {"time": 290, "annotation": {"number": 6, "value": 12}, "group": "control_change"}, {"time": 300, "annotation": {"number": 101, "value": 127}, "group": "control_change"}, {"time": 311, "annotation": {"number": 100, "value": 127}, "group": "control_change"}]}, {"program": 0, "is_drum": false, "name": "GLOCKEN", "annotations": [{"time": 187, "annotation": {"number": 0, "value": 0}, "group": "control_change"}, {"time": 197, "annotation": {"number": 32, "value": 2}, "group": "control_change"}]}, {"program": 9, "is_drum": false, "name": "GLOCKEN", "notes": [{"time": 32878, "pitch": 96, "duration": 80, "velocity": 75}, {"time": 33117, "pitch": 98, "duration": 80, "velocity": 77}, {"time": 33359, "pitch": 96, "duration": 81, "velocity": 61}, {"time": 33602, "pitch": 101, "duration": 59, "velocity": 77}, {"time": 33960, "pitch": 98, "duration": 59, "velocity": 77}, {"time": 34318, "pitch": 96, "duration": 80, "velocity": 71}, {"time": 40559, "pitch": 96, "duration": 81, "velocity": 75}, {"time": 40801, "pitch": 98, "duration": 80, "velocity": 77}, {"time": 41040, "pitch": 96, "duration": 80, "velocity": 61}, {"time": 41279, "pitch": 101, "duration": 60, "velocity": 77}, {"time": 41637, "pitch": 98, "duration": 60, "velocity": 77}, {"time": 41999, "pitch": 96, "duration": 81, "velocity": 71}, {"time": 78960, "pitch": 96, "duration": 81, "velocity": 75}, {"time": 79203, "pitch": 98, "duration": 79, "velocity": 77}, {"time": 79442, "pitch": 96, "duration": 79, "velocity": 61}, {"time": 79680, "pitch": 101, "duration": 60, "velocity": 77}, {"time": 80039, "pitch": 98, "duration": 59, "velocity": 77}, {"time": 80400, "pitch": 96, "duration": 81, "velocity": 71}, {"time": 86641, "pitch": 96, "duration": 80, "velocity": 75}, {"time": 86880, "pitch": 98, "duration": 80, "velocity": 77}, {"time": 87119, "pitch": 96, "duration": 80, "velocity": 61}, {"time": 87358, "pitch": 101, "duration": 60, "velocity": 77}, {"time": 87721, "pitch": 98, "duration": 61, "velocity": 77}, {"time": 88081, "pitch": 96, "duration": 80, "velocity": 71}, {"time": 109681, "pitch": 96, "duration": 79, "velocity": 75}, {"time": 109920, "pitch": 98, "duration": 79, "velocity": 77}, {"time": 110158, "pitch": 96, "duration": 80, "velocity": 61}, {"time": 110397, "pitch": 101, "duration": 61, "velocity": 77}, {"time": 110761, "pitch": 98, "duration": 60, "velocity": 77}, {"time": 111121, "pitch": 96, "duration": 79, "velocity": 71}, {"time": 117358, "pitch": 96, "duration": 80, "velocity": 75}, {"time": 117597, "pitch": 98, "duration": 81, "velocity": 77}, {"time": 117839, "pitch": 96, "duration": 81, "velocity": 61}, {"time": 118082, "pitch": 101, "duration": 59, "velocity": 77}, {"time": 118440, "pitch": 98, "duration": 60, "velocity": 77}, {"time": 118798, "pitch": 96, "duration": 80, "velocity": 71}], "annotations": [{"time": 218, "annotation": {"number": 7, "value": 90}, "group": "control_change"}, {"time": 228, "annotation": {"number": 11, "value": 127}, "group": "control_change"}, {"time": 238, "annotation": {"number": 10, "value": 111}, "group": "control_change"}, {"time": 249, "annotation": {"number": 91, "value": 50}, "group": "control_change"}, {"time": 259, "annotation": {"number": 93, "value": 0}, "group": "control_change"}, {"time": 269, "annotation": {"number": 101, "value": 0}, "group": "control_change"}, {"time": 280, "annotation": {"number": 100, "value": 0}, "group": "control_change"}, {"time": 290, "annotation": {"number": 6, "value": 12}, "group": "control_change"}, {"time": 321, "annotation": {"number": 101, "value": 127}, "group": "control_change"}, {"time": 332, "annotation": {"number": 100, "value": 127}, "group": "control_change"}]}, {"program": 0, "is_drum": true, "name": "DRUMS", "notes": [{"time": 363, "pitch": 35, "duration": 5, "velocity": 83}, {"time": 363, "pitch": 38, "duration": 5, "velocity": 61}, {"time": 363, "pitch": 42, "duration": 5, "velocity": 63}, {"time": 422, "pitch": 35, "duration": 5, "velocity": 78}, {"time": 482, "pitch": 40, "duration": 10, "velocity": 42}, {"time": 482, "pitch": 46, "duration": 10, "velocity": 73}, {"time": 602, "pitch": 28, "duration": 10, "velocity": 66}, {"time": 721, "pitch": 35, "duration": 10, "velocity": 71}, {"time": 721, "pitch": 38, "duration": 10, "velocity": 46}, {"time": 761, "pitch": 38, "duration": 10, "velocity": 38}, {"time": 801, "pitch": 38, "duration": 10, "velocity": 21}, {"time": 841, "pitch": 40, "duration": 9, "velocity": 63}, {"time": 960, "pitch": 35, "duration": 10, "velocity": 108}, {"time": 960, "pitch": 42, "duration": 10, "velocity": 103}, {"time": 960, "pitch": 49, "duration": 10, "velocity": 48}, {"time": 1079, "pitch": 42, "duration": 10, "velocity": 45}, {"time": 1199, "pitch": 42, "duration": 10, "velocity": 45}, {"time": 1318, "pitch": 35, "duration": 10, "velocity": 105}, {"time": 1438, "pitch": 28, "duration": 10, "velocity": 100}, {"time": 1438, "pitch": 42, "duration": 10, "velocity": 98}, {"time": 1680, "pitch": 35, "duration": 10, "velocity": 108}, {"time": 1680, "pitch": 42, "duration": 10, "velocity": 61}, {"time": 1801, "pitch": 38, "duration": 10, "velocity": 51}, {"time": 1922, "pitch": 42, "duration": 10, "velocity": 95}, {"time": 2161, "pitch": 35, "duration": 10, "velocity": 97}, {"time": 2161, "pitch": 42, "duration": 10, "velocity": 50}, {"time": 2280, "pitch": 42, "duration": 10, "velocity": 45}, {"time": 2400, "pitch": 28, "duration": 10, "velocity": 92}, {"time": 2400, "pitch": 46, "duration": 10, "velocity": 53}, {"time": 2639, "pitch": 42, "duration": 10, "velocity": 71}, {"time": 2758, "pitch": 42, "duration": 10, "velocity": 37}, {"time": 2877, "pitch": 35, "duration": 11, "velocity": 108}, {"time": 2877, "pitch": 42, "duration": 11, "velocity": 97}, {"time": 3120, "pitch": 42, "duration": 10, "velocity": 69}, {"time": 3241, "pitch": 35, "duration": 10, "velocity": 97}, {"time": 3362, "pitch": 28, "duration": 10, "velocity": 101}, {"time": 3362, "pitch": 42, "duration": 10, "velocity": 107}, {"time": 3601, "pitch": 35, "duration": 10, "velocity": 93}, {"time": 3601, "pitch": 42, "duration": 10, "velocity": 58}, {"time": 3601, "pitch": 80, "duration": 10, "velocity": 71}, {"time": 3720, "pitch": 80, "duration": 10, "velocity": 77}, {"time": 3840, "pitch": 35, "duration": 10, "velocity": 96}, {"time": 3840, "pitch": 42, "duration": 10, "velocity": 71}, {"time": 3840, "pitch": 81, "duration": 10, "velocity": 89}, {"time": 3959, "pitch": 42, "duration": 10, "velocity": 45}, {"time": 4079, "pitch": 42, "duration": 10, "velocity": 66}, {"time": 4079, "pitch": 80, "duration": 10, "velocity": 75}, {"time": 4198, "pitch": 38, "duration": 10, "velocity": 61}, {"time": 4198, "pitch": 80, "duration": 10, "velocity": 75}, {"time": 4317, "pitch": 39, "duration": 11, "velocity": 105}, {"time": 4317, "pitch": 46, "duration": 11, "velocity": 53}, {"time": 4439, "pitch": 28, "duration": 10, "velocity": 66}, {"time": 4560, "pitch": 35, "duration": 10, "velocity": 96}, {"time": 4560, "pitch": 46, "duration": 10, "velocity": 77}, {"time": 4802, "pitch": 35, "duration": 10, "velocity": 108}, {"time": 4802, "pitch": 42, "duration": 10, "velocity": 103}, {"time": 4922, "pitch": 42, "duration": 10, "velocity": 45}, {"time": 5041, "pitch": 42, "duration": 10, "velocity": 45}, {"time": 5160, "pitch": 35, "duration": 10, "velocity": 105}, {"time": 5280, "pitch": 28, "duration": 10, "velocity": 100}, {"time": 5280, "pitch": 42, "duration": 10, "velocity": 98}, {"time": 5519, "pitch": 35, "duration": 10, "velocity": 108}, {"time": 5519, "pitch": 42, "duration": 10, "velocity": 61}, {"time": 5638, "pitch": 38, "duration": 10, "velocity": 51}, {"time": 5757, "pitch": 42, "duration": 10, "velocity": 95}, {"time": 6000, "pitch": 35, "duration": 10, "velocity": 97}, {"time": 6000, "pitch": 42, "duration": 10, "velocity": 50}, {"time": 6121, "pitch": 42, "duration": 10, "velocity": 45}, {"time": 6242, "pitch": 28, "duration": 10, "velocity": 92}, {"time": 6242, "pitch": 46, "duration": 10, "velocity": 53}, {"time": 6481, "pitch": 42, "duration": 10, "velocity": 71}, {"time": 6600, "pitch": 42, "duration": 10, "velocity": 37}, {"time": 6720, "pitch": 35, "duration": 10, "velocity": 108}, {"time": 6720, "pitch": 42, "duration": 10, "velocity": 97}, {"time": 6959, "pitch": 42, "duration": 10, "velocity": 69}, {"time": 7078, "pitch": 35, "duration": 10, "velocity": 97}, {"time": 7197, "pitch": 28, "duration": 10, "velocity": 101}, {"time": 7197, "pitch": 42, "duration": 10, "velocity": 107}, {"time": 7440, "pitch": 35, "duration": 10, "velocity": 93}, {"time": 7440, "pitch": 42, "duration": 10, "velocity": 58}, {"time": 7440, "pitch": 80, "duration": 10, "velocity": 71}, {"time": 7561, "pitch": 80, "duration": 10, "velocity": 77}, {"time": 7682, "pitch": 35, "duration": 10, "velocity": 96}, {"time": 7682, "pitch": 42, "duration": 10, "velocity": 71}, {"time": 7682, "pitch": 81, "duration": 10, "velocity": 89}, {"time": 7802, "pitch": 35, "duration": 9, "velocity": 33}, {"time": 7802, "pitch": 42, "duration": 9, "velocity": 45}, {"time": 7921, "pitch": 42, "duration": 10, "velocity": 66}, {"time": 7921, "pitch": 62, "duration": 10, "velocity": 67}, {"time": 7921, "pitch": 80, "duration": 10, "velocity": 75}, {"time": 8040, "pitch": 35, "duration": 10, "velocity": 78}, {"time": 8040, "pitch": 38, "duration": 10, "velocity": 61}, {"time": 8040, "pitch": 62, "duration": 10, "velocity": 29}, {"time": 8040, "pitch": 80, "duration": 10, "velocity": 75}, {"time": 8160, "pitch": 39, "duration": 10, "velocity": 105}, {"time": 8160, "pitch": 40, "duration": 10, "velocity": 62}, {"time": 8160, "pitch": 46, "duration": 10, "velocity": 53}, {"time": 8160, "pitch": 63, "duration": 10, "velocity": 61}, {"time": 8279, "pitch": 28, "duration": 10, "velocity": 66}, {"time": 8279, "pitch": 63, "duration": 10, "velocity": 50}, {"time": 8399, "pitch": 35, "duration": 9, "velocity": 96}, {"time": 8399, "pitch": 46, "duration": 9, "velocity": 77}, {"time": 8399, "pitch": 64, "duration": 9, "velocity": 64}, {"time": 8518, "pitch": 40, "duration": 10, "velocity": 55}, {"time": 8637, "pitch": 35, "duration": 10, "velocity": 108}, {"time": 8637, "pitch": 42, "duration": 10, "velocity": 103}, {"time": 8637, "pitch": 57, "duration": 10, "velocity": 42}, {"time": 8759, "pitch": 42, "duration": 10, "velocity": 45}, {"time": 8880, "pitch": 42, "duration": 10, "velocity": 45}, {"time": 9001, "pitch": 35, "duration": 10, "velocity": 105}, {"time": 9122, "pitch": 28, "duration": 10, "velocity": 100}, {"time": 9122, "pitch": 42, "duration": 10, "velocity": 98}, {"time": 9361, "pitch": 35, "duration": 10, "velocity": 108}, {"time": 9361, "pitch": 42, "duration": 10, "velocity": 61}, {"time": 9480, "pitch": 38, "duration": 10, "velocity": 51}, {"time": 9600, "pitch": 42, "duration": 10, "velocity": 95}, {"time": 9839, "pitch": 35, "duration": 9, "velocity": 97}, {"time": 9839, "pitch": 42, "duration": 9, "velocity": 50}, {"time": 9958, "pitch": 42, "duration": 10, "velocity": 45}, {"time": 10077, "pitch": 28, "duration": 10, "velocity": 92}, {"time": 10077, "pitch": 46, "duration": 10, "velocity": 53}, {"time": 10320, "pitch": 42, "duration": 10, "velocity": 71}, {"time": 10441, "pitch": 42, "duration": 10, "velocity": 37}, {"time": 10562, "pitch": 35, "duration": 10, "velocity": 108}, {"time": 10562, "pitch": 42, "duration": 10, "velocity": 97}, {"time": 10801, "pitch": 42, "duration": 10, "velocity": 69}, {"time": 10920, "pitch": 35, "duration": 10, "velocity": 97}, {"time": 11040, "pitch": 28, "duration": 10, "velocity": 101}, {"time": 11040, "pitch": 42, "duration": 10, "velocity": 107}, {"time": 11278, "pitch": 35, "duration": 10, "velocity": 93}, {"time": 11278, "pitch": 42, "duration": 10, "velocity": 58}, {"time": 11278, "pitch": 80, "duration": 10, "velocity": 71}, {"time": 11398, "pitch": 80, "duration": 10, "velocity": 77}, {"time": 11517, "pitch": 35, "duration": 10, "velocity": 96}, {"time": 11517, "pitch": 42, "duration": 10, "velocity": 71}, {"time": 11517, "pitch": 81, "duration": 10, "velocity": 89}, {"time": 11638, "pitch": 42, "duration": 11, "velocity": 45}, {"time": 11760, "pitch": 42, "duration": 10, "velocity": 66}, {"time": 11760, "pitch": 80, "duration": 10, "velocity": 75}, {"time": 11881, "pitch": 38, "duration": 10, "velocity": 61}, {"time": 11881, "pitch": 80, "duration": 10, "velocity": 75}, {"time": 12002, "pitch": 39, "duration": 10, "velocity": 105}, {"time": 12002, "pitch": 46, "duration": 10, "velocity": 53}, {"time": 12121, "pitch": 28, "duration": 10, "velocity": 66}, {"time": 12241, "pitch": 35, "duration": 10, "velocity": 96}, {"time": 12241, "pitch": 46, "duration": 10, "velocity": 77}, {"time": 12480, "pitch": 35, "duration": 10, "velocity": 108}, {"time": 12480, "pitch": 42, "duration": 10, "velocity": 103}, {"time": 12599, "pitch": 42, "duration": 10, "velocity": 45}, {"time": 12718, "pitch": 42, "duration": 10, "velocity": 45}, {"time": 12838, "pitch": 35, "duration": 10, "velocity": 105}, {"time": 12957, "pitch": 28, "duration": 10, "velocity": 100}, {"time": 12957, "pitch": 42, "duration": 10, "velocity": 98}, {"time": 13200, "pitch": 35, "duration": 10, "velocity": 108}, {"time": 13200, "pitch": 42, "duration": 10, "velocity": 61}, {"time": 13321, "pitch": 38, "duration": 10, "velocity": 51}, {"time": 13442, "pitch": 42, "duration": 10, "velocity": 95}, {"time": 13681, "pitch": 35, "duration": 10, "velocity": 97}, {"time": 13681, "pitch": 42, "duration": 10, "velocity": 50}, {"time": 13800, "pitch": 42, "duration": 10, "velocity": 45}, {"time": 13920, "pitch": 28, "duration": 10, "velocity": 92}, {"time": 13920, "pitch": 46, "duration": 10, "velocity": 53}, {"time": 14158, "pitch": 42, "duration": 10, "velocity": 71}, {"time": 14278, "pitch": 42, "duration": 10, "velocity": 37}, {"time": 14397, "pitch": 35, "duration": 10, "velocity": 108}, {"time": 14397, "pitch": 42, "duration": 10, "velocity": 97}, {"time": 14640, "pitch": 42, "duration": 10, "velocity": 69}, {"time": 14761, "pitch": 35, "duration": 10, "velocity": 97}, {"time": 14882, "pitch": 28, "duration": 10, "velocity": 101}, {"time": 14882, "pitch": 42, "duration": 10, "velocity": 107}, {"time": 15121, "pitch": 35, "duration": 10, "velocity": 93}, {"time": 15121, "pitch": 42, "duration": 10, "velocity": 58}, {"time": 15121, "pitch": 80, "duration": 10, "velocity": 71}, {"time": 15240, "pitch": 80, "duration": 10, "velocity": 77}, {"time": 15360, "pitch": 35, "duration": 10, "velocity": 96}, {"time": 15360, "pitch": 42, "duration": 10, "velocity": 71}, {"time": 15360, "pitch": 81, "duration": 10, "velocity": 89}, {"time": 15479, "pitch": 42, "duration": 10, "velocity": 45}, {"time": 15598, "pitch": 42, "duration": 10, "velocity": 66}, {"time": 15598, "pitch": 62, "duration": 10, "velocity": 67}, {"time": 15598, "pitch": 80, "duration": 10, "velocity": 75}, {"time": 15718, "pitch": 38, "duration": 10, "velocity": 61}, {"time": 15718, "pitch": 62, "duration": 10, "velocity": 29}, {"time": 15718, "pitch": 80, "duration": 10, "velocity": 75}, {"time": 15837, "pitch": 35, "duration": 10, "velocity": 78}, {"time": 15837, "pitch": 39, "duration": 10, "velocity": 105}, {"time": 15837, "pitch": 46, "duration": 10, "velocity": 53}, {"time": 15837, "pitch": 49, "duration": 10, "velocity": 35}, {"time": 15837, "pitch": 63, "duration": 10, "velocity": 61}, {"time": 15958, "pitch": 28, "duration": 10, "velocity": 66}, {"time": 15958, "pitch": 63, "duration": 10, "velocity": 50}, {"time": 16080, "pitch": 35, "duration": 10, "velocity": 96}, {"time": 16080, "pitch": 46, "duration": 10, "velocity": 77}, {"time": 16080, "pitch": 64, "duration": 10, "velocity": 64}, {"time": 16322, "pitch": 35, "duration": 10, "velocity": 108}, {"time": 16322, "pitch": 42, "duration": 10, "velocity": 103}, {"time": 16322, "pitch": 55, "duration": 10, "velocity": 50}, {"time": 16441, "pitch": 42, "duration": 10, "velocity": 45}, {"time": 16561, "pitch": 42, "duration": 10, "velocity": 45}, {"time": 16680, "pitch": 35, "duration": 10, "velocity": 105}, {"time": 16800, "pitch": 28, "duration": 9, "velocity": 100}, {"time": 16800, "pitch": 42, "duration": 9, "velocity": 98}, {"time": 17038, "pitch": 35, "duration": 10, "velocity": 108}, {"time": 17038, "pitch": 42, "duration": 10, "velocity": 61}, {"time": 17158, "pitch": 38, "duration": 10, "velocity": 51}, {"time": 17277, "pitch": 42, "duration": 10, "velocity": 95}, {"time": 17520, "pitch": 35, "duration": 10, "velocity": 97}, {"time": 17520, "pitch": 42, "duration": 10, "velocity": 50}, {"time": 17641, "pitch": 42, "duration": 10, "velocity": 45}, {"time": 17762, "pitch": 28, "duration": 10, "velocity": 92}, {"time": 17762, "pitch": 42, "duration": 10, "velocity": 109}, {"time": 17881, "pitch": 42, "duration": 10, "velocity": 45}, {"time": 18001, "pitch": 42, "duration": 10, "velocity": 71}, {"time": 18120, "pitch": 42, "duration": 10, "velocity": 37}, {"time": 18239, "pitch": 35, "duration": 10, "velocity": 108}, {"time": 18239, "pitch": 42, "duration": 10, "velocity": 97}, {"time": 18478, "pitch": 42, "duration": 10, "velocity": 69}, {"time": 18598, "pitch": 35, "duration": 10, "velocity": 97}, {"time": 18717, "pitch": 28, "duration": 10, "velocity": 101}, {"time": 18717, "pitch": 42, "duration": 10, "velocity": 107}, {"time": 18959, "pitch": 35, "duration": 11, "velocity": 93}, {"time": 18959, "pitch": 42, "duration": 11, "velocity": 58}, {"time": 19202, "pitch": 35, "duration": 10, "velocity": 96}, {"time": 19202, "pitch": 42, "duration": 10, "velocity": 71}, {"time": 19321, "pitch": 42, "duration": 10, "velocity": 45}, {"time": 19441, "pitch": 42, "duration": 10, "velocity": 66}, {"time": 19560, "pitch": 38, "duration": 10, "velocity": 61}, {"time": 19679, "pitch": 39, "duration": 10, "velocity": 105}, {"time": 19679, "pitch": 42, "duration": 10, "velocity": 98}, {"time": 19799, "pitch": 28, "duration": 10, "velocity": 66}, {"time": 19918, "pitch": 35, "duration": 10, "velocity": 96}, {"time": 19918, "pitch": 46, "duration": 10, "velocity": 77}, {"time": 20157, "pitch": 35, "duration": 10, "velocity": 108}, {"time": 20157, "pitch": 42, "duration": 10, "velocity": 103}, {"time": 20278, "pitch": 42, "duration": 10, "velocity": 45}, {"time": 20399, "pitch": 42, "duration": 11, "velocity": 45}, {"time": 20521, "pitch": 35, "duration": 10, "velocity": 105}, {"time": 20642, "pitch": 28, "duration": 10, "velocity": 100}, {"time": 20642, "pitch": 42, "duration": 10, "velocity": 98}, {"time": 20881, "pitch": 35, "duration": 10, "velocity": 108}, {"time": 20881, "pitch": 42, "duration": 10, "velocity": 61}, {"time": 21000, "pitch": 38, "duration": 10, "velocity": 51}, {"time": 21119, "pitch": 42, "duration": 10, "velocity": 95}, {"time": 21358, "pitch": 35, "duration": 10, "velocity": 97}, {"time": 21358, "pitch": 42, "duration": 10, "velocity": 50}, {"time": 21478, "pitch": 42, "duration": 10, "velocity": 45}, {"time": 21597, "pitch": 28, "duration": 10, "velocity": 92}, {"time": 21597, "pitch": 42, "duration": 10, "velocity": 109}, {"time": 21718, "pitch": 42, "duration": 10, "velocity": 45}, {"time": 21839, "pitch": 42, "duration": 11, "velocity": 71}, {"time": 21961, "pitch": 42, "duration": 10, "velocity": 37}, {"time": 22082, "pitch": 35, "duration": 10, "velocity": 108}, {"time": 22082, "pitch": 42, "duration": 10, "velocity": 97}, {"time": 22321, "pitch": 42, "duration": 10, "velocity": 69}, {"time": 22440, "pitch": 35, "duration": 10, "velocity": 97}, {"time": 22559, "pitch": 28, "duration": 10, "velocity": 101}, {"time": 22559, "pitch": 42, "duration": 10, "velocity": 107}, {"time": 22798, "pitch": 35, "duration": 10, "velocity": 93}, {"time": 22798, "pitch": 42, "duration": 10, "velocity": 58}, {"time": 23037, "pitch": 35, "duration": 10, "velocity": 96}, {"time": 23037, "pitch": 42, "duration": 10, "velocity": 71}, {"time": 23158, "pitch": 42, "duration": 10, "velocity": 45}, {"time": 23279, "pitch": 42, "duration": 10, "velocity": 66}, {"time": 23401, "pitch": 38, "duration": 10, "velocity": 61}, {"time": 23522, "pitch": 39, "duration": 10, "velocity": 105}, {"time": 23522, "pitch": 42, "duration": 10, "velocity": 98}, {"time": 23641, "pitch": 28, "duration": 10, "velocity": 66}, {"time": 23761, "pitch": 35, "duration": 10, "velocity": 96}, {"time": 23761, "pitch": 46, "duration": 10, "velocity": 77}, {"time": 23999, "pitch": 35, "duration": 10, "velocity": 108}, {"time": 23999, "pitch": 42, "duration": 10, "velocity": 103}, {"time": 24119, "pitch": 42, "duration": 10, "velocity": 45}, {"time": 24238, "pitch": 42, "duration": 10, "velocity": 45}, {"time": 24358, "pitch": 35, "duration": 10, "velocity": 105}, {"time": 24477, "pitch": 28, "duration": 10, "velocity": 100}, {"time": 24477, "pitch": 42, "duration": 10, "velocity": 98}, {"time": 24719, "pitch": 35, "duration": 10, "velocity": 108}, {"time": 24719, "pitch": 42, "duration": 10, "velocity": 61}, {"time": 24841, "pitch": 38, "duration": 10, "velocity": 51}, {"time": 24962, "pitch": 42, "duration": 10, "velocity": 95}, {"time": 25201, "pitch": 35, "duration": 9, "velocity": 97}, {"time": 25201, "pitch": 42, "duration": 9, "velocity": 50}, {"time": 25320, "pitch": 42, "duration": 10, "velocity": 45}, {"time": 25439, "pitch": 28, "duration": 10, "velocity": 92}, {"time": 25439, "pitch": 42, "duration": 10, "velocity": 109}, {"time": 25559, "pitch": 42, "duration": 10, "velocity": 45}, {"time": 25678, "pitch": 42, "duration": 10, "velocity": 71}, {"time": 25798, "pitch": 42, "duration": 9, "velocity": 37}, {"time": 25917, "pitch": 35, "duration": 10, "velocity": 108}, {"time": 25917, "pitch": 42, "duration": 10, "velocity": 97}, {"time": 26159, "pitch": 42, "duration": 10, "velocity": 69}, {"time": 26281, "pitch": 35, "duration": 10, "velocity": 97}, {"time": 26402, "pitch": 28, "duration": 10, "velocity": 101}, {"time": 26402, "pitch": 42, "duration": 10, "velocity": 107}, {"time": 26640, "pitch": 35, "duration": 10, "velocity": 93}, {"time": 26640, "pitch": 42, "duration": 10, "velocity": 58}, {"time": 26879, "pitch": 35, "duration": 10, "velocity": 96}, {"time": 26879, "pitch": 42, "duration": 10, "velocity": 71}, {"time": 26999, "pitch": 42, "duration": 10, "velocity": 45}, {"time": 27118, "pitch": 42, "duration": 10, "velocity": 66}, {"time": 27237, "pitch": 38, "duration": 10, "velocity": 61}, {"time": 27357, "pitch": 39, "duration": 10, "velocity": 105}, {"time": 27357, "pitch": 42, "duration": 10, "velocity": 98}, {"time": 27478, "pitch": 28, "duration": 10, "velocity": 66}, {"time": 27599, "pitch": 35, "duration": 10, "velocity": 96}, {"time": 27599, "pitch": 46, "duration": 10, "velocity": 77}, {"time": 27842, "pitch": 35, "duration": 10, "velocity": 108}, {"time": 27842, "pitch": 42, "duration": 10, "velocity": 103}, {"time": 27961, "pitch": 42, "duration": 10, "velocity": 45}, {"time": 28080, "pitch": 42, "duration": 10, "velocity": 45}, {"time": 28200, "pitch": 35, "duration": 10, "velocity": 105}, {"time": 28319, "pitch": 28, "duration": 10, "velocity": 100}, {"time": 28319, "pitch": 42, "duration": 10, "velocity": 98}, {"time": 28558, "pitch": 35, "duration": 10, "velocity": 108}, {"time": 28558, "pitch": 42, "duration": 10, "velocity": 61}, {"time": 28677, "pitch": 38, "duration": 10, "velocity": 51}, {"time": 28797, "pitch": 42, "duration": 10, "velocity": 95}, {"time": 29039, "pitch": 35, "duration": 10, "velocity": 97}, {"time": 29039, "pitch": 42, "duration": 10, "velocity": 50}, {"time": 29160, "pitch": 42, "duration": 11, "velocity": 45}, {"time": 29282, "pitch": 28, "duration": 10, "velocity": 92}, {"time": 29282, "pitch": 42, "duration": 10, "velocity": 109}, {"time": 29401, "pitch": 42, "duration": 10, "velocity": 45}, {"time": 29520, "pitch": 42, "duration": 10, "velocity": 71}, {"time": 29640, "pitch": 42, "duration": 10, "velocity": 37}, {"time": 29759, "pitch": 35, "duration": 10, "velocity": 108}, {"time": 29759, "pitch": 42, "duration": 10, "velocity": 97}, {"time": 29998, "pitch": 42, "duration": 10, "velocity": 69}, {"time": 30117, "pitch": 35, "duration": 10, "velocity": 97}, {"time": 30237, "pitch": 28, "duration": 10, "velocity": 101}, {"time": 30237, "pitch": 42, "duration": 10, "velocity": 107}, {"time": 30479, "pitch": 35, "duration": 10, "velocity": 93}, {"time": 30479, "pitch": 42, "duration": 10, "velocity": 58}, {"time": 30722, "pitch": 35, "duration": 10, "velocity": 96}, {"time": 30722, "pitch": 42, "duration": 10, "velocity": 71}, {"time": 30841, "pitch": 42, "duration": 10, "velocity": 45}, {"time": 30960, "pitch": 42, "duration": 10, "velocity": 66}, {"time": 31080, "pitch": 38, "duration": 10, "velocity": 61}, {"time": 31199, "pitch": 39, "duration": 10, "velocity": 105}, {"time": 31199, "pitch": 42, "duration": 10, "velocity": 98}, {"time": 31319, "pitch": 28, "duration": 10, "velocity": 66}, {"time": 31438, "pitch": 35, "duration": 10, "velocity": 96}, {"time": 31438, "pitch": 46, "duration": 10, "velocity": 77}, {"time": 31677, "pitch": 35, "duration": 10, "velocity": 108}, {"time": 31677, "pitch": 42, "duration": 10, "velocity": 103}, {"time": 31677, "pitch": 49, "duration": 10, "velocity": 50}, {"time": 31798, "pitch": 42, "duration": 10, "velocity": 45}, {"time": 31919, "pitch": 42, "duration": 10, "velocity": 45}, {"time": 32040, "pitch": 35, "duration": 10, "velocity": 105}, {"time": 32162, "pitch": 28, "duration": 9, "velocity": 100}, {"time": 32162, "pitch": 42, "duration": 9, "velocity": 98}, {"time": 32400, "pitch": 35, "duration": 10, "velocity": 108}, {"time": 32400, "pitch": 42, "duration": 10, "velocity": 61}, {"time": 32520, "pitch": 38, "duration": 10, "velocity": 51}, {"time": 32639, "pitch": 42, "duration": 10, "velocity": 95}, {"time": 32878, "pitch": 35, "duration": 10, "velocity": 97}, {"time": 32878, "pitch": 42, "duration": 10, "velocity": 50}, {"time": 32997, "pitch": 42, "duration": 10, "velocity": 45}, {"time": 33117, "pitch": 28, "duration": 10, "velocity": 92}, {"time": 33117, "pitch": 46, "duration": 10, "velocity": 53}, {"time": 33359, "pitch": 42, "duration": 10, "velocity": 71}, {"time": 33480, "pitch": 42, "duration": 10, "velocity": 37}, {"time": 33602, "pitch": 35, "duration": 9, "velocity": 108}, {"time": 33602, "pitch": 42, "duration": 9, "velocity": 97}, {"time": 33840, "pitch": 42, "duration": 10, "velocity": 69}, {"time": 33960, "pitch": 35, "duration": 10, "velocity": 97}, {"time": 34079, "pitch": 28, "duration": 10, "velocity": 101}, {"time": 34079, "pitch": 42, "duration": 10, "velocity": 107}, {"time": 34318, "pitch": 35, "duration": 10, "velocity": 93}, {"time": 34318, "pitch": 42, "duration": 10, "velocity": 58}, {"time": 34318, "pitch": 80, "duration": 10, "velocity": 71}, {"time": 34437, "pitch": 80, "duration": 10, "velocity": 77}, {"time": 34557, "pitch": 35, "duration": 10, "velocity": 96}, {"time": 34557, "pitch": 42, "duration": 10, "velocity": 71}, {"time": 34557, "pitch": 81, "duration": 10, "velocity": 89}, {"time": 34678, "pitch": 42, "duration": 10, "velocity": 45}, {"time": 34799, "pitch": 42, "duration": 10, "velocity": 66}, {"time": 34799, "pitch": 80, "duration": 10, "velocity": 75}, {"time": 34920, "pitch": 38, "duration": 10, "velocity": 61}, {"time": 34920, "pitch": 80, "duration": 10, "velocity": 75}, {"time": 35041, "pitch": 39, "duration": 10, "velocity": 105}, {"time": 35041, "pitch": 46, "duration": 10, "velocity": 53}, {"time": 35161, "pitch": 28, "duration": 10, "velocity": 66}, {"time": 35280, "pitch": 35, "duration": 10, "velocity": 96}, {"time": 35280, "pitch": 46, "duration": 10, "velocity": 77}, {"time": 35519, "pitch": 35, "duration": 10, "velocity": 108}, {"time": 35519, "pitch": 42, "duration": 10, "velocity": 103}, {"time": 35638, "pitch": 42, "duration": 10, "velocity": 45}, {"time": 35758, "pitch": 42, "duration": 10, "velocity": 45}, {"time": 35877, "pitch": 35, "duration": 10, "velocity": 105}, {"time": 35997, "pitch": 28, "duration": 10, "velocity": 100}, {"time": 35997, "pitch": 42, "duration": 10, "velocity": 98}, {"time": 36239, "pitch": 35, "duration": 10, "velocity": 108}, {"time": 36239, "pitch": 42, "duration": 10, "velocity": 61}, {"time": 36360, "pitch": 38, "duration": 10, "velocity": 51}, {"time": 36481, "pitch": 42, "duration": 10, "velocity": 95}, {"time": 36720, "pitch": 35, "duration": 10, "velocity": 97}, {"time": 36720, "pitch": 42, "duration": 10, "velocity": 50}, {"time": 36840, "pitch": 42, "duration": 10, "velocity": 45}, {"time": 36959, "pitch": 28, "duration": 10, "velocity": 92}, {"time": 36959, "pitch": 46, "duration": 10, "velocity": 53}, {"time": 37198, "pitch": 42, "duration": 10, "velocity": 71}, {"time": 37317, "pitch": 42, "duration": 10, "velocity": 37}, {"time": 37437, "pitch": 35, "duration": 10, "velocity": 108}, {"time": 37437, "pitch": 42, "duration": 10, "velocity": 97}, {"time": 37679, "pitch": 42, "duration": 10, "velocity": 69}, {"time": 37800, "pitch": 35, "duration": 10, "velocity": 97}, {"time": 37921, "pitch": 28, "duration": 10, "velocity": 101}, {"time": 37921, "pitch": 42, "duration": 10, "velocity": 107}, {"time": 38160, "pitch": 35, "duration": 10, "velocity": 93}, {"time": 38160, "pitch": 42, "duration": 10, "velocity": 58}, {"time": 38160, "pitch": 80, "duration": 10, "velocity": 71}, {"time": 38280, "pitch": 80, "duration": 10, "velocity": 77}, {"time": 38399, "pitch": 35, "duration": 10, "velocity": 96}, {"time": 38399, "pitch": 42, "duration": 10, "velocity": 71}, {"time": 38399, "pitch": 81, "duration": 10, "velocity": 89}, {"time": 38518, "pitch": 42, "duration": 10, "velocity": 45}, {"time": 38638, "pitch": 42, "duration": 10, "velocity": 66}, {"time": 38638, "pitch": 62, "duration": 10, "velocity": 67}, {"time": 38638, "pitch": 80, "duration": 10, "velocity": 75}, {"time": 38757, "pitch": 38, "duration": 10, "velocity": 61}, {"time": 38757, "pitch": 62, "duration": 10, "velocity": 29}, {"time": 38757, "pitch": 80, "duration": 10, "velocity": 75}, {"time": 38877, "pitch": 39, "duration": 10, "velocity": 105}, {"time": 38877, "pitch": 46, "duration": 10, "velocity": 53}, {"time": 38877, "pitch": 63, "duration": 10, "velocity": 61}, {"time": 38998, "pitch": 28, "duration": 10, "velocity": 66}, {"time": 38998, "pitch": 63, "duration": 10, "velocity": 50}, {"time": 39119, "pitch": 35, "duration": 10, "velocity": 96}, {"time": 39119, "pitch": 46, "duration": 10, "velocity": 77}, {"time": 39119, "pitch": 64, "duration": 10, "velocity": 64}, {"time": 39240, "pitch": 38, "duration": 10, "velocity": 69}, {"time": 39361, "pitch": 35, "duration": 10, "velocity": 108}, {"time": 39361, "pitch": 42, "duration": 10, "velocity": 103}, {"time": 39361, "pitch": 57, "duration": 10, "velocity": 50}, {"time": 39481, "pitch": 42, "duration": 10, "velocity": 45}, {"time": 39600, "pitch": 42, "duration": 10, "velocity": 45}, {"time": 39720, "pitch": 35, "duration": 10, "velocity": 105}, {"time": 39839, "pitch": 28, "duration": 10, "velocity": 100}, {"time": 39839, "pitch": 42, "duration": 10, "velocity": 98}, {"time": 40078, "pitch": 35, "duration": 10, "velocity": 108}, {"time": 40078, "pitch": 42, "duration": 10, "velocity": 61}, {"time": 40197, "pitch": 38, "duration": 10, "velocity": 51}, {"time": 40317, "pitch": 42, "duration": 10, "velocity": 95}, {"time": 40559, "pitch": 35, "duration": 10, "velocity": 97}, {"time": 40559, "pitch": 42, "duration": 10, "velocity": 50}, {"time": 40680, "pitch": 42, "duration": 10, "velocity": 45}, {"time": 40801, "pitch": 28, "duration": 10, "velocity": 92}, {"time": 40801, "pitch": 46, "duration": 10, "velocity": 53}, {"time": 41040, "pitch": 42, "duration": 10, "velocity": 71}, {"time": 41160, "pitch": 42, "duration": 9, "velocity": 37}, {"time": 41279, "pitch": 35, "duration": 10, "velocity": 108}, {"time": 41279, "pitch": 42, "duration": 10, "velocity": 97}, {"time": 41518, "pitch": 42, "duration": 10, "velocity": 69}, {"time": 41637, "pitch": 35, "duration": 10, "velocity": 97}, {"time": 41757, "pitch": 28, "duration": 10, "velocity": 101}, {"time": 41757, "pitch": 42, "duration": 10, "velocity": 107}, {"time": 41999, "pitch": 35, "duration": 10, "velocity": 93}, {"time": 41999, "pitch": 42, "duration": 10, "velocity": 58}, {"time": 41999, "pitch": 80, "duration": 10, "velocity": 71}, {"time": 42120, "pitch": 80, "duration": 10, "velocity": 77}, {"time": 42241, "pitch": 35, "duration": 10, "velocity": 96}, {"time": 42241, "pitch": 42, "duration": 10, "velocity": 71}, {"time": 42241, "pitch": 81, "duration": 10, "velocity": 89}, {"time": 42361, "pitch": 42, "duration": 10, "velocity": 45}, {"time": 42480, "pitch": 42, "duration": 10, "velocity": 66}, {"time": 42480, "pitch": 80, "duration": 10, "velocity": 75}, {"time": 42599, "pitch": 38, "duration": 10, "velocity": 61}, {"time": 42599, "pitch": 80, "duration": 10, "velocity": 75}, {"time": 42719, "pitch": 39, "duration": 10, "velocity": 105}, {"time": 42719, "pitch": 46, "duration": 10, "velocity": 53}, {"time": 42838, "pitch": 28, "duration": 10, "velocity": 66}, {"time": 42958, "pitch": 35, "duration": 10, "velocity": 96}, {"time": 42958, "pitch": 46, "duration": 10, "velocity": 77}, {"time": 43196, "pitch": 35, "duration": 11, "velocity": 108}, {"time": 43196, "pitch": 42, "duration": 11, "velocity": 103}, {"time": 43318, "pitch": 42, "duration": 10, "velocity": 45}, {"time": 43439, "pitch": 42, "duration": 10, "velocity": 45}, {"time": 43560, "pitch": 35, "duration": 10, "velocity": 105}, {"time": 43681, "pitch": 28, "duration": 10, "velocity": 100}, {"time": 43681, "pitch": 42, "duration": 10, "velocity": 98}, {"time": 43920, "pitch": 35, "duration": 10, "velocity": 108}, {"time": 43920, "pitch": 42, "duration": 10, "velocity": 61}, {"time": 44039, "pitch": 38, "duration": 10, "velocity": 51}, {"time": 44159, "pitch": 42, "duration": 10, "velocity": 95}, {"time": 44398, "pitch": 35, "duration": 10, "velocity": 97}, {"time": 44398, "pitch": 42, "duration": 10, "velocity": 50}, {"time": 44517, "pitch": 42, "duration": 10, "velocity": 45}, {"time": 44636, "pitch": 28, "duration": 11, "velocity": 92}, {"time": 44636, "pitch": 46, "duration": 11, "velocity": 53}, {"time": 44879, "pitch": 42, "duration": 10, "velocity": 71}, {"time": 45000, "pitch": 42, "duration": 10, "velocity": 37}, {"time": 45121, "pitch": 35, "duration": 10, "velocity": 108}, {"time": 45121, "pitch": 42, "duration": 10, "velocity": 97}, {"time": 45360, "pitch": 42, "duration": 10, "velocity": 69}, {"time": 45479, "pitch": 35, "duration": 10, "velocity": 97}, {"time": 45599, "pitch": 28, "duration": 10, "velocity": 101}, {"time": 45599, "pitch": 42, "duration": 10, "velocity": 107}, {"time": 45841, "pitch": 35, "duration": 10, "velocity": 93}, {"time": 45841, "pitch": 42, "duration": 10, "velocity": 58}, {"time": 45841, "pitch": 80, "duration": 10, "velocity": 71}, {"time": 45962, "pitch": 80, "duration": 11, "velocity": 77}, {"time": 46084, "pitch": 35, "duration": 10, "velocity": 96}, {"time": 46084, "pitch": 42, "duration": 10, "velocity": 71}, {"time": 46084, "pitch": 81, "duration": 10, "velocity": 89}, {"time": 46203, "pitch": 42, "duration": 10, "velocity": 45}, {"time": 46322, "pitch": 42, "duration": 10, "velocity": 66}, {"time": 46322, "pitch": 62, "duration": 10, "velocity": 67}, {"time": 46322, "pitch": 80, "duration": 10, "velocity": 75}, {"time": 46442, "pitch": 38, "duration": 10, "velocity": 61}, {"time": 46442, "pitch": 62, "duration": 10, "velocity": 29}, {"time": 46442, "pitch": 80, "duration": 10, "velocity": 75}, {"time": 46561, "pitch": 39, "duration": 10, "velocity": 105}, {"time": 46561, "pitch": 46, "duration": 10, "velocity": 53}, {"time": 46561, "pitch": 63, "duration": 10, "velocity": 61}, {"time": 46681, "pitch": 28, "duration": 10, "velocity": 66}, {"time": 46681, "pitch": 63, "duration": 10, "velocity": 50}, {"time": 46800, "pitch": 35, "duration": 10, "velocity": 96}, {"time": 46800, "pitch": 40, "duration": 10, "velocity": 51}, {"time": 46800, "pitch": 46, "duration": 10, "velocity": 77}, {"time": 46800, "pitch": 64, "duration": 10, "velocity": 64}, {"time": 46919, "pitch": 40, "duration": 10, "velocity": 68}, {"time": 47039, "pitch": 35, "duration": 10, "velocity": 108}, {"time": 47039, "pitch": 42, "duration": 10, "velocity": 103}, {"time": 47039, "pitch": 49, "duration": 10, "velocity": 48}, {"time": 47160, "pitch": 42, "duration": 10, "velocity": 45}, {"time": 47281, "pitch": 42, "duration": 10, "velocity": 45}, {"time": 47402, "pitch": 35, "duration": 10, "velocity": 105}, {"time": 47524, "pitch": 28, "duration": 9, "velocity": 100}, {"time": 47524, "pitch": 42, "duration": 9, "velocity": 98}, {"time": 47762, "pitch": 35, "duration": 10, "velocity": 108}, {"time": 47762, "pitch": 42, "duration": 10, "velocity": 61}, {"time": 47882, "pitch": 38, "duration": 10, "velocity": 51}, {"time": 48001, "pitch": 42, "duration": 10, "velocity": 95}, {"time": 48240, "pitch": 35, "duration": 10, "velocity": 97}, {"time": 48240, "pitch": 42, "duration": 10, "velocity": 50}, {"time": 48359, "pitch": 42, "duration": 10, "velocity": 45}, {"time": 48479, "pitch": 28, "duration": 10, "velocity": 92}, {"time": 48479, "pitch": 46, "duration": 10, "velocity": 53}, {"time": 48721, "pitch": 42, "duration": 10, "velocity": 71}, {"time": 48842, "pitch": 42, "duration": 10, "velocity": 37}, {"time": 48964, "pitch": 35, "duration": 9, "velocity": 108}, {"time": 48964, "pitch": 42, "duration": 9, "velocity": 97}, {"time": 49202, "pitch": 42, "duration": 10, "velocity": 69}, {"time": 49322, "pitch": 35, "duration": 10, "velocity": 97}, {"time": 49441, "pitch": 28, "duration": 10, "velocity": 101}, {"time": 49441, "pitch": 42, "duration": 10, "velocity": 107}, {"time": 49680, "pitch": 35, "duration": 10, "velocity": 93}, {"time": 49680, "pitch": 42, "duration": 10, "velocity": 58}, {"time": 49680, "pitch": 80, "duration": 10, "velocity": 71}, {"time": 49799, "pitch": 80, "duration": 10, "velocity": 77}, {"time": 49919, "pitch": 35, "duration": 10, "velocity": 96}, {"time": 49919, "pitch": 42, "duration": 10, "velocity": 71}, {"time": 49919, "pitch": 81, "duration": 10, "velocity": 89}, {"time": 50040, "pitch": 42, "duration": 10, "velocity": 45}, {"time": 50161, "pitch": 42, "duration": 10, "velocity": 66}, {"time": 50161, "pitch": 80, "duration": 10, "velocity": 75}, {"time": 50282, "pitch": 38, "duration": 10, "velocity": 61}, {"time": 50282, "pitch": 80, "duration": 10, "velocity": 75}, {"time": 50403, "pitch": 39, "duration": 10, "velocity": 105}, {"time": 50403, "pitch": 46, "duration": 10, "velocity": 53}, {"time": 50523, "pitch": 28, "duration": 10, "velocity": 66}, {"time": 50642, "pitch": 35, "duration": 10, "velocity": 96}, {"time": 50642, "pitch": 46, "duration": 10, "velocity": 77}, {"time": 50881, "pitch": 35, "duration": 10, "velocity": 108}, {"time": 50881, "pitch": 42, "duration": 10, "velocity": 103}, {"time": 51000, "pitch": 42, "duration": 10, "velocity": 45}, {"time": 51120, "pitch": 42, "duration": 10, "velocity": 45}, {"time": 51239, "pitch": 35, "duration": 10, "velocity": 105}, {"time": 51359, "pitch": 28, "duration": 10, "velocity": 100}, {"time": 51359, "pitch": 42, "duration": 10, "velocity": 98}, {"time": 51601, "pitch": 35, "duration": 10, "velocity": 108}, {"time": 51601, "pitch": 42, "duration": 10, "velocity": 61}, {"time": 51722, "pitch": 38, "duration": 10, "velocity": 51}, {"time": 51843, "pitch": 42, "duration": 10, "velocity": 95}, {"time": 52082, "pitch": 35, "duration": 10, "velocity": 97}, {"time": 52082, "pitch": 42, "duration": 10, "velocity": 50}, {"time": 52202, "pitch": 42, "duration": 10, "velocity": 45}, {"time": 52321, "pitch": 28, "duration": 10, "velocity": 92}, {"time": 52321, "pitch": 46, "duration": 10, "velocity": 53}, {"time": 52560, "pitch": 42, "duration": 10, "velocity": 71}, {"time": 52679, "pitch": 42, "duration": 10, "velocity": 37}, {"time": 52799, "pitch": 35, "duration": 10, "velocity": 108}, {"time": 52799, "pitch": 42, "duration": 10, "velocity": 97}, {"time": 53041, "pitch": 42, "duration": 10, "velocity": 69}, {"time": 53162, "pitch": 35, "duration": 10, "velocity": 97}, {"time": 53283, "pitch": 28, "duration": 10, "velocity": 101}, {"time": 53283, "pitch": 42, "duration": 10, "velocity": 107}, {"time": 53522, "pitch": 35, "duration": 10, "velocity": 93}, {"time": 53522, "pitch": 42, "duration": 10, "velocity": 58}, {"time": 53522, "pitch": 80, "duration": 10, "velocity": 71}, {"time": 53642, "pitch": 80, "duration": 10, "velocity": 77}, {"time": 53761, "pitch": 35, "duration": 10, "velocity": 96}, {"time": 53761, "pitch": 42, "duration": 10, "velocity": 71}, {"time": 53761, "pitch": 81, "duration": 10, "velocity": 89}, {"time": 53880, "pitch": 35, "duration": 10, "velocity": 33}, {"time": 53880, "pitch": 42, "duration": 10, "velocity": 45}, {"time": 54000, "pitch": 42, "duration": 10, "velocity": 66}, {"time": 54000, "pitch": 62, "duration": 10, "velocity": 67}, {"time": 54000, "pitch": 80, "duration": 10, "velocity": 75}, {"time": 54119, "pitch": 35, "duration": 10, "velocity": 78}, {"time": 54119, "pitch": 38, "duration": 10, "velocity": 61}, {"time": 54119, "pitch": 62, "duration": 10, "velocity": 29}, {"time": 54119, "pitch": 80, "duration": 10, "velocity": 75}, {"time": 54239, "pitch": 39, "duration": 10, "velocity": 105}, {"time": 54239, "pitch": 40, "duration": 10, "velocity": 62}, {"time": 54239, "pitch": 46, "duration": 10, "velocity": 53}, {"time": 54239, "pitch": 63, "duration": 10, "velocity": 61}, {"time": 54360, "pitch": 28, "duration": 10, "velocity": 66}, {"time": 54360, "pitch": 63, "duration": 10, "velocity": 50}, {"time": 54481, "pitch": 35, "duration": 10, "velocity": 96}, {"time": 54481, "pitch": 46, "duration": 10, "velocity": 77}, {"time": 54481, "pitch": 64, "duration": 10, "velocity": 64}, {"time": 54602, "pitch": 40, "duration": 10, "velocity": 55}, {"time": 54723, "pitch": 35, "duration": 10, "velocity": 108}, {"time": 54723, "pitch": 42, "duration": 10, "velocity": 103}, {"time": 54723, "pitch": 57, "duration": 10, "velocity": 42}, {"time": 54843, "pitch": 42, "duration": 10, "velocity": 45}, {"time": 54962, "pitch": 42, "duration": 10, "velocity": 45}, {"time": 55082, "pitch": 35, "duration": 10, "velocity": 105}, {"time": 55201, "pitch": 28, "duration": 10, "velocity": 100}, {"time": 55201, "pitch": 42, "duration": 10, "velocity": 98}, {"time": 55440, "pitch": 35, "duration": 10, "velocity": 108}, {"time": 55440, "pitch": 42, "duration": 10, "velocity": 61}, {"time": 55559, "pitch": 38, "duration": 10, "velocity": 51}, {"time": 55679, "pitch": 42, "duration": 10, "velocity": 95}, {"time": 55921, "pitch": 35, "duration": 10, "velocity": 97}, {"time": 55921, "pitch": 42, "duration": 10, "velocity": 50}, {"time": 56042, "pitch": 42, "duration": 10, "velocity": 45}, {"time": 56163, "pitch": 28, "duration": 10, "velocity": 92}, {"time": 56163, "pitch": 46, "duration": 10, "velocity": 53}, {"time": 56402, "pitch": 42, "duration": 10, "velocity": 71}, {"time": 56522, "pitch": 42, "duration": 9, "velocity": 37}, {"time": 56641, "pitch": 35, "duration": 10, "velocity": 108}, {"time": 56641, "pitch": 42, "duration": 10, "velocity": 97}, {"time": 56880, "pitch": 42, "duration": 10, "velocity": 69}, {"time": 56999, "pitch": 35, "duration": 10, "velocity": 97}, {"time": 57119, "pitch": 28, "duration": 10, "velocity": 101}, {"time": 57119, "pitch": 42, "duration": 10, "velocity": 107}, {"time": 57361, "pitch": 35, "duration": 10, "velocity": 93}, {"time": 57361, "pitch": 42, "duration": 10, "velocity": 58}, {"time": 57361, "pitch": 80, "duration": 10, "velocity": 71}, {"time": 57482, "pitch": 80, "duration": 10, "velocity": 77}, {"time": 57603, "pitch": 35, "duration": 10, "velocity": 96}, {"time": 57603, "pitch": 42, "duration": 10, "velocity": 71}, {"time": 57603, "pitch": 81, "duration": 10, "velocity": 89}, {"time": 57723, "pitch": 42, "duration": 10, "velocity": 45}, {"time": 57842, "pitch": 42, "duration": 10, "velocity": 66}, {"time": 57842, "pitch": 80, "duration": 10, "velocity": 75}, {"time": 57961, "pitch": 38, "duration": 10, "velocity": 61}, {"time": 57961, "pitch": 80, "duration": 10, "velocity": 75}, {"time": 58081, "pitch": 39, "duration": 10, "velocity": 105}, {"time": 58081, "pitch": 46, "duration": 10, "velocity": 53}, {"time": 58200, "pitch": 28, "duration": 10, "velocity": 66}, {"time": 58320, "pitch": 35, "duration": 10, "velocity": 96}, {"time": 58320, "pitch": 46, "duration": 10, "velocity": 77}, {"time": 58558, "pitch": 35, "duration": 11, "velocity": 108}, {"time": 58558, "pitch": 42, "duration": 11, "velocity": 103}, {"time": 58680, "pitch": 42, "duration": 10, "velocity": 45}, {"time": 58801, "pitch": 42, "duration": 10, "velocity": 45}, {"time": 58922, "pitch": 35, "duration": 10, "velocity": 105}, {"time": 59043, "pitch": 28, "duration": 10, "velocity": 100}, {"time": 59043, "pitch": 42, "duration": 10, "velocity": 98}, {"time": 59282, "pitch": 35, "duration": 10, "velocity": 108}, {"time": 59282, "pitch": 42, "duration": 10, "velocity": 61}, {"time": 59401, "pitch": 38, "duration": 10, "velocity": 51}, {"time": 59521, "pitch": 42, "duration": 10, "velocity": 95}, {"time": 59760, "pitch": 35, "duration": 10, "velocity": 97}, {"time": 59760, "pitch": 42, "duration": 10, "velocity": 50}, {"time": 59879, "pitch": 42, "duration": 10, "velocity": 45}, {"time": 59998, "pitch": 28, "duration": 11, "velocity": 92}, {"time": 59998, "pitch": 46, "duration": 11, "velocity": 53}, {"time": 60241, "pitch": 42, "duration": 10, "velocity": 71}, {"time": 60362, "pitch": 42, "duration": 10, "velocity": 37}, {"time": 60483, "pitch": 35, "duration": 10, "velocity": 108}, {"time": 60483, "pitch": 42, "duration": 10, "velocity": 97}, {"time": 60722, "pitch": 42, "duration": 10, "velocity": 69}, {"time": 60841, "pitch": 35, "duration": 10, "velocity": 97}, {"time": 60961, "pitch": 28, "duration": 10, "velocity": 101}, {"time": 60961, "pitch": 42, "duration": 10, "velocity": 107}, {"time": 61200, "pitch": 35, "duration": 10, "velocity": 93}, {"time": 61200, "pitch": 42, "duration": 10, "velocity": 58}, {"time": 61200, "pitch": 80, "duration": 10, "velocity": 71}, {"time": 61319, "pitch": 80, "duration": 10, "velocity": 77}, {"time": 61438, "pitch": 35, "duration": 11, "velocity": 96}, {"time": 61438, "pitch": 42, "duration": 11, "velocity": 71}, {"time": 61438, "pitch": 81, "duration": 11, "velocity": 89}, {"time": 61560, "pitch": 42, "duration": 10, "velocity": 45}, {"time": 61681, "pitch": 42, "duration": 10, "velocity": 66}, {"time": 61681, "pitch": 62, "duration": 10, "velocity": 67}, {"time": 61681, "pitch": 80, "duration": 10, "velocity": 75}, {"time": 61802, "pitch": 38, "duration": 10, "velocity": 61}, {"time": 61802, "pitch": 62, "duration": 10, "velocity": 29}, {"time": 61802, "pitch": 80, "duration": 10, "velocity": 75}, {"time": 61923, "pitch": 35, "duration": 10, "velocity": 78}, {"time": 61923, "pitch": 39, "duration": 10, "velocity": 105}, {"time": 61923, "pitch": 46, "duration": 10, "velocity": 53}, {"time": 61923, "pitch": 49, "duration": 10, "velocity": 35}, {"time": 61923, "pitch": 63, "duration": 10, "velocity": 61}, {"time": 62043, "pitch": 28, "duration": 10, "velocity": 66}, {"time": 62043, "pitch": 63, "duration": 10, "velocity": 50}, {"time": 62162, "pitch": 35, "duration": 10, "velocity": 96}, {"time": 62162, "pitch": 46, "duration": 10, "velocity": 77}, {"time": 62162, "pitch": 64, "duration": 10, "velocity": 64}, {"time": 62401, "pitch": 35, "duration": 10, "velocity": 108}, {"time": 62401, "pitch": 42, "duration": 10, "velocity": 103}, {"time": 62401, "pitch": 55, "duration": 10, "velocity": 50}, {"time": 62520, "pitch": 42, "duration": 10, "velocity": 45}, {"time": 62640, "pitch": 42, "duration": 10, "velocity": 45}, {"time": 62759, "pitch": 35, "duration": 10, "velocity": 105}, {"time": 62878, "pitch": 28, "duration": 10, "velocity": 100}, {"time": 62878, "pitch": 42, "duration": 10, "velocity": 98}, {"time": 63121, "pitch": 35, "duration": 10, "velocity": 108}, {"time": 63121, "pitch": 42, "duration": 10, "velocity": 61}, {"time": 63242, "pitch": 38, "duration": 10, "velocity": 51}, {"time": 63363, "pitch": 42, "duration": 10, "velocity": 95}, {"time": 63602, "pitch": 35, "duration": 10, "velocity": 97}, {"time": 63602, "pitch": 42, "duration": 10, "velocity": 50}, {"time": 63721, "pitch": 42, "duration": 10, "velocity": 45}, {"time": 63841, "pitch": 28, "duration": 10, "velocity": 92}, {"time": 63841, "pitch": 42, "duration": 10, "velocity": 109}, {"time": 63960, "pitch": 42, "duration": 10, "velocity": 45}, {"time": 64080, "pitch": 42, "duration": 10, "velocity": 71}, {"time": 64199, "pitch": 42, "duration": 10, "velocity": 37}, {"time": 64318, "pitch": 35, "duration": 10, "velocity": 108}, {"time": 64318, "pitch": 42, "duration": 10, "velocity": 97}, {"time": 64561, "pitch": 42, "duration": 10, "velocity": 69}, {"time": 64682, "pitch": 35, "duration": 10, "velocity": 97}, {"time": 64803, "pitch": 28, "duration": 10, "velocity": 101}, {"time": 64803, "pitch": 42, "duration": 10, "velocity": 107}, {"time": 65042, "pitch": 35, "duration": 10, "velocity": 93}, {"time": 65042, "pitch": 42, "duration": 10, "velocity": 58}, {"time": 65281, "pitch": 35, "duration": 10, "velocity": 96}, {"time": 65281, "pitch": 42, "duration": 10, "velocity": 71}, {"time": 65400, "pitch": 42, "duration": 10, "velocity": 45}, {"time": 65520, "pitch": 42, "duration": 9, "velocity": 66}, {"time": 65639, "pitch": 38, "duration": 10, "velocity": 61}, {"time": 65758, "pitch": 39, "duration": 10, "velocity": 105}, {"time": 65758, "pitch": 42, "duration": 10, "velocity": 98}, {"time": 65880, "pitch": 28, "duration": 10, "velocity": 66}, {"time": 66001, "pitch": 35, "duration": 10, "velocity": 96}, {"time": 66001, "pitch": 46, "duration": 10, "velocity": 77}, {"time": 66243, "pitch": 35, "duration": 10, "velocity": 108}, {"time": 66243, "pitch": 42, "duration": 10, "velocity": 103}, {"time": 66362, "pitch": 42, "duration": 10, "velocity": 45}, {"time": 66482, "pitch": 42, "duration": 10, "velocity": 45}, {"time": 66601, "pitch": 35, "duration": 10, "velocity": 105}, {"time": 66721, "pitch": 28, "duration": 10, "velocity": 100}, {"time": 66721, "pitch": 42, "duration": 10, "velocity": 98}, {"time": 66959, "pitch": 35, "duration": 10, "velocity": 108}, {"time": 66959, "pitch": 42, "duration": 10, "velocity": 61}, {"time": 67079, "pitch": 38, "duration": 10, "velocity": 51}, {"time": 67198, "pitch": 42, "duration": 10, "velocity": 95}, {"time": 67441, "pitch": 35, "duration": 10, "velocity": 97}, {"time": 67441, "pitch": 42, "duration": 10, "velocity": 50}, {"time": 67562, "pitch": 42, "duration": 10, "velocity": 45}, {"time": 67683, "pitch": 28, "duration": 10, "velocity": 92}, {"time": 67683, "pitch": 42, "duration": 10, "velocity": 109}, {"time": 67802, "pitch": 42, "duration": 10, "velocity": 45}, {"time": 67922, "pitch": 42, "duration": 10, "velocity": 71}, {"time": 68041, "pitch": 42, "duration": 10, "velocity": 37}, {"time": 68161, "pitch": 35, "duration": 10, "velocity": 108}, {"time": 68161, "pitch": 42, "duration": 10, "velocity": 97}, {"time": 68399, "pitch": 42, "duration": 10, "velocity": 69}, {"time": 68519, "pitch": 35, "duration": 10, "velocity": 97}, {"time": 68638, "pitch": 28, "duration": 10, "velocity": 101}, {"time": 68638, "pitch": 42, "duration": 10, "velocity": 107}, {"time": 68881, "pitch": 35, "duration": 10, "velocity": 93}, {"time": 68881, "pitch": 42, "duration": 10, "velocity": 58}, {"time": 69123, "pitch": 35, "duration": 10, "velocity": 96}, {"time": 69123, "pitch": 42, "duration": 10, "velocity": 71}, {"time": 69242, "pitch": 42, "duration": 10, "velocity": 45}, {"time": 69362, "pitch": 42, "duration": 10, "velocity": 66}, {"time": 69481, "pitch": 38, "duration": 10, "velocity": 61}, {"time": 69601, "pitch": 39, "duration": 10, "velocity": 105}, {"time": 69601, "pitch": 42, "duration": 10, "velocity": 98}, {"time": 69720, "pitch": 28, "duration": 10, "velocity": 66}, {"time": 69839, "pitch": 35, "duration": 10, "velocity": 96}, {"time": 69839, "pitch": 46, "duration": 10, "velocity": 77}, {"time": 70078, "pitch": 35, "duration": 10, "velocity": 108}, {"time": 70078, "pitch": 42, "duration": 10, "velocity": 103}, {"time": 70199, "pitch": 42, "duration": 10, "velocity": 45}, {"time": 70321, "pitch": 42, "duration": 10, "velocity": 45}, {"time": 70442, "pitch": 35, "duration": 10, "velocity": 105}, {"time": 70563, "pitch": 28, "duration": 10, "velocity": 100}, {"time": 70563, "pitch": 42, "duration": 10, "velocity": 98}, {"time": 70802, "pitch": 35, "duration": 10, "velocity": 108}, {"time": 70802, "pitch": 42, "duration": 10, "velocity": 61}, {"time": 70921, "pitch": 38, "duration": 10, "velocity": 51}, {"time": 71041, "pitch": 42, "duration": 10, "velocity": 95}, {"time": 71279, "pitch": 35, "duration": 10, "velocity": 97}, {"time": 71279, "pitch": 42, "duration": 10, "velocity": 50}, {"time": 71399, "pitch": 42, "duration": 10, "velocity": 45}, {"time": 71518, "pitch": 28, "duration": 10, "velocity": 92}, {"time": 71518, "pitch": 42, "duration": 10, "velocity": 109}, {"time": 71639, "pitch": 42, "duration": 10, "velocity": 45}, {"time": 71761, "pitch": 42, "duration": 10, "velocity": 71}, {"time": 71882, "pitch": 42, "duration": 10, "velocity": 37}, {"time": 72003, "pitch": 35, "duration": 10, "velocity": 108}, {"time": 72003, "pitch": 42, "duration": 10, "velocity": 97}, {"time": 72242, "pitch": 42, "duration": 10, "velocity": 69}, {"time": 72361, "pitch": 35, "duration": 10, "velocity": 97}, {"time": 72481, "pitch": 28, "duration": 9, "velocity": 101}, {"time": 72481, "pitch": 42, "duration": 9, "velocity": 107}, {"time": 72719, "pitch": 35, "duration": 10, "velocity": 93}, {"time": 72719, "pitch": 42, "duration": 10, "velocity": 58}, {"time": 72958, "pitch": 35, "duration": 10, "velocity": 96}, {"time": 72958, "pitch": 42, "duration": 10, "velocity": 71}, {"time": 73079, "pitch": 42, "duration": 10, "velocity": 45}, {"time": 73201, "pitch": 42, "duration": 10, "velocity": 66}, {"time": 73322, "pitch": 38, "duration": 10, "velocity": 61}, {"time": 73443, "pitch": 39, "duration": 10, "velocity": 105}, {"time": 73443, "pitch": 42, "duration": 10, "velocity": 98}, {"time": 73562, "pitch": 28, "duration": 10, "velocity": 66}, {"time": 73682, "pitch": 35, "duration": 10, "velocity": 96}, {"time": 73682, "pitch": 46, "duration": 10, "velocity": 77}, {"time": 73921, "pitch": 35, "duration": 9, "velocity": 108}, {"time": 73921, "pitch": 42, "duration": 9, "velocity": 103}, {"time": 74040, "pitch": 42, "duration": 10, "velocity": 45}, {"time": 74159, "pitch": 42, "duration": 10, "velocity": 45}, {"time": 74279, "pitch": 35, "duration": 10, "velocity": 105}, {"time": 74398, "pitch": 28, "duration": 10, "velocity": 100}, {"time": 74398, "pitch": 42, "duration": 10, "velocity": 98}, {"time": 74640, "pitch": 35, "duration": 11, "velocity": 108}, {"time": 74640, "pitch": 42, "duration": 11, "velocity": 61}, {"time": 74762, "pitch": 38, "duration": 10, "velocity": 51}, {"time": 74883, "pitch": 42, "duration": 10, "velocity": 95}, {"time": 75122, "pitch": 35, "duration": 10, "velocity": 97}, {"time": 75122, "pitch": 42, "duration": 10, "velocity": 50}, {"time": 75241, "pitch": 42, "duration": 10, "velocity": 45}, {"time": 75360, "pitch": 28, "duration": 10, "velocity": 92}, {"time": 75360, "pitch": 42, "duration": 10, "velocity": 109}, {"time": 75480, "pitch": 42, "duration": 10, "velocity": 45}, {"time": 75599, "pitch": 42, "duration": 10, "velocity": 71}, {"time": 75719, "pitch": 42, "duration": 10, "velocity": 37}, {"time": 75838, "pitch": 35, "duration": 10, "velocity": 108}, {"time": 75838, "pitch": 42, "duration": 10, "velocity": 97}, {"time": 76080, "pitch": 42, "duration": 11, "velocity": 69}, {"time": 76202, "pitch": 35, "duration": 10, "velocity": 97}, {"time": 76323, "pitch": 28, "duration": 10, "velocity": 101}, {"time": 76323, "pitch": 42, "duration": 10, "velocity": 107}, {"time": 76562, "pitch": 35, "duration": 10, "velocity": 93}, {"time": 76562, "pitch": 42, "duration": 10, "velocity": 58}, {"time": 76800, "pitch": 35, "duration": 10, "velocity": 96}, {"time": 76800, "pitch": 42, "duration": 10, "velocity": 71}, {"time": 76920, "pitch": 42, "duration": 10, "velocity": 45}, {"time": 77039, "pitch": 42, "duration": 10, "velocity": 66}, {"time": 77159, "pitch": 38, "duration": 10, "velocity": 61}, {"time": 77278, "pitch": 39, "duration": 10, "velocity": 105}, {"time": 77278, "pitch": 42, "duration": 10, "velocity": 98}, {"time": 77399, "pitch": 28, "duration": 10, "velocity": 66}, {"time": 77520, "pitch": 35, "duration": 11, "velocity": 96}, {"time": 77520, "pitch": 46, "duration": 11, "velocity": 77}, {"time": 77763, "pitch": 35, "duration": 10, "velocity": 108}, {"time": 77763, "pitch": 42, "duration": 10, "velocity": 103}, {"time": 77763, "pitch": 49, "duration": 10, "velocity": 50}, {"time": 77882, "pitch": 42, "duration": 10, "velocity": 45}, {"time": 78002, "pitch": 42, "duration": 10, "velocity": 45}, {"time": 78121, "pitch": 35, "duration": 10, "velocity": 105}, {"time": 78240, "pitch": 28, "duration": 10, "velocity": 100}, {"time": 78240, "pitch": 42, "duration": 10, "velocity": 98}, {"time": 78479, "pitch": 35, "duration": 10, "velocity": 108}, {"time": 78479, "pitch": 42, "duration": 10, "velocity": 61}, {"time": 78599, "pitch": 38, "duration": 10, "velocity": 51}, {"time": 78718, "pitch": 42, "duration": 10, "velocity": 95}, {"time": 78960, "pitch": 35, "duration": 10, "velocity": 97}, {"time": 78960, "pitch": 42, "duration": 10, "velocity": 50}, {"time": 79082, "pitch": 42, "duration": 10, "velocity": 45}, {"time": 79203, "pitch": 28, "duration": 10, "velocity": 92}, {"time": 79203, "pitch": 46, "duration": 10, "velocity": 53}, {"time": 79442, "pitch": 42, "duration": 10, "velocity": 71}, {"time": 79561, "pitch": 42, "duration": 10, "velocity": 37}, {"time": 79680, "pitch": 35, "duration": 10, "velocity": 108}, {"time": 79680, "pitch": 42, "duration": 10, "velocity": 97}, {"time": 79919, "pitch": 42, "duration": 10, "velocity": 69}, {"time": 80039, "pitch": 35, "duration": 10, "velocity": 97}, {"time": 80158, "pitch": 28, "duration": 10, "velocity": 101}, {"time": 80158, "pitch": 42, "duration": 10, "velocity": 107}, {"time": 80400, "pitch": 35, "duration": 10, "velocity": 93}, {"time": 80400, "pitch": 42, "duration": 10, "velocity": 58}, {"time": 80400, "pitch": 80, "duration": 10, "velocity": 71}, {"time": 80522, "pitch": 80, "duration": 10, "velocity": 77}, {"time": 80643, "pitch": 35, "duration": 10, "velocity": 96}, {"time": 80643, "pitch": 42, "duration": 10, "velocity": 71}, {"time": 80643, "pitch": 81, "duration": 10, "velocity": 89}, {"time": 80762, "pitch": 42, "duration": 10, "velocity": 45}, {"time": 80882, "pitch": 42, "duration": 9, "velocity": 66}, {"time": 80882, "pitch": 80, "duration": 9, "velocity": 75}, {"time": 81001, "pitch": 38, "duration": 10, "velocity": 61}, {"time": 81001, "pitch": 80, "duration": 10, "velocity": 75}, {"time": 81120, "pitch": 39, "duration": 10, "velocity": 105}, {"time": 81120, "pitch": 46, "duration": 10, "velocity": 53}, {"time": 81240, "pitch": 28, "duration": 10, "velocity": 66}, {"time": 81359, "pitch": 35, "duration": 10, "velocity": 96}, {"time": 81359, "pitch": 46, "duration": 10, "velocity": 77}, {"time": 81598, "pitch": 35, "duration": 10, "velocity": 108}, {"time": 81598, "pitch": 42, "duration": 10, "velocity": 103}, {"time": 81719, "pitch": 42, "duration": 10, "velocity": 45}, {"time": 81840, "pitch": 42, "duration": 10, "velocity": 45}, {"time": 81962, "pitch": 35, "duration": 10, "velocity": 105}, {"time": 82083, "pitch": 28, "duration": 10, "velocity": 100}, {"time": 82083, "pitch": 42, "duration": 10, "velocity": 98}, {"time": 82321, "pitch": 35, "duration": 10, "velocity": 108}, {"time": 82321, "pitch": 42, "duration": 10, "velocity": 61}, {"time": 82441, "pitch": 38, "duration": 10, "velocity": 51}, {"time": 82560, "pitch": 42, "duration": 10, "velocity": 95}, {"time": 82799, "pitch": 35, "duration": 10, "velocity": 97}, {"time": 82799, "pitch": 42, "duration": 10, "velocity": 50}, {"time": 82918, "pitch": 42, "duration": 10, "velocity": 45}, {"time": 83038, "pitch": 28, "duration": 10, "velocity": 92}, {"time": 83038, "pitch": 46, "duration": 10, "velocity": 53}, {"time": 83280, "pitch": 42, "duration": 10, "velocity": 71}, {"time": 83401, "pitch": 42, "duration": 11, "velocity": 37}, {"time": 83523, "pitch": 35, "duration": 10, "velocity": 108}, {"time": 83523, "pitch": 42, "duration": 10, "velocity": 97}, {"time": 83761, "pitch": 42, "duration": 10, "velocity": 69}, {"time": 83881, "pitch": 35, "duration": 10, "velocity": 97}, {"time": 84000, "pitch": 28, "duration": 10, "velocity": 101}, {"time": 84000, "pitch": 42, "duration": 10, "velocity": 107}, {"time": 84239, "pitch": 35, "duration": 10, "velocity": 93}, {"time": 84239, "pitch": 42, "duration": 10, "velocity": 58}, {"time": 84239, "pitch": 80, "duration": 10, "velocity": 71}, {"time": 84358, "pitch": 80, "duration": 10, "velocity": 77}, {"time": 84478, "pitch": 35, "duration": 10, "velocity": 96}, {"time": 84478, "pitch": 42, "duration": 10, "velocity": 71}, {"time": 84478, "pitch": 81, "duration": 10, "velocity": 89}, {"time": 84599, "pitch": 42, "duration": 10, "velocity": 45}, {"time": 84720, "pitch": 42, "duration": 10, "velocity": 66}, {"time": 84720, "pitch": 62, "duration": 10, "velocity": 67}, {"time": 84720, "pitch": 80, "duration": 10, "velocity": 75}, {"time": 84841, "pitch": 38, "duration": 11, "velocity": 61}, {"time": 84841, "pitch": 62, "duration": 11, "velocity": 29}, {"time": 84841, "pitch": 80, "duration": 11, "velocity": 75}, {"time": 84963, "pitch": 39, "duration": 10, "velocity": 105}, {"time": 84963, "pitch": 46, "duration": 10, "velocity": 53}, {"time": 84963, "pitch": 63, "duration": 10, "velocity": 61}, {"time": 85082, "pitch": 28, "duration": 10, "velocity": 66}, {"time": 85082, "pitch": 63, "duration": 10, "velocity": 50}, {"time": 85201, "pitch": 35, "duration": 10, "velocity": 96}, {"time": 85201, "pitch": 46, "duration": 10, "velocity": 77}, {"time": 85201, "pitch": 64, "duration": 10, "velocity": 64}, {"time": 85321, "pitch": 38, "duration": 10, "velocity": 69}, {"time": 85440, "pitch": 35, "duration": 10, "velocity": 108}, {"time": 85440, "pitch": 42, "duration": 10, "velocity": 103}, {"time": 85440, "pitch": 57, "duration": 10, "velocity": 50}, {"time": 85560, "pitch": 42, "duration": 10, "velocity": 45}, {"time": 85679, "pitch": 42, "duration": 10, "velocity": 45}, {"time": 85798, "pitch": 35, "duration": 10, "velocity": 105}, {"time": 85918, "pitch": 28, "duration": 10, "velocity": 100}, {"time": 85918, "pitch": 42, "duration": 10, "velocity": 98}, {"time": 86160, "pitch": 35, "duration": 10, "velocity": 108}, {"time": 86160, "pitch": 42, "duration": 10, "velocity": 61}, {"time": 86281, "pitch": 38, "duration": 11, "velocity": 51}, {"time": 86403, "pitch": 42, "duration": 10, "velocity": 95}, {"time": 86641, "pitch": 35, "duration": 10, "velocity": 97}, {"time": 86641, "pitch": 42, "duration": 10, "velocity": 50}, {"time": 86761, "pitch": 42, "duration": 10, "velocity": 45}, {"time": 86880, "pitch": 28, "duration": 10, "velocity": 92}, {"time": 86880, "pitch": 46, "duration": 10, "velocity": 53}, {"time": 87119, "pitch": 42, "duration": 10, "velocity": 71}, {"time": 87238, "pitch": 42, "duration": 10, "velocity": 37}, {"time": 87358, "pitch": 35, "duration": 10, "velocity": 108}, {"time": 87358, "pitch": 42, "duration": 10, "velocity": 97}, {"time": 87600, "pitch": 42, "duration": 10, "velocity": 69}, {"time": 87721, "pitch": 35, "duration": 10, "velocity": 97}, {"time": 87843, "pitch": 28, "duration": 9, "velocity": 101}, {"time": 87843, "pitch": 42, "duration": 9, "velocity": 107}, {"time": 88081, "pitch": 35, "duration": 10, "velocity": 93}, {"time": 88081, "pitch": 42, "duration": 10, "velocity": 58}, {"time": 88081, "pitch": 80, "duration": 10, "velocity": 71}, {"time": 88201, "pitch": 80, "duration": 10, "velocity": 77}, {"time": 88320, "pitch": 35, "duration": 10, "velocity": 96}, {"time": 88320, "pitch": 42, "duration": 10, "velocity": 71}, {"time": 88320, "pitch": 81, "duration": 10, "velocity": 89}, {"time": 88440, "pitch": 42, "duration": 9, "velocity": 45}, {"time": 88559, "pitch": 42, "duration": 10, "velocity": 66}, {"time": 88559, "pitch": 80, "duration": 10, "velocity": 75}, {"time": 88678, "pitch": 38, "duration": 10, "velocity": 61}, {"time": 88678, "pitch": 80, "duration": 10, "velocity": 75}, {"time": 88798, "pitch": 39, "duration": 10, "velocity": 105}, {"time": 88798, "pitch": 46, "duration": 10, "velocity": 53}, {"time": 88919, "pitch": 28, "duration": 10, "velocity": 66}, {"time": 89040, "pitch": 35, "duration": 10, "velocity": 96}, {"time": 89040, "pitch": 46, "duration": 10, "velocity": 77}, {"time": 89283, "pitch": 35, "duration": 9, "velocity": 108}, {"time": 89283, "pitch": 42, "duration": 9, "velocity": 103}, {"time": 89402, "pitch": 42, "duration": 10, "velocity": 45}, {"time": 89521, "pitch": 42, "duration": 10, "velocity": 45}, {"time": 89641, "pitch": 35, "duration": 10, "velocity": 105}, {"time": 89760, "pitch": 28, "duration": 10, "velocity": 100}, {"time": 89760, "pitch": 42, "duration": 10, "velocity": 98}, {"time": 89999, "pitch": 35, "duration": 10, "velocity": 108}, {"time": 89999, "pitch": 42, "duration": 10, "velocity": 61}, {"time": 90118, "pitch": 38, "duration": 10, "velocity": 51}, {"time": 90238, "pitch": 42, "duration": 10, "velocity": 95}, {"time": 90480, "pitch": 35, "duration": 10, "velocity": 97}, {"time": 90480, "pitch": 42, "duration": 10, "velocity": 50}, {"time": 90601, "pitch": 42, "duration": 10, "velocity": 45}, {"time": 90722, "pitch": 28, "duration": 10, "velocity": 92}, {"time": 90722, "pitch": 46, "duration": 10, "velocity": 53}, {"time": 90961, "pitch": 42, "duration": 10, "velocity": 71}, {"time": 91081, "pitch": 42, "duration": 10, "velocity": 37}, {"time": 91200, "pitch": 35, "duration": 10, "velocity": 108}, {"time": 91200, "pitch": 42, "duration": 10, "velocity": 97}, {"time": 91439, "pitch": 42, "duration": 10, "velocity": 69}, {"time": 91558, "pitch": 35, "duration": 10, "velocity": 97}, {"time": 91678, "pitch": 28, "duration": 10, "velocity": 101}, {"time": 91678, "pitch": 42, "duration": 10, "velocity": 107}, {"time": 91920, "pitch": 35, "duration": 10, "velocity": 93}, {"time": 91920, "pitch": 42, "duration": 10, "velocity": 58}, {"time": 91920, "pitch": 80, "duration": 10, "velocity": 71}, {"time": 92041, "pitch": 80, "duration": 10, "velocity": 77}, {"time": 92162, "pitch": 35, "duration": 10, "velocity": 96}, {"time": 92162, "pitch": 42, "duration": 10, "velocity": 71}, {"time": 92162, "pitch": 81, "duration": 10, "velocity": 89}, {"time": 92282, "pitch": 42, "duration": 10, "velocity": 45}, {"time": 92401, "pitch": 42, "duration": 10, "velocity": 66}, {"time": 92401, "pitch": 62, "duration": 10, "velocity": 67}, {"time": 92401, "pitch": 80, "duration": 10, "velocity": 75}, {"time": 92521, "pitch": 38, "duration": 10, "velocity": 61}, {"time": 92521, "pitch": 62, "duration": 10, "velocity": 29}, {"time": 92521, "pitch": 80, "duration": 10, "velocity": 75}, {"time": 92640, "pitch": 39, "duration": 10, "velocity": 105}, {"time": 92640, "pitch": 46, "duration": 10, "velocity": 53}, {"time": 92640, "pitch": 63, "duration": 10, "velocity": 61}, {"time": 92759, "pitch": 28, "duration": 10, "velocity": 66}, {"time": 92759, "pitch": 63, "duration": 10, "velocity": 50}, {"time": 92879, "pitch": 35, "duration": 10, "velocity": 96}, {"time": 92879, "pitch": 40, "duration": 10, "velocity": 51}, {"time": 92879, "pitch": 46, "duration": 10, "velocity": 77}, {"time": 92879, "pitch": 64, "duration": 10, "velocity": 64}, {"time": 92998, "pitch": 40, "duration": 10, "velocity": 68}, {"time": 93118, "pitch": 35, "duration": 10, "velocity": 108}, {"time": 93118, "pitch": 42, "duration": 10, "velocity": 103}, {"time": 93118, "pitch": 49, "duration": 10, "velocity": 48}, {"time": 93239, "pitch": 42, "duration": 10, "velocity": 45}, {"time": 93360, "pitch": 42, "duration": 10, "velocity": 45}, {"time": 93481, "pitch": 35, "duration": 10, "velocity": 105}, {"time": 93602, "pitch": 28, "duration": 10, "velocity": 100}, {"time": 93602, "pitch": 42, "duration": 10, "velocity": 98}, {"time": 93841, "pitch": 35, "duration": 10, "velocity": 108}, {"time": 93841, "pitch": 42, "duration": 10, "velocity": 61}, {"time": 93961, "pitch": 38, "duration": 10, "velocity": 51}, {"time": 94080, "pitch": 42, "duration": 10, "velocity": 95}, {"time": 94319, "pitch": 35, "duration": 10, "velocity": 97}, {"time": 94319, "pitch": 42, "duration": 10, "velocity": 50}, {"time": 94438, "pitch": 42, "duration": 10, "velocity": 45}, {"time": 94558, "pitch": 28, "duration": 10, "velocity": 92}, {"time": 94558, "pitch": 46, "duration": 10, "velocity": 53}, {"time": 94800, "pitch": 42, "duration": 10, "velocity": 71}, {"time": 94921, "pitch": 42, "duration": 10, "velocity": 37}, {"time": 95042, "pitch": 35, "duration": 10, "velocity": 108}, {"time": 95042, "pitch": 42, "duration": 10, "velocity": 97}, {"time": 95281, "pitch": 42, "duration": 10, "velocity": 69}, {"time": 95401, "pitch": 35, "duration": 10, "velocity": 97}, {"time": 95520, "pitch": 28, "duration": 10, "velocity": 101}, {"time": 95520, "pitch": 42, "duration": 10, "velocity": 107}, {"time": 95759, "pitch": 35, "duration": 10, "velocity": 93}, {"time": 95759, "pitch": 42, "duration": 10, "velocity": 58}, {"time": 95759, "pitch": 80, "duration": 10, "velocity": 71}, {"time": 95878, "pitch": 80, "duration": 10, "velocity": 77}, {"time": 95998, "pitch": 35, "duration": 10, "velocity": 96}, {"time": 95998, "pitch": 42, "duration": 10, "velocity": 71}, {"time": 95998, "pitch": 81, "duration": 10, "velocity": 89}, {"time": 96119, "pitch": 42, "duration": 10, "velocity": 45}, {"time": 96240, "pitch": 42, "duration": 10, "velocity": 66}, {"time": 96240, "pitch": 80, "duration": 10, "velocity": 75}, {"time": 96361, "pitch": 38, "duration": 10, "velocity": 61}, {"time": 96361, "pitch": 80, "duration": 10, "velocity": 75}, {"time": 96482, "pitch": 39, "duration": 10, "velocity": 105}, {"time": 96482, "pitch": 46, "duration": 10, "velocity": 53}, {"time": 96602, "pitch": 28, "duration": 10, "velocity": 66}, {"time": 96721, "pitch": 35, "duration": 10, "velocity": 96}, {"time": 96721, "pitch": 46, "duration": 10, "velocity": 77}, {"time": 96960, "pitch": 35, "duration": 10, "velocity": 108}, {"time": 96960, "pitch": 42, "duration": 10, "velocity": 103}, {"time": 97079, "pitch": 42, "duration": 10, "velocity": 45}, {"time": 97199, "pitch": 42, "duration": 10, "velocity": 45}, {"time": 97318, "pitch": 35, "duration": 10, "velocity": 105}, {"time": 97438, "pitch": 28, "duration": 10, "velocity": 100}, {"time": 97438, "pitch": 42, "duration": 10, "velocity": 98}, {"time": 97680, "pitch": 35, "duration": 10, "velocity": 108}, {"time": 97680, "pitch": 42, "duration": 10, "velocity": 61}, {"time": 97801, "pitch": 38, "duration": 10, "velocity": 51}, {"time": 97922, "pitch": 42, "duration": 10, "velocity": 95}, {"time": 98161, "pitch": 35, "duration": 10, "velocity": 97}, {"time": 98161, "pitch": 42, "duration": 10, "velocity": 50}, {"time": 98280, "pitch": 42, "duration": 10, "velocity": 45}, {"time": 98400, "pitch": 28, "duration": 10, "velocity": 92}, {"time": 98400, "pitch": 46, "duration": 10, "velocity": 53}, {"time": 98639, "pitch": 42, "duration": 10, "velocity": 71}, {"time": 98758, "pitch": 42, "duration": 10, "velocity": 37}, {"time": 98877, "pitch": 35, "duration": 11, "velocity": 108}, {"time": 98877, "pitch": 42, "duration": 11, "velocity": 97}, {"time": 99120, "pitch": 42, "duration": 10, "velocity": 69}, {"time": 99241, "pitch": 35, "duration": 10, "velocity": 97}, {"time": 99362, "pitch": 28, "duration": 10, "velocity": 101}, {"time": 99362, "pitch": 42, "duration": 10, "velocity": 107}, {"time": 99601, "pitch": 35, "duration": 10, "velocity": 93}, {"time": 99601, "pitch": 42, "duration": 10, "velocity": 58}, {"time": 99601, "pitch": 80, "duration": 10, "velocity": 71}, {"time": 99720, "pitch": 80, "duration": 10, "velocity": 77}, {"time": 99840, "pitch": 35, "duration": 10, "velocity": 96}, {"time": 99840, "pitch": 42, "duration": 10, "velocity": 71}, {"time": 99840, "pitch": 81, "duration": 10, "velocity": 89}, {"time": 99959, "pitch": 35, "duration": 10, "velocity": 33}, {"time": 99959, "pitch": 42, "duration": 10, "velocity": 45}, {"time": 100079, "pitch": 42, "duration": 10, "velocity": 66}, {"time": 100079, "pitch": 62, "duration": 10, "velocity": 67}, {"time": 100079, "pitch": 80, "duration": 10, "velocity": 75}, {"time": 100198, "pitch": 35, "duration": 10, "velocity": 78}, {"time": 100198, "pitch": 38, "duration": 10, "velocity": 61}, {"time": 100198, "pitch": 62, "duration": 10, "velocity": 29}, {"time": 100198, "pitch": 80, "duration": 10, "velocity": 75}, {"time": 100317, "pitch": 39, "duration": 11, "velocity": 105}, {"time": 100317, "pitch": 40, "duration": 11, "velocity": 62}, {"time": 100317, "pitch": 46, "duration": 11, "velocity": 53}, {"time": 100317, "pitch": 63, "duration": 11, "velocity": 61}, {"time": 100439, "pitch": 28, "duration": 10, "velocity": 66}, {"time": 100439, "pitch": 63, "duration": 10, "velocity": 50}, {"time": 100560, "pitch": 35, "duration": 10, "velocity": 96}, {"time": 100560, "pitch": 46, "duration": 10, "velocity": 77}, {"time": 100560, "pitch": 64, "duration": 10, "velocity": 64}, {"time": 100681, "pitch": 40, "duration": 10, "velocity": 55}, {"time": 100802, "pitch": 35, "duration": 10, "velocity": 108}, {"time": 100802, "pitch": 42, "duration": 10, "velocity": 103}, {"time": 100802, "pitch": 57, "duration": 10, "velocity": 42}, {"time": 100922, "pitch": 42, "duration": 10, "velocity": 45}, {"time": 101041, "pitch": 42, "duration": 10, "velocity": 45}, {"time": 101160, "pitch": 35, "duration": 10, "velocity": 105}, {"time": 101280, "pitch": 28, "duration": 10, "velocity": 100}, {"time": 101280, "pitch": 42, "duration": 10, "velocity": 98}, {"time": 101519, "pitch": 35, "duration": 10, "velocity": 108}, {"time": 101519, "pitch": 42, "duration": 10, "velocity": 61}, {"time": 101638, "pitch": 38, "duration": 10, "velocity": 51}, {"time": 101757, "pitch": 42, "duration": 10, "velocity": 95}, {"time": 102000, "pitch": 35, "duration": 10, "velocity": 97}, {"time": 102000, "pitch": 42, "duration": 10, "velocity": 50}, {"time": 102121, "pitch": 42, "duration": 10, "velocity": 45}, {"time": 102242, "pitch": 28, "duration": 10, "velocity": 92}, {"time": 102242, "pitch": 46, "duration": 10, "velocity": 53}, {"time": 102481, "pitch": 42, "duration": 10, "velocity": 71}, {"time": 102600, "pitch": 42, "duration": 10, "velocity": 37}, {"time": 102720, "pitch": 35, "duration": 10, "velocity": 108}, {"time": 102720, "pitch": 42, "duration": 10, "velocity": 97}, {"time": 102959, "pitch": 42, "duration": 10, "velocity": 69}, {"time": 103078, "pitch": 35, "duration": 10, "velocity": 97}, {"time": 103197, "pitch": 28, "duration": 10, "velocity": 101}, {"time": 103197, "pitch": 42, "duration": 10, "velocity": 107}, {"time": 103440, "pitch": 35, "duration": 10, "velocity": 93}, {"time": 103440, "pitch": 42, "duration": 10, "velocity": 58}, {"time": 103440, "pitch": 80, "duration": 10, "velocity": 71}, {"time": 103561, "pitch": 80, "duration": 10, "velocity": 77}, {"time": 103682, "pitch": 35, "duration": 10, "velocity": 96}, {"time": 103682, "pitch": 42, "duration": 10, "velocity": 71}, {"time": 103682, "pitch": 81, "duration": 10, "velocity": 89}, {"time": 103802, "pitch": 42, "duration": 9, "velocity": 45}, {"time": 103921, "pitch": 42, "duration": 10, "velocity": 66}, {"time": 103921, "pitch": 80, "duration": 10, "velocity": 75}, {"time": 104040, "pitch": 38, "duration": 10, "velocity": 61}, {"time": 104040, "pitch": 80, "duration": 10, "velocity": 75}, {"time": 104160, "pitch": 39, "duration": 10, "velocity": 105}, {"time": 104160, "pitch": 46, "duration": 10, "velocity": 53}, {"time": 104279, "pitch": 28, "duration": 10, "velocity": 66}, {"time": 104399, "pitch": 35, "duration": 9, "velocity": 96}, {"time": 104399, "pitch": 46, "duration": 9, "velocity": 77}, {"time": 104637, "pitch": 35, "duration": 10, "velocity": 108}, {"time": 104637, "pitch": 42, "duration": 10, "velocity": 103}, {"time": 104759, "pitch": 42, "duration": 10, "velocity": 45}, {"time": 104880, "pitch": 42, "duration": 10, "velocity": 45}, {"time": 105001, "pitch": 35, "duration": 10, "velocity": 105}, {"time": 105122, "pitch": 28, "duration": 10, "velocity": 100}, {"time": 105122, "pitch": 42, "duration": 10, "velocity": 98}, {"time": 105361, "pitch": 35, "duration": 10, "velocity": 108}, {"time": 105361, "pitch": 42, "duration": 10, "velocity": 61}, {"time": 105480, "pitch": 38, "duration": 10, "velocity": 51}, {"time": 105600, "pitch": 42, "duration": 10, "velocity": 95}, {"time": 105839, "pitch": 35, "duration": 9, "velocity": 97}, {"time": 105839, "pitch": 42, "duration": 9, "velocity": 50}, {"time": 105958, "pitch": 42, "duration": 10, "velocity": 45}, {"time": 106077, "pitch": 28, "duration": 10, "velocity": 92}, {"time": 106077, "pitch": 46, "duration": 10, "velocity": 53}, {"time": 106320, "pitch": 42, "duration": 10, "velocity": 71}, {"time": 106441, "pitch": 35, "duration": 10, "velocity": 107}, {"time": 106441, "pitch": 40, "duration": 10, "velocity": 88}, {"time": 106441, "pitch": 42, "duration": 10, "velocity": 37}, {"time": 106441, "pitch": 55, "duration": 10, "velocity": 60}, {"time": 106562, "pitch": 35, "duration": 10, "velocity": 107}, {"time": 106721, "pitch": 38, "duration": 10, "velocity": 32}, {"time": 106761, "pitch": 38, "duration": 10, "velocity": 51}, {"time": 106801, "pitch": 35, "duration": 10, "velocity": 93}, {"time": 106801, "pitch": 40, "duration": 10, "velocity": 70}, {"time": 106801, "pitch": 42, "duration": 10, "velocity": 69}, {"time": 106801, "pitch": 55, "duration": 10, "velocity": 60}, {"time": 106960, "pitch": 38, "duration": 10, "velocity": 32}, {"time": 107000, "pitch": 38, "duration": 10, "velocity": 51}, {"time": 107040, "pitch": 35, "duration": 10, "velocity": 103}, {"time": 107040, "pitch": 40, "duration": 10, "velocity": 94}, {"time": 107040, "pitch": 42, "duration": 10, "velocity": 107}, {"time": 107040, "pitch": 55, "duration": 10, "velocity": 60}, {"time": 107760, "pitch": 57, "duration": 10, "velocity": 62}, {"time": 107760, "pitch": 62, "duration": 10, "velocity": 67}, {"time": 107881, "pitch": 62, "duration": 10, "velocity": 29}, {"time": 108002, "pitch": 35, "duration": 10, "velocity": 78}, {"time": 108002, "pitch": 39, "duration": 10, "velocity": 105}, {"time": 108002, "pitch": 40, "duration": 10, "velocity": 94}, {"time": 108002, "pitch": 63, "duration": 10, "velocity": 61}, {"time": 108121, "pitch": 35, "duration": 10, "velocity": 103}, {"time": 108121, "pitch": 63, "duration": 10, "velocity": 50}, {"time": 108241, "pitch": 40, "duration": 10, "velocity": 94}, {"time": 108241, "pitch": 64, "duration": 10, "velocity": 64}, {"time": 108360, "pitch": 38, "duration": 10, "velocity": 78}, {"time": 108400, "pitch": 38, "duration": 10, "velocity": 32}, {"time": 108440, "pitch": 38, "duration": 10, "velocity": 48}, {"time": 108480, "pitch": 35, "duration": 10, "velocity": 108}, {"time": 108480, "pitch": 42, "duration": 10, "velocity": 103}, {"time": 108480, "pitch": 49, "duration": 10, "velocity": 50}, {"time": 108599, "pitch": 42, "duration": 10, "velocity": 45}, {"time": 108718, "pitch": 42, "duration": 10, "velocity": 45}, {"time": 108838, "pitch": 35, "duration": 10, "velocity": 105}, {"time": 108957, "pitch": 28, "duration": 10, "velocity": 100}, {"time": 108957, "pitch": 42, "duration": 10, "velocity": 98}, {"time": 109200, "pitch": 35, "duration": 10, "velocity": 108}, {"time": 109200, "pitch": 42, "duration": 10, "velocity": 61}, {"time": 109321, "pitch": 38, "duration": 10, "velocity": 51}, {"time": 109442, "pitch": 42, "duration": 10, "velocity": 95}, {"time": 109681, "pitch": 35, "duration": 10, "velocity": 97}, {"time": 109681, "pitch": 42, "duration": 10, "velocity": 50}, {"time": 109800, "pitch": 42, "duration": 10, "velocity": 45}, {"time": 109920, "pitch": 28, "duration": 10, "velocity": 92}, {"time": 109920, "pitch": 46, "duration": 10, "velocity": 53}, {"time": 110158, "pitch": 42, "duration": 10, "velocity": 71}, {"time": 110278, "pitch": 42, "duration": 10, "velocity": 37}, {"time": 110397, "pitch": 35, "duration": 10, "velocity": 108}, {"time": 110397, "pitch": 42, "duration": 10, "velocity": 97}, {"time": 110640, "pitch": 42, "duration": 10, "velocity": 69}, {"time": 110761, "pitch": 35, "duration": 10, "velocity": 97}, {"time": 110882, "pitch": 28, "duration": 10, "velocity": 101}, {"time": 110882, "pitch": 42, "duration": 10, "velocity": 107}, {"time": 111121, "pitch": 35, "duration": 10, "velocity": 93}, {"time": 111121, "pitch": 42, "duration": 10, "velocity": 58}, {"time": 111121, "pitch": 80, "duration": 10, "velocity": 71}, {"time": 111240, "pitch": 80, "duration": 10, "velocity": 77}, {"time": 111360, "pitch": 35, "duration": 10, "velocity": 96}, {"time": 111360, "pitch": 42, "duration": 10, "velocity": 71}, {"time": 111360, "pitch": 81, "duration": 10, "velocity": 89}, {"time": 111479, "pitch": 42, "duration": 10, "velocity": 45}, {"time": 111598, "pitch": 42, "duration": 10, "velocity": 66}, {"time": 111598, "pitch": 80, "duration": 10, "velocity": 75}, {"time": 111718, "pitch": 38, "duration": 10, "velocity": 61}, {"time": 111718, "pitch": 80, "duration": 10, "velocity": 75}, {"time": 111837, "pitch": 39, "duration": 10, "velocity": 105}, {"time": 111837, "pitch": 46, "duration": 10, "velocity": 53}, {"time": 111958, "pitch": 28, "duration": 10, "velocity": 66}, {"time": 112080, "pitch": 35, "duration": 10, "velocity": 96}, {"time": 112080, "pitch": 46, "duration": 10, "velocity": 77}, {"time": 112322, "pitch": 35, "duration": 10, "velocity": 108}, {"time": 112322, "pitch": 42, "duration": 10, "velocity": 103}, {"time": 112441, "pitch": 42, "duration": 10, "velocity": 45}, {"time": 112561, "pitch": 42, "duration": 10, "velocity": 45}, {"time": 112680, "pitch": 35, "duration": 10, "velocity": 105}, {"time": 112800, "pitch": 28, "duration": 9, "velocity": 100}, {"time": 112800, "pitch": 42, "duration": 9, "velocity": 98}, {"time": 113038, "pitch": 35, "duration": 10, "velocity": 108}, {"time": 113038, "pitch": 42, "duration": 10, "velocity": 61}, {"time": 113158, "pitch": 38, "duration": 10, "velocity": 51}, {"time": 113277, "pitch": 42, "duration": 10, "velocity": 95}, {"time": 113520, "pitch": 35, "duration": 10, "velocity": 97}, {"time": 113520, "pitch": 42, "duration": 10, "velocity": 50}, {"time": 113641, "pitch": 42, "duration": 10, "velocity": 45}, {"time": 113762, "pitch": 28, "duration": 10, "velocity": 92}, {"time": 113762, "pitch": 46, "duration": 10, "velocity": 53}, {"time": 114001, "pitch": 42, "duration": 10, "velocity": 71}, {"time": 114120, "pitch": 42, "duration": 10, "velocity": 37}, {"time": 114239, "pitch": 35, "duration": 10, "velocity": 108}, {"time": 114239, "pitch": 42, "duration": 10, "velocity": 97}, {"time": 114478, "pitch": 42, "duration": 10, "velocity": 69}, {"time": 114598, "pitch": 35, "duration": 10, "velocity": 97}, {"time": 114717, "pitch": 28, "duration": 10, "velocity": 101}, {"time": 114717, "pitch": 42, "duration": 10, "velocity": 107}, {"time": 114959, "pitch": 35, "duration": 11, "velocity": 93}, {"time": 114959, "pitch": 42, "duration": 11, "velocity": 58}, {"time": 114959, "pitch": 80, "duration": 11, "velocity": 71}, {"time": 115081, "pitch": 80, "duration": 10, "velocity": 77}, {"time": 115202, "pitch": 35, "duration": 10, "velocity": 96}, {"time": 115202, "pitch": 42, "duration": 10, "velocity": 71}, {"time": 115202, "pitch": 81, "duration": 10, "velocity": 89}, {"time": 115321, "pitch": 42, "duration": 10, "velocity": 45}, {"time": 115441, "pitch": 42, "duration": 10, "velocity": 66}, {"time": 115441, "pitch": 62, "duration": 10, "velocity": 67}, {"time": 115441, "pitch": 80, "duration": 10, "velocity": 75}, {"time": 115560, "pitch": 38, "duration": 10, "velocity": 61}, {"time": 115560, "pitch": 62, "duration": 10, "velocity": 29}, {"time": 115560, "pitch": 80, "duration": 10, "velocity": 75}, {"time": 115679, "pitch": 39, "duration": 10, "velocity": 105}, {"time": 115679, "pitch": 46, "duration": 10, "velocity": 53}, {"time": 115679, "pitch": 63, "duration": 10, "velocity": 61}, {"time": 115799, "pitch": 28, "duration": 10, "velocity": 66}, {"time": 115799, "pitch": 63, "duration": 10, "velocity": 50}, {"time": 115918, "pitch": 35, "duration": 10, "velocity": 96}, {"time": 115918, "pitch": 46, "duration": 10, "velocity": 77}, {"time": 115918, "pitch": 64, "duration": 10, "velocity": 64}, {"time": 116038, "pitch": 38, "duration": 10, "velocity": 69}, {"time": 116157, "pitch": 35, "duration": 10, "velocity": 108}, {"time": 116157, "pitch": 42, "duration": 10, "velocity": 103}, {"time": 116157, "pitch": 57, "duration": 10, "velocity": 50}, {"time": 116278, "pitch": 42, "duration": 10, "velocity": 45}, {"time": 116399, "pitch": 42, "duration": 11, "velocity": 45}, {"time": 116521, "pitch": 35, "duration": 10, "velocity": 105}, {"time": 116642, "pitch": 28, "duration": 10, "velocity": 100}, {"time": 116642, "pitch": 42, "duration": 10, "velocity": 98}, {"time": 116881, "pitch": 35, "duration": 10, "velocity": 108}, {"time": 116881, "pitch": 42, "duration": 10, "velocity": 61}, {"time": 117000, "pitch": 38, "duration": 10, "velocity": 51}, {"time": 117119, "pitch": 42, "duration": 10, "velocity": 95}, {"time": 117358, "pitch": 35, "duration": 10, "velocity": 97}, {"time": 117358, "pitch": 42, "duration": 10, "velocity": 50}, {"time": 117478, "pitch": 42, "duration": 10, "velocity": 45}, {"time": 117597, "pitch": 28, "duration": 10, "velocity": 92}, {"time": 117597, "pitch": 46, "duration": 10, "velocity": 53}, {"time": 117839, "pitch": 42, "duration": 11, "velocity": 71}, {"time": 117961, "pitch": 42, "duration": 10, "velocity": 37}, {"time": 118082, "pitch": 35, "duration": 10, "velocity": 108}, {"time": 118082, "pitch": 42, "duration": 10, "velocity": 97}, {"time": 118321, "pitch": 42, "duration": 10, "velocity": 69}, {"time": 118440, "pitch": 35, "duration": 10, "velocity": 97}, {"time": 118559, "pitch": 28, "duration": 10, "velocity": 101}, {"time": 118559, "pitch": 42, "duration": 10, "velocity": 107}, {"time": 118798, "pitch": 35, "duration": 10, "velocity": 93}, {"time": 118798, "pitch": 42, "duration": 10, "velocity": 58}, {"time": 118798, "pitch": 80, "duration": 10, "velocity": 71}, {"time": 118918, "pitch": 80, "duration": 10, "velocity": 77}, {"time": 119037, "pitch": 35, "duration": 10, "velocity": 96}, {"time": 119037, "pitch": 42, "duration": 10, "velocity": 71}, {"time": 119037, "pitch": 81, "duration": 10, "velocity": 89}, {"time": 119158, "pitch": 42, "duration": 10, "velocity": 45}, {"time": 119279, "pitch": 42, "duration": 10, "velocity": 66}, {"time": 119279, "pitch": 80, "duration": 10, "velocity": 75}, {"time": 119401, "pitch": 38, "duration": 10, "velocity": 61}, {"time": 119401, "pitch": 80, "duration": 10, "velocity": 75}, {"time": 119522, "pitch": 39, "duration": 10, "velocity": 105}, {"time": 119522, "pitch": 46, "duration": 10, "velocity": 53}, {"time": 119641, "pitch": 28, "duration": 10, "velocity": 66}, {"time": 119761, "pitch": 35, "duration": 10, "velocity": 96}, {"time": 119761, "pitch": 46, "duration": 10, "velocity": 77}, {"time": 119999, "pitch": 35, "duration": 10, "velocity": 108}, {"time": 119999, "pitch": 42, "duration": 10, "velocity": 103}, {"time": 120119, "pitch": 42, "duration": 10, "velocity": 45}, {"time": 120238, "pitch": 42, "duration": 10, "velocity": 45}, {"time": 120358, "pitch": 35, "duration": 10, "velocity": 105}, {"time": 120477, "pitch": 28, "duration": 10, "velocity": 100}, {"time": 120477, "pitch": 42, "duration": 10, "velocity": 98}, {"time": 120719, "pitch": 35, "duration": 10, "velocity": 108}, {"time": 120719, "pitch": 42, "duration": 10, "velocity": 61}, {"time": 120841, "pitch": 38, "duration": 10, "velocity": 51}, {"time": 120962, "pitch": 42, "duration": 10, "velocity": 95}, {"time": 121201, "pitch": 35, "duration": 9, "velocity": 97}, {"time": 121201, "pitch": 42, "duration": 9, "velocity": 50}, {"time": 121320, "pitch": 42, "duration": 10, "velocity": 45}, {"time": 121439, "pitch": 28, "duration": 10, "velocity": 92}, {"time": 121439, "pitch": 46, "duration": 10, "velocity": 53}, {"time": 121678, "pitch": 42, "duration": 10, "velocity": 71}, {"time": 121798, "pitch": 42, "duration": 9, "velocity": 37}, {"time": 121917, "pitch": 35, "duration": 10, "velocity": 108}, {"time": 121917, "pitch": 42, "duration": 10, "velocity": 97}, {"time": 122159, "pitch": 42, "duration": 10, "velocity": 69}, {"time": 122281, "pitch": 35, "duration": 10, "velocity": 97}, {"time": 122402, "pitch": 28, "duration": 10, "velocity": 101}, {"time": 122402, "pitch": 42, "duration": 10, "velocity": 107}, {"time": 122640, "pitch": 35, "duration": 10, "velocity": 93}, {"time": 122640, "pitch": 42, "duration": 10, "velocity": 58}, {"time": 122640, "pitch": 80, "duration": 10, "velocity": 71}, {"time": 122760, "pitch": 80, "duration": 10, "velocity": 77}, {"time": 122879, "pitch": 35, "duration": 10, "velocity": 96}, {"time": 122879, "pitch": 42, "duration": 10, "velocity": 71}, {"time": 122879, "pitch": 81, "duration": 10, "velocity": 89}, {"time": 122999, "pitch": 42, "duration": 10, "velocity": 45}, {"time": 123118, "pitch": 42, "duration": 10, "velocity": 66}, {"time": 123118, "pitch": 62, "duration": 10, "velocity": 67}, {"time": 123118, "pitch": 80, "duration": 10, "velocity": 75}, {"time": 123237, "pitch": 38, "duration": 10, "velocity": 61}, {"time": 123237, "pitch": 62, "duration": 10, "velocity": 29}, {"time": 123237, "pitch": 80, "duration": 10, "velocity": 75}, {"time": 123357, "pitch": 39, "duration": 10, "velocity": 105}, {"time": 123357, "pitch": 46, "duration": 10, "velocity": 53}, {"time": 123357, "pitch": 63, "duration": 10, "velocity": 61}, {"time": 123478, "pitch": 28, "duration": 10, "velocity": 66}, {"time": 123478, "pitch": 63, "duration": 10, "velocity": 50}, {"time": 123599, "pitch": 35, "duration": 10, "velocity": 96}, {"time": 123599, "pitch": 40, "duration": 10, "velocity": 51}, {"time": 123599, "pitch": 46, "duration": 10, "velocity": 77}, {"time": 123599, "pitch": 64, "duration": 10, "velocity": 64}, {"time": 123720, "pitch": 40, "duration": 11, "velocity": 68}, {"time": 123842, "pitch": 35, "duration": 10, "velocity": 108}, {"time": 123842, "pitch": 42, "duration": 10, "velocity": 103}, {"time": 123842, "pitch": 49, "duration": 10, "velocity": 48}, {"time": 123961, "pitch": 42, "duration": 10, "velocity": 45}, {"time": 124080, "pitch": 42, "duration": 10, "velocity": 45}, {"time": 124200, "pitch": 35, "duration": 10, "velocity": 105}, {"time": 124319, "pitch": 28, "duration": 10, "velocity": 100}, {"time": 124319, "pitch": 42, "duration": 10, "velocity": 98}, {"time": 124558, "pitch": 35, "duration": 10, "velocity": 108}, {"time": 124558, "pitch": 42, "duration": 10, "velocity": 61}, {"time": 124677, "pitch": 38, "duration": 10, "velocity": 51}, {"time": 124797, "pitch": 42, "duration": 10, "velocity": 95}, {"time": 125039, "pitch": 35, "duration": 10, "velocity": 97}, {"time": 125039, "pitch": 42, "duration": 10, "velocity": 50}, {"time": 125160, "pitch": 42, "duration": 11, "velocity": 45}, {"time": 125282, "pitch": 28, "duration": 10, "velocity": 92}, {"time": 125282, "pitch": 46, "duration": 10, "velocity": 53}, {"time": 125520, "pitch": 42, "duration": 10, "velocity": 71}, {"time": 125640, "pitch": 42, "duration": 10, "velocity": 37}, {"time": 125759, "pitch": 35, "duration": 10, "velocity": 108}, {"time": 125759, "pitch": 42, "duration": 10, "velocity": 97}, {"time": 125998, "pitch": 42, "duration": 10, "velocity": 69}, {"time": 126117, "pitch": 35, "duration": 10, "velocity": 97}, {"time": 126237, "pitch": 28, "duration": 10, "velocity": 101}, {"time": 126237, "pitch": 42, "duration": 10, "velocity": 107}, {"time": 126479, "pitch": 35, "duration": 10, "velocity": 93}, {"time": 126479, "pitch": 42, "duration": 10, "velocity": 58}, {"time": 126479, "pitch": 80, "duration": 10, "velocity": 71}, {"time": 126600, "pitch": 80, "duration": 10, "velocity": 77}, {"time": 126722, "pitch": 35, "duration": 10, "velocity": 96}, {"time": 126722, "pitch": 42, "duration": 10, "velocity": 71}, {"time": 126722, "pitch": 81, "duration": 10, "velocity": 89}, {"time": 126841, "pitch": 42, "duration": 10, "velocity": 45}, {"time": 126960, "pitch": 42, "duration": 10, "velocity": 66}, {"time": 126960, "pitch": 80, "duration": 10, "velocity": 75}, {"time": 127080, "pitch": 38, "duration": 10, "velocity": 61}, {"time": 127080, "pitch": 80, "duration": 10, "velocity": 75}, {"time": 127199, "pitch": 39, "duration": 10, "velocity": 105}, {"time": 127199, "pitch": 46, "duration": 10, "velocity": 53}, {"time": 127319, "pitch": 28, "duration": 10, "velocity": 66}, {"time": 127438, "pitch": 35, "duration": 10, "velocity": 96}, {"time": 127438, "pitch": 46, "duration": 10, "velocity": 77}, {"time": 127677, "pitch": 35, "duration": 10, "velocity": 108}, {"time": 127677, "pitch": 42, "duration": 10, "velocity": 103}, {"time": 127798, "pitch": 42, "duration": 10, "velocity": 45}, {"time": 127919, "pitch": 42, "duration": 10, "velocity": 45}, {"time": 128040, "pitch": 35, "duration": 10, "velocity": 105}, {"time": 128162, "pitch": 28, "duration": 9, "velocity": 100}, {"time": 128162, "pitch": 42, "duration": 9, "velocity": 98}, {"time": 128400, "pitch": 35, "duration": 10, "velocity": 108}, {"time": 128400, "pitch": 42, "duration": 10, "velocity": 61}, {"time": 128520, "pitch": 38, "duration": 10, "velocity": 51}, {"time": 128639, "pitch": 42, "duration": 10, "velocity": 95}, {"time": 128878, "pitch": 35, "duration": 10, "velocity": 97}, {"time": 128878, "pitch": 42, "duration": 10, "velocity": 50}, {"time": 128997, "pitch": 42, "duration": 10, "velocity": 45}, {"time": 129117, "pitch": 28, "duration": 10, "velocity": 92}, {"time": 129117, "pitch": 46, "duration": 10, "velocity": 53}, {"time": 129359, "pitch": 42, "duration": 10, "velocity": 71}, {"time": 129480, "pitch": 42, "duration": 10, "velocity": 37}, {"time": 129602, "pitch": 35, "duration": 9, "velocity": 108}, {"time": 129602, "pitch": 42, "duration": 9, "velocity": 97}, {"time": 129840, "pitch": 42, "duration": 10, "velocity": 69}, {"time": 129960, "pitch": 35, "duration": 10, "velocity": 97}, {"time": 130079, "pitch": 28, "duration": 10, "velocity": 101}, {"time": 130079, "pitch": 42, "duration": 10, "velocity": 107}, {"time": 130318, "pitch": 35, "duration": 10, "velocity": 93}, {"time": 130318, "pitch": 42, "duration": 10, "velocity": 58}, {"time": 130318, "pitch": 80, "duration": 10, "velocity": 71}, {"time": 130437, "pitch": 80, "duration": 10, "velocity": 77}, {"time": 130557, "pitch": 35, "duration": 10, "velocity": 96}, {"time": 130557, "pitch": 42, "duration": 10, "velocity": 71}, {"time": 130557, "pitch": 81, "duration": 10, "velocity": 89}, {"time": 130678, "pitch": 35, "duration": 10, "velocity": 33}, {"time": 130678, "pitch": 42, "duration": 10, "velocity": 45}, {"time": 130799, "pitch": 42, "duration": 10, "velocity": 66}, {"time": 130799, "pitch": 62, "duration": 10, "velocity": 67}, {"time": 130799, "pitch": 80, "duration": 10, "velocity": 75}, {"time": 130920, "pitch": 35, "duration": 10, "velocity": 78}, {"time": 130920, "pitch": 38, "duration": 10, "velocity": 61}, {"time": 130920, "pitch": 62, "duration": 10, "velocity": 29}, {"time": 130920, "pitch": 80, "duration": 10, "velocity": 75}, {"time": 131041, "pitch": 39, "duration": 10, "velocity": 105}, {"time": 131041, "pitch": 40, "duration": 10, "velocity": 62}, {"time": 131041, "pitch": 46, "duration": 10, "velocity": 53}, {"time": 131041, "pitch": 63, "duration": 10, "velocity": 61}, {"time": 131161, "pitch": 28, "duration": 10, "velocity": 66}, {"time": 131161, "pitch": 63, "duration": 10, "velocity": 50}, {"time": 131280, "pitch": 35, "duration": 10, "velocity": 96}, {"time": 131280, "pitch": 46, "duration": 10, "velocity": 77}, {"time": 131280, "pitch": 64, "duration": 10, "velocity": 64}, {"time": 131400, "pitch": 40, "duration": 10, "velocity": 55}, {"time": 131519, "pitch": 35, "duration": 10, "velocity": 108}, {"time": 131519, "pitch": 42, "duration": 10, "velocity": 103}, {"time": 131519, "pitch": 57, "duration": 10, "velocity": 42}, {"time": 131638, "pitch": 42, "duration": 10, "velocity": 45}, {"time": 131758, "pitch": 42, "duration": 10, "velocity": 45}, {"time": 131877, "pitch": 35, "duration": 10, "velocity": 105}, {"time": 131997, "pitch": 28, "duration": 10, "velocity": 100}, {"time": 131997, "pitch": 42, "duration": 10, "velocity": 98}, {"time": 132239, "pitch": 35, "duration": 10, "velocity": 108}, {"time": 132239, "pitch": 42, "duration": 10, "velocity": 61}, {"time": 132360, "pitch": 38, "duration": 10, "velocity": 51}, {"time": 132481, "pitch": 42, "duration": 10, "velocity": 95}, {"time": 132720, "pitch": 35, "duration": 10, "velocity": 97}, {"time": 132720, "pitch": 42, "duration": 10, "velocity": 50}, {"time": 132840, "pitch": 42, "duration": 10, "velocity": 45}, {"time": 132959, "pitch": 28, "duration": 10, "velocity": 92}, {"time": 132959, "pitch": 46, "duration": 10, "velocity": 53}, {"time": 133198, "pitch": 42, "duration": 10, "velocity": 71}, {"time": 133317, "pitch": 42, "duration": 10, "velocity": 37}, {"time": 133437, "pitch": 35, "duration": 10, "velocity": 108}, {"time": 133437, "pitch": 42, "duration": 10, "velocity": 97}, {"time": 133679, "pitch": 42, "duration": 10, "velocity": 69}, {"time": 133800, "pitch": 35, "duration": 10, "velocity": 97}, {"time": 133921, "pitch": 28, "duration": 10, "velocity": 101}, {"time": 133921, "pitch": 42, "duration": 10, "velocity": 107}, {"time": 134160, "pitch": 35, "duration": 10, "velocity": 93}, {"time": 134160, "pitch": 42, "duration": 10, "velocity": 58}, {"time": 134160, "pitch": 80, "duration": 10, "velocity": 71}, {"time": 134280, "pitch": 80, "duration": 10, "velocity": 77}, {"time": 134399, "pitch": 35, "duration": 10, "velocity": 96}, {"time": 134399, "pitch": 42, "duration": 10, "velocity": 71}, {"time": 134399, "pitch": 81, "duration": 10, "velocity": 89}, {"time": 134518, "pitch": 42, "duration": 10, "velocity": 45}, {"time": 134638, "pitch": 42, "duration": 10, "velocity": 66}, {"time": 134638, "pitch": 80, "duration": 10, "velocity": 75}, {"time": 134757, "pitch": 38, "duration": 10, "velocity": 61}, {"time": 134757, "pitch": 80, "duration": 10, "velocity": 75}, {"time": 134877, "pitch": 39, "duration": 10, "velocity": 105}, {"time": 134877, "pitch": 46, "duration": 10, "velocity": 53}, {"time": 134998, "pitch": 28, "duration": 10, "velocity": 66}, {"time": 135119, "pitch": 35, "duration": 10, "velocity": 96}, {"time": 135119, "pitch": 46, "duration": 10, "velocity": 77}, {"time": 135361, "pitch": 35, "duration": 10, "velocity": 108}, {"time": 135361, "pitch": 42, "duration": 10, "velocity": 103}, {"time": 135481, "pitch": 42, "duration": 10, "velocity": 45}, {"time": 135600, "pitch": 42, "duration": 10, "velocity": 45}, {"time": 135720, "pitch": 35, "duration": 10, "velocity": 105}, {"time": 135839, "pitch": 28, "duration": 10, "velocity": 100}, {"time": 135839, "pitch": 42, "duration": 10, "velocity": 98}, {"time": 136078, "pitch": 35, "duration": 10, "velocity": 108}, {"time": 136078, "pitch": 42, "duration": 10, "velocity": 61}, {"time": 136197, "pitch": 38, "duration": 10, "velocity": 51}, {"time": 136317, "pitch": 42, "duration": 10, "velocity": 95}, {"time": 136559, "pitch": 35, "duration": 10, "velocity": 97}, {"time": 136559, "pitch": 42, "duration": 10, "velocity": 50}, {"time": 136680, "pitch": 42, "duration": 10, "velocity": 45}, {"time": 136801, "pitch": 28, "duration": 10, "velocity": 92}, {"time": 136801, "pitch": 46, "duration": 10, "velocity": 53}, {"time": 137040, "pitch": 42, "duration": 10, "velocity": 71}, {"time": 137160, "pitch": 42, "duration": 9, "velocity": 37}, {"time": 137279, "pitch": 35, "duration": 10, "velocity": 108}, {"time": 137279, "pitch": 42, "duration": 10, "velocity": 97}, {"time": 137518, "pitch": 42, "duration": 10, "velocity": 69}, {"time": 137637, "pitch": 35, "duration": 10, "velocity": 97}, {"time": 137757, "pitch": 28, "duration": 10, "velocity": 101}, {"time": 137757, "pitch": 42, "duration": 10, "velocity": 107}, {"time": 137999, "pitch": 35, "duration": 10, "velocity": 93}, {"time": 137999, "pitch": 42, "duration": 10, "velocity": 58}, {"time": 137999, "pitch": 80, "duration": 10, "velocity": 71}, {"time": 138120, "pitch": 80, "duration": 10, "velocity": 77}, {"time": 138241, "pitch": 35, "duration": 10, "velocity": 96}, {"time": 138241, "pitch": 42, "duration": 10, "velocity": 71}, {"time": 138241, "pitch": 81, "duration": 10, "velocity": 89}, {"time": 138361, "pitch": 42, "duration": 10, "velocity": 45}, {"time": 138480, "pitch": 42, "duration": 10, "velocity": 66}, {"time": 138480, "pitch": 62, "duration": 10, "velocity": 67}, {"time": 138480, "pitch": 80, "duration": 10, "velocity": 75}, {"time": 138599, "pitch": 38, "duration": 10, "velocity": 61}, {"time": 138599, "pitch": 62, "duration": 10, "velocity": 29}, {"time": 138599, "pitch": 80, "duration": 10, "velocity": 75}, {"time": 138719, "pitch": 35, "duration": 10, "velocity": 78}, {"time": 138719, "pitch": 39, "duration": 10, "velocity": 105}, {"time": 138719, "pitch": 46, "duration": 10, "velocity": 53}, {"time": 138719, "pitch": 49, "duration": 10, "velocity": 35}, {"time": 138719, "pitch": 63, "duration": 10, "velocity": 61}, {"time": 138838, "pitch": 40, "duration": 10, "velocity": 79}, {"time": 138838, "pitch": 63, "duration": 10, "velocity": 50}, {"time": 138958, "pitch": 35, "duration": 10, "velocity": 96}, {"time": 138958, "pitch": 46, "duration": 10, "velocity": 77}, {"time": 138958, "pitch": 64, "duration": 10, "velocity": 64}, {"time": 139077, "pitch": 38, "duration": 10, "velocity": 38}, {"time": 139117, "pitch": 38, "duration": 10, "velocity": 38}, {"time": 139157, "pitch": 38, "duration": 10, "velocity": 59}, {"time": 139196, "pitch": 35, "duration": 11, "velocity": 108}, {"time": 139196, "pitch": 42, "duration": 11, "velocity": 103}, {"time": 139196, "pitch": 49, "duration": 11, "velocity": 48}, {"time": 139318, "pitch": 42, "duration": 10, "velocity": 45}, {"time": 139439, "pitch": 42, "duration": 10, "velocity": 45}, {"time": 139560, "pitch": 35, "duration": 10, "velocity": 105}, {"time": 139681, "pitch": 28, "duration": 10, "velocity": 100}, {"time": 139681, "pitch": 42, "duration": 10, "velocity": 98}, {"time": 139920, "pitch": 35, "duration": 10, "velocity": 108}, {"time": 139920, "pitch": 42, "duration": 10, "velocity": 61}, {"time": 140039, "pitch": 38, "duration": 10, "velocity": 51}, {"time": 140159, "pitch": 42, "duration": 10, "velocity": 95}, {"time": 140398, "pitch": 35, "duration": 10, "velocity": 97}, {"time": 140398, "pitch": 42, "duration": 10, "velocity": 50}, {"time": 140517, "pitch": 42, "duration": 10, "velocity": 45}, {"time": 140636, "pitch": 28, "duration": 11, "velocity": 92}, {"time": 140636, "pitch": 46, "duration": 11, "velocity": 53}, {"time": 140879, "pitch": 42, "duration": 10, "velocity": 71}, {"time": 141000, "pitch": 42, "duration": 10, "velocity": 37}, {"time": 141121, "pitch": 35, "duration": 10, "velocity": 108}, {"time": 141121, "pitch": 42, "duration": 10, "velocity": 97}, {"time": 141360, "pitch": 42, "duration": 10, "velocity": 69}, {"time": 141479, "pitch": 35, "duration": 10, "velocity": 97}, {"time": 141599, "pitch": 28, "duration": 10, "velocity": 101}, {"time": 141599, "pitch": 42, "duration": 10, "velocity": 107}, {"time": 141838, "pitch": 35, "duration": 10, "velocity": 93}, {"time": 141838, "pitch": 42, "duration": 10, "velocity": 58}, {"time": 141838, "pitch": 80, "duration": 10, "velocity": 71}, {"time": 141957, "pitch": 80, "duration": 10, "velocity": 77}, {"time": 142076, "pitch": 35, "duration": 10, "velocity": 96}, {"time": 142076, "pitch": 42, "duration": 10, "velocity": 71}, {"time": 142076, "pitch": 81, "duration": 10, "velocity": 89}, {"time": 142198, "pitch": 42, "duration": 10, "velocity": 45}, {"time": 142319, "pitch": 42, "duration": 10, "velocity": 66}, {"time": 142319, "pitch": 80, "duration": 10, "velocity": 75}, {"time": 142440, "pitch": 38, "duration": 10, "velocity": 61}, {"time": 142440, "pitch": 80, "duration": 10, "velocity": 75}, {"time": 142561, "pitch": 39, "duration": 10, "velocity": 105}, {"time": 142561, "pitch": 46, "duration": 10, "velocity": 53}, {"time": 142681, "pitch": 28, "duration": 10, "velocity": 66}, {"time": 142800, "pitch": 35, "duration": 10, "velocity": 96}, {"time": 142800, "pitch": 46, "duration": 10, "velocity": 77}, {"time": 143039, "pitch": 35, "duration": 10, "velocity": 108}, {"time": 143039, "pitch": 42, "duration": 10, "velocity": 103}, {"time": 143160, "pitch": 42, "duration": 10, "velocity": 45}, {"time": 143281, "pitch": 42, "duration": 10, "velocity": 45}, {"time": 143402, "pitch": 35, "duration": 10, "velocity": 105}, {"time": 143524, "pitch": 28, "duration": 9, "velocity": 100}, {"time": 143524, "pitch": 42, "duration": 9, "velocity": 98}, {"time": 143762, "pitch": 35, "duration": 10, "velocity": 108}, {"time": 143762, "pitch": 42, "duration": 10, "velocity": 61}, {"time": 143882, "pitch": 38, "duration": 10, "velocity": 51}, {"time": 144001, "pitch": 42, "duration": 10, "velocity": 95}, {"time": 144240, "pitch": 35, "duration": 10, "velocity": 97}, {"time": 144240, "pitch": 42, "duration": 10, "velocity": 50}, {"time": 144359, "pitch": 42, "duration": 10, "velocity": 45}, {"time": 144479, "pitch": 28, "duration": 10, "velocity": 92}, {"time": 144479, "pitch": 46, "duration": 10, "velocity": 53}, {"time": 144721, "pitch": 42, "duration": 10, "velocity": 71}, {"time": 144842, "pitch": 42, "duration": 10, "velocity": 37}, {"time": 144964, "pitch": 35, "duration": 9, "velocity": 108}, {"time": 144964, "pitch": 42, "duration": 9, "velocity": 97}, {"time": 145202, "pitch": 42, "duration": 10, "velocity": 69}, {"time": 145322, "pitch": 35, "duration": 10, "velocity": 97}, {"time": 145441, "pitch": 28, "duration": 10, "velocity": 101}, {"time": 145441, "pitch": 42, "duration": 10, "velocity": 107}, {"time": 145680, "pitch": 35, "duration": 10, "velocity": 93}, {"time": 145680, "pitch": 42, "duration": 10, "velocity": 58}, {"time": 145680, "pitch": 80, "duration": 10, "velocity": 71}, {"time": 145799, "pitch": 80, "duration": 10, "velocity": 77}, {"time": 145919, "pitch": 35, "duration": 10, "velocity": 96}, {"time": 145919, "pitch": 42, "duration": 10, "velocity": 71}, {"time": 145919, "pitch": 81, "duration": 10, "velocity": 89}, {"time": 146040, "pitch": 35, "duration": 10, "velocity": 33}, {"time": 146040, "pitch": 42, "duration": 10, "velocity": 45}, {"time": 146161, "pitch": 42, "duration": 10, "velocity": 66}, {"time": 146161, "pitch": 62, "duration": 10, "velocity": 67}, {"time": 146161, "pitch": 80, "duration": 10, "velocity": 75}, {"time": 146282, "pitch": 35, "duration": 10, "velocity": 78}, {"time": 146282, "pitch": 38, "duration": 10, "velocity": 61}, {"time": 146282, "pitch": 62, "duration": 10, "velocity": 29}, {"time": 146282, "pitch": 80, "duration": 10, "velocity": 75}, {"time": 146403, "pitch": 39, "duration": 10, "velocity": 105}, {"time": 146403, "pitch": 40, "duration": 10, "velocity": 62}, {"time": 146403, "pitch": 46, "duration": 10, "velocity": 53}, {"time": 146403, "pitch": 63, "duration": 10, "velocity": 61}, {"time": 146523, "pitch": 28, "duration": 10, "velocity": 66}, {"time": 146523, "pitch": 63, "duration": 10, "velocity": 50}, {"time": 146642, "pitch": 35, "duration": 10, "velocity": 96}, {"time": 146642, "pitch": 46, "duration": 10, "velocity": 77}, {"time": 146642, "pitch": 64, "duration": 10, "velocity": 64}, {"time": 146762, "pitch": 40, "duration": 10, "velocity": 55}, {"time": 146881, "pitch": 35, "duration": 10, "velocity": 108}, {"time": 146881, "pitch": 42, "duration": 10, "velocity": 103}, {"time": 146881, "pitch": 57, "duration": 10, "velocity": 42}, {"time": 147000, "pitch": 42, "duration": 10, "velocity": 45}, {"time": 147120, "pitch": 42, "duration": 10, "velocity": 45}, {"time": 147239, "pitch": 35, "duration": 10, "velocity": 105}, {"time": 147359, "pitch": 28, "duration": 10, "velocity": 100}, {"time": 147359, "pitch": 42, "duration": 10, "velocity": 98}, {"time": 147601, "pitch": 35, "duration": 10, "velocity": 108}, {"time": 147601, "pitch": 42, "duration": 10, "velocity": 61}, {"time": 147722, "pitch": 38, "duration": 10, "velocity": 51}, {"time": 147843, "pitch": 42, "duration": 10, "velocity": 95}, {"time": 148082, "pitch": 35, "duration": 10, "velocity": 97}, {"time": 148082, "pitch": 42, "duration": 10, "velocity": 50}, {"time": 148202, "pitch": 42, "duration": 10, "velocity": 45}, {"time": 148321, "pitch": 28, "duration": 10, "velocity": 92}, {"time": 148321, "pitch": 46, "duration": 10, "velocity": 53}, {"time": 148560, "pitch": 42, "duration": 10, "velocity": 71}, {"time": 148679, "pitch": 42, "duration": 10, "velocity": 37}, {"time": 148799, "pitch": 35, "duration": 10, "velocity": 108}, {"time": 148799, "pitch": 42, "duration": 10, "velocity": 97}, {"time": 149041, "pitch": 42, "duration": 10, "velocity": 69}, {"time": 149162, "pitch": 35, "duration": 10, "velocity": 97}, {"time": 149283, "pitch": 28, "duration": 10, "velocity": 101}, {"time": 149283, "pitch": 42, "duration": 10, "velocity": 107}, {"time": 149522, "pitch": 35, "duration": 10, "velocity": 93}, {"time": 149522, "pitch": 42, "duration": 10, "velocity": 58}, {"time": 149522, "pitch": 80, "duration": 10, "velocity": 71}, {"time": 149642, "pitch": 80, "duration": 10, "velocity": 77}, {"time": 149761, "pitch": 35, "duration": 10, "velocity": 96}, {"time": 149761, "pitch": 42, "duration": 10, "velocity": 71}, {"time": 149761, "pitch": 81, "duration": 10, "velocity": 89}, {"time": 149880, "pitch": 42, "duration": 10, "velocity": 45}, {"time": 150000, "pitch": 42, "duration": 10, "velocity": 66}, {"time": 150000, "pitch": 80, "duration": 10, "velocity": 75}, {"time": 150119, "pitch": 38, "duration": 10, "velocity": 61}, {"time": 150119, "pitch": 80, "duration": 10, "velocity": 75}, {"time": 150239, "pitch": 39, "duration": 10, "velocity": 105}, {"time": 150239, "pitch": 46, "duration": 10, "velocity": 53}, {"time": 150360, "pitch": 28, "duration": 10, "velocity": 66}, {"time": 150481, "pitch": 35, "duration": 10, "velocity": 96}, {"time": 150481, "pitch": 46, "duration": 10, "velocity": 77}, {"time": 150723, "pitch": 35, "duration": 10, "velocity": 108}, {"time": 150723, "pitch": 42, "duration": 10, "velocity": 103}, {"time": 150843, "pitch": 42, "duration": 10, "velocity": 45}, {"time": 150962, "pitch": 42, "duration": 10, "velocity": 45}, {"time": 151082, "pitch": 35, "duration": 10, "velocity": 105}, {"time": 151201, "pitch": 28, "duration": 10, "velocity": 100}, {"time": 151201, "pitch": 42, "duration": 10, "velocity": 98}, {"time": 151440, "pitch": 35, "duration": 10, "velocity": 108}, {"time": 151440, "pitch": 42, "duration": 10, "velocity": 61}, {"time": 151559, "pitch": 38, "duration": 10, "velocity": 51}, {"time": 151679, "pitch": 42, "duration": 10, "velocity": 95}, {"time": 151921, "pitch": 35, "duration": 10, "velocity": 97}, {"time": 151921, "pitch": 42, "duration": 10, "velocity": 50}, {"time": 152042, "pitch": 42, "duration": 10, "velocity": 45}, {"time": 152163, "pitch": 28, "duration": 10, "velocity": 92}, {"time": 152163, "pitch": 46, "duration": 10, "velocity": 53}, {"time": 152402, "pitch": 42, "duration": 10, "velocity": 71}, {"time": 152522, "pitch": 42, "duration": 9, "velocity": 37}, {"time": 152641, "pitch": 35, "duration": 10, "velocity": 108}, {"time": 152641, "pitch": 42, "duration": 10, "velocity": 97}, {"time": 152880, "pitch": 42, "duration": 10, "velocity": 69}, {"time": 152999, "pitch": 35, "duration": 10, "velocity": 97}, {"time": 153119, "pitch": 28, "duration": 10, "velocity": 101}, {"time": 153119, "pitch": 42, "duration": 10, "velocity": 107}, {"time": 153361, "pitch": 35, "duration": 10, "velocity": 93}, {"time": 153361, "pitch": 42, "duration": 10, "velocity": 58}, {"time": 153361, "pitch": 80, "duration": 10, "velocity": 71}, {"time": 153482, "pitch": 80, "duration": 10, "velocity": 77}, {"time": 153603, "pitch": 35, "duration": 10, "velocity": 96}, {"time": 153603, "pitch": 42, "duration": 10, "velocity": 71}, {"time": 153603, "pitch": 81, "duration": 10, "velocity": 89}, {"time": 153723, "pitch": 42, "duration": 10, "velocity": 45}, {"time": 153842, "pitch": 42, "duration": 10, "velocity": 66}, {"time": 153842, "pitch": 62, "duration": 10, "velocity": 67}, {"time": 153842, "pitch": 80, "duration": 10, "velocity": 75}, {"time": 153961, "pitch": 38, "duration": 10, "velocity": 61}, {"time": 153961, "pitch": 62, "duration": 10, "velocity": 29}, {"time": 153961, "pitch": 80, "duration": 10, "velocity": 75}, {"time": 154081, "pitch": 35, "duration": 10, "velocity": 78}, {"time": 154081, "pitch": 39, "duration": 10, "velocity": 105}, {"time": 154081, "pitch": 46, "duration": 10, "velocity": 53}, {"time": 154081, "pitch": 49, "duration": 10, "velocity": 35}, {"time": 154081, "pitch": 63, "duration": 10, "velocity": 61}, {"time": 154200, "pitch": 40, "duration": 10, "velocity": 79}, {"time": 154200, "pitch": 63, "duration": 10, "velocity": 50}, {"time": 154320, "pitch": 35, "duration": 10, "velocity": 96}, {"time": 154320, "pitch": 46, "duration": 10, "velocity": 77}, {"time": 154320, "pitch": 64, "duration": 10, "velocity": 64}, {"time": 154439, "pitch": 38, "duration": 10, "velocity": 38}, {"time": 154479, "pitch": 38, "duration": 10, "velocity": 38}, {"time": 154519, "pitch": 38, "duration": 10, "velocity": 59}, {"time": 154558, "pitch": 35, "duration": 11, "velocity": 108}, {"time": 154558, "pitch": 42, "duration": 11, "velocity": 103}, {"time": 154558, "pitch": 49, "duration": 11, "velocity": 48}, {"time": 154680, "pitch": 42, "duration": 10, "velocity": 45}, {"time": 154801, "pitch": 42, "duration": 10, "velocity": 45}, {"time": 154922, "pitch": 35, "duration": 10, "velocity": 105}, {"time": 155043, "pitch": 28, "duration": 10, "velocity": 100}, {"time": 155043, "pitch": 42, "duration": 10, "velocity": 98}, {"time": 155282, "pitch": 35, "duration": 10, "velocity": 108}, {"time": 155282, "pitch": 42, "duration": 10, "velocity": 61}, {"time": 155401, "pitch": 38, "duration": 10, "velocity": 51}, {"time": 155521, "pitch": 42, "duration": 10, "velocity": 95}, {"time": 155760, "pitch": 35, "duration": 10, "velocity": 97}, {"time": 155760, "pitch": 42, "duration": 10, "velocity": 50}, {"time": 155879, "pitch": 42, "duration": 10, "velocity": 45}, {"time": 155998, "pitch": 28, "duration": 11, "velocity": 92}, {"time": 155998, "pitch": 46, "duration": 11, "velocity": 53}, {"time": 156241, "pitch": 42, "duration": 10, "velocity": 71}, {"time": 156362, "pitch": 42, "duration": 10, "velocity": 37}, {"time": 156483, "pitch": 35, "duration": 10, "velocity": 108}, {"time": 156483, "pitch": 42, "duration": 10, "velocity": 97}, {"time": 156722, "pitch": 42, "duration": 10, "velocity": 69}, {"time": 156841, "pitch": 35, "duration": 10, "velocity": 97}, {"time": 156961, "pitch": 28, "duration": 10, "velocity": 101}, {"time": 156961, "pitch": 42, "duration": 10, "velocity": 107}, {"time": 157200, "pitch": 35, "duration": 10, "velocity": 93}, {"time": 157200, "pitch": 42, "duration": 10, "velocity": 58}, {"time": 157200, "pitch": 80, "duration": 10, "velocity": 71}, {"time": 157319, "pitch": 80, "duration": 10, "velocity": 77}, {"time": 157438, "pitch": 35, "duration": 11, "velocity": 96}, {"time": 157438, "pitch": 42, "duration": 11, "velocity": 71}, {"time": 157438, "pitch": 81, "duration": 11, "velocity": 89}, {"time": 157560, "pitch": 42, "duration": 10, "velocity": 45}, {"time": 157681, "pitch": 42, "duration": 10, "velocity": 66}, {"time": 157681, "pitch": 80, "duration": 10, "velocity": 75}, {"time": 157802, "pitch": 38, "duration": 10, "velocity": 61}, {"time": 157802, "pitch": 80, "duration": 10, "velocity": 75}, {"time": 157923, "pitch": 39, "duration": 10, "velocity": 105}, {"time": 157923, "pitch": 46, "duration": 10, "velocity": 53}, {"time": 158043, "pitch": 28, "duration": 10, "velocity": 66}, {"time": 158162, "pitch": 35, "duration": 10, "velocity": 96}, {"time": 158162, "pitch": 46, "duration": 10, "velocity": 77}, {"time": 158401, "pitch": 35, "duration": 10, "velocity": 108}, {"time": 158401, "pitch": 42, "duration": 10, "velocity": 103}, {"time": 158520, "pitch": 42, "duration": 10, "velocity": 45}, {"time": 158640, "pitch": 42, "duration": 10, "velocity": 45}, {"time": 158759, "pitch": 35, "duration": 10, "velocity": 105}, {"time": 158878, "pitch": 28, "duration": 10, "velocity": 100}, {"time": 158878, "pitch": 42, "duration": 10, "velocity": 98}, {"time": 159121, "pitch": 35, "duration": 10, "velocity": 108}, {"time": 159121, "pitch": 42, "duration": 10, "velocity": 61}, {"time": 159242, "pitch": 38, "duration": 10, "velocity": 51}, {"time": 159363, "pitch": 42, "duration": 10, "velocity": 95}, {"time": 159602, "pitch": 35, "duration": 10, "velocity": 97}, {"time": 159602, "pitch": 42, "duration": 10, "velocity": 50}, {"time": 159721, "pitch": 42, "duration": 10, "velocity": 45}, {"time": 159841, "pitch": 28, "duration": 10, "velocity": 92}, {"time": 159841, "pitch": 46, "duration": 10, "velocity": 53}, {"time": 160080, "pitch": 42, "duration": 10, "velocity": 71}, {"time": 160199, "pitch": 42, "duration": 10, "velocity": 37}, {"time": 160318, "pitch": 35, "duration": 10, "velocity": 108}, {"time": 160318, "pitch": 42, "duration": 10, "velocity": 97}, {"time": 160561, "pitch": 42, "duration": 10, "velocity": 69}, {"time": 160682, "pitch": 35, "duration": 10, "velocity": 97}, {"time": 160803, "pitch": 28, "duration": 10, "velocity": 101}, {"time": 160803, "pitch": 42, "duration": 10, "velocity": 107}, {"time": 161046, "pitch": 35, "duration": 10, "velocity": 93}, {"time": 161046, "pitch": 42, "duration": 10, "velocity": 58}, {"time": 161046, "pitch": 80, "duration": 10, "velocity": 71}, {"time": 161167, "pitch": 80, "duration": 10, "velocity": 77}, {"time": 161288, "pitch": 35, "duration": 10, "velocity": 96}, {"time": 161288, "pitch": 42, "duration": 10, "velocity": 71}, {"time": 161288, "pitch": 81, "duration": 10, "velocity": 89}, {"time": 161409, "pitch": 35, "duration": 10, "velocity": 33}, {"time": 161409, "pitch": 42, "duration": 10, "velocity": 45}, {"time": 161530, "pitch": 42, "duration": 11, "velocity": 66}, {"time": 161530, "pitch": 62, "duration": 11, "velocity": 67}, {"time": 161530, "pitch": 80, "duration": 11, "velocity": 75}, {"time": 161652, "pitch": 35, "duration": 10, "velocity": 78}, {"time": 161652, "pitch": 38, "duration": 10, "velocity": 61}, {"time": 161652, "pitch": 62, "duration": 10, "velocity": 29}, {"time": 161652, "pitch": 80, "duration": 10, "velocity": 75}, {"time": 161773, "pitch": 39, "duration": 10, "velocity": 105}, {"time": 161773, "pitch": 40, "duration": 10, "velocity": 62}, {"time": 161773, "pitch": 46, "duration": 10, "velocity": 53}, {"time": 161773, "pitch": 63, "duration": 10, "velocity": 61}, {"time": 161894, "pitch": 28, "duration": 10, "velocity": 66}, {"time": 161894, "pitch": 63, "duration": 10, "velocity": 50}, {"time": 162015, "pitch": 35, "duration": 10, "velocity": 96}, {"time": 162015, "pitch": 46, "duration": 10, "velocity": 77}, {"time": 162015, "pitch": 64, "duration": 10, "velocity": 64}, {"time": 162136, "pitch": 40, "duration": 11, "velocity": 55}], "annotations": [{"time": 187, "annotation": {"number": 0, "value": 0}, "group": "control_change"}, {"time": 197, "annotation": {"number": 32, "value": 2}, "group": "control_change"}, {"time": 218, "annotation": {"number": 7, "value": 96}, "group": "control_change"}, {"time": 228, "annotation": {"number": 11, "value": 127}, "group": "control_change"}, {"time": 238, "annotation": {"number": 91, "value": 53}, "group": "control_change"}, {"time": 342, "annotation": {"number": 101, "value": 127}, "group": "control_change"}, {"time": 352, "annotation": {"number": 100, "value": 127}, "group": "control_change"}]}, {"program": 0, "is_drum": false, "name": "PIZZ", "annotations": [{"time": 187, "annotation": {"number": 0, "value": 0}, "group": "control_change"}, {"time": 197, "annotation": {"number": 32, "value": 2}, "group": "control_change"}]}, {"program": 45, "is_drum": false, "name": "PIZZ", "notes": [{"time": 36720, "pitch": 72, "duration": 60, "velocity": 83}, {"time": 36959, "pitch": 84, "duration": 100, "velocity": 112}, {"time": 37078, "pitch": 72, "duration": 50, "velocity": 66}, {"time": 37317, "pitch": 72, "duration": 60, "velocity": 69}, {"time": 37679, "pitch": 72, "duration": 71, "velocity": 97}, {"time": 37921, "pitch": 84, "duration": 150, "velocity": 97}, {"time": 82799, "pitch": 72, "duration": 60, "velocity": 83}, {"time": 83038, "pitch": 84, "duration": 101, "velocity": 112}, {"time": 83159, "pitch": 72, "duration": 51, "velocity": 66}, {"time": 83401, "pitch": 72, "duration": 61, "velocity": 69}, {"time": 83761, "pitch": 72, "duration": 70, "velocity": 97}, {"time": 84000, "pitch": 84, "duration": 150, "velocity": 97}, {"time": 113520, "pitch": 72, "duration": 60, "velocity": 83}, {"time": 113762, "pitch": 84, "duration": 99, "velocity": 112}, {"time": 113881, "pitch": 72, "duration": 50, "velocity": 66}, {"time": 114120, "pitch": 72, "duration": 60, "velocity": 69}, {"time": 114478, "pitch": 72, "duration": 70, "velocity": 97}, {"time": 114717, "pitch": 84, "duration": 152, "velocity": 97}], "annotations": [{"time": 218, "annotation": {"number": 7, "value": 90}, "group": "control_change"}, {"time": 228, "annotation": {"number": 11, "value": 127}, "group": "control_change"}, {"time": 238, "annotation": {"number": 10, "value": 111}, "group": "control_change"}, {"time": 249, "annotation": {"number": 91, "value": 50}, "group": "control_change"}, {"time": 259, "annotation": {"number": 93, "value": 0}, "group": "control_change"}, {"time": 269, "annotation": {"number": 101, "value": 0}, "group": "control_change"}, {"time": 280, "annotation": {"number": 100, "value": 0}, "group": "control_change"}, {"time": 290, "annotation": {"number": 6, "value": 12}, "group": "control_change"}, {"time": 321, "annotation": {"number": 101, "value": 127}, "group": "control_change"}, {"time": 332, "annotation": {"number": 100, "value": 127}, "group": "control_change"}]}, {"program": 0, "is_drum": false, "name": "HARP", "annotations": [{"time": 187, "annotation": {"number": 0, "value": 0}, "group": "control_change"}, {"time": 197, "annotation": {"number": 32, "value": 2}, "group": "control_change"}]}, {"program": 46, "is_drum": false, "name": "HARP", "notes": [{"time": 38638, "pitch": 48, "duration": 59, "velocity": 85}, {"time": 38697, "pitch": 51, "duration": 60, "velocity": 87}, {"time": 38757, "pitch": 54, "duration": 60, "velocity": 89}, {"time": 38817, "pitch": 57, "duration": 60, "velocity": 91}, {"time": 38877, "pitch": 60, "duration": 60, "velocity": 93}, {"time": 38937, "pitch": 63, "duration": 61, "velocity": 95}, {"time": 38998, "pitch": 66, "duration": 60, "velocity": 97}, {"time": 39058, "pitch": 69, "duration": 61, "velocity": 99}, {"time": 39119, "pitch": 72, "duration": 61, "velocity": 94}, {"time": 39180, "pitch": 69, "duration": 60, "velocity": 87}, {"time": 39240, "pitch": 66, "duration": 61, "velocity": 77}, {"time": 39301, "pitch": 63, "duration": 60, "velocity": 67}, {"time": 84720, "pitch": 48, "duration": 61, "velocity": 85}, {"time": 84781, "pitch": 51, "duration": 60, "velocity": 87}, {"time": 84841, "pitch": 54, "duration": 61, "velocity": 89}, {"time": 84902, "pitch": 57, "duration": 61, "velocity": 91}, {"time": 84963, "pitch": 60, "duration": 59, "velocity": 93}, {"time": 85022, "pitch": 63, "duration": 60, "velocity": 95}, {"time": 85082, "pitch": 66, "duration": 60, "velocity": 97}, {"time": 85142, "pitch": 69, "duration": 59, "velocity": 99}, {"time": 85201, "pitch": 72, "duration": 60, "velocity": 94}, {"time": 85261, "pitch": 69, "duration": 60, "velocity": 87}, {"time": 85321, "pitch": 66, "duration": 60, "velocity": 77}, {"time": 85381, "pitch": 63, "duration": 59, "velocity": 67}, {"time": 108002, "pitch": 53, "duration": 40, "velocity": 106}, {"time": 108042, "pitch": 56, "duration": 40, "velocity": 83}, {"time": 108082, "pitch": 59, "duration": 39, "velocity": 89}, {"time": 108121, "pitch": 61, "duration": 40, "velocity": 97}, {"time": 108161, "pitch": 65, "duration": 40, "velocity": 97}, {"time": 108201, "pitch": 68, "duration": 40, "velocity": 89}, {"time": 108241, "pitch": 71, "duration": 40, "velocity": 89}, {"time": 108281, "pitch": 73, "duration": 39, "velocity": 97}, {"time": 108320, "pitch": 77, "duration": 40, "velocity": 97}, {"time": 108360, "pitch": 80, "duration": 40, "velocity": 95}, {"time": 108400, "pitch": 83, "duration": 40, "velocity": 83}, {"time": 108440, "pitch": 80, "duration": 40, "velocity": 83}, {"time": 115441, "pitch": 48, "duration": 59, "velocity": 85}, {"time": 115500, "pitch": 51, "duration": 60, "velocity": 87}, {"time": 115560, "pitch": 54, "duration": 60, "velocity": 89}, {"time": 115620, "pitch": 57, "duration": 59, "velocity": 91}, {"time": 115679, "pitch": 60, "duration": 60, "velocity": 93}, {"time": 115739, "pitch": 63, "duration": 60, "velocity": 95}, {"time": 115799, "pitch": 66, "duration": 60, "velocity": 97}, {"time": 115859, "pitch": 69, "duration": 59, "velocity": 99}, {"time": 115918, "pitch": 72, "duration": 60, "velocity": 94}, {"time": 115978, "pitch": 69, "duration": 60, "velocity": 87}, {"time": 116038, "pitch": 66, "duration": 59, "velocity": 77}, {"time": 116097, "pitch": 63, "duration": 60, "velocity": 67}], "annotations": [{"time": 218, "annotation": {"number": 7, "value": 60}, "group": "control_change"}, {"time": 228, "annotation": {"number": 11, "value": 127}, "group": "control_change"}, {"time": 238, "annotation": {"number": 10, "value": 31}, "group": "control_change"}, {"time": 249, "annotation": {"number": 91, "value": 63}, "group": "control_change"}, {"time": 259, "annotation": {"number": 93, "value": 0}, "group": "control_change"}, {"time": 269, "annotation": {"number": 101, "value": 0}, "group": "control_change"}, {"time": 280, "annotation": {"number": 100, "value": 0}, "group": "control_change"}, {"time": 290, "annotation": {"number": 6, "value": 12}, "group": "control_change"}, {"time": 321, "annotation": {"number": 101, "value": 127}, "group": "control_change"}, {"time": 332, "annotation": {"number": 100, "value": 127}, "group": "control_change"}]}, {"program": 0, "is_drum": false, "name": "PAD", "annotations": [{"time": 187, "annotation": {"number": 0, "value": 0}, "group": "control_change"}, {"time": 197, "annotation": {"number": 32, "value": 2}, "group": "control_change"}]}, {"program": 89, "is_drum": false, "name": "PAD", "notes": [{"time": 960, "pitch": 58, "duration": 1917, "velocity": 75}, {"time": 960, "pitch": 62, "duration": 1917, "velocity": 75}, {"time": 960, "pitch": 65, "duration": 1917, "velocity": 75}, {"time": 960, "pitch": 69, "duration": 1917, "velocity": 75}, {"time": 2877, "pitch": 57, "duration": 714, "velocity": 75}, {"time": 2877, "pitch": 60, "duration": 714, "velocity": 75}, {"time": 2877, "pitch": 64, "duration": 714, "velocity": 75}, {"time": 2877, "pitch": 67, "duration": 714, "velocity": 75}, {"time": 3601, "pitch": 57, "duration": 1191, "velocity": 75}, {"time": 3601, "pitch": 60, "duration": 1191, "velocity": 75}, {"time": 3601, "pitch": 62, "duration": 1191, "velocity": 75}, {"time": 3601, "pitch": 65, "duration": 1191, "velocity": 75}, {"time": 4802, "pitch": 55, "duration": 1918, "velocity": 75}, {"time": 4802, "pitch": 58, "duration": 1918, "velocity": 75}, {"time": 4802, "pitch": 62, "duration": 1918, "velocity": 75}, {"time": 4802, "pitch": 65, "duration": 1918, "velocity": 75}, {"time": 6720, "pitch": 53, "duration": 1440, "velocity": 75}, {"time": 6720, "pitch": 57, "duration": 1440, "velocity": 75}, {"time": 6720, "pitch": 62, "duration": 1440, "velocity": 75}, {"time": 6720, "pitch": 65, "duration": 1440, "velocity": 75}, {"time": 8160, "pitch": 58, "duration": 477, "velocity": 75}, {"time": 8160, "pitch": 62, "duration": 477, "velocity": 75}, {"time": 8160, "pitch": 64, "duration": 477, "velocity": 75}, {"time": 8160, "pitch": 69, "duration": 477, "velocity": 75}, {"time": 8637, "pitch": 58, "duration": 1925, "velocity": 75}, {"time": 8637, "pitch": 62, "duration": 1925, "velocity": 75}, {"time": 8637, "pitch": 65, "duration": 1925, "velocity": 75}, {"time": 8637, "pitch": 69, "duration": 1925, "velocity": 75}, {"time": 10562, "pitch": 57, "duration": 707, "velocity": 75}, {"time": 10562, "pitch": 60, "duration": 707, "velocity": 75}, {"time": 10562, "pitch": 64, "duration": 707, "velocity": 75}, {"time": 10562, "pitch": 67, "duration": 707, "velocity": 75}, {"time": 11278, "pitch": 57, "duration": 1192, "velocity": 75}, {"time": 11278, "pitch": 60, "duration": 1192, "velocity": 75}, {"time": 11278, "pitch": 62, "duration": 1192, "velocity": 75}, {"time": 11278, "pitch": 65, "duration": 1192, "velocity": 75}, {"time": 12480, "pitch": 55, "duration": 1917, "velocity": 75}, {"time": 12480, "pitch": 58, "duration": 1917, "velocity": 75}, {"time": 12480, "pitch": 62, "duration": 1917, "velocity": 75}, {"time": 12480, "pitch": 65, "duration": 1917, "velocity": 75}, {"time": 14397, "pitch": 53, "duration": 1440, "velocity": 75}, {"time": 14397, "pitch": 57, "duration": 1440, "velocity": 75}, {"time": 14397, "pitch": 62, "duration": 1440, "velocity": 75}, {"time": 14397, "pitch": 65, "duration": 1440, "velocity": 75}, {"time": 15837, "pitch": 56, "duration": 485, "velocity": 75}, {"time": 15837, "pitch": 60, "duration": 485, "velocity": 75}, {"time": 15837, "pitch": 62, "duration": 485, "velocity": 75}, {"time": 15837, "pitch": 66, "duration": 485, "velocity": 75}, {"time": 16322, "pitch": 55, "duration": 1917, "velocity": 75}, {"time": 16322, "pitch": 58, "duration": 1917, "velocity": 75}, {"time": 16322, "pitch": 62, "duration": 1917, "velocity": 75}, {"time": 16322, "pitch": 65, "duration": 1917, "velocity": 75}, {"time": 18239, "pitch": 53, "duration": 1918, "velocity": 75}, {"time": 18239, "pitch": 57, "duration": 1918, "velocity": 75}, {"time": 18239, "pitch": 62, "duration": 1918, "velocity": 75}, {"time": 18239, "pitch": 65, "duration": 1918, "velocity": 75}, {"time": 20157, "pitch": 55, "duration": 1925, "velocity": 75}, {"time": 20157, "pitch": 58, "duration": 1925, "velocity": 75}, {"time": 20157, "pitch": 62, "duration": 1925, "velocity": 75}, {"time": 20157, "pitch": 65, "duration": 1925, "velocity": 75}, {"time": 22082, "pitch": 53, "duration": 1917, "velocity": 75}, {"time": 22082, "pitch": 57, "duration": 1917, "velocity": 75}, {"time": 22082, "pitch": 62, "duration": 1917, "velocity": 75}, {"time": 22082, "pitch": 65, "duration": 1917, "velocity": 75}, {"time": 23999, "pitch": 55, "duration": 1918, "velocity": 75}, {"time": 23999, "pitch": 58, "duration": 1918, "velocity": 75}, {"time": 23999, "pitch": 62, "duration": 1918, "velocity": 75}, {"time": 23999, "pitch": 65, "duration": 1918, "velocity": 75}, {"time": 25917, "pitch": 53, "duration": 1925, "velocity": 75}, {"time": 25917, "pitch": 57, "duration": 1925, "velocity": 75}, {"time": 25917, "pitch": 62, "duration": 1925, "velocity": 75}, {"time": 25917, "pitch": 65, "duration": 1925, "velocity": 75}, {"time": 27842, "pitch": 55, "duration": 1917, "velocity": 75}, {"time": 27842, "pitch": 58, "duration": 1917, "velocity": 75}, {"time": 27842, "pitch": 62, "duration": 1917, "velocity": 75}, {"time": 27842, "pitch": 65, "duration": 1917, "velocity": 75}, {"time": 29759, "pitch": 53, "duration": 1918, "velocity": 75}, {"time": 29759, "pitch": 57, "duration": 1918, "velocity": 75}, {"time": 29759, "pitch": 62, "duration": 1918, "velocity": 75}, {"time": 29759, "pitch": 65, "duration": 1918, "velocity": 75}, {"time": 31677, "pitch": 55, "duration": 1925, "velocity": 75}, {"time": 31677, "pitch": 58, "duration": 1925, "velocity": 75}, {"time": 31677, "pitch": 62, "duration": 1925, "velocity": 75}, {"time": 31677, "pitch": 65, "duration": 1925, "velocity": 75}, {"time": 33602, "pitch": 55, "duration": 1917, "velocity": 75}, {"time": 33602, "pitch": 57, "duration": 1917, "velocity": 75}, {"time": 33602, "pitch": 60, "duration": 1917, "velocity": 75}, {"time": 33602, "pitch": 65, "duration": 1917, "velocity": 75}, {"time": 35519, "pitch": 55, "duration": 1918, "velocity": 75}, {"time": 35519, "pitch": 58, "duration": 1918, "velocity": 75}, {"time": 35519, "pitch": 62, "duration": 1918, "velocity": 75}, {"time": 35519, "pitch": 65, "duration": 1918, "velocity": 75}, {"time": 37437, "pitch": 55, "duration": 962, "velocity": 75}, {"time": 37437, "pitch": 57, "duration": 962, "velocity": 75}, {"time": 37437, "pitch": 60, "duration": 962, "velocity": 75}, {"time": 37437, "pitch": 65, "duration": 962, "velocity": 75}, {"time": 38399, "pitch": 54, "duration": 962, "velocity": 75}, {"time": 38399, "pitch": 57, "duration": 962, "velocity": 75}, {"time": 38399, "pitch": 60, "duration": 962, "velocity": 75}, {"time": 38399, "pitch": 63, "duration": 962, "velocity": 75}, {"time": 39361, "pitch": 55, "duration": 1918, "velocity": 75}, {"time": 39361, "pitch": 58, "duration": 1918, "velocity": 75}, {"time": 39361, "pitch": 62, "duration": 1918, "velocity": 75}, {"time": 39361, "pitch": 65, "duration": 1918, "velocity": 75}, {"time": 41279, "pitch": 55, "duration": 1917, "velocity": 75}, {"time": 41279, "pitch": 57, "duration": 1917, "velocity": 75}, {"time": 41279, "pitch": 60, "duration": 1917, "velocity": 75}, {"time": 41279, "pitch": 65, "duration": 1917, "velocity": 75}, {"time": 43196, "pitch": 55, "duration": 963, "velocity": 75}, {"time": 43196, "pitch": 58, "duration": 963, "velocity": 75}, {"time": 43196, "pitch": 61, "duration": 963, "velocity": 75}, {"time": 43196, "pitch": 65, "duration": 963, "velocity": 75}, {"time": 44159, "pitch": 55, "duration": 962, "velocity": 75}, {"time": 44159, "pitch": 58, "duration": 962, "velocity": 75}, {"time": 44159, "pitch": 62, "duration": 962, "velocity": 75}, {"time": 44159, "pitch": 65, "duration": 962, "velocity": 75}, {"time": 45121, "pitch": 53, "duration": 1918, "velocity": 75}, {"time": 45121, "pitch": 57, "duration": 1918, "velocity": 75}, {"time": 45121, "pitch": 60, "duration": 1918, "velocity": 75}, {"time": 45121, "pitch": 64, "duration": 1918, "velocity": 75}, {"time": 47039, "pitch": 58, "duration": 1925, "velocity": 75}, {"time": 47039, "pitch": 62, "duration": 1925, "velocity": 75}, {"time": 47039, "pitch": 65, "duration": 1925, "velocity": 75}, {"time": 47039, "pitch": 69, "duration": 1925, "velocity": 75}, {"time": 48964, "pitch": 57, "duration": 706, "velocity": 75}, {"time": 48964, "pitch": 60, "duration": 706, "velocity": 75}, {"time": 48964, "pitch": 64, "duration": 706, "velocity": 75}, {"time": 48964, "pitch": 67, "duration": 706, "velocity": 75}, {"time": 49680, "pitch": 57, "duration": 1191, "velocity": 75}, {"time": 49680, "pitch": 60, "duration": 1191, "velocity": 75}, {"time": 49680, "pitch": 62, "duration": 1191, "velocity": 75}, {"time": 49680, "pitch": 65, "duration": 1191, "velocity": 75}, {"time": 50881, "pitch": 55, "duration": 1918, "velocity": 75}, {"time": 50881, "pitch": 58, "duration": 1918, "velocity": 75}, {"time": 50881, "pitch": 62, "duration": 1918, "velocity": 75}, {"time": 50881, "pitch": 65, "duration": 1918, "velocity": 75}, {"time": 52799, "pitch": 53, "duration": 1440, "velocity": 75}, {"time": 52799, "pitch": 57, "duration": 1440, "velocity": 75}, {"time": 52799, "pitch": 62, "duration": 1440, "velocity": 75}, {"time": 52799, "pitch": 65, "duration": 1440, "velocity": 75}, {"time": 54239, "pitch": 58, "duration": 484, "velocity": 75}, {"time": 54239, "pitch": 62, "duration": 484, "velocity": 75}, {"time": 54239, "pitch": 64, "duration": 484, "velocity": 75}, {"time": 54239, "pitch": 69, "duration": 484, "velocity": 75}, {"time": 54723, "pitch": 58, "duration": 1918, "velocity": 75}, {"time": 54723, "pitch": 62, "duration": 1918, "velocity": 75}, {"time": 54723, "pitch": 65, "duration": 1918, "velocity": 75}, {"time": 54723, "pitch": 69, "duration": 1918, "velocity": 75}, {"time": 56641, "pitch": 57, "duration": 710, "velocity": 75}, {"time": 56641, "pitch": 60, "duration": 710, "velocity": 75}, {"time": 56641, "pitch": 64, "duration": 710, "velocity": 75}, {"time": 56641, "pitch": 67, "duration": 710, "velocity": 75}, {"time": 57361, "pitch": 57, "duration": 1188, "velocity": 75}, {"time": 57361, "pitch": 60, "duration": 1188, "velocity": 75}, {"time": 57361, "pitch": 62, "duration": 1188, "velocity": 75}, {"time": 57361, "pitch": 65, "duration": 1188, "velocity": 75}, {"time": 58558, "pitch": 55, "duration": 1925, "velocity": 75}, {"time": 58558, "pitch": 58, "duration": 1925, "velocity": 75}, {"time": 58558, "pitch": 62, "duration": 1925, "velocity": 75}, {"time": 58558, "pitch": 65, "duration": 1925, "velocity": 75}, {"time": 60483, "pitch": 53, "duration": 1440, "velocity": 75}, {"time": 60483, "pitch": 57, "duration": 1440, "velocity": 75}, {"time": 60483, "pitch": 62, "duration": 1440, "velocity": 75}, {"time": 60483, "pitch": 65, "duration": 1440, "velocity": 75}, {"time": 61923, "pitch": 56, "duration": 478, "velocity": 75}, {"time": 61923, "pitch": 60, "duration": 478, "velocity": 75}, {"time": 61923, "pitch": 62, "duration": 478, "velocity": 75}, {"time": 61923, "pitch": 66, "duration": 478, "velocity": 75}, {"time": 62401, "pitch": 55, "duration": 1917, "velocity": 75}, {"time": 62401, "pitch": 58, "duration": 1917, "velocity": 75}, {"time": 62401, "pitch": 62, "duration": 1917, "velocity": 75}, {"time": 62401, "pitch": 65, "duration": 1917, "velocity": 75}, {"time": 64318, "pitch": 53, "duration": 1925, "velocity": 75}, {"time": 64318, "pitch": 57, "duration": 1925, "velocity": 75}, {"time": 64318, "pitch": 62, "duration": 1925, "velocity": 75}, {"time": 64318, "pitch": 65, "duration": 1925, "velocity": 75}, {"time": 66243, "pitch": 55, "duration": 1918, "velocity": 75}, {"time": 66243, "pitch": 58, "duration": 1918, "velocity": 75}, {"time": 66243, "pitch": 62, "duration": 1918, "velocity": 75}, {"time": 66243, "pitch": 65, "duration": 1918, "velocity": 75}, {"time": 68161, "pitch": 53, "duration": 1917, "velocity": 75}, {"time": 68161, "pitch": 57, "duration": 1917, "velocity": 75}, {"time": 68161, "pitch": 62, "duration": 1917, "velocity": 75}, {"time": 68161, "pitch": 65, "duration": 1917, "velocity": 75}, {"time": 70078, "pitch": 55, "duration": 1925, "velocity": 75}, {"time": 70078, "pitch": 58, "duration": 1925, "velocity": 75}, {"time": 70078, "pitch": 62, "duration": 1925, "velocity": 75}, {"time": 70078, "pitch": 65, "duration": 1925, "velocity": 75}, {"time": 72003, "pitch": 53, "duration": 1918, "velocity": 75}, {"time": 72003, "pitch": 57, "duration": 1918, "velocity": 75}, {"time": 72003, "pitch": 62, "duration": 1918, "velocity": 75}, {"time": 72003, "pitch": 65, "duration": 1918, "velocity": 75}, {"time": 73921, "pitch": 55, "duration": 1917, "velocity": 75}, {"time": 73921, "pitch": 58, "duration": 1917, "velocity": 75}, {"time": 73921, "pitch": 62, "duration": 1917, "velocity": 75}, {"time": 73921, "pitch": 65, "duration": 1917, "velocity": 75}, {"time": 75838, "pitch": 53, "duration": 1925, "velocity": 75}, {"time": 75838, "pitch": 57, "duration": 1925, "velocity": 75}, {"time": 75838, "pitch": 62, "duration": 1925, "velocity": 75}, {"time": 75838, "pitch": 65, "duration": 1925, "velocity": 75}, {"time": 77763, "pitch": 55, "duration": 1917, "velocity": 75}, {"time": 77763, "pitch": 58, "duration": 1917, "velocity": 75}, {"time": 77763, "pitch": 62, "duration": 1917, "velocity": 75}, {"time": 77763, "pitch": 65, "duration": 1917, "velocity": 75}, {"time": 79680, "pitch": 55, "duration": 1918, "velocity": 75}, {"time": 79680, "pitch": 57, "duration": 1918, "velocity": 75}, {"time": 79680, "pitch": 60, "duration": 1918, "velocity": 75}, {"time": 79680, "pitch": 65, "duration": 1918, "velocity": 75}, {"time": 81598, "pitch": 55, "duration": 1925, "velocity": 75}, {"time": 81598, "pitch": 58, "duration": 1925, "velocity": 75}, {"time": 81598, "pitch": 62, "duration": 1925, "velocity": 75}, {"time": 81598, "pitch": 65, "duration": 1925, "velocity": 75}, {"time": 83523, "pitch": 55, "duration": 955, "velocity": 75}, {"time": 83523, "pitch": 57, "duration": 955, "velocity": 75}, {"time": 83523, "pitch": 60, "duration": 955, "velocity": 75}, {"time": 83523, "pitch": 65, "duration": 955, "velocity": 75}, {"time": 84478, "pitch": 54, "duration": 962, "velocity": 75}, {"time": 84478, "pitch": 57, "duration": 962, "velocity": 75}, {"time": 84478, "pitch": 60, "duration": 962, "velocity": 75}, {"time": 84478, "pitch": 63, "duration": 962, "velocity": 75}, {"time": 85440, "pitch": 55, "duration": 1918, "velocity": 75}, {"time": 85440, "pitch": 58, "duration": 1918, "velocity": 75}, {"time": 85440, "pitch": 62, "duration": 1918, "velocity": 75}, {"time": 85440, "pitch": 65, "duration": 1918, "velocity": 75}, {"time": 87358, "pitch": 55, "duration": 1925, "velocity": 75}, {"time": 87358, "pitch": 57, "duration": 1925, "velocity": 75}, {"time": 87358, "pitch": 60, "duration": 1925, "velocity": 75}, {"time": 87358, "pitch": 65, "duration": 1925, "velocity": 75}, {"time": 89283, "pitch": 55, "duration": 955, "velocity": 75}, {"time": 89283, "pitch": 58, "duration": 955, "velocity": 75}, {"time": 89283, "pitch": 61, "duration": 955, "velocity": 75}, {"time": 89283, "pitch": 65, "duration": 955, "velocity": 75}, {"time": 90238, "pitch": 55, "duration": 962, "velocity": 75}, {"time": 90238, "pitch": 58, "duration": 962, "velocity": 75}, {"time": 90238, "pitch": 62, "duration": 962, "velocity": 75}, {"time": 90238, "pitch": 65, "duration": 962, "velocity": 75}, {"time": 91200, "pitch": 53, "duration": 1918, "velocity": 75}, {"time": 91200, "pitch": 57, "duration": 1918, "velocity": 75}, {"time": 91200, "pitch": 60, "duration": 1918, "velocity": 75}, {"time": 91200, "pitch": 64, "duration": 1918, "velocity": 75}, {"time": 93118, "pitch": 58, "duration": 1924, "velocity": 75}, {"time": 93118, "pitch": 62, "duration": 1924, "velocity": 75}, {"time": 93118, "pitch": 65, "duration": 1924, "velocity": 75}, {"time": 93118, "pitch": 69, "duration": 1924, "velocity": 75}, {"time": 95042, "pitch": 57, "duration": 707, "velocity": 75}, {"time": 95042, "pitch": 60, "duration": 707, "velocity": 75}, {"time": 95042, "pitch": 64, "duration": 707, "velocity": 75}, {"time": 95042, "pitch": 67, "duration": 707, "velocity": 75}, {"time": 95759, "pitch": 57, "duration": 1191, "velocity": 75}, {"time": 95759, "pitch": 60, "duration": 1191, "velocity": 75}, {"time": 95759, "pitch": 62, "duration": 1191, "velocity": 75}, {"time": 95759, "pitch": 65, "duration": 1191, "velocity": 75}, {"time": 96960, "pitch": 55, "duration": 1917, "velocity": 75}, {"time": 96960, "pitch": 58, "duration": 1917, "velocity": 75}, {"time": 96960, "pitch": 62, "duration": 1917, "velocity": 75}, {"time": 96960, "pitch": 65, "duration": 1917, "velocity": 75}, {"time": 98877, "pitch": 53, "duration": 1440, "velocity": 75}, {"time": 98877, "pitch": 57, "duration": 1440, "velocity": 75}, {"time": 98877, "pitch": 62, "duration": 1440, "velocity": 75}, {"time": 98877, "pitch": 65, "duration": 1440, "velocity": 75}, {"time": 100317, "pitch": 58, "duration": 485, "velocity": 75}, {"time": 100317, "pitch": 62, "duration": 485, "velocity": 75}, {"time": 100317, "pitch": 64, "duration": 485, "velocity": 75}, {"time": 100317, "pitch": 69, "duration": 485, "velocity": 75}, {"time": 100802, "pitch": 58, "duration": 1918, "velocity": 75}, {"time": 100802, "pitch": 62, "duration": 1918, "velocity": 75}, {"time": 100802, "pitch": 65, "duration": 1918, "velocity": 75}, {"time": 100802, "pitch": 69, "duration": 1918, "velocity": 75}, {"time": 102720, "pitch": 57, "duration": 710, "velocity": 75}, {"time": 102720, "pitch": 60, "duration": 710, "velocity": 75}, {"time": 102720, "pitch": 64, "duration": 710, "velocity": 75}, {"time": 102720, "pitch": 67, "duration": 710, "velocity": 75}, {"time": 103440, "pitch": 57, "duration": 1187, "velocity": 75}, {"time": 103440, "pitch": 60, "duration": 1187, "velocity": 75}, {"time": 103440, "pitch": 62, "duration": 1187, "velocity": 75}, {"time": 103440, "pitch": 65, "duration": 1187, "velocity": 75}, {"time": 104637, "pitch": 55, "duration": 1794, "velocity": 75}, {"time": 104637, "pitch": 58, "duration": 1794, "velocity": 75}, {"time": 104637, "pitch": 62, "duration": 1794, "velocity": 75}, {"time": 104637, "pitch": 65, "duration": 1794, "velocity": 75}, {"time": 106441, "pitch": 58, "duration": 350, "velocity": 75}, {"time": 106441, "pitch": 62, "duration": 350, "velocity": 75}, {"time": 106441, "pitch": 65, "duration": 350, "velocity": 75}, {"time": 106441, "pitch": 69, "duration": 350, "velocity": 75}, {"time": 106801, "pitch": 60, "duration": 159, "velocity": 75}, {"time": 106801, "pitch": 63, "duration": 159, "velocity": 75}, {"time": 106801, "pitch": 66, "duration": 159, "velocity": 75}, {"time": 106801, "pitch": 70, "duration": 159, "velocity": 75}, {"time": 107040, "pitch": 61, "duration": 139, "velocity": 75}, {"time": 107040, "pitch": 65, "duration": 139, "velocity": 75}, {"time": 107040, "pitch": 68, "duration": 139, "velocity": 75}, {"time": 107040, "pitch": 72, "duration": 139, "velocity": 75}, {"time": 107760, "pitch": 68, "duration": 710, "velocity": 75}, {"time": 107760, "pitch": 71, "duration": 710, "velocity": 75}, {"time": 107760, "pitch": 73, "duration": 710, "velocity": 75}, {"time": 107760, "pitch": 77, "duration": 710, "velocity": 75}, {"time": 108480, "pitch": 55, "duration": 1917, "velocity": 75}, {"time": 108480, "pitch": 58, "duration": 1917, "velocity": 75}, {"time": 108480, "pitch": 62, "duration": 1917, "velocity": 75}, {"time": 108480, "pitch": 65, "duration": 1917, "velocity": 75}, {"time": 110397, "pitch": 55, "duration": 1925, "velocity": 75}, {"time": 110397, "pitch": 57, "duration": 1925, "velocity": 75}, {"time": 110397, "pitch": 60, "duration": 1925, "velocity": 75}, {"time": 110397, "pitch": 65, "duration": 1925, "velocity": 75}, {"time": 112322, "pitch": 55, "duration": 1917, "velocity": 75}, {"time": 112322, "pitch": 58, "duration": 1917, "velocity": 75}, {"time": 112322, "pitch": 62, "duration": 1917, "velocity": 75}, {"time": 112322, "pitch": 65, "duration": 1917, "velocity": 75}, {"time": 114239, "pitch": 55, "duration": 963, "velocity": 75}, {"time": 114239, "pitch": 57, "duration": 963, "velocity": 75}, {"time": 114239, "pitch": 60, "duration": 963, "velocity": 75}, {"time": 114239, "pitch": 65, "duration": 963, "velocity": 75}, {"time": 115202, "pitch": 54, "duration": 955, "velocity": 75}, {"time": 115202, "pitch": 57, "duration": 955, "velocity": 75}, {"time": 115202, "pitch": 60, "duration": 955, "velocity": 75}, {"time": 115202, "pitch": 63, "duration": 955, "velocity": 75}, {"time": 116157, "pitch": 55, "duration": 1925, "velocity": 75}, {"time": 116157, "pitch": 58, "duration": 1925, "velocity": 75}, {"time": 116157, "pitch": 62, "duration": 1925, "velocity": 75}, {"time": 116157, "pitch": 65, "duration": 1925, "velocity": 75}, {"time": 118082, "pitch": 55, "duration": 1917, "velocity": 75}, {"time": 118082, "pitch": 57, "duration": 1917, "velocity": 75}, {"time": 118082, "pitch": 60, "duration": 1917, "velocity": 75}, {"time": 118082, "pitch": 65, "duration": 1917, "velocity": 75}, {"time": 119999, "pitch": 55, "duration": 963, "velocity": 75}, {"time": 119999, "pitch": 58, "duration": 963, "velocity": 75}, {"time": 119999, "pitch": 61, "duration": 963, "velocity": 75}, {"time": 119999, "pitch": 65, "duration": 963, "velocity": 75}, {"time": 120962, "pitch": 55, "duration": 955, "velocity": 75}, {"time": 120962, "pitch": 58, "duration": 955, "velocity": 75}, {"time": 120962, "pitch": 62, "duration": 955, "velocity": 75}, {"time": 120962, "pitch": 65, "duration": 955, "velocity": 75}, {"time": 121917, "pitch": 53, "duration": 1925, "velocity": 75}, {"time": 121917, "pitch": 57, "duration": 1925, "velocity": 75}, {"time": 121917, "pitch": 60, "duration": 1925, "velocity": 75}, {"time": 121917, "pitch": 64, "duration": 1925, "velocity": 75}, {"time": 123842, "pitch": 58, "duration": 1917, "velocity": 75}, {"time": 123842, "pitch": 62, "duration": 1917, "velocity": 75}, {"time": 123842, "pitch": 65, "duration": 1917, "velocity": 75}, {"time": 123842, "pitch": 69, "duration": 1917, "velocity": 75}, {"time": 125759, "pitch": 57, "duration": 710, "velocity": 75}, {"time": 125759, "pitch": 60, "duration": 710, "velocity": 75}, {"time": 125759, "pitch": 64, "duration": 710, "velocity": 75}, {"time": 125759, "pitch": 67, "duration": 710, "velocity": 75}, {"time": 126479, "pitch": 57, "duration": 1188, "velocity": 75}, {"time": 126479, "pitch": 60, "duration": 1188, "velocity": 75}, {"time": 126479, "pitch": 62, "duration": 1188, "velocity": 75}, {"time": 126479, "pitch": 65, "duration": 1188, "velocity": 75}, {"time": 127677, "pitch": 55, "duration": 1925, "velocity": 75}, {"time": 127677, "pitch": 58, "duration": 1925, "velocity": 75}, {"time": 127677, "pitch": 62, "duration": 1925, "velocity": 75}, {"time": 127677, "pitch": 65, "duration": 1925, "velocity": 75}, {"time": 129602, "pitch": 53, "duration": 1439, "velocity": 75}, {"time": 129602, "pitch": 57, "duration": 1439, "velocity": 75}, {"time": 129602, "pitch": 62, "duration": 1439, "velocity": 75}, {"time": 129602, "pitch": 65, "duration": 1439, "velocity": 75}, {"time": 131041, "pitch": 58, "duration": 478, "velocity": 75}, {"time": 131041, "pitch": 62, "duration": 478, "velocity": 75}, {"time": 131041, "pitch": 64, "duration": 478, "velocity": 75}, {"time": 131041, "pitch": 69, "duration": 478, "velocity": 75}, {"time": 131519, "pitch": 58, "duration": 1918, "velocity": 75}, {"time": 131519, "pitch": 62, "duration": 1918, "velocity": 75}, {"time": 131519, "pitch": 65, "duration": 1918, "velocity": 75}, {"time": 131519, "pitch": 69, "duration": 1918, "velocity": 75}, {"time": 133437, "pitch": 57, "duration": 713, "velocity": 75}, {"time": 133437, "pitch": 60, "duration": 713, "velocity": 75}, {"time": 133437, "pitch": 64, "duration": 713, "velocity": 75}, {"time": 133437, "pitch": 67, "duration": 713, "velocity": 75}, {"time": 134160, "pitch": 57, "duration": 1191, "velocity": 75}, {"time": 134160, "pitch": 60, "duration": 1191, "velocity": 75}, {"time": 134160, "pitch": 62, "duration": 1191, "velocity": 75}, {"time": 134160, "pitch": 65, "duration": 1191, "velocity": 75}, {"time": 135361, "pitch": 55, "duration": 1918, "velocity": 75}, {"time": 135361, "pitch": 58, "duration": 1918, "velocity": 75}, {"time": 135361, "pitch": 62, "duration": 1918, "velocity": 75}, {"time": 135361, "pitch": 65, "duration": 1918, "velocity": 75}, {"time": 137279, "pitch": 53, "duration": 1440, "velocity": 75}, {"time": 137279, "pitch": 57, "duration": 1440, "velocity": 75}, {"time": 137279, "pitch": 62, "duration": 1440, "velocity": 75}, {"time": 137279, "pitch": 65, "duration": 1440, "velocity": 75}, {"time": 138719, "pitch": 57, "duration": 477, "velocity": 75}, {"time": 138719, "pitch": 60, "duration": 477, "velocity": 75}, {"time": 138719, "pitch": 63, "duration": 477, "velocity": 75}, {"time": 138719, "pitch": 65, "duration": 477, "velocity": 75}, {"time": 139196, "pitch": 58, "duration": 1925, "velocity": 75}, {"time": 139196, "pitch": 62, "duration": 1925, "velocity": 75}, {"time": 139196, "pitch": 65, "duration": 1925, "velocity": 75}, {"time": 139196, "pitch": 69, "duration": 1925, "velocity": 75}, {"time": 141121, "pitch": 57, "duration": 707, "velocity": 75}, {"time": 141121, "pitch": 60, "duration": 707, "velocity": 75}, {"time": 141121, "pitch": 64, "duration": 707, "velocity": 75}, {"time": 141121, "pitch": 67, "duration": 707, "velocity": 75}, {"time": 141838, "pitch": 57, "duration": 1191, "velocity": 75}, {"time": 141838, "pitch": 60, "duration": 1191, "velocity": 75}, {"time": 141838, "pitch": 62, "duration": 1191, "velocity": 75}, {"time": 141838, "pitch": 65, "duration": 1191, "velocity": 75}, {"time": 143039, "pitch": 55, "duration": 1925, "velocity": 75}, {"time": 143039, "pitch": 58, "duration": 1925, "velocity": 75}, {"time": 143039, "pitch": 62, "duration": 1925, "velocity": 75}, {"time": 143039, "pitch": 65, "duration": 1925, "velocity": 75}, {"time": 144964, "pitch": 53, "duration": 1439, "velocity": 75}, {"time": 144964, "pitch": 57, "duration": 1439, "velocity": 75}, {"time": 144964, "pitch": 62, "duration": 1439, "velocity": 75}, {"time": 144964, "pitch": 65, "duration": 1439, "velocity": 75}, {"time": 146403, "pitch": 58, "duration": 478, "velocity": 75}, {"time": 146403, "pitch": 62, "duration": 478, "velocity": 75}, {"time": 146403, "pitch": 64, "duration": 478, "velocity": 75}, {"time": 146403, "pitch": 69, "duration": 478, "velocity": 75}, {"time": 146881, "pitch": 58, "duration": 1918, "velocity": 75}, {"time": 146881, "pitch": 62, "duration": 1918, "velocity": 75}, {"time": 146881, "pitch": 65, "duration": 1918, "velocity": 75}, {"time": 146881, "pitch": 69, "duration": 1918, "velocity": 75}, {"time": 148799, "pitch": 57, "duration": 713, "velocity": 75}, {"time": 148799, "pitch": 60, "duration": 713, "velocity": 75}, {"time": 148799, "pitch": 64, "duration": 713, "velocity": 75}, {"time": 148799, "pitch": 67, "duration": 713, "velocity": 75}, {"time": 149522, "pitch": 57, "duration": 1191, "velocity": 75}, {"time": 149522, "pitch": 60, "duration": 1191, "velocity": 75}, {"time": 149522, "pitch": 62, "duration": 1191, "velocity": 75}, {"time": 149522, "pitch": 65, "duration": 1191, "velocity": 75}, {"time": 150723, "pitch": 55, "duration": 1918, "velocity": 75}, {"time": 150723, "pitch": 58, "duration": 1918, "velocity": 75}, {"time": 150723, "pitch": 62, "duration": 1918, "velocity": 75}, {"time": 150723, "pitch": 65, "duration": 1918, "velocity": 75}, {"time": 152641, "pitch": 53, "duration": 1440, "velocity": 75}, {"time": 152641, "pitch": 57, "duration": 1440, "velocity": 75}, {"time": 152641, "pitch": 62, "duration": 1440, "velocity": 75}, {"time": 152641, "pitch": 65, "duration": 1440, "velocity": 75}, {"time": 154081, "pitch": 57, "duration": 477, "velocity": 75}, {"time": 154081, "pitch": 60, "duration": 477, "velocity": 75}, {"time": 154081, "pitch": 63, "duration": 477, "velocity": 75}, {"time": 154081, "pitch": 65, "duration": 477, "velocity": 75}, {"time": 154558, "pitch": 58, "duration": 1925, "velocity": 75}, {"time": 154558, "pitch": 62, "duration": 1925, "velocity": 75}, {"time": 154558, "pitch": 65, "duration": 1925, "velocity": 75}, {"time": 154558, "pitch": 69, "duration": 1925, "velocity": 75}, {"time": 156483, "pitch": 57, "duration": 707, "velocity": 75}, {"time": 156483, "pitch": 60, "duration": 707, "velocity": 75}, {"time": 156483, "pitch": 64, "duration": 707, "velocity": 75}, {"time": 156483, "pitch": 67, "duration": 707, "velocity": 75}, {"time": 157200, "pitch": 57, "duration": 1191, "velocity": 75}, {"time": 157200, "pitch": 60, "duration": 1191, "velocity": 75}, {"time": 157200, "pitch": 62, "duration": 1191, "velocity": 75}, {"time": 157200, "pitch": 65, "duration": 1191, "velocity": 75}, {"time": 158401, "pitch": 55, "duration": 1917, "velocity": 75}, {"time": 158401, "pitch": 58, "duration": 1917, "velocity": 75}, {"time": 158401, "pitch": 62, "duration": 1917, "velocity": 75}, {"time": 158401, "pitch": 65, "duration": 1917, "velocity": 75}, {"time": 160318, "pitch": 53, "duration": 1455, "velocity": 75}, {"time": 160318, "pitch": 57, "duration": 1455, "velocity": 75}, {"time": 160318, "pitch": 62, "duration": 1455, "velocity": 75}, {"time": 160318, "pitch": 65, "duration": 1455, "velocity": 75}, {"time": 161773, "pitch": 58, "duration": 485, "velocity": 75}, {"time": 161773, "pitch": 62, "duration": 485, "velocity": 75}, {"time": 161773, "pitch": 64, "duration": 485, "velocity": 75}, {"time": 161773, "pitch": 69, "duration": 485, "velocity": 75}], "annotations": [{"time": 218, "annotation": {"number": 7, "value": 47}, "group": "control_change"}, {"time": 228, "annotation": {"number": 11, "value": 120}, "group": "control_change"}, {"time": 238, "annotation": {"number": 10, "value": 56}, "group": "control_change"}, {"time": 249, "annotation": {"number": 91, "value": 40}, "group": "control_change"}, {"time": 259, "annotation": {"number": 93, "value": 37}, "group": "control_change"}, {"time": 269, "annotation": {"number": 101, "value": 0}, "group": "control_change"}, {"time": 280, "annotation": {"number": 100, "value": 0}, "group": "control_change"}, {"time": 290, "annotation": {"number": 6, "value": 12}, "group": "control_change"}, {"time": 300, "annotation": {"number": 101, "value": 127}, "group": "control_change"}, {"time": 311, "annotation": {"number": 100, "value": 127}, "group": "control_change"}]}, {"program": 0, "is_drum": false, "name": "SOLO SYNTH", "annotations": [{"time": 187, "annotation": {"number": 0, "value": 2}, "group": "control_change"}, {"time": 197, "annotation": {"number": 32, "value": 2}, "group": "control_change"}]}, {"program": 80, "is_drum": false, "name": "SOLO SYNTH", "notes": [{"time": 93118, "pitch": 69, "duration": 343, "velocity": 125}, {"time": 93481, "pitch": 72, "duration": 131, "velocity": 125}, {"time": 93841, "pitch": 69, "duration": 130, "velocity": 114}, {"time": 93961, "pitch": 67, "duration": 647, "velocity": 103}, {"time": 94679, "pitch": 74, "duration": 101, "velocity": 114}, {"time": 94800, "pitch": 69, "duration": 81, "velocity": 99}, {"time": 94921, "pitch": 72, "duration": 480, "velocity": 116}, {"time": 95401, "pitch": 74, "duration": 119, "velocity": 126}, {"time": 95759, "pitch": 67, "duration": 119, "velocity": 103}, {"time": 95878, "pitch": 65, "duration": 684, "velocity": 98}, {"time": 96721, "pitch": 67, "duration": 110, "velocity": 97}, {"time": 96841, "pitch": 69, "duration": 557, "velocity": 104}, {"time": 97438, "pitch": 62, "duration": 121, "velocity": 106}, {"time": 97559, "pitch": 60, "duration": 70, "velocity": 89}, {"time": 97922, "pitch": 65, "duration": 100, "velocity": 106}, {"time": 98042, "pitch": 60, "duration": 99, "velocity": 97}, {"time": 98161, "pitch": 62, "duration": 80, "velocity": 106}, {"time": 98280, "pitch": 65, "duration": 199, "velocity": 106}, {"time": 98519, "pitch": 60, "duration": 100, "velocity": 89}, {"time": 98639, "pitch": 62, "duration": 79, "velocity": 106}, {"time": 98758, "pitch": 65, "duration": 352, "velocity": 114}, {"time": 99120, "pitch": 67, "duration": 40, "velocity": 114}, {"time": 99601, "pitch": 68, "duration": 119, "velocity": 94}, {"time": 99720, "pitch": 69, "duration": 359, "velocity": 106}, {"time": 100079, "pitch": 69, "duration": 189, "velocity": 112}, {"time": 100560, "pitch": 72, "duration": 121, "velocity": 110}, {"time": 100681, "pitch": 74, "duration": 101, "velocity": 71}, {"time": 100802, "pitch": 72, "duration": 1599, "velocity": 114}, {"time": 102451, "pitch": 76, "duration": 40, "velocity": 106}, {"time": 102481, "pitch": 77, "duration": 468, "velocity": 112}, {"time": 102959, "pitch": 76, "duration": 218, "velocity": 114}, {"time": 103197, "pitch": 72, "duration": 182, "velocity": 114}, {"time": 103440, "pitch": 74, "duration": 101, "velocity": 106}, {"time": 103561, "pitch": 72, "duration": 708, "velocity": 122}, {"time": 104279, "pitch": 65, "duration": 100, "velocity": 114}, {"time": 104399, "pitch": 67, "duration": 69, "velocity": 98}, {"time": 104518, "pitch": 69, "duration": 210, "velocity": 113}, {"time": 104759, "pitch": 65, "duration": 90, "velocity": 89}, {"time": 104880, "pitch": 67, "duration": 101, "velocity": 89}, {"time": 105001, "pitch": 69, "duration": 231, "velocity": 118}, {"time": 105242, "pitch": 65, "duration": 79, "velocity": 106}, {"time": 105361, "pitch": 67, "duration": 80, "velocity": 106}, {"time": 105480, "pitch": 69, "duration": 169, "velocity": 116}, {"time": 105719, "pitch": 65, "duration": 70, "velocity": 83}, {"time": 105839, "pitch": 67, "duration": 79, "velocity": 97}, {"time": 105958, "pitch": 69, "duration": 200, "velocity": 127}, {"time": 106198, "pitch": 65, "duration": 71, "velocity": 95}, {"time": 106320, "pitch": 67, "duration": 80, "velocity": 114}, {"time": 106441, "pitch": 69, "duration": 300, "velocity": 127}, {"time": 106801, "pitch": 70, "duration": 119, "velocity": 127}, {"time": 107040, "pitch": 72, "duration": 159, "velocity": 127}, {"time": 107760, "pitch": 77, "duration": 361, "velocity": 127}, {"time": 108121, "pitch": 74, "duration": 70, "velocity": 83}, {"time": 108241, "pitch": 72, "duration": 129, "velocity": 97}], "annotations": [{"time": 218, "annotation": {"number": 7, "value": 71}, "group": "control_change"}, {"time": 228, "annotation": {"number": 11, "value": 120}, "group": "control_change"}, {"time": 238, "annotation": {"number": 10, "value": 64}, "group": "control_change"}, {"time": 249, "annotation": {"number": 91, "value": 67}, "group": "control_change"}, {"time": 259, "annotation": {"number": 93, "value": 0}, "group": "control_change"}, {"time": 269, "annotation": {"number": 101, "value": 0}, "group": "control_change"}, {"time": 280, "annotation": {"number": 100, "value": 0}, "group": "control_change"}, {"time": 290, "annotation": {"number": 6, "value": 12}, "group": "control_change"}, {"time": 300, "annotation": {"number": 101, "value": 127}, "group": "control_change"}, {"time": 311, "annotation": {"number": 100, "value": 127}, "group": "control_change"}, {"time": 93118, "annotation": {"number": 1, "value": 20}, "group": "control_change"}, {"time": 100961, "annotation": {"number": 1, "value": 70}, "group": "control_change"}, {"time": 102481, "annotation": {"number": 1, "value": 0}, "group": "control_change"}, {"time": 107760, "annotation": {"number": 1, "value": 70}, "group": "control_change"}, {"time": 108121, "annotation": {"number": 1, "value": 20}, "group": "control_change"}]}]}