{"metadata": {"schema_version": "0.1", "title": "RWC-MDB-P-2001 No. 86: Angel Baby / Betty", "copyright": "RWC Music Database. Copyright (C) 2001 Real World Computing Partnership (contact: Masataka GOTO <m.goto@aist.go.jp>)", "source_filename": "RM-P086.SMF_SYNC.MID", "source_format": "midi"}, "resolution": 480, "tempos": [{"time": 0, "qpm": 55.55555555555556}, {"time": 480, "qpm": 80.0}], "key_signatures": [{"time": 0, "root": 0, "mode": "major"}], "time_signatures": [{"time": 0, "numerator": 1, "denominator": 4}, {"time": 480, "numerator": 4, "denominator": 4}], "tracks": [{"program": 0, "is_drum": false, "name": "Steel Gt-R", "annotations": [{"time": 264, "annotation": {"number": 0, "value": 32}, "group": "control_change"}, {"time": 288, "annotation": {"number": 32, "value": 2}, "group": "control_change"}]}, {"program": 25, "is_drum": false, "name": "Steel Gt-R", "notes": [{"time": 480, "pitch": 48, "duration": 459, "velocity": 99}, {"time": 488, "pitch": 52, "duration": 459, "velocity": 92}, {"time": 497, "pitch": 55, "duration": 458, "velocity": 95}, {"time": 504, "pitch": 62, "duration": 459, "velocity": 100}, {"time": 510, "pitch": 64, "duration": 455, "velocity": 100}, {"time": 953, "pitch": 48, "duration": 244, "velocity": 98}, {"time": 961, "pitch": 52, "duration": 226, "velocity": 101}, {"time": 971, "pitch": 55, "duration": 214, "velocity": 104}, {"time": 978, "pitch": 62, "duration": 198, "velocity": 90}, {"time": 980, "pitch": 64, "duration": 198, "velocity": 90}, {"time": 1193, "pitch": 48, "duration": 4, "velocity": 85}, {"time": 1196, "pitch": 52, "duration": 105, "velocity": 89}, {"time": 1199, "pitch": 55, "duration": 105, "velocity": 88}, {"time": 1205, "pitch": 62, "duration": 105, "velocity": 73}, {"time": 1313, "pitch": 62, "duration": 100, "velocity": 69}, {"time": 1315, "pitch": 55, "duration": 100, "velocity": 71}, {"time": 1318, "pitch": 52, "duration": 100, "velocity": 69}, {"time": 1433, "pitch": 47, "duration": 465, "velocity": 99}, {"time": 1441, "pitch": 50, "duration": 465, "velocity": 92}, {"time": 1450, "pitch": 55, "duration": 465, "velocity": 95}, {"time": 1458, "pitch": 59, "duration": 465, "velocity": 100}, {"time": 1464, "pitch": 67, "duration": 461, "velocity": 100}, {"time": 1913, "pitch": 47, "duration": 244, "velocity": 98}, {"time": 1921, "pitch": 50, "duration": 226, "velocity": 101}, {"time": 1931, "pitch": 55, "duration": 214, "velocity": 104}, {"time": 1938, "pitch": 59, "duration": 198, "velocity": 90}, {"time": 1940, "pitch": 67, "duration": 198, "velocity": 90}, {"time": 2153, "pitch": 47, "duration": 4, "velocity": 85}, {"time": 2156, "pitch": 50, "duration": 105, "velocity": 89}, {"time": 2159, "pitch": 55, "duration": 105, "velocity": 88}, {"time": 2165, "pitch": 59, "duration": 105, "velocity": 73}, {"time": 2273, "pitch": 59, "duration": 100, "velocity": 69}, {"time": 2275, "pitch": 55, "duration": 100, "velocity": 71}, {"time": 2278, "pitch": 50, "duration": 100, "velocity": 69}, {"time": 2393, "pitch": 45, "duration": 225, "velocity": 94}, {"time": 2398, "pitch": 52, "duration": 225, "velocity": 96}, {"time": 2403, "pitch": 57, "duration": 225, "velocity": 98}, {"time": 2408, "pitch": 60, "duration": 225, "velocity": 88}, {"time": 2410, "pitch": 64, "duration": 225, "velocity": 88}, {"time": 2633, "pitch": 45, "duration": 220, "velocity": 76}, {"time": 2638, "pitch": 52, "duration": 220, "velocity": 76}, {"time": 2643, "pitch": 57, "duration": 220, "velocity": 74}, {"time": 2648, "pitch": 60, "duration": 220, "velocity": 76}, {"time": 2652, "pitch": 64, "duration": 220, "velocity": 76}, {"time": 2873, "pitch": 45, "duration": 244, "velocity": 98}, {"time": 2881, "pitch": 52, "duration": 226, "velocity": 101}, {"time": 2891, "pitch": 57, "duration": 214, "velocity": 104}, {"time": 2898, "pitch": 60, "duration": 198, "velocity": 90}, {"time": 2900, "pitch": 64, "duration": 198, "velocity": 90}, {"time": 3113, "pitch": 45, "duration": 4, "velocity": 85}, {"time": 3116, "pitch": 52, "duration": 105, "velocity": 89}, {"time": 3119, "pitch": 57, "duration": 105, "velocity": 88}, {"time": 3125, "pitch": 60, "duration": 105, "velocity": 73}, {"time": 3233, "pitch": 60, "duration": 100, "velocity": 69}, {"time": 3235, "pitch": 57, "duration": 100, "velocity": 71}, {"time": 3238, "pitch": 52, "duration": 100, "velocity": 69}, {"time": 3353, "pitch": 43, "duration": 465, "velocity": 99}, {"time": 3361, "pitch": 50, "duration": 465, "velocity": 92}, {"time": 3370, "pitch": 55, "duration": 465, "velocity": 95}, {"time": 3378, "pitch": 59, "duration": 465, "velocity": 100}, {"time": 3384, "pitch": 62, "duration": 461, "velocity": 100}, {"time": 3388, "pitch": 67, "duration": 461, "velocity": 100}, {"time": 3833, "pitch": 43, "duration": 247, "velocity": 98}, {"time": 3841, "pitch": 50, "duration": 229, "velocity": 101}, {"time": 3851, "pitch": 55, "duration": 217, "velocity": 104}, {"time": 3858, "pitch": 59, "duration": 201, "velocity": 90}, {"time": 3860, "pitch": 62, "duration": 201, "velocity": 90}, {"time": 3865, "pitch": 67, "duration": 200, "velocity": 90}, {"time": 4076, "pitch": 43, "duration": 4, "velocity": 85}, {"time": 4079, "pitch": 50, "duration": 107, "velocity": 89}, {"time": 4082, "pitch": 55, "duration": 107, "velocity": 88}, {"time": 4089, "pitch": 59, "duration": 106, "velocity": 73}, {"time": 4198, "pitch": 59, "duration": 101, "velocity": 69}, {"time": 4200, "pitch": 55, "duration": 101, "velocity": 71}, {"time": 4203, "pitch": 50, "duration": 101, "velocity": 69}, {"time": 4320, "pitch": 41, "duration": 465, "velocity": 99}, {"time": 4328, "pitch": 48, "duration": 465, "velocity": 92}, {"time": 4337, "pitch": 53, "duration": 465, "velocity": 95}, {"time": 4345, "pitch": 57, "duration": 465, "velocity": 100}, {"time": 4351, "pitch": 60, "duration": 461, "velocity": 100}, {"time": 4355, "pitch": 65, "duration": 461, "velocity": 100}, {"time": 4800, "pitch": 41, "duration": 244, "velocity": 98}, {"time": 4808, "pitch": 48, "duration": 226, "velocity": 101}, {"time": 4818, "pitch": 53, "duration": 214, "velocity": 104}, {"time": 4825, "pitch": 57, "duration": 198, "velocity": 90}, {"time": 4827, "pitch": 60, "duration": 198, "velocity": 90}, {"time": 4831, "pitch": 65, "duration": 198, "velocity": 90}, {"time": 5040, "pitch": 41, "duration": 4, "velocity": 85}, {"time": 5043, "pitch": 48, "duration": 105, "velocity": 89}, {"time": 5046, "pitch": 53, "duration": 105, "velocity": 88}, {"time": 5052, "pitch": 57, "duration": 105, "velocity": 73}, {"time": 5160, "pitch": 57, "duration": 100, "velocity": 69}, {"time": 5162, "pitch": 53, "duration": 100, "velocity": 71}, {"time": 5165, "pitch": 48, "duration": 100, "velocity": 69}, {"time": 5280, "pitch": 43, "duration": 465, "velocity": 99}, {"time": 5288, "pitch": 50, "duration": 465, "velocity": 92}, {"time": 5297, "pitch": 55, "duration": 465, "velocity": 95}, {"time": 5305, "pitch": 59, "duration": 465, "velocity": 100}, {"time": 5311, "pitch": 62, "duration": 461, "velocity": 100}, {"time": 5315, "pitch": 67, "duration": 461, "velocity": 100}, {"time": 5760, "pitch": 43, "duration": 244, "velocity": 98}, {"time": 5768, "pitch": 50, "duration": 226, "velocity": 101}, {"time": 5778, "pitch": 55, "duration": 214, "velocity": 104}, {"time": 5785, "pitch": 59, "duration": 198, "velocity": 90}, {"time": 5787, "pitch": 62, "duration": 198, "velocity": 90}, {"time": 5791, "pitch": 67, "duration": 198, "velocity": 90}, {"time": 6000, "pitch": 43, "duration": 4, "velocity": 85}, {"time": 6003, "pitch": 50, "duration": 105, "velocity": 89}, {"time": 6006, "pitch": 55, "duration": 105, "velocity": 88}, {"time": 6012, "pitch": 59, "duration": 105, "velocity": 73}, {"time": 6120, "pitch": 59, "duration": 100, "velocity": 69}, {"time": 6122, "pitch": 55, "duration": 100, "velocity": 71}, {"time": 6125, "pitch": 50, "duration": 100, "velocity": 69}, {"time": 6240, "pitch": 48, "duration": 465, "velocity": 99}, {"time": 6248, "pitch": 52, "duration": 465, "velocity": 92}, {"time": 6257, "pitch": 55, "duration": 465, "velocity": 95}, {"time": 6265, "pitch": 62, "duration": 465, "velocity": 100}, {"time": 6271, "pitch": 64, "duration": 461, "velocity": 100}, {"time": 6720, "pitch": 48, "duration": 244, "velocity": 98}, {"time": 6728, "pitch": 52, "duration": 226, "velocity": 101}, {"time": 6738, "pitch": 55, "duration": 214, "velocity": 104}, {"time": 6745, "pitch": 62, "duration": 198, "velocity": 90}, {"time": 6747, "pitch": 64, "duration": 198, "velocity": 90}, {"time": 6960, "pitch": 48, "duration": 4, "velocity": 85}, {"time": 6963, "pitch": 52, "duration": 105, "velocity": 89}, {"time": 6966, "pitch": 55, "duration": 105, "velocity": 88}, {"time": 6972, "pitch": 62, "duration": 105, "velocity": 73}, {"time": 6992, "pitch": 64, "duration": 105, "velocity": 73}, {"time": 7082, "pitch": 64, "duration": 15, "velocity": 85}, {"time": 7085, "pitch": 62, "duration": 238, "velocity": 82}, {"time": 7087, "pitch": 55, "duration": 238, "velocity": 82}, {"time": 7088, "pitch": 52, "duration": 238, "velocity": 82}, {"time": 7320, "pitch": 48, "duration": 3, "velocity": 93}, {"time": 7323, "pitch": 52, "duration": 3, "velocity": 97}, {"time": 7326, "pitch": 55, "duration": 105, "velocity": 96}, {"time": 7332, "pitch": 62, "duration": 105, "velocity": 80}, {"time": 7352, "pitch": 64, "duration": 105, "velocity": 80}, {"time": 7442, "pitch": 64, "duration": 15, "velocity": 85}, {"time": 7445, "pitch": 62, "duration": 238, "velocity": 82}, {"time": 7447, "pitch": 55, "duration": 238, "velocity": 82}, {"time": 7448, "pitch": 52, "duration": 238, "velocity": 82}, {"time": 7680, "pitch": 48, "duration": 3, "velocity": 98}, {"time": 7688, "pitch": 52, "duration": 226, "velocity": 101}, {"time": 7698, "pitch": 55, "duration": 214, "velocity": 104}, {"time": 7705, "pitch": 62, "duration": 198, "velocity": 90}, {"time": 7707, "pitch": 64, "duration": 198, "velocity": 90}, {"time": 7920, "pitch": 48, "duration": 4, "velocity": 85}, {"time": 7923, "pitch": 52, "duration": 105, "velocity": 89}, {"time": 7926, "pitch": 55, "duration": 105, "velocity": 88}, {"time": 7932, "pitch": 62, "duration": 105, "velocity": 73}, {"time": 8040, "pitch": 62, "duration": 100, "velocity": 69}, {"time": 8042, "pitch": 55, "duration": 100, "velocity": 71}, {"time": 8045, "pitch": 52, "duration": 100, "velocity": 69}, {"time": 8160, "pitch": 48, "duration": 465, "velocity": 99}, {"time": 8168, "pitch": 52, "duration": 465, "velocity": 92}, {"time": 8177, "pitch": 55, "duration": 465, "velocity": 95}, {"time": 8185, "pitch": 62, "duration": 465, "velocity": 100}, {"time": 8191, "pitch": 64, "duration": 461, "velocity": 100}, {"time": 8640, "pitch": 48, "duration": 244, "velocity": 98}, {"time": 8648, "pitch": 52, "duration": 226, "velocity": 101}, {"time": 8658, "pitch": 55, "duration": 214, "velocity": 104}, {"time": 8665, "pitch": 62, "duration": 198, "velocity": 90}, {"time": 8667, "pitch": 64, "duration": 198, "velocity": 90}, {"time": 8880, "pitch": 48, "duration": 4, "velocity": 85}, {"time": 8883, "pitch": 52, "duration": 105, "velocity": 89}, {"time": 8886, "pitch": 55, "duration": 105, "velocity": 88}, {"time": 8892, "pitch": 62, "duration": 105, "velocity": 73}, {"time": 9000, "pitch": 62, "duration": 100, "velocity": 69}, {"time": 9002, "pitch": 55, "duration": 100, "velocity": 71}, {"time": 9005, "pitch": 52, "duration": 100, "velocity": 69}, {"time": 9120, "pitch": 47, "duration": 225, "velocity": 99}, {"time": 9128, "pitch": 50, "duration": 225, "velocity": 92}, {"time": 9137, "pitch": 55, "duration": 225, "velocity": 95}, {"time": 9145, "pitch": 59, "duration": 225, "velocity": 100}, {"time": 9151, "pitch": 67, "duration": 221, "velocity": 100}, {"time": 9360, "pitch": 47, "duration": 225, "velocity": 89}, {"time": 9368, "pitch": 50, "duration": 225, "velocity": 82}, {"time": 9377, "pitch": 55, "duration": 225, "velocity": 85}, {"time": 9385, "pitch": 59, "duration": 225, "velocity": 90}, {"time": 9600, "pitch": 47, "duration": 244, "velocity": 98}, {"time": 9608, "pitch": 50, "duration": 226, "velocity": 101}, {"time": 9618, "pitch": 55, "duration": 214, "velocity": 104}, {"time": 9625, "pitch": 59, "duration": 198, "velocity": 90}, {"time": 9627, "pitch": 67, "duration": 198, "velocity": 90}, {"time": 9840, "pitch": 47, "duration": 4, "velocity": 85}, {"time": 9843, "pitch": 50, "duration": 105, "velocity": 89}, {"time": 9846, "pitch": 55, "duration": 105, "velocity": 88}, {"time": 9852, "pitch": 59, "duration": 105, "velocity": 73}, {"time": 9960, "pitch": 59, "duration": 100, "velocity": 69}, {"time": 9962, "pitch": 55, "duration": 100, "velocity": 71}, {"time": 9965, "pitch": 50, "duration": 100, "velocity": 69}, {"time": 10080, "pitch": 45, "duration": 465, "velocity": 94}, {"time": 10085, "pitch": 52, "duration": 465, "velocity": 96}, {"time": 10090, "pitch": 57, "duration": 465, "velocity": 98}, {"time": 10095, "pitch": 60, "duration": 465, "velocity": 88}, {"time": 10097, "pitch": 64, "duration": 465, "velocity": 88}, {"time": 10560, "pitch": 45, "duration": 244, "velocity": 98}, {"time": 10568, "pitch": 52, "duration": 226, "velocity": 101}, {"time": 10578, "pitch": 57, "duration": 214, "velocity": 104}, {"time": 10585, "pitch": 60, "duration": 198, "velocity": 90}, {"time": 10587, "pitch": 64, "duration": 198, "velocity": 90}, {"time": 10800, "pitch": 45, "duration": 4, "velocity": 85}, {"time": 10803, "pitch": 52, "duration": 105, "velocity": 89}, {"time": 10806, "pitch": 57, "duration": 105, "velocity": 88}, {"time": 10812, "pitch": 60, "duration": 105, "velocity": 73}, {"time": 10920, "pitch": 60, "duration": 100, "velocity": 69}, {"time": 10922, "pitch": 57, "duration": 100, "velocity": 71}, {"time": 10925, "pitch": 52, "duration": 100, "velocity": 69}, {"time": 11040, "pitch": 43, "duration": 225, "velocity": 99}, {"time": 11048, "pitch": 48, "duration": 225, "velocity": 92}, {"time": 11057, "pitch": 52, "duration": 225, "velocity": 95}, {"time": 11065, "pitch": 55, "duration": 225, "velocity": 100}, {"time": 11071, "pitch": 60, "duration": 221, "velocity": 100}, {"time": 11075, "pitch": 64, "duration": 221, "velocity": 100}, {"time": 11280, "pitch": 43, "duration": 225, "velocity": 89}, {"time": 11288, "pitch": 48, "duration": 225, "velocity": 82}, {"time": 11297, "pitch": 52, "duration": 225, "velocity": 85}, {"time": 11305, "pitch": 55, "duration": 225, "velocity": 90}, {"time": 11311, "pitch": 60, "duration": 221, "velocity": 90}, {"time": 11520, "pitch": 43, "duration": 244, "velocity": 98}, {"time": 11528, "pitch": 48, "duration": 226, "velocity": 101}, {"time": 11538, "pitch": 52, "duration": 214, "velocity": 104}, {"time": 11545, "pitch": 55, "duration": 198, "velocity": 90}, {"time": 11547, "pitch": 60, "duration": 198, "velocity": 90}, {"time": 11551, "pitch": 64, "duration": 198, "velocity": 90}, {"time": 11760, "pitch": 43, "duration": 4, "velocity": 85}, {"time": 11763, "pitch": 48, "duration": 105, "velocity": 89}, {"time": 11766, "pitch": 52, "duration": 105, "velocity": 88}, {"time": 11772, "pitch": 55, "duration": 105, "velocity": 73}, {"time": 11880, "pitch": 55, "duration": 100, "velocity": 69}, {"time": 11882, "pitch": 52, "duration": 100, "velocity": 71}, {"time": 11885, "pitch": 48, "duration": 100, "velocity": 69}, {"time": 12000, "pitch": 41, "duration": 465, "velocity": 99}, {"time": 12008, "pitch": 48, "duration": 465, "velocity": 92}, {"time": 12017, "pitch": 53, "duration": 465, "velocity": 95}, {"time": 12025, "pitch": 57, "duration": 465, "velocity": 100}, {"time": 12031, "pitch": 60, "duration": 461, "velocity": 100}, {"time": 12035, "pitch": 65, "duration": 461, "velocity": 100}, {"time": 12480, "pitch": 41, "duration": 244, "velocity": 98}, {"time": 12488, "pitch": 48, "duration": 226, "velocity": 101}, {"time": 12498, "pitch": 53, "duration": 214, "velocity": 104}, {"time": 12505, "pitch": 57, "duration": 198, "velocity": 90}, {"time": 12507, "pitch": 60, "duration": 198, "velocity": 90}, {"time": 12511, "pitch": 65, "duration": 198, "velocity": 90}, {"time": 12720, "pitch": 41, "duration": 4, "velocity": 85}, {"time": 12723, "pitch": 48, "duration": 105, "velocity": 89}, {"time": 12726, "pitch": 53, "duration": 105, "velocity": 88}, {"time": 12732, "pitch": 57, "duration": 105, "velocity": 73}, {"time": 12840, "pitch": 57, "duration": 100, "velocity": 69}, {"time": 12842, "pitch": 53, "duration": 100, "velocity": 71}, {"time": 12845, "pitch": 48, "duration": 100, "velocity": 69}, {"time": 12960, "pitch": 43, "duration": 225, "velocity": 99}, {"time": 12968, "pitch": 50, "duration": 225, "velocity": 92}, {"time": 12977, "pitch": 55, "duration": 225, "velocity": 95}, {"time": 12985, "pitch": 59, "duration": 225, "velocity": 100}, {"time": 12991, "pitch": 62, "duration": 221, "velocity": 100}, {"time": 12995, "pitch": 67, "duration": 221, "velocity": 100}, {"time": 13200, "pitch": 43, "duration": 225, "velocity": 89}, {"time": 13208, "pitch": 50, "duration": 225, "velocity": 82}, {"time": 13217, "pitch": 55, "duration": 225, "velocity": 85}, {"time": 13225, "pitch": 59, "duration": 225, "velocity": 90}, {"time": 13231, "pitch": 62, "duration": 221, "velocity": 90}, {"time": 13440, "pitch": 43, "duration": 244, "velocity": 98}, {"time": 13448, "pitch": 50, "duration": 226, "velocity": 101}, {"time": 13458, "pitch": 55, "duration": 214, "velocity": 104}, {"time": 13465, "pitch": 59, "duration": 198, "velocity": 90}, {"time": 13467, "pitch": 62, "duration": 198, "velocity": 90}, {"time": 13471, "pitch": 67, "duration": 198, "velocity": 90}, {"time": 13680, "pitch": 43, "duration": 4, "velocity": 85}, {"time": 13683, "pitch": 50, "duration": 105, "velocity": 89}, {"time": 13686, "pitch": 55, "duration": 105, "velocity": 88}, {"time": 13692, "pitch": 59, "duration": 105, "velocity": 73}, {"time": 13800, "pitch": 59, "duration": 100, "velocity": 69}, {"time": 13802, "pitch": 55, "duration": 100, "velocity": 71}, {"time": 13805, "pitch": 50, "duration": 100, "velocity": 69}, {"time": 13920, "pitch": 48, "duration": 465, "velocity": 99}, {"time": 13928, "pitch": 52, "duration": 465, "velocity": 92}, {"time": 13937, "pitch": 55, "duration": 465, "velocity": 95}, {"time": 13945, "pitch": 62, "duration": 465, "velocity": 100}, {"time": 13951, "pitch": 64, "duration": 461, "velocity": 100}, {"time": 14400, "pitch": 48, "duration": 244, "velocity": 98}, {"time": 14408, "pitch": 52, "duration": 226, "velocity": 101}, {"time": 14418, "pitch": 55, "duration": 214, "velocity": 104}, {"time": 14425, "pitch": 62, "duration": 198, "velocity": 90}, {"time": 14427, "pitch": 64, "duration": 198, "velocity": 90}, {"time": 14640, "pitch": 48, "duration": 4, "velocity": 85}, {"time": 14643, "pitch": 52, "duration": 105, "velocity": 89}, {"time": 14646, "pitch": 55, "duration": 105, "velocity": 88}, {"time": 14652, "pitch": 62, "duration": 105, "velocity": 73}, {"time": 14760, "pitch": 62, "duration": 100, "velocity": 69}, {"time": 14762, "pitch": 55, "duration": 100, "velocity": 71}, {"time": 14765, "pitch": 52, "duration": 100, "velocity": 69}, {"time": 14880, "pitch": 48, "duration": 465, "velocity": 99}, {"time": 14888, "pitch": 52, "duration": 465, "velocity": 92}, {"time": 14897, "pitch": 55, "duration": 465, "velocity": 95}, {"time": 14905, "pitch": 62, "duration": 465, "velocity": 100}, {"time": 14911, "pitch": 64, "duration": 461, "velocity": 100}, {"time": 15360, "pitch": 48, "duration": 244, "velocity": 98}, {"time": 15368, "pitch": 52, "duration": 226, "velocity": 101}, {"time": 15378, "pitch": 55, "duration": 214, "velocity": 104}, {"time": 15385, "pitch": 62, "duration": 198, "velocity": 90}, {"time": 15387, "pitch": 64, "duration": 198, "velocity": 90}, {"time": 15600, "pitch": 48, "duration": 4, "velocity": 85}, {"time": 15603, "pitch": 52, "duration": 105, "velocity": 89}, {"time": 15606, "pitch": 55, "duration": 105, "velocity": 88}, {"time": 15612, "pitch": 62, "duration": 105, "velocity": 73}, {"time": 15720, "pitch": 62, "duration": 100, "velocity": 69}, {"time": 15722, "pitch": 55, "duration": 100, "velocity": 71}, {"time": 15725, "pitch": 52, "duration": 100, "velocity": 69}, {"time": 15840, "pitch": 48, "duration": 465, "velocity": 99}, {"time": 15848, "pitch": 52, "duration": 465, "velocity": 92}, {"time": 15857, "pitch": 55, "duration": 465, "velocity": 95}, {"time": 15865, "pitch": 62, "duration": 465, "velocity": 100}, {"time": 15871, "pitch": 64, "duration": 461, "velocity": 100}, {"time": 16320, "pitch": 48, "duration": 244, "velocity": 98}, {"time": 16328, "pitch": 52, "duration": 226, "velocity": 101}, {"time": 16338, "pitch": 55, "duration": 214, "velocity": 104}, {"time": 16345, "pitch": 62, "duration": 198, "velocity": 90}, {"time": 16347, "pitch": 64, "duration": 198, "velocity": 90}, {"time": 16560, "pitch": 48, "duration": 4, "velocity": 85}, {"time": 16563, "pitch": 52, "duration": 105, "velocity": 89}, {"time": 16566, "pitch": 55, "duration": 105, "velocity": 88}, {"time": 16572, "pitch": 62, "duration": 105, "velocity": 73}, {"time": 16680, "pitch": 62, "duration": 100, "velocity": 69}, {"time": 16682, "pitch": 55, "duration": 100, "velocity": 71}, {"time": 16685, "pitch": 52, "duration": 100, "velocity": 69}, {"time": 16800, "pitch": 47, "duration": 225, "velocity": 99}, {"time": 16808, "pitch": 50, "duration": 225, "velocity": 92}, {"time": 16817, "pitch": 55, "duration": 225, "velocity": 95}, {"time": 16825, "pitch": 59, "duration": 225, "velocity": 100}, {"time": 16831, "pitch": 67, "duration": 221, "velocity": 100}, {"time": 17040, "pitch": 47, "duration": 225, "velocity": 89}, {"time": 17048, "pitch": 50, "duration": 225, "velocity": 82}, {"time": 17057, "pitch": 55, "duration": 225, "velocity": 85}, {"time": 17065, "pitch": 59, "duration": 225, "velocity": 90}, {"time": 17280, "pitch": 47, "duration": 244, "velocity": 98}, {"time": 17288, "pitch": 50, "duration": 226, "velocity": 101}, {"time": 17298, "pitch": 55, "duration": 214, "velocity": 104}, {"time": 17305, "pitch": 59, "duration": 198, "velocity": 90}, {"time": 17307, "pitch": 67, "duration": 198, "velocity": 90}, {"time": 17520, "pitch": 47, "duration": 4, "velocity": 85}, {"time": 17523, "pitch": 50, "duration": 105, "velocity": 89}, {"time": 17526, "pitch": 55, "duration": 105, "velocity": 88}, {"time": 17532, "pitch": 59, "duration": 105, "velocity": 73}, {"time": 17640, "pitch": 59, "duration": 100, "velocity": 69}, {"time": 17642, "pitch": 55, "duration": 100, "velocity": 71}, {"time": 17645, "pitch": 50, "duration": 100, "velocity": 69}, {"time": 17760, "pitch": 45, "duration": 465, "velocity": 94}, {"time": 17765, "pitch": 52, "duration": 465, "velocity": 96}, {"time": 17770, "pitch": 57, "duration": 465, "velocity": 98}, {"time": 17775, "pitch": 60, "duration": 465, "velocity": 88}, {"time": 17777, "pitch": 64, "duration": 465, "velocity": 88}, {"time": 18240, "pitch": 45, "duration": 244, "velocity": 98}, {"time": 18248, "pitch": 52, "duration": 226, "velocity": 101}, {"time": 18258, "pitch": 57, "duration": 214, "velocity": 104}, {"time": 18265, "pitch": 60, "duration": 198, "velocity": 90}, {"time": 18267, "pitch": 64, "duration": 198, "velocity": 90}, {"time": 18480, "pitch": 45, "duration": 4, "velocity": 85}, {"time": 18483, "pitch": 52, "duration": 105, "velocity": 89}, {"time": 18486, "pitch": 57, "duration": 105, "velocity": 88}, {"time": 18492, "pitch": 60, "duration": 105, "velocity": 73}, {"time": 18600, "pitch": 60, "duration": 100, "velocity": 69}, {"time": 18602, "pitch": 57, "duration": 100, "velocity": 71}, {"time": 18605, "pitch": 52, "duration": 100, "velocity": 69}, {"time": 18720, "pitch": 43, "duration": 225, "velocity": 99}, {"time": 18728, "pitch": 48, "duration": 225, "velocity": 92}, {"time": 18737, "pitch": 52, "duration": 225, "velocity": 95}, {"time": 18745, "pitch": 55, "duration": 225, "velocity": 100}, {"time": 18751, "pitch": 60, "duration": 221, "velocity": 100}, {"time": 18755, "pitch": 64, "duration": 221, "velocity": 100}, {"time": 18960, "pitch": 43, "duration": 225, "velocity": 89}, {"time": 18968, "pitch": 48, "duration": 225, "velocity": 82}, {"time": 18977, "pitch": 52, "duration": 225, "velocity": 85}, {"time": 18985, "pitch": 55, "duration": 225, "velocity": 90}, {"time": 18991, "pitch": 60, "duration": 221, "velocity": 90}, {"time": 19200, "pitch": 43, "duration": 244, "velocity": 98}, {"time": 19208, "pitch": 48, "duration": 226, "velocity": 101}, {"time": 19218, "pitch": 52, "duration": 214, "velocity": 104}, {"time": 19225, "pitch": 55, "duration": 198, "velocity": 90}, {"time": 19227, "pitch": 60, "duration": 198, "velocity": 90}, {"time": 19231, "pitch": 64, "duration": 198, "velocity": 90}, {"time": 19440, "pitch": 43, "duration": 4, "velocity": 85}, {"time": 19443, "pitch": 48, "duration": 105, "velocity": 89}, {"time": 19446, "pitch": 52, "duration": 105, "velocity": 88}, {"time": 19452, "pitch": 55, "duration": 105, "velocity": 73}, {"time": 19560, "pitch": 55, "duration": 100, "velocity": 69}, {"time": 19562, "pitch": 52, "duration": 100, "velocity": 71}, {"time": 19565, "pitch": 48, "duration": 100, "velocity": 69}, {"time": 19680, "pitch": 41, "duration": 465, "velocity": 99}, {"time": 19688, "pitch": 48, "duration": 465, "velocity": 92}, {"time": 19697, "pitch": 53, "duration": 465, "velocity": 95}, {"time": 19705, "pitch": 57, "duration": 465, "velocity": 100}, {"time": 19711, "pitch": 60, "duration": 461, "velocity": 100}, {"time": 19715, "pitch": 65, "duration": 461, "velocity": 100}, {"time": 20160, "pitch": 41, "duration": 244, "velocity": 98}, {"time": 20168, "pitch": 48, "duration": 226, "velocity": 101}, {"time": 20178, "pitch": 53, "duration": 214, "velocity": 104}, {"time": 20185, "pitch": 57, "duration": 198, "velocity": 90}, {"time": 20187, "pitch": 60, "duration": 198, "velocity": 90}, {"time": 20191, "pitch": 65, "duration": 198, "velocity": 90}, {"time": 20400, "pitch": 41, "duration": 4, "velocity": 85}, {"time": 20403, "pitch": 48, "duration": 105, "velocity": 89}, {"time": 20406, "pitch": 53, "duration": 105, "velocity": 88}, {"time": 20412, "pitch": 57, "duration": 105, "velocity": 73}, {"time": 20520, "pitch": 57, "duration": 100, "velocity": 69}, {"time": 20522, "pitch": 53, "duration": 100, "velocity": 71}, {"time": 20525, "pitch": 48, "duration": 100, "velocity": 69}, {"time": 20640, "pitch": 43, "duration": 225, "velocity": 99}, {"time": 20648, "pitch": 50, "duration": 225, "velocity": 92}, {"time": 20657, "pitch": 55, "duration": 225, "velocity": 95}, {"time": 20665, "pitch": 59, "duration": 225, "velocity": 100}, {"time": 20671, "pitch": 62, "duration": 221, "velocity": 100}, {"time": 20675, "pitch": 67, "duration": 221, "velocity": 100}, {"time": 20880, "pitch": 43, "duration": 225, "velocity": 89}, {"time": 20888, "pitch": 50, "duration": 225, "velocity": 82}, {"time": 20897, "pitch": 55, "duration": 225, "velocity": 85}, {"time": 20905, "pitch": 59, "duration": 225, "velocity": 90}, {"time": 20911, "pitch": 62, "duration": 221, "velocity": 90}, {"time": 21120, "pitch": 43, "duration": 244, "velocity": 98}, {"time": 21128, "pitch": 50, "duration": 226, "velocity": 101}, {"time": 21138, "pitch": 55, "duration": 214, "velocity": 104}, {"time": 21145, "pitch": 59, "duration": 198, "velocity": 90}, {"time": 21147, "pitch": 62, "duration": 198, "velocity": 90}, {"time": 21151, "pitch": 67, "duration": 198, "velocity": 90}, {"time": 21360, "pitch": 43, "duration": 4, "velocity": 85}, {"time": 21363, "pitch": 50, "duration": 105, "velocity": 89}, {"time": 21366, "pitch": 55, "duration": 105, "velocity": 88}, {"time": 21372, "pitch": 59, "duration": 105, "velocity": 73}, {"time": 21480, "pitch": 59, "duration": 100, "velocity": 69}, {"time": 21482, "pitch": 55, "duration": 100, "velocity": 71}, {"time": 21485, "pitch": 50, "duration": 100, "velocity": 69}, {"time": 21600, "pitch": 48, "duration": 465, "velocity": 99}, {"time": 21608, "pitch": 52, "duration": 465, "velocity": 92}, {"time": 21617, "pitch": 55, "duration": 465, "velocity": 95}, {"time": 21625, "pitch": 62, "duration": 465, "velocity": 100}, {"time": 21631, "pitch": 64, "duration": 461, "velocity": 100}, {"time": 22080, "pitch": 48, "duration": 244, "velocity": 98}, {"time": 22088, "pitch": 52, "duration": 226, "velocity": 101}, {"time": 22098, "pitch": 55, "duration": 214, "velocity": 104}, {"time": 22105, "pitch": 62, "duration": 198, "velocity": 90}, {"time": 22107, "pitch": 64, "duration": 198, "velocity": 90}, {"time": 22320, "pitch": 48, "duration": 4, "velocity": 85}, {"time": 22323, "pitch": 52, "duration": 105, "velocity": 89}, {"time": 22326, "pitch": 55, "duration": 105, "velocity": 88}, {"time": 22332, "pitch": 62, "duration": 105, "velocity": 73}, {"time": 22440, "pitch": 62, "duration": 100, "velocity": 69}, {"time": 22442, "pitch": 55, "duration": 100, "velocity": 71}, {"time": 22445, "pitch": 52, "duration": 100, "velocity": 69}, {"time": 22560, "pitch": 48, "duration": 465, "velocity": 99}, {"time": 22568, "pitch": 52, "duration": 465, "velocity": 92}, {"time": 22577, "pitch": 55, "duration": 465, "velocity": 95}, {"time": 22585, "pitch": 62, "duration": 465, "velocity": 100}, {"time": 22591, "pitch": 64, "duration": 461, "velocity": 100}, {"time": 23040, "pitch": 48, "duration": 244, "velocity": 98}, {"time": 23048, "pitch": 52, "duration": 226, "velocity": 101}, {"time": 23058, "pitch": 55, "duration": 214, "velocity": 104}, {"time": 23065, "pitch": 62, "duration": 198, "velocity": 90}, {"time": 23067, "pitch": 64, "duration": 198, "velocity": 90}, {"time": 23280, "pitch": 48, "duration": 4, "velocity": 85}, {"time": 23283, "pitch": 52, "duration": 105, "velocity": 89}, {"time": 23286, "pitch": 55, "duration": 105, "velocity": 88}, {"time": 23292, "pitch": 62, "duration": 105, "velocity": 73}, {"time": 23400, "pitch": 62, "duration": 100, "velocity": 69}, {"time": 23402, "pitch": 55, "duration": 100, "velocity": 71}, {"time": 23405, "pitch": 52, "duration": 100, "velocity": 69}, {"time": 23520, "pitch": 46, "duration": 456, "velocity": 98}, {"time": 23528, "pitch": 53, "duration": 342, "velocity": 101}, {"time": 23538, "pitch": 58, "duration": 330, "velocity": 104}, {"time": 23545, "pitch": 62, "duration": 314, "velocity": 90}, {"time": 23880, "pitch": 62, "duration": 99, "velocity": 78}, {"time": 23883, "pitch": 58, "duration": 97, "velocity": 88}, {"time": 23886, "pitch": 53, "duration": 91, "velocity": 86}, {"time": 23993, "pitch": 46, "duration": 14, "velocity": 70}, {"time": 23998, "pitch": 53, "duration": 16, "velocity": 69}, {"time": 24004, "pitch": 58, "duration": 12, "velocity": 85}, {"time": 24012, "pitch": 62, "duration": 6, "velocity": 72}, {"time": 24120, "pitch": 58, "duration": 14, "velocity": 61}, {"time": 24126, "pitch": 53, "duration": 14, "velocity": 60}, {"time": 24240, "pitch": 46, "duration": 330, "velocity": 94}, {"time": 24245, "pitch": 53, "duration": 330, "velocity": 96}, {"time": 24250, "pitch": 58, "duration": 330, "velocity": 98}, {"time": 24255, "pitch": 62, "duration": 330, "velocity": 88}, {"time": 24593, "pitch": 46, "duration": 81, "velocity": 70}, {"time": 24598, "pitch": 53, "duration": 83, "velocity": 69}, {"time": 24604, "pitch": 58, "duration": 79, "velocity": 85}, {"time": 24612, "pitch": 62, "duration": 73, "velocity": 72}, {"time": 24720, "pitch": 46, "duration": 220, "velocity": 76}, {"time": 24725, "pitch": 53, "duration": 220, "velocity": 76}, {"time": 24730, "pitch": 58, "duration": 220, "velocity": 74}, {"time": 24735, "pitch": 62, "duration": 220, "velocity": 76}, {"time": 24960, "pitch": 46, "duration": 230, "velocity": 95}, {"time": 24963, "pitch": 53, "duration": 105, "velocity": 99}, {"time": 24966, "pitch": 58, "duration": 105, "velocity": 98}, {"time": 24972, "pitch": 62, "duration": 105, "velocity": 82}, {"time": 25080, "pitch": 62, "duration": 100, "velocity": 77}, {"time": 25082, "pitch": 58, "duration": 100, "velocity": 79}, {"time": 25085, "pitch": 53, "duration": 100, "velocity": 77}, {"time": 25193, "pitch": 46, "duration": 14, "velocity": 70}, {"time": 25198, "pitch": 53, "duration": 16, "velocity": 69}, {"time": 25204, "pitch": 58, "duration": 12, "velocity": 85}, {"time": 25212, "pitch": 62, "duration": 6, "velocity": 72}, {"time": 25320, "pitch": 58, "duration": 12, "velocity": 54}, {"time": 25326, "pitch": 53, "duration": 12, "velocity": 67}, {"time": 25440, "pitch": 48, "duration": 456, "velocity": 98}, {"time": 25448, "pitch": 55, "duration": 342, "velocity": 101}, {"time": 25458, "pitch": 60, "duration": 330, "velocity": 104}, {"time": 25465, "pitch": 64, "duration": 314, "velocity": 90}, {"time": 25800, "pitch": 64, "duration": 99, "velocity": 78}, {"time": 25803, "pitch": 60, "duration": 97, "velocity": 88}, {"time": 25806, "pitch": 55, "duration": 91, "velocity": 86}, {"time": 25913, "pitch": 48, "duration": 14, "velocity": 70}, {"time": 25918, "pitch": 55, "duration": 16, "velocity": 69}, {"time": 25924, "pitch": 60, "duration": 12, "velocity": 85}, {"time": 25932, "pitch": 64, "duration": 6, "velocity": 72}, {"time": 26040, "pitch": 60, "duration": 14, "velocity": 61}, {"time": 26046, "pitch": 55, "duration": 14, "velocity": 60}, {"time": 26160, "pitch": 48, "duration": 330, "velocity": 94}, {"time": 26165, "pitch": 55, "duration": 330, "velocity": 96}, {"time": 26170, "pitch": 60, "duration": 330, "velocity": 98}, {"time": 26175, "pitch": 64, "duration": 330, "velocity": 88}, {"time": 26513, "pitch": 48, "duration": 81, "velocity": 70}, {"time": 26518, "pitch": 55, "duration": 83, "velocity": 69}, {"time": 26524, "pitch": 60, "duration": 79, "velocity": 85}, {"time": 26532, "pitch": 64, "duration": 73, "velocity": 72}, {"time": 26640, "pitch": 48, "duration": 220, "velocity": 76}, {"time": 26645, "pitch": 55, "duration": 220, "velocity": 76}, {"time": 26650, "pitch": 60, "duration": 220, "velocity": 74}, {"time": 26655, "pitch": 64, "duration": 220, "velocity": 76}, {"time": 26880, "pitch": 48, "duration": 230, "velocity": 95}, {"time": 26883, "pitch": 55, "duration": 105, "velocity": 99}, {"time": 26886, "pitch": 60, "duration": 105, "velocity": 98}, {"time": 26892, "pitch": 64, "duration": 105, "velocity": 82}, {"time": 27000, "pitch": 64, "duration": 100, "velocity": 77}, {"time": 27002, "pitch": 60, "duration": 100, "velocity": 79}, {"time": 27005, "pitch": 55, "duration": 100, "velocity": 77}, {"time": 27113, "pitch": 48, "duration": 14, "velocity": 70}, {"time": 27118, "pitch": 55, "duration": 16, "velocity": 69}, {"time": 27124, "pitch": 60, "duration": 12, "velocity": 85}, {"time": 27132, "pitch": 64, "duration": 6, "velocity": 72}, {"time": 27240, "pitch": 60, "duration": 12, "velocity": 54}, {"time": 27246, "pitch": 55, "duration": 12, "velocity": 67}, {"time": 27360, "pitch": 46, "duration": 456, "velocity": 98}, {"time": 27368, "pitch": 53, "duration": 342, "velocity": 101}, {"time": 27378, "pitch": 58, "duration": 330, "velocity": 104}, {"time": 27385, "pitch": 62, "duration": 314, "velocity": 90}, {"time": 27720, "pitch": 62, "duration": 99, "velocity": 78}, {"time": 27723, "pitch": 58, "duration": 97, "velocity": 88}, {"time": 27726, "pitch": 53, "duration": 91, "velocity": 86}, {"time": 27833, "pitch": 46, "duration": 14, "velocity": 70}, {"time": 27838, "pitch": 53, "duration": 16, "velocity": 69}, {"time": 27844, "pitch": 58, "duration": 12, "velocity": 85}, {"time": 27852, "pitch": 62, "duration": 6, "velocity": 72}, {"time": 27960, "pitch": 58, "duration": 14, "velocity": 61}, {"time": 27966, "pitch": 53, "duration": 14, "velocity": 60}, {"time": 28080, "pitch": 46, "duration": 330, "velocity": 94}, {"time": 28085, "pitch": 53, "duration": 330, "velocity": 96}, {"time": 28090, "pitch": 58, "duration": 330, "velocity": 98}, {"time": 28095, "pitch": 62, "duration": 330, "velocity": 88}, {"time": 28433, "pitch": 46, "duration": 81, "velocity": 70}, {"time": 28438, "pitch": 53, "duration": 83, "velocity": 69}, {"time": 28444, "pitch": 58, "duration": 79, "velocity": 85}, {"time": 28452, "pitch": 62, "duration": 73, "velocity": 72}, {"time": 28560, "pitch": 46, "duration": 220, "velocity": 76}, {"time": 28565, "pitch": 53, "duration": 220, "velocity": 76}, {"time": 28570, "pitch": 58, "duration": 220, "velocity": 74}, {"time": 28575, "pitch": 62, "duration": 220, "velocity": 76}, {"time": 28800, "pitch": 46, "duration": 230, "velocity": 95}, {"time": 28803, "pitch": 53, "duration": 105, "velocity": 99}, {"time": 28806, "pitch": 58, "duration": 105, "velocity": 98}, {"time": 28812, "pitch": 62, "duration": 105, "velocity": 82}, {"time": 28920, "pitch": 62, "duration": 100, "velocity": 77}, {"time": 28922, "pitch": 58, "duration": 100, "velocity": 79}, {"time": 28925, "pitch": 53, "duration": 100, "velocity": 77}, {"time": 29033, "pitch": 46, "duration": 14, "velocity": 70}, {"time": 29038, "pitch": 53, "duration": 16, "velocity": 69}, {"time": 29044, "pitch": 58, "duration": 12, "velocity": 85}, {"time": 29052, "pitch": 62, "duration": 6, "velocity": 72}, {"time": 29160, "pitch": 58, "duration": 12, "velocity": 54}, {"time": 29166, "pitch": 53, "duration": 12, "velocity": 67}, {"time": 29280, "pitch": 48, "duration": 456, "velocity": 98}, {"time": 29288, "pitch": 55, "duration": 342, "velocity": 101}, {"time": 29298, "pitch": 60, "duration": 330, "velocity": 104}, {"time": 29305, "pitch": 64, "duration": 314, "velocity": 90}, {"time": 29640, "pitch": 64, "duration": 99, "velocity": 78}, {"time": 29643, "pitch": 60, "duration": 97, "velocity": 88}, {"time": 29646, "pitch": 55, "duration": 91, "velocity": 86}, {"time": 29753, "pitch": 48, "duration": 14, "velocity": 70}, {"time": 29758, "pitch": 55, "duration": 16, "velocity": 69}, {"time": 29764, "pitch": 60, "duration": 12, "velocity": 85}, {"time": 29772, "pitch": 64, "duration": 6, "velocity": 72}, {"time": 29880, "pitch": 60, "duration": 14, "velocity": 61}, {"time": 29886, "pitch": 55, "duration": 14, "velocity": 60}, {"time": 30000, "pitch": 48, "duration": 330, "velocity": 94}, {"time": 30005, "pitch": 55, "duration": 330, "velocity": 96}, {"time": 30010, "pitch": 60, "duration": 330, "velocity": 98}, {"time": 30015, "pitch": 64, "duration": 330, "velocity": 88}, {"time": 30353, "pitch": 48, "duration": 81, "velocity": 70}, {"time": 30358, "pitch": 55, "duration": 83, "velocity": 69}, {"time": 30364, "pitch": 60, "duration": 79, "velocity": 85}, {"time": 30372, "pitch": 64, "duration": 73, "velocity": 72}, {"time": 30480, "pitch": 48, "duration": 220, "velocity": 76}, {"time": 30485, "pitch": 55, "duration": 220, "velocity": 76}, {"time": 30490, "pitch": 60, "duration": 220, "velocity": 74}, {"time": 30495, "pitch": 64, "duration": 220, "velocity": 76}, {"time": 30720, "pitch": 48, "duration": 230, "velocity": 95}, {"time": 30723, "pitch": 55, "duration": 105, "velocity": 99}, {"time": 30726, "pitch": 60, "duration": 105, "velocity": 98}, {"time": 30732, "pitch": 64, "duration": 105, "velocity": 82}, {"time": 30840, "pitch": 64, "duration": 100, "velocity": 77}, {"time": 30842, "pitch": 60, "duration": 100, "velocity": 79}, {"time": 30845, "pitch": 55, "duration": 100, "velocity": 77}, {"time": 30953, "pitch": 48, "duration": 14, "velocity": 70}, {"time": 30958, "pitch": 55, "duration": 16, "velocity": 69}, {"time": 30964, "pitch": 60, "duration": 12, "velocity": 85}, {"time": 30972, "pitch": 64, "duration": 6, "velocity": 72}, {"time": 31080, "pitch": 60, "duration": 12, "velocity": 54}, {"time": 31086, "pitch": 55, "duration": 12, "velocity": 67}, {"time": 31200, "pitch": 46, "duration": 456, "velocity": 98}, {"time": 31208, "pitch": 53, "duration": 342, "velocity": 101}, {"time": 31218, "pitch": 58, "duration": 330, "velocity": 104}, {"time": 31225, "pitch": 62, "duration": 314, "velocity": 90}, {"time": 31560, "pitch": 62, "duration": 99, "velocity": 78}, {"time": 31563, "pitch": 58, "duration": 97, "velocity": 88}, {"time": 31566, "pitch": 53, "duration": 91, "velocity": 86}, {"time": 31673, "pitch": 46, "duration": 14, "velocity": 70}, {"time": 31678, "pitch": 53, "duration": 16, "velocity": 69}, {"time": 31684, "pitch": 58, "duration": 12, "velocity": 85}, {"time": 31692, "pitch": 62, "duration": 6, "velocity": 72}, {"time": 31800, "pitch": 58, "duration": 14, "velocity": 61}, {"time": 31806, "pitch": 53, "duration": 14, "velocity": 60}, {"time": 31920, "pitch": 46, "duration": 330, "velocity": 94}, {"time": 31925, "pitch": 53, "duration": 330, "velocity": 96}, {"time": 31930, "pitch": 58, "duration": 330, "velocity": 98}, {"time": 31935, "pitch": 62, "duration": 330, "velocity": 88}, {"time": 32273, "pitch": 46, "duration": 81, "velocity": 70}, {"time": 32278, "pitch": 53, "duration": 83, "velocity": 69}, {"time": 32284, "pitch": 58, "duration": 79, "velocity": 85}, {"time": 32292, "pitch": 62, "duration": 73, "velocity": 72}, {"time": 32400, "pitch": 46, "duration": 220, "velocity": 76}, {"time": 32405, "pitch": 53, "duration": 220, "velocity": 76}, {"time": 32410, "pitch": 58, "duration": 220, "velocity": 74}, {"time": 32415, "pitch": 62, "duration": 220, "velocity": 76}, {"time": 32640, "pitch": 46, "duration": 230, "velocity": 95}, {"time": 32643, "pitch": 53, "duration": 105, "velocity": 99}, {"time": 32646, "pitch": 58, "duration": 105, "velocity": 98}, {"time": 32652, "pitch": 62, "duration": 105, "velocity": 82}, {"time": 32760, "pitch": 62, "duration": 100, "velocity": 77}, {"time": 32762, "pitch": 58, "duration": 100, "velocity": 79}, {"time": 32765, "pitch": 53, "duration": 100, "velocity": 77}, {"time": 32873, "pitch": 46, "duration": 14, "velocity": 70}, {"time": 32878, "pitch": 53, "duration": 16, "velocity": 69}, {"time": 32884, "pitch": 58, "duration": 12, "velocity": 85}, {"time": 32892, "pitch": 62, "duration": 6, "velocity": 72}, {"time": 33000, "pitch": 58, "duration": 12, "velocity": 54}, {"time": 33006, "pitch": 53, "duration": 12, "velocity": 67}, {"time": 33120, "pitch": 48, "duration": 456, "velocity": 98}, {"time": 33128, "pitch": 55, "duration": 342, "velocity": 101}, {"time": 33138, "pitch": 60, "duration": 330, "velocity": 104}, {"time": 33145, "pitch": 64, "duration": 314, "velocity": 90}, {"time": 33480, "pitch": 64, "duration": 99, "velocity": 78}, {"time": 33483, "pitch": 60, "duration": 97, "velocity": 88}, {"time": 33486, "pitch": 55, "duration": 91, "velocity": 86}, {"time": 33593, "pitch": 48, "duration": 14, "velocity": 70}, {"time": 33598, "pitch": 55, "duration": 16, "velocity": 69}, {"time": 33604, "pitch": 60, "duration": 12, "velocity": 85}, {"time": 33612, "pitch": 64, "duration": 6, "velocity": 72}, {"time": 33720, "pitch": 60, "duration": 14, "velocity": 61}, {"time": 33726, "pitch": 55, "duration": 14, "velocity": 60}, {"time": 33840, "pitch": 48, "duration": 330, "velocity": 94}, {"time": 33845, "pitch": 55, "duration": 330, "velocity": 96}, {"time": 33850, "pitch": 60, "duration": 330, "velocity": 98}, {"time": 33855, "pitch": 64, "duration": 330, "velocity": 88}, {"time": 34193, "pitch": 48, "duration": 81, "velocity": 70}, {"time": 34198, "pitch": 55, "duration": 83, "velocity": 69}, {"time": 34204, "pitch": 60, "duration": 79, "velocity": 85}, {"time": 34212, "pitch": 64, "duration": 73, "velocity": 72}, {"time": 34320, "pitch": 48, "duration": 220, "velocity": 76}, {"time": 34325, "pitch": 55, "duration": 220, "velocity": 76}, {"time": 34330, "pitch": 60, "duration": 220, "velocity": 74}, {"time": 34335, "pitch": 64, "duration": 220, "velocity": 76}, {"time": 34560, "pitch": 48, "duration": 230, "velocity": 95}, {"time": 34563, "pitch": 55, "duration": 105, "velocity": 99}, {"time": 34566, "pitch": 60, "duration": 105, "velocity": 98}, {"time": 34572, "pitch": 64, "duration": 105, "velocity": 82}, {"time": 34680, "pitch": 64, "duration": 100, "velocity": 77}, {"time": 34682, "pitch": 60, "duration": 100, "velocity": 79}, {"time": 34685, "pitch": 55, "duration": 100, "velocity": 77}, {"time": 34793, "pitch": 48, "duration": 14, "velocity": 70}, {"time": 34798, "pitch": 55, "duration": 16, "velocity": 69}, {"time": 34804, "pitch": 60, "duration": 12, "velocity": 85}, {"time": 34812, "pitch": 64, "duration": 6, "velocity": 72}, {"time": 34920, "pitch": 60, "duration": 12, "velocity": 54}, {"time": 34926, "pitch": 55, "duration": 12, "velocity": 67}, {"time": 35040, "pitch": 49, "duration": 456, "velocity": 98}, {"time": 35048, "pitch": 56, "duration": 342, "velocity": 101}, {"time": 35058, "pitch": 61, "duration": 330, "velocity": 104}, {"time": 35065, "pitch": 68, "duration": 314, "velocity": 90}, {"time": 35400, "pitch": 68, "duration": 99, "velocity": 78}, {"time": 35403, "pitch": 61, "duration": 97, "velocity": 88}, {"time": 35406, "pitch": 56, "duration": 91, "velocity": 86}, {"time": 35513, "pitch": 49, "duration": 14, "velocity": 70}, {"time": 35518, "pitch": 56, "duration": 16, "velocity": 69}, {"time": 35524, "pitch": 61, "duration": 12, "velocity": 85}, {"time": 35532, "pitch": 68, "duration": 6, "velocity": 72}, {"time": 35640, "pitch": 61, "duration": 14, "velocity": 61}, {"time": 35646, "pitch": 56, "duration": 14, "velocity": 60}, {"time": 35760, "pitch": 49, "duration": 330, "velocity": 94}, {"time": 35765, "pitch": 56, "duration": 330, "velocity": 96}, {"time": 35770, "pitch": 61, "duration": 330, "velocity": 98}, {"time": 35775, "pitch": 68, "duration": 330, "velocity": 88}, {"time": 36113, "pitch": 49, "duration": 81, "velocity": 70}, {"time": 36118, "pitch": 56, "duration": 83, "velocity": 69}, {"time": 36124, "pitch": 61, "duration": 79, "velocity": 85}, {"time": 36132, "pitch": 68, "duration": 73, "velocity": 72}, {"time": 36240, "pitch": 49, "duration": 220, "velocity": 76}, {"time": 36245, "pitch": 56, "duration": 220, "velocity": 76}, {"time": 36250, "pitch": 61, "duration": 220, "velocity": 74}, {"time": 36255, "pitch": 68, "duration": 220, "velocity": 76}, {"time": 36480, "pitch": 49, "duration": 230, "velocity": 95}, {"time": 36483, "pitch": 56, "duration": 105, "velocity": 99}, {"time": 36486, "pitch": 61, "duration": 105, "velocity": 98}, {"time": 36492, "pitch": 68, "duration": 105, "velocity": 82}, {"time": 36600, "pitch": 68, "duration": 100, "velocity": 77}, {"time": 36602, "pitch": 61, "duration": 100, "velocity": 79}, {"time": 36605, "pitch": 56, "duration": 100, "velocity": 77}, {"time": 36713, "pitch": 49, "duration": 14, "velocity": 70}, {"time": 36718, "pitch": 56, "duration": 16, "velocity": 69}, {"time": 36724, "pitch": 61, "duration": 12, "velocity": 85}, {"time": 36732, "pitch": 68, "duration": 6, "velocity": 72}, {"time": 36840, "pitch": 61, "duration": 12, "velocity": 54}, {"time": 36846, "pitch": 56, "duration": 12, "velocity": 67}, {"time": 36960, "pitch": 51, "duration": 456, "velocity": 98}, {"time": 36968, "pitch": 63, "duration": 222, "velocity": 101}, {"time": 36978, "pitch": 67, "duration": 210, "velocity": 104}, {"time": 36985, "pitch": 70, "duration": 194, "velocity": 90}, {"time": 37200, "pitch": 63, "duration": 240, "velocity": 83}, {"time": 37210, "pitch": 67, "duration": 230, "velocity": 94}, {"time": 37215, "pitch": 70, "duration": 225, "velocity": 86}, {"time": 37440, "pitch": 51, "duration": 20, "velocity": 70}, {"time": 37440, "pitch": 63, "duration": 20, "velocity": 70}, {"time": 37440, "pitch": 67, "duration": 20, "velocity": 70}, {"time": 37440, "pitch": 70, "duration": 20, "velocity": 70}, {"time": 37680, "pitch": 53, "duration": 452, "velocity": 87}, {"time": 37680, "pitch": 60, "duration": 431, "velocity": 90}, {"time": 37680, "pitch": 65, "duration": 431, "velocity": 90}, {"time": 37680, "pitch": 69, "duration": 478, "velocity": 83}, {"time": 38160, "pitch": 53, "duration": 176, "velocity": 104}, {"time": 38170, "pitch": 60, "duration": 162, "velocity": 94}, {"time": 38180, "pitch": 65, "duration": 177, "velocity": 104}, {"time": 38190, "pitch": 69, "duration": 162, "velocity": 94}, {"time": 38400, "pitch": 53, "duration": 485, "velocity": 104}, {"time": 38410, "pitch": 60, "duration": 509, "velocity": 91}, {"time": 38420, "pitch": 65, "duration": 485, "velocity": 104}, {"time": 38430, "pitch": 69, "duration": 490, "velocity": 101}, {"time": 38880, "pitch": 43, "duration": 2860, "velocity": 81}, {"time": 38890, "pitch": 50, "duration": 2860, "velocity": 80}, {"time": 38895, "pitch": 55, "duration": 2860, "velocity": 82}, {"time": 38910, "pitch": 59, "duration": 2860, "velocity": 85}, {"time": 38920, "pitch": 62, "duration": 2860, "velocity": 89}, {"time": 42720, "pitch": 48, "duration": 465, "velocity": 99}, {"time": 42728, "pitch": 52, "duration": 465, "velocity": 92}, {"time": 42737, "pitch": 55, "duration": 465, "velocity": 95}, {"time": 42745, "pitch": 64, "duration": 465, "velocity": 100}, {"time": 42752, "pitch": 60, "duration": 465, "velocity": 100}, {"time": 43200, "pitch": 47, "duration": 465, "velocity": 99}, {"time": 43208, "pitch": 50, "duration": 465, "velocity": 92}, {"time": 43217, "pitch": 55, "duration": 465, "velocity": 95}, {"time": 43225, "pitch": 67, "duration": 465, "velocity": 100}, {"time": 43232, "pitch": 62, "duration": 465, "velocity": 100}, {"time": 43680, "pitch": 45, "duration": 456, "velocity": 98}, {"time": 43688, "pitch": 52, "duration": 467, "velocity": 101}, {"time": 43698, "pitch": 57, "duration": 447, "velocity": 104}, {"time": 43705, "pitch": 60, "duration": 445, "velocity": 90}, {"time": 44160, "pitch": 45, "duration": 216, "velocity": 98}, {"time": 44168, "pitch": 52, "duration": 192, "velocity": 101}, {"time": 44178, "pitch": 57, "duration": 202, "velocity": 104}, {"time": 44185, "pitch": 60, "duration": 205, "velocity": 90}, {"time": 44393, "pitch": 45, "duration": 14, "velocity": 70}, {"time": 44398, "pitch": 52, "duration": 16, "velocity": 69}, {"time": 44404, "pitch": 57, "duration": 12, "velocity": 85}, {"time": 44412, "pitch": 60, "duration": 6, "velocity": 72}, {"time": 44520, "pitch": 57, "duration": 12, "velocity": 54}, {"time": 44526, "pitch": 52, "duration": 12, "velocity": 67}, {"time": 44640, "pitch": 41, "duration": 230, "velocity": 99}, {"time": 44648, "pitch": 48, "duration": 207, "velocity": 92}, {"time": 44657, "pitch": 53, "duration": 228, "velocity": 95}, {"time": 44665, "pitch": 65, "duration": 215, "velocity": 95}, {"time": 44673, "pitch": 57, "duration": 217, "velocity": 100}, {"time": 44679, "pitch": 60, "duration": 206, "velocity": 95}, {"time": 44880, "pitch": 41, "duration": 230, "velocity": 89}, {"time": 44887, "pitch": 53, "duration": 230, "velocity": 85}, {"time": 44888, "pitch": 48, "duration": 230, "velocity": 82}, {"time": 44898, "pitch": 57, "duration": 230, "velocity": 90}, {"time": 44904, "pitch": 60, "duration": 230, "velocity": 85}, {"time": 45120, "pitch": 41, "duration": 223, "velocity": 100}, {"time": 45125, "pitch": 48, "duration": 222, "velocity": 93}, {"time": 45135, "pitch": 53, "duration": 220, "velocity": 101}, {"time": 45142, "pitch": 57, "duration": 219, "velocity": 93}, {"time": 45148, "pitch": 60, "duration": 219, "velocity": 91}, {"time": 45155, "pitch": 65, "duration": 215, "velocity": 89}, {"time": 45356, "pitch": 41, "duration": 11, "velocity": 72}, {"time": 45361, "pitch": 48, "duration": 12, "velocity": 71}, {"time": 45367, "pitch": 53, "duration": 11, "velocity": 69}, {"time": 45371, "pitch": 57, "duration": 13, "velocity": 77}, {"time": 45374, "pitch": 60, "duration": 6, "velocity": 81}, {"time": 45383, "pitch": 65, "duration": 14, "velocity": 80}, {"time": 45479, "pitch": 65, "duration": 121, "velocity": 82}, {"time": 45488, "pitch": 60, "duration": 117, "velocity": 95}, {"time": 45491, "pitch": 57, "duration": 113, "velocity": 96}, {"time": 45498, "pitch": 53, "duration": 102, "velocity": 86}, {"time": 45504, "pitch": 48, "duration": 91, "velocity": 68}, {"time": 45506, "pitch": 41, "duration": 83, "velocity": 51}, {"time": 45600, "pitch": 43, "duration": 230, "velocity": 99}, {"time": 45608, "pitch": 50, "duration": 207, "velocity": 92}, {"time": 45617, "pitch": 55, "duration": 228, "velocity": 95}, {"time": 45625, "pitch": 67, "duration": 215, "velocity": 95}, {"time": 45633, "pitch": 59, "duration": 217, "velocity": 100}, {"time": 45639, "pitch": 62, "duration": 206, "velocity": 95}, {"time": 45840, "pitch": 43, "duration": 230, "velocity": 89}, {"time": 45847, "pitch": 55, "duration": 230, "velocity": 85}, {"time": 45848, "pitch": 50, "duration": 230, "velocity": 82}, {"time": 45858, "pitch": 59, "duration": 230, "velocity": 90}, {"time": 45864, "pitch": 62, "duration": 230, "velocity": 85}, {"time": 46080, "pitch": 43, "duration": 230, "velocity": 95}, {"time": 46083, "pitch": 50, "duration": 218, "velocity": 99}, {"time": 46086, "pitch": 55, "duration": 218, "velocity": 98}, {"time": 46092, "pitch": 59, "duration": 218, "velocity": 82}, {"time": 46092, "pitch": 62, "duration": 2, "velocity": 82}, {"time": 46313, "pitch": 43, "duration": 14, "velocity": 70}, {"time": 46318, "pitch": 50, "duration": 16, "velocity": 69}, {"time": 46324, "pitch": 55, "duration": 12, "velocity": 85}, {"time": 46332, "pitch": 59, "duration": 6, "velocity": 72}, {"time": 46332, "pitch": 62, "duration": 6, "velocity": 72}, {"time": 46440, "pitch": 55, "duration": 12, "velocity": 54}, {"time": 46446, "pitch": 50, "duration": 12, "velocity": 67}, {"time": 46560, "pitch": 45, "duration": 465, "velocity": 99}, {"time": 46568, "pitch": 52, "duration": 465, "velocity": 92}, {"time": 46577, "pitch": 55, "duration": 465, "velocity": 95}, {"time": 46585, "pitch": 64, "duration": 465, "velocity": 100}, {"time": 46592, "pitch": 60, "duration": 465, "velocity": 100}, {"time": 47040, "pitch": 43, "duration": 465, "velocity": 99}, {"time": 47048, "pitch": 50, "duration": 465, "velocity": 92}, {"time": 47057, "pitch": 55, "duration": 465, "velocity": 95}, {"time": 47065, "pitch": 64, "duration": 465, "velocity": 100}, {"time": 47072, "pitch": 59, "duration": 465, "velocity": 100}, {"time": 47520, "pitch": 41, "duration": 456, "velocity": 98}, {"time": 47528, "pitch": 48, "duration": 462, "velocity": 101}, {"time": 47538, "pitch": 53, "duration": 450, "velocity": 104}, {"time": 47545, "pitch": 57, "duration": 434, "velocity": 90}, {"time": 47545, "pitch": 60, "duration": 434, "velocity": 90}, {"time": 48000, "pitch": 41, "duration": 216, "velocity": 98}, {"time": 48008, "pitch": 48, "duration": 192, "velocity": 101}, {"time": 48018, "pitch": 53, "duration": 202, "velocity": 104}, {"time": 48025, "pitch": 57, "duration": 205, "velocity": 90}, {"time": 48025, "pitch": 60, "duration": 205, "velocity": 90}, {"time": 48233, "pitch": 41, "duration": 14, "velocity": 70}, {"time": 48238, "pitch": 48, "duration": 16, "velocity": 69}, {"time": 48244, "pitch": 53, "duration": 12, "velocity": 85}, {"time": 48252, "pitch": 57, "duration": 6, "velocity": 72}, {"time": 48360, "pitch": 53, "duration": 12, "velocity": 54}, {"time": 48366, "pitch": 48, "duration": 12, "velocity": 67}, {"time": 48480, "pitch": 45, "duration": 230, "velocity": 99}, {"time": 48488, "pitch": 50, "duration": 207, "velocity": 92}, {"time": 48497, "pitch": 57, "duration": 228, "velocity": 95}, {"time": 48513, "pitch": 60, "duration": 217, "velocity": 100}, {"time": 48519, "pitch": 65, "duration": 206, "velocity": 95}, {"time": 48720, "pitch": 45, "duration": 230, "velocity": 89}, {"time": 48727, "pitch": 57, "duration": 230, "velocity": 85}, {"time": 48728, "pitch": 50, "duration": 230, "velocity": 82}, {"time": 48738, "pitch": 60, "duration": 230, "velocity": 90}, {"time": 48744, "pitch": 65, "duration": 230, "velocity": 85}, {"time": 48960, "pitch": 45, "duration": 223, "velocity": 100}, {"time": 48965, "pitch": 50, "duration": 222, "velocity": 93}, {"time": 48975, "pitch": 57, "duration": 220, "velocity": 101}, {"time": 48982, "pitch": 60, "duration": 219, "velocity": 93}, {"time": 48988, "pitch": 65, "duration": 219, "velocity": 91}, {"time": 49196, "pitch": 45, "duration": 11, "velocity": 72}, {"time": 49201, "pitch": 50, "duration": 12, "velocity": 71}, {"time": 49207, "pitch": 57, "duration": 11, "velocity": 69}, {"time": 49211, "pitch": 60, "duration": 13, "velocity": 77}, {"time": 49214, "pitch": 65, "duration": 6, "velocity": 81}, {"time": 49328, "pitch": 65, "duration": 117, "velocity": 95}, {"time": 49331, "pitch": 60, "duration": 113, "velocity": 96}, {"time": 49338, "pitch": 57, "duration": 102, "velocity": 86}, {"time": 49344, "pitch": 50, "duration": 91, "velocity": 68}, {"time": 49346, "pitch": 45, "duration": 83, "velocity": 51}, {"time": 49440, "pitch": 43, "duration": 230, "velocity": 99}, {"time": 49448, "pitch": 50, "duration": 207, "velocity": 92}, {"time": 49457, "pitch": 53, "duration": 228, "velocity": 95}, {"time": 49473, "pitch": 55, "duration": 217, "velocity": 100}, {"time": 49479, "pitch": 59, "duration": 206, "velocity": 95}, {"time": 49479, "pitch": 62, "duration": 206, "velocity": 95}, {"time": 49680, "pitch": 43, "duration": 230, "velocity": 89}, {"time": 49687, "pitch": 53, "duration": 230, "velocity": 85}, {"time": 49688, "pitch": 50, "duration": 230, "velocity": 82}, {"time": 49698, "pitch": 55, "duration": 230, "velocity": 90}, {"time": 49704, "pitch": 59, "duration": 230, "velocity": 85}, {"time": 49704, "pitch": 62, "duration": 230, "velocity": 85}, {"time": 49920, "pitch": 43, "duration": 223, "velocity": 100}, {"time": 49925, "pitch": 50, "duration": 222, "velocity": 93}, {"time": 49935, "pitch": 53, "duration": 220, "velocity": 101}, {"time": 49942, "pitch": 55, "duration": 219, "velocity": 93}, {"time": 49948, "pitch": 59, "duration": 219, "velocity": 91}, {"time": 49948, "pitch": 62, "duration": 219, "velocity": 91}, {"time": 50156, "pitch": 43, "duration": 11, "velocity": 72}, {"time": 50161, "pitch": 50, "duration": 12, "velocity": 71}, {"time": 50167, "pitch": 53, "duration": 11, "velocity": 69}, {"time": 50171, "pitch": 55, "duration": 13, "velocity": 77}, {"time": 50174, "pitch": 59, "duration": 6, "velocity": 81}, {"time": 50174, "pitch": 62, "duration": 6, "velocity": 81}, {"time": 50288, "pitch": 59, "duration": 117, "velocity": 95}, {"time": 50288, "pitch": 62, "duration": 117, "velocity": 95}, {"time": 50291, "pitch": 55, "duration": 113, "velocity": 96}, {"time": 50298, "pitch": 53, "duration": 102, "velocity": 86}, {"time": 50304, "pitch": 50, "duration": 91, "velocity": 68}, {"time": 50306, "pitch": 43, "duration": 83, "velocity": 51}, {"time": 50400, "pitch": 48, "duration": 465, "velocity": 99}, {"time": 50408, "pitch": 52, "duration": 465, "velocity": 92}, {"time": 50417, "pitch": 55, "duration": 465, "velocity": 95}, {"time": 50425, "pitch": 64, "duration": 465, "velocity": 100}, {"time": 50432, "pitch": 60, "duration": 465, "velocity": 100}, {"time": 50880, "pitch": 47, "duration": 465, "velocity": 99}, {"time": 50888, "pitch": 50, "duration": 465, "velocity": 92}, {"time": 50897, "pitch": 55, "duration": 465, "velocity": 95}, {"time": 50905, "pitch": 67, "duration": 465, "velocity": 100}, {"time": 50912, "pitch": 62, "duration": 465, "velocity": 100}, {"time": 51360, "pitch": 45, "duration": 456, "velocity": 98}, {"time": 51368, "pitch": 52, "duration": 467, "velocity": 101}, {"time": 51378, "pitch": 57, "duration": 447, "velocity": 104}, {"time": 51385, "pitch": 60, "duration": 445, "velocity": 90}, {"time": 51840, "pitch": 45, "duration": 216, "velocity": 98}, {"time": 51848, "pitch": 52, "duration": 192, "velocity": 101}, {"time": 51858, "pitch": 57, "duration": 202, "velocity": 104}, {"time": 51865, "pitch": 60, "duration": 205, "velocity": 90}, {"time": 52073, "pitch": 45, "duration": 14, "velocity": 70}, {"time": 52078, "pitch": 52, "duration": 16, "velocity": 69}, {"time": 52084, "pitch": 57, "duration": 12, "velocity": 85}, {"time": 52092, "pitch": 60, "duration": 6, "velocity": 72}, {"time": 52200, "pitch": 57, "duration": 12, "velocity": 54}, {"time": 52206, "pitch": 52, "duration": 12, "velocity": 67}, {"time": 52320, "pitch": 41, "duration": 230, "velocity": 99}, {"time": 52328, "pitch": 48, "duration": 207, "velocity": 92}, {"time": 52337, "pitch": 53, "duration": 228, "velocity": 95}, {"time": 52345, "pitch": 65, "duration": 215, "velocity": 95}, {"time": 52353, "pitch": 57, "duration": 217, "velocity": 100}, {"time": 52359, "pitch": 60, "duration": 206, "velocity": 95}, {"time": 52560, "pitch": 41, "duration": 230, "velocity": 89}, {"time": 52567, "pitch": 53, "duration": 230, "velocity": 85}, {"time": 52568, "pitch": 48, "duration": 230, "velocity": 82}, {"time": 52578, "pitch": 57, "duration": 230, "velocity": 90}, {"time": 52584, "pitch": 60, "duration": 230, "velocity": 85}, {"time": 52800, "pitch": 41, "duration": 223, "velocity": 100}, {"time": 52805, "pitch": 48, "duration": 222, "velocity": 93}, {"time": 52815, "pitch": 53, "duration": 220, "velocity": 101}, {"time": 52822, "pitch": 57, "duration": 219, "velocity": 93}, {"time": 52828, "pitch": 60, "duration": 219, "velocity": 91}, {"time": 52835, "pitch": 65, "duration": 215, "velocity": 89}, {"time": 53036, "pitch": 41, "duration": 11, "velocity": 72}, {"time": 53041, "pitch": 48, "duration": 12, "velocity": 71}, {"time": 53047, "pitch": 53, "duration": 11, "velocity": 69}, {"time": 53051, "pitch": 57, "duration": 13, "velocity": 77}, {"time": 53054, "pitch": 60, "duration": 6, "velocity": 81}, {"time": 53063, "pitch": 65, "duration": 14, "velocity": 80}, {"time": 53159, "pitch": 65, "duration": 121, "velocity": 82}, {"time": 53168, "pitch": 60, "duration": 117, "velocity": 95}, {"time": 53171, "pitch": 57, "duration": 113, "velocity": 96}, {"time": 53178, "pitch": 53, "duration": 102, "velocity": 86}, {"time": 53184, "pitch": 48, "duration": 91, "velocity": 68}, {"time": 53186, "pitch": 41, "duration": 83, "velocity": 51}, {"time": 53280, "pitch": 43, "duration": 230, "velocity": 99}, {"time": 53288, "pitch": 50, "duration": 207, "velocity": 92}, {"time": 53297, "pitch": 55, "duration": 228, "velocity": 95}, {"time": 53305, "pitch": 67, "duration": 215, "velocity": 95}, {"time": 53313, "pitch": 59, "duration": 217, "velocity": 100}, {"time": 53319, "pitch": 62, "duration": 206, "velocity": 95}, {"time": 53520, "pitch": 43, "duration": 230, "velocity": 89}, {"time": 53527, "pitch": 55, "duration": 230, "velocity": 85}, {"time": 53528, "pitch": 50, "duration": 230, "velocity": 82}, {"time": 53538, "pitch": 59, "duration": 230, "velocity": 90}, {"time": 53544, "pitch": 62, "duration": 230, "velocity": 85}, {"time": 53760, "pitch": 43, "duration": 230, "velocity": 95}, {"time": 53763, "pitch": 50, "duration": 218, "velocity": 99}, {"time": 53766, "pitch": 55, "duration": 218, "velocity": 98}, {"time": 53772, "pitch": 59, "duration": 218, "velocity": 82}, {"time": 53772, "pitch": 62, "duration": 2, "velocity": 82}, {"time": 53993, "pitch": 43, "duration": 14, "velocity": 70}, {"time": 53998, "pitch": 50, "duration": 16, "velocity": 69}, {"time": 54004, "pitch": 55, "duration": 12, "velocity": 85}, {"time": 54012, "pitch": 59, "duration": 6, "velocity": 72}, {"time": 54012, "pitch": 62, "duration": 6, "velocity": 72}, {"time": 54120, "pitch": 55, "duration": 12, "velocity": 54}, {"time": 54126, "pitch": 50, "duration": 12, "velocity": 67}, {"time": 54240, "pitch": 45, "duration": 465, "velocity": 99}, {"time": 54248, "pitch": 52, "duration": 465, "velocity": 92}, {"time": 54257, "pitch": 55, "duration": 465, "velocity": 95}, {"time": 54265, "pitch": 64, "duration": 465, "velocity": 100}, {"time": 54272, "pitch": 60, "duration": 465, "velocity": 100}, {"time": 54720, "pitch": 43, "duration": 465, "velocity": 99}, {"time": 54728, "pitch": 50, "duration": 465, "velocity": 92}, {"time": 54737, "pitch": 55, "duration": 465, "velocity": 95}, {"time": 54745, "pitch": 64, "duration": 465, "velocity": 100}, {"time": 54752, "pitch": 59, "duration": 465, "velocity": 100}, {"time": 55200, "pitch": 41, "duration": 456, "velocity": 98}, {"time": 55208, "pitch": 48, "duration": 462, "velocity": 101}, {"time": 55218, "pitch": 53, "duration": 450, "velocity": 104}, {"time": 55225, "pitch": 57, "duration": 434, "velocity": 90}, {"time": 55225, "pitch": 60, "duration": 434, "velocity": 90}, {"time": 55680, "pitch": 41, "duration": 216, "velocity": 98}, {"time": 55688, "pitch": 48, "duration": 192, "velocity": 101}, {"time": 55698, "pitch": 53, "duration": 202, "velocity": 104}, {"time": 55705, "pitch": 57, "duration": 205, "velocity": 90}, {"time": 55705, "pitch": 60, "duration": 205, "velocity": 90}, {"time": 55913, "pitch": 41, "duration": 14, "velocity": 70}, {"time": 55918, "pitch": 48, "duration": 16, "velocity": 69}, {"time": 55924, "pitch": 53, "duration": 12, "velocity": 85}, {"time": 55932, "pitch": 57, "duration": 6, "velocity": 72}, {"time": 56040, "pitch": 53, "duration": 12, "velocity": 54}, {"time": 56046, "pitch": 48, "duration": 12, "velocity": 67}, {"time": 56160, "pitch": 45, "duration": 230, "velocity": 99}, {"time": 56168, "pitch": 50, "duration": 207, "velocity": 92}, {"time": 56177, "pitch": 57, "duration": 228, "velocity": 95}, {"time": 56193, "pitch": 60, "duration": 217, "velocity": 100}, {"time": 56199, "pitch": 65, "duration": 206, "velocity": 95}, {"time": 56400, "pitch": 45, "duration": 230, "velocity": 89}, {"time": 56407, "pitch": 57, "duration": 230, "velocity": 85}, {"time": 56408, "pitch": 50, "duration": 230, "velocity": 82}, {"time": 56418, "pitch": 60, "duration": 230, "velocity": 90}, {"time": 56424, "pitch": 65, "duration": 230, "velocity": 85}, {"time": 56640, "pitch": 45, "duration": 223, "velocity": 100}, {"time": 56645, "pitch": 50, "duration": 222, "velocity": 93}, {"time": 56655, "pitch": 57, "duration": 220, "velocity": 101}, {"time": 56662, "pitch": 60, "duration": 219, "velocity": 93}, {"time": 56668, "pitch": 65, "duration": 219, "velocity": 91}, {"time": 56876, "pitch": 45, "duration": 11, "velocity": 72}, {"time": 56881, "pitch": 50, "duration": 12, "velocity": 71}, {"time": 56887, "pitch": 57, "duration": 11, "velocity": 69}, {"time": 56891, "pitch": 60, "duration": 13, "velocity": 77}, {"time": 56894, "pitch": 65, "duration": 6, "velocity": 81}, {"time": 57008, "pitch": 65, "duration": 117, "velocity": 95}, {"time": 57011, "pitch": 60, "duration": 113, "velocity": 96}, {"time": 57018, "pitch": 57, "duration": 102, "velocity": 86}, {"time": 57024, "pitch": 50, "duration": 91, "velocity": 68}, {"time": 57026, "pitch": 45, "duration": 83, "velocity": 51}, {"time": 57120, "pitch": 43, "duration": 230, "velocity": 99}, {"time": 57128, "pitch": 50, "duration": 207, "velocity": 92}, {"time": 57137, "pitch": 53, "duration": 228, "velocity": 95}, {"time": 57153, "pitch": 55, "duration": 217, "velocity": 100}, {"time": 57159, "pitch": 59, "duration": 206, "velocity": 95}, {"time": 57159, "pitch": 62, "duration": 206, "velocity": 95}, {"time": 57360, "pitch": 43, "duration": 230, "velocity": 89}, {"time": 57367, "pitch": 53, "duration": 230, "velocity": 85}, {"time": 57368, "pitch": 50, "duration": 230, "velocity": 82}, {"time": 57378, "pitch": 55, "duration": 230, "velocity": 90}, {"time": 57384, "pitch": 59, "duration": 230, "velocity": 85}, {"time": 57384, "pitch": 62, "duration": 230, "velocity": 85}, {"time": 57600, "pitch": 43, "duration": 223, "velocity": 100}, {"time": 57605, "pitch": 50, "duration": 222, "velocity": 93}, {"time": 57615, "pitch": 53, "duration": 220, "velocity": 101}, {"time": 57622, "pitch": 55, "duration": 219, "velocity": 93}, {"time": 57628, "pitch": 59, "duration": 219, "velocity": 91}, {"time": 57628, "pitch": 62, "duration": 219, "velocity": 91}, {"time": 57836, "pitch": 43, "duration": 11, "velocity": 72}, {"time": 57841, "pitch": 50, "duration": 12, "velocity": 71}, {"time": 57847, "pitch": 53, "duration": 11, "velocity": 69}, {"time": 57851, "pitch": 55, "duration": 13, "velocity": 77}, {"time": 57854, "pitch": 59, "duration": 6, "velocity": 81}, {"time": 57854, "pitch": 62, "duration": 6, "velocity": 81}, {"time": 57968, "pitch": 59, "duration": 117, "velocity": 95}, {"time": 57968, "pitch": 62, "duration": 117, "velocity": 95}, {"time": 57971, "pitch": 55, "duration": 113, "velocity": 96}, {"time": 57978, "pitch": 53, "duration": 102, "velocity": 86}, {"time": 57984, "pitch": 50, "duration": 91, "velocity": 68}, {"time": 57986, "pitch": 43, "duration": 83, "velocity": 51}, {"time": 58080, "pitch": 41, "duration": 385, "velocity": 101}, {"time": 58095, "pitch": 48, "duration": 340, "velocity": 102}, {"time": 58102, "pitch": 53, "duration": 339, "velocity": 93}, {"time": 58108, "pitch": 56, "duration": 324, "velocity": 91}, {"time": 58115, "pitch": 60, "duration": 321, "velocity": 89}, {"time": 58440, "pitch": 60, "duration": 120, "velocity": 81}, {"time": 58449, "pitch": 56, "duration": 112, "velocity": 95}, {"time": 58452, "pitch": 53, "duration": 104, "velocity": 96}, {"time": 58459, "pitch": 48, "duration": 96, "velocity": 85}, {"time": 58467, "pitch": 41, "duration": 80, "velocity": 47}, {"time": 58555, "pitch": 41, "duration": 238, "velocity": 70}, {"time": 58566, "pitch": 48, "duration": 223, "velocity": 67}, {"time": 58570, "pitch": 53, "duration": 232, "velocity": 75}, {"time": 58573, "pitch": 56, "duration": 239, "velocity": 80}, {"time": 58582, "pitch": 60, "duration": 238, "velocity": 79}, {"time": 58801, "pitch": 41, "duration": 371, "velocity": 89}, {"time": 58807, "pitch": 48, "duration": 369, "velocity": 90}, {"time": 58814, "pitch": 53, "duration": 344, "velocity": 101}, {"time": 58822, "pitch": 56, "duration": 325, "velocity": 93}, {"time": 58830, "pitch": 60, "duration": 312, "velocity": 85}, {"time": 59160, "pitch": 60, "duration": 135, "velocity": 81}, {"time": 59169, "pitch": 56, "duration": 119, "velocity": 95}, {"time": 59172, "pitch": 53, "duration": 111, "velocity": 96}, {"time": 59179, "pitch": 48, "duration": 96, "velocity": 85}, {"time": 59187, "pitch": 41, "duration": 83, "velocity": 47}, {"time": 59281, "pitch": 41, "duration": 225, "velocity": 81}, {"time": 59285, "pitch": 48, "duration": 226, "velocity": 85}, {"time": 59289, "pitch": 53, "duration": 231, "velocity": 93}, {"time": 59295, "pitch": 56, "duration": 230, "velocity": 91}, {"time": 59304, "pitch": 60, "duration": 230, "velocity": 86}, {"time": 59516, "pitch": 41, "duration": 143, "velocity": 74}, {"time": 59524, "pitch": 48, "duration": 126, "velocity": 106}, {"time": 59533, "pitch": 53, "duration": 120, "velocity": 97}, {"time": 59540, "pitch": 56, "duration": 111, "velocity": 95}, {"time": 59547, "pitch": 60, "duration": 91, "velocity": 93}, {"time": 59649, "pitch": 60, "duration": 124, "velocity": 79}, {"time": 59656, "pitch": 56, "duration": 110, "velocity": 83}, {"time": 59661, "pitch": 53, "duration": 103, "velocity": 83}, {"time": 59670, "pitch": 48, "duration": 96, "velocity": 79}, {"time": 59678, "pitch": 41, "duration": 75, "velocity": 58}, {"time": 59756, "pitch": 41, "duration": 148, "velocity": 74}, {"time": 59769, "pitch": 53, "duration": 129, "velocity": 97}, {"time": 59770, "pitch": 48, "duration": 126, "velocity": 106}, {"time": 59776, "pitch": 56, "duration": 116, "velocity": 95}, {"time": 59787, "pitch": 60, "duration": 101, "velocity": 93}, {"time": 59893, "pitch": 60, "duration": 130, "velocity": 74}, {"time": 59897, "pitch": 56, "duration": 120, "velocity": 79}, {"time": 59902, "pitch": 53, "duration": 108, "velocity": 78}, {"time": 59908, "pitch": 48, "duration": 92, "velocity": 73}, {"time": 59921, "pitch": 41, "duration": 67, "velocity": 58}, {"time": 60000, "pitch": 48, "duration": 372, "velocity": 101}, {"time": 60005, "pitch": 52, "duration": 373, "velocity": 93}, {"time": 60015, "pitch": 55, "duration": 351, "velocity": 102}, {"time": 60022, "pitch": 60, "duration": 1, "velocity": 93}, {"time": 60028, "pitch": 64, "duration": 318, "velocity": 91}, {"time": 60368, "pitch": 64, "duration": 355, "velocity": 95}, {"time": 60371, "pitch": 60, "duration": 345, "velocity": 96}, {"time": 60378, "pitch": 55, "duration": 340, "velocity": 85}, {"time": 60384, "pitch": 52, "duration": 329, "velocity": 66}, {"time": 60386, "pitch": 48, "duration": 327, "velocity": 47}, {"time": 60722, "pitch": 48, "duration": 372, "velocity": 102}, {"time": 60728, "pitch": 52, "duration": 359, "velocity": 101}, {"time": 60732, "pitch": 55, "duration": 346, "velocity": 99}, {"time": 60737, "pitch": 60, "duration": 351, "velocity": 101}, {"time": 60746, "pitch": 64, "duration": 319, "velocity": 100}, {"time": 61088, "pitch": 64, "duration": 133, "velocity": 95}, {"time": 61091, "pitch": 60, "duration": 121, "velocity": 96}, {"time": 61098, "pitch": 55, "duration": 100, "velocity": 85}, {"time": 61104, "pitch": 52, "duration": 89, "velocity": 66}, {"time": 61106, "pitch": 48, "duration": 87, "velocity": 47}, {"time": 61201, "pitch": 48, "duration": 199, "velocity": 91}, {"time": 61209, "pitch": 52, "duration": 215, "velocity": 66}, {"time": 61212, "pitch": 55, "duration": 226, "velocity": 85}, {"time": 61219, "pitch": 60, "duration": 225, "velocity": 93}, {"time": 61226, "pitch": 64, "duration": 222, "velocity": 91}, {"time": 61440, "pitch": 48, "duration": 230, "velocity": 104}, {"time": 61443, "pitch": 52, "duration": 225, "velocity": 108}, {"time": 61446, "pitch": 55, "duration": 225, "velocity": 107}, {"time": 61452, "pitch": 60, "duration": 225, "velocity": 90}, {"time": 61452, "pitch": 64, "duration": 225, "velocity": 90}, {"time": 61673, "pitch": 48, "duration": 14, "velocity": 77}, {"time": 61678, "pitch": 52, "duration": 16, "velocity": 75}, {"time": 61684, "pitch": 55, "duration": 12, "velocity": 93}, {"time": 61692, "pitch": 60, "duration": 6, "velocity": 79}, {"time": 61692, "pitch": 64, "duration": 6, "velocity": 79}, {"time": 61800, "pitch": 55, "duration": 12, "velocity": 59}, {"time": 61806, "pitch": 52, "duration": 12, "velocity": 73}, {"time": 61920, "pitch": 48, "duration": 1880, "velocity": 106}, {"time": 62040, "pitch": 53, "duration": 1757, "velocity": 86}, {"time": 62160, "pitch": 60, "duration": 460, "velocity": 114}, {"time": 62280, "pitch": 65, "duration": 220, "velocity": 103}, {"time": 62400, "pitch": 68, "duration": 1340, "velocity": 100}, {"time": 62520, "pitch": 65, "duration": 1160, "velocity": 110}, {"time": 62640, "pitch": 60, "duration": 1174, "velocity": 111}, {"time": 62760, "pitch": 72, "duration": 1040, "velocity": 111}, {"time": 63840, "pitch": 48, "duration": 1883, "velocity": 103}, {"time": 63960, "pitch": 55, "duration": 1772, "velocity": 94}, {"time": 64080, "pitch": 60, "duration": 1639, "velocity": 91}, {"time": 64200, "pitch": 64, "duration": 1513, "velocity": 111}, {"time": 64680, "pitch": 67, "duration": 1060, "velocity": 100}, {"time": 65760, "pitch": 48, "duration": 1880, "velocity": 106}, {"time": 65880, "pitch": 53, "duration": 1757, "velocity": 86}, {"time": 66000, "pitch": 60, "duration": 460, "velocity": 114}, {"time": 66120, "pitch": 65, "duration": 220, "velocity": 103}, {"time": 66240, "pitch": 68, "duration": 1340, "velocity": 100}, {"time": 66360, "pitch": 65, "duration": 1160, "velocity": 106}, {"time": 66480, "pitch": 60, "duration": 1174, "velocity": 111}, {"time": 66600, "pitch": 72, "duration": 1040, "velocity": 111}, {"time": 67680, "pitch": 48, "duration": 1894, "velocity": 103}, {"time": 67800, "pitch": 55, "duration": 1782, "velocity": 95}, {"time": 67920, "pitch": 60, "duration": 1659, "velocity": 114}, {"time": 68040, "pitch": 65, "duration": 272, "velocity": 104}, {"time": 68280, "pitch": 64, "duration": 242, "velocity": 111}, {"time": 68520, "pitch": 67, "duration": 1069, "velocity": 111}, {"time": 69600, "pitch": 48, "duration": 465, "velocity": 99}, {"time": 69608, "pitch": 52, "duration": 465, "velocity": 92}, {"time": 69617, "pitch": 55, "duration": 465, "velocity": 95}, {"time": 69625, "pitch": 62, "duration": 465, "velocity": 100}, {"time": 69631, "pitch": 64, "duration": 461, "velocity": 100}, {"time": 70080, "pitch": 48, "duration": 244, "velocity": 98}, {"time": 70088, "pitch": 52, "duration": 226, "velocity": 101}, {"time": 70098, "pitch": 55, "duration": 214, "velocity": 104}, {"time": 70105, "pitch": 62, "duration": 198, "velocity": 90}, {"time": 70107, "pitch": 64, "duration": 198, "velocity": 90}, {"time": 70320, "pitch": 48, "duration": 4, "velocity": 85}, {"time": 70323, "pitch": 52, "duration": 105, "velocity": 89}, {"time": 70326, "pitch": 55, "duration": 105, "velocity": 88}, {"time": 70332, "pitch": 62, "duration": 105, "velocity": 73}, {"time": 70440, "pitch": 62, "duration": 100, "velocity": 69}, {"time": 70442, "pitch": 55, "duration": 100, "velocity": 71}, {"time": 70445, "pitch": 52, "duration": 100, "velocity": 69}, {"time": 70560, "pitch": 47, "duration": 225, "velocity": 99}, {"time": 70568, "pitch": 50, "duration": 225, "velocity": 92}, {"time": 70577, "pitch": 55, "duration": 225, "velocity": 95}, {"time": 70585, "pitch": 59, "duration": 225, "velocity": 100}, {"time": 70591, "pitch": 67, "duration": 221, "velocity": 100}, {"time": 70800, "pitch": 47, "duration": 225, "velocity": 89}, {"time": 70808, "pitch": 50, "duration": 225, "velocity": 82}, {"time": 70817, "pitch": 55, "duration": 225, "velocity": 85}, {"time": 70825, "pitch": 59, "duration": 225, "velocity": 90}, {"time": 71040, "pitch": 47, "duration": 244, "velocity": 98}, {"time": 71048, "pitch": 50, "duration": 226, "velocity": 101}, {"time": 71058, "pitch": 55, "duration": 214, "velocity": 104}, {"time": 71065, "pitch": 59, "duration": 198, "velocity": 90}, {"time": 71067, "pitch": 67, "duration": 198, "velocity": 90}, {"time": 71280, "pitch": 47, "duration": 4, "velocity": 85}, {"time": 71283, "pitch": 50, "duration": 105, "velocity": 89}, {"time": 71286, "pitch": 55, "duration": 105, "velocity": 88}, {"time": 71292, "pitch": 59, "duration": 105, "velocity": 73}, {"time": 71400, "pitch": 59, "duration": 100, "velocity": 69}, {"time": 71402, "pitch": 55, "duration": 100, "velocity": 71}, {"time": 71405, "pitch": 50, "duration": 100, "velocity": 69}, {"time": 71520, "pitch": 45, "duration": 465, "velocity": 94}, {"time": 71525, "pitch": 52, "duration": 465, "velocity": 96}, {"time": 71530, "pitch": 57, "duration": 465, "velocity": 98}, {"time": 71535, "pitch": 60, "duration": 465, "velocity": 88}, {"time": 71537, "pitch": 64, "duration": 465, "velocity": 88}, {"time": 72000, "pitch": 45, "duration": 244, "velocity": 98}, {"time": 72008, "pitch": 52, "duration": 226, "velocity": 101}, {"time": 72018, "pitch": 57, "duration": 214, "velocity": 104}, {"time": 72025, "pitch": 60, "duration": 198, "velocity": 90}, {"time": 72027, "pitch": 64, "duration": 198, "velocity": 90}, {"time": 72240, "pitch": 45, "duration": 4, "velocity": 85}, {"time": 72243, "pitch": 52, "duration": 105, "velocity": 89}, {"time": 72246, "pitch": 57, "duration": 105, "velocity": 88}, {"time": 72252, "pitch": 60, "duration": 105, "velocity": 73}, {"time": 72360, "pitch": 60, "duration": 100, "velocity": 69}, {"time": 72362, "pitch": 57, "duration": 100, "velocity": 71}, {"time": 72365, "pitch": 52, "duration": 100, "velocity": 69}, {"time": 72480, "pitch": 43, "duration": 225, "velocity": 99}, {"time": 72488, "pitch": 48, "duration": 225, "velocity": 92}, {"time": 72497, "pitch": 52, "duration": 225, "velocity": 95}, {"time": 72505, "pitch": 55, "duration": 225, "velocity": 100}, {"time": 72511, "pitch": 60, "duration": 221, "velocity": 100}, {"time": 72515, "pitch": 64, "duration": 221, "velocity": 100}, {"time": 72720, "pitch": 43, "duration": 225, "velocity": 89}, {"time": 72728, "pitch": 48, "duration": 225, "velocity": 82}, {"time": 72737, "pitch": 52, "duration": 225, "velocity": 85}, {"time": 72745, "pitch": 55, "duration": 225, "velocity": 90}, {"time": 72751, "pitch": 60, "duration": 221, "velocity": 90}, {"time": 72960, "pitch": 43, "duration": 244, "velocity": 98}, {"time": 72968, "pitch": 48, "duration": 226, "velocity": 101}, {"time": 72978, "pitch": 52, "duration": 214, "velocity": 104}, {"time": 72985, "pitch": 55, "duration": 198, "velocity": 90}, {"time": 72987, "pitch": 60, "duration": 198, "velocity": 90}, {"time": 72991, "pitch": 64, "duration": 198, "velocity": 90}, {"time": 73200, "pitch": 43, "duration": 4, "velocity": 85}, {"time": 73203, "pitch": 48, "duration": 105, "velocity": 89}, {"time": 73206, "pitch": 52, "duration": 105, "velocity": 88}, {"time": 73212, "pitch": 55, "duration": 105, "velocity": 73}, {"time": 73320, "pitch": 55, "duration": 100, "velocity": 69}, {"time": 73322, "pitch": 52, "duration": 100, "velocity": 71}, {"time": 73325, "pitch": 48, "duration": 100, "velocity": 69}, {"time": 73440, "pitch": 41, "duration": 465, "velocity": 99}, {"time": 73448, "pitch": 48, "duration": 465, "velocity": 92}, {"time": 73457, "pitch": 53, "duration": 465, "velocity": 95}, {"time": 73465, "pitch": 57, "duration": 465, "velocity": 100}, {"time": 73471, "pitch": 60, "duration": 461, "velocity": 100}, {"time": 73475, "pitch": 65, "duration": 461, "velocity": 100}, {"time": 73920, "pitch": 41, "duration": 244, "velocity": 98}, {"time": 73928, "pitch": 48, "duration": 226, "velocity": 101}, {"time": 73938, "pitch": 53, "duration": 214, "velocity": 104}, {"time": 73945, "pitch": 57, "duration": 198, "velocity": 90}, {"time": 73947, "pitch": 60, "duration": 198, "velocity": 90}, {"time": 73951, "pitch": 65, "duration": 198, "velocity": 90}, {"time": 74160, "pitch": 41, "duration": 4, "velocity": 85}, {"time": 74163, "pitch": 48, "duration": 105, "velocity": 89}, {"time": 74166, "pitch": 53, "duration": 105, "velocity": 88}, {"time": 74172, "pitch": 57, "duration": 105, "velocity": 73}, {"time": 74280, "pitch": 57, "duration": 100, "velocity": 69}, {"time": 74282, "pitch": 53, "duration": 100, "velocity": 71}, {"time": 74285, "pitch": 48, "duration": 100, "velocity": 69}, {"time": 74400, "pitch": 43, "duration": 225, "velocity": 99}, {"time": 74408, "pitch": 50, "duration": 225, "velocity": 92}, {"time": 74417, "pitch": 55, "duration": 225, "velocity": 95}, {"time": 74425, "pitch": 59, "duration": 225, "velocity": 100}, {"time": 74431, "pitch": 62, "duration": 221, "velocity": 100}, {"time": 74435, "pitch": 67, "duration": 221, "velocity": 100}, {"time": 74640, "pitch": 43, "duration": 225, "velocity": 89}, {"time": 74648, "pitch": 50, "duration": 225, "velocity": 82}, {"time": 74657, "pitch": 55, "duration": 225, "velocity": 85}, {"time": 74665, "pitch": 59, "duration": 225, "velocity": 90}, {"time": 74671, "pitch": 62, "duration": 221, "velocity": 90}, {"time": 74880, "pitch": 43, "duration": 244, "velocity": 98}, {"time": 74888, "pitch": 50, "duration": 226, "velocity": 101}, {"time": 74898, "pitch": 55, "duration": 214, "velocity": 104}, {"time": 74905, "pitch": 59, "duration": 198, "velocity": 90}, {"time": 74907, "pitch": 62, "duration": 198, "velocity": 90}, {"time": 74911, "pitch": 67, "duration": 198, "velocity": 90}, {"time": 75120, "pitch": 43, "duration": 4, "velocity": 85}, {"time": 75123, "pitch": 50, "duration": 105, "velocity": 89}, {"time": 75126, "pitch": 55, "duration": 105, "velocity": 88}, {"time": 75132, "pitch": 59, "duration": 105, "velocity": 73}, {"time": 75240, "pitch": 59, "duration": 100, "velocity": 69}, {"time": 75242, "pitch": 55, "duration": 100, "velocity": 71}, {"time": 75245, "pitch": 50, "duration": 100, "velocity": 69}, {"time": 75360, "pitch": 48, "duration": 465, "velocity": 99}, {"time": 75368, "pitch": 52, "duration": 465, "velocity": 92}, {"time": 75377, "pitch": 55, "duration": 465, "velocity": 95}, {"time": 75385, "pitch": 62, "duration": 465, "velocity": 100}, {"time": 75391, "pitch": 64, "duration": 461, "velocity": 100}, {"time": 75840, "pitch": 48, "duration": 244, "velocity": 98}, {"time": 75848, "pitch": 52, "duration": 226, "velocity": 101}, {"time": 75858, "pitch": 55, "duration": 214, "velocity": 104}, {"time": 75865, "pitch": 62, "duration": 198, "velocity": 90}, {"time": 75867, "pitch": 64, "duration": 198, "velocity": 90}, {"time": 76080, "pitch": 48, "duration": 4, "velocity": 85}, {"time": 76083, "pitch": 52, "duration": 105, "velocity": 89}, {"time": 76086, "pitch": 55, "duration": 105, "velocity": 88}, {"time": 76092, "pitch": 62, "duration": 105, "velocity": 73}, {"time": 76200, "pitch": 62, "duration": 100, "velocity": 69}, {"time": 76202, "pitch": 55, "duration": 100, "velocity": 71}, {"time": 76205, "pitch": 52, "duration": 100, "velocity": 69}, {"time": 76320, "pitch": 48, "duration": 465, "velocity": 99}, {"time": 76328, "pitch": 52, "duration": 465, "velocity": 92}, {"time": 76337, "pitch": 55, "duration": 465, "velocity": 95}, {"time": 76345, "pitch": 62, "duration": 465, "velocity": 100}, {"time": 76351, "pitch": 64, "duration": 461, "velocity": 100}, {"time": 76800, "pitch": 48, "duration": 244, "velocity": 98}, {"time": 76808, "pitch": 52, "duration": 226, "velocity": 101}, {"time": 76818, "pitch": 55, "duration": 214, "velocity": 104}, {"time": 76825, "pitch": 62, "duration": 198, "velocity": 90}, {"time": 76827, "pitch": 64, "duration": 198, "velocity": 90}, {"time": 77040, "pitch": 48, "duration": 4, "velocity": 85}, {"time": 77043, "pitch": 52, "duration": 105, "velocity": 89}, {"time": 77046, "pitch": 55, "duration": 105, "velocity": 88}, {"time": 77052, "pitch": 62, "duration": 105, "velocity": 73}, {"time": 77160, "pitch": 62, "duration": 100, "velocity": 69}, {"time": 77162, "pitch": 55, "duration": 100, "velocity": 71}, {"time": 77165, "pitch": 52, "duration": 100, "velocity": 69}, {"time": 77280, "pitch": 48, "duration": 465, "velocity": 99}, {"time": 77288, "pitch": 52, "duration": 465, "velocity": 92}, {"time": 77297, "pitch": 55, "duration": 465, "velocity": 95}, {"time": 77305, "pitch": 62, "duration": 465, "velocity": 100}, {"time": 77311, "pitch": 64, "duration": 461, "velocity": 100}, {"time": 77760, "pitch": 48, "duration": 244, "velocity": 98}, {"time": 77768, "pitch": 52, "duration": 226, "velocity": 101}, {"time": 77778, "pitch": 55, "duration": 214, "velocity": 104}, {"time": 77785, "pitch": 62, "duration": 198, "velocity": 90}, {"time": 77787, "pitch": 64, "duration": 198, "velocity": 90}, {"time": 78000, "pitch": 48, "duration": 4, "velocity": 85}, {"time": 78003, "pitch": 52, "duration": 105, "velocity": 89}, {"time": 78006, "pitch": 55, "duration": 105, "velocity": 88}, {"time": 78012, "pitch": 62, "duration": 105, "velocity": 73}, {"time": 78120, "pitch": 62, "duration": 100, "velocity": 69}, {"time": 78122, "pitch": 55, "duration": 100, "velocity": 71}, {"time": 78125, "pitch": 52, "duration": 100, "velocity": 69}, {"time": 78240, "pitch": 47, "duration": 225, "velocity": 99}, {"time": 78248, "pitch": 50, "duration": 225, "velocity": 92}, {"time": 78257, "pitch": 55, "duration": 225, "velocity": 95}, {"time": 78265, "pitch": 59, "duration": 225, "velocity": 100}, {"time": 78271, "pitch": 67, "duration": 221, "velocity": 100}, {"time": 78480, "pitch": 47, "duration": 225, "velocity": 89}, {"time": 78488, "pitch": 50, "duration": 225, "velocity": 82}, {"time": 78497, "pitch": 55, "duration": 225, "velocity": 85}, {"time": 78505, "pitch": 59, "duration": 225, "velocity": 90}, {"time": 78720, "pitch": 47, "duration": 244, "velocity": 98}, {"time": 78728, "pitch": 50, "duration": 226, "velocity": 101}, {"time": 78738, "pitch": 55, "duration": 214, "velocity": 104}, {"time": 78745, "pitch": 59, "duration": 198, "velocity": 90}, {"time": 78747, "pitch": 67, "duration": 198, "velocity": 90}, {"time": 78960, "pitch": 47, "duration": 4, "velocity": 85}, {"time": 78963, "pitch": 50, "duration": 105, "velocity": 89}, {"time": 78966, "pitch": 55, "duration": 105, "velocity": 88}, {"time": 78972, "pitch": 59, "duration": 105, "velocity": 73}, {"time": 79080, "pitch": 59, "duration": 100, "velocity": 69}, {"time": 79082, "pitch": 55, "duration": 100, "velocity": 71}, {"time": 79085, "pitch": 50, "duration": 100, "velocity": 69}, {"time": 79200, "pitch": 45, "duration": 465, "velocity": 94}, {"time": 79205, "pitch": 52, "duration": 465, "velocity": 96}, {"time": 79210, "pitch": 57, "duration": 465, "velocity": 98}, {"time": 79215, "pitch": 60, "duration": 465, "velocity": 88}, {"time": 79217, "pitch": 64, "duration": 465, "velocity": 88}, {"time": 79680, "pitch": 45, "duration": 244, "velocity": 98}, {"time": 79688, "pitch": 52, "duration": 226, "velocity": 101}, {"time": 79698, "pitch": 57, "duration": 214, "velocity": 104}, {"time": 79705, "pitch": 60, "duration": 198, "velocity": 90}, {"time": 79707, "pitch": 64, "duration": 198, "velocity": 90}, {"time": 79920, "pitch": 45, "duration": 4, "velocity": 85}, {"time": 79923, "pitch": 52, "duration": 105, "velocity": 89}, {"time": 79926, "pitch": 57, "duration": 105, "velocity": 88}, {"time": 79932, "pitch": 60, "duration": 105, "velocity": 73}, {"time": 80040, "pitch": 60, "duration": 100, "velocity": 69}, {"time": 80042, "pitch": 57, "duration": 100, "velocity": 71}, {"time": 80045, "pitch": 52, "duration": 100, "velocity": 69}, {"time": 80160, "pitch": 43, "duration": 225, "velocity": 99}, {"time": 80168, "pitch": 48, "duration": 225, "velocity": 92}, {"time": 80177, "pitch": 52, "duration": 225, "velocity": 95}, {"time": 80185, "pitch": 55, "duration": 225, "velocity": 100}, {"time": 80191, "pitch": 60, "duration": 221, "velocity": 100}, {"time": 80195, "pitch": 64, "duration": 221, "velocity": 100}, {"time": 80400, "pitch": 43, "duration": 225, "velocity": 89}, {"time": 80408, "pitch": 48, "duration": 225, "velocity": 82}, {"time": 80417, "pitch": 52, "duration": 225, "velocity": 85}, {"time": 80425, "pitch": 55, "duration": 225, "velocity": 90}, {"time": 80431, "pitch": 60, "duration": 221, "velocity": 90}, {"time": 80640, "pitch": 43, "duration": 244, "velocity": 98}, {"time": 80648, "pitch": 48, "duration": 226, "velocity": 101}, {"time": 80658, "pitch": 52, "duration": 214, "velocity": 104}, {"time": 80665, "pitch": 55, "duration": 198, "velocity": 90}, {"time": 80667, "pitch": 60, "duration": 198, "velocity": 90}, {"time": 80671, "pitch": 64, "duration": 198, "velocity": 90}, {"time": 80880, "pitch": 43, "duration": 4, "velocity": 85}, {"time": 80883, "pitch": 48, "duration": 105, "velocity": 89}, {"time": 80886, "pitch": 52, "duration": 105, "velocity": 88}, {"time": 80892, "pitch": 55, "duration": 105, "velocity": 73}, {"time": 81000, "pitch": 55, "duration": 100, "velocity": 69}, {"time": 81002, "pitch": 52, "duration": 100, "velocity": 71}, {"time": 81005, "pitch": 48, "duration": 100, "velocity": 69}, {"time": 81120, "pitch": 41, "duration": 465, "velocity": 99}, {"time": 81128, "pitch": 48, "duration": 465, "velocity": 92}, {"time": 81137, "pitch": 53, "duration": 465, "velocity": 95}, {"time": 81145, "pitch": 57, "duration": 465, "velocity": 100}, {"time": 81151, "pitch": 60, "duration": 461, "velocity": 100}, {"time": 81155, "pitch": 65, "duration": 461, "velocity": 100}, {"time": 81600, "pitch": 41, "duration": 244, "velocity": 98}, {"time": 81608, "pitch": 48, "duration": 226, "velocity": 101}, {"time": 81618, "pitch": 53, "duration": 214, "velocity": 104}, {"time": 81625, "pitch": 57, "duration": 198, "velocity": 90}, {"time": 81627, "pitch": 60, "duration": 198, "velocity": 90}, {"time": 81631, "pitch": 65, "duration": 198, "velocity": 90}, {"time": 81840, "pitch": 41, "duration": 4, "velocity": 85}, {"time": 81843, "pitch": 48, "duration": 105, "velocity": 89}, {"time": 81846, "pitch": 53, "duration": 105, "velocity": 88}, {"time": 81852, "pitch": 57, "duration": 105, "velocity": 73}, {"time": 81960, "pitch": 57, "duration": 100, "velocity": 69}, {"time": 81962, "pitch": 53, "duration": 100, "velocity": 71}, {"time": 81965, "pitch": 48, "duration": 100, "velocity": 69}, {"time": 82080, "pitch": 43, "duration": 225, "velocity": 99}, {"time": 82088, "pitch": 50, "duration": 225, "velocity": 92}, {"time": 82097, "pitch": 55, "duration": 225, "velocity": 95}, {"time": 82105, "pitch": 59, "duration": 225, "velocity": 100}, {"time": 82111, "pitch": 62, "duration": 221, "velocity": 100}, {"time": 82115, "pitch": 67, "duration": 221, "velocity": 100}, {"time": 82320, "pitch": 43, "duration": 225, "velocity": 89}, {"time": 82328, "pitch": 50, "duration": 225, "velocity": 82}, {"time": 82337, "pitch": 55, "duration": 225, "velocity": 85}, {"time": 82345, "pitch": 59, "duration": 225, "velocity": 90}, {"time": 82351, "pitch": 62, "duration": 221, "velocity": 90}, {"time": 82560, "pitch": 43, "duration": 244, "velocity": 98}, {"time": 82568, "pitch": 50, "duration": 226, "velocity": 101}, {"time": 82578, "pitch": 55, "duration": 214, "velocity": 104}, {"time": 82585, "pitch": 59, "duration": 198, "velocity": 90}, {"time": 82587, "pitch": 62, "duration": 198, "velocity": 90}, {"time": 82591, "pitch": 67, "duration": 198, "velocity": 90}, {"time": 82800, "pitch": 43, "duration": 4, "velocity": 85}, {"time": 82803, "pitch": 50, "duration": 105, "velocity": 89}, {"time": 82806, "pitch": 55, "duration": 105, "velocity": 88}, {"time": 82812, "pitch": 59, "duration": 105, "velocity": 73}, {"time": 82920, "pitch": 59, "duration": 100, "velocity": 69}, {"time": 82922, "pitch": 55, "duration": 100, "velocity": 71}, {"time": 82925, "pitch": 50, "duration": 100, "velocity": 69}, {"time": 83040, "pitch": 48, "duration": 465, "velocity": 99}, {"time": 83048, "pitch": 52, "duration": 465, "velocity": 92}, {"time": 83057, "pitch": 55, "duration": 465, "velocity": 95}, {"time": 83065, "pitch": 62, "duration": 465, "velocity": 100}, {"time": 83071, "pitch": 64, "duration": 461, "velocity": 100}, {"time": 83520, "pitch": 48, "duration": 244, "velocity": 98}, {"time": 83528, "pitch": 52, "duration": 226, "velocity": 101}, {"time": 83538, "pitch": 55, "duration": 214, "velocity": 104}, {"time": 83545, "pitch": 62, "duration": 198, "velocity": 90}, {"time": 83547, "pitch": 64, "duration": 198, "velocity": 90}, {"time": 83760, "pitch": 48, "duration": 4, "velocity": 85}, {"time": 83763, "pitch": 52, "duration": 105, "velocity": 89}, {"time": 83766, "pitch": 55, "duration": 105, "velocity": 88}, {"time": 83772, "pitch": 62, "duration": 105, "velocity": 73}, {"time": 83880, "pitch": 62, "duration": 100, "velocity": 69}, {"time": 83882, "pitch": 55, "duration": 100, "velocity": 71}, {"time": 83885, "pitch": 52, "duration": 100, "velocity": 69}, {"time": 84000, "pitch": 48, "duration": 465, "velocity": 99}, {"time": 84008, "pitch": 52, "duration": 465, "velocity": 92}, {"time": 84017, "pitch": 55, "duration": 465, "velocity": 95}, {"time": 84025, "pitch": 62, "duration": 465, "velocity": 100}, {"time": 84031, "pitch": 64, "duration": 461, "velocity": 100}, {"time": 84480, "pitch": 48, "duration": 244, "velocity": 98}, {"time": 84488, "pitch": 52, "duration": 226, "velocity": 101}, {"time": 84498, "pitch": 55, "duration": 214, "velocity": 104}, {"time": 84505, "pitch": 62, "duration": 198, "velocity": 90}, {"time": 84507, "pitch": 64, "duration": 198, "velocity": 90}, {"time": 84720, "pitch": 48, "duration": 4, "velocity": 85}, {"time": 84723, "pitch": 52, "duration": 105, "velocity": 89}, {"time": 84726, "pitch": 55, "duration": 105, "velocity": 88}, {"time": 84732, "pitch": 62, "duration": 105, "velocity": 73}, {"time": 84840, "pitch": 62, "duration": 100, "velocity": 69}, {"time": 84842, "pitch": 55, "duration": 100, "velocity": 71}, {"time": 84845, "pitch": 52, "duration": 100, "velocity": 69}, {"time": 84960, "pitch": 46, "duration": 456, "velocity": 98}, {"time": 84968, "pitch": 53, "duration": 342, "velocity": 101}, {"time": 84978, "pitch": 58, "duration": 330, "velocity": 104}, {"time": 84985, "pitch": 62, "duration": 314, "velocity": 90}, {"time": 85320, "pitch": 62, "duration": 99, "velocity": 78}, {"time": 85323, "pitch": 58, "duration": 97, "velocity": 88}, {"time": 85326, "pitch": 53, "duration": 91, "velocity": 86}, {"time": 85433, "pitch": 46, "duration": 14, "velocity": 70}, {"time": 85438, "pitch": 53, "duration": 16, "velocity": 69}, {"time": 85444, "pitch": 58, "duration": 12, "velocity": 85}, {"time": 85452, "pitch": 62, "duration": 6, "velocity": 72}, {"time": 85560, "pitch": 58, "duration": 14, "velocity": 61}, {"time": 85566, "pitch": 53, "duration": 14, "velocity": 60}, {"time": 85680, "pitch": 46, "duration": 330, "velocity": 94}, {"time": 85685, "pitch": 53, "duration": 330, "velocity": 96}, {"time": 85690, "pitch": 58, "duration": 330, "velocity": 98}, {"time": 85695, "pitch": 62, "duration": 330, "velocity": 88}, {"time": 86033, "pitch": 46, "duration": 81, "velocity": 70}, {"time": 86038, "pitch": 53, "duration": 83, "velocity": 69}, {"time": 86044, "pitch": 58, "duration": 79, "velocity": 85}, {"time": 86052, "pitch": 62, "duration": 73, "velocity": 72}, {"time": 86160, "pitch": 46, "duration": 220, "velocity": 76}, {"time": 86165, "pitch": 53, "duration": 220, "velocity": 76}, {"time": 86170, "pitch": 58, "duration": 220, "velocity": 74}, {"time": 86175, "pitch": 62, "duration": 220, "velocity": 76}, {"time": 86400, "pitch": 46, "duration": 230, "velocity": 95}, {"time": 86403, "pitch": 53, "duration": 105, "velocity": 99}, {"time": 86406, "pitch": 58, "duration": 105, "velocity": 98}, {"time": 86412, "pitch": 62, "duration": 105, "velocity": 82}, {"time": 86520, "pitch": 62, "duration": 100, "velocity": 77}, {"time": 86522, "pitch": 58, "duration": 100, "velocity": 79}, {"time": 86525, "pitch": 53, "duration": 100, "velocity": 77}, {"time": 86633, "pitch": 46, "duration": 14, "velocity": 70}, {"time": 86638, "pitch": 53, "duration": 16, "velocity": 69}, {"time": 86644, "pitch": 58, "duration": 12, "velocity": 85}, {"time": 86652, "pitch": 62, "duration": 6, "velocity": 72}, {"time": 86760, "pitch": 58, "duration": 12, "velocity": 54}, {"time": 86766, "pitch": 53, "duration": 12, "velocity": 67}, {"time": 86880, "pitch": 48, "duration": 456, "velocity": 98}, {"time": 86888, "pitch": 55, "duration": 342, "velocity": 101}, {"time": 86898, "pitch": 60, "duration": 330, "velocity": 104}, {"time": 86905, "pitch": 64, "duration": 314, "velocity": 90}, {"time": 87240, "pitch": 64, "duration": 99, "velocity": 78}, {"time": 87243, "pitch": 60, "duration": 97, "velocity": 88}, {"time": 87246, "pitch": 55, "duration": 91, "velocity": 86}, {"time": 87353, "pitch": 48, "duration": 14, "velocity": 70}, {"time": 87358, "pitch": 55, "duration": 16, "velocity": 69}, {"time": 87364, "pitch": 60, "duration": 12, "velocity": 85}, {"time": 87372, "pitch": 64, "duration": 6, "velocity": 72}, {"time": 87480, "pitch": 60, "duration": 14, "velocity": 61}, {"time": 87486, "pitch": 55, "duration": 14, "velocity": 60}, {"time": 87600, "pitch": 48, "duration": 330, "velocity": 94}, {"time": 87605, "pitch": 55, "duration": 330, "velocity": 96}, {"time": 87610, "pitch": 60, "duration": 330, "velocity": 98}, {"time": 87615, "pitch": 64, "duration": 330, "velocity": 88}, {"time": 87953, "pitch": 48, "duration": 81, "velocity": 70}, {"time": 87958, "pitch": 55, "duration": 83, "velocity": 69}, {"time": 87964, "pitch": 60, "duration": 79, "velocity": 85}, {"time": 87972, "pitch": 64, "duration": 73, "velocity": 72}, {"time": 88080, "pitch": 48, "duration": 220, "velocity": 76}, {"time": 88085, "pitch": 55, "duration": 220, "velocity": 76}, {"time": 88090, "pitch": 60, "duration": 220, "velocity": 74}, {"time": 88095, "pitch": 64, "duration": 220, "velocity": 76}, {"time": 88320, "pitch": 48, "duration": 230, "velocity": 95}, {"time": 88323, "pitch": 55, "duration": 105, "velocity": 99}, {"time": 88326, "pitch": 60, "duration": 105, "velocity": 98}, {"time": 88332, "pitch": 64, "duration": 105, "velocity": 82}, {"time": 88440, "pitch": 64, "duration": 100, "velocity": 77}, {"time": 88442, "pitch": 60, "duration": 100, "velocity": 79}, {"time": 88445, "pitch": 55, "duration": 100, "velocity": 77}, {"time": 88553, "pitch": 48, "duration": 14, "velocity": 70}, {"time": 88558, "pitch": 55, "duration": 16, "velocity": 69}, {"time": 88564, "pitch": 60, "duration": 12, "velocity": 85}, {"time": 88572, "pitch": 64, "duration": 6, "velocity": 72}, {"time": 88680, "pitch": 60, "duration": 12, "velocity": 54}, {"time": 88686, "pitch": 55, "duration": 12, "velocity": 67}, {"time": 88800, "pitch": 46, "duration": 456, "velocity": 98}, {"time": 88808, "pitch": 53, "duration": 342, "velocity": 101}, {"time": 88818, "pitch": 58, "duration": 330, "velocity": 104}, {"time": 88825, "pitch": 62, "duration": 314, "velocity": 90}, {"time": 89160, "pitch": 62, "duration": 99, "velocity": 78}, {"time": 89163, "pitch": 58, "duration": 97, "velocity": 88}, {"time": 89166, "pitch": 53, "duration": 91, "velocity": 86}, {"time": 89273, "pitch": 46, "duration": 14, "velocity": 70}, {"time": 89278, "pitch": 53, "duration": 16, "velocity": 69}, {"time": 89284, "pitch": 58, "duration": 12, "velocity": 85}, {"time": 89292, "pitch": 62, "duration": 6, "velocity": 72}, {"time": 89400, "pitch": 58, "duration": 14, "velocity": 61}, {"time": 89406, "pitch": 53, "duration": 14, "velocity": 60}, {"time": 89520, "pitch": 46, "duration": 330, "velocity": 94}, {"time": 89525, "pitch": 53, "duration": 330, "velocity": 96}, {"time": 89530, "pitch": 58, "duration": 330, "velocity": 98}, {"time": 89535, "pitch": 62, "duration": 330, "velocity": 88}, {"time": 89873, "pitch": 46, "duration": 81, "velocity": 70}, {"time": 89878, "pitch": 53, "duration": 83, "velocity": 69}, {"time": 89884, "pitch": 58, "duration": 79, "velocity": 85}, {"time": 89892, "pitch": 62, "duration": 73, "velocity": 72}, {"time": 90000, "pitch": 46, "duration": 220, "velocity": 76}, {"time": 90005, "pitch": 53, "duration": 220, "velocity": 76}, {"time": 90010, "pitch": 58, "duration": 220, "velocity": 74}, {"time": 90015, "pitch": 62, "duration": 220, "velocity": 76}, {"time": 90240, "pitch": 46, "duration": 230, "velocity": 95}, {"time": 90243, "pitch": 53, "duration": 105, "velocity": 99}, {"time": 90246, "pitch": 58, "duration": 105, "velocity": 98}, {"time": 90252, "pitch": 62, "duration": 105, "velocity": 82}, {"time": 90360, "pitch": 62, "duration": 100, "velocity": 77}, {"time": 90362, "pitch": 58, "duration": 100, "velocity": 79}, {"time": 90365, "pitch": 53, "duration": 100, "velocity": 77}, {"time": 90473, "pitch": 46, "duration": 14, "velocity": 70}, {"time": 90478, "pitch": 53, "duration": 16, "velocity": 69}, {"time": 90484, "pitch": 58, "duration": 12, "velocity": 85}, {"time": 90492, "pitch": 62, "duration": 6, "velocity": 72}, {"time": 90600, "pitch": 58, "duration": 12, "velocity": 54}, {"time": 90606, "pitch": 53, "duration": 12, "velocity": 67}, {"time": 90720, "pitch": 48, "duration": 456, "velocity": 98}, {"time": 90728, "pitch": 55, "duration": 342, "velocity": 101}, {"time": 90738, "pitch": 60, "duration": 330, "velocity": 104}, {"time": 90745, "pitch": 64, "duration": 314, "velocity": 90}, {"time": 91080, "pitch": 64, "duration": 99, "velocity": 78}, {"time": 91083, "pitch": 60, "duration": 97, "velocity": 88}, {"time": 91086, "pitch": 55, "duration": 91, "velocity": 86}, {"time": 91193, "pitch": 48, "duration": 14, "velocity": 70}, {"time": 91198, "pitch": 55, "duration": 16, "velocity": 69}, {"time": 91204, "pitch": 60, "duration": 12, "velocity": 85}, {"time": 91212, "pitch": 64, "duration": 6, "velocity": 72}, {"time": 91320, "pitch": 60, "duration": 14, "velocity": 61}, {"time": 91326, "pitch": 55, "duration": 14, "velocity": 60}, {"time": 91440, "pitch": 48, "duration": 330, "velocity": 94}, {"time": 91445, "pitch": 55, "duration": 330, "velocity": 96}, {"time": 91450, "pitch": 60, "duration": 330, "velocity": 98}, {"time": 91455, "pitch": 64, "duration": 330, "velocity": 88}, {"time": 91793, "pitch": 48, "duration": 81, "velocity": 70}, {"time": 91798, "pitch": 55, "duration": 83, "velocity": 69}, {"time": 91804, "pitch": 60, "duration": 79, "velocity": 85}, {"time": 91812, "pitch": 64, "duration": 73, "velocity": 72}, {"time": 91920, "pitch": 48, "duration": 220, "velocity": 76}, {"time": 91925, "pitch": 55, "duration": 220, "velocity": 76}, {"time": 91930, "pitch": 60, "duration": 220, "velocity": 74}, {"time": 91935, "pitch": 64, "duration": 220, "velocity": 76}, {"time": 92160, "pitch": 48, "duration": 230, "velocity": 95}, {"time": 92163, "pitch": 55, "duration": 105, "velocity": 99}, {"time": 92166, "pitch": 60, "duration": 105, "velocity": 98}, {"time": 92172, "pitch": 64, "duration": 105, "velocity": 82}, {"time": 92280, "pitch": 64, "duration": 100, "velocity": 77}, {"time": 92282, "pitch": 60, "duration": 100, "velocity": 79}, {"time": 92285, "pitch": 55, "duration": 100, "velocity": 77}, {"time": 92393, "pitch": 48, "duration": 14, "velocity": 70}, {"time": 92398, "pitch": 55, "duration": 16, "velocity": 69}, {"time": 92404, "pitch": 60, "duration": 12, "velocity": 85}, {"time": 92412, "pitch": 64, "duration": 6, "velocity": 72}, {"time": 92520, "pitch": 60, "duration": 12, "velocity": 54}, {"time": 92526, "pitch": 55, "duration": 12, "velocity": 67}, {"time": 92640, "pitch": 46, "duration": 456, "velocity": 98}, {"time": 92648, "pitch": 53, "duration": 342, "velocity": 101}, {"time": 92658, "pitch": 58, "duration": 330, "velocity": 104}, {"time": 92665, "pitch": 62, "duration": 314, "velocity": 90}, {"time": 93000, "pitch": 62, "duration": 99, "velocity": 78}, {"time": 93003, "pitch": 58, "duration": 97, "velocity": 88}, {"time": 93006, "pitch": 53, "duration": 91, "velocity": 86}, {"time": 93113, "pitch": 46, "duration": 14, "velocity": 70}, {"time": 93118, "pitch": 53, "duration": 16, "velocity": 69}, {"time": 93124, "pitch": 58, "duration": 12, "velocity": 85}, {"time": 93132, "pitch": 62, "duration": 6, "velocity": 72}, {"time": 93240, "pitch": 58, "duration": 14, "velocity": 61}, {"time": 93246, "pitch": 53, "duration": 14, "velocity": 60}, {"time": 93360, "pitch": 46, "duration": 330, "velocity": 94}, {"time": 93365, "pitch": 53, "duration": 330, "velocity": 96}, {"time": 93370, "pitch": 58, "duration": 330, "velocity": 98}, {"time": 93375, "pitch": 62, "duration": 330, "velocity": 88}, {"time": 93713, "pitch": 46, "duration": 81, "velocity": 70}, {"time": 93718, "pitch": 53, "duration": 83, "velocity": 69}, {"time": 93724, "pitch": 58, "duration": 79, "velocity": 85}, {"time": 93732, "pitch": 62, "duration": 73, "velocity": 72}, {"time": 93840, "pitch": 46, "duration": 220, "velocity": 76}, {"time": 93845, "pitch": 53, "duration": 220, "velocity": 76}, {"time": 93850, "pitch": 58, "duration": 220, "velocity": 74}, {"time": 93855, "pitch": 62, "duration": 220, "velocity": 76}, {"time": 94080, "pitch": 46, "duration": 230, "velocity": 95}, {"time": 94083, "pitch": 53, "duration": 105, "velocity": 99}, {"time": 94086, "pitch": 58, "duration": 105, "velocity": 98}, {"time": 94092, "pitch": 62, "duration": 105, "velocity": 82}, {"time": 94200, "pitch": 62, "duration": 100, "velocity": 77}, {"time": 94202, "pitch": 58, "duration": 100, "velocity": 79}, {"time": 94205, "pitch": 53, "duration": 100, "velocity": 77}, {"time": 94313, "pitch": 46, "duration": 14, "velocity": 70}, {"time": 94318, "pitch": 53, "duration": 16, "velocity": 69}, {"time": 94324, "pitch": 58, "duration": 12, "velocity": 85}, {"time": 94332, "pitch": 62, "duration": 6, "velocity": 72}, {"time": 94440, "pitch": 58, "duration": 12, "velocity": 54}, {"time": 94446, "pitch": 53, "duration": 12, "velocity": 67}, {"time": 94560, "pitch": 48, "duration": 456, "velocity": 98}, {"time": 94568, "pitch": 55, "duration": 342, "velocity": 101}, {"time": 94578, "pitch": 60, "duration": 330, "velocity": 104}, {"time": 94585, "pitch": 64, "duration": 314, "velocity": 90}, {"time": 94920, "pitch": 64, "duration": 99, "velocity": 78}, {"time": 94923, "pitch": 60, "duration": 97, "velocity": 88}, {"time": 94926, "pitch": 55, "duration": 91, "velocity": 86}, {"time": 95033, "pitch": 48, "duration": 14, "velocity": 70}, {"time": 95038, "pitch": 55, "duration": 16, "velocity": 69}, {"time": 95044, "pitch": 60, "duration": 12, "velocity": 85}, {"time": 95052, "pitch": 64, "duration": 6, "velocity": 72}, {"time": 95160, "pitch": 60, "duration": 14, "velocity": 61}, {"time": 95166, "pitch": 55, "duration": 14, "velocity": 60}, {"time": 95280, "pitch": 48, "duration": 330, "velocity": 94}, {"time": 95285, "pitch": 55, "duration": 330, "velocity": 96}, {"time": 95290, "pitch": 60, "duration": 330, "velocity": 98}, {"time": 95295, "pitch": 64, "duration": 330, "velocity": 88}, {"time": 95633, "pitch": 48, "duration": 81, "velocity": 70}, {"time": 95638, "pitch": 55, "duration": 83, "velocity": 69}, {"time": 95644, "pitch": 60, "duration": 79, "velocity": 85}, {"time": 95652, "pitch": 64, "duration": 73, "velocity": 72}, {"time": 95760, "pitch": 48, "duration": 220, "velocity": 76}, {"time": 95765, "pitch": 55, "duration": 220, "velocity": 76}, {"time": 95770, "pitch": 60, "duration": 220, "velocity": 74}, {"time": 95775, "pitch": 64, "duration": 220, "velocity": 76}, {"time": 96000, "pitch": 48, "duration": 230, "velocity": 95}, {"time": 96003, "pitch": 55, "duration": 105, "velocity": 99}, {"time": 96006, "pitch": 60, "duration": 105, "velocity": 98}, {"time": 96012, "pitch": 64, "duration": 105, "velocity": 82}, {"time": 96120, "pitch": 64, "duration": 100, "velocity": 77}, {"time": 96122, "pitch": 60, "duration": 100, "velocity": 79}, {"time": 96125, "pitch": 55, "duration": 100, "velocity": 77}, {"time": 96233, "pitch": 48, "duration": 14, "velocity": 70}, {"time": 96238, "pitch": 55, "duration": 16, "velocity": 69}, {"time": 96244, "pitch": 60, "duration": 12, "velocity": 85}, {"time": 96252, "pitch": 64, "duration": 6, "velocity": 72}, {"time": 96360, "pitch": 60, "duration": 12, "velocity": 54}, {"time": 96366, "pitch": 55, "duration": 12, "velocity": 67}, {"time": 96480, "pitch": 49, "duration": 456, "velocity": 98}, {"time": 96488, "pitch": 56, "duration": 342, "velocity": 101}, {"time": 96498, "pitch": 61, "duration": 330, "velocity": 104}, {"time": 96505, "pitch": 68, "duration": 314, "velocity": 90}, {"time": 96840, "pitch": 68, "duration": 99, "velocity": 78}, {"time": 96843, "pitch": 61, "duration": 97, "velocity": 88}, {"time": 96846, "pitch": 56, "duration": 91, "velocity": 86}, {"time": 96953, "pitch": 49, "duration": 14, "velocity": 70}, {"time": 96958, "pitch": 56, "duration": 16, "velocity": 69}, {"time": 96964, "pitch": 61, "duration": 12, "velocity": 85}, {"time": 96972, "pitch": 68, "duration": 6, "velocity": 72}, {"time": 97080, "pitch": 61, "duration": 14, "velocity": 61}, {"time": 97086, "pitch": 56, "duration": 14, "velocity": 60}, {"time": 97200, "pitch": 49, "duration": 330, "velocity": 94}, {"time": 97205, "pitch": 56, "duration": 330, "velocity": 96}, {"time": 97210, "pitch": 61, "duration": 330, "velocity": 98}, {"time": 97215, "pitch": 68, "duration": 330, "velocity": 88}, {"time": 97553, "pitch": 49, "duration": 81, "velocity": 70}, {"time": 97558, "pitch": 56, "duration": 83, "velocity": 69}, {"time": 97564, "pitch": 61, "duration": 79, "velocity": 85}, {"time": 97572, "pitch": 68, "duration": 73, "velocity": 72}, {"time": 97680, "pitch": 49, "duration": 220, "velocity": 76}, {"time": 97685, "pitch": 56, "duration": 220, "velocity": 76}, {"time": 97690, "pitch": 61, "duration": 220, "velocity": 74}, {"time": 97695, "pitch": 68, "duration": 220, "velocity": 76}, {"time": 97920, "pitch": 49, "duration": 230, "velocity": 95}, {"time": 97923, "pitch": 56, "duration": 105, "velocity": 99}, {"time": 97926, "pitch": 61, "duration": 105, "velocity": 98}, {"time": 97932, "pitch": 68, "duration": 105, "velocity": 82}, {"time": 98040, "pitch": 68, "duration": 100, "velocity": 77}, {"time": 98042, "pitch": 61, "duration": 100, "velocity": 79}, {"time": 98045, "pitch": 56, "duration": 100, "velocity": 77}, {"time": 98153, "pitch": 49, "duration": 14, "velocity": 70}, {"time": 98158, "pitch": 56, "duration": 16, "velocity": 69}, {"time": 98164, "pitch": 61, "duration": 12, "velocity": 85}, {"time": 98172, "pitch": 68, "duration": 6, "velocity": 72}, {"time": 98280, "pitch": 61, "duration": 12, "velocity": 54}, {"time": 98286, "pitch": 56, "duration": 12, "velocity": 67}, {"time": 98400, "pitch": 51, "duration": 456, "velocity": 98}, {"time": 98408, "pitch": 63, "duration": 222, "velocity": 101}, {"time": 98418, "pitch": 67, "duration": 210, "velocity": 104}, {"time": 98425, "pitch": 70, "duration": 194, "velocity": 90}, {"time": 98640, "pitch": 63, "duration": 240, "velocity": 83}, {"time": 98650, "pitch": 67, "duration": 230, "velocity": 94}, {"time": 98655, "pitch": 70, "duration": 225, "velocity": 86}, {"time": 98880, "pitch": 51, "duration": 20, "velocity": 70}, {"time": 98880, "pitch": 63, "duration": 20, "velocity": 70}, {"time": 98880, "pitch": 67, "duration": 20, "velocity": 70}, {"time": 98880, "pitch": 70, "duration": 20, "velocity": 70}, {"time": 99120, "pitch": 53, "duration": 452, "velocity": 87}, {"time": 99120, "pitch": 60, "duration": 431, "velocity": 90}, {"time": 99120, "pitch": 65, "duration": 431, "velocity": 90}, {"time": 99120, "pitch": 69, "duration": 478, "velocity": 83}, {"time": 99600, "pitch": 53, "duration": 176, "velocity": 104}, {"time": 99610, "pitch": 60, "duration": 162, "velocity": 94}, {"time": 99620, "pitch": 65, "duration": 177, "velocity": 104}, {"time": 99630, "pitch": 69, "duration": 162, "velocity": 94}, {"time": 99840, "pitch": 53, "duration": 485, "velocity": 104}, {"time": 99850, "pitch": 60, "duration": 509, "velocity": 91}, {"time": 99860, "pitch": 65, "duration": 485, "velocity": 104}, {"time": 99870, "pitch": 69, "duration": 490, "velocity": 101}, {"time": 100320, "pitch": 48, "duration": 465, "velocity": 99}, {"time": 100328, "pitch": 52, "duration": 465, "velocity": 92}, {"time": 100337, "pitch": 55, "duration": 465, "velocity": 95}, {"time": 100345, "pitch": 64, "duration": 465, "velocity": 100}, {"time": 100352, "pitch": 60, "duration": 7, "velocity": 100}, {"time": 100800, "pitch": 47, "duration": 465, "velocity": 99}, {"time": 100808, "pitch": 50, "duration": 465, "velocity": 92}, {"time": 100817, "pitch": 55, "duration": 465, "velocity": 95}, {"time": 100825, "pitch": 67, "duration": 465, "velocity": 100}, {"time": 100832, "pitch": 62, "duration": 465, "velocity": 100}, {"time": 101280, "pitch": 45, "duration": 456, "velocity": 98}, {"time": 101288, "pitch": 52, "duration": 467, "velocity": 101}, {"time": 101298, "pitch": 57, "duration": 447, "velocity": 104}, {"time": 101305, "pitch": 60, "duration": 445, "velocity": 90}, {"time": 101760, "pitch": 45, "duration": 213, "velocity": 98}, {"time": 101768, "pitch": 52, "duration": 189, "velocity": 101}, {"time": 101778, "pitch": 57, "duration": 199, "velocity": 104}, {"time": 101785, "pitch": 60, "duration": 202, "velocity": 90}, {"time": 101990, "pitch": 45, "duration": 14, "velocity": 70}, {"time": 101995, "pitch": 52, "duration": 16, "velocity": 69}, {"time": 102001, "pitch": 57, "duration": 12, "velocity": 85}, {"time": 102009, "pitch": 60, "duration": 6, "velocity": 72}, {"time": 102115, "pitch": 57, "duration": 12, "velocity": 54}, {"time": 102121, "pitch": 52, "duration": 12, "velocity": 67}, {"time": 102234, "pitch": 41, "duration": 233, "velocity": 99}, {"time": 102242, "pitch": 48, "duration": 209, "velocity": 92}, {"time": 102251, "pitch": 53, "duration": 231, "velocity": 95}, {"time": 102259, "pitch": 65, "duration": 218, "velocity": 95}, {"time": 102267, "pitch": 57, "duration": 220, "velocity": 100}, {"time": 102273, "pitch": 60, "duration": 209, "velocity": 95}, {"time": 102477, "pitch": 41, "duration": 233, "velocity": 89}, {"time": 102484, "pitch": 53, "duration": 233, "velocity": 85}, {"time": 102485, "pitch": 48, "duration": 233, "velocity": 82}, {"time": 102495, "pitch": 57, "duration": 233, "velocity": 90}, {"time": 102501, "pitch": 60, "duration": 233, "velocity": 85}, {"time": 102720, "pitch": 41, "duration": 223, "velocity": 100}, {"time": 102725, "pitch": 48, "duration": 222, "velocity": 93}, {"time": 102735, "pitch": 53, "duration": 220, "velocity": 101}, {"time": 102742, "pitch": 57, "duration": 219, "velocity": 93}, {"time": 102748, "pitch": 60, "duration": 219, "velocity": 91}, {"time": 102755, "pitch": 65, "duration": 215, "velocity": 89}, {"time": 102956, "pitch": 41, "duration": 11, "velocity": 72}, {"time": 102961, "pitch": 48, "duration": 12, "velocity": 71}, {"time": 102967, "pitch": 53, "duration": 11, "velocity": 69}, {"time": 102971, "pitch": 57, "duration": 13, "velocity": 77}, {"time": 102974, "pitch": 60, "duration": 6, "velocity": 81}, {"time": 102983, "pitch": 65, "duration": 14, "velocity": 80}, {"time": 103079, "pitch": 65, "duration": 121, "velocity": 82}, {"time": 103088, "pitch": 60, "duration": 117, "velocity": 95}, {"time": 103091, "pitch": 57, "duration": 113, "velocity": 96}, {"time": 103098, "pitch": 53, "duration": 102, "velocity": 86}, {"time": 103104, "pitch": 48, "duration": 91, "velocity": 68}, {"time": 103106, "pitch": 41, "duration": 83, "velocity": 51}, {"time": 103200, "pitch": 43, "duration": 230, "velocity": 99}, {"time": 103208, "pitch": 50, "duration": 207, "velocity": 92}, {"time": 103217, "pitch": 55, "duration": 228, "velocity": 95}, {"time": 103225, "pitch": 67, "duration": 215, "velocity": 95}, {"time": 103233, "pitch": 59, "duration": 217, "velocity": 100}, {"time": 103239, "pitch": 62, "duration": 206, "velocity": 95}, {"time": 103440, "pitch": 43, "duration": 230, "velocity": 89}, {"time": 103447, "pitch": 55, "duration": 230, "velocity": 85}, {"time": 103448, "pitch": 50, "duration": 230, "velocity": 82}, {"time": 103458, "pitch": 59, "duration": 230, "velocity": 90}, {"time": 103464, "pitch": 62, "duration": 230, "velocity": 85}, {"time": 103680, "pitch": 43, "duration": 230, "velocity": 95}, {"time": 103683, "pitch": 50, "duration": 218, "velocity": 99}, {"time": 103686, "pitch": 55, "duration": 218, "velocity": 98}, {"time": 103692, "pitch": 59, "duration": 218, "velocity": 82}, {"time": 103692, "pitch": 62, "duration": 2, "velocity": 82}, {"time": 103913, "pitch": 43, "duration": 14, "velocity": 70}, {"time": 103918, "pitch": 50, "duration": 16, "velocity": 69}, {"time": 103924, "pitch": 55, "duration": 12, "velocity": 85}, {"time": 103932, "pitch": 59, "duration": 6, "velocity": 72}, {"time": 103932, "pitch": 62, "duration": 6, "velocity": 72}, {"time": 104040, "pitch": 55, "duration": 12, "velocity": 54}, {"time": 104046, "pitch": 50, "duration": 12, "velocity": 67}, {"time": 104160, "pitch": 45, "duration": 465, "velocity": 99}, {"time": 104168, "pitch": 52, "duration": 465, "velocity": 92}, {"time": 104177, "pitch": 55, "duration": 465, "velocity": 95}, {"time": 104185, "pitch": 64, "duration": 465, "velocity": 100}, {"time": 104192, "pitch": 60, "duration": 465, "velocity": 100}, {"time": 104640, "pitch": 43, "duration": 465, "velocity": 99}, {"time": 104648, "pitch": 50, "duration": 465, "velocity": 92}, {"time": 104657, "pitch": 55, "duration": 465, "velocity": 95}, {"time": 104665, "pitch": 64, "duration": 465, "velocity": 100}, {"time": 104672, "pitch": 59, "duration": 465, "velocity": 100}, {"time": 105120, "pitch": 41, "duration": 456, "velocity": 98}, {"time": 105128, "pitch": 48, "duration": 462, "velocity": 101}, {"time": 105138, "pitch": 53, "duration": 450, "velocity": 104}, {"time": 105145, "pitch": 57, "duration": 434, "velocity": 90}, {"time": 105145, "pitch": 60, "duration": 434, "velocity": 90}, {"time": 105600, "pitch": 41, "duration": 216, "velocity": 98}, {"time": 105608, "pitch": 48, "duration": 192, "velocity": 101}, {"time": 105618, "pitch": 53, "duration": 202, "velocity": 104}, {"time": 105625, "pitch": 57, "duration": 205, "velocity": 90}, {"time": 105625, "pitch": 60, "duration": 205, "velocity": 90}, {"time": 105833, "pitch": 41, "duration": 14, "velocity": 70}, {"time": 105838, "pitch": 48, "duration": 16, "velocity": 69}, {"time": 105844, "pitch": 53, "duration": 12, "velocity": 85}, {"time": 105852, "pitch": 57, "duration": 6, "velocity": 72}, {"time": 105960, "pitch": 53, "duration": 12, "velocity": 54}, {"time": 105966, "pitch": 48, "duration": 12, "velocity": 67}, {"time": 106080, "pitch": 45, "duration": 230, "velocity": 99}, {"time": 106088, "pitch": 50, "duration": 207, "velocity": 92}, {"time": 106097, "pitch": 57, "duration": 228, "velocity": 95}, {"time": 106113, "pitch": 60, "duration": 217, "velocity": 100}, {"time": 106119, "pitch": 65, "duration": 206, "velocity": 95}, {"time": 106320, "pitch": 45, "duration": 230, "velocity": 89}, {"time": 106327, "pitch": 57, "duration": 230, "velocity": 85}, {"time": 106328, "pitch": 50, "duration": 230, "velocity": 82}, {"time": 106338, "pitch": 60, "duration": 230, "velocity": 90}, {"time": 106344, "pitch": 65, "duration": 230, "velocity": 85}, {"time": 106560, "pitch": 45, "duration": 223, "velocity": 100}, {"time": 106565, "pitch": 50, "duration": 222, "velocity": 93}, {"time": 106575, "pitch": 57, "duration": 220, "velocity": 101}, {"time": 106582, "pitch": 60, "duration": 219, "velocity": 93}, {"time": 106588, "pitch": 65, "duration": 219, "velocity": 91}, {"time": 106796, "pitch": 45, "duration": 11, "velocity": 72}, {"time": 106801, "pitch": 50, "duration": 12, "velocity": 71}, {"time": 106807, "pitch": 57, "duration": 11, "velocity": 69}, {"time": 106811, "pitch": 60, "duration": 13, "velocity": 77}, {"time": 106814, "pitch": 65, "duration": 6, "velocity": 81}, {"time": 106928, "pitch": 65, "duration": 117, "velocity": 95}, {"time": 106931, "pitch": 60, "duration": 113, "velocity": 96}, {"time": 106938, "pitch": 57, "duration": 102, "velocity": 86}, {"time": 106944, "pitch": 50, "duration": 91, "velocity": 68}, {"time": 106946, "pitch": 45, "duration": 83, "velocity": 51}, {"time": 107040, "pitch": 43, "duration": 230, "velocity": 99}, {"time": 107048, "pitch": 50, "duration": 207, "velocity": 92}, {"time": 107057, "pitch": 53, "duration": 228, "velocity": 95}, {"time": 107073, "pitch": 55, "duration": 217, "velocity": 100}, {"time": 107079, "pitch": 59, "duration": 206, "velocity": 95}, {"time": 107079, "pitch": 62, "duration": 206, "velocity": 95}, {"time": 107280, "pitch": 43, "duration": 230, "velocity": 89}, {"time": 107287, "pitch": 53, "duration": 230, "velocity": 85}, {"time": 107288, "pitch": 50, "duration": 230, "velocity": 82}, {"time": 107298, "pitch": 55, "duration": 230, "velocity": 90}, {"time": 107304, "pitch": 59, "duration": 230, "velocity": 85}, {"time": 107304, "pitch": 62, "duration": 230, "velocity": 85}, {"time": 107520, "pitch": 43, "duration": 223, "velocity": 100}, {"time": 107525, "pitch": 50, "duration": 222, "velocity": 93}, {"time": 107535, "pitch": 53, "duration": 220, "velocity": 101}, {"time": 107542, "pitch": 55, "duration": 219, "velocity": 93}, {"time": 107548, "pitch": 59, "duration": 219, "velocity": 91}, {"time": 107548, "pitch": 62, "duration": 219, "velocity": 91}, {"time": 107756, "pitch": 43, "duration": 11, "velocity": 72}, {"time": 107761, "pitch": 50, "duration": 12, "velocity": 71}, {"time": 107767, "pitch": 53, "duration": 11, "velocity": 69}, {"time": 107771, "pitch": 55, "duration": 13, "velocity": 77}, {"time": 107774, "pitch": 59, "duration": 6, "velocity": 81}, {"time": 107774, "pitch": 62, "duration": 6, "velocity": 81}, {"time": 107888, "pitch": 59, "duration": 117, "velocity": 95}, {"time": 107888, "pitch": 62, "duration": 117, "velocity": 95}, {"time": 107891, "pitch": 55, "duration": 113, "velocity": 96}, {"time": 107898, "pitch": 53, "duration": 102, "velocity": 86}, {"time": 107904, "pitch": 50, "duration": 91, "velocity": 68}, {"time": 107906, "pitch": 43, "duration": 83, "velocity": 51}, {"time": 108000, "pitch": 48, "duration": 465, "velocity": 99}, {"time": 108008, "pitch": 52, "duration": 465, "velocity": 92}, {"time": 108017, "pitch": 55, "duration": 465, "velocity": 95}, {"time": 108025, "pitch": 64, "duration": 465, "velocity": 100}, {"time": 108032, "pitch": 60, "duration": 465, "velocity": 100}, {"time": 108480, "pitch": 47, "duration": 465, "velocity": 99}, {"time": 108488, "pitch": 50, "duration": 465, "velocity": 92}, {"time": 108497, "pitch": 55, "duration": 465, "velocity": 95}, {"time": 108505, "pitch": 67, "duration": 465, "velocity": 100}, {"time": 108512, "pitch": 62, "duration": 465, "velocity": 100}, {"time": 108960, "pitch": 45, "duration": 456, "velocity": 98}, {"time": 108968, "pitch": 52, "duration": 467, "velocity": 101}, {"time": 108978, "pitch": 57, "duration": 447, "velocity": 104}, {"time": 108985, "pitch": 60, "duration": 445, "velocity": 90}, {"time": 109440, "pitch": 45, "duration": 216, "velocity": 98}, {"time": 109448, "pitch": 52, "duration": 192, "velocity": 101}, {"time": 109458, "pitch": 57, "duration": 202, "velocity": 104}, {"time": 109465, "pitch": 60, "duration": 205, "velocity": 90}, {"time": 109673, "pitch": 45, "duration": 14, "velocity": 70}, {"time": 109678, "pitch": 52, "duration": 16, "velocity": 69}, {"time": 109684, "pitch": 57, "duration": 12, "velocity": 85}, {"time": 109692, "pitch": 60, "duration": 6, "velocity": 72}, {"time": 109800, "pitch": 57, "duration": 12, "velocity": 54}, {"time": 109806, "pitch": 52, "duration": 12, "velocity": 67}, {"time": 109920, "pitch": 41, "duration": 230, "velocity": 99}, {"time": 109928, "pitch": 48, "duration": 207, "velocity": 92}, {"time": 109937, "pitch": 53, "duration": 228, "velocity": 95}, {"time": 109945, "pitch": 65, "duration": 215, "velocity": 95}, {"time": 109953, "pitch": 57, "duration": 217, "velocity": 100}, {"time": 109959, "pitch": 60, "duration": 206, "velocity": 95}, {"time": 110160, "pitch": 41, "duration": 230, "velocity": 89}, {"time": 110167, "pitch": 53, "duration": 230, "velocity": 85}, {"time": 110168, "pitch": 48, "duration": 230, "velocity": 82}, {"time": 110178, "pitch": 57, "duration": 230, "velocity": 90}, {"time": 110184, "pitch": 60, "duration": 230, "velocity": 85}, {"time": 110400, "pitch": 41, "duration": 223, "velocity": 100}, {"time": 110405, "pitch": 48, "duration": 222, "velocity": 93}, {"time": 110415, "pitch": 53, "duration": 220, "velocity": 101}, {"time": 110422, "pitch": 57, "duration": 219, "velocity": 93}, {"time": 110428, "pitch": 60, "duration": 219, "velocity": 91}, {"time": 110435, "pitch": 65, "duration": 215, "velocity": 89}, {"time": 110636, "pitch": 41, "duration": 11, "velocity": 72}, {"time": 110641, "pitch": 48, "duration": 12, "velocity": 71}, {"time": 110647, "pitch": 53, "duration": 11, "velocity": 69}, {"time": 110651, "pitch": 57, "duration": 13, "velocity": 77}, {"time": 110654, "pitch": 60, "duration": 6, "velocity": 81}, {"time": 110663, "pitch": 65, "duration": 14, "velocity": 80}, {"time": 110759, "pitch": 65, "duration": 121, "velocity": 82}, {"time": 110768, "pitch": 60, "duration": 117, "velocity": 95}, {"time": 110771, "pitch": 57, "duration": 113, "velocity": 96}, {"time": 110778, "pitch": 53, "duration": 102, "velocity": 86}, {"time": 110784, "pitch": 48, "duration": 91, "velocity": 68}, {"time": 110786, "pitch": 41, "duration": 83, "velocity": 51}, {"time": 110880, "pitch": 43, "duration": 230, "velocity": 99}, {"time": 110888, "pitch": 50, "duration": 207, "velocity": 92}, {"time": 110897, "pitch": 55, "duration": 228, "velocity": 95}, {"time": 110905, "pitch": 67, "duration": 215, "velocity": 95}, {"time": 110913, "pitch": 59, "duration": 217, "velocity": 100}, {"time": 110919, "pitch": 62, "duration": 206, "velocity": 95}, {"time": 111120, "pitch": 43, "duration": 230, "velocity": 89}, {"time": 111127, "pitch": 55, "duration": 230, "velocity": 85}, {"time": 111128, "pitch": 50, "duration": 230, "velocity": 82}, {"time": 111138, "pitch": 59, "duration": 230, "velocity": 90}, {"time": 111144, "pitch": 62, "duration": 230, "velocity": 85}, {"time": 111360, "pitch": 43, "duration": 230, "velocity": 95}, {"time": 111363, "pitch": 50, "duration": 218, "velocity": 99}, {"time": 111366, "pitch": 55, "duration": 218, "velocity": 98}, {"time": 111372, "pitch": 59, "duration": 218, "velocity": 82}, {"time": 111372, "pitch": 62, "duration": 2, "velocity": 82}, {"time": 111593, "pitch": 43, "duration": 14, "velocity": 70}, {"time": 111598, "pitch": 50, "duration": 16, "velocity": 69}, {"time": 111604, "pitch": 55, "duration": 12, "velocity": 85}, {"time": 111612, "pitch": 59, "duration": 6, "velocity": 72}, {"time": 111612, "pitch": 62, "duration": 6, "velocity": 72}, {"time": 111720, "pitch": 55, "duration": 12, "velocity": 54}, {"time": 111726, "pitch": 50, "duration": 12, "velocity": 67}, {"time": 111840, "pitch": 45, "duration": 465, "velocity": 99}, {"time": 111848, "pitch": 52, "duration": 465, "velocity": 92}, {"time": 111857, "pitch": 55, "duration": 465, "velocity": 95}, {"time": 111865, "pitch": 64, "duration": 465, "velocity": 100}, {"time": 111872, "pitch": 60, "duration": 465, "velocity": 100}, {"time": 112320, "pitch": 43, "duration": 465, "velocity": 99}, {"time": 112328, "pitch": 50, "duration": 465, "velocity": 92}, {"time": 112337, "pitch": 55, "duration": 465, "velocity": 95}, {"time": 112345, "pitch": 64, "duration": 465, "velocity": 100}, {"time": 112352, "pitch": 59, "duration": 465, "velocity": 100}, {"time": 112800, "pitch": 41, "duration": 456, "velocity": 98}, {"time": 112808, "pitch": 48, "duration": 462, "velocity": 101}, {"time": 112818, "pitch": 53, "duration": 450, "velocity": 104}, {"time": 112825, "pitch": 57, "duration": 434, "velocity": 90}, {"time": 112825, "pitch": 60, "duration": 434, "velocity": 90}, {"time": 113280, "pitch": 41, "duration": 216, "velocity": 98}, {"time": 113288, "pitch": 48, "duration": 192, "velocity": 101}, {"time": 113298, "pitch": 53, "duration": 202, "velocity": 104}, {"time": 113305, "pitch": 57, "duration": 205, "velocity": 90}, {"time": 113305, "pitch": 60, "duration": 205, "velocity": 90}, {"time": 113513, "pitch": 41, "duration": 14, "velocity": 70}, {"time": 113518, "pitch": 48, "duration": 16, "velocity": 69}, {"time": 113524, "pitch": 53, "duration": 12, "velocity": 85}, {"time": 113532, "pitch": 57, "duration": 6, "velocity": 72}, {"time": 113640, "pitch": 53, "duration": 12, "velocity": 54}, {"time": 113646, "pitch": 48, "duration": 12, "velocity": 67}, {"time": 113760, "pitch": 45, "duration": 230, "velocity": 99}, {"time": 113768, "pitch": 50, "duration": 207, "velocity": 92}, {"time": 113777, "pitch": 57, "duration": 228, "velocity": 95}, {"time": 113793, "pitch": 60, "duration": 217, "velocity": 100}, {"time": 113799, "pitch": 65, "duration": 206, "velocity": 95}, {"time": 114000, "pitch": 45, "duration": 230, "velocity": 89}, {"time": 114007, "pitch": 57, "duration": 230, "velocity": 85}, {"time": 114008, "pitch": 50, "duration": 230, "velocity": 82}, {"time": 114018, "pitch": 60, "duration": 230, "velocity": 90}, {"time": 114024, "pitch": 65, "duration": 230, "velocity": 85}, {"time": 114240, "pitch": 45, "duration": 223, "velocity": 100}, {"time": 114245, "pitch": 50, "duration": 222, "velocity": 93}, {"time": 114255, "pitch": 57, "duration": 220, "velocity": 101}, {"time": 114262, "pitch": 60, "duration": 219, "velocity": 93}, {"time": 114268, "pitch": 65, "duration": 219, "velocity": 91}, {"time": 114476, "pitch": 45, "duration": 11, "velocity": 72}, {"time": 114481, "pitch": 50, "duration": 12, "velocity": 71}, {"time": 114487, "pitch": 57, "duration": 11, "velocity": 69}, {"time": 114491, "pitch": 60, "duration": 13, "velocity": 77}, {"time": 114494, "pitch": 65, "duration": 6, "velocity": 81}, {"time": 114608, "pitch": 65, "duration": 117, "velocity": 95}, {"time": 114611, "pitch": 60, "duration": 113, "velocity": 96}, {"time": 114618, "pitch": 57, "duration": 102, "velocity": 86}, {"time": 114624, "pitch": 50, "duration": 91, "velocity": 68}, {"time": 114626, "pitch": 45, "duration": 83, "velocity": 51}, {"time": 114720, "pitch": 43, "duration": 230, "velocity": 99}, {"time": 114728, "pitch": 50, "duration": 207, "velocity": 92}, {"time": 114737, "pitch": 53, "duration": 228, "velocity": 95}, {"time": 114753, "pitch": 55, "duration": 217, "velocity": 100}, {"time": 114759, "pitch": 59, "duration": 206, "velocity": 95}, {"time": 114759, "pitch": 62, "duration": 206, "velocity": 95}, {"time": 114960, "pitch": 43, "duration": 230, "velocity": 89}, {"time": 114967, "pitch": 53, "duration": 230, "velocity": 85}, {"time": 114968, "pitch": 50, "duration": 230, "velocity": 82}, {"time": 114978, "pitch": 55, "duration": 230, "velocity": 90}, {"time": 114984, "pitch": 59, "duration": 230, "velocity": 85}, {"time": 114984, "pitch": 62, "duration": 230, "velocity": 85}, {"time": 115200, "pitch": 43, "duration": 223, "velocity": 100}, {"time": 115205, "pitch": 50, "duration": 222, "velocity": 93}, {"time": 115215, "pitch": 53, "duration": 220, "velocity": 101}, {"time": 115222, "pitch": 55, "duration": 219, "velocity": 93}, {"time": 115228, "pitch": 59, "duration": 219, "velocity": 91}, {"time": 115228, "pitch": 62, "duration": 219, "velocity": 91}, {"time": 115436, "pitch": 43, "duration": 11, "velocity": 72}, {"time": 115441, "pitch": 50, "duration": 12, "velocity": 71}, {"time": 115447, "pitch": 53, "duration": 11, "velocity": 69}, {"time": 115451, "pitch": 55, "duration": 13, "velocity": 77}, {"time": 115454, "pitch": 59, "duration": 6, "velocity": 81}, {"time": 115454, "pitch": 62, "duration": 6, "velocity": 81}, {"time": 115568, "pitch": 59, "duration": 117, "velocity": 95}, {"time": 115568, "pitch": 62, "duration": 117, "velocity": 95}, {"time": 115571, "pitch": 55, "duration": 113, "velocity": 96}, {"time": 115578, "pitch": 53, "duration": 102, "velocity": 86}, {"time": 115584, "pitch": 50, "duration": 91, "velocity": 68}, {"time": 115586, "pitch": 43, "duration": 83, "velocity": 51}, {"time": 115680, "pitch": 41, "duration": 385, "velocity": 101}, {"time": 115695, "pitch": 48, "duration": 340, "velocity": 102}, {"time": 115702, "pitch": 53, "duration": 339, "velocity": 93}, {"time": 115708, "pitch": 56, "duration": 324, "velocity": 91}, {"time": 115715, "pitch": 60, "duration": 321, "velocity": 89}, {"time": 116040, "pitch": 60, "duration": 120, "velocity": 81}, {"time": 116049, "pitch": 56, "duration": 112, "velocity": 95}, {"time": 116052, "pitch": 53, "duration": 104, "velocity": 96}, {"time": 116059, "pitch": 48, "duration": 96, "velocity": 85}, {"time": 116067, "pitch": 41, "duration": 80, "velocity": 47}, {"time": 116155, "pitch": 41, "duration": 238, "velocity": 70}, {"time": 116166, "pitch": 48, "duration": 223, "velocity": 67}, {"time": 116170, "pitch": 53, "duration": 232, "velocity": 75}, {"time": 116173, "pitch": 56, "duration": 239, "velocity": 80}, {"time": 116182, "pitch": 60, "duration": 238, "velocity": 79}, {"time": 116401, "pitch": 41, "duration": 371, "velocity": 89}, {"time": 116407, "pitch": 48, "duration": 369, "velocity": 90}, {"time": 116414, "pitch": 53, "duration": 344, "velocity": 101}, {"time": 116422, "pitch": 56, "duration": 325, "velocity": 93}, {"time": 116430, "pitch": 60, "duration": 312, "velocity": 85}, {"time": 116760, "pitch": 60, "duration": 135, "velocity": 81}, {"time": 116769, "pitch": 56, "duration": 119, "velocity": 95}, {"time": 116772, "pitch": 53, "duration": 111, "velocity": 96}, {"time": 116779, "pitch": 48, "duration": 96, "velocity": 85}, {"time": 116787, "pitch": 41, "duration": 83, "velocity": 47}, {"time": 116881, "pitch": 41, "duration": 225, "velocity": 81}, {"time": 116885, "pitch": 48, "duration": 226, "velocity": 85}, {"time": 116889, "pitch": 53, "duration": 231, "velocity": 93}, {"time": 116895, "pitch": 56, "duration": 230, "velocity": 91}, {"time": 116904, "pitch": 60, "duration": 230, "velocity": 86}, {"time": 117116, "pitch": 41, "duration": 143, "velocity": 74}, {"time": 117124, "pitch": 48, "duration": 126, "velocity": 106}, {"time": 117133, "pitch": 53, "duration": 120, "velocity": 97}, {"time": 117140, "pitch": 56, "duration": 111, "velocity": 95}, {"time": 117147, "pitch": 60, "duration": 91, "velocity": 93}, {"time": 117249, "pitch": 60, "duration": 124, "velocity": 79}, {"time": 117256, "pitch": 56, "duration": 110, "velocity": 83}, {"time": 117261, "pitch": 53, "duration": 103, "velocity": 83}, {"time": 117270, "pitch": 48, "duration": 96, "velocity": 79}, {"time": 117278, "pitch": 41, "duration": 75, "velocity": 58}, {"time": 117356, "pitch": 41, "duration": 148, "velocity": 74}, {"time": 117369, "pitch": 53, "duration": 129, "velocity": 97}, {"time": 117370, "pitch": 48, "duration": 126, "velocity": 106}, {"time": 117376, "pitch": 56, "duration": 116, "velocity": 95}, {"time": 117387, "pitch": 60, "duration": 101, "velocity": 93}, {"time": 117493, "pitch": 60, "duration": 130, "velocity": 74}, {"time": 117497, "pitch": 56, "duration": 120, "velocity": 79}, {"time": 117502, "pitch": 53, "duration": 108, "velocity": 78}, {"time": 117508, "pitch": 48, "duration": 92, "velocity": 73}, {"time": 117521, "pitch": 41, "duration": 67, "velocity": 58}, {"time": 117600, "pitch": 48, "duration": 372, "velocity": 101}, {"time": 117605, "pitch": 52, "duration": 373, "velocity": 93}, {"time": 117615, "pitch": 55, "duration": 351, "velocity": 102}, {"time": 117622, "pitch": 60, "duration": 1, "velocity": 93}, {"time": 117628, "pitch": 64, "duration": 318, "velocity": 91}, {"time": 117968, "pitch": 64, "duration": 355, "velocity": 95}, {"time": 117971, "pitch": 60, "duration": 345, "velocity": 96}, {"time": 117978, "pitch": 55, "duration": 340, "velocity": 85}, {"time": 117984, "pitch": 52, "duration": 329, "velocity": 66}, {"time": 117986, "pitch": 48, "duration": 327, "velocity": 47}, {"time": 118322, "pitch": 48, "duration": 372, "velocity": 102}, {"time": 118328, "pitch": 52, "duration": 359, "velocity": 101}, {"time": 118332, "pitch": 55, "duration": 346, "velocity": 99}, {"time": 118337, "pitch": 60, "duration": 351, "velocity": 101}, {"time": 118346, "pitch": 64, "duration": 319, "velocity": 100}, {"time": 118688, "pitch": 64, "duration": 133, "velocity": 95}, {"time": 118691, "pitch": 60, "duration": 121, "velocity": 96}, {"time": 118698, "pitch": 55, "duration": 100, "velocity": 85}, {"time": 118704, "pitch": 52, "duration": 89, "velocity": 66}, {"time": 118706, "pitch": 48, "duration": 87, "velocity": 47}, {"time": 118801, "pitch": 48, "duration": 199, "velocity": 91}, {"time": 118809, "pitch": 52, "duration": 215, "velocity": 66}, {"time": 118812, "pitch": 55, "duration": 226, "velocity": 85}, {"time": 118819, "pitch": 60, "duration": 225, "velocity": 93}, {"time": 118826, "pitch": 64, "duration": 222, "velocity": 91}, {"time": 119040, "pitch": 48, "duration": 230, "velocity": 104}, {"time": 119043, "pitch": 52, "duration": 225, "velocity": 108}, {"time": 119046, "pitch": 55, "duration": 225, "velocity": 107}, {"time": 119052, "pitch": 60, "duration": 225, "velocity": 90}, {"time": 119052, "pitch": 64, "duration": 225, "velocity": 90}, {"time": 119273, "pitch": 48, "duration": 14, "velocity": 77}, {"time": 119278, "pitch": 52, "duration": 16, "velocity": 75}, {"time": 119284, "pitch": 55, "duration": 12, "velocity": 93}, {"time": 119292, "pitch": 60, "duration": 6, "velocity": 79}, {"time": 119292, "pitch": 64, "duration": 6, "velocity": 79}, {"time": 119400, "pitch": 55, "duration": 12, "velocity": 59}, {"time": 119406, "pitch": 52, "duration": 12, "velocity": 73}, {"time": 119517, "pitch": 65, "duration": 481, "velocity": 96}, {"time": 119520, "pitch": 49, "duration": 478, "velocity": 93}, {"time": 119521, "pitch": 56, "duration": 477, "velocity": 98}, {"time": 119522, "pitch": 61, "duration": 476, "velocity": 99}, {"time": 119523, "pitch": 68, "duration": 475, "velocity": 97}, {"time": 119998, "pitch": 56, "duration": 241, "velocity": 92}, {"time": 120000, "pitch": 49, "duration": 239, "velocity": 98}, {"time": 120003, "pitch": 68, "duration": 236, "velocity": 92}, {"time": 120004, "pitch": 61, "duration": 235, "velocity": 99}, {"time": 120004, "pitch": 65, "duration": 235, "velocity": 99}, {"time": 120239, "pitch": 56, "duration": 4, "velocity": 96}, {"time": 120239, "pitch": 68, "duration": 117, "velocity": 93}, {"time": 120240, "pitch": 49, "duration": 116, "velocity": 96}, {"time": 120243, "pitch": 61, "duration": 113, "velocity": 98}, {"time": 120243, "pitch": 65, "duration": 113, "velocity": 96}, {"time": 120356, "pitch": 65, "duration": 240, "velocity": 94}, {"time": 120358, "pitch": 68, "duration": 238, "velocity": 98}, {"time": 120359, "pitch": 61, "duration": 237, "velocity": 92}, {"time": 120363, "pitch": 49, "duration": 233, "velocity": 99}, {"time": 120364, "pitch": 56, "duration": 232, "velocity": 99}, {"time": 120596, "pitch": 49, "duration": 8, "velocity": 92}, {"time": 120599, "pitch": 56, "duration": 5, "velocity": 99}, {"time": 120600, "pitch": 68, "duration": 118, "velocity": 99}, {"time": 120603, "pitch": 65, "duration": 1, "velocity": 94}, {"time": 120604, "pitch": 61, "duration": 114, "velocity": 93}, {"time": 120718, "pitch": 68, "duration": 238, "velocity": 93}, {"time": 120719, "pitch": 56, "duration": 237, "velocity": 98}, {"time": 120719, "pitch": 61, "duration": 237, "velocity": 99}, {"time": 120719, "pitch": 65, "duration": 237, "velocity": 99}, {"time": 120722, "pitch": 49, "duration": 234, "velocity": 98}, {"time": 120956, "pitch": 56, "duration": 240, "velocity": 98}, {"time": 120959, "pitch": 61, "duration": 237, "velocity": 93}, {"time": 120960, "pitch": 49, "duration": 236, "velocity": 92}, {"time": 120960, "pitch": 68, "duration": 236, "velocity": 94}, {"time": 120964, "pitch": 65, "duration": 232, "velocity": 96}, {"time": 121196, "pitch": 65, "duration": 123, "velocity": 96}, {"time": 121199, "pitch": 56, "duration": 5, "velocity": 98}, {"time": 121199, "pitch": 68, "duration": 5, "velocity": 93}, {"time": 121201, "pitch": 49, "duration": 3, "velocity": 92}, {"time": 121204, "pitch": 61, "duration": 115, "velocity": 96}, {"time": 121319, "pitch": 65, "duration": 118, "velocity": 98}, {"time": 121320, "pitch": 49, "duration": 117, "velocity": 93}, {"time": 121321, "pitch": 61, "duration": 122, "velocity": 99}, {"time": 121323, "pitch": 56, "duration": 114, "velocity": 97}, {"time": 121324, "pitch": 68, "duration": 119, "velocity": 97}, {"time": 121437, "pitch": 67, "duration": 481, "velocity": 96}, {"time": 121440, "pitch": 51, "duration": 478, "velocity": 93}, {"time": 121441, "pitch": 58, "duration": 477, "velocity": 98}, {"time": 121442, "pitch": 63, "duration": 476, "velocity": 99}, {"time": 121443, "pitch": 70, "duration": 475, "velocity": 97}, {"time": 121918, "pitch": 58, "duration": 241, "velocity": 92}, {"time": 121920, "pitch": 51, "duration": 239, "velocity": 98}, {"time": 121923, "pitch": 70, "duration": 236, "velocity": 92}, {"time": 121924, "pitch": 63, "duration": 235, "velocity": 99}, {"time": 121924, "pitch": 67, "duration": 235, "velocity": 99}, {"time": 122159, "pitch": 58, "duration": 4, "velocity": 96}, {"time": 122159, "pitch": 70, "duration": 117, "velocity": 93}, {"time": 122160, "pitch": 51, "duration": 116, "velocity": 96}, {"time": 122163, "pitch": 63, "duration": 113, "velocity": 98}, {"time": 122163, "pitch": 67, "duration": 113, "velocity": 96}, {"time": 122276, "pitch": 67, "duration": 240, "velocity": 94}, {"time": 122278, "pitch": 70, "duration": 238, "velocity": 98}, {"time": 122279, "pitch": 63, "duration": 237, "velocity": 92}, {"time": 122283, "pitch": 51, "duration": 233, "velocity": 99}, {"time": 122284, "pitch": 58, "duration": 232, "velocity": 99}, {"time": 122516, "pitch": 51, "duration": 8, "velocity": 92}, {"time": 122519, "pitch": 58, "duration": 5, "velocity": 99}, {"time": 122520, "pitch": 70, "duration": 118, "velocity": 99}, {"time": 122523, "pitch": 67, "duration": 1, "velocity": 94}, {"time": 122524, "pitch": 63, "duration": 114, "velocity": 93}, {"time": 122638, "pitch": 70, "duration": 238, "velocity": 93}, {"time": 122639, "pitch": 58, "duration": 237, "velocity": 98}, {"time": 122639, "pitch": 63, "duration": 237, "velocity": 99}, {"time": 122639, "pitch": 67, "duration": 237, "velocity": 99}, {"time": 122642, "pitch": 51, "duration": 234, "velocity": 98}, {"time": 122876, "pitch": 58, "duration": 240, "velocity": 98}, {"time": 122879, "pitch": 63, "duration": 237, "velocity": 93}, {"time": 122880, "pitch": 51, "duration": 236, "velocity": 92}, {"time": 122880, "pitch": 70, "duration": 236, "velocity": 94}, {"time": 122884, "pitch": 67, "duration": 232, "velocity": 96}, {"time": 123116, "pitch": 67, "duration": 123, "velocity": 96}, {"time": 123119, "pitch": 58, "duration": 5, "velocity": 98}, {"time": 123119, "pitch": 70, "duration": 5, "velocity": 93}, {"time": 123121, "pitch": 51, "duration": 3, "velocity": 92}, {"time": 123124, "pitch": 63, "duration": 115, "velocity": 96}, {"time": 123239, "pitch": 67, "duration": 118, "velocity": 98}, {"time": 123240, "pitch": 51, "duration": 117, "velocity": 93}, {"time": 123241, "pitch": 63, "duration": 122, "velocity": 99}, {"time": 123243, "pitch": 58, "duration": 114, "velocity": 97}, {"time": 123244, "pitch": 70, "duration": 119, "velocity": 97}, {"time": 123357, "pitch": 65, "duration": 481, "velocity": 96}, {"time": 123360, "pitch": 49, "duration": 478, "velocity": 93}, {"time": 123361, "pitch": 56, "duration": 477, "velocity": 98}, {"time": 123362, "pitch": 61, "duration": 476, "velocity": 99}, {"time": 123363, "pitch": 68, "duration": 475, "velocity": 97}, {"time": 123838, "pitch": 56, "duration": 241, "velocity": 92}, {"time": 123840, "pitch": 49, "duration": 239, "velocity": 98}, {"time": 123843, "pitch": 68, "duration": 236, "velocity": 92}, {"time": 123844, "pitch": 61, "duration": 235, "velocity": 99}, {"time": 123844, "pitch": 65, "duration": 235, "velocity": 99}, {"time": 124079, "pitch": 56, "duration": 4, "velocity": 96}, {"time": 124079, "pitch": 68, "duration": 117, "velocity": 93}, {"time": 124080, "pitch": 49, "duration": 116, "velocity": 96}, {"time": 124083, "pitch": 61, "duration": 113, "velocity": 98}, {"time": 124083, "pitch": 65, "duration": 113, "velocity": 96}, {"time": 124196, "pitch": 65, "duration": 240, "velocity": 94}, {"time": 124198, "pitch": 68, "duration": 238, "velocity": 98}, {"time": 124199, "pitch": 61, "duration": 237, "velocity": 92}, {"time": 124203, "pitch": 49, "duration": 233, "velocity": 99}, {"time": 124204, "pitch": 56, "duration": 232, "velocity": 99}, {"time": 124436, "pitch": 49, "duration": 8, "velocity": 92}, {"time": 124439, "pitch": 56, "duration": 5, "velocity": 99}, {"time": 124440, "pitch": 68, "duration": 118, "velocity": 99}, {"time": 124443, "pitch": 65, "duration": 1, "velocity": 94}, {"time": 124444, "pitch": 61, "duration": 114, "velocity": 93}, {"time": 124558, "pitch": 68, "duration": 238, "velocity": 93}, {"time": 124559, "pitch": 56, "duration": 237, "velocity": 98}, {"time": 124559, "pitch": 61, "duration": 237, "velocity": 99}, {"time": 124559, "pitch": 65, "duration": 237, "velocity": 99}, {"time": 124562, "pitch": 49, "duration": 234, "velocity": 98}, {"time": 124796, "pitch": 56, "duration": 240, "velocity": 98}, {"time": 124799, "pitch": 61, "duration": 237, "velocity": 93}, {"time": 124800, "pitch": 49, "duration": 236, "velocity": 92}, {"time": 124800, "pitch": 68, "duration": 236, "velocity": 94}, {"time": 124804, "pitch": 65, "duration": 232, "velocity": 96}, {"time": 125036, "pitch": 65, "duration": 123, "velocity": 96}, {"time": 125039, "pitch": 56, "duration": 5, "velocity": 98}, {"time": 125039, "pitch": 68, "duration": 5, "velocity": 93}, {"time": 125041, "pitch": 49, "duration": 3, "velocity": 92}, {"time": 125044, "pitch": 61, "duration": 115, "velocity": 96}, {"time": 125159, "pitch": 65, "duration": 118, "velocity": 98}, {"time": 125160, "pitch": 49, "duration": 117, "velocity": 93}, {"time": 125161, "pitch": 61, "duration": 122, "velocity": 99}, {"time": 125163, "pitch": 56, "duration": 114, "velocity": 97}, {"time": 125164, "pitch": 68, "duration": 119, "velocity": 97}, {"time": 125277, "pitch": 67, "duration": 481, "velocity": 96}, {"time": 125280, "pitch": 51, "duration": 478, "velocity": 93}, {"time": 125281, "pitch": 58, "duration": 477, "velocity": 98}, {"time": 125282, "pitch": 63, "duration": 476, "velocity": 99}, {"time": 125283, "pitch": 70, "duration": 475, "velocity": 97}, {"time": 125758, "pitch": 58, "duration": 241, "velocity": 92}, {"time": 125760, "pitch": 51, "duration": 239, "velocity": 98}, {"time": 125763, "pitch": 70, "duration": 236, "velocity": 92}, {"time": 125764, "pitch": 63, "duration": 235, "velocity": 99}, {"time": 125764, "pitch": 67, "duration": 235, "velocity": 99}, {"time": 125999, "pitch": 58, "duration": 4, "velocity": 96}, {"time": 125999, "pitch": 70, "duration": 117, "velocity": 93}, {"time": 126000, "pitch": 51, "duration": 116, "velocity": 96}, {"time": 126003, "pitch": 63, "duration": 113, "velocity": 98}, {"time": 126003, "pitch": 67, "duration": 113, "velocity": 96}, {"time": 126116, "pitch": 67, "duration": 240, "velocity": 94}, {"time": 126118, "pitch": 70, "duration": 238, "velocity": 98}, {"time": 126119, "pitch": 63, "duration": 237, "velocity": 92}, {"time": 126123, "pitch": 51, "duration": 233, "velocity": 99}, {"time": 126124, "pitch": 58, "duration": 232, "velocity": 99}, {"time": 126356, "pitch": 51, "duration": 8, "velocity": 92}, {"time": 126359, "pitch": 58, "duration": 5, "velocity": 99}, {"time": 126360, "pitch": 70, "duration": 118, "velocity": 99}, {"time": 126363, "pitch": 67, "duration": 1, "velocity": 94}, {"time": 126364, "pitch": 63, "duration": 114, "velocity": 93}, {"time": 126478, "pitch": 70, "duration": 238, "velocity": 93}, {"time": 126479, "pitch": 58, "duration": 237, "velocity": 98}, {"time": 126479, "pitch": 63, "duration": 237, "velocity": 99}, {"time": 126479, "pitch": 67, "duration": 237, "velocity": 99}, {"time": 126482, "pitch": 51, "duration": 234, "velocity": 98}, {"time": 126716, "pitch": 58, "duration": 240, "velocity": 98}, {"time": 126719, "pitch": 63, "duration": 237, "velocity": 93}, {"time": 126720, "pitch": 51, "duration": 236, "velocity": 92}, {"time": 126720, "pitch": 70, "duration": 236, "velocity": 94}, {"time": 126724, "pitch": 67, "duration": 232, "velocity": 96}, {"time": 126956, "pitch": 67, "duration": 123, "velocity": 96}, {"time": 126959, "pitch": 58, "duration": 5, "velocity": 98}, {"time": 126959, "pitch": 70, "duration": 5, "velocity": 93}, {"time": 126961, "pitch": 51, "duration": 3, "velocity": 92}, {"time": 126964, "pitch": 63, "duration": 115, "velocity": 96}, {"time": 127079, "pitch": 67, "duration": 118, "velocity": 98}, {"time": 127080, "pitch": 51, "duration": 117, "velocity": 93}, {"time": 127081, "pitch": 63, "duration": 122, "velocity": 99}, {"time": 127083, "pitch": 58, "duration": 114, "velocity": 97}, {"time": 127084, "pitch": 70, "duration": 119, "velocity": 97}, {"time": 127197, "pitch": 65, "duration": 481, "velocity": 96}, {"time": 127200, "pitch": 49, "duration": 478, "velocity": 93}, {"time": 127201, "pitch": 56, "duration": 477, "velocity": 98}, {"time": 127202, "pitch": 61, "duration": 476, "velocity": 99}, {"time": 127203, "pitch": 68, "duration": 475, "velocity": 97}, {"time": 127678, "pitch": 56, "duration": 241, "velocity": 92}, {"time": 127680, "pitch": 49, "duration": 239, "velocity": 98}, {"time": 127683, "pitch": 68, "duration": 236, "velocity": 92}, {"time": 127684, "pitch": 61, "duration": 235, "velocity": 99}, {"time": 127684, "pitch": 65, "duration": 235, "velocity": 99}, {"time": 127919, "pitch": 56, "duration": 4, "velocity": 96}, {"time": 127919, "pitch": 68, "duration": 117, "velocity": 93}, {"time": 127920, "pitch": 49, "duration": 116, "velocity": 96}, {"time": 127923, "pitch": 61, "duration": 113, "velocity": 98}, {"time": 127923, "pitch": 65, "duration": 113, "velocity": 96}, {"time": 128036, "pitch": 65, "duration": 240, "velocity": 94}, {"time": 128038, "pitch": 68, "duration": 238, "velocity": 98}, {"time": 128039, "pitch": 61, "duration": 237, "velocity": 92}, {"time": 128043, "pitch": 49, "duration": 233, "velocity": 99}, {"time": 128044, "pitch": 56, "duration": 232, "velocity": 99}, {"time": 128276, "pitch": 49, "duration": 8, "velocity": 92}, {"time": 128279, "pitch": 56, "duration": 5, "velocity": 99}, {"time": 128280, "pitch": 68, "duration": 118, "velocity": 99}, {"time": 128283, "pitch": 65, "duration": 1, "velocity": 94}, {"time": 128284, "pitch": 61, "duration": 114, "velocity": 93}, {"time": 128398, "pitch": 68, "duration": 238, "velocity": 93}, {"time": 128399, "pitch": 56, "duration": 237, "velocity": 98}, {"time": 128399, "pitch": 61, "duration": 237, "velocity": 99}, {"time": 128399, "pitch": 65, "duration": 237, "velocity": 99}, {"time": 128402, "pitch": 49, "duration": 234, "velocity": 98}, {"time": 128636, "pitch": 56, "duration": 240, "velocity": 98}, {"time": 128639, "pitch": 61, "duration": 237, "velocity": 93}, {"time": 128640, "pitch": 49, "duration": 236, "velocity": 92}, {"time": 128640, "pitch": 68, "duration": 236, "velocity": 94}, {"time": 128644, "pitch": 65, "duration": 232, "velocity": 96}, {"time": 128876, "pitch": 65, "duration": 123, "velocity": 96}, {"time": 128879, "pitch": 56, "duration": 5, "velocity": 98}, {"time": 128879, "pitch": 68, "duration": 5, "velocity": 93}, {"time": 128881, "pitch": 49, "duration": 3, "velocity": 92}, {"time": 128884, "pitch": 61, "duration": 115, "velocity": 96}, {"time": 128999, "pitch": 65, "duration": 118, "velocity": 98}, {"time": 129000, "pitch": 49, "duration": 117, "velocity": 93}, {"time": 129001, "pitch": 61, "duration": 122, "velocity": 99}, {"time": 129003, "pitch": 56, "duration": 114, "velocity": 97}, {"time": 129004, "pitch": 68, "duration": 119, "velocity": 97}, {"time": 129117, "pitch": 67, "duration": 481, "velocity": 96}, {"time": 129120, "pitch": 51, "duration": 478, "velocity": 93}, {"time": 129121, "pitch": 58, "duration": 477, "velocity": 98}, {"time": 129122, "pitch": 63, "duration": 476, "velocity": 99}, {"time": 129123, "pitch": 70, "duration": 475, "velocity": 97}, {"time": 129598, "pitch": 58, "duration": 241, "velocity": 92}, {"time": 129600, "pitch": 51, "duration": 239, "velocity": 98}, {"time": 129603, "pitch": 70, "duration": 236, "velocity": 92}, {"time": 129604, "pitch": 63, "duration": 235, "velocity": 99}, {"time": 129604, "pitch": 67, "duration": 235, "velocity": 99}, {"time": 129839, "pitch": 58, "duration": 4, "velocity": 96}, {"time": 129839, "pitch": 70, "duration": 117, "velocity": 93}, {"time": 129840, "pitch": 51, "duration": 116, "velocity": 96}, {"time": 129843, "pitch": 63, "duration": 113, "velocity": 98}, {"time": 129843, "pitch": 67, "duration": 113, "velocity": 96}, {"time": 129956, "pitch": 67, "duration": 240, "velocity": 94}, {"time": 129958, "pitch": 70, "duration": 238, "velocity": 98}, {"time": 129959, "pitch": 63, "duration": 237, "velocity": 92}, {"time": 129963, "pitch": 51, "duration": 233, "velocity": 99}, {"time": 129964, "pitch": 58, "duration": 232, "velocity": 99}, {"time": 130196, "pitch": 51, "duration": 8, "velocity": 92}, {"time": 130199, "pitch": 58, "duration": 5, "velocity": 99}, {"time": 130200, "pitch": 70, "duration": 118, "velocity": 99}, {"time": 130203, "pitch": 67, "duration": 1, "velocity": 94}, {"time": 130204, "pitch": 63, "duration": 114, "velocity": 93}, {"time": 130318, "pitch": 70, "duration": 238, "velocity": 93}, {"time": 130319, "pitch": 58, "duration": 237, "velocity": 98}, {"time": 130319, "pitch": 63, "duration": 237, "velocity": 99}, {"time": 130319, "pitch": 67, "duration": 237, "velocity": 99}, {"time": 130322, "pitch": 51, "duration": 234, "velocity": 98}, {"time": 130556, "pitch": 58, "duration": 240, "velocity": 98}, {"time": 130559, "pitch": 63, "duration": 237, "velocity": 93}, {"time": 130560, "pitch": 51, "duration": 236, "velocity": 92}, {"time": 130560, "pitch": 70, "duration": 236, "velocity": 94}, {"time": 130564, "pitch": 67, "duration": 232, "velocity": 96}, {"time": 130796, "pitch": 67, "duration": 123, "velocity": 96}, {"time": 130799, "pitch": 58, "duration": 5, "velocity": 98}, {"time": 130799, "pitch": 70, "duration": 5, "velocity": 93}, {"time": 130801, "pitch": 51, "duration": 3, "velocity": 92}, {"time": 130804, "pitch": 63, "duration": 115, "velocity": 96}, {"time": 130919, "pitch": 67, "duration": 118, "velocity": 98}, {"time": 130920, "pitch": 51, "duration": 117, "velocity": 93}, {"time": 130921, "pitch": 63, "duration": 122, "velocity": 99}, {"time": 130923, "pitch": 58, "duration": 114, "velocity": 97}, {"time": 130924, "pitch": 70, "duration": 119, "velocity": 97}, {"time": 131037, "pitch": 69, "duration": 481, "velocity": 96}, {"time": 131040, "pitch": 53, "duration": 478, "velocity": 93}, {"time": 131041, "pitch": 60, "duration": 477, "velocity": 98}, {"time": 131042, "pitch": 65, "duration": 476, "velocity": 99}, {"time": 131043, "pitch": 72, "duration": 475, "velocity": 97}, {"time": 131518, "pitch": 60, "duration": 241, "velocity": 92}, {"time": 131520, "pitch": 53, "duration": 239, "velocity": 98}, {"time": 131523, "pitch": 72, "duration": 236, "velocity": 92}, {"time": 131524, "pitch": 65, "duration": 235, "velocity": 99}, {"time": 131524, "pitch": 69, "duration": 235, "velocity": 99}, {"time": 131759, "pitch": 60, "duration": 4, "velocity": 96}, {"time": 131759, "pitch": 72, "duration": 117, "velocity": 93}, {"time": 131760, "pitch": 53, "duration": 116, "velocity": 96}, {"time": 131763, "pitch": 65, "duration": 113, "velocity": 98}, {"time": 131763, "pitch": 69, "duration": 113, "velocity": 96}, {"time": 131876, "pitch": 69, "duration": 240, "velocity": 94}, {"time": 131878, "pitch": 72, "duration": 238, "velocity": 98}, {"time": 131879, "pitch": 65, "duration": 237, "velocity": 92}, {"time": 131883, "pitch": 53, "duration": 233, "velocity": 99}, {"time": 131884, "pitch": 60, "duration": 232, "velocity": 99}, {"time": 132120, "pitch": 72, "duration": 100, "velocity": 92}, {"time": 132122, "pitch": 65, "duration": 100, "velocity": 94}, {"time": 132125, "pitch": 53, "duration": 100, "velocity": 92}, {"time": 132125, "pitch": 60, "duration": 100, "velocity": 92}, {"time": 132233, "pitch": 53, "duration": 14, "velocity": 84}, {"time": 132238, "pitch": 60, "duration": 16, "velocity": 82}, {"time": 132240, "pitch": 53, "duration": 7, "velocity": 114}, {"time": 132243, "pitch": 60, "duration": 11, "velocity": 118}, {"time": 132244, "pitch": 65, "duration": 132, "velocity": 102}, {"time": 132246, "pitch": 65, "duration": 130, "velocity": 117}, {"time": 132252, "pitch": 72, "duration": 225, "velocity": 98}, {"time": 132480, "pitch": 53, "duration": 230, "velocity": 114}, {"time": 132483, "pitch": 60, "duration": 105, "velocity": 118}, {"time": 132486, "pitch": 65, "duration": 105, "velocity": 117}, {"time": 132492, "pitch": 72, "duration": 105, "velocity": 98}, {"time": 132600, "pitch": 72, "duration": 100, "velocity": 92}, {"time": 132602, "pitch": 65, "duration": 100, "velocity": 94}, {"time": 132605, "pitch": 60, "duration": 100, "velocity": 92}, {"time": 132713, "pitch": 53, "duration": 14, "velocity": 84}, {"time": 132718, "pitch": 60, "duration": 16, "velocity": 82}, {"time": 132724, "pitch": 65, "duration": 12, "velocity": 102}, {"time": 132732, "pitch": 72, "duration": 6, "velocity": 86}, {"time": 132840, "pitch": 72, "duration": 100, "velocity": 92}, {"time": 132842, "pitch": 65, "duration": 100, "velocity": 94}, {"time": 132845, "pitch": 53, "duration": 100, "velocity": 92}, {"time": 132845, "pitch": 60, "duration": 100, "velocity": 92}, {"time": 132983, "pitch": 53, "duration": 14, "velocity": 84}, {"time": 132988, "pitch": 60, "duration": 16, "velocity": 82}, {"time": 132994, "pitch": 65, "duration": 12, "velocity": 102}, {"time": 133002, "pitch": 72, "duration": 6, "velocity": 86}, {"time": 133080, "pitch": 72, "duration": 100, "velocity": 92}, {"time": 133082, "pitch": 65, "duration": 100, "velocity": 94}, {"time": 133085, "pitch": 53, "duration": 100, "velocity": 92}, {"time": 133085, "pitch": 60, "duration": 100, "velocity": 92}, {"time": 133200, "pitch": 53, "duration": 230, "velocity": 114}, {"time": 133203, "pitch": 60, "duration": 225, "velocity": 118}, {"time": 133206, "pitch": 65, "duration": 225, "velocity": 117}, {"time": 133206, "pitch": 72, "duration": 225, "velocity": 117}, {"time": 133448, "pitch": 53, "duration": 14, "velocity": 84}, {"time": 133453, "pitch": 60, "duration": 16, "velocity": 82}, {"time": 133459, "pitch": 65, "duration": 12, "velocity": 102}, {"time": 133467, "pitch": 72, "duration": 6, "velocity": 86}, {"time": 133560, "pitch": 72, "duration": 100, "velocity": 92}, {"time": 133562, "pitch": 65, "duration": 100, "velocity": 94}, {"time": 133565, "pitch": 53, "duration": 100, "velocity": 92}, {"time": 133565, "pitch": 60, "duration": 100, "velocity": 92}, {"time": 133673, "pitch": 53, "duration": 14, "velocity": 84}, {"time": 133678, "pitch": 60, "duration": 16, "velocity": 82}, {"time": 133684, "pitch": 65, "duration": 12, "velocity": 102}, {"time": 133692, "pitch": 72, "duration": 6, "velocity": 86}, {"time": 133800, "pitch": 72, "duration": 100, "velocity": 92}, {"time": 133802, "pitch": 65, "duration": 100, "velocity": 94}, {"time": 133805, "pitch": 53, "duration": 100, "velocity": 92}, {"time": 133805, "pitch": 60, "duration": 100, "velocity": 92}, {"time": 133920, "pitch": 53, "duration": 230, "velocity": 114}, {"time": 133923, "pitch": 60, "duration": 105, "velocity": 118}, {"time": 133926, "pitch": 65, "duration": 105, "velocity": 117}, {"time": 133932, "pitch": 72, "duration": 105, "velocity": 98}, {"time": 134040, "pitch": 72, "duration": 100, "velocity": 92}, {"time": 134042, "pitch": 65, "duration": 100, "velocity": 94}, {"time": 134045, "pitch": 60, "duration": 100, "velocity": 92}, {"time": 134153, "pitch": 53, "duration": 14, "velocity": 84}, {"time": 134158, "pitch": 60, "duration": 16, "velocity": 82}, {"time": 134164, "pitch": 65, "duration": 12, "velocity": 102}, {"time": 134172, "pitch": 72, "duration": 6, "velocity": 86}, {"time": 134280, "pitch": 72, "duration": 100, "velocity": 92}, {"time": 134282, "pitch": 65, "duration": 100, "velocity": 94}, {"time": 134285, "pitch": 53, "duration": 100, "velocity": 92}, {"time": 134285, "pitch": 60, "duration": 100, "velocity": 92}, {"time": 134423, "pitch": 53, "duration": 14, "velocity": 84}, {"time": 134428, "pitch": 60, "duration": 16, "velocity": 82}, {"time": 134434, "pitch": 65, "duration": 12, "velocity": 102}, {"time": 134442, "pitch": 72, "duration": 6, "velocity": 86}, {"time": 134520, "pitch": 72, "duration": 100, "velocity": 92}, {"time": 134522, "pitch": 65, "duration": 100, "velocity": 94}, {"time": 134525, "pitch": 53, "duration": 100, "velocity": 92}, {"time": 134525, "pitch": 60, "duration": 100, "velocity": 92}, {"time": 134633, "pitch": 53, "duration": 14, "velocity": 84}, {"time": 134638, "pitch": 60, "duration": 16, "velocity": 82}, {"time": 134640, "pitch": 53, "duration": 7, "velocity": 114}, {"time": 134643, "pitch": 60, "duration": 11, "velocity": 118}, {"time": 134644, "pitch": 65, "duration": 12, "velocity": 102}, {"time": 134646, "pitch": 65, "duration": 10, "velocity": 117}, {"time": 134652, "pitch": 72, "duration": 105, "velocity": 98}, {"time": 134760, "pitch": 72, "duration": 100, "velocity": 92}, {"time": 134762, "pitch": 65, "duration": 100, "velocity": 94}, {"time": 134765, "pitch": 60, "duration": 100, "velocity": 92}, {"time": 134880, "pitch": 48, "duration": 465, "velocity": 99}, {"time": 134888, "pitch": 52, "duration": 465, "velocity": 92}, {"time": 134897, "pitch": 55, "duration": 465, "velocity": 95}, {"time": 134905, "pitch": 64, "duration": 465, "velocity": 100}, {"time": 134912, "pitch": 60, "duration": 465, "velocity": 100}, {"time": 135360, "pitch": 47, "duration": 465, "velocity": 99}, {"time": 135368, "pitch": 50, "duration": 465, "velocity": 92}, {"time": 135377, "pitch": 55, "duration": 465, "velocity": 95}, {"time": 135385, "pitch": 67, "duration": 465, "velocity": 100}, {"time": 135392, "pitch": 62, "duration": 465, "velocity": 100}, {"time": 135840, "pitch": 45, "duration": 456, "velocity": 98}, {"time": 135848, "pitch": 52, "duration": 467, "velocity": 101}, {"time": 135858, "pitch": 57, "duration": 447, "velocity": 104}, {"time": 135865, "pitch": 60, "duration": 445, "velocity": 90}, {"time": 136320, "pitch": 45, "duration": 216, "velocity": 98}, {"time": 136328, "pitch": 52, "duration": 192, "velocity": 101}, {"time": 136338, "pitch": 57, "duration": 202, "velocity": 104}, {"time": 136345, "pitch": 60, "duration": 205, "velocity": 90}, {"time": 136553, "pitch": 45, "duration": 14, "velocity": 70}, {"time": 136558, "pitch": 52, "duration": 16, "velocity": 69}, {"time": 136564, "pitch": 57, "duration": 12, "velocity": 85}, {"time": 136572, "pitch": 60, "duration": 6, "velocity": 72}, {"time": 136680, "pitch": 57, "duration": 12, "velocity": 54}, {"time": 136686, "pitch": 52, "duration": 12, "velocity": 67}, {"time": 136800, "pitch": 41, "duration": 230, "velocity": 99}, {"time": 136808, "pitch": 48, "duration": 207, "velocity": 92}, {"time": 136817, "pitch": 53, "duration": 228, "velocity": 95}, {"time": 136825, "pitch": 65, "duration": 215, "velocity": 95}, {"time": 136833, "pitch": 57, "duration": 217, "velocity": 100}, {"time": 136839, "pitch": 60, "duration": 206, "velocity": 95}, {"time": 137040, "pitch": 41, "duration": 230, "velocity": 89}, {"time": 137047, "pitch": 53, "duration": 230, "velocity": 85}, {"time": 137048, "pitch": 48, "duration": 230, "velocity": 82}, {"time": 137058, "pitch": 57, "duration": 230, "velocity": 90}, {"time": 137064, "pitch": 60, "duration": 230, "velocity": 85}, {"time": 137280, "pitch": 41, "duration": 223, "velocity": 100}, {"time": 137285, "pitch": 48, "duration": 222, "velocity": 93}, {"time": 137295, "pitch": 53, "duration": 220, "velocity": 101}, {"time": 137302, "pitch": 57, "duration": 219, "velocity": 93}, {"time": 137308, "pitch": 60, "duration": 219, "velocity": 91}, {"time": 137315, "pitch": 65, "duration": 215, "velocity": 89}, {"time": 137516, "pitch": 41, "duration": 11, "velocity": 72}, {"time": 137521, "pitch": 48, "duration": 12, "velocity": 71}, {"time": 137527, "pitch": 53, "duration": 11, "velocity": 69}, {"time": 137531, "pitch": 57, "duration": 13, "velocity": 77}, {"time": 137534, "pitch": 60, "duration": 6, "velocity": 81}, {"time": 137543, "pitch": 65, "duration": 14, "velocity": 80}, {"time": 137639, "pitch": 65, "duration": 121, "velocity": 82}, {"time": 137648, "pitch": 60, "duration": 117, "velocity": 95}, {"time": 137651, "pitch": 57, "duration": 113, "velocity": 96}, {"time": 137658, "pitch": 53, "duration": 102, "velocity": 86}, {"time": 137664, "pitch": 48, "duration": 91, "velocity": 68}, {"time": 137666, "pitch": 41, "duration": 83, "velocity": 51}, {"time": 137760, "pitch": 43, "duration": 230, "velocity": 99}, {"time": 137768, "pitch": 50, "duration": 207, "velocity": 92}, {"time": 137777, "pitch": 55, "duration": 228, "velocity": 95}, {"time": 137785, "pitch": 67, "duration": 215, "velocity": 95}, {"time": 137793, "pitch": 59, "duration": 217, "velocity": 100}, {"time": 137799, "pitch": 62, "duration": 206, "velocity": 95}, {"time": 138000, "pitch": 43, "duration": 230, "velocity": 89}, {"time": 138007, "pitch": 55, "duration": 230, "velocity": 85}, {"time": 138008, "pitch": 50, "duration": 230, "velocity": 82}, {"time": 138018, "pitch": 59, "duration": 230, "velocity": 90}, {"time": 138024, "pitch": 62, "duration": 230, "velocity": 85}, {"time": 138240, "pitch": 43, "duration": 230, "velocity": 95}, {"time": 138243, "pitch": 50, "duration": 218, "velocity": 99}, {"time": 138246, "pitch": 55, "duration": 218, "velocity": 98}, {"time": 138252, "pitch": 59, "duration": 218, "velocity": 82}, {"time": 138252, "pitch": 62, "duration": 2, "velocity": 82}, {"time": 138473, "pitch": 43, "duration": 14, "velocity": 70}, {"time": 138478, "pitch": 50, "duration": 16, "velocity": 69}, {"time": 138484, "pitch": 55, "duration": 12, "velocity": 85}, {"time": 138492, "pitch": 59, "duration": 6, "velocity": 72}, {"time": 138492, "pitch": 62, "duration": 6, "velocity": 72}, {"time": 138600, "pitch": 55, "duration": 12, "velocity": 54}, {"time": 138606, "pitch": 50, "duration": 12, "velocity": 67}, {"time": 138720, "pitch": 45, "duration": 465, "velocity": 99}, {"time": 138728, "pitch": 52, "duration": 465, "velocity": 92}, {"time": 138737, "pitch": 55, "duration": 465, "velocity": 95}, {"time": 138745, "pitch": 64, "duration": 465, "velocity": 100}, {"time": 138752, "pitch": 60, "duration": 465, "velocity": 100}, {"time": 139200, "pitch": 43, "duration": 465, "velocity": 99}, {"time": 139208, "pitch": 50, "duration": 465, "velocity": 92}, {"time": 139217, "pitch": 55, "duration": 465, "velocity": 95}, {"time": 139225, "pitch": 64, "duration": 465, "velocity": 100}, {"time": 139232, "pitch": 59, "duration": 465, "velocity": 100}, {"time": 139680, "pitch": 41, "duration": 456, "velocity": 98}, {"time": 139688, "pitch": 48, "duration": 462, "velocity": 101}, {"time": 139698, "pitch": 53, "duration": 450, "velocity": 104}, {"time": 139705, "pitch": 57, "duration": 434, "velocity": 90}, {"time": 139705, "pitch": 60, "duration": 434, "velocity": 90}, {"time": 140160, "pitch": 41, "duration": 216, "velocity": 98}, {"time": 140168, "pitch": 48, "duration": 192, "velocity": 101}, {"time": 140178, "pitch": 53, "duration": 202, "velocity": 104}, {"time": 140185, "pitch": 57, "duration": 205, "velocity": 90}, {"time": 140185, "pitch": 60, "duration": 205, "velocity": 90}, {"time": 140393, "pitch": 41, "duration": 14, "velocity": 70}, {"time": 140398, "pitch": 48, "duration": 16, "velocity": 69}, {"time": 140404, "pitch": 53, "duration": 12, "velocity": 85}, {"time": 140412, "pitch": 57, "duration": 6, "velocity": 72}, {"time": 140520, "pitch": 53, "duration": 12, "velocity": 54}, {"time": 140526, "pitch": 48, "duration": 12, "velocity": 67}, {"time": 140640, "pitch": 45, "duration": 230, "velocity": 99}, {"time": 140648, "pitch": 50, "duration": 207, "velocity": 92}, {"time": 140657, "pitch": 57, "duration": 228, "velocity": 95}, {"time": 140673, "pitch": 60, "duration": 217, "velocity": 100}, {"time": 140679, "pitch": 65, "duration": 206, "velocity": 95}, {"time": 140880, "pitch": 45, "duration": 230, "velocity": 89}, {"time": 140887, "pitch": 57, "duration": 230, "velocity": 85}, {"time": 140888, "pitch": 50, "duration": 230, "velocity": 82}, {"time": 140898, "pitch": 60, "duration": 230, "velocity": 90}, {"time": 140904, "pitch": 65, "duration": 230, "velocity": 85}, {"time": 141120, "pitch": 45, "duration": 223, "velocity": 100}, {"time": 141125, "pitch": 50, "duration": 222, "velocity": 93}, {"time": 141135, "pitch": 57, "duration": 220, "velocity": 101}, {"time": 141142, "pitch": 60, "duration": 219, "velocity": 93}, {"time": 141148, "pitch": 65, "duration": 219, "velocity": 91}, {"time": 141356, "pitch": 45, "duration": 11, "velocity": 72}, {"time": 141361, "pitch": 50, "duration": 12, "velocity": 71}, {"time": 141367, "pitch": 57, "duration": 11, "velocity": 69}, {"time": 141371, "pitch": 60, "duration": 13, "velocity": 77}, {"time": 141374, "pitch": 65, "duration": 6, "velocity": 81}, {"time": 141488, "pitch": 65, "duration": 117, "velocity": 95}, {"time": 141491, "pitch": 60, "duration": 113, "velocity": 96}, {"time": 141498, "pitch": 57, "duration": 102, "velocity": 86}, {"time": 141504, "pitch": 50, "duration": 91, "velocity": 68}, {"time": 141506, "pitch": 45, "duration": 83, "velocity": 51}, {"time": 141600, "pitch": 43, "duration": 230, "velocity": 99}, {"time": 141608, "pitch": 50, "duration": 207, "velocity": 92}, {"time": 141617, "pitch": 53, "duration": 228, "velocity": 95}, {"time": 141633, "pitch": 55, "duration": 217, "velocity": 100}, {"time": 141639, "pitch": 59, "duration": 206, "velocity": 95}, {"time": 141639, "pitch": 62, "duration": 206, "velocity": 95}, {"time": 141840, "pitch": 43, "duration": 230, "velocity": 89}, {"time": 141847, "pitch": 53, "duration": 230, "velocity": 85}, {"time": 141848, "pitch": 50, "duration": 230, "velocity": 82}, {"time": 141858, "pitch": 55, "duration": 230, "velocity": 90}, {"time": 141864, "pitch": 59, "duration": 230, "velocity": 85}, {"time": 141864, "pitch": 62, "duration": 230, "velocity": 85}, {"time": 142080, "pitch": 43, "duration": 223, "velocity": 100}, {"time": 142085, "pitch": 50, "duration": 222, "velocity": 93}, {"time": 142095, "pitch": 53, "duration": 220, "velocity": 101}, {"time": 142102, "pitch": 55, "duration": 219, "velocity": 93}, {"time": 142108, "pitch": 59, "duration": 219, "velocity": 91}, {"time": 142108, "pitch": 62, "duration": 219, "velocity": 91}, {"time": 142316, "pitch": 43, "duration": 11, "velocity": 72}, {"time": 142321, "pitch": 50, "duration": 12, "velocity": 71}, {"time": 142327, "pitch": 53, "duration": 11, "velocity": 69}, {"time": 142331, "pitch": 55, "duration": 13, "velocity": 77}, {"time": 142334, "pitch": 59, "duration": 6, "velocity": 81}, {"time": 142334, "pitch": 62, "duration": 6, "velocity": 81}, {"time": 142448, "pitch": 59, "duration": 117, "velocity": 95}, {"time": 142448, "pitch": 62, "duration": 117, "velocity": 95}, {"time": 142451, "pitch": 55, "duration": 113, "velocity": 96}, {"time": 142458, "pitch": 53, "duration": 102, "velocity": 86}, {"time": 142464, "pitch": 50, "duration": 91, "velocity": 68}, {"time": 142466, "pitch": 43, "duration": 83, "velocity": 51}, {"time": 142560, "pitch": 48, "duration": 465, "velocity": 99}, {"time": 142568, "pitch": 52, "duration": 465, "velocity": 92}, {"time": 142577, "pitch": 55, "duration": 465, "velocity": 95}, {"time": 142585, "pitch": 64, "duration": 465, "velocity": 100}, {"time": 142592, "pitch": 60, "duration": 465, "velocity": 100}, {"time": 143040, "pitch": 47, "duration": 465, "velocity": 99}, {"time": 143048, "pitch": 50, "duration": 465, "velocity": 92}, {"time": 143057, "pitch": 55, "duration": 465, "velocity": 95}, {"time": 143065, "pitch": 67, "duration": 465, "velocity": 100}, {"time": 143072, "pitch": 62, "duration": 465, "velocity": 100}, {"time": 143520, "pitch": 45, "duration": 456, "velocity": 98}, {"time": 143528, "pitch": 52, "duration": 467, "velocity": 101}, {"time": 143538, "pitch": 57, "duration": 447, "velocity": 104}, {"time": 143545, "pitch": 60, "duration": 445, "velocity": 90}, {"time": 144000, "pitch": 45, "duration": 216, "velocity": 98}, {"time": 144008, "pitch": 52, "duration": 192, "velocity": 101}, {"time": 144018, "pitch": 57, "duration": 202, "velocity": 104}, {"time": 144025, "pitch": 60, "duration": 205, "velocity": 90}, {"time": 144233, "pitch": 45, "duration": 14, "velocity": 70}, {"time": 144238, "pitch": 52, "duration": 16, "velocity": 69}, {"time": 144244, "pitch": 57, "duration": 12, "velocity": 85}, {"time": 144252, "pitch": 60, "duration": 6, "velocity": 72}, {"time": 144360, "pitch": 57, "duration": 12, "velocity": 54}, {"time": 144366, "pitch": 52, "duration": 12, "velocity": 67}, {"time": 144480, "pitch": 41, "duration": 230, "velocity": 99}, {"time": 144488, "pitch": 48, "duration": 207, "velocity": 92}, {"time": 144497, "pitch": 53, "duration": 228, "velocity": 95}, {"time": 144505, "pitch": 65, "duration": 215, "velocity": 95}, {"time": 144513, "pitch": 57, "duration": 217, "velocity": 100}, {"time": 144519, "pitch": 60, "duration": 206, "velocity": 95}, {"time": 144720, "pitch": 41, "duration": 230, "velocity": 89}, {"time": 144727, "pitch": 53, "duration": 230, "velocity": 85}, {"time": 144728, "pitch": 48, "duration": 230, "velocity": 82}, {"time": 144738, "pitch": 57, "duration": 230, "velocity": 90}, {"time": 144744, "pitch": 60, "duration": 230, "velocity": 85}, {"time": 144960, "pitch": 41, "duration": 223, "velocity": 100}, {"time": 144965, "pitch": 48, "duration": 222, "velocity": 93}, {"time": 144975, "pitch": 53, "duration": 220, "velocity": 101}, {"time": 144982, "pitch": 57, "duration": 219, "velocity": 93}, {"time": 144988, "pitch": 60, "duration": 219, "velocity": 91}, {"time": 144995, "pitch": 65, "duration": 215, "velocity": 89}, {"time": 145196, "pitch": 41, "duration": 11, "velocity": 72}, {"time": 145201, "pitch": 48, "duration": 12, "velocity": 71}, {"time": 145207, "pitch": 53, "duration": 11, "velocity": 69}, {"time": 145211, "pitch": 57, "duration": 13, "velocity": 77}, {"time": 145214, "pitch": 60, "duration": 6, "velocity": 81}, {"time": 145223, "pitch": 65, "duration": 14, "velocity": 80}, {"time": 145319, "pitch": 65, "duration": 121, "velocity": 82}, {"time": 145328, "pitch": 60, "duration": 117, "velocity": 95}, {"time": 145331, "pitch": 57, "duration": 113, "velocity": 96}, {"time": 145338, "pitch": 53, "duration": 102, "velocity": 86}, {"time": 145344, "pitch": 48, "duration": 91, "velocity": 68}, {"time": 145346, "pitch": 41, "duration": 83, "velocity": 51}, {"time": 145440, "pitch": 43, "duration": 230, "velocity": 99}, {"time": 145448, "pitch": 50, "duration": 207, "velocity": 92}, {"time": 145457, "pitch": 55, "duration": 228, "velocity": 95}, {"time": 145465, "pitch": 67, "duration": 215, "velocity": 95}, {"time": 145473, "pitch": 59, "duration": 217, "velocity": 100}, {"time": 145479, "pitch": 62, "duration": 206, "velocity": 95}, {"time": 145680, "pitch": 43, "duration": 230, "velocity": 89}, {"time": 145687, "pitch": 55, "duration": 230, "velocity": 85}, {"time": 145688, "pitch": 50, "duration": 230, "velocity": 82}, {"time": 145698, "pitch": 59, "duration": 230, "velocity": 90}, {"time": 145704, "pitch": 62, "duration": 230, "velocity": 85}, {"time": 145920, "pitch": 43, "duration": 230, "velocity": 95}, {"time": 145923, "pitch": 50, "duration": 218, "velocity": 99}, {"time": 145926, "pitch": 55, "duration": 218, "velocity": 98}, {"time": 145932, "pitch": 59, "duration": 218, "velocity": 82}, {"time": 145932, "pitch": 62, "duration": 2, "velocity": 82}, {"time": 146153, "pitch": 43, "duration": 14, "velocity": 70}, {"time": 146158, "pitch": 50, "duration": 16, "velocity": 69}, {"time": 146164, "pitch": 55, "duration": 12, "velocity": 85}, {"time": 146172, "pitch": 59, "duration": 6, "velocity": 72}, {"time": 146172, "pitch": 62, "duration": 6, "velocity": 72}, {"time": 146280, "pitch": 55, "duration": 12, "velocity": 54}, {"time": 146286, "pitch": 50, "duration": 12, "velocity": 67}, {"time": 146400, "pitch": 45, "duration": 465, "velocity": 99}, {"time": 146408, "pitch": 52, "duration": 465, "velocity": 92}, {"time": 146417, "pitch": 55, "duration": 465, "velocity": 95}, {"time": 146425, "pitch": 64, "duration": 465, "velocity": 100}, {"time": 146432, "pitch": 60, "duration": 465, "velocity": 100}, {"time": 146880, "pitch": 43, "duration": 465, "velocity": 99}, {"time": 146888, "pitch": 50, "duration": 465, "velocity": 92}, {"time": 146897, "pitch": 55, "duration": 465, "velocity": 95}, {"time": 146905, "pitch": 64, "duration": 465, "velocity": 100}, {"time": 146912, "pitch": 59, "duration": 465, "velocity": 100}, {"time": 147360, "pitch": 41, "duration": 456, "velocity": 98}, {"time": 147368, "pitch": 48, "duration": 462, "velocity": 101}, {"time": 147378, "pitch": 53, "duration": 450, "velocity": 104}, {"time": 147385, "pitch": 57, "duration": 434, "velocity": 90}, {"time": 147385, "pitch": 60, "duration": 434, "velocity": 90}, {"time": 147840, "pitch": 41, "duration": 216, "velocity": 98}, {"time": 147848, "pitch": 48, "duration": 192, "velocity": 101}, {"time": 147858, "pitch": 53, "duration": 202, "velocity": 104}, {"time": 147865, "pitch": 57, "duration": 205, "velocity": 90}, {"time": 147865, "pitch": 60, "duration": 205, "velocity": 90}, {"time": 148073, "pitch": 41, "duration": 14, "velocity": 70}, {"time": 148078, "pitch": 48, "duration": 16, "velocity": 69}, {"time": 148084, "pitch": 53, "duration": 12, "velocity": 85}, {"time": 148092, "pitch": 57, "duration": 6, "velocity": 72}, {"time": 148200, "pitch": 53, "duration": 12, "velocity": 54}, {"time": 148206, "pitch": 48, "duration": 12, "velocity": 67}, {"time": 148320, "pitch": 45, "duration": 230, "velocity": 99}, {"time": 148328, "pitch": 50, "duration": 207, "velocity": 92}, {"time": 148337, "pitch": 57, "duration": 228, "velocity": 95}, {"time": 148353, "pitch": 60, "duration": 217, "velocity": 100}, {"time": 148359, "pitch": 65, "duration": 206, "velocity": 95}, {"time": 148560, "pitch": 45, "duration": 230, "velocity": 89}, {"time": 148567, "pitch": 57, "duration": 230, "velocity": 85}, {"time": 148568, "pitch": 50, "duration": 230, "velocity": 82}, {"time": 148578, "pitch": 60, "duration": 230, "velocity": 90}, {"time": 148584, "pitch": 65, "duration": 230, "velocity": 85}, {"time": 148800, "pitch": 45, "duration": 223, "velocity": 100}, {"time": 148805, "pitch": 50, "duration": 222, "velocity": 93}, {"time": 148815, "pitch": 57, "duration": 220, "velocity": 101}, {"time": 148822, "pitch": 60, "duration": 219, "velocity": 93}, {"time": 148828, "pitch": 65, "duration": 219, "velocity": 91}, {"time": 149036, "pitch": 45, "duration": 11, "velocity": 72}, {"time": 149041, "pitch": 50, "duration": 12, "velocity": 71}, {"time": 149047, "pitch": 57, "duration": 11, "velocity": 69}, {"time": 149051, "pitch": 60, "duration": 13, "velocity": 77}, {"time": 149054, "pitch": 65, "duration": 6, "velocity": 81}, {"time": 149168, "pitch": 65, "duration": 117, "velocity": 95}, {"time": 149171, "pitch": 60, "duration": 113, "velocity": 96}, {"time": 149178, "pitch": 57, "duration": 102, "velocity": 86}, {"time": 149184, "pitch": 50, "duration": 91, "velocity": 68}, {"time": 149186, "pitch": 45, "duration": 83, "velocity": 51}, {"time": 149280, "pitch": 43, "duration": 230, "velocity": 99}, {"time": 149288, "pitch": 50, "duration": 207, "velocity": 92}, {"time": 149297, "pitch": 53, "duration": 228, "velocity": 95}, {"time": 149313, "pitch": 55, "duration": 217, "velocity": 100}, {"time": 149319, "pitch": 59, "duration": 206, "velocity": 95}, {"time": 149319, "pitch": 62, "duration": 206, "velocity": 95}, {"time": 149520, "pitch": 43, "duration": 230, "velocity": 89}, {"time": 149527, "pitch": 53, "duration": 230, "velocity": 85}, {"time": 149528, "pitch": 50, "duration": 230, "velocity": 82}, {"time": 149538, "pitch": 55, "duration": 230, "velocity": 90}, {"time": 149544, "pitch": 59, "duration": 230, "velocity": 85}, {"time": 149544, "pitch": 62, "duration": 230, "velocity": 85}, {"time": 149760, "pitch": 43, "duration": 223, "velocity": 100}, {"time": 149765, "pitch": 50, "duration": 222, "velocity": 93}, {"time": 149775, "pitch": 53, "duration": 220, "velocity": 101}, {"time": 149782, "pitch": 55, "duration": 219, "velocity": 93}, {"time": 149788, "pitch": 59, "duration": 219, "velocity": 91}, {"time": 149788, "pitch": 62, "duration": 219, "velocity": 91}, {"time": 149996, "pitch": 43, "duration": 11, "velocity": 72}, {"time": 150001, "pitch": 50, "duration": 12, "velocity": 71}, {"time": 150007, "pitch": 53, "duration": 11, "velocity": 69}, {"time": 150011, "pitch": 55, "duration": 13, "velocity": 77}, {"time": 150014, "pitch": 59, "duration": 6, "velocity": 81}, {"time": 150014, "pitch": 62, "duration": 6, "velocity": 81}, {"time": 150128, "pitch": 59, "duration": 117, "velocity": 95}, {"time": 150128, "pitch": 62, "duration": 117, "velocity": 95}, {"time": 150131, "pitch": 55, "duration": 113, "velocity": 96}, {"time": 150138, "pitch": 53, "duration": 102, "velocity": 86}, {"time": 150144, "pitch": 50, "duration": 91, "velocity": 68}, {"time": 150146, "pitch": 43, "duration": 83, "velocity": 51}, {"time": 150240, "pitch": 41, "duration": 385, "velocity": 101}, {"time": 150255, "pitch": 48, "duration": 340, "velocity": 102}, {"time": 150262, "pitch": 53, "duration": 339, "velocity": 93}, {"time": 150268, "pitch": 56, "duration": 324, "velocity": 91}, {"time": 150275, "pitch": 60, "duration": 321, "velocity": 89}, {"time": 150600, "pitch": 60, "duration": 120, "velocity": 81}, {"time": 150609, "pitch": 56, "duration": 112, "velocity": 95}, {"time": 150612, "pitch": 53, "duration": 104, "velocity": 96}, {"time": 150619, "pitch": 48, "duration": 96, "velocity": 85}, {"time": 150627, "pitch": 41, "duration": 80, "velocity": 47}, {"time": 150715, "pitch": 41, "duration": 238, "velocity": 70}, {"time": 150726, "pitch": 48, "duration": 223, "velocity": 67}, {"time": 150730, "pitch": 53, "duration": 232, "velocity": 75}, {"time": 150733, "pitch": 56, "duration": 239, "velocity": 80}, {"time": 150742, "pitch": 60, "duration": 238, "velocity": 79}, {"time": 150961, "pitch": 41, "duration": 371, "velocity": 89}, {"time": 150967, "pitch": 48, "duration": 369, "velocity": 90}, {"time": 150974, "pitch": 53, "duration": 344, "velocity": 101}, {"time": 150982, "pitch": 56, "duration": 325, "velocity": 93}, {"time": 150990, "pitch": 60, "duration": 312, "velocity": 85}, {"time": 151320, "pitch": 60, "duration": 135, "velocity": 81}, {"time": 151329, "pitch": 56, "duration": 119, "velocity": 95}, {"time": 151332, "pitch": 53, "duration": 111, "velocity": 96}, {"time": 151339, "pitch": 48, "duration": 96, "velocity": 85}, {"time": 151347, "pitch": 41, "duration": 83, "velocity": 47}, {"time": 151441, "pitch": 41, "duration": 225, "velocity": 81}, {"time": 151445, "pitch": 48, "duration": 226, "velocity": 85}, {"time": 151449, "pitch": 53, "duration": 231, "velocity": 93}, {"time": 151455, "pitch": 56, "duration": 230, "velocity": 91}, {"time": 151464, "pitch": 60, "duration": 230, "velocity": 86}, {"time": 151676, "pitch": 41, "duration": 143, "velocity": 74}, {"time": 151684, "pitch": 48, "duration": 126, "velocity": 106}, {"time": 151693, "pitch": 53, "duration": 120, "velocity": 97}, {"time": 151700, "pitch": 56, "duration": 111, "velocity": 95}, {"time": 151707, "pitch": 60, "duration": 91, "velocity": 93}, {"time": 151809, "pitch": 60, "duration": 124, "velocity": 79}, {"time": 151816, "pitch": 56, "duration": 110, "velocity": 83}, {"time": 151821, "pitch": 53, "duration": 103, "velocity": 83}, {"time": 151830, "pitch": 48, "duration": 96, "velocity": 79}, {"time": 151838, "pitch": 41, "duration": 75, "velocity": 58}, {"time": 151916, "pitch": 41, "duration": 148, "velocity": 74}, {"time": 151929, "pitch": 53, "duration": 129, "velocity": 97}, {"time": 151930, "pitch": 48, "duration": 126, "velocity": 106}, {"time": 151936, "pitch": 56, "duration": 116, "velocity": 95}, {"time": 151947, "pitch": 60, "duration": 101, "velocity": 93}, {"time": 152053, "pitch": 60, "duration": 130, "velocity": 74}, {"time": 152057, "pitch": 56, "duration": 120, "velocity": 79}, {"time": 152062, "pitch": 53, "duration": 108, "velocity": 78}, {"time": 152068, "pitch": 48, "duration": 92, "velocity": 73}, {"time": 152081, "pitch": 41, "duration": 67, "velocity": 58}, {"time": 152160, "pitch": 48, "duration": 372, "velocity": 101}, {"time": 152165, "pitch": 52, "duration": 373, "velocity": 93}, {"time": 152175, "pitch": 55, "duration": 351, "velocity": 102}, {"time": 152182, "pitch": 60, "duration": 1, "velocity": 93}, {"time": 152188, "pitch": 64, "duration": 318, "velocity": 91}, {"time": 152528, "pitch": 64, "duration": 355, "velocity": 95}, {"time": 152531, "pitch": 60, "duration": 345, "velocity": 96}, {"time": 152538, "pitch": 55, "duration": 340, "velocity": 85}, {"time": 152544, "pitch": 52, "duration": 329, "velocity": 66}, {"time": 152546, "pitch": 48, "duration": 327, "velocity": 47}, {"time": 152882, "pitch": 48, "duration": 372, "velocity": 102}, {"time": 152888, "pitch": 52, "duration": 359, "velocity": 101}, {"time": 152892, "pitch": 55, "duration": 346, "velocity": 99}, {"time": 152897, "pitch": 60, "duration": 351, "velocity": 101}, {"time": 152906, "pitch": 64, "duration": 319, "velocity": 100}, {"time": 153248, "pitch": 64, "duration": 133, "velocity": 95}, {"time": 153251, "pitch": 60, "duration": 121, "velocity": 96}, {"time": 153258, "pitch": 55, "duration": 100, "velocity": 85}, {"time": 153264, "pitch": 52, "duration": 89, "velocity": 66}, {"time": 153266, "pitch": 48, "duration": 87, "velocity": 47}, {"time": 153361, "pitch": 48, "duration": 199, "velocity": 91}, {"time": 153369, "pitch": 52, "duration": 215, "velocity": 66}, {"time": 153372, "pitch": 55, "duration": 226, "velocity": 85}, {"time": 153379, "pitch": 60, "duration": 225, "velocity": 93}, {"time": 153386, "pitch": 64, "duration": 222, "velocity": 91}, {"time": 153600, "pitch": 48, "duration": 230, "velocity": 104}, {"time": 153603, "pitch": 52, "duration": 225, "velocity": 108}, {"time": 153606, "pitch": 55, "duration": 225, "velocity": 107}, {"time": 153612, "pitch": 60, "duration": 225, "velocity": 90}, {"time": 153612, "pitch": 64, "duration": 225, "velocity": 90}, {"time": 153833, "pitch": 48, "duration": 14, "velocity": 77}, {"time": 153838, "pitch": 52, "duration": 16, "velocity": 75}, {"time": 153844, "pitch": 55, "duration": 12, "velocity": 93}, {"time": 153852, "pitch": 60, "duration": 6, "velocity": 79}, {"time": 153852, "pitch": 64, "duration": 6, "velocity": 79}, {"time": 153960, "pitch": 55, "duration": 12, "velocity": 59}, {"time": 153966, "pitch": 52, "duration": 12, "velocity": 73}, {"time": 154080, "pitch": 48, "duration": 1880, "velocity": 106}, {"time": 154200, "pitch": 53, "duration": 1757, "velocity": 86}, {"time": 154320, "pitch": 60, "duration": 460, "velocity": 114}, {"time": 154440, "pitch": 65, "duration": 220, "velocity": 103}, {"time": 154560, "pitch": 68, "duration": 1340, "velocity": 100}, {"time": 154680, "pitch": 65, "duration": 1160, "velocity": 110}, {"time": 154800, "pitch": 60, "duration": 1174, "velocity": 111}, {"time": 154920, "pitch": 72, "duration": 1040, "velocity": 111}, {"time": 156000, "pitch": 48, "duration": 1922, "velocity": 86}, {"time": 156120, "pitch": 55, "duration": 1809, "velocity": 79}, {"time": 156240, "pitch": 60, "duration": 1668, "velocity": 108}, {"time": 156360, "pitch": 65, "duration": 258, "velocity": 91}, {"time": 156600, "pitch": 64, "duration": 224, "velocity": 122}, {"time": 156840, "pitch": 67, "duration": 1079, "velocity": 113}, {"time": 157920, "pitch": 48, "duration": 2, "velocity": 106}, {"time": 158040, "pitch": 53, "duration": 1757, "velocity": 86}, {"time": 158160, "pitch": 60, "duration": 460, "velocity": 114}, {"time": 158280, "pitch": 65, "duration": 220, "velocity": 103}, {"time": 158400, "pitch": 68, "duration": 1340, "velocity": 100}, {"time": 158520, "pitch": 65, "duration": 1160, "velocity": 110}, {"time": 158640, "pitch": 60, "duration": 1174, "velocity": 111}, {"time": 158760, "pitch": 72, "duration": 1040, "velocity": 111}, {"time": 159840, "pitch": 48, "duration": 1875, "velocity": 101}, {"time": 160200, "pitch": 55, "duration": 1489, "velocity": 101}, {"time": 160530, "pitch": 60, "duration": 1173, "velocity": 73}, {"time": 160557, "pitch": 64, "duration": 1127, "velocity": 83}, {"time": 160581, "pitch": 67, "duration": 1106, "velocity": 95}], "annotations": [{"time": 336, "annotation": {"number": 7, "value": 79}, "group": "control_change"}, {"time": 360, "annotation": {"number": 11, "value": 127}, "group": "control_change"}, {"time": 384, "annotation": {"number": 10, "value": 104}, "group": "control_change"}, {"time": 408, "annotation": {"number": 91, "value": 60}, "group": "control_change"}, {"time": 432, "annotation": {"number": 93, "value": 0}, "group": "control_change"}, {"time": 456, "annotation": {"number": 101, "value": 0}, "group": "control_change"}, {"time": 480, "annotation": {"number": 100, "value": 0}, "group": "control_change"}, {"time": 480, "annotation": {"number": 6, "value": 12}, "group": "control_change"}, {"time": 480, "annotation": {"number": 101, "value": 127}, "group": "control_change"}, {"time": 480, "annotation": {"number": 100, "value": 127}, "group": "control_change"}]}, {"program": 0, "is_drum": false, "name": "Bass", "annotations": [{"time": 264, "annotation": {"number": 0, "value": 0}, "group": "control_change"}, {"time": 288, "annotation": {"number": 32, "value": 2}, "group": "control_change"}]}, {"program": 32, "is_drum": false, "name": "Bass", "notes": [{"time": 4076, "pitch": 28, "duration": 233, "velocity": 90}, {"time": 4320, "pitch": 29, "duration": 1670, "velocity": 95}, {"time": 6000, "pitch": 31, "duration": 220, "velocity": 90}, {"time": 6240, "pitch": 36, "duration": 1190, "velocity": 95}, {"time": 7440, "pitch": 31, "duration": 230, "velocity": 95}, {"time": 7680, "pitch": 33, "duration": 230, "velocity": 95}, {"time": 7920, "pitch": 35, "duration": 230, "velocity": 95}, {"time": 8160, "pitch": 36, "duration": 500, "velocity": 95}, {"time": 8880, "pitch": 36, "duration": 470, "velocity": 96}, {"time": 9360, "pitch": 35, "duration": 220, "velocity": 90}, {"time": 9600, "pitch": 36, "duration": 230, "velocity": 95}, {"time": 9840, "pitch": 33, "duration": 220, "velocity": 90}, {"time": 10080, "pitch": 33, "duration": 230, "velocity": 98}, {"time": 10320, "pitch": 33, "duration": 250, "velocity": 95}, {"time": 10800, "pitch": 33, "duration": 470, "velocity": 96}, {"time": 11280, "pitch": 31, "duration": 220, "velocity": 90}, {"time": 11520, "pitch": 33, "duration": 230, "velocity": 95}, {"time": 11760, "pitch": 31, "duration": 220, "velocity": 90}, {"time": 12000, "pitch": 29, "duration": 500, "velocity": 95}, {"time": 12720, "pitch": 29, "duration": 470, "velocity": 96}, {"time": 13200, "pitch": 31, "duration": 220, "velocity": 90}, {"time": 13440, "pitch": 33, "duration": 230, "velocity": 95}, {"time": 13680, "pitch": 35, "duration": 220, "velocity": 90}, {"time": 13920, "pitch": 36, "duration": 230, "velocity": 98}, {"time": 14160, "pitch": 36, "duration": 250, "velocity": 95}, {"time": 14640, "pitch": 36, "duration": 470, "velocity": 96}, {"time": 15120, "pitch": 36, "duration": 220, "velocity": 90}, {"time": 15360, "pitch": 43, "duration": 230, "velocity": 95}, {"time": 15600, "pitch": 40, "duration": 220, "velocity": 90}, {"time": 15840, "pitch": 36, "duration": 500, "velocity": 95}, {"time": 16560, "pitch": 36, "duration": 470, "velocity": 96}, {"time": 17040, "pitch": 35, "duration": 220, "velocity": 90}, {"time": 17280, "pitch": 36, "duration": 230, "velocity": 95}, {"time": 17520, "pitch": 33, "duration": 220, "velocity": 90}, {"time": 17760, "pitch": 33, "duration": 230, "velocity": 98}, {"time": 18000, "pitch": 33, "duration": 250, "velocity": 95}, {"time": 18480, "pitch": 33, "duration": 470, "velocity": 96}, {"time": 18960, "pitch": 31, "duration": 220, "velocity": 90}, {"time": 19200, "pitch": 33, "duration": 230, "velocity": 95}, {"time": 19440, "pitch": 31, "duration": 220, "velocity": 90}, {"time": 19680, "pitch": 29, "duration": 500, "velocity": 95}, {"time": 20400, "pitch": 29, "duration": 470, "velocity": 96}, {"time": 20880, "pitch": 31, "duration": 220, "velocity": 90}, {"time": 21120, "pitch": 33, "duration": 230, "velocity": 95}, {"time": 21360, "pitch": 35, "duration": 220, "velocity": 90}, {"time": 21600, "pitch": 36, "duration": 230, "velocity": 98}, {"time": 21840, "pitch": 36, "duration": 250, "velocity": 95}, {"time": 22320, "pitch": 36, "duration": 470, "velocity": 96}, {"time": 22800, "pitch": 36, "duration": 220, "velocity": 90}, {"time": 23040, "pitch": 43, "duration": 230, "velocity": 95}, {"time": 23280, "pitch": 40, "duration": 220, "velocity": 90}, {"time": 23520, "pitch": 40, "duration": 350, "velocity": 95}, {"time": 23880, "pitch": 41, "duration": 110, "velocity": 90}, {"time": 24240, "pitch": 41, "duration": 470, "velocity": 96}, {"time": 24720, "pitch": 34, "duration": 210, "velocity": 90}, {"time": 24960, "pitch": 39, "duration": 220, "velocity": 94}, {"time": 25200, "pitch": 36, "duration": 210, "velocity": 90}, {"time": 25440, "pitch": 36, "duration": 350, "velocity": 95}, {"time": 25800, "pitch": 36, "duration": 110, "velocity": 90}, {"time": 26160, "pitch": 36, "duration": 470, "velocity": 96}, {"time": 26640, "pitch": 31, "duration": 210, "velocity": 90}, {"time": 26880, "pitch": 34, "duration": 220, "velocity": 94}, {"time": 27120, "pitch": 31, "duration": 210, "velocity": 90}, {"time": 27360, "pitch": 34, "duration": 500, "velocity": 95}, {"time": 28080, "pitch": 34, "duration": 470, "velocity": 96}, {"time": 28560, "pitch": 29, "duration": 220, "velocity": 90}, {"time": 28800, "pitch": 34, "duration": 230, "velocity": 95}, {"time": 29040, "pitch": 38, "duration": 220, "velocity": 90}, {"time": 29280, "pitch": 36, "duration": 230, "velocity": 98}, {"time": 29520, "pitch": 36, "duration": 250, "velocity": 95}, {"time": 30000, "pitch": 36, "duration": 470, "velocity": 96}, {"time": 30480, "pitch": 36, "duration": 220, "velocity": 90}, {"time": 30720, "pitch": 43, "duration": 230, "velocity": 95}, {"time": 30960, "pitch": 40, "duration": 220, "velocity": 90}, {"time": 31200, "pitch": 40, "duration": 350, "velocity": 95}, {"time": 31560, "pitch": 41, "duration": 110, "velocity": 90}, {"time": 31920, "pitch": 41, "duration": 470, "velocity": 96}, {"time": 32400, "pitch": 34, "duration": 210, "velocity": 90}, {"time": 32640, "pitch": 39, "duration": 220, "velocity": 94}, {"time": 32880, "pitch": 36, "duration": 210, "velocity": 90}, {"time": 33120, "pitch": 36, "duration": 350, "velocity": 95}, {"time": 33480, "pitch": 36, "duration": 110, "velocity": 90}, {"time": 33840, "pitch": 36, "duration": 470, "velocity": 96}, {"time": 34320, "pitch": 43, "duration": 210, "velocity": 90}, {"time": 34560, "pitch": 48, "duration": 220, "velocity": 94}, {"time": 34800, "pitch": 41, "duration": 210, "velocity": 90}, {"time": 35040, "pitch": 37, "duration": 500, "velocity": 95}, {"time": 35760, "pitch": 37, "duration": 470, "velocity": 96}, {"time": 36240, "pitch": 32, "duration": 220, "velocity": 90}, {"time": 36480, "pitch": 37, "duration": 230, "velocity": 95}, {"time": 36720, "pitch": 43, "duration": 220, "velocity": 90}, {"time": 36960, "pitch": 39, "duration": 230, "velocity": 98}, {"time": 37200, "pitch": 39, "duration": 250, "velocity": 95}, {"time": 37680, "pitch": 41, "duration": 470, "velocity": 96}, {"time": 38160, "pitch": 53, "duration": 220, "velocity": 90}, {"time": 38400, "pitch": 48, "duration": 230, "velocity": 95}, {"time": 38640, "pitch": 45, "duration": 220, "velocity": 90}, {"time": 38880, "pitch": 43, "duration": 1910, "velocity": 90}], "annotations": [{"time": 336, "annotation": {"number": 7, "value": 127}, "group": "control_change"}, {"time": 360, "annotation": {"number": 11, "value": 100}, "group": "control_change"}, {"time": 384, "annotation": {"number": 10, "value": 64}, "group": "control_change"}, {"time": 408, "annotation": {"number": 91, "value": 15}, "group": "control_change"}, {"time": 432, "annotation": {"number": 93, "value": 0}, "group": "control_change"}, {"time": 456, "annotation": {"number": 101, "value": 0}, "group": "control_change"}, {"time": 480, "annotation": {"number": 100, "value": 0}, "group": "control_change"}, {"time": 480, "annotation": {"number": 6, "value": 12}, "group": "control_change"}, {"time": 480, "annotation": {"number": 101, "value": 127}, "group": "control_change"}, {"time": 480, "annotation": {"number": 100, "value": 127}, "group": "control_change"}]}, {"program": 35, "is_drum": false, "name": "Bass", "notes": [{"time": 42240, "pitch": 43, "duration": 480, "velocity": 114}, {"time": 42720, "pitch": 36, "duration": 480, "velocity": 104}, {"time": 43200, "pitch": 35, "duration": 216, "velocity": 117}, {"time": 43440, "pitch": 38, "duration": 100, "velocity": 112}, {"time": 43560, "pitch": 43, "duration": 95, "velocity": 108}, {"time": 43800, "pitch": 36, "duration": 110, "velocity": 79}, {"time": 43920, "pitch": 33, "duration": 580, "velocity": 108}, {"time": 44520, "pitch": 36, "duration": 85, "velocity": 90}, {"time": 44640, "pitch": 29, "duration": 500, "velocity": 104}, {"time": 45240, "pitch": 29, "duration": 55, "velocity": 104}, {"time": 45360, "pitch": 29, "duration": 240, "velocity": 108}, {"time": 45600, "pitch": 31, "duration": 500, "velocity": 104}, {"time": 46200, "pitch": 31, "duration": 55, "velocity": 104}, {"time": 46320, "pitch": 43, "duration": 215, "velocity": 104}, {"time": 46560, "pitch": 33, "duration": 480, "velocity": 104}, {"time": 47040, "pitch": 31, "duration": 216, "velocity": 117}, {"time": 47280, "pitch": 36, "duration": 100, "velocity": 112}, {"time": 47400, "pitch": 40, "duration": 95, "velocity": 108}, {"time": 47640, "pitch": 29, "duration": 115, "velocity": 95}, {"time": 47760, "pitch": 41, "duration": 565, "velocity": 117}, {"time": 48360, "pitch": 36, "duration": 100, "velocity": 93}, {"time": 48480, "pitch": 38, "duration": 500, "velocity": 104}, {"time": 49080, "pitch": 38, "duration": 55, "velocity": 104}, {"time": 49200, "pitch": 38, "duration": 240, "velocity": 108}, {"time": 49440, "pitch": 31, "duration": 500, "velocity": 104}, {"time": 50040, "pitch": 31, "duration": 55, "velocity": 104}, {"time": 50160, "pitch": 43, "duration": 215, "velocity": 104}, {"time": 50400, "pitch": 36, "duration": 480, "velocity": 104}, {"time": 50880, "pitch": 35, "duration": 216, "velocity": 117}, {"time": 51120, "pitch": 38, "duration": 100, "velocity": 112}, {"time": 51240, "pitch": 43, "duration": 95, "velocity": 108}, {"time": 51480, "pitch": 36, "duration": 110, "velocity": 79}, {"time": 51600, "pitch": 33, "duration": 580, "velocity": 108}, {"time": 52200, "pitch": 36, "duration": 85, "velocity": 90}, {"time": 52320, "pitch": 29, "duration": 750, "velocity": 97}, {"time": 53160, "pitch": 29, "duration": 140, "velocity": 97}, {"time": 53400, "pitch": 31, "duration": 55, "velocity": 92}, {"time": 53520, "pitch": 31, "duration": 220, "velocity": 93}, {"time": 53760, "pitch": 29, "duration": 220, "velocity": 92}, {"time": 54000, "pitch": 31, "duration": 200, "velocity": 102}, {"time": 54240, "pitch": 33, "duration": 480, "velocity": 104}, {"time": 54720, "pitch": 31, "duration": 216, "velocity": 117}, {"time": 54960, "pitch": 36, "duration": 100, "velocity": 112}, {"time": 55080, "pitch": 40, "duration": 95, "velocity": 108}, {"time": 55320, "pitch": 29, "duration": 115, "velocity": 95}, {"time": 55440, "pitch": 41, "duration": 565, "velocity": 117}, {"time": 56040, "pitch": 36, "duration": 100, "velocity": 93}, {"time": 56160, "pitch": 38, "duration": 500, "velocity": 104}, {"time": 56760, "pitch": 38, "duration": 55, "velocity": 104}, {"time": 56880, "pitch": 38, "duration": 240, "velocity": 108}, {"time": 57120, "pitch": 43, "duration": 120, "velocity": 102}, {"time": 57240, "pitch": 45, "duration": 110, "velocity": 112}, {"time": 57360, "pitch": 43, "duration": 105, "velocity": 97}, {"time": 57480, "pitch": 41, "duration": 120, "velocity": 77}, {"time": 57600, "pitch": 38, "duration": 105, "velocity": 95}, {"time": 57720, "pitch": 36, "duration": 115, "velocity": 95}, {"time": 57840, "pitch": 35, "duration": 120, "velocity": 99}, {"time": 57960, "pitch": 31, "duration": 100, "velocity": 92}, {"time": 58080, "pitch": 29, "duration": 525, "velocity": 102}, {"time": 58680, "pitch": 29, "duration": 55, "velocity": 104}, {"time": 58800, "pitch": 29, "duration": 605, "velocity": 106}, {"time": 59520, "pitch": 32, "duration": 405, "velocity": 97}, {"time": 60000, "pitch": 36, "duration": 765, "velocity": 97}, {"time": 60840, "pitch": 53, "duration": 160, "velocity": 108}, {"time": 60960, "pitch": 52, "duration": 145, "velocity": 93}, {"time": 61080, "pitch": 48, "duration": 115, "velocity": 67}, {"time": 61200, "pitch": 43, "duration": 120, "velocity": 79}, {"time": 61320, "pitch": 41, "duration": 115, "velocity": 77}, {"time": 61440, "pitch": 40, "duration": 110, "velocity": 68}, {"time": 61560, "pitch": 38, "duration": 105, "velocity": 75}, {"time": 61680, "pitch": 36, "duration": 110, "velocity": 62}, {"time": 61800, "pitch": 36, "duration": 120, "velocity": 77}, {"time": 61920, "pitch": 36, "duration": 717, "velocity": 108}, {"time": 62640, "pitch": 48, "duration": 1201, "velocity": 109}, {"time": 63840, "pitch": 36, "duration": 701, "velocity": 108}, {"time": 64680, "pitch": 60, "duration": 160, "velocity": 108}, {"time": 64800, "pitch": 59, "duration": 145, "velocity": 93}, {"time": 64920, "pitch": 55, "duration": 115, "velocity": 67}, {"time": 65040, "pitch": 52, "duration": 120, "velocity": 79}, {"time": 65160, "pitch": 50, "duration": 115, "velocity": 77}, {"time": 65280, "pitch": 48, "duration": 110, "velocity": 68}, {"time": 65400, "pitch": 47, "duration": 105, "velocity": 75}, {"time": 65520, "pitch": 43, "duration": 110, "velocity": 62}, {"time": 65640, "pitch": 40, "duration": 120, "velocity": 77}, {"time": 65760, "pitch": 36, "duration": 717, "velocity": 108}, {"time": 66480, "pitch": 48, "duration": 1201, "velocity": 109}, {"time": 67680, "pitch": 36, "duration": 701, "velocity": 108}, {"time": 68400, "pitch": 48, "duration": 1185, "velocity": 108}, {"time": 69600, "pitch": 36, "duration": 500, "velocity": 95}, {"time": 70320, "pitch": 36, "duration": 470, "velocity": 96}, {"time": 70800, "pitch": 35, "duration": 220, "velocity": 90}, {"time": 71040, "pitch": 36, "duration": 230, "velocity": 95}, {"time": 71280, "pitch": 33, "duration": 220, "velocity": 90}, {"time": 71520, "pitch": 33, "duration": 230, "velocity": 98}, {"time": 71760, "pitch": 33, "duration": 250, "velocity": 95}, {"time": 72240, "pitch": 33, "duration": 470, "velocity": 96}, {"time": 72720, "pitch": 31, "duration": 220, "velocity": 90}, {"time": 72960, "pitch": 33, "duration": 230, "velocity": 95}, {"time": 73200, "pitch": 31, "duration": 220, "velocity": 90}, {"time": 73440, "pitch": 29, "duration": 500, "velocity": 95}, {"time": 74160, "pitch": 29, "duration": 470, "velocity": 96}, {"time": 74640, "pitch": 31, "duration": 220, "velocity": 90}, {"time": 74880, "pitch": 33, "duration": 230, "velocity": 95}, {"time": 75120, "pitch": 35, "duration": 220, "velocity": 90}, {"time": 75360, "pitch": 36, "duration": 230, "velocity": 98}, {"time": 75600, "pitch": 36, "duration": 250, "velocity": 95}, {"time": 76080, "pitch": 36, "duration": 470, "velocity": 96}, {"time": 76560, "pitch": 36, "duration": 220, "velocity": 90}, {"time": 76800, "pitch": 43, "duration": 230, "velocity": 95}, {"time": 77040, "pitch": 40, "duration": 220, "velocity": 90}, {"time": 77280, "pitch": 36, "duration": 500, "velocity": 95}, {"time": 78000, "pitch": 36, "duration": 470, "velocity": 96}, {"time": 78480, "pitch": 35, "duration": 220, "velocity": 90}, {"time": 78720, "pitch": 36, "duration": 230, "velocity": 95}, {"time": 78960, "pitch": 33, "duration": 220, "velocity": 90}, {"time": 79200, "pitch": 33, "duration": 230, "velocity": 98}, {"time": 79440, "pitch": 33, "duration": 250, "velocity": 95}, {"time": 79920, "pitch": 33, "duration": 470, "velocity": 96}, {"time": 80400, "pitch": 31, "duration": 220, "velocity": 90}, {"time": 80640, "pitch": 33, "duration": 230, "velocity": 95}, {"time": 80880, "pitch": 31, "duration": 220, "velocity": 90}, {"time": 81120, "pitch": 29, "duration": 500, "velocity": 95}, {"time": 81840, "pitch": 29, "duration": 470, "velocity": 96}, {"time": 82320, "pitch": 31, "duration": 220, "velocity": 90}, {"time": 82560, "pitch": 33, "duration": 230, "velocity": 95}, {"time": 82800, "pitch": 35, "duration": 220, "velocity": 90}, {"time": 83040, "pitch": 36, "duration": 230, "velocity": 98}, {"time": 83280, "pitch": 36, "duration": 250, "velocity": 95}, {"time": 83760, "pitch": 36, "duration": 470, "velocity": 96}, {"time": 84240, "pitch": 36, "duration": 220, "velocity": 90}, {"time": 84480, "pitch": 43, "duration": 230, "velocity": 95}, {"time": 84720, "pitch": 40, "duration": 220, "velocity": 90}, {"time": 84960, "pitch": 40, "duration": 350, "velocity": 95}, {"time": 85320, "pitch": 41, "duration": 110, "velocity": 90}, {"time": 85680, "pitch": 41, "duration": 470, "velocity": 96}, {"time": 86160, "pitch": 34, "duration": 210, "velocity": 90}, {"time": 86400, "pitch": 39, "duration": 220, "velocity": 94}, {"time": 86640, "pitch": 36, "duration": 210, "velocity": 90}, {"time": 86880, "pitch": 36, "duration": 350, "velocity": 95}, {"time": 87240, "pitch": 36, "duration": 110, "velocity": 90}, {"time": 87600, "pitch": 36, "duration": 470, "velocity": 96}, {"time": 88080, "pitch": 31, "duration": 210, "velocity": 90}, {"time": 88320, "pitch": 34, "duration": 220, "velocity": 94}, {"time": 88560, "pitch": 31, "duration": 210, "velocity": 90}, {"time": 88800, "pitch": 34, "duration": 500, "velocity": 95}, {"time": 89520, "pitch": 34, "duration": 470, "velocity": 96}, {"time": 90000, "pitch": 29, "duration": 220, "velocity": 90}, {"time": 90240, "pitch": 34, "duration": 230, "velocity": 95}, {"time": 90480, "pitch": 38, "duration": 220, "velocity": 90}, {"time": 90720, "pitch": 36, "duration": 230, "velocity": 98}, {"time": 90960, "pitch": 36, "duration": 250, "velocity": 95}, {"time": 91440, "pitch": 36, "duration": 470, "velocity": 96}, {"time": 91920, "pitch": 36, "duration": 220, "velocity": 90}, {"time": 92160, "pitch": 43, "duration": 230, "velocity": 95}, {"time": 92400, "pitch": 40, "duration": 220, "velocity": 90}, {"time": 92640, "pitch": 40, "duration": 350, "velocity": 95}, {"time": 93000, "pitch": 41, "duration": 110, "velocity": 90}, {"time": 93360, "pitch": 41, "duration": 470, "velocity": 96}, {"time": 93840, "pitch": 34, "duration": 210, "velocity": 90}, {"time": 94080, "pitch": 39, "duration": 220, "velocity": 94}, {"time": 94320, "pitch": 36, "duration": 210, "velocity": 90}, {"time": 94560, "pitch": 36, "duration": 350, "velocity": 95}, {"time": 94920, "pitch": 36, "duration": 110, "velocity": 90}, {"time": 95280, "pitch": 36, "duration": 470, "velocity": 96}, {"time": 95760, "pitch": 43, "duration": 210, "velocity": 90}, {"time": 96000, "pitch": 48, "duration": 220, "velocity": 94}, {"time": 96240, "pitch": 41, "duration": 210, "velocity": 90}, {"time": 96480, "pitch": 37, "duration": 500, "velocity": 95}, {"time": 97200, "pitch": 37, "duration": 470, "velocity": 96}, {"time": 97680, "pitch": 32, "duration": 220, "velocity": 90}, {"time": 97920, "pitch": 37, "duration": 230, "velocity": 95}, {"time": 98160, "pitch": 43, "duration": 220, "velocity": 90}, {"time": 98400, "pitch": 39, "duration": 230, "velocity": 98}, {"time": 98640, "pitch": 39, "duration": 250, "velocity": 95}, {"time": 99120, "pitch": 41, "duration": 470, "velocity": 96}, {"time": 99600, "pitch": 53, "duration": 220, "velocity": 90}, {"time": 99840, "pitch": 48, "duration": 230, "velocity": 95}, {"time": 100080, "pitch": 45, "duration": 220, "velocity": 90}, {"time": 100320, "pitch": 36, "duration": 480, "velocity": 104}, {"time": 100800, "pitch": 35, "duration": 216, "velocity": 117}, {"time": 101040, "pitch": 38, "duration": 100, "velocity": 112}, {"time": 101160, "pitch": 43, "duration": 95, "velocity": 108}, {"time": 101400, "pitch": 36, "duration": 110, "velocity": 79}, {"time": 101520, "pitch": 33, "duration": 576, "velocity": 108}, {"time": 102115, "pitch": 36, "duration": 84, "velocity": 90}, {"time": 102234, "pitch": 29, "duration": 506, "velocity": 104}, {"time": 102840, "pitch": 29, "duration": 55, "velocity": 104}, {"time": 102960, "pitch": 29, "duration": 240, "velocity": 108}, {"time": 103200, "pitch": 31, "duration": 500, "velocity": 104}, {"time": 103800, "pitch": 31, "duration": 55, "velocity": 104}, {"time": 103920, "pitch": 43, "duration": 215, "velocity": 104}, {"time": 104160, "pitch": 33, "duration": 480, "velocity": 104}, {"time": 104640, "pitch": 31, "duration": 216, "velocity": 117}, {"time": 104880, "pitch": 36, "duration": 100, "velocity": 112}, {"time": 105000, "pitch": 40, "duration": 95, "velocity": 108}, {"time": 105240, "pitch": 29, "duration": 115, "velocity": 95}, {"time": 105360, "pitch": 41, "duration": 565, "velocity": 117}, {"time": 105960, "pitch": 36, "duration": 100, "velocity": 93}, {"time": 106080, "pitch": 38, "duration": 500, "velocity": 104}, {"time": 106680, "pitch": 38, "duration": 55, "velocity": 104}, {"time": 106800, "pitch": 38, "duration": 240, "velocity": 108}, {"time": 107040, "pitch": 31, "duration": 500, "velocity": 104}, {"time": 107640, "pitch": 31, "duration": 55, "velocity": 104}, {"time": 107760, "pitch": 43, "duration": 215, "velocity": 104}, {"time": 108000, "pitch": 36, "duration": 480, "velocity": 104}, {"time": 108480, "pitch": 35, "duration": 216, "velocity": 117}, {"time": 108720, "pitch": 38, "duration": 100, "velocity": 112}, {"time": 108840, "pitch": 43, "duration": 95, "velocity": 108}, {"time": 109080, "pitch": 36, "duration": 110, "velocity": 79}, {"time": 109200, "pitch": 33, "duration": 580, "velocity": 108}, {"time": 109800, "pitch": 36, "duration": 85, "velocity": 90}, {"time": 109920, "pitch": 29, "duration": 750, "velocity": 97}, {"time": 110760, "pitch": 29, "duration": 140, "velocity": 97}, {"time": 111000, "pitch": 31, "duration": 55, "velocity": 92}, {"time": 111120, "pitch": 31, "duration": 220, "velocity": 93}, {"time": 111360, "pitch": 29, "duration": 220, "velocity": 92}, {"time": 111600, "pitch": 31, "duration": 200, "velocity": 102}, {"time": 111840, "pitch": 33, "duration": 480, "velocity": 104}, {"time": 112320, "pitch": 31, "duration": 216, "velocity": 117}, {"time": 112560, "pitch": 36, "duration": 100, "velocity": 112}, {"time": 112680, "pitch": 40, "duration": 95, "velocity": 108}, {"time": 112920, "pitch": 29, "duration": 115, "velocity": 95}, {"time": 113040, "pitch": 41, "duration": 565, "velocity": 117}, {"time": 113640, "pitch": 36, "duration": 100, "velocity": 93}, {"time": 113760, "pitch": 38, "duration": 500, "velocity": 104}, {"time": 114360, "pitch": 38, "duration": 55, "velocity": 104}, {"time": 114480, "pitch": 38, "duration": 240, "velocity": 108}, {"time": 114720, "pitch": 43, "duration": 120, "velocity": 102}, {"time": 114840, "pitch": 45, "duration": 110, "velocity": 112}, {"time": 114960, "pitch": 43, "duration": 105, "velocity": 97}, {"time": 115080, "pitch": 41, "duration": 120, "velocity": 77}, {"time": 115200, "pitch": 38, "duration": 105, "velocity": 95}, {"time": 115320, "pitch": 36, "duration": 115, "velocity": 95}, {"time": 115440, "pitch": 35, "duration": 120, "velocity": 99}, {"time": 115560, "pitch": 31, "duration": 100, "velocity": 92}, {"time": 115680, "pitch": 29, "duration": 525, "velocity": 102}, {"time": 116280, "pitch": 29, "duration": 55, "velocity": 104}, {"time": 116400, "pitch": 29, "duration": 605, "velocity": 106}, {"time": 117120, "pitch": 32, "duration": 405, "velocity": 97}, {"time": 117600, "pitch": 36, "duration": 765, "velocity": 97}, {"time": 118440, "pitch": 53, "duration": 160, "velocity": 108}, {"time": 118560, "pitch": 52, "duration": 145, "velocity": 93}, {"time": 118680, "pitch": 48, "duration": 115, "velocity": 67}, {"time": 118800, "pitch": 43, "duration": 120, "velocity": 79}, {"time": 118920, "pitch": 41, "duration": 115, "velocity": 77}, {"time": 119040, "pitch": 40, "duration": 110, "velocity": 68}, {"time": 119160, "pitch": 38, "duration": 105, "velocity": 75}, {"time": 119280, "pitch": 36, "duration": 110, "velocity": 62}, {"time": 119400, "pitch": 36, "duration": 120, "velocity": 77}, {"time": 119520, "pitch": 37, "duration": 480, "velocity": 104}, {"time": 120000, "pitch": 32, "duration": 216, "velocity": 117}, {"time": 120240, "pitch": 37, "duration": 100, "velocity": 112}, {"time": 120360, "pitch": 41, "duration": 95, "velocity": 108}, {"time": 120600, "pitch": 41, "duration": 110, "velocity": 79}, {"time": 120720, "pitch": 37, "duration": 580, "velocity": 108}, {"time": 121320, "pitch": 41, "duration": 85, "velocity": 90}, {"time": 121440, "pitch": 39, "duration": 750, "velocity": 97}, {"time": 122280, "pitch": 39, "duration": 140, "velocity": 97}, {"time": 122520, "pitch": 43, "duration": 55, "velocity": 92}, {"time": 122640, "pitch": 43, "duration": 220, "velocity": 93}, {"time": 122880, "pitch": 39, "duration": 220, "velocity": 92}, {"time": 123120, "pitch": 43, "duration": 200, "velocity": 102}, {"time": 123360, "pitch": 37, "duration": 480, "velocity": 104}, {"time": 123840, "pitch": 37, "duration": 216, "velocity": 117}, {"time": 124080, "pitch": 41, "duration": 100, "velocity": 112}, {"time": 124200, "pitch": 44, "duration": 95, "velocity": 108}, {"time": 124440, "pitch": 32, "duration": 115, "velocity": 95}, {"time": 124560, "pitch": 44, "duration": 565, "velocity": 117}, {"time": 125160, "pitch": 41, "duration": 100, "velocity": 93}, {"time": 125280, "pitch": 39, "duration": 500, "velocity": 104}, {"time": 125880, "pitch": 39, "duration": 55, "velocity": 104}, {"time": 126000, "pitch": 39, "duration": 240, "velocity": 108}, {"time": 126240, "pitch": 43, "duration": 120, "velocity": 102}, {"time": 126360, "pitch": 44, "duration": 110, "velocity": 112}, {"time": 126480, "pitch": 46, "duration": 105, "velocity": 97}, {"time": 126600, "pitch": 44, "duration": 120, "velocity": 77}, {"time": 126720, "pitch": 43, "duration": 105, "velocity": 95}, {"time": 126840, "pitch": 39, "duration": 115, "velocity": 95}, {"time": 126960, "pitch": 34, "duration": 120, "velocity": 99}, {"time": 127080, "pitch": 31, "duration": 100, "velocity": 92}, {"time": 127200, "pitch": 37, "duration": 480, "velocity": 104}, {"time": 127680, "pitch": 37, "duration": 216, "velocity": 117}, {"time": 127920, "pitch": 41, "duration": 100, "velocity": 112}, {"time": 128040, "pitch": 44, "duration": 95, "velocity": 108}, {"time": 128280, "pitch": 32, "duration": 115, "velocity": 95}, {"time": 128400, "pitch": 44, "duration": 565, "velocity": 117}, {"time": 129000, "pitch": 41, "duration": 100, "velocity": 93}, {"time": 129120, "pitch": 39, "duration": 500, "velocity": 104}, {"time": 129720, "pitch": 39, "duration": 55, "velocity": 104}, {"time": 129840, "pitch": 39, "duration": 240, "velocity": 108}, {"time": 130080, "pitch": 43, "duration": 120, "velocity": 102}, {"time": 130200, "pitch": 44, "duration": 110, "velocity": 112}, {"time": 130320, "pitch": 46, "duration": 105, "velocity": 97}, {"time": 130440, "pitch": 44, "duration": 120, "velocity": 77}, {"time": 130560, "pitch": 43, "duration": 105, "velocity": 95}, {"time": 130680, "pitch": 39, "duration": 115, "velocity": 95}, {"time": 130800, "pitch": 34, "duration": 120, "velocity": 99}, {"time": 130920, "pitch": 31, "duration": 100, "velocity": 92}, {"time": 131040, "pitch": 29, "duration": 525, "velocity": 102}, {"time": 131640, "pitch": 29, "duration": 55, "velocity": 104}, {"time": 131760, "pitch": 29, "duration": 605, "velocity": 106}, {"time": 132480, "pitch": 36, "duration": 405, "velocity": 97}, {"time": 132960, "pitch": 41, "duration": 765, "velocity": 97}, {"time": 133800, "pitch": 58, "duration": 160, "velocity": 108}, {"time": 133920, "pitch": 57, "duration": 145, "velocity": 93}, {"time": 134040, "pitch": 53, "duration": 115, "velocity": 67}, {"time": 134160, "pitch": 48, "duration": 120, "velocity": 79}, {"time": 134280, "pitch": 46, "duration": 115, "velocity": 77}, {"time": 134400, "pitch": 45, "duration": 110, "velocity": 68}, {"time": 134520, "pitch": 43, "duration": 105, "velocity": 75}, {"time": 134640, "pitch": 41, "duration": 110, "velocity": 62}, {"time": 134760, "pitch": 41, "duration": 120, "velocity": 77}, {"time": 134880, "pitch": 36, "duration": 480, "velocity": 104}, {"time": 135360, "pitch": 35, "duration": 475, "velocity": 127}, {"time": 135840, "pitch": 33, "duration": 480, "velocity": 127}, {"time": 136800, "pitch": 29, "duration": 500, "velocity": 104}, {"time": 137400, "pitch": 29, "duration": 55, "velocity": 104}, {"time": 137520, "pitch": 29, "duration": 240, "velocity": 108}, {"time": 137760, "pitch": 31, "duration": 500, "velocity": 104}, {"time": 138360, "pitch": 31, "duration": 55, "velocity": 104}, {"time": 138480, "pitch": 43, "duration": 215, "velocity": 104}, {"time": 138720, "pitch": 33, "duration": 480, "velocity": 104}, {"time": 139200, "pitch": 31, "duration": 216, "velocity": 117}, {"time": 139440, "pitch": 36, "duration": 100, "velocity": 112}, {"time": 139560, "pitch": 40, "duration": 95, "velocity": 108}, {"time": 139800, "pitch": 29, "duration": 115, "velocity": 95}, {"time": 139920, "pitch": 41, "duration": 565, "velocity": 117}, {"time": 140520, "pitch": 36, "duration": 100, "velocity": 93}, {"time": 140640, "pitch": 38, "duration": 500, "velocity": 104}, {"time": 141240, "pitch": 38, "duration": 55, "velocity": 104}, {"time": 141360, "pitch": 38, "duration": 240, "velocity": 108}, {"time": 141600, "pitch": 31, "duration": 500, "velocity": 104}, {"time": 142200, "pitch": 31, "duration": 55, "velocity": 104}, {"time": 142320, "pitch": 43, "duration": 215, "velocity": 104}, {"time": 142560, "pitch": 36, "duration": 480, "velocity": 104}, {"time": 143040, "pitch": 35, "duration": 216, "velocity": 117}, {"time": 143280, "pitch": 38, "duration": 100, "velocity": 112}, {"time": 143400, "pitch": 43, "duration": 95, "velocity": 108}, {"time": 143640, "pitch": 36, "duration": 110, "velocity": 79}, {"time": 143760, "pitch": 33, "duration": 580, "velocity": 108}, {"time": 144360, "pitch": 36, "duration": 85, "velocity": 90}, {"time": 144480, "pitch": 29, "duration": 750, "velocity": 97}, {"time": 145320, "pitch": 29, "duration": 140, "velocity": 97}, {"time": 145560, "pitch": 31, "duration": 55, "velocity": 92}, {"time": 145680, "pitch": 31, "duration": 220, "velocity": 93}, {"time": 145920, "pitch": 29, "duration": 220, "velocity": 92}, {"time": 146160, "pitch": 31, "duration": 200, "velocity": 102}, {"time": 146400, "pitch": 33, "duration": 480, "velocity": 104}, {"time": 146880, "pitch": 31, "duration": 216, "velocity": 117}, {"time": 147120, "pitch": 36, "duration": 100, "velocity": 112}, {"time": 147240, "pitch": 40, "duration": 95, "velocity": 108}, {"time": 147480, "pitch": 29, "duration": 115, "velocity": 95}, {"time": 147600, "pitch": 41, "duration": 565, "velocity": 117}, {"time": 148200, "pitch": 36, "duration": 100, "velocity": 93}, {"time": 148320, "pitch": 38, "duration": 500, "velocity": 104}, {"time": 148920, "pitch": 38, "duration": 55, "velocity": 104}, {"time": 149040, "pitch": 38, "duration": 240, "velocity": 108}, {"time": 149280, "pitch": 43, "duration": 120, "velocity": 102}, {"time": 149400, "pitch": 45, "duration": 110, "velocity": 112}, {"time": 149520, "pitch": 43, "duration": 105, "velocity": 97}, {"time": 149640, "pitch": 41, "duration": 120, "velocity": 77}, {"time": 149760, "pitch": 38, "duration": 105, "velocity": 95}, {"time": 149880, "pitch": 36, "duration": 115, "velocity": 95}, {"time": 150000, "pitch": 35, "duration": 120, "velocity": 99}, {"time": 150120, "pitch": 31, "duration": 100, "velocity": 92}, {"time": 150240, "pitch": 29, "duration": 525, "velocity": 102}, {"time": 150840, "pitch": 29, "duration": 55, "velocity": 104}, {"time": 150960, "pitch": 29, "duration": 605, "velocity": 106}, {"time": 151680, "pitch": 32, "duration": 405, "velocity": 97}, {"time": 152160, "pitch": 36, "duration": 765, "velocity": 97}, {"time": 153000, "pitch": 53, "duration": 160, "velocity": 108}, {"time": 153120, "pitch": 52, "duration": 145, "velocity": 93}, {"time": 153240, "pitch": 48, "duration": 115, "velocity": 67}, {"time": 153360, "pitch": 43, "duration": 120, "velocity": 79}, {"time": 153480, "pitch": 41, "duration": 115, "velocity": 77}, {"time": 153600, "pitch": 40, "duration": 110, "velocity": 68}, {"time": 153720, "pitch": 38, "duration": 105, "velocity": 75}, {"time": 153840, "pitch": 36, "duration": 110, "velocity": 62}, {"time": 153960, "pitch": 36, "duration": 120, "velocity": 77}, {"time": 154080, "pitch": 36, "duration": 717, "velocity": 108}, {"time": 154800, "pitch": 48, "duration": 1201, "velocity": 109}, {"time": 156000, "pitch": 36, "duration": 701, "velocity": 108}, {"time": 156840, "pitch": 60, "duration": 160, "velocity": 108}, {"time": 156960, "pitch": 59, "duration": 145, "velocity": 93}, {"time": 157080, "pitch": 55, "duration": 115, "velocity": 67}, {"time": 157200, "pitch": 52, "duration": 120, "velocity": 79}, {"time": 157320, "pitch": 50, "duration": 115, "velocity": 77}, {"time": 157440, "pitch": 48, "duration": 110, "velocity": 68}, {"time": 157560, "pitch": 47, "duration": 105, "velocity": 75}, {"time": 157680, "pitch": 43, "duration": 110, "velocity": 62}, {"time": 157800, "pitch": 40, "duration": 120, "velocity": 77}, {"time": 157920, "pitch": 36, "duration": 717, "velocity": 108}, {"time": 158640, "pitch": 48, "duration": 1201, "velocity": 109}, {"time": 159840, "pitch": 36, "duration": 356, "velocity": 115}, {"time": 160200, "pitch": 43, "duration": 357, "velocity": 115}, {"time": 160560, "pitch": 48, "duration": 1047, "velocity": 115}], "annotations": [{"time": 41295, "annotation": {"number": 10, "value": 64}, "group": "control_change"}, {"time": 41295, "annotation": {"number": 11, "value": 127}, "group": "control_change"}, {"time": 41300, "annotation": {"number": 93, "value": 20}, "group": "control_change"}, {"time": 41300, "annotation": {"number": 91, "value": 0}, "group": "control_change"}, {"time": 41760, "annotation": {"number": 101, "value": 0}, "group": "control_change"}, {"time": 41765, "annotation": {"number": 100, "value": 0}, "group": "control_change"}, {"time": 41770, "annotation": {"number": 6, "value": 12}, "group": "control_change"}, {"time": 41775, "annotation": {"number": 101, "value": 127}, "group": "control_change"}, {"time": 41780, "annotation": {"number": 100, "value": 127}, "group": "control_change"}, {"time": 42240, "annotation": {"number": 0, "value": 0}, "group": "control_change"}, {"time": 61920, "annotation": {"number": 11, "value": 127}, "group": "control_change"}, {"time": 69600, "annotation": {"number": 0, "value": 8}, "group": "control_change"}, {"time": 69600, "annotation": {"number": 11, "value": 110}, "group": "control_change"}, {"time": 69600, "annotation": {"number": 93, "value": 0}, "group": "control_change"}, {"time": 69600, "annotation": {"number": 91, "value": 15}, "group": "control_change"}, {"time": 84960, "annotation": {"number": 0, "value": 8}, "group": "control_change"}, {"time": 84960, "annotation": {"number": 91, "value": 15}, "group": "control_change"}, {"time": 84960, "annotation": {"number": 93, "value": 0}, "group": "control_change"}, {"time": 100320, "annotation": {"number": 0, "value": 0}, "group": "control_change"}, {"time": 100320, "annotation": {"number": 93, "value": 20}, "group": "control_change"}, {"time": 100320, "annotation": {"number": 91, "value": 0}, "group": "control_change"}, {"time": 134880, "annotation": {"number": 0, "value": 0}, "group": "control_change"}, {"time": 134880, "annotation": {"number": 91, "value": 0}, "group": "control_change"}, {"time": 134880, "annotation": {"number": 93, "value": 20}, "group": "control_change"}]}, {"program": 0, "is_drum": false, "name": "Organ", "annotations": [{"time": 264, "annotation": {"number": 0, "value": 0}, "group": "control_change"}, {"time": 288, "annotation": {"number": 32, "value": 2}, "group": "control_change"}]}, {"program": 17, "is_drum": false, "name": "Organ", "notes": [{"time": 4320, "pitch": 80, "duration": 60, "velocity": 50}, {"time": 4340, "pitch": 81, "duration": 3880, "velocity": 80}, {"time": 6480, "pitch": 86, "duration": 60, "velocity": 50}, {"time": 6500, "pitch": 88, "duration": 460, "velocity": 80}, {"time": 6960, "pitch": 86, "duration": 1240, "velocity": 80}, {"time": 8400, "pitch": 80, "duration": 60, "velocity": 50}, {"time": 8420, "pitch": 81, "duration": 5980, "velocity": 70}, {"time": 11520, "pitch": 78, "duration": 60, "velocity": 40}, {"time": 11540, "pitch": 79, "duration": 230, "velocity": 60}, {"time": 11760, "pitch": 77, "duration": 2640, "velocity": 70}, {"time": 14400, "pitch": 78, "duration": 60, "velocity": 40}, {"time": 14420, "pitch": 79, "duration": 230, "velocity": 60}, {"time": 14640, "pitch": 76, "duration": 1200, "velocity": 70}, {"time": 16080, "pitch": 80, "duration": 60, "velocity": 50}, {"time": 16100, "pitch": 81, "duration": 5980, "velocity": 70}, {"time": 19200, "pitch": 78, "duration": 60, "velocity": 40}, {"time": 19220, "pitch": 79, "duration": 230, "velocity": 60}, {"time": 19440, "pitch": 77, "duration": 2640, "velocity": 70}, {"time": 22080, "pitch": 78, "duration": 60, "velocity": 40}, {"time": 22100, "pitch": 79, "duration": 230, "velocity": 60}, {"time": 22320, "pitch": 84, "duration": 1200, "velocity": 70}, {"time": 69840, "pitch": 80, "duration": 60, "velocity": 50}, {"time": 69860, "pitch": 81, "duration": 5980, "velocity": 70}, {"time": 72960, "pitch": 78, "duration": 60, "velocity": 40}, {"time": 72980, "pitch": 79, "duration": 230, "velocity": 60}, {"time": 73200, "pitch": 77, "duration": 2640, "velocity": 70}, {"time": 75840, "pitch": 78, "duration": 60, "velocity": 40}, {"time": 75860, "pitch": 79, "duration": 230, "velocity": 60}, {"time": 76080, "pitch": 76, "duration": 1200, "velocity": 70}, {"time": 77520, "pitch": 80, "duration": 60, "velocity": 50}, {"time": 77540, "pitch": 81, "duration": 5980, "velocity": 70}, {"time": 80640, "pitch": 78, "duration": 60, "velocity": 40}, {"time": 80660, "pitch": 79, "duration": 230, "velocity": 60}, {"time": 80880, "pitch": 77, "duration": 2640, "velocity": 70}, {"time": 83520, "pitch": 78, "duration": 60, "velocity": 40}, {"time": 83540, "pitch": 79, "duration": 230, "velocity": 60}, {"time": 83760, "pitch": 84, "duration": 1200, "velocity": 70}, {"time": 85440, "pitch": 88, "duration": 120, "velocity": 80}, {"time": 85440, "pitch": 89, "duration": 480, "velocity": 101}, {"time": 85680, "pitch": 74, "duration": 480, "velocity": 93}, {"time": 85920, "pitch": 88, "duration": 480, "velocity": 101}, {"time": 86160, "pitch": 77, "duration": 480, "velocity": 66}, {"time": 86400, "pitch": 86, "duration": 480, "velocity": 72}, {"time": 86640, "pitch": 74, "duration": 240, "velocity": 80}, {"time": 86880, "pitch": 76, "duration": 1920, "velocity": 75}, {"time": 86880, "pitch": 88, "duration": 120, "velocity": 58}, {"time": 87000, "pitch": 86, "duration": 120, "velocity": 72}, {"time": 87120, "pitch": 84, "duration": 1680, "velocity": 77}, {"time": 89280, "pitch": 82, "duration": 600, "velocity": 83}, {"time": 89760, "pitch": 77, "duration": 480, "velocity": 72}, {"time": 89760, "pitch": 86, "duration": 480, "velocity": 97}, {"time": 90240, "pitch": 74, "duration": 480, "velocity": 90}, {"time": 90240, "pitch": 89, "duration": 600, "velocity": 97}, {"time": 90720, "pitch": 72, "duration": 1920, "velocity": 68}, {"time": 90720, "pitch": 91, "duration": 1920, "velocity": 83}, {"time": 93120, "pitch": 74, "duration": 480, "velocity": 93}, {"time": 93120, "pitch": 94, "duration": 480, "velocity": 66}, {"time": 93600, "pitch": 77, "duration": 480, "velocity": 86}, {"time": 93600, "pitch": 93, "duration": 480, "velocity": 75}, {"time": 94080, "pitch": 74, "duration": 480, "velocity": 80}, {"time": 94080, "pitch": 89, "duration": 480, "velocity": 77}, {"time": 94560, "pitch": 76, "duration": 1680, "velocity": 86}, {"time": 94560, "pitch": 91, "duration": 1920, "velocity": 83}, {"time": 96240, "pitch": 89, "duration": 120, "velocity": 90}, {"time": 96360, "pitch": 89, "duration": 120, "velocity": 80}, {"time": 96480, "pitch": 77, "duration": 1200, "velocity": 60}, {"time": 96480, "pitch": 85, "duration": 1200, "velocity": 80}, {"time": 97680, "pitch": 75, "duration": 480, "velocity": 72}, {"time": 97680, "pitch": 87, "duration": 480, "velocity": 83}, {"time": 98160, "pitch": 73, "duration": 240, "velocity": 76}, {"time": 98160, "pitch": 89, "duration": 240, "velocity": 93}, {"time": 98400, "pitch": 75, "duration": 720, "velocity": 83}, {"time": 98400, "pitch": 91, "duration": 720, "velocity": 86}, {"time": 99120, "pitch": 72, "duration": 1200, "velocity": 90}, {"time": 99120, "pitch": 93, "duration": 1200, "velocity": 77}, {"time": 100320, "pitch": 72, "duration": 390, "velocity": 79}, {"time": 100320, "pitch": 76, "duration": 390, "velocity": 86}, {"time": 100320, "pitch": 79, "duration": 379, "velocity": 62}, {"time": 100800, "pitch": 71, "duration": 359, "velocity": 79}, {"time": 100800, "pitch": 74, "duration": 345, "velocity": 97}, {"time": 100800, "pitch": 79, "duration": 346, "velocity": 66}, {"time": 101280, "pitch": 69, "duration": 961, "velocity": 83}, {"time": 101280, "pitch": 72, "duration": 954, "velocity": 86}, {"time": 101280, "pitch": 76, "duration": 970, "velocity": 83}, {"time": 104160, "pitch": 69, "duration": 389, "velocity": 77}, {"time": 104160, "pitch": 72, "duration": 398, "velocity": 91}, {"time": 104160, "pitch": 76, "duration": 398, "velocity": 79}, {"time": 104640, "pitch": 67, "duration": 358, "velocity": 71}, {"time": 104640, "pitch": 72, "duration": 348, "velocity": 101}, {"time": 104640, "pitch": 76, "duration": 352, "velocity": 91}, {"time": 105120, "pitch": 69, "duration": 974, "velocity": 77}, {"time": 105120, "pitch": 72, "duration": 976, "velocity": 94}, {"time": 105120, "pitch": 77, "duration": 981, "velocity": 86}, {"time": 108000, "pitch": 72, "duration": 317, "velocity": 86}, {"time": 108000, "pitch": 76, "duration": 386, "velocity": 94}, {"time": 108000, "pitch": 79, "duration": 376, "velocity": 88}, {"time": 108480, "pitch": 71, "duration": 343, "velocity": 94}, {"time": 108480, "pitch": 76, "duration": 311, "velocity": 77}, {"time": 108480, "pitch": 79, "duration": 368, "velocity": 97}, {"time": 108960, "pitch": 69, "duration": 927, "velocity": 77}, {"time": 108960, "pitch": 72, "duration": 920, "velocity": 104}, {"time": 108960, "pitch": 76, "duration": 921, "velocity": 86}, {"time": 111840, "pitch": 69, "duration": 371, "velocity": 71}, {"time": 111840, "pitch": 72, "duration": 374, "velocity": 91}, {"time": 111840, "pitch": 76, "duration": 373, "velocity": 86}, {"time": 112320, "pitch": 67, "duration": 350, "velocity": 91}, {"time": 112320, "pitch": 72, "duration": 363, "velocity": 77}, {"time": 112320, "pitch": 76, "duration": 354, "velocity": 88}, {"time": 112800, "pitch": 69, "duration": 968, "velocity": 83}, {"time": 112800, "pitch": 72, "duration": 952, "velocity": 104}, {"time": 112800, "pitch": 77, "duration": 965, "velocity": 88}, {"time": 115680, "pitch": 65, "duration": 1763, "velocity": 71}, {"time": 115680, "pitch": 68, "duration": 1774, "velocity": 87}, {"time": 115680, "pitch": 72, "duration": 1744, "velocity": 91}, {"time": 117600, "pitch": 64, "duration": 1921, "velocity": 71}, {"time": 117600, "pitch": 67, "duration": 1914, "velocity": 79}, {"time": 117600, "pitch": 72, "duration": 1912, "velocity": 91}, {"time": 119520, "pitch": 61, "duration": 1950, "velocity": 91}, {"time": 120000, "pitch": 73, "duration": 245, "velocity": 91}, {"time": 120240, "pitch": 77, "duration": 114, "velocity": 113}, {"time": 120360, "pitch": 77, "duration": 1108, "velocity": 101}, {"time": 120360, "pitch": 80, "duration": 1096, "velocity": 95}, {"time": 121440, "pitch": 63, "duration": 1957, "velocity": 73}, {"time": 122280, "pitch": 80, "duration": 129, "velocity": 76}, {"time": 122400, "pitch": 79, "duration": 172, "velocity": 86}, {"time": 122520, "pitch": 75, "duration": 852, "velocity": 73}, {"time": 122640, "pitch": 70, "duration": 730, "velocity": 91}, {"time": 123360, "pitch": 61, "duration": 1936, "velocity": 76}, {"time": 123840, "pitch": 73, "duration": 1490, "velocity": 80}, {"time": 124080, "pitch": 80, "duration": 120, "velocity": 61}, {"time": 124200, "pitch": 77, "duration": 1078, "velocity": 108}, {"time": 125280, "pitch": 63, "duration": 1936, "velocity": 80}, {"time": 125760, "pitch": 75, "duration": 286, "velocity": 76}, {"time": 125760, "pitch": 82, "duration": 243, "velocity": 76}, {"time": 126000, "pitch": 79, "duration": 149, "velocity": 71}, {"time": 126120, "pitch": 75, "duration": 211, "velocity": 76}, {"time": 126240, "pitch": 82, "duration": 222, "velocity": 76}, {"time": 126360, "pitch": 79, "duration": 133, "velocity": 94}, {"time": 126480, "pitch": 75, "duration": 720, "velocity": 73}, {"time": 127200, "pitch": 61, "duration": 1936, "velocity": 76}, {"time": 127680, "pitch": 73, "duration": 1490, "velocity": 80}, {"time": 127920, "pitch": 80, "duration": 120, "velocity": 61}, {"time": 128040, "pitch": 77, "duration": 1078, "velocity": 108}, {"time": 129120, "pitch": 63, "duration": 1936, "velocity": 80}, {"time": 129600, "pitch": 75, "duration": 286, "velocity": 76}, {"time": 129600, "pitch": 82, "duration": 243, "velocity": 76}, {"time": 129840, "pitch": 79, "duration": 149, "velocity": 71}, {"time": 129960, "pitch": 75, "duration": 211, "velocity": 76}, {"time": 130080, "pitch": 82, "duration": 222, "velocity": 76}, {"time": 130200, "pitch": 79, "duration": 133, "velocity": 94}, {"time": 130320, "pitch": 75, "duration": 720, "velocity": 73}, {"time": 131053, "pitch": 77, "duration": 3810, "velocity": 97}, {"time": 131055, "pitch": 81, "duration": 3811, "velocity": 94}, {"time": 131058, "pitch": 65, "duration": 3809, "velocity": 75}, {"time": 132600, "pitch": 88, "duration": 48, "velocity": 68}, {"time": 132600, "pitch": 89, "duration": 272, "velocity": 108}, {"time": 132939, "pitch": 88, "duration": 44, "velocity": 88}, {"time": 132960, "pitch": 89, "duration": 1928, "velocity": 117}, {"time": 134880, "pitch": 72, "duration": 390, "velocity": 79}, {"time": 134880, "pitch": 76, "duration": 390, "velocity": 86}, {"time": 134880, "pitch": 79, "duration": 379, "velocity": 62}, {"time": 135360, "pitch": 71, "duration": 359, "velocity": 79}, {"time": 135360, "pitch": 74, "duration": 345, "velocity": 97}, {"time": 135360, "pitch": 79, "duration": 346, "velocity": 66}, {"time": 135840, "pitch": 69, "duration": 480, "velocity": 83}, {"time": 135840, "pitch": 72, "duration": 480, "velocity": 86}, {"time": 135840, "pitch": 76, "duration": 480, "velocity": 83}, {"time": 138720, "pitch": 69, "duration": 389, "velocity": 77}, {"time": 138720, "pitch": 72, "duration": 398, "velocity": 91}, {"time": 138720, "pitch": 76, "duration": 398, "velocity": 79}, {"time": 139200, "pitch": 67, "duration": 358, "velocity": 71}, {"time": 139200, "pitch": 72, "duration": 348, "velocity": 101}, {"time": 139200, "pitch": 76, "duration": 352, "velocity": 91}, {"time": 139680, "pitch": 69, "duration": 974, "velocity": 77}, {"time": 139680, "pitch": 72, "duration": 976, "velocity": 94}, {"time": 139680, "pitch": 77, "duration": 981, "velocity": 86}, {"time": 142560, "pitch": 72, "duration": 317, "velocity": 86}, {"time": 142560, "pitch": 76, "duration": 386, "velocity": 94}, {"time": 142560, "pitch": 79, "duration": 376, "velocity": 88}, {"time": 143040, "pitch": 71, "duration": 343, "velocity": 94}, {"time": 143040, "pitch": 76, "duration": 311, "velocity": 77}, {"time": 143040, "pitch": 79, "duration": 368, "velocity": 97}, {"time": 143520, "pitch": 69, "duration": 927, "velocity": 77}, {"time": 143520, "pitch": 72, "duration": 920, "velocity": 104}, {"time": 143520, "pitch": 76, "duration": 921, "velocity": 86}, {"time": 146400, "pitch": 69, "duration": 371, "velocity": 71}, {"time": 146400, "pitch": 72, "duration": 374, "velocity": 91}, {"time": 146400, "pitch": 76, "duration": 373, "velocity": 86}, {"time": 146880, "pitch": 67, "duration": 350, "velocity": 91}, {"time": 146880, "pitch": 72, "duration": 363, "velocity": 77}, {"time": 146880, "pitch": 76, "duration": 354, "velocity": 88}, {"time": 147360, "pitch": 69, "duration": 968, "velocity": 83}, {"time": 147360, "pitch": 72, "duration": 952, "velocity": 104}, {"time": 147360, "pitch": 77, "duration": 965, "velocity": 88}, {"time": 150240, "pitch": 65, "duration": 1763, "velocity": 71}, {"time": 150240, "pitch": 68, "duration": 1774, "velocity": 87}, {"time": 150240, "pitch": 72, "duration": 1744, "velocity": 91}, {"time": 152160, "pitch": 64, "duration": 1921, "velocity": 71}, {"time": 152160, "pitch": 67, "duration": 1914, "velocity": 79}, {"time": 152160, "pitch": 72, "duration": 1912, "velocity": 91}], "annotations": [{"time": 336, "annotation": {"number": 7, "value": 70}, "group": "control_change"}, {"time": 360, "annotation": {"number": 11, "value": 127}, "group": "control_change"}, {"time": 384, "annotation": {"number": 10, "value": 78}, "group": "control_change"}, {"time": 408, "annotation": {"number": 91, "value": 40}, "group": "control_change"}, {"time": 432, "annotation": {"number": 93, "value": 0}, "group": "control_change"}, {"time": 456, "annotation": {"number": 101, "value": 0}, "group": "control_change"}, {"time": 480, "annotation": {"number": 100, "value": 0}, "group": "control_change"}, {"time": 480, "annotation": {"number": 6, "value": 2}, "group": "control_change"}, {"time": 480, "annotation": {"number": 101, "value": 127}, "group": "control_change"}, {"time": 480, "annotation": {"number": 100, "value": 127}, "group": "control_change"}, {"time": 6280, "annotation": {"number": 11, "value": 126}, "group": "control_change"}, {"time": 6320, "annotation": {"number": 11, "value": 124}, "group": "control_change"}, {"time": 6360, "annotation": {"number": 11, "value": 122}, "group": "control_change"}, {"time": 6400, "annotation": {"number": 11, "value": 120}, "group": "control_change"}, {"time": 6440, "annotation": {"number": 11, "value": 118}, "group": "control_change"}, {"time": 6475, "annotation": {"number": 11, "value": 117}, "group": "control_change"}, {"time": 6520, "annotation": {"number": 11, "value": 115}, "group": "control_change"}, {"time": 6560, "annotation": {"number": 11, "value": 113}, "group": "control_change"}, {"time": 6600, "annotation": {"number": 11, "value": 111}, "group": "control_change"}, {"time": 6640, "annotation": {"number": 11, "value": 109}, "group": "control_change"}, {"time": 6680, "annotation": {"number": 11, "value": 108}, "group": "control_change"}, {"time": 6720, "annotation": {"number": 11, "value": 106}, "group": "control_change"}, {"time": 6760, "annotation": {"number": 11, "value": 104}, "group": "control_change"}, {"time": 6800, "annotation": {"number": 11, "value": 102}, "group": "control_change"}, {"time": 6840, "annotation": {"number": 11, "value": 100}, "group": "control_change"}, {"time": 6880, "annotation": {"number": 11, "value": 98}, "group": "control_change"}, {"time": 6920, "annotation": {"number": 11, "value": 97}, "group": "control_change"}, {"time": 6955, "annotation": {"number": 11, "value": 95}, "group": "control_change"}, {"time": 7000, "annotation": {"number": 11, "value": 93}, "group": "control_change"}, {"time": 7040, "annotation": {"number": 11, "value": 91}, "group": "control_change"}, {"time": 7080, "annotation": {"number": 11, "value": 89}, "group": "control_change"}, {"time": 7120, "annotation": {"number": 11, "value": 88}, "group": "control_change"}, {"time": 7160, "annotation": {"number": 11, "value": 86}, "group": "control_change"}, {"time": 7200, "annotation": {"number": 11, "value": 84}, "group": "control_change"}, {"time": 7240, "annotation": {"number": 11, "value": 82}, "group": "control_change"}, {"time": 7280, "annotation": {"number": 11, "value": 80}, "group": "control_change"}, {"time": 7320, "annotation": {"number": 11, "value": 79}, "group": "control_change"}, {"time": 7360, "annotation": {"number": 11, "value": 77}, "group": "control_change"}, {"time": 7400, "annotation": {"number": 11, "value": 75}, "group": "control_change"}, {"time": 7440, "annotation": {"number": 11, "value": 73}, "group": "control_change"}, {"time": 7480, "annotation": {"number": 11, "value": 71}, "group": "control_change"}, {"time": 7520, "annotation": {"number": 11, "value": 69}, "group": "control_change"}, {"time": 7560, "annotation": {"number": 11, "value": 68}, "group": "control_change"}, {"time": 7600, "annotation": {"number": 11, "value": 66}, "group": "control_change"}, {"time": 7640, "annotation": {"number": 11, "value": 64}, "group": "control_change"}, {"time": 7680, "annotation": {"number": 11, "value": 62}, "group": "control_change"}, {"time": 7720, "annotation": {"number": 11, "value": 60}, "group": "control_change"}, {"time": 7760, "annotation": {"number": 11, "value": 59}, "group": "control_change"}, {"time": 7800, "annotation": {"number": 11, "value": 57}, "group": "control_change"}, {"time": 7840, "annotation": {"number": 11, "value": 55}, "group": "control_change"}, {"time": 7880, "annotation": {"number": 11, "value": 53}, "group": "control_change"}, {"time": 7920, "annotation": {"number": 11, "value": 51}, "group": "control_change"}, {"time": 7960, "annotation": {"number": 11, "value": 50}, "group": "control_change"}, {"time": 8000, "annotation": {"number": 11, "value": 48}, "group": "control_change"}, {"time": 8040, "annotation": {"number": 11, "value": 46}, "group": "control_change"}, {"time": 8080, "annotation": {"number": 11, "value": 44}, "group": "control_change"}, {"time": 8120, "annotation": {"number": 11, "value": 42}, "group": "control_change"}, {"time": 8160, "annotation": {"number": 11, "value": 40}, "group": "control_change"}, {"time": 8395, "annotation": {"number": 11, "value": 60}, "group": "control_change"}, {"time": 8446, "annotation": {"number": 11, "value": 61}, "group": "control_change"}, {"time": 8493, "annotation": {"number": 11, "value": 62}, "group": "control_change"}, {"time": 8539, "annotation": {"number": 11, "value": 63}, "group": "control_change"}, {"time": 8586, "annotation": {"number": 11, "value": 64}, "group": "control_change"}, {"time": 8632, "annotation": {"number": 11, "value": 65}, "group": "control_change"}, {"time": 8679, "annotation": {"number": 11, "value": 66}, "group": "control_change"}, {"time": 8725, "annotation": {"number": 11, "value": 67}, "group": "control_change"}, {"time": 8772, "annotation": {"number": 11, "value": 68}, "group": "control_change"}, {"time": 8819, "annotation": {"number": 11, "value": 69}, "group": "control_change"}, {"time": 8865, "annotation": {"number": 11, "value": 70}, "group": "control_change"}, {"time": 8912, "annotation": {"number": 11, "value": 71}, "group": "control_change"}, {"time": 8958, "annotation": {"number": 11, "value": 72}, "group": "control_change"}, {"time": 9005, "annotation": {"number": 11, "value": 73}, "group": "control_change"}, {"time": 9051, "annotation": {"number": 11, "value": 74}, "group": "control_change"}, {"time": 9098, "annotation": {"number": 11, "value": 75}, "group": "control_change"}, {"time": 9145, "annotation": {"number": 11, "value": 76}, "group": "control_change"}, {"time": 9191, "annotation": {"number": 11, "value": 77}, "group": "control_change"}, {"time": 9238, "annotation": {"number": 11, "value": 78}, "group": "control_change"}, {"time": 9284, "annotation": {"number": 11, "value": 79}, "group": "control_change"}, {"time": 9331, "annotation": {"number": 11, "value": 80}, "group": "control_change"}, {"time": 9377, "annotation": {"number": 11, "value": 81}, "group": "control_change"}, {"time": 9424, "annotation": {"number": 11, "value": 82}, "group": "control_change"}, {"time": 9471, "annotation": {"number": 11, "value": 83}, "group": "control_change"}, {"time": 9517, "annotation": {"number": 11, "value": 84}, "group": "control_change"}, {"time": 9564, "annotation": {"number": 11, "value": 85}, "group": "control_change"}, {"time": 9610, "annotation": {"number": 11, "value": 86}, "group": "control_change"}, {"time": 9657, "annotation": {"number": 11, "value": 87}, "group": "control_change"}, {"time": 9703, "annotation": {"number": 11, "value": 88}, "group": "control_change"}, {"time": 9750, "annotation": {"number": 11, "value": 89}, "group": "control_change"}, {"time": 9797, "annotation": {"number": 11, "value": 90}, "group": "control_change"}, {"time": 9843, "annotation": {"number": 11, "value": 91}, "group": "control_change"}, {"time": 9890, "annotation": {"number": 11, "value": 92}, "group": "control_change"}, {"time": 9936, "annotation": {"number": 11, "value": 93}, "group": "control_change"}, {"time": 9983, "annotation": {"number": 11, "value": 94}, "group": "control_change"}, {"time": 10029, "annotation": {"number": 11, "value": 95}, "group": "control_change"}, {"time": 10076, "annotation": {"number": 11, "value": 96}, "group": "control_change"}, {"time": 10122, "annotation": {"number": 11, "value": 97}, "group": "control_change"}, {"time": 10169, "annotation": {"number": 11, "value": 98}, "group": "control_change"}, {"time": 10216, "annotation": {"number": 11, "value": 99}, "group": "control_change"}, {"time": 10262, "annotation": {"number": 11, "value": 100}, "group": "control_change"}, {"time": 10309, "annotation": {"number": 11, "value": 101}, "group": "control_change"}, {"time": 10355, "annotation": {"number": 11, "value": 102}, "group": "control_change"}, {"time": 10402, "annotation": {"number": 11, "value": 103}, "group": "control_change"}, {"time": 10448, "annotation": {"number": 11, "value": 104}, "group": "control_change"}, {"time": 10495, "annotation": {"number": 11, "value": 105}, "group": "control_change"}, {"time": 10542, "annotation": {"number": 11, "value": 106}, "group": "control_change"}, {"time": 10588, "annotation": {"number": 11, "value": 107}, "group": "control_change"}, {"time": 10635, "annotation": {"number": 11, "value": 108}, "group": "control_change"}, {"time": 10681, "annotation": {"number": 11, "value": 109}, "group": "control_change"}, {"time": 10728, "annotation": {"number": 11, "value": 110}, "group": "control_change"}, {"time": 10774, "annotation": {"number": 11, "value": 111}, "group": "control_change"}, {"time": 10821, "annotation": {"number": 11, "value": 112}, "group": "control_change"}, {"time": 10868, "annotation": {"number": 11, "value": 113}, "group": "control_change"}, {"time": 10914, "annotation": {"number": 11, "value": 114}, "group": "control_change"}, {"time": 10961, "annotation": {"number": 11, "value": 115}, "group": "control_change"}, {"time": 11007, "annotation": {"number": 11, "value": 116}, "group": "control_change"}, {"time": 11054, "annotation": {"number": 11, "value": 117}, "group": "control_change"}, {"time": 11100, "annotation": {"number": 11, "value": 118}, "group": "control_change"}, {"time": 11147, "annotation": {"number": 11, "value": 119}, "group": "control_change"}, {"time": 11194, "annotation": {"number": 11, "value": 120}, "group": "control_change"}, {"time": 11240, "annotation": {"number": 11, "value": 121}, "group": "control_change"}, {"time": 11287, "annotation": {"number": 11, "value": 122}, "group": "control_change"}, {"time": 11333, "annotation": {"number": 11, "value": 123}, "group": "control_change"}, {"time": 11380, "annotation": {"number": 11, "value": 124}, "group": "control_change"}, {"time": 11426, "annotation": {"number": 11, "value": 125}, "group": "control_change"}, {"time": 11473, "annotation": {"number": 11, "value": 126}, "group": "control_change"}, {"time": 11515, "annotation": {"number": 11, "value": 127}, "group": "control_change"}, {"time": 12533, "annotation": {"number": 11, "value": 126}, "group": "control_change"}, {"time": 12586, "annotation": {"number": 11, "value": 125}, "group": "control_change"}, {"time": 12640, "annotation": {"number": 11, "value": 124}, "group": "control_change"}, {"time": 12693, "annotation": {"number": 11, "value": 123}, "group": "control_change"}, {"time": 12746, "annotation": {"number": 11, "value": 122}, "group": "control_change"}, {"time": 12800, "annotation": {"number": 11, "value": 121}, "group": "control_change"}, {"time": 12853, "annotation": {"number": 11, "value": 120}, "group": "control_change"}, {"time": 12906, "annotation": {"number": 11, "value": 119}, "group": "control_change"}, {"time": 12960, "annotation": {"number": 11, "value": 118}, "group": "control_change"}, {"time": 13013, "annotation": {"number": 11, "value": 117}, "group": "control_change"}, {"time": 13066, "annotation": {"number": 11, "value": 116}, "group": "control_change"}, {"time": 13120, "annotation": {"number": 11, "value": 115}, "group": "control_change"}, {"time": 13173, "annotation": {"number": 11, "value": 114}, "group": "control_change"}, {"time": 13226, "annotation": {"number": 11, "value": 113}, "group": "control_change"}, {"time": 13280, "annotation": {"number": 11, "value": 112}, "group": "control_change"}, {"time": 13333, "annotation": {"number": 11, "value": 111}, "group": "control_change"}, {"time": 13386, "annotation": {"number": 11, "value": 110}, "group": "control_change"}, {"time": 13440, "annotation": {"number": 11, "value": 109}, "group": "control_change"}, {"time": 13493, "annotation": {"number": 11, "value": 108}, "group": "control_change"}, {"time": 13546, "annotation": {"number": 11, "value": 107}, "group": "control_change"}, {"time": 13600, "annotation": {"number": 11, "value": 106}, "group": "control_change"}, {"time": 13653, "annotation": {"number": 11, "value": 105}, "group": "control_change"}, {"time": 13706, "annotation": {"number": 11, "value": 104}, "group": "control_change"}, {"time": 13760, "annotation": {"number": 11, "value": 103}, "group": "control_change"}, {"time": 13813, "annotation": {"number": 11, "value": 102}, "group": "control_change"}, {"time": 13866, "annotation": {"number": 11, "value": 101}, "group": "control_change"}, {"time": 14400, "annotation": {"number": 11, "value": 127}, "group": "control_change"}, {"time": 15840, "annotation": {"number": 11, "value": 40}, "group": "control_change"}, {"time": 16075, "annotation": {"number": 11, "value": 60}, "group": "control_change"}, {"time": 16126, "annotation": {"number": 11, "value": 61}, "group": "control_change"}, {"time": 16173, "annotation": {"number": 11, "value": 62}, "group": "control_change"}, {"time": 16219, "annotation": {"number": 11, "value": 63}, "group": "control_change"}, {"time": 16266, "annotation": {"number": 11, "value": 64}, "group": "control_change"}, {"time": 16312, "annotation": {"number": 11, "value": 65}, "group": "control_change"}, {"time": 16359, "annotation": {"number": 11, "value": 66}, "group": "control_change"}, {"time": 16405, "annotation": {"number": 11, "value": 67}, "group": "control_change"}, {"time": 16452, "annotation": {"number": 11, "value": 68}, "group": "control_change"}, {"time": 16499, "annotation": {"number": 11, "value": 69}, "group": "control_change"}, {"time": 16545, "annotation": {"number": 11, "value": 70}, "group": "control_change"}, {"time": 16592, "annotation": {"number": 11, "value": 71}, "group": "control_change"}, {"time": 16638, "annotation": {"number": 11, "value": 72}, "group": "control_change"}, {"time": 16685, "annotation": {"number": 11, "value": 73}, "group": "control_change"}, {"time": 16731, "annotation": {"number": 11, "value": 74}, "group": "control_change"}, {"time": 16778, "annotation": {"number": 11, "value": 75}, "group": "control_change"}, {"time": 16825, "annotation": {"number": 11, "value": 76}, "group": "control_change"}, {"time": 16871, "annotation": {"number": 11, "value": 77}, "group": "control_change"}, {"time": 16918, "annotation": {"number": 11, "value": 78}, "group": "control_change"}, {"time": 16964, "annotation": {"number": 11, "value": 79}, "group": "control_change"}, {"time": 17011, "annotation": {"number": 11, "value": 80}, "group": "control_change"}, {"time": 17057, "annotation": {"number": 11, "value": 81}, "group": "control_change"}, {"time": 17104, "annotation": {"number": 11, "value": 82}, "group": "control_change"}, {"time": 17151, "annotation": {"number": 11, "value": 83}, "group": "control_change"}, {"time": 17197, "annotation": {"number": 11, "value": 84}, "group": "control_change"}, {"time": 17244, "annotation": {"number": 11, "value": 85}, "group": "control_change"}, {"time": 17290, "annotation": {"number": 11, "value": 86}, "group": "control_change"}, {"time": 17337, "annotation": {"number": 11, "value": 87}, "group": "control_change"}, {"time": 17383, "annotation": {"number": 11, "value": 88}, "group": "control_change"}, {"time": 17430, "annotation": {"number": 11, "value": 89}, "group": "control_change"}, {"time": 17477, "annotation": {"number": 11, "value": 90}, "group": "control_change"}, {"time": 17523, "annotation": {"number": 11, "value": 91}, "group": "control_change"}, {"time": 17570, "annotation": {"number": 11, "value": 92}, "group": "control_change"}, {"time": 17616, "annotation": {"number": 11, "value": 93}, "group": "control_change"}, {"time": 17663, "annotation": {"number": 11, "value": 94}, "group": "control_change"}, {"time": 17709, "annotation": {"number": 11, "value": 95}, "group": "control_change"}, {"time": 17756, "annotation": {"number": 11, "value": 96}, "group": "control_change"}, {"time": 17802, "annotation": {"number": 11, "value": 97}, "group": "control_change"}, {"time": 17849, "annotation": {"number": 11, "value": 98}, "group": "control_change"}, {"time": 17896, "annotation": {"number": 11, "value": 99}, "group": "control_change"}, {"time": 17942, "annotation": {"number": 11, "value": 100}, "group": "control_change"}, {"time": 17989, "annotation": {"number": 11, "value": 101}, "group": "control_change"}, {"time": 18035, "annotation": {"number": 11, "value": 102}, "group": "control_change"}, {"time": 18082, "annotation": {"number": 11, "value": 103}, "group": "control_change"}, {"time": 18128, "annotation": {"number": 11, "value": 104}, "group": "control_change"}, {"time": 18175, "annotation": {"number": 11, "value": 105}, "group": "control_change"}, {"time": 18222, "annotation": {"number": 11, "value": 106}, "group": "control_change"}, {"time": 18268, "annotation": {"number": 11, "value": 107}, "group": "control_change"}, {"time": 18315, "annotation": {"number": 11, "value": 108}, "group": "control_change"}, {"time": 18361, "annotation": {"number": 11, "value": 109}, "group": "control_change"}, {"time": 18408, "annotation": {"number": 11, "value": 110}, "group": "control_change"}, {"time": 18454, "annotation": {"number": 11, "value": 111}, "group": "control_change"}, {"time": 18501, "annotation": {"number": 11, "value": 112}, "group": "control_change"}, {"time": 18548, "annotation": {"number": 11, "value": 113}, "group": "control_change"}, {"time": 18594, "annotation": {"number": 11, "value": 114}, "group": "control_change"}, {"time": 18641, "annotation": {"number": 11, "value": 115}, "group": "control_change"}, {"time": 18687, "annotation": {"number": 11, "value": 116}, "group": "control_change"}, {"time": 18734, "annotation": {"number": 11, "value": 117}, "group": "control_change"}, {"time": 18780, "annotation": {"number": 11, "value": 118}, "group": "control_change"}, {"time": 18827, "annotation": {"number": 11, "value": 119}, "group": "control_change"}, {"time": 18874, "annotation": {"number": 11, "value": 120}, "group": "control_change"}, {"time": 18920, "annotation": {"number": 11, "value": 121}, "group": "control_change"}, {"time": 18967, "annotation": {"number": 11, "value": 122}, "group": "control_change"}, {"time": 19013, "annotation": {"number": 11, "value": 123}, "group": "control_change"}, {"time": 19060, "annotation": {"number": 11, "value": 124}, "group": "control_change"}, {"time": 19106, "annotation": {"number": 11, "value": 125}, "group": "control_change"}, {"time": 19153, "annotation": {"number": 11, "value": 126}, "group": "control_change"}, {"time": 19195, "annotation": {"number": 11, "value": 127}, "group": "control_change"}, {"time": 20213, "annotation": {"number": 11, "value": 126}, "group": "control_change"}, {"time": 20266, "annotation": {"number": 11, "value": 125}, "group": "control_change"}, {"time": 20320, "annotation": {"number": 11, "value": 124}, "group": "control_change"}, {"time": 20373, "annotation": {"number": 11, "value": 123}, "group": "control_change"}, {"time": 20426, "annotation": {"number": 11, "value": 122}, "group": "control_change"}, {"time": 20480, "annotation": {"number": 11, "value": 121}, "group": "control_change"}, {"time": 20533, "annotation": {"number": 11, "value": 120}, "group": "control_change"}, {"time": 20586, "annotation": {"number": 11, "value": 119}, "group": "control_change"}, {"time": 20640, "annotation": {"number": 11, "value": 118}, "group": "control_change"}, {"time": 20693, "annotation": {"number": 11, "value": 117}, "group": "control_change"}, {"time": 20746, "annotation": {"number": 11, "value": 116}, "group": "control_change"}, {"time": 20800, "annotation": {"number": 11, "value": 115}, "group": "control_change"}, {"time": 20853, "annotation": {"number": 11, "value": 114}, "group": "control_change"}, {"time": 20906, "annotation": {"number": 11, "value": 113}, "group": "control_change"}, {"time": 20960, "annotation": {"number": 11, "value": 112}, "group": "control_change"}, {"time": 21013, "annotation": {"number": 11, "value": 111}, "group": "control_change"}, {"time": 21066, "annotation": {"number": 11, "value": 110}, "group": "control_change"}, {"time": 21120, "annotation": {"number": 11, "value": 109}, "group": "control_change"}, {"time": 21173, "annotation": {"number": 11, "value": 108}, "group": "control_change"}, {"time": 21226, "annotation": {"number": 11, "value": 107}, "group": "control_change"}, {"time": 21280, "annotation": {"number": 11, "value": 106}, "group": "control_change"}, {"time": 21333, "annotation": {"number": 11, "value": 105}, "group": "control_change"}, {"time": 21386, "annotation": {"number": 11, "value": 104}, "group": "control_change"}, {"time": 21440, "annotation": {"number": 11, "value": 103}, "group": "control_change"}, {"time": 21493, "annotation": {"number": 11, "value": 102}, "group": "control_change"}, {"time": 21546, "annotation": {"number": 11, "value": 101}, "group": "control_change"}, {"time": 22080, "annotation": {"number": 11, "value": 127}, "group": "control_change"}, {"time": 69600, "annotation": {"number": 11, "value": 40}, "group": "control_change"}, {"time": 69835, "annotation": {"number": 11, "value": 60}, "group": "control_change"}, {"time": 69886, "annotation": {"number": 11, "value": 61}, "group": "control_change"}, {"time": 69933, "annotation": {"number": 11, "value": 62}, "group": "control_change"}, {"time": 69979, "annotation": {"number": 11, "value": 63}, "group": "control_change"}, {"time": 70026, "annotation": {"number": 11, "value": 64}, "group": "control_change"}, {"time": 70072, "annotation": {"number": 11, "value": 65}, "group": "control_change"}, {"time": 70119, "annotation": {"number": 11, "value": 66}, "group": "control_change"}, {"time": 70165, "annotation": {"number": 11, "value": 67}, "group": "control_change"}, {"time": 70212, "annotation": {"number": 11, "value": 68}, "group": "control_change"}, {"time": 70259, "annotation": {"number": 11, "value": 69}, "group": "control_change"}, {"time": 70305, "annotation": {"number": 11, "value": 70}, "group": "control_change"}, {"time": 70352, "annotation": {"number": 11, "value": 71}, "group": "control_change"}, {"time": 70398, "annotation": {"number": 11, "value": 72}, "group": "control_change"}, {"time": 70445, "annotation": {"number": 11, "value": 73}, "group": "control_change"}, {"time": 70491, "annotation": {"number": 11, "value": 74}, "group": "control_change"}, {"time": 70538, "annotation": {"number": 11, "value": 75}, "group": "control_change"}, {"time": 70585, "annotation": {"number": 11, "value": 76}, "group": "control_change"}, {"time": 70631, "annotation": {"number": 11, "value": 77}, "group": "control_change"}, {"time": 70678, "annotation": {"number": 11, "value": 78}, "group": "control_change"}, {"time": 70724, "annotation": {"number": 11, "value": 79}, "group": "control_change"}, {"time": 70771, "annotation": {"number": 11, "value": 80}, "group": "control_change"}, {"time": 70817, "annotation": {"number": 11, "value": 81}, "group": "control_change"}, {"time": 70864, "annotation": {"number": 11, "value": 82}, "group": "control_change"}, {"time": 70911, "annotation": {"number": 11, "value": 83}, "group": "control_change"}, {"time": 70957, "annotation": {"number": 11, "value": 84}, "group": "control_change"}, {"time": 71004, "annotation": {"number": 11, "value": 85}, "group": "control_change"}, {"time": 71050, "annotation": {"number": 11, "value": 86}, "group": "control_change"}, {"time": 71097, "annotation": {"number": 11, "value": 87}, "group": "control_change"}, {"time": 71143, "annotation": {"number": 11, "value": 88}, "group": "control_change"}, {"time": 71190, "annotation": {"number": 11, "value": 89}, "group": "control_change"}, {"time": 71237, "annotation": {"number": 11, "value": 90}, "group": "control_change"}, {"time": 71283, "annotation": {"number": 11, "value": 91}, "group": "control_change"}, {"time": 71330, "annotation": {"number": 11, "value": 92}, "group": "control_change"}, {"time": 71376, "annotation": {"number": 11, "value": 93}, "group": "control_change"}, {"time": 71423, "annotation": {"number": 11, "value": 94}, "group": "control_change"}, {"time": 71469, "annotation": {"number": 11, "value": 95}, "group": "control_change"}, {"time": 71516, "annotation": {"number": 11, "value": 96}, "group": "control_change"}, {"time": 71562, "annotation": {"number": 11, "value": 97}, "group": "control_change"}, {"time": 71609, "annotation": {"number": 11, "value": 98}, "group": "control_change"}, {"time": 71656, "annotation": {"number": 11, "value": 99}, "group": "control_change"}, {"time": 71702, "annotation": {"number": 11, "value": 100}, "group": "control_change"}, {"time": 71749, "annotation": {"number": 11, "value": 101}, "group": "control_change"}, {"time": 71795, "annotation": {"number": 11, "value": 102}, "group": "control_change"}, {"time": 71842, "annotation": {"number": 11, "value": 103}, "group": "control_change"}, {"time": 71888, "annotation": {"number": 11, "value": 104}, "group": "control_change"}, {"time": 71935, "annotation": {"number": 11, "value": 105}, "group": "control_change"}, {"time": 71982, "annotation": {"number": 11, "value": 106}, "group": "control_change"}, {"time": 72028, "annotation": {"number": 11, "value": 107}, "group": "control_change"}, {"time": 72075, "annotation": {"number": 11, "value": 108}, "group": "control_change"}, {"time": 72121, "annotation": {"number": 11, "value": 109}, "group": "control_change"}, {"time": 72168, "annotation": {"number": 11, "value": 110}, "group": "control_change"}, {"time": 72214, "annotation": {"number": 11, "value": 111}, "group": "control_change"}, {"time": 72261, "annotation": {"number": 11, "value": 112}, "group": "control_change"}, {"time": 72308, "annotation": {"number": 11, "value": 113}, "group": "control_change"}, {"time": 72354, "annotation": {"number": 11, "value": 114}, "group": "control_change"}, {"time": 72401, "annotation": {"number": 11, "value": 115}, "group": "control_change"}, {"time": 72447, "annotation": {"number": 11, "value": 116}, "group": "control_change"}, {"time": 72494, "annotation": {"number": 11, "value": 117}, "group": "control_change"}, {"time": 72540, "annotation": {"number": 11, "value": 118}, "group": "control_change"}, {"time": 72587, "annotation": {"number": 11, "value": 119}, "group": "control_change"}, {"time": 72634, "annotation": {"number": 11, "value": 120}, "group": "control_change"}, {"time": 72680, "annotation": {"number": 11, "value": 121}, "group": "control_change"}, {"time": 72727, "annotation": {"number": 11, "value": 122}, "group": "control_change"}, {"time": 72773, "annotation": {"number": 11, "value": 123}, "group": "control_change"}, {"time": 72820, "annotation": {"number": 11, "value": 124}, "group": "control_change"}, {"time": 72866, "annotation": {"number": 11, "value": 125}, "group": "control_change"}, {"time": 72913, "annotation": {"number": 11, "value": 126}, "group": "control_change"}, {"time": 72955, "annotation": {"number": 11, "value": 127}, "group": "control_change"}, {"time": 73973, "annotation": {"number": 11, "value": 126}, "group": "control_change"}, {"time": 74026, "annotation": {"number": 11, "value": 125}, "group": "control_change"}, {"time": 74080, "annotation": {"number": 11, "value": 124}, "group": "control_change"}, {"time": 74133, "annotation": {"number": 11, "value": 123}, "group": "control_change"}, {"time": 74186, "annotation": {"number": 11, "value": 122}, "group": "control_change"}, {"time": 74240, "annotation": {"number": 11, "value": 121}, "group": "control_change"}, {"time": 74293, "annotation": {"number": 11, "value": 120}, "group": "control_change"}, {"time": 74346, "annotation": {"number": 11, "value": 119}, "group": "control_change"}, {"time": 74400, "annotation": {"number": 11, "value": 118}, "group": "control_change"}, {"time": 74453, "annotation": {"number": 11, "value": 117}, "group": "control_change"}, {"time": 74506, "annotation": {"number": 11, "value": 116}, "group": "control_change"}, {"time": 74560, "annotation": {"number": 11, "value": 115}, "group": "control_change"}, {"time": 74613, "annotation": {"number": 11, "value": 114}, "group": "control_change"}, {"time": 74666, "annotation": {"number": 11, "value": 113}, "group": "control_change"}, {"time": 74720, "annotation": {"number": 11, "value": 112}, "group": "control_change"}, {"time": 74773, "annotation": {"number": 11, "value": 111}, "group": "control_change"}, {"time": 74826, "annotation": {"number": 11, "value": 110}, "group": "control_change"}, {"time": 74880, "annotation": {"number": 11, "value": 109}, "group": "control_change"}, {"time": 74933, "annotation": {"number": 11, "value": 108}, "group": "control_change"}, {"time": 74986, "annotation": {"number": 11, "value": 107}, "group": "control_change"}, {"time": 75040, "annotation": {"number": 11, "value": 106}, "group": "control_change"}, {"time": 75093, "annotation": {"number": 11, "value": 105}, "group": "control_change"}, {"time": 75146, "annotation": {"number": 11, "value": 104}, "group": "control_change"}, {"time": 75200, "annotation": {"number": 11, "value": 103}, "group": "control_change"}, {"time": 75253, "annotation": {"number": 11, "value": 102}, "group": "control_change"}, {"time": 75306, "annotation": {"number": 11, "value": 101}, "group": "control_change"}, {"time": 75840, "annotation": {"number": 11, "value": 127}, "group": "control_change"}, {"time": 77280, "annotation": {"number": 11, "value": 40}, "group": "control_change"}, {"time": 77515, "annotation": {"number": 11, "value": 60}, "group": "control_change"}, {"time": 77566, "annotation": {"number": 11, "value": 61}, "group": "control_change"}, {"time": 77613, "annotation": {"number": 11, "value": 62}, "group": "control_change"}, {"time": 77659, "annotation": {"number": 11, "value": 63}, "group": "control_change"}, {"time": 77706, "annotation": {"number": 11, "value": 64}, "group": "control_change"}, {"time": 77752, "annotation": {"number": 11, "value": 65}, "group": "control_change"}, {"time": 77799, "annotation": {"number": 11, "value": 66}, "group": "control_change"}, {"time": 77845, "annotation": {"number": 11, "value": 67}, "group": "control_change"}, {"time": 77892, "annotation": {"number": 11, "value": 68}, "group": "control_change"}, {"time": 77939, "annotation": {"number": 11, "value": 69}, "group": "control_change"}, {"time": 77985, "annotation": {"number": 11, "value": 70}, "group": "control_change"}, {"time": 78032, "annotation": {"number": 11, "value": 71}, "group": "control_change"}, {"time": 78078, "annotation": {"number": 11, "value": 72}, "group": "control_change"}, {"time": 78125, "annotation": {"number": 11, "value": 73}, "group": "control_change"}, {"time": 78171, "annotation": {"number": 11, "value": 74}, "group": "control_change"}, {"time": 78218, "annotation": {"number": 11, "value": 75}, "group": "control_change"}, {"time": 78265, "annotation": {"number": 11, "value": 76}, "group": "control_change"}, {"time": 78311, "annotation": {"number": 11, "value": 77}, "group": "control_change"}, {"time": 78358, "annotation": {"number": 11, "value": 78}, "group": "control_change"}, {"time": 78404, "annotation": {"number": 11, "value": 79}, "group": "control_change"}, {"time": 78451, "annotation": {"number": 11, "value": 80}, "group": "control_change"}, {"time": 78497, "annotation": {"number": 11, "value": 81}, "group": "control_change"}, {"time": 78544, "annotation": {"number": 11, "value": 82}, "group": "control_change"}, {"time": 78591, "annotation": {"number": 11, "value": 83}, "group": "control_change"}, {"time": 78637, "annotation": {"number": 11, "value": 84}, "group": "control_change"}, {"time": 78684, "annotation": {"number": 11, "value": 85}, "group": "control_change"}, {"time": 78730, "annotation": {"number": 11, "value": 86}, "group": "control_change"}, {"time": 78777, "annotation": {"number": 11, "value": 87}, "group": "control_change"}, {"time": 78823, "annotation": {"number": 11, "value": 88}, "group": "control_change"}, {"time": 78870, "annotation": {"number": 11, "value": 89}, "group": "control_change"}, {"time": 78917, "annotation": {"number": 11, "value": 90}, "group": "control_change"}, {"time": 78963, "annotation": {"number": 11, "value": 91}, "group": "control_change"}, {"time": 79010, "annotation": {"number": 11, "value": 92}, "group": "control_change"}, {"time": 79056, "annotation": {"number": 11, "value": 93}, "group": "control_change"}, {"time": 79103, "annotation": {"number": 11, "value": 94}, "group": "control_change"}, {"time": 79149, "annotation": {"number": 11, "value": 95}, "group": "control_change"}, {"time": 79196, "annotation": {"number": 11, "value": 96}, "group": "control_change"}, {"time": 79242, "annotation": {"number": 11, "value": 97}, "group": "control_change"}, {"time": 79289, "annotation": {"number": 11, "value": 98}, "group": "control_change"}, {"time": 79336, "annotation": {"number": 11, "value": 99}, "group": "control_change"}, {"time": 79382, "annotation": {"number": 11, "value": 100}, "group": "control_change"}, {"time": 79429, "annotation": {"number": 11, "value": 101}, "group": "control_change"}, {"time": 79475, "annotation": {"number": 11, "value": 102}, "group": "control_change"}, {"time": 79522, "annotation": {"number": 11, "value": 103}, "group": "control_change"}, {"time": 79568, "annotation": {"number": 11, "value": 104}, "group": "control_change"}, {"time": 79615, "annotation": {"number": 11, "value": 105}, "group": "control_change"}, {"time": 79662, "annotation": {"number": 11, "value": 106}, "group": "control_change"}, {"time": 79708, "annotation": {"number": 11, "value": 107}, "group": "control_change"}, {"time": 79755, "annotation": {"number": 11, "value": 108}, "group": "control_change"}, {"time": 79801, "annotation": {"number": 11, "value": 109}, "group": "control_change"}, {"time": 79848, "annotation": {"number": 11, "value": 110}, "group": "control_change"}, {"time": 79894, "annotation": {"number": 11, "value": 111}, "group": "control_change"}, {"time": 79941, "annotation": {"number": 11, "value": 112}, "group": "control_change"}, {"time": 79988, "annotation": {"number": 11, "value": 113}, "group": "control_change"}, {"time": 80034, "annotation": {"number": 11, "value": 114}, "group": "control_change"}, {"time": 80081, "annotation": {"number": 11, "value": 115}, "group": "control_change"}, {"time": 80127, "annotation": {"number": 11, "value": 116}, "group": "control_change"}, {"time": 80174, "annotation": {"number": 11, "value": 117}, "group": "control_change"}, {"time": 80220, "annotation": {"number": 11, "value": 118}, "group": "control_change"}, {"time": 80267, "annotation": {"number": 11, "value": 119}, "group": "control_change"}, {"time": 80314, "annotation": {"number": 11, "value": 120}, "group": "control_change"}, {"time": 80360, "annotation": {"number": 11, "value": 121}, "group": "control_change"}, {"time": 80407, "annotation": {"number": 11, "value": 122}, "group": "control_change"}, {"time": 80453, "annotation": {"number": 11, "value": 123}, "group": "control_change"}, {"time": 80500, "annotation": {"number": 11, "value": 124}, "group": "control_change"}, {"time": 80546, "annotation": {"number": 11, "value": 125}, "group": "control_change"}, {"time": 80593, "annotation": {"number": 11, "value": 126}, "group": "control_change"}, {"time": 80635, "annotation": {"number": 11, "value": 127}, "group": "control_change"}, {"time": 81653, "annotation": {"number": 11, "value": 126}, "group": "control_change"}, {"time": 81706, "annotation": {"number": 11, "value": 125}, "group": "control_change"}, {"time": 81760, "annotation": {"number": 11, "value": 124}, "group": "control_change"}, {"time": 81813, "annotation": {"number": 11, "value": 123}, "group": "control_change"}, {"time": 81866, "annotation": {"number": 11, "value": 122}, "group": "control_change"}, {"time": 81920, "annotation": {"number": 11, "value": 121}, "group": "control_change"}, {"time": 81973, "annotation": {"number": 11, "value": 120}, "group": "control_change"}, {"time": 82026, "annotation": {"number": 11, "value": 119}, "group": "control_change"}, {"time": 82080, "annotation": {"number": 11, "value": 118}, "group": "control_change"}, {"time": 82133, "annotation": {"number": 11, "value": 117}, "group": "control_change"}, {"time": 82186, "annotation": {"number": 11, "value": 116}, "group": "control_change"}, {"time": 82240, "annotation": {"number": 11, "value": 115}, "group": "control_change"}, {"time": 82293, "annotation": {"number": 11, "value": 114}, "group": "control_change"}, {"time": 82346, "annotation": {"number": 11, "value": 113}, "group": "control_change"}, {"time": 82400, "annotation": {"number": 11, "value": 112}, "group": "control_change"}, {"time": 82453, "annotation": {"number": 11, "value": 111}, "group": "control_change"}, {"time": 82506, "annotation": {"number": 11, "value": 110}, "group": "control_change"}, {"time": 82560, "annotation": {"number": 11, "value": 109}, "group": "control_change"}, {"time": 82613, "annotation": {"number": 11, "value": 108}, "group": "control_change"}, {"time": 82666, "annotation": {"number": 11, "value": 107}, "group": "control_change"}, {"time": 82720, "annotation": {"number": 11, "value": 106}, "group": "control_change"}, {"time": 82773, "annotation": {"number": 11, "value": 105}, "group": "control_change"}, {"time": 82826, "annotation": {"number": 11, "value": 104}, "group": "control_change"}, {"time": 82880, "annotation": {"number": 11, "value": 103}, "group": "control_change"}, {"time": 82933, "annotation": {"number": 11, "value": 102}, "group": "control_change"}, {"time": 82986, "annotation": {"number": 11, "value": 101}, "group": "control_change"}, {"time": 83520, "annotation": {"number": 11, "value": 127}, "group": "control_change"}]}, {"program": 0, "is_drum": false, "name": "Melody", "annotations": [{"time": 264, "annotation": {"number": 0, "value": 0}, "group": "control_change"}, {"time": 288, "annotation": {"number": 32, "value": 2}, "group": "control_change"}]}, {"program": 73, "is_drum": false, "name": "Melody", "notes": [{"time": 7440, "pitch": 67, "duration": 228, "velocity": 107}, {"time": 7680, "pitch": 76, "duration": 228, "velocity": 107}, {"time": 7920, "pitch": 76, "duration": 114, "velocity": 107}, {"time": 8040, "pitch": 74, "duration": 234, "velocity": 107}, {"time": 8280, "pitch": 72, "duration": 114, "velocity": 107}, {"time": 8400, "pitch": 72, "duration": 1146, "velocity": 107}, {"time": 9600, "pitch": 71, "duration": 228, "velocity": 107}, {"time": 9840, "pitch": 72, "duration": 114, "velocity": 107}, {"time": 9960, "pitch": 69, "duration": 1482, "velocity": 107}, {"time": 11520, "pitch": 74, "duration": 228, "velocity": 107}, {"time": 11760, "pitch": 76, "duration": 228, "velocity": 107}, {"time": 12000, "pitch": 77, "duration": 228, "velocity": 107}, {"time": 12240, "pitch": 77, "duration": 228, "velocity": 107}, {"time": 12480, "pitch": 77, "duration": 228, "velocity": 107}, {"time": 12720, "pitch": 77, "duration": 228, "velocity": 107}, {"time": 12960, "pitch": 79, "duration": 456, "velocity": 107}, {"time": 13440, "pitch": 74, "duration": 240, "velocity": 107}, {"time": 13680, "pitch": 77, "duration": 120, "velocity": 107}, {"time": 13800, "pitch": 76, "duration": 1440, "velocity": 107}, {"time": 15360, "pitch": 74, "duration": 228, "velocity": 107}, {"time": 15600, "pitch": 76, "duration": 114, "velocity": 107}, {"time": 15720, "pitch": 74, "duration": 222, "velocity": 107}, {"time": 15960, "pitch": 72, "duration": 114, "velocity": 107}, {"time": 16080, "pitch": 72, "duration": 1146, "velocity": 107}, {"time": 17280, "pitch": 71, "duration": 228, "velocity": 107}, {"time": 17520, "pitch": 72, "duration": 114, "velocity": 107}, {"time": 17640, "pitch": 69, "duration": 1026, "velocity": 107}, {"time": 18960, "pitch": 72, "duration": 228, "velocity": 107}, {"time": 19200, "pitch": 71, "duration": 228, "velocity": 107}, {"time": 19440, "pitch": 67, "duration": 228, "velocity": 107}, {"time": 19680, "pitch": 69, "duration": 456, "velocity": 107}, {"time": 20160, "pitch": 77, "duration": 456, "velocity": 107}, {"time": 20640, "pitch": 76, "duration": 228, "velocity": 107}, {"time": 20880, "pitch": 74, "duration": 228, "velocity": 107}, {"time": 21120, "pitch": 72, "duration": 228, "velocity": 107}, {"time": 21360, "pitch": 71, "duration": 114, "velocity": 107}, {"time": 21480, "pitch": 72, "duration": 1482, "velocity": 107}, {"time": 24000, "pitch": 77, "duration": 234, "velocity": 107}, {"time": 24240, "pitch": 77, "duration": 234, "velocity": 107}, {"time": 24480, "pitch": 77, "duration": 228, "velocity": 107}, {"time": 24720, "pitch": 76, "duration": 228, "velocity": 107}, {"time": 24960, "pitch": 77, "duration": 228, "velocity": 107}, {"time": 25200, "pitch": 79, "duration": 684, "velocity": 107}, {"time": 26160, "pitch": 79, "duration": 348, "velocity": 107}, {"time": 26640, "pitch": 76, "duration": 570, "velocity": 107}, {"time": 27840, "pitch": 77, "duration": 234, "velocity": 107}, {"time": 28080, "pitch": 77, "duration": 234, "velocity": 107}, {"time": 28320, "pitch": 77, "duration": 228, "velocity": 107}, {"time": 28560, "pitch": 76, "duration": 228, "velocity": 107}, {"time": 28800, "pitch": 77, "duration": 228, "velocity": 107}, {"time": 29040, "pitch": 79, "duration": 798, "velocity": 107}, {"time": 30000, "pitch": 84, "duration": 342, "velocity": 107}, {"time": 30480, "pitch": 79, "duration": 684, "velocity": 107}, {"time": 31680, "pitch": 77, "duration": 234, "velocity": 107}, {"time": 31920, "pitch": 77, "duration": 234, "velocity": 107}, {"time": 32160, "pitch": 77, "duration": 228, "velocity": 107}, {"time": 32400, "pitch": 76, "duration": 228, "velocity": 107}, {"time": 32640, "pitch": 77, "duration": 228, "velocity": 107}, {"time": 32880, "pitch": 79, "duration": 936, "velocity": 107}, {"time": 33840, "pitch": 76, "duration": 456, "velocity": 107}, {"time": 34320, "pitch": 76, "duration": 228, "velocity": 107}, {"time": 34560, "pitch": 79, "duration": 228, "velocity": 107}, {"time": 34800, "pitch": 80, "duration": 342, "velocity": 107}, {"time": 35280, "pitch": 80, "duration": 114, "velocity": 107}, {"time": 35520, "pitch": 80, "duration": 228, "velocity": 107}, {"time": 36000, "pitch": 80, "duration": 228, "velocity": 107}, {"time": 36240, "pitch": 79, "duration": 228, "velocity": 107}, {"time": 36480, "pitch": 80, "duration": 228, "velocity": 107}, {"time": 36720, "pitch": 82, "duration": 456, "velocity": 107}, {"time": 37200, "pitch": 79, "duration": 456, "velocity": 107}, {"time": 37680, "pitch": 81, "duration": 1026, "velocity": 107}, {"time": 38880, "pitch": 79, "duration": 2736, "velocity": 107}, {"time": 42720, "pitch": 76, "duration": 456, "velocity": 107}, {"time": 43200, "pitch": 74, "duration": 228, "velocity": 107}, {"time": 43440, "pitch": 76, "duration": 114, "velocity": 107}, {"time": 43560, "pitch": 74, "duration": 222, "velocity": 107}, {"time": 43800, "pitch": 72, "duration": 462, "velocity": 107}, {"time": 44280, "pitch": 69, "duration": 114, "velocity": 107}, {"time": 44400, "pitch": 69, "duration": 114, "velocity": 107}, {"time": 44520, "pitch": 71, "duration": 114, "velocity": 107}, {"time": 44640, "pitch": 72, "duration": 456, "velocity": 107}, {"time": 45120, "pitch": 69, "duration": 228, "velocity": 107}, {"time": 45360, "pitch": 76, "duration": 114, "velocity": 107}, {"time": 45480, "pitch": 76, "duration": 228, "velocity": 107}, {"time": 45720, "pitch": 74, "duration": 834, "velocity": 107}, {"time": 46560, "pitch": 76, "duration": 456, "velocity": 107}, {"time": 47040, "pitch": 79, "duration": 228, "velocity": 107}, {"time": 47280, "pitch": 81, "duration": 114, "velocity": 107}, {"time": 47400, "pitch": 76, "duration": 228, "velocity": 107}, {"time": 47640, "pitch": 74, "duration": 114, "velocity": 107}, {"time": 47760, "pitch": 72, "duration": 342, "velocity": 107}, {"time": 48120, "pitch": 69, "duration": 114, "velocity": 107}, {"time": 48240, "pitch": 69, "duration": 114, "velocity": 107}, {"time": 48360, "pitch": 71, "duration": 114, "velocity": 107}, {"time": 48480, "pitch": 72, "duration": 456, "velocity": 107}, {"time": 48960, "pitch": 69, "duration": 228, "velocity": 107}, {"time": 49200, "pitch": 76, "duration": 114, "velocity": 107}, {"time": 49320, "pitch": 76, "duration": 228, "velocity": 107}, {"time": 49560, "pitch": 74, "duration": 834, "velocity": 107}, {"time": 50400, "pitch": 76, "duration": 456, "velocity": 107}, {"time": 50880, "pitch": 74, "duration": 228, "velocity": 107}, {"time": 51120, "pitch": 76, "duration": 114, "velocity": 107}, {"time": 51240, "pitch": 74, "duration": 222, "velocity": 107}, {"time": 51480, "pitch": 72, "duration": 462, "velocity": 107}, {"time": 51960, "pitch": 69, "duration": 114, "velocity": 107}, {"time": 52080, "pitch": 69, "duration": 114, "velocity": 107}, {"time": 52200, "pitch": 71, "duration": 114, "velocity": 107}, {"time": 52320, "pitch": 72, "duration": 456, "velocity": 107}, {"time": 52800, "pitch": 69, "duration": 228, "velocity": 107}, {"time": 53040, "pitch": 76, "duration": 114, "velocity": 107}, {"time": 53160, "pitch": 76, "duration": 228, "velocity": 107}, {"time": 53400, "pitch": 74, "duration": 834, "velocity": 107}, {"time": 54240, "pitch": 76, "duration": 456, "velocity": 107}, {"time": 54720, "pitch": 79, "duration": 228, "velocity": 107}, {"time": 54960, "pitch": 81, "duration": 114, "velocity": 107}, {"time": 55080, "pitch": 76, "duration": 228, "velocity": 107}, {"time": 55320, "pitch": 74, "duration": 114, "velocity": 107}, {"time": 55440, "pitch": 72, "duration": 342, "velocity": 107}, {"time": 55800, "pitch": 69, "duration": 114, "velocity": 107}, {"time": 55920, "pitch": 69, "duration": 114, "velocity": 107}, {"time": 56040, "pitch": 71, "duration": 114, "velocity": 107}, {"time": 56160, "pitch": 72, "duration": 456, "velocity": 107}, {"time": 56640, "pitch": 69, "duration": 228, "velocity": 107}, {"time": 56880, "pitch": 76, "duration": 114, "velocity": 107}, {"time": 57000, "pitch": 76, "duration": 228, "velocity": 107}, {"time": 57240, "pitch": 74, "duration": 114, "velocity": 107}, {"time": 57360, "pitch": 74, "duration": 228, "velocity": 107}, {"time": 57600, "pitch": 76, "duration": 120, "velocity": 107}, {"time": 57720, "pitch": 74, "duration": 120, "velocity": 107}, {"time": 57840, "pitch": 72, "duration": 120, "velocity": 107}, {"time": 57960, "pitch": 74, "duration": 360, "velocity": 107}, {"time": 58320, "pitch": 72, "duration": 1200, "velocity": 107}, {"time": 59520, "pitch": 72, "duration": 456, "velocity": 107}, {"time": 60000, "pitch": 72, "duration": 1824, "velocity": 107}, {"time": 68880, "pitch": 67, "duration": 228, "velocity": 107}, {"time": 69120, "pitch": 76, "duration": 228, "velocity": 107}, {"time": 69360, "pitch": 76, "duration": 234, "velocity": 107}, {"time": 69600, "pitch": 74, "duration": 228, "velocity": 107}, {"time": 69840, "pitch": 72, "duration": 114, "velocity": 107}, {"time": 69960, "pitch": 72, "duration": 1026, "velocity": 107}, {"time": 71040, "pitch": 71, "duration": 228, "velocity": 107}, {"time": 71280, "pitch": 72, "duration": 114, "velocity": 107}, {"time": 71400, "pitch": 69, "duration": 1482, "velocity": 107}, {"time": 72960, "pitch": 74, "duration": 228, "velocity": 107}, {"time": 73200, "pitch": 76, "duration": 228, "velocity": 107}, {"time": 73440, "pitch": 77, "duration": 234, "velocity": 107}, {"time": 73680, "pitch": 77, "duration": 234, "velocity": 107}, {"time": 73920, "pitch": 77, "duration": 234, "velocity": 107}, {"time": 74160, "pitch": 77, "duration": 228, "velocity": 107}, {"time": 74400, "pitch": 79, "duration": 456, "velocity": 107}, {"time": 74880, "pitch": 74, "duration": 240, "velocity": 107}, {"time": 75120, "pitch": 77, "duration": 120, "velocity": 97}, {"time": 75240, "pitch": 76, "duration": 1440, "velocity": 113}, {"time": 76800, "pitch": 74, "duration": 240, "velocity": 113}, {"time": 77040, "pitch": 76, "duration": 120, "velocity": 101}, {"time": 77160, "pitch": 74, "duration": 240, "velocity": 108}, {"time": 77400, "pitch": 72, "duration": 120, "velocity": 101}, {"time": 77520, "pitch": 72, "duration": 1080, "velocity": 117}, {"time": 78720, "pitch": 71, "duration": 228, "velocity": 107}, {"time": 78960, "pitch": 72, "duration": 114, "velocity": 107}, {"time": 79080, "pitch": 69, "duration": 1026, "velocity": 107}, {"time": 80400, "pitch": 72, "duration": 228, "velocity": 107}, {"time": 80640, "pitch": 71, "duration": 228, "velocity": 107}, {"time": 80880, "pitch": 67, "duration": 228, "velocity": 107}, {"time": 81120, "pitch": 69, "duration": 456, "velocity": 107}, {"time": 81600, "pitch": 77, "duration": 456, "velocity": 107}, {"time": 82080, "pitch": 76, "duration": 228, "velocity": 107}, {"time": 82320, "pitch": 74, "duration": 228, "velocity": 107}, {"time": 82560, "pitch": 72, "duration": 228, "velocity": 107}, {"time": 82800, "pitch": 71, "duration": 114, "velocity": 107}, {"time": 82920, "pitch": 72, "duration": 1482, "velocity": 107}, {"time": 85440, "pitch": 77, "duration": 234, "velocity": 107}, {"time": 85680, "pitch": 77, "duration": 234, "velocity": 107}, {"time": 85920, "pitch": 77, "duration": 228, "velocity": 107}, {"time": 86160, "pitch": 76, "duration": 228, "velocity": 107}, {"time": 86400, "pitch": 77, "duration": 228, "velocity": 107}, {"time": 86640, "pitch": 79, "duration": 924, "velocity": 107}, {"time": 87600, "pitch": 79, "duration": 228, "velocity": 107}, {"time": 88080, "pitch": 76, "duration": 690, "velocity": 107}, {"time": 89280, "pitch": 77, "duration": 234, "velocity": 107}, {"time": 89520, "pitch": 77, "duration": 234, "velocity": 107}, {"time": 89760, "pitch": 77, "duration": 228, "velocity": 107}, {"time": 90000, "pitch": 76, "duration": 228, "velocity": 107}, {"time": 90240, "pitch": 77, "duration": 228, "velocity": 107}, {"time": 90480, "pitch": 79, "duration": 798, "velocity": 107}, {"time": 91440, "pitch": 84, "duration": 342, "velocity": 107}, {"time": 91920, "pitch": 79, "duration": 684, "velocity": 107}, {"time": 93120, "pitch": 77, "duration": 234, "velocity": 107}, {"time": 93360, "pitch": 77, "duration": 234, "velocity": 107}, {"time": 93600, "pitch": 77, "duration": 228, "velocity": 107}, {"time": 93840, "pitch": 76, "duration": 228, "velocity": 107}, {"time": 94080, "pitch": 77, "duration": 228, "velocity": 107}, {"time": 94320, "pitch": 79, "duration": 936, "velocity": 107}, {"time": 95280, "pitch": 76, "duration": 456, "velocity": 107}, {"time": 95760, "pitch": 76, "duration": 228, "velocity": 107}, {"time": 96000, "pitch": 79, "duration": 228, "velocity": 107}, {"time": 96240, "pitch": 80, "duration": 342, "velocity": 107}, {"time": 96720, "pitch": 80, "duration": 114, "velocity": 107}, {"time": 96960, "pitch": 80, "duration": 348, "velocity": 107}, {"time": 97440, "pitch": 80, "duration": 228, "velocity": 107}, {"time": 97680, "pitch": 79, "duration": 228, "velocity": 107}, {"time": 97920, "pitch": 80, "duration": 228, "velocity": 107}, {"time": 98160, "pitch": 82, "duration": 456, "velocity": 107}, {"time": 98640, "pitch": 79, "duration": 456, "velocity": 107}, {"time": 99120, "pitch": 81, "duration": 1026, "velocity": 107}, {"time": 100320, "pitch": 76, "duration": 456, "velocity": 107}, {"time": 100800, "pitch": 74, "duration": 228, "velocity": 107}, {"time": 101040, "pitch": 76, "duration": 114, "velocity": 107}, {"time": 101160, "pitch": 74, "duration": 222, "velocity": 107}, {"time": 101400, "pitch": 72, "duration": 461, "velocity": 107}, {"time": 101878, "pitch": 69, "duration": 113, "velocity": 107}, {"time": 101997, "pitch": 69, "duration": 112, "velocity": 107}, {"time": 102115, "pitch": 71, "duration": 113, "velocity": 107}, {"time": 102234, "pitch": 72, "duration": 462, "velocity": 107}, {"time": 102720, "pitch": 69, "duration": 228, "velocity": 107}, {"time": 102960, "pitch": 76, "duration": 114, "velocity": 107}, {"time": 103080, "pitch": 76, "duration": 228, "velocity": 107}, {"time": 103320, "pitch": 74, "duration": 834, "velocity": 107}, {"time": 104160, "pitch": 76, "duration": 456, "velocity": 107}, {"time": 104640, "pitch": 79, "duration": 228, "velocity": 107}, {"time": 104880, "pitch": 81, "duration": 114, "velocity": 107}, {"time": 105000, "pitch": 76, "duration": 228, "velocity": 107}, {"time": 105240, "pitch": 74, "duration": 114, "velocity": 107}, {"time": 105360, "pitch": 72, "duration": 342, "velocity": 107}, {"time": 105720, "pitch": 69, "duration": 114, "velocity": 107}, {"time": 105840, "pitch": 69, "duration": 114, "velocity": 107}, {"time": 105960, "pitch": 71, "duration": 114, "velocity": 107}, {"time": 106080, "pitch": 72, "duration": 456, "velocity": 107}, {"time": 106560, "pitch": 69, "duration": 228, "velocity": 107}, {"time": 106800, "pitch": 76, "duration": 114, "velocity": 107}, {"time": 106920, "pitch": 76, "duration": 228, "velocity": 107}, {"time": 107160, "pitch": 74, "duration": 834, "velocity": 107}, {"time": 108000, "pitch": 76, "duration": 456, "velocity": 107}, {"time": 108480, "pitch": 74, "duration": 228, "velocity": 107}, {"time": 108720, "pitch": 76, "duration": 114, "velocity": 107}, {"time": 108840, "pitch": 74, "duration": 222, "velocity": 107}, {"time": 109080, "pitch": 72, "duration": 462, "velocity": 107}, {"time": 109560, "pitch": 69, "duration": 114, "velocity": 107}, {"time": 109680, "pitch": 69, "duration": 114, "velocity": 107}, {"time": 109800, "pitch": 71, "duration": 114, "velocity": 107}, {"time": 109920, "pitch": 72, "duration": 456, "velocity": 107}, {"time": 110400, "pitch": 69, "duration": 228, "velocity": 107}, {"time": 110640, "pitch": 76, "duration": 114, "velocity": 107}, {"time": 110760, "pitch": 76, "duration": 228, "velocity": 107}, {"time": 111000, "pitch": 74, "duration": 834, "velocity": 107}, {"time": 111840, "pitch": 76, "duration": 456, "velocity": 107}, {"time": 112320, "pitch": 79, "duration": 228, "velocity": 107}, {"time": 112560, "pitch": 81, "duration": 114, "velocity": 107}, {"time": 112680, "pitch": 76, "duration": 228, "velocity": 107}, {"time": 112920, "pitch": 74, "duration": 114, "velocity": 107}, {"time": 113040, "pitch": 72, "duration": 342, "velocity": 107}, {"time": 113400, "pitch": 69, "duration": 114, "velocity": 107}, {"time": 113520, "pitch": 69, "duration": 114, "velocity": 107}, {"time": 113640, "pitch": 71, "duration": 114, "velocity": 107}, {"time": 113760, "pitch": 72, "duration": 456, "velocity": 107}, {"time": 114240, "pitch": 69, "duration": 228, "velocity": 107}, {"time": 114480, "pitch": 76, "duration": 114, "velocity": 107}, {"time": 114600, "pitch": 76, "duration": 228, "velocity": 107}, {"time": 114840, "pitch": 74, "duration": 114, "velocity": 107}, {"time": 114960, "pitch": 74, "duration": 228, "velocity": 107}, {"time": 115200, "pitch": 76, "duration": 120, "velocity": 107}, {"time": 115320, "pitch": 74, "duration": 120, "velocity": 107}, {"time": 115440, "pitch": 72, "duration": 120, "velocity": 107}, {"time": 115560, "pitch": 74, "duration": 360, "velocity": 107}, {"time": 115920, "pitch": 72, "duration": 1200, "velocity": 107}, {"time": 117120, "pitch": 72, "duration": 456, "velocity": 107}, {"time": 117600, "pitch": 84, "duration": 1824, "velocity": 107}, {"time": 119520, "pitch": 80, "duration": 1140, "velocity": 107}, {"time": 120720, "pitch": 77, "duration": 240, "velocity": 113}, {"time": 120960, "pitch": 80, "duration": 240, "velocity": 104}, {"time": 121200, "pitch": 79, "duration": 2160, "velocity": 107}, {"time": 123360, "pitch": 80, "duration": 1140, "velocity": 107}, {"time": 124560, "pitch": 77, "duration": 456, "velocity": 107}, {"time": 125040, "pitch": 80, "duration": 228, "velocity": 107}, {"time": 125280, "pitch": 82, "duration": 1824, "velocity": 107}, {"time": 127200, "pitch": 80, "duration": 1140, "velocity": 107}, {"time": 128400, "pitch": 82, "duration": 456, "velocity": 107}, {"time": 128880, "pitch": 84, "duration": 228, "velocity": 107}, {"time": 129120, "pitch": 82, "duration": 1026, "velocity": 107}, {"time": 130320, "pitch": 82, "duration": 456, "velocity": 107}, {"time": 130800, "pitch": 84, "duration": 228, "velocity": 107}, {"time": 131040, "pitch": 84, "duration": 114, "velocity": 107}, {"time": 131160, "pitch": 82, "duration": 114, "velocity": 107}, {"time": 131280, "pitch": 81, "duration": 2634, "velocity": 107}, {"time": 134880, "pitch": 76, "duration": 456, "velocity": 107}, {"time": 135360, "pitch": 74, "duration": 228, "velocity": 107}, {"time": 135600, "pitch": 76, "duration": 114, "velocity": 107}, {"time": 135720, "pitch": 74, "duration": 222, "velocity": 107}, {"time": 135960, "pitch": 72, "duration": 462, "velocity": 107}, {"time": 136440, "pitch": 69, "duration": 114, "velocity": 107}, {"time": 136560, "pitch": 69, "duration": 114, "velocity": 107}, {"time": 136680, "pitch": 71, "duration": 114, "velocity": 107}, {"time": 136800, "pitch": 72, "duration": 456, "velocity": 107}, {"time": 137280, "pitch": 69, "duration": 228, "velocity": 107}, {"time": 137520, "pitch": 76, "duration": 114, "velocity": 107}, {"time": 137640, "pitch": 76, "duration": 228, "velocity": 107}, {"time": 137880, "pitch": 74, "duration": 834, "velocity": 107}, {"time": 138720, "pitch": 76, "duration": 456, "velocity": 107}, {"time": 139200, "pitch": 79, "duration": 228, "velocity": 107}, {"time": 139440, "pitch": 81, "duration": 114, "velocity": 107}, {"time": 139560, "pitch": 76, "duration": 228, "velocity": 107}, {"time": 139800, "pitch": 74, "duration": 114, "velocity": 107}, {"time": 139920, "pitch": 72, "duration": 342, "velocity": 107}, {"time": 140280, "pitch": 69, "duration": 114, "velocity": 107}, {"time": 140400, "pitch": 69, "duration": 114, "velocity": 107}, {"time": 140520, "pitch": 71, "duration": 114, "velocity": 107}, {"time": 140640, "pitch": 72, "duration": 456, "velocity": 107}, {"time": 141120, "pitch": 69, "duration": 228, "velocity": 107}, {"time": 141360, "pitch": 76, "duration": 114, "velocity": 107}, {"time": 141480, "pitch": 76, "duration": 228, "velocity": 107}, {"time": 141720, "pitch": 74, "duration": 834, "velocity": 107}, {"time": 142560, "pitch": 76, "duration": 456, "velocity": 107}, {"time": 143040, "pitch": 74, "duration": 228, "velocity": 107}, {"time": 143280, "pitch": 76, "duration": 114, "velocity": 107}, {"time": 143400, "pitch": 74, "duration": 222, "velocity": 107}, {"time": 143640, "pitch": 72, "duration": 462, "velocity": 107}, {"time": 144120, "pitch": 69, "duration": 114, "velocity": 107}, {"time": 144240, "pitch": 69, "duration": 114, "velocity": 107}, {"time": 144360, "pitch": 71, "duration": 114, "velocity": 107}, {"time": 144480, "pitch": 72, "duration": 456, "velocity": 107}, {"time": 144960, "pitch": 69, "duration": 228, "velocity": 107}, {"time": 145200, "pitch": 76, "duration": 114, "velocity": 107}, {"time": 145320, "pitch": 76, "duration": 228, "velocity": 107}, {"time": 145560, "pitch": 74, "duration": 834, "velocity": 107}, {"time": 146400, "pitch": 76, "duration": 456, "velocity": 107}, {"time": 146880, "pitch": 79, "duration": 228, "velocity": 107}, {"time": 147120, "pitch": 81, "duration": 114, "velocity": 107}, {"time": 147240, "pitch": 76, "duration": 228, "velocity": 107}, {"time": 147480, "pitch": 74, "duration": 114, "velocity": 107}, {"time": 147600, "pitch": 72, "duration": 342, "velocity": 107}, {"time": 147960, "pitch": 69, "duration": 114, "velocity": 107}, {"time": 148080, "pitch": 69, "duration": 114, "velocity": 107}, {"time": 148200, "pitch": 71, "duration": 114, "velocity": 107}, {"time": 148320, "pitch": 72, "duration": 456, "velocity": 107}, {"time": 148800, "pitch": 69, "duration": 228, "velocity": 107}, {"time": 149040, "pitch": 76, "duration": 114, "velocity": 107}, {"time": 149160, "pitch": 76, "duration": 228, "velocity": 107}, {"time": 149400, "pitch": 74, "duration": 114, "velocity": 107}, {"time": 149520, "pitch": 74, "duration": 228, "velocity": 107}, {"time": 149760, "pitch": 76, "duration": 120, "velocity": 107}, {"time": 149880, "pitch": 74, "duration": 120, "velocity": 107}, {"time": 150000, "pitch": 72, "duration": 120, "velocity": 107}, {"time": 150120, "pitch": 74, "duration": 360, "velocity": 107}, {"time": 150480, "pitch": 72, "duration": 1200, "velocity": 107}, {"time": 151680, "pitch": 72, "duration": 456, "velocity": 107}, {"time": 152160, "pitch": 72, "duration": 1824, "velocity": 107}], "annotations": [{"time": 336, "annotation": {"number": 7, "value": 70}, "group": "control_change"}, {"time": 360, "annotation": {"number": 11, "value": 110}, "group": "control_change"}, {"time": 384, "annotation": {"number": 10, "value": 64}, "group": "control_change"}, {"time": 408, "annotation": {"number": 91, "value": 100}, "group": "control_change"}, {"time": 432, "annotation": {"number": 93, "value": 64}, "group": "control_change"}, {"time": 456, "annotation": {"number": 101, "value": 0}, "group": "control_change"}, {"time": 480, "annotation": {"number": 100, "value": 0}, "group": "control_change"}, {"time": 480, "annotation": {"number": 6, "value": 12}, "group": "control_change"}, {"time": 480, "annotation": {"number": 101, "value": 127}, "group": "control_change"}, {"time": 480, "annotation": {"number": 100, "value": 127}, "group": "control_change"}]}, {"program": 0, "is_drum": false, "name": "Piano", "notes": [{"time": 38880, "pitch": 67, "duration": 470, "velocity": 97}, {"time": 39000, "pitch": 69, "duration": 355, "velocity": 88}, {"time": 39120, "pitch": 71, "duration": 240, "velocity": 64}, {"time": 39240, "pitch": 79, "duration": 155, "velocity": 108}, {"time": 39480, "pitch": 67, "duration": 370, "velocity": 97}, {"time": 39600, "pitch": 69, "duration": 255, "velocity": 95}, {"time": 39720, "pitch": 77, "duration": 130, "velocity": 108}, {"time": 39960, "pitch": 67, "duration": 390, "velocity": 92}, {"time": 40080, "pitch": 69, "duration": 270, "velocity": 81}, {"time": 40200, "pitch": 74, "duration": 155, "velocity": 102}, {"time": 40440, "pitch": 67, "duration": 270, "velocity": 92}, {"time": 40560, "pitch": 69, "duration": 175, "velocity": 93}, {"time": 40680, "pitch": 71, "duration": 75, "velocity": 97}, {"time": 40800, "pitch": 67, "duration": 485, "velocity": 88}, {"time": 40920, "pitch": 69, "duration": 365, "velocity": 88}, {"time": 41040, "pitch": 71, "duration": 235, "velocity": 92}, {"time": 41160, "pitch": 79, "duration": 115, "velocity": 112}, {"time": 41400, "pitch": 67, "duration": 375, "velocity": 93}, {"time": 41520, "pitch": 69, "duration": 255, "velocity": 90}, {"time": 41640, "pitch": 77, "duration": 115, "velocity": 102}, {"time": 41880, "pitch": 67, "duration": 375, "velocity": 93}, {"time": 42000, "pitch": 69, "duration": 250, "velocity": 97}, {"time": 42120, "pitch": 74, "duration": 130, "velocity": 99}, {"time": 42360, "pitch": 67, "duration": 270, "velocity": 92}, {"time": 42480, "pitch": 69, "duration": 175, "velocity": 93}, {"time": 42600, "pitch": 71, "duration": 75, "velocity": 97}, {"time": 42720, "pitch": 48, "duration": 1645, "velocity": 114}, {"time": 42720, "pitch": 72, "duration": 215, "velocity": 114}, {"time": 42840, "pitch": 62, "duration": 105, "velocity": 97}, {"time": 42960, "pitch": 64, "duration": 100, "velocity": 97}, {"time": 43080, "pitch": 67, "duration": 165, "velocity": 116}, {"time": 43200, "pitch": 47, "duration": 1120, "velocity": 127}, {"time": 43320, "pitch": 62, "duration": 80, "velocity": 112}, {"time": 43440, "pitch": 59, "duration": 365, "velocity": 114}, {"time": 43560, "pitch": 74, "duration": 95, "velocity": 127}, {"time": 43800, "pitch": 69, "duration": 95, "velocity": 127}, {"time": 43920, "pitch": 57, "duration": 215, "velocity": 95}, {"time": 44040, "pitch": 64, "duration": 145, "velocity": 127}, {"time": 44280, "pitch": 60, "duration": 130, "velocity": 127}, {"time": 44400, "pitch": 57, "duration": 85, "velocity": 77}, {"time": 44520, "pitch": 52, "duration": 110, "velocity": 95}, {"time": 44640, "pitch": 41, "duration": 1580, "velocity": 122}, {"time": 44640, "pitch": 57, "duration": 480, "velocity": 114}, {"time": 44640, "pitch": 60, "duration": 540, "velocity": 116}, {"time": 44640, "pitch": 65, "duration": 570, "velocity": 102}, {"time": 44640, "pitch": 69, "duration": 605, "velocity": 108}, {"time": 44880, "pitch": 48, "duration": 850, "velocity": 92}, {"time": 45000, "pitch": 45, "duration": 130, "velocity": 114}, {"time": 45120, "pitch": 53, "duration": 385, "velocity": 125}, {"time": 45240, "pitch": 45, "duration": 155, "velocity": 106}, {"time": 45360, "pitch": 45, "duration": 35, "velocity": 112}, {"time": 45480, "pitch": 67, "duration": 765, "velocity": 127}, {"time": 45600, "pitch": 50, "duration": 50, "velocity": 55}, {"time": 45720, "pitch": 59, "duration": 195, "velocity": 116}, {"time": 45840, "pitch": 50, "duration": 245, "velocity": 74}, {"time": 45960, "pitch": 55, "duration": 210, "velocity": 125}, {"time": 46200, "pitch": 50, "duration": 75, "velocity": 114}, {"time": 46320, "pitch": 47, "duration": 95, "velocity": 97}, {"time": 46440, "pitch": 43, "duration": 125, "velocity": 100}, {"time": 46560, "pitch": 45, "duration": 1815, "velocity": 116}, {"time": 46560, "pitch": 60, "duration": 430, "velocity": 119}, {"time": 46560, "pitch": 64, "duration": 545, "velocity": 110}, {"time": 46560, "pitch": 69, "duration": 555, "velocity": 112}, {"time": 46800, "pitch": 52, "duration": 1520, "velocity": 108}, {"time": 46920, "pitch": 57, "duration": 160, "velocity": 114}, {"time": 47040, "pitch": 55, "duration": 430, "velocity": 95}, {"time": 47160, "pitch": 57, "duration": 135, "velocity": 110}, {"time": 47280, "pitch": 60, "duration": 55, "velocity": 92}, {"time": 47400, "pitch": 69, "duration": 210, "velocity": 127}, {"time": 47640, "pitch": 65, "duration": 250, "velocity": 127}, {"time": 47880, "pitch": 60, "duration": 225, "velocity": 112}, {"time": 48120, "pitch": 57, "duration": 85, "velocity": 108}, {"time": 48360, "pitch": 53, "duration": 95, "velocity": 90}, {"time": 48480, "pitch": 38, "duration": 1915, "velocity": 116}, {"time": 48480, "pitch": 57, "duration": 425, "velocity": 90}, {"time": 48480, "pitch": 60, "duration": 435, "velocity": 97}, {"time": 48480, "pitch": 62, "duration": 530, "velocity": 88}, {"time": 48480, "pitch": 65, "duration": 560, "velocity": 112}, {"time": 48720, "pitch": 45, "duration": 1680, "velocity": 110}, {"time": 48840, "pitch": 53, "duration": 155, "velocity": 116}, {"time": 49080, "pitch": 50, "duration": 1310, "velocity": 127}, {"time": 49320, "pitch": 59, "duration": 120, "velocity": 110}, {"time": 49440, "pitch": 65, "duration": 80, "velocity": 127}, {"time": 49560, "pitch": 74, "duration": 140, "velocity": 127}, {"time": 49680, "pitch": 67, "duration": 115, "velocity": 116}, {"time": 49800, "pitch": 65, "duration": 125, "velocity": 108}, {"time": 49920, "pitch": 64, "duration": 90, "velocity": 112}, {"time": 50040, "pitch": 62, "duration": 100, "velocity": 108}, {"time": 50160, "pitch": 59, "duration": 115, "velocity": 108}, {"time": 50280, "pitch": 55, "duration": 50, "velocity": 106}, {"time": 50400, "pitch": 48, "duration": 1645, "velocity": 114}, {"time": 50400, "pitch": 72, "duration": 215, "velocity": 114}, {"time": 50520, "pitch": 62, "duration": 105, "velocity": 97}, {"time": 50640, "pitch": 64, "duration": 100, "velocity": 97}, {"time": 50760, "pitch": 67, "duration": 165, "velocity": 116}, {"time": 50880, "pitch": 47, "duration": 1120, "velocity": 127}, {"time": 51000, "pitch": 62, "duration": 80, "velocity": 112}, {"time": 51120, "pitch": 59, "duration": 365, "velocity": 114}, {"time": 51240, "pitch": 74, "duration": 95, "velocity": 127}, {"time": 51480, "pitch": 69, "duration": 95, "velocity": 127}, {"time": 51600, "pitch": 57, "duration": 215, "velocity": 95}, {"time": 51720, "pitch": 64, "duration": 145, "velocity": 127}, {"time": 51960, "pitch": 60, "duration": 130, "velocity": 127}, {"time": 52080, "pitch": 57, "duration": 85, "velocity": 77}, {"time": 52200, "pitch": 52, "duration": 110, "velocity": 95}, {"time": 52320, "pitch": 41, "duration": 1580, "velocity": 122}, {"time": 52320, "pitch": 57, "duration": 480, "velocity": 114}, {"time": 52320, "pitch": 60, "duration": 540, "velocity": 116}, {"time": 52320, "pitch": 65, "duration": 570, "velocity": 102}, {"time": 52320, "pitch": 69, "duration": 605, "velocity": 108}, {"time": 52560, "pitch": 48, "duration": 850, "velocity": 92}, {"time": 52680, "pitch": 45, "duration": 130, "velocity": 114}, {"time": 52800, "pitch": 53, "duration": 385, "velocity": 125}, {"time": 52920, "pitch": 45, "duration": 155, "velocity": 106}, {"time": 53040, "pitch": 45, "duration": 35, "velocity": 112}, {"time": 53160, "pitch": 67, "duration": 765, "velocity": 127}, {"time": 53280, "pitch": 50, "duration": 50, "velocity": 55}, {"time": 53400, "pitch": 59, "duration": 195, "velocity": 116}, {"time": 53520, "pitch": 50, "duration": 245, "velocity": 74}, {"time": 53640, "pitch": 55, "duration": 210, "velocity": 125}, {"time": 53880, "pitch": 50, "duration": 75, "velocity": 114}, {"time": 54000, "pitch": 47, "duration": 95, "velocity": 97}, {"time": 54120, "pitch": 43, "duration": 125, "velocity": 100}, {"time": 54240, "pitch": 45, "duration": 1815, "velocity": 116}, {"time": 54240, "pitch": 60, "duration": 430, "velocity": 119}, {"time": 54240, "pitch": 64, "duration": 545, "velocity": 110}, {"time": 54240, "pitch": 69, "duration": 555, "velocity": 112}, {"time": 54480, "pitch": 52, "duration": 1520, "velocity": 108}, {"time": 54600, "pitch": 57, "duration": 160, "velocity": 114}, {"time": 54720, "pitch": 55, "duration": 430, "velocity": 95}, {"time": 54840, "pitch": 57, "duration": 135, "velocity": 110}, {"time": 54960, "pitch": 60, "duration": 55, "velocity": 92}, {"time": 55080, "pitch": 69, "duration": 210, "velocity": 127}, {"time": 55320, "pitch": 65, "duration": 250, "velocity": 127}, {"time": 55560, "pitch": 60, "duration": 225, "velocity": 112}, {"time": 55800, "pitch": 57, "duration": 85, "velocity": 108}, {"time": 56040, "pitch": 53, "duration": 95, "velocity": 90}, {"time": 56160, "pitch": 38, "duration": 1915, "velocity": 116}, {"time": 56160, "pitch": 57, "duration": 425, "velocity": 90}, {"time": 56160, "pitch": 60, "duration": 435, "velocity": 97}, {"time": 56160, "pitch": 62, "duration": 530, "velocity": 88}, {"time": 56160, "pitch": 65, "duration": 560, "velocity": 112}, {"time": 56400, "pitch": 45, "duration": 1680, "velocity": 110}, {"time": 56520, "pitch": 53, "duration": 155, "velocity": 116}, {"time": 56760, "pitch": 50, "duration": 1310, "velocity": 127}, {"time": 57000, "pitch": 59, "duration": 120, "velocity": 110}, {"time": 57120, "pitch": 65, "duration": 80, "velocity": 127}, {"time": 57240, "pitch": 74, "duration": 140, "velocity": 127}, {"time": 57360, "pitch": 67, "duration": 115, "velocity": 116}, {"time": 57480, "pitch": 65, "duration": 125, "velocity": 108}, {"time": 57600, "pitch": 64, "duration": 90, "velocity": 112}, {"time": 57720, "pitch": 62, "duration": 100, "velocity": 108}, {"time": 57840, "pitch": 59, "duration": 115, "velocity": 108}, {"time": 57960, "pitch": 55, "duration": 50, "velocity": 106}, {"time": 58080, "pitch": 41, "duration": 1715, "velocity": 116}, {"time": 58080, "pitch": 53, "duration": 260, "velocity": 102}, {"time": 58080, "pitch": 56, "duration": 205, "velocity": 112}, {"time": 58080, "pitch": 60, "duration": 225, "velocity": 108}, {"time": 58560, "pitch": 53, "duration": 425, "velocity": 74}, {"time": 58680, "pitch": 56, "duration": 125, "velocity": 86}, {"time": 58800, "pitch": 65, "duration": 150, "velocity": 127}, {"time": 58920, "pitch": 72, "duration": 70, "velocity": 127}, {"time": 59280, "pitch": 53, "duration": 375, "velocity": 95}, {"time": 59400, "pitch": 56, "duration": 175, "velocity": 92}, {"time": 59640, "pitch": 60, "duration": 235, "velocity": 127}, {"time": 59760, "pitch": 53, "duration": 135, "velocity": 95}, {"time": 60000, "pitch": 40, "duration": 750, "velocity": 78}, {"time": 60000, "pitch": 48, "duration": 690, "velocity": 110}, {"time": 60000, "pitch": 52, "duration": 335, "velocity": 114}, {"time": 60000, "pitch": 60, "duration": 350, "velocity": 97}, {"time": 60000, "pitch": 64, "duration": 315, "velocity": 106}, {"time": 60360, "pitch": 52, "duration": 870, "velocity": 119}, {"time": 60360, "pitch": 55, "duration": 890, "velocity": 112}, {"time": 60360, "pitch": 60, "duration": 925, "velocity": 119}, {"time": 60720, "pitch": 40, "duration": 30, "velocity": 92}, {"time": 61200, "pitch": 48, "duration": 430, "velocity": 77}, {"time": 61320, "pitch": 52, "duration": 205, "velocity": 127}, {"time": 61560, "pitch": 55, "duration": 100, "velocity": 127}, {"time": 61800, "pitch": 48, "duration": 65, "velocity": 72}, {"time": 61920, "pitch": 48, "duration": 1840, "velocity": 110}, {"time": 61920, "pitch": 56, "duration": 1025, "velocity": 114}, {"time": 61920, "pitch": 60, "duration": 1210, "velocity": 112}, {"time": 61920, "pitch": 62, "duration": 1215, "velocity": 112}, {"time": 61920, "pitch": 67, "duration": 295, "velocity": 112}, {"time": 62280, "pitch": 65, "duration": 915, "velocity": 112}, {"time": 63120, "pitch": 56, "duration": 520, "velocity": 90}, {"time": 63240, "pitch": 60, "duration": 190, "velocity": 127}, {"time": 63480, "pitch": 62, "duration": 360, "velocity": 127}, {"time": 63720, "pitch": 56, "duration": 80, "velocity": 66}, {"time": 63840, "pitch": 48, "duration": 1620, "velocity": 90}, {"time": 63840, "pitch": 55, "duration": 240, "velocity": 97}, {"time": 63840, "pitch": 60, "duration": 540, "velocity": 92}, {"time": 63840, "pitch": 64, "duration": 595, "velocity": 78}, {"time": 64320, "pitch": 55, "duration": 115, "velocity": 102}, {"time": 64440, "pitch": 57, "duration": 230, "velocity": 127}, {"time": 64440, "pitch": 60, "duration": 270, "velocity": 127}, {"time": 64440, "pitch": 65, "duration": 320, "velocity": 127}, {"time": 64800, "pitch": 58, "duration": 235, "velocity": 92}, {"time": 64800, "pitch": 60, "duration": 275, "velocity": 112}, {"time": 64800, "pitch": 67, "duration": 315, "velocity": 114}, {"time": 65160, "pitch": 57, "duration": 220, "velocity": 72}, {"time": 65160, "pitch": 60, "duration": 200, "velocity": 78}, {"time": 65160, "pitch": 65, "duration": 220, "velocity": 84}, {"time": 65400, "pitch": 55, "duration": 335, "velocity": 100}, {"time": 65400, "pitch": 60, "duration": 275, "velocity": 90}, {"time": 65400, "pitch": 64, "duration": 305, "velocity": 95}, {"time": 65640, "pitch": 48, "duration": 120, "velocity": 34}, {"time": 65760, "pitch": 56, "duration": 235, "velocity": 127}, {"time": 65760, "pitch": 60, "duration": 310, "velocity": 119}, {"time": 65760, "pitch": 62, "duration": 320, "velocity": 112}, {"time": 65760, "pitch": 67, "duration": 315, "velocity": 114}, {"time": 66120, "pitch": 60, "duration": 60, "velocity": 102}, {"time": 66120, "pitch": 62, "duration": 65, "velocity": 95}, {"time": 66120, "pitch": 65, "duration": 85, "velocity": 110}, {"time": 66240, "pitch": 56, "duration": 365, "velocity": 122}, {"time": 66480, "pitch": 68, "duration": 35, "velocity": 106}, {"time": 66480, "pitch": 72, "duration": 45, "velocity": 108}, {"time": 66480, "pitch": 74, "duration": 40, "velocity": 95}, {"time": 66480, "pitch": 77, "duration": 40, "velocity": 112}, {"time": 66960, "pitch": 56, "duration": 430, "velocity": 110}, {"time": 67080, "pitch": 60, "duration": 85, "velocity": 127}, {"time": 67320, "pitch": 62, "duration": 360, "velocity": 127}, {"time": 67560, "pitch": 56, "duration": 60, "velocity": 66}, {"time": 67680, "pitch": 48, "duration": 1660, "velocity": 114}, {"time": 67680, "pitch": 55, "duration": 1670, "velocity": 110}, {"time": 67680, "pitch": 60, "duration": 645, "velocity": 110}, {"time": 67680, "pitch": 64, "duration": 665, "velocity": 97}, {"time": 68760, "pitch": 76, "duration": 480, "velocity": 102}, {"time": 68880, "pitch": 72, "duration": 240, "velocity": 96}, {"time": 69000, "pitch": 67, "duration": 210, "velocity": 96}, {"time": 69600, "pitch": 36, "duration": 865, "velocity": 80}, {"time": 69600, "pitch": 60, "duration": 197, "velocity": 74}, {"time": 69600, "pitch": 64, "duration": 227, "velocity": 69}, {"time": 69600, "pitch": 67, "duration": 240, "velocity": 80}, {"time": 69600, "pitch": 72, "duration": 399, "velocity": 77}, {"time": 69840, "pitch": 60, "duration": 123, "velocity": 95}, {"time": 69840, "pitch": 64, "duration": 35, "velocity": 55}, {"time": 69840, "pitch": 67, "duration": 32, "velocity": 14}, {"time": 69960, "pitch": 64, "duration": 454, "velocity": 95}, {"time": 70080, "pitch": 48, "duration": 295, "velocity": 64}, {"time": 70200, "pitch": 72, "duration": 288, "velocity": 109}, {"time": 70320, "pitch": 60, "duration": 136, "velocity": 105}, {"time": 70440, "pitch": 48, "duration": 399, "velocity": 55}, {"time": 70560, "pitch": 35, "duration": 757, "velocity": 75}, {"time": 70560, "pitch": 55, "duration": 155, "velocity": 80}, {"time": 70560, "pitch": 59, "duration": 262, "velocity": 80}, {"time": 70560, "pitch": 62, "duration": 288, "velocity": 80}, {"time": 70560, "pitch": 67, "duration": 340, "velocity": 81}, {"time": 70800, "pitch": 55, "duration": 156, "velocity": 96}, {"time": 70920, "pitch": 59, "duration": 182, "velocity": 90}, {"time": 71040, "pitch": 43, "duration": 825, "velocity": 78}, {"time": 71160, "pitch": 55, "duration": 74, "velocity": 100}, {"time": 71160, "pitch": 59, "duration": 167, "velocity": 95}, {"time": 71160, "pitch": 62, "duration": 146, "velocity": 95}, {"time": 71160, "pitch": 67, "duration": 168, "velocity": 96}, {"time": 71280, "pitch": 55, "duration": 60, "velocity": 95}, {"time": 71400, "pitch": 38, "duration": 75, "velocity": 72}, {"time": 71520, "pitch": 33, "duration": 804, "velocity": 92}, {"time": 71520, "pitch": 60, "duration": 164, "velocity": 114}, {"time": 71520, "pitch": 64, "duration": 139, "velocity": 114}, {"time": 71520, "pitch": 69, "duration": 17, "velocity": 55}, {"time": 71520, "pitch": 72, "duration": 519, "velocity": 111}, {"time": 71640, "pitch": 69, "duration": 99, "velocity": 95}, {"time": 71760, "pitch": 64, "duration": 71, "velocity": 114}, {"time": 71760, "pitch": 69, "duration": 52, "velocity": 67}, {"time": 71880, "pitch": 60, "duration": 140, "velocity": 114}, {"time": 72000, "pitch": 45, "duration": 333, "velocity": 96}, {"time": 72120, "pitch": 64, "duration": 137, "velocity": 114}, {"time": 72120, "pitch": 72, "duration": 141, "velocity": 114}, {"time": 72240, "pitch": 60, "duration": 67, "velocity": 108}, {"time": 72360, "pitch": 40, "duration": 100, "velocity": 66}, {"time": 72480, "pitch": 43, "duration": 413, "velocity": 72}, {"time": 72480, "pitch": 55, "duration": 30, "velocity": 72}, {"time": 72480, "pitch": 60, "duration": 256, "velocity": 85}, {"time": 72480, "pitch": 64, "duration": 252, "velocity": 88}, {"time": 72480, "pitch": 67, "duration": 279, "velocity": 95}, {"time": 72720, "pitch": 55, "duration": 67, "velocity": 93}, {"time": 72840, "pitch": 55, "duration": 177, "velocity": 114}, {"time": 72840, "pitch": 62, "duration": 126, "velocity": 114}, {"time": 72840, "pitch": 67, "duration": 540, "velocity": 114}, {"time": 72960, "pitch": 43, "duration": 298, "velocity": 75}, {"time": 72960, "pitch": 64, "duration": 46, "velocity": 55}, {"time": 73080, "pitch": 62, "duration": 78, "velocity": 114}, {"time": 73080, "pitch": 64, "duration": 15, "velocity": 60}, {"time": 73200, "pitch": 60, "duration": 106, "velocity": 114}, {"time": 73320, "pitch": 43, "duration": 371, "velocity": 59}, {"time": 73320, "pitch": 55, "duration": 77, "velocity": 98}, {"time": 73440, "pitch": 29, "duration": 738, "velocity": 66}, {"time": 73440, "pitch": 57, "duration": 261, "velocity": 95}, {"time": 73440, "pitch": 65, "duration": 427, "velocity": 93}, {"time": 73680, "pitch": 53, "duration": 93, "velocity": 81}, {"time": 73800, "pitch": 57, "duration": 400, "velocity": 85}, {"time": 73920, "pitch": 41, "duration": 303, "velocity": 66}, {"time": 74040, "pitch": 65, "duration": 281, "velocity": 109}, {"time": 74160, "pitch": 53, "duration": 104, "velocity": 102}, {"time": 74280, "pitch": 41, "duration": 409, "velocity": 63}, {"time": 74400, "pitch": 31, "duration": 878, "velocity": 82}, {"time": 74400, "pitch": 55, "duration": 100, "velocity": 100}, {"time": 74400, "pitch": 59, "duration": 95, "velocity": 108}, {"time": 74400, "pitch": 67, "duration": 436, "velocity": 96}, {"time": 74520, "pitch": 55, "duration": 81, "velocity": 66}, {"time": 74520, "pitch": 60, "duration": 150, "velocity": 96}, {"time": 74640, "pitch": 55, "duration": 156, "velocity": 109}, {"time": 74760, "pitch": 60, "duration": 137, "velocity": 105}, {"time": 74880, "pitch": 43, "duration": 248, "velocity": 90}, {"time": 75000, "pitch": 55, "duration": 82, "velocity": 114}, {"time": 75000, "pitch": 60, "duration": 140, "velocity": 114}, {"time": 75000, "pitch": 64, "duration": 126, "velocity": 109}, {"time": 75000, "pitch": 67, "duration": 171, "velocity": 114}, {"time": 75120, "pitch": 55, "duration": 66, "velocity": 100}, {"time": 75240, "pitch": 43, "duration": 340, "velocity": 78}, {"time": 75360, "pitch": 36, "duration": 868, "velocity": 90}, {"time": 75360, "pitch": 60, "duration": 77, "velocity": 114}, {"time": 75360, "pitch": 64, "duration": 92, "velocity": 114}, {"time": 75360, "pitch": 67, "duration": 105, "velocity": 114}, {"time": 75360, "pitch": 72, "duration": 107, "velocity": 114}, {"time": 75600, "pitch": 48, "duration": 105, "velocity": 88}, {"time": 75720, "pitch": 64, "duration": 76, "velocity": 108}, {"time": 75720, "pitch": 67, "duration": 80, "velocity": 102}, {"time": 75720, "pitch": 72, "duration": 63, "velocity": 108}, {"time": 75720, "pitch": 76, "duration": 67, "velocity": 114}, {"time": 75840, "pitch": 48, "duration": 35, "velocity": 63}, {"time": 75960, "pitch": 60, "duration": 119, "velocity": 102}, {"time": 75960, "pitch": 64, "duration": 114, "velocity": 96}, {"time": 75960, "pitch": 67, "duration": 107, "velocity": 83}, {"time": 75960, "pitch": 72, "duration": 105, "velocity": 93}, {"time": 76200, "pitch": 48, "duration": 251, "velocity": 75}, {"time": 76320, "pitch": 36, "duration": 889, "velocity": 80}, {"time": 76320, "pitch": 60, "duration": 66, "velocity": 77}, {"time": 76320, "pitch": 64, "duration": 154, "velocity": 77}, {"time": 76320, "pitch": 72, "duration": 129, "velocity": 85}, {"time": 76440, "pitch": 60, "duration": 105, "velocity": 83}, {"time": 76560, "pitch": 48, "duration": 406, "velocity": 96}, {"time": 76680, "pitch": 60, "duration": 326, "velocity": 114}, {"time": 76680, "pitch": 66, "duration": 12, "velocity": 55}, {"time": 76680, "pitch": 67, "duration": 61, "velocity": 114}, {"time": 76680, "pitch": 72, "duration": 395, "velocity": 74}, {"time": 76920, "pitch": 67, "duration": 193, "velocity": 114}, {"time": 77040, "pitch": 64, "duration": 105, "velocity": 114}, {"time": 77160, "pitch": 48, "duration": 110, "velocity": 70}, {"time": 77280, "pitch": 36, "duration": 865, "velocity": 80}, {"time": 77280, "pitch": 60, "duration": 197, "velocity": 74}, {"time": 77280, "pitch": 64, "duration": 227, "velocity": 69}, {"time": 77280, "pitch": 67, "duration": 240, "velocity": 80}, {"time": 77280, "pitch": 72, "duration": 399, "velocity": 77}, {"time": 77520, "pitch": 60, "duration": 123, "velocity": 95}, {"time": 77520, "pitch": 64, "duration": 35, "velocity": 55}, {"time": 77520, "pitch": 67, "duration": 32, "velocity": 14}, {"time": 77640, "pitch": 64, "duration": 454, "velocity": 95}, {"time": 77760, "pitch": 48, "duration": 295, "velocity": 64}, {"time": 77880, "pitch": 72, "duration": 288, "velocity": 109}, {"time": 78000, "pitch": 60, "duration": 136, "velocity": 105}, {"time": 78120, "pitch": 48, "duration": 399, "velocity": 55}, {"time": 78240, "pitch": 35, "duration": 757, "velocity": 75}, {"time": 78240, "pitch": 55, "duration": 155, "velocity": 80}, {"time": 78240, "pitch": 59, "duration": 262, "velocity": 80}, {"time": 78240, "pitch": 62, "duration": 288, "velocity": 80}, {"time": 78240, "pitch": 67, "duration": 340, "velocity": 81}, {"time": 78480, "pitch": 55, "duration": 156, "velocity": 96}, {"time": 78600, "pitch": 59, "duration": 182, "velocity": 90}, {"time": 78720, "pitch": 43, "duration": 825, "velocity": 78}, {"time": 78840, "pitch": 55, "duration": 74, "velocity": 100}, {"time": 78840, "pitch": 59, "duration": 167, "velocity": 95}, {"time": 78840, "pitch": 62, "duration": 146, "velocity": 95}, {"time": 78840, "pitch": 67, "duration": 168, "velocity": 96}, {"time": 78960, "pitch": 55, "duration": 60, "velocity": 95}, {"time": 79080, "pitch": 38, "duration": 75, "velocity": 72}, {"time": 79200, "pitch": 33, "duration": 804, "velocity": 92}, {"time": 79200, "pitch": 60, "duration": 164, "velocity": 114}, {"time": 79200, "pitch": 64, "duration": 139, "velocity": 114}, {"time": 79200, "pitch": 69, "duration": 17, "velocity": 55}, {"time": 79200, "pitch": 72, "duration": 519, "velocity": 111}, {"time": 79320, "pitch": 69, "duration": 99, "velocity": 95}, {"time": 79440, "pitch": 64, "duration": 71, "velocity": 114}, {"time": 79440, "pitch": 69, "duration": 52, "velocity": 67}, {"time": 79560, "pitch": 60, "duration": 140, "velocity": 114}, {"time": 79680, "pitch": 45, "duration": 333, "velocity": 96}, {"time": 79800, "pitch": 64, "duration": 137, "velocity": 114}, {"time": 79800, "pitch": 72, "duration": 141, "velocity": 114}, {"time": 79920, "pitch": 60, "duration": 67, "velocity": 108}, {"time": 80040, "pitch": 40, "duration": 100, "velocity": 66}, {"time": 80160, "pitch": 43, "duration": 413, "velocity": 72}, {"time": 80160, "pitch": 55, "duration": 30, "velocity": 72}, {"time": 80160, "pitch": 60, "duration": 256, "velocity": 85}, {"time": 80160, "pitch": 64, "duration": 252, "velocity": 88}, {"time": 80160, "pitch": 67, "duration": 279, "velocity": 95}, {"time": 80400, "pitch": 55, "duration": 67, "velocity": 93}, {"time": 80520, "pitch": 55, "duration": 177, "velocity": 114}, {"time": 80520, "pitch": 62, "duration": 126, "velocity": 114}, {"time": 80520, "pitch": 67, "duration": 540, "velocity": 114}, {"time": 80640, "pitch": 43, "duration": 298, "velocity": 75}, {"time": 80640, "pitch": 64, "duration": 46, "velocity": 55}, {"time": 80760, "pitch": 62, "duration": 78, "velocity": 114}, {"time": 80760, "pitch": 64, "duration": 15, "velocity": 60}, {"time": 80880, "pitch": 60, "duration": 106, "velocity": 114}, {"time": 81000, "pitch": 43, "duration": 371, "velocity": 59}, {"time": 81000, "pitch": 55, "duration": 77, "velocity": 98}, {"time": 81120, "pitch": 29, "duration": 738, "velocity": 66}, {"time": 81120, "pitch": 57, "duration": 261, "velocity": 95}, {"time": 81120, "pitch": 65, "duration": 427, "velocity": 93}, {"time": 81360, "pitch": 53, "duration": 93, "velocity": 81}, {"time": 81480, "pitch": 57, "duration": 400, "velocity": 85}, {"time": 81600, "pitch": 41, "duration": 303, "velocity": 66}, {"time": 81720, "pitch": 65, "duration": 281, "velocity": 109}, {"time": 81840, "pitch": 53, "duration": 104, "velocity": 102}, {"time": 81960, "pitch": 41, "duration": 409, "velocity": 63}, {"time": 82080, "pitch": 31, "duration": 878, "velocity": 82}, {"time": 82080, "pitch": 55, "duration": 100, "velocity": 100}, {"time": 82080, "pitch": 59, "duration": 95, "velocity": 108}, {"time": 82080, "pitch": 67, "duration": 436, "velocity": 96}, {"time": 82200, "pitch": 55, "duration": 81, "velocity": 66}, {"time": 82200, "pitch": 60, "duration": 150, "velocity": 96}, {"time": 82320, "pitch": 55, "duration": 156, "velocity": 109}, {"time": 82440, "pitch": 60, "duration": 137, "velocity": 105}, {"time": 82560, "pitch": 43, "duration": 248, "velocity": 90}, {"time": 82680, "pitch": 55, "duration": 82, "velocity": 114}, {"time": 82680, "pitch": 60, "duration": 140, "velocity": 114}, {"time": 82680, "pitch": 64, "duration": 126, "velocity": 109}, {"time": 82680, "pitch": 67, "duration": 171, "velocity": 114}, {"time": 82800, "pitch": 55, "duration": 66, "velocity": 100}, {"time": 82920, "pitch": 43, "duration": 340, "velocity": 78}, {"time": 83040, "pitch": 36, "duration": 868, "velocity": 90}, {"time": 83040, "pitch": 60, "duration": 77, "velocity": 114}, {"time": 83040, "pitch": 64, "duration": 92, "velocity": 114}, {"time": 83040, "pitch": 67, "duration": 105, "velocity": 114}, {"time": 83040, "pitch": 72, "duration": 107, "velocity": 114}, {"time": 83280, "pitch": 48, "duration": 105, "velocity": 88}, {"time": 83400, "pitch": 64, "duration": 76, "velocity": 108}, {"time": 83400, "pitch": 67, "duration": 80, "velocity": 102}, {"time": 83400, "pitch": 72, "duration": 63, "velocity": 108}, {"time": 83400, "pitch": 76, "duration": 67, "velocity": 114}, {"time": 83520, "pitch": 48, "duration": 35, "velocity": 63}, {"time": 83640, "pitch": 60, "duration": 119, "velocity": 102}, {"time": 83640, "pitch": 64, "duration": 114, "velocity": 96}, {"time": 83640, "pitch": 67, "duration": 107, "velocity": 83}, {"time": 83640, "pitch": 72, "duration": 105, "velocity": 93}, {"time": 83880, "pitch": 48, "duration": 251, "velocity": 75}, {"time": 84000, "pitch": 36, "duration": 889, "velocity": 80}, {"time": 84000, "pitch": 60, "duration": 66, "velocity": 77}, {"time": 84000, "pitch": 64, "duration": 154, "velocity": 77}, {"time": 84000, "pitch": 72, "duration": 129, "velocity": 85}, {"time": 84120, "pitch": 60, "duration": 105, "velocity": 83}, {"time": 84240, "pitch": 48, "duration": 406, "velocity": 96}, {"time": 84360, "pitch": 60, "duration": 326, "velocity": 114}, {"time": 84360, "pitch": 66, "duration": 12, "velocity": 55}, {"time": 84360, "pitch": 67, "duration": 61, "velocity": 114}, {"time": 84360, "pitch": 72, "duration": 395, "velocity": 74}, {"time": 84600, "pitch": 67, "duration": 193, "velocity": 114}, {"time": 84720, "pitch": 64, "duration": 105, "velocity": 114}, {"time": 84840, "pitch": 48, "duration": 110, "velocity": 70}, {"time": 84960, "pitch": 58, "duration": 1822, "velocity": 77}, {"time": 84960, "pitch": 62, "duration": 1864, "velocity": 85}, {"time": 84960, "pitch": 65, "duration": 1841, "velocity": 68}, {"time": 84960, "pitch": 70, "duration": 212, "velocity": 83}, {"time": 84960, "pitch": 74, "duration": 209, "velocity": 88}, {"time": 84960, "pitch": 77, "duration": 245, "velocity": 83}, {"time": 85560, "pitch": 77, "duration": 105, "velocity": 67}, {"time": 85680, "pitch": 82, "duration": 60, "velocity": 77}, {"time": 85800, "pitch": 89, "duration": 137, "velocity": 117}, {"time": 85920, "pitch": 86, "duration": 88, "velocity": 112}, {"time": 86040, "pitch": 82, "duration": 97, "velocity": 117}, {"time": 86160, "pitch": 77, "duration": 78, "velocity": 108}, {"time": 86280, "pitch": 74, "duration": 70, "velocity": 67}, {"time": 86400, "pitch": 70, "duration": 108, "velocity": 79}, {"time": 86520, "pitch": 74, "duration": 112, "velocity": 93}, {"time": 86760, "pitch": 77, "duration": 97, "velocity": 97}, {"time": 86880, "pitch": 60, "duration": 439, "velocity": 73}, {"time": 86880, "pitch": 67, "duration": 502, "velocity": 72}, {"time": 86880, "pitch": 72, "duration": 256, "velocity": 73}, {"time": 86880, "pitch": 76, "duration": 261, "velocity": 95}, {"time": 86880, "pitch": 79, "duration": 248, "velocity": 85}, {"time": 87480, "pitch": 60, "duration": 66, "velocity": 88}, {"time": 87480, "pitch": 67, "duration": 58, "velocity": 90}, {"time": 87480, "pitch": 72, "duration": 40, "velocity": 108}, {"time": 87480, "pitch": 76, "duration": 49, "velocity": 88}, {"time": 87480, "pitch": 84, "duration": 65, "velocity": 102}, {"time": 87720, "pitch": 60, "duration": 79, "velocity": 75}, {"time": 87720, "pitch": 67, "duration": 76, "velocity": 72}, {"time": 87720, "pitch": 72, "duration": 63, "velocity": 95}, {"time": 87720, "pitch": 76, "duration": 65, "velocity": 83}, {"time": 87720, "pitch": 79, "duration": 79, "velocity": 90}, {"time": 87960, "pitch": 60, "duration": 612, "velocity": 65}, {"time": 87960, "pitch": 67, "duration": 423, "velocity": 62}, {"time": 87960, "pitch": 72, "duration": 563, "velocity": 73}, {"time": 87960, "pitch": 76, "duration": 560, "velocity": 88}, {"time": 88800, "pitch": 58, "duration": 1822, "velocity": 77}, {"time": 88800, "pitch": 62, "duration": 1864, "velocity": 85}, {"time": 88800, "pitch": 65, "duration": 1841, "velocity": 68}, {"time": 88800, "pitch": 70, "duration": 212, "velocity": 83}, {"time": 88800, "pitch": 74, "duration": 209, "velocity": 88}, {"time": 88800, "pitch": 77, "duration": 245, "velocity": 83}, {"time": 89400, "pitch": 77, "duration": 105, "velocity": 67}, {"time": 89520, "pitch": 82, "duration": 60, "velocity": 77}, {"time": 89640, "pitch": 89, "duration": 137, "velocity": 117}, {"time": 89760, "pitch": 94, "duration": 88, "velocity": 112}, {"time": 89880, "pitch": 89, "duration": 97, "velocity": 117}, {"time": 90000, "pitch": 86, "duration": 78, "velocity": 108}, {"time": 90120, "pitch": 82, "duration": 70, "velocity": 67}, {"time": 90240, "pitch": 77, "duration": 108, "velocity": 79}, {"time": 90360, "pitch": 74, "duration": 112, "velocity": 93}, {"time": 90600, "pitch": 70, "duration": 97, "velocity": 97}, {"time": 90720, "pitch": 60, "duration": 439, "velocity": 73}, {"time": 90720, "pitch": 67, "duration": 502, "velocity": 72}, {"time": 90720, "pitch": 72, "duration": 256, "velocity": 73}, {"time": 90720, "pitch": 76, "duration": 261, "velocity": 95}, {"time": 90720, "pitch": 79, "duration": 248, "velocity": 85}, {"time": 91320, "pitch": 60, "duration": 66, "velocity": 88}, {"time": 91320, "pitch": 67, "duration": 58, "velocity": 90}, {"time": 91320, "pitch": 72, "duration": 40, "velocity": 108}, {"time": 91320, "pitch": 76, "duration": 49, "velocity": 88}, {"time": 91320, "pitch": 79, "duration": 65, "velocity": 102}, {"time": 91560, "pitch": 60, "duration": 79, "velocity": 75}, {"time": 91560, "pitch": 67, "duration": 76, "velocity": 72}, {"time": 91560, "pitch": 72, "duration": 63, "velocity": 95}, {"time": 91560, "pitch": 76, "duration": 65, "velocity": 83}, {"time": 91560, "pitch": 79, "duration": 79, "velocity": 90}, {"time": 91800, "pitch": 60, "duration": 612, "velocity": 65}, {"time": 91800, "pitch": 67, "duration": 423, "velocity": 62}, {"time": 91800, "pitch": 72, "duration": 563, "velocity": 73}, {"time": 91800, "pitch": 76, "duration": 560, "velocity": 88}, {"time": 92640, "pitch": 58, "duration": 1822, "velocity": 77}, {"time": 92640, "pitch": 62, "duration": 1864, "velocity": 85}, {"time": 92640, "pitch": 65, "duration": 1841, "velocity": 68}, {"time": 92640, "pitch": 70, "duration": 212, "velocity": 83}, {"time": 92640, "pitch": 74, "duration": 209, "velocity": 88}, {"time": 92640, "pitch": 77, "duration": 245, "velocity": 83}, {"time": 93240, "pitch": 77, "duration": 105, "velocity": 67}, {"time": 93360, "pitch": 82, "duration": 60, "velocity": 77}, {"time": 93480, "pitch": 89, "duration": 137, "velocity": 117}, {"time": 93600, "pitch": 86, "duration": 88, "velocity": 112}, {"time": 93720, "pitch": 82, "duration": 97, "velocity": 117}, {"time": 93840, "pitch": 77, "duration": 78, "velocity": 108}, {"time": 93960, "pitch": 74, "duration": 70, "velocity": 67}, {"time": 94080, "pitch": 70, "duration": 108, "velocity": 79}, {"time": 94200, "pitch": 74, "duration": 112, "velocity": 93}, {"time": 94440, "pitch": 77, "duration": 97, "velocity": 97}, {"time": 94560, "pitch": 60, "duration": 439, "velocity": 73}, {"time": 94560, "pitch": 67, "duration": 502, "velocity": 72}, {"time": 94560, "pitch": 72, "duration": 256, "velocity": 73}, {"time": 94560, "pitch": 76, "duration": 261, "velocity": 95}, {"time": 94560, "pitch": 79, "duration": 248, "velocity": 85}, {"time": 95160, "pitch": 60, "duration": 66, "velocity": 88}, {"time": 95160, "pitch": 67, "duration": 58, "velocity": 90}, {"time": 95160, "pitch": 72, "duration": 40, "velocity": 108}, {"time": 95160, "pitch": 76, "duration": 49, "velocity": 88}, {"time": 95160, "pitch": 84, "duration": 65, "velocity": 102}, {"time": 95400, "pitch": 60, "duration": 79, "velocity": 75}, {"time": 95400, "pitch": 67, "duration": 76, "velocity": 72}, {"time": 95400, "pitch": 72, "duration": 63, "velocity": 95}, {"time": 95400, "pitch": 76, "duration": 65, "velocity": 83}, {"time": 95400, "pitch": 79, "duration": 79, "velocity": 90}, {"time": 95640, "pitch": 60, "duration": 612, "velocity": 65}, {"time": 95640, "pitch": 67, "duration": 423, "velocity": 62}, {"time": 95640, "pitch": 72, "duration": 563, "velocity": 73}, {"time": 95640, "pitch": 76, "duration": 560, "velocity": 88}, {"time": 96480, "pitch": 49, "duration": 960, "velocity": 92}, {"time": 96720, "pitch": 56, "duration": 720, "velocity": 74}, {"time": 96840, "pitch": 65, "duration": 600, "velocity": 78}, {"time": 96840, "pitch": 92, "duration": 600, "velocity": 100}, {"time": 96960, "pitch": 89, "duration": 480, "velocity": 96}, {"time": 97080, "pitch": 85, "duration": 360, "velocity": 83}, {"time": 97200, "pitch": 80, "duration": 240, "velocity": 76}, {"time": 97320, "pitch": 77, "duration": 120, "velocity": 70}, {"time": 97440, "pitch": 56, "duration": 960, "velocity": 96}, {"time": 97440, "pitch": 77, "duration": 360, "velocity": 100}, {"time": 97664, "pitch": 61, "duration": 736, "velocity": 89}, {"time": 97800, "pitch": 68, "duration": 600, "velocity": 89}, {"time": 97800, "pitch": 73, "duration": 600, "velocity": 100}, {"time": 97800, "pitch": 77, "duration": 600, "velocity": 105}, {"time": 97800, "pitch": 80, "duration": 600, "velocity": 110}, {"time": 98400, "pitch": 75, "duration": 840, "velocity": 96}, {"time": 98400, "pitch": 79, "duration": 840, "velocity": 96}, {"time": 98400, "pitch": 82, "duration": 840, "velocity": 96}, {"time": 98410, "pitch": 51, "duration": 830, "velocity": 96}, {"time": 98410, "pitch": 58, "duration": 830, "velocity": 96}, {"time": 99240, "pitch": 65, "duration": 112, "velocity": 120}, {"time": 99240, "pitch": 72, "duration": 316, "velocity": 120}, {"time": 99360, "pitch": 70, "duration": 360, "velocity": 78}, {"time": 99480, "pitch": 69, "duration": 240, "velocity": 91}, {"time": 99600, "pitch": 67, "duration": 120, "velocity": 96}, {"time": 99720, "pitch": 60, "duration": 70, "velocity": 96}, {"time": 99840, "pitch": 46, "duration": 200, "velocity": 120}, {"time": 99840, "pitch": 58, "duration": 200, "velocity": 74}, {"time": 99840, "pitch": 65, "duration": 200, "velocity": 91}, {"time": 100080, "pitch": 48, "duration": 200, "velocity": 96}, {"time": 100080, "pitch": 65, "duration": 200, "velocity": 88}, {"time": 100080, "pitch": 69, "duration": 200, "velocity": 121}, {"time": 100320, "pitch": 48, "duration": 1642, "velocity": 114}, {"time": 100320, "pitch": 72, "duration": 215, "velocity": 114}, {"time": 100440, "pitch": 62, "duration": 105, "velocity": 97}, {"time": 100560, "pitch": 64, "duration": 100, "velocity": 97}, {"time": 100680, "pitch": 67, "duration": 165, "velocity": 116}, {"time": 100800, "pitch": 47, "duration": 1118, "velocity": 127}, {"time": 100920, "pitch": 62, "duration": 80, "velocity": 112}, {"time": 101040, "pitch": 59, "duration": 365, "velocity": 114}, {"time": 101160, "pitch": 74, "duration": 95, "velocity": 127}, {"time": 101400, "pitch": 69, "duration": 95, "velocity": 127}, {"time": 101520, "pitch": 57, "duration": 215, "velocity": 95}, {"time": 101640, "pitch": 64, "duration": 145, "velocity": 127}, {"time": 101878, "pitch": 60, "duration": 129, "velocity": 127}, {"time": 101997, "pitch": 57, "duration": 84, "velocity": 77}, {"time": 102115, "pitch": 52, "duration": 109, "velocity": 95}, {"time": 102234, "pitch": 41, "duration": 1586, "velocity": 122}, {"time": 102234, "pitch": 57, "duration": 486, "velocity": 114}, {"time": 102234, "pitch": 60, "duration": 546, "velocity": 116}, {"time": 102234, "pitch": 65, "duration": 576, "velocity": 102}, {"time": 102234, "pitch": 69, "duration": 611, "velocity": 108}, {"time": 102477, "pitch": 48, "duration": 853, "velocity": 92}, {"time": 102598, "pitch": 45, "duration": 132, "velocity": 114}, {"time": 102720, "pitch": 53, "duration": 385, "velocity": 125}, {"time": 102840, "pitch": 45, "duration": 155, "velocity": 106}, {"time": 102960, "pitch": 45, "duration": 35, "velocity": 112}, {"time": 103080, "pitch": 67, "duration": 765, "velocity": 127}, {"time": 103200, "pitch": 50, "duration": 50, "velocity": 55}, {"time": 103320, "pitch": 59, "duration": 195, "velocity": 116}, {"time": 103440, "pitch": 50, "duration": 245, "velocity": 74}, {"time": 103560, "pitch": 55, "duration": 210, "velocity": 125}, {"time": 103800, "pitch": 50, "duration": 75, "velocity": 114}, {"time": 103920, "pitch": 47, "duration": 95, "velocity": 97}, {"time": 104040, "pitch": 43, "duration": 125, "velocity": 100}, {"time": 104160, "pitch": 45, "duration": 1815, "velocity": 116}, {"time": 104160, "pitch": 60, "duration": 430, "velocity": 119}, {"time": 104160, "pitch": 64, "duration": 545, "velocity": 110}, {"time": 104160, "pitch": 69, "duration": 555, "velocity": 112}, {"time": 104400, "pitch": 52, "duration": 1520, "velocity": 108}, {"time": 104520, "pitch": 57, "duration": 160, "velocity": 114}, {"time": 104640, "pitch": 55, "duration": 430, "velocity": 95}, {"time": 104760, "pitch": 57, "duration": 135, "velocity": 110}, {"time": 104880, "pitch": 60, "duration": 55, "velocity": 92}, {"time": 105000, "pitch": 69, "duration": 210, "velocity": 127}, {"time": 105240, "pitch": 65, "duration": 250, "velocity": 127}, {"time": 105480, "pitch": 60, "duration": 225, "velocity": 112}, {"time": 105720, "pitch": 57, "duration": 85, "velocity": 108}, {"time": 105960, "pitch": 53, "duration": 95, "velocity": 90}, {"time": 106080, "pitch": 38, "duration": 1915, "velocity": 116}, {"time": 106080, "pitch": 57, "duration": 425, "velocity": 90}, {"time": 106080, "pitch": 60, "duration": 435, "velocity": 97}, {"time": 106080, "pitch": 62, "duration": 530, "velocity": 88}, {"time": 106080, "pitch": 65, "duration": 560, "velocity": 112}, {"time": 106320, "pitch": 45, "duration": 1680, "velocity": 110}, {"time": 106440, "pitch": 53, "duration": 155, "velocity": 116}, {"time": 106680, "pitch": 50, "duration": 1310, "velocity": 127}, {"time": 106920, "pitch": 59, "duration": 120, "velocity": 110}, {"time": 107040, "pitch": 65, "duration": 80, "velocity": 127}, {"time": 107160, "pitch": 74, "duration": 140, "velocity": 127}, {"time": 107280, "pitch": 67, "duration": 115, "velocity": 116}, {"time": 107400, "pitch": 65, "duration": 125, "velocity": 108}, {"time": 107520, "pitch": 64, "duration": 90, "velocity": 112}, {"time": 107640, "pitch": 62, "duration": 100, "velocity": 108}, {"time": 107760, "pitch": 59, "duration": 115, "velocity": 108}, {"time": 107880, "pitch": 55, "duration": 50, "velocity": 106}, {"time": 108000, "pitch": 48, "duration": 1645, "velocity": 114}, {"time": 108000, "pitch": 72, "duration": 215, "velocity": 114}, {"time": 108120, "pitch": 62, "duration": 105, "velocity": 97}, {"time": 108240, "pitch": 64, "duration": 100, "velocity": 97}, {"time": 108360, "pitch": 67, "duration": 165, "velocity": 116}, {"time": 108480, "pitch": 47, "duration": 1120, "velocity": 127}, {"time": 108600, "pitch": 62, "duration": 80, "velocity": 112}, {"time": 108720, "pitch": 59, "duration": 365, "velocity": 114}, {"time": 108840, "pitch": 74, "duration": 95, "velocity": 127}, {"time": 109080, "pitch": 69, "duration": 95, "velocity": 127}, {"time": 109200, "pitch": 57, "duration": 215, "velocity": 95}, {"time": 109320, "pitch": 64, "duration": 145, "velocity": 127}, {"time": 109560, "pitch": 60, "duration": 130, "velocity": 127}, {"time": 109680, "pitch": 57, "duration": 85, "velocity": 77}, {"time": 109800, "pitch": 52, "duration": 110, "velocity": 95}, {"time": 109920, "pitch": 41, "duration": 1580, "velocity": 122}, {"time": 109920, "pitch": 57, "duration": 480, "velocity": 114}, {"time": 109920, "pitch": 60, "duration": 540, "velocity": 116}, {"time": 109920, "pitch": 65, "duration": 570, "velocity": 102}, {"time": 109920, "pitch": 69, "duration": 605, "velocity": 108}, {"time": 110160, "pitch": 48, "duration": 850, "velocity": 92}, {"time": 110280, "pitch": 45, "duration": 130, "velocity": 114}, {"time": 110400, "pitch": 53, "duration": 385, "velocity": 125}, {"time": 110520, "pitch": 45, "duration": 155, "velocity": 106}, {"time": 110640, "pitch": 45, "duration": 35, "velocity": 112}, {"time": 110760, "pitch": 67, "duration": 765, "velocity": 127}, {"time": 110880, "pitch": 50, "duration": 50, "velocity": 55}, {"time": 111000, "pitch": 59, "duration": 195, "velocity": 116}, {"time": 111120, "pitch": 50, "duration": 245, "velocity": 74}, {"time": 111240, "pitch": 55, "duration": 210, "velocity": 125}, {"time": 111480, "pitch": 50, "duration": 75, "velocity": 114}, {"time": 111600, "pitch": 47, "duration": 95, "velocity": 97}, {"time": 111720, "pitch": 43, "duration": 125, "velocity": 100}, {"time": 111840, "pitch": 45, "duration": 1815, "velocity": 116}, {"time": 111840, "pitch": 60, "duration": 430, "velocity": 119}, {"time": 111840, "pitch": 64, "duration": 545, "velocity": 110}, {"time": 111840, "pitch": 69, "duration": 555, "velocity": 112}, {"time": 112080, "pitch": 52, "duration": 1520, "velocity": 108}, {"time": 112200, "pitch": 57, "duration": 160, "velocity": 114}, {"time": 112320, "pitch": 55, "duration": 430, "velocity": 95}, {"time": 112440, "pitch": 57, "duration": 135, "velocity": 110}, {"time": 112560, "pitch": 60, "duration": 55, "velocity": 92}, {"time": 112680, "pitch": 69, "duration": 210, "velocity": 127}, {"time": 112920, "pitch": 65, "duration": 250, "velocity": 127}, {"time": 113160, "pitch": 60, "duration": 225, "velocity": 112}, {"time": 113400, "pitch": 57, "duration": 85, "velocity": 108}, {"time": 113640, "pitch": 53, "duration": 95, "velocity": 90}, {"time": 113760, "pitch": 38, "duration": 1915, "velocity": 116}, {"time": 113760, "pitch": 57, "duration": 425, "velocity": 90}, {"time": 113760, "pitch": 60, "duration": 435, "velocity": 97}, {"time": 113760, "pitch": 62, "duration": 530, "velocity": 88}, {"time": 113760, "pitch": 65, "duration": 560, "velocity": 112}, {"time": 114000, "pitch": 45, "duration": 1680, "velocity": 110}, {"time": 114120, "pitch": 53, "duration": 155, "velocity": 116}, {"time": 114360, "pitch": 50, "duration": 1310, "velocity": 127}, {"time": 114600, "pitch": 59, "duration": 120, "velocity": 110}, {"time": 114720, "pitch": 65, "duration": 80, "velocity": 127}, {"time": 114840, "pitch": 74, "duration": 140, "velocity": 127}, {"time": 114960, "pitch": 67, "duration": 115, "velocity": 116}, {"time": 115080, "pitch": 65, "duration": 125, "velocity": 108}, {"time": 115200, "pitch": 64, "duration": 90, "velocity": 112}, {"time": 115320, "pitch": 62, "duration": 100, "velocity": 108}, {"time": 115440, "pitch": 59, "duration": 115, "velocity": 108}, {"time": 115560, "pitch": 55, "duration": 50, "velocity": 106}, {"time": 115680, "pitch": 41, "duration": 1715, "velocity": 116}, {"time": 115680, "pitch": 53, "duration": 260, "velocity": 102}, {"time": 115680, "pitch": 56, "duration": 205, "velocity": 112}, {"time": 115680, "pitch": 60, "duration": 225, "velocity": 108}, {"time": 116160, "pitch": 53, "duration": 425, "velocity": 74}, {"time": 116280, "pitch": 56, "duration": 125, "velocity": 86}, {"time": 116400, "pitch": 65, "duration": 150, "velocity": 127}, {"time": 116520, "pitch": 72, "duration": 70, "velocity": 127}, {"time": 116880, "pitch": 53, "duration": 375, "velocity": 95}, {"time": 117000, "pitch": 56, "duration": 175, "velocity": 92}, {"time": 117240, "pitch": 60, "duration": 235, "velocity": 127}, {"time": 117360, "pitch": 53, "duration": 135, "velocity": 95}, {"time": 117600, "pitch": 40, "duration": 750, "velocity": 78}, {"time": 117600, "pitch": 48, "duration": 690, "velocity": 110}, {"time": 117600, "pitch": 52, "duration": 335, "velocity": 114}, {"time": 117600, "pitch": 60, "duration": 350, "velocity": 97}, {"time": 117600, "pitch": 64, "duration": 315, "velocity": 106}, {"time": 117960, "pitch": 52, "duration": 870, "velocity": 119}, {"time": 117960, "pitch": 55, "duration": 890, "velocity": 112}, {"time": 117960, "pitch": 60, "duration": 925, "velocity": 119}, {"time": 118320, "pitch": 40, "duration": 30, "velocity": 92}, {"time": 118800, "pitch": 48, "duration": 430, "velocity": 77}, {"time": 118920, "pitch": 52, "duration": 205, "velocity": 127}, {"time": 119160, "pitch": 55, "duration": 100, "velocity": 127}, {"time": 119400, "pitch": 48, "duration": 65, "velocity": 72}, {"time": 119520, "pitch": 61, "duration": 1822, "velocity": 77}, {"time": 119520, "pitch": 65, "duration": 1864, "velocity": 85}, {"time": 119520, "pitch": 68, "duration": 1841, "velocity": 68}, {"time": 119520, "pitch": 73, "duration": 212, "velocity": 83}, {"time": 119520, "pitch": 77, "duration": 209, "velocity": 88}, {"time": 119520, "pitch": 80, "duration": 245, "velocity": 83}, {"time": 120120, "pitch": 80, "duration": 105, "velocity": 67}, {"time": 120240, "pitch": 85, "duration": 60, "velocity": 77}, {"time": 120360, "pitch": 92, "duration": 137, "velocity": 117}, {"time": 120480, "pitch": 89, "duration": 88, "velocity": 112}, {"time": 120600, "pitch": 85, "duration": 97, "velocity": 117}, {"time": 120720, "pitch": 80, "duration": 78, "velocity": 108}, {"time": 120840, "pitch": 77, "duration": 70, "velocity": 67}, {"time": 120960, "pitch": 73, "duration": 108, "velocity": 79}, {"time": 121080, "pitch": 77, "duration": 112, "velocity": 93}, {"time": 121320, "pitch": 80, "duration": 97, "velocity": 97}, {"time": 121440, "pitch": 63, "duration": 439, "velocity": 73}, {"time": 121440, "pitch": 70, "duration": 502, "velocity": 72}, {"time": 121440, "pitch": 75, "duration": 256, "velocity": 73}, {"time": 121440, "pitch": 79, "duration": 261, "velocity": 95}, {"time": 121440, "pitch": 82, "duration": 248, "velocity": 85}, {"time": 122040, "pitch": 63, "duration": 66, "velocity": 88}, {"time": 122040, "pitch": 70, "duration": 58, "velocity": 90}, {"time": 122040, "pitch": 75, "duration": 40, "velocity": 108}, {"time": 122040, "pitch": 79, "duration": 49, "velocity": 88}, {"time": 122040, "pitch": 87, "duration": 65, "velocity": 102}, {"time": 122280, "pitch": 63, "duration": 79, "velocity": 75}, {"time": 122280, "pitch": 70, "duration": 76, "velocity": 72}, {"time": 122280, "pitch": 75, "duration": 63, "velocity": 95}, {"time": 122280, "pitch": 79, "duration": 65, "velocity": 83}, {"time": 122280, "pitch": 82, "duration": 79, "velocity": 90}, {"time": 122520, "pitch": 63, "duration": 612, "velocity": 65}, {"time": 122520, "pitch": 70, "duration": 423, "velocity": 62}, {"time": 122520, "pitch": 75, "duration": 563, "velocity": 73}, {"time": 122520, "pitch": 79, "duration": 560, "velocity": 88}, {"time": 123360, "pitch": 61, "duration": 1822, "velocity": 77}, {"time": 123360, "pitch": 65, "duration": 1864, "velocity": 85}, {"time": 123360, "pitch": 68, "duration": 1841, "velocity": 68}, {"time": 123360, "pitch": 73, "duration": 212, "velocity": 83}, {"time": 123360, "pitch": 77, "duration": 209, "velocity": 88}, {"time": 123360, "pitch": 80, "duration": 245, "velocity": 83}, {"time": 123960, "pitch": 80, "duration": 105, "velocity": 67}, {"time": 124080, "pitch": 85, "duration": 60, "velocity": 77}, {"time": 124200, "pitch": 92, "duration": 137, "velocity": 117}, {"time": 124320, "pitch": 97, "duration": 88, "velocity": 112}, {"time": 124440, "pitch": 92, "duration": 97, "velocity": 117}, {"time": 124560, "pitch": 89, "duration": 78, "velocity": 108}, {"time": 124680, "pitch": 85, "duration": 70, "velocity": 67}, {"time": 124800, "pitch": 80, "duration": 108, "velocity": 79}, {"time": 124920, "pitch": 77, "duration": 112, "velocity": 93}, {"time": 125160, "pitch": 73, "duration": 97, "velocity": 97}, {"time": 125280, "pitch": 63, "duration": 439, "velocity": 73}, {"time": 125280, "pitch": 70, "duration": 502, "velocity": 72}, {"time": 125280, "pitch": 75, "duration": 256, "velocity": 73}, {"time": 125280, "pitch": 79, "duration": 261, "velocity": 95}, {"time": 125280, "pitch": 82, "duration": 248, "velocity": 85}, {"time": 125880, "pitch": 63, "duration": 66, "velocity": 88}, {"time": 125880, "pitch": 70, "duration": 58, "velocity": 90}, {"time": 125880, "pitch": 75, "duration": 40, "velocity": 108}, {"time": 125880, "pitch": 79, "duration": 49, "velocity": 88}, {"time": 125880, "pitch": 87, "duration": 65, "velocity": 102}, {"time": 126120, "pitch": 63, "duration": 79, "velocity": 75}, {"time": 126120, "pitch": 70, "duration": 76, "velocity": 72}, {"time": 126120, "pitch": 75, "duration": 63, "velocity": 95}, {"time": 126120, "pitch": 79, "duration": 65, "velocity": 83}, {"time": 126120, "pitch": 82, "duration": 79, "velocity": 90}, {"time": 126360, "pitch": 63, "duration": 612, "velocity": 65}, {"time": 126360, "pitch": 70, "duration": 423, "velocity": 62}, {"time": 126360, "pitch": 75, "duration": 563, "velocity": 73}, {"time": 126360, "pitch": 79, "duration": 560, "velocity": 88}, {"time": 127200, "pitch": 61, "duration": 1822, "velocity": 77}, {"time": 127200, "pitch": 65, "duration": 1864, "velocity": 85}, {"time": 127200, "pitch": 68, "duration": 1841, "velocity": 68}, {"time": 127200, "pitch": 73, "duration": 212, "velocity": 83}, {"time": 127200, "pitch": 77, "duration": 209, "velocity": 88}, {"time": 127200, "pitch": 80, "duration": 245, "velocity": 83}, {"time": 127800, "pitch": 80, "duration": 105, "velocity": 67}, {"time": 127920, "pitch": 85, "duration": 60, "velocity": 77}, {"time": 128040, "pitch": 92, "duration": 137, "velocity": 117}, {"time": 128160, "pitch": 97, "duration": 88, "velocity": 112}, {"time": 128280, "pitch": 92, "duration": 97, "velocity": 117}, {"time": 128400, "pitch": 89, "duration": 78, "velocity": 108}, {"time": 128520, "pitch": 85, "duration": 70, "velocity": 67}, {"time": 128640, "pitch": 80, "duration": 108, "velocity": 79}, {"time": 128760, "pitch": 77, "duration": 112, "velocity": 93}, {"time": 129000, "pitch": 73, "duration": 97, "velocity": 97}, {"time": 129120, "pitch": 63, "duration": 439, "velocity": 73}, {"time": 129120, "pitch": 70, "duration": 502, "velocity": 72}, {"time": 129120, "pitch": 75, "duration": 256, "velocity": 73}, {"time": 129120, "pitch": 79, "duration": 261, "velocity": 95}, {"time": 129120, "pitch": 82, "duration": 248, "velocity": 85}, {"time": 129720, "pitch": 63, "duration": 66, "velocity": 88}, {"time": 129720, "pitch": 70, "duration": 58, "velocity": 90}, {"time": 129720, "pitch": 75, "duration": 40, "velocity": 108}, {"time": 129720, "pitch": 79, "duration": 49, "velocity": 88}, {"time": 129720, "pitch": 87, "duration": 65, "velocity": 102}, {"time": 129960, "pitch": 63, "duration": 79, "velocity": 75}, {"time": 129960, "pitch": 70, "duration": 76, "velocity": 72}, {"time": 129960, "pitch": 75, "duration": 63, "velocity": 95}, {"time": 129960, "pitch": 79, "duration": 65, "velocity": 83}, {"time": 129960, "pitch": 82, "duration": 79, "velocity": 90}, {"time": 130200, "pitch": 63, "duration": 612, "velocity": 65}, {"time": 130200, "pitch": 70, "duration": 423, "velocity": 62}, {"time": 130200, "pitch": 75, "duration": 563, "velocity": 73}, {"time": 130200, "pitch": 79, "duration": 560, "velocity": 88}, {"time": 131040, "pitch": 53, "duration": 960, "velocity": 92}, {"time": 131280, "pitch": 60, "duration": 720, "velocity": 74}, {"time": 131400, "pitch": 69, "duration": 600, "velocity": 78}, {"time": 131400, "pitch": 96, "duration": 600, "velocity": 100}, {"time": 131520, "pitch": 93, "duration": 480, "velocity": 96}, {"time": 131640, "pitch": 89, "duration": 360, "velocity": 83}, {"time": 131760, "pitch": 84, "duration": 240, "velocity": 76}, {"time": 131880, "pitch": 81, "duration": 120, "velocity": 70}, {"time": 132000, "pitch": 60, "duration": 960, "velocity": 96}, {"time": 132000, "pitch": 81, "duration": 360, "velocity": 100}, {"time": 132224, "pitch": 65, "duration": 736, "velocity": 89}, {"time": 132360, "pitch": 72, "duration": 600, "velocity": 89}, {"time": 132360, "pitch": 77, "duration": 600, "velocity": 100}, {"time": 132360, "pitch": 81, "duration": 600, "velocity": 105}, {"time": 132360, "pitch": 84, "duration": 600, "velocity": 110}, {"time": 132960, "pitch": 77, "duration": 840, "velocity": 96}, {"time": 132960, "pitch": 81, "duration": 840, "velocity": 96}, {"time": 132960, "pitch": 84, "duration": 840, "velocity": 96}, {"time": 132970, "pitch": 53, "duration": 830, "velocity": 96}, {"time": 132970, "pitch": 60, "duration": 830, "velocity": 96}, {"time": 133800, "pitch": 65, "duration": 112, "velocity": 120}, {"time": 133800, "pitch": 72, "duration": 316, "velocity": 120}, {"time": 133920, "pitch": 70, "duration": 360, "velocity": 78}, {"time": 134040, "pitch": 69, "duration": 240, "velocity": 91}, {"time": 134160, "pitch": 67, "duration": 120, "velocity": 96}, {"time": 134280, "pitch": 60, "duration": 70, "velocity": 96}, {"time": 134400, "pitch": 46, "duration": 200, "velocity": 120}, {"time": 134400, "pitch": 58, "duration": 200, "velocity": 74}, {"time": 134400, "pitch": 65, "duration": 200, "velocity": 91}, {"time": 134640, "pitch": 48, "duration": 200, "velocity": 96}, {"time": 134640, "pitch": 65, "duration": 200, "velocity": 88}, {"time": 134640, "pitch": 69, "duration": 200, "velocity": 121}, {"time": 134880, "pitch": 52, "duration": 384, "velocity": 127}, {"time": 134880, "pitch": 60, "duration": 368, "velocity": 113}, {"time": 134880, "pitch": 67, "duration": 382, "velocity": 117}, {"time": 134880, "pitch": 72, "duration": 368, "velocity": 113}, {"time": 135360, "pitch": 50, "duration": 330, "velocity": 127}, {"time": 135360, "pitch": 59, "duration": 315, "velocity": 117}, {"time": 135360, "pitch": 67, "duration": 334, "velocity": 122}, {"time": 135360, "pitch": 71, "duration": 315, "velocity": 117}, {"time": 135840, "pitch": 48, "duration": 480, "velocity": 127}, {"time": 135840, "pitch": 57, "duration": 480, "velocity": 122}, {"time": 135840, "pitch": 64, "duration": 480, "velocity": 127}, {"time": 135840, "pitch": 69, "duration": 480, "velocity": 122}, {"time": 136800, "pitch": 41, "duration": 1580, "velocity": 122}, {"time": 136800, "pitch": 57, "duration": 480, "velocity": 114}, {"time": 136800, "pitch": 60, "duration": 540, "velocity": 116}, {"time": 136800, "pitch": 65, "duration": 570, "velocity": 102}, {"time": 136800, "pitch": 69, "duration": 605, "velocity": 108}, {"time": 137040, "pitch": 48, "duration": 850, "velocity": 92}, {"time": 137160, "pitch": 45, "duration": 130, "velocity": 114}, {"time": 137280, "pitch": 53, "duration": 385, "velocity": 125}, {"time": 137400, "pitch": 45, "duration": 155, "velocity": 106}, {"time": 137520, "pitch": 45, "duration": 35, "velocity": 112}, {"time": 137640, "pitch": 67, "duration": 765, "velocity": 127}, {"time": 137760, "pitch": 50, "duration": 50, "velocity": 55}, {"time": 137880, "pitch": 59, "duration": 195, "velocity": 116}, {"time": 138000, "pitch": 50, "duration": 245, "velocity": 74}, {"time": 138120, "pitch": 55, "duration": 210, "velocity": 125}, {"time": 138360, "pitch": 50, "duration": 75, "velocity": 114}, {"time": 138480, "pitch": 47, "duration": 95, "velocity": 97}, {"time": 138600, "pitch": 43, "duration": 125, "velocity": 100}, {"time": 138720, "pitch": 45, "duration": 1815, "velocity": 116}, {"time": 138720, "pitch": 60, "duration": 430, "velocity": 119}, {"time": 138720, "pitch": 64, "duration": 545, "velocity": 110}, {"time": 138720, "pitch": 69, "duration": 555, "velocity": 112}, {"time": 138960, "pitch": 52, "duration": 1520, "velocity": 108}, {"time": 139080, "pitch": 57, "duration": 160, "velocity": 114}, {"time": 139200, "pitch": 55, "duration": 430, "velocity": 95}, {"time": 139320, "pitch": 57, "duration": 135, "velocity": 110}, {"time": 139440, "pitch": 60, "duration": 55, "velocity": 92}, {"time": 139560, "pitch": 69, "duration": 210, "velocity": 127}, {"time": 139800, "pitch": 65, "duration": 250, "velocity": 127}, {"time": 140040, "pitch": 60, "duration": 225, "velocity": 112}, {"time": 140280, "pitch": 57, "duration": 85, "velocity": 108}, {"time": 140520, "pitch": 53, "duration": 95, "velocity": 90}, {"time": 140640, "pitch": 38, "duration": 1915, "velocity": 116}, {"time": 140640, "pitch": 57, "duration": 425, "velocity": 90}, {"time": 140640, "pitch": 60, "duration": 435, "velocity": 97}, {"time": 140640, "pitch": 62, "duration": 530, "velocity": 88}, {"time": 140640, "pitch": 65, "duration": 560, "velocity": 112}, {"time": 140880, "pitch": 45, "duration": 1680, "velocity": 110}, {"time": 141000, "pitch": 53, "duration": 155, "velocity": 116}, {"time": 141240, "pitch": 50, "duration": 1310, "velocity": 127}, {"time": 141480, "pitch": 59, "duration": 120, "velocity": 110}, {"time": 141600, "pitch": 65, "duration": 80, "velocity": 127}, {"time": 141720, "pitch": 74, "duration": 140, "velocity": 127}, {"time": 141840, "pitch": 67, "duration": 115, "velocity": 116}, {"time": 141960, "pitch": 65, "duration": 125, "velocity": 108}, {"time": 142080, "pitch": 64, "duration": 90, "velocity": 112}, {"time": 142200, "pitch": 62, "duration": 100, "velocity": 108}, {"time": 142320, "pitch": 59, "duration": 115, "velocity": 108}, {"time": 142440, "pitch": 55, "duration": 50, "velocity": 106}, {"time": 142560, "pitch": 48, "duration": 1645, "velocity": 114}, {"time": 142560, "pitch": 72, "duration": 215, "velocity": 114}, {"time": 142680, "pitch": 62, "duration": 105, "velocity": 97}, {"time": 142800, "pitch": 64, "duration": 100, "velocity": 97}, {"time": 142920, "pitch": 67, "duration": 165, "velocity": 116}, {"time": 143040, "pitch": 47, "duration": 1120, "velocity": 127}, {"time": 143160, "pitch": 62, "duration": 80, "velocity": 112}, {"time": 143280, "pitch": 59, "duration": 365, "velocity": 114}, {"time": 143400, "pitch": 74, "duration": 95, "velocity": 127}, {"time": 143640, "pitch": 69, "duration": 95, "velocity": 127}, {"time": 143760, "pitch": 57, "duration": 215, "velocity": 95}, {"time": 143880, "pitch": 64, "duration": 145, "velocity": 127}, {"time": 144120, "pitch": 60, "duration": 130, "velocity": 127}, {"time": 144240, "pitch": 57, "duration": 85, "velocity": 77}, {"time": 144360, "pitch": 52, "duration": 110, "velocity": 95}, {"time": 144480, "pitch": 41, "duration": 1580, "velocity": 122}, {"time": 144480, "pitch": 57, "duration": 480, "velocity": 114}, {"time": 144480, "pitch": 60, "duration": 540, "velocity": 116}, {"time": 144480, "pitch": 65, "duration": 570, "velocity": 102}, {"time": 144480, "pitch": 69, "duration": 605, "velocity": 108}, {"time": 144720, "pitch": 48, "duration": 850, "velocity": 92}, {"time": 144840, "pitch": 45, "duration": 130, "velocity": 114}, {"time": 144960, "pitch": 53, "duration": 385, "velocity": 125}, {"time": 145080, "pitch": 45, "duration": 155, "velocity": 106}, {"time": 145200, "pitch": 45, "duration": 35, "velocity": 112}, {"time": 145320, "pitch": 67, "duration": 765, "velocity": 127}, {"time": 145440, "pitch": 50, "duration": 50, "velocity": 55}, {"time": 145560, "pitch": 59, "duration": 195, "velocity": 116}, {"time": 145680, "pitch": 50, "duration": 245, "velocity": 74}, {"time": 145800, "pitch": 55, "duration": 210, "velocity": 125}, {"time": 146040, "pitch": 50, "duration": 75, "velocity": 114}, {"time": 146160, "pitch": 47, "duration": 95, "velocity": 97}, {"time": 146280, "pitch": 43, "duration": 125, "velocity": 100}, {"time": 146400, "pitch": 45, "duration": 1815, "velocity": 116}, {"time": 146400, "pitch": 60, "duration": 430, "velocity": 119}, {"time": 146400, "pitch": 64, "duration": 545, "velocity": 110}, {"time": 146400, "pitch": 69, "duration": 555, "velocity": 112}, {"time": 146640, "pitch": 52, "duration": 1520, "velocity": 108}, {"time": 146760, "pitch": 57, "duration": 160, "velocity": 114}, {"time": 146880, "pitch": 55, "duration": 430, "velocity": 95}, {"time": 147000, "pitch": 57, "duration": 135, "velocity": 110}, {"time": 147120, "pitch": 60, "duration": 55, "velocity": 92}, {"time": 147240, "pitch": 69, "duration": 210, "velocity": 127}, {"time": 147480, "pitch": 65, "duration": 250, "velocity": 127}, {"time": 147720, "pitch": 60, "duration": 225, "velocity": 112}, {"time": 147960, "pitch": 57, "duration": 85, "velocity": 108}, {"time": 148200, "pitch": 53, "duration": 95, "velocity": 90}, {"time": 148320, "pitch": 38, "duration": 1915, "velocity": 116}, {"time": 148320, "pitch": 57, "duration": 425, "velocity": 90}, {"time": 148320, "pitch": 60, "duration": 435, "velocity": 97}, {"time": 148320, "pitch": 62, "duration": 530, "velocity": 88}, {"time": 148320, "pitch": 65, "duration": 560, "velocity": 112}, {"time": 148560, "pitch": 45, "duration": 1680, "velocity": 110}, {"time": 148680, "pitch": 53, "duration": 155, "velocity": 116}, {"time": 148920, "pitch": 50, "duration": 1310, "velocity": 127}, {"time": 149160, "pitch": 59, "duration": 120, "velocity": 110}, {"time": 149280, "pitch": 65, "duration": 80, "velocity": 127}, {"time": 149400, "pitch": 74, "duration": 140, "velocity": 127}, {"time": 149520, "pitch": 67, "duration": 115, "velocity": 116}, {"time": 149640, "pitch": 65, "duration": 125, "velocity": 108}, {"time": 149760, "pitch": 64, "duration": 90, "velocity": 112}, {"time": 149880, "pitch": 62, "duration": 100, "velocity": 108}, {"time": 150000, "pitch": 59, "duration": 115, "velocity": 108}, {"time": 150120, "pitch": 55, "duration": 50, "velocity": 106}, {"time": 150240, "pitch": 41, "duration": 1715, "velocity": 116}, {"time": 150240, "pitch": 53, "duration": 260, "velocity": 102}, {"time": 150240, "pitch": 56, "duration": 205, "velocity": 112}, {"time": 150240, "pitch": 60, "duration": 225, "velocity": 108}, {"time": 150720, "pitch": 53, "duration": 425, "velocity": 74}, {"time": 150840, "pitch": 56, "duration": 125, "velocity": 86}, {"time": 150960, "pitch": 65, "duration": 150, "velocity": 127}, {"time": 151080, "pitch": 72, "duration": 70, "velocity": 127}, {"time": 151440, "pitch": 53, "duration": 375, "velocity": 95}, {"time": 151560, "pitch": 56, "duration": 175, "velocity": 92}, {"time": 151800, "pitch": 60, "duration": 235, "velocity": 127}, {"time": 151920, "pitch": 53, "duration": 135, "velocity": 95}, {"time": 152160, "pitch": 40, "duration": 750, "velocity": 78}, {"time": 152160, "pitch": 48, "duration": 690, "velocity": 110}, {"time": 152160, "pitch": 52, "duration": 335, "velocity": 114}, {"time": 152160, "pitch": 60, "duration": 350, "velocity": 97}, {"time": 152160, "pitch": 64, "duration": 315, "velocity": 106}, {"time": 152520, "pitch": 52, "duration": 870, "velocity": 119}, {"time": 152520, "pitch": 55, "duration": 890, "velocity": 112}, {"time": 152520, "pitch": 60, "duration": 925, "velocity": 119}, {"time": 152880, "pitch": 40, "duration": 30, "velocity": 92}, {"time": 153360, "pitch": 48, "duration": 430, "velocity": 77}, {"time": 153480, "pitch": 52, "duration": 205, "velocity": 127}, {"time": 153720, "pitch": 55, "duration": 100, "velocity": 127}, {"time": 153960, "pitch": 48, "duration": 65, "velocity": 72}, {"time": 154080, "pitch": 48, "duration": 1840, "velocity": 110}, {"time": 154080, "pitch": 56, "duration": 1025, "velocity": 114}, {"time": 154080, "pitch": 60, "duration": 1210, "velocity": 112}, {"time": 154080, "pitch": 62, "duration": 1215, "velocity": 112}, {"time": 154080, "pitch": 67, "duration": 295, "velocity": 112}, {"time": 154440, "pitch": 65, "duration": 915, "velocity": 112}, {"time": 155280, "pitch": 56, "duration": 520, "velocity": 90}, {"time": 155400, "pitch": 60, "duration": 190, "velocity": 127}, {"time": 155640, "pitch": 62, "duration": 360, "velocity": 127}, {"time": 155880, "pitch": 56, "duration": 80, "velocity": 66}, {"time": 156000, "pitch": 48, "duration": 1620, "velocity": 90}, {"time": 156000, "pitch": 55, "duration": 240, "velocity": 97}, {"time": 156000, "pitch": 60, "duration": 540, "velocity": 92}, {"time": 156000, "pitch": 64, "duration": 595, "velocity": 78}, {"time": 156480, "pitch": 55, "duration": 115, "velocity": 102}, {"time": 156600, "pitch": 57, "duration": 230, "velocity": 127}, {"time": 156600, "pitch": 60, "duration": 270, "velocity": 127}, {"time": 156600, "pitch": 65, "duration": 320, "velocity": 127}, {"time": 156960, "pitch": 58, "duration": 235, "velocity": 92}, {"time": 156960, "pitch": 60, "duration": 275, "velocity": 112}, {"time": 156960, "pitch": 67, "duration": 315, "velocity": 114}, {"time": 157320, "pitch": 57, "duration": 220, "velocity": 72}, {"time": 157320, "pitch": 60, "duration": 200, "velocity": 78}, {"time": 157320, "pitch": 65, "duration": 220, "velocity": 84}, {"time": 157560, "pitch": 55, "duration": 335, "velocity": 100}, {"time": 157560, "pitch": 60, "duration": 275, "velocity": 90}, {"time": 157560, "pitch": 64, "duration": 305, "velocity": 95}, {"time": 157800, "pitch": 48, "duration": 120, "velocity": 34}, {"time": 157920, "pitch": 56, "duration": 235, "velocity": 127}, {"time": 157920, "pitch": 60, "duration": 310, "velocity": 119}, {"time": 157920, "pitch": 62, "duration": 320, "velocity": 112}, {"time": 157920, "pitch": 67, "duration": 315, "velocity": 114}, {"time": 158280, "pitch": 60, "duration": 60, "velocity": 102}, {"time": 158280, "pitch": 62, "duration": 65, "velocity": 95}, {"time": 158280, "pitch": 65, "duration": 85, "velocity": 110}, {"time": 158400, "pitch": 56, "duration": 365, "velocity": 122}, {"time": 158640, "pitch": 68, "duration": 35, "velocity": 106}, {"time": 158640, "pitch": 72, "duration": 45, "velocity": 108}, {"time": 158640, "pitch": 74, "duration": 40, "velocity": 95}, {"time": 158640, "pitch": 77, "duration": 40, "velocity": 112}, {"time": 159120, "pitch": 56, "duration": 430, "velocity": 110}, {"time": 159240, "pitch": 60, "duration": 85, "velocity": 127}, {"time": 159480, "pitch": 62, "duration": 360, "velocity": 127}, {"time": 159720, "pitch": 56, "duration": 60, "velocity": 66}, {"time": 159840, "pitch": 48, "duration": 1660, "velocity": 114}, {"time": 159840, "pitch": 55, "duration": 1670, "velocity": 110}, {"time": 159840, "pitch": 60, "duration": 645, "velocity": 110}, {"time": 159840, "pitch": 64, "duration": 665, "velocity": 97}], "annotations": [{"time": 264, "annotation": {"number": 0, "value": 0}, "group": "control_change"}, {"time": 288, "annotation": {"number": 32, "value": 2}, "group": "control_change"}, {"time": 336, "annotation": {"number": 7, "value": 100}, "group": "control_change"}, {"time": 360, "annotation": {"number": 11, "value": 127}, "group": "control_change"}, {"time": 384, "annotation": {"number": 10, "value": 44}, "group": "control_change"}, {"time": 408, "annotation": {"number": 91, "value": 30}, "group": "control_change"}, {"time": 432, "annotation": {"number": 93, "value": 64}, "group": "control_change"}, {"time": 456, "annotation": {"number": 101, "value": 0}, "group": "control_change"}, {"time": 480, "annotation": {"number": 100, "value": 0}, "group": "control_change"}, {"time": 480, "annotation": {"number": 6, "value": 2}, "group": "control_change"}, {"time": 480, "annotation": {"number": 101, "value": 127}, "group": "control_change"}, {"time": 480, "annotation": {"number": 100, "value": 127}, "group": "control_change"}, {"time": 38895, "annotation": {"number": 64, "value": 127}, "group": "control_change"}, {"time": 40795, "annotation": {"number": 64, "value": 0}, "group": "control_change"}, {"time": 40805, "annotation": {"number": 64, "value": 127}, "group": "control_change"}, {"time": 42715, "annotation": {"number": 64, "value": 0}, "group": "control_change"}, {"time": 42790, "annotation": {"number": 64, "value": 127}, "group": "control_change"}, {"time": 44650, "annotation": {"number": 64, "value": 0}, "group": "control_change"}, {"time": 44800, "annotation": {"number": 64, "value": 127}, "group": "control_change"}, {"time": 46555, "annotation": {"number": 64, "value": 0}, "group": "control_change"}, {"time": 46800, "annotation": {"number": 64, "value": 127}, "group": "control_change"}, {"time": 48490, "annotation": {"number": 64, "value": 0}, "group": "control_change"}, {"time": 48625, "annotation": {"number": 64, "value": 127}, "group": "control_change"}, {"time": 50395, "annotation": {"number": 64, "value": 0}, "group": "control_change"}, {"time": 50470, "annotation": {"number": 64, "value": 127}, "group": "control_change"}, {"time": 52330, "annotation": {"number": 64, "value": 0}, "group": "control_change"}, {"time": 52480, "annotation": {"number": 64, "value": 127}, "group": "control_change"}, {"time": 54235, "annotation": {"number": 64, "value": 0}, "group": "control_change"}, {"time": 54480, "annotation": {"number": 64, "value": 127}, "group": "control_change"}, {"time": 56170, "annotation": {"number": 64, "value": 0}, "group": "control_change"}, {"time": 56305, "annotation": {"number": 64, "value": 127}, "group": "control_change"}, {"time": 58075, "annotation": {"number": 64, "value": 0}, "group": "control_change"}, {"time": 58155, "annotation": {"number": 64, "value": 127}, "group": "control_change"}, {"time": 59980, "annotation": {"number": 64, "value": 0}, "group": "control_change"}, {"time": 60150, "annotation": {"number": 64, "value": 127}, "group": "control_change"}, {"time": 60350, "annotation": {"number": 64, "value": 0}, "group": "control_change"}, {"time": 60555, "annotation": {"number": 64, "value": 127}, "group": "control_change"}, {"time": 61925, "annotation": {"number": 64, "value": 0}, "group": "control_change"}, {"time": 62145, "annotation": {"number": 64, "value": 127}, "group": "control_change"}, {"time": 62295, "annotation": {"number": 64, "value": 0}, "group": "control_change"}, {"time": 62465, "annotation": {"number": 64, "value": 127}, "group": "control_change"}, {"time": 63850, "annotation": {"number": 64, "value": 0}, "group": "control_change"}, {"time": 64040, "annotation": {"number": 64, "value": 127}, "group": "control_change"}, {"time": 64480, "annotation": {"number": 64, "value": 0}, "group": "control_change"}, {"time": 64610, "annotation": {"number": 64, "value": 127}, "group": "control_change"}, {"time": 64800, "annotation": {"number": 64, "value": 0}, "group": "control_change"}, {"time": 64950, "annotation": {"number": 64, "value": 127}, "group": "control_change"}, {"time": 65120, "annotation": {"number": 64, "value": 0}, "group": "control_change"}, {"time": 65240, "annotation": {"number": 64, "value": 127}, "group": "control_change"}, {"time": 65375, "annotation": {"number": 64, "value": 0}, "group": "control_change"}, {"time": 65495, "annotation": {"number": 64, "value": 127}, "group": "control_change"}, {"time": 65680, "annotation": {"number": 64, "value": 0}, "group": "control_change"}, {"time": 65760, "annotation": {"number": 64, "value": 127}, "group": "control_change"}, {"time": 65765, "annotation": {"number": 64, "value": 0}, "group": "control_change"}, {"time": 65970, "annotation": {"number": 64, "value": 127}, "group": "control_change"}, {"time": 67680, "annotation": {"number": 64, "value": 0}, "group": "control_change"}, {"time": 67915, "annotation": {"number": 64, "value": 127}, "group": "control_change"}, {"time": 69595, "annotation": {"number": 64, "value": 0}, "group": "control_change"}, {"time": 69600, "annotation": {"number": 91, "value": 40}, "group": "control_change"}, {"time": 69600, "annotation": {"number": 93, "value": 0}, "group": "control_change"}, {"time": 69600, "annotation": {"number": 94, "value": 0}, "group": "control_change"}, {"time": 69600, "annotation": {"number": 0, "value": 8}, "group": "control_change"}, {"time": 69600, "annotation": {"number": 7, "value": 100}, "group": "control_change"}, {"time": 69600, "annotation": {"number": 32, "value": 0}, "group": "control_change"}, {"time": 69620, "annotation": {"number": 64, "value": 127}, "group": "control_change"}, {"time": 70544, "annotation": {"number": 64, "value": 0}, "group": "control_change"}, {"time": 70659, "annotation": {"number": 64, "value": 127}, "group": "control_change"}, {"time": 71494, "annotation": {"number": 64, "value": 0}, "group": "control_change"}, {"time": 71633, "annotation": {"number": 64, "value": 127}, "group": "control_change"}, {"time": 72467, "annotation": {"number": 64, "value": 0}, "group": "control_change"}, {"time": 72577, "annotation": {"number": 64, "value": 127}, "group": "control_change"}, {"time": 73391, "annotation": {"number": 64, "value": 0}, "group": "control_change"}, {"time": 73516, "annotation": {"number": 64, "value": 127}, "group": "control_change"}, {"time": 74387, "annotation": {"number": 64, "value": 0}, "group": "control_change"}, {"time": 74495, "annotation": {"number": 64, "value": 127}, "group": "control_change"}, {"time": 74574, "annotation": {"number": 64, "value": 0}, "group": "control_change"}, {"time": 74636, "annotation": {"number": 64, "value": 127}, "group": "control_change"}, {"time": 75319, "annotation": {"number": 64, "value": 0}, "group": "control_change"}, {"time": 75420, "annotation": {"number": 64, "value": 127}, "group": "control_change"}, {"time": 76278, "annotation": {"number": 64, "value": 0}, "group": "control_change"}, {"time": 76371, "annotation": {"number": 64, "value": 127}, "group": "control_change"}, {"time": 76690, "annotation": {"number": 64, "value": 0}, "group": "control_change"}, {"time": 76788, "annotation": {"number": 64, "value": 127}, "group": "control_change"}, {"time": 77257, "annotation": {"number": 64, "value": 0}, "group": "control_change"}, {"time": 77280, "annotation": {"number": 0, "value": 8}, "group": "control_change"}, {"time": 77280, "annotation": {"number": 32, "value": 0}, "group": "control_change"}, {"time": 77280, "annotation": {"number": 7, "value": 100}, "group": "control_change"}, {"time": 77280, "annotation": {"number": 91, "value": 40}, "group": "control_change"}, {"time": 77280, "annotation": {"number": 94, "value": 0}, "group": "control_change"}, {"time": 77280, "annotation": {"number": 93, "value": 0}, "group": "control_change"}, {"time": 77300, "annotation": {"number": 64, "value": 127}, "group": "control_change"}, {"time": 78224, "annotation": {"number": 64, "value": 0}, "group": "control_change"}, {"time": 78339, "annotation": {"number": 64, "value": 127}, "group": "control_change"}, {"time": 79174, "annotation": {"number": 64, "value": 0}, "group": "control_change"}, {"time": 79313, "annotation": {"number": 64, "value": 127}, "group": "control_change"}, {"time": 80147, "annotation": {"number": 64, "value": 0}, "group": "control_change"}, {"time": 80257, "annotation": {"number": 64, "value": 127}, "group": "control_change"}, {"time": 81071, "annotation": {"number": 64, "value": 0}, "group": "control_change"}, {"time": 81196, "annotation": {"number": 64, "value": 127}, "group": "control_change"}, {"time": 82067, "annotation": {"number": 64, "value": 0}, "group": "control_change"}, {"time": 82175, "annotation": {"number": 64, "value": 127}, "group": "control_change"}, {"time": 82254, "annotation": {"number": 64, "value": 0}, "group": "control_change"}, {"time": 82316, "annotation": {"number": 64, "value": 127}, "group": "control_change"}, {"time": 82999, "annotation": {"number": 64, "value": 0}, "group": "control_change"}, {"time": 83100, "annotation": {"number": 64, "value": 127}, "group": "control_change"}, {"time": 83958, "annotation": {"number": 64, "value": 0}, "group": "control_change"}, {"time": 84051, "annotation": {"number": 64, "value": 127}, "group": "control_change"}, {"time": 84370, "annotation": {"number": 64, "value": 0}, "group": "control_change"}, {"time": 84468, "annotation": {"number": 64, "value": 127}, "group": "control_change"}, {"time": 84937, "annotation": {"number": 64, "value": 0}, "group": "control_change"}, {"time": 84960, "annotation": {"number": 0, "value": 9}, "group": "control_change"}, {"time": 84970, "annotation": {"number": 64, "value": 127}, "group": "control_change"}, {"time": 86903, "annotation": {"number": 64, "value": 0}, "group": "control_change"}, {"time": 87059, "annotation": {"number": 64, "value": 127}, "group": "control_change"}, {"time": 87520, "annotation": {"number": 64, "value": 0}, "group": "control_change"}, {"time": 88300, "annotation": {"number": 64, "value": 127}, "group": "control_change"}, {"time": 88786, "annotation": {"number": 64, "value": 0}, "group": "control_change"}, {"time": 88800, "annotation": {"number": 0, "value": 9}, "group": "control_change"}, {"time": 88810, "annotation": {"number": 64, "value": 127}, "group": "control_change"}, {"time": 90743, "annotation": {"number": 64, "value": 0}, "group": "control_change"}, {"time": 90899, "annotation": {"number": 64, "value": 127}, "group": "control_change"}, {"time": 91360, "annotation": {"number": 64, "value": 0}, "group": "control_change"}, {"time": 92140, "annotation": {"number": 64, "value": 127}, "group": "control_change"}, {"time": 92626, "annotation": {"number": 64, "value": 0}, "group": "control_change"}, {"time": 92640, "annotation": {"number": 0, "value": 9}, "group": "control_change"}, {"time": 92650, "annotation": {"number": 64, "value": 127}, "group": "control_change"}, {"time": 94583, "annotation": {"number": 64, "value": 0}, "group": "control_change"}, {"time": 94739, "annotation": {"number": 64, "value": 127}, "group": "control_change"}, {"time": 95200, "annotation": {"number": 64, "value": 0}, "group": "control_change"}, {"time": 95980, "annotation": {"number": 64, "value": 127}, "group": "control_change"}, {"time": 96466, "annotation": {"number": 64, "value": 0}, "group": "control_change"}, {"time": 100320, "annotation": {"number": 0, "value": 8}, "group": "control_change"}, {"time": 100320, "annotation": {"number": 7, "value": 80}, "group": "control_change"}, {"time": 100320, "annotation": {"number": 91, "value": 30}, "group": "control_change"}, {"time": 100320, "annotation": {"number": 93, "value": 64}, "group": "control_change"}, {"time": 100390, "annotation": {"number": 64, "value": 127}, "group": "control_change"}, {"time": 102244, "annotation": {"number": 64, "value": 0}, "group": "control_change"}, {"time": 102396, "annotation": {"number": 64, "value": 127}, "group": "control_change"}, {"time": 104155, "annotation": {"number": 64, "value": 0}, "group": "control_change"}, {"time": 104400, "annotation": {"number": 64, "value": 127}, "group": "control_change"}, {"time": 106090, "annotation": {"number": 64, "value": 0}, "group": "control_change"}, {"time": 106225, "annotation": {"number": 64, "value": 127}, "group": "control_change"}, {"time": 107995, "annotation": {"number": 64, "value": 0}, "group": "control_change"}, {"time": 108070, "annotation": {"number": 64, "value": 127}, "group": "control_change"}, {"time": 109930, "annotation": {"number": 64, "value": 0}, "group": "control_change"}, {"time": 110080, "annotation": {"number": 64, "value": 127}, "group": "control_change"}, {"time": 111835, "annotation": {"number": 64, "value": 0}, "group": "control_change"}, {"time": 112080, "annotation": {"number": 64, "value": 127}, "group": "control_change"}, {"time": 113770, "annotation": {"number": 64, "value": 0}, "group": "control_change"}, {"time": 113905, "annotation": {"number": 64, "value": 127}, "group": "control_change"}, {"time": 115675, "annotation": {"number": 64, "value": 0}, "group": "control_change"}, {"time": 115755, "annotation": {"number": 64, "value": 127}, "group": "control_change"}, {"time": 117580, "annotation": {"number": 64, "value": 0}, "group": "control_change"}, {"time": 117750, "annotation": {"number": 64, "value": 127}, "group": "control_change"}, {"time": 117950, "annotation": {"number": 64, "value": 0}, "group": "control_change"}, {"time": 118155, "annotation": {"number": 64, "value": 127}, "group": "control_change"}, {"time": 119480, "annotation": {"number": 64, "value": 127}, "group": "control_change"}, {"time": 119520, "annotation": {"number": 91, "value": 40}, "group": "control_change"}, {"time": 119520, "annotation": {"number": 93, "value": 0}, "group": "control_change"}, {"time": 119520, "annotation": {"number": 0, "value": 9}, "group": "control_change"}, {"time": 119520, "annotation": {"number": 7, "value": 100}, "group": "control_change"}, {"time": 119543, "annotation": {"number": 64, "value": 0}, "group": "control_change"}, {"time": 120120, "annotation": {"number": 64, "value": 127}, "group": "control_change"}, {"time": 121463, "annotation": {"number": 64, "value": 0}, "group": "control_change"}, {"time": 121619, "annotation": {"number": 64, "value": 127}, "group": "control_change"}, {"time": 122080, "annotation": {"number": 64, "value": 0}, "group": "control_change"}, {"time": 122860, "annotation": {"number": 64, "value": 127}, "group": "control_change"}, {"time": 123346, "annotation": {"number": 64, "value": 0}, "group": "control_change"}, {"time": 123360, "annotation": {"number": 64, "value": 0}, "group": "control_change"}, {"time": 123360, "annotation": {"number": 0, "value": 9}, "group": "control_change"}, {"time": 123370, "annotation": {"number": 64, "value": 127}, "group": "control_change"}, {"time": 125303, "annotation": {"number": 64, "value": 0}, "group": "control_change"}, {"time": 125459, "annotation": {"number": 64, "value": 127}, "group": "control_change"}, {"time": 125920, "annotation": {"number": 64, "value": 0}, "group": "control_change"}, {"time": 126700, "annotation": {"number": 64, "value": 127}, "group": "control_change"}, {"time": 127186, "annotation": {"number": 64, "value": 0}, "group": "control_change"}, {"time": 127200, "annotation": {"number": 64, "value": 0}, "group": "control_change"}, {"time": 127200, "annotation": {"number": 0, "value": 9}, "group": "control_change"}, {"time": 127210, "annotation": {"number": 64, "value": 127}, "group": "control_change"}, {"time": 129143, "annotation": {"number": 64, "value": 0}, "group": "control_change"}, {"time": 129299, "annotation": {"number": 64, "value": 127}, "group": "control_change"}, {"time": 129760, "annotation": {"number": 64, "value": 0}, "group": "control_change"}, {"time": 130540, "annotation": {"number": 64, "value": 127}, "group": "control_change"}, {"time": 131026, "annotation": {"number": 64, "value": 0}, "group": "control_change"}, {"time": 134880, "annotation": {"number": 0, "value": 8}, "group": "control_change"}, {"time": 134880, "annotation": {"number": 7, "value": 80}, "group": "control_change"}, {"time": 134880, "annotation": {"number": 64, "value": 127}, "group": "control_change"}, {"time": 134880, "annotation": {"number": 91, "value": 30}, "group": "control_change"}, {"time": 134880, "annotation": {"number": 93, "value": 64}, "group": "control_change"}, {"time": 134950, "annotation": {"number": 64, "value": 127}, "group": "control_change"}, {"time": 136810, "annotation": {"number": 64, "value": 0}, "group": "control_change"}, {"time": 136960, "annotation": {"number": 64, "value": 127}, "group": "control_change"}, {"time": 138715, "annotation": {"number": 64, "value": 0}, "group": "control_change"}, {"time": 138960, "annotation": {"number": 64, "value": 127}, "group": "control_change"}, {"time": 140650, "annotation": {"number": 64, "value": 0}, "group": "control_change"}, {"time": 140785, "annotation": {"number": 64, "value": 127}, "group": "control_change"}, {"time": 142555, "annotation": {"number": 64, "value": 0}, "group": "control_change"}, {"time": 142630, "annotation": {"number": 64, "value": 127}, "group": "control_change"}, {"time": 144490, "annotation": {"number": 64, "value": 0}, "group": "control_change"}, {"time": 144640, "annotation": {"number": 64, "value": 127}, "group": "control_change"}, {"time": 146395, "annotation": {"number": 64, "value": 0}, "group": "control_change"}, {"time": 146640, "annotation": {"number": 64, "value": 127}, "group": "control_change"}, {"time": 148330, "annotation": {"number": 64, "value": 0}, "group": "control_change"}, {"time": 148465, "annotation": {"number": 64, "value": 127}, "group": "control_change"}, {"time": 150235, "annotation": {"number": 64, "value": 0}, "group": "control_change"}, {"time": 150315, "annotation": {"number": 64, "value": 127}, "group": "control_change"}, {"time": 152140, "annotation": {"number": 64, "value": 0}, "group": "control_change"}, {"time": 152310, "annotation": {"number": 64, "value": 127}, "group": "control_change"}, {"time": 152510, "annotation": {"number": 64, "value": 0}, "group": "control_change"}, {"time": 152715, "annotation": {"number": 64, "value": 127}, "group": "control_change"}, {"time": 154080, "annotation": {"number": 0, "value": 0}, "group": "control_change"}, {"time": 154085, "annotation": {"number": 64, "value": 0}, "group": "control_change"}, {"time": 154305, "annotation": {"number": 64, "value": 127}, "group": "control_change"}, {"time": 154455, "annotation": {"number": 64, "value": 0}, "group": "control_change"}, {"time": 154625, "annotation": {"number": 64, "value": 127}, "group": "control_change"}, {"time": 156010, "annotation": {"number": 64, "value": 0}, "group": "control_change"}, {"time": 156200, "annotation": {"number": 64, "value": 127}, "group": "control_change"}, {"time": 156640, "annotation": {"number": 64, "value": 0}, "group": "control_change"}, {"time": 156770, "annotation": {"number": 64, "value": 127}, "group": "control_change"}, {"time": 156960, "annotation": {"number": 64, "value": 0}, "group": "control_change"}, {"time": 157110, "annotation": {"number": 64, "value": 127}, "group": "control_change"}, {"time": 157280, "annotation": {"number": 64, "value": 0}, "group": "control_change"}, {"time": 157400, "annotation": {"number": 64, "value": 127}, "group": "control_change"}, {"time": 157535, "annotation": {"number": 64, "value": 0}, "group": "control_change"}, {"time": 157655, "annotation": {"number": 64, "value": 127}, "group": "control_change"}, {"time": 157840, "annotation": {"number": 64, "value": 0}, "group": "control_change"}, {"time": 157920, "annotation": {"number": 64, "value": 127}, "group": "control_change"}, {"time": 157925, "annotation": {"number": 64, "value": 0}, "group": "control_change"}, {"time": 158130, "annotation": {"number": 64, "value": 127}, "group": "control_change"}, {"time": 159840, "annotation": {"number": 64, "value": 0}, "group": "control_change"}, {"time": 160075, "annotation": {"number": 64, "value": 127}, "group": "control_change"}, {"time": 161755, "annotation": {"number": 64, "value": 0}, "group": "control_change"}]}, {"program": 0, "is_drum": false, "name": "Chorus", "annotations": [{"time": 264, "annotation": {"number": 0, "value": 0}, "group": "control_change"}, {"time": 288, "annotation": {"number": 32, "value": 2}, "group": "control_change"}]}, {"program": 54, "is_drum": false, "name": "Chorus", "notes": [{"time": 130320, "pitch": 85, "duration": 480, "velocity": 100}, {"time": 130800, "pitch": 87, "duration": 240, "velocity": 110}, {"time": 131040, "pitch": 87, "duration": 120, "velocity": 95}, {"time": 131160, "pitch": 85, "duration": 120, "velocity": 104}, {"time": 131280, "pitch": 84, "duration": 2640, "velocity": 97}], "annotations": [{"time": 336, "annotation": {"number": 7, "value": 90}, "group": "control_change"}, {"time": 360, "annotation": {"number": 11, "value": 127}, "group": "control_change"}, {"time": 384, "annotation": {"number": 10, "value": 44}, "group": "control_change"}, {"time": 408, "annotation": {"number": 91, "value": 30}, "group": "control_change"}, {"time": 432, "annotation": {"number": 93, "value": 64}, "group": "control_change"}, {"time": 456, "annotation": {"number": 101, "value": 0}, "group": "control_change"}, {"time": 480, "annotation": {"number": 100, "value": 0}, "group": "control_change"}, {"time": 480, "annotation": {"number": 6, "value": 2}, "group": "control_change"}, {"time": 480, "annotation": {"number": 101, "value": 127}, "group": "control_change"}, {"time": 480, "annotation": {"number": 100, "value": 127}, "group": "control_change"}]}, {"program": 0, "is_drum": false, "name": "Steel Gt-L", "annotations": [{"time": 264, "annotation": {"number": 0, "value": 0}, "group": "control_change"}, {"time": 288, "annotation": {"number": 32, "value": 2}, "group": "control_change"}]}, {"program": 25, "is_drum": false, "name": "Steel Gt-L", "notes": [{"time": 480, "pitch": 48, "duration": 459, "velocity": 99}, {"time": 488, "pitch": 52, "duration": 459, "velocity": 92}, {"time": 497, "pitch": 55, "duration": 458, "velocity": 95}, {"time": 504, "pitch": 62, "duration": 459, "velocity": 100}, {"time": 510, "pitch": 64, "duration": 455, "velocity": 100}, {"time": 953, "pitch": 48, "duration": 244, "velocity": 98}, {"time": 961, "pitch": 52, "duration": 226, "velocity": 101}, {"time": 971, "pitch": 55, "duration": 214, "velocity": 104}, {"time": 978, "pitch": 62, "duration": 198, "velocity": 90}, {"time": 980, "pitch": 64, "duration": 198, "velocity": 90}, {"time": 1193, "pitch": 48, "duration": 4, "velocity": 85}, {"time": 1196, "pitch": 52, "duration": 105, "velocity": 89}, {"time": 1199, "pitch": 55, "duration": 105, "velocity": 88}, {"time": 1205, "pitch": 62, "duration": 105, "velocity": 73}, {"time": 1313, "pitch": 62, "duration": 100, "velocity": 69}, {"time": 1315, "pitch": 55, "duration": 100, "velocity": 71}, {"time": 1318, "pitch": 52, "duration": 100, "velocity": 69}, {"time": 1433, "pitch": 47, "duration": 465, "velocity": 99}, {"time": 1441, "pitch": 50, "duration": 465, "velocity": 92}, {"time": 1450, "pitch": 55, "duration": 465, "velocity": 95}, {"time": 1458, "pitch": 59, "duration": 465, "velocity": 100}, {"time": 1464, "pitch": 67, "duration": 461, "velocity": 100}, {"time": 1913, "pitch": 47, "duration": 244, "velocity": 98}, {"time": 1921, "pitch": 50, "duration": 226, "velocity": 101}, {"time": 1931, "pitch": 55, "duration": 214, "velocity": 104}, {"time": 1938, "pitch": 59, "duration": 198, "velocity": 90}, {"time": 1940, "pitch": 67, "duration": 198, "velocity": 90}, {"time": 2153, "pitch": 47, "duration": 4, "velocity": 85}, {"time": 2156, "pitch": 50, "duration": 105, "velocity": 89}, {"time": 2159, "pitch": 55, "duration": 105, "velocity": 88}, {"time": 2165, "pitch": 59, "duration": 105, "velocity": 73}, {"time": 2273, "pitch": 59, "duration": 100, "velocity": 69}, {"time": 2275, "pitch": 55, "duration": 100, "velocity": 71}, {"time": 2278, "pitch": 50, "duration": 100, "velocity": 69}, {"time": 2393, "pitch": 45, "duration": 225, "velocity": 94}, {"time": 2398, "pitch": 52, "duration": 225, "velocity": 96}, {"time": 2403, "pitch": 57, "duration": 225, "velocity": 98}, {"time": 2408, "pitch": 60, "duration": 225, "velocity": 88}, {"time": 2410, "pitch": 64, "duration": 225, "velocity": 88}, {"time": 2633, "pitch": 45, "duration": 220, "velocity": 76}, {"time": 2638, "pitch": 52, "duration": 220, "velocity": 76}, {"time": 2643, "pitch": 57, "duration": 220, "velocity": 74}, {"time": 2648, "pitch": 60, "duration": 220, "velocity": 76}, {"time": 2652, "pitch": 64, "duration": 220, "velocity": 76}, {"time": 2873, "pitch": 45, "duration": 244, "velocity": 98}, {"time": 2881, "pitch": 52, "duration": 226, "velocity": 101}, {"time": 2891, "pitch": 57, "duration": 214, "velocity": 104}, {"time": 2898, "pitch": 60, "duration": 198, "velocity": 90}, {"time": 2900, "pitch": 64, "duration": 198, "velocity": 90}, {"time": 3113, "pitch": 45, "duration": 4, "velocity": 85}, {"time": 3116, "pitch": 52, "duration": 105, "velocity": 89}, {"time": 3119, "pitch": 57, "duration": 105, "velocity": 88}, {"time": 3125, "pitch": 60, "duration": 105, "velocity": 73}, {"time": 3233, "pitch": 60, "duration": 100, "velocity": 69}, {"time": 3235, "pitch": 57, "duration": 100, "velocity": 71}, {"time": 3238, "pitch": 52, "duration": 100, "velocity": 69}, {"time": 3353, "pitch": 43, "duration": 465, "velocity": 99}, {"time": 3361, "pitch": 50, "duration": 465, "velocity": 92}, {"time": 3370, "pitch": 55, "duration": 465, "velocity": 95}, {"time": 3378, "pitch": 59, "duration": 465, "velocity": 100}, {"time": 3384, "pitch": 62, "duration": 461, "velocity": 100}, {"time": 3388, "pitch": 67, "duration": 461, "velocity": 100}, {"time": 3833, "pitch": 43, "duration": 247, "velocity": 98}, {"time": 3841, "pitch": 50, "duration": 229, "velocity": 101}, {"time": 3851, "pitch": 55, "duration": 217, "velocity": 104}, {"time": 3858, "pitch": 59, "duration": 201, "velocity": 90}, {"time": 3860, "pitch": 62, "duration": 201, "velocity": 90}, {"time": 3865, "pitch": 67, "duration": 200, "velocity": 90}, {"time": 4076, "pitch": 43, "duration": 4, "velocity": 85}, {"time": 4079, "pitch": 50, "duration": 107, "velocity": 89}, {"time": 4082, "pitch": 55, "duration": 107, "velocity": 88}, {"time": 4089, "pitch": 59, "duration": 106, "velocity": 73}, {"time": 4198, "pitch": 59, "duration": 101, "velocity": 69}, {"time": 4200, "pitch": 55, "duration": 101, "velocity": 71}, {"time": 4203, "pitch": 50, "duration": 101, "velocity": 69}, {"time": 4320, "pitch": 41, "duration": 465, "velocity": 99}, {"time": 4328, "pitch": 48, "duration": 465, "velocity": 92}, {"time": 4337, "pitch": 53, "duration": 465, "velocity": 95}, {"time": 4345, "pitch": 57, "duration": 465, "velocity": 100}, {"time": 4351, "pitch": 60, "duration": 461, "velocity": 100}, {"time": 4355, "pitch": 65, "duration": 461, "velocity": 100}, {"time": 4800, "pitch": 41, "duration": 244, "velocity": 98}, {"time": 4808, "pitch": 48, "duration": 226, "velocity": 101}, {"time": 4818, "pitch": 53, "duration": 214, "velocity": 104}, {"time": 4825, "pitch": 57, "duration": 198, "velocity": 90}, {"time": 4827, "pitch": 60, "duration": 198, "velocity": 90}, {"time": 4831, "pitch": 65, "duration": 198, "velocity": 90}, {"time": 5040, "pitch": 41, "duration": 4, "velocity": 85}, {"time": 5043, "pitch": 48, "duration": 105, "velocity": 89}, {"time": 5046, "pitch": 53, "duration": 105, "velocity": 88}, {"time": 5052, "pitch": 57, "duration": 105, "velocity": 73}, {"time": 5160, "pitch": 57, "duration": 100, "velocity": 69}, {"time": 5162, "pitch": 53, "duration": 100, "velocity": 71}, {"time": 5165, "pitch": 48, "duration": 100, "velocity": 69}, {"time": 5280, "pitch": 43, "duration": 465, "velocity": 99}, {"time": 5288, "pitch": 50, "duration": 465, "velocity": 92}, {"time": 5297, "pitch": 55, "duration": 465, "velocity": 95}, {"time": 5305, "pitch": 59, "duration": 465, "velocity": 100}, {"time": 5311, "pitch": 62, "duration": 461, "velocity": 100}, {"time": 5315, "pitch": 67, "duration": 461, "velocity": 100}, {"time": 5760, "pitch": 43, "duration": 244, "velocity": 98}, {"time": 5768, "pitch": 50, "duration": 226, "velocity": 101}, {"time": 5778, "pitch": 55, "duration": 214, "velocity": 104}, {"time": 5785, "pitch": 59, "duration": 198, "velocity": 90}, {"time": 5787, "pitch": 62, "duration": 198, "velocity": 90}, {"time": 5791, "pitch": 67, "duration": 198, "velocity": 90}, {"time": 6000, "pitch": 43, "duration": 4, "velocity": 85}, {"time": 6003, "pitch": 50, "duration": 105, "velocity": 89}, {"time": 6006, "pitch": 55, "duration": 105, "velocity": 88}, {"time": 6012, "pitch": 59, "duration": 105, "velocity": 73}, {"time": 6120, "pitch": 59, "duration": 100, "velocity": 69}, {"time": 6122, "pitch": 55, "duration": 100, "velocity": 71}, {"time": 6125, "pitch": 50, "duration": 100, "velocity": 69}, {"time": 6240, "pitch": 48, "duration": 465, "velocity": 99}, {"time": 6248, "pitch": 52, "duration": 465, "velocity": 92}, {"time": 6257, "pitch": 55, "duration": 465, "velocity": 95}, {"time": 6265, "pitch": 62, "duration": 465, "velocity": 100}, {"time": 6271, "pitch": 64, "duration": 461, "velocity": 100}, {"time": 6720, "pitch": 48, "duration": 244, "velocity": 98}, {"time": 6728, "pitch": 52, "duration": 226, "velocity": 101}, {"time": 6738, "pitch": 55, "duration": 214, "velocity": 104}, {"time": 6745, "pitch": 62, "duration": 198, "velocity": 90}, {"time": 6747, "pitch": 64, "duration": 198, "velocity": 90}, {"time": 6960, "pitch": 48, "duration": 4, "velocity": 85}, {"time": 6963, "pitch": 52, "duration": 105, "velocity": 89}, {"time": 6966, "pitch": 55, "duration": 105, "velocity": 88}, {"time": 6972, "pitch": 62, "duration": 105, "velocity": 73}, {"time": 6992, "pitch": 64, "duration": 105, "velocity": 73}, {"time": 7082, "pitch": 64, "duration": 15, "velocity": 85}, {"time": 7085, "pitch": 62, "duration": 238, "velocity": 82}, {"time": 7087, "pitch": 55, "duration": 238, "velocity": 82}, {"time": 7088, "pitch": 52, "duration": 238, "velocity": 82}, {"time": 7320, "pitch": 48, "duration": 3, "velocity": 93}, {"time": 7323, "pitch": 52, "duration": 3, "velocity": 97}, {"time": 7326, "pitch": 55, "duration": 105, "velocity": 96}, {"time": 7332, "pitch": 62, "duration": 105, "velocity": 80}, {"time": 7352, "pitch": 64, "duration": 105, "velocity": 80}, {"time": 7442, "pitch": 64, "duration": 15, "velocity": 85}, {"time": 7445, "pitch": 62, "duration": 238, "velocity": 82}, {"time": 7447, "pitch": 55, "duration": 238, "velocity": 82}, {"time": 7448, "pitch": 52, "duration": 238, "velocity": 82}, {"time": 7680, "pitch": 48, "duration": 3, "velocity": 98}, {"time": 7688, "pitch": 52, "duration": 226, "velocity": 101}, {"time": 7698, "pitch": 55, "duration": 214, "velocity": 104}, {"time": 7705, "pitch": 62, "duration": 198, "velocity": 90}, {"time": 7707, "pitch": 64, "duration": 198, "velocity": 90}, {"time": 7920, "pitch": 48, "duration": 4, "velocity": 85}, {"time": 7923, "pitch": 52, "duration": 105, "velocity": 89}, {"time": 7926, "pitch": 55, "duration": 105, "velocity": 88}, {"time": 7932, "pitch": 62, "duration": 105, "velocity": 73}, {"time": 8040, "pitch": 62, "duration": 100, "velocity": 69}, {"time": 8042, "pitch": 55, "duration": 100, "velocity": 71}, {"time": 8045, "pitch": 52, "duration": 100, "velocity": 69}, {"time": 8160, "pitch": 48, "duration": 465, "velocity": 99}, {"time": 8168, "pitch": 52, "duration": 465, "velocity": 92}, {"time": 8177, "pitch": 55, "duration": 465, "velocity": 95}, {"time": 8185, "pitch": 62, "duration": 465, "velocity": 100}, {"time": 8191, "pitch": 64, "duration": 461, "velocity": 100}, {"time": 8640, "pitch": 48, "duration": 244, "velocity": 98}, {"time": 8648, "pitch": 52, "duration": 226, "velocity": 101}, {"time": 8658, "pitch": 55, "duration": 214, "velocity": 104}, {"time": 8665, "pitch": 62, "duration": 198, "velocity": 90}, {"time": 8667, "pitch": 64, "duration": 198, "velocity": 90}, {"time": 8880, "pitch": 48, "duration": 4, "velocity": 85}, {"time": 8883, "pitch": 52, "duration": 105, "velocity": 89}, {"time": 8886, "pitch": 55, "duration": 105, "velocity": 88}, {"time": 8892, "pitch": 62, "duration": 105, "velocity": 73}, {"time": 9000, "pitch": 62, "duration": 100, "velocity": 69}, {"time": 9002, "pitch": 55, "duration": 100, "velocity": 71}, {"time": 9005, "pitch": 52, "duration": 100, "velocity": 69}, {"time": 9120, "pitch": 47, "duration": 225, "velocity": 99}, {"time": 9128, "pitch": 50, "duration": 225, "velocity": 92}, {"time": 9137, "pitch": 55, "duration": 225, "velocity": 95}, {"time": 9145, "pitch": 59, "duration": 225, "velocity": 100}, {"time": 9151, "pitch": 67, "duration": 221, "velocity": 100}, {"time": 9360, "pitch": 47, "duration": 225, "velocity": 89}, {"time": 9368, "pitch": 50, "duration": 225, "velocity": 82}, {"time": 9377, "pitch": 55, "duration": 225, "velocity": 85}, {"time": 9385, "pitch": 59, "duration": 225, "velocity": 90}, {"time": 9600, "pitch": 47, "duration": 244, "velocity": 98}, {"time": 9608, "pitch": 50, "duration": 226, "velocity": 101}, {"time": 9618, "pitch": 55, "duration": 214, "velocity": 104}, {"time": 9625, "pitch": 59, "duration": 198, "velocity": 90}, {"time": 9627, "pitch": 67, "duration": 198, "velocity": 90}, {"time": 9840, "pitch": 47, "duration": 4, "velocity": 85}, {"time": 9843, "pitch": 50, "duration": 105, "velocity": 89}, {"time": 9846, "pitch": 55, "duration": 105, "velocity": 88}, {"time": 9852, "pitch": 59, "duration": 105, "velocity": 73}, {"time": 9960, "pitch": 59, "duration": 100, "velocity": 69}, {"time": 9962, "pitch": 55, "duration": 100, "velocity": 71}, {"time": 9965, "pitch": 50, "duration": 100, "velocity": 69}, {"time": 10080, "pitch": 45, "duration": 465, "velocity": 94}, {"time": 10085, "pitch": 52, "duration": 465, "velocity": 96}, {"time": 10090, "pitch": 57, "duration": 465, "velocity": 98}, {"time": 10095, "pitch": 60, "duration": 465, "velocity": 88}, {"time": 10097, "pitch": 64, "duration": 465, "velocity": 88}, {"time": 10560, "pitch": 45, "duration": 244, "velocity": 98}, {"time": 10568, "pitch": 52, "duration": 226, "velocity": 101}, {"time": 10578, "pitch": 57, "duration": 214, "velocity": 104}, {"time": 10585, "pitch": 60, "duration": 198, "velocity": 90}, {"time": 10587, "pitch": 64, "duration": 198, "velocity": 90}, {"time": 10800, "pitch": 45, "duration": 4, "velocity": 85}, {"time": 10803, "pitch": 52, "duration": 105, "velocity": 89}, {"time": 10806, "pitch": 57, "duration": 105, "velocity": 88}, {"time": 10812, "pitch": 60, "duration": 105, "velocity": 73}, {"time": 10920, "pitch": 60, "duration": 100, "velocity": 69}, {"time": 10922, "pitch": 57, "duration": 100, "velocity": 71}, {"time": 10925, "pitch": 52, "duration": 100, "velocity": 69}, {"time": 11040, "pitch": 43, "duration": 225, "velocity": 99}, {"time": 11048, "pitch": 48, "duration": 225, "velocity": 92}, {"time": 11057, "pitch": 52, "duration": 225, "velocity": 95}, {"time": 11065, "pitch": 55, "duration": 225, "velocity": 100}, {"time": 11071, "pitch": 60, "duration": 221, "velocity": 100}, {"time": 11075, "pitch": 64, "duration": 221, "velocity": 100}, {"time": 11280, "pitch": 43, "duration": 225, "velocity": 89}, {"time": 11288, "pitch": 48, "duration": 225, "velocity": 82}, {"time": 11297, "pitch": 52, "duration": 225, "velocity": 85}, {"time": 11305, "pitch": 55, "duration": 225, "velocity": 90}, {"time": 11311, "pitch": 60, "duration": 221, "velocity": 90}, {"time": 11520, "pitch": 43, "duration": 244, "velocity": 98}, {"time": 11528, "pitch": 48, "duration": 226, "velocity": 101}, {"time": 11538, "pitch": 52, "duration": 214, "velocity": 104}, {"time": 11545, "pitch": 55, "duration": 198, "velocity": 90}, {"time": 11547, "pitch": 60, "duration": 198, "velocity": 90}, {"time": 11551, "pitch": 64, "duration": 198, "velocity": 90}, {"time": 11760, "pitch": 43, "duration": 4, "velocity": 85}, {"time": 11763, "pitch": 48, "duration": 105, "velocity": 89}, {"time": 11766, "pitch": 52, "duration": 105, "velocity": 88}, {"time": 11772, "pitch": 55, "duration": 105, "velocity": 73}, {"time": 11880, "pitch": 55, "duration": 100, "velocity": 69}, {"time": 11882, "pitch": 52, "duration": 100, "velocity": 71}, {"time": 11885, "pitch": 48, "duration": 100, "velocity": 69}, {"time": 12000, "pitch": 41, "duration": 465, "velocity": 99}, {"time": 12008, "pitch": 48, "duration": 465, "velocity": 92}, {"time": 12017, "pitch": 53, "duration": 465, "velocity": 95}, {"time": 12025, "pitch": 57, "duration": 465, "velocity": 100}, {"time": 12031, "pitch": 60, "duration": 461, "velocity": 100}, {"time": 12035, "pitch": 65, "duration": 461, "velocity": 100}, {"time": 12480, "pitch": 41, "duration": 244, "velocity": 98}, {"time": 12488, "pitch": 48, "duration": 226, "velocity": 101}, {"time": 12498, "pitch": 53, "duration": 214, "velocity": 104}, {"time": 12505, "pitch": 57, "duration": 198, "velocity": 90}, {"time": 12507, "pitch": 60, "duration": 198, "velocity": 90}, {"time": 12511, "pitch": 65, "duration": 198, "velocity": 90}, {"time": 12720, "pitch": 41, "duration": 4, "velocity": 85}, {"time": 12723, "pitch": 48, "duration": 105, "velocity": 89}, {"time": 12726, "pitch": 53, "duration": 105, "velocity": 88}, {"time": 12732, "pitch": 57, "duration": 105, "velocity": 73}, {"time": 12840, "pitch": 57, "duration": 100, "velocity": 69}, {"time": 12842, "pitch": 53, "duration": 100, "velocity": 71}, {"time": 12845, "pitch": 48, "duration": 100, "velocity": 69}, {"time": 12960, "pitch": 43, "duration": 225, "velocity": 99}, {"time": 12968, "pitch": 50, "duration": 225, "velocity": 92}, {"time": 12977, "pitch": 55, "duration": 225, "velocity": 95}, {"time": 12985, "pitch": 59, "duration": 225, "velocity": 100}, {"time": 12991, "pitch": 62, "duration": 221, "velocity": 100}, {"time": 12995, "pitch": 67, "duration": 221, "velocity": 100}, {"time": 13200, "pitch": 43, "duration": 225, "velocity": 89}, {"time": 13208, "pitch": 50, "duration": 225, "velocity": 82}, {"time": 13217, "pitch": 55, "duration": 225, "velocity": 85}, {"time": 13225, "pitch": 59, "duration": 225, "velocity": 90}, {"time": 13231, "pitch": 62, "duration": 221, "velocity": 90}, {"time": 13440, "pitch": 43, "duration": 244, "velocity": 98}, {"time": 13448, "pitch": 50, "duration": 226, "velocity": 101}, {"time": 13458, "pitch": 55, "duration": 214, "velocity": 104}, {"time": 13465, "pitch": 59, "duration": 198, "velocity": 90}, {"time": 13467, "pitch": 62, "duration": 198, "velocity": 90}, {"time": 13471, "pitch": 67, "duration": 198, "velocity": 90}, {"time": 13680, "pitch": 43, "duration": 4, "velocity": 85}, {"time": 13683, "pitch": 50, "duration": 105, "velocity": 89}, {"time": 13686, "pitch": 55, "duration": 105, "velocity": 88}, {"time": 13692, "pitch": 59, "duration": 105, "velocity": 73}, {"time": 13800, "pitch": 59, "duration": 100, "velocity": 69}, {"time": 13802, "pitch": 55, "duration": 100, "velocity": 71}, {"time": 13805, "pitch": 50, "duration": 100, "velocity": 69}, {"time": 13920, "pitch": 48, "duration": 465, "velocity": 99}, {"time": 13928, "pitch": 52, "duration": 465, "velocity": 92}, {"time": 13937, "pitch": 55, "duration": 465, "velocity": 95}, {"time": 13945, "pitch": 62, "duration": 465, "velocity": 100}, {"time": 13951, "pitch": 64, "duration": 461, "velocity": 100}, {"time": 14400, "pitch": 48, "duration": 244, "velocity": 98}, {"time": 14408, "pitch": 52, "duration": 226, "velocity": 101}, {"time": 14418, "pitch": 55, "duration": 214, "velocity": 104}, {"time": 14425, "pitch": 62, "duration": 198, "velocity": 90}, {"time": 14427, "pitch": 64, "duration": 198, "velocity": 90}, {"time": 14640, "pitch": 48, "duration": 4, "velocity": 85}, {"time": 14643, "pitch": 52, "duration": 105, "velocity": 89}, {"time": 14646, "pitch": 55, "duration": 105, "velocity": 88}, {"time": 14652, "pitch": 62, "duration": 105, "velocity": 73}, {"time": 14760, "pitch": 62, "duration": 100, "velocity": 69}, {"time": 14762, "pitch": 55, "duration": 100, "velocity": 71}, {"time": 14765, "pitch": 52, "duration": 100, "velocity": 69}, {"time": 14880, "pitch": 48, "duration": 465, "velocity": 99}, {"time": 14888, "pitch": 52, "duration": 465, "velocity": 92}, {"time": 14897, "pitch": 55, "duration": 465, "velocity": 95}, {"time": 14905, "pitch": 62, "duration": 465, "velocity": 100}, {"time": 14911, "pitch": 64, "duration": 461, "velocity": 100}, {"time": 15360, "pitch": 48, "duration": 244, "velocity": 98}, {"time": 15368, "pitch": 52, "duration": 226, "velocity": 101}, {"time": 15378, "pitch": 55, "duration": 214, "velocity": 104}, {"time": 15385, "pitch": 62, "duration": 198, "velocity": 90}, {"time": 15387, "pitch": 64, "duration": 198, "velocity": 90}, {"time": 15600, "pitch": 48, "duration": 4, "velocity": 85}, {"time": 15603, "pitch": 52, "duration": 105, "velocity": 89}, {"time": 15606, "pitch": 55, "duration": 105, "velocity": 88}, {"time": 15612, "pitch": 62, "duration": 105, "velocity": 73}, {"time": 15720, "pitch": 62, "duration": 100, "velocity": 69}, {"time": 15722, "pitch": 55, "duration": 100, "velocity": 71}, {"time": 15725, "pitch": 52, "duration": 100, "velocity": 69}, {"time": 15840, "pitch": 48, "duration": 465, "velocity": 99}, {"time": 15848, "pitch": 52, "duration": 465, "velocity": 92}, {"time": 15857, "pitch": 55, "duration": 465, "velocity": 95}, {"time": 15865, "pitch": 62, "duration": 465, "velocity": 100}, {"time": 15871, "pitch": 64, "duration": 461, "velocity": 100}, {"time": 16320, "pitch": 48, "duration": 244, "velocity": 98}, {"time": 16328, "pitch": 52, "duration": 226, "velocity": 101}, {"time": 16338, "pitch": 55, "duration": 214, "velocity": 104}, {"time": 16345, "pitch": 62, "duration": 198, "velocity": 90}, {"time": 16347, "pitch": 64, "duration": 198, "velocity": 90}, {"time": 16560, "pitch": 48, "duration": 4, "velocity": 85}, {"time": 16563, "pitch": 52, "duration": 105, "velocity": 89}, {"time": 16566, "pitch": 55, "duration": 105, "velocity": 88}, {"time": 16572, "pitch": 62, "duration": 105, "velocity": 73}, {"time": 16680, "pitch": 62, "duration": 100, "velocity": 69}, {"time": 16682, "pitch": 55, "duration": 100, "velocity": 71}, {"time": 16685, "pitch": 52, "duration": 100, "velocity": 69}, {"time": 16800, "pitch": 47, "duration": 225, "velocity": 99}, {"time": 16808, "pitch": 50, "duration": 225, "velocity": 92}, {"time": 16817, "pitch": 55, "duration": 225, "velocity": 95}, {"time": 16825, "pitch": 59, "duration": 225, "velocity": 100}, {"time": 16831, "pitch": 67, "duration": 221, "velocity": 100}, {"time": 17040, "pitch": 47, "duration": 225, "velocity": 89}, {"time": 17048, "pitch": 50, "duration": 225, "velocity": 82}, {"time": 17057, "pitch": 55, "duration": 225, "velocity": 85}, {"time": 17065, "pitch": 59, "duration": 225, "velocity": 90}, {"time": 17280, "pitch": 47, "duration": 244, "velocity": 98}, {"time": 17288, "pitch": 50, "duration": 226, "velocity": 101}, {"time": 17298, "pitch": 55, "duration": 214, "velocity": 104}, {"time": 17305, "pitch": 59, "duration": 198, "velocity": 90}, {"time": 17307, "pitch": 67, "duration": 198, "velocity": 90}, {"time": 17520, "pitch": 47, "duration": 4, "velocity": 85}, {"time": 17523, "pitch": 50, "duration": 105, "velocity": 89}, {"time": 17526, "pitch": 55, "duration": 105, "velocity": 88}, {"time": 17532, "pitch": 59, "duration": 105, "velocity": 73}, {"time": 17640, "pitch": 59, "duration": 100, "velocity": 69}, {"time": 17642, "pitch": 55, "duration": 100, "velocity": 71}, {"time": 17645, "pitch": 50, "duration": 100, "velocity": 69}, {"time": 17760, "pitch": 45, "duration": 465, "velocity": 94}, {"time": 17765, "pitch": 52, "duration": 465, "velocity": 96}, {"time": 17770, "pitch": 57, "duration": 465, "velocity": 98}, {"time": 17775, "pitch": 60, "duration": 465, "velocity": 88}, {"time": 17777, "pitch": 64, "duration": 465, "velocity": 88}, {"time": 18240, "pitch": 45, "duration": 244, "velocity": 98}, {"time": 18248, "pitch": 52, "duration": 226, "velocity": 101}, {"time": 18258, "pitch": 57, "duration": 214, "velocity": 104}, {"time": 18265, "pitch": 60, "duration": 198, "velocity": 90}, {"time": 18267, "pitch": 64, "duration": 198, "velocity": 90}, {"time": 18480, "pitch": 45, "duration": 4, "velocity": 85}, {"time": 18483, "pitch": 52, "duration": 105, "velocity": 89}, {"time": 18486, "pitch": 57, "duration": 105, "velocity": 88}, {"time": 18492, "pitch": 60, "duration": 105, "velocity": 73}, {"time": 18600, "pitch": 60, "duration": 100, "velocity": 69}, {"time": 18602, "pitch": 57, "duration": 100, "velocity": 71}, {"time": 18605, "pitch": 52, "duration": 100, "velocity": 69}, {"time": 18720, "pitch": 43, "duration": 225, "velocity": 99}, {"time": 18728, "pitch": 48, "duration": 225, "velocity": 92}, {"time": 18737, "pitch": 52, "duration": 225, "velocity": 95}, {"time": 18745, "pitch": 55, "duration": 225, "velocity": 100}, {"time": 18751, "pitch": 60, "duration": 221, "velocity": 100}, {"time": 18755, "pitch": 64, "duration": 221, "velocity": 100}, {"time": 18960, "pitch": 43, "duration": 225, "velocity": 89}, {"time": 18968, "pitch": 48, "duration": 225, "velocity": 82}, {"time": 18977, "pitch": 52, "duration": 225, "velocity": 85}, {"time": 18985, "pitch": 55, "duration": 225, "velocity": 90}, {"time": 18991, "pitch": 60, "duration": 221, "velocity": 90}, {"time": 19200, "pitch": 43, "duration": 244, "velocity": 98}, {"time": 19208, "pitch": 48, "duration": 226, "velocity": 101}, {"time": 19218, "pitch": 52, "duration": 214, "velocity": 104}, {"time": 19225, "pitch": 55, "duration": 198, "velocity": 90}, {"time": 19227, "pitch": 60, "duration": 198, "velocity": 90}, {"time": 19231, "pitch": 64, "duration": 198, "velocity": 90}, {"time": 19440, "pitch": 43, "duration": 4, "velocity": 85}, {"time": 19443, "pitch": 48, "duration": 105, "velocity": 89}, {"time": 19446, "pitch": 52, "duration": 105, "velocity": 88}, {"time": 19452, "pitch": 55, "duration": 105, "velocity": 73}, {"time": 19560, "pitch": 55, "duration": 100, "velocity": 69}, {"time": 19562, "pitch": 52, "duration": 100, "velocity": 71}, {"time": 19565, "pitch": 48, "duration": 100, "velocity": 69}, {"time": 19680, "pitch": 41, "duration": 465, "velocity": 99}, {"time": 19688, "pitch": 48, "duration": 465, "velocity": 92}, {"time": 19697, "pitch": 53, "duration": 465, "velocity": 95}, {"time": 19705, "pitch": 57, "duration": 465, "velocity": 100}, {"time": 19711, "pitch": 60, "duration": 461, "velocity": 100}, {"time": 19715, "pitch": 65, "duration": 461, "velocity": 100}, {"time": 20160, "pitch": 41, "duration": 244, "velocity": 98}, {"time": 20168, "pitch": 48, "duration": 226, "velocity": 101}, {"time": 20178, "pitch": 53, "duration": 214, "velocity": 104}, {"time": 20185, "pitch": 57, "duration": 198, "velocity": 90}, {"time": 20187, "pitch": 60, "duration": 198, "velocity": 90}, {"time": 20191, "pitch": 65, "duration": 198, "velocity": 90}, {"time": 20400, "pitch": 41, "duration": 4, "velocity": 85}, {"time": 20403, "pitch": 48, "duration": 105, "velocity": 89}, {"time": 20406, "pitch": 53, "duration": 105, "velocity": 88}, {"time": 20412, "pitch": 57, "duration": 105, "velocity": 73}, {"time": 20520, "pitch": 57, "duration": 100, "velocity": 69}, {"time": 20522, "pitch": 53, "duration": 100, "velocity": 71}, {"time": 20525, "pitch": 48, "duration": 100, "velocity": 69}, {"time": 20640, "pitch": 43, "duration": 225, "velocity": 99}, {"time": 20648, "pitch": 50, "duration": 225, "velocity": 92}, {"time": 20657, "pitch": 55, "duration": 225, "velocity": 95}, {"time": 20665, "pitch": 59, "duration": 225, "velocity": 100}, {"time": 20671, "pitch": 62, "duration": 221, "velocity": 100}, {"time": 20675, "pitch": 67, "duration": 221, "velocity": 100}, {"time": 20880, "pitch": 43, "duration": 225, "velocity": 89}, {"time": 20888, "pitch": 50, "duration": 225, "velocity": 82}, {"time": 20897, "pitch": 55, "duration": 225, "velocity": 85}, {"time": 20905, "pitch": 59, "duration": 225, "velocity": 90}, {"time": 20911, "pitch": 62, "duration": 221, "velocity": 90}, {"time": 21120, "pitch": 43, "duration": 244, "velocity": 98}, {"time": 21128, "pitch": 50, "duration": 226, "velocity": 101}, {"time": 21138, "pitch": 55, "duration": 214, "velocity": 104}, {"time": 21145, "pitch": 59, "duration": 198, "velocity": 90}, {"time": 21147, "pitch": 62, "duration": 198, "velocity": 90}, {"time": 21151, "pitch": 67, "duration": 198, "velocity": 90}, {"time": 21360, "pitch": 43, "duration": 4, "velocity": 85}, {"time": 21363, "pitch": 50, "duration": 105, "velocity": 89}, {"time": 21366, "pitch": 55, "duration": 105, "velocity": 88}, {"time": 21372, "pitch": 59, "duration": 105, "velocity": 73}, {"time": 21480, "pitch": 59, "duration": 100, "velocity": 69}, {"time": 21482, "pitch": 55, "duration": 100, "velocity": 71}, {"time": 21485, "pitch": 50, "duration": 100, "velocity": 69}, {"time": 21600, "pitch": 48, "duration": 465, "velocity": 99}, {"time": 21608, "pitch": 52, "duration": 465, "velocity": 92}, {"time": 21617, "pitch": 55, "duration": 465, "velocity": 95}, {"time": 21625, "pitch": 62, "duration": 465, "velocity": 100}, {"time": 21631, "pitch": 64, "duration": 461, "velocity": 100}, {"time": 22080, "pitch": 48, "duration": 244, "velocity": 98}, {"time": 22088, "pitch": 52, "duration": 226, "velocity": 101}, {"time": 22098, "pitch": 55, "duration": 214, "velocity": 104}, {"time": 22105, "pitch": 62, "duration": 198, "velocity": 90}, {"time": 22107, "pitch": 64, "duration": 198, "velocity": 90}, {"time": 22320, "pitch": 48, "duration": 4, "velocity": 85}, {"time": 22323, "pitch": 52, "duration": 105, "velocity": 89}, {"time": 22326, "pitch": 55, "duration": 105, "velocity": 88}, {"time": 22332, "pitch": 62, "duration": 105, "velocity": 73}, {"time": 22440, "pitch": 62, "duration": 100, "velocity": 69}, {"time": 22442, "pitch": 55, "duration": 100, "velocity": 71}, {"time": 22445, "pitch": 52, "duration": 100, "velocity": 69}, {"time": 22560, "pitch": 48, "duration": 465, "velocity": 99}, {"time": 22568, "pitch": 52, "duration": 465, "velocity": 92}, {"time": 22577, "pitch": 55, "duration": 465, "velocity": 95}, {"time": 22585, "pitch": 62, "duration": 465, "velocity": 100}, {"time": 22591, "pitch": 64, "duration": 461, "velocity": 100}, {"time": 23040, "pitch": 48, "duration": 244, "velocity": 98}, {"time": 23048, "pitch": 52, "duration": 226, "velocity": 101}, {"time": 23058, "pitch": 55, "duration": 214, "velocity": 104}, {"time": 23065, "pitch": 62, "duration": 198, "velocity": 90}, {"time": 23067, "pitch": 64, "duration": 198, "velocity": 90}, {"time": 23280, "pitch": 48, "duration": 4, "velocity": 85}, {"time": 23283, "pitch": 52, "duration": 105, "velocity": 89}, {"time": 23286, "pitch": 55, "duration": 105, "velocity": 88}, {"time": 23292, "pitch": 62, "duration": 105, "velocity": 73}, {"time": 23400, "pitch": 62, "duration": 100, "velocity": 69}, {"time": 23402, "pitch": 55, "duration": 100, "velocity": 71}, {"time": 23405, "pitch": 52, "duration": 100, "velocity": 69}, {"time": 23520, "pitch": 46, "duration": 456, "velocity": 98}, {"time": 23528, "pitch": 53, "duration": 342, "velocity": 101}, {"time": 23538, "pitch": 58, "duration": 330, "velocity": 104}, {"time": 23545, "pitch": 62, "duration": 314, "velocity": 90}, {"time": 23880, "pitch": 62, "duration": 99, "velocity": 78}, {"time": 23883, "pitch": 58, "duration": 97, "velocity": 88}, {"time": 23886, "pitch": 53, "duration": 91, "velocity": 86}, {"time": 23993, "pitch": 46, "duration": 14, "velocity": 70}, {"time": 23998, "pitch": 53, "duration": 16, "velocity": 69}, {"time": 24004, "pitch": 58, "duration": 12, "velocity": 85}, {"time": 24012, "pitch": 62, "duration": 6, "velocity": 72}, {"time": 24120, "pitch": 58, "duration": 14, "velocity": 61}, {"time": 24126, "pitch": 53, "duration": 14, "velocity": 60}, {"time": 24240, "pitch": 46, "duration": 330, "velocity": 94}, {"time": 24245, "pitch": 53, "duration": 330, "velocity": 96}, {"time": 24250, "pitch": 58, "duration": 330, "velocity": 98}, {"time": 24255, "pitch": 62, "duration": 330, "velocity": 88}, {"time": 24593, "pitch": 46, "duration": 81, "velocity": 70}, {"time": 24598, "pitch": 53, "duration": 83, "velocity": 69}, {"time": 24604, "pitch": 58, "duration": 79, "velocity": 85}, {"time": 24612, "pitch": 62, "duration": 73, "velocity": 72}, {"time": 24720, "pitch": 46, "duration": 220, "velocity": 76}, {"time": 24725, "pitch": 53, "duration": 220, "velocity": 76}, {"time": 24730, "pitch": 58, "duration": 220, "velocity": 74}, {"time": 24735, "pitch": 62, "duration": 220, "velocity": 76}, {"time": 24960, "pitch": 46, "duration": 230, "velocity": 95}, {"time": 24963, "pitch": 53, "duration": 105, "velocity": 99}, {"time": 24966, "pitch": 58, "duration": 105, "velocity": 98}, {"time": 24972, "pitch": 62, "duration": 105, "velocity": 82}, {"time": 25080, "pitch": 62, "duration": 100, "velocity": 77}, {"time": 25082, "pitch": 58, "duration": 100, "velocity": 79}, {"time": 25085, "pitch": 53, "duration": 100, "velocity": 77}, {"time": 25193, "pitch": 46, "duration": 14, "velocity": 70}, {"time": 25198, "pitch": 53, "duration": 16, "velocity": 69}, {"time": 25204, "pitch": 58, "duration": 12, "velocity": 85}, {"time": 25212, "pitch": 62, "duration": 6, "velocity": 72}, {"time": 25320, "pitch": 58, "duration": 12, "velocity": 54}, {"time": 25326, "pitch": 53, "duration": 12, "velocity": 67}, {"time": 25440, "pitch": 48, "duration": 456, "velocity": 98}, {"time": 25448, "pitch": 55, "duration": 342, "velocity": 101}, {"time": 25458, "pitch": 60, "duration": 330, "velocity": 104}, {"time": 25465, "pitch": 64, "duration": 314, "velocity": 90}, {"time": 25800, "pitch": 64, "duration": 99, "velocity": 78}, {"time": 25803, "pitch": 60, "duration": 97, "velocity": 88}, {"time": 25806, "pitch": 55, "duration": 91, "velocity": 86}, {"time": 25913, "pitch": 48, "duration": 14, "velocity": 70}, {"time": 25918, "pitch": 55, "duration": 16, "velocity": 69}, {"time": 25924, "pitch": 60, "duration": 12, "velocity": 85}, {"time": 25932, "pitch": 64, "duration": 6, "velocity": 72}, {"time": 26040, "pitch": 60, "duration": 14, "velocity": 61}, {"time": 26046, "pitch": 55, "duration": 14, "velocity": 60}, {"time": 26160, "pitch": 48, "duration": 330, "velocity": 94}, {"time": 26165, "pitch": 55, "duration": 330, "velocity": 96}, {"time": 26170, "pitch": 60, "duration": 330, "velocity": 98}, {"time": 26175, "pitch": 64, "duration": 330, "velocity": 88}, {"time": 26513, "pitch": 48, "duration": 81, "velocity": 70}, {"time": 26518, "pitch": 55, "duration": 83, "velocity": 69}, {"time": 26524, "pitch": 60, "duration": 79, "velocity": 85}, {"time": 26532, "pitch": 64, "duration": 73, "velocity": 72}, {"time": 26640, "pitch": 48, "duration": 220, "velocity": 76}, {"time": 26645, "pitch": 55, "duration": 220, "velocity": 76}, {"time": 26650, "pitch": 60, "duration": 220, "velocity": 74}, {"time": 26655, "pitch": 64, "duration": 220, "velocity": 76}, {"time": 26880, "pitch": 48, "duration": 230, "velocity": 95}, {"time": 26883, "pitch": 55, "duration": 105, "velocity": 99}, {"time": 26886, "pitch": 60, "duration": 105, "velocity": 98}, {"time": 26892, "pitch": 64, "duration": 105, "velocity": 82}, {"time": 27000, "pitch": 64, "duration": 100, "velocity": 77}, {"time": 27002, "pitch": 60, "duration": 100, "velocity": 79}, {"time": 27005, "pitch": 55, "duration": 100, "velocity": 77}, {"time": 27113, "pitch": 48, "duration": 14, "velocity": 70}, {"time": 27118, "pitch": 55, "duration": 16, "velocity": 69}, {"time": 27124, "pitch": 60, "duration": 12, "velocity": 85}, {"time": 27132, "pitch": 64, "duration": 6, "velocity": 72}, {"time": 27240, "pitch": 60, "duration": 12, "velocity": 54}, {"time": 27246, "pitch": 55, "duration": 12, "velocity": 67}, {"time": 27360, "pitch": 46, "duration": 456, "velocity": 98}, {"time": 27368, "pitch": 53, "duration": 342, "velocity": 101}, {"time": 27378, "pitch": 58, "duration": 330, "velocity": 104}, {"time": 27385, "pitch": 62, "duration": 314, "velocity": 90}, {"time": 27720, "pitch": 62, "duration": 99, "velocity": 78}, {"time": 27723, "pitch": 58, "duration": 97, "velocity": 88}, {"time": 27726, "pitch": 53, "duration": 91, "velocity": 86}, {"time": 27833, "pitch": 46, "duration": 14, "velocity": 70}, {"time": 27838, "pitch": 53, "duration": 16, "velocity": 69}, {"time": 27844, "pitch": 58, "duration": 12, "velocity": 85}, {"time": 27852, "pitch": 62, "duration": 6, "velocity": 72}, {"time": 27960, "pitch": 58, "duration": 14, "velocity": 61}, {"time": 27966, "pitch": 53, "duration": 14, "velocity": 60}, {"time": 28080, "pitch": 46, "duration": 330, "velocity": 94}, {"time": 28085, "pitch": 53, "duration": 330, "velocity": 96}, {"time": 28090, "pitch": 58, "duration": 330, "velocity": 98}, {"time": 28095, "pitch": 62, "duration": 330, "velocity": 88}, {"time": 28433, "pitch": 46, "duration": 81, "velocity": 70}, {"time": 28438, "pitch": 53, "duration": 83, "velocity": 69}, {"time": 28444, "pitch": 58, "duration": 79, "velocity": 85}, {"time": 28452, "pitch": 62, "duration": 73, "velocity": 72}, {"time": 28560, "pitch": 46, "duration": 220, "velocity": 76}, {"time": 28565, "pitch": 53, "duration": 220, "velocity": 76}, {"time": 28570, "pitch": 58, "duration": 220, "velocity": 74}, {"time": 28575, "pitch": 62, "duration": 220, "velocity": 76}, {"time": 28800, "pitch": 46, "duration": 230, "velocity": 95}, {"time": 28803, "pitch": 53, "duration": 105, "velocity": 99}, {"time": 28806, "pitch": 58, "duration": 105, "velocity": 98}, {"time": 28812, "pitch": 62, "duration": 105, "velocity": 82}, {"time": 28920, "pitch": 62, "duration": 100, "velocity": 77}, {"time": 28922, "pitch": 58, "duration": 100, "velocity": 79}, {"time": 28925, "pitch": 53, "duration": 100, "velocity": 77}, {"time": 29033, "pitch": 46, "duration": 14, "velocity": 70}, {"time": 29038, "pitch": 53, "duration": 16, "velocity": 69}, {"time": 29044, "pitch": 58, "duration": 12, "velocity": 85}, {"time": 29052, "pitch": 62, "duration": 6, "velocity": 72}, {"time": 29160, "pitch": 58, "duration": 12, "velocity": 54}, {"time": 29166, "pitch": 53, "duration": 12, "velocity": 67}, {"time": 29280, "pitch": 48, "duration": 456, "velocity": 98}, {"time": 29288, "pitch": 55, "duration": 342, "velocity": 101}, {"time": 29298, "pitch": 60, "duration": 330, "velocity": 104}, {"time": 29305, "pitch": 64, "duration": 314, "velocity": 90}, {"time": 29640, "pitch": 64, "duration": 99, "velocity": 78}, {"time": 29643, "pitch": 60, "duration": 97, "velocity": 88}, {"time": 29646, "pitch": 55, "duration": 91, "velocity": 86}, {"time": 29753, "pitch": 48, "duration": 14, "velocity": 70}, {"time": 29758, "pitch": 55, "duration": 16, "velocity": 69}, {"time": 29764, "pitch": 60, "duration": 12, "velocity": 85}, {"time": 29772, "pitch": 64, "duration": 6, "velocity": 72}, {"time": 29880, "pitch": 60, "duration": 14, "velocity": 61}, {"time": 29886, "pitch": 55, "duration": 14, "velocity": 60}, {"time": 30000, "pitch": 48, "duration": 330, "velocity": 94}, {"time": 30005, "pitch": 55, "duration": 330, "velocity": 96}, {"time": 30010, "pitch": 60, "duration": 330, "velocity": 98}, {"time": 30015, "pitch": 64, "duration": 330, "velocity": 88}, {"time": 30353, "pitch": 48, "duration": 81, "velocity": 70}, {"time": 30358, "pitch": 55, "duration": 83, "velocity": 69}, {"time": 30364, "pitch": 60, "duration": 79, "velocity": 85}, {"time": 30372, "pitch": 64, "duration": 73, "velocity": 72}, {"time": 30480, "pitch": 48, "duration": 220, "velocity": 76}, {"time": 30485, "pitch": 55, "duration": 220, "velocity": 76}, {"time": 30490, "pitch": 60, "duration": 220, "velocity": 74}, {"time": 30495, "pitch": 64, "duration": 220, "velocity": 76}, {"time": 30720, "pitch": 48, "duration": 230, "velocity": 95}, {"time": 30723, "pitch": 55, "duration": 105, "velocity": 99}, {"time": 30726, "pitch": 60, "duration": 105, "velocity": 98}, {"time": 30732, "pitch": 64, "duration": 105, "velocity": 82}, {"time": 30840, "pitch": 64, "duration": 100, "velocity": 77}, {"time": 30842, "pitch": 60, "duration": 100, "velocity": 79}, {"time": 30845, "pitch": 55, "duration": 100, "velocity": 77}, {"time": 30953, "pitch": 48, "duration": 14, "velocity": 70}, {"time": 30958, "pitch": 55, "duration": 16, "velocity": 69}, {"time": 30964, "pitch": 60, "duration": 12, "velocity": 85}, {"time": 30972, "pitch": 64, "duration": 6, "velocity": 72}, {"time": 31080, "pitch": 60, "duration": 12, "velocity": 54}, {"time": 31086, "pitch": 55, "duration": 12, "velocity": 67}, {"time": 31200, "pitch": 46, "duration": 456, "velocity": 98}, {"time": 31208, "pitch": 53, "duration": 342, "velocity": 101}, {"time": 31218, "pitch": 58, "duration": 330, "velocity": 104}, {"time": 31225, "pitch": 62, "duration": 314, "velocity": 90}, {"time": 31560, "pitch": 62, "duration": 99, "velocity": 78}, {"time": 31563, "pitch": 58, "duration": 97, "velocity": 88}, {"time": 31566, "pitch": 53, "duration": 91, "velocity": 86}, {"time": 31673, "pitch": 46, "duration": 14, "velocity": 70}, {"time": 31678, "pitch": 53, "duration": 16, "velocity": 69}, {"time": 31684, "pitch": 58, "duration": 12, "velocity": 85}, {"time": 31692, "pitch": 62, "duration": 6, "velocity": 72}, {"time": 31800, "pitch": 58, "duration": 14, "velocity": 61}, {"time": 31806, "pitch": 53, "duration": 14, "velocity": 60}, {"time": 31920, "pitch": 46, "duration": 330, "velocity": 94}, {"time": 31925, "pitch": 53, "duration": 330, "velocity": 96}, {"time": 31930, "pitch": 58, "duration": 330, "velocity": 98}, {"time": 31935, "pitch": 62, "duration": 330, "velocity": 88}, {"time": 32273, "pitch": 46, "duration": 81, "velocity": 70}, {"time": 32278, "pitch": 53, "duration": 83, "velocity": 69}, {"time": 32284, "pitch": 58, "duration": 79, "velocity": 85}, {"time": 32292, "pitch": 62, "duration": 73, "velocity": 72}, {"time": 32400, "pitch": 46, "duration": 220, "velocity": 76}, {"time": 32405, "pitch": 53, "duration": 220, "velocity": 76}, {"time": 32410, "pitch": 58, "duration": 220, "velocity": 74}, {"time": 32415, "pitch": 62, "duration": 220, "velocity": 76}, {"time": 32640, "pitch": 46, "duration": 230, "velocity": 95}, {"time": 32643, "pitch": 53, "duration": 105, "velocity": 99}, {"time": 32646, "pitch": 58, "duration": 105, "velocity": 98}, {"time": 32652, "pitch": 62, "duration": 105, "velocity": 82}, {"time": 32760, "pitch": 62, "duration": 100, "velocity": 77}, {"time": 32762, "pitch": 58, "duration": 100, "velocity": 79}, {"time": 32765, "pitch": 53, "duration": 100, "velocity": 77}, {"time": 32873, "pitch": 46, "duration": 14, "velocity": 70}, {"time": 32878, "pitch": 53, "duration": 16, "velocity": 69}, {"time": 32884, "pitch": 58, "duration": 12, "velocity": 85}, {"time": 32892, "pitch": 62, "duration": 6, "velocity": 72}, {"time": 33000, "pitch": 58, "duration": 12, "velocity": 54}, {"time": 33006, "pitch": 53, "duration": 12, "velocity": 67}, {"time": 33120, "pitch": 48, "duration": 456, "velocity": 98}, {"time": 33128, "pitch": 55, "duration": 342, "velocity": 101}, {"time": 33138, "pitch": 60, "duration": 330, "velocity": 104}, {"time": 33145, "pitch": 64, "duration": 314, "velocity": 90}, {"time": 33480, "pitch": 64, "duration": 99, "velocity": 78}, {"time": 33483, "pitch": 60, "duration": 97, "velocity": 88}, {"time": 33486, "pitch": 55, "duration": 91, "velocity": 86}, {"time": 33593, "pitch": 48, "duration": 14, "velocity": 70}, {"time": 33598, "pitch": 55, "duration": 16, "velocity": 69}, {"time": 33604, "pitch": 60, "duration": 12, "velocity": 85}, {"time": 33612, "pitch": 64, "duration": 6, "velocity": 72}, {"time": 33720, "pitch": 60, "duration": 14, "velocity": 61}, {"time": 33726, "pitch": 55, "duration": 14, "velocity": 60}, {"time": 33840, "pitch": 48, "duration": 330, "velocity": 94}, {"time": 33845, "pitch": 55, "duration": 330, "velocity": 96}, {"time": 33850, "pitch": 60, "duration": 330, "velocity": 98}, {"time": 33855, "pitch": 64, "duration": 330, "velocity": 88}, {"time": 34193, "pitch": 48, "duration": 81, "velocity": 70}, {"time": 34198, "pitch": 55, "duration": 83, "velocity": 69}, {"time": 34204, "pitch": 60, "duration": 79, "velocity": 85}, {"time": 34212, "pitch": 64, "duration": 73, "velocity": 72}, {"time": 34320, "pitch": 48, "duration": 220, "velocity": 76}, {"time": 34325, "pitch": 55, "duration": 220, "velocity": 76}, {"time": 34330, "pitch": 60, "duration": 220, "velocity": 74}, {"time": 34335, "pitch": 64, "duration": 220, "velocity": 76}, {"time": 34560, "pitch": 48, "duration": 230, "velocity": 95}, {"time": 34563, "pitch": 55, "duration": 105, "velocity": 99}, {"time": 34566, "pitch": 60, "duration": 105, "velocity": 98}, {"time": 34572, "pitch": 64, "duration": 105, "velocity": 82}, {"time": 34680, "pitch": 64, "duration": 100, "velocity": 77}, {"time": 34682, "pitch": 60, "duration": 100, "velocity": 79}, {"time": 34685, "pitch": 55, "duration": 100, "velocity": 77}, {"time": 34793, "pitch": 48, "duration": 14, "velocity": 70}, {"time": 34798, "pitch": 55, "duration": 16, "velocity": 69}, {"time": 34804, "pitch": 60, "duration": 12, "velocity": 85}, {"time": 34812, "pitch": 64, "duration": 6, "velocity": 72}, {"time": 34920, "pitch": 60, "duration": 12, "velocity": 54}, {"time": 34926, "pitch": 55, "duration": 12, "velocity": 67}, {"time": 35040, "pitch": 49, "duration": 456, "velocity": 98}, {"time": 35048, "pitch": 56, "duration": 342, "velocity": 101}, {"time": 35058, "pitch": 61, "duration": 330, "velocity": 104}, {"time": 35065, "pitch": 68, "duration": 314, "velocity": 90}, {"time": 35400, "pitch": 68, "duration": 99, "velocity": 78}, {"time": 35403, "pitch": 61, "duration": 97, "velocity": 88}, {"time": 35406, "pitch": 56, "duration": 91, "velocity": 86}, {"time": 35513, "pitch": 49, "duration": 14, "velocity": 70}, {"time": 35518, "pitch": 56, "duration": 16, "velocity": 69}, {"time": 35524, "pitch": 61, "duration": 12, "velocity": 85}, {"time": 35532, "pitch": 68, "duration": 6, "velocity": 72}, {"time": 35640, "pitch": 61, "duration": 14, "velocity": 61}, {"time": 35646, "pitch": 56, "duration": 14, "velocity": 60}, {"time": 35760, "pitch": 49, "duration": 330, "velocity": 94}, {"time": 35765, "pitch": 56, "duration": 330, "velocity": 96}, {"time": 35770, "pitch": 61, "duration": 330, "velocity": 98}, {"time": 35775, "pitch": 68, "duration": 330, "velocity": 88}, {"time": 36113, "pitch": 49, "duration": 81, "velocity": 70}, {"time": 36118, "pitch": 56, "duration": 83, "velocity": 69}, {"time": 36124, "pitch": 61, "duration": 79, "velocity": 85}, {"time": 36132, "pitch": 68, "duration": 73, "velocity": 72}, {"time": 36240, "pitch": 49, "duration": 220, "velocity": 76}, {"time": 36245, "pitch": 56, "duration": 220, "velocity": 76}, {"time": 36250, "pitch": 61, "duration": 220, "velocity": 74}, {"time": 36255, "pitch": 68, "duration": 220, "velocity": 76}, {"time": 36480, "pitch": 49, "duration": 230, "velocity": 95}, {"time": 36483, "pitch": 56, "duration": 105, "velocity": 99}, {"time": 36486, "pitch": 61, "duration": 105, "velocity": 98}, {"time": 36492, "pitch": 68, "duration": 105, "velocity": 82}, {"time": 36600, "pitch": 68, "duration": 100, "velocity": 77}, {"time": 36602, "pitch": 61, "duration": 100, "velocity": 79}, {"time": 36605, "pitch": 56, "duration": 100, "velocity": 77}, {"time": 36713, "pitch": 49, "duration": 14, "velocity": 70}, {"time": 36718, "pitch": 56, "duration": 16, "velocity": 69}, {"time": 36724, "pitch": 61, "duration": 12, "velocity": 85}, {"time": 36732, "pitch": 68, "duration": 6, "velocity": 72}, {"time": 36840, "pitch": 61, "duration": 12, "velocity": 54}, {"time": 36846, "pitch": 56, "duration": 12, "velocity": 67}, {"time": 36960, "pitch": 51, "duration": 456, "velocity": 98}, {"time": 36968, "pitch": 63, "duration": 222, "velocity": 101}, {"time": 36978, "pitch": 67, "duration": 210, "velocity": 104}, {"time": 36985, "pitch": 70, "duration": 194, "velocity": 90}, {"time": 37200, "pitch": 63, "duration": 240, "velocity": 83}, {"time": 37210, "pitch": 67, "duration": 230, "velocity": 94}, {"time": 37215, "pitch": 70, "duration": 225, "velocity": 86}, {"time": 37440, "pitch": 51, "duration": 20, "velocity": 70}, {"time": 37440, "pitch": 63, "duration": 20, "velocity": 70}, {"time": 37440, "pitch": 67, "duration": 20, "velocity": 70}, {"time": 37440, "pitch": 70, "duration": 20, "velocity": 70}, {"time": 37680, "pitch": 53, "duration": 452, "velocity": 87}, {"time": 37680, "pitch": 60, "duration": 431, "velocity": 90}, {"time": 37680, "pitch": 65, "duration": 431, "velocity": 90}, {"time": 37680, "pitch": 69, "duration": 478, "velocity": 83}, {"time": 38160, "pitch": 53, "duration": 176, "velocity": 104}, {"time": 38170, "pitch": 60, "duration": 162, "velocity": 94}, {"time": 38180, "pitch": 65, "duration": 177, "velocity": 104}, {"time": 38190, "pitch": 69, "duration": 162, "velocity": 94}, {"time": 38400, "pitch": 53, "duration": 485, "velocity": 104}, {"time": 38410, "pitch": 60, "duration": 509, "velocity": 91}, {"time": 38420, "pitch": 65, "duration": 485, "velocity": 104}, {"time": 38430, "pitch": 69, "duration": 490, "velocity": 101}, {"time": 38880, "pitch": 43, "duration": 2860, "velocity": 81}, {"time": 38890, "pitch": 50, "duration": 2860, "velocity": 80}, {"time": 38895, "pitch": 55, "duration": 2860, "velocity": 82}, {"time": 38910, "pitch": 59, "duration": 2860, "velocity": 85}, {"time": 38920, "pitch": 62, "duration": 2860, "velocity": 89}, {"time": 42720, "pitch": 48, "duration": 465, "velocity": 99}, {"time": 42728, "pitch": 52, "duration": 465, "velocity": 92}, {"time": 42737, "pitch": 55, "duration": 465, "velocity": 95}, {"time": 42745, "pitch": 64, "duration": 465, "velocity": 100}, {"time": 42752, "pitch": 60, "duration": 465, "velocity": 100}, {"time": 43200, "pitch": 47, "duration": 465, "velocity": 99}, {"time": 43208, "pitch": 50, "duration": 465, "velocity": 92}, {"time": 43217, "pitch": 55, "duration": 465, "velocity": 95}, {"time": 43225, "pitch": 67, "duration": 465, "velocity": 100}, {"time": 43232, "pitch": 62, "duration": 465, "velocity": 100}, {"time": 43680, "pitch": 45, "duration": 456, "velocity": 98}, {"time": 43688, "pitch": 52, "duration": 467, "velocity": 101}, {"time": 43698, "pitch": 57, "duration": 447, "velocity": 104}, {"time": 43705, "pitch": 60, "duration": 445, "velocity": 90}, {"time": 44160, "pitch": 45, "duration": 216, "velocity": 98}, {"time": 44168, "pitch": 52, "duration": 192, "velocity": 101}, {"time": 44178, "pitch": 57, "duration": 202, "velocity": 104}, {"time": 44185, "pitch": 60, "duration": 205, "velocity": 90}, {"time": 44393, "pitch": 45, "duration": 14, "velocity": 70}, {"time": 44398, "pitch": 52, "duration": 16, "velocity": 69}, {"time": 44404, "pitch": 57, "duration": 12, "velocity": 85}, {"time": 44412, "pitch": 60, "duration": 6, "velocity": 72}, {"time": 44520, "pitch": 57, "duration": 12, "velocity": 54}, {"time": 44526, "pitch": 52, "duration": 12, "velocity": 67}, {"time": 44640, "pitch": 41, "duration": 230, "velocity": 99}, {"time": 44648, "pitch": 48, "duration": 207, "velocity": 92}, {"time": 44657, "pitch": 53, "duration": 228, "velocity": 95}, {"time": 44665, "pitch": 65, "duration": 215, "velocity": 95}, {"time": 44673, "pitch": 57, "duration": 217, "velocity": 100}, {"time": 44679, "pitch": 60, "duration": 206, "velocity": 95}, {"time": 44880, "pitch": 41, "duration": 230, "velocity": 89}, {"time": 44887, "pitch": 53, "duration": 230, "velocity": 85}, {"time": 44888, "pitch": 48, "duration": 230, "velocity": 82}, {"time": 44898, "pitch": 57, "duration": 230, "velocity": 90}, {"time": 44904, "pitch": 60, "duration": 230, "velocity": 85}, {"time": 45120, "pitch": 41, "duration": 223, "velocity": 100}, {"time": 45125, "pitch": 48, "duration": 222, "velocity": 93}, {"time": 45135, "pitch": 53, "duration": 220, "velocity": 101}, {"time": 45142, "pitch": 57, "duration": 219, "velocity": 93}, {"time": 45148, "pitch": 60, "duration": 219, "velocity": 91}, {"time": 45155, "pitch": 65, "duration": 215, "velocity": 89}, {"time": 45356, "pitch": 41, "duration": 11, "velocity": 72}, {"time": 45361, "pitch": 48, "duration": 12, "velocity": 71}, {"time": 45367, "pitch": 53, "duration": 11, "velocity": 69}, {"time": 45371, "pitch": 57, "duration": 13, "velocity": 77}, {"time": 45374, "pitch": 60, "duration": 6, "velocity": 81}, {"time": 45383, "pitch": 65, "duration": 14, "velocity": 80}, {"time": 45479, "pitch": 65, "duration": 121, "velocity": 82}, {"time": 45488, "pitch": 60, "duration": 117, "velocity": 95}, {"time": 45491, "pitch": 57, "duration": 113, "velocity": 96}, {"time": 45498, "pitch": 53, "duration": 102, "velocity": 86}, {"time": 45504, "pitch": 48, "duration": 91, "velocity": 68}, {"time": 45506, "pitch": 41, "duration": 83, "velocity": 51}, {"time": 45600, "pitch": 43, "duration": 230, "velocity": 99}, {"time": 45608, "pitch": 50, "duration": 207, "velocity": 92}, {"time": 45617, "pitch": 55, "duration": 228, "velocity": 95}, {"time": 45625, "pitch": 67, "duration": 215, "velocity": 95}, {"time": 45633, "pitch": 59, "duration": 217, "velocity": 100}, {"time": 45639, "pitch": 62, "duration": 206, "velocity": 95}, {"time": 45840, "pitch": 43, "duration": 230, "velocity": 89}, {"time": 45847, "pitch": 55, "duration": 230, "velocity": 85}, {"time": 45848, "pitch": 50, "duration": 230, "velocity": 82}, {"time": 45858, "pitch": 59, "duration": 230, "velocity": 90}, {"time": 45864, "pitch": 62, "duration": 230, "velocity": 85}, {"time": 46080, "pitch": 43, "duration": 230, "velocity": 95}, {"time": 46083, "pitch": 50, "duration": 218, "velocity": 99}, {"time": 46086, "pitch": 55, "duration": 218, "velocity": 98}, {"time": 46092, "pitch": 59, "duration": 218, "velocity": 82}, {"time": 46092, "pitch": 62, "duration": 2, "velocity": 82}, {"time": 46313, "pitch": 43, "duration": 14, "velocity": 70}, {"time": 46318, "pitch": 50, "duration": 16, "velocity": 69}, {"time": 46324, "pitch": 55, "duration": 12, "velocity": 85}, {"time": 46332, "pitch": 59, "duration": 6, "velocity": 72}, {"time": 46332, "pitch": 62, "duration": 6, "velocity": 72}, {"time": 46440, "pitch": 55, "duration": 12, "velocity": 54}, {"time": 46446, "pitch": 50, "duration": 12, "velocity": 67}, {"time": 46560, "pitch": 45, "duration": 465, "velocity": 99}, {"time": 46568, "pitch": 52, "duration": 465, "velocity": 92}, {"time": 46577, "pitch": 55, "duration": 465, "velocity": 95}, {"time": 46585, "pitch": 64, "duration": 465, "velocity": 100}, {"time": 46592, "pitch": 60, "duration": 465, "velocity": 100}, {"time": 47040, "pitch": 43, "duration": 465, "velocity": 99}, {"time": 47048, "pitch": 50, "duration": 465, "velocity": 92}, {"time": 47057, "pitch": 55, "duration": 465, "velocity": 95}, {"time": 47065, "pitch": 64, "duration": 465, "velocity": 100}, {"time": 47072, "pitch": 59, "duration": 465, "velocity": 100}, {"time": 47520, "pitch": 41, "duration": 456, "velocity": 98}, {"time": 47528, "pitch": 48, "duration": 462, "velocity": 101}, {"time": 47538, "pitch": 53, "duration": 450, "velocity": 104}, {"time": 47545, "pitch": 57, "duration": 434, "velocity": 90}, {"time": 47545, "pitch": 60, "duration": 434, "velocity": 90}, {"time": 48000, "pitch": 41, "duration": 216, "velocity": 98}, {"time": 48008, "pitch": 48, "duration": 192, "velocity": 101}, {"time": 48018, "pitch": 53, "duration": 202, "velocity": 104}, {"time": 48025, "pitch": 57, "duration": 205, "velocity": 90}, {"time": 48025, "pitch": 60, "duration": 205, "velocity": 90}, {"time": 48233, "pitch": 41, "duration": 14, "velocity": 70}, {"time": 48238, "pitch": 48, "duration": 16, "velocity": 69}, {"time": 48244, "pitch": 53, "duration": 12, "velocity": 85}, {"time": 48252, "pitch": 57, "duration": 6, "velocity": 72}, {"time": 48360, "pitch": 53, "duration": 12, "velocity": 54}, {"time": 48366, "pitch": 48, "duration": 12, "velocity": 67}, {"time": 48480, "pitch": 45, "duration": 230, "velocity": 99}, {"time": 48488, "pitch": 50, "duration": 207, "velocity": 92}, {"time": 48497, "pitch": 57, "duration": 228, "velocity": 95}, {"time": 48513, "pitch": 60, "duration": 217, "velocity": 100}, {"time": 48519, "pitch": 65, "duration": 206, "velocity": 95}, {"time": 48720, "pitch": 45, "duration": 230, "velocity": 89}, {"time": 48727, "pitch": 57, "duration": 230, "velocity": 85}, {"time": 48728, "pitch": 50, "duration": 230, "velocity": 82}, {"time": 48738, "pitch": 60, "duration": 230, "velocity": 90}, {"time": 48744, "pitch": 65, "duration": 230, "velocity": 85}, {"time": 48960, "pitch": 45, "duration": 223, "velocity": 100}, {"time": 48965, "pitch": 50, "duration": 222, "velocity": 93}, {"time": 48975, "pitch": 57, "duration": 220, "velocity": 101}, {"time": 48982, "pitch": 60, "duration": 219, "velocity": 93}, {"time": 48988, "pitch": 65, "duration": 219, "velocity": 91}, {"time": 49196, "pitch": 45, "duration": 11, "velocity": 72}, {"time": 49201, "pitch": 50, "duration": 12, "velocity": 71}, {"time": 49207, "pitch": 57, "duration": 11, "velocity": 69}, {"time": 49211, "pitch": 60, "duration": 13, "velocity": 77}, {"time": 49214, "pitch": 65, "duration": 6, "velocity": 81}, {"time": 49328, "pitch": 65, "duration": 117, "velocity": 95}, {"time": 49331, "pitch": 60, "duration": 113, "velocity": 96}, {"time": 49338, "pitch": 57, "duration": 102, "velocity": 86}, {"time": 49344, "pitch": 50, "duration": 91, "velocity": 68}, {"time": 49346, "pitch": 45, "duration": 83, "velocity": 51}, {"time": 49440, "pitch": 43, "duration": 230, "velocity": 99}, {"time": 49448, "pitch": 50, "duration": 207, "velocity": 92}, {"time": 49457, "pitch": 53, "duration": 228, "velocity": 95}, {"time": 49473, "pitch": 55, "duration": 217, "velocity": 100}, {"time": 49479, "pitch": 59, "duration": 206, "velocity": 95}, {"time": 49479, "pitch": 62, "duration": 206, "velocity": 95}, {"time": 49680, "pitch": 43, "duration": 230, "velocity": 89}, {"time": 49687, "pitch": 53, "duration": 230, "velocity": 85}, {"time": 49688, "pitch": 50, "duration": 230, "velocity": 82}, {"time": 49698, "pitch": 55, "duration": 230, "velocity": 90}, {"time": 49704, "pitch": 59, "duration": 230, "velocity": 85}, {"time": 49704, "pitch": 62, "duration": 230, "velocity": 85}, {"time": 49920, "pitch": 43, "duration": 223, "velocity": 100}, {"time": 49925, "pitch": 50, "duration": 222, "velocity": 93}, {"time": 49935, "pitch": 53, "duration": 220, "velocity": 101}, {"time": 49942, "pitch": 55, "duration": 219, "velocity": 93}, {"time": 49948, "pitch": 59, "duration": 219, "velocity": 91}, {"time": 49948, "pitch": 62, "duration": 219, "velocity": 91}, {"time": 50156, "pitch": 43, "duration": 11, "velocity": 72}, {"time": 50161, "pitch": 50, "duration": 12, "velocity": 71}, {"time": 50167, "pitch": 53, "duration": 11, "velocity": 69}, {"time": 50171, "pitch": 55, "duration": 13, "velocity": 77}, {"time": 50174, "pitch": 59, "duration": 6, "velocity": 81}, {"time": 50174, "pitch": 62, "duration": 6, "velocity": 81}, {"time": 50288, "pitch": 59, "duration": 117, "velocity": 95}, {"time": 50288, "pitch": 62, "duration": 117, "velocity": 95}, {"time": 50291, "pitch": 55, "duration": 113, "velocity": 96}, {"time": 50298, "pitch": 53, "duration": 102, "velocity": 86}, {"time": 50304, "pitch": 50, "duration": 91, "velocity": 68}, {"time": 50306, "pitch": 43, "duration": 83, "velocity": 51}, {"time": 50400, "pitch": 48, "duration": 465, "velocity": 99}, {"time": 50408, "pitch": 52, "duration": 465, "velocity": 92}, {"time": 50417, "pitch": 55, "duration": 465, "velocity": 95}, {"time": 50425, "pitch": 64, "duration": 465, "velocity": 100}, {"time": 50432, "pitch": 60, "duration": 465, "velocity": 100}, {"time": 50880, "pitch": 47, "duration": 465, "velocity": 99}, {"time": 50888, "pitch": 50, "duration": 465, "velocity": 92}, {"time": 50897, "pitch": 55, "duration": 465, "velocity": 95}, {"time": 50905, "pitch": 67, "duration": 465, "velocity": 100}, {"time": 50912, "pitch": 62, "duration": 465, "velocity": 100}, {"time": 51360, "pitch": 45, "duration": 456, "velocity": 98}, {"time": 51368, "pitch": 52, "duration": 467, "velocity": 101}, {"time": 51378, "pitch": 57, "duration": 447, "velocity": 104}, {"time": 51385, "pitch": 60, "duration": 445, "velocity": 90}, {"time": 51840, "pitch": 45, "duration": 216, "velocity": 98}, {"time": 51848, "pitch": 52, "duration": 192, "velocity": 101}, {"time": 51858, "pitch": 57, "duration": 202, "velocity": 104}, {"time": 51865, "pitch": 60, "duration": 205, "velocity": 90}, {"time": 52073, "pitch": 45, "duration": 14, "velocity": 70}, {"time": 52078, "pitch": 52, "duration": 16, "velocity": 69}, {"time": 52084, "pitch": 57, "duration": 12, "velocity": 85}, {"time": 52092, "pitch": 60, "duration": 6, "velocity": 72}, {"time": 52200, "pitch": 57, "duration": 12, "velocity": 54}, {"time": 52206, "pitch": 52, "duration": 12, "velocity": 67}, {"time": 52320, "pitch": 41, "duration": 230, "velocity": 99}, {"time": 52328, "pitch": 48, "duration": 207, "velocity": 92}, {"time": 52337, "pitch": 53, "duration": 228, "velocity": 95}, {"time": 52345, "pitch": 65, "duration": 215, "velocity": 95}, {"time": 52353, "pitch": 57, "duration": 217, "velocity": 100}, {"time": 52359, "pitch": 60, "duration": 206, "velocity": 95}, {"time": 52560, "pitch": 41, "duration": 230, "velocity": 89}, {"time": 52567, "pitch": 53, "duration": 230, "velocity": 85}, {"time": 52568, "pitch": 48, "duration": 230, "velocity": 82}, {"time": 52578, "pitch": 57, "duration": 230, "velocity": 90}, {"time": 52584, "pitch": 60, "duration": 230, "velocity": 85}, {"time": 52800, "pitch": 41, "duration": 223, "velocity": 100}, {"time": 52805, "pitch": 48, "duration": 222, "velocity": 93}, {"time": 52815, "pitch": 53, "duration": 220, "velocity": 101}, {"time": 52822, "pitch": 57, "duration": 219, "velocity": 93}, {"time": 52828, "pitch": 60, "duration": 219, "velocity": 91}, {"time": 52835, "pitch": 65, "duration": 215, "velocity": 89}, {"time": 53036, "pitch": 41, "duration": 11, "velocity": 72}, {"time": 53041, "pitch": 48, "duration": 12, "velocity": 71}, {"time": 53047, "pitch": 53, "duration": 11, "velocity": 69}, {"time": 53051, "pitch": 57, "duration": 13, "velocity": 77}, {"time": 53054, "pitch": 60, "duration": 6, "velocity": 81}, {"time": 53063, "pitch": 65, "duration": 14, "velocity": 80}, {"time": 53159, "pitch": 65, "duration": 121, "velocity": 82}, {"time": 53168, "pitch": 60, "duration": 117, "velocity": 95}, {"time": 53171, "pitch": 57, "duration": 113, "velocity": 96}, {"time": 53178, "pitch": 53, "duration": 102, "velocity": 86}, {"time": 53184, "pitch": 48, "duration": 91, "velocity": 68}, {"time": 53186, "pitch": 41, "duration": 83, "velocity": 51}, {"time": 53280, "pitch": 43, "duration": 230, "velocity": 99}, {"time": 53288, "pitch": 50, "duration": 207, "velocity": 92}, {"time": 53297, "pitch": 55, "duration": 228, "velocity": 95}, {"time": 53305, "pitch": 67, "duration": 215, "velocity": 95}, {"time": 53313, "pitch": 59, "duration": 217, "velocity": 100}, {"time": 53319, "pitch": 62, "duration": 206, "velocity": 95}, {"time": 53520, "pitch": 43, "duration": 230, "velocity": 89}, {"time": 53527, "pitch": 55, "duration": 230, "velocity": 85}, {"time": 53528, "pitch": 50, "duration": 230, "velocity": 82}, {"time": 53538, "pitch": 59, "duration": 230, "velocity": 90}, {"time": 53544, "pitch": 62, "duration": 230, "velocity": 85}, {"time": 53760, "pitch": 43, "duration": 230, "velocity": 95}, {"time": 53763, "pitch": 50, "duration": 218, "velocity": 99}, {"time": 53766, "pitch": 55, "duration": 218, "velocity": 98}, {"time": 53772, "pitch": 59, "duration": 218, "velocity": 82}, {"time": 53772, "pitch": 62, "duration": 2, "velocity": 82}, {"time": 53993, "pitch": 43, "duration": 14, "velocity": 70}, {"time": 53998, "pitch": 50, "duration": 16, "velocity": 69}, {"time": 54004, "pitch": 55, "duration": 12, "velocity": 85}, {"time": 54012, "pitch": 59, "duration": 6, "velocity": 72}, {"time": 54012, "pitch": 62, "duration": 6, "velocity": 72}, {"time": 54120, "pitch": 55, "duration": 12, "velocity": 54}, {"time": 54126, "pitch": 50, "duration": 12, "velocity": 67}, {"time": 54240, "pitch": 45, "duration": 465, "velocity": 99}, {"time": 54248, "pitch": 52, "duration": 465, "velocity": 92}, {"time": 54257, "pitch": 55, "duration": 465, "velocity": 95}, {"time": 54265, "pitch": 64, "duration": 465, "velocity": 100}, {"time": 54272, "pitch": 60, "duration": 465, "velocity": 100}, {"time": 54720, "pitch": 43, "duration": 465, "velocity": 99}, {"time": 54728, "pitch": 50, "duration": 465, "velocity": 92}, {"time": 54737, "pitch": 55, "duration": 465, "velocity": 95}, {"time": 54745, "pitch": 64, "duration": 465, "velocity": 100}, {"time": 54752, "pitch": 59, "duration": 465, "velocity": 100}, {"time": 55200, "pitch": 41, "duration": 456, "velocity": 98}, {"time": 55208, "pitch": 48, "duration": 462, "velocity": 101}, {"time": 55218, "pitch": 53, "duration": 450, "velocity": 104}, {"time": 55225, "pitch": 57, "duration": 434, "velocity": 90}, {"time": 55225, "pitch": 60, "duration": 434, "velocity": 90}, {"time": 55680, "pitch": 41, "duration": 216, "velocity": 98}, {"time": 55688, "pitch": 48, "duration": 192, "velocity": 101}, {"time": 55698, "pitch": 53, "duration": 202, "velocity": 104}, {"time": 55705, "pitch": 57, "duration": 205, "velocity": 90}, {"time": 55705, "pitch": 60, "duration": 205, "velocity": 90}, {"time": 55913, "pitch": 41, "duration": 14, "velocity": 70}, {"time": 55918, "pitch": 48, "duration": 16, "velocity": 69}, {"time": 55924, "pitch": 53, "duration": 12, "velocity": 85}, {"time": 55932, "pitch": 57, "duration": 6, "velocity": 72}, {"time": 56040, "pitch": 53, "duration": 12, "velocity": 54}, {"time": 56046, "pitch": 48, "duration": 12, "velocity": 67}, {"time": 56160, "pitch": 45, "duration": 230, "velocity": 99}, {"time": 56168, "pitch": 50, "duration": 207, "velocity": 92}, {"time": 56177, "pitch": 57, "duration": 228, "velocity": 95}, {"time": 56193, "pitch": 60, "duration": 217, "velocity": 100}, {"time": 56199, "pitch": 65, "duration": 206, "velocity": 95}, {"time": 56400, "pitch": 45, "duration": 230, "velocity": 89}, {"time": 56407, "pitch": 57, "duration": 230, "velocity": 85}, {"time": 56408, "pitch": 50, "duration": 230, "velocity": 82}, {"time": 56418, "pitch": 60, "duration": 230, "velocity": 90}, {"time": 56424, "pitch": 65, "duration": 230, "velocity": 85}, {"time": 56640, "pitch": 45, "duration": 223, "velocity": 100}, {"time": 56645, "pitch": 50, "duration": 222, "velocity": 93}, {"time": 56655, "pitch": 57, "duration": 220, "velocity": 101}, {"time": 56662, "pitch": 60, "duration": 219, "velocity": 93}, {"time": 56668, "pitch": 65, "duration": 219, "velocity": 91}, {"time": 56876, "pitch": 45, "duration": 11, "velocity": 72}, {"time": 56881, "pitch": 50, "duration": 12, "velocity": 71}, {"time": 56887, "pitch": 57, "duration": 11, "velocity": 69}, {"time": 56891, "pitch": 60, "duration": 13, "velocity": 77}, {"time": 56894, "pitch": 65, "duration": 6, "velocity": 81}, {"time": 57008, "pitch": 65, "duration": 117, "velocity": 95}, {"time": 57011, "pitch": 60, "duration": 113, "velocity": 96}, {"time": 57018, "pitch": 57, "duration": 102, "velocity": 86}, {"time": 57024, "pitch": 50, "duration": 91, "velocity": 68}, {"time": 57026, "pitch": 45, "duration": 83, "velocity": 51}, {"time": 57120, "pitch": 43, "duration": 230, "velocity": 99}, {"time": 57128, "pitch": 50, "duration": 207, "velocity": 92}, {"time": 57137, "pitch": 53, "duration": 228, "velocity": 95}, {"time": 57153, "pitch": 55, "duration": 217, "velocity": 100}, {"time": 57159, "pitch": 59, "duration": 206, "velocity": 95}, {"time": 57159, "pitch": 62, "duration": 206, "velocity": 95}, {"time": 57360, "pitch": 43, "duration": 230, "velocity": 89}, {"time": 57367, "pitch": 53, "duration": 230, "velocity": 85}, {"time": 57368, "pitch": 50, "duration": 230, "velocity": 82}, {"time": 57378, "pitch": 55, "duration": 230, "velocity": 90}, {"time": 57384, "pitch": 59, "duration": 230, "velocity": 85}, {"time": 57384, "pitch": 62, "duration": 230, "velocity": 85}, {"time": 57600, "pitch": 43, "duration": 223, "velocity": 100}, {"time": 57605, "pitch": 50, "duration": 222, "velocity": 93}, {"time": 57615, "pitch": 53, "duration": 220, "velocity": 101}, {"time": 57622, "pitch": 55, "duration": 219, "velocity": 93}, {"time": 57628, "pitch": 59, "duration": 219, "velocity": 91}, {"time": 57628, "pitch": 62, "duration": 219, "velocity": 91}, {"time": 57836, "pitch": 43, "duration": 11, "velocity": 72}, {"time": 57841, "pitch": 50, "duration": 12, "velocity": 71}, {"time": 57847, "pitch": 53, "duration": 11, "velocity": 69}, {"time": 57851, "pitch": 55, "duration": 13, "velocity": 77}, {"time": 57854, "pitch": 59, "duration": 6, "velocity": 81}, {"time": 57854, "pitch": 62, "duration": 6, "velocity": 81}, {"time": 57968, "pitch": 59, "duration": 117, "velocity": 95}, {"time": 57968, "pitch": 62, "duration": 117, "velocity": 95}, {"time": 57971, "pitch": 55, "duration": 113, "velocity": 96}, {"time": 57978, "pitch": 53, "duration": 102, "velocity": 86}, {"time": 57984, "pitch": 50, "duration": 91, "velocity": 68}, {"time": 57986, "pitch": 43, "duration": 83, "velocity": 51}, {"time": 58080, "pitch": 41, "duration": 385, "velocity": 101}, {"time": 58095, "pitch": 48, "duration": 340, "velocity": 102}, {"time": 58102, "pitch": 53, "duration": 339, "velocity": 93}, {"time": 58108, "pitch": 56, "duration": 324, "velocity": 91}, {"time": 58115, "pitch": 60, "duration": 321, "velocity": 89}, {"time": 58440, "pitch": 60, "duration": 120, "velocity": 81}, {"time": 58449, "pitch": 56, "duration": 112, "velocity": 95}, {"time": 58452, "pitch": 53, "duration": 104, "velocity": 96}, {"time": 58459, "pitch": 48, "duration": 96, "velocity": 85}, {"time": 58467, "pitch": 41, "duration": 80, "velocity": 47}, {"time": 58555, "pitch": 41, "duration": 238, "velocity": 70}, {"time": 58566, "pitch": 48, "duration": 223, "velocity": 67}, {"time": 58570, "pitch": 53, "duration": 232, "velocity": 75}, {"time": 58573, "pitch": 56, "duration": 239, "velocity": 80}, {"time": 58582, "pitch": 60, "duration": 238, "velocity": 79}, {"time": 58801, "pitch": 41, "duration": 371, "velocity": 89}, {"time": 58807, "pitch": 48, "duration": 369, "velocity": 90}, {"time": 58814, "pitch": 53, "duration": 344, "velocity": 101}, {"time": 58822, "pitch": 56, "duration": 325, "velocity": 93}, {"time": 58830, "pitch": 60, "duration": 312, "velocity": 85}, {"time": 59160, "pitch": 60, "duration": 135, "velocity": 81}, {"time": 59169, "pitch": 56, "duration": 119, "velocity": 95}, {"time": 59172, "pitch": 53, "duration": 111, "velocity": 96}, {"time": 59179, "pitch": 48, "duration": 96, "velocity": 85}, {"time": 59187, "pitch": 41, "duration": 83, "velocity": 47}, {"time": 59281, "pitch": 41, "duration": 225, "velocity": 81}, {"time": 59285, "pitch": 48, "duration": 226, "velocity": 85}, {"time": 59289, "pitch": 53, "duration": 231, "velocity": 93}, {"time": 59295, "pitch": 56, "duration": 230, "velocity": 91}, {"time": 59304, "pitch": 60, "duration": 230, "velocity": 86}, {"time": 59516, "pitch": 41, "duration": 143, "velocity": 74}, {"time": 59524, "pitch": 48, "duration": 126, "velocity": 106}, {"time": 59533, "pitch": 53, "duration": 120, "velocity": 97}, {"time": 59540, "pitch": 56, "duration": 111, "velocity": 95}, {"time": 59547, "pitch": 60, "duration": 91, "velocity": 93}, {"time": 59649, "pitch": 60, "duration": 124, "velocity": 79}, {"time": 59656, "pitch": 56, "duration": 110, "velocity": 83}, {"time": 59661, "pitch": 53, "duration": 103, "velocity": 83}, {"time": 59670, "pitch": 48, "duration": 96, "velocity": 79}, {"time": 59678, "pitch": 41, "duration": 75, "velocity": 58}, {"time": 59756, "pitch": 41, "duration": 148, "velocity": 74}, {"time": 59769, "pitch": 53, "duration": 129, "velocity": 97}, {"time": 59770, "pitch": 48, "duration": 126, "velocity": 106}, {"time": 59776, "pitch": 56, "duration": 116, "velocity": 95}, {"time": 59787, "pitch": 60, "duration": 101, "velocity": 93}, {"time": 59893, "pitch": 60, "duration": 130, "velocity": 74}, {"time": 59897, "pitch": 56, "duration": 120, "velocity": 79}, {"time": 59902, "pitch": 53, "duration": 108, "velocity": 78}, {"time": 59908, "pitch": 48, "duration": 92, "velocity": 73}, {"time": 59921, "pitch": 41, "duration": 67, "velocity": 58}, {"time": 60000, "pitch": 48, "duration": 372, "velocity": 101}, {"time": 60005, "pitch": 52, "duration": 373, "velocity": 93}, {"time": 60015, "pitch": 55, "duration": 351, "velocity": 102}, {"time": 60022, "pitch": 60, "duration": 1, "velocity": 93}, {"time": 60028, "pitch": 64, "duration": 318, "velocity": 91}, {"time": 60368, "pitch": 64, "duration": 355, "velocity": 95}, {"time": 60371, "pitch": 60, "duration": 345, "velocity": 96}, {"time": 60378, "pitch": 55, "duration": 340, "velocity": 85}, {"time": 60384, "pitch": 52, "duration": 329, "velocity": 66}, {"time": 60386, "pitch": 48, "duration": 327, "velocity": 47}, {"time": 60722, "pitch": 48, "duration": 372, "velocity": 102}, {"time": 60728, "pitch": 52, "duration": 359, "velocity": 101}, {"time": 60732, "pitch": 55, "duration": 346, "velocity": 99}, {"time": 60737, "pitch": 60, "duration": 351, "velocity": 101}, {"time": 60746, "pitch": 64, "duration": 319, "velocity": 100}, {"time": 61088, "pitch": 64, "duration": 133, "velocity": 95}, {"time": 61091, "pitch": 60, "duration": 121, "velocity": 96}, {"time": 61098, "pitch": 55, "duration": 100, "velocity": 85}, {"time": 61104, "pitch": 52, "duration": 89, "velocity": 66}, {"time": 61106, "pitch": 48, "duration": 87, "velocity": 47}, {"time": 61201, "pitch": 48, "duration": 199, "velocity": 91}, {"time": 61209, "pitch": 52, "duration": 215, "velocity": 66}, {"time": 61212, "pitch": 55, "duration": 226, "velocity": 85}, {"time": 61219, "pitch": 60, "duration": 225, "velocity": 93}, {"time": 61226, "pitch": 64, "duration": 222, "velocity": 91}, {"time": 61440, "pitch": 48, "duration": 230, "velocity": 104}, {"time": 61443, "pitch": 52, "duration": 225, "velocity": 108}, {"time": 61446, "pitch": 55, "duration": 225, "velocity": 107}, {"time": 61452, "pitch": 60, "duration": 225, "velocity": 90}, {"time": 61452, "pitch": 64, "duration": 225, "velocity": 90}, {"time": 61673, "pitch": 48, "duration": 14, "velocity": 77}, {"time": 61678, "pitch": 52, "duration": 16, "velocity": 75}, {"time": 61684, "pitch": 55, "duration": 12, "velocity": 93}, {"time": 61692, "pitch": 60, "duration": 6, "velocity": 79}, {"time": 61692, "pitch": 64, "duration": 6, "velocity": 79}, {"time": 61800, "pitch": 55, "duration": 12, "velocity": 59}, {"time": 61806, "pitch": 52, "duration": 12, "velocity": 73}, {"time": 61922, "pitch": 48, "duration": 1880, "velocity": 95}, {"time": 61925, "pitch": 53, "duration": 1875, "velocity": 95}, {"time": 61930, "pitch": 60, "duration": 1890, "velocity": 86}, {"time": 61935, "pitch": 65, "duration": 1885, "velocity": 95}, {"time": 61940, "pitch": 68, "duration": 1900, "velocity": 95}, {"time": 61945, "pitch": 72, "duration": 1895, "velocity": 95}, {"time": 63842, "pitch": 48, "duration": 1880, "velocity": 95}, {"time": 63845, "pitch": 55, "duration": 1875, "velocity": 95}, {"time": 63850, "pitch": 60, "duration": 1890, "velocity": 86}, {"time": 63855, "pitch": 64, "duration": 1885, "velocity": 95}, {"time": 63860, "pitch": 67, "duration": 1900, "velocity": 95}, {"time": 65762, "pitch": 48, "duration": 1880, "velocity": 95}, {"time": 65765, "pitch": 53, "duration": 1875, "velocity": 95}, {"time": 65770, "pitch": 60, "duration": 1890, "velocity": 86}, {"time": 65775, "pitch": 65, "duration": 1885, "velocity": 95}, {"time": 65780, "pitch": 68, "duration": 1900, "velocity": 95}, {"time": 65785, "pitch": 72, "duration": 1895, "velocity": 95}, {"time": 67682, "pitch": 48, "duration": 1880, "velocity": 95}, {"time": 67685, "pitch": 55, "duration": 1875, "velocity": 95}, {"time": 67690, "pitch": 60, "duration": 1890, "velocity": 86}, {"time": 67695, "pitch": 64, "duration": 1885, "velocity": 95}, {"time": 67700, "pitch": 67, "duration": 1900, "velocity": 95}, {"time": 69600, "pitch": 48, "duration": 465, "velocity": 99}, {"time": 69608, "pitch": 52, "duration": 465, "velocity": 92}, {"time": 69617, "pitch": 55, "duration": 465, "velocity": 95}, {"time": 69625, "pitch": 62, "duration": 465, "velocity": 100}, {"time": 69631, "pitch": 64, "duration": 461, "velocity": 100}, {"time": 70080, "pitch": 48, "duration": 244, "velocity": 98}, {"time": 70088, "pitch": 52, "duration": 226, "velocity": 101}, {"time": 70098, "pitch": 55, "duration": 214, "velocity": 104}, {"time": 70105, "pitch": 62, "duration": 198, "velocity": 90}, {"time": 70107, "pitch": 64, "duration": 198, "velocity": 90}, {"time": 70320, "pitch": 48, "duration": 4, "velocity": 85}, {"time": 70323, "pitch": 52, "duration": 105, "velocity": 89}, {"time": 70326, "pitch": 55, "duration": 105, "velocity": 88}, {"time": 70332, "pitch": 62, "duration": 105, "velocity": 73}, {"time": 70440, "pitch": 62, "duration": 100, "velocity": 69}, {"time": 70442, "pitch": 55, "duration": 100, "velocity": 71}, {"time": 70445, "pitch": 52, "duration": 100, "velocity": 69}, {"time": 70560, "pitch": 47, "duration": 225, "velocity": 99}, {"time": 70568, "pitch": 50, "duration": 225, "velocity": 92}, {"time": 70577, "pitch": 55, "duration": 225, "velocity": 95}, {"time": 70585, "pitch": 59, "duration": 225, "velocity": 100}, {"time": 70591, "pitch": 67, "duration": 221, "velocity": 100}, {"time": 70800, "pitch": 47, "duration": 225, "velocity": 89}, {"time": 70808, "pitch": 50, "duration": 225, "velocity": 82}, {"time": 70817, "pitch": 55, "duration": 225, "velocity": 85}, {"time": 70825, "pitch": 59, "duration": 225, "velocity": 90}, {"time": 71040, "pitch": 47, "duration": 244, "velocity": 98}, {"time": 71048, "pitch": 50, "duration": 226, "velocity": 101}, {"time": 71058, "pitch": 55, "duration": 214, "velocity": 104}, {"time": 71065, "pitch": 59, "duration": 198, "velocity": 90}, {"time": 71067, "pitch": 67, "duration": 198, "velocity": 90}, {"time": 71280, "pitch": 47, "duration": 4, "velocity": 85}, {"time": 71283, "pitch": 50, "duration": 105, "velocity": 89}, {"time": 71286, "pitch": 55, "duration": 105, "velocity": 88}, {"time": 71292, "pitch": 59, "duration": 105, "velocity": 73}, {"time": 71400, "pitch": 59, "duration": 100, "velocity": 69}, {"time": 71402, "pitch": 55, "duration": 100, "velocity": 71}, {"time": 71405, "pitch": 50, "duration": 100, "velocity": 69}, {"time": 71520, "pitch": 45, "duration": 465, "velocity": 94}, {"time": 71525, "pitch": 52, "duration": 465, "velocity": 96}, {"time": 71530, "pitch": 57, "duration": 465, "velocity": 98}, {"time": 71535, "pitch": 60, "duration": 465, "velocity": 88}, {"time": 71537, "pitch": 64, "duration": 465, "velocity": 88}, {"time": 72000, "pitch": 45, "duration": 244, "velocity": 98}, {"time": 72008, "pitch": 52, "duration": 226, "velocity": 101}, {"time": 72018, "pitch": 57, "duration": 214, "velocity": 104}, {"time": 72025, "pitch": 60, "duration": 198, "velocity": 90}, {"time": 72027, "pitch": 64, "duration": 198, "velocity": 90}, {"time": 72240, "pitch": 45, "duration": 4, "velocity": 85}, {"time": 72243, "pitch": 52, "duration": 105, "velocity": 89}, {"time": 72246, "pitch": 57, "duration": 105, "velocity": 88}, {"time": 72252, "pitch": 60, "duration": 105, "velocity": 73}, {"time": 72360, "pitch": 60, "duration": 100, "velocity": 69}, {"time": 72362, "pitch": 57, "duration": 100, "velocity": 71}, {"time": 72365, "pitch": 52, "duration": 100, "velocity": 69}, {"time": 72480, "pitch": 43, "duration": 225, "velocity": 99}, {"time": 72488, "pitch": 48, "duration": 225, "velocity": 92}, {"time": 72497, "pitch": 52, "duration": 225, "velocity": 95}, {"time": 72505, "pitch": 55, "duration": 225, "velocity": 100}, {"time": 72511, "pitch": 60, "duration": 221, "velocity": 100}, {"time": 72515, "pitch": 64, "duration": 221, "velocity": 100}, {"time": 72720, "pitch": 43, "duration": 225, "velocity": 89}, {"time": 72728, "pitch": 48, "duration": 225, "velocity": 82}, {"time": 72737, "pitch": 52, "duration": 225, "velocity": 85}, {"time": 72745, "pitch": 55, "duration": 225, "velocity": 90}, {"time": 72751, "pitch": 60, "duration": 221, "velocity": 90}, {"time": 72960, "pitch": 43, "duration": 244, "velocity": 98}, {"time": 72968, "pitch": 48, "duration": 226, "velocity": 101}, {"time": 72978, "pitch": 52, "duration": 214, "velocity": 104}, {"time": 72985, "pitch": 55, "duration": 198, "velocity": 90}, {"time": 72987, "pitch": 60, "duration": 198, "velocity": 90}, {"time": 72991, "pitch": 64, "duration": 198, "velocity": 90}, {"time": 73200, "pitch": 43, "duration": 4, "velocity": 85}, {"time": 73203, "pitch": 48, "duration": 105, "velocity": 89}, {"time": 73206, "pitch": 52, "duration": 105, "velocity": 88}, {"time": 73212, "pitch": 55, "duration": 105, "velocity": 73}, {"time": 73320, "pitch": 55, "duration": 100, "velocity": 69}, {"time": 73322, "pitch": 52, "duration": 100, "velocity": 71}, {"time": 73325, "pitch": 48, "duration": 100, "velocity": 69}, {"time": 73440, "pitch": 41, "duration": 465, "velocity": 99}, {"time": 73448, "pitch": 48, "duration": 465, "velocity": 92}, {"time": 73457, "pitch": 53, "duration": 465, "velocity": 95}, {"time": 73465, "pitch": 57, "duration": 465, "velocity": 100}, {"time": 73471, "pitch": 60, "duration": 461, "velocity": 100}, {"time": 73475, "pitch": 65, "duration": 461, "velocity": 100}, {"time": 73920, "pitch": 41, "duration": 244, "velocity": 98}, {"time": 73928, "pitch": 48, "duration": 226, "velocity": 101}, {"time": 73938, "pitch": 53, "duration": 214, "velocity": 104}, {"time": 73945, "pitch": 57, "duration": 198, "velocity": 90}, {"time": 73947, "pitch": 60, "duration": 198, "velocity": 90}, {"time": 73951, "pitch": 65, "duration": 198, "velocity": 90}, {"time": 74160, "pitch": 41, "duration": 4, "velocity": 85}, {"time": 74163, "pitch": 48, "duration": 105, "velocity": 89}, {"time": 74166, "pitch": 53, "duration": 105, "velocity": 88}, {"time": 74172, "pitch": 57, "duration": 105, "velocity": 73}, {"time": 74280, "pitch": 57, "duration": 100, "velocity": 69}, {"time": 74282, "pitch": 53, "duration": 100, "velocity": 71}, {"time": 74285, "pitch": 48, "duration": 100, "velocity": 69}, {"time": 74400, "pitch": 43, "duration": 225, "velocity": 99}, {"time": 74408, "pitch": 50, "duration": 225, "velocity": 92}, {"time": 74417, "pitch": 55, "duration": 225, "velocity": 95}, {"time": 74425, "pitch": 59, "duration": 225, "velocity": 100}, {"time": 74431, "pitch": 62, "duration": 221, "velocity": 100}, {"time": 74435, "pitch": 67, "duration": 221, "velocity": 100}, {"time": 74640, "pitch": 43, "duration": 225, "velocity": 89}, {"time": 74648, "pitch": 50, "duration": 225, "velocity": 82}, {"time": 74657, "pitch": 55, "duration": 225, "velocity": 85}, {"time": 74665, "pitch": 59, "duration": 225, "velocity": 90}, {"time": 74671, "pitch": 62, "duration": 221, "velocity": 90}, {"time": 74880, "pitch": 43, "duration": 244, "velocity": 98}, {"time": 74888, "pitch": 50, "duration": 226, "velocity": 101}, {"time": 74898, "pitch": 55, "duration": 214, "velocity": 104}, {"time": 74905, "pitch": 59, "duration": 198, "velocity": 90}, {"time": 74907, "pitch": 62, "duration": 198, "velocity": 90}, {"time": 74911, "pitch": 67, "duration": 198, "velocity": 90}, {"time": 75120, "pitch": 43, "duration": 4, "velocity": 85}, {"time": 75123, "pitch": 50, "duration": 105, "velocity": 89}, {"time": 75126, "pitch": 55, "duration": 105, "velocity": 88}, {"time": 75132, "pitch": 59, "duration": 105, "velocity": 73}, {"time": 75240, "pitch": 59, "duration": 100, "velocity": 69}, {"time": 75242, "pitch": 55, "duration": 100, "velocity": 71}, {"time": 75245, "pitch": 50, "duration": 100, "velocity": 69}, {"time": 75360, "pitch": 48, "duration": 465, "velocity": 99}, {"time": 75368, "pitch": 52, "duration": 465, "velocity": 92}, {"time": 75377, "pitch": 55, "duration": 465, "velocity": 95}, {"time": 75385, "pitch": 62, "duration": 465, "velocity": 100}, {"time": 75391, "pitch": 64, "duration": 461, "velocity": 100}, {"time": 75840, "pitch": 48, "duration": 244, "velocity": 98}, {"time": 75848, "pitch": 52, "duration": 226, "velocity": 101}, {"time": 75858, "pitch": 55, "duration": 214, "velocity": 104}, {"time": 75865, "pitch": 62, "duration": 198, "velocity": 90}, {"time": 75867, "pitch": 64, "duration": 198, "velocity": 90}, {"time": 76080, "pitch": 48, "duration": 4, "velocity": 85}, {"time": 76083, "pitch": 52, "duration": 105, "velocity": 89}, {"time": 76086, "pitch": 55, "duration": 105, "velocity": 88}, {"time": 76092, "pitch": 62, "duration": 105, "velocity": 73}, {"time": 76200, "pitch": 62, "duration": 100, "velocity": 69}, {"time": 76202, "pitch": 55, "duration": 100, "velocity": 71}, {"time": 76205, "pitch": 52, "duration": 100, "velocity": 69}, {"time": 76320, "pitch": 48, "duration": 465, "velocity": 99}, {"time": 76328, "pitch": 52, "duration": 465, "velocity": 92}, {"time": 76337, "pitch": 55, "duration": 465, "velocity": 95}, {"time": 76345, "pitch": 62, "duration": 465, "velocity": 100}, {"time": 76351, "pitch": 64, "duration": 461, "velocity": 100}, {"time": 76800, "pitch": 48, "duration": 244, "velocity": 98}, {"time": 76808, "pitch": 52, "duration": 226, "velocity": 101}, {"time": 76818, "pitch": 55, "duration": 214, "velocity": 104}, {"time": 76825, "pitch": 62, "duration": 198, "velocity": 90}, {"time": 76827, "pitch": 64, "duration": 198, "velocity": 90}, {"time": 77040, "pitch": 48, "duration": 4, "velocity": 85}, {"time": 77043, "pitch": 52, "duration": 105, "velocity": 89}, {"time": 77046, "pitch": 55, "duration": 105, "velocity": 88}, {"time": 77052, "pitch": 62, "duration": 105, "velocity": 73}, {"time": 77160, "pitch": 62, "duration": 100, "velocity": 69}, {"time": 77162, "pitch": 55, "duration": 100, "velocity": 71}, {"time": 77165, "pitch": 52, "duration": 100, "velocity": 69}, {"time": 77280, "pitch": 48, "duration": 465, "velocity": 99}, {"time": 77288, "pitch": 52, "duration": 465, "velocity": 92}, {"time": 77297, "pitch": 55, "duration": 465, "velocity": 95}, {"time": 77305, "pitch": 62, "duration": 465, "velocity": 100}, {"time": 77311, "pitch": 64, "duration": 461, "velocity": 100}, {"time": 77760, "pitch": 48, "duration": 244, "velocity": 98}, {"time": 77768, "pitch": 52, "duration": 226, "velocity": 101}, {"time": 77778, "pitch": 55, "duration": 214, "velocity": 104}, {"time": 77785, "pitch": 62, "duration": 198, "velocity": 90}, {"time": 77787, "pitch": 64, "duration": 198, "velocity": 90}, {"time": 78000, "pitch": 48, "duration": 4, "velocity": 85}, {"time": 78003, "pitch": 52, "duration": 105, "velocity": 89}, {"time": 78006, "pitch": 55, "duration": 105, "velocity": 88}, {"time": 78012, "pitch": 62, "duration": 105, "velocity": 73}, {"time": 78120, "pitch": 62, "duration": 100, "velocity": 69}, {"time": 78122, "pitch": 55, "duration": 100, "velocity": 71}, {"time": 78125, "pitch": 52, "duration": 100, "velocity": 69}, {"time": 78240, "pitch": 47, "duration": 225, "velocity": 99}, {"time": 78248, "pitch": 50, "duration": 225, "velocity": 92}, {"time": 78257, "pitch": 55, "duration": 225, "velocity": 95}, {"time": 78265, "pitch": 59, "duration": 225, "velocity": 100}, {"time": 78271, "pitch": 67, "duration": 221, "velocity": 100}, {"time": 78480, "pitch": 47, "duration": 225, "velocity": 89}, {"time": 78488, "pitch": 50, "duration": 225, "velocity": 82}, {"time": 78497, "pitch": 55, "duration": 225, "velocity": 85}, {"time": 78505, "pitch": 59, "duration": 225, "velocity": 90}, {"time": 78720, "pitch": 47, "duration": 244, "velocity": 98}, {"time": 78728, "pitch": 50, "duration": 226, "velocity": 101}, {"time": 78738, "pitch": 55, "duration": 214, "velocity": 104}, {"time": 78745, "pitch": 59, "duration": 198, "velocity": 90}, {"time": 78747, "pitch": 67, "duration": 198, "velocity": 90}, {"time": 78960, "pitch": 47, "duration": 4, "velocity": 85}, {"time": 78963, "pitch": 50, "duration": 105, "velocity": 89}, {"time": 78966, "pitch": 55, "duration": 105, "velocity": 88}, {"time": 78972, "pitch": 59, "duration": 105, "velocity": 73}, {"time": 79080, "pitch": 59, "duration": 100, "velocity": 69}, {"time": 79082, "pitch": 55, "duration": 100, "velocity": 71}, {"time": 79085, "pitch": 50, "duration": 100, "velocity": 69}, {"time": 79200, "pitch": 45, "duration": 465, "velocity": 94}, {"time": 79205, "pitch": 52, "duration": 465, "velocity": 96}, {"time": 79210, "pitch": 57, "duration": 465, "velocity": 98}, {"time": 79215, "pitch": 60, "duration": 465, "velocity": 88}, {"time": 79217, "pitch": 64, "duration": 465, "velocity": 88}, {"time": 79680, "pitch": 45, "duration": 244, "velocity": 98}, {"time": 79688, "pitch": 52, "duration": 226, "velocity": 101}, {"time": 79698, "pitch": 57, "duration": 214, "velocity": 104}, {"time": 79705, "pitch": 60, "duration": 198, "velocity": 90}, {"time": 79707, "pitch": 64, "duration": 198, "velocity": 90}, {"time": 79920, "pitch": 45, "duration": 4, "velocity": 85}, {"time": 79923, "pitch": 52, "duration": 105, "velocity": 89}, {"time": 79926, "pitch": 57, "duration": 105, "velocity": 88}, {"time": 79932, "pitch": 60, "duration": 105, "velocity": 73}, {"time": 80040, "pitch": 60, "duration": 100, "velocity": 69}, {"time": 80042, "pitch": 57, "duration": 100, "velocity": 71}, {"time": 80045, "pitch": 52, "duration": 100, "velocity": 69}, {"time": 80160, "pitch": 43, "duration": 225, "velocity": 99}, {"time": 80168, "pitch": 48, "duration": 225, "velocity": 92}, {"time": 80177, "pitch": 52, "duration": 225, "velocity": 95}, {"time": 80185, "pitch": 55, "duration": 225, "velocity": 100}, {"time": 80191, "pitch": 60, "duration": 221, "velocity": 100}, {"time": 80195, "pitch": 64, "duration": 221, "velocity": 100}, {"time": 80400, "pitch": 43, "duration": 225, "velocity": 89}, {"time": 80408, "pitch": 48, "duration": 225, "velocity": 82}, {"time": 80417, "pitch": 52, "duration": 225, "velocity": 85}, {"time": 80425, "pitch": 55, "duration": 225, "velocity": 90}, {"time": 80431, "pitch": 60, "duration": 221, "velocity": 90}, {"time": 80640, "pitch": 43, "duration": 244, "velocity": 98}, {"time": 80648, "pitch": 48, "duration": 226, "velocity": 101}, {"time": 80658, "pitch": 52, "duration": 214, "velocity": 104}, {"time": 80665, "pitch": 55, "duration": 198, "velocity": 90}, {"time": 80667, "pitch": 60, "duration": 198, "velocity": 90}, {"time": 80671, "pitch": 64, "duration": 198, "velocity": 90}, {"time": 80880, "pitch": 43, "duration": 4, "velocity": 85}, {"time": 80883, "pitch": 48, "duration": 105, "velocity": 89}, {"time": 80886, "pitch": 52, "duration": 105, "velocity": 88}, {"time": 80892, "pitch": 55, "duration": 105, "velocity": 73}, {"time": 81000, "pitch": 55, "duration": 100, "velocity": 69}, {"time": 81002, "pitch": 52, "duration": 100, "velocity": 71}, {"time": 81005, "pitch": 48, "duration": 100, "velocity": 69}, {"time": 81120, "pitch": 41, "duration": 465, "velocity": 99}, {"time": 81128, "pitch": 48, "duration": 465, "velocity": 92}, {"time": 81137, "pitch": 53, "duration": 465, "velocity": 95}, {"time": 81145, "pitch": 57, "duration": 465, "velocity": 100}, {"time": 81151, "pitch": 60, "duration": 461, "velocity": 100}, {"time": 81155, "pitch": 65, "duration": 461, "velocity": 100}, {"time": 81600, "pitch": 41, "duration": 244, "velocity": 98}, {"time": 81608, "pitch": 48, "duration": 226, "velocity": 101}, {"time": 81618, "pitch": 53, "duration": 214, "velocity": 104}, {"time": 81625, "pitch": 57, "duration": 198, "velocity": 90}, {"time": 81627, "pitch": 60, "duration": 198, "velocity": 90}, {"time": 81631, "pitch": 65, "duration": 198, "velocity": 90}, {"time": 81840, "pitch": 41, "duration": 4, "velocity": 85}, {"time": 81843, "pitch": 48, "duration": 105, "velocity": 89}, {"time": 81846, "pitch": 53, "duration": 105, "velocity": 88}, {"time": 81852, "pitch": 57, "duration": 105, "velocity": 73}, {"time": 81960, "pitch": 57, "duration": 100, "velocity": 69}, {"time": 81962, "pitch": 53, "duration": 100, "velocity": 71}, {"time": 81965, "pitch": 48, "duration": 100, "velocity": 69}, {"time": 82080, "pitch": 43, "duration": 225, "velocity": 99}, {"time": 82088, "pitch": 50, "duration": 225, "velocity": 92}, {"time": 82097, "pitch": 55, "duration": 225, "velocity": 95}, {"time": 82105, "pitch": 59, "duration": 225, "velocity": 100}, {"time": 82111, "pitch": 62, "duration": 221, "velocity": 100}, {"time": 82115, "pitch": 67, "duration": 221, "velocity": 100}, {"time": 82320, "pitch": 43, "duration": 225, "velocity": 89}, {"time": 82328, "pitch": 50, "duration": 225, "velocity": 82}, {"time": 82337, "pitch": 55, "duration": 225, "velocity": 85}, {"time": 82345, "pitch": 59, "duration": 225, "velocity": 90}, {"time": 82351, "pitch": 62, "duration": 221, "velocity": 90}, {"time": 82560, "pitch": 43, "duration": 244, "velocity": 98}, {"time": 82568, "pitch": 50, "duration": 226, "velocity": 101}, {"time": 82578, "pitch": 55, "duration": 214, "velocity": 104}, {"time": 82585, "pitch": 59, "duration": 198, "velocity": 90}, {"time": 82587, "pitch": 62, "duration": 198, "velocity": 90}, {"time": 82591, "pitch": 67, "duration": 198, "velocity": 90}, {"time": 82800, "pitch": 43, "duration": 4, "velocity": 85}, {"time": 82803, "pitch": 50, "duration": 105, "velocity": 89}, {"time": 82806, "pitch": 55, "duration": 105, "velocity": 88}, {"time": 82812, "pitch": 59, "duration": 105, "velocity": 73}, {"time": 82920, "pitch": 59, "duration": 100, "velocity": 69}, {"time": 82922, "pitch": 55, "duration": 100, "velocity": 71}, {"time": 82925, "pitch": 50, "duration": 100, "velocity": 69}, {"time": 83040, "pitch": 48, "duration": 465, "velocity": 99}, {"time": 83048, "pitch": 52, "duration": 465, "velocity": 92}, {"time": 83057, "pitch": 55, "duration": 465, "velocity": 95}, {"time": 83065, "pitch": 62, "duration": 465, "velocity": 100}, {"time": 83071, "pitch": 64, "duration": 461, "velocity": 100}, {"time": 83520, "pitch": 48, "duration": 244, "velocity": 98}, {"time": 83528, "pitch": 52, "duration": 226, "velocity": 101}, {"time": 83538, "pitch": 55, "duration": 214, "velocity": 104}, {"time": 83545, "pitch": 62, "duration": 198, "velocity": 90}, {"time": 83547, "pitch": 64, "duration": 198, "velocity": 90}, {"time": 83760, "pitch": 48, "duration": 4, "velocity": 85}, {"time": 83763, "pitch": 52, "duration": 105, "velocity": 89}, {"time": 83766, "pitch": 55, "duration": 105, "velocity": 88}, {"time": 83772, "pitch": 62, "duration": 105, "velocity": 73}, {"time": 83880, "pitch": 62, "duration": 100, "velocity": 69}, {"time": 83882, "pitch": 55, "duration": 100, "velocity": 71}, {"time": 83885, "pitch": 52, "duration": 100, "velocity": 69}, {"time": 84000, "pitch": 48, "duration": 465, "velocity": 99}, {"time": 84008, "pitch": 52, "duration": 465, "velocity": 92}, {"time": 84017, "pitch": 55, "duration": 465, "velocity": 95}, {"time": 84025, "pitch": 62, "duration": 465, "velocity": 100}, {"time": 84031, "pitch": 64, "duration": 461, "velocity": 100}, {"time": 84480, "pitch": 48, "duration": 244, "velocity": 98}, {"time": 84488, "pitch": 52, "duration": 226, "velocity": 101}, {"time": 84498, "pitch": 55, "duration": 214, "velocity": 104}, {"time": 84505, "pitch": 62, "duration": 198, "velocity": 90}, {"time": 84507, "pitch": 64, "duration": 198, "velocity": 90}, {"time": 84720, "pitch": 48, "duration": 4, "velocity": 85}, {"time": 84723, "pitch": 52, "duration": 105, "velocity": 89}, {"time": 84726, "pitch": 55, "duration": 105, "velocity": 88}, {"time": 84732, "pitch": 62, "duration": 105, "velocity": 73}, {"time": 84840, "pitch": 62, "duration": 100, "velocity": 69}, {"time": 84842, "pitch": 55, "duration": 100, "velocity": 71}, {"time": 84845, "pitch": 52, "duration": 100, "velocity": 69}, {"time": 84960, "pitch": 46, "duration": 456, "velocity": 98}, {"time": 84968, "pitch": 53, "duration": 342, "velocity": 101}, {"time": 84978, "pitch": 58, "duration": 330, "velocity": 104}, {"time": 84985, "pitch": 62, "duration": 314, "velocity": 90}, {"time": 85320, "pitch": 62, "duration": 99, "velocity": 78}, {"time": 85323, "pitch": 58, "duration": 97, "velocity": 88}, {"time": 85326, "pitch": 53, "duration": 91, "velocity": 86}, {"time": 85433, "pitch": 46, "duration": 14, "velocity": 70}, {"time": 85438, "pitch": 53, "duration": 16, "velocity": 69}, {"time": 85444, "pitch": 58, "duration": 12, "velocity": 85}, {"time": 85452, "pitch": 62, "duration": 6, "velocity": 72}, {"time": 85560, "pitch": 58, "duration": 14, "velocity": 61}, {"time": 85566, "pitch": 53, "duration": 14, "velocity": 60}, {"time": 85680, "pitch": 46, "duration": 330, "velocity": 94}, {"time": 85685, "pitch": 53, "duration": 330, "velocity": 96}, {"time": 85690, "pitch": 58, "duration": 330, "velocity": 98}, {"time": 85695, "pitch": 62, "duration": 330, "velocity": 88}, {"time": 86033, "pitch": 46, "duration": 81, "velocity": 70}, {"time": 86038, "pitch": 53, "duration": 83, "velocity": 69}, {"time": 86044, "pitch": 58, "duration": 79, "velocity": 85}, {"time": 86052, "pitch": 62, "duration": 73, "velocity": 72}, {"time": 86160, "pitch": 46, "duration": 220, "velocity": 76}, {"time": 86165, "pitch": 53, "duration": 220, "velocity": 76}, {"time": 86170, "pitch": 58, "duration": 220, "velocity": 74}, {"time": 86175, "pitch": 62, "duration": 220, "velocity": 76}, {"time": 86400, "pitch": 46, "duration": 230, "velocity": 95}, {"time": 86403, "pitch": 53, "duration": 105, "velocity": 99}, {"time": 86406, "pitch": 58, "duration": 105, "velocity": 98}, {"time": 86412, "pitch": 62, "duration": 105, "velocity": 82}, {"time": 86520, "pitch": 62, "duration": 100, "velocity": 77}, {"time": 86522, "pitch": 58, "duration": 100, "velocity": 79}, {"time": 86525, "pitch": 53, "duration": 100, "velocity": 77}, {"time": 86633, "pitch": 46, "duration": 14, "velocity": 70}, {"time": 86638, "pitch": 53, "duration": 16, "velocity": 69}, {"time": 86644, "pitch": 58, "duration": 12, "velocity": 85}, {"time": 86652, "pitch": 62, "duration": 6, "velocity": 72}, {"time": 86760, "pitch": 58, "duration": 12, "velocity": 54}, {"time": 86766, "pitch": 53, "duration": 12, "velocity": 67}, {"time": 86880, "pitch": 48, "duration": 456, "velocity": 98}, {"time": 86888, "pitch": 55, "duration": 342, "velocity": 101}, {"time": 86898, "pitch": 60, "duration": 330, "velocity": 104}, {"time": 86905, "pitch": 64, "duration": 314, "velocity": 90}, {"time": 87240, "pitch": 64, "duration": 99, "velocity": 78}, {"time": 87243, "pitch": 60, "duration": 97, "velocity": 88}, {"time": 87246, "pitch": 55, "duration": 91, "velocity": 86}, {"time": 87353, "pitch": 48, "duration": 14, "velocity": 70}, {"time": 87358, "pitch": 55, "duration": 16, "velocity": 69}, {"time": 87364, "pitch": 60, "duration": 12, "velocity": 85}, {"time": 87372, "pitch": 64, "duration": 6, "velocity": 72}, {"time": 87480, "pitch": 60, "duration": 14, "velocity": 61}, {"time": 87486, "pitch": 55, "duration": 14, "velocity": 60}, {"time": 87600, "pitch": 48, "duration": 330, "velocity": 94}, {"time": 87605, "pitch": 55, "duration": 330, "velocity": 96}, {"time": 87610, "pitch": 60, "duration": 330, "velocity": 98}, {"time": 87615, "pitch": 64, "duration": 330, "velocity": 88}, {"time": 87953, "pitch": 48, "duration": 81, "velocity": 70}, {"time": 87958, "pitch": 55, "duration": 83, "velocity": 69}, {"time": 87964, "pitch": 60, "duration": 79, "velocity": 85}, {"time": 87972, "pitch": 64, "duration": 73, "velocity": 72}, {"time": 88080, "pitch": 48, "duration": 220, "velocity": 76}, {"time": 88085, "pitch": 55, "duration": 220, "velocity": 76}, {"time": 88090, "pitch": 60, "duration": 220, "velocity": 74}, {"time": 88095, "pitch": 64, "duration": 220, "velocity": 76}, {"time": 88320, "pitch": 48, "duration": 230, "velocity": 95}, {"time": 88323, "pitch": 55, "duration": 105, "velocity": 99}, {"time": 88326, "pitch": 60, "duration": 105, "velocity": 98}, {"time": 88332, "pitch": 64, "duration": 105, "velocity": 82}, {"time": 88440, "pitch": 64, "duration": 100, "velocity": 77}, {"time": 88442, "pitch": 60, "duration": 100, "velocity": 79}, {"time": 88445, "pitch": 55, "duration": 100, "velocity": 77}, {"time": 88553, "pitch": 48, "duration": 14, "velocity": 70}, {"time": 88558, "pitch": 55, "duration": 16, "velocity": 69}, {"time": 88564, "pitch": 60, "duration": 12, "velocity": 85}, {"time": 88572, "pitch": 64, "duration": 6, "velocity": 72}, {"time": 88680, "pitch": 60, "duration": 12, "velocity": 54}, {"time": 88686, "pitch": 55, "duration": 12, "velocity": 67}, {"time": 88800, "pitch": 46, "duration": 456, "velocity": 98}, {"time": 88808, "pitch": 53, "duration": 342, "velocity": 101}, {"time": 88818, "pitch": 58, "duration": 330, "velocity": 104}, {"time": 88825, "pitch": 62, "duration": 314, "velocity": 90}, {"time": 89160, "pitch": 62, "duration": 99, "velocity": 78}, {"time": 89163, "pitch": 58, "duration": 97, "velocity": 88}, {"time": 89166, "pitch": 53, "duration": 91, "velocity": 86}, {"time": 89273, "pitch": 46, "duration": 14, "velocity": 70}, {"time": 89278, "pitch": 53, "duration": 16, "velocity": 69}, {"time": 89284, "pitch": 58, "duration": 12, "velocity": 85}, {"time": 89292, "pitch": 62, "duration": 6, "velocity": 72}, {"time": 89400, "pitch": 58, "duration": 14, "velocity": 61}, {"time": 89406, "pitch": 53, "duration": 14, "velocity": 60}, {"time": 89520, "pitch": 46, "duration": 330, "velocity": 94}, {"time": 89525, "pitch": 53, "duration": 330, "velocity": 96}, {"time": 89530, "pitch": 58, "duration": 330, "velocity": 98}, {"time": 89535, "pitch": 62, "duration": 330, "velocity": 88}, {"time": 89873, "pitch": 46, "duration": 81, "velocity": 70}, {"time": 89878, "pitch": 53, "duration": 83, "velocity": 69}, {"time": 89884, "pitch": 58, "duration": 79, "velocity": 85}, {"time": 89892, "pitch": 62, "duration": 73, "velocity": 72}, {"time": 90000, "pitch": 46, "duration": 220, "velocity": 76}, {"time": 90005, "pitch": 53, "duration": 220, "velocity": 76}, {"time": 90010, "pitch": 58, "duration": 220, "velocity": 74}, {"time": 90015, "pitch": 62, "duration": 220, "velocity": 76}, {"time": 90240, "pitch": 46, "duration": 230, "velocity": 95}, {"time": 90243, "pitch": 53, "duration": 105, "velocity": 99}, {"time": 90246, "pitch": 58, "duration": 105, "velocity": 98}, {"time": 90252, "pitch": 62, "duration": 105, "velocity": 82}, {"time": 90360, "pitch": 62, "duration": 100, "velocity": 77}, {"time": 90362, "pitch": 58, "duration": 100, "velocity": 79}, {"time": 90365, "pitch": 53, "duration": 100, "velocity": 77}, {"time": 90473, "pitch": 46, "duration": 14, "velocity": 70}, {"time": 90478, "pitch": 53, "duration": 16, "velocity": 69}, {"time": 90484, "pitch": 58, "duration": 12, "velocity": 85}, {"time": 90492, "pitch": 62, "duration": 6, "velocity": 72}, {"time": 90600, "pitch": 58, "duration": 12, "velocity": 54}, {"time": 90606, "pitch": 53, "duration": 12, "velocity": 67}, {"time": 90720, "pitch": 48, "duration": 456, "velocity": 98}, {"time": 90728, "pitch": 55, "duration": 342, "velocity": 101}, {"time": 90738, "pitch": 60, "duration": 330, "velocity": 104}, {"time": 90745, "pitch": 64, "duration": 314, "velocity": 90}, {"time": 91080, "pitch": 64, "duration": 99, "velocity": 78}, {"time": 91083, "pitch": 60, "duration": 97, "velocity": 88}, {"time": 91086, "pitch": 55, "duration": 91, "velocity": 86}, {"time": 91193, "pitch": 48, "duration": 14, "velocity": 70}, {"time": 91198, "pitch": 55, "duration": 16, "velocity": 69}, {"time": 91204, "pitch": 60, "duration": 12, "velocity": 85}, {"time": 91212, "pitch": 64, "duration": 6, "velocity": 72}, {"time": 91320, "pitch": 60, "duration": 14, "velocity": 61}, {"time": 91326, "pitch": 55, "duration": 14, "velocity": 60}, {"time": 91440, "pitch": 48, "duration": 330, "velocity": 94}, {"time": 91445, "pitch": 55, "duration": 330, "velocity": 96}, {"time": 91450, "pitch": 60, "duration": 330, "velocity": 98}, {"time": 91455, "pitch": 64, "duration": 330, "velocity": 88}, {"time": 91793, "pitch": 48, "duration": 81, "velocity": 70}, {"time": 91798, "pitch": 55, "duration": 83, "velocity": 69}, {"time": 91804, "pitch": 60, "duration": 79, "velocity": 85}, {"time": 91812, "pitch": 64, "duration": 73, "velocity": 72}, {"time": 91920, "pitch": 48, "duration": 220, "velocity": 76}, {"time": 91925, "pitch": 55, "duration": 220, "velocity": 76}, {"time": 91930, "pitch": 60, "duration": 220, "velocity": 74}, {"time": 91935, "pitch": 64, "duration": 220, "velocity": 76}, {"time": 92160, "pitch": 48, "duration": 230, "velocity": 95}, {"time": 92163, "pitch": 55, "duration": 105, "velocity": 99}, {"time": 92166, "pitch": 60, "duration": 105, "velocity": 98}, {"time": 92172, "pitch": 64, "duration": 105, "velocity": 82}, {"time": 92280, "pitch": 64, "duration": 100, "velocity": 77}, {"time": 92282, "pitch": 60, "duration": 100, "velocity": 79}, {"time": 92285, "pitch": 55, "duration": 100, "velocity": 77}, {"time": 92393, "pitch": 48, "duration": 14, "velocity": 70}, {"time": 92398, "pitch": 55, "duration": 16, "velocity": 69}, {"time": 92404, "pitch": 60, "duration": 12, "velocity": 85}, {"time": 92412, "pitch": 64, "duration": 6, "velocity": 72}, {"time": 92520, "pitch": 60, "duration": 12, "velocity": 54}, {"time": 92526, "pitch": 55, "duration": 12, "velocity": 67}, {"time": 92640, "pitch": 46, "duration": 456, "velocity": 98}, {"time": 92648, "pitch": 53, "duration": 342, "velocity": 101}, {"time": 92658, "pitch": 58, "duration": 330, "velocity": 104}, {"time": 92665, "pitch": 62, "duration": 314, "velocity": 90}, {"time": 93000, "pitch": 62, "duration": 99, "velocity": 78}, {"time": 93003, "pitch": 58, "duration": 97, "velocity": 88}, {"time": 93006, "pitch": 53, "duration": 91, "velocity": 86}, {"time": 93113, "pitch": 46, "duration": 14, "velocity": 70}, {"time": 93118, "pitch": 53, "duration": 16, "velocity": 69}, {"time": 93124, "pitch": 58, "duration": 12, "velocity": 85}, {"time": 93132, "pitch": 62, "duration": 6, "velocity": 72}, {"time": 93240, "pitch": 58, "duration": 14, "velocity": 61}, {"time": 93246, "pitch": 53, "duration": 14, "velocity": 60}, {"time": 93360, "pitch": 46, "duration": 330, "velocity": 94}, {"time": 93365, "pitch": 53, "duration": 330, "velocity": 96}, {"time": 93370, "pitch": 58, "duration": 330, "velocity": 98}, {"time": 93375, "pitch": 62, "duration": 330, "velocity": 88}, {"time": 93713, "pitch": 46, "duration": 81, "velocity": 70}, {"time": 93718, "pitch": 53, "duration": 83, "velocity": 69}, {"time": 93724, "pitch": 58, "duration": 79, "velocity": 85}, {"time": 93732, "pitch": 62, "duration": 73, "velocity": 72}, {"time": 93840, "pitch": 46, "duration": 220, "velocity": 76}, {"time": 93845, "pitch": 53, "duration": 220, "velocity": 76}, {"time": 93850, "pitch": 58, "duration": 220, "velocity": 74}, {"time": 93855, "pitch": 62, "duration": 220, "velocity": 76}, {"time": 94080, "pitch": 46, "duration": 230, "velocity": 95}, {"time": 94083, "pitch": 53, "duration": 105, "velocity": 99}, {"time": 94086, "pitch": 58, "duration": 105, "velocity": 98}, {"time": 94092, "pitch": 62, "duration": 105, "velocity": 82}, {"time": 94200, "pitch": 62, "duration": 100, "velocity": 77}, {"time": 94202, "pitch": 58, "duration": 100, "velocity": 79}, {"time": 94205, "pitch": 53, "duration": 100, "velocity": 77}, {"time": 94313, "pitch": 46, "duration": 14, "velocity": 70}, {"time": 94318, "pitch": 53, "duration": 16, "velocity": 69}, {"time": 94324, "pitch": 58, "duration": 12, "velocity": 85}, {"time": 94332, "pitch": 62, "duration": 6, "velocity": 72}, {"time": 94440, "pitch": 58, "duration": 12, "velocity": 54}, {"time": 94446, "pitch": 53, "duration": 12, "velocity": 67}, {"time": 94560, "pitch": 48, "duration": 456, "velocity": 98}, {"time": 94568, "pitch": 55, "duration": 342, "velocity": 101}, {"time": 94578, "pitch": 60, "duration": 330, "velocity": 104}, {"time": 94585, "pitch": 64, "duration": 314, "velocity": 90}, {"time": 94920, "pitch": 64, "duration": 99, "velocity": 78}, {"time": 94923, "pitch": 60, "duration": 97, "velocity": 88}, {"time": 94926, "pitch": 55, "duration": 91, "velocity": 86}, {"time": 95033, "pitch": 48, "duration": 14, "velocity": 70}, {"time": 95038, "pitch": 55, "duration": 16, "velocity": 69}, {"time": 95044, "pitch": 60, "duration": 12, "velocity": 85}, {"time": 95052, "pitch": 64, "duration": 6, "velocity": 72}, {"time": 95160, "pitch": 60, "duration": 14, "velocity": 61}, {"time": 95166, "pitch": 55, "duration": 14, "velocity": 60}, {"time": 95280, "pitch": 48, "duration": 330, "velocity": 94}, {"time": 95285, "pitch": 55, "duration": 330, "velocity": 96}, {"time": 95290, "pitch": 60, "duration": 330, "velocity": 98}, {"time": 95295, "pitch": 64, "duration": 330, "velocity": 88}, {"time": 95633, "pitch": 48, "duration": 81, "velocity": 70}, {"time": 95638, "pitch": 55, "duration": 83, "velocity": 69}, {"time": 95644, "pitch": 60, "duration": 79, "velocity": 85}, {"time": 95652, "pitch": 64, "duration": 73, "velocity": 72}, {"time": 95760, "pitch": 48, "duration": 220, "velocity": 76}, {"time": 95765, "pitch": 55, "duration": 220, "velocity": 76}, {"time": 95770, "pitch": 60, "duration": 220, "velocity": 74}, {"time": 95775, "pitch": 64, "duration": 220, "velocity": 76}, {"time": 96000, "pitch": 48, "duration": 230, "velocity": 95}, {"time": 96003, "pitch": 55, "duration": 105, "velocity": 99}, {"time": 96006, "pitch": 60, "duration": 105, "velocity": 98}, {"time": 96012, "pitch": 64, "duration": 105, "velocity": 82}, {"time": 96120, "pitch": 64, "duration": 100, "velocity": 77}, {"time": 96122, "pitch": 60, "duration": 100, "velocity": 79}, {"time": 96125, "pitch": 55, "duration": 100, "velocity": 77}, {"time": 96233, "pitch": 48, "duration": 14, "velocity": 70}, {"time": 96238, "pitch": 55, "duration": 16, "velocity": 69}, {"time": 96244, "pitch": 60, "duration": 12, "velocity": 85}, {"time": 96252, "pitch": 64, "duration": 6, "velocity": 72}, {"time": 96360, "pitch": 60, "duration": 12, "velocity": 54}, {"time": 96366, "pitch": 55, "duration": 12, "velocity": 67}, {"time": 96480, "pitch": 49, "duration": 456, "velocity": 98}, {"time": 96488, "pitch": 56, "duration": 342, "velocity": 101}, {"time": 96498, "pitch": 61, "duration": 330, "velocity": 104}, {"time": 96505, "pitch": 68, "duration": 314, "velocity": 90}, {"time": 96840, "pitch": 68, "duration": 99, "velocity": 78}, {"time": 96843, "pitch": 61, "duration": 97, "velocity": 88}, {"time": 96846, "pitch": 56, "duration": 91, "velocity": 86}, {"time": 96953, "pitch": 49, "duration": 14, "velocity": 70}, {"time": 96958, "pitch": 56, "duration": 16, "velocity": 69}, {"time": 96964, "pitch": 61, "duration": 12, "velocity": 85}, {"time": 96972, "pitch": 68, "duration": 6, "velocity": 72}, {"time": 97080, "pitch": 61, "duration": 14, "velocity": 61}, {"time": 97086, "pitch": 56, "duration": 14, "velocity": 60}, {"time": 97200, "pitch": 49, "duration": 330, "velocity": 94}, {"time": 97205, "pitch": 56, "duration": 330, "velocity": 96}, {"time": 97210, "pitch": 61, "duration": 330, "velocity": 98}, {"time": 97215, "pitch": 68, "duration": 330, "velocity": 88}, {"time": 97553, "pitch": 49, "duration": 81, "velocity": 70}, {"time": 97558, "pitch": 56, "duration": 83, "velocity": 69}, {"time": 97564, "pitch": 61, "duration": 79, "velocity": 85}, {"time": 97572, "pitch": 68, "duration": 73, "velocity": 72}, {"time": 97680, "pitch": 49, "duration": 220, "velocity": 76}, {"time": 97685, "pitch": 56, "duration": 220, "velocity": 76}, {"time": 97690, "pitch": 61, "duration": 220, "velocity": 74}, {"time": 97695, "pitch": 68, "duration": 220, "velocity": 76}, {"time": 97920, "pitch": 49, "duration": 230, "velocity": 95}, {"time": 97923, "pitch": 56, "duration": 105, "velocity": 99}, {"time": 97926, "pitch": 61, "duration": 105, "velocity": 98}, {"time": 97932, "pitch": 68, "duration": 105, "velocity": 82}, {"time": 98040, "pitch": 68, "duration": 100, "velocity": 77}, {"time": 98042, "pitch": 61, "duration": 100, "velocity": 79}, {"time": 98045, "pitch": 56, "duration": 100, "velocity": 77}, {"time": 98153, "pitch": 49, "duration": 14, "velocity": 70}, {"time": 98158, "pitch": 56, "duration": 16, "velocity": 69}, {"time": 98164, "pitch": 61, "duration": 12, "velocity": 85}, {"time": 98172, "pitch": 68, "duration": 6, "velocity": 72}, {"time": 98280, "pitch": 61, "duration": 12, "velocity": 54}, {"time": 98286, "pitch": 56, "duration": 12, "velocity": 67}, {"time": 98400, "pitch": 51, "duration": 456, "velocity": 98}, {"time": 98408, "pitch": 63, "duration": 222, "velocity": 101}, {"time": 98418, "pitch": 67, "duration": 210, "velocity": 104}, {"time": 98425, "pitch": 70, "duration": 194, "velocity": 90}, {"time": 98640, "pitch": 63, "duration": 240, "velocity": 83}, {"time": 98650, "pitch": 67, "duration": 230, "velocity": 94}, {"time": 98655, "pitch": 70, "duration": 225, "velocity": 86}, {"time": 98880, "pitch": 51, "duration": 20, "velocity": 70}, {"time": 98880, "pitch": 63, "duration": 20, "velocity": 70}, {"time": 98880, "pitch": 67, "duration": 20, "velocity": 70}, {"time": 98880, "pitch": 70, "duration": 20, "velocity": 70}, {"time": 99120, "pitch": 53, "duration": 452, "velocity": 87}, {"time": 99120, "pitch": 60, "duration": 431, "velocity": 90}, {"time": 99120, "pitch": 65, "duration": 431, "velocity": 90}, {"time": 99120, "pitch": 69, "duration": 478, "velocity": 83}, {"time": 99600, "pitch": 53, "duration": 176, "velocity": 104}, {"time": 99610, "pitch": 60, "duration": 162, "velocity": 94}, {"time": 99620, "pitch": 65, "duration": 177, "velocity": 104}, {"time": 99630, "pitch": 69, "duration": 162, "velocity": 94}, {"time": 99840, "pitch": 53, "duration": 485, "velocity": 104}, {"time": 99850, "pitch": 60, "duration": 509, "velocity": 91}, {"time": 99860, "pitch": 65, "duration": 485, "velocity": 104}, {"time": 99870, "pitch": 69, "duration": 490, "velocity": 101}, {"time": 100320, "pitch": 48, "duration": 465, "velocity": 99}, {"time": 100328, "pitch": 52, "duration": 465, "velocity": 92}, {"time": 100337, "pitch": 55, "duration": 465, "velocity": 95}, {"time": 100345, "pitch": 64, "duration": 465, "velocity": 100}, {"time": 100352, "pitch": 60, "duration": 7, "velocity": 100}, {"time": 100800, "pitch": 47, "duration": 465, "velocity": 99}, {"time": 100808, "pitch": 50, "duration": 465, "velocity": 92}, {"time": 100817, "pitch": 55, "duration": 465, "velocity": 95}, {"time": 100825, "pitch": 67, "duration": 465, "velocity": 100}, {"time": 100832, "pitch": 62, "duration": 465, "velocity": 100}, {"time": 101280, "pitch": 45, "duration": 456, "velocity": 98}, {"time": 101288, "pitch": 52, "duration": 467, "velocity": 101}, {"time": 101298, "pitch": 57, "duration": 447, "velocity": 104}, {"time": 101305, "pitch": 60, "duration": 445, "velocity": 90}, {"time": 101760, "pitch": 45, "duration": 213, "velocity": 98}, {"time": 101768, "pitch": 52, "duration": 189, "velocity": 101}, {"time": 101778, "pitch": 57, "duration": 199, "velocity": 104}, {"time": 101785, "pitch": 60, "duration": 202, "velocity": 90}, {"time": 101990, "pitch": 45, "duration": 14, "velocity": 70}, {"time": 101995, "pitch": 52, "duration": 16, "velocity": 69}, {"time": 102001, "pitch": 57, "duration": 12, "velocity": 85}, {"time": 102009, "pitch": 60, "duration": 6, "velocity": 72}, {"time": 102115, "pitch": 57, "duration": 12, "velocity": 54}, {"time": 102121, "pitch": 52, "duration": 12, "velocity": 67}, {"time": 102234, "pitch": 41, "duration": 233, "velocity": 99}, {"time": 102242, "pitch": 48, "duration": 209, "velocity": 92}, {"time": 102251, "pitch": 53, "duration": 231, "velocity": 95}, {"time": 102259, "pitch": 65, "duration": 218, "velocity": 95}, {"time": 102267, "pitch": 57, "duration": 220, "velocity": 100}, {"time": 102273, "pitch": 60, "duration": 209, "velocity": 95}, {"time": 102477, "pitch": 41, "duration": 233, "velocity": 89}, {"time": 102484, "pitch": 53, "duration": 233, "velocity": 85}, {"time": 102485, "pitch": 48, "duration": 233, "velocity": 82}, {"time": 102495, "pitch": 57, "duration": 233, "velocity": 90}, {"time": 102501, "pitch": 60, "duration": 233, "velocity": 85}, {"time": 102720, "pitch": 41, "duration": 223, "velocity": 100}, {"time": 102725, "pitch": 48, "duration": 222, "velocity": 93}, {"time": 102735, "pitch": 53, "duration": 220, "velocity": 101}, {"time": 102742, "pitch": 57, "duration": 219, "velocity": 93}, {"time": 102748, "pitch": 60, "duration": 219, "velocity": 91}, {"time": 102755, "pitch": 65, "duration": 215, "velocity": 89}, {"time": 102956, "pitch": 41, "duration": 11, "velocity": 72}, {"time": 102961, "pitch": 48, "duration": 12, "velocity": 71}, {"time": 102967, "pitch": 53, "duration": 11, "velocity": 69}, {"time": 102971, "pitch": 57, "duration": 13, "velocity": 77}, {"time": 102974, "pitch": 60, "duration": 6, "velocity": 81}, {"time": 102983, "pitch": 65, "duration": 14, "velocity": 80}, {"time": 103079, "pitch": 65, "duration": 121, "velocity": 82}, {"time": 103088, "pitch": 60, "duration": 117, "velocity": 95}, {"time": 103091, "pitch": 57, "duration": 113, "velocity": 96}, {"time": 103098, "pitch": 53, "duration": 102, "velocity": 86}, {"time": 103104, "pitch": 48, "duration": 91, "velocity": 68}, {"time": 103106, "pitch": 41, "duration": 83, "velocity": 51}, {"time": 103200, "pitch": 43, "duration": 230, "velocity": 99}, {"time": 103208, "pitch": 50, "duration": 207, "velocity": 92}, {"time": 103217, "pitch": 55, "duration": 228, "velocity": 95}, {"time": 103225, "pitch": 67, "duration": 215, "velocity": 95}, {"time": 103233, "pitch": 59, "duration": 217, "velocity": 100}, {"time": 103239, "pitch": 62, "duration": 206, "velocity": 95}, {"time": 103440, "pitch": 43, "duration": 230, "velocity": 89}, {"time": 103447, "pitch": 55, "duration": 230, "velocity": 85}, {"time": 103448, "pitch": 50, "duration": 230, "velocity": 82}, {"time": 103458, "pitch": 59, "duration": 230, "velocity": 90}, {"time": 103464, "pitch": 62, "duration": 230, "velocity": 85}, {"time": 103680, "pitch": 43, "duration": 230, "velocity": 95}, {"time": 103683, "pitch": 50, "duration": 218, "velocity": 99}, {"time": 103686, "pitch": 55, "duration": 218, "velocity": 98}, {"time": 103692, "pitch": 59, "duration": 218, "velocity": 82}, {"time": 103692, "pitch": 62, "duration": 2, "velocity": 82}, {"time": 103913, "pitch": 43, "duration": 14, "velocity": 70}, {"time": 103918, "pitch": 50, "duration": 16, "velocity": 69}, {"time": 103924, "pitch": 55, "duration": 12, "velocity": 85}, {"time": 103932, "pitch": 59, "duration": 6, "velocity": 72}, {"time": 103932, "pitch": 62, "duration": 6, "velocity": 72}, {"time": 104040, "pitch": 55, "duration": 12, "velocity": 54}, {"time": 104046, "pitch": 50, "duration": 12, "velocity": 67}, {"time": 104160, "pitch": 45, "duration": 465, "velocity": 99}, {"time": 104168, "pitch": 52, "duration": 465, "velocity": 92}, {"time": 104177, "pitch": 55, "duration": 465, "velocity": 95}, {"time": 104185, "pitch": 64, "duration": 465, "velocity": 100}, {"time": 104192, "pitch": 60, "duration": 465, "velocity": 100}, {"time": 104640, "pitch": 43, "duration": 465, "velocity": 99}, {"time": 104648, "pitch": 50, "duration": 465, "velocity": 92}, {"time": 104657, "pitch": 55, "duration": 465, "velocity": 95}, {"time": 104665, "pitch": 64, "duration": 465, "velocity": 100}, {"time": 104672, "pitch": 59, "duration": 465, "velocity": 100}, {"time": 105120, "pitch": 41, "duration": 456, "velocity": 98}, {"time": 105128, "pitch": 48, "duration": 462, "velocity": 101}, {"time": 105138, "pitch": 53, "duration": 450, "velocity": 104}, {"time": 105145, "pitch": 57, "duration": 434, "velocity": 90}, {"time": 105145, "pitch": 60, "duration": 434, "velocity": 90}, {"time": 105600, "pitch": 41, "duration": 216, "velocity": 98}, {"time": 105608, "pitch": 48, "duration": 192, "velocity": 101}, {"time": 105618, "pitch": 53, "duration": 202, "velocity": 104}, {"time": 105625, "pitch": 57, "duration": 205, "velocity": 90}, {"time": 105625, "pitch": 60, "duration": 205, "velocity": 90}, {"time": 105833, "pitch": 41, "duration": 14, "velocity": 70}, {"time": 105838, "pitch": 48, "duration": 16, "velocity": 69}, {"time": 105844, "pitch": 53, "duration": 12, "velocity": 85}, {"time": 105852, "pitch": 57, "duration": 6, "velocity": 72}, {"time": 105960, "pitch": 53, "duration": 12, "velocity": 54}, {"time": 105966, "pitch": 48, "duration": 12, "velocity": 67}, {"time": 106080, "pitch": 45, "duration": 230, "velocity": 99}, {"time": 106088, "pitch": 50, "duration": 207, "velocity": 92}, {"time": 106097, "pitch": 57, "duration": 228, "velocity": 95}, {"time": 106113, "pitch": 60, "duration": 217, "velocity": 100}, {"time": 106119, "pitch": 65, "duration": 206, "velocity": 95}, {"time": 106320, "pitch": 45, "duration": 230, "velocity": 89}, {"time": 106327, "pitch": 57, "duration": 230, "velocity": 85}, {"time": 106328, "pitch": 50, "duration": 230, "velocity": 82}, {"time": 106338, "pitch": 60, "duration": 230, "velocity": 90}, {"time": 106344, "pitch": 65, "duration": 230, "velocity": 85}, {"time": 106560, "pitch": 45, "duration": 223, "velocity": 100}, {"time": 106565, "pitch": 50, "duration": 222, "velocity": 93}, {"time": 106575, "pitch": 57, "duration": 220, "velocity": 101}, {"time": 106582, "pitch": 60, "duration": 219, "velocity": 93}, {"time": 106588, "pitch": 65, "duration": 219, "velocity": 91}, {"time": 106796, "pitch": 45, "duration": 11, "velocity": 72}, {"time": 106801, "pitch": 50, "duration": 12, "velocity": 71}, {"time": 106807, "pitch": 57, "duration": 11, "velocity": 69}, {"time": 106811, "pitch": 60, "duration": 13, "velocity": 77}, {"time": 106814, "pitch": 65, "duration": 6, "velocity": 81}, {"time": 106928, "pitch": 65, "duration": 117, "velocity": 95}, {"time": 106931, "pitch": 60, "duration": 113, "velocity": 96}, {"time": 106938, "pitch": 57, "duration": 102, "velocity": 86}, {"time": 106944, "pitch": 50, "duration": 91, "velocity": 68}, {"time": 106946, "pitch": 45, "duration": 83, "velocity": 51}, {"time": 107040, "pitch": 43, "duration": 230, "velocity": 99}, {"time": 107048, "pitch": 50, "duration": 207, "velocity": 92}, {"time": 107057, "pitch": 53, "duration": 228, "velocity": 95}, {"time": 107073, "pitch": 55, "duration": 217, "velocity": 100}, {"time": 107079, "pitch": 59, "duration": 206, "velocity": 95}, {"time": 107079, "pitch": 62, "duration": 206, "velocity": 95}, {"time": 107280, "pitch": 43, "duration": 230, "velocity": 89}, {"time": 107287, "pitch": 53, "duration": 230, "velocity": 85}, {"time": 107288, "pitch": 50, "duration": 230, "velocity": 82}, {"time": 107298, "pitch": 55, "duration": 230, "velocity": 90}, {"time": 107304, "pitch": 59, "duration": 230, "velocity": 85}, {"time": 107304, "pitch": 62, "duration": 230, "velocity": 85}, {"time": 107520, "pitch": 43, "duration": 223, "velocity": 100}, {"time": 107525, "pitch": 50, "duration": 222, "velocity": 93}, {"time": 107535, "pitch": 53, "duration": 220, "velocity": 101}, {"time": 107542, "pitch": 55, "duration": 219, "velocity": 93}, {"time": 107548, "pitch": 59, "duration": 219, "velocity": 91}, {"time": 107548, "pitch": 62, "duration": 219, "velocity": 91}, {"time": 107756, "pitch": 43, "duration": 11, "velocity": 72}, {"time": 107761, "pitch": 50, "duration": 12, "velocity": 71}, {"time": 107767, "pitch": 53, "duration": 11, "velocity": 69}, {"time": 107771, "pitch": 55, "duration": 13, "velocity": 77}, {"time": 107774, "pitch": 59, "duration": 6, "velocity": 81}, {"time": 107774, "pitch": 62, "duration": 6, "velocity": 81}, {"time": 107888, "pitch": 59, "duration": 117, "velocity": 95}, {"time": 107888, "pitch": 62, "duration": 117, "velocity": 95}, {"time": 107891, "pitch": 55, "duration": 113, "velocity": 96}, {"time": 107898, "pitch": 53, "duration": 102, "velocity": 86}, {"time": 107904, "pitch": 50, "duration": 91, "velocity": 68}, {"time": 107906, "pitch": 43, "duration": 83, "velocity": 51}, {"time": 108000, "pitch": 48, "duration": 465, "velocity": 99}, {"time": 108008, "pitch": 52, "duration": 465, "velocity": 92}, {"time": 108017, "pitch": 55, "duration": 465, "velocity": 95}, {"time": 108025, "pitch": 64, "duration": 465, "velocity": 100}, {"time": 108032, "pitch": 60, "duration": 465, "velocity": 100}, {"time": 108480, "pitch": 47, "duration": 465, "velocity": 99}, {"time": 108488, "pitch": 50, "duration": 465, "velocity": 92}, {"time": 108497, "pitch": 55, "duration": 465, "velocity": 95}, {"time": 108505, "pitch": 67, "duration": 465, "velocity": 100}, {"time": 108512, "pitch": 62, "duration": 465, "velocity": 100}, {"time": 108960, "pitch": 45, "duration": 456, "velocity": 98}, {"time": 108968, "pitch": 52, "duration": 467, "velocity": 101}, {"time": 108978, "pitch": 57, "duration": 447, "velocity": 104}, {"time": 108985, "pitch": 60, "duration": 445, "velocity": 90}, {"time": 109440, "pitch": 45, "duration": 216, "velocity": 98}, {"time": 109448, "pitch": 52, "duration": 192, "velocity": 101}, {"time": 109458, "pitch": 57, "duration": 202, "velocity": 104}, {"time": 109465, "pitch": 60, "duration": 205, "velocity": 90}, {"time": 109673, "pitch": 45, "duration": 14, "velocity": 70}, {"time": 109678, "pitch": 52, "duration": 16, "velocity": 69}, {"time": 109684, "pitch": 57, "duration": 12, "velocity": 85}, {"time": 109692, "pitch": 60, "duration": 6, "velocity": 72}, {"time": 109800, "pitch": 57, "duration": 12, "velocity": 54}, {"time": 109806, "pitch": 52, "duration": 12, "velocity": 67}, {"time": 109920, "pitch": 41, "duration": 230, "velocity": 99}, {"time": 109928, "pitch": 48, "duration": 207, "velocity": 92}, {"time": 109937, "pitch": 53, "duration": 228, "velocity": 95}, {"time": 109945, "pitch": 65, "duration": 215, "velocity": 95}, {"time": 109953, "pitch": 57, "duration": 217, "velocity": 100}, {"time": 109959, "pitch": 60, "duration": 206, "velocity": 95}, {"time": 110160, "pitch": 41, "duration": 230, "velocity": 89}, {"time": 110167, "pitch": 53, "duration": 230, "velocity": 85}, {"time": 110168, "pitch": 48, "duration": 230, "velocity": 82}, {"time": 110178, "pitch": 57, "duration": 230, "velocity": 90}, {"time": 110184, "pitch": 60, "duration": 230, "velocity": 85}, {"time": 110400, "pitch": 41, "duration": 223, "velocity": 100}, {"time": 110405, "pitch": 48, "duration": 222, "velocity": 93}, {"time": 110415, "pitch": 53, "duration": 220, "velocity": 101}, {"time": 110422, "pitch": 57, "duration": 219, "velocity": 93}, {"time": 110428, "pitch": 60, "duration": 219, "velocity": 91}, {"time": 110435, "pitch": 65, "duration": 215, "velocity": 89}, {"time": 110636, "pitch": 41, "duration": 11, "velocity": 72}, {"time": 110641, "pitch": 48, "duration": 12, "velocity": 71}, {"time": 110647, "pitch": 53, "duration": 11, "velocity": 69}, {"time": 110651, "pitch": 57, "duration": 13, "velocity": 77}, {"time": 110654, "pitch": 60, "duration": 6, "velocity": 81}, {"time": 110663, "pitch": 65, "duration": 14, "velocity": 80}, {"time": 110759, "pitch": 65, "duration": 121, "velocity": 82}, {"time": 110768, "pitch": 60, "duration": 117, "velocity": 95}, {"time": 110771, "pitch": 57, "duration": 113, "velocity": 96}, {"time": 110778, "pitch": 53, "duration": 102, "velocity": 86}, {"time": 110784, "pitch": 48, "duration": 91, "velocity": 68}, {"time": 110786, "pitch": 41, "duration": 83, "velocity": 51}, {"time": 110880, "pitch": 43, "duration": 230, "velocity": 99}, {"time": 110888, "pitch": 50, "duration": 207, "velocity": 92}, {"time": 110897, "pitch": 55, "duration": 228, "velocity": 95}, {"time": 110905, "pitch": 67, "duration": 215, "velocity": 95}, {"time": 110913, "pitch": 59, "duration": 217, "velocity": 100}, {"time": 110919, "pitch": 62, "duration": 206, "velocity": 95}, {"time": 111120, "pitch": 43, "duration": 230, "velocity": 89}, {"time": 111127, "pitch": 55, "duration": 230, "velocity": 85}, {"time": 111128, "pitch": 50, "duration": 230, "velocity": 82}, {"time": 111138, "pitch": 59, "duration": 230, "velocity": 90}, {"time": 111144, "pitch": 62, "duration": 230, "velocity": 85}, {"time": 111360, "pitch": 43, "duration": 230, "velocity": 95}, {"time": 111363, "pitch": 50, "duration": 218, "velocity": 99}, {"time": 111366, "pitch": 55, "duration": 218, "velocity": 98}, {"time": 111372, "pitch": 59, "duration": 218, "velocity": 82}, {"time": 111372, "pitch": 62, "duration": 2, "velocity": 82}, {"time": 111593, "pitch": 43, "duration": 14, "velocity": 70}, {"time": 111598, "pitch": 50, "duration": 16, "velocity": 69}, {"time": 111604, "pitch": 55, "duration": 12, "velocity": 85}, {"time": 111612, "pitch": 59, "duration": 6, "velocity": 72}, {"time": 111612, "pitch": 62, "duration": 6, "velocity": 72}, {"time": 111720, "pitch": 55, "duration": 12, "velocity": 54}, {"time": 111726, "pitch": 50, "duration": 12, "velocity": 67}, {"time": 111840, "pitch": 45, "duration": 465, "velocity": 99}, {"time": 111848, "pitch": 52, "duration": 465, "velocity": 92}, {"time": 111857, "pitch": 55, "duration": 465, "velocity": 95}, {"time": 111865, "pitch": 64, "duration": 465, "velocity": 100}, {"time": 111872, "pitch": 60, "duration": 465, "velocity": 100}, {"time": 112320, "pitch": 43, "duration": 465, "velocity": 99}, {"time": 112328, "pitch": 50, "duration": 465, "velocity": 92}, {"time": 112337, "pitch": 55, "duration": 465, "velocity": 95}, {"time": 112345, "pitch": 64, "duration": 465, "velocity": 100}, {"time": 112352, "pitch": 59, "duration": 465, "velocity": 100}, {"time": 112800, "pitch": 41, "duration": 456, "velocity": 98}, {"time": 112808, "pitch": 48, "duration": 462, "velocity": 101}, {"time": 112818, "pitch": 53, "duration": 450, "velocity": 104}, {"time": 112825, "pitch": 57, "duration": 434, "velocity": 90}, {"time": 112825, "pitch": 60, "duration": 434, "velocity": 90}, {"time": 113280, "pitch": 41, "duration": 216, "velocity": 98}, {"time": 113288, "pitch": 48, "duration": 192, "velocity": 101}, {"time": 113298, "pitch": 53, "duration": 202, "velocity": 104}, {"time": 113305, "pitch": 57, "duration": 205, "velocity": 90}, {"time": 113305, "pitch": 60, "duration": 205, "velocity": 90}, {"time": 113513, "pitch": 41, "duration": 14, "velocity": 70}, {"time": 113518, "pitch": 48, "duration": 16, "velocity": 69}, {"time": 113524, "pitch": 53, "duration": 12, "velocity": 85}, {"time": 113532, "pitch": 57, "duration": 6, "velocity": 72}, {"time": 113640, "pitch": 53, "duration": 12, "velocity": 54}, {"time": 113646, "pitch": 48, "duration": 12, "velocity": 67}, {"time": 113760, "pitch": 45, "duration": 230, "velocity": 99}, {"time": 113768, "pitch": 50, "duration": 207, "velocity": 92}, {"time": 113777, "pitch": 57, "duration": 228, "velocity": 95}, {"time": 113793, "pitch": 60, "duration": 217, "velocity": 100}, {"time": 113799, "pitch": 65, "duration": 206, "velocity": 95}, {"time": 114000, "pitch": 45, "duration": 230, "velocity": 89}, {"time": 114007, "pitch": 57, "duration": 230, "velocity": 85}, {"time": 114008, "pitch": 50, "duration": 230, "velocity": 82}, {"time": 114018, "pitch": 60, "duration": 230, "velocity": 90}, {"time": 114024, "pitch": 65, "duration": 230, "velocity": 85}, {"time": 114240, "pitch": 45, "duration": 223, "velocity": 100}, {"time": 114245, "pitch": 50, "duration": 222, "velocity": 93}, {"time": 114255, "pitch": 57, "duration": 220, "velocity": 101}, {"time": 114262, "pitch": 60, "duration": 219, "velocity": 93}, {"time": 114268, "pitch": 65, "duration": 219, "velocity": 91}, {"time": 114476, "pitch": 45, "duration": 11, "velocity": 72}, {"time": 114481, "pitch": 50, "duration": 12, "velocity": 71}, {"time": 114487, "pitch": 57, "duration": 11, "velocity": 69}, {"time": 114491, "pitch": 60, "duration": 13, "velocity": 77}, {"time": 114494, "pitch": 65, "duration": 6, "velocity": 81}, {"time": 114608, "pitch": 65, "duration": 117, "velocity": 95}, {"time": 114611, "pitch": 60, "duration": 113, "velocity": 96}, {"time": 114618, "pitch": 57, "duration": 102, "velocity": 86}, {"time": 114624, "pitch": 50, "duration": 91, "velocity": 68}, {"time": 114626, "pitch": 45, "duration": 83, "velocity": 51}, {"time": 114720, "pitch": 43, "duration": 230, "velocity": 99}, {"time": 114728, "pitch": 50, "duration": 207, "velocity": 92}, {"time": 114737, "pitch": 53, "duration": 228, "velocity": 95}, {"time": 114753, "pitch": 55, "duration": 217, "velocity": 100}, {"time": 114759, "pitch": 59, "duration": 206, "velocity": 95}, {"time": 114759, "pitch": 62, "duration": 206, "velocity": 95}, {"time": 114960, "pitch": 43, "duration": 230, "velocity": 89}, {"time": 114967, "pitch": 53, "duration": 230, "velocity": 85}, {"time": 114968, "pitch": 50, "duration": 230, "velocity": 82}, {"time": 114978, "pitch": 55, "duration": 230, "velocity": 90}, {"time": 114984, "pitch": 59, "duration": 230, "velocity": 85}, {"time": 114984, "pitch": 62, "duration": 230, "velocity": 85}, {"time": 115200, "pitch": 43, "duration": 223, "velocity": 100}, {"time": 115205, "pitch": 50, "duration": 222, "velocity": 93}, {"time": 115215, "pitch": 53, "duration": 220, "velocity": 101}, {"time": 115222, "pitch": 55, "duration": 219, "velocity": 93}, {"time": 115228, "pitch": 59, "duration": 219, "velocity": 91}, {"time": 115228, "pitch": 62, "duration": 219, "velocity": 91}, {"time": 115436, "pitch": 43, "duration": 11, "velocity": 72}, {"time": 115441, "pitch": 50, "duration": 12, "velocity": 71}, {"time": 115447, "pitch": 53, "duration": 11, "velocity": 69}, {"time": 115451, "pitch": 55, "duration": 13, "velocity": 77}, {"time": 115454, "pitch": 59, "duration": 6, "velocity": 81}, {"time": 115454, "pitch": 62, "duration": 6, "velocity": 81}, {"time": 115568, "pitch": 59, "duration": 117, "velocity": 95}, {"time": 115568, "pitch": 62, "duration": 117, "velocity": 95}, {"time": 115571, "pitch": 55, "duration": 113, "velocity": 96}, {"time": 115578, "pitch": 53, "duration": 102, "velocity": 86}, {"time": 115584, "pitch": 50, "duration": 91, "velocity": 68}, {"time": 115586, "pitch": 43, "duration": 83, "velocity": 51}, {"time": 115680, "pitch": 41, "duration": 385, "velocity": 101}, {"time": 115695, "pitch": 48, "duration": 340, "velocity": 102}, {"time": 115702, "pitch": 53, "duration": 339, "velocity": 93}, {"time": 115708, "pitch": 56, "duration": 324, "velocity": 91}, {"time": 115715, "pitch": 60, "duration": 321, "velocity": 89}, {"time": 116040, "pitch": 60, "duration": 120, "velocity": 81}, {"time": 116049, "pitch": 56, "duration": 112, "velocity": 95}, {"time": 116052, "pitch": 53, "duration": 104, "velocity": 96}, {"time": 116059, "pitch": 48, "duration": 96, "velocity": 85}, {"time": 116067, "pitch": 41, "duration": 80, "velocity": 47}, {"time": 116155, "pitch": 41, "duration": 238, "velocity": 70}, {"time": 116166, "pitch": 48, "duration": 223, "velocity": 67}, {"time": 116170, "pitch": 53, "duration": 232, "velocity": 75}, {"time": 116173, "pitch": 56, "duration": 239, "velocity": 80}, {"time": 116182, "pitch": 60, "duration": 238, "velocity": 79}, {"time": 116401, "pitch": 41, "duration": 371, "velocity": 89}, {"time": 116407, "pitch": 48, "duration": 369, "velocity": 90}, {"time": 116414, "pitch": 53, "duration": 344, "velocity": 101}, {"time": 116422, "pitch": 56, "duration": 325, "velocity": 93}, {"time": 116430, "pitch": 60, "duration": 312, "velocity": 85}, {"time": 116760, "pitch": 60, "duration": 135, "velocity": 81}, {"time": 116769, "pitch": 56, "duration": 119, "velocity": 95}, {"time": 116772, "pitch": 53, "duration": 111, "velocity": 96}, {"time": 116779, "pitch": 48, "duration": 96, "velocity": 85}, {"time": 116787, "pitch": 41, "duration": 83, "velocity": 47}, {"time": 116881, "pitch": 41, "duration": 225, "velocity": 81}, {"time": 116885, "pitch": 48, "duration": 226, "velocity": 85}, {"time": 116889, "pitch": 53, "duration": 231, "velocity": 93}, {"time": 116895, "pitch": 56, "duration": 230, "velocity": 91}, {"time": 116904, "pitch": 60, "duration": 230, "velocity": 86}, {"time": 117116, "pitch": 41, "duration": 143, "velocity": 74}, {"time": 117124, "pitch": 48, "duration": 126, "velocity": 106}, {"time": 117133, "pitch": 53, "duration": 120, "velocity": 97}, {"time": 117140, "pitch": 56, "duration": 111, "velocity": 95}, {"time": 117147, "pitch": 60, "duration": 91, "velocity": 93}, {"time": 117249, "pitch": 60, "duration": 124, "velocity": 79}, {"time": 117256, "pitch": 56, "duration": 110, "velocity": 83}, {"time": 117261, "pitch": 53, "duration": 103, "velocity": 83}, {"time": 117270, "pitch": 48, "duration": 96, "velocity": 79}, {"time": 117278, "pitch": 41, "duration": 75, "velocity": 58}, {"time": 117356, "pitch": 41, "duration": 148, "velocity": 74}, {"time": 117369, "pitch": 53, "duration": 129, "velocity": 97}, {"time": 117370, "pitch": 48, "duration": 126, "velocity": 106}, {"time": 117376, "pitch": 56, "duration": 116, "velocity": 95}, {"time": 117387, "pitch": 60, "duration": 101, "velocity": 93}, {"time": 117493, "pitch": 60, "duration": 130, "velocity": 74}, {"time": 117497, "pitch": 56, "duration": 120, "velocity": 79}, {"time": 117502, "pitch": 53, "duration": 108, "velocity": 78}, {"time": 117508, "pitch": 48, "duration": 92, "velocity": 73}, {"time": 117521, "pitch": 41, "duration": 67, "velocity": 58}, {"time": 117600, "pitch": 48, "duration": 372, "velocity": 101}, {"time": 117605, "pitch": 52, "duration": 373, "velocity": 93}, {"time": 117615, "pitch": 55, "duration": 351, "velocity": 102}, {"time": 117622, "pitch": 60, "duration": 1, "velocity": 93}, {"time": 117628, "pitch": 64, "duration": 318, "velocity": 91}, {"time": 117968, "pitch": 64, "duration": 355, "velocity": 95}, {"time": 117971, "pitch": 60, "duration": 345, "velocity": 96}, {"time": 117978, "pitch": 55, "duration": 340, "velocity": 85}, {"time": 117984, "pitch": 52, "duration": 329, "velocity": 66}, {"time": 117986, "pitch": 48, "duration": 327, "velocity": 47}, {"time": 118322, "pitch": 48, "duration": 372, "velocity": 102}, {"time": 118328, "pitch": 52, "duration": 359, "velocity": 101}, {"time": 118332, "pitch": 55, "duration": 346, "velocity": 99}, {"time": 118337, "pitch": 60, "duration": 351, "velocity": 101}, {"time": 118346, "pitch": 64, "duration": 319, "velocity": 100}, {"time": 118688, "pitch": 64, "duration": 133, "velocity": 95}, {"time": 118691, "pitch": 60, "duration": 121, "velocity": 96}, {"time": 118698, "pitch": 55, "duration": 100, "velocity": 85}, {"time": 118704, "pitch": 52, "duration": 89, "velocity": 66}, {"time": 118706, "pitch": 48, "duration": 87, "velocity": 47}, {"time": 118801, "pitch": 48, "duration": 199, "velocity": 91}, {"time": 118809, "pitch": 52, "duration": 215, "velocity": 66}, {"time": 118812, "pitch": 55, "duration": 226, "velocity": 85}, {"time": 118819, "pitch": 60, "duration": 225, "velocity": 93}, {"time": 118826, "pitch": 64, "duration": 222, "velocity": 91}, {"time": 119040, "pitch": 48, "duration": 230, "velocity": 104}, {"time": 119043, "pitch": 52, "duration": 225, "velocity": 108}, {"time": 119046, "pitch": 55, "duration": 225, "velocity": 107}, {"time": 119052, "pitch": 60, "duration": 225, "velocity": 90}, {"time": 119052, "pitch": 64, "duration": 225, "velocity": 90}, {"time": 119273, "pitch": 48, "duration": 14, "velocity": 77}, {"time": 119278, "pitch": 52, "duration": 16, "velocity": 75}, {"time": 119284, "pitch": 55, "duration": 12, "velocity": 93}, {"time": 119292, "pitch": 60, "duration": 6, "velocity": 79}, {"time": 119292, "pitch": 64, "duration": 6, "velocity": 79}, {"time": 119400, "pitch": 55, "duration": 12, "velocity": 59}, {"time": 119406, "pitch": 52, "duration": 12, "velocity": 73}, {"time": 119517, "pitch": 65, "duration": 481, "velocity": 96}, {"time": 119520, "pitch": 49, "duration": 478, "velocity": 93}, {"time": 119521, "pitch": 56, "duration": 477, "velocity": 98}, {"time": 119522, "pitch": 61, "duration": 476, "velocity": 99}, {"time": 119523, "pitch": 68, "duration": 475, "velocity": 97}, {"time": 119998, "pitch": 56, "duration": 241, "velocity": 92}, {"time": 120000, "pitch": 49, "duration": 239, "velocity": 98}, {"time": 120003, "pitch": 68, "duration": 236, "velocity": 92}, {"time": 120004, "pitch": 61, "duration": 235, "velocity": 99}, {"time": 120004, "pitch": 65, "duration": 235, "velocity": 99}, {"time": 120239, "pitch": 56, "duration": 4, "velocity": 96}, {"time": 120239, "pitch": 68, "duration": 117, "velocity": 93}, {"time": 120240, "pitch": 49, "duration": 116, "velocity": 96}, {"time": 120243, "pitch": 61, "duration": 113, "velocity": 98}, {"time": 120243, "pitch": 65, "duration": 113, "velocity": 96}, {"time": 120356, "pitch": 65, "duration": 240, "velocity": 94}, {"time": 120358, "pitch": 68, "duration": 238, "velocity": 98}, {"time": 120359, "pitch": 61, "duration": 237, "velocity": 92}, {"time": 120363, "pitch": 49, "duration": 233, "velocity": 99}, {"time": 120364, "pitch": 56, "duration": 232, "velocity": 99}, {"time": 120596, "pitch": 49, "duration": 8, "velocity": 92}, {"time": 120599, "pitch": 56, "duration": 5, "velocity": 99}, {"time": 120600, "pitch": 68, "duration": 118, "velocity": 99}, {"time": 120603, "pitch": 65, "duration": 1, "velocity": 94}, {"time": 120604, "pitch": 61, "duration": 114, "velocity": 93}, {"time": 120718, "pitch": 68, "duration": 238, "velocity": 93}, {"time": 120719, "pitch": 56, "duration": 237, "velocity": 98}, {"time": 120719, "pitch": 61, "duration": 237, "velocity": 99}, {"time": 120719, "pitch": 65, "duration": 237, "velocity": 99}, {"time": 120722, "pitch": 49, "duration": 234, "velocity": 98}, {"time": 120956, "pitch": 56, "duration": 240, "velocity": 98}, {"time": 120959, "pitch": 61, "duration": 237, "velocity": 93}, {"time": 120960, "pitch": 49, "duration": 236, "velocity": 92}, {"time": 120960, "pitch": 68, "duration": 236, "velocity": 94}, {"time": 120964, "pitch": 65, "duration": 232, "velocity": 96}, {"time": 121196, "pitch": 65, "duration": 123, "velocity": 96}, {"time": 121199, "pitch": 56, "duration": 5, "velocity": 98}, {"time": 121199, "pitch": 68, "duration": 5, "velocity": 93}, {"time": 121201, "pitch": 49, "duration": 3, "velocity": 92}, {"time": 121204, "pitch": 61, "duration": 115, "velocity": 96}, {"time": 121319, "pitch": 65, "duration": 118, "velocity": 98}, {"time": 121320, "pitch": 49, "duration": 117, "velocity": 93}, {"time": 121321, "pitch": 61, "duration": 122, "velocity": 99}, {"time": 121323, "pitch": 56, "duration": 114, "velocity": 97}, {"time": 121324, "pitch": 68, "duration": 119, "velocity": 97}, {"time": 121437, "pitch": 67, "duration": 481, "velocity": 96}, {"time": 121440, "pitch": 51, "duration": 478, "velocity": 93}, {"time": 121441, "pitch": 58, "duration": 477, "velocity": 98}, {"time": 121442, "pitch": 63, "duration": 476, "velocity": 99}, {"time": 121443, "pitch": 70, "duration": 475, "velocity": 97}, {"time": 121918, "pitch": 58, "duration": 241, "velocity": 92}, {"time": 121920, "pitch": 51, "duration": 239, "velocity": 98}, {"time": 121923, "pitch": 70, "duration": 236, "velocity": 92}, {"time": 121924, "pitch": 63, "duration": 235, "velocity": 99}, {"time": 121924, "pitch": 67, "duration": 235, "velocity": 99}, {"time": 122159, "pitch": 58, "duration": 4, "velocity": 96}, {"time": 122159, "pitch": 70, "duration": 117, "velocity": 93}, {"time": 122160, "pitch": 51, "duration": 116, "velocity": 96}, {"time": 122163, "pitch": 63, "duration": 113, "velocity": 98}, {"time": 122163, "pitch": 67, "duration": 113, "velocity": 96}, {"time": 122276, "pitch": 67, "duration": 240, "velocity": 94}, {"time": 122278, "pitch": 70, "duration": 238, "velocity": 98}, {"time": 122279, "pitch": 63, "duration": 237, "velocity": 92}, {"time": 122283, "pitch": 51, "duration": 233, "velocity": 99}, {"time": 122284, "pitch": 58, "duration": 232, "velocity": 99}, {"time": 122516, "pitch": 51, "duration": 8, "velocity": 92}, {"time": 122519, "pitch": 58, "duration": 5, "velocity": 99}, {"time": 122520, "pitch": 70, "duration": 118, "velocity": 99}, {"time": 122523, "pitch": 67, "duration": 1, "velocity": 94}, {"time": 122524, "pitch": 63, "duration": 114, "velocity": 93}, {"time": 122638, "pitch": 70, "duration": 238, "velocity": 93}, {"time": 122639, "pitch": 58, "duration": 237, "velocity": 98}, {"time": 122639, "pitch": 63, "duration": 237, "velocity": 99}, {"time": 122639, "pitch": 67, "duration": 237, "velocity": 99}, {"time": 122642, "pitch": 51, "duration": 234, "velocity": 98}, {"time": 122876, "pitch": 58, "duration": 240, "velocity": 98}, {"time": 122879, "pitch": 63, "duration": 237, "velocity": 93}, {"time": 122880, "pitch": 51, "duration": 236, "velocity": 92}, {"time": 122880, "pitch": 70, "duration": 236, "velocity": 94}, {"time": 122884, "pitch": 67, "duration": 232, "velocity": 96}, {"time": 123116, "pitch": 67, "duration": 123, "velocity": 96}, {"time": 123119, "pitch": 58, "duration": 5, "velocity": 98}, {"time": 123119, "pitch": 70, "duration": 5, "velocity": 93}, {"time": 123121, "pitch": 51, "duration": 3, "velocity": 92}, {"time": 123124, "pitch": 63, "duration": 115, "velocity": 96}, {"time": 123239, "pitch": 67, "duration": 118, "velocity": 98}, {"time": 123240, "pitch": 51, "duration": 117, "velocity": 93}, {"time": 123241, "pitch": 63, "duration": 122, "velocity": 99}, {"time": 123243, "pitch": 58, "duration": 114, "velocity": 97}, {"time": 123244, "pitch": 70, "duration": 119, "velocity": 97}, {"time": 123357, "pitch": 65, "duration": 481, "velocity": 96}, {"time": 123360, "pitch": 49, "duration": 478, "velocity": 93}, {"time": 123361, "pitch": 56, "duration": 477, "velocity": 98}, {"time": 123362, "pitch": 61, "duration": 476, "velocity": 99}, {"time": 123363, "pitch": 68, "duration": 475, "velocity": 97}, {"time": 123838, "pitch": 56, "duration": 241, "velocity": 92}, {"time": 123840, "pitch": 49, "duration": 239, "velocity": 98}, {"time": 123843, "pitch": 68, "duration": 236, "velocity": 92}, {"time": 123844, "pitch": 61, "duration": 235, "velocity": 99}, {"time": 123844, "pitch": 65, "duration": 235, "velocity": 99}, {"time": 124079, "pitch": 56, "duration": 4, "velocity": 96}, {"time": 124079, "pitch": 68, "duration": 117, "velocity": 93}, {"time": 124080, "pitch": 49, "duration": 116, "velocity": 96}, {"time": 124083, "pitch": 61, "duration": 113, "velocity": 98}, {"time": 124083, "pitch": 65, "duration": 113, "velocity": 96}, {"time": 124196, "pitch": 65, "duration": 240, "velocity": 94}, {"time": 124198, "pitch": 68, "duration": 238, "velocity": 98}, {"time": 124199, "pitch": 61, "duration": 237, "velocity": 92}, {"time": 124203, "pitch": 49, "duration": 233, "velocity": 99}, {"time": 124204, "pitch": 56, "duration": 232, "velocity": 99}, {"time": 124436, "pitch": 49, "duration": 8, "velocity": 92}, {"time": 124439, "pitch": 56, "duration": 5, "velocity": 99}, {"time": 124440, "pitch": 68, "duration": 118, "velocity": 99}, {"time": 124443, "pitch": 65, "duration": 1, "velocity": 94}, {"time": 124444, "pitch": 61, "duration": 114, "velocity": 93}, {"time": 124558, "pitch": 68, "duration": 238, "velocity": 93}, {"time": 124559, "pitch": 56, "duration": 237, "velocity": 98}, {"time": 124559, "pitch": 61, "duration": 237, "velocity": 99}, {"time": 124559, "pitch": 65, "duration": 237, "velocity": 99}, {"time": 124562, "pitch": 49, "duration": 234, "velocity": 98}, {"time": 124796, "pitch": 56, "duration": 240, "velocity": 98}, {"time": 124799, "pitch": 61, "duration": 237, "velocity": 93}, {"time": 124800, "pitch": 49, "duration": 236, "velocity": 92}, {"time": 124800, "pitch": 68, "duration": 236, "velocity": 94}, {"time": 124804, "pitch": 65, "duration": 232, "velocity": 96}, {"time": 125036, "pitch": 65, "duration": 123, "velocity": 96}, {"time": 125039, "pitch": 56, "duration": 5, "velocity": 98}, {"time": 125039, "pitch": 68, "duration": 5, "velocity": 93}, {"time": 125041, "pitch": 49, "duration": 3, "velocity": 92}, {"time": 125044, "pitch": 61, "duration": 115, "velocity": 96}, {"time": 125159, "pitch": 65, "duration": 118, "velocity": 98}, {"time": 125160, "pitch": 49, "duration": 117, "velocity": 93}, {"time": 125161, "pitch": 61, "duration": 122, "velocity": 99}, {"time": 125163, "pitch": 56, "duration": 114, "velocity": 97}, {"time": 125164, "pitch": 68, "duration": 119, "velocity": 97}, {"time": 125277, "pitch": 67, "duration": 481, "velocity": 96}, {"time": 125280, "pitch": 51, "duration": 478, "velocity": 93}, {"time": 125281, "pitch": 58, "duration": 477, "velocity": 98}, {"time": 125282, "pitch": 63, "duration": 476, "velocity": 99}, {"time": 125283, "pitch": 70, "duration": 475, "velocity": 97}, {"time": 125758, "pitch": 58, "duration": 241, "velocity": 92}, {"time": 125760, "pitch": 51, "duration": 239, "velocity": 98}, {"time": 125763, "pitch": 70, "duration": 236, "velocity": 92}, {"time": 125764, "pitch": 63, "duration": 235, "velocity": 99}, {"time": 125764, "pitch": 67, "duration": 235, "velocity": 99}, {"time": 125999, "pitch": 58, "duration": 4, "velocity": 96}, {"time": 125999, "pitch": 70, "duration": 117, "velocity": 93}, {"time": 126000, "pitch": 51, "duration": 116, "velocity": 96}, {"time": 126003, "pitch": 63, "duration": 113, "velocity": 98}, {"time": 126003, "pitch": 67, "duration": 113, "velocity": 96}, {"time": 126116, "pitch": 67, "duration": 240, "velocity": 94}, {"time": 126118, "pitch": 70, "duration": 238, "velocity": 98}, {"time": 126119, "pitch": 63, "duration": 237, "velocity": 92}, {"time": 126123, "pitch": 51, "duration": 233, "velocity": 99}, {"time": 126124, "pitch": 58, "duration": 232, "velocity": 99}, {"time": 126356, "pitch": 51, "duration": 8, "velocity": 92}, {"time": 126359, "pitch": 58, "duration": 5, "velocity": 99}, {"time": 126360, "pitch": 70, "duration": 118, "velocity": 99}, {"time": 126363, "pitch": 67, "duration": 1, "velocity": 94}, {"time": 126364, "pitch": 63, "duration": 114, "velocity": 93}, {"time": 126478, "pitch": 70, "duration": 238, "velocity": 93}, {"time": 126479, "pitch": 58, "duration": 237, "velocity": 98}, {"time": 126479, "pitch": 63, "duration": 237, "velocity": 99}, {"time": 126479, "pitch": 67, "duration": 237, "velocity": 99}, {"time": 126482, "pitch": 51, "duration": 234, "velocity": 98}, {"time": 126716, "pitch": 58, "duration": 240, "velocity": 98}, {"time": 126719, "pitch": 63, "duration": 237, "velocity": 93}, {"time": 126720, "pitch": 51, "duration": 236, "velocity": 92}, {"time": 126720, "pitch": 70, "duration": 236, "velocity": 94}, {"time": 126724, "pitch": 67, "duration": 232, "velocity": 96}, {"time": 126956, "pitch": 67, "duration": 123, "velocity": 96}, {"time": 126959, "pitch": 58, "duration": 5, "velocity": 98}, {"time": 126959, "pitch": 70, "duration": 5, "velocity": 93}, {"time": 126961, "pitch": 51, "duration": 3, "velocity": 92}, {"time": 126964, "pitch": 63, "duration": 115, "velocity": 96}, {"time": 127079, "pitch": 67, "duration": 118, "velocity": 98}, {"time": 127080, "pitch": 51, "duration": 117, "velocity": 93}, {"time": 127081, "pitch": 63, "duration": 122, "velocity": 99}, {"time": 127083, "pitch": 58, "duration": 114, "velocity": 97}, {"time": 127084, "pitch": 70, "duration": 119, "velocity": 97}, {"time": 127197, "pitch": 65, "duration": 481, "velocity": 96}, {"time": 127200, "pitch": 49, "duration": 478, "velocity": 93}, {"time": 127201, "pitch": 56, "duration": 477, "velocity": 98}, {"time": 127202, "pitch": 61, "duration": 476, "velocity": 99}, {"time": 127203, "pitch": 68, "duration": 475, "velocity": 97}, {"time": 127678, "pitch": 56, "duration": 241, "velocity": 92}, {"time": 127680, "pitch": 49, "duration": 239, "velocity": 98}, {"time": 127683, "pitch": 68, "duration": 236, "velocity": 92}, {"time": 127684, "pitch": 61, "duration": 235, "velocity": 99}, {"time": 127684, "pitch": 65, "duration": 235, "velocity": 99}, {"time": 127919, "pitch": 56, "duration": 4, "velocity": 96}, {"time": 127919, "pitch": 68, "duration": 117, "velocity": 93}, {"time": 127920, "pitch": 49, "duration": 116, "velocity": 96}, {"time": 127923, "pitch": 61, "duration": 113, "velocity": 98}, {"time": 127923, "pitch": 65, "duration": 113, "velocity": 96}, {"time": 128036, "pitch": 65, "duration": 240, "velocity": 94}, {"time": 128038, "pitch": 68, "duration": 238, "velocity": 98}, {"time": 128039, "pitch": 61, "duration": 237, "velocity": 92}, {"time": 128043, "pitch": 49, "duration": 233, "velocity": 99}, {"time": 128044, "pitch": 56, "duration": 232, "velocity": 99}, {"time": 128276, "pitch": 49, "duration": 8, "velocity": 92}, {"time": 128279, "pitch": 56, "duration": 5, "velocity": 99}, {"time": 128280, "pitch": 68, "duration": 118, "velocity": 99}, {"time": 128283, "pitch": 65, "duration": 1, "velocity": 94}, {"time": 128284, "pitch": 61, "duration": 114, "velocity": 93}, {"time": 128398, "pitch": 68, "duration": 238, "velocity": 93}, {"time": 128399, "pitch": 56, "duration": 237, "velocity": 98}, {"time": 128399, "pitch": 61, "duration": 237, "velocity": 99}, {"time": 128399, "pitch": 65, "duration": 237, "velocity": 99}, {"time": 128402, "pitch": 49, "duration": 234, "velocity": 98}, {"time": 128636, "pitch": 56, "duration": 240, "velocity": 98}, {"time": 128639, "pitch": 61, "duration": 237, "velocity": 93}, {"time": 128640, "pitch": 49, "duration": 236, "velocity": 92}, {"time": 128640, "pitch": 68, "duration": 236, "velocity": 94}, {"time": 128644, "pitch": 65, "duration": 232, "velocity": 96}, {"time": 128876, "pitch": 65, "duration": 123, "velocity": 96}, {"time": 128879, "pitch": 56, "duration": 5, "velocity": 98}, {"time": 128879, "pitch": 68, "duration": 5, "velocity": 93}, {"time": 128881, "pitch": 49, "duration": 3, "velocity": 92}, {"time": 128884, "pitch": 61, "duration": 115, "velocity": 96}, {"time": 128999, "pitch": 65, "duration": 118, "velocity": 98}, {"time": 129000, "pitch": 49, "duration": 117, "velocity": 93}, {"time": 129001, "pitch": 61, "duration": 122, "velocity": 99}, {"time": 129003, "pitch": 56, "duration": 114, "velocity": 97}, {"time": 129004, "pitch": 68, "duration": 119, "velocity": 97}, {"time": 129117, "pitch": 67, "duration": 481, "velocity": 96}, {"time": 129120, "pitch": 51, "duration": 478, "velocity": 93}, {"time": 129121, "pitch": 58, "duration": 477, "velocity": 98}, {"time": 129122, "pitch": 63, "duration": 476, "velocity": 99}, {"time": 129123, "pitch": 70, "duration": 475, "velocity": 97}, {"time": 129598, "pitch": 58, "duration": 241, "velocity": 92}, {"time": 129600, "pitch": 51, "duration": 239, "velocity": 98}, {"time": 129603, "pitch": 70, "duration": 236, "velocity": 92}, {"time": 129604, "pitch": 63, "duration": 235, "velocity": 99}, {"time": 129604, "pitch": 67, "duration": 235, "velocity": 99}, {"time": 129839, "pitch": 58, "duration": 4, "velocity": 96}, {"time": 129839, "pitch": 70, "duration": 117, "velocity": 93}, {"time": 129840, "pitch": 51, "duration": 116, "velocity": 96}, {"time": 129843, "pitch": 63, "duration": 113, "velocity": 98}, {"time": 129843, "pitch": 67, "duration": 113, "velocity": 96}, {"time": 129956, "pitch": 67, "duration": 240, "velocity": 94}, {"time": 129958, "pitch": 70, "duration": 238, "velocity": 98}, {"time": 129959, "pitch": 63, "duration": 237, "velocity": 92}, {"time": 129963, "pitch": 51, "duration": 233, "velocity": 99}, {"time": 129964, "pitch": 58, "duration": 232, "velocity": 99}, {"time": 130196, "pitch": 51, "duration": 8, "velocity": 92}, {"time": 130199, "pitch": 58, "duration": 5, "velocity": 99}, {"time": 130200, "pitch": 70, "duration": 118, "velocity": 99}, {"time": 130203, "pitch": 67, "duration": 1, "velocity": 94}, {"time": 130204, "pitch": 63, "duration": 114, "velocity": 93}, {"time": 130318, "pitch": 70, "duration": 238, "velocity": 93}, {"time": 130319, "pitch": 58, "duration": 237, "velocity": 98}, {"time": 130319, "pitch": 63, "duration": 237, "velocity": 99}, {"time": 130319, "pitch": 67, "duration": 237, "velocity": 99}, {"time": 130322, "pitch": 51, "duration": 234, "velocity": 98}, {"time": 130556, "pitch": 58, "duration": 240, "velocity": 98}, {"time": 130559, "pitch": 63, "duration": 237, "velocity": 93}, {"time": 130560, "pitch": 51, "duration": 236, "velocity": 92}, {"time": 130560, "pitch": 70, "duration": 236, "velocity": 94}, {"time": 130564, "pitch": 67, "duration": 232, "velocity": 96}, {"time": 130796, "pitch": 67, "duration": 123, "velocity": 96}, {"time": 130799, "pitch": 58, "duration": 5, "velocity": 98}, {"time": 130799, "pitch": 70, "duration": 5, "velocity": 93}, {"time": 130801, "pitch": 51, "duration": 3, "velocity": 92}, {"time": 130804, "pitch": 63, "duration": 115, "velocity": 96}, {"time": 130919, "pitch": 67, "duration": 118, "velocity": 98}, {"time": 130920, "pitch": 51, "duration": 117, "velocity": 93}, {"time": 130921, "pitch": 63, "duration": 122, "velocity": 99}, {"time": 130923, "pitch": 58, "duration": 114, "velocity": 97}, {"time": 130924, "pitch": 70, "duration": 119, "velocity": 97}, {"time": 131037, "pitch": 69, "duration": 481, "velocity": 96}, {"time": 131040, "pitch": 53, "duration": 478, "velocity": 93}, {"time": 131041, "pitch": 60, "duration": 477, "velocity": 98}, {"time": 131042, "pitch": 65, "duration": 476, "velocity": 99}, {"time": 131043, "pitch": 72, "duration": 475, "velocity": 97}, {"time": 131518, "pitch": 60, "duration": 241, "velocity": 92}, {"time": 131520, "pitch": 53, "duration": 239, "velocity": 98}, {"time": 131523, "pitch": 72, "duration": 236, "velocity": 92}, {"time": 131524, "pitch": 65, "duration": 235, "velocity": 99}, {"time": 131524, "pitch": 69, "duration": 235, "velocity": 99}, {"time": 131759, "pitch": 60, "duration": 4, "velocity": 96}, {"time": 131759, "pitch": 72, "duration": 117, "velocity": 93}, {"time": 131760, "pitch": 53, "duration": 116, "velocity": 96}, {"time": 131763, "pitch": 65, "duration": 113, "velocity": 98}, {"time": 131763, "pitch": 69, "duration": 113, "velocity": 96}, {"time": 131876, "pitch": 69, "duration": 240, "velocity": 94}, {"time": 131878, "pitch": 72, "duration": 238, "velocity": 98}, {"time": 131879, "pitch": 65, "duration": 237, "velocity": 92}, {"time": 131883, "pitch": 53, "duration": 233, "velocity": 99}, {"time": 131884, "pitch": 60, "duration": 232, "velocity": 99}, {"time": 132120, "pitch": 72, "duration": 100, "velocity": 92}, {"time": 132122, "pitch": 65, "duration": 100, "velocity": 94}, {"time": 132125, "pitch": 53, "duration": 100, "velocity": 92}, {"time": 132125, "pitch": 60, "duration": 100, "velocity": 92}, {"time": 132233, "pitch": 53, "duration": 14, "velocity": 84}, {"time": 132238, "pitch": 60, "duration": 16, "velocity": 82}, {"time": 132240, "pitch": 53, "duration": 7, "velocity": 114}, {"time": 132243, "pitch": 60, "duration": 11, "velocity": 118}, {"time": 132244, "pitch": 65, "duration": 132, "velocity": 102}, {"time": 132246, "pitch": 65, "duration": 130, "velocity": 117}, {"time": 132252, "pitch": 72, "duration": 225, "velocity": 98}, {"time": 132480, "pitch": 53, "duration": 230, "velocity": 114}, {"time": 132483, "pitch": 60, "duration": 105, "velocity": 118}, {"time": 132486, "pitch": 65, "duration": 105, "velocity": 117}, {"time": 132492, "pitch": 72, "duration": 105, "velocity": 98}, {"time": 132600, "pitch": 72, "duration": 100, "velocity": 92}, {"time": 132602, "pitch": 65, "duration": 100, "velocity": 94}, {"time": 132605, "pitch": 60, "duration": 100, "velocity": 92}, {"time": 132713, "pitch": 53, "duration": 14, "velocity": 84}, {"time": 132718, "pitch": 60, "duration": 16, "velocity": 82}, {"time": 132724, "pitch": 65, "duration": 12, "velocity": 102}, {"time": 132732, "pitch": 72, "duration": 6, "velocity": 86}, {"time": 132840, "pitch": 72, "duration": 100, "velocity": 92}, {"time": 132842, "pitch": 65, "duration": 100, "velocity": 94}, {"time": 132845, "pitch": 53, "duration": 100, "velocity": 92}, {"time": 132845, "pitch": 60, "duration": 100, "velocity": 92}, {"time": 132983, "pitch": 53, "duration": 14, "velocity": 84}, {"time": 132988, "pitch": 60, "duration": 16, "velocity": 82}, {"time": 132994, "pitch": 65, "duration": 12, "velocity": 102}, {"time": 133002, "pitch": 72, "duration": 6, "velocity": 86}, {"time": 133080, "pitch": 72, "duration": 100, "velocity": 92}, {"time": 133082, "pitch": 65, "duration": 100, "velocity": 94}, {"time": 133085, "pitch": 53, "duration": 100, "velocity": 92}, {"time": 133085, "pitch": 60, "duration": 100, "velocity": 92}, {"time": 133200, "pitch": 53, "duration": 230, "velocity": 114}, {"time": 133203, "pitch": 60, "duration": 225, "velocity": 118}, {"time": 133206, "pitch": 65, "duration": 225, "velocity": 117}, {"time": 133206, "pitch": 72, "duration": 225, "velocity": 117}, {"time": 133448, "pitch": 53, "duration": 14, "velocity": 84}, {"time": 133453, "pitch": 60, "duration": 16, "velocity": 82}, {"time": 133459, "pitch": 65, "duration": 12, "velocity": 102}, {"time": 133467, "pitch": 72, "duration": 6, "velocity": 86}, {"time": 133560, "pitch": 72, "duration": 100, "velocity": 92}, {"time": 133562, "pitch": 65, "duration": 100, "velocity": 94}, {"time": 133565, "pitch": 53, "duration": 100, "velocity": 92}, {"time": 133565, "pitch": 60, "duration": 100, "velocity": 92}, {"time": 133673, "pitch": 53, "duration": 14, "velocity": 84}, {"time": 133678, "pitch": 60, "duration": 16, "velocity": 82}, {"time": 133684, "pitch": 65, "duration": 12, "velocity": 102}, {"time": 133692, "pitch": 72, "duration": 6, "velocity": 86}, {"time": 133800, "pitch": 72, "duration": 100, "velocity": 92}, {"time": 133802, "pitch": 65, "duration": 100, "velocity": 94}, {"time": 133805, "pitch": 53, "duration": 100, "velocity": 92}, {"time": 133805, "pitch": 60, "duration": 100, "velocity": 92}, {"time": 133920, "pitch": 53, "duration": 230, "velocity": 114}, {"time": 133923, "pitch": 60, "duration": 105, "velocity": 118}, {"time": 133926, "pitch": 65, "duration": 105, "velocity": 117}, {"time": 133932, "pitch": 72, "duration": 105, "velocity": 98}, {"time": 134040, "pitch": 72, "duration": 100, "velocity": 92}, {"time": 134042, "pitch": 65, "duration": 100, "velocity": 94}, {"time": 134045, "pitch": 60, "duration": 100, "velocity": 92}, {"time": 134153, "pitch": 53, "duration": 14, "velocity": 84}, {"time": 134158, "pitch": 60, "duration": 16, "velocity": 82}, {"time": 134164, "pitch": 65, "duration": 12, "velocity": 102}, {"time": 134172, "pitch": 72, "duration": 6, "velocity": 86}, {"time": 134280, "pitch": 72, "duration": 100, "velocity": 92}, {"time": 134282, "pitch": 65, "duration": 100, "velocity": 94}, {"time": 134285, "pitch": 53, "duration": 100, "velocity": 92}, {"time": 134285, "pitch": 60, "duration": 100, "velocity": 92}, {"time": 134423, "pitch": 53, "duration": 14, "velocity": 84}, {"time": 134428, "pitch": 60, "duration": 16, "velocity": 82}, {"time": 134434, "pitch": 65, "duration": 12, "velocity": 102}, {"time": 134442, "pitch": 72, "duration": 6, "velocity": 86}, {"time": 134520, "pitch": 72, "duration": 100, "velocity": 92}, {"time": 134522, "pitch": 65, "duration": 100, "velocity": 94}, {"time": 134525, "pitch": 53, "duration": 100, "velocity": 92}, {"time": 134525, "pitch": 60, "duration": 100, "velocity": 92}, {"time": 134633, "pitch": 53, "duration": 14, "velocity": 84}, {"time": 134638, "pitch": 60, "duration": 16, "velocity": 82}, {"time": 134640, "pitch": 53, "duration": 7, "velocity": 114}, {"time": 134643, "pitch": 60, "duration": 11, "velocity": 118}, {"time": 134644, "pitch": 65, "duration": 12, "velocity": 102}, {"time": 134646, "pitch": 65, "duration": 10, "velocity": 117}, {"time": 134652, "pitch": 72, "duration": 105, "velocity": 98}, {"time": 134760, "pitch": 72, "duration": 100, "velocity": 92}, {"time": 134762, "pitch": 65, "duration": 100, "velocity": 94}, {"time": 134765, "pitch": 60, "duration": 100, "velocity": 92}, {"time": 134880, "pitch": 48, "duration": 465, "velocity": 99}, {"time": 134888, "pitch": 52, "duration": 465, "velocity": 92}, {"time": 134897, "pitch": 55, "duration": 465, "velocity": 95}, {"time": 134905, "pitch": 64, "duration": 465, "velocity": 100}, {"time": 134912, "pitch": 60, "duration": 465, "velocity": 100}, {"time": 135360, "pitch": 47, "duration": 465, "velocity": 99}, {"time": 135368, "pitch": 50, "duration": 465, "velocity": 92}, {"time": 135377, "pitch": 55, "duration": 465, "velocity": 95}, {"time": 135385, "pitch": 67, "duration": 465, "velocity": 100}, {"time": 135392, "pitch": 62, "duration": 465, "velocity": 100}, {"time": 135840, "pitch": 45, "duration": 456, "velocity": 98}, {"time": 135848, "pitch": 52, "duration": 467, "velocity": 101}, {"time": 135858, "pitch": 57, "duration": 447, "velocity": 104}, {"time": 135865, "pitch": 60, "duration": 445, "velocity": 90}, {"time": 136320, "pitch": 45, "duration": 216, "velocity": 98}, {"time": 136328, "pitch": 52, "duration": 192, "velocity": 101}, {"time": 136338, "pitch": 57, "duration": 202, "velocity": 104}, {"time": 136345, "pitch": 60, "duration": 205, "velocity": 90}, {"time": 136553, "pitch": 45, "duration": 14, "velocity": 70}, {"time": 136558, "pitch": 52, "duration": 16, "velocity": 69}, {"time": 136564, "pitch": 57, "duration": 12, "velocity": 85}, {"time": 136572, "pitch": 60, "duration": 6, "velocity": 72}, {"time": 136680, "pitch": 57, "duration": 12, "velocity": 54}, {"time": 136686, "pitch": 52, "duration": 12, "velocity": 67}, {"time": 136800, "pitch": 41, "duration": 230, "velocity": 99}, {"time": 136808, "pitch": 48, "duration": 207, "velocity": 92}, {"time": 136817, "pitch": 53, "duration": 228, "velocity": 95}, {"time": 136825, "pitch": 65, "duration": 215, "velocity": 95}, {"time": 136833, "pitch": 57, "duration": 217, "velocity": 100}, {"time": 136839, "pitch": 60, "duration": 206, "velocity": 95}, {"time": 137040, "pitch": 41, "duration": 230, "velocity": 89}, {"time": 137047, "pitch": 53, "duration": 230, "velocity": 85}, {"time": 137048, "pitch": 48, "duration": 230, "velocity": 82}, {"time": 137058, "pitch": 57, "duration": 230, "velocity": 90}, {"time": 137064, "pitch": 60, "duration": 230, "velocity": 85}, {"time": 137280, "pitch": 41, "duration": 223, "velocity": 100}, {"time": 137285, "pitch": 48, "duration": 222, "velocity": 93}, {"time": 137295, "pitch": 53, "duration": 220, "velocity": 101}, {"time": 137302, "pitch": 57, "duration": 219, "velocity": 93}, {"time": 137308, "pitch": 60, "duration": 219, "velocity": 91}, {"time": 137315, "pitch": 65, "duration": 215, "velocity": 89}, {"time": 137516, "pitch": 41, "duration": 11, "velocity": 72}, {"time": 137521, "pitch": 48, "duration": 12, "velocity": 71}, {"time": 137527, "pitch": 53, "duration": 11, "velocity": 69}, {"time": 137531, "pitch": 57, "duration": 13, "velocity": 77}, {"time": 137534, "pitch": 60, "duration": 6, "velocity": 81}, {"time": 137543, "pitch": 65, "duration": 14, "velocity": 80}, {"time": 137639, "pitch": 65, "duration": 121, "velocity": 82}, {"time": 137648, "pitch": 60, "duration": 117, "velocity": 95}, {"time": 137651, "pitch": 57, "duration": 113, "velocity": 96}, {"time": 137658, "pitch": 53, "duration": 102, "velocity": 86}, {"time": 137664, "pitch": 48, "duration": 91, "velocity": 68}, {"time": 137666, "pitch": 41, "duration": 83, "velocity": 51}, {"time": 137760, "pitch": 43, "duration": 230, "velocity": 99}, {"time": 137768, "pitch": 50, "duration": 207, "velocity": 92}, {"time": 137777, "pitch": 55, "duration": 228, "velocity": 95}, {"time": 137785, "pitch": 67, "duration": 215, "velocity": 95}, {"time": 137793, "pitch": 59, "duration": 217, "velocity": 100}, {"time": 137799, "pitch": 62, "duration": 206, "velocity": 95}, {"time": 138000, "pitch": 43, "duration": 230, "velocity": 89}, {"time": 138007, "pitch": 55, "duration": 230, "velocity": 85}, {"time": 138008, "pitch": 50, "duration": 230, "velocity": 82}, {"time": 138018, "pitch": 59, "duration": 230, "velocity": 90}, {"time": 138024, "pitch": 62, "duration": 230, "velocity": 85}, {"time": 138240, "pitch": 43, "duration": 230, "velocity": 95}, {"time": 138243, "pitch": 50, "duration": 218, "velocity": 99}, {"time": 138246, "pitch": 55, "duration": 218, "velocity": 98}, {"time": 138252, "pitch": 59, "duration": 218, "velocity": 82}, {"time": 138252, "pitch": 62, "duration": 2, "velocity": 82}, {"time": 138473, "pitch": 43, "duration": 14, "velocity": 70}, {"time": 138478, "pitch": 50, "duration": 16, "velocity": 69}, {"time": 138484, "pitch": 55, "duration": 12, "velocity": 85}, {"time": 138492, "pitch": 59, "duration": 6, "velocity": 72}, {"time": 138492, "pitch": 62, "duration": 6, "velocity": 72}, {"time": 138600, "pitch": 55, "duration": 12, "velocity": 54}, {"time": 138606, "pitch": 50, "duration": 12, "velocity": 67}, {"time": 138720, "pitch": 45, "duration": 465, "velocity": 99}, {"time": 138728, "pitch": 52, "duration": 465, "velocity": 92}, {"time": 138737, "pitch": 55, "duration": 465, "velocity": 95}, {"time": 138745, "pitch": 64, "duration": 465, "velocity": 100}, {"time": 138752, "pitch": 60, "duration": 465, "velocity": 100}, {"time": 139200, "pitch": 43, "duration": 465, "velocity": 99}, {"time": 139208, "pitch": 50, "duration": 465, "velocity": 92}, {"time": 139217, "pitch": 55, "duration": 465, "velocity": 95}, {"time": 139225, "pitch": 64, "duration": 465, "velocity": 100}, {"time": 139232, "pitch": 59, "duration": 465, "velocity": 100}, {"time": 139680, "pitch": 41, "duration": 456, "velocity": 98}, {"time": 139688, "pitch": 48, "duration": 462, "velocity": 101}, {"time": 139698, "pitch": 53, "duration": 450, "velocity": 104}, {"time": 139705, "pitch": 57, "duration": 434, "velocity": 90}, {"time": 139705, "pitch": 60, "duration": 434, "velocity": 90}, {"time": 140160, "pitch": 41, "duration": 216, "velocity": 98}, {"time": 140168, "pitch": 48, "duration": 192, "velocity": 101}, {"time": 140178, "pitch": 53, "duration": 202, "velocity": 104}, {"time": 140185, "pitch": 57, "duration": 205, "velocity": 90}, {"time": 140185, "pitch": 60, "duration": 205, "velocity": 90}, {"time": 140393, "pitch": 41, "duration": 14, "velocity": 70}, {"time": 140398, "pitch": 48, "duration": 16, "velocity": 69}, {"time": 140404, "pitch": 53, "duration": 12, "velocity": 85}, {"time": 140412, "pitch": 57, "duration": 6, "velocity": 72}, {"time": 140520, "pitch": 53, "duration": 12, "velocity": 54}, {"time": 140526, "pitch": 48, "duration": 12, "velocity": 67}, {"time": 140640, "pitch": 45, "duration": 230, "velocity": 99}, {"time": 140648, "pitch": 50, "duration": 207, "velocity": 92}, {"time": 140657, "pitch": 57, "duration": 228, "velocity": 95}, {"time": 140673, "pitch": 60, "duration": 217, "velocity": 100}, {"time": 140679, "pitch": 65, "duration": 206, "velocity": 95}, {"time": 140880, "pitch": 45, "duration": 230, "velocity": 89}, {"time": 140887, "pitch": 57, "duration": 230, "velocity": 85}, {"time": 140888, "pitch": 50, "duration": 230, "velocity": 82}, {"time": 140898, "pitch": 60, "duration": 230, "velocity": 90}, {"time": 140904, "pitch": 65, "duration": 230, "velocity": 85}, {"time": 141120, "pitch": 45, "duration": 223, "velocity": 100}, {"time": 141125, "pitch": 50, "duration": 222, "velocity": 93}, {"time": 141135, "pitch": 57, "duration": 220, "velocity": 101}, {"time": 141142, "pitch": 60, "duration": 219, "velocity": 93}, {"time": 141148, "pitch": 65, "duration": 219, "velocity": 91}, {"time": 141356, "pitch": 45, "duration": 11, "velocity": 72}, {"time": 141361, "pitch": 50, "duration": 12, "velocity": 71}, {"time": 141367, "pitch": 57, "duration": 11, "velocity": 69}, {"time": 141371, "pitch": 60, "duration": 13, "velocity": 77}, {"time": 141374, "pitch": 65, "duration": 6, "velocity": 81}, {"time": 141488, "pitch": 65, "duration": 117, "velocity": 95}, {"time": 141491, "pitch": 60, "duration": 113, "velocity": 96}, {"time": 141498, "pitch": 57, "duration": 102, "velocity": 86}, {"time": 141504, "pitch": 50, "duration": 91, "velocity": 68}, {"time": 141506, "pitch": 45, "duration": 83, "velocity": 51}, {"time": 141600, "pitch": 43, "duration": 230, "velocity": 99}, {"time": 141608, "pitch": 50, "duration": 207, "velocity": 92}, {"time": 141617, "pitch": 53, "duration": 228, "velocity": 95}, {"time": 141633, "pitch": 55, "duration": 217, "velocity": 100}, {"time": 141639, "pitch": 59, "duration": 206, "velocity": 95}, {"time": 141639, "pitch": 62, "duration": 206, "velocity": 95}, {"time": 141840, "pitch": 43, "duration": 230, "velocity": 89}, {"time": 141847, "pitch": 53, "duration": 230, "velocity": 85}, {"time": 141848, "pitch": 50, "duration": 230, "velocity": 82}, {"time": 141858, "pitch": 55, "duration": 230, "velocity": 90}, {"time": 141864, "pitch": 59, "duration": 230, "velocity": 85}, {"time": 141864, "pitch": 62, "duration": 230, "velocity": 85}, {"time": 142080, "pitch": 43, "duration": 223, "velocity": 100}, {"time": 142085, "pitch": 50, "duration": 222, "velocity": 93}, {"time": 142095, "pitch": 53, "duration": 220, "velocity": 101}, {"time": 142102, "pitch": 55, "duration": 219, "velocity": 93}, {"time": 142108, "pitch": 59, "duration": 219, "velocity": 91}, {"time": 142108, "pitch": 62, "duration": 219, "velocity": 91}, {"time": 142316, "pitch": 43, "duration": 11, "velocity": 72}, {"time": 142321, "pitch": 50, "duration": 12, "velocity": 71}, {"time": 142327, "pitch": 53, "duration": 11, "velocity": 69}, {"time": 142331, "pitch": 55, "duration": 13, "velocity": 77}, {"time": 142334, "pitch": 59, "duration": 6, "velocity": 81}, {"time": 142334, "pitch": 62, "duration": 6, "velocity": 81}, {"time": 142448, "pitch": 59, "duration": 117, "velocity": 95}, {"time": 142448, "pitch": 62, "duration": 117, "velocity": 95}, {"time": 142451, "pitch": 55, "duration": 113, "velocity": 96}, {"time": 142458, "pitch": 53, "duration": 102, "velocity": 86}, {"time": 142464, "pitch": 50, "duration": 91, "velocity": 68}, {"time": 142466, "pitch": 43, "duration": 83, "velocity": 51}, {"time": 142560, "pitch": 48, "duration": 465, "velocity": 99}, {"time": 142568, "pitch": 52, "duration": 465, "velocity": 92}, {"time": 142577, "pitch": 55, "duration": 465, "velocity": 95}, {"time": 142585, "pitch": 64, "duration": 465, "velocity": 100}, {"time": 142592, "pitch": 60, "duration": 465, "velocity": 100}, {"time": 143040, "pitch": 47, "duration": 465, "velocity": 99}, {"time": 143048, "pitch": 50, "duration": 465, "velocity": 92}, {"time": 143057, "pitch": 55, "duration": 465, "velocity": 95}, {"time": 143065, "pitch": 67, "duration": 465, "velocity": 100}, {"time": 143072, "pitch": 62, "duration": 465, "velocity": 100}, {"time": 143520, "pitch": 45, "duration": 456, "velocity": 98}, {"time": 143528, "pitch": 52, "duration": 467, "velocity": 101}, {"time": 143538, "pitch": 57, "duration": 447, "velocity": 104}, {"time": 143545, "pitch": 60, "duration": 445, "velocity": 90}, {"time": 144000, "pitch": 45, "duration": 216, "velocity": 98}, {"time": 144008, "pitch": 52, "duration": 192, "velocity": 101}, {"time": 144018, "pitch": 57, "duration": 202, "velocity": 104}, {"time": 144025, "pitch": 60, "duration": 205, "velocity": 90}, {"time": 144233, "pitch": 45, "duration": 14, "velocity": 70}, {"time": 144238, "pitch": 52, "duration": 16, "velocity": 69}, {"time": 144244, "pitch": 57, "duration": 12, "velocity": 85}, {"time": 144252, "pitch": 60, "duration": 6, "velocity": 72}, {"time": 144360, "pitch": 57, "duration": 12, "velocity": 54}, {"time": 144366, "pitch": 52, "duration": 12, "velocity": 67}, {"time": 144480, "pitch": 41, "duration": 230, "velocity": 99}, {"time": 144488, "pitch": 48, "duration": 207, "velocity": 92}, {"time": 144497, "pitch": 53, "duration": 228, "velocity": 95}, {"time": 144505, "pitch": 65, "duration": 215, "velocity": 95}, {"time": 144513, "pitch": 57, "duration": 217, "velocity": 100}, {"time": 144519, "pitch": 60, "duration": 206, "velocity": 95}, {"time": 144720, "pitch": 41, "duration": 230, "velocity": 89}, {"time": 144727, "pitch": 53, "duration": 230, "velocity": 85}, {"time": 144728, "pitch": 48, "duration": 230, "velocity": 82}, {"time": 144738, "pitch": 57, "duration": 230, "velocity": 90}, {"time": 144744, "pitch": 60, "duration": 230, "velocity": 85}, {"time": 144960, "pitch": 41, "duration": 223, "velocity": 100}, {"time": 144965, "pitch": 48, "duration": 222, "velocity": 93}, {"time": 144975, "pitch": 53, "duration": 220, "velocity": 101}, {"time": 144982, "pitch": 57, "duration": 219, "velocity": 93}, {"time": 144988, "pitch": 60, "duration": 219, "velocity": 91}, {"time": 144995, "pitch": 65, "duration": 215, "velocity": 89}, {"time": 145196, "pitch": 41, "duration": 11, "velocity": 72}, {"time": 145201, "pitch": 48, "duration": 12, "velocity": 71}, {"time": 145207, "pitch": 53, "duration": 11, "velocity": 69}, {"time": 145211, "pitch": 57, "duration": 13, "velocity": 77}, {"time": 145214, "pitch": 60, "duration": 6, "velocity": 81}, {"time": 145223, "pitch": 65, "duration": 14, "velocity": 80}, {"time": 145319, "pitch": 65, "duration": 121, "velocity": 82}, {"time": 145328, "pitch": 60, "duration": 117, "velocity": 95}, {"time": 145331, "pitch": 57, "duration": 113, "velocity": 96}, {"time": 145338, "pitch": 53, "duration": 102, "velocity": 86}, {"time": 145344, "pitch": 48, "duration": 91, "velocity": 68}, {"time": 145346, "pitch": 41, "duration": 83, "velocity": 51}, {"time": 145440, "pitch": 43, "duration": 230, "velocity": 99}, {"time": 145448, "pitch": 50, "duration": 207, "velocity": 92}, {"time": 145457, "pitch": 55, "duration": 228, "velocity": 95}, {"time": 145465, "pitch": 67, "duration": 215, "velocity": 95}, {"time": 145473, "pitch": 59, "duration": 217, "velocity": 100}, {"time": 145479, "pitch": 62, "duration": 206, "velocity": 95}, {"time": 145680, "pitch": 43, "duration": 230, "velocity": 89}, {"time": 145687, "pitch": 55, "duration": 230, "velocity": 85}, {"time": 145688, "pitch": 50, "duration": 230, "velocity": 82}, {"time": 145698, "pitch": 59, "duration": 230, "velocity": 90}, {"time": 145704, "pitch": 62, "duration": 230, "velocity": 85}, {"time": 145920, "pitch": 43, "duration": 230, "velocity": 95}, {"time": 145923, "pitch": 50, "duration": 218, "velocity": 99}, {"time": 145926, "pitch": 55, "duration": 218, "velocity": 98}, {"time": 145932, "pitch": 59, "duration": 218, "velocity": 82}, {"time": 145932, "pitch": 62, "duration": 2, "velocity": 82}, {"time": 146153, "pitch": 43, "duration": 14, "velocity": 70}, {"time": 146158, "pitch": 50, "duration": 16, "velocity": 69}, {"time": 146164, "pitch": 55, "duration": 12, "velocity": 85}, {"time": 146172, "pitch": 59, "duration": 6, "velocity": 72}, {"time": 146172, "pitch": 62, "duration": 6, "velocity": 72}, {"time": 146280, "pitch": 55, "duration": 12, "velocity": 54}, {"time": 146286, "pitch": 50, "duration": 12, "velocity": 67}, {"time": 146400, "pitch": 45, "duration": 465, "velocity": 99}, {"time": 146408, "pitch": 52, "duration": 465, "velocity": 92}, {"time": 146417, "pitch": 55, "duration": 465, "velocity": 95}, {"time": 146425, "pitch": 64, "duration": 465, "velocity": 100}, {"time": 146432, "pitch": 60, "duration": 465, "velocity": 100}, {"time": 146880, "pitch": 43, "duration": 465, "velocity": 99}, {"time": 146888, "pitch": 50, "duration": 465, "velocity": 92}, {"time": 146897, "pitch": 55, "duration": 465, "velocity": 95}, {"time": 146905, "pitch": 64, "duration": 465, "velocity": 100}, {"time": 146912, "pitch": 59, "duration": 465, "velocity": 100}, {"time": 147360, "pitch": 41, "duration": 456, "velocity": 98}, {"time": 147368, "pitch": 48, "duration": 462, "velocity": 101}, {"time": 147378, "pitch": 53, "duration": 450, "velocity": 104}, {"time": 147385, "pitch": 57, "duration": 434, "velocity": 90}, {"time": 147385, "pitch": 60, "duration": 434, "velocity": 90}, {"time": 147840, "pitch": 41, "duration": 216, "velocity": 98}, {"time": 147848, "pitch": 48, "duration": 192, "velocity": 101}, {"time": 147858, "pitch": 53, "duration": 202, "velocity": 104}, {"time": 147865, "pitch": 57, "duration": 205, "velocity": 90}, {"time": 147865, "pitch": 60, "duration": 205, "velocity": 90}, {"time": 148073, "pitch": 41, "duration": 14, "velocity": 70}, {"time": 148078, "pitch": 48, "duration": 16, "velocity": 69}, {"time": 148084, "pitch": 53, "duration": 12, "velocity": 85}, {"time": 148092, "pitch": 57, "duration": 6, "velocity": 72}, {"time": 148200, "pitch": 53, "duration": 12, "velocity": 54}, {"time": 148206, "pitch": 48, "duration": 12, "velocity": 67}, {"time": 148320, "pitch": 45, "duration": 230, "velocity": 99}, {"time": 148328, "pitch": 50, "duration": 207, "velocity": 92}, {"time": 148337, "pitch": 57, "duration": 228, "velocity": 95}, {"time": 148353, "pitch": 60, "duration": 217, "velocity": 100}, {"time": 148359, "pitch": 65, "duration": 206, "velocity": 95}, {"time": 148560, "pitch": 45, "duration": 230, "velocity": 89}, {"time": 148567, "pitch": 57, "duration": 230, "velocity": 85}, {"time": 148568, "pitch": 50, "duration": 230, "velocity": 82}, {"time": 148578, "pitch": 60, "duration": 230, "velocity": 90}, {"time": 148584, "pitch": 65, "duration": 230, "velocity": 85}, {"time": 148800, "pitch": 45, "duration": 223, "velocity": 100}, {"time": 148805, "pitch": 50, "duration": 222, "velocity": 93}, {"time": 148815, "pitch": 57, "duration": 220, "velocity": 101}, {"time": 148822, "pitch": 60, "duration": 219, "velocity": 93}, {"time": 148828, "pitch": 65, "duration": 219, "velocity": 91}, {"time": 149036, "pitch": 45, "duration": 11, "velocity": 72}, {"time": 149041, "pitch": 50, "duration": 12, "velocity": 71}, {"time": 149047, "pitch": 57, "duration": 11, "velocity": 69}, {"time": 149051, "pitch": 60, "duration": 13, "velocity": 77}, {"time": 149054, "pitch": 65, "duration": 6, "velocity": 81}, {"time": 149168, "pitch": 65, "duration": 117, "velocity": 95}, {"time": 149171, "pitch": 60, "duration": 113, "velocity": 96}, {"time": 149178, "pitch": 57, "duration": 102, "velocity": 86}, {"time": 149184, "pitch": 50, "duration": 91, "velocity": 68}, {"time": 149186, "pitch": 45, "duration": 83, "velocity": 51}, {"time": 149280, "pitch": 43, "duration": 230, "velocity": 99}, {"time": 149288, "pitch": 50, "duration": 207, "velocity": 92}, {"time": 149297, "pitch": 53, "duration": 228, "velocity": 95}, {"time": 149313, "pitch": 55, "duration": 217, "velocity": 100}, {"time": 149319, "pitch": 59, "duration": 206, "velocity": 95}, {"time": 149319, "pitch": 62, "duration": 206, "velocity": 95}, {"time": 149520, "pitch": 43, "duration": 230, "velocity": 89}, {"time": 149527, "pitch": 53, "duration": 230, "velocity": 85}, {"time": 149528, "pitch": 50, "duration": 230, "velocity": 82}, {"time": 149538, "pitch": 55, "duration": 230, "velocity": 90}, {"time": 149544, "pitch": 59, "duration": 230, "velocity": 85}, {"time": 149544, "pitch": 62, "duration": 230, "velocity": 85}, {"time": 149760, "pitch": 43, "duration": 223, "velocity": 100}, {"time": 149765, "pitch": 50, "duration": 222, "velocity": 93}, {"time": 149775, "pitch": 53, "duration": 220, "velocity": 101}, {"time": 149782, "pitch": 55, "duration": 219, "velocity": 93}, {"time": 149788, "pitch": 59, "duration": 219, "velocity": 91}, {"time": 149788, "pitch": 62, "duration": 219, "velocity": 91}, {"time": 149996, "pitch": 43, "duration": 11, "velocity": 72}, {"time": 150001, "pitch": 50, "duration": 12, "velocity": 71}, {"time": 150007, "pitch": 53, "duration": 11, "velocity": 69}, {"time": 150011, "pitch": 55, "duration": 13, "velocity": 77}, {"time": 150014, "pitch": 59, "duration": 6, "velocity": 81}, {"time": 150014, "pitch": 62, "duration": 6, "velocity": 81}, {"time": 150128, "pitch": 59, "duration": 117, "velocity": 95}, {"time": 150128, "pitch": 62, "duration": 117, "velocity": 95}, {"time": 150131, "pitch": 55, "duration": 113, "velocity": 96}, {"time": 150138, "pitch": 53, "duration": 102, "velocity": 86}, {"time": 150144, "pitch": 50, "duration": 91, "velocity": 68}, {"time": 150146, "pitch": 43, "duration": 83, "velocity": 51}, {"time": 150240, "pitch": 41, "duration": 385, "velocity": 101}, {"time": 150255, "pitch": 48, "duration": 340, "velocity": 102}, {"time": 150262, "pitch": 53, "duration": 339, "velocity": 93}, {"time": 150268, "pitch": 56, "duration": 324, "velocity": 91}, {"time": 150275, "pitch": 60, "duration": 321, "velocity": 89}, {"time": 150600, "pitch": 60, "duration": 120, "velocity": 81}, {"time": 150609, "pitch": 56, "duration": 112, "velocity": 95}, {"time": 150612, "pitch": 53, "duration": 104, "velocity": 96}, {"time": 150619, "pitch": 48, "duration": 96, "velocity": 85}, {"time": 150627, "pitch": 41, "duration": 80, "velocity": 47}, {"time": 150715, "pitch": 41, "duration": 238, "velocity": 70}, {"time": 150726, "pitch": 48, "duration": 223, "velocity": 67}, {"time": 150730, "pitch": 53, "duration": 232, "velocity": 75}, {"time": 150733, "pitch": 56, "duration": 239, "velocity": 80}, {"time": 150742, "pitch": 60, "duration": 238, "velocity": 79}, {"time": 150961, "pitch": 41, "duration": 371, "velocity": 89}, {"time": 150967, "pitch": 48, "duration": 369, "velocity": 90}, {"time": 150974, "pitch": 53, "duration": 344, "velocity": 101}, {"time": 150982, "pitch": 56, "duration": 325, "velocity": 93}, {"time": 150990, "pitch": 60, "duration": 312, "velocity": 85}, {"time": 151320, "pitch": 60, "duration": 135, "velocity": 81}, {"time": 151329, "pitch": 56, "duration": 119, "velocity": 95}, {"time": 151332, "pitch": 53, "duration": 111, "velocity": 96}, {"time": 151339, "pitch": 48, "duration": 96, "velocity": 85}, {"time": 151347, "pitch": 41, "duration": 83, "velocity": 47}, {"time": 151441, "pitch": 41, "duration": 225, "velocity": 81}, {"time": 151445, "pitch": 48, "duration": 226, "velocity": 85}, {"time": 151449, "pitch": 53, "duration": 231, "velocity": 93}, {"time": 151455, "pitch": 56, "duration": 230, "velocity": 91}, {"time": 151464, "pitch": 60, "duration": 230, "velocity": 86}, {"time": 151676, "pitch": 41, "duration": 143, "velocity": 74}, {"time": 151684, "pitch": 48, "duration": 126, "velocity": 106}, {"time": 151693, "pitch": 53, "duration": 120, "velocity": 97}, {"time": 151700, "pitch": 56, "duration": 111, "velocity": 95}, {"time": 151707, "pitch": 60, "duration": 91, "velocity": 93}, {"time": 151809, "pitch": 60, "duration": 124, "velocity": 79}, {"time": 151816, "pitch": 56, "duration": 110, "velocity": 83}, {"time": 151821, "pitch": 53, "duration": 103, "velocity": 83}, {"time": 151830, "pitch": 48, "duration": 96, "velocity": 79}, {"time": 151838, "pitch": 41, "duration": 75, "velocity": 58}, {"time": 151916, "pitch": 41, "duration": 148, "velocity": 74}, {"time": 151929, "pitch": 53, "duration": 129, "velocity": 97}, {"time": 151930, "pitch": 48, "duration": 126, "velocity": 106}, {"time": 151936, "pitch": 56, "duration": 116, "velocity": 95}, {"time": 151947, "pitch": 60, "duration": 101, "velocity": 93}, {"time": 152053, "pitch": 60, "duration": 130, "velocity": 74}, {"time": 152057, "pitch": 56, "duration": 120, "velocity": 79}, {"time": 152062, "pitch": 53, "duration": 108, "velocity": 78}, {"time": 152068, "pitch": 48, "duration": 92, "velocity": 73}, {"time": 152081, "pitch": 41, "duration": 67, "velocity": 58}, {"time": 152160, "pitch": 48, "duration": 372, "velocity": 101}, {"time": 152165, "pitch": 52, "duration": 373, "velocity": 93}, {"time": 152175, "pitch": 55, "duration": 351, "velocity": 102}, {"time": 152182, "pitch": 60, "duration": 1, "velocity": 93}, {"time": 152188, "pitch": 64, "duration": 318, "velocity": 91}, {"time": 152528, "pitch": 64, "duration": 355, "velocity": 95}, {"time": 152531, "pitch": 60, "duration": 345, "velocity": 96}, {"time": 152538, "pitch": 55, "duration": 340, "velocity": 85}, {"time": 152544, "pitch": 52, "duration": 329, "velocity": 66}, {"time": 152546, "pitch": 48, "duration": 327, "velocity": 47}, {"time": 152882, "pitch": 48, "duration": 372, "velocity": 102}, {"time": 152888, "pitch": 52, "duration": 359, "velocity": 101}, {"time": 152892, "pitch": 55, "duration": 346, "velocity": 99}, {"time": 152897, "pitch": 60, "duration": 351, "velocity": 101}, {"time": 152906, "pitch": 64, "duration": 319, "velocity": 100}, {"time": 153248, "pitch": 64, "duration": 133, "velocity": 95}, {"time": 153251, "pitch": 60, "duration": 121, "velocity": 96}, {"time": 153258, "pitch": 55, "duration": 100, "velocity": 85}, {"time": 153264, "pitch": 52, "duration": 89, "velocity": 66}, {"time": 153266, "pitch": 48, "duration": 87, "velocity": 47}, {"time": 153361, "pitch": 48, "duration": 199, "velocity": 91}, {"time": 153369, "pitch": 52, "duration": 215, "velocity": 66}, {"time": 153372, "pitch": 55, "duration": 226, "velocity": 85}, {"time": 153379, "pitch": 60, "duration": 225, "velocity": 93}, {"time": 153386, "pitch": 64, "duration": 222, "velocity": 91}, {"time": 153600, "pitch": 48, "duration": 230, "velocity": 104}, {"time": 153603, "pitch": 52, "duration": 225, "velocity": 108}, {"time": 153606, "pitch": 55, "duration": 225, "velocity": 107}, {"time": 153612, "pitch": 60, "duration": 225, "velocity": 90}, {"time": 153612, "pitch": 64, "duration": 225, "velocity": 90}, {"time": 153833, "pitch": 48, "duration": 14, "velocity": 77}, {"time": 153838, "pitch": 52, "duration": 16, "velocity": 75}, {"time": 153844, "pitch": 55, "duration": 12, "velocity": 93}, {"time": 153852, "pitch": 60, "duration": 6, "velocity": 79}, {"time": 153852, "pitch": 64, "duration": 6, "velocity": 79}, {"time": 153960, "pitch": 55, "duration": 12, "velocity": 59}, {"time": 153966, "pitch": 52, "duration": 12, "velocity": 73}, {"time": 154082, "pitch": 48, "duration": 1880, "velocity": 95}, {"time": 154085, "pitch": 53, "duration": 1875, "velocity": 95}, {"time": 154090, "pitch": 60, "duration": 1890, "velocity": 86}, {"time": 154095, "pitch": 65, "duration": 1885, "velocity": 95}, {"time": 154100, "pitch": 68, "duration": 1900, "velocity": 95}, {"time": 154105, "pitch": 72, "duration": 1895, "velocity": 95}, {"time": 156002, "pitch": 48, "duration": 1880, "velocity": 95}, {"time": 156005, "pitch": 55, "duration": 1875, "velocity": 95}, {"time": 156010, "pitch": 60, "duration": 1890, "velocity": 86}, {"time": 156015, "pitch": 64, "duration": 1885, "velocity": 95}, {"time": 156020, "pitch": 67, "duration": 1900, "velocity": 95}, {"time": 157922, "pitch": 48, "duration": 1880, "velocity": 95}, {"time": 157925, "pitch": 53, "duration": 1875, "velocity": 95}, {"time": 157930, "pitch": 60, "duration": 1890, "velocity": 86}, {"time": 157935, "pitch": 65, "duration": 1885, "velocity": 95}, {"time": 157940, "pitch": 68, "duration": 1900, "velocity": 95}, {"time": 157945, "pitch": 72, "duration": 1895, "velocity": 95}, {"time": 159840, "pitch": 48, "duration": 1875, "velocity": 101}, {"time": 160200, "pitch": 55, "duration": 1489, "velocity": 101}, {"time": 160530, "pitch": 60, "duration": 1173, "velocity": 73}, {"time": 160557, "pitch": 64, "duration": 1127, "velocity": 83}, {"time": 160581, "pitch": 67, "duration": 1106, "velocity": 95}], "annotations": [{"time": 336, "annotation": {"number": 7, "value": 70}, "group": "control_change"}, {"time": 360, "annotation": {"number": 11, "value": 127}, "group": "control_change"}, {"time": 384, "annotation": {"number": 10, "value": 24}, "group": "control_change"}, {"time": 408, "annotation": {"number": 91, "value": 60}, "group": "control_change"}, {"time": 432, "annotation": {"number": 93, "value": 0}, "group": "control_change"}, {"time": 456, "annotation": {"number": 101, "value": 0}, "group": "control_change"}, {"time": 480, "annotation": {"number": 100, "value": 0}, "group": "control_change"}, {"time": 480, "annotation": {"number": 6, "value": 12}, "group": "control_change"}, {"time": 480, "annotation": {"number": 101, "value": 127}, "group": "control_change"}, {"time": 480, "annotation": {"number": 100, "value": 127}, "group": "control_change"}]}, {"program": 0, "is_drum": false, "name": "Steel Gt-C", "annotations": [{"time": 264, "annotation": {"number": 0, "value": 9}, "group": "control_change"}, {"time": 288, "annotation": {"number": 32, "value": 2}, "group": "control_change"}]}, {"program": 25, "is_drum": false, "name": "Steel Gt-C", "notes": [{"time": 480, "pitch": 67, "duration": 398, "velocity": 120}, {"time": 953, "pitch": 72, "duration": 363, "velocity": 116}, {"time": 1433, "pitch": 71, "duration": 240, "velocity": 104}, {"time": 1695, "pitch": 72, "duration": 128, "velocity": 113}, {"time": 1940, "pitch": 74, "duration": 353, "velocity": 127}, {"time": 2396, "pitch": 76, "duration": 727, "velocity": 108}, {"time": 3353, "pitch": 76, "duration": 345, "velocity": 110}, {"time": 3870, "pitch": 74, "duration": 298, "velocity": 110}, {"time": 4321, "pitch": 67, "duration": 493, "velocity": 104}, {"time": 4801, "pitch": 72, "duration": 469, "velocity": 113}, {"time": 5284, "pitch": 71, "duration": 245, "velocity": 100}, {"time": 5532, "pitch": 72, "duration": 128, "velocity": 108}, {"time": 5794, "pitch": 74, "duration": 415, "velocity": 95}, {"time": 6226, "pitch": 72, "duration": 1845, "velocity": 122}, {"time": 14414, "pitch": 62, "duration": 226, "velocity": 114}, {"time": 14650, "pitch": 60, "duration": 89, "velocity": 109}, {"time": 14904, "pitch": 64, "duration": 234, "velocity": 114}, {"time": 15128, "pitch": 67, "duration": 74, "velocity": 114}, {"time": 15379, "pitch": 69, "duration": 227, "velocity": 114}, {"time": 15610, "pitch": 67, "duration": 250, "velocity": 114}, {"time": 22080, "pitch": 67, "duration": 235, "velocity": 102}, {"time": 22320, "pitch": 74, "duration": 120, "velocity": 90}, {"time": 22440, "pitch": 69, "duration": 235, "velocity": 102}, {"time": 22680, "pitch": 72, "duration": 840, "velocity": 98}, {"time": 25680, "pitch": 48, "duration": 55, "velocity": 78}, {"time": 25800, "pitch": 48, "duration": 75, "velocity": 94}, {"time": 25920, "pitch": 50, "duration": 245, "velocity": 94}, {"time": 26144, "pitch": 55, "duration": 251, "velocity": 98}, {"time": 26392, "pitch": 57, "duration": 252, "velocity": 90}, {"time": 26634, "pitch": 55, "duration": 238, "velocity": 81}, {"time": 26888, "pitch": 50, "duration": 242, "velocity": 75}, {"time": 27131, "pitch": 48, "duration": 273, "velocity": 94}, {"time": 29521, "pitch": 55, "duration": 296, "velocity": 78}, {"time": 29760, "pitch": 60, "duration": 232, "velocity": 78}, {"time": 29880, "pitch": 65, "duration": 239, "velocity": 83}, {"time": 30120, "pitch": 72, "duration": 157, "velocity": 78}, {"time": 30240, "pitch": 67, "duration": 124, "velocity": 87}, {"time": 30360, "pitch": 64, "duration": 238, "velocity": 81}, {"time": 30600, "pitch": 55, "duration": 238, "velocity": 83}, {"time": 30840, "pitch": 52, "duration": 370, "velocity": 71}, {"time": 30840, "pitch": 55, "duration": 360, "velocity": 54}, {"time": 33360, "pitch": 67, "duration": 348, "velocity": 85}, {"time": 33480, "pitch": 76, "duration": 240, "velocity": 67}, {"time": 33840, "pitch": 74, "duration": 238, "velocity": 75}, {"time": 34080, "pitch": 64, "duration": 152, "velocity": 69}, {"time": 34200, "pitch": 72, "duration": 238, "velocity": 82}, {"time": 34442, "pitch": 64, "duration": 440, "velocity": 82}, {"time": 40798, "pitch": 74, "duration": 238, "velocity": 114}, {"time": 40798, "pitch": 79, "duration": 238, "velocity": 127}, {"time": 41040, "pitch": 72, "duration": 120, "velocity": 99}, {"time": 41040, "pitch": 77, "duration": 120, "velocity": 124}, {"time": 41160, "pitch": 72, "duration": 236, "velocity": 106}, {"time": 41160, "pitch": 77, "duration": 236, "velocity": 127}, {"time": 41400, "pitch": 71, "duration": 120, "velocity": 99}, {"time": 41400, "pitch": 76, "duration": 120, "velocity": 124}, {"time": 41520, "pitch": 71, "duration": 238, "velocity": 99}, {"time": 41520, "pitch": 76, "duration": 238, "velocity": 124}, {"time": 41760, "pitch": 69, "duration": 120, "velocity": 106}, {"time": 41760, "pitch": 74, "duration": 120, "velocity": 127}, {"time": 41880, "pitch": 69, "duration": 238, "velocity": 102}, {"time": 41880, "pitch": 74, "duration": 238, "velocity": 127}, {"time": 42120, "pitch": 67, "duration": 120, "velocity": 94}, {"time": 42120, "pitch": 72, "duration": 120, "velocity": 118}, {"time": 42240, "pitch": 67, "duration": 238, "velocity": 91}, {"time": 42240, "pitch": 72, "duration": 238, "velocity": 114}, {"time": 42480, "pitch": 69, "duration": 238, "velocity": 106}, {"time": 42480, "pitch": 74, "duration": 238, "velocity": 127}, {"time": 62400, "pitch": 77, "duration": 238, "velocity": 127}, {"time": 62640, "pitch": 79, "duration": 120, "velocity": 127}, {"time": 62760, "pitch": 79, "duration": 600, "velocity": 124}, {"time": 63360, "pitch": 77, "duration": 354, "velocity": 127}, {"time": 63720, "pitch": 76, "duration": 1026, "velocity": 127}, {"time": 65520, "pitch": 74, "duration": 238, "velocity": 127}, {"time": 65762, "pitch": 74, "duration": 720, "velocity": 119}, {"time": 66480, "pitch": 74, "duration": 2, "velocity": 118}, {"time": 66720, "pitch": 79, "duration": 480, "velocity": 124}, {"time": 67200, "pitch": 77, "duration": 480, "velocity": 127}, {"time": 67680, "pitch": 76, "duration": 990, "velocity": 127}, {"time": 75854, "pitch": 62, "duration": 226, "velocity": 102}, {"time": 76090, "pitch": 60, "duration": 89, "velocity": 98}, {"time": 76344, "pitch": 64, "duration": 234, "velocity": 102}, {"time": 76568, "pitch": 67, "duration": 74, "velocity": 102}, {"time": 76819, "pitch": 69, "duration": 227, "velocity": 102}, {"time": 77050, "pitch": 67, "duration": 250, "velocity": 102}, {"time": 83520, "pitch": 67, "duration": 235, "velocity": 102}, {"time": 83760, "pitch": 74, "duration": 120, "velocity": 90}, {"time": 83880, "pitch": 69, "duration": 235, "velocity": 102}, {"time": 84120, "pitch": 72, "duration": 840, "velocity": 98}, {"time": 87120, "pitch": 55, "duration": 240, "velocity": 83}, {"time": 87360, "pitch": 60, "duration": 120, "velocity": 102}, {"time": 87480, "pitch": 62, "duration": 238, "velocity": 81}, {"time": 87720, "pitch": 67, "duration": 120, "velocity": 94}, {"time": 87840, "pitch": 64, "duration": 236, "velocity": 87}, {"time": 88080, "pitch": 60, "duration": 110, "velocity": 102}, {"time": 88320, "pitch": 60, "duration": 236, "velocity": 101}, {"time": 88560, "pitch": 60, "duration": 326, "velocity": 98}, {"time": 90960, "pitch": 67, "duration": 122, "velocity": 83}, {"time": 91080, "pitch": 74, "duration": 124, "velocity": 94}, {"time": 91320, "pitch": 72, "duration": 120, "velocity": 94}, {"time": 91560, "pitch": 67, "duration": 134, "velocity": 64}, {"time": 91560, "pitch": 76, "duration": 134, "velocity": 102}, {"time": 91800, "pitch": 67, "duration": 123, "velocity": 62}, {"time": 91800, "pitch": 76, "duration": 123, "velocity": 98}, {"time": 91920, "pitch": 65, "duration": 136, "velocity": 62}, {"time": 91920, "pitch": 74, "duration": 136, "velocity": 98}, {"time": 92160, "pitch": 64, "duration": 510, "velocity": 64}, {"time": 92160, "pitch": 72, "duration": 510, "velocity": 102}, {"time": 94800, "pitch": 77, "duration": 118, "velocity": 102}, {"time": 94920, "pitch": 77, "duration": 118, "velocity": 106}, {"time": 95160, "pitch": 76, "duration": 46, "velocity": 81}, {"time": 95280, "pitch": 77, "duration": 50, "velocity": 83}, {"time": 95400, "pitch": 74, "duration": 77, "velocity": 74}, {"time": 95520, "pitch": 76, "duration": 66, "velocity": 102}, {"time": 95640, "pitch": 72, "duration": 78, "velocity": 102}, {"time": 95760, "pitch": 67, "duration": 58, "velocity": 91}, {"time": 95880, "pitch": 65, "duration": 74, "velocity": 110}, {"time": 96000, "pitch": 64, "duration": 544, "velocity": 110}, {"time": 120000, "pitch": 68, "duration": 485, "velocity": 101}, {"time": 120000, "pitch": 73, "duration": 485, "velocity": 127}, {"time": 120480, "pitch": 65, "duration": 475, "velocity": 101}, {"time": 120480, "pitch": 68, "duration": 5, "velocity": 127}, {"time": 120960, "pitch": 61, "duration": 505, "velocity": 101}, {"time": 120960, "pitch": 65, "duration": 505, "velocity": 127}, {"time": 121917, "pitch": 70, "duration": 481, "velocity": 77}, {"time": 121917, "pitch": 75, "duration": 481, "velocity": 97}, {"time": 122400, "pitch": 67, "duration": 465, "velocity": 90}, {"time": 122405, "pitch": 70, "duration": 488, "velocity": 113}, {"time": 122872, "pitch": 63, "duration": 543, "velocity": 101}, {"time": 122872, "pitch": 67, "duration": 543, "velocity": 127}, {"time": 123840, "pitch": 68, "duration": 485, "velocity": 101}, {"time": 123840, "pitch": 73, "duration": 485, "velocity": 127}, {"time": 124320, "pitch": 65, "duration": 475, "velocity": 101}, {"time": 124320, "pitch": 68, "duration": 5, "velocity": 127}, {"time": 124800, "pitch": 61, "duration": 480, "velocity": 101}, {"time": 124800, "pitch": 65, "duration": 480, "velocity": 127}, {"time": 125280, "pitch": 70, "duration": 481, "velocity": 77}, {"time": 125280, "pitch": 75, "duration": 481, "velocity": 97}, {"time": 125760, "pitch": 67, "duration": 465, "velocity": 90}, {"time": 125765, "pitch": 70, "duration": 488, "velocity": 113}, {"time": 126240, "pitch": 63, "duration": 480, "velocity": 101}, {"time": 126240, "pitch": 67, "duration": 480, "velocity": 127}, {"time": 126720, "pitch": 58, "duration": 465, "velocity": 90}, {"time": 126725, "pitch": 63, "duration": 488, "velocity": 113}, {"time": 127680, "pitch": 68, "duration": 485, "velocity": 101}, {"time": 127680, "pitch": 73, "duration": 485, "velocity": 127}, {"time": 128160, "pitch": 65, "duration": 475, "velocity": 101}, {"time": 128160, "pitch": 68, "duration": 5, "velocity": 127}, {"time": 128640, "pitch": 61, "duration": 505, "velocity": 101}, {"time": 128640, "pitch": 65, "duration": 505, "velocity": 127}, {"time": 129597, "pitch": 70, "duration": 481, "velocity": 77}, {"time": 129597, "pitch": 75, "duration": 481, "velocity": 97}, {"time": 130080, "pitch": 67, "duration": 465, "velocity": 90}, {"time": 130085, "pitch": 70, "duration": 488, "velocity": 113}, {"time": 130552, "pitch": 63, "duration": 543, "velocity": 101}, {"time": 130552, "pitch": 67, "duration": 543, "velocity": 127}, {"time": 131520, "pitch": 65, "duration": 3395, "velocity": 87}, {"time": 131520, "pitch": 69, "duration": 3395, "velocity": 87}, {"time": 132000, "pitch": 72, "duration": 2887, "velocity": 110}, {"time": 132480, "pitch": 77, "duration": 2432, "velocity": 117}, {"time": 132960, "pitch": 81, "duration": 1938, "velocity": 127}, {"time": 154560, "pitch": 77, "duration": 238, "velocity": 127}, {"time": 154800, "pitch": 79, "duration": 120, "velocity": 127}, {"time": 154920, "pitch": 79, "duration": 600, "velocity": 124}, {"time": 155520, "pitch": 77, "duration": 354, "velocity": 127}, {"time": 155880, "pitch": 76, "duration": 1026, "velocity": 127}, {"time": 157680, "pitch": 74, "duration": 238, "velocity": 127}, {"time": 157922, "pitch": 74, "duration": 720, "velocity": 119}, {"time": 158640, "pitch": 74, "duration": 2, "velocity": 118}, {"time": 158880, "pitch": 79, "duration": 480, "velocity": 124}, {"time": 159360, "pitch": 77, "duration": 480, "velocity": 127}, {"time": 159840, "pitch": 76, "duration": 2043, "velocity": 109}, {"time": 160200, "pitch": 72, "duration": 1664, "velocity": 114}, {"time": 160560, "pitch": 67, "duration": 1309, "velocity": 101}], "annotations": [{"time": 336, "annotation": {"number": 7, "value": 127}, "group": "control_change"}, {"time": 360, "annotation": {"number": 11, "value": 91}, "group": "control_change"}, {"time": 384, "annotation": {"number": 10, "value": 64}, "group": "control_change"}, {"time": 408, "annotation": {"number": 91, "value": 60}, "group": "control_change"}, {"time": 432, "annotation": {"number": 93, "value": 0}, "group": "control_change"}, {"time": 456, "annotation": {"number": 101, "value": 0}, "group": "control_change"}, {"time": 480, "annotation": {"number": 100, "value": 0}, "group": "control_change"}, {"time": 480, "annotation": {"number": 6, "value": 12}, "group": "control_change"}, {"time": 480, "annotation": {"number": 101, "value": 127}, "group": "control_change"}, {"time": 480, "annotation": {"number": 100, "value": 127}, "group": "control_change"}, {"time": 15745, "annotation": {"number": 11, "value": 127}, "group": "control_change"}, {"time": 15760, "annotation": {"number": 11, "value": 124}, "group": "control_change"}, {"time": 15775, "annotation": {"number": 11, "value": 119}, "group": "control_change"}, {"time": 15790, "annotation": {"number": 11, "value": 115}, "group": "control_change"}, {"time": 15805, "annotation": {"number": 11, "value": 109}, "group": "control_change"}, {"time": 15820, "annotation": {"number": 11, "value": 103}, "group": "control_change"}, {"time": 15835, "annotation": {"number": 11, "value": 96}, "group": "control_change"}, {"time": 15850, "annotation": {"number": 11, "value": 88}, "group": "control_change"}, {"time": 15851, "annotation": {"number": 11, "value": 87}, "group": "control_change"}, {"time": 16320, "annotation": {"number": 11, "value": 127}, "group": "control_change"}, {"time": 77185, "annotation": {"number": 11, "value": 127}, "group": "control_change"}, {"time": 77200, "annotation": {"number": 11, "value": 124}, "group": "control_change"}, {"time": 77215, "annotation": {"number": 11, "value": 119}, "group": "control_change"}, {"time": 77230, "annotation": {"number": 11, "value": 115}, "group": "control_change"}, {"time": 77245, "annotation": {"number": 11, "value": 109}, "group": "control_change"}, {"time": 77260, "annotation": {"number": 11, "value": 103}, "group": "control_change"}, {"time": 77275, "annotation": {"number": 11, "value": 96}, "group": "control_change"}, {"time": 77290, "annotation": {"number": 11, "value": 88}, "group": "control_change"}, {"time": 77291, "annotation": {"number": 11, "value": 87}, "group": "control_change"}, {"time": 77760, "annotation": {"number": 11, "value": 127}, "group": "control_change"}, {"time": 88772, "annotation": {"number": 11, "value": 127}, "group": "control_change"}, {"time": 88777, "annotation": {"number": 11, "value": 127}, "group": "control_change"}, {"time": 88782, "annotation": {"number": 11, "value": 127}, "group": "control_change"}, {"time": 88787, "annotation": {"number": 11, "value": 127}, "group": "control_change"}, {"time": 88792, "annotation": {"number": 11, "value": 127}, "group": "control_change"}, {"time": 88797, "annotation": {"number": 11, "value": 127}, "group": "control_change"}, {"time": 88802, "annotation": {"number": 11, "value": 127}, "group": "control_change"}, {"time": 88807, "annotation": {"number": 11, "value": 127}, "group": "control_change"}, {"time": 88812, "annotation": {"number": 11, "value": 127}, "group": "control_change"}, {"time": 88817, "annotation": {"number": 11, "value": 127}, "group": "control_change"}, {"time": 88822, "annotation": {"number": 11, "value": 127}, "group": "control_change"}, {"time": 88827, "annotation": {"number": 11, "value": 127}, "group": "control_change"}, {"time": 88832, "annotation": {"number": 11, "value": 127}, "group": "control_change"}, {"time": 88837, "annotation": {"number": 11, "value": 126}, "group": "control_change"}, {"time": 88842, "annotation": {"number": 11, "value": 123}, "group": "control_change"}, {"time": 88847, "annotation": {"number": 11, "value": 120}, "group": "control_change"}, {"time": 88852, "annotation": {"number": 11, "value": 117}, "group": "control_change"}, {"time": 88857, "annotation": {"number": 11, "value": 114}, "group": "control_change"}, {"time": 88862, "annotation": {"number": 11, "value": 110}, "group": "control_change"}, {"time": 88867, "annotation": {"number": 11, "value": 107}, "group": "control_change"}, {"time": 88872, "annotation": {"number": 11, "value": 103}, "group": "control_change"}, {"time": 88877, "annotation": {"number": 11, "value": 100}, "group": "control_change"}, {"time": 88882, "annotation": {"number": 11, "value": 96}, "group": "control_change"}, {"time": 88887, "annotation": {"number": 11, "value": 92}, "group": "control_change"}, {"time": 88920, "annotation": {"number": 11, "value": 127}, "group": "control_change"}, {"time": 92540, "annotation": {"number": 11, "value": 127}, "group": "control_change"}, {"time": 92545, "annotation": {"number": 11, "value": 127}, "group": "control_change"}, {"time": 92550, "annotation": {"number": 11, "value": 127}, "group": "control_change"}, {"time": 92555, "annotation": {"number": 11, "value": 127}, "group": "control_change"}, {"time": 92560, "annotation": {"number": 11, "value": 127}, "group": "control_change"}, {"time": 92565, "annotation": {"number": 11, "value": 127}, "group": "control_change"}, {"time": 92570, "annotation": {"number": 11, "value": 127}, "group": "control_change"}, {"time": 92575, "annotation": {"number": 11, "value": 127}, "group": "control_change"}, {"time": 92580, "annotation": {"number": 11, "value": 127}, "group": "control_change"}, {"time": 92585, "annotation": {"number": 11, "value": 127}, "group": "control_change"}, {"time": 92590, "annotation": {"number": 11, "value": 127}, "group": "control_change"}, {"time": 92595, "annotation": {"number": 11, "value": 127}, "group": "control_change"}, {"time": 92600, "annotation": {"number": 11, "value": 127}, "group": "control_change"}, {"time": 92605, "annotation": {"number": 11, "value": 127}, "group": "control_change"}, {"time": 92610, "annotation": {"number": 11, "value": 126}, "group": "control_change"}, {"time": 92615, "annotation": {"number": 11, "value": 123}, "group": "control_change"}, {"time": 92620, "annotation": {"number": 11, "value": 121}, "group": "control_change"}, {"time": 92625, "annotation": {"number": 11, "value": 118}, "group": "control_change"}, {"time": 92630, "annotation": {"number": 11, "value": 115}, "group": "control_change"}, {"time": 92635, "annotation": {"number": 11, "value": 112}, "group": "control_change"}, {"time": 92640, "annotation": {"number": 11, "value": 109}, "group": "control_change"}, {"time": 92645, "annotation": {"number": 11, "value": 106}, "group": "control_change"}, {"time": 92650, "annotation": {"number": 11, "value": 102}, "group": "control_change"}, {"time": 92655, "annotation": {"number": 11, "value": 99}, "group": "control_change"}, {"time": 92660, "annotation": {"number": 11, "value": 95}, "group": "control_change"}, {"time": 92665, "annotation": {"number": 11, "value": 91}, "group": "control_change"}, {"time": 92760, "annotation": {"number": 11, "value": 127}, "group": "control_change"}, {"time": 96390, "annotation": {"number": 11, "value": 127}, "group": "control_change"}, {"time": 96395, "annotation": {"number": 11, "value": 127}, "group": "control_change"}, {"time": 96400, "annotation": {"number": 11, "value": 127}, "group": "control_change"}, {"time": 96405, "annotation": {"number": 11, "value": 127}, "group": "control_change"}, {"time": 96410, "annotation": {"number": 11, "value": 127}, "group": "control_change"}, {"time": 96415, "annotation": {"number": 11, "value": 127}, "group": "control_change"}, {"time": 96420, "annotation": {"number": 11, "value": 127}, "group": "control_change"}, {"time": 96425, "annotation": {"number": 11, "value": 127}, "group": "control_change"}, {"time": 96430, "annotation": {"number": 11, "value": 127}, "group": "control_change"}, {"time": 96435, "annotation": {"number": 11, "value": 127}, "group": "control_change"}, {"time": 96440, "annotation": {"number": 11, "value": 127}, "group": "control_change"}, {"time": 96445, "annotation": {"number": 11, "value": 127}, "group": "control_change"}, {"time": 96450, "annotation": {"number": 11, "value": 127}, "group": "control_change"}, {"time": 96455, "annotation": {"number": 11, "value": 127}, "group": "control_change"}, {"time": 96460, "annotation": {"number": 11, "value": 127}, "group": "control_change"}, {"time": 96465, "annotation": {"number": 11, "value": 127}, "group": "control_change"}, {"time": 96470, "annotation": {"number": 11, "value": 127}, "group": "control_change"}, {"time": 96475, "annotation": {"number": 11, "value": 125}, "group": "control_change"}, {"time": 96480, "annotation": {"number": 11, "value": 123}, "group": "control_change"}, {"time": 96485, "annotation": {"number": 11, "value": 121}, "group": "control_change"}, {"time": 96490, "annotation": {"number": 11, "value": 119}, "group": "control_change"}, {"time": 96495, "annotation": {"number": 11, "value": 116}, "group": "control_change"}, {"time": 96500, "annotation": {"number": 11, "value": 114}, "group": "control_change"}, {"time": 96505, "annotation": {"number": 11, "value": 111}, "group": "control_change"}, {"time": 96510, "annotation": {"number": 11, "value": 109}, "group": "control_change"}, {"time": 96515, "annotation": {"number": 11, "value": 106}, "group": "control_change"}, {"time": 96520, "annotation": {"number": 11, "value": 103}, "group": "control_change"}, {"time": 96525, "annotation": {"number": 11, "value": 101}, "group": "control_change"}, {"time": 96530, "annotation": {"number": 11, "value": 98}, "group": "control_change"}, {"time": 96535, "annotation": {"number": 11, "value": 95}, "group": "control_change"}, {"time": 96540, "annotation": {"number": 11, "value": 91}, "group": "control_change"}, {"time": 96545, "annotation": {"number": 11, "value": 88}, "group": "control_change"}, {"time": 96600, "annotation": {"number": 11, "value": 127}, "group": "control_change"}]}, {"program": 0, "is_drum": false, "name": "Steel Gt-C-Sub", "annotations": [{"time": 264, "annotation": {"number": 0, "value": 9}, "group": "control_change"}, {"time": 288, "annotation": {"number": 32, "value": 2}, "group": "control_change"}]}, {"program": 25, "is_drum": false, "name": "Steel Gt-C-Sub", "notes": [{"time": 480, "pitch": 64, "duration": 398, "velocity": 102}, {"time": 953, "pitch": 67, "duration": 363, "velocity": 98}, {"time": 1433, "pitch": 67, "duration": 240, "velocity": 88}, {"time": 1695, "pitch": 69, "duration": 128, "velocity": 96}, {"time": 1940, "pitch": 71, "duration": 353, "velocity": 107}, {"time": 2396, "pitch": 72, "duration": 727, "velocity": 91}, {"time": 3353, "pitch": 72, "duration": 345, "velocity": 93}, {"time": 3870, "pitch": 71, "duration": 298, "velocity": 93}, {"time": 4326, "pitch": 60, "duration": 493, "velocity": 88}, {"time": 4801, "pitch": 64, "duration": 469, "velocity": 96}, {"time": 5284, "pitch": 62, "duration": 245, "velocity": 85}, {"time": 5532, "pitch": 64, "duration": 128, "velocity": 91}, {"time": 5794, "pitch": 65, "duration": 415, "velocity": 80}, {"time": 6226, "pitch": 64, "duration": 1845, "velocity": 103}, {"time": 33720, "pitch": 65, "duration": 352, "velocity": 59}], "annotations": [{"time": 336, "annotation": {"number": 7, "value": 127}, "group": "control_change"}, {"time": 360, "annotation": {"number": 11, "value": 127}, "group": "control_change"}, {"time": 384, "annotation": {"number": 10, "value": 64}, "group": "control_change"}, {"time": 408, "annotation": {"number": 91, "value": 60}, "group": "control_change"}, {"time": 432, "annotation": {"number": 93, "value": 0}, "group": "control_change"}, {"time": 456, "annotation": {"number": 101, "value": 0}, "group": "control_change"}, {"time": 480, "annotation": {"number": 100, "value": 0}, "group": "control_change"}, {"time": 480, "annotation": {"number": 6, "value": 12}, "group": "control_change"}, {"time": 480, "annotation": {"number": 101, "value": 127}, "group": "control_change"}, {"time": 480, "annotation": {"number": 100, "value": 127}, "group": "control_change"}]}, {"program": 0, "is_drum": true, "name": "Drum", "annotations": [{"time": 264, "annotation": {"number": 0, "value": 0}, "group": "control_change"}, {"time": 288, "annotation": {"number": 32, "value": 2}, "group": "control_change"}]}, {"program": 32, "is_drum": true, "name": "Drum", "notes": [{"time": 38410, "pitch": 49, "duration": 10, "velocity": 20}, {"time": 38430, "pitch": 49, "duration": 10, "velocity": 22}, {"time": 38460, "pitch": 49, "duration": 10, "velocity": 24}, {"time": 38490, "pitch": 49, "duration": 10, "velocity": 26}, {"time": 38520, "pitch": 49, "duration": 10, "velocity": 28}, {"time": 38550, "pitch": 49, "duration": 10, "velocity": 30}, {"time": 38580, "pitch": 49, "duration": 10, "velocity": 32}, {"time": 38610, "pitch": 49, "duration": 10, "velocity": 36}, {"time": 38640, "pitch": 49, "duration": 10, "velocity": 40}, {"time": 38670, "pitch": 49, "duration": 10, "velocity": 44}, {"time": 38700, "pitch": 49, "duration": 10, "velocity": 48}, {"time": 38730, "pitch": 49, "duration": 10, "velocity": 52}, {"time": 38760, "pitch": 49, "duration": 10, "velocity": 56}, {"time": 38790, "pitch": 49, "duration": 10, "velocity": 60}, {"time": 38820, "pitch": 49, "duration": 10, "velocity": 64}, {"time": 38850, "pitch": 49, "duration": 10, "velocity": 68}, {"time": 38880, "pitch": 49, "duration": 10, "velocity": 92}, {"time": 39360, "pitch": 44, "duration": 10, "velocity": 78}, {"time": 40320, "pitch": 44, "duration": 10, "velocity": 78}, {"time": 40800, "pitch": 44, "duration": 10, "velocity": 78}, {"time": 41280, "pitch": 44, "duration": 10, "velocity": 78}, {"time": 41750, "pitch": 44, "duration": 10, "velocity": 78}, {"time": 42000, "pitch": 36, "duration": 10, "velocity": 85}, {"time": 42000, "pitch": 46, "duration": 10, "velocity": 106}, {"time": 42110, "pitch": 38, "duration": 10, "velocity": 22}, {"time": 42150, "pitch": 38, "duration": 10, "velocity": 36}, {"time": 42190, "pitch": 38, "duration": 10, "velocity": 50}, {"time": 42230, "pitch": 38, "duration": 10, "velocity": 106}, {"time": 42240, "pitch": 44, "duration": 10, "velocity": 78}, {"time": 42350, "pitch": 38, "duration": 10, "velocity": 92}, {"time": 42470, "pitch": 45, "duration": 10, "velocity": 92}, {"time": 42480, "pitch": 44, "duration": 10, "velocity": 64}, {"time": 42620, "pitch": 38, "duration": 10, "velocity": 22}, {"time": 42670, "pitch": 38, "duration": 10, "velocity": 36}, {"time": 42720, "pitch": 36, "duration": 10, "velocity": 96}, {"time": 42720, "pitch": 44, "duration": 10, "velocity": 78}, {"time": 42720, "pitch": 49, "duration": 10, "velocity": 110}, {"time": 42960, "pitch": 42, "duration": 10, "velocity": 78}, {"time": 43080, "pitch": 42, "duration": 10, "velocity": 22}, {"time": 43200, "pitch": 38, "duration": 10, "velocity": 127}, {"time": 43200, "pitch": 42, "duration": 10, "velocity": 106}, {"time": 43440, "pitch": 42, "duration": 10, "velocity": 64}, {"time": 43560, "pitch": 36, "duration": 10, "velocity": 51}, {"time": 43680, "pitch": 36, "duration": 10, "velocity": 90}, {"time": 43680, "pitch": 42, "duration": 10, "velocity": 113}, {"time": 43800, "pitch": 38, "duration": 10, "velocity": 50}, {"time": 43920, "pitch": 42, "duration": 10, "velocity": 64}, {"time": 44040, "pitch": 42, "duration": 10, "velocity": 36}, {"time": 44160, "pitch": 38, "duration": 10, "velocity": 127}, {"time": 44160, "pitch": 42, "duration": 10, "velocity": 127}, {"time": 44400, "pitch": 42, "duration": 10, "velocity": 64}, {"time": 44520, "pitch": 36, "duration": 10, "velocity": 51}, {"time": 44540, "pitch": 38, "duration": 10, "velocity": 36}, {"time": 44590, "pitch": 38, "duration": 10, "velocity": 50}, {"time": 44640, "pitch": 36, "duration": 10, "velocity": 102}, {"time": 44640, "pitch": 42, "duration": 10, "velocity": 64}, {"time": 44760, "pitch": 38, "duration": 10, "velocity": 50}, {"time": 44880, "pitch": 42, "duration": 10, "velocity": 78}, {"time": 45000, "pitch": 42, "duration": 10, "velocity": 36}, {"time": 45120, "pitch": 38, "duration": 10, "velocity": 127}, {"time": 45120, "pitch": 42, "duration": 10, "velocity": 106}, {"time": 45240, "pitch": 36, "duration": 10, "velocity": 51}, {"time": 45360, "pitch": 36, "duration": 10, "velocity": 102}, {"time": 45360, "pitch": 42, "duration": 10, "velocity": 64}, {"time": 45480, "pitch": 42, "duration": 10, "velocity": 50}, {"time": 45540, "pitch": 42, "duration": 10, "velocity": 64}, {"time": 45600, "pitch": 36, "duration": 10, "velocity": 97}, {"time": 45600, "pitch": 42, "duration": 10, "velocity": 78}, {"time": 45720, "pitch": 42, "duration": 10, "velocity": 92}, {"time": 45840, "pitch": 42, "duration": 10, "velocity": 35}, {"time": 45960, "pitch": 42, "duration": 10, "velocity": 92}, {"time": 46080, "pitch": 38, "duration": 10, "velocity": 127}, {"time": 46080, "pitch": 42, "duration": 10, "velocity": 127}, {"time": 46200, "pitch": 42, "duration": 10, "velocity": 50}, {"time": 46320, "pitch": 36, "duration": 10, "velocity": 73}, {"time": 46320, "pitch": 46, "duration": 10, "velocity": 100}, {"time": 46560, "pitch": 36, "duration": 10, "velocity": 96}, {"time": 46560, "pitch": 42, "duration": 10, "velocity": 106}, {"time": 46680, "pitch": 38, "duration": 10, "velocity": 36}, {"time": 46800, "pitch": 42, "duration": 10, "velocity": 78}, {"time": 46920, "pitch": 42, "duration": 10, "velocity": 36}, {"time": 47040, "pitch": 38, "duration": 10, "velocity": 127}, {"time": 47040, "pitch": 42, "duration": 10, "velocity": 92}, {"time": 47160, "pitch": 42, "duration": 10, "velocity": 36}, {"time": 47280, "pitch": 42, "duration": 10, "velocity": 106}, {"time": 47400, "pitch": 36, "duration": 10, "velocity": 51}, {"time": 47400, "pitch": 42, "duration": 10, "velocity": 36}, {"time": 47520, "pitch": 36, "duration": 10, "velocity": 102}, {"time": 47520, "pitch": 42, "duration": 10, "velocity": 120}, {"time": 47760, "pitch": 42, "duration": 10, "velocity": 64}, {"time": 47880, "pitch": 42, "duration": 10, "velocity": 36}, {"time": 48000, "pitch": 38, "duration": 10, "velocity": 127}, {"time": 48000, "pitch": 42, "duration": 10, "velocity": 120}, {"time": 48240, "pitch": 42, "duration": 10, "velocity": 64}, {"time": 48360, "pitch": 36, "duration": 10, "velocity": 51}, {"time": 48360, "pitch": 42, "duration": 10, "velocity": 36}, {"time": 48480, "pitch": 36, "duration": 10, "velocity": 102}, {"time": 48480, "pitch": 42, "duration": 10, "velocity": 50}, {"time": 48600, "pitch": 42, "duration": 10, "velocity": 78}, {"time": 48720, "pitch": 38, "duration": 10, "velocity": 50}, {"time": 48760, "pitch": 38, "duration": 10, "velocity": 36}, {"time": 48800, "pitch": 38, "duration": 10, "velocity": 22}, {"time": 48840, "pitch": 42, "duration": 10, "velocity": 92}, {"time": 48960, "pitch": 38, "duration": 10, "velocity": 127}, {"time": 48960, "pitch": 42, "duration": 10, "velocity": 106}, {"time": 49080, "pitch": 36, "duration": 10, "velocity": 51}, {"time": 49080, "pitch": 42, "duration": 10, "velocity": 36}, {"time": 49200, "pitch": 36, "duration": 10, "velocity": 85}, {"time": 49200, "pitch": 46, "duration": 10, "velocity": 92}, {"time": 49340, "pitch": 38, "duration": 10, "velocity": 36}, {"time": 49390, "pitch": 38, "duration": 10, "velocity": 64}, {"time": 49440, "pitch": 36, "duration": 10, "velocity": 85}, {"time": 49440, "pitch": 42, "duration": 10, "velocity": 64}, {"time": 49560, "pitch": 38, "duration": 10, "velocity": 92}, {"time": 49560, "pitch": 42, "duration": 10, "velocity": 36}, {"time": 49680, "pitch": 42, "duration": 10, "velocity": 106}, {"time": 49800, "pitch": 36, "duration": 10, "velocity": 73}, {"time": 49800, "pitch": 42, "duration": 10, "velocity": 36}, {"time": 49920, "pitch": 38, "duration": 10, "velocity": 127}, {"time": 50040, "pitch": 38, "duration": 10, "velocity": 50}, {"time": 50160, "pitch": 36, "duration": 10, "velocity": 73}, {"time": 50160, "pitch": 46, "duration": 10, "velocity": 100}, {"time": 50400, "pitch": 36, "duration": 10, "velocity": 96}, {"time": 50400, "pitch": 44, "duration": 10, "velocity": 78}, {"time": 50400, "pitch": 49, "duration": 10, "velocity": 110}, {"time": 50640, "pitch": 42, "duration": 10, "velocity": 64}, {"time": 50760, "pitch": 42, "duration": 10, "velocity": 36}, {"time": 50880, "pitch": 38, "duration": 10, "velocity": 127}, {"time": 50880, "pitch": 42, "duration": 10, "velocity": 106}, {"time": 51000, "pitch": 42, "duration": 10, "velocity": 36}, {"time": 51120, "pitch": 42, "duration": 10, "velocity": 64}, {"time": 51240, "pitch": 36, "duration": 10, "velocity": 51}, {"time": 51240, "pitch": 42, "duration": 10, "velocity": 36}, {"time": 51360, "pitch": 36, "duration": 10, "velocity": 90}, {"time": 51360, "pitch": 42, "duration": 10, "velocity": 113}, {"time": 51600, "pitch": 42, "duration": 10, "velocity": 64}, {"time": 51720, "pitch": 42, "duration": 10, "velocity": 36}, {"time": 51840, "pitch": 38, "duration": 10, "velocity": 127}, {"time": 51840, "pitch": 42, "duration": 10, "velocity": 127}, {"time": 51960, "pitch": 42, "duration": 10, "velocity": 36}, {"time": 52080, "pitch": 42, "duration": 10, "velocity": 78}, {"time": 52200, "pitch": 36, "duration": 10, "velocity": 51}, {"time": 52220, "pitch": 38, "duration": 10, "velocity": 36}, {"time": 52270, "pitch": 38, "duration": 10, "velocity": 50}, {"time": 52320, "pitch": 36, "duration": 10, "velocity": 102}, {"time": 52320, "pitch": 42, "duration": 10, "velocity": 64}, {"time": 52560, "pitch": 42, "duration": 10, "velocity": 78}, {"time": 52680, "pitch": 42, "duration": 10, "velocity": 36}, {"time": 52800, "pitch": 38, "duration": 10, "velocity": 127}, {"time": 52800, "pitch": 42, "duration": 10, "velocity": 106}, {"time": 53040, "pitch": 42, "duration": 10, "velocity": 78}, {"time": 53160, "pitch": 36, "duration": 10, "velocity": 85}, {"time": 53160, "pitch": 42, "duration": 10, "velocity": 106}, {"time": 53280, "pitch": 42, "duration": 10, "velocity": 36}, {"time": 53400, "pitch": 36, "duration": 10, "velocity": 51}, {"time": 53400, "pitch": 42, "duration": 10, "velocity": 50}, {"time": 53520, "pitch": 36, "duration": 10, "velocity": 85}, {"time": 53520, "pitch": 42, "duration": 10, "velocity": 106}, {"time": 53640, "pitch": 42, "duration": 10, "velocity": 35}, {"time": 53760, "pitch": 38, "duration": 10, "velocity": 127}, {"time": 53760, "pitch": 42, "duration": 10, "velocity": 127}, {"time": 53880, "pitch": 42, "duration": 10, "velocity": 64}, {"time": 54000, "pitch": 36, "duration": 10, "velocity": 73}, {"time": 54000, "pitch": 46, "duration": 10, "velocity": 100}, {"time": 54240, "pitch": 36, "duration": 10, "velocity": 102}, {"time": 54240, "pitch": 42, "duration": 10, "velocity": 106}, {"time": 54360, "pitch": 42, "duration": 10, "velocity": 36}, {"time": 54480, "pitch": 42, "duration": 10, "velocity": 78}, {"time": 54600, "pitch": 42, "duration": 10, "velocity": 22}, {"time": 54720, "pitch": 38, "duration": 10, "velocity": 127}, {"time": 54720, "pitch": 42, "duration": 10, "velocity": 106}, {"time": 54840, "pitch": 42, "duration": 10, "velocity": 36}, {"time": 54960, "pitch": 42, "duration": 10, "velocity": 64}, {"time": 55080, "pitch": 36, "duration": 10, "velocity": 51}, {"time": 55080, "pitch": 42, "duration": 10, "velocity": 36}, {"time": 55200, "pitch": 36, "duration": 10, "velocity": 102}, {"time": 55200, "pitch": 46, "duration": 10, "velocity": 78}, {"time": 55330, "pitch": 46, "duration": 10, "velocity": 36}, {"time": 55440, "pitch": 46, "duration": 10, "velocity": 92}, {"time": 55680, "pitch": 38, "duration": 10, "velocity": 127}, {"time": 55680, "pitch": 42, "duration": 10, "velocity": 120}, {"time": 55920, "pitch": 42, "duration": 10, "velocity": 64}, {"time": 56040, "pitch": 36, "duration": 10, "velocity": 51}, {"time": 56040, "pitch": 42, "duration": 10, "velocity": 36}, {"time": 56160, "pitch": 36, "duration": 10, "velocity": 102}, {"time": 56160, "pitch": 51, "duration": 10, "velocity": 102}, {"time": 56280, "pitch": 38, "duration": 10, "velocity": 50}, {"time": 56280, "pitch": 42, "duration": 10, "velocity": 36}, {"time": 56400, "pitch": 42, "duration": 10, "velocity": 78}, {"time": 56520, "pitch": 36, "duration": 10, "velocity": 51}, {"time": 56520, "pitch": 42, "duration": 10, "velocity": 22}, {"time": 56640, "pitch": 38, "duration": 10, "velocity": 127}, {"time": 56640, "pitch": 42, "duration": 10, "velocity": 106}, {"time": 56760, "pitch": 36, "duration": 10, "velocity": 51}, {"time": 56760, "pitch": 42, "duration": 10, "velocity": 36}, {"time": 56880, "pitch": 36, "duration": 10, "velocity": 102}, {"time": 56880, "pitch": 42, "duration": 10, "velocity": 64}, {"time": 57000, "pitch": 42, "duration": 10, "velocity": 36}, {"time": 57020, "pitch": 38, "duration": 10, "velocity": 36}, {"time": 57070, "pitch": 38, "duration": 10, "velocity": 50}, {"time": 57120, "pitch": 36, "duration": 10, "velocity": 97}, {"time": 57120, "pitch": 42, "duration": 10, "velocity": 113}, {"time": 57240, "pitch": 38, "duration": 10, "velocity": 78}, {"time": 57360, "pitch": 42, "duration": 10, "velocity": 35}, {"time": 57480, "pitch": 36, "duration": 10, "velocity": 63}, {"time": 57480, "pitch": 42, "duration": 10, "velocity": 35}, {"time": 57600, "pitch": 38, "duration": 10, "velocity": 127}, {"time": 57600, "pitch": 42, "duration": 10, "velocity": 127}, {"time": 57840, "pitch": 36, "duration": 10, "velocity": 85}, {"time": 57840, "pitch": 46, "duration": 10, "velocity": 100}, {"time": 58080, "pitch": 36, "duration": 10, "velocity": 102}, {"time": 58080, "pitch": 42, "duration": 10, "velocity": 110}, {"time": 58200, "pitch": 42, "duration": 10, "velocity": 20}, {"time": 58320, "pitch": 42, "duration": 10, "velocity": 40}, {"time": 58440, "pitch": 42, "duration": 10, "velocity": 20}, {"time": 58560, "pitch": 38, "duration": 10, "velocity": 127}, {"time": 58560, "pitch": 42, "duration": 10, "velocity": 119}, {"time": 58680, "pitch": 36, "duration": 10, "velocity": 51}, {"time": 58680, "pitch": 42, "duration": 10, "velocity": 20}, {"time": 58800, "pitch": 36, "duration": 10, "velocity": 73}, {"time": 58800, "pitch": 42, "duration": 10, "velocity": 20}, {"time": 58920, "pitch": 42, "duration": 10, "velocity": 50}, {"time": 59040, "pitch": 36, "duration": 10, "velocity": 85}, {"time": 59040, "pitch": 42, "duration": 10, "velocity": 120}, {"time": 59280, "pitch": 36, "duration": 10, "velocity": 85}, {"time": 59280, "pitch": 46, "duration": 10, "velocity": 92}, {"time": 59440, "pitch": 38, "duration": 10, "velocity": 36}, {"time": 59480, "pitch": 38, "duration": 10, "velocity": 50}, {"time": 59520, "pitch": 38, "duration": 10, "velocity": 127}, {"time": 59520, "pitch": 44, "duration": 10, "velocity": 78}, {"time": 59640, "pitch": 38, "duration": 10, "velocity": 92}, {"time": 59760, "pitch": 36, "duration": 10, "velocity": 86}, {"time": 59760, "pitch": 45, "duration": 10, "velocity": 92}, {"time": 60000, "pitch": 36, "duration": 10, "velocity": 96}, {"time": 60000, "pitch": 44, "duration": 10, "velocity": 78}, {"time": 60000, "pitch": 49, "duration": 10, "velocity": 78}, {"time": 60240, "pitch": 46, "duration": 10, "velocity": 78}, {"time": 60480, "pitch": 36, "duration": 10, "velocity": 85}, {"time": 60480, "pitch": 42, "duration": 10, "velocity": 120}, {"time": 60720, "pitch": 42, "duration": 10, "velocity": 36}, {"time": 60840, "pitch": 42, "duration": 10, "velocity": 36}, {"time": 60960, "pitch": 42, "duration": 10, "velocity": 78}, {"time": 61200, "pitch": 42, "duration": 10, "velocity": 36}, {"time": 61320, "pitch": 42, "duration": 10, "velocity": 36}, {"time": 61440, "pitch": 36, "duration": 10, "velocity": 85}, {"time": 61440, "pitch": 42, "duration": 10, "velocity": 120}, {"time": 61680, "pitch": 42, "duration": 10, "velocity": 36}, {"time": 61680, "pitch": 57, "duration": 10, "velocity": 20}, {"time": 61710, "pitch": 57, "duration": 10, "velocity": 24}, {"time": 61740, "pitch": 57, "duration": 10, "velocity": 28}, {"time": 61770, "pitch": 57, "duration": 10, "velocity": 32}, {"time": 61800, "pitch": 42, "duration": 10, "velocity": 36}, {"time": 61800, "pitch": 57, "duration": 10, "velocity": 36}, {"time": 61830, "pitch": 57, "duration": 10, "velocity": 40}, {"time": 61860, "pitch": 57, "duration": 10, "velocity": 44}, {"time": 61890, "pitch": 57, "duration": 10, "velocity": 48}, {"time": 61920, "pitch": 42, "duration": 10, "velocity": 78}, {"time": 61920, "pitch": 57, "duration": 10, "velocity": 78}, {"time": 62160, "pitch": 42, "duration": 10, "velocity": 36}, {"time": 62280, "pitch": 42, "duration": 10, "velocity": 36}, {"time": 62400, "pitch": 36, "duration": 10, "velocity": 85}, {"time": 62400, "pitch": 42, "duration": 10, "velocity": 119}, {"time": 62520, "pitch": 42, "duration": 10, "velocity": 36}, {"time": 62640, "pitch": 42, "duration": 10, "velocity": 36}, {"time": 62880, "pitch": 42, "duration": 10, "velocity": 78}, {"time": 63120, "pitch": 42, "duration": 10, "velocity": 36}, {"time": 63240, "pitch": 42, "duration": 10, "velocity": 36}, {"time": 63360, "pitch": 36, "duration": 10, "velocity": 85}, {"time": 63360, "pitch": 42, "duration": 10, "velocity": 120}, {"time": 63480, "pitch": 42, "duration": 10, "velocity": 36}, {"time": 63610, "pitch": 42, "duration": 10, "velocity": 36}, {"time": 63680, "pitch": 42, "duration": 10, "velocity": 50}, {"time": 63760, "pitch": 42, "duration": 10, "velocity": 78}, {"time": 63840, "pitch": 42, "duration": 10, "velocity": 78}, {"time": 64080, "pitch": 42, "duration": 10, "velocity": 36}, {"time": 64200, "pitch": 42, "duration": 10, "velocity": 36}, {"time": 64320, "pitch": 36, "duration": 10, "velocity": 85}, {"time": 64320, "pitch": 42, "duration": 10, "velocity": 120}, {"time": 64560, "pitch": 42, "duration": 10, "velocity": 36}, {"time": 64680, "pitch": 42, "duration": 10, "velocity": 36}, {"time": 64800, "pitch": 42, "duration": 10, "velocity": 78}, {"time": 65040, "pitch": 42, "duration": 10, "velocity": 36}, {"time": 65160, "pitch": 42, "duration": 10, "velocity": 36}, {"time": 65280, "pitch": 36, "duration": 10, "velocity": 85}, {"time": 65280, "pitch": 42, "duration": 10, "velocity": 120}, {"time": 65400, "pitch": 42, "duration": 10, "velocity": 36}, {"time": 65530, "pitch": 42, "duration": 10, "velocity": 36}, {"time": 65650, "pitch": 46, "duration": 10, "velocity": 92}, {"time": 65760, "pitch": 42, "duration": 10, "velocity": 78}, {"time": 66000, "pitch": 42, "duration": 10, "velocity": 36}, {"time": 66120, "pitch": 42, "duration": 10, "velocity": 36}, {"time": 66240, "pitch": 36, "duration": 10, "velocity": 85}, {"time": 66240, "pitch": 42, "duration": 10, "velocity": 119}, {"time": 66480, "pitch": 42, "duration": 10, "velocity": 36}, {"time": 66600, "pitch": 42, "duration": 10, "velocity": 36}, {"time": 66720, "pitch": 42, "duration": 10, "velocity": 78}, {"time": 66960, "pitch": 42, "duration": 10, "velocity": 36}, {"time": 67080, "pitch": 42, "duration": 10, "velocity": 36}, {"time": 67200, "pitch": 36, "duration": 10, "velocity": 85}, {"time": 67200, "pitch": 42, "duration": 10, "velocity": 127}, {"time": 67440, "pitch": 42, "duration": 10, "velocity": 36}, {"time": 67560, "pitch": 42, "duration": 10, "velocity": 36}, {"time": 67680, "pitch": 51, "duration": 10, "velocity": 102}, {"time": 67920, "pitch": 42, "duration": 10, "velocity": 36}, {"time": 68040, "pitch": 42, "duration": 10, "velocity": 36}, {"time": 68160, "pitch": 36, "duration": 10, "velocity": 85}, {"time": 68160, "pitch": 42, "duration": 10, "velocity": 120}, {"time": 68280, "pitch": 42, "duration": 10, "velocity": 36}, {"time": 68400, "pitch": 46, "duration": 10, "velocity": 92}, {"time": 68560, "pitch": 38, "duration": 10, "velocity": 36}, {"time": 68600, "pitch": 38, "duration": 10, "velocity": 50}, {"time": 68640, "pitch": 38, "duration": 10, "velocity": 120}, {"time": 68640, "pitch": 42, "duration": 10, "velocity": 113}, {"time": 68760, "pitch": 45, "duration": 10, "velocity": 92}, {"time": 68880, "pitch": 38, "duration": 10, "velocity": 22}, {"time": 68880, "pitch": 42, "duration": 10, "velocity": 35}, {"time": 68920, "pitch": 38, "duration": 10, "velocity": 36}, {"time": 68960, "pitch": 38, "duration": 10, "velocity": 36}, {"time": 69000, "pitch": 38, "duration": 10, "velocity": 50}, {"time": 69000, "pitch": 42, "duration": 10, "velocity": 35}, {"time": 69060, "pitch": 38, "duration": 10, "velocity": 64}, {"time": 69120, "pitch": 38, "duration": 10, "velocity": 127}, {"time": 69120, "pitch": 42, "duration": 10, "velocity": 127}, {"time": 69240, "pitch": 38, "duration": 10, "velocity": 120}, {"time": 69240, "pitch": 42, "duration": 10, "velocity": 80}, {"time": 69360, "pitch": 36, "duration": 10, "velocity": 85}, {"time": 69360, "pitch": 46, "duration": 10, "velocity": 100}, {"time": 69480, "pitch": 38, "duration": 10, "velocity": 36}, {"time": 69540, "pitch": 38, "duration": 10, "velocity": 50}, {"time": 69600, "pitch": 36, "duration": 10, "velocity": 96}, {"time": 69600, "pitch": 49, "duration": 10, "velocity": 104}, {"time": 69720, "pitch": 42, "duration": 10, "velocity": 20}, {"time": 69840, "pitch": 46, "duration": 10, "velocity": 92}, {"time": 70080, "pitch": 38, "duration": 10, "velocity": 127}, {"time": 70080, "pitch": 42, "duration": 10, "velocity": 119}, {"time": 70320, "pitch": 36, "duration": 10, "velocity": 73}, {"time": 70320, "pitch": 42, "duration": 10, "velocity": 64}, {"time": 70440, "pitch": 42, "duration": 10, "velocity": 36}, {"time": 70560, "pitch": 36, "duration": 10, "velocity": 90}, {"time": 70560, "pitch": 42, "duration": 10, "velocity": 120}, {"time": 70800, "pitch": 42, "duration": 10, "velocity": 64}, {"time": 70920, "pitch": 42, "duration": 10, "velocity": 36}, {"time": 71040, "pitch": 38, "duration": 10, "velocity": 127}, {"time": 71040, "pitch": 42, "duration": 10, "velocity": 120}, {"time": 71160, "pitch": 42, "duration": 10, "velocity": 36}, {"time": 71280, "pitch": 36, "duration": 10, "velocity": 97}, {"time": 71280, "pitch": 42, "duration": 10, "velocity": 64}, {"time": 71400, "pitch": 38, "duration": 10, "velocity": 36}, {"time": 71400, "pitch": 42, "duration": 10, "velocity": 36}, {"time": 71520, "pitch": 42, "duration": 10, "velocity": 92}, {"time": 71640, "pitch": 38, "duration": 10, "velocity": 50}, {"time": 71640, "pitch": 42, "duration": 10, "velocity": 36}, {"time": 71760, "pitch": 36, "duration": 10, "velocity": 85}, {"time": 71760, "pitch": 42, "duration": 10, "velocity": 92}, {"time": 71880, "pitch": 42, "duration": 10, "velocity": 36}, {"time": 72000, "pitch": 38, "duration": 10, "velocity": 127}, {"time": 72000, "pitch": 42, "duration": 10, "velocity": 119}, {"time": 72240, "pitch": 36, "duration": 10, "velocity": 85}, {"time": 72240, "pitch": 42, "duration": 10, "velocity": 64}, {"time": 72480, "pitch": 42, "duration": 10, "velocity": 120}, {"time": 72600, "pitch": 36, "duration": 10, "velocity": 51}, {"time": 72720, "pitch": 36, "duration": 10, "velocity": 85}, {"time": 72720, "pitch": 42, "duration": 10, "velocity": 64}, {"time": 72840, "pitch": 42, "duration": 10, "velocity": 36}, {"time": 72960, "pitch": 38, "duration": 10, "velocity": 127}, {"time": 72960, "pitch": 42, "duration": 10, "velocity": 120}, {"time": 73200, "pitch": 46, "duration": 10, "velocity": 100}, {"time": 73360, "pitch": 38, "duration": 10, "velocity": 36}, {"time": 73400, "pitch": 38, "duration": 10, "velocity": 50}, {"time": 73440, "pitch": 36, "duration": 10, "velocity": 96}, {"time": 73440, "pitch": 42, "duration": 10, "velocity": 110}, {"time": 73680, "pitch": 42, "duration": 10, "velocity": 64}, {"time": 73920, "pitch": 38, "duration": 10, "velocity": 127}, {"time": 73920, "pitch": 42, "duration": 10, "velocity": 120}, {"time": 74160, "pitch": 36, "duration": 10, "velocity": 63}, {"time": 74160, "pitch": 42, "duration": 10, "velocity": 64}, {"time": 74280, "pitch": 42, "duration": 10, "velocity": 36}, {"time": 74400, "pitch": 36, "duration": 10, "velocity": 102}, {"time": 74400, "pitch": 42, "duration": 10, "velocity": 106}, {"time": 74520, "pitch": 38, "duration": 10, "velocity": 50}, {"time": 74640, "pitch": 42, "duration": 10, "velocity": 64}, {"time": 74760, "pitch": 36, "duration": 10, "velocity": 63}, {"time": 74760, "pitch": 42, "duration": 10, "velocity": 36}, {"time": 74880, "pitch": 38, "duration": 10, "velocity": 127}, {"time": 74880, "pitch": 42, "duration": 10, "velocity": 127}, {"time": 75120, "pitch": 36, "duration": 10, "velocity": 85}, {"time": 75120, "pitch": 46, "duration": 10, "velocity": 92}, {"time": 75360, "pitch": 42, "duration": 10, "velocity": 106}, {"time": 75480, "pitch": 36, "duration": 10, "velocity": 51}, {"time": 75480, "pitch": 42, "duration": 10, "velocity": 36}, {"time": 75600, "pitch": 36, "duration": 10, "velocity": 97}, {"time": 75600, "pitch": 46, "duration": 10, "velocity": 106}, {"time": 75840, "pitch": 38, "duration": 10, "velocity": 127}, {"time": 75840, "pitch": 44, "duration": 10, "velocity": 64}, {"time": 75960, "pitch": 42, "duration": 10, "velocity": 64}, {"time": 76080, "pitch": 36, "duration": 10, "velocity": 102}, {"time": 76080, "pitch": 42, "duration": 10, "velocity": 106}, {"time": 76200, "pitch": 38, "duration": 10, "velocity": 64}, {"time": 76320, "pitch": 42, "duration": 10, "velocity": 113}, {"time": 76440, "pitch": 38, "duration": 10, "velocity": 92}, {"time": 76560, "pitch": 36, "duration": 10, "velocity": 51}, {"time": 76560, "pitch": 42, "duration": 10, "velocity": 64}, {"time": 76680, "pitch": 36, "duration": 10, "velocity": 73}, {"time": 76680, "pitch": 42, "duration": 10, "velocity": 106}, {"time": 76800, "pitch": 38, "duration": 10, "velocity": 127}, {"time": 76920, "pitch": 38, "duration": 10, "velocity": 36}, {"time": 76920, "pitch": 42, "duration": 10, "velocity": 50}, {"time": 77040, "pitch": 46, "duration": 10, "velocity": 100}, {"time": 77200, "pitch": 38, "duration": 10, "velocity": 36}, {"time": 77240, "pitch": 38, "duration": 10, "velocity": 50}, {"time": 77280, "pitch": 36, "duration": 10, "velocity": 96}, {"time": 77280, "pitch": 42, "duration": 10, "velocity": 106}, {"time": 77520, "pitch": 42, "duration": 10, "velocity": 64}, {"time": 77760, "pitch": 38, "duration": 10, "velocity": 127}, {"time": 77760, "pitch": 42, "duration": 10, "velocity": 119}, {"time": 78000, "pitch": 36, "duration": 10, "velocity": 73}, {"time": 78000, "pitch": 42, "duration": 10, "velocity": 64}, {"time": 78120, "pitch": 42, "duration": 10, "velocity": 36}, {"time": 78240, "pitch": 36, "duration": 10, "velocity": 102}, {"time": 78240, "pitch": 42, "duration": 10, "velocity": 106}, {"time": 78480, "pitch": 42, "duration": 10, "velocity": 64}, {"time": 78600, "pitch": 42, "duration": 10, "velocity": 36}, {"time": 78720, "pitch": 38, "duration": 10, "velocity": 127}, {"time": 78720, "pitch": 42, "duration": 10, "velocity": 120}, {"time": 78960, "pitch": 36, "duration": 10, "velocity": 81}, {"time": 78960, "pitch": 42, "duration": 10, "velocity": 64}, {"time": 79080, "pitch": 38, "duration": 10, "velocity": 36}, {"time": 79080, "pitch": 42, "duration": 10, "velocity": 36}, {"time": 79200, "pitch": 42, "duration": 10, "velocity": 106}, {"time": 79320, "pitch": 38, "duration": 10, "velocity": 64}, {"time": 79440, "pitch": 36, "duration": 10, "velocity": 85}, {"time": 79440, "pitch": 42, "duration": 10, "velocity": 64}, {"time": 79560, "pitch": 42, "duration": 10, "velocity": 36}, {"time": 79680, "pitch": 38, "duration": 10, "velocity": 127}, {"time": 79680, "pitch": 42, "duration": 10, "velocity": 120}, {"time": 79800, "pitch": 38, "duration": 10, "velocity": 36}, {"time": 79920, "pitch": 36, "duration": 10, "velocity": 85}, {"time": 79920, "pitch": 42, "duration": 10, "velocity": 64}, {"time": 80040, "pitch": 42, "duration": 10, "velocity": 36}, {"time": 80160, "pitch": 42, "duration": 10, "velocity": 106}, {"time": 80280, "pitch": 36, "duration": 10, "velocity": 51}, {"time": 80400, "pitch": 36, "duration": 10, "velocity": 85}, {"time": 80400, "pitch": 42, "duration": 10, "velocity": 64}, {"time": 80640, "pitch": 38, "duration": 10, "velocity": 127}, {"time": 80640, "pitch": 42, "duration": 10, "velocity": 120}, {"time": 80760, "pitch": 42, "duration": 10, "velocity": 36}, {"time": 80880, "pitch": 46, "duration": 10, "velocity": 100}, {"time": 81040, "pitch": 38, "duration": 10, "velocity": 36}, {"time": 81080, "pitch": 38, "duration": 10, "velocity": 50}, {"time": 81120, "pitch": 36, "duration": 10, "velocity": 102}, {"time": 81120, "pitch": 42, "duration": 10, "velocity": 106}, {"time": 81360, "pitch": 42, "duration": 10, "velocity": 64}, {"time": 81600, "pitch": 38, "duration": 10, "velocity": 127}, {"time": 81600, "pitch": 42, "duration": 10, "velocity": 120}, {"time": 81840, "pitch": 36, "duration": 10, "velocity": 73}, {"time": 81840, "pitch": 42, "duration": 10, "velocity": 64}, {"time": 81960, "pitch": 42, "duration": 10, "velocity": 36}, {"time": 82080, "pitch": 36, "duration": 10, "velocity": 102}, {"time": 82080, "pitch": 42, "duration": 10, "velocity": 106}, {"time": 82320, "pitch": 42, "duration": 10, "velocity": 64}, {"time": 82440, "pitch": 42, "duration": 10, "velocity": 36}, {"time": 82560, "pitch": 38, "duration": 10, "velocity": 127}, {"time": 82560, "pitch": 42, "duration": 10, "velocity": 120}, {"time": 82800, "pitch": 36, "duration": 10, "velocity": 86}, {"time": 82800, "pitch": 42, "duration": 10, "velocity": 64}, {"time": 82920, "pitch": 38, "duration": 10, "velocity": 36}, {"time": 82920, "pitch": 42, "duration": 10, "velocity": 36}, {"time": 83040, "pitch": 36, "duration": 10, "velocity": 102}, {"time": 83040, "pitch": 42, "duration": 10, "velocity": 110}, {"time": 83280, "pitch": 42, "duration": 10, "velocity": 64}, {"time": 83400, "pitch": 36, "duration": 10, "velocity": 73}, {"time": 83400, "pitch": 42, "duration": 10, "velocity": 36}, {"time": 83520, "pitch": 38, "duration": 10, "velocity": 127}, {"time": 83520, "pitch": 42, "duration": 10, "velocity": 120}, {"time": 83760, "pitch": 36, "duration": 10, "velocity": 85}, {"time": 83760, "pitch": 42, "duration": 10, "velocity": 64}, {"time": 83880, "pitch": 42, "duration": 10, "velocity": 36}, {"time": 83900, "pitch": 38, "duration": 10, "velocity": 36}, {"time": 83950, "pitch": 38, "duration": 10, "velocity": 50}, {"time": 84000, "pitch": 42, "duration": 10, "velocity": 106}, {"time": 84120, "pitch": 36, "duration": 10, "velocity": 51}, {"time": 84120, "pitch": 42, "duration": 10, "velocity": 36}, {"time": 84240, "pitch": 36, "duration": 10, "velocity": 73}, {"time": 84240, "pitch": 46, "duration": 10, "velocity": 92}, {"time": 84480, "pitch": 38, "duration": 10, "velocity": 127}, {"time": 84480, "pitch": 42, "duration": 10, "velocity": 127}, {"time": 84600, "pitch": 43, "duration": 10, "velocity": 64}, {"time": 84720, "pitch": 43, "duration": 10, "velocity": 106}, {"time": 84960, "pitch": 36, "duration": 10, "velocity": 91}, {"time": 84960, "pitch": 46, "duration": 10, "velocity": 92}, {"time": 85320, "pitch": 36, "duration": 10, "velocity": 73}, {"time": 85320, "pitch": 42, "duration": 10, "velocity": 64}, {"time": 85440, "pitch": 38, "duration": 10, "velocity": 127}, {"time": 85440, "pitch": 42, "duration": 10, "velocity": 119}, {"time": 85680, "pitch": 36, "duration": 10, "velocity": 85}, {"time": 85680, "pitch": 42, "duration": 10, "velocity": 50}, {"time": 85920, "pitch": 42, "duration": 10, "velocity": 106}, {"time": 86040, "pitch": 38, "duration": 10, "velocity": 78}, {"time": 86160, "pitch": 36, "duration": 10, "velocity": 85}, {"time": 86160, "pitch": 42, "duration": 10, "velocity": 50}, {"time": 86400, "pitch": 38, "duration": 10, "velocity": 127}, {"time": 86400, "pitch": 42, "duration": 10, "velocity": 127}, {"time": 86640, "pitch": 36, "duration": 10, "velocity": 73}, {"time": 86640, "pitch": 42, "duration": 10, "velocity": 50}, {"time": 86810, "pitch": 38, "duration": 10, "velocity": 36}, {"time": 86850, "pitch": 38, "duration": 10, "velocity": 50}, {"time": 86890, "pitch": 36, "duration": 10, "velocity": 91}, {"time": 86890, "pitch": 42, "duration": 10, "velocity": 106}, {"time": 87010, "pitch": 38, "duration": 10, "velocity": 50}, {"time": 87130, "pitch": 42, "duration": 10, "velocity": 36}, {"time": 87250, "pitch": 36, "duration": 10, "velocity": 73}, {"time": 87370, "pitch": 38, "duration": 10, "velocity": 127}, {"time": 87370, "pitch": 42, "duration": 10, "velocity": 120}, {"time": 87490, "pitch": 38, "duration": 10, "velocity": 50}, {"time": 87610, "pitch": 36, "duration": 10, "velocity": 83}, {"time": 87610, "pitch": 42, "duration": 10, "velocity": 50}, {"time": 87730, "pitch": 38, "duration": 10, "velocity": 36}, {"time": 87850, "pitch": 42, "duration": 10, "velocity": 106}, {"time": 87970, "pitch": 38, "duration": 10, "velocity": 78}, {"time": 88090, "pitch": 36, "duration": 10, "velocity": 73}, {"time": 88090, "pitch": 42, "duration": 10, "velocity": 36}, {"time": 88330, "pitch": 38, "duration": 10, "velocity": 127}, {"time": 88330, "pitch": 42, "duration": 10, "velocity": 127}, {"time": 88570, "pitch": 36, "duration": 10, "velocity": 85}, {"time": 88570, "pitch": 46, "duration": 10, "velocity": 92}, {"time": 88810, "pitch": 36, "duration": 10, "velocity": 91}, {"time": 88810, "pitch": 42, "duration": 10, "velocity": 106}, {"time": 89050, "pitch": 42, "duration": 10, "velocity": 36}, {"time": 89290, "pitch": 38, "duration": 10, "velocity": 127}, {"time": 89290, "pitch": 42, "duration": 10, "velocity": 119}, {"time": 89530, "pitch": 36, "duration": 10, "velocity": 73}, {"time": 89530, "pitch": 42, "duration": 10, "velocity": 50}, {"time": 89670, "pitch": 38, "duration": 10, "velocity": 36}, {"time": 89720, "pitch": 38, "duration": 10, "velocity": 50}, {"time": 89770, "pitch": 36, "duration": 10, "velocity": 91}, {"time": 89770, "pitch": 42, "duration": 10, "velocity": 106}, {"time": 89890, "pitch": 38, "duration": 10, "velocity": 78}, {"time": 90010, "pitch": 42, "duration": 10, "velocity": 36}, {"time": 90250, "pitch": 38, "duration": 10, "velocity": 127}, {"time": 90250, "pitch": 42, "duration": 10, "velocity": 127}, {"time": 90490, "pitch": 36, "duration": 10, "velocity": 91}, {"time": 90490, "pitch": 42, "duration": 10, "velocity": 20}, {"time": 90610, "pitch": 38, "duration": 10, "velocity": 22}, {"time": 90650, "pitch": 38, "duration": 10, "velocity": 36}, {"time": 90690, "pitch": 38, "duration": 10, "velocity": 50}, {"time": 90730, "pitch": 36, "duration": 10, "velocity": 91}, {"time": 90730, "pitch": 42, "duration": 10, "velocity": 106}, {"time": 90850, "pitch": 38, "duration": 10, "velocity": 64}, {"time": 90970, "pitch": 42, "duration": 10, "velocity": 50}, {"time": 91090, "pitch": 36, "duration": 10, "velocity": 63}, {"time": 91090, "pitch": 42, "duration": 10, "velocity": 106}, {"time": 91210, "pitch": 38, "duration": 10, "velocity": 127}, {"time": 91330, "pitch": 42, "duration": 10, "velocity": 50}, {"time": 91450, "pitch": 36, "duration": 10, "velocity": 73}, {"time": 91450, "pitch": 42, "duration": 10, "velocity": 92}, {"time": 91570, "pitch": 38, "duration": 10, "velocity": 106}, {"time": 91690, "pitch": 42, "duration": 10, "velocity": 127}, {"time": 91810, "pitch": 38, "duration": 10, "velocity": 78}, {"time": 91930, "pitch": 36, "duration": 10, "velocity": 85}, {"time": 91930, "pitch": 46, "duration": 10, "velocity": 92}, {"time": 92070, "pitch": 38, "duration": 10, "velocity": 50}, {"time": 92120, "pitch": 38, "duration": 10, "velocity": 64}, {"time": 92170, "pitch": 38, "duration": 10, "velocity": 127}, {"time": 92170, "pitch": 44, "duration": 10, "velocity": 92}, {"time": 92290, "pitch": 38, "duration": 10, "velocity": 92}, {"time": 92410, "pitch": 36, "duration": 10, "velocity": 63}, {"time": 92410, "pitch": 44, "duration": 10, "velocity": 92}, {"time": 92530, "pitch": 38, "duration": 10, "velocity": 36}, {"time": 92590, "pitch": 38, "duration": 10, "velocity": 50}, {"time": 92650, "pitch": 36, "duration": 10, "velocity": 91}, {"time": 92650, "pitch": 46, "duration": 10, "velocity": 92}, {"time": 92770, "pitch": 38, "duration": 10, "velocity": 50}, {"time": 93010, "pitch": 36, "duration": 10, "velocity": 73}, {"time": 93010, "pitch": 42, "duration": 10, "velocity": 64}, {"time": 93130, "pitch": 38, "duration": 10, "velocity": 127}, {"time": 93130, "pitch": 42, "duration": 10, "velocity": 119}, {"time": 93370, "pitch": 36, "duration": 10, "velocity": 73}, {"time": 93370, "pitch": 42, "duration": 10, "velocity": 78}, {"time": 93490, "pitch": 38, "duration": 10, "velocity": 50}, {"time": 93610, "pitch": 42, "duration": 10, "velocity": 106}, {"time": 93730, "pitch": 36, "duration": 10, "velocity": 51}, {"time": 93850, "pitch": 36, "duration": 10, "velocity": 73}, {"time": 93850, "pitch": 42, "duration": 10, "velocity": 36}, {"time": 94090, "pitch": 38, "duration": 10, "velocity": 127}, {"time": 94090, "pitch": 42, "duration": 10, "velocity": 120}, {"time": 94330, "pitch": 36, "duration": 10, "velocity": 43}, {"time": 94330, "pitch": 42, "duration": 10, "velocity": 36}, {"time": 94470, "pitch": 38, "duration": 10, "velocity": 36}, {"time": 94520, "pitch": 38, "duration": 10, "velocity": 50}, {"time": 94570, "pitch": 36, "duration": 10, "velocity": 91}, {"time": 94570, "pitch": 42, "duration": 10, "velocity": 106}, {"time": 94810, "pitch": 42, "duration": 10, "velocity": 36}, {"time": 94930, "pitch": 36, "duration": 10, "velocity": 73}, {"time": 95050, "pitch": 38, "duration": 10, "velocity": 127}, {"time": 95050, "pitch": 42, "duration": 10, "velocity": 120}, {"time": 95290, "pitch": 36, "duration": 10, "velocity": 91}, {"time": 95290, "pitch": 42, "duration": 10, "velocity": 50}, {"time": 95430, "pitch": 38, "duration": 10, "velocity": 36}, {"time": 95480, "pitch": 38, "duration": 10, "velocity": 50}, {"time": 95530, "pitch": 42, "duration": 10, "velocity": 106}, {"time": 95650, "pitch": 36, "duration": 10, "velocity": 51}, {"time": 95650, "pitch": 38, "duration": 10, "velocity": 50}, {"time": 95770, "pitch": 36, "duration": 10, "velocity": 73}, {"time": 95770, "pitch": 42, "duration": 10, "velocity": 36}, {"time": 96010, "pitch": 38, "duration": 10, "velocity": 127}, {"time": 96010, "pitch": 42, "duration": 10, "velocity": 127}, {"time": 96020, "pitch": 38, "duration": 10, "velocity": 64}, {"time": 96250, "pitch": 36, "duration": 10, "velocity": 73}, {"time": 96250, "pitch": 46, "duration": 10, "velocity": 92}, {"time": 96490, "pitch": 36, "duration": 10, "velocity": 91}, {"time": 96490, "pitch": 42, "duration": 10, "velocity": 106}, {"time": 96730, "pitch": 42, "duration": 10, "velocity": 36}, {"time": 96970, "pitch": 38, "duration": 10, "velocity": 127}, {"time": 96970, "pitch": 42, "duration": 10, "velocity": 119}, {"time": 97210, "pitch": 36, "duration": 10, "velocity": 73}, {"time": 97210, "pitch": 42, "duration": 10, "velocity": 36}, {"time": 97330, "pitch": 38, "duration": 10, "velocity": 78}, {"time": 97450, "pitch": 36, "duration": 10, "velocity": 91}, {"time": 97450, "pitch": 46, "duration": 10, "velocity": 92}, {"time": 97690, "pitch": 46, "duration": 10, "velocity": 106}, {"time": 97810, "pitch": 36, "duration": 10, "velocity": 51}, {"time": 97930, "pitch": 38, "duration": 10, "velocity": 127}, {"time": 97930, "pitch": 42, "duration": 10, "velocity": 127}, {"time": 98050, "pitch": 38, "duration": 10, "velocity": 64}, {"time": 98170, "pitch": 36, "duration": 10, "velocity": 73}, {"time": 98170, "pitch": 42, "duration": 10, "velocity": 36}, {"time": 98310, "pitch": 38, "duration": 10, "velocity": 50}, {"time": 98360, "pitch": 38, "duration": 10, "velocity": 64}, {"time": 98410, "pitch": 36, "duration": 10, "velocity": 91}, {"time": 98410, "pitch": 42, "duration": 10, "velocity": 106}, {"time": 98530, "pitch": 38, "duration": 10, "velocity": 78}, {"time": 98650, "pitch": 42, "duration": 10, "velocity": 36}, {"time": 98770, "pitch": 36, "duration": 10, "velocity": 73}, {"time": 98890, "pitch": 38, "duration": 10, "velocity": 127}, {"time": 98890, "pitch": 42, "duration": 10, "velocity": 119}, {"time": 99130, "pitch": 36, "duration": 10, "velocity": 83}, {"time": 99130, "pitch": 46, "duration": 10, "velocity": 92}, {"time": 99290, "pitch": 38, "duration": 10, "velocity": 36}, {"time": 99330, "pitch": 38, "duration": 10, "velocity": 50}, {"time": 99370, "pitch": 38, "duration": 10, "velocity": 106}, {"time": 99370, "pitch": 42, "duration": 10, "velocity": 106}, {"time": 99490, "pitch": 36, "duration": 10, "velocity": 73}, {"time": 99490, "pitch": 46, "duration": 10, "velocity": 106}, {"time": 99610, "pitch": 44, "duration": 10, "velocity": 64}, {"time": 99730, "pitch": 36, "duration": 10, "velocity": 63}, {"time": 99850, "pitch": 38, "duration": 10, "velocity": 127}, {"time": 99850, "pitch": 44, "duration": 10, "velocity": 92}, {"time": 99850, "pitch": 49, "duration": 10, "velocity": 78}, {"time": 99970, "pitch": 47, "duration": 10, "velocity": 78}, {"time": 100090, "pitch": 43, "duration": 10, "velocity": 78}, {"time": 100090, "pitch": 44, "duration": 10, "velocity": 92}, {"time": 100210, "pitch": 41, "duration": 10, "velocity": 92}, {"time": 100330, "pitch": 36, "duration": 10, "velocity": 96}, {"time": 100330, "pitch": 44, "duration": 10, "velocity": 78}, {"time": 100330, "pitch": 49, "duration": 10, "velocity": 110}, {"time": 100570, "pitch": 42, "duration": 10, "velocity": 78}, {"time": 100690, "pitch": 42, "duration": 10, "velocity": 22}, {"time": 100810, "pitch": 38, "duration": 10, "velocity": 127}, {"time": 100810, "pitch": 42, "duration": 10, "velocity": 106}, {"time": 101050, "pitch": 42, "duration": 10, "velocity": 64}, {"time": 101170, "pitch": 36, "duration": 10, "velocity": 51}, {"time": 101170, "pitch": 42, "duration": 10, "velocity": 36}, {"time": 101290, "pitch": 36, "duration": 10, "velocity": 90}, {"time": 101290, "pitch": 42, "duration": 10, "velocity": 113}, {"time": 101530, "pitch": 42, "duration": 10, "velocity": 64}, {"time": 101650, "pitch": 42, "duration": 10, "velocity": 36}, {"time": 101770, "pitch": 38, "duration": 10, "velocity": 127}, {"time": 101770, "pitch": 42, "duration": 10, "velocity": 127}, {"time": 102007, "pitch": 42, "duration": 10, "velocity": 35}, {"time": 102125, "pitch": 36, "duration": 10, "velocity": 51}, {"time": 102165, "pitch": 38, "duration": 9, "velocity": 36}, {"time": 102204, "pitch": 38, "duration": 10, "velocity": 50}, {"time": 102244, "pitch": 36, "duration": 10, "velocity": 102}, {"time": 102244, "pitch": 42, "duration": 10, "velocity": 64}, {"time": 102365, "pitch": 38, "duration": 10, "velocity": 50}, {"time": 102487, "pitch": 42, "duration": 10, "velocity": 78}, {"time": 102730, "pitch": 38, "duration": 10, "velocity": 127}, {"time": 102730, "pitch": 42, "duration": 10, "velocity": 106}, {"time": 102850, "pitch": 36, "duration": 10, "velocity": 51}, {"time": 102850, "pitch": 42, "duration": 10, "velocity": 36}, {"time": 102970, "pitch": 36, "duration": 10, "velocity": 102}, {"time": 102970, "pitch": 42, "duration": 10, "velocity": 64}, {"time": 103110, "pitch": 38, "duration": 10, "velocity": 36}, {"time": 103160, "pitch": 38, "duration": 10, "velocity": 50}, {"time": 103210, "pitch": 36, "duration": 10, "velocity": 97}, {"time": 103210, "pitch": 42, "duration": 10, "velocity": 120}, {"time": 103330, "pitch": 38, "duration": 10, "velocity": 78}, {"time": 103450, "pitch": 42, "duration": 10, "velocity": 35}, {"time": 103570, "pitch": 36, "duration": 10, "velocity": 51}, {"time": 103570, "pitch": 42, "duration": 10, "velocity": 35}, {"time": 103690, "pitch": 38, "duration": 10, "velocity": 127}, {"time": 103690, "pitch": 42, "duration": 10, "velocity": 127}, {"time": 103810, "pitch": 42, "duration": 10, "velocity": 64}, {"time": 103930, "pitch": 36, "duration": 10, "velocity": 73}, {"time": 103930, "pitch": 46, "duration": 10, "velocity": 100}, {"time": 104170, "pitch": 36, "duration": 10, "velocity": 96}, {"time": 104170, "pitch": 42, "duration": 10, "velocity": 106}, {"time": 104410, "pitch": 42, "duration": 10, "velocity": 64}, {"time": 104530, "pitch": 42, "duration": 10, "velocity": 36}, {"time": 104650, "pitch": 38, "duration": 10, "velocity": 127}, {"time": 104650, "pitch": 42, "duration": 10, "velocity": 106}, {"time": 104770, "pitch": 42, "duration": 10, "velocity": 36}, {"time": 104890, "pitch": 42, "duration": 10, "velocity": 64}, {"time": 105010, "pitch": 36, "duration": 10, "velocity": 63}, {"time": 105010, "pitch": 42, "duration": 10, "velocity": 36}, {"time": 105130, "pitch": 36, "duration": 10, "velocity": 102}, {"time": 105130, "pitch": 42, "duration": 10, "velocity": 120}, {"time": 105250, "pitch": 38, "duration": 10, "velocity": 50}, {"time": 105370, "pitch": 42, "duration": 10, "velocity": 64}, {"time": 105490, "pitch": 42, "duration": 10, "velocity": 36}, {"time": 105610, "pitch": 38, "duration": 10, "velocity": 127}, {"time": 105610, "pitch": 42, "duration": 10, "velocity": 120}, {"time": 105850, "pitch": 42, "duration": 10, "velocity": 64}, {"time": 105970, "pitch": 36, "duration": 10, "velocity": 51}, {"time": 106090, "pitch": 36, "duration": 10, "velocity": 102}, {"time": 106090, "pitch": 42, "duration": 10, "velocity": 64}, {"time": 106210, "pitch": 38, "duration": 10, "velocity": 50}, {"time": 106330, "pitch": 42, "duration": 10, "velocity": 78}, {"time": 106450, "pitch": 42, "duration": 10, "velocity": 36}, {"time": 106570, "pitch": 38, "duration": 10, "velocity": 127}, {"time": 106570, "pitch": 42, "duration": 10, "velocity": 106}, {"time": 106690, "pitch": 36, "duration": 10, "velocity": 51}, {"time": 106690, "pitch": 42, "duration": 10, "velocity": 36}, {"time": 106810, "pitch": 36, "duration": 10, "velocity": 85}, {"time": 106810, "pitch": 46, "duration": 10, "velocity": 92}, {"time": 106950, "pitch": 38, "duration": 10, "velocity": 50}, {"time": 107000, "pitch": 38, "duration": 10, "velocity": 64}, {"time": 107050, "pitch": 36, "duration": 10, "velocity": 85}, {"time": 107050, "pitch": 42, "duration": 10, "velocity": 64}, {"time": 107170, "pitch": 38, "duration": 10, "velocity": 92}, {"time": 107290, "pitch": 42, "duration": 10, "velocity": 106}, {"time": 107410, "pitch": 36, "duration": 10, "velocity": 73}, {"time": 107410, "pitch": 42, "duration": 10, "velocity": 36}, {"time": 107530, "pitch": 38, "duration": 10, "velocity": 78}, {"time": 107540, "pitch": 38, "duration": 10, "velocity": 120}, {"time": 107770, "pitch": 36, "duration": 10, "velocity": 73}, {"time": 107770, "pitch": 46, "duration": 10, "velocity": 100}, {"time": 108010, "pitch": 36, "duration": 10, "velocity": 96}, {"time": 108010, "pitch": 44, "duration": 10, "velocity": 78}, {"time": 108010, "pitch": 49, "duration": 10, "velocity": 110}, {"time": 108250, "pitch": 42, "duration": 10, "velocity": 64}, {"time": 108370, "pitch": 42, "duration": 10, "velocity": 36}, {"time": 108490, "pitch": 38, "duration": 10, "velocity": 127}, {"time": 108490, "pitch": 42, "duration": 10, "velocity": 106}, {"time": 108730, "pitch": 42, "duration": 10, "velocity": 64}, {"time": 108850, "pitch": 36, "duration": 10, "velocity": 51}, {"time": 108850, "pitch": 42, "duration": 10, "velocity": 36}, {"time": 108970, "pitch": 36, "duration": 10, "velocity": 90}, {"time": 108970, "pitch": 42, "duration": 10, "velocity": 113}, {"time": 109090, "pitch": 38, "duration": 10, "velocity": 64}, {"time": 109210, "pitch": 42, "duration": 10, "velocity": 64}, {"time": 109450, "pitch": 38, "duration": 10, "velocity": 127}, {"time": 109450, "pitch": 42, "duration": 10, "velocity": 127}, {"time": 109690, "pitch": 42, "duration": 10, "velocity": 35}, {"time": 109810, "pitch": 36, "duration": 10, "velocity": 51}, {"time": 109810, "pitch": 42, "duration": 10, "velocity": 92}, {"time": 109930, "pitch": 36, "duration": 10, "velocity": 102}, {"time": 109930, "pitch": 42, "duration": 10, "velocity": 64}, {"time": 110050, "pitch": 38, "duration": 10, "velocity": 50}, {"time": 110170, "pitch": 42, "duration": 10, "velocity": 78}, {"time": 110410, "pitch": 38, "duration": 10, "velocity": 127}, {"time": 110410, "pitch": 42, "duration": 10, "velocity": 106}, {"time": 110530, "pitch": 42, "duration": 10, "velocity": 36}, {"time": 110650, "pitch": 42, "duration": 10, "velocity": 36}, {"time": 110770, "pitch": 36, "duration": 10, "velocity": 85}, {"time": 110770, "pitch": 42, "duration": 10, "velocity": 106}, {"time": 110890, "pitch": 42, "duration": 10, "velocity": 50}, {"time": 111010, "pitch": 36, "duration": 10, "velocity": 51}, {"time": 111130, "pitch": 36, "duration": 10, "velocity": 85}, {"time": 111130, "pitch": 42, "duration": 10, "velocity": 106}, {"time": 111250, "pitch": 42, "duration": 10, "velocity": 35}, {"time": 111370, "pitch": 38, "duration": 10, "velocity": 127}, {"time": 111370, "pitch": 42, "duration": 10, "velocity": 127}, {"time": 111490, "pitch": 38, "duration": 10, "velocity": 50}, {"time": 111490, "pitch": 42, "duration": 10, "velocity": 64}, {"time": 111610, "pitch": 36, "duration": 10, "velocity": 73}, {"time": 111610, "pitch": 46, "duration": 10, "velocity": 100}, {"time": 111750, "pitch": 38, "duration": 10, "velocity": 36}, {"time": 111800, "pitch": 38, "duration": 10, "velocity": 50}, {"time": 111850, "pitch": 36, "duration": 10, "velocity": 102}, {"time": 111850, "pitch": 42, "duration": 10, "velocity": 106}, {"time": 112090, "pitch": 42, "duration": 10, "velocity": 78}, {"time": 112210, "pitch": 42, "duration": 10, "velocity": 22}, {"time": 112330, "pitch": 38, "duration": 10, "velocity": 127}, {"time": 112330, "pitch": 42, "duration": 10, "velocity": 92}, {"time": 112450, "pitch": 42, "duration": 10, "velocity": 36}, {"time": 112570, "pitch": 42, "duration": 10, "velocity": 106}, {"time": 112690, "pitch": 36, "duration": 10, "velocity": 63}, {"time": 112690, "pitch": 42, "duration": 10, "velocity": 78}, {"time": 112810, "pitch": 36, "duration": 10, "velocity": 102}, {"time": 112810, "pitch": 42, "duration": 10, "velocity": 120}, {"time": 112930, "pitch": 38, "duration": 10, "velocity": 78}, {"time": 113050, "pitch": 42, "duration": 10, "velocity": 36}, {"time": 113170, "pitch": 36, "duration": 10, "velocity": 51}, {"time": 113170, "pitch": 42, "duration": 10, "velocity": 78}, {"time": 113290, "pitch": 38, "duration": 10, "velocity": 127}, {"time": 113290, "pitch": 42, "duration": 10, "velocity": 120}, {"time": 113530, "pitch": 42, "duration": 10, "velocity": 64}, {"time": 113650, "pitch": 36, "duration": 10, "velocity": 51}, {"time": 113650, "pitch": 42, "duration": 10, "velocity": 36}, {"time": 113770, "pitch": 36, "duration": 10, "velocity": 102}, {"time": 113770, "pitch": 51, "duration": 10, "velocity": 102}, {"time": 113890, "pitch": 42, "duration": 10, "velocity": 36}, {"time": 114010, "pitch": 42, "duration": 10, "velocity": 78}, {"time": 114130, "pitch": 36, "duration": 10, "velocity": 51}, {"time": 114130, "pitch": 42, "duration": 10, "velocity": 22}, {"time": 114250, "pitch": 38, "duration": 10, "velocity": 127}, {"time": 114250, "pitch": 42, "duration": 10, "velocity": 106}, {"time": 114370, "pitch": 36, "duration": 10, "velocity": 51}, {"time": 114370, "pitch": 42, "duration": 10, "velocity": 36}, {"time": 114490, "pitch": 36, "duration": 10, "velocity": 102}, {"time": 114490, "pitch": 42, "duration": 10, "velocity": 64}, {"time": 114610, "pitch": 42, "duration": 10, "velocity": 36}, {"time": 114630, "pitch": 38, "duration": 10, "velocity": 36}, {"time": 114680, "pitch": 38, "duration": 10, "velocity": 50}, {"time": 114730, "pitch": 36, "duration": 10, "velocity": 97}, {"time": 114730, "pitch": 42, "duration": 10, "velocity": 113}, {"time": 114850, "pitch": 38, "duration": 10, "velocity": 92}, {"time": 114970, "pitch": 42, "duration": 10, "velocity": 35}, {"time": 115090, "pitch": 36, "duration": 10, "velocity": 63}, {"time": 115090, "pitch": 42, "duration": 10, "velocity": 35}, {"time": 115210, "pitch": 38, "duration": 10, "velocity": 127}, {"time": 115210, "pitch": 42, "duration": 10, "velocity": 127}, {"time": 115450, "pitch": 46, "duration": 10, "velocity": 100}, {"time": 115690, "pitch": 36, "duration": 10, "velocity": 102}, {"time": 115690, "pitch": 42, "duration": 10, "velocity": 110}, {"time": 115810, "pitch": 42, "duration": 10, "velocity": 20}, {"time": 115930, "pitch": 42, "duration": 10, "velocity": 40}, {"time": 116050, "pitch": 42, "duration": 10, "velocity": 20}, {"time": 116170, "pitch": 38, "duration": 10, "velocity": 127}, {"time": 116170, "pitch": 42, "duration": 10, "velocity": 119}, {"time": 116290, "pitch": 42, "duration": 10, "velocity": 20}, {"time": 116410, "pitch": 42, "duration": 10, "velocity": 20}, {"time": 116530, "pitch": 36, "duration": 10, "velocity": 63}, {"time": 116530, "pitch": 42, "duration": 10, "velocity": 50}, {"time": 116650, "pitch": 36, "duration": 10, "velocity": 102}, {"time": 116650, "pitch": 42, "duration": 10, "velocity": 120}, {"time": 116770, "pitch": 38, "duration": 10, "velocity": 64}, {"time": 116890, "pitch": 42, "duration": 10, "velocity": 78}, {"time": 117010, "pitch": 42, "duration": 10, "velocity": 36}, {"time": 117030, "pitch": 38, "duration": 10, "velocity": 36}, {"time": 117080, "pitch": 38, "duration": 10, "velocity": 50}, {"time": 117130, "pitch": 38, "duration": 10, "velocity": 127}, {"time": 117250, "pitch": 38, "duration": 10, "velocity": 92}, {"time": 117370, "pitch": 36, "duration": 10, "velocity": 86}, {"time": 117370, "pitch": 46, "duration": 10, "velocity": 92}, {"time": 117610, "pitch": 36, "duration": 10, "velocity": 102}, {"time": 117610, "pitch": 44, "duration": 10, "velocity": 92}, {"time": 117610, "pitch": 49, "duration": 10, "velocity": 78}, {"time": 117730, "pitch": 38, "duration": 10, "velocity": 78}, {"time": 117850, "pitch": 38, "duration": 10, "velocity": 50}, {"time": 117850, "pitch": 44, "duration": 10, "velocity": 92}, {"time": 117970, "pitch": 36, "duration": 10, "velocity": 73}, {"time": 118090, "pitch": 38, "duration": 10, "velocity": 106}, {"time": 118090, "pitch": 44, "duration": 10, "velocity": 92}, {"time": 118090, "pitch": 49, "duration": 10, "velocity": 64}, {"time": 118220, "pitch": 38, "duration": 10, "velocity": 120}, {"time": 118220, "pitch": 49, "duration": 10, "velocity": 78}, {"time": 118330, "pitch": 44, "duration": 10, "velocity": 92}, {"time": 118340, "pitch": 45, "duration": 10, "velocity": 92}, {"time": 118390, "pitch": 38, "duration": 10, "velocity": 36}, {"time": 118450, "pitch": 38, "duration": 10, "velocity": 50}, {"time": 118510, "pitch": 38, "duration": 10, "velocity": 64}, {"time": 118570, "pitch": 38, "duration": 10, "velocity": 120}, {"time": 118570, "pitch": 44, "duration": 10, "velocity": 92}, {"time": 118690, "pitch": 36, "duration": 10, "velocity": 73}, {"time": 118810, "pitch": 43, "duration": 10, "velocity": 78}, {"time": 118810, "pitch": 44, "duration": 10, "velocity": 92}, {"time": 118930, "pitch": 36, "duration": 10, "velocity": 73}, {"time": 119050, "pitch": 38, "duration": 10, "velocity": 127}, {"time": 119050, "pitch": 44, "duration": 10, "velocity": 92}, {"time": 119050, "pitch": 49, "duration": 10, "velocity": 78}, {"time": 119170, "pitch": 45, "duration": 10, "velocity": 78}, {"time": 119290, "pitch": 43, "duration": 10, "velocity": 78}, {"time": 119290, "pitch": 44, "duration": 10, "velocity": 92}, {"time": 119430, "pitch": 38, "duration": 10, "velocity": 36}, {"time": 119480, "pitch": 38, "duration": 10, "velocity": 50}, {"time": 119530, "pitch": 36, "duration": 10, "velocity": 91}, {"time": 119530, "pitch": 57, "duration": 10, "velocity": 92}, {"time": 119770, "pitch": 42, "duration": 10, "velocity": 36}, {"time": 120010, "pitch": 38, "duration": 10, "velocity": 127}, {"time": 120010, "pitch": 42, "duration": 10, "velocity": 120}, {"time": 120250, "pitch": 42, "duration": 10, "velocity": 36}, {"time": 120370, "pitch": 36, "duration": 10, "velocity": 73}, {"time": 120370, "pitch": 46, "duration": 10, "velocity": 78}, {"time": 120460, "pitch": 44, "duration": 10, "velocity": 50}, {"time": 120490, "pitch": 42, "duration": 10, "velocity": 64}, {"time": 120610, "pitch": 36, "duration": 10, "velocity": 51}, {"time": 120610, "pitch": 42, "duration": 10, "velocity": 36}, {"time": 120730, "pitch": 36, "duration": 10, "velocity": 73}, {"time": 120730, "pitch": 42, "duration": 10, "velocity": 64}, {"time": 120850, "pitch": 42, "duration": 10, "velocity": 36}, {"time": 120970, "pitch": 38, "duration": 10, "velocity": 127}, {"time": 120970, "pitch": 42, "duration": 10, "velocity": 120}, {"time": 121210, "pitch": 36, "duration": 10, "velocity": 43}, {"time": 121210, "pitch": 42, "duration": 10, "velocity": 36}, {"time": 121350, "pitch": 38, "duration": 10, "velocity": 36}, {"time": 121400, "pitch": 38, "duration": 10, "velocity": 50}, {"time": 121450, "pitch": 36, "duration": 10, "velocity": 91}, {"time": 121450, "pitch": 42, "duration": 10, "velocity": 106}, {"time": 121690, "pitch": 42, "duration": 10, "velocity": 36}, {"time": 121930, "pitch": 38, "duration": 10, "velocity": 127}, {"time": 121930, "pitch": 42, "duration": 10, "velocity": 120}, {"time": 122170, "pitch": 42, "duration": 10, "velocity": 36}, {"time": 122290, "pitch": 36, "duration": 10, "velocity": 73}, {"time": 122410, "pitch": 42, "duration": 10, "velocity": 106}, {"time": 122530, "pitch": 36, "duration": 10, "velocity": 51}, {"time": 122650, "pitch": 36, "duration": 10, "velocity": 73}, {"time": 122650, "pitch": 42, "duration": 10, "velocity": 36}, {"time": 122890, "pitch": 38, "duration": 10, "velocity": 127}, {"time": 122890, "pitch": 42, "duration": 10, "velocity": 120}, {"time": 123130, "pitch": 36, "duration": 10, "velocity": 83}, {"time": 123130, "pitch": 42, "duration": 10, "velocity": 36}, {"time": 123270, "pitch": 38, "duration": 10, "velocity": 36}, {"time": 123320, "pitch": 38, "duration": 10, "velocity": 50}, {"time": 123370, "pitch": 36, "duration": 10, "velocity": 91}, {"time": 123370, "pitch": 42, "duration": 10, "velocity": 106}, {"time": 123610, "pitch": 42, "duration": 10, "velocity": 36}, {"time": 123850, "pitch": 38, "duration": 10, "velocity": 127}, {"time": 123850, "pitch": 42, "duration": 10, "velocity": 120}, {"time": 124090, "pitch": 42, "duration": 10, "velocity": 36}, {"time": 124210, "pitch": 36, "duration": 10, "velocity": 85}, {"time": 124330, "pitch": 42, "duration": 10, "velocity": 106}, {"time": 124450, "pitch": 36, "duration": 10, "velocity": 51}, {"time": 124570, "pitch": 36, "duration": 10, "velocity": 73}, {"time": 124570, "pitch": 42, "duration": 10, "velocity": 36}, {"time": 124810, "pitch": 38, "duration": 10, "velocity": 127}, {"time": 124810, "pitch": 42, "duration": 10, "velocity": 120}, {"time": 125050, "pitch": 36, "duration": 10, "velocity": 63}, {"time": 125050, "pitch": 42, "duration": 10, "velocity": 36}, {"time": 125190, "pitch": 38, "duration": 10, "velocity": 36}, {"time": 125240, "pitch": 38, "duration": 10, "velocity": 50}, {"time": 125290, "pitch": 36, "duration": 10, "velocity": 91}, {"time": 125290, "pitch": 42, "duration": 10, "velocity": 106}, {"time": 125530, "pitch": 42, "duration": 10, "velocity": 36}, {"time": 125770, "pitch": 38, "duration": 10, "velocity": 127}, {"time": 125770, "pitch": 42, "duration": 10, "velocity": 120}, {"time": 125890, "pitch": 36, "duration": 10, "velocity": 63}, {"time": 126010, "pitch": 36, "duration": 10, "velocity": 73}, {"time": 126010, "pitch": 42, "duration": 10, "velocity": 36}, {"time": 126250, "pitch": 36, "duration": 10, "velocity": 85}, {"time": 126250, "pitch": 42, "duration": 10, "velocity": 92}, {"time": 126370, "pitch": 38, "duration": 10, "velocity": 78}, {"time": 126490, "pitch": 42, "duration": 10, "velocity": 106}, {"time": 126610, "pitch": 36, "duration": 10, "velocity": 73}, {"time": 126610, "pitch": 42, "duration": 10, "velocity": 36}, {"time": 126730, "pitch": 38, "duration": 10, "velocity": 127}, {"time": 126850, "pitch": 38, "duration": 10, "velocity": 92}, {"time": 126970, "pitch": 36, "duration": 10, "velocity": 83}, {"time": 126970, "pitch": 46, "duration": 10, "velocity": 106}, {"time": 127210, "pitch": 36, "duration": 10, "velocity": 91}, {"time": 127210, "pitch": 44, "duration": 10, "velocity": 78}, {"time": 127210, "pitch": 57, "duration": 10, "velocity": 92}, {"time": 127450, "pitch": 42, "duration": 10, "velocity": 36}, {"time": 127690, "pitch": 38, "duration": 10, "velocity": 127}, {"time": 127690, "pitch": 42, "duration": 10, "velocity": 120}, {"time": 127930, "pitch": 42, "duration": 10, "velocity": 36}, {"time": 128050, "pitch": 36, "duration": 10, "velocity": 73}, {"time": 128170, "pitch": 42, "duration": 10, "velocity": 106}, {"time": 128290, "pitch": 36, "duration": 10, "velocity": 51}, {"time": 128410, "pitch": 36, "duration": 10, "velocity": 73}, {"time": 128410, "pitch": 42, "duration": 10, "velocity": 36}, {"time": 128650, "pitch": 38, "duration": 10, "velocity": 127}, {"time": 128650, "pitch": 42, "duration": 10, "velocity": 120}, {"time": 128890, "pitch": 36, "duration": 10, "velocity": 43}, {"time": 128890, "pitch": 42, "duration": 10, "velocity": 36}, {"time": 129030, "pitch": 38, "duration": 10, "velocity": 36}, {"time": 129080, "pitch": 38, "duration": 10, "velocity": 50}, {"time": 129130, "pitch": 36, "duration": 10, "velocity": 91}, {"time": 129130, "pitch": 42, "duration": 10, "velocity": 106}, {"time": 129370, "pitch": 42, "duration": 10, "velocity": 36}, {"time": 129610, "pitch": 38, "duration": 10, "velocity": 127}, {"time": 129610, "pitch": 42, "duration": 10, "velocity": 120}, {"time": 129730, "pitch": 36, "duration": 10, "velocity": 50}, {"time": 129850, "pitch": 36, "duration": 10, "velocity": 91}, {"time": 129850, "pitch": 42, "duration": 10, "velocity": 36}, {"time": 130090, "pitch": 42, "duration": 10, "velocity": 127}, {"time": 130210, "pitch": 38, "duration": 10, "velocity": 78}, {"time": 130330, "pitch": 42, "duration": 10, "velocity": 64}, {"time": 130450, "pitch": 42, "duration": 10, "velocity": 106}, {"time": 130570, "pitch": 38, "duration": 10, "velocity": 127}, {"time": 130690, "pitch": 42, "duration": 10, "velocity": 64}, {"time": 130810, "pitch": 36, "duration": 10, "velocity": 83}, {"time": 130810, "pitch": 46, "duration": 10, "velocity": 106}, {"time": 130950, "pitch": 38, "duration": 10, "velocity": 36}, {"time": 131000, "pitch": 38, "duration": 10, "velocity": 50}, {"time": 131050, "pitch": 36, "duration": 10, "velocity": 91}, {"time": 131050, "pitch": 42, "duration": 10, "velocity": 106}, {"time": 131290, "pitch": 42, "duration": 10, "velocity": 36}, {"time": 131530, "pitch": 38, "duration": 10, "velocity": 127}, {"time": 131530, "pitch": 42, "duration": 10, "velocity": 120}, {"time": 131650, "pitch": 36, "duration": 10, "velocity": 51}, {"time": 131770, "pitch": 36, "duration": 10, "velocity": 73}, {"time": 131770, "pitch": 42, "duration": 10, "velocity": 36}, {"time": 132010, "pitch": 36, "duration": 10, "velocity": 91}, {"time": 132010, "pitch": 42, "duration": 10, "velocity": 106}, {"time": 132130, "pitch": 38, "duration": 10, "velocity": 92}, {"time": 132250, "pitch": 46, "duration": 10, "velocity": 64}, {"time": 132370, "pitch": 36, "duration": 10, "velocity": 63}, {"time": 132490, "pitch": 38, "duration": 10, "velocity": 127}, {"time": 132490, "pitch": 46, "duration": 10, "velocity": 78}, {"time": 132610, "pitch": 38, "duration": 10, "velocity": 92}, {"time": 132730, "pitch": 36, "duration": 10, "velocity": 43}, {"time": 132730, "pitch": 46, "duration": 10, "velocity": 106}, {"time": 132850, "pitch": 38, "duration": 10, "velocity": 92}, {"time": 132970, "pitch": 36, "duration": 10, "velocity": 91}, {"time": 132970, "pitch": 57, "duration": 10, "velocity": 78}, {"time": 133090, "pitch": 47, "duration": 10, "velocity": 78}, {"time": 133210, "pitch": 43, "duration": 10, "velocity": 92}, {"time": 133210, "pitch": 44, "duration": 10, "velocity": 92}, {"time": 133370, "pitch": 38, "duration": 10, "velocity": 36}, {"time": 133410, "pitch": 38, "duration": 10, "velocity": 50}, {"time": 133450, "pitch": 38, "duration": 10, "velocity": 127}, {"time": 133450, "pitch": 44, "duration": 10, "velocity": 92}, {"time": 133570, "pitch": 36, "duration": 10, "velocity": 85}, {"time": 133570, "pitch": 46, "duration": 10, "velocity": 120}, {"time": 133690, "pitch": 44, "duration": 10, "velocity": 50}, {"time": 133810, "pitch": 36, "duration": 10, "velocity": 85}, {"time": 133810, "pitch": 49, "duration": 10, "velocity": 92}, {"time": 134050, "pitch": 38, "duration": 10, "velocity": 106}, {"time": 134170, "pitch": 42, "duration": 10, "velocity": 20}, {"time": 134170, "pitch": 44, "duration": 10, "velocity": 92}, {"time": 134170, "pitch": 45, "duration": 10, "velocity": 92}, {"time": 134290, "pitch": 38, "duration": 10, "velocity": 50}, {"time": 134350, "pitch": 38, "duration": 10, "velocity": 64}, {"time": 134410, "pitch": 38, "duration": 10, "velocity": 127}, {"time": 134410, "pitch": 42, "duration": 10, "velocity": 127}, {"time": 134410, "pitch": 44, "duration": 10, "velocity": 92}, {"time": 134530, "pitch": 45, "duration": 10, "velocity": 78}, {"time": 134650, "pitch": 42, "duration": 10, "velocity": 20}, {"time": 134650, "pitch": 43, "duration": 10, "velocity": 92}, {"time": 134650, "pitch": 44, "duration": 10, "velocity": 92}, {"time": 134770, "pitch": 36, "duration": 10, "velocity": 85}, {"time": 134770, "pitch": 57, "duration": 10, "velocity": 92}, {"time": 134890, "pitch": 36, "duration": 10, "velocity": 96}, {"time": 134890, "pitch": 49, "duration": 10, "velocity": 110}, {"time": 135260, "pitch": 36, "duration": 10, "velocity": 63}, {"time": 135370, "pitch": 36, "duration": 10, "velocity": 85}, {"time": 135370, "pitch": 38, "duration": 10, "velocity": 127}, {"time": 135370, "pitch": 57, "duration": 10, "velocity": 117}, {"time": 135730, "pitch": 36, "duration": 10, "velocity": 51}, {"time": 135850, "pitch": 36, "duration": 10, "velocity": 90}, {"time": 135850, "pitch": 57, "duration": 10, "velocity": 117}, {"time": 136220, "pitch": 36, "duration": 10, "velocity": 73}, {"time": 136330, "pitch": 38, "duration": 10, "velocity": 78}, {"time": 136350, "pitch": 38, "duration": 10, "velocity": 120}, {"time": 136450, "pitch": 36, "duration": 10, "velocity": 85}, {"time": 136810, "pitch": 36, "duration": 10, "velocity": 102}, {"time": 136810, "pitch": 49, "duration": 10, "velocity": 92}, {"time": 137050, "pitch": 42, "duration": 10, "velocity": 78}, {"time": 137170, "pitch": 42, "duration": 10, "velocity": 22}, {"time": 137290, "pitch": 38, "duration": 10, "velocity": 127}, {"time": 137290, "pitch": 42, "duration": 10, "velocity": 106}, {"time": 137410, "pitch": 36, "duration": 10, "velocity": 51}, {"time": 137410, "pitch": 42, "duration": 10, "velocity": 36}, {"time": 137530, "pitch": 36, "duration": 10, "velocity": 102}, {"time": 137530, "pitch": 42, "duration": 10, "velocity": 64}, {"time": 137650, "pitch": 42, "duration": 10, "velocity": 36}, {"time": 137770, "pitch": 36, "duration": 10, "velocity": 97}, {"time": 137770, "pitch": 42, "duration": 10, "velocity": 120}, {"time": 138010, "pitch": 42, "duration": 10, "velocity": 35}, {"time": 138130, "pitch": 42, "duration": 10, "velocity": 35}, {"time": 138250, "pitch": 38, "duration": 10, "velocity": 127}, {"time": 138250, "pitch": 42, "duration": 10, "velocity": 127}, {"time": 138370, "pitch": 42, "duration": 10, "velocity": 64}, {"time": 138490, "pitch": 36, "duration": 10, "velocity": 73}, {"time": 138490, "pitch": 46, "duration": 10, "velocity": 100}, {"time": 138630, "pitch": 38, "duration": 10, "velocity": 36}, {"time": 138680, "pitch": 38, "duration": 10, "velocity": 50}, {"time": 138730, "pitch": 36, "duration": 10, "velocity": 96}, {"time": 138730, "pitch": 42, "duration": 10, "velocity": 106}, {"time": 138850, "pitch": 38, "duration": 10, "velocity": 50}, {"time": 138850, "pitch": 42, "duration": 10, "velocity": 36}, {"time": 138970, "pitch": 42, "duration": 10, "velocity": 78}, {"time": 139090, "pitch": 42, "duration": 10, "velocity": 36}, {"time": 139210, "pitch": 38, "duration": 10, "velocity": 127}, {"time": 139210, "pitch": 42, "duration": 10, "velocity": 106}, {"time": 139330, "pitch": 42, "duration": 10, "velocity": 36}, {"time": 139450, "pitch": 42, "duration": 10, "velocity": 64}, {"time": 139570, "pitch": 36, "duration": 10, "velocity": 51}, {"time": 139570, "pitch": 42, "duration": 10, "velocity": 36}, {"time": 139690, "pitch": 36, "duration": 10, "velocity": 102}, {"time": 139690, "pitch": 42, "duration": 10, "velocity": 120}, {"time": 139930, "pitch": 42, "duration": 10, "velocity": 64}, {"time": 140050, "pitch": 42, "duration": 10, "velocity": 36}, {"time": 140170, "pitch": 38, "duration": 10, "velocity": 127}, {"time": 140170, "pitch": 42, "duration": 10, "velocity": 120}, {"time": 140410, "pitch": 42, "duration": 10, "velocity": 64}, {"time": 140530, "pitch": 36, "duration": 10, "velocity": 51}, {"time": 140650, "pitch": 36, "duration": 10, "velocity": 102}, {"time": 140650, "pitch": 42, "duration": 10, "velocity": 64}, {"time": 140770, "pitch": 42, "duration": 10, "velocity": 36}, {"time": 140890, "pitch": 42, "duration": 10, "velocity": 78}, {"time": 141010, "pitch": 42, "duration": 10, "velocity": 36}, {"time": 141130, "pitch": 38, "duration": 10, "velocity": 127}, {"time": 141130, "pitch": 42, "duration": 10, "velocity": 106}, {"time": 141250, "pitch": 36, "duration": 10, "velocity": 51}, {"time": 141250, "pitch": 42, "duration": 10, "velocity": 36}, {"time": 141370, "pitch": 36, "duration": 10, "velocity": 85}, {"time": 141370, "pitch": 46, "duration": 10, "velocity": 92}, {"time": 141510, "pitch": 38, "duration": 10, "velocity": 50}, {"time": 141560, "pitch": 38, "duration": 10, "velocity": 64}, {"time": 141610, "pitch": 36, "duration": 10, "velocity": 85}, {"time": 141610, "pitch": 42, "duration": 10, "velocity": 64}, {"time": 141730, "pitch": 38, "duration": 10, "velocity": 92}, {"time": 141730, "pitch": 42, "duration": 10, "velocity": 36}, {"time": 141850, "pitch": 42, "duration": 10, "velocity": 106}, {"time": 141970, "pitch": 36, "duration": 10, "velocity": 73}, {"time": 141970, "pitch": 42, "duration": 10, "velocity": 36}, {"time": 142090, "pitch": 38, "duration": 10, "velocity": 127}, {"time": 142210, "pitch": 38, "duration": 10, "velocity": 50}, {"time": 142330, "pitch": 36, "duration": 10, "velocity": 73}, {"time": 142330, "pitch": 46, "duration": 10, "velocity": 100}, {"time": 142570, "pitch": 36, "duration": 10, "velocity": 96}, {"time": 142570, "pitch": 49, "duration": 10, "velocity": 110}, {"time": 142810, "pitch": 42, "duration": 10, "velocity": 106}, {"time": 142930, "pitch": 42, "duration": 10, "velocity": 36}, {"time": 142940, "pitch": 36, "duration": 10, "velocity": 63}, {"time": 143050, "pitch": 36, "duration": 10, "velocity": 85}, {"time": 143050, "pitch": 38, "duration": 10, "velocity": 127}, {"time": 143050, "pitch": 57, "duration": 10, "velocity": 117}, {"time": 143290, "pitch": 42, "duration": 10, "velocity": 106}, {"time": 143410, "pitch": 36, "duration": 10, "velocity": 63}, {"time": 143410, "pitch": 42, "duration": 10, "velocity": 36}, {"time": 143530, "pitch": 36, "duration": 10, "velocity": 90}, {"time": 143530, "pitch": 57, "duration": 10, "velocity": 117}, {"time": 143770, "pitch": 42, "duration": 10, "velocity": 106}, {"time": 143900, "pitch": 36, "duration": 10, "velocity": 73}, {"time": 143900, "pitch": 42, "duration": 10, "velocity": 36}, {"time": 144010, "pitch": 36, "duration": 10, "velocity": 85}, {"time": 144010, "pitch": 38, "duration": 10, "velocity": 120}, {"time": 144010, "pitch": 42, "duration": 10, "velocity": 92}, {"time": 144130, "pitch": 42, "duration": 10, "velocity": 36}, {"time": 144250, "pitch": 46, "duration": 10, "velocity": 106}, {"time": 144490, "pitch": 36, "duration": 10, "velocity": 102}, {"time": 144490, "pitch": 44, "duration": 10, "velocity": 50}, {"time": 144490, "pitch": 49, "duration": 10, "velocity": 92}, {"time": 144730, "pitch": 42, "duration": 10, "velocity": 78}, {"time": 144850, "pitch": 42, "duration": 10, "velocity": 22}, {"time": 144970, "pitch": 38, "duration": 10, "velocity": 127}, {"time": 144970, "pitch": 42, "duration": 10, "velocity": 106}, {"time": 145090, "pitch": 36, "duration": 10, "velocity": 51}, {"time": 145090, "pitch": 42, "duration": 10, "velocity": 36}, {"time": 145210, "pitch": 36, "duration": 10, "velocity": 102}, {"time": 145210, "pitch": 42, "duration": 10, "velocity": 64}, {"time": 145330, "pitch": 42, "duration": 10, "velocity": 36}, {"time": 145450, "pitch": 36, "duration": 10, "velocity": 97}, {"time": 145450, "pitch": 42, "duration": 10, "velocity": 120}, {"time": 145690, "pitch": 42, "duration": 10, "velocity": 35}, {"time": 145810, "pitch": 36, "duration": 10, "velocity": 51}, {"time": 145810, "pitch": 42, "duration": 10, "velocity": 35}, {"time": 145930, "pitch": 38, "duration": 10, "velocity": 127}, {"time": 145930, "pitch": 42, "duration": 10, "velocity": 127}, {"time": 146050, "pitch": 42, "duration": 10, "velocity": 64}, {"time": 146170, "pitch": 36, "duration": 10, "velocity": 73}, {"time": 146170, "pitch": 46, "duration": 10, "velocity": 100}, {"time": 146410, "pitch": 36, "duration": 10, "velocity": 96}, {"time": 146410, "pitch": 42, "duration": 10, "velocity": 106}, {"time": 146530, "pitch": 42, "duration": 10, "velocity": 36}, {"time": 146650, "pitch": 42, "duration": 10, "velocity": 78}, {"time": 146770, "pitch": 42, "duration": 10, "velocity": 36}, {"time": 146890, "pitch": 38, "duration": 10, "velocity": 127}, {"time": 146890, "pitch": 42, "duration": 10, "velocity": 106}, {"time": 147010, "pitch": 42, "duration": 10, "velocity": 36}, {"time": 147130, "pitch": 42, "duration": 10, "velocity": 64}, {"time": 147250, "pitch": 36, "duration": 10, "velocity": 51}, {"time": 147250, "pitch": 42, "duration": 10, "velocity": 36}, {"time": 147370, "pitch": 36, "duration": 10, "velocity": 102}, {"time": 147370, "pitch": 42, "duration": 10, "velocity": 120}, {"time": 147610, "pitch": 42, "duration": 10, "velocity": 64}, {"time": 147730, "pitch": 42, "duration": 10, "velocity": 36}, {"time": 147850, "pitch": 38, "duration": 10, "velocity": 127}, {"time": 147850, "pitch": 42, "duration": 10, "velocity": 120}, {"time": 148090, "pitch": 42, "duration": 10, "velocity": 64}, {"time": 148210, "pitch": 36, "duration": 10, "velocity": 51}, {"time": 148210, "pitch": 42, "duration": 10, "velocity": 36}, {"time": 148270, "pitch": 42, "duration": 10, "velocity": 36}, {"time": 148330, "pitch": 36, "duration": 10, "velocity": 102}, {"time": 148330, "pitch": 42, "duration": 10, "velocity": 92}, {"time": 148450, "pitch": 42, "duration": 10, "velocity": 36}, {"time": 148570, "pitch": 42, "duration": 10, "velocity": 78}, {"time": 148690, "pitch": 42, "duration": 10, "velocity": 36}, {"time": 148810, "pitch": 38, "duration": 10, "velocity": 127}, {"time": 148810, "pitch": 42, "duration": 10, "velocity": 106}, {"time": 148930, "pitch": 36, "duration": 10, "velocity": 51}, {"time": 148930, "pitch": 42, "duration": 10, "velocity": 36}, {"time": 149050, "pitch": 36, "duration": 10, "velocity": 85}, {"time": 149050, "pitch": 46, "duration": 10, "velocity": 92}, {"time": 149190, "pitch": 38, "duration": 10, "velocity": 36}, {"time": 149240, "pitch": 38, "duration": 10, "velocity": 50}, {"time": 149290, "pitch": 36, "duration": 10, "velocity": 85}, {"time": 149290, "pitch": 42, "duration": 10, "velocity": 64}, {"time": 149410, "pitch": 38, "duration": 10, "velocity": 92}, {"time": 149410, "pitch": 42, "duration": 10, "velocity": 36}, {"time": 149530, "pitch": 42, "duration": 10, "velocity": 106}, {"time": 149650, "pitch": 36, "duration": 10, "velocity": 73}, {"time": 149650, "pitch": 42, "duration": 10, "velocity": 36}, {"time": 149770, "pitch": 38, "duration": 10, "velocity": 127}, {"time": 149890, "pitch": 38, "duration": 10, "velocity": 50}, {"time": 150010, "pitch": 36, "duration": 10, "velocity": 73}, {"time": 150010, "pitch": 46, "duration": 10, "velocity": 100}, {"time": 150250, "pitch": 36, "duration": 10, "velocity": 102}, {"time": 150250, "pitch": 42, "duration": 10, "velocity": 110}, {"time": 150490, "pitch": 42, "duration": 10, "velocity": 64}, {"time": 150610, "pitch": 42, "duration": 10, "velocity": 36}, {"time": 150730, "pitch": 38, "duration": 10, "velocity": 127}, {"time": 150730, "pitch": 42, "duration": 10, "velocity": 119}, {"time": 150970, "pitch": 42, "duration": 10, "velocity": 64}, {"time": 151090, "pitch": 36, "duration": 10, "velocity": 63}, {"time": 151090, "pitch": 42, "duration": 10, "velocity": 36}, {"time": 151210, "pitch": 36, "duration": 10, "velocity": 102}, {"time": 151210, "pitch": 46, "duration": 10, "velocity": 78}, {"time": 151330, "pitch": 46, "duration": 10, "velocity": 36}, {"time": 151450, "pitch": 46, "duration": 10, "velocity": 92}, {"time": 151610, "pitch": 38, "duration": 10, "velocity": 36}, {"time": 151650, "pitch": 38, "duration": 10, "velocity": 50}, {"time": 151690, "pitch": 38, "duration": 10, "velocity": 127}, {"time": 151810, "pitch": 38, "duration": 10, "velocity": 92}, {"time": 151930, "pitch": 36, "duration": 10, "velocity": 86}, {"time": 151930, "pitch": 45, "duration": 10, "velocity": 106}, {"time": 152170, "pitch": 36, "duration": 10, "velocity": 96}, {"time": 152170, "pitch": 49, "duration": 10, "velocity": 78}, {"time": 152410, "pitch": 46, "duration": 10, "velocity": 92}, {"time": 152650, "pitch": 36, "duration": 10, "velocity": 85}, {"time": 152650, "pitch": 42, "duration": 10, "velocity": 119}, {"time": 152770, "pitch": 42, "duration": 10, "velocity": 36}, {"time": 152890, "pitch": 42, "duration": 10, "velocity": 64}, {"time": 153010, "pitch": 42, "duration": 10, "velocity": 106}, {"time": 153370, "pitch": 42, "duration": 10, "velocity": 36}, {"time": 153490, "pitch": 42, "duration": 10, "velocity": 36}, {"time": 153610, "pitch": 36, "duration": 10, "velocity": 85}, {"time": 153610, "pitch": 42, "duration": 10, "velocity": 120}, {"time": 153850, "pitch": 42, "duration": 10, "velocity": 36}, {"time": 153850, "pitch": 57, "duration": 10, "velocity": 20}, {"time": 153880, "pitch": 57, "duration": 10, "velocity": 24}, {"time": 153910, "pitch": 57, "duration": 10, "velocity": 28}, {"time": 153940, "pitch": 57, "duration": 10, "velocity": 32}, {"time": 153970, "pitch": 42, "duration": 10, "velocity": 36}, {"time": 153970, "pitch": 57, "duration": 10, "velocity": 36}, {"time": 154000, "pitch": 57, "duration": 10, "velocity": 40}, {"time": 154030, "pitch": 57, "duration": 10, "velocity": 44}, {"time": 154060, "pitch": 57, "duration": 10, "velocity": 48}, {"time": 154090, "pitch": 42, "duration": 10, "velocity": 110}, {"time": 154090, "pitch": 57, "duration": 10, "velocity": 92}, {"time": 154210, "pitch": 42, "duration": 10, "velocity": 20}, {"time": 154330, "pitch": 42, "duration": 10, "velocity": 36}, {"time": 154450, "pitch": 42, "duration": 10, "velocity": 36}, {"time": 154570, "pitch": 36, "duration": 10, "velocity": 85}, {"time": 154570, "pitch": 42, "duration": 10, "velocity": 119}, {"time": 154690, "pitch": 42, "duration": 10, "velocity": 20}, {"time": 154810, "pitch": 42, "duration": 10, "velocity": 36}, {"time": 154930, "pitch": 42, "duration": 10, "velocity": 36}, {"time": 155050, "pitch": 42, "duration": 10, "velocity": 113}, {"time": 155170, "pitch": 42, "duration": 10, "velocity": 36}, {"time": 155290, "pitch": 42, "duration": 10, "velocity": 35}, {"time": 155530, "pitch": 36, "duration": 10, "velocity": 85}, {"time": 155530, "pitch": 42, "duration": 10, "velocity": 127}, {"time": 155780, "pitch": 42, "duration": 10, "velocity": 36}, {"time": 155850, "pitch": 42, "duration": 10, "velocity": 36}, {"time": 155930, "pitch": 42, "duration": 10, "velocity": 50}, {"time": 156010, "pitch": 42, "duration": 10, "velocity": 110}, {"time": 156130, "pitch": 42, "duration": 10, "velocity": 20}, {"time": 156250, "pitch": 42, "duration": 10, "velocity": 40}, {"time": 156370, "pitch": 42, "duration": 10, "velocity": 20}, {"time": 156490, "pitch": 36, "duration": 10, "velocity": 85}, {"time": 156490, "pitch": 42, "duration": 10, "velocity": 119}, {"time": 156610, "pitch": 42, "duration": 10, "velocity": 20}, {"time": 156730, "pitch": 42, "duration": 10, "velocity": 20}, {"time": 156850, "pitch": 42, "duration": 10, "velocity": 50}, {"time": 156970, "pitch": 42, "duration": 10, "velocity": 113}, {"time": 157210, "pitch": 42, "duration": 10, "velocity": 35}, {"time": 157330, "pitch": 42, "duration": 10, "velocity": 35}, {"time": 157450, "pitch": 36, "duration": 10, "velocity": 85}, {"time": 157450, "pitch": 42, "duration": 10, "velocity": 127}, {"time": 157570, "pitch": 42, "duration": 10, "velocity": 64}, {"time": 157690, "pitch": 46, "duration": 10, "velocity": 100}, {"time": 157930, "pitch": 42, "duration": 10, "velocity": 110}, {"time": 158050, "pitch": 42, "duration": 10, "velocity": 20}, {"time": 158170, "pitch": 46, "duration": 10, "velocity": 106}, {"time": 158310, "pitch": 38, "duration": 10, "velocity": 36}, {"time": 158360, "pitch": 38, "duration": 10, "velocity": 50}, {"time": 158410, "pitch": 38, "duration": 10, "velocity": 106}, {"time": 158410, "pitch": 44, "duration": 10, "velocity": 92}, {"time": 158530, "pitch": 38, "duration": 10, "velocity": 50}, {"time": 158650, "pitch": 44, "duration": 10, "velocity": 78}, {"time": 158650, "pitch": 45, "duration": 10, "velocity": 106}, {"time": 158780, "pitch": 38, "duration": 10, "velocity": 78}, {"time": 158890, "pitch": 38, "duration": 10, "velocity": 120}, {"time": 158890, "pitch": 44, "duration": 10, "velocity": 92}, {"time": 159010, "pitch": 45, "duration": 10, "velocity": 92}, {"time": 159130, "pitch": 36, "duration": 10, "velocity": 85}, {"time": 159130, "pitch": 46, "duration": 10, "velocity": 106}, {"time": 159140, "pitch": 38, "duration": 10, "velocity": 22}, {"time": 159190, "pitch": 38, "duration": 10, "velocity": 36}, {"time": 159250, "pitch": 38, "duration": 10, "velocity": 64}, {"time": 159310, "pitch": 38, "duration": 10, "velocity": 78}, {"time": 159370, "pitch": 38, "duration": 10, "velocity": 106}, {"time": 159370, "pitch": 42, "duration": 10, "velocity": 127}, {"time": 159370, "pitch": 44, "duration": 10, "velocity": 78}, {"time": 159490, "pitch": 45, "duration": 10, "velocity": 92}, {"time": 159610, "pitch": 41, "duration": 10, "velocity": 92}, {"time": 159610, "pitch": 42, "duration": 10, "velocity": 35}, {"time": 159610, "pitch": 44, "duration": 10, "velocity": 78}, {"time": 159850, "pitch": 36, "duration": 10, "velocity": 85}, {"time": 159850, "pitch": 44, "duration": 10, "velocity": 78}, {"time": 159850, "pitch": 49, "duration": 10, "velocity": 78}, {"time": 160090, "pitch": 44, "duration": 10, "velocity": 78}, {"time": 160210, "pitch": 36, "duration": 10, "velocity": 73}, {"time": 160210, "pitch": 57, "duration": 10, "velocity": 64}, {"time": 160330, "pitch": 44, "duration": 10, "velocity": 78}, {"time": 160570, "pitch": 36, "duration": 10, "velocity": 85}, {"time": 160570, "pitch": 44, "duration": 10, "velocity": 78}, {"time": 160570, "pitch": 49, "duration": 10, "velocity": 78}], "annotations": [{"time": 336, "annotation": {"number": 7, "value": 110}, "group": "control_change"}, {"time": 360, "annotation": {"number": 11, "value": 127}, "group": "control_change"}, {"time": 384, "annotation": {"number": 10, "value": 64}, "group": "control_change"}, {"time": 408, "annotation": {"number": 91, "value": 64}, "group": "control_change"}, {"time": 432, "annotation": {"number": 93, "value": 0}, "group": "control_change"}, {"time": 456, "annotation": {"number": 101, "value": 0}, "group": "control_change"}, {"time": 480, "annotation": {"number": 100, "value": 0}, "group": "control_change"}, {"time": 480, "annotation": {"number": 6, "value": 2}, "group": "control_change"}, {"time": 480, "annotation": {"number": 101, "value": 127}, "group": "control_change"}, {"time": 480, "annotation": {"number": 100, "value": 127}, "group": "control_change"}]}, {"program": 0, "is_drum": false, "name": "Percussion", "annotations": [{"time": 264, "annotation": {"number": 0, "value": 0}, "group": "control_change"}, {"time": 288, "annotation": {"number": 32, "value": 2}, "group": "control_change"}]}, {"program": 49, "is_drum": false, "name": "Percussion", "notes": [{"time": 480, "pitch": 77, "duration": 10, "velocity": 64}, {"time": 717, "pitch": 75, "duration": 9, "velocity": 36}, {"time": 845, "pitch": 75, "duration": 10, "velocity": 22}, {"time": 953, "pitch": 73, "duration": 10, "velocity": 70}, {"time": 1083, "pitch": 75, "duration": 10, "velocity": 22}, {"time": 1193, "pitch": 75, "duration": 10, "velocity": 36}, {"time": 1323, "pitch": 75, "duration": 10, "velocity": 50}, {"time": 1433, "pitch": 75, "duration": 10, "velocity": 64}, {"time": 1913, "pitch": 73, "duration": 10, "velocity": 70}, {"time": 2153, "pitch": 74, "duration": 10, "velocity": 36}, {"time": 2633, "pitch": 75, "duration": 10, "velocity": 36}, {"time": 2763, "pitch": 75, "duration": 10, "velocity": 22}, {"time": 2873, "pitch": 73, "duration": 10, "velocity": 70}, {"time": 3003, "pitch": 75, "duration": 10, "velocity": 22}, {"time": 3113, "pitch": 75, "duration": 10, "velocity": 36}, {"time": 3243, "pitch": 75, "duration": 10, "velocity": 50}, {"time": 3353, "pitch": 75, "duration": 10, "velocity": 50}, {"time": 3833, "pitch": 73, "duration": 10, "velocity": 70}, {"time": 3965, "pitch": 75, "duration": 10, "velocity": 22}, {"time": 4076, "pitch": 74, "duration": 10, "velocity": 22}, {"time": 4208, "pitch": 74, "duration": 10, "velocity": 36}, {"time": 4320, "pitch": 77, "duration": 10, "velocity": 64}, {"time": 4560, "pitch": 75, "duration": 10, "velocity": 36}, {"time": 4690, "pitch": 75, "duration": 10, "velocity": 22}, {"time": 4800, "pitch": 73, "duration": 10, "velocity": 70}, {"time": 4930, "pitch": 75, "duration": 10, "velocity": 22}, {"time": 5040, "pitch": 75, "duration": 10, "velocity": 36}, {"time": 5170, "pitch": 75, "duration": 10, "velocity": 50}, {"time": 5280, "pitch": 75, "duration": 10, "velocity": 64}, {"time": 5760, "pitch": 73, "duration": 10, "velocity": 70}, {"time": 6000, "pitch": 74, "duration": 10, "velocity": 36}, {"time": 6480, "pitch": 75, "duration": 10, "velocity": 36}, {"time": 6610, "pitch": 75, "duration": 10, "velocity": 22}, {"time": 6720, "pitch": 73, "duration": 10, "velocity": 70}, {"time": 6850, "pitch": 75, "duration": 10, "velocity": 22}, {"time": 6960, "pitch": 75, "duration": 10, "velocity": 36}, {"time": 7090, "pitch": 75, "duration": 10, "velocity": 50}, {"time": 7200, "pitch": 75, "duration": 10, "velocity": 64}, {"time": 7440, "pitch": 77, "duration": 10, "velocity": 64}, {"time": 7680, "pitch": 73, "duration": 10, "velocity": 70}, {"time": 7920, "pitch": 77, "duration": 10, "velocity": 64}, {"time": 8050, "pitch": 75, "duration": 10, "velocity": 36}, {"time": 8160, "pitch": 77, "duration": 10, "velocity": 64}, {"time": 8400, "pitch": 75, "duration": 10, "velocity": 36}, {"time": 8530, "pitch": 75, "duration": 10, "velocity": 22}, {"time": 8640, "pitch": 73, "duration": 10, "velocity": 70}, {"time": 8770, "pitch": 75, "duration": 10, "velocity": 36}, {"time": 8880, "pitch": 77, "duration": 10, "velocity": 64}, {"time": 9120, "pitch": 77, "duration": 10, "velocity": 78}, {"time": 9250, "pitch": 75, "duration": 10, "velocity": 22}, {"time": 9360, "pitch": 75, "duration": 10, "velocity": 22}, {"time": 9490, "pitch": 75, "duration": 10, "velocity": 36}, {"time": 9600, "pitch": 73, "duration": 10, "velocity": 70}, {"time": 9730, "pitch": 74, "duration": 10, "velocity": 36}, {"time": 9840, "pitch": 74, "duration": 10, "velocity": 50}, {"time": 10320, "pitch": 75, "duration": 10, "velocity": 22}, {"time": 10450, "pitch": 75, "duration": 10, "velocity": 36}, {"time": 10560, "pitch": 73, "duration": 10, "velocity": 70}, {"time": 10800, "pitch": 77, "duration": 10, "velocity": 64}, {"time": 11040, "pitch": 77, "duration": 10, "velocity": 78}, {"time": 11170, "pitch": 75, "duration": 10, "velocity": 22}, {"time": 11280, "pitch": 75, "duration": 10, "velocity": 36}, {"time": 11410, "pitch": 75, "duration": 10, "velocity": 50}, {"time": 11520, "pitch": 73, "duration": 10, "velocity": 70}, {"time": 11760, "pitch": 74, "duration": 10, "velocity": 50}, {"time": 11890, "pitch": 74, "duration": 10, "velocity": 64}, {"time": 12000, "pitch": 77, "duration": 10, "velocity": 64}, {"time": 12240, "pitch": 75, "duration": 10, "velocity": 36}, {"time": 12370, "pitch": 75, "duration": 10, "velocity": 22}, {"time": 12480, "pitch": 73, "duration": 10, "velocity": 70}, {"time": 12610, "pitch": 75, "duration": 10, "velocity": 36}, {"time": 12720, "pitch": 77, "duration": 10, "velocity": 64}, {"time": 12960, "pitch": 77, "duration": 10, "velocity": 78}, {"time": 13090, "pitch": 75, "duration": 10, "velocity": 22}, {"time": 13330, "pitch": 75, "duration": 10, "velocity": 36}, {"time": 13440, "pitch": 73, "duration": 10, "velocity": 70}, {"time": 13920, "pitch": 77, "duration": 10, "velocity": 64}, {"time": 14160, "pitch": 75, "duration": 10, "velocity": 22}, {"time": 14290, "pitch": 75, "duration": 10, "velocity": 50}, {"time": 14400, "pitch": 73, "duration": 10, "velocity": 70}, {"time": 14530, "pitch": 74, "duration": 10, "velocity": 36}, {"time": 14640, "pitch": 74, "duration": 10, "velocity": 64}, {"time": 14770, "pitch": 75, "duration": 10, "velocity": 36}, {"time": 14880, "pitch": 77, "duration": 10, "velocity": 78}, {"time": 15010, "pitch": 75, "duration": 10, "velocity": 22}, {"time": 15250, "pitch": 75, "duration": 10, "velocity": 36}, {"time": 15360, "pitch": 73, "duration": 10, "velocity": 70}, {"time": 15600, "pitch": 74, "duration": 10, "velocity": 50}, {"time": 15730, "pitch": 74, "duration": 10, "velocity": 64}, {"time": 15840, "pitch": 77, "duration": 10, "velocity": 64}, {"time": 15970, "pitch": 75, "duration": 10, "velocity": 36}, {"time": 16080, "pitch": 77, "duration": 10, "velocity": 36}, {"time": 16210, "pitch": 77, "duration": 10, "velocity": 50}, {"time": 16320, "pitch": 73, "duration": 10, "velocity": 70}, {"time": 16450, "pitch": 75, "duration": 10, "velocity": 36}, {"time": 16560, "pitch": 77, "duration": 10, "velocity": 64}, {"time": 16800, "pitch": 77, "duration": 10, "velocity": 78}, {"time": 16930, "pitch": 75, "duration": 10, "velocity": 22}, {"time": 17170, "pitch": 75, "duration": 10, "velocity": 36}, {"time": 17280, "pitch": 73, "duration": 10, "velocity": 70}, {"time": 17520, "pitch": 74, "duration": 10, "velocity": 50}, {"time": 17650, "pitch": 75, "duration": 10, "velocity": 36}, {"time": 17890, "pitch": 75, "duration": 10, "velocity": 36}, {"time": 18000, "pitch": 77, "duration": 10, "velocity": 36}, {"time": 18130, "pitch": 77, "duration": 10, "velocity": 50}, {"time": 18240, "pitch": 73, "duration": 10, "velocity": 70}, {"time": 18370, "pitch": 75, "duration": 10, "velocity": 36}, {"time": 18480, "pitch": 77, "duration": 10, "velocity": 64}, {"time": 18720, "pitch": 77, "duration": 10, "velocity": 78}, {"time": 18850, "pitch": 75, "duration": 10, "velocity": 22}, {"time": 19090, "pitch": 75, "duration": 10, "velocity": 36}, {"time": 19200, "pitch": 73, "duration": 10, "velocity": 70}, {"time": 19440, "pitch": 74, "duration": 10, "velocity": 50}, {"time": 19570, "pitch": 75, "duration": 10, "velocity": 36}, {"time": 19680, "pitch": 77, "duration": 10, "velocity": 64}, {"time": 19810, "pitch": 75, "duration": 10, "velocity": 36}, {"time": 19920, "pitch": 77, "duration": 10, "velocity": 36}, {"time": 20050, "pitch": 77, "duration": 10, "velocity": 50}, {"time": 20160, "pitch": 73, "duration": 10, "velocity": 70}, {"time": 20290, "pitch": 75, "duration": 10, "velocity": 36}, {"time": 20400, "pitch": 77, "duration": 10, "velocity": 64}, {"time": 20640, "pitch": 77, "duration": 10, "velocity": 78}, {"time": 20770, "pitch": 75, "duration": 10, "velocity": 22}, {"time": 21010, "pitch": 75, "duration": 10, "velocity": 36}, {"time": 21120, "pitch": 73, "duration": 10, "velocity": 70}, {"time": 21360, "pitch": 74, "duration": 10, "velocity": 50}, {"time": 21490, "pitch": 75, "duration": 10, "velocity": 36}, {"time": 21730, "pitch": 73, "duration": 10, "velocity": 50}, {"time": 21840, "pitch": 77, "duration": 10, "velocity": 36}, {"time": 21970, "pitch": 77, "duration": 10, "velocity": 50}, {"time": 22080, "pitch": 73, "duration": 10, "velocity": 70}, {"time": 22210, "pitch": 75, "duration": 10, "velocity": 36}, {"time": 22320, "pitch": 77, "duration": 10, "velocity": 64}, {"time": 22560, "pitch": 77, "duration": 10, "velocity": 78}, {"time": 22690, "pitch": 75, "duration": 10, "velocity": 22}, {"time": 22930, "pitch": 75, "duration": 10, "velocity": 36}, {"time": 23040, "pitch": 73, "duration": 10, "velocity": 70}, {"time": 23170, "pitch": 74, "duration": 10, "velocity": 36}, {"time": 23220, "pitch": 74, "duration": 10, "velocity": 50}, {"time": 23280, "pitch": 74, "duration": 10, "velocity": 50}, {"time": 23410, "pitch": 74, "duration": 10, "velocity": 50}, {"time": 23520, "pitch": 77, "duration": 10, "velocity": 64}, {"time": 23760, "pitch": 75, "duration": 10, "velocity": 36}, {"time": 23890, "pitch": 77, "duration": 10, "velocity": 50}, {"time": 24000, "pitch": 73, "duration": 10, "velocity": 64}, {"time": 24240, "pitch": 77, "duration": 10, "velocity": 64}, {"time": 24480, "pitch": 77, "duration": 10, "velocity": 78}, {"time": 24610, "pitch": 75, "duration": 10, "velocity": 22}, {"time": 24850, "pitch": 75, "duration": 10, "velocity": 36}, {"time": 24960, "pitch": 73, "duration": 10, "velocity": 70}, {"time": 25200, "pitch": 74, "duration": 10, "velocity": 36}, {"time": 25330, "pitch": 74, "duration": 10, "velocity": 50}, {"time": 25570, "pitch": 75, "duration": 10, "velocity": 36}, {"time": 25680, "pitch": 77, "duration": 10, "velocity": 36}, {"time": 25810, "pitch": 75, "duration": 10, "velocity": 64}, {"time": 25920, "pitch": 73, "duration": 10, "velocity": 70}, {"time": 26050, "pitch": 77, "duration": 10, "velocity": 36}, {"time": 26160, "pitch": 77, "duration": 10, "velocity": 64}, {"time": 26400, "pitch": 77, "duration": 10, "velocity": 78}, {"time": 26530, "pitch": 75, "duration": 10, "velocity": 22}, {"time": 26770, "pitch": 75, "duration": 10, "velocity": 36}, {"time": 26880, "pitch": 73, "duration": 10, "velocity": 70}, {"time": 27120, "pitch": 74, "duration": 10, "velocity": 36}, {"time": 27250, "pitch": 74, "duration": 10, "velocity": 50}, {"time": 27360, "pitch": 77, "duration": 10, "velocity": 64}, {"time": 27600, "pitch": 75, "duration": 10, "velocity": 36}, {"time": 27730, "pitch": 77, "duration": 10, "velocity": 50}, {"time": 27840, "pitch": 73, "duration": 10, "velocity": 64}, {"time": 28080, "pitch": 77, "duration": 10, "velocity": 64}, {"time": 28320, "pitch": 77, "duration": 10, "velocity": 78}, {"time": 28450, "pitch": 75, "duration": 10, "velocity": 22}, {"time": 28690, "pitch": 75, "duration": 10, "velocity": 36}, {"time": 28800, "pitch": 73, "duration": 10, "velocity": 70}, {"time": 29040, "pitch": 74, "duration": 10, "velocity": 36}, {"time": 29170, "pitch": 74, "duration": 10, "velocity": 50}, {"time": 29410, "pitch": 75, "duration": 10, "velocity": 36}, {"time": 29520, "pitch": 77, "duration": 10, "velocity": 36}, {"time": 29650, "pitch": 75, "duration": 10, "velocity": 64}, {"time": 29760, "pitch": 73, "duration": 10, "velocity": 70}, {"time": 29890, "pitch": 77, "duration": 10, "velocity": 36}, {"time": 30000, "pitch": 77, "duration": 10, "velocity": 64}, {"time": 30240, "pitch": 77, "duration": 10, "velocity": 78}, {"time": 30370, "pitch": 75, "duration": 10, "velocity": 22}, {"time": 30610, "pitch": 75, "duration": 10, "velocity": 36}, {"time": 30720, "pitch": 73, "duration": 10, "velocity": 70}, {"time": 30850, "pitch": 75, "duration": 10, "velocity": 36}, {"time": 30960, "pitch": 77, "duration": 10, "velocity": 78}, {"time": 31200, "pitch": 77, "duration": 10, "velocity": 64}, {"time": 31440, "pitch": 75, "duration": 10, "velocity": 36}, {"time": 31570, "pitch": 77, "duration": 10, "velocity": 50}, {"time": 31680, "pitch": 73, "duration": 10, "velocity": 64}, {"time": 31920, "pitch": 77, "duration": 10, "velocity": 64}, {"time": 32160, "pitch": 77, "duration": 10, "velocity": 78}, {"time": 32290, "pitch": 75, "duration": 10, "velocity": 22}, {"time": 32530, "pitch": 75, "duration": 10, "velocity": 36}, {"time": 32640, "pitch": 73, "duration": 10, "velocity": 70}, {"time": 32880, "pitch": 74, "duration": 10, "velocity": 36}, {"time": 33010, "pitch": 74, "duration": 10, "velocity": 50}, {"time": 33250, "pitch": 75, "duration": 10, "velocity": 36}, {"time": 33360, "pitch": 77, "duration": 10, "velocity": 36}, {"time": 33490, "pitch": 75, "duration": 10, "velocity": 64}, {"time": 33600, "pitch": 73, "duration": 10, "velocity": 70}, {"time": 33730, "pitch": 77, "duration": 10, "velocity": 36}, {"time": 33840, "pitch": 77, "duration": 10, "velocity": 64}, {"time": 34080, "pitch": 77, "duration": 10, "velocity": 78}, {"time": 34210, "pitch": 75, "duration": 10, "velocity": 22}, {"time": 34450, "pitch": 75, "duration": 10, "velocity": 36}, {"time": 34560, "pitch": 73, "duration": 10, "velocity": 70}, {"time": 34800, "pitch": 74, "duration": 10, "velocity": 36}, {"time": 34930, "pitch": 74, "duration": 10, "velocity": 50}, {"time": 35040, "pitch": 77, "duration": 10, "velocity": 64}, {"time": 35280, "pitch": 75, "duration": 10, "velocity": 36}, {"time": 35410, "pitch": 77, "duration": 10, "velocity": 50}, {"time": 35520, "pitch": 73, "duration": 10, "velocity": 64}, {"time": 35760, "pitch": 77, "duration": 10, "velocity": 64}, {"time": 36000, "pitch": 77, "duration": 10, "velocity": 78}, {"time": 36130, "pitch": 75, "duration": 10, "velocity": 22}, {"time": 36370, "pitch": 75, "duration": 10, "velocity": 36}, {"time": 36480, "pitch": 73, "duration": 10, "velocity": 70}, {"time": 36720, "pitch": 74, "duration": 10, "velocity": 36}, {"time": 36850, "pitch": 74, "duration": 10, "velocity": 50}, {"time": 37090, "pitch": 75, "duration": 10, "velocity": 36}, {"time": 37200, "pitch": 77, "duration": 10, "velocity": 36}, {"time": 37330, "pitch": 75, "duration": 10, "velocity": 64}, {"time": 37440, "pitch": 73, "duration": 10, "velocity": 70}, {"time": 37570, "pitch": 77, "duration": 10, "velocity": 36}, {"time": 37680, "pitch": 77, "duration": 10, "velocity": 64}, {"time": 37920, "pitch": 77, "duration": 10, "velocity": 78}, {"time": 38050, "pitch": 75, "duration": 10, "velocity": 22}, {"time": 38290, "pitch": 75, "duration": 10, "velocity": 36}, {"time": 38400, "pitch": 73, "duration": 10, "velocity": 70}, {"time": 38530, "pitch": 75, "duration": 10, "velocity": 36}, {"time": 38640, "pitch": 77, "duration": 10, "velocity": 78}, {"time": 38880, "pitch": 77, "duration": 10, "velocity": 64}, {"time": 39120, "pitch": 75, "duration": 10, "velocity": 36}, {"time": 39250, "pitch": 77, "duration": 10, "velocity": 50}, {"time": 39360, "pitch": 73, "duration": 10, "velocity": 50}, {"time": 39370, "pitch": 73, "duration": 10, "velocity": 64}, {"time": 39600, "pitch": 77, "duration": 10, "velocity": 64}, {"time": 39840, "pitch": 77, "duration": 10, "velocity": 78}, {"time": 39970, "pitch": 75, "duration": 10, "velocity": 22}, {"time": 40210, "pitch": 75, "duration": 10, "velocity": 36}, {"time": 40320, "pitch": 73, "duration": 10, "velocity": 50}, {"time": 40330, "pitch": 73, "duration": 10, "velocity": 64}, {"time": 40560, "pitch": 74, "duration": 10, "velocity": 36}, {"time": 40690, "pitch": 74, "duration": 10, "velocity": 50}, {"time": 40930, "pitch": 75, "duration": 10, "velocity": 36}, {"time": 41040, "pitch": 77, "duration": 10, "velocity": 36}, {"time": 41170, "pitch": 75, "duration": 10, "velocity": 64}, {"time": 41280, "pitch": 73, "duration": 10, "velocity": 50}, {"time": 41290, "pitch": 73, "duration": 10, "velocity": 64}, {"time": 41410, "pitch": 77, "duration": 10, "velocity": 36}, {"time": 41520, "pitch": 77, "duration": 10, "velocity": 64}, {"time": 41760, "pitch": 77, "duration": 10, "velocity": 78}, {"time": 41890, "pitch": 74, "duration": 10, "velocity": 36}, {"time": 41940, "pitch": 74, "duration": 10, "velocity": 50}, {"time": 42000, "pitch": 74, "duration": 10, "velocity": 50}, {"time": 42130, "pitch": 74, "duration": 10, "velocity": 50}, {"time": 42240, "pitch": 74, "duration": 10, "velocity": 78}, {"time": 42370, "pitch": 75, "duration": 10, "velocity": 36}, {"time": 42480, "pitch": 74, "duration": 10, "velocity": 78}, {"time": 42720, "pitch": 77, "duration": 10, "velocity": 64}, {"time": 42720, "pitch": 86, "duration": 10, "velocity": 36}, {"time": 42850, "pitch": 86, "duration": 10, "velocity": 92}, {"time": 42960, "pitch": 75, "duration": 10, "velocity": 36}, {"time": 42960, "pitch": 86, "duration": 10, "velocity": 64}, {"time": 43090, "pitch": 77, "duration": 10, "velocity": 50}, {"time": 43090, "pitch": 86, "duration": 10, "velocity": 50}, {"time": 43200, "pitch": 73, "duration": 10, "velocity": 64}, {"time": 43200, "pitch": 86, "duration": 10, "velocity": 36}, {"time": 43330, "pitch": 86, "duration": 10, "velocity": 22}, {"time": 43330, "pitch": 97, "duration": 10, "velocity": 64}, {"time": 43440, "pitch": 77, "duration": 10, "velocity": 64}, {"time": 43440, "pitch": 86, "duration": 10, "velocity": 36}, {"time": 43440, "pitch": 97, "duration": 10, "velocity": 92}, {"time": 43570, "pitch": 86, "duration": 10, "velocity": 22}, {"time": 43680, "pitch": 77, "duration": 10, "velocity": 78}, {"time": 43680, "pitch": 86, "duration": 10, "velocity": 36}, {"time": 43810, "pitch": 75, "duration": 10, "velocity": 22}, {"time": 43810, "pitch": 86, "duration": 10, "velocity": 92}, {"time": 43920, "pitch": 86, "duration": 10, "velocity": 64}, {"time": 44050, "pitch": 75, "duration": 10, "velocity": 36}, {"time": 44050, "pitch": 86, "duration": 10, "velocity": 50}, {"time": 44160, "pitch": 73, "duration": 10, "velocity": 70}, {"time": 44160, "pitch": 86, "duration": 10, "velocity": 36}, {"time": 44160, "pitch": 99, "duration": 10, "velocity": 36}, {"time": 44290, "pitch": 86, "duration": 10, "velocity": 22}, {"time": 44290, "pitch": 99, "duration": 10, "velocity": 64}, {"time": 44400, "pitch": 74, "duration": 10, "velocity": 36}, {"time": 44400, "pitch": 86, "duration": 10, "velocity": 36}, {"time": 44400, "pitch": 98, "duration": 10, "velocity": 78}, {"time": 44530, "pitch": 74, "duration": 10, "velocity": 50}, {"time": 44530, "pitch": 86, "duration": 10, "velocity": 22}, {"time": 44640, "pitch": 86, "duration": 10, "velocity": 36}, {"time": 44770, "pitch": 75, "duration": 10, "velocity": 36}, {"time": 44770, "pitch": 86, "duration": 10, "velocity": 92}, {"time": 44880, "pitch": 77, "duration": 10, "velocity": 36}, {"time": 44880, "pitch": 86, "duration": 10, "velocity": 64}, {"time": 45010, "pitch": 75, "duration": 10, "velocity": 64}, {"time": 45010, "pitch": 86, "duration": 10, "velocity": 50}, {"time": 45120, "pitch": 73, "duration": 10, "velocity": 70}, {"time": 45120, "pitch": 86, "duration": 10, "velocity": 36}, {"time": 45250, "pitch": 77, "duration": 10, "velocity": 36}, {"time": 45250, "pitch": 86, "duration": 10, "velocity": 22}, {"time": 45360, "pitch": 77, "duration": 10, "velocity": 64}, {"time": 45360, "pitch": 86, "duration": 10, "velocity": 36}, {"time": 45490, "pitch": 86, "duration": 10, "velocity": 22}, {"time": 45600, "pitch": 77, "duration": 10, "velocity": 78}, {"time": 45600, "pitch": 86, "duration": 10, "velocity": 36}, {"time": 45730, "pitch": 75, "duration": 10, "velocity": 22}, {"time": 45730, "pitch": 86, "duration": 10, "velocity": 92}, {"time": 45840, "pitch": 86, "duration": 10, "velocity": 64}, {"time": 45970, "pitch": 26, "duration": 10, "velocity": 36}, {"time": 45970, "pitch": 75, "duration": 10, "velocity": 36}, {"time": 45970, "pitch": 86, "duration": 10, "velocity": 50}, {"time": 46020, "pitch": 26, "duration": 10, "velocity": 50}, {"time": 46080, "pitch": 26, "duration": 10, "velocity": 106}, {"time": 46080, "pitch": 73, "duration": 10, "velocity": 70}, {"time": 46080, "pitch": 86, "duration": 10, "velocity": 36}, {"time": 46210, "pitch": 74, "duration": 10, "velocity": 36}, {"time": 46210, "pitch": 86, "duration": 10, "velocity": 22}, {"time": 46320, "pitch": 74, "duration": 10, "velocity": 50}, {"time": 46320, "pitch": 86, "duration": 10, "velocity": 36}, {"time": 46450, "pitch": 86, "duration": 10, "velocity": 22}, {"time": 46560, "pitch": 77, "duration": 10, "velocity": 64}, {"time": 46560, "pitch": 86, "duration": 10, "velocity": 36}, {"time": 46690, "pitch": 86, "duration": 10, "velocity": 92}, {"time": 46800, "pitch": 75, "duration": 10, "velocity": 36}, {"time": 46800, "pitch": 86, "duration": 10, "velocity": 64}, {"time": 46930, "pitch": 77, "duration": 10, "velocity": 50}, {"time": 46930, "pitch": 86, "duration": 10, "velocity": 50}, {"time": 47040, "pitch": 73, "duration": 10, "velocity": 64}, {"time": 47040, "pitch": 86, "duration": 10, "velocity": 36}, {"time": 47170, "pitch": 86, "duration": 10, "velocity": 22}, {"time": 47170, "pitch": 97, "duration": 10, "velocity": 64}, {"time": 47280, "pitch": 77, "duration": 10, "velocity": 64}, {"time": 47280, "pitch": 86, "duration": 10, "velocity": 36}, {"time": 47280, "pitch": 97, "duration": 10, "velocity": 92}, {"time": 47410, "pitch": 86, "duration": 10, "velocity": 22}, {"time": 47520, "pitch": 77, "duration": 10, "velocity": 78}, {"time": 47520, "pitch": 86, "duration": 10, "velocity": 36}, {"time": 47650, "pitch": 75, "duration": 10, "velocity": 22}, {"time": 47650, "pitch": 86, "duration": 10, "velocity": 92}, {"time": 47760, "pitch": 86, "duration": 10, "velocity": 64}, {"time": 47890, "pitch": 75, "duration": 10, "velocity": 36}, {"time": 47890, "pitch": 86, "duration": 10, "velocity": 50}, {"time": 48000, "pitch": 73, "duration": 10, "velocity": 70}, {"time": 48000, "pitch": 86, "duration": 10, "velocity": 36}, {"time": 48000, "pitch": 99, "duration": 10, "velocity": 36}, {"time": 48130, "pitch": 86, "duration": 10, "velocity": 22}, {"time": 48130, "pitch": 99, "duration": 10, "velocity": 64}, {"time": 48240, "pitch": 74, "duration": 10, "velocity": 36}, {"time": 48240, "pitch": 86, "duration": 10, "velocity": 36}, {"time": 48240, "pitch": 98, "duration": 10, "velocity": 78}, {"time": 48370, "pitch": 74, "duration": 10, "velocity": 50}, {"time": 48370, "pitch": 86, "duration": 10, "velocity": 22}, {"time": 48480, "pitch": 86, "duration": 10, "velocity": 36}, {"time": 48610, "pitch": 75, "duration": 10, "velocity": 36}, {"time": 48610, "pitch": 86, "duration": 10, "velocity": 92}, {"time": 48720, "pitch": 77, "duration": 10, "velocity": 36}, {"time": 48720, "pitch": 86, "duration": 10, "velocity": 64}, {"time": 48850, "pitch": 75, "duration": 10, "velocity": 64}, {"time": 48850, "pitch": 86, "duration": 10, "velocity": 50}, {"time": 48960, "pitch": 73, "duration": 10, "velocity": 70}, {"time": 48960, "pitch": 86, "duration": 10, "velocity": 36}, {"time": 49090, "pitch": 77, "duration": 10, "velocity": 36}, {"time": 49090, "pitch": 86, "duration": 10, "velocity": 22}, {"time": 49200, "pitch": 77, "duration": 10, "velocity": 64}, {"time": 49200, "pitch": 86, "duration": 10, "velocity": 36}, {"time": 49330, "pitch": 86, "duration": 10, "velocity": 22}, {"time": 49440, "pitch": 77, "duration": 10, "velocity": 78}, {"time": 49440, "pitch": 86, "duration": 10, "velocity": 36}, {"time": 49570, "pitch": 75, "duration": 10, "velocity": 22}, {"time": 49570, "pitch": 86, "duration": 10, "velocity": 92}, {"time": 49680, "pitch": 86, "duration": 10, "velocity": 64}, {"time": 49810, "pitch": 26, "duration": 10, "velocity": 36}, {"time": 49810, "pitch": 75, "duration": 10, "velocity": 36}, {"time": 49810, "pitch": 86, "duration": 10, "velocity": 50}, {"time": 49860, "pitch": 26, "duration": 10, "velocity": 50}, {"time": 49920, "pitch": 26, "duration": 10, "velocity": 106}, {"time": 49920, "pitch": 73, "duration": 10, "velocity": 70}, {"time": 49920, "pitch": 86, "duration": 10, "velocity": 36}, {"time": 50050, "pitch": 74, "duration": 10, "velocity": 36}, {"time": 50050, "pitch": 86, "duration": 10, "velocity": 22}, {"time": 50100, "pitch": 74, "duration": 10, "velocity": 50}, {"time": 50160, "pitch": 74, "duration": 10, "velocity": 64}, {"time": 50160, "pitch": 86, "duration": 10, "velocity": 36}, {"time": 50220, "pitch": 74, "duration": 10, "velocity": 50}, {"time": 50280, "pitch": 77, "duration": 10, "velocity": 50}, {"time": 50280, "pitch": 86, "duration": 10, "velocity": 22}, {"time": 50340, "pitch": 77, "duration": 10, "velocity": 64}, {"time": 50400, "pitch": 77, "duration": 10, "velocity": 64}, {"time": 50400, "pitch": 86, "duration": 10, "velocity": 36}, {"time": 50530, "pitch": 86, "duration": 10, "velocity": 92}, {"time": 50640, "pitch": 75, "duration": 10, "velocity": 36}, {"time": 50640, "pitch": 86, "duration": 10, "velocity": 64}, {"time": 50770, "pitch": 77, "duration": 10, "velocity": 50}, {"time": 50770, "pitch": 86, "duration": 10, "velocity": 50}, {"time": 50880, "pitch": 73, "duration": 10, "velocity": 64}, {"time": 50880, "pitch": 86, "duration": 10, "velocity": 36}, {"time": 51010, "pitch": 86, "duration": 10, "velocity": 22}, {"time": 51010, "pitch": 97, "duration": 10, "velocity": 64}, {"time": 51120, "pitch": 77, "duration": 10, "velocity": 64}, {"time": 51120, "pitch": 86, "duration": 10, "velocity": 36}, {"time": 51120, "pitch": 97, "duration": 10, "velocity": 92}, {"time": 51250, "pitch": 86, "duration": 10, "velocity": 22}, {"time": 51360, "pitch": 77, "duration": 10, "velocity": 78}, {"time": 51360, "pitch": 86, "duration": 10, "velocity": 36}, {"time": 51490, "pitch": 75, "duration": 10, "velocity": 22}, {"time": 51490, "pitch": 86, "duration": 10, "velocity": 92}, {"time": 51600, "pitch": 86, "duration": 10, "velocity": 64}, {"time": 51730, "pitch": 75, "duration": 10, "velocity": 36}, {"time": 51730, "pitch": 86, "duration": 10, "velocity": 50}, {"time": 51840, "pitch": 73, "duration": 10, "velocity": 70}, {"time": 51840, "pitch": 86, "duration": 10, "velocity": 36}, {"time": 51840, "pitch": 99, "duration": 10, "velocity": 36}, {"time": 51970, "pitch": 86, "duration": 10, "velocity": 22}, {"time": 51970, "pitch": 99, "duration": 10, "velocity": 64}, {"time": 52080, "pitch": 74, "duration": 10, "velocity": 36}, {"time": 52080, "pitch": 86, "duration": 10, "velocity": 36}, {"time": 52080, "pitch": 98, "duration": 10, "velocity": 78}, {"time": 52210, "pitch": 74, "duration": 10, "velocity": 50}, {"time": 52210, "pitch": 86, "duration": 10, "velocity": 22}, {"time": 52320, "pitch": 86, "duration": 10, "velocity": 36}, {"time": 52450, "pitch": 75, "duration": 10, "velocity": 36}, {"time": 52450, "pitch": 86, "duration": 10, "velocity": 92}, {"time": 52560, "pitch": 77, "duration": 10, "velocity": 36}, {"time": 52560, "pitch": 86, "duration": 10, "velocity": 64}, {"time": 52690, "pitch": 75, "duration": 10, "velocity": 64}, {"time": 52690, "pitch": 86, "duration": 10, "velocity": 50}, {"time": 52800, "pitch": 73, "duration": 10, "velocity": 70}, {"time": 52800, "pitch": 86, "duration": 10, "velocity": 36}, {"time": 52930, "pitch": 77, "duration": 10, "velocity": 36}, {"time": 52930, "pitch": 86, "duration": 10, "velocity": 22}, {"time": 53040, "pitch": 77, "duration": 10, "velocity": 64}, {"time": 53040, "pitch": 86, "duration": 10, "velocity": 36}, {"time": 53170, "pitch": 86, "duration": 10, "velocity": 22}, {"time": 53280, "pitch": 77, "duration": 10, "velocity": 78}, {"time": 53280, "pitch": 86, "duration": 10, "velocity": 36}, {"time": 53410, "pitch": 75, "duration": 10, "velocity": 22}, {"time": 53410, "pitch": 86, "duration": 10, "velocity": 92}, {"time": 53520, "pitch": 86, "duration": 10, "velocity": 64}, {"time": 53650, "pitch": 26, "duration": 10, "velocity": 36}, {"time": 53650, "pitch": 75, "duration": 10, "velocity": 36}, {"time": 53650, "pitch": 86, "duration": 10, "velocity": 50}, {"time": 53700, "pitch": 26, "duration": 10, "velocity": 50}, {"time": 53760, "pitch": 26, "duration": 10, "velocity": 106}, {"time": 53760, "pitch": 73, "duration": 10, "velocity": 70}, {"time": 53760, "pitch": 86, "duration": 10, "velocity": 36}, {"time": 53890, "pitch": 74, "duration": 10, "velocity": 36}, {"time": 53890, "pitch": 86, "duration": 10, "velocity": 22}, {"time": 54000, "pitch": 74, "duration": 10, "velocity": 50}, {"time": 54000, "pitch": 86, "duration": 10, "velocity": 36}, {"time": 54130, "pitch": 86, "duration": 10, "velocity": 22}, {"time": 54240, "pitch": 77, "duration": 10, "velocity": 64}, {"time": 54240, "pitch": 86, "duration": 10, "velocity": 36}, {"time": 54370, "pitch": 86, "duration": 10, "velocity": 92}, {"time": 54480, "pitch": 75, "duration": 10, "velocity": 36}, {"time": 54480, "pitch": 86, "duration": 10, "velocity": 64}, {"time": 54610, "pitch": 77, "duration": 10, "velocity": 50}, {"time": 54610, "pitch": 86, "duration": 10, "velocity": 50}, {"time": 54720, "pitch": 73, "duration": 10, "velocity": 64}, {"time": 54720, "pitch": 86, "duration": 10, "velocity": 36}, {"time": 54850, "pitch": 86, "duration": 10, "velocity": 22}, {"time": 54850, "pitch": 97, "duration": 10, "velocity": 64}, {"time": 54960, "pitch": 77, "duration": 10, "velocity": 64}, {"time": 54960, "pitch": 86, "duration": 10, "velocity": 36}, {"time": 54960, "pitch": 97, "duration": 10, "velocity": 92}, {"time": 55090, "pitch": 86, "duration": 10, "velocity": 22}, {"time": 55200, "pitch": 77, "duration": 10, "velocity": 78}, {"time": 55200, "pitch": 86, "duration": 10, "velocity": 36}, {"time": 55330, "pitch": 75, "duration": 10, "velocity": 22}, {"time": 55330, "pitch": 86, "duration": 10, "velocity": 92}, {"time": 55440, "pitch": 86, "duration": 10, "velocity": 64}, {"time": 55570, "pitch": 75, "duration": 10, "velocity": 36}, {"time": 55570, "pitch": 86, "duration": 10, "velocity": 50}, {"time": 55680, "pitch": 73, "duration": 10, "velocity": 70}, {"time": 55680, "pitch": 86, "duration": 10, "velocity": 36}, {"time": 55680, "pitch": 99, "duration": 10, "velocity": 36}, {"time": 55810, "pitch": 86, "duration": 10, "velocity": 22}, {"time": 55810, "pitch": 99, "duration": 10, "velocity": 64}, {"time": 55920, "pitch": 74, "duration": 10, "velocity": 36}, {"time": 55920, "pitch": 86, "duration": 10, "velocity": 36}, {"time": 55920, "pitch": 98, "duration": 10, "velocity": 78}, {"time": 56050, "pitch": 74, "duration": 10, "velocity": 50}, {"time": 56050, "pitch": 86, "duration": 10, "velocity": 22}, {"time": 56160, "pitch": 86, "duration": 10, "velocity": 36}, {"time": 56290, "pitch": 75, "duration": 10, "velocity": 36}, {"time": 56290, "pitch": 86, "duration": 10, "velocity": 92}, {"time": 56400, "pitch": 77, "duration": 10, "velocity": 36}, {"time": 56400, "pitch": 86, "duration": 10, "velocity": 64}, {"time": 56530, "pitch": 75, "duration": 10, "velocity": 64}, {"time": 56530, "pitch": 86, "duration": 10, "velocity": 50}, {"time": 56640, "pitch": 73, "duration": 10, "velocity": 70}, {"time": 56640, "pitch": 86, "duration": 10, "velocity": 36}, {"time": 56770, "pitch": 77, "duration": 10, "velocity": 36}, {"time": 56770, "pitch": 86, "duration": 10, "velocity": 22}, {"time": 56880, "pitch": 77, "duration": 10, "velocity": 64}, {"time": 56880, "pitch": 86, "duration": 10, "velocity": 36}, {"time": 57010, "pitch": 86, "duration": 10, "velocity": 22}, {"time": 57120, "pitch": 77, "duration": 10, "velocity": 78}, {"time": 57120, "pitch": 86, "duration": 10, "velocity": 36}, {"time": 57250, "pitch": 75, "duration": 10, "velocity": 22}, {"time": 57250, "pitch": 86, "duration": 10, "velocity": 92}, {"time": 57360, "pitch": 86, "duration": 10, "velocity": 64}, {"time": 57490, "pitch": 26, "duration": 10, "velocity": 36}, {"time": 57490, "pitch": 75, "duration": 10, "velocity": 36}, {"time": 57490, "pitch": 86, "duration": 10, "velocity": 50}, {"time": 57540, "pitch": 26, "duration": 10, "velocity": 50}, {"time": 57600, "pitch": 26, "duration": 10, "velocity": 106}, {"time": 57600, "pitch": 73, "duration": 10, "velocity": 70}, {"time": 57600, "pitch": 86, "duration": 10, "velocity": 36}, {"time": 57730, "pitch": 74, "duration": 10, "velocity": 36}, {"time": 57730, "pitch": 86, "duration": 10, "velocity": 22}, {"time": 57840, "pitch": 74, "duration": 10, "velocity": 50}, {"time": 57840, "pitch": 86, "duration": 10, "velocity": 36}, {"time": 57970, "pitch": 86, "duration": 10, "velocity": 22}, {"time": 58080, "pitch": 77, "duration": 10, "velocity": 64}, {"time": 58080, "pitch": 86, "duration": 10, "velocity": 36}, {"time": 58210, "pitch": 86, "duration": 10, "velocity": 92}, {"time": 58320, "pitch": 75, "duration": 10, "velocity": 36}, {"time": 58320, "pitch": 86, "duration": 10, "velocity": 64}, {"time": 58450, "pitch": 77, "duration": 10, "velocity": 50}, {"time": 58450, "pitch": 86, "duration": 10, "velocity": 50}, {"time": 58560, "pitch": 73, "duration": 10, "velocity": 64}, {"time": 58560, "pitch": 86, "duration": 10, "velocity": 36}, {"time": 58690, "pitch": 86, "duration": 10, "velocity": 22}, {"time": 58690, "pitch": 97, "duration": 10, "velocity": 64}, {"time": 58800, "pitch": 77, "duration": 10, "velocity": 64}, {"time": 58800, "pitch": 86, "duration": 10, "velocity": 36}, {"time": 58800, "pitch": 97, "duration": 10, "velocity": 92}, {"time": 58930, "pitch": 86, "duration": 10, "velocity": 22}, {"time": 59040, "pitch": 77, "duration": 10, "velocity": 78}, {"time": 59040, "pitch": 86, "duration": 10, "velocity": 36}, {"time": 59170, "pitch": 75, "duration": 10, "velocity": 22}, {"time": 59170, "pitch": 86, "duration": 10, "velocity": 92}, {"time": 59280, "pitch": 86, "duration": 10, "velocity": 64}, {"time": 59410, "pitch": 75, "duration": 10, "velocity": 36}, {"time": 59410, "pitch": 86, "duration": 10, "velocity": 50}, {"time": 59520, "pitch": 73, "duration": 10, "velocity": 70}, {"time": 59520, "pitch": 86, "duration": 10, "velocity": 36}, {"time": 59520, "pitch": 99, "duration": 10, "velocity": 36}, {"time": 59650, "pitch": 86, "duration": 10, "velocity": 22}, {"time": 59650, "pitch": 99, "duration": 10, "velocity": 64}, {"time": 59760, "pitch": 74, "duration": 10, "velocity": 36}, {"time": 59760, "pitch": 86, "duration": 10, "velocity": 36}, {"time": 59760, "pitch": 98, "duration": 10, "velocity": 78}, {"time": 59890, "pitch": 74, "duration": 10, "velocity": 50}, {"time": 59890, "pitch": 86, "duration": 10, "velocity": 50}, {"time": 59910, "pitch": 86, "duration": 10, "velocity": 40}, {"time": 59940, "pitch": 86, "duration": 10, "velocity": 45}, {"time": 59970, "pitch": 86, "duration": 10, "velocity": 35}, {"time": 60000, "pitch": 86, "duration": 10, "velocity": 40}, {"time": 60030, "pitch": 86, "duration": 10, "velocity": 30}, {"time": 60060, "pitch": 86, "duration": 10, "velocity": 35}, {"time": 60090, "pitch": 86, "duration": 10, "velocity": 25}, {"time": 60120, "pitch": 75, "duration": 10, "velocity": 36}, {"time": 60120, "pitch": 86, "duration": 10, "velocity": 30}, {"time": 60150, "pitch": 86, "duration": 10, "velocity": 20}, {"time": 60180, "pitch": 86, "duration": 10, "velocity": 25}, {"time": 60210, "pitch": 86, "duration": 10, "velocity": 15}, {"time": 60240, "pitch": 77, "duration": 10, "velocity": 36}, {"time": 60240, "pitch": 86, "duration": 10, "velocity": 20}, {"time": 60270, "pitch": 86, "duration": 10, "velocity": 10}, {"time": 60300, "pitch": 86, "duration": 10, "velocity": 15}, {"time": 60330, "pitch": 86, "duration": 10, "velocity": 9}, {"time": 60360, "pitch": 75, "duration": 10, "velocity": 64}, {"time": 60360, "pitch": 86, "duration": 10, "velocity": 10}, {"time": 60390, "pitch": 86, "duration": 10, "velocity": 8}, {"time": 60420, "pitch": 86, "duration": 10, "velocity": 9}, {"time": 60450, "pitch": 86, "duration": 10, "velocity": 7}, {"time": 60480, "pitch": 73, "duration": 10, "velocity": 70}, {"time": 60480, "pitch": 86, "duration": 10, "velocity": 8}, {"time": 60510, "pitch": 86, "duration": 10, "velocity": 6}, {"time": 60540, "pitch": 86, "duration": 10, "velocity": 7}, {"time": 60570, "pitch": 86, "duration": 10, "velocity": 5}, {"time": 60610, "pitch": 77, "duration": 10, "velocity": 36}, {"time": 60720, "pitch": 77, "duration": 10, "velocity": 64}, {"time": 60960, "pitch": 77, "duration": 10, "velocity": 78}, {"time": 60960, "pitch": 86, "duration": 10, "velocity": 36}, {"time": 61090, "pitch": 75, "duration": 10, "velocity": 22}, {"time": 61090, "pitch": 86, "duration": 10, "velocity": 92}, {"time": 61200, "pitch": 86, "duration": 10, "velocity": 64}, {"time": 61330, "pitch": 26, "duration": 10, "velocity": 36}, {"time": 61330, "pitch": 75, "duration": 10, "velocity": 36}, {"time": 61330, "pitch": 86, "duration": 10, "velocity": 50}, {"time": 61380, "pitch": 26, "duration": 10, "velocity": 50}, {"time": 61440, "pitch": 26, "duration": 10, "velocity": 106}, {"time": 61440, "pitch": 73, "duration": 10, "velocity": 70}, {"time": 61440, "pitch": 86, "duration": 10, "velocity": 36}, {"time": 61570, "pitch": 74, "duration": 10, "velocity": 36}, {"time": 61570, "pitch": 86, "duration": 10, "velocity": 22}, {"time": 61680, "pitch": 74, "duration": 10, "velocity": 50}, {"time": 61680, "pitch": 86, "duration": 10, "velocity": 36}, {"time": 61810, "pitch": 86, "duration": 10, "velocity": 22}, {"time": 61920, "pitch": 77, "duration": 10, "velocity": 64}, {"time": 61920, "pitch": 86, "duration": 10, "velocity": 36}, {"time": 62050, "pitch": 86, "duration": 10, "velocity": 92}, {"time": 62160, "pitch": 75, "duration": 10, "velocity": 36}, {"time": 62160, "pitch": 86, "duration": 10, "velocity": 64}, {"time": 62290, "pitch": 77, "duration": 10, "velocity": 50}, {"time": 62290, "pitch": 86, "duration": 10, "velocity": 50}, {"time": 62400, "pitch": 73, "duration": 10, "velocity": 64}, {"time": 62400, "pitch": 86, "duration": 10, "velocity": 36}, {"time": 62530, "pitch": 86, "duration": 10, "velocity": 22}, {"time": 62530, "pitch": 97, "duration": 10, "velocity": 64}, {"time": 62640, "pitch": 77, "duration": 10, "velocity": 64}, {"time": 62640, "pitch": 86, "duration": 10, "velocity": 36}, {"time": 62640, "pitch": 97, "duration": 10, "velocity": 92}, {"time": 62770, "pitch": 86, "duration": 10, "velocity": 22}, {"time": 62880, "pitch": 77, "duration": 10, "velocity": 78}, {"time": 62880, "pitch": 86, "duration": 10, "velocity": 36}, {"time": 63010, "pitch": 75, "duration": 10, "velocity": 22}, {"time": 63010, "pitch": 86, "duration": 10, "velocity": 92}, {"time": 63120, "pitch": 86, "duration": 10, "velocity": 64}, {"time": 63250, "pitch": 26, "duration": 10, "velocity": 36}, {"time": 63250, "pitch": 75, "duration": 10, "velocity": 36}, {"time": 63250, "pitch": 86, "duration": 10, "velocity": 50}, {"time": 63300, "pitch": 26, "duration": 10, "velocity": 50}, {"time": 63360, "pitch": 26, "duration": 10, "velocity": 106}, {"time": 63360, "pitch": 73, "duration": 10, "velocity": 70}, {"time": 63360, "pitch": 86, "duration": 10, "velocity": 36}, {"time": 63360, "pitch": 99, "duration": 10, "velocity": 36}, {"time": 63490, "pitch": 86, "duration": 10, "velocity": 22}, {"time": 63490, "pitch": 99, "duration": 10, "velocity": 64}, {"time": 63600, "pitch": 74, "duration": 10, "velocity": 36}, {"time": 63600, "pitch": 86, "duration": 10, "velocity": 36}, {"time": 63600, "pitch": 98, "duration": 10, "velocity": 78}, {"time": 63730, "pitch": 74, "duration": 10, "velocity": 50}, {"time": 63730, "pitch": 86, "duration": 10, "velocity": 22}, {"time": 63840, "pitch": 86, "duration": 10, "velocity": 36}, {"time": 63970, "pitch": 75, "duration": 10, "velocity": 36}, {"time": 63970, "pitch": 86, "duration": 10, "velocity": 92}, {"time": 64080, "pitch": 77, "duration": 10, "velocity": 36}, {"time": 64080, "pitch": 86, "duration": 10, "velocity": 64}, {"time": 64210, "pitch": 75, "duration": 10, "velocity": 64}, {"time": 64210, "pitch": 86, "duration": 10, "velocity": 50}, {"time": 64320, "pitch": 73, "duration": 10, "velocity": 70}, {"time": 64320, "pitch": 86, "duration": 10, "velocity": 36}, {"time": 64450, "pitch": 77, "duration": 10, "velocity": 36}, {"time": 64450, "pitch": 86, "duration": 10, "velocity": 22}, {"time": 64500, "pitch": 77, "duration": 10, "velocity": 50}, {"time": 64560, "pitch": 77, "duration": 10, "velocity": 64}, {"time": 64560, "pitch": 86, "duration": 10, "velocity": 36}, {"time": 64690, "pitch": 77, "duration": 10, "velocity": 78}, {"time": 64690, "pitch": 86, "duration": 10, "velocity": 22}, {"time": 64800, "pitch": 77, "duration": 10, "velocity": 78}, {"time": 64800, "pitch": 86, "duration": 10, "velocity": 36}, {"time": 64880, "pitch": 74, "duration": 10, "velocity": 36}, {"time": 64910, "pitch": 74, "duration": 10, "velocity": 64}, {"time": 64920, "pitch": 86, "duration": 10, "velocity": 92}, {"time": 64960, "pitch": 74, "duration": 10, "velocity": 50}, {"time": 65040, "pitch": 74, "duration": 10, "velocity": 36}, {"time": 65040, "pitch": 86, "duration": 10, "velocity": 64}, {"time": 65050, "pitch": 74, "duration": 10, "velocity": 64}, {"time": 65120, "pitch": 74, "duration": 10, "velocity": 50}, {"time": 65160, "pitch": 26, "duration": 10, "velocity": 36}, {"time": 65160, "pitch": 86, "duration": 10, "velocity": 50}, {"time": 65200, "pitch": 74, "duration": 10, "velocity": 64}, {"time": 65220, "pitch": 26, "duration": 10, "velocity": 50}, {"time": 65280, "pitch": 26, "duration": 10, "velocity": 106}, {"time": 65280, "pitch": 74, "duration": 10, "velocity": 36}, {"time": 65280, "pitch": 86, "duration": 10, "velocity": 36}, {"time": 65360, "pitch": 74, "duration": 10, "velocity": 64}, {"time": 65400, "pitch": 86, "duration": 10, "velocity": 22}, {"time": 65440, "pitch": 74, "duration": 10, "velocity": 50}, {"time": 65520, "pitch": 74, "duration": 10, "velocity": 36}, {"time": 65520, "pitch": 86, "duration": 10, "velocity": 36}, {"time": 65540, "pitch": 74, "duration": 10, "velocity": 50}, {"time": 65640, "pitch": 74, "duration": 10, "velocity": 50}, {"time": 65640, "pitch": 86, "duration": 10, "velocity": 22}, {"time": 65760, "pitch": 77, "duration": 10, "velocity": 64}, {"time": 65760, "pitch": 86, "duration": 10, "velocity": 36}, {"time": 65890, "pitch": 86, "duration": 10, "velocity": 92}, {"time": 66000, "pitch": 75, "duration": 10, "velocity": 36}, {"time": 66000, "pitch": 86, "duration": 10, "velocity": 64}, {"time": 66130, "pitch": 77, "duration": 10, "velocity": 50}, {"time": 66130, "pitch": 86, "duration": 10, "velocity": 50}, {"time": 66240, "pitch": 73, "duration": 10, "velocity": 64}, {"time": 66240, "pitch": 86, "duration": 10, "velocity": 36}, {"time": 66370, "pitch": 86, "duration": 10, "velocity": 22}, {"time": 66370, "pitch": 97, "duration": 10, "velocity": 64}, {"time": 66480, "pitch": 77, "duration": 10, "velocity": 64}, {"time": 66480, "pitch": 86, "duration": 10, "velocity": 36}, {"time": 66480, "pitch": 97, "duration": 10, "velocity": 92}, {"time": 66610, "pitch": 86, "duration": 10, "velocity": 22}, {"time": 66720, "pitch": 77, "duration": 10, "velocity": 78}, {"time": 66720, "pitch": 86, "duration": 10, "velocity": 36}, {"time": 66850, "pitch": 75, "duration": 10, "velocity": 22}, {"time": 66850, "pitch": 86, "duration": 10, "velocity": 92}, {"time": 66960, "pitch": 86, "duration": 10, "velocity": 64}, {"time": 67090, "pitch": 26, "duration": 10, "velocity": 36}, {"time": 67090, "pitch": 75, "duration": 10, "velocity": 36}, {"time": 67090, "pitch": 86, "duration": 10, "velocity": 50}, {"time": 67140, "pitch": 26, "duration": 10, "velocity": 50}, {"time": 67200, "pitch": 26, "duration": 10, "velocity": 106}, {"time": 67200, "pitch": 73, "duration": 10, "velocity": 70}, {"time": 67200, "pitch": 86, "duration": 10, "velocity": 36}, {"time": 67200, "pitch": 99, "duration": 10, "velocity": 36}, {"time": 67330, "pitch": 86, "duration": 10, "velocity": 22}, {"time": 67330, "pitch": 99, "duration": 10, "velocity": 64}, {"time": 67440, "pitch": 74, "duration": 10, "velocity": 36}, {"time": 67440, "pitch": 86, "duration": 10, "velocity": 36}, {"time": 67440, "pitch": 98, "duration": 10, "velocity": 78}, {"time": 67570, "pitch": 74, "duration": 10, "velocity": 50}, {"time": 67570, "pitch": 86, "duration": 10, "velocity": 22}, {"time": 67680, "pitch": 86, "duration": 10, "velocity": 36}, {"time": 67810, "pitch": 75, "duration": 10, "velocity": 36}, {"time": 67810, "pitch": 86, "duration": 10, "velocity": 92}, {"time": 67920, "pitch": 77, "duration": 10, "velocity": 36}, {"time": 67920, "pitch": 86, "duration": 10, "velocity": 64}, {"time": 68050, "pitch": 75, "duration": 10, "velocity": 64}, {"time": 68050, "pitch": 86, "duration": 10, "velocity": 50}, {"time": 68160, "pitch": 73, "duration": 10, "velocity": 70}, {"time": 68160, "pitch": 86, "duration": 10, "velocity": 36}, {"time": 68290, "pitch": 77, "duration": 10, "velocity": 36}, {"time": 68290, "pitch": 86, "duration": 10, "velocity": 22}, {"time": 68400, "pitch": 77, "duration": 10, "velocity": 64}, {"time": 68400, "pitch": 86, "duration": 10, "velocity": 36}, {"time": 68530, "pitch": 86, "duration": 10, "velocity": 22}, {"time": 68640, "pitch": 77, "duration": 10, "velocity": 78}, {"time": 68640, "pitch": 86, "duration": 10, "velocity": 36}, {"time": 68770, "pitch": 75, "duration": 10, "velocity": 22}, {"time": 68770, "pitch": 86, "duration": 10, "velocity": 92}, {"time": 68880, "pitch": 86, "duration": 10, "velocity": 64}, {"time": 69010, "pitch": 26, "duration": 10, "velocity": 36}, {"time": 69010, "pitch": 75, "duration": 10, "velocity": 36}, {"time": 69010, "pitch": 86, "duration": 10, "velocity": 50}, {"time": 69060, "pitch": 26, "duration": 10, "velocity": 50}, {"time": 69120, "pitch": 26, "duration": 10, "velocity": 106}, {"time": 69120, "pitch": 73, "duration": 10, "velocity": 70}, {"time": 69120, "pitch": 86, "duration": 10, "velocity": 36}, {"time": 69250, "pitch": 74, "duration": 10, "velocity": 36}, {"time": 69250, "pitch": 86, "duration": 10, "velocity": 22}, {"time": 69360, "pitch": 74, "duration": 10, "velocity": 50}, {"time": 69360, "pitch": 86, "duration": 10, "velocity": 36}, {"time": 69490, "pitch": 86, "duration": 10, "velocity": 22}, {"time": 69600, "pitch": 77, "duration": 10, "velocity": 64}, {"time": 69600, "pitch": 86, "duration": 10, "velocity": 36}, {"time": 69730, "pitch": 86, "duration": 10, "velocity": 92}, {"time": 69840, "pitch": 75, "duration": 10, "velocity": 36}, {"time": 69840, "pitch": 86, "duration": 10, "velocity": 64}, {"time": 69970, "pitch": 77, "duration": 10, "velocity": 50}, {"time": 69970, "pitch": 86, "duration": 10, "velocity": 50}, {"time": 70080, "pitch": 73, "duration": 10, "velocity": 64}, {"time": 70080, "pitch": 86, "duration": 10, "velocity": 36}, {"time": 70210, "pitch": 86, "duration": 10, "velocity": 22}, {"time": 70210, "pitch": 97, "duration": 10, "velocity": 64}, {"time": 70320, "pitch": 77, "duration": 10, "velocity": 64}, {"time": 70320, "pitch": 86, "duration": 10, "velocity": 36}, {"time": 70320, "pitch": 97, "duration": 10, "velocity": 92}, {"time": 70450, "pitch": 86, "duration": 10, "velocity": 22}, {"time": 70560, "pitch": 77, "duration": 10, "velocity": 78}, {"time": 70560, "pitch": 86, "duration": 10, "velocity": 36}, {"time": 70690, "pitch": 75, "duration": 10, "velocity": 22}, {"time": 70690, "pitch": 86, "duration": 10, "velocity": 92}, {"time": 70800, "pitch": 86, "duration": 10, "velocity": 64}, {"time": 70930, "pitch": 75, "duration": 10, "velocity": 36}, {"time": 70930, "pitch": 86, "duration": 10, "velocity": 50}, {"time": 71040, "pitch": 73, "duration": 10, "velocity": 70}, {"time": 71040, "pitch": 86, "duration": 10, "velocity": 36}, {"time": 71040, "pitch": 99, "duration": 10, "velocity": 36}, {"time": 71170, "pitch": 86, "duration": 10, "velocity": 22}, {"time": 71170, "pitch": 99, "duration": 10, "velocity": 64}, {"time": 71280, "pitch": 74, "duration": 10, "velocity": 36}, {"time": 71280, "pitch": 86, "duration": 10, "velocity": 36}, {"time": 71280, "pitch": 98, "duration": 10, "velocity": 78}, {"time": 71410, "pitch": 74, "duration": 10, "velocity": 50}, {"time": 71410, "pitch": 86, "duration": 10, "velocity": 22}, {"time": 71520, "pitch": 86, "duration": 10, "velocity": 36}, {"time": 71650, "pitch": 75, "duration": 10, "velocity": 36}, {"time": 71650, "pitch": 86, "duration": 10, "velocity": 92}, {"time": 71760, "pitch": 77, "duration": 10, "velocity": 36}, {"time": 71760, "pitch": 86, "duration": 10, "velocity": 64}, {"time": 71890, "pitch": 75, "duration": 10, "velocity": 64}, {"time": 71890, "pitch": 86, "duration": 10, "velocity": 50}, {"time": 72000, "pitch": 73, "duration": 10, "velocity": 70}, {"time": 72000, "pitch": 86, "duration": 10, "velocity": 36}, {"time": 72130, "pitch": 77, "duration": 10, "velocity": 36}, {"time": 72130, "pitch": 86, "duration": 10, "velocity": 22}, {"time": 72240, "pitch": 77, "duration": 10, "velocity": 64}, {"time": 72240, "pitch": 86, "duration": 10, "velocity": 36}, {"time": 72370, "pitch": 86, "duration": 10, "velocity": 22}, {"time": 72480, "pitch": 77, "duration": 10, "velocity": 78}, {"time": 72480, "pitch": 86, "duration": 10, "velocity": 36}, {"time": 72610, "pitch": 75, "duration": 10, "velocity": 22}, {"time": 72610, "pitch": 86, "duration": 10, "velocity": 92}, {"time": 72720, "pitch": 86, "duration": 10, "velocity": 64}, {"time": 72850, "pitch": 75, "duration": 10, "velocity": 36}, {"time": 72850, "pitch": 86, "duration": 10, "velocity": 50}, {"time": 72960, "pitch": 73, "duration": 10, "velocity": 70}, {"time": 72960, "pitch": 86, "duration": 10, "velocity": 36}, {"time": 73090, "pitch": 74, "duration": 10, "velocity": 36}, {"time": 73090, "pitch": 86, "duration": 10, "velocity": 22}, {"time": 73200, "pitch": 74, "duration": 10, "velocity": 50}, {"time": 73200, "pitch": 86, "duration": 10, "velocity": 36}, {"time": 73330, "pitch": 86, "duration": 10, "velocity": 22}, {"time": 73440, "pitch": 77, "duration": 10, "velocity": 64}, {"time": 73440, "pitch": 86, "duration": 10, "velocity": 36}, {"time": 73570, "pitch": 86, "duration": 10, "velocity": 92}, {"time": 73680, "pitch": 75, "duration": 10, "velocity": 36}, {"time": 73680, "pitch": 86, "duration": 10, "velocity": 64}, {"time": 73810, "pitch": 77, "duration": 10, "velocity": 50}, {"time": 73810, "pitch": 86, "duration": 10, "velocity": 50}, {"time": 73920, "pitch": 73, "duration": 10, "velocity": 64}, {"time": 73920, "pitch": 86, "duration": 10, "velocity": 36}, {"time": 74050, "pitch": 86, "duration": 10, "velocity": 22}, {"time": 74050, "pitch": 97, "duration": 10, "velocity": 64}, {"time": 74160, "pitch": 77, "duration": 10, "velocity": 64}, {"time": 74160, "pitch": 86, "duration": 10, "velocity": 36}, {"time": 74160, "pitch": 97, "duration": 10, "velocity": 92}, {"time": 74290, "pitch": 86, "duration": 10, "velocity": 22}, {"time": 74400, "pitch": 77, "duration": 10, "velocity": 78}, {"time": 74400, "pitch": 86, "duration": 10, "velocity": 36}, {"time": 74530, "pitch": 75, "duration": 10, "velocity": 22}, {"time": 74530, "pitch": 86, "duration": 10, "velocity": 92}, {"time": 74640, "pitch": 86, "duration": 10, "velocity": 64}, {"time": 74770, "pitch": 75, "duration": 10, "velocity": 36}, {"time": 74770, "pitch": 86, "duration": 10, "velocity": 50}, {"time": 74880, "pitch": 73, "duration": 10, "velocity": 70}, {"time": 74880, "pitch": 86, "duration": 10, "velocity": 36}, {"time": 74880, "pitch": 99, "duration": 10, "velocity": 36}, {"time": 75010, "pitch": 86, "duration": 10, "velocity": 22}, {"time": 75010, "pitch": 99, "duration": 10, "velocity": 64}, {"time": 75120, "pitch": 74, "duration": 10, "velocity": 36}, {"time": 75120, "pitch": 86, "duration": 10, "velocity": 36}, {"time": 75120, "pitch": 98, "duration": 10, "velocity": 78}, {"time": 75250, "pitch": 74, "duration": 10, "velocity": 50}, {"time": 75250, "pitch": 86, "duration": 10, "velocity": 22}, {"time": 75360, "pitch": 86, "duration": 10, "velocity": 36}, {"time": 75490, "pitch": 75, "duration": 10, "velocity": 36}, {"time": 75490, "pitch": 86, "duration": 10, "velocity": 92}, {"time": 75600, "pitch": 77, "duration": 10, "velocity": 36}, {"time": 75600, "pitch": 86, "duration": 10, "velocity": 64}, {"time": 75730, "pitch": 75, "duration": 10, "velocity": 64}, {"time": 75730, "pitch": 86, "duration": 10, "velocity": 50}, {"time": 75840, "pitch": 73, "duration": 10, "velocity": 70}, {"time": 75840, "pitch": 86, "duration": 10, "velocity": 36}, {"time": 75970, "pitch": 77, "duration": 10, "velocity": 36}, {"time": 75970, "pitch": 86, "duration": 10, "velocity": 22}, {"time": 76080, "pitch": 77, "duration": 10, "velocity": 64}, {"time": 76080, "pitch": 86, "duration": 10, "velocity": 36}, {"time": 76210, "pitch": 86, "duration": 10, "velocity": 22}, {"time": 76320, "pitch": 77, "duration": 10, "velocity": 78}, {"time": 76320, "pitch": 86, "duration": 10, "velocity": 36}, {"time": 76450, "pitch": 75, "duration": 10, "velocity": 22}, {"time": 76450, "pitch": 86, "duration": 10, "velocity": 92}, {"time": 76560, "pitch": 86, "duration": 10, "velocity": 64}, {"time": 76690, "pitch": 75, "duration": 10, "velocity": 36}, {"time": 76690, "pitch": 86, "duration": 10, "velocity": 50}, {"time": 76800, "pitch": 73, "duration": 10, "velocity": 70}, {"time": 76800, "pitch": 86, "duration": 10, "velocity": 36}, {"time": 76930, "pitch": 74, "duration": 10, "velocity": 36}, {"time": 76930, "pitch": 86, "duration": 10, "velocity": 22}, {"time": 77040, "pitch": 77, "duration": 10, "velocity": 64}, {"time": 77040, "pitch": 86, "duration": 10, "velocity": 36}, {"time": 77170, "pitch": 77, "duration": 10, "velocity": 64}, {"time": 77170, "pitch": 86, "duration": 10, "velocity": 22}, {"time": 77280, "pitch": 77, "duration": 10, "velocity": 64}, {"time": 77280, "pitch": 86, "duration": 10, "velocity": 36}, {"time": 77410, "pitch": 86, "duration": 10, "velocity": 92}, {"time": 77520, "pitch": 75, "duration": 10, "velocity": 36}, {"time": 77520, "pitch": 86, "duration": 10, "velocity": 64}, {"time": 77650, "pitch": 77, "duration": 10, "velocity": 50}, {"time": 77650, "pitch": 86, "duration": 10, "velocity": 50}, {"time": 77760, "pitch": 73, "duration": 10, "velocity": 64}, {"time": 77760, "pitch": 86, "duration": 10, "velocity": 36}, {"time": 77890, "pitch": 86, "duration": 10, "velocity": 22}, {"time": 77890, "pitch": 97, "duration": 10, "velocity": 64}, {"time": 78000, "pitch": 77, "duration": 10, "velocity": 64}, {"time": 78000, "pitch": 86, "duration": 10, "velocity": 36}, {"time": 78000, "pitch": 97, "duration": 10, "velocity": 92}, {"time": 78130, "pitch": 86, "duration": 10, "velocity": 22}, {"time": 78240, "pitch": 77, "duration": 10, "velocity": 78}, {"time": 78240, "pitch": 86, "duration": 10, "velocity": 36}, {"time": 78370, "pitch": 75, "duration": 10, "velocity": 22}, {"time": 78370, "pitch": 86, "duration": 10, "velocity": 92}, {"time": 78480, "pitch": 86, "duration": 10, "velocity": 64}, {"time": 78610, "pitch": 75, "duration": 10, "velocity": 36}, {"time": 78610, "pitch": 86, "duration": 10, "velocity": 50}, {"time": 78720, "pitch": 73, "duration": 10, "velocity": 70}, {"time": 78720, "pitch": 86, "duration": 10, "velocity": 36}, {"time": 78720, "pitch": 99, "duration": 10, "velocity": 36}, {"time": 78850, "pitch": 86, "duration": 10, "velocity": 22}, {"time": 78850, "pitch": 99, "duration": 10, "velocity": 64}, {"time": 78960, "pitch": 74, "duration": 10, "velocity": 36}, {"time": 78960, "pitch": 86, "duration": 10, "velocity": 36}, {"time": 78960, "pitch": 98, "duration": 10, "velocity": 78}, {"time": 79090, "pitch": 74, "duration": 10, "velocity": 50}, {"time": 79090, "pitch": 86, "duration": 10, "velocity": 22}, {"time": 79200, "pitch": 86, "duration": 10, "velocity": 36}, {"time": 79330, "pitch": 75, "duration": 10, "velocity": 36}, {"time": 79330, "pitch": 86, "duration": 10, "velocity": 92}, {"time": 79440, "pitch": 77, "duration": 10, "velocity": 36}, {"time": 79440, "pitch": 86, "duration": 10, "velocity": 64}, {"time": 79570, "pitch": 75, "duration": 10, "velocity": 64}, {"time": 79570, "pitch": 86, "duration": 10, "velocity": 50}, {"time": 79680, "pitch": 73, "duration": 10, "velocity": 70}, {"time": 79680, "pitch": 86, "duration": 10, "velocity": 36}, {"time": 79810, "pitch": 77, "duration": 10, "velocity": 36}, {"time": 79810, "pitch": 86, "duration": 10, "velocity": 22}, {"time": 79920, "pitch": 77, "duration": 10, "velocity": 64}, {"time": 79920, "pitch": 86, "duration": 10, "velocity": 36}, {"time": 80050, "pitch": 86, "duration": 10, "velocity": 22}, {"time": 80160, "pitch": 77, "duration": 10, "velocity": 78}, {"time": 80160, "pitch": 86, "duration": 10, "velocity": 36}, {"time": 80290, "pitch": 75, "duration": 10, "velocity": 22}, {"time": 80290, "pitch": 86, "duration": 10, "velocity": 92}, {"time": 80400, "pitch": 86, "duration": 10, "velocity": 64}, {"time": 80530, "pitch": 75, "duration": 10, "velocity": 36}, {"time": 80530, "pitch": 86, "duration": 10, "velocity": 50}, {"time": 80640, "pitch": 73, "duration": 10, "velocity": 70}, {"time": 80640, "pitch": 86, "duration": 10, "velocity": 36}, {"time": 80770, "pitch": 74, "duration": 10, "velocity": 36}, {"time": 80770, "pitch": 86, "duration": 10, "velocity": 22}, {"time": 80880, "pitch": 74, "duration": 10, "velocity": 50}, {"time": 80880, "pitch": 86, "duration": 10, "velocity": 36}, {"time": 81010, "pitch": 86, "duration": 10, "velocity": 22}, {"time": 81120, "pitch": 77, "duration": 10, "velocity": 64}, {"time": 81120, "pitch": 86, "duration": 10, "velocity": 36}, {"time": 81250, "pitch": 86, "duration": 10, "velocity": 92}, {"time": 81360, "pitch": 75, "duration": 10, "velocity": 36}, {"time": 81360, "pitch": 86, "duration": 10, "velocity": 64}, {"time": 81490, "pitch": 77, "duration": 10, "velocity": 50}, {"time": 81490, "pitch": 86, "duration": 10, "velocity": 50}, {"time": 81600, "pitch": 73, "duration": 10, "velocity": 64}, {"time": 81600, "pitch": 86, "duration": 10, "velocity": 36}, {"time": 81730, "pitch": 86, "duration": 10, "velocity": 22}, {"time": 81730, "pitch": 97, "duration": 10, "velocity": 64}, {"time": 81840, "pitch": 77, "duration": 10, "velocity": 64}, {"time": 81840, "pitch": 86, "duration": 10, "velocity": 36}, {"time": 81840, "pitch": 97, "duration": 10, "velocity": 92}, {"time": 81970, "pitch": 86, "duration": 10, "velocity": 22}, {"time": 82080, "pitch": 77, "duration": 10, "velocity": 78}, {"time": 82080, "pitch": 86, "duration": 10, "velocity": 36}, {"time": 82210, "pitch": 75, "duration": 10, "velocity": 22}, {"time": 82210, "pitch": 86, "duration": 10, "velocity": 92}, {"time": 82320, "pitch": 86, "duration": 10, "velocity": 64}, {"time": 82450, "pitch": 75, "duration": 10, "velocity": 36}, {"time": 82450, "pitch": 86, "duration": 10, "velocity": 50}, {"time": 82560, "pitch": 73, "duration": 10, "velocity": 70}, {"time": 82560, "pitch": 86, "duration": 10, "velocity": 36}, {"time": 82560, "pitch": 99, "duration": 10, "velocity": 36}, {"time": 82690, "pitch": 86, "duration": 10, "velocity": 22}, {"time": 82690, "pitch": 99, "duration": 10, "velocity": 64}, {"time": 82800, "pitch": 74, "duration": 10, "velocity": 36}, {"time": 82800, "pitch": 86, "duration": 10, "velocity": 36}, {"time": 82800, "pitch": 98, "duration": 10, "velocity": 78}, {"time": 82930, "pitch": 74, "duration": 10, "velocity": 50}, {"time": 82930, "pitch": 86, "duration": 10, "velocity": 22}, {"time": 83040, "pitch": 86, "duration": 10, "velocity": 36}, {"time": 83170, "pitch": 75, "duration": 10, "velocity": 36}, {"time": 83170, "pitch": 86, "duration": 10, "velocity": 92}, {"time": 83280, "pitch": 77, "duration": 10, "velocity": 36}, {"time": 83280, "pitch": 86, "duration": 10, "velocity": 64}, {"time": 83410, "pitch": 75, "duration": 10, "velocity": 64}, {"time": 83410, "pitch": 86, "duration": 10, "velocity": 50}, {"time": 83520, "pitch": 73, "duration": 10, "velocity": 70}, {"time": 83520, "pitch": 86, "duration": 10, "velocity": 36}, {"time": 83650, "pitch": 77, "duration": 10, "velocity": 36}, {"time": 83650, "pitch": 86, "duration": 10, "velocity": 22}, {"time": 83760, "pitch": 77, "duration": 10, "velocity": 64}, {"time": 83760, "pitch": 86, "duration": 10, "velocity": 36}, {"time": 83890, "pitch": 86, "duration": 10, "velocity": 22}, {"time": 84000, "pitch": 77, "duration": 10, "velocity": 78}, {"time": 84000, "pitch": 86, "duration": 10, "velocity": 36}, {"time": 84130, "pitch": 75, "duration": 10, "velocity": 22}, {"time": 84130, "pitch": 86, "duration": 10, "velocity": 92}, {"time": 84240, "pitch": 86, "duration": 10, "velocity": 64}, {"time": 84370, "pitch": 75, "duration": 10, "velocity": 36}, {"time": 84370, "pitch": 86, "duration": 10, "velocity": 50}, {"time": 84480, "pitch": 73, "duration": 10, "velocity": 70}, {"time": 84480, "pitch": 86, "duration": 10, "velocity": 36}, {"time": 84610, "pitch": 77, "duration": 10, "velocity": 36}, {"time": 84610, "pitch": 86, "duration": 10, "velocity": 22}, {"time": 84660, "pitch": 77, "duration": 10, "velocity": 50}, {"time": 84720, "pitch": 77, "duration": 10, "velocity": 64}, {"time": 84720, "pitch": 86, "duration": 10, "velocity": 36}, {"time": 84850, "pitch": 77, "duration": 10, "velocity": 64}, {"time": 84850, "pitch": 86, "duration": 10, "velocity": 22}, {"time": 84960, "pitch": 77, "duration": 10, "velocity": 64}, {"time": 84960, "pitch": 86, "duration": 10, "velocity": 36}, {"time": 85090, "pitch": 86, "duration": 10, "velocity": 92}, {"time": 85200, "pitch": 75, "duration": 10, "velocity": 36}, {"time": 85200, "pitch": 86, "duration": 10, "velocity": 64}, {"time": 85330, "pitch": 77, "duration": 10, "velocity": 50}, {"time": 85330, "pitch": 86, "duration": 10, "velocity": 50}, {"time": 85440, "pitch": 73, "duration": 10, "velocity": 64}, {"time": 85440, "pitch": 86, "duration": 10, "velocity": 36}, {"time": 85570, "pitch": 86, "duration": 10, "velocity": 22}, {"time": 85570, "pitch": 97, "duration": 10, "velocity": 64}, {"time": 85680, "pitch": 77, "duration": 10, "velocity": 64}, {"time": 85680, "pitch": 86, "duration": 10, "velocity": 36}, {"time": 85680, "pitch": 97, "duration": 10, "velocity": 92}, {"time": 85810, "pitch": 86, "duration": 10, "velocity": 22}, {"time": 85920, "pitch": 77, "duration": 10, "velocity": 78}, {"time": 85920, "pitch": 86, "duration": 10, "velocity": 36}, {"time": 86050, "pitch": 75, "duration": 10, "velocity": 22}, {"time": 86050, "pitch": 86, "duration": 10, "velocity": 92}, {"time": 86160, "pitch": 86, "duration": 10, "velocity": 64}, {"time": 86290, "pitch": 75, "duration": 10, "velocity": 36}, {"time": 86290, "pitch": 86, "duration": 10, "velocity": 50}, {"time": 86400, "pitch": 73, "duration": 10, "velocity": 70}, {"time": 86400, "pitch": 86, "duration": 10, "velocity": 36}, {"time": 86400, "pitch": 99, "duration": 10, "velocity": 36}, {"time": 86530, "pitch": 86, "duration": 10, "velocity": 22}, {"time": 86530, "pitch": 99, "duration": 10, "velocity": 64}, {"time": 86640, "pitch": 74, "duration": 10, "velocity": 36}, {"time": 86640, "pitch": 86, "duration": 10, "velocity": 36}, {"time": 86640, "pitch": 98, "duration": 10, "velocity": 78}, {"time": 86770, "pitch": 74, "duration": 10, "velocity": 50}, {"time": 86770, "pitch": 86, "duration": 10, "velocity": 22}, {"time": 86880, "pitch": 86, "duration": 10, "velocity": 36}, {"time": 87010, "pitch": 75, "duration": 10, "velocity": 36}, {"time": 87010, "pitch": 86, "duration": 10, "velocity": 92}, {"time": 87120, "pitch": 77, "duration": 10, "velocity": 36}, {"time": 87120, "pitch": 86, "duration": 10, "velocity": 64}, {"time": 87250, "pitch": 75, "duration": 10, "velocity": 64}, {"time": 87250, "pitch": 86, "duration": 10, "velocity": 50}, {"time": 87360, "pitch": 73, "duration": 10, "velocity": 70}, {"time": 87360, "pitch": 86, "duration": 10, "velocity": 36}, {"time": 87490, "pitch": 77, "duration": 10, "velocity": 36}, {"time": 87490, "pitch": 86, "duration": 10, "velocity": 22}, {"time": 87600, "pitch": 77, "duration": 10, "velocity": 64}, {"time": 87600, "pitch": 86, "duration": 10, "velocity": 36}, {"time": 87730, "pitch": 86, "duration": 10, "velocity": 22}, {"time": 87840, "pitch": 77, "duration": 10, "velocity": 78}, {"time": 87840, "pitch": 86, "duration": 10, "velocity": 36}, {"time": 87970, "pitch": 75, "duration": 10, "velocity": 22}, {"time": 87970, "pitch": 86, "duration": 10, "velocity": 92}, {"time": 88080, "pitch": 86, "duration": 10, "velocity": 64}, {"time": 88210, "pitch": 26, "duration": 10, "velocity": 36}, {"time": 88210, "pitch": 75, "duration": 10, "velocity": 36}, {"time": 88210, "pitch": 86, "duration": 10, "velocity": 50}, {"time": 88260, "pitch": 26, "duration": 10, "velocity": 50}, {"time": 88320, "pitch": 26, "duration": 10, "velocity": 106}, {"time": 88320, "pitch": 73, "duration": 10, "velocity": 70}, {"time": 88320, "pitch": 86, "duration": 10, "velocity": 36}, {"time": 88450, "pitch": 74, "duration": 10, "velocity": 36}, {"time": 88450, "pitch": 86, "duration": 10, "velocity": 22}, {"time": 88560, "pitch": 74, "duration": 10, "velocity": 50}, {"time": 88560, "pitch": 86, "duration": 10, "velocity": 36}, {"time": 88690, "pitch": 86, "duration": 10, "velocity": 22}, {"time": 88800, "pitch": 77, "duration": 10, "velocity": 64}, {"time": 88800, "pitch": 86, "duration": 10, "velocity": 36}, {"time": 88930, "pitch": 86, "duration": 10, "velocity": 92}, {"time": 89040, "pitch": 75, "duration": 10, "velocity": 36}, {"time": 89040, "pitch": 86, "duration": 10, "velocity": 64}, {"time": 89170, "pitch": 77, "duration": 10, "velocity": 50}, {"time": 89170, "pitch": 86, "duration": 10, "velocity": 50}, {"time": 89280, "pitch": 73, "duration": 10, "velocity": 64}, {"time": 89280, "pitch": 86, "duration": 10, "velocity": 36}, {"time": 89410, "pitch": 86, "duration": 10, "velocity": 22}, {"time": 89410, "pitch": 97, "duration": 10, "velocity": 64}, {"time": 89520, "pitch": 77, "duration": 10, "velocity": 64}, {"time": 89520, "pitch": 86, "duration": 10, "velocity": 36}, {"time": 89520, "pitch": 97, "duration": 10, "velocity": 92}, {"time": 89650, "pitch": 86, "duration": 10, "velocity": 22}, {"time": 89760, "pitch": 77, "duration": 10, "velocity": 78}, {"time": 89760, "pitch": 86, "duration": 10, "velocity": 36}, {"time": 89890, "pitch": 75, "duration": 10, "velocity": 22}, {"time": 89890, "pitch": 86, "duration": 10, "velocity": 92}, {"time": 90000, "pitch": 86, "duration": 10, "velocity": 64}, {"time": 90130, "pitch": 75, "duration": 10, "velocity": 36}, {"time": 90130, "pitch": 86, "duration": 10, "velocity": 50}, {"time": 90240, "pitch": 73, "duration": 10, "velocity": 70}, {"time": 90240, "pitch": 86, "duration": 10, "velocity": 36}, {"time": 90240, "pitch": 99, "duration": 10, "velocity": 36}, {"time": 90370, "pitch": 86, "duration": 10, "velocity": 22}, {"time": 90370, "pitch": 99, "duration": 10, "velocity": 64}, {"time": 90480, "pitch": 74, "duration": 10, "velocity": 36}, {"time": 90480, "pitch": 86, "duration": 10, "velocity": 36}, {"time": 90480, "pitch": 98, "duration": 10, "velocity": 78}, {"time": 90610, "pitch": 74, "duration": 10, "velocity": 50}, {"time": 90610, "pitch": 86, "duration": 10, "velocity": 22}, {"time": 90720, "pitch": 86, "duration": 10, "velocity": 36}, {"time": 90850, "pitch": 75, "duration": 10, "velocity": 36}, {"time": 90850, "pitch": 86, "duration": 10, "velocity": 92}, {"time": 90960, "pitch": 77, "duration": 10, "velocity": 36}, {"time": 90960, "pitch": 86, "duration": 10, "velocity": 64}, {"time": 91090, "pitch": 75, "duration": 10, "velocity": 64}, {"time": 91090, "pitch": 86, "duration": 10, "velocity": 50}, {"time": 91200, "pitch": 73, "duration": 10, "velocity": 70}, {"time": 91200, "pitch": 86, "duration": 10, "velocity": 36}, {"time": 91330, "pitch": 77, "duration": 10, "velocity": 36}, {"time": 91330, "pitch": 86, "duration": 10, "velocity": 22}, {"time": 91440, "pitch": 77, "duration": 10, "velocity": 64}, {"time": 91440, "pitch": 86, "duration": 10, "velocity": 36}, {"time": 91570, "pitch": 86, "duration": 10, "velocity": 22}, {"time": 91680, "pitch": 77, "duration": 10, "velocity": 78}, {"time": 91680, "pitch": 86, "duration": 10, "velocity": 36}, {"time": 91810, "pitch": 75, "duration": 10, "velocity": 22}, {"time": 91810, "pitch": 86, "duration": 10, "velocity": 92}, {"time": 91920, "pitch": 86, "duration": 10, "velocity": 64}, {"time": 92050, "pitch": 26, "duration": 10, "velocity": 36}, {"time": 92050, "pitch": 75, "duration": 10, "velocity": 36}, {"time": 92050, "pitch": 86, "duration": 10, "velocity": 50}, {"time": 92100, "pitch": 26, "duration": 10, "velocity": 50}, {"time": 92160, "pitch": 26, "duration": 10, "velocity": 106}, {"time": 92160, "pitch": 73, "duration": 10, "velocity": 70}, {"time": 92160, "pitch": 86, "duration": 10, "velocity": 36}, {"time": 92290, "pitch": 74, "duration": 10, "velocity": 36}, {"time": 92290, "pitch": 86, "duration": 10, "velocity": 22}, {"time": 92400, "pitch": 74, "duration": 10, "velocity": 50}, {"time": 92400, "pitch": 86, "duration": 10, "velocity": 36}, {"time": 92530, "pitch": 86, "duration": 10, "velocity": 22}, {"time": 92640, "pitch": 77, "duration": 10, "velocity": 64}, {"time": 92640, "pitch": 86, "duration": 10, "velocity": 36}, {"time": 92770, "pitch": 86, "duration": 10, "velocity": 92}, {"time": 92880, "pitch": 75, "duration": 10, "velocity": 36}, {"time": 92880, "pitch": 86, "duration": 10, "velocity": 64}, {"time": 93010, "pitch": 77, "duration": 10, "velocity": 50}, {"time": 93010, "pitch": 86, "duration": 10, "velocity": 50}, {"time": 93120, "pitch": 73, "duration": 10, "velocity": 64}, {"time": 93120, "pitch": 86, "duration": 10, "velocity": 36}, {"time": 93250, "pitch": 86, "duration": 10, "velocity": 22}, {"time": 93250, "pitch": 97, "duration": 10, "velocity": 64}, {"time": 93360, "pitch": 77, "duration": 10, "velocity": 64}, {"time": 93360, "pitch": 86, "duration": 10, "velocity": 36}, {"time": 93360, "pitch": 97, "duration": 10, "velocity": 92}, {"time": 93490, "pitch": 86, "duration": 10, "velocity": 22}, {"time": 93600, "pitch": 77, "duration": 10, "velocity": 78}, {"time": 93600, "pitch": 86, "duration": 10, "velocity": 36}, {"time": 93730, "pitch": 75, "duration": 10, "velocity": 22}, {"time": 93730, "pitch": 86, "duration": 10, "velocity": 92}, {"time": 93840, "pitch": 86, "duration": 10, "velocity": 64}, {"time": 93970, "pitch": 75, "duration": 10, "velocity": 36}, {"time": 93970, "pitch": 86, "duration": 10, "velocity": 50}, {"time": 94080, "pitch": 73, "duration": 10, "velocity": 70}, {"time": 94080, "pitch": 86, "duration": 10, "velocity": 36}, {"time": 94080, "pitch": 99, "duration": 10, "velocity": 36}, {"time": 94210, "pitch": 86, "duration": 10, "velocity": 22}, {"time": 94210, "pitch": 99, "duration": 10, "velocity": 64}, {"time": 94320, "pitch": 74, "duration": 10, "velocity": 36}, {"time": 94320, "pitch": 86, "duration": 10, "velocity": 36}, {"time": 94320, "pitch": 98, "duration": 10, "velocity": 78}, {"time": 94450, "pitch": 74, "duration": 10, "velocity": 50}, {"time": 94450, "pitch": 86, "duration": 10, "velocity": 22}, {"time": 94560, "pitch": 86, "duration": 10, "velocity": 36}, {"time": 94690, "pitch": 75, "duration": 10, "velocity": 36}, {"time": 94690, "pitch": 86, "duration": 10, "velocity": 92}, {"time": 94800, "pitch": 77, "duration": 10, "velocity": 36}, {"time": 94800, "pitch": 86, "duration": 10, "velocity": 64}, {"time": 94930, "pitch": 75, "duration": 10, "velocity": 64}, {"time": 94930, "pitch": 86, "duration": 10, "velocity": 50}, {"time": 95040, "pitch": 73, "duration": 10, "velocity": 70}, {"time": 95040, "pitch": 86, "duration": 10, "velocity": 36}, {"time": 95170, "pitch": 77, "duration": 10, "velocity": 36}, {"time": 95170, "pitch": 86, "duration": 10, "velocity": 22}, {"time": 95280, "pitch": 77, "duration": 10, "velocity": 64}, {"time": 95280, "pitch": 86, "duration": 10, "velocity": 36}, {"time": 95410, "pitch": 86, "duration": 10, "velocity": 22}, {"time": 95520, "pitch": 77, "duration": 10, "velocity": 78}, {"time": 95520, "pitch": 86, "duration": 10, "velocity": 36}, {"time": 95650, "pitch": 75, "duration": 10, "velocity": 22}, {"time": 95650, "pitch": 86, "duration": 10, "velocity": 92}, {"time": 95760, "pitch": 86, "duration": 10, "velocity": 64}, {"time": 95890, "pitch": 26, "duration": 10, "velocity": 36}, {"time": 95890, "pitch": 75, "duration": 10, "velocity": 36}, {"time": 95890, "pitch": 86, "duration": 10, "velocity": 50}, {"time": 95940, "pitch": 26, "duration": 10, "velocity": 50}, {"time": 96000, "pitch": 26, "duration": 10, "velocity": 106}, {"time": 96000, "pitch": 73, "duration": 10, "velocity": 70}, {"time": 96000, "pitch": 86, "duration": 10, "velocity": 36}, {"time": 96130, "pitch": 74, "duration": 10, "velocity": 36}, {"time": 96130, "pitch": 86, "duration": 10, "velocity": 22}, {"time": 96240, "pitch": 74, "duration": 10, "velocity": 50}, {"time": 96240, "pitch": 86, "duration": 10, "velocity": 36}, {"time": 96370, "pitch": 86, "duration": 10, "velocity": 22}, {"time": 96480, "pitch": 77, "duration": 10, "velocity": 64}, {"time": 96480, "pitch": 86, "duration": 10, "velocity": 36}, {"time": 96610, "pitch": 86, "duration": 10, "velocity": 92}, {"time": 96720, "pitch": 75, "duration": 10, "velocity": 36}, {"time": 96720, "pitch": 86, "duration": 10, "velocity": 64}, {"time": 96850, "pitch": 77, "duration": 10, "velocity": 50}, {"time": 96850, "pitch": 86, "duration": 10, "velocity": 50}, {"time": 96960, "pitch": 73, "duration": 10, "velocity": 64}, {"time": 96960, "pitch": 86, "duration": 10, "velocity": 36}, {"time": 97090, "pitch": 86, "duration": 10, "velocity": 22}, {"time": 97090, "pitch": 97, "duration": 10, "velocity": 64}, {"time": 97200, "pitch": 77, "duration": 10, "velocity": 64}, {"time": 97200, "pitch": 86, "duration": 10, "velocity": 36}, {"time": 97200, "pitch": 97, "duration": 10, "velocity": 92}, {"time": 97330, "pitch": 86, "duration": 10, "velocity": 22}, {"time": 97440, "pitch": 77, "duration": 10, "velocity": 78}, {"time": 97440, "pitch": 86, "duration": 10, "velocity": 36}, {"time": 97570, "pitch": 75, "duration": 10, "velocity": 22}, {"time": 97570, "pitch": 86, "duration": 10, "velocity": 92}, {"time": 97680, "pitch": 86, "duration": 10, "velocity": 64}, {"time": 97810, "pitch": 75, "duration": 10, "velocity": 36}, {"time": 97810, "pitch": 86, "duration": 10, "velocity": 50}, {"time": 97920, "pitch": 73, "duration": 10, "velocity": 70}, {"time": 97920, "pitch": 86, "duration": 10, "velocity": 36}, {"time": 97920, "pitch": 99, "duration": 10, "velocity": 36}, {"time": 98050, "pitch": 86, "duration": 10, "velocity": 22}, {"time": 98050, "pitch": 99, "duration": 10, "velocity": 64}, {"time": 98160, "pitch": 74, "duration": 10, "velocity": 36}, {"time": 98160, "pitch": 86, "duration": 10, "velocity": 36}, {"time": 98160, "pitch": 98, "duration": 10, "velocity": 78}, {"time": 98290, "pitch": 74, "duration": 10, "velocity": 50}, {"time": 98290, "pitch": 86, "duration": 10, "velocity": 22}, {"time": 98400, "pitch": 86, "duration": 10, "velocity": 36}, {"time": 98530, "pitch": 75, "duration": 10, "velocity": 36}, {"time": 98530, "pitch": 86, "duration": 10, "velocity": 92}, {"time": 98640, "pitch": 77, "duration": 10, "velocity": 36}, {"time": 98640, "pitch": 86, "duration": 10, "velocity": 64}, {"time": 98770, "pitch": 75, "duration": 10, "velocity": 64}, {"time": 98770, "pitch": 86, "duration": 10, "velocity": 50}, {"time": 98880, "pitch": 73, "duration": 10, "velocity": 70}, {"time": 98880, "pitch": 86, "duration": 10, "velocity": 36}, {"time": 99010, "pitch": 77, "duration": 10, "velocity": 36}, {"time": 99010, "pitch": 86, "duration": 10, "velocity": 22}, {"time": 99120, "pitch": 77, "duration": 10, "velocity": 64}, {"time": 99120, "pitch": 86, "duration": 10, "velocity": 36}, {"time": 99250, "pitch": 86, "duration": 10, "velocity": 22}, {"time": 99360, "pitch": 77, "duration": 10, "velocity": 78}, {"time": 99360, "pitch": 86, "duration": 10, "velocity": 36}, {"time": 99490, "pitch": 75, "duration": 10, "velocity": 22}, {"time": 99490, "pitch": 86, "duration": 10, "velocity": 92}, {"time": 99600, "pitch": 86, "duration": 10, "velocity": 64}, {"time": 99730, "pitch": 26, "duration": 10, "velocity": 36}, {"time": 99730, "pitch": 75, "duration": 10, "velocity": 36}, {"time": 99730, "pitch": 86, "duration": 10, "velocity": 50}, {"time": 99780, "pitch": 26, "duration": 10, "velocity": 50}, {"time": 99840, "pitch": 26, "duration": 10, "velocity": 106}, {"time": 99840, "pitch": 73, "duration": 10, "velocity": 70}, {"time": 99840, "pitch": 86, "duration": 10, "velocity": 36}, {"time": 99970, "pitch": 74, "duration": 10, "velocity": 36}, {"time": 99970, "pitch": 86, "duration": 10, "velocity": 22}, {"time": 100080, "pitch": 74, "duration": 10, "velocity": 50}, {"time": 100080, "pitch": 86, "duration": 10, "velocity": 36}, {"time": 100210, "pitch": 86, "duration": 10, "velocity": 22}, {"time": 100320, "pitch": 77, "duration": 10, "velocity": 64}, {"time": 100320, "pitch": 86, "duration": 10, "velocity": 36}, {"time": 100450, "pitch": 86, "duration": 10, "velocity": 92}, {"time": 100560, "pitch": 75, "duration": 10, "velocity": 36}, {"time": 100560, "pitch": 86, "duration": 10, "velocity": 64}, {"time": 100690, "pitch": 77, "duration": 10, "velocity": 50}, {"time": 100690, "pitch": 86, "duration": 10, "velocity": 50}, {"time": 100800, "pitch": 73, "duration": 10, "velocity": 64}, {"time": 100800, "pitch": 86, "duration": 10, "velocity": 36}, {"time": 100930, "pitch": 86, "duration": 10, "velocity": 22}, {"time": 100930, "pitch": 97, "duration": 10, "velocity": 64}, {"time": 101040, "pitch": 77, "duration": 10, "velocity": 64}, {"time": 101040, "pitch": 86, "duration": 10, "velocity": 36}, {"time": 101040, "pitch": 97, "duration": 10, "velocity": 92}, {"time": 101170, "pitch": 86, "duration": 10, "velocity": 22}, {"time": 101280, "pitch": 77, "duration": 10, "velocity": 78}, {"time": 101280, "pitch": 86, "duration": 10, "velocity": 36}, {"time": 101410, "pitch": 75, "duration": 10, "velocity": 22}, {"time": 101410, "pitch": 86, "duration": 10, "velocity": 92}, {"time": 101520, "pitch": 86, "duration": 10, "velocity": 64}, {"time": 101650, "pitch": 75, "duration": 10, "velocity": 36}, {"time": 101650, "pitch": 86, "duration": 10, "velocity": 50}, {"time": 101760, "pitch": 73, "duration": 10, "velocity": 70}, {"time": 101760, "pitch": 86, "duration": 10, "velocity": 36}, {"time": 101760, "pitch": 99, "duration": 10, "velocity": 36}, {"time": 101888, "pitch": 86, "duration": 10, "velocity": 22}, {"time": 101888, "pitch": 99, "duration": 10, "velocity": 64}, {"time": 101997, "pitch": 74, "duration": 10, "velocity": 36}, {"time": 101997, "pitch": 86, "duration": 10, "velocity": 36}, {"time": 101997, "pitch": 98, "duration": 10, "velocity": 78}, {"time": 102125, "pitch": 74, "duration": 10, "velocity": 50}, {"time": 102125, "pitch": 86, "duration": 10, "velocity": 22}, {"time": 102234, "pitch": 86, "duration": 10, "velocity": 36}, {"time": 102365, "pitch": 75, "duration": 10, "velocity": 36}, {"time": 102365, "pitch": 86, "duration": 10, "velocity": 92}, {"time": 102477, "pitch": 77, "duration": 10, "velocity": 36}, {"time": 102477, "pitch": 86, "duration": 10, "velocity": 64}, {"time": 102609, "pitch": 75, "duration": 10, "velocity": 64}, {"time": 102609, "pitch": 86, "duration": 10, "velocity": 50}, {"time": 102720, "pitch": 73, "duration": 10, "velocity": 70}, {"time": 102720, "pitch": 86, "duration": 10, "velocity": 36}, {"time": 102850, "pitch": 77, "duration": 10, "velocity": 36}, {"time": 102850, "pitch": 86, "duration": 10, "velocity": 22}, {"time": 102960, "pitch": 77, "duration": 10, "velocity": 64}, {"time": 102960, "pitch": 86, "duration": 10, "velocity": 36}, {"time": 103090, "pitch": 86, "duration": 10, "velocity": 22}, {"time": 103200, "pitch": 77, "duration": 10, "velocity": 78}, {"time": 103200, "pitch": 86, "duration": 10, "velocity": 36}, {"time": 103330, "pitch": 75, "duration": 10, "velocity": 22}, {"time": 103330, "pitch": 86, "duration": 10, "velocity": 92}, {"time": 103440, "pitch": 86, "duration": 10, "velocity": 64}, {"time": 103570, "pitch": 26, "duration": 10, "velocity": 36}, {"time": 103570, "pitch": 75, "duration": 10, "velocity": 36}, {"time": 103570, "pitch": 86, "duration": 10, "velocity": 50}, {"time": 103620, "pitch": 26, "duration": 10, "velocity": 50}, {"time": 103680, "pitch": 26, "duration": 10, "velocity": 106}, {"time": 103680, "pitch": 73, "duration": 10, "velocity": 70}, {"time": 103680, "pitch": 86, "duration": 10, "velocity": 36}, {"time": 103810, "pitch": 74, "duration": 10, "velocity": 36}, {"time": 103810, "pitch": 86, "duration": 10, "velocity": 22}, {"time": 103920, "pitch": 74, "duration": 10, "velocity": 50}, {"time": 103920, "pitch": 86, "duration": 10, "velocity": 36}, {"time": 104050, "pitch": 86, "duration": 10, "velocity": 22}, {"time": 104160, "pitch": 77, "duration": 10, "velocity": 64}, {"time": 104160, "pitch": 86, "duration": 10, "velocity": 36}, {"time": 104290, "pitch": 86, "duration": 10, "velocity": 92}, {"time": 104400, "pitch": 75, "duration": 10, "velocity": 36}, {"time": 104400, "pitch": 86, "duration": 10, "velocity": 64}, {"time": 104530, "pitch": 77, "duration": 10, "velocity": 50}, {"time": 104530, "pitch": 86, "duration": 10, "velocity": 50}, {"time": 104640, "pitch": 73, "duration": 10, "velocity": 64}, {"time": 104640, "pitch": 86, "duration": 10, "velocity": 36}, {"time": 104770, "pitch": 86, "duration": 10, "velocity": 22}, {"time": 104770, "pitch": 97, "duration": 10, "velocity": 64}, {"time": 104880, "pitch": 77, "duration": 10, "velocity": 64}, {"time": 104880, "pitch": 86, "duration": 10, "velocity": 36}, {"time": 104880, "pitch": 97, "duration": 10, "velocity": 92}, {"time": 105010, "pitch": 86, "duration": 10, "velocity": 22}, {"time": 105120, "pitch": 77, "duration": 10, "velocity": 78}, {"time": 105120, "pitch": 86, "duration": 10, "velocity": 36}, {"time": 105250, "pitch": 75, "duration": 10, "velocity": 22}, {"time": 105250, "pitch": 86, "duration": 10, "velocity": 92}, {"time": 105360, "pitch": 86, "duration": 10, "velocity": 64}, {"time": 105490, "pitch": 75, "duration": 10, "velocity": 36}, {"time": 105490, "pitch": 86, "duration": 10, "velocity": 50}, {"time": 105600, "pitch": 73, "duration": 10, "velocity": 70}, {"time": 105600, "pitch": 86, "duration": 10, "velocity": 36}, {"time": 105600, "pitch": 99, "duration": 10, "velocity": 36}, {"time": 105730, "pitch": 86, "duration": 10, "velocity": 22}, {"time": 105730, "pitch": 99, "duration": 10, "velocity": 64}, {"time": 105840, "pitch": 74, "duration": 10, "velocity": 36}, {"time": 105840, "pitch": 86, "duration": 10, "velocity": 36}, {"time": 105840, "pitch": 98, "duration": 10, "velocity": 78}, {"time": 105970, "pitch": 74, "duration": 10, "velocity": 50}, {"time": 105970, "pitch": 86, "duration": 10, "velocity": 22}, {"time": 106080, "pitch": 86, "duration": 10, "velocity": 36}, {"time": 106210, "pitch": 75, "duration": 10, "velocity": 36}, {"time": 106210, "pitch": 86, "duration": 10, "velocity": 92}, {"time": 106320, "pitch": 77, "duration": 10, "velocity": 36}, {"time": 106320, "pitch": 86, "duration": 10, "velocity": 64}, {"time": 106450, "pitch": 75, "duration": 10, "velocity": 64}, {"time": 106450, "pitch": 86, "duration": 10, "velocity": 50}, {"time": 106560, "pitch": 73, "duration": 10, "velocity": 70}, {"time": 106560, "pitch": 86, "duration": 10, "velocity": 36}, {"time": 106690, "pitch": 77, "duration": 10, "velocity": 36}, {"time": 106690, "pitch": 86, "duration": 10, "velocity": 22}, {"time": 106800, "pitch": 77, "duration": 10, "velocity": 64}, {"time": 106800, "pitch": 86, "duration": 10, "velocity": 36}, {"time": 106930, "pitch": 86, "duration": 10, "velocity": 22}, {"time": 107040, "pitch": 77, "duration": 10, "velocity": 78}, {"time": 107040, "pitch": 86, "duration": 10, "velocity": 36}, {"time": 107170, "pitch": 74, "duration": 10, "velocity": 36}, {"time": 107170, "pitch": 86, "duration": 10, "velocity": 92}, {"time": 107220, "pitch": 74, "duration": 10, "velocity": 50}, {"time": 107280, "pitch": 74, "duration": 10, "velocity": 50}, {"time": 107280, "pitch": 86, "duration": 10, "velocity": 64}, {"time": 107340, "pitch": 74, "duration": 10, "velocity": 36}, {"time": 107400, "pitch": 26, "duration": 10, "velocity": 36}, {"time": 107400, "pitch": 74, "duration": 10, "velocity": 50}, {"time": 107400, "pitch": 86, "duration": 10, "velocity": 50}, {"time": 107460, "pitch": 26, "duration": 10, "velocity": 50}, {"time": 107460, "pitch": 74, "duration": 10, "velocity": 36}, {"time": 107520, "pitch": 26, "duration": 10, "velocity": 106}, {"time": 107520, "pitch": 74, "duration": 10, "velocity": 64}, {"time": 107520, "pitch": 86, "duration": 10, "velocity": 36}, {"time": 107580, "pitch": 74, "duration": 10, "velocity": 50}, {"time": 107640, "pitch": 77, "duration": 10, "velocity": 64}, {"time": 107640, "pitch": 86, "duration": 10, "velocity": 22}, {"time": 107760, "pitch": 74, "duration": 10, "velocity": 50}, {"time": 107760, "pitch": 86, "duration": 10, "velocity": 36}, {"time": 107820, "pitch": 74, "duration": 10, "velocity": 64}, {"time": 107880, "pitch": 77, "duration": 10, "velocity": 64}, {"time": 107880, "pitch": 86, "duration": 10, "velocity": 22}, {"time": 108000, "pitch": 77, "duration": 10, "velocity": 64}, {"time": 108000, "pitch": 86, "duration": 10, "velocity": 36}, {"time": 108130, "pitch": 86, "duration": 10, "velocity": 92}, {"time": 108240, "pitch": 75, "duration": 10, "velocity": 36}, {"time": 108240, "pitch": 86, "duration": 10, "velocity": 64}, {"time": 108370, "pitch": 77, "duration": 10, "velocity": 50}, {"time": 108370, "pitch": 86, "duration": 10, "velocity": 50}, {"time": 108480, "pitch": 73, "duration": 10, "velocity": 64}, {"time": 108480, "pitch": 86, "duration": 10, "velocity": 36}, {"time": 108610, "pitch": 86, "duration": 10, "velocity": 22}, {"time": 108610, "pitch": 97, "duration": 10, "velocity": 64}, {"time": 108720, "pitch": 77, "duration": 10, "velocity": 64}, {"time": 108720, "pitch": 86, "duration": 10, "velocity": 36}, {"time": 108720, "pitch": 97, "duration": 10, "velocity": 92}, {"time": 108850, "pitch": 86, "duration": 10, "velocity": 22}, {"time": 108960, "pitch": 77, "duration": 10, "velocity": 78}, {"time": 108960, "pitch": 86, "duration": 10, "velocity": 36}, {"time": 109090, "pitch": 75, "duration": 10, "velocity": 22}, {"time": 109090, "pitch": 86, "duration": 10, "velocity": 92}, {"time": 109200, "pitch": 86, "duration": 10, "velocity": 64}, {"time": 109330, "pitch": 75, "duration": 10, "velocity": 36}, {"time": 109330, "pitch": 86, "duration": 10, "velocity": 50}, {"time": 109440, "pitch": 73, "duration": 10, "velocity": 70}, {"time": 109440, "pitch": 86, "duration": 10, "velocity": 36}, {"time": 109440, "pitch": 99, "duration": 10, "velocity": 36}, {"time": 109570, "pitch": 86, "duration": 10, "velocity": 22}, {"time": 109570, "pitch": 99, "duration": 10, "velocity": 64}, {"time": 109680, "pitch": 74, "duration": 10, "velocity": 36}, {"time": 109680, "pitch": 86, "duration": 10, "velocity": 36}, {"time": 109680, "pitch": 98, "duration": 10, "velocity": 78}, {"time": 109810, "pitch": 74, "duration": 10, "velocity": 50}, {"time": 109810, "pitch": 86, "duration": 10, "velocity": 22}, {"time": 109920, "pitch": 86, "duration": 10, "velocity": 36}, {"time": 110050, "pitch": 75, "duration": 10, "velocity": 36}, {"time": 110050, "pitch": 86, "duration": 10, "velocity": 92}, {"time": 110160, "pitch": 77, "duration": 10, "velocity": 36}, {"time": 110160, "pitch": 86, "duration": 10, "velocity": 64}, {"time": 110290, "pitch": 75, "duration": 10, "velocity": 64}, {"time": 110290, "pitch": 86, "duration": 10, "velocity": 50}, {"time": 110400, "pitch": 73, "duration": 10, "velocity": 70}, {"time": 110400, "pitch": 86, "duration": 10, "velocity": 36}, {"time": 110530, "pitch": 77, "duration": 10, "velocity": 36}, {"time": 110530, "pitch": 86, "duration": 10, "velocity": 22}, {"time": 110640, "pitch": 77, "duration": 10, "velocity": 64}, {"time": 110640, "pitch": 86, "duration": 10, "velocity": 36}, {"time": 110770, "pitch": 86, "duration": 10, "velocity": 22}, {"time": 110880, "pitch": 77, "duration": 10, "velocity": 78}, {"time": 110880, "pitch": 86, "duration": 10, "velocity": 36}, {"time": 111010, "pitch": 75, "duration": 10, "velocity": 22}, {"time": 111010, "pitch": 86, "duration": 10, "velocity": 92}, {"time": 111120, "pitch": 86, "duration": 10, "velocity": 64}, {"time": 111250, "pitch": 26, "duration": 10, "velocity": 36}, {"time": 111250, "pitch": 75, "duration": 10, "velocity": 36}, {"time": 111250, "pitch": 86, "duration": 10, "velocity": 50}, {"time": 111300, "pitch": 26, "duration": 10, "velocity": 50}, {"time": 111360, "pitch": 26, "duration": 10, "velocity": 106}, {"time": 111360, "pitch": 73, "duration": 10, "velocity": 70}, {"time": 111360, "pitch": 86, "duration": 10, "velocity": 36}, {"time": 111490, "pitch": 74, "duration": 10, "velocity": 36}, {"time": 111490, "pitch": 86, "duration": 10, "velocity": 22}, {"time": 111600, "pitch": 74, "duration": 10, "velocity": 50}, {"time": 111600, "pitch": 86, "duration": 10, "velocity": 36}, {"time": 111730, "pitch": 86, "duration": 10, "velocity": 22}, {"time": 111840, "pitch": 77, "duration": 10, "velocity": 64}, {"time": 111840, "pitch": 86, "duration": 10, "velocity": 36}, {"time": 111970, "pitch": 86, "duration": 10, "velocity": 92}, {"time": 112080, "pitch": 75, "duration": 10, "velocity": 36}, {"time": 112080, "pitch": 86, "duration": 10, "velocity": 64}, {"time": 112210, "pitch": 77, "duration": 10, "velocity": 50}, {"time": 112210, "pitch": 86, "duration": 10, "velocity": 50}, {"time": 112320, "pitch": 73, "duration": 10, "velocity": 64}, {"time": 112320, "pitch": 86, "duration": 10, "velocity": 36}, {"time": 112450, "pitch": 86, "duration": 10, "velocity": 22}, {"time": 112450, "pitch": 97, "duration": 10, "velocity": 64}, {"time": 112560, "pitch": 77, "duration": 10, "velocity": 64}, {"time": 112560, "pitch": 86, "duration": 10, "velocity": 36}, {"time": 112560, "pitch": 97, "duration": 10, "velocity": 92}, {"time": 112690, "pitch": 86, "duration": 10, "velocity": 22}, {"time": 112800, "pitch": 77, "duration": 10, "velocity": 78}, {"time": 112800, "pitch": 86, "duration": 10, "velocity": 36}, {"time": 112930, "pitch": 75, "duration": 10, "velocity": 22}, {"time": 112930, "pitch": 86, "duration": 10, "velocity": 92}, {"time": 113040, "pitch": 86, "duration": 10, "velocity": 64}, {"time": 113170, "pitch": 75, "duration": 10, "velocity": 36}, {"time": 113170, "pitch": 86, "duration": 10, "velocity": 50}, {"time": 113280, "pitch": 73, "duration": 10, "velocity": 70}, {"time": 113280, "pitch": 86, "duration": 10, "velocity": 36}, {"time": 113280, "pitch": 99, "duration": 10, "velocity": 36}, {"time": 113410, "pitch": 86, "duration": 10, "velocity": 22}, {"time": 113410, "pitch": 99, "duration": 10, "velocity": 64}, {"time": 113520, "pitch": 74, "duration": 10, "velocity": 36}, {"time": 113520, "pitch": 86, "duration": 10, "velocity": 36}, {"time": 113520, "pitch": 98, "duration": 10, "velocity": 78}, {"time": 113650, "pitch": 74, "duration": 10, "velocity": 50}, {"time": 113650, "pitch": 86, "duration": 10, "velocity": 22}, {"time": 113760, "pitch": 86, "duration": 10, "velocity": 36}, {"time": 113890, "pitch": 75, "duration": 10, "velocity": 36}, {"time": 113890, "pitch": 86, "duration": 10, "velocity": 92}, {"time": 114000, "pitch": 77, "duration": 10, "velocity": 36}, {"time": 114000, "pitch": 86, "duration": 10, "velocity": 64}, {"time": 114130, "pitch": 75, "duration": 10, "velocity": 64}, {"time": 114130, "pitch": 86, "duration": 10, "velocity": 50}, {"time": 114240, "pitch": 73, "duration": 10, "velocity": 70}, {"time": 114240, "pitch": 86, "duration": 10, "velocity": 36}, {"time": 114370, "pitch": 77, "duration": 10, "velocity": 36}, {"time": 114370, "pitch": 86, "duration": 10, "velocity": 22}, {"time": 114480, "pitch": 77, "duration": 10, "velocity": 64}, {"time": 114480, "pitch": 86, "duration": 10, "velocity": 36}, {"time": 114610, "pitch": 86, "duration": 10, "velocity": 22}, {"time": 114720, "pitch": 77, "duration": 10, "velocity": 78}, {"time": 114720, "pitch": 86, "duration": 10, "velocity": 36}, {"time": 114850, "pitch": 75, "duration": 10, "velocity": 22}, {"time": 114850, "pitch": 86, "duration": 10, "velocity": 92}, {"time": 114960, "pitch": 86, "duration": 10, "velocity": 64}, {"time": 115090, "pitch": 26, "duration": 10, "velocity": 36}, {"time": 115090, "pitch": 75, "duration": 10, "velocity": 36}, {"time": 115090, "pitch": 86, "duration": 10, "velocity": 50}, {"time": 115140, "pitch": 26, "duration": 10, "velocity": 50}, {"time": 115200, "pitch": 26, "duration": 10, "velocity": 106}, {"time": 115200, "pitch": 73, "duration": 10, "velocity": 70}, {"time": 115200, "pitch": 86, "duration": 10, "velocity": 36}, {"time": 115330, "pitch": 74, "duration": 10, "velocity": 36}, {"time": 115330, "pitch": 86, "duration": 10, "velocity": 22}, {"time": 115440, "pitch": 74, "duration": 10, "velocity": 50}, {"time": 115440, "pitch": 86, "duration": 10, "velocity": 36}, {"time": 115570, "pitch": 86, "duration": 10, "velocity": 22}, {"time": 115680, "pitch": 77, "duration": 10, "velocity": 64}, {"time": 115680, "pitch": 86, "duration": 10, "velocity": 36}, {"time": 115810, "pitch": 86, "duration": 10, "velocity": 92}, {"time": 115920, "pitch": 75, "duration": 10, "velocity": 36}, {"time": 115920, "pitch": 86, "duration": 10, "velocity": 64}, {"time": 116050, "pitch": 77, "duration": 10, "velocity": 50}, {"time": 116050, "pitch": 86, "duration": 10, "velocity": 50}, {"time": 116160, "pitch": 73, "duration": 10, "velocity": 64}, {"time": 116160, "pitch": 86, "duration": 10, "velocity": 36}, {"time": 116290, "pitch": 86, "duration": 10, "velocity": 22}, {"time": 116290, "pitch": 97, "duration": 10, "velocity": 64}, {"time": 116400, "pitch": 77, "duration": 10, "velocity": 64}, {"time": 116400, "pitch": 86, "duration": 10, "velocity": 36}, {"time": 116400, "pitch": 97, "duration": 10, "velocity": 92}, {"time": 116530, "pitch": 86, "duration": 10, "velocity": 22}, {"time": 116640, "pitch": 77, "duration": 10, "velocity": 78}, {"time": 116640, "pitch": 86, "duration": 10, "velocity": 36}, {"time": 116770, "pitch": 75, "duration": 10, "velocity": 22}, {"time": 116770, "pitch": 86, "duration": 10, "velocity": 92}, {"time": 116880, "pitch": 86, "duration": 10, "velocity": 64}, {"time": 117010, "pitch": 75, "duration": 10, "velocity": 36}, {"time": 117010, "pitch": 86, "duration": 10, "velocity": 50}, {"time": 117120, "pitch": 73, "duration": 10, "velocity": 70}, {"time": 117120, "pitch": 86, "duration": 10, "velocity": 36}, {"time": 117120, "pitch": 99, "duration": 10, "velocity": 36}, {"time": 117250, "pitch": 86, "duration": 10, "velocity": 22}, {"time": 117250, "pitch": 99, "duration": 10, "velocity": 64}, {"time": 117360, "pitch": 74, "duration": 10, "velocity": 36}, {"time": 117360, "pitch": 86, "duration": 10, "velocity": 36}, {"time": 117360, "pitch": 98, "duration": 10, "velocity": 78}, {"time": 117490, "pitch": 74, "duration": 10, "velocity": 50}, {"time": 117490, "pitch": 86, "duration": 10, "velocity": 50}, {"time": 117510, "pitch": 86, "duration": 10, "velocity": 40}, {"time": 117540, "pitch": 86, "duration": 10, "velocity": 45}, {"time": 117570, "pitch": 86, "duration": 10, "velocity": 35}, {"time": 117600, "pitch": 86, "duration": 10, "velocity": 40}, {"time": 117630, "pitch": 86, "duration": 10, "velocity": 30}, {"time": 117660, "pitch": 86, "duration": 10, "velocity": 35}, {"time": 117690, "pitch": 86, "duration": 10, "velocity": 25}, {"time": 117720, "pitch": 75, "duration": 10, "velocity": 36}, {"time": 117720, "pitch": 86, "duration": 10, "velocity": 30}, {"time": 117750, "pitch": 86, "duration": 10, "velocity": 20}, {"time": 117780, "pitch": 86, "duration": 10, "velocity": 25}, {"time": 117810, "pitch": 86, "duration": 10, "velocity": 15}, {"time": 117840, "pitch": 77, "duration": 10, "velocity": 36}, {"time": 117840, "pitch": 86, "duration": 10, "velocity": 20}, {"time": 117870, "pitch": 86, "duration": 10, "velocity": 10}, {"time": 117900, "pitch": 86, "duration": 10, "velocity": 15}, {"time": 117930, "pitch": 86, "duration": 10, "velocity": 9}, {"time": 117960, "pitch": 75, "duration": 10, "velocity": 64}, {"time": 117960, "pitch": 86, "duration": 10, "velocity": 10}, {"time": 117990, "pitch": 86, "duration": 10, "velocity": 8}, {"time": 118020, "pitch": 86, "duration": 10, "velocity": 9}, {"time": 118050, "pitch": 86, "duration": 10, "velocity": 7}, {"time": 118080, "pitch": 73, "duration": 10, "velocity": 70}, {"time": 118080, "pitch": 86, "duration": 10, "velocity": 8}, {"time": 118110, "pitch": 86, "duration": 10, "velocity": 6}, {"time": 118140, "pitch": 86, "duration": 10, "velocity": 7}, {"time": 118170, "pitch": 86, "duration": 10, "velocity": 5}, {"time": 118210, "pitch": 77, "duration": 10, "velocity": 36}, {"time": 118320, "pitch": 77, "duration": 10, "velocity": 64}, {"time": 118560, "pitch": 77, "duration": 10, "velocity": 78}, {"time": 118560, "pitch": 86, "duration": 10, "velocity": 36}, {"time": 118690, "pitch": 75, "duration": 10, "velocity": 22}, {"time": 118690, "pitch": 86, "duration": 10, "velocity": 92}, {"time": 118800, "pitch": 86, "duration": 10, "velocity": 64}, {"time": 118930, "pitch": 26, "duration": 10, "velocity": 36}, {"time": 118930, "pitch": 75, "duration": 10, "velocity": 36}, {"time": 118930, "pitch": 86, "duration": 10, "velocity": 50}, {"time": 118980, "pitch": 26, "duration": 10, "velocity": 50}, {"time": 119040, "pitch": 26, "duration": 10, "velocity": 106}, {"time": 119040, "pitch": 73, "duration": 10, "velocity": 70}, {"time": 119040, "pitch": 86, "duration": 10, "velocity": 36}, {"time": 119170, "pitch": 74, "duration": 10, "velocity": 36}, {"time": 119170, "pitch": 86, "duration": 10, "velocity": 22}, {"time": 119280, "pitch": 74, "duration": 10, "velocity": 50}, {"time": 119280, "pitch": 86, "duration": 10, "velocity": 36}, {"time": 119410, "pitch": 86, "duration": 10, "velocity": 22}, {"time": 119520, "pitch": 26, "duration": 10, "velocity": 64}, {"time": 119520, "pitch": 77, "duration": 10, "velocity": 64}, {"time": 119520, "pitch": 86, "duration": 10, "velocity": 36}, {"time": 119650, "pitch": 26, "duration": 10, "velocity": 36}, {"time": 119650, "pitch": 86, "duration": 10, "velocity": 92}, {"time": 119760, "pitch": 26, "duration": 10, "velocity": 64}, {"time": 119760, "pitch": 75, "duration": 10, "velocity": 36}, {"time": 119760, "pitch": 86, "duration": 10, "velocity": 64}, {"time": 119890, "pitch": 26, "duration": 10, "velocity": 36}, {"time": 119890, "pitch": 77, "duration": 10, "velocity": 50}, {"time": 119890, "pitch": 86, "duration": 10, "velocity": 50}, {"time": 120000, "pitch": 26, "duration": 10, "velocity": 106}, {"time": 120000, "pitch": 73, "duration": 10, "velocity": 64}, {"time": 120000, "pitch": 86, "duration": 10, "velocity": 36}, {"time": 120130, "pitch": 26, "duration": 10, "velocity": 36}, {"time": 120130, "pitch": 86, "duration": 10, "velocity": 22}, {"time": 120130, "pitch": 97, "duration": 10, "velocity": 64}, {"time": 120240, "pitch": 26, "duration": 10, "velocity": 64}, {"time": 120240, "pitch": 77, "duration": 10, "velocity": 64}, {"time": 120240, "pitch": 86, "duration": 10, "velocity": 36}, {"time": 120240, "pitch": 97, "duration": 10, "velocity": 92}, {"time": 120370, "pitch": 26, "duration": 10, "velocity": 36}, {"time": 120370, "pitch": 86, "duration": 10, "velocity": 22}, {"time": 120480, "pitch": 26, "duration": 10, "velocity": 64}, {"time": 120480, "pitch": 77, "duration": 10, "velocity": 78}, {"time": 120480, "pitch": 86, "duration": 10, "velocity": 36}, {"time": 120610, "pitch": 26, "duration": 10, "velocity": 36}, {"time": 120610, "pitch": 75, "duration": 10, "velocity": 22}, {"time": 120610, "pitch": 86, "duration": 10, "velocity": 92}, {"time": 120720, "pitch": 26, "duration": 10, "velocity": 64}, {"time": 120720, "pitch": 86, "duration": 10, "velocity": 64}, {"time": 120850, "pitch": 26, "duration": 10, "velocity": 36}, {"time": 120850, "pitch": 75, "duration": 10, "velocity": 36}, {"time": 120850, "pitch": 86, "duration": 10, "velocity": 50}, {"time": 120960, "pitch": 26, "duration": 10, "velocity": 106}, {"time": 120960, "pitch": 73, "duration": 10, "velocity": 70}, {"time": 120960, "pitch": 86, "duration": 10, "velocity": 36}, {"time": 120960, "pitch": 99, "duration": 10, "velocity": 36}, {"time": 121090, "pitch": 26, "duration": 10, "velocity": 36}, {"time": 121090, "pitch": 86, "duration": 10, "velocity": 22}, {"time": 121090, "pitch": 99, "duration": 10, "velocity": 64}, {"time": 121200, "pitch": 26, "duration": 10, "velocity": 64}, {"time": 121200, "pitch": 74, "duration": 10, "velocity": 36}, {"time": 121200, "pitch": 86, "duration": 10, "velocity": 36}, {"time": 121200, "pitch": 98, "duration": 10, "velocity": 78}, {"time": 121330, "pitch": 26, "duration": 10, "velocity": 36}, {"time": 121330, "pitch": 74, "duration": 10, "velocity": 50}, {"time": 121330, "pitch": 86, "duration": 10, "velocity": 22}, {"time": 121440, "pitch": 26, "duration": 10, "velocity": 64}, {"time": 121440, "pitch": 86, "duration": 10, "velocity": 36}, {"time": 121570, "pitch": 26, "duration": 10, "velocity": 36}, {"time": 121570, "pitch": 75, "duration": 10, "velocity": 36}, {"time": 121570, "pitch": 86, "duration": 10, "velocity": 92}, {"time": 121680, "pitch": 26, "duration": 10, "velocity": 64}, {"time": 121680, "pitch": 77, "duration": 10, "velocity": 36}, {"time": 121680, "pitch": 86, "duration": 10, "velocity": 64}, {"time": 121810, "pitch": 26, "duration": 10, "velocity": 36}, {"time": 121810, "pitch": 75, "duration": 10, "velocity": 64}, {"time": 121810, "pitch": 86, "duration": 10, "velocity": 50}, {"time": 121920, "pitch": 26, "duration": 10, "velocity": 106}, {"time": 121920, "pitch": 73, "duration": 10, "velocity": 70}, {"time": 121920, "pitch": 86, "duration": 10, "velocity": 36}, {"time": 122050, "pitch": 26, "duration": 10, "velocity": 36}, {"time": 122050, "pitch": 77, "duration": 10, "velocity": 36}, {"time": 122050, "pitch": 86, "duration": 10, "velocity": 22}, {"time": 122160, "pitch": 26, "duration": 10, "velocity": 64}, {"time": 122160, "pitch": 77, "duration": 10, "velocity": 64}, {"time": 122160, "pitch": 86, "duration": 10, "velocity": 36}, {"time": 122290, "pitch": 26, "duration": 10, "velocity": 36}, {"time": 122290, "pitch": 86, "duration": 10, "velocity": 22}, {"time": 122400, "pitch": 26, "duration": 10, "velocity": 64}, {"time": 122400, "pitch": 77, "duration": 10, "velocity": 78}, {"time": 122400, "pitch": 86, "duration": 10, "velocity": 36}, {"time": 122530, "pitch": 26, "duration": 10, "velocity": 36}, {"time": 122530, "pitch": 75, "duration": 10, "velocity": 22}, {"time": 122530, "pitch": 86, "duration": 10, "velocity": 92}, {"time": 122640, "pitch": 26, "duration": 10, "velocity": 64}, {"time": 122640, "pitch": 86, "duration": 10, "velocity": 64}, {"time": 122770, "pitch": 26, "duration": 10, "velocity": 36}, {"time": 122770, "pitch": 75, "duration": 10, "velocity": 36}, {"time": 122770, "pitch": 86, "duration": 10, "velocity": 50}, {"time": 122880, "pitch": 26, "duration": 10, "velocity": 106}, {"time": 122880, "pitch": 73, "duration": 10, "velocity": 70}, {"time": 122880, "pitch": 86, "duration": 10, "velocity": 36}, {"time": 123010, "pitch": 26, "duration": 10, "velocity": 36}, {"time": 123010, "pitch": 74, "duration": 10, "velocity": 36}, {"time": 123010, "pitch": 86, "duration": 10, "velocity": 22}, {"time": 123120, "pitch": 26, "duration": 10, "velocity": 64}, {"time": 123120, "pitch": 74, "duration": 10, "velocity": 50}, {"time": 123120, "pitch": 86, "duration": 10, "velocity": 36}, {"time": 123250, "pitch": 26, "duration": 10, "velocity": 36}, {"time": 123250, "pitch": 86, "duration": 10, "velocity": 22}, {"time": 123360, "pitch": 26, "duration": 10, "velocity": 64}, {"time": 123360, "pitch": 77, "duration": 10, "velocity": 64}, {"time": 123360, "pitch": 86, "duration": 10, "velocity": 36}, {"time": 123490, "pitch": 26, "duration": 10, "velocity": 36}, {"time": 123490, "pitch": 86, "duration": 10, "velocity": 92}, {"time": 123600, "pitch": 26, "duration": 10, "velocity": 64}, {"time": 123600, "pitch": 75, "duration": 10, "velocity": 36}, {"time": 123600, "pitch": 86, "duration": 10, "velocity": 64}, {"time": 123730, "pitch": 26, "duration": 10, "velocity": 36}, {"time": 123730, "pitch": 77, "duration": 10, "velocity": 50}, {"time": 123730, "pitch": 86, "duration": 10, "velocity": 50}, {"time": 123840, "pitch": 26, "duration": 10, "velocity": 106}, {"time": 123840, "pitch": 73, "duration": 10, "velocity": 64}, {"time": 123840, "pitch": 86, "duration": 10, "velocity": 36}, {"time": 123970, "pitch": 26, "duration": 10, "velocity": 36}, {"time": 123970, "pitch": 86, "duration": 10, "velocity": 22}, {"time": 123970, "pitch": 97, "duration": 10, "velocity": 64}, {"time": 124080, "pitch": 26, "duration": 10, "velocity": 64}, {"time": 124080, "pitch": 77, "duration": 10, "velocity": 64}, {"time": 124080, "pitch": 86, "duration": 10, "velocity": 36}, {"time": 124080, "pitch": 97, "duration": 10, "velocity": 92}, {"time": 124210, "pitch": 26, "duration": 10, "velocity": 36}, {"time": 124210, "pitch": 86, "duration": 10, "velocity": 22}, {"time": 124320, "pitch": 26, "duration": 10, "velocity": 64}, {"time": 124320, "pitch": 77, "duration": 10, "velocity": 78}, {"time": 124320, "pitch": 86, "duration": 10, "velocity": 36}, {"time": 124450, "pitch": 26, "duration": 10, "velocity": 36}, {"time": 124450, "pitch": 75, "duration": 10, "velocity": 22}, {"time": 124450, "pitch": 86, "duration": 10, "velocity": 92}, {"time": 124560, "pitch": 26, "duration": 10, "velocity": 64}, {"time": 124560, "pitch": 86, "duration": 10, "velocity": 64}, {"time": 124690, "pitch": 26, "duration": 10, "velocity": 36}, {"time": 124690, "pitch": 75, "duration": 10, "velocity": 36}, {"time": 124690, "pitch": 86, "duration": 10, "velocity": 50}, {"time": 124800, "pitch": 26, "duration": 10, "velocity": 106}, {"time": 124800, "pitch": 73, "duration": 10, "velocity": 70}, {"time": 124800, "pitch": 86, "duration": 10, "velocity": 36}, {"time": 124800, "pitch": 99, "duration": 10, "velocity": 36}, {"time": 124930, "pitch": 26, "duration": 10, "velocity": 36}, {"time": 124930, "pitch": 86, "duration": 10, "velocity": 22}, {"time": 124930, "pitch": 99, "duration": 10, "velocity": 64}, {"time": 125040, "pitch": 26, "duration": 10, "velocity": 64}, {"time": 125040, "pitch": 74, "duration": 10, "velocity": 36}, {"time": 125040, "pitch": 86, "duration": 10, "velocity": 36}, {"time": 125040, "pitch": 98, "duration": 10, "velocity": 78}, {"time": 125170, "pitch": 26, "duration": 10, "velocity": 36}, {"time": 125170, "pitch": 74, "duration": 10, "velocity": 50}, {"time": 125170, "pitch": 86, "duration": 10, "velocity": 22}, {"time": 125280, "pitch": 26, "duration": 10, "velocity": 64}, {"time": 125280, "pitch": 86, "duration": 10, "velocity": 36}, {"time": 125410, "pitch": 26, "duration": 10, "velocity": 36}, {"time": 125410, "pitch": 75, "duration": 10, "velocity": 36}, {"time": 125410, "pitch": 86, "duration": 10, "velocity": 92}, {"time": 125520, "pitch": 26, "duration": 10, "velocity": 64}, {"time": 125520, "pitch": 77, "duration": 10, "velocity": 36}, {"time": 125520, "pitch": 86, "duration": 10, "velocity": 64}, {"time": 125650, "pitch": 26, "duration": 10, "velocity": 36}, {"time": 125650, "pitch": 75, "duration": 10, "velocity": 64}, {"time": 125650, "pitch": 86, "duration": 10, "velocity": 50}, {"time": 125760, "pitch": 26, "duration": 10, "velocity": 106}, {"time": 125760, "pitch": 73, "duration": 10, "velocity": 70}, {"time": 125760, "pitch": 86, "duration": 10, "velocity": 36}, {"time": 125890, "pitch": 26, "duration": 10, "velocity": 36}, {"time": 125890, "pitch": 77, "duration": 10, "velocity": 36}, {"time": 125890, "pitch": 86, "duration": 10, "velocity": 22}, {"time": 126000, "pitch": 26, "duration": 10, "velocity": 64}, {"time": 126000, "pitch": 77, "duration": 10, "velocity": 64}, {"time": 126000, "pitch": 86, "duration": 10, "velocity": 36}, {"time": 126130, "pitch": 26, "duration": 10, "velocity": 36}, {"time": 126130, "pitch": 86, "duration": 10, "velocity": 22}, {"time": 126240, "pitch": 26, "duration": 10, "velocity": 64}, {"time": 126240, "pitch": 77, "duration": 10, "velocity": 78}, {"time": 126240, "pitch": 86, "duration": 10, "velocity": 36}, {"time": 126370, "pitch": 26, "duration": 10, "velocity": 36}, {"time": 126370, "pitch": 75, "duration": 10, "velocity": 22}, {"time": 126370, "pitch": 86, "duration": 10, "velocity": 92}, {"time": 126480, "pitch": 26, "duration": 10, "velocity": 64}, {"time": 126480, "pitch": 86, "duration": 10, "velocity": 64}, {"time": 126610, "pitch": 26, "duration": 10, "velocity": 36}, {"time": 126610, "pitch": 75, "duration": 10, "velocity": 36}, {"time": 126610, "pitch": 86, "duration": 10, "velocity": 50}, {"time": 126720, "pitch": 26, "duration": 10, "velocity": 106}, {"time": 126720, "pitch": 73, "duration": 10, "velocity": 70}, {"time": 126720, "pitch": 86, "duration": 10, "velocity": 36}, {"time": 126850, "pitch": 26, "duration": 10, "velocity": 36}, {"time": 126850, "pitch": 74, "duration": 10, "velocity": 36}, {"time": 126850, "pitch": 86, "duration": 10, "velocity": 22}, {"time": 126960, "pitch": 26, "duration": 10, "velocity": 64}, {"time": 126960, "pitch": 74, "duration": 10, "velocity": 50}, {"time": 126960, "pitch": 86, "duration": 10, "velocity": 36}, {"time": 127090, "pitch": 26, "duration": 10, "velocity": 36}, {"time": 127090, "pitch": 86, "duration": 10, "velocity": 22}, {"time": 127200, "pitch": 26, "duration": 10, "velocity": 64}, {"time": 127200, "pitch": 77, "duration": 10, "velocity": 64}, {"time": 127200, "pitch": 86, "duration": 10, "velocity": 36}, {"time": 127330, "pitch": 26, "duration": 10, "velocity": 36}, {"time": 127330, "pitch": 86, "duration": 10, "velocity": 92}, {"time": 127440, "pitch": 26, "duration": 10, "velocity": 64}, {"time": 127440, "pitch": 75, "duration": 10, "velocity": 36}, {"time": 127440, "pitch": 86, "duration": 10, "velocity": 64}, {"time": 127570, "pitch": 26, "duration": 10, "velocity": 36}, {"time": 127570, "pitch": 77, "duration": 10, "velocity": 50}, {"time": 127570, "pitch": 86, "duration": 10, "velocity": 50}, {"time": 127680, "pitch": 26, "duration": 10, "velocity": 106}, {"time": 127680, "pitch": 73, "duration": 10, "velocity": 64}, {"time": 127680, "pitch": 86, "duration": 10, "velocity": 36}, {"time": 127810, "pitch": 26, "duration": 10, "velocity": 36}, {"time": 127810, "pitch": 86, "duration": 10, "velocity": 22}, {"time": 127810, "pitch": 97, "duration": 10, "velocity": 64}, {"time": 127920, "pitch": 26, "duration": 10, "velocity": 64}, {"time": 127920, "pitch": 77, "duration": 10, "velocity": 64}, {"time": 127920, "pitch": 86, "duration": 10, "velocity": 36}, {"time": 127920, "pitch": 97, "duration": 10, "velocity": 92}, {"time": 128050, "pitch": 26, "duration": 10, "velocity": 36}, {"time": 128050, "pitch": 86, "duration": 10, "velocity": 22}, {"time": 128160, "pitch": 26, "duration": 10, "velocity": 64}, {"time": 128160, "pitch": 77, "duration": 10, "velocity": 78}, {"time": 128160, "pitch": 86, "duration": 10, "velocity": 36}, {"time": 128290, "pitch": 26, "duration": 10, "velocity": 36}, {"time": 128290, "pitch": 75, "duration": 10, "velocity": 22}, {"time": 128290, "pitch": 86, "duration": 10, "velocity": 92}, {"time": 128400, "pitch": 26, "duration": 10, "velocity": 64}, {"time": 128400, "pitch": 86, "duration": 10, "velocity": 64}, {"time": 128530, "pitch": 26, "duration": 10, "velocity": 36}, {"time": 128530, "pitch": 75, "duration": 10, "velocity": 36}, {"time": 128530, "pitch": 86, "duration": 10, "velocity": 50}, {"time": 128640, "pitch": 26, "duration": 10, "velocity": 106}, {"time": 128640, "pitch": 73, "duration": 10, "velocity": 70}, {"time": 128640, "pitch": 86, "duration": 10, "velocity": 36}, {"time": 128640, "pitch": 99, "duration": 10, "velocity": 36}, {"time": 128770, "pitch": 26, "duration": 10, "velocity": 36}, {"time": 128770, "pitch": 86, "duration": 10, "velocity": 22}, {"time": 128770, "pitch": 99, "duration": 10, "velocity": 64}, {"time": 128880, "pitch": 26, "duration": 10, "velocity": 64}, {"time": 128880, "pitch": 74, "duration": 10, "velocity": 36}, {"time": 128880, "pitch": 86, "duration": 10, "velocity": 36}, {"time": 128880, "pitch": 98, "duration": 10, "velocity": 78}, {"time": 129010, "pitch": 26, "duration": 10, "velocity": 36}, {"time": 129010, "pitch": 74, "duration": 10, "velocity": 50}, {"time": 129010, "pitch": 86, "duration": 10, "velocity": 22}, {"time": 129120, "pitch": 26, "duration": 10, "velocity": 64}, {"time": 129120, "pitch": 86, "duration": 10, "velocity": 36}, {"time": 129250, "pitch": 26, "duration": 10, "velocity": 36}, {"time": 129250, "pitch": 75, "duration": 10, "velocity": 36}, {"time": 129250, "pitch": 86, "duration": 10, "velocity": 92}, {"time": 129360, "pitch": 26, "duration": 10, "velocity": 64}, {"time": 129360, "pitch": 77, "duration": 10, "velocity": 36}, {"time": 129360, "pitch": 86, "duration": 10, "velocity": 64}, {"time": 129490, "pitch": 26, "duration": 10, "velocity": 36}, {"time": 129490, "pitch": 75, "duration": 10, "velocity": 64}, {"time": 129490, "pitch": 86, "duration": 10, "velocity": 50}, {"time": 129600, "pitch": 26, "duration": 10, "velocity": 106}, {"time": 129600, "pitch": 73, "duration": 10, "velocity": 70}, {"time": 129600, "pitch": 86, "duration": 10, "velocity": 36}, {"time": 129730, "pitch": 26, "duration": 10, "velocity": 36}, {"time": 129730, "pitch": 77, "duration": 10, "velocity": 36}, {"time": 129730, "pitch": 86, "duration": 10, "velocity": 22}, {"time": 129840, "pitch": 26, "duration": 10, "velocity": 64}, {"time": 129840, "pitch": 77, "duration": 10, "velocity": 64}, {"time": 129840, "pitch": 86, "duration": 10, "velocity": 36}, {"time": 129970, "pitch": 26, "duration": 10, "velocity": 36}, {"time": 129970, "pitch": 86, "duration": 10, "velocity": 22}, {"time": 130080, "pitch": 26, "duration": 10, "velocity": 64}, {"time": 130080, "pitch": 77, "duration": 10, "velocity": 78}, {"time": 130080, "pitch": 86, "duration": 10, "velocity": 36}, {"time": 130210, "pitch": 26, "duration": 10, "velocity": 36}, {"time": 130210, "pitch": 75, "duration": 10, "velocity": 22}, {"time": 130210, "pitch": 86, "duration": 10, "velocity": 92}, {"time": 130320, "pitch": 26, "duration": 10, "velocity": 64}, {"time": 130320, "pitch": 86, "duration": 10, "velocity": 64}, {"time": 130450, "pitch": 26, "duration": 10, "velocity": 36}, {"time": 130450, "pitch": 75, "duration": 10, "velocity": 36}, {"time": 130450, "pitch": 86, "duration": 10, "velocity": 50}, {"time": 130560, "pitch": 26, "duration": 10, "velocity": 106}, {"time": 130560, "pitch": 73, "duration": 10, "velocity": 70}, {"time": 130560, "pitch": 86, "duration": 10, "velocity": 36}, {"time": 130690, "pitch": 26, "duration": 10, "velocity": 36}, {"time": 130690, "pitch": 74, "duration": 10, "velocity": 36}, {"time": 130690, "pitch": 86, "duration": 10, "velocity": 22}, {"time": 130800, "pitch": 26, "duration": 10, "velocity": 64}, {"time": 130800, "pitch": 74, "duration": 10, "velocity": 50}, {"time": 130800, "pitch": 86, "duration": 10, "velocity": 36}, {"time": 130930, "pitch": 26, "duration": 10, "velocity": 36}, {"time": 130930, "pitch": 86, "duration": 10, "velocity": 22}, {"time": 131040, "pitch": 26, "duration": 10, "velocity": 64}, {"time": 131040, "pitch": 77, "duration": 10, "velocity": 64}, {"time": 131040, "pitch": 86, "duration": 10, "velocity": 36}, {"time": 131170, "pitch": 26, "duration": 10, "velocity": 36}, {"time": 131170, "pitch": 86, "duration": 10, "velocity": 92}, {"time": 131280, "pitch": 26, "duration": 10, "velocity": 64}, {"time": 131280, "pitch": 75, "duration": 10, "velocity": 36}, {"time": 131280, "pitch": 86, "duration": 10, "velocity": 64}, {"time": 131410, "pitch": 26, "duration": 10, "velocity": 36}, {"time": 131410, "pitch": 77, "duration": 10, "velocity": 50}, {"time": 131410, "pitch": 86, "duration": 10, "velocity": 50}, {"time": 131520, "pitch": 26, "duration": 10, "velocity": 106}, {"time": 131520, "pitch": 73, "duration": 10, "velocity": 64}, {"time": 131520, "pitch": 86, "duration": 10, "velocity": 36}, {"time": 131650, "pitch": 26, "duration": 10, "velocity": 36}, {"time": 131650, "pitch": 86, "duration": 10, "velocity": 22}, {"time": 131650, "pitch": 97, "duration": 10, "velocity": 64}, {"time": 131760, "pitch": 26, "duration": 10, "velocity": 64}, {"time": 131760, "pitch": 77, "duration": 10, "velocity": 64}, {"time": 131760, "pitch": 86, "duration": 10, "velocity": 36}, {"time": 131760, "pitch": 97, "duration": 10, "velocity": 92}, {"time": 131890, "pitch": 26, "duration": 10, "velocity": 36}, {"time": 131890, "pitch": 86, "duration": 10, "velocity": 22}, {"time": 132000, "pitch": 26, "duration": 10, "velocity": 64}, {"time": 132000, "pitch": 77, "duration": 10, "velocity": 78}, {"time": 132000, "pitch": 86, "duration": 10, "velocity": 36}, {"time": 132130, "pitch": 26, "duration": 10, "velocity": 36}, {"time": 132130, "pitch": 75, "duration": 10, "velocity": 22}, {"time": 132130, "pitch": 86, "duration": 10, "velocity": 92}, {"time": 132240, "pitch": 26, "duration": 10, "velocity": 64}, {"time": 132240, "pitch": 86, "duration": 10, "velocity": 64}, {"time": 132370, "pitch": 26, "duration": 10, "velocity": 36}, {"time": 132370, "pitch": 75, "duration": 10, "velocity": 36}, {"time": 132370, "pitch": 86, "duration": 10, "velocity": 50}, {"time": 132480, "pitch": 26, "duration": 10, "velocity": 106}, {"time": 132480, "pitch": 73, "duration": 10, "velocity": 70}, {"time": 132480, "pitch": 86, "duration": 10, "velocity": 36}, {"time": 132480, "pitch": 99, "duration": 10, "velocity": 36}, {"time": 132610, "pitch": 26, "duration": 10, "velocity": 36}, {"time": 132610, "pitch": 86, "duration": 10, "velocity": 22}, {"time": 132610, "pitch": 99, "duration": 10, "velocity": 64}, {"time": 132720, "pitch": 26, "duration": 10, "velocity": 64}, {"time": 132720, "pitch": 74, "duration": 10, "velocity": 36}, {"time": 132720, "pitch": 86, "duration": 10, "velocity": 36}, {"time": 132720, "pitch": 98, "duration": 10, "velocity": 78}, {"time": 132850, "pitch": 26, "duration": 10, "velocity": 36}, {"time": 132850, "pitch": 74, "duration": 10, "velocity": 50}, {"time": 132850, "pitch": 86, "duration": 10, "velocity": 22}, {"time": 132960, "pitch": 26, "duration": 10, "velocity": 64}, {"time": 132960, "pitch": 86, "duration": 10, "velocity": 36}, {"time": 133090, "pitch": 26, "duration": 10, "velocity": 36}, {"time": 133090, "pitch": 75, "duration": 10, "velocity": 36}, {"time": 133090, "pitch": 86, "duration": 10, "velocity": 92}, {"time": 133200, "pitch": 26, "duration": 10, "velocity": 64}, {"time": 133200, "pitch": 77, "duration": 10, "velocity": 36}, {"time": 133200, "pitch": 86, "duration": 10, "velocity": 64}, {"time": 133330, "pitch": 26, "duration": 10, "velocity": 36}, {"time": 133330, "pitch": 75, "duration": 10, "velocity": 64}, {"time": 133330, "pitch": 86, "duration": 10, "velocity": 50}, {"time": 133440, "pitch": 26, "duration": 10, "velocity": 106}, {"time": 133440, "pitch": 73, "duration": 10, "velocity": 70}, {"time": 133440, "pitch": 86, "duration": 10, "velocity": 36}, {"time": 133570, "pitch": 26, "duration": 10, "velocity": 36}, {"time": 133570, "pitch": 77, "duration": 10, "velocity": 36}, {"time": 133570, "pitch": 86, "duration": 10, "velocity": 22}, {"time": 133680, "pitch": 26, "duration": 10, "velocity": 64}, {"time": 133680, "pitch": 77, "duration": 10, "velocity": 64}, {"time": 133680, "pitch": 86, "duration": 10, "velocity": 36}, {"time": 133810, "pitch": 26, "duration": 10, "velocity": 36}, {"time": 133810, "pitch": 86, "duration": 10, "velocity": 22}, {"time": 133920, "pitch": 26, "duration": 10, "velocity": 64}, {"time": 133920, "pitch": 77, "duration": 10, "velocity": 78}, {"time": 133920, "pitch": 86, "duration": 10, "velocity": 36}, {"time": 134050, "pitch": 26, "duration": 10, "velocity": 36}, {"time": 134050, "pitch": 75, "duration": 10, "velocity": 22}, {"time": 134050, "pitch": 86, "duration": 10, "velocity": 92}, {"time": 134160, "pitch": 26, "duration": 10, "velocity": 64}, {"time": 134160, "pitch": 86, "duration": 10, "velocity": 64}, {"time": 134290, "pitch": 26, "duration": 10, "velocity": 36}, {"time": 134290, "pitch": 75, "duration": 10, "velocity": 36}, {"time": 134290, "pitch": 86, "duration": 10, "velocity": 50}, {"time": 134400, "pitch": 26, "duration": 10, "velocity": 106}, {"time": 134400, "pitch": 73, "duration": 10, "velocity": 70}, {"time": 134400, "pitch": 86, "duration": 10, "velocity": 36}, {"time": 134530, "pitch": 26, "duration": 10, "velocity": 36}, {"time": 134530, "pitch": 74, "duration": 10, "velocity": 36}, {"time": 134530, "pitch": 86, "duration": 10, "velocity": 22}, {"time": 134640, "pitch": 26, "duration": 10, "velocity": 64}, {"time": 134640, "pitch": 74, "duration": 10, "velocity": 50}, {"time": 134640, "pitch": 86, "duration": 10, "velocity": 36}, {"time": 134770, "pitch": 26, "duration": 10, "velocity": 36}, {"time": 134770, "pitch": 86, "duration": 10, "velocity": 22}, {"time": 134880, "pitch": 26, "duration": 10, "velocity": 64}, {"time": 134880, "pitch": 77, "duration": 10, "velocity": 64}, {"time": 134880, "pitch": 86, "duration": 10, "velocity": 36}, {"time": 135010, "pitch": 26, "duration": 10, "velocity": 36}, {"time": 135010, "pitch": 86, "duration": 10, "velocity": 92}, {"time": 135120, "pitch": 26, "duration": 10, "velocity": 64}, {"time": 135120, "pitch": 75, "duration": 10, "velocity": 36}, {"time": 135120, "pitch": 86, "duration": 10, "velocity": 64}, {"time": 135250, "pitch": 26, "duration": 10, "velocity": 36}, {"time": 135250, "pitch": 77, "duration": 10, "velocity": 50}, {"time": 135250, "pitch": 86, "duration": 10, "velocity": 50}, {"time": 135360, "pitch": 26, "duration": 10, "velocity": 106}, {"time": 135360, "pitch": 73, "duration": 10, "velocity": 64}, {"time": 135360, "pitch": 86, "duration": 10, "velocity": 36}, {"time": 135490, "pitch": 26, "duration": 10, "velocity": 36}, {"time": 135490, "pitch": 86, "duration": 10, "velocity": 22}, {"time": 135490, "pitch": 97, "duration": 10, "velocity": 64}, {"time": 135600, "pitch": 26, "duration": 10, "velocity": 64}, {"time": 135600, "pitch": 77, "duration": 10, "velocity": 64}, {"time": 135600, "pitch": 86, "duration": 10, "velocity": 36}, {"time": 135600, "pitch": 97, "duration": 10, "velocity": 92}, {"time": 135730, "pitch": 26, "duration": 10, "velocity": 36}, {"time": 135730, "pitch": 86, "duration": 10, "velocity": 22}, {"time": 135840, "pitch": 26, "duration": 10, "velocity": 64}, {"time": 135840, "pitch": 77, "duration": 10, "velocity": 78}, {"time": 135840, "pitch": 86, "duration": 10, "velocity": 36}, {"time": 135970, "pitch": 26, "duration": 10, "velocity": 36}, {"time": 135970, "pitch": 75, "duration": 10, "velocity": 22}, {"time": 135970, "pitch": 86, "duration": 10, "velocity": 92}, {"time": 136080, "pitch": 26, "duration": 10, "velocity": 64}, {"time": 136080, "pitch": 86, "duration": 10, "velocity": 64}, {"time": 136210, "pitch": 26, "duration": 10, "velocity": 36}, {"time": 136210, "pitch": 75, "duration": 10, "velocity": 36}, {"time": 136210, "pitch": 86, "duration": 10, "velocity": 50}, {"time": 136320, "pitch": 26, "duration": 10, "velocity": 106}, {"time": 136320, "pitch": 73, "duration": 10, "velocity": 70}, {"time": 136320, "pitch": 86, "duration": 10, "velocity": 36}, {"time": 136320, "pitch": 99, "duration": 10, "velocity": 36}, {"time": 136360, "pitch": 26, "duration": 10, "velocity": 80}, {"time": 136400, "pitch": 26, "duration": 10, "velocity": 70}, {"time": 136440, "pitch": 26, "duration": 10, "velocity": 60}, {"time": 136440, "pitch": 86, "duration": 10, "velocity": 22}, {"time": 136440, "pitch": 99, "duration": 10, "velocity": 64}, {"time": 136480, "pitch": 26, "duration": 10, "velocity": 50}, {"time": 136520, "pitch": 26, "duration": 10, "velocity": 40}, {"time": 136560, "pitch": 26, "duration": 10, "velocity": 30}, {"time": 136560, "pitch": 74, "duration": 10, "velocity": 36}, {"time": 136560, "pitch": 86, "duration": 10, "velocity": 36}, {"time": 136560, "pitch": 98, "duration": 10, "velocity": 78}, {"time": 136600, "pitch": 26, "duration": 10, "velocity": 25}, {"time": 136640, "pitch": 26, "duration": 10, "velocity": 20}, {"time": 136680, "pitch": 26, "duration": 10, "velocity": 15}, {"time": 136680, "pitch": 74, "duration": 10, "velocity": 50}, {"time": 136680, "pitch": 86, "duration": 10, "velocity": 22}, {"time": 136720, "pitch": 26, "duration": 10, "velocity": 10}, {"time": 136760, "pitch": 26, "duration": 10, "velocity": 5}, {"time": 136800, "pitch": 86, "duration": 10, "velocity": 36}, {"time": 136930, "pitch": 75, "duration": 10, "velocity": 36}, {"time": 136930, "pitch": 86, "duration": 10, "velocity": 92}, {"time": 137040, "pitch": 77, "duration": 10, "velocity": 36}, {"time": 137040, "pitch": 86, "duration": 10, "velocity": 64}, {"time": 137170, "pitch": 75, "duration": 10, "velocity": 64}, {"time": 137170, "pitch": 86, "duration": 10, "velocity": 50}, {"time": 137280, "pitch": 73, "duration": 10, "velocity": 70}, {"time": 137280, "pitch": 86, "duration": 10, "velocity": 36}, {"time": 137410, "pitch": 77, "duration": 10, "velocity": 36}, {"time": 137410, "pitch": 86, "duration": 10, "velocity": 22}, {"time": 137520, "pitch": 77, "duration": 10, "velocity": 64}, {"time": 137520, "pitch": 86, "duration": 10, "velocity": 36}, {"time": 137650, "pitch": 86, "duration": 10, "velocity": 22}, {"time": 137760, "pitch": 77, "duration": 10, "velocity": 78}, {"time": 137760, "pitch": 86, "duration": 10, "velocity": 36}, {"time": 137890, "pitch": 75, "duration": 10, "velocity": 22}, {"time": 137890, "pitch": 86, "duration": 10, "velocity": 92}, {"time": 138000, "pitch": 86, "duration": 10, "velocity": 64}, {"time": 138130, "pitch": 26, "duration": 10, "velocity": 36}, {"time": 138130, "pitch": 75, "duration": 10, "velocity": 36}, {"time": 138130, "pitch": 86, "duration": 10, "velocity": 50}, {"time": 138180, "pitch": 26, "duration": 10, "velocity": 50}, {"time": 138240, "pitch": 26, "duration": 10, "velocity": 106}, {"time": 138240, "pitch": 73, "duration": 10, "velocity": 70}, {"time": 138240, "pitch": 86, "duration": 10, "velocity": 36}, {"time": 138370, "pitch": 74, "duration": 10, "velocity": 36}, {"time": 138370, "pitch": 86, "duration": 10, "velocity": 22}, {"time": 138480, "pitch": 74, "duration": 10, "velocity": 50}, {"time": 138480, "pitch": 86, "duration": 10, "velocity": 36}, {"time": 138610, "pitch": 86, "duration": 10, "velocity": 22}, {"time": 138720, "pitch": 77, "duration": 10, "velocity": 64}, {"time": 138720, "pitch": 86, "duration": 10, "velocity": 36}, {"time": 138850, "pitch": 86, "duration": 10, "velocity": 92}, {"time": 138960, "pitch": 75, "duration": 10, "velocity": 36}, {"time": 138960, "pitch": 86, "duration": 10, "velocity": 64}, {"time": 139090, "pitch": 77, "duration": 10, "velocity": 50}, {"time": 139090, "pitch": 86, "duration": 10, "velocity": 50}, {"time": 139200, "pitch": 73, "duration": 10, "velocity": 64}, {"time": 139200, "pitch": 86, "duration": 10, "velocity": 36}, {"time": 139330, "pitch": 86, "duration": 10, "velocity": 22}, {"time": 139330, "pitch": 97, "duration": 10, "velocity": 64}, {"time": 139440, "pitch": 77, "duration": 10, "velocity": 64}, {"time": 139440, "pitch": 86, "duration": 10, "velocity": 36}, {"time": 139440, "pitch": 97, "duration": 10, "velocity": 92}, {"time": 139570, "pitch": 86, "duration": 10, "velocity": 22}, {"time": 139680, "pitch": 77, "duration": 10, "velocity": 78}, {"time": 139680, "pitch": 86, "duration": 10, "velocity": 36}, {"time": 139810, "pitch": 75, "duration": 10, "velocity": 22}, {"time": 139810, "pitch": 86, "duration": 10, "velocity": 92}, {"time": 139920, "pitch": 86, "duration": 10, "velocity": 64}, {"time": 140050, "pitch": 75, "duration": 10, "velocity": 36}, {"time": 140050, "pitch": 86, "duration": 10, "velocity": 50}, {"time": 140160, "pitch": 73, "duration": 10, "velocity": 70}, {"time": 140160, "pitch": 86, "duration": 10, "velocity": 36}, {"time": 140160, "pitch": 99, "duration": 10, "velocity": 36}, {"time": 140290, "pitch": 86, "duration": 10, "velocity": 22}, {"time": 140290, "pitch": 99, "duration": 10, "velocity": 64}, {"time": 140400, "pitch": 74, "duration": 10, "velocity": 36}, {"time": 140400, "pitch": 86, "duration": 10, "velocity": 36}, {"time": 140400, "pitch": 98, "duration": 10, "velocity": 78}, {"time": 140530, "pitch": 74, "duration": 10, "velocity": 50}, {"time": 140530, "pitch": 86, "duration": 10, "velocity": 22}, {"time": 140640, "pitch": 86, "duration": 10, "velocity": 36}, {"time": 140770, "pitch": 75, "duration": 10, "velocity": 36}, {"time": 140770, "pitch": 86, "duration": 10, "velocity": 92}, {"time": 140880, "pitch": 77, "duration": 10, "velocity": 36}, {"time": 140880, "pitch": 86, "duration": 10, "velocity": 64}, {"time": 141010, "pitch": 75, "duration": 10, "velocity": 64}, {"time": 141010, "pitch": 86, "duration": 10, "velocity": 50}, {"time": 141120, "pitch": 73, "duration": 10, "velocity": 70}, {"time": 141120, "pitch": 86, "duration": 10, "velocity": 36}, {"time": 141250, "pitch": 77, "duration": 10, "velocity": 36}, {"time": 141250, "pitch": 86, "duration": 10, "velocity": 22}, {"time": 141360, "pitch": 77, "duration": 10, "velocity": 64}, {"time": 141360, "pitch": 86, "duration": 10, "velocity": 36}, {"time": 141490, "pitch": 86, "duration": 10, "velocity": 22}, {"time": 141600, "pitch": 77, "duration": 10, "velocity": 78}, {"time": 141600, "pitch": 86, "duration": 10, "velocity": 36}, {"time": 141730, "pitch": 75, "duration": 10, "velocity": 22}, {"time": 141730, "pitch": 86, "duration": 10, "velocity": 92}, {"time": 141840, "pitch": 86, "duration": 10, "velocity": 64}, {"time": 141970, "pitch": 26, "duration": 10, "velocity": 36}, {"time": 141970, "pitch": 75, "duration": 10, "velocity": 36}, {"time": 141970, "pitch": 86, "duration": 10, "velocity": 50}, {"time": 142020, "pitch": 26, "duration": 10, "velocity": 50}, {"time": 142080, "pitch": 26, "duration": 10, "velocity": 106}, {"time": 142080, "pitch": 73, "duration": 10, "velocity": 70}, {"time": 142080, "pitch": 86, "duration": 10, "velocity": 36}, {"time": 142210, "pitch": 74, "duration": 10, "velocity": 36}, {"time": 142210, "pitch": 86, "duration": 10, "velocity": 22}, {"time": 142320, "pitch": 74, "duration": 10, "velocity": 50}, {"time": 142320, "pitch": 86, "duration": 10, "velocity": 36}, {"time": 142450, "pitch": 86, "duration": 10, "velocity": 22}, {"time": 142560, "pitch": 77, "duration": 10, "velocity": 64}, {"time": 142560, "pitch": 86, "duration": 10, "velocity": 36}, {"time": 142690, "pitch": 86, "duration": 10, "velocity": 92}, {"time": 142800, "pitch": 75, "duration": 10, "velocity": 36}, {"time": 142800, "pitch": 86, "duration": 10, "velocity": 64}, {"time": 142930, "pitch": 77, "duration": 10, "velocity": 50}, {"time": 142930, "pitch": 86, "duration": 10, "velocity": 50}, {"time": 143040, "pitch": 73, "duration": 10, "velocity": 64}, {"time": 143040, "pitch": 86, "duration": 10, "velocity": 36}, {"time": 143170, "pitch": 86, "duration": 10, "velocity": 22}, {"time": 143170, "pitch": 97, "duration": 10, "velocity": 64}, {"time": 143280, "pitch": 77, "duration": 10, "velocity": 64}, {"time": 143280, "pitch": 86, "duration": 10, "velocity": 36}, {"time": 143280, "pitch": 97, "duration": 10, "velocity": 92}, {"time": 143410, "pitch": 86, "duration": 10, "velocity": 22}, {"time": 143520, "pitch": 77, "duration": 10, "velocity": 78}, {"time": 143520, "pitch": 86, "duration": 10, "velocity": 36}, {"time": 143650, "pitch": 75, "duration": 10, "velocity": 22}, {"time": 143650, "pitch": 86, "duration": 10, "velocity": 92}, {"time": 143760, "pitch": 86, "duration": 10, "velocity": 64}, {"time": 143890, "pitch": 75, "duration": 10, "velocity": 36}, {"time": 143890, "pitch": 86, "duration": 10, "velocity": 50}, {"time": 144000, "pitch": 73, "duration": 10, "velocity": 70}, {"time": 144000, "pitch": 86, "duration": 10, "velocity": 36}, {"time": 144000, "pitch": 99, "duration": 10, "velocity": 36}, {"time": 144130, "pitch": 86, "duration": 10, "velocity": 22}, {"time": 144130, "pitch": 99, "duration": 10, "velocity": 64}, {"time": 144240, "pitch": 74, "duration": 10, "velocity": 36}, {"time": 144240, "pitch": 86, "duration": 10, "velocity": 36}, {"time": 144240, "pitch": 98, "duration": 10, "velocity": 78}, {"time": 144370, "pitch": 74, "duration": 10, "velocity": 50}, {"time": 144370, "pitch": 86, "duration": 10, "velocity": 22}, {"time": 144480, "pitch": 86, "duration": 10, "velocity": 36}, {"time": 144610, "pitch": 75, "duration": 10, "velocity": 36}, {"time": 144610, "pitch": 86, "duration": 10, "velocity": 92}, {"time": 144720, "pitch": 77, "duration": 10, "velocity": 36}, {"time": 144720, "pitch": 86, "duration": 10, "velocity": 64}, {"time": 144850, "pitch": 75, "duration": 10, "velocity": 64}, {"time": 144850, "pitch": 86, "duration": 10, "velocity": 50}, {"time": 144960, "pitch": 73, "duration": 10, "velocity": 70}, {"time": 144960, "pitch": 86, "duration": 10, "velocity": 36}, {"time": 145090, "pitch": 77, "duration": 10, "velocity": 36}, {"time": 145090, "pitch": 86, "duration": 10, "velocity": 22}, {"time": 145200, "pitch": 77, "duration": 10, "velocity": 64}, {"time": 145200, "pitch": 86, "duration": 10, "velocity": 36}, {"time": 145330, "pitch": 86, "duration": 10, "velocity": 22}, {"time": 145440, "pitch": 77, "duration": 10, "velocity": 78}, {"time": 145440, "pitch": 86, "duration": 10, "velocity": 36}, {"time": 145570, "pitch": 75, "duration": 10, "velocity": 22}, {"time": 145570, "pitch": 86, "duration": 10, "velocity": 92}, {"time": 145680, "pitch": 86, "duration": 10, "velocity": 64}, {"time": 145810, "pitch": 26, "duration": 10, "velocity": 36}, {"time": 145810, "pitch": 75, "duration": 10, "velocity": 36}, {"time": 145810, "pitch": 86, "duration": 10, "velocity": 50}, {"time": 145860, "pitch": 26, "duration": 10, "velocity": 50}, {"time": 145920, "pitch": 26, "duration": 10, "velocity": 106}, {"time": 145920, "pitch": 73, "duration": 10, "velocity": 70}, {"time": 145920, "pitch": 86, "duration": 10, "velocity": 36}, {"time": 146050, "pitch": 74, "duration": 10, "velocity": 36}, {"time": 146050, "pitch": 86, "duration": 10, "velocity": 22}, {"time": 146160, "pitch": 74, "duration": 10, "velocity": 50}, {"time": 146160, "pitch": 86, "duration": 10, "velocity": 36}, {"time": 146290, "pitch": 86, "duration": 10, "velocity": 22}, {"time": 146400, "pitch": 77, "duration": 10, "velocity": 64}, {"time": 146400, "pitch": 86, "duration": 10, "velocity": 36}, {"time": 146530, "pitch": 86, "duration": 10, "velocity": 92}, {"time": 146640, "pitch": 75, "duration": 10, "velocity": 36}, {"time": 146640, "pitch": 86, "duration": 10, "velocity": 64}, {"time": 146770, "pitch": 77, "duration": 10, "velocity": 50}, {"time": 146770, "pitch": 86, "duration": 10, "velocity": 50}, {"time": 146880, "pitch": 73, "duration": 10, "velocity": 64}, {"time": 146880, "pitch": 86, "duration": 10, "velocity": 36}, {"time": 147010, "pitch": 86, "duration": 10, "velocity": 22}, {"time": 147010, "pitch": 97, "duration": 10, "velocity": 64}, {"time": 147120, "pitch": 77, "duration": 10, "velocity": 64}, {"time": 147120, "pitch": 86, "duration": 10, "velocity": 36}, {"time": 147120, "pitch": 97, "duration": 10, "velocity": 92}, {"time": 147250, "pitch": 86, "duration": 10, "velocity": 22}, {"time": 147360, "pitch": 77, "duration": 10, "velocity": 78}, {"time": 147360, "pitch": 86, "duration": 10, "velocity": 36}, {"time": 147490, "pitch": 75, "duration": 10, "velocity": 22}, {"time": 147490, "pitch": 86, "duration": 10, "velocity": 92}, {"time": 147600, "pitch": 86, "duration": 10, "velocity": 64}, {"time": 147730, "pitch": 75, "duration": 10, "velocity": 36}, {"time": 147730, "pitch": 86, "duration": 10, "velocity": 50}, {"time": 147840, "pitch": 73, "duration": 10, "velocity": 70}, {"time": 147840, "pitch": 86, "duration": 10, "velocity": 36}, {"time": 147840, "pitch": 99, "duration": 10, "velocity": 36}, {"time": 147970, "pitch": 86, "duration": 10, "velocity": 22}, {"time": 147970, "pitch": 99, "duration": 10, "velocity": 64}, {"time": 148080, "pitch": 74, "duration": 10, "velocity": 36}, {"time": 148080, "pitch": 86, "duration": 10, "velocity": 36}, {"time": 148080, "pitch": 98, "duration": 10, "velocity": 78}, {"time": 148210, "pitch": 74, "duration": 10, "velocity": 50}, {"time": 148210, "pitch": 86, "duration": 10, "velocity": 22}, {"time": 148320, "pitch": 86, "duration": 10, "velocity": 36}, {"time": 148450, "pitch": 75, "duration": 10, "velocity": 36}, {"time": 148450, "pitch": 86, "duration": 10, "velocity": 92}, {"time": 148560, "pitch": 77, "duration": 10, "velocity": 36}, {"time": 148560, "pitch": 86, "duration": 10, "velocity": 64}, {"time": 148690, "pitch": 75, "duration": 10, "velocity": 64}, {"time": 148690, "pitch": 86, "duration": 10, "velocity": 50}, {"time": 148800, "pitch": 73, "duration": 10, "velocity": 70}, {"time": 148800, "pitch": 86, "duration": 10, "velocity": 36}, {"time": 148930, "pitch": 77, "duration": 10, "velocity": 36}, {"time": 148930, "pitch": 86, "duration": 10, "velocity": 22}, {"time": 149040, "pitch": 77, "duration": 10, "velocity": 64}, {"time": 149040, "pitch": 86, "duration": 10, "velocity": 36}, {"time": 149170, "pitch": 86, "duration": 10, "velocity": 22}, {"time": 149280, "pitch": 77, "duration": 10, "velocity": 78}, {"time": 149280, "pitch": 86, "duration": 10, "velocity": 36}, {"time": 149410, "pitch": 75, "duration": 10, "velocity": 22}, {"time": 149410, "pitch": 86, "duration": 10, "velocity": 92}, {"time": 149520, "pitch": 86, "duration": 10, "velocity": 64}, {"time": 149650, "pitch": 26, "duration": 10, "velocity": 36}, {"time": 149650, "pitch": 75, "duration": 10, "velocity": 36}, {"time": 149650, "pitch": 86, "duration": 10, "velocity": 50}, {"time": 149700, "pitch": 26, "duration": 10, "velocity": 50}, {"time": 149760, "pitch": 26, "duration": 10, "velocity": 106}, {"time": 149760, "pitch": 73, "duration": 10, "velocity": 70}, {"time": 149760, "pitch": 86, "duration": 10, "velocity": 36}, {"time": 149890, "pitch": 74, "duration": 10, "velocity": 36}, {"time": 149890, "pitch": 86, "duration": 10, "velocity": 22}, {"time": 150000, "pitch": 74, "duration": 10, "velocity": 50}, {"time": 150000, "pitch": 86, "duration": 10, "velocity": 36}, {"time": 150130, "pitch": 86, "duration": 10, "velocity": 22}, {"time": 150240, "pitch": 77, "duration": 10, "velocity": 64}, {"time": 150240, "pitch": 86, "duration": 10, "velocity": 36}, {"time": 150370, "pitch": 86, "duration": 10, "velocity": 92}, {"time": 150480, "pitch": 75, "duration": 10, "velocity": 36}, {"time": 150480, "pitch": 86, "duration": 10, "velocity": 64}, {"time": 150610, "pitch": 77, "duration": 10, "velocity": 50}, {"time": 150610, "pitch": 86, "duration": 10, "velocity": 50}, {"time": 150720, "pitch": 73, "duration": 10, "velocity": 64}, {"time": 150720, "pitch": 86, "duration": 10, "velocity": 36}, {"time": 150850, "pitch": 86, "duration": 10, "velocity": 22}, {"time": 150850, "pitch": 97, "duration": 10, "velocity": 64}, {"time": 150960, "pitch": 77, "duration": 10, "velocity": 64}, {"time": 150960, "pitch": 86, "duration": 10, "velocity": 36}, {"time": 150960, "pitch": 97, "duration": 10, "velocity": 92}, {"time": 151090, "pitch": 86, "duration": 10, "velocity": 22}, {"time": 151200, "pitch": 77, "duration": 10, "velocity": 78}, {"time": 151200, "pitch": 86, "duration": 10, "velocity": 36}, {"time": 151330, "pitch": 75, "duration": 10, "velocity": 22}, {"time": 151330, "pitch": 86, "duration": 10, "velocity": 92}, {"time": 151440, "pitch": 86, "duration": 10, "velocity": 64}, {"time": 151570, "pitch": 75, "duration": 10, "velocity": 36}, {"time": 151570, "pitch": 86, "duration": 10, "velocity": 50}, {"time": 151680, "pitch": 73, "duration": 10, "velocity": 70}, {"time": 151680, "pitch": 86, "duration": 10, "velocity": 36}, {"time": 151680, "pitch": 99, "duration": 10, "velocity": 36}, {"time": 151810, "pitch": 86, "duration": 10, "velocity": 22}, {"time": 151810, "pitch": 99, "duration": 10, "velocity": 64}, {"time": 151920, "pitch": 74, "duration": 10, "velocity": 36}, {"time": 151920, "pitch": 86, "duration": 10, "velocity": 36}, {"time": 151920, "pitch": 98, "duration": 10, "velocity": 78}, {"time": 152050, "pitch": 74, "duration": 10, "velocity": 50}, {"time": 152050, "pitch": 86, "duration": 10, "velocity": 50}, {"time": 152070, "pitch": 86, "duration": 10, "velocity": 40}, {"time": 152100, "pitch": 86, "duration": 10, "velocity": 45}, {"time": 152130, "pitch": 86, "duration": 10, "velocity": 35}, {"time": 152160, "pitch": 86, "duration": 10, "velocity": 40}, {"time": 152190, "pitch": 86, "duration": 10, "velocity": 30}, {"time": 152220, "pitch": 86, "duration": 10, "velocity": 35}, {"time": 152250, "pitch": 86, "duration": 10, "velocity": 25}, {"time": 152280, "pitch": 75, "duration": 10, "velocity": 36}, {"time": 152280, "pitch": 86, "duration": 10, "velocity": 30}, {"time": 152310, "pitch": 86, "duration": 10, "velocity": 20}, {"time": 152340, "pitch": 86, "duration": 10, "velocity": 25}, {"time": 152370, "pitch": 86, "duration": 10, "velocity": 15}, {"time": 152400, "pitch": 77, "duration": 10, "velocity": 36}, {"time": 152400, "pitch": 86, "duration": 10, "velocity": 20}, {"time": 152430, "pitch": 86, "duration": 10, "velocity": 10}, {"time": 152460, "pitch": 86, "duration": 10, "velocity": 15}, {"time": 152490, "pitch": 86, "duration": 10, "velocity": 9}, {"time": 152520, "pitch": 75, "duration": 10, "velocity": 64}, {"time": 152520, "pitch": 86, "duration": 10, "velocity": 10}, {"time": 152550, "pitch": 86, "duration": 10, "velocity": 8}, {"time": 152580, "pitch": 86, "duration": 10, "velocity": 9}, {"time": 152610, "pitch": 86, "duration": 10, "velocity": 7}, {"time": 152640, "pitch": 73, "duration": 10, "velocity": 70}, {"time": 152640, "pitch": 86, "duration": 10, "velocity": 8}, {"time": 152670, "pitch": 86, "duration": 10, "velocity": 6}, {"time": 152700, "pitch": 86, "duration": 10, "velocity": 7}, {"time": 152730, "pitch": 86, "duration": 10, "velocity": 5}, {"time": 152770, "pitch": 77, "duration": 10, "velocity": 36}, {"time": 152880, "pitch": 77, "duration": 10, "velocity": 64}, {"time": 153120, "pitch": 77, "duration": 10, "velocity": 78}, {"time": 153120, "pitch": 86, "duration": 10, "velocity": 36}, {"time": 153250, "pitch": 75, "duration": 10, "velocity": 22}, {"time": 153250, "pitch": 86, "duration": 10, "velocity": 92}, {"time": 153360, "pitch": 86, "duration": 10, "velocity": 64}, {"time": 153490, "pitch": 26, "duration": 10, "velocity": 36}, {"time": 153490, "pitch": 75, "duration": 10, "velocity": 36}, {"time": 153490, "pitch": 86, "duration": 10, "velocity": 50}, {"time": 153540, "pitch": 26, "duration": 10, "velocity": 50}, {"time": 153600, "pitch": 26, "duration": 10, "velocity": 106}, {"time": 153600, "pitch": 73, "duration": 10, "velocity": 70}, {"time": 153600, "pitch": 86, "duration": 10, "velocity": 36}, {"time": 153730, "pitch": 74, "duration": 10, "velocity": 36}, {"time": 153730, "pitch": 86, "duration": 10, "velocity": 22}, {"time": 153840, "pitch": 74, "duration": 10, "velocity": 50}, {"time": 153840, "pitch": 86, "duration": 10, "velocity": 36}, {"time": 153970, "pitch": 86, "duration": 10, "velocity": 22}, {"time": 154080, "pitch": 77, "duration": 10, "velocity": 64}, {"time": 154080, "pitch": 86, "duration": 10, "velocity": 36}, {"time": 154210, "pitch": 86, "duration": 10, "velocity": 92}, {"time": 154320, "pitch": 75, "duration": 10, "velocity": 36}, {"time": 154320, "pitch": 86, "duration": 10, "velocity": 64}, {"time": 154450, "pitch": 77, "duration": 10, "velocity": 50}, {"time": 154450, "pitch": 86, "duration": 10, "velocity": 50}, {"time": 154560, "pitch": 73, "duration": 10, "velocity": 64}, {"time": 154560, "pitch": 86, "duration": 10, "velocity": 36}, {"time": 154690, "pitch": 86, "duration": 10, "velocity": 22}, {"time": 154690, "pitch": 97, "duration": 10, "velocity": 64}, {"time": 154800, "pitch": 77, "duration": 10, "velocity": 64}, {"time": 154800, "pitch": 86, "duration": 10, "velocity": 36}, {"time": 154800, "pitch": 97, "duration": 10, "velocity": 92}, {"time": 154930, "pitch": 86, "duration": 10, "velocity": 22}, {"time": 155040, "pitch": 77, "duration": 10, "velocity": 78}, {"time": 155040, "pitch": 86, "duration": 10, "velocity": 36}, {"time": 155170, "pitch": 75, "duration": 10, "velocity": 22}, {"time": 155170, "pitch": 86, "duration": 10, "velocity": 92}, {"time": 155280, "pitch": 86, "duration": 10, "velocity": 64}, {"time": 155410, "pitch": 26, "duration": 10, "velocity": 36}, {"time": 155410, "pitch": 75, "duration": 10, "velocity": 36}, {"time": 155410, "pitch": 86, "duration": 10, "velocity": 50}, {"time": 155460, "pitch": 26, "duration": 10, "velocity": 50}, {"time": 155520, "pitch": 26, "duration": 10, "velocity": 106}, {"time": 155520, "pitch": 73, "duration": 10, "velocity": 70}, {"time": 155520, "pitch": 86, "duration": 10, "velocity": 36}, {"time": 155520, "pitch": 99, "duration": 10, "velocity": 36}, {"time": 155650, "pitch": 86, "duration": 10, "velocity": 22}, {"time": 155650, "pitch": 99, "duration": 10, "velocity": 64}, {"time": 155760, "pitch": 74, "duration": 10, "velocity": 36}, {"time": 155760, "pitch": 86, "duration": 10, "velocity": 36}, {"time": 155760, "pitch": 98, "duration": 10, "velocity": 78}, {"time": 155890, "pitch": 74, "duration": 10, "velocity": 50}, {"time": 155890, "pitch": 86, "duration": 10, "velocity": 22}, {"time": 156000, "pitch": 86, "duration": 10, "velocity": 36}, {"time": 156130, "pitch": 75, "duration": 10, "velocity": 36}, {"time": 156130, "pitch": 86, "duration": 10, "velocity": 92}, {"time": 156240, "pitch": 77, "duration": 10, "velocity": 36}, {"time": 156240, "pitch": 86, "duration": 10, "velocity": 64}, {"time": 156370, "pitch": 75, "duration": 10, "velocity": 64}, {"time": 156370, "pitch": 86, "duration": 10, "velocity": 50}, {"time": 156480, "pitch": 73, "duration": 10, "velocity": 70}, {"time": 156480, "pitch": 86, "duration": 10, "velocity": 36}, {"time": 156610, "pitch": 77, "duration": 10, "velocity": 36}, {"time": 156610, "pitch": 86, "duration": 10, "velocity": 22}, {"time": 156720, "pitch": 77, "duration": 10, "velocity": 64}, {"time": 156720, "pitch": 86, "duration": 10, "velocity": 36}, {"time": 156850, "pitch": 86, "duration": 10, "velocity": 22}, {"time": 156960, "pitch": 77, "duration": 10, "velocity": 78}, {"time": 156960, "pitch": 86, "duration": 10, "velocity": 36}, {"time": 157090, "pitch": 75, "duration": 10, "velocity": 22}, {"time": 157090, "pitch": 86, "duration": 10, "velocity": 92}, {"time": 157200, "pitch": 86, "duration": 10, "velocity": 64}, {"time": 157330, "pitch": 26, "duration": 10, "velocity": 36}, {"time": 157330, "pitch": 75, "duration": 10, "velocity": 36}, {"time": 157330, "pitch": 86, "duration": 10, "velocity": 50}, {"time": 157380, "pitch": 26, "duration": 10, "velocity": 50}, {"time": 157440, "pitch": 26, "duration": 10, "velocity": 106}, {"time": 157440, "pitch": 73, "duration": 10, "velocity": 70}, {"time": 157440, "pitch": 86, "duration": 10, "velocity": 36}, {"time": 157570, "pitch": 86, "duration": 10, "velocity": 22}, {"time": 157680, "pitch": 77, "duration": 10, "velocity": 78}, {"time": 157680, "pitch": 86, "duration": 10, "velocity": 36}, {"time": 157810, "pitch": 86, "duration": 10, "velocity": 22}, {"time": 157920, "pitch": 77, "duration": 10, "velocity": 64}, {"time": 157920, "pitch": 86, "duration": 10, "velocity": 36}, {"time": 158050, "pitch": 86, "duration": 10, "velocity": 92}, {"time": 158160, "pitch": 75, "duration": 10, "velocity": 36}, {"time": 158160, "pitch": 86, "duration": 10, "velocity": 64}, {"time": 158290, "pitch": 77, "duration": 10, "velocity": 50}, {"time": 158290, "pitch": 86, "duration": 10, "velocity": 50}, {"time": 158400, "pitch": 73, "duration": 10, "velocity": 64}, {"time": 158400, "pitch": 86, "duration": 10, "velocity": 36}, {"time": 158530, "pitch": 86, "duration": 10, "velocity": 22}, {"time": 158530, "pitch": 97, "duration": 10, "velocity": 64}, {"time": 158640, "pitch": 77, "duration": 10, "velocity": 64}, {"time": 158640, "pitch": 86, "duration": 10, "velocity": 36}, {"time": 158640, "pitch": 97, "duration": 10, "velocity": 92}, {"time": 158770, "pitch": 86, "duration": 10, "velocity": 20}, {"time": 158790, "pitch": 86, "duration": 10, "velocity": 25}, {"time": 158820, "pitch": 86, "duration": 10, "velocity": 30}, {"time": 158850, "pitch": 86, "duration": 10, "velocity": 35}, {"time": 158880, "pitch": 77, "duration": 10, "velocity": 78}, {"time": 158880, "pitch": 86, "duration": 10, "velocity": 40}, {"time": 158910, "pitch": 86, "duration": 10, "velocity": 39}, {"time": 158940, "pitch": 86, "duration": 10, "velocity": 38}, {"time": 158970, "pitch": 86, "duration": 10, "velocity": 37}, {"time": 159000, "pitch": 75, "duration": 10, "velocity": 22}, {"time": 159000, "pitch": 86, "duration": 10, "velocity": 36}, {"time": 159030, "pitch": 86, "duration": 10, "velocity": 35}, {"time": 159060, "pitch": 86, "duration": 10, "velocity": 34}, {"time": 159090, "pitch": 86, "duration": 10, "velocity": 33}, {"time": 159120, "pitch": 86, "duration": 10, "velocity": 32}, {"time": 159150, "pitch": 86, "duration": 10, "velocity": 31}, {"time": 159180, "pitch": 86, "duration": 10, "velocity": 30}, {"time": 159210, "pitch": 86, "duration": 10, "velocity": 29}, {"time": 159240, "pitch": 26, "duration": 10, "velocity": 36}, {"time": 159240, "pitch": 75, "duration": 10, "velocity": 36}, {"time": 159240, "pitch": 86, "duration": 10, "velocity": 28}, {"time": 159270, "pitch": 86, "duration": 10, "velocity": 27}, {"time": 159300, "pitch": 26, "duration": 10, "velocity": 50}, {"time": 159300, "pitch": 86, "duration": 10, "velocity": 26}, {"time": 159330, "pitch": 86, "duration": 10, "velocity": 25}, {"time": 159360, "pitch": 26, "duration": 10, "velocity": 106}, {"time": 159360, "pitch": 73, "duration": 10, "velocity": 70}, {"time": 159360, "pitch": 86, "duration": 10, "velocity": 24}, {"time": 159360, "pitch": 99, "duration": 10, "velocity": 36}, {"time": 159390, "pitch": 86, "duration": 10, "velocity": 23}, {"time": 159420, "pitch": 86, "duration": 10, "velocity": 22}, {"time": 159450, "pitch": 86, "duration": 10, "velocity": 21}, {"time": 159480, "pitch": 86, "duration": 10, "velocity": 20}, {"time": 159480, "pitch": 99, "duration": 10, "velocity": 64}, {"time": 159510, "pitch": 86, "duration": 10, "velocity": 19}, {"time": 159540, "pitch": 86, "duration": 10, "velocity": 18}, {"time": 159570, "pitch": 86, "duration": 10, "velocity": 17}, {"time": 159600, "pitch": 74, "duration": 10, "velocity": 36}, {"time": 159600, "pitch": 86, "duration": 10, "velocity": 16}, {"time": 159600, "pitch": 98, "duration": 10, "velocity": 78}, {"time": 159630, "pitch": 86, "duration": 10, "velocity": 15}, {"time": 159660, "pitch": 86, "duration": 10, "velocity": 14}, {"time": 159690, "pitch": 86, "duration": 10, "velocity": 13}, {"time": 159720, "pitch": 74, "duration": 10, "velocity": 50}, {"time": 159720, "pitch": 86, "duration": 10, "velocity": 12}, {"time": 159750, "pitch": 86, "duration": 10, "velocity": 11}, {"time": 159780, "pitch": 86, "duration": 10, "velocity": 10}, {"time": 159810, "pitch": 86, "duration": 10, "velocity": 9}, {"time": 159960, "pitch": 75, "duration": 10, "velocity": 36}, {"time": 160080, "pitch": 77, "duration": 10, "velocity": 36}, {"time": 160200, "pitch": 75, "duration": 10, "velocity": 64}, {"time": 160320, "pitch": 73, "duration": 10, "velocity": 70}, {"time": 160440, "pitch": 77, "duration": 10, "velocity": 36}, {"time": 160560, "pitch": 26, "duration": 10, "velocity": 60}, {"time": 160560, "pitch": 77, "duration": 10, "velocity": 64}, {"time": 160590, "pitch": 26, "duration": 10, "velocity": 45}, {"time": 160620, "pitch": 26, "duration": 10, "velocity": 58}, {"time": 160650, "pitch": 26, "duration": 10, "velocity": 44}, {"time": 160680, "pitch": 26, "duration": 10, "velocity": 56}, {"time": 160710, "pitch": 26, "duration": 10, "velocity": 43}, {"time": 160740, "pitch": 26, "duration": 10, "velocity": 54}, {"time": 160770, "pitch": 26, "duration": 10, "velocity": 42}, {"time": 160800, "pitch": 26, "duration": 10, "velocity": 53}, {"time": 160830, "pitch": 26, "duration": 10, "velocity": 41}, {"time": 160860, "pitch": 26, "duration": 10, "velocity": 52}, {"time": 160890, "pitch": 26, "duration": 10, "velocity": 40}, {"time": 160920, "pitch": 26, "duration": 10, "velocity": 51}, {"time": 160950, "pitch": 26, "duration": 10, "velocity": 39}, {"time": 160980, "pitch": 26, "duration": 10, "velocity": 50}, {"time": 161010, "pitch": 26, "duration": 10, "velocity": 38}, {"time": 161040, "pitch": 26, "duration": 10, "velocity": 49}, {"time": 161070, "pitch": 26, "duration": 10, "velocity": 37}, {"time": 161100, "pitch": 26, "duration": 10, "velocity": 48}, {"time": 161130, "pitch": 26, "duration": 10, "velocity": 36}, {"time": 161160, "pitch": 26, "duration": 10, "velocity": 47}, {"time": 161190, "pitch": 26, "duration": 10, "velocity": 35}, {"time": 161220, "pitch": 26, "duration": 10, "velocity": 46}, {"time": 161250, "pitch": 26, "duration": 10, "velocity": 34}, {"time": 161280, "pitch": 26, "duration": 10, "velocity": 45}, {"time": 161310, "pitch": 26, "duration": 10, "velocity": 33}, {"time": 161340, "pitch": 26, "duration": 10, "velocity": 44}, {"time": 161370, "pitch": 26, "duration": 10, "velocity": 32}, {"time": 161400, "pitch": 26, "duration": 10, "velocity": 43}, {"time": 161430, "pitch": 26, "duration": 10, "velocity": 31}, {"time": 161460, "pitch": 26, "duration": 10, "velocity": 42}, {"time": 161490, "pitch": 26, "duration": 10, "velocity": 30}, {"time": 161520, "pitch": 26, "duration": 10, "velocity": 40}, {"time": 161550, "pitch": 26, "duration": 10, "velocity": 29}, {"time": 161580, "pitch": 26, "duration": 10, "velocity": 38}, {"time": 161610, "pitch": 26, "duration": 10, "velocity": 28}, {"time": 161640, "pitch": 26, "duration": 10, "velocity": 36}, {"time": 161670, "pitch": 26, "duration": 10, "velocity": 27}, {"time": 161700, "pitch": 26, "duration": 10, "velocity": 34}, {"time": 161730, "pitch": 26, "duration": 10, "velocity": 26}, {"time": 161760, "pitch": 26, "duration": 10, "velocity": 32}, {"time": 161790, "pitch": 26, "duration": 10, "velocity": 24}, {"time": 161820, "pitch": 26, "duration": 10, "velocity": 30}, {"time": 161850, "pitch": 26, "duration": 10, "velocity": 22}, {"time": 161880, "pitch": 26, "duration": 10, "velocity": 28}, {"time": 161910, "pitch": 26, "duration": 10, "velocity": 20}, {"time": 161940, "pitch": 26, "duration": 10, "velocity": 26}, {"time": 161970, "pitch": 26, "duration": 10, "velocity": 18}, {"time": 162000, "pitch": 26, "duration": 10, "velocity": 24}, {"time": 162030, "pitch": 26, "duration": 10, "velocity": 16}, {"time": 162060, "pitch": 26, "duration": 10, "velocity": 22}, {"time": 162090, "pitch": 26, "duration": 10, "velocity": 14}, {"time": 162120, "pitch": 26, "duration": 10, "velocity": 20}, {"time": 162150, "pitch": 26, "duration": 10, "velocity": 12}, {"time": 162180, "pitch": 26, "duration": 10, "velocity": 18}, {"time": 162210, "pitch": 26, "duration": 10, "velocity": 10}, {"time": 162240, "pitch": 26, "duration": 10, "velocity": 16}, {"time": 162270, "pitch": 26, "duration": 10, "velocity": 9}, {"time": 162300, "pitch": 26, "duration": 10, "velocity": 14}, {"time": 162330, "pitch": 26, "duration": 10, "velocity": 8}, {"time": 162360, "pitch": 26, "duration": 10, "velocity": 12}, {"time": 162390, "pitch": 26, "duration": 10, "velocity": 7}, {"time": 162420, "pitch": 26, "duration": 10, "velocity": 10}, {"time": 162450, "pitch": 26, "duration": 10, "velocity": 6}, {"time": 162480, "pitch": 26, "duration": 10, "velocity": 9}, {"time": 162510, "pitch": 26, "duration": 10, "velocity": 5}, {"time": 162540, "pitch": 26, "duration": 10, "velocity": 8}, {"time": 162570, "pitch": 26, "duration": 10, "velocity": 4}, {"time": 162600, "pitch": 26, "duration": 10, "velocity": 7}, {"time": 162630, "pitch": 26, "duration": 10, "velocity": 3}, {"time": 162660, "pitch": 26, "duration": 10, "velocity": 6}, {"time": 162690, "pitch": 26, "duration": 10, "velocity": 2}, {"time": 162720, "pitch": 26, "duration": 10, "velocity": 5}], "annotations": [{"time": 336, "annotation": {"number": 7, "value": 105}, "group": "control_change"}, {"time": 360, "annotation": {"number": 11, "value": 127}, "group": "control_change"}, {"time": 384, "annotation": {"number": 10, "value": 64}, "group": "control_change"}, {"time": 408, "annotation": {"number": 91, "value": 64}, "group": "control_change"}, {"time": 432, "annotation": {"number": 93, "value": 0}, "group": "control_change"}, {"time": 456, "annotation": {"number": 101, "value": 0}, "group": "control_change"}, {"time": 480, "annotation": {"number": 100, "value": 0}, "group": "control_change"}, {"time": 480, "annotation": {"number": 6, "value": 2}, "group": "control_change"}, {"time": 480, "annotation": {"number": 101, "value": 127}, "group": "control_change"}, {"time": 480, "annotation": {"number": 100, "value": 127}, "group": "control_change"}]}]}