{"metadata": {"schema_version": "0.1", "title": "RWC-MDB-P-2001 No. 62: Be with me Now / Rin", "copyright": "RWC Music Database. Copyright (C) 2001 Real World Computing Partnership (contact: Masataka GOTO <m.goto@aist.go.jp>)", "source_filename": "RM-P062.SMF_SYNC.MID", "source_format": "midi"}, "resolution": 480, "tempos": [{"time": 0, "qpm": 59.40594059405941}, {"time": 480, "qpm": 81.08108108108108}, {"time": 1440, "qpm": 80.0}, {"time": 1920, "qpm": 81.08108108108108}, {"time": 8640, "qpm": 80.0}, {"time": 9120, "qpm": 81.08108108108108}, {"time": 15360, "qpm": 80.0}, {"time": 15840, "qpm": 81.08108108108108}, {"time": 21600, "qpm": 80.0}, {"time": 22080, "qpm": 81.08108108108108}, {"time": 27840, "qpm": 80.0}, {"time": 28320, "qpm": 81.08108108108108}, {"time": 34560, "qpm": 80.0}, {"time": 35040, "qpm": 81.08108108108108}, {"time": 41280, "qpm": 80.0}, {"time": 41760, "qpm": 81.08108108108108}, {"time": 47040, "qpm": 80.0}, {"time": 47520, "qpm": 81.08108108108108}, {"time": 54240, "qpm": 80.0}, {"time": 54720, "qpm": 81.08108108108108}, {"time": 60960, "qpm": 80.0}, {"time": 61440, "qpm": 81.08108108108108}, {"time": 66720, "qpm": 80.0}, {"time": 67200, "qpm": 81.08108108108108}, {"time": 72960, "qpm": 80.0}, {"time": 73440, "qpm": 81.08108108108108}, {"time": 79680, "qpm": 80.0}, {"time": 80160, "qpm": 81.08108108108108}, {"time": 86400, "qpm": 80.0}, {"time": 86880, "qpm": 81.08108108108108}, {"time": 92160, "qpm": 80.0}, {"time": 92640, "qpm": 81.08108108108108}, {"time": 99840, "qpm": 80.0}, {"time": 100320, "qpm": 81.08108108108108}, {"time": 105120, "qpm": 80.0}, {"time": 105600, "qpm": 81.08108108108108}, {"time": 112800, "qpm": 80.0}, {"time": 113280, "qpm": 81.08108108108108}, {"time": 119040, "qpm": 80.0}, {"time": 119520, "qpm": 81.08108108108108}], "key_signatures": [{"time": 0, "root": 0, "mode": "major"}], "time_signatures": [{"time": 0, "numerator": 1, "denominator": 4}, {"time": 480, "numerator": 2, "denominator": 4}, {"time": 1440, "numerator": 4, "denominator": 4}], "tracks": [{"program": 0, "is_drum": false, "name": "E.PIANO", "annotations": [{"time": 209, "annotation": {"number": 0, "value": 16}, "group": "control_change"}, {"time": 230, "annotation": {"number": 32, "value": 2}, "group": "control_change"}]}, {"program": 4, "is_drum": false, "name": "E.PIANO", "notes": [{"time": 1443, "pitch": 55, "duration": 1590, "velocity": 80}, {"time": 1443, "pitch": 59, "duration": 1590, "velocity": 80}, {"time": 1443, "pitch": 62, "duration": 1590, "velocity": 80}, {"time": 1443, "pitch": 66, "duration": 1590, "velocity": 80}, {"time": 3118, "pitch": 62, "duration": 988, "velocity": 80}, {"time": 3118, "pitch": 66, "duration": 925, "velocity": 80}, {"time": 3118, "pitch": 69, "duration": 926, "velocity": 80}, {"time": 3358, "pitch": 55, "duration": 1860, "velocity": 80}, {"time": 3358, "pitch": 59, "duration": 1871, "velocity": 80}, {"time": 4078, "pitch": 66, "duration": 403, "velocity": 80}, {"time": 4078, "pitch": 71, "duration": 423, "velocity": 80}, {"time": 4078, "pitch": 74, "duration": 678, "velocity": 80}, {"time": 4559, "pitch": 62, "duration": 466, "velocity": 80}, {"time": 4559, "pitch": 66, "duration": 448, "velocity": 80}, {"time": 4559, "pitch": 69, "duration": 510, "velocity": 80}, {"time": 5039, "pitch": 62, "duration": 175, "velocity": 80}, {"time": 5039, "pitch": 66, "duration": 169, "velocity": 80}, {"time": 5279, "pitch": 54, "duration": 1802, "velocity": 80}, {"time": 5279, "pitch": 57, "duration": 1795, "velocity": 80}, {"time": 5279, "pitch": 61, "duration": 1101, "velocity": 80}, {"time": 5279, "pitch": 64, "duration": 1111, "velocity": 80}, {"time": 6481, "pitch": 61, "duration": 698, "velocity": 80}, {"time": 6481, "pitch": 66, "duration": 765, "velocity": 80}, {"time": 7201, "pitch": 54, "duration": 1588, "velocity": 80}, {"time": 7201, "pitch": 57, "duration": 1580, "velocity": 80}, {"time": 7201, "pitch": 61, "duration": 1596, "velocity": 80}, {"time": 7201, "pitch": 64, "duration": 949, "velocity": 80}, {"time": 8402, "pitch": 64, "duration": 704, "velocity": 80}, {"time": 8402, "pitch": 66, "duration": 607, "velocity": 80}, {"time": 8402, "pitch": 69, "duration": 705, "velocity": 80}, {"time": 8883, "pitch": 54, "duration": 180, "velocity": 80}, {"time": 8883, "pitch": 57, "duration": 187, "velocity": 80}, {"time": 8883, "pitch": 61, "duration": 242, "velocity": 80}, {"time": 9123, "pitch": 55, "duration": 1074, "velocity": 80}, {"time": 9123, "pitch": 59, "duration": 1145, "velocity": 80}, {"time": 9123, "pitch": 62, "duration": 1862, "velocity": 80}, {"time": 9123, "pitch": 66, "duration": 1099, "velocity": 80}, {"time": 10317, "pitch": 55, "duration": 715, "velocity": 80}, {"time": 10317, "pitch": 66, "duration": 705, "velocity": 80}, {"time": 10317, "pitch": 69, "duration": 712, "velocity": 80}, {"time": 10798, "pitch": 59, "duration": 220, "velocity": 80}, {"time": 11038, "pitch": 55, "duration": 1096, "velocity": 80}, {"time": 11038, "pitch": 59, "duration": 1153, "velocity": 80}, {"time": 11038, "pitch": 62, "duration": 1125, "velocity": 80}, {"time": 11038, "pitch": 66, "duration": 1588, "velocity": 80}, {"time": 11038, "pitch": 69, "duration": 1149, "velocity": 80}, {"time": 12239, "pitch": 55, "duration": 618, "velocity": 80}, {"time": 12239, "pitch": 59, "duration": 669, "velocity": 80}, {"time": 12239, "pitch": 62, "duration": 413, "velocity": 80}, {"time": 12239, "pitch": 71, "duration": 469, "velocity": 80}, {"time": 12720, "pitch": 62, "duration": 191, "velocity": 80}, {"time": 12720, "pitch": 66, "duration": 205, "velocity": 80}, {"time": 12720, "pitch": 69, "duration": 238, "velocity": 80}, {"time": 12960, "pitch": 54, "duration": 632, "velocity": 80}, {"time": 12960, "pitch": 57, "duration": 665, "velocity": 80}, {"time": 12960, "pitch": 61, "duration": 684, "velocity": 80}, {"time": 12960, "pitch": 64, "duration": 654, "velocity": 80}, {"time": 13680, "pitch": 54, "duration": 1072, "velocity": 80}, {"time": 13680, "pitch": 57, "duration": 1123, "velocity": 80}, {"time": 13680, "pitch": 61, "duration": 1119, "velocity": 80}, {"time": 13680, "pitch": 64, "duration": 1110, "velocity": 80}, {"time": 13680, "pitch": 66, "duration": 863, "velocity": 80}, {"time": 14641, "pitch": 66, "duration": 317, "velocity": 80}, {"time": 14641, "pitch": 69, "duration": 329, "velocity": 80}, {"time": 14882, "pitch": 54, "duration": 1614, "velocity": 80}, {"time": 14882, "pitch": 57, "duration": 1629, "velocity": 80}, {"time": 14882, "pitch": 61, "duration": 1619, "velocity": 80}, {"time": 14882, "pitch": 64, "duration": 1622, "velocity": 80}, {"time": 15122, "pitch": 66, "duration": 421, "velocity": 80}, {"time": 15122, "pitch": 69, "duration": 412, "velocity": 80}, {"time": 15122, "pitch": 73, "duration": 414, "velocity": 80}, {"time": 15122, "pitch": 76, "duration": 411, "velocity": 80}, {"time": 15602, "pitch": 66, "duration": 461, "velocity": 80}, {"time": 15602, "pitch": 69, "duration": 374, "velocity": 80}, {"time": 15602, "pitch": 73, "duration": 356, "velocity": 80}, {"time": 15602, "pitch": 76, "duration": 441, "velocity": 80}, {"time": 16083, "pitch": 66, "duration": 169, "velocity": 80}, {"time": 16083, "pitch": 69, "duration": 174, "velocity": 80}, {"time": 16083, "pitch": 73, "duration": 192, "velocity": 80}, {"time": 16323, "pitch": 66, "duration": 196, "velocity": 80}, {"time": 16323, "pitch": 69, "duration": 211, "velocity": 80}, {"time": 16560, "pitch": 54, "duration": 189, "velocity": 80}, {"time": 16560, "pitch": 57, "duration": 196, "velocity": 80}, {"time": 16560, "pitch": 61, "duration": 227, "velocity": 80}, {"time": 16560, "pitch": 64, "duration": 235, "velocity": 80}, {"time": 16560, "pitch": 66, "duration": 141, "velocity": 80}, {"time": 16560, "pitch": 69, "duration": 166, "velocity": 80}, {"time": 16797, "pitch": 55, "duration": 1597, "velocity": 80}, {"time": 16797, "pitch": 59, "duration": 1597, "velocity": 80}, {"time": 16797, "pitch": 62, "duration": 1597, "velocity": 80}, {"time": 16797, "pitch": 66, "duration": 1597, "velocity": 80}, {"time": 18478, "pitch": 62, "duration": 989, "velocity": 80}, {"time": 18478, "pitch": 66, "duration": 926, "velocity": 80}, {"time": 18478, "pitch": 69, "duration": 927, "velocity": 80}, {"time": 18718, "pitch": 55, "duration": 1861, "velocity": 80}, {"time": 18718, "pitch": 59, "duration": 1872, "velocity": 80}, {"time": 19439, "pitch": 66, "duration": 402, "velocity": 80}, {"time": 19439, "pitch": 71, "duration": 422, "velocity": 80}, {"time": 19439, "pitch": 74, "duration": 678, "velocity": 80}, {"time": 19920, "pitch": 62, "duration": 466, "velocity": 80}, {"time": 19920, "pitch": 66, "duration": 448, "velocity": 80}, {"time": 19920, "pitch": 69, "duration": 510, "velocity": 80}, {"time": 20400, "pitch": 62, "duration": 175, "velocity": 80}, {"time": 20400, "pitch": 66, "duration": 169, "velocity": 80}, {"time": 20640, "pitch": 54, "duration": 1802, "velocity": 80}, {"time": 20640, "pitch": 57, "duration": 1795, "velocity": 80}, {"time": 20640, "pitch": 61, "duration": 1101, "velocity": 80}, {"time": 20640, "pitch": 64, "duration": 1111, "velocity": 80}, {"time": 21841, "pitch": 61, "duration": 699, "velocity": 80}, {"time": 21841, "pitch": 66, "duration": 766, "velocity": 80}, {"time": 22562, "pitch": 54, "duration": 1585, "velocity": 80}, {"time": 22562, "pitch": 57, "duration": 1577, "velocity": 80}, {"time": 22562, "pitch": 61, "duration": 1593, "velocity": 80}, {"time": 22562, "pitch": 64, "duration": 949, "velocity": 80}, {"time": 23763, "pitch": 64, "duration": 697, "velocity": 80}, {"time": 23763, "pitch": 66, "duration": 602, "velocity": 80}, {"time": 23763, "pitch": 69, "duration": 698, "velocity": 80}, {"time": 24240, "pitch": 54, "duration": 178, "velocity": 80}, {"time": 24240, "pitch": 57, "duration": 185, "velocity": 80}, {"time": 24240, "pitch": 61, "duration": 239, "velocity": 80}, {"time": 24477, "pitch": 55, "duration": 1081, "velocity": 80}, {"time": 24477, "pitch": 59, "duration": 1152, "velocity": 80}, {"time": 24477, "pitch": 62, "duration": 1869, "velocity": 80}, {"time": 24477, "pitch": 66, "duration": 1106, "velocity": 80}, {"time": 25678, "pitch": 55, "duration": 715, "velocity": 80}, {"time": 25678, "pitch": 66, "duration": 705, "velocity": 80}, {"time": 25678, "pitch": 69, "duration": 712, "velocity": 80}, {"time": 26159, "pitch": 59, "duration": 220, "velocity": 80}, {"time": 26399, "pitch": 55, "duration": 1096, "velocity": 80}, {"time": 26399, "pitch": 59, "duration": 1153, "velocity": 80}, {"time": 26399, "pitch": 62, "duration": 1125, "velocity": 80}, {"time": 26399, "pitch": 66, "duration": 1587, "velocity": 80}, {"time": 26399, "pitch": 69, "duration": 1149, "velocity": 80}, {"time": 27600, "pitch": 55, "duration": 617, "velocity": 80}, {"time": 27600, "pitch": 59, "duration": 668, "velocity": 80}, {"time": 27600, "pitch": 62, "duration": 412, "velocity": 80}, {"time": 27600, "pitch": 71, "duration": 468, "velocity": 80}, {"time": 28080, "pitch": 62, "duration": 191, "velocity": 80}, {"time": 28080, "pitch": 66, "duration": 205, "velocity": 80}, {"time": 28080, "pitch": 69, "duration": 239, "velocity": 80}, {"time": 28321, "pitch": 54, "duration": 632, "velocity": 80}, {"time": 28321, "pitch": 57, "duration": 665, "velocity": 80}, {"time": 28321, "pitch": 61, "duration": 684, "velocity": 80}, {"time": 28321, "pitch": 64, "duration": 654, "velocity": 80}, {"time": 29041, "pitch": 54, "duration": 1072, "velocity": 80}, {"time": 29041, "pitch": 57, "duration": 1123, "velocity": 80}, {"time": 29041, "pitch": 61, "duration": 1119, "velocity": 80}, {"time": 29041, "pitch": 64, "duration": 1110, "velocity": 80}, {"time": 29041, "pitch": 66, "duration": 863, "velocity": 80}, {"time": 30002, "pitch": 66, "duration": 316, "velocity": 80}, {"time": 30002, "pitch": 69, "duration": 328, "velocity": 80}, {"time": 30242, "pitch": 54, "duration": 1610, "velocity": 80}, {"time": 30242, "pitch": 57, "duration": 1626, "velocity": 80}, {"time": 30242, "pitch": 61, "duration": 1615, "velocity": 80}, {"time": 30242, "pitch": 64, "duration": 1619, "velocity": 80}, {"time": 30482, "pitch": 66, "duration": 422, "velocity": 80}, {"time": 30482, "pitch": 69, "duration": 413, "velocity": 80}, {"time": 30482, "pitch": 73, "duration": 415, "velocity": 80}, {"time": 30482, "pitch": 76, "duration": 412, "velocity": 80}, {"time": 30963, "pitch": 66, "duration": 457, "velocity": 80}, {"time": 30963, "pitch": 69, "duration": 371, "velocity": 80}, {"time": 30963, "pitch": 73, "duration": 355, "velocity": 80}, {"time": 30963, "pitch": 76, "duration": 438, "velocity": 80}, {"time": 31440, "pitch": 66, "duration": 167, "velocity": 80}, {"time": 31440, "pitch": 69, "duration": 172, "velocity": 80}, {"time": 31440, "pitch": 73, "duration": 190, "velocity": 80}, {"time": 31677, "pitch": 66, "duration": 199, "velocity": 80}, {"time": 31677, "pitch": 69, "duration": 214, "velocity": 80}, {"time": 31917, "pitch": 54, "duration": 192, "velocity": 80}, {"time": 31917, "pitch": 57, "duration": 199, "velocity": 80}, {"time": 31917, "pitch": 61, "duration": 230, "velocity": 80}, {"time": 31917, "pitch": 64, "duration": 238, "velocity": 80}, {"time": 31917, "pitch": 66, "duration": 143, "velocity": 80}, {"time": 31917, "pitch": 69, "duration": 168, "velocity": 80}, {"time": 32157, "pitch": 55, "duration": 1598, "velocity": 80}, {"time": 32157, "pitch": 59, "duration": 1598, "velocity": 80}, {"time": 32157, "pitch": 62, "duration": 1598, "velocity": 80}, {"time": 32157, "pitch": 66, "duration": 1598, "velocity": 80}, {"time": 33839, "pitch": 62, "duration": 989, "velocity": 80}, {"time": 33839, "pitch": 66, "duration": 926, "velocity": 80}, {"time": 33839, "pitch": 69, "duration": 927, "velocity": 80}, {"time": 34079, "pitch": 55, "duration": 1861, "velocity": 80}, {"time": 34079, "pitch": 59, "duration": 1872, "velocity": 80}, {"time": 34800, "pitch": 66, "duration": 402, "velocity": 80}, {"time": 34800, "pitch": 71, "duration": 422, "velocity": 80}, {"time": 34800, "pitch": 74, "duration": 677, "velocity": 80}, {"time": 35280, "pitch": 62, "duration": 467, "velocity": 80}, {"time": 35280, "pitch": 66, "duration": 449, "velocity": 80}, {"time": 35280, "pitch": 69, "duration": 511, "velocity": 80}, {"time": 35761, "pitch": 62, "duration": 175, "velocity": 80}, {"time": 35761, "pitch": 66, "duration": 169, "velocity": 80}, {"time": 36001, "pitch": 54, "duration": 1801, "velocity": 80}, {"time": 36001, "pitch": 57, "duration": 1794, "velocity": 80}, {"time": 36001, "pitch": 61, "duration": 1101, "velocity": 80}, {"time": 36001, "pitch": 64, "duration": 1111, "velocity": 80}, {"time": 37202, "pitch": 61, "duration": 699, "velocity": 80}, {"time": 37202, "pitch": 66, "duration": 766, "velocity": 80}, {"time": 37923, "pitch": 54, "duration": 1580, "velocity": 80}, {"time": 37923, "pitch": 57, "duration": 1572, "velocity": 80}, {"time": 37923, "pitch": 61, "duration": 1588, "velocity": 80}, {"time": 37923, "pitch": 64, "duration": 942, "velocity": 80}, {"time": 39117, "pitch": 64, "duration": 704, "velocity": 80}, {"time": 39117, "pitch": 66, "duration": 607, "velocity": 80}, {"time": 39117, "pitch": 69, "duration": 705, "velocity": 80}, {"time": 39598, "pitch": 54, "duration": 180, "velocity": 80}, {"time": 39598, "pitch": 57, "duration": 187, "velocity": 80}, {"time": 39598, "pitch": 61, "duration": 242, "velocity": 80}, {"time": 39838, "pitch": 55, "duration": 1081, "velocity": 80}, {"time": 39838, "pitch": 59, "duration": 1152, "velocity": 80}, {"time": 39838, "pitch": 62, "duration": 1868, "velocity": 80}, {"time": 39838, "pitch": 66, "duration": 1106, "velocity": 80}, {"time": 41039, "pitch": 55, "duration": 714, "velocity": 80}, {"time": 41039, "pitch": 66, "duration": 704, "velocity": 80}, {"time": 41039, "pitch": 69, "duration": 711, "velocity": 80}, {"time": 41519, "pitch": 59, "duration": 220, "velocity": 80}, {"time": 41759, "pitch": 55, "duration": 1096, "velocity": 80}, {"time": 41759, "pitch": 59, "duration": 1154, "velocity": 80}, {"time": 41759, "pitch": 62, "duration": 1125, "velocity": 80}, {"time": 41759, "pitch": 66, "duration": 1588, "velocity": 80}, {"time": 41759, "pitch": 69, "duration": 1150, "velocity": 80}, {"time": 42961, "pitch": 55, "duration": 617, "velocity": 80}, {"time": 42961, "pitch": 59, "duration": 668, "velocity": 80}, {"time": 42961, "pitch": 62, "duration": 412, "velocity": 80}, {"time": 42961, "pitch": 71, "duration": 468, "velocity": 80}, {"time": 43441, "pitch": 62, "duration": 191, "velocity": 80}, {"time": 43441, "pitch": 66, "duration": 205, "velocity": 80}, {"time": 43441, "pitch": 69, "duration": 238, "velocity": 80}, {"time": 43681, "pitch": 54, "duration": 633, "velocity": 80}, {"time": 43681, "pitch": 57, "duration": 666, "velocity": 80}, {"time": 43681, "pitch": 61, "duration": 685, "velocity": 80}, {"time": 43681, "pitch": 64, "duration": 655, "velocity": 80}, {"time": 44402, "pitch": 54, "duration": 1072, "velocity": 80}, {"time": 44402, "pitch": 57, "duration": 1123, "velocity": 80}, {"time": 44402, "pitch": 61, "duration": 1119, "velocity": 80}, {"time": 44402, "pitch": 64, "duration": 1110, "velocity": 80}, {"time": 44402, "pitch": 66, "duration": 863, "velocity": 80}, {"time": 45363, "pitch": 66, "duration": 315, "velocity": 80}, {"time": 45363, "pitch": 69, "duration": 327, "velocity": 80}, {"time": 45603, "pitch": 54, "duration": 1610, "velocity": 80}, {"time": 45603, "pitch": 57, "duration": 1626, "velocity": 80}, {"time": 45603, "pitch": 61, "duration": 1615, "velocity": 80}, {"time": 45603, "pitch": 64, "duration": 1619, "velocity": 80}, {"time": 45840, "pitch": 66, "duration": 418, "velocity": 80}, {"time": 45840, "pitch": 69, "duration": 409, "velocity": 80}, {"time": 45840, "pitch": 73, "duration": 411, "velocity": 80}, {"time": 45840, "pitch": 76, "duration": 408, "velocity": 80}, {"time": 46317, "pitch": 66, "duration": 460, "velocity": 80}, {"time": 46317, "pitch": 69, "duration": 373, "velocity": 80}, {"time": 46317, "pitch": 73, "duration": 356, "velocity": 80}, {"time": 46317, "pitch": 76, "duration": 440, "velocity": 80}, {"time": 46797, "pitch": 66, "duration": 170, "velocity": 80}, {"time": 46797, "pitch": 69, "duration": 175, "velocity": 80}, {"time": 46797, "pitch": 73, "duration": 193, "velocity": 80}, {"time": 47038, "pitch": 66, "duration": 199, "velocity": 80}, {"time": 47038, "pitch": 69, "duration": 214, "velocity": 80}, {"time": 47278, "pitch": 54, "duration": 192, "velocity": 80}, {"time": 47278, "pitch": 57, "duration": 199, "velocity": 80}, {"time": 47278, "pitch": 61, "duration": 230, "velocity": 80}, {"time": 47278, "pitch": 64, "duration": 238, "velocity": 80}, {"time": 47278, "pitch": 66, "duration": 143, "velocity": 80}, {"time": 47278, "pitch": 69, "duration": 168, "velocity": 80}, {"time": 47518, "pitch": 55, "duration": 3844, "velocity": 80}, {"time": 47518, "pitch": 59, "duration": 5759, "velocity": 80}, {"time": 47518, "pitch": 60, "duration": 3844, "velocity": 80}, {"time": 47518, "pitch": 64, "duration": 1922, "velocity": 80}, {"time": 48239, "pitch": 67, "duration": 1114, "velocity": 80}, {"time": 48239, "pitch": 71, "duration": 1130, "velocity": 80}, {"time": 48239, "pitch": 72, "duration": 1136, "velocity": 80}, {"time": 48239, "pitch": 76, "duration": 1150, "velocity": 80}, {"time": 49440, "pitch": 64, "duration": 1924, "velocity": 80}, {"time": 49440, "pitch": 67, "duration": 1128, "velocity": 80}, {"time": 49440, "pitch": 71, "duration": 1102, "velocity": 80}, {"time": 49440, "pitch": 72, "duration": 1066, "velocity": 80}, {"time": 49440, "pitch": 76, "duration": 1068, "velocity": 80}, {"time": 49440, "pitch": 79, "duration": 1043, "velocity": 80}, {"time": 50641, "pitch": 67, "duration": 477, "velocity": 80}, {"time": 50641, "pitch": 71, "duration": 470, "velocity": 80}, {"time": 50641, "pitch": 72, "duration": 473, "velocity": 80}, {"time": 50641, "pitch": 76, "duration": 477, "velocity": 80}, {"time": 51121, "pitch": 67, "duration": 198, "velocity": 80}, {"time": 51121, "pitch": 71, "duration": 186, "velocity": 80}, {"time": 51121, "pitch": 72, "duration": 200, "velocity": 80}, {"time": 51121, "pitch": 76, "duration": 201, "velocity": 80}, {"time": 51362, "pitch": 57, "duration": 1859, "velocity": 80}, {"time": 51362, "pitch": 62, "duration": 1855, "velocity": 80}, {"time": 51362, "pitch": 66, "duration": 1845, "velocity": 80}, {"time": 51362, "pitch": 69, "duration": 859, "velocity": 80}, {"time": 51362, "pitch": 71, "duration": 850, "velocity": 80}, {"time": 51362, "pitch": 74, "duration": 875, "velocity": 80}, {"time": 52322, "pitch": 69, "duration": 903, "velocity": 80}, {"time": 52322, "pitch": 71, "duration": 911, "velocity": 80}, {"time": 52322, "pitch": 74, "duration": 914, "velocity": 80}, {"time": 52322, "pitch": 78, "duration": 928, "velocity": 80}, {"time": 53277, "pitch": 57, "duration": 1666, "velocity": 80}, {"time": 53277, "pitch": 59, "duration": 1680, "velocity": 80}, {"time": 53277, "pitch": 62, "duration": 1670, "velocity": 80}, {"time": 53277, "pitch": 66, "duration": 1805, "velocity": 80}, {"time": 53277, "pitch": 71, "duration": 1848, "velocity": 80}, {"time": 53277, "pitch": 74, "duration": 1144, "velocity": 80}, {"time": 53277, "pitch": 78, "duration": 1161, "velocity": 80}, {"time": 53277, "pitch": 81, "duration": 1213, "velocity": 80}, {"time": 54478, "pitch": 76, "duration": 263, "velocity": 80}, {"time": 54478, "pitch": 80, "duration": 266, "velocity": 80}, {"time": 54718, "pitch": 78, "duration": 152, "velocity": 80}, {"time": 54718, "pitch": 81, "duration": 162, "velocity": 80}, {"time": 54958, "pitch": 80, "duration": 195, "velocity": 80}, {"time": 54958, "pitch": 83, "duration": 199, "velocity": 80}, {"time": 55198, "pitch": 60, "duration": 1792, "velocity": 80}, {"time": 55198, "pitch": 64, "duration": 1812, "velocity": 80}, {"time": 55198, "pitch": 67, "duration": 1849, "velocity": 80}, {"time": 55198, "pitch": 71, "duration": 1106, "velocity": 80}, {"time": 55198, "pitch": 76, "duration": 1088, "velocity": 80}, {"time": 55198, "pitch": 79, "duration": 1099, "velocity": 80}, {"time": 55198, "pitch": 83, "duration": 1065, "velocity": 80}, {"time": 56400, "pitch": 71, "duration": 454, "velocity": 80}, {"time": 56400, "pitch": 72, "duration": 448, "velocity": 80}, {"time": 56400, "pitch": 76, "duration": 444, "velocity": 80}, {"time": 56400, "pitch": 79, "duration": 428, "velocity": 80}, {"time": 56880, "pitch": 71, "duration": 163, "velocity": 80}, {"time": 56880, "pitch": 72, "duration": 164, "velocity": 80}, {"time": 56880, "pitch": 76, "duration": 162, "velocity": 80}, {"time": 57120, "pitch": 60, "duration": 1171, "velocity": 80}, {"time": 57120, "pitch": 64, "duration": 1174, "velocity": 80}, {"time": 57120, "pitch": 67, "duration": 1170, "velocity": 80}, {"time": 57120, "pitch": 71, "duration": 1167, "velocity": 80}, {"time": 57120, "pitch": 72, "duration": 1180, "velocity": 80}, {"time": 57120, "pitch": 76, "duration": 1198, "velocity": 80}, {"time": 58321, "pitch": 60, "duration": 675, "velocity": 80}, {"time": 58321, "pitch": 64, "duration": 645, "velocity": 80}, {"time": 58321, "pitch": 67, "duration": 667, "velocity": 80}, {"time": 58321, "pitch": 71, "duration": 674, "velocity": 80}, {"time": 59042, "pitch": 59, "duration": 1872, "velocity": 80}, {"time": 59042, "pitch": 62, "duration": 1869, "velocity": 80}, {"time": 59042, "pitch": 66, "duration": 1874, "velocity": 80}, {"time": 59042, "pitch": 69, "duration": 1176, "velocity": 80}, {"time": 60243, "pitch": 69, "duration": 425, "velocity": 80}, {"time": 60243, "pitch": 71, "duration": 420, "velocity": 80}, {"time": 60243, "pitch": 74, "duration": 420, "velocity": 80}, {"time": 60243, "pitch": 78, "duration": 436, "velocity": 80}, {"time": 60720, "pitch": 69, "duration": 175, "velocity": 80}, {"time": 60720, "pitch": 71, "duration": 183, "velocity": 80}, {"time": 60720, "pitch": 74, "duration": 188, "velocity": 80}, {"time": 60957, "pitch": 59, "duration": 1821, "velocity": 80}, {"time": 60957, "pitch": 62, "duration": 1808, "velocity": 80}, {"time": 60957, "pitch": 66, "duration": 1792, "velocity": 80}, {"time": 60957, "pitch": 71, "duration": 1163, "velocity": 80}, {"time": 60957, "pitch": 74, "duration": 1141, "velocity": 80}, {"time": 60957, "pitch": 78, "duration": 1143, "velocity": 80}, {"time": 60957, "pitch": 81, "duration": 1125, "velocity": 80}, {"time": 62158, "pitch": 69, "duration": 541, "velocity": 80}, {"time": 62158, "pitch": 71, "duration": 567, "velocity": 80}, {"time": 62158, "pitch": 74, "duration": 565, "velocity": 80}, {"time": 62158, "pitch": 78, "duration": 567, "velocity": 80}, {"time": 62879, "pitch": 57, "duration": 3682, "velocity": 72}, {"time": 62879, "pitch": 60, "duration": 3688, "velocity": 76}, {"time": 62879, "pitch": 64, "duration": 3685, "velocity": 90}, {"time": 62879, "pitch": 67, "duration": 3677, "velocity": 85}, {"time": 63599, "pitch": 72, "duration": 974, "velocity": 76}, {"time": 63599, "pitch": 76, "duration": 1040, "velocity": 87}, {"time": 63760, "pitch": 84, "duration": 932, "velocity": 98}, {"time": 64320, "pitch": 79, "duration": 327, "velocity": 74}, {"time": 64801, "pitch": 79, "duration": 1674, "velocity": 85}, {"time": 64831, "pitch": 84, "duration": 1686, "velocity": 87}, {"time": 64861, "pitch": 88, "duration": 1641, "velocity": 83}, {"time": 66722, "pitch": 45, "duration": 257, "velocity": 98}, {"time": 66722, "pitch": 57, "duration": 175, "velocity": 104}, {"time": 66722, "pitch": 60, "duration": 179, "velocity": 114}, {"time": 66722, "pitch": 64, "duration": 178, "velocity": 112}, {"time": 66722, "pitch": 67, "duration": 191, "velocity": 95}, {"time": 66962, "pitch": 47, "duration": 240, "velocity": 75}, {"time": 66962, "pitch": 59, "duration": 177, "velocity": 79}, {"time": 66962, "pitch": 62, "duration": 179, "velocity": 111}, {"time": 66962, "pitch": 66, "duration": 186, "velocity": 108}, {"time": 66962, "pitch": 69, "duration": 180, "velocity": 93}, {"time": 67203, "pitch": 48, "duration": 93, "velocity": 98}, {"time": 67203, "pitch": 60, "duration": 68, "velocity": 85}, {"time": 67203, "pitch": 64, "duration": 55, "velocity": 112}, {"time": 67203, "pitch": 67, "duration": 55, "velocity": 114}, {"time": 67203, "pitch": 71, "duration": 59, "velocity": 95}, {"time": 67920, "pitch": 50, "duration": 2116, "velocity": 95}, {"time": 67920, "pitch": 57, "duration": 2020, "velocity": 95}, {"time": 67920, "pitch": 60, "duration": 2018, "velocity": 114}, {"time": 67920, "pitch": 64, "duration": 2024, "velocity": 111}, {"time": 67920, "pitch": 67, "duration": 2010, "velocity": 93}, {"time": 70079, "pitch": 49, "duration": 480, "velocity": 86}, {"time": 70079, "pitch": 56, "duration": 480, "velocity": 83}, {"time": 70079, "pitch": 59, "duration": 480, "velocity": 90}, {"time": 70079, "pitch": 61, "duration": 480, "velocity": 93}, {"time": 70079, "pitch": 67, "duration": 480, "velocity": 108}, {"time": 70559, "pitch": 55, "duration": 1598, "velocity": 80}, {"time": 70559, "pitch": 59, "duration": 1598, "velocity": 80}, {"time": 70559, "pitch": 62, "duration": 1598, "velocity": 80}, {"time": 70559, "pitch": 66, "duration": 1598, "velocity": 80}, {"time": 72241, "pitch": 62, "duration": 989, "velocity": 80}, {"time": 72241, "pitch": 66, "duration": 925, "velocity": 80}, {"time": 72241, "pitch": 69, "duration": 926, "velocity": 80}, {"time": 72481, "pitch": 55, "duration": 1861, "velocity": 80}, {"time": 72481, "pitch": 59, "duration": 1872, "velocity": 80}, {"time": 73202, "pitch": 66, "duration": 402, "velocity": 80}, {"time": 73202, "pitch": 71, "duration": 422, "velocity": 80}, {"time": 73202, "pitch": 74, "duration": 677, "velocity": 80}, {"time": 73682, "pitch": 62, "duration": 466, "velocity": 80}, {"time": 73682, "pitch": 66, "duration": 448, "velocity": 80}, {"time": 73682, "pitch": 69, "duration": 510, "velocity": 80}, {"time": 74162, "pitch": 62, "duration": 176, "velocity": 80}, {"time": 74162, "pitch": 66, "duration": 170, "velocity": 80}, {"time": 74403, "pitch": 54, "duration": 1795, "velocity": 80}, {"time": 74403, "pitch": 57, "duration": 1788, "velocity": 80}, {"time": 74403, "pitch": 61, "duration": 1094, "velocity": 80}, {"time": 74403, "pitch": 64, "duration": 1104, "velocity": 80}, {"time": 75597, "pitch": 61, "duration": 699, "velocity": 80}, {"time": 75597, "pitch": 66, "duration": 766, "velocity": 80}, {"time": 76318, "pitch": 54, "duration": 1587, "velocity": 80}, {"time": 76318, "pitch": 57, "duration": 1579, "velocity": 80}, {"time": 76318, "pitch": 61, "duration": 1595, "velocity": 80}, {"time": 76318, "pitch": 64, "duration": 949, "velocity": 80}, {"time": 77519, "pitch": 64, "duration": 703, "velocity": 80}, {"time": 77519, "pitch": 66, "duration": 606, "velocity": 80}, {"time": 77519, "pitch": 69, "duration": 704, "velocity": 80}, {"time": 77999, "pitch": 54, "duration": 180, "velocity": 80}, {"time": 77999, "pitch": 57, "duration": 187, "velocity": 80}, {"time": 77999, "pitch": 61, "duration": 243, "velocity": 80}, {"time": 78239, "pitch": 55, "duration": 1081, "velocity": 80}, {"time": 78239, "pitch": 59, "duration": 1153, "velocity": 80}, {"time": 78239, "pitch": 62, "duration": 1869, "velocity": 80}, {"time": 78239, "pitch": 66, "duration": 1106, "velocity": 80}, {"time": 79441, "pitch": 55, "duration": 714, "velocity": 80}, {"time": 79441, "pitch": 66, "duration": 704, "velocity": 80}, {"time": 79441, "pitch": 69, "duration": 711, "velocity": 80}, {"time": 79921, "pitch": 59, "duration": 220, "velocity": 80}, {"time": 80161, "pitch": 55, "duration": 1096, "velocity": 80}, {"time": 80161, "pitch": 59, "duration": 1153, "velocity": 80}, {"time": 80161, "pitch": 62, "duration": 1125, "velocity": 80}, {"time": 80161, "pitch": 66, "duration": 1588, "velocity": 80}, {"time": 80161, "pitch": 69, "duration": 1149, "velocity": 80}, {"time": 81362, "pitch": 55, "duration": 618, "velocity": 80}, {"time": 81362, "pitch": 59, "duration": 669, "velocity": 80}, {"time": 81362, "pitch": 62, "duration": 413, "velocity": 80}, {"time": 81362, "pitch": 71, "duration": 469, "velocity": 80}, {"time": 81843, "pitch": 62, "duration": 191, "velocity": 80}, {"time": 81843, "pitch": 66, "duration": 205, "velocity": 80}, {"time": 81843, "pitch": 69, "duration": 238, "velocity": 80}, {"time": 82083, "pitch": 54, "duration": 626, "velocity": 80}, {"time": 82083, "pitch": 57, "duration": 659, "velocity": 80}, {"time": 82083, "pitch": 61, "duration": 678, "velocity": 80}, {"time": 82083, "pitch": 64, "duration": 648, "velocity": 80}, {"time": 82797, "pitch": 54, "duration": 1072, "velocity": 80}, {"time": 82797, "pitch": 57, "duration": 1123, "velocity": 80}, {"time": 82797, "pitch": 61, "duration": 1119, "velocity": 80}, {"time": 82797, "pitch": 64, "duration": 1110, "velocity": 80}, {"time": 82797, "pitch": 66, "duration": 863, "velocity": 80}, {"time": 83758, "pitch": 66, "duration": 316, "velocity": 80}, {"time": 83758, "pitch": 69, "duration": 328, "velocity": 80}, {"time": 83998, "pitch": 54, "duration": 1617, "velocity": 80}, {"time": 83998, "pitch": 57, "duration": 1633, "velocity": 80}, {"time": 83998, "pitch": 61, "duration": 1622, "velocity": 80}, {"time": 83998, "pitch": 64, "duration": 1626, "velocity": 80}, {"time": 84238, "pitch": 66, "duration": 422, "velocity": 80}, {"time": 84238, "pitch": 69, "duration": 413, "velocity": 80}, {"time": 84238, "pitch": 73, "duration": 415, "velocity": 80}, {"time": 84238, "pitch": 76, "duration": 412, "velocity": 80}, {"time": 84719, "pitch": 66, "duration": 460, "velocity": 80}, {"time": 84719, "pitch": 69, "duration": 373, "velocity": 80}, {"time": 84719, "pitch": 73, "duration": 356, "velocity": 80}, {"time": 84719, "pitch": 76, "duration": 440, "velocity": 80}, {"time": 85199, "pitch": 66, "duration": 169, "velocity": 80}, {"time": 85199, "pitch": 69, "duration": 174, "velocity": 80}, {"time": 85199, "pitch": 73, "duration": 192, "velocity": 80}, {"time": 85439, "pitch": 66, "duration": 200, "velocity": 80}, {"time": 85439, "pitch": 69, "duration": 215, "velocity": 80}, {"time": 85680, "pitch": 54, "duration": 192, "velocity": 80}, {"time": 85680, "pitch": 57, "duration": 199, "velocity": 80}, {"time": 85680, "pitch": 61, "duration": 230, "velocity": 80}, {"time": 85680, "pitch": 64, "duration": 238, "velocity": 80}, {"time": 85680, "pitch": 66, "duration": 143, "velocity": 80}, {"time": 85680, "pitch": 69, "duration": 168, "velocity": 80}, {"time": 85920, "pitch": 55, "duration": 1597, "velocity": 80}, {"time": 85920, "pitch": 59, "duration": 1597, "velocity": 80}, {"time": 85920, "pitch": 62, "duration": 1597, "velocity": 80}, {"time": 85920, "pitch": 66, "duration": 1597, "velocity": 80}, {"time": 87601, "pitch": 62, "duration": 989, "velocity": 80}, {"time": 87601, "pitch": 66, "duration": 926, "velocity": 80}, {"time": 87601, "pitch": 69, "duration": 927, "velocity": 80}, {"time": 87842, "pitch": 55, "duration": 1855, "velocity": 80}, {"time": 87842, "pitch": 59, "duration": 1865, "velocity": 80}, {"time": 88562, "pitch": 66, "duration": 403, "velocity": 80}, {"time": 88562, "pitch": 71, "duration": 423, "velocity": 80}, {"time": 88562, "pitch": 74, "duration": 678, "velocity": 80}, {"time": 89043, "pitch": 62, "duration": 463, "velocity": 80}, {"time": 89043, "pitch": 66, "duration": 445, "velocity": 80}, {"time": 89043, "pitch": 69, "duration": 506, "velocity": 80}, {"time": 89520, "pitch": 62, "duration": 173, "velocity": 80}, {"time": 89520, "pitch": 66, "duration": 167, "velocity": 80}, {"time": 89757, "pitch": 54, "duration": 1801, "velocity": 80}, {"time": 89757, "pitch": 57, "duration": 1794, "velocity": 80}, {"time": 89757, "pitch": 61, "duration": 1101, "velocity": 80}, {"time": 89757, "pitch": 64, "duration": 1111, "velocity": 80}, {"time": 90958, "pitch": 61, "duration": 698, "velocity": 80}, {"time": 90958, "pitch": 66, "duration": 766, "velocity": 80}, {"time": 91678, "pitch": 54, "duration": 1588, "velocity": 80}, {"time": 91678, "pitch": 57, "duration": 1580, "velocity": 80}, {"time": 91678, "pitch": 61, "duration": 1596, "velocity": 80}, {"time": 91678, "pitch": 64, "duration": 949, "velocity": 80}, {"time": 92880, "pitch": 64, "duration": 703, "velocity": 80}, {"time": 92880, "pitch": 66, "duration": 606, "velocity": 80}, {"time": 92880, "pitch": 69, "duration": 704, "velocity": 80}, {"time": 93360, "pitch": 54, "duration": 180, "velocity": 80}, {"time": 93360, "pitch": 57, "duration": 187, "velocity": 80}, {"time": 93360, "pitch": 61, "duration": 242, "velocity": 80}, {"time": 93600, "pitch": 55, "duration": 1081, "velocity": 80}, {"time": 93600, "pitch": 59, "duration": 1152, "velocity": 80}, {"time": 93600, "pitch": 62, "duration": 1869, "velocity": 80}, {"time": 93600, "pitch": 66, "duration": 1106, "velocity": 80}, {"time": 94801, "pitch": 55, "duration": 715, "velocity": 80}, {"time": 94801, "pitch": 66, "duration": 705, "velocity": 80}, {"time": 94801, "pitch": 69, "duration": 712, "velocity": 80}, {"time": 95282, "pitch": 59, "duration": 220, "velocity": 80}, {"time": 95522, "pitch": 55, "duration": 1096, "velocity": 80}, {"time": 95522, "pitch": 59, "duration": 1153, "velocity": 80}, {"time": 95522, "pitch": 62, "duration": 1125, "velocity": 80}, {"time": 95522, "pitch": 66, "duration": 1585, "velocity": 80}, {"time": 95522, "pitch": 69, "duration": 1149, "velocity": 80}, {"time": 96723, "pitch": 55, "duration": 612, "velocity": 80}, {"time": 96723, "pitch": 59, "duration": 663, "velocity": 80}, {"time": 96723, "pitch": 62, "duration": 410, "velocity": 80}, {"time": 96723, "pitch": 71, "duration": 465, "velocity": 80}, {"time": 97200, "pitch": 62, "duration": 189, "velocity": 80}, {"time": 97200, "pitch": 66, "duration": 203, "velocity": 80}, {"time": 97200, "pitch": 69, "duration": 235, "velocity": 80}, {"time": 97437, "pitch": 54, "duration": 633, "velocity": 80}, {"time": 97437, "pitch": 57, "duration": 666, "velocity": 80}, {"time": 97437, "pitch": 61, "duration": 685, "velocity": 80}, {"time": 97437, "pitch": 64, "duration": 655, "velocity": 80}, {"time": 98158, "pitch": 54, "duration": 1072, "velocity": 80}, {"time": 98158, "pitch": 57, "duration": 1123, "velocity": 80}, {"time": 98158, "pitch": 61, "duration": 1119, "velocity": 80}, {"time": 98158, "pitch": 64, "duration": 1110, "velocity": 80}, {"time": 98158, "pitch": 66, "duration": 863, "velocity": 80}, {"time": 99119, "pitch": 66, "duration": 316, "velocity": 80}, {"time": 99119, "pitch": 69, "duration": 328, "velocity": 80}, {"time": 99359, "pitch": 54, "duration": 1616, "velocity": 80}, {"time": 99359, "pitch": 57, "duration": 1632, "velocity": 80}, {"time": 99359, "pitch": 61, "duration": 1621, "velocity": 80}, {"time": 99359, "pitch": 64, "duration": 1625, "velocity": 80}, {"time": 99599, "pitch": 66, "duration": 421, "velocity": 80}, {"time": 99599, "pitch": 69, "duration": 412, "velocity": 80}, {"time": 99599, "pitch": 73, "duration": 414, "velocity": 80}, {"time": 99599, "pitch": 76, "duration": 411, "velocity": 80}, {"time": 100079, "pitch": 66, "duration": 461, "velocity": 80}, {"time": 100079, "pitch": 69, "duration": 374, "velocity": 80}, {"time": 100079, "pitch": 73, "duration": 357, "velocity": 80}, {"time": 100079, "pitch": 76, "duration": 441, "velocity": 80}, {"time": 100560, "pitch": 66, "duration": 169, "velocity": 80}, {"time": 100560, "pitch": 69, "duration": 174, "velocity": 80}, {"time": 100560, "pitch": 73, "duration": 192, "velocity": 80}, {"time": 100800, "pitch": 66, "duration": 199, "velocity": 80}, {"time": 100800, "pitch": 69, "duration": 214, "velocity": 80}, {"time": 101040, "pitch": 54, "duration": 192, "velocity": 80}, {"time": 101040, "pitch": 57, "duration": 199, "velocity": 80}, {"time": 101040, "pitch": 61, "duration": 231, "velocity": 80}, {"time": 101040, "pitch": 64, "duration": 239, "velocity": 80}, {"time": 101040, "pitch": 66, "duration": 143, "velocity": 80}, {"time": 101040, "pitch": 69, "duration": 168, "velocity": 80}, {"time": 101281, "pitch": 55, "duration": 1597, "velocity": 80}, {"time": 101281, "pitch": 59, "duration": 1597, "velocity": 80}, {"time": 101281, "pitch": 62, "duration": 1597, "velocity": 80}, {"time": 101281, "pitch": 66, "duration": 1597, "velocity": 80}, {"time": 102962, "pitch": 62, "duration": 989, "velocity": 80}, {"time": 102962, "pitch": 66, "duration": 926, "velocity": 80}, {"time": 102962, "pitch": 69, "duration": 927, "velocity": 80}, {"time": 103202, "pitch": 55, "duration": 1854, "velocity": 80}, {"time": 103202, "pitch": 59, "duration": 1865, "velocity": 80}, {"time": 103923, "pitch": 66, "duration": 400, "velocity": 80}, {"time": 103923, "pitch": 71, "duration": 420, "velocity": 80}, {"time": 103923, "pitch": 74, "duration": 672, "velocity": 80}, {"time": 104400, "pitch": 62, "duration": 463, "velocity": 80}, {"time": 104400, "pitch": 66, "duration": 445, "velocity": 80}, {"time": 104400, "pitch": 69, "duration": 507, "velocity": 80}, {"time": 104877, "pitch": 62, "duration": 175, "velocity": 80}, {"time": 104877, "pitch": 66, "duration": 169, "velocity": 80}, {"time": 105117, "pitch": 54, "duration": 1802, "velocity": 80}, {"time": 105117, "pitch": 57, "duration": 1795, "velocity": 80}, {"time": 105117, "pitch": 61, "duration": 1101, "velocity": 80}, {"time": 105117, "pitch": 64, "duration": 1111, "velocity": 80}, {"time": 106319, "pitch": 61, "duration": 698, "velocity": 80}, {"time": 106319, "pitch": 66, "duration": 765, "velocity": 80}, {"time": 107039, "pitch": 54, "duration": 1588, "velocity": 80}, {"time": 107039, "pitch": 57, "duration": 1580, "velocity": 80}, {"time": 107039, "pitch": 61, "duration": 1596, "velocity": 80}, {"time": 107039, "pitch": 64, "duration": 949, "velocity": 80}, {"time": 108240, "pitch": 64, "duration": 704, "velocity": 80}, {"time": 108240, "pitch": 66, "duration": 607, "velocity": 80}, {"time": 108240, "pitch": 69, "duration": 705, "velocity": 80}, {"time": 108721, "pitch": 54, "duration": 180, "velocity": 80}, {"time": 108721, "pitch": 57, "duration": 187, "velocity": 80}, {"time": 108721, "pitch": 61, "duration": 242, "velocity": 80}, {"time": 108961, "pitch": 55, "duration": 1081, "velocity": 80}, {"time": 108961, "pitch": 59, "duration": 1152, "velocity": 80}, {"time": 108961, "pitch": 62, "duration": 1869, "velocity": 80}, {"time": 108961, "pitch": 66, "duration": 1106, "velocity": 80}, {"time": 110162, "pitch": 55, "duration": 715, "velocity": 80}, {"time": 110162, "pitch": 66, "duration": 705, "velocity": 80}, {"time": 110162, "pitch": 69, "duration": 712, "velocity": 80}, {"time": 110642, "pitch": 59, "duration": 221, "velocity": 80}, {"time": 110883, "pitch": 55, "duration": 1089, "velocity": 80}, {"time": 110883, "pitch": 59, "duration": 1146, "velocity": 80}, {"time": 110883, "pitch": 62, "duration": 1118, "velocity": 80}, {"time": 110883, "pitch": 66, "duration": 1580, "velocity": 80}, {"time": 110883, "pitch": 69, "duration": 1142, "velocity": 80}, {"time": 112077, "pitch": 55, "duration": 618, "velocity": 80}, {"time": 112077, "pitch": 59, "duration": 669, "velocity": 80}, {"time": 112077, "pitch": 62, "duration": 413, "velocity": 80}, {"time": 112077, "pitch": 71, "duration": 469, "velocity": 80}, {"time": 112558, "pitch": 62, "duration": 191, "velocity": 80}, {"time": 112558, "pitch": 66, "duration": 205, "velocity": 80}, {"time": 112558, "pitch": 69, "duration": 238, "velocity": 80}, {"time": 112798, "pitch": 54, "duration": 632, "velocity": 80}, {"time": 112798, "pitch": 57, "duration": 665, "velocity": 80}, {"time": 112798, "pitch": 61, "duration": 684, "velocity": 80}, {"time": 112798, "pitch": 64, "duration": 654, "velocity": 80}, {"time": 113518, "pitch": 54, "duration": 1072, "velocity": 80}, {"time": 113518, "pitch": 57, "duration": 1123, "velocity": 80}, {"time": 113518, "pitch": 61, "duration": 1119, "velocity": 80}, {"time": 113518, "pitch": 64, "duration": 1110, "velocity": 80}, {"time": 113518, "pitch": 66, "duration": 863, "velocity": 80}, {"time": 114479, "pitch": 66, "duration": 317, "velocity": 80}, {"time": 114479, "pitch": 69, "duration": 329, "velocity": 80}, {"time": 114720, "pitch": 54, "duration": 1616, "velocity": 80}, {"time": 114720, "pitch": 57, "duration": 1632, "velocity": 80}, {"time": 114720, "pitch": 61, "duration": 1621, "velocity": 80}, {"time": 114720, "pitch": 64, "duration": 1625, "velocity": 80}, {"time": 114960, "pitch": 66, "duration": 421, "velocity": 80}, {"time": 114960, "pitch": 69, "duration": 412, "velocity": 80}, {"time": 114960, "pitch": 73, "duration": 414, "velocity": 80}, {"time": 114960, "pitch": 76, "duration": 411, "velocity": 80}, {"time": 115440, "pitch": 66, "duration": 461, "velocity": 80}, {"time": 115440, "pitch": 69, "duration": 373, "velocity": 80}, {"time": 115440, "pitch": 73, "duration": 356, "velocity": 80}, {"time": 115440, "pitch": 76, "duration": 441, "velocity": 80}, {"time": 115921, "pitch": 66, "duration": 169, "velocity": 80}, {"time": 115921, "pitch": 69, "duration": 174, "velocity": 80}, {"time": 115921, "pitch": 73, "duration": 192, "velocity": 80}, {"time": 116161, "pitch": 66, "duration": 199, "velocity": 80}, {"time": 116161, "pitch": 69, "duration": 214, "velocity": 80}, {"time": 116401, "pitch": 54, "duration": 192, "velocity": 80}, {"time": 116401, "pitch": 57, "duration": 199, "velocity": 80}, {"time": 116401, "pitch": 61, "duration": 230, "velocity": 80}, {"time": 116401, "pitch": 64, "duration": 238, "velocity": 80}, {"time": 116401, "pitch": 66, "duration": 143, "velocity": 80}, {"time": 116401, "pitch": 69, "duration": 168, "velocity": 80}, {"time": 116641, "pitch": 55, "duration": 2113, "velocity": 52}, {"time": 116650, "pitch": 70, "duration": 2264, "velocity": 63}, {"time": 116654, "pitch": 58, "duration": 2070, "velocity": 57}, {"time": 116668, "pitch": 62, "duration": 2018, "velocity": 75}, {"time": 116680, "pitch": 74, "duration": 2237, "velocity": 74}, {"time": 116688, "pitch": 67, "duration": 2001, "velocity": 65}, {"time": 116691, "pitch": 81, "duration": 2191, "velocity": 87}, {"time": 118959, "pitch": 50, "duration": 1749, "velocity": 58}, {"time": 119000, "pitch": 54, "duration": 1743, "velocity": 72}, {"time": 119005, "pitch": 69, "duration": 1643, "velocity": 65}, {"time": 119043, "pitch": 73, "duration": 1617, "velocity": 63}, {"time": 119049, "pitch": 57, "duration": 1657, "velocity": 76}, {"time": 119068, "pitch": 76, "duration": 1581, "velocity": 59}, {"time": 119079, "pitch": 62, "duration": 1634, "velocity": 59}, {"time": 119260, "pitch": 78, "duration": 1412, "velocity": 63}, {"time": 119519, "pitch": 81, "duration": 1138, "velocity": 67}], "annotations": [{"time": 271, "annotation": {"number": 7, "value": 110}, "group": "control_change"}, {"time": 292, "annotation": {"number": 11, "value": 127}, "group": "control_change"}, {"time": 313, "annotation": {"number": 10, "value": 64}, "group": "control_change"}, {"time": 334, "annotation": {"number": 91, "value": 107}, "group": "control_change"}, {"time": 355, "annotation": {"number": 93, "value": 14}, "group": "control_change"}, {"time": 376, "annotation": {"number": 94, "value": 0}, "group": "control_change"}, {"time": 397, "annotation": {"number": 101, "value": 0}, "group": "control_change"}, {"time": 417, "annotation": {"number": 100, "value": 0}, "group": "control_change"}, {"time": 438, "annotation": {"number": 6, "value": 12}, "group": "control_change"}, {"time": 459, "annotation": {"number": 101, "value": 127}, "group": "control_change"}, {"time": 480, "annotation": {"number": 100, "value": 127}, "group": "control_change"}, {"time": 1563, "annotation": {"number": 64, "value": 127}, "group": "control_change"}, {"time": 5278, "annotation": {"number": 64, "value": 0}, "group": "control_change"}, {"time": 5520, "annotation": {"number": 64, "value": 127}, "group": "control_change"}, {"time": 9122, "annotation": {"number": 64, "value": 0}, "group": "control_change"}, {"time": 9241, "annotation": {"number": 64, "value": 127}, "group": "control_change"}, {"time": 12959, "annotation": {"number": 64, "value": 0}, "group": "control_change"}, {"time": 13200, "annotation": {"number": 64, "value": 127}, "group": "control_change"}, {"time": 16796, "annotation": {"number": 64, "value": 0}, "group": "control_change"}, {"time": 16917, "annotation": {"number": 64, "value": 127}, "group": "control_change"}, {"time": 20639, "annotation": {"number": 64, "value": 0}, "group": "control_change"}, {"time": 20880, "annotation": {"number": 64, "value": 127}, "group": "control_change"}, {"time": 24476, "annotation": {"number": 64, "value": 0}, "group": "control_change"}, {"time": 24597, "annotation": {"number": 64, "value": 127}, "group": "control_change"}, {"time": 28320, "annotation": {"number": 64, "value": 0}, "group": "control_change"}, {"time": 28561, "annotation": {"number": 64, "value": 127}, "group": "control_change"}, {"time": 32156, "annotation": {"number": 64, "value": 0}, "group": "control_change"}, {"time": 32278, "annotation": {"number": 64, "value": 127}, "group": "control_change"}, {"time": 36000, "annotation": {"number": 64, "value": 0}, "group": "control_change"}, {"time": 36241, "annotation": {"number": 64, "value": 127}, "group": "control_change"}, {"time": 39837, "annotation": {"number": 64, "value": 0}, "group": "control_change"}, {"time": 39958, "annotation": {"number": 64, "value": 127}, "group": "control_change"}, {"time": 43680, "annotation": {"number": 64, "value": 0}, "group": "control_change"}, {"time": 43921, "annotation": {"number": 64, "value": 127}, "group": "control_change"}, {"time": 47517, "annotation": {"number": 64, "value": 0}, "group": "control_change"}, {"time": 47518, "annotation": {"number": 64, "value": 0}, "group": "control_change"}, {"time": 47638, "annotation": {"number": 64, "value": 127}, "group": "control_change"}, {"time": 51361, "annotation": {"number": 64, "value": 0}, "group": "control_change"}, {"time": 51482, "annotation": {"number": 64, "value": 127}, "group": "control_change"}, {"time": 55197, "annotation": {"number": 64, "value": 0}, "group": "control_change"}, {"time": 55277, "annotation": {"number": 64, "value": 127}, "group": "control_change"}, {"time": 59041, "annotation": {"number": 64, "value": 0}, "group": "control_change"}, {"time": 59069, "annotation": {"number": 64, "value": 127}, "group": "control_change"}, {"time": 62878, "annotation": {"number": 64, "value": 0}, "group": "control_change"}, {"time": 62879, "annotation": {"number": 64, "value": 0}, "group": "control_change"}, {"time": 62909, "annotation": {"number": 64, "value": 127}, "group": "control_change"}, {"time": 66721, "annotation": {"number": 64, "value": 0}, "group": "control_change"}, {"time": 66722, "annotation": {"number": 64, "value": 0}, "group": "control_change"}, {"time": 70679, "annotation": {"number": 64, "value": 127}, "group": "control_change"}, {"time": 74402, "annotation": {"number": 64, "value": 0}, "group": "control_change"}, {"time": 74643, "annotation": {"number": 64, "value": 127}, "group": "control_change"}, {"time": 78238, "annotation": {"number": 64, "value": 0}, "group": "control_change"}, {"time": 78360, "annotation": {"number": 64, "value": 127}, "group": "control_change"}, {"time": 82082, "annotation": {"number": 64, "value": 0}, "group": "control_change"}, {"time": 82320, "annotation": {"number": 64, "value": 127}, "group": "control_change"}, {"time": 85919, "annotation": {"number": 64, "value": 0}, "group": "control_change"}, {"time": 86040, "annotation": {"number": 64, "value": 127}, "group": "control_change"}, {"time": 89756, "annotation": {"number": 64, "value": 0}, "group": "control_change"}, {"time": 89997, "annotation": {"number": 64, "value": 127}, "group": "control_change"}, {"time": 93599, "annotation": {"number": 64, "value": 0}, "group": "control_change"}, {"time": 93720, "annotation": {"number": 64, "value": 127}, "group": "control_change"}, {"time": 97436, "annotation": {"number": 64, "value": 0}, "group": "control_change"}, {"time": 97677, "annotation": {"number": 64, "value": 127}, "group": "control_change"}, {"time": 101280, "annotation": {"number": 64, "value": 0}, "group": "control_change"}, {"time": 101401, "annotation": {"number": 64, "value": 127}, "group": "control_change"}, {"time": 105116, "annotation": {"number": 64, "value": 0}, "group": "control_change"}, {"time": 105358, "annotation": {"number": 64, "value": 127}, "group": "control_change"}, {"time": 108960, "annotation": {"number": 64, "value": 0}, "group": "control_change"}, {"time": 109081, "annotation": {"number": 64, "value": 127}, "group": "control_change"}, {"time": 112797, "annotation": {"number": 64, "value": 0}, "group": "control_change"}, {"time": 113038, "annotation": {"number": 64, "value": 127}, "group": "control_change"}, {"time": 116640, "annotation": {"number": 64, "value": 0}, "group": "control_change"}, {"time": 116641, "annotation": {"number": 64, "value": 0}, "group": "control_change"}]}, {"program": 0, "is_drum": false, "name": "SYNTHBASS", "annotations": [{"time": 209, "annotation": {"number": 0, "value": 0}, "group": "control_change"}, {"time": 230, "annotation": {"number": 32, "value": 2}, "group": "control_change"}]}, {"program": 39, "is_drum": false, "name": "SYNTHBASS", "notes": [{"time": 1443, "pitch": 31, "duration": 171, "velocity": 104}, {"time": 1683, "pitch": 31, "duration": 233, "velocity": 98}, {"time": 2160, "pitch": 38, "duration": 158, "velocity": 75}, {"time": 2318, "pitch": 40, "duration": 79, "velocity": 64}, {"time": 2397, "pitch": 38, "duration": 200, "velocity": 89}, {"time": 2637, "pitch": 31, "duration": 437, "velocity": 80}, {"time": 3358, "pitch": 31, "duration": 171, "velocity": 90}, {"time": 3598, "pitch": 31, "duration": 211, "velocity": 100}, {"time": 4078, "pitch": 38, "duration": 161, "velocity": 79}, {"time": 4239, "pitch": 40, "duration": 80, "velocity": 72}, {"time": 4319, "pitch": 43, "duration": 240, "velocity": 100}, {"time": 4559, "pitch": 45, "duration": 220, "velocity": 92}, {"time": 4799, "pitch": 43, "duration": 234, "velocity": 87}, {"time": 5039, "pitch": 38, "duration": 165, "velocity": 85}, {"time": 5279, "pitch": 26, "duration": 146, "velocity": 98}, {"time": 5520, "pitch": 26, "duration": 320, "velocity": 100}, {"time": 6000, "pitch": 38, "duration": 160, "velocity": 92}, {"time": 6160, "pitch": 40, "duration": 80, "velocity": 75}, {"time": 6240, "pitch": 38, "duration": 321, "velocity": 111}, {"time": 6881, "pitch": 31, "duration": 80, "velocity": 75}, {"time": 6961, "pitch": 33, "duration": 151, "velocity": 64}, {"time": 7201, "pitch": 26, "duration": 167, "velocity": 111}, {"time": 7441, "pitch": 26, "duration": 235, "velocity": 108}, {"time": 7922, "pitch": 38, "duration": 158, "velocity": 100}, {"time": 8082, "pitch": 40, "duration": 72, "velocity": 70}, {"time": 8162, "pitch": 38, "duration": 200, "velocity": 87}, {"time": 8402, "pitch": 31, "duration": 230, "velocity": 95}, {"time": 8642, "pitch": 33, "duration": 218, "velocity": 111}, {"time": 8883, "pitch": 26, "duration": 189, "velocity": 100}, {"time": 9123, "pitch": 31, "duration": 169, "velocity": 104}, {"time": 9360, "pitch": 31, "duration": 230, "velocity": 98}, {"time": 9837, "pitch": 38, "duration": 160, "velocity": 75}, {"time": 9997, "pitch": 40, "duration": 80, "velocity": 64}, {"time": 10077, "pitch": 38, "duration": 200, "velocity": 89}, {"time": 10317, "pitch": 31, "duration": 437, "velocity": 80}, {"time": 11038, "pitch": 31, "duration": 171, "velocity": 90}, {"time": 11278, "pitch": 31, "duration": 212, "velocity": 100}, {"time": 11759, "pitch": 38, "duration": 160, "velocity": 79}, {"time": 11919, "pitch": 40, "duration": 80, "velocity": 72}, {"time": 11999, "pitch": 43, "duration": 240, "velocity": 100}, {"time": 12239, "pitch": 45, "duration": 220, "velocity": 92}, {"time": 12479, "pitch": 43, "duration": 235, "velocity": 87}, {"time": 12720, "pitch": 38, "duration": 165, "velocity": 85}, {"time": 12960, "pitch": 26, "duration": 145, "velocity": 98}, {"time": 13200, "pitch": 26, "duration": 320, "velocity": 100}, {"time": 13680, "pitch": 38, "duration": 161, "velocity": 92}, {"time": 13841, "pitch": 40, "duration": 80, "velocity": 75}, {"time": 13921, "pitch": 38, "duration": 320, "velocity": 111}, {"time": 14561, "pitch": 31, "duration": 80, "velocity": 75}, {"time": 14641, "pitch": 33, "duration": 151, "velocity": 64}, {"time": 14882, "pitch": 26, "duration": 167, "velocity": 111}, {"time": 15122, "pitch": 26, "duration": 234, "velocity": 108}, {"time": 15602, "pitch": 38, "duration": 158, "velocity": 100}, {"time": 15762, "pitch": 40, "duration": 72, "velocity": 70}, {"time": 15842, "pitch": 38, "duration": 201, "velocity": 87}, {"time": 16083, "pitch": 31, "duration": 230, "velocity": 95}, {"time": 16323, "pitch": 33, "duration": 214, "velocity": 111}, {"time": 16560, "pitch": 26, "duration": 186, "velocity": 100}, {"time": 16797, "pitch": 31, "duration": 171, "velocity": 104}, {"time": 17037, "pitch": 31, "duration": 233, "velocity": 98}, {"time": 17517, "pitch": 38, "duration": 161, "velocity": 75}, {"time": 17678, "pitch": 40, "duration": 80, "velocity": 64}, {"time": 17758, "pitch": 38, "duration": 200, "velocity": 89}, {"time": 17998, "pitch": 31, "duration": 436, "velocity": 80}, {"time": 18718, "pitch": 31, "duration": 172, "velocity": 90}, {"time": 18959, "pitch": 31, "duration": 211, "velocity": 100}, {"time": 19439, "pitch": 38, "duration": 160, "velocity": 79}, {"time": 19599, "pitch": 40, "duration": 80, "velocity": 72}, {"time": 19679, "pitch": 43, "duration": 241, "velocity": 100}, {"time": 19920, "pitch": 45, "duration": 220, "velocity": 92}, {"time": 20160, "pitch": 43, "duration": 234, "velocity": 87}, {"time": 20400, "pitch": 38, "duration": 165, "velocity": 85}, {"time": 20640, "pitch": 26, "duration": 145, "velocity": 98}, {"time": 20880, "pitch": 26, "duration": 321, "velocity": 100}, {"time": 21361, "pitch": 38, "duration": 160, "velocity": 92}, {"time": 21521, "pitch": 40, "duration": 80, "velocity": 75}, {"time": 21601, "pitch": 38, "duration": 320, "velocity": 111}, {"time": 22242, "pitch": 31, "duration": 80, "velocity": 75}, {"time": 22322, "pitch": 33, "duration": 151, "velocity": 64}, {"time": 22562, "pitch": 26, "duration": 167, "velocity": 111}, {"time": 22802, "pitch": 26, "duration": 234, "velocity": 108}, {"time": 23283, "pitch": 38, "duration": 158, "velocity": 100}, {"time": 23443, "pitch": 40, "duration": 72, "velocity": 70}, {"time": 23523, "pitch": 38, "duration": 200, "velocity": 87}, {"time": 23763, "pitch": 31, "duration": 230, "velocity": 95}, {"time": 24003, "pitch": 33, "duration": 214, "velocity": 111}, {"time": 24240, "pitch": 26, "duration": 187, "velocity": 100}, {"time": 24477, "pitch": 31, "duration": 171, "velocity": 104}, {"time": 24717, "pitch": 31, "duration": 234, "velocity": 98}, {"time": 25198, "pitch": 38, "duration": 160, "velocity": 75}, {"time": 25358, "pitch": 40, "duration": 80, "velocity": 64}, {"time": 25438, "pitch": 38, "duration": 200, "velocity": 89}, {"time": 25678, "pitch": 31, "duration": 437, "velocity": 80}, {"time": 26399, "pitch": 31, "duration": 171, "velocity": 90}, {"time": 26639, "pitch": 31, "duration": 211, "velocity": 100}, {"time": 27119, "pitch": 38, "duration": 161, "velocity": 79}, {"time": 27280, "pitch": 40, "duration": 80, "velocity": 72}, {"time": 27360, "pitch": 43, "duration": 240, "velocity": 100}, {"time": 27600, "pitch": 45, "duration": 220, "velocity": 92}, {"time": 27840, "pitch": 43, "duration": 234, "velocity": 87}, {"time": 28080, "pitch": 38, "duration": 165, "velocity": 85}, {"time": 28321, "pitch": 26, "duration": 145, "velocity": 98}, {"time": 28561, "pitch": 26, "duration": 320, "velocity": 100}, {"time": 29041, "pitch": 38, "duration": 160, "velocity": 92}, {"time": 29201, "pitch": 40, "duration": 80, "velocity": 75}, {"time": 29281, "pitch": 38, "duration": 321, "velocity": 111}, {"time": 29922, "pitch": 31, "duration": 80, "velocity": 75}, {"time": 30002, "pitch": 33, "duration": 151, "velocity": 64}, {"time": 30242, "pitch": 26, "duration": 167, "velocity": 111}, {"time": 30482, "pitch": 26, "duration": 235, "velocity": 108}, {"time": 30963, "pitch": 38, "duration": 158, "velocity": 100}, {"time": 31123, "pitch": 40, "duration": 72, "velocity": 70}, {"time": 31203, "pitch": 38, "duration": 198, "velocity": 87}, {"time": 31440, "pitch": 31, "duration": 227, "velocity": 95}, {"time": 31677, "pitch": 33, "duration": 217, "velocity": 111}, {"time": 31917, "pitch": 26, "duration": 189, "velocity": 100}, {"time": 32157, "pitch": 31, "duration": 172, "velocity": 104}, {"time": 32398, "pitch": 31, "duration": 233, "velocity": 98}, {"time": 32878, "pitch": 38, "duration": 160, "velocity": 75}, {"time": 33038, "pitch": 40, "duration": 80, "velocity": 64}, {"time": 33118, "pitch": 38, "duration": 200, "velocity": 89}, {"time": 33359, "pitch": 31, "duration": 436, "velocity": 80}, {"time": 34079, "pitch": 31, "duration": 171, "velocity": 90}, {"time": 34319, "pitch": 31, "duration": 212, "velocity": 100}, {"time": 34800, "pitch": 38, "duration": 160, "velocity": 79}, {"time": 34960, "pitch": 40, "duration": 80, "velocity": 72}, {"time": 35040, "pitch": 43, "duration": 240, "velocity": 100}, {"time": 35280, "pitch": 45, "duration": 220, "velocity": 92}, {"time": 35520, "pitch": 43, "duration": 235, "velocity": 87}, {"time": 35761, "pitch": 38, "duration": 165, "velocity": 85}, {"time": 36001, "pitch": 26, "duration": 145, "velocity": 98}, {"time": 36241, "pitch": 26, "duration": 320, "velocity": 100}, {"time": 36721, "pitch": 38, "duration": 161, "velocity": 92}, {"time": 36882, "pitch": 40, "duration": 80, "velocity": 75}, {"time": 36962, "pitch": 38, "duration": 320, "velocity": 111}, {"time": 37602, "pitch": 31, "duration": 80, "velocity": 75}, {"time": 37682, "pitch": 33, "duration": 151, "velocity": 64}, {"time": 37923, "pitch": 26, "duration": 167, "velocity": 111}, {"time": 38163, "pitch": 26, "duration": 234, "velocity": 108}, {"time": 38640, "pitch": 38, "duration": 156, "velocity": 100}, {"time": 38798, "pitch": 40, "duration": 71, "velocity": 70}, {"time": 38877, "pitch": 38, "duration": 200, "velocity": 87}, {"time": 39117, "pitch": 31, "duration": 230, "velocity": 95}, {"time": 39357, "pitch": 33, "duration": 218, "velocity": 111}, {"time": 39598, "pitch": 26, "duration": 189, "velocity": 100}, {"time": 39838, "pitch": 31, "duration": 171, "velocity": 104}, {"time": 40078, "pitch": 31, "duration": 233, "velocity": 98}, {"time": 40558, "pitch": 38, "duration": 161, "velocity": 75}, {"time": 40719, "pitch": 40, "duration": 80, "velocity": 64}, {"time": 40799, "pitch": 38, "duration": 200, "velocity": 89}, {"time": 41039, "pitch": 31, "duration": 436, "velocity": 80}, {"time": 41759, "pitch": 31, "duration": 172, "velocity": 90}, {"time": 42000, "pitch": 31, "duration": 211, "velocity": 100}, {"time": 42480, "pitch": 38, "duration": 160, "velocity": 79}, {"time": 42640, "pitch": 40, "duration": 80, "velocity": 72}, {"time": 42720, "pitch": 43, "duration": 241, "velocity": 100}, {"time": 42961, "pitch": 45, "duration": 220, "velocity": 92}, {"time": 43201, "pitch": 43, "duration": 234, "velocity": 87}, {"time": 43441, "pitch": 38, "duration": 165, "velocity": 85}, {"time": 43681, "pitch": 26, "duration": 145, "velocity": 98}, {"time": 43921, "pitch": 26, "duration": 321, "velocity": 100}, {"time": 44402, "pitch": 38, "duration": 160, "velocity": 92}, {"time": 44562, "pitch": 40, "duration": 80, "velocity": 75}, {"time": 44642, "pitch": 38, "duration": 320, "velocity": 111}, {"time": 45283, "pitch": 31, "duration": 80, "velocity": 75}, {"time": 45363, "pitch": 33, "duration": 151, "velocity": 64}, {"time": 45603, "pitch": 26, "duration": 165, "velocity": 111}, {"time": 45840, "pitch": 26, "duration": 231, "velocity": 108}, {"time": 46317, "pitch": 38, "duration": 158, "velocity": 100}, {"time": 46477, "pitch": 40, "duration": 72, "velocity": 70}, {"time": 46557, "pitch": 38, "duration": 200, "velocity": 87}, {"time": 46797, "pitch": 31, "duration": 231, "velocity": 95}, {"time": 47038, "pitch": 33, "duration": 217, "velocity": 111}, {"time": 47278, "pitch": 26, "duration": 189, "velocity": 100}, {"time": 47518, "pitch": 36, "duration": 171, "velocity": 104}, {"time": 47758, "pitch": 36, "duration": 234, "velocity": 98}, {"time": 48239, "pitch": 41, "duration": 160, "velocity": 75}, {"time": 48399, "pitch": 42, "duration": 80, "velocity": 64}, {"time": 48479, "pitch": 43, "duration": 200, "velocity": 89}, {"time": 48719, "pitch": 36, "duration": 437, "velocity": 80}, {"time": 49440, "pitch": 36, "duration": 171, "velocity": 90}, {"time": 49680, "pitch": 36, "duration": 211, "velocity": 100}, {"time": 50160, "pitch": 48, "duration": 161, "velocity": 79}, {"time": 50321, "pitch": 43, "duration": 80, "velocity": 72}, {"time": 50401, "pitch": 43, "duration": 240, "velocity": 100}, {"time": 50641, "pitch": 36, "duration": 220, "velocity": 92}, {"time": 50881, "pitch": 38, "duration": 234, "velocity": 87}, {"time": 51121, "pitch": 40, "duration": 165, "velocity": 85}, {"time": 51362, "pitch": 35, "duration": 145, "velocity": 98}, {"time": 51602, "pitch": 35, "duration": 320, "velocity": 100}, {"time": 52082, "pitch": 42, "duration": 160, "velocity": 92}, {"time": 52242, "pitch": 38, "duration": 80, "velocity": 75}, {"time": 52322, "pitch": 35, "duration": 321, "velocity": 111}, {"time": 52961, "pitch": 42, "duration": 79, "velocity": 75}, {"time": 53040, "pitch": 38, "duration": 149, "velocity": 64}, {"time": 53277, "pitch": 35, "duration": 167, "velocity": 111}, {"time": 53517, "pitch": 35, "duration": 234, "velocity": 108}, {"time": 53997, "pitch": 45, "duration": 159, "velocity": 100}, {"time": 54158, "pitch": 47, "duration": 72, "velocity": 70}, {"time": 54238, "pitch": 42, "duration": 200, "velocity": 87}, {"time": 54478, "pitch": 38, "duration": 230, "velocity": 95}, {"time": 54718, "pitch": 40, "duration": 217, "velocity": 111}, {"time": 54958, "pitch": 35, "duration": 189, "velocity": 100}, {"time": 55198, "pitch": 36, "duration": 172, "velocity": 104}, {"time": 55439, "pitch": 36, "duration": 233, "velocity": 98}, {"time": 55919, "pitch": 41, "duration": 160, "velocity": 75}, {"time": 56079, "pitch": 42, "duration": 80, "velocity": 64}, {"time": 56159, "pitch": 43, "duration": 201, "velocity": 89}, {"time": 56400, "pitch": 36, "duration": 436, "velocity": 80}, {"time": 57120, "pitch": 36, "duration": 171, "velocity": 90}, {"time": 57360, "pitch": 36, "duration": 212, "velocity": 100}, {"time": 57841, "pitch": 48, "duration": 160, "velocity": 79}, {"time": 58001, "pitch": 43, "duration": 80, "velocity": 72}, {"time": 58081, "pitch": 43, "duration": 240, "velocity": 100}, {"time": 58321, "pitch": 36, "duration": 220, "velocity": 92}, {"time": 58561, "pitch": 38, "duration": 235, "velocity": 87}, {"time": 58802, "pitch": 40, "duration": 165, "velocity": 85}, {"time": 59042, "pitch": 35, "duration": 145, "velocity": 98}, {"time": 59282, "pitch": 35, "duration": 320, "velocity": 100}, {"time": 59763, "pitch": 42, "duration": 160, "velocity": 92}, {"time": 59923, "pitch": 38, "duration": 80, "velocity": 75}, {"time": 60003, "pitch": 35, "duration": 320, "velocity": 111}, {"time": 60641, "pitch": 42, "duration": 79, "velocity": 75}, {"time": 60720, "pitch": 38, "duration": 149, "velocity": 64}, {"time": 60957, "pitch": 35, "duration": 167, "velocity": 111}, {"time": 61197, "pitch": 35, "duration": 235, "velocity": 108}, {"time": 61678, "pitch": 45, "duration": 158, "velocity": 100}, {"time": 61838, "pitch": 47, "duration": 72, "velocity": 70}, {"time": 61918, "pitch": 42, "duration": 200, "velocity": 87}, {"time": 62158, "pitch": 38, "duration": 230, "velocity": 95}, {"time": 62398, "pitch": 40, "duration": 218, "velocity": 111}, {"time": 62639, "pitch": 35, "duration": 189, "velocity": 100}, {"time": 62879, "pitch": 33, "duration": 171, "velocity": 104}, {"time": 63119, "pitch": 33, "duration": 233, "velocity": 98}, {"time": 63599, "pitch": 45, "duration": 161, "velocity": 75}, {"time": 63760, "pitch": 40, "duration": 80, "velocity": 64}, {"time": 63840, "pitch": 40, "duration": 200, "velocity": 89}, {"time": 64080, "pitch": 33, "duration": 436, "velocity": 80}, {"time": 64801, "pitch": 36, "duration": 171, "velocity": 90}, {"time": 65041, "pitch": 36, "duration": 211, "velocity": 100}, {"time": 65521, "pitch": 36, "duration": 160, "velocity": 79}, {"time": 65681, "pitch": 33, "duration": 80, "velocity": 72}, {"time": 65761, "pitch": 33, "duration": 241, "velocity": 100}, {"time": 66002, "pitch": 35, "duration": 220, "velocity": 92}, {"time": 66242, "pitch": 36, "duration": 234, "velocity": 87}, {"time": 66482, "pitch": 36, "duration": 165, "velocity": 85}, {"time": 66722, "pitch": 33, "duration": 206, "velocity": 114}, {"time": 66962, "pitch": 35, "duration": 179, "velocity": 122}, {"time": 67203, "pitch": 36, "duration": 171, "velocity": 112}, {"time": 67920, "pitch": 38, "duration": 1997, "velocity": 125}, {"time": 70079, "pitch": 37, "duration": 460, "velocity": 121}, {"time": 70559, "pitch": 31, "duration": 171, "velocity": 104}, {"time": 70799, "pitch": 31, "duration": 234, "velocity": 98}, {"time": 71280, "pitch": 38, "duration": 160, "velocity": 75}, {"time": 71440, "pitch": 40, "duration": 80, "velocity": 64}, {"time": 71520, "pitch": 38, "duration": 200, "velocity": 89}, {"time": 71760, "pitch": 31, "duration": 437, "velocity": 80}, {"time": 72481, "pitch": 31, "duration": 171, "velocity": 90}, {"time": 72721, "pitch": 31, "duration": 211, "velocity": 100}, {"time": 73202, "pitch": 38, "duration": 160, "velocity": 79}, {"time": 73362, "pitch": 40, "duration": 80, "velocity": 72}, {"time": 73442, "pitch": 43, "duration": 240, "velocity": 100}, {"time": 73682, "pitch": 45, "duration": 220, "velocity": 92}, {"time": 73922, "pitch": 43, "duration": 234, "velocity": 87}, {"time": 74162, "pitch": 38, "duration": 166, "velocity": 85}, {"time": 74403, "pitch": 26, "duration": 145, "velocity": 98}, {"time": 74643, "pitch": 26, "duration": 319, "velocity": 100}, {"time": 75120, "pitch": 38, "duration": 158, "velocity": 92}, {"time": 75278, "pitch": 40, "duration": 79, "velocity": 75}, {"time": 75357, "pitch": 38, "duration": 320, "velocity": 111}, {"time": 75998, "pitch": 31, "duration": 80, "velocity": 75}, {"time": 76078, "pitch": 33, "duration": 151, "velocity": 64}, {"time": 76318, "pitch": 26, "duration": 167, "velocity": 111}, {"time": 76558, "pitch": 26, "duration": 234, "velocity": 108}, {"time": 77038, "pitch": 38, "duration": 159, "velocity": 100}, {"time": 77199, "pitch": 40, "duration": 72, "velocity": 70}, {"time": 77279, "pitch": 38, "duration": 200, "velocity": 87}, {"time": 77519, "pitch": 31, "duration": 230, "velocity": 95}, {"time": 77759, "pitch": 33, "duration": 217, "velocity": 111}, {"time": 77999, "pitch": 26, "duration": 189, "velocity": 100}, {"time": 78239, "pitch": 31, "duration": 172, "velocity": 104}, {"time": 78480, "pitch": 31, "duration": 233, "velocity": 98}, {"time": 78960, "pitch": 38, "duration": 160, "velocity": 75}, {"time": 79120, "pitch": 40, "duration": 80, "velocity": 64}, {"time": 79200, "pitch": 38, "duration": 201, "velocity": 89}, {"time": 79441, "pitch": 31, "duration": 436, "velocity": 80}, {"time": 80161, "pitch": 31, "duration": 171, "velocity": 90}, {"time": 80401, "pitch": 31, "duration": 212, "velocity": 100}, {"time": 80882, "pitch": 38, "duration": 160, "velocity": 79}, {"time": 81042, "pitch": 40, "duration": 80, "velocity": 72}, {"time": 81122, "pitch": 43, "duration": 240, "velocity": 100}, {"time": 81362, "pitch": 45, "duration": 220, "velocity": 92}, {"time": 81602, "pitch": 43, "duration": 235, "velocity": 87}, {"time": 81843, "pitch": 38, "duration": 165, "velocity": 85}, {"time": 82083, "pitch": 26, "duration": 143, "velocity": 98}, {"time": 82320, "pitch": 26, "duration": 317, "velocity": 100}, {"time": 82797, "pitch": 38, "duration": 160, "velocity": 92}, {"time": 82957, "pitch": 40, "duration": 80, "velocity": 75}, {"time": 83037, "pitch": 38, "duration": 321, "velocity": 111}, {"time": 83678, "pitch": 31, "duration": 80, "velocity": 75}, {"time": 83758, "pitch": 33, "duration": 151, "velocity": 64}, {"time": 83998, "pitch": 26, "duration": 167, "velocity": 111}, {"time": 84238, "pitch": 26, "duration": 235, "velocity": 108}, {"time": 84719, "pitch": 38, "duration": 158, "velocity": 100}, {"time": 84879, "pitch": 40, "duration": 72, "velocity": 70}, {"time": 84959, "pitch": 38, "duration": 200, "velocity": 87}, {"time": 85199, "pitch": 31, "duration": 230, "velocity": 95}, {"time": 85439, "pitch": 33, "duration": 218, "velocity": 111}, {"time": 85680, "pitch": 26, "duration": 189, "velocity": 100}, {"time": 85920, "pitch": 31, "duration": 171, "velocity": 104}, {"time": 86160, "pitch": 31, "duration": 233, "velocity": 98}, {"time": 86640, "pitch": 38, "duration": 161, "velocity": 75}, {"time": 86801, "pitch": 40, "duration": 80, "velocity": 64}, {"time": 86881, "pitch": 38, "duration": 200, "velocity": 89}, {"time": 87121, "pitch": 31, "duration": 436, "velocity": 80}, {"time": 87842, "pitch": 31, "duration": 171, "velocity": 90}, {"time": 88082, "pitch": 31, "duration": 211, "velocity": 100}, {"time": 88562, "pitch": 38, "duration": 160, "velocity": 79}, {"time": 88722, "pitch": 40, "duration": 80, "velocity": 72}, {"time": 88802, "pitch": 43, "duration": 241, "velocity": 100}, {"time": 89043, "pitch": 45, "duration": 220, "velocity": 92}, {"time": 89283, "pitch": 43, "duration": 231, "velocity": 87}, {"time": 89520, "pitch": 38, "duration": 163, "velocity": 85}, {"time": 89757, "pitch": 26, "duration": 145, "velocity": 98}, {"time": 89997, "pitch": 26, "duration": 320, "velocity": 100}, {"time": 90477, "pitch": 38, "duration": 161, "velocity": 92}, {"time": 90638, "pitch": 40, "duration": 80, "velocity": 75}, {"time": 90718, "pitch": 38, "duration": 320, "velocity": 111}, {"time": 91358, "pitch": 31, "duration": 80, "velocity": 75}, {"time": 91438, "pitch": 33, "duration": 151, "velocity": 64}, {"time": 91678, "pitch": 26, "duration": 168, "velocity": 111}, {"time": 91919, "pitch": 26, "duration": 234, "velocity": 108}, {"time": 92399, "pitch": 38, "duration": 158, "velocity": 100}, {"time": 92559, "pitch": 40, "duration": 72, "velocity": 70}, {"time": 92639, "pitch": 38, "duration": 201, "velocity": 87}, {"time": 92880, "pitch": 31, "duration": 230, "velocity": 95}, {"time": 93120, "pitch": 33, "duration": 217, "velocity": 111}, {"time": 93360, "pitch": 26, "duration": 189, "velocity": 100}, {"time": 93600, "pitch": 31, "duration": 171, "velocity": 104}, {"time": 93840, "pitch": 31, "duration": 234, "velocity": 98}, {"time": 94321, "pitch": 38, "duration": 160, "velocity": 75}, {"time": 94481, "pitch": 40, "duration": 80, "velocity": 64}, {"time": 94561, "pitch": 38, "duration": 200, "velocity": 89}, {"time": 94801, "pitch": 31, "duration": 437, "velocity": 80}, {"time": 95522, "pitch": 31, "duration": 171, "velocity": 90}, {"time": 95762, "pitch": 31, "duration": 211, "velocity": 100}, {"time": 96243, "pitch": 38, "duration": 160, "velocity": 79}, {"time": 96403, "pitch": 40, "duration": 80, "velocity": 72}, {"time": 96483, "pitch": 43, "duration": 240, "velocity": 100}, {"time": 96723, "pitch": 45, "duration": 220, "velocity": 92}, {"time": 96963, "pitch": 43, "duration": 231, "velocity": 87}, {"time": 97200, "pitch": 38, "duration": 163, "velocity": 85}, {"time": 97437, "pitch": 26, "duration": 145, "velocity": 98}, {"time": 97677, "pitch": 26, "duration": 321, "velocity": 100}, {"time": 98158, "pitch": 38, "duration": 160, "velocity": 92}, {"time": 98318, "pitch": 40, "duration": 80, "velocity": 75}, {"time": 98398, "pitch": 38, "duration": 320, "velocity": 111}, {"time": 99039, "pitch": 31, "duration": 80, "velocity": 75}, {"time": 99119, "pitch": 33, "duration": 151, "velocity": 64}, {"time": 99359, "pitch": 26, "duration": 167, "velocity": 111}, {"time": 99599, "pitch": 26, "duration": 234, "velocity": 108}, {"time": 100079, "pitch": 38, "duration": 159, "velocity": 100}, {"time": 100240, "pitch": 40, "duration": 72, "velocity": 70}, {"time": 100320, "pitch": 38, "duration": 200, "velocity": 87}, {"time": 100560, "pitch": 31, "duration": 230, "velocity": 95}, {"time": 100800, "pitch": 33, "duration": 217, "velocity": 111}, {"time": 101040, "pitch": 26, "duration": 189, "velocity": 100}, {"time": 101281, "pitch": 31, "duration": 171, "velocity": 104}, {"time": 101521, "pitch": 31, "duration": 233, "velocity": 98}, {"time": 102001, "pitch": 38, "duration": 160, "velocity": 75}, {"time": 102161, "pitch": 40, "duration": 80, "velocity": 64}, {"time": 102241, "pitch": 38, "duration": 201, "velocity": 89}, {"time": 102482, "pitch": 31, "duration": 436, "velocity": 80}, {"time": 103202, "pitch": 31, "duration": 171, "velocity": 90}, {"time": 103442, "pitch": 31, "duration": 212, "velocity": 100}, {"time": 103923, "pitch": 38, "duration": 160, "velocity": 79}, {"time": 104083, "pitch": 40, "duration": 80, "velocity": 72}, {"time": 104163, "pitch": 43, "duration": 237, "velocity": 100}, {"time": 104400, "pitch": 45, "duration": 217, "velocity": 92}, {"time": 104637, "pitch": 43, "duration": 234, "velocity": 87}, {"time": 104877, "pitch": 38, "duration": 165, "velocity": 85}, {"time": 105117, "pitch": 26, "duration": 146, "velocity": 98}, {"time": 105358, "pitch": 26, "duration": 320, "velocity": 100}, {"time": 105838, "pitch": 38, "duration": 160, "velocity": 92}, {"time": 105998, "pitch": 40, "duration": 80, "velocity": 75}, {"time": 106078, "pitch": 38, "duration": 321, "velocity": 111}, {"time": 106719, "pitch": 31, "duration": 80, "velocity": 75}, {"time": 106799, "pitch": 33, "duration": 151, "velocity": 64}, {"time": 107039, "pitch": 26, "duration": 167, "velocity": 111}, {"time": 107279, "pitch": 26, "duration": 235, "velocity": 108}, {"time": 107760, "pitch": 38, "duration": 158, "velocity": 100}, {"time": 107920, "pitch": 40, "duration": 72, "velocity": 70}, {"time": 108000, "pitch": 38, "duration": 200, "velocity": 87}, {"time": 108240, "pitch": 31, "duration": 230, "velocity": 95}, {"time": 108480, "pitch": 33, "duration": 218, "velocity": 111}, {"time": 108721, "pitch": 26, "duration": 189, "velocity": 100}, {"time": 108961, "pitch": 31, "duration": 171, "velocity": 104}, {"time": 109201, "pitch": 31, "duration": 233, "velocity": 98}, {"time": 109682, "pitch": 38, "duration": 160, "velocity": 75}, {"time": 109842, "pitch": 40, "duration": 80, "velocity": 64}, {"time": 109922, "pitch": 38, "duration": 200, "velocity": 89}, {"time": 110162, "pitch": 31, "duration": 436, "velocity": 80}, {"time": 110883, "pitch": 31, "duration": 171, "velocity": 90}, {"time": 111123, "pitch": 31, "duration": 211, "velocity": 100}, {"time": 111600, "pitch": 38, "duration": 158, "velocity": 79}, {"time": 111758, "pitch": 40, "duration": 79, "velocity": 72}, {"time": 111837, "pitch": 43, "duration": 240, "velocity": 100}, {"time": 112077, "pitch": 45, "duration": 220, "velocity": 92}, {"time": 112317, "pitch": 43, "duration": 235, "velocity": 87}, {"time": 112558, "pitch": 38, "duration": 165, "velocity": 85}, {"time": 112798, "pitch": 26, "duration": 145, "velocity": 98}, {"time": 113038, "pitch": 26, "duration": 320, "velocity": 100}, {"time": 113518, "pitch": 38, "duration": 161, "velocity": 92}, {"time": 113679, "pitch": 40, "duration": 80, "velocity": 75}, {"time": 113759, "pitch": 38, "duration": 320, "velocity": 111}, {"time": 114399, "pitch": 31, "duration": 80, "velocity": 75}, {"time": 114479, "pitch": 33, "duration": 151, "velocity": 64}, {"time": 114720, "pitch": 26, "duration": 167, "velocity": 111}, {"time": 114960, "pitch": 26, "duration": 234, "velocity": 108}, {"time": 115440, "pitch": 38, "duration": 158, "velocity": 100}, {"time": 115600, "pitch": 40, "duration": 72, "velocity": 70}, {"time": 115680, "pitch": 38, "duration": 201, "velocity": 87}, {"time": 115921, "pitch": 31, "duration": 230, "velocity": 95}, {"time": 116161, "pitch": 33, "duration": 217, "velocity": 111}, {"time": 116401, "pitch": 26, "duration": 189, "velocity": 100}, {"time": 116641, "pitch": 38, "duration": 2409, "velocity": 93}, {"time": 119060, "pitch": 26, "duration": 1418, "velocity": 80}], "annotations": [{"time": 271, "annotation": {"number": 7, "value": 106}, "group": "control_change"}, {"time": 292, "annotation": {"number": 11, "value": 127}, "group": "control_change"}, {"time": 313, "annotation": {"number": 10, "value": 64}, "group": "control_change"}, {"time": 334, "annotation": {"number": 91, "value": 6}, "group": "control_change"}, {"time": 355, "annotation": {"number": 93, "value": 0}, "group": "control_change"}, {"time": 376, "annotation": {"number": 94, "value": 0}, "group": "control_change"}, {"time": 397, "annotation": {"number": 101, "value": 0}, "group": "control_change"}, {"time": 417, "annotation": {"number": 100, "value": 0}, "group": "control_change"}, {"time": 438, "annotation": {"number": 6, "value": 12}, "group": "control_change"}, {"time": 459, "annotation": {"number": 101, "value": 127}, "group": "control_change"}, {"time": 480, "annotation": {"number": 100, "value": 127}, "group": "control_change"}]}, {"program": 0, "is_drum": false, "name": "SWEEP SYNTH", "annotations": [{"time": 209, "annotation": {"number": 0, "value": 0}, "group": "control_change"}, {"time": 230, "annotation": {"number": 32, "value": 2}, "group": "control_change"}]}, {"program": 87, "is_drum": false, "name": "SWEEP SYNTH", "notes": [{"time": 16797, "pitch": 67, "duration": 488, "velocity": 86}, {"time": 17277, "pitch": 69, "duration": 427, "velocity": 93}, {"time": 17758, "pitch": 71, "duration": 1450, "velocity": 75}, {"time": 19199, "pitch": 73, "duration": 521, "velocity": 71}, {"time": 19679, "pitch": 74, "duration": 544, "velocity": 86}, {"time": 20160, "pitch": 67, "duration": 371, "velocity": 67}, {"time": 20640, "pitch": 66, "duration": 479, "velocity": 95}, {"time": 21121, "pitch": 76, "duration": 403, "velocity": 85}, {"time": 21601, "pitch": 73, "duration": 501, "velocity": 81}, {"time": 22081, "pitch": 69, "duration": 974, "velocity": 93}, {"time": 22562, "pitch": 66, "duration": 42, "velocity": 64}, {"time": 23042, "pitch": 66, "duration": 1369, "velocity": 83}, {"time": 24477, "pitch": 67, "duration": 912, "velocity": 71}, {"time": 25438, "pitch": 69, "duration": 573, "velocity": 71}, {"time": 25918, "pitch": 71, "duration": 1002, "velocity": 87}, {"time": 26879, "pitch": 73, "duration": 505, "velocity": 95}, {"time": 27360, "pitch": 74, "duration": 463, "velocity": 87}, {"time": 27840, "pitch": 67, "duration": 488, "velocity": 83}, {"time": 28321, "pitch": 66, "duration": 481, "velocity": 98}, {"time": 28801, "pitch": 76, "duration": 459, "velocity": 90}, {"time": 29281, "pitch": 73, "duration": 489, "velocity": 98}, {"time": 29762, "pitch": 69, "duration": 517, "velocity": 86}, {"time": 30242, "pitch": 66, "duration": 472, "velocity": 86}, {"time": 30723, "pitch": 73, "duration": 889, "velocity": 79}, {"time": 31677, "pitch": 66, "duration": 387, "velocity": 58}, {"time": 47518, "pitch": 60, "duration": 483, "velocity": 83}, {"time": 47999, "pitch": 62, "duration": 463, "velocity": 93}, {"time": 48479, "pitch": 64, "duration": 491, "velocity": 79}, {"time": 48959, "pitch": 66, "duration": 470, "velocity": 81}, {"time": 49440, "pitch": 67, "duration": 489, "velocity": 76}, {"time": 49920, "pitch": 69, "duration": 446, "velocity": 83}, {"time": 50401, "pitch": 71, "duration": 502, "velocity": 76}, {"time": 50881, "pitch": 72, "duration": 449, "velocity": 93}, {"time": 51362, "pitch": 74, "duration": 470, "velocity": 86}, {"time": 51842, "pitch": 76, "duration": 454, "velocity": 83}, {"time": 52322, "pitch": 78, "duration": 466, "velocity": 86}, {"time": 52803, "pitch": 74, "duration": 462, "velocity": 76}, {"time": 53277, "pitch": 71, "duration": 494, "velocity": 65}, {"time": 53757, "pitch": 66, "duration": 927, "velocity": 62}, {"time": 54718, "pitch": 74, "duration": 475, "velocity": 83}, {"time": 55198, "pitch": 60, "duration": 442, "velocity": 79}, {"time": 55679, "pitch": 62, "duration": 433, "velocity": 72}, {"time": 56159, "pitch": 64, "duration": 476, "velocity": 69}, {"time": 56640, "pitch": 66, "duration": 504, "velocity": 79}, {"time": 57120, "pitch": 67, "duration": 457, "velocity": 72}, {"time": 57601, "pitch": 69, "duration": 492, "velocity": 81}, {"time": 58081, "pitch": 71, "duration": 492, "velocity": 74}, {"time": 58561, "pitch": 72, "duration": 474, "velocity": 74}, {"time": 59042, "pitch": 74, "duration": 483, "velocity": 81}, {"time": 59522, "pitch": 76, "duration": 444, "velocity": 74}, {"time": 60003, "pitch": 78, "duration": 513, "velocity": 65}, {"time": 60483, "pitch": 81, "duration": 436, "velocity": 74}, {"time": 60957, "pitch": 81, "duration": 543, "velocity": 74}, {"time": 61438, "pitch": 78, "duration": 462, "velocity": 76}, {"time": 62078, "pitch": 78, "duration": 427, "velocity": 77}, {"time": 62398, "pitch": 74, "duration": 342, "velocity": 73}, {"time": 62879, "pitch": 69, "duration": 498, "velocity": 98}, {"time": 63359, "pitch": 71, "duration": 475, "velocity": 93}, {"time": 63840, "pitch": 72, "duration": 453, "velocity": 98}, {"time": 64320, "pitch": 74, "duration": 471, "velocity": 74}, {"time": 64801, "pitch": 76, "duration": 505, "velocity": 90}, {"time": 65281, "pitch": 72, "duration": 475, "velocity": 74}, {"time": 65761, "pitch": 69, "duration": 747, "velocity": 90}, {"time": 85920, "pitch": 67, "duration": 488, "velocity": 86}, {"time": 86400, "pitch": 69, "duration": 427, "velocity": 93}, {"time": 86881, "pitch": 71, "duration": 1450, "velocity": 75}, {"time": 88322, "pitch": 73, "duration": 521, "velocity": 71}, {"time": 88802, "pitch": 74, "duration": 543, "velocity": 86}, {"time": 89283, "pitch": 67, "duration": 366, "velocity": 67}, {"time": 89757, "pitch": 66, "duration": 478, "velocity": 95}, {"time": 90237, "pitch": 76, "duration": 404, "velocity": 85}, {"time": 90718, "pitch": 73, "duration": 501, "velocity": 81}, {"time": 91198, "pitch": 69, "duration": 974, "velocity": 93}, {"time": 91678, "pitch": 66, "duration": 43, "velocity": 64}, {"time": 92159, "pitch": 66, "duration": 1374, "velocity": 83}, {"time": 93600, "pitch": 67, "duration": 912, "velocity": 71}, {"time": 94561, "pitch": 69, "duration": 574, "velocity": 71}, {"time": 95041, "pitch": 71, "duration": 1002, "velocity": 87}, {"time": 96002, "pitch": 73, "duration": 505, "velocity": 95}, {"time": 96483, "pitch": 74, "duration": 463, "velocity": 87}, {"time": 96963, "pitch": 67, "duration": 481, "velocity": 83}, {"time": 97437, "pitch": 66, "duration": 482, "velocity": 98}, {"time": 97918, "pitch": 76, "duration": 459, "velocity": 90}, {"time": 98398, "pitch": 73, "duration": 488, "velocity": 98}, {"time": 98878, "pitch": 69, "duration": 518, "velocity": 86}, {"time": 99359, "pitch": 66, "duration": 471, "velocity": 86}, {"time": 99839, "pitch": 73, "duration": 895, "velocity": 79}, {"time": 100800, "pitch": 66, "duration": 387, "velocity": 58}], "annotations": [{"time": 271, "annotation": {"number": 7, "value": 49}, "group": "control_change"}, {"time": 292, "annotation": {"number": 11, "value": 127}, "group": "control_change"}, {"time": 313, "annotation": {"number": 10, "value": 64}, "group": "control_change"}, {"time": 334, "annotation": {"number": 91, "value": 125}, "group": "control_change"}, {"time": 355, "annotation": {"number": 93, "value": 62}, "group": "control_change"}, {"time": 376, "annotation": {"number": 94, "value": 0}, "group": "control_change"}, {"time": 397, "annotation": {"number": 101, "value": 0}, "group": "control_change"}, {"time": 417, "annotation": {"number": 100, "value": 0}, "group": "control_change"}, {"time": 438, "annotation": {"number": 6, "value": 12}, "group": "control_change"}, {"time": 459, "annotation": {"number": 101, "value": 127}, "group": "control_change"}, {"time": 480, "annotation": {"number": 100, "value": 127}, "group": "control_change"}]}, {"program": 0, "is_drum": false, "name": "MELO", "annotations": [{"time": 209, "annotation": {"number": 0, "value": 0}, "group": "control_change"}, {"time": 230, "annotation": {"number": 32, "value": 2}, "group": "control_change"}]}, {"program": 73, "is_drum": false, "name": "MELO", "notes": [{"time": 1443, "pitch": 59, "duration": 240, "velocity": 87}, {"time": 1683, "pitch": 57, "duration": 160, "velocity": 74}, {"time": 1843, "pitch": 59, "duration": 179, "velocity": 64}, {"time": 3838, "pitch": 59, "duration": 234, "velocity": 85}, {"time": 4078, "pitch": 61, "duration": 219, "velocity": 82}, {"time": 4319, "pitch": 62, "duration": 400, "velocity": 104}, {"time": 4719, "pitch": 64, "duration": 320, "velocity": 104}, {"time": 5039, "pitch": 62, "duration": 227, "velocity": 108}, {"time": 5279, "pitch": 61, "duration": 241, "velocity": 94}, {"time": 5520, "pitch": 62, "duration": 140, "velocity": 95}, {"time": 5680, "pitch": 61, "duration": 160, "velocity": 85}, {"time": 5920, "pitch": 59, "duration": 160, "velocity": 74}, {"time": 6160, "pitch": 57, "duration": 162, "velocity": 67}, {"time": 9123, "pitch": 59, "duration": 219, "velocity": 102}, {"time": 9360, "pitch": 57, "duration": 138, "velocity": 93}, {"time": 9518, "pitch": 59, "duration": 159, "velocity": 70}, {"time": 11519, "pitch": 59, "duration": 230, "velocity": 108}, {"time": 11759, "pitch": 61, "duration": 215, "velocity": 95}, {"time": 11999, "pitch": 62, "duration": 400, "velocity": 108}, {"time": 12399, "pitch": 64, "duration": 321, "velocity": 102}, {"time": 12720, "pitch": 62, "duration": 240, "velocity": 107}, {"time": 12960, "pitch": 69, "duration": 709, "velocity": 117}, {"time": 13680, "pitch": 64, "duration": 161, "velocity": 77}, {"time": 13841, "pitch": 66, "duration": 720, "velocity": 72}, {"time": 14561, "pitch": 64, "duration": 80, "velocity": 68}, {"time": 14641, "pitch": 62, "duration": 202, "velocity": 64}, {"time": 15842, "pitch": 66, "duration": 206, "velocity": 121}, {"time": 16083, "pitch": 67, "duration": 230, "velocity": 108}, {"time": 16323, "pitch": 69, "duration": 189, "velocity": 117}, {"time": 16560, "pitch": 71, "duration": 1679, "velocity": 120}, {"time": 18238, "pitch": 74, "duration": 480, "velocity": 109}, {"time": 18718, "pitch": 73, "duration": 241, "velocity": 108}, {"time": 18959, "pitch": 74, "duration": 160, "velocity": 85}, {"time": 19119, "pitch": 71, "duration": 200, "velocity": 60}, {"time": 20160, "pitch": 69, "duration": 236, "velocity": 98}, {"time": 20400, "pitch": 67, "duration": 237, "velocity": 90}, {"time": 20640, "pitch": 69, "duration": 381, "velocity": 81}, {"time": 21041, "pitch": 64, "duration": 326, "velocity": 67}, {"time": 21361, "pitch": 66, "duration": 1004, "velocity": 63}, {"time": 23523, "pitch": 66, "duration": 221, "velocity": 114}, {"time": 23763, "pitch": 67, "duration": 223, "velocity": 108}, {"time": 24003, "pitch": 69, "duration": 187, "velocity": 111}, {"time": 24240, "pitch": 71, "duration": 1682, "velocity": 121}, {"time": 25918, "pitch": 74, "duration": 461, "velocity": 114}, {"time": 26399, "pitch": 73, "duration": 240, "velocity": 121}, {"time": 26639, "pitch": 74, "duration": 160, "velocity": 85}, {"time": 26799, "pitch": 71, "duration": 180, "velocity": 63}, {"time": 27600, "pitch": 69, "duration": 480, "velocity": 98}, {"time": 28080, "pitch": 67, "duration": 226, "velocity": 95}, {"time": 28321, "pitch": 69, "duration": 400, "velocity": 108}, {"time": 28721, "pitch": 64, "duration": 320, "velocity": 90}, {"time": 29041, "pitch": 66, "duration": 868, "velocity": 85}, {"time": 29922, "pitch": 64, "duration": 80, "velocity": 64}, {"time": 30002, "pitch": 62, "duration": 180, "velocity": 59}, {"time": 32157, "pitch": 59, "duration": 234, "velocity": 95}, {"time": 32398, "pitch": 57, "duration": 163, "velocity": 73}, {"time": 32558, "pitch": 59, "duration": 116, "velocity": 67}, {"time": 34560, "pitch": 59, "duration": 231, "velocity": 100}, {"time": 34800, "pitch": 61, "duration": 225, "velocity": 93}, {"time": 35040, "pitch": 62, "duration": 288, "velocity": 104}, {"time": 35440, "pitch": 64, "duration": 321, "velocity": 93}, {"time": 35761, "pitch": 62, "duration": 240, "velocity": 96}, {"time": 36001, "pitch": 61, "duration": 240, "velocity": 98}, {"time": 36241, "pitch": 62, "duration": 149, "velocity": 80}, {"time": 36401, "pitch": 61, "duration": 150, "velocity": 75}, {"time": 36641, "pitch": 59, "duration": 131, "velocity": 70}, {"time": 36882, "pitch": 57, "duration": 167, "velocity": 67}, {"time": 39838, "pitch": 59, "duration": 150, "velocity": 72}, {"time": 39998, "pitch": 59, "duration": 80, "velocity": 74}, {"time": 40078, "pitch": 57, "duration": 160, "velocity": 70}, {"time": 40238, "pitch": 59, "duration": 174, "velocity": 69}, {"time": 42240, "pitch": 59, "duration": 227, "velocity": 98}, {"time": 42480, "pitch": 61, "duration": 220, "velocity": 102}, {"time": 42720, "pitch": 62, "duration": 401, "velocity": 108}, {"time": 43121, "pitch": 64, "duration": 320, "velocity": 102}, {"time": 43441, "pitch": 62, "duration": 240, "velocity": 85}, {"time": 43681, "pitch": 69, "duration": 1672, "velocity": 117}, {"time": 45363, "pitch": 71, "duration": 156, "velocity": 72}, {"time": 45523, "pitch": 69, "duration": 937, "velocity": 68}, {"time": 47758, "pitch": 60, "duration": 146, "velocity": 112}, {"time": 47918, "pitch": 62, "duration": 280, "velocity": 122}, {"time": 48239, "pitch": 64, "duration": 193, "velocity": 108}, {"time": 48479, "pitch": 66, "duration": 224, "velocity": 111}, {"time": 48719, "pitch": 67, "duration": 140, "velocity": 112}, {"time": 48879, "pitch": 69, "duration": 291, "velocity": 111}, {"time": 49200, "pitch": 71, "duration": 199, "velocity": 120}, {"time": 49440, "pitch": 72, "duration": 162, "velocity": 120}, {"time": 49680, "pitch": 71, "duration": 154, "velocity": 120}, {"time": 49840, "pitch": 74, "duration": 1026, "velocity": 122}, {"time": 50881, "pitch": 72, "duration": 213, "velocity": 122}, {"time": 51121, "pitch": 71, "duration": 201, "velocity": 112}, {"time": 51362, "pitch": 69, "duration": 422, "velocity": 114}, {"time": 51842, "pitch": 69, "duration": 228, "velocity": 120}, {"time": 52082, "pitch": 74, "duration": 144, "velocity": 121}, {"time": 52242, "pitch": 71, "duration": 378, "velocity": 112}, {"time": 55439, "pitch": 60, "duration": 165, "velocity": 111}, {"time": 55599, "pitch": 62, "duration": 289, "velocity": 121}, {"time": 55919, "pitch": 64, "duration": 204, "velocity": 112}, {"time": 56159, "pitch": 66, "duration": 216, "velocity": 93}, {"time": 56400, "pitch": 67, "duration": 215, "velocity": 104}, {"time": 56640, "pitch": 69, "duration": 142, "velocity": 114}, {"time": 56800, "pitch": 71, "duration": 291, "velocity": 95}, {"time": 57120, "pitch": 72, "duration": 217, "velocity": 121}, {"time": 57360, "pitch": 71, "duration": 164, "velocity": 104}, {"time": 57521, "pitch": 74, "duration": 1036, "velocity": 114}, {"time": 58561, "pitch": 64, "duration": 217, "velocity": 112}, {"time": 58802, "pitch": 62, "duration": 193, "velocity": 117}, {"time": 59042, "pitch": 66, "duration": 220, "velocity": 117}, {"time": 59282, "pitch": 67, "duration": 208, "velocity": 111}, {"time": 59522, "pitch": 69, "duration": 233, "velocity": 100}, {"time": 59763, "pitch": 62, "duration": 933, "velocity": 117}, {"time": 60720, "pitch": 66, "duration": 210, "velocity": 120}, {"time": 60957, "pitch": 64, "duration": 213, "velocity": 120}, {"time": 61197, "pitch": 62, "duration": 1210, "velocity": 117}, {"time": 62879, "pitch": 64, "duration": 331, "velocity": 121}, {"time": 63279, "pitch": 66, "duration": 335, "velocity": 122}, {"time": 63599, "pitch": 67, "duration": 227, "velocity": 104}, {"time": 63840, "pitch": 69, "duration": 502, "velocity": 114}, {"time": 64320, "pitch": 71, "duration": 417, "velocity": 117}, {"time": 64801, "pitch": 72, "duration": 957, "velocity": 122}, {"time": 65761, "pitch": 74, "duration": 712, "velocity": 117}, {"time": 66722, "pitch": 64, "duration": 205, "velocity": 120}, {"time": 66962, "pitch": 66, "duration": 182, "velocity": 114}, {"time": 67203, "pitch": 67, "duration": 160, "velocity": 121}, {"time": 70559, "pitch": 59, "duration": 240, "velocity": 87}, {"time": 70799, "pitch": 57, "duration": 161, "velocity": 74}, {"time": 70960, "pitch": 59, "duration": 180, "velocity": 64}, {"time": 72961, "pitch": 59, "duration": 234, "velocity": 85}, {"time": 73202, "pitch": 61, "duration": 218, "velocity": 82}, {"time": 73442, "pitch": 62, "duration": 400, "velocity": 104}, {"time": 73842, "pitch": 64, "duration": 320, "velocity": 104}, {"time": 74162, "pitch": 62, "duration": 228, "velocity": 108}, {"time": 74403, "pitch": 61, "duration": 240, "velocity": 94}, {"time": 74643, "pitch": 62, "duration": 140, "velocity": 95}, {"time": 74803, "pitch": 61, "duration": 159, "velocity": 85}, {"time": 75041, "pitch": 59, "duration": 158, "velocity": 74}, {"time": 75278, "pitch": 57, "duration": 161, "velocity": 67}, {"time": 78239, "pitch": 59, "duration": 223, "velocity": 102}, {"time": 78480, "pitch": 57, "duration": 140, "velocity": 93}, {"time": 78640, "pitch": 59, "duration": 160, "velocity": 70}, {"time": 80642, "pitch": 59, "duration": 230, "velocity": 108}, {"time": 80882, "pitch": 61, "duration": 215, "velocity": 95}, {"time": 81122, "pitch": 62, "duration": 400, "velocity": 108}, {"time": 81522, "pitch": 64, "duration": 321, "velocity": 102}, {"time": 81843, "pitch": 62, "duration": 240, "velocity": 107}, {"time": 82083, "pitch": 69, "duration": 703, "velocity": 117}, {"time": 82797, "pitch": 64, "duration": 160, "velocity": 77}, {"time": 82957, "pitch": 66, "duration": 721, "velocity": 72}, {"time": 83678, "pitch": 64, "duration": 80, "velocity": 68}, {"time": 83758, "pitch": 62, "duration": 201, "velocity": 64}, {"time": 84959, "pitch": 66, "duration": 205, "velocity": 121}, {"time": 85199, "pitch": 67, "duration": 230, "velocity": 108}, {"time": 85439, "pitch": 69, "duration": 193, "velocity": 117}, {"time": 85680, "pitch": 71, "duration": 1682, "velocity": 120}, {"time": 87361, "pitch": 74, "duration": 481, "velocity": 109}, {"time": 87842, "pitch": 73, "duration": 240, "velocity": 108}, {"time": 88082, "pitch": 74, "duration": 160, "velocity": 85}, {"time": 88242, "pitch": 71, "duration": 200, "velocity": 60}, {"time": 89283, "pitch": 69, "duration": 233, "velocity": 98}, {"time": 89520, "pitch": 67, "duration": 234, "velocity": 90}, {"time": 89757, "pitch": 69, "duration": 380, "velocity": 81}, {"time": 90157, "pitch": 64, "duration": 326, "velocity": 67}, {"time": 90477, "pitch": 66, "duration": 1004, "velocity": 63}, {"time": 92639, "pitch": 66, "duration": 222, "velocity": 114}, {"time": 92880, "pitch": 67, "duration": 223, "velocity": 108}, {"time": 93120, "pitch": 69, "duration": 189, "velocity": 111}, {"time": 93360, "pitch": 71, "duration": 1685, "velocity": 121}, {"time": 95041, "pitch": 74, "duration": 461, "velocity": 114}, {"time": 95522, "pitch": 73, "duration": 240, "velocity": 121}, {"time": 95762, "pitch": 74, "duration": 160, "velocity": 85}, {"time": 95922, "pitch": 71, "duration": 180, "velocity": 63}, {"time": 96723, "pitch": 69, "duration": 477, "velocity": 98}, {"time": 97200, "pitch": 67, "duration": 222, "velocity": 95}, {"time": 97437, "pitch": 69, "duration": 400, "velocity": 108}, {"time": 97837, "pitch": 64, "duration": 321, "velocity": 90}, {"time": 98158, "pitch": 66, "duration": 868, "velocity": 85}, {"time": 99039, "pitch": 64, "duration": 80, "velocity": 64}, {"time": 99119, "pitch": 62, "duration": 180, "velocity": 59}, {"time": 101281, "pitch": 59, "duration": 233, "velocity": 95}, {"time": 101521, "pitch": 57, "duration": 163, "velocity": 73}, {"time": 101681, "pitch": 59, "duration": 116, "velocity": 67}, {"time": 103683, "pitch": 59, "duration": 231, "velocity": 100}, {"time": 103923, "pitch": 61, "duration": 225, "velocity": 93}, {"time": 104163, "pitch": 62, "duration": 284, "velocity": 104}, {"time": 104558, "pitch": 64, "duration": 319, "velocity": 93}, {"time": 104877, "pitch": 62, "duration": 240, "velocity": 96}, {"time": 105117, "pitch": 61, "duration": 241, "velocity": 98}, {"time": 105358, "pitch": 62, "duration": 149, "velocity": 80}, {"time": 105518, "pitch": 61, "duration": 150, "velocity": 75}, {"time": 105758, "pitch": 59, "duration": 130, "velocity": 70}, {"time": 105998, "pitch": 57, "duration": 167, "velocity": 67}, {"time": 108961, "pitch": 59, "duration": 150, "velocity": 72}, {"time": 109121, "pitch": 59, "duration": 80, "velocity": 74}, {"time": 109201, "pitch": 57, "duration": 160, "velocity": 70}, {"time": 109361, "pitch": 59, "duration": 174, "velocity": 69}, {"time": 111363, "pitch": 59, "duration": 224, "velocity": 98}, {"time": 111600, "pitch": 61, "duration": 217, "velocity": 102}, {"time": 111837, "pitch": 62, "duration": 400, "velocity": 108}, {"time": 112237, "pitch": 64, "duration": 321, "velocity": 102}, {"time": 112558, "pitch": 62, "duration": 240, "velocity": 85}, {"time": 112798, "pitch": 69, "duration": 1671, "velocity": 117}, {"time": 114479, "pitch": 67, "duration": 156, "velocity": 72}, {"time": 114639, "pitch": 69, "duration": 944, "velocity": 68}, {"time": 117112, "pitch": 73, "duration": 244, "velocity": 89}, {"time": 117333, "pitch": 74, "duration": 167, "velocity": 77}, {"time": 117498, "pitch": 69, "duration": 177, "velocity": 60}, {"time": 117635, "pitch": 66, "duration": 241, "velocity": 74}, {"time": 117855, "pitch": 64, "duration": 321, "velocity": 62}, {"time": 118093, "pitch": 66, "duration": 475, "velocity": 64}, {"time": 118584, "pitch": 69, "duration": 662, "velocity": 67}, {"time": 119246, "pitch": 68, "duration": 43, "velocity": 59}, {"time": 119274, "pitch": 67, "duration": 44, "velocity": 54}, {"time": 119313, "pitch": 66, "duration": 1125, "velocity": 58}], "annotations": [{"time": 271, "annotation": {"number": 7, "value": 80}, "group": "control_change"}, {"time": 292, "annotation": {"number": 11, "value": 127}, "group": "control_change"}, {"time": 313, "annotation": {"number": 10, "value": 64}, "group": "control_change"}, {"time": 334, "annotation": {"number": 91, "value": 120}, "group": "control_change"}, {"time": 355, "annotation": {"number": 93, "value": 0}, "group": "control_change"}, {"time": 376, "annotation": {"number": 94, "value": 0}, "group": "control_change"}, {"time": 397, "annotation": {"number": 101, "value": 0}, "group": "control_change"}, {"time": 417, "annotation": {"number": 100, "value": 0}, "group": "control_change"}, {"time": 438, "annotation": {"number": 6, "value": 12}, "group": "control_change"}, {"time": 480, "annotation": {"number": 101, "value": 127}, "group": "control_change"}, {"time": 482, "annotation": {"number": 100, "value": 127}, "group": "control_change"}, {"time": 1443, "annotation": {"number": 1, "value": 3}, "group": "control_change"}, {"time": 1443, "annotation": {"number": 1, "value": 2}, "group": "control_change"}, {"time": 1443, "annotation": {"number": 1, "value": 1}, "group": "control_change"}, {"time": 4326, "annotation": {"number": 1, "value": 2}, "group": "control_change"}, {"time": 4337, "annotation": {"number": 1, "value": 3}, "group": "control_change"}, {"time": 4350, "annotation": {"number": 1, "value": 4}, "group": "control_change"}, {"time": 4359, "annotation": {"number": 1, "value": 5}, "group": "control_change"}, {"time": 4366, "annotation": {"number": 1, "value": 6}, "group": "control_change"}, {"time": 4378, "annotation": {"number": 1, "value": 7}, "group": "control_change"}, {"time": 4388, "annotation": {"number": 1, "value": 8}, "group": "control_change"}, {"time": 4402, "annotation": {"number": 1, "value": 9}, "group": "control_change"}, {"time": 4426, "annotation": {"number": 1, "value": 10}, "group": "control_change"}, {"time": 4440, "annotation": {"number": 1, "value": 11}, "group": "control_change"}, {"time": 4454, "annotation": {"number": 1, "value": 12}, "group": "control_change"}, {"time": 4468, "annotation": {"number": 1, "value": 13}, "group": "control_change"}, {"time": 4487, "annotation": {"number": 1, "value": 14}, "group": "control_change"}, {"time": 4547, "annotation": {"number": 1, "value": 15}, "group": "control_change"}, {"time": 4584, "annotation": {"number": 1, "value": 16}, "group": "control_change"}, {"time": 4632, "annotation": {"number": 1, "value": 15}, "group": "control_change"}, {"time": 4643, "annotation": {"number": 1, "value": 14}, "group": "control_change"}, {"time": 4651, "annotation": {"number": 1, "value": 13}, "group": "control_change"}, {"time": 4659, "annotation": {"number": 1, "value": 12}, "group": "control_change"}, {"time": 4665, "annotation": {"number": 1, "value": 11}, "group": "control_change"}, {"time": 4674, "annotation": {"number": 1, "value": 10}, "group": "control_change"}, {"time": 4685, "annotation": {"number": 1, "value": 9}, "group": "control_change"}, {"time": 4700, "annotation": {"number": 1, "value": 8}, "group": "control_change"}, {"time": 4716, "annotation": {"number": 1, "value": 7}, "group": "control_change"}, {"time": 4734, "annotation": {"number": 1, "value": 6}, "group": "control_change"}, {"time": 4745, "annotation": {"number": 1, "value": 5}, "group": "control_change"}, {"time": 4757, "annotation": {"number": 1, "value": 4}, "group": "control_change"}, {"time": 4775, "annotation": {"number": 1, "value": 3}, "group": "control_change"}, {"time": 4793, "annotation": {"number": 1, "value": 2}, "group": "control_change"}, {"time": 4809, "annotation": {"number": 1, "value": 1}, "group": "control_change"}, {"time": 4944, "annotation": {"number": 1, "value": 2}, "group": "control_change"}, {"time": 4958, "annotation": {"number": 1, "value": 3}, "group": "control_change"}, {"time": 4974, "annotation": {"number": 1, "value": 4}, "group": "control_change"}, {"time": 4984, "annotation": {"number": 1, "value": 5}, "group": "control_change"}, {"time": 4993, "annotation": {"number": 1, "value": 6}, "group": "control_change"}, {"time": 5009, "annotation": {"number": 1, "value": 7}, "group": "control_change"}, {"time": 5022, "annotation": {"number": 1, "value": 8}, "group": "control_change"}, {"time": 5114, "annotation": {"number": 1, "value": 7}, "group": "control_change"}, {"time": 5130, "annotation": {"number": 1, "value": 6}, "group": "control_change"}, {"time": 5142, "annotation": {"number": 1, "value": 5}, "group": "control_change"}, {"time": 5153, "annotation": {"number": 1, "value": 4}, "group": "control_change"}, {"time": 5177, "annotation": {"number": 1, "value": 3}, "group": "control_change"}, {"time": 5413, "annotation": {"number": 1, "value": 4}, "group": "control_change"}, {"time": 5452, "annotation": {"number": 1, "value": 5}, "group": "control_change"}, {"time": 5481, "annotation": {"number": 1, "value": 6}, "group": "control_change"}, {"time": 5517, "annotation": {"number": 1, "value": 7}, "group": "control_change"}, {"time": 5543, "annotation": {"number": 1, "value": 8}, "group": "control_change"}, {"time": 5626, "annotation": {"number": 1, "value": 7}, "group": "control_change"}, {"time": 5652, "annotation": {"number": 1, "value": 6}, "group": "control_change"}, {"time": 5665, "annotation": {"number": 1, "value": 5}, "group": "control_change"}, {"time": 5676, "annotation": {"number": 1, "value": 4}, "group": "control_change"}, {"time": 5690, "annotation": {"number": 1, "value": 3}, "group": "control_change"}, {"time": 5796, "annotation": {"number": 1, "value": 2}, "group": "control_change"}, {"time": 5868, "annotation": {"number": 1, "value": 1}, "group": "control_change"}, {"time": 9152, "annotation": {"number": 1, "value": 2}, "group": "control_change"}, {"time": 9170, "annotation": {"number": 1, "value": 3}, "group": "control_change"}, {"time": 9192, "annotation": {"number": 1, "value": 4}, "group": "control_change"}, {"time": 9206, "annotation": {"number": 1, "value": 5}, "group": "control_change"}, {"time": 9222, "annotation": {"number": 1, "value": 6}, "group": "control_change"}, {"time": 9272, "annotation": {"number": 1, "value": 7}, "group": "control_change"}, {"time": 9314, "annotation": {"number": 1, "value": 6}, "group": "control_change"}, {"time": 9324, "annotation": {"number": 1, "value": 5}, "group": "control_change"}, {"time": 9332, "annotation": {"number": 1, "value": 4}, "group": "control_change"}, {"time": 9342, "annotation": {"number": 1, "value": 3}, "group": "control_change"}, {"time": 9352, "annotation": {"number": 1, "value": 2}, "group": "control_change"}, {"time": 9359, "annotation": {"number": 1, "value": 1}, "group": "control_change"}, {"time": 9550, "annotation": {"number": 1, "value": 2}, "group": "control_change"}, {"time": 9664, "annotation": {"number": 1, "value": 1}, "group": "control_change"}, {"time": 11612, "annotation": {"number": 1, "value": 2}, "group": "control_change"}, {"time": 11629, "annotation": {"number": 1, "value": 3}, "group": "control_change"}, {"time": 11647, "annotation": {"number": 1, "value": 4}, "group": "control_change"}, {"time": 11660, "annotation": {"number": 1, "value": 5}, "group": "control_change"}, {"time": 11673, "annotation": {"number": 1, "value": 6}, "group": "control_change"}, {"time": 11730, "annotation": {"number": 1, "value": 5}, "group": "control_change"}, {"time": 11736, "annotation": {"number": 1, "value": 4}, "group": "control_change"}, {"time": 11743, "annotation": {"number": 1, "value": 3}, "group": "control_change"}, {"time": 11751, "annotation": {"number": 1, "value": 2}, "group": "control_change"}, {"time": 11757, "annotation": {"number": 1, "value": 1}, "group": "control_change"}, {"time": 11856, "annotation": {"number": 1, "value": 2}, "group": "control_change"}, {"time": 11867, "annotation": {"number": 1, "value": 3}, "group": "control_change"}, {"time": 11930, "annotation": {"number": 1, "value": 2}, "group": "control_change"}, {"time": 11943, "annotation": {"number": 1, "value": 1}, "group": "control_change"}, {"time": 12034, "annotation": {"number": 1, "value": 2}, "group": "control_change"}, {"time": 12043, "annotation": {"number": 1, "value": 3}, "group": "control_change"}, {"time": 12058, "annotation": {"number": 1, "value": 4}, "group": "control_change"}, {"time": 12068, "annotation": {"number": 1, "value": 5}, "group": "control_change"}, {"time": 12079, "annotation": {"number": 1, "value": 6}, "group": "control_change"}, {"time": 12093, "annotation": {"number": 1, "value": 7}, "group": "control_change"}, {"time": 12098, "annotation": {"number": 1, "value": 8}, "group": "control_change"}, {"time": 12104, "annotation": {"number": 1, "value": 9}, "group": "control_change"}, {"time": 12113, "annotation": {"number": 1, "value": 10}, "group": "control_change"}, {"time": 12119, "annotation": {"number": 1, "value": 11}, "group": "control_change"}, {"time": 12128, "annotation": {"number": 1, "value": 12}, "group": "control_change"}, {"time": 12139, "annotation": {"number": 1, "value": 13}, "group": "control_change"}, {"time": 12152, "annotation": {"number": 1, "value": 14}, "group": "control_change"}, {"time": 12169, "annotation": {"number": 1, "value": 15}, "group": "control_change"}, {"time": 12178, "annotation": {"number": 1, "value": 16}, "group": "control_change"}, {"time": 12187, "annotation": {"number": 1, "value": 17}, "group": "control_change"}, {"time": 12198, "annotation": {"number": 1, "value": 18}, "group": "control_change"}, {"time": 12205, "annotation": {"number": 1, "value": 19}, "group": "control_change"}, {"time": 12217, "annotation": {"number": 1, "value": 20}, "group": "control_change"}, {"time": 12227, "annotation": {"number": 1, "value": 21}, "group": "control_change"}, {"time": 12247, "annotation": {"number": 1, "value": 22}, "group": "control_change"}, {"time": 12386, "annotation": {"number": 1, "value": 21}, "group": "control_change"}, {"time": 12394, "annotation": {"number": 1, "value": 20}, "group": "control_change"}, {"time": 12399, "annotation": {"number": 1, "value": 19}, "group": "control_change"}, {"time": 12404, "annotation": {"number": 1, "value": 18}, "group": "control_change"}, {"time": 12409, "annotation": {"number": 1, "value": 17}, "group": "control_change"}, {"time": 12412, "annotation": {"number": 1, "value": 16}, "group": "control_change"}, {"time": 12416, "annotation": {"number": 1, "value": 15}, "group": "control_change"}, {"time": 12422, "annotation": {"number": 1, "value": 14}, "group": "control_change"}, {"time": 12426, "annotation": {"number": 1, "value": 13}, "group": "control_change"}, {"time": 12432, "annotation": {"number": 1, "value": 12}, "group": "control_change"}, {"time": 12437, "annotation": {"number": 1, "value": 11}, "group": "control_change"}, {"time": 12443, "annotation": {"number": 1, "value": 10}, "group": "control_change"}, {"time": 12450, "annotation": {"number": 1, "value": 9}, "group": "control_change"}, {"time": 12456, "annotation": {"number": 1, "value": 8}, "group": "control_change"}, {"time": 12460, "annotation": {"number": 1, "value": 7}, "group": "control_change"}, {"time": 12472, "annotation": {"number": 1, "value": 6}, "group": "control_change"}, {"time": 12492, "annotation": {"number": 1, "value": 5}, "group": "control_change"}, {"time": 12534, "annotation": {"number": 1, "value": 6}, "group": "control_change"}, {"time": 12561, "annotation": {"number": 1, "value": 7}, "group": "control_change"}, {"time": 12575, "annotation": {"number": 1, "value": 8}, "group": "control_change"}, {"time": 12592, "annotation": {"number": 1, "value": 9}, "group": "control_change"}, {"time": 12608, "annotation": {"number": 1, "value": 10}, "group": "control_change"}, {"time": 12618, "annotation": {"number": 1, "value": 11}, "group": "control_change"}, {"time": 12627, "annotation": {"number": 1, "value": 12}, "group": "control_change"}, {"time": 12636, "annotation": {"number": 1, "value": 13}, "group": "control_change"}, {"time": 12644, "annotation": {"number": 1, "value": 14}, "group": "control_change"}, {"time": 12654, "annotation": {"number": 1, "value": 15}, "group": "control_change"}, {"time": 12660, "annotation": {"number": 1, "value": 16}, "group": "control_change"}, {"time": 12667, "annotation": {"number": 1, "value": 17}, "group": "control_change"}, {"time": 12680, "annotation": {"number": 1, "value": 18}, "group": "control_change"}, {"time": 12704, "annotation": {"number": 1, "value": 19}, "group": "control_change"}, {"time": 12832, "annotation": {"number": 1, "value": 18}, "group": "control_change"}, {"time": 12853, "annotation": {"number": 1, "value": 17}, "group": "control_change"}, {"time": 12881, "annotation": {"number": 1, "value": 16}, "group": "control_change"}, {"time": 12892, "annotation": {"number": 1, "value": 15}, "group": "control_change"}, {"time": 12902, "annotation": {"number": 1, "value": 14}, "group": "control_change"}, {"time": 12909, "annotation": {"number": 1, "value": 13}, "group": "control_change"}, {"time": 12914, "annotation": {"number": 1, "value": 12}, "group": "control_change"}, {"time": 12919, "annotation": {"number": 1, "value": 11}, "group": "control_change"}, {"time": 12923, "annotation": {"number": 1, "value": 10}, "group": "control_change"}, {"time": 12928, "annotation": {"number": 1, "value": 9}, "group": "control_change"}, {"time": 12931, "annotation": {"number": 1, "value": 8}, "group": "control_change"}, {"time": 12935, "annotation": {"number": 1, "value": 7}, "group": "control_change"}, {"time": 12941, "annotation": {"number": 1, "value": 6}, "group": "control_change"}, {"time": 12946, "annotation": {"number": 1, "value": 5}, "group": "control_change"}, {"time": 12950, "annotation": {"number": 1, "value": 4}, "group": "control_change"}, {"time": 12959, "annotation": {"number": 1, "value": 3}, "group": "control_change"}, {"time": 12997, "annotation": {"number": 1, "value": 4}, "group": "control_change"}, {"time": 13005, "annotation": {"number": 1, "value": 5}, "group": "control_change"}, {"time": 13011, "annotation": {"number": 1, "value": 6}, "group": "control_change"}, {"time": 13026, "annotation": {"number": 1, "value": 7}, "group": "control_change"}, {"time": 13062, "annotation": {"number": 1, "value": 8}, "group": "control_change"}, {"time": 13082, "annotation": {"number": 1, "value": 9}, "group": "control_change"}, {"time": 13096, "annotation": {"number": 1, "value": 10}, "group": "control_change"}, {"time": 13104, "annotation": {"number": 1, "value": 11}, "group": "control_change"}, {"time": 13114, "annotation": {"number": 1, "value": 12}, "group": "control_change"}, {"time": 13125, "annotation": {"number": 1, "value": 13}, "group": "control_change"}, {"time": 13136, "annotation": {"number": 1, "value": 14}, "group": "control_change"}, {"time": 13157, "annotation": {"number": 1, "value": 15}, "group": "control_change"}, {"time": 13183, "annotation": {"number": 1, "value": 16}, "group": "control_change"}, {"time": 13198, "annotation": {"number": 1, "value": 17}, "group": "control_change"}, {"time": 13215, "annotation": {"number": 1, "value": 18}, "group": "control_change"}, {"time": 13227, "annotation": {"number": 1, "value": 19}, "group": "control_change"}, {"time": 13254, "annotation": {"number": 1, "value": 20}, "group": "control_change"}, {"time": 13276, "annotation": {"number": 1, "value": 21}, "group": "control_change"}, {"time": 13302, "annotation": {"number": 1, "value": 22}, "group": "control_change"}, {"time": 13323, "annotation": {"number": 1, "value": 23}, "group": "control_change"}, {"time": 13343, "annotation": {"number": 1, "value": 24}, "group": "control_change"}, {"time": 13370, "annotation": {"number": 1, "value": 25}, "group": "control_change"}, {"time": 13422, "annotation": {"number": 1, "value": 26}, "group": "control_change"}, {"time": 13462, "annotation": {"number": 1, "value": 27}, "group": "control_change"}, {"time": 13546, "annotation": {"number": 1, "value": 28}, "group": "control_change"}, {"time": 13581, "annotation": {"number": 1, "value": 29}, "group": "control_change"}, {"time": 13598, "annotation": {"number": 1, "value": 30}, "group": "control_change"}, {"time": 13622, "annotation": {"number": 1, "value": 31}, "group": "control_change"}, {"time": 13812, "annotation": {"number": 1, "value": 30}, "group": "control_change"}, {"time": 13818, "annotation": {"number": 1, "value": 29}, "group": "control_change"}, {"time": 13825, "annotation": {"number": 1, "value": 28}, "group": "control_change"}, {"time": 13835, "annotation": {"number": 1, "value": 27}, "group": "control_change"}, {"time": 13841, "annotation": {"number": 1, "value": 26}, "group": "control_change"}, {"time": 13851, "annotation": {"number": 1, "value": 25}, "group": "control_change"}, {"time": 13861, "annotation": {"number": 1, "value": 24}, "group": "control_change"}, {"time": 13870, "annotation": {"number": 1, "value": 23}, "group": "control_change"}, {"time": 13880, "annotation": {"number": 1, "value": 22}, "group": "control_change"}, {"time": 13894, "annotation": {"number": 1, "value": 21}, "group": "control_change"}, {"time": 13910, "annotation": {"number": 1, "value": 20}, "group": "control_change"}, {"time": 13928, "annotation": {"number": 1, "value": 19}, "group": "control_change"}, {"time": 14006, "annotation": {"number": 1, "value": 20}, "group": "control_change"}, {"time": 14014, "annotation": {"number": 1, "value": 21}, "group": "control_change"}, {"time": 14023, "annotation": {"number": 1, "value": 22}, "group": "control_change"}, {"time": 14028, "annotation": {"number": 1, "value": 23}, "group": "control_change"}, {"time": 14033, "annotation": {"number": 1, "value": 24}, "group": "control_change"}, {"time": 14042, "annotation": {"number": 1, "value": 25}, "group": "control_change"}, {"time": 14051, "annotation": {"number": 1, "value": 26}, "group": "control_change"}, {"time": 14060, "annotation": {"number": 1, "value": 27}, "group": "control_change"}, {"time": 14074, "annotation": {"number": 1, "value": 28}, "group": "control_change"}, {"time": 14125, "annotation": {"number": 1, "value": 29}, "group": "control_change"}, {"time": 14201, "annotation": {"number": 1, "value": 30}, "group": "control_change"}, {"time": 14301, "annotation": {"number": 1, "value": 31}, "group": "control_change"}, {"time": 14347, "annotation": {"number": 1, "value": 32}, "group": "control_change"}, {"time": 14418, "annotation": {"number": 1, "value": 33}, "group": "control_change"}, {"time": 14526, "annotation": {"number": 1, "value": 32}, "group": "control_change"}, {"time": 14539, "annotation": {"number": 1, "value": 31}, "group": "control_change"}, {"time": 14551, "annotation": {"number": 1, "value": 30}, "group": "control_change"}, {"time": 14557, "annotation": {"number": 1, "value": 29}, "group": "control_change"}, {"time": 14566, "annotation": {"number": 1, "value": 28}, "group": "control_change"}, {"time": 14578, "annotation": {"number": 1, "value": 27}, "group": "control_change"}, {"time": 14587, "annotation": {"number": 1, "value": 26}, "group": "control_change"}, {"time": 14598, "annotation": {"number": 1, "value": 25}, "group": "control_change"}, {"time": 14613, "annotation": {"number": 1, "value": 24}, "group": "control_change"}, {"time": 14628, "annotation": {"number": 1, "value": 23}, "group": "control_change"}, {"time": 14641, "annotation": {"number": 1, "value": 22}, "group": "control_change"}, {"time": 14659, "annotation": {"number": 1, "value": 21}, "group": "control_change"}, {"time": 14678, "annotation": {"number": 1, "value": 20}, "group": "control_change"}, {"time": 14695, "annotation": {"number": 1, "value": 19}, "group": "control_change"}, {"time": 14716, "annotation": {"number": 1, "value": 18}, "group": "control_change"}, {"time": 14738, "annotation": {"number": 1, "value": 17}, "group": "control_change"}, {"time": 14771, "annotation": {"number": 1, "value": 16}, "group": "control_change"}, {"time": 14789, "annotation": {"number": 1, "value": 15}, "group": "control_change"}, {"time": 14809, "annotation": {"number": 1, "value": 14}, "group": "control_change"}, {"time": 14853, "annotation": {"number": 1, "value": 13}, "group": "control_change"}, {"time": 14880, "annotation": {"number": 1, "value": 12}, "group": "control_change"}, {"time": 14905, "annotation": {"number": 1, "value": 11}, "group": "control_change"}, {"time": 14920, "annotation": {"number": 1, "value": 10}, "group": "control_change"}, {"time": 14935, "annotation": {"number": 1, "value": 9}, "group": "control_change"}, {"time": 14946, "annotation": {"number": 1, "value": 8}, "group": "control_change"}, {"time": 14959, "annotation": {"number": 1, "value": 7}, "group": "control_change"}, {"time": 14975, "annotation": {"number": 1, "value": 6}, "group": "control_change"}, {"time": 14998, "annotation": {"number": 1, "value": 5}, "group": "control_change"}, {"time": 15013, "annotation": {"number": 1, "value": 4}, "group": "control_change"}, {"time": 15485, "annotation": {"number": 1, "value": 3}, "group": "control_change"}, {"time": 15544, "annotation": {"number": 1, "value": 2}, "group": "control_change"}, {"time": 15577, "annotation": {"number": 1, "value": 1}, "group": "control_change"}, {"time": 15630, "annotation": {"number": 1, "value": 2}, "group": "control_change"}, {"time": 15646, "annotation": {"number": 1, "value": 3}, "group": "control_change"}, {"time": 15672, "annotation": {"number": 1, "value": 4}, "group": "control_change"}, {"time": 15693, "annotation": {"number": 1, "value": 5}, "group": "control_change"}, {"time": 15702, "annotation": {"number": 1, "value": 6}, "group": "control_change"}, {"time": 15716, "annotation": {"number": 1, "value": 7}, "group": "control_change"}, {"time": 15730, "annotation": {"number": 1, "value": 8}, "group": "control_change"}, {"time": 15779, "annotation": {"number": 1, "value": 7}, "group": "control_change"}, {"time": 15790, "annotation": {"number": 1, "value": 6}, "group": "control_change"}, {"time": 15798, "annotation": {"number": 1, "value": 5}, "group": "control_change"}, {"time": 15806, "annotation": {"number": 1, "value": 4}, "group": "control_change"}, {"time": 15816, "annotation": {"number": 1, "value": 3}, "group": "control_change"}, {"time": 15834, "annotation": {"number": 1, "value": 2}, "group": "control_change"}, {"time": 15861, "annotation": {"number": 1, "value": 3}, "group": "control_change"}, {"time": 15873, "annotation": {"number": 1, "value": 4}, "group": "control_change"}, {"time": 15880, "annotation": {"number": 1, "value": 5}, "group": "control_change"}, {"time": 15886, "annotation": {"number": 1, "value": 6}, "group": "control_change"}, {"time": 15897, "annotation": {"number": 1, "value": 7}, "group": "control_change"}, {"time": 15903, "annotation": {"number": 1, "value": 8}, "group": "control_change"}, {"time": 15909, "annotation": {"number": 1, "value": 9}, "group": "control_change"}, {"time": 15917, "annotation": {"number": 1, "value": 10}, "group": "control_change"}, {"time": 15922, "annotation": {"number": 1, "value": 11}, "group": "control_change"}, {"time": 15931, "annotation": {"number": 1, "value": 12}, "group": "control_change"}, {"time": 15945, "annotation": {"number": 1, "value": 13}, "group": "control_change"}, {"time": 15996, "annotation": {"number": 1, "value": 12}, "group": "control_change"}, {"time": 16004, "annotation": {"number": 1, "value": 11}, "group": "control_change"}, {"time": 16010, "annotation": {"number": 1, "value": 10}, "group": "control_change"}, {"time": 16018, "annotation": {"number": 1, "value": 9}, "group": "control_change"}, {"time": 16024, "annotation": {"number": 1, "value": 8}, "group": "control_change"}, {"time": 16029, "annotation": {"number": 1, "value": 7}, "group": "control_change"}, {"time": 16035, "annotation": {"number": 1, "value": 6}, "group": "control_change"}, {"time": 16042, "annotation": {"number": 1, "value": 5}, "group": "control_change"}, {"time": 16046, "annotation": {"number": 1, "value": 4}, "group": "control_change"}, {"time": 16053, "annotation": {"number": 1, "value": 3}, "group": "control_change"}, {"time": 16060, "annotation": {"number": 1, "value": 2}, "group": "control_change"}, {"time": 16067, "annotation": {"number": 1, "value": 1}, "group": "control_change"}, {"time": 16146, "annotation": {"number": 1, "value": 2}, "group": "control_change"}, {"time": 16152, "annotation": {"number": 1, "value": 3}, "group": "control_change"}, {"time": 16158, "annotation": {"number": 1, "value": 4}, "group": "control_change"}, {"time": 16163, "annotation": {"number": 1, "value": 5}, "group": "control_change"}, {"time": 16167, "annotation": {"number": 1, "value": 6}, "group": "control_change"}, {"time": 16173, "annotation": {"number": 1, "value": 7}, "group": "control_change"}, {"time": 16176, "annotation": {"number": 1, "value": 8}, "group": "control_change"}, {"time": 16181, "annotation": {"number": 1, "value": 9}, "group": "control_change"}, {"time": 16191, "annotation": {"number": 1, "value": 10}, "group": "control_change"}, {"time": 16256, "annotation": {"number": 1, "value": 9}, "group": "control_change"}, {"time": 16266, "annotation": {"number": 1, "value": 8}, "group": "control_change"}, {"time": 16272, "annotation": {"number": 1, "value": 7}, "group": "control_change"}, {"time": 16280, "annotation": {"number": 1, "value": 6}, "group": "control_change"}, {"time": 16287, "annotation": {"number": 1, "value": 5}, "group": "control_change"}, {"time": 16292, "annotation": {"number": 1, "value": 4}, "group": "control_change"}, {"time": 16300, "annotation": {"number": 1, "value": 3}, "group": "control_change"}, {"time": 16311, "annotation": {"number": 1, "value": 2}, "group": "control_change"}, {"time": 16347, "annotation": {"number": 1, "value": 3}, "group": "control_change"}, {"time": 16357, "annotation": {"number": 1, "value": 4}, "group": "control_change"}, {"time": 16362, "annotation": {"number": 1, "value": 5}, "group": "control_change"}, {"time": 16367, "annotation": {"number": 1, "value": 6}, "group": "control_change"}, {"time": 16375, "annotation": {"number": 1, "value": 7}, "group": "control_change"}, {"time": 16380, "annotation": {"number": 1, "value": 8}, "group": "control_change"}, {"time": 16386, "annotation": {"number": 1, "value": 9}, "group": "control_change"}, {"time": 16401, "annotation": {"number": 1, "value": 10}, "group": "control_change"}, {"time": 16441, "annotation": {"number": 1, "value": 9}, "group": "control_change"}, {"time": 16450, "annotation": {"number": 1, "value": 8}, "group": "control_change"}, {"time": 16455, "annotation": {"number": 1, "value": 7}, "group": "control_change"}, {"time": 16462, "annotation": {"number": 1, "value": 6}, "group": "control_change"}, {"time": 16468, "annotation": {"number": 1, "value": 5}, "group": "control_change"}, {"time": 16473, "annotation": {"number": 1, "value": 4}, "group": "control_change"}, {"time": 16478, "annotation": {"number": 1, "value": 3}, "group": "control_change"}, {"time": 16484, "annotation": {"number": 1, "value": 2}, "group": "control_change"}, {"time": 16490, "annotation": {"number": 1, "value": 1}, "group": "control_change"}, {"time": 16607, "annotation": {"number": 1, "value": 2}, "group": "control_change"}, {"time": 16616, "annotation": {"number": 1, "value": 3}, "group": "control_change"}, {"time": 16629, "annotation": {"number": 1, "value": 4}, "group": "control_change"}, {"time": 16637, "annotation": {"number": 1, "value": 5}, "group": "control_change"}, {"time": 16642, "annotation": {"number": 1, "value": 6}, "group": "control_change"}, {"time": 16656, "annotation": {"number": 1, "value": 7}, "group": "control_change"}, {"time": 16665, "annotation": {"number": 1, "value": 8}, "group": "control_change"}, {"time": 16675, "annotation": {"number": 1, "value": 9}, "group": "control_change"}, {"time": 16686, "annotation": {"number": 1, "value": 10}, "group": "control_change"}, {"time": 16692, "annotation": {"number": 1, "value": 11}, "group": "control_change"}, {"time": 16700, "annotation": {"number": 1, "value": 12}, "group": "control_change"}, {"time": 16713, "annotation": {"number": 1, "value": 13}, "group": "control_change"}, {"time": 16728, "annotation": {"number": 1, "value": 14}, "group": "control_change"}, {"time": 16746, "annotation": {"number": 1, "value": 15}, "group": "control_change"}, {"time": 16775, "annotation": {"number": 1, "value": 16}, "group": "control_change"}, {"time": 16790, "annotation": {"number": 1, "value": 17}, "group": "control_change"}, {"time": 16812, "annotation": {"number": 1, "value": 18}, "group": "control_change"}, {"time": 16826, "annotation": {"number": 1, "value": 19}, "group": "control_change"}, {"time": 16846, "annotation": {"number": 1, "value": 20}, "group": "control_change"}, {"time": 16880, "annotation": {"number": 1, "value": 21}, "group": "control_change"}, {"time": 16978, "annotation": {"number": 1, "value": 22}, "group": "control_change"}, {"time": 17043, "annotation": {"number": 1, "value": 23}, "group": "control_change"}, {"time": 17107, "annotation": {"number": 1, "value": 24}, "group": "control_change"}, {"time": 17189, "annotation": {"number": 1, "value": 25}, "group": "control_change"}, {"time": 17365, "annotation": {"number": 1, "value": 24}, "group": "control_change"}, {"time": 17384, "annotation": {"number": 1, "value": 23}, "group": "control_change"}, {"time": 17397, "annotation": {"number": 1, "value": 22}, "group": "control_change"}, {"time": 17429, "annotation": {"number": 1, "value": 21}, "group": "control_change"}, {"time": 17454, "annotation": {"number": 1, "value": 20}, "group": "control_change"}, {"time": 17471, "annotation": {"number": 1, "value": 19}, "group": "control_change"}, {"time": 17493, "annotation": {"number": 1, "value": 18}, "group": "control_change"}, {"time": 17547, "annotation": {"number": 1, "value": 17}, "group": "control_change"}, {"time": 17587, "annotation": {"number": 1, "value": 16}, "group": "control_change"}, {"time": 17625, "annotation": {"number": 1, "value": 15}, "group": "control_change"}, {"time": 17652, "annotation": {"number": 1, "value": 14}, "group": "control_change"}, {"time": 17669, "annotation": {"number": 1, "value": 13}, "group": "control_change"}, {"time": 17683, "annotation": {"number": 1, "value": 12}, "group": "control_change"}, {"time": 17697, "annotation": {"number": 1, "value": 11}, "group": "control_change"}, {"time": 17709, "annotation": {"number": 1, "value": 10}, "group": "control_change"}, {"time": 17729, "annotation": {"number": 1, "value": 9}, "group": "control_change"}, {"time": 17748, "annotation": {"number": 1, "value": 8}, "group": "control_change"}, {"time": 17765, "annotation": {"number": 1, "value": 7}, "group": "control_change"}, {"time": 17825, "annotation": {"number": 1, "value": 6}, "group": "control_change"}, {"time": 17894, "annotation": {"number": 1, "value": 5}, "group": "control_change"}, {"time": 17915, "annotation": {"number": 1, "value": 4}, "group": "control_change"}, {"time": 17938, "annotation": {"number": 1, "value": 3}, "group": "control_change"}, {"time": 17962, "annotation": {"number": 1, "value": 2}, "group": "control_change"}, {"time": 17979, "annotation": {"number": 1, "value": 1}, "group": "control_change"}, {"time": 18476, "annotation": {"number": 1, "value": 2}, "group": "control_change"}, {"time": 18494, "annotation": {"number": 1, "value": 3}, "group": "control_change"}, {"time": 18619, "annotation": {"number": 1, "value": 2}, "group": "control_change"}, {"time": 18635, "annotation": {"number": 1, "value": 1}, "group": "control_change"}, {"time": 18790, "annotation": {"number": 1, "value": 2}, "group": "control_change"}, {"time": 18822, "annotation": {"number": 1, "value": 3}, "group": "control_change"}, {"time": 18843, "annotation": {"number": 1, "value": 4}, "group": "control_change"}, {"time": 18854, "annotation": {"number": 1, "value": 5}, "group": "control_change"}, {"time": 18861, "annotation": {"number": 1, "value": 6}, "group": "control_change"}, {"time": 18896, "annotation": {"number": 1, "value": 7}, "group": "control_change"}, {"time": 18919, "annotation": {"number": 1, "value": 8}, "group": "control_change"}, {"time": 18939, "annotation": {"number": 1, "value": 9}, "group": "control_change"}, {"time": 18971, "annotation": {"number": 1, "value": 10}, "group": "control_change"}, {"time": 18993, "annotation": {"number": 1, "value": 11}, "group": "control_change"}, {"time": 19020, "annotation": {"number": 1, "value": 12}, "group": "control_change"}, {"time": 19071, "annotation": {"number": 1, "value": 13}, "group": "control_change"}, {"time": 19090, "annotation": {"number": 1, "value": 14}, "group": "control_change"}, {"time": 19123, "annotation": {"number": 1, "value": 15}, "group": "control_change"}, {"time": 19238, "annotation": {"number": 1, "value": 14}, "group": "control_change"}, {"time": 19250, "annotation": {"number": 1, "value": 13}, "group": "control_change"}, {"time": 19262, "annotation": {"number": 1, "value": 12}, "group": "control_change"}, {"time": 19273, "annotation": {"number": 1, "value": 11}, "group": "control_change"}, {"time": 19284, "annotation": {"number": 1, "value": 10}, "group": "control_change"}, {"time": 19301, "annotation": {"number": 1, "value": 9}, "group": "control_change"}, {"time": 19333, "annotation": {"number": 1, "value": 8}, "group": "control_change"}, {"time": 19369, "annotation": {"number": 1, "value": 7}, "group": "control_change"}, {"time": 19409, "annotation": {"number": 1, "value": 6}, "group": "control_change"}, {"time": 19477, "annotation": {"number": 1, "value": 5}, "group": "control_change"}, {"time": 19720, "annotation": {"number": 1, "value": 4}, "group": "control_change"}, {"time": 20068, "annotation": {"number": 1, "value": 5}, "group": "control_change"}, {"time": 20096, "annotation": {"number": 1, "value": 6}, "group": "control_change"}, {"time": 20113, "annotation": {"number": 1, "value": 7}, "group": "control_change"}, {"time": 20120, "annotation": {"number": 1, "value": 8}, "group": "control_change"}, {"time": 20127, "annotation": {"number": 1, "value": 9}, "group": "control_change"}, {"time": 20136, "annotation": {"number": 1, "value": 10}, "group": "control_change"}, {"time": 20143, "annotation": {"number": 1, "value": 11}, "group": "control_change"}, {"time": 20150, "annotation": {"number": 1, "value": 12}, "group": "control_change"}, {"time": 20160, "annotation": {"number": 1, "value": 13}, "group": "control_change"}, {"time": 20170, "annotation": {"number": 1, "value": 14}, "group": "control_change"}, {"time": 20183, "annotation": {"number": 1, "value": 15}, "group": "control_change"}, {"time": 20202, "annotation": {"number": 1, "value": 16}, "group": "control_change"}, {"time": 20222, "annotation": {"number": 1, "value": 17}, "group": "control_change"}, {"time": 20243, "annotation": {"number": 1, "value": 18}, "group": "control_change"}, {"time": 20253, "annotation": {"number": 1, "value": 19}, "group": "control_change"}, {"time": 20276, "annotation": {"number": 1, "value": 20}, "group": "control_change"}, {"time": 20327, "annotation": {"number": 1, "value": 19}, "group": "control_change"}, {"time": 20337, "annotation": {"number": 1, "value": 18}, "group": "control_change"}, {"time": 20345, "annotation": {"number": 1, "value": 17}, "group": "control_change"}, {"time": 20352, "annotation": {"number": 1, "value": 16}, "group": "control_change"}, {"time": 20357, "annotation": {"number": 1, "value": 15}, "group": "control_change"}, {"time": 20364, "annotation": {"number": 1, "value": 14}, "group": "control_change"}, {"time": 20370, "annotation": {"number": 1, "value": 13}, "group": "control_change"}, {"time": 20379, "annotation": {"number": 1, "value": 12}, "group": "control_change"}, {"time": 20389, "annotation": {"number": 1, "value": 11}, "group": "control_change"}, {"time": 20398, "annotation": {"number": 1, "value": 10}, "group": "control_change"}, {"time": 20412, "annotation": {"number": 1, "value": 9}, "group": "control_change"}, {"time": 20430, "annotation": {"number": 1, "value": 8}, "group": "control_change"}, {"time": 20455, "annotation": {"number": 1, "value": 9}, "group": "control_change"}, {"time": 20466, "annotation": {"number": 1, "value": 10}, "group": "control_change"}, {"time": 20472, "annotation": {"number": 1, "value": 11}, "group": "control_change"}, {"time": 20481, "annotation": {"number": 1, "value": 12}, "group": "control_change"}, {"time": 20563, "annotation": {"number": 1, "value": 11}, "group": "control_change"}, {"time": 20574, "annotation": {"number": 1, "value": 10}, "group": "control_change"}, {"time": 20588, "annotation": {"number": 1, "value": 9}, "group": "control_change"}, {"time": 20603, "annotation": {"number": 1, "value": 8}, "group": "control_change"}, {"time": 20614, "annotation": {"number": 1, "value": 7}, "group": "control_change"}, {"time": 20630, "annotation": {"number": 1, "value": 6}, "group": "control_change"}, {"time": 20646, "annotation": {"number": 1, "value": 5}, "group": "control_change"}, {"time": 20663, "annotation": {"number": 1, "value": 4}, "group": "control_change"}, {"time": 20706, "annotation": {"number": 1, "value": 5}, "group": "control_change"}, {"time": 20715, "annotation": {"number": 1, "value": 6}, "group": "control_change"}, {"time": 20732, "annotation": {"number": 1, "value": 7}, "group": "control_change"}, {"time": 20741, "annotation": {"number": 1, "value": 8}, "group": "control_change"}, {"time": 20755, "annotation": {"number": 1, "value": 9}, "group": "control_change"}, {"time": 20800, "annotation": {"number": 1, "value": 10}, "group": "control_change"}, {"time": 20813, "annotation": {"number": 1, "value": 11}, "group": "control_change"}, {"time": 20831, "annotation": {"number": 1, "value": 12}, "group": "control_change"}, {"time": 20853, "annotation": {"number": 1, "value": 13}, "group": "control_change"}, {"time": 20879, "annotation": {"number": 1, "value": 14}, "group": "control_change"}, {"time": 20908, "annotation": {"number": 1, "value": 15}, "group": "control_change"}, {"time": 20938, "annotation": {"number": 1, "value": 16}, "group": "control_change"}, {"time": 20957, "annotation": {"number": 1, "value": 17}, "group": "control_change"}, {"time": 21063, "annotation": {"number": 1, "value": 18}, "group": "control_change"}, {"time": 21112, "annotation": {"number": 1, "value": 17}, "group": "control_change"}, {"time": 21125, "annotation": {"number": 1, "value": 16}, "group": "control_change"}, {"time": 21132, "annotation": {"number": 1, "value": 15}, "group": "control_change"}, {"time": 21142, "annotation": {"number": 1, "value": 14}, "group": "control_change"}, {"time": 21151, "annotation": {"number": 1, "value": 13}, "group": "control_change"}, {"time": 21160, "annotation": {"number": 1, "value": 12}, "group": "control_change"}, {"time": 21172, "annotation": {"number": 1, "value": 11}, "group": "control_change"}, {"time": 21183, "annotation": {"number": 1, "value": 10}, "group": "control_change"}, {"time": 21198, "annotation": {"number": 1, "value": 9}, "group": "control_change"}, {"time": 21213, "annotation": {"number": 1, "value": 8}, "group": "control_change"}, {"time": 21229, "annotation": {"number": 1, "value": 7}, "group": "control_change"}, {"time": 21264, "annotation": {"number": 1, "value": 6}, "group": "control_change"}, {"time": 21467, "annotation": {"number": 1, "value": 7}, "group": "control_change"}, {"time": 21487, "annotation": {"number": 1, "value": 8}, "group": "control_change"}, {"time": 21512, "annotation": {"number": 1, "value": 9}, "group": "control_change"}, {"time": 21536, "annotation": {"number": 1, "value": 10}, "group": "control_change"}, {"time": 21548, "annotation": {"number": 1, "value": 11}, "group": "control_change"}, {"time": 21571, "annotation": {"number": 1, "value": 12}, "group": "control_change"}, {"time": 21603, "annotation": {"number": 1, "value": 13}, "group": "control_change"}, {"time": 21653, "annotation": {"number": 1, "value": 14}, "group": "control_change"}, {"time": 21682, "annotation": {"number": 1, "value": 15}, "group": "control_change"}, {"time": 21702, "annotation": {"number": 1, "value": 16}, "group": "control_change"}, {"time": 21742, "annotation": {"number": 1, "value": 17}, "group": "control_change"}, {"time": 21769, "annotation": {"number": 1, "value": 18}, "group": "control_change"}, {"time": 21789, "annotation": {"number": 1, "value": 19}, "group": "control_change"}, {"time": 21816, "annotation": {"number": 1, "value": 20}, "group": "control_change"}, {"time": 21830, "annotation": {"number": 1, "value": 21}, "group": "control_change"}, {"time": 21851, "annotation": {"number": 1, "value": 22}, "group": "control_change"}, {"time": 21873, "annotation": {"number": 1, "value": 23}, "group": "control_change"}, {"time": 21898, "annotation": {"number": 1, "value": 24}, "group": "control_change"}, {"time": 21918, "annotation": {"number": 1, "value": 25}, "group": "control_change"}, {"time": 21936, "annotation": {"number": 1, "value": 26}, "group": "control_change"}, {"time": 21960, "annotation": {"number": 1, "value": 27}, "group": "control_change"}, {"time": 21994, "annotation": {"number": 1, "value": 28}, "group": "control_change"}, {"time": 22021, "annotation": {"number": 1, "value": 29}, "group": "control_change"}, {"time": 22046, "annotation": {"number": 1, "value": 30}, "group": "control_change"}, {"time": 22066, "annotation": {"number": 1, "value": 31}, "group": "control_change"}, {"time": 22087, "annotation": {"number": 1, "value": 32}, "group": "control_change"}, {"time": 22180, "annotation": {"number": 1, "value": 31}, "group": "control_change"}, {"time": 22193, "annotation": {"number": 1, "value": 30}, "group": "control_change"}, {"time": 22199, "annotation": {"number": 1, "value": 29}, "group": "control_change"}, {"time": 22207, "annotation": {"number": 1, "value": 28}, "group": "control_change"}, {"time": 22216, "annotation": {"number": 1, "value": 27}, "group": "control_change"}, {"time": 22221, "annotation": {"number": 1, "value": 26}, "group": "control_change"}, {"time": 22229, "annotation": {"number": 1, "value": 25}, "group": "control_change"}, {"time": 22237, "annotation": {"number": 1, "value": 24}, "group": "control_change"}, {"time": 22242, "annotation": {"number": 1, "value": 23}, "group": "control_change"}, {"time": 22248, "annotation": {"number": 1, "value": 22}, "group": "control_change"}, {"time": 22255, "annotation": {"number": 1, "value": 21}, "group": "control_change"}, {"time": 22263, "annotation": {"number": 1, "value": 20}, "group": "control_change"}, {"time": 22268, "annotation": {"number": 1, "value": 19}, "group": "control_change"}, {"time": 22274, "annotation": {"number": 1, "value": 18}, "group": "control_change"}, {"time": 22280, "annotation": {"number": 1, "value": 17}, "group": "control_change"}, {"time": 22287, "annotation": {"number": 1, "value": 16}, "group": "control_change"}, {"time": 22294, "annotation": {"number": 1, "value": 15}, "group": "control_change"}, {"time": 22304, "annotation": {"number": 1, "value": 14}, "group": "control_change"}, {"time": 22316, "annotation": {"number": 1, "value": 13}, "group": "control_change"}, {"time": 22340, "annotation": {"number": 1, "value": 12}, "group": "control_change"}, {"time": 22367, "annotation": {"number": 1, "value": 11}, "group": "control_change"}, {"time": 22388, "annotation": {"number": 1, "value": 10}, "group": "control_change"}, {"time": 22594, "annotation": {"number": 1, "value": 9}, "group": "control_change"}, {"time": 22637, "annotation": {"number": 1, "value": 8}, "group": "control_change"}, {"time": 23428, "annotation": {"number": 1, "value": 9}, "group": "control_change"}, {"time": 23470, "annotation": {"number": 1, "value": 10}, "group": "control_change"}, {"time": 23493, "annotation": {"number": 1, "value": 11}, "group": "control_change"}, {"time": 23518, "annotation": {"number": 1, "value": 12}, "group": "control_change"}, {"time": 23530, "annotation": {"number": 1, "value": 13}, "group": "control_change"}, {"time": 23538, "annotation": {"number": 1, "value": 14}, "group": "control_change"}, {"time": 23547, "annotation": {"number": 1, "value": 15}, "group": "control_change"}, {"time": 23553, "annotation": {"number": 1, "value": 16}, "group": "control_change"}, {"time": 23561, "annotation": {"number": 1, "value": 17}, "group": "control_change"}, {"time": 23572, "annotation": {"number": 1, "value": 18}, "group": "control_change"}, {"time": 23583, "annotation": {"number": 1, "value": 19}, "group": "control_change"}, {"time": 23640, "annotation": {"number": 1, "value": 18}, "group": "control_change"}, {"time": 23645, "annotation": {"number": 1, "value": 17}, "group": "control_change"}, {"time": 23651, "annotation": {"number": 1, "value": 16}, "group": "control_change"}, {"time": 23654, "annotation": {"number": 1, "value": 15}, "group": "control_change"}, {"time": 23659, "annotation": {"number": 1, "value": 14}, "group": "control_change"}, {"time": 23662, "annotation": {"number": 1, "value": 13}, "group": "control_change"}, {"time": 23667, "annotation": {"number": 1, "value": 12}, "group": "control_change"}, {"time": 23670, "annotation": {"number": 1, "value": 11}, "group": "control_change"}, {"time": 23673, "annotation": {"number": 1, "value": 10}, "group": "control_change"}, {"time": 23678, "annotation": {"number": 1, "value": 9}, "group": "control_change"}, {"time": 23681, "annotation": {"number": 1, "value": 8}, "group": "control_change"}, {"time": 23684, "annotation": {"number": 1, "value": 7}, "group": "control_change"}, {"time": 23689, "annotation": {"number": 1, "value": 6}, "group": "control_change"}, {"time": 23695, "annotation": {"number": 1, "value": 5}, "group": "control_change"}, {"time": 23700, "annotation": {"number": 1, "value": 4}, "group": "control_change"}, {"time": 23742, "annotation": {"number": 1, "value": 5}, "group": "control_change"}, {"time": 23747, "annotation": {"number": 1, "value": 6}, "group": "control_change"}, {"time": 23757, "annotation": {"number": 1, "value": 7}, "group": "control_change"}, {"time": 23762, "annotation": {"number": 1, "value": 8}, "group": "control_change"}, {"time": 23768, "annotation": {"number": 1, "value": 9}, "group": "control_change"}, {"time": 23777, "annotation": {"number": 1, "value": 10}, "group": "control_change"}, {"time": 23782, "annotation": {"number": 1, "value": 11}, "group": "control_change"}, {"time": 23792, "annotation": {"number": 1, "value": 12}, "group": "control_change"}, {"time": 23805, "annotation": {"number": 1, "value": 13}, "group": "control_change"}, {"time": 23816, "annotation": {"number": 1, "value": 14}, "group": "control_change"}, {"time": 23834, "annotation": {"number": 1, "value": 15}, "group": "control_change"}, {"time": 23871, "annotation": {"number": 1, "value": 14}, "group": "control_change"}, {"time": 23877, "annotation": {"number": 1, "value": 13}, "group": "control_change"}, {"time": 23883, "annotation": {"number": 1, "value": 12}, "group": "control_change"}, {"time": 23889, "annotation": {"number": 1, "value": 11}, "group": "control_change"}, {"time": 23894, "annotation": {"number": 1, "value": 10}, "group": "control_change"}, {"time": 23901, "annotation": {"number": 1, "value": 9}, "group": "control_change"}, {"time": 23907, "annotation": {"number": 1, "value": 8}, "group": "control_change"}, {"time": 23913, "annotation": {"number": 1, "value": 7}, "group": "control_change"}, {"time": 23922, "annotation": {"number": 1, "value": 6}, "group": "control_change"}, {"time": 23929, "annotation": {"number": 1, "value": 5}, "group": "control_change"}, {"time": 23936, "annotation": {"number": 1, "value": 4}, "group": "control_change"}, {"time": 23948, "annotation": {"number": 1, "value": 3}, "group": "control_change"}, {"time": 24001, "annotation": {"number": 1, "value": 4}, "group": "control_change"}, {"time": 24011, "annotation": {"number": 1, "value": 5}, "group": "control_change"}, {"time": 24017, "annotation": {"number": 1, "value": 6}, "group": "control_change"}, {"time": 24027, "annotation": {"number": 1, "value": 7}, "group": "control_change"}, {"time": 24031, "annotation": {"number": 1, "value": 8}, "group": "control_change"}, {"time": 24037, "annotation": {"number": 1, "value": 9}, "group": "control_change"}, {"time": 24045, "annotation": {"number": 1, "value": 10}, "group": "control_change"}, {"time": 24049, "annotation": {"number": 1, "value": 11}, "group": "control_change"}, {"time": 24054, "annotation": {"number": 1, "value": 12}, "group": "control_change"}, {"time": 24064, "annotation": {"number": 1, "value": 13}, "group": "control_change"}, {"time": 24089, "annotation": {"number": 1, "value": 14}, "group": "control_change"}, {"time": 24111, "annotation": {"number": 1, "value": 13}, "group": "control_change"}, {"time": 24119, "annotation": {"number": 1, "value": 12}, "group": "control_change"}, {"time": 24126, "annotation": {"number": 1, "value": 11}, "group": "control_change"}, {"time": 24131, "annotation": {"number": 1, "value": 10}, "group": "control_change"}, {"time": 24136, "annotation": {"number": 1, "value": 9}, "group": "control_change"}, {"time": 24140, "annotation": {"number": 1, "value": 8}, "group": "control_change"}, {"time": 24144, "annotation": {"number": 1, "value": 7}, "group": "control_change"}, {"time": 24150, "annotation": {"number": 1, "value": 6}, "group": "control_change"}, {"time": 24155, "annotation": {"number": 1, "value": 5}, "group": "control_change"}, {"time": 24159, "annotation": {"number": 1, "value": 4}, "group": "control_change"}, {"time": 24165, "annotation": {"number": 1, "value": 3}, "group": "control_change"}, {"time": 24172, "annotation": {"number": 1, "value": 2}, "group": "control_change"}, {"time": 24178, "annotation": {"number": 1, "value": 1}, "group": "control_change"}, {"time": 24325, "annotation": {"number": 1, "value": 2}, "group": "control_change"}, {"time": 24356, "annotation": {"number": 1, "value": 3}, "group": "control_change"}, {"time": 24380, "annotation": {"number": 1, "value": 4}, "group": "control_change"}, {"time": 24418, "annotation": {"number": 1, "value": 5}, "group": "control_change"}, {"time": 24427, "annotation": {"number": 1, "value": 6}, "group": "control_change"}, {"time": 24437, "annotation": {"number": 1, "value": 7}, "group": "control_change"}, {"time": 24441, "annotation": {"number": 1, "value": 8}, "group": "control_change"}, {"time": 24447, "annotation": {"number": 1, "value": 9}, "group": "control_change"}, {"time": 24453, "annotation": {"number": 1, "value": 10}, "group": "control_change"}, {"time": 24459, "annotation": {"number": 1, "value": 11}, "group": "control_change"}, {"time": 24471, "annotation": {"number": 1, "value": 12}, "group": "control_change"}, {"time": 24487, "annotation": {"number": 1, "value": 13}, "group": "control_change"}, {"time": 24500, "annotation": {"number": 1, "value": 14}, "group": "control_change"}, {"time": 24514, "annotation": {"number": 1, "value": 15}, "group": "control_change"}, {"time": 24540, "annotation": {"number": 1, "value": 16}, "group": "control_change"}, {"time": 24561, "annotation": {"number": 1, "value": 17}, "group": "control_change"}, {"time": 24578, "annotation": {"number": 1, "value": 18}, "group": "control_change"}, {"time": 24588, "annotation": {"number": 1, "value": 19}, "group": "control_change"}, {"time": 24660, "annotation": {"number": 1, "value": 20}, "group": "control_change"}, {"time": 24714, "annotation": {"number": 1, "value": 21}, "group": "control_change"}, {"time": 24735, "annotation": {"number": 1, "value": 22}, "group": "control_change"}, {"time": 24781, "annotation": {"number": 1, "value": 23}, "group": "control_change"}, {"time": 24814, "annotation": {"number": 1, "value": 24}, "group": "control_change"}, {"time": 24870, "annotation": {"number": 1, "value": 25}, "group": "control_change"}, {"time": 24896, "annotation": {"number": 1, "value": 26}, "group": "control_change"}, {"time": 24935, "annotation": {"number": 1, "value": 27}, "group": "control_change"}, {"time": 24960, "annotation": {"number": 1, "value": 28}, "group": "control_change"}, {"time": 25015, "annotation": {"number": 1, "value": 29}, "group": "control_change"}, {"time": 25036, "annotation": {"number": 1, "value": 30}, "group": "control_change"}, {"time": 25070, "annotation": {"number": 1, "value": 31}, "group": "control_change"}, {"time": 25148, "annotation": {"number": 1, "value": 32}, "group": "control_change"}, {"time": 25185, "annotation": {"number": 1, "value": 33}, "group": "control_change"}, {"time": 25206, "annotation": {"number": 1, "value": 34}, "group": "control_change"}, {"time": 25216, "annotation": {"number": 1, "value": 35}, "group": "control_change"}, {"time": 25229, "annotation": {"number": 1, "value": 36}, "group": "control_change"}, {"time": 25250, "annotation": {"number": 1, "value": 37}, "group": "control_change"}, {"time": 25292, "annotation": {"number": 1, "value": 38}, "group": "control_change"}, {"time": 25421, "annotation": {"number": 1, "value": 39}, "group": "control_change"}, {"time": 25562, "annotation": {"number": 1, "value": 40}, "group": "control_change"}, {"time": 25588, "annotation": {"number": 1, "value": 41}, "group": "control_change"}, {"time": 25604, "annotation": {"number": 1, "value": 42}, "group": "control_change"}, {"time": 25822, "annotation": {"number": 1, "value": 41}, "group": "control_change"}, {"time": 25834, "annotation": {"number": 1, "value": 40}, "group": "control_change"}, {"time": 25841, "annotation": {"number": 1, "value": 39}, "group": "control_change"}, {"time": 25851, "annotation": {"number": 1, "value": 38}, "group": "control_change"}, {"time": 25857, "annotation": {"number": 1, "value": 37}, "group": "control_change"}, {"time": 25862, "annotation": {"number": 1, "value": 36}, "group": "control_change"}, {"time": 25870, "annotation": {"number": 1, "value": 35}, "group": "control_change"}, {"time": 25875, "annotation": {"number": 1, "value": 34}, "group": "control_change"}, {"time": 25882, "annotation": {"number": 1, "value": 33}, "group": "control_change"}, {"time": 25889, "annotation": {"number": 1, "value": 32}, "group": "control_change"}, {"time": 25898, "annotation": {"number": 1, "value": 31}, "group": "control_change"}, {"time": 25910, "annotation": {"number": 1, "value": 30}, "group": "control_change"}, {"time": 25919, "annotation": {"number": 1, "value": 29}, "group": "control_change"}, {"time": 25936, "annotation": {"number": 1, "value": 28}, "group": "control_change"}, {"time": 25950, "annotation": {"number": 1, "value": 27}, "group": "control_change"}, {"time": 25961, "annotation": {"number": 1, "value": 26}, "group": "control_change"}, {"time": 25972, "annotation": {"number": 1, "value": 25}, "group": "control_change"}, {"time": 25982, "annotation": {"number": 1, "value": 24}, "group": "control_change"}, {"time": 25989, "annotation": {"number": 1, "value": 23}, "group": "control_change"}, {"time": 25997, "annotation": {"number": 1, "value": 22}, "group": "control_change"}, {"time": 26015, "annotation": {"number": 1, "value": 21}, "group": "control_change"}, {"time": 26050, "annotation": {"number": 1, "value": 20}, "group": "control_change"}, {"time": 26126, "annotation": {"number": 1, "value": 19}, "group": "control_change"}, {"time": 26262, "annotation": {"number": 1, "value": 18}, "group": "control_change"}, {"time": 26277, "annotation": {"number": 1, "value": 17}, "group": "control_change"}, {"time": 26289, "annotation": {"number": 1, "value": 16}, "group": "control_change"}, {"time": 26298, "annotation": {"number": 1, "value": 15}, "group": "control_change"}, {"time": 26419, "annotation": {"number": 1, "value": 16}, "group": "control_change"}, {"time": 26428, "annotation": {"number": 1, "value": 17}, "group": "control_change"}, {"time": 26472, "annotation": {"number": 1, "value": 18}, "group": "control_change"}, {"time": 26499, "annotation": {"number": 1, "value": 19}, "group": "control_change"}, {"time": 26517, "annotation": {"number": 1, "value": 20}, "group": "control_change"}, {"time": 26529, "annotation": {"number": 1, "value": 21}, "group": "control_change"}, {"time": 26645, "annotation": {"number": 1, "value": 20}, "group": "control_change"}, {"time": 26665, "annotation": {"number": 1, "value": 19}, "group": "control_change"}, {"time": 26695, "annotation": {"number": 1, "value": 18}, "group": "control_change"}, {"time": 26711, "annotation": {"number": 1, "value": 17}, "group": "control_change"}, {"time": 26759, "annotation": {"number": 1, "value": 18}, "group": "control_change"}, {"time": 26765, "annotation": {"number": 1, "value": 19}, "group": "control_change"}, {"time": 26773, "annotation": {"number": 1, "value": 20}, "group": "control_change"}, {"time": 26778, "annotation": {"number": 1, "value": 21}, "group": "control_change"}, {"time": 26785, "annotation": {"number": 1, "value": 22}, "group": "control_change"}, {"time": 26792, "annotation": {"number": 1, "value": 23}, "group": "control_change"}, {"time": 26798, "annotation": {"number": 1, "value": 24}, "group": "control_change"}, {"time": 26805, "annotation": {"number": 1, "value": 25}, "group": "control_change"}, {"time": 26815, "annotation": {"number": 1, "value": 26}, "group": "control_change"}, {"time": 26823, "annotation": {"number": 1, "value": 27}, "group": "control_change"}, {"time": 26836, "annotation": {"number": 1, "value": 28}, "group": "control_change"}, {"time": 26909, "annotation": {"number": 1, "value": 27}, "group": "control_change"}, {"time": 26921, "annotation": {"number": 1, "value": 26}, "group": "control_change"}, {"time": 26935, "annotation": {"number": 1, "value": 25}, "group": "control_change"}, {"time": 26947, "annotation": {"number": 1, "value": 24}, "group": "control_change"}, {"time": 26954, "annotation": {"number": 1, "value": 23}, "group": "control_change"}, {"time": 26960, "annotation": {"number": 1, "value": 22}, "group": "control_change"}, {"time": 26970, "annotation": {"number": 1, "value": 21}, "group": "control_change"}, {"time": 26980, "annotation": {"number": 1, "value": 20}, "group": "control_change"}, {"time": 26988, "annotation": {"number": 1, "value": 19}, "group": "control_change"}, {"time": 27003, "annotation": {"number": 1, "value": 18}, "group": "control_change"}, {"time": 27024, "annotation": {"number": 1, "value": 17}, "group": "control_change"}, {"time": 27046, "annotation": {"number": 1, "value": 16}, "group": "control_change"}, {"time": 27064, "annotation": {"number": 1, "value": 15}, "group": "control_change"}, {"time": 27091, "annotation": {"number": 1, "value": 14}, "group": "control_change"}, {"time": 27717, "annotation": {"number": 1, "value": 15}, "group": "control_change"}, {"time": 27737, "annotation": {"number": 1, "value": 16}, "group": "control_change"}, {"time": 27756, "annotation": {"number": 1, "value": 17}, "group": "control_change"}, {"time": 27840, "annotation": {"number": 1, "value": 18}, "group": "control_change"}, {"time": 27923, "annotation": {"number": 1, "value": 19}, "group": "control_change"}, {"time": 27953, "annotation": {"number": 1, "value": 20}, "group": "control_change"}, {"time": 27967, "annotation": {"number": 1, "value": 21}, "group": "control_change"}, {"time": 27993, "annotation": {"number": 1, "value": 22}, "group": "control_change"}, {"time": 28100, "annotation": {"number": 1, "value": 21}, "group": "control_change"}, {"time": 28112, "annotation": {"number": 1, "value": 20}, "group": "control_change"}, {"time": 28120, "annotation": {"number": 1, "value": 19}, "group": "control_change"}, {"time": 28129, "annotation": {"number": 1, "value": 18}, "group": "control_change"}, {"time": 28138, "annotation": {"number": 1, "value": 17}, "group": "control_change"}, {"time": 28150, "annotation": {"number": 1, "value": 16}, "group": "control_change"}, {"time": 28166, "annotation": {"number": 1, "value": 15}, "group": "control_change"}, {"time": 28282, "annotation": {"number": 1, "value": 16}, "group": "control_change"}, {"time": 28314, "annotation": {"number": 1, "value": 17}, "group": "control_change"}, {"time": 28359, "annotation": {"number": 1, "value": 18}, "group": "control_change"}, {"time": 28377, "annotation": {"number": 1, "value": 19}, "group": "control_change"}, {"time": 28404, "annotation": {"number": 1, "value": 20}, "group": "control_change"}, {"time": 28420, "annotation": {"number": 1, "value": 21}, "group": "control_change"}, {"time": 28438, "annotation": {"number": 1, "value": 22}, "group": "control_change"}, {"time": 28451, "annotation": {"number": 1, "value": 23}, "group": "control_change"}, {"time": 28462, "annotation": {"number": 1, "value": 24}, "group": "control_change"}, {"time": 28473, "annotation": {"number": 1, "value": 25}, "group": "control_change"}, {"time": 28494, "annotation": {"number": 1, "value": 26}, "group": "control_change"}, {"time": 28517, "annotation": {"number": 1, "value": 27}, "group": "control_change"}, {"time": 28540, "annotation": {"number": 1, "value": 28}, "group": "control_change"}, {"time": 28580, "annotation": {"number": 1, "value": 29}, "group": "control_change"}, {"time": 28609, "annotation": {"number": 1, "value": 30}, "group": "control_change"}, {"time": 28715, "annotation": {"number": 1, "value": 29}, "group": "control_change"}, {"time": 28743, "annotation": {"number": 1, "value": 28}, "group": "control_change"}, {"time": 28765, "annotation": {"number": 1, "value": 27}, "group": "control_change"}, {"time": 28780, "annotation": {"number": 1, "value": 26}, "group": "control_change"}, {"time": 28795, "annotation": {"number": 1, "value": 25}, "group": "control_change"}, {"time": 28810, "annotation": {"number": 1, "value": 24}, "group": "control_change"}, {"time": 28824, "annotation": {"number": 1, "value": 23}, "group": "control_change"}, {"time": 28843, "annotation": {"number": 1, "value": 22}, "group": "control_change"}, {"time": 28878, "annotation": {"number": 1, "value": 21}, "group": "control_change"}, {"time": 28947, "annotation": {"number": 1, "value": 22}, "group": "control_change"}, {"time": 28963, "annotation": {"number": 1, "value": 23}, "group": "control_change"}, {"time": 28982, "annotation": {"number": 1, "value": 24}, "group": "control_change"}, {"time": 29016, "annotation": {"number": 1, "value": 25}, "group": "control_change"}, {"time": 29101, "annotation": {"number": 1, "value": 24}, "group": "control_change"}, {"time": 29111, "annotation": {"number": 1, "value": 23}, "group": "control_change"}, {"time": 29123, "annotation": {"number": 1, "value": 22}, "group": "control_change"}, {"time": 29136, "annotation": {"number": 1, "value": 21}, "group": "control_change"}, {"time": 29151, "annotation": {"number": 1, "value": 20}, "group": "control_change"}, {"time": 29206, "annotation": {"number": 1, "value": 21}, "group": "control_change"}, {"time": 29224, "annotation": {"number": 1, "value": 22}, "group": "control_change"}, {"time": 29245, "annotation": {"number": 1, "value": 23}, "group": "control_change"}, {"time": 29279, "annotation": {"number": 1, "value": 24}, "group": "control_change"}, {"time": 29307, "annotation": {"number": 1, "value": 25}, "group": "control_change"}, {"time": 29331, "annotation": {"number": 1, "value": 26}, "group": "control_change"}, {"time": 29357, "annotation": {"number": 1, "value": 27}, "group": "control_change"}, {"time": 29413, "annotation": {"number": 1, "value": 28}, "group": "control_change"}, {"time": 29442, "annotation": {"number": 1, "value": 29}, "group": "control_change"}, {"time": 29465, "annotation": {"number": 1, "value": 30}, "group": "control_change"}, {"time": 29533, "annotation": {"number": 1, "value": 31}, "group": "control_change"}, {"time": 29607, "annotation": {"number": 1, "value": 32}, "group": "control_change"}, {"time": 29661, "annotation": {"number": 1, "value": 31}, "group": "control_change"}, {"time": 29684, "annotation": {"number": 1, "value": 30}, "group": "control_change"}, {"time": 29696, "annotation": {"number": 1, "value": 29}, "group": "control_change"}, {"time": 29708, "annotation": {"number": 1, "value": 28}, "group": "control_change"}, {"time": 29720, "annotation": {"number": 1, "value": 27}, "group": "control_change"}, {"time": 29732, "annotation": {"number": 1, "value": 26}, "group": "control_change"}, {"time": 29750, "annotation": {"number": 1, "value": 25}, "group": "control_change"}, {"time": 29769, "annotation": {"number": 1, "value": 24}, "group": "control_change"}, {"time": 29783, "annotation": {"number": 1, "value": 23}, "group": "control_change"}, {"time": 29798, "annotation": {"number": 1, "value": 22}, "group": "control_change"}, {"time": 29825, "annotation": {"number": 1, "value": 21}, "group": "control_change"}, {"time": 29886, "annotation": {"number": 1, "value": 20}, "group": "control_change"}, {"time": 29937, "annotation": {"number": 1, "value": 19}, "group": "control_change"}, {"time": 29975, "annotation": {"number": 1, "value": 18}, "group": "control_change"}, {"time": 30020, "annotation": {"number": 1, "value": 17}, "group": "control_change"}, {"time": 30067, "annotation": {"number": 1, "value": 16}, "group": "control_change"}, {"time": 30090, "annotation": {"number": 1, "value": 15}, "group": "control_change"}, {"time": 30112, "annotation": {"number": 1, "value": 14}, "group": "control_change"}, {"time": 30130, "annotation": {"number": 1, "value": 13}, "group": "control_change"}, {"time": 30261, "annotation": {"number": 1, "value": 12}, "group": "control_change"}, {"time": 31635, "annotation": {"number": 1, "value": 11}, "group": "control_change"}, {"time": 31743, "annotation": {"number": 1, "value": 10}, "group": "control_change"}, {"time": 31761, "annotation": {"number": 1, "value": 9}, "group": "control_change"}, {"time": 31778, "annotation": {"number": 1, "value": 8}, "group": "control_change"}, {"time": 31794, "annotation": {"number": 1, "value": 7}, "group": "control_change"}, {"time": 31813, "annotation": {"number": 1, "value": 6}, "group": "control_change"}, {"time": 31839, "annotation": {"number": 1, "value": 5}, "group": "control_change"}, {"time": 31866, "annotation": {"number": 1, "value": 4}, "group": "control_change"}, {"time": 31920, "annotation": {"number": 1, "value": 3}, "group": "control_change"}, {"time": 31975, "annotation": {"number": 1, "value": 2}, "group": "control_change"}, {"time": 32109, "annotation": {"number": 1, "value": 1}, "group": "control_change"}, {"time": 32362, "annotation": {"number": 1, "value": 2}, "group": "control_change"}, {"time": 32377, "annotation": {"number": 1, "value": 3}, "group": "control_change"}, {"time": 32423, "annotation": {"number": 1, "value": 4}, "group": "control_change"}, {"time": 32436, "annotation": {"number": 1, "value": 5}, "group": "control_change"}, {"time": 32446, "annotation": {"number": 1, "value": 6}, "group": "control_change"}, {"time": 32522, "annotation": {"number": 1, "value": 5}, "group": "control_change"}, {"time": 32537, "annotation": {"number": 1, "value": 4}, "group": "control_change"}, {"time": 32554, "annotation": {"number": 1, "value": 3}, "group": "control_change"}, {"time": 34981, "annotation": {"number": 1, "value": 4}, "group": "control_change"}, {"time": 35070, "annotation": {"number": 1, "value": 3}, "group": "control_change"}, {"time": 35077, "annotation": {"number": 1, "value": 2}, "group": "control_change"}, {"time": 35083, "annotation": {"number": 1, "value": 1}, "group": "control_change"}, {"time": 35169, "annotation": {"number": 1, "value": 2}, "group": "control_change"}, {"time": 35180, "annotation": {"number": 1, "value": 3}, "group": "control_change"}, {"time": 35200, "annotation": {"number": 1, "value": 4}, "group": "control_change"}, {"time": 35209, "annotation": {"number": 1, "value": 5}, "group": "control_change"}, {"time": 35217, "annotation": {"number": 1, "value": 6}, "group": "control_change"}, {"time": 35239, "annotation": {"number": 1, "value": 7}, "group": "control_change"}, {"time": 35265, "annotation": {"number": 1, "value": 8}, "group": "control_change"}, {"time": 35289, "annotation": {"number": 1, "value": 9}, "group": "control_change"}, {"time": 35318, "annotation": {"number": 1, "value": 10}, "group": "control_change"}, {"time": 35333, "annotation": {"number": 1, "value": 11}, "group": "control_change"}, {"time": 35354, "annotation": {"number": 1, "value": 12}, "group": "control_change"}, {"time": 35376, "annotation": {"number": 1, "value": 13}, "group": "control_change"}, {"time": 35388, "annotation": {"number": 1, "value": 14}, "group": "control_change"}, {"time": 35402, "annotation": {"number": 1, "value": 15}, "group": "control_change"}, {"time": 35420, "annotation": {"number": 1, "value": 16}, "group": "control_change"}, {"time": 35452, "annotation": {"number": 1, "value": 15}, "group": "control_change"}, {"time": 35463, "annotation": {"number": 1, "value": 14}, "group": "control_change"}, {"time": 35473, "annotation": {"number": 1, "value": 13}, "group": "control_change"}, {"time": 35483, "annotation": {"number": 1, "value": 12}, "group": "control_change"}, {"time": 35494, "annotation": {"number": 1, "value": 11}, "group": "control_change"}, {"time": 35505, "annotation": {"number": 1, "value": 10}, "group": "control_change"}, {"time": 35521, "annotation": {"number": 1, "value": 9}, "group": "control_change"}, {"time": 35549, "annotation": {"number": 1, "value": 8}, "group": "control_change"}, {"time": 35623, "annotation": {"number": 1, "value": 7}, "group": "control_change"}, {"time": 35687, "annotation": {"number": 1, "value": 6}, "group": "control_change"}, {"time": 35723, "annotation": {"number": 1, "value": 5}, "group": "control_change"}, {"time": 35745, "annotation": {"number": 1, "value": 4}, "group": "control_change"}, {"time": 35950, "annotation": {"number": 1, "value": 5}, "group": "control_change"}, {"time": 35997, "annotation": {"number": 1, "value": 6}, "group": "control_change"}, {"time": 36123, "annotation": {"number": 1, "value": 7}, "group": "control_change"}, {"time": 36137, "annotation": {"number": 1, "value": 8}, "group": "control_change"}, {"time": 36150, "annotation": {"number": 1, "value": 9}, "group": "control_change"}, {"time": 36165, "annotation": {"number": 1, "value": 10}, "group": "control_change"}, {"time": 36175, "annotation": {"number": 1, "value": 11}, "group": "control_change"}, {"time": 36190, "annotation": {"number": 1, "value": 12}, "group": "control_change"}, {"time": 36216, "annotation": {"number": 1, "value": 13}, "group": "control_change"}, {"time": 36234, "annotation": {"number": 1, "value": 14}, "group": "control_change"}, {"time": 36262, "annotation": {"number": 1, "value": 15}, "group": "control_change"}, {"time": 36356, "annotation": {"number": 1, "value": 14}, "group": "control_change"}, {"time": 36380, "annotation": {"number": 1, "value": 13}, "group": "control_change"}, {"time": 36452, "annotation": {"number": 1, "value": 12}, "group": "control_change"}, {"time": 36484, "annotation": {"number": 1, "value": 11}, "group": "control_change"}, {"time": 36542, "annotation": {"number": 1, "value": 10}, "group": "control_change"}, {"time": 36585, "annotation": {"number": 1, "value": 9}, "group": "control_change"}, {"time": 36657, "annotation": {"number": 1, "value": 8}, "group": "control_change"}, {"time": 36697, "annotation": {"number": 1, "value": 7}, "group": "control_change"}, {"time": 36804, "annotation": {"number": 1, "value": 6}, "group": "control_change"}, {"time": 36848, "annotation": {"number": 1, "value": 5}, "group": "control_change"}, {"time": 37057, "annotation": {"number": 1, "value": 6}, "group": "control_change"}, {"time": 37083, "annotation": {"number": 1, "value": 7}, "group": "control_change"}, {"time": 37109, "annotation": {"number": 1, "value": 8}, "group": "control_change"}, {"time": 37381, "annotation": {"number": 1, "value": 9}, "group": "control_change"}, {"time": 37404, "annotation": {"number": 1, "value": 10}, "group": "control_change"}, {"time": 37420, "annotation": {"number": 1, "value": 11}, "group": "control_change"}, {"time": 38384, "annotation": {"number": 1, "value": 10}, "group": "control_change"}, {"time": 38705, "annotation": {"number": 1, "value": 9}, "group": "control_change"}, {"time": 39184, "annotation": {"number": 1, "value": 8}, "group": "control_change"}, {"time": 39211, "annotation": {"number": 1, "value": 7}, "group": "control_change"}, {"time": 39397, "annotation": {"number": 1, "value": 6}, "group": "control_change"}, {"time": 39473, "annotation": {"number": 1, "value": 5}, "group": "control_change"}, {"time": 39498, "annotation": {"number": 1, "value": 4}, "group": "control_change"}, {"time": 39523, "annotation": {"number": 1, "value": 3}, "group": "control_change"}, {"time": 39877, "annotation": {"number": 1, "value": 4}, "group": "control_change"}, {"time": 39902, "annotation": {"number": 1, "value": 5}, "group": "control_change"}, {"time": 39969, "annotation": {"number": 1, "value": 6}, "group": "control_change"}, {"time": 40055, "annotation": {"number": 1, "value": 7}, "group": "control_change"}, {"time": 40109, "annotation": {"number": 1, "value": 6}, "group": "control_change"}, {"time": 40127, "annotation": {"number": 1, "value": 5}, "group": "control_change"}, {"time": 40280, "annotation": {"number": 1, "value": 6}, "group": "control_change"}, {"time": 40335, "annotation": {"number": 1, "value": 7}, "group": "control_change"}, {"time": 40364, "annotation": {"number": 1, "value": 8}, "group": "control_change"}, {"time": 40394, "annotation": {"number": 1, "value": 9}, "group": "control_change"}, {"time": 40452, "annotation": {"number": 1, "value": 10}, "group": "control_change"}, {"time": 40469, "annotation": {"number": 1, "value": 11}, "group": "control_change"}, {"time": 40550, "annotation": {"number": 1, "value": 10}, "group": "control_change"}, {"time": 40575, "annotation": {"number": 1, "value": 9}, "group": "control_change"}, {"time": 40770, "annotation": {"number": 1, "value": 8}, "group": "control_change"}, {"time": 40934, "annotation": {"number": 1, "value": 7}, "group": "control_change"}, {"time": 41030, "annotation": {"number": 1, "value": 6}, "group": "control_change"}, {"time": 41532, "annotation": {"number": 1, "value": 5}, "group": "control_change"}, {"time": 41577, "annotation": {"number": 1, "value": 4}, "group": "control_change"}, {"time": 41781, "annotation": {"number": 1, "value": 3}, "group": "control_change"}, {"time": 42268, "annotation": {"number": 1, "value": 4}, "group": "control_change"}, {"time": 42284, "annotation": {"number": 1, "value": 5}, "group": "control_change"}, {"time": 42293, "annotation": {"number": 1, "value": 6}, "group": "control_change"}, {"time": 42310, "annotation": {"number": 1, "value": 7}, "group": "control_change"}, {"time": 42324, "annotation": {"number": 1, "value": 8}, "group": "control_change"}, {"time": 42353, "annotation": {"number": 1, "value": 9}, "group": "control_change"}, {"time": 42434, "annotation": {"number": 1, "value": 8}, "group": "control_change"}, {"time": 42448, "annotation": {"number": 1, "value": 7}, "group": "control_change"}, {"time": 42467, "annotation": {"number": 1, "value": 6}, "group": "control_change"}, {"time": 42485, "annotation": {"number": 1, "value": 5}, "group": "control_change"}, {"time": 42548, "annotation": {"number": 1, "value": 6}, "group": "control_change"}, {"time": 42622, "annotation": {"number": 1, "value": 5}, "group": "control_change"}, {"time": 42631, "annotation": {"number": 1, "value": 4}, "group": "control_change"}, {"time": 42641, "annotation": {"number": 1, "value": 3}, "group": "control_change"}, {"time": 42656, "annotation": {"number": 1, "value": 2}, "group": "control_change"}, {"time": 42711, "annotation": {"number": 1, "value": 3}, "group": "control_change"}, {"time": 42724, "annotation": {"number": 1, "value": 4}, "group": "control_change"}, {"time": 42735, "annotation": {"number": 1, "value": 5}, "group": "control_change"}, {"time": 42748, "annotation": {"number": 1, "value": 6}, "group": "control_change"}, {"time": 42820, "annotation": {"number": 1, "value": 7}, "group": "control_change"}, {"time": 42832, "annotation": {"number": 1, "value": 8}, "group": "control_change"}, {"time": 42843, "annotation": {"number": 1, "value": 9}, "group": "control_change"}, {"time": 42859, "annotation": {"number": 1, "value": 10}, "group": "control_change"}, {"time": 42867, "annotation": {"number": 1, "value": 11}, "group": "control_change"}, {"time": 42876, "annotation": {"number": 1, "value": 12}, "group": "control_change"}, {"time": 42886, "annotation": {"number": 1, "value": 13}, "group": "control_change"}, {"time": 42897, "annotation": {"number": 1, "value": 14}, "group": "control_change"}, {"time": 42909, "annotation": {"number": 1, "value": 15}, "group": "control_change"}, {"time": 42919, "annotation": {"number": 1, "value": 16}, "group": "control_change"}, {"time": 42928, "annotation": {"number": 1, "value": 17}, "group": "control_change"}, {"time": 42944, "annotation": {"number": 1, "value": 18}, "group": "control_change"}, {"time": 42956, "annotation": {"number": 1, "value": 19}, "group": "control_change"}, {"time": 42980, "annotation": {"number": 1, "value": 20}, "group": "control_change"}, {"time": 43002, "annotation": {"number": 1, "value": 21}, "group": "control_change"}, {"time": 43109, "annotation": {"number": 1, "value": 20}, "group": "control_change"}, {"time": 43117, "annotation": {"number": 1, "value": 19}, "group": "control_change"}, {"time": 43126, "annotation": {"number": 1, "value": 18}, "group": "control_change"}, {"time": 43131, "annotation": {"number": 1, "value": 17}, "group": "control_change"}, {"time": 43138, "annotation": {"number": 1, "value": 16}, "group": "control_change"}, {"time": 43144, "annotation": {"number": 1, "value": 15}, "group": "control_change"}, {"time": 43157, "annotation": {"number": 1, "value": 14}, "group": "control_change"}, {"time": 43218, "annotation": {"number": 1, "value": 13}, "group": "control_change"}, {"time": 43248, "annotation": {"number": 1, "value": 12}, "group": "control_change"}, {"time": 43267, "annotation": {"number": 1, "value": 11}, "group": "control_change"}, {"time": 43278, "annotation": {"number": 1, "value": 10}, "group": "control_change"}, {"time": 43313, "annotation": {"number": 1, "value": 9}, "group": "control_change"}, {"time": 43334, "annotation": {"number": 1, "value": 8}, "group": "control_change"}, {"time": 43377, "annotation": {"number": 1, "value": 7}, "group": "control_change"}, {"time": 43428, "annotation": {"number": 1, "value": 8}, "group": "control_change"}, {"time": 43439, "annotation": {"number": 1, "value": 9}, "group": "control_change"}, {"time": 43453, "annotation": {"number": 1, "value": 10}, "group": "control_change"}, {"time": 43464, "annotation": {"number": 1, "value": 11}, "group": "control_change"}, {"time": 43498, "annotation": {"number": 1, "value": 10}, "group": "control_change"}, {"time": 43509, "annotation": {"number": 1, "value": 9}, "group": "control_change"}, {"time": 43520, "annotation": {"number": 1, "value": 8}, "group": "control_change"}, {"time": 43530, "annotation": {"number": 1, "value": 7}, "group": "control_change"}, {"time": 43544, "annotation": {"number": 1, "value": 6}, "group": "control_change"}, {"time": 43556, "annotation": {"number": 1, "value": 5}, "group": "control_change"}, {"time": 43565, "annotation": {"number": 1, "value": 4}, "group": "control_change"}, {"time": 43585, "annotation": {"number": 1, "value": 3}, "group": "control_change"}, {"time": 43637, "annotation": {"number": 1, "value": 4}, "group": "control_change"}, {"time": 43653, "annotation": {"number": 1, "value": 5}, "group": "control_change"}, {"time": 43658, "annotation": {"number": 1, "value": 6}, "group": "control_change"}, {"time": 43667, "annotation": {"number": 1, "value": 7}, "group": "control_change"}, {"time": 43671, "annotation": {"number": 1, "value": 8}, "group": "control_change"}, {"time": 43676, "annotation": {"number": 1, "value": 9}, "group": "control_change"}, {"time": 43682, "annotation": {"number": 1, "value": 10}, "group": "control_change"}, {"time": 43687, "annotation": {"number": 1, "value": 11}, "group": "control_change"}, {"time": 43715, "annotation": {"number": 1, "value": 10}, "group": "control_change"}, {"time": 43720, "annotation": {"number": 1, "value": 9}, "group": "control_change"}, {"time": 43724, "annotation": {"number": 1, "value": 8}, "group": "control_change"}, {"time": 43726, "annotation": {"number": 1, "value": 7}, "group": "control_change"}, {"time": 43729, "annotation": {"number": 1, "value": 6}, "group": "control_change"}, {"time": 43732, "annotation": {"number": 1, "value": 5}, "group": "control_change"}, {"time": 43735, "annotation": {"number": 1, "value": 4}, "group": "control_change"}, {"time": 43738, "annotation": {"number": 1, "value": 3}, "group": "control_change"}, {"time": 43744, "annotation": {"number": 1, "value": 2}, "group": "control_change"}, {"time": 43749, "annotation": {"number": 1, "value": 1}, "group": "control_change"}, {"time": 43796, "annotation": {"number": 1, "value": 2}, "group": "control_change"}, {"time": 43802, "annotation": {"number": 1, "value": 3}, "group": "control_change"}, {"time": 43809, "annotation": {"number": 1, "value": 4}, "group": "control_change"}, {"time": 43813, "annotation": {"number": 1, "value": 5}, "group": "control_change"}, {"time": 43817, "annotation": {"number": 1, "value": 6}, "group": "control_change"}, {"time": 43822, "annotation": {"number": 1, "value": 7}, "group": "control_change"}, {"time": 43825, "annotation": {"number": 1, "value": 8}, "group": "control_change"}, {"time": 43828, "annotation": {"number": 1, "value": 9}, "group": "control_change"}, {"time": 43833, "annotation": {"number": 1, "value": 10}, "group": "control_change"}, {"time": 43835, "annotation": {"number": 1, "value": 11}, "group": "control_change"}, {"time": 43839, "annotation": {"number": 1, "value": 12}, "group": "control_change"}, {"time": 43846, "annotation": {"number": 1, "value": 13}, "group": "control_change"}, {"time": 43851, "annotation": {"number": 1, "value": 14}, "group": "control_change"}, {"time": 43929, "annotation": {"number": 1, "value": 15}, "group": "control_change"}, {"time": 43972, "annotation": {"number": 1, "value": 16}, "group": "control_change"}, {"time": 43982, "annotation": {"number": 1, "value": 17}, "group": "control_change"}, {"time": 43990, "annotation": {"number": 1, "value": 18}, "group": "control_change"}, {"time": 43995, "annotation": {"number": 1, "value": 19}, "group": "control_change"}, {"time": 44002, "annotation": {"number": 1, "value": 20}, "group": "control_change"}, {"time": 44007, "annotation": {"number": 1, "value": 21}, "group": "control_change"}, {"time": 44027, "annotation": {"number": 1, "value": 22}, "group": "control_change"}, {"time": 44044, "annotation": {"number": 1, "value": 23}, "group": "control_change"}, {"time": 44053, "annotation": {"number": 1, "value": 24}, "group": "control_change"}, {"time": 44062, "annotation": {"number": 1, "value": 25}, "group": "control_change"}, {"time": 44078, "annotation": {"number": 1, "value": 26}, "group": "control_change"}, {"time": 44097, "annotation": {"number": 1, "value": 27}, "group": "control_change"}, {"time": 44120, "annotation": {"number": 1, "value": 28}, "group": "control_change"}, {"time": 44149, "annotation": {"number": 1, "value": 29}, "group": "control_change"}, {"time": 44161, "annotation": {"number": 1, "value": 30}, "group": "control_change"}, {"time": 44186, "annotation": {"number": 1, "value": 31}, "group": "control_change"}, {"time": 44217, "annotation": {"number": 1, "value": 32}, "group": "control_change"}, {"time": 44236, "annotation": {"number": 1, "value": 33}, "group": "control_change"}, {"time": 44265, "annotation": {"number": 1, "value": 34}, "group": "control_change"}, {"time": 44285, "annotation": {"number": 1, "value": 35}, "group": "control_change"}, {"time": 44302, "annotation": {"number": 1, "value": 36}, "group": "control_change"}, {"time": 44318, "annotation": {"number": 1, "value": 37}, "group": "control_change"}, {"time": 44366, "annotation": {"number": 1, "value": 38}, "group": "control_change"}, {"time": 44391, "annotation": {"number": 1, "value": 39}, "group": "control_change"}, {"time": 44441, "annotation": {"number": 1, "value": 40}, "group": "control_change"}, {"time": 44509, "annotation": {"number": 1, "value": 41}, "group": "control_change"}, {"time": 44592, "annotation": {"number": 1, "value": 42}, "group": "control_change"}, {"time": 44626, "annotation": {"number": 1, "value": 43}, "group": "control_change"}, {"time": 44645, "annotation": {"number": 1, "value": 44}, "group": "control_change"}, {"time": 44692, "annotation": {"number": 1, "value": 45}, "group": "control_change"}, {"time": 44707, "annotation": {"number": 1, "value": 46}, "group": "control_change"}, {"time": 44722, "annotation": {"number": 1, "value": 47}, "group": "control_change"}, {"time": 44743, "annotation": {"number": 1, "value": 48}, "group": "control_change"}, {"time": 44761, "annotation": {"number": 1, "value": 49}, "group": "control_change"}, {"time": 44797, "annotation": {"number": 1, "value": 50}, "group": "control_change"}, {"time": 44818, "annotation": {"number": 1, "value": 51}, "group": "control_change"}, {"time": 44836, "annotation": {"number": 1, "value": 52}, "group": "control_change"}, {"time": 44857, "annotation": {"number": 1, "value": 53}, "group": "control_change"}, {"time": 44894, "annotation": {"number": 1, "value": 54}, "group": "control_change"}, {"time": 45089, "annotation": {"number": 1, "value": 53}, "group": "control_change"}, {"time": 45103, "annotation": {"number": 1, "value": 52}, "group": "control_change"}, {"time": 45115, "annotation": {"number": 1, "value": 51}, "group": "control_change"}, {"time": 45128, "annotation": {"number": 1, "value": 50}, "group": "control_change"}, {"time": 45138, "annotation": {"number": 1, "value": 49}, "group": "control_change"}, {"time": 45152, "annotation": {"number": 1, "value": 48}, "group": "control_change"}, {"time": 45163, "annotation": {"number": 1, "value": 47}, "group": "control_change"}, {"time": 45185, "annotation": {"number": 1, "value": 46}, "group": "control_change"}, {"time": 45199, "annotation": {"number": 1, "value": 45}, "group": "control_change"}, {"time": 45221, "annotation": {"number": 1, "value": 44}, "group": "control_change"}, {"time": 45238, "annotation": {"number": 1, "value": 43}, "group": "control_change"}, {"time": 45251, "annotation": {"number": 1, "value": 42}, "group": "control_change"}, {"time": 45259, "annotation": {"number": 1, "value": 41}, "group": "control_change"}, {"time": 45269, "annotation": {"number": 1, "value": 40}, "group": "control_change"}, {"time": 45277, "annotation": {"number": 1, "value": 39}, "group": "control_change"}, {"time": 45292, "annotation": {"number": 1, "value": 38}, "group": "control_change"}, {"time": 45342, "annotation": {"number": 1, "value": 37}, "group": "control_change"}, {"time": 45357, "annotation": {"number": 1, "value": 36}, "group": "control_change"}, {"time": 45371, "annotation": {"number": 1, "value": 35}, "group": "control_change"}, {"time": 45386, "annotation": {"number": 1, "value": 34}, "group": "control_change"}, {"time": 45415, "annotation": {"number": 1, "value": 33}, "group": "control_change"}, {"time": 45450, "annotation": {"number": 1, "value": 32}, "group": "control_change"}, {"time": 45492, "annotation": {"number": 1, "value": 31}, "group": "control_change"}, {"time": 45539, "annotation": {"number": 1, "value": 30}, "group": "control_change"}, {"time": 45616, "annotation": {"number": 1, "value": 31}, "group": "control_change"}, {"time": 45631, "annotation": {"number": 1, "value": 32}, "group": "control_change"}, {"time": 45659, "annotation": {"number": 1, "value": 33}, "group": "control_change"}, {"time": 45720, "annotation": {"number": 1, "value": 34}, "group": "control_change"}, {"time": 45776, "annotation": {"number": 1, "value": 33}, "group": "control_change"}, {"time": 45808, "annotation": {"number": 1, "value": 32}, "group": "control_change"}, {"time": 45869, "annotation": {"number": 1, "value": 31}, "group": "control_change"}, {"time": 45889, "annotation": {"number": 1, "value": 30}, "group": "control_change"}, {"time": 45904, "annotation": {"number": 1, "value": 29}, "group": "control_change"}, {"time": 45949, "annotation": {"number": 1, "value": 28}, "group": "control_change"}, {"time": 45963, "annotation": {"number": 1, "value": 27}, "group": "control_change"}, {"time": 45978, "annotation": {"number": 1, "value": 26}, "group": "control_change"}, {"time": 46006, "annotation": {"number": 1, "value": 25}, "group": "control_change"}, {"time": 46023, "annotation": {"number": 1, "value": 24}, "group": "control_change"}, {"time": 46044, "annotation": {"number": 1, "value": 23}, "group": "control_change"}, {"time": 46061, "annotation": {"number": 1, "value": 22}, "group": "control_change"}, {"time": 46080, "annotation": {"number": 1, "value": 21}, "group": "control_change"}, {"time": 46105, "annotation": {"number": 1, "value": 20}, "group": "control_change"}, {"time": 46155, "annotation": {"number": 1, "value": 19}, "group": "control_change"}, {"time": 46193, "annotation": {"number": 1, "value": 18}, "group": "control_change"}, {"time": 46242, "annotation": {"number": 1, "value": 17}, "group": "control_change"}, {"time": 46269, "annotation": {"number": 1, "value": 16}, "group": "control_change"}, {"time": 46303, "annotation": {"number": 1, "value": 15}, "group": "control_change"}, {"time": 46348, "annotation": {"number": 1, "value": 14}, "group": "control_change"}, {"time": 46375, "annotation": {"number": 1, "value": 13}, "group": "control_change"}, {"time": 46405, "annotation": {"number": 1, "value": 12}, "group": "control_change"}, {"time": 46442, "annotation": {"number": 1, "value": 11}, "group": "control_change"}, {"time": 46465, "annotation": {"number": 1, "value": 10}, "group": "control_change"}, {"time": 46495, "annotation": {"number": 1, "value": 9}, "group": "control_change"}, {"time": 46514, "annotation": {"number": 1, "value": 8}, "group": "control_change"}, {"time": 46557, "annotation": {"number": 1, "value": 7}, "group": "control_change"}, {"time": 70559, "annotation": {"number": 1, "value": 3}, "group": "control_change"}, {"time": 70559, "annotation": {"number": 1, "value": 2}, "group": "control_change"}, {"time": 70559, "annotation": {"number": 1, "value": 1}, "group": "control_change"}, {"time": 73449, "annotation": {"number": 1, "value": 2}, "group": "control_change"}, {"time": 73460, "annotation": {"number": 1, "value": 3}, "group": "control_change"}, {"time": 73473, "annotation": {"number": 1, "value": 4}, "group": "control_change"}, {"time": 73482, "annotation": {"number": 1, "value": 5}, "group": "control_change"}, {"time": 73489, "annotation": {"number": 1, "value": 6}, "group": "control_change"}, {"time": 73501, "annotation": {"number": 1, "value": 7}, "group": "control_change"}, {"time": 73511, "annotation": {"number": 1, "value": 8}, "group": "control_change"}, {"time": 73525, "annotation": {"number": 1, "value": 9}, "group": "control_change"}, {"time": 73549, "annotation": {"number": 1, "value": 10}, "group": "control_change"}, {"time": 73563, "annotation": {"number": 1, "value": 11}, "group": "control_change"}, {"time": 73577, "annotation": {"number": 1, "value": 12}, "group": "control_change"}, {"time": 73591, "annotation": {"number": 1, "value": 13}, "group": "control_change"}, {"time": 73610, "annotation": {"number": 1, "value": 14}, "group": "control_change"}, {"time": 73670, "annotation": {"number": 1, "value": 15}, "group": "control_change"}, {"time": 73707, "annotation": {"number": 1, "value": 16}, "group": "control_change"}, {"time": 73755, "annotation": {"number": 1, "value": 15}, "group": "control_change"}, {"time": 73766, "annotation": {"number": 1, "value": 14}, "group": "control_change"}, {"time": 73774, "annotation": {"number": 1, "value": 13}, "group": "control_change"}, {"time": 73782, "annotation": {"number": 1, "value": 12}, "group": "control_change"}, {"time": 73788, "annotation": {"number": 1, "value": 11}, "group": "control_change"}, {"time": 73797, "annotation": {"number": 1, "value": 10}, "group": "control_change"}, {"time": 73808, "annotation": {"number": 1, "value": 9}, "group": "control_change"}, {"time": 73823, "annotation": {"number": 1, "value": 8}, "group": "control_change"}, {"time": 73839, "annotation": {"number": 1, "value": 7}, "group": "control_change"}, {"time": 73857, "annotation": {"number": 1, "value": 6}, "group": "control_change"}, {"time": 73868, "annotation": {"number": 1, "value": 5}, "group": "control_change"}, {"time": 73880, "annotation": {"number": 1, "value": 4}, "group": "control_change"}, {"time": 73898, "annotation": {"number": 1, "value": 3}, "group": "control_change"}, {"time": 73916, "annotation": {"number": 1, "value": 2}, "group": "control_change"}, {"time": 73932, "annotation": {"number": 1, "value": 1}, "group": "control_change"}, {"time": 74067, "annotation": {"number": 1, "value": 2}, "group": "control_change"}, {"time": 74081, "annotation": {"number": 1, "value": 3}, "group": "control_change"}, {"time": 74097, "annotation": {"number": 1, "value": 4}, "group": "control_change"}, {"time": 74107, "annotation": {"number": 1, "value": 5}, "group": "control_change"}, {"time": 74116, "annotation": {"number": 1, "value": 6}, "group": "control_change"}, {"time": 74132, "annotation": {"number": 1, "value": 7}, "group": "control_change"}, {"time": 74145, "annotation": {"number": 1, "value": 8}, "group": "control_change"}, {"time": 74237, "annotation": {"number": 1, "value": 7}, "group": "control_change"}, {"time": 74253, "annotation": {"number": 1, "value": 6}, "group": "control_change"}, {"time": 74265, "annotation": {"number": 1, "value": 5}, "group": "control_change"}, {"time": 74276, "annotation": {"number": 1, "value": 4}, "group": "control_change"}, {"time": 74300, "annotation": {"number": 1, "value": 3}, "group": "control_change"}, {"time": 74536, "annotation": {"number": 1, "value": 4}, "group": "control_change"}, {"time": 74575, "annotation": {"number": 1, "value": 5}, "group": "control_change"}, {"time": 74604, "annotation": {"number": 1, "value": 6}, "group": "control_change"}, {"time": 74640, "annotation": {"number": 1, "value": 7}, "group": "control_change"}, {"time": 74666, "annotation": {"number": 1, "value": 8}, "group": "control_change"}, {"time": 74749, "annotation": {"number": 1, "value": 7}, "group": "control_change"}, {"time": 74775, "annotation": {"number": 1, "value": 6}, "group": "control_change"}, {"time": 74788, "annotation": {"number": 1, "value": 5}, "group": "control_change"}, {"time": 74799, "annotation": {"number": 1, "value": 4}, "group": "control_change"}, {"time": 74813, "annotation": {"number": 1, "value": 3}, "group": "control_change"}, {"time": 74919, "annotation": {"number": 1, "value": 2}, "group": "control_change"}, {"time": 74990, "annotation": {"number": 1, "value": 1}, "group": "control_change"}, {"time": 78269, "annotation": {"number": 1, "value": 2}, "group": "control_change"}, {"time": 78288, "annotation": {"number": 1, "value": 3}, "group": "control_change"}, {"time": 78310, "annotation": {"number": 1, "value": 4}, "group": "control_change"}, {"time": 78324, "annotation": {"number": 1, "value": 5}, "group": "control_change"}, {"time": 78340, "annotation": {"number": 1, "value": 6}, "group": "control_change"}, {"time": 78391, "annotation": {"number": 1, "value": 7}, "group": "control_change"}, {"time": 78434, "annotation": {"number": 1, "value": 6}, "group": "control_change"}, {"time": 78444, "annotation": {"number": 1, "value": 5}, "group": "control_change"}, {"time": 78452, "annotation": {"number": 1, "value": 4}, "group": "control_change"}, {"time": 78462, "annotation": {"number": 1, "value": 3}, "group": "control_change"}, {"time": 78472, "annotation": {"number": 1, "value": 2}, "group": "control_change"}, {"time": 78479, "annotation": {"number": 1, "value": 1}, "group": "control_change"}, {"time": 78673, "annotation": {"number": 1, "value": 2}, "group": "control_change"}, {"time": 78787, "annotation": {"number": 1, "value": 1}, "group": "control_change"}, {"time": 80735, "annotation": {"number": 1, "value": 2}, "group": "control_change"}, {"time": 80752, "annotation": {"number": 1, "value": 3}, "group": "control_change"}, {"time": 80770, "annotation": {"number": 1, "value": 4}, "group": "control_change"}, {"time": 80783, "annotation": {"number": 1, "value": 5}, "group": "control_change"}, {"time": 80796, "annotation": {"number": 1, "value": 6}, "group": "control_change"}, {"time": 80853, "annotation": {"number": 1, "value": 5}, "group": "control_change"}, {"time": 80859, "annotation": {"number": 1, "value": 4}, "group": "control_change"}, {"time": 80866, "annotation": {"number": 1, "value": 3}, "group": "control_change"}, {"time": 80874, "annotation": {"number": 1, "value": 2}, "group": "control_change"}, {"time": 80880, "annotation": {"number": 1, "value": 1}, "group": "control_change"}, {"time": 80979, "annotation": {"number": 1, "value": 2}, "group": "control_change"}, {"time": 80990, "annotation": {"number": 1, "value": 3}, "group": "control_change"}, {"time": 81053, "annotation": {"number": 1, "value": 2}, "group": "control_change"}, {"time": 81066, "annotation": {"number": 1, "value": 1}, "group": "control_change"}, {"time": 81157, "annotation": {"number": 1, "value": 2}, "group": "control_change"}, {"time": 81166, "annotation": {"number": 1, "value": 3}, "group": "control_change"}, {"time": 81181, "annotation": {"number": 1, "value": 4}, "group": "control_change"}, {"time": 81191, "annotation": {"number": 1, "value": 5}, "group": "control_change"}, {"time": 81202, "annotation": {"number": 1, "value": 6}, "group": "control_change"}, {"time": 81216, "annotation": {"number": 1, "value": 7}, "group": "control_change"}, {"time": 81221, "annotation": {"number": 1, "value": 8}, "group": "control_change"}, {"time": 81227, "annotation": {"number": 1, "value": 9}, "group": "control_change"}, {"time": 81236, "annotation": {"number": 1, "value": 10}, "group": "control_change"}, {"time": 81242, "annotation": {"number": 1, "value": 11}, "group": "control_change"}, {"time": 81251, "annotation": {"number": 1, "value": 12}, "group": "control_change"}, {"time": 81262, "annotation": {"number": 1, "value": 13}, "group": "control_change"}, {"time": 81275, "annotation": {"number": 1, "value": 14}, "group": "control_change"}, {"time": 81292, "annotation": {"number": 1, "value": 15}, "group": "control_change"}, {"time": 81301, "annotation": {"number": 1, "value": 16}, "group": "control_change"}, {"time": 81310, "annotation": {"number": 1, "value": 17}, "group": "control_change"}, {"time": 81321, "annotation": {"number": 1, "value": 18}, "group": "control_change"}, {"time": 81328, "annotation": {"number": 1, "value": 19}, "group": "control_change"}, {"time": 81340, "annotation": {"number": 1, "value": 20}, "group": "control_change"}, {"time": 81350, "annotation": {"number": 1, "value": 21}, "group": "control_change"}, {"time": 81370, "annotation": {"number": 1, "value": 22}, "group": "control_change"}, {"time": 81509, "annotation": {"number": 1, "value": 21}, "group": "control_change"}, {"time": 81517, "annotation": {"number": 1, "value": 20}, "group": "control_change"}, {"time": 81522, "annotation": {"number": 1, "value": 19}, "group": "control_change"}, {"time": 81527, "annotation": {"number": 1, "value": 18}, "group": "control_change"}, {"time": 81532, "annotation": {"number": 1, "value": 17}, "group": "control_change"}, {"time": 81535, "annotation": {"number": 1, "value": 16}, "group": "control_change"}, {"time": 81539, "annotation": {"number": 1, "value": 15}, "group": "control_change"}, {"time": 81545, "annotation": {"number": 1, "value": 14}, "group": "control_change"}, {"time": 81549, "annotation": {"number": 1, "value": 13}, "group": "control_change"}, {"time": 81555, "annotation": {"number": 1, "value": 12}, "group": "control_change"}, {"time": 81560, "annotation": {"number": 1, "value": 11}, "group": "control_change"}, {"time": 81566, "annotation": {"number": 1, "value": 10}, "group": "control_change"}, {"time": 81573, "annotation": {"number": 1, "value": 9}, "group": "control_change"}, {"time": 81579, "annotation": {"number": 1, "value": 8}, "group": "control_change"}, {"time": 81583, "annotation": {"number": 1, "value": 7}, "group": "control_change"}, {"time": 81595, "annotation": {"number": 1, "value": 6}, "group": "control_change"}, {"time": 81615, "annotation": {"number": 1, "value": 5}, "group": "control_change"}, {"time": 81658, "annotation": {"number": 1, "value": 6}, "group": "control_change"}, {"time": 81685, "annotation": {"number": 1, "value": 7}, "group": "control_change"}, {"time": 81699, "annotation": {"number": 1, "value": 8}, "group": "control_change"}, {"time": 81715, "annotation": {"number": 1, "value": 9}, "group": "control_change"}, {"time": 81731, "annotation": {"number": 1, "value": 10}, "group": "control_change"}, {"time": 81741, "annotation": {"number": 1, "value": 11}, "group": "control_change"}, {"time": 81750, "annotation": {"number": 1, "value": 12}, "group": "control_change"}, {"time": 81759, "annotation": {"number": 1, "value": 13}, "group": "control_change"}, {"time": 81767, "annotation": {"number": 1, "value": 14}, "group": "control_change"}, {"time": 81777, "annotation": {"number": 1, "value": 15}, "group": "control_change"}, {"time": 81783, "annotation": {"number": 1, "value": 16}, "group": "control_change"}, {"time": 81790, "annotation": {"number": 1, "value": 17}, "group": "control_change"}, {"time": 81803, "annotation": {"number": 1, "value": 18}, "group": "control_change"}, {"time": 81827, "annotation": {"number": 1, "value": 19}, "group": "control_change"}, {"time": 81955, "annotation": {"number": 1, "value": 18}, "group": "control_change"}, {"time": 81976, "annotation": {"number": 1, "value": 17}, "group": "control_change"}, {"time": 82004, "annotation": {"number": 1, "value": 16}, "group": "control_change"}, {"time": 82015, "annotation": {"number": 1, "value": 15}, "group": "control_change"}, {"time": 82025, "annotation": {"number": 1, "value": 14}, "group": "control_change"}, {"time": 82032, "annotation": {"number": 1, "value": 13}, "group": "control_change"}, {"time": 82037, "annotation": {"number": 1, "value": 12}, "group": "control_change"}, {"time": 82042, "annotation": {"number": 1, "value": 11}, "group": "control_change"}, {"time": 82046, "annotation": {"number": 1, "value": 10}, "group": "control_change"}, {"time": 82051, "annotation": {"number": 1, "value": 9}, "group": "control_change"}, {"time": 82054, "annotation": {"number": 1, "value": 8}, "group": "control_change"}, {"time": 82058, "annotation": {"number": 1, "value": 7}, "group": "control_change"}, {"time": 82064, "annotation": {"number": 1, "value": 6}, "group": "control_change"}, {"time": 82069, "annotation": {"number": 1, "value": 5}, "group": "control_change"}, {"time": 82073, "annotation": {"number": 1, "value": 4}, "group": "control_change"}, {"time": 82082, "annotation": {"number": 1, "value": 3}, "group": "control_change"}, {"time": 82119, "annotation": {"number": 1, "value": 4}, "group": "control_change"}, {"time": 82127, "annotation": {"number": 1, "value": 5}, "group": "control_change"}, {"time": 82133, "annotation": {"number": 1, "value": 6}, "group": "control_change"}, {"time": 82148, "annotation": {"number": 1, "value": 7}, "group": "control_change"}, {"time": 82184, "annotation": {"number": 1, "value": 8}, "group": "control_change"}, {"time": 82203, "annotation": {"number": 1, "value": 9}, "group": "control_change"}, {"time": 82217, "annotation": {"number": 1, "value": 10}, "group": "control_change"}, {"time": 82225, "annotation": {"number": 1, "value": 11}, "group": "control_change"}, {"time": 82235, "annotation": {"number": 1, "value": 12}, "group": "control_change"}, {"time": 82246, "annotation": {"number": 1, "value": 13}, "group": "control_change"}, {"time": 82257, "annotation": {"number": 1, "value": 14}, "group": "control_change"}, {"time": 82277, "annotation": {"number": 1, "value": 15}, "group": "control_change"}, {"time": 82303, "annotation": {"number": 1, "value": 16}, "group": "control_change"}, {"time": 82318, "annotation": {"number": 1, "value": 17}, "group": "control_change"}, {"time": 82335, "annotation": {"number": 1, "value": 18}, "group": "control_change"}, {"time": 82347, "annotation": {"number": 1, "value": 19}, "group": "control_change"}, {"time": 82373, "annotation": {"number": 1, "value": 20}, "group": "control_change"}, {"time": 82395, "annotation": {"number": 1, "value": 21}, "group": "control_change"}, {"time": 82421, "annotation": {"number": 1, "value": 22}, "group": "control_change"}, {"time": 82441, "annotation": {"number": 1, "value": 23}, "group": "control_change"}, {"time": 82461, "annotation": {"number": 1, "value": 24}, "group": "control_change"}, {"time": 82488, "annotation": {"number": 1, "value": 25}, "group": "control_change"}, {"time": 82539, "annotation": {"number": 1, "value": 26}, "group": "control_change"}, {"time": 82579, "annotation": {"number": 1, "value": 27}, "group": "control_change"}, {"time": 82663, "annotation": {"number": 1, "value": 28}, "group": "control_change"}, {"time": 82698, "annotation": {"number": 1, "value": 29}, "group": "control_change"}, {"time": 82715, "annotation": {"number": 1, "value": 30}, "group": "control_change"}, {"time": 82739, "annotation": {"number": 1, "value": 31}, "group": "control_change"}, {"time": 82928, "annotation": {"number": 1, "value": 30}, "group": "control_change"}, {"time": 82934, "annotation": {"number": 1, "value": 29}, "group": "control_change"}, {"time": 82941, "annotation": {"number": 1, "value": 28}, "group": "control_change"}, {"time": 82951, "annotation": {"number": 1, "value": 27}, "group": "control_change"}, {"time": 82957, "annotation": {"number": 1, "value": 26}, "group": "control_change"}, {"time": 82967, "annotation": {"number": 1, "value": 25}, "group": "control_change"}, {"time": 82977, "annotation": {"number": 1, "value": 24}, "group": "control_change"}, {"time": 82986, "annotation": {"number": 1, "value": 23}, "group": "control_change"}, {"time": 82996, "annotation": {"number": 1, "value": 22}, "group": "control_change"}, {"time": 83010, "annotation": {"number": 1, "value": 21}, "group": "control_change"}, {"time": 83026, "annotation": {"number": 1, "value": 20}, "group": "control_change"}, {"time": 83044, "annotation": {"number": 1, "value": 19}, "group": "control_change"}, {"time": 83122, "annotation": {"number": 1, "value": 20}, "group": "control_change"}, {"time": 83130, "annotation": {"number": 1, "value": 21}, "group": "control_change"}, {"time": 83139, "annotation": {"number": 1, "value": 22}, "group": "control_change"}, {"time": 83144, "annotation": {"number": 1, "value": 23}, "group": "control_change"}, {"time": 83149, "annotation": {"number": 1, "value": 24}, "group": "control_change"}, {"time": 83158, "annotation": {"number": 1, "value": 25}, "group": "control_change"}, {"time": 83167, "annotation": {"number": 1, "value": 26}, "group": "control_change"}, {"time": 83176, "annotation": {"number": 1, "value": 27}, "group": "control_change"}, {"time": 83190, "annotation": {"number": 1, "value": 28}, "group": "control_change"}, {"time": 83241, "annotation": {"number": 1, "value": 29}, "group": "control_change"}, {"time": 83318, "annotation": {"number": 1, "value": 30}, "group": "control_change"}, {"time": 83418, "annotation": {"number": 1, "value": 31}, "group": "control_change"}, {"time": 83464, "annotation": {"number": 1, "value": 32}, "group": "control_change"}, {"time": 83535, "annotation": {"number": 1, "value": 33}, "group": "control_change"}, {"time": 83643, "annotation": {"number": 1, "value": 32}, "group": "control_change"}, {"time": 83656, "annotation": {"number": 1, "value": 31}, "group": "control_change"}, {"time": 83668, "annotation": {"number": 1, "value": 30}, "group": "control_change"}, {"time": 83674, "annotation": {"number": 1, "value": 29}, "group": "control_change"}, {"time": 83683, "annotation": {"number": 1, "value": 28}, "group": "control_change"}, {"time": 83695, "annotation": {"number": 1, "value": 27}, "group": "control_change"}, {"time": 83704, "annotation": {"number": 1, "value": 26}, "group": "control_change"}, {"time": 83715, "annotation": {"number": 1, "value": 25}, "group": "control_change"}, {"time": 83730, "annotation": {"number": 1, "value": 24}, "group": "control_change"}, {"time": 83745, "annotation": {"number": 1, "value": 23}, "group": "control_change"}, {"time": 83758, "annotation": {"number": 1, "value": 22}, "group": "control_change"}, {"time": 83776, "annotation": {"number": 1, "value": 21}, "group": "control_change"}, {"time": 83795, "annotation": {"number": 1, "value": 20}, "group": "control_change"}, {"time": 83812, "annotation": {"number": 1, "value": 19}, "group": "control_change"}, {"time": 83833, "annotation": {"number": 1, "value": 18}, "group": "control_change"}, {"time": 83855, "annotation": {"number": 1, "value": 17}, "group": "control_change"}, {"time": 83888, "annotation": {"number": 1, "value": 16}, "group": "control_change"}, {"time": 83906, "annotation": {"number": 1, "value": 15}, "group": "control_change"}, {"time": 83926, "annotation": {"number": 1, "value": 14}, "group": "control_change"}, {"time": 83969, "annotation": {"number": 1, "value": 13}, "group": "control_change"}, {"time": 83996, "annotation": {"number": 1, "value": 12}, "group": "control_change"}, {"time": 84021, "annotation": {"number": 1, "value": 11}, "group": "control_change"}, {"time": 84036, "annotation": {"number": 1, "value": 10}, "group": "control_change"}, {"time": 84051, "annotation": {"number": 1, "value": 9}, "group": "control_change"}, {"time": 84062, "annotation": {"number": 1, "value": 8}, "group": "control_change"}, {"time": 84075, "annotation": {"number": 1, "value": 7}, "group": "control_change"}, {"time": 84091, "annotation": {"number": 1, "value": 6}, "group": "control_change"}, {"time": 84114, "annotation": {"number": 1, "value": 5}, "group": "control_change"}, {"time": 84129, "annotation": {"number": 1, "value": 4}, "group": "control_change"}, {"time": 84602, "annotation": {"number": 1, "value": 3}, "group": "control_change"}, {"time": 84661, "annotation": {"number": 1, "value": 2}, "group": "control_change"}, {"time": 84694, "annotation": {"number": 1, "value": 1}, "group": "control_change"}, {"time": 84747, "annotation": {"number": 1, "value": 2}, "group": "control_change"}, {"time": 84763, "annotation": {"number": 1, "value": 3}, "group": "control_change"}, {"time": 84789, "annotation": {"number": 1, "value": 4}, "group": "control_change"}, {"time": 84810, "annotation": {"number": 1, "value": 5}, "group": "control_change"}, {"time": 84819, "annotation": {"number": 1, "value": 6}, "group": "control_change"}, {"time": 84833, "annotation": {"number": 1, "value": 7}, "group": "control_change"}, {"time": 84847, "annotation": {"number": 1, "value": 8}, "group": "control_change"}, {"time": 84896, "annotation": {"number": 1, "value": 7}, "group": "control_change"}, {"time": 84907, "annotation": {"number": 1, "value": 6}, "group": "control_change"}, {"time": 84915, "annotation": {"number": 1, "value": 5}, "group": "control_change"}, {"time": 84923, "annotation": {"number": 1, "value": 4}, "group": "control_change"}, {"time": 84933, "annotation": {"number": 1, "value": 3}, "group": "control_change"}, {"time": 84951, "annotation": {"number": 1, "value": 2}, "group": "control_change"}, {"time": 84978, "annotation": {"number": 1, "value": 3}, "group": "control_change"}, {"time": 84990, "annotation": {"number": 1, "value": 4}, "group": "control_change"}, {"time": 84997, "annotation": {"number": 1, "value": 5}, "group": "control_change"}, {"time": 85003, "annotation": {"number": 1, "value": 6}, "group": "control_change"}, {"time": 85014, "annotation": {"number": 1, "value": 7}, "group": "control_change"}, {"time": 85020, "annotation": {"number": 1, "value": 8}, "group": "control_change"}, {"time": 85026, "annotation": {"number": 1, "value": 9}, "group": "control_change"}, {"time": 85034, "annotation": {"number": 1, "value": 10}, "group": "control_change"}, {"time": 85039, "annotation": {"number": 1, "value": 11}, "group": "control_change"}, {"time": 85048, "annotation": {"number": 1, "value": 12}, "group": "control_change"}, {"time": 85062, "annotation": {"number": 1, "value": 13}, "group": "control_change"}, {"time": 85112, "annotation": {"number": 1, "value": 12}, "group": "control_change"}, {"time": 85120, "annotation": {"number": 1, "value": 11}, "group": "control_change"}, {"time": 85126, "annotation": {"number": 1, "value": 10}, "group": "control_change"}, {"time": 85134, "annotation": {"number": 1, "value": 9}, "group": "control_change"}, {"time": 85140, "annotation": {"number": 1, "value": 8}, "group": "control_change"}, {"time": 85145, "annotation": {"number": 1, "value": 7}, "group": "control_change"}, {"time": 85151, "annotation": {"number": 1, "value": 6}, "group": "control_change"}, {"time": 85158, "annotation": {"number": 1, "value": 5}, "group": "control_change"}, {"time": 85162, "annotation": {"number": 1, "value": 4}, "group": "control_change"}, {"time": 85169, "annotation": {"number": 1, "value": 3}, "group": "control_change"}, {"time": 85176, "annotation": {"number": 1, "value": 2}, "group": "control_change"}, {"time": 85183, "annotation": {"number": 1, "value": 1}, "group": "control_change"}, {"time": 85262, "annotation": {"number": 1, "value": 2}, "group": "control_change"}, {"time": 85268, "annotation": {"number": 1, "value": 3}, "group": "control_change"}, {"time": 85274, "annotation": {"number": 1, "value": 4}, "group": "control_change"}, {"time": 85279, "annotation": {"number": 1, "value": 5}, "group": "control_change"}, {"time": 85283, "annotation": {"number": 1, "value": 6}, "group": "control_change"}, {"time": 85289, "annotation": {"number": 1, "value": 7}, "group": "control_change"}, {"time": 85292, "annotation": {"number": 1, "value": 8}, "group": "control_change"}, {"time": 85297, "annotation": {"number": 1, "value": 9}, "group": "control_change"}, {"time": 85307, "annotation": {"number": 1, "value": 10}, "group": "control_change"}, {"time": 85372, "annotation": {"number": 1, "value": 9}, "group": "control_change"}, {"time": 85382, "annotation": {"number": 1, "value": 8}, "group": "control_change"}, {"time": 85388, "annotation": {"number": 1, "value": 7}, "group": "control_change"}, {"time": 85396, "annotation": {"number": 1, "value": 6}, "group": "control_change"}, {"time": 85403, "annotation": {"number": 1, "value": 5}, "group": "control_change"}, {"time": 85408, "annotation": {"number": 1, "value": 4}, "group": "control_change"}, {"time": 85416, "annotation": {"number": 1, "value": 3}, "group": "control_change"}, {"time": 85427, "annotation": {"number": 1, "value": 2}, "group": "control_change"}, {"time": 85464, "annotation": {"number": 1, "value": 3}, "group": "control_change"}, {"time": 85474, "annotation": {"number": 1, "value": 4}, "group": "control_change"}, {"time": 85479, "annotation": {"number": 1, "value": 5}, "group": "control_change"}, {"time": 85484, "annotation": {"number": 1, "value": 6}, "group": "control_change"}, {"time": 85492, "annotation": {"number": 1, "value": 7}, "group": "control_change"}, {"time": 85497, "annotation": {"number": 1, "value": 8}, "group": "control_change"}, {"time": 85503, "annotation": {"number": 1, "value": 9}, "group": "control_change"}, {"time": 85518, "annotation": {"number": 1, "value": 10}, "group": "control_change"}, {"time": 85560, "annotation": {"number": 1, "value": 9}, "group": "control_change"}, {"time": 85569, "annotation": {"number": 1, "value": 8}, "group": "control_change"}, {"time": 85574, "annotation": {"number": 1, "value": 7}, "group": "control_change"}, {"time": 85581, "annotation": {"number": 1, "value": 6}, "group": "control_change"}, {"time": 85587, "annotation": {"number": 1, "value": 5}, "group": "control_change"}, {"time": 85592, "annotation": {"number": 1, "value": 4}, "group": "control_change"}, {"time": 85597, "annotation": {"number": 1, "value": 3}, "group": "control_change"}, {"time": 85603, "annotation": {"number": 1, "value": 2}, "group": "control_change"}, {"time": 85609, "annotation": {"number": 1, "value": 1}, "group": "control_change"}, {"time": 85728, "annotation": {"number": 1, "value": 2}, "group": "control_change"}, {"time": 85737, "annotation": {"number": 1, "value": 3}, "group": "control_change"}, {"time": 85750, "annotation": {"number": 1, "value": 4}, "group": "control_change"}, {"time": 85758, "annotation": {"number": 1, "value": 5}, "group": "control_change"}, {"time": 85763, "annotation": {"number": 1, "value": 6}, "group": "control_change"}, {"time": 85777, "annotation": {"number": 1, "value": 7}, "group": "control_change"}, {"time": 85787, "annotation": {"number": 1, "value": 8}, "group": "control_change"}, {"time": 85797, "annotation": {"number": 1, "value": 9}, "group": "control_change"}, {"time": 85808, "annotation": {"number": 1, "value": 10}, "group": "control_change"}, {"time": 85814, "annotation": {"number": 1, "value": 11}, "group": "control_change"}, {"time": 85822, "annotation": {"number": 1, "value": 12}, "group": "control_change"}, {"time": 85835, "annotation": {"number": 1, "value": 13}, "group": "control_change"}, {"time": 85850, "annotation": {"number": 1, "value": 14}, "group": "control_change"}, {"time": 85869, "annotation": {"number": 1, "value": 15}, "group": "control_change"}, {"time": 85898, "annotation": {"number": 1, "value": 16}, "group": "control_change"}, {"time": 85913, "annotation": {"number": 1, "value": 17}, "group": "control_change"}, {"time": 85935, "annotation": {"number": 1, "value": 18}, "group": "control_change"}, {"time": 85949, "annotation": {"number": 1, "value": 19}, "group": "control_change"}, {"time": 85969, "annotation": {"number": 1, "value": 20}, "group": "control_change"}, {"time": 86003, "annotation": {"number": 1, "value": 21}, "group": "control_change"}, {"time": 86101, "annotation": {"number": 1, "value": 22}, "group": "control_change"}, {"time": 86166, "annotation": {"number": 1, "value": 23}, "group": "control_change"}, {"time": 86230, "annotation": {"number": 1, "value": 24}, "group": "control_change"}, {"time": 86312, "annotation": {"number": 1, "value": 25}, "group": "control_change"}, {"time": 86488, "annotation": {"number": 1, "value": 24}, "group": "control_change"}, {"time": 86507, "annotation": {"number": 1, "value": 23}, "group": "control_change"}, {"time": 86520, "annotation": {"number": 1, "value": 22}, "group": "control_change"}, {"time": 86552, "annotation": {"number": 1, "value": 21}, "group": "control_change"}, {"time": 86577, "annotation": {"number": 1, "value": 20}, "group": "control_change"}, {"time": 86594, "annotation": {"number": 1, "value": 19}, "group": "control_change"}, {"time": 86616, "annotation": {"number": 1, "value": 18}, "group": "control_change"}, {"time": 86671, "annotation": {"number": 1, "value": 17}, "group": "control_change"}, {"time": 86711, "annotation": {"number": 1, "value": 16}, "group": "control_change"}, {"time": 86749, "annotation": {"number": 1, "value": 15}, "group": "control_change"}, {"time": 86775, "annotation": {"number": 1, "value": 14}, "group": "control_change"}, {"time": 86792, "annotation": {"number": 1, "value": 13}, "group": "control_change"}, {"time": 86806, "annotation": {"number": 1, "value": 12}, "group": "control_change"}, {"time": 86820, "annotation": {"number": 1, "value": 11}, "group": "control_change"}, {"time": 86832, "annotation": {"number": 1, "value": 10}, "group": "control_change"}, {"time": 86852, "annotation": {"number": 1, "value": 9}, "group": "control_change"}, {"time": 86871, "annotation": {"number": 1, "value": 8}, "group": "control_change"}, {"time": 86888, "annotation": {"number": 1, "value": 7}, "group": "control_change"}, {"time": 86948, "annotation": {"number": 1, "value": 6}, "group": "control_change"}, {"time": 87017, "annotation": {"number": 1, "value": 5}, "group": "control_change"}, {"time": 87038, "annotation": {"number": 1, "value": 4}, "group": "control_change"}, {"time": 87061, "annotation": {"number": 1, "value": 3}, "group": "control_change"}, {"time": 87085, "annotation": {"number": 1, "value": 2}, "group": "control_change"}, {"time": 87102, "annotation": {"number": 1, "value": 1}, "group": "control_change"}, {"time": 87599, "annotation": {"number": 1, "value": 2}, "group": "control_change"}, {"time": 87617, "annotation": {"number": 1, "value": 3}, "group": "control_change"}, {"time": 87742, "annotation": {"number": 1, "value": 2}, "group": "control_change"}, {"time": 87758, "annotation": {"number": 1, "value": 1}, "group": "control_change"}, {"time": 87913, "annotation": {"number": 1, "value": 2}, "group": "control_change"}, {"time": 87945, "annotation": {"number": 1, "value": 3}, "group": "control_change"}, {"time": 87966, "annotation": {"number": 1, "value": 4}, "group": "control_change"}, {"time": 87977, "annotation": {"number": 1, "value": 5}, "group": "control_change"}, {"time": 87984, "annotation": {"number": 1, "value": 6}, "group": "control_change"}, {"time": 88019, "annotation": {"number": 1, "value": 7}, "group": "control_change"}, {"time": 88042, "annotation": {"number": 1, "value": 8}, "group": "control_change"}, {"time": 88062, "annotation": {"number": 1, "value": 9}, "group": "control_change"}, {"time": 88094, "annotation": {"number": 1, "value": 10}, "group": "control_change"}, {"time": 88116, "annotation": {"number": 1, "value": 11}, "group": "control_change"}, {"time": 88143, "annotation": {"number": 1, "value": 12}, "group": "control_change"}, {"time": 88194, "annotation": {"number": 1, "value": 13}, "group": "control_change"}, {"time": 88213, "annotation": {"number": 1, "value": 14}, "group": "control_change"}, {"time": 88246, "annotation": {"number": 1, "value": 15}, "group": "control_change"}, {"time": 88361, "annotation": {"number": 1, "value": 14}, "group": "control_change"}, {"time": 88373, "annotation": {"number": 1, "value": 13}, "group": "control_change"}, {"time": 88385, "annotation": {"number": 1, "value": 12}, "group": "control_change"}, {"time": 88396, "annotation": {"number": 1, "value": 11}, "group": "control_change"}, {"time": 88407, "annotation": {"number": 1, "value": 10}, "group": "control_change"}, {"time": 88424, "annotation": {"number": 1, "value": 9}, "group": "control_change"}, {"time": 88456, "annotation": {"number": 1, "value": 8}, "group": "control_change"}, {"time": 88492, "annotation": {"number": 1, "value": 7}, "group": "control_change"}, {"time": 88532, "annotation": {"number": 1, "value": 6}, "group": "control_change"}, {"time": 88600, "annotation": {"number": 1, "value": 5}, "group": "control_change"}, {"time": 88843, "annotation": {"number": 1, "value": 4}, "group": "control_change"}, {"time": 89191, "annotation": {"number": 1, "value": 5}, "group": "control_change"}, {"time": 89219, "annotation": {"number": 1, "value": 6}, "group": "control_change"}, {"time": 89236, "annotation": {"number": 1, "value": 7}, "group": "control_change"}, {"time": 89243, "annotation": {"number": 1, "value": 8}, "group": "control_change"}, {"time": 89250, "annotation": {"number": 1, "value": 9}, "group": "control_change"}, {"time": 89259, "annotation": {"number": 1, "value": 10}, "group": "control_change"}, {"time": 89266, "annotation": {"number": 1, "value": 11}, "group": "control_change"}, {"time": 89273, "annotation": {"number": 1, "value": 12}, "group": "control_change"}, {"time": 89283, "annotation": {"number": 1, "value": 13}, "group": "control_change"}, {"time": 89293, "annotation": {"number": 1, "value": 14}, "group": "control_change"}, {"time": 89306, "annotation": {"number": 1, "value": 15}, "group": "control_change"}, {"time": 89324, "annotation": {"number": 1, "value": 16}, "group": "control_change"}, {"time": 89344, "annotation": {"number": 1, "value": 17}, "group": "control_change"}, {"time": 89365, "annotation": {"number": 1, "value": 18}, "group": "control_change"}, {"time": 89375, "annotation": {"number": 1, "value": 19}, "group": "control_change"}, {"time": 89397, "annotation": {"number": 1, "value": 20}, "group": "control_change"}, {"time": 89448, "annotation": {"number": 1, "value": 19}, "group": "control_change"}, {"time": 89458, "annotation": {"number": 1, "value": 18}, "group": "control_change"}, {"time": 89465, "annotation": {"number": 1, "value": 17}, "group": "control_change"}, {"time": 89472, "annotation": {"number": 1, "value": 16}, "group": "control_change"}, {"time": 89477, "annotation": {"number": 1, "value": 15}, "group": "control_change"}, {"time": 89484, "annotation": {"number": 1, "value": 14}, "group": "control_change"}, {"time": 89490, "annotation": {"number": 1, "value": 13}, "group": "control_change"}, {"time": 89499, "annotation": {"number": 1, "value": 12}, "group": "control_change"}, {"time": 89509, "annotation": {"number": 1, "value": 11}, "group": "control_change"}, {"time": 89518, "annotation": {"number": 1, "value": 10}, "group": "control_change"}, {"time": 89532, "annotation": {"number": 1, "value": 9}, "group": "control_change"}, {"time": 89549, "annotation": {"number": 1, "value": 8}, "group": "control_change"}, {"time": 89574, "annotation": {"number": 1, "value": 9}, "group": "control_change"}, {"time": 89585, "annotation": {"number": 1, "value": 10}, "group": "control_change"}, {"time": 89591, "annotation": {"number": 1, "value": 11}, "group": "control_change"}, {"time": 89600, "annotation": {"number": 1, "value": 12}, "group": "control_change"}, {"time": 89681, "annotation": {"number": 1, "value": 11}, "group": "control_change"}, {"time": 89692, "annotation": {"number": 1, "value": 10}, "group": "control_change"}, {"time": 89705, "annotation": {"number": 1, "value": 9}, "group": "control_change"}, {"time": 89720, "annotation": {"number": 1, "value": 8}, "group": "control_change"}, {"time": 89731, "annotation": {"number": 1, "value": 7}, "group": "control_change"}, {"time": 89747, "annotation": {"number": 1, "value": 6}, "group": "control_change"}, {"time": 89763, "annotation": {"number": 1, "value": 5}, "group": "control_change"}, {"time": 89780, "annotation": {"number": 1, "value": 4}, "group": "control_change"}, {"time": 89823, "annotation": {"number": 1, "value": 5}, "group": "control_change"}, {"time": 89832, "annotation": {"number": 1, "value": 6}, "group": "control_change"}, {"time": 89849, "annotation": {"number": 1, "value": 7}, "group": "control_change"}, {"time": 89858, "annotation": {"number": 1, "value": 8}, "group": "control_change"}, {"time": 89872, "annotation": {"number": 1, "value": 9}, "group": "control_change"}, {"time": 89917, "annotation": {"number": 1, "value": 10}, "group": "control_change"}, {"time": 89930, "annotation": {"number": 1, "value": 11}, "group": "control_change"}, {"time": 89948, "annotation": {"number": 1, "value": 12}, "group": "control_change"}, {"time": 89970, "annotation": {"number": 1, "value": 13}, "group": "control_change"}, {"time": 89996, "annotation": {"number": 1, "value": 14}, "group": "control_change"}, {"time": 90025, "annotation": {"number": 1, "value": 15}, "group": "control_change"}, {"time": 90055, "annotation": {"number": 1, "value": 16}, "group": "control_change"}, {"time": 90074, "annotation": {"number": 1, "value": 17}, "group": "control_change"}, {"time": 90179, "annotation": {"number": 1, "value": 18}, "group": "control_change"}, {"time": 90228, "annotation": {"number": 1, "value": 17}, "group": "control_change"}, {"time": 90241, "annotation": {"number": 1, "value": 16}, "group": "control_change"}, {"time": 90248, "annotation": {"number": 1, "value": 15}, "group": "control_change"}, {"time": 90258, "annotation": {"number": 1, "value": 14}, "group": "control_change"}, {"time": 90267, "annotation": {"number": 1, "value": 13}, "group": "control_change"}, {"time": 90276, "annotation": {"number": 1, "value": 12}, "group": "control_change"}, {"time": 90288, "annotation": {"number": 1, "value": 11}, "group": "control_change"}, {"time": 90299, "annotation": {"number": 1, "value": 10}, "group": "control_change"}, {"time": 90314, "annotation": {"number": 1, "value": 9}, "group": "control_change"}, {"time": 90329, "annotation": {"number": 1, "value": 8}, "group": "control_change"}, {"time": 90345, "annotation": {"number": 1, "value": 7}, "group": "control_change"}, {"time": 90380, "annotation": {"number": 1, "value": 6}, "group": "control_change"}, {"time": 90584, "annotation": {"number": 1, "value": 7}, "group": "control_change"}, {"time": 90604, "annotation": {"number": 1, "value": 8}, "group": "control_change"}, {"time": 90629, "annotation": {"number": 1, "value": 9}, "group": "control_change"}, {"time": 90653, "annotation": {"number": 1, "value": 10}, "group": "control_change"}, {"time": 90665, "annotation": {"number": 1, "value": 11}, "group": "control_change"}, {"time": 90688, "annotation": {"number": 1, "value": 12}, "group": "control_change"}, {"time": 90720, "annotation": {"number": 1, "value": 13}, "group": "control_change"}, {"time": 90770, "annotation": {"number": 1, "value": 14}, "group": "control_change"}, {"time": 90799, "annotation": {"number": 1, "value": 15}, "group": "control_change"}, {"time": 90819, "annotation": {"number": 1, "value": 16}, "group": "control_change"}, {"time": 90859, "annotation": {"number": 1, "value": 17}, "group": "control_change"}, {"time": 90886, "annotation": {"number": 1, "value": 18}, "group": "control_change"}, {"time": 90906, "annotation": {"number": 1, "value": 19}, "group": "control_change"}, {"time": 90933, "annotation": {"number": 1, "value": 20}, "group": "control_change"}, {"time": 90947, "annotation": {"number": 1, "value": 21}, "group": "control_change"}, {"time": 90968, "annotation": {"number": 1, "value": 22}, "group": "control_change"}, {"time": 90990, "annotation": {"number": 1, "value": 23}, "group": "control_change"}, {"time": 91015, "annotation": {"number": 1, "value": 24}, "group": "control_change"}, {"time": 91035, "annotation": {"number": 1, "value": 25}, "group": "control_change"}, {"time": 91053, "annotation": {"number": 1, "value": 26}, "group": "control_change"}, {"time": 91077, "annotation": {"number": 1, "value": 27}, "group": "control_change"}, {"time": 91111, "annotation": {"number": 1, "value": 28}, "group": "control_change"}, {"time": 91138, "annotation": {"number": 1, "value": 29}, "group": "control_change"}, {"time": 91163, "annotation": {"number": 1, "value": 30}, "group": "control_change"}, {"time": 91183, "annotation": {"number": 1, "value": 31}, "group": "control_change"}, {"time": 91204, "annotation": {"number": 1, "value": 32}, "group": "control_change"}, {"time": 91296, "annotation": {"number": 1, "value": 31}, "group": "control_change"}, {"time": 91309, "annotation": {"number": 1, "value": 30}, "group": "control_change"}, {"time": 91315, "annotation": {"number": 1, "value": 29}, "group": "control_change"}, {"time": 91323, "annotation": {"number": 1, "value": 28}, "group": "control_change"}, {"time": 91332, "annotation": {"number": 1, "value": 27}, "group": "control_change"}, {"time": 91337, "annotation": {"number": 1, "value": 26}, "group": "control_change"}, {"time": 91345, "annotation": {"number": 1, "value": 25}, "group": "control_change"}, {"time": 91353, "annotation": {"number": 1, "value": 24}, "group": "control_change"}, {"time": 91358, "annotation": {"number": 1, "value": 23}, "group": "control_change"}, {"time": 91364, "annotation": {"number": 1, "value": 22}, "group": "control_change"}, {"time": 91371, "annotation": {"number": 1, "value": 21}, "group": "control_change"}, {"time": 91379, "annotation": {"number": 1, "value": 20}, "group": "control_change"}, {"time": 91384, "annotation": {"number": 1, "value": 19}, "group": "control_change"}, {"time": 91390, "annotation": {"number": 1, "value": 18}, "group": "control_change"}, {"time": 91396, "annotation": {"number": 1, "value": 17}, "group": "control_change"}, {"time": 91403, "annotation": {"number": 1, "value": 16}, "group": "control_change"}, {"time": 91410, "annotation": {"number": 1, "value": 15}, "group": "control_change"}, {"time": 91420, "annotation": {"number": 1, "value": 14}, "group": "control_change"}, {"time": 91432, "annotation": {"number": 1, "value": 13}, "group": "control_change"}, {"time": 91456, "annotation": {"number": 1, "value": 12}, "group": "control_change"}, {"time": 91483, "annotation": {"number": 1, "value": 11}, "group": "control_change"}, {"time": 91504, "annotation": {"number": 1, "value": 10}, "group": "control_change"}, {"time": 91711, "annotation": {"number": 1, "value": 9}, "group": "control_change"}, {"time": 91754, "annotation": {"number": 1, "value": 8}, "group": "control_change"}, {"time": 92544, "annotation": {"number": 1, "value": 9}, "group": "control_change"}, {"time": 92586, "annotation": {"number": 1, "value": 10}, "group": "control_change"}, {"time": 92609, "annotation": {"number": 1, "value": 11}, "group": "control_change"}, {"time": 92634, "annotation": {"number": 1, "value": 12}, "group": "control_change"}, {"time": 92646, "annotation": {"number": 1, "value": 13}, "group": "control_change"}, {"time": 92654, "annotation": {"number": 1, "value": 14}, "group": "control_change"}, {"time": 92663, "annotation": {"number": 1, "value": 15}, "group": "control_change"}, {"time": 92669, "annotation": {"number": 1, "value": 16}, "group": "control_change"}, {"time": 92677, "annotation": {"number": 1, "value": 17}, "group": "control_change"}, {"time": 92688, "annotation": {"number": 1, "value": 18}, "group": "control_change"}, {"time": 92699, "annotation": {"number": 1, "value": 19}, "group": "control_change"}, {"time": 92756, "annotation": {"number": 1, "value": 18}, "group": "control_change"}, {"time": 92761, "annotation": {"number": 1, "value": 17}, "group": "control_change"}, {"time": 92767, "annotation": {"number": 1, "value": 16}, "group": "control_change"}, {"time": 92770, "annotation": {"number": 1, "value": 15}, "group": "control_change"}, {"time": 92775, "annotation": {"number": 1, "value": 14}, "group": "control_change"}, {"time": 92778, "annotation": {"number": 1, "value": 13}, "group": "control_change"}, {"time": 92783, "annotation": {"number": 1, "value": 12}, "group": "control_change"}, {"time": 92786, "annotation": {"number": 1, "value": 11}, "group": "control_change"}, {"time": 92789, "annotation": {"number": 1, "value": 10}, "group": "control_change"}, {"time": 92794, "annotation": {"number": 1, "value": 9}, "group": "control_change"}, {"time": 92797, "annotation": {"number": 1, "value": 8}, "group": "control_change"}, {"time": 92800, "annotation": {"number": 1, "value": 7}, "group": "control_change"}, {"time": 92805, "annotation": {"number": 1, "value": 6}, "group": "control_change"}, {"time": 92811, "annotation": {"number": 1, "value": 5}, "group": "control_change"}, {"time": 92816, "annotation": {"number": 1, "value": 4}, "group": "control_change"}, {"time": 92859, "annotation": {"number": 1, "value": 5}, "group": "control_change"}, {"time": 92864, "annotation": {"number": 1, "value": 6}, "group": "control_change"}, {"time": 92874, "annotation": {"number": 1, "value": 7}, "group": "control_change"}, {"time": 92879, "annotation": {"number": 1, "value": 8}, "group": "control_change"}, {"time": 92885, "annotation": {"number": 1, "value": 9}, "group": "control_change"}, {"time": 92894, "annotation": {"number": 1, "value": 10}, "group": "control_change"}, {"time": 92899, "annotation": {"number": 1, "value": 11}, "group": "control_change"}, {"time": 92909, "annotation": {"number": 1, "value": 12}, "group": "control_change"}, {"time": 92922, "annotation": {"number": 1, "value": 13}, "group": "control_change"}, {"time": 92933, "annotation": {"number": 1, "value": 14}, "group": "control_change"}, {"time": 92951, "annotation": {"number": 1, "value": 15}, "group": "control_change"}, {"time": 92988, "annotation": {"number": 1, "value": 14}, "group": "control_change"}, {"time": 92994, "annotation": {"number": 1, "value": 13}, "group": "control_change"}, {"time": 93000, "annotation": {"number": 1, "value": 12}, "group": "control_change"}, {"time": 93006, "annotation": {"number": 1, "value": 11}, "group": "control_change"}, {"time": 93011, "annotation": {"number": 1, "value": 10}, "group": "control_change"}, {"time": 93018, "annotation": {"number": 1, "value": 9}, "group": "control_change"}, {"time": 93024, "annotation": {"number": 1, "value": 8}, "group": "control_change"}, {"time": 93030, "annotation": {"number": 1, "value": 7}, "group": "control_change"}, {"time": 93039, "annotation": {"number": 1, "value": 6}, "group": "control_change"}, {"time": 93046, "annotation": {"number": 1, "value": 5}, "group": "control_change"}, {"time": 93053, "annotation": {"number": 1, "value": 4}, "group": "control_change"}, {"time": 93065, "annotation": {"number": 1, "value": 3}, "group": "control_change"}, {"time": 93118, "annotation": {"number": 1, "value": 4}, "group": "control_change"}, {"time": 93128, "annotation": {"number": 1, "value": 5}, "group": "control_change"}, {"time": 93134, "annotation": {"number": 1, "value": 6}, "group": "control_change"}, {"time": 93144, "annotation": {"number": 1, "value": 7}, "group": "control_change"}, {"time": 93148, "annotation": {"number": 1, "value": 8}, "group": "control_change"}, {"time": 93154, "annotation": {"number": 1, "value": 9}, "group": "control_change"}, {"time": 93162, "annotation": {"number": 1, "value": 10}, "group": "control_change"}, {"time": 93166, "annotation": {"number": 1, "value": 11}, "group": "control_change"}, {"time": 93172, "annotation": {"number": 1, "value": 12}, "group": "control_change"}, {"time": 93182, "annotation": {"number": 1, "value": 13}, "group": "control_change"}, {"time": 93207, "annotation": {"number": 1, "value": 14}, "group": "control_change"}, {"time": 93229, "annotation": {"number": 1, "value": 13}, "group": "control_change"}, {"time": 93237, "annotation": {"number": 1, "value": 12}, "group": "control_change"}, {"time": 93244, "annotation": {"number": 1, "value": 11}, "group": "control_change"}, {"time": 93249, "annotation": {"number": 1, "value": 10}, "group": "control_change"}, {"time": 93255, "annotation": {"number": 1, "value": 9}, "group": "control_change"}, {"time": 93259, "annotation": {"number": 1, "value": 8}, "group": "control_change"}, {"time": 93263, "annotation": {"number": 1, "value": 7}, "group": "control_change"}, {"time": 93269, "annotation": {"number": 1, "value": 6}, "group": "control_change"}, {"time": 93274, "annotation": {"number": 1, "value": 5}, "group": "control_change"}, {"time": 93278, "annotation": {"number": 1, "value": 4}, "group": "control_change"}, {"time": 93284, "annotation": {"number": 1, "value": 3}, "group": "control_change"}, {"time": 93291, "annotation": {"number": 1, "value": 2}, "group": "control_change"}, {"time": 93297, "annotation": {"number": 1, "value": 1}, "group": "control_change"}, {"time": 93446, "annotation": {"number": 1, "value": 2}, "group": "control_change"}, {"time": 93477, "annotation": {"number": 1, "value": 3}, "group": "control_change"}, {"time": 93502, "annotation": {"number": 1, "value": 4}, "group": "control_change"}, {"time": 93540, "annotation": {"number": 1, "value": 5}, "group": "control_change"}, {"time": 93549, "annotation": {"number": 1, "value": 6}, "group": "control_change"}, {"time": 93559, "annotation": {"number": 1, "value": 7}, "group": "control_change"}, {"time": 93563, "annotation": {"number": 1, "value": 8}, "group": "control_change"}, {"time": 93569, "annotation": {"number": 1, "value": 9}, "group": "control_change"}, {"time": 93576, "annotation": {"number": 1, "value": 10}, "group": "control_change"}, {"time": 93582, "annotation": {"number": 1, "value": 11}, "group": "control_change"}, {"time": 93594, "annotation": {"number": 1, "value": 12}, "group": "control_change"}, {"time": 93610, "annotation": {"number": 1, "value": 13}, "group": "control_change"}, {"time": 93623, "annotation": {"number": 1, "value": 14}, "group": "control_change"}, {"time": 93637, "annotation": {"number": 1, "value": 15}, "group": "control_change"}, {"time": 93663, "annotation": {"number": 1, "value": 16}, "group": "control_change"}, {"time": 93684, "annotation": {"number": 1, "value": 17}, "group": "control_change"}, {"time": 93701, "annotation": {"number": 1, "value": 18}, "group": "control_change"}, {"time": 93711, "annotation": {"number": 1, "value": 19}, "group": "control_change"}, {"time": 93783, "annotation": {"number": 1, "value": 20}, "group": "control_change"}, {"time": 93837, "annotation": {"number": 1, "value": 21}, "group": "control_change"}, {"time": 93858, "annotation": {"number": 1, "value": 22}, "group": "control_change"}, {"time": 93904, "annotation": {"number": 1, "value": 23}, "group": "control_change"}, {"time": 93937, "annotation": {"number": 1, "value": 24}, "group": "control_change"}, {"time": 93994, "annotation": {"number": 1, "value": 25}, "group": "control_change"}, {"time": 94020, "annotation": {"number": 1, "value": 26}, "group": "control_change"}, {"time": 94058, "annotation": {"number": 1, "value": 27}, "group": "control_change"}, {"time": 94083, "annotation": {"number": 1, "value": 28}, "group": "control_change"}, {"time": 94138, "annotation": {"number": 1, "value": 29}, "group": "control_change"}, {"time": 94159, "annotation": {"number": 1, "value": 30}, "group": "control_change"}, {"time": 94193, "annotation": {"number": 1, "value": 31}, "group": "control_change"}, {"time": 94271, "annotation": {"number": 1, "value": 32}, "group": "control_change"}, {"time": 94308, "annotation": {"number": 1, "value": 33}, "group": "control_change"}, {"time": 94329, "annotation": {"number": 1, "value": 34}, "group": "control_change"}, {"time": 94339, "annotation": {"number": 1, "value": 35}, "group": "control_change"}, {"time": 94352, "annotation": {"number": 1, "value": 36}, "group": "control_change"}, {"time": 94373, "annotation": {"number": 1, "value": 37}, "group": "control_change"}, {"time": 94415, "annotation": {"number": 1, "value": 38}, "group": "control_change"}, {"time": 94544, "annotation": {"number": 1, "value": 39}, "group": "control_change"}, {"time": 94685, "annotation": {"number": 1, "value": 40}, "group": "control_change"}, {"time": 94711, "annotation": {"number": 1, "value": 41}, "group": "control_change"}, {"time": 94727, "annotation": {"number": 1, "value": 42}, "group": "control_change"}, {"time": 94945, "annotation": {"number": 1, "value": 41}, "group": "control_change"}, {"time": 94957, "annotation": {"number": 1, "value": 40}, "group": "control_change"}, {"time": 94964, "annotation": {"number": 1, "value": 39}, "group": "control_change"}, {"time": 94974, "annotation": {"number": 1, "value": 38}, "group": "control_change"}, {"time": 94980, "annotation": {"number": 1, "value": 37}, "group": "control_change"}, {"time": 94985, "annotation": {"number": 1, "value": 36}, "group": "control_change"}, {"time": 94993, "annotation": {"number": 1, "value": 35}, "group": "control_change"}, {"time": 94998, "annotation": {"number": 1, "value": 34}, "group": "control_change"}, {"time": 95005, "annotation": {"number": 1, "value": 33}, "group": "control_change"}, {"time": 95012, "annotation": {"number": 1, "value": 32}, "group": "control_change"}, {"time": 95021, "annotation": {"number": 1, "value": 31}, "group": "control_change"}, {"time": 95033, "annotation": {"number": 1, "value": 30}, "group": "control_change"}, {"time": 95042, "annotation": {"number": 1, "value": 29}, "group": "control_change"}, {"time": 95059, "annotation": {"number": 1, "value": 28}, "group": "control_change"}, {"time": 95073, "annotation": {"number": 1, "value": 27}, "group": "control_change"}, {"time": 95085, "annotation": {"number": 1, "value": 26}, "group": "control_change"}, {"time": 95096, "annotation": {"number": 1, "value": 25}, "group": "control_change"}, {"time": 95106, "annotation": {"number": 1, "value": 24}, "group": "control_change"}, {"time": 95113, "annotation": {"number": 1, "value": 23}, "group": "control_change"}, {"time": 95121, "annotation": {"number": 1, "value": 22}, "group": "control_change"}, {"time": 95139, "annotation": {"number": 1, "value": 21}, "group": "control_change"}, {"time": 95174, "annotation": {"number": 1, "value": 20}, "group": "control_change"}, {"time": 95249, "annotation": {"number": 1, "value": 19}, "group": "control_change"}, {"time": 95385, "annotation": {"number": 1, "value": 18}, "group": "control_change"}, {"time": 95400, "annotation": {"number": 1, "value": 17}, "group": "control_change"}, {"time": 95412, "annotation": {"number": 1, "value": 16}, "group": "control_change"}, {"time": 95421, "annotation": {"number": 1, "value": 15}, "group": "control_change"}, {"time": 95542, "annotation": {"number": 1, "value": 16}, "group": "control_change"}, {"time": 95551, "annotation": {"number": 1, "value": 17}, "group": "control_change"}, {"time": 95595, "annotation": {"number": 1, "value": 18}, "group": "control_change"}, {"time": 95622, "annotation": {"number": 1, "value": 19}, "group": "control_change"}, {"time": 95640, "annotation": {"number": 1, "value": 20}, "group": "control_change"}, {"time": 95652, "annotation": {"number": 1, "value": 21}, "group": "control_change"}, {"time": 95768, "annotation": {"number": 1, "value": 20}, "group": "control_change"}, {"time": 95788, "annotation": {"number": 1, "value": 19}, "group": "control_change"}, {"time": 95818, "annotation": {"number": 1, "value": 18}, "group": "control_change"}, {"time": 95834, "annotation": {"number": 1, "value": 17}, "group": "control_change"}, {"time": 95882, "annotation": {"number": 1, "value": 18}, "group": "control_change"}, {"time": 95888, "annotation": {"number": 1, "value": 19}, "group": "control_change"}, {"time": 95896, "annotation": {"number": 1, "value": 20}, "group": "control_change"}, {"time": 95901, "annotation": {"number": 1, "value": 21}, "group": "control_change"}, {"time": 95908, "annotation": {"number": 1, "value": 22}, "group": "control_change"}, {"time": 95915, "annotation": {"number": 1, "value": 23}, "group": "control_change"}, {"time": 95921, "annotation": {"number": 1, "value": 24}, "group": "control_change"}, {"time": 95928, "annotation": {"number": 1, "value": 25}, "group": "control_change"}, {"time": 95938, "annotation": {"number": 1, "value": 26}, "group": "control_change"}, {"time": 95946, "annotation": {"number": 1, "value": 27}, "group": "control_change"}, {"time": 95959, "annotation": {"number": 1, "value": 28}, "group": "control_change"}, {"time": 96032, "annotation": {"number": 1, "value": 27}, "group": "control_change"}, {"time": 96044, "annotation": {"number": 1, "value": 26}, "group": "control_change"}, {"time": 96058, "annotation": {"number": 1, "value": 25}, "group": "control_change"}, {"time": 96070, "annotation": {"number": 1, "value": 24}, "group": "control_change"}, {"time": 96077, "annotation": {"number": 1, "value": 23}, "group": "control_change"}, {"time": 96083, "annotation": {"number": 1, "value": 22}, "group": "control_change"}, {"time": 96093, "annotation": {"number": 1, "value": 21}, "group": "control_change"}, {"time": 96103, "annotation": {"number": 1, "value": 20}, "group": "control_change"}, {"time": 96111, "annotation": {"number": 1, "value": 19}, "group": "control_change"}, {"time": 96126, "annotation": {"number": 1, "value": 18}, "group": "control_change"}, {"time": 96147, "annotation": {"number": 1, "value": 17}, "group": "control_change"}, {"time": 96169, "annotation": {"number": 1, "value": 16}, "group": "control_change"}, {"time": 96187, "annotation": {"number": 1, "value": 15}, "group": "control_change"}, {"time": 96215, "annotation": {"number": 1, "value": 14}, "group": "control_change"}, {"time": 96840, "annotation": {"number": 1, "value": 15}, "group": "control_change"}, {"time": 96860, "annotation": {"number": 1, "value": 16}, "group": "control_change"}, {"time": 96879, "annotation": {"number": 1, "value": 17}, "group": "control_change"}, {"time": 96963, "annotation": {"number": 1, "value": 18}, "group": "control_change"}, {"time": 97045, "annotation": {"number": 1, "value": 19}, "group": "control_change"}, {"time": 97075, "annotation": {"number": 1, "value": 20}, "group": "control_change"}, {"time": 97089, "annotation": {"number": 1, "value": 21}, "group": "control_change"}, {"time": 97114, "annotation": {"number": 1, "value": 22}, "group": "control_change"}, {"time": 97220, "annotation": {"number": 1, "value": 21}, "group": "control_change"}, {"time": 97232, "annotation": {"number": 1, "value": 20}, "group": "control_change"}, {"time": 97240, "annotation": {"number": 1, "value": 19}, "group": "control_change"}, {"time": 97249, "annotation": {"number": 1, "value": 18}, "group": "control_change"}, {"time": 97257, "annotation": {"number": 1, "value": 17}, "group": "control_change"}, {"time": 97269, "annotation": {"number": 1, "value": 16}, "group": "control_change"}, {"time": 97285, "annotation": {"number": 1, "value": 15}, "group": "control_change"}, {"time": 97400, "annotation": {"number": 1, "value": 16}, "group": "control_change"}, {"time": 97430, "annotation": {"number": 1, "value": 17}, "group": "control_change"}, {"time": 97475, "annotation": {"number": 1, "value": 18}, "group": "control_change"}, {"time": 97493, "annotation": {"number": 1, "value": 19}, "group": "control_change"}, {"time": 97520, "annotation": {"number": 1, "value": 20}, "group": "control_change"}, {"time": 97536, "annotation": {"number": 1, "value": 21}, "group": "control_change"}, {"time": 97554, "annotation": {"number": 1, "value": 22}, "group": "control_change"}, {"time": 97567, "annotation": {"number": 1, "value": 23}, "group": "control_change"}, {"time": 97578, "annotation": {"number": 1, "value": 24}, "group": "control_change"}, {"time": 97589, "annotation": {"number": 1, "value": 25}, "group": "control_change"}, {"time": 97610, "annotation": {"number": 1, "value": 26}, "group": "control_change"}, {"time": 97633, "annotation": {"number": 1, "value": 27}, "group": "control_change"}, {"time": 97656, "annotation": {"number": 1, "value": 28}, "group": "control_change"}, {"time": 97696, "annotation": {"number": 1, "value": 29}, "group": "control_change"}, {"time": 97725, "annotation": {"number": 1, "value": 30}, "group": "control_change"}, {"time": 97831, "annotation": {"number": 1, "value": 29}, "group": "control_change"}, {"time": 97859, "annotation": {"number": 1, "value": 28}, "group": "control_change"}, {"time": 97882, "annotation": {"number": 1, "value": 27}, "group": "control_change"}, {"time": 97897, "annotation": {"number": 1, "value": 26}, "group": "control_change"}, {"time": 97912, "annotation": {"number": 1, "value": 25}, "group": "control_change"}, {"time": 97927, "annotation": {"number": 1, "value": 24}, "group": "control_change"}, {"time": 97941, "annotation": {"number": 1, "value": 23}, "group": "control_change"}, {"time": 97960, "annotation": {"number": 1, "value": 22}, "group": "control_change"}, {"time": 97995, "annotation": {"number": 1, "value": 21}, "group": "control_change"}, {"time": 98064, "annotation": {"number": 1, "value": 22}, "group": "control_change"}, {"time": 98080, "annotation": {"number": 1, "value": 23}, "group": "control_change"}, {"time": 98099, "annotation": {"number": 1, "value": 24}, "group": "control_change"}, {"time": 98133, "annotation": {"number": 1, "value": 25}, "group": "control_change"}, {"time": 98218, "annotation": {"number": 1, "value": 24}, "group": "control_change"}, {"time": 98228, "annotation": {"number": 1, "value": 23}, "group": "control_change"}, {"time": 98240, "annotation": {"number": 1, "value": 22}, "group": "control_change"}, {"time": 98253, "annotation": {"number": 1, "value": 21}, "group": "control_change"}, {"time": 98268, "annotation": {"number": 1, "value": 20}, "group": "control_change"}, {"time": 98323, "annotation": {"number": 1, "value": 21}, "group": "control_change"}, {"time": 98341, "annotation": {"number": 1, "value": 22}, "group": "control_change"}, {"time": 98362, "annotation": {"number": 1, "value": 23}, "group": "control_change"}, {"time": 98396, "annotation": {"number": 1, "value": 24}, "group": "control_change"}, {"time": 98424, "annotation": {"number": 1, "value": 25}, "group": "control_change"}, {"time": 98448, "annotation": {"number": 1, "value": 26}, "group": "control_change"}, {"time": 98474, "annotation": {"number": 1, "value": 27}, "group": "control_change"}, {"time": 98530, "annotation": {"number": 1, "value": 28}, "group": "control_change"}, {"time": 98558, "annotation": {"number": 1, "value": 29}, "group": "control_change"}, {"time": 98581, "annotation": {"number": 1, "value": 30}, "group": "control_change"}, {"time": 98649, "annotation": {"number": 1, "value": 31}, "group": "control_change"}, {"time": 98723, "annotation": {"number": 1, "value": 32}, "group": "control_change"}, {"time": 98777, "annotation": {"number": 1, "value": 31}, "group": "control_change"}, {"time": 98800, "annotation": {"number": 1, "value": 30}, "group": "control_change"}, {"time": 98812, "annotation": {"number": 1, "value": 29}, "group": "control_change"}, {"time": 98824, "annotation": {"number": 1, "value": 28}, "group": "control_change"}, {"time": 98836, "annotation": {"number": 1, "value": 27}, "group": "control_change"}, {"time": 98848, "annotation": {"number": 1, "value": 26}, "group": "control_change"}, {"time": 98866, "annotation": {"number": 1, "value": 25}, "group": "control_change"}, {"time": 98885, "annotation": {"number": 1, "value": 24}, "group": "control_change"}, {"time": 98899, "annotation": {"number": 1, "value": 23}, "group": "control_change"}, {"time": 98914, "annotation": {"number": 1, "value": 22}, "group": "control_change"}, {"time": 98941, "annotation": {"number": 1, "value": 21}, "group": "control_change"}, {"time": 99003, "annotation": {"number": 1, "value": 20}, "group": "control_change"}, {"time": 99054, "annotation": {"number": 1, "value": 19}, "group": "control_change"}, {"time": 99092, "annotation": {"number": 1, "value": 18}, "group": "control_change"}, {"time": 99137, "annotation": {"number": 1, "value": 17}, "group": "control_change"}, {"time": 99184, "annotation": {"number": 1, "value": 16}, "group": "control_change"}, {"time": 99207, "annotation": {"number": 1, "value": 15}, "group": "control_change"}, {"time": 99229, "annotation": {"number": 1, "value": 14}, "group": "control_change"}, {"time": 99247, "annotation": {"number": 1, "value": 13}, "group": "control_change"}, {"time": 99378, "annotation": {"number": 1, "value": 12}, "group": "control_change"}, {"time": 100757, "annotation": {"number": 1, "value": 11}, "group": "control_change"}, {"time": 100866, "annotation": {"number": 1, "value": 10}, "group": "control_change"}, {"time": 100884, "annotation": {"number": 1, "value": 9}, "group": "control_change"}, {"time": 100901, "annotation": {"number": 1, "value": 8}, "group": "control_change"}, {"time": 100917, "annotation": {"number": 1, "value": 7}, "group": "control_change"}, {"time": 100936, "annotation": {"number": 1, "value": 6}, "group": "control_change"}, {"time": 100962, "annotation": {"number": 1, "value": 5}, "group": "control_change"}, {"time": 100989, "annotation": {"number": 1, "value": 4}, "group": "control_change"}, {"time": 101043, "annotation": {"number": 1, "value": 3}, "group": "control_change"}, {"time": 101098, "annotation": {"number": 1, "value": 2}, "group": "control_change"}, {"time": 101232, "annotation": {"number": 1, "value": 1}, "group": "control_change"}, {"time": 101485, "annotation": {"number": 1, "value": 2}, "group": "control_change"}, {"time": 101500, "annotation": {"number": 1, "value": 3}, "group": "control_change"}, {"time": 101546, "annotation": {"number": 1, "value": 4}, "group": "control_change"}, {"time": 101559, "annotation": {"number": 1, "value": 5}, "group": "control_change"}, {"time": 101569, "annotation": {"number": 1, "value": 6}, "group": "control_change"}, {"time": 101645, "annotation": {"number": 1, "value": 5}, "group": "control_change"}, {"time": 101660, "annotation": {"number": 1, "value": 4}, "group": "control_change"}, {"time": 101677, "annotation": {"number": 1, "value": 3}, "group": "control_change"}, {"time": 104104, "annotation": {"number": 1, "value": 4}, "group": "control_change"}, {"time": 104193, "annotation": {"number": 1, "value": 3}, "group": "control_change"}, {"time": 104200, "annotation": {"number": 1, "value": 2}, "group": "control_change"}, {"time": 104206, "annotation": {"number": 1, "value": 1}, "group": "control_change"}, {"time": 104290, "annotation": {"number": 1, "value": 2}, "group": "control_change"}, {"time": 104301, "annotation": {"number": 1, "value": 3}, "group": "control_change"}, {"time": 104321, "annotation": {"number": 1, "value": 4}, "group": "control_change"}, {"time": 104330, "annotation": {"number": 1, "value": 5}, "group": "control_change"}, {"time": 104338, "annotation": {"number": 1, "value": 6}, "group": "control_change"}, {"time": 104360, "annotation": {"number": 1, "value": 7}, "group": "control_change"}, {"time": 104385, "annotation": {"number": 1, "value": 8}, "group": "control_change"}, {"time": 104409, "annotation": {"number": 1, "value": 9}, "group": "control_change"}, {"time": 104438, "annotation": {"number": 1, "value": 10}, "group": "control_change"}, {"time": 104452, "annotation": {"number": 1, "value": 11}, "group": "control_change"}, {"time": 104473, "annotation": {"number": 1, "value": 12}, "group": "control_change"}, {"time": 104495, "annotation": {"number": 1, "value": 13}, "group": "control_change"}, {"time": 104507, "annotation": {"number": 1, "value": 14}, "group": "control_change"}, {"time": 104521, "annotation": {"number": 1, "value": 15}, "group": "control_change"}, {"time": 104538, "annotation": {"number": 1, "value": 16}, "group": "control_change"}, {"time": 104570, "annotation": {"number": 1, "value": 15}, "group": "control_change"}, {"time": 104581, "annotation": {"number": 1, "value": 14}, "group": "control_change"}, {"time": 104591, "annotation": {"number": 1, "value": 13}, "group": "control_change"}, {"time": 104601, "annotation": {"number": 1, "value": 12}, "group": "control_change"}, {"time": 104611, "annotation": {"number": 1, "value": 11}, "group": "control_change"}, {"time": 104622, "annotation": {"number": 1, "value": 10}, "group": "control_change"}, {"time": 104638, "annotation": {"number": 1, "value": 9}, "group": "control_change"}, {"time": 104666, "annotation": {"number": 1, "value": 8}, "group": "control_change"}, {"time": 104739, "annotation": {"number": 1, "value": 7}, "group": "control_change"}, {"time": 104803, "annotation": {"number": 1, "value": 6}, "group": "control_change"}, {"time": 104839, "annotation": {"number": 1, "value": 5}, "group": "control_change"}, {"time": 104861, "annotation": {"number": 1, "value": 4}, "group": "control_change"}, {"time": 105066, "annotation": {"number": 1, "value": 5}, "group": "control_change"}, {"time": 105113, "annotation": {"number": 1, "value": 6}, "group": "control_change"}, {"time": 105240, "annotation": {"number": 1, "value": 7}, "group": "control_change"}, {"time": 105254, "annotation": {"number": 1, "value": 8}, "group": "control_change"}, {"time": 105267, "annotation": {"number": 1, "value": 9}, "group": "control_change"}, {"time": 105282, "annotation": {"number": 1, "value": 10}, "group": "control_change"}, {"time": 105292, "annotation": {"number": 1, "value": 11}, "group": "control_change"}, {"time": 105307, "annotation": {"number": 1, "value": 12}, "group": "control_change"}, {"time": 105333, "annotation": {"number": 1, "value": 13}, "group": "control_change"}, {"time": 105351, "annotation": {"number": 1, "value": 14}, "group": "control_change"}, {"time": 105379, "annotation": {"number": 1, "value": 15}, "group": "control_change"}, {"time": 105473, "annotation": {"number": 1, "value": 14}, "group": "control_change"}, {"time": 105497, "annotation": {"number": 1, "value": 13}, "group": "control_change"}, {"time": 105569, "annotation": {"number": 1, "value": 12}, "group": "control_change"}, {"time": 105601, "annotation": {"number": 1, "value": 11}, "group": "control_change"}, {"time": 105659, "annotation": {"number": 1, "value": 10}, "group": "control_change"}, {"time": 105702, "annotation": {"number": 1, "value": 9}, "group": "control_change"}, {"time": 105774, "annotation": {"number": 1, "value": 8}, "group": "control_change"}, {"time": 105814, "annotation": {"number": 1, "value": 7}, "group": "control_change"}, {"time": 105920, "annotation": {"number": 1, "value": 6}, "group": "control_change"}, {"time": 105964, "annotation": {"number": 1, "value": 5}, "group": "control_change"}, {"time": 106173, "annotation": {"number": 1, "value": 6}, "group": "control_change"}, {"time": 106199, "annotation": {"number": 1, "value": 7}, "group": "control_change"}, {"time": 106225, "annotation": {"number": 1, "value": 8}, "group": "control_change"}, {"time": 106498, "annotation": {"number": 1, "value": 9}, "group": "control_change"}, {"time": 106521, "annotation": {"number": 1, "value": 10}, "group": "control_change"}, {"time": 106537, "annotation": {"number": 1, "value": 11}, "group": "control_change"}, {"time": 107501, "annotation": {"number": 1, "value": 10}, "group": "control_change"}, {"time": 107826, "annotation": {"number": 1, "value": 9}, "group": "control_change"}, {"time": 108307, "annotation": {"number": 1, "value": 8}, "group": "control_change"}, {"time": 108334, "annotation": {"number": 1, "value": 7}, "group": "control_change"}, {"time": 108520, "annotation": {"number": 1, "value": 6}, "group": "control_change"}, {"time": 108597, "annotation": {"number": 1, "value": 5}, "group": "control_change"}, {"time": 108622, "annotation": {"number": 1, "value": 4}, "group": "control_change"}, {"time": 108646, "annotation": {"number": 1, "value": 3}, "group": "control_change"}, {"time": 109000, "annotation": {"number": 1, "value": 4}, "group": "control_change"}, {"time": 109025, "annotation": {"number": 1, "value": 5}, "group": "control_change"}, {"time": 109092, "annotation": {"number": 1, "value": 6}, "group": "control_change"}, {"time": 109178, "annotation": {"number": 1, "value": 7}, "group": "control_change"}, {"time": 109232, "annotation": {"number": 1, "value": 6}, "group": "control_change"}, {"time": 109250, "annotation": {"number": 1, "value": 5}, "group": "control_change"}, {"time": 109403, "annotation": {"number": 1, "value": 6}, "group": "control_change"}, {"time": 109458, "annotation": {"number": 1, "value": 7}, "group": "control_change"}, {"time": 109487, "annotation": {"number": 1, "value": 8}, "group": "control_change"}, {"time": 109517, "annotation": {"number": 1, "value": 9}, "group": "control_change"}, {"time": 109575, "annotation": {"number": 1, "value": 10}, "group": "control_change"}, {"time": 109592, "annotation": {"number": 1, "value": 11}, "group": "control_change"}, {"time": 109674, "annotation": {"number": 1, "value": 10}, "group": "control_change"}, {"time": 109699, "annotation": {"number": 1, "value": 9}, "group": "control_change"}, {"time": 109893, "annotation": {"number": 1, "value": 8}, "group": "control_change"}, {"time": 110057, "annotation": {"number": 1, "value": 7}, "group": "control_change"}, {"time": 110153, "annotation": {"number": 1, "value": 6}, "group": "control_change"}, {"time": 110655, "annotation": {"number": 1, "value": 5}, "group": "control_change"}, {"time": 110700, "annotation": {"number": 1, "value": 4}, "group": "control_change"}, {"time": 110904, "annotation": {"number": 1, "value": 3}, "group": "control_change"}, {"time": 111391, "annotation": {"number": 1, "value": 4}, "group": "control_change"}, {"time": 111406, "annotation": {"number": 1, "value": 5}, "group": "control_change"}, {"time": 111415, "annotation": {"number": 1, "value": 6}, "group": "control_change"}, {"time": 111432, "annotation": {"number": 1, "value": 7}, "group": "control_change"}, {"time": 111446, "annotation": {"number": 1, "value": 8}, "group": "control_change"}, {"time": 111475, "annotation": {"number": 1, "value": 9}, "group": "control_change"}, {"time": 111555, "annotation": {"number": 1, "value": 8}, "group": "control_change"}, {"time": 111568, "annotation": {"number": 1, "value": 7}, "group": "control_change"}, {"time": 111587, "annotation": {"number": 1, "value": 6}, "group": "control_change"}, {"time": 111605, "annotation": {"number": 1, "value": 5}, "group": "control_change"}, {"time": 111667, "annotation": {"number": 1, "value": 6}, "group": "control_change"}, {"time": 111740, "annotation": {"number": 1, "value": 5}, "group": "control_change"}, {"time": 111749, "annotation": {"number": 1, "value": 4}, "group": "control_change"}, {"time": 111759, "annotation": {"number": 1, "value": 3}, "group": "control_change"}, {"time": 111774, "annotation": {"number": 1, "value": 2}, "group": "control_change"}, {"time": 111828, "annotation": {"number": 1, "value": 3}, "group": "control_change"}, {"time": 111841, "annotation": {"number": 1, "value": 4}, "group": "control_change"}, {"time": 111852, "annotation": {"number": 1, "value": 5}, "group": "control_change"}, {"time": 111865, "annotation": {"number": 1, "value": 6}, "group": "control_change"}, {"time": 111937, "annotation": {"number": 1, "value": 7}, "group": "control_change"}, {"time": 111949, "annotation": {"number": 1, "value": 8}, "group": "control_change"}, {"time": 111960, "annotation": {"number": 1, "value": 9}, "group": "control_change"}, {"time": 111976, "annotation": {"number": 1, "value": 10}, "group": "control_change"}, {"time": 111984, "annotation": {"number": 1, "value": 11}, "group": "control_change"}, {"time": 111993, "annotation": {"number": 1, "value": 12}, "group": "control_change"}, {"time": 112003, "annotation": {"number": 1, "value": 13}, "group": "control_change"}, {"time": 112013, "annotation": {"number": 1, "value": 14}, "group": "control_change"}, {"time": 112025, "annotation": {"number": 1, "value": 15}, "group": "control_change"}, {"time": 112035, "annotation": {"number": 1, "value": 16}, "group": "control_change"}, {"time": 112044, "annotation": {"number": 1, "value": 17}, "group": "control_change"}, {"time": 112060, "annotation": {"number": 1, "value": 18}, "group": "control_change"}, {"time": 112072, "annotation": {"number": 1, "value": 19}, "group": "control_change"}, {"time": 112096, "annotation": {"number": 1, "value": 20}, "group": "control_change"}, {"time": 112118, "annotation": {"number": 1, "value": 21}, "group": "control_change"}, {"time": 112225, "annotation": {"number": 1, "value": 20}, "group": "control_change"}, {"time": 112233, "annotation": {"number": 1, "value": 19}, "group": "control_change"}, {"time": 112242, "annotation": {"number": 1, "value": 18}, "group": "control_change"}, {"time": 112247, "annotation": {"number": 1, "value": 17}, "group": "control_change"}, {"time": 112254, "annotation": {"number": 1, "value": 16}, "group": "control_change"}, {"time": 112260, "annotation": {"number": 1, "value": 15}, "group": "control_change"}, {"time": 112273, "annotation": {"number": 1, "value": 14}, "group": "control_change"}, {"time": 112334, "annotation": {"number": 1, "value": 13}, "group": "control_change"}, {"time": 112364, "annotation": {"number": 1, "value": 12}, "group": "control_change"}, {"time": 112383, "annotation": {"number": 1, "value": 11}, "group": "control_change"}, {"time": 112394, "annotation": {"number": 1, "value": 10}, "group": "control_change"}, {"time": 112429, "annotation": {"number": 1, "value": 9}, "group": "control_change"}, {"time": 112450, "annotation": {"number": 1, "value": 8}, "group": "control_change"}, {"time": 112494, "annotation": {"number": 1, "value": 7}, "group": "control_change"}, {"time": 112545, "annotation": {"number": 1, "value": 8}, "group": "control_change"}, {"time": 112556, "annotation": {"number": 1, "value": 9}, "group": "control_change"}, {"time": 112570, "annotation": {"number": 1, "value": 10}, "group": "control_change"}, {"time": 112581, "annotation": {"number": 1, "value": 11}, "group": "control_change"}, {"time": 112615, "annotation": {"number": 1, "value": 10}, "group": "control_change"}, {"time": 112626, "annotation": {"number": 1, "value": 9}, "group": "control_change"}, {"time": 112637, "annotation": {"number": 1, "value": 8}, "group": "control_change"}, {"time": 112647, "annotation": {"number": 1, "value": 7}, "group": "control_change"}, {"time": 112661, "annotation": {"number": 1, "value": 6}, "group": "control_change"}, {"time": 112673, "annotation": {"number": 1, "value": 5}, "group": "control_change"}, {"time": 112682, "annotation": {"number": 1, "value": 4}, "group": "control_change"}, {"time": 112702, "annotation": {"number": 1, "value": 3}, "group": "control_change"}, {"time": 112754, "annotation": {"number": 1, "value": 4}, "group": "control_change"}, {"time": 112770, "annotation": {"number": 1, "value": 5}, "group": "control_change"}, {"time": 112775, "annotation": {"number": 1, "value": 6}, "group": "control_change"}, {"time": 112784, "annotation": {"number": 1, "value": 7}, "group": "control_change"}, {"time": 112788, "annotation": {"number": 1, "value": 8}, "group": "control_change"}, {"time": 112793, "annotation": {"number": 1, "value": 9}, "group": "control_change"}, {"time": 112799, "annotation": {"number": 1, "value": 10}, "group": "control_change"}, {"time": 112804, "annotation": {"number": 1, "value": 11}, "group": "control_change"}, {"time": 112832, "annotation": {"number": 1, "value": 10}, "group": "control_change"}, {"time": 112837, "annotation": {"number": 1, "value": 9}, "group": "control_change"}, {"time": 112841, "annotation": {"number": 1, "value": 8}, "group": "control_change"}, {"time": 112843, "annotation": {"number": 1, "value": 7}, "group": "control_change"}, {"time": 112846, "annotation": {"number": 1, "value": 6}, "group": "control_change"}, {"time": 112849, "annotation": {"number": 1, "value": 5}, "group": "control_change"}, {"time": 112852, "annotation": {"number": 1, "value": 4}, "group": "control_change"}, {"time": 112855, "annotation": {"number": 1, "value": 3}, "group": "control_change"}, {"time": 112861, "annotation": {"number": 1, "value": 2}, "group": "control_change"}, {"time": 112866, "annotation": {"number": 1, "value": 1}, "group": "control_change"}, {"time": 112913, "annotation": {"number": 1, "value": 2}, "group": "control_change"}, {"time": 112919, "annotation": {"number": 1, "value": 3}, "group": "control_change"}, {"time": 112926, "annotation": {"number": 1, "value": 4}, "group": "control_change"}, {"time": 112930, "annotation": {"number": 1, "value": 5}, "group": "control_change"}, {"time": 112934, "annotation": {"number": 1, "value": 6}, "group": "control_change"}, {"time": 112939, "annotation": {"number": 1, "value": 7}, "group": "control_change"}, {"time": 112942, "annotation": {"number": 1, "value": 8}, "group": "control_change"}, {"time": 112945, "annotation": {"number": 1, "value": 9}, "group": "control_change"}, {"time": 112950, "annotation": {"number": 1, "value": 10}, "group": "control_change"}, {"time": 112952, "annotation": {"number": 1, "value": 11}, "group": "control_change"}, {"time": 112956, "annotation": {"number": 1, "value": 12}, "group": "control_change"}, {"time": 112963, "annotation": {"number": 1, "value": 13}, "group": "control_change"}, {"time": 112968, "annotation": {"number": 1, "value": 14}, "group": "control_change"}, {"time": 113046, "annotation": {"number": 1, "value": 15}, "group": "control_change"}, {"time": 113089, "annotation": {"number": 1, "value": 16}, "group": "control_change"}, {"time": 113099, "annotation": {"number": 1, "value": 17}, "group": "control_change"}, {"time": 113107, "annotation": {"number": 1, "value": 18}, "group": "control_change"}, {"time": 113112, "annotation": {"number": 1, "value": 19}, "group": "control_change"}, {"time": 113119, "annotation": {"number": 1, "value": 20}, "group": "control_change"}, {"time": 113124, "annotation": {"number": 1, "value": 21}, "group": "control_change"}, {"time": 113143, "annotation": {"number": 1, "value": 22}, "group": "control_change"}, {"time": 113160, "annotation": {"number": 1, "value": 23}, "group": "control_change"}, {"time": 113169, "annotation": {"number": 1, "value": 24}, "group": "control_change"}, {"time": 113178, "annotation": {"number": 1, "value": 25}, "group": "control_change"}, {"time": 113194, "annotation": {"number": 1, "value": 26}, "group": "control_change"}, {"time": 113213, "annotation": {"number": 1, "value": 27}, "group": "control_change"}, {"time": 113236, "annotation": {"number": 1, "value": 28}, "group": "control_change"}, {"time": 113265, "annotation": {"number": 1, "value": 29}, "group": "control_change"}, {"time": 113277, "annotation": {"number": 1, "value": 30}, "group": "control_change"}, {"time": 113302, "annotation": {"number": 1, "value": 31}, "group": "control_change"}, {"time": 113333, "annotation": {"number": 1, "value": 32}, "group": "control_change"}, {"time": 113352, "annotation": {"number": 1, "value": 33}, "group": "control_change"}, {"time": 113381, "annotation": {"number": 1, "value": 34}, "group": "control_change"}, {"time": 113401, "annotation": {"number": 1, "value": 35}, "group": "control_change"}, {"time": 113418, "annotation": {"number": 1, "value": 36}, "group": "control_change"}, {"time": 113434, "annotation": {"number": 1, "value": 37}, "group": "control_change"}, {"time": 113482, "annotation": {"number": 1, "value": 38}, "group": "control_change"}, {"time": 113507, "annotation": {"number": 1, "value": 39}, "group": "control_change"}, {"time": 113557, "annotation": {"number": 1, "value": 40}, "group": "control_change"}, {"time": 113626, "annotation": {"number": 1, "value": 41}, "group": "control_change"}, {"time": 113709, "annotation": {"number": 1, "value": 42}, "group": "control_change"}, {"time": 113743, "annotation": {"number": 1, "value": 43}, "group": "control_change"}, {"time": 113762, "annotation": {"number": 1, "value": 44}, "group": "control_change"}, {"time": 113809, "annotation": {"number": 1, "value": 45}, "group": "control_change"}, {"time": 113824, "annotation": {"number": 1, "value": 46}, "group": "control_change"}, {"time": 113839, "annotation": {"number": 1, "value": 47}, "group": "control_change"}, {"time": 113860, "annotation": {"number": 1, "value": 48}, "group": "control_change"}, {"time": 113878, "annotation": {"number": 1, "value": 49}, "group": "control_change"}, {"time": 113914, "annotation": {"number": 1, "value": 50}, "group": "control_change"}, {"time": 113935, "annotation": {"number": 1, "value": 51}, "group": "control_change"}, {"time": 113953, "annotation": {"number": 1, "value": 52}, "group": "control_change"}, {"time": 113974, "annotation": {"number": 1, "value": 53}, "group": "control_change"}, {"time": 114011, "annotation": {"number": 1, "value": 54}, "group": "control_change"}, {"time": 114206, "annotation": {"number": 1, "value": 53}, "group": "control_change"}, {"time": 114220, "annotation": {"number": 1, "value": 52}, "group": "control_change"}, {"time": 114232, "annotation": {"number": 1, "value": 51}, "group": "control_change"}, {"time": 114245, "annotation": {"number": 1, "value": 50}, "group": "control_change"}, {"time": 114255, "annotation": {"number": 1, "value": 49}, "group": "control_change"}, {"time": 114268, "annotation": {"number": 1, "value": 48}, "group": "control_change"}, {"time": 114279, "annotation": {"number": 1, "value": 47}, "group": "control_change"}, {"time": 114301, "annotation": {"number": 1, "value": 46}, "group": "control_change"}, {"time": 114315, "annotation": {"number": 1, "value": 45}, "group": "control_change"}, {"time": 114337, "annotation": {"number": 1, "value": 44}, "group": "control_change"}, {"time": 114354, "annotation": {"number": 1, "value": 43}, "group": "control_change"}, {"time": 114367, "annotation": {"number": 1, "value": 42}, "group": "control_change"}, {"time": 114375, "annotation": {"number": 1, "value": 41}, "group": "control_change"}, {"time": 114385, "annotation": {"number": 1, "value": 40}, "group": "control_change"}, {"time": 114393, "annotation": {"number": 1, "value": 39}, "group": "control_change"}, {"time": 114408, "annotation": {"number": 1, "value": 38}, "group": "control_change"}, {"time": 114458, "annotation": {"number": 1, "value": 37}, "group": "control_change"}, {"time": 114473, "annotation": {"number": 1, "value": 36}, "group": "control_change"}, {"time": 114487, "annotation": {"number": 1, "value": 35}, "group": "control_change"}, {"time": 114502, "annotation": {"number": 1, "value": 34}, "group": "control_change"}, {"time": 114531, "annotation": {"number": 1, "value": 33}, "group": "control_change"}, {"time": 114566, "annotation": {"number": 1, "value": 32}, "group": "control_change"}, {"time": 114608, "annotation": {"number": 1, "value": 31}, "group": "control_change"}, {"time": 114655, "annotation": {"number": 1, "value": 30}, "group": "control_change"}, {"time": 114733, "annotation": {"number": 1, "value": 31}, "group": "control_change"}, {"time": 114748, "annotation": {"number": 1, "value": 32}, "group": "control_change"}, {"time": 114777, "annotation": {"number": 1, "value": 33}, "group": "control_change"}, {"time": 114839, "annotation": {"number": 1, "value": 34}, "group": "control_change"}, {"time": 114895, "annotation": {"number": 1, "value": 33}, "group": "control_change"}, {"time": 114928, "annotation": {"number": 1, "value": 32}, "group": "control_change"}, {"time": 114989, "annotation": {"number": 1, "value": 31}, "group": "control_change"}, {"time": 115010, "annotation": {"number": 1, "value": 30}, "group": "control_change"}, {"time": 115025, "annotation": {"number": 1, "value": 29}, "group": "control_change"}, {"time": 115070, "annotation": {"number": 1, "value": 28}, "group": "control_change"}, {"time": 115085, "annotation": {"number": 1, "value": 27}, "group": "control_change"}, {"time": 115100, "annotation": {"number": 1, "value": 26}, "group": "control_change"}, {"time": 115128, "annotation": {"number": 1, "value": 25}, "group": "control_change"}, {"time": 115145, "annotation": {"number": 1, "value": 24}, "group": "control_change"}, {"time": 115167, "annotation": {"number": 1, "value": 23}, "group": "control_change"}, {"time": 115184, "annotation": {"number": 1, "value": 22}, "group": "control_change"}, {"time": 115203, "annotation": {"number": 1, "value": 21}, "group": "control_change"}, {"time": 115228, "annotation": {"number": 1, "value": 20}, "group": "control_change"}, {"time": 115278, "annotation": {"number": 1, "value": 19}, "group": "control_change"}, {"time": 115316, "annotation": {"number": 1, "value": 18}, "group": "control_change"}, {"time": 115365, "annotation": {"number": 1, "value": 17}, "group": "control_change"}, {"time": 115392, "annotation": {"number": 1, "value": 16}, "group": "control_change"}, {"time": 115426, "annotation": {"number": 1, "value": 15}, "group": "control_change"}, {"time": 115471, "annotation": {"number": 1, "value": 14}, "group": "control_change"}, {"time": 115498, "annotation": {"number": 1, "value": 13}, "group": "control_change"}, {"time": 115528, "annotation": {"number": 1, "value": 12}, "group": "control_change"}, {"time": 115565, "annotation": {"number": 1, "value": 11}, "group": "control_change"}, {"time": 115588, "annotation": {"number": 1, "value": 10}, "group": "control_change"}, {"time": 115618, "annotation": {"number": 1, "value": 9}, "group": "control_change"}, {"time": 115637, "annotation": {"number": 1, "value": 8}, "group": "control_change"}, {"time": 115680, "annotation": {"number": 1, "value": 7}, "group": "control_change"}]}, {"program": 0, "is_drum": false, "name": "SOFTSYNSTR(L)", "annotations": [{"time": 209, "annotation": {"number": 0, "value": 16}, "group": "control_change"}, {"time": 230, "annotation": {"number": 32, "value": 2}, "group": "control_change"}]}, {"program": 48, "is_drum": false, "name": "SOFTSYNSTR(L)", "notes": [{"time": 32157, "pitch": 74, "duration": 1442, "velocity": 90}, {"time": 32157, "pitch": 78, "duration": 1442, "velocity": 90}, {"time": 33599, "pitch": 73, "duration": 480, "velocity": 90}, {"time": 33599, "pitch": 76, "duration": 480, "velocity": 90}, {"time": 34079, "pitch": 74, "duration": 1922, "velocity": 90}, {"time": 34079, "pitch": 78, "duration": 961, "velocity": 90}, {"time": 35040, "pitch": 71, "duration": 961, "velocity": 90}, {"time": 36001, "pitch": 73, "duration": 1441, "velocity": 90}, {"time": 36001, "pitch": 76, "duration": 1441, "velocity": 90}, {"time": 37442, "pitch": 71, "duration": 481, "velocity": 90}, {"time": 37442, "pitch": 74, "duration": 481, "velocity": 90}, {"time": 37923, "pitch": 73, "duration": 1915, "velocity": 90}, {"time": 37923, "pitch": 76, "duration": 954, "velocity": 90}, {"time": 38877, "pitch": 81, "duration": 961, "velocity": 90}, {"time": 39838, "pitch": 74, "duration": 1488, "velocity": 90}, {"time": 39838, "pitch": 78, "duration": 1441, "velocity": 90}, {"time": 41279, "pitch": 73, "duration": 480, "velocity": 90}, {"time": 41279, "pitch": 76, "duration": 480, "velocity": 90}, {"time": 41759, "pitch": 74, "duration": 961, "velocity": 90}, {"time": 41759, "pitch": 78, "duration": 961, "velocity": 90}, {"time": 42720, "pitch": 71, "duration": 961, "velocity": 90}, {"time": 42720, "pitch": 74, "duration": 961, "velocity": 90}, {"time": 43681, "pitch": 73, "duration": 961, "velocity": 90}, {"time": 43681, "pitch": 76, "duration": 961, "velocity": 90}, {"time": 44642, "pitch": 69, "duration": 961, "velocity": 90}, {"time": 44642, "pitch": 73, "duration": 961, "velocity": 90}, {"time": 45603, "pitch": 66, "duration": 1915, "velocity": 90}, {"time": 45603, "pitch": 69, "duration": 1915, "velocity": 90}, {"time": 47518, "pitch": 60, "duration": 1459, "velocity": 63}, {"time": 47518, "pitch": 64, "duration": 1474, "velocity": 72}, {"time": 48959, "pitch": 62, "duration": 443, "velocity": 87}, {"time": 48959, "pitch": 66, "duration": 436, "velocity": 85}, {"time": 49440, "pitch": 64, "duration": 978, "velocity": 86}, {"time": 49440, "pitch": 67, "duration": 915, "velocity": 87}, {"time": 50401, "pitch": 67, "duration": 945, "velocity": 90}, {"time": 50401, "pitch": 71, "duration": 1008, "velocity": 108}, {"time": 51362, "pitch": 66, "duration": 902, "velocity": 85}, {"time": 51362, "pitch": 69, "duration": 923, "velocity": 98}, {"time": 52322, "pitch": 66, "duration": 930, "velocity": 98}, {"time": 52322, "pitch": 74, "duration": 917, "velocity": 87}, {"time": 53277, "pitch": 71, "duration": 997, "velocity": 90}, {"time": 53277, "pitch": 78, "duration": 988, "velocity": 117}, {"time": 54238, "pitch": 66, "duration": 920, "velocity": 98}, {"time": 54238, "pitch": 74, "duration": 960, "velocity": 111}, {"time": 55198, "pitch": 60, "duration": 1430, "velocity": 83}, {"time": 55198, "pitch": 64, "duration": 1428, "velocity": 87}, {"time": 56640, "pitch": 62, "duration": 451, "velocity": 87}, {"time": 56640, "pitch": 66, "duration": 446, "velocity": 87}, {"time": 57120, "pitch": 64, "duration": 994, "velocity": 83}, {"time": 57120, "pitch": 67, "duration": 961, "velocity": 87}, {"time": 58081, "pitch": 67, "duration": 944, "velocity": 81}, {"time": 58081, "pitch": 71, "duration": 941, "velocity": 112}, {"time": 59042, "pitch": 66, "duration": 919, "velocity": 100}, {"time": 59042, "pitch": 69, "duration": 897, "velocity": 114}, {"time": 60003, "pitch": 69, "duration": 954, "velocity": 75}, {"time": 60003, "pitch": 78, "duration": 967, "velocity": 83}, {"time": 60957, "pitch": 74, "duration": 968, "velocity": 111}, {"time": 61918, "pitch": 66, "duration": 714, "velocity": 95}, {"time": 61918, "pitch": 71, "duration": 11, "velocity": 87}, {"time": 62879, "pitch": 72, "duration": 882, "velocity": 100}, {"time": 62879, "pitch": 76, "duration": 882, "velocity": 112}, {"time": 63840, "pitch": 72, "duration": 333, "velocity": 95}, {"time": 63840, "pitch": 76, "duration": 314, "velocity": 100}, {"time": 64240, "pitch": 71, "duration": 375, "velocity": 87}, {"time": 64240, "pitch": 74, "duration": 347, "velocity": 83}, {"time": 64560, "pitch": 72, "duration": 220, "velocity": 83}, {"time": 64560, "pitch": 76, "duration": 215, "velocity": 86}, {"time": 64801, "pitch": 76, "duration": 704, "velocity": 111}, {"time": 64801, "pitch": 79, "duration": 710, "velocity": 104}, {"time": 65521, "pitch": 74, "duration": 723, "velocity": 86}, {"time": 65521, "pitch": 78, "duration": 661, "velocity": 95}, {"time": 66242, "pitch": 76, "duration": 400, "velocity": 100}, {"time": 66242, "pitch": 79, "duration": 402, "velocity": 86}, {"time": 66722, "pitch": 60, "duration": 203, "velocity": 111}, {"time": 66722, "pitch": 64, "duration": 215, "velocity": 108}, {"time": 66962, "pitch": 62, "duration": 199, "velocity": 90}, {"time": 66962, "pitch": 66, "duration": 194, "velocity": 108}, {"time": 67203, "pitch": 64, "duration": 123, "velocity": 108}, {"time": 67203, "pitch": 67, "duration": 131, "velocity": 93}, {"time": 101281, "pitch": 74, "duration": 1441, "velocity": 90}, {"time": 101281, "pitch": 78, "duration": 1441, "velocity": 90}, {"time": 102722, "pitch": 73, "duration": 480, "velocity": 90}, {"time": 102722, "pitch": 76, "duration": 480, "velocity": 90}, {"time": 103202, "pitch": 74, "duration": 1915, "velocity": 90}, {"time": 103202, "pitch": 78, "duration": 961, "velocity": 90}, {"time": 104163, "pitch": 71, "duration": 954, "velocity": 90}, {"time": 105117, "pitch": 73, "duration": 1442, "velocity": 90}, {"time": 105117, "pitch": 76, "duration": 1442, "velocity": 90}, {"time": 106559, "pitch": 71, "duration": 480, "velocity": 90}, {"time": 106559, "pitch": 74, "duration": 480, "velocity": 90}, {"time": 107039, "pitch": 73, "duration": 1922, "velocity": 90}, {"time": 107039, "pitch": 76, "duration": 961, "velocity": 90}, {"time": 108000, "pitch": 81, "duration": 961, "velocity": 90}, {"time": 108961, "pitch": 74, "duration": 1488, "velocity": 90}, {"time": 108961, "pitch": 78, "duration": 1441, "velocity": 90}, {"time": 110402, "pitch": 73, "duration": 481, "velocity": 90}, {"time": 110402, "pitch": 76, "duration": 481, "velocity": 90}, {"time": 110883, "pitch": 74, "duration": 954, "velocity": 90}, {"time": 110883, "pitch": 78, "duration": 954, "velocity": 90}, {"time": 111837, "pitch": 71, "duration": 961, "velocity": 90}, {"time": 111837, "pitch": 74, "duration": 961, "velocity": 90}, {"time": 112798, "pitch": 73, "duration": 961, "velocity": 90}, {"time": 112798, "pitch": 76, "duration": 961, "velocity": 90}, {"time": 113759, "pitch": 69, "duration": 961, "velocity": 90}, {"time": 113759, "pitch": 73, "duration": 961, "velocity": 90}, {"time": 114720, "pitch": 66, "duration": 1921, "velocity": 90}, {"time": 114720, "pitch": 69, "duration": 1921, "velocity": 90}, {"time": 116641, "pitch": 67, "duration": 835, "velocity": 80}, {"time": 116641, "pitch": 70, "duration": 835, "velocity": 80}, {"time": 117476, "pitch": 70, "duration": 1584, "velocity": 80}, {"time": 117476, "pitch": 74, "duration": 1584, "velocity": 80}, {"time": 119060, "pitch": 69, "duration": 1418, "velocity": 80}, {"time": 119060, "pitch": 78, "duration": 1418, "velocity": 80}], "annotations": [{"time": 271, "annotation": {"number": 7, "value": 57}, "group": "control_change"}, {"time": 292, "annotation": {"number": 11, "value": 127}, "group": "control_change"}, {"time": 313, "annotation": {"number": 10, "value": 109}, "group": "control_change"}, {"time": 334, "annotation": {"number": 91, "value": 120}, "group": "control_change"}, {"time": 355, "annotation": {"number": 93, "value": 56}, "group": "control_change"}, {"time": 376, "annotation": {"number": 94, "value": 0}, "group": "control_change"}, {"time": 397, "annotation": {"number": 101, "value": 0}, "group": "control_change"}, {"time": 417, "annotation": {"number": 100, "value": 0}, "group": "control_change"}, {"time": 438, "annotation": {"number": 6, "value": 12}, "group": "control_change"}, {"time": 459, "annotation": {"number": 101, "value": 127}, "group": "control_change"}, {"time": 480, "annotation": {"number": 100, "value": 127}, "group": "control_change"}]}, {"program": 0, "is_drum": false, "name": "CEMBALO KIRA", "annotations": [{"time": 209, "annotation": {"number": 0, "value": 24}, "group": "control_change"}, {"time": 230, "annotation": {"number": 32, "value": 2}, "group": "control_change"}]}, {"program": 16, "is_drum": false, "name": "CEMBALO KIRA", "notes": [{"time": 32638, "pitch": 93, "duration": 72, "velocity": 110}, {"time": 32878, "pitch": 86, "duration": 92, "velocity": 105}, {"time": 33118, "pitch": 90, "duration": 76, "velocity": 102}, {"time": 33359, "pitch": 83, "duration": 92, "velocity": 100}, {"time": 33519, "pitch": 86, "duration": 68, "velocity": 100}, {"time": 33759, "pitch": 78, "duration": 43, "velocity": 90}, {"time": 34319, "pitch": 93, "duration": 61, "velocity": 96}, {"time": 34560, "pitch": 86, "duration": 103, "velocity": 83}, {"time": 34800, "pitch": 90, "duration": 56, "velocity": 98}, {"time": 34960, "pitch": 83, "duration": 80, "velocity": 89}, {"time": 36241, "pitch": 93, "duration": 62, "velocity": 110}, {"time": 36481, "pitch": 85, "duration": 81, "velocity": 102}, {"time": 36882, "pitch": 88, "duration": 78, "velocity": 92}, {"time": 37202, "pitch": 81, "duration": 96, "velocity": 89}, {"time": 38163, "pitch": 93, "duration": 81, "velocity": 100}, {"time": 38403, "pitch": 85, "duration": 90, "velocity": 101}, {"time": 38561, "pitch": 88, "duration": 62, "velocity": 87}, {"time": 38798, "pitch": 81, "duration": 103, "velocity": 75}, {"time": 40318, "pitch": 93, "duration": 72, "velocity": 110}, {"time": 40558, "pitch": 86, "duration": 90, "velocity": 110}, {"time": 40799, "pitch": 90, "duration": 114, "velocity": 82}, {"time": 41039, "pitch": 83, "duration": 109, "velocity": 74}, {"time": 41759, "pitch": 93, "duration": 89, "velocity": 105}, {"time": 42000, "pitch": 86, "duration": 95, "velocity": 66}, {"time": 42240, "pitch": 90, "duration": 87, "velocity": 89}, {"time": 42480, "pitch": 83, "duration": 70, "velocity": 79}, {"time": 44402, "pitch": 93, "duration": 84, "velocity": 102}, {"time": 44642, "pitch": 86, "duration": 76, "velocity": 108}, {"time": 44882, "pitch": 90, "duration": 72, "velocity": 89}, {"time": 45042, "pitch": 81, "duration": 65, "velocity": 84}, {"time": 45840, "pitch": 93, "duration": 81, "velocity": 102}, {"time": 46077, "pitch": 85, "duration": 104, "velocity": 92}, {"time": 46317, "pitch": 88, "duration": 77, "velocity": 85}, {"time": 46477, "pitch": 81, "duration": 81, "velocity": 79}, {"time": 101761, "pitch": 93, "duration": 72, "velocity": 110}, {"time": 102001, "pitch": 86, "duration": 92, "velocity": 105}, {"time": 102241, "pitch": 90, "duration": 76, "velocity": 102}, {"time": 102482, "pitch": 83, "duration": 92, "velocity": 100}, {"time": 102642, "pitch": 86, "duration": 68, "velocity": 100}, {"time": 102882, "pitch": 78, "duration": 43, "velocity": 90}, {"time": 103442, "pitch": 93, "duration": 62, "velocity": 96}, {"time": 103683, "pitch": 86, "duration": 103, "velocity": 83}, {"time": 103923, "pitch": 90, "duration": 56, "velocity": 98}, {"time": 104083, "pitch": 83, "duration": 80, "velocity": 89}, {"time": 105358, "pitch": 93, "duration": 62, "velocity": 110}, {"time": 105598, "pitch": 85, "duration": 81, "velocity": 102}, {"time": 105998, "pitch": 88, "duration": 78, "velocity": 92}, {"time": 106319, "pitch": 81, "duration": 96, "velocity": 89}, {"time": 107279, "pitch": 93, "duration": 81, "velocity": 100}, {"time": 107520, "pitch": 85, "duration": 91, "velocity": 101}, {"time": 107680, "pitch": 88, "duration": 63, "velocity": 87}, {"time": 107920, "pitch": 81, "duration": 104, "velocity": 75}, {"time": 109441, "pitch": 93, "duration": 72, "velocity": 110}, {"time": 109682, "pitch": 86, "duration": 89, "velocity": 110}, {"time": 109922, "pitch": 90, "duration": 114, "velocity": 82}, {"time": 110162, "pitch": 83, "duration": 109, "velocity": 74}, {"time": 110883, "pitch": 93, "duration": 88, "velocity": 105}, {"time": 111123, "pitch": 86, "duration": 95, "velocity": 66}, {"time": 111363, "pitch": 90, "duration": 86, "velocity": 89}, {"time": 111600, "pitch": 83, "duration": 69, "velocity": 79}, {"time": 113518, "pitch": 93, "duration": 85, "velocity": 102}, {"time": 113759, "pitch": 86, "duration": 76, "velocity": 108}, {"time": 113999, "pitch": 90, "duration": 72, "velocity": 89}, {"time": 114159, "pitch": 81, "duration": 65, "velocity": 84}, {"time": 114960, "pitch": 93, "duration": 82, "velocity": 102}, {"time": 115200, "pitch": 85, "duration": 104, "velocity": 92}, {"time": 115440, "pitch": 88, "duration": 77, "velocity": 85}, {"time": 115600, "pitch": 81, "duration": 81, "velocity": 79}], "annotations": [{"time": 271, "annotation": {"number": 7, "value": 50}, "group": "control_change"}, {"time": 292, "annotation": {"number": 11, "value": 127}, "group": "control_change"}, {"time": 313, "annotation": {"number": 10, "value": 74}, "group": "control_change"}, {"time": 334, "annotation": {"number": 91, "value": 127}, "group": "control_change"}, {"time": 355, "annotation": {"number": 93, "value": 50}, "group": "control_change"}, {"time": 376, "annotation": {"number": 94, "value": 10}, "group": "control_change"}, {"time": 397, "annotation": {"number": 101, "value": 0}, "group": "control_change"}, {"time": 417, "annotation": {"number": 100, "value": 0}, "group": "control_change"}, {"time": 438, "annotation": {"number": 6, "value": 12}, "group": "control_change"}, {"time": 459, "annotation": {"number": 101, "value": 127}, "group": "control_change"}, {"time": 480, "annotation": {"number": 100, "value": 127}, "group": "control_change"}]}, {"program": 0, "is_drum": false, "name": "MUTE GTR", "annotations": [{"time": 209, "annotation": {"number": 0, "value": 0}, "group": "control_change"}, {"time": 230, "annotation": {"number": 32, "value": 2}, "group": "control_change"}]}, {"program": 28, "is_drum": false, "name": "MUTE GTR", "notes": [{"time": 1603, "pitch": 57, "duration": 50, "velocity": 74}, {"time": 1683, "pitch": 59, "duration": 138, "velocity": 108}, {"time": 1923, "pitch": 62, "duration": 166, "velocity": 121}, {"time": 2160, "pitch": 59, "duration": 177, "velocity": 87}, {"time": 2397, "pitch": 66, "duration": 206, "velocity": 121}, {"time": 2877, "pitch": 62, "duration": 160, "velocity": 121}, {"time": 3118, "pitch": 64, "duration": 64, "velocity": 81}, {"time": 3278, "pitch": 59, "duration": 121, "velocity": 85}, {"time": 3518, "pitch": 57, "duration": 64, "velocity": 63}, {"time": 3598, "pitch": 59, "duration": 134, "velocity": 77}, {"time": 3838, "pitch": 62, "duration": 159, "velocity": 121}, {"time": 4078, "pitch": 62, "duration": 170, "velocity": 114}, {"time": 4239, "pitch": 59, "duration": 52, "velocity": 65}, {"time": 5760, "pitch": 64, "duration": 227, "velocity": 122}, {"time": 6240, "pitch": 59, "duration": 174, "velocity": 108}, {"time": 6481, "pitch": 61, "duration": 159, "velocity": 117}, {"time": 6641, "pitch": 57, "duration": 72, "velocity": 74}, {"time": 7361, "pitch": 57, "duration": 48, "velocity": 87}, {"time": 7441, "pitch": 64, "duration": 134, "velocity": 117}, {"time": 7682, "pitch": 59, "duration": 155, "velocity": 95}, {"time": 7922, "pitch": 61, "duration": 162, "velocity": 112}, {"time": 8082, "pitch": 57, "duration": 88, "velocity": 67}, {"time": 8642, "pitch": 64, "duration": 201, "velocity": 108}, {"time": 8883, "pitch": 57, "duration": 59, "velocity": 76}, {"time": 10237, "pitch": 57, "duration": 50, "velocity": 79}, {"time": 10317, "pitch": 59, "duration": 77, "velocity": 95}, {"time": 10558, "pitch": 62, "duration": 213, "velocity": 122}, {"time": 10798, "pitch": 59, "duration": 104, "velocity": 72}, {"time": 11038, "pitch": 66, "duration": 191, "velocity": 121}, {"time": 11278, "pitch": 62, "duration": 131, "velocity": 87}, {"time": 11519, "pitch": 64, "duration": 131, "velocity": 122}, {"time": 11679, "pitch": 59, "duration": 218, "velocity": 122}, {"time": 12720, "pitch": 57, "duration": 160, "velocity": 111}, {"time": 12880, "pitch": 59, "duration": 80, "velocity": 108}, {"time": 13680, "pitch": 61, "duration": 155, "velocity": 117}, {"time": 13841, "pitch": 62, "duration": 113, "velocity": 108}, {"time": 14161, "pitch": 61, "duration": 74, "velocity": 120}, {"time": 15122, "pitch": 57, "duration": 158, "velocity": 114}, {"time": 15362, "pitch": 59, "duration": 139, "velocity": 79}, {"time": 15602, "pitch": 61, "duration": 187, "velocity": 122}, {"time": 15762, "pitch": 57, "duration": 33, "velocity": 64}, {"time": 15842, "pitch": 62, "duration": 170, "velocity": 117}, {"time": 16083, "pitch": 64, "duration": 173, "velocity": 111}, {"time": 16323, "pitch": 61, "duration": 167, "velocity": 120}, {"time": 16560, "pitch": 57, "duration": 73, "velocity": 76}, {"time": 16560, "pitch": 59, "duration": 42, "velocity": 76}, {"time": 32318, "pitch": 57, "duration": 50, "velocity": 74}, {"time": 32398, "pitch": 59, "duration": 138, "velocity": 108}, {"time": 32638, "pitch": 62, "duration": 168, "velocity": 121}, {"time": 32878, "pitch": 59, "duration": 179, "velocity": 87}, {"time": 33118, "pitch": 66, "duration": 206, "velocity": 121}, {"time": 33599, "pitch": 62, "duration": 160, "velocity": 121}, {"time": 33839, "pitch": 64, "duration": 64, "velocity": 81}, {"time": 33999, "pitch": 59, "duration": 121, "velocity": 85}, {"time": 34239, "pitch": 57, "duration": 64, "velocity": 63}, {"time": 34319, "pitch": 59, "duration": 134, "velocity": 77}, {"time": 34560, "pitch": 62, "duration": 159, "velocity": 121}, {"time": 34800, "pitch": 62, "duration": 169, "velocity": 114}, {"time": 34960, "pitch": 59, "duration": 52, "velocity": 65}, {"time": 36481, "pitch": 64, "duration": 227, "velocity": 122}, {"time": 36962, "pitch": 59, "duration": 174, "velocity": 108}, {"time": 37202, "pitch": 61, "duration": 159, "velocity": 117}, {"time": 37362, "pitch": 57, "duration": 72, "velocity": 74}, {"time": 38083, "pitch": 57, "duration": 48, "velocity": 87}, {"time": 38163, "pitch": 64, "duration": 133, "velocity": 117}, {"time": 38403, "pitch": 59, "duration": 153, "velocity": 95}, {"time": 38640, "pitch": 61, "duration": 160, "velocity": 112}, {"time": 38798, "pitch": 57, "duration": 87, "velocity": 67}, {"time": 39357, "pitch": 64, "duration": 201, "velocity": 108}, {"time": 39598, "pitch": 57, "duration": 59, "velocity": 76}, {"time": 40959, "pitch": 57, "duration": 50, "velocity": 79}, {"time": 41039, "pitch": 59, "duration": 76, "velocity": 95}, {"time": 41279, "pitch": 62, "duration": 213, "velocity": 122}, {"time": 41519, "pitch": 59, "duration": 104, "velocity": 72}, {"time": 41759, "pitch": 66, "duration": 192, "velocity": 121}, {"time": 42000, "pitch": 62, "duration": 131, "velocity": 87}, {"time": 42240, "pitch": 64, "duration": 131, "velocity": 122}, {"time": 42400, "pitch": 59, "duration": 218, "velocity": 122}, {"time": 43441, "pitch": 57, "duration": 160, "velocity": 111}, {"time": 43601, "pitch": 59, "duration": 80, "velocity": 108}, {"time": 44402, "pitch": 61, "duration": 154, "velocity": 117}, {"time": 44562, "pitch": 62, "duration": 113, "velocity": 108}, {"time": 44882, "pitch": 61, "duration": 74, "velocity": 120}, {"time": 45840, "pitch": 57, "duration": 156, "velocity": 114}, {"time": 46077, "pitch": 59, "duration": 139, "velocity": 79}, {"time": 46317, "pitch": 61, "duration": 187, "velocity": 122}, {"time": 46477, "pitch": 57, "duration": 33, "velocity": 64}, {"time": 46557, "pitch": 62, "duration": 169, "velocity": 117}, {"time": 46797, "pitch": 64, "duration": 174, "velocity": 111}, {"time": 47038, "pitch": 61, "duration": 169, "velocity": 120}, {"time": 47278, "pitch": 57, "duration": 74, "velocity": 76}, {"time": 47278, "pitch": 59, "duration": 43, "velocity": 76}, {"time": 70719, "pitch": 57, "duration": 50, "velocity": 74}, {"time": 70799, "pitch": 59, "duration": 138, "velocity": 108}, {"time": 71040, "pitch": 62, "duration": 168, "velocity": 121}, {"time": 71280, "pitch": 59, "duration": 179, "velocity": 87}, {"time": 71520, "pitch": 66, "duration": 206, "velocity": 121}, {"time": 72000, "pitch": 62, "duration": 161, "velocity": 121}, {"time": 72241, "pitch": 64, "duration": 64, "velocity": 81}, {"time": 72401, "pitch": 59, "duration": 121, "velocity": 85}, {"time": 72641, "pitch": 57, "duration": 64, "velocity": 63}, {"time": 72721, "pitch": 59, "duration": 134, "velocity": 77}, {"time": 72961, "pitch": 62, "duration": 159, "velocity": 121}, {"time": 73202, "pitch": 62, "duration": 169, "velocity": 114}, {"time": 73362, "pitch": 59, "duration": 52, "velocity": 65}, {"time": 74883, "pitch": 64, "duration": 224, "velocity": 122}, {"time": 75357, "pitch": 59, "duration": 174, "velocity": 108}, {"time": 75597, "pitch": 61, "duration": 159, "velocity": 117}, {"time": 75757, "pitch": 57, "duration": 72, "velocity": 74}, {"time": 76478, "pitch": 57, "duration": 48, "velocity": 87}, {"time": 76558, "pitch": 64, "duration": 133, "velocity": 117}, {"time": 76798, "pitch": 59, "duration": 155, "velocity": 95}, {"time": 77038, "pitch": 61, "duration": 163, "velocity": 112}, {"time": 77199, "pitch": 57, "duration": 88, "velocity": 67}, {"time": 77759, "pitch": 64, "duration": 200, "velocity": 108}, {"time": 77999, "pitch": 57, "duration": 59, "velocity": 76}, {"time": 79360, "pitch": 57, "duration": 51, "velocity": 79}, {"time": 79441, "pitch": 59, "duration": 76, "velocity": 95}, {"time": 79681, "pitch": 62, "duration": 213, "velocity": 122}, {"time": 79921, "pitch": 59, "duration": 104, "velocity": 72}, {"time": 80161, "pitch": 66, "duration": 191, "velocity": 121}, {"time": 80401, "pitch": 62, "duration": 132, "velocity": 87}, {"time": 80642, "pitch": 64, "duration": 131, "velocity": 122}, {"time": 80802, "pitch": 59, "duration": 218, "velocity": 122}, {"time": 81843, "pitch": 57, "duration": 160, "velocity": 111}, {"time": 82003, "pitch": 59, "duration": 80, "velocity": 108}, {"time": 82797, "pitch": 61, "duration": 154, "velocity": 117}, {"time": 82957, "pitch": 62, "duration": 113, "velocity": 108}, {"time": 83277, "pitch": 61, "duration": 75, "velocity": 120}, {"time": 84238, "pitch": 57, "duration": 158, "velocity": 114}, {"time": 84479, "pitch": 59, "duration": 139, "velocity": 79}, {"time": 84719, "pitch": 61, "duration": 187, "velocity": 122}, {"time": 84879, "pitch": 57, "duration": 33, "velocity": 64}, {"time": 84959, "pitch": 62, "duration": 169, "velocity": 117}, {"time": 85199, "pitch": 64, "duration": 173, "velocity": 111}, {"time": 85439, "pitch": 61, "duration": 170, "velocity": 120}, {"time": 85680, "pitch": 57, "duration": 74, "velocity": 76}, {"time": 85680, "pitch": 59, "duration": 43, "velocity": 76}, {"time": 101441, "pitch": 57, "duration": 50, "velocity": 74}, {"time": 101521, "pitch": 59, "duration": 138, "velocity": 108}, {"time": 101761, "pitch": 62, "duration": 168, "velocity": 121}, {"time": 102001, "pitch": 59, "duration": 179, "velocity": 87}, {"time": 102241, "pitch": 66, "duration": 207, "velocity": 121}, {"time": 102722, "pitch": 62, "duration": 160, "velocity": 121}, {"time": 102962, "pitch": 64, "duration": 64, "velocity": 81}, {"time": 103122, "pitch": 59, "duration": 121, "velocity": 85}, {"time": 103362, "pitch": 57, "duration": 64, "velocity": 63}, {"time": 103442, "pitch": 59, "duration": 135, "velocity": 77}, {"time": 103683, "pitch": 62, "duration": 159, "velocity": 121}, {"time": 103923, "pitch": 62, "duration": 169, "velocity": 114}, {"time": 104083, "pitch": 59, "duration": 52, "velocity": 65}, {"time": 105598, "pitch": 64, "duration": 227, "velocity": 122}, {"time": 106078, "pitch": 59, "duration": 174, "velocity": 108}, {"time": 106319, "pitch": 61, "duration": 159, "velocity": 117}, {"time": 106479, "pitch": 57, "duration": 72, "velocity": 74}, {"time": 107199, "pitch": 57, "duration": 48, "velocity": 87}, {"time": 107279, "pitch": 64, "duration": 133, "velocity": 117}, {"time": 107520, "pitch": 59, "duration": 155, "velocity": 95}, {"time": 107760, "pitch": 61, "duration": 162, "velocity": 112}, {"time": 107920, "pitch": 57, "duration": 88, "velocity": 67}, {"time": 108480, "pitch": 64, "duration": 201, "velocity": 108}, {"time": 108721, "pitch": 57, "duration": 59, "velocity": 76}, {"time": 110082, "pitch": 57, "duration": 50, "velocity": 79}, {"time": 110162, "pitch": 59, "duration": 76, "velocity": 95}, {"time": 110402, "pitch": 62, "duration": 213, "velocity": 122}, {"time": 110642, "pitch": 59, "duration": 104, "velocity": 72}, {"time": 110883, "pitch": 66, "duration": 191, "velocity": 121}, {"time": 111123, "pitch": 62, "duration": 131, "velocity": 87}, {"time": 111363, "pitch": 64, "duration": 129, "velocity": 122}, {"time": 111521, "pitch": 59, "duration": 215, "velocity": 122}, {"time": 112558, "pitch": 57, "duration": 160, "velocity": 111}, {"time": 112718, "pitch": 59, "duration": 80, "velocity": 108}, {"time": 113518, "pitch": 61, "duration": 155, "velocity": 117}, {"time": 113679, "pitch": 62, "duration": 113, "velocity": 108}, {"time": 113999, "pitch": 61, "duration": 74, "velocity": 120}, {"time": 114960, "pitch": 57, "duration": 158, "velocity": 114}, {"time": 115200, "pitch": 59, "duration": 139, "velocity": 79}, {"time": 115440, "pitch": 61, "duration": 187, "velocity": 122}, {"time": 115600, "pitch": 57, "duration": 33, "velocity": 64}, {"time": 115680, "pitch": 62, "duration": 170, "velocity": 117}, {"time": 115921, "pitch": 64, "duration": 173, "velocity": 111}, {"time": 116161, "pitch": 61, "duration": 169, "velocity": 120}, {"time": 116401, "pitch": 57, "duration": 74, "velocity": 76}, {"time": 116401, "pitch": 59, "duration": 43, "velocity": 76}], "annotations": [{"time": 271, "annotation": {"number": 7, "value": 65}, "group": "control_change"}, {"time": 292, "annotation": {"number": 11, "value": 127}, "group": "control_change"}, {"time": 313, "annotation": {"number": 10, "value": 0}, "group": "control_change"}, {"time": 334, "annotation": {"number": 91, "value": 51}, "group": "control_change"}, {"time": 355, "annotation": {"number": 93, "value": 0}, "group": "control_change"}, {"time": 376, "annotation": {"number": 94, "value": 0}, "group": "control_change"}, {"time": 397, "annotation": {"number": 101, "value": 0}, "group": "control_change"}, {"time": 417, "annotation": {"number": 100, "value": 0}, "group": "control_change"}, {"time": 438, "annotation": {"number": 6, "value": 12}, "group": "control_change"}, {"time": 459, "annotation": {"number": 101, "value": 127}, "group": "control_change"}, {"time": 480, "annotation": {"number": 100, "value": 127}, "group": "control_change"}]}, {"program": 0, "is_drum": false, "name": "WOW SOFTBRASS", "annotations": [{"time": 209, "annotation": {"number": 0, "value": 0}, "group": "control_change"}, {"time": 230, "annotation": {"number": 32, "value": 2}, "group": "control_change"}]}, {"program": 58, "is_drum": false, "name": "WOW SOFTBRASS", "notes": [{"time": 17037, "pitch": 59, "duration": 138, "velocity": 59}, {"time": 17037, "pitch": 62, "duration": 127, "velocity": 57}, {"time": 17037, "pitch": 66, "duration": 127, "velocity": 60}, {"time": 17197, "pitch": 59, "duration": 60, "velocity": 90}, {"time": 17197, "pitch": 62, "duration": 60, "velocity": 90}, {"time": 17197, "pitch": 66, "duration": 60, "velocity": 90}, {"time": 17277, "pitch": 59, "duration": 138, "velocity": 75}, {"time": 17277, "pitch": 62, "duration": 127, "velocity": 75}, {"time": 17277, "pitch": 66, "duration": 127, "velocity": 75}, {"time": 17437, "pitch": 59, "duration": 60, "velocity": 65}, {"time": 17437, "pitch": 62, "duration": 60, "velocity": 65}, {"time": 17437, "pitch": 66, "duration": 60, "velocity": 65}, {"time": 17758, "pitch": 59, "duration": 138, "velocity": 75}, {"time": 17758, "pitch": 62, "duration": 127, "velocity": 75}, {"time": 17758, "pitch": 66, "duration": 127, "velocity": 75}, {"time": 17918, "pitch": 59, "duration": 60, "velocity": 65}, {"time": 17918, "pitch": 62, "duration": 60, "velocity": 65}, {"time": 17918, "pitch": 66, "duration": 60, "velocity": 65}, {"time": 17998, "pitch": 59, "duration": 138, "velocity": 75}, {"time": 17998, "pitch": 62, "duration": 127, "velocity": 75}, {"time": 17998, "pitch": 66, "duration": 127, "velocity": 75}, {"time": 18158, "pitch": 59, "duration": 60, "velocity": 85}, {"time": 18158, "pitch": 62, "duration": 60, "velocity": 85}, {"time": 18158, "pitch": 66, "duration": 60, "velocity": 85}, {"time": 20880, "pitch": 61, "duration": 128, "velocity": 57}, {"time": 20880, "pitch": 64, "duration": 139, "velocity": 59}, {"time": 20880, "pitch": 69, "duration": 128, "velocity": 60}, {"time": 21041, "pitch": 61, "duration": 60, "velocity": 90}, {"time": 21041, "pitch": 64, "duration": 60, "velocity": 90}, {"time": 21041, "pitch": 69, "duration": 60, "velocity": 90}, {"time": 21121, "pitch": 61, "duration": 127, "velocity": 75}, {"time": 21121, "pitch": 64, "duration": 138, "velocity": 75}, {"time": 21121, "pitch": 69, "duration": 127, "velocity": 75}, {"time": 21281, "pitch": 61, "duration": 60, "velocity": 65}, {"time": 21281, "pitch": 64, "duration": 60, "velocity": 65}, {"time": 21281, "pitch": 69, "duration": 60, "velocity": 65}, {"time": 21601, "pitch": 61, "duration": 127, "velocity": 75}, {"time": 21601, "pitch": 64, "duration": 138, "velocity": 75}, {"time": 21601, "pitch": 69, "duration": 127, "velocity": 75}, {"time": 21761, "pitch": 61, "duration": 60, "velocity": 65}, {"time": 21761, "pitch": 64, "duration": 60, "velocity": 65}, {"time": 21761, "pitch": 69, "duration": 60, "velocity": 65}, {"time": 21841, "pitch": 61, "duration": 127, "velocity": 75}, {"time": 21841, "pitch": 64, "duration": 138, "velocity": 75}, {"time": 21841, "pitch": 69, "duration": 127, "velocity": 75}, {"time": 22001, "pitch": 61, "duration": 60, "velocity": 85}, {"time": 22001, "pitch": 64, "duration": 60, "velocity": 85}, {"time": 22001, "pitch": 69, "duration": 60, "velocity": 85}, {"time": 24717, "pitch": 59, "duration": 138, "velocity": 59}, {"time": 24717, "pitch": 62, "duration": 127, "velocity": 57}, {"time": 24717, "pitch": 66, "duration": 127, "velocity": 60}, {"time": 24877, "pitch": 59, "duration": 61, "velocity": 90}, {"time": 24877, "pitch": 62, "duration": 61, "velocity": 90}, {"time": 24877, "pitch": 66, "duration": 61, "velocity": 90}, {"time": 24958, "pitch": 59, "duration": 138, "velocity": 75}, {"time": 24958, "pitch": 62, "duration": 127, "velocity": 75}, {"time": 24958, "pitch": 66, "duration": 127, "velocity": 75}, {"time": 25118, "pitch": 59, "duration": 60, "velocity": 65}, {"time": 25118, "pitch": 62, "duration": 60, "velocity": 65}, {"time": 25118, "pitch": 66, "duration": 60, "velocity": 65}, {"time": 25438, "pitch": 59, "duration": 138, "velocity": 75}, {"time": 25438, "pitch": 62, "duration": 127, "velocity": 75}, {"time": 25438, "pitch": 66, "duration": 127, "velocity": 75}, {"time": 25598, "pitch": 59, "duration": 60, "velocity": 65}, {"time": 25598, "pitch": 62, "duration": 60, "velocity": 65}, {"time": 25598, "pitch": 66, "duration": 60, "velocity": 65}, {"time": 25678, "pitch": 59, "duration": 138, "velocity": 75}, {"time": 25678, "pitch": 62, "duration": 127, "velocity": 75}, {"time": 25678, "pitch": 66, "duration": 127, "velocity": 75}, {"time": 25838, "pitch": 59, "duration": 60, "velocity": 85}, {"time": 25838, "pitch": 62, "duration": 60, "velocity": 85}, {"time": 25838, "pitch": 66, "duration": 60, "velocity": 85}, {"time": 28561, "pitch": 61, "duration": 127, "velocity": 57}, {"time": 28561, "pitch": 64, "duration": 138, "velocity": 59}, {"time": 28561, "pitch": 69, "duration": 127, "velocity": 60}, {"time": 28721, "pitch": 61, "duration": 60, "velocity": 90}, {"time": 28721, "pitch": 64, "duration": 60, "velocity": 90}, {"time": 28721, "pitch": 69, "duration": 60, "velocity": 90}, {"time": 28801, "pitch": 61, "duration": 127, "velocity": 75}, {"time": 28801, "pitch": 64, "duration": 138, "velocity": 75}, {"time": 28801, "pitch": 69, "duration": 127, "velocity": 75}, {"time": 28961, "pitch": 61, "duration": 60, "velocity": 65}, {"time": 28961, "pitch": 64, "duration": 60, "velocity": 65}, {"time": 28961, "pitch": 69, "duration": 60, "velocity": 65}, {"time": 29281, "pitch": 61, "duration": 127, "velocity": 75}, {"time": 29281, "pitch": 64, "duration": 138, "velocity": 75}, {"time": 29281, "pitch": 69, "duration": 127, "velocity": 75}, {"time": 29442, "pitch": 61, "duration": 60, "velocity": 65}, {"time": 29442, "pitch": 64, "duration": 60, "velocity": 65}, {"time": 29442, "pitch": 69, "duration": 60, "velocity": 65}, {"time": 29522, "pitch": 61, "duration": 127, "velocity": 75}, {"time": 29522, "pitch": 64, "duration": 138, "velocity": 75}, {"time": 29522, "pitch": 69, "duration": 127, "velocity": 75}, {"time": 29682, "pitch": 61, "duration": 60, "velocity": 85}, {"time": 29682, "pitch": 64, "duration": 60, "velocity": 85}, {"time": 29682, "pitch": 69, "duration": 60, "velocity": 85}, {"time": 47758, "pitch": 67, "duration": 127, "velocity": 57}, {"time": 47758, "pitch": 71, "duration": 138, "velocity": 59}, {"time": 47758, "pitch": 76, "duration": 127, "velocity": 60}, {"time": 47918, "pitch": 67, "duration": 61, "velocity": 90}, {"time": 47918, "pitch": 71, "duration": 61, "velocity": 90}, {"time": 47918, "pitch": 76, "duration": 61, "velocity": 90}, {"time": 47999, "pitch": 67, "duration": 127, "velocity": 75}, {"time": 47999, "pitch": 71, "duration": 138, "velocity": 75}, {"time": 47999, "pitch": 76, "duration": 127, "velocity": 75}, {"time": 48159, "pitch": 67, "duration": 60, "velocity": 65}, {"time": 48159, "pitch": 71, "duration": 60, "velocity": 65}, {"time": 48159, "pitch": 76, "duration": 60, "velocity": 65}, {"time": 48479, "pitch": 67, "duration": 127, "velocity": 75}, {"time": 48479, "pitch": 71, "duration": 138, "velocity": 75}, {"time": 48479, "pitch": 76, "duration": 127, "velocity": 75}, {"time": 48639, "pitch": 67, "duration": 60, "velocity": 65}, {"time": 48639, "pitch": 71, "duration": 60, "velocity": 65}, {"time": 48639, "pitch": 76, "duration": 60, "velocity": 65}, {"time": 48719, "pitch": 67, "duration": 127, "velocity": 75}, {"time": 48719, "pitch": 71, "duration": 138, "velocity": 75}, {"time": 48719, "pitch": 76, "duration": 127, "velocity": 75}, {"time": 48879, "pitch": 67, "duration": 60, "velocity": 85}, {"time": 48879, "pitch": 71, "duration": 60, "velocity": 85}, {"time": 48879, "pitch": 76, "duration": 60, "velocity": 85}, {"time": 51602, "pitch": 69, "duration": 127, "velocity": 57}, {"time": 51602, "pitch": 74, "duration": 138, "velocity": 59}, {"time": 51602, "pitch": 78, "duration": 127, "velocity": 60}, {"time": 51762, "pitch": 69, "duration": 60, "velocity": 90}, {"time": 51762, "pitch": 74, "duration": 60, "velocity": 90}, {"time": 51762, "pitch": 78, "duration": 60, "velocity": 90}, {"time": 51842, "pitch": 69, "duration": 127, "velocity": 75}, {"time": 51842, "pitch": 74, "duration": 138, "velocity": 75}, {"time": 51842, "pitch": 78, "duration": 127, "velocity": 75}, {"time": 52002, "pitch": 69, "duration": 60, "velocity": 65}, {"time": 52002, "pitch": 74, "duration": 60, "velocity": 65}, {"time": 52002, "pitch": 78, "duration": 60, "velocity": 65}, {"time": 52322, "pitch": 69, "duration": 128, "velocity": 75}, {"time": 52322, "pitch": 74, "duration": 139, "velocity": 75}, {"time": 52322, "pitch": 78, "duration": 128, "velocity": 75}, {"time": 52483, "pitch": 69, "duration": 60, "velocity": 65}, {"time": 52483, "pitch": 74, "duration": 60, "velocity": 65}, {"time": 52483, "pitch": 78, "duration": 60, "velocity": 65}, {"time": 52563, "pitch": 69, "duration": 127, "velocity": 75}, {"time": 52563, "pitch": 74, "duration": 138, "velocity": 75}, {"time": 52563, "pitch": 78, "duration": 127, "velocity": 75}, {"time": 52723, "pitch": 69, "duration": 60, "velocity": 85}, {"time": 52723, "pitch": 74, "duration": 60, "velocity": 85}, {"time": 52723, "pitch": 78, "duration": 60, "velocity": 85}, {"time": 55439, "pitch": 67, "duration": 127, "velocity": 57}, {"time": 55439, "pitch": 71, "duration": 138, "velocity": 59}, {"time": 55439, "pitch": 76, "duration": 127, "velocity": 60}, {"time": 55599, "pitch": 67, "duration": 60, "velocity": 90}, {"time": 55599, "pitch": 71, "duration": 60, "velocity": 90}, {"time": 55599, "pitch": 76, "duration": 60, "velocity": 90}, {"time": 55679, "pitch": 67, "duration": 127, "velocity": 75}, {"time": 55679, "pitch": 71, "duration": 138, "velocity": 75}, {"time": 55679, "pitch": 76, "duration": 127, "velocity": 75}, {"time": 55839, "pitch": 67, "duration": 60, "velocity": 65}, {"time": 55839, "pitch": 71, "duration": 60, "velocity": 65}, {"time": 55839, "pitch": 76, "duration": 60, "velocity": 65}, {"time": 56159, "pitch": 67, "duration": 127, "velocity": 75}, {"time": 56159, "pitch": 71, "duration": 138, "velocity": 75}, {"time": 56159, "pitch": 76, "duration": 127, "velocity": 75}, {"time": 56319, "pitch": 67, "duration": 61, "velocity": 65}, {"time": 56319, "pitch": 71, "duration": 61, "velocity": 65}, {"time": 56319, "pitch": 76, "duration": 61, "velocity": 65}, {"time": 56400, "pitch": 67, "duration": 127, "velocity": 75}, {"time": 56400, "pitch": 71, "duration": 138, "velocity": 75}, {"time": 56400, "pitch": 76, "duration": 127, "velocity": 75}, {"time": 56560, "pitch": 67, "duration": 60, "velocity": 85}, {"time": 56560, "pitch": 71, "duration": 60, "velocity": 85}, {"time": 56560, "pitch": 76, "duration": 60, "velocity": 85}, {"time": 59282, "pitch": 69, "duration": 127, "velocity": 57}, {"time": 59282, "pitch": 74, "duration": 138, "velocity": 59}, {"time": 59282, "pitch": 78, "duration": 127, "velocity": 60}, {"time": 59442, "pitch": 69, "duration": 60, "velocity": 90}, {"time": 59442, "pitch": 74, "duration": 60, "velocity": 90}, {"time": 59442, "pitch": 78, "duration": 60, "velocity": 90}, {"time": 59522, "pitch": 69, "duration": 127, "velocity": 75}, {"time": 59522, "pitch": 74, "duration": 138, "velocity": 75}, {"time": 59522, "pitch": 78, "duration": 127, "velocity": 75}, {"time": 59682, "pitch": 69, "duration": 61, "velocity": 65}, {"time": 59682, "pitch": 74, "duration": 61, "velocity": 65}, {"time": 59682, "pitch": 78, "duration": 61, "velocity": 65}, {"time": 60003, "pitch": 69, "duration": 127, "velocity": 75}, {"time": 60003, "pitch": 74, "duration": 138, "velocity": 75}, {"time": 60003, "pitch": 78, "duration": 127, "velocity": 75}, {"time": 60163, "pitch": 69, "duration": 60, "velocity": 65}, {"time": 60163, "pitch": 74, "duration": 60, "velocity": 65}, {"time": 60163, "pitch": 78, "duration": 60, "velocity": 65}, {"time": 60243, "pitch": 69, "duration": 127, "velocity": 75}, {"time": 60243, "pitch": 74, "duration": 138, "velocity": 75}, {"time": 60243, "pitch": 78, "duration": 127, "velocity": 75}, {"time": 60403, "pitch": 69, "duration": 60, "velocity": 85}, {"time": 60403, "pitch": 74, "duration": 60, "velocity": 85}, {"time": 60403, "pitch": 78, "duration": 60, "velocity": 85}, {"time": 86160, "pitch": 59, "duration": 138, "velocity": 59}, {"time": 86160, "pitch": 62, "duration": 127, "velocity": 57}, {"time": 86160, "pitch": 66, "duration": 127, "velocity": 60}, {"time": 86320, "pitch": 59, "duration": 60, "velocity": 90}, {"time": 86320, "pitch": 62, "duration": 60, "velocity": 90}, {"time": 86320, "pitch": 66, "duration": 60, "velocity": 90}, {"time": 86400, "pitch": 59, "duration": 138, "velocity": 75}, {"time": 86400, "pitch": 62, "duration": 127, "velocity": 75}, {"time": 86400, "pitch": 66, "duration": 127, "velocity": 75}, {"time": 86560, "pitch": 59, "duration": 60, "velocity": 65}, {"time": 86560, "pitch": 62, "duration": 60, "velocity": 65}, {"time": 86560, "pitch": 66, "duration": 60, "velocity": 65}, {"time": 86881, "pitch": 59, "duration": 138, "velocity": 75}, {"time": 86881, "pitch": 62, "duration": 127, "velocity": 75}, {"time": 86881, "pitch": 66, "duration": 127, "velocity": 75}, {"time": 87041, "pitch": 59, "duration": 60, "velocity": 65}, {"time": 87041, "pitch": 62, "duration": 60, "velocity": 65}, {"time": 87041, "pitch": 66, "duration": 60, "velocity": 65}, {"time": 87121, "pitch": 59, "duration": 138, "velocity": 75}, {"time": 87121, "pitch": 62, "duration": 127, "velocity": 75}, {"time": 87121, "pitch": 66, "duration": 127, "velocity": 75}, {"time": 87281, "pitch": 59, "duration": 60, "velocity": 85}, {"time": 87281, "pitch": 62, "duration": 60, "velocity": 85}, {"time": 87281, "pitch": 66, "duration": 60, "velocity": 85}, {"time": 89997, "pitch": 61, "duration": 127, "velocity": 57}, {"time": 89997, "pitch": 64, "duration": 138, "velocity": 59}, {"time": 89997, "pitch": 69, "duration": 127, "velocity": 60}, {"time": 90157, "pitch": 61, "duration": 60, "velocity": 90}, {"time": 90157, "pitch": 64, "duration": 60, "velocity": 90}, {"time": 90157, "pitch": 69, "duration": 60, "velocity": 90}, {"time": 90237, "pitch": 61, "duration": 127, "velocity": 75}, {"time": 90237, "pitch": 64, "duration": 138, "velocity": 75}, {"time": 90237, "pitch": 69, "duration": 127, "velocity": 75}, {"time": 90397, "pitch": 61, "duration": 60, "velocity": 65}, {"time": 90397, "pitch": 64, "duration": 60, "velocity": 65}, {"time": 90397, "pitch": 69, "duration": 60, "velocity": 65}, {"time": 90718, "pitch": 61, "duration": 127, "velocity": 75}, {"time": 90718, "pitch": 64, "duration": 138, "velocity": 75}, {"time": 90718, "pitch": 69, "duration": 127, "velocity": 75}, {"time": 90878, "pitch": 61, "duration": 60, "velocity": 65}, {"time": 90878, "pitch": 64, "duration": 60, "velocity": 65}, {"time": 90878, "pitch": 69, "duration": 60, "velocity": 65}, {"time": 90958, "pitch": 61, "duration": 127, "velocity": 75}, {"time": 90958, "pitch": 64, "duration": 138, "velocity": 75}, {"time": 90958, "pitch": 69, "duration": 127, "velocity": 75}, {"time": 91118, "pitch": 61, "duration": 60, "velocity": 85}, {"time": 91118, "pitch": 64, "duration": 60, "velocity": 85}, {"time": 91118, "pitch": 69, "duration": 60, "velocity": 85}, {"time": 93840, "pitch": 59, "duration": 139, "velocity": 59}, {"time": 93840, "pitch": 62, "duration": 128, "velocity": 57}, {"time": 93840, "pitch": 66, "duration": 128, "velocity": 60}, {"time": 94001, "pitch": 59, "duration": 60, "velocity": 90}, {"time": 94001, "pitch": 62, "duration": 60, "velocity": 90}, {"time": 94001, "pitch": 66, "duration": 60, "velocity": 90}, {"time": 94081, "pitch": 59, "duration": 138, "velocity": 75}, {"time": 94081, "pitch": 62, "duration": 127, "velocity": 75}, {"time": 94081, "pitch": 66, "duration": 127, "velocity": 75}, {"time": 94241, "pitch": 59, "duration": 60, "velocity": 65}, {"time": 94241, "pitch": 62, "duration": 60, "velocity": 65}, {"time": 94241, "pitch": 66, "duration": 60, "velocity": 65}, {"time": 94561, "pitch": 59, "duration": 138, "velocity": 75}, {"time": 94561, "pitch": 62, "duration": 127, "velocity": 75}, {"time": 94561, "pitch": 66, "duration": 127, "velocity": 75}, {"time": 94721, "pitch": 59, "duration": 60, "velocity": 65}, {"time": 94721, "pitch": 62, "duration": 60, "velocity": 65}, {"time": 94721, "pitch": 66, "duration": 60, "velocity": 65}, {"time": 94801, "pitch": 59, "duration": 138, "velocity": 75}, {"time": 94801, "pitch": 62, "duration": 127, "velocity": 75}, {"time": 94801, "pitch": 66, "duration": 127, "velocity": 75}, {"time": 94961, "pitch": 59, "duration": 60, "velocity": 85}, {"time": 94961, "pitch": 62, "duration": 60, "velocity": 85}, {"time": 94961, "pitch": 66, "duration": 60, "velocity": 85}, {"time": 97677, "pitch": 61, "duration": 127, "velocity": 57}, {"time": 97677, "pitch": 64, "duration": 138, "velocity": 59}, {"time": 97677, "pitch": 69, "duration": 127, "velocity": 60}, {"time": 97837, "pitch": 61, "duration": 61, "velocity": 90}, {"time": 97837, "pitch": 64, "duration": 61, "velocity": 90}, {"time": 97837, "pitch": 69, "duration": 61, "velocity": 90}, {"time": 97918, "pitch": 61, "duration": 127, "velocity": 75}, {"time": 97918, "pitch": 64, "duration": 138, "velocity": 75}, {"time": 97918, "pitch": 69, "duration": 127, "velocity": 75}, {"time": 98078, "pitch": 61, "duration": 60, "velocity": 65}, {"time": 98078, "pitch": 64, "duration": 60, "velocity": 65}, {"time": 98078, "pitch": 69, "duration": 60, "velocity": 65}, {"time": 98398, "pitch": 61, "duration": 127, "velocity": 75}, {"time": 98398, "pitch": 64, "duration": 138, "velocity": 75}, {"time": 98398, "pitch": 69, "duration": 127, "velocity": 75}, {"time": 98558, "pitch": 61, "duration": 60, "velocity": 65}, {"time": 98558, "pitch": 64, "duration": 60, "velocity": 65}, {"time": 98558, "pitch": 69, "duration": 60, "velocity": 65}, {"time": 98638, "pitch": 61, "duration": 127, "velocity": 75}, {"time": 98638, "pitch": 64, "duration": 138, "velocity": 75}, {"time": 98638, "pitch": 69, "duration": 127, "velocity": 75}, {"time": 98798, "pitch": 61, "duration": 60, "velocity": 85}, {"time": 98798, "pitch": 64, "duration": 60, "velocity": 85}, {"time": 98798, "pitch": 69, "duration": 60, "velocity": 85}], "annotations": [{"time": 271, "annotation": {"number": 7, "value": 52}, "group": "control_change"}, {"time": 292, "annotation": {"number": 11, "value": 127}, "group": "control_change"}, {"time": 313, "annotation": {"number": 10, "value": 87}, "group": "control_change"}, {"time": 334, "annotation": {"number": 91, "value": 57}, "group": "control_change"}, {"time": 355, "annotation": {"number": 93, "value": 0}, "group": "control_change"}, {"time": 376, "annotation": {"number": 94, "value": 0}, "group": "control_change"}, {"time": 397, "annotation": {"number": 101, "value": 0}, "group": "control_change"}, {"time": 417, "annotation": {"number": 100, "value": 0}, "group": "control_change"}, {"time": 438, "annotation": {"number": 6, "value": 12}, "group": "control_change"}, {"time": 459, "annotation": {"number": 101, "value": 127}, "group": "control_change"}, {"time": 480, "annotation": {"number": 100, "value": 127}, "group": "control_change"}]}, {"program": 0, "is_drum": false, "name": "DIGITAL VOICEKIRA", "annotations": [{"time": 209, "annotation": {"number": 0, "value": 8}, "group": "control_change"}, {"time": 230, "annotation": {"number": 32, "value": 2}, "group": "control_change"}]}, {"program": 1, "is_drum": false, "name": "DIGITAL VOICEKIRA", "notes": [{"time": 16797, "pitch": 67, "duration": 144, "velocity": 80}, {"time": 16832, "pitch": 71, "duration": 127, "velocity": 85}, {"time": 16867, "pitch": 74, "duration": 82, "velocity": 90}, {"time": 16902, "pitch": 78, "duration": 98, "velocity": 95}, {"time": 20610, "pitch": 66, "duration": 175, "velocity": 80}, {"time": 20640, "pitch": 69, "duration": 138, "velocity": 85}, {"time": 20670, "pitch": 73, "duration": 109, "velocity": 90}, {"time": 20700, "pitch": 76, "duration": 112, "velocity": 95}, {"time": 24477, "pitch": 67, "duration": 144, "velocity": 80}, {"time": 24512, "pitch": 71, "duration": 127, "velocity": 85}, {"time": 24547, "pitch": 74, "duration": 82, "velocity": 90}, {"time": 24582, "pitch": 78, "duration": 98, "velocity": 95}, {"time": 28290, "pitch": 66, "duration": 176, "velocity": 80}, {"time": 28321, "pitch": 69, "duration": 138, "velocity": 85}, {"time": 28351, "pitch": 73, "duration": 109, "velocity": 90}, {"time": 28381, "pitch": 76, "duration": 112, "velocity": 95}, {"time": 47518, "pitch": 71, "duration": 78, "velocity": 85}, {"time": 47518, "pitch": 76, "duration": 73, "velocity": 111}, {"time": 47518, "pitch": 79, "duration": 80, "velocity": 95}, {"time": 50881, "pitch": 71, "duration": 73, "velocity": 86}, {"time": 50881, "pitch": 76, "duration": 60, "velocity": 100}, {"time": 50881, "pitch": 79, "duration": 73, "velocity": 81}, {"time": 51362, "pitch": 69, "duration": 56, "velocity": 90}, {"time": 51362, "pitch": 74, "duration": 52, "velocity": 104}, {"time": 51362, "pitch": 78, "duration": 60, "velocity": 98}, {"time": 51362, "pitch": 81, "duration": 60, "velocity": 90}, {"time": 54718, "pitch": 74, "duration": 71, "velocity": 76}, {"time": 54718, "pitch": 78, "duration": 58, "velocity": 100}, {"time": 54718, "pitch": 83, "duration": 74, "velocity": 90}, {"time": 55198, "pitch": 76, "duration": 58, "velocity": 81}, {"time": 55198, "pitch": 79, "duration": 51, "velocity": 104}, {"time": 55198, "pitch": 84, "duration": 68, "velocity": 100}, {"time": 57120, "pitch": 79, "duration": 46, "velocity": 90}, {"time": 57120, "pitch": 84, "duration": 40, "velocity": 112}, {"time": 57120, "pitch": 88, "duration": 53, "velocity": 98}, {"time": 58561, "pitch": 79, "duration": 67, "velocity": 87}, {"time": 58561, "pitch": 83, "duration": 48, "velocity": 104}, {"time": 58561, "pitch": 88, "duration": 55, "velocity": 90}, {"time": 59042, "pitch": 78, "duration": 45, "velocity": 87}, {"time": 59042, "pitch": 81, "duration": 47, "velocity": 104}, {"time": 59042, "pitch": 86, "duration": 49, "velocity": 100}, {"time": 60957, "pitch": 74, "duration": 42, "velocity": 85}, {"time": 60957, "pitch": 78, "duration": 45, "velocity": 111}, {"time": 60957, "pitch": 83, "duration": 59, "velocity": 90}, {"time": 61918, "pitch": 83, "duration": 46, "velocity": 64}, {"time": 61918, "pitch": 86, "duration": 40, "velocity": 100}, {"time": 61918, "pitch": 90, "duration": 48, "velocity": 90}, {"time": 62879, "pitch": 69, "duration": 47, "velocity": 79}, {"time": 62879, "pitch": 72, "duration": 47, "velocity": 93}, {"time": 62879, "pitch": 76, "duration": 44, "velocity": 85}, {"time": 62879, "pitch": 79, "duration": 53, "velocity": 87}, {"time": 64801, "pitch": 81, "duration": 56, "velocity": 81}, {"time": 64801, "pitch": 84, "duration": 46, "velocity": 100}, {"time": 64801, "pitch": 88, "duration": 43, "velocity": 93}, {"time": 64801, "pitch": 91, "duration": 48, "velocity": 100}, {"time": 85920, "pitch": 67, "duration": 144, "velocity": 80}, {"time": 85955, "pitch": 71, "duration": 127, "velocity": 85}, {"time": 85990, "pitch": 74, "duration": 82, "velocity": 90}, {"time": 86025, "pitch": 78, "duration": 98, "velocity": 95}, {"time": 89727, "pitch": 66, "duration": 175, "velocity": 80}, {"time": 89757, "pitch": 69, "duration": 138, "velocity": 85}, {"time": 89787, "pitch": 73, "duration": 109, "velocity": 90}, {"time": 89817, "pitch": 76, "duration": 112, "velocity": 95}, {"time": 93600, "pitch": 67, "duration": 144, "velocity": 80}, {"time": 93635, "pitch": 71, "duration": 127, "velocity": 85}, {"time": 93670, "pitch": 74, "duration": 82, "velocity": 90}, {"time": 93705, "pitch": 78, "duration": 98, "velocity": 95}, {"time": 97408, "pitch": 66, "duration": 174, "velocity": 80}, {"time": 97437, "pitch": 69, "duration": 138, "velocity": 85}, {"time": 97467, "pitch": 73, "duration": 109, "velocity": 90}, {"time": 97497, "pitch": 76, "duration": 112, "velocity": 95}], "annotations": [{"time": 271, "annotation": {"number": 7, "value": 71}, "group": "control_change"}, {"time": 292, "annotation": {"number": 11, "value": 127}, "group": "control_change"}, {"time": 313, "annotation": {"number": 10, "value": 64}, "group": "control_change"}, {"time": 334, "annotation": {"number": 91, "value": 108}, "group": "control_change"}, {"time": 355, "annotation": {"number": 93, "value": 12}, "group": "control_change"}, {"time": 376, "annotation": {"number": 94, "value": 1}, "group": "control_change"}, {"time": 397, "annotation": {"number": 101, "value": 0}, "group": "control_change"}, {"time": 417, "annotation": {"number": 100, "value": 0}, "group": "control_change"}, {"time": 438, "annotation": {"number": 6, "value": 12}, "group": "control_change"}, {"time": 459, "annotation": {"number": 101, "value": 127}, "group": "control_change"}, {"time": 480, "annotation": {"number": 100, "value": 127}, "group": "control_change"}]}, {"program": 0, "is_drum": true, "name": "Drums", "notes": [{"time": 482, "pitch": 42, "duration": 60, "velocity": 90}, {"time": 642, "pitch": 48, "duration": 10, "velocity": 85}, {"time": 652, "pitch": 48, "duration": 128, "velocity": 117}, {"time": 882, "pitch": 41, "duration": 148, "velocity": 105}, {"time": 962, "pitch": 36, "duration": 10, "velocity": 94}, {"time": 1202, "pitch": 38, "duration": 10, "velocity": 36}, {"time": 1262, "pitch": 38, "duration": 10, "velocity": 52}, {"time": 1322, "pitch": 38, "duration": 10, "velocity": 79}, {"time": 1383, "pitch": 38, "duration": 10, "velocity": 99}, {"time": 1443, "pitch": 36, "duration": 10, "velocity": 106}, {"time": 1443, "pitch": 42, "duration": 58, "velocity": 100}, {"time": 1683, "pitch": 36, "duration": 10, "velocity": 99}, {"time": 1683, "pitch": 42, "duration": 40, "velocity": 59}, {"time": 1683, "pitch": 69, "duration": 60, "velocity": 90}, {"time": 1843, "pitch": 82, "duration": 34, "velocity": 90}, {"time": 1923, "pitch": 40, "duration": 10, "velocity": 116}, {"time": 1923, "pitch": 42, "duration": 45, "velocity": 104}, {"time": 2160, "pitch": 36, "duration": 10, "velocity": 73}, {"time": 2160, "pitch": 42, "duration": 38, "velocity": 65}, {"time": 2318, "pitch": 28, "duration": 10, "velocity": 46}, {"time": 2397, "pitch": 36, "duration": 10, "velocity": 71}, {"time": 2397, "pitch": 42, "duration": 46, "velocity": 104}, {"time": 2557, "pitch": 28, "duration": 10, "velocity": 66}, {"time": 2637, "pitch": 36, "duration": 10, "velocity": 105}, {"time": 2637, "pitch": 42, "duration": 38, "velocity": 70}, {"time": 2877, "pitch": 40, "duration": 10, "velocity": 108}, {"time": 2877, "pitch": 42, "duration": 49, "velocity": 117}, {"time": 3118, "pitch": 36, "duration": 10, "velocity": 87}, {"time": 3118, "pitch": 42, "duration": 38, "velocity": 57}, {"time": 3278, "pitch": 28, "duration": 10, "velocity": 42}, {"time": 3358, "pitch": 36, "duration": 10, "velocity": 106}, {"time": 3358, "pitch": 42, "duration": 47, "velocity": 104}, {"time": 3598, "pitch": 36, "duration": 10, "velocity": 115}, {"time": 3598, "pitch": 42, "duration": 41, "velocity": 64}, {"time": 3838, "pitch": 40, "duration": 10, "velocity": 111}, {"time": 3838, "pitch": 42, "duration": 55, "velocity": 111}, {"time": 4078, "pitch": 36, "duration": 10, "velocity": 80}, {"time": 4078, "pitch": 42, "duration": 48, "velocity": 59}, {"time": 4078, "pitch": 69, "duration": 34, "velocity": 85}, {"time": 4239, "pitch": 28, "duration": 10, "velocity": 46}, {"time": 4239, "pitch": 82, "duration": 60, "velocity": 90}, {"time": 4319, "pitch": 36, "duration": 10, "velocity": 105}, {"time": 4319, "pitch": 42, "duration": 55, "velocity": 112}, {"time": 4479, "pitch": 28, "duration": 10, "velocity": 46}, {"time": 4559, "pitch": 36, "duration": 10, "velocity": 92}, {"time": 4559, "pitch": 42, "duration": 45, "velocity": 57}, {"time": 4799, "pitch": 40, "duration": 10, "velocity": 108}, {"time": 4799, "pitch": 42, "duration": 60, "velocity": 112}, {"time": 5039, "pitch": 36, "duration": 10, "velocity": 94}, {"time": 5039, "pitch": 42, "duration": 41, "velocity": 61}, {"time": 5199, "pitch": 28, "duration": 10, "velocity": 42}, {"time": 5279, "pitch": 36, "duration": 10, "velocity": 106}, {"time": 5279, "pitch": 42, "duration": 59, "velocity": 100}, {"time": 5520, "pitch": 36, "duration": 10, "velocity": 99}, {"time": 5520, "pitch": 42, "duration": 40, "velocity": 59}, {"time": 5760, "pitch": 40, "duration": 10, "velocity": 116}, {"time": 5760, "pitch": 42, "duration": 46, "velocity": 104}, {"time": 6000, "pitch": 36, "duration": 10, "velocity": 73}, {"time": 6000, "pitch": 42, "duration": 39, "velocity": 65}, {"time": 6160, "pitch": 28, "duration": 10, "velocity": 46}, {"time": 6240, "pitch": 36, "duration": 10, "velocity": 71}, {"time": 6240, "pitch": 42, "duration": 46, "velocity": 104}, {"time": 6240, "pitch": 69, "duration": 34, "velocity": 85}, {"time": 6400, "pitch": 28, "duration": 10, "velocity": 66}, {"time": 6400, "pitch": 82, "duration": 61, "velocity": 90}, {"time": 6481, "pitch": 36, "duration": 10, "velocity": 105}, {"time": 6481, "pitch": 42, "duration": 38, "velocity": 70}, {"time": 6721, "pitch": 40, "duration": 10, "velocity": 108}, {"time": 6721, "pitch": 42, "duration": 49, "velocity": 117}, {"time": 6961, "pitch": 36, "duration": 10, "velocity": 87}, {"time": 6961, "pitch": 42, "duration": 38, "velocity": 57}, {"time": 7121, "pitch": 28, "duration": 10, "velocity": 42}, {"time": 7201, "pitch": 36, "duration": 10, "velocity": 106}, {"time": 7201, "pitch": 42, "duration": 47, "velocity": 104}, {"time": 7441, "pitch": 36, "duration": 10, "velocity": 115}, {"time": 7441, "pitch": 42, "duration": 41, "velocity": 64}, {"time": 7682, "pitch": 40, "duration": 10, "velocity": 111}, {"time": 7682, "pitch": 42, "duration": 55, "velocity": 111}, {"time": 7922, "pitch": 36, "duration": 10, "velocity": 80}, {"time": 7922, "pitch": 42, "duration": 48, "velocity": 59}, {"time": 8082, "pitch": 28, "duration": 10, "velocity": 46}, {"time": 8162, "pitch": 36, "duration": 10, "velocity": 105}, {"time": 8162, "pitch": 42, "duration": 55, "velocity": 112}, {"time": 8322, "pitch": 28, "duration": 10, "velocity": 46}, {"time": 8402, "pitch": 36, "duration": 10, "velocity": 92}, {"time": 8402, "pitch": 42, "duration": 45, "velocity": 57}, {"time": 8642, "pitch": 40, "duration": 10, "velocity": 108}, {"time": 8642, "pitch": 42, "duration": 61, "velocity": 112}, {"time": 8883, "pitch": 36, "duration": 10, "velocity": 94}, {"time": 8883, "pitch": 42, "duration": 41, "velocity": 61}, {"time": 8883, "pitch": 69, "duration": 34, "velocity": 85}, {"time": 9043, "pitch": 28, "duration": 10, "velocity": 42}, {"time": 9043, "pitch": 82, "duration": 60, "velocity": 90}, {"time": 9123, "pitch": 36, "duration": 10, "velocity": 106}, {"time": 9123, "pitch": 42, "duration": 57, "velocity": 100}, {"time": 9360, "pitch": 36, "duration": 10, "velocity": 99}, {"time": 9360, "pitch": 42, "duration": 39, "velocity": 59}, {"time": 9360, "pitch": 69, "duration": 59, "velocity": 90}, {"time": 9518, "pitch": 82, "duration": 33, "velocity": 90}, {"time": 9597, "pitch": 40, "duration": 10, "velocity": 116}, {"time": 9597, "pitch": 42, "duration": 46, "velocity": 104}, {"time": 9837, "pitch": 36, "duration": 10, "velocity": 73}, {"time": 9837, "pitch": 42, "duration": 39, "velocity": 65}, {"time": 9997, "pitch": 28, "duration": 10, "velocity": 46}, {"time": 10077, "pitch": 36, "duration": 10, "velocity": 71}, {"time": 10077, "pitch": 42, "duration": 46, "velocity": 104}, {"time": 10237, "pitch": 28, "duration": 10, "velocity": 66}, {"time": 10317, "pitch": 36, "duration": 10, "velocity": 105}, {"time": 10317, "pitch": 42, "duration": 39, "velocity": 70}, {"time": 10558, "pitch": 40, "duration": 10, "velocity": 108}, {"time": 10558, "pitch": 42, "duration": 49, "velocity": 117}, {"time": 10798, "pitch": 36, "duration": 10, "velocity": 87}, {"time": 10798, "pitch": 42, "duration": 38, "velocity": 57}, {"time": 10958, "pitch": 28, "duration": 10, "velocity": 42}, {"time": 11038, "pitch": 36, "duration": 10, "velocity": 106}, {"time": 11038, "pitch": 42, "duration": 47, "velocity": 104}, {"time": 11278, "pitch": 36, "duration": 10, "velocity": 115}, {"time": 11278, "pitch": 42, "duration": 41, "velocity": 64}, {"time": 11519, "pitch": 40, "duration": 10, "velocity": 111}, {"time": 11519, "pitch": 42, "duration": 55, "velocity": 111}, {"time": 11759, "pitch": 36, "duration": 10, "velocity": 80}, {"time": 11759, "pitch": 42, "duration": 48, "velocity": 59}, {"time": 11759, "pitch": 69, "duration": 34, "velocity": 85}, {"time": 11919, "pitch": 28, "duration": 10, "velocity": 46}, {"time": 11919, "pitch": 82, "duration": 60, "velocity": 90}, {"time": 11999, "pitch": 36, "duration": 10, "velocity": 105}, {"time": 11999, "pitch": 42, "duration": 55, "velocity": 112}, {"time": 12159, "pitch": 28, "duration": 10, "velocity": 46}, {"time": 12239, "pitch": 36, "duration": 10, "velocity": 92}, {"time": 12239, "pitch": 42, "duration": 45, "velocity": 57}, {"time": 12479, "pitch": 40, "duration": 10, "velocity": 108}, {"time": 12479, "pitch": 42, "duration": 60, "velocity": 112}, {"time": 12720, "pitch": 36, "duration": 10, "velocity": 94}, {"time": 12720, "pitch": 42, "duration": 41, "velocity": 61}, {"time": 12880, "pitch": 28, "duration": 10, "velocity": 42}, {"time": 12960, "pitch": 36, "duration": 10, "velocity": 106}, {"time": 12960, "pitch": 42, "duration": 58, "velocity": 100}, {"time": 13200, "pitch": 36, "duration": 10, "velocity": 99}, {"time": 13200, "pitch": 42, "duration": 40, "velocity": 59}, {"time": 13440, "pitch": 40, "duration": 10, "velocity": 116}, {"time": 13440, "pitch": 42, "duration": 46, "velocity": 104}, {"time": 13680, "pitch": 36, "duration": 10, "velocity": 73}, {"time": 13680, "pitch": 42, "duration": 40, "velocity": 65}, {"time": 13841, "pitch": 28, "duration": 10, "velocity": 46}, {"time": 13921, "pitch": 36, "duration": 10, "velocity": 71}, {"time": 13921, "pitch": 42, "duration": 46, "velocity": 104}, {"time": 13921, "pitch": 69, "duration": 34, "velocity": 85}, {"time": 14081, "pitch": 28, "duration": 10, "velocity": 66}, {"time": 14081, "pitch": 82, "duration": 60, "velocity": 90}, {"time": 14161, "pitch": 36, "duration": 10, "velocity": 105}, {"time": 14161, "pitch": 42, "duration": 38, "velocity": 70}, {"time": 14401, "pitch": 40, "duration": 10, "velocity": 108}, {"time": 14401, "pitch": 42, "duration": 49, "velocity": 117}, {"time": 14641, "pitch": 36, "duration": 10, "velocity": 87}, {"time": 14641, "pitch": 42, "duration": 38, "velocity": 57}, {"time": 14801, "pitch": 28, "duration": 10, "velocity": 42}, {"time": 14882, "pitch": 36, "duration": 10, "velocity": 106}, {"time": 14882, "pitch": 42, "duration": 47, "velocity": 104}, {"time": 15122, "pitch": 36, "duration": 10, "velocity": 115}, {"time": 15122, "pitch": 42, "duration": 41, "velocity": 64}, {"time": 15362, "pitch": 40, "duration": 10, "velocity": 111}, {"time": 15362, "pitch": 42, "duration": 55, "velocity": 111}, {"time": 15602, "pitch": 36, "duration": 10, "velocity": 80}, {"time": 15602, "pitch": 42, "duration": 48, "velocity": 59}, {"time": 15762, "pitch": 28, "duration": 10, "velocity": 46}, {"time": 15842, "pitch": 36, "duration": 10, "velocity": 105}, {"time": 15842, "pitch": 42, "duration": 55, "velocity": 112}, {"time": 16003, "pitch": 28, "duration": 10, "velocity": 46}, {"time": 16083, "pitch": 36, "duration": 10, "velocity": 92}, {"time": 16083, "pitch": 42, "duration": 45, "velocity": 57}, {"time": 16323, "pitch": 38, "duration": 10, "velocity": 114}, {"time": 16323, "pitch": 40, "duration": 10, "velocity": 108}, {"time": 16323, "pitch": 42, "duration": 59, "velocity": 112}, {"time": 16481, "pitch": 38, "duration": 10, "velocity": 84}, {"time": 16560, "pitch": 36, "duration": 10, "velocity": 94}, {"time": 16560, "pitch": 42, "duration": 40, "velocity": 61}, {"time": 16560, "pitch": 45, "duration": 59, "velocity": 110}, {"time": 16560, "pitch": 69, "duration": 33, "velocity": 85}, {"time": 16718, "pitch": 28, "duration": 10, "velocity": 42}, {"time": 16718, "pitch": 82, "duration": 59, "velocity": 90}, {"time": 16797, "pitch": 36, "duration": 10, "velocity": 106}, {"time": 16797, "pitch": 42, "duration": 58, "velocity": 100}, {"time": 16797, "pitch": 57, "duration": 60, "velocity": 90}, {"time": 17037, "pitch": 36, "duration": 10, "velocity": 99}, {"time": 17037, "pitch": 42, "duration": 40, "velocity": 59}, {"time": 17037, "pitch": 69, "duration": 60, "velocity": 90}, {"time": 17197, "pitch": 82, "duration": 34, "velocity": 90}, {"time": 17277, "pitch": 40, "duration": 10, "velocity": 116}, {"time": 17277, "pitch": 42, "duration": 46, "velocity": 104}, {"time": 17277, "pitch": 54, "duration": 54, "velocity": 117}, {"time": 17517, "pitch": 36, "duration": 10, "velocity": 73}, {"time": 17517, "pitch": 42, "duration": 39, "velocity": 65}, {"time": 17678, "pitch": 28, "duration": 10, "velocity": 46}, {"time": 17758, "pitch": 36, "duration": 10, "velocity": 71}, {"time": 17758, "pitch": 42, "duration": 46, "velocity": 104}, {"time": 17918, "pitch": 28, "duration": 10, "velocity": 66}, {"time": 17998, "pitch": 36, "duration": 10, "velocity": 105}, {"time": 17998, "pitch": 42, "duration": 38, "velocity": 70}, {"time": 18238, "pitch": 40, "duration": 10, "velocity": 108}, {"time": 18238, "pitch": 42, "duration": 49, "velocity": 117}, {"time": 18478, "pitch": 36, "duration": 10, "velocity": 87}, {"time": 18478, "pitch": 42, "duration": 38, "velocity": 57}, {"time": 18638, "pitch": 28, "duration": 10, "velocity": 42}, {"time": 18718, "pitch": 36, "duration": 10, "velocity": 106}, {"time": 18718, "pitch": 42, "duration": 48, "velocity": 104}, {"time": 18959, "pitch": 36, "duration": 10, "velocity": 115}, {"time": 18959, "pitch": 42, "duration": 41, "velocity": 64}, {"time": 19199, "pitch": 40, "duration": 10, "velocity": 111}, {"time": 19199, "pitch": 42, "duration": 55, "velocity": 111}, {"time": 19199, "pitch": 54, "duration": 60, "velocity": 112}, {"time": 19439, "pitch": 36, "duration": 10, "velocity": 80}, {"time": 19439, "pitch": 42, "duration": 48, "velocity": 59}, {"time": 19439, "pitch": 69, "duration": 34, "velocity": 85}, {"time": 19599, "pitch": 28, "duration": 10, "velocity": 46}, {"time": 19599, "pitch": 82, "duration": 60, "velocity": 90}, {"time": 19679, "pitch": 36, "duration": 10, "velocity": 105}, {"time": 19679, "pitch": 42, "duration": 55, "velocity": 112}, {"time": 19839, "pitch": 28, "duration": 10, "velocity": 46}, {"time": 19920, "pitch": 36, "duration": 10, "velocity": 92}, {"time": 19920, "pitch": 42, "duration": 45, "velocity": 57}, {"time": 20160, "pitch": 39, "duration": 96, "velocity": 120}, {"time": 20160, "pitch": 40, "duration": 10, "velocity": 108}, {"time": 20160, "pitch": 42, "duration": 60, "velocity": 112}, {"time": 20400, "pitch": 36, "duration": 10, "velocity": 94}, {"time": 20400, "pitch": 42, "duration": 41, "velocity": 61}, {"time": 20560, "pitch": 28, "duration": 10, "velocity": 42}, {"time": 20640, "pitch": 36, "duration": 10, "velocity": 106}, {"time": 20640, "pitch": 42, "duration": 58, "velocity": 100}, {"time": 20880, "pitch": 36, "duration": 10, "velocity": 99}, {"time": 20880, "pitch": 42, "duration": 40, "velocity": 59}, {"time": 21121, "pitch": 40, "duration": 10, "velocity": 116}, {"time": 21121, "pitch": 42, "duration": 46, "velocity": 104}, {"time": 21121, "pitch": 54, "duration": 71, "velocity": 122}, {"time": 21361, "pitch": 36, "duration": 10, "velocity": 73}, {"time": 21361, "pitch": 42, "duration": 39, "velocity": 65}, {"time": 21521, "pitch": 28, "duration": 10, "velocity": 46}, {"time": 21601, "pitch": 36, "duration": 10, "velocity": 71}, {"time": 21601, "pitch": 42, "duration": 46, "velocity": 104}, {"time": 21601, "pitch": 69, "duration": 34, "velocity": 85}, {"time": 21761, "pitch": 28, "duration": 10, "velocity": 66}, {"time": 21761, "pitch": 82, "duration": 60, "velocity": 90}, {"time": 21841, "pitch": 36, "duration": 10, "velocity": 105}, {"time": 21841, "pitch": 42, "duration": 38, "velocity": 70}, {"time": 22081, "pitch": 40, "duration": 10, "velocity": 108}, {"time": 22081, "pitch": 42, "duration": 49, "velocity": 117}, {"time": 22322, "pitch": 36, "duration": 10, "velocity": 87}, {"time": 22322, "pitch": 42, "duration": 38, "velocity": 57}, {"time": 22482, "pitch": 28, "duration": 10, "velocity": 42}, {"time": 22562, "pitch": 36, "duration": 10, "velocity": 106}, {"time": 22562, "pitch": 42, "duration": 47, "velocity": 104}, {"time": 22802, "pitch": 36, "duration": 10, "velocity": 115}, {"time": 22802, "pitch": 42, "duration": 41, "velocity": 64}, {"time": 23042, "pitch": 40, "duration": 10, "velocity": 111}, {"time": 23042, "pitch": 42, "duration": 55, "velocity": 111}, {"time": 23042, "pitch": 54, "duration": 61, "velocity": 121}, {"time": 23283, "pitch": 36, "duration": 10, "velocity": 80}, {"time": 23283, "pitch": 42, "duration": 48, "velocity": 59}, {"time": 23443, "pitch": 28, "duration": 10, "velocity": 46}, {"time": 23523, "pitch": 36, "duration": 10, "velocity": 105}, {"time": 23523, "pitch": 42, "duration": 55, "velocity": 112}, {"time": 23683, "pitch": 28, "duration": 10, "velocity": 46}, {"time": 23763, "pitch": 36, "duration": 10, "velocity": 92}, {"time": 23763, "pitch": 42, "duration": 45, "velocity": 57}, {"time": 24003, "pitch": 38, "duration": 10, "velocity": 114}, {"time": 24003, "pitch": 39, "duration": 76, "velocity": 114}, {"time": 24003, "pitch": 40, "duration": 10, "velocity": 108}, {"time": 24003, "pitch": 42, "duration": 59, "velocity": 112}, {"time": 24161, "pitch": 38, "duration": 10, "velocity": 84}, {"time": 24240, "pitch": 36, "duration": 10, "velocity": 94}, {"time": 24240, "pitch": 42, "duration": 41, "velocity": 61}, {"time": 24240, "pitch": 69, "duration": 34, "velocity": 85}, {"time": 24398, "pitch": 28, "duration": 10, "velocity": 42}, {"time": 24398, "pitch": 82, "duration": 59, "velocity": 90}, {"time": 24477, "pitch": 36, "duration": 10, "velocity": 106}, {"time": 24477, "pitch": 42, "duration": 58, "velocity": 100}, {"time": 24477, "pitch": 57, "duration": 60, "velocity": 90}, {"time": 24717, "pitch": 36, "duration": 10, "velocity": 99}, {"time": 24717, "pitch": 42, "duration": 40, "velocity": 59}, {"time": 24717, "pitch": 69, "duration": 60, "velocity": 90}, {"time": 24877, "pitch": 82, "duration": 34, "velocity": 90}, {"time": 24958, "pitch": 40, "duration": 10, "velocity": 116}, {"time": 24958, "pitch": 42, "duration": 46, "velocity": 104}, {"time": 24958, "pitch": 54, "duration": 69, "velocity": 121}, {"time": 25198, "pitch": 36, "duration": 10, "velocity": 73}, {"time": 25198, "pitch": 42, "duration": 39, "velocity": 65}, {"time": 25358, "pitch": 28, "duration": 10, "velocity": 46}, {"time": 25438, "pitch": 36, "duration": 10, "velocity": 71}, {"time": 25438, "pitch": 42, "duration": 46, "velocity": 104}, {"time": 25598, "pitch": 28, "duration": 10, "velocity": 66}, {"time": 25678, "pitch": 36, "duration": 10, "velocity": 105}, {"time": 25678, "pitch": 42, "duration": 38, "velocity": 70}, {"time": 25918, "pitch": 40, "duration": 10, "velocity": 108}, {"time": 25918, "pitch": 42, "duration": 49, "velocity": 117}, {"time": 26159, "pitch": 36, "duration": 10, "velocity": 87}, {"time": 26159, "pitch": 42, "duration": 38, "velocity": 57}, {"time": 26319, "pitch": 28, "duration": 10, "velocity": 42}, {"time": 26399, "pitch": 36, "duration": 10, "velocity": 106}, {"time": 26399, "pitch": 42, "duration": 47, "velocity": 104}, {"time": 26639, "pitch": 36, "duration": 10, "velocity": 115}, {"time": 26639, "pitch": 42, "duration": 41, "velocity": 64}, {"time": 26879, "pitch": 40, "duration": 10, "velocity": 111}, {"time": 26879, "pitch": 42, "duration": 55, "velocity": 111}, {"time": 26879, "pitch": 54, "duration": 69, "velocity": 122}, {"time": 27119, "pitch": 36, "duration": 10, "velocity": 80}, {"time": 27119, "pitch": 42, "duration": 48, "velocity": 59}, {"time": 27119, "pitch": 69, "duration": 34, "velocity": 85}, {"time": 27280, "pitch": 28, "duration": 10, "velocity": 46}, {"time": 27280, "pitch": 82, "duration": 60, "velocity": 90}, {"time": 27360, "pitch": 36, "duration": 10, "velocity": 105}, {"time": 27360, "pitch": 42, "duration": 55, "velocity": 112}, {"time": 27520, "pitch": 28, "duration": 10, "velocity": 46}, {"time": 27600, "pitch": 36, "duration": 10, "velocity": 92}, {"time": 27600, "pitch": 42, "duration": 45, "velocity": 57}, {"time": 27840, "pitch": 39, "duration": 79, "velocity": 121}, {"time": 27840, "pitch": 40, "duration": 10, "velocity": 108}, {"time": 27840, "pitch": 42, "duration": 60, "velocity": 112}, {"time": 28080, "pitch": 36, "duration": 10, "velocity": 94}, {"time": 28080, "pitch": 42, "duration": 41, "velocity": 61}, {"time": 28240, "pitch": 28, "duration": 10, "velocity": 42}, {"time": 28321, "pitch": 36, "duration": 10, "velocity": 106}, {"time": 28321, "pitch": 42, "duration": 58, "velocity": 100}, {"time": 28561, "pitch": 36, "duration": 10, "velocity": 99}, {"time": 28561, "pitch": 42, "duration": 40, "velocity": 59}, {"time": 28801, "pitch": 40, "duration": 10, "velocity": 116}, {"time": 28801, "pitch": 42, "duration": 46, "velocity": 104}, {"time": 28801, "pitch": 54, "duration": 60, "velocity": 122}, {"time": 29041, "pitch": 36, "duration": 10, "velocity": 73}, {"time": 29041, "pitch": 42, "duration": 39, "velocity": 65}, {"time": 29201, "pitch": 28, "duration": 10, "velocity": 46}, {"time": 29281, "pitch": 36, "duration": 10, "velocity": 71}, {"time": 29281, "pitch": 42, "duration": 46, "velocity": 104}, {"time": 29281, "pitch": 69, "duration": 34, "velocity": 85}, {"time": 29442, "pitch": 28, "duration": 10, "velocity": 66}, {"time": 29442, "pitch": 82, "duration": 60, "velocity": 90}, {"time": 29522, "pitch": 36, "duration": 10, "velocity": 105}, {"time": 29522, "pitch": 42, "duration": 38, "velocity": 70}, {"time": 29762, "pitch": 40, "duration": 10, "velocity": 108}, {"time": 29762, "pitch": 42, "duration": 49, "velocity": 117}, {"time": 30002, "pitch": 36, "duration": 10, "velocity": 87}, {"time": 30002, "pitch": 42, "duration": 38, "velocity": 57}, {"time": 30162, "pitch": 28, "duration": 10, "velocity": 42}, {"time": 30242, "pitch": 36, "duration": 10, "velocity": 106}, {"time": 30242, "pitch": 42, "duration": 47, "velocity": 104}, {"time": 30482, "pitch": 36, "duration": 10, "velocity": 115}, {"time": 30482, "pitch": 42, "duration": 41, "velocity": 64}, {"time": 30723, "pitch": 40, "duration": 10, "velocity": 111}, {"time": 30723, "pitch": 42, "duration": 55, "velocity": 111}, {"time": 30723, "pitch": 54, "duration": 74, "velocity": 121}, {"time": 30963, "pitch": 36, "duration": 10, "velocity": 80}, {"time": 30963, "pitch": 42, "duration": 48, "velocity": 59}, {"time": 31123, "pitch": 28, "duration": 10, "velocity": 46}, {"time": 31203, "pitch": 36, "duration": 10, "velocity": 105}, {"time": 31203, "pitch": 42, "duration": 54, "velocity": 112}, {"time": 31361, "pitch": 28, "duration": 10, "velocity": 46}, {"time": 31440, "pitch": 36, "duration": 10, "velocity": 92}, {"time": 31440, "pitch": 42, "duration": 44, "velocity": 57}, {"time": 31677, "pitch": 39, "duration": 102, "velocity": 121}, {"time": 31677, "pitch": 40, "duration": 10, "velocity": 108}, {"time": 31677, "pitch": 42, "duration": 60, "velocity": 112}, {"time": 31837, "pitch": 48, "duration": 60, "velocity": 110}, {"time": 31917, "pitch": 36, "duration": 10, "velocity": 94}, {"time": 31917, "pitch": 41, "duration": 60, "velocity": 110}, {"time": 31917, "pitch": 42, "duration": 41, "velocity": 61}, {"time": 31917, "pitch": 69, "duration": 34, "velocity": 85}, {"time": 32077, "pitch": 28, "duration": 10, "velocity": 42}, {"time": 32077, "pitch": 82, "duration": 60, "velocity": 90}, {"time": 32157, "pitch": 36, "duration": 10, "velocity": 106}, {"time": 32157, "pitch": 42, "duration": 58, "velocity": 100}, {"time": 32157, "pitch": 57, "duration": 60, "velocity": 90}, {"time": 32398, "pitch": 36, "duration": 10, "velocity": 99}, {"time": 32398, "pitch": 42, "duration": 40, "velocity": 59}, {"time": 32398, "pitch": 69, "duration": 60, "velocity": 90}, {"time": 32558, "pitch": 82, "duration": 34, "velocity": 90}, {"time": 32638, "pitch": 40, "duration": 10, "velocity": 116}, {"time": 32638, "pitch": 42, "duration": 46, "velocity": 104}, {"time": 32878, "pitch": 36, "duration": 10, "velocity": 73}, {"time": 32878, "pitch": 42, "duration": 39, "velocity": 65}, {"time": 33038, "pitch": 28, "duration": 10, "velocity": 46}, {"time": 33118, "pitch": 36, "duration": 10, "velocity": 71}, {"time": 33118, "pitch": 42, "duration": 46, "velocity": 104}, {"time": 33278, "pitch": 28, "duration": 10, "velocity": 66}, {"time": 33359, "pitch": 36, "duration": 10, "velocity": 105}, {"time": 33359, "pitch": 42, "duration": 38, "velocity": 70}, {"time": 33599, "pitch": 40, "duration": 10, "velocity": 108}, {"time": 33599, "pitch": 42, "duration": 49, "velocity": 117}, {"time": 33839, "pitch": 36, "duration": 10, "velocity": 87}, {"time": 33839, "pitch": 42, "duration": 38, "velocity": 57}, {"time": 33999, "pitch": 28, "duration": 10, "velocity": 42}, {"time": 34079, "pitch": 36, "duration": 10, "velocity": 106}, {"time": 34079, "pitch": 42, "duration": 47, "velocity": 104}, {"time": 34319, "pitch": 36, "duration": 10, "velocity": 115}, {"time": 34319, "pitch": 42, "duration": 41, "velocity": 64}, {"time": 34560, "pitch": 40, "duration": 10, "velocity": 111}, {"time": 34560, "pitch": 42, "duration": 55, "velocity": 111}, {"time": 34800, "pitch": 36, "duration": 10, "velocity": 80}, {"time": 34800, "pitch": 42, "duration": 48, "velocity": 59}, {"time": 34800, "pitch": 69, "duration": 34, "velocity": 85}, {"time": 34960, "pitch": 28, "duration": 10, "velocity": 46}, {"time": 34960, "pitch": 82, "duration": 60, "velocity": 90}, {"time": 35040, "pitch": 36, "duration": 10, "velocity": 105}, {"time": 35040, "pitch": 42, "duration": 55, "velocity": 112}, {"time": 35200, "pitch": 28, "duration": 10, "velocity": 46}, {"time": 35280, "pitch": 36, "duration": 10, "velocity": 92}, {"time": 35280, "pitch": 42, "duration": 45, "velocity": 57}, {"time": 35520, "pitch": 40, "duration": 10, "velocity": 108}, {"time": 35520, "pitch": 42, "duration": 60, "velocity": 112}, {"time": 35761, "pitch": 36, "duration": 10, "velocity": 94}, {"time": 35761, "pitch": 42, "duration": 41, "velocity": 61}, {"time": 35921, "pitch": 28, "duration": 10, "velocity": 42}, {"time": 36001, "pitch": 36, "duration": 10, "velocity": 106}, {"time": 36001, "pitch": 42, "duration": 58, "velocity": 100}, {"time": 36241, "pitch": 36, "duration": 10, "velocity": 99}, {"time": 36241, "pitch": 42, "duration": 40, "velocity": 59}, {"time": 36481, "pitch": 40, "duration": 10, "velocity": 116}, {"time": 36481, "pitch": 42, "duration": 46, "velocity": 104}, {"time": 36721, "pitch": 36, "duration": 11, "velocity": 73}, {"time": 36721, "pitch": 42, "duration": 40, "velocity": 65}, {"time": 36882, "pitch": 28, "duration": 10, "velocity": 46}, {"time": 36962, "pitch": 36, "duration": 10, "velocity": 71}, {"time": 36962, "pitch": 42, "duration": 46, "velocity": 104}, {"time": 36962, "pitch": 69, "duration": 34, "velocity": 85}, {"time": 37122, "pitch": 28, "duration": 10, "velocity": 66}, {"time": 37122, "pitch": 82, "duration": 60, "velocity": 90}, {"time": 37202, "pitch": 36, "duration": 10, "velocity": 105}, {"time": 37202, "pitch": 42, "duration": 38, "velocity": 70}, {"time": 37442, "pitch": 40, "duration": 10, "velocity": 108}, {"time": 37442, "pitch": 42, "duration": 49, "velocity": 117}, {"time": 37682, "pitch": 36, "duration": 10, "velocity": 87}, {"time": 37682, "pitch": 42, "duration": 38, "velocity": 57}, {"time": 37842, "pitch": 28, "duration": 11, "velocity": 42}, {"time": 37923, "pitch": 36, "duration": 10, "velocity": 106}, {"time": 37923, "pitch": 42, "duration": 47, "velocity": 104}, {"time": 38163, "pitch": 36, "duration": 10, "velocity": 115}, {"time": 38163, "pitch": 42, "duration": 41, "velocity": 64}, {"time": 38403, "pitch": 40, "duration": 10, "velocity": 111}, {"time": 38403, "pitch": 42, "duration": 54, "velocity": 111}, {"time": 38640, "pitch": 36, "duration": 10, "velocity": 80}, {"time": 38640, "pitch": 42, "duration": 47, "velocity": 59}, {"time": 38798, "pitch": 28, "duration": 10, "velocity": 46}, {"time": 38877, "pitch": 36, "duration": 10, "velocity": 105}, {"time": 38877, "pitch": 42, "duration": 55, "velocity": 112}, {"time": 39037, "pitch": 28, "duration": 10, "velocity": 46}, {"time": 39117, "pitch": 36, "duration": 10, "velocity": 92}, {"time": 39117, "pitch": 42, "duration": 45, "velocity": 57}, {"time": 39357, "pitch": 40, "duration": 10, "velocity": 108}, {"time": 39357, "pitch": 42, "duration": 60, "velocity": 112}, {"time": 39598, "pitch": 36, "duration": 10, "velocity": 94}, {"time": 39598, "pitch": 42, "duration": 41, "velocity": 61}, {"time": 39598, "pitch": 69, "duration": 34, "velocity": 85}, {"time": 39758, "pitch": 28, "duration": 10, "velocity": 42}, {"time": 39758, "pitch": 82, "duration": 60, "velocity": 90}, {"time": 39838, "pitch": 36, "duration": 10, "velocity": 106}, {"time": 39838, "pitch": 42, "duration": 58, "velocity": 100}, {"time": 40078, "pitch": 36, "duration": 10, "velocity": 99}, {"time": 40078, "pitch": 42, "duration": 40, "velocity": 59}, {"time": 40078, "pitch": 69, "duration": 60, "velocity": 90}, {"time": 40238, "pitch": 82, "duration": 34, "velocity": 90}, {"time": 40318, "pitch": 40, "duration": 10, "velocity": 116}, {"time": 40318, "pitch": 42, "duration": 46, "velocity": 104}, {"time": 40558, "pitch": 36, "duration": 10, "velocity": 73}, {"time": 40558, "pitch": 42, "duration": 39, "velocity": 65}, {"time": 40719, "pitch": 28, "duration": 10, "velocity": 46}, {"time": 40799, "pitch": 36, "duration": 10, "velocity": 71}, {"time": 40799, "pitch": 42, "duration": 46, "velocity": 104}, {"time": 40959, "pitch": 28, "duration": 10, "velocity": 66}, {"time": 41039, "pitch": 36, "duration": 10, "velocity": 105}, {"time": 41039, "pitch": 42, "duration": 38, "velocity": 70}, {"time": 41279, "pitch": 40, "duration": 10, "velocity": 108}, {"time": 41279, "pitch": 42, "duration": 49, "velocity": 117}, {"time": 41519, "pitch": 36, "duration": 10, "velocity": 87}, {"time": 41519, "pitch": 42, "duration": 38, "velocity": 57}, {"time": 41679, "pitch": 28, "duration": 10, "velocity": 42}, {"time": 41759, "pitch": 36, "duration": 11, "velocity": 106}, {"time": 41759, "pitch": 42, "duration": 48, "velocity": 104}, {"time": 42000, "pitch": 36, "duration": 10, "velocity": 115}, {"time": 42000, "pitch": 42, "duration": 41, "velocity": 64}, {"time": 42240, "pitch": 40, "duration": 10, "velocity": 111}, {"time": 42240, "pitch": 42, "duration": 55, "velocity": 111}, {"time": 42480, "pitch": 36, "duration": 10, "velocity": 80}, {"time": 42480, "pitch": 42, "duration": 48, "velocity": 59}, {"time": 42480, "pitch": 69, "duration": 34, "velocity": 85}, {"time": 42640, "pitch": 28, "duration": 10, "velocity": 46}, {"time": 42640, "pitch": 82, "duration": 60, "velocity": 90}, {"time": 42720, "pitch": 36, "duration": 10, "velocity": 105}, {"time": 42720, "pitch": 42, "duration": 55, "velocity": 112}, {"time": 42880, "pitch": 28, "duration": 10, "velocity": 46}, {"time": 42961, "pitch": 36, "duration": 10, "velocity": 92}, {"time": 42961, "pitch": 42, "duration": 45, "velocity": 57}, {"time": 43201, "pitch": 40, "duration": 10, "velocity": 108}, {"time": 43201, "pitch": 42, "duration": 60, "velocity": 112}, {"time": 43441, "pitch": 36, "duration": 10, "velocity": 94}, {"time": 43441, "pitch": 42, "duration": 41, "velocity": 61}, {"time": 43601, "pitch": 28, "duration": 10, "velocity": 42}, {"time": 43681, "pitch": 36, "duration": 10, "velocity": 106}, {"time": 43681, "pitch": 42, "duration": 58, "velocity": 100}, {"time": 43921, "pitch": 36, "duration": 10, "velocity": 99}, {"time": 43921, "pitch": 42, "duration": 40, "velocity": 59}, {"time": 44162, "pitch": 40, "duration": 10, "velocity": 116}, {"time": 44162, "pitch": 42, "duration": 46, "velocity": 104}, {"time": 44402, "pitch": 36, "duration": 10, "velocity": 73}, {"time": 44402, "pitch": 42, "duration": 39, "velocity": 65}, {"time": 44562, "pitch": 28, "duration": 10, "velocity": 46}, {"time": 44642, "pitch": 36, "duration": 10, "velocity": 71}, {"time": 44642, "pitch": 42, "duration": 46, "velocity": 104}, {"time": 44642, "pitch": 69, "duration": 34, "velocity": 85}, {"time": 44802, "pitch": 28, "duration": 10, "velocity": 66}, {"time": 44802, "pitch": 82, "duration": 60, "velocity": 90}, {"time": 44882, "pitch": 36, "duration": 10, "velocity": 105}, {"time": 44882, "pitch": 42, "duration": 38, "velocity": 70}, {"time": 45122, "pitch": 40, "duration": 10, "velocity": 108}, {"time": 45122, "pitch": 42, "duration": 50, "velocity": 117}, {"time": 45363, "pitch": 36, "duration": 10, "velocity": 87}, {"time": 45363, "pitch": 42, "duration": 38, "velocity": 57}, {"time": 45523, "pitch": 28, "duration": 10, "velocity": 42}, {"time": 45603, "pitch": 36, "duration": 10, "velocity": 106}, {"time": 45603, "pitch": 42, "duration": 46, "velocity": 104}, {"time": 45840, "pitch": 36, "duration": 10, "velocity": 115}, {"time": 45840, "pitch": 42, "duration": 40, "velocity": 64}, {"time": 46077, "pitch": 40, "duration": 10, "velocity": 111}, {"time": 46077, "pitch": 42, "duration": 55, "velocity": 111}, {"time": 46317, "pitch": 36, "duration": 10, "velocity": 80}, {"time": 46317, "pitch": 42, "duration": 48, "velocity": 59}, {"time": 46477, "pitch": 28, "duration": 10, "velocity": 46}, {"time": 46557, "pitch": 36, "duration": 10, "velocity": 105}, {"time": 46557, "pitch": 42, "duration": 55, "velocity": 112}, {"time": 46717, "pitch": 28, "duration": 10, "velocity": 46}, {"time": 46797, "pitch": 36, "duration": 10, "velocity": 92}, {"time": 46797, "pitch": 42, "duration": 46, "velocity": 57}, {"time": 47038, "pitch": 40, "duration": 10, "velocity": 108}, {"time": 47038, "pitch": 42, "duration": 60, "velocity": 112}, {"time": 47198, "pitch": 48, "duration": 60, "velocity": 120}, {"time": 47278, "pitch": 36, "duration": 10, "velocity": 94}, {"time": 47278, "pitch": 41, "duration": 60, "velocity": 110}, {"time": 47278, "pitch": 42, "duration": 41, "velocity": 61}, {"time": 47278, "pitch": 69, "duration": 34, "velocity": 85}, {"time": 47438, "pitch": 28, "duration": 10, "velocity": 42}, {"time": 47438, "pitch": 38, "duration": 10, "velocity": 104}, {"time": 47438, "pitch": 82, "duration": 60, "velocity": 90}, {"time": 47518, "pitch": 36, "duration": 10, "velocity": 106}, {"time": 47518, "pitch": 42, "duration": 58, "velocity": 100}, {"time": 47518, "pitch": 57, "duration": 60, "velocity": 90}, {"time": 47758, "pitch": 36, "duration": 10, "velocity": 99}, {"time": 47758, "pitch": 42, "duration": 40, "velocity": 59}, {"time": 47758, "pitch": 69, "duration": 60, "velocity": 90}, {"time": 47918, "pitch": 82, "duration": 35, "velocity": 90}, {"time": 47999, "pitch": 40, "duration": 10, "velocity": 116}, {"time": 47999, "pitch": 42, "duration": 46, "velocity": 104}, {"time": 47999, "pitch": 54, "duration": 54, "velocity": 117}, {"time": 48239, "pitch": 36, "duration": 10, "velocity": 73}, {"time": 48239, "pitch": 42, "duration": 39, "velocity": 65}, {"time": 48399, "pitch": 28, "duration": 10, "velocity": 46}, {"time": 48479, "pitch": 36, "duration": 10, "velocity": 71}, {"time": 48479, "pitch": 42, "duration": 46, "velocity": 104}, {"time": 48639, "pitch": 28, "duration": 10, "velocity": 66}, {"time": 48719, "pitch": 36, "duration": 10, "velocity": 105}, {"time": 48719, "pitch": 42, "duration": 38, "velocity": 70}, {"time": 48959, "pitch": 40, "duration": 10, "velocity": 108}, {"time": 48959, "pitch": 42, "duration": 49, "velocity": 117}, {"time": 49200, "pitch": 36, "duration": 10, "velocity": 87}, {"time": 49200, "pitch": 42, "duration": 38, "velocity": 57}, {"time": 49360, "pitch": 28, "duration": 10, "velocity": 42}, {"time": 49440, "pitch": 36, "duration": 10, "velocity": 106}, {"time": 49440, "pitch": 42, "duration": 47, "velocity": 104}, {"time": 49680, "pitch": 36, "duration": 10, "velocity": 115}, {"time": 49680, "pitch": 42, "duration": 41, "velocity": 64}, {"time": 49920, "pitch": 40, "duration": 10, "velocity": 111}, {"time": 49920, "pitch": 42, "duration": 55, "velocity": 111}, {"time": 49920, "pitch": 54, "duration": 60, "velocity": 112}, {"time": 50160, "pitch": 36, "duration": 10, "velocity": 80}, {"time": 50160, "pitch": 42, "duration": 49, "velocity": 59}, {"time": 50160, "pitch": 69, "duration": 35, "velocity": 85}, {"time": 50321, "pitch": 28, "duration": 10, "velocity": 46}, {"time": 50321, "pitch": 82, "duration": 60, "velocity": 90}, {"time": 50401, "pitch": 36, "duration": 10, "velocity": 105}, {"time": 50401, "pitch": 42, "duration": 55, "velocity": 112}, {"time": 50561, "pitch": 28, "duration": 10, "velocity": 46}, {"time": 50641, "pitch": 36, "duration": 10, "velocity": 92}, {"time": 50641, "pitch": 42, "duration": 45, "velocity": 57}, {"time": 50881, "pitch": 39, "duration": 96, "velocity": 120}, {"time": 50881, "pitch": 40, "duration": 10, "velocity": 108}, {"time": 50881, "pitch": 42, "duration": 60, "velocity": 112}, {"time": 51121, "pitch": 36, "duration": 10, "velocity": 94}, {"time": 51121, "pitch": 42, "duration": 41, "velocity": 61}, {"time": 51281, "pitch": 28, "duration": 10, "velocity": 42}, {"time": 51362, "pitch": 36, "duration": 10, "velocity": 106}, {"time": 51362, "pitch": 42, "duration": 58, "velocity": 100}, {"time": 51602, "pitch": 36, "duration": 10, "velocity": 99}, {"time": 51602, "pitch": 42, "duration": 40, "velocity": 59}, {"time": 51842, "pitch": 40, "duration": 10, "velocity": 116}, {"time": 51842, "pitch": 42, "duration": 46, "velocity": 104}, {"time": 51842, "pitch": 54, "duration": 71, "velocity": 122}, {"time": 52082, "pitch": 36, "duration": 10, "velocity": 73}, {"time": 52082, "pitch": 42, "duration": 39, "velocity": 65}, {"time": 52242, "pitch": 28, "duration": 10, "velocity": 46}, {"time": 52322, "pitch": 36, "duration": 10, "velocity": 71}, {"time": 52322, "pitch": 42, "duration": 46, "velocity": 104}, {"time": 52322, "pitch": 69, "duration": 34, "velocity": 85}, {"time": 52483, "pitch": 28, "duration": 10, "velocity": 66}, {"time": 52483, "pitch": 82, "duration": 60, "velocity": 90}, {"time": 52563, "pitch": 36, "duration": 10, "velocity": 105}, {"time": 52563, "pitch": 42, "duration": 38, "velocity": 70}, {"time": 52803, "pitch": 40, "duration": 10, "velocity": 108}, {"time": 52803, "pitch": 42, "duration": 48, "velocity": 117}, {"time": 53040, "pitch": 36, "duration": 10, "velocity": 87}, {"time": 53040, "pitch": 42, "duration": 37, "velocity": 57}, {"time": 53198, "pitch": 28, "duration": 10, "velocity": 42}, {"time": 53277, "pitch": 36, "duration": 10, "velocity": 106}, {"time": 53277, "pitch": 42, "duration": 47, "velocity": 104}, {"time": 53517, "pitch": 36, "duration": 10, "velocity": 115}, {"time": 53517, "pitch": 42, "duration": 41, "velocity": 64}, {"time": 53757, "pitch": 40, "duration": 10, "velocity": 111}, {"time": 53757, "pitch": 42, "duration": 55, "velocity": 111}, {"time": 53757, "pitch": 54, "duration": 61, "velocity": 121}, {"time": 53997, "pitch": 36, "duration": 10, "velocity": 80}, {"time": 53997, "pitch": 42, "duration": 48, "velocity": 59}, {"time": 54158, "pitch": 28, "duration": 10, "velocity": 46}, {"time": 54238, "pitch": 36, "duration": 10, "velocity": 105}, {"time": 54238, "pitch": 42, "duration": 55, "velocity": 112}, {"time": 54398, "pitch": 28, "duration": 10, "velocity": 46}, {"time": 54478, "pitch": 36, "duration": 10, "velocity": 92}, {"time": 54478, "pitch": 42, "duration": 45, "velocity": 57}, {"time": 54718, "pitch": 39, "duration": 77, "velocity": 114}, {"time": 54718, "pitch": 40, "duration": 10, "velocity": 108}, {"time": 54718, "pitch": 42, "duration": 60, "velocity": 112}, {"time": 54958, "pitch": 36, "duration": 10, "velocity": 94}, {"time": 54958, "pitch": 42, "duration": 41, "velocity": 61}, {"time": 54958, "pitch": 69, "duration": 34, "velocity": 85}, {"time": 55118, "pitch": 28, "duration": 10, "velocity": 42}, {"time": 55118, "pitch": 82, "duration": 60, "velocity": 90}, {"time": 55198, "pitch": 36, "duration": 10, "velocity": 106}, {"time": 55198, "pitch": 42, "duration": 59, "velocity": 100}, {"time": 55439, "pitch": 36, "duration": 10, "velocity": 99}, {"time": 55439, "pitch": 42, "duration": 40, "velocity": 59}, {"time": 55439, "pitch": 69, "duration": 60, "velocity": 90}, {"time": 55599, "pitch": 82, "duration": 34, "velocity": 90}, {"time": 55679, "pitch": 40, "duration": 10, "velocity": 116}, {"time": 55679, "pitch": 42, "duration": 46, "velocity": 104}, {"time": 55679, "pitch": 54, "duration": 69, "velocity": 121}, {"time": 55919, "pitch": 36, "duration": 10, "velocity": 73}, {"time": 55919, "pitch": 42, "duration": 39, "velocity": 65}, {"time": 56079, "pitch": 28, "duration": 10, "velocity": 46}, {"time": 56159, "pitch": 36, "duration": 10, "velocity": 71}, {"time": 56159, "pitch": 42, "duration": 46, "velocity": 104}, {"time": 56319, "pitch": 28, "duration": 10, "velocity": 66}, {"time": 56400, "pitch": 36, "duration": 10, "velocity": 105}, {"time": 56400, "pitch": 42, "duration": 38, "velocity": 70}, {"time": 56640, "pitch": 40, "duration": 10, "velocity": 108}, {"time": 56640, "pitch": 42, "duration": 49, "velocity": 117}, {"time": 56880, "pitch": 36, "duration": 10, "velocity": 87}, {"time": 56880, "pitch": 42, "duration": 38, "velocity": 57}, {"time": 57040, "pitch": 28, "duration": 10, "velocity": 42}, {"time": 57120, "pitch": 36, "duration": 10, "velocity": 106}, {"time": 57120, "pitch": 42, "duration": 47, "velocity": 104}, {"time": 57360, "pitch": 36, "duration": 10, "velocity": 115}, {"time": 57360, "pitch": 42, "duration": 41, "velocity": 64}, {"time": 57601, "pitch": 40, "duration": 10, "velocity": 111}, {"time": 57601, "pitch": 42, "duration": 55, "velocity": 111}, {"time": 57601, "pitch": 54, "duration": 69, "velocity": 122}, {"time": 57841, "pitch": 36, "duration": 10, "velocity": 80}, {"time": 57841, "pitch": 42, "duration": 48, "velocity": 59}, {"time": 57841, "pitch": 69, "duration": 34, "velocity": 85}, {"time": 58001, "pitch": 28, "duration": 10, "velocity": 46}, {"time": 58001, "pitch": 82, "duration": 60, "velocity": 90}, {"time": 58081, "pitch": 36, "duration": 10, "velocity": 105}, {"time": 58081, "pitch": 42, "duration": 55, "velocity": 112}, {"time": 58241, "pitch": 28, "duration": 10, "velocity": 46}, {"time": 58321, "pitch": 36, "duration": 10, "velocity": 92}, {"time": 58321, "pitch": 42, "duration": 45, "velocity": 57}, {"time": 58561, "pitch": 39, "duration": 80, "velocity": 121}, {"time": 58561, "pitch": 40, "duration": 10, "velocity": 108}, {"time": 58561, "pitch": 42, "duration": 61, "velocity": 112}, {"time": 58802, "pitch": 36, "duration": 10, "velocity": 94}, {"time": 58802, "pitch": 42, "duration": 41, "velocity": 61}, {"time": 58962, "pitch": 28, "duration": 10, "velocity": 42}, {"time": 59042, "pitch": 36, "duration": 10, "velocity": 106}, {"time": 59042, "pitch": 42, "duration": 58, "velocity": 100}, {"time": 59282, "pitch": 36, "duration": 10, "velocity": 99}, {"time": 59282, "pitch": 42, "duration": 40, "velocity": 59}, {"time": 59522, "pitch": 40, "duration": 10, "velocity": 116}, {"time": 59522, "pitch": 42, "duration": 46, "velocity": 104}, {"time": 59522, "pitch": 54, "duration": 60, "velocity": 122}, {"time": 59763, "pitch": 36, "duration": 10, "velocity": 73}, {"time": 59763, "pitch": 42, "duration": 39, "velocity": 65}, {"time": 59923, "pitch": 28, "duration": 10, "velocity": 46}, {"time": 60003, "pitch": 36, "duration": 10, "velocity": 71}, {"time": 60003, "pitch": 42, "duration": 46, "velocity": 104}, {"time": 60003, "pitch": 69, "duration": 34, "velocity": 85}, {"time": 60163, "pitch": 28, "duration": 10, "velocity": 66}, {"time": 60163, "pitch": 82, "duration": 60, "velocity": 90}, {"time": 60243, "pitch": 36, "duration": 10, "velocity": 105}, {"time": 60243, "pitch": 42, "duration": 38, "velocity": 70}, {"time": 60483, "pitch": 40, "duration": 10, "velocity": 108}, {"time": 60483, "pitch": 42, "duration": 49, "velocity": 117}, {"time": 60720, "pitch": 36, "duration": 10, "velocity": 87}, {"time": 60720, "pitch": 42, "duration": 38, "velocity": 57}, {"time": 60878, "pitch": 28, "duration": 10, "velocity": 42}, {"time": 60957, "pitch": 36, "duration": 10, "velocity": 106}, {"time": 60957, "pitch": 42, "duration": 47, "velocity": 104}, {"time": 61197, "pitch": 36, "duration": 10, "velocity": 115}, {"time": 61197, "pitch": 42, "duration": 41, "velocity": 64}, {"time": 61438, "pitch": 40, "duration": 10, "velocity": 111}, {"time": 61438, "pitch": 42, "duration": 55, "velocity": 111}, {"time": 61438, "pitch": 54, "duration": 74, "velocity": 121}, {"time": 61678, "pitch": 36, "duration": 10, "velocity": 80}, {"time": 61678, "pitch": 42, "duration": 48, "velocity": 59}, {"time": 61838, "pitch": 28, "duration": 10, "velocity": 46}, {"time": 61918, "pitch": 36, "duration": 10, "velocity": 105}, {"time": 61918, "pitch": 42, "duration": 55, "velocity": 112}, {"time": 62078, "pitch": 28, "duration": 10, "velocity": 46}, {"time": 62158, "pitch": 36, "duration": 10, "velocity": 92}, {"time": 62158, "pitch": 42, "duration": 45, "velocity": 57}, {"time": 62398, "pitch": 38, "duration": 10, "velocity": 114}, {"time": 62398, "pitch": 39, "duration": 102, "velocity": 121}, {"time": 62398, "pitch": 40, "duration": 10, "velocity": 108}, {"time": 62398, "pitch": 42, "duration": 60, "velocity": 112}, {"time": 62559, "pitch": 38, "duration": 10, "velocity": 84}, {"time": 62639, "pitch": 36, "duration": 10, "velocity": 94}, {"time": 62639, "pitch": 42, "duration": 41, "velocity": 61}, {"time": 62639, "pitch": 45, "duration": 60, "velocity": 110}, {"time": 62639, "pitch": 69, "duration": 34, "velocity": 85}, {"time": 62799, "pitch": 28, "duration": 10, "velocity": 42}, {"time": 62799, "pitch": 82, "duration": 60, "velocity": 90}, {"time": 62879, "pitch": 36, "duration": 10, "velocity": 106}, {"time": 62879, "pitch": 42, "duration": 58, "velocity": 100}, {"time": 63119, "pitch": 36, "duration": 10, "velocity": 99}, {"time": 63119, "pitch": 42, "duration": 40, "velocity": 59}, {"time": 63119, "pitch": 69, "duration": 60, "velocity": 90}, {"time": 63279, "pitch": 82, "duration": 34, "velocity": 90}, {"time": 63359, "pitch": 40, "duration": 10, "velocity": 116}, {"time": 63359, "pitch": 42, "duration": 46, "velocity": 104}, {"time": 63359, "pitch": 54, "duration": 54, "velocity": 117}, {"time": 63599, "pitch": 36, "duration": 10, "velocity": 73}, {"time": 63599, "pitch": 42, "duration": 39, "velocity": 65}, {"time": 63760, "pitch": 28, "duration": 10, "velocity": 46}, {"time": 63840, "pitch": 36, "duration": 10, "velocity": 71}, {"time": 63840, "pitch": 42, "duration": 46, "velocity": 104}, {"time": 64000, "pitch": 28, "duration": 10, "velocity": 66}, {"time": 64080, "pitch": 36, "duration": 10, "velocity": 105}, {"time": 64080, "pitch": 42, "duration": 38, "velocity": 70}, {"time": 64320, "pitch": 40, "duration": 10, "velocity": 108}, {"time": 64320, "pitch": 42, "duration": 49, "velocity": 117}, {"time": 64560, "pitch": 36, "duration": 10, "velocity": 87}, {"time": 64560, "pitch": 42, "duration": 38, "velocity": 57}, {"time": 64720, "pitch": 28, "duration": 10, "velocity": 42}, {"time": 64801, "pitch": 36, "duration": 10, "velocity": 106}, {"time": 64801, "pitch": 42, "duration": 47, "velocity": 104}, {"time": 64801, "pitch": 57, "duration": 60, "velocity": 90}, {"time": 64961, "pitch": 48, "duration": 60, "velocity": 110}, {"time": 65041, "pitch": 36, "duration": 10, "velocity": 115}, {"time": 65041, "pitch": 42, "duration": 41, "velocity": 64}, {"time": 65281, "pitch": 38, "duration": 10, "velocity": 114}, {"time": 65281, "pitch": 40, "duration": 10, "velocity": 111}, {"time": 65281, "pitch": 42, "duration": 55, "velocity": 111}, {"time": 65281, "pitch": 54, "duration": 60, "velocity": 112}, {"time": 65441, "pitch": 38, "duration": 10, "velocity": 84}, {"time": 65521, "pitch": 36, "duration": 10, "velocity": 80}, {"time": 65521, "pitch": 42, "duration": 48, "velocity": 59}, {"time": 65521, "pitch": 69, "duration": 34, "velocity": 85}, {"time": 65681, "pitch": 28, "duration": 10, "velocity": 46}, {"time": 65681, "pitch": 48, "duration": 60, "velocity": 110}, {"time": 65681, "pitch": 82, "duration": 60, "velocity": 90}, {"time": 65761, "pitch": 36, "duration": 10, "velocity": 105}, {"time": 65761, "pitch": 42, "duration": 55, "velocity": 112}, {"time": 65922, "pitch": 28, "duration": 10, "velocity": 46}, {"time": 66002, "pitch": 36, "duration": 10, "velocity": 92}, {"time": 66002, "pitch": 42, "duration": 45, "velocity": 57}, {"time": 66242, "pitch": 39, "duration": 96, "velocity": 120}, {"time": 66242, "pitch": 40, "duration": 10, "velocity": 108}, {"time": 66242, "pitch": 42, "duration": 60, "velocity": 112}, {"time": 66242, "pitch": 45, "duration": 60, "velocity": 110}, {"time": 66482, "pitch": 36, "duration": 10, "velocity": 94}, {"time": 66482, "pitch": 41, "duration": 60, "velocity": 110}, {"time": 66482, "pitch": 42, "duration": 41, "velocity": 61}, {"time": 66642, "pitch": 28, "duration": 10, "velocity": 42}, {"time": 66722, "pitch": 28, "duration": 10, "velocity": 94}, {"time": 66722, "pitch": 48, "duration": 189, "velocity": 120}, {"time": 66842, "pitch": 28, "duration": 10, "velocity": 58}, {"time": 66902, "pitch": 28, "duration": 10, "velocity": 49}, {"time": 66962, "pitch": 28, "duration": 10, "velocity": 99}, {"time": 66962, "pitch": 36, "duration": 10, "velocity": 99}, {"time": 66962, "pitch": 45, "duration": 117, "velocity": 120}, {"time": 67043, "pitch": 28, "duration": 10, "velocity": 68}, {"time": 67083, "pitch": 28, "duration": 10, "velocity": 58}, {"time": 67143, "pitch": 28, "duration": 10, "velocity": 49}, {"time": 67203, "pitch": 28, "duration": 10, "velocity": 86}, {"time": 67203, "pitch": 36, "duration": 10, "velocity": 109}, {"time": 67203, "pitch": 41, "duration": 139, "velocity": 120}, {"time": 67920, "pitch": 36, "duration": 10, "velocity": 108}, {"time": 67920, "pitch": 57, "duration": 59, "velocity": 90}, {"time": 69899, "pitch": 38, "duration": 10, "velocity": 59}, {"time": 69959, "pitch": 38, "duration": 10, "velocity": 78}, {"time": 70019, "pitch": 38, "duration": 10, "velocity": 99}, {"time": 70079, "pitch": 45, "duration": 116, "velocity": 107}, {"time": 70079, "pitch": 51, "duration": 116, "velocity": 107}, {"time": 70479, "pitch": 38, "duration": 10, "velocity": 78}, {"time": 70559, "pitch": 36, "duration": 10, "velocity": 106}, {"time": 70559, "pitch": 42, "duration": 58, "velocity": 100}, {"time": 70799, "pitch": 36, "duration": 10, "velocity": 99}, {"time": 70799, "pitch": 42, "duration": 40, "velocity": 59}, {"time": 70799, "pitch": 69, "duration": 60, "velocity": 90}, {"time": 70960, "pitch": 82, "duration": 34, "velocity": 90}, {"time": 71040, "pitch": 40, "duration": 10, "velocity": 116}, {"time": 71040, "pitch": 42, "duration": 46, "velocity": 104}, {"time": 71280, "pitch": 36, "duration": 10, "velocity": 73}, {"time": 71280, "pitch": 42, "duration": 39, "velocity": 65}, {"time": 71440, "pitch": 28, "duration": 10, "velocity": 46}, {"time": 71520, "pitch": 36, "duration": 10, "velocity": 71}, {"time": 71520, "pitch": 42, "duration": 46, "velocity": 104}, {"time": 71680, "pitch": 28, "duration": 10, "velocity": 66}, {"time": 71760, "pitch": 36, "duration": 10, "velocity": 105}, {"time": 71760, "pitch": 42, "duration": 38, "velocity": 70}, {"time": 72000, "pitch": 40, "duration": 10, "velocity": 108}, {"time": 72000, "pitch": 42, "duration": 49, "velocity": 117}, {"time": 72241, "pitch": 36, "duration": 10, "velocity": 87}, {"time": 72241, "pitch": 42, "duration": 38, "velocity": 57}, {"time": 72401, "pitch": 28, "duration": 10, "velocity": 42}, {"time": 72481, "pitch": 36, "duration": 10, "velocity": 106}, {"time": 72481, "pitch": 42, "duration": 47, "velocity": 104}, {"time": 72721, "pitch": 36, "duration": 10, "velocity": 115}, {"time": 72721, "pitch": 42, "duration": 41, "velocity": 64}, {"time": 72961, "pitch": 40, "duration": 10, "velocity": 111}, {"time": 72961, "pitch": 42, "duration": 55, "velocity": 111}, {"time": 73202, "pitch": 36, "duration": 10, "velocity": 80}, {"time": 73202, "pitch": 42, "duration": 48, "velocity": 59}, {"time": 73202, "pitch": 69, "duration": 34, "velocity": 85}, {"time": 73362, "pitch": 28, "duration": 10, "velocity": 46}, {"time": 73362, "pitch": 82, "duration": 60, "velocity": 90}, {"time": 73442, "pitch": 36, "duration": 10, "velocity": 105}, {"time": 73442, "pitch": 42, "duration": 55, "velocity": 112}, {"time": 73602, "pitch": 28, "duration": 10, "velocity": 46}, {"time": 73682, "pitch": 36, "duration": 10, "velocity": 92}, {"time": 73682, "pitch": 42, "duration": 45, "velocity": 57}, {"time": 73922, "pitch": 40, "duration": 10, "velocity": 108}, {"time": 73922, "pitch": 42, "duration": 60, "velocity": 112}, {"time": 74162, "pitch": 36, "duration": 10, "velocity": 94}, {"time": 74162, "pitch": 42, "duration": 41, "velocity": 61}, {"time": 74323, "pitch": 28, "duration": 10, "velocity": 42}, {"time": 74403, "pitch": 36, "duration": 10, "velocity": 106}, {"time": 74403, "pitch": 42, "duration": 58, "velocity": 100}, {"time": 74643, "pitch": 36, "duration": 10, "velocity": 99}, {"time": 74643, "pitch": 42, "duration": 40, "velocity": 59}, {"time": 74883, "pitch": 40, "duration": 10, "velocity": 116}, {"time": 74883, "pitch": 42, "duration": 45, "velocity": 104}, {"time": 75120, "pitch": 36, "duration": 10, "velocity": 73}, {"time": 75120, "pitch": 42, "duration": 38, "velocity": 65}, {"time": 75278, "pitch": 28, "duration": 10, "velocity": 46}, {"time": 75357, "pitch": 36, "duration": 10, "velocity": 71}, {"time": 75357, "pitch": 42, "duration": 46, "velocity": 104}, {"time": 75357, "pitch": 69, "duration": 34, "velocity": 85}, {"time": 75517, "pitch": 28, "duration": 10, "velocity": 66}, {"time": 75517, "pitch": 82, "duration": 60, "velocity": 90}, {"time": 75597, "pitch": 36, "duration": 10, "velocity": 105}, {"time": 75597, "pitch": 42, "duration": 38, "velocity": 70}, {"time": 75837, "pitch": 40, "duration": 10, "velocity": 108}, {"time": 75837, "pitch": 42, "duration": 49, "velocity": 117}, {"time": 76078, "pitch": 36, "duration": 10, "velocity": 87}, {"time": 76078, "pitch": 42, "duration": 38, "velocity": 57}, {"time": 76238, "pitch": 28, "duration": 10, "velocity": 42}, {"time": 76318, "pitch": 36, "duration": 10, "velocity": 106}, {"time": 76318, "pitch": 42, "duration": 47, "velocity": 104}, {"time": 76558, "pitch": 36, "duration": 10, "velocity": 115}, {"time": 76558, "pitch": 42, "duration": 41, "velocity": 64}, {"time": 76798, "pitch": 40, "duration": 10, "velocity": 111}, {"time": 76798, "pitch": 42, "duration": 55, "velocity": 111}, {"time": 77038, "pitch": 36, "duration": 10, "velocity": 80}, {"time": 77038, "pitch": 42, "duration": 48, "velocity": 59}, {"time": 77199, "pitch": 28, "duration": 10, "velocity": 46}, {"time": 77279, "pitch": 36, "duration": 10, "velocity": 105}, {"time": 77279, "pitch": 42, "duration": 55, "velocity": 112}, {"time": 77439, "pitch": 28, "duration": 10, "velocity": 46}, {"time": 77519, "pitch": 36, "duration": 10, "velocity": 92}, {"time": 77519, "pitch": 42, "duration": 45, "velocity": 57}, {"time": 77759, "pitch": 40, "duration": 10, "velocity": 108}, {"time": 77759, "pitch": 42, "duration": 60, "velocity": 112}, {"time": 77999, "pitch": 36, "duration": 10, "velocity": 94}, {"time": 77999, "pitch": 42, "duration": 41, "velocity": 61}, {"time": 77999, "pitch": 69, "duration": 34, "velocity": 85}, {"time": 78159, "pitch": 28, "duration": 10, "velocity": 42}, {"time": 78159, "pitch": 82, "duration": 60, "velocity": 90}, {"time": 78239, "pitch": 36, "duration": 11, "velocity": 106}, {"time": 78239, "pitch": 42, "duration": 59, "velocity": 100}, {"time": 78480, "pitch": 36, "duration": 10, "velocity": 99}, {"time": 78480, "pitch": 42, "duration": 40, "velocity": 59}, {"time": 78480, "pitch": 69, "duration": 60, "velocity": 90}, {"time": 78640, "pitch": 82, "duration": 34, "velocity": 90}, {"time": 78720, "pitch": 40, "duration": 10, "velocity": 116}, {"time": 78720, "pitch": 42, "duration": 46, "velocity": 104}, {"time": 78960, "pitch": 36, "duration": 10, "velocity": 73}, {"time": 78960, "pitch": 42, "duration": 39, "velocity": 65}, {"time": 79120, "pitch": 28, "duration": 10, "velocity": 46}, {"time": 79200, "pitch": 36, "duration": 10, "velocity": 71}, {"time": 79200, "pitch": 42, "duration": 46, "velocity": 104}, {"time": 79360, "pitch": 28, "duration": 11, "velocity": 66}, {"time": 79441, "pitch": 36, "duration": 10, "velocity": 105}, {"time": 79441, "pitch": 42, "duration": 38, "velocity": 70}, {"time": 79681, "pitch": 40, "duration": 10, "velocity": 108}, {"time": 79681, "pitch": 42, "duration": 49, "velocity": 117}, {"time": 79921, "pitch": 36, "duration": 10, "velocity": 87}, {"time": 79921, "pitch": 42, "duration": 38, "velocity": 57}, {"time": 80081, "pitch": 28, "duration": 10, "velocity": 42}, {"time": 80161, "pitch": 36, "duration": 10, "velocity": 106}, {"time": 80161, "pitch": 42, "duration": 47, "velocity": 104}, {"time": 80401, "pitch": 36, "duration": 10, "velocity": 115}, {"time": 80401, "pitch": 42, "duration": 41, "velocity": 64}, {"time": 80642, "pitch": 40, "duration": 10, "velocity": 111}, {"time": 80642, "pitch": 42, "duration": 55, "velocity": 111}, {"time": 80882, "pitch": 36, "duration": 10, "velocity": 80}, {"time": 80882, "pitch": 42, "duration": 48, "velocity": 59}, {"time": 80882, "pitch": 69, "duration": 34, "velocity": 85}, {"time": 81042, "pitch": 28, "duration": 10, "velocity": 46}, {"time": 81042, "pitch": 82, "duration": 60, "velocity": 90}, {"time": 81122, "pitch": 36, "duration": 10, "velocity": 105}, {"time": 81122, "pitch": 42, "duration": 55, "velocity": 112}, {"time": 81282, "pitch": 28, "duration": 10, "velocity": 46}, {"time": 81362, "pitch": 36, "duration": 10, "velocity": 92}, {"time": 81362, "pitch": 42, "duration": 45, "velocity": 57}, {"time": 81602, "pitch": 40, "duration": 10, "velocity": 108}, {"time": 81602, "pitch": 42, "duration": 61, "velocity": 112}, {"time": 81843, "pitch": 36, "duration": 10, "velocity": 94}, {"time": 81843, "pitch": 42, "duration": 41, "velocity": 61}, {"time": 82003, "pitch": 28, "duration": 10, "velocity": 42}, {"time": 82083, "pitch": 36, "duration": 10, "velocity": 106}, {"time": 82083, "pitch": 42, "duration": 57, "velocity": 100}, {"time": 82320, "pitch": 36, "duration": 10, "velocity": 99}, {"time": 82320, "pitch": 42, "duration": 39, "velocity": 59}, {"time": 82557, "pitch": 40, "duration": 10, "velocity": 116}, {"time": 82557, "pitch": 42, "duration": 46, "velocity": 104}, {"time": 82797, "pitch": 36, "duration": 10, "velocity": 73}, {"time": 82797, "pitch": 42, "duration": 39, "velocity": 65}, {"time": 82957, "pitch": 28, "duration": 10, "velocity": 46}, {"time": 83037, "pitch": 36, "duration": 10, "velocity": 71}, {"time": 83037, "pitch": 42, "duration": 46, "velocity": 104}, {"time": 83037, "pitch": 69, "duration": 34, "velocity": 85}, {"time": 83197, "pitch": 28, "duration": 10, "velocity": 66}, {"time": 83197, "pitch": 82, "duration": 60, "velocity": 90}, {"time": 83277, "pitch": 36, "duration": 11, "velocity": 105}, {"time": 83277, "pitch": 42, "duration": 39, "velocity": 70}, {"time": 83518, "pitch": 40, "duration": 10, "velocity": 108}, {"time": 83518, "pitch": 42, "duration": 49, "velocity": 117}, {"time": 83758, "pitch": 36, "duration": 10, "velocity": 87}, {"time": 83758, "pitch": 42, "duration": 38, "velocity": 57}, {"time": 83918, "pitch": 28, "duration": 10, "velocity": 42}, {"time": 83998, "pitch": 36, "duration": 10, "velocity": 106}, {"time": 83998, "pitch": 42, "duration": 47, "velocity": 104}, {"time": 84238, "pitch": 36, "duration": 10, "velocity": 115}, {"time": 84238, "pitch": 42, "duration": 41, "velocity": 64}, {"time": 84479, "pitch": 40, "duration": 10, "velocity": 111}, {"time": 84479, "pitch": 42, "duration": 55, "velocity": 111}, {"time": 84719, "pitch": 36, "duration": 10, "velocity": 80}, {"time": 84719, "pitch": 42, "duration": 48, "velocity": 59}, {"time": 84879, "pitch": 28, "duration": 10, "velocity": 46}, {"time": 84959, "pitch": 36, "duration": 10, "velocity": 105}, {"time": 84959, "pitch": 42, "duration": 55, "velocity": 112}, {"time": 85119, "pitch": 28, "duration": 10, "velocity": 46}, {"time": 85199, "pitch": 36, "duration": 10, "velocity": 92}, {"time": 85199, "pitch": 42, "duration": 45, "velocity": 57}, {"time": 85439, "pitch": 38, "duration": 10, "velocity": 114}, {"time": 85439, "pitch": 40, "duration": 10, "velocity": 108}, {"time": 85439, "pitch": 42, "duration": 60, "velocity": 112}, {"time": 85600, "pitch": 38, "duration": 10, "velocity": 84}, {"time": 85680, "pitch": 36, "duration": 10, "velocity": 94}, {"time": 85680, "pitch": 42, "duration": 41, "velocity": 61}, {"time": 85680, "pitch": 45, "duration": 60, "velocity": 110}, {"time": 85680, "pitch": 69, "duration": 34, "velocity": 85}, {"time": 85840, "pitch": 28, "duration": 10, "velocity": 42}, {"time": 85840, "pitch": 82, "duration": 60, "velocity": 90}, {"time": 85920, "pitch": 36, "duration": 10, "velocity": 106}, {"time": 85920, "pitch": 42, "duration": 58, "velocity": 100}, {"time": 85920, "pitch": 57, "duration": 60, "velocity": 90}, {"time": 86160, "pitch": 36, "duration": 10, "velocity": 99}, {"time": 86160, "pitch": 42, "duration": 40, "velocity": 59}, {"time": 86160, "pitch": 69, "duration": 60, "velocity": 90}, {"time": 86320, "pitch": 82, "duration": 34, "velocity": 90}, {"time": 86400, "pitch": 40, "duration": 10, "velocity": 116}, {"time": 86400, "pitch": 42, "duration": 46, "velocity": 104}, {"time": 86400, "pitch": 54, "duration": 54, "velocity": 117}, {"time": 86640, "pitch": 36, "duration": 10, "velocity": 73}, {"time": 86640, "pitch": 42, "duration": 40, "velocity": 65}, {"time": 86801, "pitch": 28, "duration": 10, "velocity": 46}, {"time": 86881, "pitch": 36, "duration": 10, "velocity": 71}, {"time": 86881, "pitch": 42, "duration": 46, "velocity": 104}, {"time": 87041, "pitch": 28, "duration": 10, "velocity": 66}, {"time": 87121, "pitch": 36, "duration": 10, "velocity": 105}, {"time": 87121, "pitch": 42, "duration": 38, "velocity": 70}, {"time": 87361, "pitch": 40, "duration": 10, "velocity": 108}, {"time": 87361, "pitch": 42, "duration": 49, "velocity": 117}, {"time": 87601, "pitch": 36, "duration": 10, "velocity": 87}, {"time": 87601, "pitch": 42, "duration": 38, "velocity": 57}, {"time": 87761, "pitch": 28, "duration": 10, "velocity": 42}, {"time": 87842, "pitch": 36, "duration": 10, "velocity": 106}, {"time": 87842, "pitch": 42, "duration": 47, "velocity": 104}, {"time": 88082, "pitch": 36, "duration": 10, "velocity": 115}, {"time": 88082, "pitch": 42, "duration": 41, "velocity": 64}, {"time": 88322, "pitch": 40, "duration": 10, "velocity": 111}, {"time": 88322, "pitch": 42, "duration": 55, "velocity": 111}, {"time": 88322, "pitch": 54, "duration": 60, "velocity": 112}, {"time": 88562, "pitch": 36, "duration": 10, "velocity": 80}, {"time": 88562, "pitch": 42, "duration": 48, "velocity": 59}, {"time": 88562, "pitch": 69, "duration": 34, "velocity": 85}, {"time": 88722, "pitch": 28, "duration": 10, "velocity": 46}, {"time": 88722, "pitch": 82, "duration": 60, "velocity": 90}, {"time": 88802, "pitch": 36, "duration": 10, "velocity": 105}, {"time": 88802, "pitch": 42, "duration": 55, "velocity": 112}, {"time": 88963, "pitch": 28, "duration": 10, "velocity": 46}, {"time": 89043, "pitch": 36, "duration": 10, "velocity": 92}, {"time": 89043, "pitch": 42, "duration": 45, "velocity": 57}, {"time": 89283, "pitch": 39, "duration": 95, "velocity": 120}, {"time": 89283, "pitch": 40, "duration": 10, "velocity": 108}, {"time": 89283, "pitch": 42, "duration": 59, "velocity": 112}, {"time": 89520, "pitch": 36, "duration": 10, "velocity": 94}, {"time": 89520, "pitch": 42, "duration": 40, "velocity": 61}, {"time": 89678, "pitch": 28, "duration": 10, "velocity": 42}, {"time": 89757, "pitch": 36, "duration": 10, "velocity": 106}, {"time": 89757, "pitch": 42, "duration": 58, "velocity": 100}, {"time": 89997, "pitch": 36, "duration": 10, "velocity": 99}, {"time": 89997, "pitch": 42, "duration": 40, "velocity": 59}, {"time": 90237, "pitch": 40, "duration": 10, "velocity": 116}, {"time": 90237, "pitch": 42, "duration": 46, "velocity": 104}, {"time": 90237, "pitch": 54, "duration": 71, "velocity": 122}, {"time": 90477, "pitch": 36, "duration": 10, "velocity": 73}, {"time": 90477, "pitch": 42, "duration": 39, "velocity": 65}, {"time": 90638, "pitch": 28, "duration": 10, "velocity": 46}, {"time": 90718, "pitch": 36, "duration": 10, "velocity": 71}, {"time": 90718, "pitch": 42, "duration": 46, "velocity": 104}, {"time": 90718, "pitch": 69, "duration": 34, "velocity": 85}, {"time": 90878, "pitch": 28, "duration": 10, "velocity": 66}, {"time": 90878, "pitch": 82, "duration": 60, "velocity": 90}, {"time": 90958, "pitch": 36, "duration": 10, "velocity": 105}, {"time": 90958, "pitch": 42, "duration": 38, "velocity": 70}, {"time": 91198, "pitch": 40, "duration": 10, "velocity": 108}, {"time": 91198, "pitch": 42, "duration": 49, "velocity": 117}, {"time": 91438, "pitch": 36, "duration": 10, "velocity": 87}, {"time": 91438, "pitch": 42, "duration": 38, "velocity": 57}, {"time": 91598, "pitch": 28, "duration": 10, "velocity": 42}, {"time": 91678, "pitch": 36, "duration": 10, "velocity": 106}, {"time": 91678, "pitch": 42, "duration": 48, "velocity": 104}, {"time": 91919, "pitch": 36, "duration": 10, "velocity": 115}, {"time": 91919, "pitch": 42, "duration": 41, "velocity": 64}, {"time": 92159, "pitch": 40, "duration": 10, "velocity": 111}, {"time": 92159, "pitch": 42, "duration": 55, "velocity": 111}, {"time": 92159, "pitch": 54, "duration": 61, "velocity": 121}, {"time": 92399, "pitch": 36, "duration": 10, "velocity": 80}, {"time": 92399, "pitch": 42, "duration": 48, "velocity": 59}, {"time": 92559, "pitch": 28, "duration": 10, "velocity": 46}, {"time": 92639, "pitch": 36, "duration": 10, "velocity": 105}, {"time": 92639, "pitch": 42, "duration": 55, "velocity": 112}, {"time": 92799, "pitch": 28, "duration": 10, "velocity": 46}, {"time": 92880, "pitch": 36, "duration": 10, "velocity": 92}, {"time": 92880, "pitch": 42, "duration": 45, "velocity": 57}, {"time": 93120, "pitch": 38, "duration": 10, "velocity": 114}, {"time": 93120, "pitch": 39, "duration": 77, "velocity": 114}, {"time": 93120, "pitch": 40, "duration": 10, "velocity": 108}, {"time": 93120, "pitch": 42, "duration": 60, "velocity": 112}, {"time": 93280, "pitch": 38, "duration": 10, "velocity": 84}, {"time": 93360, "pitch": 36, "duration": 10, "velocity": 94}, {"time": 93360, "pitch": 42, "duration": 41, "velocity": 61}, {"time": 93360, "pitch": 69, "duration": 34, "velocity": 85}, {"time": 93520, "pitch": 28, "duration": 10, "velocity": 42}, {"time": 93520, "pitch": 82, "duration": 60, "velocity": 90}, {"time": 93600, "pitch": 36, "duration": 10, "velocity": 106}, {"time": 93600, "pitch": 42, "duration": 58, "velocity": 100}, {"time": 93600, "pitch": 57, "duration": 60, "velocity": 90}, {"time": 93840, "pitch": 36, "duration": 10, "velocity": 99}, {"time": 93840, "pitch": 42, "duration": 40, "velocity": 59}, {"time": 93840, "pitch": 69, "duration": 60, "velocity": 90}, {"time": 94001, "pitch": 82, "duration": 34, "velocity": 90}, {"time": 94081, "pitch": 40, "duration": 10, "velocity": 116}, {"time": 94081, "pitch": 42, "duration": 46, "velocity": 104}, {"time": 94081, "pitch": 54, "duration": 69, "velocity": 121}, {"time": 94321, "pitch": 36, "duration": 10, "velocity": 73}, {"time": 94321, "pitch": 42, "duration": 39, "velocity": 65}, {"time": 94481, "pitch": 28, "duration": 10, "velocity": 46}, {"time": 94561, "pitch": 36, "duration": 10, "velocity": 71}, {"time": 94561, "pitch": 42, "duration": 46, "velocity": 104}, {"time": 94721, "pitch": 28, "duration": 10, "velocity": 66}, {"time": 94801, "pitch": 36, "duration": 10, "velocity": 105}, {"time": 94801, "pitch": 42, "duration": 38, "velocity": 70}, {"time": 95041, "pitch": 40, "duration": 10, "velocity": 108}, {"time": 95041, "pitch": 42, "duration": 50, "velocity": 117}, {"time": 95282, "pitch": 36, "duration": 10, "velocity": 87}, {"time": 95282, "pitch": 42, "duration": 38, "velocity": 57}, {"time": 95442, "pitch": 28, "duration": 10, "velocity": 42}, {"time": 95522, "pitch": 36, "duration": 10, "velocity": 106}, {"time": 95522, "pitch": 42, "duration": 47, "velocity": 104}, {"time": 95762, "pitch": 36, "duration": 10, "velocity": 115}, {"time": 95762, "pitch": 42, "duration": 41, "velocity": 64}, {"time": 96002, "pitch": 40, "duration": 10, "velocity": 111}, {"time": 96002, "pitch": 42, "duration": 55, "velocity": 111}, {"time": 96002, "pitch": 54, "duration": 69, "velocity": 122}, {"time": 96243, "pitch": 36, "duration": 10, "velocity": 80}, {"time": 96243, "pitch": 42, "duration": 48, "velocity": 59}, {"time": 96243, "pitch": 69, "duration": 34, "velocity": 85}, {"time": 96403, "pitch": 28, "duration": 10, "velocity": 46}, {"time": 96403, "pitch": 82, "duration": 60, "velocity": 90}, {"time": 96483, "pitch": 36, "duration": 10, "velocity": 105}, {"time": 96483, "pitch": 42, "duration": 55, "velocity": 112}, {"time": 96643, "pitch": 28, "duration": 10, "velocity": 46}, {"time": 96723, "pitch": 36, "duration": 10, "velocity": 92}, {"time": 96723, "pitch": 42, "duration": 45, "velocity": 57}, {"time": 96963, "pitch": 39, "duration": 78, "velocity": 121}, {"time": 96963, "pitch": 40, "duration": 10, "velocity": 108}, {"time": 96963, "pitch": 42, "duration": 59, "velocity": 112}, {"time": 97200, "pitch": 36, "duration": 10, "velocity": 94}, {"time": 97200, "pitch": 42, "duration": 41, "velocity": 61}, {"time": 97358, "pitch": 28, "duration": 10, "velocity": 42}, {"time": 97437, "pitch": 36, "duration": 10, "velocity": 106}, {"time": 97437, "pitch": 42, "duration": 58, "velocity": 100}, {"time": 97677, "pitch": 36, "duration": 10, "velocity": 99}, {"time": 97677, "pitch": 42, "duration": 40, "velocity": 59}, {"time": 97918, "pitch": 40, "duration": 10, "velocity": 116}, {"time": 97918, "pitch": 42, "duration": 46, "velocity": 104}, {"time": 97918, "pitch": 54, "duration": 60, "velocity": 122}, {"time": 98158, "pitch": 36, "duration": 10, "velocity": 73}, {"time": 98158, "pitch": 42, "duration": 39, "velocity": 65}, {"time": 98318, "pitch": 28, "duration": 10, "velocity": 46}, {"time": 98398, "pitch": 36, "duration": 10, "velocity": 71}, {"time": 98398, "pitch": 42, "duration": 46, "velocity": 104}, {"time": 98398, "pitch": 69, "duration": 34, "velocity": 85}, {"time": 98558, "pitch": 28, "duration": 10, "velocity": 66}, {"time": 98558, "pitch": 82, "duration": 60, "velocity": 90}, {"time": 98638, "pitch": 36, "duration": 10, "velocity": 105}, {"time": 98638, "pitch": 42, "duration": 38, "velocity": 70}, {"time": 98878, "pitch": 40, "duration": 10, "velocity": 108}, {"time": 98878, "pitch": 42, "duration": 49, "velocity": 117}, {"time": 99119, "pitch": 36, "duration": 10, "velocity": 87}, {"time": 99119, "pitch": 42, "duration": 38, "velocity": 57}, {"time": 99279, "pitch": 28, "duration": 10, "velocity": 42}, {"time": 99359, "pitch": 36, "duration": 10, "velocity": 106}, {"time": 99359, "pitch": 42, "duration": 47, "velocity": 104}, {"time": 99599, "pitch": 36, "duration": 10, "velocity": 115}, {"time": 99599, "pitch": 42, "duration": 41, "velocity": 64}, {"time": 99839, "pitch": 40, "duration": 10, "velocity": 111}, {"time": 99839, "pitch": 42, "duration": 55, "velocity": 111}, {"time": 99839, "pitch": 54, "duration": 74, "velocity": 121}, {"time": 100079, "pitch": 36, "duration": 10, "velocity": 80}, {"time": 100079, "pitch": 42, "duration": 49, "velocity": 59}, {"time": 100240, "pitch": 28, "duration": 10, "velocity": 46}, {"time": 100320, "pitch": 36, "duration": 10, "velocity": 105}, {"time": 100320, "pitch": 42, "duration": 55, "velocity": 112}, {"time": 100480, "pitch": 28, "duration": 10, "velocity": 46}, {"time": 100560, "pitch": 36, "duration": 10, "velocity": 92}, {"time": 100560, "pitch": 42, "duration": 45, "velocity": 57}, {"time": 100800, "pitch": 39, "duration": 102, "velocity": 121}, {"time": 100800, "pitch": 40, "duration": 10, "velocity": 108}, {"time": 100800, "pitch": 42, "duration": 60, "velocity": 112}, {"time": 100960, "pitch": 48, "duration": 60, "velocity": 110}, {"time": 101040, "pitch": 36, "duration": 10, "velocity": 94}, {"time": 101040, "pitch": 41, "duration": 60, "velocity": 110}, {"time": 101040, "pitch": 42, "duration": 41, "velocity": 61}, {"time": 101040, "pitch": 69, "duration": 34, "velocity": 85}, {"time": 101200, "pitch": 28, "duration": 10, "velocity": 42}, {"time": 101200, "pitch": 82, "duration": 61, "velocity": 90}, {"time": 101281, "pitch": 36, "duration": 10, "velocity": 106}, {"time": 101281, "pitch": 42, "duration": 58, "velocity": 100}, {"time": 101281, "pitch": 57, "duration": 60, "velocity": 90}, {"time": 101521, "pitch": 36, "duration": 10, "velocity": 99}, {"time": 101521, "pitch": 42, "duration": 40, "velocity": 59}, {"time": 101521, "pitch": 69, "duration": 60, "velocity": 90}, {"time": 101681, "pitch": 82, "duration": 34, "velocity": 90}, {"time": 101761, "pitch": 40, "duration": 10, "velocity": 116}, {"time": 101761, "pitch": 42, "duration": 46, "velocity": 104}, {"time": 102001, "pitch": 36, "duration": 10, "velocity": 73}, {"time": 102001, "pitch": 42, "duration": 39, "velocity": 65}, {"time": 102161, "pitch": 28, "duration": 10, "velocity": 46}, {"time": 102241, "pitch": 36, "duration": 10, "velocity": 71}, {"time": 102241, "pitch": 42, "duration": 46, "velocity": 104}, {"time": 102402, "pitch": 28, "duration": 10, "velocity": 66}, {"time": 102482, "pitch": 36, "duration": 10, "velocity": 105}, {"time": 102482, "pitch": 42, "duration": 38, "velocity": 70}, {"time": 102722, "pitch": 40, "duration": 10, "velocity": 108}, {"time": 102722, "pitch": 42, "duration": 49, "velocity": 117}, {"time": 102962, "pitch": 36, "duration": 10, "velocity": 87}, {"time": 102962, "pitch": 42, "duration": 38, "velocity": 57}, {"time": 103122, "pitch": 28, "duration": 10, "velocity": 42}, {"time": 103202, "pitch": 36, "duration": 10, "velocity": 106}, {"time": 103202, "pitch": 42, "duration": 47, "velocity": 104}, {"time": 103442, "pitch": 36, "duration": 10, "velocity": 115}, {"time": 103442, "pitch": 42, "duration": 41, "velocity": 64}, {"time": 103683, "pitch": 40, "duration": 10, "velocity": 111}, {"time": 103683, "pitch": 42, "duration": 55, "velocity": 111}, {"time": 103923, "pitch": 36, "duration": 10, "velocity": 80}, {"time": 103923, "pitch": 42, "duration": 48, "velocity": 59}, {"time": 103923, "pitch": 69, "duration": 34, "velocity": 85}, {"time": 104083, "pitch": 28, "duration": 10, "velocity": 46}, {"time": 104083, "pitch": 82, "duration": 60, "velocity": 90}, {"time": 104163, "pitch": 36, "duration": 10, "velocity": 105}, {"time": 104163, "pitch": 42, "duration": 54, "velocity": 112}, {"time": 104321, "pitch": 28, "duration": 10, "velocity": 46}, {"time": 104400, "pitch": 36, "duration": 10, "velocity": 92}, {"time": 104400, "pitch": 42, "duration": 44, "velocity": 57}, {"time": 104637, "pitch": 40, "duration": 10, "velocity": 108}, {"time": 104637, "pitch": 42, "duration": 60, "velocity": 112}, {"time": 104877, "pitch": 36, "duration": 10, "velocity": 94}, {"time": 104877, "pitch": 42, "duration": 41, "velocity": 61}, {"time": 105037, "pitch": 28, "duration": 10, "velocity": 42}, {"time": 105117, "pitch": 36, "duration": 10, "velocity": 106}, {"time": 105117, "pitch": 42, "duration": 59, "velocity": 100}, {"time": 105358, "pitch": 36, "duration": 10, "velocity": 99}, {"time": 105358, "pitch": 42, "duration": 40, "velocity": 59}, {"time": 105598, "pitch": 40, "duration": 10, "velocity": 116}, {"time": 105598, "pitch": 42, "duration": 46, "velocity": 104}, {"time": 105838, "pitch": 36, "duration": 10, "velocity": 73}, {"time": 105838, "pitch": 42, "duration": 39, "velocity": 65}, {"time": 105998, "pitch": 28, "duration": 10, "velocity": 46}, {"time": 106078, "pitch": 36, "duration": 10, "velocity": 71}, {"time": 106078, "pitch": 42, "duration": 46, "velocity": 104}, {"time": 106078, "pitch": 69, "duration": 34, "velocity": 85}, {"time": 106238, "pitch": 28, "duration": 10, "velocity": 66}, {"time": 106238, "pitch": 82, "duration": 61, "velocity": 90}, {"time": 106319, "pitch": 36, "duration": 10, "velocity": 105}, {"time": 106319, "pitch": 42, "duration": 38, "velocity": 70}, {"time": 106559, "pitch": 40, "duration": 10, "velocity": 108}, {"time": 106559, "pitch": 42, "duration": 49, "velocity": 117}, {"time": 106799, "pitch": 36, "duration": 10, "velocity": 87}, {"time": 106799, "pitch": 42, "duration": 38, "velocity": 57}, {"time": 106959, "pitch": 28, "duration": 10, "velocity": 42}, {"time": 107039, "pitch": 36, "duration": 10, "velocity": 106}, {"time": 107039, "pitch": 42, "duration": 47, "velocity": 104}, {"time": 107279, "pitch": 36, "duration": 10, "velocity": 115}, {"time": 107279, "pitch": 42, "duration": 41, "velocity": 64}, {"time": 107520, "pitch": 40, "duration": 10, "velocity": 111}, {"time": 107520, "pitch": 42, "duration": 55, "velocity": 111}, {"time": 107760, "pitch": 36, "duration": 10, "velocity": 80}, {"time": 107760, "pitch": 42, "duration": 48, "velocity": 59}, {"time": 107920, "pitch": 28, "duration": 10, "velocity": 46}, {"time": 108000, "pitch": 36, "duration": 10, "velocity": 105}, {"time": 108000, "pitch": 42, "duration": 55, "velocity": 112}, {"time": 108160, "pitch": 28, "duration": 10, "velocity": 46}, {"time": 108240, "pitch": 36, "duration": 10, "velocity": 92}, {"time": 108240, "pitch": 42, "duration": 45, "velocity": 57}, {"time": 108480, "pitch": 40, "duration": 10, "velocity": 108}, {"time": 108480, "pitch": 42, "duration": 60, "velocity": 112}, {"time": 108721, "pitch": 36, "duration": 10, "velocity": 94}, {"time": 108721, "pitch": 42, "duration": 41, "velocity": 61}, {"time": 108721, "pitch": 69, "duration": 34, "velocity": 85}, {"time": 108881, "pitch": 28, "duration": 10, "velocity": 42}, {"time": 108881, "pitch": 82, "duration": 60, "velocity": 90}, {"time": 108961, "pitch": 36, "duration": 10, "velocity": 106}, {"time": 108961, "pitch": 42, "duration": 58, "velocity": 100}, {"time": 109201, "pitch": 36, "duration": 10, "velocity": 99}, {"time": 109201, "pitch": 42, "duration": 40, "velocity": 59}, {"time": 109201, "pitch": 69, "duration": 60, "velocity": 90}, {"time": 109361, "pitch": 82, "duration": 34, "velocity": 90}, {"time": 109441, "pitch": 40, "duration": 10, "velocity": 116}, {"time": 109441, "pitch": 42, "duration": 46, "velocity": 104}, {"time": 109682, "pitch": 36, "duration": 10, "velocity": 73}, {"time": 109682, "pitch": 42, "duration": 39, "velocity": 65}, {"time": 109842, "pitch": 28, "duration": 10, "velocity": 46}, {"time": 109922, "pitch": 36, "duration": 10, "velocity": 71}, {"time": 109922, "pitch": 42, "duration": 46, "velocity": 104}, {"time": 110082, "pitch": 28, "duration": 10, "velocity": 66}, {"time": 110162, "pitch": 36, "duration": 10, "velocity": 105}, {"time": 110162, "pitch": 42, "duration": 38, "velocity": 70}, {"time": 110402, "pitch": 40, "duration": 10, "velocity": 108}, {"time": 110402, "pitch": 42, "duration": 49, "velocity": 117}, {"time": 110642, "pitch": 36, "duration": 10, "velocity": 87}, {"time": 110642, "pitch": 42, "duration": 38, "velocity": 57}, {"time": 110803, "pitch": 28, "duration": 10, "velocity": 42}, {"time": 110883, "pitch": 36, "duration": 10, "velocity": 106}, {"time": 110883, "pitch": 42, "duration": 47, "velocity": 104}, {"time": 111123, "pitch": 36, "duration": 10, "velocity": 115}, {"time": 111123, "pitch": 42, "duration": 41, "velocity": 64}, {"time": 111363, "pitch": 40, "duration": 10, "velocity": 111}, {"time": 111363, "pitch": 42, "duration": 54, "velocity": 111}, {"time": 111600, "pitch": 36, "duration": 10, "velocity": 80}, {"time": 111600, "pitch": 42, "duration": 47, "velocity": 59}, {"time": 111600, "pitch": 69, "duration": 34, "velocity": 85}, {"time": 111758, "pitch": 28, "duration": 10, "velocity": 46}, {"time": 111758, "pitch": 82, "duration": 59, "velocity": 90}, {"time": 111837, "pitch": 36, "duration": 10, "velocity": 105}, {"time": 111837, "pitch": 42, "duration": 55, "velocity": 112}, {"time": 111997, "pitch": 28, "duration": 10, "velocity": 46}, {"time": 112077, "pitch": 36, "duration": 10, "velocity": 92}, {"time": 112077, "pitch": 42, "duration": 45, "velocity": 57}, {"time": 112317, "pitch": 40, "duration": 10, "velocity": 108}, {"time": 112317, "pitch": 42, "duration": 60, "velocity": 112}, {"time": 112558, "pitch": 36, "duration": 10, "velocity": 94}, {"time": 112558, "pitch": 42, "duration": 41, "velocity": 61}, {"time": 112718, "pitch": 28, "duration": 10, "velocity": 42}, {"time": 112798, "pitch": 36, "duration": 10, "velocity": 106}, {"time": 112798, "pitch": 42, "duration": 58, "velocity": 100}, {"time": 113038, "pitch": 36, "duration": 10, "velocity": 99}, {"time": 113038, "pitch": 42, "duration": 40, "velocity": 59}, {"time": 113278, "pitch": 40, "duration": 10, "velocity": 116}, {"time": 113278, "pitch": 42, "duration": 46, "velocity": 104}, {"time": 113518, "pitch": 36, "duration": 10, "velocity": 73}, {"time": 113518, "pitch": 42, "duration": 39, "velocity": 65}, {"time": 113679, "pitch": 28, "duration": 10, "velocity": 46}, {"time": 113759, "pitch": 36, "duration": 10, "velocity": 71}, {"time": 113759, "pitch": 42, "duration": 46, "velocity": 104}, {"time": 113759, "pitch": 69, "duration": 34, "velocity": 85}, {"time": 113919, "pitch": 28, "duration": 10, "velocity": 66}, {"time": 113919, "pitch": 82, "duration": 60, "velocity": 90}, {"time": 113999, "pitch": 36, "duration": 10, "velocity": 105}, {"time": 113999, "pitch": 42, "duration": 38, "velocity": 70}, {"time": 114239, "pitch": 40, "duration": 10, "velocity": 108}, {"time": 114239, "pitch": 42, "duration": 49, "velocity": 117}, {"time": 114479, "pitch": 36, "duration": 10, "velocity": 87}, {"time": 114479, "pitch": 42, "duration": 38, "velocity": 57}, {"time": 114639, "pitch": 28, "duration": 10, "velocity": 42}, {"time": 114720, "pitch": 36, "duration": 10, "velocity": 106}, {"time": 114720, "pitch": 42, "duration": 47, "velocity": 104}, {"time": 114960, "pitch": 36, "duration": 10, "velocity": 115}, {"time": 114960, "pitch": 42, "duration": 41, "velocity": 64}, {"time": 115200, "pitch": 40, "duration": 10, "velocity": 111}, {"time": 115200, "pitch": 42, "duration": 55, "velocity": 111}, {"time": 115440, "pitch": 36, "duration": 10, "velocity": 80}, {"time": 115440, "pitch": 42, "duration": 48, "velocity": 59}, {"time": 115600, "pitch": 28, "duration": 10, "velocity": 46}, {"time": 115680, "pitch": 36, "duration": 10, "velocity": 105}, {"time": 115680, "pitch": 42, "duration": 55, "velocity": 112}, {"time": 115841, "pitch": 28, "duration": 10, "velocity": 46}, {"time": 115921, "pitch": 36, "duration": 10, "velocity": 92}, {"time": 115921, "pitch": 42, "duration": 45, "velocity": 57}, {"time": 116161, "pitch": 40, "duration": 10, "velocity": 108}, {"time": 116161, "pitch": 42, "duration": 60, "velocity": 112}, {"time": 116401, "pitch": 36, "duration": 10, "velocity": 94}, {"time": 116401, "pitch": 42, "duration": 41, "velocity": 61}, {"time": 116401, "pitch": 69, "duration": 34, "velocity": 85}, {"time": 116561, "pitch": 28, "duration": 10, "velocity": 42}, {"time": 116561, "pitch": 82, "duration": 60, "velocity": 90}, {"time": 116641, "pitch": 36, "duration": 8, "velocity": 84}, {"time": 116641, "pitch": 51, "duration": 47, "velocity": 90}], "annotations": [{"time": 209, "annotation": {"number": 0, "value": 0}, "group": "control_change"}, {"time": 230, "annotation": {"number": 32, "value": 2}, "group": "control_change"}, {"time": 271, "annotation": {"number": 7, "value": 116}, "group": "control_change"}, {"time": 292, "annotation": {"number": 11, "value": 127}, "group": "control_change"}, {"time": 313, "annotation": {"number": 91, "value": 53}, "group": "control_change"}, {"time": 334, "annotation": {"number": 101, "value": 127}, "group": "control_change"}, {"time": 355, "annotation": {"number": 100, "value": 127}, "group": "control_change"}]}, {"program": 0, "is_drum": false, "name": "PIANO", "notes": [{"time": 47758, "pitch": 48, "duration": 146, "velocity": 112}, {"time": 47758, "pitch": 60, "duration": 146, "velocity": 112}, {"time": 47918, "pitch": 50, "duration": 280, "velocity": 122}, {"time": 47918, "pitch": 62, "duration": 280, "velocity": 122}, {"time": 48239, "pitch": 52, "duration": 193, "velocity": 108}, {"time": 48239, "pitch": 64, "duration": 193, "velocity": 108}, {"time": 48479, "pitch": 54, "duration": 224, "velocity": 111}, {"time": 48479, "pitch": 66, "duration": 224, "velocity": 111}, {"time": 48719, "pitch": 55, "duration": 140, "velocity": 112}, {"time": 48719, "pitch": 67, "duration": 140, "velocity": 112}, {"time": 48879, "pitch": 57, "duration": 291, "velocity": 111}, {"time": 48879, "pitch": 69, "duration": 291, "velocity": 111}, {"time": 49200, "pitch": 59, "duration": 199, "velocity": 120}, {"time": 49200, "pitch": 71, "duration": 199, "velocity": 120}, {"time": 49440, "pitch": 60, "duration": 162, "velocity": 120}, {"time": 49440, "pitch": 72, "duration": 162, "velocity": 120}, {"time": 49680, "pitch": 59, "duration": 154, "velocity": 120}, {"time": 49680, "pitch": 71, "duration": 154, "velocity": 120}, {"time": 49840, "pitch": 62, "duration": 1026, "velocity": 122}, {"time": 49840, "pitch": 74, "duration": 1026, "velocity": 122}, {"time": 50881, "pitch": 60, "duration": 213, "velocity": 122}, {"time": 50881, "pitch": 72, "duration": 213, "velocity": 122}, {"time": 51121, "pitch": 59, "duration": 201, "velocity": 112}, {"time": 51121, "pitch": 71, "duration": 201, "velocity": 112}, {"time": 51362, "pitch": 57, "duration": 422, "velocity": 114}, {"time": 51362, "pitch": 69, "duration": 422, "velocity": 114}, {"time": 51842, "pitch": 57, "duration": 228, "velocity": 120}, {"time": 51842, "pitch": 69, "duration": 228, "velocity": 120}, {"time": 52082, "pitch": 62, "duration": 144, "velocity": 121}, {"time": 52082, "pitch": 74, "duration": 144, "velocity": 121}, {"time": 52242, "pitch": 59, "duration": 378, "velocity": 112}, {"time": 52242, "pitch": 71, "duration": 378, "velocity": 112}, {"time": 55439, "pitch": 48, "duration": 165, "velocity": 111}, {"time": 55439, "pitch": 60, "duration": 165, "velocity": 111}, {"time": 55599, "pitch": 50, "duration": 289, "velocity": 121}, {"time": 55599, "pitch": 62, "duration": 289, "velocity": 121}, {"time": 55919, "pitch": 52, "duration": 204, "velocity": 112}, {"time": 55919, "pitch": 64, "duration": 204, "velocity": 112}, {"time": 56159, "pitch": 54, "duration": 216, "velocity": 93}, {"time": 56159, "pitch": 66, "duration": 216, "velocity": 93}, {"time": 56400, "pitch": 55, "duration": 215, "velocity": 104}, {"time": 56400, "pitch": 67, "duration": 215, "velocity": 104}, {"time": 56640, "pitch": 57, "duration": 142, "velocity": 114}, {"time": 56640, "pitch": 69, "duration": 142, "velocity": 114}, {"time": 56800, "pitch": 59, "duration": 291, "velocity": 95}, {"time": 56800, "pitch": 71, "duration": 291, "velocity": 95}, {"time": 57120, "pitch": 60, "duration": 217, "velocity": 121}, {"time": 57120, "pitch": 72, "duration": 217, "velocity": 121}, {"time": 57360, "pitch": 59, "duration": 164, "velocity": 104}, {"time": 57360, "pitch": 71, "duration": 164, "velocity": 104}, {"time": 57521, "pitch": 62, "duration": 1036, "velocity": 114}, {"time": 57521, "pitch": 74, "duration": 1036, "velocity": 114}, {"time": 58561, "pitch": 64, "duration": 217, "velocity": 112}, {"time": 58561, "pitch": 76, "duration": 217, "velocity": 112}, {"time": 58802, "pitch": 62, "duration": 193, "velocity": 117}, {"time": 58802, "pitch": 74, "duration": 193, "velocity": 117}, {"time": 59042, "pitch": 66, "duration": 220, "velocity": 117}, {"time": 59042, "pitch": 78, "duration": 220, "velocity": 117}, {"time": 59282, "pitch": 67, "duration": 208, "velocity": 111}, {"time": 59282, "pitch": 79, "duration": 208, "velocity": 111}, {"time": 59522, "pitch": 69, "duration": 233, "velocity": 100}, {"time": 59522, "pitch": 81, "duration": 233, "velocity": 100}, {"time": 59763, "pitch": 62, "duration": 933, "velocity": 117}, {"time": 59763, "pitch": 74, "duration": 933, "velocity": 117}, {"time": 60720, "pitch": 66, "duration": 210, "velocity": 120}, {"time": 60720, "pitch": 78, "duration": 210, "velocity": 120}, {"time": 60957, "pitch": 64, "duration": 213, "velocity": 120}, {"time": 60957, "pitch": 76, "duration": 213, "velocity": 120}, {"time": 61197, "pitch": 62, "duration": 1210, "velocity": 117}, {"time": 61197, "pitch": 74, "duration": 1210, "velocity": 117}, {"time": 62879, "pitch": 52, "duration": 336, "velocity": 93}, {"time": 62879, "pitch": 64, "duration": 331, "velocity": 121}, {"time": 63279, "pitch": 54, "duration": 351, "velocity": 111}, {"time": 63279, "pitch": 66, "duration": 335, "velocity": 122}, {"time": 63599, "pitch": 55, "duration": 258, "velocity": 90}, {"time": 63599, "pitch": 67, "duration": 227, "velocity": 104}, {"time": 63840, "pitch": 57, "duration": 536, "velocity": 112}, {"time": 63840, "pitch": 69, "duration": 502, "velocity": 114}, {"time": 64320, "pitch": 59, "duration": 441, "velocity": 104}, {"time": 64320, "pitch": 71, "duration": 417, "velocity": 117}, {"time": 64801, "pitch": 60, "duration": 998, "velocity": 114}, {"time": 64801, "pitch": 72, "duration": 957, "velocity": 122}, {"time": 65761, "pitch": 62, "duration": 719, "velocity": 117}, {"time": 65761, "pitch": 74, "duration": 712, "velocity": 117}, {"time": 66722, "pitch": 64, "duration": 218, "velocity": 111}, {"time": 66722, "pitch": 76, "duration": 205, "velocity": 120}, {"time": 66962, "pitch": 66, "duration": 215, "velocity": 103}, {"time": 66962, "pitch": 78, "duration": 182, "velocity": 114}, {"time": 67203, "pitch": 67, "duration": 157, "velocity": 112}, {"time": 67203, "pitch": 79, "duration": 160, "velocity": 121}], "annotations": [{"time": 209, "annotation": {"number": 0, "value": 0}, "group": "control_change"}, {"time": 230, "annotation": {"number": 32, "value": 2}, "group": "control_change"}, {"time": 271, "annotation": {"number": 7, "value": 100}, "group": "control_change"}, {"time": 292, "annotation": {"number": 11, "value": 127}, "group": "control_change"}, {"time": 313, "annotation": {"number": 10, "value": 72}, "group": "control_change"}, {"time": 334, "annotation": {"number": 91, "value": 60}, "group": "control_change"}, {"time": 355, "annotation": {"number": 93, "value": 0}, "group": "control_change"}, {"time": 376, "annotation": {"number": 94, "value": 0}, "group": "control_change"}, {"time": 397, "annotation": {"number": 101, "value": 0}, "group": "control_change"}, {"time": 417, "annotation": {"number": 100, "value": 0}, "group": "control_change"}, {"time": 438, "annotation": {"number": 6, "value": 12}, "group": "control_change"}, {"time": 459, "annotation": {"number": 101, "value": 127}, "group": "control_change"}, {"time": 480, "annotation": {"number": 100, "value": 127}, "group": "control_change"}]}, {"program": 0, "is_drum": false, "name": "MARIMBA", "annotations": [{"time": 209, "annotation": {"number": 0, "value": 0}, "group": "control_change"}, {"time": 230, "annotation": {"number": 32, "value": 2}, "group": "control_change"}]}, {"program": 12, "is_drum": false, "name": "MARIMBA", "notes": [{"time": 1443, "pitch": 78, "duration": 88, "velocity": 111}, {"time": 1683, "pitch": 71, "duration": 98, "velocity": 81}, {"time": 1923, "pitch": 74, "duration": 107, "velocity": 114}, {"time": 2160, "pitch": 71, "duration": 101, "velocity": 74}, {"time": 2318, "pitch": 78, "duration": 100, "velocity": 108}, {"time": 3518, "pitch": 78, "duration": 61, "velocity": 104}, {"time": 3598, "pitch": 71, "duration": 95, "velocity": 72}, {"time": 3838, "pitch": 74, "duration": 129, "velocity": 112}, {"time": 4078, "pitch": 71, "duration": 118, "velocity": 72}, {"time": 4239, "pitch": 78, "duration": 145, "velocity": 100}, {"time": 5279, "pitch": 76, "duration": 127, "velocity": 104}, {"time": 5520, "pitch": 69, "duration": 123, "velocity": 63}, {"time": 5760, "pitch": 73, "duration": 152, "velocity": 117}, {"time": 6000, "pitch": 69, "duration": 124, "velocity": 58}, {"time": 6160, "pitch": 76, "duration": 135, "velocity": 83}, {"time": 7361, "pitch": 76, "duration": 79, "velocity": 98}, {"time": 7441, "pitch": 69, "duration": 90, "velocity": 68}, {"time": 7682, "pitch": 73, "duration": 138, "velocity": 111}, {"time": 7922, "pitch": 69, "duration": 116, "velocity": 62}, {"time": 8082, "pitch": 76, "duration": 133, "velocity": 83}, {"time": 9123, "pitch": 78, "duration": 87, "velocity": 111}, {"time": 9360, "pitch": 71, "duration": 97, "velocity": 81}, {"time": 9597, "pitch": 74, "duration": 108, "velocity": 114}, {"time": 9837, "pitch": 71, "duration": 102, "velocity": 74}, {"time": 9997, "pitch": 78, "duration": 101, "velocity": 108}, {"time": 11198, "pitch": 78, "duration": 61, "velocity": 104}, {"time": 11278, "pitch": 71, "duration": 95, "velocity": 72}, {"time": 11519, "pitch": 74, "duration": 129, "velocity": 112}, {"time": 11759, "pitch": 71, "duration": 117, "velocity": 72}, {"time": 11919, "pitch": 78, "duration": 145, "velocity": 100}, {"time": 12960, "pitch": 76, "duration": 126, "velocity": 104}, {"time": 13200, "pitch": 69, "duration": 123, "velocity": 63}, {"time": 13440, "pitch": 73, "duration": 152, "velocity": 117}, {"time": 13680, "pitch": 69, "duration": 125, "velocity": 58}, {"time": 13841, "pitch": 76, "duration": 135, "velocity": 83}, {"time": 15042, "pitch": 76, "duration": 79, "velocity": 98}, {"time": 15122, "pitch": 69, "duration": 90, "velocity": 68}, {"time": 15362, "pitch": 73, "duration": 138, "velocity": 111}, {"time": 15602, "pitch": 69, "duration": 116, "velocity": 62}, {"time": 15762, "pitch": 76, "duration": 133, "velocity": 83}, {"time": 16797, "pitch": 78, "duration": 88, "velocity": 111}, {"time": 17037, "pitch": 71, "duration": 98, "velocity": 81}, {"time": 17277, "pitch": 74, "duration": 108, "velocity": 114}, {"time": 17517, "pitch": 71, "duration": 102, "velocity": 74}, {"time": 17678, "pitch": 78, "duration": 101, "velocity": 108}, {"time": 18879, "pitch": 78, "duration": 61, "velocity": 104}, {"time": 18959, "pitch": 71, "duration": 95, "velocity": 72}, {"time": 19199, "pitch": 74, "duration": 129, "velocity": 112}, {"time": 19439, "pitch": 71, "duration": 117, "velocity": 72}, {"time": 19599, "pitch": 78, "duration": 145, "velocity": 100}, {"time": 20640, "pitch": 76, "duration": 126, "velocity": 104}, {"time": 20880, "pitch": 69, "duration": 123, "velocity": 63}, {"time": 21121, "pitch": 73, "duration": 152, "velocity": 117}, {"time": 21361, "pitch": 69, "duration": 124, "velocity": 58}, {"time": 21521, "pitch": 76, "duration": 135, "velocity": 83}, {"time": 22722, "pitch": 76, "duration": 79, "velocity": 98}, {"time": 22802, "pitch": 69, "duration": 90, "velocity": 68}, {"time": 23042, "pitch": 73, "duration": 138, "velocity": 111}, {"time": 23283, "pitch": 69, "duration": 116, "velocity": 62}, {"time": 23443, "pitch": 76, "duration": 133, "velocity": 83}, {"time": 24477, "pitch": 78, "duration": 88, "velocity": 111}, {"time": 24717, "pitch": 71, "duration": 98, "velocity": 81}, {"time": 24958, "pitch": 74, "duration": 108, "velocity": 114}, {"time": 25198, "pitch": 71, "duration": 102, "velocity": 74}, {"time": 25358, "pitch": 78, "duration": 101, "velocity": 108}, {"time": 26559, "pitch": 78, "duration": 61, "velocity": 104}, {"time": 26639, "pitch": 71, "duration": 95, "velocity": 72}, {"time": 26879, "pitch": 74, "duration": 129, "velocity": 112}, {"time": 27119, "pitch": 71, "duration": 118, "velocity": 72}, {"time": 27280, "pitch": 78, "duration": 145, "velocity": 100}, {"time": 28321, "pitch": 76, "duration": 126, "velocity": 104}, {"time": 28561, "pitch": 69, "duration": 123, "velocity": 63}, {"time": 28801, "pitch": 73, "duration": 152, "velocity": 117}, {"time": 29041, "pitch": 69, "duration": 124, "velocity": 58}, {"time": 29201, "pitch": 76, "duration": 135, "velocity": 83}, {"time": 30402, "pitch": 76, "duration": 79, "velocity": 98}, {"time": 30482, "pitch": 69, "duration": 91, "velocity": 68}, {"time": 30723, "pitch": 73, "duration": 138, "velocity": 111}, {"time": 30963, "pitch": 69, "duration": 116, "velocity": 62}, {"time": 31123, "pitch": 76, "duration": 132, "velocity": 83}, {"time": 32157, "pitch": 78, "duration": 89, "velocity": 111}, {"time": 32398, "pitch": 71, "duration": 98, "velocity": 81}, {"time": 32638, "pitch": 74, "duration": 108, "velocity": 114}, {"time": 32878, "pitch": 71, "duration": 102, "velocity": 74}, {"time": 33038, "pitch": 78, "duration": 101, "velocity": 108}, {"time": 34239, "pitch": 78, "duration": 61, "velocity": 104}, {"time": 34319, "pitch": 71, "duration": 95, "velocity": 72}, {"time": 34560, "pitch": 74, "duration": 129, "velocity": 112}, {"time": 34800, "pitch": 71, "duration": 117, "velocity": 72}, {"time": 34960, "pitch": 78, "duration": 145, "velocity": 100}, {"time": 36001, "pitch": 76, "duration": 126, "velocity": 104}, {"time": 36241, "pitch": 69, "duration": 123, "velocity": 63}, {"time": 36481, "pitch": 73, "duration": 152, "velocity": 117}, {"time": 36721, "pitch": 69, "duration": 125, "velocity": 58}, {"time": 36882, "pitch": 76, "duration": 135, "velocity": 83}, {"time": 38083, "pitch": 76, "duration": 79, "velocity": 98}, {"time": 38163, "pitch": 69, "duration": 90, "velocity": 68}, {"time": 38403, "pitch": 73, "duration": 136, "velocity": 111}, {"time": 38640, "pitch": 69, "duration": 115, "velocity": 62}, {"time": 38798, "pitch": 76, "duration": 132, "velocity": 83}, {"time": 39838, "pitch": 78, "duration": 88, "velocity": 111}, {"time": 40078, "pitch": 71, "duration": 98, "velocity": 81}, {"time": 40318, "pitch": 74, "duration": 108, "velocity": 114}, {"time": 40558, "pitch": 71, "duration": 103, "velocity": 74}, {"time": 40719, "pitch": 78, "duration": 101, "velocity": 108}, {"time": 41920, "pitch": 78, "duration": 61, "velocity": 104}, {"time": 42000, "pitch": 71, "duration": 95, "velocity": 72}, {"time": 42240, "pitch": 74, "duration": 129, "velocity": 112}, {"time": 42480, "pitch": 71, "duration": 117, "velocity": 72}, {"time": 42640, "pitch": 78, "duration": 145, "velocity": 100}, {"time": 43681, "pitch": 76, "duration": 126, "velocity": 104}, {"time": 43921, "pitch": 69, "duration": 124, "velocity": 63}, {"time": 44162, "pitch": 73, "duration": 152, "velocity": 117}, {"time": 44402, "pitch": 69, "duration": 124, "velocity": 58}, {"time": 44562, "pitch": 76, "duration": 135, "velocity": 83}, {"time": 45761, "pitch": 76, "duration": 78, "velocity": 98}, {"time": 45840, "pitch": 69, "duration": 89, "velocity": 68}, {"time": 46077, "pitch": 73, "duration": 138, "velocity": 111}, {"time": 46317, "pitch": 69, "duration": 116, "velocity": 62}, {"time": 46477, "pitch": 76, "duration": 133, "velocity": 83}, {"time": 47518, "pitch": 83, "duration": 88, "velocity": 111}, {"time": 47758, "pitch": 76, "duration": 98, "velocity": 81}, {"time": 47999, "pitch": 79, "duration": 108, "velocity": 114}, {"time": 48239, "pitch": 76, "duration": 102, "velocity": 74}, {"time": 48399, "pitch": 83, "duration": 101, "velocity": 108}, {"time": 49600, "pitch": 83, "duration": 61, "velocity": 104}, {"time": 49680, "pitch": 76, "duration": 95, "velocity": 72}, {"time": 49920, "pitch": 79, "duration": 129, "velocity": 112}, {"time": 50160, "pitch": 76, "duration": 118, "velocity": 72}, {"time": 50321, "pitch": 83, "duration": 145, "velocity": 100}, {"time": 51362, "pitch": 81, "duration": 126, "velocity": 104}, {"time": 51602, "pitch": 74, "duration": 123, "velocity": 63}, {"time": 51842, "pitch": 78, "duration": 152, "velocity": 117}, {"time": 52082, "pitch": 74, "duration": 124, "velocity": 58}, {"time": 52242, "pitch": 81, "duration": 135, "velocity": 83}, {"time": 53437, "pitch": 81, "duration": 79, "velocity": 98}, {"time": 53517, "pitch": 74, "duration": 90, "velocity": 68}, {"time": 53757, "pitch": 78, "duration": 138, "velocity": 111}, {"time": 53997, "pitch": 74, "duration": 117, "velocity": 62}, {"time": 54158, "pitch": 81, "duration": 133, "velocity": 83}, {"time": 55198, "pitch": 83, "duration": 89, "velocity": 111}, {"time": 55439, "pitch": 76, "duration": 98, "velocity": 81}, {"time": 55679, "pitch": 79, "duration": 108, "velocity": 114}, {"time": 55919, "pitch": 76, "duration": 102, "velocity": 74}, {"time": 56079, "pitch": 83, "duration": 101, "velocity": 108}, {"time": 57280, "pitch": 83, "duration": 61, "velocity": 104}, {"time": 57360, "pitch": 76, "duration": 95, "velocity": 72}, {"time": 57601, "pitch": 79, "duration": 129, "velocity": 112}, {"time": 57841, "pitch": 76, "duration": 117, "velocity": 72}, {"time": 58001, "pitch": 83, "duration": 145, "velocity": 100}, {"time": 59042, "pitch": 81, "duration": 126, "velocity": 104}, {"time": 59282, "pitch": 74, "duration": 123, "velocity": 63}, {"time": 59522, "pitch": 78, "duration": 152, "velocity": 117}, {"time": 59763, "pitch": 74, "duration": 124, "velocity": 58}, {"time": 59923, "pitch": 81, "duration": 135, "velocity": 83}, {"time": 61117, "pitch": 81, "duration": 79, "velocity": 98}, {"time": 61197, "pitch": 74, "duration": 90, "velocity": 68}, {"time": 61438, "pitch": 78, "duration": 138, "velocity": 111}, {"time": 61678, "pitch": 74, "duration": 116, "velocity": 62}, {"time": 61838, "pitch": 81, "duration": 133, "velocity": 83}, {"time": 62879, "pitch": 79, "duration": 88, "velocity": 111}, {"time": 63119, "pitch": 72, "duration": 98, "velocity": 81}, {"time": 63359, "pitch": 76, "duration": 108, "velocity": 114}, {"time": 63599, "pitch": 69, "duration": 103, "velocity": 74}, {"time": 63760, "pitch": 79, "duration": 101, "velocity": 108}, {"time": 64961, "pitch": 79, "duration": 61, "velocity": 104}, {"time": 65041, "pitch": 72, "duration": 95, "velocity": 72}, {"time": 65281, "pitch": 76, "duration": 129, "velocity": 112}, {"time": 65521, "pitch": 69, "duration": 117, "velocity": 72}, {"time": 65681, "pitch": 79, "duration": 145, "velocity": 100}, {"time": 70559, "pitch": 78, "duration": 88, "velocity": 111}, {"time": 70799, "pitch": 71, "duration": 98, "velocity": 81}, {"time": 71040, "pitch": 74, "duration": 108, "velocity": 114}, {"time": 71280, "pitch": 71, "duration": 102, "velocity": 74}, {"time": 71440, "pitch": 78, "duration": 101, "velocity": 108}, {"time": 72641, "pitch": 78, "duration": 61, "velocity": 104}, {"time": 72721, "pitch": 71, "duration": 95, "velocity": 72}, {"time": 72961, "pitch": 74, "duration": 129, "velocity": 112}, {"time": 73202, "pitch": 71, "duration": 117, "velocity": 72}, {"time": 73362, "pitch": 78, "duration": 145, "velocity": 100}, {"time": 74403, "pitch": 76, "duration": 126, "velocity": 104}, {"time": 74643, "pitch": 69, "duration": 123, "velocity": 63}, {"time": 74883, "pitch": 73, "duration": 150, "velocity": 117}, {"time": 75120, "pitch": 69, "duration": 122, "velocity": 58}, {"time": 75278, "pitch": 76, "duration": 134, "velocity": 83}, {"time": 76478, "pitch": 76, "duration": 79, "velocity": 98}, {"time": 76558, "pitch": 69, "duration": 90, "velocity": 68}, {"time": 76798, "pitch": 73, "duration": 138, "velocity": 111}, {"time": 77038, "pitch": 69, "duration": 117, "velocity": 62}, {"time": 77199, "pitch": 76, "duration": 133, "velocity": 83}, {"time": 78239, "pitch": 78, "duration": 89, "velocity": 111}, {"time": 78480, "pitch": 71, "duration": 98, "velocity": 81}, {"time": 78720, "pitch": 74, "duration": 108, "velocity": 114}, {"time": 78960, "pitch": 71, "duration": 102, "velocity": 74}, {"time": 79120, "pitch": 78, "duration": 101, "velocity": 108}, {"time": 80321, "pitch": 78, "duration": 61, "velocity": 104}, {"time": 80401, "pitch": 71, "duration": 96, "velocity": 72}, {"time": 80642, "pitch": 74, "duration": 129, "velocity": 112}, {"time": 80882, "pitch": 71, "duration": 117, "velocity": 72}, {"time": 81042, "pitch": 78, "duration": 145, "velocity": 100}, {"time": 82083, "pitch": 76, "duration": 124, "velocity": 104}, {"time": 82320, "pitch": 69, "duration": 121, "velocity": 63}, {"time": 82557, "pitch": 73, "duration": 152, "velocity": 117}, {"time": 82797, "pitch": 69, "duration": 124, "velocity": 58}, {"time": 82957, "pitch": 76, "duration": 135, "velocity": 83}, {"time": 84158, "pitch": 76, "duration": 79, "velocity": 98}, {"time": 84238, "pitch": 69, "duration": 90, "velocity": 68}, {"time": 84479, "pitch": 73, "duration": 138, "velocity": 111}, {"time": 84719, "pitch": 69, "duration": 116, "velocity": 62}, {"time": 84879, "pitch": 76, "duration": 133, "velocity": 83}, {"time": 85920, "pitch": 78, "duration": 88, "velocity": 111}, {"time": 86160, "pitch": 71, "duration": 98, "velocity": 81}, {"time": 86400, "pitch": 74, "duration": 108, "velocity": 114}, {"time": 86640, "pitch": 71, "duration": 103, "velocity": 74}, {"time": 86801, "pitch": 78, "duration": 101, "velocity": 108}, {"time": 88002, "pitch": 78, "duration": 61, "velocity": 104}, {"time": 88082, "pitch": 71, "duration": 95, "velocity": 72}, {"time": 88322, "pitch": 74, "duration": 129, "velocity": 112}, {"time": 88562, "pitch": 71, "duration": 117, "velocity": 72}, {"time": 88722, "pitch": 78, "duration": 145, "velocity": 100}, {"time": 89757, "pitch": 76, "duration": 126, "velocity": 104}, {"time": 89997, "pitch": 69, "duration": 123, "velocity": 63}, {"time": 90237, "pitch": 73, "duration": 152, "velocity": 117}, {"time": 90477, "pitch": 69, "duration": 125, "velocity": 58}, {"time": 90638, "pitch": 76, "duration": 135, "velocity": 83}, {"time": 91839, "pitch": 76, "duration": 79, "velocity": 98}, {"time": 91919, "pitch": 69, "duration": 90, "velocity": 68}, {"time": 92159, "pitch": 73, "duration": 138, "velocity": 111}, {"time": 92399, "pitch": 69, "duration": 116, "velocity": 62}, {"time": 92559, "pitch": 76, "duration": 133, "velocity": 83}, {"time": 93600, "pitch": 78, "duration": 88, "velocity": 111}, {"time": 93840, "pitch": 71, "duration": 98, "velocity": 81}, {"time": 94081, "pitch": 74, "duration": 108, "velocity": 114}, {"time": 94321, "pitch": 71, "duration": 102, "velocity": 74}, {"time": 94481, "pitch": 78, "duration": 101, "velocity": 108}, {"time": 95682, "pitch": 78, "duration": 61, "velocity": 104}, {"time": 95762, "pitch": 71, "duration": 95, "velocity": 72}, {"time": 96002, "pitch": 74, "duration": 129, "velocity": 112}, {"time": 96243, "pitch": 71, "duration": 117, "velocity": 72}, {"time": 96403, "pitch": 78, "duration": 145, "velocity": 100}, {"time": 97437, "pitch": 76, "duration": 126, "velocity": 104}, {"time": 97677, "pitch": 69, "duration": 123, "velocity": 63}, {"time": 97918, "pitch": 73, "duration": 152, "velocity": 117}, {"time": 98158, "pitch": 69, "duration": 124, "velocity": 58}, {"time": 98318, "pitch": 76, "duration": 135, "velocity": 83}, {"time": 99519, "pitch": 76, "duration": 79, "velocity": 98}, {"time": 99599, "pitch": 69, "duration": 90, "velocity": 68}, {"time": 99839, "pitch": 73, "duration": 138, "velocity": 111}, {"time": 100079, "pitch": 69, "duration": 117, "velocity": 62}, {"time": 100240, "pitch": 76, "duration": 133, "velocity": 83}, {"time": 101281, "pitch": 78, "duration": 88, "velocity": 111}, {"time": 101521, "pitch": 71, "duration": 98, "velocity": 81}, {"time": 101761, "pitch": 74, "duration": 108, "velocity": 114}, {"time": 102001, "pitch": 71, "duration": 102, "velocity": 74}, {"time": 102161, "pitch": 78, "duration": 101, "velocity": 108}, {"time": 103362, "pitch": 78, "duration": 61, "velocity": 104}, {"time": 103442, "pitch": 71, "duration": 96, "velocity": 72}, {"time": 103683, "pitch": 74, "duration": 129, "velocity": 112}, {"time": 103923, "pitch": 71, "duration": 117, "velocity": 72}, {"time": 104083, "pitch": 78, "duration": 144, "velocity": 100}, {"time": 105117, "pitch": 76, "duration": 127, "velocity": 104}, {"time": 105358, "pitch": 69, "duration": 123, "velocity": 63}, {"time": 105598, "pitch": 73, "duration": 152, "velocity": 117}, {"time": 105838, "pitch": 69, "duration": 124, "velocity": 58}, {"time": 105998, "pitch": 76, "duration": 135, "velocity": 83}, {"time": 107199, "pitch": 76, "duration": 79, "velocity": 98}, {"time": 107279, "pitch": 69, "duration": 90, "velocity": 68}, {"time": 107520, "pitch": 73, "duration": 138, "velocity": 111}, {"time": 107760, "pitch": 69, "duration": 116, "velocity": 62}, {"time": 107920, "pitch": 76, "duration": 133, "velocity": 83}, {"time": 108961, "pitch": 78, "duration": 88, "velocity": 111}, {"time": 109201, "pitch": 71, "duration": 98, "velocity": 81}, {"time": 109441, "pitch": 74, "duration": 108, "velocity": 114}, {"time": 109682, "pitch": 71, "duration": 102, "velocity": 74}, {"time": 109842, "pitch": 78, "duration": 101, "velocity": 108}, {"time": 111043, "pitch": 78, "duration": 61, "velocity": 104}, {"time": 111123, "pitch": 71, "duration": 95, "velocity": 72}, {"time": 111363, "pitch": 74, "duration": 127, "velocity": 112}, {"time": 111600, "pitch": 71, "duration": 116, "velocity": 72}, {"time": 111758, "pitch": 78, "duration": 144, "velocity": 100}, {"time": 112798, "pitch": 76, "duration": 126, "velocity": 104}, {"time": 113038, "pitch": 69, "duration": 123, "velocity": 63}, {"time": 113278, "pitch": 73, "duration": 152, "velocity": 117}, {"time": 113518, "pitch": 69, "duration": 125, "velocity": 58}, {"time": 113679, "pitch": 76, "duration": 135, "velocity": 83}, {"time": 114880, "pitch": 76, "duration": 79, "velocity": 98}, {"time": 114960, "pitch": 69, "duration": 90, "velocity": 68}, {"time": 115200, "pitch": 73, "duration": 138, "velocity": 111}, {"time": 115440, "pitch": 69, "duration": 116, "velocity": 62}, {"time": 115600, "pitch": 76, "duration": 133, "velocity": 83}], "annotations": [{"time": 271, "annotation": {"number": 7, "value": 100}, "group": "control_change"}, {"time": 292, "annotation": {"number": 11, "value": 127}, "group": "control_change"}, {"time": 313, "annotation": {"number": 10, "value": 1}, "group": "control_change"}, {"time": 334, "annotation": {"number": 91, "value": 60}, "group": "control_change"}, {"time": 355, "annotation": {"number": 93, "value": 0}, "group": "control_change"}, {"time": 376, "annotation": {"number": 94, "value": 0}, "group": "control_change"}, {"time": 397, "annotation": {"number": 101, "value": 0}, "group": "control_change"}, {"time": 417, "annotation": {"number": 100, "value": 0}, "group": "control_change"}, {"time": 438, "annotation": {"number": 6, "value": 12}, "group": "control_change"}, {"time": 459, "annotation": {"number": 101, "value": 127}, "group": "control_change"}, {"time": 480, "annotation": {"number": 100, "value": 127}, "group": "control_change"}]}, {"program": 0, "is_drum": false, "name": "SOFTSYNSTR(H)", "annotations": [{"time": 209, "annotation": {"number": 0, "value": 0}, "group": "control_change"}, {"time": 230, "annotation": {"number": 32, "value": 2}, "group": "control_change"}]}, {"program": 48, "is_drum": false, "name": "SOFTSYNSTR(H)", "notes": [{"time": 32157, "pitch": 74, "duration": 1442, "velocity": 100}, {"time": 32157, "pitch": 83, "duration": 1442, "velocity": 100}, {"time": 33599, "pitch": 76, "duration": 480, "velocity": 100}, {"time": 33599, "pitch": 85, "duration": 480, "velocity": 100}, {"time": 34079, "pitch": 78, "duration": 961, "velocity": 100}, {"time": 34079, "pitch": 86, "duration": 961, "velocity": 100}, {"time": 35040, "pitch": 79, "duration": 480, "velocity": 100}, {"time": 35040, "pitch": 88, "duration": 480, "velocity": 100}, {"time": 35520, "pitch": 78, "duration": 481, "velocity": 100}, {"time": 35520, "pitch": 86, "duration": 481, "velocity": 100}, {"time": 36001, "pitch": 76, "duration": 961, "velocity": 100}, {"time": 36001, "pitch": 85, "duration": 961, "velocity": 100}, {"time": 36962, "pitch": 73, "duration": 961, "velocity": 100}, {"time": 36962, "pitch": 81, "duration": 961, "velocity": 100}, {"time": 37923, "pitch": 69, "duration": 1915, "velocity": 100}, {"time": 37923, "pitch": 78, "duration": 1915, "velocity": 100}, {"time": 39838, "pitch": 74, "duration": 1441, "velocity": 100}, {"time": 39838, "pitch": 83, "duration": 1441, "velocity": 100}, {"time": 41279, "pitch": 76, "duration": 480, "velocity": 100}, {"time": 41279, "pitch": 85, "duration": 480, "velocity": 100}, {"time": 41759, "pitch": 78, "duration": 961, "velocity": 100}, {"time": 41759, "pitch": 86, "duration": 961, "velocity": 100}, {"time": 42720, "pitch": 79, "duration": 481, "velocity": 100}, {"time": 42720, "pitch": 88, "duration": 481, "velocity": 100}, {"time": 43201, "pitch": 78, "duration": 480, "velocity": 100}, {"time": 43201, "pitch": 86, "duration": 480, "velocity": 100}, {"time": 43681, "pitch": 76, "duration": 1922, "velocity": 100}, {"time": 43681, "pitch": 85, "duration": 1922, "velocity": 100}, {"time": 45603, "pitch": 85, "duration": 1915, "velocity": 100}, {"time": 45603, "pitch": 93, "duration": 1915, "velocity": 100}, {"time": 47518, "pitch": 76, "duration": 1423, "velocity": 86}, {"time": 47518, "pitch": 84, "duration": 1436, "velocity": 114}, {"time": 48959, "pitch": 78, "duration": 467, "velocity": 100}, {"time": 48959, "pitch": 86, "duration": 462, "velocity": 112}, {"time": 49440, "pitch": 79, "duration": 1429, "velocity": 83}, {"time": 49440, "pitch": 88, "duration": 1436, "velocity": 104}, {"time": 50881, "pitch": 79, "duration": 477, "velocity": 86}, {"time": 50881, "pitch": 88, "duration": 468, "velocity": 93}, {"time": 51362, "pitch": 78, "duration": 949, "velocity": 85}, {"time": 51362, "pitch": 86, "duration": 947, "velocity": 112}, {"time": 52322, "pitch": 83, "duration": 951, "velocity": 74}, {"time": 52322, "pitch": 90, "duration": 940, "velocity": 79}, {"time": 53277, "pitch": 86, "duration": 972, "velocity": 81}, {"time": 53277, "pitch": 93, "duration": 975, "velocity": 81}, {"time": 54238, "pitch": 83, "duration": 972, "velocity": 81}, {"time": 54238, "pitch": 90, "duration": 925, "velocity": 74}, {"time": 55198, "pitch": 76, "duration": 1469, "velocity": 85}, {"time": 55198, "pitch": 84, "duration": 1460, "velocity": 114}, {"time": 56640, "pitch": 78, "duration": 449, "velocity": 77}, {"time": 56640, "pitch": 86, "duration": 449, "velocity": 108}, {"time": 57120, "pitch": 79, "duration": 1012, "velocity": 86}, {"time": 57120, "pitch": 88, "duration": 1025, "velocity": 100}, {"time": 58081, "pitch": 83, "duration": 901, "velocity": 86}, {"time": 58081, "pitch": 91, "duration": 911, "velocity": 85}, {"time": 59042, "pitch": 86, "duration": 995, "velocity": 93}, {"time": 59042, "pitch": 93, "duration": 966, "velocity": 95}, {"time": 60003, "pitch": 81, "duration": 874, "velocity": 90}, {"time": 60003, "pitch": 90, "duration": 872, "velocity": 75}, {"time": 60957, "pitch": 81, "duration": 1780, "velocity": 93}, {"time": 60957, "pitch": 90, "duration": 1772, "velocity": 100}, {"time": 62879, "pitch": 81, "duration": 1837, "velocity": 85}, {"time": 62879, "pitch": 84, "duration": 1841, "velocity": 100}, {"time": 64801, "pitch": 81, "duration": 723, "velocity": 86}, {"time": 64801, "pitch": 84, "duration": 712, "velocity": 100}, {"time": 65521, "pitch": 83, "duration": 687, "velocity": 98}, {"time": 65521, "pitch": 86, "duration": 677, "velocity": 85}, {"time": 66242, "pitch": 84, "duration": 285, "velocity": 93}, {"time": 66242, "pitch": 88, "duration": 284, "velocity": 77}, {"time": 66722, "pitch": 76, "duration": 240, "velocity": 112}, {"time": 66722, "pitch": 79, "duration": 240, "velocity": 108}, {"time": 66962, "pitch": 78, "duration": 226, "velocity": 76}, {"time": 66962, "pitch": 81, "duration": 202, "velocity": 85}, {"time": 67203, "pitch": 79, "duration": 81, "velocity": 104}, {"time": 67203, "pitch": 83, "duration": 89, "velocity": 111}, {"time": 101281, "pitch": 74, "duration": 1441, "velocity": 100}, {"time": 101281, "pitch": 83, "duration": 1441, "velocity": 100}, {"time": 102722, "pitch": 76, "duration": 480, "velocity": 100}, {"time": 102722, "pitch": 85, "duration": 480, "velocity": 100}, {"time": 103202, "pitch": 78, "duration": 961, "velocity": 100}, {"time": 103202, "pitch": 86, "duration": 961, "velocity": 100}, {"time": 104163, "pitch": 79, "duration": 474, "velocity": 100}, {"time": 104163, "pitch": 88, "duration": 474, "velocity": 100}, {"time": 104637, "pitch": 78, "duration": 480, "velocity": 100}, {"time": 104637, "pitch": 86, "duration": 480, "velocity": 100}, {"time": 105117, "pitch": 76, "duration": 961, "velocity": 100}, {"time": 105117, "pitch": 85, "duration": 961, "velocity": 100}, {"time": 106078, "pitch": 73, "duration": 961, "velocity": 100}, {"time": 106078, "pitch": 81, "duration": 961, "velocity": 100}, {"time": 107039, "pitch": 69, "duration": 1922, "velocity": 100}, {"time": 107039, "pitch": 78, "duration": 1922, "velocity": 100}, {"time": 108961, "pitch": 74, "duration": 1441, "velocity": 100}, {"time": 108961, "pitch": 83, "duration": 1441, "velocity": 100}, {"time": 110402, "pitch": 76, "duration": 481, "velocity": 100}, {"time": 110402, "pitch": 85, "duration": 481, "velocity": 100}, {"time": 110883, "pitch": 78, "duration": 954, "velocity": 100}, {"time": 110883, "pitch": 86, "duration": 954, "velocity": 100}, {"time": 111837, "pitch": 79, "duration": 480, "velocity": 100}, {"time": 111837, "pitch": 88, "duration": 480, "velocity": 100}, {"time": 112317, "pitch": 78, "duration": 481, "velocity": 100}, {"time": 112317, "pitch": 86, "duration": 481, "velocity": 100}, {"time": 112798, "pitch": 76, "duration": 1922, "velocity": 100}, {"time": 112798, "pitch": 85, "duration": 1922, "velocity": 100}, {"time": 114720, "pitch": 85, "duration": 1921, "velocity": 100}, {"time": 114720, "pitch": 93, "duration": 1921, "velocity": 100}, {"time": 116641, "pitch": 81, "duration": 787, "velocity": 90}, {"time": 116641, "pitch": 86, "duration": 742, "velocity": 90}, {"time": 117476, "pitch": 82, "duration": 1597, "velocity": 90}, {"time": 117476, "pitch": 91, "duration": 1594, "velocity": 90}, {"time": 119060, "pitch": 81, "duration": 1418, "velocity": 80}, {"time": 119060, "pitch": 90, "duration": 1419, "velocity": 80}], "annotations": [{"time": 271, "annotation": {"number": 7, "value": 70}, "group": "control_change"}, {"time": 292, "annotation": {"number": 11, "value": 127}, "group": "control_change"}, {"time": 313, "annotation": {"number": 10, "value": 29}, "group": "control_change"}, {"time": 334, "annotation": {"number": 91, "value": 127}, "group": "control_change"}, {"time": 355, "annotation": {"number": 93, "value": 55}, "group": "control_change"}, {"time": 376, "annotation": {"number": 94, "value": 0}, "group": "control_change"}, {"time": 397, "annotation": {"number": 101, "value": 0}, "group": "control_change"}, {"time": 417, "annotation": {"number": 100, "value": 0}, "group": "control_change"}, {"time": 438, "annotation": {"number": 6, "value": 12}, "group": "control_change"}, {"time": 459, "annotation": {"number": 101, "value": 127}, "group": "control_change"}, {"time": 480, "annotation": {"number": 100, "value": 127}, "group": "control_change"}]}]}