{"metadata": {"schema_version": "0.1", "title": "RWC-MDB-P-2001 No. 55: First Love / Akiko Kaburagi", "copyright": "RWC Music Database. Copyright (C) 2001 Real World Computing Partnership (contact: Masataka GOTO <m.goto@aist.go.jp>)", "source_filename": "RM-P055.SMF_SYNC.MID", "source_format": "midi"}, "resolution": 480, "tempos": [{"time": 0, "qpm": 58.25242718446602}, {"time": 480, "qpm": 74.07407407407408}, {"time": 1920, "qpm": 73.17073170731707}, {"time": 2400, "qpm": 74.07407407407408}, {"time": 6720, "qpm": 73.17073170731707}, {"time": 7200, "qpm": 74.07407407407408}, {"time": 13440, "qpm": 73.17073170731707}, {"time": 13920, "qpm": 74.07407407407408}, {"time": 17280, "qpm": 73.17073170731707}, {"time": 17760, "qpm": 74.07407407407408}, {"time": 25920, "qpm": 73.17073170731707}, {"time": 26400, "qpm": 74.07407407407408}, {"time": 29760, "qpm": 73.17073170731707}, {"time": 30240, "qpm": 74.07407407407408}, {"time": 35520, "qpm": 73.17073170731707}, {"time": 36000, "qpm": 74.07407407407408}, {"time": 39360, "qpm": 73.17073170731707}, {"time": 39840, "qpm": 74.07407407407408}, {"time": 48000, "qpm": 73.17073170731707}, {"time": 48480, "qpm": 74.07407407407408}, {"time": 51840, "qpm": 73.17073170731707}, {"time": 52320, "qpm": 74.07407407407408}, {"time": 57600, "qpm": 73.17073170731707}, {"time": 58080, "qpm": 74.07407407407408}, {"time": 65280, "qpm": 73.17073170731707}, {"time": 65760, "qpm": 74.07407407407408}, {"time": 72960, "qpm": 73.17073170731707}, {"time": 73440, "qpm": 74.07407407407408}, {"time": 77760, "qpm": 73.17073170731707}, {"time": 78240, "qpm": 74.07407407407408}, {"time": 83520, "qpm": 73.17073170731707}, {"time": 84000, "qpm": 74.07407407407408}, {"time": 87360, "qpm": 73.17073170731707}, {"time": 87840, "qpm": 74.07407407407408}, {"time": 96480, "qpm": 73.17073170731707}, {"time": 96960, "qpm": 74.07407407407408}, {"time": 100800, "qpm": 73.17073170731707}, {"time": 101280, "qpm": 74.07407407407408}, {"time": 103680, "qpm": 73.17073170731707}, {"time": 104160, "qpm": 74.07407407407408}, {"time": 107520, "qpm": 73.17073170731707}, {"time": 108000, "qpm": 74.07407407407408}, {"time": 117120, "qpm": 73.17073170731707}, {"time": 117600, "qpm": 74.07407407407408}, {"time": 126240, "qpm": 73.17073170731707}, {"time": 126720, "qpm": 74.07407407407408}, {"time": 132480, "qpm": 73.17073170731707}, {"time": 132960, "qpm": 74.07407407407408}, {"time": 134400, "qpm": 73.17073170731707}, {"time": 134880, "qpm": 74.07407407407408}, {"time": 139680, "qpm": 68.18181818181819}, {"time": 140160, "qpm": 34.09090909090909}, {"time": 140640, "qpm": 50.42016806722689}, {"time": 141120, "qpm": 50.0}], "key_signatures": [{"time": 0, "root": 0, "mode": "major"}], "time_signatures": [{"time": 0, "numerator": 1, "denominator": 4}, {"time": 480, "numerator": 4, "denominator": 4}], "tracks": [{"program": 0, "is_drum": false, "name": "pf", "annotations": [{"time": 346, "annotation": {"number": 0, "value": 0}, "group": "control_change"}, {"time": 365, "annotation": {"number": 32, "value": 0}, "group": "control_change"}]}, {"program": 2, "is_drum": false, "name": "pf", "notes": [{"time": 482, "pitch": 48, "duration": 961, "velocity": 73}, {"time": 482, "pitch": 60, "duration": 961, "velocity": 82}, {"time": 482, "pitch": 67, "duration": 239, "velocity": 74}, {"time": 482, "pitch": 72, "duration": 480, "velocity": 73}, {"time": 482, "pitch": 76, "duration": 480, "velocity": 77}, {"time": 962, "pitch": 67, "duration": 352, "velocity": 80}, {"time": 1082, "pitch": 72, "duration": 228, "velocity": 74}, {"time": 1202, "pitch": 74, "duration": 173, "velocity": 73}, {"time": 1322, "pitch": 76, "duration": 78, "velocity": 90}, {"time": 1443, "pitch": 47, "duration": 966, "velocity": 83}, {"time": 1443, "pitch": 59, "duration": 947, "velocity": 85}, {"time": 1443, "pitch": 67, "duration": 184, "velocity": 73}, {"time": 1443, "pitch": 71, "duration": 187, "velocity": 80}, {"time": 1443, "pitch": 74, "duration": 196, "velocity": 100}, {"time": 1680, "pitch": 67, "duration": 701, "velocity": 73}, {"time": 1680, "pitch": 71, "duration": 364, "velocity": 82}, {"time": 1680, "pitch": 74, "duration": 137, "velocity": 100}, {"time": 1798, "pitch": 79, "duration": 227, "velocity": 77}, {"time": 2037, "pitch": 77, "duration": 97, "velocity": 71}, {"time": 2157, "pitch": 76, "duration": 139, "velocity": 74}, {"time": 2277, "pitch": 77, "duration": 118, "velocity": 70}, {"time": 2398, "pitch": 45, "duration": 937, "velocity": 75}, {"time": 2398, "pitch": 57, "duration": 928, "velocity": 78}, {"time": 2398, "pitch": 69, "duration": 382, "velocity": 80}, {"time": 2398, "pitch": 72, "duration": 460, "velocity": 79}, {"time": 2398, "pitch": 76, "duration": 468, "velocity": 75}, {"time": 2878, "pitch": 69, "duration": 408, "velocity": 81}, {"time": 2998, "pitch": 72, "duration": 276, "velocity": 64}, {"time": 3118, "pitch": 74, "duration": 173, "velocity": 80}, {"time": 3238, "pitch": 76, "duration": 87, "velocity": 90}, {"time": 3358, "pitch": 43, "duration": 886, "velocity": 77}, {"time": 3358, "pitch": 55, "duration": 372, "velocity": 82}, {"time": 3358, "pitch": 67, "duration": 648, "velocity": 77}, {"time": 3358, "pitch": 71, "duration": 717, "velocity": 89}, {"time": 3358, "pitch": 74, "duration": 698, "velocity": 100}, {"time": 3839, "pitch": 55, "duration": 377, "velocity": 86}, {"time": 4079, "pitch": 67, "duration": 185, "velocity": 88}, {"time": 4319, "pitch": 41, "duration": 920, "velocity": 88}, {"time": 4319, "pitch": 53, "duration": 311, "velocity": 85}, {"time": 4319, "pitch": 65, "duration": 401, "velocity": 95}, {"time": 4319, "pitch": 69, "duration": 457, "velocity": 94}, {"time": 4319, "pitch": 72, "duration": 460, "velocity": 77}, {"time": 4800, "pitch": 53, "duration": 430, "velocity": 95}, {"time": 4800, "pitch": 65, "duration": 383, "velocity": 95}, {"time": 4920, "pitch": 69, "duration": 311, "velocity": 78}, {"time": 5040, "pitch": 72, "duration": 139, "velocity": 73}, {"time": 5160, "pitch": 74, "duration": 116, "velocity": 95}, {"time": 5280, "pitch": 40, "duration": 788, "velocity": 78}, {"time": 5280, "pitch": 52, "duration": 335, "velocity": 78}, {"time": 5280, "pitch": 64, "duration": 476, "velocity": 93}, {"time": 5280, "pitch": 72, "duration": 236, "velocity": 85}, {"time": 5520, "pitch": 67, "duration": 6, "velocity": 100}, {"time": 5640, "pitch": 67, "duration": 357, "velocity": 90}, {"time": 5761, "pitch": 52, "duration": 390, "velocity": 89}, {"time": 5761, "pitch": 64, "duration": 236, "velocity": 69}, {"time": 6001, "pitch": 76, "duration": 236, "velocity": 83}, {"time": 6241, "pitch": 41, "duration": 885, "velocity": 77}, {"time": 6241, "pitch": 53, "duration": 459, "velocity": 77}, {"time": 6241, "pitch": 65, "duration": 433, "velocity": 71}, {"time": 6241, "pitch": 69, "duration": 436, "velocity": 90}, {"time": 6241, "pitch": 77, "duration": 236, "velocity": 94}, {"time": 6481, "pitch": 76, "duration": 236, "velocity": 96}, {"time": 6721, "pitch": 53, "duration": 406, "velocity": 90}, {"time": 6721, "pitch": 65, "duration": 415, "velocity": 78}, {"time": 6721, "pitch": 69, "duration": 196, "velocity": 97}, {"time": 6721, "pitch": 74, "duration": 144, "velocity": 85}, {"time": 6962, "pitch": 69, "duration": 193, "velocity": 81}, {"time": 6962, "pitch": 72, "duration": 187, "velocity": 90}, {"time": 7202, "pitch": 43, "duration": 392, "velocity": 85}, {"time": 7202, "pitch": 55, "duration": 311, "velocity": 97}, {"time": 7202, "pitch": 65, "duration": 355, "velocity": 88}, {"time": 7202, "pitch": 69, "duration": 371, "velocity": 98}, {"time": 7202, "pitch": 74, "duration": 374, "velocity": 82}, {"time": 7682, "pitch": 43, "duration": 289, "velocity": 83}, {"time": 7682, "pitch": 55, "duration": 301, "velocity": 102}, {"time": 7682, "pitch": 65, "duration": 279, "velocity": 93}, {"time": 7682, "pitch": 69, "duration": 273, "velocity": 103}, {"time": 7682, "pitch": 74, "duration": 274, "velocity": 89}, {"time": 7923, "pitch": 72, "duration": 98, "velocity": 89}, {"time": 8043, "pitch": 72, "duration": 576, "velocity": 89}, {"time": 8163, "pitch": 48, "duration": 955, "velocity": 75}, {"time": 8163, "pitch": 55, "duration": 950, "velocity": 85}, {"time": 8163, "pitch": 64, "duration": 344, "velocity": 78}, {"time": 8163, "pitch": 67, "duration": 575, "velocity": 90}, {"time": 8637, "pitch": 72, "duration": 111, "velocity": 67}, {"time": 8757, "pitch": 64, "duration": 344, "velocity": 58}, {"time": 8877, "pitch": 67, "duration": 230, "velocity": 85}, {"time": 8998, "pitch": 72, "duration": 116, "velocity": 103}, {"time": 9118, "pitch": 31, "duration": 236, "velocity": 86}, {"time": 9118, "pitch": 43, "duration": 957, "velocity": 92}, {"time": 9118, "pitch": 62, "duration": 957, "velocity": 92}, {"time": 9118, "pitch": 65, "duration": 949, "velocity": 72}, {"time": 9118, "pitch": 69, "duration": 957, "velocity": 96}, {"time": 9358, "pitch": 31, "duration": 717, "velocity": 75}, {"time": 9598, "pitch": 74, "duration": 470, "velocity": 85}, {"time": 10079, "pitch": 60, "duration": 801, "velocity": 69}, {"time": 10079, "pitch": 67, "duration": 704, "velocity": 72}, {"time": 10079, "pitch": 76, "duration": 667, "velocity": 93}, {"time": 11039, "pitch": 53, "duration": 708, "velocity": 51}, {"time": 11039, "pitch": 65, "duration": 703, "velocity": 52}, {"time": 11039, "pitch": 69, "duration": 680, "velocity": 56}, {"time": 11039, "pitch": 72, "duration": 700, "velocity": 60}, {"time": 11039, "pitch": 76, "duration": 695, "velocity": 53}, {"time": 12000, "pitch": 55, "duration": 703, "velocity": 55}, {"time": 12000, "pitch": 62, "duration": 724, "velocity": 56}, {"time": 12000, "pitch": 67, "duration": 715, "velocity": 64}, {"time": 12000, "pitch": 71, "duration": 703, "velocity": 55}, {"time": 12000, "pitch": 74, "duration": 724, "velocity": 56}, {"time": 12961, "pitch": 52, "duration": 257, "velocity": 74}, {"time": 12961, "pitch": 62, "duration": 116, "velocity": 70}, {"time": 12961, "pitch": 68, "duration": 221, "velocity": 63}, {"time": 12961, "pitch": 71, "duration": 229, "velocity": 61}, {"time": 13201, "pitch": 64, "duration": 72, "velocity": 62}, {"time": 13442, "pitch": 56, "duration": 513, "velocity": 72}, {"time": 13442, "pitch": 64, "duration": 281, "velocity": 74}, {"time": 13442, "pitch": 68, "duration": 254, "velocity": 83}, {"time": 13442, "pitch": 71, "duration": 245, "velocity": 72}, {"time": 13682, "pitch": 74, "duration": 103, "velocity": 90}, {"time": 13922, "pitch": 57, "duration": 818, "velocity": 58}, {"time": 13922, "pitch": 69, "duration": 769, "velocity": 72}, {"time": 13922, "pitch": 72, "duration": 762, "velocity": 79}, {"time": 13922, "pitch": 76, "duration": 783, "velocity": 99}, {"time": 14883, "pitch": 55, "duration": 796, "velocity": 63}, {"time": 14883, "pitch": 67, "duration": 760, "velocity": 61}, {"time": 14883, "pitch": 71, "duration": 756, "velocity": 66}, {"time": 14883, "pitch": 76, "duration": 763, "velocity": 99}, {"time": 15838, "pitch": 53, "duration": 501, "velocity": 62}, {"time": 15838, "pitch": 65, "duration": 415, "velocity": 62}, {"time": 15838, "pitch": 69, "duration": 379, "velocity": 72}, {"time": 15838, "pitch": 72, "duration": 480, "velocity": 74}, {"time": 16799, "pitch": 43, "duration": 971, "velocity": 87}, {"time": 16799, "pitch": 55, "duration": 353, "velocity": 83}, {"time": 16799, "pitch": 69, "duration": 475, "velocity": 91}, {"time": 16799, "pitch": 72, "duration": 481, "velocity": 90}, {"time": 17039, "pitch": 65, "duration": 233, "velocity": 74}, {"time": 17159, "pitch": 55, "duration": 347, "velocity": 74}, {"time": 17279, "pitch": 65, "duration": 453, "velocity": 83}, {"time": 17279, "pitch": 69, "duration": 394, "velocity": 91}, {"time": 17279, "pitch": 74, "duration": 242, "velocity": 92}, {"time": 17519, "pitch": 55, "duration": 202, "velocity": 64}, {"time": 17519, "pitch": 72, "duration": 202, "velocity": 76}, {"time": 17760, "pitch": 36, "duration": 191, "velocity": 81}, {"time": 17760, "pitch": 48, "duration": 232, "velocity": 72}, {"time": 17760, "pitch": 64, "duration": 275, "velocity": 79}, {"time": 17760, "pitch": 67, "duration": 501, "velocity": 83}, {"time": 17760, "pitch": 72, "duration": 764, "velocity": 83}, {"time": 17760, "pitch": 76, "duration": 667, "velocity": 83}, {"time": 18360, "pitch": 64, "duration": 149, "velocity": 60}, {"time": 18720, "pitch": 41, "duration": 774, "velocity": 67}, {"time": 18720, "pitch": 53, "duration": 634, "velocity": 66}, {"time": 18720, "pitch": 65, "duration": 580, "velocity": 66}, {"time": 18720, "pitch": 69, "duration": 682, "velocity": 70}, {"time": 18720, "pitch": 72, "duration": 722, "velocity": 74}, {"time": 18720, "pitch": 76, "duration": 722, "velocity": 72}, {"time": 19441, "pitch": 65, "duration": 47, "velocity": 74}, {"time": 19681, "pitch": 43, "duration": 515, "velocity": 69}, {"time": 19681, "pitch": 55, "duration": 703, "velocity": 55}, {"time": 19681, "pitch": 62, "duration": 266, "velocity": 74}, {"time": 19681, "pitch": 67, "duration": 496, "velocity": 85}, {"time": 19681, "pitch": 71, "duration": 495, "velocity": 85}, {"time": 20162, "pitch": 62, "duration": 243, "velocity": 63}, {"time": 20642, "pitch": 52, "duration": 221, "velocity": 88}, {"time": 20642, "pitch": 62, "duration": 134, "velocity": 88}, {"time": 20642, "pitch": 68, "duration": 235, "velocity": 77}, {"time": 20642, "pitch": 71, "duration": 236, "velocity": 72}, {"time": 20882, "pitch": 64, "duration": 71, "velocity": 70}, {"time": 21123, "pitch": 44, "duration": 241, "velocity": 74}, {"time": 21123, "pitch": 56, "duration": 241, "velocity": 77}, {"time": 21123, "pitch": 64, "duration": 270, "velocity": 93}, {"time": 21123, "pitch": 68, "duration": 245, "velocity": 83}, {"time": 21123, "pitch": 71, "duration": 233, "velocity": 70}, {"time": 21360, "pitch": 74, "duration": 67, "velocity": 95}, {"time": 21597, "pitch": 45, "duration": 720, "velocity": 77}, {"time": 21597, "pitch": 57, "duration": 648, "velocity": 72}, {"time": 21597, "pitch": 64, "duration": 341, "velocity": 72}, {"time": 21597, "pitch": 69, "duration": 504, "velocity": 81}, {"time": 21597, "pitch": 72, "duration": 718, "velocity": 79}, {"time": 21597, "pitch": 76, "duration": 341, "velocity": 72}, {"time": 22318, "pitch": 64, "duration": 71, "velocity": 64}, {"time": 22558, "pitch": 55, "duration": 791, "velocity": 69}, {"time": 22558, "pitch": 64, "duration": 766, "velocity": 70}, {"time": 22558, "pitch": 67, "duration": 760, "velocity": 81}, {"time": 22558, "pitch": 71, "duration": 769, "velocity": 74}, {"time": 22558, "pitch": 76, "duration": 766, "velocity": 70}, {"time": 23519, "pitch": 53, "duration": 956, "velocity": 66}, {"time": 23519, "pitch": 65, "duration": 577, "velocity": 64}, {"time": 23519, "pitch": 69, "duration": 718, "velocity": 68}, {"time": 23519, "pitch": 72, "duration": 715, "velocity": 72}, {"time": 23519, "pitch": 76, "duration": 714, "velocity": 62}, {"time": 24239, "pitch": 65, "duration": 66, "velocity": 66}, {"time": 24480, "pitch": 55, "duration": 515, "velocity": 74}, {"time": 24480, "pitch": 65, "duration": 118, "velocity": 83}, {"time": 24480, "pitch": 69, "duration": 271, "velocity": 87}, {"time": 24480, "pitch": 72, "duration": 267, "velocity": 87}, {"time": 24720, "pitch": 65, "duration": 87, "velocity": 64}, {"time": 24960, "pitch": 53, "duration": 291, "velocity": 87}, {"time": 24960, "pitch": 65, "duration": 139, "velocity": 83}, {"time": 24960, "pitch": 69, "duration": 224, "velocity": 87}, {"time": 24960, "pitch": 72, "duration": 125, "velocity": 87}, {"time": 24960, "pitch": 74, "duration": 107, "velocity": 93}, {"time": 25200, "pitch": 72, "duration": 236, "velocity": 85}, {"time": 25441, "pitch": 52, "duration": 535, "velocity": 83}, {"time": 25441, "pitch": 64, "duration": 147, "velocity": 79}, {"time": 25441, "pitch": 67, "duration": 241, "velocity": 81}, {"time": 25441, "pitch": 71, "duration": 243, "velocity": 87}, {"time": 25441, "pitch": 76, "duration": 744, "velocity": 91}, {"time": 25681, "pitch": 64, "duration": 104, "velocity": 63}, {"time": 25921, "pitch": 64, "duration": 111, "velocity": 76}, {"time": 25921, "pitch": 67, "duration": 248, "velocity": 69}, {"time": 25921, "pitch": 71, "duration": 267, "velocity": 83}, {"time": 26161, "pitch": 64, "duration": 66, "velocity": 56}, {"time": 26161, "pitch": 79, "duration": 55, "velocity": 74}, {"time": 26281, "pitch": 79, "duration": 669, "velocity": 83}, {"time": 26401, "pitch": 52, "duration": 523, "velocity": 91}, {"time": 26401, "pitch": 64, "duration": 171, "velocity": 79}, {"time": 26401, "pitch": 71, "duration": 444, "velocity": 85}, {"time": 26401, "pitch": 74, "duration": 278, "velocity": 83}, {"time": 26642, "pitch": 64, "duration": 247, "velocity": 46}, {"time": 26882, "pitch": 71, "duration": 218, "velocity": 66}, {"time": 26882, "pitch": 74, "duration": 136, "velocity": 76}, {"time": 27002, "pitch": 64, "duration": 134, "velocity": 62}, {"time": 27122, "pitch": 55, "duration": 115, "velocity": 59}, {"time": 27242, "pitch": 54, "duration": 121, "velocity": 61}, {"time": 27362, "pitch": 53, "duration": 526, "velocity": 57}, {"time": 27362, "pitch": 65, "duration": 387, "velocity": 79}, {"time": 27362, "pitch": 69, "duration": 771, "velocity": 63}, {"time": 27362, "pitch": 74, "duration": 779, "velocity": 85}, {"time": 27362, "pitch": 77, "duration": 791, "velocity": 81}, {"time": 27843, "pitch": 65, "duration": 286, "velocity": 66}, {"time": 28317, "pitch": 53, "duration": 354, "velocity": 79}, {"time": 28317, "pitch": 64, "duration": 121, "velocity": 83}, {"time": 28317, "pitch": 69, "duration": 480, "velocity": 85}, {"time": 28317, "pitch": 72, "duration": 498, "velocity": 87}, {"time": 28317, "pitch": 76, "duration": 494, "velocity": 85}, {"time": 28557, "pitch": 64, "duration": 262, "velocity": 53}, {"time": 28678, "pitch": 45, "duration": 368, "velocity": 72}, {"time": 28798, "pitch": 53, "duration": 173, "velocity": 64}, {"time": 28798, "pitch": 57, "duration": 368, "velocity": 72}, {"time": 28918, "pitch": 64, "duration": 73, "velocity": 100}, {"time": 28918, "pitch": 69, "duration": 208, "velocity": 93}, {"time": 28918, "pitch": 72, "duration": 189, "velocity": 90}, {"time": 29038, "pitch": 53, "duration": 42, "velocity": 69}, {"time": 29158, "pitch": 64, "duration": 40, "velocity": 59}, {"time": 29278, "pitch": 40, "duration": 536, "velocity": 83}, {"time": 29278, "pitch": 52, "duration": 745, "velocity": 91}, {"time": 29278, "pitch": 64, "duration": 147, "velocity": 79}, {"time": 29278, "pitch": 67, "duration": 241, "velocity": 81}, {"time": 29278, "pitch": 71, "duration": 243, "velocity": 87}, {"time": 29518, "pitch": 64, "duration": 104, "velocity": 63}, {"time": 29759, "pitch": 64, "duration": 111, "velocity": 76}, {"time": 29759, "pitch": 67, "duration": 248, "velocity": 69}, {"time": 29759, "pitch": 71, "duration": 267, "velocity": 83}, {"time": 29999, "pitch": 50, "duration": 115, "velocity": 59}, {"time": 29999, "pitch": 64, "duration": 66, "velocity": 56}, {"time": 29999, "pitch": 79, "duration": 55, "velocity": 74}, {"time": 30119, "pitch": 51, "duration": 121, "velocity": 61}, {"time": 30119, "pitch": 79, "duration": 668, "velocity": 83}, {"time": 30239, "pitch": 52, "duration": 522, "velocity": 91}, {"time": 30239, "pitch": 64, "duration": 170, "velocity": 79}, {"time": 30239, "pitch": 71, "duration": 443, "velocity": 85}, {"time": 30239, "pitch": 74, "duration": 277, "velocity": 83}, {"time": 30479, "pitch": 64, "duration": 247, "velocity": 46}, {"time": 30719, "pitch": 71, "duration": 219, "velocity": 66}, {"time": 30719, "pitch": 74, "duration": 137, "velocity": 76}, {"time": 30840, "pitch": 64, "duration": 134, "velocity": 62}, {"time": 30960, "pitch": 55, "duration": 115, "velocity": 59}, {"time": 31080, "pitch": 54, "duration": 121, "velocity": 61}, {"time": 31200, "pitch": 41, "duration": 960, "velocity": 85}, {"time": 31200, "pitch": 53, "duration": 249, "velocity": 81}, {"time": 31200, "pitch": 65, "duration": 165, "velocity": 81}, {"time": 31200, "pitch": 69, "duration": 270, "velocity": 90}, {"time": 31200, "pitch": 72, "duration": 260, "velocity": 83}, {"time": 31200, "pitch": 77, "duration": 266, "velocity": 76}, {"time": 31440, "pitch": 65, "duration": 91, "velocity": 59}, {"time": 31560, "pitch": 53, "duration": 372, "velocity": 59}, {"time": 31680, "pitch": 65, "duration": 98, "velocity": 79}, {"time": 31680, "pitch": 69, "duration": 244, "velocity": 83}, {"time": 31680, "pitch": 72, "duration": 441, "velocity": 83}, {"time": 31920, "pitch": 52, "duration": 116, "velocity": 59}, {"time": 31920, "pitch": 65, "duration": 131, "velocity": 45}, {"time": 32041, "pitch": 53, "duration": 121, "velocity": 61}, {"time": 32161, "pitch": 43, "duration": 960, "velocity": 85}, {"time": 32161, "pitch": 55, "duration": 215, "velocity": 63}, {"time": 32161, "pitch": 67, "duration": 132, "velocity": 79}, {"time": 32161, "pitch": 71, "duration": 249, "velocity": 91}, {"time": 32161, "pitch": 74, "duration": 262, "velocity": 85}, {"time": 32401, "pitch": 67, "duration": 71, "velocity": 50}, {"time": 32521, "pitch": 55, "duration": 183, "velocity": 62}, {"time": 32641, "pitch": 67, "duration": 65, "velocity": 93}, {"time": 32641, "pitch": 71, "duration": 253, "velocity": 99}, {"time": 32641, "pitch": 74, "duration": 257, "velocity": 93}, {"time": 32881, "pitch": 55, "duration": 40, "velocity": 66}, {"time": 32881, "pitch": 67, "duration": 46, "velocity": 62}, {"time": 33122, "pitch": 41, "duration": 111, "velocity": 93}, {"time": 33122, "pitch": 53, "duration": 111, "velocity": 90}, {"time": 33122, "pitch": 65, "duration": 125, "velocity": 91}, {"time": 33122, "pitch": 69, "duration": 131, "velocity": 99}, {"time": 33362, "pitch": 41, "duration": 42, "velocity": 45}, {"time": 33362, "pitch": 53, "duration": 51, "velocity": 54}, {"time": 33362, "pitch": 65, "duration": 61, "velocity": 57}, {"time": 33362, "pitch": 69, "duration": 35, "velocity": 55}, {"time": 33362, "pitch": 72, "duration": 51, "velocity": 63}, {"time": 33602, "pitch": 41, "duration": 47, "velocity": 83}, {"time": 33602, "pitch": 53, "duration": 50, "velocity": 76}, {"time": 33602, "pitch": 65, "duration": 42, "velocity": 69}, {"time": 33602, "pitch": 69, "duration": 56, "velocity": 83}, {"time": 33602, "pitch": 72, "duration": 56, "velocity": 85}, {"time": 33842, "pitch": 41, "duration": 52, "velocity": 83}, {"time": 33842, "pitch": 53, "duration": 48, "velocity": 64}, {"time": 33842, "pitch": 65, "duration": 40, "velocity": 63}, {"time": 33842, "pitch": 69, "duration": 38, "velocity": 79}, {"time": 33842, "pitch": 72, "duration": 46, "velocity": 83}, {"time": 33962, "pitch": 42, "duration": 52, "velocity": 83}, {"time": 33962, "pitch": 54, "duration": 48, "velocity": 64}, {"time": 34082, "pitch": 43, "duration": 363, "velocity": 100}, {"time": 34082, "pitch": 55, "duration": 251, "velocity": 96}, {"time": 34082, "pitch": 67, "duration": 66, "velocity": 96}, {"time": 34082, "pitch": 71, "duration": 221, "velocity": 99}, {"time": 34082, "pitch": 74, "duration": 273, "velocity": 100}, {"time": 34323, "pitch": 67, "duration": 53, "velocity": 76}, {"time": 34443, "pitch": 55, "duration": 45, "velocity": 72}, {"time": 34563, "pitch": 45, "duration": 68, "velocity": 87}, {"time": 34563, "pitch": 57, "duration": 93, "velocity": 76}, {"time": 34563, "pitch": 65, "duration": 258, "velocity": 83}, {"time": 34563, "pitch": 69, "duration": 259, "velocity": 90}, {"time": 34563, "pitch": 72, "duration": 259, "velocity": 85}, {"time": 34800, "pitch": 47, "duration": 45, "velocity": 59}, {"time": 34800, "pitch": 59, "duration": 41, "velocity": 59}, {"time": 34800, "pitch": 74, "duration": 48, "velocity": 87}, {"time": 35037, "pitch": 48, "duration": 728, "velocity": 81}, {"time": 35037, "pitch": 60, "duration": 545, "velocity": 93}, {"time": 35037, "pitch": 67, "duration": 206, "velocity": 85}, {"time": 35037, "pitch": 72, "duration": 1, "velocity": 91}, {"time": 35037, "pitch": 76, "duration": 281, "velocity": 96}, {"time": 35278, "pitch": 67, "duration": 130, "velocity": 29}, {"time": 35518, "pitch": 67, "duration": 107, "velocity": 85}, {"time": 35518, "pitch": 72, "duration": 251, "velocity": 83}, {"time": 35518, "pitch": 76, "duration": 265, "velocity": 85}, {"time": 35758, "pitch": 60, "duration": 36, "velocity": 59}, {"time": 35758, "pitch": 67, "duration": 42, "velocity": 63}, {"time": 35998, "pitch": 40, "duration": 523, "velocity": 71}, {"time": 35998, "pitch": 52, "duration": 261, "velocity": 91}, {"time": 35998, "pitch": 64, "duration": 133, "velocity": 85}, {"time": 35998, "pitch": 68, "duration": 256, "velocity": 79}, {"time": 35998, "pitch": 71, "duration": 270, "velocity": 91}, {"time": 35998, "pitch": 74, "duration": 269, "velocity": 91}, {"time": 36238, "pitch": 64, "duration": 60, "velocity": 42}, {"time": 36359, "pitch": 59, "duration": 349, "velocity": 59}, {"time": 36479, "pitch": 44, "duration": 221, "velocity": 91}, {"time": 36479, "pitch": 64, "duration": 42, "velocity": 81}, {"time": 36479, "pitch": 68, "duration": 56, "velocity": 79}, {"time": 36479, "pitch": 71, "duration": 54, "velocity": 85}, {"time": 36479, "pitch": 74, "duration": 68, "velocity": 90}, {"time": 36719, "pitch": 47, "duration": 44, "velocity": 55}, {"time": 36959, "pitch": 45, "duration": 547, "velocity": 87}, {"time": 36959, "pitch": 57, "duration": 257, "velocity": 91}, {"time": 36959, "pitch": 69, "duration": 100, "velocity": 85}, {"time": 36959, "pitch": 72, "duration": 247, "velocity": 90}, {"time": 36959, "pitch": 76, "duration": 213, "velocity": 90}, {"time": 37199, "pitch": 69, "duration": 24, "velocity": 53}, {"time": 37319, "pitch": 57, "duration": 377, "velocity": 74}, {"time": 37440, "pitch": 69, "duration": 346, "velocity": 100}, {"time": 37440, "pitch": 72, "duration": 128, "velocity": 105}, {"time": 37440, "pitch": 76, "duration": 97, "velocity": 83}, {"time": 37680, "pitch": 45, "duration": 51, "velocity": 74}, {"time": 37800, "pitch": 72, "duration": 116, "velocity": 60}, {"time": 37920, "pitch": 45, "duration": 221, "velocity": 91}, {"time": 37920, "pitch": 57, "duration": 237, "velocity": 91}, {"time": 37920, "pitch": 69, "duration": 272, "velocity": 85}, {"time": 37920, "pitch": 72, "duration": 270, "velocity": 83}, {"time": 37920, "pitch": 76, "duration": 241, "velocity": 93}, {"time": 38400, "pitch": 45, "duration": 203, "velocity": 83}, {"time": 38400, "pitch": 57, "duration": 139, "velocity": 90}, {"time": 38400, "pitch": 69, "duration": 249, "velocity": 85}, {"time": 38400, "pitch": 72, "duration": 236, "velocity": 85}, {"time": 38400, "pitch": 76, "duration": 221, "velocity": 96}, {"time": 38881, "pitch": 48, "duration": 709, "velocity": 93}, {"time": 38881, "pitch": 60, "duration": 251, "velocity": 96}, {"time": 38881, "pitch": 67, "duration": 139, "velocity": 79}, {"time": 38881, "pitch": 72, "duration": 229, "velocity": 83}, {"time": 38881, "pitch": 76, "duration": 240, "velocity": 83}, {"time": 39121, "pitch": 67, "duration": 35, "velocity": 62}, {"time": 39241, "pitch": 60, "duration": 162, "velocity": 81}, {"time": 39361, "pitch": 72, "duration": 120, "velocity": 87}, {"time": 39361, "pitch": 76, "duration": 268, "velocity": 90}, {"time": 39601, "pitch": 60, "duration": 42, "velocity": 64}, {"time": 39722, "pitch": 72, "duration": 53, "velocity": 53}, {"time": 39842, "pitch": 44, "duration": 237, "velocity": 71}, {"time": 39842, "pitch": 56, "duration": 261, "velocity": 91}, {"time": 39842, "pitch": 68, "duration": 133, "velocity": 108}, {"time": 39842, "pitch": 71, "duration": 256, "velocity": 79}, {"time": 39842, "pitch": 74, "duration": 270, "velocity": 91}, {"time": 39842, "pitch": 77, "duration": 269, "velocity": 73}, {"time": 40082, "pitch": 68, "duration": 59, "velocity": 64}, {"time": 40202, "pitch": 56, "duration": 349, "velocity": 59}, {"time": 40322, "pitch": 44, "duration": 221, "velocity": 91}, {"time": 40322, "pitch": 68, "duration": 42, "velocity": 103}, {"time": 40322, "pitch": 71, "duration": 56, "velocity": 79}, {"time": 40322, "pitch": 74, "duration": 54, "velocity": 85}, {"time": 40322, "pitch": 77, "duration": 68, "velocity": 72}, {"time": 40562, "pitch": 47, "duration": 44, "velocity": 55}, {"time": 40803, "pitch": 45, "duration": 540, "velocity": 87}, {"time": 40803, "pitch": 57, "duration": 254, "velocity": 91}, {"time": 40803, "pitch": 69, "duration": 126, "velocity": 79}, {"time": 40803, "pitch": 72, "duration": 244, "velocity": 90}, {"time": 40803, "pitch": 76, "duration": 210, "velocity": 90}, {"time": 41040, "pitch": 69, "duration": 24, "velocity": 53}, {"time": 41158, "pitch": 57, "duration": 375, "velocity": 74}, {"time": 41277, "pitch": 69, "duration": 346, "velocity": 100}, {"time": 41277, "pitch": 72, "duration": 128, "velocity": 105}, {"time": 41277, "pitch": 76, "duration": 97, "velocity": 83}, {"time": 41517, "pitch": 45, "duration": 51, "velocity": 74}, {"time": 41637, "pitch": 72, "duration": 117, "velocity": 60}, {"time": 41758, "pitch": 45, "duration": 378, "velocity": 90}, {"time": 41758, "pitch": 57, "duration": 250, "velocity": 93}, {"time": 41758, "pitch": 69, "duration": 257, "velocity": 85}, {"time": 41758, "pitch": 72, "duration": 255, "velocity": 96}, {"time": 41758, "pitch": 76, "duration": 259, "velocity": 85}, {"time": 42118, "pitch": 57, "duration": 46, "velocity": 74}, {"time": 42238, "pitch": 45, "duration": 84, "velocity": 87}, {"time": 42238, "pitch": 57, "duration": 99, "velocity": 90}, {"time": 42238, "pitch": 69, "duration": 251, "velocity": 74}, {"time": 42238, "pitch": 72, "duration": 253, "velocity": 90}, {"time": 42238, "pitch": 76, "duration": 226, "velocity": 87}, {"time": 42478, "pitch": 43, "duration": 43, "velocity": 62}, {"time": 42478, "pitch": 55, "duration": 36, "velocity": 72}, {"time": 42718, "pitch": 53, "duration": 343, "velocity": 99}, {"time": 42718, "pitch": 72, "duration": 273, "velocity": 93}, {"time": 42718, "pitch": 77, "duration": 345, "velocity": 93}, {"time": 42959, "pitch": 69, "duration": 48, "velocity": 76}, {"time": 43079, "pitch": 53, "duration": 376, "velocity": 81}, {"time": 43199, "pitch": 69, "duration": 91, "velocity": 81}, {"time": 43199, "pitch": 72, "duration": 117, "velocity": 91}, {"time": 43199, "pitch": 77, "duration": 97, "velocity": 99}, {"time": 43439, "pitch": 41, "duration": 10, "velocity": 74}, {"time": 43439, "pitch": 69, "duration": 51, "velocity": 76}, {"time": 43559, "pitch": 41, "duration": 51, "velocity": 83}, {"time": 43559, "pitch": 53, "duration": 51, "velocity": 74}, {"time": 43679, "pitch": 40, "duration": 508, "velocity": 81}, {"time": 43679, "pitch": 52, "duration": 530, "velocity": 93}, {"time": 43679, "pitch": 67, "duration": 147, "velocity": 93}, {"time": 43679, "pitch": 72, "duration": 281, "velocity": 86}, {"time": 43679, "pitch": 76, "duration": 270, "velocity": 93}, {"time": 43679, "pitch": 79, "duration": 227, "velocity": 90}, {"time": 43919, "pitch": 67, "duration": 52, "velocity": 76}, {"time": 44160, "pitch": 67, "duration": 223, "velocity": 89}, {"time": 44160, "pitch": 72, "duration": 181, "velocity": 89}, {"time": 44160, "pitch": 76, "duration": 229, "velocity": 95}, {"time": 44160, "pitch": 79, "duration": 153, "velocity": 95}, {"time": 44400, "pitch": 40, "duration": 34, "velocity": 73}, {"time": 44400, "pitch": 52, "duration": 37, "velocity": 65}, {"time": 44400, "pitch": 67, "duration": 51, "velocity": 76}, {"time": 44640, "pitch": 53, "duration": 342, "velocity": 99}, {"time": 44640, "pitch": 72, "duration": 272, "velocity": 93}, {"time": 44640, "pitch": 77, "duration": 344, "velocity": 93}, {"time": 44880, "pitch": 69, "duration": 48, "velocity": 76}, {"time": 45000, "pitch": 53, "duration": 377, "velocity": 81}, {"time": 45121, "pitch": 69, "duration": 91, "velocity": 81}, {"time": 45121, "pitch": 72, "duration": 117, "velocity": 91}, {"time": 45121, "pitch": 77, "duration": 97, "velocity": 99}, {"time": 45361, "pitch": 41, "duration": 10, "velocity": 74}, {"time": 45361, "pitch": 69, "duration": 51, "velocity": 76}, {"time": 45481, "pitch": 41, "duration": 51, "velocity": 83}, {"time": 45481, "pitch": 53, "duration": 51, "velocity": 74}, {"time": 45601, "pitch": 40, "duration": 507, "velocity": 81}, {"time": 45601, "pitch": 52, "duration": 529, "velocity": 93}, {"time": 45601, "pitch": 67, "duration": 147, "velocity": 93}, {"time": 45601, "pitch": 72, "duration": 282, "velocity": 86}, {"time": 45601, "pitch": 76, "duration": 271, "velocity": 93}, {"time": 45601, "pitch": 79, "duration": 226, "velocity": 90}, {"time": 45841, "pitch": 67, "duration": 50, "velocity": 76}, {"time": 46081, "pitch": 67, "duration": 223, "velocity": 89}, {"time": 46081, "pitch": 72, "duration": 182, "velocity": 89}, {"time": 46081, "pitch": 76, "duration": 231, "velocity": 95}, {"time": 46081, "pitch": 79, "duration": 154, "velocity": 95}, {"time": 46322, "pitch": 40, "duration": 34, "velocity": 73}, {"time": 46322, "pitch": 52, "duration": 37, "velocity": 65}, {"time": 46322, "pitch": 67, "duration": 51, "velocity": 76}, {"time": 46562, "pitch": 41, "duration": 110, "velocity": 93}, {"time": 46562, "pitch": 53, "duration": 111, "velocity": 90}, {"time": 46562, "pitch": 69, "duration": 125, "velocity": 91}, {"time": 46562, "pitch": 72, "duration": 131, "velocity": 99}, {"time": 46802, "pitch": 41, "duration": 42, "velocity": 45}, {"time": 46802, "pitch": 53, "duration": 51, "velocity": 54}, {"time": 46802, "pitch": 69, "duration": 61, "velocity": 57}, {"time": 46802, "pitch": 72, "duration": 35, "velocity": 55}, {"time": 46802, "pitch": 77, "duration": 51, "velocity": 63}, {"time": 47042, "pitch": 41, "duration": 47, "velocity": 83}, {"time": 47042, "pitch": 53, "duration": 50, "velocity": 76}, {"time": 47042, "pitch": 69, "duration": 42, "velocity": 69}, {"time": 47042, "pitch": 72, "duration": 56, "velocity": 83}, {"time": 47042, "pitch": 77, "duration": 56, "velocity": 85}, {"time": 47282, "pitch": 41, "duration": 53, "velocity": 83}, {"time": 47282, "pitch": 53, "duration": 49, "velocity": 64}, {"time": 47282, "pitch": 69, "duration": 41, "velocity": 63}, {"time": 47282, "pitch": 72, "duration": 39, "velocity": 79}, {"time": 47282, "pitch": 77, "duration": 47, "velocity": 83}, {"time": 47523, "pitch": 43, "duration": 239, "velocity": 100}, {"time": 47523, "pitch": 55, "duration": 247, "velocity": 96}, {"time": 47523, "pitch": 67, "duration": 65, "velocity": 96}, {"time": 47523, "pitch": 71, "duration": 217, "velocity": 99}, {"time": 47523, "pitch": 74, "duration": 226, "velocity": 100}, {"time": 47523, "pitch": 79, "duration": 269, "velocity": 100}, {"time": 48478, "pitch": 48, "duration": 855, "velocity": 86}, {"time": 48478, "pitch": 60, "duration": 836, "velocity": 94}, {"time": 48478, "pitch": 67, "duration": 351, "velocity": 88}, {"time": 48478, "pitch": 72, "duration": 420, "velocity": 86}, {"time": 48478, "pitch": 76, "duration": 422, "velocity": 89}, {"time": 48958, "pitch": 67, "duration": 352, "velocity": 90}, {"time": 49078, "pitch": 72, "duration": 228, "velocity": 96}, {"time": 49198, "pitch": 74, "duration": 172, "velocity": 86}, {"time": 49318, "pitch": 76, "duration": 77, "velocity": 98}, {"time": 49439, "pitch": 47, "duration": 971, "velocity": 95}, {"time": 49439, "pitch": 59, "duration": 952, "velocity": 99}, {"time": 49439, "pitch": 67, "duration": 187, "velocity": 86}, {"time": 49439, "pitch": 71, "duration": 190, "velocity": 90}, {"time": 49439, "pitch": 74, "duration": 199, "velocity": 95}, {"time": 49679, "pitch": 67, "duration": 703, "velocity": 86}, {"time": 49679, "pitch": 71, "duration": 367, "velocity": 94}, {"time": 49679, "pitch": 74, "duration": 139, "velocity": 80}, {"time": 49799, "pitch": 79, "duration": 228, "velocity": 89}, {"time": 50039, "pitch": 77, "duration": 97, "velocity": 83}, {"time": 50159, "pitch": 76, "duration": 139, "velocity": 88}, {"time": 50279, "pitch": 77, "duration": 117, "velocity": 71}, {"time": 50399, "pitch": 45, "duration": 938, "velocity": 89}, {"time": 50399, "pitch": 57, "duration": 929, "velocity": 90}, {"time": 50399, "pitch": 69, "duration": 383, "velocity": 92}, {"time": 50399, "pitch": 72, "duration": 461, "velocity": 91}, {"time": 50399, "pitch": 76, "duration": 469, "velocity": 89}, {"time": 50880, "pitch": 69, "duration": 408, "velocity": 93}, {"time": 51000, "pitch": 72, "duration": 276, "velocity": 78}, {"time": 51120, "pitch": 74, "duration": 173, "velocity": 68}, {"time": 51240, "pitch": 76, "duration": 87, "velocity": 97}, {"time": 51360, "pitch": 43, "duration": 886, "velocity": 89}, {"time": 51360, "pitch": 55, "duration": 372, "velocity": 94}, {"time": 51360, "pitch": 67, "duration": 648, "velocity": 89}, {"time": 51360, "pitch": 71, "duration": 717, "velocity": 101}, {"time": 51360, "pitch": 74, "duration": 698, "velocity": 73}, {"time": 51841, "pitch": 55, "duration": 377, "velocity": 99}, {"time": 52081, "pitch": 67, "duration": 185, "velocity": 100}, {"time": 52321, "pitch": 41, "duration": 920, "velocity": 89}, {"time": 52321, "pitch": 53, "duration": 310, "velocity": 88}, {"time": 52321, "pitch": 65, "duration": 400, "velocity": 95}, {"time": 52321, "pitch": 69, "duration": 457, "velocity": 94}, {"time": 52321, "pitch": 72, "duration": 460, "velocity": 79}, {"time": 52802, "pitch": 53, "duration": 430, "velocity": 95}, {"time": 52802, "pitch": 65, "duration": 383, "velocity": 90}, {"time": 52922, "pitch": 69, "duration": 311, "velocity": 80}, {"time": 53042, "pitch": 72, "duration": 139, "velocity": 78}, {"time": 53162, "pitch": 74, "duration": 116, "velocity": 95}, {"time": 53282, "pitch": 40, "duration": 788, "velocity": 80}, {"time": 53282, "pitch": 52, "duration": 335, "velocity": 80}, {"time": 53282, "pitch": 64, "duration": 475, "velocity": 93}, {"time": 53282, "pitch": 72, "duration": 236, "velocity": 88}, {"time": 53522, "pitch": 67, "duration": 6, "velocity": 93}, {"time": 53642, "pitch": 67, "duration": 357, "velocity": 93}, {"time": 53762, "pitch": 52, "duration": 391, "velocity": 90}, {"time": 53762, "pitch": 64, "duration": 237, "velocity": 72}, {"time": 54003, "pitch": 64, "duration": 240, "velocity": 98}, {"time": 54003, "pitch": 76, "duration": 236, "velocity": 80}, {"time": 54243, "pitch": 41, "duration": 879, "velocity": 79}, {"time": 54243, "pitch": 53, "duration": 454, "velocity": 79}, {"time": 54243, "pitch": 65, "duration": 428, "velocity": 75}, {"time": 54243, "pitch": 69, "duration": 431, "velocity": 91}, {"time": 54243, "pitch": 77, "duration": 233, "velocity": 94}, {"time": 54480, "pitch": 76, "duration": 233, "velocity": 97}, {"time": 54717, "pitch": 53, "duration": 406, "velocity": 91}, {"time": 54717, "pitch": 65, "duration": 415, "velocity": 80}, {"time": 54717, "pitch": 69, "duration": 196, "velocity": 99}, {"time": 54717, "pitch": 74, "duration": 143, "velocity": 88}, {"time": 54958, "pitch": 69, "duration": 193, "velocity": 83}, {"time": 54958, "pitch": 72, "duration": 187, "velocity": 91}, {"time": 55198, "pitch": 43, "duration": 392, "velocity": 88}, {"time": 55198, "pitch": 55, "duration": 311, "velocity": 99}, {"time": 55198, "pitch": 65, "duration": 355, "velocity": 89}, {"time": 55198, "pitch": 69, "duration": 371, "velocity": 99}, {"time": 55198, "pitch": 74, "duration": 374, "velocity": 84}, {"time": 55678, "pitch": 43, "duration": 288, "velocity": 86}, {"time": 55678, "pitch": 55, "duration": 300, "velocity": 101}, {"time": 55678, "pitch": 65, "duration": 278, "velocity": 93}, {"time": 55678, "pitch": 69, "duration": 272, "velocity": 102}, {"time": 55678, "pitch": 74, "duration": 273, "velocity": 90}, {"time": 55918, "pitch": 72, "duration": 99, "velocity": 77}, {"time": 56039, "pitch": 72, "duration": 582, "velocity": 77}, {"time": 56159, "pitch": 48, "duration": 961, "velocity": 72}, {"time": 56159, "pitch": 55, "duration": 956, "velocity": 81}, {"time": 56159, "pitch": 64, "duration": 348, "velocity": 75}, {"time": 56159, "pitch": 67, "duration": 581, "velocity": 86}, {"time": 56639, "pitch": 72, "duration": 111, "velocity": 58}, {"time": 56759, "pitch": 64, "duration": 344, "velocity": 49}, {"time": 56879, "pitch": 67, "duration": 230, "velocity": 72}, {"time": 56999, "pitch": 72, "duration": 117, "velocity": 89}, {"time": 57120, "pitch": 31, "duration": 236, "velocity": 73}, {"time": 57120, "pitch": 43, "duration": 956, "velocity": 79}, {"time": 57120, "pitch": 62, "duration": 956, "velocity": 79}, {"time": 57120, "pitch": 65, "duration": 948, "velocity": 61}, {"time": 57120, "pitch": 69, "duration": 956, "velocity": 82}, {"time": 57120, "pitch": 72, "duration": 1572, "velocity": 80}, {"time": 57360, "pitch": 31, "duration": 716, "velocity": 64}, {"time": 57600, "pitch": 74, "duration": 469, "velocity": 72}, {"time": 58080, "pitch": 60, "duration": 802, "velocity": 62}, {"time": 58080, "pitch": 67, "duration": 705, "velocity": 64}, {"time": 58080, "pitch": 76, "duration": 668, "velocity": 83}, {"time": 59041, "pitch": 53, "duration": 708, "velocity": 45}, {"time": 59041, "pitch": 65, "duration": 703, "velocity": 46}, {"time": 59041, "pitch": 69, "duration": 680, "velocity": 50}, {"time": 59041, "pitch": 72, "duration": 700, "velocity": 54}, {"time": 59041, "pitch": 76, "duration": 695, "velocity": 47}, {"time": 60002, "pitch": 55, "duration": 700, "velocity": 49}, {"time": 60002, "pitch": 62, "duration": 721, "velocity": 50}, {"time": 60002, "pitch": 67, "duration": 712, "velocity": 57}, {"time": 60002, "pitch": 71, "duration": 700, "velocity": 49}, {"time": 60002, "pitch": 74, "duration": 721, "velocity": 50}, {"time": 60957, "pitch": 52, "duration": 257, "velocity": 66}, {"time": 60957, "pitch": 62, "duration": 116, "velocity": 63}, {"time": 60957, "pitch": 68, "duration": 221, "velocity": 56}, {"time": 60957, "pitch": 71, "duration": 229, "velocity": 54}, {"time": 61197, "pitch": 64, "duration": 72, "velocity": 55}, {"time": 61437, "pitch": 56, "duration": 514, "velocity": 64}, {"time": 61437, "pitch": 64, "duration": 282, "velocity": 66}, {"time": 61437, "pitch": 68, "duration": 255, "velocity": 74}, {"time": 61437, "pitch": 71, "duration": 246, "velocity": 64}, {"time": 61678, "pitch": 74, "duration": 103, "velocity": 81}, {"time": 61918, "pitch": 57, "duration": 818, "velocity": 52}, {"time": 61918, "pitch": 69, "duration": 769, "velocity": 64}, {"time": 61918, "pitch": 72, "duration": 762, "velocity": 71}, {"time": 61918, "pitch": 76, "duration": 783, "velocity": 59}, {"time": 62879, "pitch": 55, "duration": 802, "velocity": 56}, {"time": 62879, "pitch": 67, "duration": 765, "velocity": 54}, {"time": 62879, "pitch": 71, "duration": 761, "velocity": 59}, {"time": 62879, "pitch": 76, "duration": 768, "velocity": 50}, {"time": 63840, "pitch": 53, "duration": 501, "velocity": 55}, {"time": 63840, "pitch": 65, "duration": 415, "velocity": 55}, {"time": 63840, "pitch": 69, "duration": 379, "velocity": 64}, {"time": 63840, "pitch": 72, "duration": 480, "velocity": 66}, {"time": 64801, "pitch": 43, "duration": 970, "velocity": 87}, {"time": 64801, "pitch": 55, "duration": 353, "velocity": 83}, {"time": 64801, "pitch": 69, "duration": 475, "velocity": 91}, {"time": 64801, "pitch": 72, "duration": 481, "velocity": 90}, {"time": 65041, "pitch": 65, "duration": 233, "velocity": 74}, {"time": 65161, "pitch": 55, "duration": 347, "velocity": 74}, {"time": 65281, "pitch": 65, "duration": 452, "velocity": 83}, {"time": 65281, "pitch": 69, "duration": 394, "velocity": 91}, {"time": 65281, "pitch": 74, "duration": 242, "velocity": 92}, {"time": 65521, "pitch": 55, "duration": 201, "velocity": 72}, {"time": 65521, "pitch": 72, "duration": 201, "velocity": 85}, {"time": 65761, "pitch": 36, "duration": 192, "velocity": 81}, {"time": 65761, "pitch": 48, "duration": 233, "velocity": 72}, {"time": 65761, "pitch": 64, "duration": 276, "velocity": 79}, {"time": 65761, "pitch": 67, "duration": 502, "velocity": 83}, {"time": 65761, "pitch": 72, "duration": 765, "velocity": 83}, {"time": 65761, "pitch": 74, "duration": 55, "velocity": 69}, {"time": 65761, "pitch": 76, "duration": 668, "velocity": 83}, {"time": 66362, "pitch": 64, "duration": 149, "velocity": 60}, {"time": 66722, "pitch": 41, "duration": 770, "velocity": 60}, {"time": 66722, "pitch": 53, "duration": 632, "velocity": 59}, {"time": 66722, "pitch": 65, "duration": 579, "velocity": 59}, {"time": 66722, "pitch": 69, "duration": 679, "velocity": 63}, {"time": 66722, "pitch": 72, "duration": 719, "velocity": 66}, {"time": 66722, "pitch": 76, "duration": 719, "velocity": 64}, {"time": 67440, "pitch": 65, "duration": 46, "velocity": 66}, {"time": 67677, "pitch": 43, "duration": 515, "velocity": 62}, {"time": 67677, "pitch": 55, "duration": 703, "velocity": 49}, {"time": 67677, "pitch": 62, "duration": 265, "velocity": 66}, {"time": 67677, "pitch": 67, "duration": 496, "velocity": 76}, {"time": 67677, "pitch": 71, "duration": 495, "velocity": 76}, {"time": 68158, "pitch": 62, "duration": 243, "velocity": 56}, {"time": 68638, "pitch": 52, "duration": 221, "velocity": 79}, {"time": 68638, "pitch": 62, "duration": 134, "velocity": 79}, {"time": 68638, "pitch": 68, "duration": 235, "velocity": 69}, {"time": 68638, "pitch": 71, "duration": 236, "velocity": 64}, {"time": 68878, "pitch": 64, "duration": 71, "velocity": 63}, {"time": 69118, "pitch": 44, "duration": 245, "velocity": 66}, {"time": 69118, "pitch": 56, "duration": 245, "velocity": 69}, {"time": 69118, "pitch": 64, "duration": 275, "velocity": 83}, {"time": 69118, "pitch": 68, "duration": 249, "velocity": 74}, {"time": 69118, "pitch": 71, "duration": 237, "velocity": 63}, {"time": 69359, "pitch": 74, "duration": 68, "velocity": 85}, {"time": 69599, "pitch": 45, "duration": 720, "velocity": 69}, {"time": 69599, "pitch": 57, "duration": 648, "velocity": 64}, {"time": 69599, "pitch": 64, "duration": 341, "velocity": 64}, {"time": 69599, "pitch": 69, "duration": 503, "velocity": 72}, {"time": 69599, "pitch": 72, "duration": 718, "velocity": 71}, {"time": 69599, "pitch": 76, "duration": 341, "velocity": 64}, {"time": 70320, "pitch": 64, "duration": 71, "velocity": 57}, {"time": 70560, "pitch": 55, "duration": 791, "velocity": 62}, {"time": 70560, "pitch": 64, "duration": 765, "velocity": 63}, {"time": 70560, "pitch": 67, "duration": 759, "velocity": 72}, {"time": 70560, "pitch": 71, "duration": 768, "velocity": 66}, {"time": 70560, "pitch": 76, "duration": 765, "velocity": 63}, {"time": 71521, "pitch": 53, "duration": 956, "velocity": 59}, {"time": 71521, "pitch": 65, "duration": 577, "velocity": 57}, {"time": 71521, "pitch": 69, "duration": 718, "velocity": 61}, {"time": 71521, "pitch": 72, "duration": 715, "velocity": 64}, {"time": 71521, "pitch": 76, "duration": 714, "velocity": 55}, {"time": 72241, "pitch": 65, "duration": 65, "velocity": 59}, {"time": 72482, "pitch": 55, "duration": 515, "velocity": 74}, {"time": 72482, "pitch": 65, "duration": 118, "velocity": 83}, {"time": 72482, "pitch": 69, "duration": 271, "velocity": 87}, {"time": 72482, "pitch": 72, "duration": 267, "velocity": 87}, {"time": 72722, "pitch": 65, "duration": 87, "velocity": 64}, {"time": 72962, "pitch": 53, "duration": 291, "velocity": 87}, {"time": 72962, "pitch": 65, "duration": 139, "velocity": 83}, {"time": 72962, "pitch": 69, "duration": 224, "velocity": 87}, {"time": 72962, "pitch": 72, "duration": 125, "velocity": 87}, {"time": 72962, "pitch": 74, "duration": 107, "velocity": 93}, {"time": 73202, "pitch": 72, "duration": 235, "velocity": 85}, {"time": 73442, "pitch": 52, "duration": 535, "velocity": 83}, {"time": 73442, "pitch": 64, "duration": 148, "velocity": 79}, {"time": 73442, "pitch": 67, "duration": 242, "velocity": 81}, {"time": 73442, "pitch": 71, "duration": 244, "velocity": 87}, {"time": 73442, "pitch": 76, "duration": 742, "velocity": 91}, {"time": 73683, "pitch": 64, "duration": 104, "velocity": 63}, {"time": 73923, "pitch": 64, "duration": 110, "velocity": 76}, {"time": 73923, "pitch": 67, "duration": 245, "velocity": 69}, {"time": 73923, "pitch": 71, "duration": 264, "velocity": 83}, {"time": 74160, "pitch": 64, "duration": 65, "velocity": 56}, {"time": 74160, "pitch": 79, "duration": 54, "velocity": 74}, {"time": 74279, "pitch": 79, "duration": 667, "velocity": 83}, {"time": 74397, "pitch": 52, "duration": 523, "velocity": 91}, {"time": 74397, "pitch": 64, "duration": 170, "velocity": 79}, {"time": 74397, "pitch": 71, "duration": 444, "velocity": 85}, {"time": 74397, "pitch": 74, "duration": 278, "velocity": 83}, {"time": 74638, "pitch": 64, "duration": 247, "velocity": 46}, {"time": 74878, "pitch": 71, "duration": 218, "velocity": 66}, {"time": 74878, "pitch": 74, "duration": 136, "velocity": 76}, {"time": 74998, "pitch": 64, "duration": 134, "velocity": 62}, {"time": 75118, "pitch": 55, "duration": 115, "velocity": 59}, {"time": 75238, "pitch": 54, "duration": 121, "velocity": 61}, {"time": 75358, "pitch": 53, "duration": 527, "velocity": 57}, {"time": 75358, "pitch": 65, "duration": 250, "velocity": 79}, {"time": 75358, "pitch": 69, "duration": 775, "velocity": 63}, {"time": 75358, "pitch": 74, "duration": 783, "velocity": 85}, {"time": 75358, "pitch": 77, "duration": 795, "velocity": 81}, {"time": 75839, "pitch": 65, "duration": 241, "velocity": 66}, {"time": 76079, "pitch": 53, "duration": 121, "velocity": 59}, {"time": 76319, "pitch": 53, "duration": 353, "velocity": 79}, {"time": 76319, "pitch": 64, "duration": 121, "velocity": 83}, {"time": 76319, "pitch": 69, "duration": 479, "velocity": 85}, {"time": 76319, "pitch": 72, "duration": 498, "velocity": 87}, {"time": 76319, "pitch": 76, "duration": 494, "velocity": 85}, {"time": 76559, "pitch": 64, "duration": 262, "velocity": 53}, {"time": 76679, "pitch": 45, "duration": 369, "velocity": 72}, {"time": 76799, "pitch": 53, "duration": 174, "velocity": 64}, {"time": 76799, "pitch": 57, "duration": 369, "velocity": 72}, {"time": 76920, "pitch": 64, "duration": 73, "velocity": 100}, {"time": 76920, "pitch": 69, "duration": 208, "velocity": 93}, {"time": 76920, "pitch": 72, "duration": 189, "velocity": 90}, {"time": 77040, "pitch": 53, "duration": 42, "velocity": 69}, {"time": 77160, "pitch": 64, "duration": 40, "velocity": 59}, {"time": 77280, "pitch": 40, "duration": 535, "velocity": 83}, {"time": 77280, "pitch": 52, "duration": 745, "velocity": 91}, {"time": 77280, "pitch": 64, "duration": 147, "velocity": 79}, {"time": 77280, "pitch": 67, "duration": 241, "velocity": 81}, {"time": 77280, "pitch": 71, "duration": 243, "velocity": 87}, {"time": 77520, "pitch": 64, "duration": 104, "velocity": 63}, {"time": 77760, "pitch": 64, "duration": 111, "velocity": 76}, {"time": 77760, "pitch": 67, "duration": 249, "velocity": 69}, {"time": 77760, "pitch": 71, "duration": 268, "velocity": 83}, {"time": 78001, "pitch": 50, "duration": 115, "velocity": 59}, {"time": 78001, "pitch": 64, "duration": 66, "velocity": 56}, {"time": 78001, "pitch": 79, "duration": 55, "velocity": 74}, {"time": 78121, "pitch": 51, "duration": 121, "velocity": 61}, {"time": 78121, "pitch": 79, "duration": 668, "velocity": 83}, {"time": 78241, "pitch": 52, "duration": 522, "velocity": 91}, {"time": 78241, "pitch": 64, "duration": 170, "velocity": 79}, {"time": 78241, "pitch": 71, "duration": 443, "velocity": 85}, {"time": 78241, "pitch": 74, "duration": 277, "velocity": 83}, {"time": 78481, "pitch": 64, "duration": 247, "velocity": 46}, {"time": 78721, "pitch": 71, "duration": 218, "velocity": 66}, {"time": 78721, "pitch": 74, "duration": 136, "velocity": 76}, {"time": 78841, "pitch": 64, "duration": 134, "velocity": 62}, {"time": 78961, "pitch": 55, "duration": 116, "velocity": 59}, {"time": 79082, "pitch": 54, "duration": 121, "velocity": 61}, {"time": 79202, "pitch": 41, "duration": 960, "velocity": 85}, {"time": 79202, "pitch": 53, "duration": 249, "velocity": 81}, {"time": 79202, "pitch": 65, "duration": 165, "velocity": 81}, {"time": 79202, "pitch": 69, "duration": 270, "velocity": 90}, {"time": 79202, "pitch": 72, "duration": 260, "velocity": 83}, {"time": 79202, "pitch": 77, "duration": 266, "velocity": 76}, {"time": 79442, "pitch": 65, "duration": 91, "velocity": 59}, {"time": 79562, "pitch": 53, "duration": 372, "velocity": 59}, {"time": 79682, "pitch": 65, "duration": 98, "velocity": 79}, {"time": 79682, "pitch": 69, "duration": 244, "velocity": 83}, {"time": 79682, "pitch": 72, "duration": 440, "velocity": 83}, {"time": 79922, "pitch": 52, "duration": 115, "velocity": 59}, {"time": 79922, "pitch": 65, "duration": 130, "velocity": 45}, {"time": 80042, "pitch": 53, "duration": 121, "velocity": 61}, {"time": 80162, "pitch": 43, "duration": 954, "velocity": 85}, {"time": 80162, "pitch": 55, "duration": 213, "velocity": 63}, {"time": 80162, "pitch": 67, "duration": 131, "velocity": 79}, {"time": 80162, "pitch": 71, "duration": 247, "velocity": 91}, {"time": 80162, "pitch": 74, "duration": 260, "velocity": 85}, {"time": 80400, "pitch": 67, "duration": 70, "velocity": 50}, {"time": 80518, "pitch": 55, "duration": 182, "velocity": 62}, {"time": 80637, "pitch": 67, "duration": 65, "velocity": 93}, {"time": 80637, "pitch": 71, "duration": 253, "velocity": 99}, {"time": 80637, "pitch": 74, "duration": 257, "velocity": 93}, {"time": 80877, "pitch": 55, "duration": 40, "velocity": 66}, {"time": 80877, "pitch": 67, "duration": 46, "velocity": 62}, {"time": 81117, "pitch": 41, "duration": 112, "velocity": 93}, {"time": 81117, "pitch": 53, "duration": 112, "velocity": 90}, {"time": 81117, "pitch": 65, "duration": 126, "velocity": 91}, {"time": 81117, "pitch": 69, "duration": 132, "velocity": 99}, {"time": 81358, "pitch": 41, "duration": 42, "velocity": 45}, {"time": 81358, "pitch": 53, "duration": 51, "velocity": 54}, {"time": 81358, "pitch": 65, "duration": 61, "velocity": 57}, {"time": 81358, "pitch": 69, "duration": 35, "velocity": 55}, {"time": 81358, "pitch": 72, "duration": 51, "velocity": 63}, {"time": 81598, "pitch": 41, "duration": 47, "velocity": 83}, {"time": 81598, "pitch": 53, "duration": 50, "velocity": 76}, {"time": 81598, "pitch": 65, "duration": 42, "velocity": 69}, {"time": 81598, "pitch": 69, "duration": 56, "velocity": 83}, {"time": 81598, "pitch": 72, "duration": 56, "velocity": 85}, {"time": 81838, "pitch": 41, "duration": 52, "velocity": 83}, {"time": 81838, "pitch": 53, "duration": 48, "velocity": 64}, {"time": 81838, "pitch": 65, "duration": 40, "velocity": 63}, {"time": 81838, "pitch": 69, "duration": 38, "velocity": 79}, {"time": 81838, "pitch": 72, "duration": 46, "velocity": 83}, {"time": 81958, "pitch": 42, "duration": 52, "velocity": 83}, {"time": 81958, "pitch": 54, "duration": 48, "velocity": 64}, {"time": 82078, "pitch": 43, "duration": 363, "velocity": 100}, {"time": 82078, "pitch": 55, "duration": 251, "velocity": 96}, {"time": 82078, "pitch": 67, "duration": 66, "velocity": 96}, {"time": 82078, "pitch": 71, "duration": 230, "velocity": 100}, {"time": 82078, "pitch": 74, "duration": 273, "velocity": 100}, {"time": 82319, "pitch": 67, "duration": 53, "velocity": 76}, {"time": 82439, "pitch": 55, "duration": 45, "velocity": 72}, {"time": 82559, "pitch": 45, "duration": 69, "velocity": 87}, {"time": 82559, "pitch": 57, "duration": 94, "velocity": 76}, {"time": 82559, "pitch": 65, "duration": 261, "velocity": 83}, {"time": 82559, "pitch": 69, "duration": 262, "velocity": 90}, {"time": 82559, "pitch": 72, "duration": 262, "velocity": 85}, {"time": 82799, "pitch": 47, "duration": 45, "velocity": 59}, {"time": 82799, "pitch": 59, "duration": 41, "velocity": 59}, {"time": 82799, "pitch": 74, "duration": 48, "velocity": 87}, {"time": 83039, "pitch": 48, "duration": 728, "velocity": 81}, {"time": 83039, "pitch": 60, "duration": 545, "velocity": 93}, {"time": 83039, "pitch": 67, "duration": 205, "velocity": 85}, {"time": 83039, "pitch": 72, "duration": 1, "velocity": 91}, {"time": 83039, "pitch": 76, "duration": 280, "velocity": 96}, {"time": 83279, "pitch": 67, "duration": 131, "velocity": 29}, {"time": 83520, "pitch": 67, "duration": 107, "velocity": 85}, {"time": 83520, "pitch": 72, "duration": 251, "velocity": 83}, {"time": 83520, "pitch": 76, "duration": 265, "velocity": 85}, {"time": 83760, "pitch": 60, "duration": 36, "velocity": 59}, {"time": 83760, "pitch": 67, "duration": 42, "velocity": 63}, {"time": 84000, "pitch": 40, "duration": 523, "velocity": 71}, {"time": 84000, "pitch": 52, "duration": 261, "velocity": 91}, {"time": 84000, "pitch": 64, "duration": 133, "velocity": 85}, {"time": 84000, "pitch": 68, "duration": 256, "velocity": 79}, {"time": 84000, "pitch": 71, "duration": 270, "velocity": 91}, {"time": 84000, "pitch": 74, "duration": 269, "velocity": 91}, {"time": 84240, "pitch": 64, "duration": 59, "velocity": 42}, {"time": 84360, "pitch": 59, "duration": 350, "velocity": 59}, {"time": 84481, "pitch": 44, "duration": 221, "velocity": 91}, {"time": 84481, "pitch": 64, "duration": 42, "velocity": 81}, {"time": 84481, "pitch": 68, "duration": 56, "velocity": 79}, {"time": 84481, "pitch": 71, "duration": 54, "velocity": 85}, {"time": 84481, "pitch": 74, "duration": 68, "velocity": 90}, {"time": 84721, "pitch": 47, "duration": 44, "velocity": 55}, {"time": 84961, "pitch": 45, "duration": 546, "velocity": 87}, {"time": 84961, "pitch": 57, "duration": 257, "velocity": 91}, {"time": 84961, "pitch": 69, "duration": 100, "velocity": 85}, {"time": 84961, "pitch": 72, "duration": 247, "velocity": 90}, {"time": 84961, "pitch": 76, "duration": 213, "velocity": 90}, {"time": 85201, "pitch": 69, "duration": 24, "velocity": 53}, {"time": 85321, "pitch": 57, "duration": 377, "velocity": 74}, {"time": 85441, "pitch": 69, "duration": 347, "velocity": 100}, {"time": 85441, "pitch": 72, "duration": 128, "velocity": 105}, {"time": 85441, "pitch": 76, "duration": 97, "velocity": 83}, {"time": 85682, "pitch": 45, "duration": 51, "velocity": 74}, {"time": 85802, "pitch": 72, "duration": 116, "velocity": 60}, {"time": 85922, "pitch": 45, "duration": 221, "velocity": 91}, {"time": 85922, "pitch": 57, "duration": 237, "velocity": 91}, {"time": 85922, "pitch": 69, "duration": 272, "velocity": 85}, {"time": 85922, "pitch": 72, "duration": 270, "velocity": 83}, {"time": 85922, "pitch": 76, "duration": 241, "velocity": 93}, {"time": 86402, "pitch": 45, "duration": 202, "velocity": 83}, {"time": 86402, "pitch": 57, "duration": 138, "velocity": 90}, {"time": 86402, "pitch": 69, "duration": 248, "velocity": 85}, {"time": 86402, "pitch": 72, "duration": 235, "velocity": 85}, {"time": 86402, "pitch": 76, "duration": 220, "velocity": 96}, {"time": 86883, "pitch": 48, "duration": 703, "velocity": 93}, {"time": 86883, "pitch": 60, "duration": 248, "velocity": 96}, {"time": 86883, "pitch": 67, "duration": 137, "velocity": 79}, {"time": 86883, "pitch": 72, "duration": 226, "velocity": 83}, {"time": 86883, "pitch": 76, "duration": 237, "velocity": 83}, {"time": 87120, "pitch": 67, "duration": 35, "velocity": 62}, {"time": 87239, "pitch": 60, "duration": 160, "velocity": 81}, {"time": 87357, "pitch": 72, "duration": 120, "velocity": 87}, {"time": 87357, "pitch": 76, "duration": 267, "velocity": 90}, {"time": 87597, "pitch": 60, "duration": 41, "velocity": 64}, {"time": 87718, "pitch": 72, "duration": 53, "velocity": 53}, {"time": 87838, "pitch": 44, "duration": 237, "velocity": 71}, {"time": 87838, "pitch": 56, "duration": 261, "velocity": 91}, {"time": 87838, "pitch": 68, "duration": 133, "velocity": 108}, {"time": 87838, "pitch": 71, "duration": 256, "velocity": 79}, {"time": 87838, "pitch": 74, "duration": 270, "velocity": 91}, {"time": 87838, "pitch": 77, "duration": 269, "velocity": 73}, {"time": 88078, "pitch": 68, "duration": 59, "velocity": 64}, {"time": 88198, "pitch": 56, "duration": 349, "velocity": 59}, {"time": 88318, "pitch": 44, "duration": 221, "velocity": 91}, {"time": 88318, "pitch": 68, "duration": 42, "velocity": 103}, {"time": 88318, "pitch": 71, "duration": 56, "velocity": 79}, {"time": 88318, "pitch": 74, "duration": 54, "velocity": 85}, {"time": 88318, "pitch": 77, "duration": 68, "velocity": 72}, {"time": 88558, "pitch": 47, "duration": 44, "velocity": 55}, {"time": 88798, "pitch": 45, "duration": 547, "velocity": 87}, {"time": 88798, "pitch": 57, "duration": 258, "velocity": 91}, {"time": 88798, "pitch": 69, "duration": 129, "velocity": 79}, {"time": 88798, "pitch": 72, "duration": 248, "velocity": 90}, {"time": 88798, "pitch": 76, "duration": 214, "velocity": 90}, {"time": 89039, "pitch": 69, "duration": 24, "velocity": 53}, {"time": 89159, "pitch": 57, "duration": 376, "velocity": 74}, {"time": 89279, "pitch": 69, "duration": 346, "velocity": 100}, {"time": 89279, "pitch": 72, "duration": 128, "velocity": 105}, {"time": 89279, "pitch": 76, "duration": 97, "velocity": 83}, {"time": 89519, "pitch": 45, "duration": 51, "velocity": 74}, {"time": 89639, "pitch": 72, "duration": 116, "velocity": 60}, {"time": 89759, "pitch": 45, "duration": 379, "velocity": 90}, {"time": 89759, "pitch": 57, "duration": 251, "velocity": 93}, {"time": 89759, "pitch": 69, "duration": 258, "velocity": 85}, {"time": 89759, "pitch": 72, "duration": 256, "velocity": 96}, {"time": 89759, "pitch": 76, "duration": 260, "velocity": 85}, {"time": 90120, "pitch": 57, "duration": 46, "velocity": 74}, {"time": 90240, "pitch": 45, "duration": 84, "velocity": 87}, {"time": 90240, "pitch": 57, "duration": 99, "velocity": 90}, {"time": 90240, "pitch": 69, "duration": 251, "velocity": 74}, {"time": 90240, "pitch": 72, "duration": 253, "velocity": 90}, {"time": 90240, "pitch": 76, "duration": 226, "velocity": 87}, {"time": 90480, "pitch": 43, "duration": 43, "velocity": 62}, {"time": 90480, "pitch": 55, "duration": 36, "velocity": 72}, {"time": 90720, "pitch": 53, "duration": 343, "velocity": 99}, {"time": 90720, "pitch": 72, "duration": 272, "velocity": 93}, {"time": 90720, "pitch": 77, "duration": 345, "velocity": 93}, {"time": 90960, "pitch": 69, "duration": 48, "velocity": 76}, {"time": 91081, "pitch": 53, "duration": 376, "velocity": 81}, {"time": 91201, "pitch": 69, "duration": 91, "velocity": 81}, {"time": 91201, "pitch": 72, "duration": 117, "velocity": 91}, {"time": 91201, "pitch": 77, "duration": 97, "velocity": 99}, {"time": 91441, "pitch": 41, "duration": 10, "velocity": 74}, {"time": 91441, "pitch": 69, "duration": 51, "velocity": 76}, {"time": 91561, "pitch": 41, "duration": 51, "velocity": 83}, {"time": 91561, "pitch": 53, "duration": 51, "velocity": 74}, {"time": 91681, "pitch": 40, "duration": 508, "velocity": 81}, {"time": 91681, "pitch": 52, "duration": 530, "velocity": 93}, {"time": 91681, "pitch": 67, "duration": 147, "velocity": 93}, {"time": 91681, "pitch": 72, "duration": 281, "velocity": 86}, {"time": 91681, "pitch": 76, "duration": 270, "velocity": 93}, {"time": 91681, "pitch": 79, "duration": 227, "velocity": 90}, {"time": 91921, "pitch": 67, "duration": 51, "velocity": 76}, {"time": 92162, "pitch": 67, "duration": 223, "velocity": 89}, {"time": 92162, "pitch": 72, "duration": 181, "velocity": 89}, {"time": 92162, "pitch": 76, "duration": 229, "velocity": 95}, {"time": 92162, "pitch": 79, "duration": 153, "velocity": 95}, {"time": 92402, "pitch": 40, "duration": 34, "velocity": 73}, {"time": 92402, "pitch": 52, "duration": 37, "velocity": 65}, {"time": 92402, "pitch": 67, "duration": 51, "velocity": 76}, {"time": 92642, "pitch": 53, "duration": 342, "velocity": 99}, {"time": 92642, "pitch": 72, "duration": 272, "velocity": 93}, {"time": 92642, "pitch": 77, "duration": 344, "velocity": 93}, {"time": 92882, "pitch": 69, "duration": 48, "velocity": 76}, {"time": 93002, "pitch": 53, "duration": 377, "velocity": 81}, {"time": 93122, "pitch": 69, "duration": 91, "velocity": 81}, {"time": 93122, "pitch": 72, "duration": 117, "velocity": 91}, {"time": 93122, "pitch": 77, "duration": 97, "velocity": 99}, {"time": 93363, "pitch": 41, "duration": 10, "velocity": 74}, {"time": 93363, "pitch": 69, "duration": 51, "velocity": 76}, {"time": 93483, "pitch": 41, "duration": 51, "velocity": 83}, {"time": 93483, "pitch": 53, "duration": 51, "velocity": 74}, {"time": 93603, "pitch": 40, "duration": 501, "velocity": 81}, {"time": 93603, "pitch": 52, "duration": 523, "velocity": 93}, {"time": 93603, "pitch": 67, "duration": 145, "velocity": 93}, {"time": 93603, "pitch": 72, "duration": 278, "velocity": 86}, {"time": 93603, "pitch": 76, "duration": 267, "velocity": 93}, {"time": 93603, "pitch": 79, "duration": 224, "velocity": 90}, {"time": 93840, "pitch": 67, "duration": 50, "velocity": 76}, {"time": 94077, "pitch": 67, "duration": 224, "velocity": 89}, {"time": 94077, "pitch": 72, "duration": 181, "velocity": 89}, {"time": 94077, "pitch": 76, "duration": 230, "velocity": 95}, {"time": 94077, "pitch": 79, "duration": 153, "velocity": 95}, {"time": 94318, "pitch": 40, "duration": 34, "velocity": 73}, {"time": 94318, "pitch": 52, "duration": 37, "velocity": 65}, {"time": 94318, "pitch": 67, "duration": 51, "velocity": 76}, {"time": 94558, "pitch": 41, "duration": 111, "velocity": 93}, {"time": 94558, "pitch": 53, "duration": 111, "velocity": 90}, {"time": 94558, "pitch": 72, "duration": 272, "velocity": 93}, {"time": 94558, "pitch": 77, "duration": 344, "velocity": 93}, {"time": 94798, "pitch": 41, "duration": 42, "velocity": 45}, {"time": 94798, "pitch": 53, "duration": 51, "velocity": 54}, {"time": 94798, "pitch": 69, "duration": 48, "velocity": 76}, {"time": 95038, "pitch": 41, "duration": 47, "velocity": 83}, {"time": 95038, "pitch": 53, "duration": 50, "velocity": 76}, {"time": 95038, "pitch": 69, "duration": 91, "velocity": 81}, {"time": 95038, "pitch": 72, "duration": 117, "velocity": 91}, {"time": 95038, "pitch": 77, "duration": 97, "velocity": 99}, {"time": 95278, "pitch": 41, "duration": 52, "velocity": 83}, {"time": 95278, "pitch": 53, "duration": 48, "velocity": 64}, {"time": 95278, "pitch": 69, "duration": 40, "velocity": 63}, {"time": 95519, "pitch": 43, "duration": 242, "velocity": 100}, {"time": 95519, "pitch": 55, "duration": 250, "velocity": 96}, {"time": 95519, "pitch": 67, "duration": 66, "velocity": 96}, {"time": 95519, "pitch": 71, "duration": 220, "velocity": 99}, {"time": 95519, "pitch": 74, "duration": 229, "velocity": 100}, {"time": 95519, "pitch": 79, "duration": 272, "velocity": 100}, {"time": 96479, "pitch": 41, "duration": 354, "velocity": 79}, {"time": 96479, "pitch": 53, "duration": 357, "velocity": 83}, {"time": 96479, "pitch": 69, "duration": 244, "velocity": 87}, {"time": 96479, "pitch": 72, "duration": 385, "velocity": 91}, {"time": 96720, "pitch": 65, "duration": 1, "velocity": 79}, {"time": 96840, "pitch": 53, "duration": 473, "velocity": 83}, {"time": 96960, "pitch": 41, "duration": 464, "velocity": 70}, {"time": 96960, "pitch": 69, "duration": 267, "velocity": 90}, {"time": 96960, "pitch": 72, "duration": 384, "velocity": 99}, {"time": 97200, "pitch": 65, "duration": 6, "velocity": 85}, {"time": 97320, "pitch": 42, "duration": 115, "velocity": 65}, {"time": 97440, "pitch": 40, "duration": 523, "velocity": 99}, {"time": 97440, "pitch": 52, "duration": 354, "velocity": 83}, {"time": 97440, "pitch": 64, "duration": 171, "velocity": 85}, {"time": 97440, "pitch": 67, "duration": 444, "velocity": 92}, {"time": 97440, "pitch": 72, "duration": 278, "velocity": 90}, {"time": 97681, "pitch": 64, "duration": 247, "velocity": 54}, {"time": 97801, "pitch": 52, "duration": 473, "velocity": 83}, {"time": 97921, "pitch": 67, "duration": 218, "velocity": 73}, {"time": 97921, "pitch": 72, "duration": 136, "velocity": 83}, {"time": 98041, "pitch": 64, "duration": 134, "velocity": 69}, {"time": 98161, "pitch": 41, "duration": 115, "velocity": 65}, {"time": 98281, "pitch": 40, "duration": 121, "velocity": 67}, {"time": 98401, "pitch": 39, "duration": 527, "velocity": 64}, {"time": 98401, "pitch": 51, "duration": 357, "velocity": 90}, {"time": 98401, "pitch": 67, "duration": 243, "velocity": 94}, {"time": 98401, "pitch": 72, "duration": 385, "velocity": 99}, {"time": 98641, "pitch": 63, "duration": 10, "velocity": 54}, {"time": 98762, "pitch": 51, "duration": 473, "velocity": 83}, {"time": 98882, "pitch": 63, "duration": 15, "velocity": 73}, {"time": 98882, "pitch": 67, "duration": 267, "velocity": 90}, {"time": 98882, "pitch": 72, "duration": 384, "velocity": 99}, {"time": 99122, "pitch": 40, "duration": 121, "velocity": 65}, {"time": 99242, "pitch": 39, "duration": 121, "velocity": 65}, {"time": 99362, "pitch": 50, "duration": 353, "velocity": 85}, {"time": 99362, "pitch": 62, "duration": 121, "velocity": 90}, {"time": 99362, "pitch": 66, "duration": 480, "velocity": 92}, {"time": 99362, "pitch": 69, "duration": 498, "velocity": 94}, {"time": 99362, "pitch": 74, "duration": 494, "velocity": 92}, {"time": 99602, "pitch": 62, "duration": 262, "velocity": 60}, {"time": 99722, "pitch": 38, "duration": 178, "velocity": 80}, {"time": 99843, "pitch": 50, "duration": 173, "velocity": 72}, {"time": 99963, "pitch": 62, "duration": 73, "velocity": 107}, {"time": 99963, "pitch": 66, "duration": 189, "velocity": 96}, {"time": 99963, "pitch": 69, "duration": 208, "velocity": 100}, {"time": 100083, "pitch": 40, "duration": 121, "velocity": 65}, {"time": 100083, "pitch": 50, "duration": 42, "velocity": 75}, {"time": 100203, "pitch": 44, "duration": 121, "velocity": 65}, {"time": 100203, "pitch": 62, "duration": 40, "velocity": 65}, {"time": 100323, "pitch": 45, "duration": 530, "velocity": 90}, {"time": 100323, "pitch": 64, "duration": 145, "velocity": 85}, {"time": 100323, "pitch": 69, "duration": 238, "velocity": 87}, {"time": 100323, "pitch": 72, "duration": 240, "velocity": 94}, {"time": 100560, "pitch": 64, "duration": 103, "velocity": 70}, {"time": 100679, "pitch": 57, "duration": 391, "velocity": 83}, {"time": 100797, "pitch": 64, "duration": 112, "velocity": 83}, {"time": 100797, "pitch": 69, "duration": 249, "velocity": 75}, {"time": 100797, "pitch": 72, "duration": 272, "velocity": 90}, {"time": 101038, "pitch": 46, "duration": 115, "velocity": 65}, {"time": 101038, "pitch": 64, "duration": 66, "velocity": 63}, {"time": 101158, "pitch": 45, "duration": 121, "velocity": 67}, {"time": 101278, "pitch": 44, "duration": 522, "velocity": 99}, {"time": 101278, "pitch": 56, "duration": 353, "velocity": 85}, {"time": 101278, "pitch": 64, "duration": 170, "velocity": 85}, {"time": 101278, "pitch": 68, "duration": 443, "velocity": 92}, {"time": 101278, "pitch": 72, "duration": 277, "velocity": 90}, {"time": 101518, "pitch": 64, "duration": 247, "velocity": 54}, {"time": 101758, "pitch": 56, "duration": 173, "velocity": 72}, {"time": 101758, "pitch": 68, "duration": 219, "velocity": 73}, {"time": 101758, "pitch": 72, "duration": 136, "velocity": 83}, {"time": 101878, "pitch": 64, "duration": 135, "velocity": 69}, {"time": 101999, "pitch": 45, "duration": 115, "velocity": 65}, {"time": 101999, "pitch": 56, "duration": 42, "velocity": 75}, {"time": 102119, "pitch": 44, "duration": 121, "velocity": 67}, {"time": 102239, "pitch": 43, "duration": 960, "velocity": 92}, {"time": 102239, "pitch": 55, "duration": 249, "velocity": 87}, {"time": 102239, "pitch": 64, "duration": 165, "velocity": 87}, {"time": 102239, "pitch": 67, "duration": 270, "velocity": 96}, {"time": 102239, "pitch": 72, "duration": 260, "velocity": 90}, {"time": 102479, "pitch": 64, "duration": 91, "velocity": 65}, {"time": 102599, "pitch": 55, "duration": 372, "velocity": 65}, {"time": 102719, "pitch": 64, "duration": 98, "velocity": 85}, {"time": 102719, "pitch": 67, "duration": 244, "velocity": 90}, {"time": 102719, "pitch": 72, "duration": 441, "velocity": 90}, {"time": 102959, "pitch": 47, "duration": 116, "velocity": 65}, {"time": 102959, "pitch": 64, "duration": 131, "velocity": 52}, {"time": 103080, "pitch": 48, "duration": 121, "velocity": 67}, {"time": 103200, "pitch": 38, "duration": 959, "velocity": 92}, {"time": 103200, "pitch": 50, "duration": 215, "velocity": 70}, {"time": 103200, "pitch": 62, "duration": 132, "velocity": 85}, {"time": 103200, "pitch": 66, "duration": 259, "velocity": 99}, {"time": 103200, "pitch": 69, "duration": 270, "velocity": 92}, {"time": 103440, "pitch": 62, "duration": 71, "velocity": 56}, {"time": 103560, "pitch": 50, "duration": 183, "velocity": 69}, {"time": 103680, "pitch": 62, "duration": 65, "velocity": 100}, {"time": 103680, "pitch": 66, "duration": 253, "velocity": 105}, {"time": 103680, "pitch": 69, "duration": 257, "velocity": 100}, {"time": 103920, "pitch": 50, "duration": 40, "velocity": 73}, {"time": 103920, "pitch": 62, "duration": 46, "velocity": 69}, {"time": 104160, "pitch": 41, "duration": 354, "velocity": 93}, {"time": 104160, "pitch": 53, "duration": 357, "velocity": 99}, {"time": 104160, "pitch": 69, "duration": 244, "velocity": 102}, {"time": 104160, "pitch": 72, "duration": 385, "velocity": 106}, {"time": 104401, "pitch": 65, "duration": 1, "velocity": 93}, {"time": 104521, "pitch": 53, "duration": 473, "velocity": 91}, {"time": 104641, "pitch": 69, "duration": 267, "velocity": 99}, {"time": 104641, "pitch": 72, "duration": 384, "velocity": 106}, {"time": 104881, "pitch": 65, "duration": 6, "velocity": 93}, {"time": 105001, "pitch": 41, "duration": 104, "velocity": 73}, {"time": 105121, "pitch": 41, "duration": 523, "velocity": 106}, {"time": 105121, "pitch": 53, "duration": 354, "velocity": 91}, {"time": 105121, "pitch": 65, "duration": 171, "velocity": 93}, {"time": 105121, "pitch": 69, "duration": 444, "velocity": 100}, {"time": 105121, "pitch": 72, "duration": 278, "velocity": 99}, {"time": 105362, "pitch": 65, "duration": 247, "velocity": 62}, {"time": 105482, "pitch": 53, "duration": 473, "velocity": 91}, {"time": 105602, "pitch": 69, "duration": 218, "velocity": 81}, {"time": 105602, "pitch": 72, "duration": 136, "velocity": 91}, {"time": 105602, "pitch": 79, "duration": 135, "velocity": 91}, {"time": 105722, "pitch": 65, "duration": 134, "velocity": 76}, {"time": 105722, "pitch": 77, "duration": 135, "velocity": 91}, {"time": 105842, "pitch": 41, "duration": 115, "velocity": 73}, {"time": 105842, "pitch": 76, "duration": 135, "velocity": 91}, {"time": 105962, "pitch": 42, "duration": 121, "velocity": 75}, {"time": 106082, "pitch": 43, "duration": 470, "velocity": 72}, {"time": 106082, "pitch": 55, "duration": 357, "velocity": 99}, {"time": 106082, "pitch": 71, "duration": 243, "velocity": 102}, {"time": 106082, "pitch": 74, "duration": 385, "velocity": 106}, {"time": 106322, "pitch": 67, "duration": 10, "velocity": 62}, {"time": 106443, "pitch": 55, "duration": 469, "velocity": 91}, {"time": 106563, "pitch": 67, "duration": 14, "velocity": 81}, {"time": 106563, "pitch": 71, "duration": 264, "velocity": 99}, {"time": 106563, "pitch": 74, "duration": 379, "velocity": 106}, {"time": 106800, "pitch": 67, "duration": 4, "velocity": 93}, {"time": 106919, "pitch": 43, "duration": 1, "velocity": 73}, {"time": 107037, "pitch": 43, "duration": 1, "velocity": 99}, {"time": 107037, "pitch": 55, "duration": 353, "velocity": 93}, {"time": 107037, "pitch": 67, "duration": 121, "velocity": 99}, {"time": 107037, "pitch": 71, "duration": 498, "velocity": 102}, {"time": 107037, "pitch": 74, "duration": 494, "velocity": 100}, {"time": 107277, "pitch": 67, "duration": 262, "velocity": 67}, {"time": 107397, "pitch": 43, "duration": 178, "velocity": 87}, {"time": 107518, "pitch": 55, "duration": 173, "velocity": 80}, {"time": 107638, "pitch": 67, "duration": 73, "velocity": 114}, {"time": 107638, "pitch": 71, "duration": 189, "velocity": 104}, {"time": 107638, "pitch": 74, "duration": 208, "velocity": 108}, {"time": 107758, "pitch": 43, "duration": 7, "velocity": 73}, {"time": 107758, "pitch": 55, "duration": 42, "velocity": 83}, {"time": 107758, "pitch": 79, "duration": 115, "velocity": 85}, {"time": 107878, "pitch": 44, "duration": 121, "velocity": 73}, {"time": 107878, "pitch": 67, "duration": 40, "velocity": 73}, {"time": 107878, "pitch": 80, "duration": 115, "velocity": 85}, {"time": 107998, "pitch": 45, "duration": 356, "velocity": 99}, {"time": 107998, "pitch": 69, "duration": 147, "velocity": 93}, {"time": 107998, "pitch": 76, "duration": 243, "velocity": 102}, {"time": 107998, "pitch": 81, "duration": 243, "velocity": 102}, {"time": 108238, "pitch": 69, "duration": 104, "velocity": 77}, {"time": 108238, "pitch": 72, "duration": 1, "velocity": 77}, {"time": 108358, "pitch": 57, "duration": 393, "velocity": 91}, {"time": 108478, "pitch": 45, "duration": 356, "velocity": 73}, {"time": 108478, "pitch": 64, "duration": 272, "velocity": 99}, {"time": 108478, "pitch": 69, "duration": 112, "velocity": 91}, {"time": 108478, "pitch": 71, "duration": 249, "velocity": 83}, {"time": 108478, "pitch": 76, "duration": 249, "velocity": 83}, {"time": 108719, "pitch": 69, "duration": 66, "velocity": 72}, {"time": 108839, "pitch": 40, "duration": 121, "velocity": 75}, {"time": 108959, "pitch": 38, "duration": 484, "velocity": 106}, {"time": 108959, "pitch": 57, "duration": 353, "velocity": 93}, {"time": 108959, "pitch": 64, "duration": 443, "velocity": 100}, {"time": 108959, "pitch": 69, "duration": 170, "velocity": 93}, {"time": 108959, "pitch": 74, "duration": 248, "velocity": 83}, {"time": 108959, "pitch": 76, "duration": 136, "velocity": 91}, {"time": 109199, "pitch": 69, "duration": 247, "velocity": 62}, {"time": 109439, "pitch": 40, "duration": 224, "velocity": 73}, {"time": 109439, "pitch": 57, "duration": 172, "velocity": 80}, {"time": 109439, "pitch": 64, "duration": 219, "velocity": 81}, {"time": 109439, "pitch": 71, "duration": 248, "velocity": 83}, {"time": 109439, "pitch": 76, "duration": 135, "velocity": 91}, {"time": 109559, "pitch": 69, "duration": 135, "velocity": 76}, {"time": 109680, "pitch": 44, "duration": 115, "velocity": 65}, {"time": 109680, "pitch": 57, "duration": 42, "velocity": 83}, {"time": 109920, "pitch": 45, "duration": 960, "velocity": 100}, {"time": 109920, "pitch": 57, "duration": 248, "velocity": 95}, {"time": 109920, "pitch": 69, "duration": 165, "velocity": 95}, {"time": 109920, "pitch": 73, "duration": 270, "velocity": 104}, {"time": 109920, "pitch": 76, "duration": 260, "velocity": 99}, {"time": 110160, "pitch": 69, "duration": 91, "velocity": 73}, {"time": 110280, "pitch": 57, "duration": 372, "velocity": 73}, {"time": 110400, "pitch": 69, "duration": 98, "velocity": 93}, {"time": 110400, "pitch": 73, "duration": 245, "velocity": 99}, {"time": 110400, "pitch": 76, "duration": 441, "velocity": 99}, {"time": 110640, "pitch": 55, "duration": 116, "velocity": 73}, {"time": 110640, "pitch": 69, "duration": 131, "velocity": 60}, {"time": 110761, "pitch": 56, "duration": 121, "velocity": 75}, {"time": 110881, "pitch": 45, "duration": 215, "velocity": 77}, {"time": 110881, "pitch": 57, "duration": 239, "velocity": 100}, {"time": 110881, "pitch": 69, "duration": 132, "velocity": 93}, {"time": 110881, "pitch": 73, "duration": 248, "velocity": 106}, {"time": 110881, "pitch": 76, "duration": 262, "velocity": 100}, {"time": 111841, "pitch": 48, "duration": 704, "velocity": 83}, {"time": 111841, "pitch": 60, "duration": 525, "velocity": 100}, {"time": 111841, "pitch": 67, "duration": 171, "velocity": 100}, {"time": 111841, "pitch": 72, "duration": 273, "velocity": 99}, {"time": 111841, "pitch": 76, "duration": 269, "velocity": 99}, {"time": 111841, "pitch": 79, "duration": 257, "velocity": 93}, {"time": 112322, "pitch": 67, "duration": 77, "velocity": 85}, {"time": 112322, "pitch": 72, "duration": 330, "velocity": 85}, {"time": 112322, "pitch": 76, "duration": 329, "velocity": 90}, {"time": 112322, "pitch": 79, "duration": 312, "velocity": 93}, {"time": 112562, "pitch": 60, "duration": 47, "velocity": 81}, {"time": 112682, "pitch": 67, "duration": 66, "velocity": 59}, {"time": 112802, "pitch": 40, "duration": 252, "velocity": 64}, {"time": 112802, "pitch": 52, "duration": 271, "velocity": 83}, {"time": 112802, "pitch": 64, "duration": 149, "velocity": 83}, {"time": 112802, "pitch": 68, "duration": 257, "velocity": 79}, {"time": 112802, "pitch": 71, "duration": 252, "velocity": 87}, {"time": 112802, "pitch": 76, "duration": 224, "velocity": 93}, {"time": 113043, "pitch": 64, "duration": 40, "velocity": 66}, {"time": 113163, "pitch": 52, "duration": 182, "velocity": 60}, {"time": 113283, "pitch": 44, "duration": 367, "velocity": 64}, {"time": 113283, "pitch": 64, "duration": 150, "velocity": 83}, {"time": 113283, "pitch": 68, "duration": 198, "velocity": 76}, {"time": 113283, "pitch": 71, "duration": 261, "velocity": 85}, {"time": 113283, "pitch": 76, "duration": 166, "velocity": 83}, {"time": 113520, "pitch": 52, "duration": 49, "velocity": 74}, {"time": 113757, "pitch": 45, "duration": 723, "velocity": 83}, {"time": 113757, "pitch": 57, "duration": 251, "velocity": 85}, {"time": 113757, "pitch": 69, "duration": 129, "velocity": 83}, {"time": 113757, "pitch": 72, "duration": 263, "velocity": 93}, {"time": 113757, "pitch": 76, "duration": 255, "velocity": 93}, {"time": 113998, "pitch": 69, "duration": 43, "velocity": 61}, {"time": 114118, "pitch": 57, "duration": 163, "velocity": 74}, {"time": 114238, "pitch": 69, "duration": 111, "velocity": 81}, {"time": 114238, "pitch": 72, "duration": 128, "velocity": 83}, {"time": 114238, "pitch": 76, "duration": 137, "velocity": 85}, {"time": 114478, "pitch": 57, "duration": 56, "velocity": 85}, {"time": 114598, "pitch": 69, "duration": 77, "velocity": 63}, {"time": 114718, "pitch": 45, "duration": 236, "velocity": 90}, {"time": 114718, "pitch": 57, "duration": 262, "velocity": 91}, {"time": 114718, "pitch": 69, "duration": 134, "velocity": 79}, {"time": 114718, "pitch": 72, "duration": 275, "velocity": 83}, {"time": 114718, "pitch": 76, "duration": 265, "velocity": 96}, {"time": 114958, "pitch": 69, "duration": 49, "velocity": 85}, {"time": 115199, "pitch": 45, "duration": 215, "velocity": 74}, {"time": 115199, "pitch": 57, "duration": 163, "velocity": 79}, {"time": 115199, "pitch": 69, "duration": 82, "velocity": 79}, {"time": 115199, "pitch": 72, "duration": 141, "velocity": 87}, {"time": 115199, "pitch": 76, "duration": 232, "velocity": 66}, {"time": 115439, "pitch": 69, "duration": 34, "velocity": 64}, {"time": 115439, "pitch": 77, "duration": 115, "velocity": 83}, {"time": 115679, "pitch": 48, "duration": 704, "velocity": 91}, {"time": 115679, "pitch": 60, "duration": 258, "velocity": 100}, {"time": 115679, "pitch": 67, "duration": 121, "velocity": 87}, {"time": 115679, "pitch": 72, "duration": 236, "velocity": 83}, {"time": 115679, "pitch": 76, "duration": 236, "velocity": 91}, {"time": 115919, "pitch": 67, "duration": 24, "velocity": 59}, {"time": 116039, "pitch": 60, "duration": 155, "velocity": 81}, {"time": 116159, "pitch": 76, "duration": 263, "velocity": 74}, {"time": 116159, "pitch": 81, "duration": 144, "velocity": 91}, {"time": 116280, "pitch": 83, "duration": 107, "velocity": 61}, {"time": 116400, "pitch": 60, "duration": 47, "velocity": 81}, {"time": 116400, "pitch": 84, "duration": 58, "velocity": 85}, {"time": 116640, "pitch": 44, "duration": 723, "velocity": 90}, {"time": 116640, "pitch": 56, "duration": 261, "velocity": 96}, {"time": 116640, "pitch": 74, "duration": 126, "velocity": 83}, {"time": 116640, "pitch": 80, "duration": 245, "velocity": 96}, {"time": 116640, "pitch": 86, "duration": 221, "velocity": 100}, {"time": 116880, "pitch": 74, "duration": 32, "velocity": 62}, {"time": 117000, "pitch": 56, "duration": 167, "velocity": 66}, {"time": 117120, "pitch": 68, "duration": 84, "velocity": 79}, {"time": 117120, "pitch": 74, "duration": 246, "velocity": 83}, {"time": 117120, "pitch": 80, "duration": 241, "velocity": 83}, {"time": 117120, "pitch": 83, "duration": 241, "velocity": 83}, {"time": 117361, "pitch": 56, "duration": 49, "velocity": 83}, {"time": 117361, "pitch": 68, "duration": 39, "velocity": 69}, {"time": 117601, "pitch": 33, "duration": 709, "velocity": 87}, {"time": 117601, "pitch": 45, "duration": 247, "velocity": 87}, {"time": 117601, "pitch": 72, "duration": 260, "velocity": 100}, {"time": 117601, "pitch": 76, "duration": 216, "velocity": 100}, {"time": 117601, "pitch": 83, "duration": 234, "velocity": 83}, {"time": 117841, "pitch": 76, "duration": 40, "velocity": 83}, {"time": 117841, "pitch": 81, "duration": 266, "velocity": 100}, {"time": 117961, "pitch": 45, "duration": 172, "velocity": 71}, {"time": 118081, "pitch": 64, "duration": 82, "velocity": 96}, {"time": 118081, "pitch": 69, "duration": 249, "velocity": 103}, {"time": 118081, "pitch": 72, "duration": 237, "velocity": 96}, {"time": 118321, "pitch": 50, "duration": 43, "velocity": 79}, {"time": 118321, "pitch": 64, "duration": 36, "velocity": 72}, {"time": 118442, "pitch": 44, "duration": 64, "velocity": 91}, {"time": 118562, "pitch": 45, "duration": 365, "velocity": 96}, {"time": 118562, "pitch": 57, "duration": 252, "velocity": 100}, {"time": 118562, "pitch": 64, "duration": 110, "velocity": 87}, {"time": 118562, "pitch": 69, "duration": 262, "velocity": 99}, {"time": 118562, "pitch": 72, "duration": 263, "velocity": 96}, {"time": 118802, "pitch": 64, "duration": 43, "velocity": 66}, {"time": 118922, "pitch": 57, "duration": 48, "velocity": 81}, {"time": 119042, "pitch": 33, "duration": 365, "velocity": 96}, {"time": 119042, "pitch": 45, "duration": 61, "velocity": 91}, {"time": 119042, "pitch": 57, "duration": 93, "velocity": 83}, {"time": 119042, "pitch": 64, "duration": 112, "velocity": 90}, {"time": 119042, "pitch": 72, "duration": 237, "velocity": 96}, {"time": 119042, "pitch": 76, "duration": 240, "velocity": 99}, {"time": 119282, "pitch": 43, "duration": 115, "velocity": 79}, {"time": 119282, "pitch": 57, "duration": 32, "velocity": 81}, {"time": 119282, "pitch": 64, "duration": 42, "velocity": 76}, {"time": 119522, "pitch": 53, "duration": 343, "velocity": 99}, {"time": 119522, "pitch": 72, "duration": 273, "velocity": 93}, {"time": 119522, "pitch": 77, "duration": 345, "velocity": 93}, {"time": 119763, "pitch": 69, "duration": 48, "velocity": 76}, {"time": 119883, "pitch": 53, "duration": 373, "velocity": 81}, {"time": 120003, "pitch": 69, "duration": 90, "velocity": 81}, {"time": 120003, "pitch": 72, "duration": 116, "velocity": 91}, {"time": 120003, "pitch": 77, "duration": 96, "velocity": 99}, {"time": 120240, "pitch": 41, "duration": 10, "velocity": 74}, {"time": 120240, "pitch": 69, "duration": 51, "velocity": 76}, {"time": 120359, "pitch": 41, "duration": 50, "velocity": 83}, {"time": 120359, "pitch": 53, "duration": 50, "velocity": 74}, {"time": 120477, "pitch": 40, "duration": 508, "velocity": 81}, {"time": 120477, "pitch": 52, "duration": 530, "velocity": 93}, {"time": 120477, "pitch": 67, "duration": 148, "velocity": 93}, {"time": 120477, "pitch": 72, "duration": 282, "velocity": 86}, {"time": 120477, "pitch": 76, "duration": 271, "velocity": 93}, {"time": 120477, "pitch": 79, "duration": 228, "velocity": 90}, {"time": 120718, "pitch": 67, "duration": 51, "velocity": 76}, {"time": 120958, "pitch": 67, "duration": 223, "velocity": 89}, {"time": 120958, "pitch": 72, "duration": 181, "velocity": 89}, {"time": 120958, "pitch": 76, "duration": 229, "velocity": 95}, {"time": 120958, "pitch": 79, "duration": 153, "velocity": 95}, {"time": 121198, "pitch": 40, "duration": 34, "velocity": 73}, {"time": 121198, "pitch": 52, "duration": 37, "velocity": 65}, {"time": 121198, "pitch": 67, "duration": 51, "velocity": 76}, {"time": 121438, "pitch": 53, "duration": 343, "velocity": 99}, {"time": 121438, "pitch": 72, "duration": 273, "velocity": 93}, {"time": 121438, "pitch": 77, "duration": 345, "velocity": 93}, {"time": 121679, "pitch": 69, "duration": 48, "velocity": 76}, {"time": 121799, "pitch": 53, "duration": 376, "velocity": 81}, {"time": 121919, "pitch": 69, "duration": 91, "velocity": 81}, {"time": 121919, "pitch": 72, "duration": 117, "velocity": 91}, {"time": 121919, "pitch": 77, "duration": 97, "velocity": 99}, {"time": 122159, "pitch": 41, "duration": 10, "velocity": 74}, {"time": 122159, "pitch": 69, "duration": 51, "velocity": 76}, {"time": 122279, "pitch": 41, "duration": 51, "velocity": 83}, {"time": 122279, "pitch": 53, "duration": 51, "velocity": 74}, {"time": 122399, "pitch": 40, "duration": 508, "velocity": 81}, {"time": 122399, "pitch": 52, "duration": 530, "velocity": 93}, {"time": 122399, "pitch": 67, "duration": 147, "velocity": 93}, {"time": 122399, "pitch": 72, "duration": 281, "velocity": 86}, {"time": 122399, "pitch": 76, "duration": 270, "velocity": 93}, {"time": 122399, "pitch": 79, "duration": 227, "velocity": 90}, {"time": 122639, "pitch": 67, "duration": 51, "velocity": 76}, {"time": 122880, "pitch": 67, "duration": 223, "velocity": 89}, {"time": 122880, "pitch": 72, "duration": 181, "velocity": 89}, {"time": 122880, "pitch": 76, "duration": 229, "velocity": 95}, {"time": 122880, "pitch": 79, "duration": 153, "velocity": 95}, {"time": 123120, "pitch": 40, "duration": 34, "velocity": 73}, {"time": 123120, "pitch": 52, "duration": 37, "velocity": 65}, {"time": 123120, "pitch": 67, "duration": 51, "velocity": 76}, {"time": 123360, "pitch": 41, "duration": 111, "velocity": 93}, {"time": 123360, "pitch": 53, "duration": 111, "velocity": 90}, {"time": 123360, "pitch": 72, "duration": 272, "velocity": 93}, {"time": 123360, "pitch": 77, "duration": 344, "velocity": 93}, {"time": 123600, "pitch": 41, "duration": 42, "velocity": 45}, {"time": 123600, "pitch": 53, "duration": 51, "velocity": 54}, {"time": 123600, "pitch": 69, "duration": 48, "velocity": 76}, {"time": 123840, "pitch": 41, "duration": 48, "velocity": 83}, {"time": 123840, "pitch": 53, "duration": 51, "velocity": 76}, {"time": 123840, "pitch": 69, "duration": 92, "velocity": 81}, {"time": 123840, "pitch": 72, "duration": 118, "velocity": 91}, {"time": 123840, "pitch": 77, "duration": 98, "velocity": 99}, {"time": 124081, "pitch": 41, "duration": 52, "velocity": 83}, {"time": 124081, "pitch": 53, "duration": 48, "velocity": 64}, {"time": 124081, "pitch": 69, "duration": 40, "velocity": 63}, {"time": 124321, "pitch": 43, "duration": 242, "velocity": 100}, {"time": 124321, "pitch": 55, "duration": 250, "velocity": 96}, {"time": 124321, "pitch": 67, "duration": 66, "velocity": 96}, {"time": 124321, "pitch": 71, "duration": 220, "velocity": 99}, {"time": 124321, "pitch": 74, "duration": 229, "velocity": 100}, {"time": 124321, "pitch": 79, "duration": 272, "velocity": 100}, {"time": 125282, "pitch": 57, "duration": 342, "velocity": 99}, {"time": 125282, "pitch": 72, "duration": 272, "velocity": 93}, {"time": 125282, "pitch": 76, "duration": 344, "velocity": 93}, {"time": 125522, "pitch": 69, "duration": 48, "velocity": 76}, {"time": 125642, "pitch": 57, "duration": 376, "velocity": 81}, {"time": 125762, "pitch": 69, "duration": 91, "velocity": 81}, {"time": 125762, "pitch": 72, "duration": 117, "velocity": 91}, {"time": 125762, "pitch": 76, "duration": 97, "velocity": 99}, {"time": 126002, "pitch": 45, "duration": 10, "velocity": 74}, {"time": 126002, "pitch": 69, "duration": 51, "velocity": 76}, {"time": 126123, "pitch": 45, "duration": 51, "velocity": 83}, {"time": 126123, "pitch": 57, "duration": 51, "velocity": 74}, {"time": 126243, "pitch": 44, "duration": 501, "velocity": 81}, {"time": 126243, "pitch": 56, "duration": 523, "velocity": 93}, {"time": 126243, "pitch": 68, "duration": 145, "velocity": 93}, {"time": 126243, "pitch": 72, "duration": 277, "velocity": 86}, {"time": 126243, "pitch": 76, "duration": 267, "velocity": 93}, {"time": 126480, "pitch": 68, "duration": 50, "velocity": 76}, {"time": 126717, "pitch": 68, "duration": 223, "velocity": 89}, {"time": 126717, "pitch": 72, "duration": 181, "velocity": 89}, {"time": 126717, "pitch": 76, "duration": 229, "velocity": 95}, {"time": 126957, "pitch": 44, "duration": 34, "velocity": 73}, {"time": 126957, "pitch": 56, "duration": 37, "velocity": 65}, {"time": 126957, "pitch": 68, "duration": 51, "velocity": 76}, {"time": 127077, "pitch": 44, "duration": 52, "velocity": 83}, {"time": 127198, "pitch": 55, "duration": 342, "velocity": 99}, {"time": 127198, "pitch": 72, "duration": 272, "velocity": 93}, {"time": 127198, "pitch": 76, "duration": 344, "velocity": 93}, {"time": 127438, "pitch": 67, "duration": 48, "velocity": 76}, {"time": 127558, "pitch": 55, "duration": 376, "velocity": 81}, {"time": 127678, "pitch": 67, "duration": 91, "velocity": 81}, {"time": 127678, "pitch": 72, "duration": 117, "velocity": 91}, {"time": 127678, "pitch": 76, "duration": 97, "velocity": 99}, {"time": 127918, "pitch": 43, "duration": 10, "velocity": 74}, {"time": 127918, "pitch": 67, "duration": 51, "velocity": 76}, {"time": 128038, "pitch": 43, "duration": 51, "velocity": 83}, {"time": 128038, "pitch": 55, "duration": 51, "velocity": 74}, {"time": 128158, "pitch": 42, "duration": 508, "velocity": 81}, {"time": 128158, "pitch": 54, "duration": 530, "velocity": 93}, {"time": 128158, "pitch": 66, "duration": 148, "velocity": 93}, {"time": 128158, "pitch": 72, "duration": 282, "velocity": 86}, {"time": 128158, "pitch": 76, "duration": 271, "velocity": 93}, {"time": 128399, "pitch": 66, "duration": 51, "velocity": 76}, {"time": 128639, "pitch": 66, "duration": 223, "velocity": 89}, {"time": 128639, "pitch": 69, "duration": 281, "velocity": 86}, {"time": 128639, "pitch": 72, "duration": 181, "velocity": 89}, {"time": 128639, "pitch": 76, "duration": 229, "velocity": 95}, {"time": 128879, "pitch": 42, "duration": 34, "velocity": 73}, {"time": 128879, "pitch": 54, "duration": 37, "velocity": 65}, {"time": 128879, "pitch": 66, "duration": 51, "velocity": 76}, {"time": 129119, "pitch": 41, "duration": 111, "velocity": 93}, {"time": 129119, "pitch": 53, "duration": 111, "velocity": 90}, {"time": 129119, "pitch": 69, "duration": 164, "velocity": 90}, {"time": 129119, "pitch": 72, "duration": 273, "velocity": 93}, {"time": 129119, "pitch": 77, "duration": 345, "velocity": 93}, {"time": 129360, "pitch": 41, "duration": 42, "velocity": 45}, {"time": 129360, "pitch": 53, "duration": 51, "velocity": 54}, {"time": 129360, "pitch": 69, "duration": 51, "velocity": 76}, {"time": 129600, "pitch": 41, "duration": 47, "velocity": 83}, {"time": 129600, "pitch": 53, "duration": 50, "velocity": 76}, {"time": 129600, "pitch": 69, "duration": 91, "velocity": 81}, {"time": 129600, "pitch": 72, "duration": 117, "velocity": 91}, {"time": 129600, "pitch": 77, "duration": 97, "velocity": 99}, {"time": 129840, "pitch": 41, "duration": 52, "velocity": 83}, {"time": 129840, "pitch": 53, "duration": 48, "velocity": 64}, {"time": 129840, "pitch": 69, "duration": 40, "velocity": 63}, {"time": 130080, "pitch": 43, "duration": 242, "velocity": 100}, {"time": 130080, "pitch": 55, "duration": 250, "velocity": 96}, {"time": 130080, "pitch": 67, "duration": 66, "velocity": 96}, {"time": 130080, "pitch": 71, "duration": 220, "velocity": 99}, {"time": 130080, "pitch": 74, "duration": 229, "velocity": 100}, {"time": 130080, "pitch": 79, "duration": 272, "velocity": 100}, {"time": 131041, "pitch": 48, "duration": 856, "velocity": 89}, {"time": 131041, "pitch": 60, "duration": 837, "velocity": 96}, {"time": 131041, "pitch": 67, "duration": 351, "velocity": 96}, {"time": 131041, "pitch": 72, "duration": 420, "velocity": 95}, {"time": 131041, "pitch": 76, "duration": 422, "velocity": 99}, {"time": 131521, "pitch": 67, "duration": 353, "velocity": 94}, {"time": 131642, "pitch": 72, "duration": 228, "velocity": 90}, {"time": 131762, "pitch": 74, "duration": 172, "velocity": 89}, {"time": 131882, "pitch": 76, "duration": 77, "velocity": 114}, {"time": 132002, "pitch": 47, "duration": 972, "velocity": 97}, {"time": 132002, "pitch": 59, "duration": 953, "velocity": 99}, {"time": 132002, "pitch": 67, "duration": 187, "velocity": 89}, {"time": 132002, "pitch": 71, "duration": 190, "velocity": 80}, {"time": 132002, "pitch": 74, "duration": 199, "velocity": 105}, {"time": 132242, "pitch": 67, "duration": 704, "velocity": 89}, {"time": 132242, "pitch": 71, "duration": 367, "velocity": 96}, {"time": 132242, "pitch": 74, "duration": 139, "velocity": 105}, {"time": 132362, "pitch": 79, "duration": 228, "velocity": 100}, {"time": 132602, "pitch": 77, "duration": 98, "velocity": 86}, {"time": 132723, "pitch": 76, "duration": 139, "velocity": 90}, {"time": 132843, "pitch": 77, "duration": 117, "velocity": 75}, {"time": 132963, "pitch": 45, "duration": 932, "velocity": 90}, {"time": 132963, "pitch": 57, "duration": 923, "velocity": 92}, {"time": 132963, "pitch": 69, "duration": 377, "velocity": 94}, {"time": 132963, "pitch": 72, "duration": 455, "velocity": 93}, {"time": 132963, "pitch": 76, "duration": 462, "velocity": 90}, {"time": 133437, "pitch": 69, "duration": 409, "velocity": 95}, {"time": 133557, "pitch": 72, "duration": 277, "velocity": 81}, {"time": 133677, "pitch": 74, "duration": 174, "velocity": 72}, {"time": 133798, "pitch": 76, "duration": 87, "velocity": 99}, {"time": 133918, "pitch": 43, "duration": 886, "velocity": 91}, {"time": 133918, "pitch": 55, "duration": 371, "velocity": 96}, {"time": 133918, "pitch": 67, "duration": 647, "velocity": 91}, {"time": 133918, "pitch": 71, "duration": 716, "velocity": 102}, {"time": 133918, "pitch": 74, "duration": 697, "velocity": 77}, {"time": 134398, "pitch": 55, "duration": 377, "velocity": 100}, {"time": 134638, "pitch": 67, "duration": 186, "velocity": 101}, {"time": 134879, "pitch": 41, "duration": 919, "velocity": 91}, {"time": 134879, "pitch": 53, "duration": 310, "velocity": 90}, {"time": 134879, "pitch": 65, "duration": 400, "velocity": 97}, {"time": 134879, "pitch": 69, "duration": 456, "velocity": 96}, {"time": 134879, "pitch": 72, "duration": 459, "velocity": 82}, {"time": 135359, "pitch": 53, "duration": 430, "velocity": 106}, {"time": 135359, "pitch": 65, "duration": 383, "velocity": 102}, {"time": 135479, "pitch": 69, "duration": 311, "velocity": 83}, {"time": 135599, "pitch": 72, "duration": 139, "velocity": 81}, {"time": 135719, "pitch": 74, "duration": 116, "velocity": 106}, {"time": 135839, "pitch": 40, "duration": 788, "velocity": 83}, {"time": 135839, "pitch": 52, "duration": 336, "velocity": 83}, {"time": 135839, "pitch": 64, "duration": 476, "velocity": 95}, {"time": 135839, "pitch": 72, "duration": 237, "velocity": 90}, {"time": 136080, "pitch": 67, "duration": 6, "velocity": 104}, {"time": 136200, "pitch": 67, "duration": 356, "velocity": 104}, {"time": 136320, "pitch": 52, "duration": 390, "velocity": 92}, {"time": 136320, "pitch": 64, "duration": 236, "velocity": 76}, {"time": 136560, "pitch": 76, "duration": 236, "velocity": 100}, {"time": 136800, "pitch": 41, "duration": 885, "velocity": 82}, {"time": 136800, "pitch": 53, "duration": 460, "velocity": 82}, {"time": 136800, "pitch": 65, "duration": 434, "velocity": 79}, {"time": 136800, "pitch": 69, "duration": 437, "velocity": 93}, {"time": 136800, "pitch": 77, "duration": 237, "velocity": 96}, {"time": 137041, "pitch": 76, "duration": 236, "velocity": 99}, {"time": 137281, "pitch": 53, "duration": 405, "velocity": 93}, {"time": 137281, "pitch": 65, "duration": 414, "velocity": 83}, {"time": 137281, "pitch": 69, "duration": 195, "velocity": 99}, {"time": 137281, "pitch": 74, "duration": 143, "velocity": 90}, {"time": 137521, "pitch": 69, "duration": 193, "velocity": 86}, {"time": 137521, "pitch": 72, "duration": 187, "velocity": 93}, {"time": 137761, "pitch": 43, "duration": 393, "velocity": 90}, {"time": 137761, "pitch": 55, "duration": 311, "velocity": 99}, {"time": 137761, "pitch": 65, "duration": 355, "velocity": 91}, {"time": 137761, "pitch": 69, "duration": 372, "velocity": 100}, {"time": 137761, "pitch": 74, "duration": 375, "velocity": 87}, {"time": 138242, "pitch": 43, "duration": 288, "velocity": 89}, {"time": 138242, "pitch": 55, "duration": 300, "velocity": 102}, {"time": 138242, "pitch": 65, "duration": 278, "velocity": 95}, {"time": 138242, "pitch": 69, "duration": 272, "velocity": 103}, {"time": 138242, "pitch": 74, "duration": 273, "velocity": 92}, {"time": 138482, "pitch": 72, "duration": 98, "velocity": 92}, {"time": 138602, "pitch": 72, "duration": 399, "velocity": 92}, {"time": 138720, "pitch": 48, "duration": 1043, "velocity": 81}, {"time": 138720, "pitch": 55, "duration": 1038, "velocity": 90}, {"time": 138720, "pitch": 64, "duration": 65, "velocity": 83}, {"time": 138720, "pitch": 67, "duration": 946, "velocity": 93}, {"time": 139147, "pitch": 72, "duration": 522, "velocity": 75}, {"time": 139669, "pitch": 64, "duration": 83, "velocity": 69}, {"time": 139696, "pitch": 67, "duration": 62, "velocity": 90}, {"time": 139727, "pitch": 72, "duration": 31, "velocity": 103}, {"time": 139763, "pitch": 31, "duration": 72, "velocity": 90}, {"time": 139763, "pitch": 43, "duration": 869, "velocity": 94}, {"time": 139763, "pitch": 62, "duration": 869, "velocity": 94}, {"time": 139763, "pitch": 65, "duration": 857, "velocity": 80}, {"time": 139763, "pitch": 69, "duration": 869, "velocity": 99}, {"time": 139763, "pitch": 72, "duration": 1675, "velocity": 96}, {"time": 139846, "pitch": 31, "duration": 786, "velocity": 81}, {"time": 140166, "pitch": 74, "duration": 455, "velocity": 90}, {"time": 140630, "pitch": 36, "duration": 832, "velocity": 81}, {"time": 140636, "pitch": 48, "duration": 833, "velocity": 94}, {"time": 140638, "pitch": 67, "duration": 818, "velocity": 99}, {"time": 140638, "pitch": 76, "duration": 836, "velocity": 90}, {"time": 140642, "pitch": 79, "duration": 851, "velocity": 59}], "annotations": [{"time": 403, "annotation": {"number": 7, "value": 100}, "group": "control_change"}, {"time": 422, "annotation": {"number": 11, "value": 127}, "group": "control_change"}, {"time": 442, "annotation": {"number": 10, "value": 64}, "group": "control_change"}, {"time": 461, "annotation": {"number": 91, "value": 60}, "group": "control_change"}, {"time": 480, "annotation": {"number": 93, "value": 0}, "group": "control_change"}, {"time": 480, "annotation": {"number": 101, "value": 0}, "group": "control_change"}, {"time": 480, "annotation": {"number": 100, "value": 0}, "group": "control_change"}, {"time": 480, "annotation": {"number": 6, "value": 12}, "group": "control_change"}, {"time": 480, "annotation": {"number": 101, "value": 127}, "group": "control_change"}, {"time": 482, "annotation": {"number": 100, "value": 127}, "group": "control_change"}, {"time": 1311, "annotation": {"number": 64, "value": 0}, "group": "control_change"}, {"time": 1390, "annotation": {"number": 64, "value": 127}, "group": "control_change"}, {"time": 2263, "annotation": {"number": 64, "value": 0}, "group": "control_change"}, {"time": 2455, "annotation": {"number": 64, "value": 127}, "group": "control_change"}, {"time": 3144, "annotation": {"number": 64, "value": 0}, "group": "control_change"}, {"time": 3334, "annotation": {"number": 64, "value": 127}, "group": "control_change"}, {"time": 4311, "annotation": {"number": 64, "value": 0}, "group": "control_change"}, {"time": 4332, "annotation": {"number": 64, "value": 127}, "group": "control_change"}, {"time": 5199, "annotation": {"number": 64, "value": 0}, "group": "control_change"}, {"time": 5285, "annotation": {"number": 64, "value": 127}, "group": "control_change"}, {"time": 6192, "annotation": {"number": 64, "value": 0}, "group": "control_change"}, {"time": 6209, "annotation": {"number": 64, "value": 127}, "group": "control_change"}, {"time": 7090, "annotation": {"number": 64, "value": 0}, "group": "control_change"}, {"time": 7176, "annotation": {"number": 64, "value": 127}, "group": "control_change"}, {"time": 8048, "annotation": {"number": 64, "value": 0}, "group": "control_change"}, {"time": 8126, "annotation": {"number": 64, "value": 127}, "group": "control_change"}, {"time": 8992, "annotation": {"number": 64, "value": 0}, "group": "control_change"}, {"time": 9143, "annotation": {"number": 64, "value": 127}, "group": "control_change"}, {"time": 9958, "annotation": {"number": 64, "value": 0}, "group": "control_change"}, {"time": 10078, "annotation": {"number": 11, "value": 100}, "group": "control_change"}, {"time": 10110, "annotation": {"number": 64, "value": 127}, "group": "control_change"}, {"time": 11035, "annotation": {"number": 64, "value": 0}, "group": "control_change"}, {"time": 11098, "annotation": {"number": 64, "value": 127}, "group": "control_change"}, {"time": 11977, "annotation": {"number": 64, "value": 0}, "group": "control_change"}, {"time": 12103, "annotation": {"number": 64, "value": 127}, "group": "control_change"}, {"time": 12914, "annotation": {"number": 64, "value": 0}, "group": "control_change"}, {"time": 13026, "annotation": {"number": 64, "value": 127}, "group": "control_change"}, {"time": 13435, "annotation": {"number": 64, "value": 0}, "group": "control_change"}, {"time": 13521, "annotation": {"number": 64, "value": 127}, "group": "control_change"}, {"time": 13906, "annotation": {"number": 64, "value": 0}, "group": "control_change"}, {"time": 14018, "annotation": {"number": 64, "value": 127}, "group": "control_change"}, {"time": 14877, "annotation": {"number": 64, "value": 0}, "group": "control_change"}, {"time": 14993, "annotation": {"number": 64, "value": 127}, "group": "control_change"}, {"time": 15837, "annotation": {"number": 64, "value": 0}, "group": "control_change"}, {"time": 15942, "annotation": {"number": 64, "value": 127}, "group": "control_change"}, {"time": 16731, "annotation": {"number": 64, "value": 0}, "group": "control_change"}, {"time": 16822, "annotation": {"number": 64, "value": 127}, "group": "control_change"}, {"time": 17749, "annotation": {"number": 64, "value": 0}, "group": "control_change"}, {"time": 17835, "annotation": {"number": 64, "value": 127}, "group": "control_change"}, {"time": 18716, "annotation": {"number": 64, "value": 0}, "group": "control_change"}, {"time": 18829, "annotation": {"number": 64, "value": 127}, "group": "control_change"}, {"time": 19678, "annotation": {"number": 64, "value": 0}, "group": "control_change"}, {"time": 19790, "annotation": {"number": 64, "value": 127}, "group": "control_change"}, {"time": 20625, "annotation": {"number": 64, "value": 0}, "group": "control_change"}, {"time": 20717, "annotation": {"number": 64, "value": 127}, "group": "control_change"}, {"time": 21120, "annotation": {"number": 64, "value": 0}, "group": "control_change"}, {"time": 21215, "annotation": {"number": 64, "value": 127}, "group": "control_change"}, {"time": 21594, "annotation": {"number": 64, "value": 0}, "group": "control_change"}, {"time": 21700, "annotation": {"number": 64, "value": 127}, "group": "control_change"}, {"time": 22550, "annotation": {"number": 64, "value": 0}, "group": "control_change"}, {"time": 22651, "annotation": {"number": 64, "value": 127}, "group": "control_change"}, {"time": 23519, "annotation": {"number": 64, "value": 0}, "group": "control_change"}, {"time": 23628, "annotation": {"number": 64, "value": 127}, "group": "control_change"}, {"time": 24460, "annotation": {"number": 64, "value": 0}, "group": "control_change"}, {"time": 24559, "annotation": {"number": 64, "value": 127}, "group": "control_change"}, {"time": 24948, "annotation": {"number": 64, "value": 0}, "group": "control_change"}, {"time": 25030, "annotation": {"number": 64, "value": 127}, "group": "control_change"}, {"time": 25418, "annotation": {"number": 64, "value": 0}, "group": "control_change"}, {"time": 25525, "annotation": {"number": 64, "value": 127}, "group": "control_change"}, {"time": 26385, "annotation": {"number": 64, "value": 0}, "group": "control_change"}, {"time": 26882, "annotation": {"number": 64, "value": 127}, "group": "control_change"}, {"time": 27329, "annotation": {"number": 64, "value": 0}, "group": "control_change"}, {"time": 27835, "annotation": {"number": 64, "value": 127}, "group": "control_change"}, {"time": 28263, "annotation": {"number": 64, "value": 0}, "group": "control_change"}, {"time": 28383, "annotation": {"number": 64, "value": 127}, "group": "control_change"}, {"time": 28727, "annotation": {"number": 64, "value": 0}, "group": "control_change"}, {"time": 28934, "annotation": {"number": 64, "value": 127}, "group": "control_change"}, {"time": 29255, "annotation": {"number": 64, "value": 0}, "group": "control_change"}, {"time": 29362, "annotation": {"number": 64, "value": 127}, "group": "control_change"}, {"time": 30223, "annotation": {"number": 64, "value": 0}, "group": "control_change"}, {"time": 30729, "annotation": {"number": 64, "value": 127}, "group": "control_change"}, {"time": 31167, "annotation": {"number": 64, "value": 0}, "group": "control_change"}, {"time": 31205, "annotation": {"number": 64, "value": 0}, "group": "control_change"}, {"time": 31329, "annotation": {"number": 64, "value": 127}, "group": "control_change"}, {"time": 32150, "annotation": {"number": 64, "value": 0}, "group": "control_change"}, {"time": 32270, "annotation": {"number": 64, "value": 127}, "group": "control_change"}, {"time": 33094, "annotation": {"number": 64, "value": 0}, "group": "control_change"}, {"time": 33193, "annotation": {"number": 64, "value": 127}, "group": "control_change"}, {"time": 34047, "annotation": {"number": 64, "value": 0}, "group": "control_change"}, {"time": 34184, "annotation": {"number": 64, "value": 127}, "group": "control_change"}, {"time": 34542, "annotation": {"number": 64, "value": 0}, "group": "control_change"}, {"time": 34614, "annotation": {"number": 64, "value": 127}, "group": "control_change"}, {"time": 35015, "annotation": {"number": 64, "value": 0}, "group": "control_change"}, {"time": 35120, "annotation": {"number": 64, "value": 127}, "group": "control_change"}, {"time": 35980, "annotation": {"number": 64, "value": 0}, "group": "control_change"}, {"time": 36098, "annotation": {"number": 64, "value": 127}, "group": "control_change"}, {"time": 36931, "annotation": {"number": 64, "value": 0}, "group": "control_change"}, {"time": 37036, "annotation": {"number": 64, "value": 127}, "group": "control_change"}, {"time": 37886, "annotation": {"number": 64, "value": 0}, "group": "control_change"}, {"time": 38001, "annotation": {"number": 64, "value": 127}, "group": "control_change"}, {"time": 38377, "annotation": {"number": 64, "value": 0}, "group": "control_change"}, {"time": 38470, "annotation": {"number": 64, "value": 127}, "group": "control_change"}, {"time": 38873, "annotation": {"number": 64, "value": 0}, "group": "control_change"}, {"time": 38966, "annotation": {"number": 64, "value": 127}, "group": "control_change"}, {"time": 39810, "annotation": {"number": 64, "value": 0}, "group": "control_change"}, {"time": 39920, "annotation": {"number": 64, "value": 127}, "group": "control_change"}, {"time": 40771, "annotation": {"number": 64, "value": 0}, "group": "control_change"}, {"time": 40876, "annotation": {"number": 64, "value": 127}, "group": "control_change"}, {"time": 41713, "annotation": {"number": 64, "value": 0}, "group": "control_change"}, {"time": 41819, "annotation": {"number": 64, "value": 127}, "group": "control_change"}, {"time": 42224, "annotation": {"number": 64, "value": 0}, "group": "control_change"}, {"time": 42301, "annotation": {"number": 64, "value": 127}, "group": "control_change"}, {"time": 42689, "annotation": {"number": 64, "value": 0}, "group": "control_change"}, {"time": 42802, "annotation": {"number": 64, "value": 127}, "group": "control_change"}, {"time": 43669, "annotation": {"number": 64, "value": 0}, "group": "control_change"}, {"time": 43784, "annotation": {"number": 64, "value": 127}, "group": "control_change"}, {"time": 44611, "annotation": {"number": 64, "value": 0}, "group": "control_change"}, {"time": 44724, "annotation": {"number": 64, "value": 127}, "group": "control_change"}, {"time": 45591, "annotation": {"number": 64, "value": 0}, "group": "control_change"}, {"time": 45706, "annotation": {"number": 64, "value": 127}, "group": "control_change"}, {"time": 46534, "annotation": {"number": 64, "value": 0}, "group": "control_change"}, {"time": 46633, "annotation": {"number": 64, "value": 127}, "group": "control_change"}, {"time": 47488, "annotation": {"number": 64, "value": 0}, "group": "control_change"}, {"time": 48462, "annotation": {"number": 64, "value": 127}, "group": "control_change"}, {"time": 48477, "annotation": {"number": 11, "value": 127}, "group": "control_change"}, {"time": 49307, "annotation": {"number": 64, "value": 0}, "group": "control_change"}, {"time": 49385, "annotation": {"number": 64, "value": 127}, "group": "control_change"}, {"time": 50265, "annotation": {"number": 64, "value": 0}, "group": "control_change"}, {"time": 50456, "annotation": {"number": 64, "value": 127}, "group": "control_change"}, {"time": 51146, "annotation": {"number": 64, "value": 0}, "group": "control_change"}, {"time": 51336, "annotation": {"number": 64, "value": 127}, "group": "control_change"}, {"time": 52313, "annotation": {"number": 64, "value": 0}, "group": "control_change"}, {"time": 52334, "annotation": {"number": 64, "value": 127}, "group": "control_change"}, {"time": 53201, "annotation": {"number": 64, "value": 0}, "group": "control_change"}, {"time": 53287, "annotation": {"number": 64, "value": 127}, "group": "control_change"}, {"time": 54194, "annotation": {"number": 64, "value": 0}, "group": "control_change"}, {"time": 54211, "annotation": {"number": 64, "value": 127}, "group": "control_change"}, {"time": 55086, "annotation": {"number": 64, "value": 0}, "group": "control_change"}, {"time": 55172, "annotation": {"number": 64, "value": 127}, "group": "control_change"}, {"time": 56044, "annotation": {"number": 64, "value": 0}, "group": "control_change"}, {"time": 56122, "annotation": {"number": 64, "value": 127}, "group": "control_change"}, {"time": 56993, "annotation": {"number": 64, "value": 0}, "group": "control_change"}, {"time": 57145, "annotation": {"number": 64, "value": 127}, "group": "control_change"}, {"time": 57960, "annotation": {"number": 64, "value": 0}, "group": "control_change"}, {"time": 58079, "annotation": {"number": 11, "value": 100}, "group": "control_change"}, {"time": 58111, "annotation": {"number": 64, "value": 127}, "group": "control_change"}, {"time": 59038, "annotation": {"number": 64, "value": 0}, "group": "control_change"}, {"time": 59148, "annotation": {"number": 64, "value": 127}, "group": "control_change"}, {"time": 59979, "annotation": {"number": 64, "value": 0}, "group": "control_change"}, {"time": 60105, "annotation": {"number": 64, "value": 127}, "group": "control_change"}, {"time": 60911, "annotation": {"number": 64, "value": 0}, "group": "control_change"}, {"time": 61022, "annotation": {"number": 64, "value": 127}, "group": "control_change"}, {"time": 61430, "annotation": {"number": 64, "value": 0}, "group": "control_change"}, {"time": 61517, "annotation": {"number": 64, "value": 127}, "group": "control_change"}, {"time": 61902, "annotation": {"number": 64, "value": 0}, "group": "control_change"}, {"time": 62014, "annotation": {"number": 64, "value": 127}, "group": "control_change"}, {"time": 62873, "annotation": {"number": 64, "value": 0}, "group": "control_change"}, {"time": 62990, "annotation": {"number": 64, "value": 127}, "group": "control_change"}, {"time": 63842, "annotation": {"number": 64, "value": 0}, "group": "control_change"}, {"time": 63944, "annotation": {"number": 64, "value": 127}, "group": "control_change"}, {"time": 64732, "annotation": {"number": 64, "value": 0}, "group": "control_change"}, {"time": 64824, "annotation": {"number": 64, "value": 127}, "group": "control_change"}, {"time": 65750, "annotation": {"number": 64, "value": 0}, "group": "control_change"}, {"time": 65836, "annotation": {"number": 64, "value": 127}, "group": "control_change"}, {"time": 66718, "annotation": {"number": 64, "value": 0}, "group": "control_change"}, {"time": 66830, "annotation": {"number": 64, "value": 127}, "group": "control_change"}, {"time": 67685, "annotation": {"number": 64, "value": 0}, "group": "control_change"}, {"time": 67786, "annotation": {"number": 64, "value": 127}, "group": "control_change"}, {"time": 68621, "annotation": {"number": 64, "value": 0}, "group": "control_change"}, {"time": 68713, "annotation": {"number": 64, "value": 127}, "group": "control_change"}, {"time": 69115, "annotation": {"number": 64, "value": 0}, "group": "control_change"}, {"time": 69213, "annotation": {"number": 64, "value": 127}, "group": "control_change"}, {"time": 69596, "annotation": {"number": 64, "value": 0}, "group": "control_change"}, {"time": 69702, "annotation": {"number": 64, "value": 127}, "group": "control_change"}, {"time": 70552, "annotation": {"number": 64, "value": 0}, "group": "control_change"}, {"time": 70653, "annotation": {"number": 64, "value": 127}, "group": "control_change"}, {"time": 71521, "annotation": {"number": 64, "value": 0}, "group": "control_change"}, {"time": 71630, "annotation": {"number": 64, "value": 127}, "group": "control_change"}, {"time": 72462, "annotation": {"number": 64, "value": 0}, "group": "control_change"}, {"time": 72561, "annotation": {"number": 64, "value": 127}, "group": "control_change"}, {"time": 72950, "annotation": {"number": 64, "value": 0}, "group": "control_change"}, {"time": 73032, "annotation": {"number": 64, "value": 127}, "group": "control_change"}, {"time": 73419, "annotation": {"number": 64, "value": 0}, "group": "control_change"}, {"time": 73526, "annotation": {"number": 64, "value": 127}, "group": "control_change"}, {"time": 74382, "annotation": {"number": 64, "value": 0}, "group": "control_change"}, {"time": 74878, "annotation": {"number": 64, "value": 127}, "group": "control_change"}, {"time": 75325, "annotation": {"number": 64, "value": 0}, "group": "control_change"}, {"time": 75831, "annotation": {"number": 64, "value": 127}, "group": "control_change"}, {"time": 76264, "annotation": {"number": 64, "value": 0}, "group": "control_change"}, {"time": 76385, "annotation": {"number": 64, "value": 127}, "group": "control_change"}, {"time": 76728, "annotation": {"number": 64, "value": 0}, "group": "control_change"}, {"time": 76936, "annotation": {"number": 64, "value": 127}, "group": "control_change"}, {"time": 77257, "annotation": {"number": 64, "value": 0}, "group": "control_change"}, {"time": 77364, "annotation": {"number": 64, "value": 127}, "group": "control_change"}, {"time": 78225, "annotation": {"number": 64, "value": 0}, "group": "control_change"}, {"time": 78721, "annotation": {"number": 64, "value": 127}, "group": "control_change"}, {"time": 79169, "annotation": {"number": 64, "value": 0}, "group": "control_change"}, {"time": 79207, "annotation": {"number": 64, "value": 0}, "group": "control_change"}, {"time": 79331, "annotation": {"number": 64, "value": 127}, "group": "control_change"}, {"time": 80152, "annotation": {"number": 64, "value": 0}, "group": "control_change"}, {"time": 80270, "annotation": {"number": 64, "value": 127}, "group": "control_change"}, {"time": 81089, "annotation": {"number": 64, "value": 0}, "group": "control_change"}, {"time": 81189, "annotation": {"number": 64, "value": 127}, "group": "control_change"}, {"time": 82043, "annotation": {"number": 64, "value": 0}, "group": "control_change"}, {"time": 82179, "annotation": {"number": 64, "value": 127}, "group": "control_change"}, {"time": 82538, "annotation": {"number": 64, "value": 0}, "group": "control_change"}, {"time": 82611, "annotation": {"number": 64, "value": 127}, "group": "control_change"}, {"time": 83016, "annotation": {"number": 64, "value": 0}, "group": "control_change"}, {"time": 83122, "annotation": {"number": 64, "value": 127}, "group": "control_change"}, {"time": 83982, "annotation": {"number": 64, "value": 0}, "group": "control_change"}, {"time": 84100, "annotation": {"number": 64, "value": 127}, "group": "control_change"}, {"time": 84933, "annotation": {"number": 64, "value": 0}, "group": "control_change"}, {"time": 85038, "annotation": {"number": 64, "value": 127}, "group": "control_change"}, {"time": 85888, "annotation": {"number": 64, "value": 0}, "group": "control_change"}, {"time": 86003, "annotation": {"number": 64, "value": 127}, "group": "control_change"}, {"time": 86379, "annotation": {"number": 64, "value": 0}, "group": "control_change"}, {"time": 86472, "annotation": {"number": 64, "value": 127}, "group": "control_change"}, {"time": 86875, "annotation": {"number": 64, "value": 0}, "group": "control_change"}, {"time": 86967, "annotation": {"number": 64, "value": 127}, "group": "control_change"}, {"time": 87806, "annotation": {"number": 64, "value": 0}, "group": "control_change"}, {"time": 87916, "annotation": {"number": 64, "value": 127}, "group": "control_change"}, {"time": 88766, "annotation": {"number": 64, "value": 0}, "group": "control_change"}, {"time": 88873, "annotation": {"number": 64, "value": 127}, "group": "control_change"}, {"time": 89715, "annotation": {"number": 64, "value": 0}, "group": "control_change"}, {"time": 89820, "annotation": {"number": 64, "value": 127}, "group": "control_change"}, {"time": 90226, "annotation": {"number": 64, "value": 0}, "group": "control_change"}, {"time": 90303, "annotation": {"number": 64, "value": 127}, "group": "control_change"}, {"time": 90691, "annotation": {"number": 64, "value": 0}, "group": "control_change"}, {"time": 90804, "annotation": {"number": 64, "value": 127}, "group": "control_change"}, {"time": 91671, "annotation": {"number": 64, "value": 0}, "group": "control_change"}, {"time": 91786, "annotation": {"number": 64, "value": 127}, "group": "control_change"}, {"time": 92613, "annotation": {"number": 64, "value": 0}, "group": "control_change"}, {"time": 92726, "annotation": {"number": 64, "value": 127}, "group": "control_change"}, {"time": 93593, "annotation": {"number": 64, "value": 0}, "group": "control_change"}, {"time": 93707, "annotation": {"number": 64, "value": 127}, "group": "control_change"}, {"time": 94530, "annotation": {"number": 64, "value": 0}, "group": "control_change"}, {"time": 94629, "annotation": {"number": 64, "value": 127}, "group": "control_change"}, {"time": 95484, "annotation": {"number": 64, "value": 0}, "group": "control_change"}, {"time": 96456, "annotation": {"number": 64, "value": 0}, "group": "control_change"}, {"time": 96564, "annotation": {"number": 64, "value": 127}, "group": "control_change"}, {"time": 97424, "annotation": {"number": 64, "value": 0}, "group": "control_change"}, {"time": 97921, "annotation": {"number": 64, "value": 127}, "group": "control_change"}, {"time": 98368, "annotation": {"number": 64, "value": 0}, "group": "control_change"}, {"time": 98874, "annotation": {"number": 64, "value": 127}, "group": "control_change"}, {"time": 99307, "annotation": {"number": 64, "value": 0}, "group": "control_change"}, {"time": 99428, "annotation": {"number": 64, "value": 127}, "group": "control_change"}, {"time": 99771, "annotation": {"number": 64, "value": 0}, "group": "control_change"}, {"time": 99979, "annotation": {"number": 64, "value": 127}, "group": "control_change"}, {"time": 100300, "annotation": {"number": 64, "value": 0}, "group": "control_change"}, {"time": 100406, "annotation": {"number": 64, "value": 127}, "group": "control_change"}, {"time": 101262, "annotation": {"number": 64, "value": 0}, "group": "control_change"}, {"time": 101758, "annotation": {"number": 64, "value": 127}, "group": "control_change"}, {"time": 102206, "annotation": {"number": 64, "value": 0}, "group": "control_change"}, {"time": 102244, "annotation": {"number": 64, "value": 0}, "group": "control_change"}, {"time": 102368, "annotation": {"number": 64, "value": 127}, "group": "control_change"}, {"time": 103189, "annotation": {"number": 64, "value": 0}, "group": "control_change"}, {"time": 103309, "annotation": {"number": 64, "value": 127}, "group": "control_change"}, {"time": 104137, "annotation": {"number": 64, "value": 0}, "group": "control_change"}, {"time": 104245, "annotation": {"number": 64, "value": 127}, "group": "control_change"}, {"time": 105105, "annotation": {"number": 64, "value": 0}, "group": "control_change"}, {"time": 105602, "annotation": {"number": 64, "value": 127}, "group": "control_change"}, {"time": 106049, "annotation": {"number": 64, "value": 0}, "group": "control_change"}, {"time": 106555, "annotation": {"number": 64, "value": 127}, "group": "control_change"}, {"time": 106983, "annotation": {"number": 64, "value": 0}, "group": "control_change"}, {"time": 107103, "annotation": {"number": 64, "value": 127}, "group": "control_change"}, {"time": 107447, "annotation": {"number": 64, "value": 0}, "group": "control_change"}, {"time": 107654, "annotation": {"number": 64, "value": 127}, "group": "control_change"}, {"time": 107975, "annotation": {"number": 64, "value": 0}, "group": "control_change"}, {"time": 108082, "annotation": {"number": 64, "value": 127}, "group": "control_change"}, {"time": 108943, "annotation": {"number": 64, "value": 0}, "group": "control_change"}, {"time": 109457, "annotation": {"number": 64, "value": 127}, "group": "control_change"}, {"time": 109887, "annotation": {"number": 64, "value": 0}, "group": "control_change"}, {"time": 109925, "annotation": {"number": 64, "value": 0}, "group": "control_change"}, {"time": 110049, "annotation": {"number": 64, "value": 127}, "group": "control_change"}, {"time": 110870, "annotation": {"number": 64, "value": 0}, "group": "control_change"}, {"time": 110990, "annotation": {"number": 64, "value": 127}, "group": "control_change"}, {"time": 111814, "annotation": {"number": 64, "value": 0}, "group": "control_change"}, {"time": 111924, "annotation": {"number": 64, "value": 127}, "group": "control_change"}, {"time": 112779, "annotation": {"number": 64, "value": 0}, "group": "control_change"}, {"time": 112915, "annotation": {"number": 64, "value": 127}, "group": "control_change"}, {"time": 113729, "annotation": {"number": 64, "value": 0}, "group": "control_change"}, {"time": 113844, "annotation": {"number": 64, "value": 127}, "group": "control_change"}, {"time": 114689, "annotation": {"number": 64, "value": 0}, "group": "control_change"}, {"time": 114792, "annotation": {"number": 64, "value": 127}, "group": "control_change"}, {"time": 115166, "annotation": {"number": 64, "value": 0}, "group": "control_change"}, {"time": 115277, "annotation": {"number": 64, "value": 127}, "group": "control_change"}, {"time": 115647, "annotation": {"number": 64, "value": 0}, "group": "control_change"}, {"time": 115752, "annotation": {"number": 64, "value": 127}, "group": "control_change"}, {"time": 116598, "annotation": {"number": 64, "value": 0}, "group": "control_change"}, {"time": 116701, "annotation": {"number": 64, "value": 127}, "group": "control_change"}, {"time": 117555, "annotation": {"number": 64, "value": 0}, "group": "control_change"}, {"time": 117668, "annotation": {"number": 64, "value": 127}, "group": "control_change"}, {"time": 118520, "annotation": {"number": 64, "value": 0}, "group": "control_change"}, {"time": 118639, "annotation": {"number": 64, "value": 127}, "group": "control_change"}, {"time": 119008, "annotation": {"number": 64, "value": 0}, "group": "control_change"}, {"time": 119093, "annotation": {"number": 64, "value": 127}, "group": "control_change"}, {"time": 119493, "annotation": {"number": 64, "value": 0}, "group": "control_change"}, {"time": 119607, "annotation": {"number": 64, "value": 127}, "group": "control_change"}, {"time": 120468, "annotation": {"number": 64, "value": 0}, "group": "control_change"}, {"time": 120583, "annotation": {"number": 64, "value": 127}, "group": "control_change"}, {"time": 121409, "annotation": {"number": 64, "value": 0}, "group": "control_change"}, {"time": 121522, "annotation": {"number": 64, "value": 127}, "group": "control_change"}, {"time": 122389, "annotation": {"number": 64, "value": 0}, "group": "control_change"}, {"time": 122504, "annotation": {"number": 64, "value": 127}, "group": "control_change"}, {"time": 123332, "annotation": {"number": 64, "value": 0}, "group": "control_change"}, {"time": 123431, "annotation": {"number": 64, "value": 127}, "group": "control_change"}, {"time": 124286, "annotation": {"number": 64, "value": 0}, "group": "control_change"}, {"time": 125253, "annotation": {"number": 64, "value": 0}, "group": "control_change"}, {"time": 125366, "annotation": {"number": 64, "value": 127}, "group": "control_change"}, {"time": 126233, "annotation": {"number": 64, "value": 0}, "group": "control_change"}, {"time": 126346, "annotation": {"number": 64, "value": 127}, "group": "control_change"}, {"time": 127169, "annotation": {"number": 64, "value": 0}, "group": "control_change"}, {"time": 127282, "annotation": {"number": 64, "value": 127}, "group": "control_change"}, {"time": 128148, "annotation": {"number": 64, "value": 0}, "group": "control_change"}, {"time": 128264, "annotation": {"number": 64, "value": 127}, "group": "control_change"}, {"time": 129091, "annotation": {"number": 64, "value": 0}, "group": "control_change"}, {"time": 129190, "annotation": {"number": 64, "value": 127}, "group": "control_change"}, {"time": 130045, "annotation": {"number": 64, "value": 0}, "group": "control_change"}, {"time": 131025, "annotation": {"number": 64, "value": 127}, "group": "control_change"}, {"time": 131040, "annotation": {"number": 11, "value": 127}, "group": "control_change"}, {"time": 131871, "annotation": {"number": 64, "value": 0}, "group": "control_change"}, {"time": 131949, "annotation": {"number": 64, "value": 127}, "group": "control_change"}, {"time": 132829, "annotation": {"number": 64, "value": 0}, "group": "control_change"}, {"time": 133015, "annotation": {"number": 64, "value": 127}, "group": "control_change"}, {"time": 133019, "annotation": {"number": 64, "value": 127}, "group": "control_change"}, {"time": 133704, "annotation": {"number": 64, "value": 0}, "group": "control_change"}, {"time": 133894, "annotation": {"number": 64, "value": 127}, "group": "control_change"}, {"time": 134871, "annotation": {"number": 64, "value": 0}, "group": "control_change"}, {"time": 134892, "annotation": {"number": 64, "value": 127}, "group": "control_change"}, {"time": 135758, "annotation": {"number": 64, "value": 0}, "group": "control_change"}, {"time": 135844, "annotation": {"number": 64, "value": 127}, "group": "control_change"}, {"time": 136751, "annotation": {"number": 64, "value": 0}, "group": "control_change"}, {"time": 136768, "annotation": {"number": 64, "value": 127}, "group": "control_change"}, {"time": 137649, "annotation": {"number": 64, "value": 0}, "group": "control_change"}, {"time": 137735, "annotation": {"number": 64, "value": 127}, "group": "control_change"}, {"time": 138607, "annotation": {"number": 64, "value": 0}, "group": "control_change"}, {"time": 138685, "annotation": {"number": 64, "value": 127}, "group": "control_change"}, {"time": 139727, "annotation": {"number": 64, "value": 0}, "group": "control_change"}, {"time": 139768, "annotation": {"number": 64, "value": 127}, "group": "control_change"}, {"time": 140435, "annotation": {"number": 64, "value": 0}, "group": "control_change"}]}, {"program": 0, "is_drum": false, "name": "BASS", "annotations": [{"time": 346, "annotation": {"number": 0, "value": 0}, "group": "control_change"}, {"time": 365, "annotation": {"number": 32, "value": 0}, "group": "control_change"}]}, {"program": 33, "is_drum": false, "name": "BASS", "notes": [{"time": 4319, "pitch": 29, "duration": 195, "velocity": 113}, {"time": 4559, "pitch": 41, "duration": 152, "velocity": 96}, {"time": 4800, "pitch": 29, "duration": 274, "velocity": 113}, {"time": 5040, "pitch": 41, "duration": 104, "velocity": 99}, {"time": 5280, "pitch": 28, "duration": 249, "velocity": 112}, {"time": 5520, "pitch": 40, "duration": 166, "velocity": 101}, {"time": 5761, "pitch": 28, "duration": 236, "velocity": 113}, {"time": 6001, "pitch": 40, "duration": 123, "velocity": 99}, {"time": 6241, "pitch": 29, "duration": 215, "velocity": 113}, {"time": 6481, "pitch": 41, "duration": 142, "velocity": 97}, {"time": 6721, "pitch": 29, "duration": 231, "velocity": 112}, {"time": 6962, "pitch": 41, "duration": 145, "velocity": 101}, {"time": 7202, "pitch": 31, "duration": 228, "velocity": 113}, {"time": 7442, "pitch": 43, "duration": 161, "velocity": 97}, {"time": 7682, "pitch": 31, "duration": 197, "velocity": 110}, {"time": 7923, "pitch": 36, "duration": 118, "velocity": 103}, {"time": 8043, "pitch": 38, "duration": 88, "velocity": 105}, {"time": 8163, "pitch": 36, "duration": 357, "velocity": 104}, {"time": 8637, "pitch": 36, "duration": 365, "velocity": 106}, {"time": 9118, "pitch": 31, "duration": 433, "velocity": 112}, {"time": 9598, "pitch": 31, "duration": 304, "velocity": 114}, {"time": 10079, "pitch": 36, "duration": 719, "velocity": 106}, {"time": 10799, "pitch": 36, "duration": 239, "velocity": 106}, {"time": 11039, "pitch": 41, "duration": 775, "velocity": 102}, {"time": 12000, "pitch": 43, "duration": 900, "velocity": 97}, {"time": 12961, "pitch": 44, "duration": 468, "velocity": 103}, {"time": 13442, "pitch": 52, "duration": 402, "velocity": 106}, {"time": 13922, "pitch": 45, "duration": 977, "velocity": 104}, {"time": 14883, "pitch": 43, "duration": 937, "velocity": 106}, {"time": 15838, "pitch": 41, "duration": 663, "velocity": 110}, {"time": 16558, "pitch": 41, "duration": 240, "velocity": 93}, {"time": 16799, "pitch": 43, "duration": 496, "velocity": 103}, {"time": 17279, "pitch": 31, "duration": 430, "velocity": 112}, {"time": 17760, "pitch": 36, "duration": 624, "velocity": 108}, {"time": 18480, "pitch": 36, "duration": 206, "velocity": 104}, {"time": 18720, "pitch": 41, "duration": 925, "velocity": 100}, {"time": 19681, "pitch": 43, "duration": 639, "velocity": 100}, {"time": 20402, "pitch": 43, "duration": 212, "velocity": 98}, {"time": 20642, "pitch": 44, "duration": 468, "velocity": 106}, {"time": 21123, "pitch": 47, "duration": 473, "velocity": 111}, {"time": 21597, "pitch": 45, "duration": 714, "velocity": 111}, {"time": 22318, "pitch": 47, "duration": 240, "velocity": 98}, {"time": 22558, "pitch": 43, "duration": 788, "velocity": 111}, {"time": 23519, "pitch": 41, "duration": 602, "velocity": 111}, {"time": 24239, "pitch": 41, "duration": 233, "velocity": 113}, {"time": 24480, "pitch": 43, "duration": 460, "velocity": 113}, {"time": 24960, "pitch": 41, "duration": 385, "velocity": 113}, {"time": 25441, "pitch": 28, "duration": 191, "velocity": 116}, {"time": 25921, "pitch": 28, "duration": 166, "velocity": 116}, {"time": 26401, "pitch": 28, "duration": 173, "velocity": 118}, {"time": 26882, "pitch": 28, "duration": 162, "velocity": 114}, {"time": 27362, "pitch": 29, "duration": 168, "velocity": 118}, {"time": 27843, "pitch": 29, "duration": 156, "velocity": 116}, {"time": 28317, "pitch": 29, "duration": 138, "velocity": 112}, {"time": 28798, "pitch": 29, "duration": 135, "velocity": 114}, {"time": 29278, "pitch": 28, "duration": 164, "velocity": 116}, {"time": 29759, "pitch": 28, "duration": 113, "velocity": 116}, {"time": 30239, "pitch": 28, "duration": 114, "velocity": 118}, {"time": 30719, "pitch": 28, "duration": 123, "velocity": 115}, {"time": 31200, "pitch": 29, "duration": 124, "velocity": 110}, {"time": 31680, "pitch": 29, "duration": 136, "velocity": 110}, {"time": 32161, "pitch": 31, "duration": 155, "velocity": 110}, {"time": 32641, "pitch": 31, "duration": 160, "velocity": 113}, {"time": 33122, "pitch": 29, "duration": 257, "velocity": 115}, {"time": 33482, "pitch": 29, "duration": 48, "velocity": 97}, {"time": 33602, "pitch": 29, "duration": 224, "velocity": 115}, {"time": 33842, "pitch": 30, "duration": 194, "velocity": 118}, {"time": 34082, "pitch": 31, "duration": 205, "velocity": 109}, {"time": 34323, "pitch": 31, "duration": 217, "velocity": 102}, {"time": 34563, "pitch": 33, "duration": 216, "velocity": 118}, {"time": 34800, "pitch": 35, "duration": 166, "velocity": 118}, {"time": 35037, "pitch": 36, "duration": 354, "velocity": 112}, {"time": 35518, "pitch": 36, "duration": 224, "velocity": 113}, {"time": 35758, "pitch": 31, "duration": 234, "velocity": 106}, {"time": 35998, "pitch": 28, "duration": 451, "velocity": 116}, {"time": 36479, "pitch": 32, "duration": 306, "velocity": 122}, {"time": 36959, "pitch": 33, "duration": 468, "velocity": 113}, {"time": 37440, "pitch": 40, "duration": 240, "velocity": 109}, {"time": 37680, "pitch": 36, "duration": 467, "velocity": 115}, {"time": 38160, "pitch": 33, "duration": 236, "velocity": 115}, {"time": 38400, "pitch": 31, "duration": 76, "velocity": 109}, {"time": 38521, "pitch": 31, "duration": 284, "velocity": 116}, {"time": 38881, "pitch": 36, "duration": 359, "velocity": 112}, {"time": 39241, "pitch": 36, "duration": 119, "velocity": 112}, {"time": 39361, "pitch": 36, "duration": 239, "velocity": 112}, {"time": 39601, "pitch": 36, "duration": 240, "velocity": 112}, {"time": 39842, "pitch": 32, "duration": 442, "velocity": 118}, {"time": 40322, "pitch": 35, "duration": 232, "velocity": 113}, {"time": 40562, "pitch": 40, "duration": 176, "velocity": 114}, {"time": 40803, "pitch": 33, "duration": 445, "velocity": 111}, {"time": 41277, "pitch": 40, "duration": 210, "velocity": 106}, {"time": 41517, "pitch": 36, "duration": 448, "velocity": 113}, {"time": 41998, "pitch": 33, "duration": 238, "velocity": 112}, {"time": 42238, "pitch": 28, "duration": 382, "velocity": 105}, {"time": 42718, "pitch": 29, "duration": 152, "velocity": 108}, {"time": 42959, "pitch": 29, "duration": 135, "velocity": 81}, {"time": 43199, "pitch": 29, "duration": 142, "velocity": 112}, {"time": 43439, "pitch": 29, "duration": 132, "velocity": 93}, {"time": 43679, "pitch": 28, "duration": 160, "velocity": 110}, {"time": 43919, "pitch": 28, "duration": 170, "velocity": 99}, {"time": 44160, "pitch": 36, "duration": 212, "velocity": 108}, {"time": 44400, "pitch": 28, "duration": 131, "velocity": 112}, {"time": 44640, "pitch": 29, "duration": 127, "velocity": 110}, {"time": 44880, "pitch": 29, "duration": 70, "velocity": 97}, {"time": 45000, "pitch": 29, "duration": 81, "velocity": 96}, {"time": 45121, "pitch": 29, "duration": 145, "velocity": 100}, {"time": 45241, "pitch": 31, "duration": 110, "velocity": 108}, {"time": 45361, "pitch": 29, "duration": 229, "velocity": 113}, {"time": 45601, "pitch": 28, "duration": 175, "velocity": 111}, {"time": 45841, "pitch": 28, "duration": 230, "velocity": 115}, {"time": 46081, "pitch": 36, "duration": 260, "velocity": 112}, {"time": 46322, "pitch": 28, "duration": 164, "velocity": 112}, {"time": 46562, "pitch": 29, "duration": 127, "velocity": 116}, {"time": 46802, "pitch": 29, "duration": 118, "velocity": 111}, {"time": 47042, "pitch": 29, "duration": 107, "velocity": 115}, {"time": 47162, "pitch": 28, "duration": 119, "velocity": 100}, {"time": 47282, "pitch": 29, "duration": 128, "velocity": 100}, {"time": 47403, "pitch": 30, "duration": 122, "velocity": 106}, {"time": 47523, "pitch": 31, "duration": 170, "velocity": 114}, {"time": 48478, "pitch": 36, "duration": 281, "velocity": 110}, {"time": 48838, "pitch": 36, "duration": 58, "velocity": 95}, {"time": 48958, "pitch": 36, "duration": 432, "velocity": 103}, {"time": 49439, "pitch": 35, "duration": 435, "velocity": 114}, {"time": 49919, "pitch": 31, "duration": 251, "velocity": 112}, {"time": 50159, "pitch": 35, "duration": 195, "velocity": 108}, {"time": 50399, "pitch": 33, "duration": 277, "velocity": 110}, {"time": 50760, "pitch": 33, "duration": 52, "velocity": 101}, {"time": 50880, "pitch": 33, "duration": 437, "velocity": 110}, {"time": 51360, "pitch": 31, "duration": 466, "velocity": 109}, {"time": 51841, "pitch": 28, "duration": 386, "velocity": 114}, {"time": 52321, "pitch": 29, "duration": 309, "velocity": 114}, {"time": 52802, "pitch": 29, "duration": 322, "velocity": 118}, {"time": 53282, "pitch": 28, "duration": 308, "velocity": 118}, {"time": 53762, "pitch": 28, "duration": 372, "velocity": 118}, {"time": 54243, "pitch": 29, "duration": 343, "velocity": 119}, {"time": 54717, "pitch": 29, "duration": 175, "velocity": 112}, {"time": 54958, "pitch": 29, "duration": 72, "velocity": 100}, {"time": 55078, "pitch": 29, "duration": 74, "velocity": 109}, {"time": 55198, "pitch": 31, "duration": 282, "velocity": 115}, {"time": 55678, "pitch": 31, "duration": 104, "velocity": 118}, {"time": 55798, "pitch": 43, "duration": 360, "velocity": 111}, {"time": 56159, "pitch": 36, "duration": 374, "velocity": 112}, {"time": 56639, "pitch": 36, "duration": 215, "velocity": 114}, {"time": 56879, "pitch": 43, "duration": 240, "velocity": 98}, {"time": 57120, "pitch": 43, "duration": 472, "velocity": 106}, {"time": 57600, "pitch": 50, "duration": 124, "velocity": 108}, {"time": 57720, "pitch": 43, "duration": 345, "velocity": 111}, {"time": 58080, "pitch": 36, "duration": 720, "velocity": 106}, {"time": 58801, "pitch": 36, "duration": 239, "velocity": 106}, {"time": 59041, "pitch": 41, "duration": 960, "velocity": 102}, {"time": 60002, "pitch": 43, "duration": 917, "velocity": 111}, {"time": 60957, "pitch": 44, "duration": 495, "velocity": 110}, {"time": 61437, "pitch": 47, "duration": 127, "velocity": 106}, {"time": 61558, "pitch": 52, "duration": 359, "velocity": 105}, {"time": 61918, "pitch": 57, "duration": 976, "velocity": 103}, {"time": 62879, "pitch": 55, "duration": 954, "velocity": 101}, {"time": 63840, "pitch": 53, "duration": 625, "velocity": 103}, {"time": 64440, "pitch": 48, "duration": 360, "velocity": 94}, {"time": 64801, "pitch": 43, "duration": 478, "velocity": 108}, {"time": 65281, "pitch": 50, "duration": 240, "velocity": 101}, {"time": 65521, "pitch": 55, "duration": 226, "velocity": 100}, {"time": 65761, "pitch": 48, "duration": 720, "velocity": 104}, {"time": 66482, "pitch": 48, "duration": 239, "velocity": 104}, {"time": 66722, "pitch": 53, "duration": 637, "velocity": 97}, {"time": 67440, "pitch": 53, "duration": 236, "velocity": 98}, {"time": 67677, "pitch": 43, "duration": 720, "velocity": 99}, {"time": 68398, "pitch": 43, "duration": 239, "velocity": 99}, {"time": 68638, "pitch": 44, "duration": 459, "velocity": 102}, {"time": 69118, "pitch": 40, "duration": 480, "velocity": 108}, {"time": 69599, "pitch": 33, "duration": 729, "velocity": 108}, {"time": 70320, "pitch": 35, "duration": 239, "velocity": 97}, {"time": 70560, "pitch": 43, "duration": 960, "velocity": 99}, {"time": 71521, "pitch": 41, "duration": 669, "velocity": 110}, {"time": 72241, "pitch": 41, "duration": 240, "velocity": 86}, {"time": 72482, "pitch": 43, "duration": 516, "velocity": 108}, {"time": 72962, "pitch": 41, "duration": 407, "velocity": 112}, {"time": 73442, "pitch": 28, "duration": 191, "velocity": 114}, {"time": 73923, "pitch": 28, "duration": 179, "velocity": 113}, {"time": 74397, "pitch": 28, "duration": 182, "velocity": 113}, {"time": 74878, "pitch": 28, "duration": 191, "velocity": 116}, {"time": 75358, "pitch": 29, "duration": 180, "velocity": 115}, {"time": 75839, "pitch": 29, "duration": 168, "velocity": 112}, {"time": 76319, "pitch": 29, "duration": 180, "velocity": 115}, {"time": 76799, "pitch": 29, "duration": 62, "velocity": 114}, {"time": 76920, "pitch": 29, "duration": 229, "velocity": 119}, {"time": 77280, "pitch": 28, "duration": 231, "velocity": 116}, {"time": 77760, "pitch": 28, "duration": 202, "velocity": 116}, {"time": 78241, "pitch": 28, "duration": 220, "velocity": 116}, {"time": 78481, "pitch": 40, "duration": 225, "velocity": 91}, {"time": 78721, "pitch": 28, "duration": 237, "velocity": 118}, {"time": 79202, "pitch": 29, "duration": 361, "velocity": 109}, {"time": 79682, "pitch": 29, "duration": 194, "velocity": 104}, {"time": 79922, "pitch": 29, "duration": 105, "velocity": 94}, {"time": 80042, "pitch": 30, "duration": 112, "velocity": 97}, {"time": 80162, "pitch": 31, "duration": 193, "velocity": 104}, {"time": 80400, "pitch": 31, "duration": 67, "velocity": 79}, {"time": 80518, "pitch": 31, "duration": 70, "velocity": 80}, {"time": 80637, "pitch": 31, "duration": 215, "velocity": 114}, {"time": 80877, "pitch": 31, "duration": 134, "velocity": 101}, {"time": 81117, "pitch": 29, "duration": 204, "velocity": 104}, {"time": 81358, "pitch": 29, "duration": 177, "velocity": 109}, {"time": 81598, "pitch": 29, "duration": 186, "velocity": 104}, {"time": 81838, "pitch": 30, "duration": 224, "velocity": 115}, {"time": 82078, "pitch": 31, "duration": 185, "velocity": 105}, {"time": 82319, "pitch": 31, "duration": 77, "velocity": 97}, {"time": 82439, "pitch": 31, "duration": 215, "velocity": 105}, {"time": 82679, "pitch": 31, "duration": 78, "velocity": 95}, {"time": 82799, "pitch": 31, "duration": 159, "velocity": 101}, {"time": 83039, "pitch": 36, "duration": 391, "velocity": 108}, {"time": 83520, "pitch": 36, "duration": 221, "velocity": 109}, {"time": 83760, "pitch": 31, "duration": 237, "velocity": 104}, {"time": 84000, "pitch": 28, "duration": 281, "velocity": 106}, {"time": 84360, "pitch": 28, "duration": 90, "velocity": 108}, {"time": 84481, "pitch": 32, "duration": 479, "velocity": 118}, {"time": 84961, "pitch": 33, "duration": 448, "velocity": 112}, {"time": 85441, "pitch": 35, "duration": 367, "velocity": 113}, {"time": 85802, "pitch": 40, "duration": 119, "velocity": 101}, {"time": 85922, "pitch": 40, "duration": 244, "velocity": 109}, {"time": 86162, "pitch": 35, "duration": 239, "velocity": 114}, {"time": 86402, "pitch": 35, "duration": 79, "velocity": 114}, {"time": 86482, "pitch": 36, "duration": 79, "velocity": 114}, {"time": 86562, "pitch": 35, "duration": 79, "velocity": 114}, {"time": 86642, "pitch": 33, "duration": 109, "velocity": 98}, {"time": 86763, "pitch": 35, "duration": 105, "velocity": 92}, {"time": 86883, "pitch": 36, "duration": 449, "velocity": 118}, {"time": 87357, "pitch": 43, "duration": 412, "velocity": 113}, {"time": 87838, "pitch": 44, "duration": 418, "velocity": 112}, {"time": 88318, "pitch": 40, "duration": 206, "velocity": 108}, {"time": 88558, "pitch": 35, "duration": 148, "velocity": 111}, {"time": 88798, "pitch": 33, "duration": 367, "velocity": 113}, {"time": 89279, "pitch": 33, "duration": 267, "velocity": 114}, {"time": 89519, "pitch": 35, "duration": 175, "velocity": 108}, {"time": 89759, "pitch": 35, "duration": 58, "velocity": 100}, {"time": 89879, "pitch": 35, "duration": 111, "velocity": 99}, {"time": 90000, "pitch": 36, "duration": 197, "velocity": 114}, {"time": 90240, "pitch": 35, "duration": 87, "velocity": 112}, {"time": 90360, "pitch": 33, "duration": 82, "velocity": 114}, {"time": 90480, "pitch": 31, "duration": 92, "velocity": 105}, {"time": 90600, "pitch": 29, "duration": 114, "velocity": 112}, {"time": 90720, "pitch": 29, "duration": 367, "velocity": 119}, {"time": 91201, "pitch": 29, "duration": 378, "velocity": 118}, {"time": 91681, "pitch": 28, "duration": 424, "velocity": 115}, {"time": 92162, "pitch": 36, "duration": 209, "velocity": 112}, {"time": 92402, "pitch": 28, "duration": 117, "velocity": 115}, {"time": 92642, "pitch": 29, "duration": 378, "velocity": 114}, {"time": 93122, "pitch": 29, "duration": 231, "velocity": 113}, {"time": 93363, "pitch": 31, "duration": 241, "velocity": 93}, {"time": 93603, "pitch": 28, "duration": 222, "velocity": 109}, {"time": 93840, "pitch": 36, "duration": 245, "velocity": 109}, {"time": 94077, "pitch": 38, "duration": 135, "velocity": 113}, {"time": 94197, "pitch": 36, "duration": 244, "velocity": 106}, {"time": 94438, "pitch": 28, "duration": 112, "velocity": 111}, {"time": 94558, "pitch": 29, "duration": 168, "velocity": 105}, {"time": 94798, "pitch": 29, "duration": 381, "velocity": 116}, {"time": 95278, "pitch": 29, "duration": 117, "velocity": 104}, {"time": 95399, "pitch": 30, "duration": 131, "velocity": 97}, {"time": 95519, "pitch": 31, "duration": 673, "velocity": 114}, {"time": 96239, "pitch": 31, "duration": 164, "velocity": 112}, {"time": 96479, "pitch": 29, "duration": 155, "velocity": 109}, {"time": 96720, "pitch": 29, "duration": 147, "velocity": 106}, {"time": 96960, "pitch": 29, "duration": 138, "velocity": 111}, {"time": 97200, "pitch": 29, "duration": 152, "velocity": 109}, {"time": 97440, "pitch": 28, "duration": 141, "velocity": 114}, {"time": 97681, "pitch": 28, "duration": 153, "velocity": 114}, {"time": 97921, "pitch": 36, "duration": 126, "velocity": 110}, {"time": 98041, "pitch": 38, "duration": 84, "velocity": 106}, {"time": 98161, "pitch": 38, "duration": 95, "velocity": 102}, {"time": 98281, "pitch": 40, "duration": 95, "velocity": 97}, {"time": 98401, "pitch": 39, "duration": 178, "velocity": 111}, {"time": 98641, "pitch": 39, "duration": 57, "velocity": 88}, {"time": 98762, "pitch": 39, "duration": 82, "velocity": 104}, {"time": 98882, "pitch": 39, "duration": 203, "velocity": 115}, {"time": 99122, "pitch": 39, "duration": 61, "velocity": 103}, {"time": 99242, "pitch": 39, "duration": 91, "velocity": 96}, {"time": 99362, "pitch": 38, "duration": 203, "velocity": 103}, {"time": 99602, "pitch": 33, "duration": 229, "velocity": 109}, {"time": 99843, "pitch": 38, "duration": 53, "velocity": 96}, {"time": 99963, "pitch": 38, "duration": 296, "velocity": 121}, {"time": 100323, "pitch": 33, "duration": 197, "velocity": 103}, {"time": 100560, "pitch": 33, "duration": 149, "velocity": 91}, {"time": 100797, "pitch": 33, "duration": 64, "velocity": 105}, {"time": 100878, "pitch": 35, "duration": 72, "velocity": 87}, {"time": 100918, "pitch": 33, "duration": 99, "velocity": 84}, {"time": 101038, "pitch": 32, "duration": 159, "velocity": 110}, {"time": 101158, "pitch": 33, "duration": 99, "velocity": 87}, {"time": 101278, "pitch": 32, "duration": 200, "velocity": 111}, {"time": 101518, "pitch": 35, "duration": 229, "velocity": 111}, {"time": 101758, "pitch": 40, "duration": 112, "velocity": 113}, {"time": 101878, "pitch": 32, "duration": 240, "velocity": 119}, {"time": 102119, "pitch": 32, "duration": 99, "velocity": 106}, {"time": 102239, "pitch": 31, "duration": 251, "velocity": 113}, {"time": 102479, "pitch": 38, "duration": 239, "velocity": 108}, {"time": 102719, "pitch": 38, "duration": 116, "velocity": 109}, {"time": 102839, "pitch": 40, "duration": 322, "velocity": 112}, {"time": 103200, "pitch": 42, "duration": 225, "velocity": 112}, {"time": 103440, "pitch": 40, "duration": 125, "velocity": 108}, {"time": 103560, "pitch": 38, "duration": 256, "velocity": 111}, {"time": 103800, "pitch": 33, "duration": 310, "velocity": 113}, {"time": 104160, "pitch": 41, "duration": 166, "velocity": 103}, {"time": 104401, "pitch": 41, "duration": 166, "velocity": 96}, {"time": 104641, "pitch": 41, "duration": 162, "velocity": 106}, {"time": 104881, "pitch": 41, "duration": 162, "velocity": 101}, {"time": 105121, "pitch": 41, "duration": 202, "velocity": 105}, {"time": 105362, "pitch": 36, "duration": 215, "velocity": 114}, {"time": 105602, "pitch": 41, "duration": 221, "velocity": 111}, {"time": 105842, "pitch": 42, "duration": 172, "velocity": 117}, {"time": 106082, "pitch": 43, "duration": 169, "velocity": 108}, {"time": 106322, "pitch": 43, "duration": 65, "velocity": 96}, {"time": 106443, "pitch": 43, "duration": 82, "velocity": 98}, {"time": 106563, "pitch": 43, "duration": 211, "velocity": 104}, {"time": 106800, "pitch": 38, "duration": 217, "velocity": 112}, {"time": 107037, "pitch": 43, "duration": 211, "velocity": 110}, {"time": 107277, "pitch": 38, "duration": 205, "velocity": 109}, {"time": 107518, "pitch": 31, "duration": 225, "velocity": 111}, {"time": 107758, "pitch": 32, "duration": 193, "velocity": 113}, {"time": 107998, "pitch": 33, "duration": 176, "velocity": 110}, {"time": 108238, "pitch": 33, "duration": 66, "velocity": 100}, {"time": 108358, "pitch": 33, "duration": 74, "velocity": 100}, {"time": 108478, "pitch": 33, "duration": 182, "velocity": 112}, {"time": 108719, "pitch": 33, "duration": 208, "velocity": 103}, {"time": 108959, "pitch": 33, "duration": 172, "velocity": 108}, {"time": 109199, "pitch": 33, "duration": 206, "velocity": 113}, {"time": 109439, "pitch": 33, "duration": 180, "velocity": 109}, {"time": 109680, "pitch": 33, "duration": 117, "velocity": 116}, {"time": 109920, "pitch": 49, "duration": 719, "velocity": 112}, {"time": 110640, "pitch": 47, "duration": 114, "velocity": 98}, {"time": 110761, "pitch": 45, "duration": 212, "velocity": 111}, {"time": 111001, "pitch": 40, "duration": 257, "velocity": 110}, {"time": 111361, "pitch": 33, "duration": 251, "velocity": 109}, {"time": 111601, "pitch": 31, "duration": 259, "velocity": 112}, {"time": 111841, "pitch": 36, "duration": 378, "velocity": 108}, {"time": 112322, "pitch": 36, "duration": 174, "velocity": 111}, {"time": 112562, "pitch": 36, "duration": 178, "velocity": 105}, {"time": 112802, "pitch": 28, "duration": 439, "velocity": 118}, {"time": 113283, "pitch": 32, "duration": 233, "velocity": 112}, {"time": 113520, "pitch": 35, "duration": 187, "velocity": 113}, {"time": 113757, "pitch": 33, "duration": 307, "velocity": 118}, {"time": 114118, "pitch": 33, "duration": 67, "velocity": 110}, {"time": 114238, "pitch": 33, "duration": 212, "velocity": 105}, {"time": 114478, "pitch": 40, "duration": 209, "velocity": 108}, {"time": 114718, "pitch": 47, "duration": 238, "velocity": 110}, {"time": 114958, "pitch": 45, "duration": 221, "velocity": 109}, {"time": 115199, "pitch": 40, "duration": 220, "velocity": 105}, {"time": 115439, "pitch": 33, "duration": 115, "velocity": 110}, {"time": 115559, "pitch": 35, "duration": 140, "velocity": 103}, {"time": 115679, "pitch": 36, "duration": 439, "velocity": 106}, {"time": 116159, "pitch": 36, "duration": 163, "velocity": 105}, {"time": 116400, "pitch": 36, "duration": 194, "velocity": 105}, {"time": 116640, "pitch": 32, "duration": 292, "velocity": 107}, {"time": 117000, "pitch": 32, "duration": 103, "velocity": 100}, {"time": 117120, "pitch": 35, "duration": 276, "velocity": 106}, {"time": 117361, "pitch": 40, "duration": 248, "velocity": 110}, {"time": 117601, "pitch": 33, "duration": 398, "velocity": 118}, {"time": 118081, "pitch": 33, "duration": 206, "velocity": 112}, {"time": 118321, "pitch": 35, "duration": 241, "velocity": 97}, {"time": 118562, "pitch": 36, "duration": 243, "velocity": 108}, {"time": 118802, "pitch": 40, "duration": 368, "velocity": 112}, {"time": 119162, "pitch": 31, "duration": 320, "velocity": 120}, {"time": 119522, "pitch": 41, "duration": 354, "velocity": 110}, {"time": 120003, "pitch": 41, "duration": 181, "velocity": 112}, {"time": 120240, "pitch": 36, "duration": 205, "velocity": 108}, {"time": 120477, "pitch": 40, "duration": 416, "velocity": 119}, {"time": 120958, "pitch": 36, "duration": 196, "velocity": 112}, {"time": 121198, "pitch": 28, "duration": 184, "velocity": 118}, {"time": 121438, "pitch": 29, "duration": 375, "velocity": 111}, {"time": 121919, "pitch": 29, "duration": 401, "velocity": 112}, {"time": 122399, "pitch": 28, "duration": 438, "velocity": 114}, {"time": 122880, "pitch": 36, "duration": 235, "velocity": 111}, {"time": 123120, "pitch": 28, "duration": 159, "velocity": 120}, {"time": 123360, "pitch": 29, "duration": 351, "velocity": 106}, {"time": 123840, "pitch": 29, "duration": 201, "velocity": 113}, {"time": 124081, "pitch": 30, "duration": 257, "velocity": 119}, {"time": 124321, "pitch": 31, "duration": 143, "velocity": 114}, {"time": 125282, "pitch": 45, "duration": 157, "velocity": 104}, {"time": 125522, "pitch": 45, "duration": 145, "velocity": 98}, {"time": 125762, "pitch": 45, "duration": 152, "velocity": 102}, {"time": 126002, "pitch": 45, "duration": 181, "velocity": 103}, {"time": 126243, "pitch": 44, "duration": 150, "velocity": 110}, {"time": 126480, "pitch": 44, "duration": 152, "velocity": 108}, {"time": 126717, "pitch": 44, "duration": 159, "velocity": 108}, {"time": 126957, "pitch": 44, "duration": 181, "velocity": 104}, {"time": 127198, "pitch": 43, "duration": 168, "velocity": 97}, {"time": 127438, "pitch": 43, "duration": 163, "velocity": 103}, {"time": 127678, "pitch": 43, "duration": 152, "velocity": 105}, {"time": 127918, "pitch": 43, "duration": 173, "velocity": 105}, {"time": 128158, "pitch": 42, "duration": 157, "velocity": 111}, {"time": 128399, "pitch": 42, "duration": 154, "velocity": 107}, {"time": 128639, "pitch": 42, "duration": 102, "velocity": 110}, {"time": 128759, "pitch": 40, "duration": 99, "velocity": 101}, {"time": 128879, "pitch": 38, "duration": 177, "velocity": 109}, {"time": 129119, "pitch": 29, "duration": 63, "velocity": 111}, {"time": 129239, "pitch": 29, "duration": 65, "velocity": 99}, {"time": 129360, "pitch": 29, "duration": 60, "velocity": 93}, {"time": 129480, "pitch": 29, "duration": 62, "velocity": 93}, {"time": 129600, "pitch": 29, "duration": 176, "velocity": 98}, {"time": 129840, "pitch": 30, "duration": 226, "velocity": 119}, {"time": 130080, "pitch": 31, "duration": 270, "velocity": 115}, {"time": 131041, "pitch": 36, "duration": 656, "velocity": 108}, {"time": 131762, "pitch": 36, "duration": 193, "velocity": 104}, {"time": 132002, "pitch": 35, "duration": 463, "velocity": 110}, {"time": 132482, "pitch": 31, "duration": 224, "velocity": 113}, {"time": 132723, "pitch": 32, "duration": 248, "velocity": 121}, {"time": 132963, "pitch": 33, "duration": 627, "velocity": 118}, {"time": 133677, "pitch": 32, "duration": 149, "velocity": 115}, {"time": 133838, "pitch": 33, "duration": 88, "velocity": 115}, {"time": 133918, "pitch": 31, "duration": 272, "velocity": 111}, {"time": 134278, "pitch": 31, "duration": 80, "velocity": 105}, {"time": 134398, "pitch": 28, "duration": 361, "velocity": 115}, {"time": 134879, "pitch": 29, "duration": 354, "velocity": 116}, {"time": 135359, "pitch": 29, "duration": 378, "velocity": 118}, {"time": 135839, "pitch": 28, "duration": 389, "velocity": 116}, {"time": 136320, "pitch": 36, "duration": 225, "velocity": 114}, {"time": 136560, "pitch": 40, "duration": 162, "velocity": 114}, {"time": 136800, "pitch": 29, "duration": 388, "velocity": 113}, {"time": 137281, "pitch": 29, "duration": 188, "velocity": 104}, {"time": 137521, "pitch": 30, "duration": 170, "velocity": 110}, {"time": 137761, "pitch": 31, "duration": 312, "velocity": 111}, {"time": 138122, "pitch": 31, "duration": 93, "velocity": 110}, {"time": 138242, "pitch": 43, "duration": 323, "velocity": 106}, {"time": 138720, "pitch": 36, "duration": 59, "velocity": 111}, {"time": 138790, "pitch": 36, "duration": 54, "velocity": 97}, {"time": 139147, "pitch": 36, "duration": 595, "velocity": 109}, {"time": 139763, "pitch": 31, "duration": 826, "velocity": 114}, {"time": 140636, "pitch": 36, "duration": 1192, "velocity": 94}], "annotations": [{"time": 403, "annotation": {"number": 7, "value": 120}, "group": "control_change"}, {"time": 422, "annotation": {"number": 11, "value": 110}, "group": "control_change"}, {"time": 442, "annotation": {"number": 10, "value": 64}, "group": "control_change"}, {"time": 461, "annotation": {"number": 91, "value": 0}, "group": "control_change"}, {"time": 480, "annotation": {"number": 93, "value": 0}, "group": "control_change"}, {"time": 480, "annotation": {"number": 101, "value": 0}, "group": "control_change"}, {"time": 480, "annotation": {"number": 100, "value": 0}, "group": "control_change"}, {"time": 480, "annotation": {"number": 6, "value": 12}, "group": "control_change"}, {"time": 480, "annotation": {"number": 101, "value": 127}, "group": "control_change"}, {"time": 482, "annotation": {"number": 100, "value": 127}, "group": "control_change"}]}, {"program": 0, "is_drum": false, "name": "gt/solo", "annotations": [{"time": 346, "annotation": {"number": 0, "value": 0}, "group": "control_change"}, {"time": 365, "annotation": {"number": 32, "value": 0}, "group": "control_change"}]}, {"program": 29, "is_drum": false, "name": "gt/solo", "notes": [{"time": 95639, "pitch": 76, "duration": 720, "velocity": 107}, {"time": 96359, "pitch": 74, "duration": 119, "velocity": 96}, {"time": 96479, "pitch": 72, "duration": 241, "velocity": 104}, {"time": 96720, "pitch": 69, "duration": 728, "velocity": 99}, {"time": 97801, "pitch": 67, "duration": 119, "velocity": 93}, {"time": 97921, "pitch": 72, "duration": 119, "velocity": 107}, {"time": 98081, "pitch": 71, "duration": 119, "velocity": 96}, {"time": 98241, "pitch": 72, "duration": 119, "velocity": 104}, {"time": 98401, "pitch": 72, "duration": 240, "velocity": 111}, {"time": 98641, "pitch": 67, "duration": 120, "velocity": 89}, {"time": 98762, "pitch": 67, "duration": 479, "velocity": 99}, {"time": 99242, "pitch": 74, "duration": 119, "velocity": 91}, {"time": 99302, "pitch": 75, "duration": 59, "velocity": 95}, {"time": 99362, "pitch": 74, "duration": 359, "velocity": 99}, {"time": 99722, "pitch": 62, "duration": 241, "velocity": 121}, {"time": 99963, "pitch": 57, "duration": 239, "velocity": 115}, {"time": 100203, "pitch": 59, "duration": 119, "velocity": 98}, {"time": 100323, "pitch": 60, "duration": 595, "velocity": 108}, {"time": 101038, "pitch": 55, "duration": 45, "velocity": 96}, {"time": 101158, "pitch": 57, "duration": 45, "velocity": 92}, {"time": 101278, "pitch": 60, "duration": 120, "velocity": 96}, {"time": 101398, "pitch": 62, "duration": 120, "velocity": 92}, {"time": 101518, "pitch": 64, "duration": 120, "velocity": 100}, {"time": 101638, "pitch": 74, "duration": 120, "velocity": 106}, {"time": 101758, "pitch": 69, "duration": 159, "velocity": 103}, {"time": 101918, "pitch": 72, "duration": 120, "velocity": 107}, {"time": 102079, "pitch": 74, "duration": 119, "velocity": 96}, {"time": 102239, "pitch": 76, "duration": 559, "velocity": 108}, {"time": 102799, "pitch": 74, "duration": 119, "velocity": 105}, {"time": 102919, "pitch": 76, "duration": 160, "velocity": 106}, {"time": 103039, "pitch": 74, "duration": 120, "velocity": 110}, {"time": 103120, "pitch": 72, "duration": 79, "velocity": 103}, {"time": 103200, "pitch": 74, "duration": 720, "velocity": 87}, {"time": 103920, "pitch": 72, "duration": 240, "velocity": 89}, {"time": 104160, "pitch": 69, "duration": 640, "velocity": 109}, {"time": 104881, "pitch": 50, "duration": 119, "velocity": 84}, {"time": 105001, "pitch": 53, "duration": 119, "velocity": 87}, {"time": 105121, "pitch": 57, "duration": 119, "velocity": 90}, {"time": 105241, "pitch": 60, "duration": 120, "velocity": 98}, {"time": 105362, "pitch": 62, "duration": 119, "velocity": 98}, {"time": 105482, "pitch": 65, "duration": 119, "velocity": 104}, {"time": 105602, "pitch": 69, "duration": 360, "velocity": 107}, {"time": 105962, "pitch": 67, "duration": 79, "velocity": 100}, {"time": 106002, "pitch": 65, "duration": 79, "velocity": 99}, {"time": 106082, "pitch": 67, "duration": 361, "velocity": 107}, {"time": 106563, "pitch": 59, "duration": 117, "velocity": 81}, {"time": 106681, "pitch": 62, "duration": 118, "velocity": 88}, {"time": 106800, "pitch": 67, "duration": 118, "velocity": 91}, {"time": 106919, "pitch": 67, "duration": 237, "velocity": 99}, {"time": 106919, "pitch": 71, "duration": 238, "velocity": 106}, {"time": 107157, "pitch": 67, "duration": 119, "velocity": 82}, {"time": 107277, "pitch": 71, "duration": 119, "velocity": 88}, {"time": 107397, "pitch": 72, "duration": 120, "velocity": 102}, {"time": 107518, "pitch": 74, "duration": 119, "velocity": 107}, {"time": 107678, "pitch": 72, "duration": 159, "velocity": 106}, {"time": 107838, "pitch": 74, "duration": 119, "velocity": 103}, {"time": 107998, "pitch": 76, "duration": 960, "velocity": 109}, {"time": 109079, "pitch": 76, "duration": 439, "velocity": 111}, {"time": 109559, "pitch": 74, "duration": 280, "velocity": 104}, {"time": 109800, "pitch": 73, "duration": 119, "velocity": 85}, {"time": 109960, "pitch": 73, "duration": 119, "velocity": 106}, {"time": 110080, "pitch": 69, "duration": 439, "velocity": 92}, {"time": 110520, "pitch": 76, "duration": 241, "velocity": 102}, {"time": 110761, "pitch": 81, "duration": 119, "velocity": 100}, {"time": 110881, "pitch": 81, "duration": 960, "velocity": 111}], "annotations": [{"time": 403, "annotation": {"number": 7, "value": 120}, "group": "control_change"}, {"time": 422, "annotation": {"number": 11, "value": 110}, "group": "control_change"}, {"time": 442, "annotation": {"number": 10, "value": 64}, "group": "control_change"}, {"time": 461, "annotation": {"number": 91, "value": 70}, "group": "control_change"}, {"time": 480, "annotation": {"number": 93, "value": 20}, "group": "control_change"}, {"time": 480, "annotation": {"number": 101, "value": 0}, "group": "control_change"}, {"time": 480, "annotation": {"number": 100, "value": 0}, "group": "control_change"}, {"time": 480, "annotation": {"number": 6, "value": 12}, "group": "control_change"}, {"time": 480, "annotation": {"number": 101, "value": 127}, "group": "control_change"}, {"time": 482, "annotation": {"number": 100, "value": 127}, "group": "control_change"}, {"time": 95643, "annotation": {"number": 1, "value": 30}, "group": "control_change"}, {"time": 96478, "annotation": {"number": 1, "value": 0}, "group": "control_change"}, {"time": 98761, "annotation": {"number": 1, "value": 50}, "group": "control_change"}, {"time": 99241, "annotation": {"number": 1, "value": 0}, "group": "control_change"}, {"time": 103231, "annotation": {"number": 1, "value": 50}, "group": "control_change"}, {"time": 104159, "annotation": {"number": 1, "value": 0}, "group": "control_change"}, {"time": 108045, "annotation": {"number": 1, "value": 50}, "group": "control_change"}, {"time": 109800, "annotation": {"number": 1, "value": 0}, "group": "control_change"}, {"time": 110519, "annotation": {"number": 1, "value": 50}, "group": "control_change"}]}, {"program": 0, "is_drum": false, "name": "MELODY", "annotations": [{"time": 346, "annotation": {"number": 0, "value": 0}, "group": "control_change"}, {"time": 365, "annotation": {"number": 32, "value": 0}, "group": "control_change"}]}, {"program": 22, "is_drum": false, "name": "MELODY", "notes": [{"time": 10079, "pitch": 76, "duration": 456, "velocity": 96}, {"time": 10559, "pitch": 67, "duration": 486, "velocity": 92}, {"time": 11039, "pitch": 72, "duration": 554, "velocity": 91}, {"time": 11760, "pitch": 72, "duration": 260, "velocity": 86}, {"time": 12000, "pitch": 74, "duration": 252, "velocity": 87}, {"time": 12240, "pitch": 72, "duration": 119, "velocity": 90}, {"time": 12361, "pitch": 74, "duration": 364, "velocity": 90}, {"time": 12721, "pitch": 79, "duration": 251, "velocity": 90}, {"time": 12961, "pitch": 76, "duration": 459, "velocity": 92}, {"time": 13442, "pitch": 74, "duration": 510, "velocity": 94}, {"time": 13922, "pitch": 72, "duration": 482, "velocity": 95}, {"time": 14402, "pitch": 71, "duration": 234, "velocity": 95}, {"time": 14643, "pitch": 72, "duration": 282, "velocity": 95}, {"time": 14883, "pitch": 71, "duration": 501, "velocity": 95}, {"time": 15357, "pitch": 72, "duration": 255, "velocity": 94}, {"time": 15598, "pitch": 74, "duration": 274, "velocity": 93}, {"time": 15838, "pitch": 69, "duration": 1242, "velocity": 92}, {"time": 17760, "pitch": 76, "duration": 450, "velocity": 89}, {"time": 18240, "pitch": 67, "duration": 497, "velocity": 88}, {"time": 18720, "pitch": 72, "duration": 549, "velocity": 88}, {"time": 19441, "pitch": 72, "duration": 258, "velocity": 89}, {"time": 19681, "pitch": 74, "duration": 267, "velocity": 89}, {"time": 19921, "pitch": 72, "duration": 113, "velocity": 88}, {"time": 20042, "pitch": 74, "duration": 360, "velocity": 88}, {"time": 20402, "pitch": 79, "duration": 206, "velocity": 88}, {"time": 20642, "pitch": 76, "duration": 478, "velocity": 97}, {"time": 21123, "pitch": 74, "duration": 454, "velocity": 98}, {"time": 21597, "pitch": 72, "duration": 502, "velocity": 98}, {"time": 22078, "pitch": 71, "duration": 218, "velocity": 99}, {"time": 22318, "pitch": 72, "duration": 279, "velocity": 99}, {"time": 22558, "pitch": 71, "duration": 447, "velocity": 98}, {"time": 23038, "pitch": 72, "duration": 249, "velocity": 96}, {"time": 23279, "pitch": 74, "duration": 279, "velocity": 95}, {"time": 23519, "pitch": 72, "duration": 988, "velocity": 95}, {"time": 25441, "pitch": 74, "duration": 643, "velocity": 94}, {"time": 26161, "pitch": 79, "duration": 73, "velocity": 91}, {"time": 26281, "pitch": 79, "duration": 658, "velocity": 91}, {"time": 27122, "pitch": 79, "duration": 245, "velocity": 92}, {"time": 27362, "pitch": 77, "duration": 241, "velocity": 91}, {"time": 27603, "pitch": 76, "duration": 260, "velocity": 89}, {"time": 27843, "pitch": 77, "duration": 250, "velocity": 89}, {"time": 28080, "pitch": 76, "duration": 134, "velocity": 87}, {"time": 28199, "pitch": 72, "duration": 971, "velocity": 88}, {"time": 29278, "pitch": 74, "duration": 632, "velocity": 91}, {"time": 29999, "pitch": 79, "duration": 67, "velocity": 90}, {"time": 30119, "pitch": 79, "duration": 666, "velocity": 94}, {"time": 30960, "pitch": 79, "duration": 261, "velocity": 91}, {"time": 31200, "pitch": 77, "duration": 252, "velocity": 98}, {"time": 31440, "pitch": 76, "duration": 238, "velocity": 92}, {"time": 31680, "pitch": 74, "duration": 263, "velocity": 87}, {"time": 31920, "pitch": 72, "duration": 258, "velocity": 87}, {"time": 32161, "pitch": 74, "duration": 652, "velocity": 87}, {"time": 32881, "pitch": 76, "duration": 216, "velocity": 96}, {"time": 33122, "pitch": 77, "duration": 272, "velocity": 95}, {"time": 33362, "pitch": 76, "duration": 255, "velocity": 95}, {"time": 33602, "pitch": 74, "duration": 234, "velocity": 95}, {"time": 33842, "pitch": 72, "duration": 276, "velocity": 94}, {"time": 34082, "pitch": 74, "duration": 499, "velocity": 102}, {"time": 34563, "pitch": 76, "duration": 231, "velocity": 99}, {"time": 34800, "pitch": 77, "duration": 251, "velocity": 99}, {"time": 35037, "pitch": 79, "duration": 960, "velocity": 103}, {"time": 35998, "pitch": 76, "duration": 240, "velocity": 100}, {"time": 36238, "pitch": 77, "duration": 230, "velocity": 99}, {"time": 36479, "pitch": 76, "duration": 266, "velocity": 86}, {"time": 36719, "pitch": 74, "duration": 239, "velocity": 96}, {"time": 36959, "pitch": 74, "duration": 119, "velocity": 88}, {"time": 37079, "pitch": 72, "duration": 119, "velocity": 88}, {"time": 37199, "pitch": 72, "duration": 119, "velocity": 90}, {"time": 37319, "pitch": 72, "duration": 720, "velocity": 90}, {"time": 38400, "pitch": 76, "duration": 257, "velocity": 94}, {"time": 38641, "pitch": 77, "duration": 227, "velocity": 100}, {"time": 38881, "pitch": 79, "duration": 674, "velocity": 103}, {"time": 39601, "pitch": 79, "duration": 253, "velocity": 97}, {"time": 39842, "pitch": 80, "duration": 267, "velocity": 92}, {"time": 40082, "pitch": 76, "duration": 196, "velocity": 88}, {"time": 40322, "pitch": 80, "duration": 204, "velocity": 96}, {"time": 40562, "pitch": 83, "duration": 232, "velocity": 102}, {"time": 40803, "pitch": 83, "duration": 186, "velocity": 105}, {"time": 41040, "pitch": 81, "duration": 117, "velocity": 105}, {"time": 41158, "pitch": 81, "duration": 839, "velocity": 95}, {"time": 42238, "pitch": 81, "duration": 212, "velocity": 105}, {"time": 42478, "pitch": 83, "duration": 236, "velocity": 105}, {"time": 42718, "pitch": 84, "duration": 158, "velocity": 109}, {"time": 42959, "pitch": 84, "duration": 75, "velocity": 89}, {"time": 43079, "pitch": 84, "duration": 275, "velocity": 88}, {"time": 43439, "pitch": 84, "duration": 206, "velocity": 94}, {"time": 43679, "pitch": 83, "duration": 197, "velocity": 94}, {"time": 43919, "pitch": 84, "duration": 64, "velocity": 80}, {"time": 44040, "pitch": 84, "duration": 417, "velocity": 99}, {"time": 44640, "pitch": 84, "duration": 177, "velocity": 101}, {"time": 44880, "pitch": 84, "duration": 69, "velocity": 86}, {"time": 45000, "pitch": 84, "duration": 253, "velocity": 91}, {"time": 45361, "pitch": 86, "duration": 212, "velocity": 93}, {"time": 45601, "pitch": 84, "duration": 196, "velocity": 96}, {"time": 45841, "pitch": 79, "duration": 65, "velocity": 85}, {"time": 45961, "pitch": 79, "duration": 298, "velocity": 89}, {"time": 46322, "pitch": 83, "duration": 185, "velocity": 87}, {"time": 46562, "pitch": 84, "duration": 201, "velocity": 87}, {"time": 46802, "pitch": 81, "duration": 88, "velocity": 81}, {"time": 46922, "pitch": 84, "duration": 565, "velocity": 96}, {"time": 47997, "pitch": 83, "duration": 121, "velocity": 102}, {"time": 48117, "pitch": 84, "duration": 277, "velocity": 94}, {"time": 48478, "pitch": 84, "duration": 1440, "velocity": 102}, {"time": 58080, "pitch": 76, "duration": 457, "velocity": 95}, {"time": 58561, "pitch": 67, "duration": 486, "velocity": 92}, {"time": 59041, "pitch": 72, "duration": 554, "velocity": 89}, {"time": 59762, "pitch": 72, "duration": 260, "velocity": 90}, {"time": 60002, "pitch": 74, "duration": 251, "velocity": 90}, {"time": 60242, "pitch": 72, "duration": 118, "velocity": 90}, {"time": 60362, "pitch": 74, "duration": 362, "velocity": 92}, {"time": 60720, "pitch": 79, "duration": 248, "velocity": 95}, {"time": 60957, "pitch": 76, "duration": 458, "velocity": 95}, {"time": 61437, "pitch": 74, "duration": 511, "velocity": 94}, {"time": 61918, "pitch": 72, "duration": 482, "velocity": 94}, {"time": 62398, "pitch": 71, "duration": 234, "velocity": 94}, {"time": 62639, "pitch": 72, "duration": 283, "velocity": 94}, {"time": 62879, "pitch": 71, "duration": 507, "velocity": 94}, {"time": 63359, "pitch": 72, "duration": 254, "velocity": 93}, {"time": 63599, "pitch": 74, "duration": 275, "velocity": 93}, {"time": 63840, "pitch": 69, "duration": 1242, "velocity": 80}, {"time": 65761, "pitch": 76, "duration": 451, "velocity": 92}, {"time": 66242, "pitch": 67, "duration": 497, "velocity": 92}, {"time": 66722, "pitch": 72, "duration": 548, "velocity": 91}, {"time": 67440, "pitch": 72, "duration": 255, "velocity": 91}, {"time": 67677, "pitch": 74, "duration": 266, "velocity": 92}, {"time": 67917, "pitch": 72, "duration": 113, "velocity": 92}, {"time": 68038, "pitch": 74, "duration": 360, "velocity": 92}, {"time": 68398, "pitch": 79, "duration": 206, "velocity": 92}, {"time": 68638, "pitch": 76, "duration": 477, "velocity": 93}, {"time": 69118, "pitch": 74, "duration": 461, "velocity": 91}, {"time": 69599, "pitch": 72, "duration": 501, "velocity": 91}, {"time": 70079, "pitch": 71, "duration": 219, "velocity": 91}, {"time": 70320, "pitch": 72, "duration": 279, "velocity": 91}, {"time": 70560, "pitch": 71, "duration": 447, "velocity": 92}, {"time": 71040, "pitch": 72, "duration": 248, "velocity": 93}, {"time": 71280, "pitch": 74, "duration": 280, "velocity": 88}, {"time": 71521, "pitch": 72, "duration": 988, "velocity": 90}, {"time": 73442, "pitch": 74, "duration": 642, "velocity": 95}, {"time": 74160, "pitch": 79, "duration": 72, "velocity": 88}, {"time": 74279, "pitch": 79, "duration": 656, "velocity": 96}, {"time": 75118, "pitch": 79, "duration": 245, "velocity": 93}, {"time": 75358, "pitch": 77, "duration": 240, "velocity": 93}, {"time": 75598, "pitch": 76, "duration": 262, "velocity": 93}, {"time": 75839, "pitch": 77, "duration": 253, "velocity": 93}, {"time": 76079, "pitch": 76, "duration": 136, "velocity": 93}, {"time": 76199, "pitch": 72, "duration": 973, "velocity": 93}, {"time": 77280, "pitch": 74, "duration": 632, "velocity": 94}, {"time": 78001, "pitch": 79, "duration": 67, "velocity": 93}, {"time": 78121, "pitch": 79, "duration": 666, "velocity": 88}, {"time": 78961, "pitch": 79, "duration": 262, "velocity": 94}, {"time": 79202, "pitch": 77, "duration": 252, "velocity": 93}, {"time": 79442, "pitch": 76, "duration": 238, "velocity": 92}, {"time": 79682, "pitch": 74, "duration": 263, "velocity": 92}, {"time": 79922, "pitch": 72, "duration": 257, "velocity": 92}, {"time": 80162, "pitch": 74, "duration": 647, "velocity": 93}, {"time": 80877, "pitch": 76, "duration": 215, "velocity": 89}, {"time": 81117, "pitch": 77, "duration": 273, "velocity": 91}, {"time": 81358, "pitch": 76, "duration": 255, "velocity": 93}, {"time": 81598, "pitch": 74, "duration": 234, "velocity": 99}, {"time": 81838, "pitch": 72, "duration": 276, "velocity": 93}, {"time": 82078, "pitch": 74, "duration": 499, "velocity": 91}, {"time": 82559, "pitch": 76, "duration": 234, "velocity": 87}, {"time": 82799, "pitch": 77, "duration": 254, "velocity": 92}, {"time": 83039, "pitch": 79, "duration": 960, "velocity": 99}, {"time": 84000, "pitch": 76, "duration": 236, "velocity": 99}, {"time": 84240, "pitch": 77, "duration": 229, "velocity": 99}, {"time": 84481, "pitch": 76, "duration": 239, "velocity": 99}, {"time": 84721, "pitch": 74, "duration": 239, "velocity": 100}, {"time": 84961, "pitch": 74, "duration": 119, "velocity": 88}, {"time": 85081, "pitch": 72, "duration": 119, "velocity": 90}, {"time": 85201, "pitch": 72, "duration": 119, "velocity": 99}, {"time": 85321, "pitch": 72, "duration": 840, "velocity": 100}, {"time": 86402, "pitch": 76, "duration": 256, "velocity": 105}, {"time": 86642, "pitch": 77, "duration": 228, "velocity": 90}, {"time": 86883, "pitch": 79, "duration": 593, "velocity": 101}, {"time": 87597, "pitch": 79, "duration": 253, "velocity": 97}, {"time": 87838, "pitch": 80, "duration": 239, "velocity": 92}, {"time": 88078, "pitch": 76, "duration": 196, "velocity": 93}, {"time": 88318, "pitch": 80, "duration": 204, "velocity": 92}, {"time": 88558, "pitch": 83, "duration": 231, "velocity": 102}, {"time": 88798, "pitch": 83, "duration": 190, "velocity": 97}, {"time": 89039, "pitch": 81, "duration": 119, "velocity": 96}, {"time": 89159, "pitch": 81, "duration": 840, "velocity": 94}, {"time": 90240, "pitch": 81, "duration": 212, "velocity": 93}, {"time": 90480, "pitch": 83, "duration": 236, "velocity": 99}, {"time": 90720, "pitch": 84, "duration": 157, "velocity": 103}, {"time": 90960, "pitch": 84, "duration": 75, "velocity": 89}, {"time": 91081, "pitch": 84, "duration": 275, "velocity": 88}, {"time": 91441, "pitch": 84, "duration": 206, "velocity": 94}, {"time": 91681, "pitch": 83, "duration": 197, "velocity": 94}, {"time": 91921, "pitch": 84, "duration": 63, "velocity": 99}, {"time": 92041, "pitch": 84, "duration": 418, "velocity": 99}, {"time": 92642, "pitch": 84, "duration": 177, "velocity": 101}, {"time": 92882, "pitch": 84, "duration": 69, "velocity": 86}, {"time": 93002, "pitch": 84, "duration": 252, "velocity": 91}, {"time": 93363, "pitch": 86, "duration": 212, "velocity": 93}, {"time": 93603, "pitch": 84, "duration": 194, "velocity": 107}, {"time": 93840, "pitch": 79, "duration": 64, "velocity": 93}, {"time": 93959, "pitch": 79, "duration": 295, "velocity": 93}, {"time": 94318, "pitch": 83, "duration": 185, "velocity": 102}, {"time": 94558, "pitch": 84, "duration": 201, "velocity": 103}, {"time": 94798, "pitch": 81, "duration": 88, "velocity": 98}, {"time": 94918, "pitch": 84, "duration": 565, "velocity": 98}, {"time": 95999, "pitch": 83, "duration": 121, "velocity": 102}, {"time": 96119, "pitch": 84, "duration": 276, "velocity": 94}, {"time": 96479, "pitch": 84, "duration": 1441, "velocity": 102}, {"time": 111361, "pitch": 76, "duration": 244, "velocity": 101}, {"time": 111601, "pitch": 77, "duration": 244, "velocity": 100}, {"time": 111841, "pitch": 79, "duration": 960, "velocity": 93}, {"time": 112802, "pitch": 76, "duration": 237, "velocity": 92}, {"time": 113043, "pitch": 77, "duration": 229, "velocity": 99}, {"time": 113283, "pitch": 76, "duration": 263, "velocity": 86}, {"time": 113520, "pitch": 74, "duration": 133, "velocity": 96}, {"time": 113757, "pitch": 74, "duration": 119, "velocity": 94}, {"time": 113877, "pitch": 72, "duration": 120, "velocity": 95}, {"time": 113998, "pitch": 72, "duration": 119, "velocity": 95}, {"time": 114118, "pitch": 72, "duration": 897, "velocity": 95}, {"time": 115199, "pitch": 76, "duration": 256, "velocity": 106}, {"time": 115439, "pitch": 77, "duration": 227, "velocity": 101}, {"time": 115679, "pitch": 79, "duration": 717, "velocity": 99}, {"time": 116400, "pitch": 79, "duration": 252, "velocity": 97}, {"time": 116640, "pitch": 80, "duration": 267, "velocity": 92}, {"time": 116880, "pitch": 76, "duration": 196, "velocity": 96}, {"time": 117120, "pitch": 80, "duration": 205, "velocity": 79}, {"time": 117361, "pitch": 83, "duration": 231, "velocity": 102}, {"time": 117601, "pitch": 83, "duration": 119, "velocity": 88}, {"time": 117721, "pitch": 81, "duration": 119, "velocity": 88}, {"time": 117841, "pitch": 81, "duration": 119, "velocity": 100}, {"time": 117961, "pitch": 81, "duration": 840, "velocity": 100}, {"time": 119042, "pitch": 81, "duration": 212, "velocity": 100}, {"time": 119282, "pitch": 83, "duration": 236, "velocity": 100}, {"time": 119522, "pitch": 84, "duration": 158, "velocity": 100}, {"time": 119763, "pitch": 84, "duration": 75, "velocity": 89}, {"time": 119883, "pitch": 84, "duration": 273, "velocity": 96}, {"time": 120240, "pitch": 84, "duration": 204, "velocity": 96}, {"time": 120477, "pitch": 83, "duration": 198, "velocity": 94}, {"time": 120718, "pitch": 84, "duration": 63, "velocity": 97}, {"time": 120838, "pitch": 84, "duration": 417, "velocity": 97}, {"time": 121438, "pitch": 84, "duration": 177, "velocity": 101}, {"time": 121679, "pitch": 84, "duration": 69, "velocity": 86}, {"time": 121799, "pitch": 84, "duration": 252, "velocity": 91}, {"time": 122159, "pitch": 86, "duration": 239, "velocity": 93}, {"time": 122399, "pitch": 84, "duration": 196, "velocity": 96}, {"time": 122639, "pitch": 79, "duration": 65, "velocity": 85}, {"time": 122759, "pitch": 79, "duration": 298, "velocity": 89}, {"time": 123120, "pitch": 83, "duration": 185, "velocity": 87}, {"time": 123360, "pitch": 84, "duration": 201, "velocity": 107}, {"time": 123600, "pitch": 81, "duration": 88, "velocity": 81}, {"time": 123720, "pitch": 84, "duration": 565, "velocity": 96}, {"time": 124801, "pitch": 83, "duration": 121, "velocity": 102}, {"time": 124921, "pitch": 84, "duration": 277, "velocity": 94}, {"time": 125282, "pitch": 84, "duration": 1666, "velocity": 95}, {"time": 126957, "pitch": 86, "duration": 158, "velocity": 101}, {"time": 127077, "pitch": 84, "duration": 129, "velocity": 101}, {"time": 127198, "pitch": 86, "duration": 151, "velocity": 90}, {"time": 127318, "pitch": 84, "duration": 865, "velocity": 94}, {"time": 128158, "pitch": 81, "duration": 725, "velocity": 100}, {"time": 128879, "pitch": 83, "duration": 248, "velocity": 90}, {"time": 129119, "pitch": 84, "duration": 268, "velocity": 91}, {"time": 129360, "pitch": 81, "duration": 129, "velocity": 91}, {"time": 129480, "pitch": 84, "duration": 671, "velocity": 91}, {"time": 130561, "pitch": 83, "duration": 131, "velocity": 100}, {"time": 130681, "pitch": 84, "duration": 230, "velocity": 100}, {"time": 131041, "pitch": 84, "duration": 1540, "velocity": 98}], "annotations": [{"time": 403, "annotation": {"number": 7, "value": 110}, "group": "control_change"}, {"time": 422, "annotation": {"number": 11, "value": 110}, "group": "control_change"}, {"time": 442, "annotation": {"number": 10, "value": 64}, "group": "control_change"}, {"time": 461, "annotation": {"number": 91, "value": 70}, "group": "control_change"}, {"time": 480, "annotation": {"number": 93, "value": 30}, "group": "control_change"}, {"time": 480, "annotation": {"number": 101, "value": 0}, "group": "control_change"}, {"time": 480, "annotation": {"number": 100, "value": 0}, "group": "control_change"}, {"time": 480, "annotation": {"number": 6, "value": 12}, "group": "control_change"}, {"time": 480, "annotation": {"number": 101, "value": 127}, "group": "control_change"}, {"time": 482, "annotation": {"number": 100, "value": 127}, "group": "control_change"}]}, {"program": 0, "is_drum": false, "name": "st1", "annotations": [{"time": 346, "annotation": {"number": 0, "value": 0}, "group": "control_change"}, {"time": 365, "annotation": {"number": 32, "value": 0}, "group": "control_change"}]}, {"program": 48, "is_drum": false, "name": "st1", "notes": [{"time": 34800, "pitch": 72, "duration": 78, "velocity": 94}, {"time": 34859, "pitch": 74, "duration": 79, "velocity": 94}, {"time": 34919, "pitch": 76, "duration": 78, "velocity": 99}, {"time": 34978, "pitch": 77, "duration": 58, "velocity": 96}, {"time": 35037, "pitch": 79, "duration": 970, "velocity": 110}, {"time": 35998, "pitch": 76, "duration": 230, "velocity": 97}, {"time": 36238, "pitch": 77, "duration": 237, "velocity": 104}, {"time": 36479, "pitch": 76, "duration": 236, "velocity": 104}, {"time": 36719, "pitch": 74, "duration": 239, "velocity": 104}, {"time": 36959, "pitch": 74, "duration": 230, "velocity": 105}, {"time": 37199, "pitch": 72, "duration": 1441, "velocity": 105}, {"time": 38641, "pitch": 72, "duration": 59, "velocity": 107}, {"time": 38701, "pitch": 74, "duration": 59, "velocity": 103}, {"time": 38761, "pitch": 76, "duration": 59, "velocity": 104}, {"time": 38821, "pitch": 77, "duration": 59, "velocity": 106}, {"time": 38881, "pitch": 79, "duration": 966, "velocity": 101}, {"time": 39842, "pitch": 80, "duration": 447, "velocity": 104}, {"time": 40322, "pitch": 80, "duration": 263, "velocity": 102}, {"time": 40562, "pitch": 83, "duration": 240, "velocity": 102}, {"time": 40803, "pitch": 83, "duration": 233, "velocity": 102}, {"time": 41040, "pitch": 81, "duration": 117, "velocity": 111}, {"time": 41158, "pitch": 81, "duration": 1039, "velocity": 114}, {"time": 42238, "pitch": 81, "duration": 72, "velocity": 111}, {"time": 42318, "pitch": 79, "duration": 73, "velocity": 103}, {"time": 42398, "pitch": 77, "duration": 79, "velocity": 108}, {"time": 42478, "pitch": 76, "duration": 79, "velocity": 103}, {"time": 42558, "pitch": 74, "duration": 89, "velocity": 102}, {"time": 42638, "pitch": 72, "duration": 79, "velocity": 116}, {"time": 42718, "pitch": 72, "duration": 79, "velocity": 116}, {"time": 42959, "pitch": 72, "duration": 79, "velocity": 67}, {"time": 43199, "pitch": 72, "duration": 90, "velocity": 127}, {"time": 43439, "pitch": 72, "duration": 85, "velocity": 64}, {"time": 43679, "pitch": 72, "duration": 83, "velocity": 127}, {"time": 43919, "pitch": 72, "duration": 78, "velocity": 56}, {"time": 44160, "pitch": 72, "duration": 79, "velocity": 127}, {"time": 44400, "pitch": 72, "duration": 77, "velocity": 59}, {"time": 44640, "pitch": 72, "duration": 80, "velocity": 127}, {"time": 44880, "pitch": 72, "duration": 74, "velocity": 57}, {"time": 45121, "pitch": 72, "duration": 82, "velocity": 127}, {"time": 45361, "pitch": 72, "duration": 70, "velocity": 56}, {"time": 45601, "pitch": 72, "duration": 87, "velocity": 127}, {"time": 45841, "pitch": 72, "duration": 72, "velocity": 57}, {"time": 46081, "pitch": 72, "duration": 79, "velocity": 127}, {"time": 46322, "pitch": 72, "duration": 62, "velocity": 55}, {"time": 46562, "pitch": 72, "duration": 66, "velocity": 127}, {"time": 46802, "pitch": 72, "duration": 65, "velocity": 46}, {"time": 47042, "pitch": 72, "duration": 87, "velocity": 127}, {"time": 47282, "pitch": 72, "duration": 70, "velocity": 59}, {"time": 47523, "pitch": 74, "duration": 89, "velocity": 127}, {"time": 48478, "pitch": 76, "duration": 959, "velocity": 87}, {"time": 49439, "pitch": 74, "duration": 481, "velocity": 84}, {"time": 49919, "pitch": 79, "duration": 492, "velocity": 92}, {"time": 50399, "pitch": 72, "duration": 955, "velocity": 91}, {"time": 51360, "pitch": 71, "duration": 466, "velocity": 97}, {"time": 51841, "pitch": 76, "duration": 496, "velocity": 92}, {"time": 52321, "pitch": 69, "duration": 954, "velocity": 93}, {"time": 53282, "pitch": 67, "duration": 474, "velocity": 94}, {"time": 53762, "pitch": 72, "duration": 223, "velocity": 98}, {"time": 54003, "pitch": 74, "duration": 240, "velocity": 99}, {"time": 54243, "pitch": 77, "duration": 236, "velocity": 103}, {"time": 54480, "pitch": 76, "duration": 231, "velocity": 104}, {"time": 54717, "pitch": 74, "duration": 223, "velocity": 99}, {"time": 54958, "pitch": 72, "duration": 236, "velocity": 90}, {"time": 55197, "pitch": 74, "duration": 470, "velocity": 98}, {"time": 55677, "pitch": 74, "duration": 233, "velocity": 99}, {"time": 55917, "pitch": 72, "duration": 240, "velocity": 91}, {"time": 56159, "pitch": 72, "duration": 960, "velocity": 91}, {"time": 57120, "pitch": 72, "duration": 479, "velocity": 91}, {"time": 57600, "pitch": 74, "duration": 476, "velocity": 91}, {"time": 58080, "pitch": 72, "duration": 1918, "velocity": 78}, {"time": 82799, "pitch": 72, "duration": 79, "velocity": 94}, {"time": 82859, "pitch": 74, "duration": 79, "velocity": 94}, {"time": 82919, "pitch": 76, "duration": 79, "velocity": 99}, {"time": 82979, "pitch": 77, "duration": 59, "velocity": 96}, {"time": 83039, "pitch": 79, "duration": 970, "velocity": 110}, {"time": 84000, "pitch": 76, "duration": 230, "velocity": 97}, {"time": 84240, "pitch": 77, "duration": 236, "velocity": 104}, {"time": 84481, "pitch": 76, "duration": 236, "velocity": 104}, {"time": 84721, "pitch": 74, "duration": 239, "velocity": 104}, {"time": 84961, "pitch": 74, "duration": 230, "velocity": 105}, {"time": 85201, "pitch": 72, "duration": 1440, "velocity": 105}, {"time": 86642, "pitch": 72, "duration": 60, "velocity": 107}, {"time": 86703, "pitch": 74, "duration": 59, "velocity": 103}, {"time": 86763, "pitch": 76, "duration": 59, "velocity": 104}, {"time": 86823, "pitch": 77, "duration": 59, "velocity": 106}, {"time": 86883, "pitch": 79, "duration": 960, "velocity": 101}, {"time": 87838, "pitch": 80, "duration": 447, "velocity": 104}, {"time": 88318, "pitch": 80, "duration": 263, "velocity": 102}, {"time": 88558, "pitch": 83, "duration": 239, "velocity": 102}, {"time": 88798, "pitch": 83, "duration": 237, "velocity": 102}, {"time": 89039, "pitch": 81, "duration": 119, "velocity": 111}, {"time": 89159, "pitch": 81, "duration": 1040, "velocity": 114}, {"time": 90240, "pitch": 81, "duration": 72, "velocity": 111}, {"time": 90320, "pitch": 79, "duration": 73, "velocity": 103}, {"time": 90400, "pitch": 77, "duration": 79, "velocity": 108}, {"time": 90480, "pitch": 76, "duration": 79, "velocity": 103}, {"time": 90560, "pitch": 74, "duration": 89, "velocity": 102}, {"time": 90640, "pitch": 72, "duration": 79, "velocity": 116}, {"time": 90720, "pitch": 72, "duration": 79, "velocity": 116}, {"time": 90960, "pitch": 72, "duration": 79, "velocity": 67}, {"time": 91201, "pitch": 72, "duration": 90, "velocity": 127}, {"time": 91441, "pitch": 72, "duration": 85, "velocity": 64}, {"time": 91681, "pitch": 72, "duration": 83, "velocity": 127}, {"time": 91921, "pitch": 72, "duration": 77, "velocity": 56}, {"time": 92162, "pitch": 72, "duration": 79, "velocity": 127}, {"time": 92402, "pitch": 72, "duration": 77, "velocity": 59}, {"time": 92642, "pitch": 72, "duration": 80, "velocity": 127}, {"time": 92882, "pitch": 72, "duration": 74, "velocity": 57}, {"time": 93122, "pitch": 72, "duration": 82, "velocity": 127}, {"time": 93363, "pitch": 72, "duration": 70, "velocity": 56}, {"time": 93603, "pitch": 72, "duration": 86, "velocity": 127}, {"time": 93840, "pitch": 72, "duration": 71, "velocity": 57}, {"time": 94077, "pitch": 72, "duration": 79, "velocity": 127}, {"time": 94318, "pitch": 72, "duration": 62, "velocity": 55}, {"time": 94558, "pitch": 72, "duration": 66, "velocity": 127}, {"time": 94798, "pitch": 72, "duration": 65, "velocity": 46}, {"time": 95038, "pitch": 72, "duration": 87, "velocity": 127}, {"time": 95278, "pitch": 72, "duration": 69, "velocity": 59}, {"time": 95519, "pitch": 74, "duration": 90, "velocity": 127}, {"time": 96479, "pitch": 65, "duration": 944, "velocity": 70}, {"time": 96479, "pitch": 69, "duration": 933, "velocity": 62}, {"time": 97440, "pitch": 64, "duration": 880, "velocity": 71}, {"time": 97440, "pitch": 67, "duration": 960, "velocity": 53}, {"time": 98401, "pitch": 63, "duration": 944, "velocity": 72}, {"time": 98401, "pitch": 67, "duration": 929, "velocity": 54}, {"time": 99362, "pitch": 62, "duration": 596, "velocity": 59}, {"time": 99362, "pitch": 66, "duration": 595, "velocity": 76}, {"time": 99963, "pitch": 62, "duration": 319, "velocity": 84}, {"time": 99963, "pitch": 66, "duration": 319, "velocity": 83}, {"time": 100323, "pitch": 64, "duration": 1915, "velocity": 65}, {"time": 100323, "pitch": 69, "duration": 946, "velocity": 61}, {"time": 101278, "pitch": 68, "duration": 960, "velocity": 70}, {"time": 102239, "pitch": 64, "duration": 947, "velocity": 71}, {"time": 102239, "pitch": 67, "duration": 941, "velocity": 56}, {"time": 103200, "pitch": 62, "duration": 432, "velocity": 65}, {"time": 103200, "pitch": 66, "duration": 478, "velocity": 72}, {"time": 103680, "pitch": 62, "duration": 85, "velocity": 97}, {"time": 103760, "pitch": 64, "duration": 103, "velocity": 103}, {"time": 103840, "pitch": 66, "duration": 79, "velocity": 109}, {"time": 103920, "pitch": 67, "duration": 87, "velocity": 99}, {"time": 104000, "pitch": 69, "duration": 93, "velocity": 102}, {"time": 104080, "pitch": 71, "duration": 68, "velocity": 108}, {"time": 104160, "pitch": 72, "duration": 1441, "velocity": 113}, {"time": 105602, "pitch": 79, "duration": 479, "velocity": 103}, {"time": 106082, "pitch": 74, "duration": 787, "velocity": 82}, {"time": 106879, "pitch": 72, "duration": 92, "velocity": 71}, {"time": 106919, "pitch": 71, "duration": 78, "velocity": 85}, {"time": 106958, "pitch": 69, "duration": 78, "velocity": 103}, {"time": 107037, "pitch": 67, "duration": 800, "velocity": 86}, {"time": 107838, "pitch": 64, "duration": 79, "velocity": 100}, {"time": 107878, "pitch": 65, "duration": 64, "velocity": 86}, {"time": 107918, "pitch": 67, "duration": 70, "velocity": 117}, {"time": 107998, "pitch": 69, "duration": 1417, "velocity": 96}, {"time": 109439, "pitch": 69, "duration": 70, "velocity": 117}, {"time": 109519, "pitch": 71, "duration": 79, "velocity": 95}, {"time": 109559, "pitch": 73, "duration": 59, "velocity": 87}, {"time": 109619, "pitch": 71, "duration": 60, "velocity": 89}, {"time": 109680, "pitch": 73, "duration": 79, "velocity": 94}, {"time": 109740, "pitch": 74, "duration": 79, "velocity": 82}, {"time": 109800, "pitch": 76, "duration": 59, "velocity": 85}, {"time": 109840, "pitch": 73, "duration": 79, "velocity": 97}, {"time": 109920, "pitch": 73, "duration": 960, "velocity": 100}, {"time": 110881, "pitch": 81, "duration": 959, "velocity": 90}, {"time": 111841, "pitch": 79, "duration": 970, "velocity": 110}, {"time": 112802, "pitch": 76, "duration": 231, "velocity": 97}, {"time": 113043, "pitch": 77, "duration": 236, "velocity": 104}, {"time": 113283, "pitch": 76, "duration": 233, "velocity": 104}, {"time": 113520, "pitch": 74, "duration": 236, "velocity": 104}, {"time": 113757, "pitch": 74, "duration": 231, "velocity": 105}, {"time": 113998, "pitch": 72, "duration": 1440, "velocity": 105}, {"time": 115439, "pitch": 72, "duration": 59, "velocity": 107}, {"time": 115499, "pitch": 74, "duration": 59, "velocity": 103}, {"time": 115559, "pitch": 76, "duration": 59, "velocity": 104}, {"time": 115619, "pitch": 77, "duration": 59, "velocity": 106}, {"time": 115679, "pitch": 79, "duration": 966, "velocity": 101}, {"time": 116640, "pitch": 80, "duration": 447, "velocity": 104}, {"time": 117120, "pitch": 83, "duration": 480, "velocity": 102}, {"time": 117601, "pitch": 83, "duration": 236, "velocity": 102}, {"time": 117841, "pitch": 81, "duration": 119, "velocity": 111}, {"time": 117961, "pitch": 81, "duration": 1040, "velocity": 114}, {"time": 119042, "pitch": 81, "duration": 72, "velocity": 111}, {"time": 119122, "pitch": 79, "duration": 73, "velocity": 103}, {"time": 119202, "pitch": 77, "duration": 79, "velocity": 108}, {"time": 119282, "pitch": 76, "duration": 79, "velocity": 103}, {"time": 119362, "pitch": 74, "duration": 89, "velocity": 102}, {"time": 119442, "pitch": 72, "duration": 79, "velocity": 116}, {"time": 119522, "pitch": 72, "duration": 80, "velocity": 116}, {"time": 119763, "pitch": 72, "duration": 79, "velocity": 67}, {"time": 120003, "pitch": 72, "duration": 89, "velocity": 127}, {"time": 120240, "pitch": 72, "duration": 84, "velocity": 64}, {"time": 120477, "pitch": 72, "duration": 84, "velocity": 127}, {"time": 120718, "pitch": 72, "duration": 77, "velocity": 56}, {"time": 120958, "pitch": 72, "duration": 79, "velocity": 127}, {"time": 121198, "pitch": 72, "duration": 77, "velocity": 59}, {"time": 121438, "pitch": 72, "duration": 80, "velocity": 127}, {"time": 121679, "pitch": 72, "duration": 74, "velocity": 57}, {"time": 121919, "pitch": 72, "duration": 82, "velocity": 127}, {"time": 122159, "pitch": 72, "duration": 70, "velocity": 56}, {"time": 122399, "pitch": 72, "duration": 87, "velocity": 127}, {"time": 122639, "pitch": 72, "duration": 72, "velocity": 57}, {"time": 122880, "pitch": 72, "duration": 79, "velocity": 127}, {"time": 123120, "pitch": 72, "duration": 62, "velocity": 55}, {"time": 123360, "pitch": 72, "duration": 66, "velocity": 127}, {"time": 123600, "pitch": 72, "duration": 65, "velocity": 46}, {"time": 123840, "pitch": 72, "duration": 88, "velocity": 127}, {"time": 124081, "pitch": 72, "duration": 69, "velocity": 59}, {"time": 124321, "pitch": 74, "duration": 90, "velocity": 127}, {"time": 125282, "pitch": 76, "duration": 80, "velocity": 112}, {"time": 125522, "pitch": 76, "duration": 74, "velocity": 62}, {"time": 125762, "pitch": 76, "duration": 82, "velocity": 112}, {"time": 126002, "pitch": 76, "duration": 70, "velocity": 55}, {"time": 126243, "pitch": 76, "duration": 85, "velocity": 112}, {"time": 126480, "pitch": 76, "duration": 71, "velocity": 55}, {"time": 126717, "pitch": 76, "duration": 79, "velocity": 112}, {"time": 126957, "pitch": 76, "duration": 62, "velocity": 62}, {"time": 127198, "pitch": 76, "duration": 80, "velocity": 112}, {"time": 127438, "pitch": 76, "duration": 74, "velocity": 62}, {"time": 127678, "pitch": 76, "duration": 82, "velocity": 112}, {"time": 127918, "pitch": 76, "duration": 70, "velocity": 55}, {"time": 128158, "pitch": 76, "duration": 87, "velocity": 112}, {"time": 128399, "pitch": 76, "duration": 72, "velocity": 55}, {"time": 128639, "pitch": 76, "duration": 79, "velocity": 112}, {"time": 128879, "pitch": 76, "duration": 62, "velocity": 62}, {"time": 129119, "pitch": 72, "duration": 66, "velocity": 110}, {"time": 129360, "pitch": 72, "duration": 65, "velocity": 78}, {"time": 129600, "pitch": 72, "duration": 87, "velocity": 127}, {"time": 129840, "pitch": 72, "duration": 69, "velocity": 59}, {"time": 130080, "pitch": 74, "duration": 89, "velocity": 127}, {"time": 131041, "pitch": 76, "duration": 959, "velocity": 121}, {"time": 132002, "pitch": 74, "duration": 481, "velocity": 84}, {"time": 132482, "pitch": 79, "duration": 493, "velocity": 92}, {"time": 132963, "pitch": 72, "duration": 949, "velocity": 91}, {"time": 133918, "pitch": 71, "duration": 465, "velocity": 97}, {"time": 134398, "pitch": 76, "duration": 497, "velocity": 92}, {"time": 134879, "pitch": 69, "duration": 953, "velocity": 93}, {"time": 135839, "pitch": 67, "duration": 475, "velocity": 94}, {"time": 136320, "pitch": 72, "duration": 222, "velocity": 98}, {"time": 136560, "pitch": 74, "duration": 240, "velocity": 99}, {"time": 136800, "pitch": 77, "duration": 240, "velocity": 103}, {"time": 137041, "pitch": 76, "duration": 234, "velocity": 104}, {"time": 137281, "pitch": 74, "duration": 222, "velocity": 99}, {"time": 137521, "pitch": 72, "duration": 236, "velocity": 90}, {"time": 137760, "pitch": 74, "duration": 471, "velocity": 98}, {"time": 138241, "pitch": 74, "duration": 233, "velocity": 99}, {"time": 138481, "pitch": 72, "duration": 239, "velocity": 91}, {"time": 138720, "pitch": 72, "duration": 1043, "velocity": 91}, {"time": 139763, "pitch": 72, "duration": 403, "velocity": 91}, {"time": 140166, "pitch": 74, "duration": 466, "velocity": 91}, {"time": 140636, "pitch": 76, "duration": 1953, "velocity": 78}], "annotations": [{"time": 403, "annotation": {"number": 7, "value": 80}, "group": "control_change"}, {"time": 422, "annotation": {"number": 11, "value": 127}, "group": "control_change"}, {"time": 442, "annotation": {"number": 10, "value": 24}, "group": "control_change"}, {"time": 461, "annotation": {"number": 91, "value": 80}, "group": "control_change"}, {"time": 480, "annotation": {"number": 93, "value": 20}, "group": "control_change"}, {"time": 480, "annotation": {"number": 101, "value": 0}, "group": "control_change"}, {"time": 480, "annotation": {"number": 100, "value": 0}, "group": "control_change"}, {"time": 480, "annotation": {"number": 6, "value": 12}, "group": "control_change"}, {"time": 480, "annotation": {"number": 101, "value": 127}, "group": "control_change"}, {"time": 482, "annotation": {"number": 100, "value": 127}, "group": "control_change"}, {"time": 35036, "annotation": {"number": 11, "value": 76}, "group": "control_change"}, {"time": 35065, "annotation": {"number": 11, "value": 77}, "group": "control_change"}, {"time": 35085, "annotation": {"number": 11, "value": 78}, "group": "control_change"}, {"time": 35105, "annotation": {"number": 11, "value": 79}, "group": "control_change"}, {"time": 35137, "annotation": {"number": 11, "value": 80}, "group": "control_change"}, {"time": 35157, "annotation": {"number": 11, "value": 81}, "group": "control_change"}, {"time": 35177, "annotation": {"number": 11, "value": 82}, "group": "control_change"}, {"time": 35198, "annotation": {"number": 11, "value": 83}, "group": "control_change"}, {"time": 35226, "annotation": {"number": 11, "value": 84}, "group": "control_change"}, {"time": 35246, "annotation": {"number": 11, "value": 85}, "group": "control_change"}, {"time": 35266, "annotation": {"number": 11, "value": 86}, "group": "control_change"}, {"time": 35286, "annotation": {"number": 11, "value": 87}, "group": "control_change"}, {"time": 35318, "annotation": {"number": 11, "value": 88}, "group": "control_change"}, {"time": 35338, "annotation": {"number": 11, "value": 89}, "group": "control_change"}, {"time": 35358, "annotation": {"number": 11, "value": 90}, "group": "control_change"}, {"time": 35378, "annotation": {"number": 11, "value": 91}, "group": "control_change"}, {"time": 35406, "annotation": {"number": 11, "value": 92}, "group": "control_change"}, {"time": 35426, "annotation": {"number": 11, "value": 93}, "group": "control_change"}, {"time": 35446, "annotation": {"number": 11, "value": 94}, "group": "control_change"}, {"time": 35466, "annotation": {"number": 11, "value": 95}, "group": "control_change"}, {"time": 35498, "annotation": {"number": 11, "value": 96}, "group": "control_change"}, {"time": 35518, "annotation": {"number": 11, "value": 97}, "group": "control_change"}, {"time": 35538, "annotation": {"number": 11, "value": 98}, "group": "control_change"}, {"time": 35558, "annotation": {"number": 11, "value": 99}, "group": "control_change"}, {"time": 35586, "annotation": {"number": 11, "value": 100}, "group": "control_change"}, {"time": 35606, "annotation": {"number": 11, "value": 101}, "group": "control_change"}, {"time": 35626, "annotation": {"number": 11, "value": 102}, "group": "control_change"}, {"time": 35646, "annotation": {"number": 11, "value": 103}, "group": "control_change"}, {"time": 35678, "annotation": {"number": 11, "value": 104}, "group": "control_change"}, {"time": 35698, "annotation": {"number": 11, "value": 105}, "group": "control_change"}, {"time": 35718, "annotation": {"number": 11, "value": 106}, "group": "control_change"}, {"time": 35738, "annotation": {"number": 11, "value": 107}, "group": "control_change"}, {"time": 35766, "annotation": {"number": 11, "value": 108}, "group": "control_change"}, {"time": 35786, "annotation": {"number": 11, "value": 109}, "group": "control_change"}, {"time": 35806, "annotation": {"number": 11, "value": 110}, "group": "control_change"}, {"time": 35826, "annotation": {"number": 11, "value": 111}, "group": "control_change"}, {"time": 35858, "annotation": {"number": 11, "value": 112}, "group": "control_change"}, {"time": 35878, "annotation": {"number": 11, "value": 113}, "group": "control_change"}, {"time": 35898, "annotation": {"number": 11, "value": 114}, "group": "control_change"}, {"time": 35918, "annotation": {"number": 11, "value": 115}, "group": "control_change"}, {"time": 35946, "annotation": {"number": 11, "value": 116}, "group": "control_change"}, {"time": 35966, "annotation": {"number": 11, "value": 117}, "group": "control_change"}, {"time": 35986, "annotation": {"number": 11, "value": 118}, "group": "control_change"}, {"time": 36006, "annotation": {"number": 11, "value": 119}, "group": "control_change"}, {"time": 36038, "annotation": {"number": 11, "value": 120}, "group": "control_change"}, {"time": 36058, "annotation": {"number": 11, "value": 121}, "group": "control_change"}, {"time": 36078, "annotation": {"number": 11, "value": 122}, "group": "control_change"}, {"time": 36098, "annotation": {"number": 11, "value": 123}, "group": "control_change"}, {"time": 36126, "annotation": {"number": 11, "value": 124}, "group": "control_change"}, {"time": 36146, "annotation": {"number": 11, "value": 125}, "group": "control_change"}, {"time": 36166, "annotation": {"number": 11, "value": 126}, "group": "control_change"}, {"time": 36186, "annotation": {"number": 11, "value": 127}, "group": "control_change"}, {"time": 38208, "annotation": {"number": 11, "value": 127}, "group": "control_change"}, {"time": 38220, "annotation": {"number": 11, "value": 126}, "group": "control_change"}, {"time": 38228, "annotation": {"number": 11, "value": 124}, "group": "control_change"}, {"time": 38240, "annotation": {"number": 11, "value": 123}, "group": "control_change"}, {"time": 38248, "annotation": {"number": 11, "value": 121}, "group": "control_change"}, {"time": 38260, "annotation": {"number": 11, "value": 120}, "group": "control_change"}, {"time": 38268, "annotation": {"number": 11, "value": 118}, "group": "control_change"}, {"time": 38280, "annotation": {"number": 11, "value": 117}, "group": "control_change"}, {"time": 38288, "annotation": {"number": 11, "value": 115}, "group": "control_change"}, {"time": 38300, "annotation": {"number": 11, "value": 114}, "group": "control_change"}, {"time": 38308, "annotation": {"number": 11, "value": 112}, "group": "control_change"}, {"time": 38320, "annotation": {"number": 11, "value": 111}, "group": "control_change"}, {"time": 38328, "annotation": {"number": 11, "value": 109}, "group": "control_change"}, {"time": 38340, "annotation": {"number": 11, "value": 108}, "group": "control_change"}, {"time": 38348, "annotation": {"number": 11, "value": 106}, "group": "control_change"}, {"time": 38360, "annotation": {"number": 11, "value": 105}, "group": "control_change"}, {"time": 38368, "annotation": {"number": 11, "value": 103}, "group": "control_change"}, {"time": 38380, "annotation": {"number": 11, "value": 102}, "group": "control_change"}, {"time": 38388, "annotation": {"number": 11, "value": 100}, "group": "control_change"}, {"time": 38400, "annotation": {"number": 11, "value": 99}, "group": "control_change"}, {"time": 38408, "annotation": {"number": 11, "value": 97}, "group": "control_change"}, {"time": 38420, "annotation": {"number": 11, "value": 95}, "group": "control_change"}, {"time": 38428, "annotation": {"number": 11, "value": 94}, "group": "control_change"}, {"time": 38440, "annotation": {"number": 11, "value": 92}, "group": "control_change"}, {"time": 38448, "annotation": {"number": 11, "value": 91}, "group": "control_change"}, {"time": 38460, "annotation": {"number": 11, "value": 89}, "group": "control_change"}, {"time": 38468, "annotation": {"number": 11, "value": 88}, "group": "control_change"}, {"time": 38480, "annotation": {"number": 11, "value": 86}, "group": "control_change"}, {"time": 38488, "annotation": {"number": 11, "value": 85}, "group": "control_change"}, {"time": 38500, "annotation": {"number": 11, "value": 83}, "group": "control_change"}, {"time": 38508, "annotation": {"number": 11, "value": 82}, "group": "control_change"}, {"time": 38521, "annotation": {"number": 11, "value": 80}, "group": "control_change"}, {"time": 38529, "annotation": {"number": 11, "value": 79}, "group": "control_change"}, {"time": 38541, "annotation": {"number": 11, "value": 77}, "group": "control_change"}, {"time": 38549, "annotation": {"number": 11, "value": 76}, "group": "control_change"}, {"time": 38561, "annotation": {"number": 11, "value": 74}, "group": "control_change"}, {"time": 38569, "annotation": {"number": 11, "value": 73}, "group": "control_change"}, {"time": 38581, "annotation": {"number": 11, "value": 71}, "group": "control_change"}, {"time": 38589, "annotation": {"number": 11, "value": 70}, "group": "control_change"}, {"time": 38601, "annotation": {"number": 11, "value": 68}, "group": "control_change"}, {"time": 38609, "annotation": {"number": 11, "value": 67}, "group": "control_change"}, {"time": 38621, "annotation": {"number": 11, "value": 65}, "group": "control_change"}, {"time": 38640, "annotation": {"number": 11, "value": 127}, "group": "control_change"}, {"time": 38880, "annotation": {"number": 11, "value": 74}, "group": "control_change"}, {"time": 38921, "annotation": {"number": 11, "value": 75}, "group": "control_change"}, {"time": 38941, "annotation": {"number": 11, "value": 76}, "group": "control_change"}, {"time": 38961, "annotation": {"number": 11, "value": 77}, "group": "control_change"}, {"time": 38981, "annotation": {"number": 11, "value": 78}, "group": "control_change"}, {"time": 39009, "annotation": {"number": 11, "value": 79}, "group": "control_change"}, {"time": 39029, "annotation": {"number": 11, "value": 80}, "group": "control_change"}, {"time": 39049, "annotation": {"number": 11, "value": 81}, "group": "control_change"}, {"time": 39069, "annotation": {"number": 11, "value": 82}, "group": "control_change"}, {"time": 39089, "annotation": {"number": 11, "value": 83}, "group": "control_change"}, {"time": 39121, "annotation": {"number": 11, "value": 84}, "group": "control_change"}, {"time": 39141, "annotation": {"number": 11, "value": 85}, "group": "control_change"}, {"time": 39161, "annotation": {"number": 11, "value": 86}, "group": "control_change"}, {"time": 39181, "annotation": {"number": 11, "value": 87}, "group": "control_change"}, {"time": 39201, "annotation": {"number": 11, "value": 88}, "group": "control_change"}, {"time": 39229, "annotation": {"number": 11, "value": 89}, "group": "control_change"}, {"time": 39249, "annotation": {"number": 11, "value": 90}, "group": "control_change"}, {"time": 39269, "annotation": {"number": 11, "value": 91}, "group": "control_change"}, {"time": 39289, "annotation": {"number": 11, "value": 92}, "group": "control_change"}, {"time": 39309, "annotation": {"number": 11, "value": 93}, "group": "control_change"}, {"time": 39341, "annotation": {"number": 11, "value": 94}, "group": "control_change"}, {"time": 39361, "annotation": {"number": 11, "value": 95}, "group": "control_change"}, {"time": 39381, "annotation": {"number": 11, "value": 96}, "group": "control_change"}, {"time": 39401, "annotation": {"number": 11, "value": 97}, "group": "control_change"}, {"time": 39421, "annotation": {"number": 11, "value": 98}, "group": "control_change"}, {"time": 39449, "annotation": {"number": 11, "value": 99}, "group": "control_change"}, {"time": 39469, "annotation": {"number": 11, "value": 100}, "group": "control_change"}, {"time": 39489, "annotation": {"number": 11, "value": 101}, "group": "control_change"}, {"time": 39509, "annotation": {"number": 11, "value": 102}, "group": "control_change"}, {"time": 39541, "annotation": {"number": 11, "value": 103}, "group": "control_change"}, {"time": 39561, "annotation": {"number": 11, "value": 104}, "group": "control_change"}, {"time": 39581, "annotation": {"number": 11, "value": 105}, "group": "control_change"}, {"time": 39601, "annotation": {"number": 11, "value": 106}, "group": "control_change"}, {"time": 39621, "annotation": {"number": 11, "value": 107}, "group": "control_change"}, {"time": 39650, "annotation": {"number": 11, "value": 108}, "group": "control_change"}, {"time": 39670, "annotation": {"number": 11, "value": 109}, "group": "control_change"}, {"time": 39690, "annotation": {"number": 11, "value": 110}, "group": "control_change"}, {"time": 39710, "annotation": {"number": 11, "value": 111}, "group": "control_change"}, {"time": 39730, "annotation": {"number": 11, "value": 112}, "group": "control_change"}, {"time": 39762, "annotation": {"number": 11, "value": 113}, "group": "control_change"}, {"time": 39782, "annotation": {"number": 11, "value": 114}, "group": "control_change"}, {"time": 39802, "annotation": {"number": 11, "value": 115}, "group": "control_change"}, {"time": 39822, "annotation": {"number": 11, "value": 116}, "group": "control_change"}, {"time": 39842, "annotation": {"number": 11, "value": 117}, "group": "control_change"}, {"time": 39870, "annotation": {"number": 11, "value": 118}, "group": "control_change"}, {"time": 39890, "annotation": {"number": 11, "value": 119}, "group": "control_change"}, {"time": 39910, "annotation": {"number": 11, "value": 120}, "group": "control_change"}, {"time": 39930, "annotation": {"number": 11, "value": 121}, "group": "control_change"}, {"time": 39950, "annotation": {"number": 11, "value": 122}, "group": "control_change"}, {"time": 39982, "annotation": {"number": 11, "value": 123}, "group": "control_change"}, {"time": 40002, "annotation": {"number": 11, "value": 124}, "group": "control_change"}, {"time": 40022, "annotation": {"number": 11, "value": 125}, "group": "control_change"}, {"time": 40042, "annotation": {"number": 11, "value": 126}, "group": "control_change"}, {"time": 40062, "annotation": {"number": 11, "value": 127}, "group": "control_change"}, {"time": 41958, "annotation": {"number": 11, "value": 127}, "group": "control_change"}, {"time": 41966, "annotation": {"number": 11, "value": 125}, "group": "control_change"}, {"time": 41978, "annotation": {"number": 11, "value": 122}, "group": "control_change"}, {"time": 41986, "annotation": {"number": 11, "value": 119}, "group": "control_change"}, {"time": 41998, "annotation": {"number": 11, "value": 116}, "group": "control_change"}, {"time": 42006, "annotation": {"number": 11, "value": 113}, "group": "control_change"}, {"time": 42018, "annotation": {"number": 11, "value": 110}, "group": "control_change"}, {"time": 42026, "annotation": {"number": 11, "value": 107}, "group": "control_change"}, {"time": 42038, "annotation": {"number": 11, "value": 104}, "group": "control_change"}, {"time": 42046, "annotation": {"number": 11, "value": 101}, "group": "control_change"}, {"time": 42058, "annotation": {"number": 11, "value": 99}, "group": "control_change"}, {"time": 42066, "annotation": {"number": 11, "value": 96}, "group": "control_change"}, {"time": 42078, "annotation": {"number": 11, "value": 93}, "group": "control_change"}, {"time": 42086, "annotation": {"number": 11, "value": 90}, "group": "control_change"}, {"time": 42098, "annotation": {"number": 11, "value": 87}, "group": "control_change"}, {"time": 42106, "annotation": {"number": 11, "value": 84}, "group": "control_change"}, {"time": 42118, "annotation": {"number": 11, "value": 81}, "group": "control_change"}, {"time": 42126, "annotation": {"number": 11, "value": 78}, "group": "control_change"}, {"time": 42138, "annotation": {"number": 11, "value": 75}, "group": "control_change"}, {"time": 42146, "annotation": {"number": 11, "value": 72}, "group": "control_change"}, {"time": 42158, "annotation": {"number": 11, "value": 70}, "group": "control_change"}, {"time": 42166, "annotation": {"number": 11, "value": 67}, "group": "control_change"}, {"time": 42178, "annotation": {"number": 11, "value": 64}, "group": "control_change"}, {"time": 42186, "annotation": {"number": 11, "value": 61}, "group": "control_change"}, {"time": 42198, "annotation": {"number": 11, "value": 58}, "group": "control_change"}, {"time": 42206, "annotation": {"number": 11, "value": 55}, "group": "control_change"}, {"time": 42218, "annotation": {"number": 11, "value": 52}, "group": "control_change"}, {"time": 42237, "annotation": {"number": 11, "value": 127}, "group": "control_change"}, {"time": 48477, "annotation": {"number": 11, "value": 70}, "group": "control_change"}, {"time": 48526, "annotation": {"number": 11, "value": 71}, "group": "control_change"}, {"time": 48558, "annotation": {"number": 11, "value": 72}, "group": "control_change"}, {"time": 48586, "annotation": {"number": 11, "value": 73}, "group": "control_change"}, {"time": 48618, "annotation": {"number": 11, "value": 74}, "group": "control_change"}, {"time": 48646, "annotation": {"number": 11, "value": 75}, "group": "control_change"}, {"time": 48678, "annotation": {"number": 11, "value": 76}, "group": "control_change"}, {"time": 48706, "annotation": {"number": 11, "value": 77}, "group": "control_change"}, {"time": 48726, "annotation": {"number": 11, "value": 78}, "group": "control_change"}, {"time": 48758, "annotation": {"number": 11, "value": 79}, "group": "control_change"}, {"time": 48786, "annotation": {"number": 11, "value": 80}, "group": "control_change"}, {"time": 48818, "annotation": {"number": 11, "value": 81}, "group": "control_change"}, {"time": 48846, "annotation": {"number": 11, "value": 82}, "group": "control_change"}, {"time": 48878, "annotation": {"number": 11, "value": 83}, "group": "control_change"}, {"time": 48898, "annotation": {"number": 11, "value": 84}, "group": "control_change"}, {"time": 48926, "annotation": {"number": 11, "value": 85}, "group": "control_change"}, {"time": 48958, "annotation": {"number": 11, "value": 86}, "group": "control_change"}, {"time": 48986, "annotation": {"number": 11, "value": 87}, "group": "control_change"}, {"time": 49018, "annotation": {"number": 11, "value": 88}, "group": "control_change"}, {"time": 49046, "annotation": {"number": 11, "value": 89}, "group": "control_change"}, {"time": 49066, "annotation": {"number": 11, "value": 90}, "group": "control_change"}, {"time": 49098, "annotation": {"number": 11, "value": 91}, "group": "control_change"}, {"time": 49126, "annotation": {"number": 11, "value": 92}, "group": "control_change"}, {"time": 49158, "annotation": {"number": 11, "value": 93}, "group": "control_change"}, {"time": 49186, "annotation": {"number": 11, "value": 94}, "group": "control_change"}, {"time": 49218, "annotation": {"number": 11, "value": 95}, "group": "control_change"}, {"time": 49238, "annotation": {"number": 11, "value": 96}, "group": "control_change"}, {"time": 49266, "annotation": {"number": 11, "value": 97}, "group": "control_change"}, {"time": 49298, "annotation": {"number": 11, "value": 98}, "group": "control_change"}, {"time": 49326, "annotation": {"number": 11, "value": 99}, "group": "control_change"}, {"time": 49358, "annotation": {"number": 11, "value": 100}, "group": "control_change"}, {"time": 49386, "annotation": {"number": 11, "value": 101}, "group": "control_change"}, {"time": 49418, "annotation": {"number": 11, "value": 102}, "group": "control_change"}, {"time": 49439, "annotation": {"number": 11, "value": 103}, "group": "control_change"}, {"time": 49467, "annotation": {"number": 11, "value": 104}, "group": "control_change"}, {"time": 49499, "annotation": {"number": 11, "value": 105}, "group": "control_change"}, {"time": 49527, "annotation": {"number": 11, "value": 106}, "group": "control_change"}, {"time": 49559, "annotation": {"number": 11, "value": 107}, "group": "control_change"}, {"time": 49587, "annotation": {"number": 11, "value": 108}, "group": "control_change"}, {"time": 49607, "annotation": {"number": 11, "value": 109}, "group": "control_change"}, {"time": 49639, "annotation": {"number": 11, "value": 110}, "group": "control_change"}, {"time": 49667, "annotation": {"number": 11, "value": 111}, "group": "control_change"}, {"time": 49699, "annotation": {"number": 11, "value": 112}, "group": "control_change"}, {"time": 49727, "annotation": {"number": 11, "value": 113}, "group": "control_change"}, {"time": 49759, "annotation": {"number": 11, "value": 114}, "group": "control_change"}, {"time": 49779, "annotation": {"number": 11, "value": 115}, "group": "control_change"}, {"time": 49807, "annotation": {"number": 11, "value": 116}, "group": "control_change"}, {"time": 49839, "annotation": {"number": 11, "value": 117}, "group": "control_change"}, {"time": 49867, "annotation": {"number": 11, "value": 118}, "group": "control_change"}, {"time": 49899, "annotation": {"number": 11, "value": 119}, "group": "control_change"}, {"time": 49927, "annotation": {"number": 11, "value": 120}, "group": "control_change"}, {"time": 49947, "annotation": {"number": 11, "value": 121}, "group": "control_change"}, {"time": 49979, "annotation": {"number": 11, "value": 122}, "group": "control_change"}, {"time": 50007, "annotation": {"number": 11, "value": 123}, "group": "control_change"}, {"time": 50039, "annotation": {"number": 11, "value": 124}, "group": "control_change"}, {"time": 50067, "annotation": {"number": 11, "value": 125}, "group": "control_change"}, {"time": 50099, "annotation": {"number": 11, "value": 126}, "group": "control_change"}, {"time": 50119, "annotation": {"number": 11, "value": 127}, "group": "control_change"}, {"time": 50398, "annotation": {"number": 11, "value": 77}, "group": "control_change"}, {"time": 50419, "annotation": {"number": 11, "value": 78}, "group": "control_change"}, {"time": 50447, "annotation": {"number": 11, "value": 79}, "group": "control_change"}, {"time": 50467, "annotation": {"number": 11, "value": 80}, "group": "control_change"}, {"time": 50499, "annotation": {"number": 11, "value": 81}, "group": "control_change"}, {"time": 50519, "annotation": {"number": 11, "value": 82}, "group": "control_change"}, {"time": 50548, "annotation": {"number": 11, "value": 83}, "group": "control_change"}, {"time": 50568, "annotation": {"number": 11, "value": 84}, "group": "control_change"}, {"time": 50600, "annotation": {"number": 11, "value": 85}, "group": "control_change"}, {"time": 50620, "annotation": {"number": 11, "value": 86}, "group": "control_change"}, {"time": 50648, "annotation": {"number": 11, "value": 87}, "group": "control_change"}, {"time": 50668, "annotation": {"number": 11, "value": 88}, "group": "control_change"}, {"time": 50700, "annotation": {"number": 11, "value": 89}, "group": "control_change"}, {"time": 50728, "annotation": {"number": 11, "value": 90}, "group": "control_change"}, {"time": 50748, "annotation": {"number": 11, "value": 91}, "group": "control_change"}, {"time": 50780, "annotation": {"number": 11, "value": 92}, "group": "control_change"}, {"time": 50800, "annotation": {"number": 11, "value": 93}, "group": "control_change"}, {"time": 50828, "annotation": {"number": 11, "value": 94}, "group": "control_change"}, {"time": 50848, "annotation": {"number": 11, "value": 95}, "group": "control_change"}, {"time": 50880, "annotation": {"number": 11, "value": 96}, "group": "control_change"}, {"time": 50900, "annotation": {"number": 11, "value": 97}, "group": "control_change"}, {"time": 50928, "annotation": {"number": 11, "value": 98}, "group": "control_change"}, {"time": 50948, "annotation": {"number": 11, "value": 99}, "group": "control_change"}, {"time": 50980, "annotation": {"number": 11, "value": 100}, "group": "control_change"}, {"time": 51000, "annotation": {"number": 11, "value": 101}, "group": "control_change"}, {"time": 51028, "annotation": {"number": 11, "value": 102}, "group": "control_change"}, {"time": 51060, "annotation": {"number": 11, "value": 103}, "group": "control_change"}, {"time": 51080, "annotation": {"number": 11, "value": 104}, "group": "control_change"}, {"time": 51108, "annotation": {"number": 11, "value": 105}, "group": "control_change"}, {"time": 51128, "annotation": {"number": 11, "value": 106}, "group": "control_change"}, {"time": 51160, "annotation": {"number": 11, "value": 107}, "group": "control_change"}, {"time": 51180, "annotation": {"number": 11, "value": 108}, "group": "control_change"}, {"time": 51208, "annotation": {"number": 11, "value": 109}, "group": "control_change"}, {"time": 51228, "annotation": {"number": 11, "value": 110}, "group": "control_change"}, {"time": 51260, "annotation": {"number": 11, "value": 111}, "group": "control_change"}, {"time": 51280, "annotation": {"number": 11, "value": 112}, "group": "control_change"}, {"time": 51308, "annotation": {"number": 11, "value": 113}, "group": "control_change"}, {"time": 51328, "annotation": {"number": 11, "value": 114}, "group": "control_change"}, {"time": 51360, "annotation": {"number": 11, "value": 115}, "group": "control_change"}, {"time": 51388, "annotation": {"number": 11, "value": 116}, "group": "control_change"}, {"time": 51408, "annotation": {"number": 11, "value": 117}, "group": "control_change"}, {"time": 51440, "annotation": {"number": 11, "value": 118}, "group": "control_change"}, {"time": 51460, "annotation": {"number": 11, "value": 119}, "group": "control_change"}, {"time": 51488, "annotation": {"number": 11, "value": 120}, "group": "control_change"}, {"time": 51508, "annotation": {"number": 11, "value": 121}, "group": "control_change"}, {"time": 51540, "annotation": {"number": 11, "value": 122}, "group": "control_change"}, {"time": 51560, "annotation": {"number": 11, "value": 123}, "group": "control_change"}, {"time": 51588, "annotation": {"number": 11, "value": 124}, "group": "control_change"}, {"time": 51608, "annotation": {"number": 11, "value": 125}, "group": "control_change"}, {"time": 51640, "annotation": {"number": 11, "value": 126}, "group": "control_change"}, {"time": 51661, "annotation": {"number": 11, "value": 127}, "group": "control_change"}, {"time": 52320, "annotation": {"number": 11, "value": 77}, "group": "control_change"}, {"time": 52361, "annotation": {"number": 11, "value": 78}, "group": "control_change"}, {"time": 52389, "annotation": {"number": 11, "value": 79}, "group": "control_change"}, {"time": 52409, "annotation": {"number": 11, "value": 80}, "group": "control_change"}, {"time": 52441, "annotation": {"number": 11, "value": 81}, "group": "control_change"}, {"time": 52461, "annotation": {"number": 11, "value": 82}, "group": "control_change"}, {"time": 52489, "annotation": {"number": 11, "value": 83}, "group": "control_change"}, {"time": 52521, "annotation": {"number": 11, "value": 84}, "group": "control_change"}, {"time": 52541, "annotation": {"number": 11, "value": 85}, "group": "control_change"}, {"time": 52569, "annotation": {"number": 11, "value": 86}, "group": "control_change"}, {"time": 52589, "annotation": {"number": 11, "value": 87}, "group": "control_change"}, {"time": 52621, "annotation": {"number": 11, "value": 88}, "group": "control_change"}, {"time": 52649, "annotation": {"number": 11, "value": 89}, "group": "control_change"}, {"time": 52669, "annotation": {"number": 11, "value": 90}, "group": "control_change"}, {"time": 52701, "annotation": {"number": 11, "value": 91}, "group": "control_change"}, {"time": 52721, "annotation": {"number": 11, "value": 92}, "group": "control_change"}, {"time": 52749, "annotation": {"number": 11, "value": 93}, "group": "control_change"}, {"time": 52782, "annotation": {"number": 11, "value": 94}, "group": "control_change"}, {"time": 52802, "annotation": {"number": 11, "value": 95}, "group": "control_change"}, {"time": 52830, "annotation": {"number": 11, "value": 96}, "group": "control_change"}, {"time": 52850, "annotation": {"number": 11, "value": 97}, "group": "control_change"}, {"time": 52882, "annotation": {"number": 11, "value": 98}, "group": "control_change"}, {"time": 52910, "annotation": {"number": 11, "value": 99}, "group": "control_change"}, {"time": 52930, "annotation": {"number": 11, "value": 100}, "group": "control_change"}, {"time": 52962, "annotation": {"number": 11, "value": 101}, "group": "control_change"}, {"time": 52982, "annotation": {"number": 11, "value": 102}, "group": "control_change"}, {"time": 53010, "annotation": {"number": 11, "value": 103}, "group": "control_change"}, {"time": 53042, "annotation": {"number": 11, "value": 104}, "group": "control_change"}, {"time": 53062, "annotation": {"number": 11, "value": 105}, "group": "control_change"}, {"time": 53090, "annotation": {"number": 11, "value": 106}, "group": "control_change"}, {"time": 53110, "annotation": {"number": 11, "value": 107}, "group": "control_change"}, {"time": 53142, "annotation": {"number": 11, "value": 108}, "group": "control_change"}, {"time": 53170, "annotation": {"number": 11, "value": 109}, "group": "control_change"}, {"time": 53190, "annotation": {"number": 11, "value": 110}, "group": "control_change"}, {"time": 53222, "annotation": {"number": 11, "value": 111}, "group": "control_change"}, {"time": 53242, "annotation": {"number": 11, "value": 112}, "group": "control_change"}, {"time": 53270, "annotation": {"number": 11, "value": 113}, "group": "control_change"}, {"time": 53302, "annotation": {"number": 11, "value": 114}, "group": "control_change"}, {"time": 53322, "annotation": {"number": 11, "value": 115}, "group": "control_change"}, {"time": 53350, "annotation": {"number": 11, "value": 116}, "group": "control_change"}, {"time": 53370, "annotation": {"number": 11, "value": 117}, "group": "control_change"}, {"time": 53402, "annotation": {"number": 11, "value": 118}, "group": "control_change"}, {"time": 53430, "annotation": {"number": 11, "value": 119}, "group": "control_change"}, {"time": 53450, "annotation": {"number": 11, "value": 120}, "group": "control_change"}, {"time": 53482, "annotation": {"number": 11, "value": 121}, "group": "control_change"}, {"time": 53502, "annotation": {"number": 11, "value": 122}, "group": "control_change"}, {"time": 53530, "annotation": {"number": 11, "value": 123}, "group": "control_change"}, {"time": 53562, "annotation": {"number": 11, "value": 124}, "group": "control_change"}, {"time": 53582, "annotation": {"number": 11, "value": 125}, "group": "control_change"}, {"time": 53610, "annotation": {"number": 11, "value": 126}, "group": "control_change"}, {"time": 53630, "annotation": {"number": 11, "value": 127}, "group": "control_change"}, {"time": 56118, "annotation": {"number": 11, "value": 127}, "group": "control_change"}, {"time": 56244, "annotation": {"number": 11, "value": 126}, "group": "control_change"}, {"time": 56370, "annotation": {"number": 11, "value": 125}, "group": "control_change"}, {"time": 56496, "annotation": {"number": 11, "value": 124}, "group": "control_change"}, {"time": 56622, "annotation": {"number": 11, "value": 123}, "group": "control_change"}, {"time": 56748, "annotation": {"number": 11, "value": 122}, "group": "control_change"}, {"time": 56874, "annotation": {"number": 11, "value": 121}, "group": "control_change"}, {"time": 57000, "annotation": {"number": 11, "value": 120}, "group": "control_change"}, {"time": 57127, "annotation": {"number": 11, "value": 119}, "group": "control_change"}, {"time": 57187, "annotation": {"number": 11, "value": 118}, "group": "control_change"}, {"time": 57247, "annotation": {"number": 11, "value": 117}, "group": "control_change"}, {"time": 57307, "annotation": {"number": 11, "value": 116}, "group": "control_change"}, {"time": 57367, "annotation": {"number": 11, "value": 114}, "group": "control_change"}, {"time": 57427, "annotation": {"number": 11, "value": 113}, "group": "control_change"}, {"time": 57487, "annotation": {"number": 11, "value": 112}, "group": "control_change"}, {"time": 57547, "annotation": {"number": 11, "value": 110}, "group": "control_change"}, {"time": 57607, "annotation": {"number": 11, "value": 109}, "group": "control_change"}, {"time": 57667, "annotation": {"number": 11, "value": 108}, "group": "control_change"}, {"time": 57727, "annotation": {"number": 11, "value": 107}, "group": "control_change"}, {"time": 57775, "annotation": {"number": 11, "value": 105}, "group": "control_change"}, {"time": 57835, "annotation": {"number": 11, "value": 103}, "group": "control_change"}, {"time": 57895, "annotation": {"number": 11, "value": 101}, "group": "control_change"}, {"time": 57955, "annotation": {"number": 11, "value": 98}, "group": "control_change"}, {"time": 58015, "annotation": {"number": 11, "value": 96}, "group": "control_change"}, {"time": 58075, "annotation": {"number": 11, "value": 93}, "group": "control_change"}, {"time": 58135, "annotation": {"number": 11, "value": 91}, "group": "control_change"}, {"time": 58195, "annotation": {"number": 11, "value": 88}, "group": "control_change"}, {"time": 58256, "annotation": {"number": 11, "value": 86}, "group": "control_change"}, {"time": 58316, "annotation": {"number": 11, "value": 83}, "group": "control_change"}, {"time": 58336, "annotation": {"number": 11, "value": 82}, "group": "control_change"}, {"time": 58366, "annotation": {"number": 11, "value": 80}, "group": "control_change"}, {"time": 58396, "annotation": {"number": 11, "value": 77}, "group": "control_change"}, {"time": 58426, "annotation": {"number": 11, "value": 74}, "group": "control_change"}, {"time": 58456, "annotation": {"number": 11, "value": 72}, "group": "control_change"}, {"time": 58486, "annotation": {"number": 11, "value": 69}, "group": "control_change"}, {"time": 58516, "annotation": {"number": 11, "value": 66}, "group": "control_change"}, {"time": 58546, "annotation": {"number": 11, "value": 64}, "group": "control_change"}, {"time": 58576, "annotation": {"number": 11, "value": 61}, "group": "control_change"}, {"time": 58606, "annotation": {"number": 11, "value": 58}, "group": "control_change"}, {"time": 58636, "annotation": {"number": 11, "value": 56}, "group": "control_change"}, {"time": 58666, "annotation": {"number": 11, "value": 53}, "group": "control_change"}, {"time": 58672, "annotation": {"number": 11, "value": 52}, "group": "control_change"}, {"time": 58687, "annotation": {"number": 11, "value": 48}, "group": "control_change"}, {"time": 58702, "annotation": {"number": 11, "value": 43}, "group": "control_change"}, {"time": 58717, "annotation": {"number": 11, "value": 38}, "group": "control_change"}, {"time": 58732, "annotation": {"number": 11, "value": 33}, "group": "control_change"}, {"time": 58747, "annotation": {"number": 11, "value": 28}, "group": "control_change"}, {"time": 58752, "annotation": {"number": 11, "value": 26}, "group": "control_change"}, {"time": 58767, "annotation": {"number": 11, "value": 22}, "group": "control_change"}, {"time": 58782, "annotation": {"number": 11, "value": 17}, "group": "control_change"}, {"time": 58797, "annotation": {"number": 11, "value": 12}, "group": "control_change"}, {"time": 58812, "annotation": {"number": 11, "value": 7}, "group": "control_change"}, {"time": 58827, "annotation": {"number": 11, "value": 2}, "group": "control_change"}, {"time": 81117, "annotation": {"number": 11, "value": 127}, "group": "control_change"}, {"time": 83038, "annotation": {"number": 11, "value": 76}, "group": "control_change"}, {"time": 83067, "annotation": {"number": 11, "value": 77}, "group": "control_change"}, {"time": 83087, "annotation": {"number": 11, "value": 78}, "group": "control_change"}, {"time": 83107, "annotation": {"number": 11, "value": 79}, "group": "control_change"}, {"time": 83139, "annotation": {"number": 11, "value": 80}, "group": "control_change"}, {"time": 83159, "annotation": {"number": 11, "value": 81}, "group": "control_change"}, {"time": 83179, "annotation": {"number": 11, "value": 82}, "group": "control_change"}, {"time": 83199, "annotation": {"number": 11, "value": 83}, "group": "control_change"}, {"time": 83227, "annotation": {"number": 11, "value": 84}, "group": "control_change"}, {"time": 83247, "annotation": {"number": 11, "value": 85}, "group": "control_change"}, {"time": 83267, "annotation": {"number": 11, "value": 86}, "group": "control_change"}, {"time": 83287, "annotation": {"number": 11, "value": 87}, "group": "control_change"}, {"time": 83319, "annotation": {"number": 11, "value": 88}, "group": "control_change"}, {"time": 83339, "annotation": {"number": 11, "value": 89}, "group": "control_change"}, {"time": 83359, "annotation": {"number": 11, "value": 90}, "group": "control_change"}, {"time": 83380, "annotation": {"number": 11, "value": 91}, "group": "control_change"}, {"time": 83408, "annotation": {"number": 11, "value": 92}, "group": "control_change"}, {"time": 83428, "annotation": {"number": 11, "value": 93}, "group": "control_change"}, {"time": 83448, "annotation": {"number": 11, "value": 94}, "group": "control_change"}, {"time": 83468, "annotation": {"number": 11, "value": 95}, "group": "control_change"}, {"time": 83500, "annotation": {"number": 11, "value": 96}, "group": "control_change"}, {"time": 83520, "annotation": {"number": 11, "value": 97}, "group": "control_change"}, {"time": 83540, "annotation": {"number": 11, "value": 98}, "group": "control_change"}, {"time": 83560, "annotation": {"number": 11, "value": 99}, "group": "control_change"}, {"time": 83588, "annotation": {"number": 11, "value": 100}, "group": "control_change"}, {"time": 83608, "annotation": {"number": 11, "value": 101}, "group": "control_change"}, {"time": 83628, "annotation": {"number": 11, "value": 102}, "group": "control_change"}, {"time": 83648, "annotation": {"number": 11, "value": 103}, "group": "control_change"}, {"time": 83680, "annotation": {"number": 11, "value": 104}, "group": "control_change"}, {"time": 83700, "annotation": {"number": 11, "value": 105}, "group": "control_change"}, {"time": 83720, "annotation": {"number": 11, "value": 106}, "group": "control_change"}, {"time": 83740, "annotation": {"number": 11, "value": 107}, "group": "control_change"}, {"time": 83768, "annotation": {"number": 11, "value": 108}, "group": "control_change"}, {"time": 83788, "annotation": {"number": 11, "value": 109}, "group": "control_change"}, {"time": 83808, "annotation": {"number": 11, "value": 110}, "group": "control_change"}, {"time": 83828, "annotation": {"number": 11, "value": 111}, "group": "control_change"}, {"time": 83860, "annotation": {"number": 11, "value": 112}, "group": "control_change"}, {"time": 83880, "annotation": {"number": 11, "value": 113}, "group": "control_change"}, {"time": 83900, "annotation": {"number": 11, "value": 114}, "group": "control_change"}, {"time": 83920, "annotation": {"number": 11, "value": 115}, "group": "control_change"}, {"time": 83948, "annotation": {"number": 11, "value": 116}, "group": "control_change"}, {"time": 83968, "annotation": {"number": 11, "value": 117}, "group": "control_change"}, {"time": 83988, "annotation": {"number": 11, "value": 118}, "group": "control_change"}, {"time": 84008, "annotation": {"number": 11, "value": 119}, "group": "control_change"}, {"time": 84040, "annotation": {"number": 11, "value": 120}, "group": "control_change"}, {"time": 84060, "annotation": {"number": 11, "value": 121}, "group": "control_change"}, {"time": 84080, "annotation": {"number": 11, "value": 122}, "group": "control_change"}, {"time": 84100, "annotation": {"number": 11, "value": 123}, "group": "control_change"}, {"time": 84128, "annotation": {"number": 11, "value": 124}, "group": "control_change"}, {"time": 84148, "annotation": {"number": 11, "value": 125}, "group": "control_change"}, {"time": 84168, "annotation": {"number": 11, "value": 126}, "group": "control_change"}, {"time": 84188, "annotation": {"number": 11, "value": 127}, "group": "control_change"}, {"time": 86210, "annotation": {"number": 11, "value": 127}, "group": "control_change"}, {"time": 86222, "annotation": {"number": 11, "value": 126}, "group": "control_change"}, {"time": 86230, "annotation": {"number": 11, "value": 124}, "group": "control_change"}, {"time": 86242, "annotation": {"number": 11, "value": 123}, "group": "control_change"}, {"time": 86250, "annotation": {"number": 11, "value": 121}, "group": "control_change"}, {"time": 86262, "annotation": {"number": 11, "value": 120}, "group": "control_change"}, {"time": 86270, "annotation": {"number": 11, "value": 118}, "group": "control_change"}, {"time": 86282, "annotation": {"number": 11, "value": 117}, "group": "control_change"}, {"time": 86290, "annotation": {"number": 11, "value": 115}, "group": "control_change"}, {"time": 86302, "annotation": {"number": 11, "value": 114}, "group": "control_change"}, {"time": 86310, "annotation": {"number": 11, "value": 112}, "group": "control_change"}, {"time": 86322, "annotation": {"number": 11, "value": 111}, "group": "control_change"}, {"time": 86330, "annotation": {"number": 11, "value": 109}, "group": "control_change"}, {"time": 86342, "annotation": {"number": 11, "value": 108}, "group": "control_change"}, {"time": 86350, "annotation": {"number": 11, "value": 106}, "group": "control_change"}, {"time": 86362, "annotation": {"number": 11, "value": 105}, "group": "control_change"}, {"time": 86370, "annotation": {"number": 11, "value": 103}, "group": "control_change"}, {"time": 86382, "annotation": {"number": 11, "value": 102}, "group": "control_change"}, {"time": 86390, "annotation": {"number": 11, "value": 100}, "group": "control_change"}, {"time": 86402, "annotation": {"number": 11, "value": 99}, "group": "control_change"}, {"time": 86410, "annotation": {"number": 11, "value": 97}, "group": "control_change"}, {"time": 86422, "annotation": {"number": 11, "value": 95}, "group": "control_change"}, {"time": 86430, "annotation": {"number": 11, "value": 94}, "group": "control_change"}, {"time": 86442, "annotation": {"number": 11, "value": 92}, "group": "control_change"}, {"time": 86450, "annotation": {"number": 11, "value": 91}, "group": "control_change"}, {"time": 86462, "annotation": {"number": 11, "value": 89}, "group": "control_change"}, {"time": 86470, "annotation": {"number": 11, "value": 88}, "group": "control_change"}, {"time": 86482, "annotation": {"number": 11, "value": 86}, "group": "control_change"}, {"time": 86490, "annotation": {"number": 11, "value": 85}, "group": "control_change"}, {"time": 86502, "annotation": {"number": 11, "value": 83}, "group": "control_change"}, {"time": 86510, "annotation": {"number": 11, "value": 82}, "group": "control_change"}, {"time": 86522, "annotation": {"number": 11, "value": 80}, "group": "control_change"}, {"time": 86530, "annotation": {"number": 11, "value": 79}, "group": "control_change"}, {"time": 86542, "annotation": {"number": 11, "value": 77}, "group": "control_change"}, {"time": 86550, "annotation": {"number": 11, "value": 76}, "group": "control_change"}, {"time": 86562, "annotation": {"number": 11, "value": 74}, "group": "control_change"}, {"time": 86570, "annotation": {"number": 11, "value": 73}, "group": "control_change"}, {"time": 86582, "annotation": {"number": 11, "value": 71}, "group": "control_change"}, {"time": 86590, "annotation": {"number": 11, "value": 70}, "group": "control_change"}, {"time": 86602, "annotation": {"number": 11, "value": 68}, "group": "control_change"}, {"time": 86610, "annotation": {"number": 11, "value": 67}, "group": "control_change"}, {"time": 86622, "annotation": {"number": 11, "value": 65}, "group": "control_change"}, {"time": 86641, "annotation": {"number": 11, "value": 127}, "group": "control_change"}, {"time": 86882, "annotation": {"number": 11, "value": 74}, "group": "control_change"}, {"time": 86922, "annotation": {"number": 11, "value": 75}, "group": "control_change"}, {"time": 86942, "annotation": {"number": 11, "value": 76}, "group": "control_change"}, {"time": 86962, "annotation": {"number": 11, "value": 77}, "group": "control_change"}, {"time": 86982, "annotation": {"number": 11, "value": 78}, "group": "control_change"}, {"time": 87009, "annotation": {"number": 11, "value": 79}, "group": "control_change"}, {"time": 87029, "annotation": {"number": 11, "value": 80}, "group": "control_change"}, {"time": 87049, "annotation": {"number": 11, "value": 81}, "group": "control_change"}, {"time": 87069, "annotation": {"number": 11, "value": 82}, "group": "control_change"}, {"time": 87088, "annotation": {"number": 11, "value": 83}, "group": "control_change"}, {"time": 87120, "annotation": {"number": 11, "value": 84}, "group": "control_change"}, {"time": 87140, "annotation": {"number": 11, "value": 85}, "group": "control_change"}, {"time": 87159, "annotation": {"number": 11, "value": 86}, "group": "control_change"}, {"time": 87179, "annotation": {"number": 11, "value": 87}, "group": "control_change"}, {"time": 87199, "annotation": {"number": 11, "value": 88}, "group": "control_change"}, {"time": 87227, "annotation": {"number": 11, "value": 89}, "group": "control_change"}, {"time": 87246, "annotation": {"number": 11, "value": 90}, "group": "control_change"}, {"time": 87266, "annotation": {"number": 11, "value": 91}, "group": "control_change"}, {"time": 87286, "annotation": {"number": 11, "value": 92}, "group": "control_change"}, {"time": 87306, "annotation": {"number": 11, "value": 93}, "group": "control_change"}, {"time": 87337, "annotation": {"number": 11, "value": 94}, "group": "control_change"}, {"time": 87357, "annotation": {"number": 11, "value": 95}, "group": "control_change"}, {"time": 87377, "annotation": {"number": 11, "value": 96}, "group": "control_change"}, {"time": 87397, "annotation": {"number": 11, "value": 97}, "group": "control_change"}, {"time": 87417, "annotation": {"number": 11, "value": 98}, "group": "control_change"}, {"time": 87445, "annotation": {"number": 11, "value": 99}, "group": "control_change"}, {"time": 87465, "annotation": {"number": 11, "value": 100}, "group": "control_change"}, {"time": 87485, "annotation": {"number": 11, "value": 101}, "group": "control_change"}, {"time": 87505, "annotation": {"number": 11, "value": 102}, "group": "control_change"}, {"time": 87537, "annotation": {"number": 11, "value": 103}, "group": "control_change"}, {"time": 87557, "annotation": {"number": 11, "value": 104}, "group": "control_change"}, {"time": 87577, "annotation": {"number": 11, "value": 105}, "group": "control_change"}, {"time": 87597, "annotation": {"number": 11, "value": 106}, "group": "control_change"}, {"time": 87617, "annotation": {"number": 11, "value": 107}, "group": "control_change"}, {"time": 87645, "annotation": {"number": 11, "value": 108}, "group": "control_change"}, {"time": 87665, "annotation": {"number": 11, "value": 109}, "group": "control_change"}, {"time": 87685, "annotation": {"number": 11, "value": 110}, "group": "control_change"}, {"time": 87705, "annotation": {"number": 11, "value": 111}, "group": "control_change"}, {"time": 87726, "annotation": {"number": 11, "value": 112}, "group": "control_change"}, {"time": 87758, "annotation": {"number": 11, "value": 113}, "group": "control_change"}, {"time": 87778, "annotation": {"number": 11, "value": 114}, "group": "control_change"}, {"time": 87798, "annotation": {"number": 11, "value": 115}, "group": "control_change"}, {"time": 87818, "annotation": {"number": 11, "value": 116}, "group": "control_change"}, {"time": 87838, "annotation": {"number": 11, "value": 117}, "group": "control_change"}, {"time": 87866, "annotation": {"number": 11, "value": 118}, "group": "control_change"}, {"time": 87886, "annotation": {"number": 11, "value": 119}, "group": "control_change"}, {"time": 87906, "annotation": {"number": 11, "value": 120}, "group": "control_change"}, {"time": 87926, "annotation": {"number": 11, "value": 121}, "group": "control_change"}, {"time": 87946, "annotation": {"number": 11, "value": 122}, "group": "control_change"}, {"time": 87978, "annotation": {"number": 11, "value": 123}, "group": "control_change"}, {"time": 87998, "annotation": {"number": 11, "value": 124}, "group": "control_change"}, {"time": 88018, "annotation": {"number": 11, "value": 125}, "group": "control_change"}, {"time": 88038, "annotation": {"number": 11, "value": 126}, "group": "control_change"}, {"time": 88058, "annotation": {"number": 11, "value": 127}, "group": "control_change"}, {"time": 89960, "annotation": {"number": 11, "value": 127}, "group": "control_change"}, {"time": 89968, "annotation": {"number": 11, "value": 125}, "group": "control_change"}, {"time": 89980, "annotation": {"number": 11, "value": 122}, "group": "control_change"}, {"time": 89988, "annotation": {"number": 11, "value": 119}, "group": "control_change"}, {"time": 90000, "annotation": {"number": 11, "value": 116}, "group": "control_change"}, {"time": 90008, "annotation": {"number": 11, "value": 113}, "group": "control_change"}, {"time": 90020, "annotation": {"number": 11, "value": 110}, "group": "control_change"}, {"time": 90028, "annotation": {"number": 11, "value": 107}, "group": "control_change"}, {"time": 90040, "annotation": {"number": 11, "value": 104}, "group": "control_change"}, {"time": 90048, "annotation": {"number": 11, "value": 101}, "group": "control_change"}, {"time": 90060, "annotation": {"number": 11, "value": 99}, "group": "control_change"}, {"time": 90068, "annotation": {"number": 11, "value": 96}, "group": "control_change"}, {"time": 90080, "annotation": {"number": 11, "value": 93}, "group": "control_change"}, {"time": 90088, "annotation": {"number": 11, "value": 90}, "group": "control_change"}, {"time": 90100, "annotation": {"number": 11, "value": 87}, "group": "control_change"}, {"time": 90108, "annotation": {"number": 11, "value": 84}, "group": "control_change"}, {"time": 90120, "annotation": {"number": 11, "value": 81}, "group": "control_change"}, {"time": 90128, "annotation": {"number": 11, "value": 78}, "group": "control_change"}, {"time": 90140, "annotation": {"number": 11, "value": 75}, "group": "control_change"}, {"time": 90148, "annotation": {"number": 11, "value": 72}, "group": "control_change"}, {"time": 90160, "annotation": {"number": 11, "value": 70}, "group": "control_change"}, {"time": 90168, "annotation": {"number": 11, "value": 67}, "group": "control_change"}, {"time": 90180, "annotation": {"number": 11, "value": 64}, "group": "control_change"}, {"time": 90188, "annotation": {"number": 11, "value": 61}, "group": "control_change"}, {"time": 90200, "annotation": {"number": 11, "value": 58}, "group": "control_change"}, {"time": 90208, "annotation": {"number": 11, "value": 55}, "group": "control_change"}, {"time": 90220, "annotation": {"number": 11, "value": 52}, "group": "control_change"}, {"time": 90239, "annotation": {"number": 11, "value": 127}, "group": "control_change"}, {"time": 111870, "annotation": {"number": 11, "value": 77}, "group": "control_change"}, {"time": 111890, "annotation": {"number": 11, "value": 78}, "group": "control_change"}, {"time": 111910, "annotation": {"number": 11, "value": 79}, "group": "control_change"}, {"time": 111942, "annotation": {"number": 11, "value": 80}, "group": "control_change"}, {"time": 111962, "annotation": {"number": 11, "value": 81}, "group": "control_change"}, {"time": 111982, "annotation": {"number": 11, "value": 82}, "group": "control_change"}, {"time": 112002, "annotation": {"number": 11, "value": 83}, "group": "control_change"}, {"time": 112030, "annotation": {"number": 11, "value": 84}, "group": "control_change"}, {"time": 112050, "annotation": {"number": 11, "value": 85}, "group": "control_change"}, {"time": 112070, "annotation": {"number": 11, "value": 86}, "group": "control_change"}, {"time": 112090, "annotation": {"number": 11, "value": 87}, "group": "control_change"}, {"time": 112122, "annotation": {"number": 11, "value": 88}, "group": "control_change"}, {"time": 112142, "annotation": {"number": 11, "value": 89}, "group": "control_change"}, {"time": 112162, "annotation": {"number": 11, "value": 90}, "group": "control_change"}, {"time": 112182, "annotation": {"number": 11, "value": 91}, "group": "control_change"}, {"time": 112210, "annotation": {"number": 11, "value": 92}, "group": "control_change"}, {"time": 112230, "annotation": {"number": 11, "value": 93}, "group": "control_change"}, {"time": 112250, "annotation": {"number": 11, "value": 94}, "group": "control_change"}, {"time": 112270, "annotation": {"number": 11, "value": 95}, "group": "control_change"}, {"time": 112302, "annotation": {"number": 11, "value": 96}, "group": "control_change"}, {"time": 112322, "annotation": {"number": 11, "value": 97}, "group": "control_change"}, {"time": 112342, "annotation": {"number": 11, "value": 98}, "group": "control_change"}, {"time": 112362, "annotation": {"number": 11, "value": 99}, "group": "control_change"}, {"time": 112390, "annotation": {"number": 11, "value": 100}, "group": "control_change"}, {"time": 112410, "annotation": {"number": 11, "value": 101}, "group": "control_change"}, {"time": 112430, "annotation": {"number": 11, "value": 102}, "group": "control_change"}, {"time": 112450, "annotation": {"number": 11, "value": 103}, "group": "control_change"}, {"time": 112482, "annotation": {"number": 11, "value": 104}, "group": "control_change"}, {"time": 112502, "annotation": {"number": 11, "value": 105}, "group": "control_change"}, {"time": 112522, "annotation": {"number": 11, "value": 106}, "group": "control_change"}, {"time": 112542, "annotation": {"number": 11, "value": 107}, "group": "control_change"}, {"time": 112570, "annotation": {"number": 11, "value": 108}, "group": "control_change"}, {"time": 112590, "annotation": {"number": 11, "value": 109}, "group": "control_change"}, {"time": 112610, "annotation": {"number": 11, "value": 110}, "group": "control_change"}, {"time": 112630, "annotation": {"number": 11, "value": 111}, "group": "control_change"}, {"time": 112662, "annotation": {"number": 11, "value": 112}, "group": "control_change"}, {"time": 112682, "annotation": {"number": 11, "value": 113}, "group": "control_change"}, {"time": 112702, "annotation": {"number": 11, "value": 114}, "group": "control_change"}, {"time": 112722, "annotation": {"number": 11, "value": 115}, "group": "control_change"}, {"time": 112750, "annotation": {"number": 11, "value": 116}, "group": "control_change"}, {"time": 112770, "annotation": {"number": 11, "value": 117}, "group": "control_change"}, {"time": 112790, "annotation": {"number": 11, "value": 118}, "group": "control_change"}, {"time": 112810, "annotation": {"number": 11, "value": 119}, "group": "control_change"}, {"time": 112842, "annotation": {"number": 11, "value": 120}, "group": "control_change"}, {"time": 112862, "annotation": {"number": 11, "value": 121}, "group": "control_change"}, {"time": 112882, "annotation": {"number": 11, "value": 122}, "group": "control_change"}, {"time": 112902, "annotation": {"number": 11, "value": 123}, "group": "control_change"}, {"time": 112930, "annotation": {"number": 11, "value": 124}, "group": "control_change"}, {"time": 112950, "annotation": {"number": 11, "value": 125}, "group": "control_change"}, {"time": 112971, "annotation": {"number": 11, "value": 126}, "group": "control_change"}, {"time": 112991, "annotation": {"number": 11, "value": 127}, "group": "control_change"}, {"time": 115006, "annotation": {"number": 11, "value": 127}, "group": "control_change"}, {"time": 115018, "annotation": {"number": 11, "value": 126}, "group": "control_change"}, {"time": 115026, "annotation": {"number": 11, "value": 124}, "group": "control_change"}, {"time": 115038, "annotation": {"number": 11, "value": 123}, "group": "control_change"}, {"time": 115046, "annotation": {"number": 11, "value": 121}, "group": "control_change"}, {"time": 115058, "annotation": {"number": 11, "value": 120}, "group": "control_change"}, {"time": 115066, "annotation": {"number": 11, "value": 118}, "group": "control_change"}, {"time": 115078, "annotation": {"number": 11, "value": 117}, "group": "control_change"}, {"time": 115086, "annotation": {"number": 11, "value": 115}, "group": "control_change"}, {"time": 115099, "annotation": {"number": 11, "value": 114}, "group": "control_change"}, {"time": 115107, "annotation": {"number": 11, "value": 112}, "group": "control_change"}, {"time": 115119, "annotation": {"number": 11, "value": 111}, "group": "control_change"}, {"time": 115127, "annotation": {"number": 11, "value": 109}, "group": "control_change"}, {"time": 115139, "annotation": {"number": 11, "value": 108}, "group": "control_change"}, {"time": 115147, "annotation": {"number": 11, "value": 106}, "group": "control_change"}, {"time": 115159, "annotation": {"number": 11, "value": 105}, "group": "control_change"}, {"time": 115167, "annotation": {"number": 11, "value": 103}, "group": "control_change"}, {"time": 115179, "annotation": {"number": 11, "value": 102}, "group": "control_change"}, {"time": 115187, "annotation": {"number": 11, "value": 100}, "group": "control_change"}, {"time": 115199, "annotation": {"number": 11, "value": 99}, "group": "control_change"}, {"time": 115207, "annotation": {"number": 11, "value": 97}, "group": "control_change"}, {"time": 115219, "annotation": {"number": 11, "value": 95}, "group": "control_change"}, {"time": 115227, "annotation": {"number": 11, "value": 94}, "group": "control_change"}, {"time": 115239, "annotation": {"number": 11, "value": 92}, "group": "control_change"}, {"time": 115247, "annotation": {"number": 11, "value": 91}, "group": "control_change"}, {"time": 115259, "annotation": {"number": 11, "value": 89}, "group": "control_change"}, {"time": 115267, "annotation": {"number": 11, "value": 88}, "group": "control_change"}, {"time": 115279, "annotation": {"number": 11, "value": 86}, "group": "control_change"}, {"time": 115287, "annotation": {"number": 11, "value": 85}, "group": "control_change"}, {"time": 115299, "annotation": {"number": 11, "value": 83}, "group": "control_change"}, {"time": 115307, "annotation": {"number": 11, "value": 82}, "group": "control_change"}, {"time": 115319, "annotation": {"number": 11, "value": 80}, "group": "control_change"}, {"time": 115327, "annotation": {"number": 11, "value": 79}, "group": "control_change"}, {"time": 115339, "annotation": {"number": 11, "value": 77}, "group": "control_change"}, {"time": 115347, "annotation": {"number": 11, "value": 76}, "group": "control_change"}, {"time": 115359, "annotation": {"number": 11, "value": 74}, "group": "control_change"}, {"time": 115367, "annotation": {"number": 11, "value": 73}, "group": "control_change"}, {"time": 115379, "annotation": {"number": 11, "value": 71}, "group": "control_change"}, {"time": 115387, "annotation": {"number": 11, "value": 70}, "group": "control_change"}, {"time": 115399, "annotation": {"number": 11, "value": 68}, "group": "control_change"}, {"time": 115407, "annotation": {"number": 11, "value": 67}, "group": "control_change"}, {"time": 115419, "annotation": {"number": 11, "value": 65}, "group": "control_change"}, {"time": 115438, "annotation": {"number": 11, "value": 127}, "group": "control_change"}, {"time": 115678, "annotation": {"number": 11, "value": 74}, "group": "control_change"}, {"time": 115719, "annotation": {"number": 11, "value": 75}, "group": "control_change"}, {"time": 115739, "annotation": {"number": 11, "value": 76}, "group": "control_change"}, {"time": 115759, "annotation": {"number": 11, "value": 77}, "group": "control_change"}, {"time": 115779, "annotation": {"number": 11, "value": 78}, "group": "control_change"}, {"time": 115807, "annotation": {"number": 11, "value": 79}, "group": "control_change"}, {"time": 115827, "annotation": {"number": 11, "value": 80}, "group": "control_change"}, {"time": 115847, "annotation": {"number": 11, "value": 81}, "group": "control_change"}, {"time": 115867, "annotation": {"number": 11, "value": 82}, "group": "control_change"}, {"time": 115887, "annotation": {"number": 11, "value": 83}, "group": "control_change"}, {"time": 115919, "annotation": {"number": 11, "value": 84}, "group": "control_change"}, {"time": 115939, "annotation": {"number": 11, "value": 85}, "group": "control_change"}, {"time": 115959, "annotation": {"number": 11, "value": 86}, "group": "control_change"}, {"time": 115979, "annotation": {"number": 11, "value": 87}, "group": "control_change"}, {"time": 115999, "annotation": {"number": 11, "value": 88}, "group": "control_change"}, {"time": 116027, "annotation": {"number": 11, "value": 89}, "group": "control_change"}, {"time": 116047, "annotation": {"number": 11, "value": 90}, "group": "control_change"}, {"time": 116067, "annotation": {"number": 11, "value": 91}, "group": "control_change"}, {"time": 116087, "annotation": {"number": 11, "value": 92}, "group": "control_change"}, {"time": 116107, "annotation": {"number": 11, "value": 93}, "group": "control_change"}, {"time": 116139, "annotation": {"number": 11, "value": 94}, "group": "control_change"}, {"time": 116159, "annotation": {"number": 11, "value": 95}, "group": "control_change"}, {"time": 116179, "annotation": {"number": 11, "value": 96}, "group": "control_change"}, {"time": 116199, "annotation": {"number": 11, "value": 97}, "group": "control_change"}, {"time": 116220, "annotation": {"number": 11, "value": 98}, "group": "control_change"}, {"time": 116248, "annotation": {"number": 11, "value": 99}, "group": "control_change"}, {"time": 116268, "annotation": {"number": 11, "value": 100}, "group": "control_change"}, {"time": 116288, "annotation": {"number": 11, "value": 101}, "group": "control_change"}, {"time": 116308, "annotation": {"number": 11, "value": 102}, "group": "control_change"}, {"time": 116340, "annotation": {"number": 11, "value": 103}, "group": "control_change"}, {"time": 116360, "annotation": {"number": 11, "value": 104}, "group": "control_change"}, {"time": 116380, "annotation": {"number": 11, "value": 105}, "group": "control_change"}, {"time": 116400, "annotation": {"number": 11, "value": 106}, "group": "control_change"}, {"time": 116420, "annotation": {"number": 11, "value": 107}, "group": "control_change"}, {"time": 116448, "annotation": {"number": 11, "value": 108}, "group": "control_change"}, {"time": 116468, "annotation": {"number": 11, "value": 109}, "group": "control_change"}, {"time": 116488, "annotation": {"number": 11, "value": 110}, "group": "control_change"}, {"time": 116508, "annotation": {"number": 11, "value": 111}, "group": "control_change"}, {"time": 116528, "annotation": {"number": 11, "value": 112}, "group": "control_change"}, {"time": 116560, "annotation": {"number": 11, "value": 113}, "group": "control_change"}, {"time": 116580, "annotation": {"number": 11, "value": 114}, "group": "control_change"}, {"time": 116600, "annotation": {"number": 11, "value": 115}, "group": "control_change"}, {"time": 116620, "annotation": {"number": 11, "value": 116}, "group": "control_change"}, {"time": 116640, "annotation": {"number": 11, "value": 117}, "group": "control_change"}, {"time": 116668, "annotation": {"number": 11, "value": 118}, "group": "control_change"}, {"time": 116688, "annotation": {"number": 11, "value": 119}, "group": "control_change"}, {"time": 116708, "annotation": {"number": 11, "value": 120}, "group": "control_change"}, {"time": 116728, "annotation": {"number": 11, "value": 121}, "group": "control_change"}, {"time": 116748, "annotation": {"number": 11, "value": 122}, "group": "control_change"}, {"time": 116780, "annotation": {"number": 11, "value": 123}, "group": "control_change"}, {"time": 116800, "annotation": {"number": 11, "value": 124}, "group": "control_change"}, {"time": 116820, "annotation": {"number": 11, "value": 125}, "group": "control_change"}, {"time": 116840, "annotation": {"number": 11, "value": 126}, "group": "control_change"}, {"time": 116860, "annotation": {"number": 11, "value": 127}, "group": "control_change"}, {"time": 118762, "annotation": {"number": 11, "value": 127}, "group": "control_change"}, {"time": 118770, "annotation": {"number": 11, "value": 125}, "group": "control_change"}, {"time": 118782, "annotation": {"number": 11, "value": 122}, "group": "control_change"}, {"time": 118790, "annotation": {"number": 11, "value": 119}, "group": "control_change"}, {"time": 118802, "annotation": {"number": 11, "value": 116}, "group": "control_change"}, {"time": 118810, "annotation": {"number": 11, "value": 113}, "group": "control_change"}, {"time": 118822, "annotation": {"number": 11, "value": 110}, "group": "control_change"}, {"time": 118830, "annotation": {"number": 11, "value": 107}, "group": "control_change"}, {"time": 118842, "annotation": {"number": 11, "value": 104}, "group": "control_change"}, {"time": 118850, "annotation": {"number": 11, "value": 101}, "group": "control_change"}, {"time": 118862, "annotation": {"number": 11, "value": 99}, "group": "control_change"}, {"time": 118870, "annotation": {"number": 11, "value": 96}, "group": "control_change"}, {"time": 118882, "annotation": {"number": 11, "value": 93}, "group": "control_change"}, {"time": 118890, "annotation": {"number": 11, "value": 90}, "group": "control_change"}, {"time": 118902, "annotation": {"number": 11, "value": 87}, "group": "control_change"}, {"time": 118910, "annotation": {"number": 11, "value": 84}, "group": "control_change"}, {"time": 118922, "annotation": {"number": 11, "value": 81}, "group": "control_change"}, {"time": 118930, "annotation": {"number": 11, "value": 78}, "group": "control_change"}, {"time": 118942, "annotation": {"number": 11, "value": 75}, "group": "control_change"}, {"time": 118950, "annotation": {"number": 11, "value": 72}, "group": "control_change"}, {"time": 118962, "annotation": {"number": 11, "value": 70}, "group": "control_change"}, {"time": 118970, "annotation": {"number": 11, "value": 67}, "group": "control_change"}, {"time": 118982, "annotation": {"number": 11, "value": 64}, "group": "control_change"}, {"time": 118990, "annotation": {"number": 11, "value": 61}, "group": "control_change"}, {"time": 119002, "annotation": {"number": 11, "value": 58}, "group": "control_change"}, {"time": 119010, "annotation": {"number": 11, "value": 55}, "group": "control_change"}, {"time": 119022, "annotation": {"number": 11, "value": 52}, "group": "control_change"}, {"time": 119041, "annotation": {"number": 11, "value": 127}, "group": "control_change"}, {"time": 130544, "annotation": {"number": 11, "value": 127}, "group": "control_change"}, {"time": 131089, "annotation": {"number": 11, "value": 71}, "group": "control_change"}, {"time": 131121, "annotation": {"number": 11, "value": 72}, "group": "control_change"}, {"time": 131149, "annotation": {"number": 11, "value": 73}, "group": "control_change"}, {"time": 131181, "annotation": {"number": 11, "value": 74}, "group": "control_change"}, {"time": 131209, "annotation": {"number": 11, "value": 75}, "group": "control_change"}, {"time": 131241, "annotation": {"number": 11, "value": 76}, "group": "control_change"}, {"time": 131269, "annotation": {"number": 11, "value": 77}, "group": "control_change"}, {"time": 131289, "annotation": {"number": 11, "value": 78}, "group": "control_change"}, {"time": 131321, "annotation": {"number": 11, "value": 79}, "group": "control_change"}, {"time": 131349, "annotation": {"number": 11, "value": 80}, "group": "control_change"}, {"time": 131381, "annotation": {"number": 11, "value": 81}, "group": "control_change"}, {"time": 131409, "annotation": {"number": 11, "value": 82}, "group": "control_change"}, {"time": 131441, "annotation": {"number": 11, "value": 83}, "group": "control_change"}, {"time": 131461, "annotation": {"number": 11, "value": 84}, "group": "control_change"}, {"time": 131489, "annotation": {"number": 11, "value": 85}, "group": "control_change"}, {"time": 131521, "annotation": {"number": 11, "value": 86}, "group": "control_change"}, {"time": 131549, "annotation": {"number": 11, "value": 87}, "group": "control_change"}, {"time": 131582, "annotation": {"number": 11, "value": 88}, "group": "control_change"}, {"time": 131610, "annotation": {"number": 11, "value": 89}, "group": "control_change"}, {"time": 131630, "annotation": {"number": 11, "value": 90}, "group": "control_change"}, {"time": 131662, "annotation": {"number": 11, "value": 91}, "group": "control_change"}, {"time": 131690, "annotation": {"number": 11, "value": 92}, "group": "control_change"}, {"time": 131722, "annotation": {"number": 11, "value": 93}, "group": "control_change"}, {"time": 131750, "annotation": {"number": 11, "value": 94}, "group": "control_change"}, {"time": 131782, "annotation": {"number": 11, "value": 95}, "group": "control_change"}, {"time": 131802, "annotation": {"number": 11, "value": 96}, "group": "control_change"}, {"time": 131830, "annotation": {"number": 11, "value": 97}, "group": "control_change"}, {"time": 131862, "annotation": {"number": 11, "value": 98}, "group": "control_change"}, {"time": 131890, "annotation": {"number": 11, "value": 99}, "group": "control_change"}, {"time": 131922, "annotation": {"number": 11, "value": 100}, "group": "control_change"}, {"time": 131950, "annotation": {"number": 11, "value": 101}, "group": "control_change"}, {"time": 131982, "annotation": {"number": 11, "value": 102}, "group": "control_change"}, {"time": 132002, "annotation": {"number": 11, "value": 103}, "group": "control_change"}, {"time": 132030, "annotation": {"number": 11, "value": 104}, "group": "control_change"}, {"time": 132062, "annotation": {"number": 11, "value": 105}, "group": "control_change"}, {"time": 132090, "annotation": {"number": 11, "value": 106}, "group": "control_change"}, {"time": 132122, "annotation": {"number": 11, "value": 107}, "group": "control_change"}, {"time": 132150, "annotation": {"number": 11, "value": 108}, "group": "control_change"}, {"time": 132170, "annotation": {"number": 11, "value": 109}, "group": "control_change"}, {"time": 132202, "annotation": {"number": 11, "value": 110}, "group": "control_change"}, {"time": 132230, "annotation": {"number": 11, "value": 111}, "group": "control_change"}, {"time": 132262, "annotation": {"number": 11, "value": 112}, "group": "control_change"}, {"time": 132290, "annotation": {"number": 11, "value": 113}, "group": "control_change"}, {"time": 132322, "annotation": {"number": 11, "value": 114}, "group": "control_change"}, {"time": 132342, "annotation": {"number": 11, "value": 115}, "group": "control_change"}, {"time": 132370, "annotation": {"number": 11, "value": 116}, "group": "control_change"}, {"time": 132402, "annotation": {"number": 11, "value": 117}, "group": "control_change"}, {"time": 132430, "annotation": {"number": 11, "value": 118}, "group": "control_change"}, {"time": 132462, "annotation": {"number": 11, "value": 119}, "group": "control_change"}, {"time": 132490, "annotation": {"number": 11, "value": 120}, "group": "control_change"}, {"time": 132510, "annotation": {"number": 11, "value": 121}, "group": "control_change"}, {"time": 132542, "annotation": {"number": 11, "value": 122}, "group": "control_change"}, {"time": 132570, "annotation": {"number": 11, "value": 123}, "group": "control_change"}, {"time": 132602, "annotation": {"number": 11, "value": 124}, "group": "control_change"}, {"time": 132630, "annotation": {"number": 11, "value": 125}, "group": "control_change"}, {"time": 132663, "annotation": {"number": 11, "value": 126}, "group": "control_change"}, {"time": 132683, "annotation": {"number": 11, "value": 127}, "group": "control_change"}, {"time": 132962, "annotation": {"number": 11, "value": 77}, "group": "control_change"}, {"time": 132983, "annotation": {"number": 11, "value": 78}, "group": "control_change"}, {"time": 133010, "annotation": {"number": 11, "value": 79}, "group": "control_change"}, {"time": 133030, "annotation": {"number": 11, "value": 80}, "group": "control_change"}, {"time": 133062, "annotation": {"number": 11, "value": 81}, "group": "control_change"}, {"time": 133081, "annotation": {"number": 11, "value": 82}, "group": "control_change"}, {"time": 133109, "annotation": {"number": 11, "value": 83}, "group": "control_change"}, {"time": 133129, "annotation": {"number": 11, "value": 84}, "group": "control_change"}, {"time": 133160, "annotation": {"number": 11, "value": 85}, "group": "control_change"}, {"time": 133180, "annotation": {"number": 11, "value": 86}, "group": "control_change"}, {"time": 133208, "annotation": {"number": 11, "value": 87}, "group": "control_change"}, {"time": 133228, "annotation": {"number": 11, "value": 88}, "group": "control_change"}, {"time": 133259, "annotation": {"number": 11, "value": 89}, "group": "control_change"}, {"time": 133287, "annotation": {"number": 11, "value": 90}, "group": "control_change"}, {"time": 133307, "annotation": {"number": 11, "value": 91}, "group": "control_change"}, {"time": 133338, "annotation": {"number": 11, "value": 92}, "group": "control_change"}, {"time": 133358, "annotation": {"number": 11, "value": 93}, "group": "control_change"}, {"time": 133386, "annotation": {"number": 11, "value": 94}, "group": "control_change"}, {"time": 133406, "annotation": {"number": 11, "value": 95}, "group": "control_change"}, {"time": 133437, "annotation": {"number": 11, "value": 96}, "group": "control_change"}, {"time": 133457, "annotation": {"number": 11, "value": 97}, "group": "control_change"}, {"time": 133485, "annotation": {"number": 11, "value": 98}, "group": "control_change"}, {"time": 133505, "annotation": {"number": 11, "value": 99}, "group": "control_change"}, {"time": 133537, "annotation": {"number": 11, "value": 100}, "group": "control_change"}, {"time": 133557, "annotation": {"number": 11, "value": 101}, "group": "control_change"}, {"time": 133585, "annotation": {"number": 11, "value": 102}, "group": "control_change"}, {"time": 133617, "annotation": {"number": 11, "value": 103}, "group": "control_change"}, {"time": 133637, "annotation": {"number": 11, "value": 104}, "group": "control_change"}, {"time": 133665, "annotation": {"number": 11, "value": 105}, "group": "control_change"}, {"time": 133686, "annotation": {"number": 11, "value": 106}, "group": "control_change"}, {"time": 133718, "annotation": {"number": 11, "value": 107}, "group": "control_change"}, {"time": 133738, "annotation": {"number": 11, "value": 108}, "group": "control_change"}, {"time": 133766, "annotation": {"number": 11, "value": 109}, "group": "control_change"}, {"time": 133786, "annotation": {"number": 11, "value": 110}, "group": "control_change"}, {"time": 133818, "annotation": {"number": 11, "value": 111}, "group": "control_change"}, {"time": 133838, "annotation": {"number": 11, "value": 112}, "group": "control_change"}, {"time": 133866, "annotation": {"number": 11, "value": 113}, "group": "control_change"}, {"time": 133886, "annotation": {"number": 11, "value": 114}, "group": "control_change"}, {"time": 133918, "annotation": {"number": 11, "value": 115}, "group": "control_change"}, {"time": 133946, "annotation": {"number": 11, "value": 116}, "group": "control_change"}, {"time": 133966, "annotation": {"number": 11, "value": 117}, "group": "control_change"}, {"time": 133998, "annotation": {"number": 11, "value": 118}, "group": "control_change"}, {"time": 134018, "annotation": {"number": 11, "value": 119}, "group": "control_change"}, {"time": 134046, "annotation": {"number": 11, "value": 120}, "group": "control_change"}, {"time": 134066, "annotation": {"number": 11, "value": 121}, "group": "control_change"}, {"time": 134098, "annotation": {"number": 11, "value": 122}, "group": "control_change"}, {"time": 134118, "annotation": {"number": 11, "value": 123}, "group": "control_change"}, {"time": 134146, "annotation": {"number": 11, "value": 124}, "group": "control_change"}, {"time": 134166, "annotation": {"number": 11, "value": 125}, "group": "control_change"}, {"time": 134198, "annotation": {"number": 11, "value": 126}, "group": "control_change"}, {"time": 134218, "annotation": {"number": 11, "value": 127}, "group": "control_change"}, {"time": 134878, "annotation": {"number": 11, "value": 77}, "group": "control_change"}, {"time": 134919, "annotation": {"number": 11, "value": 78}, "group": "control_change"}, {"time": 134947, "annotation": {"number": 11, "value": 79}, "group": "control_change"}, {"time": 134967, "annotation": {"number": 11, "value": 80}, "group": "control_change"}, {"time": 134999, "annotation": {"number": 11, "value": 81}, "group": "control_change"}, {"time": 135019, "annotation": {"number": 11, "value": 82}, "group": "control_change"}, {"time": 135047, "annotation": {"number": 11, "value": 83}, "group": "control_change"}, {"time": 135079, "annotation": {"number": 11, "value": 84}, "group": "control_change"}, {"time": 135099, "annotation": {"number": 11, "value": 85}, "group": "control_change"}, {"time": 135127, "annotation": {"number": 11, "value": 86}, "group": "control_change"}, {"time": 135147, "annotation": {"number": 11, "value": 87}, "group": "control_change"}, {"time": 135179, "annotation": {"number": 11, "value": 88}, "group": "control_change"}, {"time": 135207, "annotation": {"number": 11, "value": 89}, "group": "control_change"}, {"time": 135227, "annotation": {"number": 11, "value": 90}, "group": "control_change"}, {"time": 135259, "annotation": {"number": 11, "value": 91}, "group": "control_change"}, {"time": 135279, "annotation": {"number": 11, "value": 92}, "group": "control_change"}, {"time": 135307, "annotation": {"number": 11, "value": 93}, "group": "control_change"}, {"time": 135339, "annotation": {"number": 11, "value": 94}, "group": "control_change"}, {"time": 135359, "annotation": {"number": 11, "value": 95}, "group": "control_change"}, {"time": 135387, "annotation": {"number": 11, "value": 96}, "group": "control_change"}, {"time": 135407, "annotation": {"number": 11, "value": 97}, "group": "control_change"}, {"time": 135439, "annotation": {"number": 11, "value": 98}, "group": "control_change"}, {"time": 135467, "annotation": {"number": 11, "value": 99}, "group": "control_change"}, {"time": 135487, "annotation": {"number": 11, "value": 100}, "group": "control_change"}, {"time": 135519, "annotation": {"number": 11, "value": 101}, "group": "control_change"}, {"time": 135539, "annotation": {"number": 11, "value": 102}, "group": "control_change"}, {"time": 135567, "annotation": {"number": 11, "value": 103}, "group": "control_change"}, {"time": 135599, "annotation": {"number": 11, "value": 104}, "group": "control_change"}, {"time": 135619, "annotation": {"number": 11, "value": 105}, "group": "control_change"}, {"time": 135647, "annotation": {"number": 11, "value": 106}, "group": "control_change"}, {"time": 135667, "annotation": {"number": 11, "value": 107}, "group": "control_change"}, {"time": 135699, "annotation": {"number": 11, "value": 108}, "group": "control_change"}, {"time": 135727, "annotation": {"number": 11, "value": 109}, "group": "control_change"}, {"time": 135747, "annotation": {"number": 11, "value": 110}, "group": "control_change"}, {"time": 135779, "annotation": {"number": 11, "value": 111}, "group": "control_change"}, {"time": 135799, "annotation": {"number": 11, "value": 112}, "group": "control_change"}, {"time": 135827, "annotation": {"number": 11, "value": 113}, "group": "control_change"}, {"time": 135859, "annotation": {"number": 11, "value": 114}, "group": "control_change"}, {"time": 135879, "annotation": {"number": 11, "value": 115}, "group": "control_change"}, {"time": 135908, "annotation": {"number": 11, "value": 116}, "group": "control_change"}, {"time": 135928, "annotation": {"number": 11, "value": 117}, "group": "control_change"}, {"time": 135960, "annotation": {"number": 11, "value": 118}, "group": "control_change"}, {"time": 135988, "annotation": {"number": 11, "value": 119}, "group": "control_change"}, {"time": 136008, "annotation": {"number": 11, "value": 120}, "group": "control_change"}, {"time": 136040, "annotation": {"number": 11, "value": 121}, "group": "control_change"}, {"time": 136060, "annotation": {"number": 11, "value": 122}, "group": "control_change"}, {"time": 136088, "annotation": {"number": 11, "value": 123}, "group": "control_change"}, {"time": 136120, "annotation": {"number": 11, "value": 124}, "group": "control_change"}, {"time": 136140, "annotation": {"number": 11, "value": 125}, "group": "control_change"}, {"time": 136168, "annotation": {"number": 11, "value": 126}, "group": "control_change"}, {"time": 136188, "annotation": {"number": 11, "value": 127}, "group": "control_change"}, {"time": 141088, "annotation": {"number": 11, "value": 127}, "group": "control_change"}, {"time": 141094, "annotation": {"number": 11, "value": 126}, "group": "control_change"}, {"time": 141097, "annotation": {"number": 11, "value": 125}, "group": "control_change"}, {"time": 141103, "annotation": {"number": 11, "value": 124}, "group": "control_change"}, {"time": 141107, "annotation": {"number": 11, "value": 122}, "group": "control_change"}, {"time": 141112, "annotation": {"number": 11, "value": 121}, "group": "control_change"}, {"time": 141116, "annotation": {"number": 11, "value": 120}, "group": "control_change"}, {"time": 141125, "annotation": {"number": 11, "value": 119}, "group": "control_change"}, {"time": 141134, "annotation": {"number": 11, "value": 117}, "group": "control_change"}, {"time": 141148, "annotation": {"number": 11, "value": 116}, "group": "control_change"}, {"time": 141157, "annotation": {"number": 11, "value": 115}, "group": "control_change"}, {"time": 141171, "annotation": {"number": 11, "value": 114}, "group": "control_change"}, {"time": 141181, "annotation": {"number": 11, "value": 112}, "group": "control_change"}, {"time": 141195, "annotation": {"number": 11, "value": 111}, "group": "control_change"}, {"time": 141204, "annotation": {"number": 11, "value": 110}, "group": "control_change"}, {"time": 141218, "annotation": {"number": 11, "value": 109}, "group": "control_change"}, {"time": 141227, "annotation": {"number": 11, "value": 107}, "group": "control_change"}, {"time": 141241, "annotation": {"number": 11, "value": 106}, "group": "control_change"}, {"time": 141250, "annotation": {"number": 11, "value": 105}, "group": "control_change"}, {"time": 141264, "annotation": {"number": 11, "value": 104}, "group": "control_change"}, {"time": 141274, "annotation": {"number": 11, "value": 102}, "group": "control_change"}, {"time": 141288, "annotation": {"number": 11, "value": 101}, "group": "control_change"}, {"time": 141297, "annotation": {"number": 11, "value": 100}, "group": "control_change"}, {"time": 141311, "annotation": {"number": 11, "value": 99}, "group": "control_change"}, {"time": 141320, "annotation": {"number": 11, "value": 97}, "group": "control_change"}, {"time": 141334, "annotation": {"number": 11, "value": 96}, "group": "control_change"}, {"time": 141343, "annotation": {"number": 11, "value": 95}, "group": "control_change"}, {"time": 141357, "annotation": {"number": 11, "value": 94}, "group": "control_change"}, {"time": 141367, "annotation": {"number": 11, "value": 92}, "group": "control_change"}, {"time": 141381, "annotation": {"number": 11, "value": 91}, "group": "control_change"}, {"time": 141390, "annotation": {"number": 11, "value": 90}, "group": "control_change"}, {"time": 141404, "annotation": {"number": 11, "value": 89}, "group": "control_change"}, {"time": 141413, "annotation": {"number": 11, "value": 87}, "group": "control_change"}, {"time": 141427, "annotation": {"number": 11, "value": 86}, "group": "control_change"}, {"time": 141436, "annotation": {"number": 11, "value": 85}, "group": "control_change"}, {"time": 141450, "annotation": {"number": 11, "value": 83}, "group": "control_change"}, {"time": 141460, "annotation": {"number": 11, "value": 82}, "group": "control_change"}, {"time": 141474, "annotation": {"number": 11, "value": 81}, "group": "control_change"}, {"time": 141483, "annotation": {"number": 11, "value": 80}, "group": "control_change"}, {"time": 141497, "annotation": {"number": 11, "value": 78}, "group": "control_change"}, {"time": 141506, "annotation": {"number": 11, "value": 77}, "group": "control_change"}, {"time": 141520, "annotation": {"number": 11, "value": 76}, "group": "control_change"}, {"time": 141529, "annotation": {"number": 11, "value": 75}, "group": "control_change"}, {"time": 141543, "annotation": {"number": 11, "value": 73}, "group": "control_change"}, {"time": 141553, "annotation": {"number": 11, "value": 72}, "group": "control_change"}, {"time": 141567, "annotation": {"number": 11, "value": 71}, "group": "control_change"}, {"time": 141576, "annotation": {"number": 11, "value": 70}, "group": "control_change"}, {"time": 141590, "annotation": {"number": 11, "value": 68}, "group": "control_change"}, {"time": 141599, "annotation": {"number": 11, "value": 67}, "group": "control_change"}, {"time": 141613, "annotation": {"number": 11, "value": 66}, "group": "control_change"}, {"time": 141622, "annotation": {"number": 11, "value": 65}, "group": "control_change"}, {"time": 141636, "annotation": {"number": 11, "value": 63}, "group": "control_change"}, {"time": 141646, "annotation": {"number": 11, "value": 62}, "group": "control_change"}, {"time": 141660, "annotation": {"number": 11, "value": 61}, "group": "control_change"}, {"time": 141669, "annotation": {"number": 11, "value": 60}, "group": "control_change"}, {"time": 141683, "annotation": {"number": 11, "value": 58}, "group": "control_change"}, {"time": 141692, "annotation": {"number": 11, "value": 57}, "group": "control_change"}, {"time": 141706, "annotation": {"number": 11, "value": 56}, "group": "control_change"}, {"time": 141715, "annotation": {"number": 11, "value": 55}, "group": "control_change"}, {"time": 141729, "annotation": {"number": 11, "value": 53}, "group": "control_change"}, {"time": 141739, "annotation": {"number": 11, "value": 52}, "group": "control_change"}, {"time": 141753, "annotation": {"number": 11, "value": 51}, "group": "control_change"}, {"time": 141762, "annotation": {"number": 11, "value": 50}, "group": "control_change"}, {"time": 141776, "annotation": {"number": 11, "value": 48}, "group": "control_change"}, {"time": 141785, "annotation": {"number": 11, "value": 47}, "group": "control_change"}, {"time": 141799, "annotation": {"number": 11, "value": 46}, "group": "control_change"}, {"time": 141808, "annotation": {"number": 11, "value": 45}, "group": "control_change"}, {"time": 141822, "annotation": {"number": 11, "value": 43}, "group": "control_change"}, {"time": 141832, "annotation": {"number": 11, "value": 42}, "group": "control_change"}, {"time": 141846, "annotation": {"number": 11, "value": 41}, "group": "control_change"}, {"time": 141855, "annotation": {"number": 11, "value": 39}, "group": "control_change"}, {"time": 141869, "annotation": {"number": 11, "value": 38}, "group": "control_change"}, {"time": 141878, "annotation": {"number": 11, "value": 37}, "group": "control_change"}, {"time": 141892, "annotation": {"number": 11, "value": 36}, "group": "control_change"}, {"time": 141901, "annotation": {"number": 11, "value": 34}, "group": "control_change"}, {"time": 141915, "annotation": {"number": 11, "value": 33}, "group": "control_change"}, {"time": 141925, "annotation": {"number": 11, "value": 32}, "group": "control_change"}, {"time": 141939, "annotation": {"number": 11, "value": 31}, "group": "control_change"}, {"time": 141948, "annotation": {"number": 11, "value": 29}, "group": "control_change"}, {"time": 141962, "annotation": {"number": 11, "value": 28}, "group": "control_change"}, {"time": 141971, "annotation": {"number": 11, "value": 27}, "group": "control_change"}, {"time": 141985, "annotation": {"number": 11, "value": 26}, "group": "control_change"}, {"time": 141995, "annotation": {"number": 11, "value": 24}, "group": "control_change"}, {"time": 142008, "annotation": {"number": 11, "value": 23}, "group": "control_change"}, {"time": 142018, "annotation": {"number": 11, "value": 22}, "group": "control_change"}, {"time": 142032, "annotation": {"number": 11, "value": 21}, "group": "control_change"}, {"time": 142041, "annotation": {"number": 11, "value": 19}, "group": "control_change"}, {"time": 142055, "annotation": {"number": 11, "value": 18}, "group": "control_change"}, {"time": 142064, "annotation": {"number": 11, "value": 17}, "group": "control_change"}, {"time": 142078, "annotation": {"number": 11, "value": 16}, "group": "control_change"}, {"time": 142088, "annotation": {"number": 11, "value": 14}, "group": "control_change"}, {"time": 142101, "annotation": {"number": 11, "value": 13}, "group": "control_change"}, {"time": 142111, "annotation": {"number": 11, "value": 12}, "group": "control_change"}, {"time": 142125, "annotation": {"number": 11, "value": 11}, "group": "control_change"}, {"time": 142134, "annotation": {"number": 11, "value": 9}, "group": "control_change"}, {"time": 142148, "annotation": {"number": 11, "value": 8}, "group": "control_change"}, {"time": 142157, "annotation": {"number": 11, "value": 7}, "group": "control_change"}, {"time": 142171, "annotation": {"number": 11, "value": 6}, "group": "control_change"}, {"time": 142181, "annotation": {"number": 11, "value": 4}, "group": "control_change"}, {"time": 142195, "annotation": {"number": 11, "value": 3}, "group": "control_change"}, {"time": 142204, "annotation": {"number": 11, "value": 2}, "group": "control_change"}, {"time": 142218, "annotation": {"number": 11, "value": 0}, "group": "control_change"}]}, {"program": 0, "is_drum": false, "name": "st2", "annotations": [{"time": 346, "annotation": {"number": 0, "value": 0}, "group": "control_change"}, {"time": 365, "annotation": {"number": 32, "value": 0}, "group": "control_change"}]}, {"program": 48, "is_drum": false, "name": "st2", "notes": [{"time": 4319, "pitch": 69, "duration": 233, "velocity": 73}, {"time": 4319, "pitch": 72, "duration": 197, "velocity": 72}, {"time": 4559, "pitch": 65, "duration": 224, "velocity": 73}, {"time": 4800, "pitch": 69, "duration": 230, "velocity": 66}, {"time": 4800, "pitch": 72, "duration": 184, "velocity": 61}, {"time": 5040, "pitch": 65, "duration": 255, "velocity": 71}, {"time": 5280, "pitch": 67, "duration": 269, "velocity": 63}, {"time": 5280, "pitch": 72, "duration": 225, "velocity": 68}, {"time": 5520, "pitch": 64, "duration": 246, "velocity": 68}, {"time": 5761, "pitch": 67, "duration": 288, "velocity": 64}, {"time": 5761, "pitch": 72, "duration": 243, "velocity": 68}, {"time": 6001, "pitch": 64, "duration": 139, "velocity": 72}, {"time": 6241, "pitch": 69, "duration": 251, "velocity": 86}, {"time": 6241, "pitch": 72, "duration": 227, "velocity": 60}, {"time": 6482, "pitch": 65, "duration": 282, "velocity": 71}, {"time": 6722, "pitch": 69, "duration": 262, "velocity": 91}, {"time": 6722, "pitch": 72, "duration": 255, "velocity": 71}, {"time": 6963, "pitch": 65, "duration": 275, "velocity": 67}, {"time": 7203, "pitch": 69, "duration": 265, "velocity": 79}, {"time": 7203, "pitch": 74, "duration": 244, "velocity": 59}, {"time": 7443, "pitch": 65, "duration": 268, "velocity": 78}, {"time": 7683, "pitch": 69, "duration": 275, "velocity": 85}, {"time": 7683, "pitch": 74, "duration": 267, "velocity": 71}, {"time": 7924, "pitch": 65, "duration": 285, "velocity": 70}, {"time": 8164, "pitch": 67, "duration": 250, "velocity": 77}, {"time": 8164, "pitch": 72, "duration": 244, "velocity": 60}, {"time": 8401, "pitch": 64, "duration": 274, "velocity": 62}, {"time": 8638, "pitch": 67, "duration": 274, "velocity": 74}, {"time": 8638, "pitch": 72, "duration": 280, "velocity": 62}, {"time": 8878, "pitch": 64, "duration": 287, "velocity": 66}, {"time": 9119, "pitch": 69, "duration": 249, "velocity": 73}, {"time": 9119, "pitch": 74, "duration": 231, "velocity": 64}, {"time": 9359, "pitch": 65, "duration": 274, "velocity": 67}, {"time": 9599, "pitch": 69, "duration": 270, "velocity": 73}, {"time": 9599, "pitch": 74, "duration": 273, "velocity": 61}, {"time": 9839, "pitch": 65, "duration": 302, "velocity": 67}, {"time": 35037, "pitch": 76, "duration": 969, "velocity": 74}, {"time": 35998, "pitch": 72, "duration": 472, "velocity": 87}, {"time": 36479, "pitch": 71, "duration": 458, "velocity": 72}, {"time": 36959, "pitch": 71, "duration": 230, "velocity": 69}, {"time": 37199, "pitch": 69, "duration": 1215, "velocity": 69}, {"time": 38881, "pitch": 76, "duration": 965, "velocity": 65}, {"time": 39842, "pitch": 77, "duration": 447, "velocity": 68}, {"time": 40322, "pitch": 76, "duration": 503, "velocity": 66}, {"time": 40803, "pitch": 74, "duration": 233, "velocity": 66}, {"time": 41040, "pitch": 72, "duration": 236, "velocity": 75}, {"time": 41277, "pitch": 72, "duration": 1135, "velocity": 78}, {"time": 42718, "pitch": 69, "duration": 88, "velocity": 86}, {"time": 42959, "pitch": 69, "duration": 74, "velocity": 54}, {"time": 43199, "pitch": 69, "duration": 68, "velocity": 101}, {"time": 43439, "pitch": 69, "duration": 82, "velocity": 52}, {"time": 43679, "pitch": 67, "duration": 55, "velocity": 106}, {"time": 43919, "pitch": 67, "duration": 103, "velocity": 41}, {"time": 44160, "pitch": 67, "duration": 62, "velocity": 101}, {"time": 44400, "pitch": 67, "duration": 95, "velocity": 41}, {"time": 44640, "pitch": 69, "duration": 69, "velocity": 102}, {"time": 44880, "pitch": 69, "duration": 81, "velocity": 39}, {"time": 45121, "pitch": 69, "duration": 66, "velocity": 105}, {"time": 45361, "pitch": 69, "duration": 98, "velocity": 32}, {"time": 45601, "pitch": 67, "duration": 69, "velocity": 103}, {"time": 45841, "pitch": 67, "duration": 97, "velocity": 32}, {"time": 46081, "pitch": 67, "duration": 60, "velocity": 104}, {"time": 46322, "pitch": 67, "duration": 90, "velocity": 39}, {"time": 46562, "pitch": 69, "duration": 72, "velocity": 110}, {"time": 46802, "pitch": 69, "duration": 85, "velocity": 40}, {"time": 47042, "pitch": 69, "duration": 72, "velocity": 98}, {"time": 47282, "pitch": 69, "duration": 99, "velocity": 21}, {"time": 47523, "pitch": 67, "duration": 100, "velocity": 89}, {"time": 48478, "pitch": 67, "duration": 1941, "velocity": 93}, {"time": 50399, "pitch": 64, "duration": 950, "velocity": 97}, {"time": 51360, "pitch": 62, "duration": 477, "velocity": 96}, {"time": 51841, "pitch": 59, "duration": 456, "velocity": 96}, {"time": 52321, "pitch": 60, "duration": 2898, "velocity": 91}, {"time": 55198, "pitch": 62, "duration": 967, "velocity": 81}, {"time": 56159, "pitch": 64, "duration": 987, "velocity": 76}, {"time": 57120, "pitch": 57, "duration": 986, "velocity": 63}, {"time": 58080, "pitch": 60, "duration": 1918, "velocity": 103}, {"time": 83039, "pitch": 76, "duration": 969, "velocity": 74}, {"time": 84000, "pitch": 72, "duration": 471, "velocity": 87}, {"time": 84481, "pitch": 71, "duration": 458, "velocity": 72}, {"time": 84961, "pitch": 71, "duration": 230, "velocity": 69}, {"time": 85201, "pitch": 69, "duration": 1215, "velocity": 69}, {"time": 86883, "pitch": 76, "duration": 959, "velocity": 65}, {"time": 87838, "pitch": 77, "duration": 447, "velocity": 68}, {"time": 88318, "pitch": 76, "duration": 503, "velocity": 66}, {"time": 88798, "pitch": 74, "duration": 237, "velocity": 66}, {"time": 89039, "pitch": 72, "duration": 116, "velocity": 75}, {"time": 89159, "pitch": 72, "duration": 1135, "velocity": 78}, {"time": 90720, "pitch": 69, "duration": 88, "velocity": 86}, {"time": 90960, "pitch": 69, "duration": 74, "velocity": 54}, {"time": 91201, "pitch": 69, "duration": 68, "velocity": 101}, {"time": 91441, "pitch": 69, "duration": 82, "velocity": 52}, {"time": 91681, "pitch": 67, "duration": 55, "velocity": 106}, {"time": 91921, "pitch": 67, "duration": 102, "velocity": 41}, {"time": 92162, "pitch": 67, "duration": 62, "velocity": 101}, {"time": 92402, "pitch": 67, "duration": 95, "velocity": 41}, {"time": 92642, "pitch": 69, "duration": 69, "velocity": 102}, {"time": 92882, "pitch": 69, "duration": 81, "velocity": 39}, {"time": 93122, "pitch": 69, "duration": 66, "velocity": 105}, {"time": 93363, "pitch": 69, "duration": 98, "velocity": 32}, {"time": 93603, "pitch": 67, "duration": 68, "velocity": 103}, {"time": 93840, "pitch": 67, "duration": 96, "velocity": 32}, {"time": 94077, "pitch": 67, "duration": 60, "velocity": 104}, {"time": 94318, "pitch": 67, "duration": 90, "velocity": 39}, {"time": 94558, "pitch": 69, "duration": 72, "velocity": 110}, {"time": 94798, "pitch": 69, "duration": 85, "velocity": 40}, {"time": 95038, "pitch": 69, "duration": 72, "velocity": 98}, {"time": 95278, "pitch": 69, "duration": 98, "velocity": 21}, {"time": 95519, "pitch": 67, "duration": 101, "velocity": 86}, {"time": 105842, "pitch": 42, "duration": 230, "velocity": 93}, {"time": 107758, "pitch": 44, "duration": 191, "velocity": 97}, {"time": 107998, "pitch": 64, "duration": 1918, "velocity": 65}, {"time": 109920, "pitch": 69, "duration": 1917, "velocity": 80}, {"time": 111841, "pitch": 76, "duration": 969, "velocity": 74}, {"time": 112802, "pitch": 72, "duration": 472, "velocity": 87}, {"time": 113283, "pitch": 71, "duration": 453, "velocity": 72}, {"time": 113757, "pitch": 71, "duration": 231, "velocity": 69}, {"time": 113998, "pitch": 69, "duration": 1215, "velocity": 69}, {"time": 115679, "pitch": 76, "duration": 965, "velocity": 65}, {"time": 116640, "pitch": 77, "duration": 447, "velocity": 68}, {"time": 117120, "pitch": 76, "duration": 504, "velocity": 66}, {"time": 117601, "pitch": 74, "duration": 236, "velocity": 66}, {"time": 117841, "pitch": 72, "duration": 116, "velocity": 75}, {"time": 117961, "pitch": 72, "duration": 1135, "velocity": 78}, {"time": 119522, "pitch": 69, "duration": 89, "velocity": 86}, {"time": 119763, "pitch": 69, "duration": 74, "velocity": 54}, {"time": 120003, "pitch": 69, "duration": 67, "velocity": 101}, {"time": 120240, "pitch": 69, "duration": 81, "velocity": 52}, {"time": 120477, "pitch": 67, "duration": 55, "velocity": 106}, {"time": 120718, "pitch": 67, "duration": 102, "velocity": 41}, {"time": 120958, "pitch": 67, "duration": 62, "velocity": 101}, {"time": 121198, "pitch": 67, "duration": 95, "velocity": 41}, {"time": 121438, "pitch": 69, "duration": 69, "velocity": 102}, {"time": 121679, "pitch": 69, "duration": 81, "velocity": 39}, {"time": 121919, "pitch": 69, "duration": 66, "velocity": 105}, {"time": 122159, "pitch": 69, "duration": 98, "velocity": 32}, {"time": 122399, "pitch": 67, "duration": 69, "velocity": 103}, {"time": 122639, "pitch": 67, "duration": 97, "velocity": 32}, {"time": 122880, "pitch": 67, "duration": 60, "velocity": 104}, {"time": 123120, "pitch": 67, "duration": 90, "velocity": 39}, {"time": 123360, "pitch": 69, "duration": 72, "velocity": 110}, {"time": 123600, "pitch": 69, "duration": 85, "velocity": 40}, {"time": 123840, "pitch": 69, "duration": 73, "velocity": 98}, {"time": 124081, "pitch": 69, "duration": 98, "velocity": 21}, {"time": 124321, "pitch": 67, "duration": 101, "velocity": 86}, {"time": 125282, "pitch": 69, "duration": 69, "velocity": 102}, {"time": 125522, "pitch": 69, "duration": 81, "velocity": 39}, {"time": 125762, "pitch": 69, "duration": 66, "velocity": 105}, {"time": 126002, "pitch": 69, "duration": 99, "velocity": 32}, {"time": 126243, "pitch": 68, "duration": 68, "velocity": 103}, {"time": 126480, "pitch": 68, "duration": 96, "velocity": 32}, {"time": 126717, "pitch": 68, "duration": 60, "velocity": 104}, {"time": 126957, "pitch": 68, "duration": 90, "velocity": 39}, {"time": 127198, "pitch": 67, "duration": 69, "velocity": 102}, {"time": 127438, "pitch": 67, "duration": 81, "velocity": 39}, {"time": 127678, "pitch": 67, "duration": 66, "velocity": 105}, {"time": 127918, "pitch": 67, "duration": 98, "velocity": 32}, {"time": 128158, "pitch": 66, "duration": 70, "velocity": 103}, {"time": 128399, "pitch": 66, "duration": 97, "velocity": 32}, {"time": 128639, "pitch": 66, "duration": 60, "velocity": 104}, {"time": 128879, "pitch": 66, "duration": 90, "velocity": 39}, {"time": 129119, "pitch": 69, "duration": 72, "velocity": 110}, {"time": 129360, "pitch": 69, "duration": 85, "velocity": 40}, {"time": 129600, "pitch": 69, "duration": 72, "velocity": 98}, {"time": 129840, "pitch": 69, "duration": 98, "velocity": 21}, {"time": 130080, "pitch": 67, "duration": 101, "velocity": 91}, {"time": 131041, "pitch": 67, "duration": 1942, "velocity": 93}, {"time": 132963, "pitch": 64, "duration": 944, "velocity": 97}, {"time": 133918, "pitch": 62, "duration": 476, "velocity": 96}, {"time": 134398, "pitch": 59, "duration": 457, "velocity": 96}, {"time": 134879, "pitch": 60, "duration": 2903, "velocity": 82}, {"time": 137761, "pitch": 62, "duration": 959, "velocity": 82}, {"time": 138720, "pitch": 64, "duration": 1048, "velocity": 85}, {"time": 139763, "pitch": 57, "duration": 880, "velocity": 76}, {"time": 140636, "pitch": 60, "duration": 1953, "velocity": 90}], "annotations": [{"time": 403, "annotation": {"number": 7, "value": 65}, "group": "control_change"}, {"time": 422, "annotation": {"number": 11, "value": 127}, "group": "control_change"}, {"time": 442, "annotation": {"number": 10, "value": 44}, "group": "control_change"}, {"time": 461, "annotation": {"number": 91, "value": 100}, "group": "control_change"}, {"time": 480, "annotation": {"number": 93, "value": 30}, "group": "control_change"}, {"time": 480, "annotation": {"number": 101, "value": 0}, "group": "control_change"}, {"time": 480, "annotation": {"number": 100, "value": 0}, "group": "control_change"}, {"time": 480, "annotation": {"number": 6, "value": 12}, "group": "control_change"}, {"time": 480, "annotation": {"number": 101, "value": 127}, "group": "control_change"}, {"time": 482, "annotation": {"number": 100, "value": 127}, "group": "control_change"}, {"time": 47986, "annotation": {"number": 11, "value": 127}, "group": "control_change"}, {"time": 55011, "annotation": {"number": 11, "value": 127}, "group": "control_change"}, {"time": 56124, "annotation": {"number": 11, "value": 127}, "group": "control_change"}, {"time": 56250, "annotation": {"number": 11, "value": 126}, "group": "control_change"}, {"time": 56376, "annotation": {"number": 11, "value": 125}, "group": "control_change"}, {"time": 56502, "annotation": {"number": 11, "value": 124}, "group": "control_change"}, {"time": 56628, "annotation": {"number": 11, "value": 123}, "group": "control_change"}, {"time": 56754, "annotation": {"number": 11, "value": 122}, "group": "control_change"}, {"time": 56880, "annotation": {"number": 11, "value": 121}, "group": "control_change"}, {"time": 57006, "annotation": {"number": 11, "value": 120}, "group": "control_change"}, {"time": 57133, "annotation": {"number": 11, "value": 119}, "group": "control_change"}, {"time": 57193, "annotation": {"number": 11, "value": 118}, "group": "control_change"}, {"time": 57253, "annotation": {"number": 11, "value": 117}, "group": "control_change"}, {"time": 57313, "annotation": {"number": 11, "value": 116}, "group": "control_change"}, {"time": 57373, "annotation": {"number": 11, "value": 114}, "group": "control_change"}, {"time": 57433, "annotation": {"number": 11, "value": 113}, "group": "control_change"}, {"time": 57493, "annotation": {"number": 11, "value": 112}, "group": "control_change"}, {"time": 57553, "annotation": {"number": 11, "value": 110}, "group": "control_change"}, {"time": 57613, "annotation": {"number": 11, "value": 109}, "group": "control_change"}, {"time": 57673, "annotation": {"number": 11, "value": 108}, "group": "control_change"}, {"time": 57733, "annotation": {"number": 11, "value": 107}, "group": "control_change"}, {"time": 57781, "annotation": {"number": 11, "value": 105}, "group": "control_change"}, {"time": 57841, "annotation": {"number": 11, "value": 103}, "group": "control_change"}, {"time": 57901, "annotation": {"number": 11, "value": 101}, "group": "control_change"}, {"time": 57961, "annotation": {"number": 11, "value": 98}, "group": "control_change"}, {"time": 58021, "annotation": {"number": 11, "value": 96}, "group": "control_change"}, {"time": 58081, "annotation": {"number": 11, "value": 93}, "group": "control_change"}, {"time": 58141, "annotation": {"number": 11, "value": 91}, "group": "control_change"}, {"time": 58201, "annotation": {"number": 11, "value": 88}, "group": "control_change"}, {"time": 58262, "annotation": {"number": 11, "value": 86}, "group": "control_change"}, {"time": 58322, "annotation": {"number": 11, "value": 83}, "group": "control_change"}, {"time": 58342, "annotation": {"number": 11, "value": 82}, "group": "control_change"}, {"time": 58372, "annotation": {"number": 11, "value": 80}, "group": "control_change"}, {"time": 58402, "annotation": {"number": 11, "value": 77}, "group": "control_change"}, {"time": 58432, "annotation": {"number": 11, "value": 74}, "group": "control_change"}, {"time": 58462, "annotation": {"number": 11, "value": 72}, "group": "control_change"}, {"time": 58492, "annotation": {"number": 11, "value": 69}, "group": "control_change"}, {"time": 58522, "annotation": {"number": 11, "value": 66}, "group": "control_change"}, {"time": 58552, "annotation": {"number": 11, "value": 64}, "group": "control_change"}, {"time": 58582, "annotation": {"number": 11, "value": 61}, "group": "control_change"}, {"time": 58612, "annotation": {"number": 11, "value": 58}, "group": "control_change"}, {"time": 58642, "annotation": {"number": 11, "value": 56}, "group": "control_change"}, {"time": 58672, "annotation": {"number": 11, "value": 53}, "group": "control_change"}, {"time": 58678, "annotation": {"number": 11, "value": 52}, "group": "control_change"}, {"time": 58693, "annotation": {"number": 11, "value": 48}, "group": "control_change"}, {"time": 58708, "annotation": {"number": 11, "value": 43}, "group": "control_change"}, {"time": 58723, "annotation": {"number": 11, "value": 38}, "group": "control_change"}, {"time": 58738, "annotation": {"number": 11, "value": 33}, "group": "control_change"}, {"time": 58753, "annotation": {"number": 11, "value": 28}, "group": "control_change"}, {"time": 58758, "annotation": {"number": 11, "value": 26}, "group": "control_change"}, {"time": 58773, "annotation": {"number": 11, "value": 22}, "group": "control_change"}, {"time": 58788, "annotation": {"number": 11, "value": 17}, "group": "control_change"}, {"time": 58803, "annotation": {"number": 11, "value": 12}, "group": "control_change"}, {"time": 58818, "annotation": {"number": 11, "value": 7}, "group": "control_change"}, {"time": 58833, "annotation": {"number": 11, "value": 2}, "group": "control_change"}, {"time": 81117, "annotation": {"number": 11, "value": 127}, "group": "control_change"}, {"time": 130550, "annotation": {"number": 11, "value": 127}, "group": "control_change"}, {"time": 137574, "annotation": {"number": 11, "value": 127}, "group": "control_change"}, {"time": 138687, "annotation": {"number": 11, "value": 127}, "group": "control_change"}, {"time": 138736, "annotation": {"number": 11, "value": 126}, "group": "control_change"}, {"time": 138763, "annotation": {"number": 11, "value": 125}, "group": "control_change"}, {"time": 138785, "annotation": {"number": 11, "value": 124}, "group": "control_change"}, {"time": 139049, "annotation": {"number": 11, "value": 123}, "group": "control_change"}, {"time": 139669, "annotation": {"number": 11, "value": 122}, "group": "control_change"}, {"time": 139696, "annotation": {"number": 11, "value": 121}, "group": "control_change"}, {"time": 139732, "annotation": {"number": 11, "value": 120}, "group": "control_change"}, {"time": 139763, "annotation": {"number": 11, "value": 119}, "group": "control_change"}, {"time": 139778, "annotation": {"number": 11, "value": 118}, "group": "control_change"}, {"time": 139794, "annotation": {"number": 11, "value": 117}, "group": "control_change"}, {"time": 139815, "annotation": {"number": 11, "value": 116}, "group": "control_change"}, {"time": 139861, "annotation": {"number": 11, "value": 114}, "group": "control_change"}, {"time": 139944, "annotation": {"number": 11, "value": 113}, "group": "control_change"}, {"time": 140032, "annotation": {"number": 11, "value": 112}, "group": "control_change"}, {"time": 140115, "annotation": {"number": 11, "value": 110}, "group": "control_change"}, {"time": 140171, "annotation": {"number": 11, "value": 109}, "group": "control_change"}, {"time": 140193, "annotation": {"number": 11, "value": 108}, "group": "control_change"}, {"time": 140217, "annotation": {"number": 11, "value": 107}, "group": "control_change"}, {"time": 140236, "annotation": {"number": 11, "value": 105}, "group": "control_change"}, {"time": 140261, "annotation": {"number": 11, "value": 103}, "group": "control_change"}, {"time": 140338, "annotation": {"number": 11, "value": 101}, "group": "control_change"}, {"time": 140439, "annotation": {"number": 11, "value": 98}, "group": "control_change"}, {"time": 140539, "annotation": {"number": 11, "value": 96}, "group": "control_change"}, {"time": 141379, "annotation": {"number": 11, "value": 94}, "group": "control_change"}, {"time": 141403, "annotation": {"number": 11, "value": 93}, "group": "control_change"}, {"time": 141426, "annotation": {"number": 11, "value": 91}, "group": "control_change"}, {"time": 141449, "annotation": {"number": 11, "value": 89}, "group": "control_change"}, {"time": 141472, "annotation": {"number": 11, "value": 87}, "group": "control_change"}, {"time": 141496, "annotation": {"number": 11, "value": 85}, "group": "control_change"}, {"time": 141519, "annotation": {"number": 11, "value": 83}, "group": "control_change"}, {"time": 141542, "annotation": {"number": 11, "value": 81}, "group": "control_change"}, {"time": 141565, "annotation": {"number": 11, "value": 79}, "group": "control_change"}, {"time": 141589, "annotation": {"number": 11, "value": 77}, "group": "control_change"}, {"time": 141612, "annotation": {"number": 11, "value": 75}, "group": "control_change"}, {"time": 141635, "annotation": {"number": 11, "value": 73}, "group": "control_change"}, {"time": 141658, "annotation": {"number": 11, "value": 71}, "group": "control_change"}, {"time": 141682, "annotation": {"number": 11, "value": 70}, "group": "control_change"}, {"time": 141705, "annotation": {"number": 11, "value": 68}, "group": "control_change"}, {"time": 141728, "annotation": {"number": 11, "value": 66}, "group": "control_change"}, {"time": 141751, "annotation": {"number": 11, "value": 64}, "group": "control_change"}, {"time": 141775, "annotation": {"number": 11, "value": 62}, "group": "control_change"}, {"time": 141798, "annotation": {"number": 11, "value": 60}, "group": "control_change"}, {"time": 141821, "annotation": {"number": 11, "value": 58}, "group": "control_change"}, {"time": 141845, "annotation": {"number": 11, "value": 56}, "group": "control_change"}, {"time": 141868, "annotation": {"number": 11, "value": 54}, "group": "control_change"}, {"time": 141891, "annotation": {"number": 11, "value": 52}, "group": "control_change"}, {"time": 141914, "annotation": {"number": 11, "value": 50}, "group": "control_change"}, {"time": 141938, "annotation": {"number": 11, "value": 48}, "group": "control_change"}, {"time": 141961, "annotation": {"number": 11, "value": 47}, "group": "control_change"}, {"time": 141984, "annotation": {"number": 11, "value": 45}, "group": "control_change"}, {"time": 142007, "annotation": {"number": 11, "value": 43}, "group": "control_change"}, {"time": 142031, "annotation": {"number": 11, "value": 41}, "group": "control_change"}, {"time": 142054, "annotation": {"number": 11, "value": 39}, "group": "control_change"}, {"time": 142077, "annotation": {"number": 11, "value": 37}, "group": "control_change"}, {"time": 142100, "annotation": {"number": 11, "value": 35}, "group": "control_change"}, {"time": 142124, "annotation": {"number": 11, "value": 33}, "group": "control_change"}, {"time": 142147, "annotation": {"number": 11, "value": 31}, "group": "control_change"}, {"time": 142170, "annotation": {"number": 11, "value": 29}, "group": "control_change"}, {"time": 142193, "annotation": {"number": 11, "value": 27}, "group": "control_change"}, {"time": 142217, "annotation": {"number": 11, "value": 25}, "group": "control_change"}, {"time": 142240, "annotation": {"number": 11, "value": 24}, "group": "control_change"}, {"time": 142263, "annotation": {"number": 11, "value": 22}, "group": "control_change"}, {"time": 142286, "annotation": {"number": 11, "value": 20}, "group": "control_change"}, {"time": 142310, "annotation": {"number": 11, "value": 18}, "group": "control_change"}, {"time": 142333, "annotation": {"number": 11, "value": 16}, "group": "control_change"}, {"time": 142356, "annotation": {"number": 11, "value": 14}, "group": "control_change"}, {"time": 142379, "annotation": {"number": 11, "value": 12}, "group": "control_change"}, {"time": 142403, "annotation": {"number": 11, "value": 10}, "group": "control_change"}, {"time": 142426, "annotation": {"number": 11, "value": 8}, "group": "control_change"}, {"time": 142449, "annotation": {"number": 11, "value": 6}, "group": "control_change"}, {"time": 142472, "annotation": {"number": 11, "value": 4}, "group": "control_change"}, {"time": 142496, "annotation": {"number": 11, "value": 2}, "group": "control_change"}, {"time": 142519, "annotation": {"number": 11, "value": 0}, "group": "control_change"}]}, {"program": 0, "is_drum": false, "name": "st", "annotations": [{"time": 346, "annotation": {"number": 0, "value": 0}, "group": "control_change"}, {"time": 365, "annotation": {"number": 32, "value": 0}, "group": "control_change"}]}, {"program": 48, "is_drum": false, "name": "st", "notes": [{"time": 4319, "pitch": 53, "duration": 1009, "velocity": 50}, {"time": 4322, "pitch": 57, "duration": 986, "velocity": 49}, {"time": 5278, "pitch": 55, "duration": 1001, "velocity": 66}, {"time": 5293, "pitch": 52, "duration": 959, "velocity": 25}, {"time": 6241, "pitch": 57, "duration": 993, "velocity": 61}, {"time": 6252, "pitch": 53, "duration": 997, "velocity": 46}, {"time": 7221, "pitch": 62, "duration": 961, "velocity": 65}, {"time": 7230, "pitch": 55, "duration": 857, "velocity": 50}, {"time": 8177, "pitch": 60, "duration": 916, "velocity": 68}, {"time": 8183, "pitch": 55, "duration": 981, "velocity": 39}, {"time": 9128, "pitch": 60, "duration": 877, "velocity": 40}, {"time": 9147, "pitch": 53, "duration": 862, "velocity": 71}, {"time": 35037, "pitch": 60, "duration": 980, "velocity": 75}, {"time": 35998, "pitch": 59, "duration": 502, "velocity": 78}, {"time": 36479, "pitch": 64, "duration": 488, "velocity": 61}, {"time": 36959, "pitch": 60, "duration": 1455, "velocity": 74}, {"time": 38400, "pitch": 59, "duration": 490, "velocity": 76}, {"time": 38881, "pitch": 60, "duration": 998, "velocity": 70}, {"time": 39842, "pitch": 59, "duration": 473, "velocity": 73}, {"time": 40322, "pitch": 62, "duration": 501, "velocity": 71}, {"time": 40803, "pitch": 60, "duration": 931, "velocity": 72}, {"time": 41758, "pitch": 60, "duration": 478, "velocity": 75}, {"time": 42238, "pitch": 59, "duration": 496, "velocity": 85}, {"time": 42718, "pitch": 57, "duration": 127, "velocity": 80}, {"time": 42959, "pitch": 57, "duration": 65, "velocity": 61}, {"time": 43199, "pitch": 57, "duration": 78, "velocity": 92}, {"time": 43439, "pitch": 57, "duration": 78, "velocity": 48}, {"time": 43679, "pitch": 55, "duration": 95, "velocity": 82}, {"time": 43919, "pitch": 55, "duration": 54, "velocity": 39}, {"time": 44160, "pitch": 55, "duration": 84, "velocity": 82}, {"time": 44400, "pitch": 55, "duration": 56, "velocity": 56}, {"time": 44640, "pitch": 57, "duration": 92, "velocity": 78}, {"time": 44880, "pitch": 57, "duration": 52, "velocity": 44}, {"time": 45121, "pitch": 57, "duration": 99, "velocity": 95}, {"time": 45361, "pitch": 57, "duration": 66, "velocity": 33}, {"time": 45601, "pitch": 55, "duration": 114, "velocity": 81}, {"time": 45841, "pitch": 55, "duration": 52, "velocity": 17}, {"time": 46081, "pitch": 55, "duration": 94, "velocity": 87}, {"time": 46322, "pitch": 55, "duration": 68, "velocity": 40}, {"time": 46562, "pitch": 57, "duration": 92, "velocity": 85}, {"time": 46802, "pitch": 57, "duration": 52, "velocity": 46}, {"time": 47042, "pitch": 57, "duration": 86, "velocity": 79}, {"time": 47282, "pitch": 57, "duration": 66, "velocity": 58}, {"time": 47523, "pitch": 55, "duration": 103, "velocity": 95}, {"time": 48478, "pitch": 60, "duration": 959, "velocity": 71}, {"time": 49439, "pitch": 59, "duration": 958, "velocity": 71}, {"time": 50399, "pitch": 57, "duration": 955, "velocity": 75}, {"time": 51360, "pitch": 55, "duration": 959, "velocity": 71}, {"time": 52321, "pitch": 57, "duration": 959, "velocity": 71}, {"time": 53282, "pitch": 55, "duration": 959, "velocity": 71}, {"time": 54243, "pitch": 53, "duration": 1916, "velocity": 71}, {"time": 54243, "pitch": 57, "duration": 1916, "velocity": 71}, {"time": 56159, "pitch": 55, "duration": 961, "velocity": 71}, {"time": 57120, "pitch": 53, "duration": 963, "velocity": 76}, {"time": 58080, "pitch": 48, "duration": 957, "velocity": 62}, {"time": 73442, "pitch": 55, "duration": 1899, "velocity": 94}, {"time": 75358, "pitch": 57, "duration": 1939, "velocity": 83}, {"time": 77280, "pitch": 55, "duration": 1870, "velocity": 80}, {"time": 79202, "pitch": 57, "duration": 992, "velocity": 85}, {"time": 80162, "pitch": 59, "duration": 951, "velocity": 100}, {"time": 81117, "pitch": 60, "duration": 957, "velocity": 100}, {"time": 82078, "pitch": 62, "duration": 237, "velocity": 100}, {"time": 82559, "pitch": 57, "duration": 248, "velocity": 76}, {"time": 82799, "pitch": 59, "duration": 274, "velocity": 74}, {"time": 83039, "pitch": 60, "duration": 980, "velocity": 75}, {"time": 84000, "pitch": 59, "duration": 502, "velocity": 78}, {"time": 84481, "pitch": 64, "duration": 488, "velocity": 61}, {"time": 84961, "pitch": 60, "duration": 1455, "velocity": 74}, {"time": 86402, "pitch": 59, "duration": 490, "velocity": 76}, {"time": 86883, "pitch": 60, "duration": 992, "velocity": 70}, {"time": 87838, "pitch": 59, "duration": 473, "velocity": 73}, {"time": 88318, "pitch": 62, "duration": 501, "velocity": 71}, {"time": 88798, "pitch": 60, "duration": 938, "velocity": 72}, {"time": 89759, "pitch": 60, "duration": 479, "velocity": 75}, {"time": 90240, "pitch": 59, "duration": 496, "velocity": 85}, {"time": 90720, "pitch": 57, "duration": 127, "velocity": 80}, {"time": 90960, "pitch": 57, "duration": 64, "velocity": 61}, {"time": 91201, "pitch": 57, "duration": 78, "velocity": 92}, {"time": 91441, "pitch": 57, "duration": 79, "velocity": 48}, {"time": 91681, "pitch": 55, "duration": 95, "velocity": 82}, {"time": 91921, "pitch": 55, "duration": 53, "velocity": 39}, {"time": 92162, "pitch": 55, "duration": 84, "velocity": 82}, {"time": 92402, "pitch": 55, "duration": 57, "velocity": 56}, {"time": 92642, "pitch": 57, "duration": 92, "velocity": 78}, {"time": 92882, "pitch": 57, "duration": 52, "velocity": 44}, {"time": 93122, "pitch": 57, "duration": 99, "velocity": 95}, {"time": 93363, "pitch": 57, "duration": 67, "velocity": 33}, {"time": 93603, "pitch": 55, "duration": 112, "velocity": 81}, {"time": 93840, "pitch": 55, "duration": 50, "velocity": 17}, {"time": 94077, "pitch": 55, "duration": 94, "velocity": 87}, {"time": 94318, "pitch": 55, "duration": 67, "velocity": 40}, {"time": 94558, "pitch": 57, "duration": 92, "velocity": 85}, {"time": 94798, "pitch": 57, "duration": 52, "velocity": 46}, {"time": 95038, "pitch": 57, "duration": 87, "velocity": 79}, {"time": 95278, "pitch": 57, "duration": 65, "velocity": 58}, {"time": 95519, "pitch": 55, "duration": 105, "velocity": 95}, {"time": 104160, "pitch": 57, "duration": 88, "velocity": 102}, {"time": 104401, "pitch": 57, "duration": 93, "velocity": 92}, {"time": 104641, "pitch": 57, "duration": 88, "velocity": 88}, {"time": 104881, "pitch": 57, "duration": 85, "velocity": 82}, {"time": 105121, "pitch": 57, "duration": 87, "velocity": 84}, {"time": 105362, "pitch": 57, "duration": 77, "velocity": 85}, {"time": 105602, "pitch": 57, "duration": 79, "velocity": 84}, {"time": 105842, "pitch": 57, "duration": 85, "velocity": 85}, {"time": 106082, "pitch": 59, "duration": 81, "velocity": 85}, {"time": 106322, "pitch": 59, "duration": 92, "velocity": 78}, {"time": 106563, "pitch": 59, "duration": 88, "velocity": 81}, {"time": 106800, "pitch": 59, "duration": 85, "velocity": 79}, {"time": 107037, "pitch": 59, "duration": 75, "velocity": 84}, {"time": 107277, "pitch": 59, "duration": 86, "velocity": 84}, {"time": 107518, "pitch": 59, "duration": 76, "velocity": 81}, {"time": 107758, "pitch": 59, "duration": 83, "velocity": 87}, {"time": 107998, "pitch": 62, "duration": 88, "velocity": 84}, {"time": 108238, "pitch": 62, "duration": 83, "velocity": 82}, {"time": 108478, "pitch": 62, "duration": 87, "velocity": 82}, {"time": 108719, "pitch": 62, "duration": 92, "velocity": 83}, {"time": 108959, "pitch": 62, "duration": 96, "velocity": 84}, {"time": 109199, "pitch": 62, "duration": 106, "velocity": 79}, {"time": 109439, "pitch": 62, "duration": 86, "velocity": 87}, {"time": 109680, "pitch": 62, "duration": 116, "velocity": 85}, {"time": 109920, "pitch": 61, "duration": 100, "velocity": 85}, {"time": 110160, "pitch": 61, "duration": 87, "velocity": 86}, {"time": 110400, "pitch": 61, "duration": 93, "velocity": 101}, {"time": 110640, "pitch": 61, "duration": 85, "velocity": 91}, {"time": 110881, "pitch": 61, "duration": 476, "velocity": 72}, {"time": 111361, "pitch": 57, "duration": 236, "velocity": 103}, {"time": 111601, "pitch": 59, "duration": 236, "velocity": 103}, {"time": 111841, "pitch": 60, "duration": 958, "velocity": 103}, {"time": 112802, "pitch": 59, "duration": 502, "velocity": 78}, {"time": 113283, "pitch": 64, "duration": 482, "velocity": 61}, {"time": 113757, "pitch": 60, "duration": 1456, "velocity": 74}, {"time": 115199, "pitch": 59, "duration": 489, "velocity": 76}, {"time": 115679, "pitch": 60, "duration": 998, "velocity": 70}, {"time": 116640, "pitch": 59, "duration": 473, "velocity": 73}, {"time": 117120, "pitch": 62, "duration": 502, "velocity": 71}, {"time": 117601, "pitch": 60, "duration": 938, "velocity": 72}, {"time": 118562, "pitch": 60, "duration": 478, "velocity": 75}, {"time": 119042, "pitch": 59, "duration": 497, "velocity": 85}, {"time": 119522, "pitch": 57, "duration": 128, "velocity": 80}, {"time": 119763, "pitch": 57, "duration": 65, "velocity": 61}, {"time": 120003, "pitch": 57, "duration": 77, "velocity": 92}, {"time": 120240, "pitch": 57, "duration": 77, "velocity": 48}, {"time": 120477, "pitch": 55, "duration": 96, "velocity": 82}, {"time": 120718, "pitch": 55, "duration": 53, "velocity": 39}, {"time": 120958, "pitch": 55, "duration": 84, "velocity": 82}, {"time": 121198, "pitch": 55, "duration": 56, "velocity": 56}, {"time": 121438, "pitch": 57, "duration": 92, "velocity": 78}, {"time": 121679, "pitch": 57, "duration": 52, "velocity": 44}, {"time": 121919, "pitch": 57, "duration": 99, "velocity": 95}, {"time": 122159, "pitch": 57, "duration": 66, "velocity": 33}, {"time": 122399, "pitch": 55, "duration": 114, "velocity": 81}, {"time": 122639, "pitch": 55, "duration": 52, "velocity": 17}, {"time": 122880, "pitch": 55, "duration": 94, "velocity": 87}, {"time": 123120, "pitch": 55, "duration": 68, "velocity": 40}, {"time": 123360, "pitch": 57, "duration": 92, "velocity": 85}, {"time": 123600, "pitch": 57, "duration": 52, "velocity": 46}, {"time": 123840, "pitch": 57, "duration": 87, "velocity": 79}, {"time": 124081, "pitch": 57, "duration": 65, "velocity": 58}, {"time": 124321, "pitch": 55, "duration": 105, "velocity": 95}, {"time": 125282, "pitch": 60, "duration": 78, "velocity": 92}, {"time": 125522, "pitch": 60, "duration": 65, "velocity": 61}, {"time": 125762, "pitch": 60, "duration": 78, "velocity": 92}, {"time": 126002, "pitch": 60, "duration": 78, "velocity": 48}, {"time": 126243, "pitch": 60, "duration": 94, "velocity": 82}, {"time": 126480, "pitch": 60, "duration": 52, "velocity": 39}, {"time": 126717, "pitch": 60, "duration": 84, "velocity": 82}, {"time": 126957, "pitch": 60, "duration": 56, "velocity": 56}, {"time": 127198, "pitch": 60, "duration": 92, "velocity": 78}, {"time": 127438, "pitch": 60, "duration": 52, "velocity": 44}, {"time": 127678, "pitch": 60, "duration": 99, "velocity": 95}, {"time": 127918, "pitch": 60, "duration": 66, "velocity": 33}, {"time": 128158, "pitch": 60, "duration": 115, "velocity": 81}, {"time": 128399, "pitch": 60, "duration": 52, "velocity": 17}, {"time": 128639, "pitch": 60, "duration": 94, "velocity": 87}, {"time": 128879, "pitch": 60, "duration": 68, "velocity": 40}, {"time": 129119, "pitch": 57, "duration": 92, "velocity": 85}, {"time": 129360, "pitch": 57, "duration": 52, "velocity": 46}, {"time": 129600, "pitch": 57, "duration": 87, "velocity": 79}, {"time": 129840, "pitch": 57, "duration": 65, "velocity": 58}, {"time": 130080, "pitch": 55, "duration": 105, "velocity": 95}, {"time": 131041, "pitch": 52, "duration": 959, "velocity": 71}, {"time": 132002, "pitch": 50, "duration": 481, "velocity": 68}, {"time": 132482, "pitch": 55, "duration": 493, "velocity": 76}, {"time": 132963, "pitch": 48, "duration": 949, "velocity": 75}, {"time": 133918, "pitch": 47, "duration": 465, "velocity": 81}, {"time": 134398, "pitch": 52, "duration": 497, "velocity": 76}, {"time": 134879, "pitch": 45, "duration": 953, "velocity": 77}, {"time": 135839, "pitch": 43, "duration": 475, "velocity": 78}, {"time": 136320, "pitch": 48, "duration": 222, "velocity": 82}, {"time": 136560, "pitch": 50, "duration": 240, "velocity": 83}, {"time": 136800, "pitch": 53, "duration": 265, "velocity": 87}, {"time": 137041, "pitch": 52, "duration": 234, "velocity": 88}, {"time": 137281, "pitch": 50, "duration": 222, "velocity": 83}, {"time": 137521, "pitch": 48, "duration": 236, "velocity": 74}, {"time": 137761, "pitch": 50, "duration": 471, "velocity": 82}, {"time": 138242, "pitch": 50, "duration": 233, "velocity": 83}, {"time": 138482, "pitch": 48, "duration": 1281, "velocity": 75}, {"time": 139763, "pitch": 53, "duration": 875, "velocity": 76}, {"time": 140636, "pitch": 55, "duration": 1953, "velocity": 90}], "annotations": [{"time": 403, "annotation": {"number": 7, "value": 80}, "group": "control_change"}, {"time": 422, "annotation": {"number": 11, "value": 127}, "group": "control_change"}, {"time": 442, "annotation": {"number": 10, "value": 84}, "group": "control_change"}, {"time": 461, "annotation": {"number": 91, "value": 100}, "group": "control_change"}, {"time": 480, "annotation": {"number": 93, "value": 30}, "group": "control_change"}, {"time": 480, "annotation": {"number": 101, "value": 0}, "group": "control_change"}, {"time": 480, "annotation": {"number": 100, "value": 0}, "group": "control_change"}, {"time": 480, "annotation": {"number": 6, "value": 12}, "group": "control_change"}, {"time": 480, "annotation": {"number": 101, "value": 127}, "group": "control_change"}, {"time": 482, "annotation": {"number": 100, "value": 127}, "group": "control_change"}, {"time": 33114, "annotation": {"number": 11, "value": 127}, "group": "control_change"}, {"time": 55014, "annotation": {"number": 11, "value": 127}, "group": "control_change"}, {"time": 56127, "annotation": {"number": 11, "value": 127}, "group": "control_change"}, {"time": 56253, "annotation": {"number": 11, "value": 126}, "group": "control_change"}, {"time": 56379, "annotation": {"number": 11, "value": 125}, "group": "control_change"}, {"time": 56505, "annotation": {"number": 11, "value": 124}, "group": "control_change"}, {"time": 56631, "annotation": {"number": 11, "value": 123}, "group": "control_change"}, {"time": 56757, "annotation": {"number": 11, "value": 122}, "group": "control_change"}, {"time": 56883, "annotation": {"number": 11, "value": 121}, "group": "control_change"}, {"time": 57009, "annotation": {"number": 11, "value": 120}, "group": "control_change"}, {"time": 57136, "annotation": {"number": 11, "value": 119}, "group": "control_change"}, {"time": 57196, "annotation": {"number": 11, "value": 118}, "group": "control_change"}, {"time": 57256, "annotation": {"number": 11, "value": 117}, "group": "control_change"}, {"time": 57316, "annotation": {"number": 11, "value": 116}, "group": "control_change"}, {"time": 57376, "annotation": {"number": 11, "value": 114}, "group": "control_change"}, {"time": 57436, "annotation": {"number": 11, "value": 113}, "group": "control_change"}, {"time": 57496, "annotation": {"number": 11, "value": 112}, "group": "control_change"}, {"time": 57556, "annotation": {"number": 11, "value": 110}, "group": "control_change"}, {"time": 57616, "annotation": {"number": 11, "value": 109}, "group": "control_change"}, {"time": 57676, "annotation": {"number": 11, "value": 108}, "group": "control_change"}, {"time": 57736, "annotation": {"number": 11, "value": 107}, "group": "control_change"}, {"time": 57784, "annotation": {"number": 11, "value": 105}, "group": "control_change"}, {"time": 57844, "annotation": {"number": 11, "value": 103}, "group": "control_change"}, {"time": 57904, "annotation": {"number": 11, "value": 101}, "group": "control_change"}, {"time": 57964, "annotation": {"number": 11, "value": 98}, "group": "control_change"}, {"time": 58024, "annotation": {"number": 11, "value": 96}, "group": "control_change"}, {"time": 58084, "annotation": {"number": 11, "value": 93}, "group": "control_change"}, {"time": 58144, "annotation": {"number": 11, "value": 91}, "group": "control_change"}, {"time": 58204, "annotation": {"number": 11, "value": 88}, "group": "control_change"}, {"time": 58265, "annotation": {"number": 11, "value": 86}, "group": "control_change"}, {"time": 58325, "annotation": {"number": 11, "value": 83}, "group": "control_change"}, {"time": 58345, "annotation": {"number": 11, "value": 82}, "group": "control_change"}, {"time": 58405, "annotation": {"number": 11, "value": 80}, "group": "control_change"}, {"time": 58465, "annotation": {"number": 11, "value": 78}, "group": "control_change"}, {"time": 58525, "annotation": {"number": 11, "value": 75}, "group": "control_change"}, {"time": 58585, "annotation": {"number": 11, "value": 73}, "group": "control_change"}, {"time": 58645, "annotation": {"number": 11, "value": 70}, "group": "control_change"}, {"time": 58705, "annotation": {"number": 11, "value": 68}, "group": "control_change"}, {"time": 58765, "annotation": {"number": 11, "value": 65}, "group": "control_change"}, {"time": 58825, "annotation": {"number": 11, "value": 63}, "group": "control_change"}, {"time": 58885, "annotation": {"number": 11, "value": 60}, "group": "control_change"}, {"time": 58945, "annotation": {"number": 11, "value": 58}, "group": "control_change"}, {"time": 58981, "annotation": {"number": 11, "value": 56}, "group": "control_change"}, {"time": 59011, "annotation": {"number": 11, "value": 55}, "group": "control_change"}, {"time": 59041, "annotation": {"number": 11, "value": 53}, "group": "control_change"}, {"time": 59071, "annotation": {"number": 11, "value": 51}, "group": "control_change"}, {"time": 59101, "annotation": {"number": 11, "value": 50}, "group": "control_change"}, {"time": 59131, "annotation": {"number": 11, "value": 48}, "group": "control_change"}, {"time": 59161, "annotation": {"number": 11, "value": 46}, "group": "control_change"}, {"time": 59191, "annotation": {"number": 11, "value": 45}, "group": "control_change"}, {"time": 59221, "annotation": {"number": 11, "value": 43}, "group": "control_change"}, {"time": 59251, "annotation": {"number": 11, "value": 41}, "group": "control_change"}, {"time": 59281, "annotation": {"number": 11, "value": 40}, "group": "control_change"}, {"time": 59311, "annotation": {"number": 11, "value": 38}, "group": "control_change"}, {"time": 59342, "annotation": {"number": 11, "value": 36}, "group": "control_change"}, {"time": 59372, "annotation": {"number": 11, "value": 34}, "group": "control_change"}, {"time": 59402, "annotation": {"number": 11, "value": 33}, "group": "control_change"}, {"time": 59432, "annotation": {"number": 11, "value": 31}, "group": "control_change"}, {"time": 59462, "annotation": {"number": 11, "value": 29}, "group": "control_change"}, {"time": 59492, "annotation": {"number": 11, "value": 28}, "group": "control_change"}, {"time": 59522, "annotation": {"number": 11, "value": 26}, "group": "control_change"}, {"time": 59552, "annotation": {"number": 11, "value": 24}, "group": "control_change"}, {"time": 59582, "annotation": {"number": 11, "value": 23}, "group": "control_change"}, {"time": 59612, "annotation": {"number": 11, "value": 21}, "group": "control_change"}, {"time": 59642, "annotation": {"number": 11, "value": 19}, "group": "control_change"}, {"time": 59672, "annotation": {"number": 11, "value": 17}, "group": "control_change"}, {"time": 59702, "annotation": {"number": 11, "value": 16}, "group": "control_change"}, {"time": 59732, "annotation": {"number": 11, "value": 14}, "group": "control_change"}, {"time": 59762, "annotation": {"number": 11, "value": 12}, "group": "control_change"}, {"time": 59792, "annotation": {"number": 11, "value": 11}, "group": "control_change"}, {"time": 59822, "annotation": {"number": 11, "value": 9}, "group": "control_change"}, {"time": 59852, "annotation": {"number": 11, "value": 7}, "group": "control_change"}, {"time": 59882, "annotation": {"number": 11, "value": 6}, "group": "control_change"}, {"time": 59912, "annotation": {"number": 11, "value": 4}, "group": "control_change"}, {"time": 59942, "annotation": {"number": 11, "value": 2}, "group": "control_change"}, {"time": 59972, "annotation": {"number": 11, "value": 0}, "group": "control_change"}, {"time": 60660, "annotation": {"number": 11, "value": 0}, "group": "control_change"}, {"time": 60675, "annotation": {"number": 11, "value": 21}, "group": "control_change"}, {"time": 60690, "annotation": {"number": 11, "value": 42}, "group": "control_change"}, {"time": 60705, "annotation": {"number": 11, "value": 63}, "group": "control_change"}, {"time": 60720, "annotation": {"number": 11, "value": 84}, "group": "control_change"}, {"time": 60735, "annotation": {"number": 11, "value": 105}, "group": "control_change"}, {"time": 60749, "annotation": {"number": 11, "value": 127}, "group": "control_change"}, {"time": 130553, "annotation": {"number": 11, "value": 127}, "group": "control_change"}, {"time": 137577, "annotation": {"number": 11, "value": 127}, "group": "control_change"}, {"time": 138690, "annotation": {"number": 11, "value": 127}, "group": "control_change"}, {"time": 138736, "annotation": {"number": 11, "value": 126}, "group": "control_change"}, {"time": 138763, "annotation": {"number": 11, "value": 125}, "group": "control_change"}, {"time": 138785, "annotation": {"number": 11, "value": 124}, "group": "control_change"}, {"time": 139071, "annotation": {"number": 11, "value": 123}, "group": "control_change"}, {"time": 139669, "annotation": {"number": 11, "value": 122}, "group": "control_change"}, {"time": 139696, "annotation": {"number": 11, "value": 121}, "group": "control_change"}, {"time": 139732, "annotation": {"number": 11, "value": 120}, "group": "control_change"}, {"time": 139763, "annotation": {"number": 11, "value": 119}, "group": "control_change"}, {"time": 139784, "annotation": {"number": 11, "value": 118}, "group": "control_change"}, {"time": 139794, "annotation": {"number": 11, "value": 117}, "group": "control_change"}, {"time": 139815, "annotation": {"number": 11, "value": 116}, "group": "control_change"}, {"time": 139866, "annotation": {"number": 11, "value": 114}, "group": "control_change"}, {"time": 139949, "annotation": {"number": 11, "value": 113}, "group": "control_change"}, {"time": 140032, "annotation": {"number": 11, "value": 112}, "group": "control_change"}, {"time": 140125, "annotation": {"number": 11, "value": 110}, "group": "control_change"}, {"time": 140173, "annotation": {"number": 11, "value": 109}, "group": "control_change"}, {"time": 140195, "annotation": {"number": 11, "value": 108}, "group": "control_change"}, {"time": 140218, "annotation": {"number": 11, "value": 107}, "group": "control_change"}, {"time": 140237, "annotation": {"number": 11, "value": 105}, "group": "control_change"}, {"time": 140262, "annotation": {"number": 11, "value": 103}, "group": "control_change"}, {"time": 140342, "annotation": {"number": 11, "value": 101}, "group": "control_change"}, {"time": 140444, "annotation": {"number": 11, "value": 99}, "group": "control_change"}, {"time": 140545, "annotation": {"number": 11, "value": 96}, "group": "control_change"}, {"time": 141103, "annotation": {"number": 11, "value": 90}, "group": "control_change"}, {"time": 141112, "annotation": {"number": 11, "value": 89}, "group": "control_change"}, {"time": 141125, "annotation": {"number": 11, "value": 87}, "group": "control_change"}, {"time": 141148, "annotation": {"number": 11, "value": 86}, "group": "control_change"}, {"time": 141171, "annotation": {"number": 11, "value": 84}, "group": "control_change"}, {"time": 141195, "annotation": {"number": 11, "value": 82}, "group": "control_change"}, {"time": 141218, "annotation": {"number": 11, "value": 81}, "group": "control_change"}, {"time": 141241, "annotation": {"number": 11, "value": 79}, "group": "control_change"}, {"time": 141264, "annotation": {"number": 11, "value": 78}, "group": "control_change"}, {"time": 141288, "annotation": {"number": 11, "value": 76}, "group": "control_change"}, {"time": 141311, "annotation": {"number": 11, "value": 74}, "group": "control_change"}, {"time": 141334, "annotation": {"number": 11, "value": 73}, "group": "control_change"}, {"time": 141357, "annotation": {"number": 11, "value": 71}, "group": "control_change"}, {"time": 141381, "annotation": {"number": 11, "value": 69}, "group": "control_change"}, {"time": 141404, "annotation": {"number": 11, "value": 68}, "group": "control_change"}, {"time": 141427, "annotation": {"number": 11, "value": 66}, "group": "control_change"}, {"time": 141450, "annotation": {"number": 11, "value": 65}, "group": "control_change"}, {"time": 141474, "annotation": {"number": 11, "value": 63}, "group": "control_change"}, {"time": 141497, "annotation": {"number": 11, "value": 61}, "group": "control_change"}, {"time": 141520, "annotation": {"number": 11, "value": 60}, "group": "control_change"}, {"time": 141543, "annotation": {"number": 11, "value": 58}, "group": "control_change"}, {"time": 141567, "annotation": {"number": 11, "value": 56}, "group": "control_change"}, {"time": 141590, "annotation": {"number": 11, "value": 55}, "group": "control_change"}, {"time": 141613, "annotation": {"number": 11, "value": 53}, "group": "control_change"}, {"time": 141636, "annotation": {"number": 11, "value": 52}, "group": "control_change"}, {"time": 141660, "annotation": {"number": 11, "value": 50}, "group": "control_change"}, {"time": 141683, "annotation": {"number": 11, "value": 48}, "group": "control_change"}, {"time": 141706, "annotation": {"number": 11, "value": 47}, "group": "control_change"}, {"time": 141729, "annotation": {"number": 11, "value": 45}, "group": "control_change"}, {"time": 141753, "annotation": {"number": 11, "value": 44}, "group": "control_change"}, {"time": 141776, "annotation": {"number": 11, "value": 42}, "group": "control_change"}, {"time": 141799, "annotation": {"number": 11, "value": 40}, "group": "control_change"}, {"time": 141822, "annotation": {"number": 11, "value": 39}, "group": "control_change"}, {"time": 141846, "annotation": {"number": 11, "value": 37}, "group": "control_change"}, {"time": 141869, "annotation": {"number": 11, "value": 35}, "group": "control_change"}, {"time": 141892, "annotation": {"number": 11, "value": 34}, "group": "control_change"}, {"time": 141915, "annotation": {"number": 11, "value": 32}, "group": "control_change"}, {"time": 141939, "annotation": {"number": 11, "value": 31}, "group": "control_change"}, {"time": 141962, "annotation": {"number": 11, "value": 29}, "group": "control_change"}, {"time": 141985, "annotation": {"number": 11, "value": 27}, "group": "control_change"}, {"time": 142008, "annotation": {"number": 11, "value": 26}, "group": "control_change"}, {"time": 142032, "annotation": {"number": 11, "value": 24}, "group": "control_change"}, {"time": 142055, "annotation": {"number": 11, "value": 22}, "group": "control_change"}, {"time": 142078, "annotation": {"number": 11, "value": 21}, "group": "control_change"}, {"time": 142101, "annotation": {"number": 11, "value": 19}, "group": "control_change"}, {"time": 142125, "annotation": {"number": 11, "value": 18}, "group": "control_change"}, {"time": 142148, "annotation": {"number": 11, "value": 16}, "group": "control_change"}, {"time": 142171, "annotation": {"number": 11, "value": 14}, "group": "control_change"}, {"time": 142195, "annotation": {"number": 11, "value": 13}, "group": "control_change"}, {"time": 142218, "annotation": {"number": 11, "value": 11}, "group": "control_change"}, {"time": 142241, "annotation": {"number": 11, "value": 9}, "group": "control_change"}]}, {"program": 0, "is_drum": false, "name": "st", "annotations": [{"time": 346, "annotation": {"number": 0, "value": 0}, "group": "control_change"}, {"time": 365, "annotation": {"number": 32, "value": 0}, "group": "control_change"}]}, {"program": 48, "is_drum": false, "name": "st", "notes": [{"time": 35037, "pitch": 48, "duration": 963, "velocity": 108}, {"time": 35998, "pitch": 40, "duration": 515, "velocity": 91}, {"time": 36479, "pitch": 44, "duration": 481, "velocity": 97}, {"time": 36959, "pitch": 45, "duration": 1473, "velocity": 99}, {"time": 38400, "pitch": 47, "duration": 482, "velocity": 104}, {"time": 38881, "pitch": 48, "duration": 991, "velocity": 95}, {"time": 39842, "pitch": 44, "duration": 486, "velocity": 89}, {"time": 40322, "pitch": 50, "duration": 517, "velocity": 91}, {"time": 40803, "pitch": 45, "duration": 954, "velocity": 114}, {"time": 41758, "pitch": 45, "duration": 457, "velocity": 114}, {"time": 42238, "pitch": 43, "duration": 491, "velocity": 110}, {"time": 42718, "pitch": 41, "duration": 85, "velocity": 96}, {"time": 42718, "pitch": 53, "duration": 38, "velocity": 68}, {"time": 42959, "pitch": 41, "duration": 58, "velocity": 90}, {"time": 43199, "pitch": 41, "duration": 79, "velocity": 104}, {"time": 43199, "pitch": 53, "duration": 72, "velocity": 87}, {"time": 43439, "pitch": 41, "duration": 79, "velocity": 87}, {"time": 43679, "pitch": 40, "duration": 100, "velocity": 99}, {"time": 43679, "pitch": 52, "duration": 78, "velocity": 87}, {"time": 43919, "pitch": 40, "duration": 86, "velocity": 86}, {"time": 44160, "pitch": 48, "duration": 112, "velocity": 101}, {"time": 44160, "pitch": 52, "duration": 102, "velocity": 90}, {"time": 44400, "pitch": 40, "duration": 119, "velocity": 90}, {"time": 44640, "pitch": 41, "duration": 88, "velocity": 104}, {"time": 44640, "pitch": 53, "duration": 84, "velocity": 83}, {"time": 44880, "pitch": 41, "duration": 86, "velocity": 87}, {"time": 45121, "pitch": 41, "duration": 101, "velocity": 102}, {"time": 45121, "pitch": 53, "duration": 88, "velocity": 92}, {"time": 45241, "pitch": 43, "duration": 93, "velocity": 92}, {"time": 45361, "pitch": 41, "duration": 102, "velocity": 99}, {"time": 45601, "pitch": 40, "duration": 96, "velocity": 100}, {"time": 45601, "pitch": 52, "duration": 86, "velocity": 88}, {"time": 45841, "pitch": 40, "duration": 67, "velocity": 91}, {"time": 46081, "pitch": 48, "duration": 99, "velocity": 99}, {"time": 46081, "pitch": 52, "duration": 103, "velocity": 93}, {"time": 46322, "pitch": 40, "duration": 90, "velocity": 97}, {"time": 46562, "pitch": 41, "duration": 66, "velocity": 96}, {"time": 46562, "pitch": 53, "duration": 55, "velocity": 93}, {"time": 46802, "pitch": 41, "duration": 71, "velocity": 92}, {"time": 47042, "pitch": 41, "duration": 81, "velocity": 103}, {"time": 47042, "pitch": 53, "duration": 76, "velocity": 96}, {"time": 47162, "pitch": 38, "duration": 146, "velocity": 101}, {"time": 47282, "pitch": 36, "duration": 142, "velocity": 93}, {"time": 47403, "pitch": 38, "duration": 133, "velocity": 107}, {"time": 47523, "pitch": 43, "duration": 113, "velocity": 111}, {"time": 47523, "pitch": 59, "duration": 88, "velocity": 97}, {"time": 48478, "pitch": 48, "duration": 976, "velocity": 98}, {"time": 49439, "pitch": 47, "duration": 986, "velocity": 99}, {"time": 50399, "pitch": 45, "duration": 942, "velocity": 101}, {"time": 51360, "pitch": 43, "duration": 476, "velocity": 111}, {"time": 51841, "pitch": 40, "duration": 478, "velocity": 107}, {"time": 52321, "pitch": 41, "duration": 917, "velocity": 105}, {"time": 53282, "pitch": 40, "duration": 988, "velocity": 104}, {"time": 54243, "pitch": 41, "duration": 945, "velocity": 99}, {"time": 55198, "pitch": 43, "duration": 960, "velocity": 86}, {"time": 56159, "pitch": 48, "duration": 986, "velocity": 100}, {"time": 57120, "pitch": 43, "duration": 919, "velocity": 89}, {"time": 65761, "pitch": 48, "duration": 1917, "velocity": 97}, {"time": 67677, "pitch": 47, "duration": 950, "velocity": 106}, {"time": 68638, "pitch": 52, "duration": 463, "velocity": 88}, {"time": 69118, "pitch": 52, "duration": 480, "velocity": 102}, {"time": 69599, "pitch": 45, "duration": 930, "velocity": 102}, {"time": 70560, "pitch": 43, "duration": 967, "velocity": 101}, {"time": 71521, "pitch": 41, "duration": 959, "velocity": 98}, {"time": 72482, "pitch": 43, "duration": 493, "velocity": 98}, {"time": 72962, "pitch": 41, "duration": 466, "velocity": 91}, {"time": 73442, "pitch": 40, "duration": 1934, "velocity": 98}, {"time": 75358, "pitch": 41, "duration": 1939, "velocity": 106}, {"time": 77280, "pitch": 40, "duration": 1933, "velocity": 101}, {"time": 79202, "pitch": 41, "duration": 1003, "velocity": 101}, {"time": 80162, "pitch": 43, "duration": 962, "velocity": 84}, {"time": 81117, "pitch": 41, "duration": 1000, "velocity": 98}, {"time": 82078, "pitch": 43, "duration": 960, "velocity": 109}, {"time": 83039, "pitch": 48, "duration": 963, "velocity": 108}, {"time": 84000, "pitch": 40, "duration": 515, "velocity": 91}, {"time": 84481, "pitch": 44, "duration": 481, "velocity": 97}, {"time": 84961, "pitch": 45, "duration": 1473, "velocity": 99}, {"time": 86402, "pitch": 47, "duration": 482, "velocity": 104}, {"time": 86883, "pitch": 48, "duration": 985, "velocity": 95}, {"time": 87838, "pitch": 44, "duration": 486, "velocity": 89}, {"time": 88318, "pitch": 50, "duration": 518, "velocity": 106}, {"time": 88798, "pitch": 45, "duration": 960, "velocity": 114}, {"time": 89759, "pitch": 45, "duration": 458, "velocity": 114}, {"time": 90240, "pitch": 43, "duration": 491, "velocity": 110}, {"time": 90720, "pitch": 41, "duration": 85, "velocity": 105}, {"time": 90960, "pitch": 41, "duration": 81, "velocity": 89}, {"time": 91201, "pitch": 41, "duration": 100, "velocity": 107}, {"time": 91441, "pitch": 41, "duration": 80, "velocity": 87}, {"time": 91681, "pitch": 40, "duration": 120, "velocity": 110}, {"time": 91921, "pitch": 40, "duration": 53, "velocity": 91}, {"time": 92162, "pitch": 40, "duration": 96, "velocity": 105}, {"time": 92402, "pitch": 40, "duration": 86, "velocity": 81}, {"time": 92642, "pitch": 41, "duration": 94, "velocity": 105}, {"time": 92882, "pitch": 41, "duration": 69, "velocity": 90}, {"time": 93122, "pitch": 41, "duration": 108, "velocity": 107}, {"time": 93363, "pitch": 41, "duration": 80, "velocity": 91}, {"time": 93603, "pitch": 40, "duration": 92, "velocity": 111}, {"time": 93840, "pitch": 40, "duration": 69, "velocity": 87}, {"time": 94077, "pitch": 40, "duration": 101, "velocity": 108}, {"time": 94318, "pitch": 40, "duration": 75, "velocity": 83}, {"time": 94558, "pitch": 41, "duration": 113, "velocity": 109}, {"time": 94798, "pitch": 41, "duration": 76, "velocity": 75}, {"time": 95038, "pitch": 41, "duration": 117, "velocity": 106}, {"time": 95278, "pitch": 41, "duration": 94, "velocity": 78}, {"time": 95519, "pitch": 43, "duration": 151, "velocity": 98}, {"time": 96479, "pitch": 41, "duration": 943, "velocity": 90}, {"time": 97440, "pitch": 40, "duration": 971, "velocity": 82}, {"time": 98401, "pitch": 39, "duration": 955, "velocity": 89}, {"time": 99362, "pitch": 38, "duration": 908, "velocity": 79}, {"time": 100323, "pitch": 45, "duration": 941, "velocity": 82}, {"time": 101278, "pitch": 44, "duration": 966, "velocity": 87}, {"time": 102239, "pitch": 43, "duration": 942, "velocity": 74}, {"time": 103200, "pitch": 42, "duration": 805, "velocity": 92}, {"time": 104160, "pitch": 41, "duration": 89, "velocity": 99}, {"time": 104401, "pitch": 41, "duration": 102, "velocity": 90}, {"time": 104641, "pitch": 41, "duration": 126, "velocity": 107}, {"time": 104881, "pitch": 41, "duration": 119, "velocity": 92}, {"time": 105121, "pitch": 41, "duration": 117, "velocity": 115}, {"time": 105362, "pitch": 41, "duration": 120, "velocity": 94}, {"time": 105602, "pitch": 41, "duration": 115, "velocity": 104}, {"time": 105842, "pitch": 41, "duration": 116, "velocity": 88}, {"time": 106082, "pitch": 43, "duration": 121, "velocity": 111}, {"time": 106322, "pitch": 43, "duration": 120, "velocity": 90}, {"time": 106563, "pitch": 43, "duration": 123, "velocity": 115}, {"time": 106800, "pitch": 43, "duration": 103, "velocity": 97}, {"time": 107037, "pitch": 43, "duration": 120, "velocity": 111}, {"time": 107277, "pitch": 43, "duration": 117, "velocity": 99}, {"time": 107518, "pitch": 43, "duration": 114, "velocity": 111}, {"time": 107758, "pitch": 43, "duration": 110, "velocity": 97}, {"time": 107998, "pitch": 45, "duration": 116, "velocity": 123}, {"time": 108238, "pitch": 45, "duration": 123, "velocity": 99}, {"time": 108478, "pitch": 45, "duration": 120, "velocity": 119}, {"time": 108719, "pitch": 45, "duration": 113, "velocity": 100}, {"time": 108959, "pitch": 45, "duration": 128, "velocity": 116}, {"time": 109199, "pitch": 45, "duration": 118, "velocity": 102}, {"time": 109439, "pitch": 45, "duration": 111, "velocity": 116}, {"time": 109680, "pitch": 45, "duration": 101, "velocity": 100}, {"time": 109920, "pitch": 45, "duration": 107, "velocity": 113}, {"time": 110160, "pitch": 45, "duration": 103, "velocity": 90}, {"time": 110400, "pitch": 45, "duration": 114, "velocity": 111}, {"time": 110640, "pitch": 45, "duration": 94, "velocity": 99}, {"time": 110881, "pitch": 45, "duration": 959, "velocity": 106}, {"time": 111841, "pitch": 48, "duration": 963, "velocity": 108}, {"time": 112802, "pitch": 40, "duration": 514, "velocity": 91}, {"time": 113283, "pitch": 44, "duration": 475, "velocity": 97}, {"time": 113757, "pitch": 45, "duration": 1474, "velocity": 99}, {"time": 115199, "pitch": 47, "duration": 481, "velocity": 104}, {"time": 115679, "pitch": 48, "duration": 991, "velocity": 95}, {"time": 116640, "pitch": 44, "duration": 960, "velocity": 89}, {"time": 117601, "pitch": 45, "duration": 960, "velocity": 98}, {"time": 118562, "pitch": 45, "duration": 959, "velocity": 98}, {"time": 119522, "pitch": 41, "duration": 86, "velocity": 105}, {"time": 119763, "pitch": 41, "duration": 81, "velocity": 89}, {"time": 120003, "pitch": 41, "duration": 99, "velocity": 107}, {"time": 120240, "pitch": 41, "duration": 79, "velocity": 87}, {"time": 120477, "pitch": 40, "duration": 121, "velocity": 110}, {"time": 120718, "pitch": 40, "duration": 53, "velocity": 91}, {"time": 120958, "pitch": 40, "duration": 96, "velocity": 105}, {"time": 121198, "pitch": 40, "duration": 86, "velocity": 81}, {"time": 121438, "pitch": 41, "duration": 94, "velocity": 105}, {"time": 121679, "pitch": 41, "duration": 69, "velocity": 90}, {"time": 121919, "pitch": 41, "duration": 108, "velocity": 107}, {"time": 122159, "pitch": 41, "duration": 80, "velocity": 91}, {"time": 122399, "pitch": 40, "duration": 93, "velocity": 111}, {"time": 122639, "pitch": 40, "duration": 70, "velocity": 87}, {"time": 122880, "pitch": 40, "duration": 101, "velocity": 108}, {"time": 123120, "pitch": 40, "duration": 75, "velocity": 83}, {"time": 123360, "pitch": 41, "duration": 113, "velocity": 109}, {"time": 123600, "pitch": 41, "duration": 76, "velocity": 75}, {"time": 123840, "pitch": 41, "duration": 118, "velocity": 106}, {"time": 124081, "pitch": 41, "duration": 94, "velocity": 78}, {"time": 124321, "pitch": 43, "duration": 151, "velocity": 98}, {"time": 125282, "pitch": 45, "duration": 99, "velocity": 116}, {"time": 125522, "pitch": 45, "duration": 81, "velocity": 97}, {"time": 125762, "pitch": 45, "duration": 99, "velocity": 116}, {"time": 126002, "pitch": 45, "duration": 81, "velocity": 83}, {"time": 126243, "pitch": 44, "duration": 119, "velocity": 106}, {"time": 126480, "pitch": 44, "duration": 52, "velocity": 87}, {"time": 126717, "pitch": 44, "duration": 96, "velocity": 102}, {"time": 126957, "pitch": 44, "duration": 86, "velocity": 89}, {"time": 127198, "pitch": 43, "duration": 94, "velocity": 108}, {"time": 127438, "pitch": 43, "duration": 69, "velocity": 86}, {"time": 127678, "pitch": 43, "duration": 108, "velocity": 110}, {"time": 127918, "pitch": 43, "duration": 79, "velocity": 87}, {"time": 128158, "pitch": 42, "duration": 94, "velocity": 105}, {"time": 128399, "pitch": 42, "duration": 71, "velocity": 83}, {"time": 128639, "pitch": 42, "duration": 101, "velocity": 111}, {"time": 128879, "pitch": 42, "duration": 76, "velocity": 91}, {"time": 129119, "pitch": 41, "duration": 112, "velocity": 104}, {"time": 129360, "pitch": 41, "duration": 76, "velocity": 91}, {"time": 129600, "pitch": 41, "duration": 117, "velocity": 101}, {"time": 129840, "pitch": 41, "duration": 94, "velocity": 94}, {"time": 130080, "pitch": 43, "duration": 150, "velocity": 99}, {"time": 131041, "pitch": 48, "duration": 976, "velocity": 98}, {"time": 132002, "pitch": 47, "duration": 986, "velocity": 99}, {"time": 132963, "pitch": 45, "duration": 936, "velocity": 101}, {"time": 133918, "pitch": 43, "duration": 475, "velocity": 111}, {"time": 134398, "pitch": 40, "duration": 479, "velocity": 107}, {"time": 134879, "pitch": 41, "duration": 916, "velocity": 105}, {"time": 135839, "pitch": 40, "duration": 988, "velocity": 104}, {"time": 136800, "pitch": 41, "duration": 720, "velocity": 99}, {"time": 137521, "pitch": 42, "duration": 239, "velocity": 86}, {"time": 137761, "pitch": 43, "duration": 480, "velocity": 86}, {"time": 138242, "pitch": 31, "duration": 478, "velocity": 114}, {"time": 138720, "pitch": 48, "duration": 1048, "velocity": 100}, {"time": 138763, "pitch": 64, "duration": 286, "velocity": 72}, {"time": 139147, "pitch": 67, "duration": 559, "velocity": 76}, {"time": 139147, "pitch": 72, "duration": 554, "velocity": 67}, {"time": 139696, "pitch": 64, "duration": 72, "velocity": 81}, {"time": 139763, "pitch": 43, "duration": 807, "velocity": 89}, {"time": 139763, "pitch": 69, "duration": 134, "velocity": 85}, {"time": 139763, "pitch": 74, "duration": 77, "velocity": 57}, {"time": 139846, "pitch": 65, "duration": 323, "velocity": 75}, {"time": 140166, "pitch": 69, "duration": 96, "velocity": 86}, {"time": 140166, "pitch": 74, "duration": 90, "velocity": 85}, {"time": 140261, "pitch": 65, "duration": 371, "velocity": 75}, {"time": 140636, "pitch": 48, "duration": 1953, "velocity": 90}], "annotations": [{"time": 403, "annotation": {"number": 7, "value": 70}, "group": "control_change"}, {"time": 422, "annotation": {"number": 11, "value": 127}, "group": "control_change"}, {"time": 442, "annotation": {"number": 10, "value": 104}, "group": "control_change"}, {"time": 461, "annotation": {"number": 91, "value": 80}, "group": "control_change"}, {"time": 480, "annotation": {"number": 93, "value": 30}, "group": "control_change"}, {"time": 480, "annotation": {"number": 101, "value": 0}, "group": "control_change"}, {"time": 480, "annotation": {"number": 100, "value": 0}, "group": "control_change"}, {"time": 480, "annotation": {"number": 6, "value": 12}, "group": "control_change"}, {"time": 480, "annotation": {"number": 101, "value": 127}, "group": "control_change"}, {"time": 482, "annotation": {"number": 100, "value": 127}, "group": "control_change"}, {"time": 33109, "annotation": {"number": 11, "value": 127}, "group": "control_change"}, {"time": 48477, "annotation": {"number": 11, "value": 70}, "group": "control_change"}, {"time": 48518, "annotation": {"number": 11, "value": 71}, "group": "control_change"}, {"time": 48558, "annotation": {"number": 11, "value": 72}, "group": "control_change"}, {"time": 48598, "annotation": {"number": 11, "value": 73}, "group": "control_change"}, {"time": 48638, "annotation": {"number": 11, "value": 74}, "group": "control_change"}, {"time": 48678, "annotation": {"number": 11, "value": 75}, "group": "control_change"}, {"time": 48718, "annotation": {"number": 11, "value": 76}, "group": "control_change"}, {"time": 48758, "annotation": {"number": 11, "value": 77}, "group": "control_change"}, {"time": 48798, "annotation": {"number": 11, "value": 78}, "group": "control_change"}, {"time": 48818, "annotation": {"number": 11, "value": 79}, "group": "control_change"}, {"time": 48858, "annotation": {"number": 11, "value": 80}, "group": "control_change"}, {"time": 48898, "annotation": {"number": 11, "value": 81}, "group": "control_change"}, {"time": 48938, "annotation": {"number": 11, "value": 82}, "group": "control_change"}, {"time": 48978, "annotation": {"number": 11, "value": 83}, "group": "control_change"}, {"time": 49018, "annotation": {"number": 11, "value": 84}, "group": "control_change"}, {"time": 49058, "annotation": {"number": 11, "value": 85}, "group": "control_change"}, {"time": 49098, "annotation": {"number": 11, "value": 86}, "group": "control_change"}, {"time": 49118, "annotation": {"number": 11, "value": 87}, "group": "control_change"}, {"time": 49158, "annotation": {"number": 11, "value": 88}, "group": "control_change"}, {"time": 49198, "annotation": {"number": 11, "value": 89}, "group": "control_change"}, {"time": 49238, "annotation": {"number": 11, "value": 90}, "group": "control_change"}, {"time": 49278, "annotation": {"number": 11, "value": 91}, "group": "control_change"}, {"time": 49318, "annotation": {"number": 11, "value": 92}, "group": "control_change"}, {"time": 49358, "annotation": {"number": 11, "value": 93}, "group": "control_change"}, {"time": 49398, "annotation": {"number": 11, "value": 94}, "group": "control_change"}, {"time": 49418, "annotation": {"number": 11, "value": 95}, "group": "control_change"}, {"time": 49459, "annotation": {"number": 11, "value": 96}, "group": "control_change"}, {"time": 49499, "annotation": {"number": 11, "value": 97}, "group": "control_change"}, {"time": 49539, "annotation": {"number": 11, "value": 98}, "group": "control_change"}, {"time": 49579, "annotation": {"number": 11, "value": 99}, "group": "control_change"}, {"time": 49619, "annotation": {"number": 11, "value": 100}, "group": "control_change"}, {"time": 49659, "annotation": {"number": 11, "value": 101}, "group": "control_change"}, {"time": 49699, "annotation": {"number": 11, "value": 102}, "group": "control_change"}, {"time": 49719, "annotation": {"number": 11, "value": 103}, "group": "control_change"}, {"time": 49759, "annotation": {"number": 11, "value": 104}, "group": "control_change"}, {"time": 49799, "annotation": {"number": 11, "value": 105}, "group": "control_change"}, {"time": 49839, "annotation": {"number": 11, "value": 106}, "group": "control_change"}, {"time": 49879, "annotation": {"number": 11, "value": 107}, "group": "control_change"}, {"time": 49919, "annotation": {"number": 11, "value": 108}, "group": "control_change"}, {"time": 49959, "annotation": {"number": 11, "value": 109}, "group": "control_change"}, {"time": 49999, "annotation": {"number": 11, "value": 110}, "group": "control_change"}, {"time": 50019, "annotation": {"number": 11, "value": 111}, "group": "control_change"}, {"time": 50059, "annotation": {"number": 11, "value": 112}, "group": "control_change"}, {"time": 50099, "annotation": {"number": 11, "value": 113}, "group": "control_change"}, {"time": 50139, "annotation": {"number": 11, "value": 114}, "group": "control_change"}, {"time": 50179, "annotation": {"number": 11, "value": 115}, "group": "control_change"}, {"time": 50219, "annotation": {"number": 11, "value": 116}, "group": "control_change"}, {"time": 50259, "annotation": {"number": 11, "value": 117}, "group": "control_change"}, {"time": 50299, "annotation": {"number": 11, "value": 118}, "group": "control_change"}, {"time": 50319, "annotation": {"number": 11, "value": 119}, "group": "control_change"}, {"time": 50359, "annotation": {"number": 11, "value": 120}, "group": "control_change"}, {"time": 50399, "annotation": {"number": 11, "value": 121}, "group": "control_change"}, {"time": 50439, "annotation": {"number": 11, "value": 122}, "group": "control_change"}, {"time": 50479, "annotation": {"number": 11, "value": 123}, "group": "control_change"}, {"time": 50519, "annotation": {"number": 11, "value": 124}, "group": "control_change"}, {"time": 50560, "annotation": {"number": 11, "value": 125}, "group": "control_change"}, {"time": 50600, "annotation": {"number": 11, "value": 126}, "group": "control_change"}, {"time": 50620, "annotation": {"number": 11, "value": 127}, "group": "control_change"}, {"time": 52301, "annotation": {"number": 11, "value": 88}, "group": "control_change"}, {"time": 52361, "annotation": {"number": 11, "value": 89}, "group": "control_change"}, {"time": 52401, "annotation": {"number": 11, "value": 90}, "group": "control_change"}, {"time": 52441, "annotation": {"number": 11, "value": 91}, "group": "control_change"}, {"time": 52481, "annotation": {"number": 11, "value": 92}, "group": "control_change"}, {"time": 52521, "annotation": {"number": 11, "value": 93}, "group": "control_change"}, {"time": 52581, "annotation": {"number": 11, "value": 94}, "group": "control_change"}, {"time": 52621, "annotation": {"number": 11, "value": 95}, "group": "control_change"}, {"time": 52661, "annotation": {"number": 11, "value": 96}, "group": "control_change"}, {"time": 52701, "annotation": {"number": 11, "value": 97}, "group": "control_change"}, {"time": 52741, "annotation": {"number": 11, "value": 98}, "group": "control_change"}, {"time": 52782, "annotation": {"number": 11, "value": 99}, "group": "control_change"}, {"time": 52842, "annotation": {"number": 11, "value": 100}, "group": "control_change"}, {"time": 52882, "annotation": {"number": 11, "value": 101}, "group": "control_change"}, {"time": 52922, "annotation": {"number": 11, "value": 102}, "group": "control_change"}, {"time": 52962, "annotation": {"number": 11, "value": 103}, "group": "control_change"}, {"time": 53002, "annotation": {"number": 11, "value": 104}, "group": "control_change"}, {"time": 53062, "annotation": {"number": 11, "value": 105}, "group": "control_change"}, {"time": 53102, "annotation": {"number": 11, "value": 106}, "group": "control_change"}, {"time": 53142, "annotation": {"number": 11, "value": 107}, "group": "control_change"}, {"time": 53182, "annotation": {"number": 11, "value": 108}, "group": "control_change"}, {"time": 53222, "annotation": {"number": 11, "value": 109}, "group": "control_change"}, {"time": 53262, "annotation": {"number": 11, "value": 110}, "group": "control_change"}, {"time": 53322, "annotation": {"number": 11, "value": 111}, "group": "control_change"}, {"time": 53362, "annotation": {"number": 11, "value": 112}, "group": "control_change"}, {"time": 53402, "annotation": {"number": 11, "value": 113}, "group": "control_change"}, {"time": 53442, "annotation": {"number": 11, "value": 114}, "group": "control_change"}, {"time": 53482, "annotation": {"number": 11, "value": 115}, "group": "control_change"}, {"time": 53542, "annotation": {"number": 11, "value": 116}, "group": "control_change"}, {"time": 53582, "annotation": {"number": 11, "value": 117}, "group": "control_change"}, {"time": 53622, "annotation": {"number": 11, "value": 118}, "group": "control_change"}, {"time": 53662, "annotation": {"number": 11, "value": 119}, "group": "control_change"}, {"time": 53702, "annotation": {"number": 11, "value": 120}, "group": "control_change"}, {"time": 53742, "annotation": {"number": 11, "value": 121}, "group": "control_change"}, {"time": 53802, "annotation": {"number": 11, "value": 122}, "group": "control_change"}, {"time": 53842, "annotation": {"number": 11, "value": 123}, "group": "control_change"}, {"time": 53883, "annotation": {"number": 11, "value": 124}, "group": "control_change"}, {"time": 53923, "annotation": {"number": 11, "value": 125}, "group": "control_change"}, {"time": 53963, "annotation": {"number": 11, "value": 126}, "group": "control_change"}, {"time": 54003, "annotation": {"number": 11, "value": 127}, "group": "control_change"}, {"time": 55009, "annotation": {"number": 11, "value": 127}, "group": "control_change"}, {"time": 57580, "annotation": {"number": 11, "value": 124}, "group": "control_change"}, {"time": 57600, "annotation": {"number": 11, "value": 120}, "group": "control_change"}, {"time": 57620, "annotation": {"number": 11, "value": 116}, "group": "control_change"}, {"time": 57640, "annotation": {"number": 11, "value": 112}, "group": "control_change"}, {"time": 57660, "annotation": {"number": 11, "value": 108}, "group": "control_change"}, {"time": 57680, "annotation": {"number": 11, "value": 103}, "group": "control_change"}, {"time": 57700, "annotation": {"number": 11, "value": 99}, "group": "control_change"}, {"time": 57720, "annotation": {"number": 11, "value": 95}, "group": "control_change"}, {"time": 57740, "annotation": {"number": 11, "value": 91}, "group": "control_change"}, {"time": 57760, "annotation": {"number": 11, "value": 87}, "group": "control_change"}, {"time": 57780, "annotation": {"number": 11, "value": 82}, "group": "control_change"}, {"time": 57800, "annotation": {"number": 11, "value": 78}, "group": "control_change"}, {"time": 57820, "annotation": {"number": 11, "value": 74}, "group": "control_change"}, {"time": 57840, "annotation": {"number": 11, "value": 70}, "group": "control_change"}, {"time": 57860, "annotation": {"number": 11, "value": 66}, "group": "control_change"}, {"time": 57880, "annotation": {"number": 11, "value": 61}, "group": "control_change"}, {"time": 57900, "annotation": {"number": 11, "value": 57}, "group": "control_change"}, {"time": 57920, "annotation": {"number": 11, "value": 53}, "group": "control_change"}, {"time": 57940, "annotation": {"number": 11, "value": 49}, "group": "control_change"}, {"time": 57960, "annotation": {"number": 11, "value": 45}, "group": "control_change"}, {"time": 57980, "annotation": {"number": 11, "value": 40}, "group": "control_change"}, {"time": 58000, "annotation": {"number": 11, "value": 36}, "group": "control_change"}, {"time": 58020, "annotation": {"number": 11, "value": 32}, "group": "control_change"}, {"time": 58040, "annotation": {"number": 11, "value": 28}, "group": "control_change"}, {"time": 58060, "annotation": {"number": 11, "value": 24}, "group": "control_change"}, {"time": 65741, "annotation": {"number": 11, "value": 62}, "group": "control_change"}, {"time": 65781, "annotation": {"number": 11, "value": 63}, "group": "control_change"}, {"time": 65801, "annotation": {"number": 11, "value": 64}, "group": "control_change"}, {"time": 65821, "annotation": {"number": 11, "value": 65}, "group": "control_change"}, {"time": 65841, "annotation": {"number": 11, "value": 66}, "group": "control_change"}, {"time": 65861, "annotation": {"number": 11, "value": 67}, "group": "control_change"}, {"time": 65881, "annotation": {"number": 11, "value": 68}, "group": "control_change"}, {"time": 65902, "annotation": {"number": 11, "value": 69}, "group": "control_change"}, {"time": 65922, "annotation": {"number": 11, "value": 70}, "group": "control_change"}, {"time": 65942, "annotation": {"number": 11, "value": 71}, "group": "control_change"}, {"time": 65962, "annotation": {"number": 11, "value": 72}, "group": "control_change"}, {"time": 65982, "annotation": {"number": 11, "value": 73}, "group": "control_change"}, {"time": 66002, "annotation": {"number": 11, "value": 74}, "group": "control_change"}, {"time": 66022, "annotation": {"number": 11, "value": 75}, "group": "control_change"}, {"time": 66042, "annotation": {"number": 11, "value": 76}, "group": "control_change"}, {"time": 66062, "annotation": {"number": 11, "value": 77}, "group": "control_change"}, {"time": 66082, "annotation": {"number": 11, "value": 78}, "group": "control_change"}, {"time": 66102, "annotation": {"number": 11, "value": 79}, "group": "control_change"}, {"time": 66122, "annotation": {"number": 11, "value": 80}, "group": "control_change"}, {"time": 66142, "annotation": {"number": 11, "value": 81}, "group": "control_change"}, {"time": 66162, "annotation": {"number": 11, "value": 82}, "group": "control_change"}, {"time": 66182, "annotation": {"number": 11, "value": 83}, "group": "control_change"}, {"time": 66202, "annotation": {"number": 11, "value": 84}, "group": "control_change"}, {"time": 66222, "annotation": {"number": 11, "value": 85}, "group": "control_change"}, {"time": 66242, "annotation": {"number": 11, "value": 86}, "group": "control_change"}, {"time": 66262, "annotation": {"number": 11, "value": 87}, "group": "control_change"}, {"time": 66282, "annotation": {"number": 11, "value": 88}, "group": "control_change"}, {"time": 66302, "annotation": {"number": 11, "value": 89}, "group": "control_change"}, {"time": 66322, "annotation": {"number": 11, "value": 90}, "group": "control_change"}, {"time": 66342, "annotation": {"number": 11, "value": 91}, "group": "control_change"}, {"time": 66362, "annotation": {"number": 11, "value": 92}, "group": "control_change"}, {"time": 66382, "annotation": {"number": 11, "value": 93}, "group": "control_change"}, {"time": 66402, "annotation": {"number": 11, "value": 94}, "group": "control_change"}, {"time": 66442, "annotation": {"number": 11, "value": 95}, "group": "control_change"}, {"time": 66462, "annotation": {"number": 11, "value": 96}, "group": "control_change"}, {"time": 66482, "annotation": {"number": 11, "value": 97}, "group": "control_change"}, {"time": 66502, "annotation": {"number": 11, "value": 98}, "group": "control_change"}, {"time": 66522, "annotation": {"number": 11, "value": 99}, "group": "control_change"}, {"time": 66542, "annotation": {"number": 11, "value": 100}, "group": "control_change"}, {"time": 66562, "annotation": {"number": 11, "value": 101}, "group": "control_change"}, {"time": 66582, "annotation": {"number": 11, "value": 102}, "group": "control_change"}, {"time": 66602, "annotation": {"number": 11, "value": 103}, "group": "control_change"}, {"time": 66622, "annotation": {"number": 11, "value": 104}, "group": "control_change"}, {"time": 66642, "annotation": {"number": 11, "value": 105}, "group": "control_change"}, {"time": 66662, "annotation": {"number": 11, "value": 106}, "group": "control_change"}, {"time": 66682, "annotation": {"number": 11, "value": 107}, "group": "control_change"}, {"time": 66702, "annotation": {"number": 11, "value": 108}, "group": "control_change"}, {"time": 66722, "annotation": {"number": 11, "value": 109}, "group": "control_change"}, {"time": 66742, "annotation": {"number": 11, "value": 110}, "group": "control_change"}, {"time": 66762, "annotation": {"number": 11, "value": 111}, "group": "control_change"}, {"time": 66782, "annotation": {"number": 11, "value": 112}, "group": "control_change"}, {"time": 66802, "annotation": {"number": 11, "value": 113}, "group": "control_change"}, {"time": 66822, "annotation": {"number": 11, "value": 114}, "group": "control_change"}, {"time": 66842, "annotation": {"number": 11, "value": 115}, "group": "control_change"}, {"time": 66862, "annotation": {"number": 11, "value": 116}, "group": "control_change"}, {"time": 66882, "annotation": {"number": 11, "value": 117}, "group": "control_change"}, {"time": 66902, "annotation": {"number": 11, "value": 118}, "group": "control_change"}, {"time": 66922, "annotation": {"number": 11, "value": 119}, "group": "control_change"}, {"time": 66942, "annotation": {"number": 11, "value": 120}, "group": "control_change"}, {"time": 66962, "annotation": {"number": 11, "value": 121}, "group": "control_change"}, {"time": 66982, "annotation": {"number": 11, "value": 122}, "group": "control_change"}, {"time": 67003, "annotation": {"number": 11, "value": 123}, "group": "control_change"}, {"time": 67023, "annotation": {"number": 11, "value": 124}, "group": "control_change"}, {"time": 67043, "annotation": {"number": 11, "value": 125}, "group": "control_change"}, {"time": 67063, "annotation": {"number": 11, "value": 126}, "group": "control_change"}, {"time": 67083, "annotation": {"number": 11, "value": 127}, "group": "control_change"}, {"time": 69598, "annotation": {"number": 11, "value": 80}, "group": "control_change"}, {"time": 69639, "annotation": {"number": 11, "value": 81}, "group": "control_change"}, {"time": 69659, "annotation": {"number": 11, "value": 82}, "group": "control_change"}, {"time": 69699, "annotation": {"number": 11, "value": 83}, "group": "control_change"}, {"time": 69719, "annotation": {"number": 11, "value": 84}, "group": "control_change"}, {"time": 69759, "annotation": {"number": 11, "value": 85}, "group": "control_change"}, {"time": 69779, "annotation": {"number": 11, "value": 86}, "group": "control_change"}, {"time": 69799, "annotation": {"number": 11, "value": 87}, "group": "control_change"}, {"time": 69839, "annotation": {"number": 11, "value": 88}, "group": "control_change"}, {"time": 69859, "annotation": {"number": 11, "value": 89}, "group": "control_change"}, {"time": 69899, "annotation": {"number": 11, "value": 90}, "group": "control_change"}, {"time": 69919, "annotation": {"number": 11, "value": 91}, "group": "control_change"}, {"time": 69939, "annotation": {"number": 11, "value": 92}, "group": "control_change"}, {"time": 69979, "annotation": {"number": 11, "value": 93}, "group": "control_change"}, {"time": 69999, "annotation": {"number": 11, "value": 94}, "group": "control_change"}, {"time": 70039, "annotation": {"number": 11, "value": 95}, "group": "control_change"}, {"time": 70059, "annotation": {"number": 11, "value": 96}, "group": "control_change"}, {"time": 70079, "annotation": {"number": 11, "value": 97}, "group": "control_change"}, {"time": 70119, "annotation": {"number": 11, "value": 98}, "group": "control_change"}, {"time": 70139, "annotation": {"number": 11, "value": 99}, "group": "control_change"}, {"time": 70179, "annotation": {"number": 11, "value": 100}, "group": "control_change"}, {"time": 70199, "annotation": {"number": 11, "value": 101}, "group": "control_change"}, {"time": 70219, "annotation": {"number": 11, "value": 102}, "group": "control_change"}, {"time": 70260, "annotation": {"number": 11, "value": 103}, "group": "control_change"}, {"time": 70280, "annotation": {"number": 11, "value": 104}, "group": "control_change"}, {"time": 70320, "annotation": {"number": 11, "value": 105}, "group": "control_change"}, {"time": 70340, "annotation": {"number": 11, "value": 106}, "group": "control_change"}, {"time": 70360, "annotation": {"number": 11, "value": 107}, "group": "control_change"}, {"time": 70400, "annotation": {"number": 11, "value": 108}, "group": "control_change"}, {"time": 70420, "annotation": {"number": 11, "value": 109}, "group": "control_change"}, {"time": 70460, "annotation": {"number": 11, "value": 110}, "group": "control_change"}, {"time": 70480, "annotation": {"number": 11, "value": 111}, "group": "control_change"}, {"time": 70500, "annotation": {"number": 11, "value": 112}, "group": "control_change"}, {"time": 70540, "annotation": {"number": 11, "value": 113}, "group": "control_change"}, {"time": 70560, "annotation": {"number": 11, "value": 114}, "group": "control_change"}, {"time": 70600, "annotation": {"number": 11, "value": 115}, "group": "control_change"}, {"time": 70620, "annotation": {"number": 11, "value": 116}, "group": "control_change"}, {"time": 70640, "annotation": {"number": 11, "value": 117}, "group": "control_change"}, {"time": 70680, "annotation": {"number": 11, "value": 118}, "group": "control_change"}, {"time": 70700, "annotation": {"number": 11, "value": 119}, "group": "control_change"}, {"time": 70740, "annotation": {"number": 11, "value": 120}, "group": "control_change"}, {"time": 70760, "annotation": {"number": 11, "value": 121}, "group": "control_change"}, {"time": 70780, "annotation": {"number": 11, "value": 122}, "group": "control_change"}, {"time": 70820, "annotation": {"number": 11, "value": 123}, "group": "control_change"}, {"time": 70840, "annotation": {"number": 11, "value": 124}, "group": "control_change"}, {"time": 70880, "annotation": {"number": 11, "value": 125}, "group": "control_change"}, {"time": 70900, "annotation": {"number": 11, "value": 126}, "group": "control_change"}, {"time": 70920, "annotation": {"number": 11, "value": 127}, "group": "control_change"}, {"time": 71520, "annotation": {"number": 11, "value": 74}, "group": "control_change"}, {"time": 71561, "annotation": {"number": 11, "value": 75}, "group": "control_change"}, {"time": 71581, "annotation": {"number": 11, "value": 76}, "group": "control_change"}, {"time": 71601, "annotation": {"number": 11, "value": 77}, "group": "control_change"}, {"time": 71621, "annotation": {"number": 11, "value": 78}, "group": "control_change"}, {"time": 71641, "annotation": {"number": 11, "value": 79}, "group": "control_change"}, {"time": 71661, "annotation": {"number": 11, "value": 80}, "group": "control_change"}, {"time": 71681, "annotation": {"number": 11, "value": 81}, "group": "control_change"}, {"time": 71721, "annotation": {"number": 11, "value": 82}, "group": "control_change"}, {"time": 71741, "annotation": {"number": 11, "value": 83}, "group": "control_change"}, {"time": 71761, "annotation": {"number": 11, "value": 84}, "group": "control_change"}, {"time": 71781, "annotation": {"number": 11, "value": 85}, "group": "control_change"}, {"time": 71801, "annotation": {"number": 11, "value": 86}, "group": "control_change"}, {"time": 71821, "annotation": {"number": 11, "value": 87}, "group": "control_change"}, {"time": 71841, "annotation": {"number": 11, "value": 88}, "group": "control_change"}, {"time": 71861, "annotation": {"number": 11, "value": 89}, "group": "control_change"}, {"time": 71901, "annotation": {"number": 11, "value": 90}, "group": "control_change"}, {"time": 71921, "annotation": {"number": 11, "value": 91}, "group": "control_change"}, {"time": 71941, "annotation": {"number": 11, "value": 92}, "group": "control_change"}, {"time": 71961, "annotation": {"number": 11, "value": 93}, "group": "control_change"}, {"time": 71981, "annotation": {"number": 11, "value": 94}, "group": "control_change"}, {"time": 72001, "annotation": {"number": 11, "value": 95}, "group": "control_change"}, {"time": 72021, "annotation": {"number": 11, "value": 96}, "group": "control_change"}, {"time": 72061, "annotation": {"number": 11, "value": 97}, "group": "control_change"}, {"time": 72081, "annotation": {"number": 11, "value": 98}, "group": "control_change"}, {"time": 72101, "annotation": {"number": 11, "value": 99}, "group": "control_change"}, {"time": 72121, "annotation": {"number": 11, "value": 100}, "group": "control_change"}, {"time": 72141, "annotation": {"number": 11, "value": 101}, "group": "control_change"}, {"time": 72161, "annotation": {"number": 11, "value": 102}, "group": "control_change"}, {"time": 72181, "annotation": {"number": 11, "value": 103}, "group": "control_change"}, {"time": 72201, "annotation": {"number": 11, "value": 104}, "group": "control_change"}, {"time": 72241, "annotation": {"number": 11, "value": 105}, "group": "control_change"}, {"time": 72261, "annotation": {"number": 11, "value": 106}, "group": "control_change"}, {"time": 72281, "annotation": {"number": 11, "value": 107}, "group": "control_change"}, {"time": 72301, "annotation": {"number": 11, "value": 108}, "group": "control_change"}, {"time": 72321, "annotation": {"number": 11, "value": 109}, "group": "control_change"}, {"time": 72341, "annotation": {"number": 11, "value": 110}, "group": "control_change"}, {"time": 72361, "annotation": {"number": 11, "value": 111}, "group": "control_change"}, {"time": 72401, "annotation": {"number": 11, "value": 112}, "group": "control_change"}, {"time": 72421, "annotation": {"number": 11, "value": 113}, "group": "control_change"}, {"time": 72441, "annotation": {"number": 11, "value": 114}, "group": "control_change"}, {"time": 72462, "annotation": {"number": 11, "value": 115}, "group": "control_change"}, {"time": 72482, "annotation": {"number": 11, "value": 116}, "group": "control_change"}, {"time": 72502, "annotation": {"number": 11, "value": 117}, "group": "control_change"}, {"time": 72522, "annotation": {"number": 11, "value": 118}, "group": "control_change"}, {"time": 72542, "annotation": {"number": 11, "value": 119}, "group": "control_change"}, {"time": 72582, "annotation": {"number": 11, "value": 120}, "group": "control_change"}, {"time": 72602, "annotation": {"number": 11, "value": 121}, "group": "control_change"}, {"time": 72622, "annotation": {"number": 11, "value": 122}, "group": "control_change"}, {"time": 72642, "annotation": {"number": 11, "value": 123}, "group": "control_change"}, {"time": 72662, "annotation": {"number": 11, "value": 124}, "group": "control_change"}, {"time": 72682, "annotation": {"number": 11, "value": 125}, "group": "control_change"}, {"time": 72702, "annotation": {"number": 11, "value": 126}, "group": "control_change"}, {"time": 72722, "annotation": {"number": 11, "value": 127}, "group": "control_change"}, {"time": 111840, "annotation": {"number": 11, "value": 72}, "group": "control_change"}, {"time": 111862, "annotation": {"number": 11, "value": 73}, "group": "control_change"}, {"time": 111902, "annotation": {"number": 11, "value": 74}, "group": "control_change"}, {"time": 111942, "annotation": {"number": 11, "value": 75}, "group": "control_change"}, {"time": 111982, "annotation": {"number": 11, "value": 76}, "group": "control_change"}, {"time": 112022, "annotation": {"number": 11, "value": 77}, "group": "control_change"}, {"time": 112062, "annotation": {"number": 11, "value": 78}, "group": "control_change"}, {"time": 112082, "annotation": {"number": 11, "value": 79}, "group": "control_change"}, {"time": 112122, "annotation": {"number": 11, "value": 80}, "group": "control_change"}, {"time": 112162, "annotation": {"number": 11, "value": 81}, "group": "control_change"}, {"time": 112202, "annotation": {"number": 11, "value": 82}, "group": "control_change"}, {"time": 112242, "annotation": {"number": 11, "value": 83}, "group": "control_change"}, {"time": 112282, "annotation": {"number": 11, "value": 84}, "group": "control_change"}, {"time": 112302, "annotation": {"number": 11, "value": 85}, "group": "control_change"}, {"time": 112342, "annotation": {"number": 11, "value": 86}, "group": "control_change"}, {"time": 112382, "annotation": {"number": 11, "value": 87}, "group": "control_change"}, {"time": 112422, "annotation": {"number": 11, "value": 88}, "group": "control_change"}, {"time": 112462, "annotation": {"number": 11, "value": 89}, "group": "control_change"}, {"time": 112502, "annotation": {"number": 11, "value": 90}, "group": "control_change"}, {"time": 112522, "annotation": {"number": 11, "value": 91}, "group": "control_change"}, {"time": 112562, "annotation": {"number": 11, "value": 92}, "group": "control_change"}, {"time": 112602, "annotation": {"number": 11, "value": 93}, "group": "control_change"}, {"time": 112642, "annotation": {"number": 11, "value": 94}, "group": "control_change"}, {"time": 112682, "annotation": {"number": 11, "value": 95}, "group": "control_change"}, {"time": 112722, "annotation": {"number": 11, "value": 96}, "group": "control_change"}, {"time": 112742, "annotation": {"number": 11, "value": 97}, "group": "control_change"}, {"time": 112782, "annotation": {"number": 11, "value": 98}, "group": "control_change"}, {"time": 112822, "annotation": {"number": 11, "value": 99}, "group": "control_change"}, {"time": 112862, "annotation": {"number": 11, "value": 100}, "group": "control_change"}, {"time": 112902, "annotation": {"number": 11, "value": 101}, "group": "control_change"}, {"time": 112942, "annotation": {"number": 11, "value": 102}, "group": "control_change"}, {"time": 112963, "annotation": {"number": 11, "value": 103}, "group": "control_change"}, {"time": 113003, "annotation": {"number": 11, "value": 104}, "group": "control_change"}, {"time": 113043, "annotation": {"number": 11, "value": 105}, "group": "control_change"}, {"time": 113083, "annotation": {"number": 11, "value": 106}, "group": "control_change"}, {"time": 113123, "annotation": {"number": 11, "value": 107}, "group": "control_change"}, {"time": 113163, "annotation": {"number": 11, "value": 108}, "group": "control_change"}, {"time": 113183, "annotation": {"number": 11, "value": 109}, "group": "control_change"}, {"time": 113223, "annotation": {"number": 11, "value": 110}, "group": "control_change"}, {"time": 113263, "annotation": {"number": 11, "value": 111}, "group": "control_change"}, {"time": 113303, "annotation": {"number": 11, "value": 112}, "group": "control_change"}, {"time": 113342, "annotation": {"number": 11, "value": 113}, "group": "control_change"}, {"time": 113382, "annotation": {"number": 11, "value": 114}, "group": "control_change"}, {"time": 113401, "annotation": {"number": 11, "value": 115}, "group": "control_change"}, {"time": 113441, "annotation": {"number": 11, "value": 116}, "group": "control_change"}, {"time": 113480, "annotation": {"number": 11, "value": 117}, "group": "control_change"}, {"time": 113520, "annotation": {"number": 11, "value": 118}, "group": "control_change"}, {"time": 113560, "annotation": {"number": 11, "value": 119}, "group": "control_change"}, {"time": 113599, "annotation": {"number": 11, "value": 120}, "group": "control_change"}, {"time": 113619, "annotation": {"number": 11, "value": 121}, "group": "control_change"}, {"time": 113658, "annotation": {"number": 11, "value": 122}, "group": "control_change"}, {"time": 113698, "annotation": {"number": 11, "value": 123}, "group": "control_change"}, {"time": 113738, "annotation": {"number": 11, "value": 124}, "group": "control_change"}, {"time": 113777, "annotation": {"number": 11, "value": 125}, "group": "control_change"}, {"time": 113817, "annotation": {"number": 11, "value": 126}, "group": "control_change"}, {"time": 113837, "annotation": {"number": 11, "value": 127}, "group": "control_change"}, {"time": 115671, "annotation": {"number": 11, "value": 75}, "group": "control_change"}, {"time": 115679, "annotation": {"number": 11, "value": 76}, "group": "control_change"}, {"time": 115699, "annotation": {"number": 11, "value": 77}, "group": "control_change"}, {"time": 115719, "annotation": {"number": 11, "value": 78}, "group": "control_change"}, {"time": 115739, "annotation": {"number": 11, "value": 79}, "group": "control_change"}, {"time": 115779, "annotation": {"number": 11, "value": 80}, "group": "control_change"}, {"time": 115799, "annotation": {"number": 11, "value": 81}, "group": "control_change"}, {"time": 115819, "annotation": {"number": 11, "value": 82}, "group": "control_change"}, {"time": 115839, "annotation": {"number": 11, "value": 83}, "group": "control_change"}, {"time": 115859, "annotation": {"number": 11, "value": 84}, "group": "control_change"}, {"time": 115899, "annotation": {"number": 11, "value": 85}, "group": "control_change"}, {"time": 115919, "annotation": {"number": 11, "value": 86}, "group": "control_change"}, {"time": 115939, "annotation": {"number": 11, "value": 87}, "group": "control_change"}, {"time": 115959, "annotation": {"number": 11, "value": 88}, "group": "control_change"}, {"time": 115979, "annotation": {"number": 11, "value": 89}, "group": "control_change"}, {"time": 116019, "annotation": {"number": 11, "value": 90}, "group": "control_change"}, {"time": 116039, "annotation": {"number": 11, "value": 91}, "group": "control_change"}, {"time": 116059, "annotation": {"number": 11, "value": 92}, "group": "control_change"}, {"time": 116079, "annotation": {"number": 11, "value": 93}, "group": "control_change"}, {"time": 116119, "annotation": {"number": 11, "value": 94}, "group": "control_change"}, {"time": 116139, "annotation": {"number": 11, "value": 95}, "group": "control_change"}, {"time": 116159, "annotation": {"number": 11, "value": 96}, "group": "control_change"}, {"time": 116179, "annotation": {"number": 11, "value": 97}, "group": "control_change"}, {"time": 116199, "annotation": {"number": 11, "value": 98}, "group": "control_change"}, {"time": 116240, "annotation": {"number": 11, "value": 99}, "group": "control_change"}, {"time": 116260, "annotation": {"number": 11, "value": 100}, "group": "control_change"}, {"time": 116280, "annotation": {"number": 11, "value": 101}, "group": "control_change"}, {"time": 116300, "annotation": {"number": 11, "value": 102}, "group": "control_change"}, {"time": 116320, "annotation": {"number": 11, "value": 103}, "group": "control_change"}, {"time": 116360, "annotation": {"number": 11, "value": 104}, "group": "control_change"}, {"time": 116380, "annotation": {"number": 11, "value": 105}, "group": "control_change"}, {"time": 116400, "annotation": {"number": 11, "value": 106}, "group": "control_change"}, {"time": 116420, "annotation": {"number": 11, "value": 107}, "group": "control_change"}, {"time": 116440, "annotation": {"number": 11, "value": 108}, "group": "control_change"}, {"time": 116480, "annotation": {"number": 11, "value": 109}, "group": "control_change"}, {"time": 116500, "annotation": {"number": 11, "value": 110}, "group": "control_change"}, {"time": 116520, "annotation": {"number": 11, "value": 111}, "group": "control_change"}, {"time": 116540, "annotation": {"number": 11, "value": 112}, "group": "control_change"}, {"time": 116580, "annotation": {"number": 11, "value": 113}, "group": "control_change"}, {"time": 116600, "annotation": {"number": 11, "value": 114}, "group": "control_change"}, {"time": 116620, "annotation": {"number": 11, "value": 115}, "group": "control_change"}, {"time": 116640, "annotation": {"number": 11, "value": 116}, "group": "control_change"}, {"time": 116660, "annotation": {"number": 11, "value": 117}, "group": "control_change"}, {"time": 116700, "annotation": {"number": 11, "value": 118}, "group": "control_change"}, {"time": 116720, "annotation": {"number": 11, "value": 119}, "group": "control_change"}, {"time": 116740, "annotation": {"number": 11, "value": 120}, "group": "control_change"}, {"time": 116760, "annotation": {"number": 11, "value": 121}, "group": "control_change"}, {"time": 116780, "annotation": {"number": 11, "value": 122}, "group": "control_change"}, {"time": 116820, "annotation": {"number": 11, "value": 123}, "group": "control_change"}, {"time": 116840, "annotation": {"number": 11, "value": 124}, "group": "control_change"}, {"time": 116860, "annotation": {"number": 11, "value": 125}, "group": "control_change"}, {"time": 116880, "annotation": {"number": 11, "value": 126}, "group": "control_change"}, {"time": 116900, "annotation": {"number": 11, "value": 127}, "group": "control_change"}, {"time": 130548, "annotation": {"number": 11, "value": 127}, "group": "control_change"}, {"time": 137572, "annotation": {"number": 11, "value": 127}, "group": "control_change"}, {"time": 141047, "annotation": {"number": 11, "value": 123}, "group": "control_change"}, {"time": 141056, "annotation": {"number": 11, "value": 121}, "group": "control_change"}, {"time": 141065, "annotation": {"number": 11, "value": 119}, "group": "control_change"}, {"time": 141075, "annotation": {"number": 11, "value": 117}, "group": "control_change"}, {"time": 141084, "annotation": {"number": 11, "value": 115}, "group": "control_change"}, {"time": 141094, "annotation": {"number": 11, "value": 113}, "group": "control_change"}, {"time": 141103, "annotation": {"number": 11, "value": 110}, "group": "control_change"}, {"time": 141112, "annotation": {"number": 11, "value": 108}, "group": "control_change"}, {"time": 141125, "annotation": {"number": 11, "value": 106}, "group": "control_change"}, {"time": 141148, "annotation": {"number": 11, "value": 104}, "group": "control_change"}, {"time": 141171, "annotation": {"number": 11, "value": 102}, "group": "control_change"}, {"time": 141195, "annotation": {"number": 11, "value": 100}, "group": "control_change"}, {"time": 141218, "annotation": {"number": 11, "value": 97}, "group": "control_change"}, {"time": 141241, "annotation": {"number": 11, "value": 95}, "group": "control_change"}, {"time": 141264, "annotation": {"number": 11, "value": 93}, "group": "control_change"}, {"time": 141288, "annotation": {"number": 11, "value": 91}, "group": "control_change"}, {"time": 141311, "annotation": {"number": 11, "value": 89}, "group": "control_change"}, {"time": 141334, "annotation": {"number": 11, "value": 86}, "group": "control_change"}, {"time": 141357, "annotation": {"number": 11, "value": 84}, "group": "control_change"}, {"time": 141381, "annotation": {"number": 11, "value": 82}, "group": "control_change"}, {"time": 141404, "annotation": {"number": 11, "value": 80}, "group": "control_change"}, {"time": 141427, "annotation": {"number": 11, "value": 78}, "group": "control_change"}, {"time": 141450, "annotation": {"number": 11, "value": 76}, "group": "control_change"}, {"time": 141474, "annotation": {"number": 11, "value": 73}, "group": "control_change"}, {"time": 141497, "annotation": {"number": 11, "value": 71}, "group": "control_change"}, {"time": 141520, "annotation": {"number": 11, "value": 69}, "group": "control_change"}, {"time": 141543, "annotation": {"number": 11, "value": 67}, "group": "control_change"}, {"time": 141567, "annotation": {"number": 11, "value": 65}, "group": "control_change"}, {"time": 141590, "annotation": {"number": 11, "value": 63}, "group": "control_change"}, {"time": 141613, "annotation": {"number": 11, "value": 60}, "group": "control_change"}, {"time": 141636, "annotation": {"number": 11, "value": 58}, "group": "control_change"}, {"time": 141660, "annotation": {"number": 11, "value": 56}, "group": "control_change"}, {"time": 141683, "annotation": {"number": 11, "value": 54}, "group": "control_change"}, {"time": 141706, "annotation": {"number": 11, "value": 52}, "group": "control_change"}, {"time": 141729, "annotation": {"number": 11, "value": 49}, "group": "control_change"}, {"time": 141753, "annotation": {"number": 11, "value": 47}, "group": "control_change"}, {"time": 141776, "annotation": {"number": 11, "value": 45}, "group": "control_change"}, {"time": 141799, "annotation": {"number": 11, "value": 43}, "group": "control_change"}, {"time": 141822, "annotation": {"number": 11, "value": 41}, "group": "control_change"}, {"time": 141846, "annotation": {"number": 11, "value": 39}, "group": "control_change"}, {"time": 141869, "annotation": {"number": 11, "value": 36}, "group": "control_change"}, {"time": 141892, "annotation": {"number": 11, "value": 34}, "group": "control_change"}, {"time": 141915, "annotation": {"number": 11, "value": 32}, "group": "control_change"}, {"time": 141939, "annotation": {"number": 11, "value": 30}, "group": "control_change"}, {"time": 141962, "annotation": {"number": 11, "value": 28}, "group": "control_change"}, {"time": 141985, "annotation": {"number": 11, "value": 26}, "group": "control_change"}, {"time": 142008, "annotation": {"number": 11, "value": 23}, "group": "control_change"}, {"time": 142032, "annotation": {"number": 11, "value": 21}, "group": "control_change"}, {"time": 142055, "annotation": {"number": 11, "value": 19}, "group": "control_change"}, {"time": 142078, "annotation": {"number": 11, "value": 17}, "group": "control_change"}, {"time": 142101, "annotation": {"number": 11, "value": 15}, "group": "control_change"}, {"time": 142125, "annotation": {"number": 11, "value": 12}, "group": "control_change"}]}, {"program": 0, "is_drum": false, "name": "flute", "annotations": [{"time": 346, "annotation": {"number": 0, "value": 0}, "group": "control_change"}, {"time": 365, "annotation": {"number": 32, "value": 0}, "group": "control_change"}]}, {"program": 74, "is_drum": false, "name": "flute", "notes": [{"time": 4319, "pitch": 69, "duration": 233, "velocity": 82}, {"time": 4319, "pitch": 72, "duration": 197, "velocity": 80}, {"time": 4559, "pitch": 65, "duration": 224, "velocity": 82}, {"time": 4800, "pitch": 69, "duration": 230, "velocity": 74}, {"time": 4800, "pitch": 72, "duration": 184, "velocity": 68}, {"time": 5040, "pitch": 65, "duration": 255, "velocity": 79}, {"time": 5280, "pitch": 67, "duration": 269, "velocity": 70}, {"time": 5280, "pitch": 72, "duration": 225, "velocity": 76}, {"time": 5520, "pitch": 64, "duration": 246, "velocity": 76}, {"time": 5761, "pitch": 67, "duration": 288, "velocity": 72}, {"time": 5761, "pitch": 72, "duration": 243, "velocity": 76}, {"time": 6001, "pitch": 64, "duration": 139, "velocity": 80}, {"time": 6241, "pitch": 69, "duration": 251, "velocity": 96}, {"time": 6241, "pitch": 72, "duration": 227, "velocity": 67}, {"time": 6482, "pitch": 65, "duration": 282, "velocity": 79}, {"time": 6722, "pitch": 69, "duration": 262, "velocity": 102}, {"time": 6722, "pitch": 72, "duration": 255, "velocity": 79}, {"time": 6963, "pitch": 65, "duration": 275, "velocity": 75}, {"time": 7203, "pitch": 69, "duration": 265, "velocity": 88}, {"time": 7203, "pitch": 74, "duration": 244, "velocity": 66}, {"time": 7443, "pitch": 65, "duration": 268, "velocity": 87}, {"time": 7683, "pitch": 69, "duration": 275, "velocity": 95}, {"time": 7683, "pitch": 74, "duration": 267, "velocity": 79}, {"time": 7924, "pitch": 65, "duration": 285, "velocity": 78}, {"time": 8164, "pitch": 67, "duration": 250, "velocity": 86}, {"time": 8164, "pitch": 72, "duration": 244, "velocity": 67}, {"time": 8401, "pitch": 64, "duration": 274, "velocity": 69}, {"time": 8638, "pitch": 67, "duration": 274, "velocity": 83}, {"time": 8638, "pitch": 72, "duration": 280, "velocity": 69}, {"time": 8878, "pitch": 64, "duration": 287, "velocity": 74}, {"time": 9119, "pitch": 69, "duration": 249, "velocity": 82}, {"time": 9119, "pitch": 74, "duration": 231, "velocity": 72}, {"time": 9359, "pitch": 65, "duration": 274, "velocity": 75}, {"time": 9599, "pitch": 69, "duration": 270, "velocity": 82}, {"time": 9599, "pitch": 74, "duration": 273, "velocity": 68}, {"time": 9839, "pitch": 65, "duration": 302, "velocity": 75}, {"time": 35038, "pitch": 72, "duration": 218, "velocity": 75}, {"time": 35038, "pitch": 76, "duration": 208, "velocity": 70}, {"time": 35279, "pitch": 67, "duration": 275, "velocity": 72}, {"time": 35519, "pitch": 72, "duration": 268, "velocity": 82}, {"time": 35519, "pitch": 76, "duration": 250, "velocity": 75}, {"time": 35759, "pitch": 67, "duration": 293, "velocity": 79}, {"time": 35999, "pitch": 71, "duration": 254, "velocity": 66}, {"time": 35999, "pitch": 74, "duration": 226, "velocity": 64}, {"time": 36239, "pitch": 68, "duration": 271, "velocity": 69}, {"time": 36480, "pitch": 71, "duration": 249, "velocity": 68}, {"time": 36480, "pitch": 74, "duration": 235, "velocity": 60}, {"time": 36720, "pitch": 68, "duration": 261, "velocity": 62}, {"time": 36960, "pitch": 72, "duration": 277, "velocity": 63}, {"time": 36960, "pitch": 76, "duration": 254, "velocity": 65}, {"time": 37200, "pitch": 69, "duration": 271, "velocity": 73}, {"time": 37441, "pitch": 72, "duration": 260, "velocity": 70}, {"time": 37441, "pitch": 76, "duration": 228, "velocity": 67}, {"time": 37681, "pitch": 69, "duration": 277, "velocity": 73}, {"time": 37921, "pitch": 72, "duration": 258, "velocity": 77}, {"time": 37921, "pitch": 76, "duration": 238, "velocity": 70}, {"time": 38161, "pitch": 69, "duration": 274, "velocity": 65}, {"time": 38401, "pitch": 72, "duration": 276, "velocity": 68}, {"time": 38401, "pitch": 76, "duration": 253, "velocity": 64}, {"time": 38642, "pitch": 69, "duration": 279, "velocity": 75}, {"time": 38882, "pitch": 72, "duration": 278, "velocity": 83}, {"time": 38882, "pitch": 76, "duration": 247, "velocity": 63}, {"time": 39122, "pitch": 67, "duration": 274, "velocity": 75}, {"time": 39362, "pitch": 72, "duration": 278, "velocity": 79}, {"time": 39362, "pitch": 76, "duration": 271, "velocity": 69}, {"time": 39602, "pitch": 67, "duration": 304, "velocity": 80}, {"time": 39843, "pitch": 71, "duration": 240, "velocity": 74}, {"time": 39843, "pitch": 74, "duration": 202, "velocity": 61}, {"time": 40083, "pitch": 68, "duration": 265, "velocity": 68}, {"time": 40323, "pitch": 71, "duration": 228, "velocity": 71}, {"time": 40323, "pitch": 74, "duration": 236, "velocity": 66}, {"time": 40563, "pitch": 68, "duration": 269, "velocity": 61}, {"time": 40804, "pitch": 72, "duration": 272, "velocity": 64}, {"time": 40804, "pitch": 76, "duration": 254, "velocity": 64}, {"time": 41041, "pitch": 69, "duration": 247, "velocity": 69}, {"time": 41278, "pitch": 72, "duration": 271, "velocity": 65}, {"time": 41278, "pitch": 76, "duration": 232, "velocity": 64}, {"time": 41518, "pitch": 69, "duration": 279, "velocity": 75}, {"time": 41759, "pitch": 72, "duration": 266, "velocity": 69}, {"time": 41759, "pitch": 76, "duration": 239, "velocity": 66}, {"time": 41999, "pitch": 69, "duration": 283, "velocity": 73}, {"time": 42239, "pitch": 72, "duration": 269, "velocity": 71}, {"time": 42239, "pitch": 76, "duration": 257, "velocity": 66}, {"time": 42479, "pitch": 69, "duration": 231, "velocity": 71}, {"time": 42719, "pitch": 69, "duration": 260, "velocity": 75}, {"time": 42719, "pitch": 72, "duration": 248, "velocity": 61}, {"time": 42960, "pitch": 65, "duration": 230, "velocity": 64}, {"time": 43200, "pitch": 69, "duration": 267, "velocity": 72}, {"time": 43200, "pitch": 72, "duration": 242, "velocity": 66}, {"time": 43440, "pitch": 65, "duration": 277, "velocity": 78}, {"time": 43680, "pitch": 67, "duration": 261, "velocity": 81}, {"time": 43680, "pitch": 72, "duration": 226, "velocity": 62}, {"time": 43920, "pitch": 64, "duration": 248, "velocity": 67}, {"time": 44161, "pitch": 67, "duration": 261, "velocity": 72}, {"time": 44161, "pitch": 72, "duration": 251, "velocity": 63}, {"time": 44401, "pitch": 64, "duration": 264, "velocity": 67}, {"time": 44641, "pitch": 69, "duration": 267, "velocity": 72}, {"time": 44641, "pitch": 72, "duration": 223, "velocity": 66}, {"time": 44881, "pitch": 65, "duration": 280, "velocity": 74}, {"time": 45122, "pitch": 69, "duration": 268, "velocity": 77}, {"time": 45122, "pitch": 72, "duration": 237, "velocity": 65}, {"time": 45362, "pitch": 65, "duration": 246, "velocity": 78}, {"time": 45602, "pitch": 67, "duration": 290, "velocity": 82}, {"time": 45602, "pitch": 72, "duration": 264, "velocity": 55}, {"time": 45842, "pitch": 64, "duration": 271, "velocity": 78}, {"time": 46082, "pitch": 67, "duration": 260, "velocity": 82}, {"time": 46082, "pitch": 72, "duration": 242, "velocity": 65}, {"time": 46323, "pitch": 64, "duration": 267, "velocity": 73}, {"time": 46563, "pitch": 69, "duration": 257, "velocity": 81}, {"time": 46563, "pitch": 72, "duration": 220, "velocity": 67}, {"time": 46803, "pitch": 65, "duration": 280, "velocity": 71}, {"time": 47043, "pitch": 69, "duration": 249, "velocity": 79}, {"time": 47043, "pitch": 72, "duration": 235, "velocity": 60}, {"time": 47283, "pitch": 65, "duration": 296, "velocity": 68}, {"time": 47524, "pitch": 71, "duration": 160, "velocity": 84}, {"time": 47524, "pitch": 74, "duration": 149, "velocity": 68}, {"time": 48479, "pitch": 72, "duration": 252, "velocity": 71}, {"time": 48479, "pitch": 76, "duration": 247, "velocity": 67}, {"time": 48719, "pitch": 67, "duration": 222, "velocity": 61}, {"time": 48959, "pitch": 72, "duration": 259, "velocity": 81}, {"time": 48959, "pitch": 76, "duration": 248, "velocity": 66}, {"time": 49199, "pitch": 67, "duration": 262, "velocity": 63}, {"time": 49440, "pitch": 71, "duration": 273, "velocity": 77}, {"time": 49440, "pitch": 74, "duration": 252, "velocity": 72}, {"time": 49680, "pitch": 67, "duration": 260, "velocity": 77}, {"time": 49920, "pitch": 71, "duration": 247, "velocity": 85}, {"time": 49920, "pitch": 74, "duration": 233, "velocity": 71}, {"time": 50160, "pitch": 67, "duration": 273, "velocity": 80}, {"time": 50400, "pitch": 72, "duration": 256, "velocity": 77}, {"time": 50400, "pitch": 76, "duration": 226, "velocity": 61}, {"time": 50641, "pitch": 69, "duration": 258, "velocity": 80}, {"time": 50881, "pitch": 72, "duration": 261, "velocity": 81}, {"time": 50881, "pitch": 76, "duration": 242, "velocity": 70}, {"time": 51121, "pitch": 69, "duration": 260, "velocity": 80}, {"time": 51361, "pitch": 71, "duration": 262, "velocity": 93}, {"time": 51361, "pitch": 74, "duration": 259, "velocity": 84}, {"time": 51601, "pitch": 67, "duration": 250, "velocity": 72}, {"time": 51842, "pitch": 71, "duration": 262, "velocity": 85}, {"time": 51842, "pitch": 74, "duration": 243, "velocity": 78}, {"time": 52082, "pitch": 67, "duration": 275, "velocity": 82}, {"time": 52322, "pitch": 69, "duration": 255, "velocity": 93}, {"time": 52322, "pitch": 72, "duration": 238, "velocity": 85}, {"time": 52562, "pitch": 65, "duration": 252, "velocity": 82}, {"time": 52803, "pitch": 69, "duration": 262, "velocity": 90}, {"time": 52803, "pitch": 72, "duration": 250, "velocity": 79}, {"time": 53043, "pitch": 65, "duration": 264, "velocity": 82}, {"time": 53283, "pitch": 67, "duration": 269, "velocity": 92}, {"time": 53283, "pitch": 72, "duration": 252, "velocity": 67}, {"time": 53523, "pitch": 64, "duration": 252, "velocity": 83}, {"time": 53763, "pitch": 67, "duration": 253, "velocity": 88}, {"time": 53763, "pitch": 72, "duration": 241, "velocity": 71}, {"time": 54004, "pitch": 64, "duration": 266, "velocity": 82}, {"time": 54244, "pitch": 69, "duration": 245, "velocity": 88}, {"time": 54244, "pitch": 72, "duration": 230, "velocity": 73}, {"time": 54481, "pitch": 65, "duration": 262, "velocity": 83}, {"time": 54718, "pitch": 69, "duration": 280, "velocity": 90}, {"time": 54718, "pitch": 72, "duration": 266, "velocity": 73}, {"time": 54959, "pitch": 65, "duration": 295, "velocity": 81}, {"time": 55199, "pitch": 69, "duration": 244, "velocity": 81}, {"time": 55199, "pitch": 74, "duration": 219, "velocity": 76}, {"time": 55439, "pitch": 65, "duration": 283, "velocity": 75}, {"time": 55679, "pitch": 69, "duration": 258, "velocity": 95}, {"time": 55679, "pitch": 74, "duration": 249, "velocity": 81}, {"time": 55919, "pitch": 65, "duration": 268, "velocity": 85}, {"time": 56160, "pitch": 67, "duration": 254, "velocity": 82}, {"time": 56160, "pitch": 72, "duration": 241, "velocity": 56}, {"time": 56400, "pitch": 64, "duration": 229, "velocity": 72}, {"time": 56640, "pitch": 67, "duration": 257, "velocity": 76}, {"time": 56640, "pitch": 72, "duration": 254, "velocity": 67}, {"time": 56880, "pitch": 64, "duration": 273, "velocity": 81}, {"time": 57121, "pitch": 69, "duration": 280, "velocity": 85}, {"time": 57121, "pitch": 74, "duration": 238, "velocity": 57}, {"time": 57361, "pitch": 65, "duration": 246, "velocity": 75}, {"time": 57601, "pitch": 69, "duration": 246, "velocity": 86}, {"time": 57601, "pitch": 74, "duration": 231, "velocity": 85}, {"time": 57841, "pitch": 65, "duration": 236, "velocity": 75}, {"time": 73443, "pitch": 67, "duration": 245, "velocity": 75}, {"time": 73443, "pitch": 71, "duration": 231, "velocity": 71}, {"time": 73684, "pitch": 64, "duration": 213, "velocity": 67}, {"time": 73924, "pitch": 67, "duration": 249, "velocity": 75}, {"time": 73924, "pitch": 71, "duration": 234, "velocity": 64}, {"time": 74161, "pitch": 64, "duration": 245, "velocity": 74}, {"time": 74398, "pitch": 71, "duration": 245, "velocity": 60}, {"time": 74398, "pitch": 74, "duration": 240, "velocity": 69}, {"time": 74639, "pitch": 64, "duration": 244, "velocity": 67}, {"time": 74879, "pitch": 71, "duration": 249, "velocity": 61}, {"time": 74879, "pitch": 74, "duration": 249, "velocity": 68}, {"time": 75119, "pitch": 64, "duration": 285, "velocity": 72}, {"time": 75359, "pitch": 69, "duration": 251, "velocity": 63}, {"time": 75359, "pitch": 74, "duration": 238, "velocity": 57}, {"time": 75599, "pitch": 65, "duration": 263, "velocity": 56}, {"time": 75840, "pitch": 69, "duration": 255, "velocity": 71}, {"time": 75840, "pitch": 74, "duration": 244, "velocity": 64}, {"time": 76080, "pitch": 65, "duration": 292, "velocity": 67}, {"time": 76320, "pitch": 69, "duration": 256, "velocity": 67}, {"time": 76320, "pitch": 72, "duration": 228, "velocity": 64}, {"time": 76560, "pitch": 64, "duration": 257, "velocity": 68}, {"time": 76800, "pitch": 69, "duration": 256, "velocity": 70}, {"time": 76800, "pitch": 72, "duration": 246, "velocity": 64}, {"time": 77041, "pitch": 64, "duration": 276, "velocity": 67}, {"time": 77281, "pitch": 67, "duration": 250, "velocity": 68}, {"time": 77281, "pitch": 71, "duration": 225, "velocity": 56}, {"time": 77521, "pitch": 64, "duration": 286, "velocity": 68}, {"time": 77761, "pitch": 67, "duration": 242, "velocity": 58}, {"time": 77761, "pitch": 71, "duration": 239, "velocity": 67}, {"time": 78002, "pitch": 64, "duration": 268, "velocity": 67}, {"time": 78242, "pitch": 71, "duration": 230, "velocity": 69}, {"time": 78242, "pitch": 74, "duration": 253, "velocity": 70}, {"time": 78482, "pitch": 64, "duration": 270, "velocity": 66}, {"time": 78722, "pitch": 71, "duration": 255, "velocity": 69}, {"time": 78722, "pitch": 74, "duration": 255, "velocity": 72}, {"time": 78962, "pitch": 64, "duration": 288, "velocity": 69}, {"time": 79203, "pitch": 69, "duration": 265, "velocity": 73}, {"time": 79203, "pitch": 72, "duration": 233, "velocity": 67}, {"time": 79443, "pitch": 65, "duration": 253, "velocity": 70}, {"time": 79683, "pitch": 69, "duration": 249, "velocity": 68}, {"time": 79683, "pitch": 72, "duration": 235, "velocity": 67}, {"time": 79923, "pitch": 65, "duration": 321, "velocity": 77}, {"time": 80163, "pitch": 71, "duration": 254, "velocity": 69}, {"time": 80163, "pitch": 74, "duration": 224, "velocity": 58}, {"time": 80401, "pitch": 67, "duration": 278, "velocity": 66}, {"time": 80638, "pitch": 71, "duration": 231, "velocity": 78}, {"time": 80638, "pitch": 74, "duration": 214, "velocity": 64}, {"time": 80878, "pitch": 67, "duration": 270, "velocity": 70}, {"time": 81118, "pitch": 69, "duration": 271, "velocity": 79}, {"time": 81118, "pitch": 72, "duration": 248, "velocity": 70}, {"time": 81359, "pitch": 65, "duration": 263, "velocity": 78}, {"time": 81599, "pitch": 69, "duration": 251, "velocity": 82}, {"time": 81599, "pitch": 72, "duration": 243, "velocity": 73}, {"time": 81839, "pitch": 65, "duration": 291, "velocity": 78}, {"time": 82079, "pitch": 71, "duration": 268, "velocity": 74}, {"time": 82079, "pitch": 74, "duration": 246, "velocity": 59}, {"time": 83040, "pitch": 72, "duration": 217, "velocity": 75}, {"time": 83040, "pitch": 76, "duration": 207, "velocity": 70}, {"time": 83280, "pitch": 67, "duration": 276, "velocity": 72}, {"time": 83521, "pitch": 72, "duration": 268, "velocity": 82}, {"time": 83521, "pitch": 76, "duration": 250, "velocity": 75}, {"time": 83761, "pitch": 67, "duration": 293, "velocity": 79}, {"time": 84001, "pitch": 71, "duration": 254, "velocity": 66}, {"time": 84001, "pitch": 74, "duration": 226, "velocity": 64}, {"time": 84241, "pitch": 68, "duration": 271, "velocity": 69}, {"time": 84482, "pitch": 71, "duration": 249, "velocity": 68}, {"time": 84482, "pitch": 74, "duration": 235, "velocity": 60}, {"time": 84722, "pitch": 68, "duration": 261, "velocity": 62}, {"time": 84962, "pitch": 72, "duration": 277, "velocity": 63}, {"time": 84962, "pitch": 76, "duration": 254, "velocity": 65}, {"time": 85202, "pitch": 69, "duration": 270, "velocity": 73}, {"time": 85442, "pitch": 72, "duration": 261, "velocity": 70}, {"time": 85442, "pitch": 76, "duration": 229, "velocity": 67}, {"time": 85683, "pitch": 69, "duration": 277, "velocity": 73}, {"time": 85923, "pitch": 72, "duration": 258, "velocity": 77}, {"time": 85923, "pitch": 76, "duration": 238, "velocity": 70}, {"time": 86163, "pitch": 69, "duration": 274, "velocity": 65}, {"time": 86403, "pitch": 72, "duration": 275, "velocity": 68}, {"time": 86403, "pitch": 76, "duration": 252, "velocity": 64}, {"time": 86643, "pitch": 69, "duration": 279, "velocity": 75}, {"time": 86884, "pitch": 72, "duration": 274, "velocity": 83}, {"time": 86884, "pitch": 76, "duration": 244, "velocity": 63}, {"time": 87121, "pitch": 67, "duration": 271, "velocity": 75}, {"time": 87358, "pitch": 72, "duration": 277, "velocity": 79}, {"time": 87358, "pitch": 76, "duration": 270, "velocity": 69}, {"time": 87598, "pitch": 67, "duration": 304, "velocity": 80}, {"time": 87839, "pitch": 71, "duration": 240, "velocity": 74}, {"time": 87839, "pitch": 74, "duration": 202, "velocity": 61}, {"time": 88079, "pitch": 68, "duration": 265, "velocity": 68}, {"time": 88319, "pitch": 71, "duration": 228, "velocity": 71}, {"time": 88319, "pitch": 74, "duration": 236, "velocity": 66}, {"time": 88559, "pitch": 68, "duration": 270, "velocity": 61}, {"time": 88799, "pitch": 72, "duration": 277, "velocity": 64}, {"time": 88799, "pitch": 76, "duration": 258, "velocity": 64}, {"time": 89040, "pitch": 69, "duration": 250, "velocity": 69}, {"time": 89280, "pitch": 72, "duration": 271, "velocity": 65}, {"time": 89280, "pitch": 76, "duration": 232, "velocity": 64}, {"time": 89520, "pitch": 69, "duration": 278, "velocity": 75}, {"time": 89760, "pitch": 72, "duration": 267, "velocity": 69}, {"time": 89760, "pitch": 76, "duration": 240, "velocity": 66}, {"time": 90001, "pitch": 69, "duration": 283, "velocity": 73}, {"time": 90241, "pitch": 72, "duration": 269, "velocity": 71}, {"time": 90241, "pitch": 76, "duration": 257, "velocity": 66}, {"time": 90481, "pitch": 69, "duration": 231, "velocity": 71}, {"time": 90721, "pitch": 69, "duration": 259, "velocity": 75}, {"time": 90721, "pitch": 72, "duration": 247, "velocity": 61}, {"time": 90961, "pitch": 65, "duration": 231, "velocity": 64}, {"time": 91202, "pitch": 69, "duration": 267, "velocity": 72}, {"time": 91202, "pitch": 72, "duration": 242, "velocity": 66}, {"time": 91442, "pitch": 65, "duration": 277, "velocity": 78}, {"time": 91682, "pitch": 67, "duration": 261, "velocity": 81}, {"time": 91682, "pitch": 72, "duration": 226, "velocity": 62}, {"time": 91922, "pitch": 64, "duration": 248, "velocity": 67}, {"time": 92163, "pitch": 67, "duration": 261, "velocity": 72}, {"time": 92163, "pitch": 72, "duration": 251, "velocity": 63}, {"time": 92403, "pitch": 64, "duration": 264, "velocity": 67}, {"time": 92643, "pitch": 69, "duration": 267, "velocity": 72}, {"time": 92643, "pitch": 72, "duration": 223, "velocity": 66}, {"time": 92883, "pitch": 65, "duration": 279, "velocity": 74}, {"time": 93123, "pitch": 69, "duration": 269, "velocity": 77}, {"time": 93123, "pitch": 72, "duration": 238, "velocity": 65}, {"time": 93364, "pitch": 65, "duration": 246, "velocity": 78}, {"time": 93604, "pitch": 67, "duration": 286, "velocity": 82}, {"time": 93604, "pitch": 72, "duration": 261, "velocity": 55}, {"time": 93841, "pitch": 64, "duration": 268, "velocity": 78}, {"time": 94078, "pitch": 67, "duration": 260, "velocity": 82}, {"time": 94078, "pitch": 72, "duration": 242, "velocity": 65}, {"time": 94319, "pitch": 64, "duration": 267, "velocity": 73}, {"time": 94559, "pitch": 69, "duration": 257, "velocity": 81}, {"time": 94559, "pitch": 72, "duration": 220, "velocity": 67}, {"time": 94799, "pitch": 65, "duration": 280, "velocity": 71}, {"time": 95039, "pitch": 69, "duration": 249, "velocity": 79}, {"time": 95039, "pitch": 72, "duration": 235, "velocity": 60}, {"time": 95279, "pitch": 65, "duration": 297, "velocity": 68}, {"time": 95520, "pitch": 71, "duration": 162, "velocity": 84}, {"time": 95520, "pitch": 74, "duration": 151, "velocity": 68}, {"time": 111842, "pitch": 72, "duration": 218, "velocity": 75}, {"time": 111842, "pitch": 76, "duration": 208, "velocity": 70}, {"time": 112083, "pitch": 67, "duration": 275, "velocity": 72}, {"time": 112323, "pitch": 72, "duration": 268, "velocity": 82}, {"time": 112323, "pitch": 76, "duration": 250, "velocity": 75}, {"time": 112563, "pitch": 67, "duration": 293, "velocity": 79}, {"time": 112803, "pitch": 71, "duration": 255, "velocity": 66}, {"time": 112803, "pitch": 74, "duration": 227, "velocity": 64}, {"time": 113044, "pitch": 68, "duration": 269, "velocity": 69}, {"time": 113284, "pitch": 71, "duration": 246, "velocity": 68}, {"time": 113284, "pitch": 74, "duration": 232, "velocity": 60}, {"time": 113521, "pitch": 68, "duration": 258, "velocity": 62}, {"time": 113758, "pitch": 72, "duration": 278, "velocity": 63}, {"time": 113758, "pitch": 76, "duration": 255, "velocity": 65}, {"time": 113999, "pitch": 69, "duration": 270, "velocity": 73}, {"time": 114239, "pitch": 72, "duration": 260, "velocity": 70}, {"time": 114239, "pitch": 76, "duration": 228, "velocity": 67}, {"time": 114479, "pitch": 69, "duration": 277, "velocity": 73}, {"time": 114719, "pitch": 72, "duration": 258, "velocity": 77}, {"time": 114719, "pitch": 76, "duration": 238, "velocity": 70}, {"time": 114959, "pitch": 69, "duration": 275, "velocity": 65}, {"time": 115200, "pitch": 72, "duration": 275, "velocity": 68}, {"time": 115200, "pitch": 76, "duration": 252, "velocity": 64}, {"time": 115440, "pitch": 69, "duration": 279, "velocity": 75}, {"time": 115680, "pitch": 72, "duration": 278, "velocity": 83}, {"time": 115680, "pitch": 76, "duration": 247, "velocity": 63}, {"time": 115920, "pitch": 67, "duration": 274, "velocity": 75}, {"time": 116160, "pitch": 72, "duration": 278, "velocity": 79}, {"time": 116160, "pitch": 76, "duration": 271, "velocity": 69}, {"time": 116401, "pitch": 67, "duration": 303, "velocity": 80}, {"time": 116641, "pitch": 71, "duration": 240, "velocity": 74}, {"time": 116641, "pitch": 74, "duration": 202, "velocity": 61}, {"time": 116881, "pitch": 68, "duration": 265, "velocity": 68}, {"time": 117121, "pitch": 71, "duration": 229, "velocity": 71}, {"time": 117121, "pitch": 74, "duration": 237, "velocity": 66}, {"time": 117362, "pitch": 68, "duration": 269, "velocity": 61}, {"time": 117602, "pitch": 72, "duration": 276, "velocity": 64}, {"time": 117602, "pitch": 76, "duration": 257, "velocity": 64}, {"time": 117842, "pitch": 69, "duration": 250, "velocity": 69}, {"time": 118082, "pitch": 72, "duration": 271, "velocity": 65}, {"time": 118082, "pitch": 76, "duration": 232, "velocity": 64}, {"time": 118322, "pitch": 69, "duration": 279, "velocity": 75}, {"time": 118563, "pitch": 72, "duration": 266, "velocity": 69}, {"time": 118563, "pitch": 76, "duration": 239, "velocity": 66}, {"time": 118803, "pitch": 69, "duration": 283, "velocity": 73}, {"time": 119043, "pitch": 72, "duration": 269, "velocity": 71}, {"time": 119043, "pitch": 76, "duration": 257, "velocity": 66}, {"time": 119283, "pitch": 69, "duration": 231, "velocity": 71}, {"time": 119523, "pitch": 69, "duration": 260, "velocity": 75}, {"time": 119523, "pitch": 72, "duration": 248, "velocity": 61}, {"time": 119764, "pitch": 65, "duration": 230, "velocity": 64}, {"time": 120004, "pitch": 69, "duration": 264, "velocity": 72}, {"time": 120004, "pitch": 72, "duration": 239, "velocity": 66}, {"time": 120241, "pitch": 65, "duration": 274, "velocity": 78}, {"time": 120478, "pitch": 67, "duration": 262, "velocity": 81}, {"time": 120478, "pitch": 72, "duration": 227, "velocity": 62}, {"time": 120719, "pitch": 64, "duration": 247, "velocity": 67}, {"time": 120959, "pitch": 67, "duration": 261, "velocity": 72}, {"time": 120959, "pitch": 72, "duration": 251, "velocity": 63}, {"time": 121199, "pitch": 64, "duration": 264, "velocity": 67}, {"time": 121439, "pitch": 69, "duration": 268, "velocity": 72}, {"time": 121439, "pitch": 72, "duration": 224, "velocity": 66}, {"time": 121680, "pitch": 65, "duration": 279, "velocity": 74}, {"time": 121920, "pitch": 69, "duration": 268, "velocity": 77}, {"time": 121920, "pitch": 72, "duration": 237, "velocity": 65}, {"time": 122160, "pitch": 65, "duration": 246, "velocity": 78}, {"time": 122400, "pitch": 67, "duration": 290, "velocity": 82}, {"time": 122400, "pitch": 72, "duration": 264, "velocity": 55}, {"time": 122640, "pitch": 64, "duration": 272, "velocity": 78}, {"time": 122881, "pitch": 67, "duration": 259, "velocity": 82}, {"time": 122881, "pitch": 72, "duration": 241, "velocity": 65}, {"time": 123121, "pitch": 64, "duration": 267, "velocity": 73}, {"time": 123361, "pitch": 69, "duration": 257, "velocity": 81}, {"time": 123361, "pitch": 72, "duration": 220, "velocity": 67}, {"time": 123601, "pitch": 65, "duration": 281, "velocity": 71}, {"time": 123841, "pitch": 69, "duration": 250, "velocity": 79}, {"time": 123841, "pitch": 72, "duration": 236, "velocity": 60}, {"time": 124082, "pitch": 65, "duration": 296, "velocity": 68}, {"time": 124322, "pitch": 71, "duration": 162, "velocity": 84}, {"time": 124322, "pitch": 74, "duration": 151, "velocity": 68}, {"time": 125283, "pitch": 69, "duration": 246, "velocity": 86}, {"time": 125283, "pitch": 72, "duration": 229, "velocity": 78}, {"time": 125523, "pitch": 64, "duration": 278, "velocity": 68}, {"time": 125763, "pitch": 69, "duration": 250, "velocity": 92}, {"time": 125763, "pitch": 72, "duration": 240, "velocity": 81}, {"time": 126003, "pitch": 64, "duration": 299, "velocity": 76}, {"time": 126244, "pitch": 68, "duration": 267, "velocity": 76}, {"time": 126244, "pitch": 72, "duration": 259, "velocity": 78}, {"time": 126481, "pitch": 64, "duration": 249, "velocity": 77}, {"time": 126718, "pitch": 68, "duration": 247, "velocity": 85}, {"time": 126718, "pitch": 72, "duration": 238, "velocity": 72}, {"time": 126958, "pitch": 64, "duration": 282, "velocity": 82}, {"time": 127199, "pitch": 67, "duration": 242, "velocity": 98}, {"time": 127199, "pitch": 72, "duration": 230, "velocity": 72}, {"time": 127439, "pitch": 64, "duration": 273, "velocity": 80}, {"time": 127679, "pitch": 67, "duration": 267, "velocity": 89}, {"time": 127679, "pitch": 72, "duration": 247, "velocity": 71}, {"time": 127919, "pitch": 64, "duration": 289, "velocity": 77}, {"time": 128159, "pitch": 66, "duration": 265, "velocity": 83}, {"time": 128159, "pitch": 72, "duration": 241, "velocity": 65}, {"time": 128400, "pitch": 64, "duration": 258, "velocity": 77}, {"time": 128640, "pitch": 66, "duration": 259, "velocity": 83}, {"time": 128640, "pitch": 72, "duration": 250, "velocity": 67}, {"time": 128880, "pitch": 64, "duration": 300, "velocity": 78}, {"time": 129120, "pitch": 69, "duration": 235, "velocity": 69}, {"time": 129120, "pitch": 72, "duration": 207, "velocity": 71}, {"time": 129361, "pitch": 65, "duration": 278, "velocity": 75}, {"time": 129601, "pitch": 69, "duration": 236, "velocity": 87}, {"time": 129601, "pitch": 72, "duration": 224, "velocity": 72}, {"time": 129841, "pitch": 65, "duration": 282, "velocity": 68}, {"time": 130081, "pitch": 71, "duration": 241, "velocity": 85}, {"time": 130081, "pitch": 74, "duration": 236, "velocity": 73}, {"time": 131042, "pitch": 72, "duration": 252, "velocity": 71}, {"time": 131042, "pitch": 76, "duration": 247, "velocity": 67}, {"time": 131282, "pitch": 67, "duration": 222, "velocity": 61}, {"time": 131522, "pitch": 72, "duration": 260, "velocity": 81}, {"time": 131522, "pitch": 76, "duration": 249, "velocity": 66}, {"time": 131763, "pitch": 67, "duration": 261, "velocity": 63}, {"time": 132003, "pitch": 71, "duration": 273, "velocity": 77}, {"time": 132003, "pitch": 74, "duration": 252, "velocity": 72}, {"time": 132243, "pitch": 67, "duration": 260, "velocity": 77}, {"time": 132483, "pitch": 71, "duration": 248, "velocity": 85}, {"time": 132483, "pitch": 74, "duration": 234, "velocity": 71}, {"time": 132724, "pitch": 67, "duration": 272, "velocity": 80}, {"time": 132964, "pitch": 72, "duration": 252, "velocity": 77}, {"time": 132964, "pitch": 76, "duration": 222, "velocity": 61}, {"time": 133201, "pitch": 69, "duration": 255, "velocity": 80}, {"time": 133438, "pitch": 72, "duration": 262, "velocity": 81}, {"time": 133438, "pitch": 76, "duration": 243, "velocity": 70}, {"time": 133678, "pitch": 69, "duration": 261, "velocity": 80}, {"time": 133919, "pitch": 71, "duration": 262, "velocity": 93}, {"time": 133919, "pitch": 74, "duration": 259, "velocity": 84}, {"time": 134159, "pitch": 67, "duration": 249, "velocity": 72}, {"time": 134399, "pitch": 71, "duration": 262, "velocity": 85}, {"time": 134399, "pitch": 74, "duration": 243, "velocity": 78}, {"time": 134639, "pitch": 67, "duration": 276, "velocity": 82}, {"time": 134880, "pitch": 69, "duration": 255, "velocity": 93}, {"time": 134880, "pitch": 72, "duration": 238, "velocity": 85}, {"time": 135120, "pitch": 65, "duration": 251, "velocity": 82}, {"time": 135360, "pitch": 69, "duration": 262, "velocity": 90}, {"time": 135360, "pitch": 72, "duration": 250, "velocity": 79}, {"time": 135600, "pitch": 65, "duration": 264, "velocity": 82}, {"time": 135840, "pitch": 67, "duration": 270, "velocity": 92}, {"time": 135840, "pitch": 72, "duration": 253, "velocity": 67}, {"time": 136081, "pitch": 64, "duration": 252, "velocity": 83}, {"time": 136321, "pitch": 67, "duration": 252, "velocity": 88}, {"time": 136321, "pitch": 72, "duration": 240, "velocity": 71}, {"time": 136561, "pitch": 64, "duration": 267, "velocity": 82}, {"time": 136801, "pitch": 69, "duration": 249, "velocity": 88}, {"time": 136801, "pitch": 72, "duration": 234, "velocity": 73}, {"time": 137042, "pitch": 65, "duration": 265, "velocity": 83}, {"time": 137282, "pitch": 69, "duration": 279, "velocity": 90}, {"time": 137282, "pitch": 72, "duration": 265, "velocity": 73}, {"time": 137522, "pitch": 65, "duration": 295, "velocity": 81}, {"time": 137762, "pitch": 69, "duration": 244, "velocity": 81}, {"time": 137762, "pitch": 74, "duration": 219, "velocity": 76}, {"time": 138002, "pitch": 65, "duration": 284, "velocity": 75}, {"time": 138242, "pitch": 69, "duration": 258, "velocity": 95}, {"time": 138242, "pitch": 74, "duration": 249, "velocity": 81}, {"time": 138482, "pitch": 65, "duration": 243, "velocity": 85}, {"time": 138720, "pitch": 67, "duration": 43, "velocity": 80}, {"time": 138720, "pitch": 72, "duration": 38, "velocity": 84}, {"time": 138763, "pitch": 64, "duration": 596, "velocity": 77}, {"time": 139147, "pitch": 67, "duration": 549, "velocity": 76}, {"time": 139147, "pitch": 72, "duration": 543, "velocity": 76}, {"time": 139696, "pitch": 64, "duration": 56, "velocity": 80}, {"time": 139763, "pitch": 69, "duration": 103, "velocity": 77}, {"time": 139763, "pitch": 72, "duration": 62, "velocity": 72}, {"time": 139846, "pitch": 65, "duration": 316, "velocity": 84}, {"time": 140166, "pitch": 69, "duration": 118, "velocity": 64}, {"time": 140166, "pitch": 72, "duration": 91, "velocity": 77}, {"time": 140261, "pitch": 65, "duration": 375, "velocity": 76}, {"time": 140636, "pitch": 67, "duration": 1302, "velocity": 55}], "annotations": [{"time": 403, "annotation": {"number": 7, "value": 110}, "group": "control_change"}, {"time": 422, "annotation": {"number": 11, "value": 100}, "group": "control_change"}, {"time": 442, "annotation": {"number": 10, "value": 94}, "group": "control_change"}, {"time": 461, "annotation": {"number": 91, "value": 80}, "group": "control_change"}, {"time": 480, "annotation": {"number": 93, "value": 40}, "group": "control_change"}, {"time": 480, "annotation": {"number": 101, "value": 0}, "group": "control_change"}, {"time": 480, "annotation": {"number": 100, "value": 0}, "group": "control_change"}, {"time": 480, "annotation": {"number": 6, "value": 12}, "group": "control_change"}, {"time": 480, "annotation": {"number": 101, "value": 127}, "group": "control_change"}, {"time": 482, "annotation": {"number": 100, "value": 127}, "group": "control_change"}, {"time": 141274, "annotation": {"number": 11, "value": 96}, "group": "control_change"}, {"time": 141288, "annotation": {"number": 11, "value": 95}, "group": "control_change"}, {"time": 141297, "annotation": {"number": 11, "value": 93}, "group": "control_change"}, {"time": 141311, "annotation": {"number": 11, "value": 91}, "group": "control_change"}, {"time": 141320, "annotation": {"number": 11, "value": 89}, "group": "control_change"}, {"time": 141334, "annotation": {"number": 11, "value": 88}, "group": "control_change"}, {"time": 141343, "annotation": {"number": 11, "value": 86}, "group": "control_change"}, {"time": 141357, "annotation": {"number": 11, "value": 84}, "group": "control_change"}, {"time": 141367, "annotation": {"number": 11, "value": 82}, "group": "control_change"}, {"time": 141381, "annotation": {"number": 11, "value": 80}, "group": "control_change"}, {"time": 141390, "annotation": {"number": 11, "value": 79}, "group": "control_change"}, {"time": 141404, "annotation": {"number": 11, "value": 77}, "group": "control_change"}, {"time": 141413, "annotation": {"number": 11, "value": 75}, "group": "control_change"}, {"time": 141427, "annotation": {"number": 11, "value": 73}, "group": "control_change"}, {"time": 141436, "annotation": {"number": 11, "value": 72}, "group": "control_change"}, {"time": 141450, "annotation": {"number": 11, "value": 70}, "group": "control_change"}, {"time": 141460, "annotation": {"number": 11, "value": 68}, "group": "control_change"}, {"time": 141474, "annotation": {"number": 11, "value": 66}, "group": "control_change"}, {"time": 141483, "annotation": {"number": 11, "value": 64}, "group": "control_change"}, {"time": 141497, "annotation": {"number": 11, "value": 63}, "group": "control_change"}, {"time": 141506, "annotation": {"number": 11, "value": 61}, "group": "control_change"}, {"time": 141520, "annotation": {"number": 11, "value": 59}, "group": "control_change"}, {"time": 141529, "annotation": {"number": 11, "value": 57}, "group": "control_change"}, {"time": 141543, "annotation": {"number": 11, "value": 56}, "group": "control_change"}, {"time": 141553, "annotation": {"number": 11, "value": 54}, "group": "control_change"}, {"time": 141567, "annotation": {"number": 11, "value": 52}, "group": "control_change"}, {"time": 141576, "annotation": {"number": 11, "value": 50}, "group": "control_change"}, {"time": 141590, "annotation": {"number": 11, "value": 48}, "group": "control_change"}, {"time": 141599, "annotation": {"number": 11, "value": 47}, "group": "control_change"}, {"time": 141613, "annotation": {"number": 11, "value": 45}, "group": "control_change"}, {"time": 141622, "annotation": {"number": 11, "value": 43}, "group": "control_change"}, {"time": 141636, "annotation": {"number": 11, "value": 41}, "group": "control_change"}, {"time": 141646, "annotation": {"number": 11, "value": 40}, "group": "control_change"}, {"time": 141660, "annotation": {"number": 11, "value": 38}, "group": "control_change"}, {"time": 141669, "annotation": {"number": 11, "value": 36}, "group": "control_change"}, {"time": 141683, "annotation": {"number": 11, "value": 34}, "group": "control_change"}, {"time": 141692, "annotation": {"number": 11, "value": 32}, "group": "control_change"}, {"time": 141706, "annotation": {"number": 11, "value": 31}, "group": "control_change"}, {"time": 141715, "annotation": {"number": 11, "value": 29}, "group": "control_change"}, {"time": 141729, "annotation": {"number": 11, "value": 27}, "group": "control_change"}, {"time": 141739, "annotation": {"number": 11, "value": 25}, "group": "control_change"}, {"time": 141753, "annotation": {"number": 11, "value": 24}, "group": "control_change"}, {"time": 141762, "annotation": {"number": 11, "value": 22}, "group": "control_change"}, {"time": 141776, "annotation": {"number": 11, "value": 20}, "group": "control_change"}, {"time": 141785, "annotation": {"number": 11, "value": 18}, "group": "control_change"}, {"time": 141799, "annotation": {"number": 11, "value": 16}, "group": "control_change"}, {"time": 141808, "annotation": {"number": 11, "value": 15}, "group": "control_change"}, {"time": 141822, "annotation": {"number": 11, "value": 13}, "group": "control_change"}, {"time": 141832, "annotation": {"number": 11, "value": 11}, "group": "control_change"}, {"time": 141846, "annotation": {"number": 11, "value": 9}, "group": "control_change"}, {"time": 141855, "annotation": {"number": 11, "value": 8}, "group": "control_change"}, {"time": 141869, "annotation": {"number": 11, "value": 6}, "group": "control_change"}, {"time": 141878, "annotation": {"number": 11, "value": 4}, "group": "control_change"}, {"time": 141892, "annotation": {"number": 11, "value": 2}, "group": "control_change"}, {"time": 141901, "annotation": {"number": 11, "value": 0}, "group": "control_change"}]}, {"program": 0, "is_drum": true, "name": "DRUMS", "notes": [{"time": 3358, "pitch": 38, "duration": 10, "velocity": 109}, {"time": 3398, "pitch": 38, "duration": 10, "velocity": 55}, {"time": 3438, "pitch": 38, "duration": 10, "velocity": 44}, {"time": 3479, "pitch": 38, "duration": 10, "velocity": 35}, {"time": 3519, "pitch": 38, "duration": 10, "velocity": 35}, {"time": 3559, "pitch": 38, "duration": 10, "velocity": 35}, {"time": 3599, "pitch": 38, "duration": 10, "velocity": 35}, {"time": 3639, "pitch": 38, "duration": 10, "velocity": 35}, {"time": 3679, "pitch": 38, "duration": 10, "velocity": 35}, {"time": 3719, "pitch": 38, "duration": 10, "velocity": 52}, {"time": 3759, "pitch": 38, "duration": 10, "velocity": 53}, {"time": 3799, "pitch": 38, "duration": 10, "velocity": 64}, {"time": 3839, "pitch": 38, "duration": 10, "velocity": 115}, {"time": 3959, "pitch": 38, "duration": 10, "velocity": 111}, {"time": 4079, "pitch": 36, "duration": 10, "velocity": 93}, {"time": 4079, "pitch": 47, "duration": 10, "velocity": 92}, {"time": 4319, "pitch": 36, "duration": 10, "velocity": 118}, {"time": 4319, "pitch": 57, "duration": 10, "velocity": 78}, {"time": 4800, "pitch": 38, "duration": 10, "velocity": 118}, {"time": 4800, "pitch": 42, "duration": 10, "velocity": 105}, {"time": 5040, "pitch": 42, "duration": 10, "velocity": 78}, {"time": 5160, "pitch": 36, "duration": 10, "velocity": 78}, {"time": 5280, "pitch": 36, "duration": 10, "velocity": 118}, {"time": 5280, "pitch": 42, "duration": 10, "velocity": 98}, {"time": 5520, "pitch": 42, "duration": 10, "velocity": 43}, {"time": 5761, "pitch": 38, "duration": 10, "velocity": 126}, {"time": 5761, "pitch": 42, "duration": 10, "velocity": 105}, {"time": 6001, "pitch": 42, "duration": 10, "velocity": 55}, {"time": 6081, "pitch": 38, "duration": 10, "velocity": 50}, {"time": 6121, "pitch": 38, "duration": 10, "velocity": 51}, {"time": 6161, "pitch": 38, "duration": 10, "velocity": 49}, {"time": 6241, "pitch": 36, "duration": 10, "velocity": 118}, {"time": 6241, "pitch": 42, "duration": 10, "velocity": 105}, {"time": 6481, "pitch": 42, "duration": 10, "velocity": 59}, {"time": 6721, "pitch": 38, "duration": 10, "velocity": 118}, {"time": 6721, "pitch": 42, "duration": 10, "velocity": 100}, {"time": 6962, "pitch": 36, "duration": 10, "velocity": 93}, {"time": 6962, "pitch": 42, "duration": 10, "velocity": 100}, {"time": 7082, "pitch": 38, "duration": 10, "velocity": 54}, {"time": 7122, "pitch": 38, "duration": 10, "velocity": 54}, {"time": 7162, "pitch": 38, "duration": 10, "velocity": 51}, {"time": 7202, "pitch": 36, "duration": 10, "velocity": 118}, {"time": 7202, "pitch": 42, "duration": 10, "velocity": 100}, {"time": 7442, "pitch": 42, "duration": 10, "velocity": 100}, {"time": 7682, "pitch": 38, "duration": 10, "velocity": 105}, {"time": 7682, "pitch": 42, "duration": 10, "velocity": 100}, {"time": 7923, "pitch": 36, "duration": 10, "velocity": 93}, {"time": 7923, "pitch": 46, "duration": 10, "velocity": 100}, {"time": 8163, "pitch": 36, "duration": 10, "velocity": 118}, {"time": 8163, "pitch": 42, "duration": 10, "velocity": 85}, {"time": 8400, "pitch": 42, "duration": 10, "velocity": 85}, {"time": 8637, "pitch": 38, "duration": 10, "velocity": 118}, {"time": 8637, "pitch": 42, "duration": 10, "velocity": 105}, {"time": 8877, "pitch": 42, "duration": 10, "velocity": 55}, {"time": 8998, "pitch": 36, "duration": 10, "velocity": 78}, {"time": 9118, "pitch": 36, "duration": 10, "velocity": 118}, {"time": 9118, "pitch": 49, "duration": 10, "velocity": 84}, {"time": 9358, "pitch": 42, "duration": 10, "velocity": 84}, {"time": 9598, "pitch": 38, "duration": 10, "velocity": 87}, {"time": 9598, "pitch": 42, "duration": 10, "velocity": 87}, {"time": 9838, "pitch": 47, "duration": 10, "velocity": 87}, {"time": 10079, "pitch": 36, "duration": 10, "velocity": 72}, {"time": 10079, "pitch": 42, "duration": 10, "velocity": 106}, {"time": 10079, "pitch": 49, "duration": 10, "velocity": 72}, {"time": 10319, "pitch": 42, "duration": 10, "velocity": 64}, {"time": 10559, "pitch": 37, "duration": 10, "velocity": 78}, {"time": 10559, "pitch": 42, "duration": 10, "velocity": 106}, {"time": 10799, "pitch": 36, "duration": 10, "velocity": 93}, {"time": 10799, "pitch": 42, "duration": 10, "velocity": 64}, {"time": 11039, "pitch": 36, "duration": 10, "velocity": 118}, {"time": 11039, "pitch": 42, "duration": 10, "velocity": 106}, {"time": 11280, "pitch": 42, "duration": 10, "velocity": 64}, {"time": 11520, "pitch": 37, "duration": 10, "velocity": 78}, {"time": 11520, "pitch": 42, "duration": 10, "velocity": 106}, {"time": 11760, "pitch": 42, "duration": 10, "velocity": 64}, {"time": 12000, "pitch": 36, "duration": 10, "velocity": 111}, {"time": 12000, "pitch": 42, "duration": 10, "velocity": 106}, {"time": 12240, "pitch": 42, "duration": 11, "velocity": 64}, {"time": 12481, "pitch": 37, "duration": 10, "velocity": 78}, {"time": 12481, "pitch": 42, "duration": 10, "velocity": 106}, {"time": 12721, "pitch": 36, "duration": 10, "velocity": 93}, {"time": 12721, "pitch": 42, "duration": 10, "velocity": 64}, {"time": 12961, "pitch": 36, "duration": 10, "velocity": 118}, {"time": 12961, "pitch": 42, "duration": 10, "velocity": 106}, {"time": 13201, "pitch": 42, "duration": 10, "velocity": 64}, {"time": 13442, "pitch": 37, "duration": 10, "velocity": 78}, {"time": 13442, "pitch": 42, "duration": 10, "velocity": 106}, {"time": 13682, "pitch": 46, "duration": 10, "velocity": 78}, {"time": 13922, "pitch": 36, "duration": 10, "velocity": 111}, {"time": 13922, "pitch": 42, "duration": 10, "velocity": 106}, {"time": 14162, "pitch": 42, "duration": 10, "velocity": 64}, {"time": 14402, "pitch": 37, "duration": 10, "velocity": 78}, {"time": 14402, "pitch": 42, "duration": 10, "velocity": 106}, {"time": 14643, "pitch": 36, "duration": 10, "velocity": 93}, {"time": 14643, "pitch": 42, "duration": 10, "velocity": 64}, {"time": 14883, "pitch": 36, "duration": 10, "velocity": 118}, {"time": 14883, "pitch": 42, "duration": 10, "velocity": 106}, {"time": 15120, "pitch": 42, "duration": 10, "velocity": 64}, {"time": 15357, "pitch": 37, "duration": 10, "velocity": 78}, {"time": 15357, "pitch": 42, "duration": 10, "velocity": 106}, {"time": 15598, "pitch": 42, "duration": 10, "velocity": 64}, {"time": 15838, "pitch": 36, "duration": 10, "velocity": 111}, {"time": 15838, "pitch": 42, "duration": 10, "velocity": 106}, {"time": 16078, "pitch": 42, "duration": 10, "velocity": 64}, {"time": 16318, "pitch": 37, "duration": 10, "velocity": 78}, {"time": 16318, "pitch": 42, "duration": 10, "velocity": 106}, {"time": 16558, "pitch": 36, "duration": 10, "velocity": 92}, {"time": 16558, "pitch": 42, "duration": 10, "velocity": 64}, {"time": 16799, "pitch": 36, "duration": 10, "velocity": 106}, {"time": 16799, "pitch": 42, "duration": 10, "velocity": 106}, {"time": 17039, "pitch": 42, "duration": 10, "velocity": 64}, {"time": 17279, "pitch": 37, "duration": 10, "velocity": 78}, {"time": 17279, "pitch": 42, "duration": 10, "velocity": 106}, {"time": 17399, "pitch": 42, "duration": 10, "velocity": 64}, {"time": 17519, "pitch": 46, "duration": 10, "velocity": 78}, {"time": 17760, "pitch": 36, "duration": 10, "velocity": 111}, {"time": 17760, "pitch": 42, "duration": 10, "velocity": 106}, {"time": 18000, "pitch": 42, "duration": 10, "velocity": 64}, {"time": 18240, "pitch": 37, "duration": 10, "velocity": 78}, {"time": 18240, "pitch": 42, "duration": 10, "velocity": 106}, {"time": 18480, "pitch": 36, "duration": 10, "velocity": 93}, {"time": 18480, "pitch": 42, "duration": 10, "velocity": 64}, {"time": 18720, "pitch": 36, "duration": 10, "velocity": 118}, {"time": 18720, "pitch": 42, "duration": 10, "velocity": 106}, {"time": 18961, "pitch": 42, "duration": 10, "velocity": 64}, {"time": 19201, "pitch": 37, "duration": 10, "velocity": 78}, {"time": 19201, "pitch": 42, "duration": 10, "velocity": 106}, {"time": 19441, "pitch": 42, "duration": 10, "velocity": 64}, {"time": 19681, "pitch": 36, "duration": 10, "velocity": 111}, {"time": 19681, "pitch": 42, "duration": 10, "velocity": 106}, {"time": 19921, "pitch": 42, "duration": 11, "velocity": 64}, {"time": 20162, "pitch": 37, "duration": 10, "velocity": 78}, {"time": 20162, "pitch": 42, "duration": 10, "velocity": 106}, {"time": 20402, "pitch": 36, "duration": 10, "velocity": 93}, {"time": 20402, "pitch": 42, "duration": 10, "velocity": 64}, {"time": 20642, "pitch": 36, "duration": 10, "velocity": 118}, {"time": 20642, "pitch": 42, "duration": 10, "velocity": 106}, {"time": 20882, "pitch": 42, "duration": 10, "velocity": 64}, {"time": 21123, "pitch": 37, "duration": 9, "velocity": 78}, {"time": 21123, "pitch": 42, "duration": 9, "velocity": 106}, {"time": 21360, "pitch": 46, "duration": 10, "velocity": 78}, {"time": 21597, "pitch": 36, "duration": 10, "velocity": 111}, {"time": 21597, "pitch": 42, "duration": 10, "velocity": 106}, {"time": 21837, "pitch": 42, "duration": 10, "velocity": 64}, {"time": 22078, "pitch": 37, "duration": 10, "velocity": 78}, {"time": 22078, "pitch": 42, "duration": 10, "velocity": 106}, {"time": 22318, "pitch": 36, "duration": 10, "velocity": 93}, {"time": 22318, "pitch": 42, "duration": 10, "velocity": 64}, {"time": 22558, "pitch": 36, "duration": 10, "velocity": 118}, {"time": 22558, "pitch": 42, "duration": 10, "velocity": 106}, {"time": 22798, "pitch": 42, "duration": 10, "velocity": 64}, {"time": 23038, "pitch": 37, "duration": 10, "velocity": 78}, {"time": 23038, "pitch": 42, "duration": 10, "velocity": 106}, {"time": 23279, "pitch": 42, "duration": 10, "velocity": 64}, {"time": 23519, "pitch": 36, "duration": 10, "velocity": 111}, {"time": 23519, "pitch": 42, "duration": 10, "velocity": 106}, {"time": 23759, "pitch": 42, "duration": 10, "velocity": 64}, {"time": 23999, "pitch": 37, "duration": 10, "velocity": 78}, {"time": 23999, "pitch": 42, "duration": 10, "velocity": 106}, {"time": 24239, "pitch": 36, "duration": 10, "velocity": 93}, {"time": 24239, "pitch": 42, "duration": 10, "velocity": 64}, {"time": 24480, "pitch": 36, "duration": 10, "velocity": 118}, {"time": 24480, "pitch": 42, "duration": 10, "velocity": 106}, {"time": 24720, "pitch": 36, "duration": 10, "velocity": 111}, {"time": 24720, "pitch": 46, "duration": 10, "velocity": 78}, {"time": 24920, "pitch": 38, "duration": 10, "velocity": 58}, {"time": 24960, "pitch": 38, "duration": 10, "velocity": 118}, {"time": 25080, "pitch": 38, "duration": 10, "velocity": 100}, {"time": 25200, "pitch": 36, "duration": 10, "velocity": 93}, {"time": 25200, "pitch": 41, "duration": 10, "velocity": 100}, {"time": 25441, "pitch": 36, "duration": 10, "velocity": 97}, {"time": 25441, "pitch": 49, "duration": 10, "velocity": 97}, {"time": 25681, "pitch": 42, "duration": 10, "velocity": 69}, {"time": 25921, "pitch": 38, "duration": 10, "velocity": 118}, {"time": 25921, "pitch": 42, "duration": 10, "velocity": 105}, {"time": 26161, "pitch": 42, "duration": 10, "velocity": 75}, {"time": 26401, "pitch": 36, "duration": 10, "velocity": 118}, {"time": 26401, "pitch": 42, "duration": 10, "velocity": 105}, {"time": 26642, "pitch": 42, "duration": 10, "velocity": 69}, {"time": 26882, "pitch": 38, "duration": 10, "velocity": 126}, {"time": 26882, "pitch": 42, "duration": 10, "velocity": 105}, {"time": 27122, "pitch": 42, "duration": 10, "velocity": 65}, {"time": 27242, "pitch": 36, "duration": 10, "velocity": 78}, {"time": 27362, "pitch": 36, "duration": 10, "velocity": 118}, {"time": 27362, "pitch": 42, "duration": 10, "velocity": 98}, {"time": 27603, "pitch": 42, "duration": 10, "velocity": 65}, {"time": 27843, "pitch": 38, "duration": 10, "velocity": 118}, {"time": 27843, "pitch": 42, "duration": 10, "velocity": 107}, {"time": 28080, "pitch": 42, "duration": 10, "velocity": 54}, {"time": 28317, "pitch": 36, "duration": 10, "velocity": 118}, {"time": 28317, "pitch": 42, "duration": 10, "velocity": 107}, {"time": 28557, "pitch": 42, "duration": 10, "velocity": 57}, {"time": 28798, "pitch": 38, "duration": 10, "velocity": 118}, {"time": 28798, "pitch": 42, "duration": 10, "velocity": 107}, {"time": 29038, "pitch": 36, "duration": 10, "velocity": 92}, {"time": 29038, "pitch": 42, "duration": 10, "velocity": 43}, {"time": 29278, "pitch": 36, "duration": 10, "velocity": 118}, {"time": 29278, "pitch": 42, "duration": 10, "velocity": 107}, {"time": 29518, "pitch": 42, "duration": 10, "velocity": 65}, {"time": 29759, "pitch": 38, "duration": 10, "velocity": 126}, {"time": 29759, "pitch": 42, "duration": 10, "velocity": 107}, {"time": 29999, "pitch": 42, "duration": 10, "velocity": 67}, {"time": 30239, "pitch": 36, "duration": 10, "velocity": 118}, {"time": 30239, "pitch": 42, "duration": 10, "velocity": 98}, {"time": 30479, "pitch": 42, "duration": 10, "velocity": 75}, {"time": 30719, "pitch": 38, "duration": 10, "velocity": 118}, {"time": 30719, "pitch": 42, "duration": 10, "velocity": 107}, {"time": 30960, "pitch": 36, "duration": 10, "velocity": 78}, {"time": 30960, "pitch": 42, "duration": 10, "velocity": 61}, {"time": 31200, "pitch": 36, "duration": 10, "velocity": 118}, {"time": 31200, "pitch": 42, "duration": 10, "velocity": 107}, {"time": 31440, "pitch": 42, "duration": 10, "velocity": 84}, {"time": 31680, "pitch": 38, "duration": 10, "velocity": 126}, {"time": 31680, "pitch": 42, "duration": 10, "velocity": 107}, {"time": 31920, "pitch": 42, "duration": 10, "velocity": 69}, {"time": 32161, "pitch": 36, "duration": 10, "velocity": 106}, {"time": 32161, "pitch": 42, "duration": 10, "velocity": 105}, {"time": 32401, "pitch": 42, "duration": 10, "velocity": 98}, {"time": 32641, "pitch": 38, "duration": 10, "velocity": 111}, {"time": 32641, "pitch": 42, "duration": 10, "velocity": 69}, {"time": 32761, "pitch": 42, "duration": 10, "velocity": 50}, {"time": 32881, "pitch": 46, "duration": 10, "velocity": 97}, {"time": 33122, "pitch": 36, "duration": 10, "velocity": 118}, {"time": 33122, "pitch": 44, "duration": 10, "velocity": 50}, {"time": 33122, "pitch": 49, "duration": 10, "velocity": 78}, {"time": 33362, "pitch": 42, "duration": 10, "velocity": 52}, {"time": 33482, "pitch": 36, "duration": 10, "velocity": 92}, {"time": 33602, "pitch": 38, "duration": 10, "velocity": 106}, {"time": 33602, "pitch": 42, "duration": 10, "velocity": 56}, {"time": 33842, "pitch": 36, "duration": 10, "velocity": 118}, {"time": 33842, "pitch": 42, "duration": 10, "velocity": 70}, {"time": 34082, "pitch": 38, "duration": 10, "velocity": 124}, {"time": 34082, "pitch": 46, "duration": 10, "velocity": 92}, {"time": 34323, "pitch": 36, "duration": 10, "velocity": 98}, {"time": 34323, "pitch": 42, "duration": 10, "velocity": 105}, {"time": 34323, "pitch": 48, "duration": 10, "velocity": 102}, {"time": 34563, "pitch": 47, "duration": 10, "velocity": 117}, {"time": 34681, "pitch": 47, "duration": 10, "velocity": 112}, {"time": 34800, "pitch": 43, "duration": 10, "velocity": 91}, {"time": 34800, "pitch": 47, "duration": 10, "velocity": 102}, {"time": 35037, "pitch": 36, "duration": 10, "velocity": 120}, {"time": 35037, "pitch": 49, "duration": 10, "velocity": 91}, {"time": 35278, "pitch": 51, "duration": 10, "velocity": 61}, {"time": 35518, "pitch": 38, "duration": 10, "velocity": 118}, {"time": 35518, "pitch": 51, "duration": 10, "velocity": 105}, {"time": 35758, "pitch": 36, "duration": 10, "velocity": 98}, {"time": 35758, "pitch": 51, "duration": 10, "velocity": 106}, {"time": 35878, "pitch": 51, "duration": 10, "velocity": 64}, {"time": 35998, "pitch": 36, "duration": 10, "velocity": 118}, {"time": 35998, "pitch": 51, "duration": 10, "velocity": 98}, {"time": 36238, "pitch": 51, "duration": 10, "velocity": 60}, {"time": 36479, "pitch": 38, "duration": 10, "velocity": 118}, {"time": 36479, "pitch": 51, "duration": 10, "velocity": 105}, {"time": 36719, "pitch": 51, "duration": 10, "velocity": 69}, {"time": 36959, "pitch": 36, "duration": 10, "velocity": 118}, {"time": 36959, "pitch": 51, "duration": 10, "velocity": 98}, {"time": 37199, "pitch": 51, "duration": 10, "velocity": 66}, {"time": 37440, "pitch": 38, "duration": 10, "velocity": 118}, {"time": 37440, "pitch": 51, "duration": 10, "velocity": 105}, {"time": 37680, "pitch": 36, "duration": 10, "velocity": 98}, {"time": 37680, "pitch": 51, "duration": 10, "velocity": 106}, {"time": 37800, "pitch": 51, "duration": 10, "velocity": 36}, {"time": 37920, "pitch": 36, "duration": 10, "velocity": 122}, {"time": 37920, "pitch": 51, "duration": 10, "velocity": 105}, {"time": 38160, "pitch": 51, "duration": 10, "velocity": 79}, {"time": 38400, "pitch": 38, "duration": 10, "velocity": 118}, {"time": 38400, "pitch": 51, "duration": 10, "velocity": 105}, {"time": 38641, "pitch": 36, "duration": 10, "velocity": 98}, {"time": 38641, "pitch": 51, "duration": 10, "velocity": 87}, {"time": 38881, "pitch": 36, "duration": 10, "velocity": 118}, {"time": 38881, "pitch": 51, "duration": 10, "velocity": 105}, {"time": 39121, "pitch": 51, "duration": 10, "velocity": 57}, {"time": 39361, "pitch": 38, "duration": 10, "velocity": 111}, {"time": 39361, "pitch": 51, "duration": 10, "velocity": 105}, {"time": 39601, "pitch": 36, "duration": 10, "velocity": 98}, {"time": 39601, "pitch": 51, "duration": 10, "velocity": 106}, {"time": 39722, "pitch": 51, "duration": 10, "velocity": 36}, {"time": 39842, "pitch": 36, "duration": 10, "velocity": 120}, {"time": 39842, "pitch": 51, "duration": 10, "velocity": 105}, {"time": 40082, "pitch": 51, "duration": 10, "velocity": 58}, {"time": 40322, "pitch": 38, "duration": 10, "velocity": 118}, {"time": 40322, "pitch": 51, "duration": 10, "velocity": 98}, {"time": 40562, "pitch": 36, "duration": 10, "velocity": 98}, {"time": 40562, "pitch": 51, "duration": 10, "velocity": 73}, {"time": 40803, "pitch": 36, "duration": 9, "velocity": 118}, {"time": 40803, "pitch": 51, "duration": 9, "velocity": 98}, {"time": 41040, "pitch": 51, "duration": 10, "velocity": 65}, {"time": 41277, "pitch": 38, "duration": 10, "velocity": 118}, {"time": 41277, "pitch": 51, "duration": 10, "velocity": 77}, {"time": 41517, "pitch": 36, "duration": 10, "velocity": 98}, {"time": 41517, "pitch": 51, "duration": 10, "velocity": 82}, {"time": 41758, "pitch": 36, "duration": 10, "velocity": 118}, {"time": 41758, "pitch": 51, "duration": 10, "velocity": 106}, {"time": 41878, "pitch": 51, "duration": 10, "velocity": 36}, {"time": 41998, "pitch": 51, "duration": 10, "velocity": 72}, {"time": 42238, "pitch": 38, "duration": 10, "velocity": 127}, {"time": 42238, "pitch": 51, "duration": 10, "velocity": 91}, {"time": 42478, "pitch": 36, "duration": 10, "velocity": 105}, {"time": 42478, "pitch": 51, "duration": 10, "velocity": 104}, {"time": 42718, "pitch": 36, "duration": 10, "velocity": 115}, {"time": 42718, "pitch": 49, "duration": 10, "velocity": 93}, {"time": 42959, "pitch": 42, "duration": 10, "velocity": 64}, {"time": 43199, "pitch": 38, "duration": 10, "velocity": 118}, {"time": 43199, "pitch": 42, "duration": 10, "velocity": 106}, {"time": 43439, "pitch": 36, "duration": 10, "velocity": 98}, {"time": 43439, "pitch": 42, "duration": 10, "velocity": 64}, {"time": 43679, "pitch": 36, "duration": 10, "velocity": 120}, {"time": 43679, "pitch": 42, "duration": 10, "velocity": 106}, {"time": 43919, "pitch": 42, "duration": 10, "velocity": 64}, {"time": 44160, "pitch": 38, "duration": 10, "velocity": 118}, {"time": 44160, "pitch": 42, "duration": 10, "velocity": 106}, {"time": 44400, "pitch": 42, "duration": 10, "velocity": 64}, {"time": 44640, "pitch": 36, "duration": 10, "velocity": 120}, {"time": 44640, "pitch": 42, "duration": 10, "velocity": 106}, {"time": 44880, "pitch": 42, "duration": 10, "velocity": 64}, {"time": 45121, "pitch": 38, "duration": 10, "velocity": 111}, {"time": 45121, "pitch": 42, "duration": 10, "velocity": 106}, {"time": 45361, "pitch": 36, "duration": 10, "velocity": 93}, {"time": 45361, "pitch": 42, "duration": 10, "velocity": 64}, {"time": 45601, "pitch": 36, "duration": 10, "velocity": 118}, {"time": 45601, "pitch": 42, "duration": 10, "velocity": 106}, {"time": 45841, "pitch": 42, "duration": 10, "velocity": 64}, {"time": 46081, "pitch": 38, "duration": 10, "velocity": 111}, {"time": 46081, "pitch": 42, "duration": 10, "velocity": 106}, {"time": 46322, "pitch": 42, "duration": 10, "velocity": 64}, {"time": 46562, "pitch": 36, "duration": 10, "velocity": 115}, {"time": 46562, "pitch": 42, "duration": 10, "velocity": 106}, {"time": 46802, "pitch": 42, "duration": 10, "velocity": 64}, {"time": 47042, "pitch": 38, "duration": 10, "velocity": 118}, {"time": 47042, "pitch": 42, "duration": 10, "velocity": 106}, {"time": 47282, "pitch": 42, "duration": 10, "velocity": 64}, {"time": 47403, "pitch": 36, "duration": 10, "velocity": 78}, {"time": 47523, "pitch": 36, "duration": 10, "velocity": 118}, {"time": 47523, "pitch": 38, "duration": 10, "velocity": 127}, {"time": 48478, "pitch": 36, "duration": 10, "velocity": 110}, {"time": 48478, "pitch": 49, "duration": 10, "velocity": 110}, {"time": 48718, "pitch": 42, "duration": 10, "velocity": 70}, {"time": 48958, "pitch": 38, "duration": 10, "velocity": 126}, {"time": 48958, "pitch": 42, "duration": 10, "velocity": 107}, {"time": 49198, "pitch": 42, "duration": 10, "velocity": 53}, {"time": 49318, "pitch": 36, "duration": 10, "velocity": 64}, {"time": 49439, "pitch": 36, "duration": 10, "velocity": 118}, {"time": 49439, "pitch": 42, "duration": 10, "velocity": 107}, {"time": 49679, "pitch": 42, "duration": 10, "velocity": 62}, {"time": 49919, "pitch": 38, "duration": 10, "velocity": 126}, {"time": 49919, "pitch": 42, "duration": 10, "velocity": 107}, {"time": 50159, "pitch": 42, "duration": 10, "velocity": 43}, {"time": 50399, "pitch": 36, "duration": 10, "velocity": 118}, {"time": 50399, "pitch": 42, "duration": 10, "velocity": 107}, {"time": 50640, "pitch": 42, "duration": 10, "velocity": 43}, {"time": 50880, "pitch": 38, "duration": 10, "velocity": 126}, {"time": 50880, "pitch": 42, "duration": 10, "velocity": 107}, {"time": 51120, "pitch": 42, "duration": 10, "velocity": 43}, {"time": 51360, "pitch": 36, "duration": 10, "velocity": 118}, {"time": 51360, "pitch": 42, "duration": 10, "velocity": 107}, {"time": 51600, "pitch": 42, "duration": 10, "velocity": 53}, {"time": 51841, "pitch": 38, "duration": 10, "velocity": 118}, {"time": 51841, "pitch": 42, "duration": 10, "velocity": 105}, {"time": 51961, "pitch": 42, "duration": 10, "velocity": 50}, {"time": 52081, "pitch": 36, "duration": 10, "velocity": 93}, {"time": 52081, "pitch": 46, "duration": 10, "velocity": 73}, {"time": 52321, "pitch": 36, "duration": 10, "velocity": 118}, {"time": 52321, "pitch": 42, "duration": 10, "velocity": 107}, {"time": 52561, "pitch": 42, "duration": 10, "velocity": 47}, {"time": 52802, "pitch": 38, "duration": 10, "velocity": 118}, {"time": 52802, "pitch": 42, "duration": 10, "velocity": 105}, {"time": 53042, "pitch": 42, "duration": 10, "velocity": 69}, {"time": 53282, "pitch": 36, "duration": 10, "velocity": 118}, {"time": 53282, "pitch": 42, "duration": 10, "velocity": 107}, {"time": 53522, "pitch": 42, "duration": 10, "velocity": 62}, {"time": 53762, "pitch": 38, "duration": 10, "velocity": 118}, {"time": 53762, "pitch": 42, "duration": 10, "velocity": 105}, {"time": 54003, "pitch": 42, "duration": 10, "velocity": 73}, {"time": 54243, "pitch": 36, "duration": 10, "velocity": 118}, {"time": 54243, "pitch": 42, "duration": 10, "velocity": 107}, {"time": 54480, "pitch": 42, "duration": 10, "velocity": 73}, {"time": 54717, "pitch": 38, "duration": 10, "velocity": 126}, {"time": 54717, "pitch": 42, "duration": 10, "velocity": 102}, {"time": 54958, "pitch": 36, "duration": 10, "velocity": 92}, {"time": 54958, "pitch": 42, "duration": 10, "velocity": 73}, {"time": 55198, "pitch": 36, "duration": 10, "velocity": 111}, {"time": 55198, "pitch": 42, "duration": 10, "velocity": 84}, {"time": 55438, "pitch": 42, "duration": 10, "velocity": 73}, {"time": 55678, "pitch": 38, "duration": 10, "velocity": 120}, {"time": 55678, "pitch": 42, "duration": 10, "velocity": 73}, {"time": 55798, "pitch": 42, "duration": 10, "velocity": 50}, {"time": 55918, "pitch": 36, "duration": 10, "velocity": 111}, {"time": 55918, "pitch": 46, "duration": 10, "velocity": 73}, {"time": 56159, "pitch": 36, "duration": 10, "velocity": 118}, {"time": 56159, "pitch": 57, "duration": 10, "velocity": 102}, {"time": 56399, "pitch": 42, "duration": 10, "velocity": 67}, {"time": 56639, "pitch": 38, "duration": 10, "velocity": 118}, {"time": 56639, "pitch": 42, "duration": 10, "velocity": 105}, {"time": 56879, "pitch": 36, "duration": 10, "velocity": 93}, {"time": 56879, "pitch": 46, "duration": 10, "velocity": 55}, {"time": 57120, "pitch": 36, "duration": 10, "velocity": 118}, {"time": 57120, "pitch": 37, "duration": 10, "velocity": 62}, {"time": 57120, "pitch": 42, "duration": 10, "velocity": 84}, {"time": 57240, "pitch": 48, "duration": 10, "velocity": 102}, {"time": 57259, "pitch": 48, "duration": 10, "velocity": 70}, {"time": 57480, "pitch": 48, "duration": 10, "velocity": 102}, {"time": 57600, "pitch": 50, "duration": 10, "velocity": 102}, {"time": 57619, "pitch": 50, "duration": 10, "velocity": 70}, {"time": 57720, "pitch": 48, "duration": 10, "velocity": 88}, {"time": 57840, "pitch": 45, "duration": 10, "velocity": 78}, {"time": 58080, "pitch": 36, "duration": 10, "velocity": 72}, {"time": 58080, "pitch": 49, "duration": 10, "velocity": 72}, {"time": 58321, "pitch": 42, "duration": 10, "velocity": 64}, {"time": 58561, "pitch": 37, "duration": 10, "velocity": 78}, {"time": 58561, "pitch": 42, "duration": 10, "velocity": 106}, {"time": 58801, "pitch": 36, "duration": 10, "velocity": 78}, {"time": 58801, "pitch": 42, "duration": 10, "velocity": 64}, {"time": 59041, "pitch": 36, "duration": 10, "velocity": 118}, {"time": 59041, "pitch": 42, "duration": 10, "velocity": 106}, {"time": 59281, "pitch": 42, "duration": 10, "velocity": 64}, {"time": 59522, "pitch": 37, "duration": 10, "velocity": 78}, {"time": 59522, "pitch": 42, "duration": 10, "velocity": 106}, {"time": 59762, "pitch": 42, "duration": 10, "velocity": 64}, {"time": 60002, "pitch": 36, "duration": 10, "velocity": 111}, {"time": 60002, "pitch": 42, "duration": 10, "velocity": 106}, {"time": 60242, "pitch": 42, "duration": 10, "velocity": 64}, {"time": 60483, "pitch": 37, "duration": 9, "velocity": 78}, {"time": 60483, "pitch": 42, "duration": 9, "velocity": 106}, {"time": 60720, "pitch": 36, "duration": 10, "velocity": 78}, {"time": 60720, "pitch": 42, "duration": 10, "velocity": 64}, {"time": 60957, "pitch": 36, "duration": 10, "velocity": 118}, {"time": 60957, "pitch": 42, "duration": 10, "velocity": 106}, {"time": 61197, "pitch": 42, "duration": 10, "velocity": 64}, {"time": 61437, "pitch": 37, "duration": 10, "velocity": 78}, {"time": 61437, "pitch": 42, "duration": 10, "velocity": 106}, {"time": 61678, "pitch": 42, "duration": 10, "velocity": 64}, {"time": 61918, "pitch": 36, "duration": 10, "velocity": 111}, {"time": 61918, "pitch": 42, "duration": 10, "velocity": 106}, {"time": 62158, "pitch": 42, "duration": 10, "velocity": 64}, {"time": 62398, "pitch": 37, "duration": 10, "velocity": 78}, {"time": 62398, "pitch": 42, "duration": 10, "velocity": 106}, {"time": 62639, "pitch": 36, "duration": 10, "velocity": 93}, {"time": 62639, "pitch": 42, "duration": 10, "velocity": 64}, {"time": 62879, "pitch": 36, "duration": 10, "velocity": 118}, {"time": 62879, "pitch": 42, "duration": 10, "velocity": 106}, {"time": 63119, "pitch": 42, "duration": 10, "velocity": 64}, {"time": 63359, "pitch": 37, "duration": 10, "velocity": 78}, {"time": 63359, "pitch": 42, "duration": 10, "velocity": 106}, {"time": 63599, "pitch": 42, "duration": 10, "velocity": 64}, {"time": 63840, "pitch": 36, "duration": 10, "velocity": 111}, {"time": 63840, "pitch": 42, "duration": 10, "velocity": 106}, {"time": 64080, "pitch": 42, "duration": 10, "velocity": 64}, {"time": 64320, "pitch": 37, "duration": 10, "velocity": 78}, {"time": 64320, "pitch": 42, "duration": 10, "velocity": 106}, {"time": 64560, "pitch": 36, "duration": 10, "velocity": 93}, {"time": 64560, "pitch": 42, "duration": 10, "velocity": 64}, {"time": 64801, "pitch": 36, "duration": 10, "velocity": 118}, {"time": 64801, "pitch": 42, "duration": 10, "velocity": 106}, {"time": 65041, "pitch": 42, "duration": 10, "velocity": 64}, {"time": 65281, "pitch": 37, "duration": 10, "velocity": 78}, {"time": 65281, "pitch": 42, "duration": 10, "velocity": 106}, {"time": 65401, "pitch": 42, "duration": 10, "velocity": 64}, {"time": 65521, "pitch": 46, "duration": 10, "velocity": 78}, {"time": 65761, "pitch": 36, "duration": 10, "velocity": 111}, {"time": 65761, "pitch": 42, "duration": 10, "velocity": 106}, {"time": 66002, "pitch": 42, "duration": 10, "velocity": 64}, {"time": 66242, "pitch": 37, "duration": 10, "velocity": 78}, {"time": 66242, "pitch": 42, "duration": 10, "velocity": 106}, {"time": 66482, "pitch": 36, "duration": 10, "velocity": 93}, {"time": 66482, "pitch": 42, "duration": 10, "velocity": 64}, {"time": 66722, "pitch": 36, "duration": 10, "velocity": 118}, {"time": 66722, "pitch": 42, "duration": 10, "velocity": 106}, {"time": 66962, "pitch": 42, "duration": 10, "velocity": 64}, {"time": 67203, "pitch": 37, "duration": 10, "velocity": 78}, {"time": 67203, "pitch": 42, "duration": 10, "velocity": 106}, {"time": 67440, "pitch": 42, "duration": 10, "velocity": 64}, {"time": 67677, "pitch": 36, "duration": 10, "velocity": 111}, {"time": 67677, "pitch": 42, "duration": 10, "velocity": 106}, {"time": 67917, "pitch": 42, "duration": 10, "velocity": 64}, {"time": 68158, "pitch": 37, "duration": 10, "velocity": 78}, {"time": 68158, "pitch": 42, "duration": 10, "velocity": 106}, {"time": 68398, "pitch": 36, "duration": 10, "velocity": 93}, {"time": 68398, "pitch": 42, "duration": 10, "velocity": 64}, {"time": 68638, "pitch": 36, "duration": 10, "velocity": 118}, {"time": 68638, "pitch": 42, "duration": 10, "velocity": 106}, {"time": 68878, "pitch": 42, "duration": 10, "velocity": 64}, {"time": 69118, "pitch": 37, "duration": 11, "velocity": 78}, {"time": 69118, "pitch": 42, "duration": 11, "velocity": 106}, {"time": 69359, "pitch": 46, "duration": 10, "velocity": 78}, {"time": 69599, "pitch": 36, "duration": 10, "velocity": 111}, {"time": 69599, "pitch": 42, "duration": 10, "velocity": 106}, {"time": 69839, "pitch": 42, "duration": 10, "velocity": 64}, {"time": 70079, "pitch": 37, "duration": 10, "velocity": 78}, {"time": 70079, "pitch": 42, "duration": 10, "velocity": 106}, {"time": 70320, "pitch": 36, "duration": 10, "velocity": 93}, {"time": 70320, "pitch": 42, "duration": 10, "velocity": 64}, {"time": 70560, "pitch": 36, "duration": 10, "velocity": 118}, {"time": 70560, "pitch": 42, "duration": 10, "velocity": 106}, {"time": 70800, "pitch": 42, "duration": 10, "velocity": 64}, {"time": 71040, "pitch": 37, "duration": 10, "velocity": 78}, {"time": 71040, "pitch": 42, "duration": 10, "velocity": 106}, {"time": 71280, "pitch": 42, "duration": 10, "velocity": 64}, {"time": 71521, "pitch": 36, "duration": 10, "velocity": 111}, {"time": 71521, "pitch": 42, "duration": 10, "velocity": 106}, {"time": 71761, "pitch": 42, "duration": 10, "velocity": 64}, {"time": 72001, "pitch": 37, "duration": 10, "velocity": 78}, {"time": 72001, "pitch": 42, "duration": 10, "velocity": 106}, {"time": 72241, "pitch": 36, "duration": 10, "velocity": 93}, {"time": 72241, "pitch": 42, "duration": 10, "velocity": 64}, {"time": 72482, "pitch": 36, "duration": 10, "velocity": 118}, {"time": 72482, "pitch": 42, "duration": 10, "velocity": 106}, {"time": 72722, "pitch": 42, "duration": 10, "velocity": 64}, {"time": 72962, "pitch": 37, "duration": 10, "velocity": 78}, {"time": 72962, "pitch": 42, "duration": 10, "velocity": 118}, {"time": 73082, "pitch": 42, "duration": 10, "velocity": 100}, {"time": 73202, "pitch": 46, "duration": 10, "velocity": 100}, {"time": 73442, "pitch": 36, "duration": 10, "velocity": 97}, {"time": 73442, "pitch": 49, "duration": 10, "velocity": 97}, {"time": 73683, "pitch": 42, "duration": 10, "velocity": 69}, {"time": 73923, "pitch": 38, "duration": 10, "velocity": 118}, {"time": 73923, "pitch": 42, "duration": 10, "velocity": 105}, {"time": 74160, "pitch": 42, "duration": 10, "velocity": 75}, {"time": 74397, "pitch": 36, "duration": 10, "velocity": 118}, {"time": 74397, "pitch": 42, "duration": 10, "velocity": 105}, {"time": 74638, "pitch": 42, "duration": 10, "velocity": 69}, {"time": 74878, "pitch": 38, "duration": 10, "velocity": 126}, {"time": 74878, "pitch": 42, "duration": 10, "velocity": 105}, {"time": 75118, "pitch": 42, "duration": 10, "velocity": 65}, {"time": 75238, "pitch": 36, "duration": 10, "velocity": 64}, {"time": 75358, "pitch": 36, "duration": 10, "velocity": 118}, {"time": 75358, "pitch": 42, "duration": 10, "velocity": 98}, {"time": 75598, "pitch": 42, "duration": 10, "velocity": 65}, {"time": 75839, "pitch": 38, "duration": 10, "velocity": 118}, {"time": 75839, "pitch": 42, "duration": 10, "velocity": 107}, {"time": 76079, "pitch": 42, "duration": 10, "velocity": 54}, {"time": 76319, "pitch": 36, "duration": 10, "velocity": 118}, {"time": 76319, "pitch": 42, "duration": 10, "velocity": 107}, {"time": 76559, "pitch": 42, "duration": 10, "velocity": 57}, {"time": 76799, "pitch": 38, "duration": 11, "velocity": 118}, {"time": 76799, "pitch": 42, "duration": 11, "velocity": 107}, {"time": 77040, "pitch": 42, "duration": 10, "velocity": 43}, {"time": 77280, "pitch": 36, "duration": 10, "velocity": 118}, {"time": 77280, "pitch": 42, "duration": 10, "velocity": 107}, {"time": 77520, "pitch": 42, "duration": 10, "velocity": 65}, {"time": 77760, "pitch": 38, "duration": 10, "velocity": 126}, {"time": 77760, "pitch": 42, "duration": 10, "velocity": 107}, {"time": 78001, "pitch": 42, "duration": 10, "velocity": 67}, {"time": 78241, "pitch": 36, "duration": 10, "velocity": 118}, {"time": 78241, "pitch": 42, "duration": 10, "velocity": 98}, {"time": 78481, "pitch": 42, "duration": 10, "velocity": 75}, {"time": 78721, "pitch": 38, "duration": 10, "velocity": 118}, {"time": 78721, "pitch": 42, "duration": 10, "velocity": 107}, {"time": 78961, "pitch": 42, "duration": 10, "velocity": 61}, {"time": 79082, "pitch": 36, "duration": 10, "velocity": 64}, {"time": 79202, "pitch": 36, "duration": 10, "velocity": 118}, {"time": 79202, "pitch": 42, "duration": 10, "velocity": 107}, {"time": 79442, "pitch": 42, "duration": 10, "velocity": 84}, {"time": 79682, "pitch": 38, "duration": 10, "velocity": 126}, {"time": 79682, "pitch": 42, "duration": 10, "velocity": 107}, {"time": 79922, "pitch": 36, "duration": 10, "velocity": 93}, {"time": 79922, "pitch": 42, "duration": 10, "velocity": 69}, {"time": 80162, "pitch": 36, "duration": 10, "velocity": 111}, {"time": 80162, "pitch": 42, "duration": 10, "velocity": 105}, {"time": 80400, "pitch": 36, "duration": 10, "velocity": 111}, {"time": 80400, "pitch": 42, "duration": 10, "velocity": 98}, {"time": 80637, "pitch": 38, "duration": 10, "velocity": 111}, {"time": 80637, "pitch": 42, "duration": 10, "velocity": 69}, {"time": 80877, "pitch": 42, "duration": 10, "velocity": 78}, {"time": 81117, "pitch": 36, "duration": 10, "velocity": 118}, {"time": 81117, "pitch": 49, "duration": 10, "velocity": 78}, {"time": 81358, "pitch": 42, "duration": 10, "velocity": 52}, {"time": 81478, "pitch": 36, "duration": 10, "velocity": 56}, {"time": 81598, "pitch": 36, "duration": 10, "velocity": 102}, {"time": 81598, "pitch": 38, "duration": 10, "velocity": 106}, {"time": 81598, "pitch": 46, "duration": 10, "velocity": 56}, {"time": 81838, "pitch": 36, "duration": 10, "velocity": 118}, {"time": 81838, "pitch": 46, "duration": 10, "velocity": 70}, {"time": 82078, "pitch": 38, "duration": 10, "velocity": 124}, {"time": 82078, "pitch": 49, "duration": 10, "velocity": 92}, {"time": 82319, "pitch": 36, "duration": 10, "velocity": 98}, {"time": 82319, "pitch": 42, "duration": 10, "velocity": 105}, {"time": 82319, "pitch": 50, "duration": 10, "velocity": 102}, {"time": 82356, "pitch": 50, "duration": 10, "velocity": 70}, {"time": 82439, "pitch": 48, "duration": 10, "velocity": 102}, {"time": 82679, "pitch": 47, "duration": 10, "velocity": 112}, {"time": 82699, "pitch": 47, "duration": 10, "velocity": 70}, {"time": 82799, "pitch": 36, "duration": 10, "velocity": 97}, {"time": 82799, "pitch": 43, "duration": 10, "velocity": 91}, {"time": 82799, "pitch": 45, "duration": 10, "velocity": 102}, {"time": 83039, "pitch": 36, "duration": 10, "velocity": 120}, {"time": 83039, "pitch": 49, "duration": 10, "velocity": 91}, {"time": 83279, "pitch": 51, "duration": 10, "velocity": 61}, {"time": 83520, "pitch": 38, "duration": 10, "velocity": 118}, {"time": 83520, "pitch": 51, "duration": 10, "velocity": 105}, {"time": 83760, "pitch": 36, "duration": 10, "velocity": 98}, {"time": 83760, "pitch": 51, "duration": 10, "velocity": 106}, {"time": 83880, "pitch": 51, "duration": 10, "velocity": 36}, {"time": 84000, "pitch": 36, "duration": 10, "velocity": 118}, {"time": 84000, "pitch": 51, "duration": 10, "velocity": 98}, {"time": 84240, "pitch": 51, "duration": 10, "velocity": 60}, {"time": 84481, "pitch": 38, "duration": 10, "velocity": 118}, {"time": 84481, "pitch": 51, "duration": 10, "velocity": 105}, {"time": 84721, "pitch": 51, "duration": 10, "velocity": 69}, {"time": 84961, "pitch": 36, "duration": 10, "velocity": 118}, {"time": 84961, "pitch": 51, "duration": 10, "velocity": 98}, {"time": 85201, "pitch": 51, "duration": 10, "velocity": 66}, {"time": 85441, "pitch": 38, "duration": 10, "velocity": 118}, {"time": 85441, "pitch": 51, "duration": 10, "velocity": 105}, {"time": 85682, "pitch": 36, "duration": 10, "velocity": 98}, {"time": 85682, "pitch": 51, "duration": 10, "velocity": 106}, {"time": 85802, "pitch": 51, "duration": 10, "velocity": 36}, {"time": 85922, "pitch": 36, "duration": 10, "velocity": 122}, {"time": 85922, "pitch": 51, "duration": 10, "velocity": 105}, {"time": 86162, "pitch": 51, "duration": 10, "velocity": 79}, {"time": 86322, "pitch": 36, "duration": 10, "velocity": 78}, {"time": 86362, "pitch": 36, "duration": 10, "velocity": 78}, {"time": 86402, "pitch": 38, "duration": 10, "velocity": 118}, {"time": 86402, "pitch": 57, "duration": 10, "velocity": 78}, {"time": 86642, "pitch": 51, "duration": 10, "velocity": 87}, {"time": 86883, "pitch": 36, "duration": 10, "velocity": 118}, {"time": 86883, "pitch": 57, "duration": 10, "velocity": 78}, {"time": 87120, "pitch": 51, "duration": 10, "velocity": 57}, {"time": 87357, "pitch": 38, "duration": 10, "velocity": 111}, {"time": 87357, "pitch": 51, "duration": 10, "velocity": 105}, {"time": 87597, "pitch": 36, "duration": 10, "velocity": 98}, {"time": 87597, "pitch": 51, "duration": 10, "velocity": 106}, {"time": 87718, "pitch": 51, "duration": 10, "velocity": 36}, {"time": 87838, "pitch": 36, "duration": 10, "velocity": 120}, {"time": 87838, "pitch": 51, "duration": 10, "velocity": 105}, {"time": 88078, "pitch": 51, "duration": 10, "velocity": 58}, {"time": 88318, "pitch": 38, "duration": 10, "velocity": 118}, {"time": 88318, "pitch": 51, "duration": 10, "velocity": 98}, {"time": 88558, "pitch": 36, "duration": 10, "velocity": 98}, {"time": 88558, "pitch": 51, "duration": 10, "velocity": 73}, {"time": 88798, "pitch": 36, "duration": 10, "velocity": 118}, {"time": 88798, "pitch": 51, "duration": 10, "velocity": 98}, {"time": 89039, "pitch": 51, "duration": 10, "velocity": 65}, {"time": 89279, "pitch": 38, "duration": 10, "velocity": 118}, {"time": 89279, "pitch": 51, "duration": 10, "velocity": 77}, {"time": 89519, "pitch": 36, "duration": 10, "velocity": 98}, {"time": 89519, "pitch": 51, "duration": 10, "velocity": 82}, {"time": 89759, "pitch": 36, "duration": 10, "velocity": 118}, {"time": 89759, "pitch": 51, "duration": 10, "velocity": 106}, {"time": 89879, "pitch": 51, "duration": 10, "velocity": 36}, {"time": 90000, "pitch": 38, "duration": 10, "velocity": 91}, {"time": 90000, "pitch": 51, "duration": 10, "velocity": 78}, {"time": 90240, "pitch": 51, "duration": 10, "velocity": 91}, {"time": 90360, "pitch": 48, "duration": 10, "velocity": 91}, {"time": 90480, "pitch": 36, "duration": 10, "velocity": 105}, {"time": 90480, "pitch": 45, "duration": 10, "velocity": 91}, {"time": 90480, "pitch": 51, "duration": 10, "velocity": 104}, {"time": 90720, "pitch": 36, "duration": 10, "velocity": 115}, {"time": 90720, "pitch": 49, "duration": 10, "velocity": 93}, {"time": 90960, "pitch": 42, "duration": 10, "velocity": 50}, {"time": 91201, "pitch": 38, "duration": 10, "velocity": 118}, {"time": 91201, "pitch": 42, "duration": 10, "velocity": 106}, {"time": 91441, "pitch": 42, "duration": 10, "velocity": 50}, {"time": 91681, "pitch": 36, "duration": 10, "velocity": 120}, {"time": 91681, "pitch": 42, "duration": 10, "velocity": 106}, {"time": 91921, "pitch": 42, "duration": 10, "velocity": 50}, {"time": 92162, "pitch": 38, "duration": 10, "velocity": 118}, {"time": 92162, "pitch": 42, "duration": 10, "velocity": 106}, {"time": 92282, "pitch": 42, "duration": 10, "velocity": 36}, {"time": 92402, "pitch": 42, "duration": 10, "velocity": 50}, {"time": 92642, "pitch": 36, "duration": 10, "velocity": 120}, {"time": 92642, "pitch": 42, "duration": 10, "velocity": 106}, {"time": 92882, "pitch": 42, "duration": 10, "velocity": 50}, {"time": 93122, "pitch": 38, "duration": 10, "velocity": 111}, {"time": 93122, "pitch": 42, "duration": 10, "velocity": 106}, {"time": 93363, "pitch": 36, "duration": 10, "velocity": 93}, {"time": 93363, "pitch": 42, "duration": 10, "velocity": 50}, {"time": 93603, "pitch": 36, "duration": 10, "velocity": 118}, {"time": 93603, "pitch": 42, "duration": 10, "velocity": 106}, {"time": 93840, "pitch": 42, "duration": 10, "velocity": 50}, {"time": 94077, "pitch": 38, "duration": 10, "velocity": 111}, {"time": 94077, "pitch": 42, "duration": 10, "velocity": 106}, {"time": 94318, "pitch": 42, "duration": 10, "velocity": 50}, {"time": 94558, "pitch": 36, "duration": 10, "velocity": 115}, {"time": 94558, "pitch": 42, "duration": 10, "velocity": 106}, {"time": 94798, "pitch": 42, "duration": 10, "velocity": 50}, {"time": 95038, "pitch": 38, "duration": 10, "velocity": 118}, {"time": 95038, "pitch": 46, "duration": 10, "velocity": 57}, {"time": 95278, "pitch": 36, "duration": 10, "velocity": 98}, {"time": 95278, "pitch": 46, "duration": 10, "velocity": 58}, {"time": 95519, "pitch": 36, "duration": 10, "velocity": 118}, {"time": 95519, "pitch": 38, "duration": 10, "velocity": 91}, {"time": 95519, "pitch": 46, "duration": 10, "velocity": 50}, {"time": 95540, "pitch": 38, "duration": 10, "velocity": 90}, {"time": 95999, "pitch": 44, "duration": 10, "velocity": 78}, {"time": 96479, "pitch": 36, "duration": 10, "velocity": 122}, {"time": 96479, "pitch": 49, "duration": 10, "velocity": 91}, {"time": 96720, "pitch": 42, "duration": 10, "velocity": 50}, {"time": 96960, "pitch": 38, "duration": 10, "velocity": 118}, {"time": 96960, "pitch": 42, "duration": 10, "velocity": 106}, {"time": 97200, "pitch": 42, "duration": 10, "velocity": 50}, {"time": 97320, "pitch": 36, "duration": 10, "velocity": 64}, {"time": 97440, "pitch": 36, "duration": 10, "velocity": 106}, {"time": 97440, "pitch": 42, "duration": 10, "velocity": 106}, {"time": 97681, "pitch": 36, "duration": 10, "velocity": 106}, {"time": 97681, "pitch": 42, "duration": 10, "velocity": 50}, {"time": 97921, "pitch": 38, "duration": 10, "velocity": 118}, {"time": 97921, "pitch": 42, "duration": 10, "velocity": 106}, {"time": 98161, "pitch": 42, "duration": 10, "velocity": 50}, {"time": 98401, "pitch": 36, "duration": 10, "velocity": 118}, {"time": 98401, "pitch": 42, "duration": 10, "velocity": 106}, {"time": 98641, "pitch": 42, "duration": 10, "velocity": 50}, {"time": 98762, "pitch": 36, "duration": 10, "velocity": 78}, {"time": 98882, "pitch": 38, "duration": 10, "velocity": 118}, {"time": 98882, "pitch": 42, "duration": 10, "velocity": 106}, {"time": 99122, "pitch": 42, "duration": 10, "velocity": 50}, {"time": 99362, "pitch": 36, "duration": 10, "velocity": 122}, {"time": 99362, "pitch": 42, "duration": 10, "velocity": 106}, {"time": 99722, "pitch": 36, "duration": 10, "velocity": 78}, {"time": 99843, "pitch": 38, "duration": 10, "velocity": 118}, {"time": 99843, "pitch": 49, "duration": 10, "velocity": 78}, {"time": 99963, "pitch": 36, "duration": 10, "velocity": 98}, {"time": 100083, "pitch": 42, "duration": 10, "velocity": 51}, {"time": 100323, "pitch": 36, "duration": 10, "velocity": 118}, {"time": 100323, "pitch": 49, "duration": 10, "velocity": 127}, {"time": 100560, "pitch": 42, "duration": 10, "velocity": 50}, {"time": 100797, "pitch": 38, "duration": 10, "velocity": 111}, {"time": 100797, "pitch": 42, "duration": 10, "velocity": 78}, {"time": 101038, "pitch": 42, "duration": 10, "velocity": 50}, {"time": 101158, "pitch": 36, "duration": 10, "velocity": 78}, {"time": 101278, "pitch": 36, "duration": 10, "velocity": 106}, {"time": 101278, "pitch": 42, "duration": 10, "velocity": 78}, {"time": 101518, "pitch": 36, "duration": 10, "velocity": 106}, {"time": 101518, "pitch": 42, "duration": 10, "velocity": 50}, {"time": 101758, "pitch": 38, "duration": 10, "velocity": 118}, {"time": 101758, "pitch": 42, "duration": 10, "velocity": 78}, {"time": 101999, "pitch": 42, "duration": 10, "velocity": 50}, {"time": 102239, "pitch": 36, "duration": 10, "velocity": 118}, {"time": 102239, "pitch": 42, "duration": 10, "velocity": 78}, {"time": 102479, "pitch": 42, "duration": 10, "velocity": 50}, {"time": 102599, "pitch": 36, "duration": 10, "velocity": 83}, {"time": 102719, "pitch": 38, "duration": 10, "velocity": 106}, {"time": 102719, "pitch": 42, "duration": 10, "velocity": 78}, {"time": 102959, "pitch": 36, "duration": 10, "velocity": 64}, {"time": 102959, "pitch": 42, "duration": 10, "velocity": 50}, {"time": 103200, "pitch": 36, "duration": 10, "velocity": 92}, {"time": 103200, "pitch": 42, "duration": 10, "velocity": 78}, {"time": 103440, "pitch": 42, "duration": 10, "velocity": 50}, {"time": 103680, "pitch": 38, "duration": 10, "velocity": 118}, {"time": 103680, "pitch": 42, "duration": 10, "velocity": 78}, {"time": 103920, "pitch": 36, "duration": 10, "velocity": 105}, {"time": 103920, "pitch": 42, "duration": 10, "velocity": 50}, {"time": 104160, "pitch": 36, "duration": 10, "velocity": 127}, {"time": 104401, "pitch": 38, "duration": 10, "velocity": 92}, {"time": 104415, "pitch": 38, "duration": 10, "velocity": 96}, {"time": 104641, "pitch": 36, "duration": 10, "velocity": 93}, {"time": 104761, "pitch": 48, "duration": 10, "velocity": 92}, {"time": 105001, "pitch": 43, "duration": 10, "velocity": 88}, {"time": 105121, "pitch": 36, "duration": 10, "velocity": 118}, {"time": 105121, "pitch": 48, "duration": 10, "velocity": 92}, {"time": 105138, "pitch": 48, "duration": 10, "velocity": 100}, {"time": 105482, "pitch": 45, "duration": 10, "velocity": 92}, {"time": 105602, "pitch": 36, "duration": 10, "velocity": 63}, {"time": 105842, "pitch": 41, "duration": 10, "velocity": 92}, {"time": 105862, "pitch": 41, "duration": 10, "velocity": 92}, {"time": 106082, "pitch": 36, "duration": 10, "velocity": 118}, {"time": 106082, "pitch": 49, "duration": 10, "velocity": 92}, {"time": 106322, "pitch": 51, "duration": 10, "velocity": 90}, {"time": 106443, "pitch": 36, "duration": 10, "velocity": 78}, {"time": 106563, "pitch": 38, "duration": 10, "velocity": 118}, {"time": 106563, "pitch": 49, "duration": 10, "velocity": 90}, {"time": 106800, "pitch": 36, "duration": 10, "velocity": 101}, {"time": 106800, "pitch": 38, "duration": 10, "velocity": 127}, {"time": 106800, "pitch": 46, "duration": 10, "velocity": 84}, {"time": 107037, "pitch": 36, "duration": 10, "velocity": 118}, {"time": 107037, "pitch": 46, "duration": 10, "velocity": 84}, {"time": 107037, "pitch": 57, "duration": 10, "velocity": 84}, {"time": 107197, "pitch": 38, "duration": 10, "velocity": 94}, {"time": 107277, "pitch": 38, "duration": 10, "velocity": 98}, {"time": 107357, "pitch": 38, "duration": 10, "velocity": 104}, {"time": 107438, "pitch": 38, "duration": 10, "velocity": 119}, {"time": 107518, "pitch": 36, "duration": 10, "velocity": 120}, {"time": 107518, "pitch": 49, "duration": 10, "velocity": 84}, {"time": 107678, "pitch": 38, "duration": 10, "velocity": 111}, {"time": 107758, "pitch": 38, "duration": 10, "velocity": 97}, {"time": 107838, "pitch": 38, "duration": 10, "velocity": 98}, {"time": 107918, "pitch": 38, "duration": 10, "velocity": 127}, {"time": 107998, "pitch": 36, "duration": 10, "velocity": 118}, {"time": 107998, "pitch": 49, "duration": 10, "velocity": 97}, {"time": 108238, "pitch": 46, "duration": 10, "velocity": 87}, {"time": 108478, "pitch": 38, "duration": 10, "velocity": 108}, {"time": 108478, "pitch": 46, "duration": 10, "velocity": 108}, {"time": 108719, "pitch": 36, "duration": 10, "velocity": 105}, {"time": 108719, "pitch": 38, "duration": 10, "velocity": 102}, {"time": 108719, "pitch": 46, "duration": 10, "velocity": 102}, {"time": 108959, "pitch": 36, "duration": 10, "velocity": 115}, {"time": 108959, "pitch": 50, "duration": 10, "velocity": 106}, {"time": 109019, "pitch": 50, "duration": 10, "velocity": 106}, {"time": 109079, "pitch": 50, "duration": 10, "velocity": 64}, {"time": 109139, "pitch": 50, "duration": 10, "velocity": 64}, {"time": 109199, "pitch": 36, "duration": 10, "velocity": 109}, {"time": 109199, "pitch": 48, "duration": 10, "velocity": 106}, {"time": 109259, "pitch": 48, "duration": 10, "velocity": 78}, {"time": 109319, "pitch": 48, "duration": 10, "velocity": 50}, {"time": 109379, "pitch": 48, "duration": 10, "velocity": 50}, {"time": 109439, "pitch": 36, "duration": 10, "velocity": 109}, {"time": 109439, "pitch": 47, "duration": 10, "velocity": 102}, {"time": 109499, "pitch": 47, "duration": 10, "velocity": 92}, {"time": 109559, "pitch": 47, "duration": 10, "velocity": 50}, {"time": 109619, "pitch": 47, "duration": 10, "velocity": 50}, {"time": 109680, "pitch": 36, "duration": 10, "velocity": 109}, {"time": 109680, "pitch": 43, "duration": 10, "velocity": 78}, {"time": 109740, "pitch": 43, "duration": 10, "velocity": 78}, {"time": 109800, "pitch": 43, "duration": 10, "velocity": 78}, {"time": 109860, "pitch": 43, "duration": 10, "velocity": 78}, {"time": 109920, "pitch": 36, "duration": 10, "velocity": 120}, {"time": 109920, "pitch": 49, "duration": 10, "velocity": 109}, {"time": 110160, "pitch": 51, "duration": 10, "velocity": 109}, {"time": 110400, "pitch": 36, "duration": 10, "velocity": 102}, {"time": 110400, "pitch": 38, "duration": 10, "velocity": 102}, {"time": 110400, "pitch": 49, "duration": 10, "velocity": 102}, {"time": 110640, "pitch": 38, "duration": 10, "velocity": 120}, {"time": 110640, "pitch": 51, "duration": 10, "velocity": 109}, {"time": 110881, "pitch": 38, "duration": 10, "velocity": 118}, {"time": 110881, "pitch": 51, "duration": 10, "velocity": 109}, {"time": 111041, "pitch": 47, "duration": 10, "velocity": 109}, {"time": 111121, "pitch": 36, "duration": 10, "velocity": 104}, {"time": 111121, "pitch": 50, "duration": 10, "velocity": 104}, {"time": 111201, "pitch": 48, "duration": 10, "velocity": 99}, {"time": 111281, "pitch": 45, "duration": 10, "velocity": 86}, {"time": 111361, "pitch": 36, "duration": 10, "velocity": 120}, {"time": 111361, "pitch": 49, "duration": 10, "velocity": 92}, {"time": 111521, "pitch": 38, "duration": 10, "velocity": 120}, {"time": 111601, "pitch": 38, "duration": 10, "velocity": 93}, {"time": 111681, "pitch": 38, "duration": 10, "velocity": 104}, {"time": 111761, "pitch": 38, "duration": 10, "velocity": 120}, {"time": 111841, "pitch": 36, "duration": 10, "velocity": 120}, {"time": 111841, "pitch": 49, "duration": 10, "velocity": 91}, {"time": 112082, "pitch": 51, "duration": 10, "velocity": 61}, {"time": 112322, "pitch": 38, "duration": 10, "velocity": 118}, {"time": 112322, "pitch": 51, "duration": 10, "velocity": 105}, {"time": 112562, "pitch": 36, "duration": 10, "velocity": 98}, {"time": 112562, "pitch": 51, "duration": 10, "velocity": 106}, {"time": 112682, "pitch": 51, "duration": 10, "velocity": 36}, {"time": 112802, "pitch": 36, "duration": 10, "velocity": 118}, {"time": 112802, "pitch": 51, "duration": 10, "velocity": 98}, {"time": 113043, "pitch": 51, "duration": 10, "velocity": 60}, {"time": 113283, "pitch": 38, "duration": 10, "velocity": 118}, {"time": 113283, "pitch": 51, "duration": 10, "velocity": 105}, {"time": 113520, "pitch": 51, "duration": 10, "velocity": 69}, {"time": 113757, "pitch": 36, "duration": 10, "velocity": 118}, {"time": 113757, "pitch": 51, "duration": 10, "velocity": 98}, {"time": 113998, "pitch": 51, "duration": 10, "velocity": 66}, {"time": 114238, "pitch": 38, "duration": 10, "velocity": 118}, {"time": 114238, "pitch": 51, "duration": 10, "velocity": 105}, {"time": 114478, "pitch": 36, "duration": 10, "velocity": 98}, {"time": 114478, "pitch": 51, "duration": 10, "velocity": 106}, {"time": 114598, "pitch": 51, "duration": 10, "velocity": 36}, {"time": 114718, "pitch": 36, "duration": 10, "velocity": 122}, {"time": 114718, "pitch": 51, "duration": 10, "velocity": 105}, {"time": 114958, "pitch": 51, "duration": 10, "velocity": 79}, {"time": 115199, "pitch": 38, "duration": 10, "velocity": 118}, {"time": 115199, "pitch": 49, "duration": 10, "velocity": 105}, {"time": 115439, "pitch": 36, "duration": 10, "velocity": 98}, {"time": 115439, "pitch": 51, "duration": 10, "velocity": 87}, {"time": 115679, "pitch": 36, "duration": 10, "velocity": 118}, {"time": 115679, "pitch": 51, "duration": 10, "velocity": 105}, {"time": 115919, "pitch": 51, "duration": 10, "velocity": 57}, {"time": 116159, "pitch": 38, "duration": 10, "velocity": 111}, {"time": 116159, "pitch": 51, "duration": 10, "velocity": 105}, {"time": 116400, "pitch": 36, "duration": 10, "velocity": 98}, {"time": 116400, "pitch": 51, "duration": 10, "velocity": 106}, {"time": 116520, "pitch": 51, "duration": 10, "velocity": 36}, {"time": 116640, "pitch": 36, "duration": 10, "velocity": 120}, {"time": 116640, "pitch": 51, "duration": 10, "velocity": 105}, {"time": 116880, "pitch": 51, "duration": 10, "velocity": 58}, {"time": 117120, "pitch": 38, "duration": 10, "velocity": 118}, {"time": 117120, "pitch": 51, "duration": 10, "velocity": 98}, {"time": 117361, "pitch": 51, "duration": 10, "velocity": 73}, {"time": 117601, "pitch": 36, "duration": 10, "velocity": 118}, {"time": 117601, "pitch": 51, "duration": 10, "velocity": 98}, {"time": 117841, "pitch": 51, "duration": 10, "velocity": 65}, {"time": 118081, "pitch": 38, "duration": 10, "velocity": 118}, {"time": 118081, "pitch": 51, "duration": 10, "velocity": 77}, {"time": 118321, "pitch": 36, "duration": 10, "velocity": 98}, {"time": 118321, "pitch": 51, "duration": 10, "velocity": 82}, {"time": 118562, "pitch": 36, "duration": 10, "velocity": 118}, {"time": 118562, "pitch": 51, "duration": 10, "velocity": 106}, {"time": 118682, "pitch": 51, "duration": 10, "velocity": 36}, {"time": 118802, "pitch": 38, "duration": 10, "velocity": 91}, {"time": 118802, "pitch": 51, "duration": 10, "velocity": 72}, {"time": 119042, "pitch": 51, "duration": 10, "velocity": 91}, {"time": 119162, "pitch": 48, "duration": 10, "velocity": 91}, {"time": 119282, "pitch": 36, "duration": 10, "velocity": 105}, {"time": 119282, "pitch": 45, "duration": 10, "velocity": 91}, {"time": 119282, "pitch": 51, "duration": 10, "velocity": 104}, {"time": 119522, "pitch": 36, "duration": 11, "velocity": 115}, {"time": 119522, "pitch": 49, "duration": 11, "velocity": 93}, {"time": 119763, "pitch": 42, "duration": 10, "velocity": 50}, {"time": 120003, "pitch": 38, "duration": 10, "velocity": 118}, {"time": 120003, "pitch": 42, "duration": 10, "velocity": 106}, {"time": 120240, "pitch": 36, "duration": 10, "velocity": 98}, {"time": 120240, "pitch": 42, "duration": 10, "velocity": 50}, {"time": 120477, "pitch": 36, "duration": 10, "velocity": 120}, {"time": 120477, "pitch": 42, "duration": 10, "velocity": 106}, {"time": 120718, "pitch": 42, "duration": 10, "velocity": 50}, {"time": 120958, "pitch": 38, "duration": 10, "velocity": 118}, {"time": 120958, "pitch": 42, "duration": 10, "velocity": 106}, {"time": 121198, "pitch": 42, "duration": 10, "velocity": 50}, {"time": 121438, "pitch": 36, "duration": 10, "velocity": 120}, {"time": 121438, "pitch": 42, "duration": 10, "velocity": 106}, {"time": 121679, "pitch": 42, "duration": 10, "velocity": 50}, {"time": 121919, "pitch": 38, "duration": 10, "velocity": 111}, {"time": 121919, "pitch": 42, "duration": 10, "velocity": 106}, {"time": 122159, "pitch": 36, "duration": 10, "velocity": 93}, {"time": 122159, "pitch": 42, "duration": 10, "velocity": 50}, {"time": 122399, "pitch": 36, "duration": 10, "velocity": 118}, {"time": 122399, "pitch": 42, "duration": 10, "velocity": 106}, {"time": 122639, "pitch": 42, "duration": 10, "velocity": 50}, {"time": 122880, "pitch": 38, "duration": 10, "velocity": 111}, {"time": 122880, "pitch": 42, "duration": 10, "velocity": 106}, {"time": 123120, "pitch": 42, "duration": 10, "velocity": 50}, {"time": 123360, "pitch": 36, "duration": 10, "velocity": 115}, {"time": 123360, "pitch": 42, "duration": 10, "velocity": 106}, {"time": 123600, "pitch": 42, "duration": 10, "velocity": 50}, {"time": 123840, "pitch": 38, "duration": 10, "velocity": 118}, {"time": 123840, "pitch": 42, "duration": 10, "velocity": 106}, {"time": 124081, "pitch": 36, "duration": 10, "velocity": 98}, {"time": 124081, "pitch": 42, "duration": 10, "velocity": 50}, {"time": 124321, "pitch": 36, "duration": 10, "velocity": 118}, {"time": 124321, "pitch": 38, "duration": 10, "velocity": 120}, {"time": 124321, "pitch": 49, "duration": 10, "velocity": 100}, {"time": 125282, "pitch": 36, "duration": 10, "velocity": 115}, {"time": 125282, "pitch": 49, "duration": 10, "velocity": 105}, {"time": 125522, "pitch": 42, "duration": 10, "velocity": 69}, {"time": 125762, "pitch": 38, "duration": 10, "velocity": 118}, {"time": 125762, "pitch": 46, "duration": 10, "velocity": 94}, {"time": 126002, "pitch": 42, "duration": 10, "velocity": 61}, {"time": 126123, "pitch": 36, "duration": 10, "velocity": 78}, {"time": 126243, "pitch": 36, "duration": 9, "velocity": 120}, {"time": 126243, "pitch": 42, "duration": 9, "velocity": 94}, {"time": 126480, "pitch": 42, "duration": 10, "velocity": 39}, {"time": 126717, "pitch": 38, "duration": 10, "velocity": 118}, {"time": 126717, "pitch": 42, "duration": 10, "velocity": 93}, {"time": 126957, "pitch": 42, "duration": 10, "velocity": 69}, {"time": 127198, "pitch": 36, "duration": 10, "velocity": 120}, {"time": 127198, "pitch": 42, "duration": 10, "velocity": 94}, {"time": 127438, "pitch": 42, "duration": 10, "velocity": 39}, {"time": 127678, "pitch": 38, "duration": 10, "velocity": 111}, {"time": 127678, "pitch": 42, "duration": 10, "velocity": 93}, {"time": 127798, "pitch": 36, "duration": 10, "velocity": 106}, {"time": 127918, "pitch": 42, "duration": 10, "velocity": 61}, {"time": 128038, "pitch": 36, "duration": 10, "velocity": 76}, {"time": 128158, "pitch": 36, "duration": 10, "velocity": 118}, {"time": 128158, "pitch": 42, "duration": 10, "velocity": 101}, {"time": 128399, "pitch": 42, "duration": 10, "velocity": 52}, {"time": 128519, "pitch": 36, "duration": 10, "velocity": 93}, {"time": 128639, "pitch": 38, "duration": 10, "velocity": 111}, {"time": 128639, "pitch": 46, "duration": 10, "velocity": 93}, {"time": 128879, "pitch": 42, "duration": 10, "velocity": 61}, {"time": 129119, "pitch": 36, "duration": 10, "velocity": 115}, {"time": 129119, "pitch": 49, "duration": 10, "velocity": 93}, {"time": 129360, "pitch": 42, "duration": 10, "velocity": 115}, {"time": 129600, "pitch": 38, "duration": 10, "velocity": 118}, {"time": 129600, "pitch": 46, "duration": 10, "velocity": 94}, {"time": 129840, "pitch": 36, "duration": 10, "velocity": 98}, {"time": 129840, "pitch": 46, "duration": 10, "velocity": 87}, {"time": 129960, "pitch": 46, "duration": 10, "velocity": 55}, {"time": 130080, "pitch": 36, "duration": 10, "velocity": 118}, {"time": 130080, "pitch": 38, "duration": 10, "velocity": 127}, {"time": 130080, "pitch": 42, "duration": 10, "velocity": 115}, {"time": 130561, "pitch": 42, "duration": 10, "velocity": 115}, {"time": 131041, "pitch": 36, "duration": 10, "velocity": 106}, {"time": 131041, "pitch": 49, "duration": 10, "velocity": 115}, {"time": 131281, "pitch": 42, "duration": 10, "velocity": 53}, {"time": 131521, "pitch": 38, "duration": 10, "velocity": 118}, {"time": 131521, "pitch": 42, "duration": 10, "velocity": 98}, {"time": 131762, "pitch": 42, "duration": 10, "velocity": 65}, {"time": 132002, "pitch": 36, "duration": 10, "velocity": 115}, {"time": 132002, "pitch": 42, "duration": 10, "velocity": 98}, {"time": 132242, "pitch": 42, "duration": 10, "velocity": 43}, {"time": 132482, "pitch": 38, "duration": 10, "velocity": 118}, {"time": 132482, "pitch": 42, "duration": 10, "velocity": 105}, {"time": 132723, "pitch": 42, "duration": 10, "velocity": 73}, {"time": 132963, "pitch": 36, "duration": 10, "velocity": 115}, {"time": 132963, "pitch": 42, "duration": 10, "velocity": 105}, {"time": 133200, "pitch": 42, "duration": 10, "velocity": 73}, {"time": 133437, "pitch": 38, "duration": 10, "velocity": 118}, {"time": 133437, "pitch": 42, "duration": 10, "velocity": 105}, {"time": 133677, "pitch": 42, "duration": 11, "velocity": 73}, {"time": 133798, "pitch": 36, "duration": 10, "velocity": 111}, {"time": 133918, "pitch": 42, "duration": 10, "velocity": 105}, {"time": 134158, "pitch": 36, "duration": 10, "velocity": 89}, {"time": 134158, "pitch": 42, "duration": 10, "velocity": 89}, {"time": 134278, "pitch": 42, "duration": 10, "velocity": 64}, {"time": 134398, "pitch": 38, "duration": 10, "velocity": 114}, {"time": 134398, "pitch": 46, "duration": 10, "velocity": 114}, {"time": 134638, "pitch": 36, "duration": 10, "velocity": 91}, {"time": 134638, "pitch": 42, "duration": 10, "velocity": 54}, {"time": 134638, "pitch": 49, "duration": 10, "velocity": 91}, {"time": 134879, "pitch": 36, "duration": 10, "velocity": 111}, {"time": 134879, "pitch": 42, "duration": 10, "velocity": 40}, {"time": 134879, "pitch": 57, "duration": 10, "velocity": 107}, {"time": 135119, "pitch": 42, "duration": 10, "velocity": 53}, {"time": 135359, "pitch": 38, "duration": 10, "velocity": 118}, {"time": 135359, "pitch": 42, "duration": 10, "velocity": 98}, {"time": 135599, "pitch": 42, "duration": 10, "velocity": 65}, {"time": 135839, "pitch": 36, "duration": 10, "velocity": 115}, {"time": 135839, "pitch": 42, "duration": 10, "velocity": 98}, {"time": 136080, "pitch": 42, "duration": 10, "velocity": 43}, {"time": 136320, "pitch": 38, "duration": 10, "velocity": 118}, {"time": 136320, "pitch": 42, "duration": 10, "velocity": 105}, {"time": 136560, "pitch": 42, "duration": 10, "velocity": 51}, {"time": 136560, "pitch": 47, "duration": 10, "velocity": 73}, {"time": 136800, "pitch": 36, "duration": 10, "velocity": 115}, {"time": 136800, "pitch": 42, "duration": 10, "velocity": 105}, {"time": 137041, "pitch": 42, "duration": 10, "velocity": 73}, {"time": 137281, "pitch": 38, "duration": 10, "velocity": 118}, {"time": 137281, "pitch": 42, "duration": 10, "velocity": 105}, {"time": 137521, "pitch": 42, "duration": 10, "velocity": 73}, {"time": 137641, "pitch": 36, "duration": 10, "velocity": 111}, {"time": 137761, "pitch": 36, "duration": 10, "velocity": 105}, {"time": 137761, "pitch": 42, "duration": 10, "velocity": 50}, {"time": 137761, "pitch": 49, "duration": 10, "velocity": 78}, {"time": 137761, "pitch": 52, "duration": 10, "velocity": 94}, {"time": 138001, "pitch": 36, "duration": 10, "velocity": 106}, {"time": 138001, "pitch": 42, "duration": 10, "velocity": 36}, {"time": 138242, "pitch": 38, "duration": 10, "velocity": 126}, {"time": 138242, "pitch": 46, "duration": 10, "velocity": 79}, {"time": 138482, "pitch": 36, "duration": 10, "velocity": 113}, {"time": 138482, "pitch": 46, "duration": 10, "velocity": 102}, {"time": 138720, "pitch": 36, "duration": 0, "velocity": 113}, {"time": 138720, "pitch": 42, "duration": 0, "velocity": 40}, {"time": 138720, "pitch": 52, "duration": 0, "velocity": 102}, {"time": 138763, "pitch": 42, "duration": 6, "velocity": 73}, {"time": 138790, "pitch": 36, "duration": 0, "velocity": 102}, {"time": 139147, "pitch": 38, "duration": 85, "velocity": 120}, {"time": 139147, "pitch": 46, "duration": 85, "velocity": 88}, {"time": 139696, "pitch": 36, "duration": 5, "velocity": 93}, {"time": 139696, "pitch": 42, "duration": 5, "velocity": 32}, {"time": 139696, "pitch": 50, "duration": 5, "velocity": 105}, {"time": 139763, "pitch": 36, "duration": 0, "velocity": 118}, {"time": 139763, "pitch": 42, "duration": 0, "velocity": 50}, {"time": 139846, "pitch": 42, "duration": 15, "velocity": 36}, {"time": 139846, "pitch": 48, "duration": 15, "velocity": 118}, {"time": 139866, "pitch": 48, "duration": 11, "velocity": 90}, {"time": 140166, "pitch": 42, "duration": 4, "velocity": 49}, {"time": 140166, "pitch": 47, "duration": 4, "velocity": 118}, {"time": 140176, "pitch": 47, "duration": 4, "velocity": 92}, {"time": 140212, "pitch": 42, "duration": 3, "velocity": 49}, {"time": 140212, "pitch": 45, "duration": 3, "velocity": 96}, {"time": 140261, "pitch": 43, "duration": 3, "velocity": 118}, {"time": 140261, "pitch": 46, "duration": 3, "velocity": 51}, {"time": 140273, "pitch": 43, "duration": 16, "velocity": 90}, {"time": 140636, "pitch": 51, "duration": 5, "velocity": 64}, {"time": 140644, "pitch": 51, "duration": 2, "velocity": 92}, {"time": 140646, "pitch": 51, "duration": 2, "velocity": 60}, {"time": 140701, "pitch": 51, "duration": 3, "velocity": 85}, {"time": 140710, "pitch": 51, "duration": 2, "velocity": 70}, {"time": 140717, "pitch": 51, "duration": 3, "velocity": 85}, {"time": 140726, "pitch": 51, "duration": 2, "velocity": 91}, {"time": 140736, "pitch": 51, "duration": 3, "velocity": 95}, {"time": 140753, "pitch": 51, "duration": 3, "velocity": 87}, {"time": 140774, "pitch": 51, "duration": 3, "velocity": 80}, {"time": 140795, "pitch": 51, "duration": 3, "velocity": 70}, {"time": 140822, "pitch": 51, "duration": 3, "velocity": 64}, {"time": 140848, "pitch": 51, "duration": 3, "velocity": 51}, {"time": 140880, "pitch": 51, "duration": 3, "velocity": 62}, {"time": 140909, "pitch": 51, "duration": 3, "velocity": 48}, {"time": 140954, "pitch": 51, "duration": 5, "velocity": 46}, {"time": 141016, "pitch": 51, "duration": 4, "velocity": 42}, {"time": 141073, "pitch": 51, "duration": 5, "velocity": 52}, {"time": 141164, "pitch": 51, "duration": 12, "velocity": 36}, {"time": 141339, "pitch": 51, "duration": 11, "velocity": 40}], "annotations": [{"time": 346, "annotation": {"number": 0, "value": 0}, "group": "control_change"}, {"time": 365, "annotation": {"number": 32, "value": 0}, "group": "control_change"}, {"time": 403, "annotation": {"number": 7, "value": 120}, "group": "control_change"}, {"time": 422, "annotation": {"number": 11, "value": 100}, "group": "control_change"}, {"time": 442, "annotation": {"number": 91, "value": 50}, "group": "control_change"}, {"time": 461, "annotation": {"number": 101, "value": 127}, "group": "control_change"}, {"time": 480, "annotation": {"number": 100, "value": 127}, "group": "control_change"}, {"time": 124321, "annotation": {"number": 11, "value": 100}, "group": "control_change"}, {"time": 124381, "annotation": {"number": 11, "value": 99}, "group": "control_change"}, {"time": 124411, "annotation": {"number": 11, "value": 96}, "group": "control_change"}, {"time": 124441, "annotation": {"number": 11, "value": 90}, "group": "control_change"}, {"time": 124471, "annotation": {"number": 11, "value": 76}, "group": "control_change"}, {"time": 124501, "annotation": {"number": 11, "value": 45}, "group": "control_change"}, {"time": 124531, "annotation": {"number": 11, "value": 2}, "group": "control_change"}, {"time": 125282, "annotation": {"number": 11, "value": 100}, "group": "control_change"}]}, {"program": 0, "is_drum": false, "name": "gt/c", "annotations": [{"time": 346, "annotation": {"number": 0, "value": 8}, "group": "control_change"}, {"time": 365, "annotation": {"number": 32, "value": 2}, "group": "control_change"}]}, {"program": 27, "is_drum": false, "name": "gt/c", "notes": [{"time": 10074, "pitch": 55, "duration": 959, "velocity": 89}, {"time": 10082, "pitch": 60, "duration": 919, "velocity": 90}, {"time": 10088, "pitch": 64, "duration": 919, "velocity": 95}, {"time": 11039, "pitch": 69, "duration": 721, "velocity": 78}, {"time": 11041, "pitch": 60, "duration": 841, "velocity": 86}, {"time": 11043, "pitch": 65, "duration": 721, "velocity": 91}, {"time": 12000, "pitch": 59, "duration": 841, "velocity": 85}, {"time": 12002, "pitch": 62, "duration": 841, "velocity": 84}, {"time": 12004, "pitch": 67, "duration": 721, "velocity": 83}, {"time": 12961, "pitch": 59, "duration": 119, "velocity": 77}, {"time": 12963, "pitch": 64, "duration": 240, "velocity": 76}, {"time": 12965, "pitch": 68, "duration": 240, "velocity": 81}, {"time": 13201, "pitch": 59, "duration": 241, "velocity": 84}, {"time": 13446, "pitch": 64, "duration": 240, "velocity": 102}, {"time": 13684, "pitch": 62, "duration": 239, "velocity": 102}, {"time": 13922, "pitch": 60, "duration": 841, "velocity": 89}, {"time": 13924, "pitch": 64, "duration": 841, "velocity": 89}, {"time": 13926, "pitch": 69, "duration": 841, "velocity": 79}, {"time": 14883, "pitch": 59, "duration": 715, "velocity": 85}, {"time": 14885, "pitch": 62, "duration": 914, "velocity": 82}, {"time": 14887, "pitch": 67, "duration": 954, "velocity": 77}, {"time": 15838, "pitch": 57, "duration": 841, "velocity": 64}, {"time": 15840, "pitch": 60, "duration": 841, "velocity": 90}, {"time": 15842, "pitch": 65, "duration": 841, "velocity": 80}, {"time": 16799, "pitch": 57, "duration": 439, "velocity": 74}, {"time": 16801, "pitch": 60, "duration": 399, "velocity": 81}, {"time": 16803, "pitch": 65, "duration": 439, "velocity": 84}, {"time": 17279, "pitch": 57, "duration": 240, "velocity": 84}, {"time": 17281, "pitch": 60, "duration": 240, "velocity": 90}, {"time": 17283, "pitch": 65, "duration": 240, "velocity": 85}, {"time": 17760, "pitch": 55, "duration": 840, "velocity": 83}, {"time": 17762, "pitch": 60, "duration": 840, "velocity": 84}, {"time": 17764, "pitch": 64, "duration": 840, "velocity": 84}, {"time": 18720, "pitch": 57, "duration": 721, "velocity": 68}, {"time": 18722, "pitch": 60, "duration": 601, "velocity": 87}, {"time": 18724, "pitch": 64, "duration": 721, "velocity": 90}, {"time": 19441, "pitch": 60, "duration": 199, "velocity": 98}, {"time": 19681, "pitch": 59, "duration": 239, "velocity": 97}, {"time": 19921, "pitch": 62, "duration": 241, "velocity": 98}, {"time": 20162, "pitch": 67, "duration": 479, "velocity": 101}, {"time": 20402, "pitch": 62, "duration": 240, "velocity": 96}, {"time": 20642, "pitch": 56, "duration": 240, "velocity": 89}, {"time": 20882, "pitch": 59, "duration": 241, "velocity": 89}, {"time": 21123, "pitch": 64, "duration": 237, "velocity": 98}, {"time": 21360, "pitch": 59, "duration": 236, "velocity": 88}, {"time": 21597, "pitch": 57, "duration": 1000, "velocity": 69}, {"time": 21842, "pitch": 64, "duration": 241, "velocity": 80}, {"time": 22078, "pitch": 69, "duration": 240, "velocity": 84}, {"time": 22318, "pitch": 64, "duration": 239, "velocity": 94}, {"time": 22558, "pitch": 55, "duration": 841, "velocity": 85}, {"time": 22560, "pitch": 59, "duration": 841, "velocity": 92}, {"time": 22563, "pitch": 67, "duration": 360, "velocity": 95}, {"time": 23038, "pitch": 67, "duration": 361, "velocity": 100}, {"time": 23519, "pitch": 53, "duration": 880, "velocity": 90}, {"time": 23522, "pitch": 57, "duration": 720, "velocity": 95}, {"time": 23524, "pitch": 60, "duration": 920, "velocity": 98}, {"time": 24480, "pitch": 53, "duration": 359, "velocity": 90}, {"time": 24482, "pitch": 57, "duration": 360, "velocity": 95}, {"time": 24487, "pitch": 60, "duration": 360, "velocity": 98}, {"time": 24960, "pitch": 53, "duration": 360, "velocity": 90}, {"time": 24962, "pitch": 57, "duration": 360, "velocity": 95}, {"time": 24964, "pitch": 62, "duration": 360, "velocity": 98}, {"time": 58080, "pitch": 55, "duration": 841, "velocity": 92}, {"time": 58321, "pitch": 60, "duration": 720, "velocity": 92}, {"time": 58561, "pitch": 64, "duration": 480, "velocity": 92}, {"time": 59041, "pitch": 53, "duration": 481, "velocity": 99}, {"time": 59281, "pitch": 57, "duration": 241, "velocity": 93}, {"time": 59522, "pitch": 65, "duration": 119, "velocity": 91}, {"time": 59642, "pitch": 60, "duration": 119, "velocity": 80}, {"time": 59762, "pitch": 57, "duration": 119, "velocity": 84}, {"time": 59882, "pitch": 53, "duration": 119, "velocity": 90}, {"time": 60002, "pitch": 55, "duration": 836, "velocity": 86}, {"time": 60242, "pitch": 59, "duration": 715, "velocity": 92}, {"time": 60483, "pitch": 67, "duration": 355, "velocity": 94}, {"time": 60957, "pitch": 56, "duration": 841, "velocity": 98}, {"time": 61197, "pitch": 59, "duration": 361, "velocity": 84}, {"time": 61437, "pitch": 62, "duration": 120, "velocity": 92}, {"time": 61558, "pitch": 64, "duration": 360, "velocity": 90}, {"time": 61918, "pitch": 57, "duration": 360, "velocity": 94}, {"time": 62158, "pitch": 60, "duration": 240, "velocity": 96}, {"time": 62398, "pitch": 64, "duration": 241, "velocity": 91}, {"time": 62398, "pitch": 69, "duration": 241, "velocity": 75}, {"time": 62639, "pitch": 60, "duration": 240, "velocity": 85}, {"time": 62879, "pitch": 55, "duration": 841, "velocity": 90}, {"time": 63119, "pitch": 59, "duration": 360, "velocity": 93}, {"time": 63359, "pitch": 62, "duration": 361, "velocity": 101}, {"time": 63840, "pitch": 53, "duration": 600, "velocity": 100}, {"time": 64080, "pitch": 57, "duration": 119, "velocity": 85}, {"time": 64200, "pitch": 60, "duration": 360, "velocity": 87}, {"time": 64440, "pitch": 57, "duration": 119, "velocity": 85}, {"time": 64560, "pitch": 53, "duration": 119, "velocity": 85}, {"time": 64680, "pitch": 57, "duration": 120, "velocity": 83}, {"time": 64801, "pitch": 53, "duration": 360, "velocity": 87}, {"time": 64803, "pitch": 57, "duration": 840, "velocity": 90}, {"time": 64806, "pitch": 60, "duration": 480, "velocity": 95}, {"time": 65281, "pitch": 53, "duration": 119, "velocity": 86}, {"time": 65281, "pitch": 62, "duration": 240, "velocity": 90}, {"time": 65521, "pitch": 53, "duration": 199, "velocity": 90}, {"time": 65526, "pitch": 60, "duration": 236, "velocity": 90}, {"time": 65761, "pitch": 55, "duration": 960, "velocity": 80}, {"time": 65764, "pitch": 60, "duration": 1, "velocity": 90}, {"time": 65766, "pitch": 64, "duration": 960, "velocity": 95}, {"time": 66242, "pitch": 60, "duration": 479, "velocity": 79}, {"time": 66722, "pitch": 57, "duration": 361, "velocity": 80}, {"time": 66724, "pitch": 60, "duration": 440, "velocity": 85}, {"time": 66727, "pitch": 65, "duration": 480, "velocity": 90}, {"time": 67203, "pitch": 60, "duration": 196, "velocity": 74}, {"time": 67207, "pitch": 69, "duration": 237, "velocity": 94}, {"time": 67440, "pitch": 60, "duration": 236, "velocity": 86}, {"time": 67440, "pitch": 65, "duration": 236, "velocity": 97}, {"time": 67677, "pitch": 59, "duration": 841, "velocity": 88}, {"time": 67680, "pitch": 67, "duration": 360, "velocity": 92}, {"time": 68158, "pitch": 67, "duration": 360, "velocity": 87}, {"time": 68638, "pitch": 59, "duration": 480, "velocity": 81}, {"time": 68640, "pitch": 62, "duration": 360, "velocity": 91}, {"time": 68642, "pitch": 68, "duration": 721, "velocity": 97}, {"time": 69118, "pitch": 62, "duration": 241, "velocity": 92}, {"time": 69359, "pitch": 59, "duration": 239, "velocity": 86}, {"time": 69599, "pitch": 57, "duration": 480, "velocity": 93}, {"time": 69839, "pitch": 60, "duration": 360, "velocity": 93}, {"time": 70079, "pitch": 69, "duration": 481, "velocity": 91}, {"time": 70320, "pitch": 60, "duration": 240, "velocity": 97}, {"time": 70560, "pitch": 59, "duration": 240, "velocity": 91}, {"time": 70800, "pitch": 62, "duration": 240, "velocity": 92}, {"time": 70920, "pitch": 71, "duration": 240, "velocity": 87}, {"time": 71160, "pitch": 67, "duration": 241, "velocity": 74}, {"time": 71280, "pitch": 62, "duration": 120, "velocity": 98}, {"time": 71521, "pitch": 57, "duration": 239, "velocity": 80}, {"time": 71523, "pitch": 60, "duration": 360, "velocity": 87}, {"time": 71528, "pitch": 65, "duration": 360, "velocity": 102}, {"time": 71761, "pitch": 57, "duration": 360, "velocity": 84}, {"time": 72001, "pitch": 60, "duration": 240, "velocity": 80}, {"time": 72005, "pitch": 65, "duration": 240, "velocity": 90}, {"time": 72241, "pitch": 57, "duration": 241, "velocity": 78}, {"time": 72482, "pitch": 60, "duration": 240, "velocity": 91}, {"time": 72487, "pitch": 65, "duration": 240, "velocity": 98}, {"time": 72722, "pitch": 57, "duration": 240, "velocity": 77}, {"time": 72962, "pitch": 62, "duration": 240, "velocity": 90}, {"time": 72968, "pitch": 67, "duration": 240, "velocity": 95}, {"time": 73202, "pitch": 57, "duration": 119, "velocity": 76}], "annotations": [{"time": 403, "annotation": {"number": 7, "value": 80}, "group": "control_change"}, {"time": 422, "annotation": {"number": 11, "value": 100}, "group": "control_change"}, {"time": 442, "annotation": {"number": 10, "value": 64}, "group": "control_change"}, {"time": 461, "annotation": {"number": 91, "value": 80}, "group": "control_change"}, {"time": 480, "annotation": {"number": 93, "value": 30}, "group": "control_change"}, {"time": 480, "annotation": {"number": 101, "value": 0}, "group": "control_change"}, {"time": 480, "annotation": {"number": 100, "value": 0}, "group": "control_change"}, {"time": 480, "annotation": {"number": 6, "value": 12}, "group": "control_change"}, {"time": 480, "annotation": {"number": 101, "value": 127}, "group": "control_change"}, {"time": 482, "annotation": {"number": 100, "value": 127}, "group": "control_change"}]}, {"program": 0, "is_drum": false, "name": "gt/r", "annotations": [{"time": 346, "annotation": {"number": 0, "value": 0}, "group": "control_change"}, {"time": 365, "annotation": {"number": 32, "value": 0}, "group": "control_change"}]}, {"program": 24, "is_drum": false, "name": "gt/r", "notes": [{"time": 4279, "pitch": 53, "duration": 240, "velocity": 90}, {"time": 4293, "pitch": 57, "duration": 240, "velocity": 95}, {"time": 4327, "pitch": 60, "duration": 119, "velocity": 98}, {"time": 4339, "pitch": 65, "duration": 119, "velocity": 101}, {"time": 4559, "pitch": 57, "duration": 120, "velocity": 90}, {"time": 4561, "pitch": 60, "duration": 120, "velocity": 95}, {"time": 4563, "pitch": 65, "duration": 120, "velocity": 101}, {"time": 4800, "pitch": 57, "duration": 239, "velocity": 90}, {"time": 4802, "pitch": 60, "duration": 239, "velocity": 95}, {"time": 4804, "pitch": 65, "duration": 239, "velocity": 97}, {"time": 5040, "pitch": 57, "duration": 119, "velocity": 90}, {"time": 5042, "pitch": 60, "duration": 119, "velocity": 95}, {"time": 5044, "pitch": 65, "duration": 92, "velocity": 99}, {"time": 5160, "pitch": 65, "duration": 112, "velocity": 90}, {"time": 5162, "pitch": 60, "duration": 119, "velocity": 91}, {"time": 5164, "pitch": 57, "duration": 119, "velocity": 96}, {"time": 5280, "pitch": 55, "duration": 119, "velocity": 91}, {"time": 5282, "pitch": 60, "duration": 119, "velocity": 92}, {"time": 5284, "pitch": 64, "duration": 119, "velocity": 103}, {"time": 5520, "pitch": 55, "duration": 119, "velocity": 90}, {"time": 5522, "pitch": 60, "duration": 119, "velocity": 91}, {"time": 5524, "pitch": 64, "duration": 119, "velocity": 97}, {"time": 5761, "pitch": 55, "duration": 119, "velocity": 91}, {"time": 5763, "pitch": 60, "duration": 119, "velocity": 94}, {"time": 5765, "pitch": 64, "duration": 119, "velocity": 99}, {"time": 6001, "pitch": 55, "duration": 119, "velocity": 90}, {"time": 6003, "pitch": 60, "duration": 119, "velocity": 91}, {"time": 6005, "pitch": 64, "duration": 100, "velocity": 99}, {"time": 6121, "pitch": 64, "duration": 108, "velocity": 90}, {"time": 6123, "pitch": 60, "duration": 119, "velocity": 91}, {"time": 6125, "pitch": 55, "duration": 119, "velocity": 92}, {"time": 6241, "pitch": 57, "duration": 119, "velocity": 90}, {"time": 6243, "pitch": 60, "duration": 119, "velocity": 91}, {"time": 6245, "pitch": 65, "duration": 119, "velocity": 102}, {"time": 6481, "pitch": 57, "duration": 119, "velocity": 90}, {"time": 6483, "pitch": 60, "duration": 119, "velocity": 91}, {"time": 6485, "pitch": 65, "duration": 119, "velocity": 102}, {"time": 6721, "pitch": 57, "duration": 120, "velocity": 90}, {"time": 6723, "pitch": 60, "duration": 120, "velocity": 91}, {"time": 6725, "pitch": 65, "duration": 120, "velocity": 103}, {"time": 6962, "pitch": 57, "duration": 119, "velocity": 90}, {"time": 6964, "pitch": 60, "duration": 119, "velocity": 91}, {"time": 6966, "pitch": 65, "duration": 60, "velocity": 96}, {"time": 7082, "pitch": 65, "duration": 100, "velocity": 90}, {"time": 7084, "pitch": 60, "duration": 119, "velocity": 91}, {"time": 7086, "pitch": 57, "duration": 100, "velocity": 92}, {"time": 7202, "pitch": 57, "duration": 100, "velocity": 90}, {"time": 7204, "pitch": 60, "duration": 119, "velocity": 91}, {"time": 7206, "pitch": 65, "duration": 119, "velocity": 107}, {"time": 7442, "pitch": 57, "duration": 119, "velocity": 90}, {"time": 7444, "pitch": 60, "duration": 119, "velocity": 91}, {"time": 7446, "pitch": 65, "duration": 119, "velocity": 98}, {"time": 7682, "pitch": 57, "duration": 119, "velocity": 90}, {"time": 7684, "pitch": 60, "duration": 240, "velocity": 91}, {"time": 7686, "pitch": 65, "duration": 119, "velocity": 102}, {"time": 7923, "pitch": 57, "duration": 119, "velocity": 90}, {"time": 7925, "pitch": 60, "duration": 119, "velocity": 91}, {"time": 7927, "pitch": 65, "duration": 119, "velocity": 102}, {"time": 8163, "pitch": 55, "duration": 236, "velocity": 90}, {"time": 8165, "pitch": 60, "duration": 236, "velocity": 91}, {"time": 8167, "pitch": 64, "duration": 117, "velocity": 96}, {"time": 8400, "pitch": 55, "duration": 118, "velocity": 90}, {"time": 8402, "pitch": 60, "duration": 118, "velocity": 91}, {"time": 8404, "pitch": 64, "duration": 118, "velocity": 93}, {"time": 8637, "pitch": 55, "duration": 119, "velocity": 90}, {"time": 8639, "pitch": 60, "duration": 119, "velocity": 91}, {"time": 8641, "pitch": 64, "duration": 119, "velocity": 100}, {"time": 8877, "pitch": 55, "duration": 120, "velocity": 90}, {"time": 8879, "pitch": 60, "duration": 120, "velocity": 91}, {"time": 8881, "pitch": 64, "duration": 93, "velocity": 87}, {"time": 8998, "pitch": 64, "duration": 100, "velocity": 90}, {"time": 9000, "pitch": 60, "duration": 119, "velocity": 91}, {"time": 9002, "pitch": 55, "duration": 119, "velocity": 99}, {"time": 9098, "pitch": 43, "duration": 840, "velocity": 90}, {"time": 9114, "pitch": 50, "duration": 720, "velocity": 91}, {"time": 9118, "pitch": 53, "duration": 840, "velocity": 90}, {"time": 9121, "pitch": 57, "duration": 840, "velocity": 91}, {"time": 9123, "pitch": 62, "duration": 840, "velocity": 99}, {"time": 25441, "pitch": 52, "duration": 360, "velocity": 90}, {"time": 25441, "pitch": 55, "duration": 360, "velocity": 91}, {"time": 25443, "pitch": 59, "duration": 360, "velocity": 98}, {"time": 25445, "pitch": 62, "duration": 360, "velocity": 99}, {"time": 25921, "pitch": 52, "duration": 240, "velocity": 91}, {"time": 25921, "pitch": 55, "duration": 360, "velocity": 90}, {"time": 25923, "pitch": 59, "duration": 360, "velocity": 95}, {"time": 25925, "pitch": 62, "duration": 360, "velocity": 102}, {"time": 26401, "pitch": 52, "duration": 361, "velocity": 90}, {"time": 26401, "pitch": 55, "duration": 361, "velocity": 91}, {"time": 26403, "pitch": 59, "duration": 361, "velocity": 95}, {"time": 26405, "pitch": 62, "duration": 361, "velocity": 104}, {"time": 26882, "pitch": 52, "duration": 119, "velocity": 91}, {"time": 26882, "pitch": 55, "duration": 119, "velocity": 90}, {"time": 26884, "pitch": 59, "duration": 119, "velocity": 95}, {"time": 26886, "pitch": 62, "duration": 119, "velocity": 98}, {"time": 27122, "pitch": 52, "duration": 119, "velocity": 90}, {"time": 27122, "pitch": 55, "duration": 119, "velocity": 91}, {"time": 27124, "pitch": 59, "duration": 119, "velocity": 95}, {"time": 27126, "pitch": 62, "duration": 119, "velocity": 99}, {"time": 27362, "pitch": 53, "duration": 361, "velocity": 90}, {"time": 27362, "pitch": 57, "duration": 361, "velocity": 91}, {"time": 27364, "pitch": 60, "duration": 361, "velocity": 95}, {"time": 27366, "pitch": 64, "duration": 361, "velocity": 96}, {"time": 27843, "pitch": 53, "duration": 356, "velocity": 90}, {"time": 27843, "pitch": 57, "duration": 356, "velocity": 91}, {"time": 27845, "pitch": 60, "duration": 356, "velocity": 92}, {"time": 27847, "pitch": 64, "duration": 356, "velocity": 96}, {"time": 28317, "pitch": 53, "duration": 361, "velocity": 91}, {"time": 28317, "pitch": 57, "duration": 361, "velocity": 92}, {"time": 28319, "pitch": 60, "duration": 361, "velocity": 95}, {"time": 28321, "pitch": 64, "duration": 361, "velocity": 100}, {"time": 28798, "pitch": 53, "duration": 119, "velocity": 90}, {"time": 28798, "pitch": 57, "duration": 119, "velocity": 91}, {"time": 28800, "pitch": 60, "duration": 119, "velocity": 92}, {"time": 28802, "pitch": 64, "duration": 119, "velocity": 99}, {"time": 29038, "pitch": 53, "duration": 119, "velocity": 90}, {"time": 29038, "pitch": 57, "duration": 119, "velocity": 91}, {"time": 29040, "pitch": 60, "duration": 119, "velocity": 92}, {"time": 29042, "pitch": 64, "duration": 119, "velocity": 100}, {"time": 29278, "pitch": 55, "duration": 360, "velocity": 90}, {"time": 29280, "pitch": 59, "duration": 360, "velocity": 91}, {"time": 29282, "pitch": 62, "duration": 360, "velocity": 92}, {"time": 29759, "pitch": 52, "duration": 192, "velocity": 102}, {"time": 29759, "pitch": 55, "duration": 180, "velocity": 82}, {"time": 29761, "pitch": 59, "duration": 200, "velocity": 85}, {"time": 29763, "pitch": 62, "duration": 180, "velocity": 100}, {"time": 29999, "pitch": 52, "duration": 119, "velocity": 90}, {"time": 29999, "pitch": 55, "duration": 119, "velocity": 91}, {"time": 30001, "pitch": 59, "duration": 119, "velocity": 92}, {"time": 30003, "pitch": 62, "duration": 119, "velocity": 100}, {"time": 30119, "pitch": 52, "duration": 119, "velocity": 90}, {"time": 30119, "pitch": 55, "duration": 119, "velocity": 91}, {"time": 30121, "pitch": 59, "duration": 119, "velocity": 92}, {"time": 30123, "pitch": 62, "duration": 119, "velocity": 97}, {"time": 30239, "pitch": 52, "duration": 360, "velocity": 90}, {"time": 30239, "pitch": 55, "duration": 360, "velocity": 91}, {"time": 30241, "pitch": 59, "duration": 360, "velocity": 98}, {"time": 30243, "pitch": 62, "duration": 360, "velocity": 102}, {"time": 30719, "pitch": 52, "duration": 241, "velocity": 91}, {"time": 30719, "pitch": 55, "duration": 241, "velocity": 90}, {"time": 30721, "pitch": 59, "duration": 361, "velocity": 92}, {"time": 30723, "pitch": 62, "duration": 241, "velocity": 96}, {"time": 31200, "pitch": 53, "duration": 360, "velocity": 90}, {"time": 31200, "pitch": 57, "duration": 360, "velocity": 91}, {"time": 31202, "pitch": 60, "duration": 360, "velocity": 100}, {"time": 31204, "pitch": 64, "duration": 360, "velocity": 90}, {"time": 31680, "pitch": 53, "duration": 119, "velocity": 91}, {"time": 31680, "pitch": 57, "duration": 119, "velocity": 98}, {"time": 31682, "pitch": 60, "duration": 119, "velocity": 100}, {"time": 31684, "pitch": 64, "duration": 119, "velocity": 90}, {"time": 31920, "pitch": 53, "duration": 120, "velocity": 91}, {"time": 31920, "pitch": 57, "duration": 120, "velocity": 92}, {"time": 31922, "pitch": 60, "duration": 120, "velocity": 100}, {"time": 31924, "pitch": 64, "duration": 120, "velocity": 90}, {"time": 32161, "pitch": 55, "duration": 360, "velocity": 91}, {"time": 32161, "pitch": 59, "duration": 360, "velocity": 92}, {"time": 32165, "pitch": 62, "duration": 360, "velocity": 100}, {"time": 32641, "pitch": 55, "duration": 119, "velocity": 90}, {"time": 32641, "pitch": 59, "duration": 212, "velocity": 91}, {"time": 32645, "pitch": 62, "duration": 200, "velocity": 92}, {"time": 32881, "pitch": 55, "duration": 119, "velocity": 99}, {"time": 32881, "pitch": 59, "duration": 119, "velocity": 90}, {"time": 32885, "pitch": 62, "duration": 119, "velocity": 100}, {"time": 33122, "pitch": 53, "duration": 360, "velocity": 90}, {"time": 33122, "pitch": 57, "duration": 360, "velocity": 91}, {"time": 33124, "pitch": 60, "duration": 360, "velocity": 92}, {"time": 33126, "pitch": 64, "duration": 360, "velocity": 95}, {"time": 33602, "pitch": 53, "duration": 119, "velocity": 91}, {"time": 33602, "pitch": 57, "duration": 180, "velocity": 90}, {"time": 33604, "pitch": 60, "duration": 192, "velocity": 92}, {"time": 33606, "pitch": 64, "duration": 119, "velocity": 100}, {"time": 33842, "pitch": 53, "duration": 119, "velocity": 90}, {"time": 33842, "pitch": 57, "duration": 119, "velocity": 92}, {"time": 33844, "pitch": 60, "duration": 119, "velocity": 93}, {"time": 33846, "pitch": 64, "duration": 100, "velocity": 100}, {"time": 33962, "pitch": 64, "duration": 132, "velocity": 90}, {"time": 33964, "pitch": 60, "duration": 119, "velocity": 91}, {"time": 33965, "pitch": 57, "duration": 119, "velocity": 95}, {"time": 33967, "pitch": 53, "duration": 119, "velocity": 100}, {"time": 34082, "pitch": 55, "duration": 120, "velocity": 90}, {"time": 34084, "pitch": 59, "duration": 120, "velocity": 91}, {"time": 34086, "pitch": 62, "duration": 213, "velocity": 92}, {"time": 34323, "pitch": 55, "duration": 119, "velocity": 90}, {"time": 34326, "pitch": 59, "duration": 119, "velocity": 91}, {"time": 34327, "pitch": 62, "duration": 119, "velocity": 92}, {"time": 34563, "pitch": 55, "duration": 117, "velocity": 92}, {"time": 34565, "pitch": 59, "duration": 117, "velocity": 95}, {"time": 34567, "pitch": 62, "duration": 117, "velocity": 98}, {"time": 34800, "pitch": 55, "duration": 118, "velocity": 90}, {"time": 34802, "pitch": 59, "duration": 118, "velocity": 91}, {"time": 34804, "pitch": 62, "duration": 118, "velocity": 92}, {"time": 35037, "pitch": 55, "duration": 119, "velocity": 90}, {"time": 35039, "pitch": 60, "duration": 119, "velocity": 92}, {"time": 35041, "pitch": 64, "duration": 119, "velocity": 98}, {"time": 35278, "pitch": 55, "duration": 119, "velocity": 90}, {"time": 35280, "pitch": 60, "duration": 119, "velocity": 92}, {"time": 35282, "pitch": 64, "duration": 119, "velocity": 98}, {"time": 35518, "pitch": 55, "duration": 119, "velocity": 90}, {"time": 35520, "pitch": 60, "duration": 119, "velocity": 91}, {"time": 35522, "pitch": 64, "duration": 119, "velocity": 100}, {"time": 35758, "pitch": 55, "duration": 119, "velocity": 90}, {"time": 35760, "pitch": 60, "duration": 119, "velocity": 92}, {"time": 35762, "pitch": 64, "duration": 119, "velocity": 99}, {"time": 35998, "pitch": 56, "duration": 119, "velocity": 90}, {"time": 36000, "pitch": 59, "duration": 119, "velocity": 91}, {"time": 36002, "pitch": 64, "duration": 119, "velocity": 95}, {"time": 36238, "pitch": 56, "duration": 120, "velocity": 90}, {"time": 36240, "pitch": 59, "duration": 120, "velocity": 95}, {"time": 36242, "pitch": 64, "duration": 102, "velocity": 98}, {"time": 36359, "pitch": 64, "duration": 109, "velocity": 90}, {"time": 36361, "pitch": 59, "duration": 99, "velocity": 95}, {"time": 36363, "pitch": 56, "duration": 97, "velocity": 98}, {"time": 36479, "pitch": 56, "duration": 120, "velocity": 90}, {"time": 36481, "pitch": 59, "duration": 119, "velocity": 95}, {"time": 36483, "pitch": 64, "duration": 119, "velocity": 98}, {"time": 36719, "pitch": 56, "duration": 119, "velocity": 90}, {"time": 36721, "pitch": 59, "duration": 119, "velocity": 95}, {"time": 36723, "pitch": 64, "duration": 119, "velocity": 98}, {"time": 36959, "pitch": 57, "duration": 119, "velocity": 90}, {"time": 36961, "pitch": 60, "duration": 119, "velocity": 98}, {"time": 36963, "pitch": 64, "duration": 119, "velocity": 99}, {"time": 37199, "pitch": 57, "duration": 119, "velocity": 90}, {"time": 37201, "pitch": 60, "duration": 119, "velocity": 95}, {"time": 37203, "pitch": 64, "duration": 100, "velocity": 98}, {"time": 37320, "pitch": 64, "duration": 88, "velocity": 91}, {"time": 37321, "pitch": 60, "duration": 120, "velocity": 92}, {"time": 37324, "pitch": 57, "duration": 116, "velocity": 95}, {"time": 37440, "pitch": 57, "duration": 120, "velocity": 90}, {"time": 37442, "pitch": 60, "duration": 119, "velocity": 91}, {"time": 37444, "pitch": 64, "duration": 119, "velocity": 106}, {"time": 37680, "pitch": 57, "duration": 119, "velocity": 90}, {"time": 37680, "pitch": 60, "duration": 86, "velocity": 99}, {"time": 37684, "pitch": 64, "duration": 96, "velocity": 91}, {"time": 37800, "pitch": 64, "duration": 104, "velocity": 90}, {"time": 37802, "pitch": 60, "duration": 23, "velocity": 91}, {"time": 37804, "pitch": 57, "duration": 108, "velocity": 95}, {"time": 37920, "pitch": 57, "duration": 128, "velocity": 90}, {"time": 37922, "pitch": 60, "duration": 239, "velocity": 95}, {"time": 37924, "pitch": 64, "duration": 188, "velocity": 108}, {"time": 38160, "pitch": 57, "duration": 119, "velocity": 90}, {"time": 38162, "pitch": 60, "duration": 119, "velocity": 98}, {"time": 38164, "pitch": 64, "duration": 92, "velocity": 100}, {"time": 38280, "pitch": 64, "duration": 100, "velocity": 90}, {"time": 38282, "pitch": 60, "duration": 119, "velocity": 95}, {"time": 38284, "pitch": 57, "duration": 96, "velocity": 100}, {"time": 38400, "pitch": 57, "duration": 100, "velocity": 90}, {"time": 38402, "pitch": 60, "duration": 120, "velocity": 92}, {"time": 38404, "pitch": 64, "duration": 104, "velocity": 97}, {"time": 38521, "pitch": 64, "duration": 100, "velocity": 90}, {"time": 38523, "pitch": 60, "duration": 119, "velocity": 95}, {"time": 38525, "pitch": 57, "duration": 100, "velocity": 98}, {"time": 38641, "pitch": 57, "duration": 100, "velocity": 90}, {"time": 38643, "pitch": 60, "duration": 119, "velocity": 95}, {"time": 38645, "pitch": 64, "duration": 119, "velocity": 111}, {"time": 38881, "pitch": 55, "duration": 119, "velocity": 90}, {"time": 38883, "pitch": 60, "duration": 119, "velocity": 95}, {"time": 38885, "pitch": 64, "duration": 119, "velocity": 98}, {"time": 39121, "pitch": 55, "duration": 119, "velocity": 90}, {"time": 39123, "pitch": 60, "duration": 119, "velocity": 95}, {"time": 39125, "pitch": 64, "duration": 119, "velocity": 100}, {"time": 39361, "pitch": 55, "duration": 119, "velocity": 90}, {"time": 39363, "pitch": 60, "duration": 119, "velocity": 95}, {"time": 39365, "pitch": 64, "duration": 119, "velocity": 106}, {"time": 39601, "pitch": 55, "duration": 120, "velocity": 90}, {"time": 39603, "pitch": 60, "duration": 120, "velocity": 95}, {"time": 39605, "pitch": 64, "duration": 120, "velocity": 100}, {"time": 39842, "pitch": 56, "duration": 119, "velocity": 90}, {"time": 39844, "pitch": 59, "duration": 119, "velocity": 95}, {"time": 39846, "pitch": 64, "duration": 119, "velocity": 93}, {"time": 40082, "pitch": 56, "duration": 119, "velocity": 90}, {"time": 40084, "pitch": 59, "duration": 119, "velocity": 95}, {"time": 40086, "pitch": 64, "duration": 88, "velocity": 100}, {"time": 40202, "pitch": 64, "duration": 112, "velocity": 90}, {"time": 40204, "pitch": 59, "duration": 119, "velocity": 95}, {"time": 40206, "pitch": 56, "duration": 92, "velocity": 98}, {"time": 40322, "pitch": 56, "duration": 100, "velocity": 90}, {"time": 40324, "pitch": 59, "duration": 119, "velocity": 95}, {"time": 40326, "pitch": 64, "duration": 119, "velocity": 105}, {"time": 40562, "pitch": 56, "duration": 119, "velocity": 90}, {"time": 40564, "pitch": 59, "duration": 119, "velocity": 95}, {"time": 40566, "pitch": 64, "duration": 119, "velocity": 98}, {"time": 40803, "pitch": 57, "duration": 117, "velocity": 90}, {"time": 40805, "pitch": 60, "duration": 117, "velocity": 95}, {"time": 40806, "pitch": 64, "duration": 118, "velocity": 98}, {"time": 41040, "pitch": 57, "duration": 117, "velocity": 90}, {"time": 41042, "pitch": 60, "duration": 117, "velocity": 91}, {"time": 41044, "pitch": 64, "duration": 117, "velocity": 105}, {"time": 41277, "pitch": 57, "duration": 119, "velocity": 90}, {"time": 41279, "pitch": 60, "duration": 119, "velocity": 95}, {"time": 41281, "pitch": 64, "duration": 119, "velocity": 107}, {"time": 41517, "pitch": 57, "duration": 119, "velocity": 90}, {"time": 41519, "pitch": 60, "duration": 119, "velocity": 95}, {"time": 41521, "pitch": 64, "duration": 119, "velocity": 100}, {"time": 41758, "pitch": 57, "duration": 119, "velocity": 90}, {"time": 41760, "pitch": 60, "duration": 119, "velocity": 95}, {"time": 41762, "pitch": 64, "duration": 119, "velocity": 107}, {"time": 41998, "pitch": 57, "duration": 119, "velocity": 90}, {"time": 42000, "pitch": 60, "duration": 98, "velocity": 95}, {"time": 42002, "pitch": 64, "duration": 76, "velocity": 100}, {"time": 42118, "pitch": 64, "duration": 100, "velocity": 90}, {"time": 42120, "pitch": 60, "duration": 119, "velocity": 95}, {"time": 42122, "pitch": 57, "duration": 100, "velocity": 98}, {"time": 42238, "pitch": 57, "duration": 100, "velocity": 90}, {"time": 42240, "pitch": 60, "duration": 98, "velocity": 95}, {"time": 42242, "pitch": 64, "duration": 104, "velocity": 100}, {"time": 42358, "pitch": 64, "duration": 100, "velocity": 90}, {"time": 42360, "pitch": 60, "duration": 90, "velocity": 95}, {"time": 42362, "pitch": 57, "duration": 100, "velocity": 105}, {"time": 42478, "pitch": 57, "duration": 100, "velocity": 90}, {"time": 42480, "pitch": 60, "duration": 119, "velocity": 95}, {"time": 42482, "pitch": 64, "duration": 119, "velocity": 108}, {"time": 42718, "pitch": 57, "duration": 119, "velocity": 90}, {"time": 42722, "pitch": 60, "duration": 119, "velocity": 95}, {"time": 42723, "pitch": 65, "duration": 119, "velocity": 102}, {"time": 42959, "pitch": 57, "duration": 119, "velocity": 90}, {"time": 42963, "pitch": 60, "duration": 119, "velocity": 95}, {"time": 42964, "pitch": 65, "duration": 119, "velocity": 107}, {"time": 43199, "pitch": 57, "duration": 119, "velocity": 90}, {"time": 43203, "pitch": 60, "duration": 119, "velocity": 95}, {"time": 43204, "pitch": 65, "duration": 119, "velocity": 107}, {"time": 43439, "pitch": 57, "duration": 119, "velocity": 90}, {"time": 43439, "pitch": 65, "duration": 119, "velocity": 95}, {"time": 43443, "pitch": 60, "duration": 119, "velocity": 98}, {"time": 43679, "pitch": 55, "duration": 119, "velocity": 90}, {"time": 43681, "pitch": 64, "duration": 119, "velocity": 95}, {"time": 43683, "pitch": 60, "duration": 119, "velocity": 97}, {"time": 43919, "pitch": 55, "duration": 120, "velocity": 90}, {"time": 43921, "pitch": 64, "duration": 120, "velocity": 95}, {"time": 43923, "pitch": 60, "duration": 120, "velocity": 100}, {"time": 44160, "pitch": 55, "duration": 100, "velocity": 90}, {"time": 44162, "pitch": 64, "duration": 119, "velocity": 95}, {"time": 44164, "pitch": 60, "duration": 119, "velocity": 105}, {"time": 44280, "pitch": 55, "duration": 88, "velocity": 90}, {"time": 44282, "pitch": 64, "duration": 119, "velocity": 95}, {"time": 44285, "pitch": 60, "duration": 119, "velocity": 98}, {"time": 44400, "pitch": 55, "duration": 240, "velocity": 90}, {"time": 44402, "pitch": 64, "duration": 240, "velocity": 95}, {"time": 44404, "pitch": 60, "duration": 239, "velocity": 107}, {"time": 44640, "pitch": 57, "duration": 119, "velocity": 90}, {"time": 44640, "pitch": 65, "duration": 119, "velocity": 95}, {"time": 44644, "pitch": 60, "duration": 119, "velocity": 100}, {"time": 44880, "pitch": 57, "duration": 119, "velocity": 90}, {"time": 44880, "pitch": 65, "duration": 119, "velocity": 95}, {"time": 44884, "pitch": 60, "duration": 119, "velocity": 98}, {"time": 45121, "pitch": 57, "duration": 119, "velocity": 90}, {"time": 45121, "pitch": 65, "duration": 119, "velocity": 95}, {"time": 45125, "pitch": 60, "duration": 119, "velocity": 100}, {"time": 45361, "pitch": 57, "duration": 119, "velocity": 90}, {"time": 45361, "pitch": 65, "duration": 119, "velocity": 95}, {"time": 45365, "pitch": 60, "duration": 119, "velocity": 98}, {"time": 45601, "pitch": 55, "duration": 119, "velocity": 90}, {"time": 45603, "pitch": 64, "duration": 119, "velocity": 95}, {"time": 45605, "pitch": 60, "duration": 119, "velocity": 100}, {"time": 45841, "pitch": 55, "duration": 119, "velocity": 90}, {"time": 45843, "pitch": 64, "duration": 119, "velocity": 95}, {"time": 45845, "pitch": 60, "duration": 119, "velocity": 105}, {"time": 46081, "pitch": 55, "duration": 120, "velocity": 90}, {"time": 46083, "pitch": 64, "duration": 120, "velocity": 95}, {"time": 46085, "pitch": 60, "duration": 100, "velocity": 98}, {"time": 46202, "pitch": 60, "duration": 100, "velocity": 90}, {"time": 46204, "pitch": 64, "duration": 119, "velocity": 95}, {"time": 46206, "pitch": 55, "duration": 80, "velocity": 105}, {"time": 46322, "pitch": 55, "duration": 100, "velocity": 90}, {"time": 46324, "pitch": 64, "duration": 119, "velocity": 95}, {"time": 46326, "pitch": 60, "duration": 119, "velocity": 100}, {"time": 46562, "pitch": 57, "duration": 119, "velocity": 90}, {"time": 46566, "pitch": 60, "duration": 119, "velocity": 95}, {"time": 46570, "pitch": 65, "duration": 119, "velocity": 103}, {"time": 46802, "pitch": 57, "duration": 119, "velocity": 90}, {"time": 46806, "pitch": 60, "duration": 119, "velocity": 95}, {"time": 46808, "pitch": 65, "duration": 119, "velocity": 104}, {"time": 47042, "pitch": 57, "duration": 119, "velocity": 90}, {"time": 47046, "pitch": 60, "duration": 119, "velocity": 95}, {"time": 47048, "pitch": 65, "duration": 119, "velocity": 106}, {"time": 47282, "pitch": 57, "duration": 120, "velocity": 90}, {"time": 47286, "pitch": 60, "duration": 120, "velocity": 95}, {"time": 47288, "pitch": 65, "duration": 120, "velocity": 104}, {"time": 47523, "pitch": 59, "duration": 117, "velocity": 90}, {"time": 47525, "pitch": 62, "duration": 117, "velocity": 95}, {"time": 47527, "pitch": 67, "duration": 117, "velocity": 104}, {"time": 48478, "pitch": 55, "duration": 119, "velocity": 90}, {"time": 48482, "pitch": 60, "duration": 119, "velocity": 98}, {"time": 48483, "pitch": 64, "duration": 119, "velocity": 102}, {"time": 48718, "pitch": 55, "duration": 119, "velocity": 90}, {"time": 48722, "pitch": 60, "duration": 80, "velocity": 95}, {"time": 48838, "pitch": 60, "duration": 100, "velocity": 100}, {"time": 48842, "pitch": 55, "duration": 96, "velocity": 100}, {"time": 48958, "pitch": 55, "duration": 100, "velocity": 90}, {"time": 48962, "pitch": 60, "duration": 119, "velocity": 95}, {"time": 48963, "pitch": 64, "duration": 119, "velocity": 107}, {"time": 49198, "pitch": 55, "duration": 119, "velocity": 90}, {"time": 49202, "pitch": 60, "duration": 119, "velocity": 95}, {"time": 49203, "pitch": 64, "duration": 107, "velocity": 90}, {"time": 49318, "pitch": 64, "duration": 100, "velocity": 95}, {"time": 49322, "pitch": 60, "duration": 120, "velocity": 100}, {"time": 49323, "pitch": 55, "duration": 103, "velocity": 105}, {"time": 49439, "pitch": 55, "duration": 100, "velocity": 90}, {"time": 49441, "pitch": 59, "duration": 119, "velocity": 95}, {"time": 49444, "pitch": 62, "duration": 119, "velocity": 98}, {"time": 49679, "pitch": 55, "duration": 119, "velocity": 90}, {"time": 49681, "pitch": 59, "duration": 119, "velocity": 98}, {"time": 49684, "pitch": 62, "duration": 99, "velocity": 95}, {"time": 49799, "pitch": 62, "duration": 100, "velocity": 90}, {"time": 49801, "pitch": 59, "duration": 119, "velocity": 91}, {"time": 49803, "pitch": 55, "duration": 119, "velocity": 95}, {"time": 50039, "pitch": 55, "duration": 119, "velocity": 90}, {"time": 50041, "pitch": 59, "duration": 119, "velocity": 98}, {"time": 50043, "pitch": 62, "duration": 100, "velocity": 10}, {"time": 50159, "pitch": 62, "duration": 100, "velocity": 90}, {"time": 50162, "pitch": 59, "duration": 119, "velocity": 95}, {"time": 50163, "pitch": 55, "duration": 119, "velocity": 106}, {"time": 50399, "pitch": 57, "duration": 119, "velocity": 90}, {"time": 50403, "pitch": 60, "duration": 119, "velocity": 95}, {"time": 50404, "pitch": 64, "duration": 119, "velocity": 105}, {"time": 50640, "pitch": 57, "duration": 119, "velocity": 90}, {"time": 50644, "pitch": 60, "duration": 119, "velocity": 95}, {"time": 50645, "pitch": 64, "duration": 107, "velocity": 106}, {"time": 50760, "pitch": 64, "duration": 100, "velocity": 90}, {"time": 50764, "pitch": 60, "duration": 104, "velocity": 95}, {"time": 50765, "pitch": 57, "duration": 99, "velocity": 105}, {"time": 50880, "pitch": 57, "duration": 100, "velocity": 90}, {"time": 50884, "pitch": 60, "duration": 119, "velocity": 95}, {"time": 50885, "pitch": 64, "duration": 119, "velocity": 108}, {"time": 51120, "pitch": 57, "duration": 119, "velocity": 90}, {"time": 51124, "pitch": 60, "duration": 119, "velocity": 95}, {"time": 51125, "pitch": 64, "duration": 107, "velocity": 106}, {"time": 51240, "pitch": 64, "duration": 100, "velocity": 90}, {"time": 51244, "pitch": 60, "duration": 119, "velocity": 95}, {"time": 51245, "pitch": 57, "duration": 119, "velocity": 100}, {"time": 51360, "pitch": 55, "duration": 119, "velocity": 90}, {"time": 51362, "pitch": 59, "duration": 119, "velocity": 95}, {"time": 51364, "pitch": 62, "duration": 119, "velocity": 98}, {"time": 51600, "pitch": 55, "duration": 120, "velocity": 90}, {"time": 51603, "pitch": 59, "duration": 90, "velocity": 95}, {"time": 51605, "pitch": 62, "duration": 88, "velocity": 100}, {"time": 51723, "pitch": 62, "duration": 100, "velocity": 90}, {"time": 51724, "pitch": 59, "duration": 119, "velocity": 95}, {"time": 51726, "pitch": 55, "duration": 119, "velocity": 108}, {"time": 51961, "pitch": 55, "duration": 119, "velocity": 90}, {"time": 51963, "pitch": 59, "duration": 119, "velocity": 95}, {"time": 51965, "pitch": 62, "duration": 119, "velocity": 100}, {"time": 52081, "pitch": 55, "duration": 119, "velocity": 90}, {"time": 52083, "pitch": 59, "duration": 119, "velocity": 95}, {"time": 52085, "pitch": 62, "duration": 119, "velocity": 98}, {"time": 52321, "pitch": 57, "duration": 119, "velocity": 90}, {"time": 52325, "pitch": 60, "duration": 119, "velocity": 95}, {"time": 52326, "pitch": 65, "duration": 119, "velocity": 111}, {"time": 52561, "pitch": 57, "duration": 119, "velocity": 90}, {"time": 52565, "pitch": 60, "duration": 96, "velocity": 95}, {"time": 52566, "pitch": 65, "duration": 83, "velocity": 100}, {"time": 52681, "pitch": 65, "duration": 101, "velocity": 90}, {"time": 52684, "pitch": 60, "duration": 101, "velocity": 95}, {"time": 52686, "pitch": 57, "duration": 104, "velocity": 98}, {"time": 52802, "pitch": 57, "duration": 10, "velocity": 90}, {"time": 52806, "pitch": 60, "duration": 119, "velocity": 95}, {"time": 52807, "pitch": 65, "duration": 119, "velocity": 111}, {"time": 53042, "pitch": 57, "duration": 119, "velocity": 90}, {"time": 53046, "pitch": 60, "duration": 119, "velocity": 95}, {"time": 53047, "pitch": 65, "duration": 103, "velocity": 105}, {"time": 53162, "pitch": 65, "duration": 100, "velocity": 90}, {"time": 53166, "pitch": 60, "duration": 96, "velocity": 95}, {"time": 53167, "pitch": 57, "duration": 119, "velocity": 98}, {"time": 53282, "pitch": 55, "duration": 119, "velocity": 90}, {"time": 53286, "pitch": 60, "duration": 119, "velocity": 95}, {"time": 53287, "pitch": 64, "duration": 119, "velocity": 98}, {"time": 53522, "pitch": 55, "duration": 119, "velocity": 90}, {"time": 53526, "pitch": 60, "duration": 119, "velocity": 95}, {"time": 53527, "pitch": 64, "duration": 59, "velocity": 103}, {"time": 53642, "pitch": 64, "duration": 100, "velocity": 90}, {"time": 53646, "pitch": 60, "duration": 108, "velocity": 95}, {"time": 53648, "pitch": 55, "duration": 102, "velocity": 100}, {"time": 53762, "pitch": 55, "duration": 100, "velocity": 90}, {"time": 53766, "pitch": 60, "duration": 120, "velocity": 95}, {"time": 53767, "pitch": 64, "duration": 120, "velocity": 102}, {"time": 54003, "pitch": 60, "duration": 119, "velocity": 90}, {"time": 54008, "pitch": 64, "duration": 99, "velocity": 95}, {"time": 54009, "pitch": 55, "duration": 98, "velocity": 100}, {"time": 54123, "pitch": 55, "duration": 100, "velocity": 90}, {"time": 54127, "pitch": 60, "duration": 84, "velocity": 95}, {"time": 54128, "pitch": 64, "duration": 119, "velocity": 98}, {"time": 54243, "pitch": 57, "duration": 117, "velocity": 90}, {"time": 54246, "pitch": 60, "duration": 117, "velocity": 95}, {"time": 54249, "pitch": 65, "duration": 117, "velocity": 111}, {"time": 54480, "pitch": 57, "duration": 118, "velocity": 90}, {"time": 54484, "pitch": 60, "duration": 79, "velocity": 95}, {"time": 54485, "pitch": 65, "duration": 78, "velocity": 105}, {"time": 54599, "pitch": 65, "duration": 99, "velocity": 90}, {"time": 54601, "pitch": 60, "duration": 99, "velocity": 95}, {"time": 54604, "pitch": 57, "duration": 105, "velocity": 100}, {"time": 54717, "pitch": 57, "duration": 100, "velocity": 90}, {"time": 54721, "pitch": 60, "duration": 119, "velocity": 95}, {"time": 54722, "pitch": 65, "duration": 119, "velocity": 112}, {"time": 54958, "pitch": 57, "duration": 119, "velocity": 90}, {"time": 54962, "pitch": 60, "duration": 119, "velocity": 95}, {"time": 54963, "pitch": 65, "duration": 99, "velocity": 98}, {"time": 55078, "pitch": 65, "duration": 100, "velocity": 90}, {"time": 55082, "pitch": 60, "duration": 104, "velocity": 95}, {"time": 55083, "pitch": 57, "duration": 107, "velocity": 98}, {"time": 55198, "pitch": 57, "duration": 100, "velocity": 90}, {"time": 55202, "pitch": 60, "duration": 119, "velocity": 95}, {"time": 55203, "pitch": 65, "duration": 119, "velocity": 113}, {"time": 55438, "pitch": 57, "duration": 119, "velocity": 90}, {"time": 55442, "pitch": 60, "duration": 119, "velocity": 95}, {"time": 55443, "pitch": 65, "duration": 75, "velocity": 98}, {"time": 55558, "pitch": 65, "duration": 100, "velocity": 91}, {"time": 55562, "pitch": 60, "duration": 119, "velocity": 92}, {"time": 55563, "pitch": 57, "duration": 99, "velocity": 98}, {"time": 55678, "pitch": 57, "duration": 100, "velocity": 90}, {"time": 55683, "pitch": 65, "duration": 119, "velocity": 113}, {"time": 55686, "pitch": 60, "duration": 119, "velocity": 92}, {"time": 55918, "pitch": 57, "duration": 120, "velocity": 90}, {"time": 55922, "pitch": 60, "duration": 120, "velocity": 92}, {"time": 55923, "pitch": 65, "duration": 96, "velocity": 98}, {"time": 56039, "pitch": 65, "duration": 100, "velocity": 90}, {"time": 56043, "pitch": 60, "duration": 108, "velocity": 92}, {"time": 56044, "pitch": 57, "duration": 119, "velocity": 98}, {"time": 56159, "pitch": 55, "duration": 119, "velocity": 90}, {"time": 56163, "pitch": 60, "duration": 119, "velocity": 91}, {"time": 56164, "pitch": 64, "duration": 119, "velocity": 92}, {"time": 56399, "pitch": 55, "duration": 119, "velocity": 90}, {"time": 56403, "pitch": 60, "duration": 119, "velocity": 91}, {"time": 56404, "pitch": 64, "duration": 119, "velocity": 92}, {"time": 56519, "pitch": 55, "duration": 100, "velocity": 90}, {"time": 56523, "pitch": 60, "duration": 104, "velocity": 95}, {"time": 56524, "pitch": 64, "duration": 103, "velocity": 98}, {"time": 56639, "pitch": 55, "duration": 119, "velocity": 90}, {"time": 56643, "pitch": 60, "duration": 119, "velocity": 91}, {"time": 56644, "pitch": 64, "duration": 119, "velocity": 98}, {"time": 56879, "pitch": 55, "duration": 119, "velocity": 90}, {"time": 56883, "pitch": 60, "duration": 119, "velocity": 95}, {"time": 56884, "pitch": 64, "duration": 75, "velocity": 100}, {"time": 56999, "pitch": 64, "duration": 100, "velocity": 90}, {"time": 57003, "pitch": 60, "duration": 105, "velocity": 92}, {"time": 57004, "pitch": 55, "duration": 120, "velocity": 100}, {"time": 57120, "pitch": 57, "duration": 119, "velocity": 90}, {"time": 57124, "pitch": 60, "duration": 119, "velocity": 95}, {"time": 57125, "pitch": 65, "duration": 91, "velocity": 98}, {"time": 57240, "pitch": 65, "duration": 100, "velocity": 90}, {"time": 57244, "pitch": 60, "duration": 119, "velocity": 91}, {"time": 57245, "pitch": 57, "duration": 119, "velocity": 99}, {"time": 57480, "pitch": 57, "duration": 196, "velocity": 90}, {"time": 57484, "pitch": 60, "duration": 239, "velocity": 92}, {"time": 57485, "pitch": 65, "duration": 235, "velocity": 107}, {"time": 57720, "pitch": 65, "duration": 119, "velocity": 90}, {"time": 57724, "pitch": 60, "duration": 88, "velocity": 92}, {"time": 57725, "pitch": 57, "duration": 87, "velocity": 100}, {"time": 57840, "pitch": 57, "duration": 239, "velocity": 90}, {"time": 57844, "pitch": 60, "duration": 200, "velocity": 92}, {"time": 57845, "pitch": 65, "duration": 239, "velocity": 107}, {"time": 58080, "pitch": 55, "duration": 361, "velocity": 90}, {"time": 58081, "pitch": 60, "duration": 436, "velocity": 91}, {"time": 58082, "pitch": 64, "duration": 455, "velocity": 98}, {"time": 58561, "pitch": 55, "duration": 119, "velocity": 90}, {"time": 58562, "pitch": 60, "duration": 119, "velocity": 91}, {"time": 58564, "pitch": 64, "duration": 119, "velocity": 100}, {"time": 58801, "pitch": 55, "duration": 119, "velocity": 90}, {"time": 58805, "pitch": 60, "duration": 119, "velocity": 91}, {"time": 58806, "pitch": 64, "duration": 99, "velocity": 92}, {"time": 58921, "pitch": 64, "duration": 100, "velocity": 90}, {"time": 58925, "pitch": 60, "duration": 100, "velocity": 91}, {"time": 58926, "pitch": 55, "duration": 119, "velocity": 95}, {"time": 59041, "pitch": 57, "duration": 361, "velocity": 90}, {"time": 59045, "pitch": 60, "duration": 481, "velocity": 91}, {"time": 59046, "pitch": 64, "duration": 481, "velocity": 98}, {"time": 59522, "pitch": 67, "duration": 119, "velocity": 90}, {"time": 59642, "pitch": 64, "duration": 119, "velocity": 91}, {"time": 59762, "pitch": 60, "duration": 119, "velocity": 100}, {"time": 59882, "pitch": 57, "duration": 119, "velocity": 90}, {"time": 60002, "pitch": 43, "duration": 360, "velocity": 91}, {"time": 60003, "pitch": 55, "duration": 360, "velocity": 105}, {"time": 60006, "pitch": 59, "duration": 360, "velocity": 90}, {"time": 60007, "pitch": 62, "duration": 360, "velocity": 91}, {"time": 60483, "pitch": 43, "duration": 355, "velocity": 90}, {"time": 60483, "pitch": 55, "duration": 117, "velocity": 108}, {"time": 60484, "pitch": 62, "duration": 118, "velocity": 91}, {"time": 60486, "pitch": 59, "duration": 237, "velocity": 98}, {"time": 60720, "pitch": 55, "duration": 117, "velocity": 90}, {"time": 60722, "pitch": 62, "duration": 101, "velocity": 91}, {"time": 60724, "pitch": 59, "duration": 99, "velocity": 100}, {"time": 60838, "pitch": 59, "duration": 118, "velocity": 90}, {"time": 60840, "pitch": 62, "duration": 118, "velocity": 91}, {"time": 60842, "pitch": 55, "duration": 118, "velocity": 105}, {"time": 60957, "pitch": 44, "duration": 360, "velocity": 90}, {"time": 60957, "pitch": 56, "duration": 119, "velocity": 91}, {"time": 60961, "pitch": 59, "duration": 119, "velocity": 100}, {"time": 60962, "pitch": 64, "duration": 119, "velocity": 90}, {"time": 61197, "pitch": 64, "duration": 119, "velocity": 90}, {"time": 61198, "pitch": 59, "duration": 119, "velocity": 91}, {"time": 61199, "pitch": 56, "duration": 82, "velocity": 98}, {"time": 61317, "pitch": 56, "duration": 185, "velocity": 90}, {"time": 61321, "pitch": 59, "duration": 240, "velocity": 91}, {"time": 61322, "pitch": 64, "duration": 204, "velocity": 93}, {"time": 61437, "pitch": 44, "duration": 361, "velocity": 90}, {"time": 61558, "pitch": 56, "duration": 119, "velocity": 91}, {"time": 61562, "pitch": 59, "duration": 119, "velocity": 97}, {"time": 61563, "pitch": 64, "duration": 119, "velocity": 100}, {"time": 61678, "pitch": 56, "duration": 119, "velocity": 90}, {"time": 61682, "pitch": 59, "duration": 119, "velocity": 91}, {"time": 61683, "pitch": 64, "duration": 119, "velocity": 98}, {"time": 61918, "pitch": 57, "duration": 119, "velocity": 90}, {"time": 61924, "pitch": 60, "duration": 119, "velocity": 91}, {"time": 61925, "pitch": 64, "duration": 119, "velocity": 94}, {"time": 62158, "pitch": 57, "duration": 119, "velocity": 90}, {"time": 62161, "pitch": 60, "duration": 119, "velocity": 91}, {"time": 62163, "pitch": 64, "duration": 119, "velocity": 95}, {"time": 62398, "pitch": 57, "duration": 119, "velocity": 90}, {"time": 62404, "pitch": 60, "duration": 119, "velocity": 91}, {"time": 62405, "pitch": 64, "duration": 119, "velocity": 95}, {"time": 62639, "pitch": 57, "duration": 119, "velocity": 90}, {"time": 62645, "pitch": 60, "duration": 119, "velocity": 94}, {"time": 62646, "pitch": 64, "duration": 119, "velocity": 98}, {"time": 62879, "pitch": 55, "duration": 172, "velocity": 90}, {"time": 62883, "pitch": 59, "duration": 208, "velocity": 91}, {"time": 62884, "pitch": 64, "duration": 183, "velocity": 95}, {"time": 63119, "pitch": 55, "duration": 119, "velocity": 90}, {"time": 63123, "pitch": 59, "duration": 119, "velocity": 91}, {"time": 63124, "pitch": 64, "duration": 103, "velocity": 98}, {"time": 63239, "pitch": 64, "duration": 208, "velocity": 90}, {"time": 63243, "pitch": 59, "duration": 239, "velocity": 91}, {"time": 63244, "pitch": 55, "duration": 175, "velocity": 100}, {"time": 63479, "pitch": 55, "duration": 119, "velocity": 90}, {"time": 63483, "pitch": 59, "duration": 119, "velocity": 91}, {"time": 63484, "pitch": 64, "duration": 119, "velocity": 96}, {"time": 63720, "pitch": 64, "duration": 119, "velocity": 90}, {"time": 63724, "pitch": 59, "duration": 119, "velocity": 91}, {"time": 63725, "pitch": 55, "duration": 119, "velocity": 98}, {"time": 63840, "pitch": 57, "duration": 119, "velocity": 90}, {"time": 63846, "pitch": 60, "duration": 119, "velocity": 91}, {"time": 63847, "pitch": 65, "duration": 119, "velocity": 100}, {"time": 64080, "pitch": 57, "duration": 119, "velocity": 90}, {"time": 64086, "pitch": 60, "duration": 119, "velocity": 95}, {"time": 64087, "pitch": 65, "duration": 119, "velocity": 97}, {"time": 64320, "pitch": 57, "duration": 119, "velocity": 90}, {"time": 64326, "pitch": 60, "duration": 119, "velocity": 91}, {"time": 64328, "pitch": 65, "duration": 119, "velocity": 100}, {"time": 64560, "pitch": 57, "duration": 119, "velocity": 90}, {"time": 64566, "pitch": 60, "duration": 119, "velocity": 91}, {"time": 64568, "pitch": 65, "duration": 119, "velocity": 92}, {"time": 64801, "pitch": 55, "duration": 240, "velocity": 90}, {"time": 64803, "pitch": 59, "duration": 318, "velocity": 91}, {"time": 64805, "pitch": 67, "duration": 324, "velocity": 100}, {"time": 65161, "pitch": 55, "duration": 119, "velocity": 90}, {"time": 65163, "pitch": 59, "duration": 119, "velocity": 91}, {"time": 65166, "pitch": 65, "duration": 119, "velocity": 99}, {"time": 65401, "pitch": 65, "duration": 119, "velocity": 90}, {"time": 65403, "pitch": 59, "duration": 119, "velocity": 91}, {"time": 65405, "pitch": 55, "duration": 72, "velocity": 100}, {"time": 65521, "pitch": 55, "duration": 116, "velocity": 90}, {"time": 65524, "pitch": 59, "duration": 119, "velocity": 91}, {"time": 65527, "pitch": 65, "duration": 119, "velocity": 97}, {"time": 65761, "pitch": 67, "duration": 185, "velocity": 90}, {"time": 65763, "pitch": 60, "duration": 119, "velocity": 91}, {"time": 65765, "pitch": 64, "duration": 153, "velocity": 100}, {"time": 66002, "pitch": 67, "duration": 119, "velocity": 90}, {"time": 66004, "pitch": 64, "duration": 146, "velocity": 91}, {"time": 66006, "pitch": 60, "duration": 119, "velocity": 98}, {"time": 66242, "pitch": 67, "duration": 119, "velocity": 90}, {"time": 66244, "pitch": 64, "duration": 119, "velocity": 91}, {"time": 66246, "pitch": 60, "duration": 119, "velocity": 104}, {"time": 66482, "pitch": 67, "duration": 119, "velocity": 90}, {"time": 66484, "pitch": 64, "duration": 119, "velocity": 91}, {"time": 66486, "pitch": 60, "duration": 92, "velocity": 100}, {"time": 66602, "pitch": 60, "duration": 96, "velocity": 90}, {"time": 66604, "pitch": 64, "duration": 119, "velocity": 91}, {"time": 66606, "pitch": 67, "duration": 108, "velocity": 105}, {"time": 66722, "pitch": 57, "duration": 240, "velocity": 90}, {"time": 66723, "pitch": 60, "duration": 240, "velocity": 91}, {"time": 66724, "pitch": 64, "duration": 240, "velocity": 98}, {"time": 66727, "pitch": 67, "duration": 240, "velocity": 90}, {"time": 67083, "pitch": 67, "duration": 203, "velocity": 91}, {"time": 67085, "pitch": 64, "duration": 237, "velocity": 98}, {"time": 67087, "pitch": 60, "duration": 175, "velocity": 100}, {"time": 67088, "pitch": 57, "duration": 154, "velocity": 102}, {"time": 67321, "pitch": 57, "duration": 118, "velocity": 90}, {"time": 67322, "pitch": 60, "duration": 118, "velocity": 91}, {"time": 67323, "pitch": 64, "duration": 118, "velocity": 95}, {"time": 67326, "pitch": 67, "duration": 70, "velocity": 98}, {"time": 67440, "pitch": 67, "duration": 99, "velocity": 90}, {"time": 67442, "pitch": 64, "duration": 118, "velocity": 91}, {"time": 67444, "pitch": 60, "duration": 91, "velocity": 95}, {"time": 67445, "pitch": 57, "duration": 94, "velocity": 98}, {"time": 67559, "pitch": 57, "duration": 118, "velocity": 90}, {"time": 67563, "pitch": 60, "duration": 117, "velocity": 92}, {"time": 67564, "pitch": 64, "duration": 117, "velocity": 95}, {"time": 67566, "pitch": 67, "duration": 117, "velocity": 98}, {"time": 67677, "pitch": 55, "duration": 361, "velocity": 90}, {"time": 67681, "pitch": 59, "duration": 361, "velocity": 91}, {"time": 67681, "pitch": 62, "duration": 449, "velocity": 100}, {"time": 68158, "pitch": 55, "duration": 360, "velocity": 90}, {"time": 68161, "pitch": 59, "duration": 428, "velocity": 91}, {"time": 68162, "pitch": 62, "duration": 360, "velocity": 95}, {"time": 68638, "pitch": 56, "duration": 148, "velocity": 90}, {"time": 68639, "pitch": 59, "duration": 208, "velocity": 91}, {"time": 68640, "pitch": 64, "duration": 119, "velocity": 100}, {"time": 68878, "pitch": 56, "duration": 119, "velocity": 90}, {"time": 68879, "pitch": 59, "duration": 119, "velocity": 91}, {"time": 68883, "pitch": 64, "duration": 103, "velocity": 95}, {"time": 68998, "pitch": 64, "duration": 173, "velocity": 90}, {"time": 69000, "pitch": 59, "duration": 181, "velocity": 95}, {"time": 69002, "pitch": 56, "duration": 181, "velocity": 106}, {"time": 69239, "pitch": 56, "duration": 119, "velocity": 90}, {"time": 69239, "pitch": 59, "duration": 119, "velocity": 91}, {"time": 69249, "pitch": 64, "duration": 90, "velocity": 98}, {"time": 69359, "pitch": 64, "duration": 100, "velocity": 90}, {"time": 69361, "pitch": 59, "duration": 94, "velocity": 91}, {"time": 69363, "pitch": 56, "duration": 84, "velocity": 95}, {"time": 69479, "pitch": 56, "duration": 104, "velocity": 90}, {"time": 69480, "pitch": 59, "duration": 119, "velocity": 91}, {"time": 69483, "pitch": 64, "duration": 84, "velocity": 95}, {"time": 69599, "pitch": 57, "duration": 119, "velocity": 90}, {"time": 69601, "pitch": 60, "duration": 200, "velocity": 95}, {"time": 69605, "pitch": 64, "duration": 188, "velocity": 98}, {"time": 69839, "pitch": 57, "duration": 119, "velocity": 90}, {"time": 69840, "pitch": 60, "duration": 119, "velocity": 91}, {"time": 69844, "pitch": 64, "duration": 119, "velocity": 95}, {"time": 70079, "pitch": 57, "duration": 119, "velocity": 90}, {"time": 70083, "pitch": 60, "duration": 119, "velocity": 91}, {"time": 70084, "pitch": 64, "duration": 119, "velocity": 95}, {"time": 70320, "pitch": 57, "duration": 119, "velocity": 90}, {"time": 70324, "pitch": 60, "duration": 119, "velocity": 95}, {"time": 70325, "pitch": 64, "duration": 119, "velocity": 98}, {"time": 70560, "pitch": 55, "duration": 119, "velocity": 90}, {"time": 70562, "pitch": 59, "duration": 119, "velocity": 95}, {"time": 70565, "pitch": 62, "duration": 119, "velocity": 98}, {"time": 70920, "pitch": 62, "duration": 240, "velocity": 90}, {"time": 70922, "pitch": 67, "duration": 234, "velocity": 95}, {"time": 70924, "pitch": 71, "duration": 188, "velocity": 98}, {"time": 71160, "pitch": 71, "duration": 119, "velocity": 90}, {"time": 71280, "pitch": 67, "duration": 233, "velocity": 95}, {"time": 71521, "pitch": 57, "duration": 360, "velocity": 90}, {"time": 71525, "pitch": 60, "duration": 420, "velocity": 95}, {"time": 71526, "pitch": 65, "duration": 360, "velocity": 98}, {"time": 72001, "pitch": 57, "duration": 240, "velocity": 90}, {"time": 72005, "pitch": 60, "duration": 240, "velocity": 91}, {"time": 72007, "pitch": 65, "duration": 360, "velocity": 95}, {"time": 72482, "pitch": 59, "duration": 600, "velocity": 80}, {"time": 72484, "pitch": 62, "duration": 340, "velocity": 91}, {"time": 72485, "pitch": 67, "duration": 280, "velocity": 92}, {"time": 72842, "pitch": 67, "duration": 119, "velocity": 90}, {"time": 72844, "pitch": 62, "duration": 119, "velocity": 91}, {"time": 73082, "pitch": 67, "duration": 119, "velocity": 98}, {"time": 73202, "pitch": 57, "duration": 119, "velocity": 90}, {"time": 73204, "pitch": 65, "duration": 119, "velocity": 91}, {"time": 73206, "pitch": 60, "duration": 119, "velocity": 95}, {"time": 73442, "pitch": 55, "duration": 119, "velocity": 90}, {"time": 73445, "pitch": 59, "duration": 120, "velocity": 91}, {"time": 73447, "pitch": 64, "duration": 120, "velocity": 102}, {"time": 73683, "pitch": 55, "duration": 119, "velocity": 90}, {"time": 73685, "pitch": 59, "duration": 119, "velocity": 91}, {"time": 73687, "pitch": 64, "duration": 119, "velocity": 99}, {"time": 73923, "pitch": 55, "duration": 117, "velocity": 90}, {"time": 73925, "pitch": 59, "duration": 117, "velocity": 91}, {"time": 73927, "pitch": 64, "duration": 117, "velocity": 101}, {"time": 74160, "pitch": 55, "duration": 118, "velocity": 90}, {"time": 74162, "pitch": 59, "duration": 118, "velocity": 91}, {"time": 74164, "pitch": 64, "duration": 75, "velocity": 98}, {"time": 74279, "pitch": 64, "duration": 95, "velocity": 90}, {"time": 74281, "pitch": 59, "duration": 117, "velocity": 91}, {"time": 74397, "pitch": 55, "duration": 100, "velocity": 90}, {"time": 74399, "pitch": 59, "duration": 119, "velocity": 91}, {"time": 74401, "pitch": 64, "duration": 119, "velocity": 103}, {"time": 74638, "pitch": 55, "duration": 119, "velocity": 90}, {"time": 74640, "pitch": 59, "duration": 119, "velocity": 91}, {"time": 74642, "pitch": 64, "duration": 119, "velocity": 98}, {"time": 74878, "pitch": 55, "duration": 119, "velocity": 90}, {"time": 74880, "pitch": 59, "duration": 119, "velocity": 94}, {"time": 74882, "pitch": 64, "duration": 119, "velocity": 103}, {"time": 75118, "pitch": 55, "duration": 119, "velocity": 90}, {"time": 75120, "pitch": 59, "duration": 119, "velocity": 92}, {"time": 75122, "pitch": 64, "duration": 119, "velocity": 96}, {"time": 75358, "pitch": 57, "duration": 119, "velocity": 90}, {"time": 75362, "pitch": 64, "duration": 119, "velocity": 92}, {"time": 75364, "pitch": 60, "duration": 119, "velocity": 98}, {"time": 75598, "pitch": 57, "duration": 120, "velocity": 90}, {"time": 75602, "pitch": 64, "duration": 120, "velocity": 98}, {"time": 75604, "pitch": 60, "duration": 120, "velocity": 99}, {"time": 75839, "pitch": 57, "duration": 119, "velocity": 90}, {"time": 75843, "pitch": 64, "duration": 119, "velocity": 91}, {"time": 75845, "pitch": 60, "duration": 119, "velocity": 99}, {"time": 76079, "pitch": 57, "duration": 119, "velocity": 90}, {"time": 76083, "pitch": 64, "duration": 119, "velocity": 91}, {"time": 76085, "pitch": 60, "duration": 119, "velocity": 98}, {"time": 76319, "pitch": 57, "duration": 119, "velocity": 90}, {"time": 76323, "pitch": 64, "duration": 119, "velocity": 91}, {"time": 76325, "pitch": 60, "duration": 119, "velocity": 99}, {"time": 76559, "pitch": 57, "duration": 119, "velocity": 90}, {"time": 76563, "pitch": 64, "duration": 119, "velocity": 91}, {"time": 76565, "pitch": 60, "duration": 90, "velocity": 98}, {"time": 76679, "pitch": 60, "duration": 116, "velocity": 90}, {"time": 76683, "pitch": 64, "duration": 120, "velocity": 91}, {"time": 76685, "pitch": 57, "duration": 120, "velocity": 103}, {"time": 76922, "pitch": 60, "duration": 114, "velocity": 90}, {"time": 76927, "pitch": 64, "duration": 109, "velocity": 91}, {"time": 77040, "pitch": 57, "duration": 119, "velocity": 99}, {"time": 77043, "pitch": 60, "duration": 119, "velocity": 90}, {"time": 77046, "pitch": 64, "duration": 102, "velocity": 91}, {"time": 77160, "pitch": 64, "duration": 112, "velocity": 90}, {"time": 77165, "pitch": 60, "duration": 119, "velocity": 91}, {"time": 77166, "pitch": 57, "duration": 119, "velocity": 98}, {"time": 77280, "pitch": 55, "duration": 240, "velocity": 90}, {"time": 77282, "pitch": 59, "duration": 360, "velocity": 91}, {"time": 77286, "pitch": 62, "duration": 360, "velocity": 99}, {"time": 77760, "pitch": 55, "duration": 241, "velocity": 90}, {"time": 77762, "pitch": 59, "duration": 241, "velocity": 91}, {"time": 77766, "pitch": 62, "duration": 241, "velocity": 100}, {"time": 78241, "pitch": 55, "duration": 360, "velocity": 90}, {"time": 78243, "pitch": 59, "duration": 360, "velocity": 91}, {"time": 78247, "pitch": 62, "duration": 360, "velocity": 95}, {"time": 78721, "pitch": 55, "duration": 119, "velocity": 90}, {"time": 78723, "pitch": 59, "duration": 119, "velocity": 91}, {"time": 78727, "pitch": 62, "duration": 94, "velocity": 99}, {"time": 78841, "pitch": 62, "duration": 100, "velocity": 90}, {"time": 78843, "pitch": 59, "duration": 119, "velocity": 91}, {"time": 78847, "pitch": 55, "duration": 82, "velocity": 92}, {"time": 78961, "pitch": 55, "duration": 81, "velocity": 90}, {"time": 78963, "pitch": 59, "duration": 120, "velocity": 91}, {"time": 78967, "pitch": 62, "duration": 87, "velocity": 98}, {"time": 79083, "pitch": 62, "duration": 100, "velocity": 90}, {"time": 79084, "pitch": 59, "duration": 119, "velocity": 92}, {"time": 79088, "pitch": 55, "duration": 119, "velocity": 95}, {"time": 79202, "pitch": 57, "duration": 360, "velocity": 90}, {"time": 79208, "pitch": 60, "duration": 360, "velocity": 98}, {"time": 79209, "pitch": 65, "duration": 360, "velocity": 103}, {"time": 79682, "pitch": 57, "duration": 200, "velocity": 90}, {"time": 79684, "pitch": 60, "duration": 180, "velocity": 91}, {"time": 79686, "pitch": 65, "duration": 188, "velocity": 102}, {"time": 79922, "pitch": 57, "duration": 119, "velocity": 90}, {"time": 79924, "pitch": 60, "duration": 119, "velocity": 91}, {"time": 79926, "pitch": 65, "duration": 100, "velocity": 101}, {"time": 80042, "pitch": 65, "duration": 109, "velocity": 90}, {"time": 80044, "pitch": 60, "duration": 119, "velocity": 91}, {"time": 80046, "pitch": 57, "duration": 119, "velocity": 100}, {"time": 80162, "pitch": 59, "duration": 238, "velocity": 90}, {"time": 80164, "pitch": 62, "duration": 238, "velocity": 95}, {"time": 80166, "pitch": 67, "duration": 238, "velocity": 104}, {"time": 80518, "pitch": 59, "duration": 207, "velocity": 90}, {"time": 80520, "pitch": 62, "duration": 187, "velocity": 98}, {"time": 80522, "pitch": 67, "duration": 187, "velocity": 103}, {"time": 80757, "pitch": 59, "duration": 119, "velocity": 90}, {"time": 80759, "pitch": 62, "duration": 119, "velocity": 98}, {"time": 80761, "pitch": 67, "duration": 119, "velocity": 100}, {"time": 80877, "pitch": 59, "duration": 119, "velocity": 90}, {"time": 80879, "pitch": 62, "duration": 119, "velocity": 95}, {"time": 80881, "pitch": 67, "duration": 119, "velocity": 104}, {"time": 81118, "pitch": 57, "duration": 120, "velocity": 90}, {"time": 81119, "pitch": 60, "duration": 169, "velocity": 98}, {"time": 81121, "pitch": 65, "duration": 169, "velocity": 103}, {"time": 81358, "pitch": 57, "duration": 119, "velocity": 90}, {"time": 81360, "pitch": 60, "duration": 119, "velocity": 95}, {"time": 81362, "pitch": 65, "duration": 119, "velocity": 100}, {"time": 81598, "pitch": 57, "duration": 119, "velocity": 90}, {"time": 81600, "pitch": 60, "duration": 119, "velocity": 95}, {"time": 81602, "pitch": 65, "duration": 119, "velocity": 109}, {"time": 81838, "pitch": 57, "duration": 119, "velocity": 90}, {"time": 81840, "pitch": 60, "duration": 119, "velocity": 95}, {"time": 81842, "pitch": 65, "duration": 119, "velocity": 101}, {"time": 82078, "pitch": 59, "duration": 119, "velocity": 90}, {"time": 82080, "pitch": 62, "duration": 119, "velocity": 95}, {"time": 82082, "pitch": 67, "duration": 119, "velocity": 101}, {"time": 82319, "pitch": 59, "duration": 119, "velocity": 90}, {"time": 82321, "pitch": 62, "duration": 119, "velocity": 95}, {"time": 82323, "pitch": 67, "duration": 92, "velocity": 105}, {"time": 82439, "pitch": 59, "duration": 119, "velocity": 90}, {"time": 82441, "pitch": 62, "duration": 119, "velocity": 95}, {"time": 82443, "pitch": 67, "duration": 104, "velocity": 100}, {"time": 82559, "pitch": 59, "duration": 119, "velocity": 94}, {"time": 82561, "pitch": 62, "duration": 119, "velocity": 95}, {"time": 82563, "pitch": 67, "duration": 119, "velocity": 109}, {"time": 82799, "pitch": 59, "duration": 119, "velocity": 90}, {"time": 82801, "pitch": 62, "duration": 119, "velocity": 91}, {"time": 82803, "pitch": 67, "duration": 119, "velocity": 104}, {"time": 83039, "pitch": 60, "duration": 119, "velocity": 90}, {"time": 83041, "pitch": 64, "duration": 119, "velocity": 95}, {"time": 83043, "pitch": 67, "duration": 119, "velocity": 99}, {"time": 83279, "pitch": 60, "duration": 120, "velocity": 90}, {"time": 83281, "pitch": 64, "duration": 120, "velocity": 95}, {"time": 83283, "pitch": 67, "duration": 120, "velocity": 90}, {"time": 83520, "pitch": 60, "duration": 119, "velocity": 90}, {"time": 83522, "pitch": 64, "duration": 119, "velocity": 95}, {"time": 83524, "pitch": 67, "duration": 119, "velocity": 98}, {"time": 83760, "pitch": 60, "duration": 119, "velocity": 90}, {"time": 83762, "pitch": 64, "duration": 119, "velocity": 95}, {"time": 83764, "pitch": 67, "duration": 119, "velocity": 98}, {"time": 84000, "pitch": 59, "duration": 119, "velocity": 90}, {"time": 84002, "pitch": 64, "duration": 119, "velocity": 95}, {"time": 84004, "pitch": 68, "duration": 119, "velocity": 98}, {"time": 84240, "pitch": 59, "duration": 119, "velocity": 90}, {"time": 84242, "pitch": 64, "duration": 119, "velocity": 95}, {"time": 84244, "pitch": 68, "duration": 119, "velocity": 98}, {"time": 84360, "pitch": 59, "duration": 120, "velocity": 90}, {"time": 84362, "pitch": 64, "duration": 102, "velocity": 95}, {"time": 84364, "pitch": 68, "duration": 108, "velocity": 98}, {"time": 84481, "pitch": 59, "duration": 119, "velocity": 90}, {"time": 84483, "pitch": 64, "duration": 168, "velocity": 95}, {"time": 84485, "pitch": 68, "duration": 168, "velocity": 107}, {"time": 84721, "pitch": 59, "duration": 119, "velocity": 90}, {"time": 84723, "pitch": 64, "duration": 119, "velocity": 95}, {"time": 84725, "pitch": 68, "duration": 119, "velocity": 101}, {"time": 84961, "pitch": 60, "duration": 119, "velocity": 90}, {"time": 84963, "pitch": 64, "duration": 119, "velocity": 95}, {"time": 84965, "pitch": 69, "duration": 119, "velocity": 98}, {"time": 85201, "pitch": 60, "duration": 119, "velocity": 90}, {"time": 85203, "pitch": 64, "duration": 119, "velocity": 95}, {"time": 85205, "pitch": 69, "duration": 119, "velocity": 100}, {"time": 85441, "pitch": 60, "duration": 119, "velocity": 90}, {"time": 85443, "pitch": 64, "duration": 119, "velocity": 95}, {"time": 85445, "pitch": 69, "duration": 119, "velocity": 106}, {"time": 85682, "pitch": 60, "duration": 119, "velocity": 90}, {"time": 85684, "pitch": 64, "duration": 119, "velocity": 95}, {"time": 85686, "pitch": 69, "duration": 100, "velocity": 97}, {"time": 85802, "pitch": 69, "duration": 108, "velocity": 91}, {"time": 85804, "pitch": 64, "duration": 119, "velocity": 94}, {"time": 85806, "pitch": 60, "duration": 119, "velocity": 109}, {"time": 86042, "pitch": 60, "duration": 119, "velocity": 90}, {"time": 86044, "pitch": 64, "duration": 119, "velocity": 91}, {"time": 86046, "pitch": 69, "duration": 104, "velocity": 98}, {"time": 86162, "pitch": 69, "duration": 164, "velocity": 90}, {"time": 86164, "pitch": 64, "duration": 119, "velocity": 19}, {"time": 86166, "pitch": 60, "duration": 119, "velocity": 103}, {"time": 86402, "pitch": 60, "duration": 119, "velocity": 90}, {"time": 86404, "pitch": 64, "duration": 119, "velocity": 95}, {"time": 86406, "pitch": 69, "duration": 119, "velocity": 104}, {"time": 86642, "pitch": 60, "duration": 120, "velocity": 90}, {"time": 86644, "pitch": 64, "duration": 120, "velocity": 95}, {"time": 86646, "pitch": 69, "duration": 120, "velocity": 101}, {"time": 86883, "pitch": 60, "duration": 117, "velocity": 90}, {"time": 86885, "pitch": 64, "duration": 117, "velocity": 95}, {"time": 86887, "pitch": 67, "duration": 117, "velocity": 99}, {"time": 87120, "pitch": 60, "duration": 118, "velocity": 90}, {"time": 87122, "pitch": 64, "duration": 118, "velocity": 95}, {"time": 87124, "pitch": 67, "duration": 118, "velocity": 90}, {"time": 87357, "pitch": 60, "duration": 119, "velocity": 90}, {"time": 87359, "pitch": 64, "duration": 119, "velocity": 95}, {"time": 87361, "pitch": 67, "duration": 119, "velocity": 98}, {"time": 87597, "pitch": 60, "duration": 120, "velocity": 90}, {"time": 87599, "pitch": 64, "duration": 120, "velocity": 95}, {"time": 87601, "pitch": 67, "duration": 120, "velocity": 98}, {"time": 87838, "pitch": 59, "duration": 119, "velocity": 90}, {"time": 87840, "pitch": 64, "duration": 119, "velocity": 95}, {"time": 87842, "pitch": 68, "duration": 119, "velocity": 98}, {"time": 88078, "pitch": 59, "duration": 119, "velocity": 90}, {"time": 88080, "pitch": 64, "duration": 119, "velocity": 95}, {"time": 88082, "pitch": 68, "duration": 119, "velocity": 98}, {"time": 88198, "pitch": 59, "duration": 119, "velocity": 90}, {"time": 88200, "pitch": 64, "duration": 119, "velocity": 95}, {"time": 88202, "pitch": 68, "duration": 112, "velocity": 98}, {"time": 88318, "pitch": 59, "duration": 119, "velocity": 90}, {"time": 88320, "pitch": 64, "duration": 168, "velocity": 95}, {"time": 88322, "pitch": 68, "duration": 168, "velocity": 107}, {"time": 88558, "pitch": 59, "duration": 119, "velocity": 90}, {"time": 88560, "pitch": 64, "duration": 119, "velocity": 95}, {"time": 88562, "pitch": 68, "duration": 119, "velocity": 101}, {"time": 88798, "pitch": 60, "duration": 120, "velocity": 90}, {"time": 88800, "pitch": 64, "duration": 120, "velocity": 95}, {"time": 88802, "pitch": 69, "duration": 120, "velocity": 98}, {"time": 89039, "pitch": 60, "duration": 119, "velocity": 90}, {"time": 89041, "pitch": 64, "duration": 119, "velocity": 95}, {"time": 89043, "pitch": 69, "duration": 119, "velocity": 100}, {"time": 89279, "pitch": 60, "duration": 119, "velocity": 90}, {"time": 89281, "pitch": 64, "duration": 119, "velocity": 95}, {"time": 89283, "pitch": 69, "duration": 119, "velocity": 106}, {"time": 89519, "pitch": 60, "duration": 119, "velocity": 90}, {"time": 89521, "pitch": 64, "duration": 119, "velocity": 95}, {"time": 89523, "pitch": 69, "duration": 108, "velocity": 97}, {"time": 89639, "pitch": 69, "duration": 108, "velocity": 91}, {"time": 89641, "pitch": 64, "duration": 119, "velocity": 94}, {"time": 89643, "pitch": 60, "duration": 119, "velocity": 109}, {"time": 89879, "pitch": 60, "duration": 120, "velocity": 90}, {"time": 89881, "pitch": 64, "duration": 120, "velocity": 91}, {"time": 89883, "pitch": 69, "duration": 93, "velocity": 98}, {"time": 90000, "pitch": 69, "duration": 116, "velocity": 90}, {"time": 90002, "pitch": 64, "duration": 119, "velocity": 19}, {"time": 90004, "pitch": 60, "duration": 119, "velocity": 103}, {"time": 90240, "pitch": 60, "duration": 119, "velocity": 90}, {"time": 90242, "pitch": 64, "duration": 119, "velocity": 95}, {"time": 90244, "pitch": 69, "duration": 119, "velocity": 104}, {"time": 90480, "pitch": 60, "duration": 119, "velocity": 90}, {"time": 90482, "pitch": 64, "duration": 119, "velocity": 95}, {"time": 90484, "pitch": 69, "duration": 119, "velocity": 101}, {"time": 90720, "pitch": 57, "duration": 119, "velocity": 90}, {"time": 90724, "pitch": 60, "duration": 119, "velocity": 95}, {"time": 90725, "pitch": 65, "duration": 119, "velocity": 102}, {"time": 90960, "pitch": 57, "duration": 120, "velocity": 90}, {"time": 90964, "pitch": 60, "duration": 120, "velocity": 95}, {"time": 90965, "pitch": 65, "duration": 120, "velocity": 107}, {"time": 91201, "pitch": 57, "duration": 119, "velocity": 90}, {"time": 91205, "pitch": 60, "duration": 119, "velocity": 95}, {"time": 91206, "pitch": 65, "duration": 119, "velocity": 107}, {"time": 91441, "pitch": 57, "duration": 119, "velocity": 90}, {"time": 91441, "pitch": 65, "duration": 119, "velocity": 95}, {"time": 91445, "pitch": 60, "duration": 119, "velocity": 98}, {"time": 91681, "pitch": 55, "duration": 119, "velocity": 90}, {"time": 91683, "pitch": 64, "duration": 119, "velocity": 95}, {"time": 91685, "pitch": 60, "duration": 119, "velocity": 97}, {"time": 91921, "pitch": 55, "duration": 119, "velocity": 90}, {"time": 91923, "pitch": 64, "duration": 119, "velocity": 95}, {"time": 91925, "pitch": 60, "duration": 119, "velocity": 100}, {"time": 92162, "pitch": 55, "duration": 119, "velocity": 90}, {"time": 92164, "pitch": 64, "duration": 119, "velocity": 95}, {"time": 92166, "pitch": 60, "duration": 119, "velocity": 105}, {"time": 92282, "pitch": 55, "duration": 119, "velocity": 90}, {"time": 92284, "pitch": 64, "duration": 119, "velocity": 95}, {"time": 92287, "pitch": 60, "duration": 119, "velocity": 98}, {"time": 92402, "pitch": 55, "duration": 240, "velocity": 90}, {"time": 92404, "pitch": 64, "duration": 240, "velocity": 95}, {"time": 92406, "pitch": 60, "duration": 239, "velocity": 107}, {"time": 92642, "pitch": 57, "duration": 119, "velocity": 90}, {"time": 92642, "pitch": 65, "duration": 119, "velocity": 95}, {"time": 92646, "pitch": 60, "duration": 119, "velocity": 100}, {"time": 92882, "pitch": 57, "duration": 119, "velocity": 90}, {"time": 92882, "pitch": 65, "duration": 119, "velocity": 95}, {"time": 92886, "pitch": 60, "duration": 119, "velocity": 98}, {"time": 93122, "pitch": 57, "duration": 119, "velocity": 90}, {"time": 93122, "pitch": 65, "duration": 119, "velocity": 95}, {"time": 93126, "pitch": 60, "duration": 119, "velocity": 100}, {"time": 93363, "pitch": 57, "duration": 119, "velocity": 90}, {"time": 93363, "pitch": 65, "duration": 119, "velocity": 95}, {"time": 93367, "pitch": 60, "duration": 119, "velocity": 98}, {"time": 93603, "pitch": 55, "duration": 117, "velocity": 90}, {"time": 93605, "pitch": 64, "duration": 117, "velocity": 95}, {"time": 93607, "pitch": 60, "duration": 117, "velocity": 100}, {"time": 93840, "pitch": 55, "duration": 118, "velocity": 90}, {"time": 93842, "pitch": 64, "duration": 118, "velocity": 95}, {"time": 93844, "pitch": 60, "duration": 118, "velocity": 105}, {"time": 94077, "pitch": 55, "duration": 119, "velocity": 90}, {"time": 94079, "pitch": 64, "duration": 119, "velocity": 95}, {"time": 94081, "pitch": 60, "duration": 80, "velocity": 98}, {"time": 94197, "pitch": 60, "duration": 109, "velocity": 90}, {"time": 94199, "pitch": 64, "duration": 120, "velocity": 95}, {"time": 94201, "pitch": 55, "duration": 101, "velocity": 105}, {"time": 94318, "pitch": 55, "duration": 180, "velocity": 90}, {"time": 94320, "pitch": 64, "duration": 119, "velocity": 95}, {"time": 94322, "pitch": 60, "duration": 119, "velocity": 100}, {"time": 94558, "pitch": 57, "duration": 119, "velocity": 90}, {"time": 94562, "pitch": 60, "duration": 119, "velocity": 95}, {"time": 94566, "pitch": 65, "duration": 119, "velocity": 103}, {"time": 94798, "pitch": 57, "duration": 119, "velocity": 90}, {"time": 94802, "pitch": 60, "duration": 119, "velocity": 95}, {"time": 94804, "pitch": 65, "duration": 119, "velocity": 104}, {"time": 95038, "pitch": 57, "duration": 119, "velocity": 90}, {"time": 95042, "pitch": 60, "duration": 119, "velocity": 95}, {"time": 95044, "pitch": 65, "duration": 119, "velocity": 106}, {"time": 95278, "pitch": 57, "duration": 120, "velocity": 90}, {"time": 95282, "pitch": 60, "duration": 120, "velocity": 95}, {"time": 95284, "pitch": 65, "duration": 120, "velocity": 104}, {"time": 95519, "pitch": 59, "duration": 119, "velocity": 90}, {"time": 95521, "pitch": 62, "duration": 119, "velocity": 95}, {"time": 95523, "pitch": 67, "duration": 119, "velocity": 104}, {"time": 96479, "pitch": 57, "duration": 120, "velocity": 80}, {"time": 96481, "pitch": 60, "duration": 120, "velocity": 87}, {"time": 96483, "pitch": 65, "duration": 120, "velocity": 97}, {"time": 96720, "pitch": 57, "duration": 119, "velocity": 90}, {"time": 96722, "pitch": 60, "duration": 119, "velocity": 95}, {"time": 96724, "pitch": 65, "duration": 119, "velocity": 97}, {"time": 96960, "pitch": 57, "duration": 119, "velocity": 90}, {"time": 96962, "pitch": 60, "duration": 119, "velocity": 95}, {"time": 96964, "pitch": 65, "duration": 119, "velocity": 97}, {"time": 97200, "pitch": 57, "duration": 119, "velocity": 90}, {"time": 97202, "pitch": 60, "duration": 119, "velocity": 95}, {"time": 97204, "pitch": 65, "duration": 119, "velocity": 97}, {"time": 97440, "pitch": 55, "duration": 119, "velocity": 90}, {"time": 97442, "pitch": 60, "duration": 119, "velocity": 97}, {"time": 97444, "pitch": 64, "duration": 119, "velocity": 100}, {"time": 97681, "pitch": 55, "duration": 119, "velocity": 90}, {"time": 97683, "pitch": 60, "duration": 119, "velocity": 97}, {"time": 97685, "pitch": 64, "duration": 104, "velocity": 100}, {"time": 97801, "pitch": 64, "duration": 100, "velocity": 90}, {"time": 97803, "pitch": 60, "duration": 119, "velocity": 95}, {"time": 97805, "pitch": 55, "duration": 104, "velocity": 98}, {"time": 97921, "pitch": 55, "duration": 100, "velocity": 90}, {"time": 97923, "pitch": 60, "duration": 119, "velocity": 97}, {"time": 97925, "pitch": 64, "duration": 76, "velocity": 100}, {"time": 98041, "pitch": 64, "duration": 184, "velocity": 90}, {"time": 98043, "pitch": 60, "duration": 204, "velocity": 95}, {"time": 98045, "pitch": 55, "duration": 212, "velocity": 100}, {"time": 98281, "pitch": 64, "duration": 119, "velocity": 90}, {"time": 98283, "pitch": 60, "duration": 119, "velocity": 95}, {"time": 98285, "pitch": 55, "duration": 104, "velocity": 100}, {"time": 98401, "pitch": 55, "duration": 144, "velocity": 90}, {"time": 98403, "pitch": 58, "duration": 119, "velocity": 97}, {"time": 98405, "pitch": 63, "duration": 119, "velocity": 100}, {"time": 98641, "pitch": 55, "duration": 120, "velocity": 90}, {"time": 98643, "pitch": 58, "duration": 103, "velocity": 97}, {"time": 98645, "pitch": 63, "duration": 91, "velocity": 100}, {"time": 98762, "pitch": 63, "duration": 100, "velocity": 90}, {"time": 98764, "pitch": 58, "duration": 90, "velocity": 91}, {"time": 98766, "pitch": 55, "duration": 90, "velocity": 100}, {"time": 98882, "pitch": 55, "duration": 100, "velocity": 90}, {"time": 98884, "pitch": 58, "duration": 119, "velocity": 97}, {"time": 98886, "pitch": 63, "duration": 108, "velocity": 100}, {"time": 99002, "pitch": 63, "duration": 112, "velocity": 90}, {"time": 99004, "pitch": 58, "duration": 119, "velocity": 91}, {"time": 99006, "pitch": 55, "duration": 104, "velocity": 95}, {"time": 99122, "pitch": 55, "duration": 100, "velocity": 90}, {"time": 99124, "pitch": 58, "duration": 119, "velocity": 97}, {"time": 99126, "pitch": 63, "duration": 100, "velocity": 100}, {"time": 99242, "pitch": 63, "duration": 100, "velocity": 90}, {"time": 99244, "pitch": 58, "duration": 119, "velocity": 91}, {"time": 99246, "pitch": 55, "duration": 119, "velocity": 95}, {"time": 99362, "pitch": 54, "duration": 119, "velocity": 90}, {"time": 99364, "pitch": 57, "duration": 119, "velocity": 97}, {"time": 99366, "pitch": 62, "duration": 119, "velocity": 100}, {"time": 99602, "pitch": 54, "duration": 119, "velocity": 90}, {"time": 99604, "pitch": 57, "duration": 119, "velocity": 97}, {"time": 99606, "pitch": 62, "duration": 100, "velocity": 100}, {"time": 99722, "pitch": 62, "duration": 96, "velocity": 90}, {"time": 99724, "pitch": 57, "duration": 120, "velocity": 95}, {"time": 99726, "pitch": 54, "duration": 100, "velocity": 98}, {"time": 99843, "pitch": 54, "duration": 100, "velocity": 90}, {"time": 99845, "pitch": 57, "duration": 119, "velocity": 97}, {"time": 99847, "pitch": 62, "duration": 104, "velocity": 100}, {"time": 99963, "pitch": 62, "duration": 224, "velocity": 90}, {"time": 99965, "pitch": 57, "duration": 240, "velocity": 95}, {"time": 99967, "pitch": 54, "duration": 240, "velocity": 98}, {"time": 100323, "pitch": 60, "duration": 118, "velocity": 90}, {"time": 100326, "pitch": 64, "duration": 118, "velocity": 95}, {"time": 100329, "pitch": 69, "duration": 117, "velocity": 100}, {"time": 100560, "pitch": 60, "duration": 118, "velocity": 90}, {"time": 100562, "pitch": 64, "duration": 118, "velocity": 95}, {"time": 100564, "pitch": 69, "duration": 118, "velocity": 98}, {"time": 100797, "pitch": 60, "duration": 120, "velocity": 90}, {"time": 100799, "pitch": 64, "duration": 120, "velocity": 91}, {"time": 100801, "pitch": 69, "duration": 120, "velocity": 104}, {"time": 101038, "pitch": 60, "duration": 119, "velocity": 90}, {"time": 101040, "pitch": 64, "duration": 119, "velocity": 91}, {"time": 101042, "pitch": 69, "duration": 119, "velocity": 100}, {"time": 101278, "pitch": 59, "duration": 119, "velocity": 90}, {"time": 101280, "pitch": 64, "duration": 119, "velocity": 91}, {"time": 101282, "pitch": 68, "duration": 119, "velocity": 94}, {"time": 101518, "pitch": 59, "duration": 119, "velocity": 90}, {"time": 101520, "pitch": 64, "duration": 102, "velocity": 91}, {"time": 101522, "pitch": 68, "duration": 119, "velocity": 95}, {"time": 101638, "pitch": 59, "duration": 119, "velocity": 90}, {"time": 101640, "pitch": 64, "duration": 119, "velocity": 91}, {"time": 101642, "pitch": 68, "duration": 104, "velocity": 100}, {"time": 101758, "pitch": 59, "duration": 119, "velocity": 90}, {"time": 101760, "pitch": 64, "duration": 119, "velocity": 91}, {"time": 101762, "pitch": 68, "duration": 119, "velocity": 98}, {"time": 101878, "pitch": 59, "duration": 241, "velocity": 90}, {"time": 101880, "pitch": 64, "duration": 241, "velocity": 91}, {"time": 101882, "pitch": 68, "duration": 241, "velocity": 107}, {"time": 102239, "pitch": 60, "duration": 119, "velocity": 90}, {"time": 102241, "pitch": 64, "duration": 119, "velocity": 91}, {"time": 102243, "pitch": 67, "duration": 119, "velocity": 100}, {"time": 102359, "pitch": 60, "duration": 119, "velocity": 90}, {"time": 102361, "pitch": 64, "duration": 119, "velocity": 91}, {"time": 102363, "pitch": 67, "duration": 119, "velocity": 95}, {"time": 102479, "pitch": 60, "duration": 119, "velocity": 90}, {"time": 102481, "pitch": 64, "duration": 119, "velocity": 91}, {"time": 102483, "pitch": 67, "duration": 119, "velocity": 98}, {"time": 102719, "pitch": 60, "duration": 119, "velocity": 90}, {"time": 102721, "pitch": 64, "duration": 119, "velocity": 91}, {"time": 102723, "pitch": 67, "duration": 119, "velocity": 107}, {"time": 102959, "pitch": 60, "duration": 120, "velocity": 90}, {"time": 102961, "pitch": 64, "duration": 120, "velocity": 91}, {"time": 102963, "pitch": 67, "duration": 120, "velocity": 100}, {"time": 103200, "pitch": 57, "duration": 119, "velocity": 90}, {"time": 103202, "pitch": 62, "duration": 119, "velocity": 95}, {"time": 103204, "pitch": 66, "duration": 119, "velocity": 96}, {"time": 103440, "pitch": 57, "duration": 119, "velocity": 90}, {"time": 103442, "pitch": 62, "duration": 119, "velocity": 95}, {"time": 103444, "pitch": 66, "duration": 119, "velocity": 98}, {"time": 103560, "pitch": 57, "duration": 119, "velocity": 90}, {"time": 103562, "pitch": 62, "duration": 106, "velocity": 91}, {"time": 103564, "pitch": 66, "duration": 96, "velocity": 97}, {"time": 103680, "pitch": 57, "duration": 119, "velocity": 90}, {"time": 103682, "pitch": 62, "duration": 119, "velocity": 91}, {"time": 103684, "pitch": 66, "duration": 119, "velocity": 101}, {"time": 103800, "pitch": 57, "duration": 119, "velocity": 90}, {"time": 103802, "pitch": 62, "duration": 119, "velocity": 91}, {"time": 103804, "pitch": 66, "duration": 119, "velocity": 98}, {"time": 103920, "pitch": 57, "duration": 119, "velocity": 90}, {"time": 103922, "pitch": 62, "duration": 119, "velocity": 91}, {"time": 103924, "pitch": 66, "duration": 119, "velocity": 108}, {"time": 104160, "pitch": 57, "duration": 120, "velocity": 90}, {"time": 104162, "pitch": 60, "duration": 120, "velocity": 91}, {"time": 104166, "pitch": 65, "duration": 120, "velocity": 110}, {"time": 104401, "pitch": 57, "duration": 119, "velocity": 90}, {"time": 104403, "pitch": 60, "duration": 119, "velocity": 91}, {"time": 104405, "pitch": 65, "duration": 119, "velocity": 100}, {"time": 104641, "pitch": 57, "duration": 240, "velocity": 90}, {"time": 104643, "pitch": 60, "duration": 240, "velocity": 91}, {"time": 104645, "pitch": 65, "duration": 240, "velocity": 111}, {"time": 105001, "pitch": 57, "duration": 119, "velocity": 90}, {"time": 105003, "pitch": 60, "duration": 119, "velocity": 91}, {"time": 105005, "pitch": 65, "duration": 119, "velocity": 111}, {"time": 105241, "pitch": 57, "duration": 120, "velocity": 90}, {"time": 105243, "pitch": 60, "duration": 87, "velocity": 91}, {"time": 105245, "pitch": 65, "duration": 120, "velocity": 99}, {"time": 105362, "pitch": 57, "duration": 240, "velocity": 90}, {"time": 105364, "pitch": 60, "duration": 240, "velocity": 91}, {"time": 105366, "pitch": 65, "duration": 240, "velocity": 114}, {"time": 105722, "pitch": 57, "duration": 119, "velocity": 90}, {"time": 105724, "pitch": 60, "duration": 119, "velocity": 91}, {"time": 105726, "pitch": 65, "duration": 119, "velocity": 111}, {"time": 105842, "pitch": 57, "duration": 119, "velocity": 90}, {"time": 105844, "pitch": 60, "duration": 119, "velocity": 91}, {"time": 105846, "pitch": 65, "duration": 119, "velocity": 114}, {"time": 106082, "pitch": 59, "duration": 119, "velocity": 90}, {"time": 106084, "pitch": 62, "duration": 119, "velocity": 91}, {"time": 106086, "pitch": 67, "duration": 119, "velocity": 100}, {"time": 106322, "pitch": 59, "duration": 120, "velocity": 90}, {"time": 106324, "pitch": 62, "duration": 120, "velocity": 91}, {"time": 106326, "pitch": 67, "duration": 120, "velocity": 100}, {"time": 106443, "pitch": 59, "duration": 119, "velocity": 91}, {"time": 106445, "pitch": 62, "duration": 119, "velocity": 92}, {"time": 106447, "pitch": 67, "duration": 92, "velocity": 95}, {"time": 106563, "pitch": 59, "duration": 117, "velocity": 90}, {"time": 106565, "pitch": 62, "duration": 117, "velocity": 95}, {"time": 106567, "pitch": 67, "duration": 117, "velocity": 112}, {"time": 106800, "pitch": 59, "duration": 118, "velocity": 90}, {"time": 106802, "pitch": 62, "duration": 118, "velocity": 91}, {"time": 106804, "pitch": 67, "duration": 118, "velocity": 98}, {"time": 107037, "pitch": 59, "duration": 119, "velocity": 90}, {"time": 107039, "pitch": 62, "duration": 119, "velocity": 91}, {"time": 107041, "pitch": 67, "duration": 119, "velocity": 92}, {"time": 107277, "pitch": 59, "duration": 119, "velocity": 95}, {"time": 107279, "pitch": 62, "duration": 119, "velocity": 98}, {"time": 107281, "pitch": 67, "duration": 119, "velocity": 104}, {"time": 107518, "pitch": 59, "duration": 119, "velocity": 90}, {"time": 107520, "pitch": 62, "duration": 119, "velocity": 95}, {"time": 107522, "pitch": 67, "duration": 119, "velocity": 109}, {"time": 107758, "pitch": 59, "duration": 119, "velocity": 90}, {"time": 107760, "pitch": 62, "duration": 119, "velocity": 95}, {"time": 107762, "pitch": 67, "duration": 119, "velocity": 104}, {"time": 107998, "pitch": 60, "duration": 119, "velocity": 90}, {"time": 108000, "pitch": 64, "duration": 119, "velocity": 91}, {"time": 108002, "pitch": 69, "duration": 119, "velocity": 100}, {"time": 108238, "pitch": 60, "duration": 119, "velocity": 90}, {"time": 108240, "pitch": 64, "duration": 119, "velocity": 91}, {"time": 108242, "pitch": 69, "duration": 119, "velocity": 105}, {"time": 108478, "pitch": 60, "duration": 120, "velocity": 90}, {"time": 108480, "pitch": 64, "duration": 120, "velocity": 91}, {"time": 108482, "pitch": 69, "duration": 120, "velocity": 98}, {"time": 108719, "pitch": 60, "duration": 119, "velocity": 90}, {"time": 108721, "pitch": 64, "duration": 119, "velocity": 91}, {"time": 108723, "pitch": 69, "duration": 119, "velocity": 105}, {"time": 108959, "pitch": 60, "duration": 119, "velocity": 90}, {"time": 108961, "pitch": 64, "duration": 119, "velocity": 95}, {"time": 108963, "pitch": 69, "duration": 119, "velocity": 98}, {"time": 109199, "pitch": 60, "duration": 119, "velocity": 90}, {"time": 109201, "pitch": 64, "duration": 119, "velocity": 91}, {"time": 109203, "pitch": 69, "duration": 119, "velocity": 95}, {"time": 109439, "pitch": 60, "duration": 119, "velocity": 90}, {"time": 109441, "pitch": 64, "duration": 119, "velocity": 91}, {"time": 109443, "pitch": 69, "duration": 119, "velocity": 101}, {"time": 109680, "pitch": 60, "duration": 119, "velocity": 90}, {"time": 109682, "pitch": 64, "duration": 119, "velocity": 91}, {"time": 109684, "pitch": 69, "duration": 119, "velocity": 94}, {"time": 109920, "pitch": 61, "duration": 119, "velocity": 90}, {"time": 109922, "pitch": 64, "duration": 119, "velocity": 91}, {"time": 109924, "pitch": 69, "duration": 119, "velocity": 98}, {"time": 110160, "pitch": 61, "duration": 119, "velocity": 90}, {"time": 110162, "pitch": 64, "duration": 119, "velocity": 91}, {"time": 110164, "pitch": 69, "duration": 119, "velocity": 98}, {"time": 110400, "pitch": 61, "duration": 119, "velocity": 90}, {"time": 110402, "pitch": 64, "duration": 119, "velocity": 91}, {"time": 110404, "pitch": 69, "duration": 119, "velocity": 100}, {"time": 110640, "pitch": 61, "duration": 120, "velocity": 90}, {"time": 110642, "pitch": 64, "duration": 120, "velocity": 95}, {"time": 110644, "pitch": 69, "duration": 120, "velocity": 105}, {"time": 110881, "pitch": 61, "duration": 119, "velocity": 90}, {"time": 110883, "pitch": 64, "duration": 119, "velocity": 91}, {"time": 110885, "pitch": 69, "duration": 119, "velocity": 98}, {"time": 111121, "pitch": 61, "duration": 119, "velocity": 90}, {"time": 111123, "pitch": 64, "duration": 119, "velocity": 91}, {"time": 111125, "pitch": 69, "duration": 119, "velocity": 100}, {"time": 111361, "pitch": 61, "duration": 119, "velocity": 90}, {"time": 111363, "pitch": 64, "duration": 119, "velocity": 91}, {"time": 111365, "pitch": 69, "duration": 119, "velocity": 98}, {"time": 111601, "pitch": 61, "duration": 119, "velocity": 90}, {"time": 111603, "pitch": 64, "duration": 119, "velocity": 91}, {"time": 111605, "pitch": 69, "duration": 119, "velocity": 105}, {"time": 111841, "pitch": 60, "duration": 120, "velocity": 90}, {"time": 111843, "pitch": 64, "duration": 120, "velocity": 95}, {"time": 111845, "pitch": 67, "duration": 120, "velocity": 99}, {"time": 112082, "pitch": 60, "duration": 119, "velocity": 90}, {"time": 112084, "pitch": 64, "duration": 119, "velocity": 95}, {"time": 112086, "pitch": 67, "duration": 119, "velocity": 90}, {"time": 112322, "pitch": 60, "duration": 119, "velocity": 90}, {"time": 112324, "pitch": 64, "duration": 119, "velocity": 95}, {"time": 112326, "pitch": 67, "duration": 119, "velocity": 98}, {"time": 112562, "pitch": 60, "duration": 119, "velocity": 90}, {"time": 112564, "pitch": 64, "duration": 119, "velocity": 95}, {"time": 112566, "pitch": 67, "duration": 119, "velocity": 98}, {"time": 112802, "pitch": 59, "duration": 119, "velocity": 90}, {"time": 112804, "pitch": 64, "duration": 119, "velocity": 95}, {"time": 112806, "pitch": 68, "duration": 119, "velocity": 98}, {"time": 113043, "pitch": 59, "duration": 119, "velocity": 90}, {"time": 113045, "pitch": 64, "duration": 119, "velocity": 95}, {"time": 113047, "pitch": 68, "duration": 119, "velocity": 98}, {"time": 113163, "pitch": 59, "duration": 119, "velocity": 90}, {"time": 113165, "pitch": 64, "duration": 119, "velocity": 95}, {"time": 113167, "pitch": 68, "duration": 104, "velocity": 98}, {"time": 113283, "pitch": 59, "duration": 117, "velocity": 90}, {"time": 113285, "pitch": 64, "duration": 166, "velocity": 95}, {"time": 113287, "pitch": 68, "duration": 166, "velocity": 107}, {"time": 113520, "pitch": 59, "duration": 118, "velocity": 90}, {"time": 113522, "pitch": 64, "duration": 118, "velocity": 95}, {"time": 113524, "pitch": 68, "duration": 118, "velocity": 101}, {"time": 113757, "pitch": 60, "duration": 119, "velocity": 90}, {"time": 113759, "pitch": 64, "duration": 119, "velocity": 95}, {"time": 113761, "pitch": 69, "duration": 119, "velocity": 98}, {"time": 113998, "pitch": 60, "duration": 119, "velocity": 90}, {"time": 114000, "pitch": 64, "duration": 119, "velocity": 95}, {"time": 114002, "pitch": 69, "duration": 119, "velocity": 100}, {"time": 114238, "pitch": 60, "duration": 119, "velocity": 90}, {"time": 114240, "pitch": 64, "duration": 119, "velocity": 95}, {"time": 114242, "pitch": 69, "duration": 119, "velocity": 106}, {"time": 114478, "pitch": 60, "duration": 119, "velocity": 90}, {"time": 114480, "pitch": 64, "duration": 119, "velocity": 95}, {"time": 114482, "pitch": 69, "duration": 108, "velocity": 97}, {"time": 114598, "pitch": 69, "duration": 124, "velocity": 91}, {"time": 114600, "pitch": 64, "duration": 119, "velocity": 94}, {"time": 114602, "pitch": 60, "duration": 119, "velocity": 109}, {"time": 114838, "pitch": 60, "duration": 119, "velocity": 90}, {"time": 114840, "pitch": 64, "duration": 119, "velocity": 91}, {"time": 114842, "pitch": 69, "duration": 108, "velocity": 98}, {"time": 114958, "pitch": 69, "duration": 124, "velocity": 90}, {"time": 114960, "pitch": 64, "duration": 119, "velocity": 19}, {"time": 114962, "pitch": 60, "duration": 119, "velocity": 103}, {"time": 115199, "pitch": 60, "duration": 119, "velocity": 90}, {"time": 115201, "pitch": 64, "duration": 119, "velocity": 95}, {"time": 115203, "pitch": 69, "duration": 119, "velocity": 104}, {"time": 115439, "pitch": 60, "duration": 119, "velocity": 90}, {"time": 115441, "pitch": 64, "duration": 119, "velocity": 95}, {"time": 115443, "pitch": 69, "duration": 119, "velocity": 101}, {"time": 115679, "pitch": 60, "duration": 119, "velocity": 90}, {"time": 115681, "pitch": 64, "duration": 119, "velocity": 95}, {"time": 115683, "pitch": 67, "duration": 119, "velocity": 99}, {"time": 115919, "pitch": 60, "duration": 119, "velocity": 90}, {"time": 115921, "pitch": 64, "duration": 119, "velocity": 95}, {"time": 115923, "pitch": 67, "duration": 119, "velocity": 90}, {"time": 116159, "pitch": 60, "duration": 120, "velocity": 90}, {"time": 116161, "pitch": 64, "duration": 120, "velocity": 95}, {"time": 116163, "pitch": 67, "duration": 120, "velocity": 98}, {"time": 116400, "pitch": 60, "duration": 119, "velocity": 90}, {"time": 116402, "pitch": 64, "duration": 119, "velocity": 95}, {"time": 116404, "pitch": 67, "duration": 119, "velocity": 98}, {"time": 116640, "pitch": 59, "duration": 119, "velocity": 90}, {"time": 116642, "pitch": 64, "duration": 119, "velocity": 95}, {"time": 116644, "pitch": 68, "duration": 119, "velocity": 98}, {"time": 116880, "pitch": 59, "duration": 119, "velocity": 90}, {"time": 116882, "pitch": 64, "duration": 102, "velocity": 95}, {"time": 116884, "pitch": 68, "duration": 112, "velocity": 98}, {"time": 117000, "pitch": 59, "duration": 119, "velocity": 90}, {"time": 117002, "pitch": 64, "duration": 119, "velocity": 95}, {"time": 117004, "pitch": 68, "duration": 112, "velocity": 98}, {"time": 117120, "pitch": 59, "duration": 119, "velocity": 90}, {"time": 117122, "pitch": 64, "duration": 168, "velocity": 95}, {"time": 117124, "pitch": 68, "duration": 168, "velocity": 107}, {"time": 117361, "pitch": 59, "duration": 119, "velocity": 90}, {"time": 117363, "pitch": 64, "duration": 119, "velocity": 95}, {"time": 117365, "pitch": 68, "duration": 119, "velocity": 101}, {"time": 117601, "pitch": 60, "duration": 119, "velocity": 90}, {"time": 117603, "pitch": 64, "duration": 119, "velocity": 95}, {"time": 117605, "pitch": 69, "duration": 119, "velocity": 98}, {"time": 117841, "pitch": 60, "duration": 119, "velocity": 90}, {"time": 117843, "pitch": 64, "duration": 119, "velocity": 95}, {"time": 117845, "pitch": 69, "duration": 119, "velocity": 100}, {"time": 118081, "pitch": 60, "duration": 119, "velocity": 90}, {"time": 118083, "pitch": 64, "duration": 119, "velocity": 95}, {"time": 118085, "pitch": 69, "duration": 119, "velocity": 106}, {"time": 118321, "pitch": 60, "duration": 120, "velocity": 90}, {"time": 118323, "pitch": 64, "duration": 120, "velocity": 95}, {"time": 118325, "pitch": 69, "duration": 113, "velocity": 97}, {"time": 118442, "pitch": 69, "duration": 108, "velocity": 91}, {"time": 118444, "pitch": 64, "duration": 119, "velocity": 94}, {"time": 118446, "pitch": 60, "duration": 119, "velocity": 109}, {"time": 118682, "pitch": 60, "duration": 119, "velocity": 90}, {"time": 118684, "pitch": 64, "duration": 119, "velocity": 91}, {"time": 118686, "pitch": 69, "duration": 76, "velocity": 98}, {"time": 118802, "pitch": 69, "duration": 168, "velocity": 90}, {"time": 118804, "pitch": 64, "duration": 119, "velocity": 19}, {"time": 118806, "pitch": 60, "duration": 119, "velocity": 103}, {"time": 119042, "pitch": 60, "duration": 119, "velocity": 90}, {"time": 119044, "pitch": 64, "duration": 119, "velocity": 95}, {"time": 119046, "pitch": 69, "duration": 119, "velocity": 104}, {"time": 119282, "pitch": 60, "duration": 119, "velocity": 90}, {"time": 119284, "pitch": 64, "duration": 119, "velocity": 95}, {"time": 119286, "pitch": 69, "duration": 119, "velocity": 101}, {"time": 119522, "pitch": 57, "duration": 120, "velocity": 90}, {"time": 119526, "pitch": 60, "duration": 120, "velocity": 95}, {"time": 119528, "pitch": 65, "duration": 119, "velocity": 102}, {"time": 119763, "pitch": 57, "duration": 119, "velocity": 90}, {"time": 119767, "pitch": 60, "duration": 119, "velocity": 95}, {"time": 119768, "pitch": 65, "duration": 119, "velocity": 107}, {"time": 120003, "pitch": 57, "duration": 118, "velocity": 90}, {"time": 120007, "pitch": 60, "duration": 118, "velocity": 95}, {"time": 120008, "pitch": 65, "duration": 117, "velocity": 107}, {"time": 120240, "pitch": 57, "duration": 118, "velocity": 90}, {"time": 120240, "pitch": 65, "duration": 118, "velocity": 95}, {"time": 120244, "pitch": 60, "duration": 118, "velocity": 98}, {"time": 120477, "pitch": 55, "duration": 120, "velocity": 90}, {"time": 120479, "pitch": 64, "duration": 120, "velocity": 95}, {"time": 120481, "pitch": 60, "duration": 120, "velocity": 97}, {"time": 120718, "pitch": 55, "duration": 119, "velocity": 90}, {"time": 120720, "pitch": 64, "duration": 119, "velocity": 95}, {"time": 120722, "pitch": 60, "duration": 119, "velocity": 100}, {"time": 120958, "pitch": 55, "duration": 119, "velocity": 90}, {"time": 120960, "pitch": 64, "duration": 119, "velocity": 95}, {"time": 120962, "pitch": 60, "duration": 119, "velocity": 105}, {"time": 121078, "pitch": 55, "duration": 119, "velocity": 90}, {"time": 121080, "pitch": 64, "duration": 119, "velocity": 95}, {"time": 121083, "pitch": 60, "duration": 119, "velocity": 98}, {"time": 121198, "pitch": 55, "duration": 240, "velocity": 90}, {"time": 121200, "pitch": 64, "duration": 240, "velocity": 95}, {"time": 121202, "pitch": 60, "duration": 239, "velocity": 107}, {"time": 121438, "pitch": 57, "duration": 119, "velocity": 90}, {"time": 121438, "pitch": 65, "duration": 119, "velocity": 95}, {"time": 121442, "pitch": 60, "duration": 119, "velocity": 100}, {"time": 121679, "pitch": 57, "duration": 119, "velocity": 90}, {"time": 121679, "pitch": 65, "duration": 119, "velocity": 95}, {"time": 121683, "pitch": 60, "duration": 119, "velocity": 98}, {"time": 121919, "pitch": 57, "duration": 119, "velocity": 90}, {"time": 121919, "pitch": 65, "duration": 119, "velocity": 95}, {"time": 121923, "pitch": 60, "duration": 119, "velocity": 100}, {"time": 122159, "pitch": 57, "duration": 119, "velocity": 90}, {"time": 122159, "pitch": 65, "duration": 119, "velocity": 95}, {"time": 122163, "pitch": 60, "duration": 119, "velocity": 98}, {"time": 122399, "pitch": 55, "duration": 119, "velocity": 90}, {"time": 122401, "pitch": 64, "duration": 119, "velocity": 95}, {"time": 122403, "pitch": 60, "duration": 119, "velocity": 100}, {"time": 122639, "pitch": 55, "duration": 119, "velocity": 90}, {"time": 122641, "pitch": 64, "duration": 119, "velocity": 95}, {"time": 122643, "pitch": 60, "duration": 119, "velocity": 105}, {"time": 122880, "pitch": 55, "duration": 119, "velocity": 90}, {"time": 122882, "pitch": 64, "duration": 119, "velocity": 95}, {"time": 122884, "pitch": 60, "duration": 104, "velocity": 98}, {"time": 123000, "pitch": 60, "duration": 116, "velocity": 90}, {"time": 123002, "pitch": 64, "duration": 119, "velocity": 95}, {"time": 123004, "pitch": 55, "duration": 68, "velocity": 105}, {"time": 123120, "pitch": 55, "duration": 104, "velocity": 90}, {"time": 123122, "pitch": 64, "duration": 119, "velocity": 95}, {"time": 123124, "pitch": 60, "duration": 119, "velocity": 100}, {"time": 123360, "pitch": 57, "duration": 119, "velocity": 90}, {"time": 123364, "pitch": 60, "duration": 119, "velocity": 95}, {"time": 123368, "pitch": 65, "duration": 119, "velocity": 103}, {"time": 123600, "pitch": 57, "duration": 119, "velocity": 90}, {"time": 123604, "pitch": 60, "duration": 119, "velocity": 95}, {"time": 123606, "pitch": 65, "duration": 119, "velocity": 104}, {"time": 123840, "pitch": 57, "duration": 120, "velocity": 90}, {"time": 123844, "pitch": 60, "duration": 120, "velocity": 95}, {"time": 123846, "pitch": 65, "duration": 120, "velocity": 106}, {"time": 124081, "pitch": 57, "duration": 119, "velocity": 90}, {"time": 124085, "pitch": 60, "duration": 119, "velocity": 95}, {"time": 124087, "pitch": 65, "duration": 119, "velocity": 104}, {"time": 124321, "pitch": 59, "duration": 119, "velocity": 90}, {"time": 124323, "pitch": 62, "duration": 119, "velocity": 95}, {"time": 124325, "pitch": 67, "duration": 119, "velocity": 104}, {"time": 125282, "pitch": 60, "duration": 96, "velocity": 90}, {"time": 125284, "pitch": 64, "duration": 110, "velocity": 91}, {"time": 125286, "pitch": 69, "duration": 110, "velocity": 99}, {"time": 125522, "pitch": 60, "duration": 93, "velocity": 90}, {"time": 125524, "pitch": 64, "duration": 106, "velocity": 91}, {"time": 125526, "pitch": 69, "duration": 94, "velocity": 100}, {"time": 125762, "pitch": 60, "duration": 81, "velocity": 90}, {"time": 125764, "pitch": 64, "duration": 110, "velocity": 95}, {"time": 125766, "pitch": 69, "duration": 95, "velocity": 98}, {"time": 126002, "pitch": 60, "duration": 78, "velocity": 90}, {"time": 126004, "pitch": 64, "duration": 107, "velocity": 91}, {"time": 126006, "pitch": 69, "duration": 100, "velocity": 95}, {"time": 126243, "pitch": 60, "duration": 83, "velocity": 90}, {"time": 126245, "pitch": 64, "duration": 105, "velocity": 91}, {"time": 126247, "pitch": 68, "duration": 100, "velocity": 95}, {"time": 126480, "pitch": 60, "duration": 73, "velocity": 90}, {"time": 126482, "pitch": 64, "duration": 102, "velocity": 91}, {"time": 126484, "pitch": 68, "duration": 95, "velocity": 95}, {"time": 126717, "pitch": 60, "duration": 73, "velocity": 90}, {"time": 126719, "pitch": 64, "duration": 102, "velocity": 91}, {"time": 126721, "pitch": 68, "duration": 97, "velocity": 95}, {"time": 126957, "pitch": 60, "duration": 90, "velocity": 90}, {"time": 126959, "pitch": 64, "duration": 120, "velocity": 91}, {"time": 126961, "pitch": 68, "duration": 116, "velocity": 99}, {"time": 127198, "pitch": 60, "duration": 92, "velocity": 90}, {"time": 127200, "pitch": 64, "duration": 115, "velocity": 91}, {"time": 127202, "pitch": 67, "duration": 104, "velocity": 95}, {"time": 127438, "pitch": 60, "duration": 100, "velocity": 90}, {"time": 127440, "pitch": 64, "duration": 115, "velocity": 91}, {"time": 127442, "pitch": 67, "duration": 108, "velocity": 95}, {"time": 127678, "pitch": 60, "duration": 100, "velocity": 90}, {"time": 127680, "pitch": 64, "duration": 113, "velocity": 91}, {"time": 127682, "pitch": 67, "duration": 105, "velocity": 95}, {"time": 127918, "pitch": 60, "duration": 93, "velocity": 90}, {"time": 127920, "pitch": 64, "duration": 91, "velocity": 91}, {"time": 127922, "pitch": 67, "duration": 91, "velocity": 95}, {"time": 128158, "pitch": 62, "duration": 106, "velocity": 90}, {"time": 128160, "pitch": 66, "duration": 115, "velocity": 95}, {"time": 128399, "pitch": 62, "duration": 104, "velocity": 90}, {"time": 128401, "pitch": 66, "duration": 109, "velocity": 95}, {"time": 128639, "pitch": 62, "duration": 107, "velocity": 90}, {"time": 128641, "pitch": 66, "duration": 109, "velocity": 95}, {"time": 128879, "pitch": 62, "duration": 99, "velocity": 90}, {"time": 128881, "pitch": 66, "duration": 110, "velocity": 95}, {"time": 129119, "pitch": 57, "duration": 119, "velocity": 90}, {"time": 129123, "pitch": 60, "duration": 119, "velocity": 95}, {"time": 129127, "pitch": 65, "duration": 119, "velocity": 103}, {"time": 129360, "pitch": 57, "duration": 119, "velocity": 90}, {"time": 129364, "pitch": 60, "duration": 119, "velocity": 95}, {"time": 129366, "pitch": 65, "duration": 119, "velocity": 104}, {"time": 129600, "pitch": 57, "duration": 119, "velocity": 90}, {"time": 129604, "pitch": 60, "duration": 119, "velocity": 95}, {"time": 129606, "pitch": 65, "duration": 119, "velocity": 106}, {"time": 129840, "pitch": 57, "duration": 119, "velocity": 90}, {"time": 129844, "pitch": 60, "duration": 119, "velocity": 95}, {"time": 129846, "pitch": 65, "duration": 119, "velocity": 104}, {"time": 130080, "pitch": 59, "duration": 119, "velocity": 90}, {"time": 130082, "pitch": 62, "duration": 119, "velocity": 95}, {"time": 130084, "pitch": 67, "duration": 119, "velocity": 104}, {"time": 131041, "pitch": 55, "duration": 119, "velocity": 90}, {"time": 131045, "pitch": 60, "duration": 119, "velocity": 98}, {"time": 131046, "pitch": 64, "duration": 119, "velocity": 102}, {"time": 131281, "pitch": 55, "duration": 119, "velocity": 90}, {"time": 131285, "pitch": 60, "duration": 96, "velocity": 95}, {"time": 131297, "pitch": 64, "duration": 108, "velocity": 100}, {"time": 131401, "pitch": 55, "duration": 100, "velocity": 100}, {"time": 131404, "pitch": 60, "duration": 108, "velocity": 100}, {"time": 131409, "pitch": 64, "duration": 92, "velocity": 100}, {"time": 131521, "pitch": 55, "duration": 149, "velocity": 90}, {"time": 131525, "pitch": 60, "duration": 120, "velocity": 95}, {"time": 131526, "pitch": 64, "duration": 120, "velocity": 107}, {"time": 131762, "pitch": 55, "duration": 119, "velocity": 90}, {"time": 131766, "pitch": 60, "duration": 119, "velocity": 95}, {"time": 131767, "pitch": 64, "duration": 103, "velocity": 90}, {"time": 131882, "pitch": 64, "duration": 100, "velocity": 95}, {"time": 131886, "pitch": 60, "duration": 119, "velocity": 100}, {"time": 131887, "pitch": 55, "duration": 107, "velocity": 105}, {"time": 132002, "pitch": 55, "duration": 184, "velocity": 90}, {"time": 132004, "pitch": 59, "duration": 119, "velocity": 95}, {"time": 132007, "pitch": 62, "duration": 119, "velocity": 98}, {"time": 132242, "pitch": 55, "duration": 119, "velocity": 90}, {"time": 132244, "pitch": 59, "duration": 119, "velocity": 98}, {"time": 132247, "pitch": 62, "duration": 91, "velocity": 95}, {"time": 132362, "pitch": 62, "duration": 112, "velocity": 90}, {"time": 132364, "pitch": 59, "duration": 119, "velocity": 91}, {"time": 132366, "pitch": 55, "duration": 119, "velocity": 95}, {"time": 132602, "pitch": 55, "duration": 120, "velocity": 90}, {"time": 132604, "pitch": 59, "duration": 120, "velocity": 98}, {"time": 132606, "pitch": 62, "duration": 105, "velocity": 10}, {"time": 132723, "pitch": 62, "duration": 128, "velocity": 90}, {"time": 132726, "pitch": 59, "duration": 119, "velocity": 95}, {"time": 132727, "pitch": 55, "duration": 119, "velocity": 106}, {"time": 132963, "pitch": 57, "duration": 117, "velocity": 90}, {"time": 132967, "pitch": 60, "duration": 117, "velocity": 95}, {"time": 132968, "pitch": 64, "duration": 117, "velocity": 105}, {"time": 133200, "pitch": 57, "duration": 118, "velocity": 90}, {"time": 133204, "pitch": 60, "duration": 118, "velocity": 95}, {"time": 133205, "pitch": 64, "duration": 98, "velocity": 106}, {"time": 133319, "pitch": 64, "duration": 114, "velocity": 90}, {"time": 133323, "pitch": 60, "duration": 102, "velocity": 95}, {"time": 133324, "pitch": 57, "duration": 97, "velocity": 105}, {"time": 133437, "pitch": 57, "duration": 136, "velocity": 90}, {"time": 133441, "pitch": 60, "duration": 119, "velocity": 95}, {"time": 133442, "pitch": 64, "duration": 119, "velocity": 108}, {"time": 133677, "pitch": 57, "duration": 120, "velocity": 90}, {"time": 133682, "pitch": 60, "duration": 119, "velocity": 95}, {"time": 133683, "pitch": 64, "duration": 83, "velocity": 106}, {"time": 133798, "pitch": 64, "duration": 116, "velocity": 90}, {"time": 133802, "pitch": 60, "duration": 119, "velocity": 95}, {"time": 133803, "pitch": 57, "duration": 119, "velocity": 100}, {"time": 133918, "pitch": 55, "duration": 119, "velocity": 90}, {"time": 133920, "pitch": 59, "duration": 119, "velocity": 95}, {"time": 133922, "pitch": 62, "duration": 119, "velocity": 98}, {"time": 134158, "pitch": 55, "duration": 119, "velocity": 90}, {"time": 134161, "pitch": 59, "duration": 119, "velocity": 95}, {"time": 134163, "pitch": 62, "duration": 91, "velocity": 100}, {"time": 134280, "pitch": 62, "duration": 126, "velocity": 90}, {"time": 134281, "pitch": 59, "duration": 119, "velocity": 95}, {"time": 134283, "pitch": 55, "duration": 119, "velocity": 108}, {"time": 134518, "pitch": 55, "duration": 119, "velocity": 90}, {"time": 134520, "pitch": 59, "duration": 119, "velocity": 95}, {"time": 134522, "pitch": 62, "duration": 119, "velocity": 100}, {"time": 134638, "pitch": 55, "duration": 119, "velocity": 90}, {"time": 134640, "pitch": 59, "duration": 119, "velocity": 95}, {"time": 134642, "pitch": 62, "duration": 119, "velocity": 98}, {"time": 134879, "pitch": 57, "duration": 119, "velocity": 90}, {"time": 134883, "pitch": 60, "duration": 119, "velocity": 95}, {"time": 134884, "pitch": 65, "duration": 119, "velocity": 111}, {"time": 135119, "pitch": 57, "duration": 119, "velocity": 90}, {"time": 135123, "pitch": 60, "duration": 104, "velocity": 95}, {"time": 135124, "pitch": 65, "duration": 95, "velocity": 100}, {"time": 135239, "pitch": 65, "duration": 112, "velocity": 90}, {"time": 135242, "pitch": 60, "duration": 81, "velocity": 95}, {"time": 135244, "pitch": 57, "duration": 103, "velocity": 98}, {"time": 135359, "pitch": 57, "duration": 160, "velocity": 90}, {"time": 135363, "pitch": 60, "duration": 119, "velocity": 95}, {"time": 135364, "pitch": 65, "duration": 119, "velocity": 111}, {"time": 135599, "pitch": 57, "duration": 119, "velocity": 90}, {"time": 135603, "pitch": 60, "duration": 119, "velocity": 95}, {"time": 135604, "pitch": 65, "duration": 95, "velocity": 105}, {"time": 135719, "pitch": 65, "duration": 108, "velocity": 90}, {"time": 135723, "pitch": 60, "duration": 104, "velocity": 95}, {"time": 135724, "pitch": 57, "duration": 119, "velocity": 98}, {"time": 135839, "pitch": 55, "duration": 120, "velocity": 90}, {"time": 135843, "pitch": 60, "duration": 120, "velocity": 95}, {"time": 135844, "pitch": 64, "duration": 120, "velocity": 98}, {"time": 136080, "pitch": 55, "duration": 119, "velocity": 90}, {"time": 136084, "pitch": 60, "duration": 119, "velocity": 95}, {"time": 136085, "pitch": 64, "duration": 87, "velocity": 103}, {"time": 136200, "pitch": 64, "duration": 100, "velocity": 90}, {"time": 136204, "pitch": 60, "duration": 92, "velocity": 95}, {"time": 136206, "pitch": 55, "duration": 98, "velocity": 100}, {"time": 136320, "pitch": 55, "duration": 140, "velocity": 90}, {"time": 136324, "pitch": 60, "duration": 119, "velocity": 95}, {"time": 136325, "pitch": 64, "duration": 119, "velocity": 102}, {"time": 136560, "pitch": 60, "duration": 119, "velocity": 90}, {"time": 136565, "pitch": 64, "duration": 119, "velocity": 95}, {"time": 136566, "pitch": 55, "duration": 110, "velocity": 100}, {"time": 136680, "pitch": 55, "duration": 116, "velocity": 90}, {"time": 136684, "pitch": 60, "duration": 96, "velocity": 95}, {"time": 136685, "pitch": 64, "duration": 119, "velocity": 98}, {"time": 136800, "pitch": 57, "duration": 119, "velocity": 90}, {"time": 136802, "pitch": 60, "duration": 138, "velocity": 95}, {"time": 136804, "pitch": 65, "duration": 119, "velocity": 104}, {"time": 137041, "pitch": 57, "duration": 119, "velocity": 90}, {"time": 137043, "pitch": 60, "duration": 119, "velocity": 95}, {"time": 137045, "pitch": 65, "duration": 119, "velocity": 100}, {"time": 137281, "pitch": 57, "duration": 119, "velocity": 90}, {"time": 137283, "pitch": 60, "duration": 119, "velocity": 95}, {"time": 137285, "pitch": 65, "duration": 119, "velocity": 98}, {"time": 137521, "pitch": 57, "duration": 119, "velocity": 90}, {"time": 137523, "pitch": 60, "duration": 119, "velocity": 91}, {"time": 137525, "pitch": 65, "duration": 119, "velocity": 100}, {"time": 137761, "pitch": 59, "duration": 119, "velocity": 90}, {"time": 137763, "pitch": 62, "duration": 119, "velocity": 95}, {"time": 137767, "pitch": 67, "duration": 119, "velocity": 98}, {"time": 138001, "pitch": 59, "duration": 120, "velocity": 90}, {"time": 138003, "pitch": 62, "duration": 120, "velocity": 91}, {"time": 138005, "pitch": 67, "duration": 120, "velocity": 100}, {"time": 138242, "pitch": 59, "duration": 119, "velocity": 90}, {"time": 138244, "pitch": 62, "duration": 119, "velocity": 95}, {"time": 138246, "pitch": 67, "duration": 119, "velocity": 103}, {"time": 138482, "pitch": 59, "duration": 119, "velocity": 90}, {"time": 138484, "pitch": 62, "duration": 119, "velocity": 95}, {"time": 138486, "pitch": 67, "duration": 119, "velocity": 98}, {"time": 138720, "pitch": 60, "duration": 22, "velocity": 90}, {"time": 138720, "pitch": 64, "duration": 32, "velocity": 95}, {"time": 138720, "pitch": 67, "duration": 32, "velocity": 100}, {"time": 138763, "pitch": 60, "duration": 27, "velocity": 90}, {"time": 138769, "pitch": 64, "duration": 21, "velocity": 95}, {"time": 138769, "pitch": 67, "duration": 21, "velocity": 100}, {"time": 139147, "pitch": 60, "duration": 522, "velocity": 90}, {"time": 139179, "pitch": 64, "duration": 490, "velocity": 95}, {"time": 139203, "pitch": 67, "duration": 469, "velocity": 98}, {"time": 139696, "pitch": 60, "duration": 31, "velocity": 90}, {"time": 139696, "pitch": 64, "duration": 31, "velocity": 95}, {"time": 139696, "pitch": 67, "duration": 31, "velocity": 100}, {"time": 139763, "pitch": 60, "duration": 31, "velocity": 90}, {"time": 139763, "pitch": 65, "duration": 31, "velocity": 95}, {"time": 139763, "pitch": 69, "duration": 31, "velocity": 99}, {"time": 139846, "pitch": 60, "duration": 165, "velocity": 90}, {"time": 139846, "pitch": 65, "duration": 165, "velocity": 95}, {"time": 139851, "pitch": 69, "duration": 165, "velocity": 98}, {"time": 140166, "pitch": 60, "duration": 44, "velocity": 90}, {"time": 140168, "pitch": 65, "duration": 80, "velocity": 95}, {"time": 140168, "pitch": 69, "duration": 62, "velocity": 100}, {"time": 140261, "pitch": 60, "duration": 298, "velocity": 90}, {"time": 140261, "pitch": 65, "duration": 254, "velocity": 95}, {"time": 140264, "pitch": 69, "duration": 261, "velocity": 100}, {"time": 140599, "pitch": 60, "duration": 1265, "velocity": 97}, {"time": 140641, "pitch": 64, "duration": 1260, "velocity": 98}, {"time": 140644, "pitch": 67, "duration": 1281, "velocity": 99}], "annotations": [{"time": 403, "annotation": {"number": 7, "value": 70}, "group": "control_change"}, {"time": 422, "annotation": {"number": 11, "value": 100}, "group": "control_change"}, {"time": 442, "annotation": {"number": 10, "value": 110}, "group": "control_change"}, {"time": 461, "annotation": {"number": 91, "value": 75}, "group": "control_change"}, {"time": 480, "annotation": {"number": 93, "value": 30}, "group": "control_change"}, {"time": 480, "annotation": {"number": 101, "value": 0}, "group": "control_change"}, {"time": 480, "annotation": {"number": 100, "value": 0}, "group": "control_change"}, {"time": 480, "annotation": {"number": 6, "value": 12}, "group": "control_change"}, {"time": 480, "annotation": {"number": 101, "value": 127}, "group": "control_change"}, {"time": 482, "annotation": {"number": 100, "value": 127}, "group": "control_change"}]}, {"program": 0, "is_drum": false, "name": "gt/l", "annotations": [{"time": 346, "annotation": {"number": 0, "value": 0}, "group": "control_change"}, {"time": 365, "annotation": {"number": 32, "value": 0}, "group": "control_change"}]}, {"program": 30, "is_drum": false, "name": "gt/l", "notes": [{"time": 4319, "pitch": 41, "duration": 182, "velocity": 92}, {"time": 4559, "pitch": 41, "duration": 195, "velocity": 88}, {"time": 4800, "pitch": 41, "duration": 187, "velocity": 85}, {"time": 5040, "pitch": 41, "duration": 191, "velocity": 92}, {"time": 5280, "pitch": 40, "duration": 191, "velocity": 99}, {"time": 5520, "pitch": 40, "duration": 177, "velocity": 92}, {"time": 5761, "pitch": 40, "duration": 167, "velocity": 93}, {"time": 6001, "pitch": 40, "duration": 198, "velocity": 97}, {"time": 6241, "pitch": 41, "duration": 178, "velocity": 94}, {"time": 6481, "pitch": 41, "duration": 185, "velocity": 84}, {"time": 6721, "pitch": 41, "duration": 184, "velocity": 84}, {"time": 6962, "pitch": 41, "duration": 191, "velocity": 85}, {"time": 7202, "pitch": 43, "duration": 180, "velocity": 93}, {"time": 7442, "pitch": 43, "duration": 173, "velocity": 97}, {"time": 7682, "pitch": 55, "duration": 343, "velocity": 87}, {"time": 8163, "pitch": 48, "duration": 451, "velocity": 98}, {"time": 8637, "pitch": 48, "duration": 460, "velocity": 84}, {"time": 9118, "pitch": 43, "duration": 926, "velocity": 90}, {"time": 25441, "pitch": 64, "duration": 1380, "velocity": 88}, {"time": 26882, "pitch": 64, "duration": 480, "velocity": 92}, {"time": 27362, "pitch": 62, "duration": 970, "velocity": 93}, {"time": 28317, "pitch": 60, "duration": 903, "velocity": 89}, {"time": 29278, "pitch": 55, "duration": 720, "velocity": 91}, {"time": 29278, "pitch": 59, "duration": 720, "velocity": 88}, {"time": 29999, "pitch": 50, "duration": 119, "velocity": 91}, {"time": 30119, "pitch": 52, "duration": 119, "velocity": 91}, {"time": 30239, "pitch": 52, "duration": 479, "velocity": 91}, {"time": 30719, "pitch": 52, "duration": 429, "velocity": 92}, {"time": 30719, "pitch": 55, "duration": 455, "velocity": 91}, {"time": 31200, "pitch": 53, "duration": 937, "velocity": 98}, {"time": 31200, "pitch": 57, "duration": 933, "velocity": 82}, {"time": 32161, "pitch": 55, "duration": 870, "velocity": 101}, {"time": 32161, "pitch": 59, "duration": 960, "velocity": 101}, {"time": 33122, "pitch": 48, "duration": 719, "velocity": 98}, {"time": 33122, "pitch": 53, "duration": 719, "velocity": 99}, {"time": 33842, "pitch": 49, "duration": 239, "velocity": 96}, {"time": 33842, "pitch": 54, "duration": 239, "velocity": 96}, {"time": 34082, "pitch": 50, "duration": 480, "velocity": 98}, {"time": 34082, "pitch": 55, "duration": 480, "velocity": 89}, {"time": 34563, "pitch": 45, "duration": 259, "velocity": 102}, {"time": 34800, "pitch": 47, "duration": 204, "velocity": 102}, {"time": 35037, "pitch": 48, "duration": 950, "velocity": 100}, {"time": 35998, "pitch": 40, "duration": 532, "velocity": 102}, {"time": 36479, "pitch": 44, "duration": 479, "velocity": 103}, {"time": 36959, "pitch": 45, "duration": 1921, "velocity": 97}, {"time": 38881, "pitch": 48, "duration": 990, "velocity": 100}, {"time": 39842, "pitch": 44, "duration": 433, "velocity": 96}, {"time": 40322, "pitch": 47, "duration": 263, "velocity": 80}, {"time": 40562, "pitch": 52, "duration": 196, "velocity": 98}, {"time": 40803, "pitch": 45, "duration": 518, "velocity": 91}, {"time": 41758, "pitch": 64, "duration": 197, "velocity": 96}, {"time": 41998, "pitch": 55, "duration": 100, "velocity": 77}, {"time": 42118, "pitch": 57, "duration": 129, "velocity": 93}, {"time": 42238, "pitch": 60, "duration": 150, "velocity": 98}, {"time": 42358, "pitch": 62, "duration": 172, "velocity": 101}, {"time": 42478, "pitch": 60, "duration": 239, "velocity": 100}, {"time": 42718, "pitch": 48, "duration": 101, "velocity": 94}, {"time": 42722, "pitch": 53, "duration": 104, "velocity": 100}, {"time": 42959, "pitch": 48, "duration": 91, "velocity": 90}, {"time": 42963, "pitch": 53, "duration": 90, "velocity": 99}, {"time": 43199, "pitch": 48, "duration": 87, "velocity": 90}, {"time": 43203, "pitch": 53, "duration": 90, "velocity": 98}, {"time": 43439, "pitch": 48, "duration": 97, "velocity": 90}, {"time": 43443, "pitch": 53, "duration": 100, "velocity": 99}, {"time": 43679, "pitch": 48, "duration": 98, "velocity": 90}, {"time": 43683, "pitch": 52, "duration": 104, "velocity": 96}, {"time": 43919, "pitch": 48, "duration": 104, "velocity": 90}, {"time": 43923, "pitch": 52, "duration": 110, "velocity": 96}, {"time": 44160, "pitch": 48, "duration": 96, "velocity": 90}, {"time": 44164, "pitch": 52, "duration": 99, "velocity": 94}, {"time": 44400, "pitch": 48, "duration": 98, "velocity": 90}, {"time": 44404, "pitch": 52, "duration": 106, "velocity": 96}, {"time": 44640, "pitch": 48, "duration": 104, "velocity": 90}, {"time": 44644, "pitch": 53, "duration": 100, "velocity": 99}, {"time": 44880, "pitch": 48, "duration": 86, "velocity": 90}, {"time": 44884, "pitch": 53, "duration": 78, "velocity": 98}, {"time": 45121, "pitch": 48, "duration": 77, "velocity": 90}, {"time": 45125, "pitch": 53, "duration": 78, "velocity": 98}, {"time": 45361, "pitch": 48, "duration": 91, "velocity": 90}, {"time": 45365, "pitch": 53, "duration": 93, "velocity": 88}, {"time": 45601, "pitch": 48, "duration": 87, "velocity": 90}, {"time": 45605, "pitch": 52, "duration": 91, "velocity": 98}, {"time": 45841, "pitch": 48, "duration": 77, "velocity": 90}, {"time": 45845, "pitch": 52, "duration": 83, "velocity": 94}, {"time": 46081, "pitch": 48, "duration": 80, "velocity": 90}, {"time": 46085, "pitch": 52, "duration": 76, "velocity": 91}, {"time": 46322, "pitch": 48, "duration": 94, "velocity": 90}, {"time": 46326, "pitch": 52, "duration": 93, "velocity": 91}, {"time": 46562, "pitch": 48, "duration": 112, "velocity": 90}, {"time": 46566, "pitch": 53, "duration": 100, "velocity": 96}, {"time": 46802, "pitch": 48, "duration": 86, "velocity": 90}, {"time": 46806, "pitch": 53, "duration": 88, "velocity": 95}, {"time": 47042, "pitch": 48, "duration": 87, "velocity": 90}, {"time": 47046, "pitch": 53, "duration": 91, "velocity": 95}, {"time": 47282, "pitch": 48, "duration": 84, "velocity": 90}, {"time": 47286, "pitch": 53, "duration": 80, "velocity": 95}, {"time": 47523, "pitch": 50, "duration": 86, "velocity": 90}, {"time": 47527, "pitch": 55, "duration": 107, "velocity": 100}, {"time": 48478, "pitch": 48, "duration": 161, "velocity": 90}, {"time": 48480, "pitch": 55, "duration": 160, "velocity": 95}, {"time": 48718, "pitch": 48, "duration": 173, "velocity": 90}, {"time": 48720, "pitch": 55, "duration": 164, "velocity": 95}, {"time": 48958, "pitch": 48, "duration": 140, "velocity": 90}, {"time": 48960, "pitch": 55, "duration": 149, "velocity": 95}, {"time": 49198, "pitch": 48, "duration": 131, "velocity": 90}, {"time": 49200, "pitch": 55, "duration": 154, "velocity": 100}, {"time": 49439, "pitch": 47, "duration": 144, "velocity": 90}, {"time": 49441, "pitch": 55, "duration": 183, "velocity": 95}, {"time": 49679, "pitch": 47, "duration": 156, "velocity": 90}, {"time": 49681, "pitch": 55, "duration": 153, "velocity": 100}, {"time": 49919, "pitch": 47, "duration": 142, "velocity": 90}, {"time": 49921, "pitch": 55, "duration": 145, "velocity": 95}, {"time": 50159, "pitch": 47, "duration": 139, "velocity": 90}, {"time": 50161, "pitch": 55, "duration": 128, "velocity": 100}, {"time": 50399, "pitch": 45, "duration": 159, "velocity": 90}, {"time": 50401, "pitch": 52, "duration": 145, "velocity": 95}, {"time": 50640, "pitch": 45, "duration": 150, "velocity": 90}, {"time": 50642, "pitch": 52, "duration": 151, "velocity": 95}, {"time": 50880, "pitch": 45, "duration": 138, "velocity": 95}, {"time": 50882, "pitch": 52, "duration": 130, "velocity": 100}, {"time": 51120, "pitch": 45, "duration": 139, "velocity": 90}, {"time": 51122, "pitch": 52, "duration": 153, "velocity": 100}, {"time": 51360, "pitch": 43, "duration": 168, "velocity": 90}, {"time": 51362, "pitch": 52, "duration": 155, "velocity": 95}, {"time": 51600, "pitch": 43, "duration": 137, "velocity": 90}, {"time": 51602, "pitch": 52, "duration": 93, "velocity": 95}, {"time": 51841, "pitch": 40, "duration": 175, "velocity": 90}, {"time": 51843, "pitch": 47, "duration": 174, "velocity": 98}, {"time": 52081, "pitch": 40, "duration": 157, "velocity": 90}, {"time": 52083, "pitch": 47, "duration": 168, "velocity": 100}, {"time": 52321, "pitch": 41, "duration": 146, "velocity": 90}, {"time": 52323, "pitch": 48, "duration": 141, "velocity": 100}, {"time": 52561, "pitch": 41, "duration": 133, "velocity": 90}, {"time": 52563, "pitch": 48, "duration": 121, "velocity": 95}, {"time": 52802, "pitch": 41, "duration": 107, "velocity": 90}, {"time": 52804, "pitch": 48, "duration": 91, "velocity": 98}, {"time": 53042, "pitch": 41, "duration": 119, "velocity": 90}, {"time": 53044, "pitch": 48, "duration": 96, "velocity": 91}, {"time": 53282, "pitch": 40, "duration": 140, "velocity": 90}, {"time": 53284, "pitch": 48, "duration": 119, "velocity": 100}, {"time": 53522, "pitch": 40, "duration": 128, "velocity": 90}, {"time": 53524, "pitch": 48, "duration": 107, "velocity": 5}, {"time": 53762, "pitch": 40, "duration": 125, "velocity": 90}, {"time": 53764, "pitch": 48, "duration": 104, "velocity": 91}, {"time": 54003, "pitch": 40, "duration": 122, "velocity": 90}, {"time": 54005, "pitch": 48, "duration": 116, "velocity": 98}, {"time": 54243, "pitch": 41, "duration": 130, "velocity": 90}, {"time": 54245, "pitch": 48, "duration": 143, "velocity": 91}, {"time": 54480, "pitch": 41, "duration": 120, "velocity": 90}, {"time": 54482, "pitch": 48, "duration": 132, "velocity": 100}, {"time": 54717, "pitch": 41, "duration": 95, "velocity": 90}, {"time": 54719, "pitch": 48, "duration": 109, "velocity": 95}, {"time": 54958, "pitch": 41, "duration": 113, "velocity": 90}, {"time": 54960, "pitch": 48, "duration": 132, "velocity": 98}, {"time": 55198, "pitch": 43, "duration": 118, "velocity": 90}, {"time": 55200, "pitch": 50, "duration": 103, "velocity": 97}, {"time": 55438, "pitch": 43, "duration": 121, "velocity": 90}, {"time": 55440, "pitch": 50, "duration": 82, "velocity": 98}, {"time": 55678, "pitch": 43, "duration": 85, "velocity": 90}, {"time": 55798, "pitch": 55, "duration": 323, "velocity": 103}, {"time": 56159, "pitch": 43, "duration": 599, "velocity": 98}, {"time": 56159, "pitch": 48, "duration": 719, "velocity": 90}, {"time": 56879, "pitch": 55, "duration": 240, "velocity": 100}, {"time": 57120, "pitch": 43, "duration": 479, "velocity": 92}, {"time": 57600, "pitch": 50, "duration": 119, "velocity": 91}, {"time": 57720, "pitch": 43, "duration": 400, "velocity": 87}, {"time": 73442, "pitch": 64, "duration": 1435, "velocity": 102}, {"time": 74878, "pitch": 64, "duration": 479, "velocity": 97}, {"time": 75358, "pitch": 62, "duration": 960, "velocity": 87}, {"time": 76319, "pitch": 60, "duration": 720, "velocity": 91}, {"time": 77040, "pitch": 60, "duration": 154, "velocity": 91}, {"time": 77280, "pitch": 59, "duration": 1477, "velocity": 111}, {"time": 78721, "pitch": 67, "duration": 406, "velocity": 100}, {"time": 79202, "pitch": 69, "duration": 995, "velocity": 94}, {"time": 80162, "pitch": 67, "duration": 928, "velocity": 96}, {"time": 81117, "pitch": 41, "duration": 190, "velocity": 93}, {"time": 81358, "pitch": 41, "duration": 166, "velocity": 98}, {"time": 81598, "pitch": 41, "duration": 163, "velocity": 89}, {"time": 81838, "pitch": 41, "duration": 127, "velocity": 101}, {"time": 81958, "pitch": 42, "duration": 142, "velocity": 97}, {"time": 82078, "pitch": 43, "duration": 203, "velocity": 102}, {"time": 82319, "pitch": 43, "duration": 220, "velocity": 93}, {"time": 82559, "pitch": 45, "duration": 257, "velocity": 100}, {"time": 82799, "pitch": 47, "duration": 220, "velocity": 104}, {"time": 83039, "pitch": 48, "duration": 947, "velocity": 109}, {"time": 84000, "pitch": 40, "duration": 496, "velocity": 101}, {"time": 84481, "pitch": 44, "duration": 488, "velocity": 106}, {"time": 84961, "pitch": 45, "duration": 1921, "velocity": 99}, {"time": 86883, "pitch": 48, "duration": 948, "velocity": 92}, {"time": 87838, "pitch": 44, "duration": 500, "velocity": 103}, {"time": 88318, "pitch": 50, "duration": 519, "velocity": 94}, {"time": 88798, "pitch": 45, "duration": 480, "velocity": 99}, {"time": 89279, "pitch": 45, "duration": 239, "velocity": 99}, {"time": 89519, "pitch": 47, "duration": 480, "velocity": 99}, {"time": 90000, "pitch": 62, "duration": 264, "velocity": 102}, {"time": 90240, "pitch": 60, "duration": 285, "velocity": 99}, {"time": 90482, "pitch": 59, "duration": 191, "velocity": 102}, {"time": 90720, "pitch": 41, "duration": 119, "velocity": 90}, {"time": 90722, "pitch": 48, "duration": 105, "velocity": 92}, {"time": 90960, "pitch": 41, "duration": 99, "velocity": 90}, {"time": 90962, "pitch": 48, "duration": 73, "velocity": 92}, {"time": 91201, "pitch": 41, "duration": 98, "velocity": 90}, {"time": 91203, "pitch": 48, "duration": 76, "velocity": 97}, {"time": 91441, "pitch": 41, "duration": 239, "velocity": 90}, {"time": 91443, "pitch": 48, "duration": 239, "velocity": 97}, {"time": 91681, "pitch": 40, "duration": 108, "velocity": 90}, {"time": 91683, "pitch": 48, "duration": 97, "velocity": 95}, {"time": 91921, "pitch": 40, "duration": 102, "velocity": 90}, {"time": 91923, "pitch": 48, "duration": 74, "velocity": 93}, {"time": 92162, "pitch": 40, "duration": 108, "velocity": 90}, {"time": 92164, "pitch": 48, "duration": 84, "velocity": 95}, {"time": 92402, "pitch": 40, "duration": 107, "velocity": 90}, {"time": 92404, "pitch": 48, "duration": 92, "velocity": 98}, {"time": 92642, "pitch": 41, "duration": 101, "velocity": 90}, {"time": 92644, "pitch": 48, "duration": 84, "velocity": 97}, {"time": 92882, "pitch": 41, "duration": 84, "velocity": 90}, {"time": 92884, "pitch": 48, "duration": 73, "velocity": 96}, {"time": 93122, "pitch": 41, "duration": 91, "velocity": 90}, {"time": 93124, "pitch": 48, "duration": 77, "velocity": 98}, {"time": 93363, "pitch": 41, "duration": 95, "velocity": 90}, {"time": 93365, "pitch": 48, "duration": 78, "velocity": 97}, {"time": 93603, "pitch": 40, "duration": 94, "velocity": 90}, {"time": 93605, "pitch": 48, "duration": 85, "velocity": 95}, {"time": 93840, "pitch": 40, "duration": 94, "velocity": 90}, {"time": 93842, "pitch": 48, "duration": 81, "velocity": 100}, {"time": 94077, "pitch": 40, "duration": 92, "velocity": 90}, {"time": 94079, "pitch": 48, "duration": 76, "velocity": 95}, {"time": 94318, "pitch": 40, "duration": 239, "velocity": 90}, {"time": 94320, "pitch": 48, "duration": 239, "velocity": 95}, {"time": 94558, "pitch": 41, "duration": 85, "velocity": 103}, {"time": 94560, "pitch": 48, "duration": 73, "velocity": 99}, {"time": 94798, "pitch": 41, "duration": 83, "velocity": 101}, {"time": 94800, "pitch": 48, "duration": 72, "velocity": 97}, {"time": 95038, "pitch": 41, "duration": 87, "velocity": 101}, {"time": 95040, "pitch": 48, "duration": 70, "velocity": 99}, {"time": 95278, "pitch": 41, "duration": 83, "velocity": 104}, {"time": 95280, "pitch": 48, "duration": 83, "velocity": 101}, {"time": 95519, "pitch": 43, "duration": 91, "velocity": 109}, {"time": 95521, "pitch": 50, "duration": 84, "velocity": 108}, {"time": 96479, "pitch": 53, "duration": 120, "velocity": 90}, {"time": 96481, "pitch": 60, "duration": 129, "velocity": 97}, {"time": 96720, "pitch": 53, "duration": 127, "velocity": 90}, {"time": 96722, "pitch": 60, "duration": 126, "velocity": 95}, {"time": 96960, "pitch": 53, "duration": 112, "velocity": 90}, {"time": 96962, "pitch": 60, "duration": 116, "velocity": 92}, {"time": 97200, "pitch": 53, "duration": 116, "velocity": 90}, {"time": 97202, "pitch": 60, "duration": 121, "velocity": 96}, {"time": 97440, "pitch": 52, "duration": 108, "velocity": 90}, {"time": 97442, "pitch": 60, "duration": 110, "velocity": 97}, {"time": 97681, "pitch": 52, "duration": 65, "velocity": 90}, {"time": 97683, "pitch": 60, "duration": 76, "velocity": 95}, {"time": 97801, "pitch": 64, "duration": 239, "velocity": 111}, {"time": 98041, "pitch": 64, "duration": 359, "velocity": 114}, {"time": 98401, "pitch": 63, "duration": 720, "velocity": 114}, {"time": 99242, "pitch": 52, "duration": 77, "velocity": 86}, {"time": 99248, "pitch": 55, "duration": 83, "velocity": 81}, {"time": 99362, "pitch": 50, "duration": 188, "velocity": 101}, {"time": 99602, "pitch": 50, "duration": 52, "velocity": 94}, {"time": 99722, "pitch": 50, "duration": 53, "velocity": 89}, {"time": 99843, "pitch": 50, "duration": 55, "velocity": 101}, {"time": 99963, "pitch": 50, "duration": 236, "velocity": 113}, {"time": 100323, "pitch": 57, "duration": 92, "velocity": 87}, {"time": 100325, "pitch": 60, "duration": 106, "velocity": 90}, {"time": 100560, "pitch": 57, "duration": 84, "velocity": 90}, {"time": 100562, "pitch": 60, "duration": 87, "velocity": 95}, {"time": 100797, "pitch": 57, "duration": 93, "velocity": 90}, {"time": 100799, "pitch": 60, "duration": 104, "velocity": 92}, {"time": 101038, "pitch": 57, "duration": 93, "velocity": 90}, {"time": 101040, "pitch": 60, "duration": 111, "velocity": 95}, {"time": 101278, "pitch": 56, "duration": 109, "velocity": 90}, {"time": 101280, "pitch": 60, "duration": 117, "velocity": 98}, {"time": 101518, "pitch": 56, "duration": 88, "velocity": 90}, {"time": 101520, "pitch": 60, "duration": 113, "velocity": 101}, {"time": 101758, "pitch": 56, "duration": 87, "velocity": 90}, {"time": 101760, "pitch": 60, "duration": 97, "velocity": 100}, {"time": 101999, "pitch": 56, "duration": 93, "velocity": 90}, {"time": 102001, "pitch": 60, "duration": 107, "velocity": 99}, {"time": 102239, "pitch": 55, "duration": 128, "velocity": 90}, {"time": 102241, "pitch": 60, "duration": 119, "velocity": 99}, {"time": 102479, "pitch": 55, "duration": 111, "velocity": 90}, {"time": 102481, "pitch": 60, "duration": 104, "velocity": 97}, {"time": 102719, "pitch": 55, "duration": 99, "velocity": 90}, {"time": 102721, "pitch": 60, "duration": 94, "velocity": 97}, {"time": 102959, "pitch": 55, "duration": 103, "velocity": 90}, {"time": 102961, "pitch": 60, "duration": 92, "velocity": 96}, {"time": 103200, "pitch": 54, "duration": 108, "velocity": 90}, {"time": 103202, "pitch": 60, "duration": 116, "velocity": 94}, {"time": 103440, "pitch": 54, "duration": 96, "velocity": 90}, {"time": 103442, "pitch": 60, "duration": 105, "velocity": 96}, {"time": 103680, "pitch": 54, "duration": 83, "velocity": 90}, {"time": 103682, "pitch": 60, "duration": 96, "velocity": 103}, {"time": 103920, "pitch": 54, "duration": 84, "velocity": 90}, {"time": 103922, "pitch": 60, "duration": 92, "velocity": 104}, {"time": 104160, "pitch": 41, "duration": 122, "velocity": 90}, {"time": 104162, "pitch": 48, "duration": 127, "velocity": 95}, {"time": 104401, "pitch": 41, "duration": 107, "velocity": 90}, {"time": 104403, "pitch": 48, "duration": 101, "velocity": 92}, {"time": 104641, "pitch": 41, "duration": 101, "velocity": 90}, {"time": 104643, "pitch": 48, "duration": 91, "velocity": 103}, {"time": 104881, "pitch": 41, "duration": 90, "velocity": 90}, {"time": 104883, "pitch": 48, "duration": 78, "velocity": 99}, {"time": 105121, "pitch": 41, "duration": 103, "velocity": 90}, {"time": 105123, "pitch": 48, "duration": 104, "velocity": 102}, {"time": 105362, "pitch": 41, "duration": 104, "velocity": 90}, {"time": 105364, "pitch": 48, "duration": 79, "velocity": 97}, {"time": 105602, "pitch": 41, "duration": 129, "velocity": 90}, {"time": 105604, "pitch": 48, "duration": 117, "velocity": 101}, {"time": 105842, "pitch": 42, "duration": 117, "velocity": 90}, {"time": 105844, "pitch": 48, "duration": 116, "velocity": 102}, {"time": 106082, "pitch": 43, "duration": 124, "velocity": 90}, {"time": 106084, "pitch": 50, "duration": 116, "velocity": 104}, {"time": 106322, "pitch": 43, "duration": 103, "velocity": 90}, {"time": 106324, "pitch": 50, "duration": 90, "velocity": 103}, {"time": 106563, "pitch": 43, "duration": 106, "velocity": 90}, {"time": 106565, "pitch": 50, "duration": 96, "velocity": 103}, {"time": 106800, "pitch": 43, "duration": 95, "velocity": 90}, {"time": 106802, "pitch": 50, "duration": 81, "velocity": 104}, {"time": 107037, "pitch": 43, "duration": 104, "velocity": 90}, {"time": 107039, "pitch": 50, "duration": 81, "velocity": 102}, {"time": 107277, "pitch": 43, "duration": 105, "velocity": 90}, {"time": 107279, "pitch": 50, "duration": 91, "velocity": 101}, {"time": 107518, "pitch": 43, "duration": 111, "velocity": 90}, {"time": 107520, "pitch": 50, "duration": 100, "velocity": 103}, {"time": 107758, "pitch": 44, "duration": 114, "velocity": 90}, {"time": 107760, "pitch": 50, "duration": 97, "velocity": 103}, {"time": 107998, "pitch": 45, "duration": 115, "velocity": 90}, {"time": 108000, "pitch": 52, "duration": 105, "velocity": 106}, {"time": 108238, "pitch": 45, "duration": 101, "velocity": 98}, {"time": 108240, "pitch": 52, "duration": 96, "velocity": 95}, {"time": 108478, "pitch": 45, "duration": 99, "velocity": 91}, {"time": 108480, "pitch": 52, "duration": 90, "velocity": 95}, {"time": 108719, "pitch": 45, "duration": 106, "velocity": 91}, {"time": 108721, "pitch": 52, "duration": 93, "velocity": 95}, {"time": 108959, "pitch": 45, "duration": 91, "velocity": 91}, {"time": 108961, "pitch": 52, "duration": 87, "velocity": 95}, {"time": 109199, "pitch": 45, "duration": 93, "velocity": 91}, {"time": 109201, "pitch": 52, "duration": 82, "velocity": 95}, {"time": 109439, "pitch": 45, "duration": 92, "velocity": 91}, {"time": 109441, "pitch": 52, "duration": 83, "velocity": 95}, {"time": 109680, "pitch": 45, "duration": 91, "velocity": 91}, {"time": 109682, "pitch": 52, "duration": 90, "velocity": 95}, {"time": 109920, "pitch": 45, "duration": 96, "velocity": 91}, {"time": 109922, "pitch": 52, "duration": 88, "velocity": 100}, {"time": 110160, "pitch": 45, "duration": 94, "velocity": 90}, {"time": 110162, "pitch": 52, "duration": 89, "velocity": 95}, {"time": 110400, "pitch": 45, "duration": 93, "velocity": 90}, {"time": 110402, "pitch": 52, "duration": 89, "velocity": 91}, {"time": 110640, "pitch": 45, "duration": 100, "velocity": 90}, {"time": 110642, "pitch": 52, "duration": 92, "velocity": 91}, {"time": 110881, "pitch": 45, "duration": 90, "velocity": 90}, {"time": 110883, "pitch": 52, "duration": 92, "velocity": 104}, {"time": 111121, "pitch": 45, "duration": 95, "velocity": 90}, {"time": 111123, "pitch": 52, "duration": 91, "velocity": 102}, {"time": 111361, "pitch": 45, "duration": 104, "velocity": 90}, {"time": 111363, "pitch": 52, "duration": 103, "velocity": 106}, {"time": 111601, "pitch": 45, "duration": 73, "velocity": 90}, {"time": 111603, "pitch": 52, "duration": 76, "velocity": 104}, {"time": 111841, "pitch": 48, "duration": 104, "velocity": 90}, {"time": 111843, "pitch": 52, "duration": 126, "velocity": 95}, {"time": 112082, "pitch": 48, "duration": 81, "velocity": 90}, {"time": 112084, "pitch": 52, "duration": 102, "velocity": 95}, {"time": 112322, "pitch": 48, "duration": 86, "velocity": 90}, {"time": 112324, "pitch": 52, "duration": 114, "velocity": 92}, {"time": 112562, "pitch": 48, "duration": 87, "velocity": 90}, {"time": 112564, "pitch": 52, "duration": 97, "velocity": 96}, {"time": 112802, "pitch": 47, "duration": 97, "velocity": 90}, {"time": 112804, "pitch": 52, "duration": 114, "velocity": 100}, {"time": 113043, "pitch": 47, "duration": 101, "velocity": 90}, {"time": 113045, "pitch": 52, "duration": 105, "velocity": 97}, {"time": 113283, "pitch": 47, "duration": 106, "velocity": 90}, {"time": 113285, "pitch": 52, "duration": 113, "velocity": 100}, {"time": 113520, "pitch": 47, "duration": 87, "velocity": 90}, {"time": 113522, "pitch": 52, "duration": 98, "velocity": 101}, {"time": 113757, "pitch": 45, "duration": 101, "velocity": 90}, {"time": 113759, "pitch": 52, "duration": 84, "velocity": 100}, {"time": 113998, "pitch": 45, "duration": 93, "velocity": 90}, {"time": 114000, "pitch": 52, "duration": 81, "velocity": 101}, {"time": 114238, "pitch": 45, "duration": 93, "velocity": 90}, {"time": 114240, "pitch": 52, "duration": 90, "velocity": 101}, {"time": 114478, "pitch": 45, "duration": 90, "velocity": 90}, {"time": 114480, "pitch": 52, "duration": 80, "velocity": 101}, {"time": 114718, "pitch": 45, "duration": 83, "velocity": 92}, {"time": 114720, "pitch": 52, "duration": 75, "velocity": 101}, {"time": 114958, "pitch": 45, "duration": 87, "velocity": 95}, {"time": 114960, "pitch": 52, "duration": 79, "velocity": 101}, {"time": 115199, "pitch": 45, "duration": 88, "velocity": 98}, {"time": 115201, "pitch": 52, "duration": 73, "velocity": 100}, {"time": 115439, "pitch": 45, "duration": 103, "velocity": 98}, {"time": 115441, "pitch": 52, "duration": 86, "velocity": 99}, {"time": 115679, "pitch": 48, "duration": 102, "velocity": 90}, {"time": 115681, "pitch": 52, "duration": 111, "velocity": 100}, {"time": 115919, "pitch": 48, "duration": 82, "velocity": 90}, {"time": 115921, "pitch": 52, "duration": 94, "velocity": 99}, {"time": 116159, "pitch": 48, "duration": 88, "velocity": 90}, {"time": 116161, "pitch": 52, "duration": 95, "velocity": 92}, {"time": 116400, "pitch": 48, "duration": 73, "velocity": 90}, {"time": 116402, "pitch": 52, "duration": 89, "velocity": 100}, {"time": 116640, "pitch": 44, "duration": 94, "velocity": 90}, {"time": 116642, "pitch": 52, "duration": 94, "velocity": 102}, {"time": 116880, "pitch": 44, "duration": 107, "velocity": 90}, {"time": 116882, "pitch": 52, "duration": 116, "velocity": 93}, {"time": 117120, "pitch": 47, "duration": 109, "velocity": 90}, {"time": 117122, "pitch": 52, "duration": 113, "velocity": 100}, {"time": 117361, "pitch": 47, "duration": 99, "velocity": 90}, {"time": 117363, "pitch": 52, "duration": 104, "velocity": 105}, {"time": 117601, "pitch": 45, "duration": 108, "velocity": 90}, {"time": 117603, "pitch": 52, "duration": 99, "velocity": 97}, {"time": 117841, "pitch": 45, "duration": 105, "velocity": 90}, {"time": 117843, "pitch": 52, "duration": 102, "velocity": 100}, {"time": 118081, "pitch": 45, "duration": 99, "velocity": 90}, {"time": 118083, "pitch": 52, "duration": 94, "velocity": 103}, {"time": 118321, "pitch": 45, "duration": 107, "velocity": 90}, {"time": 118323, "pitch": 52, "duration": 102, "velocity": 102}, {"time": 118562, "pitch": 45, "duration": 100, "velocity": 91}, {"time": 118564, "pitch": 52, "duration": 95, "velocity": 104}, {"time": 118802, "pitch": 45, "duration": 89, "velocity": 92}, {"time": 118804, "pitch": 52, "duration": 84, "velocity": 103}, {"time": 119042, "pitch": 45, "duration": 102, "velocity": 95}, {"time": 119044, "pitch": 52, "duration": 91, "velocity": 104}, {"time": 119282, "pitch": 45, "duration": 66, "velocity": 98}, {"time": 119284, "pitch": 52, "duration": 69, "velocity": 100}, {"time": 119522, "pitch": 41, "duration": 132, "velocity": 90}, {"time": 119524, "pitch": 48, "duration": 137, "velocity": 104}, {"time": 119763, "pitch": 41, "duration": 131, "velocity": 90}, {"time": 119765, "pitch": 48, "duration": 126, "velocity": 102}, {"time": 120003, "pitch": 41, "duration": 123, "velocity": 90}, {"time": 120005, "pitch": 48, "duration": 124, "velocity": 103}, {"time": 120240, "pitch": 41, "duration": 145, "velocity": 91}, {"time": 120242, "pitch": 48, "duration": 131, "velocity": 102}, {"time": 120477, "pitch": 40, "duration": 137, "velocity": 92}, {"time": 120479, "pitch": 48, "duration": 128, "velocity": 103}, {"time": 120718, "pitch": 40, "duration": 116, "velocity": 95}, {"time": 120720, "pitch": 48, "duration": 90, "velocity": 100}, {"time": 120958, "pitch": 40, "duration": 116, "velocity": 90}, {"time": 120960, "pitch": 48, "duration": 94, "velocity": 100}, {"time": 121198, "pitch": 40, "duration": 115, "velocity": 90}, {"time": 121200, "pitch": 48, "duration": 117, "velocity": 98}, {"time": 121438, "pitch": 41, "duration": 109, "velocity": 91}, {"time": 121440, "pitch": 48, "duration": 107, "velocity": 103}, {"time": 121679, "pitch": 41, "duration": 113, "velocity": 91}, {"time": 121681, "pitch": 48, "duration": 102, "velocity": 99}, {"time": 121919, "pitch": 41, "duration": 116, "velocity": 92}, {"time": 121921, "pitch": 48, "duration": 91, "velocity": 99}, {"time": 122159, "pitch": 41, "duration": 118, "velocity": 95}, {"time": 122161, "pitch": 48, "duration": 96, "velocity": 101}, {"time": 122399, "pitch": 40, "duration": 115, "velocity": 90}, {"time": 122401, "pitch": 48, "duration": 100, "velocity": 103}, {"time": 122639, "pitch": 40, "duration": 106, "velocity": 90}, {"time": 122641, "pitch": 48, "duration": 83, "velocity": 100}, {"time": 122880, "pitch": 40, "duration": 104, "velocity": 90}, {"time": 122882, "pitch": 48, "duration": 90, "velocity": 98}, {"time": 123120, "pitch": 40, "duration": 105, "velocity": 90}, {"time": 123122, "pitch": 48, "duration": 99, "velocity": 93}, {"time": 123360, "pitch": 41, "duration": 110, "velocity": 90}, {"time": 123362, "pitch": 48, "duration": 101, "velocity": 90}, {"time": 123600, "pitch": 41, "duration": 100, "velocity": 95}, {"time": 123602, "pitch": 48, "duration": 83, "velocity": 90}, {"time": 123840, "pitch": 41, "duration": 98, "velocity": 98}, {"time": 123842, "pitch": 48, "duration": 94, "velocity": 90}, {"time": 124081, "pitch": 41, "duration": 135, "velocity": 99}, {"time": 124083, "pitch": 48, "duration": 145, "velocity": 90}, {"time": 124201, "pitch": 42, "duration": 121, "velocity": 100}, {"time": 124321, "pitch": 43, "duration": 118, "velocity": 90}, {"time": 124323, "pitch": 50, "duration": 124, "velocity": 95}, {"time": 125282, "pitch": 45, "duration": 127, "velocity": 90}, {"time": 125284, "pitch": 52, "duration": 128, "velocity": 101}, {"time": 125522, "pitch": 45, "duration": 127, "velocity": 90}, {"time": 125524, "pitch": 52, "duration": 130, "velocity": 103}, {"time": 125762, "pitch": 45, "duration": 84, "velocity": 90}, {"time": 125764, "pitch": 52, "duration": 77, "velocity": 104}, {"time": 126002, "pitch": 45, "duration": 108, "velocity": 90}, {"time": 126004, "pitch": 52, "duration": 99, "velocity": 102}, {"time": 126243, "pitch": 44, "duration": 114, "velocity": 90}, {"time": 126245, "pitch": 52, "duration": 114, "velocity": 99}, {"time": 126480, "pitch": 44, "duration": 105, "velocity": 90}, {"time": 126482, "pitch": 52, "duration": 93, "velocity": 96}, {"time": 126717, "pitch": 44, "duration": 100, "velocity": 90}, {"time": 126719, "pitch": 52, "duration": 95, "velocity": 100}, {"time": 126957, "pitch": 44, "duration": 101, "velocity": 90}, {"time": 126959, "pitch": 52, "duration": 79, "velocity": 99}, {"time": 127198, "pitch": 43, "duration": 110, "velocity": 90}, {"time": 127202, "pitch": 50, "duration": 105, "velocity": 97}, {"time": 127438, "pitch": 43, "duration": 105, "velocity": 90}, {"time": 127442, "pitch": 50, "duration": 90, "velocity": 103}, {"time": 127678, "pitch": 43, "duration": 106, "velocity": 90}, {"time": 127682, "pitch": 50, "duration": 89, "velocity": 104}, {"time": 127918, "pitch": 43, "duration": 98, "velocity": 90}, {"time": 127922, "pitch": 50, "duration": 90, "velocity": 106}, {"time": 128158, "pitch": 42, "duration": 111, "velocity": 90}, {"time": 128162, "pitch": 50, "duration": 103, "velocity": 101}, {"time": 128399, "pitch": 42, "duration": 90, "velocity": 90}, {"time": 128403, "pitch": 50, "duration": 83, "velocity": 101}, {"time": 128639, "pitch": 42, "duration": 95, "velocity": 90}, {"time": 128643, "pitch": 50, "duration": 90, "velocity": 100}, {"time": 128879, "pitch": 42, "duration": 85, "velocity": 90}, {"time": 128883, "pitch": 50, "duration": 87, "velocity": 101}, {"time": 129119, "pitch": 41, "duration": 138, "velocity": 90}, {"time": 129123, "pitch": 48, "duration": 145, "velocity": 97}, {"time": 129360, "pitch": 41, "duration": 123, "velocity": 90}, {"time": 129364, "pitch": 48, "duration": 115, "velocity": 97}, {"time": 129600, "pitch": 41, "duration": 102, "velocity": 90}, {"time": 129604, "pitch": 48, "duration": 97, "velocity": 102}, {"time": 129840, "pitch": 41, "duration": 128, "velocity": 90}, {"time": 129844, "pitch": 48, "duration": 172, "velocity": 104}, {"time": 129960, "pitch": 42, "duration": 127, "velocity": 90}, {"time": 130080, "pitch": 43, "duration": 132, "velocity": 90}, {"time": 130084, "pitch": 50, "duration": 116, "velocity": 107}, {"time": 131041, "pitch": 48, "duration": 161, "velocity": 90}, {"time": 131043, "pitch": 55, "duration": 168, "velocity": 95}, {"time": 131281, "pitch": 48, "duration": 122, "velocity": 90}, {"time": 131283, "pitch": 55, "duration": 134, "velocity": 95}, {"time": 131521, "pitch": 48, "duration": 96, "velocity": 90}, {"time": 131523, "pitch": 55, "duration": 105, "velocity": 95}, {"time": 131762, "pitch": 48, "duration": 125, "velocity": 90}, {"time": 131764, "pitch": 55, "duration": 127, "velocity": 95}, {"time": 132002, "pitch": 47, "duration": 140, "velocity": 90}, {"time": 132004, "pitch": 55, "duration": 138, "velocity": 95}, {"time": 132242, "pitch": 47, "duration": 90, "velocity": 90}, {"time": 132244, "pitch": 55, "duration": 102, "velocity": 95}, {"time": 132482, "pitch": 47, "duration": 123, "velocity": 90}, {"time": 132484, "pitch": 55, "duration": 134, "velocity": 95}, {"time": 132723, "pitch": 47, "duration": 113, "velocity": 90}, {"time": 132725, "pitch": 55, "duration": 122, "velocity": 95}, {"time": 132963, "pitch": 45, "duration": 134, "velocity": 90}, {"time": 132965, "pitch": 52, "duration": 145, "velocity": 95}, {"time": 133200, "pitch": 45, "duration": 116, "velocity": 90}, {"time": 133202, "pitch": 52, "duration": 130, "velocity": 95}, {"time": 133437, "pitch": 45, "duration": 126, "velocity": 90}, {"time": 133439, "pitch": 52, "duration": 129, "velocity": 95}, {"time": 133677, "pitch": 45, "duration": 121, "velocity": 90}, {"time": 133679, "pitch": 52, "duration": 116, "velocity": 95}, {"time": 133918, "pitch": 43, "duration": 126, "velocity": 90}, {"time": 133920, "pitch": 52, "duration": 110, "velocity": 95}, {"time": 134158, "pitch": 43, "duration": 144, "velocity": 90}, {"time": 134160, "pitch": 52, "duration": 128, "velocity": 95}, {"time": 134398, "pitch": 43, "duration": 150, "velocity": 90}, {"time": 134400, "pitch": 52, "duration": 144, "velocity": 95}, {"time": 134638, "pitch": 43, "duration": 144, "velocity": 88}, {"time": 134642, "pitch": 52, "duration": 144, "velocity": 95}, {"time": 134879, "pitch": 41, "duration": 148, "velocity": 90}, {"time": 134881, "pitch": 48, "duration": 153, "velocity": 96}, {"time": 135119, "pitch": 41, "duration": 125, "velocity": 90}, {"time": 135121, "pitch": 48, "duration": 118, "velocity": 93}, {"time": 135359, "pitch": 41, "duration": 147, "velocity": 90}, {"time": 135361, "pitch": 48, "duration": 128, "velocity": 101}, {"time": 135599, "pitch": 41, "duration": 133, "velocity": 90}, {"time": 135601, "pitch": 48, "duration": 107, "velocity": 99}, {"time": 135839, "pitch": 40, "duration": 126, "velocity": 90}, {"time": 135841, "pitch": 48, "duration": 123, "velocity": 94}, {"time": 136080, "pitch": 40, "duration": 120, "velocity": 90}, {"time": 136082, "pitch": 48, "duration": 101, "velocity": 98}, {"time": 136320, "pitch": 40, "duration": 117, "velocity": 90}, {"time": 136322, "pitch": 48, "duration": 105, "velocity": 96}, {"time": 136560, "pitch": 40, "duration": 116, "velocity": 90}, {"time": 136562, "pitch": 48, "duration": 127, "velocity": 91}, {"time": 136800, "pitch": 41, "duration": 109, "velocity": 90}, {"time": 136802, "pitch": 48, "duration": 94, "velocity": 98}, {"time": 137041, "pitch": 41, "duration": 108, "velocity": 90}, {"time": 137043, "pitch": 48, "duration": 93, "velocity": 97}, {"time": 137281, "pitch": 41, "duration": 91, "velocity": 90}, {"time": 137283, "pitch": 48, "duration": 81, "velocity": 100}, {"time": 137521, "pitch": 41, "duration": 115, "velocity": 90}, {"time": 137523, "pitch": 48, "duration": 112, "velocity": 97}, {"time": 137761, "pitch": 43, "duration": 120, "velocity": 90}, {"time": 137763, "pitch": 50, "duration": 117, "velocity": 104}, {"time": 138001, "pitch": 43, "duration": 127, "velocity": 90}, {"time": 138003, "pitch": 50, "duration": 120, "velocity": 101}, {"time": 138242, "pitch": 43, "duration": 115, "velocity": 90}, {"time": 138244, "pitch": 50, "duration": 112, "velocity": 103}, {"time": 138482, "pitch": 43, "duration": 99, "velocity": 90}, {"time": 138484, "pitch": 50, "duration": 105, "velocity": 101}, {"time": 138720, "pitch": 48, "duration": 410, "velocity": 90}, {"time": 139147, "pitch": 48, "duration": 616, "velocity": 90}, {"time": 139147, "pitch": 55, "duration": 16, "velocity": 103}, {"time": 139763, "pitch": 43, "duration": 403, "velocity": 112}, {"time": 140168, "pitch": 55, "duration": 459, "velocity": 112}, {"time": 140636, "pitch": 48, "duration": 1436, "velocity": 100}, {"time": 140638, "pitch": 55, "duration": 1455, "velocity": 70}], "annotations": [{"time": 403, "annotation": {"number": 7, "value": 85}, "group": "control_change"}, {"time": 422, "annotation": {"number": 11, "value": 100}, "group": "control_change"}, {"time": 442, "annotation": {"number": 10, "value": 34}, "group": "control_change"}, {"time": 461, "annotation": {"number": 91, "value": 90}, "group": "control_change"}, {"time": 480, "annotation": {"number": 93, "value": 10}, "group": "control_change"}, {"time": 480, "annotation": {"number": 101, "value": 0}, "group": "control_change"}, {"time": 480, "annotation": {"number": 100, "value": 0}, "group": "control_change"}, {"time": 480, "annotation": {"number": 6, "value": 12}, "group": "control_change"}, {"time": 480, "annotation": {"number": 101, "value": 127}, "group": "control_change"}, {"time": 482, "annotation": {"number": 100, "value": 127}, "group": "control_change"}, {"time": 9654, "annotation": {"number": 11, "value": 105}, "group": "control_change"}, {"time": 9662, "annotation": {"number": 11, "value": 104}, "group": "control_change"}, {"time": 9670, "annotation": {"number": 11, "value": 102}, "group": "control_change"}, {"time": 9678, "annotation": {"number": 11, "value": 101}, "group": "control_change"}, {"time": 9686, "annotation": {"number": 11, "value": 99}, "group": "control_change"}, {"time": 9694, "annotation": {"number": 11, "value": 98}, "group": "control_change"}, {"time": 9702, "annotation": {"number": 11, "value": 96}, "group": "control_change"}, {"time": 9710, "annotation": {"number": 11, "value": 94}, "group": "control_change"}, {"time": 9718, "annotation": {"number": 11, "value": 93}, "group": "control_change"}, {"time": 9726, "annotation": {"number": 11, "value": 91}, "group": "control_change"}, {"time": 9734, "annotation": {"number": 11, "value": 90}, "group": "control_change"}, {"time": 9742, "annotation": {"number": 11, "value": 88}, "group": "control_change"}, {"time": 9750, "annotation": {"number": 11, "value": 86}, "group": "control_change"}, {"time": 9758, "annotation": {"number": 11, "value": 85}, "group": "control_change"}, {"time": 9766, "annotation": {"number": 11, "value": 83}, "group": "control_change"}, {"time": 9774, "annotation": {"number": 11, "value": 82}, "group": "control_change"}, {"time": 9782, "annotation": {"number": 11, "value": 80}, "group": "control_change"}, {"time": 9790, "annotation": {"number": 11, "value": 79}, "group": "control_change"}, {"time": 9798, "annotation": {"number": 11, "value": 77}, "group": "control_change"}, {"time": 9806, "annotation": {"number": 11, "value": 75}, "group": "control_change"}, {"time": 9814, "annotation": {"number": 11, "value": 74}, "group": "control_change"}, {"time": 9822, "annotation": {"number": 11, "value": 72}, "group": "control_change"}, {"time": 9830, "annotation": {"number": 11, "value": 71}, "group": "control_change"}, {"time": 9838, "annotation": {"number": 11, "value": 69}, "group": "control_change"}, {"time": 9846, "annotation": {"number": 11, "value": 67}, "group": "control_change"}, {"time": 9854, "annotation": {"number": 11, "value": 66}, "group": "control_change"}, {"time": 9862, "annotation": {"number": 11, "value": 64}, "group": "control_change"}, {"time": 9870, "annotation": {"number": 11, "value": 63}, "group": "control_change"}, {"time": 9878, "annotation": {"number": 11, "value": 61}, "group": "control_change"}, {"time": 9886, "annotation": {"number": 11, "value": 60}, "group": "control_change"}, {"time": 9894, "annotation": {"number": 11, "value": 58}, "group": "control_change"}, {"time": 9902, "annotation": {"number": 11, "value": 56}, "group": "control_change"}, {"time": 9910, "annotation": {"number": 11, "value": 55}, "group": "control_change"}, {"time": 9918, "annotation": {"number": 11, "value": 53}, "group": "control_change"}, {"time": 9926, "annotation": {"number": 11, "value": 52}, "group": "control_change"}, {"time": 9934, "annotation": {"number": 11, "value": 50}, "group": "control_change"}, {"time": 9942, "annotation": {"number": 11, "value": 48}, "group": "control_change"}, {"time": 9950, "annotation": {"number": 11, "value": 47}, "group": "control_change"}, {"time": 9958, "annotation": {"number": 11, "value": 45}, "group": "control_change"}, {"time": 9966, "annotation": {"number": 11, "value": 44}, "group": "control_change"}, {"time": 9974, "annotation": {"number": 11, "value": 42}, "group": "control_change"}, {"time": 9982, "annotation": {"number": 11, "value": 41}, "group": "control_change"}, {"time": 9990, "annotation": {"number": 11, "value": 39}, "group": "control_change"}, {"time": 9998, "annotation": {"number": 11, "value": 37}, "group": "control_change"}, {"time": 10006, "annotation": {"number": 11, "value": 36}, "group": "control_change"}, {"time": 10014, "annotation": {"number": 11, "value": 34}, "group": "control_change"}, {"time": 10022, "annotation": {"number": 11, "value": 33}, "group": "control_change"}, {"time": 10031, "annotation": {"number": 11, "value": 31}, "group": "control_change"}, {"time": 10039, "annotation": {"number": 11, "value": 29}, "group": "control_change"}, {"time": 10047, "annotation": {"number": 11, "value": 28}, "group": "control_change"}, {"time": 10055, "annotation": {"number": 11, "value": 26}, "group": "control_change"}, {"time": 10063, "annotation": {"number": 11, "value": 25}, "group": "control_change"}, {"time": 10071, "annotation": {"number": 11, "value": 23}, "group": "control_change"}, {"time": 25440, "annotation": {"number": 11, "value": 100}, "group": "control_change"}, {"time": 141513, "annotation": {"number": 11, "value": 97}, "group": "control_change"}, {"time": 141522, "annotation": {"number": 11, "value": 96}, "group": "control_change"}, {"time": 141532, "annotation": {"number": 11, "value": 94}, "group": "control_change"}, {"time": 141541, "annotation": {"number": 11, "value": 92}, "group": "control_change"}, {"time": 141550, "annotation": {"number": 11, "value": 90}, "group": "control_change"}, {"time": 141560, "annotation": {"number": 11, "value": 88}, "group": "control_change"}, {"time": 141569, "annotation": {"number": 11, "value": 86}, "group": "control_change"}, {"time": 141578, "annotation": {"number": 11, "value": 84}, "group": "control_change"}, {"time": 141588, "annotation": {"number": 11, "value": 82}, "group": "control_change"}, {"time": 141597, "annotation": {"number": 11, "value": 80}, "group": "control_change"}, {"time": 141606, "annotation": {"number": 11, "value": 78}, "group": "control_change"}, {"time": 141615, "annotation": {"number": 11, "value": 76}, "group": "control_change"}, {"time": 141625, "annotation": {"number": 11, "value": 74}, "group": "control_change"}, {"time": 141634, "annotation": {"number": 11, "value": 72}, "group": "control_change"}, {"time": 141643, "annotation": {"number": 11, "value": 70}, "group": "control_change"}, {"time": 141653, "annotation": {"number": 11, "value": 68}, "group": "control_change"}, {"time": 141662, "annotation": {"number": 11, "value": 66}, "group": "control_change"}, {"time": 141671, "annotation": {"number": 11, "value": 64}, "group": "control_change"}, {"time": 141681, "annotation": {"number": 11, "value": 62}, "group": "control_change"}, {"time": 141690, "annotation": {"number": 11, "value": 60}, "group": "control_change"}, {"time": 141699, "annotation": {"number": 11, "value": 58}, "group": "control_change"}, {"time": 141708, "annotation": {"number": 11, "value": 56}, "group": "control_change"}, {"time": 141718, "annotation": {"number": 11, "value": 54}, "group": "control_change"}, {"time": 141727, "annotation": {"number": 11, "value": 52}, "group": "control_change"}, {"time": 141736, "annotation": {"number": 11, "value": 51}, "group": "control_change"}, {"time": 141746, "annotation": {"number": 11, "value": 49}, "group": "control_change"}, {"time": 141755, "annotation": {"number": 11, "value": 47}, "group": "control_change"}, {"time": 141764, "annotation": {"number": 11, "value": 45}, "group": "control_change"}, {"time": 141774, "annotation": {"number": 11, "value": 43}, "group": "control_change"}, {"time": 141783, "annotation": {"number": 11, "value": 41}, "group": "control_change"}, {"time": 141792, "annotation": {"number": 11, "value": 39}, "group": "control_change"}, {"time": 141801, "annotation": {"number": 11, "value": 37}, "group": "control_change"}, {"time": 141811, "annotation": {"number": 11, "value": 35}, "group": "control_change"}, {"time": 141820, "annotation": {"number": 11, "value": 33}, "group": "control_change"}, {"time": 141829, "annotation": {"number": 11, "value": 31}, "group": "control_change"}, {"time": 141839, "annotation": {"number": 11, "value": 29}, "group": "control_change"}, {"time": 141848, "annotation": {"number": 11, "value": 27}, "group": "control_change"}, {"time": 141857, "annotation": {"number": 11, "value": 25}, "group": "control_change"}, {"time": 141867, "annotation": {"number": 11, "value": 23}, "group": "control_change"}, {"time": 141876, "annotation": {"number": 11, "value": 21}, "group": "control_change"}, {"time": 141885, "annotation": {"number": 11, "value": 19}, "group": "control_change"}, {"time": 141895, "annotation": {"number": 11, "value": 17}, "group": "control_change"}, {"time": 141904, "annotation": {"number": 11, "value": 15}, "group": "control_change"}, {"time": 141913, "annotation": {"number": 11, "value": 13}, "group": "control_change"}, {"time": 141922, "annotation": {"number": 11, "value": 11}, "group": "control_change"}, {"time": 141932, "annotation": {"number": 11, "value": 9}, "group": "control_change"}, {"time": 141941, "annotation": {"number": 11, "value": 7}, "group": "control_change"}]}, {"program": 0, "is_drum": false, "name": "gt/l", "annotations": [{"time": 346, "annotation": {"number": 0, "value": 0}, "group": "control_change"}, {"time": 365, "annotation": {"number": 32, "value": 0}, "group": "control_change"}]}, {"program": 25, "is_drum": false, "name": "gt/l", "notes": [{"time": 10319, "pitch": 55, "duration": 639, "velocity": 75}, {"time": 10559, "pitch": 64, "duration": 480, "velocity": 93}, {"time": 10799, "pitch": 60, "duration": 262, "velocity": 82}, {"time": 11039, "pitch": 55, "duration": 455, "velocity": 41}, {"time": 11280, "pitch": 60, "duration": 231, "velocity": 91}, {"time": 11520, "pitch": 67, "duration": 156, "velocity": 89}, {"time": 11640, "pitch": 69, "duration": 181, "velocity": 77}, {"time": 11760, "pitch": 64, "duration": 161, "velocity": 73}, {"time": 12000, "pitch": 43, "duration": 908, "velocity": 63}, {"time": 12000, "pitch": 50, "duration": 869, "velocity": 76}, {"time": 12000, "pitch": 55, "duration": 249, "velocity": 65}, {"time": 12000, "pitch": 59, "duration": 161, "velocity": 78}, {"time": 12000, "pitch": 67, "duration": 201, "velocity": 80}, {"time": 12240, "pitch": 62, "duration": 256, "velocity": 101}, {"time": 12481, "pitch": 67, "duration": 289, "velocity": 97}, {"time": 12841, "pitch": 47, "duration": 909, "velocity": 47}, {"time": 12961, "pitch": 52, "duration": 763, "velocity": 57}, {"time": 12961, "pitch": 56, "duration": 184, "velocity": 59}, {"time": 12961, "pitch": 59, "duration": 76, "velocity": 60}, {"time": 12961, "pitch": 62, "duration": 138, "velocity": 67}, {"time": 13201, "pitch": 59, "duration": 219, "velocity": 92}, {"time": 13442, "pitch": 64, "duration": 281, "velocity": 104}, {"time": 13682, "pitch": 62, "duration": 180, "velocity": 97}, {"time": 13922, "pitch": 45, "duration": 304, "velocity": 66}, {"time": 14162, "pitch": 52, "duration": 418, "velocity": 47}, {"time": 14402, "pitch": 69, "duration": 256, "velocity": 91}, {"time": 14643, "pitch": 64, "duration": 217, "velocity": 100}, {"time": 14883, "pitch": 43, "duration": 274, "velocity": 49}, {"time": 15120, "pitch": 50, "duration": 248, "velocity": 89}, {"time": 15350, "pitch": 55, "duration": 340, "velocity": 90}, {"time": 15357, "pitch": 59, "duration": 355, "velocity": 99}, {"time": 15373, "pitch": 62, "duration": 359, "velocity": 100}, {"time": 15838, "pitch": 53, "duration": 396, "velocity": 92}, {"time": 16078, "pitch": 57, "duration": 193, "velocity": 82}, {"time": 16318, "pitch": 60, "duration": 56, "velocity": 84}, {"time": 16318, "pitch": 65, "duration": 172, "velocity": 91}, {"time": 16438, "pitch": 60, "duration": 137, "velocity": 77}, {"time": 16558, "pitch": 57, "duration": 253, "velocity": 88}, {"time": 16799, "pitch": 55, "duration": 242, "velocity": 101}, {"time": 17039, "pitch": 59, "duration": 126, "velocity": 83}, {"time": 17159, "pitch": 55, "duration": 194, "velocity": 74}, {"time": 17279, "pitch": 65, "duration": 274, "velocity": 101}, {"time": 17519, "pitch": 59, "duration": 144, "velocity": 90}, {"time": 17760, "pitch": 48, "duration": 553, "velocity": 94}, {"time": 18000, "pitch": 55, "duration": 336, "velocity": 84}, {"time": 18240, "pitch": 60, "duration": 265, "velocity": 94}, {"time": 18240, "pitch": 64, "duration": 230, "velocity": 87}, {"time": 18480, "pitch": 55, "duration": 148, "velocity": 88}, {"time": 18717, "pitch": 53, "duration": 440, "velocity": 87}, {"time": 18720, "pitch": 57, "duration": 453, "velocity": 90}, {"time": 18723, "pitch": 60, "duration": 421, "velocity": 92}, {"time": 18730, "pitch": 64, "duration": 377, "velocity": 95}, {"time": 19216, "pitch": 67, "duration": 118, "velocity": 100}, {"time": 19321, "pitch": 64, "duration": 136, "velocity": 87}, {"time": 19441, "pitch": 60, "duration": 120, "velocity": 94}, {"time": 19681, "pitch": 55, "duration": 764, "velocity": 76}, {"time": 19921, "pitch": 59, "duration": 294, "velocity": 88}, {"time": 20162, "pitch": 62, "duration": 454, "velocity": 104}, {"time": 20162, "pitch": 67, "duration": 489, "velocity": 92}, {"time": 20402, "pitch": 59, "duration": 275, "velocity": 90}, {"time": 20642, "pitch": 56, "duration": 540, "velocity": 85}, {"time": 20882, "pitch": 59, "duration": 300, "velocity": 88}, {"time": 21123, "pitch": 64, "duration": 279, "velocity": 93}, {"time": 21123, "pitch": 68, "duration": 244, "velocity": 90}, {"time": 21360, "pitch": 59, "duration": 113, "velocity": 91}, {"time": 21597, "pitch": 57, "duration": 919, "velocity": 84}, {"time": 21837, "pitch": 60, "duration": 293, "velocity": 78}, {"time": 22078, "pitch": 64, "duration": 392, "velocity": 100}, {"time": 22078, "pitch": 69, "duration": 427, "velocity": 94}, {"time": 22318, "pitch": 60, "duration": 279, "velocity": 92}, {"time": 22558, "pitch": 55, "duration": 731, "velocity": 85}, {"time": 22798, "pitch": 59, "duration": 279, "velocity": 76}, {"time": 23038, "pitch": 62, "duration": 284, "velocity": 100}, {"time": 23038, "pitch": 67, "duration": 246, "velocity": 88}, {"time": 23279, "pitch": 59, "duration": 138, "velocity": 86}, {"time": 23519, "pitch": 53, "duration": 481, "velocity": 91}, {"time": 23759, "pitch": 60, "duration": 211, "velocity": 71}, {"time": 23999, "pitch": 57, "duration": 123, "velocity": 86}, {"time": 23999, "pitch": 60, "duration": 251, "velocity": 63}, {"time": 23999, "pitch": 65, "duration": 207, "velocity": 94}, {"time": 24239, "pitch": 53, "duration": 82, "velocity": 81}, {"time": 24239, "pitch": 57, "duration": 101, "velocity": 84}, {"time": 24480, "pitch": 57, "duration": 403, "velocity": 90}, {"time": 24483, "pitch": 60, "duration": 414, "velocity": 92}, {"time": 24487, "pitch": 65, "duration": 408, "velocity": 104}, {"time": 24960, "pitch": 57, "duration": 263, "velocity": 90}, {"time": 24962, "pitch": 60, "duration": 267, "velocity": 97}, {"time": 24965, "pitch": 65, "duration": 259, "velocity": 108}, {"time": 35037, "pitch": 55, "duration": 103, "velocity": 90}, {"time": 35039, "pitch": 60, "duration": 118, "velocity": 95}, {"time": 35041, "pitch": 64, "duration": 99, "velocity": 99}, {"time": 35278, "pitch": 55, "duration": 99, "velocity": 90}, {"time": 35280, "pitch": 60, "duration": 111, "velocity": 95}, {"time": 35282, "pitch": 64, "duration": 89, "velocity": 97}, {"time": 35518, "pitch": 55, "duration": 108, "velocity": 90}, {"time": 35520, "pitch": 60, "duration": 111, "velocity": 95}, {"time": 35522, "pitch": 64, "duration": 97, "velocity": 100}, {"time": 35758, "pitch": 55, "duration": 91, "velocity": 90}, {"time": 35760, "pitch": 60, "duration": 91, "velocity": 95}, {"time": 35762, "pitch": 64, "duration": 100, "velocity": 102}, {"time": 35998, "pitch": 56, "duration": 97, "velocity": 90}, {"time": 36000, "pitch": 59, "duration": 103, "velocity": 95}, {"time": 36002, "pitch": 62, "duration": 100, "velocity": 97}, {"time": 36238, "pitch": 56, "duration": 78, "velocity": 90}, {"time": 36240, "pitch": 59, "duration": 80, "velocity": 95}, {"time": 36242, "pitch": 62, "duration": 84, "velocity": 99}, {"time": 36479, "pitch": 56, "duration": 80, "velocity": 90}, {"time": 36481, "pitch": 59, "duration": 77, "velocity": 95}, {"time": 36483, "pitch": 62, "duration": 87, "velocity": 100}, {"time": 36719, "pitch": 56, "duration": 61, "velocity": 90}, {"time": 36721, "pitch": 59, "duration": 52, "velocity": 95}, {"time": 36723, "pitch": 62, "duration": 48, "velocity": 100}, {"time": 36839, "pitch": 62, "duration": 67, "velocity": 90}, {"time": 36841, "pitch": 59, "duration": 58, "velocity": 95}, {"time": 36843, "pitch": 56, "duration": 72, "velocity": 100}, {"time": 36959, "pitch": 57, "duration": 83, "velocity": 90}, {"time": 36961, "pitch": 60, "duration": 107, "velocity": 95}, {"time": 36963, "pitch": 64, "duration": 100, "velocity": 99}, {"time": 37199, "pitch": 57, "duration": 71, "velocity": 90}, {"time": 37201, "pitch": 60, "duration": 81, "velocity": 95}, {"time": 37203, "pitch": 64, "duration": 81, "velocity": 98}, {"time": 37440, "pitch": 57, "duration": 83, "velocity": 90}, {"time": 37442, "pitch": 60, "duration": 93, "velocity": 95}, {"time": 37444, "pitch": 64, "duration": 95, "velocity": 99}, {"time": 37680, "pitch": 57, "duration": 67, "velocity": 90}, {"time": 37682, "pitch": 60, "duration": 73, "velocity": 95}, {"time": 37684, "pitch": 64, "duration": 74, "velocity": 100}, {"time": 37920, "pitch": 57, "duration": 64, "velocity": 90}, {"time": 37922, "pitch": 60, "duration": 63, "velocity": 95}, {"time": 37924, "pitch": 64, "duration": 75, "velocity": 100}, {"time": 38160, "pitch": 57, "duration": 62, "velocity": 90}, {"time": 38162, "pitch": 60, "duration": 63, "velocity": 95}, {"time": 38164, "pitch": 64, "duration": 73, "velocity": 105}, {"time": 38400, "pitch": 57, "duration": 73, "velocity": 90}, {"time": 38402, "pitch": 60, "duration": 74, "velocity": 95}, {"time": 38404, "pitch": 64, "duration": 77, "velocity": 99}, {"time": 38641, "pitch": 57, "duration": 57, "velocity": 90}, {"time": 38643, "pitch": 60, "duration": 58, "velocity": 95}, {"time": 38645, "pitch": 64, "duration": 66, "velocity": 105}, {"time": 38881, "pitch": 55, "duration": 103, "velocity": 90}, {"time": 38883, "pitch": 60, "duration": 118, "velocity": 95}, {"time": 38885, "pitch": 64, "duration": 99, "velocity": 99}, {"time": 39121, "pitch": 55, "duration": 99, "velocity": 90}, {"time": 39123, "pitch": 60, "duration": 111, "velocity": 95}, {"time": 39125, "pitch": 64, "duration": 89, "velocity": 97}, {"time": 39361, "pitch": 55, "duration": 108, "velocity": 90}, {"time": 39363, "pitch": 60, "duration": 111, "velocity": 95}, {"time": 39365, "pitch": 64, "duration": 97, "velocity": 100}, {"time": 39601, "pitch": 55, "duration": 92, "velocity": 90}, {"time": 39603, "pitch": 60, "duration": 92, "velocity": 95}, {"time": 39605, "pitch": 64, "duration": 101, "velocity": 102}, {"time": 39842, "pitch": 56, "duration": 97, "velocity": 90}, {"time": 39844, "pitch": 59, "duration": 103, "velocity": 95}, {"time": 39846, "pitch": 62, "duration": 100, "velocity": 97}, {"time": 40082, "pitch": 56, "duration": 77, "velocity": 90}, {"time": 40084, "pitch": 59, "duration": 79, "velocity": 95}, {"time": 40086, "pitch": 62, "duration": 83, "velocity": 99}, {"time": 40322, "pitch": 56, "duration": 80, "velocity": 90}, {"time": 40324, "pitch": 59, "duration": 77, "velocity": 95}, {"time": 40326, "pitch": 62, "duration": 87, "velocity": 100}, {"time": 40562, "pitch": 56, "duration": 61, "velocity": 90}, {"time": 40564, "pitch": 59, "duration": 52, "velocity": 95}, {"time": 40566, "pitch": 62, "duration": 48, "velocity": 100}, {"time": 40682, "pitch": 62, "duration": 68, "velocity": 90}, {"time": 40684, "pitch": 59, "duration": 59, "velocity": 95}, {"time": 40686, "pitch": 56, "duration": 73, "velocity": 100}, {"time": 40803, "pitch": 57, "duration": 82, "velocity": 90}, {"time": 40805, "pitch": 60, "duration": 105, "velocity": 95}, {"time": 40806, "pitch": 64, "duration": 99, "velocity": 99}, {"time": 41040, "pitch": 57, "duration": 70, "velocity": 90}, {"time": 41042, "pitch": 60, "duration": 80, "velocity": 95}, {"time": 41044, "pitch": 64, "duration": 80, "velocity": 98}, {"time": 41277, "pitch": 57, "duration": 83, "velocity": 90}, {"time": 41279, "pitch": 60, "duration": 93, "velocity": 95}, {"time": 41281, "pitch": 64, "duration": 95, "velocity": 99}, {"time": 41517, "pitch": 57, "duration": 67, "velocity": 90}, {"time": 41519, "pitch": 60, "duration": 73, "velocity": 95}, {"time": 41521, "pitch": 64, "duration": 74, "velocity": 100}, {"time": 41758, "pitch": 57, "duration": 64, "velocity": 90}, {"time": 41760, "pitch": 60, "duration": 63, "velocity": 95}, {"time": 41762, "pitch": 64, "duration": 75, "velocity": 100}, {"time": 41998, "pitch": 57, "duration": 62, "velocity": 90}, {"time": 42000, "pitch": 60, "duration": 63, "velocity": 95}, {"time": 42002, "pitch": 64, "duration": 73, "velocity": 105}, {"time": 42238, "pitch": 57, "duration": 73, "velocity": 90}, {"time": 42240, "pitch": 60, "duration": 74, "velocity": 95}, {"time": 42242, "pitch": 64, "duration": 77, "velocity": 99}, {"time": 42478, "pitch": 57, "duration": 57, "velocity": 90}, {"time": 42480, "pitch": 60, "duration": 58, "velocity": 95}, {"time": 42482, "pitch": 64, "duration": 66, "velocity": 105}, {"time": 42718, "pitch": 57, "duration": 92, "velocity": 90}, {"time": 42720, "pitch": 60, "duration": 97, "velocity": 95}, {"time": 42722, "pitch": 65, "duration": 84, "velocity": 100}, {"time": 42959, "pitch": 57, "duration": 70, "velocity": 90}, {"time": 42961, "pitch": 60, "duration": 82, "velocity": 95}, {"time": 42963, "pitch": 65, "duration": 79, "velocity": 100}, {"time": 43199, "pitch": 57, "duration": 66, "velocity": 90}, {"time": 43201, "pitch": 60, "duration": 79, "velocity": 95}, {"time": 43203, "pitch": 65, "duration": 75, "velocity": 98}, {"time": 43439, "pitch": 57, "duration": 84, "velocity": 90}, {"time": 43441, "pitch": 60, "duration": 98, "velocity": 95}, {"time": 43443, "pitch": 65, "duration": 89, "velocity": 98}, {"time": 43679, "pitch": 55, "duration": 83, "velocity": 90}, {"time": 43681, "pitch": 60, "duration": 89, "velocity": 95}, {"time": 43683, "pitch": 64, "duration": 93, "velocity": 98}, {"time": 43919, "pitch": 55, "duration": 83, "velocity": 90}, {"time": 43921, "pitch": 60, "duration": 89, "velocity": 95}, {"time": 43923, "pitch": 64, "duration": 94, "velocity": 100}, {"time": 44160, "pitch": 55, "duration": 83, "velocity": 90}, {"time": 44162, "pitch": 60, "duration": 92, "velocity": 95}, {"time": 44164, "pitch": 64, "duration": 98, "velocity": 100}, {"time": 44400, "pitch": 55, "duration": 84, "velocity": 90}, {"time": 44402, "pitch": 60, "duration": 95, "velocity": 90}, {"time": 44404, "pitch": 64, "duration": 101, "velocity": 95}, {"time": 44640, "pitch": 57, "duration": 92, "velocity": 90}, {"time": 44642, "pitch": 60, "duration": 97, "velocity": 95}, {"time": 44644, "pitch": 65, "duration": 84, "velocity": 100}, {"time": 44880, "pitch": 57, "duration": 70, "velocity": 90}, {"time": 44882, "pitch": 60, "duration": 82, "velocity": 95}, {"time": 44884, "pitch": 65, "duration": 79, "velocity": 100}, {"time": 45121, "pitch": 57, "duration": 66, "velocity": 90}, {"time": 45123, "pitch": 60, "duration": 79, "velocity": 95}, {"time": 45125, "pitch": 65, "duration": 75, "velocity": 98}, {"time": 45361, "pitch": 57, "duration": 84, "velocity": 90}, {"time": 45363, "pitch": 60, "duration": 98, "velocity": 95}, {"time": 45365, "pitch": 65, "duration": 89, "velocity": 98}, {"time": 45601, "pitch": 55, "duration": 83, "velocity": 90}, {"time": 45603, "pitch": 60, "duration": 89, "velocity": 95}, {"time": 45605, "pitch": 64, "duration": 93, "velocity": 98}, {"time": 45841, "pitch": 55, "duration": 82, "velocity": 90}, {"time": 45843, "pitch": 60, "duration": 88, "velocity": 95}, {"time": 45845, "pitch": 64, "duration": 93, "velocity": 100}, {"time": 46081, "pitch": 55, "duration": 83, "velocity": 90}, {"time": 46083, "pitch": 60, "duration": 92, "velocity": 95}, {"time": 46085, "pitch": 64, "duration": 98, "velocity": 100}, {"time": 46322, "pitch": 55, "duration": 84, "velocity": 90}, {"time": 46324, "pitch": 60, "duration": 95, "velocity": 90}, {"time": 46326, "pitch": 64, "duration": 101, "velocity": 95}, {"time": 46562, "pitch": 57, "duration": 92, "velocity": 90}, {"time": 46564, "pitch": 60, "duration": 97, "velocity": 95}, {"time": 46566, "pitch": 65, "duration": 84, "velocity": 100}, {"time": 46802, "pitch": 57, "duration": 70, "velocity": 90}, {"time": 46804, "pitch": 60, "duration": 82, "velocity": 95}, {"time": 46806, "pitch": 65, "duration": 79, "velocity": 100}, {"time": 47042, "pitch": 57, "duration": 66, "velocity": 90}, {"time": 47044, "pitch": 60, "duration": 79, "velocity": 95}, {"time": 47046, "pitch": 65, "duration": 75, "velocity": 98}, {"time": 47282, "pitch": 57, "duration": 85, "velocity": 90}, {"time": 47284, "pitch": 60, "duration": 99, "velocity": 95}, {"time": 47286, "pitch": 65, "duration": 90, "velocity": 98}, {"time": 47523, "pitch": 59, "duration": 87, "velocity": 100}, {"time": 47525, "pitch": 62, "duration": 91, "velocity": 105}, {"time": 47529, "pitch": 67, "duration": 90, "velocity": 111}, {"time": 58080, "pitch": 48, "duration": 508, "velocity": 85}, {"time": 58321, "pitch": 55, "duration": 719, "velocity": 84}, {"time": 58561, "pitch": 60, "duration": 523, "velocity": 96}, {"time": 58561, "pitch": 64, "duration": 523, "velocity": 91}, {"time": 59041, "pitch": 53, "duration": 299, "velocity": 80}, {"time": 59281, "pitch": 57, "duration": 275, "velocity": 91}, {"time": 59522, "pitch": 67, "duration": 145, "velocity": 92}, {"time": 59642, "pitch": 64, "duration": 148, "velocity": 79}, {"time": 59762, "pitch": 60, "duration": 137, "velocity": 96}, {"time": 60002, "pitch": 55, "duration": 730, "velocity": 92}, {"time": 60242, "pitch": 59, "duration": 701, "velocity": 54}, {"time": 60483, "pitch": 67, "duration": 257, "velocity": 101}, {"time": 60720, "pitch": 62, "duration": 286, "velocity": 85}, {"time": 60957, "pitch": 56, "duration": 496, "velocity": 76}, {"time": 61197, "pitch": 59, "duration": 656, "velocity": 82}, {"time": 61437, "pitch": 68, "duration": 275, "velocity": 105}, {"time": 61678, "pitch": 64, "duration": 175, "velocity": 90}, {"time": 61918, "pitch": 57, "duration": 263, "velocity": 86}, {"time": 62158, "pitch": 64, "duration": 217, "velocity": 78}, {"time": 62163, "pitch": 69, "duration": 204, "velocity": 72}, {"time": 62398, "pitch": 64, "duration": 467, "velocity": 92}, {"time": 62402, "pitch": 69, "duration": 321, "velocity": 93}, {"time": 62639, "pitch": 57, "duration": 179, "velocity": 90}, {"time": 62879, "pitch": 55, "duration": 442, "velocity": 98}, {"time": 63119, "pitch": 59, "duration": 211, "velocity": 99}, {"time": 63359, "pitch": 55, "duration": 173, "velocity": 89}, {"time": 63363, "pitch": 59, "duration": 196, "velocity": 89}, {"time": 63364, "pitch": 64, "duration": 250, "velocity": 87}, {"time": 63599, "pitch": 55, "duration": 162, "velocity": 70}, {"time": 63599, "pitch": 59, "duration": 66, "velocity": 79}, {"time": 63840, "pitch": 53, "duration": 223, "velocity": 104}, {"time": 64080, "pitch": 60, "duration": 217, "velocity": 94}, {"time": 64320, "pitch": 65, "duration": 155, "velocity": 101}, {"time": 64440, "pitch": 60, "duration": 154, "velocity": 98}, {"time": 64560, "pitch": 53, "duration": 183, "velocity": 97}, {"time": 64801, "pitch": 53, "duration": 271, "velocity": 80}, {"time": 64803, "pitch": 57, "duration": 276, "velocity": 85}, {"time": 64805, "pitch": 60, "duration": 286, "velocity": 90}, {"time": 65161, "pitch": 53, "duration": 32, "velocity": 80}, {"time": 65163, "pitch": 57, "duration": 66, "velocity": 85}, {"time": 65165, "pitch": 60, "duration": 85, "velocity": 95}, {"time": 65281, "pitch": 65, "duration": 327, "velocity": 80}, {"time": 65283, "pitch": 57, "duration": 361, "velocity": 85}, {"time": 65286, "pitch": 60, "duration": 361, "velocity": 90}, {"time": 65761, "pitch": 48, "duration": 478, "velocity": 71}, {"time": 66002, "pitch": 55, "duration": 295, "velocity": 73}, {"time": 66242, "pitch": 60, "duration": 314, "velocity": 87}, {"time": 66244, "pitch": 64, "duration": 287, "velocity": 94}, {"time": 66246, "pitch": 67, "duration": 213, "velocity": 100}, {"time": 66482, "pitch": 55, "duration": 145, "velocity": 90}, {"time": 66717, "pitch": 41, "duration": 334, "velocity": 80}, {"time": 66722, "pitch": 57, "duration": 471, "velocity": 85}, {"time": 66726, "pitch": 60, "duration": 525, "velocity": 90}, {"time": 66736, "pitch": 64, "duration": 487, "velocity": 100}, {"time": 67203, "pitch": 67, "duration": 149, "velocity": 99}, {"time": 67321, "pitch": 64, "duration": 175, "velocity": 90}, {"time": 67440, "pitch": 60, "duration": 155, "velocity": 84}, {"time": 67559, "pitch": 57, "duration": 94, "velocity": 72}, {"time": 67677, "pitch": 55, "duration": 237, "velocity": 84}, {"time": 67917, "pitch": 62, "duration": 201, "velocity": 89}, {"time": 67921, "pitch": 67, "duration": 186, "velocity": 57}, {"time": 68158, "pitch": 62, "duration": 162, "velocity": 102}, {"time": 68162, "pitch": 67, "duration": 238, "velocity": 99}, {"time": 68398, "pitch": 62, "duration": 244, "velocity": 98}, {"time": 68638, "pitch": 56, "duration": 248, "velocity": 100}, {"time": 68878, "pitch": 59, "duration": 281, "velocity": 87}, {"time": 69118, "pitch": 68, "duration": 134, "velocity": 97}, {"time": 69239, "pitch": 62, "duration": 155, "velocity": 87}, {"time": 69359, "pitch": 59, "duration": 160, "velocity": 83}, {"time": 69479, "pitch": 56, "duration": 70, "velocity": 86}, {"time": 69599, "pitch": 45, "duration": 451, "velocity": 72}, {"time": 69599, "pitch": 57, "duration": 278, "velocity": 86}, {"time": 69839, "pitch": 60, "duration": 243, "velocity": 89}, {"time": 70079, "pitch": 64, "duration": 294, "velocity": 93}, {"time": 70081, "pitch": 69, "duration": 266, "velocity": 84}, {"time": 70320, "pitch": 60, "duration": 278, "velocity": 88}, {"time": 70560, "pitch": 55, "duration": 253, "velocity": 90}, {"time": 70800, "pitch": 59, "duration": 237, "velocity": 87}, {"time": 71040, "pitch": 62, "duration": 275, "velocity": 90}, {"time": 71042, "pitch": 65, "duration": 43, "velocity": 95}, {"time": 71043, "pitch": 67, "duration": 229, "velocity": 100}, {"time": 71280, "pitch": 59, "duration": 117, "velocity": 94}, {"time": 71521, "pitch": 53, "duration": 238, "velocity": 102}, {"time": 71761, "pitch": 57, "duration": 226, "velocity": 84}, {"time": 72001, "pitch": 57, "duration": 109, "velocity": 80}, {"time": 72003, "pitch": 60, "duration": 215, "velocity": 85}, {"time": 72005, "pitch": 65, "duration": 167, "velocity": 90}, {"time": 72241, "pitch": 57, "duration": 192, "velocity": 84}, {"time": 72482, "pitch": 57, "duration": 391, "velocity": 87}, {"time": 72484, "pitch": 60, "duration": 394, "velocity": 96}, {"time": 72488, "pitch": 65, "duration": 405, "velocity": 100}, {"time": 72962, "pitch": 57, "duration": 268, "velocity": 90}, {"time": 72964, "pitch": 60, "duration": 270, "velocity": 95}, {"time": 72966, "pitch": 65, "duration": 272, "velocity": 101}, {"time": 83039, "pitch": 55, "duration": 103, "velocity": 90}, {"time": 83041, "pitch": 60, "duration": 118, "velocity": 95}, {"time": 83043, "pitch": 64, "duration": 99, "velocity": 99}, {"time": 83279, "pitch": 55, "duration": 100, "velocity": 90}, {"time": 83281, "pitch": 60, "duration": 112, "velocity": 95}, {"time": 83283, "pitch": 64, "duration": 90, "velocity": 97}, {"time": 83520, "pitch": 55, "duration": 108, "velocity": 90}, {"time": 83522, "pitch": 60, "duration": 111, "velocity": 95}, {"time": 83524, "pitch": 64, "duration": 97, "velocity": 100}, {"time": 83760, "pitch": 55, "duration": 91, "velocity": 90}, {"time": 83762, "pitch": 60, "duration": 91, "velocity": 95}, {"time": 83764, "pitch": 64, "duration": 100, "velocity": 102}, {"time": 84000, "pitch": 56, "duration": 97, "velocity": 90}, {"time": 84002, "pitch": 59, "duration": 103, "velocity": 95}, {"time": 84004, "pitch": 62, "duration": 100, "velocity": 97}, {"time": 84240, "pitch": 56, "duration": 77, "velocity": 90}, {"time": 84242, "pitch": 59, "duration": 79, "velocity": 95}, {"time": 84244, "pitch": 62, "duration": 83, "velocity": 99}, {"time": 84481, "pitch": 56, "duration": 80, "velocity": 90}, {"time": 84483, "pitch": 59, "duration": 77, "velocity": 95}, {"time": 84485, "pitch": 62, "duration": 87, "velocity": 100}, {"time": 84721, "pitch": 56, "duration": 61, "velocity": 90}, {"time": 84723, "pitch": 59, "duration": 52, "velocity": 95}, {"time": 84725, "pitch": 62, "duration": 48, "velocity": 100}, {"time": 84841, "pitch": 62, "duration": 67, "velocity": 90}, {"time": 84843, "pitch": 59, "duration": 58, "velocity": 95}, {"time": 84845, "pitch": 56, "duration": 72, "velocity": 100}, {"time": 84961, "pitch": 57, "duration": 83, "velocity": 90}, {"time": 84963, "pitch": 60, "duration": 107, "velocity": 95}, {"time": 84965, "pitch": 64, "duration": 100, "velocity": 99}, {"time": 85201, "pitch": 57, "duration": 71, "velocity": 90}, {"time": 85203, "pitch": 60, "duration": 81, "velocity": 95}, {"time": 85205, "pitch": 64, "duration": 81, "velocity": 98}, {"time": 85441, "pitch": 57, "duration": 83, "velocity": 90}, {"time": 85443, "pitch": 60, "duration": 93, "velocity": 95}, {"time": 85445, "pitch": 64, "duration": 95, "velocity": 99}, {"time": 85682, "pitch": 57, "duration": 67, "velocity": 90}, {"time": 85684, "pitch": 60, "duration": 73, "velocity": 95}, {"time": 85686, "pitch": 64, "duration": 74, "velocity": 100}, {"time": 85922, "pitch": 57, "duration": 64, "velocity": 90}, {"time": 85924, "pitch": 60, "duration": 63, "velocity": 95}, {"time": 85926, "pitch": 64, "duration": 75, "velocity": 100}, {"time": 86162, "pitch": 57, "duration": 62, "velocity": 90}, {"time": 86164, "pitch": 60, "duration": 63, "velocity": 95}, {"time": 86166, "pitch": 64, "duration": 73, "velocity": 105}, {"time": 86402, "pitch": 57, "duration": 73, "velocity": 90}, {"time": 86404, "pitch": 60, "duration": 74, "velocity": 95}, {"time": 86406, "pitch": 64, "duration": 77, "velocity": 99}, {"time": 86642, "pitch": 57, "duration": 58, "velocity": 90}, {"time": 86644, "pitch": 60, "duration": 59, "velocity": 95}, {"time": 86646, "pitch": 64, "duration": 67, "velocity": 105}, {"time": 86883, "pitch": 55, "duration": 101, "velocity": 90}, {"time": 86885, "pitch": 60, "duration": 116, "velocity": 95}, {"time": 86887, "pitch": 64, "duration": 97, "velocity": 99}, {"time": 87120, "pitch": 55, "duration": 98, "velocity": 90}, {"time": 87122, "pitch": 60, "duration": 110, "velocity": 95}, {"time": 87124, "pitch": 64, "duration": 88, "velocity": 97}, {"time": 87357, "pitch": 55, "duration": 108, "velocity": 90}, {"time": 87359, "pitch": 60, "duration": 111, "velocity": 95}, {"time": 87361, "pitch": 64, "duration": 97, "velocity": 100}, {"time": 87597, "pitch": 55, "duration": 91, "velocity": 90}, {"time": 87599, "pitch": 60, "duration": 91, "velocity": 95}, {"time": 87601, "pitch": 64, "duration": 100, "velocity": 102}, {"time": 87838, "pitch": 56, "duration": 97, "velocity": 90}, {"time": 87840, "pitch": 59, "duration": 103, "velocity": 95}, {"time": 87842, "pitch": 62, "duration": 100, "velocity": 97}, {"time": 88078, "pitch": 56, "duration": 77, "velocity": 90}, {"time": 88080, "pitch": 59, "duration": 79, "velocity": 95}, {"time": 88082, "pitch": 62, "duration": 83, "velocity": 99}, {"time": 88318, "pitch": 56, "duration": 80, "velocity": 90}, {"time": 88320, "pitch": 59, "duration": 77, "velocity": 95}, {"time": 88322, "pitch": 62, "duration": 87, "velocity": 100}, {"time": 88558, "pitch": 56, "duration": 61, "velocity": 90}, {"time": 88560, "pitch": 59, "duration": 52, "velocity": 95}, {"time": 88562, "pitch": 62, "duration": 48, "velocity": 100}, {"time": 88678, "pitch": 62, "duration": 67, "velocity": 90}, {"time": 88680, "pitch": 59, "duration": 58, "velocity": 95}, {"time": 88682, "pitch": 56, "duration": 72, "velocity": 100}, {"time": 88798, "pitch": 57, "duration": 84, "velocity": 90}, {"time": 88800, "pitch": 60, "duration": 108, "velocity": 95}, {"time": 88802, "pitch": 64, "duration": 101, "velocity": 99}, {"time": 89039, "pitch": 57, "duration": 71, "velocity": 90}, {"time": 89041, "pitch": 60, "duration": 81, "velocity": 95}, {"time": 89043, "pitch": 64, "duration": 81, "velocity": 98}, {"time": 89279, "pitch": 57, "duration": 83, "velocity": 90}, {"time": 89281, "pitch": 60, "duration": 93, "velocity": 95}, {"time": 89283, "pitch": 64, "duration": 95, "velocity": 99}, {"time": 89519, "pitch": 57, "duration": 67, "velocity": 90}, {"time": 89521, "pitch": 60, "duration": 73, "velocity": 95}, {"time": 89523, "pitch": 64, "duration": 74, "velocity": 100}, {"time": 89759, "pitch": 57, "duration": 64, "velocity": 90}, {"time": 89761, "pitch": 60, "duration": 63, "velocity": 95}, {"time": 89763, "pitch": 64, "duration": 75, "velocity": 100}, {"time": 90000, "pitch": 57, "duration": 62, "velocity": 90}, {"time": 90002, "pitch": 60, "duration": 63, "velocity": 95}, {"time": 90004, "pitch": 64, "duration": 73, "velocity": 105}, {"time": 90240, "pitch": 57, "duration": 73, "velocity": 90}, {"time": 90242, "pitch": 60, "duration": 74, "velocity": 95}, {"time": 90244, "pitch": 64, "duration": 77, "velocity": 99}, {"time": 90480, "pitch": 57, "duration": 57, "velocity": 90}, {"time": 90482, "pitch": 60, "duration": 58, "velocity": 95}, {"time": 90484, "pitch": 64, "duration": 66, "velocity": 105}, {"time": 90720, "pitch": 57, "duration": 92, "velocity": 90}, {"time": 90722, "pitch": 60, "duration": 97, "velocity": 95}, {"time": 90724, "pitch": 65, "duration": 84, "velocity": 100}, {"time": 90960, "pitch": 57, "duration": 70, "velocity": 90}, {"time": 90962, "pitch": 60, "duration": 83, "velocity": 95}, {"time": 90964, "pitch": 65, "duration": 79, "velocity": 100}, {"time": 91201, "pitch": 57, "duration": 66, "velocity": 90}, {"time": 91203, "pitch": 60, "duration": 79, "velocity": 95}, {"time": 91205, "pitch": 65, "duration": 75, "velocity": 98}, {"time": 91441, "pitch": 57, "duration": 84, "velocity": 90}, {"time": 91443, "pitch": 60, "duration": 98, "velocity": 95}, {"time": 91445, "pitch": 65, "duration": 89, "velocity": 98}, {"time": 91681, "pitch": 55, "duration": 83, "velocity": 90}, {"time": 91683, "pitch": 60, "duration": 89, "velocity": 95}, {"time": 91685, "pitch": 64, "duration": 93, "velocity": 98}, {"time": 91921, "pitch": 55, "duration": 82, "velocity": 90}, {"time": 91923, "pitch": 60, "duration": 88, "velocity": 95}, {"time": 91925, "pitch": 64, "duration": 93, "velocity": 100}, {"time": 92162, "pitch": 55, "duration": 83, "velocity": 90}, {"time": 92164, "pitch": 60, "duration": 92, "velocity": 95}, {"time": 92166, "pitch": 64, "duration": 98, "velocity": 100}, {"time": 92402, "pitch": 55, "duration": 84, "velocity": 90}, {"time": 92404, "pitch": 60, "duration": 95, "velocity": 90}, {"time": 92406, "pitch": 64, "duration": 101, "velocity": 95}, {"time": 92642, "pitch": 57, "duration": 92, "velocity": 90}, {"time": 92644, "pitch": 60, "duration": 97, "velocity": 95}, {"time": 92646, "pitch": 65, "duration": 84, "velocity": 100}, {"time": 92882, "pitch": 57, "duration": 70, "velocity": 90}, {"time": 92884, "pitch": 60, "duration": 82, "velocity": 95}, {"time": 92886, "pitch": 65, "duration": 79, "velocity": 100}, {"time": 93122, "pitch": 57, "duration": 66, "velocity": 90}, {"time": 93124, "pitch": 60, "duration": 79, "velocity": 95}, {"time": 93126, "pitch": 65, "duration": 75, "velocity": 98}, {"time": 93363, "pitch": 57, "duration": 84, "velocity": 90}, {"time": 93365, "pitch": 60, "duration": 98, "velocity": 95}, {"time": 93367, "pitch": 65, "duration": 89, "velocity": 98}, {"time": 93603, "pitch": 55, "duration": 82, "velocity": 90}, {"time": 93605, "pitch": 60, "duration": 88, "velocity": 95}, {"time": 93607, "pitch": 64, "duration": 92, "velocity": 98}, {"time": 93840, "pitch": 55, "duration": 81, "velocity": 90}, {"time": 93842, "pitch": 60, "duration": 87, "velocity": 95}, {"time": 93844, "pitch": 64, "duration": 92, "velocity": 100}, {"time": 94077, "pitch": 55, "duration": 83, "velocity": 90}, {"time": 94079, "pitch": 60, "duration": 92, "velocity": 95}, {"time": 94081, "pitch": 64, "duration": 98, "velocity": 100}, {"time": 94318, "pitch": 55, "duration": 84, "velocity": 90}, {"time": 94320, "pitch": 60, "duration": 95, "velocity": 90}, {"time": 94322, "pitch": 64, "duration": 101, "velocity": 95}, {"time": 94558, "pitch": 57, "duration": 92, "velocity": 90}, {"time": 94560, "pitch": 60, "duration": 97, "velocity": 95}, {"time": 94562, "pitch": 65, "duration": 84, "velocity": 100}, {"time": 94798, "pitch": 57, "duration": 70, "velocity": 90}, {"time": 94800, "pitch": 60, "duration": 82, "velocity": 95}, {"time": 94802, "pitch": 65, "duration": 79, "velocity": 100}, {"time": 95038, "pitch": 57, "duration": 66, "velocity": 90}, {"time": 95040, "pitch": 60, "duration": 79, "velocity": 95}, {"time": 95042, "pitch": 65, "duration": 75, "velocity": 98}, {"time": 95278, "pitch": 57, "duration": 84, "velocity": 90}, {"time": 95280, "pitch": 60, "duration": 98, "velocity": 95}, {"time": 95282, "pitch": 65, "duration": 89, "velocity": 98}, {"time": 95519, "pitch": 59, "duration": 88, "velocity": 100}, {"time": 95521, "pitch": 62, "duration": 92, "velocity": 105}, {"time": 95525, "pitch": 67, "duration": 91, "velocity": 111}, {"time": 111841, "pitch": 55, "duration": 104, "velocity": 90}, {"time": 111843, "pitch": 60, "duration": 119, "velocity": 95}, {"time": 111845, "pitch": 64, "duration": 100, "velocity": 99}, {"time": 112082, "pitch": 55, "duration": 99, "velocity": 90}, {"time": 112084, "pitch": 60, "duration": 111, "velocity": 95}, {"time": 112086, "pitch": 64, "duration": 89, "velocity": 97}, {"time": 112322, "pitch": 55, "duration": 108, "velocity": 90}, {"time": 112324, "pitch": 60, "duration": 111, "velocity": 95}, {"time": 112326, "pitch": 64, "duration": 97, "velocity": 100}, {"time": 112562, "pitch": 55, "duration": 91, "velocity": 90}, {"time": 112564, "pitch": 60, "duration": 91, "velocity": 95}, {"time": 112566, "pitch": 64, "duration": 100, "velocity": 102}, {"time": 112802, "pitch": 56, "duration": 97, "velocity": 90}, {"time": 112804, "pitch": 59, "duration": 103, "velocity": 95}, {"time": 112806, "pitch": 62, "duration": 100, "velocity": 97}, {"time": 113043, "pitch": 56, "duration": 77, "velocity": 90}, {"time": 113045, "pitch": 59, "duration": 79, "velocity": 95}, {"time": 113047, "pitch": 62, "duration": 83, "velocity": 99}, {"time": 113283, "pitch": 56, "duration": 79, "velocity": 90}, {"time": 113285, "pitch": 59, "duration": 76, "velocity": 95}, {"time": 113287, "pitch": 62, "duration": 86, "velocity": 100}, {"time": 113520, "pitch": 56, "duration": 60, "velocity": 90}, {"time": 113522, "pitch": 59, "duration": 51, "velocity": 95}, {"time": 113524, "pitch": 62, "duration": 47, "velocity": 100}, {"time": 113639, "pitch": 62, "duration": 66, "velocity": 90}, {"time": 113641, "pitch": 59, "duration": 57, "velocity": 95}, {"time": 113643, "pitch": 56, "duration": 71, "velocity": 100}, {"time": 113757, "pitch": 57, "duration": 83, "velocity": 90}, {"time": 113759, "pitch": 60, "duration": 107, "velocity": 95}, {"time": 113761, "pitch": 64, "duration": 100, "velocity": 99}, {"time": 113998, "pitch": 57, "duration": 71, "velocity": 90}, {"time": 114000, "pitch": 60, "duration": 81, "velocity": 95}, {"time": 114002, "pitch": 64, "duration": 81, "velocity": 98}, {"time": 114238, "pitch": 57, "duration": 83, "velocity": 90}, {"time": 114240, "pitch": 60, "duration": 93, "velocity": 95}, {"time": 114242, "pitch": 64, "duration": 95, "velocity": 99}, {"time": 114478, "pitch": 57, "duration": 67, "velocity": 90}, {"time": 114480, "pitch": 60, "duration": 73, "velocity": 95}, {"time": 114482, "pitch": 64, "duration": 74, "velocity": 100}, {"time": 114718, "pitch": 57, "duration": 64, "velocity": 90}, {"time": 114720, "pitch": 60, "duration": 63, "velocity": 95}, {"time": 114722, "pitch": 64, "duration": 75, "velocity": 100}, {"time": 114958, "pitch": 57, "duration": 62, "velocity": 90}, {"time": 114960, "pitch": 60, "duration": 63, "velocity": 95}, {"time": 114962, "pitch": 64, "duration": 73, "velocity": 105}, {"time": 115199, "pitch": 57, "duration": 73, "velocity": 90}, {"time": 115201, "pitch": 60, "duration": 74, "velocity": 95}, {"time": 115203, "pitch": 64, "duration": 77, "velocity": 99}, {"time": 115439, "pitch": 57, "duration": 57, "velocity": 90}, {"time": 115441, "pitch": 60, "duration": 58, "velocity": 95}, {"time": 115443, "pitch": 64, "duration": 66, "velocity": 105}, {"time": 115679, "pitch": 55, "duration": 103, "velocity": 90}, {"time": 115681, "pitch": 60, "duration": 118, "velocity": 95}, {"time": 115683, "pitch": 64, "duration": 99, "velocity": 99}, {"time": 115919, "pitch": 55, "duration": 99, "velocity": 90}, {"time": 115921, "pitch": 60, "duration": 111, "velocity": 95}, {"time": 115923, "pitch": 64, "duration": 89, "velocity": 97}, {"time": 116159, "pitch": 55, "duration": 109, "velocity": 90}, {"time": 116161, "pitch": 60, "duration": 112, "velocity": 95}, {"time": 116163, "pitch": 64, "duration": 98, "velocity": 100}, {"time": 116400, "pitch": 55, "duration": 91, "velocity": 90}, {"time": 116402, "pitch": 60, "duration": 91, "velocity": 95}, {"time": 116404, "pitch": 64, "duration": 100, "velocity": 102}, {"time": 116640, "pitch": 56, "duration": 97, "velocity": 90}, {"time": 116642, "pitch": 59, "duration": 103, "velocity": 95}, {"time": 116644, "pitch": 62, "duration": 100, "velocity": 97}, {"time": 116880, "pitch": 56, "duration": 77, "velocity": 90}, {"time": 116882, "pitch": 59, "duration": 79, "velocity": 95}, {"time": 116884, "pitch": 62, "duration": 83, "velocity": 99}, {"time": 117120, "pitch": 56, "duration": 80, "velocity": 90}, {"time": 117122, "pitch": 59, "duration": 77, "velocity": 95}, {"time": 117124, "pitch": 62, "duration": 87, "velocity": 100}, {"time": 117361, "pitch": 56, "duration": 61, "velocity": 90}, {"time": 117363, "pitch": 59, "duration": 52, "velocity": 95}, {"time": 117365, "pitch": 62, "duration": 48, "velocity": 100}, {"time": 117481, "pitch": 62, "duration": 67, "velocity": 90}, {"time": 117483, "pitch": 59, "duration": 58, "velocity": 95}, {"time": 117485, "pitch": 56, "duration": 72, "velocity": 100}, {"time": 117601, "pitch": 57, "duration": 83, "velocity": 90}, {"time": 117603, "pitch": 60, "duration": 107, "velocity": 95}, {"time": 117605, "pitch": 64, "duration": 100, "velocity": 99}, {"time": 117841, "pitch": 57, "duration": 71, "velocity": 90}, {"time": 117843, "pitch": 60, "duration": 81, "velocity": 95}, {"time": 117845, "pitch": 64, "duration": 81, "velocity": 98}, {"time": 118081, "pitch": 57, "duration": 83, "velocity": 90}, {"time": 118083, "pitch": 60, "duration": 93, "velocity": 95}, {"time": 118085, "pitch": 64, "duration": 95, "velocity": 99}, {"time": 118321, "pitch": 57, "duration": 67, "velocity": 90}, {"time": 118323, "pitch": 60, "duration": 73, "velocity": 95}, {"time": 118325, "pitch": 64, "duration": 74, "velocity": 100}, {"time": 118562, "pitch": 57, "duration": 64, "velocity": 90}, {"time": 118564, "pitch": 60, "duration": 63, "velocity": 95}, {"time": 118566, "pitch": 64, "duration": 75, "velocity": 100}, {"time": 118802, "pitch": 57, "duration": 62, "velocity": 90}, {"time": 118804, "pitch": 60, "duration": 63, "velocity": 95}, {"time": 118806, "pitch": 64, "duration": 73, "velocity": 105}, {"time": 119042, "pitch": 57, "duration": 73, "velocity": 90}, {"time": 119044, "pitch": 60, "duration": 74, "velocity": 95}, {"time": 119046, "pitch": 64, "duration": 77, "velocity": 99}, {"time": 119282, "pitch": 57, "duration": 57, "velocity": 90}, {"time": 119284, "pitch": 60, "duration": 58, "velocity": 95}, {"time": 119286, "pitch": 64, "duration": 66, "velocity": 105}, {"time": 119522, "pitch": 57, "duration": 93, "velocity": 90}, {"time": 119524, "pitch": 60, "duration": 98, "velocity": 95}, {"time": 119526, "pitch": 65, "duration": 85, "velocity": 100}, {"time": 119763, "pitch": 57, "duration": 70, "velocity": 90}, {"time": 119765, "pitch": 60, "duration": 82, "velocity": 95}, {"time": 119767, "pitch": 65, "duration": 79, "velocity": 100}, {"time": 120003, "pitch": 57, "duration": 65, "velocity": 90}, {"time": 120005, "pitch": 60, "duration": 78, "velocity": 95}, {"time": 120007, "pitch": 65, "duration": 74, "velocity": 98}, {"time": 120240, "pitch": 57, "duration": 83, "velocity": 90}, {"time": 120242, "pitch": 60, "duration": 97, "velocity": 95}, {"time": 120244, "pitch": 65, "duration": 88, "velocity": 98}, {"time": 120477, "pitch": 55, "duration": 84, "velocity": 90}, {"time": 120479, "pitch": 60, "duration": 90, "velocity": 95}, {"time": 120481, "pitch": 64, "duration": 94, "velocity": 98}, {"time": 120718, "pitch": 55, "duration": 82, "velocity": 90}, {"time": 120720, "pitch": 60, "duration": 88, "velocity": 95}, {"time": 120722, "pitch": 64, "duration": 93, "velocity": 100}, {"time": 120958, "pitch": 55, "duration": 83, "velocity": 90}, {"time": 120960, "pitch": 60, "duration": 92, "velocity": 95}, {"time": 120962, "pitch": 64, "duration": 98, "velocity": 100}, {"time": 121198, "pitch": 55, "duration": 84, "velocity": 90}, {"time": 121200, "pitch": 60, "duration": 95, "velocity": 90}, {"time": 121202, "pitch": 64, "duration": 101, "velocity": 95}, {"time": 121438, "pitch": 57, "duration": 92, "velocity": 90}, {"time": 121440, "pitch": 60, "duration": 97, "velocity": 95}, {"time": 121442, "pitch": 65, "duration": 84, "velocity": 100}, {"time": 121679, "pitch": 57, "duration": 70, "velocity": 90}, {"time": 121681, "pitch": 60, "duration": 82, "velocity": 95}, {"time": 121683, "pitch": 65, "duration": 79, "velocity": 100}, {"time": 121919, "pitch": 57, "duration": 66, "velocity": 90}, {"time": 121921, "pitch": 60, "duration": 79, "velocity": 95}, {"time": 121923, "pitch": 65, "duration": 75, "velocity": 98}, {"time": 122159, "pitch": 57, "duration": 84, "velocity": 90}, {"time": 122161, "pitch": 60, "duration": 98, "velocity": 95}, {"time": 122163, "pitch": 65, "duration": 89, "velocity": 98}, {"time": 122399, "pitch": 55, "duration": 83, "velocity": 90}, {"time": 122401, "pitch": 60, "duration": 89, "velocity": 95}, {"time": 122403, "pitch": 64, "duration": 93, "velocity": 98}, {"time": 122639, "pitch": 55, "duration": 82, "velocity": 90}, {"time": 122641, "pitch": 60, "duration": 88, "velocity": 95}, {"time": 122643, "pitch": 64, "duration": 93, "velocity": 100}, {"time": 122880, "pitch": 55, "duration": 83, "velocity": 90}, {"time": 122882, "pitch": 60, "duration": 92, "velocity": 95}, {"time": 122884, "pitch": 64, "duration": 98, "velocity": 100}, {"time": 123120, "pitch": 55, "duration": 84, "velocity": 90}, {"time": 123122, "pitch": 60, "duration": 95, "velocity": 90}, {"time": 123124, "pitch": 64, "duration": 101, "velocity": 95}, {"time": 123360, "pitch": 57, "duration": 92, "velocity": 90}, {"time": 123362, "pitch": 60, "duration": 97, "velocity": 95}, {"time": 123364, "pitch": 65, "duration": 84, "velocity": 100}, {"time": 123600, "pitch": 57, "duration": 70, "velocity": 90}, {"time": 123602, "pitch": 60, "duration": 82, "velocity": 95}, {"time": 123604, "pitch": 65, "duration": 79, "velocity": 100}, {"time": 123840, "pitch": 57, "duration": 67, "velocity": 90}, {"time": 123842, "pitch": 60, "duration": 80, "velocity": 95}, {"time": 123844, "pitch": 65, "duration": 76, "velocity": 98}, {"time": 124081, "pitch": 57, "duration": 84, "velocity": 90}, {"time": 124083, "pitch": 60, "duration": 98, "velocity": 95}, {"time": 124085, "pitch": 65, "duration": 89, "velocity": 98}, {"time": 124321, "pitch": 59, "duration": 88, "velocity": 100}, {"time": 124323, "pitch": 62, "duration": 92, "velocity": 105}, {"time": 124327, "pitch": 67, "duration": 91, "velocity": 111}, {"time": 125282, "pitch": 60, "duration": 102, "velocity": 90}, {"time": 125284, "pitch": 64, "duration": 130, "velocity": 92}, {"time": 125286, "pitch": 69, "duration": 127, "velocity": 96}, {"time": 125522, "pitch": 60, "duration": 112, "velocity": 90}, {"time": 125524, "pitch": 64, "duration": 132, "velocity": 95}, {"time": 125526, "pitch": 69, "duration": 137, "velocity": 100}, {"time": 125762, "pitch": 60, "duration": 120, "velocity": 90}, {"time": 125764, "pitch": 64, "duration": 136, "velocity": 92}, {"time": 125766, "pitch": 69, "duration": 130, "velocity": 101}, {"time": 126002, "pitch": 60, "duration": 95, "velocity": 90}, {"time": 126004, "pitch": 64, "duration": 111, "velocity": 91}, {"time": 126006, "pitch": 69, "duration": 102, "velocity": 103}, {"time": 126243, "pitch": 60, "duration": 116, "velocity": 90}, {"time": 126245, "pitch": 64, "duration": 127, "velocity": 91}, {"time": 126247, "pitch": 68, "duration": 125, "velocity": 90}, {"time": 126480, "pitch": 60, "duration": 31, "velocity": 90}, {"time": 126482, "pitch": 64, "duration": 37, "velocity": 91}, {"time": 126484, "pitch": 68, "duration": 30, "velocity": 99}, {"time": 126599, "pitch": 68, "duration": 58, "velocity": 90}, {"time": 126601, "pitch": 64, "duration": 50, "velocity": 91}, {"time": 126602, "pitch": 60, "duration": 52, "velocity": 95}, {"time": 126717, "pitch": 60, "duration": 71, "velocity": 96}, {"time": 126719, "pitch": 64, "duration": 78, "velocity": 100}, {"time": 126721, "pitch": 68, "duration": 78, "velocity": 105}, {"time": 126837, "pitch": 68, "duration": 198, "velocity": 90}, {"time": 126839, "pitch": 64, "duration": 197, "velocity": 91}, {"time": 126841, "pitch": 60, "duration": 196, "velocity": 95}, {"time": 127077, "pitch": 60, "duration": 52, "velocity": 90}, {"time": 127079, "pitch": 64, "duration": 56, "velocity": 91}, {"time": 127081, "pitch": 68, "duration": 48, "velocity": 95}, {"time": 127198, "pitch": 60, "duration": 132, "velocity": 90}, {"time": 127200, "pitch": 64, "duration": 136, "velocity": 91}, {"time": 127202, "pitch": 67, "duration": 132, "velocity": 99}, {"time": 127438, "pitch": 60, "duration": 110, "velocity": 90}, {"time": 127440, "pitch": 64, "duration": 118, "velocity": 91}, {"time": 127442, "pitch": 67, "duration": 122, "velocity": 92}, {"time": 127678, "pitch": 60, "duration": 76, "velocity": 90}, {"time": 127680, "pitch": 64, "duration": 89, "velocity": 91}, {"time": 127682, "pitch": 67, "duration": 95, "velocity": 95}, {"time": 127918, "pitch": 60, "duration": 99, "velocity": 90}, {"time": 127920, "pitch": 64, "duration": 137, "velocity": 91}, {"time": 127922, "pitch": 67, "duration": 137, "velocity": 95}, {"time": 128158, "pitch": 62, "duration": 123, "velocity": 90}, {"time": 128160, "pitch": 66, "duration": 108, "velocity": 91}, {"time": 128162, "pitch": 69, "duration": 134, "velocity": 99}, {"time": 128399, "pitch": 62, "duration": 42, "velocity": 90}, {"time": 128401, "pitch": 66, "duration": 27, "velocity": 91}, {"time": 128403, "pitch": 69, "duration": 40, "velocity": 100}, {"time": 128519, "pitch": 69, "duration": 53, "velocity": 91}, {"time": 128521, "pitch": 66, "duration": 41, "velocity": 98}, {"time": 128523, "pitch": 62, "duration": 54, "velocity": 101}, {"time": 128639, "pitch": 62, "duration": 46, "velocity": 90}, {"time": 128641, "pitch": 66, "duration": 26, "velocity": 91}, {"time": 128643, "pitch": 69, "duration": 54, "velocity": 99}, {"time": 128759, "pitch": 69, "duration": 197, "velocity": 90}, {"time": 128761, "pitch": 66, "duration": 198, "velocity": 95}, {"time": 128763, "pitch": 62, "duration": 213, "velocity": 100}, {"time": 128999, "pitch": 62, "duration": 64, "velocity": 90}, {"time": 129001, "pitch": 66, "duration": 50, "velocity": 91}, {"time": 129003, "pitch": 69, "duration": 71, "velocity": 101}, {"time": 129119, "pitch": 57, "duration": 92, "velocity": 90}, {"time": 129121, "pitch": 60, "duration": 97, "velocity": 91}, {"time": 129123, "pitch": 65, "duration": 84, "velocity": 100}, {"time": 129360, "pitch": 57, "duration": 70, "velocity": 90}, {"time": 129362, "pitch": 60, "duration": 82, "velocity": 95}, {"time": 129364, "pitch": 65, "duration": 79, "velocity": 100}, {"time": 129600, "pitch": 57, "duration": 66, "velocity": 90}, {"time": 129602, "pitch": 60, "duration": 79, "velocity": 95}, {"time": 129604, "pitch": 65, "duration": 75, "velocity": 98}, {"time": 129840, "pitch": 57, "duration": 84, "velocity": 90}, {"time": 129842, "pitch": 60, "duration": 98, "velocity": 95}, {"time": 129844, "pitch": 65, "duration": 89, "velocity": 98}, {"time": 130080, "pitch": 59, "duration": 88, "velocity": 100}, {"time": 130082, "pitch": 62, "duration": 92, "velocity": 105}, {"time": 130086, "pitch": 67, "duration": 91, "velocity": 111}, {"time": 131041, "pitch": 55, "duration": 119, "velocity": 90}, {"time": 131045, "pitch": 60, "duration": 119, "velocity": 98}, {"time": 131046, "pitch": 64, "duration": 119, "velocity": 102}, {"time": 131281, "pitch": 55, "duration": 119, "velocity": 90}, {"time": 131285, "pitch": 60, "duration": 96, "velocity": 95}, {"time": 131297, "pitch": 64, "duration": 108, "velocity": 100}, {"time": 131401, "pitch": 55, "duration": 100, "velocity": 100}, {"time": 131404, "pitch": 60, "duration": 108, "velocity": 100}, {"time": 131409, "pitch": 64, "duration": 92, "velocity": 100}, {"time": 131521, "pitch": 55, "duration": 149, "velocity": 90}, {"time": 131525, "pitch": 60, "duration": 120, "velocity": 95}, {"time": 131526, "pitch": 64, "duration": 120, "velocity": 107}, {"time": 131762, "pitch": 55, "duration": 119, "velocity": 90}, {"time": 131766, "pitch": 60, "duration": 119, "velocity": 95}, {"time": 131767, "pitch": 64, "duration": 103, "velocity": 90}, {"time": 131882, "pitch": 64, "duration": 4, "velocity": 95}, {"time": 131886, "pitch": 60, "duration": 119, "velocity": 100}, {"time": 131887, "pitch": 55, "duration": 107, "velocity": 105}, {"time": 132002, "pitch": 55, "duration": 184, "velocity": 90}, {"time": 132004, "pitch": 59, "duration": 119, "velocity": 95}, {"time": 132007, "pitch": 62, "duration": 119, "velocity": 98}, {"time": 132242, "pitch": 55, "duration": 119, "velocity": 90}, {"time": 132244, "pitch": 59, "duration": 119, "velocity": 98}, {"time": 132247, "pitch": 62, "duration": 91, "velocity": 95}, {"time": 132362, "pitch": 62, "duration": 112, "velocity": 90}, {"time": 132364, "pitch": 59, "duration": 119, "velocity": 91}, {"time": 132366, "pitch": 55, "duration": 119, "velocity": 95}, {"time": 132602, "pitch": 55, "duration": 120, "velocity": 90}, {"time": 132604, "pitch": 59, "duration": 120, "velocity": 98}, {"time": 132606, "pitch": 62, "duration": 105, "velocity": 10}, {"time": 132723, "pitch": 62, "duration": 128, "velocity": 90}, {"time": 132726, "pitch": 59, "duration": 119, "velocity": 95}, {"time": 132727, "pitch": 55, "duration": 119, "velocity": 106}, {"time": 132963, "pitch": 57, "duration": 117, "velocity": 90}, {"time": 132967, "pitch": 60, "duration": 117, "velocity": 95}, {"time": 132968, "pitch": 64, "duration": 117, "velocity": 105}, {"time": 133200, "pitch": 57, "duration": 118, "velocity": 90}, {"time": 133204, "pitch": 60, "duration": 118, "velocity": 95}, {"time": 133205, "pitch": 64, "duration": 98, "velocity": 106}, {"time": 133319, "pitch": 64, "duration": 114, "velocity": 90}, {"time": 133323, "pitch": 60, "duration": 102, "velocity": 95}, {"time": 133324, "pitch": 57, "duration": 97, "velocity": 105}, {"time": 133437, "pitch": 57, "duration": 136, "velocity": 90}, {"time": 133441, "pitch": 60, "duration": 119, "velocity": 95}, {"time": 133442, "pitch": 64, "duration": 119, "velocity": 108}, {"time": 133677, "pitch": 57, "duration": 120, "velocity": 90}, {"time": 133682, "pitch": 60, "duration": 119, "velocity": 95}, {"time": 133683, "pitch": 64, "duration": 83, "velocity": 106}, {"time": 133798, "pitch": 64, "duration": 116, "velocity": 90}, {"time": 133802, "pitch": 60, "duration": 119, "velocity": 95}, {"time": 133803, "pitch": 57, "duration": 119, "velocity": 100}, {"time": 133918, "pitch": 55, "duration": 119, "velocity": 90}, {"time": 133920, "pitch": 59, "duration": 119, "velocity": 95}, {"time": 133922, "pitch": 62, "duration": 119, "velocity": 98}, {"time": 134158, "pitch": 55, "duration": 119, "velocity": 90}, {"time": 134161, "pitch": 59, "duration": 119, "velocity": 95}, {"time": 134163, "pitch": 62, "duration": 91, "velocity": 100}, {"time": 134280, "pitch": 62, "duration": 126, "velocity": 90}, {"time": 134281, "pitch": 59, "duration": 119, "velocity": 95}, {"time": 134283, "pitch": 55, "duration": 119, "velocity": 108}, {"time": 134518, "pitch": 55, "duration": 119, "velocity": 90}, {"time": 134520, "pitch": 59, "duration": 119, "velocity": 95}, {"time": 134522, "pitch": 62, "duration": 119, "velocity": 100}, {"time": 134638, "pitch": 55, "duration": 119, "velocity": 90}, {"time": 134640, "pitch": 59, "duration": 119, "velocity": 95}, {"time": 134642, "pitch": 62, "duration": 119, "velocity": 98}, {"time": 134879, "pitch": 57, "duration": 119, "velocity": 90}, {"time": 134883, "pitch": 60, "duration": 119, "velocity": 95}, {"time": 134884, "pitch": 65, "duration": 119, "velocity": 111}, {"time": 135119, "pitch": 57, "duration": 119, "velocity": 90}, {"time": 135123, "pitch": 60, "duration": 104, "velocity": 95}, {"time": 135124, "pitch": 65, "duration": 95, "velocity": 100}, {"time": 135239, "pitch": 65, "duration": 112, "velocity": 90}, {"time": 135242, "pitch": 60, "duration": 81, "velocity": 95}, {"time": 135244, "pitch": 57, "duration": 103, "velocity": 98}, {"time": 135359, "pitch": 57, "duration": 160, "velocity": 90}, {"time": 135363, "pitch": 60, "duration": 119, "velocity": 95}, {"time": 135364, "pitch": 65, "duration": 119, "velocity": 111}, {"time": 135599, "pitch": 57, "duration": 119, "velocity": 90}, {"time": 135603, "pitch": 60, "duration": 119, "velocity": 95}, {"time": 135604, "pitch": 65, "duration": 95, "velocity": 105}, {"time": 135719, "pitch": 65, "duration": 108, "velocity": 90}, {"time": 135723, "pitch": 60, "duration": 104, "velocity": 95}, {"time": 135724, "pitch": 57, "duration": 119, "velocity": 98}, {"time": 135839, "pitch": 55, "duration": 120, "velocity": 90}, {"time": 135843, "pitch": 60, "duration": 120, "velocity": 95}, {"time": 135844, "pitch": 64, "duration": 120, "velocity": 98}, {"time": 136080, "pitch": 55, "duration": 119, "velocity": 90}, {"time": 136084, "pitch": 60, "duration": 119, "velocity": 95}, {"time": 136085, "pitch": 64, "duration": 87, "velocity": 103}, {"time": 136200, "pitch": 64, "duration": 100, "velocity": 90}, {"time": 136204, "pitch": 60, "duration": 92, "velocity": 95}, {"time": 136206, "pitch": 55, "duration": 98, "velocity": 100}, {"time": 136320, "pitch": 55, "duration": 140, "velocity": 90}, {"time": 136324, "pitch": 60, "duration": 119, "velocity": 95}, {"time": 136325, "pitch": 64, "duration": 119, "velocity": 102}, {"time": 136560, "pitch": 60, "duration": 119, "velocity": 90}, {"time": 136565, "pitch": 64, "duration": 119, "velocity": 95}, {"time": 136566, "pitch": 55, "duration": 110, "velocity": 100}, {"time": 136680, "pitch": 55, "duration": 116, "velocity": 90}, {"time": 136684, "pitch": 60, "duration": 96, "velocity": 95}, {"time": 136685, "pitch": 64, "duration": 119, "velocity": 98}, {"time": 136800, "pitch": 57, "duration": 119, "velocity": 90}, {"time": 136802, "pitch": 60, "duration": 138, "velocity": 95}, {"time": 136804, "pitch": 65, "duration": 119, "velocity": 104}, {"time": 137041, "pitch": 57, "duration": 119, "velocity": 90}, {"time": 137043, "pitch": 60, "duration": 119, "velocity": 95}, {"time": 137045, "pitch": 65, "duration": 119, "velocity": 100}, {"time": 137281, "pitch": 57, "duration": 119, "velocity": 90}, {"time": 137283, "pitch": 60, "duration": 119, "velocity": 95}, {"time": 137285, "pitch": 65, "duration": 119, "velocity": 98}, {"time": 137521, "pitch": 57, "duration": 119, "velocity": 90}, {"time": 137523, "pitch": 60, "duration": 119, "velocity": 91}, {"time": 137525, "pitch": 65, "duration": 119, "velocity": 100}, {"time": 137761, "pitch": 59, "duration": 119, "velocity": 90}, {"time": 137763, "pitch": 62, "duration": 119, "velocity": 95}, {"time": 137767, "pitch": 67, "duration": 119, "velocity": 98}, {"time": 138001, "pitch": 59, "duration": 120, "velocity": 90}, {"time": 138003, "pitch": 62, "duration": 120, "velocity": 91}, {"time": 138005, "pitch": 67, "duration": 120, "velocity": 100}, {"time": 138242, "pitch": 59, "duration": 119, "velocity": 90}, {"time": 138244, "pitch": 62, "duration": 119, "velocity": 95}, {"time": 138246, "pitch": 67, "duration": 119, "velocity": 103}, {"time": 138482, "pitch": 59, "duration": 119, "velocity": 90}, {"time": 138484, "pitch": 62, "duration": 119, "velocity": 95}, {"time": 138486, "pitch": 67, "duration": 119, "velocity": 98}], "annotations": [{"time": 403, "annotation": {"number": 7, "value": 80}, "group": "control_change"}, {"time": 422, "annotation": {"number": 11, "value": 100}, "group": "control_change"}, {"time": 442, "annotation": {"number": 10, "value": 24}, "group": "control_change"}, {"time": 461, "annotation": {"number": 91, "value": 60}, "group": "control_change"}, {"time": 480, "annotation": {"number": 93, "value": 10}, "group": "control_change"}, {"time": 480, "annotation": {"number": 101, "value": 0}, "group": "control_change"}, {"time": 480, "annotation": {"number": 100, "value": 0}, "group": "control_change"}, {"time": 480, "annotation": {"number": 6, "value": 12}, "group": "control_change"}, {"time": 480, "annotation": {"number": 101, "value": 127}, "group": "control_change"}, {"time": 482, "annotation": {"number": 100, "value": 127}, "group": "control_change"}]}]}