{"metadata": {"schema_version": "0.1", "title": "RWC-MDB-P-2001 No. 56: I've got a mail / Masashi Hashimoto", "copyright": "RWC Music Database. Copyright (C) 2001 Real World Computing Partnership (contact: Masataka GOTO <m.goto@aist.go.jp>)", "source_filename": "RM-P056.SMF_SYNC.MID", "source_format": "midi"}, "resolution": 480, "tempos": [{"time": 0, "qpm": 42.25352112676056}, {"time": 480, "qpm": 75.0}, {"time": 4800, "qpm": 74.07407407407408}, {"time": 6240, "qpm": 75.0}, {"time": 6720, "qpm": 74.07407407407408}, {"time": 8160, "qpm": 75.0}, {"time": 8640, "qpm": 74.07407407407408}, {"time": 9600, "qpm": 75.0}, {"time": 10560, "qpm": 74.07407407407408}, {"time": 12480, "qpm": 75.0}, {"time": 14400, "qpm": 74.07407407407408}, {"time": 18240, "qpm": 75.0}, {"time": 20640, "qpm": 74.07407407407408}, {"time": 24000, "qpm": 75.0}, {"time": 25920, "qpm": 74.07407407407408}, {"time": 29280, "qpm": 75.0}, {"time": 29760, "qpm": 74.07407407407408}, {"time": 31680, "qpm": 75.0}, {"time": 34080, "qpm": 74.07407407407408}, {"time": 36960, "qpm": 75.0}, {"time": 37440, "qpm": 74.07407407407408}, {"time": 38400, "qpm": 75.0}, {"time": 39840, "qpm": 74.07407407407408}, {"time": 40320, "qpm": 75.0}, {"time": 40800, "qpm": 74.07407407407408}, {"time": 44160, "qpm": 75.0}, {"time": 44640, "qpm": 74.07407407407408}, {"time": 45120, "qpm": 75.0}, {"time": 49440, "qpm": 74.07407407407408}, {"time": 50880, "qpm": 75.0}, {"time": 51360, "qpm": 74.07407407407408}, {"time": 55200, "qpm": 75.0}, {"time": 57120, "qpm": 74.07407407407408}, {"time": 58560, "qpm": 75.0}, {"time": 60480, "qpm": 74.07407407407408}, {"time": 67200, "qpm": 75.0}, {"time": 70080, "qpm": 74.07407407407408}, {"time": 75360, "qpm": 75.0}, {"time": 78240, "qpm": 74.07407407407408}, {"time": 78720, "qpm": 75.0}, {"time": 79200, "qpm": 74.07407407407408}, {"time": 83520, "qpm": 75.0}, {"time": 84000, "qpm": 74.07407407407408}, {"time": 84480, "qpm": 75.0}, {"time": 87360, "qpm": 74.07407407407408}, {"time": 87840, "qpm": 75.0}, {"time": 89280, "qpm": 74.07407407407408}, {"time": 95520, "qpm": 75.0}, {"time": 96960, "qpm": 74.07407407407408}, {"time": 98880, "qpm": 75.0}, {"time": 100320, "qpm": 74.07407407407408}, {"time": 102720, "qpm": 75.0}, {"time": 104640, "qpm": 74.07407407407408}, {"time": 106560, "qpm": 75.0}, {"time": 107040, "qpm": 74.07407407407408}, {"time": 107520, "qpm": 75.0}, {"time": 110400, "qpm": 74.07407407407408}, {"time": 115680, "qpm": 75.0}, {"time": 118080, "qpm": 74.07407407407408}, {"time": 124320, "qpm": 75.0}, {"time": 126240, "qpm": 74.07407407407408}, {"time": 126720, "qpm": 75.0}, {"time": 127200, "qpm": 74.07407407407408}, {"time": 127680, "qpm": 75.0}, {"time": 128160, "qpm": 74.07407407407408}, {"time": 128640, "qpm": 75.0}, {"time": 129120, "qpm": 74.07407407407408}, {"time": 131520, "qpm": 75.0}, {"time": 133440, "qpm": 74.07407407407408}, {"time": 136320, "qpm": 75.0}, {"time": 137760, "qpm": 74.07407407407408}, {"time": 139200, "qpm": 75.0}, {"time": 140640, "qpm": 74.07407407407408}, {"time": 143040, "qpm": 75.0}, {"time": 143520, "qpm": 74.07407407407408}, {"time": 144480, "qpm": 75.0}, {"time": 146400, "qpm": 74.07407407407408}, {"time": 146880, "qpm": 75.0}, {"time": 147360, "qpm": 74.07407407407408}, {"time": 147840, "qpm": 75.0}, {"time": 148320, "qpm": 74.07407407407408}, {"time": 151200, "qpm": 75.0}, {"time": 152160, "qpm": 74.07407407407408}, {"time": 154560, "qpm": 75.0}, {"time": 157440, "qpm": 74.07407407407408}, {"time": 158400, "qpm": 75.0}, {"time": 160320, "qpm": 74.07407407407408}, {"time": 162720, "qpm": 75.0}, {"time": 164160, "qpm": 74.07407407407408}, {"time": 167040, "qpm": 75.0}, {"time": 168000, "qpm": 74.07407407407408}, {"time": 171840, "qpm": 75.0}, {"time": 172320, "qpm": 74.07407407407408}, {"time": 173760, "qpm": 75.0}, {"time": 175200, "qpm": 74.07407407407408}, {"time": 175680, "qpm": 75.0}, {"time": 176160, "qpm": 74.07407407407408}, {"time": 176640, "qpm": 75.0}, {"time": 177120, "qpm": 74.07407407407408}, {"time": 177600, "qpm": 75.0}, {"time": 178080, "qpm": 74.07407407407408}, {"time": 178560, "qpm": 75.0}, {"time": 179040, "qpm": 74.07407407407408}, {"time": 180960, "qpm": 75.0}, {"time": 183360, "qpm": 74.07407407407408}], "key_signatures": [{"time": 0, "root": 7, "mode": "major"}], "time_signatures": [{"time": 0, "numerator": 2, "denominator": 4}, {"time": 960, "numerator": 4, "denominator": 4}], "tracks": [{"program": 0, "is_drum": false, "name": "Flat Mandorin", "annotations": [{"time": 61, "annotation": {"number": 0, "value": 16}, "group": "control_change"}, {"time": 67, "annotation": {"number": 32, "value": 2}, "group": "control_change"}]}, {"program": 25, "is_drum": false, "name": "Flat Mandorin", "notes": [{"time": 958, "pitch": 74, "duration": 240, "velocity": 90}, {"time": 968, "pitch": 81, "duration": 240, "velocity": 100}, {"time": 1198, "pitch": 74, "duration": 130, "velocity": 90}, {"time": 1208, "pitch": 81, "duration": 110, "velocity": 100}, {"time": 1318, "pitch": 81, "duration": 130, "velocity": 90}, {"time": 1328, "pitch": 74, "duration": 110, "velocity": 80}, {"time": 1438, "pitch": 74, "duration": 239, "velocity": 100}, {"time": 1448, "pitch": 81, "duration": 239, "velocity": 110}, {"time": 1677, "pitch": 74, "duration": 130, "velocity": 100}, {"time": 1687, "pitch": 81, "duration": 110, "velocity": 110}, {"time": 1797, "pitch": 81, "duration": 130, "velocity": 100}, {"time": 1807, "pitch": 74, "duration": 110, "velocity": 90}, {"time": 1917, "pitch": 74, "duration": 243, "velocity": 100}, {"time": 1927, "pitch": 81, "duration": 243, "velocity": 110}, {"time": 2160, "pitch": 74, "duration": 132, "velocity": 95}, {"time": 2170, "pitch": 81, "duration": 111, "velocity": 105}, {"time": 2281, "pitch": 81, "duration": 132, "velocity": 95}, {"time": 2292, "pitch": 74, "duration": 111, "velocity": 85}, {"time": 2403, "pitch": 74, "duration": 240, "velocity": 95}, {"time": 2413, "pitch": 81, "duration": 240, "velocity": 105}, {"time": 2643, "pitch": 74, "duration": 130, "velocity": 90}, {"time": 2653, "pitch": 81, "duration": 110, "velocity": 100}, {"time": 2763, "pitch": 81, "duration": 130, "velocity": 90}, {"time": 2773, "pitch": 74, "duration": 110, "velocity": 80}, {"time": 2883, "pitch": 72, "duration": 239, "velocity": 90}, {"time": 2893, "pitch": 79, "duration": 239, "velocity": 100}, {"time": 3122, "pitch": 72, "duration": 130, "velocity": 90}, {"time": 3132, "pitch": 79, "duration": 110, "velocity": 100}, {"time": 3242, "pitch": 79, "duration": 130, "velocity": 90}, {"time": 3252, "pitch": 72, "duration": 110, "velocity": 80}, {"time": 3362, "pitch": 72, "duration": 240, "velocity": 80}, {"time": 3372, "pitch": 79, "duration": 240, "velocity": 90}, {"time": 3602, "pitch": 72, "duration": 130, "velocity": 90}, {"time": 3612, "pitch": 79, "duration": 110, "velocity": 100}, {"time": 3722, "pitch": 79, "duration": 130, "velocity": 90}, {"time": 3732, "pitch": 72, "duration": 110, "velocity": 80}, {"time": 3842, "pitch": 72, "duration": 240, "velocity": 85}, {"time": 3852, "pitch": 79, "duration": 240, "velocity": 95}, {"time": 4082, "pitch": 72, "duration": 130, "velocity": 85}, {"time": 4092, "pitch": 79, "duration": 110, "velocity": 95}, {"time": 4202, "pitch": 79, "duration": 129, "velocity": 85}, {"time": 4212, "pitch": 72, "duration": 110, "velocity": 75}, {"time": 4322, "pitch": 72, "duration": 239, "velocity": 90}, {"time": 4331, "pitch": 79, "duration": 240, "velocity": 100}, {"time": 4561, "pitch": 72, "duration": 130, "velocity": 90}, {"time": 4571, "pitch": 79, "duration": 110, "velocity": 100}, {"time": 4681, "pitch": 79, "duration": 130, "velocity": 90}, {"time": 4691, "pitch": 72, "duration": 110, "velocity": 80}, {"time": 4801, "pitch": 74, "duration": 240, "velocity": 90}, {"time": 4811, "pitch": 81, "duration": 240, "velocity": 100}, {"time": 5041, "pitch": 74, "duration": 130, "velocity": 90}, {"time": 5051, "pitch": 81, "duration": 110, "velocity": 100}, {"time": 5161, "pitch": 81, "duration": 130, "velocity": 90}, {"time": 5171, "pitch": 74, "duration": 110, "velocity": 80}, {"time": 5281, "pitch": 74, "duration": 240, "velocity": 100}, {"time": 5291, "pitch": 81, "duration": 240, "velocity": 110}, {"time": 5521, "pitch": 74, "duration": 130, "velocity": 100}, {"time": 5531, "pitch": 81, "duration": 110, "velocity": 110}, {"time": 5641, "pitch": 81, "duration": 129, "velocity": 100}, {"time": 5651, "pitch": 74, "duration": 109, "velocity": 90}, {"time": 5760, "pitch": 74, "duration": 240, "velocity": 100}, {"time": 5770, "pitch": 81, "duration": 240, "velocity": 110}, {"time": 6000, "pitch": 74, "duration": 130, "velocity": 95}, {"time": 6010, "pitch": 81, "duration": 110, "velocity": 105}, {"time": 6120, "pitch": 81, "duration": 130, "velocity": 95}, {"time": 6130, "pitch": 74, "duration": 110, "velocity": 85}, {"time": 6240, "pitch": 74, "duration": 240, "velocity": 95}, {"time": 6250, "pitch": 81, "duration": 240, "velocity": 105}, {"time": 6480, "pitch": 74, "duration": 130, "velocity": 90}, {"time": 6490, "pitch": 81, "duration": 110, "velocity": 100}, {"time": 6600, "pitch": 81, "duration": 130, "velocity": 90}, {"time": 6610, "pitch": 74, "duration": 110, "velocity": 80}, {"time": 6720, "pitch": 72, "duration": 240, "velocity": 90}, {"time": 6730, "pitch": 79, "duration": 240, "velocity": 100}, {"time": 6960, "pitch": 72, "duration": 129, "velocity": 90}, {"time": 6970, "pitch": 79, "duration": 109, "velocity": 100}, {"time": 7079, "pitch": 79, "duration": 130, "velocity": 90}, {"time": 7089, "pitch": 72, "duration": 110, "velocity": 80}, {"time": 7199, "pitch": 72, "duration": 240, "velocity": 80}, {"time": 7209, "pitch": 79, "duration": 240, "velocity": 90}, {"time": 7439, "pitch": 72, "duration": 130, "velocity": 90}, {"time": 7449, "pitch": 79, "duration": 110, "velocity": 100}, {"time": 7559, "pitch": 79, "duration": 130, "velocity": 90}, {"time": 7569, "pitch": 72, "duration": 110, "velocity": 80}, {"time": 7679, "pitch": 72, "duration": 240, "velocity": 85}, {"time": 7689, "pitch": 79, "duration": 240, "velocity": 95}, {"time": 7919, "pitch": 72, "duration": 130, "velocity": 85}, {"time": 7929, "pitch": 79, "duration": 110, "velocity": 95}, {"time": 8039, "pitch": 79, "duration": 130, "velocity": 85}, {"time": 8049, "pitch": 72, "duration": 110, "velocity": 75}, {"time": 8159, "pitch": 72, "duration": 240, "velocity": 90}, {"time": 8169, "pitch": 79, "duration": 240, "velocity": 100}, {"time": 8399, "pitch": 72, "duration": 129, "velocity": 90}, {"time": 8409, "pitch": 79, "duration": 109, "velocity": 100}, {"time": 8518, "pitch": 79, "duration": 130, "velocity": 90}, {"time": 8528, "pitch": 72, "duration": 110, "velocity": 80}, {"time": 8638, "pitch": 74, "duration": 240, "velocity": 90}, {"time": 8648, "pitch": 81, "duration": 240, "velocity": 100}, {"time": 8878, "pitch": 74, "duration": 130, "velocity": 90}, {"time": 8888, "pitch": 81, "duration": 110, "velocity": 100}, {"time": 8998, "pitch": 81, "duration": 130, "velocity": 90}, {"time": 9008, "pitch": 74, "duration": 110, "velocity": 80}, {"time": 9118, "pitch": 74, "duration": 240, "velocity": 100}, {"time": 9128, "pitch": 81, "duration": 240, "velocity": 110}, {"time": 9358, "pitch": 74, "duration": 130, "velocity": 100}, {"time": 9368, "pitch": 81, "duration": 110, "velocity": 110}, {"time": 9478, "pitch": 81, "duration": 130, "velocity": 100}, {"time": 9488, "pitch": 74, "duration": 110, "velocity": 90}, {"time": 9598, "pitch": 74, "duration": 239, "velocity": 100}, {"time": 9608, "pitch": 81, "duration": 239, "velocity": 110}, {"time": 9837, "pitch": 74, "duration": 130, "velocity": 95}, {"time": 9847, "pitch": 81, "duration": 110, "velocity": 105}, {"time": 9957, "pitch": 81, "duration": 130, "velocity": 95}, {"time": 9967, "pitch": 74, "duration": 110, "velocity": 85}, {"time": 10077, "pitch": 74, "duration": 243, "velocity": 95}, {"time": 10087, "pitch": 81, "duration": 243, "velocity": 105}, {"time": 10320, "pitch": 74, "duration": 132, "velocity": 90}, {"time": 10330, "pitch": 81, "duration": 112, "velocity": 100}, {"time": 10442, "pitch": 81, "duration": 131, "velocity": 90}, {"time": 10452, "pitch": 74, "duration": 111, "velocity": 80}, {"time": 10563, "pitch": 72, "duration": 240, "velocity": 90}, {"time": 10573, "pitch": 79, "duration": 240, "velocity": 100}, {"time": 10803, "pitch": 72, "duration": 130, "velocity": 90}, {"time": 10813, "pitch": 79, "duration": 110, "velocity": 100}, {"time": 10923, "pitch": 79, "duration": 130, "velocity": 90}, {"time": 10933, "pitch": 72, "duration": 110, "velocity": 80}, {"time": 11043, "pitch": 72, "duration": 239, "velocity": 80}, {"time": 11053, "pitch": 79, "duration": 239, "velocity": 90}, {"time": 11282, "pitch": 72, "duration": 130, "velocity": 90}, {"time": 11292, "pitch": 79, "duration": 110, "velocity": 100}, {"time": 11402, "pitch": 79, "duration": 130, "velocity": 90}, {"time": 11412, "pitch": 72, "duration": 110, "velocity": 80}, {"time": 11522, "pitch": 72, "duration": 240, "velocity": 85}, {"time": 11532, "pitch": 79, "duration": 240, "velocity": 95}, {"time": 11762, "pitch": 72, "duration": 130, "velocity": 85}, {"time": 11772, "pitch": 79, "duration": 110, "velocity": 95}, {"time": 11882, "pitch": 79, "duration": 130, "velocity": 85}, {"time": 11892, "pitch": 72, "duration": 110, "velocity": 75}, {"time": 12002, "pitch": 72, "duration": 240, "velocity": 90}, {"time": 12012, "pitch": 79, "duration": 240, "velocity": 100}, {"time": 12242, "pitch": 72, "duration": 130, "velocity": 90}, {"time": 12252, "pitch": 79, "duration": 110, "velocity": 100}, {"time": 12362, "pitch": 79, "duration": 130, "velocity": 90}, {"time": 12372, "pitch": 72, "duration": 110, "velocity": 80}, {"time": 12482, "pitch": 74, "duration": 239, "velocity": 90}, {"time": 12492, "pitch": 81, "duration": 239, "velocity": 100}, {"time": 12721, "pitch": 74, "duration": 130, "velocity": 90}, {"time": 12731, "pitch": 81, "duration": 110, "velocity": 100}, {"time": 12841, "pitch": 81, "duration": 130, "velocity": 90}, {"time": 12851, "pitch": 74, "duration": 110, "velocity": 80}, {"time": 12961, "pitch": 74, "duration": 240, "velocity": 100}, {"time": 12971, "pitch": 81, "duration": 240, "velocity": 110}, {"time": 13201, "pitch": 74, "duration": 130, "velocity": 100}, {"time": 13211, "pitch": 81, "duration": 110, "velocity": 110}, {"time": 13321, "pitch": 81, "duration": 130, "velocity": 100}, {"time": 13331, "pitch": 74, "duration": 110, "velocity": 90}, {"time": 13441, "pitch": 74, "duration": 240, "velocity": 100}, {"time": 13451, "pitch": 81, "duration": 240, "velocity": 110}, {"time": 13681, "pitch": 74, "duration": 130, "velocity": 95}, {"time": 13691, "pitch": 81, "duration": 110, "velocity": 105}, {"time": 13801, "pitch": 81, "duration": 130, "velocity": 95}, {"time": 13811, "pitch": 74, "duration": 110, "velocity": 85}, {"time": 13921, "pitch": 74, "duration": 239, "velocity": 95}, {"time": 13931, "pitch": 81, "duration": 239, "velocity": 105}, {"time": 14160, "pitch": 74, "duration": 130, "velocity": 90}, {"time": 14170, "pitch": 81, "duration": 110, "velocity": 100}, {"time": 14280, "pitch": 81, "duration": 130, "velocity": 90}, {"time": 14290, "pitch": 74, "duration": 110, "velocity": 80}, {"time": 14400, "pitch": 72, "duration": 240, "velocity": 90}, {"time": 14410, "pitch": 79, "duration": 240, "velocity": 100}, {"time": 14640, "pitch": 72, "duration": 130, "velocity": 90}, {"time": 14650, "pitch": 79, "duration": 110, "velocity": 100}, {"time": 14760, "pitch": 79, "duration": 130, "velocity": 90}, {"time": 14770, "pitch": 72, "duration": 110, "velocity": 80}, {"time": 14880, "pitch": 72, "duration": 240, "velocity": 80}, {"time": 14890, "pitch": 79, "duration": 240, "velocity": 90}, {"time": 15120, "pitch": 72, "duration": 130, "velocity": 90}, {"time": 15130, "pitch": 79, "duration": 110, "velocity": 100}, {"time": 15240, "pitch": 79, "duration": 129, "velocity": 90}, {"time": 15250, "pitch": 72, "duration": 109, "velocity": 80}, {"time": 15359, "pitch": 72, "duration": 240, "velocity": 85}, {"time": 15369, "pitch": 79, "duration": 240, "velocity": 95}, {"time": 15599, "pitch": 72, "duration": 130, "velocity": 85}, {"time": 15609, "pitch": 79, "duration": 110, "velocity": 95}, {"time": 15719, "pitch": 79, "duration": 130, "velocity": 85}, {"time": 15729, "pitch": 72, "duration": 110, "velocity": 75}, {"time": 15839, "pitch": 72, "duration": 240, "velocity": 90}, {"time": 15849, "pitch": 79, "duration": 240, "velocity": 100}, {"time": 16079, "pitch": 72, "duration": 130, "velocity": 90}, {"time": 16089, "pitch": 79, "duration": 110, "velocity": 100}, {"time": 16199, "pitch": 79, "duration": 130, "velocity": 90}, {"time": 16209, "pitch": 72, "duration": 110, "velocity": 80}, {"time": 45122, "pitch": 74, "duration": 240, "velocity": 90}, {"time": 45132, "pitch": 81, "duration": 240, "velocity": 100}, {"time": 45362, "pitch": 74, "duration": 130, "velocity": 90}, {"time": 45372, "pitch": 81, "duration": 110, "velocity": 100}, {"time": 45482, "pitch": 81, "duration": 130, "velocity": 90}, {"time": 45492, "pitch": 74, "duration": 110, "velocity": 80}, {"time": 45602, "pitch": 74, "duration": 239, "velocity": 100}, {"time": 45612, "pitch": 81, "duration": 239, "velocity": 110}, {"time": 45841, "pitch": 74, "duration": 130, "velocity": 100}, {"time": 45851, "pitch": 81, "duration": 110, "velocity": 110}, {"time": 45961, "pitch": 81, "duration": 130, "velocity": 100}, {"time": 45971, "pitch": 74, "duration": 110, "velocity": 90}, {"time": 46081, "pitch": 74, "duration": 240, "velocity": 100}, {"time": 46091, "pitch": 81, "duration": 240, "velocity": 110}, {"time": 46321, "pitch": 74, "duration": 130, "velocity": 95}, {"time": 46331, "pitch": 81, "duration": 110, "velocity": 105}, {"time": 46441, "pitch": 81, "duration": 130, "velocity": 95}, {"time": 46451, "pitch": 74, "duration": 110, "velocity": 85}, {"time": 46561, "pitch": 74, "duration": 240, "velocity": 95}, {"time": 46571, "pitch": 81, "duration": 240, "velocity": 105}, {"time": 46801, "pitch": 74, "duration": 130, "velocity": 90}, {"time": 46811, "pitch": 81, "duration": 110, "velocity": 100}, {"time": 46921, "pitch": 81, "duration": 130, "velocity": 90}, {"time": 46931, "pitch": 74, "duration": 110, "velocity": 80}, {"time": 47041, "pitch": 72, "duration": 239, "velocity": 90}, {"time": 47051, "pitch": 79, "duration": 239, "velocity": 100}, {"time": 47280, "pitch": 72, "duration": 130, "velocity": 90}, {"time": 47290, "pitch": 79, "duration": 110, "velocity": 100}, {"time": 47400, "pitch": 79, "duration": 130, "velocity": 90}, {"time": 47410, "pitch": 72, "duration": 110, "velocity": 80}, {"time": 47520, "pitch": 72, "duration": 240, "velocity": 80}, {"time": 47530, "pitch": 79, "duration": 240, "velocity": 90}, {"time": 47760, "pitch": 72, "duration": 130, "velocity": 90}, {"time": 47770, "pitch": 79, "duration": 110, "velocity": 100}, {"time": 47880, "pitch": 79, "duration": 130, "velocity": 90}, {"time": 47890, "pitch": 72, "duration": 110, "velocity": 80}, {"time": 48000, "pitch": 72, "duration": 240, "velocity": 85}, {"time": 48010, "pitch": 79, "duration": 240, "velocity": 95}, {"time": 48240, "pitch": 72, "duration": 130, "velocity": 85}, {"time": 48250, "pitch": 79, "duration": 110, "velocity": 95}, {"time": 48360, "pitch": 79, "duration": 130, "velocity": 85}, {"time": 48370, "pitch": 72, "duration": 110, "velocity": 75}, {"time": 48480, "pitch": 72, "duration": 239, "velocity": 90}, {"time": 48490, "pitch": 79, "duration": 239, "velocity": 100}, {"time": 48719, "pitch": 72, "duration": 130, "velocity": 90}, {"time": 48729, "pitch": 79, "duration": 110, "velocity": 100}, {"time": 48839, "pitch": 79, "duration": 130, "velocity": 90}, {"time": 48849, "pitch": 72, "duration": 110, "velocity": 80}, {"time": 48959, "pitch": 74, "duration": 240, "velocity": 90}, {"time": 48969, "pitch": 81, "duration": 240, "velocity": 100}, {"time": 49199, "pitch": 74, "duration": 130, "velocity": 90}, {"time": 49209, "pitch": 81, "duration": 110, "velocity": 100}, {"time": 49319, "pitch": 81, "duration": 130, "velocity": 90}, {"time": 49329, "pitch": 74, "duration": 110, "velocity": 80}, {"time": 49439, "pitch": 74, "duration": 240, "velocity": 100}, {"time": 49449, "pitch": 81, "duration": 240, "velocity": 110}, {"time": 49679, "pitch": 74, "duration": 130, "velocity": 100}, {"time": 49689, "pitch": 81, "duration": 110, "velocity": 110}, {"time": 49799, "pitch": 81, "duration": 129, "velocity": 100}, {"time": 49809, "pitch": 74, "duration": 109, "velocity": 90}, {"time": 49918, "pitch": 74, "duration": 240, "velocity": 100}, {"time": 49928, "pitch": 81, "duration": 240, "velocity": 110}, {"time": 50158, "pitch": 74, "duration": 130, "velocity": 95}, {"time": 50168, "pitch": 81, "duration": 110, "velocity": 105}, {"time": 50278, "pitch": 81, "duration": 130, "velocity": 95}, {"time": 50288, "pitch": 74, "duration": 110, "velocity": 85}, {"time": 50398, "pitch": 74, "duration": 240, "velocity": 95}, {"time": 50408, "pitch": 81, "duration": 240, "velocity": 105}, {"time": 50638, "pitch": 74, "duration": 130, "velocity": 90}, {"time": 50648, "pitch": 81, "duration": 110, "velocity": 100}, {"time": 50758, "pitch": 81, "duration": 130, "velocity": 90}, {"time": 50768, "pitch": 74, "duration": 110, "velocity": 80}, {"time": 50878, "pitch": 72, "duration": 240, "velocity": 90}, {"time": 50888, "pitch": 79, "duration": 240, "velocity": 100}, {"time": 51118, "pitch": 72, "duration": 129, "velocity": 90}, {"time": 51128, "pitch": 79, "duration": 109, "velocity": 100}, {"time": 51237, "pitch": 79, "duration": 130, "velocity": 90}, {"time": 51247, "pitch": 72, "duration": 110, "velocity": 80}, {"time": 51357, "pitch": 72, "duration": 240, "velocity": 80}, {"time": 51367, "pitch": 79, "duration": 240, "velocity": 90}, {"time": 51597, "pitch": 72, "duration": 130, "velocity": 90}, {"time": 51607, "pitch": 79, "duration": 110, "velocity": 100}, {"time": 51717, "pitch": 79, "duration": 130, "velocity": 90}, {"time": 51727, "pitch": 72, "duration": 110, "velocity": 80}, {"time": 51837, "pitch": 72, "duration": 243, "velocity": 85}, {"time": 51847, "pitch": 79, "duration": 243, "velocity": 95}, {"time": 52080, "pitch": 72, "duration": 131, "velocity": 85}, {"time": 52090, "pitch": 79, "duration": 111, "velocity": 95}, {"time": 52201, "pitch": 79, "duration": 132, "velocity": 85}, {"time": 52211, "pitch": 72, "duration": 112, "velocity": 75}, {"time": 52323, "pitch": 72, "duration": 240, "velocity": 90}, {"time": 52333, "pitch": 79, "duration": 240, "velocity": 100}, {"time": 52563, "pitch": 72, "duration": 130, "velocity": 90}, {"time": 52573, "pitch": 79, "duration": 110, "velocity": 100}, {"time": 52683, "pitch": 79, "duration": 129, "velocity": 90}, {"time": 52693, "pitch": 72, "duration": 109, "velocity": 80}, {"time": 52802, "pitch": 74, "duration": 240, "velocity": 90}, {"time": 52812, "pitch": 81, "duration": 240, "velocity": 100}, {"time": 53042, "pitch": 74, "duration": 130, "velocity": 90}, {"time": 53052, "pitch": 81, "duration": 110, "velocity": 100}, {"time": 53162, "pitch": 81, "duration": 130, "velocity": 90}, {"time": 53172, "pitch": 74, "duration": 110, "velocity": 80}, {"time": 53282, "pitch": 74, "duration": 240, "velocity": 100}, {"time": 53292, "pitch": 81, "duration": 240, "velocity": 110}, {"time": 53522, "pitch": 74, "duration": 130, "velocity": 100}, {"time": 53532, "pitch": 81, "duration": 110, "velocity": 110}, {"time": 53642, "pitch": 81, "duration": 130, "velocity": 100}, {"time": 53652, "pitch": 74, "duration": 110, "velocity": 90}, {"time": 53762, "pitch": 74, "duration": 240, "velocity": 100}, {"time": 53772, "pitch": 81, "duration": 240, "velocity": 110}, {"time": 54002, "pitch": 74, "duration": 129, "velocity": 95}, {"time": 54012, "pitch": 81, "duration": 109, "velocity": 105}, {"time": 54121, "pitch": 81, "duration": 130, "velocity": 95}, {"time": 54131, "pitch": 74, "duration": 110, "velocity": 85}, {"time": 54241, "pitch": 74, "duration": 240, "velocity": 95}, {"time": 54251, "pitch": 81, "duration": 240, "velocity": 105}, {"time": 54481, "pitch": 74, "duration": 130, "velocity": 90}, {"time": 54491, "pitch": 81, "duration": 110, "velocity": 100}, {"time": 54601, "pitch": 81, "duration": 130, "velocity": 90}, {"time": 54611, "pitch": 74, "duration": 110, "velocity": 80}, {"time": 54721, "pitch": 72, "duration": 240, "velocity": 90}, {"time": 54731, "pitch": 79, "duration": 240, "velocity": 100}, {"time": 54961, "pitch": 72, "duration": 130, "velocity": 90}, {"time": 54971, "pitch": 79, "duration": 110, "velocity": 100}, {"time": 55081, "pitch": 79, "duration": 130, "velocity": 90}, {"time": 55091, "pitch": 72, "duration": 110, "velocity": 80}, {"time": 55201, "pitch": 72, "duration": 239, "velocity": 80}, {"time": 55211, "pitch": 79, "duration": 239, "velocity": 90}, {"time": 55440, "pitch": 72, "duration": 130, "velocity": 90}, {"time": 55450, "pitch": 79, "duration": 110, "velocity": 100}, {"time": 55560, "pitch": 79, "duration": 130, "velocity": 90}, {"time": 55570, "pitch": 72, "duration": 110, "velocity": 80}, {"time": 55680, "pitch": 72, "duration": 240, "velocity": 85}, {"time": 55690, "pitch": 79, "duration": 240, "velocity": 95}, {"time": 55920, "pitch": 72, "duration": 130, "velocity": 85}, {"time": 55930, "pitch": 79, "duration": 110, "velocity": 95}, {"time": 56040, "pitch": 79, "duration": 130, "velocity": 85}, {"time": 56050, "pitch": 72, "duration": 110, "velocity": 75}, {"time": 56160, "pitch": 72, "duration": 240, "velocity": 90}, {"time": 56170, "pitch": 79, "duration": 240, "velocity": 100}, {"time": 56400, "pitch": 72, "duration": 130, "velocity": 90}, {"time": 56410, "pitch": 79, "duration": 110, "velocity": 100}, {"time": 56520, "pitch": 79, "duration": 130, "velocity": 90}, {"time": 56530, "pitch": 72, "duration": 110, "velocity": 80}, {"time": 56640, "pitch": 74, "duration": 239, "velocity": 90}, {"time": 56650, "pitch": 81, "duration": 239, "velocity": 100}, {"time": 56879, "pitch": 74, "duration": 130, "velocity": 90}, {"time": 56889, "pitch": 81, "duration": 110, "velocity": 100}, {"time": 56999, "pitch": 81, "duration": 130, "velocity": 90}, {"time": 57009, "pitch": 74, "duration": 110, "velocity": 80}, {"time": 57119, "pitch": 74, "duration": 240, "velocity": 100}, {"time": 57129, "pitch": 81, "duration": 240, "velocity": 110}, {"time": 57359, "pitch": 74, "duration": 130, "velocity": 100}, {"time": 57369, "pitch": 81, "duration": 110, "velocity": 110}, {"time": 57479, "pitch": 81, "duration": 130, "velocity": 100}, {"time": 57489, "pitch": 74, "duration": 110, "velocity": 90}, {"time": 57599, "pitch": 74, "duration": 240, "velocity": 100}, {"time": 57609, "pitch": 81, "duration": 240, "velocity": 110}, {"time": 57839, "pitch": 74, "duration": 130, "velocity": 95}, {"time": 57849, "pitch": 81, "duration": 110, "velocity": 105}, {"time": 57959, "pitch": 81, "duration": 130, "velocity": 95}, {"time": 57969, "pitch": 74, "duration": 110, "velocity": 85}, {"time": 58079, "pitch": 74, "duration": 239, "velocity": 95}, {"time": 58089, "pitch": 81, "duration": 239, "velocity": 105}, {"time": 58318, "pitch": 74, "duration": 130, "velocity": 90}, {"time": 58328, "pitch": 81, "duration": 110, "velocity": 100}, {"time": 58438, "pitch": 81, "duration": 130, "velocity": 90}, {"time": 58448, "pitch": 74, "duration": 110, "velocity": 80}, {"time": 58558, "pitch": 74, "duration": 240, "velocity": 90}, {"time": 58568, "pitch": 81, "duration": 240, "velocity": 100}, {"time": 58798, "pitch": 74, "duration": 130, "velocity": 90}, {"time": 58808, "pitch": 81, "duration": 110, "velocity": 100}, {"time": 58918, "pitch": 81, "duration": 130, "velocity": 90}, {"time": 58928, "pitch": 74, "duration": 110, "velocity": 80}, {"time": 59038, "pitch": 74, "duration": 240, "velocity": 100}, {"time": 59048, "pitch": 81, "duration": 240, "velocity": 110}, {"time": 59278, "pitch": 74, "duration": 130, "velocity": 100}, {"time": 59288, "pitch": 81, "duration": 110, "velocity": 110}, {"time": 59398, "pitch": 81, "duration": 129, "velocity": 100}, {"time": 59408, "pitch": 74, "duration": 110, "velocity": 90}, {"time": 59518, "pitch": 74, "duration": 239, "velocity": 100}, {"time": 59527, "pitch": 81, "duration": 240, "velocity": 110}, {"time": 59757, "pitch": 74, "duration": 130, "velocity": 95}, {"time": 59767, "pitch": 81, "duration": 110, "velocity": 105}, {"time": 59877, "pitch": 81, "duration": 130, "velocity": 95}, {"time": 59887, "pitch": 74, "duration": 110, "velocity": 85}, {"time": 59997, "pitch": 74, "duration": 243, "velocity": 95}, {"time": 60007, "pitch": 81, "duration": 243, "velocity": 105}, {"time": 60240, "pitch": 74, "duration": 132, "velocity": 90}, {"time": 60250, "pitch": 81, "duration": 111, "velocity": 100}, {"time": 60361, "pitch": 81, "duration": 132, "velocity": 90}, {"time": 60372, "pitch": 74, "duration": 111, "velocity": 80}, {"time": 89280, "pitch": 74, "duration": 240, "velocity": 90}, {"time": 89290, "pitch": 81, "duration": 240, "velocity": 100}, {"time": 89520, "pitch": 74, "duration": 130, "velocity": 90}, {"time": 89530, "pitch": 81, "duration": 110, "velocity": 100}, {"time": 89640, "pitch": 81, "duration": 130, "velocity": 90}, {"time": 89650, "pitch": 74, "duration": 110, "velocity": 80}, {"time": 89760, "pitch": 74, "duration": 239, "velocity": 100}, {"time": 89770, "pitch": 81, "duration": 239, "velocity": 110}, {"time": 89999, "pitch": 74, "duration": 130, "velocity": 100}, {"time": 90009, "pitch": 81, "duration": 110, "velocity": 110}, {"time": 90119, "pitch": 81, "duration": 130, "velocity": 100}, {"time": 90129, "pitch": 74, "duration": 110, "velocity": 90}, {"time": 90239, "pitch": 74, "duration": 240, "velocity": 100}, {"time": 90249, "pitch": 81, "duration": 240, "velocity": 110}, {"time": 90479, "pitch": 74, "duration": 130, "velocity": 95}, {"time": 90489, "pitch": 81, "duration": 110, "velocity": 105}, {"time": 90599, "pitch": 81, "duration": 130, "velocity": 95}, {"time": 90609, "pitch": 74, "duration": 110, "velocity": 85}, {"time": 90719, "pitch": 74, "duration": 240, "velocity": 95}, {"time": 90729, "pitch": 81, "duration": 240, "velocity": 105}, {"time": 90959, "pitch": 74, "duration": 130, "velocity": 90}, {"time": 90969, "pitch": 81, "duration": 110, "velocity": 100}, {"time": 91079, "pitch": 81, "duration": 130, "velocity": 90}, {"time": 91089, "pitch": 74, "duration": 110, "velocity": 80}, {"time": 91199, "pitch": 72, "duration": 239, "velocity": 90}, {"time": 91209, "pitch": 79, "duration": 239, "velocity": 100}, {"time": 91438, "pitch": 72, "duration": 130, "velocity": 90}, {"time": 91448, "pitch": 79, "duration": 110, "velocity": 100}, {"time": 91558, "pitch": 79, "duration": 130, "velocity": 90}, {"time": 91568, "pitch": 72, "duration": 110, "velocity": 80}, {"time": 91678, "pitch": 72, "duration": 240, "velocity": 80}, {"time": 91688, "pitch": 79, "duration": 240, "velocity": 90}, {"time": 91918, "pitch": 72, "duration": 130, "velocity": 90}, {"time": 91928, "pitch": 79, "duration": 110, "velocity": 100}, {"time": 92038, "pitch": 79, "duration": 130, "velocity": 90}, {"time": 92048, "pitch": 72, "duration": 110, "velocity": 80}, {"time": 92158, "pitch": 72, "duration": 240, "velocity": 85}, {"time": 92168, "pitch": 79, "duration": 240, "velocity": 95}, {"time": 92398, "pitch": 72, "duration": 130, "velocity": 85}, {"time": 92408, "pitch": 79, "duration": 110, "velocity": 95}, {"time": 92518, "pitch": 79, "duration": 130, "velocity": 85}, {"time": 92528, "pitch": 72, "duration": 110, "velocity": 75}, {"time": 92638, "pitch": 72, "duration": 239, "velocity": 90}, {"time": 92648, "pitch": 79, "duration": 239, "velocity": 100}, {"time": 92877, "pitch": 72, "duration": 130, "velocity": 90}, {"time": 92887, "pitch": 79, "duration": 110, "velocity": 100}, {"time": 92997, "pitch": 79, "duration": 130, "velocity": 90}, {"time": 93007, "pitch": 72, "duration": 110, "velocity": 80}, {"time": 93117, "pitch": 74, "duration": 243, "velocity": 90}, {"time": 93127, "pitch": 81, "duration": 243, "velocity": 100}, {"time": 93360, "pitch": 74, "duration": 132, "velocity": 90}, {"time": 93370, "pitch": 81, "duration": 111, "velocity": 100}, {"time": 93481, "pitch": 81, "duration": 132, "velocity": 90}, {"time": 93492, "pitch": 74, "duration": 111, "velocity": 80}, {"time": 93603, "pitch": 74, "duration": 240, "velocity": 100}, {"time": 93613, "pitch": 81, "duration": 240, "velocity": 110}, {"time": 93843, "pitch": 74, "duration": 130, "velocity": 100}, {"time": 93853, "pitch": 81, "duration": 110, "velocity": 110}, {"time": 93963, "pitch": 81, "duration": 130, "velocity": 100}, {"time": 93973, "pitch": 74, "duration": 110, "velocity": 90}, {"time": 94083, "pitch": 74, "duration": 239, "velocity": 100}, {"time": 94093, "pitch": 81, "duration": 239, "velocity": 110}, {"time": 94322, "pitch": 74, "duration": 130, "velocity": 95}, {"time": 94332, "pitch": 81, "duration": 110, "velocity": 105}, {"time": 94442, "pitch": 81, "duration": 130, "velocity": 95}, {"time": 94452, "pitch": 74, "duration": 110, "velocity": 85}, {"time": 94562, "pitch": 74, "duration": 240, "velocity": 95}, {"time": 94572, "pitch": 81, "duration": 240, "velocity": 105}, {"time": 94802, "pitch": 74, "duration": 130, "velocity": 90}, {"time": 94812, "pitch": 81, "duration": 110, "velocity": 100}, {"time": 94922, "pitch": 81, "duration": 130, "velocity": 90}, {"time": 94932, "pitch": 74, "duration": 110, "velocity": 80}, {"time": 95042, "pitch": 72, "duration": 240, "velocity": 90}, {"time": 95052, "pitch": 79, "duration": 240, "velocity": 100}, {"time": 95282, "pitch": 72, "duration": 130, "velocity": 90}, {"time": 95292, "pitch": 79, "duration": 110, "velocity": 100}, {"time": 95402, "pitch": 79, "duration": 129, "velocity": 90}, {"time": 95412, "pitch": 72, "duration": 109, "velocity": 80}, {"time": 95521, "pitch": 72, "duration": 240, "velocity": 80}, {"time": 95531, "pitch": 79, "duration": 240, "velocity": 90}, {"time": 95761, "pitch": 72, "duration": 130, "velocity": 90}, {"time": 95771, "pitch": 79, "duration": 110, "velocity": 100}, {"time": 95881, "pitch": 79, "duration": 130, "velocity": 90}, {"time": 95891, "pitch": 72, "duration": 110, "velocity": 80}, {"time": 96001, "pitch": 72, "duration": 240, "velocity": 85}, {"time": 96011, "pitch": 79, "duration": 240, "velocity": 95}, {"time": 96241, "pitch": 72, "duration": 130, "velocity": 85}, {"time": 96251, "pitch": 79, "duration": 110, "velocity": 95}, {"time": 96361, "pitch": 79, "duration": 130, "velocity": 85}, {"time": 96371, "pitch": 72, "duration": 110, "velocity": 75}, {"time": 96481, "pitch": 72, "duration": 240, "velocity": 90}, {"time": 96491, "pitch": 79, "duration": 240, "velocity": 100}, {"time": 96721, "pitch": 72, "duration": 130, "velocity": 90}, {"time": 96731, "pitch": 79, "duration": 110, "velocity": 100}, {"time": 96841, "pitch": 79, "duration": 129, "velocity": 90}, {"time": 96851, "pitch": 72, "duration": 109, "velocity": 80}, {"time": 96960, "pitch": 74, "duration": 240, "velocity": 90}, {"time": 96970, "pitch": 81, "duration": 240, "velocity": 100}, {"time": 97200, "pitch": 74, "duration": 130, "velocity": 90}, {"time": 97210, "pitch": 81, "duration": 110, "velocity": 100}, {"time": 97320, "pitch": 81, "duration": 130, "velocity": 90}, {"time": 97330, "pitch": 74, "duration": 110, "velocity": 80}, {"time": 97440, "pitch": 74, "duration": 240, "velocity": 100}, {"time": 97450, "pitch": 81, "duration": 240, "velocity": 110}, {"time": 97680, "pitch": 74, "duration": 130, "velocity": 100}, {"time": 97690, "pitch": 81, "duration": 110, "velocity": 110}, {"time": 97800, "pitch": 81, "duration": 130, "velocity": 100}, {"time": 97810, "pitch": 74, "duration": 110, "velocity": 90}, {"time": 97920, "pitch": 74, "duration": 240, "velocity": 100}, {"time": 97930, "pitch": 81, "duration": 240, "velocity": 110}, {"time": 98160, "pitch": 74, "duration": 129, "velocity": 95}, {"time": 98170, "pitch": 81, "duration": 109, "velocity": 105}, {"time": 98279, "pitch": 81, "duration": 130, "velocity": 95}, {"time": 98289, "pitch": 74, "duration": 110, "velocity": 85}, {"time": 98399, "pitch": 74, "duration": 240, "velocity": 95}, {"time": 98409, "pitch": 81, "duration": 240, "velocity": 105}, {"time": 98639, "pitch": 74, "duration": 130, "velocity": 90}, {"time": 98649, "pitch": 81, "duration": 110, "velocity": 100}, {"time": 98759, "pitch": 81, "duration": 130, "velocity": 90}, {"time": 98769, "pitch": 74, "duration": 110, "velocity": 80}, {"time": 98879, "pitch": 72, "duration": 240, "velocity": 90}, {"time": 98889, "pitch": 79, "duration": 240, "velocity": 100}, {"time": 99119, "pitch": 72, "duration": 130, "velocity": 90}, {"time": 99129, "pitch": 79, "duration": 110, "velocity": 100}, {"time": 99239, "pitch": 79, "duration": 130, "velocity": 90}, {"time": 99249, "pitch": 72, "duration": 110, "velocity": 80}, {"time": 99359, "pitch": 72, "duration": 240, "velocity": 80}, {"time": 99369, "pitch": 79, "duration": 239, "velocity": 90}, {"time": 99599, "pitch": 72, "duration": 129, "velocity": 90}, {"time": 99608, "pitch": 79, "duration": 110, "velocity": 100}, {"time": 99718, "pitch": 79, "duration": 130, "velocity": 90}, {"time": 99728, "pitch": 72, "duration": 110, "velocity": 80}, {"time": 99838, "pitch": 72, "duration": 240, "velocity": 85}, {"time": 99848, "pitch": 79, "duration": 240, "velocity": 95}, {"time": 100078, "pitch": 72, "duration": 130, "velocity": 85}, {"time": 100088, "pitch": 79, "duration": 110, "velocity": 95}, {"time": 100198, "pitch": 79, "duration": 130, "velocity": 85}, {"time": 100208, "pitch": 72, "duration": 110, "velocity": 75}, {"time": 100318, "pitch": 72, "duration": 240, "velocity": 90}, {"time": 100328, "pitch": 79, "duration": 240, "velocity": 100}, {"time": 100558, "pitch": 72, "duration": 130, "velocity": 90}, {"time": 100568, "pitch": 79, "duration": 110, "velocity": 100}, {"time": 100678, "pitch": 79, "duration": 130, "velocity": 90}, {"time": 100688, "pitch": 72, "duration": 110, "velocity": 80}, {"time": 100798, "pitch": 74, "duration": 239, "velocity": 90}, {"time": 100808, "pitch": 81, "duration": 239, "velocity": 100}, {"time": 101037, "pitch": 74, "duration": 130, "velocity": 90}, {"time": 101047, "pitch": 81, "duration": 110, "velocity": 100}, {"time": 101157, "pitch": 81, "duration": 130, "velocity": 90}, {"time": 101167, "pitch": 74, "duration": 110, "velocity": 80}, {"time": 101277, "pitch": 74, "duration": 243, "velocity": 100}, {"time": 101287, "pitch": 81, "duration": 243, "velocity": 110}, {"time": 101520, "pitch": 74, "duration": 132, "velocity": 100}, {"time": 101530, "pitch": 81, "duration": 112, "velocity": 110}, {"time": 101642, "pitch": 81, "duration": 131, "velocity": 100}, {"time": 101652, "pitch": 74, "duration": 111, "velocity": 90}, {"time": 101763, "pitch": 74, "duration": 240, "velocity": 100}, {"time": 101773, "pitch": 81, "duration": 240, "velocity": 110}, {"time": 102003, "pitch": 74, "duration": 130, "velocity": 95}, {"time": 102013, "pitch": 81, "duration": 110, "velocity": 105}, {"time": 102123, "pitch": 81, "duration": 130, "velocity": 95}, {"time": 102133, "pitch": 74, "duration": 110, "velocity": 85}, {"time": 102243, "pitch": 74, "duration": 239, "velocity": 95}, {"time": 102253, "pitch": 81, "duration": 239, "velocity": 105}, {"time": 102482, "pitch": 74, "duration": 130, "velocity": 90}, {"time": 102492, "pitch": 81, "duration": 110, "velocity": 100}, {"time": 102602, "pitch": 81, "duration": 130, "velocity": 90}, {"time": 102612, "pitch": 74, "duration": 110, "velocity": 80}, {"time": 102722, "pitch": 74, "duration": 240, "velocity": 90}, {"time": 102732, "pitch": 81, "duration": 240, "velocity": 100}, {"time": 102962, "pitch": 74, "duration": 130, "velocity": 90}, {"time": 102972, "pitch": 81, "duration": 110, "velocity": 100}, {"time": 103082, "pitch": 81, "duration": 130, "velocity": 90}, {"time": 103092, "pitch": 74, "duration": 110, "velocity": 80}, {"time": 103202, "pitch": 74, "duration": 240, "velocity": 100}, {"time": 103212, "pitch": 81, "duration": 240, "velocity": 110}, {"time": 103442, "pitch": 74, "duration": 130, "velocity": 100}, {"time": 103452, "pitch": 81, "duration": 110, "velocity": 110}, {"time": 103562, "pitch": 81, "duration": 130, "velocity": 100}, {"time": 103572, "pitch": 74, "duration": 110, "velocity": 90}, {"time": 103682, "pitch": 74, "duration": 239, "velocity": 100}, {"time": 103692, "pitch": 81, "duration": 239, "velocity": 110}, {"time": 103921, "pitch": 74, "duration": 130, "velocity": 95}, {"time": 103931, "pitch": 81, "duration": 110, "velocity": 105}, {"time": 104041, "pitch": 81, "duration": 130, "velocity": 95}, {"time": 104051, "pitch": 74, "duration": 110, "velocity": 85}, {"time": 104161, "pitch": 74, "duration": 240, "velocity": 95}, {"time": 104171, "pitch": 81, "duration": 240, "velocity": 105}, {"time": 104401, "pitch": 74, "duration": 130, "velocity": 90}, {"time": 104411, "pitch": 81, "duration": 110, "velocity": 100}, {"time": 104521, "pitch": 81, "duration": 130, "velocity": 90}, {"time": 104531, "pitch": 74, "duration": 110, "velocity": 80}, {"time": 104641, "pitch": 74, "duration": 240, "velocity": 90}, {"time": 104651, "pitch": 81, "duration": 240, "velocity": 100}, {"time": 104881, "pitch": 74, "duration": 130, "velocity": 90}, {"time": 104891, "pitch": 81, "duration": 110, "velocity": 100}, {"time": 105001, "pitch": 81, "duration": 130, "velocity": 90}, {"time": 105011, "pitch": 74, "duration": 110, "velocity": 80}, {"time": 105121, "pitch": 74, "duration": 239, "velocity": 100}, {"time": 105131, "pitch": 81, "duration": 239, "velocity": 110}, {"time": 105360, "pitch": 74, "duration": 130, "velocity": 100}, {"time": 105370, "pitch": 81, "duration": 110, "velocity": 110}, {"time": 105480, "pitch": 81, "duration": 130, "velocity": 100}, {"time": 105490, "pitch": 74, "duration": 110, "velocity": 90}, {"time": 105600, "pitch": 74, "duration": 240, "velocity": 100}, {"time": 105610, "pitch": 81, "duration": 240, "velocity": 110}, {"time": 105840, "pitch": 74, "duration": 130, "velocity": 95}, {"time": 105850, "pitch": 81, "duration": 110, "velocity": 105}, {"time": 105960, "pitch": 81, "duration": 130, "velocity": 95}, {"time": 105970, "pitch": 74, "duration": 110, "velocity": 85}, {"time": 106080, "pitch": 74, "duration": 240, "velocity": 95}, {"time": 106090, "pitch": 81, "duration": 240, "velocity": 105}, {"time": 106320, "pitch": 74, "duration": 130, "velocity": 90}, {"time": 106330, "pitch": 81, "duration": 110, "velocity": 100}, {"time": 106440, "pitch": 81, "duration": 129, "velocity": 90}, {"time": 106450, "pitch": 74, "duration": 109, "velocity": 80}, {"time": 106559, "pitch": 74, "duration": 240, "velocity": 90}, {"time": 106569, "pitch": 81, "duration": 240, "velocity": 100}, {"time": 106799, "pitch": 74, "duration": 130, "velocity": 90}, {"time": 106809, "pitch": 81, "duration": 110, "velocity": 100}, {"time": 106919, "pitch": 81, "duration": 130, "velocity": 90}, {"time": 106929, "pitch": 74, "duration": 110, "velocity": 80}, {"time": 107039, "pitch": 74, "duration": 240, "velocity": 100}, {"time": 107049, "pitch": 81, "duration": 240, "velocity": 110}, {"time": 107279, "pitch": 74, "duration": 130, "velocity": 100}, {"time": 107289, "pitch": 81, "duration": 110, "velocity": 110}, {"time": 107399, "pitch": 81, "duration": 130, "velocity": 100}, {"time": 107409, "pitch": 74, "duration": 110, "velocity": 90}, {"time": 107519, "pitch": 74, "duration": 240, "velocity": 100}, {"time": 107529, "pitch": 81, "duration": 240, "velocity": 110}, {"time": 107759, "pitch": 74, "duration": 130, "velocity": 95}, {"time": 107769, "pitch": 81, "duration": 110, "velocity": 105}, {"time": 107879, "pitch": 81, "duration": 129, "velocity": 95}, {"time": 107889, "pitch": 74, "duration": 109, "velocity": 85}, {"time": 107998, "pitch": 74, "duration": 240, "velocity": 95}, {"time": 108008, "pitch": 81, "duration": 240, "velocity": 105}, {"time": 108238, "pitch": 74, "duration": 130, "velocity": 90}, {"time": 108248, "pitch": 81, "duration": 110, "velocity": 100}, {"time": 108358, "pitch": 81, "duration": 130, "velocity": 90}, {"time": 108368, "pitch": 74, "duration": 110, "velocity": 80}, {"time": 137281, "pitch": 74, "duration": 240, "velocity": 90}, {"time": 137291, "pitch": 81, "duration": 240, "velocity": 100}, {"time": 137521, "pitch": 74, "duration": 130, "velocity": 90}, {"time": 137531, "pitch": 81, "duration": 110, "velocity": 100}, {"time": 137641, "pitch": 81, "duration": 130, "velocity": 90}, {"time": 137651, "pitch": 74, "duration": 110, "velocity": 80}, {"time": 137761, "pitch": 74, "duration": 240, "velocity": 100}, {"time": 137771, "pitch": 81, "duration": 240, "velocity": 110}, {"time": 138001, "pitch": 74, "duration": 130, "velocity": 100}, {"time": 138011, "pitch": 81, "duration": 110, "velocity": 110}, {"time": 138121, "pitch": 81, "duration": 130, "velocity": 100}, {"time": 138131, "pitch": 74, "duration": 110, "velocity": 90}, {"time": 138241, "pitch": 74, "duration": 239, "velocity": 100}, {"time": 138251, "pitch": 81, "duration": 239, "velocity": 110}, {"time": 138480, "pitch": 74, "duration": 130, "velocity": 95}, {"time": 138490, "pitch": 81, "duration": 110, "velocity": 105}, {"time": 138600, "pitch": 81, "duration": 130, "velocity": 95}, {"time": 138610, "pitch": 74, "duration": 110, "velocity": 85}, {"time": 138720, "pitch": 74, "duration": 240, "velocity": 95}, {"time": 138730, "pitch": 81, "duration": 240, "velocity": 105}, {"time": 138960, "pitch": 74, "duration": 130, "velocity": 90}, {"time": 138970, "pitch": 81, "duration": 110, "velocity": 100}, {"time": 139080, "pitch": 81, "duration": 130, "velocity": 90}, {"time": 139090, "pitch": 74, "duration": 110, "velocity": 80}, {"time": 139200, "pitch": 72, "duration": 240, "velocity": 90}, {"time": 139210, "pitch": 79, "duration": 240, "velocity": 100}, {"time": 139440, "pitch": 72, "duration": 130, "velocity": 90}, {"time": 139450, "pitch": 79, "duration": 110, "velocity": 100}, {"time": 139560, "pitch": 79, "duration": 130, "velocity": 90}, {"time": 139570, "pitch": 72, "duration": 110, "velocity": 80}, {"time": 139680, "pitch": 72, "duration": 239, "velocity": 80}, {"time": 139690, "pitch": 79, "duration": 239, "velocity": 90}, {"time": 139919, "pitch": 72, "duration": 130, "velocity": 90}, {"time": 139929, "pitch": 79, "duration": 110, "velocity": 100}, {"time": 140039, "pitch": 79, "duration": 130, "velocity": 90}, {"time": 140049, "pitch": 72, "duration": 110, "velocity": 80}, {"time": 140159, "pitch": 72, "duration": 240, "velocity": 85}, {"time": 140169, "pitch": 79, "duration": 240, "velocity": 95}, {"time": 140399, "pitch": 72, "duration": 130, "velocity": 85}, {"time": 140409, "pitch": 79, "duration": 110, "velocity": 95}, {"time": 140519, "pitch": 79, "duration": 130, "velocity": 85}, {"time": 140529, "pitch": 72, "duration": 110, "velocity": 75}, {"time": 140639, "pitch": 72, "duration": 240, "velocity": 90}, {"time": 140649, "pitch": 79, "duration": 240, "velocity": 100}, {"time": 140879, "pitch": 72, "duration": 130, "velocity": 90}, {"time": 140889, "pitch": 79, "duration": 110, "velocity": 100}, {"time": 140999, "pitch": 79, "duration": 129, "velocity": 90}, {"time": 141009, "pitch": 72, "duration": 109, "velocity": 80}, {"time": 141118, "pitch": 74, "duration": 240, "velocity": 90}, {"time": 141128, "pitch": 81, "duration": 240, "velocity": 100}, {"time": 141358, "pitch": 74, "duration": 130, "velocity": 90}, {"time": 141368, "pitch": 81, "duration": 110, "velocity": 100}, {"time": 141478, "pitch": 81, "duration": 130, "velocity": 90}, {"time": 141488, "pitch": 74, "duration": 110, "velocity": 80}, {"time": 141598, "pitch": 74, "duration": 240, "velocity": 100}, {"time": 141608, "pitch": 81, "duration": 240, "velocity": 110}, {"time": 141838, "pitch": 74, "duration": 130, "velocity": 100}, {"time": 141848, "pitch": 81, "duration": 110, "velocity": 110}, {"time": 141958, "pitch": 81, "duration": 130, "velocity": 100}, {"time": 141968, "pitch": 74, "duration": 110, "velocity": 90}, {"time": 142078, "pitch": 74, "duration": 240, "velocity": 100}, {"time": 142088, "pitch": 81, "duration": 240, "velocity": 110}, {"time": 142318, "pitch": 74, "duration": 129, "velocity": 95}, {"time": 142328, "pitch": 81, "duration": 109, "velocity": 105}, {"time": 142437, "pitch": 81, "duration": 130, "velocity": 95}, {"time": 142447, "pitch": 74, "duration": 110, "velocity": 85}, {"time": 142557, "pitch": 74, "duration": 240, "velocity": 95}, {"time": 142567, "pitch": 81, "duration": 240, "velocity": 105}, {"time": 142797, "pitch": 74, "duration": 130, "velocity": 90}, {"time": 142807, "pitch": 81, "duration": 110, "velocity": 100}, {"time": 142917, "pitch": 81, "duration": 130, "velocity": 90}, {"time": 142927, "pitch": 74, "duration": 110, "velocity": 80}, {"time": 143037, "pitch": 72, "duration": 243, "velocity": 90}, {"time": 143047, "pitch": 79, "duration": 243, "velocity": 100}, {"time": 143280, "pitch": 72, "duration": 131, "velocity": 90}, {"time": 143290, "pitch": 79, "duration": 111, "velocity": 100}, {"time": 143401, "pitch": 79, "duration": 132, "velocity": 90}, {"time": 143411, "pitch": 72, "duration": 112, "velocity": 80}, {"time": 143523, "pitch": 72, "duration": 240, "velocity": 80}, {"time": 143533, "pitch": 79, "duration": 240, "velocity": 90}, {"time": 143763, "pitch": 72, "duration": 130, "velocity": 90}, {"time": 143773, "pitch": 79, "duration": 110, "velocity": 100}, {"time": 143883, "pitch": 79, "duration": 129, "velocity": 90}, {"time": 143893, "pitch": 72, "duration": 109, "velocity": 80}, {"time": 144002, "pitch": 72, "duration": 240, "velocity": 85}, {"time": 144012, "pitch": 79, "duration": 240, "velocity": 95}, {"time": 144242, "pitch": 72, "duration": 130, "velocity": 85}, {"time": 144252, "pitch": 79, "duration": 110, "velocity": 95}, {"time": 144362, "pitch": 79, "duration": 130, "velocity": 85}, {"time": 144372, "pitch": 72, "duration": 110, "velocity": 75}, {"time": 144482, "pitch": 72, "duration": 240, "velocity": 90}, {"time": 144492, "pitch": 79, "duration": 240, "velocity": 100}, {"time": 144722, "pitch": 72, "duration": 130, "velocity": 90}, {"time": 144732, "pitch": 79, "duration": 110, "velocity": 100}, {"time": 144842, "pitch": 79, "duration": 130, "velocity": 90}, {"time": 144852, "pitch": 72, "duration": 110, "velocity": 80}, {"time": 144962, "pitch": 74, "duration": 240, "velocity": 90}, {"time": 144972, "pitch": 81, "duration": 240, "velocity": 100}, {"time": 145202, "pitch": 74, "duration": 129, "velocity": 90}, {"time": 145212, "pitch": 81, "duration": 109, "velocity": 100}, {"time": 145321, "pitch": 81, "duration": 130, "velocity": 90}, {"time": 145331, "pitch": 74, "duration": 110, "velocity": 80}, {"time": 145441, "pitch": 74, "duration": 240, "velocity": 100}, {"time": 145451, "pitch": 81, "duration": 240, "velocity": 110}, {"time": 145681, "pitch": 74, "duration": 130, "velocity": 100}, {"time": 145691, "pitch": 81, "duration": 110, "velocity": 110}, {"time": 145801, "pitch": 81, "duration": 130, "velocity": 100}, {"time": 145811, "pitch": 74, "duration": 110, "velocity": 90}, {"time": 145921, "pitch": 74, "duration": 240, "velocity": 100}, {"time": 145931, "pitch": 81, "duration": 240, "velocity": 110}, {"time": 146161, "pitch": 74, "duration": 130, "velocity": 95}, {"time": 146171, "pitch": 81, "duration": 110, "velocity": 105}, {"time": 146281, "pitch": 81, "duration": 130, "velocity": 95}, {"time": 146291, "pitch": 74, "duration": 110, "velocity": 85}, {"time": 146401, "pitch": 74, "duration": 239, "velocity": 95}, {"time": 146411, "pitch": 81, "duration": 239, "velocity": 105}, {"time": 146640, "pitch": 74, "duration": 130, "velocity": 90}, {"time": 146650, "pitch": 81, "duration": 110, "velocity": 100}, {"time": 146760, "pitch": 81, "duration": 130, "velocity": 90}, {"time": 146770, "pitch": 74, "duration": 110, "velocity": 80}, {"time": 146880, "pitch": 72, "duration": 240, "velocity": 90}, {"time": 146890, "pitch": 79, "duration": 240, "velocity": 100}, {"time": 147120, "pitch": 72, "duration": 130, "velocity": 90}, {"time": 147130, "pitch": 79, "duration": 110, "velocity": 100}, {"time": 147240, "pitch": 79, "duration": 130, "velocity": 90}, {"time": 147250, "pitch": 72, "duration": 110, "velocity": 80}, {"time": 147360, "pitch": 72, "duration": 240, "velocity": 80}, {"time": 147370, "pitch": 79, "duration": 240, "velocity": 90}, {"time": 147600, "pitch": 72, "duration": 130, "velocity": 90}, {"time": 147610, "pitch": 79, "duration": 110, "velocity": 100}, {"time": 147720, "pitch": 79, "duration": 130, "velocity": 90}, {"time": 147730, "pitch": 72, "duration": 110, "velocity": 80}, {"time": 147840, "pitch": 72, "duration": 239, "velocity": 85}, {"time": 147850, "pitch": 79, "duration": 239, "velocity": 95}, {"time": 148079, "pitch": 72, "duration": 130, "velocity": 85}, {"time": 148089, "pitch": 79, "duration": 110, "velocity": 95}, {"time": 148199, "pitch": 79, "duration": 130, "velocity": 85}, {"time": 148209, "pitch": 72, "duration": 110, "velocity": 75}, {"time": 148319, "pitch": 72, "duration": 240, "velocity": 90}, {"time": 148329, "pitch": 79, "duration": 240, "velocity": 100}, {"time": 148559, "pitch": 72, "duration": 130, "velocity": 90}, {"time": 148569, "pitch": 79, "duration": 110, "velocity": 100}, {"time": 148679, "pitch": 79, "duration": 130, "velocity": 90}, {"time": 148689, "pitch": 72, "duration": 110, "velocity": 80}, {"time": 148799, "pitch": 74, "duration": 240, "velocity": 90}, {"time": 148809, "pitch": 81, "duration": 240, "velocity": 100}, {"time": 149039, "pitch": 74, "duration": 130, "velocity": 90}, {"time": 149049, "pitch": 81, "duration": 110, "velocity": 100}, {"time": 149159, "pitch": 81, "duration": 130, "velocity": 90}, {"time": 149169, "pitch": 74, "duration": 110, "velocity": 80}, {"time": 149279, "pitch": 74, "duration": 239, "velocity": 100}, {"time": 149289, "pitch": 81, "duration": 239, "velocity": 110}, {"time": 149518, "pitch": 74, "duration": 130, "velocity": 100}, {"time": 149528, "pitch": 81, "duration": 110, "velocity": 110}, {"time": 149638, "pitch": 81, "duration": 130, "velocity": 100}, {"time": 149648, "pitch": 74, "duration": 110, "velocity": 90}, {"time": 149758, "pitch": 74, "duration": 240, "velocity": 100}, {"time": 149768, "pitch": 81, "duration": 240, "velocity": 110}, {"time": 149998, "pitch": 74, "duration": 130, "velocity": 95}, {"time": 150008, "pitch": 81, "duration": 110, "velocity": 105}, {"time": 150118, "pitch": 81, "duration": 130, "velocity": 95}, {"time": 150128, "pitch": 74, "duration": 110, "velocity": 85}, {"time": 150238, "pitch": 74, "duration": 240, "velocity": 95}, {"time": 150248, "pitch": 81, "duration": 240, "velocity": 105}, {"time": 150478, "pitch": 74, "duration": 130, "velocity": 90}, {"time": 150488, "pitch": 81, "duration": 110, "velocity": 100}, {"time": 150598, "pitch": 81, "duration": 129, "velocity": 90}, {"time": 150608, "pitch": 74, "duration": 109, "velocity": 80}, {"time": 150717, "pitch": 74, "duration": 240, "velocity": 90}, {"time": 150727, "pitch": 81, "duration": 240, "velocity": 100}, {"time": 150957, "pitch": 74, "duration": 130, "velocity": 90}, {"time": 150967, "pitch": 81, "duration": 110, "velocity": 100}, {"time": 151077, "pitch": 81, "duration": 130, "velocity": 90}, {"time": 151087, "pitch": 74, "duration": 110, "velocity": 80}, {"time": 151197, "pitch": 74, "duration": 243, "velocity": 100}, {"time": 151207, "pitch": 81, "duration": 243, "velocity": 110}, {"time": 151440, "pitch": 74, "duration": 132, "velocity": 100}, {"time": 151450, "pitch": 81, "duration": 111, "velocity": 110}, {"time": 151561, "pitch": 81, "duration": 132, "velocity": 100}, {"time": 151572, "pitch": 74, "duration": 111, "velocity": 90}, {"time": 151683, "pitch": 74, "duration": 240, "velocity": 100}, {"time": 151693, "pitch": 81, "duration": 240, "velocity": 110}, {"time": 151923, "pitch": 74, "duration": 130, "velocity": 95}, {"time": 151933, "pitch": 81, "duration": 110, "velocity": 105}, {"time": 152043, "pitch": 81, "duration": 130, "velocity": 95}, {"time": 152053, "pitch": 74, "duration": 110, "velocity": 85}, {"time": 152163, "pitch": 74, "duration": 239, "velocity": 95}, {"time": 152173, "pitch": 81, "duration": 239, "velocity": 105}, {"time": 152402, "pitch": 74, "duration": 130, "velocity": 90}, {"time": 152412, "pitch": 81, "duration": 110, "velocity": 100}, {"time": 152522, "pitch": 81, "duration": 130, "velocity": 90}, {"time": 152532, "pitch": 74, "duration": 110, "velocity": 80}, {"time": 152642, "pitch": 74, "duration": 240, "velocity": 90}, {"time": 152652, "pitch": 81, "duration": 240, "velocity": 100}, {"time": 152882, "pitch": 74, "duration": 130, "velocity": 90}, {"time": 152892, "pitch": 81, "duration": 110, "velocity": 100}, {"time": 153002, "pitch": 81, "duration": 130, "velocity": 90}, {"time": 153012, "pitch": 74, "duration": 110, "velocity": 80}, {"time": 153122, "pitch": 74, "duration": 240, "velocity": 100}, {"time": 153132, "pitch": 81, "duration": 240, "velocity": 110}, {"time": 153362, "pitch": 74, "duration": 130, "velocity": 100}, {"time": 153372, "pitch": 81, "duration": 110, "velocity": 110}, {"time": 153482, "pitch": 81, "duration": 129, "velocity": 100}, {"time": 153492, "pitch": 74, "duration": 109, "velocity": 90}, {"time": 153601, "pitch": 74, "duration": 240, "velocity": 100}, {"time": 153611, "pitch": 81, "duration": 240, "velocity": 110}, {"time": 153841, "pitch": 74, "duration": 130, "velocity": 95}, {"time": 153851, "pitch": 81, "duration": 110, "velocity": 105}, {"time": 153961, "pitch": 81, "duration": 130, "velocity": 95}, {"time": 153971, "pitch": 74, "duration": 110, "velocity": 85}, {"time": 154081, "pitch": 74, "duration": 240, "velocity": 95}, {"time": 154091, "pitch": 81, "duration": 240, "velocity": 105}, {"time": 154321, "pitch": 74, "duration": 130, "velocity": 90}, {"time": 154331, "pitch": 81, "duration": 110, "velocity": 100}, {"time": 154441, "pitch": 81, "duration": 130, "velocity": 90}, {"time": 154451, "pitch": 74, "duration": 110, "velocity": 80}, {"time": 154561, "pitch": 74, "duration": 240, "velocity": 90}, {"time": 154571, "pitch": 81, "duration": 240, "velocity": 100}, {"time": 154801, "pitch": 74, "duration": 129, "velocity": 90}, {"time": 154811, "pitch": 81, "duration": 109, "velocity": 100}, {"time": 154920, "pitch": 81, "duration": 130, "velocity": 90}, {"time": 154930, "pitch": 74, "duration": 110, "velocity": 80}, {"time": 155040, "pitch": 74, "duration": 240, "velocity": 100}, {"time": 155050, "pitch": 81, "duration": 240, "velocity": 110}, {"time": 155280, "pitch": 74, "duration": 130, "velocity": 100}, {"time": 155290, "pitch": 81, "duration": 110, "velocity": 110}, {"time": 155400, "pitch": 81, "duration": 130, "velocity": 100}, {"time": 155410, "pitch": 74, "duration": 110, "velocity": 90}, {"time": 155520, "pitch": 74, "duration": 240, "velocity": 100}, {"time": 155530, "pitch": 81, "duration": 240, "velocity": 110}, {"time": 155760, "pitch": 74, "duration": 130, "velocity": 95}, {"time": 155770, "pitch": 81, "duration": 110, "velocity": 105}, {"time": 155880, "pitch": 81, "duration": 130, "velocity": 95}, {"time": 155890, "pitch": 74, "duration": 110, "velocity": 85}, {"time": 156000, "pitch": 74, "duration": 240, "velocity": 95}, {"time": 156010, "pitch": 81, "duration": 240, "velocity": 105}, {"time": 156240, "pitch": 74, "duration": 129, "velocity": 90}, {"time": 156250, "pitch": 81, "duration": 109, "velocity": 100}, {"time": 156359, "pitch": 81, "duration": 130, "velocity": 90}, {"time": 156369, "pitch": 74, "duration": 110, "velocity": 80}, {"time": 156479, "pitch": 74, "duration": 240, "velocity": 90}, {"time": 156489, "pitch": 81, "duration": 240, "velocity": 100}, {"time": 156719, "pitch": 74, "duration": 130, "velocity": 90}, {"time": 156729, "pitch": 81, "duration": 110, "velocity": 100}, {"time": 156839, "pitch": 81, "duration": 130, "velocity": 90}, {"time": 156849, "pitch": 74, "duration": 110, "velocity": 80}, {"time": 156959, "pitch": 74, "duration": 240, "velocity": 100}, {"time": 156969, "pitch": 81, "duration": 240, "velocity": 110}, {"time": 157199, "pitch": 74, "duration": 130, "velocity": 100}, {"time": 157209, "pitch": 81, "duration": 110, "velocity": 110}, {"time": 157319, "pitch": 81, "duration": 130, "velocity": 100}, {"time": 157329, "pitch": 74, "duration": 110, "velocity": 90}, {"time": 157439, "pitch": 74, "duration": 239, "velocity": 100}, {"time": 157449, "pitch": 81, "duration": 239, "velocity": 110}, {"time": 157678, "pitch": 74, "duration": 130, "velocity": 95}, {"time": 157688, "pitch": 81, "duration": 110, "velocity": 105}, {"time": 157798, "pitch": 81, "duration": 130, "velocity": 95}, {"time": 157808, "pitch": 74, "duration": 110, "velocity": 85}, {"time": 157918, "pitch": 74, "duration": 240, "velocity": 95}, {"time": 157928, "pitch": 81, "duration": 240, "velocity": 105}, {"time": 158158, "pitch": 74, "duration": 130, "velocity": 90}, {"time": 158168, "pitch": 81, "duration": 110, "velocity": 100}, {"time": 158278, "pitch": 81, "duration": 130, "velocity": 90}, {"time": 158288, "pitch": 74, "duration": 110, "velocity": 80}, {"time": 158398, "pitch": 72, "duration": 240, "velocity": 90}, {"time": 158408, "pitch": 79, "duration": 240, "velocity": 100}, {"time": 158638, "pitch": 72, "duration": 130, "velocity": 90}, {"time": 158648, "pitch": 79, "duration": 110, "velocity": 100}, {"time": 158758, "pitch": 79, "duration": 130, "velocity": 90}, {"time": 158768, "pitch": 72, "duration": 110, "velocity": 80}, {"time": 158878, "pitch": 72, "duration": 239, "velocity": 80}, {"time": 158888, "pitch": 79, "duration": 239, "velocity": 90}, {"time": 159117, "pitch": 72, "duration": 130, "velocity": 90}, {"time": 159127, "pitch": 79, "duration": 110, "velocity": 100}, {"time": 159237, "pitch": 79, "duration": 130, "velocity": 90}, {"time": 159247, "pitch": 72, "duration": 110, "velocity": 80}, {"time": 159357, "pitch": 72, "duration": 243, "velocity": 85}, {"time": 159367, "pitch": 79, "duration": 243, "velocity": 95}, {"time": 159600, "pitch": 72, "duration": 132, "velocity": 85}, {"time": 159610, "pitch": 79, "duration": 112, "velocity": 95}, {"time": 159722, "pitch": 79, "duration": 131, "velocity": 85}, {"time": 159732, "pitch": 72, "duration": 111, "velocity": 75}, {"time": 159843, "pitch": 72, "duration": 240, "velocity": 90}, {"time": 159853, "pitch": 79, "duration": 240, "velocity": 100}, {"time": 160083, "pitch": 72, "duration": 130, "velocity": 90}, {"time": 160093, "pitch": 79, "duration": 110, "velocity": 100}, {"time": 160203, "pitch": 79, "duration": 130, "velocity": 90}, {"time": 160213, "pitch": 72, "duration": 110, "velocity": 80}, {"time": 160323, "pitch": 74, "duration": 239, "velocity": 90}, {"time": 160333, "pitch": 81, "duration": 239, "velocity": 100}, {"time": 160562, "pitch": 74, "duration": 130, "velocity": 90}, {"time": 160572, "pitch": 81, "duration": 110, "velocity": 100}, {"time": 160682, "pitch": 81, "duration": 130, "velocity": 90}, {"time": 160692, "pitch": 74, "duration": 110, "velocity": 80}, {"time": 160802, "pitch": 74, "duration": 240, "velocity": 100}, {"time": 160812, "pitch": 81, "duration": 240, "velocity": 110}, {"time": 161042, "pitch": 74, "duration": 130, "velocity": 100}, {"time": 161052, "pitch": 81, "duration": 110, "velocity": 110}, {"time": 161162, "pitch": 81, "duration": 130, "velocity": 100}, {"time": 161172, "pitch": 74, "duration": 110, "velocity": 90}, {"time": 161282, "pitch": 74, "duration": 240, "velocity": 100}, {"time": 161292, "pitch": 81, "duration": 240, "velocity": 110}, {"time": 161522, "pitch": 74, "duration": 130, "velocity": 95}, {"time": 161532, "pitch": 81, "duration": 110, "velocity": 105}, {"time": 161642, "pitch": 81, "duration": 130, "velocity": 95}, {"time": 161652, "pitch": 74, "duration": 110, "velocity": 85}, {"time": 161762, "pitch": 74, "duration": 239, "velocity": 95}, {"time": 161772, "pitch": 81, "duration": 239, "velocity": 105}, {"time": 162001, "pitch": 74, "duration": 130, "velocity": 90}, {"time": 162011, "pitch": 81, "duration": 110, "velocity": 100}, {"time": 162121, "pitch": 81, "duration": 130, "velocity": 90}, {"time": 162131, "pitch": 74, "duration": 110, "velocity": 80}, {"time": 162241, "pitch": 72, "duration": 240, "velocity": 90}, {"time": 162251, "pitch": 79, "duration": 240, "velocity": 100}, {"time": 162481, "pitch": 72, "duration": 130, "velocity": 90}, {"time": 162491, "pitch": 79, "duration": 110, "velocity": 100}, {"time": 162601, "pitch": 79, "duration": 130, "velocity": 90}, {"time": 162611, "pitch": 72, "duration": 110, "velocity": 80}, {"time": 162721, "pitch": 72, "duration": 240, "velocity": 80}, {"time": 162731, "pitch": 79, "duration": 240, "velocity": 90}, {"time": 162961, "pitch": 72, "duration": 130, "velocity": 90}, {"time": 162971, "pitch": 79, "duration": 110, "velocity": 100}, {"time": 163081, "pitch": 79, "duration": 129, "velocity": 90}, {"time": 163091, "pitch": 72, "duration": 110, "velocity": 80}, {"time": 163201, "pitch": 72, "duration": 239, "velocity": 85}, {"time": 163210, "pitch": 79, "duration": 240, "velocity": 95}, {"time": 163440, "pitch": 72, "duration": 130, "velocity": 85}, {"time": 163450, "pitch": 79, "duration": 110, "velocity": 95}, {"time": 163560, "pitch": 79, "duration": 130, "velocity": 85}, {"time": 163570, "pitch": 72, "duration": 110, "velocity": 75}, {"time": 163680, "pitch": 72, "duration": 240, "velocity": 90}, {"time": 163690, "pitch": 79, "duration": 240, "velocity": 100}, {"time": 163920, "pitch": 72, "duration": 130, "velocity": 90}, {"time": 163930, "pitch": 79, "duration": 110, "velocity": 100}, {"time": 164040, "pitch": 79, "duration": 130, "velocity": 90}, {"time": 164050, "pitch": 72, "duration": 110, "velocity": 80}, {"time": 164160, "pitch": 74, "duration": 240, "velocity": 90}, {"time": 164170, "pitch": 81, "duration": 240, "velocity": 100}, {"time": 164400, "pitch": 74, "duration": 130, "velocity": 90}, {"time": 164410, "pitch": 81, "duration": 110, "velocity": 100}, {"time": 164520, "pitch": 81, "duration": 129, "velocity": 90}, {"time": 164530, "pitch": 74, "duration": 109, "velocity": 80}, {"time": 164639, "pitch": 74, "duration": 240, "velocity": 100}, {"time": 164649, "pitch": 81, "duration": 240, "velocity": 110}, {"time": 164879, "pitch": 74, "duration": 130, "velocity": 100}, {"time": 164889, "pitch": 81, "duration": 110, "velocity": 110}, {"time": 164999, "pitch": 81, "duration": 130, "velocity": 100}, {"time": 165009, "pitch": 74, "duration": 110, "velocity": 90}, {"time": 165119, "pitch": 74, "duration": 240, "velocity": 100}, {"time": 165129, "pitch": 81, "duration": 240, "velocity": 110}, {"time": 165359, "pitch": 74, "duration": 130, "velocity": 95}, {"time": 165369, "pitch": 81, "duration": 110, "velocity": 105}, {"time": 165479, "pitch": 81, "duration": 130, "velocity": 95}, {"time": 165489, "pitch": 74, "duration": 110, "velocity": 85}, {"time": 165599, "pitch": 74, "duration": 240, "velocity": 95}, {"time": 165609, "pitch": 81, "duration": 240, "velocity": 105}, {"time": 165839, "pitch": 74, "duration": 129, "velocity": 90}, {"time": 165849, "pitch": 81, "duration": 109, "velocity": 100}, {"time": 165958, "pitch": 81, "duration": 130, "velocity": 90}, {"time": 165968, "pitch": 74, "duration": 110, "velocity": 80}, {"time": 166078, "pitch": 72, "duration": 240, "velocity": 90}, {"time": 166088, "pitch": 79, "duration": 240, "velocity": 100}, {"time": 166318, "pitch": 72, "duration": 130, "velocity": 90}, {"time": 166328, "pitch": 79, "duration": 110, "velocity": 100}, {"time": 166438, "pitch": 79, "duration": 130, "velocity": 90}, {"time": 166448, "pitch": 72, "duration": 110, "velocity": 80}, {"time": 166558, "pitch": 72, "duration": 240, "velocity": 80}, {"time": 166568, "pitch": 79, "duration": 240, "velocity": 90}, {"time": 166798, "pitch": 72, "duration": 130, "velocity": 90}, {"time": 166808, "pitch": 79, "duration": 110, "velocity": 100}, {"time": 166918, "pitch": 79, "duration": 130, "velocity": 90}, {"time": 166928, "pitch": 72, "duration": 110, "velocity": 80}, {"time": 167038, "pitch": 72, "duration": 240, "velocity": 85}, {"time": 167048, "pitch": 79, "duration": 240, "velocity": 95}, {"time": 167278, "pitch": 72, "duration": 129, "velocity": 85}, {"time": 167288, "pitch": 79, "duration": 109, "velocity": 95}, {"time": 167397, "pitch": 79, "duration": 130, "velocity": 85}, {"time": 167407, "pitch": 72, "duration": 110, "velocity": 75}, {"time": 167517, "pitch": 72, "duration": 240, "velocity": 90}, {"time": 167527, "pitch": 79, "duration": 240, "velocity": 100}, {"time": 167757, "pitch": 72, "duration": 130, "velocity": 90}, {"time": 167767, "pitch": 79, "duration": 110, "velocity": 100}, {"time": 167877, "pitch": 79, "duration": 130, "velocity": 90}, {"time": 167887, "pitch": 72, "duration": 110, "velocity": 80}, {"time": 167997, "pitch": 74, "duration": 243, "velocity": 90}, {"time": 168007, "pitch": 81, "duration": 243, "velocity": 100}, {"time": 168240, "pitch": 74, "duration": 131, "velocity": 90}, {"time": 168250, "pitch": 81, "duration": 111, "velocity": 100}, {"time": 168361, "pitch": 81, "duration": 132, "velocity": 90}, {"time": 168371, "pitch": 74, "duration": 112, "velocity": 80}, {"time": 168483, "pitch": 74, "duration": 240, "velocity": 100}, {"time": 168493, "pitch": 81, "duration": 240, "velocity": 110}, {"time": 168723, "pitch": 74, "duration": 129, "velocity": 100}, {"time": 168733, "pitch": 81, "duration": 109, "velocity": 110}, {"time": 168842, "pitch": 81, "duration": 130, "velocity": 100}, {"time": 168852, "pitch": 74, "duration": 110, "velocity": 90}, {"time": 168962, "pitch": 74, "duration": 240, "velocity": 100}, {"time": 168972, "pitch": 81, "duration": 240, "velocity": 110}, {"time": 169202, "pitch": 74, "duration": 130, "velocity": 95}, {"time": 169212, "pitch": 81, "duration": 110, "velocity": 105}, {"time": 169322, "pitch": 81, "duration": 130, "velocity": 95}, {"time": 169332, "pitch": 74, "duration": 110, "velocity": 85}, {"time": 169442, "pitch": 74, "duration": 240, "velocity": 95}, {"time": 169452, "pitch": 81, "duration": 240, "velocity": 105}, {"time": 169682, "pitch": 74, "duration": 130, "velocity": 90}, {"time": 169692, "pitch": 81, "duration": 110, "velocity": 100}, {"time": 169802, "pitch": 81, "duration": 130, "velocity": 90}, {"time": 169812, "pitch": 74, "duration": 110, "velocity": 80}, {"time": 169922, "pitch": 72, "duration": 239, "velocity": 90}, {"time": 169932, "pitch": 79, "duration": 239, "velocity": 100}, {"time": 170161, "pitch": 72, "duration": 130, "velocity": 90}, {"time": 170171, "pitch": 79, "duration": 110, "velocity": 100}, {"time": 170281, "pitch": 79, "duration": 130, "velocity": 90}, {"time": 170291, "pitch": 72, "duration": 110, "velocity": 80}, {"time": 170401, "pitch": 72, "duration": 240, "velocity": 80}, {"time": 170411, "pitch": 79, "duration": 240, "velocity": 90}, {"time": 170641, "pitch": 72, "duration": 130, "velocity": 90}, {"time": 170651, "pitch": 79, "duration": 110, "velocity": 100}, {"time": 170761, "pitch": 79, "duration": 130, "velocity": 90}, {"time": 170771, "pitch": 72, "duration": 110, "velocity": 80}, {"time": 170881, "pitch": 72, "duration": 240, "velocity": 85}, {"time": 170891, "pitch": 79, "duration": 240, "velocity": 95}, {"time": 171121, "pitch": 72, "duration": 130, "velocity": 85}, {"time": 171131, "pitch": 79, "duration": 110, "velocity": 95}, {"time": 171241, "pitch": 79, "duration": 130, "velocity": 85}, {"time": 171251, "pitch": 72, "duration": 110, "velocity": 75}, {"time": 171361, "pitch": 72, "duration": 239, "velocity": 90}, {"time": 171371, "pitch": 79, "duration": 239, "velocity": 100}, {"time": 171600, "pitch": 72, "duration": 130, "velocity": 90}, {"time": 171610, "pitch": 79, "duration": 110, "velocity": 100}, {"time": 171720, "pitch": 79, "duration": 130, "velocity": 90}, {"time": 171730, "pitch": 72, "duration": 110, "velocity": 80}, {"time": 171840, "pitch": 74, "duration": 240, "velocity": 90}, {"time": 171850, "pitch": 81, "duration": 240, "velocity": 100}, {"time": 172080, "pitch": 74, "duration": 130, "velocity": 90}, {"time": 172090, "pitch": 81, "duration": 110, "velocity": 100}, {"time": 172200, "pitch": 81, "duration": 130, "velocity": 90}, {"time": 172210, "pitch": 74, "duration": 110, "velocity": 80}, {"time": 172320, "pitch": 74, "duration": 240, "velocity": 100}, {"time": 172330, "pitch": 81, "duration": 240, "velocity": 110}, {"time": 172560, "pitch": 74, "duration": 130, "velocity": 100}, {"time": 172570, "pitch": 81, "duration": 110, "velocity": 110}, {"time": 172680, "pitch": 81, "duration": 130, "velocity": 100}, {"time": 172690, "pitch": 74, "duration": 110, "velocity": 90}, {"time": 172800, "pitch": 74, "duration": 239, "velocity": 100}, {"time": 172810, "pitch": 81, "duration": 239, "velocity": 110}, {"time": 173039, "pitch": 74, "duration": 130, "velocity": 95}, {"time": 173049, "pitch": 81, "duration": 110, "velocity": 105}, {"time": 173159, "pitch": 81, "duration": 130, "velocity": 95}, {"time": 173169, "pitch": 74, "duration": 110, "velocity": 85}, {"time": 173279, "pitch": 74, "duration": 240, "velocity": 95}, {"time": 173289, "pitch": 81, "duration": 240, "velocity": 105}, {"time": 173519, "pitch": 74, "duration": 130, "velocity": 90}, {"time": 173529, "pitch": 81, "duration": 110, "velocity": 100}, {"time": 173639, "pitch": 81, "duration": 130, "velocity": 90}, {"time": 173649, "pitch": 74, "duration": 110, "velocity": 80}, {"time": 173759, "pitch": 72, "duration": 240, "velocity": 90}, {"time": 173769, "pitch": 79, "duration": 240, "velocity": 100}, {"time": 173999, "pitch": 72, "duration": 130, "velocity": 90}, {"time": 174009, "pitch": 79, "duration": 110, "velocity": 100}, {"time": 174119, "pitch": 79, "duration": 129, "velocity": 90}, {"time": 174129, "pitch": 72, "duration": 109, "velocity": 80}, {"time": 174238, "pitch": 72, "duration": 240, "velocity": 80}, {"time": 174248, "pitch": 79, "duration": 240, "velocity": 90}, {"time": 174478, "pitch": 72, "duration": 130, "velocity": 90}, {"time": 174488, "pitch": 79, "duration": 110, "velocity": 100}, {"time": 174598, "pitch": 79, "duration": 130, "velocity": 90}, {"time": 174608, "pitch": 72, "duration": 110, "velocity": 80}, {"time": 174718, "pitch": 72, "duration": 240, "velocity": 85}, {"time": 174728, "pitch": 79, "duration": 240, "velocity": 95}, {"time": 174958, "pitch": 72, "duration": 130, "velocity": 85}, {"time": 174968, "pitch": 79, "duration": 110, "velocity": 95}, {"time": 175078, "pitch": 79, "duration": 130, "velocity": 85}, {"time": 175088, "pitch": 72, "duration": 110, "velocity": 75}, {"time": 175198, "pitch": 72, "duration": 240, "velocity": 90}, {"time": 175208, "pitch": 79, "duration": 240, "velocity": 100}, {"time": 175438, "pitch": 72, "duration": 130, "velocity": 90}, {"time": 175448, "pitch": 79, "duration": 110, "velocity": 100}, {"time": 175558, "pitch": 79, "duration": 129, "velocity": 90}, {"time": 175568, "pitch": 72, "duration": 109, "velocity": 80}, {"time": 175677, "pitch": 74, "duration": 240, "velocity": 90}, {"time": 175687, "pitch": 81, "duration": 240, "velocity": 100}, {"time": 175917, "pitch": 74, "duration": 130, "velocity": 90}, {"time": 175927, "pitch": 81, "duration": 110, "velocity": 100}, {"time": 176037, "pitch": 81, "duration": 130, "velocity": 90}, {"time": 176047, "pitch": 74, "duration": 110, "velocity": 80}, {"time": 176157, "pitch": 74, "duration": 243, "velocity": 100}, {"time": 176167, "pitch": 81, "duration": 243, "velocity": 110}, {"time": 176400, "pitch": 74, "duration": 132, "velocity": 100}, {"time": 176410, "pitch": 81, "duration": 111, "velocity": 110}, {"time": 176521, "pitch": 81, "duration": 132, "velocity": 100}, {"time": 176532, "pitch": 74, "duration": 111, "velocity": 90}, {"time": 176643, "pitch": 74, "duration": 240, "velocity": 100}, {"time": 176653, "pitch": 81, "duration": 240, "velocity": 110}, {"time": 176883, "pitch": 74, "duration": 130, "velocity": 95}, {"time": 176893, "pitch": 81, "duration": 110, "velocity": 105}, {"time": 177003, "pitch": 81, "duration": 129, "velocity": 95}, {"time": 177013, "pitch": 74, "duration": 109, "velocity": 85}, {"time": 177122, "pitch": 74, "duration": 240, "velocity": 95}, {"time": 177132, "pitch": 81, "duration": 240, "velocity": 105}, {"time": 177362, "pitch": 74, "duration": 130, "velocity": 90}, {"time": 177372, "pitch": 81, "duration": 110, "velocity": 100}, {"time": 177482, "pitch": 81, "duration": 130, "velocity": 90}, {"time": 177492, "pitch": 74, "duration": 110, "velocity": 80}, {"time": 177602, "pitch": 72, "duration": 240, "velocity": 90}, {"time": 177612, "pitch": 79, "duration": 240, "velocity": 100}, {"time": 177842, "pitch": 72, "duration": 130, "velocity": 90}, {"time": 177852, "pitch": 79, "duration": 110, "velocity": 100}, {"time": 177962, "pitch": 79, "duration": 130, "velocity": 90}, {"time": 177972, "pitch": 72, "duration": 110, "velocity": 80}, {"time": 178082, "pitch": 72, "duration": 240, "velocity": 80}, {"time": 178092, "pitch": 79, "duration": 240, "velocity": 90}, {"time": 178322, "pitch": 72, "duration": 129, "velocity": 90}, {"time": 178332, "pitch": 79, "duration": 109, "velocity": 100}, {"time": 178441, "pitch": 79, "duration": 130, "velocity": 90}, {"time": 178451, "pitch": 72, "duration": 110, "velocity": 80}, {"time": 178561, "pitch": 72, "duration": 240, "velocity": 85}, {"time": 178571, "pitch": 79, "duration": 240, "velocity": 95}, {"time": 178801, "pitch": 72, "duration": 130, "velocity": 85}, {"time": 178811, "pitch": 79, "duration": 110, "velocity": 95}, {"time": 178921, "pitch": 79, "duration": 130, "velocity": 85}, {"time": 178931, "pitch": 72, "duration": 110, "velocity": 75}, {"time": 179041, "pitch": 72, "duration": 240, "velocity": 90}, {"time": 179051, "pitch": 79, "duration": 240, "velocity": 100}, {"time": 179281, "pitch": 72, "duration": 130, "velocity": 90}, {"time": 179291, "pitch": 79, "duration": 110, "velocity": 100}, {"time": 179401, "pitch": 79, "duration": 130, "velocity": 90}, {"time": 179411, "pitch": 72, "duration": 110, "velocity": 80}, {"time": 179521, "pitch": 74, "duration": 1898, "velocity": 80}, {"time": 179531, "pitch": 81, "duration": 1888, "velocity": 90}], "annotations": [{"time": 80, "annotation": {"number": 7, "value": 85}, "group": "control_change"}, {"time": 86, "annotation": {"number": 10, "value": 64}, "group": "control_change"}, {"time": 92, "annotation": {"number": 11, "value": 100}, "group": "control_change"}, {"time": 98, "annotation": {"number": 91, "value": 40}, "group": "control_change"}, {"time": 104, "annotation": {"number": 93, "value": 0}, "group": "control_change"}, {"time": 147, "annotation": {"number": 101, "value": 0}, "group": "control_change"}, {"time": 153, "annotation": {"number": 100, "value": 0}, "group": "control_change"}, {"time": 160, "annotation": {"number": 6, "value": 12}, "group": "control_change"}, {"time": 166, "annotation": {"number": 1, "value": 0}, "group": "control_change"}, {"time": 178, "annotation": {"number": 64, "value": 0}, "group": "control_change"}]}, {"program": 0, "is_drum": false, "name": "Bass", "annotations": [{"time": 61, "annotation": {"number": 0, "value": 0}, "group": "control_change"}, {"time": 67, "annotation": {"number": 32, "value": 2}, "group": "control_change"}]}, {"program": 33, "is_drum": false, "name": "Bass", "notes": [{"time": 958, "pitch": 50, "duration": 460, "velocity": 110}, {"time": 1438, "pitch": 50, "duration": 459, "velocity": 110}, {"time": 1917, "pitch": 50, "duration": 706, "velocity": 100}, {"time": 2643, "pitch": 45, "duration": 120, "velocity": 100}, {"time": 2763, "pitch": 47, "duration": 120, "velocity": 95}, {"time": 2883, "pitch": 48, "duration": 699, "velocity": 110}, {"time": 3602, "pitch": 47, "duration": 700, "velocity": 110}, {"time": 4322, "pitch": 45, "duration": 219, "velocity": 110}, {"time": 4561, "pitch": 43, "duration": 220, "velocity": 105}, {"time": 4801, "pitch": 50, "duration": 460, "velocity": 110}, {"time": 5281, "pitch": 50, "duration": 459, "velocity": 110}, {"time": 5760, "pitch": 50, "duration": 940, "velocity": 100}, {"time": 6720, "pitch": 48, "duration": 699, "velocity": 110}, {"time": 7439, "pitch": 47, "duration": 700, "velocity": 110}, {"time": 8159, "pitch": 45, "duration": 220, "velocity": 110}, {"time": 8399, "pitch": 43, "duration": 219, "velocity": 105}, {"time": 8638, "pitch": 50, "duration": 460, "velocity": 110}, {"time": 9118, "pitch": 50, "duration": 460, "velocity": 110}, {"time": 9598, "pitch": 50, "duration": 945, "velocity": 100}, {"time": 10563, "pitch": 48, "duration": 699, "velocity": 110}, {"time": 11282, "pitch": 47, "duration": 700, "velocity": 110}, {"time": 12002, "pitch": 45, "duration": 220, "velocity": 110}, {"time": 12242, "pitch": 43, "duration": 220, "velocity": 105}, {"time": 12482, "pitch": 50, "duration": 459, "velocity": 110}, {"time": 12961, "pitch": 50, "duration": 460, "velocity": 110}, {"time": 13441, "pitch": 50, "duration": 939, "velocity": 100}, {"time": 14400, "pitch": 48, "duration": 700, "velocity": 110}, {"time": 15120, "pitch": 47, "duration": 699, "velocity": 110}, {"time": 15839, "pitch": 45, "duration": 220, "velocity": 110}, {"time": 16079, "pitch": 43, "duration": 220, "velocity": 105}, {"time": 16319, "pitch": 38, "duration": 1898, "velocity": 105}, {"time": 18237, "pitch": 40, "duration": 460, "velocity": 105}, {"time": 18717, "pitch": 40, "duration": 466, "velocity": 105}, {"time": 19203, "pitch": 47, "duration": 240, "velocity": 110}, {"time": 19443, "pitch": 47, "duration": 119, "velocity": 105}, {"time": 19562, "pitch": 45, "duration": 240, "velocity": 110}, {"time": 19802, "pitch": 43, "duration": 120, "velocity": 105}, {"time": 19922, "pitch": 42, "duration": 240, "velocity": 110}, {"time": 20162, "pitch": 43, "duration": 600, "velocity": 110}, {"time": 20882, "pitch": 38, "duration": 219, "velocity": 105}, {"time": 21121, "pitch": 41, "duration": 120, "velocity": 110}, {"time": 21241, "pitch": 42, "duration": 120, "velocity": 105}, {"time": 21481, "pitch": 43, "duration": 220, "velocity": 110}, {"time": 21721, "pitch": 43, "duration": 100, "velocity": 105}, {"time": 21841, "pitch": 43, "duration": 220, "velocity": 110}, {"time": 22081, "pitch": 38, "duration": 459, "velocity": 110}, {"time": 22560, "pitch": 38, "duration": 340, "velocity": 110}, {"time": 22920, "pitch": 45, "duration": 240, "velocity": 110}, {"time": 23160, "pitch": 45, "duration": 240, "velocity": 105}, {"time": 23400, "pitch": 43, "duration": 239, "velocity": 110}, {"time": 23639, "pitch": 42, "duration": 120, "velocity": 105}, {"time": 23759, "pitch": 43, "duration": 240, "velocity": 110}, {"time": 23999, "pitch": 38, "duration": 1899, "velocity": 105}, {"time": 25918, "pitch": 40, "duration": 459, "velocity": 105}, {"time": 26397, "pitch": 40, "duration": 460, "velocity": 105}, {"time": 26877, "pitch": 47, "duration": 243, "velocity": 110}, {"time": 27120, "pitch": 47, "duration": 121, "velocity": 105}, {"time": 27241, "pitch": 45, "duration": 242, "velocity": 110}, {"time": 27483, "pitch": 43, "duration": 120, "velocity": 105}, {"time": 27603, "pitch": 42, "duration": 239, "velocity": 110}, {"time": 27842, "pitch": 43, "duration": 460, "velocity": 110}, {"time": 28322, "pitch": 43, "duration": 340, "velocity": 110}, {"time": 28682, "pitch": 38, "duration": 100, "velocity": 105}, {"time": 28802, "pitch": 41, "duration": 120, "velocity": 110}, {"time": 28922, "pitch": 42, "duration": 120, "velocity": 105}, {"time": 29162, "pitch": 43, "duration": 219, "velocity": 110}, {"time": 29401, "pitch": 44, "duration": 100, "velocity": 105}, {"time": 29521, "pitch": 45, "duration": 220, "velocity": 110}, {"time": 29761, "pitch": 38, "duration": 460, "velocity": 110}, {"time": 30241, "pitch": 38, "duration": 339, "velocity": 110}, {"time": 30600, "pitch": 33, "duration": 120, "velocity": 105}, {"time": 30720, "pitch": 38, "duration": 120, "velocity": 110}, {"time": 30840, "pitch": 40, "duration": 120, "velocity": 105}, {"time": 31080, "pitch": 42, "duration": 220, "velocity": 110}, {"time": 31320, "pitch": 43, "duration": 100, "velocity": 105}, {"time": 31440, "pitch": 45, "duration": 220, "velocity": 110}, {"time": 31680, "pitch": 38, "duration": 479, "velocity": 110}, {"time": 32159, "pitch": 38, "duration": 480, "velocity": 110}, {"time": 32639, "pitch": 38, "duration": 480, "velocity": 110}, {"time": 33119, "pitch": 38, "duration": 479, "velocity": 110}, {"time": 33598, "pitch": 40, "duration": 480, "velocity": 110}, {"time": 34078, "pitch": 40, "duration": 340, "velocity": 110}, {"time": 34438, "pitch": 35, "duration": 100, "velocity": 105}, {"time": 34558, "pitch": 40, "duration": 239, "velocity": 105}, {"time": 34797, "pitch": 40, "duration": 240, "velocity": 110}, {"time": 35037, "pitch": 40, "duration": 243, "velocity": 105}, {"time": 35280, "pitch": 40, "duration": 122, "velocity": 110}, {"time": 35402, "pitch": 42, "duration": 121, "velocity": 105}, {"time": 35523, "pitch": 43, "duration": 480, "velocity": 110}, {"time": 36003, "pitch": 43, "duration": 339, "velocity": 110}, {"time": 36362, "pitch": 38, "duration": 100, "velocity": 105}, {"time": 36482, "pitch": 43, "duration": 120, "velocity": 105}, {"time": 36722, "pitch": 43, "duration": 360, "velocity": 110}, {"time": 37082, "pitch": 50, "duration": 120, "velocity": 100}, {"time": 37202, "pitch": 43, "duration": 240, "velocity": 105}, {"time": 37442, "pitch": 38, "duration": 459, "velocity": 110}, {"time": 37921, "pitch": 38, "duration": 340, "velocity": 110}, {"time": 38281, "pitch": 33, "duration": 120, "velocity": 105}, {"time": 38401, "pitch": 33, "duration": 120, "velocity": 110}, {"time": 38521, "pitch": 36, "duration": 120, "velocity": 105}, {"time": 38761, "pitch": 38, "duration": 99, "velocity": 110}, {"time": 39000, "pitch": 38, "duration": 100, "velocity": 105}, {"time": 39120, "pitch": 45, "duration": 220, "velocity": 110}, {"time": 39360, "pitch": 38, "duration": 460, "velocity": 110}, {"time": 39840, "pitch": 38, "duration": 340, "velocity": 110}, {"time": 40200, "pitch": 33, "duration": 119, "velocity": 105}, {"time": 40319, "pitch": 33, "duration": 120, "velocity": 110}, {"time": 40439, "pitch": 36, "duration": 120, "velocity": 105}, {"time": 40679, "pitch": 38, "duration": 100, "velocity": 110}, {"time": 40919, "pitch": 38, "duration": 100, "velocity": 105}, {"time": 41039, "pitch": 42, "duration": 220, "velocity": 110}, {"time": 41279, "pitch": 40, "duration": 479, "velocity": 110}, {"time": 41758, "pitch": 40, "duration": 340, "velocity": 110}, {"time": 42118, "pitch": 35, "duration": 100, "velocity": 105}, {"time": 42238, "pitch": 40, "duration": 240, "velocity": 105}, {"time": 42478, "pitch": 40, "duration": 240, "velocity": 110}, {"time": 42718, "pitch": 40, "duration": 239, "velocity": 105}, {"time": 42957, "pitch": 40, "duration": 120, "velocity": 110}, {"time": 43077, "pitch": 42, "duration": 120, "velocity": 105}, {"time": 43197, "pitch": 43, "duration": 486, "velocity": 110}, {"time": 43683, "pitch": 43, "duration": 340, "velocity": 110}, {"time": 44043, "pitch": 38, "duration": 100, "velocity": 105}, {"time": 44163, "pitch": 43, "duration": 120, "velocity": 105}, {"time": 44403, "pitch": 43, "duration": 359, "velocity": 110}, {"time": 44762, "pitch": 50, "duration": 120, "velocity": 100}, {"time": 44882, "pitch": 43, "duration": 240, "velocity": 105}, {"time": 45122, "pitch": 38, "duration": 460, "velocity": 110}, {"time": 45602, "pitch": 38, "duration": 339, "velocity": 110}, {"time": 45961, "pitch": 45, "duration": 120, "velocity": 105}, {"time": 46081, "pitch": 50, "duration": 120, "velocity": 110}, {"time": 46201, "pitch": 50, "duration": 120, "velocity": 105}, {"time": 46441, "pitch": 50, "duration": 100, "velocity": 110}, {"time": 46681, "pitch": 50, "duration": 100, "velocity": 105}, {"time": 46801, "pitch": 50, "duration": 220, "velocity": 110}, {"time": 47041, "pitch": 48, "duration": 479, "velocity": 110}, {"time": 47520, "pitch": 48, "duration": 220, "velocity": 105}, {"time": 47760, "pitch": 47, "duration": 700, "velocity": 110}, {"time": 48480, "pitch": 45, "duration": 219, "velocity": 110}, {"time": 48719, "pitch": 43, "duration": 220, "velocity": 105}, {"time": 48959, "pitch": 38, "duration": 480, "velocity": 110}, {"time": 49439, "pitch": 38, "duration": 479, "velocity": 110}, {"time": 49918, "pitch": 45, "duration": 120, "velocity": 100}, {"time": 50038, "pitch": 50, "duration": 120, "velocity": 105}, {"time": 50158, "pitch": 52, "duration": 240, "velocity": 110}, {"time": 50398, "pitch": 50, "duration": 480, "velocity": 100}, {"time": 50878, "pitch": 48, "duration": 699, "velocity": 110}, {"time": 51597, "pitch": 47, "duration": 706, "velocity": 110}, {"time": 52323, "pitch": 45, "duration": 220, "velocity": 110}, {"time": 52563, "pitch": 43, "duration": 219, "velocity": 105}, {"time": 52802, "pitch": 38, "duration": 480, "velocity": 110}, {"time": 53282, "pitch": 38, "duration": 480, "velocity": 110}, {"time": 53762, "pitch": 45, "duration": 120, "velocity": 100}, {"time": 53882, "pitch": 50, "duration": 120, "velocity": 105}, {"time": 54002, "pitch": 52, "duration": 239, "velocity": 110}, {"time": 54241, "pitch": 50, "duration": 480, "velocity": 100}, {"time": 54721, "pitch": 48, "duration": 700, "velocity": 110}, {"time": 55440, "pitch": 47, "duration": 700, "velocity": 110}, {"time": 56160, "pitch": 45, "duration": 220, "velocity": 110}, {"time": 56400, "pitch": 43, "duration": 220, "velocity": 105}, {"time": 56640, "pitch": 38, "duration": 3823, "velocity": 110}, {"time": 60483, "pitch": 38, "duration": 1898, "velocity": 105}, {"time": 62401, "pitch": 40, "duration": 460, "velocity": 105}, {"time": 62881, "pitch": 40, "duration": 460, "velocity": 105}, {"time": 63361, "pitch": 47, "duration": 240, "velocity": 110}, {"time": 63601, "pitch": 47, "duration": 119, "velocity": 105}, {"time": 63720, "pitch": 45, "duration": 240, "velocity": 110}, {"time": 63960, "pitch": 43, "duration": 120, "velocity": 105}, {"time": 64080, "pitch": 42, "duration": 240, "velocity": 110}, {"time": 64320, "pitch": 43, "duration": 600, "velocity": 110}, {"time": 65040, "pitch": 38, "duration": 219, "velocity": 105}, {"time": 65279, "pitch": 41, "duration": 120, "velocity": 110}, {"time": 65399, "pitch": 42, "duration": 120, "velocity": 105}, {"time": 65639, "pitch": 43, "duration": 220, "velocity": 110}, {"time": 65879, "pitch": 43, "duration": 100, "velocity": 105}, {"time": 65999, "pitch": 43, "duration": 220, "velocity": 110}, {"time": 66239, "pitch": 38, "duration": 459, "velocity": 110}, {"time": 66718, "pitch": 38, "duration": 340, "velocity": 110}, {"time": 67078, "pitch": 45, "duration": 240, "velocity": 110}, {"time": 67318, "pitch": 45, "duration": 240, "velocity": 105}, {"time": 67558, "pitch": 43, "duration": 240, "velocity": 110}, {"time": 67798, "pitch": 42, "duration": 119, "velocity": 105}, {"time": 67917, "pitch": 43, "duration": 240, "velocity": 110}, {"time": 68157, "pitch": 38, "duration": 1905, "velocity": 110}, {"time": 70082, "pitch": 40, "duration": 460, "velocity": 110}, {"time": 70562, "pitch": 40, "duration": 339, "velocity": 105}, {"time": 70921, "pitch": 35, "duration": 100, "velocity": 105}, {"time": 71041, "pitch": 40, "duration": 120, "velocity": 110}, {"time": 71281, "pitch": 40, "duration": 340, "velocity": 105}, {"time": 71641, "pitch": 44, "duration": 120, "velocity": 105}, {"time": 71761, "pitch": 47, "duration": 240, "velocity": 110}, {"time": 72001, "pitch": 43, "duration": 819, "velocity": 110}, {"time": 72840, "pitch": 38, "duration": 100, "velocity": 105}, {"time": 72960, "pitch": 41, "duration": 120, "velocity": 110}, {"time": 73080, "pitch": 42, "duration": 120, "velocity": 105}, {"time": 73320, "pitch": 43, "duration": 219, "velocity": 110}, {"time": 73559, "pitch": 43, "duration": 100, "velocity": 105}, {"time": 73679, "pitch": 43, "duration": 220, "velocity": 110}, {"time": 73919, "pitch": 38, "duration": 460, "velocity": 110}, {"time": 74399, "pitch": 38, "duration": 339, "velocity": 110}, {"time": 74758, "pitch": 33, "duration": 120, "velocity": 105}, {"time": 74878, "pitch": 38, "duration": 120, "velocity": 110}, {"time": 74998, "pitch": 38, "duration": 120, "velocity": 105}, {"time": 75238, "pitch": 38, "duration": 220, "velocity": 110}, {"time": 75478, "pitch": 42, "duration": 100, "velocity": 105}, {"time": 75598, "pitch": 45, "duration": 220, "velocity": 110}, {"time": 75838, "pitch": 38, "duration": 479, "velocity": 110}, {"time": 76317, "pitch": 38, "duration": 340, "velocity": 110}, {"time": 76677, "pitch": 33, "duration": 100, "velocity": 105}, {"time": 76797, "pitch": 38, "duration": 101, "velocity": 110}, {"time": 77040, "pitch": 38, "duration": 363, "velocity": 110}, {"time": 77403, "pitch": 38, "duration": 100, "velocity": 105}, {"time": 77523, "pitch": 38, "duration": 219, "velocity": 110}, {"time": 77762, "pitch": 40, "duration": 480, "velocity": 110}, {"time": 78242, "pitch": 40, "duration": 340, "velocity": 110}, {"time": 78602, "pitch": 35, "duration": 100, "velocity": 105}, {"time": 78722, "pitch": 40, "duration": 239, "velocity": 105}, {"time": 78961, "pitch": 40, "duration": 240, "velocity": 110}, {"time": 79201, "pitch": 40, "duration": 240, "velocity": 105}, {"time": 79441, "pitch": 40, "duration": 120, "velocity": 110}, {"time": 79561, "pitch": 42, "duration": 120, "velocity": 105}, {"time": 79681, "pitch": 43, "duration": 480, "velocity": 110}, {"time": 80161, "pitch": 43, "duration": 339, "velocity": 110}, {"time": 80520, "pitch": 50, "duration": 100, "velocity": 105}, {"time": 80640, "pitch": 50, "duration": 240, "velocity": 105}, {"time": 80880, "pitch": 50, "duration": 120, "velocity": 110}, {"time": 81000, "pitch": 47, "duration": 240, "velocity": 110}, {"time": 81240, "pitch": 45, "duration": 120, "velocity": 105}, {"time": 81360, "pitch": 43, "duration": 240, "velocity": 110}, {"time": 81600, "pitch": 38, "duration": 459, "velocity": 110}, {"time": 82079, "pitch": 38, "duration": 340, "velocity": 110}, {"time": 82439, "pitch": 50, "duration": 240, "velocity": 110}, {"time": 82679, "pitch": 50, "duration": 120, "velocity": 105}, {"time": 82799, "pitch": 50, "duration": 120, "velocity": 105}, {"time": 82919, "pitch": 48, "duration": 239, "velocity": 110}, {"time": 83158, "pitch": 47, "duration": 100, "velocity": 105}, {"time": 83278, "pitch": 45, "duration": 220, "velocity": 110}, {"time": 83518, "pitch": 38, "duration": 460, "velocity": 110}, {"time": 83998, "pitch": 38, "duration": 340, "velocity": 110}, {"time": 84358, "pitch": 33, "duration": 119, "velocity": 105}, {"time": 84477, "pitch": 33, "duration": 120, "velocity": 110}, {"time": 84597, "pitch": 36, "duration": 120, "velocity": 105}, {"time": 84837, "pitch": 38, "duration": 100, "velocity": 110}, {"time": 85078, "pitch": 38, "duration": 102, "velocity": 105}, {"time": 85200, "pitch": 42, "duration": 223, "velocity": 110}, {"time": 85443, "pitch": 40, "duration": 479, "velocity": 110}, {"time": 85922, "pitch": 40, "duration": 340, "velocity": 110}, {"time": 86282, "pitch": 50, "duration": 240, "velocity": 110}, {"time": 86522, "pitch": 50, "duration": 100, "velocity": 105}, {"time": 86642, "pitch": 50, "duration": 100, "velocity": 105}, {"time": 86762, "pitch": 52, "duration": 240, "velocity": 110}, {"time": 87002, "pitch": 52, "duration": 120, "velocity": 105}, {"time": 87122, "pitch": 52, "duration": 219, "velocity": 110}, {"time": 87361, "pitch": 43, "duration": 480, "velocity": 110}, {"time": 87841, "pitch": 43, "duration": 340, "velocity": 110}, {"time": 88201, "pitch": 50, "duration": 220, "velocity": 110}, {"time": 88441, "pitch": 50, "duration": 120, "velocity": 105}, {"time": 88561, "pitch": 50, "duration": 119, "velocity": 110}, {"time": 88680, "pitch": 43, "duration": 220, "velocity": 110}, {"time": 88920, "pitch": 43, "duration": 120, "velocity": 105}, {"time": 89040, "pitch": 43, "duration": 240, "velocity": 110}, {"time": 89280, "pitch": 38, "duration": 460, "velocity": 110}, {"time": 89760, "pitch": 38, "duration": 339, "velocity": 110}, {"time": 90119, "pitch": 33, "duration": 120, "velocity": 105}, {"time": 90239, "pitch": 38, "duration": 120, "velocity": 110}, {"time": 90479, "pitch": 38, "duration": 220, "velocity": 110}, {"time": 90719, "pitch": 38, "duration": 220, "velocity": 110}, {"time": 90959, "pitch": 45, "duration": 120, "velocity": 105}, {"time": 91079, "pitch": 47, "duration": 120, "velocity": 100}, {"time": 91199, "pitch": 48, "duration": 479, "velocity": 110}, {"time": 91678, "pitch": 48, "duration": 220, "velocity": 105}, {"time": 91918, "pitch": 47, "duration": 700, "velocity": 110}, {"time": 92638, "pitch": 45, "duration": 219, "velocity": 110}, {"time": 92877, "pitch": 43, "duration": 220, "velocity": 105}, {"time": 93117, "pitch": 38, "duration": 486, "velocity": 110}, {"time": 93603, "pitch": 38, "duration": 360, "velocity": 110}, {"time": 93963, "pitch": 33, "duration": 120, "velocity": 105}, {"time": 94083, "pitch": 34, "duration": 119, "velocity": 100}, {"time": 94202, "pitch": 35, "duration": 120, "velocity": 105}, {"time": 94322, "pitch": 38, "duration": 120, "velocity": 110}, {"time": 94442, "pitch": 40, "duration": 120, "velocity": 105}, {"time": 94562, "pitch": 45, "duration": 240, "velocity": 110}, {"time": 94802, "pitch": 47, "duration": 240, "velocity": 100}, {"time": 95042, "pitch": 48, "duration": 699, "velocity": 110}, {"time": 95761, "pitch": 47, "duration": 700, "velocity": 110}, {"time": 96481, "pitch": 45, "duration": 220, "velocity": 110}, {"time": 96721, "pitch": 43, "duration": 219, "velocity": 105}, {"time": 96960, "pitch": 38, "duration": 480, "velocity": 110}, {"time": 97440, "pitch": 38, "duration": 480, "velocity": 110}, {"time": 97920, "pitch": 45, "duration": 120, "velocity": 100}, {"time": 98040, "pitch": 50, "duration": 120, "velocity": 105}, {"time": 98160, "pitch": 52, "duration": 239, "velocity": 110}, {"time": 98399, "pitch": 50, "duration": 480, "velocity": 100}, {"time": 98879, "pitch": 48, "duration": 700, "velocity": 110}, {"time": 99599, "pitch": 47, "duration": 699, "velocity": 110}, {"time": 100318, "pitch": 45, "duration": 220, "velocity": 110}, {"time": 100558, "pitch": 43, "duration": 220, "velocity": 105}, {"time": 100798, "pitch": 38, "duration": 965, "velocity": 110}, {"time": 101763, "pitch": 35, "duration": 240, "velocity": 110}, {"time": 102003, "pitch": 38, "duration": 240, "velocity": 105}, {"time": 102243, "pitch": 40, "duration": 239, "velocity": 110}, {"time": 102482, "pitch": 38, "duration": 240, "velocity": 105}, {"time": 102722, "pitch": 48, "duration": 700, "velocity": 110}, {"time": 103442, "pitch": 47, "duration": 699, "velocity": 110}, {"time": 104161, "pitch": 45, "duration": 220, "velocity": 110}, {"time": 104401, "pitch": 43, "duration": 220, "velocity": 105}, {"time": 104641, "pitch": 38, "duration": 1659, "velocity": 110}, {"time": 106320, "pitch": 45, "duration": 120, "velocity": 110}, {"time": 106440, "pitch": 47, "duration": 119, "velocity": 105}, {"time": 106559, "pitch": 48, "duration": 700, "velocity": 110}, {"time": 107279, "pitch": 47, "duration": 699, "velocity": 110}, {"time": 107998, "pitch": 45, "duration": 220, "velocity": 110}, {"time": 108238, "pitch": 43, "duration": 220, "velocity": 105}, {"time": 108478, "pitch": 38, "duration": 1662, "velocity": 110}, {"time": 110160, "pitch": 38, "duration": 223, "velocity": 105}, {"time": 110403, "pitch": 40, "duration": 459, "velocity": 110}, {"time": 110882, "pitch": 40, "duration": 340, "velocity": 110}, {"time": 111242, "pitch": 35, "duration": 100, "velocity": 105}, {"time": 111362, "pitch": 40, "duration": 100, "velocity": 110}, {"time": 111602, "pitch": 40, "duration": 240, "velocity": 110}, {"time": 111842, "pitch": 40, "duration": 240, "velocity": 110}, {"time": 112082, "pitch": 40, "duration": 119, "velocity": 110}, {"time": 112201, "pitch": 42, "duration": 120, "velocity": 105}, {"time": 112321, "pitch": 43, "duration": 460, "velocity": 110}, {"time": 112801, "pitch": 43, "duration": 340, "velocity": 110}, {"time": 113161, "pitch": 38, "duration": 100, "velocity": 105}, {"time": 113281, "pitch": 43, "duration": 120, "velocity": 110}, {"time": 113520, "pitch": 43, "duration": 220, "velocity": 105}, {"time": 113760, "pitch": 43, "duration": 220, "velocity": 110}, {"time": 114000, "pitch": 45, "duration": 220, "velocity": 105}, {"time": 114240, "pitch": 38, "duration": 460, "velocity": 110}, {"time": 114720, "pitch": 38, "duration": 339, "velocity": 110}, {"time": 115079, "pitch": 33, "duration": 100, "velocity": 110}, {"time": 115199, "pitch": 35, "duration": 240, "velocity": 110}, {"time": 115439, "pitch": 38, "duration": 240, "velocity": 105}, {"time": 115679, "pitch": 38, "duration": 240, "velocity": 110}, {"time": 115919, "pitch": 38, "duration": 220, "velocity": 105}, {"time": 116159, "pitch": 38, "duration": 1299, "velocity": 110}, {"time": 117478, "pitch": 35, "duration": 99, "velocity": 105}, {"time": 117597, "pitch": 35, "duration": 240, "velocity": 110}, {"time": 117837, "pitch": 38, "duration": 240, "velocity": 105}, {"time": 118077, "pitch": 40, "duration": 466, "velocity": 110}, {"time": 118563, "pitch": 40, "duration": 340, "velocity": 110}, {"time": 118923, "pitch": 35, "duration": 100, "velocity": 105}, {"time": 119042, "pitch": 40, "duration": 120, "velocity": 110}, {"time": 119282, "pitch": 40, "duration": 240, "velocity": 110}, {"time": 119522, "pitch": 40, "duration": 220, "velocity": 105}, {"time": 119762, "pitch": 40, "duration": 120, "velocity": 110}, {"time": 119882, "pitch": 42, "duration": 120, "velocity": 105}, {"time": 120002, "pitch": 43, "duration": 459, "velocity": 110}, {"time": 120481, "pitch": 43, "duration": 340, "velocity": 110}, {"time": 120841, "pitch": 38, "duration": 100, "velocity": 105}, {"time": 120961, "pitch": 43, "duration": 120, "velocity": 110}, {"time": 121201, "pitch": 43, "duration": 220, "velocity": 105}, {"time": 121441, "pitch": 43, "duration": 220, "velocity": 110}, {"time": 121681, "pitch": 45, "duration": 219, "velocity": 105}, {"time": 121920, "pitch": 38, "duration": 460, "velocity": 110}, {"time": 122400, "pitch": 38, "duration": 340, "velocity": 110}, {"time": 122760, "pitch": 33, "duration": 120, "velocity": 105}, {"time": 122880, "pitch": 35, "duration": 239, "velocity": 110}, {"time": 123119, "pitch": 40, "duration": 240, "velocity": 105}, {"time": 123359, "pitch": 43, "duration": 220, "velocity": 110}, {"time": 123599, "pitch": 45, "duration": 220, "velocity": 105}, {"time": 123839, "pitch": 38, "duration": 480, "velocity": 110}, {"time": 124319, "pitch": 38, "duration": 359, "velocity": 110}, {"time": 124678, "pitch": 33, "duration": 120, "velocity": 105}, {"time": 124798, "pitch": 38, "duration": 120, "velocity": 110}, {"time": 125038, "pitch": 38, "duration": 220, "velocity": 110}, {"time": 125278, "pitch": 38, "duration": 220, "velocity": 110}, {"time": 125518, "pitch": 38, "duration": 220, "velocity": 105}, {"time": 125758, "pitch": 40, "duration": 479, "velocity": 110}, {"time": 126237, "pitch": 40, "duration": 344, "velocity": 110}, {"time": 126602, "pitch": 35, "duration": 101, "velocity": 105}, {"time": 126723, "pitch": 40, "duration": 240, "velocity": 105}, {"time": 126963, "pitch": 40, "duration": 240, "velocity": 110}, {"time": 127203, "pitch": 40, "duration": 239, "velocity": 105}, {"time": 127442, "pitch": 40, "duration": 120, "velocity": 110}, {"time": 127562, "pitch": 42, "duration": 120, "velocity": 105}, {"time": 127682, "pitch": 43, "duration": 480, "velocity": 110}, {"time": 128162, "pitch": 43, "duration": 340, "velocity": 110}, {"time": 128522, "pitch": 38, "duration": 100, "velocity": 105}, {"time": 128642, "pitch": 43, "duration": 119, "velocity": 110}, {"time": 128881, "pitch": 43, "duration": 220, "velocity": 110}, {"time": 129121, "pitch": 43, "duration": 220, "velocity": 110}, {"time": 129361, "pitch": 45, "duration": 240, "velocity": 105}, {"time": 129601, "pitch": 38, "duration": 459, "velocity": 110}, {"time": 130080, "pitch": 38, "duration": 340, "velocity": 110}, {"time": 130440, "pitch": 38, "duration": 120, "velocity": 105}, {"time": 130560, "pitch": 47, "duration": 240, "velocity": 110}, {"time": 130800, "pitch": 50, "duration": 240, "velocity": 105}, {"time": 131040, "pitch": 50, "duration": 240, "velocity": 110}, {"time": 131280, "pitch": 50, "duration": 239, "velocity": 110}, {"time": 131519, "pitch": 38, "duration": 460, "velocity": 110}, {"time": 131999, "pitch": 38, "duration": 340, "velocity": 110}, {"time": 132359, "pitch": 33, "duration": 120, "velocity": 105}, {"time": 132479, "pitch": 33, "duration": 120, "velocity": 110}, {"time": 132719, "pitch": 38, "duration": 219, "velocity": 105}, {"time": 132958, "pitch": 40, "duration": 220, "velocity": 110}, {"time": 133198, "pitch": 38, "duration": 220, "velocity": 105}, {"time": 133438, "pitch": 40, "duration": 480, "velocity": 110}, {"time": 133918, "pitch": 40, "duration": 339, "velocity": 110}, {"time": 134277, "pitch": 35, "duration": 100, "velocity": 105}, {"time": 134397, "pitch": 40, "duration": 243, "velocity": 105}, {"time": 134640, "pitch": 40, "duration": 243, "velocity": 110}, {"time": 134883, "pitch": 40, "duration": 240, "velocity": 105}, {"time": 135123, "pitch": 40, "duration": 120, "velocity": 110}, {"time": 135243, "pitch": 42, "duration": 120, "velocity": 105}, {"time": 135363, "pitch": 43, "duration": 479, "velocity": 110}, {"time": 135842, "pitch": 43, "duration": 340, "velocity": 110}, {"time": 136202, "pitch": 38, "duration": 100, "velocity": 105}, {"time": 136322, "pitch": 43, "duration": 120, "velocity": 110}, {"time": 136562, "pitch": 43, "duration": 220, "velocity": 105}, {"time": 136802, "pitch": 43, "duration": 219, "velocity": 110}, {"time": 137041, "pitch": 45, "duration": 240, "velocity": 105}, {"time": 137281, "pitch": 38, "duration": 480, "velocity": 110}, {"time": 137761, "pitch": 38, "duration": 340, "velocity": 110}, {"time": 138121, "pitch": 33, "duration": 100, "velocity": 105}, {"time": 138241, "pitch": 38, "duration": 119, "velocity": 110}, {"time": 138480, "pitch": 38, "duration": 220, "velocity": 105}, {"time": 138720, "pitch": 38, "duration": 220, "velocity": 110}, {"time": 138960, "pitch": 40, "duration": 240, "velocity": 105}, {"time": 139200, "pitch": 48, "duration": 480, "velocity": 110}, {"time": 139680, "pitch": 48, "duration": 219, "velocity": 105}, {"time": 139919, "pitch": 47, "duration": 700, "velocity": 110}, {"time": 140639, "pitch": 45, "duration": 220, "velocity": 110}, {"time": 140879, "pitch": 43, "duration": 219, "velocity": 105}, {"time": 141118, "pitch": 38, "duration": 480, "velocity": 110}, {"time": 141598, "pitch": 38, "duration": 480, "velocity": 105}, {"time": 142078, "pitch": 38, "duration": 479, "velocity": 110}, {"time": 142557, "pitch": 38, "duration": 480, "velocity": 105}, {"time": 143037, "pitch": 48, "duration": 486, "velocity": 110}, {"time": 143523, "pitch": 48, "duration": 220, "velocity": 105}, {"time": 143763, "pitch": 47, "duration": 699, "velocity": 110}, {"time": 144482, "pitch": 45, "duration": 220, "velocity": 110}, {"time": 144722, "pitch": 43, "duration": 220, "velocity": 105}, {"time": 144962, "pitch": 38, "duration": 479, "velocity": 110}, {"time": 145441, "pitch": 38, "duration": 480, "velocity": 105}, {"time": 145921, "pitch": 38, "duration": 480, "velocity": 110}, {"time": 146401, "pitch": 38, "duration": 479, "velocity": 105}, {"time": 146880, "pitch": 48, "duration": 480, "velocity": 110}, {"time": 147600, "pitch": 47, "duration": 699, "velocity": 110}, {"time": 148319, "pitch": 45, "duration": 220, "velocity": 110}, {"time": 148559, "pitch": 43, "duration": 220, "velocity": 105}, {"time": 148799, "pitch": 38, "duration": 480, "velocity": 110}, {"time": 149279, "pitch": 38, "duration": 479, "velocity": 105}, {"time": 149758, "pitch": 38, "duration": 480, "velocity": 110}, {"time": 150238, "pitch": 38, "duration": 479, "velocity": 105}, {"time": 150717, "pitch": 48, "duration": 966, "velocity": 110}, {"time": 152402, "pitch": 31, "duration": 220, "velocity": 105}, {"time": 152642, "pitch": 38, "duration": 480, "velocity": 110}, {"time": 153122, "pitch": 38, "duration": 479, "velocity": 105}, {"time": 153601, "pitch": 35, "duration": 240, "velocity": 110}, {"time": 153841, "pitch": 40, "duration": 240, "velocity": 110}, {"time": 154081, "pitch": 42, "duration": 240, "velocity": 110}, {"time": 154321, "pitch": 38, "duration": 240, "velocity": 105}, {"time": 154561, "pitch": 48, "duration": 699, "velocity": 110}, {"time": 155280, "pitch": 47, "duration": 700, "velocity": 110}, {"time": 156000, "pitch": 45, "duration": 220, "velocity": 110}, {"time": 156240, "pitch": 43, "duration": 219, "velocity": 105}, {"time": 156479, "pitch": 38, "duration": 480, "velocity": 110}, {"time": 156959, "pitch": 38, "duration": 360, "velocity": 110}, {"time": 157319, "pitch": 33, "duration": 120, "velocity": 100}, {"time": 157439, "pitch": 35, "duration": 120, "velocity": 100}, {"time": 157559, "pitch": 38, "duration": 119, "velocity": 105}, {"time": 157678, "pitch": 38, "duration": 240, "velocity": 110}, {"time": 157918, "pitch": 38, "duration": 480, "velocity": 100}, {"time": 158398, "pitch": 48, "duration": 699, "velocity": 110}, {"time": 159117, "pitch": 47, "duration": 706, "velocity": 110}, {"time": 159843, "pitch": 45, "duration": 220, "velocity": 110}, {"time": 160083, "pitch": 43, "duration": 220, "velocity": 105}, {"time": 160323, "pitch": 38, "duration": 479, "velocity": 110}, {"time": 160802, "pitch": 38, "duration": 360, "velocity": 110}, {"time": 161162, "pitch": 33, "duration": 120, "velocity": 105}, {"time": 161282, "pitch": 35, "duration": 120, "velocity": 110}, {"time": 161402, "pitch": 38, "duration": 240, "velocity": 110}, {"time": 161642, "pitch": 35, "duration": 120, "velocity": 105}, {"time": 161762, "pitch": 38, "duration": 239, "velocity": 110}, {"time": 162001, "pitch": 38, "duration": 240, "velocity": 100}, {"time": 162241, "pitch": 48, "duration": 700, "velocity": 110}, {"time": 162961, "pitch": 47, "duration": 699, "velocity": 110}, {"time": 163680, "pitch": 45, "duration": 220, "velocity": 110}, {"time": 163920, "pitch": 43, "duration": 220, "velocity": 105}, {"time": 164160, "pitch": 38, "duration": 459, "velocity": 110}, {"time": 164639, "pitch": 38, "duration": 460, "velocity": 110}, {"time": 165119, "pitch": 38, "duration": 120, "velocity": 110}, {"time": 165239, "pitch": 38, "duration": 240, "velocity": 110}, {"time": 165479, "pitch": 38, "duration": 120, "velocity": 105}, {"time": 165599, "pitch": 38, "duration": 459, "velocity": 110}, {"time": 166078, "pitch": 50, "duration": 720, "velocity": 110}, {"time": 166798, "pitch": 50, "duration": 719, "velocity": 110}, {"time": 167517, "pitch": 50, "duration": 240, "velocity": 110}, {"time": 167757, "pitch": 50, "duration": 240, "velocity": 110}, {"time": 167997, "pitch": 50, "duration": 726, "velocity": 110}, {"time": 168723, "pitch": 50, "duration": 359, "velocity": 110}, {"time": 169082, "pitch": 50, "duration": 120, "velocity": 105}, {"time": 169202, "pitch": 50, "duration": 240, "velocity": 110}, {"time": 169442, "pitch": 50, "duration": 120, "velocity": 105}, {"time": 169682, "pitch": 50, "duration": 240, "velocity": 110}, {"time": 169922, "pitch": 50, "duration": 479, "velocity": 110}, {"time": 170401, "pitch": 50, "duration": 240, "velocity": 105}, {"time": 170641, "pitch": 50, "duration": 480, "velocity": 110}, {"time": 171121, "pitch": 50, "duration": 240, "velocity": 105}, {"time": 171361, "pitch": 50, "duration": 479, "velocity": 110}, {"time": 171840, "pitch": 50, "duration": 480, "velocity": 110}, {"time": 172320, "pitch": 50, "duration": 240, "velocity": 105}, {"time": 172560, "pitch": 50, "duration": 359, "velocity": 110}, {"time": 172919, "pitch": 50, "duration": 120, "velocity": 105}, {"time": 173039, "pitch": 50, "duration": 240, "velocity": 105}, {"time": 173279, "pitch": 50, "duration": 240, "velocity": 110}, {"time": 173519, "pitch": 50, "duration": 600, "velocity": 105}, {"time": 174119, "pitch": 50, "duration": 359, "velocity": 105}, {"time": 174478, "pitch": 50, "duration": 720, "velocity": 110}, {"time": 175198, "pitch": 50, "duration": 240, "velocity": 110}, {"time": 175438, "pitch": 50, "duration": 239, "velocity": 105}, {"time": 175677, "pitch": 50, "duration": 723, "velocity": 110}, {"time": 176400, "pitch": 50, "duration": 363, "velocity": 105}, {"time": 176763, "pitch": 50, "duration": 120, "velocity": 110}, {"time": 176883, "pitch": 50, "duration": 239, "velocity": 105}, {"time": 177122, "pitch": 50, "duration": 120, "velocity": 110}, {"time": 177362, "pitch": 50, "duration": 240, "velocity": 110}, {"time": 177602, "pitch": 50, "duration": 480, "velocity": 110}, {"time": 178082, "pitch": 50, "duration": 240, "velocity": 105}, {"time": 178322, "pitch": 50, "duration": 479, "velocity": 110}, {"time": 178801, "pitch": 50, "duration": 240, "velocity": 105}, {"time": 179041, "pitch": 50, "duration": 480, "velocity": 110}, {"time": 179521, "pitch": 50, "duration": 9473, "velocity": 110}], "annotations": [{"time": 80, "annotation": {"number": 7, "value": 120}, "group": "control_change"}, {"time": 86, "annotation": {"number": 10, "value": 64}, "group": "control_change"}, {"time": 92, "annotation": {"number": 11, "value": 100}, "group": "control_change"}, {"time": 98, "annotation": {"number": 91, "value": 5}, "group": "control_change"}, {"time": 104, "annotation": {"number": 93, "value": 0}, "group": "control_change"}, {"time": 110, "annotation": {"number": 101, "value": 0}, "group": "control_change"}, {"time": 117, "annotation": {"number": 100, "value": 0}, "group": "control_change"}, {"time": 123, "annotation": {"number": 6, "value": 12}, "group": "control_change"}, {"time": 129, "annotation": {"number": 1, "value": 0}, "group": "control_change"}, {"time": 141, "annotation": {"number": 64, "value": 0}, "group": "control_change"}]}, {"program": 0, "is_drum": false, "name": "Chorus", "annotations": [{"time": 61, "annotation": {"number": 0, "value": 0}, "group": "control_change"}, {"time": 67, "annotation": {"number": 32, "value": 2}, "group": "control_change"}]}, {"program": 52, "is_drum": false, "name": "Chorus", "notes": [{"time": 17758, "pitch": 74, "duration": 120, "velocity": 100}, {"time": 17998, "pitch": 69, "duration": 119, "velocity": 100}, {"time": 18117, "pitch": 74, "duration": 120, "velocity": 100}, {"time": 18237, "pitch": 76, "duration": 240, "velocity": 100}, {"time": 18477, "pitch": 76, "duration": 240, "velocity": 100}, {"time": 25438, "pitch": 74, "duration": 120, "velocity": 100}, {"time": 25678, "pitch": 69, "duration": 120, "velocity": 100}, {"time": 25798, "pitch": 74, "duration": 120, "velocity": 100}, {"time": 25918, "pitch": 76, "duration": 240, "velocity": 100}, {"time": 26158, "pitch": 76, "duration": 239, "velocity": 100}, {"time": 37202, "pitch": 74, "duration": 240, "velocity": 100}, {"time": 37442, "pitch": 81, "duration": 219, "velocity": 100}, {"time": 37681, "pitch": 81, "duration": 600, "velocity": 100}, {"time": 38281, "pitch": 79, "duration": 120, "velocity": 100}, {"time": 38401, "pitch": 78, "duration": 240, "velocity": 100}, {"time": 45002, "pitch": 74, "duration": 120, "velocity": 100}, {"time": 45122, "pitch": 81, "duration": 220, "velocity": 100}, {"time": 45362, "pitch": 81, "duration": 599, "velocity": 100}, {"time": 45961, "pitch": 79, "duration": 120, "velocity": 100}, {"time": 46081, "pitch": 78, "duration": 240, "velocity": 100}, {"time": 48480, "pitch": 74, "duration": 119, "velocity": 100}, {"time": 48599, "pitch": 78, "duration": 240, "velocity": 100}, {"time": 48839, "pitch": 78, "duration": 600, "velocity": 100}, {"time": 52323, "pitch": 74, "duration": 120, "velocity": 100}, {"time": 52443, "pitch": 78, "duration": 240, "velocity": 100}, {"time": 52683, "pitch": 78, "duration": 599, "velocity": 100}, {"time": 54721, "pitch": 72, "duration": 719, "velocity": 100}, {"time": 55440, "pitch": 71, "duration": 720, "velocity": 100}, {"time": 56160, "pitch": 71, "duration": 120, "velocity": 100}, {"time": 56280, "pitch": 69, "duration": 120, "velocity": 100}, {"time": 56400, "pitch": 67, "duration": 240, "velocity": 100}, {"time": 56640, "pitch": 74, "duration": 479, "velocity": 100}, {"time": 61922, "pitch": 74, "duration": 120, "velocity": 100}, {"time": 62162, "pitch": 69, "duration": 120, "velocity": 100}, {"time": 62282, "pitch": 74, "duration": 119, "velocity": 100}, {"time": 62401, "pitch": 76, "duration": 240, "velocity": 100}, {"time": 62641, "pitch": 76, "duration": 240, "velocity": 100}, {"time": 69602, "pitch": 74, "duration": 120, "velocity": 100}, {"time": 69842, "pitch": 69, "duration": 120, "velocity": 100}, {"time": 69962, "pitch": 74, "duration": 120, "velocity": 100}, {"time": 70082, "pitch": 76, "duration": 240, "velocity": 100}, {"time": 70322, "pitch": 76, "duration": 240, "velocity": 100}, {"time": 81360, "pitch": 74, "duration": 240, "velocity": 100}, {"time": 81600, "pitch": 81, "duration": 219, "velocity": 100}, {"time": 81839, "pitch": 81, "duration": 600, "velocity": 100}, {"time": 82439, "pitch": 79, "duration": 120, "velocity": 100}, {"time": 82559, "pitch": 78, "duration": 240, "velocity": 100}, {"time": 89160, "pitch": 74, "duration": 120, "velocity": 100}, {"time": 89280, "pitch": 81, "duration": 220, "velocity": 100}, {"time": 89520, "pitch": 81, "duration": 599, "velocity": 100}, {"time": 90119, "pitch": 79, "duration": 120, "velocity": 100}, {"time": 90239, "pitch": 78, "duration": 240, "velocity": 100}, {"time": 92638, "pitch": 74, "duration": 119, "velocity": 100}, {"time": 92757, "pitch": 78, "duration": 240, "velocity": 100}, {"time": 92997, "pitch": 78, "duration": 606, "velocity": 100}, {"time": 96481, "pitch": 74, "duration": 120, "velocity": 100}, {"time": 96601, "pitch": 78, "duration": 240, "velocity": 100}, {"time": 96841, "pitch": 78, "duration": 599, "velocity": 100}, {"time": 98879, "pitch": 72, "duration": 720, "velocity": 100}, {"time": 99599, "pitch": 71, "duration": 719, "velocity": 100}, {"time": 100318, "pitch": 71, "duration": 120, "velocity": 100}, {"time": 100438, "pitch": 69, "duration": 120, "velocity": 100}, {"time": 100558, "pitch": 67, "duration": 240, "velocity": 100}, {"time": 100798, "pitch": 74, "duration": 479, "velocity": 100}, {"time": 102722, "pitch": 72, "duration": 720, "velocity": 100}, {"time": 103442, "pitch": 71, "duration": 719, "velocity": 100}, {"time": 104161, "pitch": 71, "duration": 120, "velocity": 100}, {"time": 104281, "pitch": 69, "duration": 120, "velocity": 100}, {"time": 104401, "pitch": 67, "duration": 240, "velocity": 100}, {"time": 104641, "pitch": 74, "duration": 480, "velocity": 100}, {"time": 109917, "pitch": 74, "duration": 121, "velocity": 100}, {"time": 110160, "pitch": 69, "duration": 121, "velocity": 100}, {"time": 110281, "pitch": 74, "duration": 122, "velocity": 100}, {"time": 110403, "pitch": 76, "duration": 120, "velocity": 100}, {"time": 110523, "pitch": 76, "duration": 120, "velocity": 100}, {"time": 110643, "pitch": 76, "duration": 239, "velocity": 100}, {"time": 117597, "pitch": 74, "duration": 120, "velocity": 100}, {"time": 117837, "pitch": 69, "duration": 120, "velocity": 100}, {"time": 117957, "pitch": 74, "duration": 120, "velocity": 100}, {"time": 118077, "pitch": 76, "duration": 243, "velocity": 100}, {"time": 118320, "pitch": 76, "duration": 243, "velocity": 100}, {"time": 129361, "pitch": 74, "duration": 240, "velocity": 100}, {"time": 129601, "pitch": 81, "duration": 220, "velocity": 100}, {"time": 129841, "pitch": 81, "duration": 599, "velocity": 100}, {"time": 130440, "pitch": 79, "duration": 120, "velocity": 100}, {"time": 130560, "pitch": 78, "duration": 240, "velocity": 100}, {"time": 137161, "pitch": 74, "duration": 120, "velocity": 100}, {"time": 137281, "pitch": 81, "duration": 220, "velocity": 100}, {"time": 137521, "pitch": 81, "duration": 600, "velocity": 100}, {"time": 138121, "pitch": 79, "duration": 120, "velocity": 100}, {"time": 138241, "pitch": 78, "duration": 239, "velocity": 100}, {"time": 140639, "pitch": 74, "duration": 120, "velocity": 100}, {"time": 140759, "pitch": 78, "duration": 240, "velocity": 100}, {"time": 140999, "pitch": 78, "duration": 599, "velocity": 100}, {"time": 144482, "pitch": 74, "duration": 120, "velocity": 100}, {"time": 144602, "pitch": 78, "duration": 240, "velocity": 100}, {"time": 144842, "pitch": 78, "duration": 599, "velocity": 100}, {"time": 146880, "pitch": 72, "duration": 720, "velocity": 100}, {"time": 147600, "pitch": 71, "duration": 719, "velocity": 100}, {"time": 148319, "pitch": 71, "duration": 120, "velocity": 100}, {"time": 148439, "pitch": 69, "duration": 120, "velocity": 100}, {"time": 148559, "pitch": 67, "duration": 240, "velocity": 100}, {"time": 148799, "pitch": 74, "duration": 480, "velocity": 100}, {"time": 150717, "pitch": 72, "duration": 966, "velocity": 100}, {"time": 151683, "pitch": 71, "duration": 480, "velocity": 100}, {"time": 152163, "pitch": 71, "duration": 119, "velocity": 100}, {"time": 152282, "pitch": 69, "duration": 120, "velocity": 100}, {"time": 152402, "pitch": 67, "duration": 240, "velocity": 100}, {"time": 152642, "pitch": 74, "duration": 480, "velocity": 100}, {"time": 154561, "pitch": 72, "duration": 719, "velocity": 100}, {"time": 155280, "pitch": 71, "duration": 720, "velocity": 100}, {"time": 156000, "pitch": 71, "duration": 120, "velocity": 100}, {"time": 156120, "pitch": 69, "duration": 120, "velocity": 100}, {"time": 156240, "pitch": 67, "duration": 239, "velocity": 100}, {"time": 156479, "pitch": 74, "duration": 480, "velocity": 100}, {"time": 158398, "pitch": 72, "duration": 719, "velocity": 100}, {"time": 159117, "pitch": 71, "duration": 726, "velocity": 100}, {"time": 159843, "pitch": 71, "duration": 120, "velocity": 100}, {"time": 159963, "pitch": 69, "duration": 120, "velocity": 100}, {"time": 160083, "pitch": 67, "duration": 240, "velocity": 100}, {"time": 160323, "pitch": 74, "duration": 479, "velocity": 100}, {"time": 162241, "pitch": 72, "duration": 720, "velocity": 100}, {"time": 162961, "pitch": 71, "duration": 719, "velocity": 100}, {"time": 163680, "pitch": 71, "duration": 120, "velocity": 100}, {"time": 163800, "pitch": 69, "duration": 120, "velocity": 100}, {"time": 163920, "pitch": 67, "duration": 240, "velocity": 100}, {"time": 164160, "pitch": 74, "duration": 479, "velocity": 100}, {"time": 166078, "pitch": 72, "duration": 720, "velocity": 100}, {"time": 166798, "pitch": 71, "duration": 719, "velocity": 100}, {"time": 167517, "pitch": 71, "duration": 120, "velocity": 100}, {"time": 167637, "pitch": 69, "duration": 120, "velocity": 100}, {"time": 167757, "pitch": 67, "duration": 240, "velocity": 100}, {"time": 167997, "pitch": 74, "duration": 486, "velocity": 100}], "annotations": [{"time": 80, "annotation": {"number": 7, "value": 70}, "group": "control_change"}, {"time": 86, "annotation": {"number": 10, "value": 64}, "group": "control_change"}, {"time": 92, "annotation": {"number": 11, "value": 100}, "group": "control_change"}, {"time": 98, "annotation": {"number": 91, "value": 40}, "group": "control_change"}, {"time": 104, "annotation": {"number": 93, "value": 0}, "group": "control_change"}, {"time": 178, "annotation": {"number": 101, "value": 0}, "group": "control_change"}, {"time": 184, "annotation": {"number": 100, "value": 0}, "group": "control_change"}, {"time": 190, "annotation": {"number": 6, "value": 12}, "group": "control_change"}, {"time": 196, "annotation": {"number": 1, "value": 0}, "group": "control_change"}, {"time": 209, "annotation": {"number": 64, "value": 0}, "group": "control_change"}]}, {"program": 0, "is_drum": false, "name": "Melo", "annotations": [{"time": 61, "annotation": {"number": 0, "value": 0}, "group": "control_change"}, {"time": 67, "annotation": {"number": 32, "value": 2}, "group": "control_change"}]}, {"program": 73, "is_drum": false, "name": "Melo", "notes": [{"time": 16439, "pitch": 69, "duration": 120, "velocity": 100}, {"time": 16559, "pitch": 69, "duration": 239, "velocity": 100}, {"time": 16798, "pitch": 66, "duration": 120, "velocity": 100}, {"time": 16918, "pitch": 66, "duration": 120, "velocity": 100}, {"time": 17158, "pitch": 66, "duration": 120, "velocity": 100}, {"time": 17278, "pitch": 69, "duration": 120, "velocity": 100}, {"time": 17398, "pitch": 66, "duration": 120, "velocity": 100}, {"time": 17758, "pitch": 69, "duration": 120, "velocity": 100}, {"time": 17998, "pitch": 66, "duration": 119, "velocity": 100}, {"time": 18117, "pitch": 69, "duration": 120, "velocity": 100}, {"time": 18237, "pitch": 71, "duration": 240, "velocity": 100}, {"time": 18477, "pitch": 71, "duration": 240, "velocity": 100}, {"time": 20642, "pitch": 71, "duration": 120, "velocity": 100}, {"time": 20762, "pitch": 74, "duration": 120, "velocity": 100}, {"time": 21001, "pitch": 71, "duration": 120, "velocity": 100}, {"time": 21121, "pitch": 74, "duration": 240, "velocity": 100}, {"time": 21361, "pitch": 74, "duration": 120, "velocity": 100}, {"time": 21601, "pitch": 74, "duration": 360, "velocity": 100}, {"time": 21961, "pitch": 66, "duration": 120, "velocity": 100}, {"time": 22081, "pitch": 66, "duration": 120, "velocity": 100}, {"time": 22201, "pitch": 69, "duration": 119, "velocity": 100}, {"time": 24119, "pitch": 69, "duration": 120, "velocity": 100}, {"time": 24239, "pitch": 69, "duration": 120, "velocity": 100}, {"time": 24359, "pitch": 69, "duration": 120, "velocity": 100}, {"time": 24599, "pitch": 66, "duration": 120, "velocity": 100}, {"time": 24839, "pitch": 66, "duration": 120, "velocity": 100}, {"time": 24959, "pitch": 69, "duration": 119, "velocity": 100}, {"time": 25078, "pitch": 66, "duration": 120, "velocity": 100}, {"time": 25318, "pitch": 66, "duration": 120, "velocity": 100}, {"time": 25438, "pitch": 69, "duration": 120, "velocity": 100}, {"time": 25678, "pitch": 66, "duration": 120, "velocity": 100}, {"time": 25798, "pitch": 69, "duration": 120, "velocity": 100}, {"time": 25918, "pitch": 71, "duration": 240, "velocity": 100}, {"time": 26158, "pitch": 71, "duration": 239, "velocity": 100}, {"time": 28562, "pitch": 71, "duration": 240, "velocity": 100}, {"time": 28802, "pitch": 71, "duration": 120, "velocity": 100}, {"time": 28922, "pitch": 71, "duration": 120, "velocity": 100}, {"time": 29042, "pitch": 71, "duration": 239, "velocity": 100}, {"time": 29281, "pitch": 74, "duration": 360, "velocity": 100}, {"time": 29641, "pitch": 66, "duration": 120, "velocity": 100}, {"time": 29761, "pitch": 66, "duration": 120, "velocity": 100}, {"time": 29881, "pitch": 69, "duration": 120, "velocity": 100}, {"time": 31920, "pitch": 78, "duration": 219, "velocity": 100}, {"time": 32159, "pitch": 78, "duration": 220, "velocity": 100}, {"time": 32399, "pitch": 78, "duration": 120, "velocity": 100}, {"time": 32519, "pitch": 78, "duration": 340, "velocity": 100}, {"time": 32879, "pitch": 78, "duration": 220, "velocity": 100}, {"time": 33119, "pitch": 76, "duration": 219, "velocity": 100}, {"time": 33358, "pitch": 74, "duration": 220, "velocity": 100}, {"time": 33598, "pitch": 76, "duration": 220, "velocity": 100}, {"time": 33838, "pitch": 76, "duration": 120, "velocity": 100}, {"time": 33958, "pitch": 71, "duration": 480, "velocity": 100}, {"time": 36003, "pitch": 71, "duration": 179, "velocity": 100}, {"time": 36182, "pitch": 74, "duration": 180, "velocity": 100}, {"time": 36362, "pitch": 71, "duration": 120, "velocity": 100}, {"time": 36482, "pitch": 74, "duration": 600, "velocity": 100}, {"time": 37202, "pitch": 71, "duration": 240, "velocity": 100}, {"time": 37442, "pitch": 78, "duration": 219, "velocity": 100}, {"time": 37681, "pitch": 78, "duration": 600, "velocity": 100}, {"time": 38281, "pitch": 76, "duration": 120, "velocity": 100}, {"time": 38401, "pitch": 74, "duration": 240, "velocity": 100}, {"time": 39600, "pitch": 78, "duration": 220, "velocity": 100}, {"time": 39840, "pitch": 78, "duration": 220, "velocity": 100}, {"time": 40080, "pitch": 78, "duration": 120, "velocity": 100}, {"time": 40200, "pitch": 78, "duration": 339, "velocity": 100}, {"time": 40559, "pitch": 78, "duration": 220, "velocity": 100}, {"time": 40799, "pitch": 76, "duration": 220, "velocity": 100}, {"time": 41039, "pitch": 74, "duration": 220, "velocity": 100}, {"time": 41279, "pitch": 76, "duration": 220, "velocity": 100}, {"time": 41519, "pitch": 74, "duration": 119, "velocity": 100}, {"time": 41638, "pitch": 71, "duration": 480, "velocity": 100}, {"time": 44163, "pitch": 71, "duration": 180, "velocity": 100}, {"time": 44343, "pitch": 74, "duration": 179, "velocity": 100}, {"time": 44522, "pitch": 71, "duration": 120, "velocity": 100}, {"time": 44642, "pitch": 74, "duration": 360, "velocity": 100}, {"time": 45002, "pitch": 71, "duration": 120, "velocity": 100}, {"time": 45122, "pitch": 78, "duration": 220, "velocity": 100}, {"time": 45362, "pitch": 78, "duration": 599, "velocity": 100}, {"time": 45961, "pitch": 76, "duration": 120, "velocity": 100}, {"time": 46081, "pitch": 74, "duration": 240, "velocity": 100}, {"time": 47520, "pitch": 72, "duration": 480, "velocity": 100}, {"time": 48000, "pitch": 71, "duration": 120, "velocity": 100}, {"time": 48120, "pitch": 71, "duration": 120, "velocity": 100}, {"time": 48240, "pitch": 69, "duration": 120, "velocity": 100}, {"time": 48360, "pitch": 67, "duration": 120, "velocity": 100}, {"time": 48480, "pitch": 71, "duration": 119, "velocity": 100}, {"time": 48599, "pitch": 74, "duration": 240, "velocity": 100}, {"time": 48839, "pitch": 74, "duration": 600, "velocity": 100}, {"time": 50638, "pitch": 79, "duration": 480, "velocity": 100}, {"time": 51118, "pitch": 78, "duration": 239, "velocity": 100}, {"time": 51357, "pitch": 74, "duration": 240, "velocity": 100}, {"time": 51597, "pitch": 71, "duration": 240, "velocity": 100}, {"time": 52323, "pitch": 71, "duration": 120, "velocity": 100}, {"time": 52443, "pitch": 74, "duration": 240, "velocity": 100}, {"time": 52683, "pitch": 74, "duration": 599, "velocity": 100}, {"time": 54721, "pitch": 72, "duration": 719, "velocity": 100}, {"time": 55440, "pitch": 71, "duration": 720, "velocity": 100}, {"time": 56160, "pitch": 71, "duration": 120, "velocity": 100}, {"time": 56280, "pitch": 69, "duration": 120, "velocity": 100}, {"time": 56400, "pitch": 67, "duration": 240, "velocity": 100}, {"time": 56640, "pitch": 74, "duration": 479, "velocity": 100}, {"time": 60603, "pitch": 69, "duration": 120, "velocity": 100}, {"time": 60723, "pitch": 69, "duration": 120, "velocity": 100}, {"time": 60843, "pitch": 69, "duration": 239, "velocity": 100}, {"time": 61082, "pitch": 66, "duration": 120, "velocity": 100}, {"time": 61202, "pitch": 66, "duration": 120, "velocity": 100}, {"time": 61442, "pitch": 66, "duration": 120, "velocity": 100}, {"time": 61562, "pitch": 69, "duration": 120, "velocity": 100}, {"time": 61682, "pitch": 66, "duration": 120, "velocity": 100}, {"time": 61922, "pitch": 69, "duration": 120, "velocity": 100}, {"time": 62162, "pitch": 66, "duration": 120, "velocity": 100}, {"time": 62282, "pitch": 69, "duration": 119, "velocity": 100}, {"time": 62401, "pitch": 71, "duration": 240, "velocity": 100}, {"time": 62641, "pitch": 71, "duration": 240, "velocity": 100}, {"time": 64800, "pitch": 71, "duration": 120, "velocity": 100}, {"time": 64920, "pitch": 74, "duration": 120, "velocity": 100}, {"time": 65159, "pitch": 71, "duration": 120, "velocity": 100}, {"time": 65279, "pitch": 74, "duration": 240, "velocity": 100}, {"time": 65519, "pitch": 74, "duration": 120, "velocity": 100}, {"time": 65759, "pitch": 74, "duration": 360, "velocity": 100}, {"time": 66119, "pitch": 66, "duration": 120, "velocity": 100}, {"time": 66239, "pitch": 66, "duration": 120, "velocity": 100}, {"time": 66359, "pitch": 69, "duration": 119, "velocity": 100}, {"time": 68279, "pitch": 69, "duration": 121, "velocity": 100}, {"time": 68400, "pitch": 69, "duration": 122, "velocity": 100}, {"time": 68522, "pitch": 69, "duration": 121, "velocity": 100}, {"time": 68643, "pitch": 69, "duration": 120, "velocity": 100}, {"time": 68883, "pitch": 66, "duration": 120, "velocity": 100}, {"time": 69123, "pitch": 69, "duration": 120, "velocity": 100}, {"time": 69243, "pitch": 66, "duration": 119, "velocity": 100}, {"time": 69482, "pitch": 66, "duration": 120, "velocity": 100}, {"time": 69602, "pitch": 69, "duration": 120, "velocity": 100}, {"time": 69842, "pitch": 66, "duration": 120, "velocity": 100}, {"time": 69962, "pitch": 69, "duration": 120, "velocity": 100}, {"time": 70082, "pitch": 71, "duration": 240, "velocity": 100}, {"time": 70322, "pitch": 71, "duration": 240, "velocity": 100}, {"time": 72720, "pitch": 74, "duration": 240, "velocity": 100}, {"time": 72960, "pitch": 74, "duration": 120, "velocity": 100}, {"time": 73080, "pitch": 74, "duration": 120, "velocity": 100}, {"time": 73200, "pitch": 74, "duration": 120, "velocity": 100}, {"time": 73320, "pitch": 74, "duration": 119, "velocity": 100}, {"time": 73439, "pitch": 74, "duration": 360, "velocity": 100}, {"time": 73799, "pitch": 66, "duration": 120, "velocity": 100}, {"time": 73919, "pitch": 66, "duration": 240, "velocity": 100}, {"time": 74159, "pitch": 69, "duration": 480, "velocity": 100}, {"time": 76078, "pitch": 78, "duration": 219, "velocity": 100}, {"time": 76317, "pitch": 78, "duration": 220, "velocity": 100}, {"time": 76557, "pitch": 78, "duration": 120, "velocity": 100}, {"time": 76677, "pitch": 78, "duration": 343, "velocity": 100}, {"time": 77040, "pitch": 78, "duration": 223, "velocity": 100}, {"time": 77283, "pitch": 76, "duration": 220, "velocity": 100}, {"time": 77523, "pitch": 74, "duration": 219, "velocity": 100}, {"time": 77762, "pitch": 76, "duration": 220, "velocity": 100}, {"time": 78002, "pitch": 76, "duration": 120, "velocity": 100}, {"time": 78122, "pitch": 71, "duration": 480, "velocity": 100}, {"time": 80161, "pitch": 71, "duration": 179, "velocity": 100}, {"time": 80340, "pitch": 74, "duration": 180, "velocity": 100}, {"time": 80520, "pitch": 71, "duration": 120, "velocity": 100}, {"time": 80640, "pitch": 74, "duration": 600, "velocity": 100}, {"time": 81360, "pitch": 71, "duration": 240, "velocity": 100}, {"time": 81600, "pitch": 78, "duration": 219, "velocity": 100}, {"time": 81839, "pitch": 78, "duration": 720, "velocity": 100}, {"time": 83758, "pitch": 78, "duration": 220, "velocity": 100}, {"time": 83998, "pitch": 78, "duration": 220, "velocity": 100}, {"time": 84238, "pitch": 78, "duration": 120, "velocity": 100}, {"time": 84358, "pitch": 78, "duration": 339, "velocity": 100}, {"time": 84717, "pitch": 78, "duration": 220, "velocity": 100}, {"time": 84957, "pitch": 76, "duration": 223, "velocity": 100}, {"time": 85200, "pitch": 74, "duration": 223, "velocity": 100}, {"time": 85443, "pitch": 76, "duration": 220, "velocity": 100}, {"time": 85683, "pitch": 74, "duration": 120, "velocity": 100}, {"time": 85803, "pitch": 71, "duration": 479, "velocity": 100}, {"time": 88321, "pitch": 71, "duration": 180, "velocity": 100}, {"time": 88501, "pitch": 74, "duration": 179, "velocity": 100}, {"time": 88680, "pitch": 71, "duration": 120, "velocity": 100}, {"time": 88800, "pitch": 74, "duration": 220, "velocity": 100}, {"time": 89040, "pitch": 71, "duration": 220, "velocity": 100}, {"time": 89280, "pitch": 78, "duration": 220, "velocity": 100}, {"time": 89520, "pitch": 78, "duration": 599, "velocity": 100}, {"time": 90119, "pitch": 76, "duration": 120, "velocity": 100}, {"time": 90239, "pitch": 74, "duration": 240, "velocity": 100}, {"time": 91678, "pitch": 72, "duration": 480, "velocity": 100}, {"time": 92158, "pitch": 71, "duration": 120, "velocity": 100}, {"time": 92278, "pitch": 71, "duration": 120, "velocity": 100}, {"time": 92398, "pitch": 69, "duration": 120, "velocity": 100}, {"time": 92518, "pitch": 67, "duration": 120, "velocity": 100}, {"time": 92638, "pitch": 71, "duration": 119, "velocity": 100}, {"time": 92757, "pitch": 74, "duration": 240, "velocity": 100}, {"time": 92997, "pitch": 74, "duration": 606, "velocity": 100}, {"time": 95042, "pitch": 79, "duration": 240, "velocity": 100}, {"time": 95282, "pitch": 78, "duration": 239, "velocity": 100}, {"time": 95521, "pitch": 74, "duration": 240, "velocity": 100}, {"time": 95761, "pitch": 71, "duration": 240, "velocity": 100}, {"time": 96481, "pitch": 71, "duration": 120, "velocity": 100}, {"time": 96601, "pitch": 74, "duration": 240, "velocity": 100}, {"time": 96841, "pitch": 74, "duration": 599, "velocity": 100}, {"time": 98879, "pitch": 72, "duration": 720, "velocity": 100}, {"time": 99599, "pitch": 71, "duration": 719, "velocity": 100}, {"time": 100318, "pitch": 71, "duration": 120, "velocity": 100}, {"time": 100438, "pitch": 69, "duration": 120, "velocity": 100}, {"time": 100558, "pitch": 67, "duration": 240, "velocity": 100}, {"time": 100798, "pitch": 74, "duration": 479, "velocity": 100}, {"time": 102722, "pitch": 72, "duration": 720, "velocity": 100}, {"time": 103442, "pitch": 71, "duration": 719, "velocity": 100}, {"time": 104161, "pitch": 71, "duration": 120, "velocity": 100}, {"time": 104281, "pitch": 69, "duration": 120, "velocity": 100}, {"time": 104401, "pitch": 67, "duration": 240, "velocity": 100}, {"time": 104641, "pitch": 74, "duration": 480, "velocity": 100}, {"time": 108958, "pitch": 69, "duration": 240, "velocity": 100}, {"time": 109198, "pitch": 66, "duration": 119, "velocity": 100}, {"time": 109317, "pitch": 69, "duration": 120, "velocity": 100}, {"time": 109917, "pitch": 69, "duration": 121, "velocity": 100}, {"time": 110160, "pitch": 66, "duration": 121, "velocity": 100}, {"time": 110281, "pitch": 69, "duration": 122, "velocity": 100}, {"time": 110403, "pitch": 71, "duration": 120, "velocity": 100}, {"time": 110523, "pitch": 69, "duration": 120, "velocity": 100}, {"time": 110643, "pitch": 71, "duration": 239, "velocity": 100}, {"time": 112801, "pitch": 71, "duration": 120, "velocity": 100}, {"time": 112921, "pitch": 74, "duration": 120, "velocity": 100}, {"time": 113161, "pitch": 71, "duration": 120, "velocity": 100}, {"time": 113281, "pitch": 74, "duration": 239, "velocity": 100}, {"time": 113520, "pitch": 74, "duration": 120, "velocity": 100}, {"time": 113760, "pitch": 74, "duration": 360, "velocity": 100}, {"time": 114120, "pitch": 66, "duration": 120, "velocity": 100}, {"time": 114240, "pitch": 66, "duration": 240, "velocity": 100}, {"time": 114480, "pitch": 69, "duration": 120, "velocity": 100}, {"time": 115799, "pitch": 66, "duration": 120, "velocity": 100}, {"time": 115919, "pitch": 69, "duration": 120, "velocity": 100}, {"time": 116638, "pitch": 69, "duration": 240, "velocity": 100}, {"time": 116878, "pitch": 66, "duration": 120, "velocity": 100}, {"time": 116998, "pitch": 69, "duration": 120, "velocity": 100}, {"time": 117478, "pitch": 66, "duration": 119, "velocity": 100}, {"time": 117597, "pitch": 69, "duration": 120, "velocity": 100}, {"time": 117717, "pitch": 66, "duration": 120, "velocity": 100}, {"time": 117837, "pitch": 66, "duration": 120, "velocity": 100}, {"time": 117957, "pitch": 69, "duration": 120, "velocity": 100}, {"time": 118077, "pitch": 71, "duration": 243, "velocity": 100}, {"time": 118320, "pitch": 71, "duration": 243, "velocity": 100}, {"time": 120601, "pitch": 71, "duration": 120, "velocity": 100}, {"time": 120721, "pitch": 74, "duration": 120, "velocity": 100}, {"time": 120841, "pitch": 71, "duration": 120, "velocity": 100}, {"time": 120961, "pitch": 74, "duration": 120, "velocity": 100}, {"time": 121081, "pitch": 74, "duration": 120, "velocity": 100}, {"time": 121201, "pitch": 74, "duration": 120, "velocity": 100}, {"time": 121321, "pitch": 74, "duration": 120, "velocity": 100}, {"time": 121441, "pitch": 74, "duration": 120, "velocity": 100}, {"time": 121561, "pitch": 66, "duration": 120, "velocity": 100}, {"time": 121681, "pitch": 66, "duration": 119, "velocity": 100}, {"time": 121800, "pitch": 66, "duration": 120, "velocity": 100}, {"time": 121920, "pitch": 66, "duration": 120, "velocity": 100}, {"time": 122040, "pitch": 69, "duration": 240, "velocity": 100}, {"time": 122280, "pitch": 69, "duration": 480, "velocity": 100}, {"time": 124079, "pitch": 78, "duration": 220, "velocity": 100}, {"time": 124319, "pitch": 78, "duration": 219, "velocity": 100}, {"time": 124558, "pitch": 78, "duration": 120, "velocity": 100}, {"time": 124678, "pitch": 78, "duration": 340, "velocity": 100}, {"time": 125038, "pitch": 78, "duration": 220, "velocity": 100}, {"time": 125278, "pitch": 76, "duration": 360, "velocity": 100}, {"time": 125638, "pitch": 74, "duration": 120, "velocity": 100}, {"time": 125758, "pitch": 76, "duration": 219, "velocity": 100}, {"time": 125997, "pitch": 74, "duration": 120, "velocity": 100}, {"time": 126117, "pitch": 71, "duration": 485, "velocity": 100}, {"time": 128162, "pitch": 71, "duration": 180, "velocity": 100}, {"time": 128342, "pitch": 74, "duration": 180, "velocity": 100}, {"time": 128522, "pitch": 71, "duration": 120, "velocity": 100}, {"time": 128642, "pitch": 74, "duration": 599, "velocity": 100}, {"time": 129361, "pitch": 71, "duration": 240, "velocity": 100}, {"time": 129601, "pitch": 78, "duration": 220, "velocity": 100}, {"time": 129841, "pitch": 78, "duration": 719, "velocity": 100}, {"time": 131759, "pitch": 78, "duration": 220, "velocity": 100}, {"time": 131999, "pitch": 78, "duration": 220, "velocity": 100}, {"time": 132239, "pitch": 78, "duration": 120, "velocity": 100}, {"time": 132359, "pitch": 78, "duration": 340, "velocity": 100}, {"time": 132719, "pitch": 78, "duration": 219, "velocity": 100}, {"time": 132958, "pitch": 76, "duration": 360, "velocity": 100}, {"time": 133318, "pitch": 74, "duration": 120, "velocity": 100}, {"time": 133438, "pitch": 76, "duration": 220, "velocity": 100}, {"time": 133678, "pitch": 74, "duration": 120, "velocity": 100}, {"time": 133798, "pitch": 71, "duration": 479, "velocity": 100}, {"time": 136322, "pitch": 71, "duration": 180, "velocity": 100}, {"time": 136502, "pitch": 74, "duration": 180, "velocity": 100}, {"time": 136682, "pitch": 71, "duration": 120, "velocity": 100}, {"time": 136802, "pitch": 74, "duration": 219, "velocity": 100}, {"time": 137041, "pitch": 71, "duration": 220, "velocity": 100}, {"time": 137281, "pitch": 78, "duration": 220, "velocity": 100}, {"time": 137521, "pitch": 78, "duration": 600, "velocity": 100}, {"time": 138121, "pitch": 76, "duration": 120, "velocity": 100}, {"time": 138241, "pitch": 74, "duration": 239, "velocity": 100}, {"time": 139680, "pitch": 72, "duration": 479, "velocity": 100}, {"time": 140159, "pitch": 71, "duration": 120, "velocity": 100}, {"time": 140279, "pitch": 71, "duration": 120, "velocity": 100}, {"time": 140399, "pitch": 69, "duration": 120, "velocity": 100}, {"time": 140519, "pitch": 67, "duration": 120, "velocity": 100}, {"time": 140639, "pitch": 71, "duration": 120, "velocity": 100}, {"time": 140759, "pitch": 74, "duration": 240, "velocity": 100}, {"time": 140999, "pitch": 74, "duration": 599, "velocity": 100}, {"time": 143037, "pitch": 79, "duration": 243, "velocity": 100}, {"time": 143280, "pitch": 78, "duration": 243, "velocity": 100}, {"time": 143523, "pitch": 74, "duration": 240, "velocity": 100}, {"time": 143763, "pitch": 71, "duration": 239, "velocity": 100}, {"time": 144482, "pitch": 71, "duration": 120, "velocity": 100}, {"time": 144602, "pitch": 74, "duration": 240, "velocity": 100}, {"time": 144842, "pitch": 74, "duration": 599, "velocity": 100}, {"time": 146880, "pitch": 72, "duration": 720, "velocity": 100}, {"time": 147600, "pitch": 71, "duration": 719, "velocity": 100}, {"time": 148319, "pitch": 71, "duration": 120, "velocity": 100}, {"time": 148439, "pitch": 69, "duration": 120, "velocity": 100}, {"time": 148559, "pitch": 67, "duration": 240, "velocity": 100}, {"time": 148799, "pitch": 74, "duration": 480, "velocity": 100}, {"time": 150717, "pitch": 72, "duration": 966, "velocity": 100}, {"time": 151683, "pitch": 71, "duration": 480, "velocity": 100}, {"time": 152163, "pitch": 71, "duration": 119, "velocity": 100}, {"time": 152282, "pitch": 69, "duration": 120, "velocity": 100}, {"time": 152402, "pitch": 67, "duration": 240, "velocity": 100}, {"time": 152642, "pitch": 74, "duration": 480, "velocity": 100}, {"time": 154561, "pitch": 72, "duration": 719, "velocity": 100}, {"time": 155280, "pitch": 71, "duration": 720, "velocity": 100}, {"time": 156000, "pitch": 71, "duration": 120, "velocity": 100}, {"time": 156120, "pitch": 69, "duration": 120, "velocity": 100}, {"time": 156240, "pitch": 67, "duration": 239, "velocity": 100}, {"time": 156479, "pitch": 74, "duration": 480, "velocity": 100}, {"time": 158398, "pitch": 72, "duration": 719, "velocity": 100}, {"time": 159117, "pitch": 71, "duration": 726, "velocity": 100}, {"time": 159843, "pitch": 71, "duration": 120, "velocity": 100}, {"time": 159963, "pitch": 69, "duration": 120, "velocity": 100}, {"time": 160083, "pitch": 67, "duration": 240, "velocity": 100}, {"time": 160323, "pitch": 74, "duration": 479, "velocity": 100}, {"time": 162241, "pitch": 72, "duration": 720, "velocity": 100}, {"time": 162961, "pitch": 71, "duration": 719, "velocity": 100}, {"time": 163680, "pitch": 71, "duration": 120, "velocity": 100}, {"time": 163800, "pitch": 69, "duration": 120, "velocity": 100}, {"time": 163920, "pitch": 67, "duration": 240, "velocity": 100}, {"time": 164160, "pitch": 74, "duration": 479, "velocity": 100}, {"time": 166078, "pitch": 72, "duration": 720, "velocity": 100}, {"time": 166798, "pitch": 71, "duration": 719, "velocity": 100}, {"time": 167517, "pitch": 71, "duration": 120, "velocity": 100}, {"time": 167637, "pitch": 69, "duration": 120, "velocity": 100}, {"time": 167757, "pitch": 67, "duration": 240, "velocity": 100}, {"time": 167997, "pitch": 74, "duration": 486, "velocity": 100}], "annotations": [{"time": 80, "annotation": {"number": 7, "value": 80}, "group": "control_change"}, {"time": 86, "annotation": {"number": 10, "value": 64}, "group": "control_change"}, {"time": 92, "annotation": {"number": 11, "value": 100}, "group": "control_change"}, {"time": 98, "annotation": {"number": 91, "value": 40}, "group": "control_change"}, {"time": 104, "annotation": {"number": 93, "value": 0}, "group": "control_change"}, {"time": 178, "annotation": {"number": 101, "value": 0}, "group": "control_change"}, {"time": 184, "annotation": {"number": 100, "value": 0}, "group": "control_change"}, {"time": 190, "annotation": {"number": 6, "value": 12}, "group": "control_change"}, {"time": 196, "annotation": {"number": 1, "value": 0}, "group": "control_change"}, {"time": 209, "annotation": {"number": 64, "value": 0}, "group": "control_change"}]}, {"program": 0, "is_drum": false, "name": "Ac.Guitar L", "annotations": [{"time": 61, "annotation": {"number": 0, "value": 8}, "group": "control_change"}, {"time": 67, "annotation": {"number": 32, "value": 2}, "group": "control_change"}]}, {"program": 25, "is_drum": false, "name": "Ac.Guitar L", "notes": [{"time": 940, "pitch": 45, "duration": 480, "velocity": 120}, {"time": 950, "pitch": 50, "duration": 480, "velocity": 105}, {"time": 960, "pitch": 57, "duration": 480, "velocity": 110}, {"time": 970, "pitch": 62, "duration": 480, "velocity": 115}, {"time": 980, "pitch": 66, "duration": 480, "velocity": 120}, {"time": 1421, "pitch": 45, "duration": 399, "velocity": 120}, {"time": 1431, "pitch": 50, "duration": 379, "velocity": 105}, {"time": 1441, "pitch": 57, "duration": 359, "velocity": 110}, {"time": 1451, "pitch": 62, "duration": 339, "velocity": 115}, {"time": 1461, "pitch": 66, "duration": 319, "velocity": 120}, {"time": 1780, "pitch": 66, "duration": 160, "velocity": 110}, {"time": 1790, "pitch": 62, "duration": 140, "velocity": 105}, {"time": 1800, "pitch": 57, "duration": 120, "velocity": 100}, {"time": 1810, "pitch": 50, "duration": 100, "velocity": 95}, {"time": 1820, "pitch": 45, "duration": 80, "velocity": 110}, {"time": 1900, "pitch": 45, "duration": 162, "velocity": 120}, {"time": 1910, "pitch": 50, "duration": 152, "velocity": 105}, {"time": 1920, "pitch": 57, "duration": 142, "velocity": 110}, {"time": 1930, "pitch": 62, "duration": 132, "velocity": 115}, {"time": 1940, "pitch": 67, "duration": 122, "velocity": 120}, {"time": 2143, "pitch": 66, "duration": 483, "velocity": 120}, {"time": 2153, "pitch": 62, "duration": 483, "velocity": 115}, {"time": 2163, "pitch": 57, "duration": 483, "velocity": 110}, {"time": 2173, "pitch": 50, "duration": 483, "velocity": 105}, {"time": 2183, "pitch": 45, "duration": 483, "velocity": 120}, {"time": 2626, "pitch": 66, "duration": 220, "velocity": 110}, {"time": 2636, "pitch": 62, "duration": 210, "velocity": 105}, {"time": 2646, "pitch": 57, "duration": 200, "velocity": 100}, {"time": 2656, "pitch": 50, "duration": 190, "velocity": 95}, {"time": 2666, "pitch": 45, "duration": 180, "velocity": 110}, {"time": 2866, "pitch": 48, "duration": 399, "velocity": 120}, {"time": 2876, "pitch": 52, "duration": 379, "velocity": 105}, {"time": 2886, "pitch": 55, "duration": 359, "velocity": 110}, {"time": 2896, "pitch": 60, "duration": 339, "velocity": 115}, {"time": 2906, "pitch": 64, "duration": 319, "velocity": 120}, {"time": 3225, "pitch": 64, "duration": 160, "velocity": 100}, {"time": 3235, "pitch": 60, "duration": 140, "velocity": 95}, {"time": 3245, "pitch": 55, "duration": 120, "velocity": 90}, {"time": 3255, "pitch": 52, "duration": 100, "velocity": 85}, {"time": 3265, "pitch": 48, "duration": 80, "velocity": 100}, {"time": 3345, "pitch": 48, "duration": 400, "velocity": 120}, {"time": 3355, "pitch": 52, "duration": 380, "velocity": 105}, {"time": 3365, "pitch": 55, "duration": 360, "velocity": 110}, {"time": 3375, "pitch": 60, "duration": 340, "velocity": 115}, {"time": 3385, "pitch": 64, "duration": 320, "velocity": 120}, {"time": 3705, "pitch": 64, "duration": 160, "velocity": 100}, {"time": 3715, "pitch": 59, "duration": 140, "velocity": 95}, {"time": 3725, "pitch": 55, "duration": 120, "velocity": 90}, {"time": 3735, "pitch": 52, "duration": 100, "velocity": 85}, {"time": 3745, "pitch": 47, "duration": 80, "velocity": 100}, {"time": 3825, "pitch": 47, "duration": 480, "velocity": 120}, {"time": 3835, "pitch": 52, "duration": 480, "velocity": 105}, {"time": 3845, "pitch": 55, "duration": 480, "velocity": 110}, {"time": 3855, "pitch": 59, "duration": 479, "velocity": 115}, {"time": 3865, "pitch": 64, "duration": 479, "velocity": 120}, {"time": 4305, "pitch": 45, "duration": 159, "velocity": 110}, {"time": 4315, "pitch": 52, "duration": 139, "velocity": 95}, {"time": 4325, "pitch": 55, "duration": 119, "velocity": 100}, {"time": 4334, "pitch": 60, "duration": 100, "velocity": 105}, {"time": 4344, "pitch": 64, "duration": 80, "velocity": 110}, {"time": 4424, "pitch": 64, "duration": 160, "velocity": 105}, {"time": 4434, "pitch": 60, "duration": 140, "velocity": 100}, {"time": 4444, "pitch": 55, "duration": 120, "velocity": 95}, {"time": 4454, "pitch": 52, "duration": 100, "velocity": 90}, {"time": 4464, "pitch": 45, "duration": 80, "velocity": 105}, {"time": 4544, "pitch": 45, "duration": 220, "velocity": 110}, {"time": 4554, "pitch": 52, "duration": 210, "velocity": 95}, {"time": 4564, "pitch": 55, "duration": 200, "velocity": 100}, {"time": 4574, "pitch": 60, "duration": 190, "velocity": 105}, {"time": 4584, "pitch": 64, "duration": 180, "velocity": 110}, {"time": 4784, "pitch": 45, "duration": 480, "velocity": 120}, {"time": 4794, "pitch": 50, "duration": 480, "velocity": 105}, {"time": 4804, "pitch": 57, "duration": 480, "velocity": 110}, {"time": 4814, "pitch": 62, "duration": 480, "velocity": 115}, {"time": 4824, "pitch": 66, "duration": 480, "velocity": 120}, {"time": 5264, "pitch": 45, "duration": 400, "velocity": 120}, {"time": 5274, "pitch": 50, "duration": 380, "velocity": 105}, {"time": 5284, "pitch": 57, "duration": 360, "velocity": 110}, {"time": 5294, "pitch": 62, "duration": 340, "velocity": 115}, {"time": 5304, "pitch": 66, "duration": 320, "velocity": 120}, {"time": 5624, "pitch": 66, "duration": 159, "velocity": 110}, {"time": 5634, "pitch": 62, "duration": 139, "velocity": 105}, {"time": 5644, "pitch": 57, "duration": 119, "velocity": 100}, {"time": 5654, "pitch": 50, "duration": 99, "velocity": 95}, {"time": 5664, "pitch": 45, "duration": 79, "velocity": 110}, {"time": 5743, "pitch": 45, "duration": 160, "velocity": 120}, {"time": 5753, "pitch": 50, "duration": 150, "velocity": 105}, {"time": 5763, "pitch": 57, "duration": 140, "velocity": 110}, {"time": 5773, "pitch": 62, "duration": 130, "velocity": 115}, {"time": 5783, "pitch": 67, "duration": 120, "velocity": 120}, {"time": 5983, "pitch": 66, "duration": 480, "velocity": 120}, {"time": 5993, "pitch": 62, "duration": 480, "velocity": 115}, {"time": 6003, "pitch": 57, "duration": 480, "velocity": 110}, {"time": 6013, "pitch": 50, "duration": 480, "velocity": 105}, {"time": 6023, "pitch": 45, "duration": 480, "velocity": 120}, {"time": 6463, "pitch": 66, "duration": 220, "velocity": 110}, {"time": 6473, "pitch": 62, "duration": 210, "velocity": 105}, {"time": 6483, "pitch": 57, "duration": 200, "velocity": 100}, {"time": 6493, "pitch": 50, "duration": 190, "velocity": 95}, {"time": 6503, "pitch": 45, "duration": 180, "velocity": 110}, {"time": 6703, "pitch": 48, "duration": 399, "velocity": 120}, {"time": 6713, "pitch": 52, "duration": 379, "velocity": 105}, {"time": 6723, "pitch": 55, "duration": 359, "velocity": 110}, {"time": 6733, "pitch": 60, "duration": 339, "velocity": 115}, {"time": 6743, "pitch": 64, "duration": 319, "velocity": 120}, {"time": 7062, "pitch": 64, "duration": 160, "velocity": 100}, {"time": 7072, "pitch": 60, "duration": 140, "velocity": 95}, {"time": 7082, "pitch": 55, "duration": 120, "velocity": 90}, {"time": 7092, "pitch": 52, "duration": 100, "velocity": 85}, {"time": 7102, "pitch": 48, "duration": 80, "velocity": 100}, {"time": 7182, "pitch": 48, "duration": 400, "velocity": 120}, {"time": 7192, "pitch": 52, "duration": 380, "velocity": 105}, {"time": 7202, "pitch": 55, "duration": 360, "velocity": 110}, {"time": 7212, "pitch": 60, "duration": 340, "velocity": 115}, {"time": 7222, "pitch": 64, "duration": 320, "velocity": 120}, {"time": 7542, "pitch": 64, "duration": 160, "velocity": 100}, {"time": 7552, "pitch": 59, "duration": 140, "velocity": 95}, {"time": 7562, "pitch": 55, "duration": 120, "velocity": 90}, {"time": 7572, "pitch": 52, "duration": 100, "velocity": 85}, {"time": 7582, "pitch": 47, "duration": 80, "velocity": 100}, {"time": 7662, "pitch": 47, "duration": 480, "velocity": 120}, {"time": 7672, "pitch": 52, "duration": 480, "velocity": 105}, {"time": 7682, "pitch": 55, "duration": 480, "velocity": 110}, {"time": 7692, "pitch": 59, "duration": 480, "velocity": 115}, {"time": 7702, "pitch": 64, "duration": 480, "velocity": 120}, {"time": 8142, "pitch": 45, "duration": 160, "velocity": 110}, {"time": 8152, "pitch": 52, "duration": 140, "velocity": 95}, {"time": 8162, "pitch": 55, "duration": 120, "velocity": 100}, {"time": 8172, "pitch": 60, "duration": 100, "velocity": 105}, {"time": 8182, "pitch": 64, "duration": 80, "velocity": 110}, {"time": 8262, "pitch": 64, "duration": 159, "velocity": 105}, {"time": 8272, "pitch": 60, "duration": 140, "velocity": 100}, {"time": 8282, "pitch": 55, "duration": 120, "velocity": 95}, {"time": 8292, "pitch": 52, "duration": 100, "velocity": 90}, {"time": 8302, "pitch": 45, "duration": 80, "velocity": 105}, {"time": 8382, "pitch": 45, "duration": 219, "velocity": 110}, {"time": 8392, "pitch": 52, "duration": 209, "velocity": 95}, {"time": 8402, "pitch": 55, "duration": 199, "velocity": 100}, {"time": 8412, "pitch": 60, "duration": 189, "velocity": 105}, {"time": 8421, "pitch": 64, "duration": 180, "velocity": 110}, {"time": 8621, "pitch": 45, "duration": 480, "velocity": 120}, {"time": 8631, "pitch": 50, "duration": 480, "velocity": 105}, {"time": 8641, "pitch": 57, "duration": 480, "velocity": 110}, {"time": 8651, "pitch": 62, "duration": 480, "velocity": 115}, {"time": 8661, "pitch": 66, "duration": 480, "velocity": 120}, {"time": 9101, "pitch": 45, "duration": 400, "velocity": 120}, {"time": 9111, "pitch": 50, "duration": 380, "velocity": 105}, {"time": 9121, "pitch": 57, "duration": 360, "velocity": 110}, {"time": 9131, "pitch": 62, "duration": 340, "velocity": 115}, {"time": 9141, "pitch": 66, "duration": 320, "velocity": 120}, {"time": 9461, "pitch": 66, "duration": 160, "velocity": 110}, {"time": 9471, "pitch": 62, "duration": 140, "velocity": 105}, {"time": 9481, "pitch": 57, "duration": 120, "velocity": 100}, {"time": 9491, "pitch": 50, "duration": 100, "velocity": 95}, {"time": 9501, "pitch": 45, "duration": 80, "velocity": 110}, {"time": 9581, "pitch": 45, "duration": 160, "velocity": 120}, {"time": 9591, "pitch": 50, "duration": 150, "velocity": 105}, {"time": 9601, "pitch": 57, "duration": 140, "velocity": 110}, {"time": 9611, "pitch": 62, "duration": 130, "velocity": 115}, {"time": 9621, "pitch": 67, "duration": 120, "velocity": 120}, {"time": 9820, "pitch": 66, "duration": 483, "velocity": 120}, {"time": 9830, "pitch": 62, "duration": 483, "velocity": 115}, {"time": 9840, "pitch": 57, "duration": 483, "velocity": 110}, {"time": 9850, "pitch": 50, "duration": 483, "velocity": 105}, {"time": 9860, "pitch": 45, "duration": 483, "velocity": 120}, {"time": 10303, "pitch": 66, "duration": 223, "velocity": 110}, {"time": 10313, "pitch": 62, "duration": 213, "velocity": 105}, {"time": 10323, "pitch": 57, "duration": 203, "velocity": 100}, {"time": 10333, "pitch": 50, "duration": 193, "velocity": 95}, {"time": 10343, "pitch": 45, "duration": 183, "velocity": 110}, {"time": 10546, "pitch": 48, "duration": 400, "velocity": 120}, {"time": 10556, "pitch": 52, "duration": 380, "velocity": 105}, {"time": 10566, "pitch": 55, "duration": 360, "velocity": 110}, {"time": 10576, "pitch": 60, "duration": 340, "velocity": 115}, {"time": 10586, "pitch": 64, "duration": 320, "velocity": 120}, {"time": 10906, "pitch": 64, "duration": 160, "velocity": 100}, {"time": 10916, "pitch": 60, "duration": 140, "velocity": 95}, {"time": 10926, "pitch": 55, "duration": 120, "velocity": 90}, {"time": 10936, "pitch": 52, "duration": 100, "velocity": 85}, {"time": 10946, "pitch": 48, "duration": 80, "velocity": 100}, {"time": 11026, "pitch": 48, "duration": 399, "velocity": 120}, {"time": 11036, "pitch": 52, "duration": 379, "velocity": 105}, {"time": 11046, "pitch": 55, "duration": 359, "velocity": 110}, {"time": 11056, "pitch": 60, "duration": 339, "velocity": 115}, {"time": 11066, "pitch": 64, "duration": 319, "velocity": 120}, {"time": 11385, "pitch": 64, "duration": 160, "velocity": 100}, {"time": 11395, "pitch": 59, "duration": 140, "velocity": 95}, {"time": 11405, "pitch": 55, "duration": 120, "velocity": 90}, {"time": 11415, "pitch": 52, "duration": 100, "velocity": 85}, {"time": 11425, "pitch": 47, "duration": 80, "velocity": 100}, {"time": 11505, "pitch": 47, "duration": 480, "velocity": 120}, {"time": 11515, "pitch": 52, "duration": 480, "velocity": 105}, {"time": 11525, "pitch": 55, "duration": 480, "velocity": 110}, {"time": 11535, "pitch": 59, "duration": 480, "velocity": 115}, {"time": 11545, "pitch": 64, "duration": 480, "velocity": 120}, {"time": 11985, "pitch": 45, "duration": 160, "velocity": 110}, {"time": 11995, "pitch": 52, "duration": 140, "velocity": 95}, {"time": 12005, "pitch": 55, "duration": 120, "velocity": 100}, {"time": 12015, "pitch": 60, "duration": 100, "velocity": 105}, {"time": 12025, "pitch": 64, "duration": 80, "velocity": 110}, {"time": 12105, "pitch": 64, "duration": 160, "velocity": 105}, {"time": 12115, "pitch": 60, "duration": 140, "velocity": 100}, {"time": 12125, "pitch": 55, "duration": 120, "velocity": 95}, {"time": 12135, "pitch": 52, "duration": 100, "velocity": 90}, {"time": 12145, "pitch": 45, "duration": 80, "velocity": 105}, {"time": 12225, "pitch": 45, "duration": 220, "velocity": 110}, {"time": 12235, "pitch": 52, "duration": 210, "velocity": 95}, {"time": 12245, "pitch": 55, "duration": 200, "velocity": 100}, {"time": 12255, "pitch": 60, "duration": 190, "velocity": 105}, {"time": 12265, "pitch": 64, "duration": 180, "velocity": 110}, {"time": 12465, "pitch": 45, "duration": 479, "velocity": 120}, {"time": 12475, "pitch": 50, "duration": 479, "velocity": 105}, {"time": 12485, "pitch": 57, "duration": 479, "velocity": 110}, {"time": 12495, "pitch": 62, "duration": 479, "velocity": 115}, {"time": 12505, "pitch": 66, "duration": 479, "velocity": 120}, {"time": 12944, "pitch": 45, "duration": 400, "velocity": 120}, {"time": 12954, "pitch": 50, "duration": 380, "velocity": 105}, {"time": 12964, "pitch": 57, "duration": 360, "velocity": 110}, {"time": 12974, "pitch": 62, "duration": 340, "velocity": 115}, {"time": 12984, "pitch": 66, "duration": 320, "velocity": 120}, {"time": 13304, "pitch": 66, "duration": 160, "velocity": 110}, {"time": 13314, "pitch": 62, "duration": 140, "velocity": 105}, {"time": 13324, "pitch": 57, "duration": 120, "velocity": 100}, {"time": 13334, "pitch": 50, "duration": 100, "velocity": 95}, {"time": 13344, "pitch": 45, "duration": 80, "velocity": 110}, {"time": 13424, "pitch": 45, "duration": 160, "velocity": 120}, {"time": 13434, "pitch": 50, "duration": 150, "velocity": 105}, {"time": 13444, "pitch": 57, "duration": 140, "velocity": 110}, {"time": 13454, "pitch": 62, "duration": 130, "velocity": 115}, {"time": 13464, "pitch": 67, "duration": 120, "velocity": 120}, {"time": 13664, "pitch": 66, "duration": 479, "velocity": 120}, {"time": 13674, "pitch": 62, "duration": 479, "velocity": 115}, {"time": 13684, "pitch": 57, "duration": 479, "velocity": 110}, {"time": 13694, "pitch": 50, "duration": 479, "velocity": 105}, {"time": 13704, "pitch": 45, "duration": 479, "velocity": 120}, {"time": 14143, "pitch": 66, "duration": 220, "velocity": 110}, {"time": 14153, "pitch": 62, "duration": 210, "velocity": 105}, {"time": 14163, "pitch": 57, "duration": 200, "velocity": 100}, {"time": 14173, "pitch": 50, "duration": 190, "velocity": 95}, {"time": 14183, "pitch": 45, "duration": 180, "velocity": 110}, {"time": 14383, "pitch": 48, "duration": 400, "velocity": 120}, {"time": 14393, "pitch": 52, "duration": 380, "velocity": 105}, {"time": 14403, "pitch": 55, "duration": 360, "velocity": 110}, {"time": 14413, "pitch": 60, "duration": 340, "velocity": 115}, {"time": 14423, "pitch": 64, "duration": 320, "velocity": 120}, {"time": 14743, "pitch": 64, "duration": 160, "velocity": 100}, {"time": 14753, "pitch": 60, "duration": 140, "velocity": 95}, {"time": 14763, "pitch": 55, "duration": 120, "velocity": 90}, {"time": 14773, "pitch": 52, "duration": 100, "velocity": 85}, {"time": 14783, "pitch": 48, "duration": 80, "velocity": 100}, {"time": 14863, "pitch": 48, "duration": 400, "velocity": 120}, {"time": 14873, "pitch": 52, "duration": 380, "velocity": 105}, {"time": 14883, "pitch": 55, "duration": 360, "velocity": 110}, {"time": 14893, "pitch": 60, "duration": 340, "velocity": 115}, {"time": 14903, "pitch": 64, "duration": 320, "velocity": 120}, {"time": 15223, "pitch": 64, "duration": 159, "velocity": 100}, {"time": 15233, "pitch": 59, "duration": 139, "velocity": 95}, {"time": 15243, "pitch": 55, "duration": 119, "velocity": 90}, {"time": 15253, "pitch": 52, "duration": 99, "velocity": 85}, {"time": 15263, "pitch": 47, "duration": 79, "velocity": 100}, {"time": 15342, "pitch": 47, "duration": 480, "velocity": 120}, {"time": 15352, "pitch": 52, "duration": 480, "velocity": 105}, {"time": 15362, "pitch": 55, "duration": 480, "velocity": 110}, {"time": 15372, "pitch": 59, "duration": 480, "velocity": 115}, {"time": 15382, "pitch": 64, "duration": 480, "velocity": 120}, {"time": 15822, "pitch": 45, "duration": 160, "velocity": 110}, {"time": 15832, "pitch": 52, "duration": 140, "velocity": 95}, {"time": 15842, "pitch": 55, "duration": 120, "velocity": 100}, {"time": 15852, "pitch": 60, "duration": 100, "velocity": 105}, {"time": 15862, "pitch": 64, "duration": 80, "velocity": 110}, {"time": 15942, "pitch": 64, "duration": 160, "velocity": 105}, {"time": 15952, "pitch": 60, "duration": 140, "velocity": 100}, {"time": 15962, "pitch": 55, "duration": 120, "velocity": 95}, {"time": 15972, "pitch": 52, "duration": 100, "velocity": 90}, {"time": 15982, "pitch": 45, "duration": 80, "velocity": 105}, {"time": 16062, "pitch": 45, "duration": 220, "velocity": 110}, {"time": 16072, "pitch": 52, "duration": 210, "velocity": 95}, {"time": 16082, "pitch": 55, "duration": 200, "velocity": 100}, {"time": 16092, "pitch": 60, "duration": 190, "velocity": 105}, {"time": 16102, "pitch": 64, "duration": 180, "velocity": 110}, {"time": 16302, "pitch": 45, "duration": 1898, "velocity": 120}, {"time": 16322, "pitch": 50, "duration": 1878, "velocity": 105}, {"time": 16342, "pitch": 57, "duration": 1858, "velocity": 110}, {"time": 16362, "pitch": 62, "duration": 1838, "velocity": 115}, {"time": 16382, "pitch": 66, "duration": 1818, "velocity": 120}, {"time": 18220, "pitch": 47, "duration": 480, "velocity": 110}, {"time": 18230, "pitch": 52, "duration": 480, "velocity": 95}, {"time": 18240, "pitch": 56, "duration": 480, "velocity": 100}, {"time": 18250, "pitch": 59, "duration": 480, "velocity": 105}, {"time": 18260, "pitch": 64, "duration": 480, "velocity": 110}, {"time": 18700, "pitch": 47, "duration": 405, "velocity": 110}, {"time": 18710, "pitch": 52, "duration": 384, "velocity": 95}, {"time": 18720, "pitch": 56, "duration": 364, "velocity": 100}, {"time": 18730, "pitch": 59, "duration": 344, "velocity": 105}, {"time": 18740, "pitch": 64, "duration": 324, "velocity": 110}, {"time": 19064, "pitch": 64, "duration": 162, "velocity": 105}, {"time": 19074, "pitch": 59, "duration": 142, "velocity": 100}, {"time": 19084, "pitch": 56, "duration": 122, "velocity": 95}, {"time": 19094, "pitch": 52, "duration": 102, "velocity": 90}, {"time": 19105, "pitch": 47, "duration": 81, "velocity": 105}, {"time": 19186, "pitch": 47, "duration": 160, "velocity": 110}, {"time": 19196, "pitch": 52, "duration": 140, "velocity": 95}, {"time": 19206, "pitch": 56, "duration": 120, "velocity": 100}, {"time": 19216, "pitch": 59, "duration": 100, "velocity": 105}, {"time": 19226, "pitch": 64, "duration": 80, "velocity": 110}, {"time": 19306, "pitch": 64, "duration": 160, "velocity": 105}, {"time": 19316, "pitch": 59, "duration": 140, "velocity": 100}, {"time": 19326, "pitch": 56, "duration": 120, "velocity": 95}, {"time": 19336, "pitch": 52, "duration": 100, "velocity": 90}, {"time": 19346, "pitch": 47, "duration": 80, "velocity": 105}, {"time": 19426, "pitch": 47, "duration": 239, "velocity": 110}, {"time": 19436, "pitch": 52, "duration": 239, "velocity": 95}, {"time": 19446, "pitch": 56, "duration": 239, "velocity": 100}, {"time": 19456, "pitch": 59, "duration": 239, "velocity": 105}, {"time": 19466, "pitch": 64, "duration": 239, "velocity": 110}, {"time": 19665, "pitch": 47, "duration": 280, "velocity": 110}, {"time": 19675, "pitch": 52, "duration": 260, "velocity": 95}, {"time": 19685, "pitch": 56, "duration": 240, "velocity": 100}, {"time": 19695, "pitch": 59, "duration": 220, "velocity": 105}, {"time": 19705, "pitch": 64, "duration": 200, "velocity": 110}, {"time": 19905, "pitch": 64, "duration": 280, "velocity": 100}, {"time": 19915, "pitch": 59, "duration": 260, "velocity": 95}, {"time": 19925, "pitch": 56, "duration": 240, "velocity": 90}, {"time": 19935, "pitch": 52, "duration": 220, "velocity": 85}, {"time": 19945, "pitch": 47, "duration": 200, "velocity": 100}, {"time": 20145, "pitch": 47, "duration": 400, "velocity": 105}, {"time": 20155, "pitch": 50, "duration": 380, "velocity": 90}, {"time": 20165, "pitch": 55, "duration": 360, "velocity": 95}, {"time": 20175, "pitch": 59, "duration": 340, "velocity": 100}, {"time": 20185, "pitch": 67, "duration": 320, "velocity": 105}, {"time": 20505, "pitch": 67, "duration": 160, "velocity": 85}, {"time": 20515, "pitch": 59, "duration": 140, "velocity": 80}, {"time": 20525, "pitch": 55, "duration": 120, "velocity": 75}, {"time": 20535, "pitch": 50, "duration": 100, "velocity": 70}, {"time": 20545, "pitch": 47, "duration": 80, "velocity": 85}, {"time": 20625, "pitch": 47, "duration": 240, "velocity": 110}, {"time": 20635, "pitch": 50, "duration": 240, "velocity": 95}, {"time": 20645, "pitch": 55, "duration": 240, "velocity": 100}, {"time": 20655, "pitch": 59, "duration": 240, "velocity": 105}, {"time": 20665, "pitch": 67, "duration": 240, "velocity": 110}, {"time": 20865, "pitch": 47, "duration": 159, "velocity": 100}, {"time": 20875, "pitch": 50, "duration": 139, "velocity": 85}, {"time": 20885, "pitch": 55, "duration": 119, "velocity": 90}, {"time": 20895, "pitch": 59, "duration": 99, "velocity": 95}, {"time": 20905, "pitch": 67, "duration": 79, "velocity": 100}, {"time": 20984, "pitch": 67, "duration": 240, "velocity": 105}, {"time": 20994, "pitch": 59, "duration": 240, "velocity": 100}, {"time": 21004, "pitch": 55, "duration": 240, "velocity": 95}, {"time": 21014, "pitch": 50, "duration": 240, "velocity": 90}, {"time": 21024, "pitch": 47, "duration": 240, "velocity": 105}, {"time": 21224, "pitch": 67, "duration": 160, "velocity": 100}, {"time": 21234, "pitch": 59, "duration": 140, "velocity": 95}, {"time": 21244, "pitch": 55, "duration": 120, "velocity": 90}, {"time": 21254, "pitch": 50, "duration": 100, "velocity": 85}, {"time": 21264, "pitch": 47, "duration": 80, "velocity": 100}, {"time": 21344, "pitch": 47, "duration": 240, "velocity": 105}, {"time": 21354, "pitch": 50, "duration": 240, "velocity": 90}, {"time": 21364, "pitch": 55, "duration": 240, "velocity": 95}, {"time": 21374, "pitch": 59, "duration": 240, "velocity": 100}, {"time": 21384, "pitch": 67, "duration": 240, "velocity": 105}, {"time": 21584, "pitch": 47, "duration": 280, "velocity": 110}, {"time": 21594, "pitch": 50, "duration": 260, "velocity": 95}, {"time": 21604, "pitch": 55, "duration": 240, "velocity": 100}, {"time": 21614, "pitch": 59, "duration": 220, "velocity": 105}, {"time": 21624, "pitch": 67, "duration": 200, "velocity": 110}, {"time": 21824, "pitch": 67, "duration": 280, "velocity": 100}, {"time": 21834, "pitch": 59, "duration": 260, "velocity": 95}, {"time": 21844, "pitch": 55, "duration": 240, "velocity": 90}, {"time": 21854, "pitch": 50, "duration": 220, "velocity": 85}, {"time": 21864, "pitch": 47, "duration": 200, "velocity": 100}, {"time": 22064, "pitch": 45, "duration": 479, "velocity": 110}, {"time": 22074, "pitch": 50, "duration": 479, "velocity": 95}, {"time": 22084, "pitch": 57, "duration": 479, "velocity": 100}, {"time": 22094, "pitch": 62, "duration": 479, "velocity": 105}, {"time": 22104, "pitch": 66, "duration": 479, "velocity": 110}, {"time": 22543, "pitch": 45, "duration": 400, "velocity": 110}, {"time": 22553, "pitch": 50, "duration": 380, "velocity": 95}, {"time": 22563, "pitch": 57, "duration": 360, "velocity": 100}, {"time": 22573, "pitch": 62, "duration": 340, "velocity": 105}, {"time": 22583, "pitch": 66, "duration": 320, "velocity": 110}, {"time": 22903, "pitch": 66, "duration": 160, "velocity": 100}, {"time": 22913, "pitch": 62, "duration": 140, "velocity": 95}, {"time": 22923, "pitch": 57, "duration": 120, "velocity": 90}, {"time": 22933, "pitch": 50, "duration": 100, "velocity": 85}, {"time": 22943, "pitch": 45, "duration": 80, "velocity": 100}, {"time": 23023, "pitch": 45, "duration": 240, "velocity": 110}, {"time": 23033, "pitch": 50, "duration": 240, "velocity": 95}, {"time": 23043, "pitch": 57, "duration": 240, "velocity": 100}, {"time": 23053, "pitch": 62, "duration": 240, "velocity": 105}, {"time": 23063, "pitch": 67, "duration": 240, "velocity": 110}, {"time": 23263, "pitch": 45, "duration": 160, "velocity": 100}, {"time": 23273, "pitch": 50, "duration": 140, "velocity": 85}, {"time": 23283, "pitch": 57, "duration": 120, "velocity": 90}, {"time": 23293, "pitch": 62, "duration": 100, "velocity": 95}, {"time": 23303, "pitch": 66, "duration": 80, "velocity": 100}, {"time": 23383, "pitch": 64, "duration": 240, "velocity": 105}, {"time": 23393, "pitch": 62, "duration": 239, "velocity": 100}, {"time": 23403, "pitch": 57, "duration": 239, "velocity": 95}, {"time": 23413, "pitch": 50, "duration": 239, "velocity": 90}, {"time": 23423, "pitch": 45, "duration": 239, "velocity": 105}, {"time": 23623, "pitch": 64, "duration": 159, "velocity": 100}, {"time": 23632, "pitch": 62, "duration": 140, "velocity": 95}, {"time": 23642, "pitch": 57, "duration": 120, "velocity": 90}, {"time": 23652, "pitch": 50, "duration": 100, "velocity": 85}, {"time": 23662, "pitch": 45, "duration": 80, "velocity": 100}, {"time": 23742, "pitch": 45, "duration": 240, "velocity": 105}, {"time": 23752, "pitch": 50, "duration": 240, "velocity": 90}, {"time": 23762, "pitch": 57, "duration": 240, "velocity": 95}, {"time": 23772, "pitch": 62, "duration": 240, "velocity": 100}, {"time": 23782, "pitch": 67, "duration": 240, "velocity": 105}, {"time": 23982, "pitch": 45, "duration": 1899, "velocity": 120}, {"time": 24002, "pitch": 50, "duration": 1879, "velocity": 105}, {"time": 24022, "pitch": 57, "duration": 1859, "velocity": 110}, {"time": 24042, "pitch": 62, "duration": 1839, "velocity": 115}, {"time": 24062, "pitch": 66, "duration": 1819, "velocity": 120}, {"time": 25901, "pitch": 47, "duration": 479, "velocity": 110}, {"time": 25911, "pitch": 52, "duration": 479, "velocity": 95}, {"time": 25921, "pitch": 56, "duration": 479, "velocity": 100}, {"time": 25931, "pitch": 59, "duration": 479, "velocity": 105}, {"time": 25941, "pitch": 64, "duration": 479, "velocity": 110}, {"time": 26380, "pitch": 47, "duration": 400, "velocity": 110}, {"time": 26390, "pitch": 52, "duration": 380, "velocity": 95}, {"time": 26400, "pitch": 56, "duration": 360, "velocity": 100}, {"time": 26410, "pitch": 59, "duration": 340, "velocity": 105}, {"time": 26420, "pitch": 64, "duration": 320, "velocity": 110}, {"time": 26740, "pitch": 64, "duration": 160, "velocity": 105}, {"time": 26750, "pitch": 59, "duration": 140, "velocity": 100}, {"time": 26760, "pitch": 56, "duration": 120, "velocity": 95}, {"time": 26770, "pitch": 52, "duration": 100, "velocity": 90}, {"time": 26780, "pitch": 47, "duration": 80, "velocity": 105}, {"time": 26860, "pitch": 47, "duration": 162, "velocity": 110}, {"time": 26870, "pitch": 52, "duration": 142, "velocity": 95}, {"time": 26880, "pitch": 56, "duration": 122, "velocity": 100}, {"time": 26890, "pitch": 59, "duration": 101, "velocity": 105}, {"time": 26900, "pitch": 64, "duration": 81, "velocity": 110}, {"time": 26981, "pitch": 64, "duration": 162, "velocity": 105}, {"time": 26991, "pitch": 59, "duration": 142, "velocity": 100}, {"time": 27002, "pitch": 56, "duration": 121, "velocity": 95}, {"time": 27012, "pitch": 52, "duration": 101, "velocity": 90}, {"time": 27022, "pitch": 47, "duration": 81, "velocity": 105}, {"time": 27103, "pitch": 47, "duration": 243, "velocity": 110}, {"time": 27113, "pitch": 52, "duration": 243, "velocity": 95}, {"time": 27123, "pitch": 56, "duration": 243, "velocity": 100}, {"time": 27133, "pitch": 59, "duration": 243, "velocity": 105}, {"time": 27143, "pitch": 64, "duration": 243, "velocity": 110}, {"time": 27346, "pitch": 47, "duration": 280, "velocity": 110}, {"time": 27356, "pitch": 52, "duration": 260, "velocity": 95}, {"time": 27366, "pitch": 56, "duration": 240, "velocity": 100}, {"time": 27376, "pitch": 59, "duration": 220, "velocity": 105}, {"time": 27386, "pitch": 64, "duration": 200, "velocity": 110}, {"time": 27586, "pitch": 64, "duration": 279, "velocity": 100}, {"time": 27596, "pitch": 59, "duration": 259, "velocity": 95}, {"time": 27606, "pitch": 56, "duration": 239, "velocity": 90}, {"time": 27616, "pitch": 52, "duration": 219, "velocity": 85}, {"time": 27626, "pitch": 47, "duration": 200, "velocity": 100}, {"time": 27826, "pitch": 47, "duration": 399, "velocity": 105}, {"time": 27835, "pitch": 50, "duration": 380, "velocity": 90}, {"time": 27845, "pitch": 55, "duration": 360, "velocity": 95}, {"time": 27855, "pitch": 59, "duration": 340, "velocity": 100}, {"time": 27865, "pitch": 67, "duration": 320, "velocity": 105}, {"time": 28185, "pitch": 67, "duration": 160, "velocity": 85}, {"time": 28195, "pitch": 59, "duration": 140, "velocity": 80}, {"time": 28205, "pitch": 55, "duration": 120, "velocity": 75}, {"time": 28215, "pitch": 50, "duration": 100, "velocity": 70}, {"time": 28225, "pitch": 47, "duration": 80, "velocity": 85}, {"time": 28305, "pitch": 47, "duration": 240, "velocity": 110}, {"time": 28315, "pitch": 50, "duration": 240, "velocity": 95}, {"time": 28325, "pitch": 55, "duration": 240, "velocity": 100}, {"time": 28335, "pitch": 59, "duration": 240, "velocity": 105}, {"time": 28345, "pitch": 67, "duration": 240, "velocity": 110}, {"time": 28545, "pitch": 47, "duration": 160, "velocity": 100}, {"time": 28555, "pitch": 50, "duration": 140, "velocity": 85}, {"time": 28565, "pitch": 55, "duration": 120, "velocity": 90}, {"time": 28575, "pitch": 59, "duration": 100, "velocity": 95}, {"time": 28585, "pitch": 67, "duration": 80, "velocity": 100}, {"time": 28665, "pitch": 67, "duration": 240, "velocity": 105}, {"time": 28675, "pitch": 59, "duration": 240, "velocity": 100}, {"time": 28685, "pitch": 55, "duration": 240, "velocity": 95}, {"time": 28695, "pitch": 50, "duration": 240, "velocity": 90}, {"time": 28705, "pitch": 47, "duration": 240, "velocity": 105}, {"time": 28905, "pitch": 67, "duration": 160, "velocity": 100}, {"time": 28915, "pitch": 59, "duration": 140, "velocity": 95}, {"time": 28925, "pitch": 55, "duration": 120, "velocity": 90}, {"time": 28935, "pitch": 50, "duration": 100, "velocity": 85}, {"time": 28945, "pitch": 47, "duration": 80, "velocity": 100}, {"time": 29025, "pitch": 47, "duration": 239, "velocity": 105}, {"time": 29035, "pitch": 50, "duration": 239, "velocity": 90}, {"time": 29045, "pitch": 55, "duration": 239, "velocity": 95}, {"time": 29055, "pitch": 59, "duration": 239, "velocity": 100}, {"time": 29065, "pitch": 67, "duration": 239, "velocity": 105}, {"time": 29264, "pitch": 47, "duration": 280, "velocity": 110}, {"time": 29274, "pitch": 50, "duration": 260, "velocity": 95}, {"time": 29284, "pitch": 55, "duration": 240, "velocity": 100}, {"time": 29294, "pitch": 59, "duration": 220, "velocity": 105}, {"time": 29304, "pitch": 67, "duration": 200, "velocity": 110}, {"time": 29504, "pitch": 67, "duration": 280, "velocity": 100}, {"time": 29514, "pitch": 59, "duration": 260, "velocity": 95}, {"time": 29524, "pitch": 55, "duration": 240, "velocity": 90}, {"time": 29534, "pitch": 50, "duration": 220, "velocity": 85}, {"time": 29544, "pitch": 47, "duration": 200, "velocity": 100}, {"time": 29744, "pitch": 45, "duration": 480, "velocity": 110}, {"time": 29754, "pitch": 50, "duration": 480, "velocity": 95}, {"time": 29764, "pitch": 57, "duration": 480, "velocity": 100}, {"time": 29774, "pitch": 62, "duration": 480, "velocity": 105}, {"time": 29784, "pitch": 66, "duration": 480, "velocity": 110}, {"time": 30224, "pitch": 45, "duration": 399, "velocity": 110}, {"time": 30234, "pitch": 50, "duration": 379, "velocity": 95}, {"time": 30244, "pitch": 57, "duration": 359, "velocity": 100}, {"time": 30254, "pitch": 62, "duration": 339, "velocity": 105}, {"time": 30264, "pitch": 66, "duration": 319, "velocity": 110}, {"time": 30583, "pitch": 66, "duration": 160, "velocity": 100}, {"time": 30593, "pitch": 62, "duration": 140, "velocity": 95}, {"time": 30603, "pitch": 57, "duration": 120, "velocity": 90}, {"time": 30613, "pitch": 50, "duration": 100, "velocity": 85}, {"time": 30623, "pitch": 45, "duration": 80, "velocity": 100}, {"time": 30703, "pitch": 45, "duration": 240, "velocity": 110}, {"time": 30713, "pitch": 50, "duration": 240, "velocity": 95}, {"time": 30723, "pitch": 57, "duration": 240, "velocity": 100}, {"time": 30733, "pitch": 62, "duration": 240, "velocity": 105}, {"time": 30743, "pitch": 67, "duration": 240, "velocity": 110}, {"time": 30943, "pitch": 45, "duration": 160, "velocity": 100}, {"time": 30953, "pitch": 50, "duration": 140, "velocity": 85}, {"time": 30963, "pitch": 57, "duration": 120, "velocity": 90}, {"time": 30973, "pitch": 62, "duration": 100, "velocity": 95}, {"time": 30983, "pitch": 66, "duration": 80, "velocity": 100}, {"time": 31063, "pitch": 64, "duration": 240, "velocity": 105}, {"time": 31073, "pitch": 62, "duration": 240, "velocity": 100}, {"time": 31083, "pitch": 57, "duration": 240, "velocity": 95}, {"time": 31093, "pitch": 50, "duration": 240, "velocity": 90}, {"time": 31103, "pitch": 45, "duration": 240, "velocity": 105}, {"time": 31303, "pitch": 64, "duration": 160, "velocity": 100}, {"time": 31313, "pitch": 62, "duration": 140, "velocity": 95}, {"time": 31323, "pitch": 57, "duration": 120, "velocity": 90}, {"time": 31333, "pitch": 50, "duration": 100, "velocity": 85}, {"time": 31343, "pitch": 45, "duration": 80, "velocity": 100}, {"time": 31423, "pitch": 45, "duration": 240, "velocity": 105}, {"time": 31433, "pitch": 50, "duration": 240, "velocity": 90}, {"time": 31443, "pitch": 57, "duration": 240, "velocity": 95}, {"time": 31453, "pitch": 62, "duration": 240, "velocity": 100}, {"time": 31463, "pitch": 67, "duration": 240, "velocity": 105}, {"time": 31663, "pitch": 45, "duration": 479, "velocity": 120}, {"time": 31673, "pitch": 50, "duration": 479, "velocity": 105}, {"time": 31683, "pitch": 57, "duration": 479, "velocity": 110}, {"time": 31693, "pitch": 62, "duration": 479, "velocity": 115}, {"time": 31703, "pitch": 66, "duration": 479, "velocity": 120}, {"time": 32142, "pitch": 45, "duration": 400, "velocity": 120}, {"time": 32152, "pitch": 50, "duration": 380, "velocity": 105}, {"time": 32162, "pitch": 57, "duration": 360, "velocity": 110}, {"time": 32172, "pitch": 62, "duration": 340, "velocity": 115}, {"time": 32182, "pitch": 66, "duration": 320, "velocity": 120}, {"time": 32502, "pitch": 66, "duration": 160, "velocity": 110}, {"time": 32512, "pitch": 62, "duration": 140, "velocity": 105}, {"time": 32522, "pitch": 57, "duration": 120, "velocity": 100}, {"time": 32532, "pitch": 50, "duration": 100, "velocity": 95}, {"time": 32542, "pitch": 45, "duration": 80, "velocity": 110}, {"time": 32622, "pitch": 45, "duration": 280, "velocity": 120}, {"time": 32632, "pitch": 50, "duration": 260, "velocity": 105}, {"time": 32642, "pitch": 57, "duration": 240, "velocity": 110}, {"time": 32652, "pitch": 62, "duration": 220, "velocity": 115}, {"time": 32662, "pitch": 66, "duration": 200, "velocity": 120}, {"time": 32862, "pitch": 66, "duration": 280, "velocity": 110}, {"time": 32872, "pitch": 62, "duration": 260, "velocity": 105}, {"time": 32882, "pitch": 57, "duration": 240, "velocity": 100}, {"time": 32892, "pitch": 50, "duration": 220, "velocity": 95}, {"time": 32902, "pitch": 45, "duration": 200, "velocity": 110}, {"time": 33102, "pitch": 45, "duration": 160, "velocity": 110}, {"time": 33112, "pitch": 50, "duration": 140, "velocity": 95}, {"time": 33122, "pitch": 57, "duration": 120, "velocity": 100}, {"time": 33132, "pitch": 62, "duration": 100, "velocity": 105}, {"time": 33142, "pitch": 66, "duration": 80, "velocity": 110}, {"time": 33222, "pitch": 66, "duration": 159, "velocity": 105}, {"time": 33232, "pitch": 62, "duration": 139, "velocity": 100}, {"time": 33242, "pitch": 57, "duration": 119, "velocity": 95}, {"time": 33252, "pitch": 50, "duration": 99, "velocity": 90}, {"time": 33262, "pitch": 45, "duration": 79, "velocity": 105}, {"time": 33341, "pitch": 45, "duration": 220, "velocity": 110}, {"time": 33351, "pitch": 50, "duration": 210, "velocity": 95}, {"time": 33361, "pitch": 57, "duration": 200, "velocity": 100}, {"time": 33371, "pitch": 62, "duration": 190, "velocity": 105}, {"time": 33381, "pitch": 66, "duration": 180, "velocity": 110}, {"time": 33581, "pitch": 47, "duration": 480, "velocity": 110}, {"time": 33591, "pitch": 52, "duration": 480, "velocity": 95}, {"time": 33601, "pitch": 55, "duration": 480, "velocity": 100}, {"time": 33611, "pitch": 59, "duration": 480, "velocity": 105}, {"time": 33621, "pitch": 64, "duration": 480, "velocity": 110}, {"time": 34061, "pitch": 47, "duration": 400, "velocity": 110}, {"time": 34071, "pitch": 52, "duration": 380, "velocity": 95}, {"time": 34081, "pitch": 55, "duration": 360, "velocity": 100}, {"time": 34091, "pitch": 59, "duration": 340, "velocity": 105}, {"time": 34101, "pitch": 64, "duration": 320, "velocity": 110}, {"time": 34421, "pitch": 64, "duration": 160, "velocity": 105}, {"time": 34431, "pitch": 59, "duration": 140, "velocity": 100}, {"time": 34441, "pitch": 55, "duration": 120, "velocity": 95}, {"time": 34451, "pitch": 52, "duration": 100, "velocity": 90}, {"time": 34461, "pitch": 47, "duration": 80, "velocity": 105}, {"time": 34541, "pitch": 47, "duration": 159, "velocity": 110}, {"time": 34551, "pitch": 52, "duration": 139, "velocity": 95}, {"time": 34561, "pitch": 55, "duration": 119, "velocity": 100}, {"time": 34571, "pitch": 59, "duration": 99, "velocity": 105}, {"time": 34581, "pitch": 64, "duration": 79, "velocity": 110}, {"time": 34660, "pitch": 64, "duration": 160, "velocity": 105}, {"time": 34670, "pitch": 59, "duration": 140, "velocity": 100}, {"time": 34680, "pitch": 55, "duration": 120, "velocity": 95}, {"time": 34690, "pitch": 52, "duration": 100, "velocity": 90}, {"time": 34700, "pitch": 47, "duration": 80, "velocity": 105}, {"time": 34780, "pitch": 47, "duration": 240, "velocity": 110}, {"time": 34790, "pitch": 52, "duration": 240, "velocity": 95}, {"time": 34800, "pitch": 55, "duration": 240, "velocity": 100}, {"time": 34810, "pitch": 59, "duration": 240, "velocity": 105}, {"time": 34820, "pitch": 64, "duration": 240, "velocity": 110}, {"time": 35020, "pitch": 47, "duration": 283, "velocity": 110}, {"time": 35030, "pitch": 52, "duration": 263, "velocity": 95}, {"time": 35040, "pitch": 55, "duration": 243, "velocity": 100}, {"time": 35050, "pitch": 59, "duration": 223, "velocity": 105}, {"time": 35060, "pitch": 64, "duration": 203, "velocity": 110}, {"time": 35263, "pitch": 64, "duration": 283, "velocity": 100}, {"time": 35273, "pitch": 59, "duration": 263, "velocity": 95}, {"time": 35283, "pitch": 55, "duration": 243, "velocity": 90}, {"time": 35293, "pitch": 52, "duration": 223, "velocity": 85}, {"time": 35303, "pitch": 47, "duration": 203, "velocity": 100}, {"time": 35506, "pitch": 47, "duration": 400, "velocity": 105}, {"time": 35516, "pitch": 50, "duration": 380, "velocity": 90}, {"time": 35526, "pitch": 55, "duration": 360, "velocity": 95}, {"time": 35536, "pitch": 59, "duration": 340, "velocity": 100}, {"time": 35546, "pitch": 67, "duration": 320, "velocity": 105}, {"time": 35866, "pitch": 67, "duration": 160, "velocity": 85}, {"time": 35876, "pitch": 59, "duration": 140, "velocity": 80}, {"time": 35886, "pitch": 55, "duration": 120, "velocity": 75}, {"time": 35896, "pitch": 50, "duration": 100, "velocity": 70}, {"time": 35906, "pitch": 47, "duration": 80, "velocity": 85}, {"time": 35986, "pitch": 47, "duration": 239, "velocity": 110}, {"time": 35996, "pitch": 50, "duration": 239, "velocity": 95}, {"time": 36006, "pitch": 55, "duration": 239, "velocity": 100}, {"time": 36016, "pitch": 59, "duration": 239, "velocity": 105}, {"time": 36026, "pitch": 67, "duration": 239, "velocity": 110}, {"time": 36225, "pitch": 47, "duration": 160, "velocity": 100}, {"time": 36235, "pitch": 50, "duration": 140, "velocity": 85}, {"time": 36245, "pitch": 55, "duration": 120, "velocity": 90}, {"time": 36255, "pitch": 59, "duration": 100, "velocity": 95}, {"time": 36265, "pitch": 67, "duration": 80, "velocity": 100}, {"time": 36345, "pitch": 67, "duration": 240, "velocity": 105}, {"time": 36355, "pitch": 59, "duration": 240, "velocity": 100}, {"time": 36365, "pitch": 55, "duration": 240, "velocity": 95}, {"time": 36375, "pitch": 50, "duration": 240, "velocity": 90}, {"time": 36385, "pitch": 47, "duration": 240, "velocity": 105}, {"time": 36585, "pitch": 67, "duration": 160, "velocity": 100}, {"time": 36595, "pitch": 59, "duration": 140, "velocity": 95}, {"time": 36605, "pitch": 55, "duration": 120, "velocity": 90}, {"time": 36615, "pitch": 50, "duration": 100, "velocity": 85}, {"time": 36625, "pitch": 47, "duration": 80, "velocity": 100}, {"time": 36705, "pitch": 47, "duration": 240, "velocity": 105}, {"time": 36715, "pitch": 50, "duration": 240, "velocity": 90}, {"time": 36725, "pitch": 55, "duration": 240, "velocity": 95}, {"time": 36735, "pitch": 59, "duration": 240, "velocity": 100}, {"time": 36745, "pitch": 67, "duration": 240, "velocity": 105}, {"time": 36945, "pitch": 47, "duration": 280, "velocity": 110}, {"time": 36955, "pitch": 50, "duration": 260, "velocity": 95}, {"time": 36965, "pitch": 55, "duration": 240, "velocity": 100}, {"time": 36975, "pitch": 59, "duration": 220, "velocity": 105}, {"time": 36985, "pitch": 67, "duration": 200, "velocity": 110}, {"time": 37185, "pitch": 67, "duration": 280, "velocity": 100}, {"time": 37195, "pitch": 59, "duration": 260, "velocity": 95}, {"time": 37205, "pitch": 55, "duration": 240, "velocity": 90}, {"time": 37215, "pitch": 50, "duration": 220, "velocity": 85}, {"time": 37225, "pitch": 47, "duration": 200, "velocity": 100}, {"time": 37425, "pitch": 45, "duration": 479, "velocity": 110}, {"time": 37435, "pitch": 50, "duration": 479, "velocity": 95}, {"time": 37445, "pitch": 57, "duration": 479, "velocity": 100}, {"time": 37455, "pitch": 62, "duration": 479, "velocity": 105}, {"time": 37465, "pitch": 66, "duration": 479, "velocity": 110}, {"time": 37904, "pitch": 45, "duration": 400, "velocity": 110}, {"time": 37914, "pitch": 50, "duration": 380, "velocity": 95}, {"time": 37924, "pitch": 57, "duration": 360, "velocity": 100}, {"time": 37934, "pitch": 62, "duration": 340, "velocity": 105}, {"time": 37944, "pitch": 66, "duration": 320, "velocity": 110}, {"time": 38264, "pitch": 66, "duration": 160, "velocity": 100}, {"time": 38274, "pitch": 62, "duration": 140, "velocity": 95}, {"time": 38284, "pitch": 57, "duration": 120, "velocity": 90}, {"time": 38294, "pitch": 50, "duration": 100, "velocity": 85}, {"time": 38304, "pitch": 45, "duration": 80, "velocity": 100}, {"time": 38384, "pitch": 45, "duration": 240, "velocity": 110}, {"time": 38394, "pitch": 50, "duration": 240, "velocity": 95}, {"time": 38404, "pitch": 57, "duration": 240, "velocity": 100}, {"time": 38414, "pitch": 62, "duration": 240, "velocity": 105}, {"time": 38424, "pitch": 67, "duration": 240, "velocity": 110}, {"time": 38624, "pitch": 45, "duration": 160, "velocity": 100}, {"time": 38634, "pitch": 50, "duration": 140, "velocity": 85}, {"time": 38644, "pitch": 57, "duration": 120, "velocity": 90}, {"time": 38654, "pitch": 62, "duration": 100, "velocity": 95}, {"time": 38664, "pitch": 66, "duration": 80, "velocity": 100}, {"time": 38744, "pitch": 64, "duration": 239, "velocity": 105}, {"time": 38754, "pitch": 62, "duration": 239, "velocity": 100}, {"time": 38764, "pitch": 57, "duration": 239, "velocity": 95}, {"time": 38774, "pitch": 50, "duration": 239, "velocity": 90}, {"time": 38784, "pitch": 45, "duration": 239, "velocity": 105}, {"time": 38983, "pitch": 64, "duration": 160, "velocity": 100}, {"time": 38993, "pitch": 62, "duration": 140, "velocity": 95}, {"time": 39003, "pitch": 57, "duration": 120, "velocity": 90}, {"time": 39013, "pitch": 50, "duration": 100, "velocity": 85}, {"time": 39023, "pitch": 45, "duration": 80, "velocity": 100}, {"time": 39103, "pitch": 45, "duration": 240, "velocity": 105}, {"time": 39113, "pitch": 50, "duration": 240, "velocity": 90}, {"time": 39123, "pitch": 57, "duration": 240, "velocity": 95}, {"time": 39133, "pitch": 62, "duration": 240, "velocity": 100}, {"time": 39143, "pitch": 67, "duration": 240, "velocity": 105}, {"time": 39343, "pitch": 45, "duration": 480, "velocity": 120}, {"time": 39353, "pitch": 50, "duration": 480, "velocity": 105}, {"time": 39363, "pitch": 57, "duration": 480, "velocity": 110}, {"time": 39373, "pitch": 62, "duration": 480, "velocity": 115}, {"time": 39383, "pitch": 66, "duration": 480, "velocity": 120}, {"time": 39823, "pitch": 45, "duration": 399, "velocity": 120}, {"time": 39833, "pitch": 50, "duration": 380, "velocity": 105}, {"time": 39843, "pitch": 57, "duration": 360, "velocity": 110}, {"time": 39853, "pitch": 62, "duration": 340, "velocity": 115}, {"time": 39863, "pitch": 66, "duration": 320, "velocity": 120}, {"time": 40183, "pitch": 66, "duration": 159, "velocity": 110}, {"time": 40193, "pitch": 62, "duration": 139, "velocity": 105}, {"time": 40203, "pitch": 57, "duration": 119, "velocity": 100}, {"time": 40213, "pitch": 50, "duration": 99, "velocity": 95}, {"time": 40222, "pitch": 45, "duration": 80, "velocity": 110}, {"time": 40302, "pitch": 45, "duration": 280, "velocity": 120}, {"time": 40312, "pitch": 50, "duration": 260, "velocity": 105}, {"time": 40322, "pitch": 57, "duration": 240, "velocity": 110}, {"time": 40332, "pitch": 62, "duration": 220, "velocity": 115}, {"time": 40342, "pitch": 66, "duration": 200, "velocity": 120}, {"time": 40542, "pitch": 66, "duration": 280, "velocity": 110}, {"time": 40552, "pitch": 62, "duration": 260, "velocity": 105}, {"time": 40562, "pitch": 57, "duration": 240, "velocity": 100}, {"time": 40572, "pitch": 50, "duration": 220, "velocity": 95}, {"time": 40582, "pitch": 45, "duration": 200, "velocity": 110}, {"time": 40782, "pitch": 45, "duration": 160, "velocity": 110}, {"time": 40792, "pitch": 50, "duration": 140, "velocity": 95}, {"time": 40802, "pitch": 57, "duration": 120, "velocity": 100}, {"time": 40812, "pitch": 62, "duration": 100, "velocity": 105}, {"time": 40822, "pitch": 66, "duration": 80, "velocity": 110}, {"time": 40902, "pitch": 66, "duration": 160, "velocity": 105}, {"time": 40912, "pitch": 62, "duration": 140, "velocity": 100}, {"time": 40922, "pitch": 57, "duration": 120, "velocity": 95}, {"time": 40932, "pitch": 50, "duration": 100, "velocity": 90}, {"time": 40942, "pitch": 45, "duration": 80, "velocity": 105}, {"time": 41022, "pitch": 45, "duration": 220, "velocity": 110}, {"time": 41032, "pitch": 50, "duration": 210, "velocity": 95}, {"time": 41042, "pitch": 57, "duration": 200, "velocity": 100}, {"time": 41052, "pitch": 62, "duration": 190, "velocity": 105}, {"time": 41062, "pitch": 66, "duration": 180, "velocity": 110}, {"time": 41262, "pitch": 47, "duration": 479, "velocity": 110}, {"time": 41272, "pitch": 52, "duration": 479, "velocity": 95}, {"time": 41282, "pitch": 55, "duration": 479, "velocity": 100}, {"time": 41292, "pitch": 59, "duration": 479, "velocity": 105}, {"time": 41302, "pitch": 64, "duration": 479, "velocity": 110}, {"time": 41741, "pitch": 47, "duration": 400, "velocity": 110}, {"time": 41751, "pitch": 52, "duration": 380, "velocity": 95}, {"time": 41761, "pitch": 55, "duration": 360, "velocity": 100}, {"time": 41771, "pitch": 59, "duration": 340, "velocity": 105}, {"time": 41781, "pitch": 64, "duration": 320, "velocity": 110}, {"time": 42101, "pitch": 64, "duration": 160, "velocity": 105}, {"time": 42111, "pitch": 59, "duration": 140, "velocity": 100}, {"time": 42121, "pitch": 55, "duration": 120, "velocity": 95}, {"time": 42131, "pitch": 52, "duration": 100, "velocity": 90}, {"time": 42141, "pitch": 47, "duration": 80, "velocity": 105}, {"time": 42221, "pitch": 47, "duration": 160, "velocity": 110}, {"time": 42231, "pitch": 52, "duration": 140, "velocity": 95}, {"time": 42241, "pitch": 55, "duration": 120, "velocity": 100}, {"time": 42251, "pitch": 59, "duration": 100, "velocity": 105}, {"time": 42261, "pitch": 64, "duration": 80, "velocity": 110}, {"time": 42341, "pitch": 64, "duration": 160, "velocity": 105}, {"time": 42351, "pitch": 59, "duration": 140, "velocity": 100}, {"time": 42361, "pitch": 55, "duration": 120, "velocity": 95}, {"time": 42371, "pitch": 52, "duration": 100, "velocity": 90}, {"time": 42381, "pitch": 47, "duration": 80, "velocity": 105}, {"time": 42461, "pitch": 47, "duration": 240, "velocity": 110}, {"time": 42471, "pitch": 52, "duration": 240, "velocity": 95}, {"time": 42481, "pitch": 55, "duration": 240, "velocity": 100}, {"time": 42491, "pitch": 59, "duration": 240, "velocity": 105}, {"time": 42501, "pitch": 64, "duration": 240, "velocity": 110}, {"time": 42701, "pitch": 47, "duration": 279, "velocity": 110}, {"time": 42711, "pitch": 52, "duration": 259, "velocity": 95}, {"time": 42721, "pitch": 55, "duration": 239, "velocity": 100}, {"time": 42731, "pitch": 59, "duration": 219, "velocity": 105}, {"time": 42741, "pitch": 64, "duration": 199, "velocity": 110}, {"time": 42940, "pitch": 64, "duration": 281, "velocity": 100}, {"time": 42950, "pitch": 59, "duration": 260, "velocity": 95}, {"time": 42960, "pitch": 55, "duration": 240, "velocity": 90}, {"time": 42970, "pitch": 52, "duration": 220, "velocity": 85}, {"time": 42980, "pitch": 47, "duration": 200, "velocity": 100}, {"time": 43180, "pitch": 47, "duration": 405, "velocity": 105}, {"time": 43190, "pitch": 50, "duration": 385, "velocity": 90}, {"time": 43200, "pitch": 55, "duration": 365, "velocity": 95}, {"time": 43210, "pitch": 59, "duration": 345, "velocity": 100}, {"time": 43221, "pitch": 67, "duration": 323, "velocity": 105}, {"time": 43544, "pitch": 67, "duration": 162, "velocity": 85}, {"time": 43555, "pitch": 59, "duration": 141, "velocity": 80}, {"time": 43565, "pitch": 55, "duration": 121, "velocity": 75}, {"time": 43575, "pitch": 50, "duration": 101, "velocity": 70}, {"time": 43585, "pitch": 47, "duration": 81, "velocity": 85}, {"time": 43666, "pitch": 47, "duration": 240, "velocity": 110}, {"time": 43676, "pitch": 50, "duration": 240, "velocity": 95}, {"time": 43686, "pitch": 55, "duration": 240, "velocity": 100}, {"time": 43696, "pitch": 59, "duration": 240, "velocity": 105}, {"time": 43706, "pitch": 67, "duration": 240, "velocity": 110}, {"time": 43906, "pitch": 47, "duration": 160, "velocity": 100}, {"time": 43916, "pitch": 50, "duration": 140, "velocity": 85}, {"time": 43926, "pitch": 55, "duration": 120, "velocity": 90}, {"time": 43936, "pitch": 59, "duration": 100, "velocity": 95}, {"time": 43946, "pitch": 67, "duration": 80, "velocity": 100}, {"time": 44026, "pitch": 67, "duration": 240, "velocity": 105}, {"time": 44036, "pitch": 59, "duration": 240, "velocity": 100}, {"time": 44046, "pitch": 55, "duration": 240, "velocity": 95}, {"time": 44056, "pitch": 50, "duration": 240, "velocity": 90}, {"time": 44066, "pitch": 47, "duration": 240, "velocity": 105}, {"time": 44266, "pitch": 67, "duration": 159, "velocity": 100}, {"time": 44276, "pitch": 59, "duration": 139, "velocity": 95}, {"time": 44286, "pitch": 55, "duration": 120, "velocity": 90}, {"time": 44296, "pitch": 50, "duration": 100, "velocity": 85}, {"time": 44306, "pitch": 47, "duration": 80, "velocity": 100}, {"time": 44386, "pitch": 47, "duration": 239, "velocity": 105}, {"time": 44396, "pitch": 50, "duration": 239, "velocity": 90}, {"time": 44406, "pitch": 55, "duration": 239, "velocity": 95}, {"time": 44415, "pitch": 59, "duration": 240, "velocity": 100}, {"time": 44425, "pitch": 67, "duration": 240, "velocity": 105}, {"time": 44625, "pitch": 47, "duration": 280, "velocity": 110}, {"time": 44635, "pitch": 50, "duration": 260, "velocity": 95}, {"time": 44645, "pitch": 55, "duration": 240, "velocity": 100}, {"time": 44655, "pitch": 59, "duration": 220, "velocity": 105}, {"time": 44665, "pitch": 67, "duration": 200, "velocity": 110}, {"time": 44865, "pitch": 67, "duration": 280, "velocity": 100}, {"time": 44875, "pitch": 59, "duration": 260, "velocity": 95}, {"time": 44885, "pitch": 55, "duration": 240, "velocity": 90}, {"time": 44895, "pitch": 50, "duration": 220, "velocity": 85}, {"time": 44905, "pitch": 47, "duration": 200, "velocity": 100}, {"time": 45105, "pitch": 45, "duration": 480, "velocity": 110}, {"time": 45115, "pitch": 50, "duration": 480, "velocity": 95}, {"time": 45125, "pitch": 57, "duration": 480, "velocity": 100}, {"time": 45135, "pitch": 62, "duration": 480, "velocity": 105}, {"time": 45145, "pitch": 66, "duration": 480, "velocity": 110}, {"time": 45585, "pitch": 45, "duration": 399, "velocity": 110}, {"time": 45595, "pitch": 50, "duration": 379, "velocity": 95}, {"time": 45605, "pitch": 57, "duration": 359, "velocity": 100}, {"time": 45615, "pitch": 62, "duration": 339, "velocity": 105}, {"time": 45625, "pitch": 66, "duration": 319, "velocity": 110}, {"time": 45944, "pitch": 66, "duration": 160, "velocity": 100}, {"time": 45954, "pitch": 62, "duration": 140, "velocity": 95}, {"time": 45964, "pitch": 57, "duration": 120, "velocity": 90}, {"time": 45974, "pitch": 50, "duration": 100, "velocity": 85}, {"time": 45984, "pitch": 45, "duration": 80, "velocity": 100}, {"time": 46064, "pitch": 45, "duration": 240, "velocity": 110}, {"time": 46074, "pitch": 50, "duration": 240, "velocity": 95}, {"time": 46084, "pitch": 57, "duration": 240, "velocity": 100}, {"time": 46094, "pitch": 62, "duration": 240, "velocity": 105}, {"time": 46104, "pitch": 67, "duration": 240, "velocity": 110}, {"time": 46304, "pitch": 45, "duration": 160, "velocity": 100}, {"time": 46314, "pitch": 50, "duration": 140, "velocity": 85}, {"time": 46324, "pitch": 57, "duration": 120, "velocity": 90}, {"time": 46334, "pitch": 62, "duration": 100, "velocity": 95}, {"time": 46344, "pitch": 66, "duration": 80, "velocity": 100}, {"time": 46424, "pitch": 64, "duration": 240, "velocity": 105}, {"time": 46434, "pitch": 62, "duration": 240, "velocity": 100}, {"time": 46444, "pitch": 57, "duration": 240, "velocity": 95}, {"time": 46454, "pitch": 50, "duration": 240, "velocity": 90}, {"time": 46464, "pitch": 45, "duration": 240, "velocity": 105}, {"time": 46664, "pitch": 64, "duration": 160, "velocity": 100}, {"time": 46674, "pitch": 62, "duration": 140, "velocity": 95}, {"time": 46684, "pitch": 57, "duration": 120, "velocity": 90}, {"time": 46694, "pitch": 50, "duration": 100, "velocity": 85}, {"time": 46704, "pitch": 45, "duration": 80, "velocity": 100}, {"time": 46784, "pitch": 45, "duration": 240, "velocity": 105}, {"time": 46794, "pitch": 50, "duration": 240, "velocity": 90}, {"time": 46804, "pitch": 57, "duration": 240, "velocity": 95}, {"time": 46814, "pitch": 62, "duration": 240, "velocity": 100}, {"time": 46824, "pitch": 67, "duration": 240, "velocity": 105}, {"time": 47024, "pitch": 48, "duration": 399, "velocity": 120}, {"time": 47034, "pitch": 52, "duration": 379, "velocity": 105}, {"time": 47044, "pitch": 55, "duration": 359, "velocity": 110}, {"time": 47054, "pitch": 60, "duration": 339, "velocity": 115}, {"time": 47064, "pitch": 64, "duration": 319, "velocity": 120}, {"time": 47383, "pitch": 64, "duration": 160, "velocity": 100}, {"time": 47393, "pitch": 60, "duration": 140, "velocity": 95}, {"time": 47403, "pitch": 55, "duration": 120, "velocity": 90}, {"time": 47413, "pitch": 52, "duration": 100, "velocity": 85}, {"time": 47423, "pitch": 48, "duration": 80, "velocity": 100}, {"time": 47503, "pitch": 48, "duration": 400, "velocity": 120}, {"time": 47513, "pitch": 52, "duration": 380, "velocity": 105}, {"time": 47523, "pitch": 55, "duration": 360, "velocity": 110}, {"time": 47533, "pitch": 60, "duration": 340, "velocity": 115}, {"time": 47543, "pitch": 64, "duration": 320, "velocity": 120}, {"time": 47863, "pitch": 64, "duration": 160, "velocity": 100}, {"time": 47873, "pitch": 59, "duration": 140, "velocity": 95}, {"time": 47883, "pitch": 55, "duration": 120, "velocity": 90}, {"time": 47893, "pitch": 52, "duration": 100, "velocity": 85}, {"time": 47903, "pitch": 47, "duration": 80, "velocity": 100}, {"time": 47983, "pitch": 47, "duration": 480, "velocity": 120}, {"time": 47993, "pitch": 52, "duration": 480, "velocity": 105}, {"time": 48003, "pitch": 55, "duration": 480, "velocity": 110}, {"time": 48013, "pitch": 59, "duration": 480, "velocity": 115}, {"time": 48023, "pitch": 64, "duration": 479, "velocity": 120}, {"time": 48463, "pitch": 45, "duration": 159, "velocity": 110}, {"time": 48473, "pitch": 52, "duration": 139, "velocity": 95}, {"time": 48483, "pitch": 55, "duration": 119, "velocity": 100}, {"time": 48493, "pitch": 60, "duration": 99, "velocity": 105}, {"time": 48502, "pitch": 64, "duration": 80, "velocity": 110}, {"time": 48582, "pitch": 64, "duration": 160, "velocity": 105}, {"time": 48592, "pitch": 60, "duration": 140, "velocity": 100}, {"time": 48602, "pitch": 55, "duration": 120, "velocity": 95}, {"time": 48612, "pitch": 52, "duration": 100, "velocity": 90}, {"time": 48622, "pitch": 45, "duration": 80, "velocity": 105}, {"time": 48702, "pitch": 45, "duration": 220, "velocity": 110}, {"time": 48712, "pitch": 52, "duration": 210, "velocity": 95}, {"time": 48722, "pitch": 55, "duration": 200, "velocity": 100}, {"time": 48732, "pitch": 60, "duration": 190, "velocity": 105}, {"time": 48742, "pitch": 64, "duration": 180, "velocity": 110}, {"time": 48942, "pitch": 45, "duration": 480, "velocity": 120}, {"time": 48952, "pitch": 50, "duration": 480, "velocity": 105}, {"time": 48962, "pitch": 57, "duration": 480, "velocity": 110}, {"time": 48972, "pitch": 62, "duration": 480, "velocity": 115}, {"time": 48982, "pitch": 66, "duration": 480, "velocity": 120}, {"time": 49422, "pitch": 45, "duration": 400, "velocity": 120}, {"time": 49432, "pitch": 50, "duration": 380, "velocity": 105}, {"time": 49442, "pitch": 57, "duration": 360, "velocity": 110}, {"time": 49452, "pitch": 62, "duration": 340, "velocity": 115}, {"time": 49462, "pitch": 66, "duration": 320, "velocity": 120}, {"time": 49782, "pitch": 66, "duration": 159, "velocity": 110}, {"time": 49792, "pitch": 62, "duration": 139, "velocity": 105}, {"time": 49802, "pitch": 57, "duration": 119, "velocity": 100}, {"time": 49812, "pitch": 50, "duration": 99, "velocity": 95}, {"time": 49822, "pitch": 45, "duration": 79, "velocity": 110}, {"time": 49901, "pitch": 45, "duration": 160, "velocity": 120}, {"time": 49911, "pitch": 50, "duration": 150, "velocity": 105}, {"time": 49921, "pitch": 57, "duration": 140, "velocity": 110}, {"time": 49931, "pitch": 62, "duration": 130, "velocity": 115}, {"time": 49941, "pitch": 67, "duration": 120, "velocity": 120}, {"time": 50141, "pitch": 66, "duration": 480, "velocity": 120}, {"time": 50151, "pitch": 62, "duration": 480, "velocity": 115}, {"time": 50161, "pitch": 57, "duration": 480, "velocity": 110}, {"time": 50171, "pitch": 50, "duration": 480, "velocity": 105}, {"time": 50181, "pitch": 45, "duration": 480, "velocity": 120}, {"time": 50621, "pitch": 66, "duration": 220, "velocity": 110}, {"time": 50631, "pitch": 62, "duration": 210, "velocity": 105}, {"time": 50641, "pitch": 57, "duration": 200, "velocity": 100}, {"time": 50651, "pitch": 50, "duration": 190, "velocity": 95}, {"time": 50661, "pitch": 45, "duration": 180, "velocity": 110}, {"time": 50861, "pitch": 48, "duration": 399, "velocity": 120}, {"time": 50871, "pitch": 52, "duration": 379, "velocity": 105}, {"time": 50881, "pitch": 55, "duration": 359, "velocity": 110}, {"time": 50891, "pitch": 60, "duration": 339, "velocity": 115}, {"time": 50901, "pitch": 64, "duration": 320, "velocity": 120}, {"time": 51221, "pitch": 64, "duration": 159, "velocity": 100}, {"time": 51230, "pitch": 60, "duration": 140, "velocity": 95}, {"time": 51240, "pitch": 55, "duration": 120, "velocity": 90}, {"time": 51250, "pitch": 52, "duration": 100, "velocity": 85}, {"time": 51260, "pitch": 48, "duration": 80, "velocity": 100}, {"time": 51340, "pitch": 48, "duration": 400, "velocity": 120}, {"time": 51350, "pitch": 52, "duration": 380, "velocity": 105}, {"time": 51360, "pitch": 55, "duration": 360, "velocity": 110}, {"time": 51370, "pitch": 60, "duration": 340, "velocity": 115}, {"time": 51380, "pitch": 64, "duration": 320, "velocity": 120}, {"time": 51700, "pitch": 64, "duration": 160, "velocity": 100}, {"time": 51710, "pitch": 59, "duration": 140, "velocity": 95}, {"time": 51720, "pitch": 55, "duration": 120, "velocity": 90}, {"time": 51730, "pitch": 52, "duration": 100, "velocity": 85}, {"time": 51740, "pitch": 47, "duration": 80, "velocity": 100}, {"time": 51820, "pitch": 47, "duration": 486, "velocity": 120}, {"time": 51830, "pitch": 52, "duration": 486, "velocity": 105}, {"time": 51840, "pitch": 55, "duration": 486, "velocity": 110}, {"time": 51850, "pitch": 59, "duration": 486, "velocity": 115}, {"time": 51860, "pitch": 64, "duration": 486, "velocity": 120}, {"time": 52306, "pitch": 45, "duration": 160, "velocity": 110}, {"time": 52316, "pitch": 52, "duration": 140, "velocity": 95}, {"time": 52326, "pitch": 55, "duration": 120, "velocity": 100}, {"time": 52336, "pitch": 60, "duration": 100, "velocity": 105}, {"time": 52346, "pitch": 64, "duration": 80, "velocity": 110}, {"time": 52426, "pitch": 64, "duration": 160, "velocity": 105}, {"time": 52436, "pitch": 60, "duration": 140, "velocity": 100}, {"time": 52446, "pitch": 55, "duration": 120, "velocity": 95}, {"time": 52456, "pitch": 52, "duration": 100, "velocity": 90}, {"time": 52466, "pitch": 45, "duration": 80, "velocity": 105}, {"time": 52546, "pitch": 45, "duration": 219, "velocity": 110}, {"time": 52556, "pitch": 52, "duration": 209, "velocity": 95}, {"time": 52566, "pitch": 55, "duration": 199, "velocity": 100}, {"time": 52576, "pitch": 60, "duration": 189, "velocity": 105}, {"time": 52586, "pitch": 64, "duration": 179, "velocity": 110}, {"time": 52785, "pitch": 45, "duration": 480, "velocity": 120}, {"time": 52795, "pitch": 50, "duration": 480, "velocity": 105}, {"time": 52805, "pitch": 57, "duration": 480, "velocity": 110}, {"time": 52815, "pitch": 62, "duration": 480, "velocity": 115}, {"time": 52825, "pitch": 66, "duration": 480, "velocity": 120}, {"time": 53265, "pitch": 45, "duration": 400, "velocity": 120}, {"time": 53275, "pitch": 50, "duration": 380, "velocity": 105}, {"time": 53285, "pitch": 57, "duration": 360, "velocity": 110}, {"time": 53295, "pitch": 62, "duration": 340, "velocity": 115}, {"time": 53305, "pitch": 66, "duration": 320, "velocity": 120}, {"time": 53625, "pitch": 66, "duration": 160, "velocity": 110}, {"time": 53635, "pitch": 62, "duration": 140, "velocity": 105}, {"time": 53645, "pitch": 57, "duration": 120, "velocity": 100}, {"time": 53655, "pitch": 50, "duration": 100, "velocity": 95}, {"time": 53665, "pitch": 45, "duration": 80, "velocity": 110}, {"time": 53745, "pitch": 45, "duration": 160, "velocity": 120}, {"time": 53755, "pitch": 50, "duration": 150, "velocity": 105}, {"time": 53765, "pitch": 57, "duration": 140, "velocity": 110}, {"time": 53775, "pitch": 62, "duration": 130, "velocity": 115}, {"time": 53785, "pitch": 67, "duration": 120, "velocity": 120}, {"time": 53985, "pitch": 66, "duration": 479, "velocity": 120}, {"time": 53995, "pitch": 62, "duration": 479, "velocity": 115}, {"time": 54005, "pitch": 57, "duration": 479, "velocity": 110}, {"time": 54015, "pitch": 50, "duration": 479, "velocity": 105}, {"time": 54025, "pitch": 45, "duration": 479, "velocity": 120}, {"time": 54464, "pitch": 66, "duration": 220, "velocity": 110}, {"time": 54474, "pitch": 62, "duration": 210, "velocity": 105}, {"time": 54484, "pitch": 57, "duration": 200, "velocity": 100}, {"time": 54494, "pitch": 50, "duration": 190, "velocity": 95}, {"time": 54504, "pitch": 45, "duration": 180, "velocity": 110}, {"time": 54704, "pitch": 48, "duration": 400, "velocity": 120}, {"time": 54714, "pitch": 52, "duration": 380, "velocity": 105}, {"time": 54724, "pitch": 55, "duration": 360, "velocity": 110}, {"time": 54734, "pitch": 60, "duration": 340, "velocity": 115}, {"time": 54744, "pitch": 64, "duration": 320, "velocity": 120}, {"time": 55064, "pitch": 64, "duration": 160, "velocity": 100}, {"time": 55074, "pitch": 60, "duration": 140, "velocity": 95}, {"time": 55084, "pitch": 55, "duration": 120, "velocity": 90}, {"time": 55094, "pitch": 52, "duration": 100, "velocity": 85}, {"time": 55104, "pitch": 48, "duration": 80, "velocity": 100}, {"time": 55184, "pitch": 48, "duration": 399, "velocity": 120}, {"time": 55194, "pitch": 52, "duration": 379, "velocity": 105}, {"time": 55204, "pitch": 55, "duration": 359, "velocity": 110}, {"time": 55214, "pitch": 60, "duration": 339, "velocity": 115}, {"time": 55224, "pitch": 64, "duration": 319, "velocity": 120}, {"time": 55543, "pitch": 64, "duration": 160, "velocity": 100}, {"time": 55553, "pitch": 59, "duration": 140, "velocity": 95}, {"time": 55563, "pitch": 55, "duration": 120, "velocity": 90}, {"time": 55573, "pitch": 52, "duration": 100, "velocity": 85}, {"time": 55583, "pitch": 47, "duration": 80, "velocity": 100}, {"time": 55663, "pitch": 47, "duration": 480, "velocity": 120}, {"time": 55673, "pitch": 52, "duration": 480, "velocity": 105}, {"time": 55683, "pitch": 55, "duration": 480, "velocity": 110}, {"time": 55693, "pitch": 59, "duration": 480, "velocity": 115}, {"time": 55703, "pitch": 64, "duration": 480, "velocity": 120}, {"time": 56143, "pitch": 45, "duration": 160, "velocity": 110}, {"time": 56153, "pitch": 52, "duration": 140, "velocity": 95}, {"time": 56163, "pitch": 55, "duration": 120, "velocity": 100}, {"time": 56173, "pitch": 60, "duration": 100, "velocity": 105}, {"time": 56183, "pitch": 64, "duration": 80, "velocity": 110}, {"time": 56263, "pitch": 64, "duration": 160, "velocity": 105}, {"time": 56273, "pitch": 60, "duration": 140, "velocity": 100}, {"time": 56283, "pitch": 55, "duration": 120, "velocity": 95}, {"time": 56293, "pitch": 52, "duration": 100, "velocity": 90}, {"time": 56303, "pitch": 45, "duration": 80, "velocity": 105}, {"time": 56383, "pitch": 45, "duration": 220, "velocity": 110}, {"time": 56393, "pitch": 52, "duration": 210, "velocity": 95}, {"time": 56403, "pitch": 55, "duration": 200, "velocity": 100}, {"time": 56413, "pitch": 60, "duration": 190, "velocity": 105}, {"time": 56423, "pitch": 64, "duration": 180, "velocity": 110}, {"time": 56623, "pitch": 45, "duration": 479, "velocity": 120}, {"time": 56633, "pitch": 50, "duration": 479, "velocity": 105}, {"time": 56643, "pitch": 57, "duration": 479, "velocity": 110}, {"time": 56653, "pitch": 62, "duration": 479, "velocity": 115}, {"time": 56663, "pitch": 66, "duration": 479, "velocity": 120}, {"time": 57102, "pitch": 45, "duration": 400, "velocity": 120}, {"time": 57112, "pitch": 50, "duration": 380, "velocity": 105}, {"time": 57122, "pitch": 57, "duration": 360, "velocity": 110}, {"time": 57132, "pitch": 62, "duration": 340, "velocity": 115}, {"time": 57142, "pitch": 66, "duration": 320, "velocity": 120}, {"time": 57462, "pitch": 66, "duration": 160, "velocity": 110}, {"time": 57472, "pitch": 62, "duration": 140, "velocity": 105}, {"time": 57482, "pitch": 57, "duration": 120, "velocity": 100}, {"time": 57492, "pitch": 50, "duration": 100, "velocity": 95}, {"time": 57502, "pitch": 45, "duration": 80, "velocity": 110}, {"time": 57582, "pitch": 45, "duration": 160, "velocity": 120}, {"time": 57592, "pitch": 50, "duration": 150, "velocity": 105}, {"time": 57602, "pitch": 57, "duration": 140, "velocity": 110}, {"time": 57612, "pitch": 62, "duration": 130, "velocity": 115}, {"time": 57622, "pitch": 67, "duration": 120, "velocity": 120}, {"time": 57822, "pitch": 66, "duration": 479, "velocity": 120}, {"time": 57832, "pitch": 62, "duration": 479, "velocity": 115}, {"time": 57842, "pitch": 57, "duration": 479, "velocity": 110}, {"time": 57852, "pitch": 50, "duration": 479, "velocity": 105}, {"time": 57862, "pitch": 45, "duration": 479, "velocity": 120}, {"time": 58301, "pitch": 66, "duration": 220, "velocity": 110}, {"time": 58311, "pitch": 62, "duration": 210, "velocity": 105}, {"time": 58321, "pitch": 57, "duration": 200, "velocity": 100}, {"time": 58331, "pitch": 50, "duration": 190, "velocity": 95}, {"time": 58341, "pitch": 45, "duration": 180, "velocity": 110}, {"time": 58541, "pitch": 45, "duration": 480, "velocity": 110}, {"time": 58551, "pitch": 50, "duration": 480, "velocity": 95}, {"time": 58561, "pitch": 57, "duration": 480, "velocity": 100}, {"time": 58571, "pitch": 62, "duration": 480, "velocity": 105}, {"time": 58581, "pitch": 66, "duration": 480, "velocity": 110}, {"time": 59021, "pitch": 45, "duration": 400, "velocity": 110}, {"time": 59031, "pitch": 50, "duration": 380, "velocity": 95}, {"time": 59041, "pitch": 57, "duration": 360, "velocity": 100}, {"time": 59051, "pitch": 62, "duration": 340, "velocity": 105}, {"time": 59061, "pitch": 66, "duration": 320, "velocity": 110}, {"time": 59381, "pitch": 66, "duration": 159, "velocity": 100}, {"time": 59391, "pitch": 62, "duration": 139, "velocity": 95}, {"time": 59401, "pitch": 57, "duration": 119, "velocity": 90}, {"time": 59411, "pitch": 50, "duration": 100, "velocity": 85}, {"time": 59421, "pitch": 45, "duration": 80, "velocity": 100}, {"time": 59501, "pitch": 45, "duration": 239, "velocity": 110}, {"time": 59511, "pitch": 50, "duration": 239, "velocity": 95}, {"time": 59520, "pitch": 57, "duration": 240, "velocity": 100}, {"time": 59530, "pitch": 62, "duration": 240, "velocity": 105}, {"time": 59540, "pitch": 67, "duration": 240, "velocity": 110}, {"time": 59740, "pitch": 45, "duration": 160, "velocity": 100}, {"time": 59750, "pitch": 50, "duration": 140, "velocity": 85}, {"time": 59760, "pitch": 57, "duration": 120, "velocity": 90}, {"time": 59770, "pitch": 62, "duration": 100, "velocity": 95}, {"time": 59780, "pitch": 66, "duration": 80, "velocity": 100}, {"time": 59860, "pitch": 64, "duration": 241, "velocity": 105}, {"time": 59870, "pitch": 62, "duration": 241, "velocity": 100}, {"time": 59880, "pitch": 57, "duration": 242, "velocity": 95}, {"time": 59890, "pitch": 50, "duration": 242, "velocity": 90}, {"time": 59900, "pitch": 45, "duration": 242, "velocity": 105}, {"time": 60101, "pitch": 64, "duration": 162, "velocity": 100}, {"time": 60111, "pitch": 62, "duration": 142, "velocity": 95}, {"time": 60122, "pitch": 57, "duration": 121, "velocity": 90}, {"time": 60132, "pitch": 50, "duration": 101, "velocity": 85}, {"time": 60142, "pitch": 45, "duration": 81, "velocity": 100}, {"time": 60223, "pitch": 45, "duration": 243, "velocity": 105}, {"time": 60233, "pitch": 50, "duration": 243, "velocity": 90}, {"time": 60243, "pitch": 57, "duration": 243, "velocity": 95}, {"time": 60253, "pitch": 62, "duration": 243, "velocity": 100}, {"time": 60263, "pitch": 67, "duration": 243, "velocity": 105}, {"time": 60466, "pitch": 45, "duration": 1898, "velocity": 120}, {"time": 60486, "pitch": 50, "duration": 1878, "velocity": 105}, {"time": 60506, "pitch": 57, "duration": 1858, "velocity": 110}, {"time": 60526, "pitch": 62, "duration": 1838, "velocity": 115}, {"time": 60546, "pitch": 66, "duration": 1818, "velocity": 120}, {"time": 62384, "pitch": 47, "duration": 480, "velocity": 110}, {"time": 62394, "pitch": 52, "duration": 480, "velocity": 95}, {"time": 62404, "pitch": 56, "duration": 480, "velocity": 100}, {"time": 62414, "pitch": 59, "duration": 480, "velocity": 105}, {"time": 62424, "pitch": 64, "duration": 480, "velocity": 110}, {"time": 62864, "pitch": 47, "duration": 400, "velocity": 110}, {"time": 62874, "pitch": 52, "duration": 380, "velocity": 95}, {"time": 62884, "pitch": 56, "duration": 360, "velocity": 100}, {"time": 62894, "pitch": 59, "duration": 340, "velocity": 105}, {"time": 62904, "pitch": 64, "duration": 320, "velocity": 110}, {"time": 63224, "pitch": 64, "duration": 160, "velocity": 105}, {"time": 63234, "pitch": 59, "duration": 140, "velocity": 100}, {"time": 63244, "pitch": 56, "duration": 120, "velocity": 95}, {"time": 63254, "pitch": 52, "duration": 100, "velocity": 90}, {"time": 63264, "pitch": 47, "duration": 80, "velocity": 105}, {"time": 63344, "pitch": 47, "duration": 160, "velocity": 110}, {"time": 63354, "pitch": 52, "duration": 140, "velocity": 95}, {"time": 63364, "pitch": 56, "duration": 120, "velocity": 100}, {"time": 63374, "pitch": 59, "duration": 100, "velocity": 105}, {"time": 63384, "pitch": 64, "duration": 80, "velocity": 110}, {"time": 63464, "pitch": 64, "duration": 160, "velocity": 105}, {"time": 63474, "pitch": 59, "duration": 140, "velocity": 100}, {"time": 63484, "pitch": 56, "duration": 120, "velocity": 95}, {"time": 63494, "pitch": 52, "duration": 100, "velocity": 90}, {"time": 63504, "pitch": 47, "duration": 80, "velocity": 105}, {"time": 63584, "pitch": 47, "duration": 239, "velocity": 110}, {"time": 63594, "pitch": 52, "duration": 239, "velocity": 95}, {"time": 63604, "pitch": 56, "duration": 239, "velocity": 100}, {"time": 63614, "pitch": 59, "duration": 239, "velocity": 105}, {"time": 63624, "pitch": 64, "duration": 239, "velocity": 110}, {"time": 63823, "pitch": 47, "duration": 280, "velocity": 110}, {"time": 63833, "pitch": 52, "duration": 260, "velocity": 95}, {"time": 63843, "pitch": 56, "duration": 240, "velocity": 100}, {"time": 63853, "pitch": 59, "duration": 220, "velocity": 105}, {"time": 63863, "pitch": 64, "duration": 200, "velocity": 110}, {"time": 64063, "pitch": 64, "duration": 280, "velocity": 100}, {"time": 64073, "pitch": 59, "duration": 260, "velocity": 95}, {"time": 64083, "pitch": 56, "duration": 240, "velocity": 90}, {"time": 64093, "pitch": 52, "duration": 220, "velocity": 85}, {"time": 64103, "pitch": 47, "duration": 200, "velocity": 100}, {"time": 64303, "pitch": 47, "duration": 400, "velocity": 105}, {"time": 64313, "pitch": 50, "duration": 380, "velocity": 90}, {"time": 64323, "pitch": 55, "duration": 360, "velocity": 95}, {"time": 64333, "pitch": 59, "duration": 340, "velocity": 100}, {"time": 64343, "pitch": 67, "duration": 320, "velocity": 105}, {"time": 64663, "pitch": 67, "duration": 160, "velocity": 85}, {"time": 64673, "pitch": 59, "duration": 140, "velocity": 80}, {"time": 64683, "pitch": 55, "duration": 120, "velocity": 75}, {"time": 64693, "pitch": 50, "duration": 100, "velocity": 70}, {"time": 64703, "pitch": 47, "duration": 80, "velocity": 85}, {"time": 64783, "pitch": 47, "duration": 240, "velocity": 110}, {"time": 64793, "pitch": 50, "duration": 240, "velocity": 95}, {"time": 64803, "pitch": 55, "duration": 240, "velocity": 100}, {"time": 64813, "pitch": 59, "duration": 240, "velocity": 105}, {"time": 64823, "pitch": 67, "duration": 240, "velocity": 110}, {"time": 65023, "pitch": 47, "duration": 159, "velocity": 100}, {"time": 65033, "pitch": 50, "duration": 139, "velocity": 85}, {"time": 65043, "pitch": 55, "duration": 119, "velocity": 90}, {"time": 65053, "pitch": 59, "duration": 99, "velocity": 95}, {"time": 65063, "pitch": 67, "duration": 79, "velocity": 100}, {"time": 65142, "pitch": 67, "duration": 240, "velocity": 105}, {"time": 65152, "pitch": 59, "duration": 240, "velocity": 100}, {"time": 65162, "pitch": 55, "duration": 240, "velocity": 95}, {"time": 65172, "pitch": 50, "duration": 240, "velocity": 90}, {"time": 65182, "pitch": 47, "duration": 240, "velocity": 105}, {"time": 65382, "pitch": 67, "duration": 160, "velocity": 100}, {"time": 65392, "pitch": 59, "duration": 140, "velocity": 95}, {"time": 65402, "pitch": 55, "duration": 120, "velocity": 90}, {"time": 65412, "pitch": 50, "duration": 100, "velocity": 85}, {"time": 65422, "pitch": 47, "duration": 80, "velocity": 100}, {"time": 65502, "pitch": 47, "duration": 240, "velocity": 105}, {"time": 65512, "pitch": 50, "duration": 240, "velocity": 90}, {"time": 65522, "pitch": 55, "duration": 240, "velocity": 95}, {"time": 65532, "pitch": 59, "duration": 240, "velocity": 100}, {"time": 65542, "pitch": 67, "duration": 240, "velocity": 105}, {"time": 65742, "pitch": 47, "duration": 280, "velocity": 110}, {"time": 65752, "pitch": 50, "duration": 260, "velocity": 95}, {"time": 65762, "pitch": 55, "duration": 240, "velocity": 100}, {"time": 65772, "pitch": 59, "duration": 220, "velocity": 105}, {"time": 65782, "pitch": 67, "duration": 200, "velocity": 110}, {"time": 65982, "pitch": 67, "duration": 280, "velocity": 100}, {"time": 65992, "pitch": 59, "duration": 260, "velocity": 95}, {"time": 66002, "pitch": 55, "duration": 240, "velocity": 90}, {"time": 66012, "pitch": 50, "duration": 220, "velocity": 85}, {"time": 66022, "pitch": 47, "duration": 200, "velocity": 100}, {"time": 66222, "pitch": 45, "duration": 479, "velocity": 110}, {"time": 66232, "pitch": 50, "duration": 479, "velocity": 95}, {"time": 66242, "pitch": 57, "duration": 479, "velocity": 100}, {"time": 66252, "pitch": 62, "duration": 479, "velocity": 105}, {"time": 66262, "pitch": 66, "duration": 479, "velocity": 110}, {"time": 66701, "pitch": 45, "duration": 400, "velocity": 110}, {"time": 66711, "pitch": 50, "duration": 380, "velocity": 95}, {"time": 66721, "pitch": 57, "duration": 360, "velocity": 100}, {"time": 66731, "pitch": 62, "duration": 340, "velocity": 105}, {"time": 66741, "pitch": 66, "duration": 320, "velocity": 110}, {"time": 67061, "pitch": 66, "duration": 160, "velocity": 100}, {"time": 67071, "pitch": 62, "duration": 140, "velocity": 95}, {"time": 67081, "pitch": 57, "duration": 120, "velocity": 90}, {"time": 67091, "pitch": 50, "duration": 100, "velocity": 85}, {"time": 67101, "pitch": 45, "duration": 80, "velocity": 100}, {"time": 67181, "pitch": 45, "duration": 240, "velocity": 110}, {"time": 67191, "pitch": 50, "duration": 240, "velocity": 95}, {"time": 67201, "pitch": 57, "duration": 240, "velocity": 100}, {"time": 67211, "pitch": 62, "duration": 240, "velocity": 105}, {"time": 67221, "pitch": 67, "duration": 240, "velocity": 110}, {"time": 67421, "pitch": 45, "duration": 160, "velocity": 100}, {"time": 67431, "pitch": 50, "duration": 140, "velocity": 85}, {"time": 67441, "pitch": 57, "duration": 120, "velocity": 90}, {"time": 67451, "pitch": 62, "duration": 100, "velocity": 95}, {"time": 67461, "pitch": 66, "duration": 80, "velocity": 100}, {"time": 67541, "pitch": 64, "duration": 240, "velocity": 105}, {"time": 67551, "pitch": 62, "duration": 240, "velocity": 100}, {"time": 67561, "pitch": 57, "duration": 240, "velocity": 95}, {"time": 67571, "pitch": 50, "duration": 239, "velocity": 90}, {"time": 67581, "pitch": 45, "duration": 239, "velocity": 105}, {"time": 67781, "pitch": 64, "duration": 159, "velocity": 100}, {"time": 67791, "pitch": 62, "duration": 139, "velocity": 95}, {"time": 67801, "pitch": 57, "duration": 119, "velocity": 90}, {"time": 67810, "pitch": 50, "duration": 100, "velocity": 85}, {"time": 67820, "pitch": 45, "duration": 80, "velocity": 100}, {"time": 67900, "pitch": 45, "duration": 240, "velocity": 105}, {"time": 67910, "pitch": 50, "duration": 240, "velocity": 90}, {"time": 67920, "pitch": 57, "duration": 240, "velocity": 95}, {"time": 67930, "pitch": 62, "duration": 240, "velocity": 100}, {"time": 67940, "pitch": 67, "duration": 240, "velocity": 105}, {"time": 68140, "pitch": 45, "duration": 1905, "velocity": 120}, {"time": 68160, "pitch": 50, "duration": 1885, "velocity": 105}, {"time": 68180, "pitch": 57, "duration": 1865, "velocity": 110}, {"time": 68201, "pitch": 62, "duration": 1844, "velocity": 115}, {"time": 68221, "pitch": 66, "duration": 1824, "velocity": 120}, {"time": 70065, "pitch": 47, "duration": 480, "velocity": 110}, {"time": 70075, "pitch": 52, "duration": 480, "velocity": 95}, {"time": 70085, "pitch": 56, "duration": 480, "velocity": 100}, {"time": 70095, "pitch": 59, "duration": 480, "velocity": 105}, {"time": 70105, "pitch": 64, "duration": 480, "velocity": 110}, {"time": 70545, "pitch": 47, "duration": 399, "velocity": 110}, {"time": 70555, "pitch": 52, "duration": 379, "velocity": 95}, {"time": 70565, "pitch": 56, "duration": 359, "velocity": 100}, {"time": 70575, "pitch": 59, "duration": 339, "velocity": 105}, {"time": 70585, "pitch": 64, "duration": 319, "velocity": 110}, {"time": 70904, "pitch": 64, "duration": 160, "velocity": 105}, {"time": 70914, "pitch": 59, "duration": 140, "velocity": 100}, {"time": 70924, "pitch": 56, "duration": 120, "velocity": 95}, {"time": 70934, "pitch": 52, "duration": 100, "velocity": 90}, {"time": 70944, "pitch": 47, "duration": 80, "velocity": 105}, {"time": 71024, "pitch": 47, "duration": 160, "velocity": 110}, {"time": 71034, "pitch": 52, "duration": 140, "velocity": 95}, {"time": 71044, "pitch": 56, "duration": 120, "velocity": 100}, {"time": 71054, "pitch": 59, "duration": 100, "velocity": 105}, {"time": 71064, "pitch": 64, "duration": 80, "velocity": 110}, {"time": 71144, "pitch": 64, "duration": 160, "velocity": 105}, {"time": 71154, "pitch": 59, "duration": 140, "velocity": 100}, {"time": 71164, "pitch": 56, "duration": 120, "velocity": 95}, {"time": 71174, "pitch": 52, "duration": 100, "velocity": 90}, {"time": 71184, "pitch": 47, "duration": 80, "velocity": 105}, {"time": 71264, "pitch": 47, "duration": 240, "velocity": 110}, {"time": 71274, "pitch": 52, "duration": 240, "velocity": 95}, {"time": 71284, "pitch": 56, "duration": 240, "velocity": 100}, {"time": 71294, "pitch": 59, "duration": 240, "velocity": 105}, {"time": 71304, "pitch": 64, "duration": 240, "velocity": 110}, {"time": 71504, "pitch": 47, "duration": 280, "velocity": 110}, {"time": 71514, "pitch": 52, "duration": 260, "velocity": 95}, {"time": 71524, "pitch": 56, "duration": 240, "velocity": 100}, {"time": 71534, "pitch": 59, "duration": 220, "velocity": 105}, {"time": 71544, "pitch": 64, "duration": 200, "velocity": 110}, {"time": 71744, "pitch": 64, "duration": 279, "velocity": 100}, {"time": 71754, "pitch": 59, "duration": 259, "velocity": 95}, {"time": 71764, "pitch": 56, "duration": 240, "velocity": 90}, {"time": 71774, "pitch": 52, "duration": 220, "velocity": 85}, {"time": 71784, "pitch": 47, "duration": 200, "velocity": 100}, {"time": 71984, "pitch": 47, "duration": 399, "velocity": 105}, {"time": 71994, "pitch": 50, "duration": 379, "velocity": 90}, {"time": 72004, "pitch": 55, "duration": 359, "velocity": 95}, {"time": 72013, "pitch": 59, "duration": 340, "velocity": 100}, {"time": 72023, "pitch": 67, "duration": 320, "velocity": 105}, {"time": 72343, "pitch": 67, "duration": 160, "velocity": 85}, {"time": 72353, "pitch": 59, "duration": 140, "velocity": 80}, {"time": 72363, "pitch": 55, "duration": 120, "velocity": 75}, {"time": 72373, "pitch": 50, "duration": 100, "velocity": 70}, {"time": 72383, "pitch": 47, "duration": 80, "velocity": 85}, {"time": 72463, "pitch": 47, "duration": 240, "velocity": 110}, {"time": 72473, "pitch": 50, "duration": 240, "velocity": 95}, {"time": 72483, "pitch": 55, "duration": 240, "velocity": 100}, {"time": 72493, "pitch": 59, "duration": 240, "velocity": 105}, {"time": 72503, "pitch": 67, "duration": 240, "velocity": 110}, {"time": 72703, "pitch": 47, "duration": 160, "velocity": 100}, {"time": 72713, "pitch": 50, "duration": 140, "velocity": 85}, {"time": 72723, "pitch": 55, "duration": 120, "velocity": 90}, {"time": 72733, "pitch": 59, "duration": 100, "velocity": 95}, {"time": 72743, "pitch": 67, "duration": 80, "velocity": 100}, {"time": 72823, "pitch": 67, "duration": 240, "velocity": 105}, {"time": 72833, "pitch": 59, "duration": 240, "velocity": 100}, {"time": 72843, "pitch": 55, "duration": 240, "velocity": 95}, {"time": 72853, "pitch": 50, "duration": 240, "velocity": 90}, {"time": 72863, "pitch": 47, "duration": 240, "velocity": 105}, {"time": 73063, "pitch": 67, "duration": 160, "velocity": 100}, {"time": 73073, "pitch": 59, "duration": 140, "velocity": 95}, {"time": 73083, "pitch": 55, "duration": 120, "velocity": 90}, {"time": 73093, "pitch": 50, "duration": 100, "velocity": 85}, {"time": 73103, "pitch": 47, "duration": 80, "velocity": 100}, {"time": 73183, "pitch": 47, "duration": 239, "velocity": 105}, {"time": 73193, "pitch": 50, "duration": 239, "velocity": 90}, {"time": 73203, "pitch": 55, "duration": 239, "velocity": 95}, {"time": 73213, "pitch": 59, "duration": 239, "velocity": 100}, {"time": 73223, "pitch": 67, "duration": 239, "velocity": 105}, {"time": 73422, "pitch": 47, "duration": 280, "velocity": 110}, {"time": 73432, "pitch": 50, "duration": 260, "velocity": 95}, {"time": 73442, "pitch": 55, "duration": 240, "velocity": 100}, {"time": 73452, "pitch": 59, "duration": 220, "velocity": 105}, {"time": 73462, "pitch": 67, "duration": 200, "velocity": 110}, {"time": 73662, "pitch": 67, "duration": 280, "velocity": 100}, {"time": 73672, "pitch": 59, "duration": 260, "velocity": 95}, {"time": 73682, "pitch": 55, "duration": 240, "velocity": 90}, {"time": 73692, "pitch": 50, "duration": 220, "velocity": 85}, {"time": 73702, "pitch": 47, "duration": 200, "velocity": 100}, {"time": 73902, "pitch": 45, "duration": 480, "velocity": 110}, {"time": 73912, "pitch": 50, "duration": 480, "velocity": 95}, {"time": 73922, "pitch": 57, "duration": 480, "velocity": 100}, {"time": 73932, "pitch": 62, "duration": 480, "velocity": 105}, {"time": 73942, "pitch": 66, "duration": 480, "velocity": 110}, {"time": 74382, "pitch": 45, "duration": 399, "velocity": 110}, {"time": 74392, "pitch": 50, "duration": 379, "velocity": 95}, {"time": 74402, "pitch": 57, "duration": 359, "velocity": 100}, {"time": 74412, "pitch": 62, "duration": 339, "velocity": 105}, {"time": 74422, "pitch": 66, "duration": 319, "velocity": 110}, {"time": 74741, "pitch": 66, "duration": 160, "velocity": 100}, {"time": 74751, "pitch": 62, "duration": 140, "velocity": 95}, {"time": 74761, "pitch": 57, "duration": 120, "velocity": 90}, {"time": 74771, "pitch": 50, "duration": 100, "velocity": 85}, {"time": 74781, "pitch": 45, "duration": 80, "velocity": 100}, {"time": 74861, "pitch": 45, "duration": 240, "velocity": 110}, {"time": 74871, "pitch": 50, "duration": 240, "velocity": 95}, {"time": 74881, "pitch": 57, "duration": 240, "velocity": 100}, {"time": 74891, "pitch": 62, "duration": 240, "velocity": 105}, {"time": 74901, "pitch": 67, "duration": 240, "velocity": 110}, {"time": 75101, "pitch": 45, "duration": 160, "velocity": 100}, {"time": 75111, "pitch": 50, "duration": 140, "velocity": 85}, {"time": 75121, "pitch": 57, "duration": 120, "velocity": 90}, {"time": 75131, "pitch": 62, "duration": 100, "velocity": 95}, {"time": 75141, "pitch": 66, "duration": 80, "velocity": 100}, {"time": 75221, "pitch": 64, "duration": 240, "velocity": 105}, {"time": 75231, "pitch": 62, "duration": 240, "velocity": 100}, {"time": 75241, "pitch": 57, "duration": 240, "velocity": 95}, {"time": 75251, "pitch": 50, "duration": 240, "velocity": 90}, {"time": 75261, "pitch": 45, "duration": 240, "velocity": 105}, {"time": 75461, "pitch": 64, "duration": 160, "velocity": 100}, {"time": 75471, "pitch": 62, "duration": 140, "velocity": 95}, {"time": 75481, "pitch": 57, "duration": 120, "velocity": 90}, {"time": 75491, "pitch": 50, "duration": 100, "velocity": 85}, {"time": 75501, "pitch": 45, "duration": 80, "velocity": 100}, {"time": 75581, "pitch": 45, "duration": 240, "velocity": 105}, {"time": 75591, "pitch": 50, "duration": 240, "velocity": 90}, {"time": 75601, "pitch": 57, "duration": 240, "velocity": 95}, {"time": 75611, "pitch": 62, "duration": 240, "velocity": 100}, {"time": 75621, "pitch": 67, "duration": 240, "velocity": 105}, {"time": 75821, "pitch": 45, "duration": 479, "velocity": 120}, {"time": 75831, "pitch": 50, "duration": 479, "velocity": 105}, {"time": 75841, "pitch": 57, "duration": 479, "velocity": 110}, {"time": 75851, "pitch": 62, "duration": 479, "velocity": 115}, {"time": 75861, "pitch": 66, "duration": 479, "velocity": 120}, {"time": 76300, "pitch": 45, "duration": 400, "velocity": 120}, {"time": 76310, "pitch": 50, "duration": 380, "velocity": 105}, {"time": 76320, "pitch": 57, "duration": 360, "velocity": 110}, {"time": 76330, "pitch": 62, "duration": 340, "velocity": 115}, {"time": 76340, "pitch": 66, "duration": 320, "velocity": 120}, {"time": 76660, "pitch": 66, "duration": 160, "velocity": 110}, {"time": 76670, "pitch": 62, "duration": 140, "velocity": 105}, {"time": 76680, "pitch": 57, "duration": 120, "velocity": 100}, {"time": 76690, "pitch": 50, "duration": 100, "velocity": 95}, {"time": 76700, "pitch": 45, "duration": 80, "velocity": 110}, {"time": 76780, "pitch": 45, "duration": 283, "velocity": 120}, {"time": 76790, "pitch": 50, "duration": 263, "velocity": 105}, {"time": 76800, "pitch": 57, "duration": 243, "velocity": 110}, {"time": 76810, "pitch": 62, "duration": 223, "velocity": 115}, {"time": 76820, "pitch": 66, "duration": 203, "velocity": 120}, {"time": 77023, "pitch": 66, "duration": 283, "velocity": 110}, {"time": 77033, "pitch": 62, "duration": 263, "velocity": 105}, {"time": 77043, "pitch": 57, "duration": 243, "velocity": 100}, {"time": 77053, "pitch": 50, "duration": 223, "velocity": 95}, {"time": 77063, "pitch": 45, "duration": 203, "velocity": 110}, {"time": 77266, "pitch": 45, "duration": 160, "velocity": 110}, {"time": 77276, "pitch": 50, "duration": 140, "velocity": 95}, {"time": 77286, "pitch": 57, "duration": 120, "velocity": 100}, {"time": 77296, "pitch": 62, "duration": 100, "velocity": 105}, {"time": 77306, "pitch": 66, "duration": 80, "velocity": 110}, {"time": 77386, "pitch": 66, "duration": 160, "velocity": 105}, {"time": 77396, "pitch": 62, "duration": 140, "velocity": 100}, {"time": 77406, "pitch": 57, "duration": 120, "velocity": 95}, {"time": 77416, "pitch": 50, "duration": 100, "velocity": 90}, {"time": 77426, "pitch": 45, "duration": 80, "velocity": 105}, {"time": 77506, "pitch": 45, "duration": 219, "velocity": 110}, {"time": 77516, "pitch": 50, "duration": 209, "velocity": 95}, {"time": 77526, "pitch": 57, "duration": 199, "velocity": 100}, {"time": 77536, "pitch": 62, "duration": 189, "velocity": 105}, {"time": 77546, "pitch": 66, "duration": 179, "velocity": 110}, {"time": 77745, "pitch": 47, "duration": 480, "velocity": 110}, {"time": 77755, "pitch": 52, "duration": 480, "velocity": 95}, {"time": 77765, "pitch": 55, "duration": 480, "velocity": 100}, {"time": 77775, "pitch": 59, "duration": 480, "velocity": 105}, {"time": 77785, "pitch": 64, "duration": 480, "velocity": 110}, {"time": 78225, "pitch": 47, "duration": 400, "velocity": 110}, {"time": 78235, "pitch": 52, "duration": 380, "velocity": 95}, {"time": 78245, "pitch": 55, "duration": 360, "velocity": 100}, {"time": 78255, "pitch": 59, "duration": 340, "velocity": 105}, {"time": 78265, "pitch": 64, "duration": 320, "velocity": 110}, {"time": 78585, "pitch": 64, "duration": 160, "velocity": 105}, {"time": 78595, "pitch": 59, "duration": 140, "velocity": 100}, {"time": 78605, "pitch": 55, "duration": 120, "velocity": 95}, {"time": 78615, "pitch": 52, "duration": 100, "velocity": 90}, {"time": 78625, "pitch": 47, "duration": 80, "velocity": 105}, {"time": 78705, "pitch": 47, "duration": 160, "velocity": 110}, {"time": 78715, "pitch": 52, "duration": 140, "velocity": 95}, {"time": 78725, "pitch": 55, "duration": 120, "velocity": 100}, {"time": 78735, "pitch": 59, "duration": 100, "velocity": 105}, {"time": 78745, "pitch": 64, "duration": 80, "velocity": 110}, {"time": 78825, "pitch": 64, "duration": 159, "velocity": 105}, {"time": 78835, "pitch": 59, "duration": 139, "velocity": 100}, {"time": 78845, "pitch": 55, "duration": 119, "velocity": 95}, {"time": 78855, "pitch": 52, "duration": 99, "velocity": 90}, {"time": 78865, "pitch": 47, "duration": 79, "velocity": 105}, {"time": 78944, "pitch": 47, "duration": 240, "velocity": 110}, {"time": 78954, "pitch": 52, "duration": 240, "velocity": 95}, {"time": 78964, "pitch": 55, "duration": 240, "velocity": 100}, {"time": 78974, "pitch": 59, "duration": 240, "velocity": 105}, {"time": 78984, "pitch": 64, "duration": 240, "velocity": 110}, {"time": 79184, "pitch": 47, "duration": 280, "velocity": 110}, {"time": 79194, "pitch": 52, "duration": 260, "velocity": 95}, {"time": 79204, "pitch": 55, "duration": 240, "velocity": 100}, {"time": 79214, "pitch": 59, "duration": 220, "velocity": 105}, {"time": 79224, "pitch": 64, "duration": 200, "velocity": 110}, {"time": 79424, "pitch": 64, "duration": 280, "velocity": 100}, {"time": 79434, "pitch": 59, "duration": 260, "velocity": 95}, {"time": 79444, "pitch": 55, "duration": 240, "velocity": 90}, {"time": 79454, "pitch": 52, "duration": 220, "velocity": 85}, {"time": 79464, "pitch": 47, "duration": 200, "velocity": 100}, {"time": 79664, "pitch": 47, "duration": 400, "velocity": 105}, {"time": 79674, "pitch": 50, "duration": 380, "velocity": 90}, {"time": 79684, "pitch": 55, "duration": 360, "velocity": 95}, {"time": 79694, "pitch": 59, "duration": 340, "velocity": 100}, {"time": 79704, "pitch": 67, "duration": 320, "velocity": 105}, {"time": 80024, "pitch": 67, "duration": 160, "velocity": 85}, {"time": 80034, "pitch": 59, "duration": 140, "velocity": 80}, {"time": 80044, "pitch": 55, "duration": 120, "velocity": 75}, {"time": 80054, "pitch": 50, "duration": 100, "velocity": 70}, {"time": 80064, "pitch": 47, "duration": 80, "velocity": 85}, {"time": 80144, "pitch": 47, "duration": 239, "velocity": 110}, {"time": 80154, "pitch": 50, "duration": 239, "velocity": 95}, {"time": 80164, "pitch": 55, "duration": 239, "velocity": 100}, {"time": 80174, "pitch": 59, "duration": 239, "velocity": 105}, {"time": 80184, "pitch": 67, "duration": 239, "velocity": 110}, {"time": 80383, "pitch": 47, "duration": 160, "velocity": 100}, {"time": 80393, "pitch": 50, "duration": 140, "velocity": 85}, {"time": 80403, "pitch": 55, "duration": 120, "velocity": 90}, {"time": 80413, "pitch": 59, "duration": 100, "velocity": 95}, {"time": 80423, "pitch": 67, "duration": 80, "velocity": 100}, {"time": 80503, "pitch": 67, "duration": 240, "velocity": 105}, {"time": 80513, "pitch": 59, "duration": 240, "velocity": 100}, {"time": 80523, "pitch": 55, "duration": 240, "velocity": 95}, {"time": 80533, "pitch": 50, "duration": 240, "velocity": 90}, {"time": 80543, "pitch": 47, "duration": 240, "velocity": 105}, {"time": 80743, "pitch": 67, "duration": 160, "velocity": 100}, {"time": 80753, "pitch": 59, "duration": 140, "velocity": 95}, {"time": 80763, "pitch": 55, "duration": 120, "velocity": 90}, {"time": 80773, "pitch": 50, "duration": 100, "velocity": 85}, {"time": 80783, "pitch": 47, "duration": 80, "velocity": 100}, {"time": 80863, "pitch": 47, "duration": 240, "velocity": 105}, {"time": 80873, "pitch": 50, "duration": 240, "velocity": 90}, {"time": 80883, "pitch": 55, "duration": 240, "velocity": 95}, {"time": 80893, "pitch": 59, "duration": 240, "velocity": 100}, {"time": 80903, "pitch": 67, "duration": 240, "velocity": 105}, {"time": 81103, "pitch": 47, "duration": 280, "velocity": 110}, {"time": 81113, "pitch": 50, "duration": 260, "velocity": 95}, {"time": 81123, "pitch": 55, "duration": 240, "velocity": 100}, {"time": 81133, "pitch": 59, "duration": 220, "velocity": 105}, {"time": 81143, "pitch": 67, "duration": 200, "velocity": 110}, {"time": 81343, "pitch": 67, "duration": 280, "velocity": 100}, {"time": 81353, "pitch": 59, "duration": 260, "velocity": 95}, {"time": 81363, "pitch": 55, "duration": 240, "velocity": 90}, {"time": 81373, "pitch": 50, "duration": 220, "velocity": 85}, {"time": 81383, "pitch": 47, "duration": 200, "velocity": 100}, {"time": 81583, "pitch": 45, "duration": 479, "velocity": 110}, {"time": 81593, "pitch": 50, "duration": 479, "velocity": 95}, {"time": 81603, "pitch": 57, "duration": 479, "velocity": 100}, {"time": 81613, "pitch": 62, "duration": 479, "velocity": 105}, {"time": 81623, "pitch": 66, "duration": 479, "velocity": 110}, {"time": 82062, "pitch": 45, "duration": 400, "velocity": 110}, {"time": 82072, "pitch": 50, "duration": 380, "velocity": 95}, {"time": 82082, "pitch": 57, "duration": 360, "velocity": 100}, {"time": 82092, "pitch": 62, "duration": 340, "velocity": 105}, {"time": 82102, "pitch": 66, "duration": 320, "velocity": 110}, {"time": 82422, "pitch": 66, "duration": 160, "velocity": 100}, {"time": 82432, "pitch": 62, "duration": 140, "velocity": 95}, {"time": 82442, "pitch": 57, "duration": 120, "velocity": 90}, {"time": 82452, "pitch": 50, "duration": 100, "velocity": 85}, {"time": 82462, "pitch": 45, "duration": 80, "velocity": 100}, {"time": 82542, "pitch": 45, "duration": 240, "velocity": 110}, {"time": 82552, "pitch": 50, "duration": 240, "velocity": 95}, {"time": 82562, "pitch": 57, "duration": 240, "velocity": 100}, {"time": 82572, "pitch": 62, "duration": 240, "velocity": 105}, {"time": 82582, "pitch": 67, "duration": 240, "velocity": 110}, {"time": 82782, "pitch": 45, "duration": 160, "velocity": 100}, {"time": 82792, "pitch": 50, "duration": 140, "velocity": 85}, {"time": 82802, "pitch": 57, "duration": 120, "velocity": 90}, {"time": 82812, "pitch": 62, "duration": 100, "velocity": 95}, {"time": 82822, "pitch": 66, "duration": 80, "velocity": 100}, {"time": 82902, "pitch": 64, "duration": 239, "velocity": 105}, {"time": 82912, "pitch": 62, "duration": 239, "velocity": 100}, {"time": 82922, "pitch": 57, "duration": 239, "velocity": 95}, {"time": 82932, "pitch": 50, "duration": 239, "velocity": 90}, {"time": 82942, "pitch": 45, "duration": 239, "velocity": 105}, {"time": 83141, "pitch": 64, "duration": 160, "velocity": 100}, {"time": 83151, "pitch": 62, "duration": 140, "velocity": 95}, {"time": 83161, "pitch": 57, "duration": 120, "velocity": 90}, {"time": 83171, "pitch": 50, "duration": 100, "velocity": 85}, {"time": 83181, "pitch": 45, "duration": 80, "velocity": 100}, {"time": 83261, "pitch": 45, "duration": 240, "velocity": 105}, {"time": 83271, "pitch": 50, "duration": 240, "velocity": 90}, {"time": 83281, "pitch": 57, "duration": 240, "velocity": 95}, {"time": 83291, "pitch": 62, "duration": 240, "velocity": 100}, {"time": 83301, "pitch": 67, "duration": 240, "velocity": 105}, {"time": 83501, "pitch": 45, "duration": 480, "velocity": 120}, {"time": 83511, "pitch": 50, "duration": 480, "velocity": 105}, {"time": 83521, "pitch": 57, "duration": 480, "velocity": 110}, {"time": 83531, "pitch": 62, "duration": 480, "velocity": 115}, {"time": 83541, "pitch": 66, "duration": 480, "velocity": 120}, {"time": 83981, "pitch": 45, "duration": 400, "velocity": 120}, {"time": 83991, "pitch": 50, "duration": 380, "velocity": 105}, {"time": 84001, "pitch": 57, "duration": 360, "velocity": 110}, {"time": 84011, "pitch": 62, "duration": 340, "velocity": 115}, {"time": 84021, "pitch": 66, "duration": 320, "velocity": 120}, {"time": 84341, "pitch": 66, "duration": 159, "velocity": 110}, {"time": 84351, "pitch": 62, "duration": 139, "velocity": 105}, {"time": 84361, "pitch": 57, "duration": 119, "velocity": 100}, {"time": 84371, "pitch": 50, "duration": 99, "velocity": 95}, {"time": 84381, "pitch": 45, "duration": 79, "velocity": 110}, {"time": 84460, "pitch": 45, "duration": 280, "velocity": 120}, {"time": 84470, "pitch": 50, "duration": 260, "velocity": 105}, {"time": 84480, "pitch": 57, "duration": 240, "velocity": 110}, {"time": 84490, "pitch": 62, "duration": 220, "velocity": 115}, {"time": 84500, "pitch": 66, "duration": 200, "velocity": 120}, {"time": 84700, "pitch": 66, "duration": 280, "velocity": 110}, {"time": 84710, "pitch": 62, "duration": 260, "velocity": 105}, {"time": 84720, "pitch": 57, "duration": 240, "velocity": 100}, {"time": 84730, "pitch": 50, "duration": 220, "velocity": 95}, {"time": 84740, "pitch": 45, "duration": 200, "velocity": 110}, {"time": 84940, "pitch": 45, "duration": 162, "velocity": 110}, {"time": 84950, "pitch": 50, "duration": 142, "velocity": 95}, {"time": 84960, "pitch": 57, "duration": 122, "velocity": 100}, {"time": 84970, "pitch": 62, "duration": 101, "velocity": 105}, {"time": 84980, "pitch": 66, "duration": 81, "velocity": 110}, {"time": 85061, "pitch": 66, "duration": 162, "velocity": 105}, {"time": 85071, "pitch": 62, "duration": 142, "velocity": 100}, {"time": 85082, "pitch": 57, "duration": 121, "velocity": 95}, {"time": 85092, "pitch": 50, "duration": 101, "velocity": 90}, {"time": 85102, "pitch": 45, "duration": 81, "velocity": 105}, {"time": 85183, "pitch": 45, "duration": 222, "velocity": 110}, {"time": 85193, "pitch": 50, "duration": 212, "velocity": 95}, {"time": 85203, "pitch": 57, "duration": 202, "velocity": 100}, {"time": 85213, "pitch": 62, "duration": 192, "velocity": 105}, {"time": 85223, "pitch": 66, "duration": 182, "velocity": 110}, {"time": 85426, "pitch": 47, "duration": 479, "velocity": 110}, {"time": 85436, "pitch": 52, "duration": 479, "velocity": 95}, {"time": 85446, "pitch": 55, "duration": 479, "velocity": 100}, {"time": 85456, "pitch": 59, "duration": 479, "velocity": 105}, {"time": 85466, "pitch": 64, "duration": 479, "velocity": 110}, {"time": 85905, "pitch": 47, "duration": 400, "velocity": 110}, {"time": 85915, "pitch": 52, "duration": 380, "velocity": 95}, {"time": 85925, "pitch": 55, "duration": 360, "velocity": 100}, {"time": 85935, "pitch": 59, "duration": 340, "velocity": 105}, {"time": 85945, "pitch": 64, "duration": 320, "velocity": 110}, {"time": 86265, "pitch": 64, "duration": 160, "velocity": 105}, {"time": 86275, "pitch": 59, "duration": 140, "velocity": 100}, {"time": 86285, "pitch": 55, "duration": 120, "velocity": 95}, {"time": 86295, "pitch": 52, "duration": 100, "velocity": 90}, {"time": 86305, "pitch": 47, "duration": 80, "velocity": 105}, {"time": 86385, "pitch": 47, "duration": 160, "velocity": 110}, {"time": 86395, "pitch": 52, "duration": 140, "velocity": 95}, {"time": 86405, "pitch": 55, "duration": 120, "velocity": 100}, {"time": 86415, "pitch": 59, "duration": 100, "velocity": 105}, {"time": 86425, "pitch": 64, "duration": 80, "velocity": 110}, {"time": 86505, "pitch": 64, "duration": 160, "velocity": 105}, {"time": 86515, "pitch": 59, "duration": 140, "velocity": 100}, {"time": 86525, "pitch": 55, "duration": 120, "velocity": 95}, {"time": 86535, "pitch": 52, "duration": 100, "velocity": 90}, {"time": 86545, "pitch": 47, "duration": 80, "velocity": 105}, {"time": 86625, "pitch": 47, "duration": 240, "velocity": 110}, {"time": 86635, "pitch": 52, "duration": 240, "velocity": 95}, {"time": 86645, "pitch": 55, "duration": 240, "velocity": 100}, {"time": 86655, "pitch": 59, "duration": 240, "velocity": 105}, {"time": 86665, "pitch": 64, "duration": 240, "velocity": 110}, {"time": 86865, "pitch": 47, "duration": 280, "velocity": 110}, {"time": 86875, "pitch": 52, "duration": 260, "velocity": 95}, {"time": 86885, "pitch": 55, "duration": 240, "velocity": 100}, {"time": 86895, "pitch": 59, "duration": 220, "velocity": 105}, {"time": 86905, "pitch": 64, "duration": 200, "velocity": 110}, {"time": 87105, "pitch": 64, "duration": 279, "velocity": 100}, {"time": 87115, "pitch": 59, "duration": 259, "velocity": 95}, {"time": 87125, "pitch": 55, "duration": 239, "velocity": 90}, {"time": 87135, "pitch": 52, "duration": 219, "velocity": 85}, {"time": 87145, "pitch": 47, "duration": 199, "velocity": 100}, {"time": 87344, "pitch": 47, "duration": 400, "velocity": 105}, {"time": 87354, "pitch": 50, "duration": 380, "velocity": 90}, {"time": 87364, "pitch": 55, "duration": 360, "velocity": 95}, {"time": 87374, "pitch": 59, "duration": 340, "velocity": 100}, {"time": 87384, "pitch": 67, "duration": 320, "velocity": 105}, {"time": 87704, "pitch": 67, "duration": 160, "velocity": 85}, {"time": 87714, "pitch": 59, "duration": 140, "velocity": 80}, {"time": 87724, "pitch": 55, "duration": 120, "velocity": 75}, {"time": 87734, "pitch": 50, "duration": 100, "velocity": 70}, {"time": 87744, "pitch": 47, "duration": 80, "velocity": 85}, {"time": 87824, "pitch": 47, "duration": 240, "velocity": 110}, {"time": 87834, "pitch": 50, "duration": 240, "velocity": 95}, {"time": 87844, "pitch": 55, "duration": 240, "velocity": 100}, {"time": 87854, "pitch": 59, "duration": 240, "velocity": 105}, {"time": 87864, "pitch": 67, "duration": 240, "velocity": 110}, {"time": 88064, "pitch": 47, "duration": 160, "velocity": 100}, {"time": 88074, "pitch": 50, "duration": 140, "velocity": 85}, {"time": 88084, "pitch": 55, "duration": 120, "velocity": 90}, {"time": 88094, "pitch": 59, "duration": 100, "velocity": 95}, {"time": 88104, "pitch": 67, "duration": 80, "velocity": 100}, {"time": 88184, "pitch": 67, "duration": 240, "velocity": 105}, {"time": 88194, "pitch": 59, "duration": 240, "velocity": 100}, {"time": 88204, "pitch": 55, "duration": 240, "velocity": 95}, {"time": 88214, "pitch": 50, "duration": 240, "velocity": 90}, {"time": 88224, "pitch": 47, "duration": 240, "velocity": 105}, {"time": 88424, "pitch": 67, "duration": 160, "velocity": 100}, {"time": 88434, "pitch": 59, "duration": 140, "velocity": 95}, {"time": 88444, "pitch": 55, "duration": 120, "velocity": 90}, {"time": 88454, "pitch": 50, "duration": 100, "velocity": 85}, {"time": 88464, "pitch": 47, "duration": 80, "velocity": 100}, {"time": 88544, "pitch": 47, "duration": 239, "velocity": 105}, {"time": 88554, "pitch": 50, "duration": 239, "velocity": 90}, {"time": 88564, "pitch": 55, "duration": 239, "velocity": 95}, {"time": 88574, "pitch": 59, "duration": 239, "velocity": 100}, {"time": 88584, "pitch": 67, "duration": 239, "velocity": 105}, {"time": 88783, "pitch": 47, "duration": 280, "velocity": 110}, {"time": 88793, "pitch": 50, "duration": 260, "velocity": 95}, {"time": 88803, "pitch": 55, "duration": 240, "velocity": 100}, {"time": 88813, "pitch": 59, "duration": 220, "velocity": 105}, {"time": 88823, "pitch": 67, "duration": 200, "velocity": 110}, {"time": 89023, "pitch": 67, "duration": 280, "velocity": 100}, {"time": 89033, "pitch": 59, "duration": 260, "velocity": 95}, {"time": 89043, "pitch": 55, "duration": 240, "velocity": 90}, {"time": 89053, "pitch": 50, "duration": 220, "velocity": 85}, {"time": 89063, "pitch": 47, "duration": 200, "velocity": 100}, {"time": 89263, "pitch": 45, "duration": 480, "velocity": 110}, {"time": 89273, "pitch": 50, "duration": 480, "velocity": 95}, {"time": 89283, "pitch": 57, "duration": 480, "velocity": 100}, {"time": 89293, "pitch": 62, "duration": 480, "velocity": 105}, {"time": 89303, "pitch": 66, "duration": 480, "velocity": 110}, {"time": 89743, "pitch": 45, "duration": 399, "velocity": 110}, {"time": 89753, "pitch": 50, "duration": 379, "velocity": 95}, {"time": 89763, "pitch": 57, "duration": 359, "velocity": 100}, {"time": 89773, "pitch": 62, "duration": 339, "velocity": 105}, {"time": 89783, "pitch": 66, "duration": 319, "velocity": 110}, {"time": 90102, "pitch": 66, "duration": 160, "velocity": 100}, {"time": 90112, "pitch": 62, "duration": 140, "velocity": 95}, {"time": 90122, "pitch": 57, "duration": 120, "velocity": 90}, {"time": 90132, "pitch": 50, "duration": 100, "velocity": 85}, {"time": 90142, "pitch": 45, "duration": 80, "velocity": 100}, {"time": 90222, "pitch": 45, "duration": 240, "velocity": 110}, {"time": 90232, "pitch": 50, "duration": 240, "velocity": 95}, {"time": 90242, "pitch": 57, "duration": 240, "velocity": 100}, {"time": 90252, "pitch": 62, "duration": 240, "velocity": 105}, {"time": 90262, "pitch": 67, "duration": 240, "velocity": 110}, {"time": 90462, "pitch": 45, "duration": 160, "velocity": 100}, {"time": 90472, "pitch": 50, "duration": 140, "velocity": 85}, {"time": 90482, "pitch": 57, "duration": 120, "velocity": 90}, {"time": 90492, "pitch": 62, "duration": 100, "velocity": 95}, {"time": 90502, "pitch": 66, "duration": 80, "velocity": 100}, {"time": 90582, "pitch": 64, "duration": 240, "velocity": 105}, {"time": 90592, "pitch": 62, "duration": 240, "velocity": 100}, {"time": 90602, "pitch": 57, "duration": 240, "velocity": 95}, {"time": 90612, "pitch": 50, "duration": 240, "velocity": 90}, {"time": 90622, "pitch": 45, "duration": 240, "velocity": 105}, {"time": 90822, "pitch": 64, "duration": 160, "velocity": 100}, {"time": 90832, "pitch": 62, "duration": 140, "velocity": 95}, {"time": 90842, "pitch": 57, "duration": 120, "velocity": 90}, {"time": 90852, "pitch": 50, "duration": 100, "velocity": 85}, {"time": 90862, "pitch": 45, "duration": 80, "velocity": 100}, {"time": 90942, "pitch": 45, "duration": 240, "velocity": 105}, {"time": 90952, "pitch": 50, "duration": 240, "velocity": 90}, {"time": 90962, "pitch": 57, "duration": 240, "velocity": 95}, {"time": 90972, "pitch": 62, "duration": 240, "velocity": 100}, {"time": 90982, "pitch": 67, "duration": 240, "velocity": 105}, {"time": 91182, "pitch": 48, "duration": 399, "velocity": 120}, {"time": 91192, "pitch": 52, "duration": 379, "velocity": 105}, {"time": 91202, "pitch": 55, "duration": 359, "velocity": 110}, {"time": 91212, "pitch": 60, "duration": 339, "velocity": 115}, {"time": 91222, "pitch": 64, "duration": 319, "velocity": 120}, {"time": 91541, "pitch": 64, "duration": 160, "velocity": 100}, {"time": 91551, "pitch": 60, "duration": 140, "velocity": 95}, {"time": 91561, "pitch": 55, "duration": 120, "velocity": 90}, {"time": 91571, "pitch": 52, "duration": 100, "velocity": 85}, {"time": 91581, "pitch": 48, "duration": 80, "velocity": 100}, {"time": 91661, "pitch": 48, "duration": 400, "velocity": 120}, {"time": 91671, "pitch": 52, "duration": 380, "velocity": 105}, {"time": 91681, "pitch": 55, "duration": 360, "velocity": 110}, {"time": 91691, "pitch": 60, "duration": 340, "velocity": 115}, {"time": 91701, "pitch": 64, "duration": 320, "velocity": 120}, {"time": 92021, "pitch": 64, "duration": 160, "velocity": 100}, {"time": 92031, "pitch": 59, "duration": 140, "velocity": 95}, {"time": 92041, "pitch": 55, "duration": 120, "velocity": 90}, {"time": 92051, "pitch": 52, "duration": 100, "velocity": 85}, {"time": 92061, "pitch": 47, "duration": 80, "velocity": 100}, {"time": 92141, "pitch": 47, "duration": 480, "velocity": 120}, {"time": 92151, "pitch": 52, "duration": 480, "velocity": 105}, {"time": 92161, "pitch": 55, "duration": 480, "velocity": 110}, {"time": 92171, "pitch": 59, "duration": 480, "velocity": 115}, {"time": 92181, "pitch": 64, "duration": 480, "velocity": 120}, {"time": 92621, "pitch": 45, "duration": 159, "velocity": 110}, {"time": 92631, "pitch": 52, "duration": 139, "velocity": 95}, {"time": 92641, "pitch": 55, "duration": 119, "velocity": 100}, {"time": 92651, "pitch": 60, "duration": 99, "velocity": 105}, {"time": 92661, "pitch": 64, "duration": 79, "velocity": 110}, {"time": 92740, "pitch": 64, "duration": 160, "velocity": 105}, {"time": 92750, "pitch": 60, "duration": 140, "velocity": 100}, {"time": 92760, "pitch": 55, "duration": 120, "velocity": 95}, {"time": 92770, "pitch": 52, "duration": 100, "velocity": 90}, {"time": 92780, "pitch": 45, "duration": 80, "velocity": 105}, {"time": 92860, "pitch": 45, "duration": 220, "velocity": 110}, {"time": 92870, "pitch": 52, "duration": 210, "velocity": 95}, {"time": 92880, "pitch": 55, "duration": 200, "velocity": 100}, {"time": 92890, "pitch": 60, "duration": 190, "velocity": 105}, {"time": 92900, "pitch": 64, "duration": 180, "velocity": 110}, {"time": 93100, "pitch": 45, "duration": 486, "velocity": 120}, {"time": 93110, "pitch": 50, "duration": 486, "velocity": 105}, {"time": 93120, "pitch": 57, "duration": 486, "velocity": 110}, {"time": 93130, "pitch": 62, "duration": 486, "velocity": 115}, {"time": 93140, "pitch": 66, "duration": 486, "velocity": 120}, {"time": 93586, "pitch": 45, "duration": 400, "velocity": 120}, {"time": 93596, "pitch": 50, "duration": 380, "velocity": 105}, {"time": 93606, "pitch": 57, "duration": 360, "velocity": 110}, {"time": 93616, "pitch": 62, "duration": 340, "velocity": 115}, {"time": 93626, "pitch": 66, "duration": 320, "velocity": 120}, {"time": 93946, "pitch": 66, "duration": 160, "velocity": 110}, {"time": 93956, "pitch": 62, "duration": 140, "velocity": 105}, {"time": 93966, "pitch": 57, "duration": 120, "velocity": 100}, {"time": 93976, "pitch": 50, "duration": 100, "velocity": 95}, {"time": 93986, "pitch": 45, "duration": 80, "velocity": 110}, {"time": 94066, "pitch": 45, "duration": 159, "velocity": 120}, {"time": 94076, "pitch": 50, "duration": 149, "velocity": 105}, {"time": 94086, "pitch": 57, "duration": 139, "velocity": 110}, {"time": 94096, "pitch": 62, "duration": 129, "velocity": 115}, {"time": 94106, "pitch": 67, "duration": 119, "velocity": 120}, {"time": 94305, "pitch": 66, "duration": 480, "velocity": 120}, {"time": 94315, "pitch": 62, "duration": 480, "velocity": 115}, {"time": 94325, "pitch": 57, "duration": 480, "velocity": 110}, {"time": 94335, "pitch": 50, "duration": 480, "velocity": 105}, {"time": 94345, "pitch": 45, "duration": 480, "velocity": 120}, {"time": 94785, "pitch": 66, "duration": 220, "velocity": 110}, {"time": 94795, "pitch": 62, "duration": 210, "velocity": 105}, {"time": 94805, "pitch": 57, "duration": 200, "velocity": 100}, {"time": 94815, "pitch": 50, "duration": 190, "velocity": 95}, {"time": 94825, "pitch": 45, "duration": 180, "velocity": 110}, {"time": 95025, "pitch": 48, "duration": 400, "velocity": 120}, {"time": 95035, "pitch": 52, "duration": 380, "velocity": 105}, {"time": 95045, "pitch": 55, "duration": 360, "velocity": 110}, {"time": 95055, "pitch": 60, "duration": 340, "velocity": 115}, {"time": 95065, "pitch": 64, "duration": 320, "velocity": 120}, {"time": 95385, "pitch": 64, "duration": 159, "velocity": 100}, {"time": 95395, "pitch": 60, "duration": 139, "velocity": 95}, {"time": 95405, "pitch": 55, "duration": 119, "velocity": 90}, {"time": 95415, "pitch": 52, "duration": 100, "velocity": 85}, {"time": 95425, "pitch": 48, "duration": 80, "velocity": 100}, {"time": 95505, "pitch": 48, "duration": 399, "velocity": 120}, {"time": 95515, "pitch": 52, "duration": 379, "velocity": 105}, {"time": 95524, "pitch": 55, "duration": 360, "velocity": 110}, {"time": 95534, "pitch": 60, "duration": 340, "velocity": 115}, {"time": 95544, "pitch": 64, "duration": 320, "velocity": 120}, {"time": 95864, "pitch": 64, "duration": 160, "velocity": 100}, {"time": 95874, "pitch": 59, "duration": 140, "velocity": 95}, {"time": 95884, "pitch": 55, "duration": 120, "velocity": 90}, {"time": 95894, "pitch": 52, "duration": 100, "velocity": 85}, {"time": 95904, "pitch": 47, "duration": 80, "velocity": 100}, {"time": 95984, "pitch": 47, "duration": 480, "velocity": 120}, {"time": 95994, "pitch": 52, "duration": 480, "velocity": 105}, {"time": 96004, "pitch": 55, "duration": 480, "velocity": 110}, {"time": 96014, "pitch": 59, "duration": 480, "velocity": 115}, {"time": 96024, "pitch": 64, "duration": 480, "velocity": 120}, {"time": 96464, "pitch": 45, "duration": 160, "velocity": 110}, {"time": 96474, "pitch": 52, "duration": 140, "velocity": 95}, {"time": 96484, "pitch": 55, "duration": 120, "velocity": 100}, {"time": 96494, "pitch": 60, "duration": 100, "velocity": 105}, {"time": 96504, "pitch": 64, "duration": 80, "velocity": 110}, {"time": 96584, "pitch": 64, "duration": 160, "velocity": 105}, {"time": 96594, "pitch": 60, "duration": 140, "velocity": 100}, {"time": 96604, "pitch": 55, "duration": 120, "velocity": 95}, {"time": 96614, "pitch": 52, "duration": 100, "velocity": 90}, {"time": 96624, "pitch": 45, "duration": 80, "velocity": 105}, {"time": 96704, "pitch": 45, "duration": 219, "velocity": 110}, {"time": 96714, "pitch": 52, "duration": 209, "velocity": 95}, {"time": 96724, "pitch": 55, "duration": 199, "velocity": 100}, {"time": 96734, "pitch": 60, "duration": 189, "velocity": 105}, {"time": 96744, "pitch": 64, "duration": 179, "velocity": 110}, {"time": 96943, "pitch": 45, "duration": 480, "velocity": 120}, {"time": 96953, "pitch": 50, "duration": 480, "velocity": 105}, {"time": 96963, "pitch": 57, "duration": 480, "velocity": 110}, {"time": 96973, "pitch": 62, "duration": 480, "velocity": 115}, {"time": 96983, "pitch": 66, "duration": 480, "velocity": 120}, {"time": 97423, "pitch": 45, "duration": 400, "velocity": 120}, {"time": 97433, "pitch": 50, "duration": 380, "velocity": 105}, {"time": 97443, "pitch": 57, "duration": 360, "velocity": 110}, {"time": 97453, "pitch": 62, "duration": 340, "velocity": 115}, {"time": 97463, "pitch": 66, "duration": 320, "velocity": 120}, {"time": 97783, "pitch": 66, "duration": 160, "velocity": 110}, {"time": 97793, "pitch": 62, "duration": 140, "velocity": 105}, {"time": 97803, "pitch": 57, "duration": 120, "velocity": 100}, {"time": 97813, "pitch": 50, "duration": 100, "velocity": 95}, {"time": 97823, "pitch": 45, "duration": 80, "velocity": 110}, {"time": 97903, "pitch": 45, "duration": 160, "velocity": 120}, {"time": 97913, "pitch": 50, "duration": 150, "velocity": 105}, {"time": 97923, "pitch": 57, "duration": 140, "velocity": 110}, {"time": 97933, "pitch": 62, "duration": 130, "velocity": 115}, {"time": 97943, "pitch": 67, "duration": 120, "velocity": 120}, {"time": 98143, "pitch": 66, "duration": 479, "velocity": 120}, {"time": 98153, "pitch": 62, "duration": 479, "velocity": 115}, {"time": 98163, "pitch": 57, "duration": 479, "velocity": 110}, {"time": 98173, "pitch": 50, "duration": 479, "velocity": 105}, {"time": 98183, "pitch": 45, "duration": 479, "velocity": 120}, {"time": 98622, "pitch": 66, "duration": 220, "velocity": 110}, {"time": 98632, "pitch": 62, "duration": 210, "velocity": 105}, {"time": 98642, "pitch": 57, "duration": 200, "velocity": 100}, {"time": 98652, "pitch": 50, "duration": 190, "velocity": 95}, {"time": 98662, "pitch": 45, "duration": 180, "velocity": 110}, {"time": 98862, "pitch": 48, "duration": 400, "velocity": 120}, {"time": 98872, "pitch": 52, "duration": 380, "velocity": 105}, {"time": 98882, "pitch": 55, "duration": 360, "velocity": 110}, {"time": 98892, "pitch": 60, "duration": 340, "velocity": 115}, {"time": 98902, "pitch": 64, "duration": 320, "velocity": 120}, {"time": 99222, "pitch": 64, "duration": 160, "velocity": 100}, {"time": 99232, "pitch": 60, "duration": 140, "velocity": 95}, {"time": 99242, "pitch": 55, "duration": 120, "velocity": 90}, {"time": 99252, "pitch": 52, "duration": 100, "velocity": 85}, {"time": 99262, "pitch": 48, "duration": 80, "velocity": 100}, {"time": 99342, "pitch": 48, "duration": 399, "velocity": 120}, {"time": 99352, "pitch": 52, "duration": 379, "velocity": 105}, {"time": 99362, "pitch": 55, "duration": 359, "velocity": 110}, {"time": 99372, "pitch": 60, "duration": 339, "velocity": 115}, {"time": 99382, "pitch": 64, "duration": 319, "velocity": 120}, {"time": 99701, "pitch": 64, "duration": 160, "velocity": 100}, {"time": 99711, "pitch": 59, "duration": 140, "velocity": 95}, {"time": 99721, "pitch": 55, "duration": 120, "velocity": 90}, {"time": 99731, "pitch": 52, "duration": 100, "velocity": 85}, {"time": 99741, "pitch": 47, "duration": 80, "velocity": 100}, {"time": 99821, "pitch": 47, "duration": 480, "velocity": 120}, {"time": 99831, "pitch": 52, "duration": 480, "velocity": 105}, {"time": 99841, "pitch": 55, "duration": 480, "velocity": 110}, {"time": 99851, "pitch": 59, "duration": 480, "velocity": 115}, {"time": 99861, "pitch": 64, "duration": 480, "velocity": 120}, {"time": 100301, "pitch": 45, "duration": 160, "velocity": 110}, {"time": 100311, "pitch": 52, "duration": 140, "velocity": 95}, {"time": 100321, "pitch": 55, "duration": 120, "velocity": 100}, {"time": 100331, "pitch": 60, "duration": 100, "velocity": 105}, {"time": 100341, "pitch": 64, "duration": 80, "velocity": 110}, {"time": 100421, "pitch": 64, "duration": 160, "velocity": 105}, {"time": 100431, "pitch": 60, "duration": 140, "velocity": 100}, {"time": 100441, "pitch": 55, "duration": 120, "velocity": 95}, {"time": 100451, "pitch": 52, "duration": 100, "velocity": 90}, {"time": 100461, "pitch": 45, "duration": 80, "velocity": 105}, {"time": 100541, "pitch": 45, "duration": 220, "velocity": 110}, {"time": 100551, "pitch": 52, "duration": 210, "velocity": 95}, {"time": 100561, "pitch": 55, "duration": 200, "velocity": 100}, {"time": 100571, "pitch": 60, "duration": 190, "velocity": 105}, {"time": 100581, "pitch": 64, "duration": 180, "velocity": 110}, {"time": 100781, "pitch": 45, "duration": 479, "velocity": 120}, {"time": 100791, "pitch": 50, "duration": 479, "velocity": 105}, {"time": 100801, "pitch": 57, "duration": 479, "velocity": 110}, {"time": 100811, "pitch": 62, "duration": 479, "velocity": 115}, {"time": 100821, "pitch": 66, "duration": 480, "velocity": 120}, {"time": 101260, "pitch": 45, "duration": 405, "velocity": 120}, {"time": 101270, "pitch": 50, "duration": 385, "velocity": 105}, {"time": 101280, "pitch": 57, "duration": 365, "velocity": 110}, {"time": 101290, "pitch": 62, "duration": 345, "velocity": 115}, {"time": 101301, "pitch": 66, "duration": 323, "velocity": 120}, {"time": 101624, "pitch": 66, "duration": 162, "velocity": 110}, {"time": 101635, "pitch": 62, "duration": 141, "velocity": 105}, {"time": 101645, "pitch": 57, "duration": 121, "velocity": 100}, {"time": 101655, "pitch": 50, "duration": 101, "velocity": 95}, {"time": 101665, "pitch": 45, "duration": 81, "velocity": 110}, {"time": 101746, "pitch": 45, "duration": 160, "velocity": 120}, {"time": 101756, "pitch": 50, "duration": 150, "velocity": 105}, {"time": 101766, "pitch": 57, "duration": 140, "velocity": 110}, {"time": 101776, "pitch": 62, "duration": 130, "velocity": 115}, {"time": 101786, "pitch": 67, "duration": 120, "velocity": 120}, {"time": 101986, "pitch": 66, "duration": 479, "velocity": 120}, {"time": 101996, "pitch": 62, "duration": 479, "velocity": 115}, {"time": 102006, "pitch": 57, "duration": 479, "velocity": 110}, {"time": 102016, "pitch": 50, "duration": 479, "velocity": 105}, {"time": 102026, "pitch": 45, "duration": 479, "velocity": 120}, {"time": 102465, "pitch": 66, "duration": 220, "velocity": 110}, {"time": 102475, "pitch": 62, "duration": 210, "velocity": 105}, {"time": 102485, "pitch": 57, "duration": 200, "velocity": 100}, {"time": 102495, "pitch": 50, "duration": 190, "velocity": 95}, {"time": 102505, "pitch": 45, "duration": 180, "velocity": 110}, {"time": 102705, "pitch": 48, "duration": 400, "velocity": 120}, {"time": 102715, "pitch": 52, "duration": 380, "velocity": 105}, {"time": 102725, "pitch": 55, "duration": 360, "velocity": 110}, {"time": 102735, "pitch": 60, "duration": 340, "velocity": 115}, {"time": 102745, "pitch": 64, "duration": 320, "velocity": 120}, {"time": 103065, "pitch": 64, "duration": 160, "velocity": 100}, {"time": 103075, "pitch": 60, "duration": 140, "velocity": 95}, {"time": 103085, "pitch": 55, "duration": 120, "velocity": 90}, {"time": 103095, "pitch": 52, "duration": 100, "velocity": 85}, {"time": 103105, "pitch": 48, "duration": 80, "velocity": 100}, {"time": 103185, "pitch": 48, "duration": 400, "velocity": 120}, {"time": 103195, "pitch": 52, "duration": 380, "velocity": 105}, {"time": 103205, "pitch": 55, "duration": 360, "velocity": 110}, {"time": 103215, "pitch": 60, "duration": 340, "velocity": 115}, {"time": 103225, "pitch": 64, "duration": 320, "velocity": 120}, {"time": 103545, "pitch": 64, "duration": 160, "velocity": 100}, {"time": 103555, "pitch": 59, "duration": 140, "velocity": 95}, {"time": 103565, "pitch": 55, "duration": 120, "velocity": 90}, {"time": 103575, "pitch": 52, "duration": 100, "velocity": 85}, {"time": 103585, "pitch": 47, "duration": 80, "velocity": 100}, {"time": 103665, "pitch": 47, "duration": 479, "velocity": 120}, {"time": 103675, "pitch": 52, "duration": 479, "velocity": 105}, {"time": 103685, "pitch": 55, "duration": 479, "velocity": 110}, {"time": 103695, "pitch": 59, "duration": 479, "velocity": 115}, {"time": 103705, "pitch": 64, "duration": 479, "velocity": 120}, {"time": 104144, "pitch": 45, "duration": 160, "velocity": 110}, {"time": 104154, "pitch": 52, "duration": 140, "velocity": 95}, {"time": 104164, "pitch": 55, "duration": 120, "velocity": 100}, {"time": 104174, "pitch": 60, "duration": 100, "velocity": 105}, {"time": 104184, "pitch": 64, "duration": 80, "velocity": 110}, {"time": 104264, "pitch": 64, "duration": 160, "velocity": 105}, {"time": 104274, "pitch": 60, "duration": 140, "velocity": 100}, {"time": 104284, "pitch": 55, "duration": 120, "velocity": 95}, {"time": 104294, "pitch": 52, "duration": 100, "velocity": 90}, {"time": 104304, "pitch": 45, "duration": 80, "velocity": 105}, {"time": 104384, "pitch": 45, "duration": 220, "velocity": 110}, {"time": 104394, "pitch": 52, "duration": 210, "velocity": 95}, {"time": 104404, "pitch": 55, "duration": 200, "velocity": 100}, {"time": 104414, "pitch": 60, "duration": 190, "velocity": 105}, {"time": 104424, "pitch": 64, "duration": 180, "velocity": 110}, {"time": 104624, "pitch": 45, "duration": 480, "velocity": 120}, {"time": 104634, "pitch": 50, "duration": 480, "velocity": 105}, {"time": 104644, "pitch": 57, "duration": 480, "velocity": 110}, {"time": 104654, "pitch": 62, "duration": 480, "velocity": 115}, {"time": 104664, "pitch": 66, "duration": 480, "velocity": 120}, {"time": 105104, "pitch": 45, "duration": 399, "velocity": 120}, {"time": 105114, "pitch": 50, "duration": 379, "velocity": 105}, {"time": 105124, "pitch": 57, "duration": 359, "velocity": 110}, {"time": 105134, "pitch": 62, "duration": 339, "velocity": 115}, {"time": 105144, "pitch": 66, "duration": 319, "velocity": 120}, {"time": 105463, "pitch": 66, "duration": 160, "velocity": 110}, {"time": 105473, "pitch": 62, "duration": 140, "velocity": 105}, {"time": 105483, "pitch": 57, "duration": 120, "velocity": 100}, {"time": 105493, "pitch": 50, "duration": 100, "velocity": 95}, {"time": 105503, "pitch": 45, "duration": 80, "velocity": 110}, {"time": 105583, "pitch": 45, "duration": 160, "velocity": 120}, {"time": 105593, "pitch": 50, "duration": 150, "velocity": 105}, {"time": 105603, "pitch": 57, "duration": 140, "velocity": 110}, {"time": 105613, "pitch": 62, "duration": 130, "velocity": 115}, {"time": 105623, "pitch": 67, "duration": 120, "velocity": 120}, {"time": 105823, "pitch": 66, "duration": 480, "velocity": 120}, {"time": 105833, "pitch": 62, "duration": 480, "velocity": 115}, {"time": 105843, "pitch": 57, "duration": 480, "velocity": 110}, {"time": 105853, "pitch": 50, "duration": 480, "velocity": 105}, {"time": 105863, "pitch": 45, "duration": 480, "velocity": 120}, {"time": 106303, "pitch": 66, "duration": 220, "velocity": 110}, {"time": 106313, "pitch": 62, "duration": 210, "velocity": 105}, {"time": 106323, "pitch": 57, "duration": 200, "velocity": 100}, {"time": 106333, "pitch": 50, "duration": 190, "velocity": 95}, {"time": 106343, "pitch": 45, "duration": 180, "velocity": 110}, {"time": 106542, "pitch": 45, "duration": 480, "velocity": 110}, {"time": 106552, "pitch": 50, "duration": 480, "velocity": 95}, {"time": 106562, "pitch": 57, "duration": 480, "velocity": 100}, {"time": 106572, "pitch": 62, "duration": 480, "velocity": 105}, {"time": 106582, "pitch": 66, "duration": 480, "velocity": 110}, {"time": 107022, "pitch": 45, "duration": 400, "velocity": 110}, {"time": 107032, "pitch": 50, "duration": 380, "velocity": 95}, {"time": 107042, "pitch": 57, "duration": 360, "velocity": 100}, {"time": 107052, "pitch": 62, "duration": 340, "velocity": 105}, {"time": 107062, "pitch": 66, "duration": 320, "velocity": 110}, {"time": 107382, "pitch": 66, "duration": 160, "velocity": 100}, {"time": 107392, "pitch": 62, "duration": 140, "velocity": 95}, {"time": 107402, "pitch": 57, "duration": 120, "velocity": 90}, {"time": 107412, "pitch": 50, "duration": 100, "velocity": 85}, {"time": 107422, "pitch": 45, "duration": 80, "velocity": 100}, {"time": 107502, "pitch": 45, "duration": 240, "velocity": 110}, {"time": 107512, "pitch": 50, "duration": 240, "velocity": 95}, {"time": 107522, "pitch": 57, "duration": 240, "velocity": 100}, {"time": 107532, "pitch": 62, "duration": 240, "velocity": 105}, {"time": 107542, "pitch": 67, "duration": 240, "velocity": 110}, {"time": 107742, "pitch": 45, "duration": 159, "velocity": 100}, {"time": 107752, "pitch": 50, "duration": 140, "velocity": 85}, {"time": 107762, "pitch": 57, "duration": 120, "velocity": 90}, {"time": 107772, "pitch": 62, "duration": 100, "velocity": 95}, {"time": 107782, "pitch": 66, "duration": 80, "velocity": 100}, {"time": 107862, "pitch": 64, "duration": 239, "velocity": 105}, {"time": 107872, "pitch": 62, "duration": 239, "velocity": 100}, {"time": 107882, "pitch": 57, "duration": 239, "velocity": 95}, {"time": 107892, "pitch": 50, "duration": 239, "velocity": 90}, {"time": 107901, "pitch": 45, "duration": 240, "velocity": 105}, {"time": 108101, "pitch": 64, "duration": 160, "velocity": 100}, {"time": 108111, "pitch": 62, "duration": 140, "velocity": 95}, {"time": 108121, "pitch": 57, "duration": 120, "velocity": 90}, {"time": 108131, "pitch": 50, "duration": 100, "velocity": 85}, {"time": 108141, "pitch": 45, "duration": 80, "velocity": 100}, {"time": 108221, "pitch": 45, "duration": 240, "velocity": 105}, {"time": 108231, "pitch": 50, "duration": 240, "velocity": 90}, {"time": 108241, "pitch": 57, "duration": 240, "velocity": 95}, {"time": 108251, "pitch": 62, "duration": 240, "velocity": 100}, {"time": 108261, "pitch": 67, "duration": 240, "velocity": 105}, {"time": 108461, "pitch": 45, "duration": 1904, "velocity": 120}, {"time": 108481, "pitch": 50, "duration": 1884, "velocity": 105}, {"time": 108501, "pitch": 57, "duration": 1864, "velocity": 110}, {"time": 108521, "pitch": 62, "duration": 1844, "velocity": 115}, {"time": 108541, "pitch": 66, "duration": 1824, "velocity": 120}, {"time": 110386, "pitch": 47, "duration": 479, "velocity": 110}, {"time": 110396, "pitch": 52, "duration": 479, "velocity": 95}, {"time": 110406, "pitch": 56, "duration": 479, "velocity": 100}, {"time": 110416, "pitch": 59, "duration": 479, "velocity": 105}, {"time": 110426, "pitch": 64, "duration": 479, "velocity": 110}, {"time": 110865, "pitch": 47, "duration": 400, "velocity": 110}, {"time": 110875, "pitch": 52, "duration": 380, "velocity": 95}, {"time": 110885, "pitch": 56, "duration": 360, "velocity": 100}, {"time": 110895, "pitch": 59, "duration": 340, "velocity": 105}, {"time": 110905, "pitch": 64, "duration": 320, "velocity": 110}, {"time": 111225, "pitch": 64, "duration": 160, "velocity": 105}, {"time": 111235, "pitch": 59, "duration": 140, "velocity": 100}, {"time": 111245, "pitch": 56, "duration": 120, "velocity": 95}, {"time": 111255, "pitch": 52, "duration": 100, "velocity": 90}, {"time": 111265, "pitch": 47, "duration": 80, "velocity": 105}, {"time": 111345, "pitch": 47, "duration": 160, "velocity": 110}, {"time": 111355, "pitch": 52, "duration": 140, "velocity": 95}, {"time": 111365, "pitch": 56, "duration": 120, "velocity": 100}, {"time": 111375, "pitch": 59, "duration": 100, "velocity": 105}, {"time": 111385, "pitch": 64, "duration": 80, "velocity": 110}, {"time": 111465, "pitch": 64, "duration": 160, "velocity": 105}, {"time": 111475, "pitch": 59, "duration": 140, "velocity": 100}, {"time": 111485, "pitch": 56, "duration": 120, "velocity": 95}, {"time": 111495, "pitch": 52, "duration": 100, "velocity": 90}, {"time": 111505, "pitch": 47, "duration": 80, "velocity": 105}, {"time": 111585, "pitch": 47, "duration": 240, "velocity": 110}, {"time": 111595, "pitch": 52, "duration": 240, "velocity": 95}, {"time": 111605, "pitch": 56, "duration": 240, "velocity": 100}, {"time": 111615, "pitch": 59, "duration": 240, "velocity": 105}, {"time": 111625, "pitch": 64, "duration": 240, "velocity": 110}, {"time": 111825, "pitch": 47, "duration": 279, "velocity": 110}, {"time": 111835, "pitch": 52, "duration": 260, "velocity": 95}, {"time": 111845, "pitch": 56, "duration": 240, "velocity": 100}, {"time": 111855, "pitch": 59, "duration": 220, "velocity": 105}, {"time": 111865, "pitch": 64, "duration": 200, "velocity": 110}, {"time": 112065, "pitch": 64, "duration": 279, "velocity": 100}, {"time": 112075, "pitch": 59, "duration": 259, "velocity": 95}, {"time": 112085, "pitch": 56, "duration": 239, "velocity": 90}, {"time": 112095, "pitch": 52, "duration": 219, "velocity": 85}, {"time": 112104, "pitch": 47, "duration": 200, "velocity": 100}, {"time": 112304, "pitch": 47, "duration": 400, "velocity": 105}, {"time": 112314, "pitch": 50, "duration": 380, "velocity": 90}, {"time": 112324, "pitch": 55, "duration": 360, "velocity": 95}, {"time": 112334, "pitch": 59, "duration": 340, "velocity": 100}, {"time": 112344, "pitch": 67, "duration": 320, "velocity": 105}, {"time": 112664, "pitch": 67, "duration": 160, "velocity": 85}, {"time": 112674, "pitch": 59, "duration": 140, "velocity": 80}, {"time": 112684, "pitch": 55, "duration": 120, "velocity": 75}, {"time": 112694, "pitch": 50, "duration": 100, "velocity": 70}, {"time": 112704, "pitch": 47, "duration": 80, "velocity": 85}, {"time": 112784, "pitch": 47, "duration": 240, "velocity": 110}, {"time": 112794, "pitch": 50, "duration": 240, "velocity": 95}, {"time": 112804, "pitch": 55, "duration": 240, "velocity": 100}, {"time": 112814, "pitch": 59, "duration": 240, "velocity": 105}, {"time": 112824, "pitch": 67, "duration": 240, "velocity": 110}, {"time": 113024, "pitch": 47, "duration": 160, "velocity": 100}, {"time": 113034, "pitch": 50, "duration": 140, "velocity": 85}, {"time": 113044, "pitch": 55, "duration": 120, "velocity": 90}, {"time": 113054, "pitch": 59, "duration": 100, "velocity": 95}, {"time": 113064, "pitch": 67, "duration": 80, "velocity": 100}, {"time": 113144, "pitch": 67, "duration": 240, "velocity": 105}, {"time": 113154, "pitch": 59, "duration": 240, "velocity": 100}, {"time": 113164, "pitch": 55, "duration": 240, "velocity": 95}, {"time": 113174, "pitch": 50, "duration": 240, "velocity": 90}, {"time": 113184, "pitch": 47, "duration": 240, "velocity": 105}, {"time": 113384, "pitch": 67, "duration": 159, "velocity": 100}, {"time": 113394, "pitch": 59, "duration": 139, "velocity": 95}, {"time": 113404, "pitch": 55, "duration": 119, "velocity": 90}, {"time": 113414, "pitch": 50, "duration": 99, "velocity": 85}, {"time": 113424, "pitch": 47, "duration": 79, "velocity": 100}, {"time": 113503, "pitch": 47, "duration": 240, "velocity": 105}, {"time": 113513, "pitch": 50, "duration": 240, "velocity": 90}, {"time": 113523, "pitch": 55, "duration": 240, "velocity": 95}, {"time": 113533, "pitch": 59, "duration": 240, "velocity": 100}, {"time": 113543, "pitch": 67, "duration": 240, "velocity": 105}, {"time": 113743, "pitch": 47, "duration": 280, "velocity": 110}, {"time": 113753, "pitch": 50, "duration": 260, "velocity": 95}, {"time": 113763, "pitch": 55, "duration": 240, "velocity": 100}, {"time": 113773, "pitch": 59, "duration": 220, "velocity": 105}, {"time": 113783, "pitch": 67, "duration": 200, "velocity": 110}, {"time": 113983, "pitch": 67, "duration": 280, "velocity": 100}, {"time": 113993, "pitch": 59, "duration": 260, "velocity": 95}, {"time": 114003, "pitch": 55, "duration": 240, "velocity": 90}, {"time": 114013, "pitch": 50, "duration": 220, "velocity": 85}, {"time": 114023, "pitch": 47, "duration": 200, "velocity": 100}, {"time": 114223, "pitch": 45, "duration": 480, "velocity": 110}, {"time": 114233, "pitch": 50, "duration": 480, "velocity": 95}, {"time": 114243, "pitch": 57, "duration": 480, "velocity": 100}, {"time": 114253, "pitch": 62, "duration": 480, "velocity": 105}, {"time": 114263, "pitch": 66, "duration": 480, "velocity": 110}, {"time": 114703, "pitch": 45, "duration": 399, "velocity": 110}, {"time": 114713, "pitch": 50, "duration": 379, "velocity": 95}, {"time": 114723, "pitch": 57, "duration": 359, "velocity": 100}, {"time": 114733, "pitch": 62, "duration": 339, "velocity": 105}, {"time": 114743, "pitch": 66, "duration": 319, "velocity": 110}, {"time": 115062, "pitch": 66, "duration": 160, "velocity": 100}, {"time": 115072, "pitch": 62, "duration": 140, "velocity": 95}, {"time": 115082, "pitch": 57, "duration": 120, "velocity": 90}, {"time": 115092, "pitch": 50, "duration": 100, "velocity": 85}, {"time": 115102, "pitch": 45, "duration": 80, "velocity": 100}, {"time": 115182, "pitch": 45, "duration": 240, "velocity": 110}, {"time": 115192, "pitch": 50, "duration": 240, "velocity": 95}, {"time": 115202, "pitch": 57, "duration": 240, "velocity": 100}, {"time": 115212, "pitch": 62, "duration": 240, "velocity": 105}, {"time": 115222, "pitch": 67, "duration": 240, "velocity": 110}, {"time": 115422, "pitch": 45, "duration": 160, "velocity": 100}, {"time": 115432, "pitch": 50, "duration": 140, "velocity": 85}, {"time": 115442, "pitch": 57, "duration": 120, "velocity": 90}, {"time": 115452, "pitch": 62, "duration": 100, "velocity": 95}, {"time": 115462, "pitch": 66, "duration": 80, "velocity": 100}, {"time": 115542, "pitch": 64, "duration": 240, "velocity": 105}, {"time": 115552, "pitch": 62, "duration": 240, "velocity": 100}, {"time": 115562, "pitch": 57, "duration": 240, "velocity": 95}, {"time": 115572, "pitch": 50, "duration": 240, "velocity": 90}, {"time": 115582, "pitch": 45, "duration": 240, "velocity": 105}, {"time": 115782, "pitch": 64, "duration": 160, "velocity": 100}, {"time": 115792, "pitch": 62, "duration": 140, "velocity": 95}, {"time": 115802, "pitch": 57, "duration": 120, "velocity": 90}, {"time": 115812, "pitch": 50, "duration": 100, "velocity": 85}, {"time": 115822, "pitch": 45, "duration": 80, "velocity": 100}, {"time": 115902, "pitch": 45, "duration": 240, "velocity": 105}, {"time": 115912, "pitch": 50, "duration": 240, "velocity": 90}, {"time": 115922, "pitch": 57, "duration": 240, "velocity": 95}, {"time": 115932, "pitch": 62, "duration": 240, "velocity": 100}, {"time": 115942, "pitch": 67, "duration": 240, "velocity": 105}, {"time": 116142, "pitch": 45, "duration": 479, "velocity": 110}, {"time": 116152, "pitch": 50, "duration": 479, "velocity": 95}, {"time": 116162, "pitch": 57, "duration": 479, "velocity": 100}, {"time": 116172, "pitch": 62, "duration": 479, "velocity": 105}, {"time": 116182, "pitch": 66, "duration": 479, "velocity": 110}, {"time": 116621, "pitch": 45, "duration": 400, "velocity": 110}, {"time": 116631, "pitch": 50, "duration": 380, "velocity": 95}, {"time": 116641, "pitch": 57, "duration": 360, "velocity": 100}, {"time": 116651, "pitch": 62, "duration": 340, "velocity": 105}, {"time": 116661, "pitch": 66, "duration": 320, "velocity": 110}, {"time": 116981, "pitch": 66, "duration": 160, "velocity": 100}, {"time": 116991, "pitch": 62, "duration": 140, "velocity": 95}, {"time": 117001, "pitch": 57, "duration": 120, "velocity": 90}, {"time": 117011, "pitch": 50, "duration": 100, "velocity": 85}, {"time": 117021, "pitch": 45, "duration": 80, "velocity": 100}, {"time": 117101, "pitch": 45, "duration": 240, "velocity": 110}, {"time": 117111, "pitch": 50, "duration": 240, "velocity": 95}, {"time": 117121, "pitch": 57, "duration": 240, "velocity": 100}, {"time": 117131, "pitch": 62, "duration": 240, "velocity": 105}, {"time": 117141, "pitch": 67, "duration": 240, "velocity": 110}, {"time": 117341, "pitch": 45, "duration": 160, "velocity": 100}, {"time": 117351, "pitch": 50, "duration": 140, "velocity": 85}, {"time": 117361, "pitch": 57, "duration": 120, "velocity": 90}, {"time": 117371, "pitch": 62, "duration": 100, "velocity": 95}, {"time": 117381, "pitch": 66, "duration": 80, "velocity": 100}, {"time": 117461, "pitch": 64, "duration": 239, "velocity": 105}, {"time": 117471, "pitch": 62, "duration": 239, "velocity": 100}, {"time": 117481, "pitch": 57, "duration": 239, "velocity": 95}, {"time": 117491, "pitch": 50, "duration": 239, "velocity": 90}, {"time": 117501, "pitch": 45, "duration": 239, "velocity": 105}, {"time": 117700, "pitch": 64, "duration": 160, "velocity": 100}, {"time": 117710, "pitch": 62, "duration": 140, "velocity": 95}, {"time": 117720, "pitch": 57, "duration": 120, "velocity": 90}, {"time": 117730, "pitch": 50, "duration": 100, "velocity": 85}, {"time": 117740, "pitch": 45, "duration": 80, "velocity": 100}, {"time": 117820, "pitch": 45, "duration": 240, "velocity": 105}, {"time": 117830, "pitch": 50, "duration": 240, "velocity": 90}, {"time": 117840, "pitch": 57, "duration": 240, "velocity": 95}, {"time": 117850, "pitch": 62, "duration": 240, "velocity": 100}, {"time": 117860, "pitch": 67, "duration": 240, "velocity": 105}, {"time": 118060, "pitch": 47, "duration": 486, "velocity": 110}, {"time": 118070, "pitch": 52, "duration": 486, "velocity": 95}, {"time": 118080, "pitch": 56, "duration": 486, "velocity": 100}, {"time": 118090, "pitch": 59, "duration": 486, "velocity": 105}, {"time": 118100, "pitch": 64, "duration": 486, "velocity": 110}, {"time": 118546, "pitch": 47, "duration": 400, "velocity": 110}, {"time": 118556, "pitch": 52, "duration": 380, "velocity": 95}, {"time": 118566, "pitch": 56, "duration": 360, "velocity": 100}, {"time": 118576, "pitch": 59, "duration": 340, "velocity": 105}, {"time": 118586, "pitch": 64, "duration": 320, "velocity": 110}, {"time": 118906, "pitch": 64, "duration": 159, "velocity": 105}, {"time": 118916, "pitch": 59, "duration": 139, "velocity": 100}, {"time": 118926, "pitch": 56, "duration": 119, "velocity": 95}, {"time": 118936, "pitch": 52, "duration": 99, "velocity": 90}, {"time": 118946, "pitch": 47, "duration": 79, "velocity": 105}, {"time": 119025, "pitch": 47, "duration": 160, "velocity": 110}, {"time": 119035, "pitch": 52, "duration": 140, "velocity": 95}, {"time": 119045, "pitch": 56, "duration": 120, "velocity": 100}, {"time": 119055, "pitch": 59, "duration": 100, "velocity": 105}, {"time": 119065, "pitch": 64, "duration": 80, "velocity": 110}, {"time": 119145, "pitch": 64, "duration": 160, "velocity": 105}, {"time": 119155, "pitch": 59, "duration": 140, "velocity": 100}, {"time": 119165, "pitch": 56, "duration": 120, "velocity": 95}, {"time": 119175, "pitch": 52, "duration": 100, "velocity": 90}, {"time": 119185, "pitch": 47, "duration": 80, "velocity": 105}, {"time": 119265, "pitch": 47, "duration": 240, "velocity": 110}, {"time": 119275, "pitch": 52, "duration": 240, "velocity": 95}, {"time": 119285, "pitch": 56, "duration": 240, "velocity": 100}, {"time": 119295, "pitch": 59, "duration": 240, "velocity": 105}, {"time": 119305, "pitch": 64, "duration": 240, "velocity": 110}, {"time": 119505, "pitch": 47, "duration": 280, "velocity": 110}, {"time": 119515, "pitch": 52, "duration": 260, "velocity": 95}, {"time": 119525, "pitch": 56, "duration": 240, "velocity": 100}, {"time": 119535, "pitch": 59, "duration": 220, "velocity": 105}, {"time": 119545, "pitch": 64, "duration": 200, "velocity": 110}, {"time": 119745, "pitch": 64, "duration": 280, "velocity": 100}, {"time": 119755, "pitch": 59, "duration": 260, "velocity": 95}, {"time": 119765, "pitch": 56, "duration": 240, "velocity": 90}, {"time": 119775, "pitch": 52, "duration": 220, "velocity": 85}, {"time": 119785, "pitch": 47, "duration": 200, "velocity": 100}, {"time": 119985, "pitch": 47, "duration": 400, "velocity": 105}, {"time": 119995, "pitch": 50, "duration": 380, "velocity": 90}, {"time": 120005, "pitch": 55, "duration": 360, "velocity": 95}, {"time": 120015, "pitch": 59, "duration": 340, "velocity": 100}, {"time": 120025, "pitch": 67, "duration": 320, "velocity": 105}, {"time": 120345, "pitch": 67, "duration": 159, "velocity": 85}, {"time": 120355, "pitch": 59, "duration": 139, "velocity": 80}, {"time": 120365, "pitch": 55, "duration": 119, "velocity": 75}, {"time": 120375, "pitch": 50, "duration": 99, "velocity": 70}, {"time": 120385, "pitch": 47, "duration": 79, "velocity": 85}, {"time": 120464, "pitch": 47, "duration": 240, "velocity": 110}, {"time": 120474, "pitch": 50, "duration": 240, "velocity": 95}, {"time": 120484, "pitch": 55, "duration": 240, "velocity": 100}, {"time": 120494, "pitch": 59, "duration": 240, "velocity": 105}, {"time": 120504, "pitch": 67, "duration": 240, "velocity": 110}, {"time": 120704, "pitch": 47, "duration": 160, "velocity": 100}, {"time": 120714, "pitch": 50, "duration": 140, "velocity": 85}, {"time": 120724, "pitch": 55, "duration": 120, "velocity": 90}, {"time": 120734, "pitch": 59, "duration": 100, "velocity": 95}, {"time": 120744, "pitch": 67, "duration": 80, "velocity": 100}, {"time": 120824, "pitch": 67, "duration": 240, "velocity": 105}, {"time": 120834, "pitch": 59, "duration": 240, "velocity": 100}, {"time": 120844, "pitch": 55, "duration": 240, "velocity": 95}, {"time": 120854, "pitch": 50, "duration": 240, "velocity": 90}, {"time": 120864, "pitch": 47, "duration": 240, "velocity": 105}, {"time": 121064, "pitch": 67, "duration": 160, "velocity": 100}, {"time": 121074, "pitch": 59, "duration": 140, "velocity": 95}, {"time": 121084, "pitch": 55, "duration": 120, "velocity": 90}, {"time": 121094, "pitch": 50, "duration": 100, "velocity": 85}, {"time": 121104, "pitch": 47, "duration": 80, "velocity": 100}, {"time": 121184, "pitch": 47, "duration": 240, "velocity": 105}, {"time": 121194, "pitch": 50, "duration": 240, "velocity": 90}, {"time": 121204, "pitch": 55, "duration": 240, "velocity": 95}, {"time": 121214, "pitch": 59, "duration": 240, "velocity": 100}, {"time": 121224, "pitch": 67, "duration": 240, "velocity": 105}, {"time": 121424, "pitch": 47, "duration": 280, "velocity": 110}, {"time": 121434, "pitch": 50, "duration": 260, "velocity": 95}, {"time": 121444, "pitch": 55, "duration": 240, "velocity": 100}, {"time": 121454, "pitch": 59, "duration": 220, "velocity": 105}, {"time": 121464, "pitch": 67, "duration": 200, "velocity": 110}, {"time": 121664, "pitch": 67, "duration": 279, "velocity": 100}, {"time": 121674, "pitch": 59, "duration": 259, "velocity": 95}, {"time": 121684, "pitch": 55, "duration": 239, "velocity": 90}, {"time": 121694, "pitch": 50, "duration": 219, "velocity": 85}, {"time": 121704, "pitch": 47, "duration": 199, "velocity": 100}, {"time": 121903, "pitch": 45, "duration": 480, "velocity": 110}, {"time": 121913, "pitch": 50, "duration": 480, "velocity": 95}, {"time": 121923, "pitch": 57, "duration": 480, "velocity": 100}, {"time": 121933, "pitch": 62, "duration": 480, "velocity": 105}, {"time": 121943, "pitch": 66, "duration": 480, "velocity": 110}, {"time": 122383, "pitch": 45, "duration": 400, "velocity": 110}, {"time": 122393, "pitch": 50, "duration": 380, "velocity": 95}, {"time": 122403, "pitch": 57, "duration": 360, "velocity": 100}, {"time": 122413, "pitch": 62, "duration": 340, "velocity": 105}, {"time": 122423, "pitch": 66, "duration": 320, "velocity": 110}, {"time": 122743, "pitch": 66, "duration": 160, "velocity": 100}, {"time": 122753, "pitch": 62, "duration": 140, "velocity": 95}, {"time": 122763, "pitch": 57, "duration": 120, "velocity": 90}, {"time": 122773, "pitch": 50, "duration": 100, "velocity": 85}, {"time": 122783, "pitch": 45, "duration": 80, "velocity": 100}, {"time": 122863, "pitch": 45, "duration": 240, "velocity": 110}, {"time": 122873, "pitch": 50, "duration": 240, "velocity": 95}, {"time": 122883, "pitch": 57, "duration": 239, "velocity": 100}, {"time": 122893, "pitch": 62, "duration": 239, "velocity": 105}, {"time": 122903, "pitch": 67, "duration": 239, "velocity": 110}, {"time": 123103, "pitch": 45, "duration": 159, "velocity": 100}, {"time": 123113, "pitch": 50, "duration": 139, "velocity": 85}, {"time": 123122, "pitch": 57, "duration": 120, "velocity": 90}, {"time": 123132, "pitch": 62, "duration": 100, "velocity": 95}, {"time": 123142, "pitch": 66, "duration": 80, "velocity": 100}, {"time": 123222, "pitch": 64, "duration": 240, "velocity": 105}, {"time": 123232, "pitch": 62, "duration": 240, "velocity": 100}, {"time": 123242, "pitch": 57, "duration": 240, "velocity": 95}, {"time": 123252, "pitch": 50, "duration": 240, "velocity": 90}, {"time": 123262, "pitch": 45, "duration": 240, "velocity": 105}, {"time": 123462, "pitch": 64, "duration": 160, "velocity": 100}, {"time": 123472, "pitch": 62, "duration": 140, "velocity": 95}, {"time": 123482, "pitch": 57, "duration": 120, "velocity": 90}, {"time": 123492, "pitch": 50, "duration": 100, "velocity": 85}, {"time": 123502, "pitch": 45, "duration": 80, "velocity": 100}, {"time": 123582, "pitch": 45, "duration": 240, "velocity": 105}, {"time": 123592, "pitch": 50, "duration": 240, "velocity": 90}, {"time": 123602, "pitch": 57, "duration": 240, "velocity": 95}, {"time": 123612, "pitch": 62, "duration": 240, "velocity": 100}, {"time": 123622, "pitch": 67, "duration": 240, "velocity": 105}, {"time": 123822, "pitch": 45, "duration": 480, "velocity": 120}, {"time": 123832, "pitch": 50, "duration": 480, "velocity": 105}, {"time": 123842, "pitch": 57, "duration": 480, "velocity": 110}, {"time": 123852, "pitch": 62, "duration": 480, "velocity": 115}, {"time": 123862, "pitch": 66, "duration": 480, "velocity": 120}, {"time": 124302, "pitch": 45, "duration": 399, "velocity": 120}, {"time": 124312, "pitch": 50, "duration": 379, "velocity": 105}, {"time": 124322, "pitch": 57, "duration": 359, "velocity": 110}, {"time": 124332, "pitch": 62, "duration": 339, "velocity": 115}, {"time": 124342, "pitch": 66, "duration": 319, "velocity": 120}, {"time": 124661, "pitch": 66, "duration": 160, "velocity": 110}, {"time": 124671, "pitch": 62, "duration": 140, "velocity": 105}, {"time": 124681, "pitch": 57, "duration": 120, "velocity": 100}, {"time": 124691, "pitch": 50, "duration": 100, "velocity": 95}, {"time": 124701, "pitch": 45, "duration": 80, "velocity": 110}, {"time": 124781, "pitch": 45, "duration": 280, "velocity": 120}, {"time": 124791, "pitch": 50, "duration": 260, "velocity": 105}, {"time": 124801, "pitch": 57, "duration": 240, "velocity": 110}, {"time": 124811, "pitch": 62, "duration": 220, "velocity": 115}, {"time": 124821, "pitch": 66, "duration": 200, "velocity": 120}, {"time": 125021, "pitch": 66, "duration": 280, "velocity": 110}, {"time": 125031, "pitch": 62, "duration": 260, "velocity": 105}, {"time": 125041, "pitch": 57, "duration": 240, "velocity": 100}, {"time": 125051, "pitch": 50, "duration": 220, "velocity": 95}, {"time": 125061, "pitch": 45, "duration": 200, "velocity": 110}, {"time": 125261, "pitch": 45, "duration": 160, "velocity": 110}, {"time": 125271, "pitch": 50, "duration": 140, "velocity": 95}, {"time": 125281, "pitch": 57, "duration": 120, "velocity": 100}, {"time": 125291, "pitch": 62, "duration": 100, "velocity": 105}, {"time": 125301, "pitch": 66, "duration": 80, "velocity": 110}, {"time": 125381, "pitch": 66, "duration": 160, "velocity": 105}, {"time": 125391, "pitch": 62, "duration": 140, "velocity": 100}, {"time": 125401, "pitch": 57, "duration": 120, "velocity": 95}, {"time": 125411, "pitch": 50, "duration": 100, "velocity": 90}, {"time": 125421, "pitch": 45, "duration": 80, "velocity": 105}, {"time": 125501, "pitch": 45, "duration": 220, "velocity": 110}, {"time": 125511, "pitch": 50, "duration": 210, "velocity": 95}, {"time": 125521, "pitch": 57, "duration": 200, "velocity": 100}, {"time": 125531, "pitch": 62, "duration": 190, "velocity": 105}, {"time": 125541, "pitch": 66, "duration": 180, "velocity": 110}, {"time": 125741, "pitch": 47, "duration": 479, "velocity": 110}, {"time": 125751, "pitch": 52, "duration": 479, "velocity": 95}, {"time": 125761, "pitch": 55, "duration": 479, "velocity": 100}, {"time": 125771, "pitch": 59, "duration": 479, "velocity": 105}, {"time": 125781, "pitch": 64, "duration": 479, "velocity": 110}, {"time": 126220, "pitch": 47, "duration": 405, "velocity": 110}, {"time": 126230, "pitch": 52, "duration": 385, "velocity": 95}, {"time": 126240, "pitch": 55, "duration": 365, "velocity": 100}, {"time": 126250, "pitch": 59, "duration": 344, "velocity": 105}, {"time": 126260, "pitch": 64, "duration": 324, "velocity": 110}, {"time": 126584, "pitch": 64, "duration": 162, "velocity": 105}, {"time": 126594, "pitch": 59, "duration": 142, "velocity": 100}, {"time": 126605, "pitch": 55, "duration": 121, "velocity": 95}, {"time": 126615, "pitch": 52, "duration": 101, "velocity": 90}, {"time": 126625, "pitch": 47, "duration": 81, "velocity": 105}, {"time": 126706, "pitch": 47, "duration": 160, "velocity": 110}, {"time": 126716, "pitch": 52, "duration": 140, "velocity": 95}, {"time": 126726, "pitch": 55, "duration": 120, "velocity": 100}, {"time": 126736, "pitch": 59, "duration": 100, "velocity": 105}, {"time": 126746, "pitch": 64, "duration": 80, "velocity": 110}, {"time": 126826, "pitch": 64, "duration": 160, "velocity": 105}, {"time": 126836, "pitch": 59, "duration": 140, "velocity": 100}, {"time": 126846, "pitch": 55, "duration": 120, "velocity": 95}, {"time": 126856, "pitch": 52, "duration": 100, "velocity": 90}, {"time": 126866, "pitch": 47, "duration": 80, "velocity": 105}, {"time": 126946, "pitch": 47, "duration": 240, "velocity": 110}, {"time": 126956, "pitch": 52, "duration": 240, "velocity": 95}, {"time": 126966, "pitch": 55, "duration": 240, "velocity": 100}, {"time": 126976, "pitch": 59, "duration": 240, "velocity": 105}, {"time": 126986, "pitch": 64, "duration": 240, "velocity": 110}, {"time": 127186, "pitch": 47, "duration": 279, "velocity": 110}, {"time": 127196, "pitch": 52, "duration": 259, "velocity": 95}, {"time": 127206, "pitch": 55, "duration": 239, "velocity": 100}, {"time": 127216, "pitch": 59, "duration": 219, "velocity": 105}, {"time": 127226, "pitch": 64, "duration": 199, "velocity": 110}, {"time": 127425, "pitch": 64, "duration": 280, "velocity": 100}, {"time": 127435, "pitch": 59, "duration": 260, "velocity": 95}, {"time": 127445, "pitch": 55, "duration": 240, "velocity": 90}, {"time": 127455, "pitch": 52, "duration": 220, "velocity": 85}, {"time": 127465, "pitch": 47, "duration": 200, "velocity": 100}, {"time": 127665, "pitch": 47, "duration": 400, "velocity": 105}, {"time": 127675, "pitch": 50, "duration": 380, "velocity": 90}, {"time": 127685, "pitch": 55, "duration": 360, "velocity": 95}, {"time": 127695, "pitch": 59, "duration": 340, "velocity": 100}, {"time": 127705, "pitch": 67, "duration": 320, "velocity": 105}, {"time": 128025, "pitch": 67, "duration": 160, "velocity": 85}, {"time": 128035, "pitch": 59, "duration": 140, "velocity": 80}, {"time": 128045, "pitch": 55, "duration": 120, "velocity": 75}, {"time": 128055, "pitch": 50, "duration": 100, "velocity": 70}, {"time": 128065, "pitch": 47, "duration": 80, "velocity": 85}, {"time": 128145, "pitch": 47, "duration": 240, "velocity": 110}, {"time": 128155, "pitch": 50, "duration": 240, "velocity": 95}, {"time": 128165, "pitch": 55, "duration": 240, "velocity": 100}, {"time": 128175, "pitch": 59, "duration": 240, "velocity": 105}, {"time": 128185, "pitch": 67, "duration": 240, "velocity": 110}, {"time": 128385, "pitch": 47, "duration": 160, "velocity": 100}, {"time": 128395, "pitch": 50, "duration": 140, "velocity": 85}, {"time": 128405, "pitch": 55, "duration": 120, "velocity": 90}, {"time": 128415, "pitch": 59, "duration": 100, "velocity": 95}, {"time": 128425, "pitch": 67, "duration": 80, "velocity": 100}, {"time": 128505, "pitch": 67, "duration": 239, "velocity": 105}, {"time": 128515, "pitch": 59, "duration": 239, "velocity": 100}, {"time": 128525, "pitch": 55, "duration": 239, "velocity": 95}, {"time": 128535, "pitch": 50, "duration": 239, "velocity": 90}, {"time": 128545, "pitch": 47, "duration": 239, "velocity": 105}, {"time": 128744, "pitch": 67, "duration": 160, "velocity": 100}, {"time": 128754, "pitch": 59, "duration": 140, "velocity": 95}, {"time": 128764, "pitch": 55, "duration": 120, "velocity": 90}, {"time": 128774, "pitch": 50, "duration": 100, "velocity": 85}, {"time": 128784, "pitch": 47, "duration": 80, "velocity": 100}, {"time": 128864, "pitch": 47, "duration": 240, "velocity": 105}, {"time": 128874, "pitch": 50, "duration": 240, "velocity": 90}, {"time": 128884, "pitch": 55, "duration": 240, "velocity": 95}, {"time": 128894, "pitch": 59, "duration": 240, "velocity": 100}, {"time": 128904, "pitch": 67, "duration": 240, "velocity": 105}, {"time": 129104, "pitch": 47, "duration": 280, "velocity": 110}, {"time": 129114, "pitch": 50, "duration": 260, "velocity": 95}, {"time": 129124, "pitch": 55, "duration": 240, "velocity": 100}, {"time": 129134, "pitch": 59, "duration": 220, "velocity": 105}, {"time": 129144, "pitch": 67, "duration": 200, "velocity": 110}, {"time": 129344, "pitch": 67, "duration": 280, "velocity": 100}, {"time": 129354, "pitch": 59, "duration": 260, "velocity": 95}, {"time": 129364, "pitch": 55, "duration": 240, "velocity": 90}, {"time": 129374, "pitch": 50, "duration": 220, "velocity": 85}, {"time": 129384, "pitch": 47, "duration": 200, "velocity": 100}, {"time": 129584, "pitch": 45, "duration": 479, "velocity": 110}, {"time": 129594, "pitch": 50, "duration": 479, "velocity": 95}, {"time": 129604, "pitch": 57, "duration": 479, "velocity": 100}, {"time": 129614, "pitch": 62, "duration": 479, "velocity": 105}, {"time": 129624, "pitch": 66, "duration": 479, "velocity": 110}, {"time": 130063, "pitch": 45, "duration": 400, "velocity": 110}, {"time": 130073, "pitch": 50, "duration": 380, "velocity": 95}, {"time": 130083, "pitch": 57, "duration": 360, "velocity": 100}, {"time": 130093, "pitch": 62, "duration": 340, "velocity": 105}, {"time": 130103, "pitch": 66, "duration": 320, "velocity": 110}, {"time": 130423, "pitch": 66, "duration": 160, "velocity": 100}, {"time": 130433, "pitch": 62, "duration": 140, "velocity": 95}, {"time": 130443, "pitch": 57, "duration": 120, "velocity": 90}, {"time": 130453, "pitch": 50, "duration": 100, "velocity": 85}, {"time": 130463, "pitch": 45, "duration": 80, "velocity": 100}, {"time": 130543, "pitch": 45, "duration": 240, "velocity": 110}, {"time": 130553, "pitch": 50, "duration": 240, "velocity": 95}, {"time": 130563, "pitch": 57, "duration": 240, "velocity": 100}, {"time": 130573, "pitch": 62, "duration": 240, "velocity": 105}, {"time": 130583, "pitch": 67, "duration": 240, "velocity": 110}, {"time": 130783, "pitch": 45, "duration": 160, "velocity": 100}, {"time": 130793, "pitch": 50, "duration": 140, "velocity": 85}, {"time": 130803, "pitch": 57, "duration": 120, "velocity": 90}, {"time": 130813, "pitch": 62, "duration": 100, "velocity": 95}, {"time": 130823, "pitch": 66, "duration": 80, "velocity": 100}, {"time": 130903, "pitch": 64, "duration": 240, "velocity": 105}, {"time": 130913, "pitch": 62, "duration": 240, "velocity": 100}, {"time": 130923, "pitch": 57, "duration": 240, "velocity": 95}, {"time": 130933, "pitch": 50, "duration": 240, "velocity": 90}, {"time": 130943, "pitch": 45, "duration": 240, "velocity": 105}, {"time": 131143, "pitch": 64, "duration": 160, "velocity": 100}, {"time": 131153, "pitch": 62, "duration": 140, "velocity": 95}, {"time": 131163, "pitch": 57, "duration": 120, "velocity": 90}, {"time": 131173, "pitch": 50, "duration": 100, "velocity": 85}, {"time": 131183, "pitch": 45, "duration": 80, "velocity": 100}, {"time": 131263, "pitch": 45, "duration": 239, "velocity": 105}, {"time": 131273, "pitch": 50, "duration": 239, "velocity": 90}, {"time": 131283, "pitch": 57, "duration": 239, "velocity": 95}, {"time": 131293, "pitch": 62, "duration": 239, "velocity": 100}, {"time": 131303, "pitch": 67, "duration": 239, "velocity": 105}, {"time": 131502, "pitch": 45, "duration": 480, "velocity": 120}, {"time": 131512, "pitch": 50, "duration": 480, "velocity": 105}, {"time": 131522, "pitch": 57, "duration": 480, "velocity": 110}, {"time": 131532, "pitch": 62, "duration": 480, "velocity": 115}, {"time": 131542, "pitch": 66, "duration": 480, "velocity": 120}, {"time": 131982, "pitch": 45, "duration": 400, "velocity": 120}, {"time": 131992, "pitch": 50, "duration": 380, "velocity": 105}, {"time": 132002, "pitch": 57, "duration": 360, "velocity": 110}, {"time": 132012, "pitch": 62, "duration": 340, "velocity": 115}, {"time": 132022, "pitch": 66, "duration": 320, "velocity": 120}, {"time": 132342, "pitch": 66, "duration": 160, "velocity": 110}, {"time": 132352, "pitch": 62, "duration": 140, "velocity": 105}, {"time": 132362, "pitch": 57, "duration": 120, "velocity": 100}, {"time": 132372, "pitch": 50, "duration": 100, "velocity": 95}, {"time": 132382, "pitch": 45, "duration": 80, "velocity": 110}, {"time": 132462, "pitch": 45, "duration": 280, "velocity": 120}, {"time": 132472, "pitch": 50, "duration": 260, "velocity": 105}, {"time": 132482, "pitch": 57, "duration": 240, "velocity": 110}, {"time": 132492, "pitch": 62, "duration": 220, "velocity": 115}, {"time": 132502, "pitch": 66, "duration": 200, "velocity": 120}, {"time": 132702, "pitch": 66, "duration": 279, "velocity": 110}, {"time": 132712, "pitch": 62, "duration": 259, "velocity": 105}, {"time": 132722, "pitch": 57, "duration": 239, "velocity": 100}, {"time": 132732, "pitch": 50, "duration": 219, "velocity": 95}, {"time": 132742, "pitch": 45, "duration": 199, "velocity": 110}, {"time": 132941, "pitch": 45, "duration": 160, "velocity": 110}, {"time": 132951, "pitch": 50, "duration": 140, "velocity": 95}, {"time": 132961, "pitch": 57, "duration": 120, "velocity": 100}, {"time": 132971, "pitch": 62, "duration": 100, "velocity": 105}, {"time": 132981, "pitch": 66, "duration": 80, "velocity": 110}, {"time": 133061, "pitch": 66, "duration": 160, "velocity": 105}, {"time": 133071, "pitch": 62, "duration": 140, "velocity": 100}, {"time": 133081, "pitch": 57, "duration": 120, "velocity": 95}, {"time": 133091, "pitch": 50, "duration": 100, "velocity": 90}, {"time": 133101, "pitch": 45, "duration": 80, "velocity": 105}, {"time": 133181, "pitch": 45, "duration": 220, "velocity": 110}, {"time": 133191, "pitch": 50, "duration": 210, "velocity": 95}, {"time": 133201, "pitch": 57, "duration": 200, "velocity": 100}, {"time": 133211, "pitch": 62, "duration": 190, "velocity": 105}, {"time": 133221, "pitch": 66, "duration": 180, "velocity": 110}, {"time": 133421, "pitch": 47, "duration": 480, "velocity": 110}, {"time": 133431, "pitch": 52, "duration": 480, "velocity": 95}, {"time": 133441, "pitch": 55, "duration": 480, "velocity": 100}, {"time": 133451, "pitch": 59, "duration": 480, "velocity": 105}, {"time": 133461, "pitch": 64, "duration": 480, "velocity": 110}, {"time": 133901, "pitch": 47, "duration": 399, "velocity": 110}, {"time": 133911, "pitch": 52, "duration": 379, "velocity": 95}, {"time": 133921, "pitch": 55, "duration": 359, "velocity": 100}, {"time": 133931, "pitch": 59, "duration": 339, "velocity": 105}, {"time": 133941, "pitch": 64, "duration": 319, "velocity": 110}, {"time": 134260, "pitch": 64, "duration": 161, "velocity": 105}, {"time": 134270, "pitch": 59, "duration": 140, "velocity": 100}, {"time": 134280, "pitch": 55, "duration": 120, "velocity": 95}, {"time": 134290, "pitch": 52, "duration": 100, "velocity": 90}, {"time": 134300, "pitch": 47, "duration": 80, "velocity": 105}, {"time": 134380, "pitch": 47, "duration": 162, "velocity": 110}, {"time": 134390, "pitch": 52, "duration": 142, "velocity": 95}, {"time": 134400, "pitch": 55, "duration": 122, "velocity": 100}, {"time": 134410, "pitch": 59, "duration": 102, "velocity": 105}, {"time": 134421, "pitch": 64, "duration": 81, "velocity": 110}, {"time": 134502, "pitch": 64, "duration": 161, "velocity": 105}, {"time": 134512, "pitch": 59, "duration": 141, "velocity": 100}, {"time": 134522, "pitch": 55, "duration": 121, "velocity": 95}, {"time": 134532, "pitch": 52, "duration": 101, "velocity": 90}, {"time": 134542, "pitch": 47, "duration": 81, "velocity": 105}, {"time": 134623, "pitch": 47, "duration": 243, "velocity": 110}, {"time": 134633, "pitch": 52, "duration": 243, "velocity": 95}, {"time": 134643, "pitch": 55, "duration": 243, "velocity": 100}, {"time": 134653, "pitch": 59, "duration": 243, "velocity": 105}, {"time": 134663, "pitch": 64, "duration": 243, "velocity": 110}, {"time": 134866, "pitch": 47, "duration": 280, "velocity": 110}, {"time": 134876, "pitch": 52, "duration": 260, "velocity": 95}, {"time": 134886, "pitch": 55, "duration": 240, "velocity": 100}, {"time": 134896, "pitch": 59, "duration": 220, "velocity": 105}, {"time": 134906, "pitch": 64, "duration": 200, "velocity": 110}, {"time": 135106, "pitch": 64, "duration": 280, "velocity": 100}, {"time": 135116, "pitch": 59, "duration": 260, "velocity": 95}, {"time": 135126, "pitch": 55, "duration": 240, "velocity": 90}, {"time": 135136, "pitch": 52, "duration": 220, "velocity": 85}, {"time": 135146, "pitch": 47, "duration": 200, "velocity": 100}, {"time": 135346, "pitch": 47, "duration": 399, "velocity": 105}, {"time": 135356, "pitch": 50, "duration": 379, "velocity": 90}, {"time": 135366, "pitch": 55, "duration": 359, "velocity": 95}, {"time": 135376, "pitch": 59, "duration": 339, "velocity": 100}, {"time": 135386, "pitch": 67, "duration": 319, "velocity": 105}, {"time": 135705, "pitch": 67, "duration": 160, "velocity": 85}, {"time": 135715, "pitch": 59, "duration": 140, "velocity": 80}, {"time": 135725, "pitch": 55, "duration": 120, "velocity": 75}, {"time": 135735, "pitch": 50, "duration": 100, "velocity": 70}, {"time": 135745, "pitch": 47, "duration": 80, "velocity": 85}, {"time": 135825, "pitch": 47, "duration": 240, "velocity": 110}, {"time": 135835, "pitch": 50, "duration": 240, "velocity": 95}, {"time": 135845, "pitch": 55, "duration": 240, "velocity": 100}, {"time": 135855, "pitch": 59, "duration": 240, "velocity": 105}, {"time": 135865, "pitch": 67, "duration": 240, "velocity": 110}, {"time": 136065, "pitch": 47, "duration": 160, "velocity": 100}, {"time": 136075, "pitch": 50, "duration": 140, "velocity": 85}, {"time": 136085, "pitch": 55, "duration": 120, "velocity": 90}, {"time": 136095, "pitch": 59, "duration": 100, "velocity": 95}, {"time": 136105, "pitch": 67, "duration": 80, "velocity": 100}, {"time": 136185, "pitch": 67, "duration": 240, "velocity": 105}, {"time": 136195, "pitch": 59, "duration": 240, "velocity": 100}, {"time": 136205, "pitch": 55, "duration": 240, "velocity": 95}, {"time": 136215, "pitch": 50, "duration": 240, "velocity": 90}, {"time": 136225, "pitch": 47, "duration": 240, "velocity": 105}, {"time": 136425, "pitch": 67, "duration": 160, "velocity": 100}, {"time": 136435, "pitch": 59, "duration": 140, "velocity": 95}, {"time": 136445, "pitch": 55, "duration": 120, "velocity": 90}, {"time": 136455, "pitch": 50, "duration": 100, "velocity": 85}, {"time": 136465, "pitch": 47, "duration": 80, "velocity": 100}, {"time": 136545, "pitch": 47, "duration": 240, "velocity": 105}, {"time": 136555, "pitch": 50, "duration": 240, "velocity": 90}, {"time": 136565, "pitch": 55, "duration": 240, "velocity": 95}, {"time": 136575, "pitch": 59, "duration": 240, "velocity": 100}, {"time": 136585, "pitch": 67, "duration": 240, "velocity": 105}, {"time": 136785, "pitch": 47, "duration": 279, "velocity": 110}, {"time": 136795, "pitch": 50, "duration": 259, "velocity": 95}, {"time": 136805, "pitch": 55, "duration": 239, "velocity": 100}, {"time": 136815, "pitch": 59, "duration": 219, "velocity": 105}, {"time": 136825, "pitch": 67, "duration": 199, "velocity": 110}, {"time": 137024, "pitch": 67, "duration": 280, "velocity": 100}, {"time": 137034, "pitch": 59, "duration": 260, "velocity": 95}, {"time": 137044, "pitch": 55, "duration": 240, "velocity": 90}, {"time": 137054, "pitch": 50, "duration": 220, "velocity": 85}, {"time": 137064, "pitch": 47, "duration": 200, "velocity": 100}, {"time": 137264, "pitch": 45, "duration": 480, "velocity": 110}, {"time": 137274, "pitch": 50, "duration": 480, "velocity": 95}, {"time": 137284, "pitch": 57, "duration": 480, "velocity": 100}, {"time": 137294, "pitch": 62, "duration": 480, "velocity": 105}, {"time": 137304, "pitch": 66, "duration": 480, "velocity": 110}, {"time": 137744, "pitch": 45, "duration": 400, "velocity": 110}, {"time": 137754, "pitch": 50, "duration": 380, "velocity": 95}, {"time": 137764, "pitch": 57, "duration": 360, "velocity": 100}, {"time": 137774, "pitch": 62, "duration": 340, "velocity": 105}, {"time": 137784, "pitch": 66, "duration": 320, "velocity": 110}, {"time": 138104, "pitch": 66, "duration": 160, "velocity": 100}, {"time": 138114, "pitch": 62, "duration": 140, "velocity": 95}, {"time": 138124, "pitch": 57, "duration": 120, "velocity": 90}, {"time": 138134, "pitch": 50, "duration": 100, "velocity": 85}, {"time": 138144, "pitch": 45, "duration": 80, "velocity": 100}, {"time": 138224, "pitch": 45, "duration": 239, "velocity": 110}, {"time": 138234, "pitch": 50, "duration": 239, "velocity": 95}, {"time": 138244, "pitch": 57, "duration": 239, "velocity": 100}, {"time": 138254, "pitch": 62, "duration": 239, "velocity": 105}, {"time": 138264, "pitch": 67, "duration": 239, "velocity": 110}, {"time": 138463, "pitch": 45, "duration": 160, "velocity": 100}, {"time": 138473, "pitch": 50, "duration": 140, "velocity": 85}, {"time": 138483, "pitch": 57, "duration": 120, "velocity": 90}, {"time": 138493, "pitch": 62, "duration": 100, "velocity": 95}, {"time": 138503, "pitch": 66, "duration": 80, "velocity": 100}, {"time": 138583, "pitch": 64, "duration": 240, "velocity": 105}, {"time": 138593, "pitch": 62, "duration": 240, "velocity": 100}, {"time": 138603, "pitch": 57, "duration": 240, "velocity": 95}, {"time": 138613, "pitch": 50, "duration": 240, "velocity": 90}, {"time": 138623, "pitch": 45, "duration": 240, "velocity": 105}, {"time": 138823, "pitch": 64, "duration": 160, "velocity": 100}, {"time": 138833, "pitch": 62, "duration": 140, "velocity": 95}, {"time": 138843, "pitch": 57, "duration": 120, "velocity": 90}, {"time": 138853, "pitch": 50, "duration": 100, "velocity": 85}, {"time": 138863, "pitch": 45, "duration": 80, "velocity": 100}, {"time": 138943, "pitch": 45, "duration": 240, "velocity": 105}, {"time": 138953, "pitch": 50, "duration": 240, "velocity": 90}, {"time": 138963, "pitch": 57, "duration": 240, "velocity": 95}, {"time": 138973, "pitch": 62, "duration": 240, "velocity": 100}, {"time": 138983, "pitch": 67, "duration": 240, "velocity": 105}, {"time": 139183, "pitch": 48, "duration": 400, "velocity": 120}, {"time": 139193, "pitch": 52, "duration": 380, "velocity": 105}, {"time": 139203, "pitch": 55, "duration": 360, "velocity": 110}, {"time": 139213, "pitch": 60, "duration": 340, "velocity": 115}, {"time": 139223, "pitch": 64, "duration": 320, "velocity": 120}, {"time": 139543, "pitch": 64, "duration": 159, "velocity": 100}, {"time": 139553, "pitch": 60, "duration": 140, "velocity": 95}, {"time": 139563, "pitch": 55, "duration": 120, "velocity": 90}, {"time": 139573, "pitch": 52, "duration": 100, "velocity": 85}, {"time": 139583, "pitch": 48, "duration": 80, "velocity": 100}, {"time": 139663, "pitch": 48, "duration": 399, "velocity": 120}, {"time": 139673, "pitch": 52, "duration": 379, "velocity": 105}, {"time": 139683, "pitch": 55, "duration": 359, "velocity": 110}, {"time": 139693, "pitch": 60, "duration": 339, "velocity": 115}, {"time": 139702, "pitch": 64, "duration": 320, "velocity": 120}, {"time": 140022, "pitch": 64, "duration": 160, "velocity": 100}, {"time": 140032, "pitch": 59, "duration": 140, "velocity": 95}, {"time": 140042, "pitch": 55, "duration": 120, "velocity": 90}, {"time": 140052, "pitch": 52, "duration": 100, "velocity": 85}, {"time": 140062, "pitch": 47, "duration": 80, "velocity": 100}, {"time": 140142, "pitch": 47, "duration": 480, "velocity": 120}, {"time": 140152, "pitch": 52, "duration": 480, "velocity": 105}, {"time": 140162, "pitch": 55, "duration": 480, "velocity": 110}, {"time": 140172, "pitch": 59, "duration": 480, "velocity": 115}, {"time": 140182, "pitch": 64, "duration": 480, "velocity": 120}, {"time": 140622, "pitch": 45, "duration": 160, "velocity": 110}, {"time": 140632, "pitch": 52, "duration": 140, "velocity": 95}, {"time": 140642, "pitch": 55, "duration": 120, "velocity": 100}, {"time": 140652, "pitch": 60, "duration": 100, "velocity": 105}, {"time": 140662, "pitch": 64, "duration": 80, "velocity": 110}, {"time": 140742, "pitch": 64, "duration": 160, "velocity": 105}, {"time": 140752, "pitch": 60, "duration": 140, "velocity": 100}, {"time": 140762, "pitch": 55, "duration": 120, "velocity": 95}, {"time": 140772, "pitch": 52, "duration": 100, "velocity": 90}, {"time": 140782, "pitch": 45, "duration": 80, "velocity": 105}, {"time": 140862, "pitch": 45, "duration": 219, "velocity": 110}, {"time": 140872, "pitch": 52, "duration": 209, "velocity": 95}, {"time": 140882, "pitch": 55, "duration": 199, "velocity": 100}, {"time": 140892, "pitch": 60, "duration": 189, "velocity": 105}, {"time": 140902, "pitch": 64, "duration": 179, "velocity": 110}, {"time": 141101, "pitch": 45, "duration": 480, "velocity": 120}, {"time": 141111, "pitch": 50, "duration": 480, "velocity": 105}, {"time": 141121, "pitch": 57, "duration": 480, "velocity": 110}, {"time": 141131, "pitch": 62, "duration": 480, "velocity": 115}, {"time": 141141, "pitch": 66, "duration": 480, "velocity": 120}, {"time": 141581, "pitch": 45, "duration": 400, "velocity": 120}, {"time": 141591, "pitch": 50, "duration": 380, "velocity": 105}, {"time": 141601, "pitch": 57, "duration": 360, "velocity": 110}, {"time": 141611, "pitch": 62, "duration": 340, "velocity": 115}, {"time": 141621, "pitch": 66, "duration": 320, "velocity": 120}, {"time": 141941, "pitch": 66, "duration": 160, "velocity": 110}, {"time": 141951, "pitch": 62, "duration": 140, "velocity": 105}, {"time": 141961, "pitch": 57, "duration": 120, "velocity": 100}, {"time": 141971, "pitch": 50, "duration": 100, "velocity": 95}, {"time": 141981, "pitch": 45, "duration": 80, "velocity": 110}, {"time": 142061, "pitch": 45, "duration": 160, "velocity": 120}, {"time": 142071, "pitch": 50, "duration": 150, "velocity": 105}, {"time": 142081, "pitch": 57, "duration": 140, "velocity": 110}, {"time": 142091, "pitch": 62, "duration": 130, "velocity": 115}, {"time": 142101, "pitch": 67, "duration": 120, "velocity": 120}, {"time": 142301, "pitch": 66, "duration": 479, "velocity": 120}, {"time": 142311, "pitch": 62, "duration": 479, "velocity": 115}, {"time": 142321, "pitch": 57, "duration": 479, "velocity": 110}, {"time": 142331, "pitch": 50, "duration": 479, "velocity": 105}, {"time": 142341, "pitch": 45, "duration": 479, "velocity": 120}, {"time": 142780, "pitch": 66, "duration": 220, "velocity": 110}, {"time": 142790, "pitch": 62, "duration": 210, "velocity": 105}, {"time": 142800, "pitch": 57, "duration": 200, "velocity": 100}, {"time": 142810, "pitch": 50, "duration": 190, "velocity": 95}, {"time": 142820, "pitch": 45, "duration": 180, "velocity": 110}, {"time": 143020, "pitch": 48, "duration": 405, "velocity": 120}, {"time": 143030, "pitch": 52, "duration": 385, "velocity": 105}, {"time": 143040, "pitch": 55, "duration": 364, "velocity": 110}, {"time": 143050, "pitch": 60, "duration": 344, "velocity": 115}, {"time": 143060, "pitch": 64, "duration": 324, "velocity": 120}, {"time": 143384, "pitch": 64, "duration": 162, "velocity": 100}, {"time": 143394, "pitch": 60, "duration": 142, "velocity": 95}, {"time": 143404, "pitch": 55, "duration": 122, "velocity": 90}, {"time": 143415, "pitch": 52, "duration": 101, "velocity": 85}, {"time": 143425, "pitch": 48, "duration": 81, "velocity": 100}, {"time": 143506, "pitch": 48, "duration": 399, "velocity": 120}, {"time": 143516, "pitch": 52, "duration": 379, "velocity": 105}, {"time": 143526, "pitch": 55, "duration": 360, "velocity": 110}, {"time": 143536, "pitch": 60, "duration": 340, "velocity": 115}, {"time": 143546, "pitch": 64, "duration": 320, "velocity": 120}, {"time": 143866, "pitch": 64, "duration": 159, "velocity": 100}, {"time": 143876, "pitch": 59, "duration": 139, "velocity": 95}, {"time": 143886, "pitch": 55, "duration": 119, "velocity": 90}, {"time": 143895, "pitch": 52, "duration": 100, "velocity": 85}, {"time": 143905, "pitch": 47, "duration": 80, "velocity": 100}, {"time": 143985, "pitch": 47, "duration": 480, "velocity": 120}, {"time": 143995, "pitch": 52, "duration": 480, "velocity": 105}, {"time": 144005, "pitch": 55, "duration": 480, "velocity": 110}, {"time": 144015, "pitch": 59, "duration": 480, "velocity": 115}, {"time": 144025, "pitch": 64, "duration": 480, "velocity": 120}, {"time": 144465, "pitch": 45, "duration": 160, "velocity": 110}, {"time": 144475, "pitch": 52, "duration": 140, "velocity": 95}, {"time": 144485, "pitch": 55, "duration": 120, "velocity": 100}, {"time": 144495, "pitch": 60, "duration": 100, "velocity": 105}, {"time": 144505, "pitch": 64, "duration": 80, "velocity": 110}, {"time": 144585, "pitch": 64, "duration": 160, "velocity": 105}, {"time": 144595, "pitch": 60, "duration": 140, "velocity": 100}, {"time": 144605, "pitch": 55, "duration": 120, "velocity": 95}, {"time": 144615, "pitch": 52, "duration": 100, "velocity": 90}, {"time": 144625, "pitch": 45, "duration": 80, "velocity": 105}, {"time": 144705, "pitch": 45, "duration": 220, "velocity": 110}, {"time": 144715, "pitch": 52, "duration": 210, "velocity": 95}, {"time": 144725, "pitch": 55, "duration": 200, "velocity": 100}, {"time": 144735, "pitch": 60, "duration": 190, "velocity": 105}, {"time": 144745, "pitch": 64, "duration": 180, "velocity": 110}, {"time": 144945, "pitch": 45, "duration": 479, "velocity": 120}, {"time": 144955, "pitch": 50, "duration": 479, "velocity": 105}, {"time": 144965, "pitch": 57, "duration": 479, "velocity": 110}, {"time": 144975, "pitch": 62, "duration": 479, "velocity": 115}, {"time": 144985, "pitch": 66, "duration": 479, "velocity": 120}, {"time": 145424, "pitch": 45, "duration": 400, "velocity": 120}, {"time": 145434, "pitch": 50, "duration": 380, "velocity": 105}, {"time": 145444, "pitch": 57, "duration": 360, "velocity": 110}, {"time": 145454, "pitch": 62, "duration": 340, "velocity": 115}, {"time": 145464, "pitch": 66, "duration": 320, "velocity": 120}, {"time": 145784, "pitch": 66, "duration": 160, "velocity": 110}, {"time": 145794, "pitch": 62, "duration": 140, "velocity": 105}, {"time": 145804, "pitch": 57, "duration": 120, "velocity": 100}, {"time": 145814, "pitch": 50, "duration": 100, "velocity": 95}, {"time": 145824, "pitch": 45, "duration": 80, "velocity": 110}, {"time": 145904, "pitch": 45, "duration": 160, "velocity": 120}, {"time": 145914, "pitch": 50, "duration": 150, "velocity": 105}, {"time": 145924, "pitch": 57, "duration": 140, "velocity": 110}, {"time": 145934, "pitch": 62, "duration": 130, "velocity": 115}, {"time": 145944, "pitch": 67, "duration": 120, "velocity": 120}, {"time": 146144, "pitch": 66, "duration": 479, "velocity": 120}, {"time": 146154, "pitch": 62, "duration": 479, "velocity": 115}, {"time": 146164, "pitch": 57, "duration": 479, "velocity": 110}, {"time": 146174, "pitch": 50, "duration": 479, "velocity": 105}, {"time": 146184, "pitch": 45, "duration": 479, "velocity": 120}, {"time": 146623, "pitch": 66, "duration": 220, "velocity": 110}, {"time": 146633, "pitch": 62, "duration": 210, "velocity": 105}, {"time": 146643, "pitch": 57, "duration": 200, "velocity": 100}, {"time": 146653, "pitch": 50, "duration": 190, "velocity": 95}, {"time": 146663, "pitch": 45, "duration": 180, "velocity": 110}, {"time": 146863, "pitch": 48, "duration": 400, "velocity": 120}, {"time": 146873, "pitch": 52, "duration": 380, "velocity": 105}, {"time": 146883, "pitch": 55, "duration": 360, "velocity": 110}, {"time": 146893, "pitch": 60, "duration": 340, "velocity": 115}, {"time": 146903, "pitch": 64, "duration": 320, "velocity": 120}, {"time": 147223, "pitch": 64, "duration": 160, "velocity": 100}, {"time": 147233, "pitch": 60, "duration": 140, "velocity": 95}, {"time": 147243, "pitch": 55, "duration": 120, "velocity": 90}, {"time": 147253, "pitch": 52, "duration": 100, "velocity": 85}, {"time": 147263, "pitch": 48, "duration": 80, "velocity": 100}, {"time": 147343, "pitch": 48, "duration": 400, "velocity": 120}, {"time": 147353, "pitch": 52, "duration": 380, "velocity": 105}, {"time": 147363, "pitch": 55, "duration": 360, "velocity": 110}, {"time": 147373, "pitch": 60, "duration": 340, "velocity": 115}, {"time": 147383, "pitch": 64, "duration": 320, "velocity": 120}, {"time": 147703, "pitch": 64, "duration": 160, "velocity": 100}, {"time": 147713, "pitch": 59, "duration": 140, "velocity": 95}, {"time": 147723, "pitch": 55, "duration": 120, "velocity": 90}, {"time": 147733, "pitch": 52, "duration": 100, "velocity": 85}, {"time": 147743, "pitch": 47, "duration": 80, "velocity": 100}, {"time": 147823, "pitch": 47, "duration": 479, "velocity": 120}, {"time": 147833, "pitch": 52, "duration": 479, "velocity": 105}, {"time": 147843, "pitch": 55, "duration": 479, "velocity": 110}, {"time": 147853, "pitch": 59, "duration": 479, "velocity": 115}, {"time": 147863, "pitch": 64, "duration": 479, "velocity": 120}, {"time": 148302, "pitch": 45, "duration": 160, "velocity": 110}, {"time": 148312, "pitch": 52, "duration": 140, "velocity": 95}, {"time": 148322, "pitch": 55, "duration": 120, "velocity": 100}, {"time": 148332, "pitch": 60, "duration": 100, "velocity": 105}, {"time": 148342, "pitch": 64, "duration": 80, "velocity": 110}, {"time": 148422, "pitch": 64, "duration": 160, "velocity": 105}, {"time": 148432, "pitch": 60, "duration": 140, "velocity": 100}, {"time": 148442, "pitch": 55, "duration": 120, "velocity": 95}, {"time": 148452, "pitch": 52, "duration": 100, "velocity": 90}, {"time": 148462, "pitch": 45, "duration": 80, "velocity": 105}, {"time": 148542, "pitch": 45, "duration": 220, "velocity": 110}, {"time": 148552, "pitch": 52, "duration": 210, "velocity": 95}, {"time": 148562, "pitch": 55, "duration": 200, "velocity": 100}, {"time": 148572, "pitch": 60, "duration": 190, "velocity": 105}, {"time": 148582, "pitch": 64, "duration": 180, "velocity": 110}, {"time": 148782, "pitch": 45, "duration": 480, "velocity": 120}, {"time": 148792, "pitch": 50, "duration": 480, "velocity": 105}, {"time": 148802, "pitch": 57, "duration": 480, "velocity": 110}, {"time": 148812, "pitch": 62, "duration": 480, "velocity": 115}, {"time": 148822, "pitch": 66, "duration": 480, "velocity": 120}, {"time": 149262, "pitch": 45, "duration": 399, "velocity": 120}, {"time": 149272, "pitch": 50, "duration": 379, "velocity": 105}, {"time": 149282, "pitch": 57, "duration": 359, "velocity": 110}, {"time": 149292, "pitch": 62, "duration": 339, "velocity": 115}, {"time": 149302, "pitch": 66, "duration": 319, "velocity": 120}, {"time": 149621, "pitch": 66, "duration": 160, "velocity": 110}, {"time": 149631, "pitch": 62, "duration": 140, "velocity": 105}, {"time": 149641, "pitch": 57, "duration": 120, "velocity": 100}, {"time": 149651, "pitch": 50, "duration": 100, "velocity": 95}, {"time": 149661, "pitch": 45, "duration": 80, "velocity": 110}, {"time": 149741, "pitch": 45, "duration": 160, "velocity": 120}, {"time": 149751, "pitch": 50, "duration": 150, "velocity": 105}, {"time": 149761, "pitch": 57, "duration": 140, "velocity": 110}, {"time": 149771, "pitch": 62, "duration": 130, "velocity": 115}, {"time": 149781, "pitch": 67, "duration": 120, "velocity": 120}, {"time": 149981, "pitch": 66, "duration": 480, "velocity": 120}, {"time": 149991, "pitch": 62, "duration": 480, "velocity": 115}, {"time": 150001, "pitch": 57, "duration": 480, "velocity": 110}, {"time": 150011, "pitch": 50, "duration": 480, "velocity": 105}, {"time": 150021, "pitch": 45, "duration": 480, "velocity": 120}, {"time": 150461, "pitch": 66, "duration": 220, "velocity": 110}, {"time": 150471, "pitch": 62, "duration": 210, "velocity": 105}, {"time": 150481, "pitch": 57, "duration": 200, "velocity": 100}, {"time": 150491, "pitch": 50, "duration": 190, "velocity": 95}, {"time": 150501, "pitch": 45, "duration": 180, "velocity": 110}, {"time": 150701, "pitch": 48, "duration": 399, "velocity": 120}, {"time": 150711, "pitch": 52, "duration": 379, "velocity": 105}, {"time": 150720, "pitch": 55, "duration": 360, "velocity": 110}, {"time": 150730, "pitch": 60, "duration": 340, "velocity": 115}, {"time": 150740, "pitch": 64, "duration": 320, "velocity": 120}, {"time": 151060, "pitch": 64, "duration": 160, "velocity": 100}, {"time": 151070, "pitch": 60, "duration": 140, "velocity": 95}, {"time": 151080, "pitch": 55, "duration": 120, "velocity": 90}, {"time": 151090, "pitch": 52, "duration": 100, "velocity": 85}, {"time": 151100, "pitch": 48, "duration": 80, "velocity": 100}, {"time": 151180, "pitch": 48, "duration": 405, "velocity": 120}, {"time": 151190, "pitch": 52, "duration": 385, "velocity": 105}, {"time": 151200, "pitch": 55, "duration": 364, "velocity": 110}, {"time": 151210, "pitch": 60, "duration": 344, "velocity": 115}, {"time": 151220, "pitch": 64, "duration": 324, "velocity": 120}, {"time": 151544, "pitch": 64, "duration": 162, "velocity": 100}, {"time": 151554, "pitch": 59, "duration": 142, "velocity": 95}, {"time": 151564, "pitch": 55, "duration": 122, "velocity": 90}, {"time": 151575, "pitch": 52, "duration": 101, "velocity": 85}, {"time": 151585, "pitch": 47, "duration": 81, "velocity": 100}, {"time": 151666, "pitch": 47, "duration": 480, "velocity": 120}, {"time": 151676, "pitch": 52, "duration": 480, "velocity": 105}, {"time": 151686, "pitch": 55, "duration": 480, "velocity": 110}, {"time": 151696, "pitch": 59, "duration": 480, "velocity": 115}, {"time": 151706, "pitch": 64, "duration": 479, "velocity": 120}, {"time": 152146, "pitch": 45, "duration": 159, "velocity": 110}, {"time": 152156, "pitch": 52, "duration": 139, "velocity": 95}, {"time": 152166, "pitch": 55, "duration": 119, "velocity": 100}, {"time": 152176, "pitch": 60, "duration": 99, "velocity": 105}, {"time": 152185, "pitch": 64, "duration": 80, "velocity": 110}, {"time": 152265, "pitch": 64, "duration": 160, "velocity": 105}, {"time": 152275, "pitch": 60, "duration": 140, "velocity": 100}, {"time": 152285, "pitch": 55, "duration": 120, "velocity": 95}, {"time": 152295, "pitch": 52, "duration": 100, "velocity": 90}, {"time": 152305, "pitch": 45, "duration": 80, "velocity": 105}, {"time": 152385, "pitch": 45, "duration": 220, "velocity": 110}, {"time": 152395, "pitch": 52, "duration": 210, "velocity": 95}, {"time": 152405, "pitch": 55, "duration": 200, "velocity": 100}, {"time": 152415, "pitch": 60, "duration": 190, "velocity": 105}, {"time": 152425, "pitch": 64, "duration": 180, "velocity": 110}, {"time": 152625, "pitch": 45, "duration": 480, "velocity": 120}, {"time": 152635, "pitch": 50, "duration": 480, "velocity": 105}, {"time": 152645, "pitch": 57, "duration": 480, "velocity": 110}, {"time": 152655, "pitch": 62, "duration": 480, "velocity": 115}, {"time": 152665, "pitch": 66, "duration": 480, "velocity": 120}, {"time": 153105, "pitch": 45, "duration": 400, "velocity": 120}, {"time": 153115, "pitch": 50, "duration": 380, "velocity": 105}, {"time": 153125, "pitch": 57, "duration": 360, "velocity": 110}, {"time": 153135, "pitch": 62, "duration": 340, "velocity": 115}, {"time": 153145, "pitch": 66, "duration": 320, "velocity": 120}, {"time": 153465, "pitch": 66, "duration": 159, "velocity": 110}, {"time": 153475, "pitch": 62, "duration": 139, "velocity": 105}, {"time": 153485, "pitch": 57, "duration": 119, "velocity": 100}, {"time": 153495, "pitch": 50, "duration": 99, "velocity": 95}, {"time": 153505, "pitch": 45, "duration": 79, "velocity": 110}, {"time": 153584, "pitch": 45, "duration": 160, "velocity": 120}, {"time": 153594, "pitch": 50, "duration": 150, "velocity": 105}, {"time": 153604, "pitch": 57, "duration": 140, "velocity": 110}, {"time": 153614, "pitch": 62, "duration": 130, "velocity": 115}, {"time": 153624, "pitch": 67, "duration": 120, "velocity": 120}, {"time": 153824, "pitch": 66, "duration": 480, "velocity": 120}, {"time": 153834, "pitch": 62, "duration": 480, "velocity": 115}, {"time": 153844, "pitch": 57, "duration": 480, "velocity": 110}, {"time": 153854, "pitch": 50, "duration": 480, "velocity": 105}, {"time": 153864, "pitch": 45, "duration": 480, "velocity": 120}, {"time": 154304, "pitch": 66, "duration": 220, "velocity": 110}, {"time": 154314, "pitch": 62, "duration": 210, "velocity": 105}, {"time": 154324, "pitch": 57, "duration": 200, "velocity": 100}, {"time": 154334, "pitch": 50, "duration": 190, "velocity": 95}, {"time": 154344, "pitch": 45, "duration": 180, "velocity": 110}, {"time": 154544, "pitch": 45, "duration": 479, "velocity": 110}, {"time": 154554, "pitch": 50, "duration": 479, "velocity": 95}, {"time": 154564, "pitch": 57, "duration": 479, "velocity": 100}, {"time": 154574, "pitch": 62, "duration": 479, "velocity": 105}, {"time": 154584, "pitch": 66, "duration": 479, "velocity": 110}, {"time": 155023, "pitch": 45, "duration": 400, "velocity": 110}, {"time": 155033, "pitch": 50, "duration": 380, "velocity": 95}, {"time": 155043, "pitch": 57, "duration": 360, "velocity": 100}, {"time": 155053, "pitch": 62, "duration": 340, "velocity": 105}, {"time": 155063, "pitch": 66, "duration": 320, "velocity": 110}, {"time": 155383, "pitch": 66, "duration": 160, "velocity": 100}, {"time": 155393, "pitch": 62, "duration": 140, "velocity": 95}, {"time": 155403, "pitch": 57, "duration": 120, "velocity": 90}, {"time": 155413, "pitch": 50, "duration": 100, "velocity": 85}, {"time": 155423, "pitch": 45, "duration": 80, "velocity": 100}, {"time": 155503, "pitch": 45, "duration": 240, "velocity": 110}, {"time": 155513, "pitch": 50, "duration": 240, "velocity": 95}, {"time": 155523, "pitch": 57, "duration": 240, "velocity": 100}, {"time": 155533, "pitch": 62, "duration": 240, "velocity": 105}, {"time": 155543, "pitch": 67, "duration": 240, "velocity": 110}, {"time": 155743, "pitch": 45, "duration": 160, "velocity": 100}, {"time": 155753, "pitch": 50, "duration": 140, "velocity": 85}, {"time": 155763, "pitch": 57, "duration": 120, "velocity": 90}, {"time": 155773, "pitch": 62, "duration": 100, "velocity": 95}, {"time": 155783, "pitch": 66, "duration": 80, "velocity": 100}, {"time": 155863, "pitch": 64, "duration": 240, "velocity": 105}, {"time": 155873, "pitch": 62, "duration": 240, "velocity": 100}, {"time": 155883, "pitch": 57, "duration": 240, "velocity": 95}, {"time": 155893, "pitch": 50, "duration": 240, "velocity": 90}, {"time": 155903, "pitch": 45, "duration": 240, "velocity": 105}, {"time": 156103, "pitch": 64, "duration": 160, "velocity": 100}, {"time": 156113, "pitch": 62, "duration": 140, "velocity": 95}, {"time": 156123, "pitch": 57, "duration": 120, "velocity": 90}, {"time": 156133, "pitch": 50, "duration": 100, "velocity": 85}, {"time": 156143, "pitch": 45, "duration": 80, "velocity": 100}, {"time": 156223, "pitch": 45, "duration": 239, "velocity": 105}, {"time": 156233, "pitch": 50, "duration": 239, "velocity": 90}, {"time": 156243, "pitch": 57, "duration": 239, "velocity": 95}, {"time": 156253, "pitch": 62, "duration": 239, "velocity": 100}, {"time": 156263, "pitch": 67, "duration": 239, "velocity": 105}, {"time": 156462, "pitch": 45, "duration": 480, "velocity": 120}, {"time": 156472, "pitch": 50, "duration": 480, "velocity": 105}, {"time": 156482, "pitch": 57, "duration": 480, "velocity": 110}, {"time": 156492, "pitch": 62, "duration": 480, "velocity": 115}, {"time": 156502, "pitch": 66, "duration": 480, "velocity": 120}, {"time": 156942, "pitch": 45, "duration": 400, "velocity": 120}, {"time": 156952, "pitch": 50, "duration": 380, "velocity": 105}, {"time": 156962, "pitch": 57, "duration": 360, "velocity": 110}, {"time": 156972, "pitch": 62, "duration": 340, "velocity": 115}, {"time": 156982, "pitch": 66, "duration": 320, "velocity": 120}, {"time": 157302, "pitch": 66, "duration": 160, "velocity": 110}, {"time": 157312, "pitch": 62, "duration": 140, "velocity": 105}, {"time": 157322, "pitch": 57, "duration": 120, "velocity": 100}, {"time": 157332, "pitch": 50, "duration": 100, "velocity": 95}, {"time": 157342, "pitch": 45, "duration": 80, "velocity": 110}, {"time": 157422, "pitch": 45, "duration": 160, "velocity": 120}, {"time": 157432, "pitch": 50, "duration": 150, "velocity": 105}, {"time": 157442, "pitch": 57, "duration": 140, "velocity": 110}, {"time": 157452, "pitch": 62, "duration": 130, "velocity": 115}, {"time": 157462, "pitch": 67, "duration": 120, "velocity": 120}, {"time": 157661, "pitch": 66, "duration": 480, "velocity": 120}, {"time": 157671, "pitch": 62, "duration": 480, "velocity": 115}, {"time": 157681, "pitch": 57, "duration": 480, "velocity": 110}, {"time": 157691, "pitch": 50, "duration": 480, "velocity": 105}, {"time": 157701, "pitch": 45, "duration": 480, "velocity": 120}, {"time": 158141, "pitch": 66, "duration": 220, "velocity": 110}, {"time": 158151, "pitch": 62, "duration": 210, "velocity": 105}, {"time": 158161, "pitch": 57, "duration": 200, "velocity": 100}, {"time": 158171, "pitch": 50, "duration": 190, "velocity": 95}, {"time": 158181, "pitch": 45, "duration": 180, "velocity": 110}, {"time": 158381, "pitch": 48, "duration": 400, "velocity": 120}, {"time": 158391, "pitch": 52, "duration": 380, "velocity": 105}, {"time": 158401, "pitch": 55, "duration": 360, "velocity": 110}, {"time": 158411, "pitch": 60, "duration": 340, "velocity": 115}, {"time": 158421, "pitch": 64, "duration": 320, "velocity": 120}, {"time": 158741, "pitch": 64, "duration": 160, "velocity": 100}, {"time": 158751, "pitch": 60, "duration": 140, "velocity": 95}, {"time": 158761, "pitch": 55, "duration": 120, "velocity": 90}, {"time": 158771, "pitch": 52, "duration": 100, "velocity": 85}, {"time": 158781, "pitch": 48, "duration": 80, "velocity": 100}, {"time": 158861, "pitch": 48, "duration": 399, "velocity": 120}, {"time": 158871, "pitch": 52, "duration": 379, "velocity": 105}, {"time": 158881, "pitch": 55, "duration": 359, "velocity": 110}, {"time": 158891, "pitch": 60, "duration": 339, "velocity": 115}, {"time": 158901, "pitch": 64, "duration": 319, "velocity": 120}, {"time": 159220, "pitch": 64, "duration": 160, "velocity": 100}, {"time": 159230, "pitch": 59, "duration": 140, "velocity": 95}, {"time": 159240, "pitch": 55, "duration": 120, "velocity": 90}, {"time": 159250, "pitch": 52, "duration": 100, "velocity": 85}, {"time": 159260, "pitch": 47, "duration": 80, "velocity": 100}, {"time": 159340, "pitch": 47, "duration": 486, "velocity": 120}, {"time": 159350, "pitch": 52, "duration": 486, "velocity": 105}, {"time": 159360, "pitch": 55, "duration": 486, "velocity": 110}, {"time": 159370, "pitch": 59, "duration": 486, "velocity": 115}, {"time": 159380, "pitch": 64, "duration": 486, "velocity": 120}, {"time": 159826, "pitch": 45, "duration": 160, "velocity": 110}, {"time": 159836, "pitch": 52, "duration": 140, "velocity": 95}, {"time": 159846, "pitch": 55, "duration": 120, "velocity": 100}, {"time": 159856, "pitch": 60, "duration": 100, "velocity": 105}, {"time": 159866, "pitch": 64, "duration": 80, "velocity": 110}, {"time": 159946, "pitch": 64, "duration": 160, "velocity": 105}, {"time": 159956, "pitch": 60, "duration": 140, "velocity": 100}, {"time": 159966, "pitch": 55, "duration": 120, "velocity": 95}, {"time": 159976, "pitch": 52, "duration": 100, "velocity": 90}, {"time": 159986, "pitch": 45, "duration": 80, "velocity": 105}, {"time": 160066, "pitch": 45, "duration": 220, "velocity": 110}, {"time": 160076, "pitch": 52, "duration": 210, "velocity": 95}, {"time": 160086, "pitch": 55, "duration": 200, "velocity": 100}, {"time": 160096, "pitch": 60, "duration": 190, "velocity": 105}, {"time": 160106, "pitch": 64, "duration": 180, "velocity": 110}, {"time": 160306, "pitch": 45, "duration": 479, "velocity": 120}, {"time": 160316, "pitch": 50, "duration": 479, "velocity": 105}, {"time": 160326, "pitch": 57, "duration": 479, "velocity": 110}, {"time": 160336, "pitch": 62, "duration": 479, "velocity": 115}, {"time": 160346, "pitch": 66, "duration": 479, "velocity": 120}, {"time": 160785, "pitch": 45, "duration": 400, "velocity": 120}, {"time": 160795, "pitch": 50, "duration": 380, "velocity": 105}, {"time": 160805, "pitch": 57, "duration": 360, "velocity": 110}, {"time": 160815, "pitch": 62, "duration": 340, "velocity": 115}, {"time": 160825, "pitch": 66, "duration": 320, "velocity": 120}, {"time": 161145, "pitch": 66, "duration": 160, "velocity": 110}, {"time": 161155, "pitch": 62, "duration": 140, "velocity": 105}, {"time": 161165, "pitch": 57, "duration": 120, "velocity": 100}, {"time": 161175, "pitch": 50, "duration": 100, "velocity": 95}, {"time": 161185, "pitch": 45, "duration": 80, "velocity": 110}, {"time": 161265, "pitch": 45, "duration": 160, "velocity": 120}, {"time": 161275, "pitch": 50, "duration": 150, "velocity": 105}, {"time": 161285, "pitch": 57, "duration": 140, "velocity": 110}, {"time": 161295, "pitch": 62, "duration": 130, "velocity": 115}, {"time": 161305, "pitch": 67, "duration": 120, "velocity": 120}, {"time": 161505, "pitch": 66, "duration": 479, "velocity": 120}, {"time": 161515, "pitch": 62, "duration": 479, "velocity": 115}, {"time": 161525, "pitch": 57, "duration": 479, "velocity": 110}, {"time": 161535, "pitch": 50, "duration": 479, "velocity": 105}, {"time": 161545, "pitch": 45, "duration": 479, "velocity": 120}, {"time": 161984, "pitch": 66, "duration": 220, "velocity": 110}, {"time": 161994, "pitch": 62, "duration": 210, "velocity": 105}, {"time": 162004, "pitch": 57, "duration": 200, "velocity": 100}, {"time": 162014, "pitch": 50, "duration": 190, "velocity": 95}, {"time": 162024, "pitch": 45, "duration": 180, "velocity": 110}, {"time": 162224, "pitch": 48, "duration": 400, "velocity": 120}, {"time": 162234, "pitch": 52, "duration": 380, "velocity": 105}, {"time": 162244, "pitch": 55, "duration": 360, "velocity": 110}, {"time": 162254, "pitch": 60, "duration": 340, "velocity": 115}, {"time": 162264, "pitch": 64, "duration": 320, "velocity": 120}, {"time": 162584, "pitch": 64, "duration": 160, "velocity": 100}, {"time": 162594, "pitch": 60, "duration": 140, "velocity": 95}, {"time": 162604, "pitch": 55, "duration": 120, "velocity": 90}, {"time": 162614, "pitch": 52, "duration": 100, "velocity": 85}, {"time": 162624, "pitch": 48, "duration": 80, "velocity": 100}, {"time": 162704, "pitch": 48, "duration": 400, "velocity": 120}, {"time": 162714, "pitch": 52, "duration": 380, "velocity": 105}, {"time": 162724, "pitch": 55, "duration": 360, "velocity": 110}, {"time": 162734, "pitch": 60, "duration": 340, "velocity": 115}, {"time": 162744, "pitch": 64, "duration": 320, "velocity": 120}, {"time": 163064, "pitch": 64, "duration": 159, "velocity": 100}, {"time": 163074, "pitch": 59, "duration": 139, "velocity": 95}, {"time": 163084, "pitch": 55, "duration": 119, "velocity": 90}, {"time": 163094, "pitch": 52, "duration": 100, "velocity": 85}, {"time": 163104, "pitch": 47, "duration": 80, "velocity": 100}, {"time": 163184, "pitch": 47, "duration": 479, "velocity": 120}, {"time": 163194, "pitch": 52, "duration": 479, "velocity": 105}, {"time": 163203, "pitch": 55, "duration": 480, "velocity": 110}, {"time": 163213, "pitch": 59, "duration": 480, "velocity": 115}, {"time": 163223, "pitch": 64, "duration": 480, "velocity": 120}, {"time": 163663, "pitch": 45, "duration": 160, "velocity": 110}, {"time": 163673, "pitch": 52, "duration": 140, "velocity": 95}, {"time": 163683, "pitch": 55, "duration": 120, "velocity": 100}, {"time": 163693, "pitch": 60, "duration": 100, "velocity": 105}, {"time": 163703, "pitch": 64, "duration": 80, "velocity": 110}, {"time": 163783, "pitch": 64, "duration": 160, "velocity": 105}, {"time": 163793, "pitch": 60, "duration": 140, "velocity": 100}, {"time": 163803, "pitch": 55, "duration": 120, "velocity": 95}, {"time": 163813, "pitch": 52, "duration": 100, "velocity": 90}, {"time": 163823, "pitch": 45, "duration": 80, "velocity": 105}, {"time": 163903, "pitch": 45, "duration": 220, "velocity": 110}, {"time": 163913, "pitch": 52, "duration": 210, "velocity": 95}, {"time": 163923, "pitch": 55, "duration": 200, "velocity": 100}, {"time": 163933, "pitch": 60, "duration": 190, "velocity": 105}, {"time": 163943, "pitch": 64, "duration": 180, "velocity": 110}, {"time": 164143, "pitch": 45, "duration": 479, "velocity": 120}, {"time": 164153, "pitch": 50, "duration": 479, "velocity": 105}, {"time": 164163, "pitch": 57, "duration": 479, "velocity": 110}, {"time": 164173, "pitch": 62, "duration": 479, "velocity": 115}, {"time": 164183, "pitch": 66, "duration": 479, "velocity": 120}, {"time": 164622, "pitch": 45, "duration": 400, "velocity": 120}, {"time": 164632, "pitch": 50, "duration": 380, "velocity": 105}, {"time": 164642, "pitch": 57, "duration": 360, "velocity": 110}, {"time": 164652, "pitch": 62, "duration": 340, "velocity": 115}, {"time": 164662, "pitch": 66, "duration": 320, "velocity": 120}, {"time": 164982, "pitch": 66, "duration": 160, "velocity": 110}, {"time": 164992, "pitch": 62, "duration": 140, "velocity": 105}, {"time": 165002, "pitch": 57, "duration": 120, "velocity": 100}, {"time": 165012, "pitch": 50, "duration": 100, "velocity": 95}, {"time": 165022, "pitch": 45, "duration": 80, "velocity": 110}, {"time": 165102, "pitch": 45, "duration": 160, "velocity": 120}, {"time": 165112, "pitch": 50, "duration": 150, "velocity": 105}, {"time": 165122, "pitch": 57, "duration": 140, "velocity": 110}, {"time": 165132, "pitch": 62, "duration": 130, "velocity": 115}, {"time": 165142, "pitch": 67, "duration": 120, "velocity": 120}, {"time": 165342, "pitch": 66, "duration": 480, "velocity": 120}, {"time": 165352, "pitch": 62, "duration": 480, "velocity": 115}, {"time": 165362, "pitch": 57, "duration": 480, "velocity": 110}, {"time": 165372, "pitch": 50, "duration": 480, "velocity": 105}, {"time": 165382, "pitch": 45, "duration": 480, "velocity": 120}, {"time": 165822, "pitch": 66, "duration": 219, "velocity": 110}, {"time": 165832, "pitch": 62, "duration": 209, "velocity": 105}, {"time": 165842, "pitch": 57, "duration": 199, "velocity": 100}, {"time": 165852, "pitch": 50, "duration": 189, "velocity": 95}, {"time": 165862, "pitch": 45, "duration": 179, "velocity": 110}, {"time": 166061, "pitch": 48, "duration": 400, "velocity": 120}, {"time": 166071, "pitch": 52, "duration": 380, "velocity": 105}, {"time": 166081, "pitch": 55, "duration": 360, "velocity": 110}, {"time": 166091, "pitch": 60, "duration": 340, "velocity": 115}, {"time": 166101, "pitch": 64, "duration": 320, "velocity": 120}, {"time": 166421, "pitch": 64, "duration": 160, "velocity": 100}, {"time": 166431, "pitch": 60, "duration": 140, "velocity": 95}, {"time": 166441, "pitch": 55, "duration": 120, "velocity": 90}, {"time": 166451, "pitch": 52, "duration": 100, "velocity": 85}, {"time": 166461, "pitch": 48, "duration": 80, "velocity": 100}, {"time": 166541, "pitch": 48, "duration": 400, "velocity": 120}, {"time": 166551, "pitch": 52, "duration": 380, "velocity": 105}, {"time": 166561, "pitch": 55, "duration": 360, "velocity": 110}, {"time": 166571, "pitch": 60, "duration": 340, "velocity": 115}, {"time": 166581, "pitch": 64, "duration": 320, "velocity": 120}, {"time": 166901, "pitch": 64, "duration": 160, "velocity": 100}, {"time": 166911, "pitch": 59, "duration": 140, "velocity": 95}, {"time": 166921, "pitch": 55, "duration": 120, "velocity": 90}, {"time": 166931, "pitch": 52, "duration": 100, "velocity": 85}, {"time": 166941, "pitch": 47, "duration": 80, "velocity": 100}, {"time": 167021, "pitch": 47, "duration": 479, "velocity": 120}, {"time": 167031, "pitch": 52, "duration": 479, "velocity": 105}, {"time": 167041, "pitch": 55, "duration": 479, "velocity": 110}, {"time": 167051, "pitch": 59, "duration": 479, "velocity": 115}, {"time": 167061, "pitch": 64, "duration": 479, "velocity": 120}, {"time": 167500, "pitch": 45, "duration": 160, "velocity": 110}, {"time": 167510, "pitch": 52, "duration": 140, "velocity": 95}, {"time": 167520, "pitch": 55, "duration": 120, "velocity": 100}, {"time": 167530, "pitch": 60, "duration": 100, "velocity": 105}, {"time": 167540, "pitch": 64, "duration": 80, "velocity": 110}, {"time": 167620, "pitch": 64, "duration": 160, "velocity": 105}, {"time": 167630, "pitch": 60, "duration": 140, "velocity": 100}, {"time": 167640, "pitch": 55, "duration": 120, "velocity": 95}, {"time": 167650, "pitch": 52, "duration": 100, "velocity": 90}, {"time": 167660, "pitch": 45, "duration": 80, "velocity": 105}, {"time": 167740, "pitch": 45, "duration": 220, "velocity": 110}, {"time": 167750, "pitch": 52, "duration": 210, "velocity": 95}, {"time": 167760, "pitch": 55, "duration": 200, "velocity": 100}, {"time": 167770, "pitch": 60, "duration": 190, "velocity": 105}, {"time": 167780, "pitch": 64, "duration": 180, "velocity": 110}, {"time": 167980, "pitch": 45, "duration": 486, "velocity": 120}, {"time": 167990, "pitch": 50, "duration": 486, "velocity": 105}, {"time": 168000, "pitch": 57, "duration": 486, "velocity": 110}, {"time": 168010, "pitch": 62, "duration": 486, "velocity": 115}, {"time": 168020, "pitch": 66, "duration": 486, "velocity": 120}, {"time": 168466, "pitch": 45, "duration": 399, "velocity": 120}, {"time": 168476, "pitch": 50, "duration": 379, "velocity": 105}, {"time": 168486, "pitch": 57, "duration": 359, "velocity": 110}, {"time": 168496, "pitch": 62, "duration": 339, "velocity": 115}, {"time": 168506, "pitch": 66, "duration": 319, "velocity": 120}, {"time": 168825, "pitch": 66, "duration": 160, "velocity": 110}, {"time": 168835, "pitch": 62, "duration": 140, "velocity": 105}, {"time": 168845, "pitch": 57, "duration": 120, "velocity": 100}, {"time": 168855, "pitch": 50, "duration": 100, "velocity": 95}, {"time": 168865, "pitch": 45, "duration": 80, "velocity": 110}, {"time": 168945, "pitch": 45, "duration": 160, "velocity": 120}, {"time": 168955, "pitch": 50, "duration": 150, "velocity": 105}, {"time": 168965, "pitch": 57, "duration": 140, "velocity": 110}, {"time": 168975, "pitch": 62, "duration": 130, "velocity": 115}, {"time": 168985, "pitch": 67, "duration": 120, "velocity": 120}, {"time": 169185, "pitch": 66, "duration": 480, "velocity": 120}, {"time": 169195, "pitch": 62, "duration": 480, "velocity": 115}, {"time": 169205, "pitch": 57, "duration": 480, "velocity": 110}, {"time": 169215, "pitch": 50, "duration": 480, "velocity": 105}, {"time": 169225, "pitch": 45, "duration": 480, "velocity": 120}, {"time": 169665, "pitch": 66, "duration": 220, "velocity": 110}, {"time": 169675, "pitch": 62, "duration": 210, "velocity": 105}, {"time": 169685, "pitch": 57, "duration": 200, "velocity": 100}, {"time": 169695, "pitch": 50, "duration": 190, "velocity": 95}, {"time": 169705, "pitch": 45, "duration": 180, "velocity": 110}, {"time": 169905, "pitch": 48, "duration": 399, "velocity": 120}, {"time": 169915, "pitch": 52, "duration": 379, "velocity": 105}, {"time": 169925, "pitch": 55, "duration": 359, "velocity": 110}, {"time": 169935, "pitch": 60, "duration": 339, "velocity": 115}, {"time": 169945, "pitch": 64, "duration": 319, "velocity": 120}, {"time": 170264, "pitch": 64, "duration": 160, "velocity": 100}, {"time": 170274, "pitch": 60, "duration": 140, "velocity": 95}, {"time": 170284, "pitch": 55, "duration": 120, "velocity": 90}, {"time": 170294, "pitch": 52, "duration": 100, "velocity": 85}, {"time": 170304, "pitch": 48, "duration": 80, "velocity": 100}, {"time": 170384, "pitch": 48, "duration": 400, "velocity": 120}, {"time": 170394, "pitch": 52, "duration": 380, "velocity": 105}, {"time": 170404, "pitch": 55, "duration": 360, "velocity": 110}, {"time": 170414, "pitch": 60, "duration": 340, "velocity": 115}, {"time": 170424, "pitch": 64, "duration": 320, "velocity": 120}, {"time": 170744, "pitch": 64, "duration": 160, "velocity": 100}, {"time": 170754, "pitch": 59, "duration": 140, "velocity": 95}, {"time": 170764, "pitch": 55, "duration": 120, "velocity": 90}, {"time": 170774, "pitch": 52, "duration": 100, "velocity": 85}, {"time": 170784, "pitch": 47, "duration": 80, "velocity": 100}, {"time": 170864, "pitch": 47, "duration": 480, "velocity": 120}, {"time": 170874, "pitch": 52, "duration": 480, "velocity": 105}, {"time": 170884, "pitch": 55, "duration": 480, "velocity": 110}, {"time": 170894, "pitch": 59, "duration": 480, "velocity": 115}, {"time": 170904, "pitch": 64, "duration": 480, "velocity": 120}, {"time": 171344, "pitch": 45, "duration": 159, "velocity": 110}, {"time": 171354, "pitch": 52, "duration": 139, "velocity": 95}, {"time": 171364, "pitch": 55, "duration": 120, "velocity": 100}, {"time": 171374, "pitch": 60, "duration": 100, "velocity": 105}, {"time": 171384, "pitch": 64, "duration": 80, "velocity": 110}, {"time": 171464, "pitch": 64, "duration": 159, "velocity": 105}, {"time": 171474, "pitch": 60, "duration": 139, "velocity": 100}, {"time": 171484, "pitch": 55, "duration": 119, "velocity": 95}, {"time": 171493, "pitch": 52, "duration": 100, "velocity": 90}, {"time": 171503, "pitch": 45, "duration": 80, "velocity": 105}, {"time": 171583, "pitch": 45, "duration": 220, "velocity": 110}, {"time": 171593, "pitch": 52, "duration": 210, "velocity": 95}, {"time": 171603, "pitch": 55, "duration": 200, "velocity": 100}, {"time": 171613, "pitch": 60, "duration": 190, "velocity": 105}, {"time": 171623, "pitch": 64, "duration": 180, "velocity": 110}, {"time": 171823, "pitch": 45, "duration": 480, "velocity": 120}, {"time": 171833, "pitch": 50, "duration": 480, "velocity": 105}, {"time": 171843, "pitch": 57, "duration": 480, "velocity": 110}, {"time": 171853, "pitch": 62, "duration": 480, "velocity": 115}, {"time": 171863, "pitch": 66, "duration": 480, "velocity": 120}, {"time": 172303, "pitch": 45, "duration": 400, "velocity": 120}, {"time": 172313, "pitch": 50, "duration": 380, "velocity": 105}, {"time": 172323, "pitch": 57, "duration": 360, "velocity": 110}, {"time": 172333, "pitch": 62, "duration": 340, "velocity": 115}, {"time": 172343, "pitch": 66, "duration": 320, "velocity": 120}, {"time": 172663, "pitch": 66, "duration": 160, "velocity": 110}, {"time": 172673, "pitch": 62, "duration": 140, "velocity": 105}, {"time": 172683, "pitch": 57, "duration": 120, "velocity": 100}, {"time": 172693, "pitch": 50, "duration": 100, "velocity": 95}, {"time": 172703, "pitch": 45, "duration": 80, "velocity": 110}, {"time": 172783, "pitch": 45, "duration": 159, "velocity": 120}, {"time": 172793, "pitch": 50, "duration": 149, "velocity": 105}, {"time": 172803, "pitch": 57, "duration": 139, "velocity": 110}, {"time": 172813, "pitch": 62, "duration": 129, "velocity": 115}, {"time": 172823, "pitch": 67, "duration": 119, "velocity": 120}, {"time": 173022, "pitch": 66, "duration": 480, "velocity": 120}, {"time": 173032, "pitch": 62, "duration": 480, "velocity": 115}, {"time": 173042, "pitch": 57, "duration": 480, "velocity": 110}, {"time": 173052, "pitch": 50, "duration": 480, "velocity": 105}, {"time": 173062, "pitch": 45, "duration": 480, "velocity": 120}, {"time": 173502, "pitch": 66, "duration": 220, "velocity": 110}, {"time": 173512, "pitch": 62, "duration": 210, "velocity": 105}, {"time": 173522, "pitch": 57, "duration": 200, "velocity": 100}, {"time": 173532, "pitch": 50, "duration": 190, "velocity": 95}, {"time": 173542, "pitch": 45, "duration": 180, "velocity": 110}, {"time": 173742, "pitch": 48, "duration": 400, "velocity": 120}, {"time": 173752, "pitch": 52, "duration": 380, "velocity": 105}, {"time": 173762, "pitch": 55, "duration": 360, "velocity": 110}, {"time": 173772, "pitch": 60, "duration": 340, "velocity": 115}, {"time": 173782, "pitch": 64, "duration": 320, "velocity": 120}, {"time": 174102, "pitch": 64, "duration": 159, "velocity": 100}, {"time": 174112, "pitch": 60, "duration": 139, "velocity": 95}, {"time": 174122, "pitch": 55, "duration": 119, "velocity": 90}, {"time": 174132, "pitch": 52, "duration": 99, "velocity": 85}, {"time": 174142, "pitch": 48, "duration": 79, "velocity": 100}, {"time": 174221, "pitch": 48, "duration": 400, "velocity": 120}, {"time": 174231, "pitch": 52, "duration": 380, "velocity": 105}, {"time": 174241, "pitch": 55, "duration": 360, "velocity": 110}, {"time": 174251, "pitch": 60, "duration": 340, "velocity": 115}, {"time": 174261, "pitch": 64, "duration": 320, "velocity": 120}, {"time": 174581, "pitch": 64, "duration": 160, "velocity": 100}, {"time": 174591, "pitch": 59, "duration": 140, "velocity": 95}, {"time": 174601, "pitch": 55, "duration": 120, "velocity": 90}, {"time": 174611, "pitch": 52, "duration": 100, "velocity": 85}, {"time": 174621, "pitch": 47, "duration": 80, "velocity": 100}, {"time": 174701, "pitch": 47, "duration": 480, "velocity": 120}, {"time": 174711, "pitch": 52, "duration": 480, "velocity": 105}, {"time": 174721, "pitch": 55, "duration": 480, "velocity": 110}, {"time": 174731, "pitch": 59, "duration": 480, "velocity": 115}, {"time": 174741, "pitch": 64, "duration": 480, "velocity": 120}, {"time": 175181, "pitch": 45, "duration": 160, "velocity": 110}, {"time": 175191, "pitch": 52, "duration": 140, "velocity": 95}, {"time": 175201, "pitch": 55, "duration": 120, "velocity": 100}, {"time": 175211, "pitch": 60, "duration": 100, "velocity": 105}, {"time": 175221, "pitch": 64, "duration": 80, "velocity": 110}, {"time": 175301, "pitch": 64, "duration": 160, "velocity": 105}, {"time": 175311, "pitch": 60, "duration": 140, "velocity": 100}, {"time": 175321, "pitch": 55, "duration": 120, "velocity": 95}, {"time": 175331, "pitch": 52, "duration": 100, "velocity": 90}, {"time": 175341, "pitch": 45, "duration": 80, "velocity": 105}, {"time": 175421, "pitch": 45, "duration": 219, "velocity": 110}, {"time": 175431, "pitch": 52, "duration": 209, "velocity": 95}, {"time": 175441, "pitch": 55, "duration": 199, "velocity": 100}, {"time": 175451, "pitch": 60, "duration": 189, "velocity": 105}, {"time": 175461, "pitch": 64, "duration": 179, "velocity": 110}, {"time": 175660, "pitch": 45, "duration": 480, "velocity": 120}, {"time": 175670, "pitch": 50, "duration": 480, "velocity": 105}, {"time": 175680, "pitch": 57, "duration": 480, "velocity": 110}, {"time": 175690, "pitch": 62, "duration": 480, "velocity": 115}, {"time": 175700, "pitch": 66, "duration": 480, "velocity": 120}, {"time": 176140, "pitch": 45, "duration": 405, "velocity": 120}, {"time": 176150, "pitch": 50, "duration": 385, "velocity": 105}, {"time": 176160, "pitch": 57, "duration": 364, "velocity": 110}, {"time": 176170, "pitch": 62, "duration": 344, "velocity": 115}, {"time": 176180, "pitch": 66, "duration": 324, "velocity": 120}, {"time": 176504, "pitch": 66, "duration": 162, "velocity": 110}, {"time": 176514, "pitch": 62, "duration": 142, "velocity": 105}, {"time": 176524, "pitch": 57, "duration": 122, "velocity": 100}, {"time": 176535, "pitch": 50, "duration": 101, "velocity": 95}, {"time": 176545, "pitch": 45, "duration": 81, "velocity": 110}, {"time": 176626, "pitch": 45, "duration": 160, "velocity": 120}, {"time": 176636, "pitch": 50, "duration": 150, "velocity": 105}, {"time": 176646, "pitch": 57, "duration": 140, "velocity": 110}, {"time": 176656, "pitch": 62, "duration": 130, "velocity": 115}, {"time": 176666, "pitch": 67, "duration": 120, "velocity": 120}, {"time": 176866, "pitch": 66, "duration": 479, "velocity": 120}, {"time": 176876, "pitch": 62, "duration": 479, "velocity": 115}, {"time": 176886, "pitch": 57, "duration": 479, "velocity": 110}, {"time": 176896, "pitch": 50, "duration": 479, "velocity": 105}, {"time": 176906, "pitch": 45, "duration": 479, "velocity": 120}, {"time": 177345, "pitch": 66, "duration": 220, "velocity": 110}, {"time": 177355, "pitch": 62, "duration": 210, "velocity": 105}, {"time": 177365, "pitch": 57, "duration": 200, "velocity": 100}, {"time": 177375, "pitch": 50, "duration": 190, "velocity": 95}, {"time": 177385, "pitch": 45, "duration": 180, "velocity": 110}, {"time": 177585, "pitch": 48, "duration": 400, "velocity": 120}, {"time": 177595, "pitch": 52, "duration": 380, "velocity": 105}, {"time": 177605, "pitch": 55, "duration": 360, "velocity": 110}, {"time": 177615, "pitch": 60, "duration": 340, "velocity": 115}, {"time": 177625, "pitch": 64, "duration": 320, "velocity": 120}, {"time": 177945, "pitch": 64, "duration": 160, "velocity": 100}, {"time": 177955, "pitch": 60, "duration": 140, "velocity": 95}, {"time": 177965, "pitch": 55, "duration": 120, "velocity": 90}, {"time": 177975, "pitch": 52, "duration": 100, "velocity": 85}, {"time": 177985, "pitch": 48, "duration": 80, "velocity": 100}, {"time": 178065, "pitch": 48, "duration": 399, "velocity": 120}, {"time": 178075, "pitch": 52, "duration": 379, "velocity": 105}, {"time": 178085, "pitch": 55, "duration": 359, "velocity": 110}, {"time": 178095, "pitch": 60, "duration": 339, "velocity": 115}, {"time": 178105, "pitch": 64, "duration": 319, "velocity": 120}, {"time": 178424, "pitch": 64, "duration": 160, "velocity": 100}, {"time": 178434, "pitch": 59, "duration": 140, "velocity": 95}, {"time": 178444, "pitch": 55, "duration": 120, "velocity": 90}, {"time": 178454, "pitch": 52, "duration": 100, "velocity": 85}, {"time": 178464, "pitch": 47, "duration": 80, "velocity": 100}, {"time": 178544, "pitch": 47, "duration": 480, "velocity": 120}, {"time": 178554, "pitch": 52, "duration": 480, "velocity": 105}, {"time": 178564, "pitch": 55, "duration": 480, "velocity": 110}, {"time": 178574, "pitch": 59, "duration": 480, "velocity": 115}, {"time": 178584, "pitch": 64, "duration": 480, "velocity": 120}, {"time": 179024, "pitch": 45, "duration": 160, "velocity": 110}, {"time": 179034, "pitch": 52, "duration": 140, "velocity": 95}, {"time": 179044, "pitch": 55, "duration": 120, "velocity": 100}, {"time": 179054, "pitch": 60, "duration": 100, "velocity": 105}, {"time": 179064, "pitch": 64, "duration": 80, "velocity": 110}, {"time": 179144, "pitch": 64, "duration": 160, "velocity": 105}, {"time": 179154, "pitch": 60, "duration": 140, "velocity": 100}, {"time": 179164, "pitch": 55, "duration": 120, "velocity": 95}, {"time": 179174, "pitch": 52, "duration": 100, "velocity": 90}, {"time": 179184, "pitch": 45, "duration": 80, "velocity": 105}, {"time": 179264, "pitch": 45, "duration": 220, "velocity": 110}, {"time": 179274, "pitch": 52, "duration": 210, "velocity": 95}, {"time": 179284, "pitch": 55, "duration": 200, "velocity": 100}, {"time": 179294, "pitch": 60, "duration": 190, "velocity": 105}, {"time": 179304, "pitch": 64, "duration": 180, "velocity": 110}, {"time": 179504, "pitch": 45, "duration": 9473, "velocity": 120}, {"time": 179524, "pitch": 50, "duration": 9453, "velocity": 105}, {"time": 179544, "pitch": 57, "duration": 9433, "velocity": 110}, {"time": 179564, "pitch": 62, "duration": 9413, "velocity": 115}, {"time": 179584, "pitch": 66, "duration": 9393, "velocity": 120}], "annotations": [{"time": 80, "annotation": {"number": 7, "value": 70}, "group": "control_change"}, {"time": 86, "annotation": {"number": 10, "value": 1}, "group": "control_change"}, {"time": 92, "annotation": {"number": 11, "value": 100}, "group": "control_change"}, {"time": 98, "annotation": {"number": 91, "value": 40}, "group": "control_change"}, {"time": 104, "annotation": {"number": 93, "value": 0}, "group": "control_change"}, {"time": 178, "annotation": {"number": 101, "value": 0}, "group": "control_change"}, {"time": 184, "annotation": {"number": 100, "value": 0}, "group": "control_change"}, {"time": 190, "annotation": {"number": 6, "value": 12}, "group": "control_change"}, {"time": 196, "annotation": {"number": 1, "value": 0}, "group": "control_change"}, {"time": 209, "annotation": {"number": 64, "value": 0}, "group": "control_change"}]}, {"program": 0, "is_drum": false, "name": "Ac.Guitar R", "annotations": [{"time": 61, "annotation": {"number": 0, "value": 8}, "group": "control_change"}, {"time": 67, "annotation": {"number": 32, "value": 2}, "group": "control_change"}]}, {"program": 25, "is_drum": false, "name": "Ac.Guitar R", "notes": [{"time": 939, "pitch": 45, "duration": 480, "velocity": 120}, {"time": 950, "pitch": 50, "duration": 480, "velocity": 105}, {"time": 960, "pitch": 57, "duration": 480, "velocity": 110}, {"time": 970, "pitch": 62, "duration": 480, "velocity": 115}, {"time": 980, "pitch": 66, "duration": 480, "velocity": 120}, {"time": 1420, "pitch": 45, "duration": 399, "velocity": 120}, {"time": 1431, "pitch": 50, "duration": 379, "velocity": 105}, {"time": 1441, "pitch": 57, "duration": 359, "velocity": 110}, {"time": 1451, "pitch": 62, "duration": 339, "velocity": 115}, {"time": 1461, "pitch": 66, "duration": 319, "velocity": 120}, {"time": 1780, "pitch": 66, "duration": 160, "velocity": 110}, {"time": 1790, "pitch": 62, "duration": 140, "velocity": 105}, {"time": 1800, "pitch": 57, "duration": 120, "velocity": 100}, {"time": 1810, "pitch": 50, "duration": 100, "velocity": 95}, {"time": 1820, "pitch": 45, "duration": 80, "velocity": 110}, {"time": 1900, "pitch": 45, "duration": 162, "velocity": 120}, {"time": 1910, "pitch": 50, "duration": 152, "velocity": 105}, {"time": 1920, "pitch": 57, "duration": 142, "velocity": 110}, {"time": 1930, "pitch": 62, "duration": 132, "velocity": 115}, {"time": 1940, "pitch": 67, "duration": 122, "velocity": 120}, {"time": 2143, "pitch": 66, "duration": 483, "velocity": 120}, {"time": 2153, "pitch": 62, "duration": 483, "velocity": 115}, {"time": 2163, "pitch": 57, "duration": 483, "velocity": 110}, {"time": 2173, "pitch": 50, "duration": 483, "velocity": 105}, {"time": 2183, "pitch": 45, "duration": 483, "velocity": 120}, {"time": 2626, "pitch": 66, "duration": 220, "velocity": 110}, {"time": 2636, "pitch": 62, "duration": 210, "velocity": 105}, {"time": 2646, "pitch": 57, "duration": 200, "velocity": 100}, {"time": 2656, "pitch": 50, "duration": 190, "velocity": 95}, {"time": 2666, "pitch": 45, "duration": 180, "velocity": 110}, {"time": 2866, "pitch": 48, "duration": 399, "velocity": 120}, {"time": 2876, "pitch": 52, "duration": 379, "velocity": 105}, {"time": 2886, "pitch": 55, "duration": 359, "velocity": 110}, {"time": 2896, "pitch": 60, "duration": 339, "velocity": 115}, {"time": 2906, "pitch": 64, "duration": 319, "velocity": 120}, {"time": 3225, "pitch": 64, "duration": 160, "velocity": 100}, {"time": 3235, "pitch": 60, "duration": 140, "velocity": 95}, {"time": 3245, "pitch": 55, "duration": 120, "velocity": 90}, {"time": 3255, "pitch": 52, "duration": 100, "velocity": 85}, {"time": 3265, "pitch": 48, "duration": 80, "velocity": 100}, {"time": 3345, "pitch": 48, "duration": 400, "velocity": 120}, {"time": 3355, "pitch": 52, "duration": 380, "velocity": 105}, {"time": 3365, "pitch": 55, "duration": 360, "velocity": 110}, {"time": 3375, "pitch": 60, "duration": 340, "velocity": 115}, {"time": 3385, "pitch": 64, "duration": 320, "velocity": 120}, {"time": 3705, "pitch": 64, "duration": 160, "velocity": 100}, {"time": 3715, "pitch": 59, "duration": 140, "velocity": 95}, {"time": 3725, "pitch": 55, "duration": 120, "velocity": 90}, {"time": 3735, "pitch": 52, "duration": 100, "velocity": 85}, {"time": 3745, "pitch": 47, "duration": 80, "velocity": 100}, {"time": 3825, "pitch": 47, "duration": 480, "velocity": 120}, {"time": 3835, "pitch": 52, "duration": 480, "velocity": 105}, {"time": 3845, "pitch": 55, "duration": 480, "velocity": 110}, {"time": 3855, "pitch": 59, "duration": 479, "velocity": 115}, {"time": 3865, "pitch": 64, "duration": 479, "velocity": 120}, {"time": 4305, "pitch": 45, "duration": 159, "velocity": 110}, {"time": 4315, "pitch": 52, "duration": 139, "velocity": 95}, {"time": 4325, "pitch": 55, "duration": 119, "velocity": 100}, {"time": 4334, "pitch": 60, "duration": 100, "velocity": 105}, {"time": 4344, "pitch": 64, "duration": 80, "velocity": 110}, {"time": 4424, "pitch": 64, "duration": 160, "velocity": 105}, {"time": 4434, "pitch": 60, "duration": 140, "velocity": 100}, {"time": 4444, "pitch": 55, "duration": 120, "velocity": 95}, {"time": 4454, "pitch": 52, "duration": 100, "velocity": 90}, {"time": 4464, "pitch": 45, "duration": 80, "velocity": 105}, {"time": 4544, "pitch": 45, "duration": 220, "velocity": 110}, {"time": 4554, "pitch": 52, "duration": 210, "velocity": 95}, {"time": 4564, "pitch": 55, "duration": 200, "velocity": 100}, {"time": 4574, "pitch": 60, "duration": 190, "velocity": 105}, {"time": 4584, "pitch": 64, "duration": 180, "velocity": 110}, {"time": 4784, "pitch": 45, "duration": 480, "velocity": 120}, {"time": 4794, "pitch": 50, "duration": 480, "velocity": 105}, {"time": 4804, "pitch": 57, "duration": 480, "velocity": 110}, {"time": 4814, "pitch": 62, "duration": 480, "velocity": 115}, {"time": 4824, "pitch": 66, "duration": 480, "velocity": 120}, {"time": 5264, "pitch": 45, "duration": 400, "velocity": 120}, {"time": 5274, "pitch": 50, "duration": 380, "velocity": 105}, {"time": 5284, "pitch": 57, "duration": 360, "velocity": 110}, {"time": 5294, "pitch": 62, "duration": 340, "velocity": 115}, {"time": 5304, "pitch": 66, "duration": 320, "velocity": 120}, {"time": 5624, "pitch": 66, "duration": 159, "velocity": 110}, {"time": 5634, "pitch": 62, "duration": 139, "velocity": 105}, {"time": 5644, "pitch": 57, "duration": 119, "velocity": 100}, {"time": 5654, "pitch": 50, "duration": 99, "velocity": 95}, {"time": 5664, "pitch": 45, "duration": 79, "velocity": 110}, {"time": 5743, "pitch": 45, "duration": 160, "velocity": 120}, {"time": 5753, "pitch": 50, "duration": 150, "velocity": 105}, {"time": 5763, "pitch": 57, "duration": 140, "velocity": 110}, {"time": 5773, "pitch": 62, "duration": 130, "velocity": 115}, {"time": 5783, "pitch": 67, "duration": 120, "velocity": 120}, {"time": 5983, "pitch": 66, "duration": 480, "velocity": 120}, {"time": 5993, "pitch": 62, "duration": 480, "velocity": 115}, {"time": 6003, "pitch": 57, "duration": 480, "velocity": 110}, {"time": 6013, "pitch": 50, "duration": 480, "velocity": 105}, {"time": 6023, "pitch": 45, "duration": 480, "velocity": 120}, {"time": 6463, "pitch": 66, "duration": 220, "velocity": 110}, {"time": 6473, "pitch": 62, "duration": 210, "velocity": 105}, {"time": 6483, "pitch": 57, "duration": 200, "velocity": 100}, {"time": 6493, "pitch": 50, "duration": 190, "velocity": 95}, {"time": 6503, "pitch": 45, "duration": 180, "velocity": 110}, {"time": 6703, "pitch": 48, "duration": 399, "velocity": 120}, {"time": 6713, "pitch": 52, "duration": 379, "velocity": 105}, {"time": 6723, "pitch": 55, "duration": 359, "velocity": 110}, {"time": 6733, "pitch": 60, "duration": 339, "velocity": 115}, {"time": 6743, "pitch": 64, "duration": 319, "velocity": 120}, {"time": 7062, "pitch": 64, "duration": 160, "velocity": 100}, {"time": 7072, "pitch": 60, "duration": 140, "velocity": 95}, {"time": 7082, "pitch": 55, "duration": 120, "velocity": 90}, {"time": 7092, "pitch": 52, "duration": 100, "velocity": 85}, {"time": 7102, "pitch": 48, "duration": 80, "velocity": 100}, {"time": 7182, "pitch": 48, "duration": 400, "velocity": 120}, {"time": 7192, "pitch": 52, "duration": 380, "velocity": 105}, {"time": 7202, "pitch": 55, "duration": 360, "velocity": 110}, {"time": 7212, "pitch": 60, "duration": 340, "velocity": 115}, {"time": 7222, "pitch": 64, "duration": 320, "velocity": 120}, {"time": 7542, "pitch": 64, "duration": 160, "velocity": 100}, {"time": 7552, "pitch": 59, "duration": 140, "velocity": 95}, {"time": 7562, "pitch": 55, "duration": 120, "velocity": 90}, {"time": 7572, "pitch": 52, "duration": 100, "velocity": 85}, {"time": 7582, "pitch": 47, "duration": 80, "velocity": 100}, {"time": 7662, "pitch": 47, "duration": 480, "velocity": 120}, {"time": 7672, "pitch": 52, "duration": 480, "velocity": 105}, {"time": 7682, "pitch": 55, "duration": 480, "velocity": 110}, {"time": 7692, "pitch": 59, "duration": 480, "velocity": 115}, {"time": 7702, "pitch": 64, "duration": 480, "velocity": 120}, {"time": 8142, "pitch": 45, "duration": 160, "velocity": 110}, {"time": 8152, "pitch": 52, "duration": 140, "velocity": 95}, {"time": 8162, "pitch": 55, "duration": 120, "velocity": 100}, {"time": 8172, "pitch": 60, "duration": 100, "velocity": 105}, {"time": 8182, "pitch": 64, "duration": 80, "velocity": 110}, {"time": 8262, "pitch": 64, "duration": 159, "velocity": 105}, {"time": 8272, "pitch": 60, "duration": 140, "velocity": 100}, {"time": 8282, "pitch": 55, "duration": 120, "velocity": 95}, {"time": 8292, "pitch": 52, "duration": 100, "velocity": 90}, {"time": 8302, "pitch": 45, "duration": 80, "velocity": 105}, {"time": 8382, "pitch": 45, "duration": 219, "velocity": 110}, {"time": 8392, "pitch": 52, "duration": 209, "velocity": 95}, {"time": 8402, "pitch": 55, "duration": 199, "velocity": 100}, {"time": 8412, "pitch": 60, "duration": 189, "velocity": 105}, {"time": 8421, "pitch": 64, "duration": 180, "velocity": 110}, {"time": 8621, "pitch": 45, "duration": 480, "velocity": 120}, {"time": 8631, "pitch": 50, "duration": 480, "velocity": 105}, {"time": 8641, "pitch": 57, "duration": 480, "velocity": 110}, {"time": 8651, "pitch": 62, "duration": 480, "velocity": 115}, {"time": 8661, "pitch": 66, "duration": 480, "velocity": 120}, {"time": 9101, "pitch": 45, "duration": 400, "velocity": 120}, {"time": 9111, "pitch": 50, "duration": 380, "velocity": 105}, {"time": 9121, "pitch": 57, "duration": 360, "velocity": 110}, {"time": 9131, "pitch": 62, "duration": 340, "velocity": 115}, {"time": 9141, "pitch": 66, "duration": 320, "velocity": 120}, {"time": 9461, "pitch": 66, "duration": 160, "velocity": 110}, {"time": 9471, "pitch": 62, "duration": 140, "velocity": 105}, {"time": 9481, "pitch": 57, "duration": 120, "velocity": 100}, {"time": 9491, "pitch": 50, "duration": 100, "velocity": 95}, {"time": 9501, "pitch": 45, "duration": 80, "velocity": 110}, {"time": 9581, "pitch": 45, "duration": 160, "velocity": 120}, {"time": 9591, "pitch": 50, "duration": 150, "velocity": 105}, {"time": 9601, "pitch": 57, "duration": 140, "velocity": 110}, {"time": 9611, "pitch": 62, "duration": 130, "velocity": 115}, {"time": 9621, "pitch": 67, "duration": 120, "velocity": 120}, {"time": 9820, "pitch": 66, "duration": 483, "velocity": 120}, {"time": 9830, "pitch": 62, "duration": 483, "velocity": 115}, {"time": 9840, "pitch": 57, "duration": 483, "velocity": 110}, {"time": 9850, "pitch": 50, "duration": 483, "velocity": 105}, {"time": 9860, "pitch": 45, "duration": 483, "velocity": 120}, {"time": 10303, "pitch": 66, "duration": 223, "velocity": 110}, {"time": 10313, "pitch": 62, "duration": 213, "velocity": 105}, {"time": 10323, "pitch": 57, "duration": 203, "velocity": 100}, {"time": 10333, "pitch": 50, "duration": 193, "velocity": 95}, {"time": 10343, "pitch": 45, "duration": 183, "velocity": 110}, {"time": 10546, "pitch": 48, "duration": 400, "velocity": 120}, {"time": 10556, "pitch": 52, "duration": 380, "velocity": 105}, {"time": 10566, "pitch": 55, "duration": 360, "velocity": 110}, {"time": 10576, "pitch": 60, "duration": 340, "velocity": 115}, {"time": 10586, "pitch": 64, "duration": 320, "velocity": 120}, {"time": 10906, "pitch": 64, "duration": 160, "velocity": 100}, {"time": 10916, "pitch": 60, "duration": 140, "velocity": 95}, {"time": 10926, "pitch": 55, "duration": 120, "velocity": 90}, {"time": 10936, "pitch": 52, "duration": 100, "velocity": 85}, {"time": 10946, "pitch": 48, "duration": 80, "velocity": 100}, {"time": 11026, "pitch": 48, "duration": 399, "velocity": 120}, {"time": 11036, "pitch": 52, "duration": 379, "velocity": 105}, {"time": 11046, "pitch": 55, "duration": 359, "velocity": 110}, {"time": 11056, "pitch": 60, "duration": 339, "velocity": 115}, {"time": 11066, "pitch": 64, "duration": 319, "velocity": 120}, {"time": 11385, "pitch": 64, "duration": 160, "velocity": 100}, {"time": 11395, "pitch": 59, "duration": 140, "velocity": 95}, {"time": 11405, "pitch": 55, "duration": 120, "velocity": 90}, {"time": 11415, "pitch": 52, "duration": 100, "velocity": 85}, {"time": 11425, "pitch": 47, "duration": 80, "velocity": 100}, {"time": 11505, "pitch": 47, "duration": 480, "velocity": 120}, {"time": 11515, "pitch": 52, "duration": 480, "velocity": 105}, {"time": 11525, "pitch": 55, "duration": 480, "velocity": 110}, {"time": 11535, "pitch": 59, "duration": 480, "velocity": 115}, {"time": 11545, "pitch": 64, "duration": 480, "velocity": 120}, {"time": 11985, "pitch": 45, "duration": 160, "velocity": 110}, {"time": 11995, "pitch": 52, "duration": 140, "velocity": 95}, {"time": 12005, "pitch": 55, "duration": 120, "velocity": 100}, {"time": 12015, "pitch": 60, "duration": 100, "velocity": 105}, {"time": 12025, "pitch": 64, "duration": 80, "velocity": 110}, {"time": 12105, "pitch": 64, "duration": 160, "velocity": 105}, {"time": 12115, "pitch": 60, "duration": 140, "velocity": 100}, {"time": 12125, "pitch": 55, "duration": 120, "velocity": 95}, {"time": 12135, "pitch": 52, "duration": 100, "velocity": 90}, {"time": 12145, "pitch": 45, "duration": 80, "velocity": 105}, {"time": 12225, "pitch": 45, "duration": 220, "velocity": 110}, {"time": 12235, "pitch": 52, "duration": 210, "velocity": 95}, {"time": 12245, "pitch": 55, "duration": 200, "velocity": 100}, {"time": 12255, "pitch": 60, "duration": 190, "velocity": 105}, {"time": 12265, "pitch": 64, "duration": 180, "velocity": 110}, {"time": 12465, "pitch": 45, "duration": 479, "velocity": 120}, {"time": 12475, "pitch": 50, "duration": 479, "velocity": 105}, {"time": 12485, "pitch": 57, "duration": 479, "velocity": 110}, {"time": 12495, "pitch": 62, "duration": 479, "velocity": 115}, {"time": 12505, "pitch": 66, "duration": 479, "velocity": 120}, {"time": 12944, "pitch": 45, "duration": 400, "velocity": 120}, {"time": 12954, "pitch": 50, "duration": 380, "velocity": 105}, {"time": 12964, "pitch": 57, "duration": 360, "velocity": 110}, {"time": 12974, "pitch": 62, "duration": 340, "velocity": 115}, {"time": 12984, "pitch": 66, "duration": 320, "velocity": 120}, {"time": 13304, "pitch": 66, "duration": 160, "velocity": 110}, {"time": 13314, "pitch": 62, "duration": 140, "velocity": 105}, {"time": 13324, "pitch": 57, "duration": 120, "velocity": 100}, {"time": 13334, "pitch": 50, "duration": 100, "velocity": 95}, {"time": 13344, "pitch": 45, "duration": 80, "velocity": 110}, {"time": 13424, "pitch": 45, "duration": 160, "velocity": 120}, {"time": 13434, "pitch": 50, "duration": 150, "velocity": 105}, {"time": 13444, "pitch": 57, "duration": 140, "velocity": 110}, {"time": 13454, "pitch": 62, "duration": 130, "velocity": 115}, {"time": 13464, "pitch": 67, "duration": 120, "velocity": 120}, {"time": 13664, "pitch": 66, "duration": 479, "velocity": 120}, {"time": 13674, "pitch": 62, "duration": 479, "velocity": 115}, {"time": 13684, "pitch": 57, "duration": 479, "velocity": 110}, {"time": 13694, "pitch": 50, "duration": 479, "velocity": 105}, {"time": 13704, "pitch": 45, "duration": 479, "velocity": 120}, {"time": 14143, "pitch": 66, "duration": 220, "velocity": 110}, {"time": 14153, "pitch": 62, "duration": 210, "velocity": 105}, {"time": 14163, "pitch": 57, "duration": 200, "velocity": 100}, {"time": 14173, "pitch": 50, "duration": 190, "velocity": 95}, {"time": 14183, "pitch": 45, "duration": 180, "velocity": 110}, {"time": 14383, "pitch": 48, "duration": 400, "velocity": 120}, {"time": 14393, "pitch": 52, "duration": 380, "velocity": 105}, {"time": 14403, "pitch": 55, "duration": 360, "velocity": 110}, {"time": 14413, "pitch": 60, "duration": 340, "velocity": 115}, {"time": 14423, "pitch": 64, "duration": 320, "velocity": 120}, {"time": 14743, "pitch": 64, "duration": 160, "velocity": 100}, {"time": 14753, "pitch": 60, "duration": 140, "velocity": 95}, {"time": 14763, "pitch": 55, "duration": 120, "velocity": 90}, {"time": 14773, "pitch": 52, "duration": 100, "velocity": 85}, {"time": 14783, "pitch": 48, "duration": 80, "velocity": 100}, {"time": 14863, "pitch": 48, "duration": 400, "velocity": 120}, {"time": 14873, "pitch": 52, "duration": 380, "velocity": 105}, {"time": 14883, "pitch": 55, "duration": 360, "velocity": 110}, {"time": 14893, "pitch": 60, "duration": 340, "velocity": 115}, {"time": 14903, "pitch": 64, "duration": 320, "velocity": 120}, {"time": 15223, "pitch": 64, "duration": 159, "velocity": 100}, {"time": 15233, "pitch": 59, "duration": 139, "velocity": 95}, {"time": 15243, "pitch": 55, "duration": 119, "velocity": 90}, {"time": 15253, "pitch": 52, "duration": 99, "velocity": 85}, {"time": 15263, "pitch": 47, "duration": 79, "velocity": 100}, {"time": 15342, "pitch": 47, "duration": 480, "velocity": 120}, {"time": 15352, "pitch": 52, "duration": 480, "velocity": 105}, {"time": 15362, "pitch": 55, "duration": 480, "velocity": 110}, {"time": 15372, "pitch": 59, "duration": 480, "velocity": 115}, {"time": 15382, "pitch": 64, "duration": 480, "velocity": 120}, {"time": 15822, "pitch": 45, "duration": 160, "velocity": 110}, {"time": 15832, "pitch": 52, "duration": 140, "velocity": 95}, {"time": 15842, "pitch": 55, "duration": 120, "velocity": 100}, {"time": 15852, "pitch": 60, "duration": 100, "velocity": 105}, {"time": 15862, "pitch": 64, "duration": 80, "velocity": 110}, {"time": 15942, "pitch": 64, "duration": 160, "velocity": 105}, {"time": 15952, "pitch": 60, "duration": 140, "velocity": 100}, {"time": 15962, "pitch": 55, "duration": 120, "velocity": 95}, {"time": 15972, "pitch": 52, "duration": 100, "velocity": 90}, {"time": 15982, "pitch": 45, "duration": 80, "velocity": 105}, {"time": 16062, "pitch": 45, "duration": 220, "velocity": 110}, {"time": 16072, "pitch": 52, "duration": 210, "velocity": 95}, {"time": 16082, "pitch": 55, "duration": 200, "velocity": 100}, {"time": 16092, "pitch": 60, "duration": 190, "velocity": 105}, {"time": 16102, "pitch": 64, "duration": 180, "velocity": 110}, {"time": 16302, "pitch": 45, "duration": 1898, "velocity": 120}, {"time": 16322, "pitch": 50, "duration": 1878, "velocity": 105}, {"time": 16342, "pitch": 57, "duration": 1858, "velocity": 110}, {"time": 16362, "pitch": 62, "duration": 1838, "velocity": 115}, {"time": 16382, "pitch": 66, "duration": 1818, "velocity": 120}, {"time": 18220, "pitch": 47, "duration": 480, "velocity": 110}, {"time": 18230, "pitch": 52, "duration": 480, "velocity": 95}, {"time": 18240, "pitch": 56, "duration": 480, "velocity": 100}, {"time": 18250, "pitch": 59, "duration": 480, "velocity": 105}, {"time": 18260, "pitch": 64, "duration": 480, "velocity": 110}, {"time": 18700, "pitch": 47, "duration": 405, "velocity": 110}, {"time": 18710, "pitch": 52, "duration": 384, "velocity": 95}, {"time": 18720, "pitch": 56, "duration": 364, "velocity": 100}, {"time": 18730, "pitch": 59, "duration": 344, "velocity": 105}, {"time": 18740, "pitch": 64, "duration": 324, "velocity": 110}, {"time": 19064, "pitch": 64, "duration": 162, "velocity": 105}, {"time": 19074, "pitch": 59, "duration": 142, "velocity": 100}, {"time": 19084, "pitch": 56, "duration": 122, "velocity": 95}, {"time": 19094, "pitch": 52, "duration": 102, "velocity": 90}, {"time": 19105, "pitch": 47, "duration": 81, "velocity": 105}, {"time": 19186, "pitch": 47, "duration": 160, "velocity": 110}, {"time": 19196, "pitch": 52, "duration": 140, "velocity": 95}, {"time": 19206, "pitch": 56, "duration": 120, "velocity": 100}, {"time": 19216, "pitch": 59, "duration": 100, "velocity": 105}, {"time": 19226, "pitch": 64, "duration": 80, "velocity": 110}, {"time": 19306, "pitch": 64, "duration": 160, "velocity": 105}, {"time": 19316, "pitch": 59, "duration": 140, "velocity": 100}, {"time": 19326, "pitch": 56, "duration": 120, "velocity": 95}, {"time": 19336, "pitch": 52, "duration": 100, "velocity": 90}, {"time": 19346, "pitch": 47, "duration": 80, "velocity": 105}, {"time": 19426, "pitch": 47, "duration": 239, "velocity": 110}, {"time": 19436, "pitch": 52, "duration": 239, "velocity": 95}, {"time": 19446, "pitch": 56, "duration": 239, "velocity": 100}, {"time": 19456, "pitch": 59, "duration": 239, "velocity": 105}, {"time": 19466, "pitch": 64, "duration": 239, "velocity": 110}, {"time": 19665, "pitch": 47, "duration": 280, "velocity": 110}, {"time": 19675, "pitch": 52, "duration": 260, "velocity": 95}, {"time": 19685, "pitch": 56, "duration": 240, "velocity": 100}, {"time": 19695, "pitch": 59, "duration": 220, "velocity": 105}, {"time": 19705, "pitch": 64, "duration": 200, "velocity": 110}, {"time": 19905, "pitch": 64, "duration": 280, "velocity": 100}, {"time": 19915, "pitch": 59, "duration": 260, "velocity": 95}, {"time": 19925, "pitch": 56, "duration": 240, "velocity": 90}, {"time": 19935, "pitch": 52, "duration": 220, "velocity": 85}, {"time": 19945, "pitch": 47, "duration": 200, "velocity": 100}, {"time": 20145, "pitch": 47, "duration": 400, "velocity": 105}, {"time": 20155, "pitch": 50, "duration": 380, "velocity": 90}, {"time": 20165, "pitch": 55, "duration": 360, "velocity": 95}, {"time": 20175, "pitch": 59, "duration": 340, "velocity": 100}, {"time": 20185, "pitch": 67, "duration": 320, "velocity": 105}, {"time": 20505, "pitch": 67, "duration": 160, "velocity": 85}, {"time": 20515, "pitch": 59, "duration": 140, "velocity": 80}, {"time": 20525, "pitch": 55, "duration": 120, "velocity": 75}, {"time": 20535, "pitch": 50, "duration": 100, "velocity": 70}, {"time": 20545, "pitch": 47, "duration": 80, "velocity": 85}, {"time": 20625, "pitch": 47, "duration": 240, "velocity": 110}, {"time": 20635, "pitch": 50, "duration": 240, "velocity": 95}, {"time": 20645, "pitch": 55, "duration": 240, "velocity": 100}, {"time": 20655, "pitch": 59, "duration": 240, "velocity": 105}, {"time": 20665, "pitch": 67, "duration": 240, "velocity": 110}, {"time": 20865, "pitch": 47, "duration": 159, "velocity": 100}, {"time": 20875, "pitch": 50, "duration": 139, "velocity": 85}, {"time": 20885, "pitch": 55, "duration": 119, "velocity": 90}, {"time": 20895, "pitch": 59, "duration": 99, "velocity": 95}, {"time": 20905, "pitch": 67, "duration": 79, "velocity": 100}, {"time": 20984, "pitch": 67, "duration": 240, "velocity": 105}, {"time": 20994, "pitch": 59, "duration": 240, "velocity": 100}, {"time": 21004, "pitch": 55, "duration": 240, "velocity": 95}, {"time": 21014, "pitch": 50, "duration": 240, "velocity": 90}, {"time": 21024, "pitch": 47, "duration": 240, "velocity": 105}, {"time": 21224, "pitch": 67, "duration": 160, "velocity": 100}, {"time": 21234, "pitch": 59, "duration": 140, "velocity": 95}, {"time": 21244, "pitch": 55, "duration": 120, "velocity": 90}, {"time": 21254, "pitch": 50, "duration": 100, "velocity": 85}, {"time": 21264, "pitch": 47, "duration": 80, "velocity": 100}, {"time": 21344, "pitch": 47, "duration": 240, "velocity": 105}, {"time": 21354, "pitch": 50, "duration": 240, "velocity": 90}, {"time": 21364, "pitch": 55, "duration": 240, "velocity": 95}, {"time": 21374, "pitch": 59, "duration": 240, "velocity": 100}, {"time": 21384, "pitch": 67, "duration": 240, "velocity": 105}, {"time": 21584, "pitch": 47, "duration": 280, "velocity": 110}, {"time": 21594, "pitch": 50, "duration": 260, "velocity": 95}, {"time": 21604, "pitch": 55, "duration": 240, "velocity": 100}, {"time": 21614, "pitch": 59, "duration": 220, "velocity": 105}, {"time": 21624, "pitch": 67, "duration": 200, "velocity": 110}, {"time": 21824, "pitch": 67, "duration": 280, "velocity": 100}, {"time": 21834, "pitch": 59, "duration": 260, "velocity": 95}, {"time": 21844, "pitch": 55, "duration": 240, "velocity": 90}, {"time": 21854, "pitch": 50, "duration": 220, "velocity": 85}, {"time": 21864, "pitch": 47, "duration": 200, "velocity": 100}, {"time": 22064, "pitch": 45, "duration": 479, "velocity": 110}, {"time": 22074, "pitch": 50, "duration": 479, "velocity": 95}, {"time": 22084, "pitch": 57, "duration": 479, "velocity": 100}, {"time": 22094, "pitch": 62, "duration": 479, "velocity": 105}, {"time": 22104, "pitch": 66, "duration": 479, "velocity": 110}, {"time": 22543, "pitch": 45, "duration": 400, "velocity": 110}, {"time": 22553, "pitch": 50, "duration": 380, "velocity": 95}, {"time": 22563, "pitch": 57, "duration": 360, "velocity": 100}, {"time": 22573, "pitch": 62, "duration": 340, "velocity": 105}, {"time": 22583, "pitch": 66, "duration": 320, "velocity": 110}, {"time": 22903, "pitch": 66, "duration": 160, "velocity": 100}, {"time": 22913, "pitch": 62, "duration": 140, "velocity": 95}, {"time": 22923, "pitch": 57, "duration": 120, "velocity": 90}, {"time": 22933, "pitch": 50, "duration": 100, "velocity": 85}, {"time": 22943, "pitch": 45, "duration": 80, "velocity": 100}, {"time": 23023, "pitch": 45, "duration": 240, "velocity": 110}, {"time": 23033, "pitch": 50, "duration": 240, "velocity": 95}, {"time": 23043, "pitch": 57, "duration": 240, "velocity": 100}, {"time": 23053, "pitch": 62, "duration": 240, "velocity": 105}, {"time": 23063, "pitch": 67, "duration": 240, "velocity": 110}, {"time": 23263, "pitch": 45, "duration": 160, "velocity": 100}, {"time": 23273, "pitch": 50, "duration": 140, "velocity": 85}, {"time": 23283, "pitch": 57, "duration": 120, "velocity": 90}, {"time": 23293, "pitch": 62, "duration": 100, "velocity": 95}, {"time": 23303, "pitch": 66, "duration": 80, "velocity": 100}, {"time": 23383, "pitch": 64, "duration": 240, "velocity": 105}, {"time": 23393, "pitch": 62, "duration": 239, "velocity": 100}, {"time": 23403, "pitch": 57, "duration": 239, "velocity": 95}, {"time": 23413, "pitch": 50, "duration": 239, "velocity": 90}, {"time": 23423, "pitch": 45, "duration": 239, "velocity": 105}, {"time": 23623, "pitch": 64, "duration": 159, "velocity": 100}, {"time": 23632, "pitch": 62, "duration": 140, "velocity": 95}, {"time": 23642, "pitch": 57, "duration": 120, "velocity": 90}, {"time": 23652, "pitch": 50, "duration": 100, "velocity": 85}, {"time": 23662, "pitch": 45, "duration": 80, "velocity": 100}, {"time": 23742, "pitch": 45, "duration": 240, "velocity": 105}, {"time": 23752, "pitch": 50, "duration": 240, "velocity": 90}, {"time": 23762, "pitch": 57, "duration": 240, "velocity": 95}, {"time": 23772, "pitch": 62, "duration": 240, "velocity": 100}, {"time": 23782, "pitch": 67, "duration": 240, "velocity": 105}, {"time": 23982, "pitch": 45, "duration": 1899, "velocity": 120}, {"time": 24002, "pitch": 50, "duration": 1879, "velocity": 105}, {"time": 24022, "pitch": 57, "duration": 1859, "velocity": 110}, {"time": 24042, "pitch": 62, "duration": 1839, "velocity": 115}, {"time": 24062, "pitch": 66, "duration": 1819, "velocity": 120}, {"time": 25901, "pitch": 47, "duration": 479, "velocity": 110}, {"time": 25911, "pitch": 52, "duration": 479, "velocity": 95}, {"time": 25921, "pitch": 56, "duration": 479, "velocity": 100}, {"time": 25931, "pitch": 59, "duration": 479, "velocity": 105}, {"time": 25941, "pitch": 64, "duration": 479, "velocity": 110}, {"time": 26380, "pitch": 47, "duration": 400, "velocity": 110}, {"time": 26390, "pitch": 52, "duration": 380, "velocity": 95}, {"time": 26400, "pitch": 56, "duration": 360, "velocity": 100}, {"time": 26410, "pitch": 59, "duration": 340, "velocity": 105}, {"time": 26420, "pitch": 64, "duration": 320, "velocity": 110}, {"time": 26740, "pitch": 64, "duration": 160, "velocity": 105}, {"time": 26750, "pitch": 59, "duration": 140, "velocity": 100}, {"time": 26760, "pitch": 56, "duration": 120, "velocity": 95}, {"time": 26770, "pitch": 52, "duration": 100, "velocity": 90}, {"time": 26780, "pitch": 47, "duration": 80, "velocity": 105}, {"time": 26860, "pitch": 47, "duration": 162, "velocity": 110}, {"time": 26870, "pitch": 52, "duration": 142, "velocity": 95}, {"time": 26880, "pitch": 56, "duration": 122, "velocity": 100}, {"time": 26890, "pitch": 59, "duration": 101, "velocity": 105}, {"time": 26900, "pitch": 64, "duration": 81, "velocity": 110}, {"time": 26981, "pitch": 64, "duration": 162, "velocity": 105}, {"time": 26991, "pitch": 59, "duration": 142, "velocity": 100}, {"time": 27002, "pitch": 56, "duration": 121, "velocity": 95}, {"time": 27012, "pitch": 52, "duration": 101, "velocity": 90}, {"time": 27022, "pitch": 47, "duration": 81, "velocity": 105}, {"time": 27103, "pitch": 47, "duration": 243, "velocity": 110}, {"time": 27113, "pitch": 52, "duration": 243, "velocity": 95}, {"time": 27123, "pitch": 56, "duration": 243, "velocity": 100}, {"time": 27133, "pitch": 59, "duration": 243, "velocity": 105}, {"time": 27143, "pitch": 64, "duration": 243, "velocity": 110}, {"time": 27346, "pitch": 47, "duration": 280, "velocity": 110}, {"time": 27356, "pitch": 52, "duration": 260, "velocity": 95}, {"time": 27366, "pitch": 56, "duration": 240, "velocity": 100}, {"time": 27376, "pitch": 59, "duration": 220, "velocity": 105}, {"time": 27386, "pitch": 64, "duration": 200, "velocity": 110}, {"time": 27586, "pitch": 64, "duration": 279, "velocity": 100}, {"time": 27596, "pitch": 59, "duration": 259, "velocity": 95}, {"time": 27606, "pitch": 56, "duration": 239, "velocity": 90}, {"time": 27616, "pitch": 52, "duration": 219, "velocity": 85}, {"time": 27626, "pitch": 47, "duration": 200, "velocity": 100}, {"time": 27826, "pitch": 47, "duration": 399, "velocity": 105}, {"time": 27835, "pitch": 50, "duration": 380, "velocity": 90}, {"time": 27845, "pitch": 55, "duration": 360, "velocity": 95}, {"time": 27855, "pitch": 59, "duration": 340, "velocity": 100}, {"time": 27865, "pitch": 67, "duration": 320, "velocity": 105}, {"time": 28185, "pitch": 67, "duration": 160, "velocity": 85}, {"time": 28195, "pitch": 59, "duration": 140, "velocity": 80}, {"time": 28205, "pitch": 55, "duration": 120, "velocity": 75}, {"time": 28215, "pitch": 50, "duration": 100, "velocity": 70}, {"time": 28225, "pitch": 47, "duration": 80, "velocity": 85}, {"time": 28305, "pitch": 47, "duration": 240, "velocity": 110}, {"time": 28315, "pitch": 50, "duration": 240, "velocity": 95}, {"time": 28325, "pitch": 55, "duration": 240, "velocity": 100}, {"time": 28335, "pitch": 59, "duration": 240, "velocity": 105}, {"time": 28345, "pitch": 67, "duration": 240, "velocity": 110}, {"time": 28545, "pitch": 47, "duration": 160, "velocity": 100}, {"time": 28555, "pitch": 50, "duration": 140, "velocity": 85}, {"time": 28565, "pitch": 55, "duration": 120, "velocity": 90}, {"time": 28575, "pitch": 59, "duration": 100, "velocity": 95}, {"time": 28585, "pitch": 67, "duration": 80, "velocity": 100}, {"time": 28665, "pitch": 67, "duration": 240, "velocity": 105}, {"time": 28675, "pitch": 59, "duration": 240, "velocity": 100}, {"time": 28685, "pitch": 55, "duration": 240, "velocity": 95}, {"time": 28695, "pitch": 50, "duration": 240, "velocity": 90}, {"time": 28705, "pitch": 47, "duration": 240, "velocity": 105}, {"time": 28905, "pitch": 67, "duration": 160, "velocity": 100}, {"time": 28915, "pitch": 59, "duration": 140, "velocity": 95}, {"time": 28925, "pitch": 55, "duration": 120, "velocity": 90}, {"time": 28935, "pitch": 50, "duration": 100, "velocity": 85}, {"time": 28945, "pitch": 47, "duration": 80, "velocity": 100}, {"time": 29025, "pitch": 47, "duration": 239, "velocity": 105}, {"time": 29035, "pitch": 50, "duration": 239, "velocity": 90}, {"time": 29045, "pitch": 55, "duration": 239, "velocity": 95}, {"time": 29055, "pitch": 59, "duration": 239, "velocity": 100}, {"time": 29065, "pitch": 67, "duration": 239, "velocity": 105}, {"time": 29264, "pitch": 47, "duration": 280, "velocity": 110}, {"time": 29274, "pitch": 50, "duration": 260, "velocity": 95}, {"time": 29284, "pitch": 55, "duration": 240, "velocity": 100}, {"time": 29294, "pitch": 59, "duration": 220, "velocity": 105}, {"time": 29304, "pitch": 67, "duration": 200, "velocity": 110}, {"time": 29504, "pitch": 67, "duration": 280, "velocity": 100}, {"time": 29514, "pitch": 59, "duration": 260, "velocity": 95}, {"time": 29524, "pitch": 55, "duration": 240, "velocity": 90}, {"time": 29534, "pitch": 50, "duration": 220, "velocity": 85}, {"time": 29544, "pitch": 47, "duration": 200, "velocity": 100}, {"time": 29744, "pitch": 45, "duration": 480, "velocity": 110}, {"time": 29754, "pitch": 50, "duration": 480, "velocity": 95}, {"time": 29764, "pitch": 57, "duration": 480, "velocity": 100}, {"time": 29774, "pitch": 62, "duration": 480, "velocity": 105}, {"time": 29784, "pitch": 66, "duration": 480, "velocity": 110}, {"time": 30224, "pitch": 45, "duration": 399, "velocity": 110}, {"time": 30234, "pitch": 50, "duration": 379, "velocity": 95}, {"time": 30244, "pitch": 57, "duration": 359, "velocity": 100}, {"time": 30254, "pitch": 62, "duration": 339, "velocity": 105}, {"time": 30264, "pitch": 66, "duration": 319, "velocity": 110}, {"time": 30583, "pitch": 66, "duration": 160, "velocity": 100}, {"time": 30593, "pitch": 62, "duration": 140, "velocity": 95}, {"time": 30603, "pitch": 57, "duration": 120, "velocity": 90}, {"time": 30613, "pitch": 50, "duration": 100, "velocity": 85}, {"time": 30623, "pitch": 45, "duration": 80, "velocity": 100}, {"time": 30703, "pitch": 45, "duration": 240, "velocity": 110}, {"time": 30713, "pitch": 50, "duration": 240, "velocity": 95}, {"time": 30723, "pitch": 57, "duration": 240, "velocity": 100}, {"time": 30733, "pitch": 62, "duration": 240, "velocity": 105}, {"time": 30743, "pitch": 67, "duration": 240, "velocity": 110}, {"time": 30943, "pitch": 45, "duration": 160, "velocity": 100}, {"time": 30953, "pitch": 50, "duration": 140, "velocity": 85}, {"time": 30963, "pitch": 57, "duration": 120, "velocity": 90}, {"time": 30973, "pitch": 62, "duration": 100, "velocity": 95}, {"time": 30983, "pitch": 66, "duration": 80, "velocity": 100}, {"time": 31063, "pitch": 64, "duration": 240, "velocity": 105}, {"time": 31073, "pitch": 62, "duration": 240, "velocity": 100}, {"time": 31083, "pitch": 57, "duration": 240, "velocity": 95}, {"time": 31093, "pitch": 50, "duration": 240, "velocity": 90}, {"time": 31103, "pitch": 45, "duration": 240, "velocity": 105}, {"time": 31303, "pitch": 64, "duration": 160, "velocity": 100}, {"time": 31313, "pitch": 62, "duration": 140, "velocity": 95}, {"time": 31323, "pitch": 57, "duration": 120, "velocity": 90}, {"time": 31333, "pitch": 50, "duration": 100, "velocity": 85}, {"time": 31343, "pitch": 45, "duration": 80, "velocity": 100}, {"time": 31423, "pitch": 45, "duration": 240, "velocity": 105}, {"time": 31433, "pitch": 50, "duration": 240, "velocity": 90}, {"time": 31443, "pitch": 57, "duration": 240, "velocity": 95}, {"time": 31453, "pitch": 62, "duration": 240, "velocity": 100}, {"time": 31463, "pitch": 67, "duration": 240, "velocity": 105}, {"time": 31663, "pitch": 45, "duration": 479, "velocity": 120}, {"time": 31673, "pitch": 50, "duration": 479, "velocity": 105}, {"time": 31683, "pitch": 57, "duration": 479, "velocity": 110}, {"time": 31693, "pitch": 62, "duration": 479, "velocity": 115}, {"time": 31703, "pitch": 66, "duration": 479, "velocity": 120}, {"time": 32142, "pitch": 45, "duration": 400, "velocity": 120}, {"time": 32152, "pitch": 50, "duration": 380, "velocity": 105}, {"time": 32162, "pitch": 57, "duration": 360, "velocity": 110}, {"time": 32172, "pitch": 62, "duration": 340, "velocity": 115}, {"time": 32182, "pitch": 66, "duration": 320, "velocity": 120}, {"time": 32502, "pitch": 66, "duration": 160, "velocity": 110}, {"time": 32512, "pitch": 62, "duration": 140, "velocity": 105}, {"time": 32522, "pitch": 57, "duration": 120, "velocity": 100}, {"time": 32532, "pitch": 50, "duration": 100, "velocity": 95}, {"time": 32542, "pitch": 45, "duration": 80, "velocity": 110}, {"time": 32622, "pitch": 45, "duration": 280, "velocity": 120}, {"time": 32632, "pitch": 50, "duration": 260, "velocity": 105}, {"time": 32642, "pitch": 57, "duration": 240, "velocity": 110}, {"time": 32652, "pitch": 62, "duration": 220, "velocity": 115}, {"time": 32662, "pitch": 66, "duration": 200, "velocity": 120}, {"time": 32862, "pitch": 66, "duration": 280, "velocity": 110}, {"time": 32872, "pitch": 62, "duration": 260, "velocity": 105}, {"time": 32882, "pitch": 57, "duration": 240, "velocity": 100}, {"time": 32892, "pitch": 50, "duration": 220, "velocity": 95}, {"time": 32902, "pitch": 45, "duration": 200, "velocity": 110}, {"time": 33102, "pitch": 45, "duration": 160, "velocity": 110}, {"time": 33112, "pitch": 50, "duration": 140, "velocity": 95}, {"time": 33122, "pitch": 57, "duration": 120, "velocity": 100}, {"time": 33132, "pitch": 62, "duration": 100, "velocity": 105}, {"time": 33142, "pitch": 66, "duration": 80, "velocity": 110}, {"time": 33222, "pitch": 66, "duration": 159, "velocity": 105}, {"time": 33232, "pitch": 62, "duration": 139, "velocity": 100}, {"time": 33242, "pitch": 57, "duration": 119, "velocity": 95}, {"time": 33252, "pitch": 50, "duration": 99, "velocity": 90}, {"time": 33262, "pitch": 45, "duration": 79, "velocity": 105}, {"time": 33341, "pitch": 45, "duration": 220, "velocity": 110}, {"time": 33351, "pitch": 50, "duration": 210, "velocity": 95}, {"time": 33361, "pitch": 57, "duration": 200, "velocity": 100}, {"time": 33371, "pitch": 62, "duration": 190, "velocity": 105}, {"time": 33381, "pitch": 66, "duration": 180, "velocity": 110}, {"time": 33581, "pitch": 47, "duration": 480, "velocity": 110}, {"time": 33591, "pitch": 52, "duration": 480, "velocity": 95}, {"time": 33601, "pitch": 55, "duration": 480, "velocity": 100}, {"time": 33611, "pitch": 59, "duration": 480, "velocity": 105}, {"time": 33621, "pitch": 64, "duration": 480, "velocity": 110}, {"time": 34061, "pitch": 47, "duration": 400, "velocity": 110}, {"time": 34071, "pitch": 52, "duration": 380, "velocity": 95}, {"time": 34081, "pitch": 55, "duration": 360, "velocity": 100}, {"time": 34091, "pitch": 59, "duration": 340, "velocity": 105}, {"time": 34101, "pitch": 64, "duration": 320, "velocity": 110}, {"time": 34421, "pitch": 64, "duration": 160, "velocity": 105}, {"time": 34431, "pitch": 59, "duration": 140, "velocity": 100}, {"time": 34441, "pitch": 55, "duration": 120, "velocity": 95}, {"time": 34451, "pitch": 52, "duration": 100, "velocity": 90}, {"time": 34461, "pitch": 47, "duration": 80, "velocity": 105}, {"time": 34541, "pitch": 47, "duration": 159, "velocity": 110}, {"time": 34551, "pitch": 52, "duration": 139, "velocity": 95}, {"time": 34561, "pitch": 55, "duration": 119, "velocity": 100}, {"time": 34571, "pitch": 59, "duration": 99, "velocity": 105}, {"time": 34581, "pitch": 64, "duration": 79, "velocity": 110}, {"time": 34660, "pitch": 64, "duration": 160, "velocity": 105}, {"time": 34670, "pitch": 59, "duration": 140, "velocity": 100}, {"time": 34680, "pitch": 55, "duration": 120, "velocity": 95}, {"time": 34690, "pitch": 52, "duration": 100, "velocity": 90}, {"time": 34700, "pitch": 47, "duration": 80, "velocity": 105}, {"time": 34780, "pitch": 47, "duration": 240, "velocity": 110}, {"time": 34790, "pitch": 52, "duration": 240, "velocity": 95}, {"time": 34800, "pitch": 55, "duration": 240, "velocity": 100}, {"time": 34810, "pitch": 59, "duration": 240, "velocity": 105}, {"time": 34820, "pitch": 64, "duration": 240, "velocity": 110}, {"time": 35020, "pitch": 47, "duration": 283, "velocity": 110}, {"time": 35030, "pitch": 52, "duration": 263, "velocity": 95}, {"time": 35040, "pitch": 55, "duration": 243, "velocity": 100}, {"time": 35050, "pitch": 59, "duration": 223, "velocity": 105}, {"time": 35060, "pitch": 64, "duration": 203, "velocity": 110}, {"time": 35263, "pitch": 64, "duration": 283, "velocity": 100}, {"time": 35273, "pitch": 59, "duration": 263, "velocity": 95}, {"time": 35283, "pitch": 55, "duration": 243, "velocity": 90}, {"time": 35293, "pitch": 52, "duration": 223, "velocity": 85}, {"time": 35303, "pitch": 47, "duration": 203, "velocity": 100}, {"time": 35506, "pitch": 47, "duration": 400, "velocity": 105}, {"time": 35516, "pitch": 50, "duration": 380, "velocity": 90}, {"time": 35526, "pitch": 55, "duration": 360, "velocity": 95}, {"time": 35536, "pitch": 59, "duration": 340, "velocity": 100}, {"time": 35546, "pitch": 67, "duration": 320, "velocity": 105}, {"time": 35866, "pitch": 67, "duration": 160, "velocity": 85}, {"time": 35876, "pitch": 59, "duration": 140, "velocity": 80}, {"time": 35886, "pitch": 55, "duration": 120, "velocity": 75}, {"time": 35896, "pitch": 50, "duration": 100, "velocity": 70}, {"time": 35906, "pitch": 47, "duration": 80, "velocity": 85}, {"time": 35986, "pitch": 47, "duration": 239, "velocity": 110}, {"time": 35996, "pitch": 50, "duration": 239, "velocity": 95}, {"time": 36006, "pitch": 55, "duration": 239, "velocity": 100}, {"time": 36016, "pitch": 59, "duration": 239, "velocity": 105}, {"time": 36026, "pitch": 67, "duration": 239, "velocity": 110}, {"time": 36225, "pitch": 47, "duration": 160, "velocity": 100}, {"time": 36235, "pitch": 50, "duration": 140, "velocity": 85}, {"time": 36245, "pitch": 55, "duration": 120, "velocity": 90}, {"time": 36255, "pitch": 59, "duration": 100, "velocity": 95}, {"time": 36265, "pitch": 67, "duration": 80, "velocity": 100}, {"time": 36345, "pitch": 67, "duration": 240, "velocity": 105}, {"time": 36355, "pitch": 59, "duration": 240, "velocity": 100}, {"time": 36365, "pitch": 55, "duration": 240, "velocity": 95}, {"time": 36375, "pitch": 50, "duration": 240, "velocity": 90}, {"time": 36385, "pitch": 47, "duration": 240, "velocity": 105}, {"time": 36585, "pitch": 67, "duration": 160, "velocity": 100}, {"time": 36595, "pitch": 59, "duration": 140, "velocity": 95}, {"time": 36605, "pitch": 55, "duration": 120, "velocity": 90}, {"time": 36615, "pitch": 50, "duration": 100, "velocity": 85}, {"time": 36625, "pitch": 47, "duration": 80, "velocity": 100}, {"time": 36705, "pitch": 47, "duration": 240, "velocity": 105}, {"time": 36715, "pitch": 50, "duration": 240, "velocity": 90}, {"time": 36725, "pitch": 55, "duration": 240, "velocity": 95}, {"time": 36735, "pitch": 59, "duration": 240, "velocity": 100}, {"time": 36745, "pitch": 67, "duration": 240, "velocity": 105}, {"time": 36945, "pitch": 47, "duration": 280, "velocity": 110}, {"time": 36955, "pitch": 50, "duration": 260, "velocity": 95}, {"time": 36965, "pitch": 55, "duration": 240, "velocity": 100}, {"time": 36975, "pitch": 59, "duration": 220, "velocity": 105}, {"time": 36985, "pitch": 67, "duration": 200, "velocity": 110}, {"time": 37185, "pitch": 67, "duration": 280, "velocity": 100}, {"time": 37195, "pitch": 59, "duration": 260, "velocity": 95}, {"time": 37205, "pitch": 55, "duration": 240, "velocity": 90}, {"time": 37215, "pitch": 50, "duration": 220, "velocity": 85}, {"time": 37225, "pitch": 47, "duration": 200, "velocity": 100}, {"time": 37425, "pitch": 45, "duration": 479, "velocity": 110}, {"time": 37435, "pitch": 50, "duration": 479, "velocity": 95}, {"time": 37445, "pitch": 57, "duration": 479, "velocity": 100}, {"time": 37455, "pitch": 62, "duration": 479, "velocity": 105}, {"time": 37465, "pitch": 66, "duration": 479, "velocity": 110}, {"time": 37904, "pitch": 45, "duration": 400, "velocity": 110}, {"time": 37914, "pitch": 50, "duration": 380, "velocity": 95}, {"time": 37924, "pitch": 57, "duration": 360, "velocity": 100}, {"time": 37934, "pitch": 62, "duration": 340, "velocity": 105}, {"time": 37944, "pitch": 66, "duration": 320, "velocity": 110}, {"time": 38264, "pitch": 66, "duration": 160, "velocity": 100}, {"time": 38274, "pitch": 62, "duration": 140, "velocity": 95}, {"time": 38284, "pitch": 57, "duration": 120, "velocity": 90}, {"time": 38294, "pitch": 50, "duration": 100, "velocity": 85}, {"time": 38304, "pitch": 45, "duration": 80, "velocity": 100}, {"time": 38384, "pitch": 45, "duration": 240, "velocity": 110}, {"time": 38394, "pitch": 50, "duration": 240, "velocity": 95}, {"time": 38404, "pitch": 57, "duration": 240, "velocity": 100}, {"time": 38414, "pitch": 62, "duration": 240, "velocity": 105}, {"time": 38424, "pitch": 67, "duration": 240, "velocity": 110}, {"time": 38624, "pitch": 45, "duration": 160, "velocity": 100}, {"time": 38634, "pitch": 50, "duration": 140, "velocity": 85}, {"time": 38644, "pitch": 57, "duration": 120, "velocity": 90}, {"time": 38654, "pitch": 62, "duration": 100, "velocity": 95}, {"time": 38664, "pitch": 66, "duration": 80, "velocity": 100}, {"time": 38744, "pitch": 64, "duration": 239, "velocity": 105}, {"time": 38754, "pitch": 62, "duration": 239, "velocity": 100}, {"time": 38764, "pitch": 57, "duration": 239, "velocity": 95}, {"time": 38774, "pitch": 50, "duration": 239, "velocity": 90}, {"time": 38784, "pitch": 45, "duration": 239, "velocity": 105}, {"time": 38983, "pitch": 64, "duration": 160, "velocity": 100}, {"time": 38993, "pitch": 62, "duration": 140, "velocity": 95}, {"time": 39003, "pitch": 57, "duration": 120, "velocity": 90}, {"time": 39013, "pitch": 50, "duration": 100, "velocity": 85}, {"time": 39023, "pitch": 45, "duration": 80, "velocity": 100}, {"time": 39103, "pitch": 45, "duration": 240, "velocity": 105}, {"time": 39113, "pitch": 50, "duration": 240, "velocity": 90}, {"time": 39123, "pitch": 57, "duration": 240, "velocity": 95}, {"time": 39133, "pitch": 62, "duration": 240, "velocity": 100}, {"time": 39143, "pitch": 67, "duration": 240, "velocity": 105}, {"time": 39343, "pitch": 45, "duration": 480, "velocity": 120}, {"time": 39353, "pitch": 50, "duration": 480, "velocity": 105}, {"time": 39363, "pitch": 57, "duration": 480, "velocity": 110}, {"time": 39373, "pitch": 62, "duration": 480, "velocity": 115}, {"time": 39383, "pitch": 66, "duration": 480, "velocity": 120}, {"time": 39823, "pitch": 45, "duration": 399, "velocity": 120}, {"time": 39833, "pitch": 50, "duration": 380, "velocity": 105}, {"time": 39843, "pitch": 57, "duration": 360, "velocity": 110}, {"time": 39853, "pitch": 62, "duration": 340, "velocity": 115}, {"time": 39863, "pitch": 66, "duration": 320, "velocity": 120}, {"time": 40183, "pitch": 66, "duration": 159, "velocity": 110}, {"time": 40193, "pitch": 62, "duration": 139, "velocity": 105}, {"time": 40203, "pitch": 57, "duration": 119, "velocity": 100}, {"time": 40213, "pitch": 50, "duration": 99, "velocity": 95}, {"time": 40222, "pitch": 45, "duration": 80, "velocity": 110}, {"time": 40302, "pitch": 45, "duration": 280, "velocity": 120}, {"time": 40312, "pitch": 50, "duration": 260, "velocity": 105}, {"time": 40322, "pitch": 57, "duration": 240, "velocity": 110}, {"time": 40332, "pitch": 62, "duration": 220, "velocity": 115}, {"time": 40342, "pitch": 66, "duration": 200, "velocity": 120}, {"time": 40542, "pitch": 66, "duration": 280, "velocity": 110}, {"time": 40552, "pitch": 62, "duration": 260, "velocity": 105}, {"time": 40562, "pitch": 57, "duration": 240, "velocity": 100}, {"time": 40572, "pitch": 50, "duration": 220, "velocity": 95}, {"time": 40582, "pitch": 45, "duration": 200, "velocity": 110}, {"time": 40782, "pitch": 45, "duration": 160, "velocity": 110}, {"time": 40792, "pitch": 50, "duration": 140, "velocity": 95}, {"time": 40802, "pitch": 57, "duration": 120, "velocity": 100}, {"time": 40812, "pitch": 62, "duration": 100, "velocity": 105}, {"time": 40822, "pitch": 66, "duration": 80, "velocity": 110}, {"time": 40902, "pitch": 66, "duration": 160, "velocity": 105}, {"time": 40912, "pitch": 62, "duration": 140, "velocity": 100}, {"time": 40922, "pitch": 57, "duration": 120, "velocity": 95}, {"time": 40932, "pitch": 50, "duration": 100, "velocity": 90}, {"time": 40942, "pitch": 45, "duration": 80, "velocity": 105}, {"time": 41022, "pitch": 45, "duration": 220, "velocity": 110}, {"time": 41032, "pitch": 50, "duration": 210, "velocity": 95}, {"time": 41042, "pitch": 57, "duration": 200, "velocity": 100}, {"time": 41052, "pitch": 62, "duration": 190, "velocity": 105}, {"time": 41062, "pitch": 66, "duration": 180, "velocity": 110}, {"time": 41262, "pitch": 47, "duration": 479, "velocity": 110}, {"time": 41272, "pitch": 52, "duration": 479, "velocity": 95}, {"time": 41282, "pitch": 55, "duration": 479, "velocity": 100}, {"time": 41292, "pitch": 59, "duration": 479, "velocity": 105}, {"time": 41302, "pitch": 64, "duration": 479, "velocity": 110}, {"time": 41741, "pitch": 47, "duration": 400, "velocity": 110}, {"time": 41751, "pitch": 52, "duration": 380, "velocity": 95}, {"time": 41761, "pitch": 55, "duration": 360, "velocity": 100}, {"time": 41771, "pitch": 59, "duration": 340, "velocity": 105}, {"time": 41781, "pitch": 64, "duration": 320, "velocity": 110}, {"time": 42101, "pitch": 64, "duration": 160, "velocity": 105}, {"time": 42111, "pitch": 59, "duration": 140, "velocity": 100}, {"time": 42121, "pitch": 55, "duration": 120, "velocity": 95}, {"time": 42131, "pitch": 52, "duration": 100, "velocity": 90}, {"time": 42141, "pitch": 47, "duration": 80, "velocity": 105}, {"time": 42221, "pitch": 47, "duration": 160, "velocity": 110}, {"time": 42231, "pitch": 52, "duration": 140, "velocity": 95}, {"time": 42241, "pitch": 55, "duration": 120, "velocity": 100}, {"time": 42251, "pitch": 59, "duration": 100, "velocity": 105}, {"time": 42261, "pitch": 64, "duration": 80, "velocity": 110}, {"time": 42341, "pitch": 64, "duration": 160, "velocity": 105}, {"time": 42351, "pitch": 59, "duration": 140, "velocity": 100}, {"time": 42361, "pitch": 55, "duration": 120, "velocity": 95}, {"time": 42371, "pitch": 52, "duration": 100, "velocity": 90}, {"time": 42381, "pitch": 47, "duration": 80, "velocity": 105}, {"time": 42461, "pitch": 47, "duration": 240, "velocity": 110}, {"time": 42471, "pitch": 52, "duration": 240, "velocity": 95}, {"time": 42481, "pitch": 55, "duration": 240, "velocity": 100}, {"time": 42491, "pitch": 59, "duration": 240, "velocity": 105}, {"time": 42501, "pitch": 64, "duration": 240, "velocity": 110}, {"time": 42701, "pitch": 47, "duration": 279, "velocity": 110}, {"time": 42711, "pitch": 52, "duration": 259, "velocity": 95}, {"time": 42721, "pitch": 55, "duration": 239, "velocity": 100}, {"time": 42731, "pitch": 59, "duration": 219, "velocity": 105}, {"time": 42741, "pitch": 64, "duration": 199, "velocity": 110}, {"time": 42940, "pitch": 64, "duration": 281, "velocity": 100}, {"time": 42950, "pitch": 59, "duration": 260, "velocity": 95}, {"time": 42960, "pitch": 55, "duration": 240, "velocity": 90}, {"time": 42970, "pitch": 52, "duration": 220, "velocity": 85}, {"time": 42980, "pitch": 47, "duration": 200, "velocity": 100}, {"time": 43180, "pitch": 47, "duration": 405, "velocity": 105}, {"time": 43190, "pitch": 50, "duration": 385, "velocity": 90}, {"time": 43200, "pitch": 55, "duration": 365, "velocity": 95}, {"time": 43210, "pitch": 59, "duration": 345, "velocity": 100}, {"time": 43221, "pitch": 67, "duration": 323, "velocity": 105}, {"time": 43544, "pitch": 67, "duration": 162, "velocity": 85}, {"time": 43555, "pitch": 59, "duration": 141, "velocity": 80}, {"time": 43565, "pitch": 55, "duration": 121, "velocity": 75}, {"time": 43575, "pitch": 50, "duration": 101, "velocity": 70}, {"time": 43585, "pitch": 47, "duration": 81, "velocity": 85}, {"time": 43666, "pitch": 47, "duration": 240, "velocity": 110}, {"time": 43676, "pitch": 50, "duration": 240, "velocity": 95}, {"time": 43686, "pitch": 55, "duration": 240, "velocity": 100}, {"time": 43696, "pitch": 59, "duration": 240, "velocity": 105}, {"time": 43706, "pitch": 67, "duration": 240, "velocity": 110}, {"time": 43906, "pitch": 47, "duration": 160, "velocity": 100}, {"time": 43916, "pitch": 50, "duration": 140, "velocity": 85}, {"time": 43926, "pitch": 55, "duration": 120, "velocity": 90}, {"time": 43936, "pitch": 59, "duration": 100, "velocity": 95}, {"time": 43946, "pitch": 67, "duration": 80, "velocity": 100}, {"time": 44026, "pitch": 67, "duration": 240, "velocity": 105}, {"time": 44036, "pitch": 59, "duration": 240, "velocity": 100}, {"time": 44046, "pitch": 55, "duration": 240, "velocity": 95}, {"time": 44056, "pitch": 50, "duration": 240, "velocity": 90}, {"time": 44066, "pitch": 47, "duration": 240, "velocity": 105}, {"time": 44266, "pitch": 67, "duration": 159, "velocity": 100}, {"time": 44276, "pitch": 59, "duration": 139, "velocity": 95}, {"time": 44286, "pitch": 55, "duration": 120, "velocity": 90}, {"time": 44296, "pitch": 50, "duration": 100, "velocity": 85}, {"time": 44306, "pitch": 47, "duration": 80, "velocity": 100}, {"time": 44386, "pitch": 47, "duration": 239, "velocity": 105}, {"time": 44396, "pitch": 50, "duration": 239, "velocity": 90}, {"time": 44406, "pitch": 55, "duration": 239, "velocity": 95}, {"time": 44415, "pitch": 59, "duration": 240, "velocity": 100}, {"time": 44425, "pitch": 67, "duration": 240, "velocity": 105}, {"time": 44625, "pitch": 47, "duration": 280, "velocity": 110}, {"time": 44635, "pitch": 50, "duration": 260, "velocity": 95}, {"time": 44645, "pitch": 55, "duration": 240, "velocity": 100}, {"time": 44655, "pitch": 59, "duration": 220, "velocity": 105}, {"time": 44665, "pitch": 67, "duration": 200, "velocity": 110}, {"time": 44865, "pitch": 67, "duration": 280, "velocity": 100}, {"time": 44875, "pitch": 59, "duration": 260, "velocity": 95}, {"time": 44885, "pitch": 55, "duration": 240, "velocity": 90}, {"time": 44895, "pitch": 50, "duration": 220, "velocity": 85}, {"time": 44905, "pitch": 47, "duration": 200, "velocity": 100}, {"time": 45105, "pitch": 45, "duration": 480, "velocity": 110}, {"time": 45115, "pitch": 50, "duration": 480, "velocity": 95}, {"time": 45125, "pitch": 57, "duration": 480, "velocity": 100}, {"time": 45135, "pitch": 62, "duration": 480, "velocity": 105}, {"time": 45145, "pitch": 66, "duration": 480, "velocity": 110}, {"time": 45585, "pitch": 45, "duration": 399, "velocity": 110}, {"time": 45595, "pitch": 50, "duration": 379, "velocity": 95}, {"time": 45605, "pitch": 57, "duration": 359, "velocity": 100}, {"time": 45615, "pitch": 62, "duration": 339, "velocity": 105}, {"time": 45625, "pitch": 66, "duration": 319, "velocity": 110}, {"time": 45944, "pitch": 66, "duration": 160, "velocity": 100}, {"time": 45954, "pitch": 62, "duration": 140, "velocity": 95}, {"time": 45964, "pitch": 57, "duration": 120, "velocity": 90}, {"time": 45974, "pitch": 50, "duration": 100, "velocity": 85}, {"time": 45984, "pitch": 45, "duration": 80, "velocity": 100}, {"time": 46064, "pitch": 45, "duration": 240, "velocity": 110}, {"time": 46074, "pitch": 50, "duration": 240, "velocity": 95}, {"time": 46084, "pitch": 57, "duration": 240, "velocity": 100}, {"time": 46094, "pitch": 62, "duration": 240, "velocity": 105}, {"time": 46104, "pitch": 67, "duration": 240, "velocity": 110}, {"time": 46304, "pitch": 45, "duration": 160, "velocity": 100}, {"time": 46314, "pitch": 50, "duration": 140, "velocity": 85}, {"time": 46324, "pitch": 57, "duration": 120, "velocity": 90}, {"time": 46334, "pitch": 62, "duration": 100, "velocity": 95}, {"time": 46344, "pitch": 66, "duration": 80, "velocity": 100}, {"time": 46424, "pitch": 64, "duration": 240, "velocity": 105}, {"time": 46434, "pitch": 62, "duration": 240, "velocity": 100}, {"time": 46444, "pitch": 57, "duration": 240, "velocity": 95}, {"time": 46454, "pitch": 50, "duration": 240, "velocity": 90}, {"time": 46464, "pitch": 45, "duration": 240, "velocity": 105}, {"time": 46664, "pitch": 64, "duration": 160, "velocity": 100}, {"time": 46674, "pitch": 62, "duration": 140, "velocity": 95}, {"time": 46684, "pitch": 57, "duration": 120, "velocity": 90}, {"time": 46694, "pitch": 50, "duration": 100, "velocity": 85}, {"time": 46704, "pitch": 45, "duration": 80, "velocity": 100}, {"time": 46784, "pitch": 45, "duration": 240, "velocity": 105}, {"time": 46794, "pitch": 50, "duration": 240, "velocity": 90}, {"time": 46804, "pitch": 57, "duration": 240, "velocity": 95}, {"time": 46814, "pitch": 62, "duration": 240, "velocity": 100}, {"time": 46824, "pitch": 67, "duration": 240, "velocity": 105}, {"time": 47024, "pitch": 48, "duration": 399, "velocity": 120}, {"time": 47034, "pitch": 52, "duration": 379, "velocity": 105}, {"time": 47044, "pitch": 55, "duration": 359, "velocity": 110}, {"time": 47054, "pitch": 60, "duration": 339, "velocity": 115}, {"time": 47064, "pitch": 64, "duration": 319, "velocity": 120}, {"time": 47383, "pitch": 64, "duration": 160, "velocity": 100}, {"time": 47393, "pitch": 60, "duration": 140, "velocity": 95}, {"time": 47403, "pitch": 55, "duration": 120, "velocity": 90}, {"time": 47413, "pitch": 52, "duration": 100, "velocity": 85}, {"time": 47423, "pitch": 48, "duration": 80, "velocity": 100}, {"time": 47503, "pitch": 48, "duration": 400, "velocity": 120}, {"time": 47513, "pitch": 52, "duration": 380, "velocity": 105}, {"time": 47523, "pitch": 55, "duration": 360, "velocity": 110}, {"time": 47533, "pitch": 60, "duration": 340, "velocity": 115}, {"time": 47543, "pitch": 64, "duration": 320, "velocity": 120}, {"time": 47863, "pitch": 64, "duration": 160, "velocity": 100}, {"time": 47873, "pitch": 59, "duration": 140, "velocity": 95}, {"time": 47883, "pitch": 55, "duration": 120, "velocity": 90}, {"time": 47893, "pitch": 52, "duration": 100, "velocity": 85}, {"time": 47903, "pitch": 47, "duration": 80, "velocity": 100}, {"time": 47983, "pitch": 47, "duration": 480, "velocity": 120}, {"time": 47993, "pitch": 52, "duration": 480, "velocity": 105}, {"time": 48003, "pitch": 55, "duration": 480, "velocity": 110}, {"time": 48013, "pitch": 59, "duration": 480, "velocity": 115}, {"time": 48023, "pitch": 64, "duration": 479, "velocity": 120}, {"time": 48463, "pitch": 45, "duration": 159, "velocity": 110}, {"time": 48473, "pitch": 52, "duration": 139, "velocity": 95}, {"time": 48483, "pitch": 55, "duration": 119, "velocity": 100}, {"time": 48493, "pitch": 60, "duration": 99, "velocity": 105}, {"time": 48502, "pitch": 64, "duration": 80, "velocity": 110}, {"time": 48582, "pitch": 64, "duration": 160, "velocity": 105}, {"time": 48592, "pitch": 60, "duration": 140, "velocity": 100}, {"time": 48602, "pitch": 55, "duration": 120, "velocity": 95}, {"time": 48612, "pitch": 52, "duration": 100, "velocity": 90}, {"time": 48622, "pitch": 45, "duration": 80, "velocity": 105}, {"time": 48702, "pitch": 45, "duration": 220, "velocity": 110}, {"time": 48712, "pitch": 52, "duration": 210, "velocity": 95}, {"time": 48722, "pitch": 55, "duration": 200, "velocity": 100}, {"time": 48732, "pitch": 60, "duration": 190, "velocity": 105}, {"time": 48742, "pitch": 64, "duration": 180, "velocity": 110}, {"time": 48942, "pitch": 45, "duration": 480, "velocity": 120}, {"time": 48952, "pitch": 50, "duration": 480, "velocity": 105}, {"time": 48962, "pitch": 57, "duration": 480, "velocity": 110}, {"time": 48972, "pitch": 62, "duration": 480, "velocity": 115}, {"time": 48982, "pitch": 66, "duration": 480, "velocity": 120}, {"time": 49422, "pitch": 45, "duration": 400, "velocity": 120}, {"time": 49432, "pitch": 50, "duration": 380, "velocity": 105}, {"time": 49442, "pitch": 57, "duration": 360, "velocity": 110}, {"time": 49452, "pitch": 62, "duration": 340, "velocity": 115}, {"time": 49462, "pitch": 66, "duration": 320, "velocity": 120}, {"time": 49782, "pitch": 66, "duration": 159, "velocity": 110}, {"time": 49792, "pitch": 62, "duration": 139, "velocity": 105}, {"time": 49802, "pitch": 57, "duration": 119, "velocity": 100}, {"time": 49812, "pitch": 50, "duration": 99, "velocity": 95}, {"time": 49822, "pitch": 45, "duration": 79, "velocity": 110}, {"time": 49901, "pitch": 45, "duration": 160, "velocity": 120}, {"time": 49911, "pitch": 50, "duration": 150, "velocity": 105}, {"time": 49921, "pitch": 57, "duration": 140, "velocity": 110}, {"time": 49931, "pitch": 62, "duration": 130, "velocity": 115}, {"time": 49941, "pitch": 67, "duration": 120, "velocity": 120}, {"time": 50141, "pitch": 66, "duration": 480, "velocity": 120}, {"time": 50151, "pitch": 62, "duration": 480, "velocity": 115}, {"time": 50161, "pitch": 57, "duration": 480, "velocity": 110}, {"time": 50171, "pitch": 50, "duration": 480, "velocity": 105}, {"time": 50181, "pitch": 45, "duration": 480, "velocity": 120}, {"time": 50621, "pitch": 66, "duration": 220, "velocity": 110}, {"time": 50631, "pitch": 62, "duration": 210, "velocity": 105}, {"time": 50641, "pitch": 57, "duration": 200, "velocity": 100}, {"time": 50651, "pitch": 50, "duration": 190, "velocity": 95}, {"time": 50661, "pitch": 45, "duration": 180, "velocity": 110}, {"time": 50861, "pitch": 48, "duration": 399, "velocity": 120}, {"time": 50871, "pitch": 52, "duration": 379, "velocity": 105}, {"time": 50881, "pitch": 55, "duration": 359, "velocity": 110}, {"time": 50891, "pitch": 60, "duration": 339, "velocity": 115}, {"time": 50901, "pitch": 64, "duration": 320, "velocity": 120}, {"time": 51221, "pitch": 64, "duration": 159, "velocity": 100}, {"time": 51230, "pitch": 60, "duration": 140, "velocity": 95}, {"time": 51240, "pitch": 55, "duration": 120, "velocity": 90}, {"time": 51250, "pitch": 52, "duration": 100, "velocity": 85}, {"time": 51260, "pitch": 48, "duration": 80, "velocity": 100}, {"time": 51340, "pitch": 48, "duration": 400, "velocity": 120}, {"time": 51350, "pitch": 52, "duration": 380, "velocity": 105}, {"time": 51360, "pitch": 55, "duration": 360, "velocity": 110}, {"time": 51370, "pitch": 60, "duration": 340, "velocity": 115}, {"time": 51380, "pitch": 64, "duration": 320, "velocity": 120}, {"time": 51700, "pitch": 64, "duration": 160, "velocity": 100}, {"time": 51710, "pitch": 59, "duration": 140, "velocity": 95}, {"time": 51720, "pitch": 55, "duration": 120, "velocity": 90}, {"time": 51730, "pitch": 52, "duration": 100, "velocity": 85}, {"time": 51740, "pitch": 47, "duration": 80, "velocity": 100}, {"time": 51820, "pitch": 47, "duration": 486, "velocity": 120}, {"time": 51830, "pitch": 52, "duration": 486, "velocity": 105}, {"time": 51840, "pitch": 55, "duration": 486, "velocity": 110}, {"time": 51850, "pitch": 59, "duration": 486, "velocity": 115}, {"time": 51860, "pitch": 64, "duration": 486, "velocity": 120}, {"time": 52306, "pitch": 45, "duration": 160, "velocity": 110}, {"time": 52316, "pitch": 52, "duration": 140, "velocity": 95}, {"time": 52326, "pitch": 55, "duration": 120, "velocity": 100}, {"time": 52336, "pitch": 60, "duration": 100, "velocity": 105}, {"time": 52346, "pitch": 64, "duration": 80, "velocity": 110}, {"time": 52426, "pitch": 64, "duration": 160, "velocity": 105}, {"time": 52436, "pitch": 60, "duration": 140, "velocity": 100}, {"time": 52446, "pitch": 55, "duration": 120, "velocity": 95}, {"time": 52456, "pitch": 52, "duration": 100, "velocity": 90}, {"time": 52466, "pitch": 45, "duration": 80, "velocity": 105}, {"time": 52546, "pitch": 45, "duration": 219, "velocity": 110}, {"time": 52556, "pitch": 52, "duration": 209, "velocity": 95}, {"time": 52566, "pitch": 55, "duration": 199, "velocity": 100}, {"time": 52576, "pitch": 60, "duration": 189, "velocity": 105}, {"time": 52586, "pitch": 64, "duration": 179, "velocity": 110}, {"time": 52785, "pitch": 45, "duration": 480, "velocity": 120}, {"time": 52795, "pitch": 50, "duration": 480, "velocity": 105}, {"time": 52805, "pitch": 57, "duration": 480, "velocity": 110}, {"time": 52815, "pitch": 62, "duration": 480, "velocity": 115}, {"time": 52825, "pitch": 66, "duration": 480, "velocity": 120}, {"time": 53265, "pitch": 45, "duration": 400, "velocity": 120}, {"time": 53275, "pitch": 50, "duration": 380, "velocity": 105}, {"time": 53285, "pitch": 57, "duration": 360, "velocity": 110}, {"time": 53295, "pitch": 62, "duration": 340, "velocity": 115}, {"time": 53305, "pitch": 66, "duration": 320, "velocity": 120}, {"time": 53625, "pitch": 66, "duration": 160, "velocity": 110}, {"time": 53635, "pitch": 62, "duration": 140, "velocity": 105}, {"time": 53645, "pitch": 57, "duration": 120, "velocity": 100}, {"time": 53655, "pitch": 50, "duration": 100, "velocity": 95}, {"time": 53665, "pitch": 45, "duration": 80, "velocity": 110}, {"time": 53745, "pitch": 45, "duration": 160, "velocity": 120}, {"time": 53755, "pitch": 50, "duration": 150, "velocity": 105}, {"time": 53765, "pitch": 57, "duration": 140, "velocity": 110}, {"time": 53775, "pitch": 62, "duration": 130, "velocity": 115}, {"time": 53785, "pitch": 67, "duration": 120, "velocity": 120}, {"time": 53985, "pitch": 66, "duration": 479, "velocity": 120}, {"time": 53995, "pitch": 62, "duration": 479, "velocity": 115}, {"time": 54005, "pitch": 57, "duration": 479, "velocity": 110}, {"time": 54015, "pitch": 50, "duration": 479, "velocity": 105}, {"time": 54025, "pitch": 45, "duration": 479, "velocity": 120}, {"time": 54464, "pitch": 66, "duration": 220, "velocity": 110}, {"time": 54474, "pitch": 62, "duration": 210, "velocity": 105}, {"time": 54484, "pitch": 57, "duration": 200, "velocity": 100}, {"time": 54494, "pitch": 50, "duration": 190, "velocity": 95}, {"time": 54504, "pitch": 45, "duration": 180, "velocity": 110}, {"time": 54704, "pitch": 48, "duration": 400, "velocity": 120}, {"time": 54714, "pitch": 52, "duration": 380, "velocity": 105}, {"time": 54724, "pitch": 55, "duration": 360, "velocity": 110}, {"time": 54734, "pitch": 60, "duration": 340, "velocity": 115}, {"time": 54744, "pitch": 64, "duration": 320, "velocity": 120}, {"time": 55064, "pitch": 64, "duration": 160, "velocity": 100}, {"time": 55074, "pitch": 60, "duration": 140, "velocity": 95}, {"time": 55084, "pitch": 55, "duration": 120, "velocity": 90}, {"time": 55094, "pitch": 52, "duration": 100, "velocity": 85}, {"time": 55104, "pitch": 48, "duration": 80, "velocity": 100}, {"time": 55184, "pitch": 48, "duration": 399, "velocity": 120}, {"time": 55194, "pitch": 52, "duration": 379, "velocity": 105}, {"time": 55204, "pitch": 55, "duration": 359, "velocity": 110}, {"time": 55214, "pitch": 60, "duration": 339, "velocity": 115}, {"time": 55224, "pitch": 64, "duration": 319, "velocity": 120}, {"time": 55543, "pitch": 64, "duration": 160, "velocity": 100}, {"time": 55553, "pitch": 59, "duration": 140, "velocity": 95}, {"time": 55563, "pitch": 55, "duration": 120, "velocity": 90}, {"time": 55573, "pitch": 52, "duration": 100, "velocity": 85}, {"time": 55583, "pitch": 47, "duration": 80, "velocity": 100}, {"time": 55663, "pitch": 47, "duration": 480, "velocity": 120}, {"time": 55673, "pitch": 52, "duration": 480, "velocity": 105}, {"time": 55683, "pitch": 55, "duration": 480, "velocity": 110}, {"time": 55693, "pitch": 59, "duration": 480, "velocity": 115}, {"time": 55703, "pitch": 64, "duration": 480, "velocity": 120}, {"time": 56143, "pitch": 45, "duration": 160, "velocity": 110}, {"time": 56153, "pitch": 52, "duration": 140, "velocity": 95}, {"time": 56163, "pitch": 55, "duration": 120, "velocity": 100}, {"time": 56173, "pitch": 60, "duration": 100, "velocity": 105}, {"time": 56183, "pitch": 64, "duration": 80, "velocity": 110}, {"time": 56263, "pitch": 64, "duration": 160, "velocity": 105}, {"time": 56273, "pitch": 60, "duration": 140, "velocity": 100}, {"time": 56283, "pitch": 55, "duration": 120, "velocity": 95}, {"time": 56293, "pitch": 52, "duration": 100, "velocity": 90}, {"time": 56303, "pitch": 45, "duration": 80, "velocity": 105}, {"time": 56383, "pitch": 45, "duration": 220, "velocity": 110}, {"time": 56393, "pitch": 52, "duration": 210, "velocity": 95}, {"time": 56403, "pitch": 55, "duration": 200, "velocity": 100}, {"time": 56413, "pitch": 60, "duration": 190, "velocity": 105}, {"time": 56423, "pitch": 64, "duration": 180, "velocity": 110}, {"time": 56623, "pitch": 45, "duration": 479, "velocity": 120}, {"time": 56633, "pitch": 50, "duration": 479, "velocity": 105}, {"time": 56643, "pitch": 57, "duration": 479, "velocity": 110}, {"time": 56653, "pitch": 62, "duration": 479, "velocity": 115}, {"time": 56663, "pitch": 66, "duration": 479, "velocity": 120}, {"time": 57102, "pitch": 45, "duration": 400, "velocity": 120}, {"time": 57112, "pitch": 50, "duration": 380, "velocity": 105}, {"time": 57122, "pitch": 57, "duration": 360, "velocity": 110}, {"time": 57132, "pitch": 62, "duration": 340, "velocity": 115}, {"time": 57142, "pitch": 66, "duration": 320, "velocity": 120}, {"time": 57462, "pitch": 66, "duration": 160, "velocity": 110}, {"time": 57472, "pitch": 62, "duration": 140, "velocity": 105}, {"time": 57482, "pitch": 57, "duration": 120, "velocity": 100}, {"time": 57492, "pitch": 50, "duration": 100, "velocity": 95}, {"time": 57502, "pitch": 45, "duration": 80, "velocity": 110}, {"time": 57582, "pitch": 45, "duration": 160, "velocity": 120}, {"time": 57592, "pitch": 50, "duration": 150, "velocity": 105}, {"time": 57602, "pitch": 57, "duration": 140, "velocity": 110}, {"time": 57612, "pitch": 62, "duration": 130, "velocity": 115}, {"time": 57622, "pitch": 67, "duration": 120, "velocity": 120}, {"time": 57822, "pitch": 66, "duration": 479, "velocity": 120}, {"time": 57832, "pitch": 62, "duration": 479, "velocity": 115}, {"time": 57842, "pitch": 57, "duration": 479, "velocity": 110}, {"time": 57852, "pitch": 50, "duration": 479, "velocity": 105}, {"time": 57862, "pitch": 45, "duration": 479, "velocity": 120}, {"time": 58301, "pitch": 66, "duration": 220, "velocity": 110}, {"time": 58311, "pitch": 62, "duration": 210, "velocity": 105}, {"time": 58321, "pitch": 57, "duration": 200, "velocity": 100}, {"time": 58331, "pitch": 50, "duration": 190, "velocity": 95}, {"time": 58341, "pitch": 45, "duration": 180, "velocity": 110}, {"time": 58541, "pitch": 45, "duration": 480, "velocity": 110}, {"time": 58551, "pitch": 50, "duration": 480, "velocity": 95}, {"time": 58561, "pitch": 57, "duration": 480, "velocity": 100}, {"time": 58571, "pitch": 62, "duration": 480, "velocity": 105}, {"time": 58581, "pitch": 66, "duration": 480, "velocity": 110}, {"time": 59021, "pitch": 45, "duration": 400, "velocity": 110}, {"time": 59031, "pitch": 50, "duration": 380, "velocity": 95}, {"time": 59041, "pitch": 57, "duration": 360, "velocity": 100}, {"time": 59051, "pitch": 62, "duration": 340, "velocity": 105}, {"time": 59061, "pitch": 66, "duration": 320, "velocity": 110}, {"time": 59381, "pitch": 66, "duration": 159, "velocity": 100}, {"time": 59391, "pitch": 62, "duration": 139, "velocity": 95}, {"time": 59401, "pitch": 57, "duration": 119, "velocity": 90}, {"time": 59411, "pitch": 50, "duration": 100, "velocity": 85}, {"time": 59421, "pitch": 45, "duration": 80, "velocity": 100}, {"time": 59501, "pitch": 45, "duration": 239, "velocity": 110}, {"time": 59511, "pitch": 50, "duration": 239, "velocity": 95}, {"time": 59520, "pitch": 57, "duration": 240, "velocity": 100}, {"time": 59530, "pitch": 62, "duration": 240, "velocity": 105}, {"time": 59540, "pitch": 67, "duration": 240, "velocity": 110}, {"time": 59740, "pitch": 45, "duration": 160, "velocity": 100}, {"time": 59750, "pitch": 50, "duration": 140, "velocity": 85}, {"time": 59760, "pitch": 57, "duration": 120, "velocity": 90}, {"time": 59770, "pitch": 62, "duration": 100, "velocity": 95}, {"time": 59780, "pitch": 66, "duration": 80, "velocity": 100}, {"time": 59860, "pitch": 64, "duration": 241, "velocity": 105}, {"time": 59870, "pitch": 62, "duration": 241, "velocity": 100}, {"time": 59880, "pitch": 57, "duration": 242, "velocity": 95}, {"time": 59890, "pitch": 50, "duration": 242, "velocity": 90}, {"time": 59900, "pitch": 45, "duration": 242, "velocity": 105}, {"time": 60101, "pitch": 64, "duration": 162, "velocity": 100}, {"time": 60111, "pitch": 62, "duration": 142, "velocity": 95}, {"time": 60122, "pitch": 57, "duration": 121, "velocity": 90}, {"time": 60132, "pitch": 50, "duration": 101, "velocity": 85}, {"time": 60142, "pitch": 45, "duration": 81, "velocity": 100}, {"time": 60223, "pitch": 45, "duration": 243, "velocity": 105}, {"time": 60233, "pitch": 50, "duration": 243, "velocity": 90}, {"time": 60243, "pitch": 57, "duration": 243, "velocity": 95}, {"time": 60253, "pitch": 62, "duration": 243, "velocity": 100}, {"time": 60263, "pitch": 67, "duration": 243, "velocity": 105}, {"time": 60466, "pitch": 45, "duration": 1898, "velocity": 120}, {"time": 60486, "pitch": 50, "duration": 1878, "velocity": 105}, {"time": 60506, "pitch": 57, "duration": 1858, "velocity": 110}, {"time": 60526, "pitch": 62, "duration": 1838, "velocity": 115}, {"time": 60546, "pitch": 66, "duration": 1818, "velocity": 120}, {"time": 62384, "pitch": 47, "duration": 480, "velocity": 110}, {"time": 62394, "pitch": 52, "duration": 480, "velocity": 95}, {"time": 62404, "pitch": 56, "duration": 480, "velocity": 100}, {"time": 62414, "pitch": 59, "duration": 480, "velocity": 105}, {"time": 62424, "pitch": 64, "duration": 480, "velocity": 110}, {"time": 62864, "pitch": 47, "duration": 400, "velocity": 110}, {"time": 62874, "pitch": 52, "duration": 380, "velocity": 95}, {"time": 62884, "pitch": 56, "duration": 360, "velocity": 100}, {"time": 62894, "pitch": 59, "duration": 340, "velocity": 105}, {"time": 62904, "pitch": 64, "duration": 320, "velocity": 110}, {"time": 63224, "pitch": 64, "duration": 160, "velocity": 105}, {"time": 63234, "pitch": 59, "duration": 140, "velocity": 100}, {"time": 63244, "pitch": 56, "duration": 120, "velocity": 95}, {"time": 63254, "pitch": 52, "duration": 100, "velocity": 90}, {"time": 63264, "pitch": 47, "duration": 80, "velocity": 105}, {"time": 63344, "pitch": 47, "duration": 160, "velocity": 110}, {"time": 63354, "pitch": 52, "duration": 140, "velocity": 95}, {"time": 63364, "pitch": 56, "duration": 120, "velocity": 100}, {"time": 63374, "pitch": 59, "duration": 100, "velocity": 105}, {"time": 63384, "pitch": 64, "duration": 80, "velocity": 110}, {"time": 63464, "pitch": 64, "duration": 160, "velocity": 105}, {"time": 63474, "pitch": 59, "duration": 140, "velocity": 100}, {"time": 63484, "pitch": 56, "duration": 120, "velocity": 95}, {"time": 63494, "pitch": 52, "duration": 100, "velocity": 90}, {"time": 63504, "pitch": 47, "duration": 80, "velocity": 105}, {"time": 63584, "pitch": 47, "duration": 239, "velocity": 110}, {"time": 63594, "pitch": 52, "duration": 239, "velocity": 95}, {"time": 63604, "pitch": 56, "duration": 239, "velocity": 100}, {"time": 63614, "pitch": 59, "duration": 239, "velocity": 105}, {"time": 63624, "pitch": 64, "duration": 239, "velocity": 110}, {"time": 63823, "pitch": 47, "duration": 280, "velocity": 110}, {"time": 63833, "pitch": 52, "duration": 260, "velocity": 95}, {"time": 63843, "pitch": 56, "duration": 240, "velocity": 100}, {"time": 63853, "pitch": 59, "duration": 220, "velocity": 105}, {"time": 63863, "pitch": 64, "duration": 200, "velocity": 110}, {"time": 64063, "pitch": 64, "duration": 280, "velocity": 100}, {"time": 64073, "pitch": 59, "duration": 260, "velocity": 95}, {"time": 64083, "pitch": 56, "duration": 240, "velocity": 90}, {"time": 64093, "pitch": 52, "duration": 220, "velocity": 85}, {"time": 64103, "pitch": 47, "duration": 200, "velocity": 100}, {"time": 64303, "pitch": 47, "duration": 400, "velocity": 105}, {"time": 64313, "pitch": 50, "duration": 380, "velocity": 90}, {"time": 64323, "pitch": 55, "duration": 360, "velocity": 95}, {"time": 64333, "pitch": 59, "duration": 340, "velocity": 100}, {"time": 64343, "pitch": 67, "duration": 320, "velocity": 105}, {"time": 64663, "pitch": 67, "duration": 160, "velocity": 85}, {"time": 64673, "pitch": 59, "duration": 140, "velocity": 80}, {"time": 64683, "pitch": 55, "duration": 120, "velocity": 75}, {"time": 64693, "pitch": 50, "duration": 100, "velocity": 70}, {"time": 64703, "pitch": 47, "duration": 80, "velocity": 85}, {"time": 64783, "pitch": 47, "duration": 240, "velocity": 110}, {"time": 64793, "pitch": 50, "duration": 240, "velocity": 95}, {"time": 64803, "pitch": 55, "duration": 240, "velocity": 100}, {"time": 64813, "pitch": 59, "duration": 240, "velocity": 105}, {"time": 64823, "pitch": 67, "duration": 240, "velocity": 110}, {"time": 65023, "pitch": 47, "duration": 159, "velocity": 100}, {"time": 65033, "pitch": 50, "duration": 139, "velocity": 85}, {"time": 65043, "pitch": 55, "duration": 119, "velocity": 90}, {"time": 65053, "pitch": 59, "duration": 99, "velocity": 95}, {"time": 65063, "pitch": 67, "duration": 79, "velocity": 100}, {"time": 65142, "pitch": 67, "duration": 240, "velocity": 105}, {"time": 65152, "pitch": 59, "duration": 240, "velocity": 100}, {"time": 65162, "pitch": 55, "duration": 240, "velocity": 95}, {"time": 65172, "pitch": 50, "duration": 240, "velocity": 90}, {"time": 65182, "pitch": 47, "duration": 240, "velocity": 105}, {"time": 65382, "pitch": 67, "duration": 160, "velocity": 100}, {"time": 65392, "pitch": 59, "duration": 140, "velocity": 95}, {"time": 65402, "pitch": 55, "duration": 120, "velocity": 90}, {"time": 65412, "pitch": 50, "duration": 100, "velocity": 85}, {"time": 65422, "pitch": 47, "duration": 80, "velocity": 100}, {"time": 65502, "pitch": 47, "duration": 240, "velocity": 105}, {"time": 65512, "pitch": 50, "duration": 240, "velocity": 90}, {"time": 65522, "pitch": 55, "duration": 240, "velocity": 95}, {"time": 65532, "pitch": 59, "duration": 240, "velocity": 100}, {"time": 65542, "pitch": 67, "duration": 240, "velocity": 105}, {"time": 65742, "pitch": 47, "duration": 280, "velocity": 110}, {"time": 65752, "pitch": 50, "duration": 260, "velocity": 95}, {"time": 65762, "pitch": 55, "duration": 240, "velocity": 100}, {"time": 65772, "pitch": 59, "duration": 220, "velocity": 105}, {"time": 65782, "pitch": 67, "duration": 200, "velocity": 110}, {"time": 65982, "pitch": 67, "duration": 280, "velocity": 100}, {"time": 65992, "pitch": 59, "duration": 260, "velocity": 95}, {"time": 66002, "pitch": 55, "duration": 240, "velocity": 90}, {"time": 66012, "pitch": 50, "duration": 220, "velocity": 85}, {"time": 66022, "pitch": 47, "duration": 200, "velocity": 100}, {"time": 66222, "pitch": 45, "duration": 479, "velocity": 110}, {"time": 66232, "pitch": 50, "duration": 479, "velocity": 95}, {"time": 66242, "pitch": 57, "duration": 479, "velocity": 100}, {"time": 66252, "pitch": 62, "duration": 479, "velocity": 105}, {"time": 66262, "pitch": 66, "duration": 479, "velocity": 110}, {"time": 66701, "pitch": 45, "duration": 400, "velocity": 110}, {"time": 66711, "pitch": 50, "duration": 380, "velocity": 95}, {"time": 66721, "pitch": 57, "duration": 360, "velocity": 100}, {"time": 66731, "pitch": 62, "duration": 340, "velocity": 105}, {"time": 66741, "pitch": 66, "duration": 320, "velocity": 110}, {"time": 67061, "pitch": 66, "duration": 160, "velocity": 100}, {"time": 67071, "pitch": 62, "duration": 140, "velocity": 95}, {"time": 67081, "pitch": 57, "duration": 120, "velocity": 90}, {"time": 67091, "pitch": 50, "duration": 100, "velocity": 85}, {"time": 67101, "pitch": 45, "duration": 80, "velocity": 100}, {"time": 67181, "pitch": 45, "duration": 240, "velocity": 110}, {"time": 67191, "pitch": 50, "duration": 240, "velocity": 95}, {"time": 67201, "pitch": 57, "duration": 240, "velocity": 100}, {"time": 67211, "pitch": 62, "duration": 240, "velocity": 105}, {"time": 67221, "pitch": 67, "duration": 240, "velocity": 110}, {"time": 67421, "pitch": 45, "duration": 160, "velocity": 100}, {"time": 67431, "pitch": 50, "duration": 140, "velocity": 85}, {"time": 67441, "pitch": 57, "duration": 120, "velocity": 90}, {"time": 67451, "pitch": 62, "duration": 100, "velocity": 95}, {"time": 67461, "pitch": 66, "duration": 80, "velocity": 100}, {"time": 67541, "pitch": 64, "duration": 240, "velocity": 105}, {"time": 67551, "pitch": 62, "duration": 240, "velocity": 100}, {"time": 67561, "pitch": 57, "duration": 240, "velocity": 95}, {"time": 67571, "pitch": 50, "duration": 239, "velocity": 90}, {"time": 67581, "pitch": 45, "duration": 239, "velocity": 105}, {"time": 67781, "pitch": 64, "duration": 159, "velocity": 100}, {"time": 67791, "pitch": 62, "duration": 139, "velocity": 95}, {"time": 67801, "pitch": 57, "duration": 119, "velocity": 90}, {"time": 67810, "pitch": 50, "duration": 100, "velocity": 85}, {"time": 67820, "pitch": 45, "duration": 80, "velocity": 100}, {"time": 67900, "pitch": 45, "duration": 240, "velocity": 105}, {"time": 67910, "pitch": 50, "duration": 240, "velocity": 90}, {"time": 67920, "pitch": 57, "duration": 240, "velocity": 95}, {"time": 67930, "pitch": 62, "duration": 240, "velocity": 100}, {"time": 67940, "pitch": 67, "duration": 240, "velocity": 105}, {"time": 68140, "pitch": 45, "duration": 1905, "velocity": 120}, {"time": 68160, "pitch": 50, "duration": 1885, "velocity": 105}, {"time": 68180, "pitch": 57, "duration": 1865, "velocity": 110}, {"time": 68201, "pitch": 62, "duration": 1844, "velocity": 115}, {"time": 68221, "pitch": 66, "duration": 1824, "velocity": 120}, {"time": 70065, "pitch": 47, "duration": 480, "velocity": 110}, {"time": 70075, "pitch": 52, "duration": 480, "velocity": 95}, {"time": 70085, "pitch": 56, "duration": 480, "velocity": 100}, {"time": 70095, "pitch": 59, "duration": 480, "velocity": 105}, {"time": 70105, "pitch": 64, "duration": 480, "velocity": 110}, {"time": 70545, "pitch": 47, "duration": 399, "velocity": 110}, {"time": 70555, "pitch": 52, "duration": 379, "velocity": 95}, {"time": 70565, "pitch": 56, "duration": 359, "velocity": 100}, {"time": 70575, "pitch": 59, "duration": 339, "velocity": 105}, {"time": 70585, "pitch": 64, "duration": 319, "velocity": 110}, {"time": 70904, "pitch": 64, "duration": 160, "velocity": 105}, {"time": 70914, "pitch": 59, "duration": 140, "velocity": 100}, {"time": 70924, "pitch": 56, "duration": 120, "velocity": 95}, {"time": 70934, "pitch": 52, "duration": 100, "velocity": 90}, {"time": 70944, "pitch": 47, "duration": 80, "velocity": 105}, {"time": 71024, "pitch": 47, "duration": 160, "velocity": 110}, {"time": 71034, "pitch": 52, "duration": 140, "velocity": 95}, {"time": 71044, "pitch": 56, "duration": 120, "velocity": 100}, {"time": 71054, "pitch": 59, "duration": 100, "velocity": 105}, {"time": 71064, "pitch": 64, "duration": 80, "velocity": 110}, {"time": 71144, "pitch": 64, "duration": 160, "velocity": 105}, {"time": 71154, "pitch": 59, "duration": 140, "velocity": 100}, {"time": 71164, "pitch": 56, "duration": 120, "velocity": 95}, {"time": 71174, "pitch": 52, "duration": 100, "velocity": 90}, {"time": 71184, "pitch": 47, "duration": 80, "velocity": 105}, {"time": 71264, "pitch": 47, "duration": 240, "velocity": 110}, {"time": 71274, "pitch": 52, "duration": 240, "velocity": 95}, {"time": 71284, "pitch": 56, "duration": 240, "velocity": 100}, {"time": 71294, "pitch": 59, "duration": 240, "velocity": 105}, {"time": 71304, "pitch": 64, "duration": 240, "velocity": 110}, {"time": 71504, "pitch": 47, "duration": 280, "velocity": 110}, {"time": 71514, "pitch": 52, "duration": 260, "velocity": 95}, {"time": 71524, "pitch": 56, "duration": 240, "velocity": 100}, {"time": 71534, "pitch": 59, "duration": 220, "velocity": 105}, {"time": 71544, "pitch": 64, "duration": 200, "velocity": 110}, {"time": 71744, "pitch": 64, "duration": 279, "velocity": 100}, {"time": 71754, "pitch": 59, "duration": 259, "velocity": 95}, {"time": 71764, "pitch": 56, "duration": 240, "velocity": 90}, {"time": 71774, "pitch": 52, "duration": 220, "velocity": 85}, {"time": 71784, "pitch": 47, "duration": 200, "velocity": 100}, {"time": 71984, "pitch": 47, "duration": 399, "velocity": 105}, {"time": 71994, "pitch": 50, "duration": 379, "velocity": 90}, {"time": 72004, "pitch": 55, "duration": 359, "velocity": 95}, {"time": 72013, "pitch": 59, "duration": 340, "velocity": 100}, {"time": 72023, "pitch": 67, "duration": 320, "velocity": 105}, {"time": 72343, "pitch": 67, "duration": 160, "velocity": 85}, {"time": 72353, "pitch": 59, "duration": 140, "velocity": 80}, {"time": 72363, "pitch": 55, "duration": 120, "velocity": 75}, {"time": 72373, "pitch": 50, "duration": 100, "velocity": 70}, {"time": 72383, "pitch": 47, "duration": 80, "velocity": 85}, {"time": 72463, "pitch": 47, "duration": 240, "velocity": 110}, {"time": 72473, "pitch": 50, "duration": 240, "velocity": 95}, {"time": 72483, "pitch": 55, "duration": 240, "velocity": 100}, {"time": 72493, "pitch": 59, "duration": 240, "velocity": 105}, {"time": 72503, "pitch": 67, "duration": 240, "velocity": 110}, {"time": 72703, "pitch": 47, "duration": 160, "velocity": 100}, {"time": 72713, "pitch": 50, "duration": 140, "velocity": 85}, {"time": 72723, "pitch": 55, "duration": 120, "velocity": 90}, {"time": 72733, "pitch": 59, "duration": 100, "velocity": 95}, {"time": 72743, "pitch": 67, "duration": 80, "velocity": 100}, {"time": 72823, "pitch": 67, "duration": 240, "velocity": 105}, {"time": 72833, "pitch": 59, "duration": 240, "velocity": 100}, {"time": 72843, "pitch": 55, "duration": 240, "velocity": 95}, {"time": 72853, "pitch": 50, "duration": 240, "velocity": 90}, {"time": 72863, "pitch": 47, "duration": 240, "velocity": 105}, {"time": 73063, "pitch": 67, "duration": 160, "velocity": 100}, {"time": 73073, "pitch": 59, "duration": 140, "velocity": 95}, {"time": 73083, "pitch": 55, "duration": 120, "velocity": 90}, {"time": 73093, "pitch": 50, "duration": 100, "velocity": 85}, {"time": 73103, "pitch": 47, "duration": 80, "velocity": 100}, {"time": 73183, "pitch": 47, "duration": 239, "velocity": 105}, {"time": 73193, "pitch": 50, "duration": 239, "velocity": 90}, {"time": 73203, "pitch": 55, "duration": 239, "velocity": 95}, {"time": 73213, "pitch": 59, "duration": 239, "velocity": 100}, {"time": 73223, "pitch": 67, "duration": 239, "velocity": 105}, {"time": 73422, "pitch": 47, "duration": 280, "velocity": 110}, {"time": 73432, "pitch": 50, "duration": 260, "velocity": 95}, {"time": 73442, "pitch": 55, "duration": 240, "velocity": 100}, {"time": 73452, "pitch": 59, "duration": 220, "velocity": 105}, {"time": 73462, "pitch": 67, "duration": 200, "velocity": 110}, {"time": 73662, "pitch": 67, "duration": 280, "velocity": 100}, {"time": 73672, "pitch": 59, "duration": 260, "velocity": 95}, {"time": 73682, "pitch": 55, "duration": 240, "velocity": 90}, {"time": 73692, "pitch": 50, "duration": 220, "velocity": 85}, {"time": 73702, "pitch": 47, "duration": 200, "velocity": 100}, {"time": 73902, "pitch": 45, "duration": 480, "velocity": 110}, {"time": 73912, "pitch": 50, "duration": 480, "velocity": 95}, {"time": 73922, "pitch": 57, "duration": 480, "velocity": 100}, {"time": 73932, "pitch": 62, "duration": 480, "velocity": 105}, {"time": 73942, "pitch": 66, "duration": 480, "velocity": 110}, {"time": 74382, "pitch": 45, "duration": 399, "velocity": 110}, {"time": 74392, "pitch": 50, "duration": 379, "velocity": 95}, {"time": 74402, "pitch": 57, "duration": 359, "velocity": 100}, {"time": 74412, "pitch": 62, "duration": 339, "velocity": 105}, {"time": 74422, "pitch": 66, "duration": 319, "velocity": 110}, {"time": 74741, "pitch": 66, "duration": 160, "velocity": 100}, {"time": 74751, "pitch": 62, "duration": 140, "velocity": 95}, {"time": 74761, "pitch": 57, "duration": 120, "velocity": 90}, {"time": 74771, "pitch": 50, "duration": 100, "velocity": 85}, {"time": 74781, "pitch": 45, "duration": 80, "velocity": 100}, {"time": 74861, "pitch": 45, "duration": 240, "velocity": 110}, {"time": 74871, "pitch": 50, "duration": 240, "velocity": 95}, {"time": 74881, "pitch": 57, "duration": 240, "velocity": 100}, {"time": 74891, "pitch": 62, "duration": 240, "velocity": 105}, {"time": 74901, "pitch": 67, "duration": 240, "velocity": 110}, {"time": 75101, "pitch": 45, "duration": 160, "velocity": 100}, {"time": 75111, "pitch": 50, "duration": 140, "velocity": 85}, {"time": 75121, "pitch": 57, "duration": 120, "velocity": 90}, {"time": 75131, "pitch": 62, "duration": 100, "velocity": 95}, {"time": 75141, "pitch": 66, "duration": 80, "velocity": 100}, {"time": 75221, "pitch": 64, "duration": 240, "velocity": 105}, {"time": 75231, "pitch": 62, "duration": 240, "velocity": 100}, {"time": 75241, "pitch": 57, "duration": 240, "velocity": 95}, {"time": 75251, "pitch": 50, "duration": 240, "velocity": 90}, {"time": 75261, "pitch": 45, "duration": 240, "velocity": 105}, {"time": 75461, "pitch": 64, "duration": 160, "velocity": 100}, {"time": 75471, "pitch": 62, "duration": 140, "velocity": 95}, {"time": 75481, "pitch": 57, "duration": 120, "velocity": 90}, {"time": 75491, "pitch": 50, "duration": 100, "velocity": 85}, {"time": 75501, "pitch": 45, "duration": 80, "velocity": 100}, {"time": 75581, "pitch": 45, "duration": 240, "velocity": 105}, {"time": 75591, "pitch": 50, "duration": 240, "velocity": 90}, {"time": 75601, "pitch": 57, "duration": 240, "velocity": 95}, {"time": 75611, "pitch": 62, "duration": 240, "velocity": 100}, {"time": 75621, "pitch": 67, "duration": 240, "velocity": 105}, {"time": 75821, "pitch": 45, "duration": 479, "velocity": 120}, {"time": 75831, "pitch": 50, "duration": 479, "velocity": 105}, {"time": 75841, "pitch": 57, "duration": 479, "velocity": 110}, {"time": 75851, "pitch": 62, "duration": 479, "velocity": 115}, {"time": 75861, "pitch": 66, "duration": 479, "velocity": 120}, {"time": 76300, "pitch": 45, "duration": 400, "velocity": 120}, {"time": 76310, "pitch": 50, "duration": 380, "velocity": 105}, {"time": 76320, "pitch": 57, "duration": 360, "velocity": 110}, {"time": 76330, "pitch": 62, "duration": 340, "velocity": 115}, {"time": 76340, "pitch": 66, "duration": 320, "velocity": 120}, {"time": 76660, "pitch": 66, "duration": 160, "velocity": 110}, {"time": 76670, "pitch": 62, "duration": 140, "velocity": 105}, {"time": 76680, "pitch": 57, "duration": 120, "velocity": 100}, {"time": 76690, "pitch": 50, "duration": 100, "velocity": 95}, {"time": 76700, "pitch": 45, "duration": 80, "velocity": 110}, {"time": 76780, "pitch": 45, "duration": 283, "velocity": 120}, {"time": 76790, "pitch": 50, "duration": 263, "velocity": 105}, {"time": 76800, "pitch": 57, "duration": 243, "velocity": 110}, {"time": 76810, "pitch": 62, "duration": 223, "velocity": 115}, {"time": 76820, "pitch": 66, "duration": 203, "velocity": 120}, {"time": 77023, "pitch": 66, "duration": 283, "velocity": 110}, {"time": 77033, "pitch": 62, "duration": 263, "velocity": 105}, {"time": 77043, "pitch": 57, "duration": 243, "velocity": 100}, {"time": 77053, "pitch": 50, "duration": 223, "velocity": 95}, {"time": 77063, "pitch": 45, "duration": 203, "velocity": 110}, {"time": 77266, "pitch": 45, "duration": 160, "velocity": 110}, {"time": 77276, "pitch": 50, "duration": 140, "velocity": 95}, {"time": 77286, "pitch": 57, "duration": 120, "velocity": 100}, {"time": 77296, "pitch": 62, "duration": 100, "velocity": 105}, {"time": 77306, "pitch": 66, "duration": 80, "velocity": 110}, {"time": 77386, "pitch": 66, "duration": 160, "velocity": 105}, {"time": 77396, "pitch": 62, "duration": 140, "velocity": 100}, {"time": 77406, "pitch": 57, "duration": 120, "velocity": 95}, {"time": 77416, "pitch": 50, "duration": 100, "velocity": 90}, {"time": 77426, "pitch": 45, "duration": 80, "velocity": 105}, {"time": 77506, "pitch": 45, "duration": 219, "velocity": 110}, {"time": 77516, "pitch": 50, "duration": 209, "velocity": 95}, {"time": 77526, "pitch": 57, "duration": 199, "velocity": 100}, {"time": 77536, "pitch": 62, "duration": 189, "velocity": 105}, {"time": 77546, "pitch": 66, "duration": 179, "velocity": 110}, {"time": 77745, "pitch": 47, "duration": 480, "velocity": 110}, {"time": 77755, "pitch": 52, "duration": 480, "velocity": 95}, {"time": 77765, "pitch": 55, "duration": 480, "velocity": 100}, {"time": 77775, "pitch": 59, "duration": 480, "velocity": 105}, {"time": 77785, "pitch": 64, "duration": 480, "velocity": 110}, {"time": 78225, "pitch": 47, "duration": 400, "velocity": 110}, {"time": 78235, "pitch": 52, "duration": 380, "velocity": 95}, {"time": 78245, "pitch": 55, "duration": 360, "velocity": 100}, {"time": 78255, "pitch": 59, "duration": 340, "velocity": 105}, {"time": 78265, "pitch": 64, "duration": 320, "velocity": 110}, {"time": 78585, "pitch": 64, "duration": 160, "velocity": 105}, {"time": 78595, "pitch": 59, "duration": 140, "velocity": 100}, {"time": 78605, "pitch": 55, "duration": 120, "velocity": 95}, {"time": 78615, "pitch": 52, "duration": 100, "velocity": 90}, {"time": 78625, "pitch": 47, "duration": 80, "velocity": 105}, {"time": 78705, "pitch": 47, "duration": 160, "velocity": 110}, {"time": 78715, "pitch": 52, "duration": 140, "velocity": 95}, {"time": 78725, "pitch": 55, "duration": 120, "velocity": 100}, {"time": 78735, "pitch": 59, "duration": 100, "velocity": 105}, {"time": 78745, "pitch": 64, "duration": 80, "velocity": 110}, {"time": 78825, "pitch": 64, "duration": 159, "velocity": 105}, {"time": 78835, "pitch": 59, "duration": 139, "velocity": 100}, {"time": 78845, "pitch": 55, "duration": 119, "velocity": 95}, {"time": 78855, "pitch": 52, "duration": 99, "velocity": 90}, {"time": 78865, "pitch": 47, "duration": 79, "velocity": 105}, {"time": 78944, "pitch": 47, "duration": 240, "velocity": 110}, {"time": 78954, "pitch": 52, "duration": 240, "velocity": 95}, {"time": 78964, "pitch": 55, "duration": 240, "velocity": 100}, {"time": 78974, "pitch": 59, "duration": 240, "velocity": 105}, {"time": 78984, "pitch": 64, "duration": 240, "velocity": 110}, {"time": 79184, "pitch": 47, "duration": 280, "velocity": 110}, {"time": 79194, "pitch": 52, "duration": 260, "velocity": 95}, {"time": 79204, "pitch": 55, "duration": 240, "velocity": 100}, {"time": 79214, "pitch": 59, "duration": 220, "velocity": 105}, {"time": 79224, "pitch": 64, "duration": 200, "velocity": 110}, {"time": 79424, "pitch": 64, "duration": 280, "velocity": 100}, {"time": 79434, "pitch": 59, "duration": 260, "velocity": 95}, {"time": 79444, "pitch": 55, "duration": 240, "velocity": 90}, {"time": 79454, "pitch": 52, "duration": 220, "velocity": 85}, {"time": 79464, "pitch": 47, "duration": 200, "velocity": 100}, {"time": 79664, "pitch": 47, "duration": 400, "velocity": 105}, {"time": 79674, "pitch": 50, "duration": 380, "velocity": 90}, {"time": 79684, "pitch": 55, "duration": 360, "velocity": 95}, {"time": 79694, "pitch": 59, "duration": 340, "velocity": 100}, {"time": 79704, "pitch": 67, "duration": 320, "velocity": 105}, {"time": 80024, "pitch": 67, "duration": 160, "velocity": 85}, {"time": 80034, "pitch": 59, "duration": 140, "velocity": 80}, {"time": 80044, "pitch": 55, "duration": 120, "velocity": 75}, {"time": 80054, "pitch": 50, "duration": 100, "velocity": 70}, {"time": 80064, "pitch": 47, "duration": 80, "velocity": 85}, {"time": 80144, "pitch": 47, "duration": 239, "velocity": 110}, {"time": 80154, "pitch": 50, "duration": 239, "velocity": 95}, {"time": 80164, "pitch": 55, "duration": 239, "velocity": 100}, {"time": 80174, "pitch": 59, "duration": 239, "velocity": 105}, {"time": 80184, "pitch": 67, "duration": 239, "velocity": 110}, {"time": 80383, "pitch": 47, "duration": 160, "velocity": 100}, {"time": 80393, "pitch": 50, "duration": 140, "velocity": 85}, {"time": 80403, "pitch": 55, "duration": 120, "velocity": 90}, {"time": 80413, "pitch": 59, "duration": 100, "velocity": 95}, {"time": 80423, "pitch": 67, "duration": 80, "velocity": 100}, {"time": 80503, "pitch": 67, "duration": 240, "velocity": 105}, {"time": 80513, "pitch": 59, "duration": 240, "velocity": 100}, {"time": 80523, "pitch": 55, "duration": 240, "velocity": 95}, {"time": 80533, "pitch": 50, "duration": 240, "velocity": 90}, {"time": 80543, "pitch": 47, "duration": 240, "velocity": 105}, {"time": 80743, "pitch": 67, "duration": 160, "velocity": 100}, {"time": 80753, "pitch": 59, "duration": 140, "velocity": 95}, {"time": 80763, "pitch": 55, "duration": 120, "velocity": 90}, {"time": 80773, "pitch": 50, "duration": 100, "velocity": 85}, {"time": 80783, "pitch": 47, "duration": 80, "velocity": 100}, {"time": 80863, "pitch": 47, "duration": 240, "velocity": 105}, {"time": 80873, "pitch": 50, "duration": 240, "velocity": 90}, {"time": 80883, "pitch": 55, "duration": 240, "velocity": 95}, {"time": 80893, "pitch": 59, "duration": 240, "velocity": 100}, {"time": 80903, "pitch": 67, "duration": 240, "velocity": 105}, {"time": 81103, "pitch": 47, "duration": 280, "velocity": 110}, {"time": 81113, "pitch": 50, "duration": 260, "velocity": 95}, {"time": 81123, "pitch": 55, "duration": 240, "velocity": 100}, {"time": 81133, "pitch": 59, "duration": 220, "velocity": 105}, {"time": 81143, "pitch": 67, "duration": 200, "velocity": 110}, {"time": 81343, "pitch": 67, "duration": 280, "velocity": 100}, {"time": 81353, "pitch": 59, "duration": 260, "velocity": 95}, {"time": 81363, "pitch": 55, "duration": 240, "velocity": 90}, {"time": 81373, "pitch": 50, "duration": 220, "velocity": 85}, {"time": 81383, "pitch": 47, "duration": 200, "velocity": 100}, {"time": 81583, "pitch": 45, "duration": 479, "velocity": 110}, {"time": 81593, "pitch": 50, "duration": 479, "velocity": 95}, {"time": 81603, "pitch": 57, "duration": 479, "velocity": 100}, {"time": 81613, "pitch": 62, "duration": 479, "velocity": 105}, {"time": 81623, "pitch": 66, "duration": 479, "velocity": 110}, {"time": 82062, "pitch": 45, "duration": 400, "velocity": 110}, {"time": 82072, "pitch": 50, "duration": 380, "velocity": 95}, {"time": 82082, "pitch": 57, "duration": 360, "velocity": 100}, {"time": 82092, "pitch": 62, "duration": 340, "velocity": 105}, {"time": 82102, "pitch": 66, "duration": 320, "velocity": 110}, {"time": 82422, "pitch": 66, "duration": 160, "velocity": 100}, {"time": 82432, "pitch": 62, "duration": 140, "velocity": 95}, {"time": 82442, "pitch": 57, "duration": 120, "velocity": 90}, {"time": 82452, "pitch": 50, "duration": 100, "velocity": 85}, {"time": 82462, "pitch": 45, "duration": 80, "velocity": 100}, {"time": 82542, "pitch": 45, "duration": 240, "velocity": 110}, {"time": 82552, "pitch": 50, "duration": 240, "velocity": 95}, {"time": 82562, "pitch": 57, "duration": 240, "velocity": 100}, {"time": 82572, "pitch": 62, "duration": 240, "velocity": 105}, {"time": 82582, "pitch": 67, "duration": 240, "velocity": 110}, {"time": 82782, "pitch": 45, "duration": 160, "velocity": 100}, {"time": 82792, "pitch": 50, "duration": 140, "velocity": 85}, {"time": 82802, "pitch": 57, "duration": 120, "velocity": 90}, {"time": 82812, "pitch": 62, "duration": 100, "velocity": 95}, {"time": 82822, "pitch": 66, "duration": 80, "velocity": 100}, {"time": 82902, "pitch": 64, "duration": 239, "velocity": 105}, {"time": 82912, "pitch": 62, "duration": 239, "velocity": 100}, {"time": 82922, "pitch": 57, "duration": 239, "velocity": 95}, {"time": 82932, "pitch": 50, "duration": 239, "velocity": 90}, {"time": 82942, "pitch": 45, "duration": 239, "velocity": 105}, {"time": 83141, "pitch": 64, "duration": 160, "velocity": 100}, {"time": 83151, "pitch": 62, "duration": 140, "velocity": 95}, {"time": 83161, "pitch": 57, "duration": 120, "velocity": 90}, {"time": 83171, "pitch": 50, "duration": 100, "velocity": 85}, {"time": 83181, "pitch": 45, "duration": 80, "velocity": 100}, {"time": 83261, "pitch": 45, "duration": 240, "velocity": 105}, {"time": 83271, "pitch": 50, "duration": 240, "velocity": 90}, {"time": 83281, "pitch": 57, "duration": 240, "velocity": 95}, {"time": 83291, "pitch": 62, "duration": 240, "velocity": 100}, {"time": 83301, "pitch": 67, "duration": 240, "velocity": 105}, {"time": 83501, "pitch": 45, "duration": 480, "velocity": 120}, {"time": 83511, "pitch": 50, "duration": 480, "velocity": 105}, {"time": 83521, "pitch": 57, "duration": 480, "velocity": 110}, {"time": 83531, "pitch": 62, "duration": 480, "velocity": 115}, {"time": 83541, "pitch": 66, "duration": 480, "velocity": 120}, {"time": 83981, "pitch": 45, "duration": 400, "velocity": 120}, {"time": 83991, "pitch": 50, "duration": 380, "velocity": 105}, {"time": 84001, "pitch": 57, "duration": 360, "velocity": 110}, {"time": 84011, "pitch": 62, "duration": 340, "velocity": 115}, {"time": 84021, "pitch": 66, "duration": 320, "velocity": 120}, {"time": 84341, "pitch": 66, "duration": 159, "velocity": 110}, {"time": 84351, "pitch": 62, "duration": 139, "velocity": 105}, {"time": 84361, "pitch": 57, "duration": 119, "velocity": 100}, {"time": 84371, "pitch": 50, "duration": 99, "velocity": 95}, {"time": 84381, "pitch": 45, "duration": 79, "velocity": 110}, {"time": 84460, "pitch": 45, "duration": 280, "velocity": 120}, {"time": 84470, "pitch": 50, "duration": 260, "velocity": 105}, {"time": 84480, "pitch": 57, "duration": 240, "velocity": 110}, {"time": 84490, "pitch": 62, "duration": 220, "velocity": 115}, {"time": 84500, "pitch": 66, "duration": 200, "velocity": 120}, {"time": 84700, "pitch": 66, "duration": 280, "velocity": 110}, {"time": 84710, "pitch": 62, "duration": 260, "velocity": 105}, {"time": 84720, "pitch": 57, "duration": 240, "velocity": 100}, {"time": 84730, "pitch": 50, "duration": 220, "velocity": 95}, {"time": 84740, "pitch": 45, "duration": 200, "velocity": 110}, {"time": 84940, "pitch": 45, "duration": 162, "velocity": 110}, {"time": 84950, "pitch": 50, "duration": 142, "velocity": 95}, {"time": 84960, "pitch": 57, "duration": 122, "velocity": 100}, {"time": 84970, "pitch": 62, "duration": 101, "velocity": 105}, {"time": 84980, "pitch": 66, "duration": 81, "velocity": 110}, {"time": 85061, "pitch": 66, "duration": 162, "velocity": 105}, {"time": 85071, "pitch": 62, "duration": 142, "velocity": 100}, {"time": 85082, "pitch": 57, "duration": 121, "velocity": 95}, {"time": 85092, "pitch": 50, "duration": 101, "velocity": 90}, {"time": 85102, "pitch": 45, "duration": 81, "velocity": 105}, {"time": 85183, "pitch": 45, "duration": 222, "velocity": 110}, {"time": 85193, "pitch": 50, "duration": 212, "velocity": 95}, {"time": 85203, "pitch": 57, "duration": 202, "velocity": 100}, {"time": 85213, "pitch": 62, "duration": 192, "velocity": 105}, {"time": 85223, "pitch": 66, "duration": 182, "velocity": 110}, {"time": 85426, "pitch": 47, "duration": 479, "velocity": 110}, {"time": 85436, "pitch": 52, "duration": 479, "velocity": 95}, {"time": 85446, "pitch": 55, "duration": 479, "velocity": 100}, {"time": 85456, "pitch": 59, "duration": 479, "velocity": 105}, {"time": 85466, "pitch": 64, "duration": 479, "velocity": 110}, {"time": 85905, "pitch": 47, "duration": 400, "velocity": 110}, {"time": 85915, "pitch": 52, "duration": 380, "velocity": 95}, {"time": 85925, "pitch": 55, "duration": 360, "velocity": 100}, {"time": 85935, "pitch": 59, "duration": 340, "velocity": 105}, {"time": 85945, "pitch": 64, "duration": 320, "velocity": 110}, {"time": 86265, "pitch": 64, "duration": 160, "velocity": 105}, {"time": 86275, "pitch": 59, "duration": 140, "velocity": 100}, {"time": 86285, "pitch": 55, "duration": 120, "velocity": 95}, {"time": 86295, "pitch": 52, "duration": 100, "velocity": 90}, {"time": 86305, "pitch": 47, "duration": 80, "velocity": 105}, {"time": 86385, "pitch": 47, "duration": 160, "velocity": 110}, {"time": 86395, "pitch": 52, "duration": 140, "velocity": 95}, {"time": 86405, "pitch": 55, "duration": 120, "velocity": 100}, {"time": 86415, "pitch": 59, "duration": 100, "velocity": 105}, {"time": 86425, "pitch": 64, "duration": 80, "velocity": 110}, {"time": 86505, "pitch": 64, "duration": 160, "velocity": 105}, {"time": 86515, "pitch": 59, "duration": 140, "velocity": 100}, {"time": 86525, "pitch": 55, "duration": 120, "velocity": 95}, {"time": 86535, "pitch": 52, "duration": 100, "velocity": 90}, {"time": 86545, "pitch": 47, "duration": 80, "velocity": 105}, {"time": 86625, "pitch": 47, "duration": 240, "velocity": 110}, {"time": 86635, "pitch": 52, "duration": 240, "velocity": 95}, {"time": 86645, "pitch": 55, "duration": 240, "velocity": 100}, {"time": 86655, "pitch": 59, "duration": 240, "velocity": 105}, {"time": 86665, "pitch": 64, "duration": 240, "velocity": 110}, {"time": 86865, "pitch": 47, "duration": 280, "velocity": 110}, {"time": 86875, "pitch": 52, "duration": 260, "velocity": 95}, {"time": 86885, "pitch": 55, "duration": 240, "velocity": 100}, {"time": 86895, "pitch": 59, "duration": 220, "velocity": 105}, {"time": 86905, "pitch": 64, "duration": 200, "velocity": 110}, {"time": 87105, "pitch": 64, "duration": 279, "velocity": 100}, {"time": 87115, "pitch": 59, "duration": 259, "velocity": 95}, {"time": 87125, "pitch": 55, "duration": 239, "velocity": 90}, {"time": 87135, "pitch": 52, "duration": 219, "velocity": 85}, {"time": 87145, "pitch": 47, "duration": 199, "velocity": 100}, {"time": 87344, "pitch": 47, "duration": 400, "velocity": 105}, {"time": 87354, "pitch": 50, "duration": 380, "velocity": 90}, {"time": 87364, "pitch": 55, "duration": 360, "velocity": 95}, {"time": 87374, "pitch": 59, "duration": 340, "velocity": 100}, {"time": 87384, "pitch": 67, "duration": 320, "velocity": 105}, {"time": 87704, "pitch": 67, "duration": 160, "velocity": 85}, {"time": 87714, "pitch": 59, "duration": 140, "velocity": 80}, {"time": 87724, "pitch": 55, "duration": 120, "velocity": 75}, {"time": 87734, "pitch": 50, "duration": 100, "velocity": 70}, {"time": 87744, "pitch": 47, "duration": 80, "velocity": 85}, {"time": 87824, "pitch": 47, "duration": 240, "velocity": 110}, {"time": 87834, "pitch": 50, "duration": 240, "velocity": 95}, {"time": 87844, "pitch": 55, "duration": 240, "velocity": 100}, {"time": 87854, "pitch": 59, "duration": 240, "velocity": 105}, {"time": 87864, "pitch": 67, "duration": 240, "velocity": 110}, {"time": 88064, "pitch": 47, "duration": 160, "velocity": 100}, {"time": 88074, "pitch": 50, "duration": 140, "velocity": 85}, {"time": 88084, "pitch": 55, "duration": 120, "velocity": 90}, {"time": 88094, "pitch": 59, "duration": 100, "velocity": 95}, {"time": 88104, "pitch": 67, "duration": 80, "velocity": 100}, {"time": 88184, "pitch": 67, "duration": 240, "velocity": 105}, {"time": 88194, "pitch": 59, "duration": 240, "velocity": 100}, {"time": 88204, "pitch": 55, "duration": 240, "velocity": 95}, {"time": 88214, "pitch": 50, "duration": 240, "velocity": 90}, {"time": 88224, "pitch": 47, "duration": 240, "velocity": 105}, {"time": 88424, "pitch": 67, "duration": 160, "velocity": 100}, {"time": 88434, "pitch": 59, "duration": 140, "velocity": 95}, {"time": 88444, "pitch": 55, "duration": 120, "velocity": 90}, {"time": 88454, "pitch": 50, "duration": 100, "velocity": 85}, {"time": 88464, "pitch": 47, "duration": 80, "velocity": 100}, {"time": 88544, "pitch": 47, "duration": 239, "velocity": 105}, {"time": 88554, "pitch": 50, "duration": 239, "velocity": 90}, {"time": 88564, "pitch": 55, "duration": 239, "velocity": 95}, {"time": 88574, "pitch": 59, "duration": 239, "velocity": 100}, {"time": 88584, "pitch": 67, "duration": 239, "velocity": 105}, {"time": 88783, "pitch": 47, "duration": 280, "velocity": 110}, {"time": 88793, "pitch": 50, "duration": 260, "velocity": 95}, {"time": 88803, "pitch": 55, "duration": 240, "velocity": 100}, {"time": 88813, "pitch": 59, "duration": 220, "velocity": 105}, {"time": 88823, "pitch": 67, "duration": 200, "velocity": 110}, {"time": 89023, "pitch": 67, "duration": 280, "velocity": 100}, {"time": 89033, "pitch": 59, "duration": 260, "velocity": 95}, {"time": 89043, "pitch": 55, "duration": 240, "velocity": 90}, {"time": 89053, "pitch": 50, "duration": 220, "velocity": 85}, {"time": 89063, "pitch": 47, "duration": 200, "velocity": 100}, {"time": 89263, "pitch": 45, "duration": 480, "velocity": 110}, {"time": 89273, "pitch": 50, "duration": 480, "velocity": 95}, {"time": 89283, "pitch": 57, "duration": 480, "velocity": 100}, {"time": 89293, "pitch": 62, "duration": 480, "velocity": 105}, {"time": 89303, "pitch": 66, "duration": 480, "velocity": 110}, {"time": 89743, "pitch": 45, "duration": 399, "velocity": 110}, {"time": 89753, "pitch": 50, "duration": 379, "velocity": 95}, {"time": 89763, "pitch": 57, "duration": 359, "velocity": 100}, {"time": 89773, "pitch": 62, "duration": 339, "velocity": 105}, {"time": 89783, "pitch": 66, "duration": 319, "velocity": 110}, {"time": 90102, "pitch": 66, "duration": 160, "velocity": 100}, {"time": 90112, "pitch": 62, "duration": 140, "velocity": 95}, {"time": 90122, "pitch": 57, "duration": 120, "velocity": 90}, {"time": 90132, "pitch": 50, "duration": 100, "velocity": 85}, {"time": 90142, "pitch": 45, "duration": 80, "velocity": 100}, {"time": 90222, "pitch": 45, "duration": 240, "velocity": 110}, {"time": 90232, "pitch": 50, "duration": 240, "velocity": 95}, {"time": 90242, "pitch": 57, "duration": 240, "velocity": 100}, {"time": 90252, "pitch": 62, "duration": 240, "velocity": 105}, {"time": 90262, "pitch": 67, "duration": 240, "velocity": 110}, {"time": 90462, "pitch": 45, "duration": 160, "velocity": 100}, {"time": 90472, "pitch": 50, "duration": 140, "velocity": 85}, {"time": 90482, "pitch": 57, "duration": 120, "velocity": 90}, {"time": 90492, "pitch": 62, "duration": 100, "velocity": 95}, {"time": 90502, "pitch": 66, "duration": 80, "velocity": 100}, {"time": 90582, "pitch": 64, "duration": 240, "velocity": 105}, {"time": 90592, "pitch": 62, "duration": 240, "velocity": 100}, {"time": 90602, "pitch": 57, "duration": 240, "velocity": 95}, {"time": 90612, "pitch": 50, "duration": 240, "velocity": 90}, {"time": 90622, "pitch": 45, "duration": 240, "velocity": 105}, {"time": 90822, "pitch": 64, "duration": 160, "velocity": 100}, {"time": 90832, "pitch": 62, "duration": 140, "velocity": 95}, {"time": 90842, "pitch": 57, "duration": 120, "velocity": 90}, {"time": 90852, "pitch": 50, "duration": 100, "velocity": 85}, {"time": 90862, "pitch": 45, "duration": 80, "velocity": 100}, {"time": 90942, "pitch": 45, "duration": 240, "velocity": 105}, {"time": 90952, "pitch": 50, "duration": 240, "velocity": 90}, {"time": 90962, "pitch": 57, "duration": 240, "velocity": 95}, {"time": 90972, "pitch": 62, "duration": 240, "velocity": 100}, {"time": 90982, "pitch": 67, "duration": 240, "velocity": 105}, {"time": 91182, "pitch": 48, "duration": 399, "velocity": 120}, {"time": 91192, "pitch": 52, "duration": 379, "velocity": 105}, {"time": 91202, "pitch": 55, "duration": 359, "velocity": 110}, {"time": 91212, "pitch": 60, "duration": 339, "velocity": 115}, {"time": 91222, "pitch": 64, "duration": 319, "velocity": 120}, {"time": 91541, "pitch": 64, "duration": 160, "velocity": 100}, {"time": 91551, "pitch": 60, "duration": 140, "velocity": 95}, {"time": 91561, "pitch": 55, "duration": 120, "velocity": 90}, {"time": 91571, "pitch": 52, "duration": 100, "velocity": 85}, {"time": 91581, "pitch": 48, "duration": 80, "velocity": 100}, {"time": 91661, "pitch": 48, "duration": 400, "velocity": 120}, {"time": 91671, "pitch": 52, "duration": 380, "velocity": 105}, {"time": 91681, "pitch": 55, "duration": 360, "velocity": 110}, {"time": 91691, "pitch": 60, "duration": 340, "velocity": 115}, {"time": 91701, "pitch": 64, "duration": 320, "velocity": 120}, {"time": 92021, "pitch": 64, "duration": 160, "velocity": 100}, {"time": 92031, "pitch": 59, "duration": 140, "velocity": 95}, {"time": 92041, "pitch": 55, "duration": 120, "velocity": 90}, {"time": 92051, "pitch": 52, "duration": 100, "velocity": 85}, {"time": 92061, "pitch": 47, "duration": 80, "velocity": 100}, {"time": 92141, "pitch": 47, "duration": 480, "velocity": 120}, {"time": 92151, "pitch": 52, "duration": 480, "velocity": 105}, {"time": 92161, "pitch": 55, "duration": 480, "velocity": 110}, {"time": 92171, "pitch": 59, "duration": 480, "velocity": 115}, {"time": 92181, "pitch": 64, "duration": 480, "velocity": 120}, {"time": 92621, "pitch": 45, "duration": 159, "velocity": 110}, {"time": 92631, "pitch": 52, "duration": 139, "velocity": 95}, {"time": 92641, "pitch": 55, "duration": 119, "velocity": 100}, {"time": 92651, "pitch": 60, "duration": 99, "velocity": 105}, {"time": 92661, "pitch": 64, "duration": 79, "velocity": 110}, {"time": 92740, "pitch": 64, "duration": 160, "velocity": 105}, {"time": 92750, "pitch": 60, "duration": 140, "velocity": 100}, {"time": 92760, "pitch": 55, "duration": 120, "velocity": 95}, {"time": 92770, "pitch": 52, "duration": 100, "velocity": 90}, {"time": 92780, "pitch": 45, "duration": 80, "velocity": 105}, {"time": 92860, "pitch": 45, "duration": 220, "velocity": 110}, {"time": 92870, "pitch": 52, "duration": 210, "velocity": 95}, {"time": 92880, "pitch": 55, "duration": 200, "velocity": 100}, {"time": 92890, "pitch": 60, "duration": 190, "velocity": 105}, {"time": 92900, "pitch": 64, "duration": 180, "velocity": 110}, {"time": 93100, "pitch": 45, "duration": 486, "velocity": 120}, {"time": 93110, "pitch": 50, "duration": 486, "velocity": 105}, {"time": 93120, "pitch": 57, "duration": 486, "velocity": 110}, {"time": 93130, "pitch": 62, "duration": 486, "velocity": 115}, {"time": 93140, "pitch": 66, "duration": 486, "velocity": 120}, {"time": 93586, "pitch": 45, "duration": 400, "velocity": 120}, {"time": 93596, "pitch": 50, "duration": 380, "velocity": 105}, {"time": 93606, "pitch": 57, "duration": 360, "velocity": 110}, {"time": 93616, "pitch": 62, "duration": 340, "velocity": 115}, {"time": 93626, "pitch": 66, "duration": 320, "velocity": 120}, {"time": 93946, "pitch": 66, "duration": 160, "velocity": 110}, {"time": 93956, "pitch": 62, "duration": 140, "velocity": 105}, {"time": 93966, "pitch": 57, "duration": 120, "velocity": 100}, {"time": 93976, "pitch": 50, "duration": 100, "velocity": 95}, {"time": 93986, "pitch": 45, "duration": 80, "velocity": 110}, {"time": 94066, "pitch": 45, "duration": 159, "velocity": 120}, {"time": 94076, "pitch": 50, "duration": 149, "velocity": 105}, {"time": 94086, "pitch": 57, "duration": 139, "velocity": 110}, {"time": 94096, "pitch": 62, "duration": 129, "velocity": 115}, {"time": 94106, "pitch": 67, "duration": 119, "velocity": 120}, {"time": 94305, "pitch": 66, "duration": 480, "velocity": 120}, {"time": 94315, "pitch": 62, "duration": 480, "velocity": 115}, {"time": 94325, "pitch": 57, "duration": 480, "velocity": 110}, {"time": 94335, "pitch": 50, "duration": 480, "velocity": 105}, {"time": 94345, "pitch": 45, "duration": 480, "velocity": 120}, {"time": 94785, "pitch": 66, "duration": 220, "velocity": 110}, {"time": 94795, "pitch": 62, "duration": 210, "velocity": 105}, {"time": 94805, "pitch": 57, "duration": 200, "velocity": 100}, {"time": 94815, "pitch": 50, "duration": 190, "velocity": 95}, {"time": 94825, "pitch": 45, "duration": 180, "velocity": 110}, {"time": 95025, "pitch": 48, "duration": 400, "velocity": 120}, {"time": 95035, "pitch": 52, "duration": 380, "velocity": 105}, {"time": 95045, "pitch": 55, "duration": 360, "velocity": 110}, {"time": 95055, "pitch": 60, "duration": 340, "velocity": 115}, {"time": 95065, "pitch": 64, "duration": 320, "velocity": 120}, {"time": 95385, "pitch": 64, "duration": 159, "velocity": 100}, {"time": 95395, "pitch": 60, "duration": 139, "velocity": 95}, {"time": 95405, "pitch": 55, "duration": 119, "velocity": 90}, {"time": 95415, "pitch": 52, "duration": 100, "velocity": 85}, {"time": 95425, "pitch": 48, "duration": 80, "velocity": 100}, {"time": 95505, "pitch": 48, "duration": 399, "velocity": 120}, {"time": 95515, "pitch": 52, "duration": 379, "velocity": 105}, {"time": 95524, "pitch": 55, "duration": 360, "velocity": 110}, {"time": 95534, "pitch": 60, "duration": 340, "velocity": 115}, {"time": 95544, "pitch": 64, "duration": 320, "velocity": 120}, {"time": 95864, "pitch": 64, "duration": 160, "velocity": 100}, {"time": 95874, "pitch": 59, "duration": 140, "velocity": 95}, {"time": 95884, "pitch": 55, "duration": 120, "velocity": 90}, {"time": 95894, "pitch": 52, "duration": 100, "velocity": 85}, {"time": 95904, "pitch": 47, "duration": 80, "velocity": 100}, {"time": 95984, "pitch": 47, "duration": 480, "velocity": 120}, {"time": 95994, "pitch": 52, "duration": 480, "velocity": 105}, {"time": 96004, "pitch": 55, "duration": 480, "velocity": 110}, {"time": 96014, "pitch": 59, "duration": 480, "velocity": 115}, {"time": 96024, "pitch": 64, "duration": 480, "velocity": 120}, {"time": 96464, "pitch": 45, "duration": 160, "velocity": 110}, {"time": 96474, "pitch": 52, "duration": 140, "velocity": 95}, {"time": 96484, "pitch": 55, "duration": 120, "velocity": 100}, {"time": 96494, "pitch": 60, "duration": 100, "velocity": 105}, {"time": 96504, "pitch": 64, "duration": 80, "velocity": 110}, {"time": 96584, "pitch": 64, "duration": 160, "velocity": 105}, {"time": 96594, "pitch": 60, "duration": 140, "velocity": 100}, {"time": 96604, "pitch": 55, "duration": 120, "velocity": 95}, {"time": 96614, "pitch": 52, "duration": 100, "velocity": 90}, {"time": 96624, "pitch": 45, "duration": 80, "velocity": 105}, {"time": 96704, "pitch": 45, "duration": 219, "velocity": 110}, {"time": 96714, "pitch": 52, "duration": 209, "velocity": 95}, {"time": 96724, "pitch": 55, "duration": 199, "velocity": 100}, {"time": 96734, "pitch": 60, "duration": 189, "velocity": 105}, {"time": 96744, "pitch": 64, "duration": 179, "velocity": 110}, {"time": 96943, "pitch": 45, "duration": 480, "velocity": 120}, {"time": 96953, "pitch": 50, "duration": 480, "velocity": 105}, {"time": 96963, "pitch": 57, "duration": 480, "velocity": 110}, {"time": 96973, "pitch": 62, "duration": 480, "velocity": 115}, {"time": 96983, "pitch": 66, "duration": 480, "velocity": 120}, {"time": 97423, "pitch": 45, "duration": 400, "velocity": 120}, {"time": 97433, "pitch": 50, "duration": 380, "velocity": 105}, {"time": 97443, "pitch": 57, "duration": 360, "velocity": 110}, {"time": 97453, "pitch": 62, "duration": 340, "velocity": 115}, {"time": 97463, "pitch": 66, "duration": 320, "velocity": 120}, {"time": 97783, "pitch": 66, "duration": 160, "velocity": 110}, {"time": 97793, "pitch": 62, "duration": 140, "velocity": 105}, {"time": 97803, "pitch": 57, "duration": 120, "velocity": 100}, {"time": 97813, "pitch": 50, "duration": 100, "velocity": 95}, {"time": 97823, "pitch": 45, "duration": 80, "velocity": 110}, {"time": 97903, "pitch": 45, "duration": 160, "velocity": 120}, {"time": 97913, "pitch": 50, "duration": 150, "velocity": 105}, {"time": 97923, "pitch": 57, "duration": 140, "velocity": 110}, {"time": 97933, "pitch": 62, "duration": 130, "velocity": 115}, {"time": 97943, "pitch": 67, "duration": 120, "velocity": 120}, {"time": 98143, "pitch": 66, "duration": 479, "velocity": 120}, {"time": 98153, "pitch": 62, "duration": 479, "velocity": 115}, {"time": 98163, "pitch": 57, "duration": 479, "velocity": 110}, {"time": 98173, "pitch": 50, "duration": 479, "velocity": 105}, {"time": 98183, "pitch": 45, "duration": 479, "velocity": 120}, {"time": 98622, "pitch": 66, "duration": 220, "velocity": 110}, {"time": 98632, "pitch": 62, "duration": 210, "velocity": 105}, {"time": 98642, "pitch": 57, "duration": 200, "velocity": 100}, {"time": 98652, "pitch": 50, "duration": 190, "velocity": 95}, {"time": 98662, "pitch": 45, "duration": 180, "velocity": 110}, {"time": 98862, "pitch": 48, "duration": 400, "velocity": 120}, {"time": 98872, "pitch": 52, "duration": 380, "velocity": 105}, {"time": 98882, "pitch": 55, "duration": 360, "velocity": 110}, {"time": 98892, "pitch": 60, "duration": 340, "velocity": 115}, {"time": 98902, "pitch": 64, "duration": 320, "velocity": 120}, {"time": 99222, "pitch": 64, "duration": 160, "velocity": 100}, {"time": 99232, "pitch": 60, "duration": 140, "velocity": 95}, {"time": 99242, "pitch": 55, "duration": 120, "velocity": 90}, {"time": 99252, "pitch": 52, "duration": 100, "velocity": 85}, {"time": 99262, "pitch": 48, "duration": 80, "velocity": 100}, {"time": 99342, "pitch": 48, "duration": 399, "velocity": 120}, {"time": 99352, "pitch": 52, "duration": 379, "velocity": 105}, {"time": 99362, "pitch": 55, "duration": 359, "velocity": 110}, {"time": 99372, "pitch": 60, "duration": 339, "velocity": 115}, {"time": 99382, "pitch": 64, "duration": 319, "velocity": 120}, {"time": 99701, "pitch": 64, "duration": 160, "velocity": 100}, {"time": 99711, "pitch": 59, "duration": 140, "velocity": 95}, {"time": 99721, "pitch": 55, "duration": 120, "velocity": 90}, {"time": 99731, "pitch": 52, "duration": 100, "velocity": 85}, {"time": 99741, "pitch": 47, "duration": 80, "velocity": 100}, {"time": 99821, "pitch": 47, "duration": 480, "velocity": 120}, {"time": 99831, "pitch": 52, "duration": 480, "velocity": 105}, {"time": 99841, "pitch": 55, "duration": 480, "velocity": 110}, {"time": 99851, "pitch": 59, "duration": 480, "velocity": 115}, {"time": 99861, "pitch": 64, "duration": 480, "velocity": 120}, {"time": 100301, "pitch": 45, "duration": 160, "velocity": 110}, {"time": 100311, "pitch": 52, "duration": 140, "velocity": 95}, {"time": 100321, "pitch": 55, "duration": 120, "velocity": 100}, {"time": 100331, "pitch": 60, "duration": 100, "velocity": 105}, {"time": 100341, "pitch": 64, "duration": 80, "velocity": 110}, {"time": 100421, "pitch": 64, "duration": 160, "velocity": 105}, {"time": 100431, "pitch": 60, "duration": 140, "velocity": 100}, {"time": 100441, "pitch": 55, "duration": 120, "velocity": 95}, {"time": 100451, "pitch": 52, "duration": 100, "velocity": 90}, {"time": 100461, "pitch": 45, "duration": 80, "velocity": 105}, {"time": 100541, "pitch": 45, "duration": 220, "velocity": 110}, {"time": 100551, "pitch": 52, "duration": 210, "velocity": 95}, {"time": 100561, "pitch": 55, "duration": 200, "velocity": 100}, {"time": 100571, "pitch": 60, "duration": 190, "velocity": 105}, {"time": 100581, "pitch": 64, "duration": 180, "velocity": 110}, {"time": 100781, "pitch": 45, "duration": 479, "velocity": 120}, {"time": 100791, "pitch": 50, "duration": 479, "velocity": 105}, {"time": 100801, "pitch": 57, "duration": 479, "velocity": 110}, {"time": 100811, "pitch": 62, "duration": 479, "velocity": 115}, {"time": 100821, "pitch": 66, "duration": 480, "velocity": 120}, {"time": 101260, "pitch": 45, "duration": 405, "velocity": 120}, {"time": 101270, "pitch": 50, "duration": 385, "velocity": 105}, {"time": 101280, "pitch": 57, "duration": 365, "velocity": 110}, {"time": 101290, "pitch": 62, "duration": 345, "velocity": 115}, {"time": 101301, "pitch": 66, "duration": 323, "velocity": 120}, {"time": 101624, "pitch": 66, "duration": 162, "velocity": 110}, {"time": 101635, "pitch": 62, "duration": 141, "velocity": 105}, {"time": 101645, "pitch": 57, "duration": 121, "velocity": 100}, {"time": 101655, "pitch": 50, "duration": 101, "velocity": 95}, {"time": 101665, "pitch": 45, "duration": 81, "velocity": 110}, {"time": 101746, "pitch": 45, "duration": 160, "velocity": 120}, {"time": 101756, "pitch": 50, "duration": 150, "velocity": 105}, {"time": 101766, "pitch": 57, "duration": 140, "velocity": 110}, {"time": 101776, "pitch": 62, "duration": 130, "velocity": 115}, {"time": 101786, "pitch": 67, "duration": 120, "velocity": 120}, {"time": 101986, "pitch": 66, "duration": 479, "velocity": 120}, {"time": 101996, "pitch": 62, "duration": 479, "velocity": 115}, {"time": 102006, "pitch": 57, "duration": 479, "velocity": 110}, {"time": 102016, "pitch": 50, "duration": 479, "velocity": 105}, {"time": 102026, "pitch": 45, "duration": 479, "velocity": 120}, {"time": 102465, "pitch": 66, "duration": 220, "velocity": 110}, {"time": 102475, "pitch": 62, "duration": 210, "velocity": 105}, {"time": 102485, "pitch": 57, "duration": 200, "velocity": 100}, {"time": 102495, "pitch": 50, "duration": 190, "velocity": 95}, {"time": 102505, "pitch": 45, "duration": 180, "velocity": 110}, {"time": 102705, "pitch": 48, "duration": 400, "velocity": 120}, {"time": 102715, "pitch": 52, "duration": 380, "velocity": 105}, {"time": 102725, "pitch": 55, "duration": 360, "velocity": 110}, {"time": 102735, "pitch": 60, "duration": 340, "velocity": 115}, {"time": 102745, "pitch": 64, "duration": 320, "velocity": 120}, {"time": 103065, "pitch": 64, "duration": 160, "velocity": 100}, {"time": 103075, "pitch": 60, "duration": 140, "velocity": 95}, {"time": 103085, "pitch": 55, "duration": 120, "velocity": 90}, {"time": 103095, "pitch": 52, "duration": 100, "velocity": 85}, {"time": 103105, "pitch": 48, "duration": 80, "velocity": 100}, {"time": 103185, "pitch": 48, "duration": 400, "velocity": 120}, {"time": 103195, "pitch": 52, "duration": 380, "velocity": 105}, {"time": 103205, "pitch": 55, "duration": 360, "velocity": 110}, {"time": 103215, "pitch": 60, "duration": 340, "velocity": 115}, {"time": 103225, "pitch": 64, "duration": 320, "velocity": 120}, {"time": 103545, "pitch": 64, "duration": 160, "velocity": 100}, {"time": 103555, "pitch": 59, "duration": 140, "velocity": 95}, {"time": 103565, "pitch": 55, "duration": 120, "velocity": 90}, {"time": 103575, "pitch": 52, "duration": 100, "velocity": 85}, {"time": 103585, "pitch": 47, "duration": 80, "velocity": 100}, {"time": 103665, "pitch": 47, "duration": 479, "velocity": 120}, {"time": 103675, "pitch": 52, "duration": 479, "velocity": 105}, {"time": 103685, "pitch": 55, "duration": 479, "velocity": 110}, {"time": 103695, "pitch": 59, "duration": 479, "velocity": 115}, {"time": 103705, "pitch": 64, "duration": 479, "velocity": 120}, {"time": 104144, "pitch": 45, "duration": 160, "velocity": 110}, {"time": 104154, "pitch": 52, "duration": 140, "velocity": 95}, {"time": 104164, "pitch": 55, "duration": 120, "velocity": 100}, {"time": 104174, "pitch": 60, "duration": 100, "velocity": 105}, {"time": 104184, "pitch": 64, "duration": 80, "velocity": 110}, {"time": 104264, "pitch": 64, "duration": 160, "velocity": 105}, {"time": 104274, "pitch": 60, "duration": 140, "velocity": 100}, {"time": 104284, "pitch": 55, "duration": 120, "velocity": 95}, {"time": 104294, "pitch": 52, "duration": 100, "velocity": 90}, {"time": 104304, "pitch": 45, "duration": 80, "velocity": 105}, {"time": 104384, "pitch": 45, "duration": 220, "velocity": 110}, {"time": 104394, "pitch": 52, "duration": 210, "velocity": 95}, {"time": 104404, "pitch": 55, "duration": 200, "velocity": 100}, {"time": 104414, "pitch": 60, "duration": 190, "velocity": 105}, {"time": 104424, "pitch": 64, "duration": 180, "velocity": 110}, {"time": 104624, "pitch": 45, "duration": 480, "velocity": 120}, {"time": 104634, "pitch": 50, "duration": 480, "velocity": 105}, {"time": 104644, "pitch": 57, "duration": 480, "velocity": 110}, {"time": 104654, "pitch": 62, "duration": 480, "velocity": 115}, {"time": 104664, "pitch": 66, "duration": 480, "velocity": 120}, {"time": 105104, "pitch": 45, "duration": 399, "velocity": 120}, {"time": 105114, "pitch": 50, "duration": 379, "velocity": 105}, {"time": 105124, "pitch": 57, "duration": 359, "velocity": 110}, {"time": 105134, "pitch": 62, "duration": 339, "velocity": 115}, {"time": 105144, "pitch": 66, "duration": 319, "velocity": 120}, {"time": 105463, "pitch": 66, "duration": 160, "velocity": 110}, {"time": 105473, "pitch": 62, "duration": 140, "velocity": 105}, {"time": 105483, "pitch": 57, "duration": 120, "velocity": 100}, {"time": 105493, "pitch": 50, "duration": 100, "velocity": 95}, {"time": 105503, "pitch": 45, "duration": 80, "velocity": 110}, {"time": 105583, "pitch": 45, "duration": 160, "velocity": 120}, {"time": 105593, "pitch": 50, "duration": 150, "velocity": 105}, {"time": 105603, "pitch": 57, "duration": 140, "velocity": 110}, {"time": 105613, "pitch": 62, "duration": 130, "velocity": 115}, {"time": 105623, "pitch": 67, "duration": 120, "velocity": 120}, {"time": 105823, "pitch": 66, "duration": 480, "velocity": 120}, {"time": 105833, "pitch": 62, "duration": 480, "velocity": 115}, {"time": 105843, "pitch": 57, "duration": 480, "velocity": 110}, {"time": 105853, "pitch": 50, "duration": 480, "velocity": 105}, {"time": 105863, "pitch": 45, "duration": 480, "velocity": 120}, {"time": 106303, "pitch": 66, "duration": 220, "velocity": 110}, {"time": 106313, "pitch": 62, "duration": 210, "velocity": 105}, {"time": 106323, "pitch": 57, "duration": 200, "velocity": 100}, {"time": 106333, "pitch": 50, "duration": 190, "velocity": 95}, {"time": 106343, "pitch": 45, "duration": 180, "velocity": 110}, {"time": 106542, "pitch": 45, "duration": 480, "velocity": 110}, {"time": 106552, "pitch": 50, "duration": 480, "velocity": 95}, {"time": 106562, "pitch": 57, "duration": 480, "velocity": 100}, {"time": 106572, "pitch": 62, "duration": 480, "velocity": 105}, {"time": 106582, "pitch": 66, "duration": 480, "velocity": 110}, {"time": 107022, "pitch": 45, "duration": 400, "velocity": 110}, {"time": 107032, "pitch": 50, "duration": 380, "velocity": 95}, {"time": 107042, "pitch": 57, "duration": 360, "velocity": 100}, {"time": 107052, "pitch": 62, "duration": 340, "velocity": 105}, {"time": 107062, "pitch": 66, "duration": 320, "velocity": 110}, {"time": 107382, "pitch": 66, "duration": 160, "velocity": 100}, {"time": 107392, "pitch": 62, "duration": 140, "velocity": 95}, {"time": 107402, "pitch": 57, "duration": 120, "velocity": 90}, {"time": 107412, "pitch": 50, "duration": 100, "velocity": 85}, {"time": 107422, "pitch": 45, "duration": 80, "velocity": 100}, {"time": 107502, "pitch": 45, "duration": 240, "velocity": 110}, {"time": 107512, "pitch": 50, "duration": 240, "velocity": 95}, {"time": 107522, "pitch": 57, "duration": 240, "velocity": 100}, {"time": 107532, "pitch": 62, "duration": 240, "velocity": 105}, {"time": 107542, "pitch": 67, "duration": 240, "velocity": 110}, {"time": 107742, "pitch": 45, "duration": 159, "velocity": 100}, {"time": 107752, "pitch": 50, "duration": 140, "velocity": 85}, {"time": 107762, "pitch": 57, "duration": 120, "velocity": 90}, {"time": 107772, "pitch": 62, "duration": 100, "velocity": 95}, {"time": 107782, "pitch": 66, "duration": 80, "velocity": 100}, {"time": 107862, "pitch": 64, "duration": 239, "velocity": 105}, {"time": 107872, "pitch": 62, "duration": 239, "velocity": 100}, {"time": 107882, "pitch": 57, "duration": 239, "velocity": 95}, {"time": 107892, "pitch": 50, "duration": 239, "velocity": 90}, {"time": 107901, "pitch": 45, "duration": 240, "velocity": 105}, {"time": 108101, "pitch": 64, "duration": 160, "velocity": 100}, {"time": 108111, "pitch": 62, "duration": 140, "velocity": 95}, {"time": 108121, "pitch": 57, "duration": 120, "velocity": 90}, {"time": 108131, "pitch": 50, "duration": 100, "velocity": 85}, {"time": 108141, "pitch": 45, "duration": 80, "velocity": 100}, {"time": 108221, "pitch": 45, "duration": 240, "velocity": 105}, {"time": 108231, "pitch": 50, "duration": 240, "velocity": 90}, {"time": 108241, "pitch": 57, "duration": 240, "velocity": 95}, {"time": 108251, "pitch": 62, "duration": 240, "velocity": 100}, {"time": 108261, "pitch": 67, "duration": 240, "velocity": 105}, {"time": 108461, "pitch": 45, "duration": 1904, "velocity": 120}, {"time": 108481, "pitch": 50, "duration": 1884, "velocity": 105}, {"time": 108501, "pitch": 57, "duration": 1864, "velocity": 110}, {"time": 108521, "pitch": 62, "duration": 1844, "velocity": 115}, {"time": 108541, "pitch": 66, "duration": 1824, "velocity": 120}, {"time": 110386, "pitch": 47, "duration": 479, "velocity": 110}, {"time": 110396, "pitch": 52, "duration": 479, "velocity": 95}, {"time": 110406, "pitch": 56, "duration": 479, "velocity": 100}, {"time": 110416, "pitch": 59, "duration": 479, "velocity": 105}, {"time": 110426, "pitch": 64, "duration": 479, "velocity": 110}, {"time": 110865, "pitch": 47, "duration": 400, "velocity": 110}, {"time": 110875, "pitch": 52, "duration": 380, "velocity": 95}, {"time": 110885, "pitch": 56, "duration": 360, "velocity": 100}, {"time": 110895, "pitch": 59, "duration": 340, "velocity": 105}, {"time": 110905, "pitch": 64, "duration": 320, "velocity": 110}, {"time": 111225, "pitch": 64, "duration": 160, "velocity": 105}, {"time": 111235, "pitch": 59, "duration": 140, "velocity": 100}, {"time": 111245, "pitch": 56, "duration": 120, "velocity": 95}, {"time": 111255, "pitch": 52, "duration": 100, "velocity": 90}, {"time": 111265, "pitch": 47, "duration": 80, "velocity": 105}, {"time": 111345, "pitch": 47, "duration": 160, "velocity": 110}, {"time": 111355, "pitch": 52, "duration": 140, "velocity": 95}, {"time": 111365, "pitch": 56, "duration": 120, "velocity": 100}, {"time": 111375, "pitch": 59, "duration": 100, "velocity": 105}, {"time": 111385, "pitch": 64, "duration": 80, "velocity": 110}, {"time": 111465, "pitch": 64, "duration": 160, "velocity": 105}, {"time": 111475, "pitch": 59, "duration": 140, "velocity": 100}, {"time": 111485, "pitch": 56, "duration": 120, "velocity": 95}, {"time": 111495, "pitch": 52, "duration": 100, "velocity": 90}, {"time": 111505, "pitch": 47, "duration": 80, "velocity": 105}, {"time": 111585, "pitch": 47, "duration": 240, "velocity": 110}, {"time": 111595, "pitch": 52, "duration": 240, "velocity": 95}, {"time": 111605, "pitch": 56, "duration": 240, "velocity": 100}, {"time": 111615, "pitch": 59, "duration": 240, "velocity": 105}, {"time": 111625, "pitch": 64, "duration": 240, "velocity": 110}, {"time": 111825, "pitch": 47, "duration": 279, "velocity": 110}, {"time": 111835, "pitch": 52, "duration": 260, "velocity": 95}, {"time": 111845, "pitch": 56, "duration": 240, "velocity": 100}, {"time": 111855, "pitch": 59, "duration": 220, "velocity": 105}, {"time": 111865, "pitch": 64, "duration": 200, "velocity": 110}, {"time": 112065, "pitch": 64, "duration": 279, "velocity": 100}, {"time": 112075, "pitch": 59, "duration": 259, "velocity": 95}, {"time": 112085, "pitch": 56, "duration": 239, "velocity": 90}, {"time": 112095, "pitch": 52, "duration": 219, "velocity": 85}, {"time": 112104, "pitch": 47, "duration": 200, "velocity": 100}, {"time": 112304, "pitch": 47, "duration": 400, "velocity": 105}, {"time": 112314, "pitch": 50, "duration": 380, "velocity": 90}, {"time": 112324, "pitch": 55, "duration": 360, "velocity": 95}, {"time": 112334, "pitch": 59, "duration": 340, "velocity": 100}, {"time": 112344, "pitch": 67, "duration": 320, "velocity": 105}, {"time": 112664, "pitch": 67, "duration": 160, "velocity": 85}, {"time": 112674, "pitch": 59, "duration": 140, "velocity": 80}, {"time": 112684, "pitch": 55, "duration": 120, "velocity": 75}, {"time": 112694, "pitch": 50, "duration": 100, "velocity": 70}, {"time": 112704, "pitch": 47, "duration": 80, "velocity": 85}, {"time": 112784, "pitch": 47, "duration": 240, "velocity": 110}, {"time": 112794, "pitch": 50, "duration": 240, "velocity": 95}, {"time": 112804, "pitch": 55, "duration": 240, "velocity": 100}, {"time": 112814, "pitch": 59, "duration": 240, "velocity": 105}, {"time": 112824, "pitch": 67, "duration": 240, "velocity": 110}, {"time": 113024, "pitch": 47, "duration": 160, "velocity": 100}, {"time": 113034, "pitch": 50, "duration": 140, "velocity": 85}, {"time": 113044, "pitch": 55, "duration": 120, "velocity": 90}, {"time": 113054, "pitch": 59, "duration": 100, "velocity": 95}, {"time": 113064, "pitch": 67, "duration": 80, "velocity": 100}, {"time": 113144, "pitch": 67, "duration": 240, "velocity": 105}, {"time": 113154, "pitch": 59, "duration": 240, "velocity": 100}, {"time": 113164, "pitch": 55, "duration": 240, "velocity": 95}, {"time": 113174, "pitch": 50, "duration": 240, "velocity": 90}, {"time": 113184, "pitch": 47, "duration": 240, "velocity": 105}, {"time": 113384, "pitch": 67, "duration": 159, "velocity": 100}, {"time": 113394, "pitch": 59, "duration": 139, "velocity": 95}, {"time": 113404, "pitch": 55, "duration": 119, "velocity": 90}, {"time": 113414, "pitch": 50, "duration": 99, "velocity": 85}, {"time": 113424, "pitch": 47, "duration": 79, "velocity": 100}, {"time": 113503, "pitch": 47, "duration": 240, "velocity": 105}, {"time": 113513, "pitch": 50, "duration": 240, "velocity": 90}, {"time": 113523, "pitch": 55, "duration": 240, "velocity": 95}, {"time": 113533, "pitch": 59, "duration": 240, "velocity": 100}, {"time": 113543, "pitch": 67, "duration": 240, "velocity": 105}, {"time": 113743, "pitch": 47, "duration": 280, "velocity": 110}, {"time": 113753, "pitch": 50, "duration": 260, "velocity": 95}, {"time": 113763, "pitch": 55, "duration": 240, "velocity": 100}, {"time": 113773, "pitch": 59, "duration": 220, "velocity": 105}, {"time": 113783, "pitch": 67, "duration": 200, "velocity": 110}, {"time": 113983, "pitch": 67, "duration": 280, "velocity": 100}, {"time": 113993, "pitch": 59, "duration": 260, "velocity": 95}, {"time": 114003, "pitch": 55, "duration": 240, "velocity": 90}, {"time": 114013, "pitch": 50, "duration": 220, "velocity": 85}, {"time": 114023, "pitch": 47, "duration": 200, "velocity": 100}, {"time": 114223, "pitch": 45, "duration": 480, "velocity": 110}, {"time": 114233, "pitch": 50, "duration": 480, "velocity": 95}, {"time": 114243, "pitch": 57, "duration": 480, "velocity": 100}, {"time": 114253, "pitch": 62, "duration": 480, "velocity": 105}, {"time": 114263, "pitch": 66, "duration": 480, "velocity": 110}, {"time": 114703, "pitch": 45, "duration": 399, "velocity": 110}, {"time": 114713, "pitch": 50, "duration": 379, "velocity": 95}, {"time": 114723, "pitch": 57, "duration": 359, "velocity": 100}, {"time": 114733, "pitch": 62, "duration": 339, "velocity": 105}, {"time": 114743, "pitch": 66, "duration": 319, "velocity": 110}, {"time": 115062, "pitch": 66, "duration": 160, "velocity": 100}, {"time": 115072, "pitch": 62, "duration": 140, "velocity": 95}, {"time": 115082, "pitch": 57, "duration": 120, "velocity": 90}, {"time": 115092, "pitch": 50, "duration": 100, "velocity": 85}, {"time": 115102, "pitch": 45, "duration": 80, "velocity": 100}, {"time": 115182, "pitch": 45, "duration": 240, "velocity": 110}, {"time": 115192, "pitch": 50, "duration": 240, "velocity": 95}, {"time": 115202, "pitch": 57, "duration": 240, "velocity": 100}, {"time": 115212, "pitch": 62, "duration": 240, "velocity": 105}, {"time": 115222, "pitch": 67, "duration": 240, "velocity": 110}, {"time": 115422, "pitch": 45, "duration": 160, "velocity": 100}, {"time": 115432, "pitch": 50, "duration": 140, "velocity": 85}, {"time": 115442, "pitch": 57, "duration": 120, "velocity": 90}, {"time": 115452, "pitch": 62, "duration": 100, "velocity": 95}, {"time": 115462, "pitch": 66, "duration": 80, "velocity": 100}, {"time": 115542, "pitch": 64, "duration": 240, "velocity": 105}, {"time": 115552, "pitch": 62, "duration": 240, "velocity": 100}, {"time": 115562, "pitch": 57, "duration": 240, "velocity": 95}, {"time": 115572, "pitch": 50, "duration": 240, "velocity": 90}, {"time": 115582, "pitch": 45, "duration": 240, "velocity": 105}, {"time": 115782, "pitch": 64, "duration": 160, "velocity": 100}, {"time": 115792, "pitch": 62, "duration": 140, "velocity": 95}, {"time": 115802, "pitch": 57, "duration": 120, "velocity": 90}, {"time": 115812, "pitch": 50, "duration": 100, "velocity": 85}, {"time": 115822, "pitch": 45, "duration": 80, "velocity": 100}, {"time": 115902, "pitch": 45, "duration": 240, "velocity": 105}, {"time": 115912, "pitch": 50, "duration": 240, "velocity": 90}, {"time": 115922, "pitch": 57, "duration": 240, "velocity": 95}, {"time": 115932, "pitch": 62, "duration": 240, "velocity": 100}, {"time": 115942, "pitch": 67, "duration": 240, "velocity": 105}, {"time": 116142, "pitch": 45, "duration": 479, "velocity": 110}, {"time": 116152, "pitch": 50, "duration": 479, "velocity": 95}, {"time": 116162, "pitch": 57, "duration": 479, "velocity": 100}, {"time": 116172, "pitch": 62, "duration": 479, "velocity": 105}, {"time": 116182, "pitch": 66, "duration": 479, "velocity": 110}, {"time": 116621, "pitch": 45, "duration": 400, "velocity": 110}, {"time": 116631, "pitch": 50, "duration": 380, "velocity": 95}, {"time": 116641, "pitch": 57, "duration": 360, "velocity": 100}, {"time": 116651, "pitch": 62, "duration": 340, "velocity": 105}, {"time": 116661, "pitch": 66, "duration": 320, "velocity": 110}, {"time": 116981, "pitch": 66, "duration": 160, "velocity": 100}, {"time": 116991, "pitch": 62, "duration": 140, "velocity": 95}, {"time": 117001, "pitch": 57, "duration": 120, "velocity": 90}, {"time": 117011, "pitch": 50, "duration": 100, "velocity": 85}, {"time": 117021, "pitch": 45, "duration": 80, "velocity": 100}, {"time": 117101, "pitch": 45, "duration": 240, "velocity": 110}, {"time": 117111, "pitch": 50, "duration": 240, "velocity": 95}, {"time": 117121, "pitch": 57, "duration": 240, "velocity": 100}, {"time": 117131, "pitch": 62, "duration": 240, "velocity": 105}, {"time": 117141, "pitch": 67, "duration": 240, "velocity": 110}, {"time": 117341, "pitch": 45, "duration": 160, "velocity": 100}, {"time": 117351, "pitch": 50, "duration": 140, "velocity": 85}, {"time": 117361, "pitch": 57, "duration": 120, "velocity": 90}, {"time": 117371, "pitch": 62, "duration": 100, "velocity": 95}, {"time": 117381, "pitch": 66, "duration": 80, "velocity": 100}, {"time": 117461, "pitch": 64, "duration": 239, "velocity": 105}, {"time": 117471, "pitch": 62, "duration": 239, "velocity": 100}, {"time": 117481, "pitch": 57, "duration": 239, "velocity": 95}, {"time": 117491, "pitch": 50, "duration": 239, "velocity": 90}, {"time": 117501, "pitch": 45, "duration": 239, "velocity": 105}, {"time": 117700, "pitch": 64, "duration": 160, "velocity": 100}, {"time": 117710, "pitch": 62, "duration": 140, "velocity": 95}, {"time": 117720, "pitch": 57, "duration": 120, "velocity": 90}, {"time": 117730, "pitch": 50, "duration": 100, "velocity": 85}, {"time": 117740, "pitch": 45, "duration": 80, "velocity": 100}, {"time": 117820, "pitch": 45, "duration": 240, "velocity": 105}, {"time": 117830, "pitch": 50, "duration": 240, "velocity": 90}, {"time": 117840, "pitch": 57, "duration": 240, "velocity": 95}, {"time": 117850, "pitch": 62, "duration": 240, "velocity": 100}, {"time": 117860, "pitch": 67, "duration": 240, "velocity": 105}, {"time": 118060, "pitch": 47, "duration": 486, "velocity": 110}, {"time": 118070, "pitch": 52, "duration": 486, "velocity": 95}, {"time": 118080, "pitch": 56, "duration": 486, "velocity": 100}, {"time": 118090, "pitch": 59, "duration": 486, "velocity": 105}, {"time": 118100, "pitch": 64, "duration": 486, "velocity": 110}, {"time": 118546, "pitch": 47, "duration": 400, "velocity": 110}, {"time": 118556, "pitch": 52, "duration": 380, "velocity": 95}, {"time": 118566, "pitch": 56, "duration": 360, "velocity": 100}, {"time": 118576, "pitch": 59, "duration": 340, "velocity": 105}, {"time": 118586, "pitch": 64, "duration": 320, "velocity": 110}, {"time": 118906, "pitch": 64, "duration": 159, "velocity": 105}, {"time": 118916, "pitch": 59, "duration": 139, "velocity": 100}, {"time": 118926, "pitch": 56, "duration": 119, "velocity": 95}, {"time": 118936, "pitch": 52, "duration": 99, "velocity": 90}, {"time": 118946, "pitch": 47, "duration": 79, "velocity": 105}, {"time": 119025, "pitch": 47, "duration": 160, "velocity": 110}, {"time": 119035, "pitch": 52, "duration": 140, "velocity": 95}, {"time": 119045, "pitch": 56, "duration": 120, "velocity": 100}, {"time": 119055, "pitch": 59, "duration": 100, "velocity": 105}, {"time": 119065, "pitch": 64, "duration": 80, "velocity": 110}, {"time": 119145, "pitch": 64, "duration": 160, "velocity": 105}, {"time": 119155, "pitch": 59, "duration": 140, "velocity": 100}, {"time": 119165, "pitch": 56, "duration": 120, "velocity": 95}, {"time": 119175, "pitch": 52, "duration": 100, "velocity": 90}, {"time": 119185, "pitch": 47, "duration": 80, "velocity": 105}, {"time": 119265, "pitch": 47, "duration": 240, "velocity": 110}, {"time": 119275, "pitch": 52, "duration": 240, "velocity": 95}, {"time": 119285, "pitch": 56, "duration": 240, "velocity": 100}, {"time": 119295, "pitch": 59, "duration": 240, "velocity": 105}, {"time": 119305, "pitch": 64, "duration": 240, "velocity": 110}, {"time": 119505, "pitch": 47, "duration": 280, "velocity": 110}, {"time": 119515, "pitch": 52, "duration": 260, "velocity": 95}, {"time": 119525, "pitch": 56, "duration": 240, "velocity": 100}, {"time": 119535, "pitch": 59, "duration": 220, "velocity": 105}, {"time": 119545, "pitch": 64, "duration": 200, "velocity": 110}, {"time": 119745, "pitch": 64, "duration": 280, "velocity": 100}, {"time": 119755, "pitch": 59, "duration": 260, "velocity": 95}, {"time": 119765, "pitch": 56, "duration": 240, "velocity": 90}, {"time": 119775, "pitch": 52, "duration": 220, "velocity": 85}, {"time": 119785, "pitch": 47, "duration": 200, "velocity": 100}, {"time": 119985, "pitch": 47, "duration": 400, "velocity": 105}, {"time": 119995, "pitch": 50, "duration": 380, "velocity": 90}, {"time": 120005, "pitch": 55, "duration": 360, "velocity": 95}, {"time": 120015, "pitch": 59, "duration": 340, "velocity": 100}, {"time": 120025, "pitch": 67, "duration": 320, "velocity": 105}, {"time": 120345, "pitch": 67, "duration": 159, "velocity": 85}, {"time": 120355, "pitch": 59, "duration": 139, "velocity": 80}, {"time": 120365, "pitch": 55, "duration": 119, "velocity": 75}, {"time": 120375, "pitch": 50, "duration": 99, "velocity": 70}, {"time": 120385, "pitch": 47, "duration": 79, "velocity": 85}, {"time": 120464, "pitch": 47, "duration": 240, "velocity": 110}, {"time": 120474, "pitch": 50, "duration": 240, "velocity": 95}, {"time": 120484, "pitch": 55, "duration": 240, "velocity": 100}, {"time": 120494, "pitch": 59, "duration": 240, "velocity": 105}, {"time": 120504, "pitch": 67, "duration": 240, "velocity": 110}, {"time": 120704, "pitch": 47, "duration": 160, "velocity": 100}, {"time": 120714, "pitch": 50, "duration": 140, "velocity": 85}, {"time": 120724, "pitch": 55, "duration": 120, "velocity": 90}, {"time": 120734, "pitch": 59, "duration": 100, "velocity": 95}, {"time": 120744, "pitch": 67, "duration": 80, "velocity": 100}, {"time": 120824, "pitch": 67, "duration": 240, "velocity": 105}, {"time": 120834, "pitch": 59, "duration": 240, "velocity": 100}, {"time": 120844, "pitch": 55, "duration": 240, "velocity": 95}, {"time": 120854, "pitch": 50, "duration": 240, "velocity": 90}, {"time": 120864, "pitch": 47, "duration": 240, "velocity": 105}, {"time": 121064, "pitch": 67, "duration": 160, "velocity": 100}, {"time": 121074, "pitch": 59, "duration": 140, "velocity": 95}, {"time": 121084, "pitch": 55, "duration": 120, "velocity": 90}, {"time": 121094, "pitch": 50, "duration": 100, "velocity": 85}, {"time": 121104, "pitch": 47, "duration": 80, "velocity": 100}, {"time": 121184, "pitch": 47, "duration": 240, "velocity": 105}, {"time": 121194, "pitch": 50, "duration": 240, "velocity": 90}, {"time": 121204, "pitch": 55, "duration": 240, "velocity": 95}, {"time": 121214, "pitch": 59, "duration": 240, "velocity": 100}, {"time": 121224, "pitch": 67, "duration": 240, "velocity": 105}, {"time": 121424, "pitch": 47, "duration": 280, "velocity": 110}, {"time": 121434, "pitch": 50, "duration": 260, "velocity": 95}, {"time": 121444, "pitch": 55, "duration": 240, "velocity": 100}, {"time": 121454, "pitch": 59, "duration": 220, "velocity": 105}, {"time": 121464, "pitch": 67, "duration": 200, "velocity": 110}, {"time": 121664, "pitch": 67, "duration": 279, "velocity": 100}, {"time": 121674, "pitch": 59, "duration": 259, "velocity": 95}, {"time": 121684, "pitch": 55, "duration": 239, "velocity": 90}, {"time": 121694, "pitch": 50, "duration": 219, "velocity": 85}, {"time": 121704, "pitch": 47, "duration": 199, "velocity": 100}, {"time": 121903, "pitch": 45, "duration": 480, "velocity": 110}, {"time": 121913, "pitch": 50, "duration": 480, "velocity": 95}, {"time": 121923, "pitch": 57, "duration": 480, "velocity": 100}, {"time": 121933, "pitch": 62, "duration": 480, "velocity": 105}, {"time": 121943, "pitch": 66, "duration": 480, "velocity": 110}, {"time": 122383, "pitch": 45, "duration": 400, "velocity": 110}, {"time": 122393, "pitch": 50, "duration": 380, "velocity": 95}, {"time": 122403, "pitch": 57, "duration": 360, "velocity": 100}, {"time": 122413, "pitch": 62, "duration": 340, "velocity": 105}, {"time": 122423, "pitch": 66, "duration": 320, "velocity": 110}, {"time": 122743, "pitch": 66, "duration": 160, "velocity": 100}, {"time": 122753, "pitch": 62, "duration": 140, "velocity": 95}, {"time": 122763, "pitch": 57, "duration": 120, "velocity": 90}, {"time": 122773, "pitch": 50, "duration": 100, "velocity": 85}, {"time": 122783, "pitch": 45, "duration": 80, "velocity": 100}, {"time": 122863, "pitch": 45, "duration": 240, "velocity": 110}, {"time": 122873, "pitch": 50, "duration": 240, "velocity": 95}, {"time": 122883, "pitch": 57, "duration": 239, "velocity": 100}, {"time": 122893, "pitch": 62, "duration": 239, "velocity": 105}, {"time": 122903, "pitch": 67, "duration": 239, "velocity": 110}, {"time": 123103, "pitch": 45, "duration": 159, "velocity": 100}, {"time": 123113, "pitch": 50, "duration": 139, "velocity": 85}, {"time": 123122, "pitch": 57, "duration": 120, "velocity": 90}, {"time": 123132, "pitch": 62, "duration": 100, "velocity": 95}, {"time": 123142, "pitch": 66, "duration": 80, "velocity": 100}, {"time": 123222, "pitch": 64, "duration": 240, "velocity": 105}, {"time": 123232, "pitch": 62, "duration": 240, "velocity": 100}, {"time": 123242, "pitch": 57, "duration": 240, "velocity": 95}, {"time": 123252, "pitch": 50, "duration": 240, "velocity": 90}, {"time": 123262, "pitch": 45, "duration": 240, "velocity": 105}, {"time": 123462, "pitch": 64, "duration": 160, "velocity": 100}, {"time": 123472, "pitch": 62, "duration": 140, "velocity": 95}, {"time": 123482, "pitch": 57, "duration": 120, "velocity": 90}, {"time": 123492, "pitch": 50, "duration": 100, "velocity": 85}, {"time": 123502, "pitch": 45, "duration": 80, "velocity": 100}, {"time": 123582, "pitch": 45, "duration": 240, "velocity": 105}, {"time": 123592, "pitch": 50, "duration": 240, "velocity": 90}, {"time": 123602, "pitch": 57, "duration": 240, "velocity": 95}, {"time": 123612, "pitch": 62, "duration": 240, "velocity": 100}, {"time": 123622, "pitch": 67, "duration": 240, "velocity": 105}, {"time": 123822, "pitch": 45, "duration": 480, "velocity": 120}, {"time": 123832, "pitch": 50, "duration": 480, "velocity": 105}, {"time": 123842, "pitch": 57, "duration": 480, "velocity": 110}, {"time": 123852, "pitch": 62, "duration": 480, "velocity": 115}, {"time": 123862, "pitch": 66, "duration": 480, "velocity": 120}, {"time": 124302, "pitch": 45, "duration": 399, "velocity": 120}, {"time": 124312, "pitch": 50, "duration": 379, "velocity": 105}, {"time": 124322, "pitch": 57, "duration": 359, "velocity": 110}, {"time": 124332, "pitch": 62, "duration": 339, "velocity": 115}, {"time": 124342, "pitch": 66, "duration": 319, "velocity": 120}, {"time": 124661, "pitch": 66, "duration": 160, "velocity": 110}, {"time": 124671, "pitch": 62, "duration": 140, "velocity": 105}, {"time": 124681, "pitch": 57, "duration": 120, "velocity": 100}, {"time": 124691, "pitch": 50, "duration": 100, "velocity": 95}, {"time": 124701, "pitch": 45, "duration": 80, "velocity": 110}, {"time": 124781, "pitch": 45, "duration": 280, "velocity": 120}, {"time": 124791, "pitch": 50, "duration": 260, "velocity": 105}, {"time": 124801, "pitch": 57, "duration": 240, "velocity": 110}, {"time": 124811, "pitch": 62, "duration": 220, "velocity": 115}, {"time": 124821, "pitch": 66, "duration": 200, "velocity": 120}, {"time": 125021, "pitch": 66, "duration": 280, "velocity": 110}, {"time": 125031, "pitch": 62, "duration": 260, "velocity": 105}, {"time": 125041, "pitch": 57, "duration": 240, "velocity": 100}, {"time": 125051, "pitch": 50, "duration": 220, "velocity": 95}, {"time": 125061, "pitch": 45, "duration": 200, "velocity": 110}, {"time": 125261, "pitch": 45, "duration": 160, "velocity": 110}, {"time": 125271, "pitch": 50, "duration": 140, "velocity": 95}, {"time": 125281, "pitch": 57, "duration": 120, "velocity": 100}, {"time": 125291, "pitch": 62, "duration": 100, "velocity": 105}, {"time": 125301, "pitch": 66, "duration": 80, "velocity": 110}, {"time": 125381, "pitch": 66, "duration": 160, "velocity": 105}, {"time": 125391, "pitch": 62, "duration": 140, "velocity": 100}, {"time": 125401, "pitch": 57, "duration": 120, "velocity": 95}, {"time": 125411, "pitch": 50, "duration": 100, "velocity": 90}, {"time": 125421, "pitch": 45, "duration": 80, "velocity": 105}, {"time": 125501, "pitch": 45, "duration": 220, "velocity": 110}, {"time": 125511, "pitch": 50, "duration": 210, "velocity": 95}, {"time": 125521, "pitch": 57, "duration": 200, "velocity": 100}, {"time": 125531, "pitch": 62, "duration": 190, "velocity": 105}, {"time": 125541, "pitch": 66, "duration": 180, "velocity": 110}, {"time": 125741, "pitch": 47, "duration": 479, "velocity": 110}, {"time": 125751, "pitch": 52, "duration": 479, "velocity": 95}, {"time": 125761, "pitch": 55, "duration": 479, "velocity": 100}, {"time": 125771, "pitch": 59, "duration": 479, "velocity": 105}, {"time": 125781, "pitch": 64, "duration": 479, "velocity": 110}, {"time": 126220, "pitch": 47, "duration": 405, "velocity": 110}, {"time": 126230, "pitch": 52, "duration": 385, "velocity": 95}, {"time": 126240, "pitch": 55, "duration": 365, "velocity": 100}, {"time": 126250, "pitch": 59, "duration": 344, "velocity": 105}, {"time": 126260, "pitch": 64, "duration": 324, "velocity": 110}, {"time": 126584, "pitch": 64, "duration": 162, "velocity": 105}, {"time": 126594, "pitch": 59, "duration": 142, "velocity": 100}, {"time": 126605, "pitch": 55, "duration": 121, "velocity": 95}, {"time": 126615, "pitch": 52, "duration": 101, "velocity": 90}, {"time": 126625, "pitch": 47, "duration": 81, "velocity": 105}, {"time": 126706, "pitch": 47, "duration": 160, "velocity": 110}, {"time": 126716, "pitch": 52, "duration": 140, "velocity": 95}, {"time": 126726, "pitch": 55, "duration": 120, "velocity": 100}, {"time": 126736, "pitch": 59, "duration": 100, "velocity": 105}, {"time": 126746, "pitch": 64, "duration": 80, "velocity": 110}, {"time": 126826, "pitch": 64, "duration": 160, "velocity": 105}, {"time": 126836, "pitch": 59, "duration": 140, "velocity": 100}, {"time": 126846, "pitch": 55, "duration": 120, "velocity": 95}, {"time": 126856, "pitch": 52, "duration": 100, "velocity": 90}, {"time": 126866, "pitch": 47, "duration": 80, "velocity": 105}, {"time": 126946, "pitch": 47, "duration": 240, "velocity": 110}, {"time": 126956, "pitch": 52, "duration": 240, "velocity": 95}, {"time": 126966, "pitch": 55, "duration": 240, "velocity": 100}, {"time": 126976, "pitch": 59, "duration": 240, "velocity": 105}, {"time": 126986, "pitch": 64, "duration": 240, "velocity": 110}, {"time": 127186, "pitch": 47, "duration": 279, "velocity": 110}, {"time": 127196, "pitch": 52, "duration": 259, "velocity": 95}, {"time": 127206, "pitch": 55, "duration": 239, "velocity": 100}, {"time": 127216, "pitch": 59, "duration": 219, "velocity": 105}, {"time": 127226, "pitch": 64, "duration": 199, "velocity": 110}, {"time": 127425, "pitch": 64, "duration": 280, "velocity": 100}, {"time": 127435, "pitch": 59, "duration": 260, "velocity": 95}, {"time": 127445, "pitch": 55, "duration": 240, "velocity": 90}, {"time": 127455, "pitch": 52, "duration": 220, "velocity": 85}, {"time": 127465, "pitch": 47, "duration": 200, "velocity": 100}, {"time": 127665, "pitch": 47, "duration": 400, "velocity": 105}, {"time": 127675, "pitch": 50, "duration": 380, "velocity": 90}, {"time": 127685, "pitch": 55, "duration": 360, "velocity": 95}, {"time": 127695, "pitch": 59, "duration": 340, "velocity": 100}, {"time": 127705, "pitch": 67, "duration": 320, "velocity": 105}, {"time": 128025, "pitch": 67, "duration": 160, "velocity": 85}, {"time": 128035, "pitch": 59, "duration": 140, "velocity": 80}, {"time": 128045, "pitch": 55, "duration": 120, "velocity": 75}, {"time": 128055, "pitch": 50, "duration": 100, "velocity": 70}, {"time": 128065, "pitch": 47, "duration": 80, "velocity": 85}, {"time": 128145, "pitch": 47, "duration": 240, "velocity": 110}, {"time": 128155, "pitch": 50, "duration": 240, "velocity": 95}, {"time": 128165, "pitch": 55, "duration": 240, "velocity": 100}, {"time": 128175, "pitch": 59, "duration": 240, "velocity": 105}, {"time": 128185, "pitch": 67, "duration": 240, "velocity": 110}, {"time": 128385, "pitch": 47, "duration": 160, "velocity": 100}, {"time": 128395, "pitch": 50, "duration": 140, "velocity": 85}, {"time": 128405, "pitch": 55, "duration": 120, "velocity": 90}, {"time": 128415, "pitch": 59, "duration": 100, "velocity": 95}, {"time": 128425, "pitch": 67, "duration": 80, "velocity": 100}, {"time": 128505, "pitch": 67, "duration": 239, "velocity": 105}, {"time": 128515, "pitch": 59, "duration": 239, "velocity": 100}, {"time": 128525, "pitch": 55, "duration": 239, "velocity": 95}, {"time": 128535, "pitch": 50, "duration": 239, "velocity": 90}, {"time": 128545, "pitch": 47, "duration": 239, "velocity": 105}, {"time": 128744, "pitch": 67, "duration": 160, "velocity": 100}, {"time": 128754, "pitch": 59, "duration": 140, "velocity": 95}, {"time": 128764, "pitch": 55, "duration": 120, "velocity": 90}, {"time": 128774, "pitch": 50, "duration": 100, "velocity": 85}, {"time": 128784, "pitch": 47, "duration": 80, "velocity": 100}, {"time": 128864, "pitch": 47, "duration": 240, "velocity": 105}, {"time": 128874, "pitch": 50, "duration": 240, "velocity": 90}, {"time": 128884, "pitch": 55, "duration": 240, "velocity": 95}, {"time": 128894, "pitch": 59, "duration": 240, "velocity": 100}, {"time": 128904, "pitch": 67, "duration": 240, "velocity": 105}, {"time": 129104, "pitch": 47, "duration": 280, "velocity": 110}, {"time": 129114, "pitch": 50, "duration": 260, "velocity": 95}, {"time": 129124, "pitch": 55, "duration": 240, "velocity": 100}, {"time": 129134, "pitch": 59, "duration": 220, "velocity": 105}, {"time": 129144, "pitch": 67, "duration": 200, "velocity": 110}, {"time": 129344, "pitch": 67, "duration": 280, "velocity": 100}, {"time": 129354, "pitch": 59, "duration": 260, "velocity": 95}, {"time": 129364, "pitch": 55, "duration": 240, "velocity": 90}, {"time": 129374, "pitch": 50, "duration": 220, "velocity": 85}, {"time": 129384, "pitch": 47, "duration": 200, "velocity": 100}, {"time": 129584, "pitch": 45, "duration": 479, "velocity": 110}, {"time": 129594, "pitch": 50, "duration": 479, "velocity": 95}, {"time": 129604, "pitch": 57, "duration": 479, "velocity": 100}, {"time": 129614, "pitch": 62, "duration": 479, "velocity": 105}, {"time": 129624, "pitch": 66, "duration": 479, "velocity": 110}, {"time": 130063, "pitch": 45, "duration": 400, "velocity": 110}, {"time": 130073, "pitch": 50, "duration": 380, "velocity": 95}, {"time": 130083, "pitch": 57, "duration": 360, "velocity": 100}, {"time": 130093, "pitch": 62, "duration": 340, "velocity": 105}, {"time": 130103, "pitch": 66, "duration": 320, "velocity": 110}, {"time": 130423, "pitch": 66, "duration": 160, "velocity": 100}, {"time": 130433, "pitch": 62, "duration": 140, "velocity": 95}, {"time": 130443, "pitch": 57, "duration": 120, "velocity": 90}, {"time": 130453, "pitch": 50, "duration": 100, "velocity": 85}, {"time": 130463, "pitch": 45, "duration": 80, "velocity": 100}, {"time": 130543, "pitch": 45, "duration": 240, "velocity": 110}, {"time": 130553, "pitch": 50, "duration": 240, "velocity": 95}, {"time": 130563, "pitch": 57, "duration": 240, "velocity": 100}, {"time": 130573, "pitch": 62, "duration": 240, "velocity": 105}, {"time": 130583, "pitch": 67, "duration": 240, "velocity": 110}, {"time": 130783, "pitch": 45, "duration": 160, "velocity": 100}, {"time": 130793, "pitch": 50, "duration": 140, "velocity": 85}, {"time": 130803, "pitch": 57, "duration": 120, "velocity": 90}, {"time": 130813, "pitch": 62, "duration": 100, "velocity": 95}, {"time": 130823, "pitch": 66, "duration": 80, "velocity": 100}, {"time": 130903, "pitch": 64, "duration": 240, "velocity": 105}, {"time": 130913, "pitch": 62, "duration": 240, "velocity": 100}, {"time": 130923, "pitch": 57, "duration": 240, "velocity": 95}, {"time": 130933, "pitch": 50, "duration": 240, "velocity": 90}, {"time": 130943, "pitch": 45, "duration": 240, "velocity": 105}, {"time": 131143, "pitch": 64, "duration": 160, "velocity": 100}, {"time": 131153, "pitch": 62, "duration": 140, "velocity": 95}, {"time": 131163, "pitch": 57, "duration": 120, "velocity": 90}, {"time": 131173, "pitch": 50, "duration": 100, "velocity": 85}, {"time": 131183, "pitch": 45, "duration": 80, "velocity": 100}, {"time": 131263, "pitch": 45, "duration": 239, "velocity": 105}, {"time": 131273, "pitch": 50, "duration": 239, "velocity": 90}, {"time": 131283, "pitch": 57, "duration": 239, "velocity": 95}, {"time": 131293, "pitch": 62, "duration": 239, "velocity": 100}, {"time": 131303, "pitch": 67, "duration": 239, "velocity": 105}, {"time": 131502, "pitch": 45, "duration": 480, "velocity": 120}, {"time": 131512, "pitch": 50, "duration": 480, "velocity": 105}, {"time": 131522, "pitch": 57, "duration": 480, "velocity": 110}, {"time": 131532, "pitch": 62, "duration": 480, "velocity": 115}, {"time": 131542, "pitch": 66, "duration": 480, "velocity": 120}, {"time": 131982, "pitch": 45, "duration": 400, "velocity": 120}, {"time": 131992, "pitch": 50, "duration": 380, "velocity": 105}, {"time": 132002, "pitch": 57, "duration": 360, "velocity": 110}, {"time": 132012, "pitch": 62, "duration": 340, "velocity": 115}, {"time": 132022, "pitch": 66, "duration": 320, "velocity": 120}, {"time": 132342, "pitch": 66, "duration": 160, "velocity": 110}, {"time": 132352, "pitch": 62, "duration": 140, "velocity": 105}, {"time": 132362, "pitch": 57, "duration": 120, "velocity": 100}, {"time": 132372, "pitch": 50, "duration": 100, "velocity": 95}, {"time": 132382, "pitch": 45, "duration": 80, "velocity": 110}, {"time": 132462, "pitch": 45, "duration": 280, "velocity": 120}, {"time": 132472, "pitch": 50, "duration": 260, "velocity": 105}, {"time": 132482, "pitch": 57, "duration": 240, "velocity": 110}, {"time": 132492, "pitch": 62, "duration": 220, "velocity": 115}, {"time": 132502, "pitch": 66, "duration": 200, "velocity": 120}, {"time": 132702, "pitch": 66, "duration": 279, "velocity": 110}, {"time": 132712, "pitch": 62, "duration": 259, "velocity": 105}, {"time": 132722, "pitch": 57, "duration": 239, "velocity": 100}, {"time": 132732, "pitch": 50, "duration": 219, "velocity": 95}, {"time": 132742, "pitch": 45, "duration": 199, "velocity": 110}, {"time": 132941, "pitch": 45, "duration": 160, "velocity": 110}, {"time": 132951, "pitch": 50, "duration": 140, "velocity": 95}, {"time": 132961, "pitch": 57, "duration": 120, "velocity": 100}, {"time": 132971, "pitch": 62, "duration": 100, "velocity": 105}, {"time": 132981, "pitch": 66, "duration": 80, "velocity": 110}, {"time": 133061, "pitch": 66, "duration": 160, "velocity": 105}, {"time": 133071, "pitch": 62, "duration": 140, "velocity": 100}, {"time": 133081, "pitch": 57, "duration": 120, "velocity": 95}, {"time": 133091, "pitch": 50, "duration": 100, "velocity": 90}, {"time": 133101, "pitch": 45, "duration": 80, "velocity": 105}, {"time": 133181, "pitch": 45, "duration": 220, "velocity": 110}, {"time": 133191, "pitch": 50, "duration": 210, "velocity": 95}, {"time": 133201, "pitch": 57, "duration": 200, "velocity": 100}, {"time": 133211, "pitch": 62, "duration": 190, "velocity": 105}, {"time": 133221, "pitch": 66, "duration": 180, "velocity": 110}, {"time": 133421, "pitch": 47, "duration": 480, "velocity": 110}, {"time": 133431, "pitch": 52, "duration": 480, "velocity": 95}, {"time": 133441, "pitch": 55, "duration": 480, "velocity": 100}, {"time": 133451, "pitch": 59, "duration": 480, "velocity": 105}, {"time": 133461, "pitch": 64, "duration": 480, "velocity": 110}, {"time": 133901, "pitch": 47, "duration": 399, "velocity": 110}, {"time": 133911, "pitch": 52, "duration": 379, "velocity": 95}, {"time": 133921, "pitch": 55, "duration": 359, "velocity": 100}, {"time": 133931, "pitch": 59, "duration": 339, "velocity": 105}, {"time": 133941, "pitch": 64, "duration": 319, "velocity": 110}, {"time": 134260, "pitch": 64, "duration": 161, "velocity": 105}, {"time": 134270, "pitch": 59, "duration": 140, "velocity": 100}, {"time": 134280, "pitch": 55, "duration": 120, "velocity": 95}, {"time": 134290, "pitch": 52, "duration": 100, "velocity": 90}, {"time": 134300, "pitch": 47, "duration": 80, "velocity": 105}, {"time": 134380, "pitch": 47, "duration": 162, "velocity": 110}, {"time": 134390, "pitch": 52, "duration": 142, "velocity": 95}, {"time": 134400, "pitch": 55, "duration": 122, "velocity": 100}, {"time": 134410, "pitch": 59, "duration": 102, "velocity": 105}, {"time": 134421, "pitch": 64, "duration": 81, "velocity": 110}, {"time": 134502, "pitch": 64, "duration": 161, "velocity": 105}, {"time": 134512, "pitch": 59, "duration": 141, "velocity": 100}, {"time": 134522, "pitch": 55, "duration": 121, "velocity": 95}, {"time": 134532, "pitch": 52, "duration": 101, "velocity": 90}, {"time": 134542, "pitch": 47, "duration": 81, "velocity": 105}, {"time": 134623, "pitch": 47, "duration": 243, "velocity": 110}, {"time": 134633, "pitch": 52, "duration": 243, "velocity": 95}, {"time": 134643, "pitch": 55, "duration": 243, "velocity": 100}, {"time": 134653, "pitch": 59, "duration": 243, "velocity": 105}, {"time": 134663, "pitch": 64, "duration": 243, "velocity": 110}, {"time": 134866, "pitch": 47, "duration": 280, "velocity": 110}, {"time": 134876, "pitch": 52, "duration": 260, "velocity": 95}, {"time": 134886, "pitch": 55, "duration": 240, "velocity": 100}, {"time": 134896, "pitch": 59, "duration": 220, "velocity": 105}, {"time": 134906, "pitch": 64, "duration": 200, "velocity": 110}, {"time": 135106, "pitch": 64, "duration": 280, "velocity": 100}, {"time": 135116, "pitch": 59, "duration": 260, "velocity": 95}, {"time": 135126, "pitch": 55, "duration": 240, "velocity": 90}, {"time": 135136, "pitch": 52, "duration": 220, "velocity": 85}, {"time": 135146, "pitch": 47, "duration": 200, "velocity": 100}, {"time": 135346, "pitch": 47, "duration": 399, "velocity": 105}, {"time": 135356, "pitch": 50, "duration": 379, "velocity": 90}, {"time": 135366, "pitch": 55, "duration": 359, "velocity": 95}, {"time": 135376, "pitch": 59, "duration": 339, "velocity": 100}, {"time": 135386, "pitch": 67, "duration": 319, "velocity": 105}, {"time": 135705, "pitch": 67, "duration": 160, "velocity": 85}, {"time": 135715, "pitch": 59, "duration": 140, "velocity": 80}, {"time": 135725, "pitch": 55, "duration": 120, "velocity": 75}, {"time": 135735, "pitch": 50, "duration": 100, "velocity": 70}, {"time": 135745, "pitch": 47, "duration": 80, "velocity": 85}, {"time": 135825, "pitch": 47, "duration": 240, "velocity": 110}, {"time": 135835, "pitch": 50, "duration": 240, "velocity": 95}, {"time": 135845, "pitch": 55, "duration": 240, "velocity": 100}, {"time": 135855, "pitch": 59, "duration": 240, "velocity": 105}, {"time": 135865, "pitch": 67, "duration": 240, "velocity": 110}, {"time": 136065, "pitch": 47, "duration": 160, "velocity": 100}, {"time": 136075, "pitch": 50, "duration": 140, "velocity": 85}, {"time": 136085, "pitch": 55, "duration": 120, "velocity": 90}, {"time": 136095, "pitch": 59, "duration": 100, "velocity": 95}, {"time": 136105, "pitch": 67, "duration": 80, "velocity": 100}, {"time": 136185, "pitch": 67, "duration": 240, "velocity": 105}, {"time": 136195, "pitch": 59, "duration": 240, "velocity": 100}, {"time": 136205, "pitch": 55, "duration": 240, "velocity": 95}, {"time": 136215, "pitch": 50, "duration": 240, "velocity": 90}, {"time": 136225, "pitch": 47, "duration": 240, "velocity": 105}, {"time": 136425, "pitch": 67, "duration": 160, "velocity": 100}, {"time": 136435, "pitch": 59, "duration": 140, "velocity": 95}, {"time": 136445, "pitch": 55, "duration": 120, "velocity": 90}, {"time": 136455, "pitch": 50, "duration": 100, "velocity": 85}, {"time": 136465, "pitch": 47, "duration": 80, "velocity": 100}, {"time": 136545, "pitch": 47, "duration": 240, "velocity": 105}, {"time": 136555, "pitch": 50, "duration": 240, "velocity": 90}, {"time": 136565, "pitch": 55, "duration": 240, "velocity": 95}, {"time": 136575, "pitch": 59, "duration": 240, "velocity": 100}, {"time": 136585, "pitch": 67, "duration": 240, "velocity": 105}, {"time": 136785, "pitch": 47, "duration": 279, "velocity": 110}, {"time": 136795, "pitch": 50, "duration": 259, "velocity": 95}, {"time": 136805, "pitch": 55, "duration": 239, "velocity": 100}, {"time": 136815, "pitch": 59, "duration": 219, "velocity": 105}, {"time": 136825, "pitch": 67, "duration": 199, "velocity": 110}, {"time": 137024, "pitch": 67, "duration": 280, "velocity": 100}, {"time": 137034, "pitch": 59, "duration": 260, "velocity": 95}, {"time": 137044, "pitch": 55, "duration": 240, "velocity": 90}, {"time": 137054, "pitch": 50, "duration": 220, "velocity": 85}, {"time": 137064, "pitch": 47, "duration": 200, "velocity": 100}, {"time": 137264, "pitch": 45, "duration": 480, "velocity": 110}, {"time": 137274, "pitch": 50, "duration": 480, "velocity": 95}, {"time": 137284, "pitch": 57, "duration": 480, "velocity": 100}, {"time": 137294, "pitch": 62, "duration": 480, "velocity": 105}, {"time": 137304, "pitch": 66, "duration": 480, "velocity": 110}, {"time": 137744, "pitch": 45, "duration": 400, "velocity": 110}, {"time": 137754, "pitch": 50, "duration": 380, "velocity": 95}, {"time": 137764, "pitch": 57, "duration": 360, "velocity": 100}, {"time": 137774, "pitch": 62, "duration": 340, "velocity": 105}, {"time": 137784, "pitch": 66, "duration": 320, "velocity": 110}, {"time": 138104, "pitch": 66, "duration": 160, "velocity": 100}, {"time": 138114, "pitch": 62, "duration": 140, "velocity": 95}, {"time": 138124, "pitch": 57, "duration": 120, "velocity": 90}, {"time": 138134, "pitch": 50, "duration": 100, "velocity": 85}, {"time": 138144, "pitch": 45, "duration": 80, "velocity": 100}, {"time": 138224, "pitch": 45, "duration": 239, "velocity": 110}, {"time": 138234, "pitch": 50, "duration": 239, "velocity": 95}, {"time": 138244, "pitch": 57, "duration": 239, "velocity": 100}, {"time": 138254, "pitch": 62, "duration": 239, "velocity": 105}, {"time": 138264, "pitch": 67, "duration": 239, "velocity": 110}, {"time": 138463, "pitch": 45, "duration": 160, "velocity": 100}, {"time": 138473, "pitch": 50, "duration": 140, "velocity": 85}, {"time": 138483, "pitch": 57, "duration": 120, "velocity": 90}, {"time": 138493, "pitch": 62, "duration": 100, "velocity": 95}, {"time": 138503, "pitch": 66, "duration": 80, "velocity": 100}, {"time": 138583, "pitch": 64, "duration": 240, "velocity": 105}, {"time": 138593, "pitch": 62, "duration": 240, "velocity": 100}, {"time": 138603, "pitch": 57, "duration": 240, "velocity": 95}, {"time": 138613, "pitch": 50, "duration": 240, "velocity": 90}, {"time": 138623, "pitch": 45, "duration": 240, "velocity": 105}, {"time": 138823, "pitch": 64, "duration": 160, "velocity": 100}, {"time": 138833, "pitch": 62, "duration": 140, "velocity": 95}, {"time": 138843, "pitch": 57, "duration": 120, "velocity": 90}, {"time": 138853, "pitch": 50, "duration": 100, "velocity": 85}, {"time": 138863, "pitch": 45, "duration": 80, "velocity": 100}, {"time": 138943, "pitch": 45, "duration": 240, "velocity": 105}, {"time": 138953, "pitch": 50, "duration": 240, "velocity": 90}, {"time": 138963, "pitch": 57, "duration": 240, "velocity": 95}, {"time": 138973, "pitch": 62, "duration": 240, "velocity": 100}, {"time": 138983, "pitch": 67, "duration": 240, "velocity": 105}, {"time": 139183, "pitch": 48, "duration": 400, "velocity": 120}, {"time": 139193, "pitch": 52, "duration": 380, "velocity": 105}, {"time": 139203, "pitch": 55, "duration": 360, "velocity": 110}, {"time": 139213, "pitch": 60, "duration": 340, "velocity": 115}, {"time": 139223, "pitch": 64, "duration": 320, "velocity": 120}, {"time": 139543, "pitch": 64, "duration": 159, "velocity": 100}, {"time": 139553, "pitch": 60, "duration": 140, "velocity": 95}, {"time": 139563, "pitch": 55, "duration": 120, "velocity": 90}, {"time": 139573, "pitch": 52, "duration": 100, "velocity": 85}, {"time": 139583, "pitch": 48, "duration": 80, "velocity": 100}, {"time": 139663, "pitch": 48, "duration": 399, "velocity": 120}, {"time": 139673, "pitch": 52, "duration": 379, "velocity": 105}, {"time": 139683, "pitch": 55, "duration": 359, "velocity": 110}, {"time": 139693, "pitch": 60, "duration": 339, "velocity": 115}, {"time": 139702, "pitch": 64, "duration": 320, "velocity": 120}, {"time": 140022, "pitch": 64, "duration": 160, "velocity": 100}, {"time": 140032, "pitch": 59, "duration": 140, "velocity": 95}, {"time": 140042, "pitch": 55, "duration": 120, "velocity": 90}, {"time": 140052, "pitch": 52, "duration": 100, "velocity": 85}, {"time": 140062, "pitch": 47, "duration": 80, "velocity": 100}, {"time": 140142, "pitch": 47, "duration": 480, "velocity": 120}, {"time": 140152, "pitch": 52, "duration": 480, "velocity": 105}, {"time": 140162, "pitch": 55, "duration": 480, "velocity": 110}, {"time": 140172, "pitch": 59, "duration": 480, "velocity": 115}, {"time": 140182, "pitch": 64, "duration": 480, "velocity": 120}, {"time": 140622, "pitch": 45, "duration": 160, "velocity": 110}, {"time": 140632, "pitch": 52, "duration": 140, "velocity": 95}, {"time": 140642, "pitch": 55, "duration": 120, "velocity": 100}, {"time": 140652, "pitch": 60, "duration": 100, "velocity": 105}, {"time": 140662, "pitch": 64, "duration": 80, "velocity": 110}, {"time": 140742, "pitch": 64, "duration": 160, "velocity": 105}, {"time": 140752, "pitch": 60, "duration": 140, "velocity": 100}, {"time": 140762, "pitch": 55, "duration": 120, "velocity": 95}, {"time": 140772, "pitch": 52, "duration": 100, "velocity": 90}, {"time": 140782, "pitch": 45, "duration": 80, "velocity": 105}, {"time": 140862, "pitch": 45, "duration": 219, "velocity": 110}, {"time": 140872, "pitch": 52, "duration": 209, "velocity": 95}, {"time": 140882, "pitch": 55, "duration": 199, "velocity": 100}, {"time": 140892, "pitch": 60, "duration": 189, "velocity": 105}, {"time": 140902, "pitch": 64, "duration": 179, "velocity": 110}, {"time": 141101, "pitch": 45, "duration": 480, "velocity": 120}, {"time": 141111, "pitch": 50, "duration": 480, "velocity": 105}, {"time": 141121, "pitch": 57, "duration": 480, "velocity": 110}, {"time": 141131, "pitch": 62, "duration": 480, "velocity": 115}, {"time": 141141, "pitch": 66, "duration": 480, "velocity": 120}, {"time": 141581, "pitch": 45, "duration": 400, "velocity": 120}, {"time": 141591, "pitch": 50, "duration": 380, "velocity": 105}, {"time": 141601, "pitch": 57, "duration": 360, "velocity": 110}, {"time": 141611, "pitch": 62, "duration": 340, "velocity": 115}, {"time": 141621, "pitch": 66, "duration": 320, "velocity": 120}, {"time": 141941, "pitch": 66, "duration": 160, "velocity": 110}, {"time": 141951, "pitch": 62, "duration": 140, "velocity": 105}, {"time": 141961, "pitch": 57, "duration": 120, "velocity": 100}, {"time": 141971, "pitch": 50, "duration": 100, "velocity": 95}, {"time": 141981, "pitch": 45, "duration": 80, "velocity": 110}, {"time": 142061, "pitch": 45, "duration": 160, "velocity": 120}, {"time": 142071, "pitch": 50, "duration": 150, "velocity": 105}, {"time": 142081, "pitch": 57, "duration": 140, "velocity": 110}, {"time": 142091, "pitch": 62, "duration": 130, "velocity": 115}, {"time": 142101, "pitch": 67, "duration": 120, "velocity": 120}, {"time": 142301, "pitch": 66, "duration": 479, "velocity": 120}, {"time": 142311, "pitch": 62, "duration": 479, "velocity": 115}, {"time": 142321, "pitch": 57, "duration": 479, "velocity": 110}, {"time": 142331, "pitch": 50, "duration": 479, "velocity": 105}, {"time": 142341, "pitch": 45, "duration": 479, "velocity": 120}, {"time": 142780, "pitch": 66, "duration": 220, "velocity": 110}, {"time": 142790, "pitch": 62, "duration": 210, "velocity": 105}, {"time": 142800, "pitch": 57, "duration": 200, "velocity": 100}, {"time": 142810, "pitch": 50, "duration": 190, "velocity": 95}, {"time": 142820, "pitch": 45, "duration": 180, "velocity": 110}, {"time": 143020, "pitch": 48, "duration": 405, "velocity": 120}, {"time": 143030, "pitch": 52, "duration": 385, "velocity": 105}, {"time": 143040, "pitch": 55, "duration": 364, "velocity": 110}, {"time": 143050, "pitch": 60, "duration": 344, "velocity": 115}, {"time": 143060, "pitch": 64, "duration": 324, "velocity": 120}, {"time": 143384, "pitch": 64, "duration": 162, "velocity": 100}, {"time": 143394, "pitch": 60, "duration": 142, "velocity": 95}, {"time": 143404, "pitch": 55, "duration": 122, "velocity": 90}, {"time": 143415, "pitch": 52, "duration": 101, "velocity": 85}, {"time": 143425, "pitch": 48, "duration": 81, "velocity": 100}, {"time": 143506, "pitch": 48, "duration": 399, "velocity": 120}, {"time": 143516, "pitch": 52, "duration": 379, "velocity": 105}, {"time": 143526, "pitch": 55, "duration": 360, "velocity": 110}, {"time": 143536, "pitch": 60, "duration": 340, "velocity": 115}, {"time": 143546, "pitch": 64, "duration": 320, "velocity": 120}, {"time": 143866, "pitch": 64, "duration": 159, "velocity": 100}, {"time": 143876, "pitch": 59, "duration": 139, "velocity": 95}, {"time": 143886, "pitch": 55, "duration": 119, "velocity": 90}, {"time": 143895, "pitch": 52, "duration": 100, "velocity": 85}, {"time": 143905, "pitch": 47, "duration": 80, "velocity": 100}, {"time": 143985, "pitch": 47, "duration": 480, "velocity": 120}, {"time": 143995, "pitch": 52, "duration": 480, "velocity": 105}, {"time": 144005, "pitch": 55, "duration": 480, "velocity": 110}, {"time": 144015, "pitch": 59, "duration": 480, "velocity": 115}, {"time": 144025, "pitch": 64, "duration": 480, "velocity": 120}, {"time": 144465, "pitch": 45, "duration": 160, "velocity": 110}, {"time": 144475, "pitch": 52, "duration": 140, "velocity": 95}, {"time": 144485, "pitch": 55, "duration": 120, "velocity": 100}, {"time": 144495, "pitch": 60, "duration": 100, "velocity": 105}, {"time": 144505, "pitch": 64, "duration": 80, "velocity": 110}, {"time": 144585, "pitch": 64, "duration": 160, "velocity": 105}, {"time": 144595, "pitch": 60, "duration": 140, "velocity": 100}, {"time": 144605, "pitch": 55, "duration": 120, "velocity": 95}, {"time": 144615, "pitch": 52, "duration": 100, "velocity": 90}, {"time": 144625, "pitch": 45, "duration": 80, "velocity": 105}, {"time": 144705, "pitch": 45, "duration": 220, "velocity": 110}, {"time": 144715, "pitch": 52, "duration": 210, "velocity": 95}, {"time": 144725, "pitch": 55, "duration": 200, "velocity": 100}, {"time": 144735, "pitch": 60, "duration": 190, "velocity": 105}, {"time": 144745, "pitch": 64, "duration": 180, "velocity": 110}, {"time": 144945, "pitch": 45, "duration": 479, "velocity": 120}, {"time": 144955, "pitch": 50, "duration": 479, "velocity": 105}, {"time": 144965, "pitch": 57, "duration": 479, "velocity": 110}, {"time": 144975, "pitch": 62, "duration": 479, "velocity": 115}, {"time": 144985, "pitch": 66, "duration": 479, "velocity": 120}, {"time": 145424, "pitch": 45, "duration": 400, "velocity": 120}, {"time": 145434, "pitch": 50, "duration": 380, "velocity": 105}, {"time": 145444, "pitch": 57, "duration": 360, "velocity": 110}, {"time": 145454, "pitch": 62, "duration": 340, "velocity": 115}, {"time": 145464, "pitch": 66, "duration": 320, "velocity": 120}, {"time": 145784, "pitch": 66, "duration": 160, "velocity": 110}, {"time": 145794, "pitch": 62, "duration": 140, "velocity": 105}, {"time": 145804, "pitch": 57, "duration": 120, "velocity": 100}, {"time": 145814, "pitch": 50, "duration": 100, "velocity": 95}, {"time": 145824, "pitch": 45, "duration": 80, "velocity": 110}, {"time": 145904, "pitch": 45, "duration": 160, "velocity": 120}, {"time": 145914, "pitch": 50, "duration": 150, "velocity": 105}, {"time": 145924, "pitch": 57, "duration": 140, "velocity": 110}, {"time": 145934, "pitch": 62, "duration": 130, "velocity": 115}, {"time": 145944, "pitch": 67, "duration": 120, "velocity": 120}, {"time": 146144, "pitch": 66, "duration": 479, "velocity": 120}, {"time": 146154, "pitch": 62, "duration": 479, "velocity": 115}, {"time": 146164, "pitch": 57, "duration": 479, "velocity": 110}, {"time": 146174, "pitch": 50, "duration": 479, "velocity": 105}, {"time": 146184, "pitch": 45, "duration": 479, "velocity": 120}, {"time": 146623, "pitch": 66, "duration": 220, "velocity": 110}, {"time": 146633, "pitch": 62, "duration": 210, "velocity": 105}, {"time": 146643, "pitch": 57, "duration": 200, "velocity": 100}, {"time": 146653, "pitch": 50, "duration": 190, "velocity": 95}, {"time": 146663, "pitch": 45, "duration": 180, "velocity": 110}, {"time": 146863, "pitch": 48, "duration": 400, "velocity": 120}, {"time": 146873, "pitch": 52, "duration": 380, "velocity": 105}, {"time": 146883, "pitch": 55, "duration": 360, "velocity": 110}, {"time": 146893, "pitch": 60, "duration": 340, "velocity": 115}, {"time": 146903, "pitch": 64, "duration": 320, "velocity": 120}, {"time": 147223, "pitch": 64, "duration": 160, "velocity": 100}, {"time": 147233, "pitch": 60, "duration": 140, "velocity": 95}, {"time": 147243, "pitch": 55, "duration": 120, "velocity": 90}, {"time": 147253, "pitch": 52, "duration": 100, "velocity": 85}, {"time": 147263, "pitch": 48, "duration": 80, "velocity": 100}, {"time": 147343, "pitch": 48, "duration": 400, "velocity": 120}, {"time": 147353, "pitch": 52, "duration": 380, "velocity": 105}, {"time": 147363, "pitch": 55, "duration": 360, "velocity": 110}, {"time": 147373, "pitch": 60, "duration": 340, "velocity": 115}, {"time": 147383, "pitch": 64, "duration": 320, "velocity": 120}, {"time": 147703, "pitch": 64, "duration": 160, "velocity": 100}, {"time": 147713, "pitch": 59, "duration": 140, "velocity": 95}, {"time": 147723, "pitch": 55, "duration": 120, "velocity": 90}, {"time": 147733, "pitch": 52, "duration": 100, "velocity": 85}, {"time": 147743, "pitch": 47, "duration": 80, "velocity": 100}, {"time": 147823, "pitch": 47, "duration": 479, "velocity": 120}, {"time": 147833, "pitch": 52, "duration": 479, "velocity": 105}, {"time": 147843, "pitch": 55, "duration": 479, "velocity": 110}, {"time": 147853, "pitch": 59, "duration": 479, "velocity": 115}, {"time": 147863, "pitch": 64, "duration": 479, "velocity": 120}, {"time": 148302, "pitch": 45, "duration": 160, "velocity": 110}, {"time": 148312, "pitch": 52, "duration": 140, "velocity": 95}, {"time": 148322, "pitch": 55, "duration": 120, "velocity": 100}, {"time": 148332, "pitch": 60, "duration": 100, "velocity": 105}, {"time": 148342, "pitch": 64, "duration": 80, "velocity": 110}, {"time": 148422, "pitch": 64, "duration": 160, "velocity": 105}, {"time": 148432, "pitch": 60, "duration": 140, "velocity": 100}, {"time": 148442, "pitch": 55, "duration": 120, "velocity": 95}, {"time": 148452, "pitch": 52, "duration": 100, "velocity": 90}, {"time": 148462, "pitch": 45, "duration": 80, "velocity": 105}, {"time": 148542, "pitch": 45, "duration": 220, "velocity": 110}, {"time": 148552, "pitch": 52, "duration": 210, "velocity": 95}, {"time": 148562, "pitch": 55, "duration": 200, "velocity": 100}, {"time": 148572, "pitch": 60, "duration": 190, "velocity": 105}, {"time": 148582, "pitch": 64, "duration": 180, "velocity": 110}, {"time": 148782, "pitch": 45, "duration": 480, "velocity": 120}, {"time": 148792, "pitch": 50, "duration": 480, "velocity": 105}, {"time": 148802, "pitch": 57, "duration": 480, "velocity": 110}, {"time": 148812, "pitch": 62, "duration": 480, "velocity": 115}, {"time": 148822, "pitch": 66, "duration": 480, "velocity": 120}, {"time": 149262, "pitch": 45, "duration": 399, "velocity": 120}, {"time": 149272, "pitch": 50, "duration": 379, "velocity": 105}, {"time": 149282, "pitch": 57, "duration": 359, "velocity": 110}, {"time": 149292, "pitch": 62, "duration": 339, "velocity": 115}, {"time": 149302, "pitch": 66, "duration": 319, "velocity": 120}, {"time": 149621, "pitch": 66, "duration": 160, "velocity": 110}, {"time": 149631, "pitch": 62, "duration": 140, "velocity": 105}, {"time": 149641, "pitch": 57, "duration": 120, "velocity": 100}, {"time": 149651, "pitch": 50, "duration": 100, "velocity": 95}, {"time": 149661, "pitch": 45, "duration": 80, "velocity": 110}, {"time": 149741, "pitch": 45, "duration": 160, "velocity": 120}, {"time": 149751, "pitch": 50, "duration": 150, "velocity": 105}, {"time": 149761, "pitch": 57, "duration": 140, "velocity": 110}, {"time": 149771, "pitch": 62, "duration": 130, "velocity": 115}, {"time": 149781, "pitch": 67, "duration": 120, "velocity": 120}, {"time": 149981, "pitch": 66, "duration": 480, "velocity": 120}, {"time": 149991, "pitch": 62, "duration": 480, "velocity": 115}, {"time": 150001, "pitch": 57, "duration": 480, "velocity": 110}, {"time": 150011, "pitch": 50, "duration": 480, "velocity": 105}, {"time": 150021, "pitch": 45, "duration": 480, "velocity": 120}, {"time": 150461, "pitch": 66, "duration": 220, "velocity": 110}, {"time": 150471, "pitch": 62, "duration": 210, "velocity": 105}, {"time": 150481, "pitch": 57, "duration": 200, "velocity": 100}, {"time": 150491, "pitch": 50, "duration": 190, "velocity": 95}, {"time": 150501, "pitch": 45, "duration": 180, "velocity": 110}, {"time": 150701, "pitch": 48, "duration": 399, "velocity": 120}, {"time": 150711, "pitch": 52, "duration": 379, "velocity": 105}, {"time": 150720, "pitch": 55, "duration": 360, "velocity": 110}, {"time": 150730, "pitch": 60, "duration": 340, "velocity": 115}, {"time": 150740, "pitch": 64, "duration": 320, "velocity": 120}, {"time": 151060, "pitch": 64, "duration": 160, "velocity": 100}, {"time": 151070, "pitch": 60, "duration": 140, "velocity": 95}, {"time": 151080, "pitch": 55, "duration": 120, "velocity": 90}, {"time": 151090, "pitch": 52, "duration": 100, "velocity": 85}, {"time": 151100, "pitch": 48, "duration": 80, "velocity": 100}, {"time": 151180, "pitch": 48, "duration": 405, "velocity": 120}, {"time": 151190, "pitch": 52, "duration": 385, "velocity": 105}, {"time": 151200, "pitch": 55, "duration": 364, "velocity": 110}, {"time": 151210, "pitch": 60, "duration": 344, "velocity": 115}, {"time": 151220, "pitch": 64, "duration": 324, "velocity": 120}, {"time": 151544, "pitch": 64, "duration": 162, "velocity": 100}, {"time": 151554, "pitch": 59, "duration": 142, "velocity": 95}, {"time": 151564, "pitch": 55, "duration": 122, "velocity": 90}, {"time": 151575, "pitch": 52, "duration": 101, "velocity": 85}, {"time": 151585, "pitch": 47, "duration": 81, "velocity": 100}, {"time": 151666, "pitch": 47, "duration": 480, "velocity": 120}, {"time": 151676, "pitch": 52, "duration": 480, "velocity": 105}, {"time": 151686, "pitch": 55, "duration": 480, "velocity": 110}, {"time": 151696, "pitch": 59, "duration": 480, "velocity": 115}, {"time": 151706, "pitch": 64, "duration": 479, "velocity": 120}, {"time": 152146, "pitch": 45, "duration": 159, "velocity": 110}, {"time": 152156, "pitch": 52, "duration": 139, "velocity": 95}, {"time": 152166, "pitch": 55, "duration": 119, "velocity": 100}, {"time": 152176, "pitch": 60, "duration": 99, "velocity": 105}, {"time": 152185, "pitch": 64, "duration": 80, "velocity": 110}, {"time": 152265, "pitch": 64, "duration": 160, "velocity": 105}, {"time": 152275, "pitch": 60, "duration": 140, "velocity": 100}, {"time": 152285, "pitch": 55, "duration": 120, "velocity": 95}, {"time": 152295, "pitch": 52, "duration": 100, "velocity": 90}, {"time": 152305, "pitch": 45, "duration": 80, "velocity": 105}, {"time": 152385, "pitch": 45, "duration": 220, "velocity": 110}, {"time": 152395, "pitch": 52, "duration": 210, "velocity": 95}, {"time": 152405, "pitch": 55, "duration": 200, "velocity": 100}, {"time": 152415, "pitch": 60, "duration": 190, "velocity": 105}, {"time": 152425, "pitch": 64, "duration": 180, "velocity": 110}, {"time": 152625, "pitch": 45, "duration": 480, "velocity": 120}, {"time": 152635, "pitch": 50, "duration": 480, "velocity": 105}, {"time": 152645, "pitch": 57, "duration": 480, "velocity": 110}, {"time": 152655, "pitch": 62, "duration": 480, "velocity": 115}, {"time": 152665, "pitch": 66, "duration": 480, "velocity": 120}, {"time": 153105, "pitch": 45, "duration": 400, "velocity": 120}, {"time": 153115, "pitch": 50, "duration": 380, "velocity": 105}, {"time": 153125, "pitch": 57, "duration": 360, "velocity": 110}, {"time": 153135, "pitch": 62, "duration": 340, "velocity": 115}, {"time": 153145, "pitch": 66, "duration": 320, "velocity": 120}, {"time": 153465, "pitch": 66, "duration": 159, "velocity": 110}, {"time": 153475, "pitch": 62, "duration": 139, "velocity": 105}, {"time": 153485, "pitch": 57, "duration": 119, "velocity": 100}, {"time": 153495, "pitch": 50, "duration": 99, "velocity": 95}, {"time": 153505, "pitch": 45, "duration": 79, "velocity": 110}, {"time": 153584, "pitch": 45, "duration": 160, "velocity": 120}, {"time": 153594, "pitch": 50, "duration": 150, "velocity": 105}, {"time": 153604, "pitch": 57, "duration": 140, "velocity": 110}, {"time": 153614, "pitch": 62, "duration": 130, "velocity": 115}, {"time": 153624, "pitch": 67, "duration": 120, "velocity": 120}, {"time": 153824, "pitch": 66, "duration": 480, "velocity": 120}, {"time": 153834, "pitch": 62, "duration": 480, "velocity": 115}, {"time": 153844, "pitch": 57, "duration": 480, "velocity": 110}, {"time": 153854, "pitch": 50, "duration": 480, "velocity": 105}, {"time": 153864, "pitch": 45, "duration": 480, "velocity": 120}, {"time": 154304, "pitch": 66, "duration": 220, "velocity": 110}, {"time": 154314, "pitch": 62, "duration": 210, "velocity": 105}, {"time": 154324, "pitch": 57, "duration": 200, "velocity": 100}, {"time": 154334, "pitch": 50, "duration": 190, "velocity": 95}, {"time": 154344, "pitch": 45, "duration": 180, "velocity": 110}, {"time": 154544, "pitch": 45, "duration": 479, "velocity": 110}, {"time": 154554, "pitch": 50, "duration": 479, "velocity": 95}, {"time": 154564, "pitch": 57, "duration": 479, "velocity": 100}, {"time": 154574, "pitch": 62, "duration": 479, "velocity": 105}, {"time": 154584, "pitch": 66, "duration": 479, "velocity": 110}, {"time": 155023, "pitch": 45, "duration": 400, "velocity": 110}, {"time": 155033, "pitch": 50, "duration": 380, "velocity": 95}, {"time": 155043, "pitch": 57, "duration": 360, "velocity": 100}, {"time": 155053, "pitch": 62, "duration": 340, "velocity": 105}, {"time": 155063, "pitch": 66, "duration": 320, "velocity": 110}, {"time": 155383, "pitch": 66, "duration": 160, "velocity": 100}, {"time": 155393, "pitch": 62, "duration": 140, "velocity": 95}, {"time": 155403, "pitch": 57, "duration": 120, "velocity": 90}, {"time": 155413, "pitch": 50, "duration": 100, "velocity": 85}, {"time": 155423, "pitch": 45, "duration": 80, "velocity": 100}, {"time": 155503, "pitch": 45, "duration": 240, "velocity": 110}, {"time": 155513, "pitch": 50, "duration": 240, "velocity": 95}, {"time": 155523, "pitch": 57, "duration": 240, "velocity": 100}, {"time": 155533, "pitch": 62, "duration": 240, "velocity": 105}, {"time": 155543, "pitch": 67, "duration": 240, "velocity": 110}, {"time": 155743, "pitch": 45, "duration": 160, "velocity": 100}, {"time": 155753, "pitch": 50, "duration": 140, "velocity": 85}, {"time": 155763, "pitch": 57, "duration": 120, "velocity": 90}, {"time": 155773, "pitch": 62, "duration": 100, "velocity": 95}, {"time": 155783, "pitch": 66, "duration": 80, "velocity": 100}, {"time": 155863, "pitch": 64, "duration": 240, "velocity": 105}, {"time": 155873, "pitch": 62, "duration": 240, "velocity": 100}, {"time": 155883, "pitch": 57, "duration": 240, "velocity": 95}, {"time": 155893, "pitch": 50, "duration": 240, "velocity": 90}, {"time": 155903, "pitch": 45, "duration": 240, "velocity": 105}, {"time": 156103, "pitch": 64, "duration": 160, "velocity": 100}, {"time": 156113, "pitch": 62, "duration": 140, "velocity": 95}, {"time": 156123, "pitch": 57, "duration": 120, "velocity": 90}, {"time": 156133, "pitch": 50, "duration": 100, "velocity": 85}, {"time": 156143, "pitch": 45, "duration": 80, "velocity": 100}, {"time": 156223, "pitch": 45, "duration": 239, "velocity": 105}, {"time": 156233, "pitch": 50, "duration": 239, "velocity": 90}, {"time": 156243, "pitch": 57, "duration": 239, "velocity": 95}, {"time": 156253, "pitch": 62, "duration": 239, "velocity": 100}, {"time": 156263, "pitch": 67, "duration": 239, "velocity": 105}, {"time": 156462, "pitch": 45, "duration": 480, "velocity": 120}, {"time": 156472, "pitch": 50, "duration": 480, "velocity": 105}, {"time": 156482, "pitch": 57, "duration": 480, "velocity": 110}, {"time": 156492, "pitch": 62, "duration": 480, "velocity": 115}, {"time": 156502, "pitch": 66, "duration": 480, "velocity": 120}, {"time": 156942, "pitch": 45, "duration": 400, "velocity": 120}, {"time": 156952, "pitch": 50, "duration": 380, "velocity": 105}, {"time": 156962, "pitch": 57, "duration": 360, "velocity": 110}, {"time": 156972, "pitch": 62, "duration": 340, "velocity": 115}, {"time": 156982, "pitch": 66, "duration": 320, "velocity": 120}, {"time": 157302, "pitch": 66, "duration": 160, "velocity": 110}, {"time": 157312, "pitch": 62, "duration": 140, "velocity": 105}, {"time": 157322, "pitch": 57, "duration": 120, "velocity": 100}, {"time": 157332, "pitch": 50, "duration": 100, "velocity": 95}, {"time": 157342, "pitch": 45, "duration": 80, "velocity": 110}, {"time": 157422, "pitch": 45, "duration": 160, "velocity": 120}, {"time": 157432, "pitch": 50, "duration": 150, "velocity": 105}, {"time": 157442, "pitch": 57, "duration": 140, "velocity": 110}, {"time": 157452, "pitch": 62, "duration": 130, "velocity": 115}, {"time": 157462, "pitch": 67, "duration": 120, "velocity": 120}, {"time": 157661, "pitch": 66, "duration": 480, "velocity": 120}, {"time": 157671, "pitch": 62, "duration": 480, "velocity": 115}, {"time": 157681, "pitch": 57, "duration": 480, "velocity": 110}, {"time": 157691, "pitch": 50, "duration": 480, "velocity": 105}, {"time": 157701, "pitch": 45, "duration": 480, "velocity": 120}, {"time": 158141, "pitch": 66, "duration": 220, "velocity": 110}, {"time": 158151, "pitch": 62, "duration": 210, "velocity": 105}, {"time": 158161, "pitch": 57, "duration": 200, "velocity": 100}, {"time": 158171, "pitch": 50, "duration": 190, "velocity": 95}, {"time": 158181, "pitch": 45, "duration": 180, "velocity": 110}, {"time": 158381, "pitch": 48, "duration": 400, "velocity": 120}, {"time": 158391, "pitch": 52, "duration": 380, "velocity": 105}, {"time": 158401, "pitch": 55, "duration": 360, "velocity": 110}, {"time": 158411, "pitch": 60, "duration": 340, "velocity": 115}, {"time": 158421, "pitch": 64, "duration": 320, "velocity": 120}, {"time": 158741, "pitch": 64, "duration": 160, "velocity": 100}, {"time": 158751, "pitch": 60, "duration": 140, "velocity": 95}, {"time": 158761, "pitch": 55, "duration": 120, "velocity": 90}, {"time": 158771, "pitch": 52, "duration": 100, "velocity": 85}, {"time": 158781, "pitch": 48, "duration": 80, "velocity": 100}, {"time": 158861, "pitch": 48, "duration": 399, "velocity": 120}, {"time": 158871, "pitch": 52, "duration": 379, "velocity": 105}, {"time": 158881, "pitch": 55, "duration": 359, "velocity": 110}, {"time": 158891, "pitch": 60, "duration": 339, "velocity": 115}, {"time": 158901, "pitch": 64, "duration": 319, "velocity": 120}, {"time": 159220, "pitch": 64, "duration": 160, "velocity": 100}, {"time": 159230, "pitch": 59, "duration": 140, "velocity": 95}, {"time": 159240, "pitch": 55, "duration": 120, "velocity": 90}, {"time": 159250, "pitch": 52, "duration": 100, "velocity": 85}, {"time": 159260, "pitch": 47, "duration": 80, "velocity": 100}, {"time": 159340, "pitch": 47, "duration": 486, "velocity": 120}, {"time": 159350, "pitch": 52, "duration": 486, "velocity": 105}, {"time": 159360, "pitch": 55, "duration": 486, "velocity": 110}, {"time": 159370, "pitch": 59, "duration": 486, "velocity": 115}, {"time": 159380, "pitch": 64, "duration": 486, "velocity": 120}, {"time": 159826, "pitch": 45, "duration": 160, "velocity": 110}, {"time": 159836, "pitch": 52, "duration": 140, "velocity": 95}, {"time": 159846, "pitch": 55, "duration": 120, "velocity": 100}, {"time": 159856, "pitch": 60, "duration": 100, "velocity": 105}, {"time": 159866, "pitch": 64, "duration": 80, "velocity": 110}, {"time": 159946, "pitch": 64, "duration": 160, "velocity": 105}, {"time": 159956, "pitch": 60, "duration": 140, "velocity": 100}, {"time": 159966, "pitch": 55, "duration": 120, "velocity": 95}, {"time": 159976, "pitch": 52, "duration": 100, "velocity": 90}, {"time": 159986, "pitch": 45, "duration": 80, "velocity": 105}, {"time": 160066, "pitch": 45, "duration": 220, "velocity": 110}, {"time": 160076, "pitch": 52, "duration": 210, "velocity": 95}, {"time": 160086, "pitch": 55, "duration": 200, "velocity": 100}, {"time": 160096, "pitch": 60, "duration": 190, "velocity": 105}, {"time": 160106, "pitch": 64, "duration": 180, "velocity": 110}, {"time": 160306, "pitch": 45, "duration": 479, "velocity": 120}, {"time": 160316, "pitch": 50, "duration": 479, "velocity": 105}, {"time": 160326, "pitch": 57, "duration": 479, "velocity": 110}, {"time": 160336, "pitch": 62, "duration": 479, "velocity": 115}, {"time": 160346, "pitch": 66, "duration": 479, "velocity": 120}, {"time": 160785, "pitch": 45, "duration": 400, "velocity": 120}, {"time": 160795, "pitch": 50, "duration": 380, "velocity": 105}, {"time": 160805, "pitch": 57, "duration": 360, "velocity": 110}, {"time": 160815, "pitch": 62, "duration": 340, "velocity": 115}, {"time": 160825, "pitch": 66, "duration": 320, "velocity": 120}, {"time": 161145, "pitch": 66, "duration": 160, "velocity": 110}, {"time": 161155, "pitch": 62, "duration": 140, "velocity": 105}, {"time": 161165, "pitch": 57, "duration": 120, "velocity": 100}, {"time": 161175, "pitch": 50, "duration": 100, "velocity": 95}, {"time": 161185, "pitch": 45, "duration": 80, "velocity": 110}, {"time": 161265, "pitch": 45, "duration": 160, "velocity": 120}, {"time": 161275, "pitch": 50, "duration": 150, "velocity": 105}, {"time": 161285, "pitch": 57, "duration": 140, "velocity": 110}, {"time": 161295, "pitch": 62, "duration": 130, "velocity": 115}, {"time": 161305, "pitch": 67, "duration": 120, "velocity": 120}, {"time": 161505, "pitch": 66, "duration": 479, "velocity": 120}, {"time": 161515, "pitch": 62, "duration": 479, "velocity": 115}, {"time": 161525, "pitch": 57, "duration": 479, "velocity": 110}, {"time": 161535, "pitch": 50, "duration": 479, "velocity": 105}, {"time": 161545, "pitch": 45, "duration": 479, "velocity": 120}, {"time": 161984, "pitch": 66, "duration": 220, "velocity": 110}, {"time": 161994, "pitch": 62, "duration": 210, "velocity": 105}, {"time": 162004, "pitch": 57, "duration": 200, "velocity": 100}, {"time": 162014, "pitch": 50, "duration": 190, "velocity": 95}, {"time": 162024, "pitch": 45, "duration": 180, "velocity": 110}, {"time": 162224, "pitch": 48, "duration": 400, "velocity": 120}, {"time": 162234, "pitch": 52, "duration": 380, "velocity": 105}, {"time": 162244, "pitch": 55, "duration": 360, "velocity": 110}, {"time": 162254, "pitch": 60, "duration": 340, "velocity": 115}, {"time": 162264, "pitch": 64, "duration": 320, "velocity": 120}, {"time": 162584, "pitch": 64, "duration": 160, "velocity": 100}, {"time": 162594, "pitch": 60, "duration": 140, "velocity": 95}, {"time": 162604, "pitch": 55, "duration": 120, "velocity": 90}, {"time": 162614, "pitch": 52, "duration": 100, "velocity": 85}, {"time": 162624, "pitch": 48, "duration": 80, "velocity": 100}, {"time": 162704, "pitch": 48, "duration": 400, "velocity": 120}, {"time": 162714, "pitch": 52, "duration": 380, "velocity": 105}, {"time": 162724, "pitch": 55, "duration": 360, "velocity": 110}, {"time": 162734, "pitch": 60, "duration": 340, "velocity": 115}, {"time": 162744, "pitch": 64, "duration": 320, "velocity": 120}, {"time": 163064, "pitch": 64, "duration": 159, "velocity": 100}, {"time": 163074, "pitch": 59, "duration": 139, "velocity": 95}, {"time": 163084, "pitch": 55, "duration": 119, "velocity": 90}, {"time": 163094, "pitch": 52, "duration": 100, "velocity": 85}, {"time": 163104, "pitch": 47, "duration": 80, "velocity": 100}, {"time": 163184, "pitch": 47, "duration": 479, "velocity": 120}, {"time": 163194, "pitch": 52, "duration": 479, "velocity": 105}, {"time": 163203, "pitch": 55, "duration": 480, "velocity": 110}, {"time": 163213, "pitch": 59, "duration": 480, "velocity": 115}, {"time": 163223, "pitch": 64, "duration": 480, "velocity": 120}, {"time": 163663, "pitch": 45, "duration": 160, "velocity": 110}, {"time": 163673, "pitch": 52, "duration": 140, "velocity": 95}, {"time": 163683, "pitch": 55, "duration": 120, "velocity": 100}, {"time": 163693, "pitch": 60, "duration": 100, "velocity": 105}, {"time": 163703, "pitch": 64, "duration": 80, "velocity": 110}, {"time": 163783, "pitch": 64, "duration": 160, "velocity": 105}, {"time": 163793, "pitch": 60, "duration": 140, "velocity": 100}, {"time": 163803, "pitch": 55, "duration": 120, "velocity": 95}, {"time": 163813, "pitch": 52, "duration": 100, "velocity": 90}, {"time": 163823, "pitch": 45, "duration": 80, "velocity": 105}, {"time": 163903, "pitch": 45, "duration": 220, "velocity": 110}, {"time": 163913, "pitch": 52, "duration": 210, "velocity": 95}, {"time": 163923, "pitch": 55, "duration": 200, "velocity": 100}, {"time": 163933, "pitch": 60, "duration": 190, "velocity": 105}, {"time": 163943, "pitch": 64, "duration": 180, "velocity": 110}, {"time": 164143, "pitch": 45, "duration": 479, "velocity": 120}, {"time": 164153, "pitch": 50, "duration": 479, "velocity": 105}, {"time": 164163, "pitch": 57, "duration": 479, "velocity": 110}, {"time": 164173, "pitch": 62, "duration": 479, "velocity": 115}, {"time": 164183, "pitch": 66, "duration": 479, "velocity": 120}, {"time": 164622, "pitch": 45, "duration": 400, "velocity": 120}, {"time": 164632, "pitch": 50, "duration": 380, "velocity": 105}, {"time": 164642, "pitch": 57, "duration": 360, "velocity": 110}, {"time": 164652, "pitch": 62, "duration": 340, "velocity": 115}, {"time": 164662, "pitch": 66, "duration": 320, "velocity": 120}, {"time": 164982, "pitch": 66, "duration": 160, "velocity": 110}, {"time": 164992, "pitch": 62, "duration": 140, "velocity": 105}, {"time": 165002, "pitch": 57, "duration": 120, "velocity": 100}, {"time": 165012, "pitch": 50, "duration": 100, "velocity": 95}, {"time": 165022, "pitch": 45, "duration": 80, "velocity": 110}, {"time": 165102, "pitch": 45, "duration": 160, "velocity": 120}, {"time": 165112, "pitch": 50, "duration": 150, "velocity": 105}, {"time": 165122, "pitch": 57, "duration": 140, "velocity": 110}, {"time": 165132, "pitch": 62, "duration": 130, "velocity": 115}, {"time": 165142, "pitch": 67, "duration": 120, "velocity": 120}, {"time": 165342, "pitch": 66, "duration": 480, "velocity": 120}, {"time": 165352, "pitch": 62, "duration": 480, "velocity": 115}, {"time": 165362, "pitch": 57, "duration": 480, "velocity": 110}, {"time": 165372, "pitch": 50, "duration": 480, "velocity": 105}, {"time": 165382, "pitch": 45, "duration": 480, "velocity": 120}, {"time": 165822, "pitch": 66, "duration": 219, "velocity": 110}, {"time": 165832, "pitch": 62, "duration": 209, "velocity": 105}, {"time": 165842, "pitch": 57, "duration": 199, "velocity": 100}, {"time": 165852, "pitch": 50, "duration": 189, "velocity": 95}, {"time": 165862, "pitch": 45, "duration": 179, "velocity": 110}, {"time": 166061, "pitch": 48, "duration": 400, "velocity": 120}, {"time": 166071, "pitch": 52, "duration": 380, "velocity": 105}, {"time": 166081, "pitch": 55, "duration": 360, "velocity": 110}, {"time": 166091, "pitch": 60, "duration": 340, "velocity": 115}, {"time": 166101, "pitch": 64, "duration": 320, "velocity": 120}, {"time": 166421, "pitch": 64, "duration": 160, "velocity": 100}, {"time": 166431, "pitch": 60, "duration": 140, "velocity": 95}, {"time": 166441, "pitch": 55, "duration": 120, "velocity": 90}, {"time": 166451, "pitch": 52, "duration": 100, "velocity": 85}, {"time": 166461, "pitch": 48, "duration": 80, "velocity": 100}, {"time": 166541, "pitch": 48, "duration": 400, "velocity": 120}, {"time": 166551, "pitch": 52, "duration": 380, "velocity": 105}, {"time": 166561, "pitch": 55, "duration": 360, "velocity": 110}, {"time": 166571, "pitch": 60, "duration": 340, "velocity": 115}, {"time": 166581, "pitch": 64, "duration": 320, "velocity": 120}, {"time": 166901, "pitch": 64, "duration": 160, "velocity": 100}, {"time": 166911, "pitch": 59, "duration": 140, "velocity": 95}, {"time": 166921, "pitch": 55, "duration": 120, "velocity": 90}, {"time": 166931, "pitch": 52, "duration": 100, "velocity": 85}, {"time": 166941, "pitch": 47, "duration": 80, "velocity": 100}, {"time": 167021, "pitch": 47, "duration": 479, "velocity": 120}, {"time": 167031, "pitch": 52, "duration": 479, "velocity": 105}, {"time": 167041, "pitch": 55, "duration": 479, "velocity": 110}, {"time": 167051, "pitch": 59, "duration": 479, "velocity": 115}, {"time": 167061, "pitch": 64, "duration": 479, "velocity": 120}, {"time": 167500, "pitch": 45, "duration": 160, "velocity": 110}, {"time": 167510, "pitch": 52, "duration": 140, "velocity": 95}, {"time": 167520, "pitch": 55, "duration": 120, "velocity": 100}, {"time": 167530, "pitch": 60, "duration": 100, "velocity": 105}, {"time": 167540, "pitch": 64, "duration": 80, "velocity": 110}, {"time": 167620, "pitch": 64, "duration": 160, "velocity": 105}, {"time": 167630, "pitch": 60, "duration": 140, "velocity": 100}, {"time": 167640, "pitch": 55, "duration": 120, "velocity": 95}, {"time": 167650, "pitch": 52, "duration": 100, "velocity": 90}, {"time": 167660, "pitch": 45, "duration": 80, "velocity": 105}, {"time": 167740, "pitch": 45, "duration": 220, "velocity": 110}, {"time": 167750, "pitch": 52, "duration": 210, "velocity": 95}, {"time": 167760, "pitch": 55, "duration": 200, "velocity": 100}, {"time": 167770, "pitch": 60, "duration": 190, "velocity": 105}, {"time": 167780, "pitch": 64, "duration": 180, "velocity": 110}, {"time": 167980, "pitch": 45, "duration": 486, "velocity": 120}, {"time": 167990, "pitch": 50, "duration": 486, "velocity": 105}, {"time": 168000, "pitch": 57, "duration": 486, "velocity": 110}, {"time": 168010, "pitch": 62, "duration": 486, "velocity": 115}, {"time": 168020, "pitch": 66, "duration": 486, "velocity": 120}, {"time": 168466, "pitch": 45, "duration": 399, "velocity": 120}, {"time": 168476, "pitch": 50, "duration": 379, "velocity": 105}, {"time": 168486, "pitch": 57, "duration": 359, "velocity": 110}, {"time": 168496, "pitch": 62, "duration": 339, "velocity": 115}, {"time": 168506, "pitch": 66, "duration": 319, "velocity": 120}, {"time": 168825, "pitch": 66, "duration": 160, "velocity": 110}, {"time": 168835, "pitch": 62, "duration": 140, "velocity": 105}, {"time": 168845, "pitch": 57, "duration": 120, "velocity": 100}, {"time": 168855, "pitch": 50, "duration": 100, "velocity": 95}, {"time": 168865, "pitch": 45, "duration": 80, "velocity": 110}, {"time": 168945, "pitch": 45, "duration": 160, "velocity": 120}, {"time": 168955, "pitch": 50, "duration": 150, "velocity": 105}, {"time": 168965, "pitch": 57, "duration": 140, "velocity": 110}, {"time": 168975, "pitch": 62, "duration": 130, "velocity": 115}, {"time": 168985, "pitch": 67, "duration": 120, "velocity": 120}, {"time": 169185, "pitch": 66, "duration": 480, "velocity": 120}, {"time": 169195, "pitch": 62, "duration": 480, "velocity": 115}, {"time": 169205, "pitch": 57, "duration": 480, "velocity": 110}, {"time": 169215, "pitch": 50, "duration": 480, "velocity": 105}, {"time": 169225, "pitch": 45, "duration": 480, "velocity": 120}, {"time": 169665, "pitch": 66, "duration": 220, "velocity": 110}, {"time": 169675, "pitch": 62, "duration": 210, "velocity": 105}, {"time": 169685, "pitch": 57, "duration": 200, "velocity": 100}, {"time": 169695, "pitch": 50, "duration": 190, "velocity": 95}, {"time": 169705, "pitch": 45, "duration": 180, "velocity": 110}, {"time": 169905, "pitch": 48, "duration": 399, "velocity": 120}, {"time": 169915, "pitch": 52, "duration": 379, "velocity": 105}, {"time": 169925, "pitch": 55, "duration": 359, "velocity": 110}, {"time": 169935, "pitch": 60, "duration": 339, "velocity": 115}, {"time": 169945, "pitch": 64, "duration": 319, "velocity": 120}, {"time": 170264, "pitch": 64, "duration": 160, "velocity": 100}, {"time": 170274, "pitch": 60, "duration": 140, "velocity": 95}, {"time": 170284, "pitch": 55, "duration": 120, "velocity": 90}, {"time": 170294, "pitch": 52, "duration": 100, "velocity": 85}, {"time": 170304, "pitch": 48, "duration": 80, "velocity": 100}, {"time": 170384, "pitch": 48, "duration": 400, "velocity": 120}, {"time": 170394, "pitch": 52, "duration": 380, "velocity": 105}, {"time": 170404, "pitch": 55, "duration": 360, "velocity": 110}, {"time": 170414, "pitch": 60, "duration": 340, "velocity": 115}, {"time": 170424, "pitch": 64, "duration": 320, "velocity": 120}, {"time": 170744, "pitch": 64, "duration": 160, "velocity": 100}, {"time": 170754, "pitch": 59, "duration": 140, "velocity": 95}, {"time": 170764, "pitch": 55, "duration": 120, "velocity": 90}, {"time": 170774, "pitch": 52, "duration": 100, "velocity": 85}, {"time": 170784, "pitch": 47, "duration": 80, "velocity": 100}, {"time": 170864, "pitch": 47, "duration": 480, "velocity": 120}, {"time": 170874, "pitch": 52, "duration": 480, "velocity": 105}, {"time": 170884, "pitch": 55, "duration": 480, "velocity": 110}, {"time": 170894, "pitch": 59, "duration": 480, "velocity": 115}, {"time": 170904, "pitch": 64, "duration": 480, "velocity": 120}, {"time": 171344, "pitch": 45, "duration": 159, "velocity": 110}, {"time": 171354, "pitch": 52, "duration": 139, "velocity": 95}, {"time": 171364, "pitch": 55, "duration": 120, "velocity": 100}, {"time": 171374, "pitch": 60, "duration": 100, "velocity": 105}, {"time": 171384, "pitch": 64, "duration": 80, "velocity": 110}, {"time": 171464, "pitch": 64, "duration": 159, "velocity": 105}, {"time": 171474, "pitch": 60, "duration": 139, "velocity": 100}, {"time": 171484, "pitch": 55, "duration": 119, "velocity": 95}, {"time": 171493, "pitch": 52, "duration": 100, "velocity": 90}, {"time": 171503, "pitch": 45, "duration": 80, "velocity": 105}, {"time": 171583, "pitch": 45, "duration": 220, "velocity": 110}, {"time": 171593, "pitch": 52, "duration": 210, "velocity": 95}, {"time": 171603, "pitch": 55, "duration": 200, "velocity": 100}, {"time": 171613, "pitch": 60, "duration": 190, "velocity": 105}, {"time": 171623, "pitch": 64, "duration": 180, "velocity": 110}, {"time": 171823, "pitch": 45, "duration": 480, "velocity": 120}, {"time": 171833, "pitch": 50, "duration": 480, "velocity": 105}, {"time": 171843, "pitch": 57, "duration": 480, "velocity": 110}, {"time": 171853, "pitch": 62, "duration": 480, "velocity": 115}, {"time": 171863, "pitch": 66, "duration": 480, "velocity": 120}, {"time": 172303, "pitch": 45, "duration": 400, "velocity": 120}, {"time": 172313, "pitch": 50, "duration": 380, "velocity": 105}, {"time": 172323, "pitch": 57, "duration": 360, "velocity": 110}, {"time": 172333, "pitch": 62, "duration": 340, "velocity": 115}, {"time": 172343, "pitch": 66, "duration": 320, "velocity": 120}, {"time": 172663, "pitch": 66, "duration": 160, "velocity": 110}, {"time": 172673, "pitch": 62, "duration": 140, "velocity": 105}, {"time": 172683, "pitch": 57, "duration": 120, "velocity": 100}, {"time": 172693, "pitch": 50, "duration": 100, "velocity": 95}, {"time": 172703, "pitch": 45, "duration": 80, "velocity": 110}, {"time": 172783, "pitch": 45, "duration": 159, "velocity": 120}, {"time": 172793, "pitch": 50, "duration": 149, "velocity": 105}, {"time": 172803, "pitch": 57, "duration": 139, "velocity": 110}, {"time": 172813, "pitch": 62, "duration": 129, "velocity": 115}, {"time": 172823, "pitch": 67, "duration": 119, "velocity": 120}, {"time": 173022, "pitch": 66, "duration": 480, "velocity": 120}, {"time": 173032, "pitch": 62, "duration": 480, "velocity": 115}, {"time": 173042, "pitch": 57, "duration": 480, "velocity": 110}, {"time": 173052, "pitch": 50, "duration": 480, "velocity": 105}, {"time": 173062, "pitch": 45, "duration": 480, "velocity": 120}, {"time": 173502, "pitch": 66, "duration": 220, "velocity": 110}, {"time": 173512, "pitch": 62, "duration": 210, "velocity": 105}, {"time": 173522, "pitch": 57, "duration": 200, "velocity": 100}, {"time": 173532, "pitch": 50, "duration": 190, "velocity": 95}, {"time": 173542, "pitch": 45, "duration": 180, "velocity": 110}, {"time": 173742, "pitch": 48, "duration": 400, "velocity": 120}, {"time": 173752, "pitch": 52, "duration": 380, "velocity": 105}, {"time": 173762, "pitch": 55, "duration": 360, "velocity": 110}, {"time": 173772, "pitch": 60, "duration": 340, "velocity": 115}, {"time": 173782, "pitch": 64, "duration": 320, "velocity": 120}, {"time": 174102, "pitch": 64, "duration": 159, "velocity": 100}, {"time": 174112, "pitch": 60, "duration": 139, "velocity": 95}, {"time": 174122, "pitch": 55, "duration": 119, "velocity": 90}, {"time": 174132, "pitch": 52, "duration": 99, "velocity": 85}, {"time": 174142, "pitch": 48, "duration": 79, "velocity": 100}, {"time": 174221, "pitch": 48, "duration": 400, "velocity": 120}, {"time": 174231, "pitch": 52, "duration": 380, "velocity": 105}, {"time": 174241, "pitch": 55, "duration": 360, "velocity": 110}, {"time": 174251, "pitch": 60, "duration": 340, "velocity": 115}, {"time": 174261, "pitch": 64, "duration": 320, "velocity": 120}, {"time": 174581, "pitch": 64, "duration": 160, "velocity": 100}, {"time": 174591, "pitch": 59, "duration": 140, "velocity": 95}, {"time": 174601, "pitch": 55, "duration": 120, "velocity": 90}, {"time": 174611, "pitch": 52, "duration": 100, "velocity": 85}, {"time": 174621, "pitch": 47, "duration": 80, "velocity": 100}, {"time": 174701, "pitch": 47, "duration": 480, "velocity": 120}, {"time": 174711, "pitch": 52, "duration": 480, "velocity": 105}, {"time": 174721, "pitch": 55, "duration": 480, "velocity": 110}, {"time": 174731, "pitch": 59, "duration": 480, "velocity": 115}, {"time": 174741, "pitch": 64, "duration": 480, "velocity": 120}, {"time": 175181, "pitch": 45, "duration": 160, "velocity": 110}, {"time": 175191, "pitch": 52, "duration": 140, "velocity": 95}, {"time": 175201, "pitch": 55, "duration": 120, "velocity": 100}, {"time": 175211, "pitch": 60, "duration": 100, "velocity": 105}, {"time": 175221, "pitch": 64, "duration": 80, "velocity": 110}, {"time": 175301, "pitch": 64, "duration": 160, "velocity": 105}, {"time": 175311, "pitch": 60, "duration": 140, "velocity": 100}, {"time": 175321, "pitch": 55, "duration": 120, "velocity": 95}, {"time": 175331, "pitch": 52, "duration": 100, "velocity": 90}, {"time": 175341, "pitch": 45, "duration": 80, "velocity": 105}, {"time": 175421, "pitch": 45, "duration": 219, "velocity": 110}, {"time": 175431, "pitch": 52, "duration": 209, "velocity": 95}, {"time": 175441, "pitch": 55, "duration": 199, "velocity": 100}, {"time": 175451, "pitch": 60, "duration": 189, "velocity": 105}, {"time": 175461, "pitch": 64, "duration": 179, "velocity": 110}, {"time": 175660, "pitch": 45, "duration": 480, "velocity": 120}, {"time": 175670, "pitch": 50, "duration": 480, "velocity": 105}, {"time": 175680, "pitch": 57, "duration": 480, "velocity": 110}, {"time": 175690, "pitch": 62, "duration": 480, "velocity": 115}, {"time": 175700, "pitch": 66, "duration": 480, "velocity": 120}, {"time": 176140, "pitch": 45, "duration": 405, "velocity": 120}, {"time": 176150, "pitch": 50, "duration": 385, "velocity": 105}, {"time": 176160, "pitch": 57, "duration": 364, "velocity": 110}, {"time": 176170, "pitch": 62, "duration": 344, "velocity": 115}, {"time": 176180, "pitch": 66, "duration": 324, "velocity": 120}, {"time": 176504, "pitch": 66, "duration": 162, "velocity": 110}, {"time": 176514, "pitch": 62, "duration": 142, "velocity": 105}, {"time": 176524, "pitch": 57, "duration": 122, "velocity": 100}, {"time": 176535, "pitch": 50, "duration": 101, "velocity": 95}, {"time": 176545, "pitch": 45, "duration": 81, "velocity": 110}, {"time": 176626, "pitch": 45, "duration": 160, "velocity": 120}, {"time": 176636, "pitch": 50, "duration": 150, "velocity": 105}, {"time": 176646, "pitch": 57, "duration": 140, "velocity": 110}, {"time": 176656, "pitch": 62, "duration": 130, "velocity": 115}, {"time": 176666, "pitch": 67, "duration": 120, "velocity": 120}, {"time": 176866, "pitch": 66, "duration": 479, "velocity": 120}, {"time": 176876, "pitch": 62, "duration": 479, "velocity": 115}, {"time": 176886, "pitch": 57, "duration": 479, "velocity": 110}, {"time": 176896, "pitch": 50, "duration": 479, "velocity": 105}, {"time": 176906, "pitch": 45, "duration": 479, "velocity": 120}, {"time": 177345, "pitch": 66, "duration": 220, "velocity": 110}, {"time": 177355, "pitch": 62, "duration": 210, "velocity": 105}, {"time": 177365, "pitch": 57, "duration": 200, "velocity": 100}, {"time": 177375, "pitch": 50, "duration": 190, "velocity": 95}, {"time": 177385, "pitch": 45, "duration": 180, "velocity": 110}, {"time": 177585, "pitch": 48, "duration": 400, "velocity": 120}, {"time": 177595, "pitch": 52, "duration": 380, "velocity": 105}, {"time": 177605, "pitch": 55, "duration": 360, "velocity": 110}, {"time": 177615, "pitch": 60, "duration": 340, "velocity": 115}, {"time": 177625, "pitch": 64, "duration": 320, "velocity": 120}, {"time": 177945, "pitch": 64, "duration": 160, "velocity": 100}, {"time": 177955, "pitch": 60, "duration": 140, "velocity": 95}, {"time": 177965, "pitch": 55, "duration": 120, "velocity": 90}, {"time": 177975, "pitch": 52, "duration": 100, "velocity": 85}, {"time": 177985, "pitch": 48, "duration": 80, "velocity": 100}, {"time": 178065, "pitch": 48, "duration": 399, "velocity": 120}, {"time": 178075, "pitch": 52, "duration": 379, "velocity": 105}, {"time": 178085, "pitch": 55, "duration": 359, "velocity": 110}, {"time": 178095, "pitch": 60, "duration": 339, "velocity": 115}, {"time": 178105, "pitch": 64, "duration": 319, "velocity": 120}, {"time": 178424, "pitch": 64, "duration": 160, "velocity": 100}, {"time": 178434, "pitch": 59, "duration": 140, "velocity": 95}, {"time": 178444, "pitch": 55, "duration": 120, "velocity": 90}, {"time": 178454, "pitch": 52, "duration": 100, "velocity": 85}, {"time": 178464, "pitch": 47, "duration": 80, "velocity": 100}, {"time": 178544, "pitch": 47, "duration": 480, "velocity": 120}, {"time": 178554, "pitch": 52, "duration": 480, "velocity": 105}, {"time": 178564, "pitch": 55, "duration": 480, "velocity": 110}, {"time": 178574, "pitch": 59, "duration": 480, "velocity": 115}, {"time": 178584, "pitch": 64, "duration": 480, "velocity": 120}, {"time": 179024, "pitch": 45, "duration": 160, "velocity": 110}, {"time": 179034, "pitch": 52, "duration": 140, "velocity": 95}, {"time": 179044, "pitch": 55, "duration": 120, "velocity": 100}, {"time": 179054, "pitch": 60, "duration": 100, "velocity": 105}, {"time": 179064, "pitch": 64, "duration": 80, "velocity": 110}, {"time": 179144, "pitch": 64, "duration": 160, "velocity": 105}, {"time": 179154, "pitch": 60, "duration": 140, "velocity": 100}, {"time": 179164, "pitch": 55, "duration": 120, "velocity": 95}, {"time": 179174, "pitch": 52, "duration": 100, "velocity": 90}, {"time": 179184, "pitch": 45, "duration": 80, "velocity": 105}, {"time": 179264, "pitch": 45, "duration": 220, "velocity": 110}, {"time": 179274, "pitch": 52, "duration": 210, "velocity": 95}, {"time": 179284, "pitch": 55, "duration": 200, "velocity": 100}, {"time": 179294, "pitch": 60, "duration": 190, "velocity": 105}, {"time": 179304, "pitch": 64, "duration": 180, "velocity": 110}, {"time": 179504, "pitch": 45, "duration": 9473, "velocity": 120}, {"time": 179524, "pitch": 50, "duration": 9453, "velocity": 105}, {"time": 179544, "pitch": 57, "duration": 9433, "velocity": 110}, {"time": 179564, "pitch": 62, "duration": 9413, "velocity": 115}, {"time": 179584, "pitch": 66, "duration": 9393, "velocity": 120}], "annotations": [{"time": 80, "annotation": {"number": 7, "value": 70}, "group": "control_change"}, {"time": 86, "annotation": {"number": 10, "value": 127}, "group": "control_change"}, {"time": 92, "annotation": {"number": 11, "value": 100}, "group": "control_change"}, {"time": 98, "annotation": {"number": 91, "value": 60}, "group": "control_change"}, {"time": 104, "annotation": {"number": 93, "value": 0}, "group": "control_change"}, {"time": 178, "annotation": {"number": 101, "value": 0}, "group": "control_change"}, {"time": 184, "annotation": {"number": 100, "value": 0}, "group": "control_change"}, {"time": 190, "annotation": {"number": 6, "value": 12}, "group": "control_change"}, {"time": 196, "annotation": {"number": 1, "value": 0}, "group": "control_change"}, {"time": 209, "annotation": {"number": 64, "value": 0}, "group": "control_change"}]}, {"program": 0, "is_drum": false, "name": "Ac.Guitar.C", "annotations": [{"time": 61, "annotation": {"number": 0, "value": 0}, "group": "control_change"}, {"time": 67, "annotation": {"number": 32, "value": 2}, "group": "control_change"}]}, {"program": 25, "is_drum": false, "name": "Ac.Guitar.C", "notes": [{"time": 940, "pitch": 45, "duration": 240, "velocity": 120}, {"time": 951, "pitch": 50, "duration": 240, "velocity": 105}, {"time": 951, "pitch": 57, "duration": 240, "velocity": 110}, {"time": 961, "pitch": 62, "duration": 240, "velocity": 115}, {"time": 961, "pitch": 66, "duration": 240, "velocity": 120}, {"time": 1181, "pitch": 45, "duration": 140, "velocity": 120}, {"time": 1191, "pitch": 50, "duration": 130, "velocity": 105}, {"time": 1191, "pitch": 57, "duration": 120, "velocity": 110}, {"time": 1201, "pitch": 62, "duration": 110, "velocity": 115}, {"time": 1201, "pitch": 66, "duration": 100, "velocity": 120}, {"time": 1301, "pitch": 66, "duration": 140, "velocity": 110}, {"time": 1311, "pitch": 57, "duration": 120, "velocity": 100}, {"time": 1311, "pitch": 62, "duration": 130, "velocity": 105}, {"time": 1321, "pitch": 45, "duration": 100, "velocity": 110}, {"time": 1321, "pitch": 50, "duration": 110, "velocity": 95}, {"time": 1421, "pitch": 45, "duration": 239, "velocity": 120}, {"time": 1431, "pitch": 50, "duration": 239, "velocity": 105}, {"time": 1431, "pitch": 57, "duration": 239, "velocity": 110}, {"time": 1441, "pitch": 62, "duration": 239, "velocity": 115}, {"time": 1441, "pitch": 66, "duration": 239, "velocity": 120}, {"time": 1660, "pitch": 45, "duration": 140, "velocity": 120}, {"time": 1670, "pitch": 50, "duration": 130, "velocity": 105}, {"time": 1670, "pitch": 57, "duration": 120, "velocity": 110}, {"time": 1680, "pitch": 62, "duration": 110, "velocity": 115}, {"time": 1680, "pitch": 66, "duration": 100, "velocity": 120}, {"time": 1780, "pitch": 66, "duration": 140, "velocity": 110}, {"time": 1790, "pitch": 57, "duration": 120, "velocity": 100}, {"time": 1790, "pitch": 62, "duration": 130, "velocity": 105}, {"time": 1800, "pitch": 45, "duration": 100, "velocity": 110}, {"time": 1800, "pitch": 50, "duration": 110, "velocity": 95}, {"time": 1900, "pitch": 45, "duration": 243, "velocity": 120}, {"time": 1910, "pitch": 50, "duration": 243, "velocity": 105}, {"time": 1910, "pitch": 57, "duration": 243, "velocity": 110}, {"time": 1920, "pitch": 62, "duration": 243, "velocity": 115}, {"time": 1920, "pitch": 67, "duration": 243, "velocity": 120}, {"time": 2143, "pitch": 45, "duration": 142, "velocity": 120}, {"time": 2153, "pitch": 50, "duration": 132, "velocity": 105}, {"time": 2153, "pitch": 57, "duration": 121, "velocity": 110}, {"time": 2163, "pitch": 62, "duration": 111, "velocity": 115}, {"time": 2163, "pitch": 66, "duration": 101, "velocity": 120}, {"time": 2264, "pitch": 66, "duration": 142, "velocity": 110}, {"time": 2274, "pitch": 57, "duration": 122, "velocity": 100}, {"time": 2274, "pitch": 62, "duration": 132, "velocity": 105}, {"time": 2285, "pitch": 45, "duration": 101, "velocity": 110}, {"time": 2285, "pitch": 50, "duration": 111, "velocity": 95}, {"time": 2386, "pitch": 45, "duration": 240, "velocity": 120}, {"time": 2396, "pitch": 50, "duration": 240, "velocity": 105}, {"time": 2396, "pitch": 57, "duration": 240, "velocity": 110}, {"time": 2406, "pitch": 62, "duration": 240, "velocity": 115}, {"time": 2406, "pitch": 66, "duration": 240, "velocity": 120}, {"time": 2626, "pitch": 45, "duration": 140, "velocity": 120}, {"time": 2636, "pitch": 50, "duration": 130, "velocity": 105}, {"time": 2636, "pitch": 57, "duration": 120, "velocity": 110}, {"time": 2646, "pitch": 62, "duration": 110, "velocity": 115}, {"time": 2646, "pitch": 66, "duration": 100, "velocity": 120}, {"time": 2746, "pitch": 66, "duration": 140, "velocity": 110}, {"time": 2756, "pitch": 57, "duration": 120, "velocity": 100}, {"time": 2756, "pitch": 62, "duration": 130, "velocity": 105}, {"time": 2766, "pitch": 45, "duration": 100, "velocity": 110}, {"time": 2766, "pitch": 50, "duration": 110, "velocity": 95}, {"time": 2866, "pitch": 48, "duration": 239, "velocity": 120}, {"time": 2876, "pitch": 52, "duration": 239, "velocity": 105}, {"time": 2876, "pitch": 55, "duration": 239, "velocity": 110}, {"time": 2886, "pitch": 60, "duration": 239, "velocity": 115}, {"time": 2886, "pitch": 64, "duration": 239, "velocity": 120}, {"time": 3105, "pitch": 48, "duration": 140, "velocity": 120}, {"time": 3115, "pitch": 52, "duration": 130, "velocity": 105}, {"time": 3115, "pitch": 55, "duration": 120, "velocity": 110}, {"time": 3125, "pitch": 60, "duration": 110, "velocity": 115}, {"time": 3125, "pitch": 64, "duration": 100, "velocity": 120}, {"time": 3225, "pitch": 64, "duration": 140, "velocity": 110}, {"time": 3235, "pitch": 55, "duration": 120, "velocity": 100}, {"time": 3235, "pitch": 60, "duration": 130, "velocity": 105}, {"time": 3245, "pitch": 48, "duration": 100, "velocity": 110}, {"time": 3245, "pitch": 52, "duration": 110, "velocity": 95}, {"time": 3345, "pitch": 48, "duration": 240, "velocity": 120}, {"time": 3355, "pitch": 52, "duration": 240, "velocity": 105}, {"time": 3355, "pitch": 55, "duration": 240, "velocity": 110}, {"time": 3365, "pitch": 60, "duration": 240, "velocity": 115}, {"time": 3365, "pitch": 64, "duration": 240, "velocity": 120}, {"time": 3585, "pitch": 47, "duration": 140, "velocity": 120}, {"time": 3595, "pitch": 52, "duration": 130, "velocity": 105}, {"time": 3595, "pitch": 55, "duration": 120, "velocity": 110}, {"time": 3605, "pitch": 59, "duration": 110, "velocity": 115}, {"time": 3605, "pitch": 64, "duration": 100, "velocity": 120}, {"time": 3705, "pitch": 64, "duration": 140, "velocity": 110}, {"time": 3715, "pitch": 55, "duration": 120, "velocity": 100}, {"time": 3715, "pitch": 59, "duration": 130, "velocity": 105}, {"time": 3725, "pitch": 47, "duration": 100, "velocity": 110}, {"time": 3725, "pitch": 52, "duration": 110, "velocity": 95}, {"time": 3825, "pitch": 45, "duration": 240, "velocity": 120}, {"time": 3835, "pitch": 52, "duration": 240, "velocity": 105}, {"time": 3835, "pitch": 55, "duration": 240, "velocity": 110}, {"time": 3845, "pitch": 60, "duration": 240, "velocity": 115}, {"time": 3845, "pitch": 64, "duration": 240, "velocity": 120}, {"time": 4065, "pitch": 45, "duration": 140, "velocity": 120}, {"time": 4075, "pitch": 52, "duration": 130, "velocity": 105}, {"time": 4075, "pitch": 55, "duration": 120, "velocity": 110}, {"time": 4085, "pitch": 60, "duration": 110, "velocity": 115}, {"time": 4085, "pitch": 64, "duration": 100, "velocity": 120}, {"time": 4185, "pitch": 64, "duration": 140, "velocity": 110}, {"time": 4195, "pitch": 55, "duration": 120, "velocity": 100}, {"time": 4195, "pitch": 60, "duration": 130, "velocity": 105}, {"time": 4205, "pitch": 45, "duration": 100, "velocity": 110}, {"time": 4205, "pitch": 52, "duration": 110, "velocity": 95}, {"time": 4305, "pitch": 45, "duration": 239, "velocity": 120}, {"time": 4315, "pitch": 52, "duration": 239, "velocity": 105}, {"time": 4315, "pitch": 55, "duration": 239, "velocity": 110}, {"time": 4325, "pitch": 60, "duration": 239, "velocity": 115}, {"time": 4325, "pitch": 64, "duration": 239, "velocity": 120}, {"time": 4544, "pitch": 45, "duration": 140, "velocity": 120}, {"time": 4554, "pitch": 52, "duration": 130, "velocity": 105}, {"time": 4554, "pitch": 55, "duration": 120, "velocity": 110}, {"time": 4564, "pitch": 60, "duration": 110, "velocity": 115}, {"time": 4564, "pitch": 64, "duration": 100, "velocity": 120}, {"time": 4664, "pitch": 64, "duration": 140, "velocity": 110}, {"time": 4674, "pitch": 55, "duration": 120, "velocity": 100}, {"time": 4674, "pitch": 60, "duration": 130, "velocity": 105}, {"time": 4684, "pitch": 45, "duration": 100, "velocity": 110}, {"time": 4684, "pitch": 52, "duration": 110, "velocity": 95}, {"time": 4784, "pitch": 45, "duration": 240, "velocity": 120}, {"time": 4794, "pitch": 50, "duration": 240, "velocity": 105}, {"time": 4794, "pitch": 57, "duration": 240, "velocity": 110}, {"time": 4804, "pitch": 62, "duration": 240, "velocity": 115}, {"time": 4804, "pitch": 66, "duration": 240, "velocity": 120}, {"time": 5024, "pitch": 45, "duration": 140, "velocity": 120}, {"time": 5034, "pitch": 50, "duration": 130, "velocity": 105}, {"time": 5034, "pitch": 57, "duration": 120, "velocity": 110}, {"time": 5044, "pitch": 62, "duration": 110, "velocity": 115}, {"time": 5044, "pitch": 66, "duration": 100, "velocity": 120}, {"time": 5144, "pitch": 66, "duration": 140, "velocity": 110}, {"time": 5154, "pitch": 57, "duration": 120, "velocity": 100}, {"time": 5154, "pitch": 62, "duration": 130, "velocity": 105}, {"time": 5164, "pitch": 45, "duration": 100, "velocity": 110}, {"time": 5164, "pitch": 50, "duration": 110, "velocity": 95}, {"time": 5264, "pitch": 45, "duration": 240, "velocity": 120}, {"time": 5274, "pitch": 50, "duration": 240, "velocity": 105}, {"time": 5274, "pitch": 57, "duration": 240, "velocity": 110}, {"time": 5284, "pitch": 62, "duration": 240, "velocity": 115}, {"time": 5284, "pitch": 66, "duration": 240, "velocity": 120}, {"time": 5504, "pitch": 45, "duration": 140, "velocity": 120}, {"time": 5514, "pitch": 50, "duration": 130, "velocity": 105}, {"time": 5514, "pitch": 57, "duration": 120, "velocity": 110}, {"time": 5524, "pitch": 62, "duration": 110, "velocity": 115}, {"time": 5524, "pitch": 66, "duration": 100, "velocity": 120}, {"time": 5624, "pitch": 66, "duration": 139, "velocity": 110}, {"time": 5634, "pitch": 57, "duration": 119, "velocity": 100}, {"time": 5634, "pitch": 62, "duration": 129, "velocity": 105}, {"time": 5644, "pitch": 45, "duration": 99, "velocity": 110}, {"time": 5644, "pitch": 50, "duration": 109, "velocity": 95}, {"time": 5743, "pitch": 45, "duration": 240, "velocity": 120}, {"time": 5753, "pitch": 50, "duration": 240, "velocity": 105}, {"time": 5753, "pitch": 57, "duration": 240, "velocity": 110}, {"time": 5763, "pitch": 62, "duration": 240, "velocity": 115}, {"time": 5763, "pitch": 67, "duration": 240, "velocity": 120}, {"time": 5983, "pitch": 45, "duration": 140, "velocity": 120}, {"time": 5993, "pitch": 50, "duration": 130, "velocity": 105}, {"time": 5993, "pitch": 57, "duration": 120, "velocity": 110}, {"time": 6003, "pitch": 62, "duration": 110, "velocity": 115}, {"time": 6003, "pitch": 66, "duration": 100, "velocity": 120}, {"time": 6103, "pitch": 66, "duration": 140, "velocity": 110}, {"time": 6113, "pitch": 57, "duration": 120, "velocity": 100}, {"time": 6113, "pitch": 62, "duration": 130, "velocity": 105}, {"time": 6123, "pitch": 45, "duration": 100, "velocity": 110}, {"time": 6123, "pitch": 50, "duration": 110, "velocity": 95}, {"time": 6223, "pitch": 45, "duration": 240, "velocity": 120}, {"time": 6233, "pitch": 50, "duration": 240, "velocity": 105}, {"time": 6233, "pitch": 57, "duration": 240, "velocity": 110}, {"time": 6243, "pitch": 62, "duration": 240, "velocity": 115}, {"time": 6243, "pitch": 66, "duration": 240, "velocity": 120}, {"time": 6463, "pitch": 45, "duration": 140, "velocity": 120}, {"time": 6473, "pitch": 50, "duration": 130, "velocity": 105}, {"time": 6473, "pitch": 57, "duration": 120, "velocity": 110}, {"time": 6483, "pitch": 62, "duration": 110, "velocity": 115}, {"time": 6483, "pitch": 66, "duration": 100, "velocity": 120}, {"time": 6583, "pitch": 66, "duration": 140, "velocity": 110}, {"time": 6593, "pitch": 57, "duration": 120, "velocity": 100}, {"time": 6593, "pitch": 62, "duration": 130, "velocity": 105}, {"time": 6603, "pitch": 45, "duration": 100, "velocity": 110}, {"time": 6603, "pitch": 50, "duration": 110, "velocity": 95}, {"time": 6703, "pitch": 48, "duration": 240, "velocity": 120}, {"time": 6713, "pitch": 52, "duration": 240, "velocity": 105}, {"time": 6713, "pitch": 55, "duration": 240, "velocity": 110}, {"time": 6723, "pitch": 60, "duration": 240, "velocity": 115}, {"time": 6723, "pitch": 64, "duration": 240, "velocity": 120}, {"time": 6943, "pitch": 48, "duration": 139, "velocity": 120}, {"time": 6953, "pitch": 52, "duration": 129, "velocity": 105}, {"time": 6953, "pitch": 55, "duration": 119, "velocity": 110}, {"time": 6963, "pitch": 60, "duration": 109, "velocity": 115}, {"time": 6963, "pitch": 64, "duration": 99, "velocity": 120}, {"time": 7062, "pitch": 64, "duration": 140, "velocity": 110}, {"time": 7072, "pitch": 55, "duration": 120, "velocity": 100}, {"time": 7072, "pitch": 60, "duration": 130, "velocity": 105}, {"time": 7082, "pitch": 48, "duration": 100, "velocity": 110}, {"time": 7082, "pitch": 52, "duration": 110, "velocity": 95}, {"time": 7182, "pitch": 48, "duration": 240, "velocity": 120}, {"time": 7192, "pitch": 52, "duration": 240, "velocity": 105}, {"time": 7192, "pitch": 55, "duration": 240, "velocity": 110}, {"time": 7202, "pitch": 60, "duration": 240, "velocity": 115}, {"time": 7202, "pitch": 64, "duration": 240, "velocity": 120}, {"time": 7422, "pitch": 47, "duration": 140, "velocity": 120}, {"time": 7432, "pitch": 52, "duration": 130, "velocity": 105}, {"time": 7432, "pitch": 55, "duration": 120, "velocity": 110}, {"time": 7442, "pitch": 59, "duration": 110, "velocity": 115}, {"time": 7442, "pitch": 64, "duration": 100, "velocity": 120}, {"time": 7542, "pitch": 64, "duration": 140, "velocity": 110}, {"time": 7552, "pitch": 55, "duration": 120, "velocity": 100}, {"time": 7552, "pitch": 59, "duration": 130, "velocity": 105}, {"time": 7562, "pitch": 47, "duration": 100, "velocity": 110}, {"time": 7562, "pitch": 52, "duration": 110, "velocity": 95}, {"time": 7662, "pitch": 45, "duration": 240, "velocity": 120}, {"time": 7672, "pitch": 52, "duration": 240, "velocity": 105}, {"time": 7672, "pitch": 55, "duration": 240, "velocity": 110}, {"time": 7682, "pitch": 60, "duration": 240, "velocity": 115}, {"time": 7682, "pitch": 64, "duration": 240, "velocity": 120}, {"time": 7902, "pitch": 45, "duration": 140, "velocity": 120}, {"time": 7912, "pitch": 52, "duration": 130, "velocity": 105}, {"time": 7912, "pitch": 55, "duration": 120, "velocity": 110}, {"time": 7922, "pitch": 60, "duration": 110, "velocity": 115}, {"time": 7922, "pitch": 64, "duration": 100, "velocity": 120}, {"time": 8022, "pitch": 64, "duration": 140, "velocity": 110}, {"time": 8032, "pitch": 55, "duration": 120, "velocity": 100}, {"time": 8032, "pitch": 60, "duration": 130, "velocity": 105}, {"time": 8042, "pitch": 45, "duration": 100, "velocity": 110}, {"time": 8042, "pitch": 52, "duration": 110, "velocity": 95}, {"time": 8142, "pitch": 45, "duration": 240, "velocity": 120}, {"time": 8152, "pitch": 52, "duration": 240, "velocity": 105}, {"time": 8152, "pitch": 55, "duration": 240, "velocity": 110}, {"time": 8162, "pitch": 60, "duration": 240, "velocity": 115}, {"time": 8162, "pitch": 64, "duration": 240, "velocity": 120}, {"time": 8382, "pitch": 45, "duration": 139, "velocity": 120}, {"time": 8392, "pitch": 52, "duration": 129, "velocity": 105}, {"time": 8392, "pitch": 55, "duration": 119, "velocity": 110}, {"time": 8402, "pitch": 60, "duration": 109, "velocity": 115}, {"time": 8402, "pitch": 64, "duration": 99, "velocity": 120}, {"time": 8501, "pitch": 64, "duration": 140, "velocity": 110}, {"time": 8511, "pitch": 55, "duration": 120, "velocity": 100}, {"time": 8511, "pitch": 60, "duration": 130, "velocity": 105}, {"time": 8521, "pitch": 45, "duration": 100, "velocity": 110}, {"time": 8521, "pitch": 52, "duration": 110, "velocity": 95}, {"time": 8621, "pitch": 45, "duration": 240, "velocity": 120}, {"time": 8631, "pitch": 50, "duration": 240, "velocity": 105}, {"time": 8631, "pitch": 57, "duration": 240, "velocity": 110}, {"time": 8641, "pitch": 62, "duration": 240, "velocity": 115}, {"time": 8641, "pitch": 66, "duration": 240, "velocity": 120}, {"time": 8861, "pitch": 45, "duration": 140, "velocity": 120}, {"time": 8871, "pitch": 50, "duration": 130, "velocity": 105}, {"time": 8871, "pitch": 57, "duration": 120, "velocity": 110}, {"time": 8881, "pitch": 62, "duration": 110, "velocity": 115}, {"time": 8881, "pitch": 66, "duration": 100, "velocity": 120}, {"time": 8981, "pitch": 66, "duration": 140, "velocity": 110}, {"time": 8991, "pitch": 57, "duration": 120, "velocity": 100}, {"time": 8991, "pitch": 62, "duration": 130, "velocity": 105}, {"time": 9001, "pitch": 45, "duration": 100, "velocity": 110}, {"time": 9001, "pitch": 50, "duration": 110, "velocity": 95}, {"time": 9101, "pitch": 45, "duration": 240, "velocity": 120}, {"time": 9111, "pitch": 50, "duration": 240, "velocity": 105}, {"time": 9111, "pitch": 57, "duration": 240, "velocity": 110}, {"time": 9121, "pitch": 62, "duration": 240, "velocity": 115}, {"time": 9121, "pitch": 66, "duration": 240, "velocity": 120}, {"time": 9341, "pitch": 45, "duration": 140, "velocity": 120}, {"time": 9351, "pitch": 50, "duration": 130, "velocity": 105}, {"time": 9351, "pitch": 57, "duration": 120, "velocity": 110}, {"time": 9361, "pitch": 62, "duration": 110, "velocity": 115}, {"time": 9361, "pitch": 66, "duration": 100, "velocity": 120}, {"time": 9461, "pitch": 66, "duration": 140, "velocity": 110}, {"time": 9471, "pitch": 57, "duration": 120, "velocity": 100}, {"time": 9471, "pitch": 62, "duration": 130, "velocity": 105}, {"time": 9481, "pitch": 45, "duration": 100, "velocity": 110}, {"time": 9481, "pitch": 50, "duration": 110, "velocity": 95}, {"time": 9581, "pitch": 45, "duration": 239, "velocity": 120}, {"time": 9591, "pitch": 50, "duration": 239, "velocity": 105}, {"time": 9591, "pitch": 57, "duration": 239, "velocity": 110}, {"time": 9601, "pitch": 62, "duration": 239, "velocity": 115}, {"time": 9601, "pitch": 67, "duration": 239, "velocity": 120}, {"time": 9820, "pitch": 45, "duration": 140, "velocity": 120}, {"time": 9830, "pitch": 50, "duration": 130, "velocity": 105}, {"time": 9830, "pitch": 57, "duration": 120, "velocity": 110}, {"time": 9840, "pitch": 62, "duration": 110, "velocity": 115}, {"time": 9840, "pitch": 66, "duration": 100, "velocity": 120}, {"time": 9940, "pitch": 66, "duration": 140, "velocity": 110}, {"time": 9950, "pitch": 57, "duration": 120, "velocity": 100}, {"time": 9950, "pitch": 62, "duration": 130, "velocity": 105}, {"time": 9960, "pitch": 45, "duration": 100, "velocity": 110}, {"time": 9960, "pitch": 50, "duration": 110, "velocity": 95}, {"time": 10060, "pitch": 45, "duration": 243, "velocity": 120}, {"time": 10070, "pitch": 50, "duration": 243, "velocity": 105}, {"time": 10070, "pitch": 57, "duration": 243, "velocity": 110}, {"time": 10080, "pitch": 62, "duration": 243, "velocity": 115}, {"time": 10080, "pitch": 66, "duration": 243, "velocity": 120}, {"time": 10303, "pitch": 45, "duration": 142, "velocity": 120}, {"time": 10313, "pitch": 50, "duration": 132, "velocity": 105}, {"time": 10313, "pitch": 57, "duration": 122, "velocity": 110}, {"time": 10323, "pitch": 62, "duration": 112, "velocity": 115}, {"time": 10323, "pitch": 66, "duration": 101, "velocity": 120}, {"time": 10424, "pitch": 66, "duration": 142, "velocity": 110}, {"time": 10435, "pitch": 57, "duration": 121, "velocity": 100}, {"time": 10435, "pitch": 62, "duration": 131, "velocity": 105}, {"time": 10445, "pitch": 45, "duration": 101, "velocity": 110}, {"time": 10445, "pitch": 50, "duration": 111, "velocity": 95}, {"time": 10546, "pitch": 48, "duration": 240, "velocity": 120}, {"time": 10556, "pitch": 52, "duration": 240, "velocity": 105}, {"time": 10556, "pitch": 55, "duration": 240, "velocity": 110}, {"time": 10566, "pitch": 60, "duration": 240, "velocity": 115}, {"time": 10566, "pitch": 64, "duration": 240, "velocity": 120}, {"time": 10786, "pitch": 48, "duration": 140, "velocity": 120}, {"time": 10796, "pitch": 52, "duration": 130, "velocity": 105}, {"time": 10796, "pitch": 55, "duration": 120, "velocity": 110}, {"time": 10806, "pitch": 60, "duration": 110, "velocity": 115}, {"time": 10806, "pitch": 64, "duration": 100, "velocity": 120}, {"time": 10906, "pitch": 64, "duration": 140, "velocity": 110}, {"time": 10916, "pitch": 55, "duration": 120, "velocity": 100}, {"time": 10916, "pitch": 60, "duration": 130, "velocity": 105}, {"time": 10926, "pitch": 48, "duration": 100, "velocity": 110}, {"time": 10926, "pitch": 52, "duration": 110, "velocity": 95}, {"time": 11026, "pitch": 48, "duration": 239, "velocity": 120}, {"time": 11036, "pitch": 52, "duration": 239, "velocity": 105}, {"time": 11036, "pitch": 55, "duration": 239, "velocity": 110}, {"time": 11046, "pitch": 60, "duration": 239, "velocity": 115}, {"time": 11046, "pitch": 64, "duration": 239, "velocity": 120}, {"time": 11265, "pitch": 47, "duration": 140, "velocity": 120}, {"time": 11275, "pitch": 52, "duration": 130, "velocity": 105}, {"time": 11275, "pitch": 55, "duration": 120, "velocity": 110}, {"time": 11285, "pitch": 59, "duration": 110, "velocity": 115}, {"time": 11285, "pitch": 64, "duration": 100, "velocity": 120}, {"time": 11385, "pitch": 64, "duration": 140, "velocity": 110}, {"time": 11395, "pitch": 55, "duration": 120, "velocity": 100}, {"time": 11395, "pitch": 59, "duration": 130, "velocity": 105}, {"time": 11405, "pitch": 47, "duration": 100, "velocity": 110}, {"time": 11405, "pitch": 52, "duration": 110, "velocity": 95}, {"time": 11505, "pitch": 45, "duration": 240, "velocity": 120}, {"time": 11515, "pitch": 52, "duration": 240, "velocity": 105}, {"time": 11515, "pitch": 55, "duration": 240, "velocity": 110}, {"time": 11525, "pitch": 60, "duration": 240, "velocity": 115}, {"time": 11525, "pitch": 64, "duration": 240, "velocity": 120}, {"time": 11745, "pitch": 45, "duration": 140, "velocity": 120}, {"time": 11755, "pitch": 52, "duration": 130, "velocity": 105}, {"time": 11755, "pitch": 55, "duration": 120, "velocity": 110}, {"time": 11765, "pitch": 60, "duration": 110, "velocity": 115}, {"time": 11765, "pitch": 64, "duration": 100, "velocity": 120}, {"time": 11865, "pitch": 64, "duration": 140, "velocity": 110}, {"time": 11875, "pitch": 55, "duration": 120, "velocity": 100}, {"time": 11875, "pitch": 60, "duration": 130, "velocity": 105}, {"time": 11885, "pitch": 45, "duration": 100, "velocity": 110}, {"time": 11885, "pitch": 52, "duration": 110, "velocity": 95}, {"time": 11985, "pitch": 45, "duration": 240, "velocity": 120}, {"time": 11995, "pitch": 52, "duration": 240, "velocity": 105}, {"time": 11995, "pitch": 55, "duration": 240, "velocity": 110}, {"time": 12005, "pitch": 60, "duration": 240, "velocity": 115}, {"time": 12005, "pitch": 64, "duration": 240, "velocity": 120}, {"time": 12225, "pitch": 45, "duration": 140, "velocity": 120}, {"time": 12235, "pitch": 52, "duration": 130, "velocity": 105}, {"time": 12235, "pitch": 55, "duration": 120, "velocity": 110}, {"time": 12245, "pitch": 60, "duration": 110, "velocity": 115}, {"time": 12245, "pitch": 64, "duration": 100, "velocity": 120}, {"time": 12345, "pitch": 64, "duration": 140, "velocity": 110}, {"time": 12355, "pitch": 55, "duration": 120, "velocity": 100}, {"time": 12355, "pitch": 60, "duration": 130, "velocity": 105}, {"time": 12365, "pitch": 45, "duration": 100, "velocity": 110}, {"time": 12365, "pitch": 52, "duration": 110, "velocity": 95}, {"time": 12465, "pitch": 45, "duration": 239, "velocity": 120}, {"time": 12475, "pitch": 50, "duration": 239, "velocity": 105}, {"time": 12475, "pitch": 57, "duration": 239, "velocity": 110}, {"time": 12485, "pitch": 62, "duration": 239, "velocity": 115}, {"time": 12485, "pitch": 66, "duration": 239, "velocity": 120}, {"time": 12704, "pitch": 45, "duration": 140, "velocity": 120}, {"time": 12714, "pitch": 50, "duration": 130, "velocity": 105}, {"time": 12714, "pitch": 57, "duration": 120, "velocity": 110}, {"time": 12724, "pitch": 62, "duration": 110, "velocity": 115}, {"time": 12724, "pitch": 66, "duration": 100, "velocity": 120}, {"time": 12824, "pitch": 66, "duration": 140, "velocity": 110}, {"time": 12834, "pitch": 57, "duration": 120, "velocity": 100}, {"time": 12834, "pitch": 62, "duration": 130, "velocity": 105}, {"time": 12844, "pitch": 45, "duration": 100, "velocity": 110}, {"time": 12844, "pitch": 50, "duration": 110, "velocity": 95}, {"time": 12944, "pitch": 45, "duration": 240, "velocity": 120}, {"time": 12954, "pitch": 50, "duration": 240, "velocity": 105}, {"time": 12954, "pitch": 57, "duration": 240, "velocity": 110}, {"time": 12964, "pitch": 62, "duration": 240, "velocity": 115}, {"time": 12964, "pitch": 66, "duration": 240, "velocity": 120}, {"time": 13184, "pitch": 45, "duration": 140, "velocity": 120}, {"time": 13194, "pitch": 50, "duration": 130, "velocity": 105}, {"time": 13194, "pitch": 57, "duration": 120, "velocity": 110}, {"time": 13204, "pitch": 62, "duration": 110, "velocity": 115}, {"time": 13204, "pitch": 66, "duration": 100, "velocity": 120}, {"time": 13304, "pitch": 66, "duration": 140, "velocity": 110}, {"time": 13314, "pitch": 57, "duration": 120, "velocity": 100}, {"time": 13314, "pitch": 62, "duration": 130, "velocity": 105}, {"time": 13324, "pitch": 45, "duration": 100, "velocity": 110}, {"time": 13324, "pitch": 50, "duration": 110, "velocity": 95}, {"time": 13424, "pitch": 45, "duration": 240, "velocity": 120}, {"time": 13434, "pitch": 50, "duration": 240, "velocity": 105}, {"time": 13434, "pitch": 57, "duration": 240, "velocity": 110}, {"time": 13444, "pitch": 62, "duration": 240, "velocity": 115}, {"time": 13444, "pitch": 67, "duration": 240, "velocity": 120}, {"time": 13664, "pitch": 45, "duration": 140, "velocity": 120}, {"time": 13674, "pitch": 50, "duration": 130, "velocity": 105}, {"time": 13674, "pitch": 57, "duration": 120, "velocity": 110}, {"time": 13684, "pitch": 62, "duration": 110, "velocity": 115}, {"time": 13684, "pitch": 66, "duration": 100, "velocity": 120}, {"time": 13784, "pitch": 66, "duration": 140, "velocity": 110}, {"time": 13794, "pitch": 57, "duration": 120, "velocity": 100}, {"time": 13794, "pitch": 62, "duration": 130, "velocity": 105}, {"time": 13804, "pitch": 45, "duration": 100, "velocity": 110}, {"time": 13804, "pitch": 50, "duration": 110, "velocity": 95}, {"time": 13904, "pitch": 45, "duration": 239, "velocity": 120}, {"time": 13914, "pitch": 50, "duration": 239, "velocity": 105}, {"time": 13914, "pitch": 57, "duration": 239, "velocity": 110}, {"time": 13924, "pitch": 62, "duration": 239, "velocity": 115}, {"time": 13924, "pitch": 66, "duration": 239, "velocity": 120}, {"time": 14143, "pitch": 45, "duration": 140, "velocity": 120}, {"time": 14153, "pitch": 50, "duration": 130, "velocity": 105}, {"time": 14153, "pitch": 57, "duration": 120, "velocity": 110}, {"time": 14163, "pitch": 62, "duration": 110, "velocity": 115}, {"time": 14163, "pitch": 66, "duration": 100, "velocity": 120}, {"time": 14263, "pitch": 66, "duration": 140, "velocity": 110}, {"time": 14273, "pitch": 57, "duration": 120, "velocity": 100}, {"time": 14273, "pitch": 62, "duration": 130, "velocity": 105}, {"time": 14283, "pitch": 45, "duration": 100, "velocity": 110}, {"time": 14283, "pitch": 50, "duration": 110, "velocity": 95}, {"time": 14383, "pitch": 48, "duration": 240, "velocity": 120}, {"time": 14393, "pitch": 52, "duration": 240, "velocity": 105}, {"time": 14393, "pitch": 55, "duration": 240, "velocity": 110}, {"time": 14403, "pitch": 60, "duration": 240, "velocity": 115}, {"time": 14403, "pitch": 64, "duration": 240, "velocity": 120}, {"time": 14623, "pitch": 48, "duration": 140, "velocity": 120}, {"time": 14633, "pitch": 52, "duration": 130, "velocity": 105}, {"time": 14633, "pitch": 55, "duration": 120, "velocity": 110}, {"time": 14643, "pitch": 60, "duration": 110, "velocity": 115}, {"time": 14643, "pitch": 64, "duration": 100, "velocity": 120}, {"time": 14743, "pitch": 64, "duration": 140, "velocity": 110}, {"time": 14753, "pitch": 55, "duration": 120, "velocity": 100}, {"time": 14753, "pitch": 60, "duration": 130, "velocity": 105}, {"time": 14763, "pitch": 48, "duration": 100, "velocity": 110}, {"time": 14763, "pitch": 52, "duration": 110, "velocity": 95}, {"time": 14863, "pitch": 48, "duration": 240, "velocity": 120}, {"time": 14873, "pitch": 52, "duration": 240, "velocity": 105}, {"time": 14873, "pitch": 55, "duration": 240, "velocity": 110}, {"time": 14883, "pitch": 60, "duration": 240, "velocity": 115}, {"time": 14883, "pitch": 64, "duration": 240, "velocity": 120}, {"time": 15103, "pitch": 47, "duration": 140, "velocity": 120}, {"time": 15113, "pitch": 52, "duration": 130, "velocity": 105}, {"time": 15113, "pitch": 55, "duration": 120, "velocity": 110}, {"time": 15123, "pitch": 59, "duration": 110, "velocity": 115}, {"time": 15123, "pitch": 64, "duration": 100, "velocity": 120}, {"time": 15223, "pitch": 64, "duration": 139, "velocity": 110}, {"time": 15233, "pitch": 55, "duration": 119, "velocity": 100}, {"time": 15233, "pitch": 59, "duration": 129, "velocity": 105}, {"time": 15243, "pitch": 47, "duration": 99, "velocity": 110}, {"time": 15243, "pitch": 52, "duration": 109, "velocity": 95}, {"time": 15342, "pitch": 45, "duration": 240, "velocity": 120}, {"time": 15352, "pitch": 52, "duration": 240, "velocity": 105}, {"time": 15352, "pitch": 55, "duration": 240, "velocity": 110}, {"time": 15362, "pitch": 60, "duration": 240, "velocity": 115}, {"time": 15362, "pitch": 64, "duration": 240, "velocity": 120}, {"time": 15582, "pitch": 45, "duration": 140, "velocity": 120}, {"time": 15592, "pitch": 52, "duration": 130, "velocity": 105}, {"time": 15592, "pitch": 55, "duration": 120, "velocity": 110}, {"time": 15602, "pitch": 60, "duration": 110, "velocity": 115}, {"time": 15602, "pitch": 64, "duration": 100, "velocity": 120}, {"time": 15702, "pitch": 64, "duration": 140, "velocity": 110}, {"time": 15712, "pitch": 55, "duration": 120, "velocity": 100}, {"time": 15712, "pitch": 60, "duration": 130, "velocity": 105}, {"time": 15722, "pitch": 45, "duration": 100, "velocity": 110}, {"time": 15722, "pitch": 52, "duration": 110, "velocity": 95}, {"time": 15822, "pitch": 45, "duration": 240, "velocity": 120}, {"time": 15832, "pitch": 52, "duration": 240, "velocity": 105}, {"time": 15832, "pitch": 55, "duration": 240, "velocity": 110}, {"time": 15842, "pitch": 60, "duration": 240, "velocity": 115}, {"time": 15842, "pitch": 64, "duration": 240, "velocity": 120}, {"time": 16062, "pitch": 45, "duration": 140, "velocity": 120}, {"time": 16072, "pitch": 52, "duration": 130, "velocity": 105}, {"time": 16072, "pitch": 55, "duration": 120, "velocity": 110}, {"time": 16082, "pitch": 60, "duration": 110, "velocity": 115}, {"time": 16082, "pitch": 64, "duration": 100, "velocity": 120}, {"time": 16182, "pitch": 64, "duration": 140, "velocity": 110}, {"time": 16192, "pitch": 55, "duration": 120, "velocity": 100}, {"time": 16192, "pitch": 60, "duration": 130, "velocity": 105}, {"time": 16202, "pitch": 45, "duration": 100, "velocity": 110}, {"time": 16202, "pitch": 52, "duration": 110, "velocity": 95}, {"time": 16302, "pitch": 45, "duration": 1898, "velocity": 110}, {"time": 16312, "pitch": 50, "duration": 1888, "velocity": 95}, {"time": 16312, "pitch": 57, "duration": 1888, "velocity": 100}, {"time": 16322, "pitch": 62, "duration": 1878, "velocity": 105}, {"time": 16322, "pitch": 66, "duration": 1878, "velocity": 110}, {"time": 18220, "pitch": 47, "duration": 260, "velocity": 90}, {"time": 18230, "pitch": 52, "duration": 240, "velocity": 75}, {"time": 18230, "pitch": 56, "duration": 240, "velocity": 80}, {"time": 18240, "pitch": 59, "duration": 220, "velocity": 85}, {"time": 18240, "pitch": 64, "duration": 220, "velocity": 90}, {"time": 18460, "pitch": 64, "duration": 260, "velocity": 85}, {"time": 18470, "pitch": 56, "duration": 240, "velocity": 75}, {"time": 18470, "pitch": 59, "duration": 240, "velocity": 80}, {"time": 18480, "pitch": 47, "duration": 220, "velocity": 85}, {"time": 18480, "pitch": 52, "duration": 220, "velocity": 70}, {"time": 18700, "pitch": 47, "duration": 263, "velocity": 100}, {"time": 18710, "pitch": 52, "duration": 243, "velocity": 85}, {"time": 18710, "pitch": 56, "duration": 243, "velocity": 90}, {"time": 18720, "pitch": 59, "duration": 223, "velocity": 95}, {"time": 18720, "pitch": 64, "duration": 223, "velocity": 100}, {"time": 18943, "pitch": 64, "duration": 263, "velocity": 80}, {"time": 18953, "pitch": 56, "duration": 243, "velocity": 70}, {"time": 18953, "pitch": 59, "duration": 243, "velocity": 75}, {"time": 18963, "pitch": 47, "duration": 223, "velocity": 80}, {"time": 18963, "pitch": 52, "duration": 223, "velocity": 65}, {"time": 19186, "pitch": 47, "duration": 260, "velocity": 90}, {"time": 19196, "pitch": 52, "duration": 240, "velocity": 75}, {"time": 19196, "pitch": 56, "duration": 240, "velocity": 80}, {"time": 19206, "pitch": 59, "duration": 220, "velocity": 85}, {"time": 19206, "pitch": 64, "duration": 220, "velocity": 90}, {"time": 19426, "pitch": 64, "duration": 259, "velocity": 85}, {"time": 19436, "pitch": 56, "duration": 239, "velocity": 75}, {"time": 19436, "pitch": 59, "duration": 239, "velocity": 80}, {"time": 19446, "pitch": 47, "duration": 219, "velocity": 85}, {"time": 19446, "pitch": 52, "duration": 219, "velocity": 70}, {"time": 19665, "pitch": 47, "duration": 260, "velocity": 100}, {"time": 19675, "pitch": 52, "duration": 240, "velocity": 85}, {"time": 19675, "pitch": 56, "duration": 240, "velocity": 90}, {"time": 19685, "pitch": 59, "duration": 220, "velocity": 95}, {"time": 19685, "pitch": 64, "duration": 220, "velocity": 100}, {"time": 19905, "pitch": 64, "duration": 260, "velocity": 80}, {"time": 19915, "pitch": 56, "duration": 240, "velocity": 70}, {"time": 19915, "pitch": 59, "duration": 240, "velocity": 75}, {"time": 19925, "pitch": 47, "duration": 220, "velocity": 80}, {"time": 19925, "pitch": 52, "duration": 220, "velocity": 65}, {"time": 20145, "pitch": 47, "duration": 260, "velocity": 90}, {"time": 20155, "pitch": 50, "duration": 240, "velocity": 75}, {"time": 20155, "pitch": 55, "duration": 240, "velocity": 80}, {"time": 20165, "pitch": 59, "duration": 220, "velocity": 85}, {"time": 20165, "pitch": 67, "duration": 220, "velocity": 90}, {"time": 20385, "pitch": 67, "duration": 260, "velocity": 85}, {"time": 20395, "pitch": 55, "duration": 240, "velocity": 75}, {"time": 20395, "pitch": 59, "duration": 240, "velocity": 80}, {"time": 20405, "pitch": 47, "duration": 220, "velocity": 85}, {"time": 20405, "pitch": 50, "duration": 220, "velocity": 70}, {"time": 20625, "pitch": 47, "duration": 260, "velocity": 100}, {"time": 20635, "pitch": 50, "duration": 240, "velocity": 85}, {"time": 20635, "pitch": 55, "duration": 240, "velocity": 90}, {"time": 20645, "pitch": 59, "duration": 220, "velocity": 95}, {"time": 20645, "pitch": 67, "duration": 220, "velocity": 100}, {"time": 20865, "pitch": 67, "duration": 259, "velocity": 80}, {"time": 20875, "pitch": 55, "duration": 239, "velocity": 70}, {"time": 20875, "pitch": 59, "duration": 239, "velocity": 75}, {"time": 20885, "pitch": 47, "duration": 219, "velocity": 80}, {"time": 20885, "pitch": 50, "duration": 219, "velocity": 65}, {"time": 21104, "pitch": 47, "duration": 260, "velocity": 90}, {"time": 21114, "pitch": 50, "duration": 240, "velocity": 75}, {"time": 21114, "pitch": 55, "duration": 240, "velocity": 80}, {"time": 21124, "pitch": 59, "duration": 220, "velocity": 85}, {"time": 21124, "pitch": 67, "duration": 220, "velocity": 90}, {"time": 21344, "pitch": 67, "duration": 260, "velocity": 85}, {"time": 21354, "pitch": 55, "duration": 240, "velocity": 75}, {"time": 21354, "pitch": 59, "duration": 240, "velocity": 80}, {"time": 21364, "pitch": 47, "duration": 220, "velocity": 85}, {"time": 21364, "pitch": 50, "duration": 220, "velocity": 70}, {"time": 21584, "pitch": 47, "duration": 260, "velocity": 100}, {"time": 21594, "pitch": 50, "duration": 240, "velocity": 85}, {"time": 21594, "pitch": 55, "duration": 240, "velocity": 90}, {"time": 21604, "pitch": 59, "duration": 220, "velocity": 95}, {"time": 21604, "pitch": 67, "duration": 220, "velocity": 100}, {"time": 21824, "pitch": 67, "duration": 260, "velocity": 80}, {"time": 21834, "pitch": 55, "duration": 240, "velocity": 70}, {"time": 21834, "pitch": 59, "duration": 240, "velocity": 75}, {"time": 21844, "pitch": 47, "duration": 220, "velocity": 80}, {"time": 21844, "pitch": 50, "duration": 220, "velocity": 65}, {"time": 22064, "pitch": 45, "duration": 259, "velocity": 90}, {"time": 22074, "pitch": 50, "duration": 239, "velocity": 75}, {"time": 22074, "pitch": 57, "duration": 239, "velocity": 80}, {"time": 22084, "pitch": 62, "duration": 219, "velocity": 85}, {"time": 22084, "pitch": 66, "duration": 219, "velocity": 90}, {"time": 22303, "pitch": 66, "duration": 260, "velocity": 85}, {"time": 22313, "pitch": 57, "duration": 240, "velocity": 75}, {"time": 22313, "pitch": 62, "duration": 240, "velocity": 80}, {"time": 22323, "pitch": 45, "duration": 220, "velocity": 85}, {"time": 22323, "pitch": 50, "duration": 220, "velocity": 70}, {"time": 22543, "pitch": 45, "duration": 260, "velocity": 100}, {"time": 22553, "pitch": 50, "duration": 240, "velocity": 85}, {"time": 22553, "pitch": 57, "duration": 240, "velocity": 90}, {"time": 22563, "pitch": 62, "duration": 220, "velocity": 95}, {"time": 22563, "pitch": 66, "duration": 220, "velocity": 100}, {"time": 22783, "pitch": 66, "duration": 260, "velocity": 80}, {"time": 22793, "pitch": 57, "duration": 240, "velocity": 70}, {"time": 22793, "pitch": 62, "duration": 240, "velocity": 75}, {"time": 22803, "pitch": 45, "duration": 220, "velocity": 80}, {"time": 22803, "pitch": 50, "duration": 220, "velocity": 65}, {"time": 23023, "pitch": 45, "duration": 260, "velocity": 90}, {"time": 23033, "pitch": 50, "duration": 240, "velocity": 75}, {"time": 23033, "pitch": 57, "duration": 240, "velocity": 80}, {"time": 23043, "pitch": 62, "duration": 220, "velocity": 85}, {"time": 23043, "pitch": 67, "duration": 220, "velocity": 90}, {"time": 23263, "pitch": 66, "duration": 260, "velocity": 85}, {"time": 23273, "pitch": 57, "duration": 240, "velocity": 75}, {"time": 23273, "pitch": 62, "duration": 240, "velocity": 80}, {"time": 23283, "pitch": 45, "duration": 220, "velocity": 85}, {"time": 23283, "pitch": 50, "duration": 220, "velocity": 70}, {"time": 23503, "pitch": 45, "duration": 259, "velocity": 100}, {"time": 23513, "pitch": 50, "duration": 239, "velocity": 85}, {"time": 23513, "pitch": 57, "duration": 239, "velocity": 90}, {"time": 23523, "pitch": 62, "duration": 219, "velocity": 95}, {"time": 23523, "pitch": 64, "duration": 219, "velocity": 100}, {"time": 23742, "pitch": 67, "duration": 260, "velocity": 80}, {"time": 23752, "pitch": 57, "duration": 240, "velocity": 70}, {"time": 23752, "pitch": 62, "duration": 240, "velocity": 75}, {"time": 23762, "pitch": 45, "duration": 220, "velocity": 80}, {"time": 23762, "pitch": 50, "duration": 220, "velocity": 65}, {"time": 23982, "pitch": 45, "duration": 1899, "velocity": 110}, {"time": 23992, "pitch": 50, "duration": 1889, "velocity": 95}, {"time": 23992, "pitch": 57, "duration": 1889, "velocity": 100}, {"time": 24002, "pitch": 62, "duration": 1879, "velocity": 105}, {"time": 24002, "pitch": 66, "duration": 1879, "velocity": 110}, {"time": 25901, "pitch": 47, "duration": 260, "velocity": 90}, {"time": 25911, "pitch": 52, "duration": 240, "velocity": 75}, {"time": 25911, "pitch": 56, "duration": 240, "velocity": 80}, {"time": 25921, "pitch": 59, "duration": 220, "velocity": 85}, {"time": 25921, "pitch": 64, "duration": 220, "velocity": 90}, {"time": 26141, "pitch": 64, "duration": 259, "velocity": 85}, {"time": 26151, "pitch": 56, "duration": 239, "velocity": 75}, {"time": 26151, "pitch": 59, "duration": 239, "velocity": 80}, {"time": 26161, "pitch": 47, "duration": 219, "velocity": 85}, {"time": 26161, "pitch": 52, "duration": 219, "velocity": 70}, {"time": 26380, "pitch": 47, "duration": 260, "velocity": 100}, {"time": 26390, "pitch": 52, "duration": 240, "velocity": 85}, {"time": 26390, "pitch": 56, "duration": 240, "velocity": 90}, {"time": 26400, "pitch": 59, "duration": 220, "velocity": 95}, {"time": 26400, "pitch": 64, "duration": 220, "velocity": 100}, {"time": 26620, "pitch": 64, "duration": 260, "velocity": 80}, {"time": 26630, "pitch": 56, "duration": 240, "velocity": 70}, {"time": 26630, "pitch": 59, "duration": 240, "velocity": 75}, {"time": 26640, "pitch": 47, "duration": 220, "velocity": 80}, {"time": 26640, "pitch": 52, "duration": 220, "velocity": 65}, {"time": 26860, "pitch": 47, "duration": 263, "velocity": 90}, {"time": 26870, "pitch": 52, "duration": 243, "velocity": 75}, {"time": 26870, "pitch": 56, "duration": 243, "velocity": 80}, {"time": 26880, "pitch": 59, "duration": 223, "velocity": 85}, {"time": 26880, "pitch": 64, "duration": 223, "velocity": 90}, {"time": 27103, "pitch": 64, "duration": 263, "velocity": 85}, {"time": 27113, "pitch": 56, "duration": 243, "velocity": 75}, {"time": 27113, "pitch": 59, "duration": 243, "velocity": 80}, {"time": 27123, "pitch": 47, "duration": 223, "velocity": 85}, {"time": 27123, "pitch": 52, "duration": 223, "velocity": 70}, {"time": 27346, "pitch": 47, "duration": 260, "velocity": 100}, {"time": 27356, "pitch": 52, "duration": 240, "velocity": 85}, {"time": 27356, "pitch": 56, "duration": 240, "velocity": 90}, {"time": 27366, "pitch": 59, "duration": 220, "velocity": 95}, {"time": 27366, "pitch": 64, "duration": 220, "velocity": 100}, {"time": 27586, "pitch": 64, "duration": 259, "velocity": 80}, {"time": 27596, "pitch": 56, "duration": 239, "velocity": 70}, {"time": 27596, "pitch": 59, "duration": 239, "velocity": 75}, {"time": 27606, "pitch": 47, "duration": 220, "velocity": 80}, {"time": 27606, "pitch": 52, "duration": 220, "velocity": 65}, {"time": 27826, "pitch": 47, "duration": 259, "velocity": 90}, {"time": 27835, "pitch": 50, "duration": 240, "velocity": 75}, {"time": 27835, "pitch": 55, "duration": 240, "velocity": 80}, {"time": 27845, "pitch": 59, "duration": 220, "velocity": 85}, {"time": 27845, "pitch": 67, "duration": 220, "velocity": 90}, {"time": 28065, "pitch": 67, "duration": 260, "velocity": 85}, {"time": 28075, "pitch": 55, "duration": 240, "velocity": 75}, {"time": 28075, "pitch": 59, "duration": 240, "velocity": 80}, {"time": 28085, "pitch": 47, "duration": 220, "velocity": 85}, {"time": 28085, "pitch": 50, "duration": 220, "velocity": 70}, {"time": 28305, "pitch": 47, "duration": 260, "velocity": 100}, {"time": 28315, "pitch": 50, "duration": 240, "velocity": 85}, {"time": 28315, "pitch": 55, "duration": 240, "velocity": 90}, {"time": 28325, "pitch": 59, "duration": 220, "velocity": 95}, {"time": 28325, "pitch": 67, "duration": 220, "velocity": 100}, {"time": 28545, "pitch": 67, "duration": 260, "velocity": 80}, {"time": 28555, "pitch": 55, "duration": 240, "velocity": 70}, {"time": 28555, "pitch": 59, "duration": 240, "velocity": 75}, {"time": 28565, "pitch": 47, "duration": 220, "velocity": 80}, {"time": 28565, "pitch": 50, "duration": 220, "velocity": 65}, {"time": 28785, "pitch": 47, "duration": 260, "velocity": 90}, {"time": 28795, "pitch": 50, "duration": 240, "velocity": 75}, {"time": 28795, "pitch": 55, "duration": 240, "velocity": 80}, {"time": 28805, "pitch": 59, "duration": 220, "velocity": 85}, {"time": 28805, "pitch": 67, "duration": 220, "velocity": 90}, {"time": 29025, "pitch": 67, "duration": 259, "velocity": 85}, {"time": 29035, "pitch": 55, "duration": 239, "velocity": 75}, {"time": 29035, "pitch": 59, "duration": 239, "velocity": 80}, {"time": 29045, "pitch": 47, "duration": 219, "velocity": 85}, {"time": 29045, "pitch": 50, "duration": 219, "velocity": 70}, {"time": 29264, "pitch": 47, "duration": 260, "velocity": 100}, {"time": 29274, "pitch": 50, "duration": 240, "velocity": 85}, {"time": 29274, "pitch": 55, "duration": 240, "velocity": 90}, {"time": 29284, "pitch": 59, "duration": 220, "velocity": 95}, {"time": 29284, "pitch": 67, "duration": 220, "velocity": 100}, {"time": 29504, "pitch": 67, "duration": 260, "velocity": 80}, {"time": 29514, "pitch": 55, "duration": 240, "velocity": 70}, {"time": 29514, "pitch": 59, "duration": 240, "velocity": 75}, {"time": 29524, "pitch": 47, "duration": 220, "velocity": 80}, {"time": 29524, "pitch": 50, "duration": 220, "velocity": 65}, {"time": 29744, "pitch": 45, "duration": 260, "velocity": 90}, {"time": 29754, "pitch": 50, "duration": 240, "velocity": 75}, {"time": 29754, "pitch": 57, "duration": 240, "velocity": 80}, {"time": 29764, "pitch": 62, "duration": 220, "velocity": 85}, {"time": 29764, "pitch": 66, "duration": 220, "velocity": 90}, {"time": 29984, "pitch": 66, "duration": 260, "velocity": 85}, {"time": 29994, "pitch": 57, "duration": 240, "velocity": 75}, {"time": 29994, "pitch": 62, "duration": 240, "velocity": 80}, {"time": 30004, "pitch": 45, "duration": 220, "velocity": 85}, {"time": 30004, "pitch": 50, "duration": 220, "velocity": 70}, {"time": 30224, "pitch": 45, "duration": 260, "velocity": 100}, {"time": 30234, "pitch": 50, "duration": 240, "velocity": 85}, {"time": 30234, "pitch": 57, "duration": 240, "velocity": 90}, {"time": 30244, "pitch": 62, "duration": 220, "velocity": 95}, {"time": 30244, "pitch": 66, "duration": 220, "velocity": 100}, {"time": 30464, "pitch": 66, "duration": 259, "velocity": 80}, {"time": 30474, "pitch": 57, "duration": 239, "velocity": 70}, {"time": 30474, "pitch": 62, "duration": 239, "velocity": 75}, {"time": 30484, "pitch": 45, "duration": 219, "velocity": 80}, {"time": 30484, "pitch": 50, "duration": 219, "velocity": 65}, {"time": 30703, "pitch": 45, "duration": 260, "velocity": 90}, {"time": 30713, "pitch": 50, "duration": 240, "velocity": 75}, {"time": 30713, "pitch": 57, "duration": 240, "velocity": 80}, {"time": 30723, "pitch": 62, "duration": 220, "velocity": 85}, {"time": 30723, "pitch": 67, "duration": 220, "velocity": 90}, {"time": 30943, "pitch": 66, "duration": 260, "velocity": 85}, {"time": 30953, "pitch": 57, "duration": 240, "velocity": 75}, {"time": 30953, "pitch": 62, "duration": 240, "velocity": 80}, {"time": 30963, "pitch": 45, "duration": 220, "velocity": 85}, {"time": 30963, "pitch": 50, "duration": 220, "velocity": 70}, {"time": 31183, "pitch": 45, "duration": 260, "velocity": 100}, {"time": 31193, "pitch": 50, "duration": 240, "velocity": 85}, {"time": 31193, "pitch": 57, "duration": 240, "velocity": 90}, {"time": 31203, "pitch": 62, "duration": 220, "velocity": 95}, {"time": 31203, "pitch": 64, "duration": 220, "velocity": 100}, {"time": 31423, "pitch": 67, "duration": 260, "velocity": 80}, {"time": 31433, "pitch": 57, "duration": 240, "velocity": 70}, {"time": 31433, "pitch": 62, "duration": 240, "velocity": 75}, {"time": 31443, "pitch": 45, "duration": 220, "velocity": 80}, {"time": 31443, "pitch": 50, "duration": 220, "velocity": 65}, {"time": 31663, "pitch": 45, "duration": 259, "velocity": 90}, {"time": 31673, "pitch": 50, "duration": 240, "velocity": 75}, {"time": 31673, "pitch": 57, "duration": 240, "velocity": 80}, {"time": 31683, "pitch": 62, "duration": 220, "velocity": 85}, {"time": 31683, "pitch": 66, "duration": 220, "velocity": 90}, {"time": 31903, "pitch": 66, "duration": 259, "velocity": 85}, {"time": 31913, "pitch": 57, "duration": 239, "velocity": 75}, {"time": 31913, "pitch": 62, "duration": 239, "velocity": 80}, {"time": 31922, "pitch": 45, "duration": 220, "velocity": 85}, {"time": 31922, "pitch": 50, "duration": 220, "velocity": 70}, {"time": 32142, "pitch": 45, "duration": 260, "velocity": 100}, {"time": 32152, "pitch": 50, "duration": 240, "velocity": 85}, {"time": 32152, "pitch": 57, "duration": 240, "velocity": 90}, {"time": 32162, "pitch": 62, "duration": 220, "velocity": 95}, {"time": 32162, "pitch": 66, "duration": 220, "velocity": 100}, {"time": 32382, "pitch": 66, "duration": 260, "velocity": 80}, {"time": 32392, "pitch": 57, "duration": 240, "velocity": 70}, {"time": 32392, "pitch": 62, "duration": 240, "velocity": 75}, {"time": 32402, "pitch": 45, "duration": 220, "velocity": 80}, {"time": 32402, "pitch": 50, "duration": 220, "velocity": 65}, {"time": 32622, "pitch": 45, "duration": 260, "velocity": 90}, {"time": 32632, "pitch": 50, "duration": 240, "velocity": 75}, {"time": 32632, "pitch": 57, "duration": 240, "velocity": 80}, {"time": 32642, "pitch": 62, "duration": 220, "velocity": 85}, {"time": 32642, "pitch": 66, "duration": 220, "velocity": 90}, {"time": 32862, "pitch": 66, "duration": 260, "velocity": 85}, {"time": 32872, "pitch": 57, "duration": 240, "velocity": 75}, {"time": 32872, "pitch": 62, "duration": 240, "velocity": 80}, {"time": 32882, "pitch": 45, "duration": 220, "velocity": 85}, {"time": 32882, "pitch": 50, "duration": 220, "velocity": 70}, {"time": 33102, "pitch": 45, "duration": 259, "velocity": 100}, {"time": 33112, "pitch": 50, "duration": 239, "velocity": 85}, {"time": 33112, "pitch": 57, "duration": 239, "velocity": 90}, {"time": 33122, "pitch": 62, "duration": 219, "velocity": 95}, {"time": 33122, "pitch": 66, "duration": 219, "velocity": 100}, {"time": 33341, "pitch": 66, "duration": 260, "velocity": 80}, {"time": 33351, "pitch": 57, "duration": 240, "velocity": 70}, {"time": 33351, "pitch": 62, "duration": 240, "velocity": 75}, {"time": 33361, "pitch": 45, "duration": 220, "velocity": 80}, {"time": 33361, "pitch": 50, "duration": 220, "velocity": 65}, {"time": 33581, "pitch": 47, "duration": 260, "velocity": 90}, {"time": 33591, "pitch": 52, "duration": 240, "velocity": 75}, {"time": 33591, "pitch": 55, "duration": 240, "velocity": 80}, {"time": 33601, "pitch": 59, "duration": 220, "velocity": 85}, {"time": 33601, "pitch": 64, "duration": 220, "velocity": 90}, {"time": 33821, "pitch": 64, "duration": 260, "velocity": 85}, {"time": 33831, "pitch": 55, "duration": 240, "velocity": 75}, {"time": 33831, "pitch": 59, "duration": 240, "velocity": 80}, {"time": 33841, "pitch": 47, "duration": 220, "velocity": 85}, {"time": 33841, "pitch": 52, "duration": 220, "velocity": 70}, {"time": 34061, "pitch": 47, "duration": 260, "velocity": 100}, {"time": 34071, "pitch": 52, "duration": 240, "velocity": 85}, {"time": 34071, "pitch": 55, "duration": 240, "velocity": 90}, {"time": 34081, "pitch": 59, "duration": 220, "velocity": 95}, {"time": 34081, "pitch": 64, "duration": 220, "velocity": 100}, {"time": 34301, "pitch": 64, "duration": 260, "velocity": 80}, {"time": 34311, "pitch": 55, "duration": 240, "velocity": 70}, {"time": 34311, "pitch": 59, "duration": 240, "velocity": 75}, {"time": 34321, "pitch": 47, "duration": 220, "velocity": 80}, {"time": 34321, "pitch": 52, "duration": 220, "velocity": 65}, {"time": 34541, "pitch": 47, "duration": 259, "velocity": 90}, {"time": 34551, "pitch": 52, "duration": 239, "velocity": 75}, {"time": 34551, "pitch": 55, "duration": 239, "velocity": 80}, {"time": 34561, "pitch": 59, "duration": 219, "velocity": 85}, {"time": 34561, "pitch": 64, "duration": 219, "velocity": 90}, {"time": 34780, "pitch": 64, "duration": 260, "velocity": 85}, {"time": 34790, "pitch": 55, "duration": 240, "velocity": 75}, {"time": 34790, "pitch": 59, "duration": 240, "velocity": 80}, {"time": 34800, "pitch": 47, "duration": 220, "velocity": 85}, {"time": 34800, "pitch": 52, "duration": 220, "velocity": 70}, {"time": 35020, "pitch": 47, "duration": 263, "velocity": 100}, {"time": 35030, "pitch": 52, "duration": 243, "velocity": 85}, {"time": 35030, "pitch": 55, "duration": 243, "velocity": 90}, {"time": 35040, "pitch": 59, "duration": 223, "velocity": 95}, {"time": 35040, "pitch": 64, "duration": 223, "velocity": 100}, {"time": 35263, "pitch": 64, "duration": 263, "velocity": 80}, {"time": 35273, "pitch": 55, "duration": 243, "velocity": 70}, {"time": 35273, "pitch": 59, "duration": 243, "velocity": 75}, {"time": 35283, "pitch": 47, "duration": 223, "velocity": 80}, {"time": 35283, "pitch": 52, "duration": 223, "velocity": 65}, {"time": 35506, "pitch": 47, "duration": 260, "velocity": 90}, {"time": 35516, "pitch": 50, "duration": 240, "velocity": 75}, {"time": 35516, "pitch": 55, "duration": 240, "velocity": 80}, {"time": 35526, "pitch": 59, "duration": 220, "velocity": 85}, {"time": 35526, "pitch": 67, "duration": 220, "velocity": 90}, {"time": 35746, "pitch": 67, "duration": 260, "velocity": 85}, {"time": 35756, "pitch": 55, "duration": 240, "velocity": 75}, {"time": 35756, "pitch": 59, "duration": 240, "velocity": 80}, {"time": 35766, "pitch": 47, "duration": 220, "velocity": 85}, {"time": 35766, "pitch": 50, "duration": 220, "velocity": 70}, {"time": 35986, "pitch": 47, "duration": 259, "velocity": 100}, {"time": 35996, "pitch": 50, "duration": 239, "velocity": 85}, {"time": 35996, "pitch": 55, "duration": 239, "velocity": 90}, {"time": 36006, "pitch": 59, "duration": 219, "velocity": 95}, {"time": 36006, "pitch": 67, "duration": 219, "velocity": 100}, {"time": 36225, "pitch": 67, "duration": 260, "velocity": 80}, {"time": 36235, "pitch": 55, "duration": 240, "velocity": 70}, {"time": 36235, "pitch": 59, "duration": 240, "velocity": 75}, {"time": 36245, "pitch": 47, "duration": 220, "velocity": 80}, {"time": 36245, "pitch": 50, "duration": 220, "velocity": 65}, {"time": 36465, "pitch": 47, "duration": 260, "velocity": 90}, {"time": 36475, "pitch": 50, "duration": 240, "velocity": 75}, {"time": 36475, "pitch": 55, "duration": 240, "velocity": 80}, {"time": 36485, "pitch": 59, "duration": 220, "velocity": 85}, {"time": 36485, "pitch": 67, "duration": 220, "velocity": 90}, {"time": 36705, "pitch": 67, "duration": 260, "velocity": 85}, {"time": 36715, "pitch": 55, "duration": 240, "velocity": 75}, {"time": 36715, "pitch": 59, "duration": 240, "velocity": 80}, {"time": 36725, "pitch": 47, "duration": 220, "velocity": 85}, {"time": 36725, "pitch": 50, "duration": 220, "velocity": 70}, {"time": 36945, "pitch": 47, "duration": 260, "velocity": 100}, {"time": 36955, "pitch": 50, "duration": 240, "velocity": 85}, {"time": 36955, "pitch": 55, "duration": 240, "velocity": 90}, {"time": 36965, "pitch": 59, "duration": 220, "velocity": 95}, {"time": 36965, "pitch": 67, "duration": 220, "velocity": 100}, {"time": 37185, "pitch": 67, "duration": 260, "velocity": 80}, {"time": 37195, "pitch": 55, "duration": 240, "velocity": 70}, {"time": 37195, "pitch": 59, "duration": 240, "velocity": 75}, {"time": 37205, "pitch": 47, "duration": 220, "velocity": 80}, {"time": 37205, "pitch": 50, "duration": 220, "velocity": 65}, {"time": 37425, "pitch": 45, "duration": 259, "velocity": 90}, {"time": 37435, "pitch": 50, "duration": 239, "velocity": 75}, {"time": 37435, "pitch": 57, "duration": 239, "velocity": 80}, {"time": 37445, "pitch": 62, "duration": 219, "velocity": 85}, {"time": 37445, "pitch": 66, "duration": 219, "velocity": 90}, {"time": 37664, "pitch": 66, "duration": 260, "velocity": 85}, {"time": 37674, "pitch": 57, "duration": 240, "velocity": 75}, {"time": 37674, "pitch": 62, "duration": 240, "velocity": 80}, {"time": 37684, "pitch": 45, "duration": 220, "velocity": 85}, {"time": 37684, "pitch": 50, "duration": 220, "velocity": 70}, {"time": 37904, "pitch": 45, "duration": 260, "velocity": 100}, {"time": 37914, "pitch": 50, "duration": 240, "velocity": 85}, {"time": 37914, "pitch": 57, "duration": 240, "velocity": 90}, {"time": 37924, "pitch": 62, "duration": 220, "velocity": 95}, {"time": 37924, "pitch": 66, "duration": 220, "velocity": 100}, {"time": 38144, "pitch": 66, "duration": 260, "velocity": 80}, {"time": 38154, "pitch": 57, "duration": 240, "velocity": 70}, {"time": 38154, "pitch": 62, "duration": 240, "velocity": 75}, {"time": 38164, "pitch": 45, "duration": 220, "velocity": 80}, {"time": 38164, "pitch": 50, "duration": 220, "velocity": 65}, {"time": 38384, "pitch": 45, "duration": 260, "velocity": 90}, {"time": 38394, "pitch": 50, "duration": 240, "velocity": 75}, {"time": 38394, "pitch": 57, "duration": 240, "velocity": 80}, {"time": 38404, "pitch": 62, "duration": 220, "velocity": 85}, {"time": 38404, "pitch": 67, "duration": 220, "velocity": 90}, {"time": 38624, "pitch": 66, "duration": 259, "velocity": 85}, {"time": 38634, "pitch": 57, "duration": 239, "velocity": 75}, {"time": 38634, "pitch": 62, "duration": 239, "velocity": 80}, {"time": 38644, "pitch": 45, "duration": 219, "velocity": 85}, {"time": 38644, "pitch": 50, "duration": 219, "velocity": 70}, {"time": 38863, "pitch": 45, "duration": 260, "velocity": 100}, {"time": 38873, "pitch": 50, "duration": 240, "velocity": 85}, {"time": 38873, "pitch": 57, "duration": 240, "velocity": 90}, {"time": 38883, "pitch": 62, "duration": 220, "velocity": 95}, {"time": 38883, "pitch": 64, "duration": 220, "velocity": 100}, {"time": 39103, "pitch": 67, "duration": 260, "velocity": 80}, {"time": 39113, "pitch": 57, "duration": 240, "velocity": 70}, {"time": 39113, "pitch": 62, "duration": 240, "velocity": 75}, {"time": 39123, "pitch": 45, "duration": 220, "velocity": 80}, {"time": 39123, "pitch": 50, "duration": 220, "velocity": 65}, {"time": 39343, "pitch": 45, "duration": 260, "velocity": 90}, {"time": 39353, "pitch": 50, "duration": 240, "velocity": 75}, {"time": 39353, "pitch": 57, "duration": 240, "velocity": 80}, {"time": 39363, "pitch": 62, "duration": 220, "velocity": 85}, {"time": 39363, "pitch": 66, "duration": 220, "velocity": 90}, {"time": 39583, "pitch": 66, "duration": 260, "velocity": 85}, {"time": 39593, "pitch": 57, "duration": 240, "velocity": 75}, {"time": 39593, "pitch": 62, "duration": 240, "velocity": 80}, {"time": 39603, "pitch": 45, "duration": 220, "velocity": 85}, {"time": 39603, "pitch": 50, "duration": 220, "velocity": 70}, {"time": 39823, "pitch": 45, "duration": 260, "velocity": 100}, {"time": 39833, "pitch": 50, "duration": 240, "velocity": 85}, {"time": 39833, "pitch": 57, "duration": 240, "velocity": 90}, {"time": 39843, "pitch": 62, "duration": 220, "velocity": 95}, {"time": 39843, "pitch": 66, "duration": 220, "velocity": 100}, {"time": 40063, "pitch": 66, "duration": 259, "velocity": 80}, {"time": 40073, "pitch": 57, "duration": 239, "velocity": 70}, {"time": 40073, "pitch": 62, "duration": 239, "velocity": 75}, {"time": 40083, "pitch": 45, "duration": 219, "velocity": 80}, {"time": 40083, "pitch": 50, "duration": 219, "velocity": 65}, {"time": 40302, "pitch": 45, "duration": 260, "velocity": 90}, {"time": 40312, "pitch": 50, "duration": 240, "velocity": 75}, {"time": 40312, "pitch": 57, "duration": 240, "velocity": 80}, {"time": 40322, "pitch": 62, "duration": 220, "velocity": 85}, {"time": 40322, "pitch": 66, "duration": 220, "velocity": 90}, {"time": 40542, "pitch": 66, "duration": 260, "velocity": 85}, {"time": 40552, "pitch": 57, "duration": 240, "velocity": 75}, {"time": 40552, "pitch": 62, "duration": 240, "velocity": 80}, {"time": 40562, "pitch": 45, "duration": 220, "velocity": 85}, {"time": 40562, "pitch": 50, "duration": 220, "velocity": 70}, {"time": 40782, "pitch": 45, "duration": 260, "velocity": 100}, {"time": 40792, "pitch": 50, "duration": 240, "velocity": 85}, {"time": 40792, "pitch": 57, "duration": 240, "velocity": 90}, {"time": 40802, "pitch": 62, "duration": 220, "velocity": 95}, {"time": 40802, "pitch": 66, "duration": 220, "velocity": 100}, {"time": 41022, "pitch": 66, "duration": 260, "velocity": 80}, {"time": 41032, "pitch": 57, "duration": 240, "velocity": 70}, {"time": 41032, "pitch": 62, "duration": 240, "velocity": 75}, {"time": 41042, "pitch": 45, "duration": 220, "velocity": 80}, {"time": 41042, "pitch": 50, "duration": 220, "velocity": 65}, {"time": 41262, "pitch": 47, "duration": 260, "velocity": 90}, {"time": 41272, "pitch": 52, "duration": 240, "velocity": 75}, {"time": 41272, "pitch": 55, "duration": 240, "velocity": 80}, {"time": 41282, "pitch": 59, "duration": 220, "velocity": 85}, {"time": 41282, "pitch": 64, "duration": 220, "velocity": 90}, {"time": 41502, "pitch": 64, "duration": 259, "velocity": 85}, {"time": 41512, "pitch": 55, "duration": 239, "velocity": 75}, {"time": 41512, "pitch": 59, "duration": 239, "velocity": 80}, {"time": 41522, "pitch": 47, "duration": 219, "velocity": 85}, {"time": 41522, "pitch": 52, "duration": 219, "velocity": 70}, {"time": 41741, "pitch": 47, "duration": 260, "velocity": 100}, {"time": 41751, "pitch": 52, "duration": 240, "velocity": 85}, {"time": 41751, "pitch": 55, "duration": 240, "velocity": 90}, {"time": 41761, "pitch": 59, "duration": 220, "velocity": 95}, {"time": 41761, "pitch": 64, "duration": 220, "velocity": 100}, {"time": 41981, "pitch": 64, "duration": 260, "velocity": 80}, {"time": 41991, "pitch": 55, "duration": 240, "velocity": 70}, {"time": 41991, "pitch": 59, "duration": 240, "velocity": 75}, {"time": 42001, "pitch": 47, "duration": 220, "velocity": 80}, {"time": 42001, "pitch": 52, "duration": 220, "velocity": 65}, {"time": 42221, "pitch": 47, "duration": 260, "velocity": 90}, {"time": 42231, "pitch": 52, "duration": 240, "velocity": 75}, {"time": 42231, "pitch": 55, "duration": 240, "velocity": 80}, {"time": 42241, "pitch": 59, "duration": 220, "velocity": 85}, {"time": 42241, "pitch": 64, "duration": 220, "velocity": 90}, {"time": 42461, "pitch": 64, "duration": 260, "velocity": 85}, {"time": 42471, "pitch": 55, "duration": 240, "velocity": 75}, {"time": 42471, "pitch": 59, "duration": 240, "velocity": 80}, {"time": 42481, "pitch": 47, "duration": 220, "velocity": 85}, {"time": 42481, "pitch": 52, "duration": 220, "velocity": 70}, {"time": 42701, "pitch": 47, "duration": 259, "velocity": 100}, {"time": 42711, "pitch": 52, "duration": 239, "velocity": 85}, {"time": 42711, "pitch": 55, "duration": 239, "velocity": 90}, {"time": 42721, "pitch": 59, "duration": 219, "velocity": 95}, {"time": 42721, "pitch": 64, "duration": 219, "velocity": 100}, {"time": 42940, "pitch": 64, "duration": 260, "velocity": 80}, {"time": 42950, "pitch": 55, "duration": 240, "velocity": 70}, {"time": 42950, "pitch": 59, "duration": 240, "velocity": 75}, {"time": 42960, "pitch": 47, "duration": 220, "velocity": 80}, {"time": 42960, "pitch": 52, "duration": 220, "velocity": 65}, {"time": 43180, "pitch": 47, "duration": 263, "velocity": 90}, {"time": 43190, "pitch": 50, "duration": 243, "velocity": 75}, {"time": 43190, "pitch": 55, "duration": 243, "velocity": 80}, {"time": 43200, "pitch": 59, "duration": 223, "velocity": 85}, {"time": 43200, "pitch": 67, "duration": 223, "velocity": 90}, {"time": 43423, "pitch": 67, "duration": 263, "velocity": 85}, {"time": 43433, "pitch": 55, "duration": 243, "velocity": 75}, {"time": 43433, "pitch": 59, "duration": 243, "velocity": 80}, {"time": 43443, "pitch": 47, "duration": 223, "velocity": 85}, {"time": 43443, "pitch": 50, "duration": 223, "velocity": 70}, {"time": 43666, "pitch": 47, "duration": 260, "velocity": 100}, {"time": 43676, "pitch": 50, "duration": 240, "velocity": 85}, {"time": 43676, "pitch": 55, "duration": 240, "velocity": 90}, {"time": 43686, "pitch": 59, "duration": 220, "velocity": 95}, {"time": 43686, "pitch": 67, "duration": 220, "velocity": 100}, {"time": 43906, "pitch": 67, "duration": 260, "velocity": 80}, {"time": 43916, "pitch": 55, "duration": 240, "velocity": 70}, {"time": 43916, "pitch": 59, "duration": 240, "velocity": 75}, {"time": 43926, "pitch": 47, "duration": 220, "velocity": 80}, {"time": 43926, "pitch": 50, "duration": 220, "velocity": 65}, {"time": 44146, "pitch": 47, "duration": 260, "velocity": 90}, {"time": 44156, "pitch": 50, "duration": 240, "velocity": 75}, {"time": 44156, "pitch": 55, "duration": 240, "velocity": 80}, {"time": 44166, "pitch": 59, "duration": 220, "velocity": 85}, {"time": 44166, "pitch": 67, "duration": 220, "velocity": 90}, {"time": 44386, "pitch": 67, "duration": 259, "velocity": 85}, {"time": 44396, "pitch": 55, "duration": 239, "velocity": 75}, {"time": 44396, "pitch": 59, "duration": 239, "velocity": 80}, {"time": 44406, "pitch": 47, "duration": 219, "velocity": 85}, {"time": 44406, "pitch": 50, "duration": 219, "velocity": 70}, {"time": 44625, "pitch": 47, "duration": 260, "velocity": 100}, {"time": 44635, "pitch": 50, "duration": 240, "velocity": 85}, {"time": 44635, "pitch": 55, "duration": 240, "velocity": 90}, {"time": 44645, "pitch": 59, "duration": 220, "velocity": 95}, {"time": 44645, "pitch": 67, "duration": 220, "velocity": 100}, {"time": 44865, "pitch": 67, "duration": 260, "velocity": 80}, {"time": 44875, "pitch": 55, "duration": 240, "velocity": 70}, {"time": 44875, "pitch": 59, "duration": 240, "velocity": 75}, {"time": 44885, "pitch": 47, "duration": 220, "velocity": 80}, {"time": 44885, "pitch": 50, "duration": 220, "velocity": 65}, {"time": 45105, "pitch": 45, "duration": 260, "velocity": 90}, {"time": 45115, "pitch": 50, "duration": 240, "velocity": 75}, {"time": 45115, "pitch": 57, "duration": 240, "velocity": 80}, {"time": 45125, "pitch": 62, "duration": 220, "velocity": 85}, {"time": 45125, "pitch": 66, "duration": 220, "velocity": 90}, {"time": 45345, "pitch": 66, "duration": 260, "velocity": 85}, {"time": 45355, "pitch": 57, "duration": 240, "velocity": 75}, {"time": 45355, "pitch": 62, "duration": 240, "velocity": 80}, {"time": 45365, "pitch": 45, "duration": 220, "velocity": 85}, {"time": 45365, "pitch": 50, "duration": 220, "velocity": 70}, {"time": 45585, "pitch": 45, "duration": 259, "velocity": 100}, {"time": 45595, "pitch": 50, "duration": 239, "velocity": 85}, {"time": 45595, "pitch": 57, "duration": 239, "velocity": 90}, {"time": 45605, "pitch": 62, "duration": 219, "velocity": 95}, {"time": 45605, "pitch": 66, "duration": 219, "velocity": 100}, {"time": 45824, "pitch": 66, "duration": 260, "velocity": 80}, {"time": 45834, "pitch": 57, "duration": 240, "velocity": 70}, {"time": 45834, "pitch": 62, "duration": 240, "velocity": 75}, {"time": 45844, "pitch": 45, "duration": 220, "velocity": 80}, {"time": 45844, "pitch": 50, "duration": 220, "velocity": 65}, {"time": 46064, "pitch": 45, "duration": 260, "velocity": 90}, {"time": 46074, "pitch": 50, "duration": 240, "velocity": 75}, {"time": 46074, "pitch": 57, "duration": 240, "velocity": 80}, {"time": 46084, "pitch": 62, "duration": 220, "velocity": 85}, {"time": 46084, "pitch": 67, "duration": 220, "velocity": 90}, {"time": 46304, "pitch": 66, "duration": 260, "velocity": 85}, {"time": 46314, "pitch": 57, "duration": 240, "velocity": 75}, {"time": 46314, "pitch": 62, "duration": 240, "velocity": 80}, {"time": 46324, "pitch": 45, "duration": 220, "velocity": 85}, {"time": 46324, "pitch": 50, "duration": 220, "velocity": 70}, {"time": 46544, "pitch": 45, "duration": 260, "velocity": 100}, {"time": 46554, "pitch": 50, "duration": 240, "velocity": 85}, {"time": 46554, "pitch": 57, "duration": 240, "velocity": 90}, {"time": 46564, "pitch": 62, "duration": 220, "velocity": 95}, {"time": 46564, "pitch": 64, "duration": 220, "velocity": 100}, {"time": 46784, "pitch": 67, "duration": 260, "velocity": 80}, {"time": 46794, "pitch": 57, "duration": 240, "velocity": 70}, {"time": 46794, "pitch": 62, "duration": 240, "velocity": 75}, {"time": 46804, "pitch": 45, "duration": 220, "velocity": 80}, {"time": 46804, "pitch": 50, "duration": 220, "velocity": 65}, {"time": 47024, "pitch": 48, "duration": 239, "velocity": 120}, {"time": 47034, "pitch": 52, "duration": 239, "velocity": 105}, {"time": 47034, "pitch": 55, "duration": 239, "velocity": 110}, {"time": 47044, "pitch": 60, "duration": 239, "velocity": 115}, {"time": 47044, "pitch": 64, "duration": 239, "velocity": 120}, {"time": 47263, "pitch": 48, "duration": 140, "velocity": 120}, {"time": 47273, "pitch": 52, "duration": 130, "velocity": 105}, {"time": 47273, "pitch": 55, "duration": 120, "velocity": 110}, {"time": 47283, "pitch": 60, "duration": 110, "velocity": 115}, {"time": 47283, "pitch": 64, "duration": 100, "velocity": 120}, {"time": 47383, "pitch": 64, "duration": 140, "velocity": 110}, {"time": 47393, "pitch": 55, "duration": 120, "velocity": 100}, {"time": 47393, "pitch": 60, "duration": 130, "velocity": 105}, {"time": 47403, "pitch": 48, "duration": 100, "velocity": 110}, {"time": 47403, "pitch": 52, "duration": 110, "velocity": 95}, {"time": 47503, "pitch": 48, "duration": 240, "velocity": 120}, {"time": 47513, "pitch": 52, "duration": 240, "velocity": 105}, {"time": 47513, "pitch": 55, "duration": 240, "velocity": 110}, {"time": 47523, "pitch": 60, "duration": 240, "velocity": 115}, {"time": 47523, "pitch": 64, "duration": 240, "velocity": 120}, {"time": 47743, "pitch": 47, "duration": 140, "velocity": 120}, {"time": 47753, "pitch": 52, "duration": 130, "velocity": 105}, {"time": 47753, "pitch": 55, "duration": 120, "velocity": 110}, {"time": 47763, "pitch": 59, "duration": 110, "velocity": 115}, {"time": 47763, "pitch": 64, "duration": 100, "velocity": 120}, {"time": 47863, "pitch": 64, "duration": 140, "velocity": 110}, {"time": 47873, "pitch": 55, "duration": 120, "velocity": 100}, {"time": 47873, "pitch": 59, "duration": 130, "velocity": 105}, {"time": 47883, "pitch": 47, "duration": 100, "velocity": 110}, {"time": 47883, "pitch": 52, "duration": 110, "velocity": 95}, {"time": 47983, "pitch": 45, "duration": 240, "velocity": 120}, {"time": 47993, "pitch": 52, "duration": 240, "velocity": 105}, {"time": 47993, "pitch": 55, "duration": 240, "velocity": 110}, {"time": 48003, "pitch": 60, "duration": 240, "velocity": 115}, {"time": 48003, "pitch": 64, "duration": 240, "velocity": 120}, {"time": 48223, "pitch": 45, "duration": 140, "velocity": 120}, {"time": 48233, "pitch": 52, "duration": 130, "velocity": 105}, {"time": 48233, "pitch": 55, "duration": 120, "velocity": 110}, {"time": 48243, "pitch": 60, "duration": 110, "velocity": 115}, {"time": 48243, "pitch": 64, "duration": 100, "velocity": 120}, {"time": 48343, "pitch": 64, "duration": 140, "velocity": 110}, {"time": 48353, "pitch": 55, "duration": 120, "velocity": 100}, {"time": 48353, "pitch": 60, "duration": 130, "velocity": 105}, {"time": 48363, "pitch": 45, "duration": 100, "velocity": 110}, {"time": 48363, "pitch": 52, "duration": 110, "velocity": 95}, {"time": 48463, "pitch": 45, "duration": 239, "velocity": 120}, {"time": 48473, "pitch": 52, "duration": 239, "velocity": 105}, {"time": 48473, "pitch": 55, "duration": 239, "velocity": 110}, {"time": 48483, "pitch": 60, "duration": 239, "velocity": 115}, {"time": 48483, "pitch": 64, "duration": 239, "velocity": 120}, {"time": 48702, "pitch": 45, "duration": 140, "velocity": 120}, {"time": 48712, "pitch": 52, "duration": 130, "velocity": 105}, {"time": 48712, "pitch": 55, "duration": 120, "velocity": 110}, {"time": 48722, "pitch": 60, "duration": 110, "velocity": 115}, {"time": 48722, "pitch": 64, "duration": 100, "velocity": 120}, {"time": 48822, "pitch": 64, "duration": 140, "velocity": 110}, {"time": 48832, "pitch": 55, "duration": 120, "velocity": 100}, {"time": 48832, "pitch": 60, "duration": 130, "velocity": 105}, {"time": 48842, "pitch": 45, "duration": 100, "velocity": 110}, {"time": 48842, "pitch": 52, "duration": 110, "velocity": 95}, {"time": 48942, "pitch": 45, "duration": 240, "velocity": 120}, {"time": 48952, "pitch": 50, "duration": 240, "velocity": 105}, {"time": 48952, "pitch": 57, "duration": 240, "velocity": 110}, {"time": 48962, "pitch": 62, "duration": 240, "velocity": 115}, {"time": 48962, "pitch": 66, "duration": 240, "velocity": 120}, {"time": 49182, "pitch": 45, "duration": 140, "velocity": 120}, {"time": 49192, "pitch": 50, "duration": 130, "velocity": 105}, {"time": 49192, "pitch": 57, "duration": 120, "velocity": 110}, {"time": 49202, "pitch": 62, "duration": 110, "velocity": 115}, {"time": 49202, "pitch": 66, "duration": 100, "velocity": 120}, {"time": 49302, "pitch": 66, "duration": 140, "velocity": 110}, {"time": 49312, "pitch": 57, "duration": 120, "velocity": 100}, {"time": 49312, "pitch": 62, "duration": 130, "velocity": 105}, {"time": 49322, "pitch": 45, "duration": 100, "velocity": 110}, {"time": 49322, "pitch": 50, "duration": 110, "velocity": 95}, {"time": 49422, "pitch": 45, "duration": 240, "velocity": 120}, {"time": 49432, "pitch": 50, "duration": 240, "velocity": 105}, {"time": 49432, "pitch": 57, "duration": 240, "velocity": 110}, {"time": 49442, "pitch": 62, "duration": 240, "velocity": 115}, {"time": 49442, "pitch": 66, "duration": 240, "velocity": 120}, {"time": 49662, "pitch": 45, "duration": 140, "velocity": 120}, {"time": 49672, "pitch": 50, "duration": 130, "velocity": 105}, {"time": 49672, "pitch": 57, "duration": 120, "velocity": 110}, {"time": 49682, "pitch": 62, "duration": 110, "velocity": 115}, {"time": 49682, "pitch": 66, "duration": 100, "velocity": 120}, {"time": 49782, "pitch": 66, "duration": 139, "velocity": 110}, {"time": 49792, "pitch": 57, "duration": 119, "velocity": 100}, {"time": 49792, "pitch": 62, "duration": 129, "velocity": 105}, {"time": 49802, "pitch": 45, "duration": 99, "velocity": 110}, {"time": 49802, "pitch": 50, "duration": 109, "velocity": 95}, {"time": 49901, "pitch": 45, "duration": 240, "velocity": 120}, {"time": 49911, "pitch": 50, "duration": 240, "velocity": 105}, {"time": 49911, "pitch": 57, "duration": 240, "velocity": 110}, {"time": 49921, "pitch": 62, "duration": 240, "velocity": 115}, {"time": 49921, "pitch": 67, "duration": 240, "velocity": 120}, {"time": 50141, "pitch": 45, "duration": 140, "velocity": 120}, {"time": 50151, "pitch": 50, "duration": 130, "velocity": 105}, {"time": 50151, "pitch": 57, "duration": 120, "velocity": 110}, {"time": 50161, "pitch": 62, "duration": 110, "velocity": 115}, {"time": 50161, "pitch": 66, "duration": 100, "velocity": 120}, {"time": 50261, "pitch": 66, "duration": 140, "velocity": 110}, {"time": 50271, "pitch": 57, "duration": 120, "velocity": 100}, {"time": 50271, "pitch": 62, "duration": 130, "velocity": 105}, {"time": 50281, "pitch": 45, "duration": 100, "velocity": 110}, {"time": 50281, "pitch": 50, "duration": 110, "velocity": 95}, {"time": 50381, "pitch": 45, "duration": 240, "velocity": 120}, {"time": 50391, "pitch": 50, "duration": 240, "velocity": 105}, {"time": 50391, "pitch": 57, "duration": 240, "velocity": 110}, {"time": 50401, "pitch": 62, "duration": 240, "velocity": 115}, {"time": 50401, "pitch": 66, "duration": 240, "velocity": 120}, {"time": 50621, "pitch": 45, "duration": 140, "velocity": 120}, {"time": 50631, "pitch": 50, "duration": 130, "velocity": 105}, {"time": 50631, "pitch": 57, "duration": 120, "velocity": 110}, {"time": 50641, "pitch": 62, "duration": 110, "velocity": 115}, {"time": 50641, "pitch": 66, "duration": 100, "velocity": 120}, {"time": 50741, "pitch": 66, "duration": 140, "velocity": 110}, {"time": 50751, "pitch": 57, "duration": 120, "velocity": 100}, {"time": 50751, "pitch": 62, "duration": 130, "velocity": 105}, {"time": 50761, "pitch": 45, "duration": 100, "velocity": 110}, {"time": 50761, "pitch": 50, "duration": 110, "velocity": 95}, {"time": 50861, "pitch": 48, "duration": 240, "velocity": 120}, {"time": 50871, "pitch": 52, "duration": 240, "velocity": 105}, {"time": 50871, "pitch": 55, "duration": 240, "velocity": 110}, {"time": 50881, "pitch": 60, "duration": 240, "velocity": 115}, {"time": 50881, "pitch": 64, "duration": 240, "velocity": 120}, {"time": 51101, "pitch": 48, "duration": 139, "velocity": 120}, {"time": 51111, "pitch": 52, "duration": 129, "velocity": 105}, {"time": 51111, "pitch": 55, "duration": 119, "velocity": 110}, {"time": 51121, "pitch": 60, "duration": 109, "velocity": 115}, {"time": 51121, "pitch": 64, "duration": 100, "velocity": 120}, {"time": 51221, "pitch": 64, "duration": 139, "velocity": 110}, {"time": 51230, "pitch": 55, "duration": 120, "velocity": 100}, {"time": 51230, "pitch": 60, "duration": 130, "velocity": 105}, {"time": 51240, "pitch": 48, "duration": 100, "velocity": 110}, {"time": 51240, "pitch": 52, "duration": 110, "velocity": 95}, {"time": 51340, "pitch": 48, "duration": 240, "velocity": 120}, {"time": 51350, "pitch": 52, "duration": 240, "velocity": 105}, {"time": 51350, "pitch": 55, "duration": 240, "velocity": 110}, {"time": 51360, "pitch": 60, "duration": 240, "velocity": 115}, {"time": 51360, "pitch": 64, "duration": 240, "velocity": 120}, {"time": 51580, "pitch": 47, "duration": 140, "velocity": 120}, {"time": 51590, "pitch": 52, "duration": 130, "velocity": 105}, {"time": 51590, "pitch": 55, "duration": 120, "velocity": 110}, {"time": 51600, "pitch": 59, "duration": 110, "velocity": 115}, {"time": 51600, "pitch": 64, "duration": 100, "velocity": 120}, {"time": 51700, "pitch": 64, "duration": 140, "velocity": 110}, {"time": 51710, "pitch": 55, "duration": 120, "velocity": 100}, {"time": 51710, "pitch": 59, "duration": 130, "velocity": 105}, {"time": 51720, "pitch": 47, "duration": 100, "velocity": 110}, {"time": 51720, "pitch": 52, "duration": 110, "velocity": 95}, {"time": 51820, "pitch": 45, "duration": 243, "velocity": 120}, {"time": 51830, "pitch": 52, "duration": 243, "velocity": 105}, {"time": 51830, "pitch": 55, "duration": 243, "velocity": 110}, {"time": 51840, "pitch": 60, "duration": 243, "velocity": 115}, {"time": 51840, "pitch": 64, "duration": 243, "velocity": 120}, {"time": 52063, "pitch": 45, "duration": 141, "velocity": 120}, {"time": 52073, "pitch": 52, "duration": 131, "velocity": 105}, {"time": 52073, "pitch": 55, "duration": 121, "velocity": 110}, {"time": 52083, "pitch": 60, "duration": 111, "velocity": 115}, {"time": 52083, "pitch": 64, "duration": 101, "velocity": 120}, {"time": 52184, "pitch": 64, "duration": 142, "velocity": 110}, {"time": 52194, "pitch": 55, "duration": 122, "velocity": 100}, {"time": 52194, "pitch": 60, "duration": 132, "velocity": 105}, {"time": 52204, "pitch": 45, "duration": 102, "velocity": 110}, {"time": 52204, "pitch": 52, "duration": 112, "velocity": 95}, {"time": 52306, "pitch": 45, "duration": 240, "velocity": 120}, {"time": 52316, "pitch": 52, "duration": 240, "velocity": 105}, {"time": 52316, "pitch": 55, "duration": 240, "velocity": 110}, {"time": 52326, "pitch": 60, "duration": 240, "velocity": 115}, {"time": 52326, "pitch": 64, "duration": 240, "velocity": 120}, {"time": 52546, "pitch": 45, "duration": 140, "velocity": 120}, {"time": 52556, "pitch": 52, "duration": 130, "velocity": 105}, {"time": 52556, "pitch": 55, "duration": 120, "velocity": 110}, {"time": 52566, "pitch": 60, "duration": 110, "velocity": 115}, {"time": 52566, "pitch": 64, "duration": 100, "velocity": 120}, {"time": 52666, "pitch": 64, "duration": 139, "velocity": 110}, {"time": 52676, "pitch": 55, "duration": 119, "velocity": 100}, {"time": 52676, "pitch": 60, "duration": 129, "velocity": 105}, {"time": 52686, "pitch": 45, "duration": 99, "velocity": 110}, {"time": 52686, "pitch": 52, "duration": 109, "velocity": 95}, {"time": 52785, "pitch": 45, "duration": 240, "velocity": 120}, {"time": 52795, "pitch": 50, "duration": 240, "velocity": 105}, {"time": 52795, "pitch": 57, "duration": 240, "velocity": 110}, {"time": 52805, "pitch": 62, "duration": 240, "velocity": 115}, {"time": 52805, "pitch": 66, "duration": 240, "velocity": 120}, {"time": 53025, "pitch": 45, "duration": 140, "velocity": 120}, {"time": 53035, "pitch": 50, "duration": 130, "velocity": 105}, {"time": 53035, "pitch": 57, "duration": 120, "velocity": 110}, {"time": 53045, "pitch": 62, "duration": 110, "velocity": 115}, {"time": 53045, "pitch": 66, "duration": 100, "velocity": 120}, {"time": 53145, "pitch": 66, "duration": 140, "velocity": 110}, {"time": 53155, "pitch": 57, "duration": 120, "velocity": 100}, {"time": 53155, "pitch": 62, "duration": 130, "velocity": 105}, {"time": 53165, "pitch": 45, "duration": 100, "velocity": 110}, {"time": 53165, "pitch": 50, "duration": 110, "velocity": 95}, {"time": 53265, "pitch": 45, "duration": 240, "velocity": 120}, {"time": 53275, "pitch": 50, "duration": 240, "velocity": 105}, {"time": 53275, "pitch": 57, "duration": 240, "velocity": 110}, {"time": 53285, "pitch": 62, "duration": 240, "velocity": 115}, {"time": 53285, "pitch": 66, "duration": 240, "velocity": 120}, {"time": 53505, "pitch": 45, "duration": 140, "velocity": 120}, {"time": 53515, "pitch": 50, "duration": 130, "velocity": 105}, {"time": 53515, "pitch": 57, "duration": 120, "velocity": 110}, {"time": 53525, "pitch": 62, "duration": 110, "velocity": 115}, {"time": 53525, "pitch": 66, "duration": 100, "velocity": 120}, {"time": 53625, "pitch": 66, "duration": 140, "velocity": 110}, {"time": 53635, "pitch": 57, "duration": 120, "velocity": 100}, {"time": 53635, "pitch": 62, "duration": 130, "velocity": 105}, {"time": 53645, "pitch": 45, "duration": 100, "velocity": 110}, {"time": 53645, "pitch": 50, "duration": 110, "velocity": 95}, {"time": 53745, "pitch": 45, "duration": 240, "velocity": 120}, {"time": 53755, "pitch": 50, "duration": 240, "velocity": 105}, {"time": 53755, "pitch": 57, "duration": 240, "velocity": 110}, {"time": 53765, "pitch": 62, "duration": 240, "velocity": 115}, {"time": 53765, "pitch": 67, "duration": 240, "velocity": 120}, {"time": 53985, "pitch": 45, "duration": 139, "velocity": 120}, {"time": 53995, "pitch": 50, "duration": 129, "velocity": 105}, {"time": 53995, "pitch": 57, "duration": 119, "velocity": 110}, {"time": 54005, "pitch": 62, "duration": 109, "velocity": 115}, {"time": 54005, "pitch": 66, "duration": 99, "velocity": 120}, {"time": 54104, "pitch": 66, "duration": 140, "velocity": 110}, {"time": 54114, "pitch": 57, "duration": 120, "velocity": 100}, {"time": 54114, "pitch": 62, "duration": 130, "velocity": 105}, {"time": 54124, "pitch": 45, "duration": 100, "velocity": 110}, {"time": 54124, "pitch": 50, "duration": 110, "velocity": 95}, {"time": 54224, "pitch": 45, "duration": 240, "velocity": 120}, {"time": 54234, "pitch": 50, "duration": 240, "velocity": 105}, {"time": 54234, "pitch": 57, "duration": 240, "velocity": 110}, {"time": 54244, "pitch": 62, "duration": 240, "velocity": 115}, {"time": 54244, "pitch": 66, "duration": 240, "velocity": 120}, {"time": 54464, "pitch": 45, "duration": 140, "velocity": 120}, {"time": 54474, "pitch": 50, "duration": 130, "velocity": 105}, {"time": 54474, "pitch": 57, "duration": 120, "velocity": 110}, {"time": 54484, "pitch": 62, "duration": 110, "velocity": 115}, {"time": 54484, "pitch": 66, "duration": 100, "velocity": 120}, {"time": 54584, "pitch": 66, "duration": 140, "velocity": 110}, {"time": 54594, "pitch": 57, "duration": 120, "velocity": 100}, {"time": 54594, "pitch": 62, "duration": 130, "velocity": 105}, {"time": 54604, "pitch": 45, "duration": 100, "velocity": 110}, {"time": 54604, "pitch": 50, "duration": 110, "velocity": 95}, {"time": 54704, "pitch": 48, "duration": 240, "velocity": 120}, {"time": 54714, "pitch": 52, "duration": 240, "velocity": 105}, {"time": 54714, "pitch": 55, "duration": 240, "velocity": 110}, {"time": 54724, "pitch": 60, "duration": 240, "velocity": 115}, {"time": 54724, "pitch": 64, "duration": 240, "velocity": 120}, {"time": 54944, "pitch": 48, "duration": 140, "velocity": 120}, {"time": 54954, "pitch": 52, "duration": 130, "velocity": 105}, {"time": 54954, "pitch": 55, "duration": 120, "velocity": 110}, {"time": 54964, "pitch": 60, "duration": 110, "velocity": 115}, {"time": 54964, "pitch": 64, "duration": 100, "velocity": 120}, {"time": 55064, "pitch": 64, "duration": 140, "velocity": 110}, {"time": 55074, "pitch": 55, "duration": 120, "velocity": 100}, {"time": 55074, "pitch": 60, "duration": 130, "velocity": 105}, {"time": 55084, "pitch": 48, "duration": 100, "velocity": 110}, {"time": 55084, "pitch": 52, "duration": 110, "velocity": 95}, {"time": 55184, "pitch": 48, "duration": 240, "velocity": 120}, {"time": 55194, "pitch": 52, "duration": 239, "velocity": 105}, {"time": 55194, "pitch": 55, "duration": 239, "velocity": 110}, {"time": 55204, "pitch": 60, "duration": 239, "velocity": 115}, {"time": 55204, "pitch": 64, "duration": 239, "velocity": 120}, {"time": 55424, "pitch": 47, "duration": 139, "velocity": 120}, {"time": 55433, "pitch": 52, "duration": 130, "velocity": 105}, {"time": 55433, "pitch": 55, "duration": 120, "velocity": 110}, {"time": 55443, "pitch": 59, "duration": 110, "velocity": 115}, {"time": 55443, "pitch": 64, "duration": 100, "velocity": 120}, {"time": 55543, "pitch": 64, "duration": 140, "velocity": 110}, {"time": 55553, "pitch": 55, "duration": 120, "velocity": 100}, {"time": 55553, "pitch": 59, "duration": 130, "velocity": 105}, {"time": 55563, "pitch": 47, "duration": 100, "velocity": 110}, {"time": 55563, "pitch": 52, "duration": 110, "velocity": 95}, {"time": 55663, "pitch": 45, "duration": 240, "velocity": 120}, {"time": 55673, "pitch": 52, "duration": 240, "velocity": 105}, {"time": 55673, "pitch": 55, "duration": 240, "velocity": 110}, {"time": 55683, "pitch": 60, "duration": 240, "velocity": 115}, {"time": 55683, "pitch": 64, "duration": 240, "velocity": 120}, {"time": 55903, "pitch": 45, "duration": 140, "velocity": 120}, {"time": 55913, "pitch": 52, "duration": 130, "velocity": 105}, {"time": 55913, "pitch": 55, "duration": 120, "velocity": 110}, {"time": 55923, "pitch": 60, "duration": 110, "velocity": 115}, {"time": 55923, "pitch": 64, "duration": 100, "velocity": 120}, {"time": 56023, "pitch": 64, "duration": 140, "velocity": 110}, {"time": 56033, "pitch": 55, "duration": 120, "velocity": 100}, {"time": 56033, "pitch": 60, "duration": 130, "velocity": 105}, {"time": 56043, "pitch": 45, "duration": 100, "velocity": 110}, {"time": 56043, "pitch": 52, "duration": 110, "velocity": 95}, {"time": 56143, "pitch": 45, "duration": 240, "velocity": 120}, {"time": 56153, "pitch": 52, "duration": 240, "velocity": 105}, {"time": 56153, "pitch": 55, "duration": 240, "velocity": 110}, {"time": 56163, "pitch": 60, "duration": 240, "velocity": 115}, {"time": 56163, "pitch": 64, "duration": 240, "velocity": 120}, {"time": 56383, "pitch": 45, "duration": 140, "velocity": 120}, {"time": 56393, "pitch": 52, "duration": 130, "velocity": 105}, {"time": 56393, "pitch": 55, "duration": 120, "velocity": 110}, {"time": 56403, "pitch": 60, "duration": 110, "velocity": 115}, {"time": 56403, "pitch": 64, "duration": 100, "velocity": 120}, {"time": 56503, "pitch": 64, "duration": 140, "velocity": 110}, {"time": 56513, "pitch": 55, "duration": 120, "velocity": 100}, {"time": 56513, "pitch": 60, "duration": 130, "velocity": 105}, {"time": 56523, "pitch": 45, "duration": 100, "velocity": 110}, {"time": 56523, "pitch": 52, "duration": 110, "velocity": 95}, {"time": 56623, "pitch": 45, "duration": 239, "velocity": 120}, {"time": 56633, "pitch": 50, "duration": 239, "velocity": 105}, {"time": 56633, "pitch": 57, "duration": 239, "velocity": 110}, {"time": 56643, "pitch": 62, "duration": 239, "velocity": 115}, {"time": 56643, "pitch": 66, "duration": 239, "velocity": 120}, {"time": 56862, "pitch": 45, "duration": 140, "velocity": 120}, {"time": 56872, "pitch": 50, "duration": 130, "velocity": 105}, {"time": 56872, "pitch": 57, "duration": 120, "velocity": 110}, {"time": 56882, "pitch": 62, "duration": 110, "velocity": 115}, {"time": 56882, "pitch": 66, "duration": 100, "velocity": 120}, {"time": 56982, "pitch": 66, "duration": 140, "velocity": 110}, {"time": 56992, "pitch": 57, "duration": 120, "velocity": 100}, {"time": 56992, "pitch": 62, "duration": 130, "velocity": 105}, {"time": 57002, "pitch": 45, "duration": 100, "velocity": 110}, {"time": 57002, "pitch": 50, "duration": 110, "velocity": 95}, {"time": 57102, "pitch": 45, "duration": 240, "velocity": 120}, {"time": 57112, "pitch": 50, "duration": 240, "velocity": 105}, {"time": 57112, "pitch": 57, "duration": 240, "velocity": 110}, {"time": 57122, "pitch": 62, "duration": 240, "velocity": 115}, {"time": 57122, "pitch": 66, "duration": 240, "velocity": 120}, {"time": 57342, "pitch": 45, "duration": 140, "velocity": 120}, {"time": 57352, "pitch": 50, "duration": 130, "velocity": 105}, {"time": 57352, "pitch": 57, "duration": 120, "velocity": 110}, {"time": 57362, "pitch": 62, "duration": 110, "velocity": 115}, {"time": 57362, "pitch": 66, "duration": 100, "velocity": 120}, {"time": 57462, "pitch": 66, "duration": 140, "velocity": 110}, {"time": 57472, "pitch": 57, "duration": 120, "velocity": 100}, {"time": 57472, "pitch": 62, "duration": 130, "velocity": 105}, {"time": 57482, "pitch": 45, "duration": 100, "velocity": 110}, {"time": 57482, "pitch": 50, "duration": 110, "velocity": 95}, {"time": 57582, "pitch": 45, "duration": 240, "velocity": 120}, {"time": 57592, "pitch": 50, "duration": 240, "velocity": 105}, {"time": 57592, "pitch": 57, "duration": 240, "velocity": 110}, {"time": 57602, "pitch": 62, "duration": 240, "velocity": 115}, {"time": 57602, "pitch": 67, "duration": 240, "velocity": 120}, {"time": 57822, "pitch": 45, "duration": 140, "velocity": 120}, {"time": 57832, "pitch": 50, "duration": 130, "velocity": 105}, {"time": 57832, "pitch": 57, "duration": 120, "velocity": 110}, {"time": 57842, "pitch": 62, "duration": 110, "velocity": 115}, {"time": 57842, "pitch": 66, "duration": 100, "velocity": 120}, {"time": 57942, "pitch": 66, "duration": 140, "velocity": 110}, {"time": 57952, "pitch": 57, "duration": 120, "velocity": 100}, {"time": 57952, "pitch": 62, "duration": 130, "velocity": 105}, {"time": 57962, "pitch": 45, "duration": 100, "velocity": 110}, {"time": 57962, "pitch": 50, "duration": 110, "velocity": 95}, {"time": 58062, "pitch": 45, "duration": 239, "velocity": 120}, {"time": 58072, "pitch": 50, "duration": 239, "velocity": 105}, {"time": 58072, "pitch": 57, "duration": 239, "velocity": 110}, {"time": 58082, "pitch": 62, "duration": 239, "velocity": 115}, {"time": 58082, "pitch": 66, "duration": 239, "velocity": 120}, {"time": 58301, "pitch": 45, "duration": 140, "velocity": 120}, {"time": 58311, "pitch": 50, "duration": 130, "velocity": 105}, {"time": 58311, "pitch": 57, "duration": 120, "velocity": 110}, {"time": 58321, "pitch": 62, "duration": 110, "velocity": 115}, {"time": 58321, "pitch": 66, "duration": 100, "velocity": 120}, {"time": 58421, "pitch": 66, "duration": 140, "velocity": 110}, {"time": 58431, "pitch": 57, "duration": 120, "velocity": 100}, {"time": 58431, "pitch": 62, "duration": 130, "velocity": 105}, {"time": 58441, "pitch": 45, "duration": 100, "velocity": 110}, {"time": 58441, "pitch": 50, "duration": 110, "velocity": 95}, {"time": 58541, "pitch": 45, "duration": 260, "velocity": 90}, {"time": 58551, "pitch": 50, "duration": 240, "velocity": 75}, {"time": 58551, "pitch": 57, "duration": 240, "velocity": 80}, {"time": 58561, "pitch": 62, "duration": 220, "velocity": 85}, {"time": 58561, "pitch": 66, "duration": 220, "velocity": 90}, {"time": 58781, "pitch": 66, "duration": 260, "velocity": 85}, {"time": 58791, "pitch": 57, "duration": 240, "velocity": 75}, {"time": 58791, "pitch": 62, "duration": 240, "velocity": 80}, {"time": 58801, "pitch": 45, "duration": 220, "velocity": 85}, {"time": 58801, "pitch": 50, "duration": 220, "velocity": 70}, {"time": 59021, "pitch": 45, "duration": 260, "velocity": 100}, {"time": 59031, "pitch": 50, "duration": 240, "velocity": 85}, {"time": 59031, "pitch": 57, "duration": 240, "velocity": 90}, {"time": 59041, "pitch": 62, "duration": 220, "velocity": 95}, {"time": 59041, "pitch": 66, "duration": 220, "velocity": 100}, {"time": 59261, "pitch": 66, "duration": 259, "velocity": 80}, {"time": 59271, "pitch": 57, "duration": 240, "velocity": 70}, {"time": 59271, "pitch": 62, "duration": 240, "velocity": 75}, {"time": 59281, "pitch": 45, "duration": 220, "velocity": 80}, {"time": 59281, "pitch": 50, "duration": 220, "velocity": 65}, {"time": 59501, "pitch": 45, "duration": 259, "velocity": 90}, {"time": 59511, "pitch": 50, "duration": 239, "velocity": 75}, {"time": 59511, "pitch": 57, "duration": 239, "velocity": 80}, {"time": 59520, "pitch": 62, "duration": 220, "velocity": 85}, {"time": 59520, "pitch": 67, "duration": 220, "velocity": 90}, {"time": 59740, "pitch": 66, "duration": 260, "velocity": 85}, {"time": 59750, "pitch": 57, "duration": 240, "velocity": 75}, {"time": 59750, "pitch": 62, "duration": 240, "velocity": 80}, {"time": 59760, "pitch": 45, "duration": 220, "velocity": 85}, {"time": 59760, "pitch": 50, "duration": 220, "velocity": 70}, {"time": 59980, "pitch": 45, "duration": 263, "velocity": 100}, {"time": 59990, "pitch": 50, "duration": 243, "velocity": 85}, {"time": 59990, "pitch": 57, "duration": 243, "velocity": 90}, {"time": 60000, "pitch": 62, "duration": 223, "velocity": 95}, {"time": 60000, "pitch": 64, "duration": 223, "velocity": 100}, {"time": 60223, "pitch": 67, "duration": 263, "velocity": 80}, {"time": 60233, "pitch": 57, "duration": 243, "velocity": 70}, {"time": 60233, "pitch": 62, "duration": 243, "velocity": 75}, {"time": 60243, "pitch": 45, "duration": 223, "velocity": 80}, {"time": 60243, "pitch": 50, "duration": 223, "velocity": 65}, {"time": 60466, "pitch": 45, "duration": 1898, "velocity": 110}, {"time": 60476, "pitch": 50, "duration": 1888, "velocity": 95}, {"time": 60476, "pitch": 57, "duration": 1888, "velocity": 100}, {"time": 60486, "pitch": 62, "duration": 1878, "velocity": 105}, {"time": 60486, "pitch": 66, "duration": 1878, "velocity": 110}, {"time": 62384, "pitch": 47, "duration": 260, "velocity": 90}, {"time": 62394, "pitch": 52, "duration": 240, "velocity": 75}, {"time": 62394, "pitch": 56, "duration": 240, "velocity": 80}, {"time": 62404, "pitch": 59, "duration": 220, "velocity": 85}, {"time": 62404, "pitch": 64, "duration": 220, "velocity": 90}, {"time": 62624, "pitch": 64, "duration": 260, "velocity": 85}, {"time": 62634, "pitch": 56, "duration": 240, "velocity": 75}, {"time": 62634, "pitch": 59, "duration": 240, "velocity": 80}, {"time": 62644, "pitch": 47, "duration": 220, "velocity": 85}, {"time": 62644, "pitch": 52, "duration": 220, "velocity": 70}, {"time": 62864, "pitch": 47, "duration": 260, "velocity": 100}, {"time": 62874, "pitch": 52, "duration": 240, "velocity": 85}, {"time": 62874, "pitch": 56, "duration": 240, "velocity": 90}, {"time": 62884, "pitch": 59, "duration": 220, "velocity": 95}, {"time": 62884, "pitch": 64, "duration": 220, "velocity": 100}, {"time": 63104, "pitch": 64, "duration": 260, "velocity": 80}, {"time": 63114, "pitch": 56, "duration": 240, "velocity": 70}, {"time": 63114, "pitch": 59, "duration": 240, "velocity": 75}, {"time": 63124, "pitch": 47, "duration": 220, "velocity": 80}, {"time": 63124, "pitch": 52, "duration": 220, "velocity": 65}, {"time": 63344, "pitch": 47, "duration": 260, "velocity": 90}, {"time": 63354, "pitch": 52, "duration": 240, "velocity": 75}, {"time": 63354, "pitch": 56, "duration": 240, "velocity": 80}, {"time": 63364, "pitch": 59, "duration": 220, "velocity": 85}, {"time": 63364, "pitch": 64, "duration": 220, "velocity": 90}, {"time": 63584, "pitch": 64, "duration": 259, "velocity": 85}, {"time": 63594, "pitch": 56, "duration": 239, "velocity": 75}, {"time": 63594, "pitch": 59, "duration": 239, "velocity": 80}, {"time": 63604, "pitch": 47, "duration": 219, "velocity": 85}, {"time": 63604, "pitch": 52, "duration": 219, "velocity": 70}, {"time": 63823, "pitch": 47, "duration": 260, "velocity": 100}, {"time": 63833, "pitch": 52, "duration": 240, "velocity": 85}, {"time": 63833, "pitch": 56, "duration": 240, "velocity": 90}, {"time": 63843, "pitch": 59, "duration": 220, "velocity": 95}, {"time": 63843, "pitch": 64, "duration": 220, "velocity": 100}, {"time": 64063, "pitch": 64, "duration": 260, "velocity": 80}, {"time": 64073, "pitch": 56, "duration": 240, "velocity": 70}, {"time": 64073, "pitch": 59, "duration": 240, "velocity": 75}, {"time": 64083, "pitch": 47, "duration": 220, "velocity": 80}, {"time": 64083, "pitch": 52, "duration": 220, "velocity": 65}, {"time": 64303, "pitch": 47, "duration": 260, "velocity": 90}, {"time": 64313, "pitch": 50, "duration": 240, "velocity": 75}, {"time": 64313, "pitch": 55, "duration": 240, "velocity": 80}, {"time": 64323, "pitch": 59, "duration": 220, "velocity": 85}, {"time": 64323, "pitch": 67, "duration": 220, "velocity": 90}, {"time": 64543, "pitch": 67, "duration": 260, "velocity": 85}, {"time": 64553, "pitch": 55, "duration": 240, "velocity": 75}, {"time": 64553, "pitch": 59, "duration": 240, "velocity": 80}, {"time": 64563, "pitch": 47, "duration": 220, "velocity": 85}, {"time": 64563, "pitch": 50, "duration": 220, "velocity": 70}, {"time": 64783, "pitch": 47, "duration": 260, "velocity": 100}, {"time": 64793, "pitch": 50, "duration": 240, "velocity": 85}, {"time": 64793, "pitch": 55, "duration": 240, "velocity": 90}, {"time": 64803, "pitch": 59, "duration": 220, "velocity": 95}, {"time": 64803, "pitch": 67, "duration": 220, "velocity": 100}, {"time": 65023, "pitch": 67, "duration": 259, "velocity": 80}, {"time": 65033, "pitch": 55, "duration": 239, "velocity": 70}, {"time": 65033, "pitch": 59, "duration": 239, "velocity": 75}, {"time": 65043, "pitch": 47, "duration": 219, "velocity": 80}, {"time": 65043, "pitch": 50, "duration": 219, "velocity": 65}, {"time": 65262, "pitch": 47, "duration": 260, "velocity": 90}, {"time": 65272, "pitch": 50, "duration": 240, "velocity": 75}, {"time": 65272, "pitch": 55, "duration": 240, "velocity": 80}, {"time": 65282, "pitch": 59, "duration": 220, "velocity": 85}, {"time": 65282, "pitch": 67, "duration": 220, "velocity": 90}, {"time": 65502, "pitch": 67, "duration": 260, "velocity": 85}, {"time": 65512, "pitch": 55, "duration": 240, "velocity": 75}, {"time": 65512, "pitch": 59, "duration": 240, "velocity": 80}, {"time": 65522, "pitch": 47, "duration": 220, "velocity": 85}, {"time": 65522, "pitch": 50, "duration": 220, "velocity": 70}, {"time": 65742, "pitch": 47, "duration": 260, "velocity": 100}, {"time": 65752, "pitch": 50, "duration": 240, "velocity": 85}, {"time": 65752, "pitch": 55, "duration": 240, "velocity": 90}, {"time": 65762, "pitch": 59, "duration": 220, "velocity": 95}, {"time": 65762, "pitch": 67, "duration": 220, "velocity": 100}, {"time": 65982, "pitch": 67, "duration": 260, "velocity": 80}, {"time": 65992, "pitch": 55, "duration": 240, "velocity": 70}, {"time": 65992, "pitch": 59, "duration": 240, "velocity": 75}, {"time": 66002, "pitch": 47, "duration": 220, "velocity": 80}, {"time": 66002, "pitch": 50, "duration": 220, "velocity": 65}, {"time": 66222, "pitch": 45, "duration": 259, "velocity": 90}, {"time": 66232, "pitch": 50, "duration": 239, "velocity": 75}, {"time": 66232, "pitch": 57, "duration": 239, "velocity": 80}, {"time": 66242, "pitch": 62, "duration": 219, "velocity": 85}, {"time": 66242, "pitch": 66, "duration": 219, "velocity": 90}, {"time": 66461, "pitch": 66, "duration": 260, "velocity": 85}, {"time": 66471, "pitch": 57, "duration": 240, "velocity": 75}, {"time": 66471, "pitch": 62, "duration": 240, "velocity": 80}, {"time": 66481, "pitch": 45, "duration": 220, "velocity": 85}, {"time": 66481, "pitch": 50, "duration": 220, "velocity": 70}, {"time": 66701, "pitch": 45, "duration": 260, "velocity": 100}, {"time": 66711, "pitch": 50, "duration": 240, "velocity": 85}, {"time": 66711, "pitch": 57, "duration": 240, "velocity": 90}, {"time": 66721, "pitch": 62, "duration": 220, "velocity": 95}, {"time": 66721, "pitch": 66, "duration": 220, "velocity": 100}, {"time": 66941, "pitch": 66, "duration": 260, "velocity": 80}, {"time": 66951, "pitch": 57, "duration": 240, "velocity": 70}, {"time": 66951, "pitch": 62, "duration": 240, "velocity": 75}, {"time": 66961, "pitch": 45, "duration": 220, "velocity": 80}, {"time": 66961, "pitch": 50, "duration": 220, "velocity": 65}, {"time": 67181, "pitch": 45, "duration": 260, "velocity": 90}, {"time": 67191, "pitch": 50, "duration": 240, "velocity": 75}, {"time": 67191, "pitch": 57, "duration": 240, "velocity": 80}, {"time": 67201, "pitch": 62, "duration": 220, "velocity": 85}, {"time": 67201, "pitch": 67, "duration": 220, "velocity": 90}, {"time": 67421, "pitch": 66, "duration": 260, "velocity": 85}, {"time": 67431, "pitch": 57, "duration": 240, "velocity": 75}, {"time": 67431, "pitch": 62, "duration": 240, "velocity": 80}, {"time": 67441, "pitch": 45, "duration": 220, "velocity": 85}, {"time": 67441, "pitch": 50, "duration": 220, "velocity": 70}, {"time": 67661, "pitch": 45, "duration": 259, "velocity": 100}, {"time": 67671, "pitch": 50, "duration": 239, "velocity": 85}, {"time": 67671, "pitch": 57, "duration": 239, "velocity": 90}, {"time": 67681, "pitch": 62, "duration": 219, "velocity": 95}, {"time": 67681, "pitch": 64, "duration": 219, "velocity": 100}, {"time": 67900, "pitch": 67, "duration": 260, "velocity": 80}, {"time": 67910, "pitch": 57, "duration": 240, "velocity": 70}, {"time": 67910, "pitch": 62, "duration": 240, "velocity": 75}, {"time": 67920, "pitch": 45, "duration": 220, "velocity": 80}, {"time": 67920, "pitch": 50, "duration": 220, "velocity": 65}, {"time": 68140, "pitch": 45, "duration": 1905, "velocity": 110}, {"time": 68150, "pitch": 50, "duration": 1895, "velocity": 95}, {"time": 68150, "pitch": 57, "duration": 1895, "velocity": 100}, {"time": 68160, "pitch": 62, "duration": 1885, "velocity": 105}, {"time": 68160, "pitch": 66, "duration": 1885, "velocity": 110}, {"time": 70065, "pitch": 47, "duration": 260, "velocity": 90}, {"time": 70075, "pitch": 52, "duration": 240, "velocity": 75}, {"time": 70075, "pitch": 56, "duration": 240, "velocity": 80}, {"time": 70085, "pitch": 59, "duration": 220, "velocity": 85}, {"time": 70085, "pitch": 64, "duration": 220, "velocity": 90}, {"time": 70305, "pitch": 64, "duration": 260, "velocity": 85}, {"time": 70315, "pitch": 56, "duration": 240, "velocity": 75}, {"time": 70315, "pitch": 59, "duration": 240, "velocity": 80}, {"time": 70325, "pitch": 47, "duration": 220, "velocity": 85}, {"time": 70325, "pitch": 52, "duration": 220, "velocity": 70}, {"time": 70545, "pitch": 47, "duration": 259, "velocity": 100}, {"time": 70555, "pitch": 52, "duration": 239, "velocity": 85}, {"time": 70555, "pitch": 56, "duration": 239, "velocity": 90}, {"time": 70565, "pitch": 59, "duration": 219, "velocity": 95}, {"time": 70565, "pitch": 64, "duration": 219, "velocity": 100}, {"time": 70784, "pitch": 64, "duration": 260, "velocity": 80}, {"time": 70794, "pitch": 56, "duration": 240, "velocity": 70}, {"time": 70794, "pitch": 59, "duration": 240, "velocity": 75}, {"time": 70804, "pitch": 47, "duration": 220, "velocity": 80}, {"time": 70804, "pitch": 52, "duration": 220, "velocity": 65}, {"time": 71024, "pitch": 47, "duration": 260, "velocity": 90}, {"time": 71034, "pitch": 52, "duration": 240, "velocity": 75}, {"time": 71034, "pitch": 56, "duration": 240, "velocity": 80}, {"time": 71044, "pitch": 59, "duration": 220, "velocity": 85}, {"time": 71044, "pitch": 64, "duration": 220, "velocity": 90}, {"time": 71264, "pitch": 64, "duration": 260, "velocity": 85}, {"time": 71274, "pitch": 56, "duration": 240, "velocity": 75}, {"time": 71274, "pitch": 59, "duration": 240, "velocity": 80}, {"time": 71284, "pitch": 47, "duration": 220, "velocity": 85}, {"time": 71284, "pitch": 52, "duration": 220, "velocity": 70}, {"time": 71504, "pitch": 47, "duration": 260, "velocity": 100}, {"time": 71514, "pitch": 52, "duration": 240, "velocity": 85}, {"time": 71514, "pitch": 56, "duration": 240, "velocity": 90}, {"time": 71524, "pitch": 59, "duration": 220, "velocity": 95}, {"time": 71524, "pitch": 64, "duration": 220, "velocity": 100}, {"time": 71744, "pitch": 64, "duration": 260, "velocity": 80}, {"time": 71754, "pitch": 56, "duration": 240, "velocity": 70}, {"time": 71754, "pitch": 59, "duration": 240, "velocity": 75}, {"time": 71764, "pitch": 47, "duration": 220, "velocity": 80}, {"time": 71764, "pitch": 52, "duration": 220, "velocity": 65}, {"time": 71984, "pitch": 47, "duration": 259, "velocity": 90}, {"time": 71994, "pitch": 50, "duration": 239, "velocity": 75}, {"time": 71994, "pitch": 55, "duration": 239, "velocity": 80}, {"time": 72004, "pitch": 59, "duration": 219, "velocity": 85}, {"time": 72004, "pitch": 67, "duration": 219, "velocity": 90}, {"time": 72223, "pitch": 67, "duration": 260, "velocity": 85}, {"time": 72233, "pitch": 55, "duration": 240, "velocity": 75}, {"time": 72233, "pitch": 59, "duration": 240, "velocity": 80}, {"time": 72243, "pitch": 47, "duration": 220, "velocity": 85}, {"time": 72243, "pitch": 50, "duration": 220, "velocity": 70}, {"time": 72463, "pitch": 47, "duration": 260, "velocity": 100}, {"time": 72473, "pitch": 50, "duration": 240, "velocity": 85}, {"time": 72473, "pitch": 55, "duration": 240, "velocity": 90}, {"time": 72483, "pitch": 59, "duration": 220, "velocity": 95}, {"time": 72483, "pitch": 67, "duration": 220, "velocity": 100}, {"time": 72703, "pitch": 67, "duration": 260, "velocity": 80}, {"time": 72713, "pitch": 55, "duration": 240, "velocity": 70}, {"time": 72713, "pitch": 59, "duration": 240, "velocity": 75}, {"time": 72723, "pitch": 47, "duration": 220, "velocity": 80}, {"time": 72723, "pitch": 50, "duration": 220, "velocity": 65}, {"time": 72943, "pitch": 47, "duration": 260, "velocity": 90}, {"time": 72953, "pitch": 50, "duration": 240, "velocity": 75}, {"time": 72953, "pitch": 55, "duration": 240, "velocity": 80}, {"time": 72963, "pitch": 59, "duration": 220, "velocity": 85}, {"time": 72963, "pitch": 67, "duration": 220, "velocity": 90}, {"time": 73183, "pitch": 67, "duration": 259, "velocity": 85}, {"time": 73193, "pitch": 55, "duration": 239, "velocity": 75}, {"time": 73193, "pitch": 59, "duration": 239, "velocity": 80}, {"time": 73203, "pitch": 47, "duration": 219, "velocity": 85}, {"time": 73203, "pitch": 50, "duration": 219, "velocity": 70}, {"time": 73422, "pitch": 47, "duration": 260, "velocity": 100}, {"time": 73432, "pitch": 50, "duration": 240, "velocity": 85}, {"time": 73432, "pitch": 55, "duration": 240, "velocity": 90}, {"time": 73442, "pitch": 59, "duration": 220, "velocity": 95}, {"time": 73442, "pitch": 67, "duration": 220, "velocity": 100}, {"time": 73662, "pitch": 67, "duration": 260, "velocity": 80}, {"time": 73672, "pitch": 55, "duration": 240, "velocity": 70}, {"time": 73672, "pitch": 59, "duration": 240, "velocity": 75}, {"time": 73682, "pitch": 47, "duration": 220, "velocity": 80}, {"time": 73682, "pitch": 50, "duration": 220, "velocity": 65}, {"time": 73902, "pitch": 45, "duration": 260, "velocity": 90}, {"time": 73912, "pitch": 50, "duration": 240, "velocity": 75}, {"time": 73912, "pitch": 57, "duration": 240, "velocity": 80}, {"time": 73922, "pitch": 62, "duration": 220, "velocity": 85}, {"time": 73922, "pitch": 66, "duration": 220, "velocity": 90}, {"time": 74142, "pitch": 66, "duration": 260, "velocity": 85}, {"time": 74152, "pitch": 57, "duration": 240, "velocity": 75}, {"time": 74152, "pitch": 62, "duration": 240, "velocity": 80}, {"time": 74162, "pitch": 45, "duration": 220, "velocity": 85}, {"time": 74162, "pitch": 50, "duration": 220, "velocity": 70}, {"time": 74382, "pitch": 45, "duration": 260, "velocity": 100}, {"time": 74392, "pitch": 50, "duration": 240, "velocity": 85}, {"time": 74392, "pitch": 57, "duration": 240, "velocity": 90}, {"time": 74402, "pitch": 62, "duration": 220, "velocity": 95}, {"time": 74402, "pitch": 66, "duration": 220, "velocity": 100}, {"time": 74622, "pitch": 66, "duration": 259, "velocity": 80}, {"time": 74632, "pitch": 57, "duration": 239, "velocity": 70}, {"time": 74632, "pitch": 62, "duration": 239, "velocity": 75}, {"time": 74642, "pitch": 45, "duration": 219, "velocity": 80}, {"time": 74642, "pitch": 50, "duration": 219, "velocity": 65}, {"time": 74861, "pitch": 45, "duration": 260, "velocity": 90}, {"time": 74871, "pitch": 50, "duration": 240, "velocity": 75}, {"time": 74871, "pitch": 57, "duration": 240, "velocity": 80}, {"time": 74881, "pitch": 62, "duration": 220, "velocity": 85}, {"time": 74881, "pitch": 67, "duration": 220, "velocity": 90}, {"time": 75101, "pitch": 66, "duration": 260, "velocity": 85}, {"time": 75111, "pitch": 57, "duration": 240, "velocity": 75}, {"time": 75111, "pitch": 62, "duration": 240, "velocity": 80}, {"time": 75121, "pitch": 45, "duration": 220, "velocity": 85}, {"time": 75121, "pitch": 50, "duration": 220, "velocity": 70}, {"time": 75341, "pitch": 45, "duration": 260, "velocity": 100}, {"time": 75351, "pitch": 50, "duration": 240, "velocity": 85}, {"time": 75351, "pitch": 57, "duration": 240, "velocity": 90}, {"time": 75361, "pitch": 62, "duration": 220, "velocity": 95}, {"time": 75361, "pitch": 64, "duration": 220, "velocity": 100}, {"time": 75581, "pitch": 67, "duration": 260, "velocity": 80}, {"time": 75591, "pitch": 57, "duration": 240, "velocity": 70}, {"time": 75591, "pitch": 62, "duration": 240, "velocity": 75}, {"time": 75601, "pitch": 45, "duration": 220, "velocity": 80}, {"time": 75601, "pitch": 50, "duration": 220, "velocity": 65}, {"time": 75821, "pitch": 45, "duration": 260, "velocity": 90}, {"time": 75831, "pitch": 50, "duration": 240, "velocity": 75}, {"time": 75831, "pitch": 57, "duration": 240, "velocity": 80}, {"time": 75841, "pitch": 62, "duration": 220, "velocity": 85}, {"time": 75841, "pitch": 66, "duration": 220, "velocity": 90}, {"time": 76061, "pitch": 66, "duration": 259, "velocity": 85}, {"time": 76071, "pitch": 57, "duration": 239, "velocity": 75}, {"time": 76071, "pitch": 62, "duration": 239, "velocity": 80}, {"time": 76081, "pitch": 45, "duration": 219, "velocity": 85}, {"time": 76081, "pitch": 50, "duration": 219, "velocity": 70}, {"time": 76300, "pitch": 45, "duration": 260, "velocity": 100}, {"time": 76310, "pitch": 50, "duration": 240, "velocity": 85}, {"time": 76310, "pitch": 57, "duration": 240, "velocity": 90}, {"time": 76320, "pitch": 62, "duration": 220, "velocity": 95}, {"time": 76320, "pitch": 66, "duration": 220, "velocity": 100}, {"time": 76540, "pitch": 66, "duration": 260, "velocity": 80}, {"time": 76550, "pitch": 57, "duration": 240, "velocity": 70}, {"time": 76550, "pitch": 62, "duration": 240, "velocity": 75}, {"time": 76560, "pitch": 45, "duration": 220, "velocity": 80}, {"time": 76560, "pitch": 50, "duration": 220, "velocity": 65}, {"time": 76780, "pitch": 45, "duration": 263, "velocity": 90}, {"time": 76790, "pitch": 50, "duration": 243, "velocity": 75}, {"time": 76790, "pitch": 57, "duration": 243, "velocity": 80}, {"time": 76800, "pitch": 62, "duration": 223, "velocity": 85}, {"time": 76800, "pitch": 66, "duration": 223, "velocity": 90}, {"time": 77023, "pitch": 66, "duration": 263, "velocity": 85}, {"time": 77033, "pitch": 57, "duration": 243, "velocity": 75}, {"time": 77033, "pitch": 62, "duration": 243, "velocity": 80}, {"time": 77043, "pitch": 45, "duration": 223, "velocity": 85}, {"time": 77043, "pitch": 50, "duration": 223, "velocity": 70}, {"time": 77266, "pitch": 45, "duration": 260, "velocity": 100}, {"time": 77276, "pitch": 50, "duration": 240, "velocity": 85}, {"time": 77276, "pitch": 57, "duration": 240, "velocity": 90}, {"time": 77286, "pitch": 62, "duration": 220, "velocity": 95}, {"time": 77286, "pitch": 66, "duration": 220, "velocity": 100}, {"time": 77506, "pitch": 66, "duration": 259, "velocity": 80}, {"time": 77516, "pitch": 57, "duration": 239, "velocity": 70}, {"time": 77516, "pitch": 62, "duration": 239, "velocity": 75}, {"time": 77526, "pitch": 45, "duration": 219, "velocity": 80}, {"time": 77526, "pitch": 50, "duration": 219, "velocity": 65}, {"time": 77745, "pitch": 47, "duration": 260, "velocity": 90}, {"time": 77755, "pitch": 52, "duration": 240, "velocity": 75}, {"time": 77755, "pitch": 55, "duration": 240, "velocity": 80}, {"time": 77765, "pitch": 59, "duration": 220, "velocity": 85}, {"time": 77765, "pitch": 64, "duration": 220, "velocity": 90}, {"time": 77985, "pitch": 64, "duration": 260, "velocity": 85}, {"time": 77995, "pitch": 55, "duration": 240, "velocity": 75}, {"time": 77995, "pitch": 59, "duration": 240, "velocity": 80}, {"time": 78005, "pitch": 47, "duration": 220, "velocity": 85}, {"time": 78005, "pitch": 52, "duration": 220, "velocity": 70}, {"time": 78225, "pitch": 47, "duration": 260, "velocity": 100}, {"time": 78235, "pitch": 52, "duration": 240, "velocity": 85}, {"time": 78235, "pitch": 55, "duration": 240, "velocity": 90}, {"time": 78245, "pitch": 59, "duration": 220, "velocity": 95}, {"time": 78245, "pitch": 64, "duration": 220, "velocity": 100}, {"time": 78465, "pitch": 64, "duration": 260, "velocity": 80}, {"time": 78475, "pitch": 55, "duration": 240, "velocity": 70}, {"time": 78475, "pitch": 59, "duration": 240, "velocity": 75}, {"time": 78485, "pitch": 47, "duration": 220, "velocity": 80}, {"time": 78485, "pitch": 52, "duration": 220, "velocity": 65}, {"time": 78705, "pitch": 47, "duration": 259, "velocity": 90}, {"time": 78715, "pitch": 52, "duration": 239, "velocity": 75}, {"time": 78715, "pitch": 55, "duration": 239, "velocity": 80}, {"time": 78725, "pitch": 59, "duration": 219, "velocity": 85}, {"time": 78725, "pitch": 64, "duration": 219, "velocity": 90}, {"time": 78944, "pitch": 64, "duration": 260, "velocity": 85}, {"time": 78954, "pitch": 55, "duration": 240, "velocity": 75}, {"time": 78954, "pitch": 59, "duration": 240, "velocity": 80}, {"time": 78964, "pitch": 47, "duration": 220, "velocity": 85}, {"time": 78964, "pitch": 52, "duration": 220, "velocity": 70}, {"time": 79184, "pitch": 47, "duration": 260, "velocity": 100}, {"time": 79194, "pitch": 52, "duration": 240, "velocity": 85}, {"time": 79194, "pitch": 55, "duration": 240, "velocity": 90}, {"time": 79204, "pitch": 59, "duration": 220, "velocity": 95}, {"time": 79204, "pitch": 64, "duration": 220, "velocity": 100}, {"time": 79424, "pitch": 64, "duration": 260, "velocity": 80}, {"time": 79434, "pitch": 55, "duration": 240, "velocity": 70}, {"time": 79434, "pitch": 59, "duration": 240, "velocity": 75}, {"time": 79444, "pitch": 47, "duration": 220, "velocity": 80}, {"time": 79444, "pitch": 52, "duration": 220, "velocity": 65}, {"time": 79664, "pitch": 47, "duration": 260, "velocity": 90}, {"time": 79674, "pitch": 50, "duration": 240, "velocity": 75}, {"time": 79674, "pitch": 55, "duration": 240, "velocity": 80}, {"time": 79684, "pitch": 59, "duration": 220, "velocity": 85}, {"time": 79684, "pitch": 67, "duration": 220, "velocity": 90}, {"time": 79904, "pitch": 67, "duration": 260, "velocity": 85}, {"time": 79914, "pitch": 55, "duration": 240, "velocity": 75}, {"time": 79914, "pitch": 59, "duration": 240, "velocity": 80}, {"time": 79924, "pitch": 47, "duration": 220, "velocity": 85}, {"time": 79924, "pitch": 50, "duration": 220, "velocity": 70}, {"time": 80144, "pitch": 47, "duration": 259, "velocity": 100}, {"time": 80154, "pitch": 50, "duration": 239, "velocity": 85}, {"time": 80154, "pitch": 55, "duration": 239, "velocity": 90}, {"time": 80164, "pitch": 59, "duration": 219, "velocity": 95}, {"time": 80164, "pitch": 67, "duration": 219, "velocity": 100}, {"time": 80383, "pitch": 67, "duration": 260, "velocity": 80}, {"time": 80393, "pitch": 55, "duration": 240, "velocity": 70}, {"time": 80393, "pitch": 59, "duration": 240, "velocity": 75}, {"time": 80403, "pitch": 47, "duration": 220, "velocity": 80}, {"time": 80403, "pitch": 50, "duration": 220, "velocity": 65}, {"time": 80623, "pitch": 47, "duration": 260, "velocity": 90}, {"time": 80633, "pitch": 50, "duration": 240, "velocity": 75}, {"time": 80633, "pitch": 55, "duration": 240, "velocity": 80}, {"time": 80643, "pitch": 59, "duration": 220, "velocity": 85}, {"time": 80643, "pitch": 67, "duration": 220, "velocity": 90}, {"time": 80863, "pitch": 67, "duration": 260, "velocity": 85}, {"time": 80873, "pitch": 55, "duration": 240, "velocity": 75}, {"time": 80873, "pitch": 59, "duration": 240, "velocity": 80}, {"time": 80883, "pitch": 47, "duration": 220, "velocity": 85}, {"time": 80883, "pitch": 50, "duration": 220, "velocity": 70}, {"time": 81103, "pitch": 47, "duration": 260, "velocity": 100}, {"time": 81113, "pitch": 50, "duration": 240, "velocity": 85}, {"time": 81113, "pitch": 55, "duration": 240, "velocity": 90}, {"time": 81123, "pitch": 59, "duration": 220, "velocity": 95}, {"time": 81123, "pitch": 67, "duration": 220, "velocity": 100}, {"time": 81343, "pitch": 67, "duration": 260, "velocity": 80}, {"time": 81353, "pitch": 55, "duration": 240, "velocity": 70}, {"time": 81353, "pitch": 59, "duration": 240, "velocity": 75}, {"time": 81363, "pitch": 47, "duration": 220, "velocity": 80}, {"time": 81363, "pitch": 50, "duration": 220, "velocity": 65}, {"time": 81583, "pitch": 45, "duration": 259, "velocity": 90}, {"time": 81593, "pitch": 50, "duration": 239, "velocity": 75}, {"time": 81593, "pitch": 57, "duration": 239, "velocity": 80}, {"time": 81603, "pitch": 62, "duration": 219, "velocity": 85}, {"time": 81603, "pitch": 66, "duration": 219, "velocity": 90}, {"time": 81822, "pitch": 66, "duration": 260, "velocity": 85}, {"time": 81832, "pitch": 57, "duration": 240, "velocity": 75}, {"time": 81832, "pitch": 62, "duration": 240, "velocity": 80}, {"time": 81842, "pitch": 45, "duration": 220, "velocity": 85}, {"time": 81842, "pitch": 50, "duration": 220, "velocity": 70}, {"time": 82062, "pitch": 45, "duration": 260, "velocity": 100}, {"time": 82072, "pitch": 50, "duration": 240, "velocity": 85}, {"time": 82072, "pitch": 57, "duration": 240, "velocity": 90}, {"time": 82082, "pitch": 62, "duration": 220, "velocity": 95}, {"time": 82082, "pitch": 66, "duration": 220, "velocity": 100}, {"time": 82302, "pitch": 66, "duration": 260, "velocity": 80}, {"time": 82312, "pitch": 57, "duration": 240, "velocity": 70}, {"time": 82312, "pitch": 62, "duration": 240, "velocity": 75}, {"time": 82322, "pitch": 45, "duration": 220, "velocity": 80}, {"time": 82322, "pitch": 50, "duration": 220, "velocity": 65}, {"time": 82542, "pitch": 45, "duration": 260, "velocity": 90}, {"time": 82552, "pitch": 50, "duration": 240, "velocity": 75}, {"time": 82552, "pitch": 57, "duration": 240, "velocity": 80}, {"time": 82562, "pitch": 62, "duration": 220, "velocity": 85}, {"time": 82562, "pitch": 67, "duration": 220, "velocity": 90}, {"time": 82782, "pitch": 66, "duration": 259, "velocity": 85}, {"time": 82792, "pitch": 57, "duration": 239, "velocity": 75}, {"time": 82792, "pitch": 62, "duration": 239, "velocity": 80}, {"time": 82802, "pitch": 45, "duration": 220, "velocity": 85}, {"time": 82802, "pitch": 50, "duration": 220, "velocity": 70}, {"time": 83022, "pitch": 45, "duration": 259, "velocity": 100}, {"time": 83031, "pitch": 50, "duration": 240, "velocity": 85}, {"time": 83031, "pitch": 57, "duration": 240, "velocity": 90}, {"time": 83041, "pitch": 62, "duration": 220, "velocity": 95}, {"time": 83041, "pitch": 64, "duration": 220, "velocity": 100}, {"time": 83261, "pitch": 67, "duration": 260, "velocity": 80}, {"time": 83271, "pitch": 57, "duration": 240, "velocity": 70}, {"time": 83271, "pitch": 62, "duration": 240, "velocity": 75}, {"time": 83281, "pitch": 45, "duration": 220, "velocity": 80}, {"time": 83281, "pitch": 50, "duration": 220, "velocity": 65}, {"time": 83501, "pitch": 45, "duration": 260, "velocity": 90}, {"time": 83511, "pitch": 50, "duration": 240, "velocity": 75}, {"time": 83511, "pitch": 57, "duration": 240, "velocity": 80}, {"time": 83521, "pitch": 62, "duration": 220, "velocity": 85}, {"time": 83521, "pitch": 66, "duration": 220, "velocity": 90}, {"time": 83741, "pitch": 66, "duration": 260, "velocity": 85}, {"time": 83751, "pitch": 57, "duration": 240, "velocity": 75}, {"time": 83751, "pitch": 62, "duration": 240, "velocity": 80}, {"time": 83761, "pitch": 45, "duration": 220, "velocity": 85}, {"time": 83761, "pitch": 50, "duration": 220, "velocity": 70}, {"time": 83981, "pitch": 45, "duration": 260, "velocity": 100}, {"time": 83991, "pitch": 50, "duration": 240, "velocity": 85}, {"time": 83991, "pitch": 57, "duration": 240, "velocity": 90}, {"time": 84001, "pitch": 62, "duration": 220, "velocity": 95}, {"time": 84001, "pitch": 66, "duration": 220, "velocity": 100}, {"time": 84221, "pitch": 66, "duration": 259, "velocity": 80}, {"time": 84231, "pitch": 57, "duration": 239, "velocity": 70}, {"time": 84231, "pitch": 62, "duration": 239, "velocity": 75}, {"time": 84241, "pitch": 45, "duration": 219, "velocity": 80}, {"time": 84241, "pitch": 50, "duration": 219, "velocity": 65}, {"time": 84460, "pitch": 45, "duration": 260, "velocity": 90}, {"time": 84470, "pitch": 50, "duration": 240, "velocity": 75}, {"time": 84470, "pitch": 57, "duration": 240, "velocity": 80}, {"time": 84480, "pitch": 62, "duration": 220, "velocity": 85}, {"time": 84480, "pitch": 66, "duration": 220, "velocity": 90}, {"time": 84700, "pitch": 66, "duration": 260, "velocity": 85}, {"time": 84710, "pitch": 57, "duration": 240, "velocity": 75}, {"time": 84710, "pitch": 62, "duration": 240, "velocity": 80}, {"time": 84720, "pitch": 45, "duration": 220, "velocity": 85}, {"time": 84720, "pitch": 50, "duration": 220, "velocity": 70}, {"time": 84940, "pitch": 45, "duration": 263, "velocity": 100}, {"time": 84950, "pitch": 50, "duration": 243, "velocity": 85}, {"time": 84950, "pitch": 57, "duration": 243, "velocity": 90}, {"time": 84960, "pitch": 62, "duration": 223, "velocity": 95}, {"time": 84960, "pitch": 66, "duration": 223, "velocity": 100}, {"time": 85183, "pitch": 66, "duration": 263, "velocity": 80}, {"time": 85193, "pitch": 57, "duration": 243, "velocity": 70}, {"time": 85193, "pitch": 62, "duration": 243, "velocity": 75}, {"time": 85203, "pitch": 45, "duration": 223, "velocity": 80}, {"time": 85203, "pitch": 50, "duration": 223, "velocity": 65}, {"time": 85426, "pitch": 47, "duration": 260, "velocity": 90}, {"time": 85436, "pitch": 52, "duration": 240, "velocity": 75}, {"time": 85436, "pitch": 55, "duration": 240, "velocity": 80}, {"time": 85446, "pitch": 59, "duration": 220, "velocity": 85}, {"time": 85446, "pitch": 64, "duration": 220, "velocity": 90}, {"time": 85666, "pitch": 64, "duration": 259, "velocity": 85}, {"time": 85676, "pitch": 55, "duration": 239, "velocity": 75}, {"time": 85676, "pitch": 59, "duration": 239, "velocity": 80}, {"time": 85686, "pitch": 47, "duration": 219, "velocity": 85}, {"time": 85686, "pitch": 52, "duration": 219, "velocity": 70}, {"time": 85905, "pitch": 47, "duration": 260, "velocity": 100}, {"time": 85915, "pitch": 52, "duration": 240, "velocity": 85}, {"time": 85915, "pitch": 55, "duration": 240, "velocity": 90}, {"time": 85925, "pitch": 59, "duration": 220, "velocity": 95}, {"time": 85925, "pitch": 64, "duration": 220, "velocity": 100}, {"time": 86145, "pitch": 64, "duration": 260, "velocity": 80}, {"time": 86155, "pitch": 55, "duration": 240, "velocity": 70}, {"time": 86155, "pitch": 59, "duration": 240, "velocity": 75}, {"time": 86165, "pitch": 47, "duration": 220, "velocity": 80}, {"time": 86165, "pitch": 52, "duration": 220, "velocity": 65}, {"time": 86385, "pitch": 47, "duration": 260, "velocity": 90}, {"time": 86395, "pitch": 52, "duration": 240, "velocity": 75}, {"time": 86395, "pitch": 55, "duration": 240, "velocity": 80}, {"time": 86405, "pitch": 59, "duration": 220, "velocity": 85}, {"time": 86405, "pitch": 64, "duration": 220, "velocity": 90}, {"time": 86625, "pitch": 64, "duration": 260, "velocity": 85}, {"time": 86635, "pitch": 55, "duration": 240, "velocity": 75}, {"time": 86635, "pitch": 59, "duration": 240, "velocity": 80}, {"time": 86645, "pitch": 47, "duration": 220, "velocity": 85}, {"time": 86645, "pitch": 52, "duration": 220, "velocity": 70}, {"time": 86865, "pitch": 47, "duration": 260, "velocity": 100}, {"time": 86875, "pitch": 52, "duration": 240, "velocity": 85}, {"time": 86875, "pitch": 55, "duration": 240, "velocity": 90}, {"time": 86885, "pitch": 59, "duration": 220, "velocity": 95}, {"time": 86885, "pitch": 64, "duration": 220, "velocity": 100}, {"time": 87105, "pitch": 64, "duration": 259, "velocity": 80}, {"time": 87115, "pitch": 55, "duration": 239, "velocity": 70}, {"time": 87115, "pitch": 59, "duration": 239, "velocity": 75}, {"time": 87125, "pitch": 47, "duration": 219, "velocity": 80}, {"time": 87125, "pitch": 52, "duration": 219, "velocity": 65}, {"time": 87344, "pitch": 47, "duration": 260, "velocity": 90}, {"time": 87354, "pitch": 50, "duration": 240, "velocity": 75}, {"time": 87354, "pitch": 55, "duration": 240, "velocity": 80}, {"time": 87364, "pitch": 59, "duration": 220, "velocity": 85}, {"time": 87364, "pitch": 67, "duration": 220, "velocity": 90}, {"time": 87584, "pitch": 67, "duration": 260, "velocity": 85}, {"time": 87594, "pitch": 55, "duration": 240, "velocity": 75}, {"time": 87594, "pitch": 59, "duration": 240, "velocity": 80}, {"time": 87604, "pitch": 47, "duration": 220, "velocity": 85}, {"time": 87604, "pitch": 50, "duration": 220, "velocity": 70}, {"time": 87824, "pitch": 47, "duration": 260, "velocity": 100}, {"time": 87834, "pitch": 50, "duration": 240, "velocity": 85}, {"time": 87834, "pitch": 55, "duration": 240, "velocity": 90}, {"time": 87844, "pitch": 59, "duration": 220, "velocity": 95}, {"time": 87844, "pitch": 67, "duration": 220, "velocity": 100}, {"time": 88064, "pitch": 67, "duration": 260, "velocity": 80}, {"time": 88074, "pitch": 55, "duration": 240, "velocity": 70}, {"time": 88074, "pitch": 59, "duration": 240, "velocity": 75}, {"time": 88084, "pitch": 47, "duration": 220, "velocity": 80}, {"time": 88084, "pitch": 50, "duration": 220, "velocity": 65}, {"time": 88304, "pitch": 47, "duration": 260, "velocity": 90}, {"time": 88314, "pitch": 50, "duration": 240, "velocity": 75}, {"time": 88314, "pitch": 55, "duration": 240, "velocity": 80}, {"time": 88324, "pitch": 59, "duration": 220, "velocity": 85}, {"time": 88324, "pitch": 67, "duration": 220, "velocity": 90}, {"time": 88544, "pitch": 67, "duration": 259, "velocity": 85}, {"time": 88554, "pitch": 55, "duration": 239, "velocity": 75}, {"time": 88554, "pitch": 59, "duration": 239, "velocity": 80}, {"time": 88564, "pitch": 47, "duration": 219, "velocity": 85}, {"time": 88564, "pitch": 50, "duration": 219, "velocity": 70}, {"time": 88783, "pitch": 47, "duration": 260, "velocity": 100}, {"time": 88793, "pitch": 50, "duration": 240, "velocity": 85}, {"time": 88793, "pitch": 55, "duration": 240, "velocity": 90}, {"time": 88803, "pitch": 59, "duration": 220, "velocity": 95}, {"time": 88803, "pitch": 67, "duration": 220, "velocity": 100}, {"time": 89023, "pitch": 67, "duration": 260, "velocity": 80}, {"time": 89033, "pitch": 55, "duration": 240, "velocity": 70}, {"time": 89033, "pitch": 59, "duration": 240, "velocity": 75}, {"time": 89043, "pitch": 47, "duration": 220, "velocity": 80}, {"time": 89043, "pitch": 50, "duration": 220, "velocity": 65}, {"time": 89263, "pitch": 45, "duration": 260, "velocity": 90}, {"time": 89273, "pitch": 50, "duration": 240, "velocity": 75}, {"time": 89273, "pitch": 57, "duration": 240, "velocity": 80}, {"time": 89283, "pitch": 62, "duration": 220, "velocity": 85}, {"time": 89283, "pitch": 66, "duration": 220, "velocity": 90}, {"time": 89503, "pitch": 66, "duration": 260, "velocity": 85}, {"time": 89513, "pitch": 57, "duration": 240, "velocity": 75}, {"time": 89513, "pitch": 62, "duration": 240, "velocity": 80}, {"time": 89523, "pitch": 45, "duration": 220, "velocity": 85}, {"time": 89523, "pitch": 50, "duration": 220, "velocity": 70}, {"time": 89743, "pitch": 45, "duration": 259, "velocity": 100}, {"time": 89753, "pitch": 50, "duration": 239, "velocity": 85}, {"time": 89753, "pitch": 57, "duration": 239, "velocity": 90}, {"time": 89763, "pitch": 62, "duration": 219, "velocity": 95}, {"time": 89763, "pitch": 66, "duration": 219, "velocity": 100}, {"time": 89982, "pitch": 66, "duration": 260, "velocity": 80}, {"time": 89992, "pitch": 57, "duration": 240, "velocity": 70}, {"time": 89992, "pitch": 62, "duration": 240, "velocity": 75}, {"time": 90002, "pitch": 45, "duration": 220, "velocity": 80}, {"time": 90002, "pitch": 50, "duration": 220, "velocity": 65}, {"time": 90222, "pitch": 45, "duration": 260, "velocity": 90}, {"time": 90232, "pitch": 50, "duration": 240, "velocity": 75}, {"time": 90232, "pitch": 57, "duration": 240, "velocity": 80}, {"time": 90242, "pitch": 62, "duration": 220, "velocity": 85}, {"time": 90242, "pitch": 67, "duration": 220, "velocity": 90}, {"time": 90462, "pitch": 66, "duration": 260, "velocity": 85}, {"time": 90472, "pitch": 57, "duration": 240, "velocity": 75}, {"time": 90472, "pitch": 62, "duration": 240, "velocity": 80}, {"time": 90482, "pitch": 45, "duration": 220, "velocity": 85}, {"time": 90482, "pitch": 50, "duration": 220, "velocity": 70}, {"time": 90702, "pitch": 45, "duration": 260, "velocity": 100}, {"time": 90712, "pitch": 50, "duration": 240, "velocity": 85}, {"time": 90712, "pitch": 57, "duration": 240, "velocity": 90}, {"time": 90722, "pitch": 62, "duration": 220, "velocity": 95}, {"time": 90722, "pitch": 64, "duration": 220, "velocity": 100}, {"time": 90942, "pitch": 67, "duration": 260, "velocity": 80}, {"time": 90952, "pitch": 57, "duration": 240, "velocity": 70}, {"time": 90952, "pitch": 62, "duration": 240, "velocity": 75}, {"time": 90962, "pitch": 45, "duration": 220, "velocity": 80}, {"time": 90962, "pitch": 50, "duration": 220, "velocity": 65}, {"time": 91182, "pitch": 48, "duration": 239, "velocity": 120}, {"time": 91192, "pitch": 52, "duration": 239, "velocity": 105}, {"time": 91192, "pitch": 55, "duration": 239, "velocity": 110}, {"time": 91202, "pitch": 60, "duration": 239, "velocity": 115}, {"time": 91202, "pitch": 64, "duration": 239, "velocity": 120}, {"time": 91421, "pitch": 48, "duration": 140, "velocity": 120}, {"time": 91431, "pitch": 52, "duration": 130, "velocity": 105}, {"time": 91431, "pitch": 55, "duration": 120, "velocity": 110}, {"time": 91441, "pitch": 60, "duration": 110, "velocity": 115}, {"time": 91441, "pitch": 64, "duration": 100, "velocity": 120}, {"time": 91541, "pitch": 64, "duration": 140, "velocity": 110}, {"time": 91551, "pitch": 55, "duration": 120, "velocity": 100}, {"time": 91551, "pitch": 60, "duration": 130, "velocity": 105}, {"time": 91561, "pitch": 48, "duration": 100, "velocity": 110}, {"time": 91561, "pitch": 52, "duration": 110, "velocity": 95}, {"time": 91661, "pitch": 48, "duration": 240, "velocity": 120}, {"time": 91671, "pitch": 52, "duration": 240, "velocity": 105}, {"time": 91671, "pitch": 55, "duration": 240, "velocity": 110}, {"time": 91681, "pitch": 60, "duration": 240, "velocity": 115}, {"time": 91681, "pitch": 64, "duration": 240, "velocity": 120}, {"time": 91901, "pitch": 47, "duration": 140, "velocity": 120}, {"time": 91911, "pitch": 52, "duration": 130, "velocity": 105}, {"time": 91911, "pitch": 55, "duration": 120, "velocity": 110}, {"time": 91921, "pitch": 59, "duration": 110, "velocity": 115}, {"time": 91921, "pitch": 64, "duration": 100, "velocity": 120}, {"time": 92021, "pitch": 64, "duration": 140, "velocity": 110}, {"time": 92031, "pitch": 55, "duration": 120, "velocity": 100}, {"time": 92031, "pitch": 59, "duration": 130, "velocity": 105}, {"time": 92041, "pitch": 47, "duration": 100, "velocity": 110}, {"time": 92041, "pitch": 52, "duration": 110, "velocity": 95}, {"time": 92141, "pitch": 45, "duration": 240, "velocity": 120}, {"time": 92151, "pitch": 52, "duration": 240, "velocity": 105}, {"time": 92151, "pitch": 55, "duration": 240, "velocity": 110}, {"time": 92161, "pitch": 60, "duration": 240, "velocity": 115}, {"time": 92161, "pitch": 64, "duration": 240, "velocity": 120}, {"time": 92381, "pitch": 45, "duration": 140, "velocity": 120}, {"time": 92391, "pitch": 52, "duration": 130, "velocity": 105}, {"time": 92391, "pitch": 55, "duration": 120, "velocity": 110}, {"time": 92401, "pitch": 60, "duration": 110, "velocity": 115}, {"time": 92401, "pitch": 64, "duration": 100, "velocity": 120}, {"time": 92501, "pitch": 64, "duration": 140, "velocity": 110}, {"time": 92511, "pitch": 55, "duration": 120, "velocity": 100}, {"time": 92511, "pitch": 60, "duration": 130, "velocity": 105}, {"time": 92521, "pitch": 45, "duration": 100, "velocity": 110}, {"time": 92521, "pitch": 52, "duration": 110, "velocity": 95}, {"time": 92621, "pitch": 45, "duration": 239, "velocity": 120}, {"time": 92631, "pitch": 52, "duration": 239, "velocity": 105}, {"time": 92631, "pitch": 55, "duration": 239, "velocity": 110}, {"time": 92641, "pitch": 60, "duration": 239, "velocity": 115}, {"time": 92641, "pitch": 64, "duration": 239, "velocity": 120}, {"time": 92860, "pitch": 45, "duration": 140, "velocity": 120}, {"time": 92870, "pitch": 52, "duration": 130, "velocity": 105}, {"time": 92870, "pitch": 55, "duration": 120, "velocity": 110}, {"time": 92880, "pitch": 60, "duration": 110, "velocity": 115}, {"time": 92880, "pitch": 64, "duration": 100, "velocity": 120}, {"time": 92980, "pitch": 64, "duration": 140, "velocity": 110}, {"time": 92990, "pitch": 55, "duration": 120, "velocity": 100}, {"time": 92990, "pitch": 60, "duration": 130, "velocity": 105}, {"time": 93000, "pitch": 45, "duration": 100, "velocity": 110}, {"time": 93000, "pitch": 52, "duration": 110, "velocity": 95}, {"time": 93100, "pitch": 45, "duration": 243, "velocity": 120}, {"time": 93110, "pitch": 50, "duration": 243, "velocity": 105}, {"time": 93110, "pitch": 57, "duration": 243, "velocity": 110}, {"time": 93120, "pitch": 62, "duration": 243, "velocity": 115}, {"time": 93120, "pitch": 66, "duration": 243, "velocity": 120}, {"time": 93343, "pitch": 45, "duration": 142, "velocity": 120}, {"time": 93353, "pitch": 50, "duration": 132, "velocity": 105}, {"time": 93353, "pitch": 57, "duration": 121, "velocity": 110}, {"time": 93363, "pitch": 62, "duration": 111, "velocity": 115}, {"time": 93363, "pitch": 66, "duration": 101, "velocity": 120}, {"time": 93464, "pitch": 66, "duration": 142, "velocity": 110}, {"time": 93474, "pitch": 57, "duration": 122, "velocity": 100}, {"time": 93474, "pitch": 62, "duration": 132, "velocity": 105}, {"time": 93485, "pitch": 45, "duration": 101, "velocity": 110}, {"time": 93485, "pitch": 50, "duration": 111, "velocity": 95}, {"time": 93586, "pitch": 45, "duration": 240, "velocity": 120}, {"time": 93596, "pitch": 50, "duration": 240, "velocity": 105}, {"time": 93596, "pitch": 57, "duration": 240, "velocity": 110}, {"time": 93606, "pitch": 62, "duration": 240, "velocity": 115}, {"time": 93606, "pitch": 66, "duration": 240, "velocity": 120}, {"time": 93826, "pitch": 45, "duration": 140, "velocity": 120}, {"time": 93836, "pitch": 50, "duration": 130, "velocity": 105}, {"time": 93836, "pitch": 57, "duration": 120, "velocity": 110}, {"time": 93846, "pitch": 62, "duration": 110, "velocity": 115}, {"time": 93846, "pitch": 66, "duration": 100, "velocity": 120}, {"time": 93946, "pitch": 66, "duration": 140, "velocity": 110}, {"time": 93956, "pitch": 57, "duration": 120, "velocity": 100}, {"time": 93956, "pitch": 62, "duration": 130, "velocity": 105}, {"time": 93966, "pitch": 45, "duration": 100, "velocity": 110}, {"time": 93966, "pitch": 50, "duration": 110, "velocity": 95}, {"time": 94066, "pitch": 45, "duration": 239, "velocity": 120}, {"time": 94076, "pitch": 50, "duration": 239, "velocity": 105}, {"time": 94076, "pitch": 57, "duration": 239, "velocity": 110}, {"time": 94086, "pitch": 62, "duration": 239, "velocity": 115}, {"time": 94086, "pitch": 67, "duration": 239, "velocity": 120}, {"time": 94305, "pitch": 45, "duration": 140, "velocity": 120}, {"time": 94315, "pitch": 50, "duration": 130, "velocity": 105}, {"time": 94315, "pitch": 57, "duration": 120, "velocity": 110}, {"time": 94325, "pitch": 62, "duration": 110, "velocity": 115}, {"time": 94325, "pitch": 66, "duration": 100, "velocity": 120}, {"time": 94425, "pitch": 66, "duration": 140, "velocity": 110}, {"time": 94435, "pitch": 57, "duration": 120, "velocity": 100}, {"time": 94435, "pitch": 62, "duration": 130, "velocity": 105}, {"time": 94445, "pitch": 45, "duration": 100, "velocity": 110}, {"time": 94445, "pitch": 50, "duration": 110, "velocity": 95}, {"time": 94545, "pitch": 45, "duration": 240, "velocity": 120}, {"time": 94555, "pitch": 50, "duration": 240, "velocity": 105}, {"time": 94555, "pitch": 57, "duration": 240, "velocity": 110}, {"time": 94565, "pitch": 62, "duration": 240, "velocity": 115}, {"time": 94565, "pitch": 66, "duration": 240, "velocity": 120}, {"time": 94785, "pitch": 45, "duration": 140, "velocity": 120}, {"time": 94795, "pitch": 50, "duration": 130, "velocity": 105}, {"time": 94795, "pitch": 57, "duration": 120, "velocity": 110}, {"time": 94805, "pitch": 62, "duration": 110, "velocity": 115}, {"time": 94805, "pitch": 66, "duration": 100, "velocity": 120}, {"time": 94905, "pitch": 66, "duration": 140, "velocity": 110}, {"time": 94915, "pitch": 57, "duration": 120, "velocity": 100}, {"time": 94915, "pitch": 62, "duration": 130, "velocity": 105}, {"time": 94925, "pitch": 45, "duration": 100, "velocity": 110}, {"time": 94925, "pitch": 50, "duration": 110, "velocity": 95}, {"time": 95025, "pitch": 48, "duration": 240, "velocity": 120}, {"time": 95035, "pitch": 52, "duration": 240, "velocity": 105}, {"time": 95035, "pitch": 55, "duration": 240, "velocity": 110}, {"time": 95045, "pitch": 60, "duration": 240, "velocity": 115}, {"time": 95045, "pitch": 64, "duration": 240, "velocity": 120}, {"time": 95265, "pitch": 48, "duration": 140, "velocity": 120}, {"time": 95275, "pitch": 52, "duration": 130, "velocity": 105}, {"time": 95275, "pitch": 55, "duration": 120, "velocity": 110}, {"time": 95285, "pitch": 60, "duration": 110, "velocity": 115}, {"time": 95285, "pitch": 64, "duration": 100, "velocity": 120}, {"time": 95385, "pitch": 64, "duration": 139, "velocity": 110}, {"time": 95395, "pitch": 55, "duration": 120, "velocity": 100}, {"time": 95395, "pitch": 60, "duration": 129, "velocity": 105}, {"time": 95405, "pitch": 48, "duration": 100, "velocity": 110}, {"time": 95405, "pitch": 52, "duration": 110, "velocity": 95}, {"time": 95505, "pitch": 48, "duration": 239, "velocity": 120}, {"time": 95515, "pitch": 52, "duration": 239, "velocity": 105}, {"time": 95515, "pitch": 55, "duration": 239, "velocity": 110}, {"time": 95524, "pitch": 60, "duration": 240, "velocity": 115}, {"time": 95524, "pitch": 64, "duration": 240, "velocity": 120}, {"time": 95744, "pitch": 47, "duration": 140, "velocity": 120}, {"time": 95754, "pitch": 52, "duration": 130, "velocity": 105}, {"time": 95754, "pitch": 55, "duration": 120, "velocity": 110}, {"time": 95764, "pitch": 59, "duration": 110, "velocity": 115}, {"time": 95764, "pitch": 64, "duration": 100, "velocity": 120}, {"time": 95864, "pitch": 64, "duration": 140, "velocity": 110}, {"time": 95874, "pitch": 55, "duration": 120, "velocity": 100}, {"time": 95874, "pitch": 59, "duration": 130, "velocity": 105}, {"time": 95884, "pitch": 47, "duration": 100, "velocity": 110}, {"time": 95884, "pitch": 52, "duration": 110, "velocity": 95}, {"time": 95984, "pitch": 45, "duration": 240, "velocity": 120}, {"time": 95994, "pitch": 52, "duration": 240, "velocity": 105}, {"time": 95994, "pitch": 55, "duration": 240, "velocity": 110}, {"time": 96004, "pitch": 60, "duration": 240, "velocity": 115}, {"time": 96004, "pitch": 64, "duration": 240, "velocity": 120}, {"time": 96224, "pitch": 45, "duration": 140, "velocity": 120}, {"time": 96234, "pitch": 52, "duration": 130, "velocity": 105}, {"time": 96234, "pitch": 55, "duration": 120, "velocity": 110}, {"time": 96244, "pitch": 60, "duration": 110, "velocity": 115}, {"time": 96244, "pitch": 64, "duration": 100, "velocity": 120}, {"time": 96344, "pitch": 64, "duration": 140, "velocity": 110}, {"time": 96354, "pitch": 55, "duration": 120, "velocity": 100}, {"time": 96354, "pitch": 60, "duration": 130, "velocity": 105}, {"time": 96364, "pitch": 45, "duration": 100, "velocity": 110}, {"time": 96364, "pitch": 52, "duration": 110, "velocity": 95}, {"time": 96464, "pitch": 45, "duration": 240, "velocity": 120}, {"time": 96474, "pitch": 52, "duration": 240, "velocity": 105}, {"time": 96474, "pitch": 55, "duration": 240, "velocity": 110}, {"time": 96484, "pitch": 60, "duration": 240, "velocity": 115}, {"time": 96484, "pitch": 64, "duration": 240, "velocity": 120}, {"time": 96704, "pitch": 45, "duration": 140, "velocity": 120}, {"time": 96714, "pitch": 52, "duration": 130, "velocity": 105}, {"time": 96714, "pitch": 55, "duration": 120, "velocity": 110}, {"time": 96724, "pitch": 60, "duration": 110, "velocity": 115}, {"time": 96724, "pitch": 64, "duration": 100, "velocity": 120}, {"time": 96824, "pitch": 64, "duration": 139, "velocity": 110}, {"time": 96834, "pitch": 55, "duration": 119, "velocity": 100}, {"time": 96834, "pitch": 60, "duration": 129, "velocity": 105}, {"time": 96844, "pitch": 45, "duration": 99, "velocity": 110}, {"time": 96844, "pitch": 52, "duration": 109, "velocity": 95}, {"time": 96943, "pitch": 45, "duration": 240, "velocity": 120}, {"time": 96953, "pitch": 50, "duration": 240, "velocity": 105}, {"time": 96953, "pitch": 57, "duration": 240, "velocity": 110}, {"time": 96963, "pitch": 62, "duration": 240, "velocity": 115}, {"time": 96963, "pitch": 66, "duration": 240, "velocity": 120}, {"time": 97183, "pitch": 45, "duration": 140, "velocity": 120}, {"time": 97193, "pitch": 50, "duration": 130, "velocity": 105}, {"time": 97193, "pitch": 57, "duration": 120, "velocity": 110}, {"time": 97203, "pitch": 62, "duration": 110, "velocity": 115}, {"time": 97203, "pitch": 66, "duration": 100, "velocity": 120}, {"time": 97303, "pitch": 66, "duration": 140, "velocity": 110}, {"time": 97313, "pitch": 57, "duration": 120, "velocity": 100}, {"time": 97313, "pitch": 62, "duration": 130, "velocity": 105}, {"time": 97323, "pitch": 45, "duration": 100, "velocity": 110}, {"time": 97323, "pitch": 50, "duration": 110, "velocity": 95}, {"time": 97423, "pitch": 45, "duration": 240, "velocity": 120}, {"time": 97433, "pitch": 50, "duration": 240, "velocity": 105}, {"time": 97433, "pitch": 57, "duration": 240, "velocity": 110}, {"time": 97443, "pitch": 62, "duration": 240, "velocity": 115}, {"time": 97443, "pitch": 66, "duration": 240, "velocity": 120}, {"time": 97663, "pitch": 45, "duration": 140, "velocity": 120}, {"time": 97673, "pitch": 50, "duration": 130, "velocity": 105}, {"time": 97673, "pitch": 57, "duration": 120, "velocity": 110}, {"time": 97683, "pitch": 62, "duration": 110, "velocity": 115}, {"time": 97683, "pitch": 66, "duration": 100, "velocity": 120}, {"time": 97783, "pitch": 66, "duration": 140, "velocity": 110}, {"time": 97793, "pitch": 57, "duration": 120, "velocity": 100}, {"time": 97793, "pitch": 62, "duration": 130, "velocity": 105}, {"time": 97803, "pitch": 45, "duration": 100, "velocity": 110}, {"time": 97803, "pitch": 50, "duration": 110, "velocity": 95}, {"time": 97903, "pitch": 45, "duration": 240, "velocity": 120}, {"time": 97913, "pitch": 50, "duration": 240, "velocity": 105}, {"time": 97913, "pitch": 57, "duration": 240, "velocity": 110}, {"time": 97923, "pitch": 62, "duration": 240, "velocity": 115}, {"time": 97923, "pitch": 67, "duration": 240, "velocity": 120}, {"time": 98143, "pitch": 45, "duration": 139, "velocity": 120}, {"time": 98153, "pitch": 50, "duration": 129, "velocity": 105}, {"time": 98153, "pitch": 57, "duration": 119, "velocity": 110}, {"time": 98163, "pitch": 62, "duration": 109, "velocity": 115}, {"time": 98163, "pitch": 66, "duration": 99, "velocity": 120}, {"time": 98262, "pitch": 66, "duration": 140, "velocity": 110}, {"time": 98272, "pitch": 57, "duration": 120, "velocity": 100}, {"time": 98272, "pitch": 62, "duration": 130, "velocity": 105}, {"time": 98282, "pitch": 45, "duration": 100, "velocity": 110}, {"time": 98282, "pitch": 50, "duration": 110, "velocity": 95}, {"time": 98382, "pitch": 45, "duration": 240, "velocity": 120}, {"time": 98392, "pitch": 50, "duration": 240, "velocity": 105}, {"time": 98392, "pitch": 57, "duration": 240, "velocity": 110}, {"time": 98402, "pitch": 62, "duration": 240, "velocity": 115}, {"time": 98402, "pitch": 66, "duration": 240, "velocity": 120}, {"time": 98622, "pitch": 45, "duration": 140, "velocity": 120}, {"time": 98632, "pitch": 50, "duration": 130, "velocity": 105}, {"time": 98632, "pitch": 57, "duration": 120, "velocity": 110}, {"time": 98642, "pitch": 62, "duration": 110, "velocity": 115}, {"time": 98642, "pitch": 66, "duration": 100, "velocity": 120}, {"time": 98742, "pitch": 66, "duration": 140, "velocity": 110}, {"time": 98752, "pitch": 57, "duration": 120, "velocity": 100}, {"time": 98752, "pitch": 62, "duration": 130, "velocity": 105}, {"time": 98762, "pitch": 45, "duration": 100, "velocity": 110}, {"time": 98762, "pitch": 50, "duration": 110, "velocity": 95}, {"time": 98862, "pitch": 48, "duration": 240, "velocity": 120}, {"time": 98872, "pitch": 52, "duration": 240, "velocity": 105}, {"time": 98872, "pitch": 55, "duration": 240, "velocity": 110}, {"time": 98882, "pitch": 60, "duration": 240, "velocity": 115}, {"time": 98882, "pitch": 64, "duration": 240, "velocity": 120}, {"time": 99102, "pitch": 48, "duration": 140, "velocity": 120}, {"time": 99112, "pitch": 52, "duration": 130, "velocity": 105}, {"time": 99112, "pitch": 55, "duration": 120, "velocity": 110}, {"time": 99122, "pitch": 60, "duration": 110, "velocity": 115}, {"time": 99122, "pitch": 64, "duration": 100, "velocity": 120}, {"time": 99222, "pitch": 64, "duration": 140, "velocity": 110}, {"time": 99232, "pitch": 55, "duration": 120, "velocity": 100}, {"time": 99232, "pitch": 60, "duration": 130, "velocity": 105}, {"time": 99242, "pitch": 48, "duration": 100, "velocity": 110}, {"time": 99242, "pitch": 52, "duration": 110, "velocity": 95}, {"time": 99342, "pitch": 48, "duration": 240, "velocity": 120}, {"time": 99352, "pitch": 52, "duration": 240, "velocity": 105}, {"time": 99352, "pitch": 55, "duration": 240, "velocity": 110}, {"time": 99362, "pitch": 60, "duration": 240, "velocity": 115}, {"time": 99362, "pitch": 64, "duration": 240, "velocity": 120}, {"time": 99582, "pitch": 47, "duration": 139, "velocity": 120}, {"time": 99592, "pitch": 52, "duration": 129, "velocity": 105}, {"time": 99592, "pitch": 55, "duration": 119, "velocity": 110}, {"time": 99602, "pitch": 59, "duration": 109, "velocity": 115}, {"time": 99602, "pitch": 64, "duration": 99, "velocity": 120}, {"time": 99701, "pitch": 64, "duration": 140, "velocity": 110}, {"time": 99711, "pitch": 55, "duration": 120, "velocity": 100}, {"time": 99711, "pitch": 59, "duration": 130, "velocity": 105}, {"time": 99721, "pitch": 47, "duration": 100, "velocity": 110}, {"time": 99721, "pitch": 52, "duration": 110, "velocity": 95}, {"time": 99821, "pitch": 45, "duration": 240, "velocity": 120}, {"time": 99831, "pitch": 52, "duration": 240, "velocity": 105}, {"time": 99831, "pitch": 55, "duration": 240, "velocity": 110}, {"time": 99841, "pitch": 60, "duration": 240, "velocity": 115}, {"time": 99841, "pitch": 64, "duration": 240, "velocity": 120}, {"time": 100061, "pitch": 45, "duration": 140, "velocity": 120}, {"time": 100071, "pitch": 52, "duration": 130, "velocity": 105}, {"time": 100071, "pitch": 55, "duration": 120, "velocity": 110}, {"time": 100081, "pitch": 60, "duration": 110, "velocity": 115}, {"time": 100081, "pitch": 64, "duration": 100, "velocity": 120}, {"time": 100181, "pitch": 64, "duration": 140, "velocity": 110}, {"time": 100191, "pitch": 55, "duration": 120, "velocity": 100}, {"time": 100191, "pitch": 60, "duration": 130, "velocity": 105}, {"time": 100201, "pitch": 45, "duration": 100, "velocity": 110}, {"time": 100201, "pitch": 52, "duration": 110, "velocity": 95}, {"time": 100301, "pitch": 45, "duration": 240, "velocity": 120}, {"time": 100311, "pitch": 52, "duration": 240, "velocity": 105}, {"time": 100311, "pitch": 55, "duration": 240, "velocity": 110}, {"time": 100321, "pitch": 60, "duration": 240, "velocity": 115}, {"time": 100321, "pitch": 64, "duration": 240, "velocity": 120}, {"time": 100541, "pitch": 45, "duration": 140, "velocity": 120}, {"time": 100551, "pitch": 52, "duration": 130, "velocity": 105}, {"time": 100551, "pitch": 55, "duration": 120, "velocity": 110}, {"time": 100561, "pitch": 60, "duration": 110, "velocity": 115}, {"time": 100561, "pitch": 64, "duration": 100, "velocity": 120}, {"time": 100661, "pitch": 64, "duration": 140, "velocity": 110}, {"time": 100671, "pitch": 55, "duration": 120, "velocity": 100}, {"time": 100671, "pitch": 60, "duration": 130, "velocity": 105}, {"time": 100681, "pitch": 45, "duration": 100, "velocity": 110}, {"time": 100681, "pitch": 52, "duration": 110, "velocity": 95}, {"time": 100781, "pitch": 45, "duration": 239, "velocity": 120}, {"time": 100791, "pitch": 50, "duration": 239, "velocity": 105}, {"time": 100791, "pitch": 57, "duration": 239, "velocity": 110}, {"time": 100801, "pitch": 62, "duration": 239, "velocity": 115}, {"time": 100801, "pitch": 66, "duration": 239, "velocity": 120}, {"time": 101020, "pitch": 45, "duration": 140, "velocity": 120}, {"time": 101030, "pitch": 50, "duration": 130, "velocity": 105}, {"time": 101030, "pitch": 57, "duration": 120, "velocity": 110}, {"time": 101040, "pitch": 62, "duration": 110, "velocity": 115}, {"time": 101040, "pitch": 66, "duration": 100, "velocity": 120}, {"time": 101140, "pitch": 66, "duration": 140, "velocity": 110}, {"time": 101150, "pitch": 57, "duration": 120, "velocity": 100}, {"time": 101150, "pitch": 62, "duration": 130, "velocity": 105}, {"time": 101160, "pitch": 45, "duration": 100, "velocity": 110}, {"time": 101160, "pitch": 50, "duration": 110, "velocity": 95}, {"time": 101260, "pitch": 45, "duration": 243, "velocity": 120}, {"time": 101270, "pitch": 50, "duration": 243, "velocity": 105}, {"time": 101270, "pitch": 57, "duration": 243, "velocity": 110}, {"time": 101280, "pitch": 62, "duration": 243, "velocity": 115}, {"time": 101280, "pitch": 66, "duration": 243, "velocity": 120}, {"time": 101503, "pitch": 45, "duration": 142, "velocity": 120}, {"time": 101513, "pitch": 50, "duration": 132, "velocity": 105}, {"time": 101513, "pitch": 57, "duration": 122, "velocity": 110}, {"time": 101523, "pitch": 62, "duration": 112, "velocity": 115}, {"time": 101523, "pitch": 66, "duration": 101, "velocity": 120}, {"time": 101624, "pitch": 66, "duration": 142, "velocity": 110}, {"time": 101635, "pitch": 57, "duration": 121, "velocity": 100}, {"time": 101635, "pitch": 62, "duration": 131, "velocity": 105}, {"time": 101645, "pitch": 45, "duration": 101, "velocity": 110}, {"time": 101645, "pitch": 50, "duration": 111, "velocity": 95}, {"time": 101746, "pitch": 45, "duration": 240, "velocity": 120}, {"time": 101756, "pitch": 50, "duration": 240, "velocity": 105}, {"time": 101756, "pitch": 57, "duration": 240, "velocity": 110}, {"time": 101766, "pitch": 62, "duration": 240, "velocity": 115}, {"time": 101766, "pitch": 67, "duration": 240, "velocity": 120}, {"time": 101986, "pitch": 45, "duration": 140, "velocity": 120}, {"time": 101996, "pitch": 50, "duration": 130, "velocity": 105}, {"time": 101996, "pitch": 57, "duration": 120, "velocity": 110}, {"time": 102006, "pitch": 62, "duration": 110, "velocity": 115}, {"time": 102006, "pitch": 66, "duration": 100, "velocity": 120}, {"time": 102106, "pitch": 66, "duration": 140, "velocity": 110}, {"time": 102116, "pitch": 57, "duration": 120, "velocity": 100}, {"time": 102116, "pitch": 62, "duration": 130, "velocity": 105}, {"time": 102126, "pitch": 45, "duration": 100, "velocity": 110}, {"time": 102126, "pitch": 50, "duration": 110, "velocity": 95}, {"time": 102226, "pitch": 45, "duration": 239, "velocity": 120}, {"time": 102236, "pitch": 50, "duration": 239, "velocity": 105}, {"time": 102236, "pitch": 57, "duration": 239, "velocity": 110}, {"time": 102246, "pitch": 62, "duration": 239, "velocity": 115}, {"time": 102246, "pitch": 66, "duration": 239, "velocity": 120}, {"time": 102465, "pitch": 45, "duration": 140, "velocity": 120}, {"time": 102475, "pitch": 50, "duration": 130, "velocity": 105}, {"time": 102475, "pitch": 57, "duration": 120, "velocity": 110}, {"time": 102485, "pitch": 62, "duration": 110, "velocity": 115}, {"time": 102485, "pitch": 66, "duration": 100, "velocity": 120}, {"time": 102585, "pitch": 66, "duration": 140, "velocity": 110}, {"time": 102595, "pitch": 57, "duration": 120, "velocity": 100}, {"time": 102595, "pitch": 62, "duration": 130, "velocity": 105}, {"time": 102605, "pitch": 45, "duration": 100, "velocity": 110}, {"time": 102605, "pitch": 50, "duration": 110, "velocity": 95}, {"time": 102705, "pitch": 48, "duration": 240, "velocity": 120}, {"time": 102715, "pitch": 52, "duration": 240, "velocity": 105}, {"time": 102715, "pitch": 55, "duration": 240, "velocity": 110}, {"time": 102725, "pitch": 60, "duration": 240, "velocity": 115}, {"time": 102725, "pitch": 64, "duration": 240, "velocity": 120}, {"time": 102945, "pitch": 48, "duration": 140, "velocity": 120}, {"time": 102955, "pitch": 52, "duration": 130, "velocity": 105}, {"time": 102955, "pitch": 55, "duration": 120, "velocity": 110}, {"time": 102965, "pitch": 60, "duration": 110, "velocity": 115}, {"time": 102965, "pitch": 64, "duration": 100, "velocity": 120}, {"time": 103065, "pitch": 64, "duration": 140, "velocity": 110}, {"time": 103075, "pitch": 55, "duration": 120, "velocity": 100}, {"time": 103075, "pitch": 60, "duration": 130, "velocity": 105}, {"time": 103085, "pitch": 48, "duration": 100, "velocity": 110}, {"time": 103085, "pitch": 52, "duration": 110, "velocity": 95}, {"time": 103185, "pitch": 48, "duration": 240, "velocity": 120}, {"time": 103195, "pitch": 52, "duration": 240, "velocity": 105}, {"time": 103195, "pitch": 55, "duration": 240, "velocity": 110}, {"time": 103205, "pitch": 60, "duration": 240, "velocity": 115}, {"time": 103205, "pitch": 64, "duration": 240, "velocity": 120}, {"time": 103425, "pitch": 47, "duration": 140, "velocity": 120}, {"time": 103435, "pitch": 52, "duration": 130, "velocity": 105}, {"time": 103435, "pitch": 55, "duration": 120, "velocity": 110}, {"time": 103445, "pitch": 59, "duration": 110, "velocity": 115}, {"time": 103445, "pitch": 64, "duration": 100, "velocity": 120}, {"time": 103545, "pitch": 64, "duration": 140, "velocity": 110}, {"time": 103555, "pitch": 55, "duration": 120, "velocity": 100}, {"time": 103555, "pitch": 59, "duration": 130, "velocity": 105}, {"time": 103565, "pitch": 47, "duration": 100, "velocity": 110}, {"time": 103565, "pitch": 52, "duration": 110, "velocity": 95}, {"time": 103665, "pitch": 45, "duration": 239, "velocity": 120}, {"time": 103675, "pitch": 52, "duration": 239, "velocity": 105}, {"time": 103675, "pitch": 55, "duration": 239, "velocity": 110}, {"time": 103685, "pitch": 60, "duration": 239, "velocity": 115}, {"time": 103685, "pitch": 64, "duration": 239, "velocity": 120}, {"time": 103904, "pitch": 45, "duration": 140, "velocity": 120}, {"time": 103914, "pitch": 52, "duration": 130, "velocity": 105}, {"time": 103914, "pitch": 55, "duration": 120, "velocity": 110}, {"time": 103924, "pitch": 60, "duration": 110, "velocity": 115}, {"time": 103924, "pitch": 64, "duration": 100, "velocity": 120}, {"time": 104024, "pitch": 64, "duration": 140, "velocity": 110}, {"time": 104034, "pitch": 55, "duration": 120, "velocity": 100}, {"time": 104034, "pitch": 60, "duration": 130, "velocity": 105}, {"time": 104044, "pitch": 45, "duration": 100, "velocity": 110}, {"time": 104044, "pitch": 52, "duration": 110, "velocity": 95}, {"time": 104144, "pitch": 45, "duration": 240, "velocity": 120}, {"time": 104154, "pitch": 52, "duration": 240, "velocity": 105}, {"time": 104154, "pitch": 55, "duration": 240, "velocity": 110}, {"time": 104164, "pitch": 60, "duration": 240, "velocity": 115}, {"time": 104164, "pitch": 64, "duration": 240, "velocity": 120}, {"time": 104384, "pitch": 45, "duration": 140, "velocity": 120}, {"time": 104394, "pitch": 52, "duration": 130, "velocity": 105}, {"time": 104394, "pitch": 55, "duration": 120, "velocity": 110}, {"time": 104404, "pitch": 60, "duration": 110, "velocity": 115}, {"time": 104404, "pitch": 64, "duration": 100, "velocity": 120}, {"time": 104504, "pitch": 64, "duration": 140, "velocity": 110}, {"time": 104514, "pitch": 55, "duration": 120, "velocity": 100}, {"time": 104514, "pitch": 60, "duration": 130, "velocity": 105}, {"time": 104524, "pitch": 45, "duration": 100, "velocity": 110}, {"time": 104524, "pitch": 52, "duration": 110, "velocity": 95}, {"time": 104624, "pitch": 45, "duration": 240, "velocity": 120}, {"time": 104634, "pitch": 50, "duration": 240, "velocity": 105}, {"time": 104634, "pitch": 57, "duration": 240, "velocity": 110}, {"time": 104644, "pitch": 62, "duration": 240, "velocity": 115}, {"time": 104644, "pitch": 66, "duration": 240, "velocity": 120}, {"time": 104864, "pitch": 45, "duration": 140, "velocity": 120}, {"time": 104874, "pitch": 50, "duration": 130, "velocity": 105}, {"time": 104874, "pitch": 57, "duration": 120, "velocity": 110}, {"time": 104884, "pitch": 62, "duration": 110, "velocity": 115}, {"time": 104884, "pitch": 66, "duration": 100, "velocity": 120}, {"time": 104984, "pitch": 66, "duration": 140, "velocity": 110}, {"time": 104994, "pitch": 57, "duration": 120, "velocity": 100}, {"time": 104994, "pitch": 62, "duration": 130, "velocity": 105}, {"time": 105004, "pitch": 45, "duration": 100, "velocity": 110}, {"time": 105004, "pitch": 50, "duration": 110, "velocity": 95}, {"time": 105104, "pitch": 45, "duration": 239, "velocity": 120}, {"time": 105114, "pitch": 50, "duration": 239, "velocity": 105}, {"time": 105114, "pitch": 57, "duration": 239, "velocity": 110}, {"time": 105124, "pitch": 62, "duration": 239, "velocity": 115}, {"time": 105124, "pitch": 66, "duration": 239, "velocity": 120}, {"time": 105343, "pitch": 45, "duration": 140, "velocity": 120}, {"time": 105353, "pitch": 50, "duration": 130, "velocity": 105}, {"time": 105353, "pitch": 57, "duration": 120, "velocity": 110}, {"time": 105363, "pitch": 62, "duration": 110, "velocity": 115}, {"time": 105363, "pitch": 66, "duration": 100, "velocity": 120}, {"time": 105463, "pitch": 66, "duration": 140, "velocity": 110}, {"time": 105473, "pitch": 57, "duration": 120, "velocity": 100}, {"time": 105473, "pitch": 62, "duration": 130, "velocity": 105}, {"time": 105483, "pitch": 45, "duration": 100, "velocity": 110}, {"time": 105483, "pitch": 50, "duration": 110, "velocity": 95}, {"time": 105583, "pitch": 45, "duration": 240, "velocity": 120}, {"time": 105593, "pitch": 50, "duration": 240, "velocity": 105}, {"time": 105593, "pitch": 57, "duration": 240, "velocity": 110}, {"time": 105603, "pitch": 62, "duration": 240, "velocity": 115}, {"time": 105603, "pitch": 67, "duration": 240, "velocity": 120}, {"time": 105823, "pitch": 45, "duration": 140, "velocity": 120}, {"time": 105833, "pitch": 50, "duration": 130, "velocity": 105}, {"time": 105833, "pitch": 57, "duration": 120, "velocity": 110}, {"time": 105843, "pitch": 62, "duration": 110, "velocity": 115}, {"time": 105843, "pitch": 66, "duration": 100, "velocity": 120}, {"time": 105943, "pitch": 66, "duration": 140, "velocity": 110}, {"time": 105953, "pitch": 57, "duration": 120, "velocity": 100}, {"time": 105953, "pitch": 62, "duration": 130, "velocity": 105}, {"time": 105963, "pitch": 45, "duration": 100, "velocity": 110}, {"time": 105963, "pitch": 50, "duration": 110, "velocity": 95}, {"time": 106063, "pitch": 45, "duration": 240, "velocity": 120}, {"time": 106073, "pitch": 50, "duration": 240, "velocity": 105}, {"time": 106073, "pitch": 57, "duration": 240, "velocity": 110}, {"time": 106083, "pitch": 62, "duration": 240, "velocity": 115}, {"time": 106083, "pitch": 66, "duration": 240, "velocity": 120}, {"time": 106303, "pitch": 45, "duration": 140, "velocity": 120}, {"time": 106313, "pitch": 50, "duration": 130, "velocity": 105}, {"time": 106313, "pitch": 57, "duration": 120, "velocity": 110}, {"time": 106323, "pitch": 62, "duration": 110, "velocity": 115}, {"time": 106323, "pitch": 66, "duration": 100, "velocity": 120}, {"time": 106423, "pitch": 66, "duration": 139, "velocity": 110}, {"time": 106433, "pitch": 57, "duration": 119, "velocity": 100}, {"time": 106433, "pitch": 62, "duration": 129, "velocity": 105}, {"time": 106443, "pitch": 45, "duration": 99, "velocity": 110}, {"time": 106443, "pitch": 50, "duration": 109, "velocity": 95}, {"time": 106542, "pitch": 45, "duration": 260, "velocity": 90}, {"time": 106552, "pitch": 50, "duration": 240, "velocity": 75}, {"time": 106552, "pitch": 57, "duration": 240, "velocity": 80}, {"time": 106562, "pitch": 62, "duration": 220, "velocity": 85}, {"time": 106562, "pitch": 66, "duration": 220, "velocity": 90}, {"time": 106782, "pitch": 66, "duration": 260, "velocity": 85}, {"time": 106792, "pitch": 57, "duration": 240, "velocity": 75}, {"time": 106792, "pitch": 62, "duration": 240, "velocity": 80}, {"time": 106802, "pitch": 45, "duration": 220, "velocity": 85}, {"time": 106802, "pitch": 50, "duration": 220, "velocity": 70}, {"time": 107022, "pitch": 45, "duration": 260, "velocity": 100}, {"time": 107032, "pitch": 50, "duration": 240, "velocity": 85}, {"time": 107032, "pitch": 57, "duration": 240, "velocity": 90}, {"time": 107042, "pitch": 62, "duration": 220, "velocity": 95}, {"time": 107042, "pitch": 66, "duration": 220, "velocity": 100}, {"time": 107262, "pitch": 66, "duration": 260, "velocity": 80}, {"time": 107272, "pitch": 57, "duration": 240, "velocity": 70}, {"time": 107272, "pitch": 62, "duration": 240, "velocity": 75}, {"time": 107282, "pitch": 45, "duration": 220, "velocity": 80}, {"time": 107282, "pitch": 50, "duration": 220, "velocity": 65}, {"time": 107502, "pitch": 45, "duration": 260, "velocity": 90}, {"time": 107512, "pitch": 50, "duration": 240, "velocity": 75}, {"time": 107512, "pitch": 57, "duration": 240, "velocity": 80}, {"time": 107522, "pitch": 62, "duration": 220, "velocity": 85}, {"time": 107522, "pitch": 67, "duration": 220, "velocity": 90}, {"time": 107742, "pitch": 66, "duration": 259, "velocity": 85}, {"time": 107752, "pitch": 57, "duration": 239, "velocity": 75}, {"time": 107752, "pitch": 62, "duration": 239, "velocity": 80}, {"time": 107762, "pitch": 45, "duration": 219, "velocity": 85}, {"time": 107762, "pitch": 50, "duration": 219, "velocity": 70}, {"time": 107981, "pitch": 45, "duration": 260, "velocity": 100}, {"time": 107991, "pitch": 50, "duration": 240, "velocity": 85}, {"time": 107991, "pitch": 57, "duration": 240, "velocity": 90}, {"time": 108001, "pitch": 62, "duration": 220, "velocity": 95}, {"time": 108001, "pitch": 64, "duration": 220, "velocity": 100}, {"time": 108221, "pitch": 67, "duration": 260, "velocity": 80}, {"time": 108231, "pitch": 57, "duration": 240, "velocity": 70}, {"time": 108231, "pitch": 62, "duration": 240, "velocity": 75}, {"time": 108241, "pitch": 45, "duration": 220, "velocity": 80}, {"time": 108241, "pitch": 50, "duration": 220, "velocity": 65}, {"time": 108461, "pitch": 45, "duration": 1904, "velocity": 110}, {"time": 108471, "pitch": 50, "duration": 1894, "velocity": 95}, {"time": 108471, "pitch": 57, "duration": 1894, "velocity": 100}, {"time": 108481, "pitch": 62, "duration": 1884, "velocity": 105}, {"time": 108481, "pitch": 66, "duration": 1884, "velocity": 110}, {"time": 110386, "pitch": 47, "duration": 260, "velocity": 90}, {"time": 110396, "pitch": 52, "duration": 240, "velocity": 75}, {"time": 110396, "pitch": 56, "duration": 240, "velocity": 80}, {"time": 110406, "pitch": 59, "duration": 220, "velocity": 85}, {"time": 110406, "pitch": 64, "duration": 220, "velocity": 90}, {"time": 110626, "pitch": 64, "duration": 259, "velocity": 85}, {"time": 110636, "pitch": 56, "duration": 239, "velocity": 75}, {"time": 110636, "pitch": 59, "duration": 239, "velocity": 80}, {"time": 110646, "pitch": 47, "duration": 219, "velocity": 85}, {"time": 110646, "pitch": 52, "duration": 219, "velocity": 70}, {"time": 110865, "pitch": 47, "duration": 260, "velocity": 100}, {"time": 110875, "pitch": 52, "duration": 240, "velocity": 85}, {"time": 110875, "pitch": 56, "duration": 240, "velocity": 90}, {"time": 110885, "pitch": 59, "duration": 220, "velocity": 95}, {"time": 110885, "pitch": 64, "duration": 220, "velocity": 100}, {"time": 111105, "pitch": 64, "duration": 260, "velocity": 80}, {"time": 111115, "pitch": 56, "duration": 240, "velocity": 70}, {"time": 111115, "pitch": 59, "duration": 240, "velocity": 75}, {"time": 111125, "pitch": 47, "duration": 220, "velocity": 80}, {"time": 111125, "pitch": 52, "duration": 220, "velocity": 65}, {"time": 111345, "pitch": 47, "duration": 260, "velocity": 90}, {"time": 111355, "pitch": 52, "duration": 240, "velocity": 75}, {"time": 111355, "pitch": 56, "duration": 240, "velocity": 80}, {"time": 111365, "pitch": 59, "duration": 220, "velocity": 85}, {"time": 111365, "pitch": 64, "duration": 220, "velocity": 90}, {"time": 111585, "pitch": 64, "duration": 260, "velocity": 85}, {"time": 111595, "pitch": 56, "duration": 240, "velocity": 75}, {"time": 111595, "pitch": 59, "duration": 240, "velocity": 80}, {"time": 111605, "pitch": 47, "duration": 220, "velocity": 85}, {"time": 111605, "pitch": 52, "duration": 220, "velocity": 70}, {"time": 111825, "pitch": 47, "duration": 260, "velocity": 100}, {"time": 111835, "pitch": 52, "duration": 240, "velocity": 85}, {"time": 111835, "pitch": 56, "duration": 240, "velocity": 90}, {"time": 111845, "pitch": 59, "duration": 220, "velocity": 95}, {"time": 111845, "pitch": 64, "duration": 220, "velocity": 100}, {"time": 112065, "pitch": 64, "duration": 259, "velocity": 80}, {"time": 112075, "pitch": 56, "duration": 239, "velocity": 70}, {"time": 112075, "pitch": 59, "duration": 239, "velocity": 75}, {"time": 112085, "pitch": 47, "duration": 219, "velocity": 80}, {"time": 112085, "pitch": 52, "duration": 219, "velocity": 65}, {"time": 112304, "pitch": 47, "duration": 260, "velocity": 90}, {"time": 112314, "pitch": 50, "duration": 240, "velocity": 75}, {"time": 112314, "pitch": 55, "duration": 240, "velocity": 80}, {"time": 112324, "pitch": 59, "duration": 220, "velocity": 85}, {"time": 112324, "pitch": 67, "duration": 220, "velocity": 90}, {"time": 112544, "pitch": 67, "duration": 260, "velocity": 85}, {"time": 112554, "pitch": 55, "duration": 240, "velocity": 75}, {"time": 112554, "pitch": 59, "duration": 240, "velocity": 80}, {"time": 112564, "pitch": 47, "duration": 220, "velocity": 85}, {"time": 112564, "pitch": 50, "duration": 220, "velocity": 70}, {"time": 112784, "pitch": 47, "duration": 260, "velocity": 100}, {"time": 112794, "pitch": 50, "duration": 240, "velocity": 85}, {"time": 112794, "pitch": 55, "duration": 240, "velocity": 90}, {"time": 112804, "pitch": 59, "duration": 220, "velocity": 95}, {"time": 112804, "pitch": 67, "duration": 220, "velocity": 100}, {"time": 113024, "pitch": 67, "duration": 260, "velocity": 80}, {"time": 113034, "pitch": 55, "duration": 240, "velocity": 70}, {"time": 113034, "pitch": 59, "duration": 240, "velocity": 75}, {"time": 113044, "pitch": 47, "duration": 220, "velocity": 80}, {"time": 113044, "pitch": 50, "duration": 220, "velocity": 65}, {"time": 113264, "pitch": 47, "duration": 259, "velocity": 90}, {"time": 113274, "pitch": 50, "duration": 239, "velocity": 75}, {"time": 113274, "pitch": 55, "duration": 239, "velocity": 80}, {"time": 113284, "pitch": 59, "duration": 219, "velocity": 85}, {"time": 113284, "pitch": 67, "duration": 219, "velocity": 90}, {"time": 113503, "pitch": 67, "duration": 260, "velocity": 85}, {"time": 113513, "pitch": 55, "duration": 240, "velocity": 75}, {"time": 113513, "pitch": 59, "duration": 240, "velocity": 80}, {"time": 113523, "pitch": 47, "duration": 220, "velocity": 85}, {"time": 113523, "pitch": 50, "duration": 220, "velocity": 70}, {"time": 113743, "pitch": 47, "duration": 260, "velocity": 100}, {"time": 113753, "pitch": 50, "duration": 240, "velocity": 85}, {"time": 113753, "pitch": 55, "duration": 240, "velocity": 90}, {"time": 113763, "pitch": 59, "duration": 220, "velocity": 95}, {"time": 113763, "pitch": 67, "duration": 220, "velocity": 100}, {"time": 113983, "pitch": 67, "duration": 260, "velocity": 80}, {"time": 113993, "pitch": 55, "duration": 240, "velocity": 70}, {"time": 113993, "pitch": 59, "duration": 240, "velocity": 75}, {"time": 114003, "pitch": 47, "duration": 220, "velocity": 80}, {"time": 114003, "pitch": 50, "duration": 220, "velocity": 65}, {"time": 114223, "pitch": 45, "duration": 260, "velocity": 90}, {"time": 114233, "pitch": 50, "duration": 240, "velocity": 75}, {"time": 114233, "pitch": 57, "duration": 240, "velocity": 80}, {"time": 114243, "pitch": 62, "duration": 220, "velocity": 85}, {"time": 114243, "pitch": 66, "duration": 220, "velocity": 90}, {"time": 114463, "pitch": 66, "duration": 260, "velocity": 85}, {"time": 114473, "pitch": 57, "duration": 240, "velocity": 75}, {"time": 114473, "pitch": 62, "duration": 240, "velocity": 80}, {"time": 114483, "pitch": 45, "duration": 220, "velocity": 85}, {"time": 114483, "pitch": 50, "duration": 220, "velocity": 70}, {"time": 114703, "pitch": 45, "duration": 259, "velocity": 100}, {"time": 114713, "pitch": 50, "duration": 239, "velocity": 85}, {"time": 114713, "pitch": 57, "duration": 239, "velocity": 90}, {"time": 114723, "pitch": 62, "duration": 219, "velocity": 95}, {"time": 114723, "pitch": 66, "duration": 219, "velocity": 100}, {"time": 114942, "pitch": 66, "duration": 260, "velocity": 80}, {"time": 114952, "pitch": 57, "duration": 240, "velocity": 70}, {"time": 114952, "pitch": 62, "duration": 240, "velocity": 75}, {"time": 114962, "pitch": 45, "duration": 220, "velocity": 80}, {"time": 114962, "pitch": 50, "duration": 220, "velocity": 65}, {"time": 115182, "pitch": 45, "duration": 260, "velocity": 90}, {"time": 115192, "pitch": 50, "duration": 240, "velocity": 75}, {"time": 115192, "pitch": 57, "duration": 240, "velocity": 80}, {"time": 115202, "pitch": 62, "duration": 220, "velocity": 85}, {"time": 115202, "pitch": 67, "duration": 220, "velocity": 90}, {"time": 115422, "pitch": 66, "duration": 260, "velocity": 85}, {"time": 115432, "pitch": 57, "duration": 240, "velocity": 75}, {"time": 115432, "pitch": 62, "duration": 240, "velocity": 80}, {"time": 115442, "pitch": 45, "duration": 220, "velocity": 85}, {"time": 115442, "pitch": 50, "duration": 220, "velocity": 70}, {"time": 115662, "pitch": 45, "duration": 260, "velocity": 100}, {"time": 115672, "pitch": 50, "duration": 240, "velocity": 85}, {"time": 115672, "pitch": 57, "duration": 240, "velocity": 90}, {"time": 115682, "pitch": 62, "duration": 220, "velocity": 95}, {"time": 115682, "pitch": 64, "duration": 220, "velocity": 100}, {"time": 115902, "pitch": 67, "duration": 260, "velocity": 80}, {"time": 115912, "pitch": 57, "duration": 240, "velocity": 70}, {"time": 115912, "pitch": 62, "duration": 240, "velocity": 75}, {"time": 115922, "pitch": 45, "duration": 220, "velocity": 80}, {"time": 115922, "pitch": 50, "duration": 220, "velocity": 65}, {"time": 116142, "pitch": 45, "duration": 1898, "velocity": 110}, {"time": 116152, "pitch": 50, "duration": 1888, "velocity": 95}, {"time": 116152, "pitch": 57, "duration": 1888, "velocity": 100}, {"time": 116162, "pitch": 62, "duration": 1878, "velocity": 105}, {"time": 116162, "pitch": 66, "duration": 1878, "velocity": 110}, {"time": 118060, "pitch": 47, "duration": 263, "velocity": 90}, {"time": 118070, "pitch": 52, "duration": 243, "velocity": 75}, {"time": 118070, "pitch": 56, "duration": 243, "velocity": 80}, {"time": 118080, "pitch": 59, "duration": 223, "velocity": 85}, {"time": 118080, "pitch": 64, "duration": 223, "velocity": 90}, {"time": 118303, "pitch": 64, "duration": 263, "velocity": 85}, {"time": 118313, "pitch": 56, "duration": 243, "velocity": 75}, {"time": 118313, "pitch": 59, "duration": 243, "velocity": 80}, {"time": 118323, "pitch": 47, "duration": 223, "velocity": 85}, {"time": 118323, "pitch": 52, "duration": 223, "velocity": 70}, {"time": 118546, "pitch": 47, "duration": 260, "velocity": 100}, {"time": 118556, "pitch": 52, "duration": 240, "velocity": 85}, {"time": 118556, "pitch": 56, "duration": 240, "velocity": 90}, {"time": 118566, "pitch": 59, "duration": 220, "velocity": 95}, {"time": 118566, "pitch": 64, "duration": 220, "velocity": 100}, {"time": 118786, "pitch": 64, "duration": 259, "velocity": 80}, {"time": 118796, "pitch": 56, "duration": 239, "velocity": 70}, {"time": 118796, "pitch": 59, "duration": 239, "velocity": 75}, {"time": 118806, "pitch": 47, "duration": 219, "velocity": 80}, {"time": 118806, "pitch": 52, "duration": 219, "velocity": 65}, {"time": 119025, "pitch": 47, "duration": 260, "velocity": 90}, {"time": 119035, "pitch": 52, "duration": 240, "velocity": 75}, {"time": 119035, "pitch": 56, "duration": 240, "velocity": 80}, {"time": 119045, "pitch": 59, "duration": 220, "velocity": 85}, {"time": 119045, "pitch": 64, "duration": 220, "velocity": 90}, {"time": 119265, "pitch": 64, "duration": 260, "velocity": 85}, {"time": 119275, "pitch": 56, "duration": 240, "velocity": 75}, {"time": 119275, "pitch": 59, "duration": 240, "velocity": 80}, {"time": 119285, "pitch": 47, "duration": 220, "velocity": 85}, {"time": 119285, "pitch": 52, "duration": 220, "velocity": 70}, {"time": 119505, "pitch": 47, "duration": 260, "velocity": 100}, {"time": 119515, "pitch": 52, "duration": 240, "velocity": 85}, {"time": 119515, "pitch": 56, "duration": 240, "velocity": 90}, {"time": 119525, "pitch": 59, "duration": 220, "velocity": 95}, {"time": 119525, "pitch": 64, "duration": 220, "velocity": 100}, {"time": 119745, "pitch": 64, "duration": 260, "velocity": 80}, {"time": 119755, "pitch": 56, "duration": 240, "velocity": 70}, {"time": 119755, "pitch": 59, "duration": 240, "velocity": 75}, {"time": 119765, "pitch": 47, "duration": 220, "velocity": 80}, {"time": 119765, "pitch": 52, "duration": 220, "velocity": 65}, {"time": 119985, "pitch": 47, "duration": 260, "velocity": 90}, {"time": 119995, "pitch": 50, "duration": 240, "velocity": 75}, {"time": 119995, "pitch": 55, "duration": 240, "velocity": 80}, {"time": 120005, "pitch": 59, "duration": 220, "velocity": 85}, {"time": 120005, "pitch": 67, "duration": 220, "velocity": 90}, {"time": 120225, "pitch": 67, "duration": 259, "velocity": 85}, {"time": 120235, "pitch": 55, "duration": 239, "velocity": 75}, {"time": 120235, "pitch": 59, "duration": 239, "velocity": 80}, {"time": 120245, "pitch": 47, "duration": 219, "velocity": 85}, {"time": 120245, "pitch": 50, "duration": 219, "velocity": 70}, {"time": 120464, "pitch": 47, "duration": 260, "velocity": 100}, {"time": 120474, "pitch": 50, "duration": 240, "velocity": 85}, {"time": 120474, "pitch": 55, "duration": 240, "velocity": 90}, {"time": 120484, "pitch": 59, "duration": 220, "velocity": 95}, {"time": 120484, "pitch": 67, "duration": 220, "velocity": 100}, {"time": 120704, "pitch": 67, "duration": 260, "velocity": 80}, {"time": 120714, "pitch": 55, "duration": 240, "velocity": 70}, {"time": 120714, "pitch": 59, "duration": 240, "velocity": 75}, {"time": 120724, "pitch": 47, "duration": 220, "velocity": 80}, {"time": 120724, "pitch": 50, "duration": 220, "velocity": 65}, {"time": 120944, "pitch": 47, "duration": 260, "velocity": 90}, {"time": 120954, "pitch": 50, "duration": 240, "velocity": 75}, {"time": 120954, "pitch": 55, "duration": 240, "velocity": 80}, {"time": 120964, "pitch": 59, "duration": 220, "velocity": 85}, {"time": 120964, "pitch": 67, "duration": 220, "velocity": 90}, {"time": 121184, "pitch": 67, "duration": 260, "velocity": 85}, {"time": 121194, "pitch": 55, "duration": 240, "velocity": 75}, {"time": 121194, "pitch": 59, "duration": 240, "velocity": 80}, {"time": 121204, "pitch": 47, "duration": 220, "velocity": 85}, {"time": 121204, "pitch": 50, "duration": 220, "velocity": 70}, {"time": 121424, "pitch": 47, "duration": 260, "velocity": 100}, {"time": 121434, "pitch": 50, "duration": 240, "velocity": 85}, {"time": 121434, "pitch": 55, "duration": 240, "velocity": 90}, {"time": 121444, "pitch": 59, "duration": 220, "velocity": 95}, {"time": 121444, "pitch": 67, "duration": 220, "velocity": 100}, {"time": 121664, "pitch": 67, "duration": 259, "velocity": 80}, {"time": 121674, "pitch": 55, "duration": 239, "velocity": 70}, {"time": 121674, "pitch": 59, "duration": 239, "velocity": 75}, {"time": 121684, "pitch": 47, "duration": 219, "velocity": 80}, {"time": 121684, "pitch": 50, "duration": 219, "velocity": 65}, {"time": 121903, "pitch": 45, "duration": 260, "velocity": 90}, {"time": 121913, "pitch": 50, "duration": 240, "velocity": 75}, {"time": 121913, "pitch": 57, "duration": 240, "velocity": 80}, {"time": 121923, "pitch": 62, "duration": 220, "velocity": 85}, {"time": 121923, "pitch": 66, "duration": 220, "velocity": 90}, {"time": 122143, "pitch": 66, "duration": 260, "velocity": 85}, {"time": 122153, "pitch": 57, "duration": 240, "velocity": 75}, {"time": 122153, "pitch": 62, "duration": 240, "velocity": 80}, {"time": 122163, "pitch": 45, "duration": 220, "velocity": 85}, {"time": 122163, "pitch": 50, "duration": 220, "velocity": 70}, {"time": 122383, "pitch": 45, "duration": 260, "velocity": 100}, {"time": 122393, "pitch": 50, "duration": 240, "velocity": 85}, {"time": 122393, "pitch": 57, "duration": 240, "velocity": 90}, {"time": 122403, "pitch": 62, "duration": 220, "velocity": 95}, {"time": 122403, "pitch": 66, "duration": 220, "velocity": 100}, {"time": 122623, "pitch": 66, "duration": 260, "velocity": 80}, {"time": 122633, "pitch": 57, "duration": 240, "velocity": 70}, {"time": 122633, "pitch": 62, "duration": 240, "velocity": 75}, {"time": 122643, "pitch": 45, "duration": 220, "velocity": 80}, {"time": 122643, "pitch": 50, "duration": 220, "velocity": 65}, {"time": 122863, "pitch": 45, "duration": 259, "velocity": 90}, {"time": 122873, "pitch": 50, "duration": 240, "velocity": 75}, {"time": 122873, "pitch": 57, "duration": 240, "velocity": 80}, {"time": 122883, "pitch": 62, "duration": 220, "velocity": 85}, {"time": 122883, "pitch": 67, "duration": 220, "velocity": 90}, {"time": 123103, "pitch": 66, "duration": 259, "velocity": 85}, {"time": 123113, "pitch": 57, "duration": 239, "velocity": 75}, {"time": 123113, "pitch": 62, "duration": 239, "velocity": 80}, {"time": 123122, "pitch": 45, "duration": 220, "velocity": 85}, {"time": 123122, "pitch": 50, "duration": 220, "velocity": 70}, {"time": 123342, "pitch": 45, "duration": 260, "velocity": 100}, {"time": 123352, "pitch": 50, "duration": 240, "velocity": 85}, {"time": 123352, "pitch": 57, "duration": 240, "velocity": 90}, {"time": 123362, "pitch": 62, "duration": 220, "velocity": 95}, {"time": 123362, "pitch": 64, "duration": 220, "velocity": 100}, {"time": 123582, "pitch": 67, "duration": 260, "velocity": 80}, {"time": 123592, "pitch": 57, "duration": 240, "velocity": 70}, {"time": 123592, "pitch": 62, "duration": 240, "velocity": 75}, {"time": 123602, "pitch": 45, "duration": 220, "velocity": 80}, {"time": 123602, "pitch": 50, "duration": 220, "velocity": 65}, {"time": 123822, "pitch": 45, "duration": 260, "velocity": 90}, {"time": 123832, "pitch": 50, "duration": 240, "velocity": 75}, {"time": 123832, "pitch": 57, "duration": 240, "velocity": 80}, {"time": 123842, "pitch": 62, "duration": 220, "velocity": 85}, {"time": 123842, "pitch": 66, "duration": 220, "velocity": 90}, {"time": 124062, "pitch": 66, "duration": 260, "velocity": 85}, {"time": 124072, "pitch": 57, "duration": 240, "velocity": 75}, {"time": 124072, "pitch": 62, "duration": 240, "velocity": 80}, {"time": 124082, "pitch": 45, "duration": 220, "velocity": 85}, {"time": 124082, "pitch": 50, "duration": 220, "velocity": 70}, {"time": 124302, "pitch": 45, "duration": 259, "velocity": 100}, {"time": 124312, "pitch": 50, "duration": 239, "velocity": 85}, {"time": 124312, "pitch": 57, "duration": 239, "velocity": 90}, {"time": 124322, "pitch": 62, "duration": 219, "velocity": 95}, {"time": 124322, "pitch": 66, "duration": 219, "velocity": 100}, {"time": 124541, "pitch": 66, "duration": 260, "velocity": 80}, {"time": 124551, "pitch": 57, "duration": 240, "velocity": 70}, {"time": 124551, "pitch": 62, "duration": 240, "velocity": 75}, {"time": 124561, "pitch": 45, "duration": 220, "velocity": 80}, {"time": 124561, "pitch": 50, "duration": 220, "velocity": 65}, {"time": 124781, "pitch": 45, "duration": 260, "velocity": 90}, {"time": 124791, "pitch": 50, "duration": 240, "velocity": 75}, {"time": 124791, "pitch": 57, "duration": 240, "velocity": 80}, {"time": 124801, "pitch": 62, "duration": 220, "velocity": 85}, {"time": 124801, "pitch": 66, "duration": 220, "velocity": 90}, {"time": 125021, "pitch": 66, "duration": 260, "velocity": 85}, {"time": 125031, "pitch": 57, "duration": 240, "velocity": 75}, {"time": 125031, "pitch": 62, "duration": 240, "velocity": 80}, {"time": 125041, "pitch": 45, "duration": 220, "velocity": 85}, {"time": 125041, "pitch": 50, "duration": 220, "velocity": 70}, {"time": 125261, "pitch": 45, "duration": 260, "velocity": 100}, {"time": 125271, "pitch": 50, "duration": 240, "velocity": 85}, {"time": 125271, "pitch": 57, "duration": 240, "velocity": 90}, {"time": 125281, "pitch": 62, "duration": 220, "velocity": 95}, {"time": 125281, "pitch": 66, "duration": 220, "velocity": 100}, {"time": 125501, "pitch": 66, "duration": 260, "velocity": 80}, {"time": 125511, "pitch": 57, "duration": 240, "velocity": 70}, {"time": 125511, "pitch": 62, "duration": 240, "velocity": 75}, {"time": 125521, "pitch": 45, "duration": 220, "velocity": 80}, {"time": 125521, "pitch": 50, "duration": 220, "velocity": 65}, {"time": 125741, "pitch": 47, "duration": 259, "velocity": 90}, {"time": 125751, "pitch": 52, "duration": 239, "velocity": 75}, {"time": 125751, "pitch": 55, "duration": 239, "velocity": 80}, {"time": 125761, "pitch": 59, "duration": 219, "velocity": 85}, {"time": 125761, "pitch": 64, "duration": 219, "velocity": 90}, {"time": 125980, "pitch": 64, "duration": 260, "velocity": 85}, {"time": 125990, "pitch": 55, "duration": 240, "velocity": 75}, {"time": 125990, "pitch": 59, "duration": 240, "velocity": 80}, {"time": 126000, "pitch": 47, "duration": 220, "velocity": 85}, {"time": 126000, "pitch": 52, "duration": 220, "velocity": 70}, {"time": 126220, "pitch": 47, "duration": 263, "velocity": 100}, {"time": 126230, "pitch": 52, "duration": 243, "velocity": 85}, {"time": 126230, "pitch": 55, "duration": 243, "velocity": 90}, {"time": 126240, "pitch": 59, "duration": 223, "velocity": 95}, {"time": 126240, "pitch": 64, "duration": 223, "velocity": 100}, {"time": 126463, "pitch": 64, "duration": 263, "velocity": 80}, {"time": 126473, "pitch": 55, "duration": 243, "velocity": 70}, {"time": 126473, "pitch": 59, "duration": 243, "velocity": 75}, {"time": 126483, "pitch": 47, "duration": 223, "velocity": 80}, {"time": 126483, "pitch": 52, "duration": 223, "velocity": 65}, {"time": 126706, "pitch": 47, "duration": 260, "velocity": 90}, {"time": 126716, "pitch": 52, "duration": 240, "velocity": 75}, {"time": 126716, "pitch": 55, "duration": 240, "velocity": 80}, {"time": 126726, "pitch": 59, "duration": 220, "velocity": 85}, {"time": 126726, "pitch": 64, "duration": 220, "velocity": 90}, {"time": 126946, "pitch": 64, "duration": 260, "velocity": 85}, {"time": 126956, "pitch": 55, "duration": 240, "velocity": 75}, {"time": 126956, "pitch": 59, "duration": 240, "velocity": 80}, {"time": 126966, "pitch": 47, "duration": 220, "velocity": 85}, {"time": 126966, "pitch": 52, "duration": 220, "velocity": 70}, {"time": 127186, "pitch": 47, "duration": 259, "velocity": 100}, {"time": 127196, "pitch": 52, "duration": 239, "velocity": 85}, {"time": 127196, "pitch": 55, "duration": 239, "velocity": 90}, {"time": 127206, "pitch": 59, "duration": 219, "velocity": 95}, {"time": 127206, "pitch": 64, "duration": 219, "velocity": 100}, {"time": 127425, "pitch": 64, "duration": 260, "velocity": 80}, {"time": 127435, "pitch": 55, "duration": 240, "velocity": 70}, {"time": 127435, "pitch": 59, "duration": 240, "velocity": 75}, {"time": 127445, "pitch": 47, "duration": 220, "velocity": 80}, {"time": 127445, "pitch": 52, "duration": 220, "velocity": 65}, {"time": 127665, "pitch": 47, "duration": 260, "velocity": 90}, {"time": 127675, "pitch": 50, "duration": 240, "velocity": 75}, {"time": 127675, "pitch": 55, "duration": 240, "velocity": 80}, {"time": 127685, "pitch": 59, "duration": 220, "velocity": 85}, {"time": 127685, "pitch": 67, "duration": 220, "velocity": 90}, {"time": 127905, "pitch": 67, "duration": 260, "velocity": 85}, {"time": 127915, "pitch": 55, "duration": 240, "velocity": 75}, {"time": 127915, "pitch": 59, "duration": 240, "velocity": 80}, {"time": 127925, "pitch": 47, "duration": 220, "velocity": 85}, {"time": 127925, "pitch": 50, "duration": 220, "velocity": 70}, {"time": 128145, "pitch": 47, "duration": 260, "velocity": 100}, {"time": 128155, "pitch": 50, "duration": 240, "velocity": 85}, {"time": 128155, "pitch": 55, "duration": 240, "velocity": 90}, {"time": 128165, "pitch": 59, "duration": 220, "velocity": 95}, {"time": 128165, "pitch": 67, "duration": 220, "velocity": 100}, {"time": 128385, "pitch": 67, "duration": 260, "velocity": 80}, {"time": 128395, "pitch": 55, "duration": 240, "velocity": 70}, {"time": 128395, "pitch": 59, "duration": 240, "velocity": 75}, {"time": 128405, "pitch": 47, "duration": 220, "velocity": 80}, {"time": 128405, "pitch": 50, "duration": 220, "velocity": 65}, {"time": 128625, "pitch": 47, "duration": 259, "velocity": 90}, {"time": 128635, "pitch": 50, "duration": 239, "velocity": 75}, {"time": 128635, "pitch": 55, "duration": 239, "velocity": 80}, {"time": 128645, "pitch": 59, "duration": 219, "velocity": 85}, {"time": 128645, "pitch": 67, "duration": 219, "velocity": 90}, {"time": 128864, "pitch": 67, "duration": 260, "velocity": 85}, {"time": 128874, "pitch": 55, "duration": 240, "velocity": 75}, {"time": 128874, "pitch": 59, "duration": 240, "velocity": 80}, {"time": 128884, "pitch": 47, "duration": 220, "velocity": 85}, {"time": 128884, "pitch": 50, "duration": 220, "velocity": 70}, {"time": 129104, "pitch": 47, "duration": 260, "velocity": 100}, {"time": 129114, "pitch": 50, "duration": 240, "velocity": 85}, {"time": 129114, "pitch": 55, "duration": 240, "velocity": 90}, {"time": 129124, "pitch": 59, "duration": 220, "velocity": 95}, {"time": 129124, "pitch": 67, "duration": 220, "velocity": 100}, {"time": 129344, "pitch": 67, "duration": 260, "velocity": 80}, {"time": 129354, "pitch": 55, "duration": 240, "velocity": 70}, {"time": 129354, "pitch": 59, "duration": 240, "velocity": 75}, {"time": 129364, "pitch": 47, "duration": 220, "velocity": 80}, {"time": 129364, "pitch": 50, "duration": 220, "velocity": 65}, {"time": 129584, "pitch": 45, "duration": 260, "velocity": 90}, {"time": 129594, "pitch": 50, "duration": 240, "velocity": 75}, {"time": 129594, "pitch": 57, "duration": 240, "velocity": 80}, {"time": 129604, "pitch": 62, "duration": 220, "velocity": 85}, {"time": 129604, "pitch": 66, "duration": 220, "velocity": 90}, {"time": 129824, "pitch": 66, "duration": 259, "velocity": 85}, {"time": 129834, "pitch": 57, "duration": 239, "velocity": 75}, {"time": 129834, "pitch": 62, "duration": 239, "velocity": 80}, {"time": 129844, "pitch": 45, "duration": 219, "velocity": 85}, {"time": 129844, "pitch": 50, "duration": 219, "velocity": 70}, {"time": 130063, "pitch": 45, "duration": 260, "velocity": 100}, {"time": 130073, "pitch": 50, "duration": 240, "velocity": 85}, {"time": 130073, "pitch": 57, "duration": 240, "velocity": 90}, {"time": 130083, "pitch": 62, "duration": 220, "velocity": 95}, {"time": 130083, "pitch": 66, "duration": 220, "velocity": 100}, {"time": 130303, "pitch": 66, "duration": 260, "velocity": 80}, {"time": 130313, "pitch": 57, "duration": 240, "velocity": 70}, {"time": 130313, "pitch": 62, "duration": 240, "velocity": 75}, {"time": 130323, "pitch": 45, "duration": 220, "velocity": 80}, {"time": 130323, "pitch": 50, "duration": 220, "velocity": 65}, {"time": 130543, "pitch": 45, "duration": 260, "velocity": 90}, {"time": 130553, "pitch": 50, "duration": 240, "velocity": 75}, {"time": 130553, "pitch": 57, "duration": 240, "velocity": 80}, {"time": 130563, "pitch": 62, "duration": 220, "velocity": 85}, {"time": 130563, "pitch": 67, "duration": 220, "velocity": 90}, {"time": 130783, "pitch": 66, "duration": 260, "velocity": 85}, {"time": 130793, "pitch": 57, "duration": 240, "velocity": 75}, {"time": 130793, "pitch": 62, "duration": 240, "velocity": 80}, {"time": 130803, "pitch": 45, "duration": 220, "velocity": 85}, {"time": 130803, "pitch": 50, "duration": 220, "velocity": 70}, {"time": 131023, "pitch": 45, "duration": 260, "velocity": 100}, {"time": 131033, "pitch": 50, "duration": 240, "velocity": 85}, {"time": 131033, "pitch": 57, "duration": 240, "velocity": 90}, {"time": 131043, "pitch": 62, "duration": 220, "velocity": 95}, {"time": 131043, "pitch": 64, "duration": 220, "velocity": 100}, {"time": 131263, "pitch": 67, "duration": 259, "velocity": 80}, {"time": 131273, "pitch": 57, "duration": 239, "velocity": 70}, {"time": 131273, "pitch": 62, "duration": 239, "velocity": 75}, {"time": 131283, "pitch": 45, "duration": 219, "velocity": 80}, {"time": 131283, "pitch": 50, "duration": 219, "velocity": 65}, {"time": 131502, "pitch": 45, "duration": 260, "velocity": 90}, {"time": 131512, "pitch": 50, "duration": 240, "velocity": 75}, {"time": 131512, "pitch": 57, "duration": 240, "velocity": 80}, {"time": 131522, "pitch": 62, "duration": 220, "velocity": 85}, {"time": 131522, "pitch": 66, "duration": 220, "velocity": 90}, {"time": 131742, "pitch": 66, "duration": 260, "velocity": 85}, {"time": 131752, "pitch": 57, "duration": 240, "velocity": 75}, {"time": 131752, "pitch": 62, "duration": 240, "velocity": 80}, {"time": 131762, "pitch": 45, "duration": 220, "velocity": 85}, {"time": 131762, "pitch": 50, "duration": 220, "velocity": 70}, {"time": 131982, "pitch": 45, "duration": 260, "velocity": 100}, {"time": 131992, "pitch": 50, "duration": 240, "velocity": 85}, {"time": 131992, "pitch": 57, "duration": 240, "velocity": 90}, {"time": 132002, "pitch": 62, "duration": 220, "velocity": 95}, {"time": 132002, "pitch": 66, "duration": 220, "velocity": 100}, {"time": 132222, "pitch": 66, "duration": 260, "velocity": 80}, {"time": 132232, "pitch": 57, "duration": 240, "velocity": 70}, {"time": 132232, "pitch": 62, "duration": 240, "velocity": 75}, {"time": 132242, "pitch": 45, "duration": 220, "velocity": 80}, {"time": 132242, "pitch": 50, "duration": 220, "velocity": 65}, {"time": 132462, "pitch": 45, "duration": 260, "velocity": 90}, {"time": 132472, "pitch": 50, "duration": 240, "velocity": 75}, {"time": 132472, "pitch": 57, "duration": 240, "velocity": 80}, {"time": 132482, "pitch": 62, "duration": 220, "velocity": 85}, {"time": 132482, "pitch": 66, "duration": 220, "velocity": 90}, {"time": 132702, "pitch": 66, "duration": 259, "velocity": 85}, {"time": 132712, "pitch": 57, "duration": 239, "velocity": 75}, {"time": 132712, "pitch": 62, "duration": 239, "velocity": 80}, {"time": 132722, "pitch": 45, "duration": 219, "velocity": 85}, {"time": 132722, "pitch": 50, "duration": 219, "velocity": 70}, {"time": 132941, "pitch": 45, "duration": 260, "velocity": 100}, {"time": 132951, "pitch": 50, "duration": 240, "velocity": 85}, {"time": 132951, "pitch": 57, "duration": 240, "velocity": 90}, {"time": 132961, "pitch": 62, "duration": 220, "velocity": 95}, {"time": 132961, "pitch": 66, "duration": 220, "velocity": 100}, {"time": 133181, "pitch": 66, "duration": 260, "velocity": 80}, {"time": 133191, "pitch": 57, "duration": 240, "velocity": 70}, {"time": 133191, "pitch": 62, "duration": 240, "velocity": 75}, {"time": 133201, "pitch": 45, "duration": 220, "velocity": 80}, {"time": 133201, "pitch": 50, "duration": 220, "velocity": 65}, {"time": 133421, "pitch": 47, "duration": 260, "velocity": 90}, {"time": 133431, "pitch": 52, "duration": 240, "velocity": 75}, {"time": 133431, "pitch": 55, "duration": 240, "velocity": 80}, {"time": 133441, "pitch": 59, "duration": 220, "velocity": 85}, {"time": 133441, "pitch": 64, "duration": 220, "velocity": 90}, {"time": 133661, "pitch": 64, "duration": 260, "velocity": 85}, {"time": 133671, "pitch": 55, "duration": 240, "velocity": 75}, {"time": 133671, "pitch": 59, "duration": 240, "velocity": 80}, {"time": 133681, "pitch": 47, "duration": 220, "velocity": 85}, {"time": 133681, "pitch": 52, "duration": 220, "velocity": 70}, {"time": 133901, "pitch": 47, "duration": 259, "velocity": 100}, {"time": 133911, "pitch": 52, "duration": 239, "velocity": 85}, {"time": 133911, "pitch": 55, "duration": 239, "velocity": 90}, {"time": 133921, "pitch": 59, "duration": 219, "velocity": 95}, {"time": 133921, "pitch": 64, "duration": 219, "velocity": 100}, {"time": 134140, "pitch": 64, "duration": 260, "velocity": 80}, {"time": 134150, "pitch": 55, "duration": 240, "velocity": 70}, {"time": 134150, "pitch": 59, "duration": 240, "velocity": 75}, {"time": 134160, "pitch": 47, "duration": 220, "velocity": 80}, {"time": 134160, "pitch": 52, "duration": 220, "velocity": 65}, {"time": 134380, "pitch": 47, "duration": 263, "velocity": 90}, {"time": 134390, "pitch": 52, "duration": 243, "velocity": 75}, {"time": 134390, "pitch": 55, "duration": 243, "velocity": 80}, {"time": 134400, "pitch": 59, "duration": 223, "velocity": 85}, {"time": 134400, "pitch": 64, "duration": 223, "velocity": 90}, {"time": 134623, "pitch": 64, "duration": 263, "velocity": 85}, {"time": 134633, "pitch": 55, "duration": 243, "velocity": 75}, {"time": 134633, "pitch": 59, "duration": 243, "velocity": 80}, {"time": 134643, "pitch": 47, "duration": 223, "velocity": 85}, {"time": 134643, "pitch": 52, "duration": 223, "velocity": 70}, {"time": 134866, "pitch": 47, "duration": 260, "velocity": 100}, {"time": 134876, "pitch": 52, "duration": 240, "velocity": 85}, {"time": 134876, "pitch": 55, "duration": 240, "velocity": 90}, {"time": 134886, "pitch": 59, "duration": 220, "velocity": 95}, {"time": 134886, "pitch": 64, "duration": 220, "velocity": 100}, {"time": 135106, "pitch": 64, "duration": 260, "velocity": 80}, {"time": 135116, "pitch": 55, "duration": 240, "velocity": 70}, {"time": 135116, "pitch": 59, "duration": 240, "velocity": 75}, {"time": 135126, "pitch": 47, "duration": 220, "velocity": 80}, {"time": 135126, "pitch": 52, "duration": 220, "velocity": 65}, {"time": 135346, "pitch": 47, "duration": 259, "velocity": 90}, {"time": 135356, "pitch": 50, "duration": 240, "velocity": 75}, {"time": 135356, "pitch": 55, "duration": 240, "velocity": 80}, {"time": 135366, "pitch": 59, "duration": 220, "velocity": 85}, {"time": 135366, "pitch": 67, "duration": 220, "velocity": 90}, {"time": 135586, "pitch": 67, "duration": 259, "velocity": 85}, {"time": 135596, "pitch": 55, "duration": 239, "velocity": 75}, {"time": 135596, "pitch": 59, "duration": 239, "velocity": 80}, {"time": 135605, "pitch": 47, "duration": 220, "velocity": 85}, {"time": 135605, "pitch": 50, "duration": 220, "velocity": 70}, {"time": 135825, "pitch": 47, "duration": 260, "velocity": 100}, {"time": 135835, "pitch": 50, "duration": 240, "velocity": 85}, {"time": 135835, "pitch": 55, "duration": 240, "velocity": 90}, {"time": 135845, "pitch": 59, "duration": 220, "velocity": 95}, {"time": 135845, "pitch": 67, "duration": 220, "velocity": 100}, {"time": 136065, "pitch": 67, "duration": 260, "velocity": 80}, {"time": 136075, "pitch": 55, "duration": 240, "velocity": 70}, {"time": 136075, "pitch": 59, "duration": 240, "velocity": 75}, {"time": 136085, "pitch": 47, "duration": 220, "velocity": 80}, {"time": 136085, "pitch": 50, "duration": 220, "velocity": 65}, {"time": 136305, "pitch": 47, "duration": 260, "velocity": 90}, {"time": 136315, "pitch": 50, "duration": 240, "velocity": 75}, {"time": 136315, "pitch": 55, "duration": 240, "velocity": 80}, {"time": 136325, "pitch": 59, "duration": 220, "velocity": 85}, {"time": 136325, "pitch": 67, "duration": 220, "velocity": 90}, {"time": 136545, "pitch": 67, "duration": 260, "velocity": 85}, {"time": 136555, "pitch": 55, "duration": 240, "velocity": 75}, {"time": 136555, "pitch": 59, "duration": 240, "velocity": 80}, {"time": 136565, "pitch": 47, "duration": 220, "velocity": 85}, {"time": 136565, "pitch": 50, "duration": 220, "velocity": 70}, {"time": 136785, "pitch": 47, "duration": 259, "velocity": 100}, {"time": 136795, "pitch": 50, "duration": 239, "velocity": 85}, {"time": 136795, "pitch": 55, "duration": 239, "velocity": 90}, {"time": 136805, "pitch": 59, "duration": 219, "velocity": 95}, {"time": 136805, "pitch": 67, "duration": 219, "velocity": 100}, {"time": 137024, "pitch": 67, "duration": 260, "velocity": 80}, {"time": 137034, "pitch": 55, "duration": 240, "velocity": 70}, {"time": 137034, "pitch": 59, "duration": 240, "velocity": 75}, {"time": 137044, "pitch": 47, "duration": 220, "velocity": 80}, {"time": 137044, "pitch": 50, "duration": 220, "velocity": 65}, {"time": 137264, "pitch": 45, "duration": 260, "velocity": 90}, {"time": 137274, "pitch": 50, "duration": 240, "velocity": 75}, {"time": 137274, "pitch": 57, "duration": 240, "velocity": 80}, {"time": 137284, "pitch": 62, "duration": 220, "velocity": 85}, {"time": 137284, "pitch": 66, "duration": 220, "velocity": 90}, {"time": 137504, "pitch": 66, "duration": 260, "velocity": 85}, {"time": 137514, "pitch": 57, "duration": 240, "velocity": 75}, {"time": 137514, "pitch": 62, "duration": 240, "velocity": 80}, {"time": 137524, "pitch": 45, "duration": 220, "velocity": 85}, {"time": 137524, "pitch": 50, "duration": 220, "velocity": 70}, {"time": 137744, "pitch": 45, "duration": 260, "velocity": 100}, {"time": 137754, "pitch": 50, "duration": 240, "velocity": 85}, {"time": 137754, "pitch": 57, "duration": 240, "velocity": 90}, {"time": 137764, "pitch": 62, "duration": 220, "velocity": 95}, {"time": 137764, "pitch": 66, "duration": 220, "velocity": 100}, {"time": 137984, "pitch": 66, "duration": 260, "velocity": 80}, {"time": 137994, "pitch": 57, "duration": 240, "velocity": 70}, {"time": 137994, "pitch": 62, "duration": 240, "velocity": 75}, {"time": 138004, "pitch": 45, "duration": 220, "velocity": 80}, {"time": 138004, "pitch": 50, "duration": 220, "velocity": 65}, {"time": 138224, "pitch": 45, "duration": 259, "velocity": 90}, {"time": 138234, "pitch": 50, "duration": 239, "velocity": 75}, {"time": 138234, "pitch": 57, "duration": 239, "velocity": 80}, {"time": 138244, "pitch": 62, "duration": 219, "velocity": 85}, {"time": 138244, "pitch": 67, "duration": 219, "velocity": 90}, {"time": 138463, "pitch": 66, "duration": 260, "velocity": 85}, {"time": 138473, "pitch": 57, "duration": 240, "velocity": 75}, {"time": 138473, "pitch": 62, "duration": 240, "velocity": 80}, {"time": 138483, "pitch": 45, "duration": 220, "velocity": 85}, {"time": 138483, "pitch": 50, "duration": 220, "velocity": 70}, {"time": 138703, "pitch": 45, "duration": 260, "velocity": 100}, {"time": 138713, "pitch": 50, "duration": 240, "velocity": 85}, {"time": 138713, "pitch": 57, "duration": 240, "velocity": 90}, {"time": 138723, "pitch": 62, "duration": 220, "velocity": 95}, {"time": 138723, "pitch": 64, "duration": 220, "velocity": 100}, {"time": 138943, "pitch": 67, "duration": 260, "velocity": 80}, {"time": 138953, "pitch": 57, "duration": 240, "velocity": 70}, {"time": 138953, "pitch": 62, "duration": 240, "velocity": 75}, {"time": 138963, "pitch": 45, "duration": 220, "velocity": 80}, {"time": 138963, "pitch": 50, "duration": 220, "velocity": 65}, {"time": 139183, "pitch": 48, "duration": 240, "velocity": 120}, {"time": 139193, "pitch": 52, "duration": 240, "velocity": 105}, {"time": 139193, "pitch": 55, "duration": 240, "velocity": 110}, {"time": 139203, "pitch": 60, "duration": 240, "velocity": 115}, {"time": 139203, "pitch": 64, "duration": 240, "velocity": 120}, {"time": 139423, "pitch": 48, "duration": 140, "velocity": 120}, {"time": 139433, "pitch": 52, "duration": 130, "velocity": 105}, {"time": 139433, "pitch": 55, "duration": 120, "velocity": 110}, {"time": 139443, "pitch": 60, "duration": 110, "velocity": 115}, {"time": 139443, "pitch": 64, "duration": 100, "velocity": 120}, {"time": 139543, "pitch": 64, "duration": 140, "velocity": 110}, {"time": 139553, "pitch": 55, "duration": 120, "velocity": 100}, {"time": 139553, "pitch": 60, "duration": 130, "velocity": 105}, {"time": 139563, "pitch": 48, "duration": 100, "velocity": 110}, {"time": 139563, "pitch": 52, "duration": 110, "velocity": 95}, {"time": 139663, "pitch": 48, "duration": 239, "velocity": 120}, {"time": 139673, "pitch": 52, "duration": 239, "velocity": 105}, {"time": 139673, "pitch": 55, "duration": 239, "velocity": 110}, {"time": 139683, "pitch": 60, "duration": 239, "velocity": 115}, {"time": 139683, "pitch": 64, "duration": 239, "velocity": 120}, {"time": 139902, "pitch": 47, "duration": 140, "velocity": 120}, {"time": 139912, "pitch": 52, "duration": 130, "velocity": 105}, {"time": 139912, "pitch": 55, "duration": 120, "velocity": 110}, {"time": 139922, "pitch": 59, "duration": 110, "velocity": 115}, {"time": 139922, "pitch": 64, "duration": 100, "velocity": 120}, {"time": 140022, "pitch": 64, "duration": 140, "velocity": 110}, {"time": 140032, "pitch": 55, "duration": 120, "velocity": 100}, {"time": 140032, "pitch": 59, "duration": 130, "velocity": 105}, {"time": 140042, "pitch": 47, "duration": 100, "velocity": 110}, {"time": 140042, "pitch": 52, "duration": 110, "velocity": 95}, {"time": 140142, "pitch": 45, "duration": 240, "velocity": 120}, {"time": 140152, "pitch": 52, "duration": 240, "velocity": 105}, {"time": 140152, "pitch": 55, "duration": 240, "velocity": 110}, {"time": 140162, "pitch": 60, "duration": 240, "velocity": 115}, {"time": 140162, "pitch": 64, "duration": 240, "velocity": 120}, {"time": 140382, "pitch": 45, "duration": 140, "velocity": 120}, {"time": 140392, "pitch": 52, "duration": 130, "velocity": 105}, {"time": 140392, "pitch": 55, "duration": 120, "velocity": 110}, {"time": 140402, "pitch": 60, "duration": 110, "velocity": 115}, {"time": 140402, "pitch": 64, "duration": 100, "velocity": 120}, {"time": 140502, "pitch": 64, "duration": 140, "velocity": 110}, {"time": 140512, "pitch": 55, "duration": 120, "velocity": 100}, {"time": 140512, "pitch": 60, "duration": 130, "velocity": 105}, {"time": 140522, "pitch": 45, "duration": 100, "velocity": 110}, {"time": 140522, "pitch": 52, "duration": 110, "velocity": 95}, {"time": 140622, "pitch": 45, "duration": 240, "velocity": 120}, {"time": 140632, "pitch": 52, "duration": 240, "velocity": 105}, {"time": 140632, "pitch": 55, "duration": 240, "velocity": 110}, {"time": 140642, "pitch": 60, "duration": 240, "velocity": 115}, {"time": 140642, "pitch": 64, "duration": 240, "velocity": 120}, {"time": 140862, "pitch": 45, "duration": 140, "velocity": 120}, {"time": 140872, "pitch": 52, "duration": 130, "velocity": 105}, {"time": 140872, "pitch": 55, "duration": 120, "velocity": 110}, {"time": 140882, "pitch": 60, "duration": 110, "velocity": 115}, {"time": 140882, "pitch": 64, "duration": 100, "velocity": 120}, {"time": 140982, "pitch": 64, "duration": 139, "velocity": 110}, {"time": 140992, "pitch": 55, "duration": 119, "velocity": 100}, {"time": 140992, "pitch": 60, "duration": 129, "velocity": 105}, {"time": 141002, "pitch": 45, "duration": 99, "velocity": 110}, {"time": 141002, "pitch": 52, "duration": 109, "velocity": 95}, {"time": 141101, "pitch": 45, "duration": 240, "velocity": 120}, {"time": 141111, "pitch": 50, "duration": 240, "velocity": 105}, {"time": 141111, "pitch": 57, "duration": 240, "velocity": 110}, {"time": 141121, "pitch": 62, "duration": 240, "velocity": 115}, {"time": 141121, "pitch": 66, "duration": 240, "velocity": 120}, {"time": 141341, "pitch": 45, "duration": 140, "velocity": 120}, {"time": 141351, "pitch": 50, "duration": 130, "velocity": 105}, {"time": 141351, "pitch": 57, "duration": 120, "velocity": 110}, {"time": 141361, "pitch": 62, "duration": 110, "velocity": 115}, {"time": 141361, "pitch": 66, "duration": 100, "velocity": 120}, {"time": 141461, "pitch": 66, "duration": 140, "velocity": 110}, {"time": 141471, "pitch": 57, "duration": 120, "velocity": 100}, {"time": 141471, "pitch": 62, "duration": 130, "velocity": 105}, {"time": 141481, "pitch": 45, "duration": 100, "velocity": 110}, {"time": 141481, "pitch": 50, "duration": 110, "velocity": 95}, {"time": 141581, "pitch": 45, "duration": 240, "velocity": 120}, {"time": 141591, "pitch": 50, "duration": 240, "velocity": 105}, {"time": 141591, "pitch": 57, "duration": 240, "velocity": 110}, {"time": 141601, "pitch": 62, "duration": 240, "velocity": 115}, {"time": 141601, "pitch": 66, "duration": 240, "velocity": 120}, {"time": 141821, "pitch": 45, "duration": 140, "velocity": 120}, {"time": 141831, "pitch": 50, "duration": 130, "velocity": 105}, {"time": 141831, "pitch": 57, "duration": 120, "velocity": 110}, {"time": 141841, "pitch": 62, "duration": 110, "velocity": 115}, {"time": 141841, "pitch": 66, "duration": 100, "velocity": 120}, {"time": 141941, "pitch": 66, "duration": 140, "velocity": 110}, {"time": 141951, "pitch": 57, "duration": 120, "velocity": 100}, {"time": 141951, "pitch": 62, "duration": 130, "velocity": 105}, {"time": 141961, "pitch": 45, "duration": 100, "velocity": 110}, {"time": 141961, "pitch": 50, "duration": 110, "velocity": 95}, {"time": 142061, "pitch": 45, "duration": 240, "velocity": 120}, {"time": 142071, "pitch": 50, "duration": 240, "velocity": 105}, {"time": 142071, "pitch": 57, "duration": 240, "velocity": 110}, {"time": 142081, "pitch": 62, "duration": 240, "velocity": 115}, {"time": 142081, "pitch": 67, "duration": 240, "velocity": 120}, {"time": 142301, "pitch": 45, "duration": 139, "velocity": 120}, {"time": 142311, "pitch": 50, "duration": 129, "velocity": 105}, {"time": 142311, "pitch": 57, "duration": 119, "velocity": 110}, {"time": 142321, "pitch": 62, "duration": 109, "velocity": 115}, {"time": 142321, "pitch": 66, "duration": 100, "velocity": 120}, {"time": 142421, "pitch": 66, "duration": 139, "velocity": 110}, {"time": 142430, "pitch": 57, "duration": 120, "velocity": 100}, {"time": 142430, "pitch": 62, "duration": 130, "velocity": 105}, {"time": 142440, "pitch": 45, "duration": 100, "velocity": 110}, {"time": 142440, "pitch": 50, "duration": 110, "velocity": 95}, {"time": 142540, "pitch": 45, "duration": 240, "velocity": 120}, {"time": 142550, "pitch": 50, "duration": 240, "velocity": 105}, {"time": 142550, "pitch": 57, "duration": 240, "velocity": 110}, {"time": 142560, "pitch": 62, "duration": 240, "velocity": 115}, {"time": 142560, "pitch": 66, "duration": 240, "velocity": 120}, {"time": 142780, "pitch": 45, "duration": 140, "velocity": 120}, {"time": 142790, "pitch": 50, "duration": 130, "velocity": 105}, {"time": 142790, "pitch": 57, "duration": 120, "velocity": 110}, {"time": 142800, "pitch": 62, "duration": 110, "velocity": 115}, {"time": 142800, "pitch": 66, "duration": 100, "velocity": 120}, {"time": 142900, "pitch": 66, "duration": 140, "velocity": 110}, {"time": 142910, "pitch": 57, "duration": 120, "velocity": 100}, {"time": 142910, "pitch": 62, "duration": 130, "velocity": 105}, {"time": 142920, "pitch": 45, "duration": 100, "velocity": 110}, {"time": 142920, "pitch": 50, "duration": 110, "velocity": 95}, {"time": 143020, "pitch": 48, "duration": 243, "velocity": 120}, {"time": 143030, "pitch": 52, "duration": 243, "velocity": 105}, {"time": 143030, "pitch": 55, "duration": 243, "velocity": 110}, {"time": 143040, "pitch": 60, "duration": 243, "velocity": 115}, {"time": 143040, "pitch": 64, "duration": 243, "velocity": 120}, {"time": 143263, "pitch": 48, "duration": 141, "velocity": 120}, {"time": 143273, "pitch": 52, "duration": 131, "velocity": 105}, {"time": 143273, "pitch": 55, "duration": 121, "velocity": 110}, {"time": 143283, "pitch": 60, "duration": 111, "velocity": 115}, {"time": 143283, "pitch": 64, "duration": 101, "velocity": 120}, {"time": 143384, "pitch": 64, "duration": 142, "velocity": 110}, {"time": 143394, "pitch": 55, "duration": 122, "velocity": 100}, {"time": 143394, "pitch": 60, "duration": 132, "velocity": 105}, {"time": 143404, "pitch": 48, "duration": 102, "velocity": 110}, {"time": 143404, "pitch": 52, "duration": 112, "velocity": 95}, {"time": 143506, "pitch": 48, "duration": 240, "velocity": 120}, {"time": 143516, "pitch": 52, "duration": 240, "velocity": 105}, {"time": 143516, "pitch": 55, "duration": 240, "velocity": 110}, {"time": 143526, "pitch": 60, "duration": 240, "velocity": 115}, {"time": 143526, "pitch": 64, "duration": 240, "velocity": 120}, {"time": 143746, "pitch": 47, "duration": 140, "velocity": 120}, {"time": 143756, "pitch": 52, "duration": 130, "velocity": 105}, {"time": 143756, "pitch": 55, "duration": 120, "velocity": 110}, {"time": 143766, "pitch": 59, "duration": 110, "velocity": 115}, {"time": 143766, "pitch": 64, "duration": 100, "velocity": 120}, {"time": 143866, "pitch": 64, "duration": 139, "velocity": 110}, {"time": 143876, "pitch": 55, "duration": 119, "velocity": 100}, {"time": 143876, "pitch": 59, "duration": 129, "velocity": 105}, {"time": 143886, "pitch": 47, "duration": 99, "velocity": 110}, {"time": 143886, "pitch": 52, "duration": 109, "velocity": 95}, {"time": 143985, "pitch": 45, "duration": 240, "velocity": 120}, {"time": 143995, "pitch": 52, "duration": 240, "velocity": 105}, {"time": 143995, "pitch": 55, "duration": 240, "velocity": 110}, {"time": 144005, "pitch": 60, "duration": 240, "velocity": 115}, {"time": 144005, "pitch": 64, "duration": 240, "velocity": 120}, {"time": 144225, "pitch": 45, "duration": 140, "velocity": 120}, {"time": 144235, "pitch": 52, "duration": 130, "velocity": 105}, {"time": 144235, "pitch": 55, "duration": 120, "velocity": 110}, {"time": 144245, "pitch": 60, "duration": 110, "velocity": 115}, {"time": 144245, "pitch": 64, "duration": 100, "velocity": 120}, {"time": 144345, "pitch": 64, "duration": 140, "velocity": 110}, {"time": 144355, "pitch": 55, "duration": 120, "velocity": 100}, {"time": 144355, "pitch": 60, "duration": 130, "velocity": 105}, {"time": 144365, "pitch": 45, "duration": 100, "velocity": 110}, {"time": 144365, "pitch": 52, "duration": 110, "velocity": 95}, {"time": 144465, "pitch": 45, "duration": 240, "velocity": 120}, {"time": 144475, "pitch": 52, "duration": 240, "velocity": 105}, {"time": 144475, "pitch": 55, "duration": 240, "velocity": 110}, {"time": 144485, "pitch": 60, "duration": 240, "velocity": 115}, {"time": 144485, "pitch": 64, "duration": 240, "velocity": 120}, {"time": 144705, "pitch": 45, "duration": 140, "velocity": 120}, {"time": 144715, "pitch": 52, "duration": 130, "velocity": 105}, {"time": 144715, "pitch": 55, "duration": 120, "velocity": 110}, {"time": 144725, "pitch": 60, "duration": 110, "velocity": 115}, {"time": 144725, "pitch": 64, "duration": 100, "velocity": 120}, {"time": 144825, "pitch": 64, "duration": 140, "velocity": 110}, {"time": 144835, "pitch": 55, "duration": 120, "velocity": 100}, {"time": 144835, "pitch": 60, "duration": 130, "velocity": 105}, {"time": 144845, "pitch": 45, "duration": 100, "velocity": 110}, {"time": 144845, "pitch": 52, "duration": 110, "velocity": 95}, {"time": 144945, "pitch": 45, "duration": 240, "velocity": 120}, {"time": 144955, "pitch": 50, "duration": 240, "velocity": 105}, {"time": 144955, "pitch": 57, "duration": 240, "velocity": 110}, {"time": 144965, "pitch": 62, "duration": 240, "velocity": 115}, {"time": 144965, "pitch": 66, "duration": 240, "velocity": 120}, {"time": 145185, "pitch": 45, "duration": 139, "velocity": 120}, {"time": 145195, "pitch": 50, "duration": 129, "velocity": 105}, {"time": 145195, "pitch": 57, "duration": 119, "velocity": 110}, {"time": 145205, "pitch": 62, "duration": 109, "velocity": 115}, {"time": 145205, "pitch": 66, "duration": 99, "velocity": 120}, {"time": 145304, "pitch": 66, "duration": 140, "velocity": 110}, {"time": 145314, "pitch": 57, "duration": 120, "velocity": 100}, {"time": 145314, "pitch": 62, "duration": 130, "velocity": 105}, {"time": 145324, "pitch": 45, "duration": 100, "velocity": 110}, {"time": 145324, "pitch": 50, "duration": 110, "velocity": 95}, {"time": 145424, "pitch": 45, "duration": 240, "velocity": 120}, {"time": 145434, "pitch": 50, "duration": 240, "velocity": 105}, {"time": 145434, "pitch": 57, "duration": 240, "velocity": 110}, {"time": 145444, "pitch": 62, "duration": 240, "velocity": 115}, {"time": 145444, "pitch": 66, "duration": 240, "velocity": 120}, {"time": 145664, "pitch": 45, "duration": 140, "velocity": 120}, {"time": 145674, "pitch": 50, "duration": 130, "velocity": 105}, {"time": 145674, "pitch": 57, "duration": 120, "velocity": 110}, {"time": 145684, "pitch": 62, "duration": 110, "velocity": 115}, {"time": 145684, "pitch": 66, "duration": 100, "velocity": 120}, {"time": 145784, "pitch": 66, "duration": 140, "velocity": 110}, {"time": 145794, "pitch": 57, "duration": 120, "velocity": 100}, {"time": 145794, "pitch": 62, "duration": 130, "velocity": 105}, {"time": 145804, "pitch": 45, "duration": 100, "velocity": 110}, {"time": 145804, "pitch": 50, "duration": 110, "velocity": 95}, {"time": 145904, "pitch": 45, "duration": 240, "velocity": 120}, {"time": 145914, "pitch": 50, "duration": 240, "velocity": 105}, {"time": 145914, "pitch": 57, "duration": 240, "velocity": 110}, {"time": 145924, "pitch": 62, "duration": 240, "velocity": 115}, {"time": 145924, "pitch": 67, "duration": 240, "velocity": 120}, {"time": 146144, "pitch": 45, "duration": 140, "velocity": 120}, {"time": 146154, "pitch": 50, "duration": 130, "velocity": 105}, {"time": 146154, "pitch": 57, "duration": 120, "velocity": 110}, {"time": 146164, "pitch": 62, "duration": 110, "velocity": 115}, {"time": 146164, "pitch": 66, "duration": 100, "velocity": 120}, {"time": 146264, "pitch": 66, "duration": 140, "velocity": 110}, {"time": 146274, "pitch": 57, "duration": 120, "velocity": 100}, {"time": 146274, "pitch": 62, "duration": 130, "velocity": 105}, {"time": 146284, "pitch": 45, "duration": 100, "velocity": 110}, {"time": 146284, "pitch": 50, "duration": 110, "velocity": 95}, {"time": 146384, "pitch": 45, "duration": 239, "velocity": 120}, {"time": 146394, "pitch": 50, "duration": 239, "velocity": 105}, {"time": 146394, "pitch": 57, "duration": 239, "velocity": 110}, {"time": 146404, "pitch": 62, "duration": 239, "velocity": 115}, {"time": 146404, "pitch": 66, "duration": 239, "velocity": 120}, {"time": 146623, "pitch": 45, "duration": 140, "velocity": 120}, {"time": 146633, "pitch": 50, "duration": 130, "velocity": 105}, {"time": 146633, "pitch": 57, "duration": 120, "velocity": 110}, {"time": 146643, "pitch": 62, "duration": 110, "velocity": 115}, {"time": 146643, "pitch": 66, "duration": 100, "velocity": 120}, {"time": 146743, "pitch": 66, "duration": 140, "velocity": 110}, {"time": 146753, "pitch": 57, "duration": 120, "velocity": 100}, {"time": 146753, "pitch": 62, "duration": 130, "velocity": 105}, {"time": 146763, "pitch": 45, "duration": 100, "velocity": 110}, {"time": 146763, "pitch": 50, "duration": 110, "velocity": 95}, {"time": 146863, "pitch": 48, "duration": 240, "velocity": 120}, {"time": 146873, "pitch": 52, "duration": 240, "velocity": 105}, {"time": 146873, "pitch": 55, "duration": 240, "velocity": 110}, {"time": 146883, "pitch": 60, "duration": 240, "velocity": 115}, {"time": 146883, "pitch": 64, "duration": 240, "velocity": 120}, {"time": 147103, "pitch": 48, "duration": 140, "velocity": 120}, {"time": 147113, "pitch": 52, "duration": 130, "velocity": 105}, {"time": 147113, "pitch": 55, "duration": 120, "velocity": 110}, {"time": 147123, "pitch": 60, "duration": 110, "velocity": 115}, {"time": 147123, "pitch": 64, "duration": 100, "velocity": 120}, {"time": 147223, "pitch": 64, "duration": 140, "velocity": 110}, {"time": 147233, "pitch": 55, "duration": 120, "velocity": 100}, {"time": 147233, "pitch": 60, "duration": 130, "velocity": 105}, {"time": 147243, "pitch": 48, "duration": 100, "velocity": 110}, {"time": 147243, "pitch": 52, "duration": 110, "velocity": 95}, {"time": 147343, "pitch": 48, "duration": 240, "velocity": 120}, {"time": 147353, "pitch": 52, "duration": 240, "velocity": 105}, {"time": 147353, "pitch": 55, "duration": 240, "velocity": 110}, {"time": 147363, "pitch": 60, "duration": 240, "velocity": 115}, {"time": 147363, "pitch": 64, "duration": 240, "velocity": 120}, {"time": 147583, "pitch": 47, "duration": 140, "velocity": 120}, {"time": 147593, "pitch": 52, "duration": 130, "velocity": 105}, {"time": 147593, "pitch": 55, "duration": 120, "velocity": 110}, {"time": 147603, "pitch": 59, "duration": 110, "velocity": 115}, {"time": 147603, "pitch": 64, "duration": 100, "velocity": 120}, {"time": 147703, "pitch": 64, "duration": 140, "velocity": 110}, {"time": 147713, "pitch": 55, "duration": 120, "velocity": 100}, {"time": 147713, "pitch": 59, "duration": 130, "velocity": 105}, {"time": 147723, "pitch": 47, "duration": 100, "velocity": 110}, {"time": 147723, "pitch": 52, "duration": 110, "velocity": 95}, {"time": 147823, "pitch": 45, "duration": 239, "velocity": 120}, {"time": 147833, "pitch": 52, "duration": 239, "velocity": 105}, {"time": 147833, "pitch": 55, "duration": 239, "velocity": 110}, {"time": 147843, "pitch": 60, "duration": 239, "velocity": 115}, {"time": 147843, "pitch": 64, "duration": 239, "velocity": 120}, {"time": 148062, "pitch": 45, "duration": 140, "velocity": 120}, {"time": 148072, "pitch": 52, "duration": 130, "velocity": 105}, {"time": 148072, "pitch": 55, "duration": 120, "velocity": 110}, {"time": 148082, "pitch": 60, "duration": 110, "velocity": 115}, {"time": 148082, "pitch": 64, "duration": 100, "velocity": 120}, {"time": 148182, "pitch": 64, "duration": 140, "velocity": 110}, {"time": 148192, "pitch": 55, "duration": 120, "velocity": 100}, {"time": 148192, "pitch": 60, "duration": 130, "velocity": 105}, {"time": 148202, "pitch": 45, "duration": 100, "velocity": 110}, {"time": 148202, "pitch": 52, "duration": 110, "velocity": 95}, {"time": 148302, "pitch": 45, "duration": 240, "velocity": 120}, {"time": 148312, "pitch": 52, "duration": 240, "velocity": 105}, {"time": 148312, "pitch": 55, "duration": 240, "velocity": 110}, {"time": 148322, "pitch": 60, "duration": 240, "velocity": 115}, {"time": 148322, "pitch": 64, "duration": 240, "velocity": 120}, {"time": 148542, "pitch": 45, "duration": 140, "velocity": 120}, {"time": 148552, "pitch": 52, "duration": 130, "velocity": 105}, {"time": 148552, "pitch": 55, "duration": 120, "velocity": 110}, {"time": 148562, "pitch": 60, "duration": 110, "velocity": 115}, {"time": 148562, "pitch": 64, "duration": 100, "velocity": 120}, {"time": 148662, "pitch": 64, "duration": 140, "velocity": 110}, {"time": 148672, "pitch": 55, "duration": 120, "velocity": 100}, {"time": 148672, "pitch": 60, "duration": 130, "velocity": 105}, {"time": 148682, "pitch": 45, "duration": 100, "velocity": 110}, {"time": 148682, "pitch": 52, "duration": 110, "velocity": 95}, {"time": 148782, "pitch": 45, "duration": 240, "velocity": 120}, {"time": 148792, "pitch": 50, "duration": 240, "velocity": 105}, {"time": 148792, "pitch": 57, "duration": 240, "velocity": 110}, {"time": 148802, "pitch": 62, "duration": 240, "velocity": 115}, {"time": 148802, "pitch": 66, "duration": 240, "velocity": 120}, {"time": 149022, "pitch": 45, "duration": 140, "velocity": 120}, {"time": 149032, "pitch": 50, "duration": 130, "velocity": 105}, {"time": 149032, "pitch": 57, "duration": 120, "velocity": 110}, {"time": 149042, "pitch": 62, "duration": 110, "velocity": 115}, {"time": 149042, "pitch": 66, "duration": 100, "velocity": 120}, {"time": 149142, "pitch": 66, "duration": 140, "velocity": 110}, {"time": 149152, "pitch": 57, "duration": 120, "velocity": 100}, {"time": 149152, "pitch": 62, "duration": 130, "velocity": 105}, {"time": 149162, "pitch": 45, "duration": 100, "velocity": 110}, {"time": 149162, "pitch": 50, "duration": 110, "velocity": 95}, {"time": 149262, "pitch": 45, "duration": 239, "velocity": 120}, {"time": 149272, "pitch": 50, "duration": 239, "velocity": 105}, {"time": 149272, "pitch": 57, "duration": 239, "velocity": 110}, {"time": 149282, "pitch": 62, "duration": 239, "velocity": 115}, {"time": 149282, "pitch": 66, "duration": 239, "velocity": 120}, {"time": 149501, "pitch": 45, "duration": 140, "velocity": 120}, {"time": 149511, "pitch": 50, "duration": 130, "velocity": 105}, {"time": 149511, "pitch": 57, "duration": 120, "velocity": 110}, {"time": 149521, "pitch": 62, "duration": 110, "velocity": 115}, {"time": 149521, "pitch": 66, "duration": 100, "velocity": 120}, {"time": 149621, "pitch": 66, "duration": 140, "velocity": 110}, {"time": 149631, "pitch": 57, "duration": 120, "velocity": 100}, {"time": 149631, "pitch": 62, "duration": 130, "velocity": 105}, {"time": 149641, "pitch": 45, "duration": 100, "velocity": 110}, {"time": 149641, "pitch": 50, "duration": 110, "velocity": 95}, {"time": 149741, "pitch": 45, "duration": 240, "velocity": 120}, {"time": 149751, "pitch": 50, "duration": 240, "velocity": 105}, {"time": 149751, "pitch": 57, "duration": 240, "velocity": 110}, {"time": 149761, "pitch": 62, "duration": 240, "velocity": 115}, {"time": 149761, "pitch": 67, "duration": 240, "velocity": 120}, {"time": 149981, "pitch": 45, "duration": 140, "velocity": 120}, {"time": 149991, "pitch": 50, "duration": 130, "velocity": 105}, {"time": 149991, "pitch": 57, "duration": 120, "velocity": 110}, {"time": 150001, "pitch": 62, "duration": 110, "velocity": 115}, {"time": 150001, "pitch": 66, "duration": 100, "velocity": 120}, {"time": 150101, "pitch": 66, "duration": 140, "velocity": 110}, {"time": 150111, "pitch": 57, "duration": 120, "velocity": 100}, {"time": 150111, "pitch": 62, "duration": 130, "velocity": 105}, {"time": 150121, "pitch": 45, "duration": 100, "velocity": 110}, {"time": 150121, "pitch": 50, "duration": 110, "velocity": 95}, {"time": 150221, "pitch": 45, "duration": 240, "velocity": 120}, {"time": 150231, "pitch": 50, "duration": 240, "velocity": 105}, {"time": 150231, "pitch": 57, "duration": 240, "velocity": 110}, {"time": 150241, "pitch": 62, "duration": 240, "velocity": 115}, {"time": 150241, "pitch": 66, "duration": 240, "velocity": 120}, {"time": 150461, "pitch": 45, "duration": 140, "velocity": 120}, {"time": 150471, "pitch": 50, "duration": 130, "velocity": 105}, {"time": 150471, "pitch": 57, "duration": 120, "velocity": 110}, {"time": 150481, "pitch": 62, "duration": 110, "velocity": 115}, {"time": 150481, "pitch": 66, "duration": 100, "velocity": 120}, {"time": 150581, "pitch": 66, "duration": 139, "velocity": 110}, {"time": 150591, "pitch": 57, "duration": 120, "velocity": 100}, {"time": 150591, "pitch": 62, "duration": 129, "velocity": 105}, {"time": 150601, "pitch": 45, "duration": 100, "velocity": 110}, {"time": 150601, "pitch": 50, "duration": 110, "velocity": 95}, {"time": 150701, "pitch": 48, "duration": 239, "velocity": 120}, {"time": 150711, "pitch": 52, "duration": 239, "velocity": 105}, {"time": 150711, "pitch": 55, "duration": 239, "velocity": 110}, {"time": 150720, "pitch": 60, "duration": 240, "velocity": 115}, {"time": 150720, "pitch": 64, "duration": 240, "velocity": 120}, {"time": 150940, "pitch": 48, "duration": 140, "velocity": 120}, {"time": 150950, "pitch": 52, "duration": 130, "velocity": 105}, {"time": 150950, "pitch": 55, "duration": 120, "velocity": 110}, {"time": 150960, "pitch": 60, "duration": 110, "velocity": 115}, {"time": 150960, "pitch": 64, "duration": 100, "velocity": 120}, {"time": 151060, "pitch": 64, "duration": 140, "velocity": 110}, {"time": 151070, "pitch": 55, "duration": 120, "velocity": 100}, {"time": 151070, "pitch": 60, "duration": 130, "velocity": 105}, {"time": 151080, "pitch": 48, "duration": 100, "velocity": 110}, {"time": 151080, "pitch": 52, "duration": 110, "velocity": 95}, {"time": 151180, "pitch": 48, "duration": 243, "velocity": 120}, {"time": 151190, "pitch": 52, "duration": 243, "velocity": 105}, {"time": 151190, "pitch": 55, "duration": 243, "velocity": 110}, {"time": 151200, "pitch": 60, "duration": 243, "velocity": 115}, {"time": 151200, "pitch": 64, "duration": 243, "velocity": 120}, {"time": 151423, "pitch": 47, "duration": 141, "velocity": 120}, {"time": 151433, "pitch": 52, "duration": 131, "velocity": 105}, {"time": 151433, "pitch": 55, "duration": 121, "velocity": 110}, {"time": 151443, "pitch": 59, "duration": 111, "velocity": 115}, {"time": 151443, "pitch": 64, "duration": 101, "velocity": 120}, {"time": 151544, "pitch": 64, "duration": 142, "velocity": 110}, {"time": 151554, "pitch": 55, "duration": 122, "velocity": 100}, {"time": 151554, "pitch": 59, "duration": 132, "velocity": 105}, {"time": 151564, "pitch": 47, "duration": 102, "velocity": 110}, {"time": 151564, "pitch": 52, "duration": 112, "velocity": 95}, {"time": 151666, "pitch": 45, "duration": 240, "velocity": 120}, {"time": 151676, "pitch": 52, "duration": 240, "velocity": 105}, {"time": 151676, "pitch": 55, "duration": 240, "velocity": 110}, {"time": 151686, "pitch": 60, "duration": 240, "velocity": 115}, {"time": 151686, "pitch": 64, "duration": 240, "velocity": 120}, {"time": 151906, "pitch": 45, "duration": 140, "velocity": 120}, {"time": 151916, "pitch": 52, "duration": 130, "velocity": 105}, {"time": 151916, "pitch": 55, "duration": 120, "velocity": 110}, {"time": 151926, "pitch": 60, "duration": 110, "velocity": 115}, {"time": 151926, "pitch": 64, "duration": 100, "velocity": 120}, {"time": 152026, "pitch": 64, "duration": 140, "velocity": 110}, {"time": 152036, "pitch": 55, "duration": 120, "velocity": 100}, {"time": 152036, "pitch": 60, "duration": 130, "velocity": 105}, {"time": 152046, "pitch": 45, "duration": 100, "velocity": 110}, {"time": 152046, "pitch": 52, "duration": 110, "velocity": 95}, {"time": 152146, "pitch": 45, "duration": 239, "velocity": 120}, {"time": 152156, "pitch": 52, "duration": 239, "velocity": 105}, {"time": 152156, "pitch": 55, "duration": 239, "velocity": 110}, {"time": 152166, "pitch": 60, "duration": 239, "velocity": 115}, {"time": 152166, "pitch": 64, "duration": 239, "velocity": 120}, {"time": 152385, "pitch": 45, "duration": 140, "velocity": 120}, {"time": 152395, "pitch": 52, "duration": 130, "velocity": 105}, {"time": 152395, "pitch": 55, "duration": 120, "velocity": 110}, {"time": 152405, "pitch": 60, "duration": 110, "velocity": 115}, {"time": 152405, "pitch": 64, "duration": 100, "velocity": 120}, {"time": 152505, "pitch": 64, "duration": 140, "velocity": 110}, {"time": 152515, "pitch": 55, "duration": 120, "velocity": 100}, {"time": 152515, "pitch": 60, "duration": 130, "velocity": 105}, {"time": 152525, "pitch": 45, "duration": 100, "velocity": 110}, {"time": 152525, "pitch": 52, "duration": 110, "velocity": 95}, {"time": 152625, "pitch": 45, "duration": 240, "velocity": 120}, {"time": 152635, "pitch": 50, "duration": 240, "velocity": 105}, {"time": 152635, "pitch": 57, "duration": 240, "velocity": 110}, {"time": 152645, "pitch": 62, "duration": 240, "velocity": 115}, {"time": 152645, "pitch": 66, "duration": 240, "velocity": 120}, {"time": 152865, "pitch": 45, "duration": 140, "velocity": 120}, {"time": 152875, "pitch": 50, "duration": 130, "velocity": 105}, {"time": 152875, "pitch": 57, "duration": 120, "velocity": 110}, {"time": 152885, "pitch": 62, "duration": 110, "velocity": 115}, {"time": 152885, "pitch": 66, "duration": 100, "velocity": 120}, {"time": 152985, "pitch": 66, "duration": 140, "velocity": 110}, {"time": 152995, "pitch": 57, "duration": 120, "velocity": 100}, {"time": 152995, "pitch": 62, "duration": 130, "velocity": 105}, {"time": 153005, "pitch": 45, "duration": 100, "velocity": 110}, {"time": 153005, "pitch": 50, "duration": 110, "velocity": 95}, {"time": 153105, "pitch": 45, "duration": 240, "velocity": 120}, {"time": 153115, "pitch": 50, "duration": 240, "velocity": 105}, {"time": 153115, "pitch": 57, "duration": 240, "velocity": 110}, {"time": 153125, "pitch": 62, "duration": 240, "velocity": 115}, {"time": 153125, "pitch": 66, "duration": 240, "velocity": 120}, {"time": 153345, "pitch": 45, "duration": 140, "velocity": 120}, {"time": 153355, "pitch": 50, "duration": 130, "velocity": 105}, {"time": 153355, "pitch": 57, "duration": 120, "velocity": 110}, {"time": 153365, "pitch": 62, "duration": 110, "velocity": 115}, {"time": 153365, "pitch": 66, "duration": 100, "velocity": 120}, {"time": 153465, "pitch": 66, "duration": 139, "velocity": 110}, {"time": 153475, "pitch": 57, "duration": 119, "velocity": 100}, {"time": 153475, "pitch": 62, "duration": 129, "velocity": 105}, {"time": 153485, "pitch": 45, "duration": 99, "velocity": 110}, {"time": 153485, "pitch": 50, "duration": 109, "velocity": 95}, {"time": 153584, "pitch": 45, "duration": 240, "velocity": 120}, {"time": 153594, "pitch": 50, "duration": 240, "velocity": 105}, {"time": 153594, "pitch": 57, "duration": 240, "velocity": 110}, {"time": 153604, "pitch": 62, "duration": 240, "velocity": 115}, {"time": 153604, "pitch": 67, "duration": 240, "velocity": 120}, {"time": 153824, "pitch": 45, "duration": 140, "velocity": 120}, {"time": 153834, "pitch": 50, "duration": 130, "velocity": 105}, {"time": 153834, "pitch": 57, "duration": 120, "velocity": 110}, {"time": 153844, "pitch": 62, "duration": 110, "velocity": 115}, {"time": 153844, "pitch": 66, "duration": 100, "velocity": 120}, {"time": 153944, "pitch": 66, "duration": 140, "velocity": 110}, {"time": 153954, "pitch": 57, "duration": 120, "velocity": 100}, {"time": 153954, "pitch": 62, "duration": 130, "velocity": 105}, {"time": 153964, "pitch": 45, "duration": 100, "velocity": 110}, {"time": 153964, "pitch": 50, "duration": 110, "velocity": 95}, {"time": 154064, "pitch": 45, "duration": 240, "velocity": 120}, {"time": 154074, "pitch": 50, "duration": 240, "velocity": 105}, {"time": 154074, "pitch": 57, "duration": 240, "velocity": 110}, {"time": 154084, "pitch": 62, "duration": 240, "velocity": 115}, {"time": 154084, "pitch": 66, "duration": 240, "velocity": 120}, {"time": 154304, "pitch": 45, "duration": 140, "velocity": 120}, {"time": 154314, "pitch": 50, "duration": 130, "velocity": 105}, {"time": 154314, "pitch": 57, "duration": 120, "velocity": 110}, {"time": 154324, "pitch": 62, "duration": 110, "velocity": 115}, {"time": 154324, "pitch": 66, "duration": 100, "velocity": 120}, {"time": 154424, "pitch": 66, "duration": 140, "velocity": 110}, {"time": 154434, "pitch": 57, "duration": 120, "velocity": 100}, {"time": 154434, "pitch": 62, "duration": 130, "velocity": 105}, {"time": 154444, "pitch": 45, "duration": 100, "velocity": 110}, {"time": 154444, "pitch": 50, "duration": 110, "velocity": 95}, {"time": 154544, "pitch": 45, "duration": 260, "velocity": 90}, {"time": 154554, "pitch": 50, "duration": 240, "velocity": 75}, {"time": 154554, "pitch": 57, "duration": 240, "velocity": 80}, {"time": 154564, "pitch": 62, "duration": 220, "velocity": 85}, {"time": 154564, "pitch": 66, "duration": 220, "velocity": 90}, {"time": 154784, "pitch": 66, "duration": 259, "velocity": 85}, {"time": 154794, "pitch": 57, "duration": 239, "velocity": 75}, {"time": 154794, "pitch": 62, "duration": 239, "velocity": 80}, {"time": 154804, "pitch": 45, "duration": 219, "velocity": 85}, {"time": 154804, "pitch": 50, "duration": 219, "velocity": 70}, {"time": 155023, "pitch": 45, "duration": 260, "velocity": 100}, {"time": 155033, "pitch": 50, "duration": 240, "velocity": 85}, {"time": 155033, "pitch": 57, "duration": 240, "velocity": 90}, {"time": 155043, "pitch": 62, "duration": 220, "velocity": 95}, {"time": 155043, "pitch": 66, "duration": 220, "velocity": 100}, {"time": 155263, "pitch": 66, "duration": 260, "velocity": 80}, {"time": 155273, "pitch": 57, "duration": 240, "velocity": 70}, {"time": 155273, "pitch": 62, "duration": 240, "velocity": 75}, {"time": 155283, "pitch": 45, "duration": 220, "velocity": 80}, {"time": 155283, "pitch": 50, "duration": 220, "velocity": 65}, {"time": 155503, "pitch": 45, "duration": 260, "velocity": 90}, {"time": 155513, "pitch": 50, "duration": 240, "velocity": 75}, {"time": 155513, "pitch": 57, "duration": 240, "velocity": 80}, {"time": 155523, "pitch": 62, "duration": 220, "velocity": 85}, {"time": 155523, "pitch": 67, "duration": 220, "velocity": 90}, {"time": 155743, "pitch": 66, "duration": 260, "velocity": 85}, {"time": 155753, "pitch": 57, "duration": 240, "velocity": 75}, {"time": 155753, "pitch": 62, "duration": 240, "velocity": 80}, {"time": 155763, "pitch": 45, "duration": 220, "velocity": 85}, {"time": 155763, "pitch": 50, "duration": 220, "velocity": 70}, {"time": 155983, "pitch": 45, "duration": 260, "velocity": 100}, {"time": 155993, "pitch": 50, "duration": 240, "velocity": 85}, {"time": 155993, "pitch": 57, "duration": 240, "velocity": 90}, {"time": 156003, "pitch": 62, "duration": 220, "velocity": 95}, {"time": 156003, "pitch": 64, "duration": 220, "velocity": 100}, {"time": 156223, "pitch": 67, "duration": 259, "velocity": 80}, {"time": 156233, "pitch": 57, "duration": 239, "velocity": 70}, {"time": 156233, "pitch": 62, "duration": 239, "velocity": 75}, {"time": 156243, "pitch": 45, "duration": 219, "velocity": 80}, {"time": 156243, "pitch": 50, "duration": 219, "velocity": 65}, {"time": 156462, "pitch": 45, "duration": 240, "velocity": 120}, {"time": 156472, "pitch": 50, "duration": 240, "velocity": 105}, {"time": 156472, "pitch": 57, "duration": 240, "velocity": 110}, {"time": 156482, "pitch": 62, "duration": 240, "velocity": 115}, {"time": 156482, "pitch": 66, "duration": 240, "velocity": 120}, {"time": 156702, "pitch": 45, "duration": 140, "velocity": 120}, {"time": 156712, "pitch": 50, "duration": 130, "velocity": 105}, {"time": 156712, "pitch": 57, "duration": 120, "velocity": 110}, {"time": 156722, "pitch": 62, "duration": 110, "velocity": 115}, {"time": 156722, "pitch": 66, "duration": 100, "velocity": 120}, {"time": 156822, "pitch": 66, "duration": 140, "velocity": 110}, {"time": 156832, "pitch": 57, "duration": 120, "velocity": 100}, {"time": 156832, "pitch": 62, "duration": 130, "velocity": 105}, {"time": 156842, "pitch": 45, "duration": 100, "velocity": 110}, {"time": 156842, "pitch": 50, "duration": 110, "velocity": 95}, {"time": 156942, "pitch": 45, "duration": 240, "velocity": 120}, {"time": 156952, "pitch": 50, "duration": 240, "velocity": 105}, {"time": 156952, "pitch": 57, "duration": 240, "velocity": 110}, {"time": 156962, "pitch": 62, "duration": 240, "velocity": 115}, {"time": 156962, "pitch": 66, "duration": 240, "velocity": 120}, {"time": 157182, "pitch": 45, "duration": 140, "velocity": 120}, {"time": 157192, "pitch": 50, "duration": 130, "velocity": 105}, {"time": 157192, "pitch": 57, "duration": 120, "velocity": 110}, {"time": 157202, "pitch": 62, "duration": 110, "velocity": 115}, {"time": 157202, "pitch": 66, "duration": 100, "velocity": 120}, {"time": 157302, "pitch": 66, "duration": 140, "velocity": 110}, {"time": 157312, "pitch": 57, "duration": 120, "velocity": 100}, {"time": 157312, "pitch": 62, "duration": 130, "velocity": 105}, {"time": 157322, "pitch": 45, "duration": 100, "velocity": 110}, {"time": 157322, "pitch": 50, "duration": 110, "velocity": 95}, {"time": 157422, "pitch": 45, "duration": 239, "velocity": 120}, {"time": 157432, "pitch": 50, "duration": 239, "velocity": 105}, {"time": 157432, "pitch": 57, "duration": 239, "velocity": 110}, {"time": 157442, "pitch": 62, "duration": 239, "velocity": 115}, {"time": 157442, "pitch": 67, "duration": 239, "velocity": 120}, {"time": 157661, "pitch": 45, "duration": 140, "velocity": 120}, {"time": 157671, "pitch": 50, "duration": 130, "velocity": 105}, {"time": 157671, "pitch": 57, "duration": 120, "velocity": 110}, {"time": 157681, "pitch": 62, "duration": 110, "velocity": 115}, {"time": 157681, "pitch": 66, "duration": 100, "velocity": 120}, {"time": 157781, "pitch": 66, "duration": 140, "velocity": 110}, {"time": 157791, "pitch": 57, "duration": 120, "velocity": 100}, {"time": 157791, "pitch": 62, "duration": 130, "velocity": 105}, {"time": 157801, "pitch": 45, "duration": 100, "velocity": 110}, {"time": 157801, "pitch": 50, "duration": 110, "velocity": 95}, {"time": 157901, "pitch": 45, "duration": 240, "velocity": 120}, {"time": 157911, "pitch": 50, "duration": 240, "velocity": 105}, {"time": 157911, "pitch": 57, "duration": 240, "velocity": 110}, {"time": 157921, "pitch": 62, "duration": 240, "velocity": 115}, {"time": 157921, "pitch": 66, "duration": 240, "velocity": 120}, {"time": 158141, "pitch": 45, "duration": 140, "velocity": 120}, {"time": 158151, "pitch": 50, "duration": 130, "velocity": 105}, {"time": 158151, "pitch": 57, "duration": 120, "velocity": 110}, {"time": 158161, "pitch": 62, "duration": 110, "velocity": 115}, {"time": 158161, "pitch": 66, "duration": 100, "velocity": 120}, {"time": 158261, "pitch": 66, "duration": 140, "velocity": 110}, {"time": 158271, "pitch": 57, "duration": 120, "velocity": 100}, {"time": 158271, "pitch": 62, "duration": 130, "velocity": 105}, {"time": 158281, "pitch": 45, "duration": 100, "velocity": 110}, {"time": 158281, "pitch": 50, "duration": 110, "velocity": 95}, {"time": 158381, "pitch": 48, "duration": 240, "velocity": 120}, {"time": 158391, "pitch": 52, "duration": 240, "velocity": 105}, {"time": 158391, "pitch": 55, "duration": 240, "velocity": 110}, {"time": 158401, "pitch": 60, "duration": 240, "velocity": 115}, {"time": 158401, "pitch": 64, "duration": 240, "velocity": 120}, {"time": 158621, "pitch": 48, "duration": 140, "velocity": 120}, {"time": 158631, "pitch": 52, "duration": 130, "velocity": 105}, {"time": 158631, "pitch": 55, "duration": 120, "velocity": 110}, {"time": 158641, "pitch": 60, "duration": 110, "velocity": 115}, {"time": 158641, "pitch": 64, "duration": 100, "velocity": 120}, {"time": 158741, "pitch": 64, "duration": 140, "velocity": 110}, {"time": 158751, "pitch": 55, "duration": 120, "velocity": 100}, {"time": 158751, "pitch": 60, "duration": 130, "velocity": 105}, {"time": 158761, "pitch": 48, "duration": 100, "velocity": 110}, {"time": 158761, "pitch": 52, "duration": 110, "velocity": 95}, {"time": 158861, "pitch": 48, "duration": 239, "velocity": 120}, {"time": 158871, "pitch": 52, "duration": 239, "velocity": 105}, {"time": 158871, "pitch": 55, "duration": 239, "velocity": 110}, {"time": 158881, "pitch": 60, "duration": 239, "velocity": 115}, {"time": 158881, "pitch": 64, "duration": 239, "velocity": 120}, {"time": 159100, "pitch": 47, "duration": 140, "velocity": 120}, {"time": 159110, "pitch": 52, "duration": 130, "velocity": 105}, {"time": 159110, "pitch": 55, "duration": 120, "velocity": 110}, {"time": 159120, "pitch": 59, "duration": 110, "velocity": 115}, {"time": 159120, "pitch": 64, "duration": 100, "velocity": 120}, {"time": 159220, "pitch": 64, "duration": 140, "velocity": 110}, {"time": 159230, "pitch": 55, "duration": 120, "velocity": 100}, {"time": 159230, "pitch": 59, "duration": 130, "velocity": 105}, {"time": 159240, "pitch": 47, "duration": 100, "velocity": 110}, {"time": 159240, "pitch": 52, "duration": 110, "velocity": 95}, {"time": 159340, "pitch": 45, "duration": 243, "velocity": 120}, {"time": 159350, "pitch": 52, "duration": 243, "velocity": 105}, {"time": 159350, "pitch": 55, "duration": 243, "velocity": 110}, {"time": 159360, "pitch": 60, "duration": 243, "velocity": 115}, {"time": 159360, "pitch": 64, "duration": 243, "velocity": 120}, {"time": 159583, "pitch": 45, "duration": 142, "velocity": 120}, {"time": 159593, "pitch": 52, "duration": 132, "velocity": 105}, {"time": 159593, "pitch": 55, "duration": 121, "velocity": 110}, {"time": 159603, "pitch": 60, "duration": 111, "velocity": 115}, {"time": 159603, "pitch": 64, "duration": 101, "velocity": 120}, {"time": 159704, "pitch": 64, "duration": 142, "velocity": 110}, {"time": 159714, "pitch": 55, "duration": 122, "velocity": 100}, {"time": 159714, "pitch": 60, "duration": 132, "velocity": 105}, {"time": 159725, "pitch": 45, "duration": 101, "velocity": 110}, {"time": 159725, "pitch": 52, "duration": 111, "velocity": 95}, {"time": 159826, "pitch": 45, "duration": 240, "velocity": 120}, {"time": 159836, "pitch": 52, "duration": 240, "velocity": 105}, {"time": 159836, "pitch": 55, "duration": 240, "velocity": 110}, {"time": 159846, "pitch": 60, "duration": 240, "velocity": 115}, {"time": 159846, "pitch": 64, "duration": 240, "velocity": 120}, {"time": 160066, "pitch": 45, "duration": 140, "velocity": 120}, {"time": 160076, "pitch": 52, "duration": 130, "velocity": 105}, {"time": 160076, "pitch": 55, "duration": 120, "velocity": 110}, {"time": 160086, "pitch": 60, "duration": 110, "velocity": 115}, {"time": 160086, "pitch": 64, "duration": 100, "velocity": 120}, {"time": 160186, "pitch": 64, "duration": 140, "velocity": 110}, {"time": 160196, "pitch": 55, "duration": 120, "velocity": 100}, {"time": 160196, "pitch": 60, "duration": 130, "velocity": 105}, {"time": 160206, "pitch": 45, "duration": 100, "velocity": 110}, {"time": 160206, "pitch": 52, "duration": 110, "velocity": 95}, {"time": 160306, "pitch": 45, "duration": 239, "velocity": 120}, {"time": 160316, "pitch": 50, "duration": 239, "velocity": 105}, {"time": 160316, "pitch": 57, "duration": 239, "velocity": 110}, {"time": 160326, "pitch": 62, "duration": 239, "velocity": 115}, {"time": 160326, "pitch": 66, "duration": 239, "velocity": 120}, {"time": 160545, "pitch": 45, "duration": 140, "velocity": 120}, {"time": 160555, "pitch": 50, "duration": 130, "velocity": 105}, {"time": 160555, "pitch": 57, "duration": 120, "velocity": 110}, {"time": 160565, "pitch": 62, "duration": 110, "velocity": 115}, {"time": 160565, "pitch": 66, "duration": 100, "velocity": 120}, {"time": 160665, "pitch": 66, "duration": 140, "velocity": 110}, {"time": 160675, "pitch": 57, "duration": 120, "velocity": 100}, {"time": 160675, "pitch": 62, "duration": 130, "velocity": 105}, {"time": 160685, "pitch": 45, "duration": 100, "velocity": 110}, {"time": 160685, "pitch": 50, "duration": 110, "velocity": 95}, {"time": 160785, "pitch": 45, "duration": 240, "velocity": 120}, {"time": 160795, "pitch": 50, "duration": 240, "velocity": 105}, {"time": 160795, "pitch": 57, "duration": 240, "velocity": 110}, {"time": 160805, "pitch": 62, "duration": 240, "velocity": 115}, {"time": 160805, "pitch": 66, "duration": 240, "velocity": 120}, {"time": 161025, "pitch": 45, "duration": 140, "velocity": 120}, {"time": 161035, "pitch": 50, "duration": 130, "velocity": 105}, {"time": 161035, "pitch": 57, "duration": 120, "velocity": 110}, {"time": 161045, "pitch": 62, "duration": 110, "velocity": 115}, {"time": 161045, "pitch": 66, "duration": 100, "velocity": 120}, {"time": 161145, "pitch": 66, "duration": 140, "velocity": 110}, {"time": 161155, "pitch": 57, "duration": 120, "velocity": 100}, {"time": 161155, "pitch": 62, "duration": 130, "velocity": 105}, {"time": 161165, "pitch": 45, "duration": 100, "velocity": 110}, {"time": 161165, "pitch": 50, "duration": 110, "velocity": 95}, {"time": 161265, "pitch": 45, "duration": 240, "velocity": 120}, {"time": 161275, "pitch": 50, "duration": 240, "velocity": 105}, {"time": 161275, "pitch": 57, "duration": 240, "velocity": 110}, {"time": 161285, "pitch": 62, "duration": 240, "velocity": 115}, {"time": 161285, "pitch": 67, "duration": 240, "velocity": 120}, {"time": 161505, "pitch": 45, "duration": 140, "velocity": 120}, {"time": 161515, "pitch": 50, "duration": 130, "velocity": 105}, {"time": 161515, "pitch": 57, "duration": 120, "velocity": 110}, {"time": 161525, "pitch": 62, "duration": 110, "velocity": 115}, {"time": 161525, "pitch": 66, "duration": 100, "velocity": 120}, {"time": 161625, "pitch": 66, "duration": 140, "velocity": 110}, {"time": 161635, "pitch": 57, "duration": 120, "velocity": 100}, {"time": 161635, "pitch": 62, "duration": 130, "velocity": 105}, {"time": 161645, "pitch": 45, "duration": 100, "velocity": 110}, {"time": 161645, "pitch": 50, "duration": 110, "velocity": 95}, {"time": 161745, "pitch": 45, "duration": 239, "velocity": 120}, {"time": 161755, "pitch": 50, "duration": 239, "velocity": 105}, {"time": 161755, "pitch": 57, "duration": 239, "velocity": 110}, {"time": 161765, "pitch": 62, "duration": 239, "velocity": 115}, {"time": 161765, "pitch": 66, "duration": 239, "velocity": 120}, {"time": 161984, "pitch": 45, "duration": 140, "velocity": 120}, {"time": 161994, "pitch": 50, "duration": 130, "velocity": 105}, {"time": 161994, "pitch": 57, "duration": 120, "velocity": 110}, {"time": 162004, "pitch": 62, "duration": 110, "velocity": 115}, {"time": 162004, "pitch": 66, "duration": 100, "velocity": 120}, {"time": 162104, "pitch": 66, "duration": 140, "velocity": 110}, {"time": 162114, "pitch": 57, "duration": 120, "velocity": 100}, {"time": 162114, "pitch": 62, "duration": 130, "velocity": 105}, {"time": 162124, "pitch": 45, "duration": 100, "velocity": 110}, {"time": 162124, "pitch": 50, "duration": 110, "velocity": 95}, {"time": 162224, "pitch": 48, "duration": 240, "velocity": 120}, {"time": 162234, "pitch": 52, "duration": 240, "velocity": 105}, {"time": 162234, "pitch": 55, "duration": 240, "velocity": 110}, {"time": 162244, "pitch": 60, "duration": 240, "velocity": 115}, {"time": 162244, "pitch": 64, "duration": 240, "velocity": 120}, {"time": 162464, "pitch": 48, "duration": 140, "velocity": 120}, {"time": 162474, "pitch": 52, "duration": 130, "velocity": 105}, {"time": 162474, "pitch": 55, "duration": 120, "velocity": 110}, {"time": 162484, "pitch": 60, "duration": 110, "velocity": 115}, {"time": 162484, "pitch": 64, "duration": 100, "velocity": 120}, {"time": 162584, "pitch": 64, "duration": 140, "velocity": 110}, {"time": 162594, "pitch": 55, "duration": 120, "velocity": 100}, {"time": 162594, "pitch": 60, "duration": 130, "velocity": 105}, {"time": 162604, "pitch": 48, "duration": 100, "velocity": 110}, {"time": 162604, "pitch": 52, "duration": 110, "velocity": 95}, {"time": 162704, "pitch": 48, "duration": 240, "velocity": 120}, {"time": 162714, "pitch": 52, "duration": 240, "velocity": 105}, {"time": 162714, "pitch": 55, "duration": 240, "velocity": 110}, {"time": 162724, "pitch": 60, "duration": 240, "velocity": 115}, {"time": 162724, "pitch": 64, "duration": 240, "velocity": 120}, {"time": 162944, "pitch": 47, "duration": 140, "velocity": 120}, {"time": 162954, "pitch": 52, "duration": 130, "velocity": 105}, {"time": 162954, "pitch": 55, "duration": 120, "velocity": 110}, {"time": 162964, "pitch": 59, "duration": 110, "velocity": 115}, {"time": 162964, "pitch": 64, "duration": 100, "velocity": 120}, {"time": 163064, "pitch": 64, "duration": 139, "velocity": 110}, {"time": 163074, "pitch": 55, "duration": 120, "velocity": 100}, {"time": 163074, "pitch": 59, "duration": 129, "velocity": 105}, {"time": 163084, "pitch": 47, "duration": 100, "velocity": 110}, {"time": 163084, "pitch": 52, "duration": 110, "velocity": 95}, {"time": 163184, "pitch": 45, "duration": 239, "velocity": 120}, {"time": 163194, "pitch": 52, "duration": 239, "velocity": 105}, {"time": 163194, "pitch": 55, "duration": 239, "velocity": 110}, {"time": 163203, "pitch": 60, "duration": 240, "velocity": 115}, {"time": 163203, "pitch": 64, "duration": 240, "velocity": 120}, {"time": 163423, "pitch": 45, "duration": 140, "velocity": 120}, {"time": 163433, "pitch": 52, "duration": 130, "velocity": 105}, {"time": 163433, "pitch": 55, "duration": 120, "velocity": 110}, {"time": 163443, "pitch": 60, "duration": 110, "velocity": 115}, {"time": 163443, "pitch": 64, "duration": 100, "velocity": 120}, {"time": 163543, "pitch": 64, "duration": 140, "velocity": 110}, {"time": 163553, "pitch": 55, "duration": 120, "velocity": 100}, {"time": 163553, "pitch": 60, "duration": 130, "velocity": 105}, {"time": 163563, "pitch": 45, "duration": 100, "velocity": 110}, {"time": 163563, "pitch": 52, "duration": 110, "velocity": 95}, {"time": 163663, "pitch": 45, "duration": 240, "velocity": 120}, {"time": 163673, "pitch": 52, "duration": 240, "velocity": 105}, {"time": 163673, "pitch": 55, "duration": 240, "velocity": 110}, {"time": 163683, "pitch": 60, "duration": 240, "velocity": 115}, {"time": 163683, "pitch": 64, "duration": 240, "velocity": 120}, {"time": 163903, "pitch": 45, "duration": 140, "velocity": 120}, {"time": 163913, "pitch": 52, "duration": 130, "velocity": 105}, {"time": 163913, "pitch": 55, "duration": 120, "velocity": 110}, {"time": 163923, "pitch": 60, "duration": 110, "velocity": 115}, {"time": 163923, "pitch": 64, "duration": 100, "velocity": 120}, {"time": 164023, "pitch": 64, "duration": 140, "velocity": 110}, {"time": 164033, "pitch": 55, "duration": 120, "velocity": 100}, {"time": 164033, "pitch": 60, "duration": 130, "velocity": 105}, {"time": 164043, "pitch": 45, "duration": 100, "velocity": 110}, {"time": 164043, "pitch": 52, "duration": 110, "velocity": 95}, {"time": 164143, "pitch": 45, "duration": 240, "velocity": 120}, {"time": 164153, "pitch": 50, "duration": 240, "velocity": 105}, {"time": 164153, "pitch": 57, "duration": 240, "velocity": 110}, {"time": 164163, "pitch": 62, "duration": 240, "velocity": 115}, {"time": 164163, "pitch": 66, "duration": 240, "velocity": 120}, {"time": 164383, "pitch": 45, "duration": 140, "velocity": 120}, {"time": 164393, "pitch": 50, "duration": 130, "velocity": 105}, {"time": 164393, "pitch": 57, "duration": 120, "velocity": 110}, {"time": 164403, "pitch": 62, "duration": 110, "velocity": 115}, {"time": 164403, "pitch": 66, "duration": 100, "velocity": 120}, {"time": 164503, "pitch": 66, "duration": 139, "velocity": 110}, {"time": 164513, "pitch": 57, "duration": 119, "velocity": 100}, {"time": 164513, "pitch": 62, "duration": 129, "velocity": 105}, {"time": 164523, "pitch": 45, "duration": 99, "velocity": 110}, {"time": 164523, "pitch": 50, "duration": 109, "velocity": 95}, {"time": 164622, "pitch": 45, "duration": 240, "velocity": 120}, {"time": 164632, "pitch": 50, "duration": 240, "velocity": 105}, {"time": 164632, "pitch": 57, "duration": 240, "velocity": 110}, {"time": 164642, "pitch": 62, "duration": 240, "velocity": 115}, {"time": 164642, "pitch": 66, "duration": 240, "velocity": 120}, {"time": 164862, "pitch": 45, "duration": 140, "velocity": 120}, {"time": 164872, "pitch": 50, "duration": 130, "velocity": 105}, {"time": 164872, "pitch": 57, "duration": 120, "velocity": 110}, {"time": 164882, "pitch": 62, "duration": 110, "velocity": 115}, {"time": 164882, "pitch": 66, "duration": 100, "velocity": 120}, {"time": 164982, "pitch": 66, "duration": 140, "velocity": 110}, {"time": 164992, "pitch": 57, "duration": 120, "velocity": 100}, {"time": 164992, "pitch": 62, "duration": 130, "velocity": 105}, {"time": 165002, "pitch": 45, "duration": 100, "velocity": 110}, {"time": 165002, "pitch": 50, "duration": 110, "velocity": 95}, {"time": 165102, "pitch": 45, "duration": 240, "velocity": 120}, {"time": 165112, "pitch": 50, "duration": 240, "velocity": 105}, {"time": 165112, "pitch": 57, "duration": 240, "velocity": 110}, {"time": 165122, "pitch": 62, "duration": 240, "velocity": 115}, {"time": 165122, "pitch": 67, "duration": 240, "velocity": 120}, {"time": 165342, "pitch": 45, "duration": 140, "velocity": 120}, {"time": 165352, "pitch": 50, "duration": 130, "velocity": 105}, {"time": 165352, "pitch": 57, "duration": 120, "velocity": 110}, {"time": 165362, "pitch": 62, "duration": 110, "velocity": 115}, {"time": 165362, "pitch": 66, "duration": 100, "velocity": 120}, {"time": 165462, "pitch": 66, "duration": 140, "velocity": 110}, {"time": 165472, "pitch": 57, "duration": 120, "velocity": 100}, {"time": 165472, "pitch": 62, "duration": 130, "velocity": 105}, {"time": 165482, "pitch": 45, "duration": 100, "velocity": 110}, {"time": 165482, "pitch": 50, "duration": 110, "velocity": 95}, {"time": 165582, "pitch": 45, "duration": 240, "velocity": 120}, {"time": 165592, "pitch": 50, "duration": 240, "velocity": 105}, {"time": 165592, "pitch": 57, "duration": 240, "velocity": 110}, {"time": 165602, "pitch": 62, "duration": 240, "velocity": 115}, {"time": 165602, "pitch": 66, "duration": 240, "velocity": 120}, {"time": 165822, "pitch": 45, "duration": 139, "velocity": 120}, {"time": 165832, "pitch": 50, "duration": 129, "velocity": 105}, {"time": 165832, "pitch": 57, "duration": 119, "velocity": 110}, {"time": 165842, "pitch": 62, "duration": 109, "velocity": 115}, {"time": 165842, "pitch": 66, "duration": 99, "velocity": 120}, {"time": 165941, "pitch": 66, "duration": 140, "velocity": 110}, {"time": 165951, "pitch": 57, "duration": 120, "velocity": 100}, {"time": 165951, "pitch": 62, "duration": 130, "velocity": 105}, {"time": 165961, "pitch": 45, "duration": 100, "velocity": 110}, {"time": 165961, "pitch": 50, "duration": 110, "velocity": 95}, {"time": 166061, "pitch": 48, "duration": 240, "velocity": 120}, {"time": 166071, "pitch": 52, "duration": 240, "velocity": 105}, {"time": 166071, "pitch": 55, "duration": 240, "velocity": 110}, {"time": 166081, "pitch": 60, "duration": 240, "velocity": 115}, {"time": 166081, "pitch": 64, "duration": 240, "velocity": 120}, {"time": 166301, "pitch": 48, "duration": 140, "velocity": 120}, {"time": 166311, "pitch": 52, "duration": 130, "velocity": 105}, {"time": 166311, "pitch": 55, "duration": 120, "velocity": 110}, {"time": 166321, "pitch": 60, "duration": 110, "velocity": 115}, {"time": 166321, "pitch": 64, "duration": 100, "velocity": 120}, {"time": 166421, "pitch": 64, "duration": 140, "velocity": 110}, {"time": 166431, "pitch": 55, "duration": 120, "velocity": 100}, {"time": 166431, "pitch": 60, "duration": 130, "velocity": 105}, {"time": 166441, "pitch": 48, "duration": 100, "velocity": 110}, {"time": 166441, "pitch": 52, "duration": 110, "velocity": 95}, {"time": 166541, "pitch": 48, "duration": 240, "velocity": 120}, {"time": 166551, "pitch": 52, "duration": 240, "velocity": 105}, {"time": 166551, "pitch": 55, "duration": 240, "velocity": 110}, {"time": 166561, "pitch": 60, "duration": 240, "velocity": 115}, {"time": 166561, "pitch": 64, "duration": 240, "velocity": 120}, {"time": 166781, "pitch": 47, "duration": 140, "velocity": 120}, {"time": 166791, "pitch": 52, "duration": 130, "velocity": 105}, {"time": 166791, "pitch": 55, "duration": 120, "velocity": 110}, {"time": 166801, "pitch": 59, "duration": 110, "velocity": 115}, {"time": 166801, "pitch": 64, "duration": 100, "velocity": 120}, {"time": 166901, "pitch": 64, "duration": 140, "velocity": 110}, {"time": 166911, "pitch": 55, "duration": 120, "velocity": 100}, {"time": 166911, "pitch": 59, "duration": 130, "velocity": 105}, {"time": 166921, "pitch": 47, "duration": 100, "velocity": 110}, {"time": 166921, "pitch": 52, "duration": 110, "velocity": 95}, {"time": 167021, "pitch": 45, "duration": 240, "velocity": 120}, {"time": 167031, "pitch": 52, "duration": 240, "velocity": 105}, {"time": 167031, "pitch": 55, "duration": 240, "velocity": 110}, {"time": 167041, "pitch": 60, "duration": 240, "velocity": 115}, {"time": 167041, "pitch": 64, "duration": 240, "velocity": 120}, {"time": 167261, "pitch": 45, "duration": 139, "velocity": 120}, {"time": 167271, "pitch": 52, "duration": 129, "velocity": 105}, {"time": 167271, "pitch": 55, "duration": 119, "velocity": 110}, {"time": 167281, "pitch": 60, "duration": 109, "velocity": 115}, {"time": 167281, "pitch": 64, "duration": 99, "velocity": 120}, {"time": 167380, "pitch": 64, "duration": 140, "velocity": 110}, {"time": 167390, "pitch": 55, "duration": 120, "velocity": 100}, {"time": 167390, "pitch": 60, "duration": 130, "velocity": 105}, {"time": 167400, "pitch": 45, "duration": 100, "velocity": 110}, {"time": 167400, "pitch": 52, "duration": 110, "velocity": 95}, {"time": 167500, "pitch": 45, "duration": 240, "velocity": 120}, {"time": 167510, "pitch": 52, "duration": 240, "velocity": 105}, {"time": 167510, "pitch": 55, "duration": 240, "velocity": 110}, {"time": 167520, "pitch": 60, "duration": 240, "velocity": 115}, {"time": 167520, "pitch": 64, "duration": 240, "velocity": 120}, {"time": 167740, "pitch": 45, "duration": 140, "velocity": 120}, {"time": 167750, "pitch": 52, "duration": 130, "velocity": 105}, {"time": 167750, "pitch": 55, "duration": 120, "velocity": 110}, {"time": 167760, "pitch": 60, "duration": 110, "velocity": 115}, {"time": 167760, "pitch": 64, "duration": 100, "velocity": 120}, {"time": 167860, "pitch": 64, "duration": 140, "velocity": 110}, {"time": 167870, "pitch": 55, "duration": 120, "velocity": 100}, {"time": 167870, "pitch": 60, "duration": 130, "velocity": 105}, {"time": 167880, "pitch": 45, "duration": 100, "velocity": 110}, {"time": 167880, "pitch": 52, "duration": 110, "velocity": 95}, {"time": 167980, "pitch": 45, "duration": 243, "velocity": 120}, {"time": 167990, "pitch": 50, "duration": 243, "velocity": 105}, {"time": 167990, "pitch": 57, "duration": 243, "velocity": 110}, {"time": 168000, "pitch": 62, "duration": 243, "velocity": 115}, {"time": 168000, "pitch": 66, "duration": 243, "velocity": 120}, {"time": 168223, "pitch": 45, "duration": 141, "velocity": 120}, {"time": 168233, "pitch": 50, "duration": 131, "velocity": 105}, {"time": 168233, "pitch": 57, "duration": 121, "velocity": 110}, {"time": 168243, "pitch": 62, "duration": 111, "velocity": 115}, {"time": 168243, "pitch": 66, "duration": 101, "velocity": 120}, {"time": 168344, "pitch": 66, "duration": 142, "velocity": 110}, {"time": 168354, "pitch": 57, "duration": 122, "velocity": 100}, {"time": 168354, "pitch": 62, "duration": 132, "velocity": 105}, {"time": 168364, "pitch": 45, "duration": 102, "velocity": 110}, {"time": 168364, "pitch": 50, "duration": 112, "velocity": 95}, {"time": 168466, "pitch": 45, "duration": 240, "velocity": 120}, {"time": 168476, "pitch": 50, "duration": 240, "velocity": 105}, {"time": 168476, "pitch": 57, "duration": 240, "velocity": 110}, {"time": 168486, "pitch": 62, "duration": 240, "velocity": 115}, {"time": 168486, "pitch": 66, "duration": 240, "velocity": 120}, {"time": 168706, "pitch": 45, "duration": 139, "velocity": 120}, {"time": 168716, "pitch": 50, "duration": 129, "velocity": 105}, {"time": 168716, "pitch": 57, "duration": 119, "velocity": 110}, {"time": 168726, "pitch": 62, "duration": 109, "velocity": 115}, {"time": 168726, "pitch": 66, "duration": 99, "velocity": 120}, {"time": 168825, "pitch": 66, "duration": 140, "velocity": 110}, {"time": 168835, "pitch": 57, "duration": 120, "velocity": 100}, {"time": 168835, "pitch": 62, "duration": 130, "velocity": 105}, {"time": 168845, "pitch": 45, "duration": 100, "velocity": 110}, {"time": 168845, "pitch": 50, "duration": 110, "velocity": 95}, {"time": 168945, "pitch": 45, "duration": 240, "velocity": 120}, {"time": 168955, "pitch": 50, "duration": 240, "velocity": 105}, {"time": 168955, "pitch": 57, "duration": 240, "velocity": 110}, {"time": 168965, "pitch": 62, "duration": 240, "velocity": 115}, {"time": 168965, "pitch": 67, "duration": 240, "velocity": 120}, {"time": 169185, "pitch": 45, "duration": 140, "velocity": 120}, {"time": 169195, "pitch": 50, "duration": 130, "velocity": 105}, {"time": 169195, "pitch": 57, "duration": 120, "velocity": 110}, {"time": 169205, "pitch": 62, "duration": 110, "velocity": 115}, {"time": 169205, "pitch": 66, "duration": 100, "velocity": 120}, {"time": 169305, "pitch": 66, "duration": 140, "velocity": 110}, {"time": 169315, "pitch": 57, "duration": 120, "velocity": 100}, {"time": 169315, "pitch": 62, "duration": 130, "velocity": 105}, {"time": 169325, "pitch": 45, "duration": 100, "velocity": 110}, {"time": 169325, "pitch": 50, "duration": 110, "velocity": 95}, {"time": 169425, "pitch": 45, "duration": 240, "velocity": 120}, {"time": 169435, "pitch": 50, "duration": 240, "velocity": 105}, {"time": 169435, "pitch": 57, "duration": 240, "velocity": 110}, {"time": 169445, "pitch": 62, "duration": 240, "velocity": 115}, {"time": 169445, "pitch": 66, "duration": 240, "velocity": 120}, {"time": 169665, "pitch": 45, "duration": 140, "velocity": 120}, {"time": 169675, "pitch": 50, "duration": 130, "velocity": 105}, {"time": 169675, "pitch": 57, "duration": 120, "velocity": 110}, {"time": 169685, "pitch": 62, "duration": 110, "velocity": 115}, {"time": 169685, "pitch": 66, "duration": 100, "velocity": 120}, {"time": 169785, "pitch": 66, "duration": 140, "velocity": 110}, {"time": 169795, "pitch": 57, "duration": 120, "velocity": 100}, {"time": 169795, "pitch": 62, "duration": 130, "velocity": 105}, {"time": 169805, "pitch": 45, "duration": 100, "velocity": 110}, {"time": 169805, "pitch": 50, "duration": 110, "velocity": 95}, {"time": 169905, "pitch": 48, "duration": 239, "velocity": 120}, {"time": 169915, "pitch": 52, "duration": 239, "velocity": 105}, {"time": 169915, "pitch": 55, "duration": 239, "velocity": 110}, {"time": 169925, "pitch": 60, "duration": 239, "velocity": 115}, {"time": 169925, "pitch": 64, "duration": 239, "velocity": 120}, {"time": 170144, "pitch": 48, "duration": 140, "velocity": 120}, {"time": 170154, "pitch": 52, "duration": 130, "velocity": 105}, {"time": 170154, "pitch": 55, "duration": 120, "velocity": 110}, {"time": 170164, "pitch": 60, "duration": 110, "velocity": 115}, {"time": 170164, "pitch": 64, "duration": 100, "velocity": 120}, {"time": 170264, "pitch": 64, "duration": 140, "velocity": 110}, {"time": 170274, "pitch": 55, "duration": 120, "velocity": 100}, {"time": 170274, "pitch": 60, "duration": 130, "velocity": 105}, {"time": 170284, "pitch": 48, "duration": 100, "velocity": 110}, {"time": 170284, "pitch": 52, "duration": 110, "velocity": 95}, {"time": 170384, "pitch": 48, "duration": 240, "velocity": 120}, {"time": 170394, "pitch": 52, "duration": 240, "velocity": 105}, {"time": 170394, "pitch": 55, "duration": 240, "velocity": 110}, {"time": 170404, "pitch": 60, "duration": 240, "velocity": 115}, {"time": 170404, "pitch": 64, "duration": 240, "velocity": 120}, {"time": 170624, "pitch": 47, "duration": 140, "velocity": 120}, {"time": 170634, "pitch": 52, "duration": 130, "velocity": 105}, {"time": 170634, "pitch": 55, "duration": 120, "velocity": 110}, {"time": 170644, "pitch": 59, "duration": 110, "velocity": 115}, {"time": 170644, "pitch": 64, "duration": 100, "velocity": 120}, {"time": 170744, "pitch": 64, "duration": 140, "velocity": 110}, {"time": 170754, "pitch": 55, "duration": 120, "velocity": 100}, {"time": 170754, "pitch": 59, "duration": 130, "velocity": 105}, {"time": 170764, "pitch": 47, "duration": 100, "velocity": 110}, {"time": 170764, "pitch": 52, "duration": 110, "velocity": 95}, {"time": 170864, "pitch": 45, "duration": 240, "velocity": 120}, {"time": 170874, "pitch": 52, "duration": 240, "velocity": 105}, {"time": 170874, "pitch": 55, "duration": 240, "velocity": 110}, {"time": 170884, "pitch": 60, "duration": 240, "velocity": 115}, {"time": 170884, "pitch": 64, "duration": 240, "velocity": 120}, {"time": 171104, "pitch": 45, "duration": 140, "velocity": 120}, {"time": 171114, "pitch": 52, "duration": 130, "velocity": 105}, {"time": 171114, "pitch": 55, "duration": 120, "velocity": 110}, {"time": 171124, "pitch": 60, "duration": 110, "velocity": 115}, {"time": 171124, "pitch": 64, "duration": 100, "velocity": 120}, {"time": 171224, "pitch": 64, "duration": 140, "velocity": 110}, {"time": 171234, "pitch": 55, "duration": 120, "velocity": 100}, {"time": 171234, "pitch": 60, "duration": 130, "velocity": 105}, {"time": 171244, "pitch": 45, "duration": 100, "velocity": 110}, {"time": 171244, "pitch": 52, "duration": 110, "velocity": 95}, {"time": 171344, "pitch": 45, "duration": 239, "velocity": 120}, {"time": 171354, "pitch": 52, "duration": 239, "velocity": 105}, {"time": 171354, "pitch": 55, "duration": 239, "velocity": 110}, {"time": 171364, "pitch": 60, "duration": 239, "velocity": 115}, {"time": 171364, "pitch": 64, "duration": 239, "velocity": 120}, {"time": 171583, "pitch": 45, "duration": 140, "velocity": 120}, {"time": 171593, "pitch": 52, "duration": 130, "velocity": 105}, {"time": 171593, "pitch": 55, "duration": 120, "velocity": 110}, {"time": 171603, "pitch": 60, "duration": 110, "velocity": 115}, {"time": 171603, "pitch": 64, "duration": 100, "velocity": 120}, {"time": 171703, "pitch": 64, "duration": 140, "velocity": 110}, {"time": 171713, "pitch": 55, "duration": 120, "velocity": 100}, {"time": 171713, "pitch": 60, "duration": 130, "velocity": 105}, {"time": 171723, "pitch": 45, "duration": 100, "velocity": 110}, {"time": 171723, "pitch": 52, "duration": 110, "velocity": 95}, {"time": 171823, "pitch": 45, "duration": 240, "velocity": 120}, {"time": 171833, "pitch": 50, "duration": 240, "velocity": 105}, {"time": 171833, "pitch": 57, "duration": 240, "velocity": 110}, {"time": 171843, "pitch": 62, "duration": 240, "velocity": 115}, {"time": 171843, "pitch": 66, "duration": 240, "velocity": 120}, {"time": 172063, "pitch": 45, "duration": 140, "velocity": 120}, {"time": 172073, "pitch": 50, "duration": 130, "velocity": 105}, {"time": 172073, "pitch": 57, "duration": 120, "velocity": 110}, {"time": 172083, "pitch": 62, "duration": 110, "velocity": 115}, {"time": 172083, "pitch": 66, "duration": 100, "velocity": 120}, {"time": 172183, "pitch": 66, "duration": 140, "velocity": 110}, {"time": 172193, "pitch": 57, "duration": 120, "velocity": 100}, {"time": 172193, "pitch": 62, "duration": 130, "velocity": 105}, {"time": 172203, "pitch": 45, "duration": 100, "velocity": 110}, {"time": 172203, "pitch": 50, "duration": 110, "velocity": 95}, {"time": 172303, "pitch": 45, "duration": 240, "velocity": 120}, {"time": 172313, "pitch": 50, "duration": 240, "velocity": 105}, {"time": 172313, "pitch": 57, "duration": 240, "velocity": 110}, {"time": 172323, "pitch": 62, "duration": 240, "velocity": 115}, {"time": 172323, "pitch": 66, "duration": 240, "velocity": 120}, {"time": 172543, "pitch": 45, "duration": 140, "velocity": 120}, {"time": 172553, "pitch": 50, "duration": 130, "velocity": 105}, {"time": 172553, "pitch": 57, "duration": 120, "velocity": 110}, {"time": 172563, "pitch": 62, "duration": 110, "velocity": 115}, {"time": 172563, "pitch": 66, "duration": 100, "velocity": 120}, {"time": 172663, "pitch": 66, "duration": 140, "velocity": 110}, {"time": 172673, "pitch": 57, "duration": 120, "velocity": 100}, {"time": 172673, "pitch": 62, "duration": 130, "velocity": 105}, {"time": 172683, "pitch": 45, "duration": 100, "velocity": 110}, {"time": 172683, "pitch": 50, "duration": 110, "velocity": 95}, {"time": 172783, "pitch": 45, "duration": 239, "velocity": 120}, {"time": 172793, "pitch": 50, "duration": 239, "velocity": 105}, {"time": 172793, "pitch": 57, "duration": 239, "velocity": 110}, {"time": 172803, "pitch": 62, "duration": 239, "velocity": 115}, {"time": 172803, "pitch": 67, "duration": 239, "velocity": 120}, {"time": 173022, "pitch": 45, "duration": 140, "velocity": 120}, {"time": 173032, "pitch": 50, "duration": 130, "velocity": 105}, {"time": 173032, "pitch": 57, "duration": 120, "velocity": 110}, {"time": 173042, "pitch": 62, "duration": 110, "velocity": 115}, {"time": 173042, "pitch": 66, "duration": 100, "velocity": 120}, {"time": 173142, "pitch": 66, "duration": 140, "velocity": 110}, {"time": 173152, "pitch": 57, "duration": 120, "velocity": 100}, {"time": 173152, "pitch": 62, "duration": 130, "velocity": 105}, {"time": 173162, "pitch": 45, "duration": 100, "velocity": 110}, {"time": 173162, "pitch": 50, "duration": 110, "velocity": 95}, {"time": 173262, "pitch": 45, "duration": 240, "velocity": 120}, {"time": 173272, "pitch": 50, "duration": 240, "velocity": 105}, {"time": 173272, "pitch": 57, "duration": 240, "velocity": 110}, {"time": 173282, "pitch": 62, "duration": 240, "velocity": 115}, {"time": 173282, "pitch": 66, "duration": 240, "velocity": 120}, {"time": 173502, "pitch": 45, "duration": 140, "velocity": 120}, {"time": 173512, "pitch": 50, "duration": 130, "velocity": 105}, {"time": 173512, "pitch": 57, "duration": 120, "velocity": 110}, {"time": 173522, "pitch": 62, "duration": 110, "velocity": 115}, {"time": 173522, "pitch": 66, "duration": 100, "velocity": 120}, {"time": 173622, "pitch": 66, "duration": 140, "velocity": 110}, {"time": 173632, "pitch": 57, "duration": 120, "velocity": 100}, {"time": 173632, "pitch": 62, "duration": 130, "velocity": 105}, {"time": 173642, "pitch": 45, "duration": 100, "velocity": 110}, {"time": 173642, "pitch": 50, "duration": 110, "velocity": 95}, {"time": 173742, "pitch": 48, "duration": 240, "velocity": 120}, {"time": 173752, "pitch": 52, "duration": 240, "velocity": 105}, {"time": 173752, "pitch": 55, "duration": 240, "velocity": 110}, {"time": 173762, "pitch": 60, "duration": 240, "velocity": 115}, {"time": 173762, "pitch": 64, "duration": 240, "velocity": 120}, {"time": 173982, "pitch": 48, "duration": 140, "velocity": 120}, {"time": 173992, "pitch": 52, "duration": 130, "velocity": 105}, {"time": 173992, "pitch": 55, "duration": 120, "velocity": 110}, {"time": 174002, "pitch": 60, "duration": 110, "velocity": 115}, {"time": 174002, "pitch": 64, "duration": 100, "velocity": 120}, {"time": 174102, "pitch": 64, "duration": 139, "velocity": 110}, {"time": 174112, "pitch": 55, "duration": 119, "velocity": 100}, {"time": 174112, "pitch": 60, "duration": 129, "velocity": 105}, {"time": 174122, "pitch": 48, "duration": 99, "velocity": 110}, {"time": 174122, "pitch": 52, "duration": 109, "velocity": 95}, {"time": 174221, "pitch": 48, "duration": 240, "velocity": 120}, {"time": 174231, "pitch": 52, "duration": 240, "velocity": 105}, {"time": 174231, "pitch": 55, "duration": 240, "velocity": 110}, {"time": 174241, "pitch": 60, "duration": 240, "velocity": 115}, {"time": 174241, "pitch": 64, "duration": 240, "velocity": 120}, {"time": 174461, "pitch": 47, "duration": 140, "velocity": 120}, {"time": 174471, "pitch": 52, "duration": 130, "velocity": 105}, {"time": 174471, "pitch": 55, "duration": 120, "velocity": 110}, {"time": 174481, "pitch": 59, "duration": 110, "velocity": 115}, {"time": 174481, "pitch": 64, "duration": 100, "velocity": 120}, {"time": 174581, "pitch": 64, "duration": 140, "velocity": 110}, {"time": 174591, "pitch": 55, "duration": 120, "velocity": 100}, {"time": 174591, "pitch": 59, "duration": 130, "velocity": 105}, {"time": 174601, "pitch": 47, "duration": 100, "velocity": 110}, {"time": 174601, "pitch": 52, "duration": 110, "velocity": 95}, {"time": 174701, "pitch": 45, "duration": 240, "velocity": 120}, {"time": 174711, "pitch": 52, "duration": 240, "velocity": 105}, {"time": 174711, "pitch": 55, "duration": 240, "velocity": 110}, {"time": 174721, "pitch": 60, "duration": 240, "velocity": 115}, {"time": 174721, "pitch": 64, "duration": 240, "velocity": 120}, {"time": 174941, "pitch": 45, "duration": 140, "velocity": 120}, {"time": 174951, "pitch": 52, "duration": 130, "velocity": 105}, {"time": 174951, "pitch": 55, "duration": 120, "velocity": 110}, {"time": 174961, "pitch": 60, "duration": 110, "velocity": 115}, {"time": 174961, "pitch": 64, "duration": 100, "velocity": 120}, {"time": 175061, "pitch": 64, "duration": 140, "velocity": 110}, {"time": 175071, "pitch": 55, "duration": 120, "velocity": 100}, {"time": 175071, "pitch": 60, "duration": 130, "velocity": 105}, {"time": 175081, "pitch": 45, "duration": 100, "velocity": 110}, {"time": 175081, "pitch": 52, "duration": 110, "velocity": 95}, {"time": 175181, "pitch": 45, "duration": 240, "velocity": 120}, {"time": 175191, "pitch": 52, "duration": 240, "velocity": 105}, {"time": 175191, "pitch": 55, "duration": 240, "velocity": 110}, {"time": 175201, "pitch": 60, "duration": 240, "velocity": 115}, {"time": 175201, "pitch": 64, "duration": 240, "velocity": 120}, {"time": 175421, "pitch": 45, "duration": 140, "velocity": 120}, {"time": 175431, "pitch": 52, "duration": 130, "velocity": 105}, {"time": 175431, "pitch": 55, "duration": 120, "velocity": 110}, {"time": 175441, "pitch": 60, "duration": 110, "velocity": 115}, {"time": 175441, "pitch": 64, "duration": 100, "velocity": 120}, {"time": 175541, "pitch": 64, "duration": 139, "velocity": 110}, {"time": 175551, "pitch": 55, "duration": 119, "velocity": 100}, {"time": 175551, "pitch": 60, "duration": 129, "velocity": 105}, {"time": 175561, "pitch": 45, "duration": 99, "velocity": 110}, {"time": 175561, "pitch": 52, "duration": 109, "velocity": 95}, {"time": 175660, "pitch": 45, "duration": 240, "velocity": 120}, {"time": 175670, "pitch": 50, "duration": 240, "velocity": 105}, {"time": 175670, "pitch": 57, "duration": 240, "velocity": 110}, {"time": 175680, "pitch": 62, "duration": 240, "velocity": 115}, {"time": 175680, "pitch": 66, "duration": 240, "velocity": 120}, {"time": 175900, "pitch": 45, "duration": 140, "velocity": 120}, {"time": 175910, "pitch": 50, "duration": 130, "velocity": 105}, {"time": 175910, "pitch": 57, "duration": 120, "velocity": 110}, {"time": 175920, "pitch": 62, "duration": 110, "velocity": 115}, {"time": 175920, "pitch": 66, "duration": 100, "velocity": 120}, {"time": 176020, "pitch": 66, "duration": 140, "velocity": 110}, {"time": 176030, "pitch": 57, "duration": 120, "velocity": 100}, {"time": 176030, "pitch": 62, "duration": 130, "velocity": 105}, {"time": 176040, "pitch": 45, "duration": 100, "velocity": 110}, {"time": 176040, "pitch": 50, "duration": 110, "velocity": 95}, {"time": 176140, "pitch": 45, "duration": 243, "velocity": 120}, {"time": 176150, "pitch": 50, "duration": 243, "velocity": 105}, {"time": 176150, "pitch": 57, "duration": 243, "velocity": 110}, {"time": 176160, "pitch": 62, "duration": 243, "velocity": 115}, {"time": 176160, "pitch": 66, "duration": 243, "velocity": 120}, {"time": 176383, "pitch": 45, "duration": 141, "velocity": 120}, {"time": 176393, "pitch": 50, "duration": 131, "velocity": 105}, {"time": 176393, "pitch": 57, "duration": 121, "velocity": 110}, {"time": 176403, "pitch": 62, "duration": 111, "velocity": 115}, {"time": 176403, "pitch": 66, "duration": 101, "velocity": 120}, {"time": 176504, "pitch": 66, "duration": 142, "velocity": 110}, {"time": 176514, "pitch": 57, "duration": 122, "velocity": 100}, {"time": 176514, "pitch": 62, "duration": 132, "velocity": 105}, {"time": 176524, "pitch": 45, "duration": 102, "velocity": 110}, {"time": 176524, "pitch": 50, "duration": 112, "velocity": 95}, {"time": 176626, "pitch": 45, "duration": 240, "velocity": 120}, {"time": 176636, "pitch": 50, "duration": 240, "velocity": 105}, {"time": 176636, "pitch": 57, "duration": 240, "velocity": 110}, {"time": 176646, "pitch": 62, "duration": 240, "velocity": 115}, {"time": 176646, "pitch": 67, "duration": 240, "velocity": 120}, {"time": 176866, "pitch": 45, "duration": 140, "velocity": 120}, {"time": 176876, "pitch": 50, "duration": 130, "velocity": 105}, {"time": 176876, "pitch": 57, "duration": 120, "velocity": 110}, {"time": 176886, "pitch": 62, "duration": 110, "velocity": 115}, {"time": 176886, "pitch": 66, "duration": 100, "velocity": 120}, {"time": 176986, "pitch": 66, "duration": 139, "velocity": 110}, {"time": 176996, "pitch": 57, "duration": 119, "velocity": 100}, {"time": 176996, "pitch": 62, "duration": 129, "velocity": 105}, {"time": 177006, "pitch": 45, "duration": 99, "velocity": 110}, {"time": 177006, "pitch": 50, "duration": 109, "velocity": 95}, {"time": 177105, "pitch": 45, "duration": 240, "velocity": 120}, {"time": 177115, "pitch": 50, "duration": 240, "velocity": 105}, {"time": 177115, "pitch": 57, "duration": 240, "velocity": 110}, {"time": 177125, "pitch": 62, "duration": 240, "velocity": 115}, {"time": 177125, "pitch": 66, "duration": 240, "velocity": 120}, {"time": 177345, "pitch": 45, "duration": 140, "velocity": 120}, {"time": 177355, "pitch": 50, "duration": 130, "velocity": 105}, {"time": 177355, "pitch": 57, "duration": 120, "velocity": 110}, {"time": 177365, "pitch": 62, "duration": 110, "velocity": 115}, {"time": 177365, "pitch": 66, "duration": 100, "velocity": 120}, {"time": 177465, "pitch": 66, "duration": 140, "velocity": 110}, {"time": 177475, "pitch": 57, "duration": 120, "velocity": 100}, {"time": 177475, "pitch": 62, "duration": 130, "velocity": 105}, {"time": 177485, "pitch": 45, "duration": 100, "velocity": 110}, {"time": 177485, "pitch": 50, "duration": 110, "velocity": 95}, {"time": 177585, "pitch": 48, "duration": 240, "velocity": 120}, {"time": 177595, "pitch": 52, "duration": 240, "velocity": 105}, {"time": 177595, "pitch": 55, "duration": 240, "velocity": 110}, {"time": 177605, "pitch": 60, "duration": 240, "velocity": 115}, {"time": 177605, "pitch": 64, "duration": 240, "velocity": 120}, {"time": 177825, "pitch": 48, "duration": 140, "velocity": 120}, {"time": 177835, "pitch": 52, "duration": 130, "velocity": 105}, {"time": 177835, "pitch": 55, "duration": 120, "velocity": 110}, {"time": 177845, "pitch": 60, "duration": 110, "velocity": 115}, {"time": 177845, "pitch": 64, "duration": 100, "velocity": 120}, {"time": 177945, "pitch": 64, "duration": 140, "velocity": 110}, {"time": 177955, "pitch": 55, "duration": 120, "velocity": 100}, {"time": 177955, "pitch": 60, "duration": 130, "velocity": 105}, {"time": 177965, "pitch": 48, "duration": 100, "velocity": 110}, {"time": 177965, "pitch": 52, "duration": 110, "velocity": 95}, {"time": 178065, "pitch": 48, "duration": 240, "velocity": 120}, {"time": 178075, "pitch": 52, "duration": 240, "velocity": 105}, {"time": 178075, "pitch": 55, "duration": 240, "velocity": 110}, {"time": 178085, "pitch": 60, "duration": 240, "velocity": 115}, {"time": 178085, "pitch": 64, "duration": 240, "velocity": 120}, {"time": 178305, "pitch": 47, "duration": 139, "velocity": 120}, {"time": 178315, "pitch": 52, "duration": 129, "velocity": 105}, {"time": 178315, "pitch": 55, "duration": 119, "velocity": 110}, {"time": 178325, "pitch": 59, "duration": 109, "velocity": 115}, {"time": 178325, "pitch": 64, "duration": 99, "velocity": 120}, {"time": 178424, "pitch": 64, "duration": 140, "velocity": 110}, {"time": 178434, "pitch": 55, "duration": 120, "velocity": 100}, {"time": 178434, "pitch": 59, "duration": 130, "velocity": 105}, {"time": 178444, "pitch": 47, "duration": 100, "velocity": 110}, {"time": 178444, "pitch": 52, "duration": 110, "velocity": 95}, {"time": 178544, "pitch": 45, "duration": 240, "velocity": 120}, {"time": 178554, "pitch": 52, "duration": 240, "velocity": 105}, {"time": 178554, "pitch": 55, "duration": 240, "velocity": 110}, {"time": 178564, "pitch": 60, "duration": 240, "velocity": 115}, {"time": 178564, "pitch": 64, "duration": 240, "velocity": 120}, {"time": 178784, "pitch": 45, "duration": 140, "velocity": 120}, {"time": 178794, "pitch": 52, "duration": 130, "velocity": 105}, {"time": 178794, "pitch": 55, "duration": 120, "velocity": 110}, {"time": 178804, "pitch": 60, "duration": 110, "velocity": 115}, {"time": 178804, "pitch": 64, "duration": 100, "velocity": 120}, {"time": 178904, "pitch": 64, "duration": 140, "velocity": 110}, {"time": 178914, "pitch": 55, "duration": 120, "velocity": 100}, {"time": 178914, "pitch": 60, "duration": 130, "velocity": 105}, {"time": 178924, "pitch": 45, "duration": 100, "velocity": 110}, {"time": 178924, "pitch": 52, "duration": 110, "velocity": 95}, {"time": 179024, "pitch": 45, "duration": 240, "velocity": 120}, {"time": 179034, "pitch": 52, "duration": 240, "velocity": 105}, {"time": 179034, "pitch": 55, "duration": 240, "velocity": 110}, {"time": 179044, "pitch": 60, "duration": 240, "velocity": 115}, {"time": 179044, "pitch": 64, "duration": 240, "velocity": 120}, {"time": 179264, "pitch": 45, "duration": 140, "velocity": 120}, {"time": 179274, "pitch": 52, "duration": 130, "velocity": 105}, {"time": 179274, "pitch": 55, "duration": 120, "velocity": 110}, {"time": 179284, "pitch": 60, "duration": 110, "velocity": 115}, {"time": 179284, "pitch": 64, "duration": 100, "velocity": 120}, {"time": 179384, "pitch": 64, "duration": 140, "velocity": 110}, {"time": 179394, "pitch": 55, "duration": 120, "velocity": 100}, {"time": 179394, "pitch": 60, "duration": 130, "velocity": 105}, {"time": 179404, "pitch": 45, "duration": 100, "velocity": 110}, {"time": 179404, "pitch": 52, "duration": 110, "velocity": 95}, {"time": 179504, "pitch": 45, "duration": 9473, "velocity": 120}, {"time": 179534, "pitch": 50, "duration": 9443, "velocity": 105}, {"time": 179564, "pitch": 57, "duration": 9413, "velocity": 110}, {"time": 179594, "pitch": 62, "duration": 9383, "velocity": 115}, {"time": 179624, "pitch": 66, "duration": 9353, "velocity": 120}], "annotations": [{"time": 80, "annotation": {"number": 7, "value": 50}, "group": "control_change"}, {"time": 86, "annotation": {"number": 10, "value": 64}, "group": "control_change"}, {"time": 92, "annotation": {"number": 11, "value": 100}, "group": "control_change"}, {"time": 98, "annotation": {"number": 91, "value": 40}, "group": "control_change"}, {"time": 104, "annotation": {"number": 93, "value": 0}, "group": "control_change"}, {"time": 178, "annotation": {"number": 101, "value": 0}, "group": "control_change"}, {"time": 184, "annotation": {"number": 100, "value": 0}, "group": "control_change"}, {"time": 190, "annotation": {"number": 6, "value": 12}, "group": "control_change"}, {"time": 196, "annotation": {"number": 1, "value": 0}, "group": "control_change"}, {"time": 209, "annotation": {"number": 64, "value": 0}, "group": "control_change"}]}, {"program": 0, "is_drum": false, "name": "E.Guitar.1", "annotations": [{"time": 61, "annotation": {"number": 0, "value": 0}, "group": "control_change"}, {"time": 67, "annotation": {"number": 32, "value": 2}, "group": "control_change"}]}, {"program": 29, "is_drum": false, "name": "E.Guitar.1", "notes": [{"time": 2643, "pitch": 45, "duration": 120, "velocity": 110}, {"time": 2763, "pitch": 47, "duration": 120, "velocity": 105}, {"time": 2883, "pitch": 48, "duration": 719, "velocity": 110}, {"time": 3602, "pitch": 47, "duration": 720, "velocity": 110}, {"time": 4322, "pitch": 45, "duration": 239, "velocity": 110}, {"time": 4561, "pitch": 43, "duration": 240, "velocity": 100}, {"time": 4801, "pitch": 50, "duration": 1659, "velocity": 110}, {"time": 6480, "pitch": 45, "duration": 120, "velocity": 110}, {"time": 6600, "pitch": 47, "duration": 120, "velocity": 105}, {"time": 6720, "pitch": 48, "duration": 719, "velocity": 110}, {"time": 7439, "pitch": 47, "duration": 720, "velocity": 110}, {"time": 8159, "pitch": 45, "duration": 240, "velocity": 110}, {"time": 8399, "pitch": 43, "duration": 239, "velocity": 100}, {"time": 8638, "pitch": 50, "duration": 1662, "velocity": 110}, {"time": 10320, "pitch": 45, "duration": 122, "velocity": 110}, {"time": 10442, "pitch": 47, "duration": 121, "velocity": 105}, {"time": 10563, "pitch": 48, "duration": 719, "velocity": 110}, {"time": 11282, "pitch": 47, "duration": 720, "velocity": 110}, {"time": 12002, "pitch": 45, "duration": 240, "velocity": 110}, {"time": 12242, "pitch": 43, "duration": 240, "velocity": 100}, {"time": 12482, "pitch": 50, "duration": 1658, "velocity": 110}, {"time": 14160, "pitch": 45, "duration": 120, "velocity": 110}, {"time": 14280, "pitch": 47, "duration": 120, "velocity": 105}, {"time": 14400, "pitch": 48, "duration": 720, "velocity": 110}, {"time": 15120, "pitch": 47, "duration": 719, "velocity": 110}, {"time": 15839, "pitch": 45, "duration": 240, "velocity": 110}, {"time": 16079, "pitch": 43, "duration": 240, "velocity": 100}, {"time": 31440, "pitch": 50, "duration": 230, "velocity": 110}, {"time": 31440, "pitch": 59, "duration": 230, "velocity": 100}, {"time": 31450, "pitch": 62, "duration": 220, "velocity": 105}, {"time": 31450, "pitch": 67, "duration": 220, "velocity": 110}, {"time": 31680, "pitch": 50, "duration": 1878, "velocity": 110}, {"time": 31680, "pitch": 57, "duration": 1878, "velocity": 100}, {"time": 31690, "pitch": 62, "duration": 1868, "velocity": 105}, {"time": 31690, "pitch": 66, "duration": 1868, "velocity": 110}, {"time": 33598, "pitch": 52, "duration": 730, "velocity": 110}, {"time": 33598, "pitch": 55, "duration": 730, "velocity": 100}, {"time": 33608, "pitch": 59, "duration": 710, "velocity": 105}, {"time": 33608, "pitch": 64, "duration": 710, "velocity": 110}, {"time": 34318, "pitch": 59, "duration": 250, "velocity": 95}, {"time": 34318, "pitch": 64, "duration": 250, "velocity": 100}, {"time": 34328, "pitch": 52, "duration": 230, "velocity": 100}, {"time": 34328, "pitch": 55, "duration": 230, "velocity": 90}, {"time": 34558, "pitch": 52, "duration": 249, "velocity": 110}, {"time": 34558, "pitch": 55, "duration": 249, "velocity": 100}, {"time": 34568, "pitch": 59, "duration": 229, "velocity": 105}, {"time": 34568, "pitch": 64, "duration": 229, "velocity": 110}, {"time": 34797, "pitch": 59, "duration": 706, "velocity": 95}, {"time": 34797, "pitch": 64, "duration": 706, "velocity": 100}, {"time": 34807, "pitch": 52, "duration": 696, "velocity": 100}, {"time": 34807, "pitch": 55, "duration": 696, "velocity": 90}, {"time": 35523, "pitch": 50, "duration": 939, "velocity": 105}, {"time": 35523, "pitch": 55, "duration": 939, "velocity": 110}, {"time": 36482, "pitch": 45, "duration": 940, "velocity": 115}, {"time": 36482, "pitch": 52, "duration": 940, "velocity": 120}, {"time": 37442, "pitch": 45, "duration": 1898, "velocity": 115}, {"time": 37442, "pitch": 50, "duration": 1898, "velocity": 120}, {"time": 39360, "pitch": 50, "duration": 1879, "velocity": 110}, {"time": 39360, "pitch": 57, "duration": 1879, "velocity": 100}, {"time": 39370, "pitch": 62, "duration": 1869, "velocity": 105}, {"time": 39370, "pitch": 66, "duration": 1869, "velocity": 110}, {"time": 41279, "pitch": 52, "duration": 729, "velocity": 110}, {"time": 41279, "pitch": 55, "duration": 729, "velocity": 100}, {"time": 41289, "pitch": 59, "duration": 709, "velocity": 105}, {"time": 41289, "pitch": 64, "duration": 709, "velocity": 110}, {"time": 41998, "pitch": 59, "duration": 250, "velocity": 95}, {"time": 41998, "pitch": 64, "duration": 250, "velocity": 100}, {"time": 42008, "pitch": 52, "duration": 230, "velocity": 100}, {"time": 42008, "pitch": 55, "duration": 230, "velocity": 90}, {"time": 42238, "pitch": 52, "duration": 250, "velocity": 110}, {"time": 42238, "pitch": 55, "duration": 250, "velocity": 100}, {"time": 42248, "pitch": 59, "duration": 230, "velocity": 105}, {"time": 42248, "pitch": 64, "duration": 230, "velocity": 110}, {"time": 42478, "pitch": 59, "duration": 699, "velocity": 95}, {"time": 42478, "pitch": 64, "duration": 699, "velocity": 100}, {"time": 42488, "pitch": 52, "duration": 689, "velocity": 100}, {"time": 42488, "pitch": 55, "duration": 689, "velocity": 90}, {"time": 43197, "pitch": 50, "duration": 946, "velocity": 105}, {"time": 43197, "pitch": 55, "duration": 946, "velocity": 110}, {"time": 44163, "pitch": 45, "duration": 939, "velocity": 115}, {"time": 44163, "pitch": 52, "duration": 939, "velocity": 120}, {"time": 45122, "pitch": 45, "duration": 1899, "velocity": 115}, {"time": 45122, "pitch": 50, "duration": 1899, "velocity": 120}, {"time": 47041, "pitch": 48, "duration": 719, "velocity": 110}, {"time": 47760, "pitch": 47, "duration": 720, "velocity": 110}, {"time": 48480, "pitch": 45, "duration": 239, "velocity": 110}, {"time": 48719, "pitch": 43, "duration": 240, "velocity": 100}, {"time": 48959, "pitch": 50, "duration": 1659, "velocity": 110}, {"time": 50638, "pitch": 45, "duration": 120, "velocity": 110}, {"time": 50758, "pitch": 47, "duration": 120, "velocity": 105}, {"time": 50878, "pitch": 48, "duration": 719, "velocity": 110}, {"time": 51597, "pitch": 47, "duration": 726, "velocity": 110}, {"time": 52323, "pitch": 45, "duration": 240, "velocity": 110}, {"time": 52563, "pitch": 43, "duration": 239, "velocity": 100}, {"time": 52802, "pitch": 50, "duration": 1659, "velocity": 110}, {"time": 54481, "pitch": 45, "duration": 120, "velocity": 110}, {"time": 54601, "pitch": 47, "duration": 120, "velocity": 105}, {"time": 54721, "pitch": 48, "duration": 719, "velocity": 110}, {"time": 55440, "pitch": 47, "duration": 720, "velocity": 110}, {"time": 56160, "pitch": 45, "duration": 240, "velocity": 110}, {"time": 56400, "pitch": 43, "duration": 240, "velocity": 100}, {"time": 56640, "pitch": 50, "duration": 3823, "velocity": 90}, {"time": 75598, "pitch": 50, "duration": 230, "velocity": 110}, {"time": 75598, "pitch": 59, "duration": 230, "velocity": 100}, {"time": 75608, "pitch": 62, "duration": 220, "velocity": 105}, {"time": 75608, "pitch": 67, "duration": 220, "velocity": 110}, {"time": 75838, "pitch": 50, "duration": 1884, "velocity": 110}, {"time": 75838, "pitch": 57, "duration": 1884, "velocity": 100}, {"time": 75848, "pitch": 62, "duration": 1874, "velocity": 105}, {"time": 75848, "pitch": 66, "duration": 1874, "velocity": 110}, {"time": 78722, "pitch": 59, "duration": 120, "velocity": 105}, {"time": 78732, "pitch": 64, "duration": 110, "velocity": 110}, {"time": 78842, "pitch": 67, "duration": 239, "velocity": 110}, {"time": 78852, "pitch": 62, "duration": 239, "velocity": 105}, {"time": 79081, "pitch": 67, "duration": 120, "velocity": 105}, {"time": 79091, "pitch": 62, "duration": 110, "velocity": 100}, {"time": 79201, "pitch": 62, "duration": 130, "velocity": 105}, {"time": 79211, "pitch": 67, "duration": 110, "velocity": 110}, {"time": 79321, "pitch": 67, "duration": 130, "velocity": 105}, {"time": 79331, "pitch": 62, "duration": 110, "velocity": 100}, {"time": 79441, "pitch": 62, "duration": 240, "velocity": 95}, {"time": 79451, "pitch": 67, "duration": 230, "velocity": 100}, {"time": 79681, "pitch": 43, "duration": 959, "velocity": 100}, {"time": 80640, "pitch": 59, "duration": 240, "velocity": 105}, {"time": 80650, "pitch": 64, "duration": 230, "velocity": 110}, {"time": 80880, "pitch": 59, "duration": 130, "velocity": 100}, {"time": 80890, "pitch": 64, "duration": 110, "velocity": 105}, {"time": 81000, "pitch": 62, "duration": 240, "velocity": 110}, {"time": 81010, "pitch": 57, "duration": 240, "velocity": 105}, {"time": 81240, "pitch": 62, "duration": 130, "velocity": 105}, {"time": 81250, "pitch": 57, "duration": 110, "velocity": 100}, {"time": 81360, "pitch": 50, "duration": 240, "velocity": 95}, {"time": 81370, "pitch": 55, "duration": 230, "velocity": 100}, {"time": 81600, "pitch": 50, "duration": 1438, "velocity": 95}, {"time": 81610, "pitch": 54, "duration": 1418, "velocity": 100}, {"time": 83038, "pitch": 59, "duration": 240, "velocity": 105}, {"time": 83048, "pitch": 64, "duration": 230, "velocity": 110}, {"time": 83278, "pitch": 50, "duration": 230, "velocity": 110}, {"time": 83278, "pitch": 59, "duration": 230, "velocity": 100}, {"time": 83288, "pitch": 62, "duration": 220, "velocity": 105}, {"time": 83288, "pitch": 67, "duration": 220, "velocity": 110}, {"time": 83518, "pitch": 50, "duration": 1884, "velocity": 110}, {"time": 83518, "pitch": 57, "duration": 1884, "velocity": 100}, {"time": 83528, "pitch": 62, "duration": 1874, "velocity": 105}, {"time": 83528, "pitch": 66, "duration": 1874, "velocity": 110}, {"time": 85443, "pitch": 52, "duration": 729, "velocity": 110}, {"time": 85443, "pitch": 55, "duration": 729, "velocity": 100}, {"time": 85453, "pitch": 59, "duration": 709, "velocity": 105}, {"time": 85453, "pitch": 64, "duration": 709, "velocity": 110}, {"time": 86162, "pitch": 59, "duration": 250, "velocity": 95}, {"time": 86162, "pitch": 64, "duration": 250, "velocity": 100}, {"time": 86172, "pitch": 52, "duration": 230, "velocity": 100}, {"time": 86172, "pitch": 55, "duration": 230, "velocity": 90}, {"time": 86402, "pitch": 52, "duration": 250, "velocity": 110}, {"time": 86402, "pitch": 55, "duration": 250, "velocity": 100}, {"time": 86412, "pitch": 59, "duration": 230, "velocity": 105}, {"time": 86412, "pitch": 64, "duration": 230, "velocity": 110}, {"time": 86642, "pitch": 59, "duration": 699, "velocity": 95}, {"time": 86642, "pitch": 64, "duration": 699, "velocity": 100}, {"time": 86652, "pitch": 52, "duration": 689, "velocity": 100}, {"time": 86652, "pitch": 55, "duration": 689, "velocity": 90}, {"time": 87361, "pitch": 50, "duration": 940, "velocity": 105}, {"time": 87361, "pitch": 55, "duration": 940, "velocity": 110}, {"time": 88321, "pitch": 45, "duration": 939, "velocity": 115}, {"time": 88321, "pitch": 52, "duration": 939, "velocity": 120}, {"time": 89280, "pitch": 45, "duration": 1659, "velocity": 115}, {"time": 89280, "pitch": 50, "duration": 1659, "velocity": 120}, {"time": 90959, "pitch": 45, "duration": 120, "velocity": 110}, {"time": 91079, "pitch": 47, "duration": 120, "velocity": 100}, {"time": 91199, "pitch": 48, "duration": 719, "velocity": 110}, {"time": 91918, "pitch": 47, "duration": 720, "velocity": 110}, {"time": 92638, "pitch": 45, "duration": 239, "velocity": 110}, {"time": 92877, "pitch": 43, "duration": 240, "velocity": 100}, {"time": 93117, "pitch": 50, "duration": 1665, "velocity": 110}, {"time": 94802, "pitch": 45, "duration": 120, "velocity": 110}, {"time": 94922, "pitch": 47, "duration": 120, "velocity": 105}, {"time": 95042, "pitch": 48, "duration": 719, "velocity": 110}, {"time": 95761, "pitch": 47, "duration": 720, "velocity": 110}, {"time": 96481, "pitch": 45, "duration": 240, "velocity": 110}, {"time": 96721, "pitch": 43, "duration": 239, "velocity": 100}, {"time": 96960, "pitch": 50, "duration": 1659, "velocity": 110}, {"time": 98639, "pitch": 45, "duration": 120, "velocity": 110}, {"time": 98759, "pitch": 47, "duration": 120, "velocity": 105}, {"time": 98879, "pitch": 48, "duration": 720, "velocity": 110}, {"time": 99599, "pitch": 47, "duration": 719, "velocity": 110}, {"time": 100318, "pitch": 45, "duration": 240, "velocity": 110}, {"time": 100558, "pitch": 43, "duration": 240, "velocity": 100}, {"time": 100798, "pitch": 50, "duration": 1664, "velocity": 110}, {"time": 102482, "pitch": 45, "duration": 120, "velocity": 110}, {"time": 102602, "pitch": 47, "duration": 120, "velocity": 105}, {"time": 102722, "pitch": 48, "duration": 720, "velocity": 110}, {"time": 103442, "pitch": 47, "duration": 719, "velocity": 110}, {"time": 104161, "pitch": 45, "duration": 240, "velocity": 110}, {"time": 104401, "pitch": 43, "duration": 240, "velocity": 100}, {"time": 104641, "pitch": 50, "duration": 1659, "velocity": 110}, {"time": 106320, "pitch": 45, "duration": 120, "velocity": 110}, {"time": 106440, "pitch": 47, "duration": 119, "velocity": 105}, {"time": 106559, "pitch": 48, "duration": 720, "velocity": 110}, {"time": 107279, "pitch": 47, "duration": 719, "velocity": 110}, {"time": 107998, "pitch": 45, "duration": 240, "velocity": 110}, {"time": 108238, "pitch": 43, "duration": 240, "velocity": 100}, {"time": 123599, "pitch": 50, "duration": 230, "velocity": 110}, {"time": 123599, "pitch": 59, "duration": 230, "velocity": 100}, {"time": 123609, "pitch": 62, "duration": 220, "velocity": 105}, {"time": 123609, "pitch": 67, "duration": 220, "velocity": 110}, {"time": 123839, "pitch": 50, "duration": 1879, "velocity": 110}, {"time": 123839, "pitch": 57, "duration": 1879, "velocity": 100}, {"time": 123849, "pitch": 62, "duration": 1869, "velocity": 105}, {"time": 123849, "pitch": 66, "duration": 1869, "velocity": 110}, {"time": 126723, "pitch": 59, "duration": 120, "velocity": 105}, {"time": 126733, "pitch": 64, "duration": 110, "velocity": 110}, {"time": 126843, "pitch": 67, "duration": 240, "velocity": 110}, {"time": 126853, "pitch": 62, "duration": 240, "velocity": 105}, {"time": 127083, "pitch": 67, "duration": 120, "velocity": 105}, {"time": 127093, "pitch": 62, "duration": 110, "velocity": 100}, {"time": 127203, "pitch": 62, "duration": 129, "velocity": 105}, {"time": 127213, "pitch": 67, "duration": 109, "velocity": 110}, {"time": 127322, "pitch": 67, "duration": 130, "velocity": 105}, {"time": 127332, "pitch": 62, "duration": 110, "velocity": 100}, {"time": 127442, "pitch": 62, "duration": 240, "velocity": 95}, {"time": 127452, "pitch": 67, "duration": 230, "velocity": 100}, {"time": 127682, "pitch": 43, "duration": 960, "velocity": 100}, {"time": 128642, "pitch": 59, "duration": 239, "velocity": 105}, {"time": 128652, "pitch": 64, "duration": 229, "velocity": 110}, {"time": 128881, "pitch": 59, "duration": 130, "velocity": 100}, {"time": 128891, "pitch": 64, "duration": 110, "velocity": 105}, {"time": 129001, "pitch": 62, "duration": 240, "velocity": 110}, {"time": 129011, "pitch": 57, "duration": 240, "velocity": 105}, {"time": 129241, "pitch": 62, "duration": 130, "velocity": 105}, {"time": 129251, "pitch": 57, "duration": 110, "velocity": 100}, {"time": 129361, "pitch": 50, "duration": 240, "velocity": 95}, {"time": 129371, "pitch": 55, "duration": 230, "velocity": 100}, {"time": 129601, "pitch": 50, "duration": 1439, "velocity": 95}, {"time": 129611, "pitch": 54, "duration": 1419, "velocity": 100}, {"time": 131040, "pitch": 59, "duration": 240, "velocity": 105}, {"time": 131050, "pitch": 64, "duration": 230, "velocity": 110}, {"time": 131280, "pitch": 50, "duration": 229, "velocity": 110}, {"time": 131280, "pitch": 59, "duration": 229, "velocity": 100}, {"time": 131290, "pitch": 62, "duration": 219, "velocity": 105}, {"time": 131290, "pitch": 67, "duration": 219, "velocity": 110}, {"time": 131519, "pitch": 50, "duration": 1879, "velocity": 110}, {"time": 131519, "pitch": 57, "duration": 1879, "velocity": 100}, {"time": 131529, "pitch": 62, "duration": 1869, "velocity": 105}, {"time": 131529, "pitch": 66, "duration": 1869, "velocity": 110}, {"time": 133438, "pitch": 52, "duration": 480, "velocity": 110}, {"time": 133438, "pitch": 55, "duration": 480, "velocity": 100}, {"time": 133448, "pitch": 59, "duration": 480, "velocity": 105}, {"time": 133448, "pitch": 64, "duration": 480, "velocity": 110}, {"time": 133918, "pitch": 52, "duration": 479, "velocity": 110}, {"time": 133918, "pitch": 55, "duration": 479, "velocity": 100}, {"time": 133928, "pitch": 59, "duration": 479, "velocity": 105}, {"time": 133928, "pitch": 64, "duration": 479, "velocity": 110}, {"time": 134397, "pitch": 62, "duration": 132, "velocity": 100}, {"time": 134407, "pitch": 67, "duration": 112, "velocity": 110}, {"time": 134519, "pitch": 67, "duration": 131, "velocity": 120}, {"time": 134529, "pitch": 62, "duration": 111, "velocity": 110}, {"time": 134640, "pitch": 62, "duration": 132, "velocity": 105}, {"time": 134650, "pitch": 67, "duration": 112, "velocity": 115}, {"time": 134762, "pitch": 67, "duration": 131, "velocity": 110}, {"time": 134772, "pitch": 62, "duration": 111, "velocity": 100}, {"time": 134883, "pitch": 62, "duration": 130, "velocity": 105}, {"time": 134893, "pitch": 67, "duration": 110, "velocity": 115}, {"time": 135003, "pitch": 67, "duration": 130, "velocity": 110}, {"time": 135013, "pitch": 62, "duration": 110, "velocity": 100}, {"time": 135123, "pitch": 62, "duration": 230, "velocity": 95}, {"time": 135133, "pitch": 67, "duration": 220, "velocity": 105}, {"time": 135363, "pitch": 50, "duration": 939, "velocity": 105}, {"time": 135363, "pitch": 55, "duration": 939, "velocity": 110}, {"time": 136322, "pitch": 45, "duration": 939, "velocity": 115}, {"time": 136322, "pitch": 52, "duration": 939, "velocity": 120}, {"time": 137281, "pitch": 45, "duration": 1659, "velocity": 115}, {"time": 137281, "pitch": 50, "duration": 1659, "velocity": 120}, {"time": 138960, "pitch": 45, "duration": 120, "velocity": 110}, {"time": 139080, "pitch": 47, "duration": 120, "velocity": 100}, {"time": 139200, "pitch": 48, "duration": 719, "velocity": 110}, {"time": 139919, "pitch": 47, "duration": 720, "velocity": 110}, {"time": 140639, "pitch": 45, "duration": 240, "velocity": 110}, {"time": 140879, "pitch": 43, "duration": 239, "velocity": 100}, {"time": 141118, "pitch": 50, "duration": 1659, "velocity": 110}, {"time": 142797, "pitch": 45, "duration": 120, "velocity": 110}, {"time": 142917, "pitch": 47, "duration": 120, "velocity": 105}, {"time": 143037, "pitch": 48, "duration": 726, "velocity": 110}, {"time": 143763, "pitch": 47, "duration": 719, "velocity": 110}, {"time": 144482, "pitch": 45, "duration": 240, "velocity": 110}, {"time": 144722, "pitch": 43, "duration": 240, "velocity": 100}, {"time": 144962, "pitch": 50, "duration": 1659, "velocity": 110}, {"time": 146640, "pitch": 45, "duration": 120, "velocity": 110}, {"time": 146760, "pitch": 47, "duration": 120, "velocity": 105}, {"time": 146880, "pitch": 48, "duration": 720, "velocity": 110}, {"time": 147600, "pitch": 47, "duration": 719, "velocity": 110}, {"time": 148319, "pitch": 45, "duration": 240, "velocity": 110}, {"time": 148559, "pitch": 43, "duration": 240, "velocity": 100}, {"time": 148799, "pitch": 50, "duration": 1659, "velocity": 110}, {"time": 150478, "pitch": 45, "duration": 120, "velocity": 110}, {"time": 150598, "pitch": 47, "duration": 119, "velocity": 105}, {"time": 150717, "pitch": 48, "duration": 966, "velocity": 110}, {"time": 152642, "pitch": 50, "duration": 1659, "velocity": 110}, {"time": 154321, "pitch": 45, "duration": 120, "velocity": 110}, {"time": 154441, "pitch": 47, "duration": 120, "velocity": 105}, {"time": 154561, "pitch": 48, "duration": 719, "velocity": 110}, {"time": 155280, "pitch": 47, "duration": 720, "velocity": 110}, {"time": 156000, "pitch": 45, "duration": 240, "velocity": 110}, {"time": 156240, "pitch": 43, "duration": 239, "velocity": 100}, {"time": 156479, "pitch": 50, "duration": 1659, "velocity": 110}, {"time": 158158, "pitch": 45, "duration": 120, "velocity": 110}, {"time": 158278, "pitch": 47, "duration": 120, "velocity": 105}, {"time": 158398, "pitch": 48, "duration": 719, "velocity": 110}, {"time": 159117, "pitch": 47, "duration": 726, "velocity": 110}, {"time": 159843, "pitch": 45, "duration": 240, "velocity": 110}, {"time": 160083, "pitch": 43, "duration": 240, "velocity": 100}, {"time": 160323, "pitch": 50, "duration": 1658, "velocity": 110}, {"time": 162001, "pitch": 45, "duration": 120, "velocity": 110}, {"time": 162121, "pitch": 47, "duration": 120, "velocity": 105}, {"time": 162241, "pitch": 48, "duration": 720, "velocity": 110}, {"time": 162961, "pitch": 47, "duration": 719, "velocity": 110}, {"time": 163680, "pitch": 45, "duration": 240, "velocity": 110}, {"time": 163920, "pitch": 43, "duration": 240, "velocity": 100}, {"time": 164160, "pitch": 50, "duration": 1659, "velocity": 110}, {"time": 165839, "pitch": 45, "duration": 119, "velocity": 110}, {"time": 165958, "pitch": 47, "duration": 120, "velocity": 105}, {"time": 166078, "pitch": 48, "duration": 720, "velocity": 110}, {"time": 166798, "pitch": 47, "duration": 719, "velocity": 110}, {"time": 167517, "pitch": 45, "duration": 240, "velocity": 110}, {"time": 167757, "pitch": 43, "duration": 240, "velocity": 100}, {"time": 167997, "pitch": 50, "duration": 1665, "velocity": 110}, {"time": 169682, "pitch": 45, "duration": 120, "velocity": 110}, {"time": 169802, "pitch": 47, "duration": 120, "velocity": 105}, {"time": 169922, "pitch": 48, "duration": 719, "velocity": 110}, {"time": 170641, "pitch": 47, "duration": 720, "velocity": 110}, {"time": 171361, "pitch": 45, "duration": 239, "velocity": 110}, {"time": 171600, "pitch": 43, "duration": 240, "velocity": 100}, {"time": 171840, "pitch": 50, "duration": 1659, "velocity": 110}, {"time": 173519, "pitch": 45, "duration": 120, "velocity": 110}, {"time": 173639, "pitch": 47, "duration": 120, "velocity": 105}, {"time": 173759, "pitch": 48, "duration": 719, "velocity": 110}, {"time": 174478, "pitch": 47, "duration": 720, "velocity": 110}, {"time": 175198, "pitch": 45, "duration": 240, "velocity": 110}, {"time": 175438, "pitch": 43, "duration": 239, "velocity": 100}, {"time": 175677, "pitch": 50, "duration": 1665, "velocity": 110}, {"time": 177362, "pitch": 45, "duration": 120, "velocity": 110}, {"time": 177482, "pitch": 47, "duration": 120, "velocity": 105}, {"time": 177602, "pitch": 48, "duration": 720, "velocity": 110}, {"time": 178322, "pitch": 47, "duration": 719, "velocity": 110}, {"time": 179041, "pitch": 45, "duration": 240, "velocity": 110}, {"time": 179281, "pitch": 43, "duration": 240, "velocity": 100}, {"time": 179521, "pitch": 50, "duration": 1898, "velocity": 90}], "annotations": [{"time": 80, "annotation": {"number": 7, "value": 75}, "group": "control_change"}, {"time": 86, "annotation": {"number": 10, "value": 64}, "group": "control_change"}, {"time": 92, "annotation": {"number": 11, "value": 100}, "group": "control_change"}, {"time": 98, "annotation": {"number": 91, "value": 50}, "group": "control_change"}, {"time": 104, "annotation": {"number": 93, "value": 30}, "group": "control_change"}, {"time": 178, "annotation": {"number": 101, "value": 0}, "group": "control_change"}, {"time": 184, "annotation": {"number": 100, "value": 0}, "group": "control_change"}, {"time": 190, "annotation": {"number": 6, "value": 12}, "group": "control_change"}, {"time": 196, "annotation": {"number": 1, "value": 0}, "group": "control_change"}, {"time": 209, "annotation": {"number": 64, "value": 0}, "group": "control_change"}, {"time": 31690, "annotation": {"number": 11, "value": 98}, "group": "control_change"}, {"time": 31710, "annotation": {"number": 11, "value": 96}, "group": "control_change"}, {"time": 31730, "annotation": {"number": 11, "value": 95}, "group": "control_change"}, {"time": 31740, "annotation": {"number": 11, "value": 94}, "group": "control_change"}, {"time": 31760, "annotation": {"number": 11, "value": 93}, "group": "control_change"}, {"time": 31770, "annotation": {"number": 11, "value": 92}, "group": "control_change"}, {"time": 31790, "annotation": {"number": 11, "value": 91}, "group": "control_change"}, {"time": 31800, "annotation": {"number": 11, "value": 90}, "group": "control_change"}, {"time": 31820, "annotation": {"number": 11, "value": 89}, "group": "control_change"}, {"time": 31830, "annotation": {"number": 11, "value": 88}, "group": "control_change"}, {"time": 31860, "annotation": {"number": 11, "value": 87}, "group": "control_change"}, {"time": 31870, "annotation": {"number": 11, "value": 86}, "group": "control_change"}, {"time": 31890, "annotation": {"number": 11, "value": 85}, "group": "control_change"}, {"time": 31920, "annotation": {"number": 11, "value": 84}, "group": "control_change"}, {"time": 31939, "annotation": {"number": 11, "value": 83}, "group": "control_change"}, {"time": 31969, "annotation": {"number": 11, "value": 82}, "group": "control_change"}, {"time": 31999, "annotation": {"number": 11, "value": 81}, "group": "control_change"}, {"time": 32029, "annotation": {"number": 11, "value": 80}, "group": "control_change"}, {"time": 32059, "annotation": {"number": 11, "value": 79}, "group": "control_change"}, {"time": 32089, "annotation": {"number": 11, "value": 78}, "group": "control_change"}, {"time": 32129, "annotation": {"number": 11, "value": 77}, "group": "control_change"}, {"time": 32169, "annotation": {"number": 11, "value": 76}, "group": "control_change"}, {"time": 32229, "annotation": {"number": 11, "value": 75}, "group": "control_change"}, {"time": 32289, "annotation": {"number": 11, "value": 74}, "group": "control_change"}, {"time": 32359, "annotation": {"number": 11, "value": 73}, "group": "control_change"}, {"time": 32459, "annotation": {"number": 11, "value": 72}, "group": "control_change"}, {"time": 32589, "annotation": {"number": 11, "value": 71}, "group": "control_change"}, {"time": 32829, "annotation": {"number": 11, "value": 70}, "group": "control_change"}, {"time": 47041, "annotation": {"number": 11, "value": 100}, "group": "control_change"}, {"time": 75848, "annotation": {"number": 11, "value": 98}, "group": "control_change"}, {"time": 75868, "annotation": {"number": 11, "value": 96}, "group": "control_change"}, {"time": 75888, "annotation": {"number": 11, "value": 95}, "group": "control_change"}, {"time": 75898, "annotation": {"number": 11, "value": 94}, "group": "control_change"}, {"time": 75918, "annotation": {"number": 11, "value": 93}, "group": "control_change"}, {"time": 75928, "annotation": {"number": 11, "value": 92}, "group": "control_change"}, {"time": 75948, "annotation": {"number": 11, "value": 91}, "group": "control_change"}, {"time": 75958, "annotation": {"number": 11, "value": 90}, "group": "control_change"}, {"time": 75978, "annotation": {"number": 11, "value": 89}, "group": "control_change"}, {"time": 75988, "annotation": {"number": 11, "value": 88}, "group": "control_change"}, {"time": 76018, "annotation": {"number": 11, "value": 87}, "group": "control_change"}, {"time": 76028, "annotation": {"number": 11, "value": 86}, "group": "control_change"}, {"time": 76048, "annotation": {"number": 11, "value": 85}, "group": "control_change"}, {"time": 76078, "annotation": {"number": 11, "value": 84}, "group": "control_change"}, {"time": 76098, "annotation": {"number": 11, "value": 83}, "group": "control_change"}, {"time": 76127, "annotation": {"number": 11, "value": 82}, "group": "control_change"}, {"time": 76157, "annotation": {"number": 11, "value": 81}, "group": "control_change"}, {"time": 76187, "annotation": {"number": 11, "value": 80}, "group": "control_change"}, {"time": 76217, "annotation": {"number": 11, "value": 79}, "group": "control_change"}, {"time": 76247, "annotation": {"number": 11, "value": 78}, "group": "control_change"}, {"time": 76287, "annotation": {"number": 11, "value": 77}, "group": "control_change"}, {"time": 76327, "annotation": {"number": 11, "value": 76}, "group": "control_change"}, {"time": 76387, "annotation": {"number": 11, "value": 75}, "group": "control_change"}, {"time": 76447, "annotation": {"number": 11, "value": 74}, "group": "control_change"}, {"time": 76517, "annotation": {"number": 11, "value": 73}, "group": "control_change"}, {"time": 76617, "annotation": {"number": 11, "value": 72}, "group": "control_change"}, {"time": 76747, "annotation": {"number": 11, "value": 71}, "group": "control_change"}, {"time": 76989, "annotation": {"number": 11, "value": 70}, "group": "control_change"}, {"time": 77762, "annotation": {"number": 11, "value": 100}, "group": "control_change"}, {"time": 83528, "annotation": {"number": 11, "value": 98}, "group": "control_change"}, {"time": 83548, "annotation": {"number": 11, "value": 96}, "group": "control_change"}, {"time": 83568, "annotation": {"number": 11, "value": 95}, "group": "control_change"}, {"time": 83578, "annotation": {"number": 11, "value": 94}, "group": "control_change"}, {"time": 83598, "annotation": {"number": 11, "value": 93}, "group": "control_change"}, {"time": 83608, "annotation": {"number": 11, "value": 92}, "group": "control_change"}, {"time": 83628, "annotation": {"number": 11, "value": 91}, "group": "control_change"}, {"time": 83638, "annotation": {"number": 11, "value": 90}, "group": "control_change"}, {"time": 83658, "annotation": {"number": 11, "value": 89}, "group": "control_change"}, {"time": 83668, "annotation": {"number": 11, "value": 88}, "group": "control_change"}, {"time": 83698, "annotation": {"number": 11, "value": 87}, "group": "control_change"}, {"time": 83708, "annotation": {"number": 11, "value": 86}, "group": "control_change"}, {"time": 83728, "annotation": {"number": 11, "value": 85}, "group": "control_change"}, {"time": 83758, "annotation": {"number": 11, "value": 84}, "group": "control_change"}, {"time": 83778, "annotation": {"number": 11, "value": 83}, "group": "control_change"}, {"time": 83808, "annotation": {"number": 11, "value": 82}, "group": "control_change"}, {"time": 83838, "annotation": {"number": 11, "value": 81}, "group": "control_change"}, {"time": 83868, "annotation": {"number": 11, "value": 80}, "group": "control_change"}, {"time": 83898, "annotation": {"number": 11, "value": 79}, "group": "control_change"}, {"time": 83928, "annotation": {"number": 11, "value": 78}, "group": "control_change"}, {"time": 83968, "annotation": {"number": 11, "value": 77}, "group": "control_change"}, {"time": 84008, "annotation": {"number": 11, "value": 76}, "group": "control_change"}, {"time": 84068, "annotation": {"number": 11, "value": 75}, "group": "control_change"}, {"time": 84128, "annotation": {"number": 11, "value": 74}, "group": "control_change"}, {"time": 84198, "annotation": {"number": 11, "value": 73}, "group": "control_change"}, {"time": 84298, "annotation": {"number": 11, "value": 72}, "group": "control_change"}, {"time": 84427, "annotation": {"number": 11, "value": 71}, "group": "control_change"}, {"time": 84667, "annotation": {"number": 11, "value": 70}, "group": "control_change"}, {"time": 90959, "annotation": {"number": 11, "value": 100}, "group": "control_change"}, {"time": 123849, "annotation": {"number": 11, "value": 98}, "group": "control_change"}, {"time": 123869, "annotation": {"number": 11, "value": 96}, "group": "control_change"}, {"time": 123889, "annotation": {"number": 11, "value": 95}, "group": "control_change"}, {"time": 123899, "annotation": {"number": 11, "value": 94}, "group": "control_change"}, {"time": 123919, "annotation": {"number": 11, "value": 93}, "group": "control_change"}, {"time": 123929, "annotation": {"number": 11, "value": 92}, "group": "control_change"}, {"time": 123949, "annotation": {"number": 11, "value": 91}, "group": "control_change"}, {"time": 123959, "annotation": {"number": 11, "value": 90}, "group": "control_change"}, {"time": 123979, "annotation": {"number": 11, "value": 89}, "group": "control_change"}, {"time": 123989, "annotation": {"number": 11, "value": 88}, "group": "control_change"}, {"time": 124019, "annotation": {"number": 11, "value": 87}, "group": "control_change"}, {"time": 124029, "annotation": {"number": 11, "value": 86}, "group": "control_change"}, {"time": 124049, "annotation": {"number": 11, "value": 85}, "group": "control_change"}, {"time": 124079, "annotation": {"number": 11, "value": 84}, "group": "control_change"}, {"time": 124099, "annotation": {"number": 11, "value": 83}, "group": "control_change"}, {"time": 124129, "annotation": {"number": 11, "value": 82}, "group": "control_change"}, {"time": 124159, "annotation": {"number": 11, "value": 81}, "group": "control_change"}, {"time": 124189, "annotation": {"number": 11, "value": 80}, "group": "control_change"}, {"time": 124219, "annotation": {"number": 11, "value": 79}, "group": "control_change"}, {"time": 124249, "annotation": {"number": 11, "value": 78}, "group": "control_change"}, {"time": 124289, "annotation": {"number": 11, "value": 77}, "group": "control_change"}, {"time": 124329, "annotation": {"number": 11, "value": 76}, "group": "control_change"}, {"time": 124389, "annotation": {"number": 11, "value": 75}, "group": "control_change"}, {"time": 124449, "annotation": {"number": 11, "value": 74}, "group": "control_change"}, {"time": 124518, "annotation": {"number": 11, "value": 73}, "group": "control_change"}, {"time": 124618, "annotation": {"number": 11, "value": 72}, "group": "control_change"}, {"time": 124748, "annotation": {"number": 11, "value": 71}, "group": "control_change"}, {"time": 124988, "annotation": {"number": 11, "value": 70}, "group": "control_change"}, {"time": 125758, "annotation": {"number": 11, "value": 100}, "group": "control_change"}, {"time": 131529, "annotation": {"number": 11, "value": 98}, "group": "control_change"}, {"time": 131549, "annotation": {"number": 11, "value": 96}, "group": "control_change"}, {"time": 131569, "annotation": {"number": 11, "value": 95}, "group": "control_change"}, {"time": 131579, "annotation": {"number": 11, "value": 94}, "group": "control_change"}, {"time": 131599, "annotation": {"number": 11, "value": 93}, "group": "control_change"}, {"time": 131609, "annotation": {"number": 11, "value": 92}, "group": "control_change"}, {"time": 131629, "annotation": {"number": 11, "value": 91}, "group": "control_change"}, {"time": 131639, "annotation": {"number": 11, "value": 90}, "group": "control_change"}, {"time": 131659, "annotation": {"number": 11, "value": 89}, "group": "control_change"}, {"time": 131669, "annotation": {"number": 11, "value": 88}, "group": "control_change"}, {"time": 131699, "annotation": {"number": 11, "value": 87}, "group": "control_change"}, {"time": 131709, "annotation": {"number": 11, "value": 86}, "group": "control_change"}, {"time": 131729, "annotation": {"number": 11, "value": 85}, "group": "control_change"}, {"time": 131759, "annotation": {"number": 11, "value": 84}, "group": "control_change"}, {"time": 131779, "annotation": {"number": 11, "value": 83}, "group": "control_change"}, {"time": 131809, "annotation": {"number": 11, "value": 82}, "group": "control_change"}, {"time": 131839, "annotation": {"number": 11, "value": 81}, "group": "control_change"}, {"time": 131869, "annotation": {"number": 11, "value": 80}, "group": "control_change"}, {"time": 131899, "annotation": {"number": 11, "value": 79}, "group": "control_change"}, {"time": 131929, "annotation": {"number": 11, "value": 78}, "group": "control_change"}, {"time": 131969, "annotation": {"number": 11, "value": 77}, "group": "control_change"}, {"time": 132009, "annotation": {"number": 11, "value": 76}, "group": "control_change"}, {"time": 132069, "annotation": {"number": 11, "value": 75}, "group": "control_change"}, {"time": 132129, "annotation": {"number": 11, "value": 74}, "group": "control_change"}, {"time": 132199, "annotation": {"number": 11, "value": 73}, "group": "control_change"}, {"time": 132299, "annotation": {"number": 11, "value": 72}, "group": "control_change"}, {"time": 132429, "annotation": {"number": 11, "value": 71}, "group": "control_change"}, {"time": 132669, "annotation": {"number": 11, "value": 70}, "group": "control_change"}, {"time": 138960, "annotation": {"number": 11, "value": 100}, "group": "control_change"}, {"time": 179651, "annotation": {"number": 11, "value": 95}, "group": "control_change"}, {"time": 179661, "annotation": {"number": 11, "value": 93}, "group": "control_change"}, {"time": 179671, "annotation": {"number": 11, "value": 89}, "group": "control_change"}, {"time": 179681, "annotation": {"number": 11, "value": 87}, "group": "control_change"}, {"time": 179691, "annotation": {"number": 11, "value": 83}, "group": "control_change"}, {"time": 179701, "annotation": {"number": 11, "value": 82}, "group": "control_change"}, {"time": 179711, "annotation": {"number": 11, "value": 80}, "group": "control_change"}, {"time": 179721, "annotation": {"number": 11, "value": 76}, "group": "control_change"}, {"time": 179731, "annotation": {"number": 11, "value": 75}, "group": "control_change"}, {"time": 179741, "annotation": {"number": 11, "value": 71}, "group": "control_change"}, {"time": 179751, "annotation": {"number": 11, "value": 70}, "group": "control_change"}, {"time": 179761, "annotation": {"number": 11, "value": 67}, "group": "control_change"}, {"time": 179771, "annotation": {"number": 11, "value": 66}, "group": "control_change"}, {"time": 179781, "annotation": {"number": 11, "value": 64}, "group": "control_change"}, {"time": 179790, "annotation": {"number": 11, "value": 61}, "group": "control_change"}, {"time": 179800, "annotation": {"number": 11, "value": 60}, "group": "control_change"}, {"time": 179810, "annotation": {"number": 11, "value": 57}, "group": "control_change"}, {"time": 179820, "annotation": {"number": 11, "value": 56}, "group": "control_change"}, {"time": 179830, "annotation": {"number": 11, "value": 54}, "group": "control_change"}, {"time": 179840, "annotation": {"number": 11, "value": 53}, "group": "control_change"}, {"time": 179850, "annotation": {"number": 11, "value": 51}, "group": "control_change"}, {"time": 179860, "annotation": {"number": 11, "value": 50}, "group": "control_change"}, {"time": 179870, "annotation": {"number": 11, "value": 48}, "group": "control_change"}, {"time": 179880, "annotation": {"number": 11, "value": 46}, "group": "control_change"}, {"time": 179890, "annotation": {"number": 11, "value": 45}, "group": "control_change"}, {"time": 179900, "annotation": {"number": 11, "value": 44}, "group": "control_change"}, {"time": 179910, "annotation": {"number": 11, "value": 42}, "group": "control_change"}, {"time": 179920, "annotation": {"number": 11, "value": 41}, "group": "control_change"}, {"time": 179930, "annotation": {"number": 11, "value": 40}, "group": "control_change"}, {"time": 179940, "annotation": {"number": 11, "value": 39}, "group": "control_change"}, {"time": 179950, "annotation": {"number": 11, "value": 37}, "group": "control_change"}, {"time": 179960, "annotation": {"number": 11, "value": 36}, "group": "control_change"}, {"time": 179970, "annotation": {"number": 11, "value": 35}, "group": "control_change"}, {"time": 179980, "annotation": {"number": 11, "value": 34}, "group": "control_change"}, {"time": 179990, "annotation": {"number": 11, "value": 33}, "group": "control_change"}, {"time": 180000, "annotation": {"number": 11, "value": 32}, "group": "control_change"}, {"time": 180010, "annotation": {"number": 11, "value": 31}, "group": "control_change"}, {"time": 180020, "annotation": {"number": 11, "value": 30}, "group": "control_change"}, {"time": 180030, "annotation": {"number": 11, "value": 29}, "group": "control_change"}, {"time": 180040, "annotation": {"number": 11, "value": 28}, "group": "control_change"}, {"time": 180050, "annotation": {"number": 11, "value": 27}, "group": "control_change"}, {"time": 180060, "annotation": {"number": 11, "value": 26}, "group": "control_change"}, {"time": 180070, "annotation": {"number": 11, "value": 25}, "group": "control_change"}, {"time": 180100, "annotation": {"number": 11, "value": 23}, "group": "control_change"}, {"time": 180120, "annotation": {"number": 11, "value": 22}, "group": "control_change"}, {"time": 180130, "annotation": {"number": 11, "value": 21}, "group": "control_change"}, {"time": 180140, "annotation": {"number": 11, "value": 20}, "group": "control_change"}, {"time": 180160, "annotation": {"number": 11, "value": 19}, "group": "control_change"}, {"time": 180180, "annotation": {"number": 11, "value": 18}, "group": "control_change"}, {"time": 180190, "annotation": {"number": 11, "value": 17}, "group": "control_change"}, {"time": 180210, "annotation": {"number": 11, "value": 16}, "group": "control_change"}, {"time": 180240, "annotation": {"number": 11, "value": 15}, "group": "control_change"}, {"time": 180250, "annotation": {"number": 11, "value": 14}, "group": "control_change"}, {"time": 180280, "annotation": {"number": 11, "value": 13}, "group": "control_change"}, {"time": 180300, "annotation": {"number": 11, "value": 12}, "group": "control_change"}, {"time": 180330, "annotation": {"number": 11, "value": 11}, "group": "control_change"}, {"time": 180350, "annotation": {"number": 11, "value": 10}, "group": "control_change"}, {"time": 180380, "annotation": {"number": 11, "value": 9}, "group": "control_change"}, {"time": 180410, "annotation": {"number": 11, "value": 8}, "group": "control_change"}, {"time": 180450, "annotation": {"number": 11, "value": 7}, "group": "control_change"}, {"time": 180500, "annotation": {"number": 11, "value": 6}, "group": "control_change"}, {"time": 180550, "annotation": {"number": 11, "value": 5}, "group": "control_change"}, {"time": 180610, "annotation": {"number": 11, "value": 4}, "group": "control_change"}, {"time": 180660, "annotation": {"number": 11, "value": 3}, "group": "control_change"}, {"time": 180770, "annotation": {"number": 11, "value": 2}, "group": "control_change"}, {"time": 180860, "annotation": {"number": 11, "value": 1}, "group": "control_change"}, {"time": 181090, "annotation": {"number": 11, "value": 0}, "group": "control_change"}]}, {"program": 0, "is_drum": true, "name": "Drums", "notes": [{"time": 209, "pitch": 64, "duration": 6, "velocity": 40}, {"time": 411, "pitch": 64, "duration": 6, "velocity": 40}, {"time": 479, "pitch": 40, "duration": 9, "velocity": 106}, {"time": 479, "pitch": 62, "duration": 9, "velocity": 64}, {"time": 958, "pitch": 36, "duration": 10, "velocity": 106}, {"time": 958, "pitch": 49, "duration": 10, "velocity": 92}, {"time": 958, "pitch": 64, "duration": 10, "velocity": 64}, {"time": 958, "pitch": 70, "duration": 10, "velocity": 64}, {"time": 958, "pitch": 82, "duration": 10, "velocity": 30}, {"time": 1078, "pitch": 70, "duration": 10, "velocity": 56}, {"time": 1078, "pitch": 82, "duration": 10, "velocity": 20}, {"time": 1198, "pitch": 42, "duration": 10, "velocity": 78}, {"time": 1198, "pitch": 64, "duration": 10, "velocity": 56}, {"time": 1198, "pitch": 70, "duration": 10, "velocity": 64}, {"time": 1198, "pitch": 82, "duration": 10, "velocity": 80}, {"time": 1318, "pitch": 70, "duration": 10, "velocity": 56}, {"time": 1318, "pitch": 82, "duration": 10, "velocity": 20}, {"time": 1438, "pitch": 36, "duration": 10, "velocity": 106}, {"time": 1438, "pitch": 38, "duration": 10, "velocity": 106}, {"time": 1438, "pitch": 42, "duration": 10, "velocity": 92}, {"time": 1438, "pitch": 62, "duration": 10, "velocity": 80}, {"time": 1438, "pitch": 70, "duration": 10, "velocity": 80}, {"time": 1438, "pitch": 82, "duration": 10, "velocity": 30}, {"time": 1557, "pitch": 70, "duration": 10, "velocity": 56}, {"time": 1557, "pitch": 82, "duration": 10, "velocity": 20}, {"time": 1677, "pitch": 42, "duration": 10, "velocity": 78}, {"time": 1677, "pitch": 64, "duration": 10, "velocity": 56}, {"time": 1677, "pitch": 70, "duration": 10, "velocity": 64}, {"time": 1677, "pitch": 82, "duration": 10, "velocity": 80}, {"time": 1797, "pitch": 70, "duration": 10, "velocity": 56}, {"time": 1797, "pitch": 82, "duration": 10, "velocity": 20}, {"time": 1917, "pitch": 36, "duration": 10, "velocity": 106}, {"time": 1917, "pitch": 42, "duration": 10, "velocity": 92}, {"time": 1917, "pitch": 64, "duration": 10, "velocity": 64}, {"time": 1917, "pitch": 70, "duration": 10, "velocity": 64}, {"time": 1917, "pitch": 82, "duration": 10, "velocity": 30}, {"time": 2039, "pitch": 70, "duration": 10, "velocity": 56}, {"time": 2039, "pitch": 82, "duration": 10, "velocity": 20}, {"time": 2160, "pitch": 42, "duration": 10, "velocity": 78}, {"time": 2160, "pitch": 64, "duration": 10, "velocity": 56}, {"time": 2160, "pitch": 70, "duration": 10, "velocity": 64}, {"time": 2160, "pitch": 82, "duration": 10, "velocity": 80}, {"time": 2281, "pitch": 64, "duration": 11, "velocity": 40}, {"time": 2281, "pitch": 70, "duration": 11, "velocity": 56}, {"time": 2281, "pitch": 82, "duration": 11, "velocity": 20}, {"time": 2403, "pitch": 36, "duration": 10, "velocity": 106}, {"time": 2403, "pitch": 38, "duration": 10, "velocity": 106}, {"time": 2403, "pitch": 42, "duration": 10, "velocity": 92}, {"time": 2403, "pitch": 62, "duration": 10, "velocity": 80}, {"time": 2403, "pitch": 70, "duration": 10, "velocity": 80}, {"time": 2403, "pitch": 82, "duration": 10, "velocity": 30}, {"time": 2523, "pitch": 70, "duration": 10, "velocity": 56}, {"time": 2523, "pitch": 82, "duration": 10, "velocity": 20}, {"time": 2643, "pitch": 42, "duration": 10, "velocity": 78}, {"time": 2643, "pitch": 64, "duration": 10, "velocity": 56}, {"time": 2643, "pitch": 70, "duration": 10, "velocity": 64}, {"time": 2643, "pitch": 82, "duration": 10, "velocity": 80}, {"time": 2763, "pitch": 70, "duration": 10, "velocity": 56}, {"time": 2763, "pitch": 82, "duration": 10, "velocity": 20}, {"time": 2883, "pitch": 36, "duration": 10, "velocity": 106}, {"time": 2883, "pitch": 42, "duration": 10, "velocity": 92}, {"time": 2883, "pitch": 64, "duration": 10, "velocity": 64}, {"time": 2883, "pitch": 70, "duration": 10, "velocity": 64}, {"time": 2883, "pitch": 82, "duration": 10, "velocity": 30}, {"time": 3002, "pitch": 70, "duration": 10, "velocity": 56}, {"time": 3002, "pitch": 82, "duration": 10, "velocity": 20}, {"time": 3122, "pitch": 42, "duration": 10, "velocity": 78}, {"time": 3122, "pitch": 64, "duration": 10, "velocity": 56}, {"time": 3122, "pitch": 70, "duration": 10, "velocity": 64}, {"time": 3122, "pitch": 82, "duration": 10, "velocity": 80}, {"time": 3242, "pitch": 36, "duration": 10, "velocity": 106}, {"time": 3242, "pitch": 70, "duration": 10, "velocity": 56}, {"time": 3242, "pitch": 82, "duration": 10, "velocity": 20}, {"time": 3362, "pitch": 38, "duration": 10, "velocity": 106}, {"time": 3362, "pitch": 42, "duration": 10, "velocity": 92}, {"time": 3362, "pitch": 62, "duration": 10, "velocity": 80}, {"time": 3362, "pitch": 70, "duration": 10, "velocity": 80}, {"time": 3362, "pitch": 82, "duration": 10, "velocity": 30}, {"time": 3482, "pitch": 70, "duration": 10, "velocity": 56}, {"time": 3482, "pitch": 82, "duration": 10, "velocity": 20}, {"time": 3602, "pitch": 42, "duration": 10, "velocity": 78}, {"time": 3602, "pitch": 64, "duration": 10, "velocity": 56}, {"time": 3602, "pitch": 70, "duration": 10, "velocity": 64}, {"time": 3602, "pitch": 82, "duration": 10, "velocity": 80}, {"time": 3722, "pitch": 70, "duration": 10, "velocity": 56}, {"time": 3722, "pitch": 82, "duration": 10, "velocity": 20}, {"time": 3842, "pitch": 36, "duration": 10, "velocity": 106}, {"time": 3842, "pitch": 42, "duration": 10, "velocity": 92}, {"time": 3842, "pitch": 64, "duration": 10, "velocity": 64}, {"time": 3842, "pitch": 70, "duration": 10, "velocity": 64}, {"time": 3842, "pitch": 82, "duration": 10, "velocity": 30}, {"time": 3962, "pitch": 70, "duration": 10, "velocity": 56}, {"time": 3962, "pitch": 82, "duration": 10, "velocity": 20}, {"time": 4082, "pitch": 42, "duration": 10, "velocity": 78}, {"time": 4082, "pitch": 64, "duration": 10, "velocity": 56}, {"time": 4082, "pitch": 70, "duration": 10, "velocity": 64}, {"time": 4082, "pitch": 82, "duration": 10, "velocity": 80}, {"time": 4202, "pitch": 36, "duration": 10, "velocity": 106}, {"time": 4202, "pitch": 64, "duration": 10, "velocity": 40}, {"time": 4202, "pitch": 70, "duration": 10, "velocity": 56}, {"time": 4202, "pitch": 82, "duration": 10, "velocity": 20}, {"time": 4322, "pitch": 38, "duration": 9, "velocity": 106}, {"time": 4322, "pitch": 42, "duration": 9, "velocity": 92}, {"time": 4322, "pitch": 62, "duration": 9, "velocity": 80}, {"time": 4322, "pitch": 70, "duration": 9, "velocity": 80}, {"time": 4322, "pitch": 82, "duration": 9, "velocity": 30}, {"time": 4441, "pitch": 70, "duration": 10, "velocity": 56}, {"time": 4441, "pitch": 82, "duration": 10, "velocity": 20}, {"time": 4561, "pitch": 36, "duration": 10, "velocity": 106}, {"time": 4561, "pitch": 42, "duration": 10, "velocity": 78}, {"time": 4561, "pitch": 64, "duration": 10, "velocity": 56}, {"time": 4561, "pitch": 70, "duration": 10, "velocity": 64}, {"time": 4561, "pitch": 82, "duration": 10, "velocity": 80}, {"time": 4681, "pitch": 70, "duration": 10, "velocity": 56}, {"time": 4681, "pitch": 82, "duration": 10, "velocity": 20}, {"time": 4801, "pitch": 36, "duration": 10, "velocity": 106}, {"time": 4801, "pitch": 42, "duration": 10, "velocity": 92}, {"time": 4801, "pitch": 64, "duration": 10, "velocity": 64}, {"time": 4801, "pitch": 70, "duration": 10, "velocity": 64}, {"time": 4801, "pitch": 82, "duration": 10, "velocity": 30}, {"time": 4921, "pitch": 70, "duration": 10, "velocity": 56}, {"time": 4921, "pitch": 82, "duration": 10, "velocity": 20}, {"time": 5041, "pitch": 42, "duration": 10, "velocity": 78}, {"time": 5041, "pitch": 64, "duration": 10, "velocity": 56}, {"time": 5041, "pitch": 70, "duration": 10, "velocity": 64}, {"time": 5041, "pitch": 82, "duration": 10, "velocity": 80}, {"time": 5161, "pitch": 70, "duration": 10, "velocity": 56}, {"time": 5161, "pitch": 82, "duration": 10, "velocity": 20}, {"time": 5281, "pitch": 36, "duration": 10, "velocity": 106}, {"time": 5281, "pitch": 38, "duration": 10, "velocity": 106}, {"time": 5281, "pitch": 42, "duration": 10, "velocity": 92}, {"time": 5281, "pitch": 62, "duration": 10, "velocity": 80}, {"time": 5281, "pitch": 70, "duration": 10, "velocity": 80}, {"time": 5281, "pitch": 82, "duration": 10, "velocity": 30}, {"time": 5401, "pitch": 70, "duration": 10, "velocity": 56}, {"time": 5401, "pitch": 82, "duration": 10, "velocity": 20}, {"time": 5521, "pitch": 42, "duration": 10, "velocity": 78}, {"time": 5521, "pitch": 64, "duration": 10, "velocity": 56}, {"time": 5521, "pitch": 70, "duration": 10, "velocity": 64}, {"time": 5521, "pitch": 82, "duration": 10, "velocity": 80}, {"time": 5641, "pitch": 70, "duration": 10, "velocity": 56}, {"time": 5641, "pitch": 82, "duration": 10, "velocity": 20}, {"time": 5760, "pitch": 36, "duration": 10, "velocity": 106}, {"time": 5760, "pitch": 42, "duration": 10, "velocity": 92}, {"time": 5760, "pitch": 64, "duration": 10, "velocity": 64}, {"time": 5760, "pitch": 70, "duration": 10, "velocity": 64}, {"time": 5760, "pitch": 82, "duration": 10, "velocity": 30}, {"time": 5880, "pitch": 70, "duration": 10, "velocity": 56}, {"time": 5880, "pitch": 82, "duration": 10, "velocity": 20}, {"time": 6000, "pitch": 42, "duration": 10, "velocity": 78}, {"time": 6000, "pitch": 64, "duration": 10, "velocity": 56}, {"time": 6000, "pitch": 70, "duration": 10, "velocity": 64}, {"time": 6000, "pitch": 82, "duration": 10, "velocity": 80}, {"time": 6120, "pitch": 64, "duration": 10, "velocity": 40}, {"time": 6120, "pitch": 70, "duration": 10, "velocity": 56}, {"time": 6120, "pitch": 82, "duration": 10, "velocity": 20}, {"time": 6240, "pitch": 36, "duration": 10, "velocity": 106}, {"time": 6240, "pitch": 38, "duration": 10, "velocity": 106}, {"time": 6240, "pitch": 42, "duration": 10, "velocity": 92}, {"time": 6240, "pitch": 62, "duration": 10, "velocity": 80}, {"time": 6240, "pitch": 70, "duration": 10, "velocity": 80}, {"time": 6240, "pitch": 82, "duration": 10, "velocity": 30}, {"time": 6360, "pitch": 70, "duration": 10, "velocity": 56}, {"time": 6360, "pitch": 82, "duration": 10, "velocity": 20}, {"time": 6480, "pitch": 42, "duration": 10, "velocity": 78}, {"time": 6480, "pitch": 64, "duration": 10, "velocity": 56}, {"time": 6480, "pitch": 70, "duration": 10, "velocity": 64}, {"time": 6480, "pitch": 82, "duration": 10, "velocity": 80}, {"time": 6600, "pitch": 70, "duration": 10, "velocity": 56}, {"time": 6600, "pitch": 82, "duration": 10, "velocity": 20}, {"time": 6720, "pitch": 36, "duration": 10, "velocity": 106}, {"time": 6720, "pitch": 42, "duration": 10, "velocity": 92}, {"time": 6720, "pitch": 64, "duration": 10, "velocity": 64}, {"time": 6720, "pitch": 70, "duration": 10, "velocity": 64}, {"time": 6720, "pitch": 82, "duration": 10, "velocity": 30}, {"time": 6840, "pitch": 70, "duration": 10, "velocity": 56}, {"time": 6840, "pitch": 82, "duration": 10, "velocity": 20}, {"time": 6960, "pitch": 42, "duration": 10, "velocity": 78}, {"time": 6960, "pitch": 64, "duration": 10, "velocity": 56}, {"time": 6960, "pitch": 70, "duration": 10, "velocity": 64}, {"time": 6960, "pitch": 82, "duration": 10, "velocity": 80}, {"time": 7079, "pitch": 36, "duration": 10, "velocity": 106}, {"time": 7079, "pitch": 70, "duration": 10, "velocity": 56}, {"time": 7079, "pitch": 82, "duration": 10, "velocity": 20}, {"time": 7199, "pitch": 38, "duration": 10, "velocity": 106}, {"time": 7199, "pitch": 42, "duration": 10, "velocity": 92}, {"time": 7199, "pitch": 62, "duration": 10, "velocity": 80}, {"time": 7199, "pitch": 70, "duration": 10, "velocity": 80}, {"time": 7199, "pitch": 82, "duration": 10, "velocity": 30}, {"time": 7319, "pitch": 70, "duration": 10, "velocity": 56}, {"time": 7319, "pitch": 82, "duration": 10, "velocity": 20}, {"time": 7439, "pitch": 42, "duration": 10, "velocity": 78}, {"time": 7439, "pitch": 64, "duration": 10, "velocity": 56}, {"time": 7439, "pitch": 70, "duration": 10, "velocity": 64}, {"time": 7439, "pitch": 82, "duration": 10, "velocity": 80}, {"time": 7559, "pitch": 70, "duration": 10, "velocity": 56}, {"time": 7559, "pitch": 82, "duration": 10, "velocity": 20}, {"time": 7679, "pitch": 36, "duration": 10, "velocity": 106}, {"time": 7679, "pitch": 42, "duration": 10, "velocity": 92}, {"time": 7679, "pitch": 64, "duration": 10, "velocity": 64}, {"time": 7679, "pitch": 70, "duration": 10, "velocity": 64}, {"time": 7679, "pitch": 82, "duration": 10, "velocity": 30}, {"time": 7799, "pitch": 70, "duration": 10, "velocity": 56}, {"time": 7799, "pitch": 82, "duration": 10, "velocity": 20}, {"time": 7919, "pitch": 42, "duration": 10, "velocity": 78}, {"time": 7919, "pitch": 64, "duration": 10, "velocity": 56}, {"time": 7919, "pitch": 70, "duration": 10, "velocity": 64}, {"time": 7919, "pitch": 82, "duration": 10, "velocity": 80}, {"time": 8039, "pitch": 36, "duration": 10, "velocity": 106}, {"time": 8039, "pitch": 64, "duration": 10, "velocity": 40}, {"time": 8039, "pitch": 70, "duration": 10, "velocity": 56}, {"time": 8039, "pitch": 82, "duration": 10, "velocity": 20}, {"time": 8159, "pitch": 38, "duration": 10, "velocity": 106}, {"time": 8159, "pitch": 42, "duration": 10, "velocity": 92}, {"time": 8159, "pitch": 62, "duration": 10, "velocity": 80}, {"time": 8159, "pitch": 70, "duration": 10, "velocity": 80}, {"time": 8159, "pitch": 82, "duration": 10, "velocity": 30}, {"time": 8279, "pitch": 70, "duration": 10, "velocity": 56}, {"time": 8279, "pitch": 82, "duration": 10, "velocity": 20}, {"time": 8399, "pitch": 36, "duration": 10, "velocity": 106}, {"time": 8399, "pitch": 42, "duration": 10, "velocity": 78}, {"time": 8399, "pitch": 64, "duration": 10, "velocity": 56}, {"time": 8399, "pitch": 70, "duration": 10, "velocity": 64}, {"time": 8399, "pitch": 82, "duration": 10, "velocity": 80}, {"time": 8518, "pitch": 70, "duration": 10, "velocity": 56}, {"time": 8518, "pitch": 82, "duration": 10, "velocity": 20}, {"time": 8638, "pitch": 36, "duration": 10, "velocity": 106}, {"time": 8638, "pitch": 42, "duration": 10, "velocity": 92}, {"time": 8638, "pitch": 64, "duration": 10, "velocity": 64}, {"time": 8638, "pitch": 70, "duration": 10, "velocity": 64}, {"time": 8638, "pitch": 82, "duration": 10, "velocity": 30}, {"time": 8758, "pitch": 70, "duration": 10, "velocity": 56}, {"time": 8758, "pitch": 82, "duration": 10, "velocity": 20}, {"time": 8878, "pitch": 42, "duration": 10, "velocity": 78}, {"time": 8878, "pitch": 64, "duration": 10, "velocity": 56}, {"time": 8878, "pitch": 70, "duration": 10, "velocity": 64}, {"time": 8878, "pitch": 82, "duration": 10, "velocity": 80}, {"time": 8998, "pitch": 70, "duration": 10, "velocity": 56}, {"time": 8998, "pitch": 82, "duration": 10, "velocity": 20}, {"time": 9118, "pitch": 36, "duration": 10, "velocity": 106}, {"time": 9118, "pitch": 38, "duration": 10, "velocity": 106}, {"time": 9118, "pitch": 42, "duration": 10, "velocity": 92}, {"time": 9118, "pitch": 62, "duration": 10, "velocity": 80}, {"time": 9118, "pitch": 70, "duration": 10, "velocity": 80}, {"time": 9118, "pitch": 82, "duration": 10, "velocity": 30}, {"time": 9238, "pitch": 70, "duration": 10, "velocity": 56}, {"time": 9238, "pitch": 82, "duration": 10, "velocity": 20}, {"time": 9358, "pitch": 42, "duration": 10, "velocity": 78}, {"time": 9358, "pitch": 64, "duration": 10, "velocity": 56}, {"time": 9358, "pitch": 70, "duration": 10, "velocity": 64}, {"time": 9358, "pitch": 82, "duration": 10, "velocity": 80}, {"time": 9478, "pitch": 70, "duration": 10, "velocity": 56}, {"time": 9478, "pitch": 82, "duration": 10, "velocity": 20}, {"time": 9598, "pitch": 36, "duration": 10, "velocity": 106}, {"time": 9598, "pitch": 42, "duration": 10, "velocity": 92}, {"time": 9598, "pitch": 64, "duration": 10, "velocity": 64}, {"time": 9598, "pitch": 70, "duration": 10, "velocity": 64}, {"time": 9598, "pitch": 82, "duration": 10, "velocity": 30}, {"time": 9718, "pitch": 70, "duration": 10, "velocity": 56}, {"time": 9718, "pitch": 82, "duration": 10, "velocity": 20}, {"time": 9837, "pitch": 42, "duration": 10, "velocity": 78}, {"time": 9837, "pitch": 64, "duration": 10, "velocity": 56}, {"time": 9837, "pitch": 70, "duration": 10, "velocity": 64}, {"time": 9837, "pitch": 82, "duration": 10, "velocity": 80}, {"time": 9957, "pitch": 64, "duration": 10, "velocity": 40}, {"time": 9957, "pitch": 70, "duration": 10, "velocity": 56}, {"time": 9957, "pitch": 82, "duration": 10, "velocity": 20}, {"time": 10077, "pitch": 36, "duration": 10, "velocity": 106}, {"time": 10077, "pitch": 38, "duration": 10, "velocity": 106}, {"time": 10077, "pitch": 42, "duration": 10, "velocity": 92}, {"time": 10077, "pitch": 62, "duration": 10, "velocity": 80}, {"time": 10077, "pitch": 70, "duration": 10, "velocity": 80}, {"time": 10077, "pitch": 82, "duration": 10, "velocity": 30}, {"time": 10199, "pitch": 70, "duration": 10, "velocity": 56}, {"time": 10199, "pitch": 82, "duration": 10, "velocity": 20}, {"time": 10320, "pitch": 42, "duration": 10, "velocity": 78}, {"time": 10320, "pitch": 64, "duration": 10, "velocity": 56}, {"time": 10320, "pitch": 70, "duration": 10, "velocity": 64}, {"time": 10320, "pitch": 82, "duration": 10, "velocity": 80}, {"time": 10442, "pitch": 70, "duration": 10, "velocity": 56}, {"time": 10442, "pitch": 82, "duration": 10, "velocity": 20}, {"time": 10563, "pitch": 36, "duration": 10, "velocity": 106}, {"time": 10563, "pitch": 42, "duration": 10, "velocity": 92}, {"time": 10563, "pitch": 64, "duration": 10, "velocity": 64}, {"time": 10563, "pitch": 70, "duration": 10, "velocity": 64}, {"time": 10563, "pitch": 82, "duration": 10, "velocity": 30}, {"time": 10683, "pitch": 70, "duration": 10, "velocity": 56}, {"time": 10683, "pitch": 82, "duration": 10, "velocity": 20}, {"time": 10803, "pitch": 42, "duration": 10, "velocity": 78}, {"time": 10803, "pitch": 64, "duration": 10, "velocity": 56}, {"time": 10803, "pitch": 70, "duration": 10, "velocity": 64}, {"time": 10803, "pitch": 82, "duration": 10, "velocity": 80}, {"time": 10923, "pitch": 36, "duration": 10, "velocity": 106}, {"time": 10923, "pitch": 70, "duration": 10, "velocity": 56}, {"time": 10923, "pitch": 82, "duration": 10, "velocity": 20}, {"time": 11043, "pitch": 38, "duration": 10, "velocity": 106}, {"time": 11043, "pitch": 42, "duration": 10, "velocity": 92}, {"time": 11043, "pitch": 62, "duration": 10, "velocity": 80}, {"time": 11043, "pitch": 70, "duration": 10, "velocity": 80}, {"time": 11043, "pitch": 82, "duration": 10, "velocity": 30}, {"time": 11163, "pitch": 70, "duration": 10, "velocity": 56}, {"time": 11163, "pitch": 82, "duration": 10, "velocity": 20}, {"time": 11282, "pitch": 42, "duration": 10, "velocity": 78}, {"time": 11282, "pitch": 64, "duration": 10, "velocity": 56}, {"time": 11282, "pitch": 70, "duration": 10, "velocity": 64}, {"time": 11282, "pitch": 82, "duration": 10, "velocity": 80}, {"time": 11402, "pitch": 70, "duration": 10, "velocity": 56}, {"time": 11402, "pitch": 82, "duration": 10, "velocity": 20}, {"time": 11522, "pitch": 36, "duration": 10, "velocity": 106}, {"time": 11522, "pitch": 42, "duration": 10, "velocity": 92}, {"time": 11522, "pitch": 64, "duration": 10, "velocity": 64}, {"time": 11522, "pitch": 70, "duration": 10, "velocity": 64}, {"time": 11522, "pitch": 82, "duration": 10, "velocity": 30}, {"time": 11642, "pitch": 70, "duration": 10, "velocity": 56}, {"time": 11642, "pitch": 82, "duration": 10, "velocity": 20}, {"time": 11762, "pitch": 42, "duration": 10, "velocity": 78}, {"time": 11762, "pitch": 64, "duration": 10, "velocity": 56}, {"time": 11762, "pitch": 70, "duration": 10, "velocity": 64}, {"time": 11762, "pitch": 82, "duration": 10, "velocity": 80}, {"time": 11882, "pitch": 36, "duration": 10, "velocity": 106}, {"time": 11882, "pitch": 64, "duration": 10, "velocity": 40}, {"time": 11882, "pitch": 70, "duration": 10, "velocity": 56}, {"time": 11882, "pitch": 82, "duration": 10, "velocity": 20}, {"time": 12002, "pitch": 38, "duration": 10, "velocity": 106}, {"time": 12002, "pitch": 42, "duration": 10, "velocity": 92}, {"time": 12002, "pitch": 62, "duration": 10, "velocity": 80}, {"time": 12002, "pitch": 70, "duration": 10, "velocity": 80}, {"time": 12002, "pitch": 82, "duration": 10, "velocity": 30}, {"time": 12122, "pitch": 70, "duration": 10, "velocity": 56}, {"time": 12122, "pitch": 82, "duration": 10, "velocity": 20}, {"time": 12242, "pitch": 36, "duration": 10, "velocity": 106}, {"time": 12242, "pitch": 42, "duration": 10, "velocity": 78}, {"time": 12242, "pitch": 64, "duration": 10, "velocity": 56}, {"time": 12242, "pitch": 70, "duration": 10, "velocity": 64}, {"time": 12242, "pitch": 82, "duration": 10, "velocity": 80}, {"time": 12362, "pitch": 70, "duration": 10, "velocity": 56}, {"time": 12362, "pitch": 82, "duration": 10, "velocity": 20}, {"time": 12482, "pitch": 36, "duration": 10, "velocity": 106}, {"time": 12482, "pitch": 42, "duration": 10, "velocity": 92}, {"time": 12482, "pitch": 64, "duration": 10, "velocity": 64}, {"time": 12482, "pitch": 70, "duration": 10, "velocity": 64}, {"time": 12482, "pitch": 82, "duration": 10, "velocity": 30}, {"time": 12602, "pitch": 70, "duration": 10, "velocity": 56}, {"time": 12602, "pitch": 82, "duration": 10, "velocity": 20}, {"time": 12721, "pitch": 42, "duration": 10, "velocity": 78}, {"time": 12721, "pitch": 64, "duration": 10, "velocity": 56}, {"time": 12721, "pitch": 70, "duration": 10, "velocity": 64}, {"time": 12721, "pitch": 82, "duration": 10, "velocity": 80}, {"time": 12841, "pitch": 70, "duration": 10, "velocity": 56}, {"time": 12841, "pitch": 82, "duration": 10, "velocity": 20}, {"time": 12961, "pitch": 36, "duration": 10, "velocity": 106}, {"time": 12961, "pitch": 38, "duration": 10, "velocity": 106}, {"time": 12961, "pitch": 42, "duration": 10, "velocity": 92}, {"time": 12961, "pitch": 62, "duration": 10, "velocity": 80}, {"time": 12961, "pitch": 70, "duration": 10, "velocity": 80}, {"time": 12961, "pitch": 82, "duration": 10, "velocity": 30}, {"time": 13081, "pitch": 70, "duration": 10, "velocity": 56}, {"time": 13081, "pitch": 82, "duration": 10, "velocity": 20}, {"time": 13201, "pitch": 42, "duration": 10, "velocity": 78}, {"time": 13201, "pitch": 64, "duration": 10, "velocity": 56}, {"time": 13201, "pitch": 70, "duration": 10, "velocity": 64}, {"time": 13201, "pitch": 82, "duration": 10, "velocity": 80}, {"time": 13321, "pitch": 70, "duration": 10, "velocity": 56}, {"time": 13321, "pitch": 82, "duration": 10, "velocity": 20}, {"time": 13441, "pitch": 36, "duration": 10, "velocity": 106}, {"time": 13441, "pitch": 42, "duration": 10, "velocity": 92}, {"time": 13441, "pitch": 64, "duration": 10, "velocity": 64}, {"time": 13441, "pitch": 70, "duration": 10, "velocity": 64}, {"time": 13441, "pitch": 82, "duration": 10, "velocity": 30}, {"time": 13561, "pitch": 70, "duration": 10, "velocity": 56}, {"time": 13561, "pitch": 82, "duration": 10, "velocity": 20}, {"time": 13681, "pitch": 42, "duration": 10, "velocity": 78}, {"time": 13681, "pitch": 64, "duration": 10, "velocity": 56}, {"time": 13681, "pitch": 70, "duration": 10, "velocity": 64}, {"time": 13681, "pitch": 82, "duration": 10, "velocity": 80}, {"time": 13801, "pitch": 64, "duration": 10, "velocity": 40}, {"time": 13801, "pitch": 70, "duration": 10, "velocity": 56}, {"time": 13801, "pitch": 82, "duration": 10, "velocity": 20}, {"time": 13921, "pitch": 36, "duration": 10, "velocity": 106}, {"time": 13921, "pitch": 38, "duration": 10, "velocity": 106}, {"time": 13921, "pitch": 42, "duration": 10, "velocity": 92}, {"time": 13921, "pitch": 62, "duration": 10, "velocity": 80}, {"time": 13921, "pitch": 70, "duration": 10, "velocity": 80}, {"time": 13921, "pitch": 82, "duration": 10, "velocity": 30}, {"time": 14040, "pitch": 70, "duration": 10, "velocity": 56}, {"time": 14040, "pitch": 82, "duration": 10, "velocity": 20}, {"time": 14160, "pitch": 42, "duration": 10, "velocity": 78}, {"time": 14160, "pitch": 64, "duration": 10, "velocity": 56}, {"time": 14160, "pitch": 70, "duration": 10, "velocity": 64}, {"time": 14160, "pitch": 82, "duration": 10, "velocity": 80}, {"time": 14280, "pitch": 70, "duration": 10, "velocity": 56}, {"time": 14280, "pitch": 82, "duration": 10, "velocity": 20}, {"time": 14400, "pitch": 36, "duration": 10, "velocity": 106}, {"time": 14400, "pitch": 42, "duration": 10, "velocity": 92}, {"time": 14400, "pitch": 64, "duration": 10, "velocity": 64}, {"time": 14400, "pitch": 70, "duration": 10, "velocity": 64}, {"time": 14400, "pitch": 82, "duration": 10, "velocity": 30}, {"time": 14520, "pitch": 70, "duration": 10, "velocity": 56}, {"time": 14520, "pitch": 82, "duration": 10, "velocity": 20}, {"time": 14640, "pitch": 42, "duration": 10, "velocity": 78}, {"time": 14640, "pitch": 64, "duration": 10, "velocity": 56}, {"time": 14640, "pitch": 70, "duration": 10, "velocity": 64}, {"time": 14640, "pitch": 82, "duration": 10, "velocity": 80}, {"time": 14760, "pitch": 36, "duration": 10, "velocity": 106}, {"time": 14760, "pitch": 70, "duration": 10, "velocity": 56}, {"time": 14760, "pitch": 82, "duration": 10, "velocity": 20}, {"time": 14880, "pitch": 38, "duration": 10, "velocity": 106}, {"time": 14880, "pitch": 42, "duration": 10, "velocity": 92}, {"time": 14880, "pitch": 62, "duration": 10, "velocity": 80}, {"time": 14880, "pitch": 70, "duration": 10, "velocity": 80}, {"time": 14880, "pitch": 82, "duration": 10, "velocity": 30}, {"time": 15000, "pitch": 70, "duration": 10, "velocity": 56}, {"time": 15000, "pitch": 82, "duration": 10, "velocity": 20}, {"time": 15120, "pitch": 42, "duration": 10, "velocity": 78}, {"time": 15120, "pitch": 64, "duration": 10, "velocity": 56}, {"time": 15120, "pitch": 70, "duration": 10, "velocity": 64}, {"time": 15120, "pitch": 82, "duration": 10, "velocity": 80}, {"time": 15240, "pitch": 70, "duration": 10, "velocity": 56}, {"time": 15240, "pitch": 82, "duration": 10, "velocity": 20}, {"time": 15359, "pitch": 36, "duration": 10, "velocity": 106}, {"time": 15359, "pitch": 42, "duration": 10, "velocity": 92}, {"time": 15359, "pitch": 64, "duration": 10, "velocity": 64}, {"time": 15359, "pitch": 70, "duration": 10, "velocity": 64}, {"time": 15359, "pitch": 82, "duration": 10, "velocity": 30}, {"time": 15479, "pitch": 70, "duration": 10, "velocity": 56}, {"time": 15479, "pitch": 82, "duration": 10, "velocity": 20}, {"time": 15599, "pitch": 42, "duration": 10, "velocity": 78}, {"time": 15599, "pitch": 64, "duration": 10, "velocity": 56}, {"time": 15599, "pitch": 70, "duration": 10, "velocity": 64}, {"time": 15599, "pitch": 82, "duration": 10, "velocity": 80}, {"time": 15719, "pitch": 36, "duration": 10, "velocity": 106}, {"time": 15719, "pitch": 64, "duration": 10, "velocity": 40}, {"time": 15719, "pitch": 70, "duration": 10, "velocity": 56}, {"time": 15719, "pitch": 82, "duration": 10, "velocity": 20}, {"time": 15839, "pitch": 38, "duration": 10, "velocity": 106}, {"time": 15839, "pitch": 42, "duration": 10, "velocity": 92}, {"time": 15839, "pitch": 62, "duration": 10, "velocity": 80}, {"time": 15839, "pitch": 70, "duration": 10, "velocity": 80}, {"time": 15839, "pitch": 82, "duration": 10, "velocity": 30}, {"time": 15959, "pitch": 70, "duration": 10, "velocity": 56}, {"time": 15959, "pitch": 82, "duration": 10, "velocity": 20}, {"time": 16079, "pitch": 36, "duration": 10, "velocity": 106}, {"time": 16079, "pitch": 42, "duration": 10, "velocity": 78}, {"time": 16079, "pitch": 64, "duration": 10, "velocity": 56}, {"time": 16079, "pitch": 70, "duration": 10, "velocity": 64}, {"time": 16079, "pitch": 82, "duration": 10, "velocity": 80}, {"time": 16199, "pitch": 70, "duration": 10, "velocity": 56}, {"time": 16199, "pitch": 82, "duration": 10, "velocity": 20}, {"time": 16319, "pitch": 36, "duration": 10, "velocity": 106}, {"time": 16319, "pitch": 42, "duration": 10, "velocity": 92}, {"time": 16319, "pitch": 64, "duration": 10, "velocity": 64}, {"time": 16319, "pitch": 70, "duration": 10, "velocity": 64}, {"time": 16319, "pitch": 82, "duration": 10, "velocity": 30}, {"time": 16439, "pitch": 70, "duration": 10, "velocity": 56}, {"time": 16439, "pitch": 82, "duration": 10, "velocity": 20}, {"time": 16559, "pitch": 42, "duration": 10, "velocity": 78}, {"time": 16559, "pitch": 64, "duration": 10, "velocity": 56}, {"time": 16559, "pitch": 70, "duration": 10, "velocity": 64}, {"time": 16559, "pitch": 82, "duration": 10, "velocity": 80}, {"time": 16679, "pitch": 36, "duration": 10, "velocity": 106}, {"time": 16679, "pitch": 70, "duration": 10, "velocity": 56}, {"time": 16679, "pitch": 82, "duration": 10, "velocity": 20}, {"time": 16798, "pitch": 38, "duration": 10, "velocity": 106}, {"time": 16798, "pitch": 42, "duration": 10, "velocity": 92}, {"time": 16798, "pitch": 62, "duration": 10, "velocity": 80}, {"time": 16798, "pitch": 70, "duration": 10, "velocity": 80}, {"time": 16798, "pitch": 82, "duration": 10, "velocity": 30}, {"time": 16918, "pitch": 70, "duration": 10, "velocity": 56}, {"time": 16918, "pitch": 82, "duration": 10, "velocity": 20}, {"time": 17038, "pitch": 42, "duration": 10, "velocity": 78}, {"time": 17038, "pitch": 64, "duration": 10, "velocity": 56}, {"time": 17038, "pitch": 70, "duration": 10, "velocity": 64}, {"time": 17038, "pitch": 82, "duration": 10, "velocity": 80}, {"time": 17158, "pitch": 70, "duration": 10, "velocity": 56}, {"time": 17158, "pitch": 82, "duration": 10, "velocity": 20}, {"time": 17278, "pitch": 36, "duration": 10, "velocity": 106}, {"time": 17278, "pitch": 42, "duration": 10, "velocity": 92}, {"time": 17278, "pitch": 64, "duration": 10, "velocity": 64}, {"time": 17278, "pitch": 70, "duration": 10, "velocity": 64}, {"time": 17278, "pitch": 82, "duration": 10, "velocity": 30}, {"time": 17398, "pitch": 70, "duration": 10, "velocity": 56}, {"time": 17398, "pitch": 82, "duration": 10, "velocity": 20}, {"time": 17518, "pitch": 42, "duration": 10, "velocity": 78}, {"time": 17518, "pitch": 64, "duration": 10, "velocity": 56}, {"time": 17518, "pitch": 70, "duration": 10, "velocity": 64}, {"time": 17518, "pitch": 82, "duration": 10, "velocity": 80}, {"time": 17638, "pitch": 36, "duration": 10, "velocity": 106}, {"time": 17638, "pitch": 64, "duration": 10, "velocity": 40}, {"time": 17638, "pitch": 70, "duration": 10, "velocity": 56}, {"time": 17638, "pitch": 82, "duration": 10, "velocity": 20}, {"time": 17758, "pitch": 38, "duration": 10, "velocity": 106}, {"time": 17758, "pitch": 42, "duration": 10, "velocity": 92}, {"time": 17758, "pitch": 62, "duration": 10, "velocity": 80}, {"time": 17758, "pitch": 70, "duration": 10, "velocity": 80}, {"time": 17758, "pitch": 82, "duration": 10, "velocity": 30}, {"time": 17878, "pitch": 70, "duration": 10, "velocity": 56}, {"time": 17878, "pitch": 82, "duration": 10, "velocity": 20}, {"time": 17998, "pitch": 42, "duration": 10, "velocity": 78}, {"time": 17998, "pitch": 64, "duration": 10, "velocity": 56}, {"time": 17998, "pitch": 70, "duration": 10, "velocity": 64}, {"time": 17998, "pitch": 82, "duration": 10, "velocity": 80}, {"time": 18117, "pitch": 70, "duration": 10, "velocity": 56}, {"time": 18117, "pitch": 82, "duration": 10, "velocity": 20}, {"time": 18237, "pitch": 36, "duration": 10, "velocity": 106}, {"time": 18237, "pitch": 42, "duration": 10, "velocity": 92}, {"time": 18237, "pitch": 64, "duration": 10, "velocity": 64}, {"time": 18237, "pitch": 70, "duration": 10, "velocity": 64}, {"time": 18237, "pitch": 82, "duration": 10, "velocity": 30}, {"time": 18357, "pitch": 70, "duration": 10, "velocity": 56}, {"time": 18357, "pitch": 82, "duration": 10, "velocity": 20}, {"time": 18477, "pitch": 42, "duration": 10, "velocity": 78}, {"time": 18477, "pitch": 64, "duration": 10, "velocity": 56}, {"time": 18477, "pitch": 70, "duration": 10, "velocity": 64}, {"time": 18477, "pitch": 82, "duration": 10, "velocity": 80}, {"time": 18597, "pitch": 70, "duration": 10, "velocity": 56}, {"time": 18597, "pitch": 82, "duration": 10, "velocity": 20}, {"time": 18717, "pitch": 38, "duration": 10, "velocity": 106}, {"time": 18717, "pitch": 42, "duration": 10, "velocity": 92}, {"time": 18717, "pitch": 62, "duration": 10, "velocity": 80}, {"time": 18717, "pitch": 70, "duration": 10, "velocity": 80}, {"time": 18717, "pitch": 82, "duration": 10, "velocity": 30}, {"time": 18838, "pitch": 70, "duration": 11, "velocity": 56}, {"time": 18838, "pitch": 82, "duration": 11, "velocity": 20}, {"time": 18960, "pitch": 42, "duration": 10, "velocity": 78}, {"time": 18960, "pitch": 64, "duration": 10, "velocity": 56}, {"time": 18960, "pitch": 70, "duration": 10, "velocity": 64}, {"time": 18960, "pitch": 82, "duration": 10, "velocity": 80}, {"time": 19081, "pitch": 70, "duration": 10, "velocity": 56}, {"time": 19081, "pitch": 82, "duration": 10, "velocity": 20}, {"time": 19203, "pitch": 36, "duration": 10, "velocity": 106}, {"time": 19203, "pitch": 42, "duration": 10, "velocity": 92}, {"time": 19203, "pitch": 64, "duration": 10, "velocity": 64}, {"time": 19203, "pitch": 70, "duration": 10, "velocity": 64}, {"time": 19203, "pitch": 82, "duration": 10, "velocity": 30}, {"time": 19323, "pitch": 70, "duration": 10, "velocity": 56}, {"time": 19323, "pitch": 82, "duration": 10, "velocity": 20}, {"time": 19443, "pitch": 42, "duration": 10, "velocity": 78}, {"time": 19443, "pitch": 64, "duration": 10, "velocity": 56}, {"time": 19443, "pitch": 70, "duration": 10, "velocity": 64}, {"time": 19443, "pitch": 82, "duration": 10, "velocity": 80}, {"time": 19562, "pitch": 36, "duration": 10, "velocity": 106}, {"time": 19562, "pitch": 64, "duration": 10, "velocity": 40}, {"time": 19562, "pitch": 70, "duration": 10, "velocity": 56}, {"time": 19562, "pitch": 82, "duration": 10, "velocity": 20}, {"time": 19682, "pitch": 38, "duration": 10, "velocity": 106}, {"time": 19682, "pitch": 42, "duration": 10, "velocity": 92}, {"time": 19682, "pitch": 62, "duration": 10, "velocity": 80}, {"time": 19682, "pitch": 70, "duration": 10, "velocity": 80}, {"time": 19682, "pitch": 82, "duration": 10, "velocity": 30}, {"time": 19802, "pitch": 70, "duration": 10, "velocity": 56}, {"time": 19802, "pitch": 82, "duration": 10, "velocity": 20}, {"time": 19922, "pitch": 42, "duration": 10, "velocity": 78}, {"time": 19922, "pitch": 64, "duration": 10, "velocity": 56}, {"time": 19922, "pitch": 70, "duration": 10, "velocity": 64}, {"time": 19922, "pitch": 82, "duration": 10, "velocity": 80}, {"time": 20042, "pitch": 70, "duration": 10, "velocity": 56}, {"time": 20042, "pitch": 82, "duration": 10, "velocity": 20}, {"time": 20162, "pitch": 36, "duration": 10, "velocity": 106}, {"time": 20162, "pitch": 42, "duration": 10, "velocity": 92}, {"time": 20162, "pitch": 64, "duration": 10, "velocity": 64}, {"time": 20162, "pitch": 70, "duration": 10, "velocity": 64}, {"time": 20162, "pitch": 82, "duration": 10, "velocity": 30}, {"time": 20282, "pitch": 70, "duration": 10, "velocity": 56}, {"time": 20282, "pitch": 82, "duration": 10, "velocity": 20}, {"time": 20402, "pitch": 42, "duration": 10, "velocity": 78}, {"time": 20402, "pitch": 64, "duration": 10, "velocity": 56}, {"time": 20402, "pitch": 70, "duration": 10, "velocity": 64}, {"time": 20402, "pitch": 82, "duration": 10, "velocity": 80}, {"time": 20522, "pitch": 36, "duration": 10, "velocity": 106}, {"time": 20522, "pitch": 70, "duration": 10, "velocity": 56}, {"time": 20522, "pitch": 82, "duration": 10, "velocity": 20}, {"time": 20642, "pitch": 38, "duration": 10, "velocity": 106}, {"time": 20642, "pitch": 42, "duration": 10, "velocity": 92}, {"time": 20642, "pitch": 62, "duration": 10, "velocity": 80}, {"time": 20642, "pitch": 70, "duration": 10, "velocity": 80}, {"time": 20642, "pitch": 82, "duration": 10, "velocity": 30}, {"time": 20762, "pitch": 70, "duration": 10, "velocity": 56}, {"time": 20762, "pitch": 82, "duration": 10, "velocity": 20}, {"time": 20882, "pitch": 42, "duration": 10, "velocity": 78}, {"time": 20882, "pitch": 64, "duration": 10, "velocity": 56}, {"time": 20882, "pitch": 70, "duration": 10, "velocity": 64}, {"time": 20882, "pitch": 82, "duration": 10, "velocity": 80}, {"time": 21001, "pitch": 70, "duration": 10, "velocity": 56}, {"time": 21001, "pitch": 82, "duration": 10, "velocity": 20}, {"time": 21121, "pitch": 36, "duration": 10, "velocity": 106}, {"time": 21121, "pitch": 42, "duration": 10, "velocity": 92}, {"time": 21121, "pitch": 64, "duration": 10, "velocity": 64}, {"time": 21121, "pitch": 70, "duration": 10, "velocity": 64}, {"time": 21121, "pitch": 82, "duration": 10, "velocity": 30}, {"time": 21241, "pitch": 70, "duration": 10, "velocity": 56}, {"time": 21241, "pitch": 82, "duration": 10, "velocity": 20}, {"time": 21361, "pitch": 42, "duration": 10, "velocity": 78}, {"time": 21361, "pitch": 64, "duration": 10, "velocity": 56}, {"time": 21361, "pitch": 70, "duration": 10, "velocity": 64}, {"time": 21361, "pitch": 82, "duration": 10, "velocity": 80}, {"time": 21481, "pitch": 36, "duration": 10, "velocity": 106}, {"time": 21481, "pitch": 64, "duration": 10, "velocity": 40}, {"time": 21481, "pitch": 70, "duration": 10, "velocity": 56}, {"time": 21481, "pitch": 82, "duration": 10, "velocity": 20}, {"time": 21601, "pitch": 38, "duration": 10, "velocity": 106}, {"time": 21601, "pitch": 42, "duration": 10, "velocity": 92}, {"time": 21601, "pitch": 62, "duration": 10, "velocity": 80}, {"time": 21601, "pitch": 70, "duration": 10, "velocity": 80}, {"time": 21601, "pitch": 82, "duration": 10, "velocity": 30}, {"time": 21721, "pitch": 70, "duration": 10, "velocity": 56}, {"time": 21721, "pitch": 82, "duration": 10, "velocity": 20}, {"time": 21841, "pitch": 42, "duration": 10, "velocity": 78}, {"time": 21841, "pitch": 64, "duration": 10, "velocity": 56}, {"time": 21841, "pitch": 70, "duration": 10, "velocity": 64}, {"time": 21841, "pitch": 82, "duration": 10, "velocity": 80}, {"time": 21961, "pitch": 70, "duration": 10, "velocity": 56}, {"time": 21961, "pitch": 82, "duration": 10, "velocity": 20}, {"time": 22081, "pitch": 36, "duration": 10, "velocity": 106}, {"time": 22081, "pitch": 42, "duration": 10, "velocity": 92}, {"time": 22081, "pitch": 64, "duration": 10, "velocity": 64}, {"time": 22081, "pitch": 70, "duration": 10, "velocity": 64}, {"time": 22081, "pitch": 82, "duration": 10, "velocity": 30}, {"time": 22201, "pitch": 70, "duration": 10, "velocity": 56}, {"time": 22201, "pitch": 82, "duration": 10, "velocity": 20}, {"time": 22320, "pitch": 42, "duration": 10, "velocity": 78}, {"time": 22320, "pitch": 64, "duration": 10, "velocity": 56}, {"time": 22320, "pitch": 70, "duration": 10, "velocity": 64}, {"time": 22320, "pitch": 82, "duration": 10, "velocity": 80}, {"time": 22440, "pitch": 70, "duration": 10, "velocity": 56}, {"time": 22440, "pitch": 82, "duration": 10, "velocity": 20}, {"time": 22560, "pitch": 38, "duration": 10, "velocity": 106}, {"time": 22560, "pitch": 42, "duration": 10, "velocity": 92}, {"time": 22560, "pitch": 62, "duration": 10, "velocity": 80}, {"time": 22560, "pitch": 70, "duration": 10, "velocity": 80}, {"time": 22560, "pitch": 82, "duration": 10, "velocity": 30}, {"time": 22680, "pitch": 70, "duration": 10, "velocity": 56}, {"time": 22680, "pitch": 82, "duration": 10, "velocity": 20}, {"time": 22800, "pitch": 42, "duration": 10, "velocity": 78}, {"time": 22800, "pitch": 64, "duration": 10, "velocity": 56}, {"time": 22800, "pitch": 70, "duration": 10, "velocity": 64}, {"time": 22800, "pitch": 82, "duration": 10, "velocity": 80}, {"time": 22920, "pitch": 70, "duration": 10, "velocity": 56}, {"time": 22920, "pitch": 82, "duration": 10, "velocity": 20}, {"time": 23040, "pitch": 36, "duration": 10, "velocity": 106}, {"time": 23040, "pitch": 42, "duration": 10, "velocity": 92}, {"time": 23040, "pitch": 64, "duration": 10, "velocity": 64}, {"time": 23040, "pitch": 70, "duration": 10, "velocity": 64}, {"time": 23040, "pitch": 82, "duration": 10, "velocity": 30}, {"time": 23160, "pitch": 70, "duration": 10, "velocity": 56}, {"time": 23160, "pitch": 82, "duration": 10, "velocity": 20}, {"time": 23280, "pitch": 42, "duration": 10, "velocity": 78}, {"time": 23280, "pitch": 64, "duration": 10, "velocity": 56}, {"time": 23280, "pitch": 70, "duration": 10, "velocity": 64}, {"time": 23280, "pitch": 82, "duration": 10, "velocity": 80}, {"time": 23400, "pitch": 36, "duration": 10, "velocity": 106}, {"time": 23400, "pitch": 64, "duration": 10, "velocity": 40}, {"time": 23400, "pitch": 70, "duration": 10, "velocity": 56}, {"time": 23400, "pitch": 82, "duration": 10, "velocity": 20}, {"time": 23520, "pitch": 38, "duration": 10, "velocity": 106}, {"time": 23520, "pitch": 42, "duration": 10, "velocity": 92}, {"time": 23520, "pitch": 62, "duration": 10, "velocity": 80}, {"time": 23520, "pitch": 70, "duration": 10, "velocity": 80}, {"time": 23520, "pitch": 82, "duration": 10, "velocity": 30}, {"time": 23639, "pitch": 70, "duration": 10, "velocity": 56}, {"time": 23639, "pitch": 82, "duration": 10, "velocity": 20}, {"time": 23759, "pitch": 42, "duration": 10, "velocity": 78}, {"time": 23759, "pitch": 64, "duration": 10, "velocity": 56}, {"time": 23759, "pitch": 70, "duration": 10, "velocity": 64}, {"time": 23759, "pitch": 82, "duration": 10, "velocity": 80}, {"time": 23879, "pitch": 70, "duration": 10, "velocity": 56}, {"time": 23879, "pitch": 82, "duration": 10, "velocity": 20}, {"time": 23999, "pitch": 36, "duration": 10, "velocity": 106}, {"time": 23999, "pitch": 42, "duration": 10, "velocity": 92}, {"time": 23999, "pitch": 64, "duration": 10, "velocity": 64}, {"time": 23999, "pitch": 70, "duration": 10, "velocity": 64}, {"time": 23999, "pitch": 82, "duration": 10, "velocity": 30}, {"time": 24119, "pitch": 70, "duration": 10, "velocity": 56}, {"time": 24119, "pitch": 82, "duration": 10, "velocity": 20}, {"time": 24239, "pitch": 42, "duration": 10, "velocity": 78}, {"time": 24239, "pitch": 64, "duration": 10, "velocity": 56}, {"time": 24239, "pitch": 70, "duration": 10, "velocity": 64}, {"time": 24239, "pitch": 82, "duration": 10, "velocity": 80}, {"time": 24359, "pitch": 36, "duration": 10, "velocity": 106}, {"time": 24359, "pitch": 70, "duration": 10, "velocity": 56}, {"time": 24359, "pitch": 82, "duration": 10, "velocity": 20}, {"time": 24479, "pitch": 38, "duration": 10, "velocity": 106}, {"time": 24479, "pitch": 42, "duration": 10, "velocity": 92}, {"time": 24479, "pitch": 62, "duration": 10, "velocity": 80}, {"time": 24479, "pitch": 70, "duration": 10, "velocity": 80}, {"time": 24479, "pitch": 82, "duration": 10, "velocity": 30}, {"time": 24599, "pitch": 70, "duration": 10, "velocity": 56}, {"time": 24599, "pitch": 82, "duration": 10, "velocity": 20}, {"time": 24719, "pitch": 42, "duration": 10, "velocity": 78}, {"time": 24719, "pitch": 64, "duration": 10, "velocity": 56}, {"time": 24719, "pitch": 70, "duration": 10, "velocity": 64}, {"time": 24719, "pitch": 82, "duration": 10, "velocity": 80}, {"time": 24839, "pitch": 70, "duration": 10, "velocity": 56}, {"time": 24839, "pitch": 82, "duration": 10, "velocity": 20}, {"time": 24959, "pitch": 36, "duration": 10, "velocity": 106}, {"time": 24959, "pitch": 42, "duration": 10, "velocity": 92}, {"time": 24959, "pitch": 64, "duration": 10, "velocity": 64}, {"time": 24959, "pitch": 70, "duration": 10, "velocity": 64}, {"time": 24959, "pitch": 82, "duration": 10, "velocity": 30}, {"time": 25078, "pitch": 70, "duration": 10, "velocity": 56}, {"time": 25078, "pitch": 82, "duration": 10, "velocity": 20}, {"time": 25198, "pitch": 42, "duration": 10, "velocity": 78}, {"time": 25198, "pitch": 64, "duration": 10, "velocity": 56}, {"time": 25198, "pitch": 70, "duration": 10, "velocity": 64}, {"time": 25198, "pitch": 82, "duration": 10, "velocity": 80}, {"time": 25318, "pitch": 36, "duration": 10, "velocity": 106}, {"time": 25318, "pitch": 64, "duration": 10, "velocity": 40}, {"time": 25318, "pitch": 70, "duration": 10, "velocity": 56}, {"time": 25318, "pitch": 82, "duration": 10, "velocity": 20}, {"time": 25438, "pitch": 38, "duration": 10, "velocity": 106}, {"time": 25438, "pitch": 42, "duration": 10, "velocity": 92}, {"time": 25438, "pitch": 62, "duration": 10, "velocity": 80}, {"time": 25438, "pitch": 70, "duration": 10, "velocity": 80}, {"time": 25438, "pitch": 82, "duration": 10, "velocity": 30}, {"time": 25558, "pitch": 70, "duration": 10, "velocity": 56}, {"time": 25558, "pitch": 82, "duration": 10, "velocity": 20}, {"time": 25678, "pitch": 42, "duration": 10, "velocity": 78}, {"time": 25678, "pitch": 64, "duration": 10, "velocity": 56}, {"time": 25678, "pitch": 70, "duration": 10, "velocity": 64}, {"time": 25678, "pitch": 82, "duration": 10, "velocity": 80}, {"time": 25798, "pitch": 70, "duration": 10, "velocity": 56}, {"time": 25798, "pitch": 82, "duration": 10, "velocity": 20}, {"time": 25918, "pitch": 36, "duration": 10, "velocity": 106}, {"time": 25918, "pitch": 42, "duration": 10, "velocity": 92}, {"time": 25918, "pitch": 64, "duration": 10, "velocity": 64}, {"time": 25918, "pitch": 70, "duration": 10, "velocity": 64}, {"time": 25918, "pitch": 82, "duration": 10, "velocity": 30}, {"time": 26038, "pitch": 70, "duration": 10, "velocity": 56}, {"time": 26038, "pitch": 82, "duration": 10, "velocity": 20}, {"time": 26158, "pitch": 42, "duration": 10, "velocity": 78}, {"time": 26158, "pitch": 64, "duration": 10, "velocity": 56}, {"time": 26158, "pitch": 70, "duration": 10, "velocity": 64}, {"time": 26158, "pitch": 82, "duration": 10, "velocity": 80}, {"time": 26278, "pitch": 70, "duration": 10, "velocity": 56}, {"time": 26278, "pitch": 82, "duration": 10, "velocity": 20}, {"time": 26397, "pitch": 38, "duration": 10, "velocity": 106}, {"time": 26397, "pitch": 42, "duration": 10, "velocity": 92}, {"time": 26397, "pitch": 62, "duration": 10, "velocity": 80}, {"time": 26397, "pitch": 70, "duration": 10, "velocity": 80}, {"time": 26397, "pitch": 82, "duration": 10, "velocity": 30}, {"time": 26517, "pitch": 70, "duration": 10, "velocity": 56}, {"time": 26517, "pitch": 82, "duration": 10, "velocity": 20}, {"time": 26637, "pitch": 42, "duration": 10, "velocity": 78}, {"time": 26637, "pitch": 64, "duration": 10, "velocity": 56}, {"time": 26637, "pitch": 70, "duration": 10, "velocity": 64}, {"time": 26637, "pitch": 82, "duration": 10, "velocity": 80}, {"time": 26757, "pitch": 70, "duration": 10, "velocity": 56}, {"time": 26757, "pitch": 82, "duration": 10, "velocity": 20}, {"time": 26877, "pitch": 36, "duration": 10, "velocity": 106}, {"time": 26877, "pitch": 42, "duration": 10, "velocity": 92}, {"time": 26877, "pitch": 64, "duration": 10, "velocity": 64}, {"time": 26877, "pitch": 70, "duration": 10, "velocity": 64}, {"time": 26877, "pitch": 82, "duration": 10, "velocity": 30}, {"time": 26999, "pitch": 70, "duration": 10, "velocity": 56}, {"time": 26999, "pitch": 82, "duration": 10, "velocity": 20}, {"time": 27120, "pitch": 42, "duration": 10, "velocity": 78}, {"time": 27120, "pitch": 64, "duration": 10, "velocity": 56}, {"time": 27120, "pitch": 70, "duration": 10, "velocity": 64}, {"time": 27120, "pitch": 82, "duration": 10, "velocity": 80}, {"time": 27241, "pitch": 36, "duration": 11, "velocity": 106}, {"time": 27241, "pitch": 64, "duration": 11, "velocity": 40}, {"time": 27241, "pitch": 70, "duration": 11, "velocity": 56}, {"time": 27241, "pitch": 82, "duration": 11, "velocity": 20}, {"time": 27363, "pitch": 38, "duration": 10, "velocity": 106}, {"time": 27363, "pitch": 42, "duration": 10, "velocity": 92}, {"time": 27363, "pitch": 62, "duration": 10, "velocity": 80}, {"time": 27363, "pitch": 70, "duration": 10, "velocity": 80}, {"time": 27363, "pitch": 82, "duration": 10, "velocity": 30}, {"time": 27483, "pitch": 70, "duration": 10, "velocity": 56}, {"time": 27483, "pitch": 82, "duration": 10, "velocity": 20}, {"time": 27603, "pitch": 42, "duration": 10, "velocity": 78}, {"time": 27603, "pitch": 64, "duration": 10, "velocity": 56}, {"time": 27603, "pitch": 70, "duration": 10, "velocity": 64}, {"time": 27603, "pitch": 82, "duration": 10, "velocity": 80}, {"time": 27723, "pitch": 70, "duration": 10, "velocity": 56}, {"time": 27723, "pitch": 82, "duration": 10, "velocity": 20}, {"time": 27842, "pitch": 36, "duration": 10, "velocity": 106}, {"time": 27842, "pitch": 42, "duration": 10, "velocity": 92}, {"time": 27842, "pitch": 64, "duration": 10, "velocity": 64}, {"time": 27842, "pitch": 70, "duration": 10, "velocity": 64}, {"time": 27842, "pitch": 82, "duration": 10, "velocity": 30}, {"time": 27962, "pitch": 70, "duration": 10, "velocity": 56}, {"time": 27962, "pitch": 82, "duration": 10, "velocity": 20}, {"time": 28082, "pitch": 42, "duration": 10, "velocity": 78}, {"time": 28082, "pitch": 64, "duration": 10, "velocity": 56}, {"time": 28082, "pitch": 70, "duration": 10, "velocity": 64}, {"time": 28082, "pitch": 82, "duration": 10, "velocity": 80}, {"time": 28202, "pitch": 36, "duration": 10, "velocity": 106}, {"time": 28202, "pitch": 70, "duration": 10, "velocity": 56}, {"time": 28202, "pitch": 82, "duration": 10, "velocity": 20}, {"time": 28322, "pitch": 38, "duration": 10, "velocity": 106}, {"time": 28322, "pitch": 42, "duration": 10, "velocity": 92}, {"time": 28322, "pitch": 62, "duration": 10, "velocity": 80}, {"time": 28322, "pitch": 70, "duration": 10, "velocity": 80}, {"time": 28322, "pitch": 82, "duration": 10, "velocity": 30}, {"time": 28442, "pitch": 70, "duration": 10, "velocity": 56}, {"time": 28442, "pitch": 82, "duration": 10, "velocity": 20}, {"time": 28562, "pitch": 42, "duration": 10, "velocity": 78}, {"time": 28562, "pitch": 64, "duration": 10, "velocity": 56}, {"time": 28562, "pitch": 70, "duration": 10, "velocity": 64}, {"time": 28562, "pitch": 82, "duration": 10, "velocity": 80}, {"time": 28682, "pitch": 70, "duration": 10, "velocity": 56}, {"time": 28682, "pitch": 82, "duration": 10, "velocity": 20}, {"time": 28802, "pitch": 36, "duration": 10, "velocity": 106}, {"time": 28802, "pitch": 42, "duration": 10, "velocity": 92}, {"time": 28802, "pitch": 64, "duration": 10, "velocity": 64}, {"time": 28802, "pitch": 70, "duration": 10, "velocity": 64}, {"time": 28802, "pitch": 82, "duration": 10, "velocity": 30}, {"time": 28922, "pitch": 70, "duration": 10, "velocity": 56}, {"time": 28922, "pitch": 82, "duration": 10, "velocity": 20}, {"time": 29042, "pitch": 42, "duration": 10, "velocity": 78}, {"time": 29042, "pitch": 64, "duration": 10, "velocity": 56}, {"time": 29042, "pitch": 70, "duration": 10, "velocity": 64}, {"time": 29042, "pitch": 82, "duration": 10, "velocity": 80}, {"time": 29162, "pitch": 36, "duration": 10, "velocity": 106}, {"time": 29162, "pitch": 64, "duration": 10, "velocity": 40}, {"time": 29162, "pitch": 70, "duration": 10, "velocity": 56}, {"time": 29162, "pitch": 82, "duration": 10, "velocity": 20}, {"time": 29281, "pitch": 38, "duration": 10, "velocity": 106}, {"time": 29281, "pitch": 42, "duration": 10, "velocity": 92}, {"time": 29281, "pitch": 62, "duration": 10, "velocity": 80}, {"time": 29281, "pitch": 70, "duration": 10, "velocity": 80}, {"time": 29281, "pitch": 82, "duration": 10, "velocity": 30}, {"time": 29401, "pitch": 70, "duration": 10, "velocity": 56}, {"time": 29401, "pitch": 82, "duration": 10, "velocity": 20}, {"time": 29521, "pitch": 42, "duration": 10, "velocity": 78}, {"time": 29521, "pitch": 64, "duration": 10, "velocity": 56}, {"time": 29521, "pitch": 70, "duration": 10, "velocity": 64}, {"time": 29521, "pitch": 82, "duration": 10, "velocity": 80}, {"time": 29641, "pitch": 70, "duration": 10, "velocity": 56}, {"time": 29641, "pitch": 82, "duration": 10, "velocity": 20}, {"time": 29761, "pitch": 36, "duration": 10, "velocity": 106}, {"time": 29761, "pitch": 42, "duration": 10, "velocity": 92}, {"time": 29761, "pitch": 64, "duration": 10, "velocity": 64}, {"time": 29761, "pitch": 70, "duration": 10, "velocity": 64}, {"time": 29761, "pitch": 82, "duration": 10, "velocity": 30}, {"time": 29881, "pitch": 70, "duration": 10, "velocity": 56}, {"time": 29881, "pitch": 82, "duration": 10, "velocity": 20}, {"time": 30001, "pitch": 42, "duration": 10, "velocity": 78}, {"time": 30001, "pitch": 64, "duration": 10, "velocity": 56}, {"time": 30001, "pitch": 70, "duration": 10, "velocity": 64}, {"time": 30001, "pitch": 82, "duration": 10, "velocity": 80}, {"time": 30121, "pitch": 70, "duration": 10, "velocity": 56}, {"time": 30121, "pitch": 82, "duration": 10, "velocity": 20}, {"time": 30241, "pitch": 38, "duration": 10, "velocity": 106}, {"time": 30241, "pitch": 42, "duration": 10, "velocity": 92}, {"time": 30241, "pitch": 62, "duration": 10, "velocity": 80}, {"time": 30241, "pitch": 70, "duration": 10, "velocity": 80}, {"time": 30241, "pitch": 82, "duration": 10, "velocity": 30}, {"time": 30361, "pitch": 70, "duration": 10, "velocity": 56}, {"time": 30361, "pitch": 82, "duration": 10, "velocity": 20}, {"time": 30481, "pitch": 42, "duration": 10, "velocity": 78}, {"time": 30481, "pitch": 64, "duration": 10, "velocity": 56}, {"time": 30481, "pitch": 70, "duration": 10, "velocity": 64}, {"time": 30481, "pitch": 82, "duration": 10, "velocity": 80}, {"time": 30600, "pitch": 70, "duration": 10, "velocity": 56}, {"time": 30600, "pitch": 82, "duration": 10, "velocity": 20}, {"time": 30720, "pitch": 36, "duration": 10, "velocity": 106}, {"time": 30720, "pitch": 42, "duration": 10, "velocity": 92}, {"time": 30720, "pitch": 64, "duration": 10, "velocity": 64}, {"time": 30720, "pitch": 70, "duration": 10, "velocity": 64}, {"time": 30720, "pitch": 82, "duration": 10, "velocity": 30}, {"time": 30840, "pitch": 70, "duration": 10, "velocity": 56}, {"time": 30840, "pitch": 82, "duration": 10, "velocity": 20}, {"time": 30960, "pitch": 42, "duration": 10, "velocity": 78}, {"time": 30960, "pitch": 64, "duration": 10, "velocity": 56}, {"time": 30960, "pitch": 70, "duration": 10, "velocity": 64}, {"time": 30960, "pitch": 82, "duration": 10, "velocity": 80}, {"time": 31080, "pitch": 36, "duration": 10, "velocity": 106}, {"time": 31080, "pitch": 64, "duration": 10, "velocity": 40}, {"time": 31080, "pitch": 70, "duration": 10, "velocity": 56}, {"time": 31080, "pitch": 82, "duration": 10, "velocity": 20}, {"time": 31200, "pitch": 38, "duration": 10, "velocity": 106}, {"time": 31200, "pitch": 42, "duration": 10, "velocity": 92}, {"time": 31200, "pitch": 62, "duration": 10, "velocity": 80}, {"time": 31200, "pitch": 70, "duration": 10, "velocity": 80}, {"time": 31200, "pitch": 82, "duration": 10, "velocity": 30}, {"time": 31320, "pitch": 70, "duration": 10, "velocity": 56}, {"time": 31320, "pitch": 82, "duration": 10, "velocity": 20}, {"time": 31440, "pitch": 42, "duration": 10, "velocity": 78}, {"time": 31440, "pitch": 64, "duration": 10, "velocity": 56}, {"time": 31440, "pitch": 70, "duration": 10, "velocity": 64}, {"time": 31440, "pitch": 82, "duration": 10, "velocity": 80}, {"time": 31560, "pitch": 70, "duration": 10, "velocity": 56}, {"time": 31560, "pitch": 82, "duration": 10, "velocity": 20}, {"time": 31680, "pitch": 36, "duration": 10, "velocity": 106}, {"time": 31680, "pitch": 42, "duration": 10, "velocity": 92}, {"time": 31680, "pitch": 64, "duration": 10, "velocity": 64}, {"time": 31680, "pitch": 70, "duration": 10, "velocity": 64}, {"time": 31680, "pitch": 82, "duration": 10, "velocity": 30}, {"time": 31800, "pitch": 70, "duration": 10, "velocity": 56}, {"time": 31800, "pitch": 82, "duration": 10, "velocity": 20}, {"time": 31920, "pitch": 42, "duration": 9, "velocity": 78}, {"time": 31920, "pitch": 64, "duration": 9, "velocity": 56}, {"time": 31920, "pitch": 70, "duration": 9, "velocity": 64}, {"time": 31920, "pitch": 82, "duration": 9, "velocity": 80}, {"time": 32039, "pitch": 36, "duration": 10, "velocity": 106}, {"time": 32039, "pitch": 70, "duration": 10, "velocity": 56}, {"time": 32039, "pitch": 82, "duration": 10, "velocity": 20}, {"time": 32159, "pitch": 38, "duration": 10, "velocity": 106}, {"time": 32159, "pitch": 42, "duration": 10, "velocity": 92}, {"time": 32159, "pitch": 62, "duration": 10, "velocity": 80}, {"time": 32159, "pitch": 70, "duration": 10, "velocity": 80}, {"time": 32159, "pitch": 82, "duration": 10, "velocity": 30}, {"time": 32279, "pitch": 70, "duration": 10, "velocity": 56}, {"time": 32279, "pitch": 82, "duration": 10, "velocity": 20}, {"time": 32399, "pitch": 42, "duration": 10, "velocity": 78}, {"time": 32399, "pitch": 64, "duration": 10, "velocity": 56}, {"time": 32399, "pitch": 70, "duration": 10, "velocity": 64}, {"time": 32399, "pitch": 82, "duration": 10, "velocity": 80}, {"time": 32519, "pitch": 70, "duration": 10, "velocity": 56}, {"time": 32519, "pitch": 82, "duration": 10, "velocity": 20}, {"time": 32639, "pitch": 36, "duration": 10, "velocity": 106}, {"time": 32639, "pitch": 42, "duration": 10, "velocity": 92}, {"time": 32639, "pitch": 64, "duration": 10, "velocity": 64}, {"time": 32639, "pitch": 70, "duration": 10, "velocity": 64}, {"time": 32639, "pitch": 82, "duration": 10, "velocity": 30}, {"time": 32759, "pitch": 70, "duration": 10, "velocity": 56}, {"time": 32759, "pitch": 82, "duration": 10, "velocity": 20}, {"time": 32879, "pitch": 42, "duration": 10, "velocity": 78}, {"time": 32879, "pitch": 64, "duration": 10, "velocity": 56}, {"time": 32879, "pitch": 70, "duration": 10, "velocity": 64}, {"time": 32879, "pitch": 82, "duration": 10, "velocity": 80}, {"time": 32999, "pitch": 36, "duration": 10, "velocity": 106}, {"time": 32999, "pitch": 64, "duration": 10, "velocity": 40}, {"time": 32999, "pitch": 70, "duration": 10, "velocity": 56}, {"time": 32999, "pitch": 82, "duration": 10, "velocity": 20}, {"time": 33119, "pitch": 38, "duration": 10, "velocity": 106}, {"time": 33119, "pitch": 42, "duration": 10, "velocity": 92}, {"time": 33119, "pitch": 62, "duration": 10, "velocity": 80}, {"time": 33119, "pitch": 70, "duration": 10, "velocity": 80}, {"time": 33119, "pitch": 82, "duration": 10, "velocity": 30}, {"time": 33239, "pitch": 70, "duration": 10, "velocity": 56}, {"time": 33239, "pitch": 82, "duration": 10, "velocity": 20}, {"time": 33358, "pitch": 42, "duration": 10, "velocity": 78}, {"time": 33358, "pitch": 64, "duration": 10, "velocity": 56}, {"time": 33358, "pitch": 70, "duration": 10, "velocity": 64}, {"time": 33358, "pitch": 82, "duration": 10, "velocity": 80}, {"time": 33478, "pitch": 70, "duration": 10, "velocity": 56}, {"time": 33478, "pitch": 82, "duration": 10, "velocity": 20}, {"time": 33598, "pitch": 36, "duration": 10, "velocity": 106}, {"time": 33598, "pitch": 42, "duration": 10, "velocity": 92}, {"time": 33598, "pitch": 64, "duration": 10, "velocity": 64}, {"time": 33598, "pitch": 70, "duration": 10, "velocity": 64}, {"time": 33598, "pitch": 82, "duration": 10, "velocity": 30}, {"time": 33718, "pitch": 70, "duration": 10, "velocity": 56}, {"time": 33718, "pitch": 82, "duration": 10, "velocity": 20}, {"time": 33838, "pitch": 42, "duration": 10, "velocity": 78}, {"time": 33838, "pitch": 64, "duration": 10, "velocity": 56}, {"time": 33838, "pitch": 70, "duration": 10, "velocity": 64}, {"time": 33838, "pitch": 82, "duration": 10, "velocity": 80}, {"time": 33958, "pitch": 70, "duration": 10, "velocity": 56}, {"time": 33958, "pitch": 82, "duration": 10, "velocity": 20}, {"time": 34078, "pitch": 38, "duration": 10, "velocity": 106}, {"time": 34078, "pitch": 42, "duration": 10, "velocity": 92}, {"time": 34078, "pitch": 62, "duration": 10, "velocity": 80}, {"time": 34078, "pitch": 70, "duration": 10, "velocity": 80}, {"time": 34078, "pitch": 82, "duration": 10, "velocity": 30}, {"time": 34198, "pitch": 70, "duration": 10, "velocity": 56}, {"time": 34198, "pitch": 82, "duration": 10, "velocity": 20}, {"time": 34318, "pitch": 42, "duration": 10, "velocity": 78}, {"time": 34318, "pitch": 64, "duration": 10, "velocity": 56}, {"time": 34318, "pitch": 70, "duration": 10, "velocity": 64}, {"time": 34318, "pitch": 82, "duration": 10, "velocity": 80}, {"time": 34438, "pitch": 70, "duration": 10, "velocity": 56}, {"time": 34438, "pitch": 82, "duration": 10, "velocity": 20}, {"time": 34558, "pitch": 36, "duration": 10, "velocity": 106}, {"time": 34558, "pitch": 42, "duration": 10, "velocity": 92}, {"time": 34558, "pitch": 64, "duration": 10, "velocity": 64}, {"time": 34558, "pitch": 70, "duration": 10, "velocity": 64}, {"time": 34558, "pitch": 82, "duration": 10, "velocity": 30}, {"time": 34677, "pitch": 70, "duration": 10, "velocity": 56}, {"time": 34677, "pitch": 82, "duration": 10, "velocity": 20}, {"time": 34797, "pitch": 42, "duration": 10, "velocity": 78}, {"time": 34797, "pitch": 64, "duration": 10, "velocity": 56}, {"time": 34797, "pitch": 70, "duration": 10, "velocity": 64}, {"time": 34797, "pitch": 82, "duration": 10, "velocity": 80}, {"time": 34917, "pitch": 36, "duration": 10, "velocity": 106}, {"time": 34917, "pitch": 64, "duration": 10, "velocity": 40}, {"time": 34917, "pitch": 70, "duration": 10, "velocity": 56}, {"time": 34917, "pitch": 82, "duration": 10, "velocity": 20}, {"time": 35037, "pitch": 38, "duration": 10, "velocity": 106}, {"time": 35037, "pitch": 42, "duration": 10, "velocity": 92}, {"time": 35037, "pitch": 62, "duration": 10, "velocity": 80}, {"time": 35037, "pitch": 70, "duration": 10, "velocity": 80}, {"time": 35037, "pitch": 82, "duration": 10, "velocity": 30}, {"time": 35159, "pitch": 70, "duration": 10, "velocity": 56}, {"time": 35159, "pitch": 82, "duration": 10, "velocity": 20}, {"time": 35280, "pitch": 42, "duration": 10, "velocity": 78}, {"time": 35280, "pitch": 64, "duration": 10, "velocity": 56}, {"time": 35280, "pitch": 70, "duration": 10, "velocity": 64}, {"time": 35280, "pitch": 82, "duration": 10, "velocity": 80}, {"time": 35402, "pitch": 70, "duration": 10, "velocity": 56}, {"time": 35402, "pitch": 82, "duration": 10, "velocity": 20}, {"time": 35523, "pitch": 36, "duration": 10, "velocity": 106}, {"time": 35523, "pitch": 42, "duration": 10, "velocity": 92}, {"time": 35523, "pitch": 64, "duration": 10, "velocity": 64}, {"time": 35523, "pitch": 70, "duration": 10, "velocity": 64}, {"time": 35523, "pitch": 82, "duration": 10, "velocity": 30}, {"time": 35643, "pitch": 70, "duration": 10, "velocity": 56}, {"time": 35643, "pitch": 82, "duration": 10, "velocity": 20}, {"time": 35763, "pitch": 42, "duration": 10, "velocity": 78}, {"time": 35763, "pitch": 64, "duration": 10, "velocity": 56}, {"time": 35763, "pitch": 70, "duration": 10, "velocity": 64}, {"time": 35763, "pitch": 82, "duration": 10, "velocity": 80}, {"time": 35883, "pitch": 36, "duration": 10, "velocity": 106}, {"time": 35883, "pitch": 70, "duration": 10, "velocity": 56}, {"time": 35883, "pitch": 82, "duration": 10, "velocity": 20}, {"time": 36003, "pitch": 38, "duration": 10, "velocity": 106}, {"time": 36003, "pitch": 42, "duration": 10, "velocity": 92}, {"time": 36003, "pitch": 62, "duration": 10, "velocity": 80}, {"time": 36003, "pitch": 70, "duration": 10, "velocity": 80}, {"time": 36003, "pitch": 82, "duration": 10, "velocity": 30}, {"time": 36122, "pitch": 70, "duration": 10, "velocity": 56}, {"time": 36122, "pitch": 82, "duration": 10, "velocity": 20}, {"time": 36242, "pitch": 42, "duration": 10, "velocity": 78}, {"time": 36242, "pitch": 64, "duration": 10, "velocity": 56}, {"time": 36242, "pitch": 70, "duration": 10, "velocity": 64}, {"time": 36242, "pitch": 82, "duration": 10, "velocity": 80}, {"time": 36362, "pitch": 70, "duration": 10, "velocity": 56}, {"time": 36362, "pitch": 82, "duration": 10, "velocity": 20}, {"time": 36482, "pitch": 36, "duration": 10, "velocity": 106}, {"time": 36482, "pitch": 42, "duration": 10, "velocity": 92}, {"time": 36482, "pitch": 64, "duration": 10, "velocity": 64}, {"time": 36482, "pitch": 70, "duration": 10, "velocity": 64}, {"time": 36482, "pitch": 82, "duration": 10, "velocity": 30}, {"time": 36602, "pitch": 70, "duration": 10, "velocity": 56}, {"time": 36602, "pitch": 82, "duration": 10, "velocity": 20}, {"time": 36722, "pitch": 42, "duration": 10, "velocity": 78}, {"time": 36722, "pitch": 64, "duration": 10, "velocity": 56}, {"time": 36722, "pitch": 70, "duration": 10, "velocity": 64}, {"time": 36722, "pitch": 82, "duration": 10, "velocity": 80}, {"time": 36842, "pitch": 36, "duration": 10, "velocity": 106}, {"time": 36842, "pitch": 64, "duration": 10, "velocity": 40}, {"time": 36842, "pitch": 70, "duration": 10, "velocity": 56}, {"time": 36842, "pitch": 82, "duration": 10, "velocity": 20}, {"time": 36962, "pitch": 38, "duration": 10, "velocity": 106}, {"time": 36962, "pitch": 42, "duration": 10, "velocity": 92}, {"time": 36962, "pitch": 62, "duration": 10, "velocity": 80}, {"time": 36962, "pitch": 70, "duration": 10, "velocity": 80}, {"time": 36962, "pitch": 82, "duration": 10, "velocity": 30}, {"time": 37082, "pitch": 70, "duration": 10, "velocity": 56}, {"time": 37082, "pitch": 82, "duration": 10, "velocity": 20}, {"time": 37202, "pitch": 42, "duration": 10, "velocity": 78}, {"time": 37202, "pitch": 64, "duration": 10, "velocity": 56}, {"time": 37202, "pitch": 70, "duration": 10, "velocity": 64}, {"time": 37202, "pitch": 82, "duration": 10, "velocity": 80}, {"time": 37322, "pitch": 70, "duration": 10, "velocity": 56}, {"time": 37322, "pitch": 82, "duration": 10, "velocity": 20}, {"time": 37442, "pitch": 36, "duration": 10, "velocity": 106}, {"time": 37442, "pitch": 42, "duration": 10, "velocity": 92}, {"time": 37442, "pitch": 64, "duration": 10, "velocity": 64}, {"time": 37442, "pitch": 70, "duration": 10, "velocity": 64}, {"time": 37442, "pitch": 82, "duration": 10, "velocity": 30}, {"time": 37561, "pitch": 70, "duration": 10, "velocity": 56}, {"time": 37561, "pitch": 82, "duration": 10, "velocity": 20}, {"time": 37681, "pitch": 42, "duration": 10, "velocity": 78}, {"time": 37681, "pitch": 64, "duration": 10, "velocity": 56}, {"time": 37681, "pitch": 70, "duration": 10, "velocity": 64}, {"time": 37681, "pitch": 82, "duration": 10, "velocity": 80}, {"time": 37801, "pitch": 70, "duration": 10, "velocity": 56}, {"time": 37801, "pitch": 82, "duration": 10, "velocity": 20}, {"time": 37921, "pitch": 38, "duration": 10, "velocity": 106}, {"time": 37921, "pitch": 42, "duration": 10, "velocity": 92}, {"time": 37921, "pitch": 62, "duration": 10, "velocity": 80}, {"time": 37921, "pitch": 70, "duration": 10, "velocity": 80}, {"time": 37921, "pitch": 82, "duration": 10, "velocity": 30}, {"time": 38041, "pitch": 70, "duration": 10, "velocity": 56}, {"time": 38041, "pitch": 82, "duration": 10, "velocity": 20}, {"time": 38161, "pitch": 42, "duration": 10, "velocity": 78}, {"time": 38161, "pitch": 64, "duration": 10, "velocity": 56}, {"time": 38161, "pitch": 70, "duration": 10, "velocity": 64}, {"time": 38161, "pitch": 82, "duration": 10, "velocity": 80}, {"time": 38281, "pitch": 70, "duration": 10, "velocity": 56}, {"time": 38281, "pitch": 82, "duration": 10, "velocity": 20}, {"time": 38401, "pitch": 36, "duration": 10, "velocity": 106}, {"time": 38401, "pitch": 42, "duration": 10, "velocity": 92}, {"time": 38401, "pitch": 64, "duration": 10, "velocity": 64}, {"time": 38401, "pitch": 70, "duration": 10, "velocity": 64}, {"time": 38401, "pitch": 82, "duration": 10, "velocity": 30}, {"time": 38521, "pitch": 70, "duration": 10, "velocity": 56}, {"time": 38521, "pitch": 82, "duration": 10, "velocity": 20}, {"time": 38641, "pitch": 42, "duration": 10, "velocity": 78}, {"time": 38641, "pitch": 64, "duration": 10, "velocity": 56}, {"time": 38641, "pitch": 70, "duration": 10, "velocity": 64}, {"time": 38641, "pitch": 82, "duration": 10, "velocity": 80}, {"time": 38761, "pitch": 36, "duration": 10, "velocity": 106}, {"time": 38761, "pitch": 64, "duration": 10, "velocity": 40}, {"time": 38761, "pitch": 70, "duration": 10, "velocity": 56}, {"time": 38761, "pitch": 82, "duration": 10, "velocity": 20}, {"time": 38880, "pitch": 38, "duration": 10, "velocity": 106}, {"time": 38880, "pitch": 42, "duration": 10, "velocity": 92}, {"time": 38880, "pitch": 62, "duration": 10, "velocity": 80}, {"time": 38880, "pitch": 70, "duration": 10, "velocity": 80}, {"time": 38880, "pitch": 82, "duration": 10, "velocity": 30}, {"time": 39000, "pitch": 70, "duration": 10, "velocity": 56}, {"time": 39000, "pitch": 82, "duration": 10, "velocity": 20}, {"time": 39120, "pitch": 42, "duration": 10, "velocity": 78}, {"time": 39120, "pitch": 64, "duration": 10, "velocity": 56}, {"time": 39120, "pitch": 70, "duration": 10, "velocity": 64}, {"time": 39120, "pitch": 82, "duration": 10, "velocity": 80}, {"time": 39240, "pitch": 70, "duration": 10, "velocity": 56}, {"time": 39240, "pitch": 82, "duration": 10, "velocity": 20}, {"time": 39360, "pitch": 36, "duration": 10, "velocity": 106}, {"time": 39360, "pitch": 42, "duration": 10, "velocity": 92}, {"time": 39360, "pitch": 64, "duration": 10, "velocity": 64}, {"time": 39360, "pitch": 70, "duration": 10, "velocity": 64}, {"time": 39360, "pitch": 82, "duration": 10, "velocity": 30}, {"time": 39480, "pitch": 70, "duration": 10, "velocity": 56}, {"time": 39480, "pitch": 82, "duration": 10, "velocity": 20}, {"time": 39600, "pitch": 42, "duration": 10, "velocity": 78}, {"time": 39600, "pitch": 64, "duration": 10, "velocity": 56}, {"time": 39600, "pitch": 70, "duration": 10, "velocity": 64}, {"time": 39600, "pitch": 82, "duration": 10, "velocity": 80}, {"time": 39720, "pitch": 36, "duration": 10, "velocity": 106}, {"time": 39720, "pitch": 70, "duration": 10, "velocity": 56}, {"time": 39720, "pitch": 82, "duration": 10, "velocity": 20}, {"time": 39840, "pitch": 38, "duration": 10, "velocity": 106}, {"time": 39840, "pitch": 42, "duration": 10, "velocity": 92}, {"time": 39840, "pitch": 62, "duration": 10, "velocity": 80}, {"time": 39840, "pitch": 70, "duration": 10, "velocity": 80}, {"time": 39840, "pitch": 82, "duration": 10, "velocity": 30}, {"time": 39960, "pitch": 70, "duration": 10, "velocity": 56}, {"time": 39960, "pitch": 82, "duration": 10, "velocity": 20}, {"time": 40080, "pitch": 42, "duration": 10, "velocity": 78}, {"time": 40080, "pitch": 64, "duration": 10, "velocity": 56}, {"time": 40080, "pitch": 70, "duration": 10, "velocity": 64}, {"time": 40080, "pitch": 82, "duration": 10, "velocity": 80}, {"time": 40200, "pitch": 70, "duration": 10, "velocity": 56}, {"time": 40200, "pitch": 82, "duration": 10, "velocity": 20}, {"time": 40319, "pitch": 36, "duration": 10, "velocity": 106}, {"time": 40319, "pitch": 42, "duration": 10, "velocity": 92}, {"time": 40319, "pitch": 64, "duration": 10, "velocity": 64}, {"time": 40319, "pitch": 70, "duration": 10, "velocity": 64}, {"time": 40319, "pitch": 82, "duration": 10, "velocity": 30}, {"time": 40439, "pitch": 70, "duration": 10, "velocity": 56}, {"time": 40439, "pitch": 82, "duration": 10, "velocity": 20}, {"time": 40559, "pitch": 42, "duration": 10, "velocity": 78}, {"time": 40559, "pitch": 64, "duration": 10, "velocity": 56}, {"time": 40559, "pitch": 70, "duration": 10, "velocity": 64}, {"time": 40559, "pitch": 82, "duration": 10, "velocity": 80}, {"time": 40679, "pitch": 36, "duration": 10, "velocity": 106}, {"time": 40679, "pitch": 64, "duration": 10, "velocity": 40}, {"time": 40679, "pitch": 70, "duration": 10, "velocity": 56}, {"time": 40679, "pitch": 82, "duration": 10, "velocity": 20}, {"time": 40799, "pitch": 38, "duration": 10, "velocity": 106}, {"time": 40799, "pitch": 42, "duration": 10, "velocity": 92}, {"time": 40799, "pitch": 62, "duration": 10, "velocity": 80}, {"time": 40799, "pitch": 70, "duration": 10, "velocity": 80}, {"time": 40799, "pitch": 82, "duration": 10, "velocity": 30}, {"time": 40919, "pitch": 70, "duration": 10, "velocity": 56}, {"time": 40919, "pitch": 82, "duration": 10, "velocity": 20}, {"time": 41039, "pitch": 42, "duration": 10, "velocity": 78}, {"time": 41039, "pitch": 64, "duration": 10, "velocity": 56}, {"time": 41039, "pitch": 70, "duration": 10, "velocity": 64}, {"time": 41039, "pitch": 82, "duration": 10, "velocity": 80}, {"time": 41159, "pitch": 70, "duration": 10, "velocity": 56}, {"time": 41159, "pitch": 82, "duration": 10, "velocity": 20}, {"time": 41279, "pitch": 36, "duration": 10, "velocity": 106}, {"time": 41279, "pitch": 42, "duration": 10, "velocity": 92}, {"time": 41279, "pitch": 64, "duration": 10, "velocity": 64}, {"time": 41279, "pitch": 70, "duration": 10, "velocity": 64}, {"time": 41279, "pitch": 82, "duration": 10, "velocity": 30}, {"time": 41399, "pitch": 70, "duration": 10, "velocity": 56}, {"time": 41399, "pitch": 82, "duration": 10, "velocity": 20}, {"time": 41519, "pitch": 42, "duration": 10, "velocity": 78}, {"time": 41519, "pitch": 64, "duration": 10, "velocity": 56}, {"time": 41519, "pitch": 70, "duration": 10, "velocity": 64}, {"time": 41519, "pitch": 82, "duration": 10, "velocity": 80}, {"time": 41638, "pitch": 70, "duration": 10, "velocity": 56}, {"time": 41638, "pitch": 82, "duration": 10, "velocity": 20}, {"time": 41758, "pitch": 38, "duration": 10, "velocity": 106}, {"time": 41758, "pitch": 42, "duration": 10, "velocity": 92}, {"time": 41758, "pitch": 62, "duration": 10, "velocity": 80}, {"time": 41758, "pitch": 70, "duration": 10, "velocity": 80}, {"time": 41758, "pitch": 82, "duration": 10, "velocity": 30}, {"time": 41878, "pitch": 70, "duration": 10, "velocity": 56}, {"time": 41878, "pitch": 82, "duration": 10, "velocity": 20}, {"time": 41998, "pitch": 42, "duration": 10, "velocity": 78}, {"time": 41998, "pitch": 64, "duration": 10, "velocity": 56}, {"time": 41998, "pitch": 70, "duration": 10, "velocity": 64}, {"time": 41998, "pitch": 82, "duration": 10, "velocity": 80}, {"time": 42118, "pitch": 70, "duration": 10, "velocity": 56}, {"time": 42118, "pitch": 82, "duration": 10, "velocity": 20}, {"time": 42238, "pitch": 36, "duration": 10, "velocity": 106}, {"time": 42238, "pitch": 42, "duration": 10, "velocity": 92}, {"time": 42238, "pitch": 64, "duration": 10, "velocity": 64}, {"time": 42238, "pitch": 70, "duration": 10, "velocity": 64}, {"time": 42238, "pitch": 82, "duration": 10, "velocity": 30}, {"time": 42358, "pitch": 70, "duration": 10, "velocity": 56}, {"time": 42358, "pitch": 82, "duration": 10, "velocity": 20}, {"time": 42478, "pitch": 42, "duration": 10, "velocity": 78}, {"time": 42478, "pitch": 64, "duration": 10, "velocity": 56}, {"time": 42478, "pitch": 70, "duration": 10, "velocity": 64}, {"time": 42478, "pitch": 82, "duration": 10, "velocity": 80}, {"time": 42598, "pitch": 36, "duration": 10, "velocity": 106}, {"time": 42598, "pitch": 64, "duration": 10, "velocity": 40}, {"time": 42598, "pitch": 70, "duration": 10, "velocity": 56}, {"time": 42598, "pitch": 82, "duration": 10, "velocity": 20}, {"time": 42718, "pitch": 38, "duration": 10, "velocity": 106}, {"time": 42718, "pitch": 42, "duration": 10, "velocity": 92}, {"time": 42718, "pitch": 62, "duration": 10, "velocity": 80}, {"time": 42718, "pitch": 70, "duration": 10, "velocity": 80}, {"time": 42718, "pitch": 82, "duration": 10, "velocity": 30}, {"time": 42838, "pitch": 70, "duration": 10, "velocity": 56}, {"time": 42838, "pitch": 82, "duration": 10, "velocity": 20}, {"time": 42957, "pitch": 42, "duration": 10, "velocity": 78}, {"time": 42957, "pitch": 64, "duration": 10, "velocity": 56}, {"time": 42957, "pitch": 70, "duration": 10, "velocity": 64}, {"time": 42957, "pitch": 82, "duration": 10, "velocity": 80}, {"time": 43077, "pitch": 70, "duration": 10, "velocity": 56}, {"time": 43077, "pitch": 82, "duration": 10, "velocity": 20}, {"time": 43197, "pitch": 36, "duration": 10, "velocity": 106}, {"time": 43197, "pitch": 42, "duration": 10, "velocity": 92}, {"time": 43197, "pitch": 64, "duration": 10, "velocity": 64}, {"time": 43197, "pitch": 70, "duration": 10, "velocity": 64}, {"time": 43197, "pitch": 82, "duration": 10, "velocity": 30}, {"time": 43319, "pitch": 70, "duration": 10, "velocity": 56}, {"time": 43319, "pitch": 82, "duration": 10, "velocity": 20}, {"time": 43440, "pitch": 42, "duration": 10, "velocity": 78}, {"time": 43440, "pitch": 64, "duration": 10, "velocity": 56}, {"time": 43440, "pitch": 70, "duration": 10, "velocity": 64}, {"time": 43440, "pitch": 82, "duration": 10, "velocity": 80}, {"time": 43562, "pitch": 36, "duration": 10, "velocity": 106}, {"time": 43562, "pitch": 70, "duration": 10, "velocity": 56}, {"time": 43562, "pitch": 82, "duration": 10, "velocity": 20}, {"time": 43683, "pitch": 38, "duration": 10, "velocity": 106}, {"time": 43683, "pitch": 42, "duration": 10, "velocity": 92}, {"time": 43683, "pitch": 62, "duration": 10, "velocity": 80}, {"time": 43683, "pitch": 70, "duration": 10, "velocity": 80}, {"time": 43683, "pitch": 82, "duration": 10, "velocity": 30}, {"time": 43803, "pitch": 70, "duration": 10, "velocity": 56}, {"time": 43803, "pitch": 82, "duration": 10, "velocity": 20}, {"time": 43923, "pitch": 42, "duration": 10, "velocity": 78}, {"time": 43923, "pitch": 64, "duration": 10, "velocity": 56}, {"time": 43923, "pitch": 70, "duration": 10, "velocity": 64}, {"time": 43923, "pitch": 82, "duration": 10, "velocity": 80}, {"time": 44043, "pitch": 70, "duration": 10, "velocity": 56}, {"time": 44043, "pitch": 82, "duration": 10, "velocity": 20}, {"time": 44163, "pitch": 36, "duration": 10, "velocity": 106}, {"time": 44163, "pitch": 42, "duration": 10, "velocity": 92}, {"time": 44163, "pitch": 64, "duration": 10, "velocity": 64}, {"time": 44163, "pitch": 70, "duration": 10, "velocity": 64}, {"time": 44163, "pitch": 82, "duration": 10, "velocity": 30}, {"time": 44283, "pitch": 70, "duration": 10, "velocity": 56}, {"time": 44283, "pitch": 82, "duration": 10, "velocity": 20}, {"time": 44403, "pitch": 42, "duration": 10, "velocity": 78}, {"time": 44403, "pitch": 64, "duration": 10, "velocity": 56}, {"time": 44403, "pitch": 70, "duration": 10, "velocity": 64}, {"time": 44403, "pitch": 82, "duration": 10, "velocity": 80}, {"time": 44522, "pitch": 36, "duration": 10, "velocity": 106}, {"time": 44522, "pitch": 64, "duration": 10, "velocity": 40}, {"time": 44522, "pitch": 70, "duration": 10, "velocity": 56}, {"time": 44522, "pitch": 82, "duration": 10, "velocity": 20}, {"time": 44642, "pitch": 38, "duration": 10, "velocity": 106}, {"time": 44642, "pitch": 42, "duration": 10, "velocity": 92}, {"time": 44642, "pitch": 62, "duration": 10, "velocity": 80}, {"time": 44642, "pitch": 70, "duration": 10, "velocity": 80}, {"time": 44642, "pitch": 82, "duration": 10, "velocity": 30}, {"time": 44762, "pitch": 70, "duration": 10, "velocity": 56}, {"time": 44762, "pitch": 82, "duration": 10, "velocity": 20}, {"time": 44882, "pitch": 42, "duration": 10, "velocity": 78}, {"time": 44882, "pitch": 64, "duration": 10, "velocity": 56}, {"time": 44882, "pitch": 70, "duration": 10, "velocity": 64}, {"time": 44882, "pitch": 82, "duration": 10, "velocity": 80}, {"time": 45002, "pitch": 70, "duration": 10, "velocity": 56}, {"time": 45002, "pitch": 82, "duration": 10, "velocity": 20}, {"time": 45122, "pitch": 36, "duration": 10, "velocity": 106}, {"time": 45122, "pitch": 42, "duration": 10, "velocity": 92}, {"time": 45122, "pitch": 64, "duration": 10, "velocity": 64}, {"time": 45122, "pitch": 70, "duration": 10, "velocity": 64}, {"time": 45122, "pitch": 82, "duration": 10, "velocity": 30}, {"time": 45242, "pitch": 70, "duration": 10, "velocity": 56}, {"time": 45242, "pitch": 82, "duration": 10, "velocity": 20}, {"time": 45362, "pitch": 42, "duration": 10, "velocity": 78}, {"time": 45362, "pitch": 64, "duration": 10, "velocity": 56}, {"time": 45362, "pitch": 70, "duration": 10, "velocity": 64}, {"time": 45362, "pitch": 82, "duration": 10, "velocity": 80}, {"time": 45482, "pitch": 70, "duration": 10, "velocity": 56}, {"time": 45482, "pitch": 82, "duration": 10, "velocity": 20}, {"time": 45602, "pitch": 38, "duration": 10, "velocity": 106}, {"time": 45602, "pitch": 42, "duration": 10, "velocity": 92}, {"time": 45602, "pitch": 62, "duration": 10, "velocity": 80}, {"time": 45602, "pitch": 70, "duration": 10, "velocity": 80}, {"time": 45602, "pitch": 82, "duration": 10, "velocity": 30}, {"time": 45722, "pitch": 70, "duration": 10, "velocity": 56}, {"time": 45722, "pitch": 82, "duration": 10, "velocity": 20}, {"time": 45841, "pitch": 42, "duration": 10, "velocity": 78}, {"time": 45841, "pitch": 64, "duration": 10, "velocity": 56}, {"time": 45841, "pitch": 70, "duration": 10, "velocity": 64}, {"time": 45841, "pitch": 82, "duration": 10, "velocity": 80}, {"time": 45961, "pitch": 70, "duration": 10, "velocity": 56}, {"time": 45961, "pitch": 82, "duration": 10, "velocity": 20}, {"time": 46081, "pitch": 36, "duration": 10, "velocity": 106}, {"time": 46081, "pitch": 42, "duration": 10, "velocity": 92}, {"time": 46081, "pitch": 64, "duration": 10, "velocity": 64}, {"time": 46081, "pitch": 70, "duration": 10, "velocity": 64}, {"time": 46081, "pitch": 82, "duration": 10, "velocity": 30}, {"time": 46201, "pitch": 70, "duration": 10, "velocity": 56}, {"time": 46201, "pitch": 82, "duration": 10, "velocity": 20}, {"time": 46321, "pitch": 42, "duration": 10, "velocity": 78}, {"time": 46321, "pitch": 64, "duration": 10, "velocity": 56}, {"time": 46321, "pitch": 70, "duration": 10, "velocity": 64}, {"time": 46321, "pitch": 82, "duration": 10, "velocity": 80}, {"time": 46441, "pitch": 36, "duration": 10, "velocity": 106}, {"time": 46441, "pitch": 64, "duration": 10, "velocity": 40}, {"time": 46441, "pitch": 70, "duration": 10, "velocity": 56}, {"time": 46441, "pitch": 82, "duration": 10, "velocity": 20}, {"time": 46561, "pitch": 38, "duration": 10, "velocity": 106}, {"time": 46561, "pitch": 42, "duration": 10, "velocity": 92}, {"time": 46561, "pitch": 62, "duration": 10, "velocity": 80}, {"time": 46561, "pitch": 70, "duration": 10, "velocity": 80}, {"time": 46561, "pitch": 82, "duration": 10, "velocity": 30}, {"time": 46681, "pitch": 70, "duration": 10, "velocity": 56}, {"time": 46681, "pitch": 82, "duration": 10, "velocity": 20}, {"time": 46801, "pitch": 42, "duration": 10, "velocity": 78}, {"time": 46801, "pitch": 64, "duration": 10, "velocity": 56}, {"time": 46801, "pitch": 70, "duration": 10, "velocity": 64}, {"time": 46801, "pitch": 82, "duration": 10, "velocity": 80}, {"time": 46921, "pitch": 70, "duration": 10, "velocity": 56}, {"time": 46921, "pitch": 82, "duration": 10, "velocity": 20}, {"time": 47041, "pitch": 36, "duration": 10, "velocity": 106}, {"time": 47041, "pitch": 42, "duration": 10, "velocity": 92}, {"time": 47041, "pitch": 64, "duration": 10, "velocity": 64}, {"time": 47041, "pitch": 70, "duration": 10, "velocity": 64}, {"time": 47041, "pitch": 82, "duration": 10, "velocity": 30}, {"time": 47160, "pitch": 70, "duration": 10, "velocity": 56}, {"time": 47160, "pitch": 82, "duration": 10, "velocity": 20}, {"time": 47280, "pitch": 42, "duration": 10, "velocity": 78}, {"time": 47280, "pitch": 64, "duration": 10, "velocity": 56}, {"time": 47280, "pitch": 70, "duration": 10, "velocity": 64}, {"time": 47280, "pitch": 82, "duration": 10, "velocity": 80}, {"time": 47400, "pitch": 36, "duration": 10, "velocity": 106}, {"time": 47400, "pitch": 70, "duration": 10, "velocity": 56}, {"time": 47400, "pitch": 82, "duration": 10, "velocity": 20}, {"time": 47520, "pitch": 38, "duration": 10, "velocity": 106}, {"time": 47520, "pitch": 42, "duration": 10, "velocity": 92}, {"time": 47520, "pitch": 62, "duration": 10, "velocity": 80}, {"time": 47520, "pitch": 70, "duration": 10, "velocity": 80}, {"time": 47520, "pitch": 82, "duration": 10, "velocity": 30}, {"time": 47640, "pitch": 70, "duration": 10, "velocity": 56}, {"time": 47640, "pitch": 82, "duration": 10, "velocity": 20}, {"time": 47760, "pitch": 42, "duration": 10, "velocity": 78}, {"time": 47760, "pitch": 64, "duration": 10, "velocity": 56}, {"time": 47760, "pitch": 70, "duration": 10, "velocity": 64}, {"time": 47760, "pitch": 82, "duration": 10, "velocity": 80}, {"time": 47880, "pitch": 70, "duration": 10, "velocity": 56}, {"time": 47880, "pitch": 82, "duration": 10, "velocity": 20}, {"time": 48000, "pitch": 36, "duration": 10, "velocity": 106}, {"time": 48000, "pitch": 42, "duration": 10, "velocity": 92}, {"time": 48000, "pitch": 64, "duration": 10, "velocity": 64}, {"time": 48000, "pitch": 70, "duration": 10, "velocity": 64}, {"time": 48000, "pitch": 82, "duration": 10, "velocity": 30}, {"time": 48120, "pitch": 70, "duration": 10, "velocity": 56}, {"time": 48120, "pitch": 82, "duration": 10, "velocity": 20}, {"time": 48240, "pitch": 42, "duration": 10, "velocity": 78}, {"time": 48240, "pitch": 64, "duration": 10, "velocity": 56}, {"time": 48240, "pitch": 70, "duration": 10, "velocity": 64}, {"time": 48240, "pitch": 82, "duration": 10, "velocity": 80}, {"time": 48360, "pitch": 36, "duration": 10, "velocity": 106}, {"time": 48360, "pitch": 64, "duration": 10, "velocity": 40}, {"time": 48360, "pitch": 70, "duration": 10, "velocity": 56}, {"time": 48360, "pitch": 82, "duration": 10, "velocity": 20}, {"time": 48480, "pitch": 38, "duration": 10, "velocity": 106}, {"time": 48480, "pitch": 42, "duration": 10, "velocity": 92}, {"time": 48480, "pitch": 62, "duration": 10, "velocity": 80}, {"time": 48480, "pitch": 70, "duration": 10, "velocity": 80}, {"time": 48480, "pitch": 82, "duration": 10, "velocity": 30}, {"time": 48599, "pitch": 70, "duration": 10, "velocity": 56}, {"time": 48599, "pitch": 82, "duration": 10, "velocity": 20}, {"time": 48719, "pitch": 36, "duration": 10, "velocity": 106}, {"time": 48719, "pitch": 42, "duration": 10, "velocity": 78}, {"time": 48719, "pitch": 64, "duration": 10, "velocity": 56}, {"time": 48719, "pitch": 70, "duration": 10, "velocity": 64}, {"time": 48719, "pitch": 82, "duration": 10, "velocity": 80}, {"time": 48839, "pitch": 70, "duration": 10, "velocity": 56}, {"time": 48839, "pitch": 82, "duration": 10, "velocity": 20}, {"time": 48959, "pitch": 36, "duration": 10, "velocity": 106}, {"time": 48959, "pitch": 42, "duration": 10, "velocity": 92}, {"time": 48959, "pitch": 64, "duration": 10, "velocity": 64}, {"time": 48959, "pitch": 70, "duration": 10, "velocity": 64}, {"time": 48959, "pitch": 82, "duration": 10, "velocity": 30}, {"time": 49079, "pitch": 70, "duration": 10, "velocity": 56}, {"time": 49079, "pitch": 82, "duration": 10, "velocity": 20}, {"time": 49199, "pitch": 42, "duration": 10, "velocity": 78}, {"time": 49199, "pitch": 64, "duration": 10, "velocity": 56}, {"time": 49199, "pitch": 70, "duration": 10, "velocity": 64}, {"time": 49199, "pitch": 82, "duration": 10, "velocity": 80}, {"time": 49319, "pitch": 70, "duration": 10, "velocity": 56}, {"time": 49319, "pitch": 82, "duration": 10, "velocity": 20}, {"time": 49439, "pitch": 36, "duration": 10, "velocity": 106}, {"time": 49439, "pitch": 38, "duration": 10, "velocity": 106}, {"time": 49439, "pitch": 42, "duration": 10, "velocity": 92}, {"time": 49439, "pitch": 62, "duration": 10, "velocity": 80}, {"time": 49439, "pitch": 70, "duration": 10, "velocity": 80}, {"time": 49439, "pitch": 82, "duration": 10, "velocity": 30}, {"time": 49559, "pitch": 70, "duration": 10, "velocity": 56}, {"time": 49559, "pitch": 82, "duration": 10, "velocity": 20}, {"time": 49679, "pitch": 42, "duration": 10, "velocity": 78}, {"time": 49679, "pitch": 64, "duration": 10, "velocity": 56}, {"time": 49679, "pitch": 70, "duration": 10, "velocity": 64}, {"time": 49679, "pitch": 82, "duration": 10, "velocity": 80}, {"time": 49799, "pitch": 70, "duration": 10, "velocity": 56}, {"time": 49799, "pitch": 82, "duration": 10, "velocity": 20}, {"time": 49918, "pitch": 36, "duration": 10, "velocity": 106}, {"time": 49918, "pitch": 42, "duration": 10, "velocity": 92}, {"time": 49918, "pitch": 64, "duration": 10, "velocity": 64}, {"time": 49918, "pitch": 70, "duration": 10, "velocity": 64}, {"time": 49918, "pitch": 82, "duration": 10, "velocity": 30}, {"time": 50038, "pitch": 70, "duration": 10, "velocity": 56}, {"time": 50038, "pitch": 82, "duration": 10, "velocity": 20}, {"time": 50158, "pitch": 42, "duration": 10, "velocity": 78}, {"time": 50158, "pitch": 64, "duration": 10, "velocity": 56}, {"time": 50158, "pitch": 70, "duration": 10, "velocity": 64}, {"time": 50158, "pitch": 82, "duration": 10, "velocity": 80}, {"time": 50278, "pitch": 64, "duration": 10, "velocity": 40}, {"time": 50278, "pitch": 70, "duration": 10, "velocity": 56}, {"time": 50278, "pitch": 82, "duration": 10, "velocity": 20}, {"time": 50398, "pitch": 36, "duration": 10, "velocity": 106}, {"time": 50398, "pitch": 38, "duration": 10, "velocity": 106}, {"time": 50398, "pitch": 42, "duration": 10, "velocity": 92}, {"time": 50398, "pitch": 62, "duration": 10, "velocity": 80}, {"time": 50398, "pitch": 70, "duration": 10, "velocity": 80}, {"time": 50398, "pitch": 82, "duration": 10, "velocity": 30}, {"time": 50518, "pitch": 70, "duration": 10, "velocity": 56}, {"time": 50518, "pitch": 82, "duration": 10, "velocity": 20}, {"time": 50638, "pitch": 42, "duration": 10, "velocity": 78}, {"time": 50638, "pitch": 64, "duration": 10, "velocity": 56}, {"time": 50638, "pitch": 70, "duration": 10, "velocity": 64}, {"time": 50638, "pitch": 82, "duration": 10, "velocity": 80}, {"time": 50758, "pitch": 70, "duration": 10, "velocity": 56}, {"time": 50758, "pitch": 82, "duration": 10, "velocity": 20}, {"time": 50878, "pitch": 36, "duration": 10, "velocity": 106}, {"time": 50878, "pitch": 42, "duration": 10, "velocity": 92}, {"time": 50878, "pitch": 64, "duration": 10, "velocity": 64}, {"time": 50878, "pitch": 70, "duration": 10, "velocity": 64}, {"time": 50878, "pitch": 82, "duration": 10, "velocity": 30}, {"time": 50998, "pitch": 70, "duration": 10, "velocity": 56}, {"time": 50998, "pitch": 82, "duration": 10, "velocity": 20}, {"time": 51118, "pitch": 42, "duration": 10, "velocity": 78}, {"time": 51118, "pitch": 64, "duration": 10, "velocity": 56}, {"time": 51118, "pitch": 70, "duration": 10, "velocity": 64}, {"time": 51118, "pitch": 82, "duration": 10, "velocity": 80}, {"time": 51237, "pitch": 36, "duration": 10, "velocity": 106}, {"time": 51237, "pitch": 70, "duration": 10, "velocity": 56}, {"time": 51237, "pitch": 82, "duration": 10, "velocity": 20}, {"time": 51357, "pitch": 38, "duration": 10, "velocity": 106}, {"time": 51357, "pitch": 42, "duration": 10, "velocity": 92}, {"time": 51357, "pitch": 62, "duration": 10, "velocity": 80}, {"time": 51357, "pitch": 70, "duration": 10, "velocity": 80}, {"time": 51357, "pitch": 82, "duration": 10, "velocity": 30}, {"time": 51477, "pitch": 70, "duration": 10, "velocity": 56}, {"time": 51477, "pitch": 82, "duration": 10, "velocity": 20}, {"time": 51597, "pitch": 42, "duration": 10, "velocity": 78}, {"time": 51597, "pitch": 64, "duration": 10, "velocity": 56}, {"time": 51597, "pitch": 70, "duration": 10, "velocity": 64}, {"time": 51597, "pitch": 82, "duration": 10, "velocity": 80}, {"time": 51717, "pitch": 70, "duration": 10, "velocity": 56}, {"time": 51717, "pitch": 82, "duration": 10, "velocity": 20}, {"time": 51837, "pitch": 36, "duration": 10, "velocity": 106}, {"time": 51837, "pitch": 42, "duration": 10, "velocity": 92}, {"time": 51837, "pitch": 64, "duration": 10, "velocity": 64}, {"time": 51837, "pitch": 70, "duration": 10, "velocity": 64}, {"time": 51837, "pitch": 82, "duration": 10, "velocity": 30}, {"time": 51958, "pitch": 70, "duration": 11, "velocity": 56}, {"time": 51958, "pitch": 82, "duration": 11, "velocity": 20}, {"time": 52080, "pitch": 42, "duration": 10, "velocity": 78}, {"time": 52080, "pitch": 64, "duration": 10, "velocity": 56}, {"time": 52080, "pitch": 70, "duration": 10, "velocity": 64}, {"time": 52080, "pitch": 82, "duration": 10, "velocity": 80}, {"time": 52201, "pitch": 36, "duration": 10, "velocity": 106}, {"time": 52201, "pitch": 64, "duration": 10, "velocity": 40}, {"time": 52201, "pitch": 70, "duration": 10, "velocity": 56}, {"time": 52201, "pitch": 82, "duration": 10, "velocity": 20}, {"time": 52323, "pitch": 38, "duration": 10, "velocity": 106}, {"time": 52323, "pitch": 42, "duration": 10, "velocity": 92}, {"time": 52323, "pitch": 62, "duration": 10, "velocity": 80}, {"time": 52323, "pitch": 70, "duration": 10, "velocity": 80}, {"time": 52323, "pitch": 82, "duration": 10, "velocity": 30}, {"time": 52443, "pitch": 70, "duration": 10, "velocity": 56}, {"time": 52443, "pitch": 82, "duration": 10, "velocity": 20}, {"time": 52563, "pitch": 36, "duration": 10, "velocity": 106}, {"time": 52563, "pitch": 42, "duration": 10, "velocity": 78}, {"time": 52563, "pitch": 64, "duration": 10, "velocity": 56}, {"time": 52563, "pitch": 70, "duration": 10, "velocity": 64}, {"time": 52563, "pitch": 82, "duration": 10, "velocity": 80}, {"time": 52683, "pitch": 70, "duration": 10, "velocity": 56}, {"time": 52683, "pitch": 82, "duration": 10, "velocity": 20}, {"time": 52802, "pitch": 36, "duration": 10, "velocity": 106}, {"time": 52802, "pitch": 42, "duration": 10, "velocity": 92}, {"time": 52802, "pitch": 64, "duration": 10, "velocity": 64}, {"time": 52802, "pitch": 70, "duration": 10, "velocity": 64}, {"time": 52802, "pitch": 82, "duration": 10, "velocity": 30}, {"time": 52922, "pitch": 70, "duration": 10, "velocity": 56}, {"time": 52922, "pitch": 82, "duration": 10, "velocity": 20}, {"time": 53042, "pitch": 42, "duration": 10, "velocity": 78}, {"time": 53042, "pitch": 64, "duration": 10, "velocity": 56}, {"time": 53042, "pitch": 70, "duration": 10, "velocity": 64}, {"time": 53042, "pitch": 82, "duration": 10, "velocity": 80}, {"time": 53162, "pitch": 70, "duration": 10, "velocity": 56}, {"time": 53162, "pitch": 82, "duration": 10, "velocity": 20}, {"time": 53282, "pitch": 36, "duration": 10, "velocity": 106}, {"time": 53282, "pitch": 38, "duration": 10, "velocity": 106}, {"time": 53282, "pitch": 42, "duration": 10, "velocity": 92}, {"time": 53282, "pitch": 62, "duration": 10, "velocity": 80}, {"time": 53282, "pitch": 70, "duration": 10, "velocity": 80}, {"time": 53282, "pitch": 82, "duration": 10, "velocity": 30}, {"time": 53402, "pitch": 70, "duration": 10, "velocity": 56}, {"time": 53402, "pitch": 82, "duration": 10, "velocity": 20}, {"time": 53522, "pitch": 42, "duration": 10, "velocity": 78}, {"time": 53522, "pitch": 64, "duration": 10, "velocity": 56}, {"time": 53522, "pitch": 70, "duration": 10, "velocity": 64}, {"time": 53522, "pitch": 82, "duration": 10, "velocity": 80}, {"time": 53642, "pitch": 70, "duration": 10, "velocity": 56}, {"time": 53642, "pitch": 82, "duration": 10, "velocity": 20}, {"time": 53762, "pitch": 36, "duration": 10, "velocity": 106}, {"time": 53762, "pitch": 42, "duration": 10, "velocity": 92}, {"time": 53762, "pitch": 64, "duration": 10, "velocity": 64}, {"time": 53762, "pitch": 70, "duration": 10, "velocity": 64}, {"time": 53762, "pitch": 82, "duration": 10, "velocity": 30}, {"time": 53882, "pitch": 70, "duration": 10, "velocity": 56}, {"time": 53882, "pitch": 82, "duration": 10, "velocity": 20}, {"time": 54002, "pitch": 42, "duration": 10, "velocity": 78}, {"time": 54002, "pitch": 64, "duration": 10, "velocity": 56}, {"time": 54002, "pitch": 70, "duration": 10, "velocity": 64}, {"time": 54002, "pitch": 82, "duration": 10, "velocity": 80}, {"time": 54121, "pitch": 64, "duration": 10, "velocity": 40}, {"time": 54121, "pitch": 70, "duration": 10, "velocity": 56}, {"time": 54121, "pitch": 82, "duration": 10, "velocity": 20}, {"time": 54241, "pitch": 36, "duration": 10, "velocity": 106}, {"time": 54241, "pitch": 38, "duration": 10, "velocity": 106}, {"time": 54241, "pitch": 42, "duration": 10, "velocity": 92}, {"time": 54241, "pitch": 62, "duration": 10, "velocity": 80}, {"time": 54241, "pitch": 70, "duration": 10, "velocity": 80}, {"time": 54241, "pitch": 82, "duration": 10, "velocity": 30}, {"time": 54361, "pitch": 70, "duration": 10, "velocity": 56}, {"time": 54361, "pitch": 82, "duration": 10, "velocity": 20}, {"time": 54481, "pitch": 42, "duration": 10, "velocity": 78}, {"time": 54481, "pitch": 64, "duration": 10, "velocity": 56}, {"time": 54481, "pitch": 70, "duration": 10, "velocity": 64}, {"time": 54481, "pitch": 82, "duration": 10, "velocity": 80}, {"time": 54601, "pitch": 70, "duration": 10, "velocity": 56}, {"time": 54601, "pitch": 82, "duration": 10, "velocity": 20}, {"time": 54721, "pitch": 36, "duration": 10, "velocity": 106}, {"time": 54721, "pitch": 42, "duration": 10, "velocity": 92}, {"time": 54721, "pitch": 64, "duration": 10, "velocity": 64}, {"time": 54721, "pitch": 70, "duration": 10, "velocity": 64}, {"time": 54721, "pitch": 82, "duration": 10, "velocity": 30}, {"time": 54841, "pitch": 70, "duration": 10, "velocity": 56}, {"time": 54841, "pitch": 82, "duration": 10, "velocity": 20}, {"time": 54961, "pitch": 42, "duration": 10, "velocity": 78}, {"time": 54961, "pitch": 64, "duration": 10, "velocity": 56}, {"time": 54961, "pitch": 70, "duration": 10, "velocity": 64}, {"time": 54961, "pitch": 82, "duration": 10, "velocity": 80}, {"time": 55081, "pitch": 36, "duration": 10, "velocity": 106}, {"time": 55081, "pitch": 70, "duration": 10, "velocity": 56}, {"time": 55081, "pitch": 82, "duration": 10, "velocity": 20}, {"time": 55201, "pitch": 38, "duration": 10, "velocity": 106}, {"time": 55201, "pitch": 42, "duration": 10, "velocity": 92}, {"time": 55201, "pitch": 62, "duration": 10, "velocity": 80}, {"time": 55201, "pitch": 70, "duration": 10, "velocity": 80}, {"time": 55201, "pitch": 82, "duration": 10, "velocity": 30}, {"time": 55321, "pitch": 70, "duration": 10, "velocity": 56}, {"time": 55321, "pitch": 82, "duration": 10, "velocity": 20}, {"time": 55440, "pitch": 42, "duration": 10, "velocity": 78}, {"time": 55440, "pitch": 64, "duration": 10, "velocity": 56}, {"time": 55440, "pitch": 70, "duration": 10, "velocity": 64}, {"time": 55440, "pitch": 82, "duration": 10, "velocity": 80}, {"time": 55560, "pitch": 70, "duration": 10, "velocity": 56}, {"time": 55560, "pitch": 82, "duration": 10, "velocity": 20}, {"time": 55680, "pitch": 36, "duration": 10, "velocity": 106}, {"time": 55680, "pitch": 42, "duration": 10, "velocity": 92}, {"time": 55680, "pitch": 64, "duration": 10, "velocity": 64}, {"time": 55680, "pitch": 70, "duration": 10, "velocity": 64}, {"time": 55680, "pitch": 82, "duration": 10, "velocity": 30}, {"time": 55800, "pitch": 70, "duration": 10, "velocity": 56}, {"time": 55800, "pitch": 82, "duration": 10, "velocity": 20}, {"time": 55920, "pitch": 42, "duration": 10, "velocity": 78}, {"time": 55920, "pitch": 64, "duration": 10, "velocity": 56}, {"time": 55920, "pitch": 70, "duration": 10, "velocity": 64}, {"time": 55920, "pitch": 82, "duration": 10, "velocity": 80}, {"time": 56040, "pitch": 36, "duration": 10, "velocity": 106}, {"time": 56040, "pitch": 64, "duration": 10, "velocity": 40}, {"time": 56040, "pitch": 70, "duration": 10, "velocity": 56}, {"time": 56040, "pitch": 82, "duration": 10, "velocity": 20}, {"time": 56160, "pitch": 38, "duration": 10, "velocity": 106}, {"time": 56160, "pitch": 42, "duration": 10, "velocity": 92}, {"time": 56160, "pitch": 62, "duration": 10, "velocity": 80}, {"time": 56160, "pitch": 70, "duration": 10, "velocity": 80}, {"time": 56160, "pitch": 82, "duration": 10, "velocity": 30}, {"time": 56280, "pitch": 70, "duration": 10, "velocity": 56}, {"time": 56280, "pitch": 82, "duration": 10, "velocity": 20}, {"time": 56400, "pitch": 36, "duration": 10, "velocity": 106}, {"time": 56400, "pitch": 42, "duration": 10, "velocity": 78}, {"time": 56400, "pitch": 64, "duration": 10, "velocity": 56}, {"time": 56400, "pitch": 70, "duration": 10, "velocity": 64}, {"time": 56400, "pitch": 82, "duration": 10, "velocity": 80}, {"time": 56520, "pitch": 70, "duration": 10, "velocity": 56}, {"time": 56520, "pitch": 82, "duration": 10, "velocity": 20}, {"time": 56640, "pitch": 36, "duration": 10, "velocity": 106}, {"time": 56640, "pitch": 42, "duration": 10, "velocity": 92}, {"time": 56640, "pitch": 64, "duration": 10, "velocity": 64}, {"time": 56640, "pitch": 70, "duration": 10, "velocity": 64}, {"time": 56640, "pitch": 82, "duration": 10, "velocity": 30}, {"time": 56760, "pitch": 70, "duration": 10, "velocity": 56}, {"time": 56760, "pitch": 82, "duration": 10, "velocity": 20}, {"time": 56879, "pitch": 42, "duration": 10, "velocity": 78}, {"time": 56879, "pitch": 64, "duration": 10, "velocity": 56}, {"time": 56879, "pitch": 70, "duration": 10, "velocity": 64}, {"time": 56879, "pitch": 82, "duration": 10, "velocity": 80}, {"time": 56999, "pitch": 70, "duration": 10, "velocity": 56}, {"time": 56999, "pitch": 82, "duration": 10, "velocity": 20}, {"time": 57119, "pitch": 36, "duration": 10, "velocity": 106}, {"time": 57119, "pitch": 38, "duration": 10, "velocity": 106}, {"time": 57119, "pitch": 42, "duration": 10, "velocity": 92}, {"time": 57119, "pitch": 62, "duration": 10, "velocity": 80}, {"time": 57119, "pitch": 70, "duration": 10, "velocity": 80}, {"time": 57119, "pitch": 82, "duration": 10, "velocity": 30}, {"time": 57239, "pitch": 70, "duration": 10, "velocity": 56}, {"time": 57239, "pitch": 82, "duration": 10, "velocity": 20}, {"time": 57359, "pitch": 42, "duration": 10, "velocity": 78}, {"time": 57359, "pitch": 64, "duration": 10, "velocity": 56}, {"time": 57359, "pitch": 70, "duration": 10, "velocity": 64}, {"time": 57359, "pitch": 82, "duration": 10, "velocity": 80}, {"time": 57479, "pitch": 70, "duration": 10, "velocity": 56}, {"time": 57479, "pitch": 82, "duration": 10, "velocity": 20}, {"time": 57599, "pitch": 36, "duration": 10, "velocity": 106}, {"time": 57599, "pitch": 42, "duration": 10, "velocity": 92}, {"time": 57599, "pitch": 64, "duration": 10, "velocity": 64}, {"time": 57599, "pitch": 70, "duration": 10, "velocity": 64}, {"time": 57599, "pitch": 82, "duration": 10, "velocity": 30}, {"time": 57719, "pitch": 70, "duration": 10, "velocity": 56}, {"time": 57719, "pitch": 82, "duration": 10, "velocity": 20}, {"time": 57839, "pitch": 42, "duration": 10, "velocity": 78}, {"time": 57839, "pitch": 64, "duration": 10, "velocity": 56}, {"time": 57839, "pitch": 70, "duration": 10, "velocity": 64}, {"time": 57839, "pitch": 82, "duration": 10, "velocity": 80}, {"time": 57959, "pitch": 64, "duration": 10, "velocity": 40}, {"time": 57959, "pitch": 70, "duration": 10, "velocity": 56}, {"time": 57959, "pitch": 82, "duration": 10, "velocity": 20}, {"time": 58079, "pitch": 36, "duration": 10, "velocity": 106}, {"time": 58079, "pitch": 38, "duration": 10, "velocity": 106}, {"time": 58079, "pitch": 42, "duration": 10, "velocity": 92}, {"time": 58079, "pitch": 62, "duration": 10, "velocity": 80}, {"time": 58079, "pitch": 70, "duration": 10, "velocity": 80}, {"time": 58079, "pitch": 82, "duration": 10, "velocity": 30}, {"time": 58198, "pitch": 70, "duration": 10, "velocity": 56}, {"time": 58198, "pitch": 82, "duration": 10, "velocity": 20}, {"time": 58318, "pitch": 42, "duration": 10, "velocity": 78}, {"time": 58318, "pitch": 64, "duration": 10, "velocity": 56}, {"time": 58318, "pitch": 70, "duration": 10, "velocity": 64}, {"time": 58318, "pitch": 82, "duration": 10, "velocity": 80}, {"time": 58438, "pitch": 70, "duration": 10, "velocity": 56}, {"time": 58438, "pitch": 82, "duration": 10, "velocity": 20}, {"time": 58558, "pitch": 36, "duration": 10, "velocity": 106}, {"time": 58558, "pitch": 42, "duration": 10, "velocity": 92}, {"time": 58558, "pitch": 64, "duration": 10, "velocity": 64}, {"time": 58558, "pitch": 70, "duration": 10, "velocity": 64}, {"time": 58558, "pitch": 82, "duration": 10, "velocity": 30}, {"time": 58678, "pitch": 70, "duration": 10, "velocity": 56}, {"time": 58678, "pitch": 82, "duration": 10, "velocity": 20}, {"time": 58798, "pitch": 42, "duration": 10, "velocity": 78}, {"time": 58798, "pitch": 64, "duration": 10, "velocity": 56}, {"time": 58798, "pitch": 70, "duration": 10, "velocity": 64}, {"time": 58798, "pitch": 82, "duration": 10, "velocity": 80}, {"time": 58918, "pitch": 36, "duration": 10, "velocity": 106}, {"time": 58918, "pitch": 70, "duration": 10, "velocity": 56}, {"time": 58918, "pitch": 82, "duration": 10, "velocity": 20}, {"time": 59038, "pitch": 38, "duration": 10, "velocity": 106}, {"time": 59038, "pitch": 42, "duration": 10, "velocity": 92}, {"time": 59038, "pitch": 62, "duration": 10, "velocity": 80}, {"time": 59038, "pitch": 70, "duration": 10, "velocity": 80}, {"time": 59038, "pitch": 82, "duration": 10, "velocity": 30}, {"time": 59158, "pitch": 70, "duration": 10, "velocity": 56}, {"time": 59158, "pitch": 82, "duration": 10, "velocity": 20}, {"time": 59278, "pitch": 42, "duration": 10, "velocity": 78}, {"time": 59278, "pitch": 64, "duration": 10, "velocity": 56}, {"time": 59278, "pitch": 70, "duration": 10, "velocity": 64}, {"time": 59278, "pitch": 82, "duration": 10, "velocity": 80}, {"time": 59398, "pitch": 70, "duration": 10, "velocity": 56}, {"time": 59398, "pitch": 82, "duration": 10, "velocity": 20}, {"time": 59518, "pitch": 36, "duration": 9, "velocity": 106}, {"time": 59518, "pitch": 42, "duration": 9, "velocity": 92}, {"time": 59518, "pitch": 64, "duration": 9, "velocity": 64}, {"time": 59518, "pitch": 70, "duration": 9, "velocity": 64}, {"time": 59518, "pitch": 82, "duration": 9, "velocity": 30}, {"time": 59637, "pitch": 70, "duration": 10, "velocity": 56}, {"time": 59637, "pitch": 82, "duration": 10, "velocity": 20}, {"time": 59757, "pitch": 42, "duration": 10, "velocity": 78}, {"time": 59757, "pitch": 64, "duration": 10, "velocity": 56}, {"time": 59757, "pitch": 70, "duration": 10, "velocity": 64}, {"time": 59757, "pitch": 82, "duration": 10, "velocity": 80}, {"time": 59877, "pitch": 36, "duration": 10, "velocity": 106}, {"time": 59877, "pitch": 64, "duration": 10, "velocity": 40}, {"time": 59877, "pitch": 70, "duration": 10, "velocity": 56}, {"time": 59877, "pitch": 82, "duration": 10, "velocity": 20}, {"time": 59997, "pitch": 38, "duration": 10, "velocity": 106}, {"time": 59997, "pitch": 42, "duration": 10, "velocity": 92}, {"time": 59997, "pitch": 62, "duration": 10, "velocity": 80}, {"time": 59997, "pitch": 70, "duration": 10, "velocity": 80}, {"time": 59997, "pitch": 82, "duration": 10, "velocity": 30}, {"time": 60119, "pitch": 70, "duration": 10, "velocity": 56}, {"time": 60119, "pitch": 82, "duration": 10, "velocity": 20}, {"time": 60240, "pitch": 36, "duration": 10, "velocity": 106}, {"time": 60240, "pitch": 42, "duration": 10, "velocity": 78}, {"time": 60240, "pitch": 64, "duration": 10, "velocity": 56}, {"time": 60240, "pitch": 70, "duration": 10, "velocity": 64}, {"time": 60240, "pitch": 82, "duration": 10, "velocity": 80}, {"time": 60361, "pitch": 70, "duration": 11, "velocity": 56}, {"time": 60361, "pitch": 82, "duration": 11, "velocity": 20}, {"time": 60483, "pitch": 36, "duration": 10, "velocity": 106}, {"time": 60483, "pitch": 42, "duration": 10, "velocity": 92}, {"time": 60483, "pitch": 64, "duration": 10, "velocity": 64}, {"time": 60483, "pitch": 70, "duration": 10, "velocity": 64}, {"time": 60483, "pitch": 82, "duration": 10, "velocity": 30}, {"time": 60603, "pitch": 70, "duration": 10, "velocity": 56}, {"time": 60603, "pitch": 82, "duration": 10, "velocity": 20}, {"time": 60723, "pitch": 42, "duration": 10, "velocity": 78}, {"time": 60723, "pitch": 64, "duration": 10, "velocity": 56}, {"time": 60723, "pitch": 70, "duration": 10, "velocity": 64}, {"time": 60723, "pitch": 82, "duration": 10, "velocity": 80}, {"time": 60843, "pitch": 36, "duration": 10, "velocity": 106}, {"time": 60843, "pitch": 70, "duration": 10, "velocity": 56}, {"time": 60843, "pitch": 82, "duration": 10, "velocity": 20}, {"time": 60963, "pitch": 38, "duration": 10, "velocity": 106}, {"time": 60963, "pitch": 42, "duration": 10, "velocity": 92}, {"time": 60963, "pitch": 62, "duration": 10, "velocity": 80}, {"time": 60963, "pitch": 70, "duration": 10, "velocity": 80}, {"time": 60963, "pitch": 82, "duration": 10, "velocity": 30}, {"time": 61082, "pitch": 70, "duration": 10, "velocity": 56}, {"time": 61082, "pitch": 82, "duration": 10, "velocity": 20}, {"time": 61202, "pitch": 42, "duration": 10, "velocity": 78}, {"time": 61202, "pitch": 64, "duration": 10, "velocity": 56}, {"time": 61202, "pitch": 70, "duration": 10, "velocity": 64}, {"time": 61202, "pitch": 82, "duration": 10, "velocity": 80}, {"time": 61322, "pitch": 70, "duration": 10, "velocity": 56}, {"time": 61322, "pitch": 82, "duration": 10, "velocity": 20}, {"time": 61442, "pitch": 36, "duration": 10, "velocity": 106}, {"time": 61442, "pitch": 42, "duration": 10, "velocity": 92}, {"time": 61442, "pitch": 64, "duration": 10, "velocity": 64}, {"time": 61442, "pitch": 70, "duration": 10, "velocity": 64}, {"time": 61442, "pitch": 82, "duration": 10, "velocity": 30}, {"time": 61562, "pitch": 70, "duration": 10, "velocity": 56}, {"time": 61562, "pitch": 82, "duration": 10, "velocity": 20}, {"time": 61682, "pitch": 42, "duration": 10, "velocity": 78}, {"time": 61682, "pitch": 64, "duration": 10, "velocity": 56}, {"time": 61682, "pitch": 70, "duration": 10, "velocity": 64}, {"time": 61682, "pitch": 82, "duration": 10, "velocity": 80}, {"time": 61802, "pitch": 36, "duration": 10, "velocity": 106}, {"time": 61802, "pitch": 64, "duration": 10, "velocity": 40}, {"time": 61802, "pitch": 70, "duration": 10, "velocity": 56}, {"time": 61802, "pitch": 82, "duration": 10, "velocity": 20}, {"time": 61922, "pitch": 38, "duration": 10, "velocity": 106}, {"time": 61922, "pitch": 42, "duration": 10, "velocity": 92}, {"time": 61922, "pitch": 62, "duration": 10, "velocity": 80}, {"time": 61922, "pitch": 70, "duration": 10, "velocity": 80}, {"time": 61922, "pitch": 82, "duration": 10, "velocity": 30}, {"time": 62042, "pitch": 70, "duration": 10, "velocity": 56}, {"time": 62042, "pitch": 82, "duration": 10, "velocity": 20}, {"time": 62162, "pitch": 42, "duration": 10, "velocity": 78}, {"time": 62162, "pitch": 64, "duration": 10, "velocity": 56}, {"time": 62162, "pitch": 70, "duration": 10, "velocity": 64}, {"time": 62162, "pitch": 82, "duration": 10, "velocity": 80}, {"time": 62282, "pitch": 70, "duration": 10, "velocity": 56}, {"time": 62282, "pitch": 82, "duration": 10, "velocity": 20}, {"time": 62401, "pitch": 36, "duration": 10, "velocity": 106}, {"time": 62401, "pitch": 42, "duration": 10, "velocity": 92}, {"time": 62401, "pitch": 64, "duration": 10, "velocity": 64}, {"time": 62401, "pitch": 70, "duration": 10, "velocity": 64}, {"time": 62401, "pitch": 82, "duration": 10, "velocity": 30}, {"time": 62521, "pitch": 70, "duration": 10, "velocity": 56}, {"time": 62521, "pitch": 82, "duration": 10, "velocity": 20}, {"time": 62641, "pitch": 42, "duration": 10, "velocity": 78}, {"time": 62641, "pitch": 64, "duration": 10, "velocity": 56}, {"time": 62641, "pitch": 70, "duration": 10, "velocity": 64}, {"time": 62641, "pitch": 82, "duration": 10, "velocity": 80}, {"time": 62761, "pitch": 70, "duration": 10, "velocity": 56}, {"time": 62761, "pitch": 82, "duration": 10, "velocity": 20}, {"time": 62881, "pitch": 38, "duration": 10, "velocity": 106}, {"time": 62881, "pitch": 42, "duration": 10, "velocity": 92}, {"time": 62881, "pitch": 62, "duration": 10, "velocity": 80}, {"time": 62881, "pitch": 70, "duration": 10, "velocity": 80}, {"time": 62881, "pitch": 82, "duration": 10, "velocity": 30}, {"time": 63001, "pitch": 70, "duration": 10, "velocity": 56}, {"time": 63001, "pitch": 82, "duration": 10, "velocity": 20}, {"time": 63121, "pitch": 42, "duration": 10, "velocity": 78}, {"time": 63121, "pitch": 64, "duration": 10, "velocity": 56}, {"time": 63121, "pitch": 70, "duration": 10, "velocity": 64}, {"time": 63121, "pitch": 82, "duration": 10, "velocity": 80}, {"time": 63241, "pitch": 70, "duration": 10, "velocity": 56}, {"time": 63241, "pitch": 82, "duration": 10, "velocity": 20}, {"time": 63361, "pitch": 36, "duration": 10, "velocity": 106}, {"time": 63361, "pitch": 42, "duration": 10, "velocity": 92}, {"time": 63361, "pitch": 64, "duration": 10, "velocity": 64}, {"time": 63361, "pitch": 70, "duration": 10, "velocity": 64}, {"time": 63361, "pitch": 82, "duration": 10, "velocity": 30}, {"time": 63481, "pitch": 70, "duration": 10, "velocity": 56}, {"time": 63481, "pitch": 82, "duration": 10, "velocity": 20}, {"time": 63601, "pitch": 42, "duration": 10, "velocity": 78}, {"time": 63601, "pitch": 64, "duration": 10, "velocity": 56}, {"time": 63601, "pitch": 70, "duration": 10, "velocity": 64}, {"time": 63601, "pitch": 82, "duration": 10, "velocity": 80}, {"time": 63720, "pitch": 36, "duration": 10, "velocity": 106}, {"time": 63720, "pitch": 64, "duration": 10, "velocity": 40}, {"time": 63720, "pitch": 70, "duration": 10, "velocity": 56}, {"time": 63720, "pitch": 82, "duration": 10, "velocity": 20}, {"time": 63840, "pitch": 38, "duration": 10, "velocity": 106}, {"time": 63840, "pitch": 42, "duration": 10, "velocity": 92}, {"time": 63840, "pitch": 62, "duration": 10, "velocity": 80}, {"time": 63840, "pitch": 70, "duration": 10, "velocity": 80}, {"time": 63840, "pitch": 82, "duration": 10, "velocity": 30}, {"time": 63960, "pitch": 70, "duration": 10, "velocity": 56}, {"time": 63960, "pitch": 82, "duration": 10, "velocity": 20}, {"time": 64080, "pitch": 42, "duration": 10, "velocity": 78}, {"time": 64080, "pitch": 64, "duration": 10, "velocity": 56}, {"time": 64080, "pitch": 70, "duration": 10, "velocity": 64}, {"time": 64080, "pitch": 82, "duration": 10, "velocity": 80}, {"time": 64200, "pitch": 70, "duration": 10, "velocity": 56}, {"time": 64200, "pitch": 82, "duration": 10, "velocity": 20}, {"time": 64320, "pitch": 36, "duration": 10, "velocity": 106}, {"time": 64320, "pitch": 42, "duration": 10, "velocity": 92}, {"time": 64320, "pitch": 64, "duration": 10, "velocity": 64}, {"time": 64320, "pitch": 70, "duration": 10, "velocity": 64}, {"time": 64320, "pitch": 82, "duration": 10, "velocity": 30}, {"time": 64440, "pitch": 70, "duration": 10, "velocity": 56}, {"time": 64440, "pitch": 82, "duration": 10, "velocity": 20}, {"time": 64560, "pitch": 42, "duration": 10, "velocity": 78}, {"time": 64560, "pitch": 64, "duration": 10, "velocity": 56}, {"time": 64560, "pitch": 70, "duration": 10, "velocity": 64}, {"time": 64560, "pitch": 82, "duration": 10, "velocity": 80}, {"time": 64680, "pitch": 36, "duration": 10, "velocity": 106}, {"time": 64680, "pitch": 70, "duration": 10, "velocity": 56}, {"time": 64680, "pitch": 82, "duration": 10, "velocity": 20}, {"time": 64800, "pitch": 38, "duration": 10, "velocity": 106}, {"time": 64800, "pitch": 42, "duration": 10, "velocity": 92}, {"time": 64800, "pitch": 62, "duration": 10, "velocity": 80}, {"time": 64800, "pitch": 70, "duration": 10, "velocity": 80}, {"time": 64800, "pitch": 82, "duration": 10, "velocity": 30}, {"time": 64920, "pitch": 70, "duration": 10, "velocity": 56}, {"time": 64920, "pitch": 82, "duration": 10, "velocity": 20}, {"time": 65040, "pitch": 42, "duration": 10, "velocity": 78}, {"time": 65040, "pitch": 64, "duration": 10, "velocity": 56}, {"time": 65040, "pitch": 70, "duration": 10, "velocity": 64}, {"time": 65040, "pitch": 82, "duration": 10, "velocity": 80}, {"time": 65159, "pitch": 70, "duration": 10, "velocity": 56}, {"time": 65159, "pitch": 82, "duration": 10, "velocity": 20}, {"time": 65279, "pitch": 36, "duration": 10, "velocity": 106}, {"time": 65279, "pitch": 42, "duration": 10, "velocity": 92}, {"time": 65279, "pitch": 64, "duration": 10, "velocity": 64}, {"time": 65279, "pitch": 70, "duration": 10, "velocity": 64}, {"time": 65279, "pitch": 82, "duration": 10, "velocity": 30}, {"time": 65399, "pitch": 70, "duration": 10, "velocity": 56}, {"time": 65399, "pitch": 82, "duration": 10, "velocity": 20}, {"time": 65519, "pitch": 42, "duration": 10, "velocity": 78}, {"time": 65519, "pitch": 64, "duration": 10, "velocity": 56}, {"time": 65519, "pitch": 70, "duration": 10, "velocity": 64}, {"time": 65519, "pitch": 82, "duration": 10, "velocity": 80}, {"time": 65639, "pitch": 36, "duration": 10, "velocity": 106}, {"time": 65639, "pitch": 64, "duration": 10, "velocity": 40}, {"time": 65639, "pitch": 70, "duration": 10, "velocity": 56}, {"time": 65639, "pitch": 82, "duration": 10, "velocity": 20}, {"time": 65759, "pitch": 38, "duration": 10, "velocity": 106}, {"time": 65759, "pitch": 42, "duration": 10, "velocity": 92}, {"time": 65759, "pitch": 62, "duration": 10, "velocity": 80}, {"time": 65759, "pitch": 70, "duration": 10, "velocity": 80}, {"time": 65759, "pitch": 82, "duration": 10, "velocity": 30}, {"time": 65879, "pitch": 70, "duration": 10, "velocity": 56}, {"time": 65879, "pitch": 82, "duration": 10, "velocity": 20}, {"time": 65999, "pitch": 42, "duration": 10, "velocity": 78}, {"time": 65999, "pitch": 64, "duration": 10, "velocity": 56}, {"time": 65999, "pitch": 70, "duration": 10, "velocity": 64}, {"time": 65999, "pitch": 82, "duration": 10, "velocity": 80}, {"time": 66119, "pitch": 70, "duration": 10, "velocity": 56}, {"time": 66119, "pitch": 82, "duration": 10, "velocity": 20}, {"time": 66239, "pitch": 36, "duration": 10, "velocity": 106}, {"time": 66239, "pitch": 42, "duration": 10, "velocity": 92}, {"time": 66239, "pitch": 64, "duration": 10, "velocity": 64}, {"time": 66239, "pitch": 70, "duration": 10, "velocity": 64}, {"time": 66239, "pitch": 82, "duration": 10, "velocity": 30}, {"time": 66359, "pitch": 70, "duration": 10, "velocity": 56}, {"time": 66359, "pitch": 82, "duration": 10, "velocity": 20}, {"time": 66478, "pitch": 42, "duration": 10, "velocity": 78}, {"time": 66478, "pitch": 64, "duration": 10, "velocity": 56}, {"time": 66478, "pitch": 70, "duration": 10, "velocity": 64}, {"time": 66478, "pitch": 82, "duration": 10, "velocity": 80}, {"time": 66598, "pitch": 70, "duration": 10, "velocity": 56}, {"time": 66598, "pitch": 82, "duration": 10, "velocity": 20}, {"time": 66718, "pitch": 38, "duration": 10, "velocity": 106}, {"time": 66718, "pitch": 42, "duration": 10, "velocity": 92}, {"time": 66718, "pitch": 62, "duration": 10, "velocity": 80}, {"time": 66718, "pitch": 70, "duration": 10, "velocity": 80}, {"time": 66718, "pitch": 82, "duration": 10, "velocity": 30}, {"time": 66838, "pitch": 70, "duration": 10, "velocity": 56}, {"time": 66838, "pitch": 82, "duration": 10, "velocity": 20}, {"time": 66958, "pitch": 42, "duration": 10, "velocity": 78}, {"time": 66958, "pitch": 64, "duration": 10, "velocity": 56}, {"time": 66958, "pitch": 70, "duration": 10, "velocity": 64}, {"time": 66958, "pitch": 82, "duration": 10, "velocity": 80}, {"time": 67078, "pitch": 70, "duration": 10, "velocity": 56}, {"time": 67078, "pitch": 82, "duration": 10, "velocity": 20}, {"time": 67198, "pitch": 36, "duration": 10, "velocity": 106}, {"time": 67198, "pitch": 42, "duration": 10, "velocity": 92}, {"time": 67198, "pitch": 64, "duration": 10, "velocity": 64}, {"time": 67198, "pitch": 70, "duration": 10, "velocity": 64}, {"time": 67198, "pitch": 82, "duration": 10, "velocity": 30}, {"time": 67318, "pitch": 70, "duration": 10, "velocity": 56}, {"time": 67318, "pitch": 82, "duration": 10, "velocity": 20}, {"time": 67438, "pitch": 42, "duration": 10, "velocity": 78}, {"time": 67438, "pitch": 64, "duration": 10, "velocity": 56}, {"time": 67438, "pitch": 70, "duration": 10, "velocity": 64}, {"time": 67438, "pitch": 82, "duration": 10, "velocity": 80}, {"time": 67558, "pitch": 36, "duration": 10, "velocity": 106}, {"time": 67558, "pitch": 64, "duration": 10, "velocity": 40}, {"time": 67558, "pitch": 70, "duration": 10, "velocity": 56}, {"time": 67558, "pitch": 82, "duration": 10, "velocity": 20}, {"time": 67678, "pitch": 38, "duration": 10, "velocity": 106}, {"time": 67678, "pitch": 42, "duration": 10, "velocity": 92}, {"time": 67678, "pitch": 62, "duration": 10, "velocity": 80}, {"time": 67678, "pitch": 70, "duration": 10, "velocity": 80}, {"time": 67678, "pitch": 82, "duration": 10, "velocity": 30}, {"time": 67798, "pitch": 70, "duration": 10, "velocity": 56}, {"time": 67798, "pitch": 82, "duration": 10, "velocity": 20}, {"time": 67917, "pitch": 42, "duration": 10, "velocity": 78}, {"time": 67917, "pitch": 64, "duration": 10, "velocity": 56}, {"time": 67917, "pitch": 70, "duration": 10, "velocity": 64}, {"time": 67917, "pitch": 82, "duration": 10, "velocity": 80}, {"time": 68037, "pitch": 70, "duration": 10, "velocity": 56}, {"time": 68037, "pitch": 82, "duration": 10, "velocity": 20}, {"time": 68157, "pitch": 36, "duration": 10, "velocity": 106}, {"time": 68157, "pitch": 42, "duration": 10, "velocity": 92}, {"time": 68157, "pitch": 64, "duration": 10, "velocity": 64}, {"time": 68157, "pitch": 70, "duration": 10, "velocity": 64}, {"time": 68157, "pitch": 82, "duration": 10, "velocity": 30}, {"time": 68279, "pitch": 70, "duration": 10, "velocity": 56}, {"time": 68279, "pitch": 82, "duration": 10, "velocity": 20}, {"time": 68400, "pitch": 42, "duration": 10, "velocity": 78}, {"time": 68400, "pitch": 64, "duration": 10, "velocity": 56}, {"time": 68400, "pitch": 70, "duration": 10, "velocity": 64}, {"time": 68400, "pitch": 82, "duration": 10, "velocity": 80}, {"time": 68522, "pitch": 36, "duration": 10, "velocity": 106}, {"time": 68522, "pitch": 70, "duration": 10, "velocity": 56}, {"time": 68522, "pitch": 82, "duration": 10, "velocity": 20}, {"time": 68643, "pitch": 38, "duration": 10, "velocity": 106}, {"time": 68643, "pitch": 42, "duration": 10, "velocity": 92}, {"time": 68643, "pitch": 62, "duration": 10, "velocity": 80}, {"time": 68643, "pitch": 70, "duration": 10, "velocity": 80}, {"time": 68643, "pitch": 82, "duration": 10, "velocity": 30}, {"time": 68763, "pitch": 70, "duration": 10, "velocity": 56}, {"time": 68763, "pitch": 82, "duration": 10, "velocity": 20}, {"time": 68883, "pitch": 42, "duration": 10, "velocity": 78}, {"time": 68883, "pitch": 64, "duration": 10, "velocity": 56}, {"time": 68883, "pitch": 70, "duration": 10, "velocity": 64}, {"time": 68883, "pitch": 82, "duration": 10, "velocity": 80}, {"time": 69003, "pitch": 70, "duration": 10, "velocity": 56}, {"time": 69003, "pitch": 82, "duration": 10, "velocity": 20}, {"time": 69123, "pitch": 36, "duration": 10, "velocity": 106}, {"time": 69123, "pitch": 42, "duration": 10, "velocity": 92}, {"time": 69123, "pitch": 64, "duration": 10, "velocity": 64}, {"time": 69123, "pitch": 70, "duration": 10, "velocity": 64}, {"time": 69123, "pitch": 82, "duration": 10, "velocity": 30}, {"time": 69243, "pitch": 70, "duration": 10, "velocity": 56}, {"time": 69243, "pitch": 82, "duration": 10, "velocity": 20}, {"time": 69362, "pitch": 42, "duration": 10, "velocity": 78}, {"time": 69362, "pitch": 64, "duration": 10, "velocity": 56}, {"time": 69362, "pitch": 70, "duration": 10, "velocity": 64}, {"time": 69362, "pitch": 82, "duration": 10, "velocity": 80}, {"time": 69482, "pitch": 36, "duration": 10, "velocity": 106}, {"time": 69482, "pitch": 64, "duration": 10, "velocity": 40}, {"time": 69482, "pitch": 70, "duration": 10, "velocity": 56}, {"time": 69482, "pitch": 82, "duration": 10, "velocity": 20}, {"time": 69602, "pitch": 38, "duration": 10, "velocity": 106}, {"time": 69602, "pitch": 42, "duration": 10, "velocity": 92}, {"time": 69602, "pitch": 62, "duration": 10, "velocity": 80}, {"time": 69602, "pitch": 70, "duration": 10, "velocity": 80}, {"time": 69602, "pitch": 82, "duration": 10, "velocity": 30}, {"time": 69722, "pitch": 70, "duration": 10, "velocity": 56}, {"time": 69722, "pitch": 82, "duration": 10, "velocity": 20}, {"time": 69842, "pitch": 42, "duration": 10, "velocity": 78}, {"time": 69842, "pitch": 64, "duration": 10, "velocity": 56}, {"time": 69842, "pitch": 70, "duration": 10, "velocity": 64}, {"time": 69842, "pitch": 82, "duration": 10, "velocity": 80}, {"time": 69962, "pitch": 70, "duration": 10, "velocity": 56}, {"time": 69962, "pitch": 82, "duration": 10, "velocity": 20}, {"time": 70082, "pitch": 36, "duration": 10, "velocity": 106}, {"time": 70082, "pitch": 42, "duration": 10, "velocity": 92}, {"time": 70082, "pitch": 64, "duration": 10, "velocity": 64}, {"time": 70082, "pitch": 70, "duration": 10, "velocity": 64}, {"time": 70082, "pitch": 82, "duration": 10, "velocity": 30}, {"time": 70202, "pitch": 70, "duration": 10, "velocity": 56}, {"time": 70202, "pitch": 82, "duration": 10, "velocity": 20}, {"time": 70322, "pitch": 42, "duration": 10, "velocity": 78}, {"time": 70322, "pitch": 64, "duration": 10, "velocity": 56}, {"time": 70322, "pitch": 70, "duration": 10, "velocity": 64}, {"time": 70322, "pitch": 82, "duration": 10, "velocity": 80}, {"time": 70442, "pitch": 70, "duration": 10, "velocity": 56}, {"time": 70442, "pitch": 82, "duration": 10, "velocity": 20}, {"time": 70562, "pitch": 38, "duration": 10, "velocity": 106}, {"time": 70562, "pitch": 42, "duration": 10, "velocity": 92}, {"time": 70562, "pitch": 62, "duration": 10, "velocity": 80}, {"time": 70562, "pitch": 70, "duration": 10, "velocity": 80}, {"time": 70562, "pitch": 82, "duration": 10, "velocity": 30}, {"time": 70681, "pitch": 70, "duration": 10, "velocity": 56}, {"time": 70681, "pitch": 82, "duration": 10, "velocity": 20}, {"time": 70801, "pitch": 42, "duration": 10, "velocity": 78}, {"time": 70801, "pitch": 64, "duration": 10, "velocity": 56}, {"time": 70801, "pitch": 70, "duration": 10, "velocity": 64}, {"time": 70801, "pitch": 82, "duration": 10, "velocity": 80}, {"time": 70921, "pitch": 70, "duration": 10, "velocity": 56}, {"time": 70921, "pitch": 82, "duration": 10, "velocity": 20}, {"time": 71041, "pitch": 36, "duration": 10, "velocity": 106}, {"time": 71041, "pitch": 42, "duration": 10, "velocity": 92}, {"time": 71041, "pitch": 64, "duration": 10, "velocity": 64}, {"time": 71041, "pitch": 70, "duration": 10, "velocity": 64}, {"time": 71041, "pitch": 82, "duration": 10, "velocity": 30}, {"time": 71161, "pitch": 70, "duration": 10, "velocity": 56}, {"time": 71161, "pitch": 82, "duration": 10, "velocity": 20}, {"time": 71281, "pitch": 42, "duration": 10, "velocity": 78}, {"time": 71281, "pitch": 64, "duration": 10, "velocity": 56}, {"time": 71281, "pitch": 70, "duration": 10, "velocity": 64}, {"time": 71281, "pitch": 82, "duration": 10, "velocity": 80}, {"time": 71401, "pitch": 36, "duration": 10, "velocity": 106}, {"time": 71401, "pitch": 64, "duration": 10, "velocity": 40}, {"time": 71401, "pitch": 70, "duration": 10, "velocity": 56}, {"time": 71401, "pitch": 82, "duration": 10, "velocity": 20}, {"time": 71521, "pitch": 38, "duration": 10, "velocity": 106}, {"time": 71521, "pitch": 42, "duration": 10, "velocity": 92}, {"time": 71521, "pitch": 62, "duration": 10, "velocity": 80}, {"time": 71521, "pitch": 70, "duration": 10, "velocity": 80}, {"time": 71521, "pitch": 82, "duration": 10, "velocity": 30}, {"time": 71641, "pitch": 70, "duration": 10, "velocity": 56}, {"time": 71641, "pitch": 82, "duration": 10, "velocity": 20}, {"time": 71761, "pitch": 42, "duration": 10, "velocity": 78}, {"time": 71761, "pitch": 64, "duration": 10, "velocity": 56}, {"time": 71761, "pitch": 70, "duration": 10, "velocity": 64}, {"time": 71761, "pitch": 82, "duration": 10, "velocity": 80}, {"time": 71881, "pitch": 70, "duration": 10, "velocity": 56}, {"time": 71881, "pitch": 82, "duration": 10, "velocity": 20}, {"time": 72001, "pitch": 36, "duration": 9, "velocity": 106}, {"time": 72001, "pitch": 42, "duration": 9, "velocity": 92}, {"time": 72001, "pitch": 64, "duration": 9, "velocity": 64}, {"time": 72001, "pitch": 70, "duration": 9, "velocity": 64}, {"time": 72001, "pitch": 82, "duration": 9, "velocity": 30}, {"time": 72120, "pitch": 70, "duration": 10, "velocity": 56}, {"time": 72120, "pitch": 82, "duration": 10, "velocity": 20}, {"time": 72240, "pitch": 42, "duration": 10, "velocity": 78}, {"time": 72240, "pitch": 64, "duration": 10, "velocity": 56}, {"time": 72240, "pitch": 70, "duration": 10, "velocity": 64}, {"time": 72240, "pitch": 82, "duration": 10, "velocity": 80}, {"time": 72360, "pitch": 36, "duration": 10, "velocity": 106}, {"time": 72360, "pitch": 70, "duration": 10, "velocity": 56}, {"time": 72360, "pitch": 82, "duration": 10, "velocity": 20}, {"time": 72480, "pitch": 38, "duration": 10, "velocity": 106}, {"time": 72480, "pitch": 42, "duration": 10, "velocity": 92}, {"time": 72480, "pitch": 62, "duration": 10, "velocity": 80}, {"time": 72480, "pitch": 70, "duration": 10, "velocity": 80}, {"time": 72480, "pitch": 82, "duration": 10, "velocity": 30}, {"time": 72600, "pitch": 70, "duration": 10, "velocity": 56}, {"time": 72600, "pitch": 82, "duration": 10, "velocity": 20}, {"time": 72720, "pitch": 42, "duration": 10, "velocity": 78}, {"time": 72720, "pitch": 64, "duration": 10, "velocity": 56}, {"time": 72720, "pitch": 70, "duration": 10, "velocity": 64}, {"time": 72720, "pitch": 82, "duration": 10, "velocity": 80}, {"time": 72840, "pitch": 70, "duration": 10, "velocity": 56}, {"time": 72840, "pitch": 82, "duration": 10, "velocity": 20}, {"time": 72960, "pitch": 36, "duration": 10, "velocity": 106}, {"time": 72960, "pitch": 42, "duration": 10, "velocity": 92}, {"time": 72960, "pitch": 64, "duration": 10, "velocity": 64}, {"time": 72960, "pitch": 70, "duration": 10, "velocity": 64}, {"time": 72960, "pitch": 82, "duration": 10, "velocity": 30}, {"time": 73080, "pitch": 70, "duration": 10, "velocity": 56}, {"time": 73080, "pitch": 82, "duration": 10, "velocity": 20}, {"time": 73200, "pitch": 42, "duration": 10, "velocity": 78}, {"time": 73200, "pitch": 64, "duration": 10, "velocity": 56}, {"time": 73200, "pitch": 70, "duration": 10, "velocity": 64}, {"time": 73200, "pitch": 82, "duration": 10, "velocity": 80}, {"time": 73320, "pitch": 36, "duration": 10, "velocity": 106}, {"time": 73320, "pitch": 64, "duration": 10, "velocity": 40}, {"time": 73320, "pitch": 70, "duration": 10, "velocity": 56}, {"time": 73320, "pitch": 82, "duration": 10, "velocity": 20}, {"time": 73439, "pitch": 38, "duration": 10, "velocity": 106}, {"time": 73439, "pitch": 42, "duration": 10, "velocity": 92}, {"time": 73439, "pitch": 62, "duration": 10, "velocity": 80}, {"time": 73439, "pitch": 70, "duration": 10, "velocity": 80}, {"time": 73439, "pitch": 82, "duration": 10, "velocity": 30}, {"time": 73559, "pitch": 70, "duration": 10, "velocity": 56}, {"time": 73559, "pitch": 82, "duration": 10, "velocity": 20}, {"time": 73679, "pitch": 42, "duration": 10, "velocity": 78}, {"time": 73679, "pitch": 64, "duration": 10, "velocity": 56}, {"time": 73679, "pitch": 70, "duration": 10, "velocity": 64}, {"time": 73679, "pitch": 82, "duration": 10, "velocity": 80}, {"time": 73799, "pitch": 70, "duration": 10, "velocity": 56}, {"time": 73799, "pitch": 82, "duration": 10, "velocity": 20}, {"time": 73919, "pitch": 36, "duration": 10, "velocity": 106}, {"time": 73919, "pitch": 42, "duration": 10, "velocity": 92}, {"time": 73919, "pitch": 64, "duration": 10, "velocity": 64}, {"time": 73919, "pitch": 70, "duration": 10, "velocity": 64}, {"time": 73919, "pitch": 82, "duration": 10, "velocity": 30}, {"time": 74039, "pitch": 70, "duration": 10, "velocity": 56}, {"time": 74039, "pitch": 82, "duration": 10, "velocity": 20}, {"time": 74159, "pitch": 42, "duration": 10, "velocity": 78}, {"time": 74159, "pitch": 64, "duration": 10, "velocity": 56}, {"time": 74159, "pitch": 70, "duration": 10, "velocity": 64}, {"time": 74159, "pitch": 82, "duration": 10, "velocity": 80}, {"time": 74279, "pitch": 70, "duration": 10, "velocity": 56}, {"time": 74279, "pitch": 82, "duration": 10, "velocity": 20}, {"time": 74399, "pitch": 38, "duration": 10, "velocity": 106}, {"time": 74399, "pitch": 42, "duration": 10, "velocity": 92}, {"time": 74399, "pitch": 62, "duration": 10, "velocity": 80}, {"time": 74399, "pitch": 70, "duration": 10, "velocity": 80}, {"time": 74399, "pitch": 82, "duration": 10, "velocity": 30}, {"time": 74519, "pitch": 70, "duration": 10, "velocity": 56}, {"time": 74519, "pitch": 82, "duration": 10, "velocity": 20}, {"time": 74639, "pitch": 42, "duration": 10, "velocity": 78}, {"time": 74639, "pitch": 64, "duration": 10, "velocity": 56}, {"time": 74639, "pitch": 70, "duration": 10, "velocity": 64}, {"time": 74639, "pitch": 82, "duration": 10, "velocity": 80}, {"time": 74758, "pitch": 70, "duration": 10, "velocity": 56}, {"time": 74758, "pitch": 82, "duration": 10, "velocity": 20}, {"time": 74878, "pitch": 36, "duration": 10, "velocity": 106}, {"time": 74878, "pitch": 42, "duration": 10, "velocity": 92}, {"time": 74878, "pitch": 64, "duration": 10, "velocity": 64}, {"time": 74878, "pitch": 70, "duration": 10, "velocity": 64}, {"time": 74878, "pitch": 82, "duration": 10, "velocity": 30}, {"time": 74998, "pitch": 70, "duration": 10, "velocity": 56}, {"time": 74998, "pitch": 82, "duration": 10, "velocity": 20}, {"time": 75118, "pitch": 42, "duration": 10, "velocity": 78}, {"time": 75118, "pitch": 64, "duration": 10, "velocity": 56}, {"time": 75118, "pitch": 70, "duration": 10, "velocity": 64}, {"time": 75118, "pitch": 82, "duration": 10, "velocity": 80}, {"time": 75238, "pitch": 36, "duration": 10, "velocity": 106}, {"time": 75238, "pitch": 64, "duration": 10, "velocity": 40}, {"time": 75238, "pitch": 70, "duration": 10, "velocity": 56}, {"time": 75238, "pitch": 82, "duration": 10, "velocity": 20}, {"time": 75358, "pitch": 38, "duration": 10, "velocity": 106}, {"time": 75358, "pitch": 42, "duration": 10, "velocity": 92}, {"time": 75358, "pitch": 62, "duration": 10, "velocity": 80}, {"time": 75358, "pitch": 70, "duration": 10, "velocity": 80}, {"time": 75358, "pitch": 82, "duration": 10, "velocity": 30}, {"time": 75478, "pitch": 70, "duration": 10, "velocity": 56}, {"time": 75478, "pitch": 82, "duration": 10, "velocity": 20}, {"time": 75598, "pitch": 42, "duration": 10, "velocity": 78}, {"time": 75598, "pitch": 64, "duration": 10, "velocity": 56}, {"time": 75598, "pitch": 70, "duration": 10, "velocity": 64}, {"time": 75598, "pitch": 82, "duration": 10, "velocity": 80}, {"time": 75718, "pitch": 70, "duration": 10, "velocity": 56}, {"time": 75718, "pitch": 82, "duration": 10, "velocity": 20}, {"time": 75838, "pitch": 36, "duration": 10, "velocity": 106}, {"time": 75838, "pitch": 42, "duration": 10, "velocity": 92}, {"time": 75838, "pitch": 64, "duration": 10, "velocity": 64}, {"time": 75838, "pitch": 70, "duration": 10, "velocity": 64}, {"time": 75838, "pitch": 82, "duration": 10, "velocity": 30}, {"time": 75958, "pitch": 70, "duration": 10, "velocity": 56}, {"time": 75958, "pitch": 82, "duration": 10, "velocity": 20}, {"time": 76078, "pitch": 42, "duration": 10, "velocity": 78}, {"time": 76078, "pitch": 64, "duration": 10, "velocity": 56}, {"time": 76078, "pitch": 70, "duration": 10, "velocity": 64}, {"time": 76078, "pitch": 82, "duration": 10, "velocity": 80}, {"time": 76197, "pitch": 36, "duration": 10, "velocity": 106}, {"time": 76197, "pitch": 70, "duration": 10, "velocity": 56}, {"time": 76197, "pitch": 82, "duration": 10, "velocity": 20}, {"time": 76317, "pitch": 38, "duration": 10, "velocity": 106}, {"time": 76317, "pitch": 42, "duration": 10, "velocity": 92}, {"time": 76317, "pitch": 62, "duration": 10, "velocity": 80}, {"time": 76317, "pitch": 70, "duration": 10, "velocity": 80}, {"time": 76317, "pitch": 82, "duration": 10, "velocity": 30}, {"time": 76437, "pitch": 70, "duration": 10, "velocity": 56}, {"time": 76437, "pitch": 82, "duration": 10, "velocity": 20}, {"time": 76557, "pitch": 42, "duration": 10, "velocity": 78}, {"time": 76557, "pitch": 64, "duration": 10, "velocity": 56}, {"time": 76557, "pitch": 70, "duration": 10, "velocity": 64}, {"time": 76557, "pitch": 82, "duration": 10, "velocity": 80}, {"time": 76677, "pitch": 70, "duration": 10, "velocity": 56}, {"time": 76677, "pitch": 82, "duration": 10, "velocity": 20}, {"time": 76797, "pitch": 36, "duration": 10, "velocity": 106}, {"time": 76797, "pitch": 42, "duration": 10, "velocity": 92}, {"time": 76797, "pitch": 64, "duration": 10, "velocity": 64}, {"time": 76797, "pitch": 70, "duration": 10, "velocity": 64}, {"time": 76797, "pitch": 82, "duration": 10, "velocity": 30}, {"time": 76918, "pitch": 70, "duration": 11, "velocity": 56}, {"time": 76918, "pitch": 82, "duration": 11, "velocity": 20}, {"time": 77040, "pitch": 42, "duration": 10, "velocity": 78}, {"time": 77040, "pitch": 64, "duration": 10, "velocity": 56}, {"time": 77040, "pitch": 70, "duration": 10, "velocity": 64}, {"time": 77040, "pitch": 82, "duration": 10, "velocity": 80}, {"time": 77161, "pitch": 36, "duration": 10, "velocity": 106}, {"time": 77161, "pitch": 64, "duration": 10, "velocity": 40}, {"time": 77161, "pitch": 70, "duration": 10, "velocity": 56}, {"time": 77161, "pitch": 82, "duration": 10, "velocity": 20}, {"time": 77283, "pitch": 38, "duration": 10, "velocity": 106}, {"time": 77283, "pitch": 42, "duration": 10, "velocity": 92}, {"time": 77283, "pitch": 62, "duration": 10, "velocity": 80}, {"time": 77283, "pitch": 70, "duration": 10, "velocity": 80}, {"time": 77283, "pitch": 82, "duration": 10, "velocity": 30}, {"time": 77403, "pitch": 70, "duration": 10, "velocity": 56}, {"time": 77403, "pitch": 82, "duration": 10, "velocity": 20}, {"time": 77523, "pitch": 42, "duration": 10, "velocity": 78}, {"time": 77523, "pitch": 64, "duration": 10, "velocity": 56}, {"time": 77523, "pitch": 70, "duration": 10, "velocity": 64}, {"time": 77523, "pitch": 82, "duration": 10, "velocity": 80}, {"time": 77642, "pitch": 70, "duration": 10, "velocity": 56}, {"time": 77642, "pitch": 82, "duration": 10, "velocity": 20}, {"time": 77762, "pitch": 36, "duration": 10, "velocity": 106}, {"time": 77762, "pitch": 42, "duration": 10, "velocity": 92}, {"time": 77762, "pitch": 64, "duration": 10, "velocity": 64}, {"time": 77762, "pitch": 70, "duration": 10, "velocity": 64}, {"time": 77762, "pitch": 82, "duration": 10, "velocity": 30}, {"time": 77882, "pitch": 70, "duration": 10, "velocity": 56}, {"time": 77882, "pitch": 82, "duration": 10, "velocity": 20}, {"time": 78002, "pitch": 42, "duration": 10, "velocity": 78}, {"time": 78002, "pitch": 64, "duration": 10, "velocity": 56}, {"time": 78002, "pitch": 70, "duration": 10, "velocity": 64}, {"time": 78002, "pitch": 82, "duration": 10, "velocity": 80}, {"time": 78122, "pitch": 70, "duration": 10, "velocity": 56}, {"time": 78122, "pitch": 82, "duration": 10, "velocity": 20}, {"time": 78242, "pitch": 38, "duration": 10, "velocity": 106}, {"time": 78242, "pitch": 42, "duration": 10, "velocity": 92}, {"time": 78242, "pitch": 62, "duration": 10, "velocity": 80}, {"time": 78242, "pitch": 70, "duration": 10, "velocity": 80}, {"time": 78242, "pitch": 82, "duration": 10, "velocity": 30}, {"time": 78362, "pitch": 70, "duration": 10, "velocity": 56}, {"time": 78362, "pitch": 82, "duration": 10, "velocity": 20}, {"time": 78482, "pitch": 42, "duration": 10, "velocity": 78}, {"time": 78482, "pitch": 64, "duration": 10, "velocity": 56}, {"time": 78482, "pitch": 70, "duration": 10, "velocity": 64}, {"time": 78482, "pitch": 82, "duration": 10, "velocity": 80}, {"time": 78602, "pitch": 70, "duration": 10, "velocity": 56}, {"time": 78602, "pitch": 82, "duration": 10, "velocity": 20}, {"time": 78722, "pitch": 36, "duration": 10, "velocity": 106}, {"time": 78722, "pitch": 42, "duration": 10, "velocity": 92}, {"time": 78722, "pitch": 64, "duration": 10, "velocity": 64}, {"time": 78722, "pitch": 70, "duration": 10, "velocity": 64}, {"time": 78722, "pitch": 82, "duration": 10, "velocity": 30}, {"time": 78842, "pitch": 70, "duration": 10, "velocity": 56}, {"time": 78842, "pitch": 82, "duration": 10, "velocity": 20}, {"time": 78961, "pitch": 42, "duration": 10, "velocity": 78}, {"time": 78961, "pitch": 64, "duration": 10, "velocity": 56}, {"time": 78961, "pitch": 70, "duration": 10, "velocity": 64}, {"time": 78961, "pitch": 82, "duration": 10, "velocity": 80}, {"time": 79081, "pitch": 36, "duration": 10, "velocity": 106}, {"time": 79081, "pitch": 64, "duration": 10, "velocity": 40}, {"time": 79081, "pitch": 70, "duration": 10, "velocity": 56}, {"time": 79081, "pitch": 82, "duration": 10, "velocity": 20}, {"time": 79201, "pitch": 38, "duration": 10, "velocity": 106}, {"time": 79201, "pitch": 42, "duration": 10, "velocity": 92}, {"time": 79201, "pitch": 62, "duration": 10, "velocity": 80}, {"time": 79201, "pitch": 70, "duration": 10, "velocity": 80}, {"time": 79201, "pitch": 82, "duration": 10, "velocity": 30}, {"time": 79321, "pitch": 70, "duration": 10, "velocity": 56}, {"time": 79321, "pitch": 82, "duration": 10, "velocity": 20}, {"time": 79441, "pitch": 42, "duration": 10, "velocity": 78}, {"time": 79441, "pitch": 64, "duration": 10, "velocity": 56}, {"time": 79441, "pitch": 70, "duration": 10, "velocity": 64}, {"time": 79441, "pitch": 82, "duration": 10, "velocity": 80}, {"time": 79561, "pitch": 70, "duration": 10, "velocity": 56}, {"time": 79561, "pitch": 82, "duration": 10, "velocity": 20}, {"time": 79681, "pitch": 36, "duration": 10, "velocity": 106}, {"time": 79681, "pitch": 42, "duration": 10, "velocity": 92}, {"time": 79681, "pitch": 64, "duration": 10, "velocity": 64}, {"time": 79681, "pitch": 70, "duration": 10, "velocity": 64}, {"time": 79681, "pitch": 82, "duration": 10, "velocity": 30}, {"time": 79801, "pitch": 70, "duration": 10, "velocity": 56}, {"time": 79801, "pitch": 82, "duration": 10, "velocity": 20}, {"time": 79921, "pitch": 42, "duration": 10, "velocity": 78}, {"time": 79921, "pitch": 64, "duration": 10, "velocity": 56}, {"time": 79921, "pitch": 70, "duration": 10, "velocity": 64}, {"time": 79921, "pitch": 82, "duration": 10, "velocity": 80}, {"time": 80041, "pitch": 36, "duration": 10, "velocity": 106}, {"time": 80041, "pitch": 70, "duration": 10, "velocity": 56}, {"time": 80041, "pitch": 82, "duration": 10, "velocity": 20}, {"time": 80161, "pitch": 38, "duration": 10, "velocity": 106}, {"time": 80161, "pitch": 42, "duration": 10, "velocity": 92}, {"time": 80161, "pitch": 62, "duration": 10, "velocity": 80}, {"time": 80161, "pitch": 70, "duration": 10, "velocity": 80}, {"time": 80161, "pitch": 82, "duration": 10, "velocity": 30}, {"time": 80281, "pitch": 70, "duration": 10, "velocity": 56}, {"time": 80281, "pitch": 82, "duration": 10, "velocity": 20}, {"time": 80400, "pitch": 42, "duration": 10, "velocity": 78}, {"time": 80400, "pitch": 64, "duration": 10, "velocity": 56}, {"time": 80400, "pitch": 70, "duration": 10, "velocity": 64}, {"time": 80400, "pitch": 82, "duration": 10, "velocity": 80}, {"time": 80520, "pitch": 70, "duration": 10, "velocity": 56}, {"time": 80520, "pitch": 82, "duration": 10, "velocity": 20}, {"time": 80640, "pitch": 36, "duration": 10, "velocity": 106}, {"time": 80640, "pitch": 42, "duration": 10, "velocity": 92}, {"time": 80640, "pitch": 64, "duration": 10, "velocity": 64}, {"time": 80640, "pitch": 70, "duration": 10, "velocity": 64}, {"time": 80640, "pitch": 82, "duration": 10, "velocity": 30}, {"time": 80760, "pitch": 70, "duration": 10, "velocity": 56}, {"time": 80760, "pitch": 82, "duration": 10, "velocity": 20}, {"time": 80880, "pitch": 42, "duration": 10, "velocity": 78}, {"time": 80880, "pitch": 64, "duration": 10, "velocity": 56}, {"time": 80880, "pitch": 70, "duration": 10, "velocity": 64}, {"time": 80880, "pitch": 82, "duration": 10, "velocity": 80}, {"time": 81000, "pitch": 36, "duration": 10, "velocity": 106}, {"time": 81000, "pitch": 64, "duration": 10, "velocity": 40}, {"time": 81000, "pitch": 70, "duration": 10, "velocity": 56}, {"time": 81000, "pitch": 82, "duration": 10, "velocity": 20}, {"time": 81120, "pitch": 38, "duration": 10, "velocity": 106}, {"time": 81120, "pitch": 42, "duration": 10, "velocity": 92}, {"time": 81120, "pitch": 62, "duration": 10, "velocity": 80}, {"time": 81120, "pitch": 70, "duration": 10, "velocity": 80}, {"time": 81120, "pitch": 82, "duration": 10, "velocity": 30}, {"time": 81240, "pitch": 70, "duration": 10, "velocity": 56}, {"time": 81240, "pitch": 82, "duration": 10, "velocity": 20}, {"time": 81360, "pitch": 42, "duration": 10, "velocity": 78}, {"time": 81360, "pitch": 64, "duration": 10, "velocity": 56}, {"time": 81360, "pitch": 70, "duration": 10, "velocity": 64}, {"time": 81360, "pitch": 82, "duration": 10, "velocity": 80}, {"time": 81480, "pitch": 70, "duration": 10, "velocity": 56}, {"time": 81480, "pitch": 82, "duration": 10, "velocity": 20}, {"time": 81600, "pitch": 36, "duration": 10, "velocity": 106}, {"time": 81600, "pitch": 42, "duration": 10, "velocity": 92}, {"time": 81600, "pitch": 64, "duration": 10, "velocity": 64}, {"time": 81600, "pitch": 70, "duration": 10, "velocity": 64}, {"time": 81600, "pitch": 82, "duration": 10, "velocity": 30}, {"time": 81719, "pitch": 70, "duration": 10, "velocity": 56}, {"time": 81719, "pitch": 82, "duration": 10, "velocity": 20}, {"time": 81839, "pitch": 42, "duration": 10, "velocity": 78}, {"time": 81839, "pitch": 64, "duration": 10, "velocity": 56}, {"time": 81839, "pitch": 70, "duration": 10, "velocity": 64}, {"time": 81839, "pitch": 82, "duration": 10, "velocity": 80}, {"time": 81959, "pitch": 70, "duration": 10, "velocity": 56}, {"time": 81959, "pitch": 82, "duration": 10, "velocity": 20}, {"time": 82079, "pitch": 38, "duration": 10, "velocity": 106}, {"time": 82079, "pitch": 42, "duration": 10, "velocity": 92}, {"time": 82079, "pitch": 62, "duration": 10, "velocity": 80}, {"time": 82079, "pitch": 70, "duration": 10, "velocity": 80}, {"time": 82079, "pitch": 82, "duration": 10, "velocity": 30}, {"time": 82199, "pitch": 70, "duration": 10, "velocity": 56}, {"time": 82199, "pitch": 82, "duration": 10, "velocity": 20}, {"time": 82319, "pitch": 42, "duration": 10, "velocity": 78}, {"time": 82319, "pitch": 64, "duration": 10, "velocity": 56}, {"time": 82319, "pitch": 70, "duration": 10, "velocity": 64}, {"time": 82319, "pitch": 82, "duration": 10, "velocity": 80}, {"time": 82439, "pitch": 70, "duration": 10, "velocity": 56}, {"time": 82439, "pitch": 82, "duration": 10, "velocity": 20}, {"time": 82559, "pitch": 36, "duration": 10, "velocity": 106}, {"time": 82559, "pitch": 42, "duration": 10, "velocity": 92}, {"time": 82559, "pitch": 64, "duration": 10, "velocity": 64}, {"time": 82559, "pitch": 70, "duration": 10, "velocity": 64}, {"time": 82559, "pitch": 82, "duration": 10, "velocity": 30}, {"time": 82679, "pitch": 70, "duration": 10, "velocity": 56}, {"time": 82679, "pitch": 82, "duration": 10, "velocity": 20}, {"time": 82799, "pitch": 42, "duration": 10, "velocity": 78}, {"time": 82799, "pitch": 64, "duration": 10, "velocity": 56}, {"time": 82799, "pitch": 70, "duration": 10, "velocity": 64}, {"time": 82799, "pitch": 82, "duration": 10, "velocity": 80}, {"time": 82919, "pitch": 36, "duration": 10, "velocity": 106}, {"time": 82919, "pitch": 64, "duration": 10, "velocity": 40}, {"time": 82919, "pitch": 70, "duration": 10, "velocity": 56}, {"time": 82919, "pitch": 82, "duration": 10, "velocity": 20}, {"time": 83038, "pitch": 38, "duration": 10, "velocity": 106}, {"time": 83038, "pitch": 42, "duration": 10, "velocity": 92}, {"time": 83038, "pitch": 62, "duration": 10, "velocity": 80}, {"time": 83038, "pitch": 70, "duration": 10, "velocity": 80}, {"time": 83038, "pitch": 82, "duration": 10, "velocity": 30}, {"time": 83158, "pitch": 70, "duration": 10, "velocity": 56}, {"time": 83158, "pitch": 82, "duration": 10, "velocity": 20}, {"time": 83278, "pitch": 42, "duration": 10, "velocity": 78}, {"time": 83278, "pitch": 64, "duration": 10, "velocity": 56}, {"time": 83278, "pitch": 70, "duration": 10, "velocity": 64}, {"time": 83278, "pitch": 82, "duration": 10, "velocity": 80}, {"time": 83398, "pitch": 70, "duration": 10, "velocity": 56}, {"time": 83398, "pitch": 82, "duration": 10, "velocity": 20}, {"time": 83518, "pitch": 36, "duration": 10, "velocity": 106}, {"time": 83518, "pitch": 42, "duration": 10, "velocity": 92}, {"time": 83518, "pitch": 64, "duration": 10, "velocity": 64}, {"time": 83518, "pitch": 70, "duration": 10, "velocity": 64}, {"time": 83518, "pitch": 82, "duration": 10, "velocity": 30}, {"time": 83638, "pitch": 70, "duration": 10, "velocity": 56}, {"time": 83638, "pitch": 82, "duration": 10, "velocity": 20}, {"time": 83758, "pitch": 42, "duration": 10, "velocity": 78}, {"time": 83758, "pitch": 64, "duration": 10, "velocity": 56}, {"time": 83758, "pitch": 70, "duration": 10, "velocity": 64}, {"time": 83758, "pitch": 82, "duration": 10, "velocity": 80}, {"time": 83878, "pitch": 36, "duration": 10, "velocity": 106}, {"time": 83878, "pitch": 70, "duration": 10, "velocity": 56}, {"time": 83878, "pitch": 82, "duration": 10, "velocity": 20}, {"time": 83998, "pitch": 38, "duration": 10, "velocity": 106}, {"time": 83998, "pitch": 42, "duration": 10, "velocity": 92}, {"time": 83998, "pitch": 62, "duration": 10, "velocity": 80}, {"time": 83998, "pitch": 70, "duration": 10, "velocity": 80}, {"time": 83998, "pitch": 82, "duration": 10, "velocity": 30}, {"time": 84118, "pitch": 70, "duration": 10, "velocity": 56}, {"time": 84118, "pitch": 82, "duration": 10, "velocity": 20}, {"time": 84238, "pitch": 42, "duration": 10, "velocity": 78}, {"time": 84238, "pitch": 64, "duration": 10, "velocity": 56}, {"time": 84238, "pitch": 70, "duration": 10, "velocity": 64}, {"time": 84238, "pitch": 82, "duration": 10, "velocity": 80}, {"time": 84358, "pitch": 70, "duration": 10, "velocity": 56}, {"time": 84358, "pitch": 82, "duration": 10, "velocity": 20}, {"time": 84477, "pitch": 36, "duration": 10, "velocity": 106}, {"time": 84477, "pitch": 42, "duration": 10, "velocity": 92}, {"time": 84477, "pitch": 64, "duration": 10, "velocity": 64}, {"time": 84477, "pitch": 70, "duration": 10, "velocity": 64}, {"time": 84477, "pitch": 82, "duration": 10, "velocity": 30}, {"time": 84597, "pitch": 70, "duration": 10, "velocity": 56}, {"time": 84597, "pitch": 82, "duration": 10, "velocity": 20}, {"time": 84717, "pitch": 42, "duration": 10, "velocity": 78}, {"time": 84717, "pitch": 64, "duration": 10, "velocity": 56}, {"time": 84717, "pitch": 70, "duration": 10, "velocity": 64}, {"time": 84717, "pitch": 82, "duration": 10, "velocity": 80}, {"time": 84837, "pitch": 36, "duration": 10, "velocity": 106}, {"time": 84837, "pitch": 64, "duration": 10, "velocity": 40}, {"time": 84837, "pitch": 70, "duration": 10, "velocity": 56}, {"time": 84837, "pitch": 82, "duration": 10, "velocity": 20}, {"time": 84957, "pitch": 38, "duration": 10, "velocity": 106}, {"time": 84957, "pitch": 42, "duration": 10, "velocity": 92}, {"time": 84957, "pitch": 62, "duration": 10, "velocity": 80}, {"time": 84957, "pitch": 70, "duration": 10, "velocity": 80}, {"time": 84957, "pitch": 82, "duration": 10, "velocity": 30}, {"time": 85078, "pitch": 70, "duration": 11, "velocity": 56}, {"time": 85078, "pitch": 82, "duration": 11, "velocity": 20}, {"time": 85200, "pitch": 42, "duration": 10, "velocity": 78}, {"time": 85200, "pitch": 64, "duration": 10, "velocity": 56}, {"time": 85200, "pitch": 70, "duration": 10, "velocity": 64}, {"time": 85200, "pitch": 82, "duration": 10, "velocity": 80}, {"time": 85321, "pitch": 70, "duration": 11, "velocity": 56}, {"time": 85321, "pitch": 82, "duration": 11, "velocity": 20}, {"time": 85443, "pitch": 36, "duration": 10, "velocity": 106}, {"time": 85443, "pitch": 42, "duration": 10, "velocity": 92}, {"time": 85443, "pitch": 64, "duration": 10, "velocity": 64}, {"time": 85443, "pitch": 70, "duration": 10, "velocity": 64}, {"time": 85443, "pitch": 82, "duration": 10, "velocity": 30}, {"time": 85563, "pitch": 70, "duration": 10, "velocity": 56}, {"time": 85563, "pitch": 82, "duration": 10, "velocity": 20}, {"time": 85683, "pitch": 42, "duration": 10, "velocity": 78}, {"time": 85683, "pitch": 64, "duration": 10, "velocity": 56}, {"time": 85683, "pitch": 70, "duration": 10, "velocity": 64}, {"time": 85683, "pitch": 82, "duration": 10, "velocity": 80}, {"time": 85803, "pitch": 70, "duration": 10, "velocity": 56}, {"time": 85803, "pitch": 82, "duration": 10, "velocity": 20}, {"time": 85922, "pitch": 38, "duration": 10, "velocity": 106}, {"time": 85922, "pitch": 42, "duration": 10, "velocity": 92}, {"time": 85922, "pitch": 62, "duration": 10, "velocity": 80}, {"time": 85922, "pitch": 70, "duration": 10, "velocity": 80}, {"time": 85922, "pitch": 82, "duration": 10, "velocity": 30}, {"time": 86042, "pitch": 70, "duration": 10, "velocity": 56}, {"time": 86042, "pitch": 82, "duration": 10, "velocity": 20}, {"time": 86162, "pitch": 42, "duration": 10, "velocity": 78}, {"time": 86162, "pitch": 64, "duration": 10, "velocity": 56}, {"time": 86162, "pitch": 70, "duration": 10, "velocity": 64}, {"time": 86162, "pitch": 82, "duration": 10, "velocity": 80}, {"time": 86282, "pitch": 70, "duration": 10, "velocity": 56}, {"time": 86282, "pitch": 82, "duration": 10, "velocity": 20}, {"time": 86402, "pitch": 36, "duration": 10, "velocity": 106}, {"time": 86402, "pitch": 42, "duration": 10, "velocity": 92}, {"time": 86402, "pitch": 64, "duration": 10, "velocity": 64}, {"time": 86402, "pitch": 70, "duration": 10, "velocity": 64}, {"time": 86402, "pitch": 82, "duration": 10, "velocity": 30}, {"time": 86522, "pitch": 70, "duration": 10, "velocity": 56}, {"time": 86522, "pitch": 82, "duration": 10, "velocity": 20}, {"time": 86642, "pitch": 42, "duration": 10, "velocity": 78}, {"time": 86642, "pitch": 64, "duration": 10, "velocity": 56}, {"time": 86642, "pitch": 70, "duration": 10, "velocity": 64}, {"time": 86642, "pitch": 82, "duration": 10, "velocity": 80}, {"time": 86762, "pitch": 36, "duration": 10, "velocity": 106}, {"time": 86762, "pitch": 64, "duration": 10, "velocity": 40}, {"time": 86762, "pitch": 70, "duration": 10, "velocity": 56}, {"time": 86762, "pitch": 82, "duration": 10, "velocity": 20}, {"time": 86882, "pitch": 38, "duration": 10, "velocity": 106}, {"time": 86882, "pitch": 42, "duration": 10, "velocity": 92}, {"time": 86882, "pitch": 62, "duration": 10, "velocity": 80}, {"time": 86882, "pitch": 70, "duration": 10, "velocity": 80}, {"time": 86882, "pitch": 82, "duration": 10, "velocity": 30}, {"time": 87002, "pitch": 70, "duration": 10, "velocity": 56}, {"time": 87002, "pitch": 82, "duration": 10, "velocity": 20}, {"time": 87122, "pitch": 42, "duration": 10, "velocity": 78}, {"time": 87122, "pitch": 64, "duration": 10, "velocity": 56}, {"time": 87122, "pitch": 70, "duration": 10, "velocity": 64}, {"time": 87122, "pitch": 82, "duration": 10, "velocity": 80}, {"time": 87241, "pitch": 70, "duration": 10, "velocity": 56}, {"time": 87241, "pitch": 82, "duration": 10, "velocity": 20}, {"time": 87361, "pitch": 36, "duration": 10, "velocity": 106}, {"time": 87361, "pitch": 42, "duration": 10, "velocity": 92}, {"time": 87361, "pitch": 64, "duration": 10, "velocity": 64}, {"time": 87361, "pitch": 70, "duration": 10, "velocity": 64}, {"time": 87361, "pitch": 82, "duration": 10, "velocity": 30}, {"time": 87481, "pitch": 70, "duration": 10, "velocity": 56}, {"time": 87481, "pitch": 82, "duration": 10, "velocity": 20}, {"time": 87601, "pitch": 42, "duration": 10, "velocity": 78}, {"time": 87601, "pitch": 64, "duration": 10, "velocity": 56}, {"time": 87601, "pitch": 70, "duration": 10, "velocity": 64}, {"time": 87601, "pitch": 82, "duration": 10, "velocity": 80}, {"time": 87721, "pitch": 36, "duration": 10, "velocity": 106}, {"time": 87721, "pitch": 70, "duration": 10, "velocity": 56}, {"time": 87721, "pitch": 82, "duration": 10, "velocity": 20}, {"time": 87841, "pitch": 38, "duration": 10, "velocity": 106}, {"time": 87841, "pitch": 42, "duration": 10, "velocity": 92}, {"time": 87841, "pitch": 62, "duration": 10, "velocity": 80}, {"time": 87841, "pitch": 70, "duration": 10, "velocity": 80}, {"time": 87841, "pitch": 82, "duration": 10, "velocity": 30}, {"time": 87961, "pitch": 70, "duration": 10, "velocity": 56}, {"time": 87961, "pitch": 82, "duration": 10, "velocity": 20}, {"time": 88081, "pitch": 42, "duration": 10, "velocity": 78}, {"time": 88081, "pitch": 64, "duration": 10, "velocity": 56}, {"time": 88081, "pitch": 70, "duration": 10, "velocity": 64}, {"time": 88081, "pitch": 82, "duration": 10, "velocity": 80}, {"time": 88201, "pitch": 70, "duration": 10, "velocity": 56}, {"time": 88201, "pitch": 82, "duration": 10, "velocity": 20}, {"time": 88321, "pitch": 36, "duration": 10, "velocity": 106}, {"time": 88321, "pitch": 42, "duration": 10, "velocity": 92}, {"time": 88321, "pitch": 64, "duration": 10, "velocity": 64}, {"time": 88321, "pitch": 70, "duration": 10, "velocity": 64}, {"time": 88321, "pitch": 82, "duration": 10, "velocity": 30}, {"time": 88441, "pitch": 70, "duration": 10, "velocity": 56}, {"time": 88441, "pitch": 82, "duration": 10, "velocity": 20}, {"time": 88561, "pitch": 42, "duration": 10, "velocity": 78}, {"time": 88561, "pitch": 64, "duration": 10, "velocity": 56}, {"time": 88561, "pitch": 70, "duration": 10, "velocity": 64}, {"time": 88561, "pitch": 82, "duration": 10, "velocity": 80}, {"time": 88680, "pitch": 36, "duration": 10, "velocity": 106}, {"time": 88680, "pitch": 64, "duration": 10, "velocity": 40}, {"time": 88680, "pitch": 70, "duration": 10, "velocity": 56}, {"time": 88680, "pitch": 82, "duration": 10, "velocity": 20}, {"time": 88800, "pitch": 38, "duration": 10, "velocity": 106}, {"time": 88800, "pitch": 42, "duration": 10, "velocity": 92}, {"time": 88800, "pitch": 62, "duration": 10, "velocity": 80}, {"time": 88800, "pitch": 70, "duration": 10, "velocity": 80}, {"time": 88800, "pitch": 82, "duration": 10, "velocity": 30}, {"time": 88920, "pitch": 70, "duration": 10, "velocity": 56}, {"time": 88920, "pitch": 82, "duration": 10, "velocity": 20}, {"time": 89040, "pitch": 42, "duration": 10, "velocity": 78}, {"time": 89040, "pitch": 64, "duration": 10, "velocity": 56}, {"time": 89040, "pitch": 70, "duration": 10, "velocity": 64}, {"time": 89040, "pitch": 82, "duration": 10, "velocity": 80}, {"time": 89160, "pitch": 70, "duration": 10, "velocity": 56}, {"time": 89160, "pitch": 82, "duration": 10, "velocity": 20}, {"time": 89280, "pitch": 36, "duration": 10, "velocity": 106}, {"time": 89280, "pitch": 42, "duration": 10, "velocity": 92}, {"time": 89280, "pitch": 64, "duration": 10, "velocity": 64}, {"time": 89280, "pitch": 70, "duration": 10, "velocity": 64}, {"time": 89280, "pitch": 82, "duration": 10, "velocity": 30}, {"time": 89400, "pitch": 70, "duration": 10, "velocity": 56}, {"time": 89400, "pitch": 82, "duration": 10, "velocity": 20}, {"time": 89520, "pitch": 42, "duration": 10, "velocity": 78}, {"time": 89520, "pitch": 64, "duration": 10, "velocity": 56}, {"time": 89520, "pitch": 70, "duration": 10, "velocity": 64}, {"time": 89520, "pitch": 82, "duration": 10, "velocity": 80}, {"time": 89640, "pitch": 70, "duration": 10, "velocity": 56}, {"time": 89640, "pitch": 82, "duration": 10, "velocity": 20}, {"time": 89760, "pitch": 38, "duration": 10, "velocity": 106}, {"time": 89760, "pitch": 42, "duration": 10, "velocity": 92}, {"time": 89760, "pitch": 62, "duration": 10, "velocity": 80}, {"time": 89760, "pitch": 70, "duration": 10, "velocity": 80}, {"time": 89760, "pitch": 82, "duration": 10, "velocity": 30}, {"time": 89880, "pitch": 70, "duration": 10, "velocity": 56}, {"time": 89880, "pitch": 82, "duration": 10, "velocity": 20}, {"time": 89999, "pitch": 42, "duration": 10, "velocity": 78}, {"time": 89999, "pitch": 64, "duration": 10, "velocity": 56}, {"time": 89999, "pitch": 70, "duration": 10, "velocity": 64}, {"time": 89999, "pitch": 82, "duration": 10, "velocity": 80}, {"time": 90119, "pitch": 70, "duration": 10, "velocity": 56}, {"time": 90119, "pitch": 82, "duration": 10, "velocity": 20}, {"time": 90239, "pitch": 36, "duration": 10, "velocity": 106}, {"time": 90239, "pitch": 42, "duration": 10, "velocity": 92}, {"time": 90239, "pitch": 64, "duration": 10, "velocity": 64}, {"time": 90239, "pitch": 70, "duration": 10, "velocity": 64}, {"time": 90239, "pitch": 82, "duration": 10, "velocity": 30}, {"time": 90359, "pitch": 70, "duration": 10, "velocity": 56}, {"time": 90359, "pitch": 82, "duration": 10, "velocity": 20}, {"time": 90479, "pitch": 42, "duration": 10, "velocity": 78}, {"time": 90479, "pitch": 64, "duration": 10, "velocity": 56}, {"time": 90479, "pitch": 70, "duration": 10, "velocity": 64}, {"time": 90479, "pitch": 82, "duration": 10, "velocity": 80}, {"time": 90599, "pitch": 36, "duration": 10, "velocity": 106}, {"time": 90599, "pitch": 64, "duration": 10, "velocity": 40}, {"time": 90599, "pitch": 70, "duration": 10, "velocity": 56}, {"time": 90599, "pitch": 82, "duration": 10, "velocity": 20}, {"time": 90719, "pitch": 38, "duration": 10, "velocity": 106}, {"time": 90719, "pitch": 42, "duration": 10, "velocity": 92}, {"time": 90719, "pitch": 62, "duration": 10, "velocity": 80}, {"time": 90719, "pitch": 70, "duration": 10, "velocity": 80}, {"time": 90719, "pitch": 82, "duration": 10, "velocity": 30}, {"time": 90839, "pitch": 70, "duration": 10, "velocity": 56}, {"time": 90839, "pitch": 82, "duration": 10, "velocity": 20}, {"time": 90959, "pitch": 42, "duration": 10, "velocity": 78}, {"time": 90959, "pitch": 64, "duration": 10, "velocity": 56}, {"time": 90959, "pitch": 70, "duration": 10, "velocity": 64}, {"time": 90959, "pitch": 82, "duration": 10, "velocity": 80}, {"time": 91079, "pitch": 70, "duration": 10, "velocity": 56}, {"time": 91079, "pitch": 82, "duration": 10, "velocity": 20}, {"time": 91199, "pitch": 36, "duration": 10, "velocity": 106}, {"time": 91199, "pitch": 42, "duration": 10, "velocity": 92}, {"time": 91199, "pitch": 64, "duration": 10, "velocity": 64}, {"time": 91199, "pitch": 70, "duration": 10, "velocity": 64}, {"time": 91199, "pitch": 82, "duration": 10, "velocity": 30}, {"time": 91318, "pitch": 70, "duration": 10, "velocity": 56}, {"time": 91318, "pitch": 82, "duration": 10, "velocity": 20}, {"time": 91438, "pitch": 42, "duration": 10, "velocity": 78}, {"time": 91438, "pitch": 64, "duration": 10, "velocity": 56}, {"time": 91438, "pitch": 70, "duration": 10, "velocity": 64}, {"time": 91438, "pitch": 82, "duration": 10, "velocity": 80}, {"time": 91558, "pitch": 36, "duration": 10, "velocity": 106}, {"time": 91558, "pitch": 70, "duration": 10, "velocity": 56}, {"time": 91558, "pitch": 82, "duration": 10, "velocity": 20}, {"time": 91678, "pitch": 38, "duration": 10, "velocity": 106}, {"time": 91678, "pitch": 42, "duration": 10, "velocity": 92}, {"time": 91678, "pitch": 62, "duration": 10, "velocity": 80}, {"time": 91678, "pitch": 70, "duration": 10, "velocity": 80}, {"time": 91678, "pitch": 82, "duration": 10, "velocity": 30}, {"time": 91798, "pitch": 70, "duration": 10, "velocity": 56}, {"time": 91798, "pitch": 82, "duration": 10, "velocity": 20}, {"time": 91918, "pitch": 42, "duration": 10, "velocity": 78}, {"time": 91918, "pitch": 64, "duration": 10, "velocity": 56}, {"time": 91918, "pitch": 70, "duration": 10, "velocity": 64}, {"time": 91918, "pitch": 82, "duration": 10, "velocity": 80}, {"time": 92038, "pitch": 70, "duration": 10, "velocity": 56}, {"time": 92038, "pitch": 82, "duration": 10, "velocity": 20}, {"time": 92158, "pitch": 36, "duration": 10, "velocity": 106}, {"time": 92158, "pitch": 42, "duration": 10, "velocity": 92}, {"time": 92158, "pitch": 64, "duration": 10, "velocity": 64}, {"time": 92158, "pitch": 70, "duration": 10, "velocity": 64}, {"time": 92158, "pitch": 82, "duration": 10, "velocity": 30}, {"time": 92278, "pitch": 70, "duration": 10, "velocity": 56}, {"time": 92278, "pitch": 82, "duration": 10, "velocity": 20}, {"time": 92398, "pitch": 42, "duration": 10, "velocity": 78}, {"time": 92398, "pitch": 64, "duration": 10, "velocity": 56}, {"time": 92398, "pitch": 70, "duration": 10, "velocity": 64}, {"time": 92398, "pitch": 82, "duration": 10, "velocity": 80}, {"time": 92518, "pitch": 36, "duration": 10, "velocity": 106}, {"time": 92518, "pitch": 64, "duration": 10, "velocity": 40}, {"time": 92518, "pitch": 70, "duration": 10, "velocity": 56}, {"time": 92518, "pitch": 82, "duration": 10, "velocity": 20}, {"time": 92638, "pitch": 38, "duration": 10, "velocity": 106}, {"time": 92638, "pitch": 42, "duration": 10, "velocity": 92}, {"time": 92638, "pitch": 62, "duration": 10, "velocity": 80}, {"time": 92638, "pitch": 70, "duration": 10, "velocity": 80}, {"time": 92638, "pitch": 82, "duration": 10, "velocity": 30}, {"time": 92757, "pitch": 70, "duration": 10, "velocity": 56}, {"time": 92757, "pitch": 82, "duration": 10, "velocity": 20}, {"time": 92877, "pitch": 36, "duration": 10, "velocity": 106}, {"time": 92877, "pitch": 42, "duration": 10, "velocity": 78}, {"time": 92877, "pitch": 64, "duration": 10, "velocity": 56}, {"time": 92877, "pitch": 70, "duration": 10, "velocity": 64}, {"time": 92877, "pitch": 82, "duration": 10, "velocity": 80}, {"time": 92997, "pitch": 70, "duration": 10, "velocity": 56}, {"time": 92997, "pitch": 82, "duration": 10, "velocity": 20}, {"time": 93117, "pitch": 36, "duration": 10, "velocity": 106}, {"time": 93117, "pitch": 42, "duration": 10, "velocity": 92}, {"time": 93117, "pitch": 64, "duration": 10, "velocity": 64}, {"time": 93117, "pitch": 70, "duration": 10, "velocity": 64}, {"time": 93117, "pitch": 82, "duration": 10, "velocity": 30}, {"time": 93239, "pitch": 70, "duration": 10, "velocity": 56}, {"time": 93239, "pitch": 82, "duration": 10, "velocity": 20}, {"time": 93360, "pitch": 42, "duration": 10, "velocity": 78}, {"time": 93360, "pitch": 64, "duration": 10, "velocity": 56}, {"time": 93360, "pitch": 70, "duration": 10, "velocity": 64}, {"time": 93360, "pitch": 82, "duration": 10, "velocity": 80}, {"time": 93481, "pitch": 70, "duration": 11, "velocity": 56}, {"time": 93481, "pitch": 82, "duration": 11, "velocity": 20}, {"time": 93603, "pitch": 36, "duration": 10, "velocity": 106}, {"time": 93603, "pitch": 38, "duration": 10, "velocity": 106}, {"time": 93603, "pitch": 42, "duration": 10, "velocity": 92}, {"time": 93603, "pitch": 62, "duration": 10, "velocity": 80}, {"time": 93603, "pitch": 70, "duration": 10, "velocity": 80}, {"time": 93603, "pitch": 82, "duration": 10, "velocity": 30}, {"time": 93723, "pitch": 70, "duration": 10, "velocity": 56}, {"time": 93723, "pitch": 82, "duration": 10, "velocity": 20}, {"time": 93843, "pitch": 42, "duration": 10, "velocity": 78}, {"time": 93843, "pitch": 64, "duration": 10, "velocity": 56}, {"time": 93843, "pitch": 70, "duration": 10, "velocity": 64}, {"time": 93843, "pitch": 82, "duration": 10, "velocity": 80}, {"time": 93963, "pitch": 70, "duration": 10, "velocity": 56}, {"time": 93963, "pitch": 82, "duration": 10, "velocity": 20}, {"time": 94083, "pitch": 36, "duration": 10, "velocity": 106}, {"time": 94083, "pitch": 42, "duration": 10, "velocity": 92}, {"time": 94083, "pitch": 64, "duration": 10, "velocity": 64}, {"time": 94083, "pitch": 70, "duration": 10, "velocity": 64}, {"time": 94083, "pitch": 82, "duration": 10, "velocity": 30}, {"time": 94202, "pitch": 70, "duration": 10, "velocity": 56}, {"time": 94202, "pitch": 82, "duration": 10, "velocity": 20}, {"time": 94322, "pitch": 42, "duration": 10, "velocity": 78}, {"time": 94322, "pitch": 64, "duration": 10, "velocity": 56}, {"time": 94322, "pitch": 70, "duration": 10, "velocity": 64}, {"time": 94322, "pitch": 82, "duration": 10, "velocity": 80}, {"time": 94442, "pitch": 64, "duration": 10, "velocity": 40}, {"time": 94442, "pitch": 70, "duration": 10, "velocity": 56}, {"time": 94442, "pitch": 82, "duration": 10, "velocity": 20}, {"time": 94562, "pitch": 36, "duration": 10, "velocity": 106}, {"time": 94562, "pitch": 38, "duration": 10, "velocity": 106}, {"time": 94562, "pitch": 42, "duration": 10, "velocity": 92}, {"time": 94562, "pitch": 62, "duration": 10, "velocity": 80}, {"time": 94562, "pitch": 70, "duration": 10, "velocity": 80}, {"time": 94562, "pitch": 82, "duration": 10, "velocity": 30}, {"time": 94682, "pitch": 70, "duration": 10, "velocity": 56}, {"time": 94682, "pitch": 82, "duration": 10, "velocity": 20}, {"time": 94802, "pitch": 42, "duration": 10, "velocity": 78}, {"time": 94802, "pitch": 64, "duration": 10, "velocity": 56}, {"time": 94802, "pitch": 70, "duration": 10, "velocity": 64}, {"time": 94802, "pitch": 82, "duration": 10, "velocity": 80}, {"time": 94922, "pitch": 70, "duration": 10, "velocity": 56}, {"time": 94922, "pitch": 82, "duration": 10, "velocity": 20}, {"time": 95042, "pitch": 36, "duration": 10, "velocity": 106}, {"time": 95042, "pitch": 42, "duration": 10, "velocity": 92}, {"time": 95042, "pitch": 64, "duration": 10, "velocity": 64}, {"time": 95042, "pitch": 70, "duration": 10, "velocity": 64}, {"time": 95042, "pitch": 82, "duration": 10, "velocity": 30}, {"time": 95162, "pitch": 70, "duration": 10, "velocity": 56}, {"time": 95162, "pitch": 82, "duration": 10, "velocity": 20}, {"time": 95282, "pitch": 42, "duration": 10, "velocity": 78}, {"time": 95282, "pitch": 64, "duration": 10, "velocity": 56}, {"time": 95282, "pitch": 70, "duration": 10, "velocity": 64}, {"time": 95282, "pitch": 82, "duration": 10, "velocity": 80}, {"time": 95402, "pitch": 36, "duration": 10, "velocity": 106}, {"time": 95402, "pitch": 70, "duration": 10, "velocity": 56}, {"time": 95402, "pitch": 82, "duration": 10, "velocity": 20}, {"time": 95521, "pitch": 38, "duration": 10, "velocity": 106}, {"time": 95521, "pitch": 42, "duration": 10, "velocity": 92}, {"time": 95521, "pitch": 62, "duration": 10, "velocity": 80}, {"time": 95521, "pitch": 70, "duration": 10, "velocity": 80}, {"time": 95521, "pitch": 82, "duration": 10, "velocity": 30}, {"time": 95641, "pitch": 70, "duration": 10, "velocity": 56}, {"time": 95641, "pitch": 82, "duration": 10, "velocity": 20}, {"time": 95761, "pitch": 42, "duration": 10, "velocity": 78}, {"time": 95761, "pitch": 64, "duration": 10, "velocity": 56}, {"time": 95761, "pitch": 70, "duration": 10, "velocity": 64}, {"time": 95761, "pitch": 82, "duration": 10, "velocity": 80}, {"time": 95881, "pitch": 70, "duration": 10, "velocity": 56}, {"time": 95881, "pitch": 82, "duration": 10, "velocity": 20}, {"time": 96001, "pitch": 36, "duration": 10, "velocity": 106}, {"time": 96001, "pitch": 42, "duration": 10, "velocity": 92}, {"time": 96001, "pitch": 64, "duration": 10, "velocity": 64}, {"time": 96001, "pitch": 70, "duration": 10, "velocity": 64}, {"time": 96001, "pitch": 82, "duration": 10, "velocity": 30}, {"time": 96121, "pitch": 70, "duration": 10, "velocity": 56}, {"time": 96121, "pitch": 82, "duration": 10, "velocity": 20}, {"time": 96241, "pitch": 42, "duration": 10, "velocity": 78}, {"time": 96241, "pitch": 64, "duration": 10, "velocity": 56}, {"time": 96241, "pitch": 70, "duration": 10, "velocity": 64}, {"time": 96241, "pitch": 82, "duration": 10, "velocity": 80}, {"time": 96361, "pitch": 36, "duration": 10, "velocity": 106}, {"time": 96361, "pitch": 64, "duration": 10, "velocity": 40}, {"time": 96361, "pitch": 70, "duration": 10, "velocity": 56}, {"time": 96361, "pitch": 82, "duration": 10, "velocity": 20}, {"time": 96481, "pitch": 38, "duration": 10, "velocity": 106}, {"time": 96481, "pitch": 42, "duration": 10, "velocity": 92}, {"time": 96481, "pitch": 62, "duration": 10, "velocity": 80}, {"time": 96481, "pitch": 70, "duration": 10, "velocity": 80}, {"time": 96481, "pitch": 82, "duration": 10, "velocity": 30}, {"time": 96601, "pitch": 70, "duration": 10, "velocity": 56}, {"time": 96601, "pitch": 82, "duration": 10, "velocity": 20}, {"time": 96721, "pitch": 36, "duration": 10, "velocity": 106}, {"time": 96721, "pitch": 42, "duration": 10, "velocity": 78}, {"time": 96721, "pitch": 64, "duration": 10, "velocity": 56}, {"time": 96721, "pitch": 70, "duration": 10, "velocity": 64}, {"time": 96721, "pitch": 82, "duration": 10, "velocity": 80}, {"time": 96841, "pitch": 70, "duration": 10, "velocity": 56}, {"time": 96841, "pitch": 82, "duration": 10, "velocity": 20}, {"time": 96960, "pitch": 36, "duration": 10, "velocity": 106}, {"time": 96960, "pitch": 42, "duration": 10, "velocity": 92}, {"time": 96960, "pitch": 64, "duration": 10, "velocity": 64}, {"time": 96960, "pitch": 70, "duration": 10, "velocity": 64}, {"time": 96960, "pitch": 82, "duration": 10, "velocity": 30}, {"time": 97080, "pitch": 70, "duration": 10, "velocity": 56}, {"time": 97080, "pitch": 82, "duration": 10, "velocity": 20}, {"time": 97200, "pitch": 42, "duration": 10, "velocity": 78}, {"time": 97200, "pitch": 64, "duration": 10, "velocity": 56}, {"time": 97200, "pitch": 70, "duration": 10, "velocity": 64}, {"time": 97200, "pitch": 82, "duration": 10, "velocity": 80}, {"time": 97320, "pitch": 70, "duration": 10, "velocity": 56}, {"time": 97320, "pitch": 82, "duration": 10, "velocity": 20}, {"time": 97440, "pitch": 36, "duration": 10, "velocity": 106}, {"time": 97440, "pitch": 38, "duration": 10, "velocity": 106}, {"time": 97440, "pitch": 42, "duration": 10, "velocity": 92}, {"time": 97440, "pitch": 62, "duration": 10, "velocity": 80}, {"time": 97440, "pitch": 70, "duration": 10, "velocity": 80}, {"time": 97440, "pitch": 82, "duration": 10, "velocity": 30}, {"time": 97560, "pitch": 70, "duration": 10, "velocity": 56}, {"time": 97560, "pitch": 82, "duration": 10, "velocity": 20}, {"time": 97680, "pitch": 42, "duration": 10, "velocity": 78}, {"time": 97680, "pitch": 64, "duration": 10, "velocity": 56}, {"time": 97680, "pitch": 70, "duration": 10, "velocity": 64}, {"time": 97680, "pitch": 82, "duration": 10, "velocity": 80}, {"time": 97800, "pitch": 70, "duration": 10, "velocity": 56}, {"time": 97800, "pitch": 82, "duration": 10, "velocity": 20}, {"time": 97920, "pitch": 36, "duration": 10, "velocity": 106}, {"time": 97920, "pitch": 42, "duration": 10, "velocity": 92}, {"time": 97920, "pitch": 64, "duration": 10, "velocity": 64}, {"time": 97920, "pitch": 70, "duration": 10, "velocity": 64}, {"time": 97920, "pitch": 82, "duration": 10, "velocity": 30}, {"time": 98040, "pitch": 70, "duration": 10, "velocity": 56}, {"time": 98040, "pitch": 82, "duration": 10, "velocity": 20}, {"time": 98160, "pitch": 42, "duration": 10, "velocity": 78}, {"time": 98160, "pitch": 64, "duration": 10, "velocity": 56}, {"time": 98160, "pitch": 70, "duration": 10, "velocity": 64}, {"time": 98160, "pitch": 82, "duration": 10, "velocity": 80}, {"time": 98279, "pitch": 64, "duration": 10, "velocity": 40}, {"time": 98279, "pitch": 70, "duration": 10, "velocity": 56}, {"time": 98279, "pitch": 82, "duration": 10, "velocity": 20}, {"time": 98399, "pitch": 36, "duration": 10, "velocity": 106}, {"time": 98399, "pitch": 38, "duration": 10, "velocity": 106}, {"time": 98399, "pitch": 42, "duration": 10, "velocity": 92}, {"time": 98399, "pitch": 62, "duration": 10, "velocity": 80}, {"time": 98399, "pitch": 70, "duration": 10, "velocity": 80}, {"time": 98399, "pitch": 82, "duration": 10, "velocity": 30}, {"time": 98519, "pitch": 70, "duration": 10, "velocity": 56}, {"time": 98519, "pitch": 82, "duration": 10, "velocity": 20}, {"time": 98639, "pitch": 42, "duration": 10, "velocity": 78}, {"time": 98639, "pitch": 64, "duration": 10, "velocity": 56}, {"time": 98639, "pitch": 70, "duration": 10, "velocity": 64}, {"time": 98639, "pitch": 82, "duration": 10, "velocity": 80}, {"time": 98759, "pitch": 70, "duration": 10, "velocity": 56}, {"time": 98759, "pitch": 82, "duration": 10, "velocity": 20}, {"time": 98879, "pitch": 36, "duration": 10, "velocity": 106}, {"time": 98879, "pitch": 42, "duration": 10, "velocity": 92}, {"time": 98879, "pitch": 64, "duration": 10, "velocity": 64}, {"time": 98879, "pitch": 70, "duration": 10, "velocity": 64}, {"time": 98879, "pitch": 82, "duration": 10, "velocity": 30}, {"time": 98999, "pitch": 70, "duration": 10, "velocity": 56}, {"time": 98999, "pitch": 82, "duration": 10, "velocity": 20}, {"time": 99119, "pitch": 42, "duration": 10, "velocity": 78}, {"time": 99119, "pitch": 64, "duration": 10, "velocity": 56}, {"time": 99119, "pitch": 70, "duration": 10, "velocity": 64}, {"time": 99119, "pitch": 82, "duration": 10, "velocity": 80}, {"time": 99239, "pitch": 36, "duration": 10, "velocity": 106}, {"time": 99239, "pitch": 70, "duration": 10, "velocity": 56}, {"time": 99239, "pitch": 82, "duration": 10, "velocity": 20}, {"time": 99359, "pitch": 38, "duration": 10, "velocity": 106}, {"time": 99359, "pitch": 42, "duration": 10, "velocity": 92}, {"time": 99359, "pitch": 62, "duration": 10, "velocity": 80}, {"time": 99359, "pitch": 70, "duration": 10, "velocity": 80}, {"time": 99359, "pitch": 82, "duration": 10, "velocity": 30}, {"time": 99479, "pitch": 70, "duration": 10, "velocity": 56}, {"time": 99479, "pitch": 82, "duration": 10, "velocity": 20}, {"time": 99599, "pitch": 42, "duration": 9, "velocity": 78}, {"time": 99599, "pitch": 64, "duration": 9, "velocity": 56}, {"time": 99599, "pitch": 70, "duration": 9, "velocity": 64}, {"time": 99599, "pitch": 82, "duration": 9, "velocity": 80}, {"time": 99718, "pitch": 70, "duration": 10, "velocity": 56}, {"time": 99718, "pitch": 82, "duration": 10, "velocity": 20}, {"time": 99838, "pitch": 36, "duration": 10, "velocity": 106}, {"time": 99838, "pitch": 42, "duration": 10, "velocity": 92}, {"time": 99838, "pitch": 64, "duration": 10, "velocity": 64}, {"time": 99838, "pitch": 70, "duration": 10, "velocity": 64}, {"time": 99838, "pitch": 82, "duration": 10, "velocity": 30}, {"time": 99958, "pitch": 70, "duration": 10, "velocity": 56}, {"time": 99958, "pitch": 82, "duration": 10, "velocity": 20}, {"time": 100078, "pitch": 42, "duration": 10, "velocity": 78}, {"time": 100078, "pitch": 64, "duration": 10, "velocity": 56}, {"time": 100078, "pitch": 70, "duration": 10, "velocity": 64}, {"time": 100078, "pitch": 82, "duration": 10, "velocity": 80}, {"time": 100198, "pitch": 36, "duration": 10, "velocity": 106}, {"time": 100198, "pitch": 64, "duration": 10, "velocity": 40}, {"time": 100198, "pitch": 70, "duration": 10, "velocity": 56}, {"time": 100198, "pitch": 82, "duration": 10, "velocity": 20}, {"time": 100318, "pitch": 38, "duration": 10, "velocity": 106}, {"time": 100318, "pitch": 42, "duration": 10, "velocity": 92}, {"time": 100318, "pitch": 62, "duration": 10, "velocity": 80}, {"time": 100318, "pitch": 70, "duration": 10, "velocity": 80}, {"time": 100318, "pitch": 82, "duration": 10, "velocity": 30}, {"time": 100438, "pitch": 70, "duration": 10, "velocity": 56}, {"time": 100438, "pitch": 82, "duration": 10, "velocity": 20}, {"time": 100558, "pitch": 36, "duration": 10, "velocity": 106}, {"time": 100558, "pitch": 42, "duration": 10, "velocity": 78}, {"time": 100558, "pitch": 64, "duration": 10, "velocity": 56}, {"time": 100558, "pitch": 70, "duration": 10, "velocity": 64}, {"time": 100558, "pitch": 82, "duration": 10, "velocity": 80}, {"time": 100678, "pitch": 70, "duration": 10, "velocity": 56}, {"time": 100678, "pitch": 82, "duration": 10, "velocity": 20}, {"time": 100798, "pitch": 36, "duration": 10, "velocity": 106}, {"time": 100798, "pitch": 42, "duration": 10, "velocity": 92}, {"time": 100798, "pitch": 64, "duration": 10, "velocity": 64}, {"time": 100798, "pitch": 70, "duration": 10, "velocity": 64}, {"time": 100798, "pitch": 82, "duration": 10, "velocity": 30}, {"time": 100918, "pitch": 70, "duration": 10, "velocity": 56}, {"time": 100918, "pitch": 82, "duration": 10, "velocity": 20}, {"time": 101037, "pitch": 42, "duration": 10, "velocity": 78}, {"time": 101037, "pitch": 64, "duration": 10, "velocity": 56}, {"time": 101037, "pitch": 70, "duration": 10, "velocity": 64}, {"time": 101037, "pitch": 82, "duration": 10, "velocity": 80}, {"time": 101157, "pitch": 70, "duration": 10, "velocity": 56}, {"time": 101157, "pitch": 82, "duration": 10, "velocity": 20}, {"time": 101277, "pitch": 36, "duration": 10, "velocity": 106}, {"time": 101277, "pitch": 38, "duration": 10, "velocity": 106}, {"time": 101277, "pitch": 42, "duration": 10, "velocity": 92}, {"time": 101277, "pitch": 62, "duration": 10, "velocity": 80}, {"time": 101277, "pitch": 70, "duration": 10, "velocity": 80}, {"time": 101277, "pitch": 82, "duration": 10, "velocity": 30}, {"time": 101399, "pitch": 70, "duration": 10, "velocity": 56}, {"time": 101399, "pitch": 82, "duration": 10, "velocity": 20}, {"time": 101520, "pitch": 42, "duration": 10, "velocity": 78}, {"time": 101520, "pitch": 64, "duration": 10, "velocity": 56}, {"time": 101520, "pitch": 70, "duration": 10, "velocity": 64}, {"time": 101520, "pitch": 82, "duration": 10, "velocity": 80}, {"time": 101642, "pitch": 70, "duration": 10, "velocity": 56}, {"time": 101642, "pitch": 82, "duration": 10, "velocity": 20}, {"time": 101763, "pitch": 36, "duration": 10, "velocity": 106}, {"time": 101763, "pitch": 42, "duration": 10, "velocity": 92}, {"time": 101763, "pitch": 64, "duration": 10, "velocity": 64}, {"time": 101763, "pitch": 70, "duration": 10, "velocity": 64}, {"time": 101763, "pitch": 82, "duration": 10, "velocity": 30}, {"time": 101883, "pitch": 70, "duration": 10, "velocity": 56}, {"time": 101883, "pitch": 82, "duration": 10, "velocity": 20}, {"time": 102003, "pitch": 42, "duration": 10, "velocity": 78}, {"time": 102003, "pitch": 64, "duration": 10, "velocity": 56}, {"time": 102003, "pitch": 70, "duration": 10, "velocity": 64}, {"time": 102003, "pitch": 82, "duration": 10, "velocity": 80}, {"time": 102123, "pitch": 64, "duration": 10, "velocity": 40}, {"time": 102123, "pitch": 70, "duration": 10, "velocity": 56}, {"time": 102123, "pitch": 82, "duration": 10, "velocity": 20}, {"time": 102243, "pitch": 36, "duration": 10, "velocity": 106}, {"time": 102243, "pitch": 38, "duration": 10, "velocity": 106}, {"time": 102243, "pitch": 42, "duration": 10, "velocity": 92}, {"time": 102243, "pitch": 62, "duration": 10, "velocity": 80}, {"time": 102243, "pitch": 70, "duration": 10, "velocity": 80}, {"time": 102243, "pitch": 82, "duration": 10, "velocity": 30}, {"time": 102363, "pitch": 70, "duration": 10, "velocity": 56}, {"time": 102363, "pitch": 82, "duration": 10, "velocity": 20}, {"time": 102482, "pitch": 42, "duration": 10, "velocity": 78}, {"time": 102482, "pitch": 64, "duration": 10, "velocity": 56}, {"time": 102482, "pitch": 70, "duration": 10, "velocity": 64}, {"time": 102482, "pitch": 82, "duration": 10, "velocity": 80}, {"time": 102602, "pitch": 70, "duration": 10, "velocity": 56}, {"time": 102602, "pitch": 82, "duration": 10, "velocity": 20}, {"time": 102722, "pitch": 36, "duration": 10, "velocity": 106}, {"time": 102722, "pitch": 42, "duration": 10, "velocity": 92}, {"time": 102722, "pitch": 64, "duration": 10, "velocity": 64}, {"time": 102722, "pitch": 70, "duration": 10, "velocity": 64}, {"time": 102722, "pitch": 82, "duration": 10, "velocity": 30}, {"time": 102842, "pitch": 70, "duration": 10, "velocity": 56}, {"time": 102842, "pitch": 82, "duration": 10, "velocity": 20}, {"time": 102962, "pitch": 42, "duration": 10, "velocity": 78}, {"time": 102962, "pitch": 64, "duration": 10, "velocity": 56}, {"time": 102962, "pitch": 70, "duration": 10, "velocity": 64}, {"time": 102962, "pitch": 82, "duration": 10, "velocity": 80}, {"time": 103082, "pitch": 36, "duration": 10, "velocity": 106}, {"time": 103082, "pitch": 70, "duration": 10, "velocity": 56}, {"time": 103082, "pitch": 82, "duration": 10, "velocity": 20}, {"time": 103202, "pitch": 38, "duration": 10, "velocity": 106}, {"time": 103202, "pitch": 42, "duration": 10, "velocity": 92}, {"time": 103202, "pitch": 62, "duration": 10, "velocity": 80}, {"time": 103202, "pitch": 70, "duration": 10, "velocity": 80}, {"time": 103202, "pitch": 82, "duration": 10, "velocity": 30}, {"time": 103322, "pitch": 70, "duration": 10, "velocity": 56}, {"time": 103322, "pitch": 82, "duration": 10, "velocity": 20}, {"time": 103442, "pitch": 42, "duration": 10, "velocity": 78}, {"time": 103442, "pitch": 64, "duration": 10, "velocity": 56}, {"time": 103442, "pitch": 70, "duration": 10, "velocity": 64}, {"time": 103442, "pitch": 82, "duration": 10, "velocity": 80}, {"time": 103562, "pitch": 70, "duration": 10, "velocity": 56}, {"time": 103562, "pitch": 82, "duration": 10, "velocity": 20}, {"time": 103682, "pitch": 36, "duration": 10, "velocity": 106}, {"time": 103682, "pitch": 42, "duration": 10, "velocity": 92}, {"time": 103682, "pitch": 64, "duration": 10, "velocity": 64}, {"time": 103682, "pitch": 70, "duration": 10, "velocity": 64}, {"time": 103682, "pitch": 82, "duration": 10, "velocity": 30}, {"time": 103802, "pitch": 70, "duration": 9, "velocity": 56}, {"time": 103802, "pitch": 82, "duration": 9, "velocity": 20}, {"time": 103921, "pitch": 42, "duration": 10, "velocity": 78}, {"time": 103921, "pitch": 64, "duration": 10, "velocity": 56}, {"time": 103921, "pitch": 70, "duration": 10, "velocity": 64}, {"time": 103921, "pitch": 82, "duration": 10, "velocity": 80}, {"time": 104041, "pitch": 36, "duration": 10, "velocity": 106}, {"time": 104041, "pitch": 64, "duration": 10, "velocity": 40}, {"time": 104041, "pitch": 70, "duration": 10, "velocity": 56}, {"time": 104041, "pitch": 82, "duration": 10, "velocity": 20}, {"time": 104161, "pitch": 38, "duration": 10, "velocity": 106}, {"time": 104161, "pitch": 42, "duration": 10, "velocity": 92}, {"time": 104161, "pitch": 62, "duration": 10, "velocity": 80}, {"time": 104161, "pitch": 70, "duration": 10, "velocity": 80}, {"time": 104161, "pitch": 82, "duration": 10, "velocity": 30}, {"time": 104281, "pitch": 70, "duration": 10, "velocity": 56}, {"time": 104281, "pitch": 82, "duration": 10, "velocity": 20}, {"time": 104401, "pitch": 36, "duration": 10, "velocity": 106}, {"time": 104401, "pitch": 42, "duration": 10, "velocity": 78}, {"time": 104401, "pitch": 64, "duration": 10, "velocity": 56}, {"time": 104401, "pitch": 70, "duration": 10, "velocity": 64}, {"time": 104401, "pitch": 82, "duration": 10, "velocity": 80}, {"time": 104521, "pitch": 70, "duration": 10, "velocity": 56}, {"time": 104521, "pitch": 82, "duration": 10, "velocity": 20}, {"time": 104641, "pitch": 36, "duration": 10, "velocity": 106}, {"time": 104641, "pitch": 42, "duration": 10, "velocity": 92}, {"time": 104641, "pitch": 64, "duration": 10, "velocity": 64}, {"time": 104641, "pitch": 70, "duration": 10, "velocity": 64}, {"time": 104641, "pitch": 82, "duration": 10, "velocity": 30}, {"time": 104761, "pitch": 70, "duration": 10, "velocity": 56}, {"time": 104761, "pitch": 82, "duration": 10, "velocity": 20}, {"time": 104881, "pitch": 42, "duration": 10, "velocity": 78}, {"time": 104881, "pitch": 64, "duration": 10, "velocity": 56}, {"time": 104881, "pitch": 70, "duration": 10, "velocity": 64}, {"time": 104881, "pitch": 82, "duration": 10, "velocity": 80}, {"time": 105001, "pitch": 70, "duration": 10, "velocity": 56}, {"time": 105001, "pitch": 82, "duration": 10, "velocity": 20}, {"time": 105121, "pitch": 36, "duration": 10, "velocity": 106}, {"time": 105121, "pitch": 38, "duration": 10, "velocity": 106}, {"time": 105121, "pitch": 42, "duration": 10, "velocity": 92}, {"time": 105121, "pitch": 62, "duration": 10, "velocity": 80}, {"time": 105121, "pitch": 70, "duration": 10, "velocity": 80}, {"time": 105121, "pitch": 82, "duration": 10, "velocity": 30}, {"time": 105240, "pitch": 70, "duration": 10, "velocity": 56}, {"time": 105240, "pitch": 82, "duration": 10, "velocity": 20}, {"time": 105360, "pitch": 42, "duration": 10, "velocity": 78}, {"time": 105360, "pitch": 64, "duration": 10, "velocity": 56}, {"time": 105360, "pitch": 70, "duration": 10, "velocity": 64}, {"time": 105360, "pitch": 82, "duration": 10, "velocity": 80}, {"time": 105480, "pitch": 70, "duration": 10, "velocity": 56}, {"time": 105480, "pitch": 82, "duration": 10, "velocity": 20}, {"time": 105600, "pitch": 36, "duration": 10, "velocity": 106}, {"time": 105600, "pitch": 42, "duration": 10, "velocity": 92}, {"time": 105600, "pitch": 64, "duration": 10, "velocity": 64}, {"time": 105600, "pitch": 70, "duration": 10, "velocity": 64}, {"time": 105600, "pitch": 82, "duration": 10, "velocity": 30}, {"time": 105720, "pitch": 70, "duration": 10, "velocity": 56}, {"time": 105720, "pitch": 82, "duration": 10, "velocity": 20}, {"time": 105840, "pitch": 42, "duration": 10, "velocity": 78}, {"time": 105840, "pitch": 64, "duration": 10, "velocity": 56}, {"time": 105840, "pitch": 70, "duration": 10, "velocity": 64}, {"time": 105840, "pitch": 82, "duration": 10, "velocity": 80}, {"time": 105960, "pitch": 64, "duration": 10, "velocity": 40}, {"time": 105960, "pitch": 70, "duration": 10, "velocity": 56}, {"time": 105960, "pitch": 82, "duration": 10, "velocity": 20}, {"time": 106080, "pitch": 36, "duration": 10, "velocity": 106}, {"time": 106080, "pitch": 38, "duration": 10, "velocity": 106}, {"time": 106080, "pitch": 42, "duration": 10, "velocity": 92}, {"time": 106080, "pitch": 62, "duration": 10, "velocity": 80}, {"time": 106080, "pitch": 70, "duration": 10, "velocity": 80}, {"time": 106080, "pitch": 82, "duration": 10, "velocity": 30}, {"time": 106200, "pitch": 70, "duration": 10, "velocity": 56}, {"time": 106200, "pitch": 82, "duration": 10, "velocity": 20}, {"time": 106320, "pitch": 42, "duration": 10, "velocity": 78}, {"time": 106320, "pitch": 64, "duration": 10, "velocity": 56}, {"time": 106320, "pitch": 70, "duration": 10, "velocity": 64}, {"time": 106320, "pitch": 82, "duration": 10, "velocity": 80}, {"time": 106440, "pitch": 70, "duration": 10, "velocity": 56}, {"time": 106440, "pitch": 82, "duration": 10, "velocity": 20}, {"time": 106559, "pitch": 36, "duration": 10, "velocity": 106}, {"time": 106559, "pitch": 42, "duration": 10, "velocity": 92}, {"time": 106559, "pitch": 64, "duration": 10, "velocity": 64}, {"time": 106559, "pitch": 70, "duration": 10, "velocity": 64}, {"time": 106559, "pitch": 82, "duration": 10, "velocity": 30}, {"time": 106679, "pitch": 70, "duration": 10, "velocity": 56}, {"time": 106679, "pitch": 82, "duration": 10, "velocity": 20}, {"time": 106799, "pitch": 42, "duration": 10, "velocity": 78}, {"time": 106799, "pitch": 64, "duration": 10, "velocity": 56}, {"time": 106799, "pitch": 70, "duration": 10, "velocity": 64}, {"time": 106799, "pitch": 82, "duration": 10, "velocity": 80}, {"time": 106919, "pitch": 36, "duration": 10, "velocity": 106}, {"time": 106919, "pitch": 70, "duration": 10, "velocity": 56}, {"time": 106919, "pitch": 82, "duration": 10, "velocity": 20}, {"time": 107039, "pitch": 38, "duration": 10, "velocity": 106}, {"time": 107039, "pitch": 42, "duration": 10, "velocity": 92}, {"time": 107039, "pitch": 62, "duration": 10, "velocity": 80}, {"time": 107039, "pitch": 70, "duration": 10, "velocity": 80}, {"time": 107039, "pitch": 82, "duration": 10, "velocity": 30}, {"time": 107159, "pitch": 70, "duration": 10, "velocity": 56}, {"time": 107159, "pitch": 82, "duration": 10, "velocity": 20}, {"time": 107279, "pitch": 42, "duration": 10, "velocity": 78}, {"time": 107279, "pitch": 64, "duration": 10, "velocity": 56}, {"time": 107279, "pitch": 70, "duration": 10, "velocity": 64}, {"time": 107279, "pitch": 82, "duration": 10, "velocity": 80}, {"time": 107399, "pitch": 70, "duration": 10, "velocity": 56}, {"time": 107399, "pitch": 82, "duration": 10, "velocity": 20}, {"time": 107519, "pitch": 36, "duration": 10, "velocity": 106}, {"time": 107519, "pitch": 42, "duration": 10, "velocity": 92}, {"time": 107519, "pitch": 64, "duration": 10, "velocity": 64}, {"time": 107519, "pitch": 70, "duration": 10, "velocity": 64}, {"time": 107519, "pitch": 82, "duration": 10, "velocity": 30}, {"time": 107639, "pitch": 70, "duration": 10, "velocity": 56}, {"time": 107639, "pitch": 82, "duration": 10, "velocity": 20}, {"time": 107759, "pitch": 42, "duration": 10, "velocity": 78}, {"time": 107759, "pitch": 64, "duration": 10, "velocity": 56}, {"time": 107759, "pitch": 70, "duration": 10, "velocity": 64}, {"time": 107759, "pitch": 82, "duration": 10, "velocity": 80}, {"time": 107879, "pitch": 36, "duration": 10, "velocity": 106}, {"time": 107879, "pitch": 64, "duration": 10, "velocity": 40}, {"time": 107879, "pitch": 70, "duration": 10, "velocity": 56}, {"time": 107879, "pitch": 82, "duration": 10, "velocity": 20}, {"time": 107998, "pitch": 38, "duration": 10, "velocity": 106}, {"time": 107998, "pitch": 42, "duration": 10, "velocity": 92}, {"time": 107998, "pitch": 62, "duration": 10, "velocity": 80}, {"time": 107998, "pitch": 70, "duration": 10, "velocity": 80}, {"time": 107998, "pitch": 82, "duration": 10, "velocity": 30}, {"time": 108118, "pitch": 70, "duration": 10, "velocity": 56}, {"time": 108118, "pitch": 82, "duration": 10, "velocity": 20}, {"time": 108238, "pitch": 36, "duration": 10, "velocity": 106}, {"time": 108238, "pitch": 42, "duration": 10, "velocity": 78}, {"time": 108238, "pitch": 64, "duration": 10, "velocity": 56}, {"time": 108238, "pitch": 70, "duration": 10, "velocity": 64}, {"time": 108238, "pitch": 82, "duration": 10, "velocity": 80}, {"time": 108358, "pitch": 70, "duration": 10, "velocity": 56}, {"time": 108358, "pitch": 82, "duration": 10, "velocity": 20}, {"time": 108478, "pitch": 36, "duration": 10, "velocity": 106}, {"time": 108478, "pitch": 42, "duration": 10, "velocity": 92}, {"time": 108478, "pitch": 64, "duration": 10, "velocity": 64}, {"time": 108478, "pitch": 70, "duration": 10, "velocity": 64}, {"time": 108478, "pitch": 82, "duration": 10, "velocity": 30}, {"time": 108598, "pitch": 70, "duration": 10, "velocity": 56}, {"time": 108598, "pitch": 82, "duration": 10, "velocity": 20}, {"time": 108718, "pitch": 42, "duration": 10, "velocity": 78}, {"time": 108718, "pitch": 64, "duration": 10, "velocity": 56}, {"time": 108718, "pitch": 70, "duration": 10, "velocity": 64}, {"time": 108718, "pitch": 82, "duration": 10, "velocity": 80}, {"time": 108838, "pitch": 36, "duration": 10, "velocity": 106}, {"time": 108838, "pitch": 70, "duration": 10, "velocity": 56}, {"time": 108838, "pitch": 82, "duration": 10, "velocity": 20}, {"time": 108958, "pitch": 38, "duration": 10, "velocity": 106}, {"time": 108958, "pitch": 42, "duration": 10, "velocity": 92}, {"time": 108958, "pitch": 62, "duration": 10, "velocity": 80}, {"time": 108958, "pitch": 70, "duration": 10, "velocity": 80}, {"time": 108958, "pitch": 82, "duration": 10, "velocity": 30}, {"time": 109078, "pitch": 70, "duration": 10, "velocity": 56}, {"time": 109078, "pitch": 82, "duration": 10, "velocity": 20}, {"time": 109198, "pitch": 42, "duration": 10, "velocity": 78}, {"time": 109198, "pitch": 64, "duration": 10, "velocity": 56}, {"time": 109198, "pitch": 70, "duration": 10, "velocity": 64}, {"time": 109198, "pitch": 82, "duration": 10, "velocity": 80}, {"time": 109317, "pitch": 70, "duration": 10, "velocity": 56}, {"time": 109317, "pitch": 82, "duration": 10, "velocity": 20}, {"time": 109437, "pitch": 36, "duration": 10, "velocity": 106}, {"time": 109437, "pitch": 42, "duration": 10, "velocity": 92}, {"time": 109437, "pitch": 64, "duration": 10, "velocity": 64}, {"time": 109437, "pitch": 70, "duration": 10, "velocity": 64}, {"time": 109437, "pitch": 82, "duration": 10, "velocity": 30}, {"time": 109557, "pitch": 70, "duration": 10, "velocity": 56}, {"time": 109557, "pitch": 82, "duration": 10, "velocity": 20}, {"time": 109677, "pitch": 42, "duration": 10, "velocity": 78}, {"time": 109677, "pitch": 64, "duration": 10, "velocity": 56}, {"time": 109677, "pitch": 70, "duration": 10, "velocity": 64}, {"time": 109677, "pitch": 82, "duration": 10, "velocity": 80}, {"time": 109797, "pitch": 36, "duration": 10, "velocity": 106}, {"time": 109797, "pitch": 64, "duration": 10, "velocity": 40}, {"time": 109797, "pitch": 70, "duration": 10, "velocity": 56}, {"time": 109797, "pitch": 82, "duration": 10, "velocity": 20}, {"time": 109917, "pitch": 38, "duration": 10, "velocity": 106}, {"time": 109917, "pitch": 42, "duration": 10, "velocity": 92}, {"time": 109917, "pitch": 62, "duration": 10, "velocity": 80}, {"time": 109917, "pitch": 70, "duration": 10, "velocity": 80}, {"time": 109917, "pitch": 82, "duration": 10, "velocity": 30}, {"time": 110038, "pitch": 70, "duration": 11, "velocity": 56}, {"time": 110038, "pitch": 82, "duration": 11, "velocity": 20}, {"time": 110160, "pitch": 42, "duration": 10, "velocity": 78}, {"time": 110160, "pitch": 64, "duration": 10, "velocity": 56}, {"time": 110160, "pitch": 70, "duration": 10, "velocity": 64}, {"time": 110160, "pitch": 82, "duration": 10, "velocity": 80}, {"time": 110281, "pitch": 70, "duration": 10, "velocity": 56}, {"time": 110281, "pitch": 82, "duration": 10, "velocity": 20}, {"time": 110403, "pitch": 36, "duration": 10, "velocity": 106}, {"time": 110403, "pitch": 42, "duration": 10, "velocity": 92}, {"time": 110403, "pitch": 64, "duration": 10, "velocity": 64}, {"time": 110403, "pitch": 70, "duration": 10, "velocity": 64}, {"time": 110403, "pitch": 82, "duration": 10, "velocity": 30}, {"time": 110523, "pitch": 70, "duration": 10, "velocity": 56}, {"time": 110523, "pitch": 82, "duration": 10, "velocity": 20}, {"time": 110643, "pitch": 42, "duration": 10, "velocity": 78}, {"time": 110643, "pitch": 64, "duration": 10, "velocity": 56}, {"time": 110643, "pitch": 70, "duration": 10, "velocity": 64}, {"time": 110643, "pitch": 82, "duration": 10, "velocity": 80}, {"time": 110762, "pitch": 70, "duration": 10, "velocity": 56}, {"time": 110762, "pitch": 82, "duration": 10, "velocity": 20}, {"time": 110882, "pitch": 38, "duration": 10, "velocity": 106}, {"time": 110882, "pitch": 42, "duration": 10, "velocity": 92}, {"time": 110882, "pitch": 62, "duration": 10, "velocity": 80}, {"time": 110882, "pitch": 70, "duration": 10, "velocity": 80}, {"time": 110882, "pitch": 82, "duration": 10, "velocity": 30}, {"time": 111002, "pitch": 70, "duration": 10, "velocity": 56}, {"time": 111002, "pitch": 82, "duration": 10, "velocity": 20}, {"time": 111122, "pitch": 42, "duration": 10, "velocity": 78}, {"time": 111122, "pitch": 64, "duration": 10, "velocity": 56}, {"time": 111122, "pitch": 70, "duration": 10, "velocity": 64}, {"time": 111122, "pitch": 82, "duration": 10, "velocity": 80}, {"time": 111242, "pitch": 70, "duration": 10, "velocity": 56}, {"time": 111242, "pitch": 82, "duration": 10, "velocity": 20}, {"time": 111362, "pitch": 36, "duration": 10, "velocity": 106}, {"time": 111362, "pitch": 42, "duration": 10, "velocity": 92}, {"time": 111362, "pitch": 64, "duration": 10, "velocity": 64}, {"time": 111362, "pitch": 70, "duration": 10, "velocity": 64}, {"time": 111362, "pitch": 82, "duration": 10, "velocity": 30}, {"time": 111482, "pitch": 70, "duration": 10, "velocity": 56}, {"time": 111482, "pitch": 82, "duration": 10, "velocity": 20}, {"time": 111602, "pitch": 42, "duration": 10, "velocity": 78}, {"time": 111602, "pitch": 64, "duration": 10, "velocity": 56}, {"time": 111602, "pitch": 70, "duration": 10, "velocity": 64}, {"time": 111602, "pitch": 82, "duration": 10, "velocity": 80}, {"time": 111722, "pitch": 36, "duration": 10, "velocity": 106}, {"time": 111722, "pitch": 64, "duration": 10, "velocity": 40}, {"time": 111722, "pitch": 70, "duration": 10, "velocity": 56}, {"time": 111722, "pitch": 82, "duration": 10, "velocity": 20}, {"time": 111842, "pitch": 38, "duration": 10, "velocity": 106}, {"time": 111842, "pitch": 42, "duration": 10, "velocity": 92}, {"time": 111842, "pitch": 62, "duration": 10, "velocity": 80}, {"time": 111842, "pitch": 70, "duration": 10, "velocity": 80}, {"time": 111842, "pitch": 82, "duration": 10, "velocity": 30}, {"time": 111962, "pitch": 70, "duration": 10, "velocity": 56}, {"time": 111962, "pitch": 82, "duration": 10, "velocity": 20}, {"time": 112082, "pitch": 42, "duration": 10, "velocity": 78}, {"time": 112082, "pitch": 64, "duration": 10, "velocity": 56}, {"time": 112082, "pitch": 70, "duration": 10, "velocity": 64}, {"time": 112082, "pitch": 82, "duration": 10, "velocity": 80}, {"time": 112201, "pitch": 70, "duration": 10, "velocity": 56}, {"time": 112201, "pitch": 82, "duration": 10, "velocity": 20}, {"time": 112321, "pitch": 36, "duration": 10, "velocity": 106}, {"time": 112321, "pitch": 42, "duration": 10, "velocity": 92}, {"time": 112321, "pitch": 64, "duration": 10, "velocity": 64}, {"time": 112321, "pitch": 70, "duration": 10, "velocity": 64}, {"time": 112321, "pitch": 82, "duration": 10, "velocity": 30}, {"time": 112441, "pitch": 70, "duration": 10, "velocity": 56}, {"time": 112441, "pitch": 82, "duration": 10, "velocity": 20}, {"time": 112561, "pitch": 42, "duration": 10, "velocity": 78}, {"time": 112561, "pitch": 64, "duration": 10, "velocity": 56}, {"time": 112561, "pitch": 70, "duration": 10, "velocity": 64}, {"time": 112561, "pitch": 82, "duration": 10, "velocity": 80}, {"time": 112681, "pitch": 36, "duration": 10, "velocity": 106}, {"time": 112681, "pitch": 70, "duration": 10, "velocity": 56}, {"time": 112681, "pitch": 82, "duration": 10, "velocity": 20}, {"time": 112801, "pitch": 38, "duration": 10, "velocity": 106}, {"time": 112801, "pitch": 42, "duration": 10, "velocity": 92}, {"time": 112801, "pitch": 62, "duration": 10, "velocity": 80}, {"time": 112801, "pitch": 70, "duration": 10, "velocity": 80}, {"time": 112801, "pitch": 82, "duration": 10, "velocity": 30}, {"time": 112921, "pitch": 70, "duration": 10, "velocity": 56}, {"time": 112921, "pitch": 82, "duration": 10, "velocity": 20}, {"time": 113041, "pitch": 42, "duration": 10, "velocity": 78}, {"time": 113041, "pitch": 64, "duration": 10, "velocity": 56}, {"time": 113041, "pitch": 70, "duration": 10, "velocity": 64}, {"time": 113041, "pitch": 82, "duration": 10, "velocity": 80}, {"time": 113161, "pitch": 70, "duration": 10, "velocity": 56}, {"time": 113161, "pitch": 82, "duration": 10, "velocity": 20}, {"time": 113281, "pitch": 36, "duration": 10, "velocity": 106}, {"time": 113281, "pitch": 42, "duration": 10, "velocity": 92}, {"time": 113281, "pitch": 64, "duration": 10, "velocity": 64}, {"time": 113281, "pitch": 70, "duration": 10, "velocity": 64}, {"time": 113281, "pitch": 82, "duration": 10, "velocity": 30}, {"time": 113401, "pitch": 70, "duration": 10, "velocity": 56}, {"time": 113401, "pitch": 82, "duration": 10, "velocity": 20}, {"time": 113520, "pitch": 42, "duration": 10, "velocity": 78}, {"time": 113520, "pitch": 64, "duration": 10, "velocity": 56}, {"time": 113520, "pitch": 70, "duration": 10, "velocity": 64}, {"time": 113520, "pitch": 82, "duration": 10, "velocity": 80}, {"time": 113640, "pitch": 36, "duration": 10, "velocity": 106}, {"time": 113640, "pitch": 64, "duration": 10, "velocity": 40}, {"time": 113640, "pitch": 70, "duration": 10, "velocity": 56}, {"time": 113640, "pitch": 82, "duration": 10, "velocity": 20}, {"time": 113760, "pitch": 38, "duration": 10, "velocity": 106}, {"time": 113760, "pitch": 42, "duration": 10, "velocity": 92}, {"time": 113760, "pitch": 62, "duration": 10, "velocity": 80}, {"time": 113760, "pitch": 70, "duration": 10, "velocity": 80}, {"time": 113760, "pitch": 82, "duration": 10, "velocity": 30}, {"time": 113880, "pitch": 70, "duration": 10, "velocity": 56}, {"time": 113880, "pitch": 82, "duration": 10, "velocity": 20}, {"time": 114000, "pitch": 42, "duration": 10, "velocity": 78}, {"time": 114000, "pitch": 64, "duration": 10, "velocity": 56}, {"time": 114000, "pitch": 70, "duration": 10, "velocity": 64}, {"time": 114000, "pitch": 82, "duration": 10, "velocity": 80}, {"time": 114120, "pitch": 70, "duration": 10, "velocity": 56}, {"time": 114120, "pitch": 82, "duration": 10, "velocity": 20}, {"time": 114240, "pitch": 36, "duration": 10, "velocity": 106}, {"time": 114240, "pitch": 42, "duration": 10, "velocity": 92}, {"time": 114240, "pitch": 64, "duration": 10, "velocity": 64}, {"time": 114240, "pitch": 70, "duration": 10, "velocity": 64}, {"time": 114240, "pitch": 82, "duration": 10, "velocity": 30}, {"time": 114360, "pitch": 70, "duration": 10, "velocity": 56}, {"time": 114360, "pitch": 82, "duration": 10, "velocity": 20}, {"time": 114480, "pitch": 42, "duration": 10, "velocity": 78}, {"time": 114480, "pitch": 64, "duration": 10, "velocity": 56}, {"time": 114480, "pitch": 70, "duration": 10, "velocity": 64}, {"time": 114480, "pitch": 82, "duration": 10, "velocity": 80}, {"time": 114600, "pitch": 70, "duration": 10, "velocity": 56}, {"time": 114600, "pitch": 82, "duration": 10, "velocity": 20}, {"time": 114720, "pitch": 38, "duration": 10, "velocity": 106}, {"time": 114720, "pitch": 42, "duration": 10, "velocity": 92}, {"time": 114720, "pitch": 62, "duration": 10, "velocity": 80}, {"time": 114720, "pitch": 70, "duration": 10, "velocity": 80}, {"time": 114720, "pitch": 82, "duration": 10, "velocity": 30}, {"time": 114839, "pitch": 70, "duration": 10, "velocity": 56}, {"time": 114839, "pitch": 82, "duration": 10, "velocity": 20}, {"time": 114959, "pitch": 42, "duration": 10, "velocity": 78}, {"time": 114959, "pitch": 64, "duration": 10, "velocity": 56}, {"time": 114959, "pitch": 70, "duration": 10, "velocity": 64}, {"time": 114959, "pitch": 82, "duration": 10, "velocity": 80}, {"time": 115079, "pitch": 70, "duration": 10, "velocity": 56}, {"time": 115079, "pitch": 82, "duration": 10, "velocity": 20}, {"time": 115199, "pitch": 36, "duration": 10, "velocity": 106}, {"time": 115199, "pitch": 42, "duration": 10, "velocity": 92}, {"time": 115199, "pitch": 64, "duration": 10, "velocity": 64}, {"time": 115199, "pitch": 70, "duration": 10, "velocity": 64}, {"time": 115199, "pitch": 82, "duration": 10, "velocity": 30}, {"time": 115319, "pitch": 70, "duration": 10, "velocity": 56}, {"time": 115319, "pitch": 82, "duration": 10, "velocity": 20}, {"time": 115439, "pitch": 42, "duration": 10, "velocity": 78}, {"time": 115439, "pitch": 64, "duration": 10, "velocity": 56}, {"time": 115439, "pitch": 70, "duration": 10, "velocity": 64}, {"time": 115439, "pitch": 82, "duration": 10, "velocity": 80}, {"time": 115559, "pitch": 36, "duration": 10, "velocity": 106}, {"time": 115559, "pitch": 64, "duration": 10, "velocity": 40}, {"time": 115559, "pitch": 70, "duration": 10, "velocity": 56}, {"time": 115559, "pitch": 82, "duration": 10, "velocity": 20}, {"time": 115679, "pitch": 38, "duration": 10, "velocity": 106}, {"time": 115679, "pitch": 42, "duration": 10, "velocity": 92}, {"time": 115679, "pitch": 62, "duration": 10, "velocity": 80}, {"time": 115679, "pitch": 70, "duration": 10, "velocity": 80}, {"time": 115679, "pitch": 82, "duration": 10, "velocity": 30}, {"time": 115799, "pitch": 70, "duration": 10, "velocity": 56}, {"time": 115799, "pitch": 82, "duration": 10, "velocity": 20}, {"time": 115919, "pitch": 42, "duration": 10, "velocity": 78}, {"time": 115919, "pitch": 64, "duration": 10, "velocity": 56}, {"time": 115919, "pitch": 70, "duration": 10, "velocity": 64}, {"time": 115919, "pitch": 82, "duration": 10, "velocity": 80}, {"time": 116039, "pitch": 70, "duration": 10, "velocity": 56}, {"time": 116039, "pitch": 82, "duration": 10, "velocity": 20}, {"time": 116159, "pitch": 36, "duration": 10, "velocity": 106}, {"time": 116159, "pitch": 42, "duration": 10, "velocity": 92}, {"time": 116159, "pitch": 64, "duration": 10, "velocity": 64}, {"time": 116159, "pitch": 70, "duration": 10, "velocity": 64}, {"time": 116159, "pitch": 82, "duration": 10, "velocity": 30}, {"time": 116278, "pitch": 70, "duration": 10, "velocity": 56}, {"time": 116278, "pitch": 82, "duration": 10, "velocity": 20}, {"time": 116398, "pitch": 42, "duration": 10, "velocity": 78}, {"time": 116398, "pitch": 64, "duration": 10, "velocity": 56}, {"time": 116398, "pitch": 70, "duration": 10, "velocity": 64}, {"time": 116398, "pitch": 82, "duration": 10, "velocity": 80}, {"time": 116518, "pitch": 36, "duration": 10, "velocity": 106}, {"time": 116518, "pitch": 70, "duration": 10, "velocity": 56}, {"time": 116518, "pitch": 82, "duration": 10, "velocity": 20}, {"time": 116638, "pitch": 38, "duration": 10, "velocity": 106}, {"time": 116638, "pitch": 42, "duration": 10, "velocity": 92}, {"time": 116638, "pitch": 62, "duration": 10, "velocity": 80}, {"time": 116638, "pitch": 70, "duration": 10, "velocity": 80}, {"time": 116638, "pitch": 82, "duration": 10, "velocity": 30}, {"time": 116758, "pitch": 70, "duration": 10, "velocity": 56}, {"time": 116758, "pitch": 82, "duration": 10, "velocity": 20}, {"time": 116878, "pitch": 42, "duration": 10, "velocity": 78}, {"time": 116878, "pitch": 64, "duration": 10, "velocity": 56}, {"time": 116878, "pitch": 70, "duration": 10, "velocity": 64}, {"time": 116878, "pitch": 82, "duration": 10, "velocity": 80}, {"time": 116998, "pitch": 70, "duration": 10, "velocity": 56}, {"time": 116998, "pitch": 82, "duration": 10, "velocity": 20}, {"time": 117118, "pitch": 36, "duration": 10, "velocity": 106}, {"time": 117118, "pitch": 42, "duration": 10, "velocity": 92}, {"time": 117118, "pitch": 64, "duration": 10, "velocity": 64}, {"time": 117118, "pitch": 70, "duration": 10, "velocity": 64}, {"time": 117118, "pitch": 82, "duration": 10, "velocity": 30}, {"time": 117238, "pitch": 70, "duration": 10, "velocity": 56}, {"time": 117238, "pitch": 82, "duration": 10, "velocity": 20}, {"time": 117358, "pitch": 42, "duration": 10, "velocity": 78}, {"time": 117358, "pitch": 64, "duration": 10, "velocity": 56}, {"time": 117358, "pitch": 70, "duration": 10, "velocity": 64}, {"time": 117358, "pitch": 82, "duration": 10, "velocity": 80}, {"time": 117478, "pitch": 36, "duration": 10, "velocity": 106}, {"time": 117478, "pitch": 64, "duration": 10, "velocity": 40}, {"time": 117478, "pitch": 70, "duration": 10, "velocity": 56}, {"time": 117478, "pitch": 82, "duration": 10, "velocity": 20}, {"time": 117597, "pitch": 38, "duration": 10, "velocity": 106}, {"time": 117597, "pitch": 42, "duration": 10, "velocity": 92}, {"time": 117597, "pitch": 62, "duration": 10, "velocity": 80}, {"time": 117597, "pitch": 70, "duration": 10, "velocity": 80}, {"time": 117597, "pitch": 82, "duration": 10, "velocity": 30}, {"time": 117717, "pitch": 70, "duration": 10, "velocity": 56}, {"time": 117717, "pitch": 82, "duration": 10, "velocity": 20}, {"time": 117837, "pitch": 42, "duration": 10, "velocity": 78}, {"time": 117837, "pitch": 64, "duration": 10, "velocity": 56}, {"time": 117837, "pitch": 70, "duration": 10, "velocity": 64}, {"time": 117837, "pitch": 82, "duration": 10, "velocity": 80}, {"time": 117957, "pitch": 70, "duration": 10, "velocity": 56}, {"time": 117957, "pitch": 82, "duration": 10, "velocity": 20}, {"time": 118077, "pitch": 36, "duration": 10, "velocity": 106}, {"time": 118077, "pitch": 42, "duration": 10, "velocity": 92}, {"time": 118077, "pitch": 64, "duration": 10, "velocity": 64}, {"time": 118077, "pitch": 70, "duration": 10, "velocity": 64}, {"time": 118077, "pitch": 82, "duration": 10, "velocity": 30}, {"time": 118199, "pitch": 70, "duration": 10, "velocity": 56}, {"time": 118199, "pitch": 82, "duration": 10, "velocity": 20}, {"time": 118320, "pitch": 42, "duration": 10, "velocity": 78}, {"time": 118320, "pitch": 64, "duration": 10, "velocity": 56}, {"time": 118320, "pitch": 70, "duration": 10, "velocity": 64}, {"time": 118320, "pitch": 82, "duration": 10, "velocity": 80}, {"time": 118441, "pitch": 70, "duration": 11, "velocity": 56}, {"time": 118441, "pitch": 82, "duration": 11, "velocity": 20}, {"time": 118563, "pitch": 38, "duration": 10, "velocity": 106}, {"time": 118563, "pitch": 42, "duration": 10, "velocity": 92}, {"time": 118563, "pitch": 62, "duration": 10, "velocity": 80}, {"time": 118563, "pitch": 70, "duration": 10, "velocity": 80}, {"time": 118563, "pitch": 82, "duration": 10, "velocity": 30}, {"time": 118683, "pitch": 70, "duration": 10, "velocity": 56}, {"time": 118683, "pitch": 82, "duration": 10, "velocity": 20}, {"time": 118803, "pitch": 42, "duration": 10, "velocity": 78}, {"time": 118803, "pitch": 64, "duration": 10, "velocity": 56}, {"time": 118803, "pitch": 70, "duration": 10, "velocity": 64}, {"time": 118803, "pitch": 82, "duration": 10, "velocity": 80}, {"time": 118923, "pitch": 70, "duration": 10, "velocity": 56}, {"time": 118923, "pitch": 82, "duration": 10, "velocity": 20}, {"time": 119042, "pitch": 36, "duration": 10, "velocity": 106}, {"time": 119042, "pitch": 42, "duration": 10, "velocity": 92}, {"time": 119042, "pitch": 64, "duration": 10, "velocity": 64}, {"time": 119042, "pitch": 70, "duration": 10, "velocity": 64}, {"time": 119042, "pitch": 82, "duration": 10, "velocity": 30}, {"time": 119162, "pitch": 70, "duration": 10, "velocity": 56}, {"time": 119162, "pitch": 82, "duration": 10, "velocity": 20}, {"time": 119282, "pitch": 42, "duration": 10, "velocity": 78}, {"time": 119282, "pitch": 64, "duration": 10, "velocity": 56}, {"time": 119282, "pitch": 70, "duration": 10, "velocity": 64}, {"time": 119282, "pitch": 82, "duration": 10, "velocity": 80}, {"time": 119402, "pitch": 36, "duration": 10, "velocity": 106}, {"time": 119402, "pitch": 64, "duration": 10, "velocity": 40}, {"time": 119402, "pitch": 70, "duration": 10, "velocity": 56}, {"time": 119402, "pitch": 82, "duration": 10, "velocity": 20}, {"time": 119522, "pitch": 38, "duration": 10, "velocity": 106}, {"time": 119522, "pitch": 42, "duration": 10, "velocity": 92}, {"time": 119522, "pitch": 62, "duration": 10, "velocity": 80}, {"time": 119522, "pitch": 70, "duration": 10, "velocity": 80}, {"time": 119522, "pitch": 82, "duration": 10, "velocity": 30}, {"time": 119642, "pitch": 70, "duration": 10, "velocity": 56}, {"time": 119642, "pitch": 82, "duration": 10, "velocity": 20}, {"time": 119762, "pitch": 42, "duration": 10, "velocity": 78}, {"time": 119762, "pitch": 64, "duration": 10, "velocity": 56}, {"time": 119762, "pitch": 70, "duration": 10, "velocity": 64}, {"time": 119762, "pitch": 82, "duration": 10, "velocity": 80}, {"time": 119882, "pitch": 70, "duration": 10, "velocity": 56}, {"time": 119882, "pitch": 82, "duration": 10, "velocity": 20}, {"time": 120002, "pitch": 36, "duration": 10, "velocity": 106}, {"time": 120002, "pitch": 42, "duration": 10, "velocity": 92}, {"time": 120002, "pitch": 64, "duration": 10, "velocity": 64}, {"time": 120002, "pitch": 70, "duration": 10, "velocity": 64}, {"time": 120002, "pitch": 82, "duration": 10, "velocity": 30}, {"time": 120122, "pitch": 70, "duration": 10, "velocity": 56}, {"time": 120122, "pitch": 82, "duration": 10, "velocity": 20}, {"time": 120242, "pitch": 42, "duration": 10, "velocity": 78}, {"time": 120242, "pitch": 64, "duration": 10, "velocity": 56}, {"time": 120242, "pitch": 70, "duration": 10, "velocity": 64}, {"time": 120242, "pitch": 82, "duration": 10, "velocity": 80}, {"time": 120362, "pitch": 36, "duration": 10, "velocity": 106}, {"time": 120362, "pitch": 70, "duration": 10, "velocity": 56}, {"time": 120362, "pitch": 82, "duration": 10, "velocity": 20}, {"time": 120481, "pitch": 38, "duration": 10, "velocity": 106}, {"time": 120481, "pitch": 42, "duration": 10, "velocity": 92}, {"time": 120481, "pitch": 62, "duration": 10, "velocity": 80}, {"time": 120481, "pitch": 70, "duration": 10, "velocity": 80}, {"time": 120481, "pitch": 82, "duration": 10, "velocity": 30}, {"time": 120601, "pitch": 70, "duration": 10, "velocity": 56}, {"time": 120601, "pitch": 82, "duration": 10, "velocity": 20}, {"time": 120721, "pitch": 42, "duration": 10, "velocity": 78}, {"time": 120721, "pitch": 64, "duration": 10, "velocity": 56}, {"time": 120721, "pitch": 70, "duration": 10, "velocity": 64}, {"time": 120721, "pitch": 82, "duration": 10, "velocity": 80}, {"time": 120841, "pitch": 70, "duration": 10, "velocity": 56}, {"time": 120841, "pitch": 82, "duration": 10, "velocity": 20}, {"time": 120961, "pitch": 36, "duration": 10, "velocity": 106}, {"time": 120961, "pitch": 42, "duration": 10, "velocity": 92}, {"time": 120961, "pitch": 64, "duration": 10, "velocity": 64}, {"time": 120961, "pitch": 70, "duration": 10, "velocity": 64}, {"time": 120961, "pitch": 82, "duration": 10, "velocity": 30}, {"time": 121081, "pitch": 70, "duration": 10, "velocity": 56}, {"time": 121081, "pitch": 82, "duration": 10, "velocity": 20}, {"time": 121201, "pitch": 42, "duration": 10, "velocity": 78}, {"time": 121201, "pitch": 64, "duration": 10, "velocity": 56}, {"time": 121201, "pitch": 70, "duration": 10, "velocity": 64}, {"time": 121201, "pitch": 82, "duration": 10, "velocity": 80}, {"time": 121321, "pitch": 36, "duration": 10, "velocity": 106}, {"time": 121321, "pitch": 64, "duration": 10, "velocity": 40}, {"time": 121321, "pitch": 70, "duration": 10, "velocity": 56}, {"time": 121321, "pitch": 82, "duration": 10, "velocity": 20}, {"time": 121441, "pitch": 38, "duration": 10, "velocity": 106}, {"time": 121441, "pitch": 42, "duration": 10, "velocity": 92}, {"time": 121441, "pitch": 62, "duration": 10, "velocity": 80}, {"time": 121441, "pitch": 70, "duration": 10, "velocity": 80}, {"time": 121441, "pitch": 82, "duration": 10, "velocity": 30}, {"time": 121561, "pitch": 70, "duration": 10, "velocity": 56}, {"time": 121561, "pitch": 82, "duration": 10, "velocity": 20}, {"time": 121681, "pitch": 42, "duration": 10, "velocity": 78}, {"time": 121681, "pitch": 64, "duration": 10, "velocity": 56}, {"time": 121681, "pitch": 70, "duration": 10, "velocity": 64}, {"time": 121681, "pitch": 82, "duration": 10, "velocity": 80}, {"time": 121800, "pitch": 70, "duration": 10, "velocity": 56}, {"time": 121800, "pitch": 82, "duration": 10, "velocity": 20}, {"time": 121920, "pitch": 36, "duration": 10, "velocity": 106}, {"time": 121920, "pitch": 42, "duration": 10, "velocity": 92}, {"time": 121920, "pitch": 64, "duration": 10, "velocity": 64}, {"time": 121920, "pitch": 70, "duration": 10, "velocity": 64}, {"time": 121920, "pitch": 82, "duration": 10, "velocity": 30}, {"time": 122040, "pitch": 70, "duration": 10, "velocity": 56}, {"time": 122040, "pitch": 82, "duration": 10, "velocity": 20}, {"time": 122160, "pitch": 42, "duration": 10, "velocity": 78}, {"time": 122160, "pitch": 64, "duration": 10, "velocity": 56}, {"time": 122160, "pitch": 70, "duration": 10, "velocity": 64}, {"time": 122160, "pitch": 82, "duration": 10, "velocity": 80}, {"time": 122280, "pitch": 70, "duration": 10, "velocity": 56}, {"time": 122280, "pitch": 82, "duration": 10, "velocity": 20}, {"time": 122400, "pitch": 38, "duration": 10, "velocity": 106}, {"time": 122400, "pitch": 42, "duration": 10, "velocity": 92}, {"time": 122400, "pitch": 62, "duration": 10, "velocity": 80}, {"time": 122400, "pitch": 70, "duration": 10, "velocity": 80}, {"time": 122400, "pitch": 82, "duration": 10, "velocity": 30}, {"time": 122520, "pitch": 70, "duration": 10, "velocity": 56}, {"time": 122520, "pitch": 82, "duration": 10, "velocity": 20}, {"time": 122640, "pitch": 42, "duration": 10, "velocity": 78}, {"time": 122640, "pitch": 64, "duration": 10, "velocity": 56}, {"time": 122640, "pitch": 70, "duration": 10, "velocity": 64}, {"time": 122640, "pitch": 82, "duration": 10, "velocity": 80}, {"time": 122760, "pitch": 70, "duration": 10, "velocity": 56}, {"time": 122760, "pitch": 82, "duration": 10, "velocity": 20}, {"time": 122880, "pitch": 36, "duration": 10, "velocity": 106}, {"time": 122880, "pitch": 42, "duration": 10, "velocity": 92}, {"time": 122880, "pitch": 64, "duration": 10, "velocity": 64}, {"time": 122880, "pitch": 70, "duration": 10, "velocity": 64}, {"time": 122880, "pitch": 82, "duration": 10, "velocity": 30}, {"time": 123000, "pitch": 70, "duration": 10, "velocity": 56}, {"time": 123000, "pitch": 82, "duration": 10, "velocity": 20}, {"time": 123119, "pitch": 42, "duration": 10, "velocity": 78}, {"time": 123119, "pitch": 64, "duration": 10, "velocity": 56}, {"time": 123119, "pitch": 70, "duration": 10, "velocity": 64}, {"time": 123119, "pitch": 82, "duration": 10, "velocity": 80}, {"time": 123239, "pitch": 36, "duration": 10, "velocity": 106}, {"time": 123239, "pitch": 64, "duration": 10, "velocity": 40}, {"time": 123239, "pitch": 70, "duration": 10, "velocity": 56}, {"time": 123239, "pitch": 82, "duration": 10, "velocity": 20}, {"time": 123359, "pitch": 38, "duration": 10, "velocity": 106}, {"time": 123359, "pitch": 42, "duration": 10, "velocity": 92}, {"time": 123359, "pitch": 62, "duration": 10, "velocity": 80}, {"time": 123359, "pitch": 70, "duration": 10, "velocity": 80}, {"time": 123359, "pitch": 82, "duration": 10, "velocity": 30}, {"time": 123479, "pitch": 70, "duration": 10, "velocity": 56}, {"time": 123479, "pitch": 82, "duration": 10, "velocity": 20}, {"time": 123599, "pitch": 42, "duration": 10, "velocity": 78}, {"time": 123599, "pitch": 64, "duration": 10, "velocity": 56}, {"time": 123599, "pitch": 70, "duration": 10, "velocity": 64}, {"time": 123599, "pitch": 82, "duration": 10, "velocity": 80}, {"time": 123719, "pitch": 70, "duration": 10, "velocity": 56}, {"time": 123719, "pitch": 82, "duration": 10, "velocity": 20}, {"time": 123839, "pitch": 36, "duration": 10, "velocity": 106}, {"time": 123839, "pitch": 42, "duration": 10, "velocity": 92}, {"time": 123839, "pitch": 64, "duration": 10, "velocity": 64}, {"time": 123839, "pitch": 70, "duration": 10, "velocity": 64}, {"time": 123839, "pitch": 82, "duration": 10, "velocity": 30}, {"time": 123959, "pitch": 70, "duration": 10, "velocity": 56}, {"time": 123959, "pitch": 82, "duration": 10, "velocity": 20}, {"time": 124079, "pitch": 42, "duration": 10, "velocity": 78}, {"time": 124079, "pitch": 64, "duration": 10, "velocity": 56}, {"time": 124079, "pitch": 70, "duration": 10, "velocity": 64}, {"time": 124079, "pitch": 82, "duration": 10, "velocity": 80}, {"time": 124199, "pitch": 36, "duration": 10, "velocity": 106}, {"time": 124199, "pitch": 70, "duration": 10, "velocity": 56}, {"time": 124199, "pitch": 82, "duration": 10, "velocity": 20}, {"time": 124319, "pitch": 38, "duration": 10, "velocity": 106}, {"time": 124319, "pitch": 42, "duration": 10, "velocity": 92}, {"time": 124319, "pitch": 62, "duration": 10, "velocity": 80}, {"time": 124319, "pitch": 70, "duration": 10, "velocity": 80}, {"time": 124319, "pitch": 82, "duration": 10, "velocity": 30}, {"time": 124439, "pitch": 70, "duration": 10, "velocity": 56}, {"time": 124439, "pitch": 82, "duration": 10, "velocity": 20}, {"time": 124558, "pitch": 42, "duration": 10, "velocity": 78}, {"time": 124558, "pitch": 64, "duration": 10, "velocity": 56}, {"time": 124558, "pitch": 70, "duration": 10, "velocity": 64}, {"time": 124558, "pitch": 82, "duration": 10, "velocity": 80}, {"time": 124678, "pitch": 70, "duration": 10, "velocity": 56}, {"time": 124678, "pitch": 82, "duration": 10, "velocity": 20}, {"time": 124798, "pitch": 36, "duration": 10, "velocity": 106}, {"time": 124798, "pitch": 42, "duration": 10, "velocity": 92}, {"time": 124798, "pitch": 64, "duration": 10, "velocity": 64}, {"time": 124798, "pitch": 70, "duration": 10, "velocity": 64}, {"time": 124798, "pitch": 82, "duration": 10, "velocity": 30}, {"time": 124918, "pitch": 70, "duration": 10, "velocity": 56}, {"time": 124918, "pitch": 82, "duration": 10, "velocity": 20}, {"time": 125038, "pitch": 42, "duration": 10, "velocity": 78}, {"time": 125038, "pitch": 64, "duration": 10, "velocity": 56}, {"time": 125038, "pitch": 70, "duration": 10, "velocity": 64}, {"time": 125038, "pitch": 82, "duration": 10, "velocity": 80}, {"time": 125158, "pitch": 36, "duration": 10, "velocity": 106}, {"time": 125158, "pitch": 64, "duration": 10, "velocity": 40}, {"time": 125158, "pitch": 70, "duration": 10, "velocity": 56}, {"time": 125158, "pitch": 82, "duration": 10, "velocity": 20}, {"time": 125278, "pitch": 38, "duration": 10, "velocity": 106}, {"time": 125278, "pitch": 42, "duration": 10, "velocity": 92}, {"time": 125278, "pitch": 62, "duration": 10, "velocity": 80}, {"time": 125278, "pitch": 70, "duration": 10, "velocity": 80}, {"time": 125278, "pitch": 82, "duration": 10, "velocity": 30}, {"time": 125398, "pitch": 70, "duration": 10, "velocity": 56}, {"time": 125398, "pitch": 82, "duration": 10, "velocity": 20}, {"time": 125518, "pitch": 42, "duration": 10, "velocity": 78}, {"time": 125518, "pitch": 64, "duration": 10, "velocity": 56}, {"time": 125518, "pitch": 70, "duration": 10, "velocity": 64}, {"time": 125518, "pitch": 82, "duration": 10, "velocity": 80}, {"time": 125638, "pitch": 70, "duration": 10, "velocity": 56}, {"time": 125638, "pitch": 82, "duration": 10, "velocity": 20}, {"time": 125758, "pitch": 36, "duration": 10, "velocity": 106}, {"time": 125758, "pitch": 42, "duration": 10, "velocity": 92}, {"time": 125758, "pitch": 64, "duration": 10, "velocity": 64}, {"time": 125758, "pitch": 70, "duration": 10, "velocity": 64}, {"time": 125758, "pitch": 82, "duration": 10, "velocity": 30}, {"time": 125877, "pitch": 70, "duration": 10, "velocity": 56}, {"time": 125877, "pitch": 82, "duration": 10, "velocity": 20}, {"time": 125997, "pitch": 42, "duration": 10, "velocity": 78}, {"time": 125997, "pitch": 64, "duration": 10, "velocity": 56}, {"time": 125997, "pitch": 70, "duration": 10, "velocity": 64}, {"time": 125997, "pitch": 82, "duration": 10, "velocity": 80}, {"time": 126117, "pitch": 70, "duration": 10, "velocity": 56}, {"time": 126117, "pitch": 82, "duration": 10, "velocity": 20}, {"time": 126237, "pitch": 38, "duration": 10, "velocity": 106}, {"time": 126237, "pitch": 42, "duration": 10, "velocity": 92}, {"time": 126237, "pitch": 62, "duration": 10, "velocity": 80}, {"time": 126237, "pitch": 70, "duration": 10, "velocity": 80}, {"time": 126237, "pitch": 82, "duration": 10, "velocity": 30}, {"time": 126359, "pitch": 70, "duration": 10, "velocity": 56}, {"time": 126359, "pitch": 82, "duration": 10, "velocity": 20}, {"time": 126480, "pitch": 42, "duration": 10, "velocity": 78}, {"time": 126480, "pitch": 64, "duration": 10, "velocity": 56}, {"time": 126480, "pitch": 70, "duration": 10, "velocity": 64}, {"time": 126480, "pitch": 82, "duration": 10, "velocity": 80}, {"time": 126602, "pitch": 70, "duration": 10, "velocity": 56}, {"time": 126602, "pitch": 82, "duration": 10, "velocity": 20}, {"time": 126723, "pitch": 36, "duration": 10, "velocity": 106}, {"time": 126723, "pitch": 42, "duration": 10, "velocity": 92}, {"time": 126723, "pitch": 64, "duration": 10, "velocity": 64}, {"time": 126723, "pitch": 70, "duration": 10, "velocity": 64}, {"time": 126723, "pitch": 82, "duration": 10, "velocity": 30}, {"time": 126843, "pitch": 70, "duration": 10, "velocity": 56}, {"time": 126843, "pitch": 82, "duration": 10, "velocity": 20}, {"time": 126963, "pitch": 42, "duration": 10, "velocity": 78}, {"time": 126963, "pitch": 64, "duration": 10, "velocity": 56}, {"time": 126963, "pitch": 70, "duration": 10, "velocity": 64}, {"time": 126963, "pitch": 82, "duration": 10, "velocity": 80}, {"time": 127083, "pitch": 36, "duration": 10, "velocity": 106}, {"time": 127083, "pitch": 64, "duration": 10, "velocity": 40}, {"time": 127083, "pitch": 70, "duration": 10, "velocity": 56}, {"time": 127083, "pitch": 82, "duration": 10, "velocity": 20}, {"time": 127203, "pitch": 38, "duration": 10, "velocity": 106}, {"time": 127203, "pitch": 42, "duration": 10, "velocity": 92}, {"time": 127203, "pitch": 62, "duration": 10, "velocity": 80}, {"time": 127203, "pitch": 70, "duration": 10, "velocity": 80}, {"time": 127203, "pitch": 82, "duration": 10, "velocity": 30}, {"time": 127322, "pitch": 70, "duration": 10, "velocity": 56}, {"time": 127322, "pitch": 82, "duration": 10, "velocity": 20}, {"time": 127442, "pitch": 42, "duration": 10, "velocity": 78}, {"time": 127442, "pitch": 64, "duration": 10, "velocity": 56}, {"time": 127442, "pitch": 70, "duration": 10, "velocity": 64}, {"time": 127442, "pitch": 82, "duration": 10, "velocity": 80}, {"time": 127562, "pitch": 70, "duration": 10, "velocity": 56}, {"time": 127562, "pitch": 82, "duration": 10, "velocity": 20}, {"time": 127682, "pitch": 36, "duration": 10, "velocity": 106}, {"time": 127682, "pitch": 42, "duration": 10, "velocity": 92}, {"time": 127682, "pitch": 64, "duration": 10, "velocity": 64}, {"time": 127682, "pitch": 70, "duration": 10, "velocity": 64}, {"time": 127682, "pitch": 82, "duration": 10, "velocity": 30}, {"time": 127802, "pitch": 70, "duration": 10, "velocity": 56}, {"time": 127802, "pitch": 82, "duration": 10, "velocity": 20}, {"time": 127922, "pitch": 42, "duration": 10, "velocity": 78}, {"time": 127922, "pitch": 64, "duration": 10, "velocity": 56}, {"time": 127922, "pitch": 70, "duration": 10, "velocity": 64}, {"time": 127922, "pitch": 82, "duration": 10, "velocity": 80}, {"time": 128042, "pitch": 36, "duration": 10, "velocity": 106}, {"time": 128042, "pitch": 70, "duration": 10, "velocity": 56}, {"time": 128042, "pitch": 82, "duration": 10, "velocity": 20}, {"time": 128162, "pitch": 38, "duration": 10, "velocity": 106}, {"time": 128162, "pitch": 42, "duration": 10, "velocity": 92}, {"time": 128162, "pitch": 62, "duration": 10, "velocity": 80}, {"time": 128162, "pitch": 70, "duration": 10, "velocity": 80}, {"time": 128162, "pitch": 82, "duration": 10, "velocity": 30}, {"time": 128282, "pitch": 70, "duration": 10, "velocity": 56}, {"time": 128282, "pitch": 82, "duration": 10, "velocity": 20}, {"time": 128402, "pitch": 42, "duration": 10, "velocity": 78}, {"time": 128402, "pitch": 64, "duration": 10, "velocity": 56}, {"time": 128402, "pitch": 70, "duration": 10, "velocity": 64}, {"time": 128402, "pitch": 82, "duration": 10, "velocity": 80}, {"time": 128522, "pitch": 70, "duration": 10, "velocity": 56}, {"time": 128522, "pitch": 82, "duration": 10, "velocity": 20}, {"time": 128642, "pitch": 36, "duration": 10, "velocity": 106}, {"time": 128642, "pitch": 42, "duration": 10, "velocity": 92}, {"time": 128642, "pitch": 64, "duration": 10, "velocity": 64}, {"time": 128642, "pitch": 70, "duration": 10, "velocity": 64}, {"time": 128642, "pitch": 82, "duration": 10, "velocity": 30}, {"time": 128761, "pitch": 70, "duration": 10, "velocity": 56}, {"time": 128761, "pitch": 82, "duration": 10, "velocity": 20}, {"time": 128881, "pitch": 42, "duration": 10, "velocity": 78}, {"time": 128881, "pitch": 64, "duration": 10, "velocity": 56}, {"time": 128881, "pitch": 70, "duration": 10, "velocity": 64}, {"time": 128881, "pitch": 82, "duration": 10, "velocity": 80}, {"time": 129001, "pitch": 36, "duration": 10, "velocity": 106}, {"time": 129001, "pitch": 64, "duration": 10, "velocity": 40}, {"time": 129001, "pitch": 70, "duration": 10, "velocity": 56}, {"time": 129001, "pitch": 82, "duration": 10, "velocity": 20}, {"time": 129121, "pitch": 38, "duration": 10, "velocity": 106}, {"time": 129121, "pitch": 42, "duration": 10, "velocity": 92}, {"time": 129121, "pitch": 62, "duration": 10, "velocity": 80}, {"time": 129121, "pitch": 70, "duration": 10, "velocity": 80}, {"time": 129121, "pitch": 82, "duration": 10, "velocity": 30}, {"time": 129241, "pitch": 70, "duration": 10, "velocity": 56}, {"time": 129241, "pitch": 82, "duration": 10, "velocity": 20}, {"time": 129361, "pitch": 42, "duration": 10, "velocity": 78}, {"time": 129361, "pitch": 64, "duration": 10, "velocity": 56}, {"time": 129361, "pitch": 70, "duration": 10, "velocity": 64}, {"time": 129361, "pitch": 82, "duration": 10, "velocity": 80}, {"time": 129481, "pitch": 70, "duration": 10, "velocity": 56}, {"time": 129481, "pitch": 82, "duration": 10, "velocity": 20}, {"time": 129601, "pitch": 36, "duration": 10, "velocity": 106}, {"time": 129601, "pitch": 42, "duration": 10, "velocity": 92}, {"time": 129601, "pitch": 64, "duration": 10, "velocity": 64}, {"time": 129601, "pitch": 70, "duration": 10, "velocity": 64}, {"time": 129601, "pitch": 82, "duration": 10, "velocity": 30}, {"time": 129721, "pitch": 70, "duration": 10, "velocity": 56}, {"time": 129721, "pitch": 82, "duration": 10, "velocity": 20}, {"time": 129841, "pitch": 42, "duration": 10, "velocity": 78}, {"time": 129841, "pitch": 64, "duration": 10, "velocity": 56}, {"time": 129841, "pitch": 70, "duration": 10, "velocity": 64}, {"time": 129841, "pitch": 82, "duration": 10, "velocity": 80}, {"time": 129961, "pitch": 70, "duration": 10, "velocity": 56}, {"time": 129961, "pitch": 82, "duration": 10, "velocity": 20}, {"time": 130080, "pitch": 38, "duration": 10, "velocity": 106}, {"time": 130080, "pitch": 42, "duration": 10, "velocity": 92}, {"time": 130080, "pitch": 62, "duration": 10, "velocity": 80}, {"time": 130080, "pitch": 70, "duration": 10, "velocity": 80}, {"time": 130080, "pitch": 82, "duration": 10, "velocity": 30}, {"time": 130200, "pitch": 70, "duration": 10, "velocity": 56}, {"time": 130200, "pitch": 82, "duration": 10, "velocity": 20}, {"time": 130320, "pitch": 42, "duration": 10, "velocity": 78}, {"time": 130320, "pitch": 64, "duration": 10, "velocity": 56}, {"time": 130320, "pitch": 70, "duration": 10, "velocity": 64}, {"time": 130320, "pitch": 82, "duration": 10, "velocity": 80}, {"time": 130440, "pitch": 70, "duration": 10, "velocity": 56}, {"time": 130440, "pitch": 82, "duration": 10, "velocity": 20}, {"time": 130560, "pitch": 36, "duration": 10, "velocity": 106}, {"time": 130560, "pitch": 42, "duration": 10, "velocity": 92}, {"time": 130560, "pitch": 64, "duration": 10, "velocity": 64}, {"time": 130560, "pitch": 70, "duration": 10, "velocity": 64}, {"time": 130560, "pitch": 82, "duration": 10, "velocity": 30}, {"time": 130680, "pitch": 70, "duration": 10, "velocity": 56}, {"time": 130680, "pitch": 82, "duration": 10, "velocity": 20}, {"time": 130800, "pitch": 42, "duration": 10, "velocity": 78}, {"time": 130800, "pitch": 64, "duration": 10, "velocity": 56}, {"time": 130800, "pitch": 70, "duration": 10, "velocity": 64}, {"time": 130800, "pitch": 82, "duration": 10, "velocity": 80}, {"time": 130920, "pitch": 36, "duration": 10, "velocity": 106}, {"time": 130920, "pitch": 64, "duration": 10, "velocity": 40}, {"time": 130920, "pitch": 70, "duration": 10, "velocity": 56}, {"time": 130920, "pitch": 82, "duration": 10, "velocity": 20}, {"time": 131040, "pitch": 38, "duration": 10, "velocity": 106}, {"time": 131040, "pitch": 42, "duration": 10, "velocity": 92}, {"time": 131040, "pitch": 62, "duration": 10, "velocity": 80}, {"time": 131040, "pitch": 70, "duration": 10, "velocity": 80}, {"time": 131040, "pitch": 82, "duration": 10, "velocity": 30}, {"time": 131160, "pitch": 70, "duration": 10, "velocity": 56}, {"time": 131160, "pitch": 82, "duration": 10, "velocity": 20}, {"time": 131280, "pitch": 42, "duration": 10, "velocity": 78}, {"time": 131280, "pitch": 64, "duration": 10, "velocity": 56}, {"time": 131280, "pitch": 70, "duration": 10, "velocity": 64}, {"time": 131280, "pitch": 82, "duration": 10, "velocity": 80}, {"time": 131400, "pitch": 70, "duration": 9, "velocity": 56}, {"time": 131400, "pitch": 82, "duration": 9, "velocity": 20}, {"time": 131519, "pitch": 36, "duration": 10, "velocity": 106}, {"time": 131519, "pitch": 42, "duration": 10, "velocity": 92}, {"time": 131519, "pitch": 64, "duration": 10, "velocity": 64}, {"time": 131519, "pitch": 70, "duration": 10, "velocity": 64}, {"time": 131519, "pitch": 82, "duration": 10, "velocity": 30}, {"time": 131639, "pitch": 70, "duration": 10, "velocity": 56}, {"time": 131639, "pitch": 82, "duration": 10, "velocity": 20}, {"time": 131759, "pitch": 42, "duration": 10, "velocity": 78}, {"time": 131759, "pitch": 64, "duration": 10, "velocity": 56}, {"time": 131759, "pitch": 70, "duration": 10, "velocity": 64}, {"time": 131759, "pitch": 82, "duration": 10, "velocity": 80}, {"time": 131879, "pitch": 36, "duration": 10, "velocity": 106}, {"time": 131879, "pitch": 70, "duration": 10, "velocity": 56}, {"time": 131879, "pitch": 82, "duration": 10, "velocity": 20}, {"time": 131999, "pitch": 38, "duration": 10, "velocity": 106}, {"time": 131999, "pitch": 42, "duration": 10, "velocity": 92}, {"time": 131999, "pitch": 62, "duration": 10, "velocity": 80}, {"time": 131999, "pitch": 70, "duration": 10, "velocity": 80}, {"time": 131999, "pitch": 82, "duration": 10, "velocity": 30}, {"time": 132119, "pitch": 70, "duration": 10, "velocity": 56}, {"time": 132119, "pitch": 82, "duration": 10, "velocity": 20}, {"time": 132239, "pitch": 42, "duration": 10, "velocity": 78}, {"time": 132239, "pitch": 64, "duration": 10, "velocity": 56}, {"time": 132239, "pitch": 70, "duration": 10, "velocity": 64}, {"time": 132239, "pitch": 82, "duration": 10, "velocity": 80}, {"time": 132359, "pitch": 70, "duration": 10, "velocity": 56}, {"time": 132359, "pitch": 82, "duration": 10, "velocity": 20}, {"time": 132479, "pitch": 36, "duration": 10, "velocity": 106}, {"time": 132479, "pitch": 42, "duration": 10, "velocity": 92}, {"time": 132479, "pitch": 64, "duration": 10, "velocity": 64}, {"time": 132479, "pitch": 70, "duration": 10, "velocity": 64}, {"time": 132479, "pitch": 82, "duration": 10, "velocity": 30}, {"time": 132599, "pitch": 70, "duration": 10, "velocity": 56}, {"time": 132599, "pitch": 82, "duration": 10, "velocity": 20}, {"time": 132719, "pitch": 42, "duration": 10, "velocity": 78}, {"time": 132719, "pitch": 64, "duration": 10, "velocity": 56}, {"time": 132719, "pitch": 70, "duration": 10, "velocity": 64}, {"time": 132719, "pitch": 82, "duration": 10, "velocity": 80}, {"time": 132838, "pitch": 36, "duration": 10, "velocity": 106}, {"time": 132838, "pitch": 64, "duration": 10, "velocity": 40}, {"time": 132838, "pitch": 70, "duration": 10, "velocity": 56}, {"time": 132838, "pitch": 82, "duration": 10, "velocity": 20}, {"time": 132958, "pitch": 38, "duration": 10, "velocity": 106}, {"time": 132958, "pitch": 42, "duration": 10, "velocity": 92}, {"time": 132958, "pitch": 62, "duration": 10, "velocity": 80}, {"time": 132958, "pitch": 70, "duration": 10, "velocity": 80}, {"time": 132958, "pitch": 82, "duration": 10, "velocity": 30}, {"time": 133078, "pitch": 70, "duration": 10, "velocity": 56}, {"time": 133078, "pitch": 82, "duration": 10, "velocity": 20}, {"time": 133198, "pitch": 42, "duration": 10, "velocity": 78}, {"time": 133198, "pitch": 64, "duration": 10, "velocity": 56}, {"time": 133198, "pitch": 70, "duration": 10, "velocity": 64}, {"time": 133198, "pitch": 82, "duration": 10, "velocity": 80}, {"time": 133318, "pitch": 70, "duration": 10, "velocity": 56}, {"time": 133318, "pitch": 82, "duration": 10, "velocity": 20}, {"time": 133438, "pitch": 36, "duration": 10, "velocity": 106}, {"time": 133438, "pitch": 42, "duration": 10, "velocity": 92}, {"time": 133438, "pitch": 64, "duration": 10, "velocity": 64}, {"time": 133438, "pitch": 70, "duration": 10, "velocity": 64}, {"time": 133438, "pitch": 82, "duration": 10, "velocity": 30}, {"time": 133558, "pitch": 70, "duration": 10, "velocity": 56}, {"time": 133558, "pitch": 82, "duration": 10, "velocity": 20}, {"time": 133678, "pitch": 42, "duration": 10, "velocity": 78}, {"time": 133678, "pitch": 64, "duration": 10, "velocity": 56}, {"time": 133678, "pitch": 70, "duration": 10, "velocity": 64}, {"time": 133678, "pitch": 82, "duration": 10, "velocity": 80}, {"time": 133798, "pitch": 70, "duration": 10, "velocity": 56}, {"time": 133798, "pitch": 82, "duration": 10, "velocity": 20}, {"time": 133918, "pitch": 38, "duration": 10, "velocity": 106}, {"time": 133918, "pitch": 42, "duration": 10, "velocity": 92}, {"time": 133918, "pitch": 62, "duration": 10, "velocity": 80}, {"time": 133918, "pitch": 70, "duration": 10, "velocity": 80}, {"time": 133918, "pitch": 82, "duration": 10, "velocity": 30}, {"time": 134038, "pitch": 70, "duration": 10, "velocity": 56}, {"time": 134038, "pitch": 82, "duration": 10, "velocity": 20}, {"time": 134157, "pitch": 42, "duration": 10, "velocity": 78}, {"time": 134157, "pitch": 64, "duration": 10, "velocity": 56}, {"time": 134157, "pitch": 70, "duration": 10, "velocity": 64}, {"time": 134157, "pitch": 82, "duration": 10, "velocity": 80}, {"time": 134277, "pitch": 70, "duration": 10, "velocity": 56}, {"time": 134277, "pitch": 82, "duration": 10, "velocity": 20}, {"time": 134397, "pitch": 36, "duration": 10, "velocity": 106}, {"time": 134397, "pitch": 42, "duration": 10, "velocity": 92}, {"time": 134397, "pitch": 64, "duration": 10, "velocity": 64}, {"time": 134397, "pitch": 70, "duration": 10, "velocity": 64}, {"time": 134397, "pitch": 82, "duration": 10, "velocity": 30}, {"time": 134519, "pitch": 70, "duration": 10, "velocity": 56}, {"time": 134519, "pitch": 82, "duration": 10, "velocity": 20}, {"time": 134640, "pitch": 42, "duration": 10, "velocity": 78}, {"time": 134640, "pitch": 64, "duration": 10, "velocity": 56}, {"time": 134640, "pitch": 70, "duration": 10, "velocity": 64}, {"time": 134640, "pitch": 82, "duration": 10, "velocity": 80}, {"time": 134762, "pitch": 36, "duration": 10, "velocity": 106}, {"time": 134762, "pitch": 64, "duration": 10, "velocity": 40}, {"time": 134762, "pitch": 70, "duration": 10, "velocity": 56}, {"time": 134762, "pitch": 82, "duration": 10, "velocity": 20}, {"time": 134883, "pitch": 38, "duration": 10, "velocity": 106}, {"time": 134883, "pitch": 42, "duration": 10, "velocity": 92}, {"time": 134883, "pitch": 62, "duration": 10, "velocity": 80}, {"time": 134883, "pitch": 70, "duration": 10, "velocity": 80}, {"time": 134883, "pitch": 82, "duration": 10, "velocity": 30}, {"time": 135003, "pitch": 70, "duration": 10, "velocity": 56}, {"time": 135003, "pitch": 82, "duration": 10, "velocity": 20}, {"time": 135123, "pitch": 42, "duration": 10, "velocity": 78}, {"time": 135123, "pitch": 64, "duration": 10, "velocity": 56}, {"time": 135123, "pitch": 70, "duration": 10, "velocity": 64}, {"time": 135123, "pitch": 82, "duration": 10, "velocity": 80}, {"time": 135243, "pitch": 70, "duration": 10, "velocity": 56}, {"time": 135243, "pitch": 82, "duration": 10, "velocity": 20}, {"time": 135363, "pitch": 36, "duration": 10, "velocity": 106}, {"time": 135363, "pitch": 42, "duration": 10, "velocity": 92}, {"time": 135363, "pitch": 64, "duration": 10, "velocity": 64}, {"time": 135363, "pitch": 70, "duration": 10, "velocity": 64}, {"time": 135363, "pitch": 82, "duration": 10, "velocity": 30}, {"time": 135483, "pitch": 70, "duration": 10, "velocity": 56}, {"time": 135483, "pitch": 82, "duration": 10, "velocity": 20}, {"time": 135603, "pitch": 42, "duration": 9, "velocity": 78}, {"time": 135603, "pitch": 64, "duration": 9, "velocity": 56}, {"time": 135603, "pitch": 70, "duration": 9, "velocity": 64}, {"time": 135603, "pitch": 82, "duration": 9, "velocity": 80}, {"time": 135722, "pitch": 36, "duration": 10, "velocity": 106}, {"time": 135722, "pitch": 70, "duration": 10, "velocity": 56}, {"time": 135722, "pitch": 82, "duration": 10, "velocity": 20}, {"time": 135842, "pitch": 38, "duration": 10, "velocity": 106}, {"time": 135842, "pitch": 42, "duration": 10, "velocity": 92}, {"time": 135842, "pitch": 62, "duration": 10, "velocity": 80}, {"time": 135842, "pitch": 70, "duration": 10, "velocity": 80}, {"time": 135842, "pitch": 82, "duration": 10, "velocity": 30}, {"time": 135962, "pitch": 70, "duration": 10, "velocity": 56}, {"time": 135962, "pitch": 82, "duration": 10, "velocity": 20}, {"time": 136082, "pitch": 42, "duration": 10, "velocity": 78}, {"time": 136082, "pitch": 64, "duration": 10, "velocity": 56}, {"time": 136082, "pitch": 70, "duration": 10, "velocity": 64}, {"time": 136082, "pitch": 82, "duration": 10, "velocity": 80}, {"time": 136202, "pitch": 70, "duration": 10, "velocity": 56}, {"time": 136202, "pitch": 82, "duration": 10, "velocity": 20}, {"time": 136322, "pitch": 36, "duration": 10, "velocity": 106}, {"time": 136322, "pitch": 42, "duration": 10, "velocity": 92}, {"time": 136322, "pitch": 64, "duration": 10, "velocity": 64}, {"time": 136322, "pitch": 70, "duration": 10, "velocity": 64}, {"time": 136322, "pitch": 82, "duration": 10, "velocity": 30}, {"time": 136442, "pitch": 70, "duration": 10, "velocity": 56}, {"time": 136442, "pitch": 82, "duration": 10, "velocity": 20}, {"time": 136562, "pitch": 42, "duration": 10, "velocity": 78}, {"time": 136562, "pitch": 64, "duration": 10, "velocity": 56}, {"time": 136562, "pitch": 70, "duration": 10, "velocity": 64}, {"time": 136562, "pitch": 82, "duration": 10, "velocity": 80}, {"time": 136682, "pitch": 36, "duration": 10, "velocity": 106}, {"time": 136682, "pitch": 64, "duration": 10, "velocity": 40}, {"time": 136682, "pitch": 70, "duration": 10, "velocity": 56}, {"time": 136682, "pitch": 82, "duration": 10, "velocity": 20}, {"time": 136802, "pitch": 38, "duration": 10, "velocity": 106}, {"time": 136802, "pitch": 42, "duration": 10, "velocity": 92}, {"time": 136802, "pitch": 62, "duration": 10, "velocity": 80}, {"time": 136802, "pitch": 70, "duration": 10, "velocity": 80}, {"time": 136802, "pitch": 82, "duration": 10, "velocity": 30}, {"time": 136922, "pitch": 70, "duration": 10, "velocity": 56}, {"time": 136922, "pitch": 82, "duration": 10, "velocity": 20}, {"time": 137041, "pitch": 42, "duration": 10, "velocity": 78}, {"time": 137041, "pitch": 64, "duration": 10, "velocity": 56}, {"time": 137041, "pitch": 70, "duration": 10, "velocity": 64}, {"time": 137041, "pitch": 82, "duration": 10, "velocity": 80}, {"time": 137161, "pitch": 70, "duration": 10, "velocity": 56}, {"time": 137161, "pitch": 82, "duration": 10, "velocity": 20}, {"time": 137281, "pitch": 36, "duration": 10, "velocity": 106}, {"time": 137281, "pitch": 42, "duration": 10, "velocity": 92}, {"time": 137281, "pitch": 64, "duration": 10, "velocity": 64}, {"time": 137281, "pitch": 70, "duration": 10, "velocity": 64}, {"time": 137281, "pitch": 82, "duration": 10, "velocity": 30}, {"time": 137401, "pitch": 70, "duration": 10, "velocity": 56}, {"time": 137401, "pitch": 82, "duration": 10, "velocity": 20}, {"time": 137521, "pitch": 42, "duration": 10, "velocity": 78}, {"time": 137521, "pitch": 64, "duration": 10, "velocity": 56}, {"time": 137521, "pitch": 70, "duration": 10, "velocity": 64}, {"time": 137521, "pitch": 82, "duration": 10, "velocity": 80}, {"time": 137641, "pitch": 70, "duration": 10, "velocity": 56}, {"time": 137641, "pitch": 82, "duration": 10, "velocity": 20}, {"time": 137761, "pitch": 38, "duration": 10, "velocity": 106}, {"time": 137761, "pitch": 42, "duration": 10, "velocity": 92}, {"time": 137761, "pitch": 62, "duration": 10, "velocity": 80}, {"time": 137761, "pitch": 70, "duration": 10, "velocity": 80}, {"time": 137761, "pitch": 82, "duration": 10, "velocity": 30}, {"time": 137881, "pitch": 70, "duration": 10, "velocity": 56}, {"time": 137881, "pitch": 82, "duration": 10, "velocity": 20}, {"time": 138001, "pitch": 42, "duration": 10, "velocity": 78}, {"time": 138001, "pitch": 64, "duration": 10, "velocity": 56}, {"time": 138001, "pitch": 70, "duration": 10, "velocity": 64}, {"time": 138001, "pitch": 82, "duration": 10, "velocity": 80}, {"time": 138121, "pitch": 70, "duration": 10, "velocity": 56}, {"time": 138121, "pitch": 82, "duration": 10, "velocity": 20}, {"time": 138241, "pitch": 36, "duration": 10, "velocity": 106}, {"time": 138241, "pitch": 42, "duration": 10, "velocity": 92}, {"time": 138241, "pitch": 64, "duration": 10, "velocity": 64}, {"time": 138241, "pitch": 70, "duration": 10, "velocity": 64}, {"time": 138241, "pitch": 82, "duration": 10, "velocity": 30}, {"time": 138360, "pitch": 70, "duration": 10, "velocity": 56}, {"time": 138360, "pitch": 82, "duration": 10, "velocity": 20}, {"time": 138480, "pitch": 42, "duration": 10, "velocity": 78}, {"time": 138480, "pitch": 64, "duration": 10, "velocity": 56}, {"time": 138480, "pitch": 70, "duration": 10, "velocity": 64}, {"time": 138480, "pitch": 82, "duration": 10, "velocity": 80}, {"time": 138600, "pitch": 36, "duration": 10, "velocity": 106}, {"time": 138600, "pitch": 64, "duration": 10, "velocity": 40}, {"time": 138600, "pitch": 70, "duration": 10, "velocity": 56}, {"time": 138600, "pitch": 82, "duration": 10, "velocity": 20}, {"time": 138720, "pitch": 38, "duration": 10, "velocity": 106}, {"time": 138720, "pitch": 42, "duration": 10, "velocity": 92}, {"time": 138720, "pitch": 62, "duration": 10, "velocity": 80}, {"time": 138720, "pitch": 70, "duration": 10, "velocity": 80}, {"time": 138720, "pitch": 82, "duration": 10, "velocity": 30}, {"time": 138840, "pitch": 70, "duration": 10, "velocity": 56}, {"time": 138840, "pitch": 82, "duration": 10, "velocity": 20}, {"time": 138960, "pitch": 42, "duration": 10, "velocity": 78}, {"time": 138960, "pitch": 64, "duration": 10, "velocity": 56}, {"time": 138960, "pitch": 70, "duration": 10, "velocity": 64}, {"time": 138960, "pitch": 82, "duration": 10, "velocity": 80}, {"time": 139080, "pitch": 70, "duration": 10, "velocity": 56}, {"time": 139080, "pitch": 82, "duration": 10, "velocity": 20}, {"time": 139200, "pitch": 36, "duration": 10, "velocity": 106}, {"time": 139200, "pitch": 42, "duration": 10, "velocity": 92}, {"time": 139200, "pitch": 64, "duration": 10, "velocity": 64}, {"time": 139200, "pitch": 70, "duration": 10, "velocity": 64}, {"time": 139200, "pitch": 82, "duration": 10, "velocity": 30}, {"time": 139320, "pitch": 70, "duration": 10, "velocity": 56}, {"time": 139320, "pitch": 82, "duration": 10, "velocity": 20}, {"time": 139440, "pitch": 42, "duration": 10, "velocity": 78}, {"time": 139440, "pitch": 64, "duration": 10, "velocity": 56}, {"time": 139440, "pitch": 70, "duration": 10, "velocity": 64}, {"time": 139440, "pitch": 82, "duration": 10, "velocity": 80}, {"time": 139560, "pitch": 36, "duration": 10, "velocity": 106}, {"time": 139560, "pitch": 70, "duration": 10, "velocity": 56}, {"time": 139560, "pitch": 82, "duration": 10, "velocity": 20}, {"time": 139680, "pitch": 38, "duration": 10, "velocity": 106}, {"time": 139680, "pitch": 42, "duration": 10, "velocity": 92}, {"time": 139680, "pitch": 62, "duration": 10, "velocity": 80}, {"time": 139680, "pitch": 70, "duration": 10, "velocity": 80}, {"time": 139680, "pitch": 82, "duration": 10, "velocity": 30}, {"time": 139799, "pitch": 70, "duration": 10, "velocity": 56}, {"time": 139799, "pitch": 82, "duration": 10, "velocity": 20}, {"time": 139919, "pitch": 42, "duration": 10, "velocity": 78}, {"time": 139919, "pitch": 64, "duration": 10, "velocity": 56}, {"time": 139919, "pitch": 70, "duration": 10, "velocity": 64}, {"time": 139919, "pitch": 82, "duration": 10, "velocity": 80}, {"time": 140039, "pitch": 40, "duration": 10, "velocity": 20}, {"time": 140039, "pitch": 70, "duration": 10, "velocity": 56}, {"time": 140039, "pitch": 82, "duration": 10, "velocity": 20}, {"time": 140079, "pitch": 40, "duration": 10, "velocity": 30}, {"time": 140119, "pitch": 40, "duration": 10, "velocity": 40}, {"time": 140159, "pitch": 36, "duration": 10, "velocity": 106}, {"time": 140159, "pitch": 42, "duration": 10, "velocity": 92}, {"time": 140159, "pitch": 64, "duration": 10, "velocity": 64}, {"time": 140159, "pitch": 70, "duration": 10, "velocity": 64}, {"time": 140159, "pitch": 82, "duration": 10, "velocity": 30}, {"time": 140279, "pitch": 70, "duration": 10, "velocity": 56}, {"time": 140279, "pitch": 82, "duration": 10, "velocity": 20}, {"time": 140399, "pitch": 42, "duration": 10, "velocity": 78}, {"time": 140399, "pitch": 64, "duration": 10, "velocity": 56}, {"time": 140399, "pitch": 70, "duration": 10, "velocity": 64}, {"time": 140399, "pitch": 82, "duration": 10, "velocity": 80}, {"time": 140519, "pitch": 36, "duration": 10, "velocity": 106}, {"time": 140519, "pitch": 64, "duration": 10, "velocity": 40}, {"time": 140519, "pitch": 70, "duration": 10, "velocity": 56}, {"time": 140519, "pitch": 82, "duration": 10, "velocity": 20}, {"time": 140639, "pitch": 38, "duration": 10, "velocity": 106}, {"time": 140639, "pitch": 42, "duration": 10, "velocity": 92}, {"time": 140639, "pitch": 62, "duration": 10, "velocity": 80}, {"time": 140639, "pitch": 70, "duration": 10, "velocity": 80}, {"time": 140639, "pitch": 82, "duration": 10, "velocity": 30}, {"time": 140759, "pitch": 70, "duration": 10, "velocity": 56}, {"time": 140759, "pitch": 82, "duration": 10, "velocity": 20}, {"time": 140879, "pitch": 36, "duration": 10, "velocity": 106}, {"time": 140879, "pitch": 42, "duration": 10, "velocity": 78}, {"time": 140879, "pitch": 64, "duration": 10, "velocity": 56}, {"time": 140879, "pitch": 70, "duration": 10, "velocity": 64}, {"time": 140879, "pitch": 82, "duration": 10, "velocity": 80}, {"time": 140999, "pitch": 70, "duration": 10, "velocity": 56}, {"time": 140999, "pitch": 82, "duration": 10, "velocity": 20}, {"time": 141118, "pitch": 36, "duration": 10, "velocity": 106}, {"time": 141118, "pitch": 42, "duration": 10, "velocity": 92}, {"time": 141118, "pitch": 64, "duration": 10, "velocity": 64}, {"time": 141118, "pitch": 70, "duration": 10, "velocity": 64}, {"time": 141118, "pitch": 82, "duration": 10, "velocity": 30}, {"time": 141238, "pitch": 70, "duration": 10, "velocity": 56}, {"time": 141238, "pitch": 82, "duration": 10, "velocity": 20}, {"time": 141358, "pitch": 42, "duration": 10, "velocity": 78}, {"time": 141358, "pitch": 64, "duration": 10, "velocity": 56}, {"time": 141358, "pitch": 70, "duration": 10, "velocity": 64}, {"time": 141358, "pitch": 82, "duration": 10, "velocity": 80}, {"time": 141478, "pitch": 70, "duration": 10, "velocity": 56}, {"time": 141478, "pitch": 82, "duration": 10, "velocity": 20}, {"time": 141598, "pitch": 36, "duration": 10, "velocity": 106}, {"time": 141598, "pitch": 38, "duration": 10, "velocity": 106}, {"time": 141598, "pitch": 42, "duration": 10, "velocity": 92}, {"time": 141598, "pitch": 62, "duration": 10, "velocity": 80}, {"time": 141598, "pitch": 70, "duration": 10, "velocity": 80}, {"time": 141598, "pitch": 82, "duration": 10, "velocity": 30}, {"time": 141718, "pitch": 70, "duration": 10, "velocity": 56}, {"time": 141718, "pitch": 82, "duration": 10, "velocity": 20}, {"time": 141838, "pitch": 42, "duration": 10, "velocity": 78}, {"time": 141838, "pitch": 64, "duration": 10, "velocity": 56}, {"time": 141838, "pitch": 70, "duration": 10, "velocity": 64}, {"time": 141838, "pitch": 82, "duration": 10, "velocity": 80}, {"time": 141958, "pitch": 70, "duration": 10, "velocity": 56}, {"time": 141958, "pitch": 82, "duration": 10, "velocity": 20}, {"time": 142078, "pitch": 36, "duration": 10, "velocity": 106}, {"time": 142078, "pitch": 42, "duration": 10, "velocity": 92}, {"time": 142078, "pitch": 64, "duration": 10, "velocity": 64}, {"time": 142078, "pitch": 70, "duration": 10, "velocity": 64}, {"time": 142078, "pitch": 82, "duration": 10, "velocity": 30}, {"time": 142198, "pitch": 70, "duration": 10, "velocity": 56}, {"time": 142198, "pitch": 82, "duration": 10, "velocity": 20}, {"time": 142318, "pitch": 42, "duration": 10, "velocity": 78}, {"time": 142318, "pitch": 64, "duration": 10, "velocity": 56}, {"time": 142318, "pitch": 70, "duration": 10, "velocity": 64}, {"time": 142318, "pitch": 82, "duration": 10, "velocity": 80}, {"time": 142437, "pitch": 64, "duration": 10, "velocity": 40}, {"time": 142437, "pitch": 70, "duration": 10, "velocity": 56}, {"time": 142437, "pitch": 82, "duration": 10, "velocity": 20}, {"time": 142557, "pitch": 36, "duration": 10, "velocity": 106}, {"time": 142557, "pitch": 38, "duration": 10, "velocity": 106}, {"time": 142557, "pitch": 42, "duration": 10, "velocity": 92}, {"time": 142557, "pitch": 62, "duration": 10, "velocity": 80}, {"time": 142557, "pitch": 70, "duration": 10, "velocity": 80}, {"time": 142557, "pitch": 82, "duration": 10, "velocity": 30}, {"time": 142677, "pitch": 70, "duration": 10, "velocity": 56}, {"time": 142677, "pitch": 82, "duration": 10, "velocity": 20}, {"time": 142797, "pitch": 42, "duration": 10, "velocity": 78}, {"time": 142797, "pitch": 64, "duration": 10, "velocity": 56}, {"time": 142797, "pitch": 70, "duration": 10, "velocity": 64}, {"time": 142797, "pitch": 82, "duration": 10, "velocity": 80}, {"time": 142917, "pitch": 70, "duration": 10, "velocity": 56}, {"time": 142917, "pitch": 82, "duration": 10, "velocity": 20}, {"time": 143037, "pitch": 36, "duration": 10, "velocity": 106}, {"time": 143037, "pitch": 42, "duration": 10, "velocity": 92}, {"time": 143037, "pitch": 64, "duration": 10, "velocity": 64}, {"time": 143037, "pitch": 70, "duration": 10, "velocity": 64}, {"time": 143037, "pitch": 82, "duration": 10, "velocity": 30}, {"time": 143158, "pitch": 70, "duration": 11, "velocity": 56}, {"time": 143158, "pitch": 82, "duration": 11, "velocity": 20}, {"time": 143280, "pitch": 42, "duration": 10, "velocity": 78}, {"time": 143280, "pitch": 64, "duration": 10, "velocity": 56}, {"time": 143280, "pitch": 70, "duration": 10, "velocity": 64}, {"time": 143280, "pitch": 82, "duration": 10, "velocity": 80}, {"time": 143401, "pitch": 36, "duration": 10, "velocity": 106}, {"time": 143401, "pitch": 70, "duration": 10, "velocity": 56}, {"time": 143401, "pitch": 82, "duration": 10, "velocity": 20}, {"time": 143523, "pitch": 38, "duration": 10, "velocity": 106}, {"time": 143523, "pitch": 42, "duration": 10, "velocity": 92}, {"time": 143523, "pitch": 62, "duration": 10, "velocity": 80}, {"time": 143523, "pitch": 70, "duration": 10, "velocity": 80}, {"time": 143523, "pitch": 82, "duration": 10, "velocity": 30}, {"time": 143643, "pitch": 70, "duration": 10, "velocity": 56}, {"time": 143643, "pitch": 82, "duration": 10, "velocity": 20}, {"time": 143763, "pitch": 42, "duration": 10, "velocity": 78}, {"time": 143763, "pitch": 64, "duration": 10, "velocity": 56}, {"time": 143763, "pitch": 70, "duration": 10, "velocity": 64}, {"time": 143763, "pitch": 82, "duration": 10, "velocity": 80}, {"time": 143883, "pitch": 40, "duration": 10, "velocity": 20}, {"time": 143883, "pitch": 70, "duration": 10, "velocity": 56}, {"time": 143883, "pitch": 82, "duration": 10, "velocity": 20}, {"time": 143922, "pitch": 40, "duration": 10, "velocity": 30}, {"time": 143962, "pitch": 40, "duration": 10, "velocity": 40}, {"time": 144002, "pitch": 36, "duration": 10, "velocity": 106}, {"time": 144002, "pitch": 42, "duration": 10, "velocity": 92}, {"time": 144002, "pitch": 64, "duration": 10, "velocity": 64}, {"time": 144002, "pitch": 70, "duration": 10, "velocity": 64}, {"time": 144002, "pitch": 82, "duration": 10, "velocity": 30}, {"time": 144122, "pitch": 70, "duration": 10, "velocity": 56}, {"time": 144122, "pitch": 82, "duration": 10, "velocity": 20}, {"time": 144242, "pitch": 42, "duration": 10, "velocity": 78}, {"time": 144242, "pitch": 64, "duration": 10, "velocity": 56}, {"time": 144242, "pitch": 70, "duration": 10, "velocity": 64}, {"time": 144242, "pitch": 82, "duration": 10, "velocity": 80}, {"time": 144362, "pitch": 36, "duration": 10, "velocity": 106}, {"time": 144362, "pitch": 64, "duration": 10, "velocity": 40}, {"time": 144362, "pitch": 70, "duration": 10, "velocity": 56}, {"time": 144362, "pitch": 82, "duration": 10, "velocity": 20}, {"time": 144482, "pitch": 38, "duration": 10, "velocity": 106}, {"time": 144482, "pitch": 42, "duration": 10, "velocity": 92}, {"time": 144482, "pitch": 62, "duration": 10, "velocity": 80}, {"time": 144482, "pitch": 70, "duration": 10, "velocity": 80}, {"time": 144482, "pitch": 82, "duration": 10, "velocity": 30}, {"time": 144602, "pitch": 70, "duration": 10, "velocity": 56}, {"time": 144602, "pitch": 82, "duration": 10, "velocity": 20}, {"time": 144722, "pitch": 36, "duration": 10, "velocity": 106}, {"time": 144722, "pitch": 42, "duration": 10, "velocity": 78}, {"time": 144722, "pitch": 64, "duration": 10, "velocity": 56}, {"time": 144722, "pitch": 70, "duration": 10, "velocity": 64}, {"time": 144722, "pitch": 82, "duration": 10, "velocity": 80}, {"time": 144842, "pitch": 70, "duration": 10, "velocity": 56}, {"time": 144842, "pitch": 82, "duration": 10, "velocity": 20}, {"time": 144962, "pitch": 36, "duration": 10, "velocity": 106}, {"time": 144962, "pitch": 42, "duration": 10, "velocity": 92}, {"time": 144962, "pitch": 64, "duration": 10, "velocity": 64}, {"time": 144962, "pitch": 70, "duration": 10, "velocity": 64}, {"time": 144962, "pitch": 82, "duration": 10, "velocity": 30}, {"time": 145082, "pitch": 70, "duration": 10, "velocity": 56}, {"time": 145082, "pitch": 82, "duration": 10, "velocity": 20}, {"time": 145202, "pitch": 42, "duration": 10, "velocity": 78}, {"time": 145202, "pitch": 64, "duration": 10, "velocity": 56}, {"time": 145202, "pitch": 70, "duration": 10, "velocity": 64}, {"time": 145202, "pitch": 82, "duration": 10, "velocity": 80}, {"time": 145321, "pitch": 70, "duration": 10, "velocity": 56}, {"time": 145321, "pitch": 82, "duration": 10, "velocity": 20}, {"time": 145441, "pitch": 36, "duration": 10, "velocity": 106}, {"time": 145441, "pitch": 38, "duration": 10, "velocity": 106}, {"time": 145441, "pitch": 42, "duration": 10, "velocity": 92}, {"time": 145441, "pitch": 62, "duration": 10, "velocity": 80}, {"time": 145441, "pitch": 70, "duration": 10, "velocity": 80}, {"time": 145441, "pitch": 82, "duration": 10, "velocity": 30}, {"time": 145561, "pitch": 70, "duration": 10, "velocity": 56}, {"time": 145561, "pitch": 82, "duration": 10, "velocity": 20}, {"time": 145681, "pitch": 42, "duration": 10, "velocity": 78}, {"time": 145681, "pitch": 64, "duration": 10, "velocity": 56}, {"time": 145681, "pitch": 70, "duration": 10, "velocity": 64}, {"time": 145681, "pitch": 82, "duration": 10, "velocity": 80}, {"time": 145801, "pitch": 70, "duration": 10, "velocity": 56}, {"time": 145801, "pitch": 82, "duration": 10, "velocity": 20}, {"time": 145921, "pitch": 36, "duration": 10, "velocity": 106}, {"time": 145921, "pitch": 42, "duration": 10, "velocity": 92}, {"time": 145921, "pitch": 64, "duration": 10, "velocity": 64}, {"time": 145921, "pitch": 70, "duration": 10, "velocity": 64}, {"time": 145921, "pitch": 82, "duration": 10, "velocity": 30}, {"time": 146041, "pitch": 70, "duration": 10, "velocity": 56}, {"time": 146041, "pitch": 82, "duration": 10, "velocity": 20}, {"time": 146161, "pitch": 42, "duration": 10, "velocity": 78}, {"time": 146161, "pitch": 64, "duration": 10, "velocity": 56}, {"time": 146161, "pitch": 70, "duration": 10, "velocity": 64}, {"time": 146161, "pitch": 82, "duration": 10, "velocity": 80}, {"time": 146281, "pitch": 64, "duration": 10, "velocity": 40}, {"time": 146281, "pitch": 70, "duration": 10, "velocity": 56}, {"time": 146281, "pitch": 82, "duration": 10, "velocity": 20}, {"time": 146401, "pitch": 36, "duration": 10, "velocity": 106}, {"time": 146401, "pitch": 38, "duration": 10, "velocity": 106}, {"time": 146401, "pitch": 42, "duration": 10, "velocity": 92}, {"time": 146401, "pitch": 62, "duration": 10, "velocity": 80}, {"time": 146401, "pitch": 70, "duration": 10, "velocity": 80}, {"time": 146401, "pitch": 82, "duration": 10, "velocity": 30}, {"time": 146521, "pitch": 70, "duration": 10, "velocity": 56}, {"time": 146521, "pitch": 82, "duration": 10, "velocity": 20}, {"time": 146640, "pitch": 42, "duration": 10, "velocity": 78}, {"time": 146640, "pitch": 64, "duration": 10, "velocity": 56}, {"time": 146640, "pitch": 70, "duration": 10, "velocity": 64}, {"time": 146640, "pitch": 82, "duration": 10, "velocity": 80}, {"time": 146760, "pitch": 70, "duration": 10, "velocity": 56}, {"time": 146760, "pitch": 82, "duration": 10, "velocity": 20}, {"time": 146880, "pitch": 36, "duration": 10, "velocity": 106}, {"time": 146880, "pitch": 42, "duration": 10, "velocity": 92}, {"time": 146880, "pitch": 64, "duration": 10, "velocity": 64}, {"time": 146880, "pitch": 70, "duration": 10, "velocity": 64}, {"time": 146880, "pitch": 82, "duration": 10, "velocity": 30}, {"time": 147000, "pitch": 70, "duration": 10, "velocity": 56}, {"time": 147000, "pitch": 82, "duration": 10, "velocity": 20}, {"time": 147120, "pitch": 42, "duration": 10, "velocity": 78}, {"time": 147120, "pitch": 64, "duration": 10, "velocity": 56}, {"time": 147120, "pitch": 70, "duration": 10, "velocity": 64}, {"time": 147120, "pitch": 82, "duration": 10, "velocity": 80}, {"time": 147240, "pitch": 36, "duration": 10, "velocity": 106}, {"time": 147240, "pitch": 70, "duration": 10, "velocity": 56}, {"time": 147240, "pitch": 82, "duration": 10, "velocity": 20}, {"time": 147360, "pitch": 38, "duration": 10, "velocity": 106}, {"time": 147360, "pitch": 42, "duration": 10, "velocity": 92}, {"time": 147360, "pitch": 62, "duration": 10, "velocity": 80}, {"time": 147360, "pitch": 70, "duration": 10, "velocity": 80}, {"time": 147360, "pitch": 82, "duration": 10, "velocity": 30}, {"time": 147480, "pitch": 70, "duration": 10, "velocity": 56}, {"time": 147480, "pitch": 82, "duration": 10, "velocity": 20}, {"time": 147600, "pitch": 42, "duration": 10, "velocity": 78}, {"time": 147600, "pitch": 64, "duration": 10, "velocity": 56}, {"time": 147600, "pitch": 70, "duration": 10, "velocity": 64}, {"time": 147600, "pitch": 82, "duration": 10, "velocity": 80}, {"time": 147720, "pitch": 40, "duration": 10, "velocity": 20}, {"time": 147720, "pitch": 70, "duration": 10, "velocity": 56}, {"time": 147720, "pitch": 82, "duration": 10, "velocity": 20}, {"time": 147760, "pitch": 40, "duration": 10, "velocity": 30}, {"time": 147800, "pitch": 40, "duration": 10, "velocity": 40}, {"time": 147840, "pitch": 36, "duration": 10, "velocity": 106}, {"time": 147840, "pitch": 42, "duration": 10, "velocity": 92}, {"time": 147840, "pitch": 64, "duration": 10, "velocity": 64}, {"time": 147840, "pitch": 70, "duration": 10, "velocity": 64}, {"time": 147840, "pitch": 82, "duration": 10, "velocity": 30}, {"time": 147960, "pitch": 70, "duration": 10, "velocity": 56}, {"time": 147960, "pitch": 82, "duration": 10, "velocity": 20}, {"time": 148079, "pitch": 42, "duration": 10, "velocity": 78}, {"time": 148079, "pitch": 64, "duration": 10, "velocity": 56}, {"time": 148079, "pitch": 70, "duration": 10, "velocity": 64}, {"time": 148079, "pitch": 82, "duration": 10, "velocity": 80}, {"time": 148199, "pitch": 36, "duration": 10, "velocity": 106}, {"time": 148199, "pitch": 64, "duration": 10, "velocity": 40}, {"time": 148199, "pitch": 70, "duration": 10, "velocity": 56}, {"time": 148199, "pitch": 82, "duration": 10, "velocity": 20}, {"time": 148319, "pitch": 38, "duration": 10, "velocity": 106}, {"time": 148319, "pitch": 42, "duration": 10, "velocity": 92}, {"time": 148319, "pitch": 62, "duration": 10, "velocity": 80}, {"time": 148319, "pitch": 70, "duration": 10, "velocity": 80}, {"time": 148319, "pitch": 82, "duration": 10, "velocity": 30}, {"time": 148439, "pitch": 70, "duration": 10, "velocity": 56}, {"time": 148439, "pitch": 82, "duration": 10, "velocity": 20}, {"time": 148559, "pitch": 36, "duration": 10, "velocity": 106}, {"time": 148559, "pitch": 42, "duration": 10, "velocity": 78}, {"time": 148559, "pitch": 64, "duration": 10, "velocity": 56}, {"time": 148559, "pitch": 70, "duration": 10, "velocity": 64}, {"time": 148559, "pitch": 82, "duration": 10, "velocity": 80}, {"time": 148679, "pitch": 70, "duration": 10, "velocity": 56}, {"time": 148679, "pitch": 82, "duration": 10, "velocity": 20}, {"time": 148799, "pitch": 36, "duration": 10, "velocity": 106}, {"time": 148799, "pitch": 42, "duration": 10, "velocity": 92}, {"time": 148799, "pitch": 64, "duration": 10, "velocity": 64}, {"time": 148799, "pitch": 70, "duration": 10, "velocity": 64}, {"time": 148799, "pitch": 82, "duration": 10, "velocity": 30}, {"time": 148919, "pitch": 70, "duration": 10, "velocity": 56}, {"time": 148919, "pitch": 82, "duration": 10, "velocity": 20}, {"time": 149039, "pitch": 42, "duration": 10, "velocity": 78}, {"time": 149039, "pitch": 64, "duration": 10, "velocity": 56}, {"time": 149039, "pitch": 70, "duration": 10, "velocity": 64}, {"time": 149039, "pitch": 82, "duration": 10, "velocity": 80}, {"time": 149159, "pitch": 70, "duration": 10, "velocity": 56}, {"time": 149159, "pitch": 82, "duration": 10, "velocity": 20}, {"time": 149279, "pitch": 36, "duration": 10, "velocity": 106}, {"time": 149279, "pitch": 38, "duration": 10, "velocity": 106}, {"time": 149279, "pitch": 42, "duration": 10, "velocity": 92}, {"time": 149279, "pitch": 62, "duration": 10, "velocity": 80}, {"time": 149279, "pitch": 70, "duration": 10, "velocity": 80}, {"time": 149279, "pitch": 82, "duration": 10, "velocity": 30}, {"time": 149398, "pitch": 70, "duration": 10, "velocity": 56}, {"time": 149398, "pitch": 82, "duration": 10, "velocity": 20}, {"time": 149518, "pitch": 42, "duration": 10, "velocity": 78}, {"time": 149518, "pitch": 64, "duration": 10, "velocity": 56}, {"time": 149518, "pitch": 70, "duration": 10, "velocity": 64}, {"time": 149518, "pitch": 82, "duration": 10, "velocity": 80}, {"time": 149638, "pitch": 70, "duration": 10, "velocity": 56}, {"time": 149638, "pitch": 82, "duration": 10, "velocity": 20}, {"time": 149758, "pitch": 36, "duration": 10, "velocity": 106}, {"time": 149758, "pitch": 42, "duration": 10, "velocity": 92}, {"time": 149758, "pitch": 64, "duration": 10, "velocity": 64}, {"time": 149758, "pitch": 70, "duration": 10, "velocity": 64}, {"time": 149758, "pitch": 82, "duration": 10, "velocity": 30}, {"time": 149878, "pitch": 70, "duration": 10, "velocity": 56}, {"time": 149878, "pitch": 82, "duration": 10, "velocity": 20}, {"time": 149998, "pitch": 42, "duration": 10, "velocity": 78}, {"time": 149998, "pitch": 64, "duration": 10, "velocity": 56}, {"time": 149998, "pitch": 70, "duration": 10, "velocity": 64}, {"time": 149998, "pitch": 82, "duration": 10, "velocity": 80}, {"time": 150118, "pitch": 64, "duration": 10, "velocity": 40}, {"time": 150118, "pitch": 70, "duration": 10, "velocity": 56}, {"time": 150118, "pitch": 82, "duration": 10, "velocity": 20}, {"time": 150238, "pitch": 36, "duration": 10, "velocity": 106}, {"time": 150238, "pitch": 38, "duration": 10, "velocity": 106}, {"time": 150238, "pitch": 42, "duration": 10, "velocity": 92}, {"time": 150238, "pitch": 62, "duration": 10, "velocity": 80}, {"time": 150238, "pitch": 70, "duration": 10, "velocity": 80}, {"time": 150238, "pitch": 82, "duration": 10, "velocity": 30}, {"time": 150358, "pitch": 70, "duration": 10, "velocity": 56}, {"time": 150358, "pitch": 82, "duration": 10, "velocity": 20}, {"time": 150478, "pitch": 42, "duration": 10, "velocity": 78}, {"time": 150478, "pitch": 64, "duration": 10, "velocity": 56}, {"time": 150478, "pitch": 70, "duration": 10, "velocity": 64}, {"time": 150478, "pitch": 82, "duration": 10, "velocity": 80}, {"time": 150598, "pitch": 70, "duration": 10, "velocity": 56}, {"time": 150598, "pitch": 82, "duration": 10, "velocity": 20}, {"time": 150717, "pitch": 36, "duration": 10, "velocity": 106}, {"time": 150717, "pitch": 42, "duration": 10, "velocity": 92}, {"time": 150717, "pitch": 64, "duration": 10, "velocity": 64}, {"time": 150717, "pitch": 70, "duration": 10, "velocity": 64}, {"time": 150717, "pitch": 82, "duration": 10, "velocity": 30}, {"time": 150837, "pitch": 70, "duration": 10, "velocity": 56}, {"time": 150837, "pitch": 82, "duration": 10, "velocity": 20}, {"time": 150957, "pitch": 42, "duration": 10, "velocity": 78}, {"time": 150957, "pitch": 64, "duration": 10, "velocity": 56}, {"time": 150957, "pitch": 70, "duration": 10, "velocity": 64}, {"time": 150957, "pitch": 82, "duration": 10, "velocity": 80}, {"time": 151077, "pitch": 36, "duration": 10, "velocity": 106}, {"time": 151077, "pitch": 70, "duration": 10, "velocity": 56}, {"time": 151077, "pitch": 82, "duration": 10, "velocity": 20}, {"time": 151197, "pitch": 38, "duration": 10, "velocity": 106}, {"time": 151197, "pitch": 42, "duration": 10, "velocity": 92}, {"time": 151197, "pitch": 62, "duration": 10, "velocity": 80}, {"time": 151197, "pitch": 70, "duration": 10, "velocity": 80}, {"time": 151197, "pitch": 82, "duration": 10, "velocity": 30}, {"time": 151319, "pitch": 70, "duration": 10, "velocity": 56}, {"time": 151319, "pitch": 82, "duration": 10, "velocity": 20}, {"time": 151440, "pitch": 42, "duration": 10, "velocity": 78}, {"time": 151440, "pitch": 64, "duration": 10, "velocity": 56}, {"time": 151440, "pitch": 70, "duration": 10, "velocity": 64}, {"time": 151440, "pitch": 82, "duration": 10, "velocity": 80}, {"time": 151561, "pitch": 40, "duration": 11, "velocity": 20}, {"time": 151561, "pitch": 70, "duration": 11, "velocity": 56}, {"time": 151561, "pitch": 82, "duration": 11, "velocity": 20}, {"time": 151602, "pitch": 40, "duration": 10, "velocity": 30}, {"time": 151642, "pitch": 40, "duration": 11, "velocity": 40}, {"time": 151683, "pitch": 36, "duration": 10, "velocity": 106}, {"time": 151683, "pitch": 42, "duration": 10, "velocity": 92}, {"time": 151683, "pitch": 64, "duration": 10, "velocity": 64}, {"time": 151683, "pitch": 70, "duration": 10, "velocity": 64}, {"time": 151683, "pitch": 82, "duration": 10, "velocity": 30}, {"time": 151803, "pitch": 70, "duration": 10, "velocity": 56}, {"time": 151803, "pitch": 82, "duration": 10, "velocity": 20}, {"time": 151923, "pitch": 42, "duration": 10, "velocity": 78}, {"time": 151923, "pitch": 64, "duration": 10, "velocity": 56}, {"time": 151923, "pitch": 70, "duration": 10, "velocity": 64}, {"time": 151923, "pitch": 82, "duration": 10, "velocity": 80}, {"time": 152043, "pitch": 36, "duration": 10, "velocity": 106}, {"time": 152043, "pitch": 64, "duration": 10, "velocity": 40}, {"time": 152043, "pitch": 70, "duration": 10, "velocity": 56}, {"time": 152043, "pitch": 82, "duration": 10, "velocity": 20}, {"time": 152163, "pitch": 38, "duration": 10, "velocity": 106}, {"time": 152163, "pitch": 42, "duration": 10, "velocity": 92}, {"time": 152163, "pitch": 62, "duration": 10, "velocity": 80}, {"time": 152163, "pitch": 70, "duration": 10, "velocity": 80}, {"time": 152163, "pitch": 82, "duration": 10, "velocity": 30}, {"time": 152282, "pitch": 70, "duration": 10, "velocity": 56}, {"time": 152282, "pitch": 82, "duration": 10, "velocity": 20}, {"time": 152402, "pitch": 36, "duration": 10, "velocity": 106}, {"time": 152402, "pitch": 42, "duration": 10, "velocity": 78}, {"time": 152402, "pitch": 64, "duration": 10, "velocity": 56}, {"time": 152402, "pitch": 70, "duration": 10, "velocity": 64}, {"time": 152402, "pitch": 82, "duration": 10, "velocity": 80}, {"time": 152522, "pitch": 70, "duration": 10, "velocity": 56}, {"time": 152522, "pitch": 82, "duration": 10, "velocity": 20}, {"time": 152642, "pitch": 36, "duration": 10, "velocity": 106}, {"time": 152642, "pitch": 42, "duration": 10, "velocity": 92}, {"time": 152642, "pitch": 64, "duration": 10, "velocity": 64}, {"time": 152642, "pitch": 70, "duration": 10, "velocity": 64}, {"time": 152642, "pitch": 82, "duration": 10, "velocity": 30}, {"time": 152762, "pitch": 70, "duration": 10, "velocity": 56}, {"time": 152762, "pitch": 82, "duration": 10, "velocity": 20}, {"time": 152882, "pitch": 42, "duration": 10, "velocity": 78}, {"time": 152882, "pitch": 64, "duration": 10, "velocity": 56}, {"time": 152882, "pitch": 70, "duration": 10, "velocity": 64}, {"time": 152882, "pitch": 82, "duration": 10, "velocity": 80}, {"time": 153002, "pitch": 70, "duration": 10, "velocity": 56}, {"time": 153002, "pitch": 82, "duration": 10, "velocity": 20}, {"time": 153122, "pitch": 36, "duration": 10, "velocity": 106}, {"time": 153122, "pitch": 38, "duration": 10, "velocity": 106}, {"time": 153122, "pitch": 42, "duration": 10, "velocity": 92}, {"time": 153122, "pitch": 62, "duration": 10, "velocity": 80}, {"time": 153122, "pitch": 70, "duration": 10, "velocity": 80}, {"time": 153122, "pitch": 82, "duration": 10, "velocity": 30}, {"time": 153242, "pitch": 70, "duration": 10, "velocity": 56}, {"time": 153242, "pitch": 82, "duration": 10, "velocity": 20}, {"time": 153362, "pitch": 42, "duration": 10, "velocity": 78}, {"time": 153362, "pitch": 64, "duration": 10, "velocity": 56}, {"time": 153362, "pitch": 70, "duration": 10, "velocity": 64}, {"time": 153362, "pitch": 82, "duration": 10, "velocity": 80}, {"time": 153482, "pitch": 70, "duration": 10, "velocity": 56}, {"time": 153482, "pitch": 82, "duration": 10, "velocity": 20}, {"time": 153601, "pitch": 36, "duration": 10, "velocity": 106}, {"time": 153601, "pitch": 42, "duration": 10, "velocity": 92}, {"time": 153601, "pitch": 64, "duration": 10, "velocity": 64}, {"time": 153601, "pitch": 70, "duration": 10, "velocity": 64}, {"time": 153601, "pitch": 82, "duration": 10, "velocity": 30}, {"time": 153721, "pitch": 70, "duration": 10, "velocity": 56}, {"time": 153721, "pitch": 82, "duration": 10, "velocity": 20}, {"time": 153841, "pitch": 42, "duration": 10, "velocity": 78}, {"time": 153841, "pitch": 64, "duration": 10, "velocity": 56}, {"time": 153841, "pitch": 70, "duration": 10, "velocity": 64}, {"time": 153841, "pitch": 82, "duration": 10, "velocity": 80}, {"time": 153961, "pitch": 64, "duration": 10, "velocity": 40}, {"time": 153961, "pitch": 70, "duration": 10, "velocity": 56}, {"time": 153961, "pitch": 82, "duration": 10, "velocity": 20}, {"time": 154081, "pitch": 36, "duration": 10, "velocity": 106}, {"time": 154081, "pitch": 38, "duration": 10, "velocity": 106}, {"time": 154081, "pitch": 42, "duration": 10, "velocity": 92}, {"time": 154081, "pitch": 62, "duration": 10, "velocity": 80}, {"time": 154081, "pitch": 70, "duration": 10, "velocity": 80}, {"time": 154081, "pitch": 82, "duration": 10, "velocity": 30}, {"time": 154201, "pitch": 70, "duration": 10, "velocity": 56}, {"time": 154201, "pitch": 82, "duration": 10, "velocity": 20}, {"time": 154321, "pitch": 42, "duration": 10, "velocity": 78}, {"time": 154321, "pitch": 64, "duration": 10, "velocity": 56}, {"time": 154321, "pitch": 70, "duration": 10, "velocity": 64}, {"time": 154321, "pitch": 82, "duration": 10, "velocity": 80}, {"time": 154441, "pitch": 70, "duration": 10, "velocity": 56}, {"time": 154441, "pitch": 82, "duration": 10, "velocity": 20}, {"time": 154561, "pitch": 36, "duration": 10, "velocity": 106}, {"time": 154561, "pitch": 42, "duration": 10, "velocity": 92}, {"time": 154561, "pitch": 64, "duration": 10, "velocity": 64}, {"time": 154561, "pitch": 70, "duration": 10, "velocity": 64}, {"time": 154561, "pitch": 82, "duration": 10, "velocity": 30}, {"time": 154681, "pitch": 70, "duration": 10, "velocity": 56}, {"time": 154681, "pitch": 82, "duration": 10, "velocity": 20}, {"time": 154801, "pitch": 42, "duration": 10, "velocity": 78}, {"time": 154801, "pitch": 64, "duration": 10, "velocity": 56}, {"time": 154801, "pitch": 70, "duration": 10, "velocity": 64}, {"time": 154801, "pitch": 82, "duration": 10, "velocity": 80}, {"time": 154920, "pitch": 36, "duration": 10, "velocity": 106}, {"time": 154920, "pitch": 70, "duration": 10, "velocity": 56}, {"time": 154920, "pitch": 82, "duration": 10, "velocity": 20}, {"time": 155040, "pitch": 38, "duration": 10, "velocity": 106}, {"time": 155040, "pitch": 42, "duration": 10, "velocity": 92}, {"time": 155040, "pitch": 62, "duration": 10, "velocity": 80}, {"time": 155040, "pitch": 70, "duration": 10, "velocity": 80}, {"time": 155040, "pitch": 82, "duration": 10, "velocity": 30}, {"time": 155160, "pitch": 70, "duration": 10, "velocity": 56}, {"time": 155160, "pitch": 82, "duration": 10, "velocity": 20}, {"time": 155280, "pitch": 42, "duration": 10, "velocity": 78}, {"time": 155280, "pitch": 64, "duration": 10, "velocity": 56}, {"time": 155280, "pitch": 70, "duration": 10, "velocity": 64}, {"time": 155280, "pitch": 82, "duration": 10, "velocity": 80}, {"time": 155400, "pitch": 40, "duration": 10, "velocity": 20}, {"time": 155400, "pitch": 70, "duration": 10, "velocity": 56}, {"time": 155400, "pitch": 82, "duration": 10, "velocity": 20}, {"time": 155440, "pitch": 40, "duration": 10, "velocity": 30}, {"time": 155480, "pitch": 40, "duration": 10, "velocity": 40}, {"time": 155520, "pitch": 36, "duration": 10, "velocity": 106}, {"time": 155520, "pitch": 42, "duration": 10, "velocity": 92}, {"time": 155520, "pitch": 64, "duration": 10, "velocity": 64}, {"time": 155520, "pitch": 70, "duration": 10, "velocity": 64}, {"time": 155520, "pitch": 82, "duration": 10, "velocity": 30}, {"time": 155640, "pitch": 70, "duration": 10, "velocity": 56}, {"time": 155640, "pitch": 82, "duration": 10, "velocity": 20}, {"time": 155760, "pitch": 42, "duration": 10, "velocity": 78}, {"time": 155760, "pitch": 64, "duration": 10, "velocity": 56}, {"time": 155760, "pitch": 70, "duration": 10, "velocity": 64}, {"time": 155760, "pitch": 82, "duration": 10, "velocity": 80}, {"time": 155880, "pitch": 36, "duration": 10, "velocity": 106}, {"time": 155880, "pitch": 64, "duration": 10, "velocity": 40}, {"time": 155880, "pitch": 70, "duration": 10, "velocity": 56}, {"time": 155880, "pitch": 82, "duration": 10, "velocity": 20}, {"time": 156000, "pitch": 38, "duration": 10, "velocity": 106}, {"time": 156000, "pitch": 42, "duration": 10, "velocity": 92}, {"time": 156000, "pitch": 62, "duration": 10, "velocity": 80}, {"time": 156000, "pitch": 70, "duration": 10, "velocity": 80}, {"time": 156000, "pitch": 82, "duration": 10, "velocity": 30}, {"time": 156120, "pitch": 70, "duration": 10, "velocity": 56}, {"time": 156120, "pitch": 82, "duration": 10, "velocity": 20}, {"time": 156240, "pitch": 36, "duration": 10, "velocity": 106}, {"time": 156240, "pitch": 42, "duration": 10, "velocity": 78}, {"time": 156240, "pitch": 64, "duration": 10, "velocity": 56}, {"time": 156240, "pitch": 70, "duration": 10, "velocity": 64}, {"time": 156240, "pitch": 82, "duration": 10, "velocity": 80}, {"time": 156359, "pitch": 70, "duration": 10, "velocity": 56}, {"time": 156359, "pitch": 82, "duration": 10, "velocity": 20}, {"time": 156479, "pitch": 36, "duration": 10, "velocity": 106}, {"time": 156479, "pitch": 42, "duration": 10, "velocity": 92}, {"time": 156479, "pitch": 64, "duration": 10, "velocity": 64}, {"time": 156479, "pitch": 70, "duration": 10, "velocity": 64}, {"time": 156479, "pitch": 82, "duration": 10, "velocity": 30}, {"time": 156599, "pitch": 70, "duration": 10, "velocity": 56}, {"time": 156599, "pitch": 82, "duration": 10, "velocity": 20}, {"time": 156719, "pitch": 42, "duration": 10, "velocity": 78}, {"time": 156719, "pitch": 64, "duration": 10, "velocity": 56}, {"time": 156719, "pitch": 70, "duration": 10, "velocity": 64}, {"time": 156719, "pitch": 82, "duration": 10, "velocity": 80}, {"time": 156839, "pitch": 70, "duration": 10, "velocity": 56}, {"time": 156839, "pitch": 82, "duration": 10, "velocity": 20}, {"time": 156959, "pitch": 36, "duration": 10, "velocity": 106}, {"time": 156959, "pitch": 38, "duration": 10, "velocity": 106}, {"time": 156959, "pitch": 42, "duration": 10, "velocity": 92}, {"time": 156959, "pitch": 62, "duration": 10, "velocity": 80}, {"time": 156959, "pitch": 70, "duration": 10, "velocity": 80}, {"time": 156959, "pitch": 82, "duration": 10, "velocity": 30}, {"time": 157079, "pitch": 70, "duration": 10, "velocity": 56}, {"time": 157079, "pitch": 82, "duration": 10, "velocity": 20}, {"time": 157199, "pitch": 42, "duration": 10, "velocity": 78}, {"time": 157199, "pitch": 64, "duration": 10, "velocity": 56}, {"time": 157199, "pitch": 70, "duration": 10, "velocity": 64}, {"time": 157199, "pitch": 82, "duration": 10, "velocity": 80}, {"time": 157319, "pitch": 70, "duration": 10, "velocity": 56}, {"time": 157319, "pitch": 82, "duration": 10, "velocity": 20}, {"time": 157439, "pitch": 36, "duration": 10, "velocity": 106}, {"time": 157439, "pitch": 42, "duration": 10, "velocity": 92}, {"time": 157439, "pitch": 64, "duration": 10, "velocity": 64}, {"time": 157439, "pitch": 70, "duration": 10, "velocity": 64}, {"time": 157439, "pitch": 82, "duration": 10, "velocity": 30}, {"time": 157559, "pitch": 70, "duration": 10, "velocity": 56}, {"time": 157559, "pitch": 82, "duration": 10, "velocity": 20}, {"time": 157678, "pitch": 42, "duration": 10, "velocity": 78}, {"time": 157678, "pitch": 64, "duration": 10, "velocity": 56}, {"time": 157678, "pitch": 70, "duration": 10, "velocity": 64}, {"time": 157678, "pitch": 82, "duration": 10, "velocity": 80}, {"time": 157798, "pitch": 64, "duration": 10, "velocity": 40}, {"time": 157798, "pitch": 70, "duration": 10, "velocity": 56}, {"time": 157798, "pitch": 82, "duration": 10, "velocity": 20}, {"time": 157918, "pitch": 36, "duration": 10, "velocity": 106}, {"time": 157918, "pitch": 38, "duration": 10, "velocity": 106}, {"time": 157918, "pitch": 42, "duration": 10, "velocity": 92}, {"time": 157918, "pitch": 62, "duration": 10, "velocity": 80}, {"time": 157918, "pitch": 70, "duration": 10, "velocity": 80}, {"time": 157918, "pitch": 82, "duration": 10, "velocity": 30}, {"time": 158038, "pitch": 70, "duration": 10, "velocity": 56}, {"time": 158038, "pitch": 82, "duration": 10, "velocity": 20}, {"time": 158158, "pitch": 42, "duration": 10, "velocity": 78}, {"time": 158158, "pitch": 64, "duration": 10, "velocity": 56}, {"time": 158158, "pitch": 70, "duration": 10, "velocity": 64}, {"time": 158158, "pitch": 82, "duration": 10, "velocity": 80}, {"time": 158278, "pitch": 70, "duration": 10, "velocity": 56}, {"time": 158278, "pitch": 82, "duration": 10, "velocity": 20}, {"time": 158398, "pitch": 36, "duration": 10, "velocity": 106}, {"time": 158398, "pitch": 42, "duration": 10, "velocity": 92}, {"time": 158398, "pitch": 64, "duration": 10, "velocity": 64}, {"time": 158398, "pitch": 70, "duration": 10, "velocity": 64}, {"time": 158398, "pitch": 82, "duration": 10, "velocity": 30}, {"time": 158518, "pitch": 70, "duration": 10, "velocity": 56}, {"time": 158518, "pitch": 82, "duration": 10, "velocity": 20}, {"time": 158638, "pitch": 42, "duration": 10, "velocity": 78}, {"time": 158638, "pitch": 64, "duration": 10, "velocity": 56}, {"time": 158638, "pitch": 70, "duration": 10, "velocity": 64}, {"time": 158638, "pitch": 82, "duration": 10, "velocity": 80}, {"time": 158758, "pitch": 36, "duration": 10, "velocity": 106}, {"time": 158758, "pitch": 70, "duration": 10, "velocity": 56}, {"time": 158758, "pitch": 82, "duration": 10, "velocity": 20}, {"time": 158878, "pitch": 38, "duration": 10, "velocity": 106}, {"time": 158878, "pitch": 42, "duration": 10, "velocity": 92}, {"time": 158878, "pitch": 62, "duration": 10, "velocity": 80}, {"time": 158878, "pitch": 70, "duration": 10, "velocity": 80}, {"time": 158878, "pitch": 82, "duration": 10, "velocity": 30}, {"time": 158998, "pitch": 70, "duration": 9, "velocity": 56}, {"time": 158998, "pitch": 82, "duration": 9, "velocity": 20}, {"time": 159117, "pitch": 42, "duration": 10, "velocity": 78}, {"time": 159117, "pitch": 64, "duration": 10, "velocity": 56}, {"time": 159117, "pitch": 70, "duration": 10, "velocity": 64}, {"time": 159117, "pitch": 82, "duration": 10, "velocity": 80}, {"time": 159237, "pitch": 40, "duration": 10, "velocity": 20}, {"time": 159237, "pitch": 70, "duration": 10, "velocity": 56}, {"time": 159237, "pitch": 82, "duration": 10, "velocity": 20}, {"time": 159277, "pitch": 40, "duration": 10, "velocity": 30}, {"time": 159317, "pitch": 40, "duration": 10, "velocity": 40}, {"time": 159357, "pitch": 36, "duration": 10, "velocity": 106}, {"time": 159357, "pitch": 42, "duration": 10, "velocity": 92}, {"time": 159357, "pitch": 64, "duration": 10, "velocity": 64}, {"time": 159357, "pitch": 70, "duration": 10, "velocity": 64}, {"time": 159357, "pitch": 82, "duration": 10, "velocity": 30}, {"time": 159479, "pitch": 70, "duration": 10, "velocity": 56}, {"time": 159479, "pitch": 82, "duration": 10, "velocity": 20}, {"time": 159600, "pitch": 42, "duration": 10, "velocity": 78}, {"time": 159600, "pitch": 64, "duration": 10, "velocity": 56}, {"time": 159600, "pitch": 70, "duration": 10, "velocity": 64}, {"time": 159600, "pitch": 82, "duration": 10, "velocity": 80}, {"time": 159722, "pitch": 36, "duration": 10, "velocity": 106}, {"time": 159722, "pitch": 64, "duration": 10, "velocity": 40}, {"time": 159722, "pitch": 70, "duration": 10, "velocity": 56}, {"time": 159722, "pitch": 82, "duration": 10, "velocity": 20}, {"time": 159843, "pitch": 38, "duration": 10, "velocity": 106}, {"time": 159843, "pitch": 42, "duration": 10, "velocity": 92}, {"time": 159843, "pitch": 62, "duration": 10, "velocity": 80}, {"time": 159843, "pitch": 70, "duration": 10, "velocity": 80}, {"time": 159843, "pitch": 82, "duration": 10, "velocity": 30}, {"time": 159963, "pitch": 70, "duration": 10, "velocity": 56}, {"time": 159963, "pitch": 82, "duration": 10, "velocity": 20}, {"time": 160083, "pitch": 36, "duration": 10, "velocity": 106}, {"time": 160083, "pitch": 42, "duration": 10, "velocity": 78}, {"time": 160083, "pitch": 64, "duration": 10, "velocity": 56}, {"time": 160083, "pitch": 70, "duration": 10, "velocity": 64}, {"time": 160083, "pitch": 82, "duration": 10, "velocity": 80}, {"time": 160203, "pitch": 70, "duration": 10, "velocity": 56}, {"time": 160203, "pitch": 82, "duration": 10, "velocity": 20}, {"time": 160323, "pitch": 36, "duration": 10, "velocity": 106}, {"time": 160323, "pitch": 42, "duration": 10, "velocity": 92}, {"time": 160323, "pitch": 64, "duration": 10, "velocity": 64}, {"time": 160323, "pitch": 70, "duration": 10, "velocity": 64}, {"time": 160323, "pitch": 82, "duration": 10, "velocity": 30}, {"time": 160443, "pitch": 70, "duration": 10, "velocity": 56}, {"time": 160443, "pitch": 82, "duration": 10, "velocity": 20}, {"time": 160562, "pitch": 42, "duration": 10, "velocity": 78}, {"time": 160562, "pitch": 64, "duration": 10, "velocity": 56}, {"time": 160562, "pitch": 70, "duration": 10, "velocity": 64}, {"time": 160562, "pitch": 82, "duration": 10, "velocity": 80}, {"time": 160682, "pitch": 70, "duration": 10, "velocity": 56}, {"time": 160682, "pitch": 82, "duration": 10, "velocity": 20}, {"time": 160802, "pitch": 36, "duration": 10, "velocity": 106}, {"time": 160802, "pitch": 38, "duration": 10, "velocity": 106}, {"time": 160802, "pitch": 42, "duration": 10, "velocity": 92}, {"time": 160802, "pitch": 62, "duration": 10, "velocity": 80}, {"time": 160802, "pitch": 70, "duration": 10, "velocity": 80}, {"time": 160802, "pitch": 82, "duration": 10, "velocity": 30}, {"time": 160922, "pitch": 70, "duration": 10, "velocity": 56}, {"time": 160922, "pitch": 82, "duration": 10, "velocity": 20}, {"time": 161042, "pitch": 42, "duration": 10, "velocity": 78}, {"time": 161042, "pitch": 64, "duration": 10, "velocity": 56}, {"time": 161042, "pitch": 70, "duration": 10, "velocity": 64}, {"time": 161042, "pitch": 82, "duration": 10, "velocity": 80}, {"time": 161162, "pitch": 70, "duration": 10, "velocity": 56}, {"time": 161162, "pitch": 82, "duration": 10, "velocity": 20}, {"time": 161282, "pitch": 36, "duration": 10, "velocity": 106}, {"time": 161282, "pitch": 42, "duration": 10, "velocity": 92}, {"time": 161282, "pitch": 64, "duration": 10, "velocity": 64}, {"time": 161282, "pitch": 70, "duration": 10, "velocity": 64}, {"time": 161282, "pitch": 82, "duration": 10, "velocity": 30}, {"time": 161402, "pitch": 70, "duration": 10, "velocity": 56}, {"time": 161402, "pitch": 82, "duration": 10, "velocity": 20}, {"time": 161522, "pitch": 42, "duration": 10, "velocity": 78}, {"time": 161522, "pitch": 64, "duration": 10, "velocity": 56}, {"time": 161522, "pitch": 70, "duration": 10, "velocity": 64}, {"time": 161522, "pitch": 82, "duration": 10, "velocity": 80}, {"time": 161642, "pitch": 64, "duration": 10, "velocity": 40}, {"time": 161642, "pitch": 70, "duration": 10, "velocity": 56}, {"time": 161642, "pitch": 82, "duration": 10, "velocity": 20}, {"time": 161762, "pitch": 36, "duration": 10, "velocity": 106}, {"time": 161762, "pitch": 38, "duration": 10, "velocity": 106}, {"time": 161762, "pitch": 42, "duration": 10, "velocity": 92}, {"time": 161762, "pitch": 62, "duration": 10, "velocity": 80}, {"time": 161762, "pitch": 70, "duration": 10, "velocity": 80}, {"time": 161762, "pitch": 82, "duration": 10, "velocity": 30}, {"time": 161881, "pitch": 70, "duration": 10, "velocity": 56}, {"time": 161881, "pitch": 82, "duration": 10, "velocity": 20}, {"time": 162001, "pitch": 42, "duration": 10, "velocity": 78}, {"time": 162001, "pitch": 64, "duration": 10, "velocity": 56}, {"time": 162001, "pitch": 70, "duration": 10, "velocity": 64}, {"time": 162001, "pitch": 82, "duration": 10, "velocity": 80}, {"time": 162121, "pitch": 70, "duration": 10, "velocity": 56}, {"time": 162121, "pitch": 82, "duration": 10, "velocity": 20}, {"time": 162241, "pitch": 36, "duration": 10, "velocity": 106}, {"time": 162241, "pitch": 42, "duration": 10, "velocity": 92}, {"time": 162241, "pitch": 64, "duration": 10, "velocity": 64}, {"time": 162241, "pitch": 70, "duration": 10, "velocity": 64}, {"time": 162241, "pitch": 82, "duration": 10, "velocity": 30}, {"time": 162361, "pitch": 70, "duration": 10, "velocity": 56}, {"time": 162361, "pitch": 82, "duration": 10, "velocity": 20}, {"time": 162481, "pitch": 42, "duration": 10, "velocity": 78}, {"time": 162481, "pitch": 64, "duration": 10, "velocity": 56}, {"time": 162481, "pitch": 70, "duration": 10, "velocity": 64}, {"time": 162481, "pitch": 82, "duration": 10, "velocity": 80}, {"time": 162601, "pitch": 36, "duration": 10, "velocity": 106}, {"time": 162601, "pitch": 70, "duration": 10, "velocity": 56}, {"time": 162601, "pitch": 82, "duration": 10, "velocity": 20}, {"time": 162721, "pitch": 38, "duration": 10, "velocity": 106}, {"time": 162721, "pitch": 42, "duration": 10, "velocity": 92}, {"time": 162721, "pitch": 62, "duration": 10, "velocity": 80}, {"time": 162721, "pitch": 70, "duration": 10, "velocity": 80}, {"time": 162721, "pitch": 82, "duration": 10, "velocity": 30}, {"time": 162841, "pitch": 70, "duration": 10, "velocity": 56}, {"time": 162841, "pitch": 82, "duration": 10, "velocity": 20}, {"time": 162961, "pitch": 42, "duration": 10, "velocity": 78}, {"time": 162961, "pitch": 64, "duration": 10, "velocity": 56}, {"time": 162961, "pitch": 70, "duration": 10, "velocity": 64}, {"time": 162961, "pitch": 82, "duration": 10, "velocity": 80}, {"time": 163081, "pitch": 40, "duration": 10, "velocity": 20}, {"time": 163081, "pitch": 70, "duration": 10, "velocity": 56}, {"time": 163081, "pitch": 82, "duration": 10, "velocity": 20}, {"time": 163121, "pitch": 40, "duration": 10, "velocity": 30}, {"time": 163161, "pitch": 40, "duration": 10, "velocity": 40}, {"time": 163201, "pitch": 36, "duration": 9, "velocity": 106}, {"time": 163201, "pitch": 42, "duration": 9, "velocity": 92}, {"time": 163201, "pitch": 64, "duration": 9, "velocity": 64}, {"time": 163201, "pitch": 70, "duration": 9, "velocity": 64}, {"time": 163201, "pitch": 82, "duration": 9, "velocity": 30}, {"time": 163320, "pitch": 70, "duration": 10, "velocity": 56}, {"time": 163320, "pitch": 82, "duration": 10, "velocity": 20}, {"time": 163440, "pitch": 42, "duration": 10, "velocity": 78}, {"time": 163440, "pitch": 64, "duration": 10, "velocity": 56}, {"time": 163440, "pitch": 70, "duration": 10, "velocity": 64}, {"time": 163440, "pitch": 82, "duration": 10, "velocity": 80}, {"time": 163560, "pitch": 36, "duration": 10, "velocity": 106}, {"time": 163560, "pitch": 64, "duration": 10, "velocity": 40}, {"time": 163560, "pitch": 70, "duration": 10, "velocity": 56}, {"time": 163560, "pitch": 82, "duration": 10, "velocity": 20}, {"time": 163680, "pitch": 38, "duration": 10, "velocity": 106}, {"time": 163680, "pitch": 42, "duration": 10, "velocity": 92}, {"time": 163680, "pitch": 62, "duration": 10, "velocity": 80}, {"time": 163680, "pitch": 70, "duration": 10, "velocity": 80}, {"time": 163680, "pitch": 82, "duration": 10, "velocity": 30}, {"time": 163800, "pitch": 70, "duration": 10, "velocity": 56}, {"time": 163800, "pitch": 82, "duration": 10, "velocity": 20}, {"time": 163920, "pitch": 36, "duration": 10, "velocity": 106}, {"time": 163920, "pitch": 42, "duration": 10, "velocity": 78}, {"time": 163920, "pitch": 64, "duration": 10, "velocity": 56}, {"time": 163920, "pitch": 70, "duration": 10, "velocity": 64}, {"time": 163920, "pitch": 82, "duration": 10, "velocity": 80}, {"time": 164040, "pitch": 70, "duration": 10, "velocity": 56}, {"time": 164040, "pitch": 82, "duration": 10, "velocity": 20}, {"time": 164160, "pitch": 36, "duration": 10, "velocity": 106}, {"time": 164160, "pitch": 42, "duration": 10, "velocity": 92}, {"time": 164160, "pitch": 64, "duration": 10, "velocity": 64}, {"time": 164160, "pitch": 70, "duration": 10, "velocity": 64}, {"time": 164160, "pitch": 82, "duration": 10, "velocity": 30}, {"time": 164280, "pitch": 70, "duration": 10, "velocity": 56}, {"time": 164280, "pitch": 82, "duration": 10, "velocity": 20}, {"time": 164400, "pitch": 42, "duration": 10, "velocity": 78}, {"time": 164400, "pitch": 64, "duration": 10, "velocity": 56}, {"time": 164400, "pitch": 70, "duration": 10, "velocity": 64}, {"time": 164400, "pitch": 82, "duration": 10, "velocity": 80}, {"time": 164520, "pitch": 70, "duration": 10, "velocity": 56}, {"time": 164520, "pitch": 82, "duration": 10, "velocity": 20}, {"time": 164639, "pitch": 36, "duration": 10, "velocity": 106}, {"time": 164639, "pitch": 38, "duration": 10, "velocity": 106}, {"time": 164639, "pitch": 42, "duration": 10, "velocity": 92}, {"time": 164639, "pitch": 62, "duration": 10, "velocity": 80}, {"time": 164639, "pitch": 70, "duration": 10, "velocity": 80}, {"time": 164639, "pitch": 82, "duration": 10, "velocity": 30}, {"time": 164759, "pitch": 70, "duration": 10, "velocity": 56}, {"time": 164759, "pitch": 82, "duration": 10, "velocity": 20}, {"time": 164879, "pitch": 42, "duration": 10, "velocity": 78}, {"time": 164879, "pitch": 64, "duration": 10, "velocity": 56}, {"time": 164879, "pitch": 70, "duration": 10, "velocity": 64}, {"time": 164879, "pitch": 82, "duration": 10, "velocity": 80}, {"time": 164999, "pitch": 70, "duration": 10, "velocity": 56}, {"time": 164999, "pitch": 82, "duration": 10, "velocity": 20}, {"time": 165119, "pitch": 36, "duration": 10, "velocity": 106}, {"time": 165119, "pitch": 42, "duration": 10, "velocity": 92}, {"time": 165119, "pitch": 64, "duration": 10, "velocity": 64}, {"time": 165119, "pitch": 70, "duration": 10, "velocity": 64}, {"time": 165119, "pitch": 82, "duration": 10, "velocity": 30}, {"time": 165239, "pitch": 70, "duration": 10, "velocity": 56}, {"time": 165239, "pitch": 82, "duration": 10, "velocity": 20}, {"time": 165359, "pitch": 42, "duration": 10, "velocity": 78}, {"time": 165359, "pitch": 64, "duration": 10, "velocity": 56}, {"time": 165359, "pitch": 70, "duration": 10, "velocity": 64}, {"time": 165359, "pitch": 82, "duration": 10, "velocity": 80}, {"time": 165479, "pitch": 64, "duration": 10, "velocity": 40}, {"time": 165479, "pitch": 70, "duration": 10, "velocity": 56}, {"time": 165479, "pitch": 82, "duration": 10, "velocity": 20}, {"time": 165599, "pitch": 36, "duration": 10, "velocity": 106}, {"time": 165599, "pitch": 38, "duration": 10, "velocity": 106}, {"time": 165599, "pitch": 42, "duration": 10, "velocity": 92}, {"time": 165599, "pitch": 62, "duration": 10, "velocity": 80}, {"time": 165599, "pitch": 70, "duration": 10, "velocity": 80}, {"time": 165599, "pitch": 82, "duration": 10, "velocity": 30}, {"time": 165719, "pitch": 70, "duration": 10, "velocity": 56}, {"time": 165719, "pitch": 82, "duration": 10, "velocity": 20}, {"time": 165839, "pitch": 42, "duration": 10, "velocity": 78}, {"time": 165839, "pitch": 64, "duration": 10, "velocity": 56}, {"time": 165839, "pitch": 70, "duration": 10, "velocity": 64}, {"time": 165839, "pitch": 82, "duration": 10, "velocity": 80}, {"time": 165958, "pitch": 70, "duration": 10, "velocity": 56}, {"time": 165958, "pitch": 82, "duration": 10, "velocity": 20}, {"time": 166078, "pitch": 36, "duration": 10, "velocity": 106}, {"time": 166078, "pitch": 42, "duration": 10, "velocity": 92}, {"time": 166078, "pitch": 64, "duration": 10, "velocity": 64}, {"time": 166078, "pitch": 70, "duration": 10, "velocity": 64}, {"time": 166078, "pitch": 82, "duration": 10, "velocity": 30}, {"time": 166198, "pitch": 70, "duration": 10, "velocity": 56}, {"time": 166198, "pitch": 82, "duration": 10, "velocity": 20}, {"time": 166318, "pitch": 42, "duration": 10, "velocity": 78}, {"time": 166318, "pitch": 64, "duration": 10, "velocity": 56}, {"time": 166318, "pitch": 70, "duration": 10, "velocity": 64}, {"time": 166318, "pitch": 82, "duration": 10, "velocity": 80}, {"time": 166438, "pitch": 36, "duration": 10, "velocity": 106}, {"time": 166438, "pitch": 70, "duration": 10, "velocity": 56}, {"time": 166438, "pitch": 82, "duration": 10, "velocity": 20}, {"time": 166558, "pitch": 38, "duration": 10, "velocity": 106}, {"time": 166558, "pitch": 42, "duration": 10, "velocity": 92}, {"time": 166558, "pitch": 62, "duration": 10, "velocity": 80}, {"time": 166558, "pitch": 70, "duration": 10, "velocity": 80}, {"time": 166558, "pitch": 82, "duration": 10, "velocity": 30}, {"time": 166678, "pitch": 70, "duration": 10, "velocity": 56}, {"time": 166678, "pitch": 82, "duration": 10, "velocity": 20}, {"time": 166798, "pitch": 42, "duration": 10, "velocity": 78}, {"time": 166798, "pitch": 64, "duration": 10, "velocity": 56}, {"time": 166798, "pitch": 70, "duration": 10, "velocity": 64}, {"time": 166798, "pitch": 82, "duration": 10, "velocity": 80}, {"time": 166918, "pitch": 40, "duration": 10, "velocity": 20}, {"time": 166918, "pitch": 70, "duration": 10, "velocity": 56}, {"time": 166918, "pitch": 82, "duration": 10, "velocity": 20}, {"time": 166958, "pitch": 40, "duration": 10, "velocity": 30}, {"time": 166998, "pitch": 40, "duration": 10, "velocity": 40}, {"time": 167038, "pitch": 36, "duration": 10, "velocity": 106}, {"time": 167038, "pitch": 42, "duration": 10, "velocity": 92}, {"time": 167038, "pitch": 64, "duration": 10, "velocity": 64}, {"time": 167038, "pitch": 70, "duration": 10, "velocity": 64}, {"time": 167038, "pitch": 82, "duration": 10, "velocity": 30}, {"time": 167158, "pitch": 70, "duration": 10, "velocity": 56}, {"time": 167158, "pitch": 82, "duration": 10, "velocity": 20}, {"time": 167278, "pitch": 42, "duration": 10, "velocity": 78}, {"time": 167278, "pitch": 64, "duration": 10, "velocity": 56}, {"time": 167278, "pitch": 70, "duration": 10, "velocity": 64}, {"time": 167278, "pitch": 82, "duration": 10, "velocity": 80}, {"time": 167397, "pitch": 36, "duration": 10, "velocity": 106}, {"time": 167397, "pitch": 64, "duration": 10, "velocity": 40}, {"time": 167397, "pitch": 70, "duration": 10, "velocity": 56}, {"time": 167397, "pitch": 82, "duration": 10, "velocity": 20}, {"time": 167517, "pitch": 38, "duration": 10, "velocity": 106}, {"time": 167517, "pitch": 42, "duration": 10, "velocity": 92}, {"time": 167517, "pitch": 62, "duration": 10, "velocity": 80}, {"time": 167517, "pitch": 70, "duration": 10, "velocity": 80}, {"time": 167517, "pitch": 82, "duration": 10, "velocity": 30}, {"time": 167637, "pitch": 70, "duration": 10, "velocity": 56}, {"time": 167637, "pitch": 82, "duration": 10, "velocity": 20}, {"time": 167757, "pitch": 36, "duration": 10, "velocity": 106}, {"time": 167757, "pitch": 42, "duration": 10, "velocity": 78}, {"time": 167757, "pitch": 64, "duration": 10, "velocity": 56}, {"time": 167757, "pitch": 70, "duration": 10, "velocity": 64}, {"time": 167757, "pitch": 82, "duration": 10, "velocity": 80}, {"time": 167877, "pitch": 70, "duration": 10, "velocity": 56}, {"time": 167877, "pitch": 82, "duration": 10, "velocity": 20}, {"time": 167997, "pitch": 36, "duration": 10, "velocity": 106}, {"time": 167997, "pitch": 42, "duration": 10, "velocity": 92}, {"time": 167997, "pitch": 64, "duration": 10, "velocity": 64}, {"time": 167997, "pitch": 70, "duration": 10, "velocity": 64}, {"time": 167997, "pitch": 82, "duration": 10, "velocity": 30}, {"time": 168118, "pitch": 70, "duration": 11, "velocity": 56}, {"time": 168118, "pitch": 82, "duration": 11, "velocity": 20}, {"time": 168240, "pitch": 42, "duration": 10, "velocity": 78}, {"time": 168240, "pitch": 64, "duration": 10, "velocity": 56}, {"time": 168240, "pitch": 70, "duration": 10, "velocity": 64}, {"time": 168240, "pitch": 82, "duration": 10, "velocity": 80}, {"time": 168361, "pitch": 70, "duration": 10, "velocity": 56}, {"time": 168361, "pitch": 82, "duration": 10, "velocity": 20}, {"time": 168483, "pitch": 36, "duration": 10, "velocity": 106}, {"time": 168483, "pitch": 38, "duration": 10, "velocity": 106}, {"time": 168483, "pitch": 42, "duration": 10, "velocity": 92}, {"time": 168483, "pitch": 62, "duration": 10, "velocity": 80}, {"time": 168483, "pitch": 70, "duration": 10, "velocity": 80}, {"time": 168483, "pitch": 82, "duration": 10, "velocity": 30}, {"time": 168603, "pitch": 70, "duration": 10, "velocity": 56}, {"time": 168603, "pitch": 82, "duration": 10, "velocity": 20}, {"time": 168723, "pitch": 42, "duration": 10, "velocity": 78}, {"time": 168723, "pitch": 64, "duration": 10, "velocity": 56}, {"time": 168723, "pitch": 70, "duration": 10, "velocity": 64}, {"time": 168723, "pitch": 82, "duration": 10, "velocity": 80}, {"time": 168842, "pitch": 70, "duration": 10, "velocity": 56}, {"time": 168842, "pitch": 82, "duration": 10, "velocity": 20}, {"time": 168962, "pitch": 36, "duration": 10, "velocity": 106}, {"time": 168962, "pitch": 42, "duration": 10, "velocity": 92}, {"time": 168962, "pitch": 64, "duration": 10, "velocity": 64}, {"time": 168962, "pitch": 70, "duration": 10, "velocity": 64}, {"time": 168962, "pitch": 82, "duration": 10, "velocity": 30}, {"time": 169082, "pitch": 70, "duration": 10, "velocity": 56}, {"time": 169082, "pitch": 82, "duration": 10, "velocity": 20}, {"time": 169202, "pitch": 42, "duration": 10, "velocity": 78}, {"time": 169202, "pitch": 64, "duration": 10, "velocity": 56}, {"time": 169202, "pitch": 70, "duration": 10, "velocity": 64}, {"time": 169202, "pitch": 82, "duration": 10, "velocity": 80}, {"time": 169322, "pitch": 64, "duration": 10, "velocity": 40}, {"time": 169322, "pitch": 70, "duration": 10, "velocity": 56}, {"time": 169322, "pitch": 82, "duration": 10, "velocity": 20}, {"time": 169442, "pitch": 36, "duration": 10, "velocity": 106}, {"time": 169442, "pitch": 38, "duration": 10, "velocity": 106}, {"time": 169442, "pitch": 42, "duration": 10, "velocity": 92}, {"time": 169442, "pitch": 62, "duration": 10, "velocity": 80}, {"time": 169442, "pitch": 70, "duration": 10, "velocity": 80}, {"time": 169442, "pitch": 82, "duration": 10, "velocity": 30}, {"time": 169562, "pitch": 70, "duration": 10, "velocity": 56}, {"time": 169562, "pitch": 82, "duration": 10, "velocity": 20}, {"time": 169682, "pitch": 42, "duration": 10, "velocity": 78}, {"time": 169682, "pitch": 64, "duration": 10, "velocity": 56}, {"time": 169682, "pitch": 70, "duration": 10, "velocity": 64}, {"time": 169682, "pitch": 82, "duration": 10, "velocity": 80}, {"time": 169802, "pitch": 70, "duration": 10, "velocity": 56}, {"time": 169802, "pitch": 82, "duration": 10, "velocity": 20}, {"time": 169922, "pitch": 36, "duration": 10, "velocity": 106}, {"time": 169922, "pitch": 42, "duration": 10, "velocity": 92}, {"time": 169922, "pitch": 64, "duration": 10, "velocity": 64}, {"time": 169922, "pitch": 70, "duration": 10, "velocity": 64}, {"time": 169922, "pitch": 82, "duration": 10, "velocity": 30}, {"time": 170042, "pitch": 70, "duration": 10, "velocity": 56}, {"time": 170042, "pitch": 82, "duration": 10, "velocity": 20}, {"time": 170161, "pitch": 42, "duration": 10, "velocity": 78}, {"time": 170161, "pitch": 64, "duration": 10, "velocity": 56}, {"time": 170161, "pitch": 70, "duration": 10, "velocity": 64}, {"time": 170161, "pitch": 82, "duration": 10, "velocity": 80}, {"time": 170281, "pitch": 36, "duration": 10, "velocity": 106}, {"time": 170281, "pitch": 70, "duration": 10, "velocity": 56}, {"time": 170281, "pitch": 82, "duration": 10, "velocity": 20}, {"time": 170401, "pitch": 38, "duration": 10, "velocity": 106}, {"time": 170401, "pitch": 42, "duration": 10, "velocity": 92}, {"time": 170401, "pitch": 62, "duration": 10, "velocity": 80}, {"time": 170401, "pitch": 70, "duration": 10, "velocity": 80}, {"time": 170401, "pitch": 82, "duration": 10, "velocity": 30}, {"time": 170521, "pitch": 70, "duration": 10, "velocity": 56}, {"time": 170521, "pitch": 82, "duration": 10, "velocity": 20}, {"time": 170641, "pitch": 42, "duration": 10, "velocity": 78}, {"time": 170641, "pitch": 64, "duration": 10, "velocity": 56}, {"time": 170641, "pitch": 70, "duration": 10, "velocity": 64}, {"time": 170641, "pitch": 82, "duration": 10, "velocity": 80}, {"time": 170761, "pitch": 40, "duration": 10, "velocity": 20}, {"time": 170761, "pitch": 70, "duration": 10, "velocity": 56}, {"time": 170761, "pitch": 82, "duration": 10, "velocity": 20}, {"time": 170801, "pitch": 40, "duration": 10, "velocity": 30}, {"time": 170841, "pitch": 40, "duration": 10, "velocity": 40}, {"time": 170881, "pitch": 36, "duration": 10, "velocity": 106}, {"time": 170881, "pitch": 42, "duration": 10, "velocity": 92}, {"time": 170881, "pitch": 64, "duration": 10, "velocity": 64}, {"time": 170881, "pitch": 70, "duration": 10, "velocity": 64}, {"time": 170881, "pitch": 82, "duration": 10, "velocity": 30}, {"time": 171001, "pitch": 70, "duration": 10, "velocity": 56}, {"time": 171001, "pitch": 82, "duration": 10, "velocity": 20}, {"time": 171121, "pitch": 42, "duration": 10, "velocity": 78}, {"time": 171121, "pitch": 64, "duration": 10, "velocity": 56}, {"time": 171121, "pitch": 70, "duration": 10, "velocity": 64}, {"time": 171121, "pitch": 82, "duration": 10, "velocity": 80}, {"time": 171241, "pitch": 36, "duration": 10, "velocity": 106}, {"time": 171241, "pitch": 64, "duration": 10, "velocity": 40}, {"time": 171241, "pitch": 70, "duration": 10, "velocity": 56}, {"time": 171241, "pitch": 82, "duration": 10, "velocity": 20}, {"time": 171361, "pitch": 38, "duration": 10, "velocity": 106}, {"time": 171361, "pitch": 42, "duration": 10, "velocity": 92}, {"time": 171361, "pitch": 62, "duration": 10, "velocity": 80}, {"time": 171361, "pitch": 70, "duration": 10, "velocity": 80}, {"time": 171361, "pitch": 82, "duration": 10, "velocity": 30}, {"time": 171481, "pitch": 70, "duration": 10, "velocity": 56}, {"time": 171481, "pitch": 82, "duration": 10, "velocity": 20}, {"time": 171600, "pitch": 36, "duration": 10, "velocity": 106}, {"time": 171600, "pitch": 42, "duration": 10, "velocity": 78}, {"time": 171600, "pitch": 64, "duration": 10, "velocity": 56}, {"time": 171600, "pitch": 70, "duration": 10, "velocity": 64}, {"time": 171600, "pitch": 82, "duration": 10, "velocity": 80}, {"time": 171720, "pitch": 70, "duration": 10, "velocity": 56}, {"time": 171720, "pitch": 82, "duration": 10, "velocity": 20}, {"time": 171840, "pitch": 36, "duration": 10, "velocity": 106}, {"time": 171840, "pitch": 42, "duration": 10, "velocity": 92}, {"time": 171840, "pitch": 64, "duration": 10, "velocity": 64}, {"time": 171840, "pitch": 70, "duration": 10, "velocity": 64}, {"time": 171840, "pitch": 82, "duration": 10, "velocity": 30}, {"time": 171960, "pitch": 70, "duration": 10, "velocity": 56}, {"time": 171960, "pitch": 82, "duration": 10, "velocity": 20}, {"time": 172080, "pitch": 42, "duration": 10, "velocity": 78}, {"time": 172080, "pitch": 64, "duration": 10, "velocity": 56}, {"time": 172080, "pitch": 70, "duration": 10, "velocity": 64}, {"time": 172080, "pitch": 82, "duration": 10, "velocity": 80}, {"time": 172200, "pitch": 70, "duration": 10, "velocity": 56}, {"time": 172200, "pitch": 82, "duration": 10, "velocity": 20}, {"time": 172320, "pitch": 36, "duration": 10, "velocity": 106}, {"time": 172320, "pitch": 38, "duration": 10, "velocity": 106}, {"time": 172320, "pitch": 42, "duration": 10, "velocity": 92}, {"time": 172320, "pitch": 62, "duration": 10, "velocity": 80}, {"time": 172320, "pitch": 70, "duration": 10, "velocity": 80}, {"time": 172320, "pitch": 82, "duration": 10, "velocity": 30}, {"time": 172440, "pitch": 70, "duration": 10, "velocity": 56}, {"time": 172440, "pitch": 82, "duration": 10, "velocity": 20}, {"time": 172560, "pitch": 42, "duration": 10, "velocity": 78}, {"time": 172560, "pitch": 64, "duration": 10, "velocity": 56}, {"time": 172560, "pitch": 70, "duration": 10, "velocity": 64}, {"time": 172560, "pitch": 82, "duration": 10, "velocity": 80}, {"time": 172680, "pitch": 70, "duration": 10, "velocity": 56}, {"time": 172680, "pitch": 82, "duration": 10, "velocity": 20}, {"time": 172800, "pitch": 36, "duration": 10, "velocity": 106}, {"time": 172800, "pitch": 42, "duration": 10, "velocity": 92}, {"time": 172800, "pitch": 64, "duration": 10, "velocity": 64}, {"time": 172800, "pitch": 70, "duration": 10, "velocity": 64}, {"time": 172800, "pitch": 82, "duration": 10, "velocity": 30}, {"time": 172919, "pitch": 70, "duration": 10, "velocity": 56}, {"time": 172919, "pitch": 82, "duration": 10, "velocity": 20}, {"time": 173039, "pitch": 42, "duration": 10, "velocity": 78}, {"time": 173039, "pitch": 64, "duration": 10, "velocity": 56}, {"time": 173039, "pitch": 70, "duration": 10, "velocity": 64}, {"time": 173039, "pitch": 82, "duration": 10, "velocity": 80}, {"time": 173159, "pitch": 64, "duration": 10, "velocity": 40}, {"time": 173159, "pitch": 70, "duration": 10, "velocity": 56}, {"time": 173159, "pitch": 82, "duration": 10, "velocity": 20}, {"time": 173279, "pitch": 36, "duration": 10, "velocity": 106}, {"time": 173279, "pitch": 38, "duration": 10, "velocity": 106}, {"time": 173279, "pitch": 42, "duration": 10, "velocity": 92}, {"time": 173279, "pitch": 62, "duration": 10, "velocity": 80}, {"time": 173279, "pitch": 70, "duration": 10, "velocity": 80}, {"time": 173279, "pitch": 82, "duration": 10, "velocity": 30}, {"time": 173399, "pitch": 70, "duration": 10, "velocity": 56}, {"time": 173399, "pitch": 82, "duration": 10, "velocity": 20}, {"time": 173519, "pitch": 42, "duration": 10, "velocity": 78}, {"time": 173519, "pitch": 64, "duration": 10, "velocity": 56}, {"time": 173519, "pitch": 70, "duration": 10, "velocity": 64}, {"time": 173519, "pitch": 82, "duration": 10, "velocity": 80}, {"time": 173639, "pitch": 70, "duration": 10, "velocity": 56}, {"time": 173639, "pitch": 82, "duration": 10, "velocity": 20}, {"time": 173759, "pitch": 36, "duration": 10, "velocity": 106}, {"time": 173759, "pitch": 42, "duration": 10, "velocity": 92}, {"time": 173759, "pitch": 64, "duration": 10, "velocity": 64}, {"time": 173759, "pitch": 70, "duration": 10, "velocity": 64}, {"time": 173759, "pitch": 82, "duration": 10, "velocity": 30}, {"time": 173879, "pitch": 70, "duration": 10, "velocity": 56}, {"time": 173879, "pitch": 82, "duration": 10, "velocity": 20}, {"time": 173999, "pitch": 42, "duration": 10, "velocity": 78}, {"time": 173999, "pitch": 64, "duration": 10, "velocity": 56}, {"time": 173999, "pitch": 70, "duration": 10, "velocity": 64}, {"time": 173999, "pitch": 82, "duration": 10, "velocity": 80}, {"time": 174119, "pitch": 36, "duration": 10, "velocity": 106}, {"time": 174119, "pitch": 70, "duration": 10, "velocity": 56}, {"time": 174119, "pitch": 82, "duration": 10, "velocity": 20}, {"time": 174238, "pitch": 38, "duration": 10, "velocity": 106}, {"time": 174238, "pitch": 42, "duration": 10, "velocity": 92}, {"time": 174238, "pitch": 62, "duration": 10, "velocity": 80}, {"time": 174238, "pitch": 70, "duration": 10, "velocity": 80}, {"time": 174238, "pitch": 82, "duration": 10, "velocity": 30}, {"time": 174358, "pitch": 70, "duration": 10, "velocity": 56}, {"time": 174358, "pitch": 82, "duration": 10, "velocity": 20}, {"time": 174478, "pitch": 42, "duration": 10, "velocity": 78}, {"time": 174478, "pitch": 64, "duration": 10, "velocity": 56}, {"time": 174478, "pitch": 70, "duration": 10, "velocity": 64}, {"time": 174478, "pitch": 82, "duration": 10, "velocity": 80}, {"time": 174598, "pitch": 40, "duration": 10, "velocity": 20}, {"time": 174598, "pitch": 70, "duration": 10, "velocity": 56}, {"time": 174598, "pitch": 82, "duration": 10, "velocity": 20}, {"time": 174638, "pitch": 40, "duration": 10, "velocity": 30}, {"time": 174678, "pitch": 40, "duration": 10, "velocity": 40}, {"time": 174718, "pitch": 36, "duration": 10, "velocity": 106}, {"time": 174718, "pitch": 42, "duration": 10, "velocity": 92}, {"time": 174718, "pitch": 64, "duration": 10, "velocity": 64}, {"time": 174718, "pitch": 70, "duration": 10, "velocity": 64}, {"time": 174718, "pitch": 82, "duration": 10, "velocity": 30}, {"time": 174838, "pitch": 70, "duration": 10, "velocity": 56}, {"time": 174838, "pitch": 82, "duration": 10, "velocity": 20}, {"time": 174958, "pitch": 42, "duration": 10, "velocity": 78}, {"time": 174958, "pitch": 64, "duration": 10, "velocity": 56}, {"time": 174958, "pitch": 70, "duration": 10, "velocity": 64}, {"time": 174958, "pitch": 82, "duration": 10, "velocity": 80}, {"time": 175078, "pitch": 36, "duration": 10, "velocity": 106}, {"time": 175078, "pitch": 64, "duration": 10, "velocity": 40}, {"time": 175078, "pitch": 70, "duration": 10, "velocity": 56}, {"time": 175078, "pitch": 82, "duration": 10, "velocity": 20}, {"time": 175198, "pitch": 38, "duration": 10, "velocity": 106}, {"time": 175198, "pitch": 42, "duration": 10, "velocity": 92}, {"time": 175198, "pitch": 62, "duration": 10, "velocity": 80}, {"time": 175198, "pitch": 70, "duration": 10, "velocity": 80}, {"time": 175198, "pitch": 82, "duration": 10, "velocity": 30}, {"time": 175318, "pitch": 70, "duration": 10, "velocity": 56}, {"time": 175318, "pitch": 82, "duration": 10, "velocity": 20}, {"time": 175438, "pitch": 36, "duration": 10, "velocity": 106}, {"time": 175438, "pitch": 42, "duration": 10, "velocity": 78}, {"time": 175438, "pitch": 64, "duration": 10, "velocity": 56}, {"time": 175438, "pitch": 70, "duration": 10, "velocity": 64}, {"time": 175438, "pitch": 82, "duration": 10, "velocity": 80}, {"time": 175558, "pitch": 70, "duration": 10, "velocity": 56}, {"time": 175558, "pitch": 82, "duration": 10, "velocity": 20}, {"time": 175677, "pitch": 36, "duration": 10, "velocity": 106}, {"time": 175677, "pitch": 42, "duration": 10, "velocity": 92}, {"time": 175677, "pitch": 64, "duration": 10, "velocity": 64}, {"time": 175677, "pitch": 70, "duration": 10, "velocity": 64}, {"time": 175677, "pitch": 82, "duration": 10, "velocity": 30}, {"time": 175797, "pitch": 70, "duration": 10, "velocity": 56}, {"time": 175797, "pitch": 82, "duration": 10, "velocity": 20}, {"time": 175917, "pitch": 42, "duration": 10, "velocity": 78}, {"time": 175917, "pitch": 64, "duration": 10, "velocity": 56}, {"time": 175917, "pitch": 70, "duration": 10, "velocity": 64}, {"time": 175917, "pitch": 82, "duration": 10, "velocity": 80}, {"time": 176037, "pitch": 70, "duration": 10, "velocity": 56}, {"time": 176037, "pitch": 82, "duration": 10, "velocity": 20}, {"time": 176157, "pitch": 36, "duration": 10, "velocity": 106}, {"time": 176157, "pitch": 38, "duration": 10, "velocity": 106}, {"time": 176157, "pitch": 42, "duration": 10, "velocity": 92}, {"time": 176157, "pitch": 62, "duration": 10, "velocity": 80}, {"time": 176157, "pitch": 70, "duration": 10, "velocity": 80}, {"time": 176157, "pitch": 82, "duration": 10, "velocity": 30}, {"time": 176278, "pitch": 70, "duration": 11, "velocity": 56}, {"time": 176278, "pitch": 82, "duration": 11, "velocity": 20}, {"time": 176400, "pitch": 42, "duration": 10, "velocity": 78}, {"time": 176400, "pitch": 64, "duration": 10, "velocity": 56}, {"time": 176400, "pitch": 70, "duration": 10, "velocity": 64}, {"time": 176400, "pitch": 82, "duration": 10, "velocity": 80}, {"time": 176521, "pitch": 70, "duration": 11, "velocity": 56}, {"time": 176521, "pitch": 82, "duration": 11, "velocity": 20}, {"time": 176643, "pitch": 36, "duration": 10, "velocity": 106}, {"time": 176643, "pitch": 42, "duration": 10, "velocity": 92}, {"time": 176643, "pitch": 64, "duration": 10, "velocity": 64}, {"time": 176643, "pitch": 70, "duration": 10, "velocity": 64}, {"time": 176643, "pitch": 82, "duration": 10, "velocity": 30}, {"time": 176763, "pitch": 70, "duration": 10, "velocity": 56}, {"time": 176763, "pitch": 82, "duration": 10, "velocity": 20}, {"time": 176883, "pitch": 42, "duration": 10, "velocity": 78}, {"time": 176883, "pitch": 64, "duration": 10, "velocity": 56}, {"time": 176883, "pitch": 70, "duration": 10, "velocity": 64}, {"time": 176883, "pitch": 82, "duration": 10, "velocity": 80}, {"time": 177003, "pitch": 64, "duration": 10, "velocity": 40}, {"time": 177003, "pitch": 70, "duration": 10, "velocity": 56}, {"time": 177003, "pitch": 82, "duration": 10, "velocity": 20}, {"time": 177122, "pitch": 36, "duration": 10, "velocity": 106}, {"time": 177122, "pitch": 38, "duration": 10, "velocity": 106}, {"time": 177122, "pitch": 42, "duration": 10, "velocity": 92}, {"time": 177122, "pitch": 62, "duration": 10, "velocity": 80}, {"time": 177122, "pitch": 70, "duration": 10, "velocity": 80}, {"time": 177122, "pitch": 82, "duration": 10, "velocity": 30}, {"time": 177242, "pitch": 70, "duration": 10, "velocity": 56}, {"time": 177242, "pitch": 82, "duration": 10, "velocity": 20}, {"time": 177362, "pitch": 42, "duration": 10, "velocity": 78}, {"time": 177362, "pitch": 64, "duration": 10, "velocity": 56}, {"time": 177362, "pitch": 70, "duration": 10, "velocity": 64}, {"time": 177362, "pitch": 82, "duration": 10, "velocity": 80}, {"time": 177482, "pitch": 70, "duration": 10, "velocity": 56}, {"time": 177482, "pitch": 82, "duration": 10, "velocity": 20}, {"time": 177602, "pitch": 36, "duration": 10, "velocity": 106}, {"time": 177602, "pitch": 42, "duration": 10, "velocity": 92}, {"time": 177602, "pitch": 64, "duration": 10, "velocity": 64}, {"time": 177602, "pitch": 70, "duration": 10, "velocity": 64}, {"time": 177602, "pitch": 82, "duration": 10, "velocity": 30}, {"time": 177722, "pitch": 70, "duration": 10, "velocity": 56}, {"time": 177722, "pitch": 82, "duration": 10, "velocity": 20}, {"time": 177842, "pitch": 42, "duration": 10, "velocity": 78}, {"time": 177842, "pitch": 64, "duration": 10, "velocity": 56}, {"time": 177842, "pitch": 70, "duration": 10, "velocity": 64}, {"time": 177842, "pitch": 82, "duration": 10, "velocity": 80}, {"time": 177962, "pitch": 36, "duration": 10, "velocity": 106}, {"time": 177962, "pitch": 70, "duration": 10, "velocity": 56}, {"time": 177962, "pitch": 82, "duration": 10, "velocity": 20}, {"time": 178082, "pitch": 38, "duration": 10, "velocity": 106}, {"time": 178082, "pitch": 42, "duration": 10, "velocity": 92}, {"time": 178082, "pitch": 62, "duration": 10, "velocity": 80}, {"time": 178082, "pitch": 70, "duration": 10, "velocity": 80}, {"time": 178082, "pitch": 82, "duration": 10, "velocity": 30}, {"time": 178202, "pitch": 70, "duration": 10, "velocity": 56}, {"time": 178202, "pitch": 82, "duration": 10, "velocity": 20}, {"time": 178322, "pitch": 42, "duration": 10, "velocity": 78}, {"time": 178322, "pitch": 64, "duration": 10, "velocity": 56}, {"time": 178322, "pitch": 70, "duration": 10, "velocity": 64}, {"time": 178322, "pitch": 82, "duration": 10, "velocity": 80}, {"time": 178441, "pitch": 40, "duration": 10, "velocity": 20}, {"time": 178441, "pitch": 70, "duration": 10, "velocity": 56}, {"time": 178441, "pitch": 82, "duration": 10, "velocity": 20}, {"time": 178481, "pitch": 40, "duration": 10, "velocity": 30}, {"time": 178521, "pitch": 40, "duration": 10, "velocity": 40}, {"time": 178561, "pitch": 36, "duration": 10, "velocity": 106}, {"time": 178561, "pitch": 42, "duration": 10, "velocity": 92}, {"time": 178561, "pitch": 64, "duration": 10, "velocity": 64}, {"time": 178561, "pitch": 70, "duration": 10, "velocity": 64}, {"time": 178561, "pitch": 82, "duration": 10, "velocity": 30}, {"time": 178681, "pitch": 70, "duration": 10, "velocity": 56}, {"time": 178681, "pitch": 82, "duration": 10, "velocity": 20}, {"time": 178801, "pitch": 42, "duration": 10, "velocity": 78}, {"time": 178801, "pitch": 64, "duration": 10, "velocity": 56}, {"time": 178801, "pitch": 70, "duration": 10, "velocity": 64}, {"time": 178801, "pitch": 82, "duration": 10, "velocity": 80}, {"time": 178921, "pitch": 36, "duration": 10, "velocity": 106}, {"time": 178921, "pitch": 64, "duration": 10, "velocity": 40}, {"time": 178921, "pitch": 70, "duration": 10, "velocity": 56}, {"time": 178921, "pitch": 82, "duration": 10, "velocity": 20}, {"time": 179041, "pitch": 38, "duration": 10, "velocity": 106}, {"time": 179041, "pitch": 42, "duration": 10, "velocity": 92}, {"time": 179041, "pitch": 62, "duration": 10, "velocity": 80}, {"time": 179041, "pitch": 70, "duration": 10, "velocity": 80}, {"time": 179041, "pitch": 82, "duration": 10, "velocity": 30}, {"time": 179161, "pitch": 70, "duration": 10, "velocity": 56}, {"time": 179161, "pitch": 82, "duration": 10, "velocity": 20}, {"time": 179281, "pitch": 36, "duration": 10, "velocity": 106}, {"time": 179281, "pitch": 42, "duration": 10, "velocity": 78}, {"time": 179281, "pitch": 64, "duration": 10, "velocity": 56}, {"time": 179281, "pitch": 70, "duration": 10, "velocity": 64}, {"time": 179281, "pitch": 82, "duration": 10, "velocity": 80}, {"time": 179401, "pitch": 70, "duration": 10, "velocity": 56}, {"time": 179401, "pitch": 82, "duration": 10, "velocity": 20}, {"time": 179521, "pitch": 36, "duration": 10, "velocity": 106}, {"time": 179521, "pitch": 42, "duration": 10, "velocity": 92}, {"time": 179521, "pitch": 64, "duration": 10, "velocity": 64}, {"time": 179521, "pitch": 70, "duration": 10, "velocity": 64}, {"time": 180480, "pitch": 64, "duration": 10, "velocity": 20}, {"time": 180560, "pitch": 64, "duration": 10, "velocity": 30}, {"time": 180650, "pitch": 64, "duration": 10, "velocity": 40}, {"time": 180750, "pitch": 64, "duration": 10, "velocity": 44}, {"time": 180860, "pitch": 64, "duration": 10, "velocity": 50}, {"time": 180980, "pitch": 64, "duration": 10, "velocity": 44}, {"time": 181120, "pitch": 64, "duration": 10, "velocity": 30}], "annotations": [{"time": 61, "annotation": {"number": 0, "value": 0}, "group": "control_change"}, {"time": 67, "annotation": {"number": 32, "value": 2}, "group": "control_change"}, {"time": 80, "annotation": {"number": 7, "value": 120}, "group": "control_change"}, {"time": 86, "annotation": {"number": 10, "value": 64}, "group": "control_change"}, {"time": 92, "annotation": {"number": 11, "value": 110}, "group": "control_change"}, {"time": 98, "annotation": {"number": 91, "value": 40}, "group": "control_change"}, {"time": 104, "annotation": {"number": 93, "value": 0}, "group": "control_change"}, {"time": 178, "annotation": {"number": 101, "value": 0}, "group": "control_change"}, {"time": 184, "annotation": {"number": 100, "value": 0}, "group": "control_change"}, {"time": 190, "annotation": {"number": 6, "value": 12}, "group": "control_change"}, {"time": 196, "annotation": {"number": 1, "value": 0}, "group": "control_change"}, {"time": 209, "annotation": {"number": 64, "value": 0}, "group": "control_change"}]}]}