{"metadata": {"schema_version": "0.1", "title": "RWC-MDB-P-2001 No. 58: Silver shoes / Rin", "copyright": "RWC Music Database. Copyright (C) 2001 Real World Computing Partnership (contact: Masataka GOTO <m.goto@aist.go.jp>)", "source_filename": "RM-P058.SMF_SYNC.MID", "source_format": "midi"}, "resolution": 480, "tempos": [{"time": 0, "qpm": 59.40594059405941}, {"time": 480, "qpm": 117.6470588235294}, {"time": 2400, "qpm": 120.0}, {"time": 2880, "qpm": 117.6470588235294}, {"time": 5280, "qpm": 120.0}, {"time": 5760, "qpm": 117.6470588235294}, {"time": 8640, "qpm": 120.0}, {"time": 9120, "qpm": 117.6470588235294}, {"time": 12000, "qpm": 120.0}, {"time": 12480, "qpm": 117.6470588235294}, {"time": 14880, "qpm": 120.0}, {"time": 15360, "qpm": 117.6470588235294}, {"time": 18240, "qpm": 120.0}, {"time": 18720, "qpm": 117.6470588235294}, {"time": 21120, "qpm": 120.0}, {"time": 21600, "qpm": 117.6470588235294}, {"time": 24480, "qpm": 120.0}, {"time": 24960, "qpm": 117.6470588235294}, {"time": 27360, "qpm": 120.0}, {"time": 27840, "qpm": 117.6470588235294}, {"time": 30720, "qpm": 120.0}, {"time": 31200, "qpm": 117.6470588235294}, {"time": 34080, "qpm": 120.0}, {"time": 34560, "qpm": 117.6470588235294}, {"time": 36480, "qpm": 120.0}, {"time": 36960, "qpm": 117.6470588235294}, {"time": 39840, "qpm": 120.0}, {"time": 40320, "qpm": 117.6470588235294}, {"time": 42720, "qpm": 120.0}, {"time": 43200, "qpm": 117.6470588235294}, {"time": 46560, "qpm": 120.0}, {"time": 47040, "qpm": 117.6470588235294}, {"time": 49440, "qpm": 120.0}, {"time": 49920, "qpm": 117.6470588235294}, {"time": 52320, "qpm": 120.0}, {"time": 52800, "qpm": 117.6470588235294}, {"time": 55680, "qpm": 120.0}, {"time": 56160, "qpm": 117.6470588235294}, {"time": 59040, "qpm": 120.0}, {"time": 59520, "qpm": 117.6470588235294}, {"time": 61920, "qpm": 120.0}, {"time": 62400, "qpm": 117.6470588235294}, {"time": 64800, "qpm": 120.0}, {"time": 65280, "qpm": 117.6470588235294}, {"time": 68160, "qpm": 120.0}, {"time": 68640, "qpm": 117.6470588235294}, {"time": 71040, "qpm": 120.0}, {"time": 71520, "qpm": 117.6470588235294}, {"time": 74400, "qpm": 120.0}, {"time": 74880, "qpm": 117.6470588235294}, {"time": 77280, "qpm": 120.0}, {"time": 77760, "qpm": 117.6470588235294}, {"time": 80160, "qpm": 120.0}, {"time": 80640, "qpm": 117.6470588235294}, {"time": 84480, "qpm": 120.0}, {"time": 84960, "qpm": 117.6470588235294}, {"time": 86400, "qpm": 120.0}, {"time": 86880, "qpm": 117.6470588235294}, {"time": 90240, "qpm": 120.0}, {"time": 90720, "qpm": 117.6470588235294}, {"time": 92640, "qpm": 120.0}, {"time": 93120, "qpm": 117.6470588235294}, {"time": 96000, "qpm": 120.0}, {"time": 96480, "qpm": 117.6470588235294}, {"time": 99360, "qpm": 120.0}, {"time": 99840, "qpm": 117.6470588235294}, {"time": 102240, "qpm": 120.0}, {"time": 102720, "qpm": 117.6470588235294}, {"time": 105120, "qpm": 120.0}, {"time": 105600, "qpm": 117.6470588235294}, {"time": 108480, "qpm": 120.0}, {"time": 108960, "qpm": 117.6470588235294}, {"time": 111360, "qpm": 120.0}, {"time": 111840, "qpm": 117.6470588235294}, {"time": 115200, "qpm": 120.0}, {"time": 115680, "qpm": 117.6470588235294}, {"time": 118080, "qpm": 120.0}, {"time": 118560, "qpm": 117.6470588235294}, {"time": 120960, "qpm": 120.0}, {"time": 121440, "qpm": 117.6470588235294}, {"time": 123840, "qpm": 120.0}, {"time": 124320, "qpm": 117.6470588235294}, {"time": 127200, "qpm": 120.0}, {"time": 127680, "qpm": 117.6470588235294}, {"time": 130080, "qpm": 120.0}, {"time": 130560, "qpm": 117.6470588235294}, {"time": 133440, "qpm": 120.0}, {"time": 133920, "qpm": 117.6470588235294}, {"time": 136320, "qpm": 120.0}, {"time": 136800, "qpm": 117.6470588235294}, {"time": 139680, "qpm": 120.0}, {"time": 140160, "qpm": 117.6470588235294}, {"time": 143040, "qpm": 120.0}, {"time": 143520, "qpm": 117.6470588235294}, {"time": 145920, "qpm": 120.0}, {"time": 146400, "qpm": 117.6470588235294}, {"time": 149280, "qpm": 120.0}, {"time": 149760, "qpm": 117.6470588235294}, {"time": 152160, "qpm": 120.0}, {"time": 152640, "qpm": 117.6470588235294}, {"time": 155040, "qpm": 120.0}, {"time": 155520, "qpm": 117.6470588235294}, {"time": 158400, "qpm": 120.0}, {"time": 158880, "qpm": 117.6470588235294}, {"time": 161280, "qpm": 120.0}, {"time": 161760, "qpm": 117.6470588235294}, {"time": 164640, "qpm": 120.0}, {"time": 165120, "qpm": 117.6470588235294}, {"time": 167520, "qpm": 120.0}, {"time": 168000, "qpm": 117.6470588235294}, {"time": 170880, "qpm": 120.0}, {"time": 171360, "qpm": 117.6470588235294}, {"time": 173760, "qpm": 120.0}, {"time": 174240, "qpm": 117.6470588235294}, {"time": 177120, "qpm": 120.0}, {"time": 177600, "qpm": 117.6470588235294}, {"time": 180480, "qpm": 120.0}, {"time": 180960, "qpm": 117.6470588235294}, {"time": 183360, "qpm": 120.0}, {"time": 183840, "qpm": 117.6470588235294}, {"time": 186240, "qpm": 120.0}, {"time": 186720, "qpm": 117.6470588235294}, {"time": 189600, "qpm": 120.0}, {"time": 190080, "qpm": 117.6470588235294}, {"time": 192480, "qpm": 120.0}, {"time": 192960, "qpm": 117.6470588235294}, {"time": 195840, "qpm": 120.0}, {"time": 196320, "qpm": 117.6470588235294}, {"time": 198720, "qpm": 120.0}, {"time": 199200, "qpm": 117.6470588235294}, {"time": 202080, "qpm": 120.0}, {"time": 202560, "qpm": 117.6470588235294}, {"time": 204960, "qpm": 120.0}, {"time": 205440, "qpm": 117.6470588235294}, {"time": 208320, "qpm": 120.0}, {"time": 208800, "qpm": 117.6470588235294}], "key_signatures": [{"time": 0, "root": 6, "mode": "minor"}], "time_signatures": [{"time": 0, "numerator": 5, "denominator": 4}, {"time": 2400, "numerator": 4, "denominator": 4}], "tracks": [{"program": 0, "is_drum": false, "name": "BASS", "annotations": [{"time": 219, "annotation": {"number": 0, "value": 0}, "group": "control_change"}, {"time": 241, "annotation": {"number": 32, "value": 0}, "group": "control_change"}]}, {"program": 33, "is_drum": false, "name": "BASS", "notes": [{"time": 484, "pitch": 30, "duration": 149, "velocity": 124}, {"time": 962, "pitch": 30, "duration": 89, "velocity": 115}, {"time": 1082, "pitch": 28, "duration": 117, "velocity": 113}, {"time": 1202, "pitch": 30, "duration": 102, "velocity": 96}, {"time": 1441, "pitch": 28, "duration": 115, "velocity": 110}, {"time": 1560, "pitch": 30, "duration": 114, "velocity": 102}, {"time": 1800, "pitch": 30, "duration": 106, "velocity": 104}, {"time": 2039, "pitch": 30, "duration": 108, "velocity": 99}, {"time": 2159, "pitch": 28, "duration": 95, "velocity": 110}, {"time": 2278, "pitch": 30, "duration": 96, "velocity": 96}, {"time": 2398, "pitch": 30, "duration": 149, "velocity": 124}, {"time": 2876, "pitch": 30, "duration": 91, "velocity": 115}, {"time": 2998, "pitch": 28, "duration": 119, "velocity": 113}, {"time": 3120, "pitch": 30, "duration": 105, "velocity": 96}, {"time": 3364, "pitch": 28, "duration": 116, "velocity": 110}, {"time": 3484, "pitch": 30, "duration": 114, "velocity": 102}, {"time": 3723, "pitch": 33, "duration": 107, "velocity": 104}, {"time": 3963, "pitch": 30, "duration": 107, "velocity": 99}, {"time": 4082, "pitch": 28, "duration": 96, "velocity": 110}, {"time": 4202, "pitch": 30, "duration": 96, "velocity": 96}, {"time": 4322, "pitch": 30, "duration": 149, "velocity": 124}, {"time": 4800, "pitch": 30, "duration": 89, "velocity": 115}, {"time": 4920, "pitch": 28, "duration": 116, "velocity": 113}, {"time": 5039, "pitch": 30, "duration": 103, "velocity": 96}, {"time": 5279, "pitch": 28, "duration": 115, "velocity": 110}, {"time": 5398, "pitch": 30, "duration": 114, "velocity": 102}, {"time": 5638, "pitch": 30, "duration": 106, "velocity": 104}, {"time": 5877, "pitch": 30, "duration": 108, "velocity": 99}, {"time": 5997, "pitch": 28, "duration": 95, "velocity": 110}, {"time": 6116, "pitch": 30, "duration": 96, "velocity": 96}, {"time": 6236, "pitch": 30, "duration": 152, "velocity": 124}, {"time": 6724, "pitch": 30, "duration": 89, "velocity": 115}, {"time": 6843, "pitch": 28, "duration": 117, "velocity": 113}, {"time": 6963, "pitch": 30, "duration": 103, "velocity": 96}, {"time": 7202, "pitch": 28, "duration": 116, "velocity": 110}, {"time": 7322, "pitch": 30, "duration": 114, "velocity": 102}, {"time": 7561, "pitch": 33, "duration": 107, "velocity": 104}, {"time": 7801, "pitch": 30, "duration": 107, "velocity": 99}, {"time": 7920, "pitch": 28, "duration": 96, "velocity": 110}, {"time": 8040, "pitch": 30, "duration": 96, "velocity": 96}, {"time": 8160, "pitch": 30, "duration": 149, "velocity": 124}, {"time": 8638, "pitch": 30, "duration": 89, "velocity": 115}, {"time": 8758, "pitch": 28, "duration": 116, "velocity": 113}, {"time": 8877, "pitch": 30, "duration": 103, "velocity": 96}, {"time": 9117, "pitch": 28, "duration": 118, "velocity": 110}, {"time": 9239, "pitch": 30, "duration": 116, "velocity": 102}, {"time": 9483, "pitch": 30, "duration": 108, "velocity": 104}, {"time": 9724, "pitch": 30, "duration": 108, "velocity": 99}, {"time": 9844, "pitch": 28, "duration": 96, "velocity": 110}, {"time": 9964, "pitch": 30, "duration": 95, "velocity": 96}, {"time": 10083, "pitch": 30, "duration": 150, "velocity": 124}, {"time": 10562, "pitch": 30, "duration": 88, "velocity": 115}, {"time": 10681, "pitch": 28, "duration": 117, "velocity": 113}, {"time": 10801, "pitch": 30, "duration": 103, "velocity": 96}, {"time": 11040, "pitch": 28, "duration": 116, "velocity": 110}, {"time": 11160, "pitch": 30, "duration": 114, "velocity": 102}, {"time": 11399, "pitch": 33, "duration": 107, "velocity": 104}, {"time": 11639, "pitch": 30, "duration": 107, "velocity": 99}, {"time": 11758, "pitch": 28, "duration": 96, "velocity": 110}, {"time": 11878, "pitch": 30, "duration": 96, "velocity": 96}, {"time": 11997, "pitch": 30, "duration": 150, "velocity": 124}, {"time": 12476, "pitch": 30, "duration": 90, "velocity": 115}, {"time": 12598, "pitch": 28, "duration": 119, "velocity": 113}, {"time": 12720, "pitch": 30, "duration": 105, "velocity": 96}, {"time": 12964, "pitch": 28, "duration": 116, "velocity": 110}, {"time": 13084, "pitch": 30, "duration": 113, "velocity": 102}, {"time": 13323, "pitch": 30, "duration": 107, "velocity": 104}, {"time": 13562, "pitch": 30, "duration": 108, "velocity": 99}, {"time": 13682, "pitch": 28, "duration": 96, "velocity": 110}, {"time": 13801, "pitch": 30, "duration": 96, "velocity": 96}, {"time": 13921, "pitch": 30, "duration": 150, "velocity": 124}, {"time": 14400, "pitch": 30, "duration": 88, "velocity": 115}, {"time": 14519, "pitch": 28, "duration": 117, "velocity": 113}, {"time": 14639, "pitch": 30, "duration": 103, "velocity": 96}, {"time": 14878, "pitch": 28, "duration": 116, "velocity": 110}, {"time": 14998, "pitch": 30, "duration": 114, "velocity": 102}, {"time": 15237, "pitch": 33, "duration": 107, "velocity": 104}, {"time": 15476, "pitch": 30, "duration": 108, "velocity": 99}, {"time": 15596, "pitch": 28, "duration": 96, "velocity": 110}, {"time": 15716, "pitch": 30, "duration": 95, "velocity": 96}, {"time": 15835, "pitch": 30, "duration": 153, "velocity": 124}, {"time": 16323, "pitch": 30, "duration": 89, "velocity": 115}, {"time": 16443, "pitch": 28, "duration": 117, "velocity": 113}, {"time": 16563, "pitch": 30, "duration": 102, "velocity": 96}, {"time": 16802, "pitch": 28, "duration": 116, "velocity": 110}, {"time": 16922, "pitch": 30, "duration": 113, "velocity": 102}, {"time": 17161, "pitch": 30, "duration": 106, "velocity": 104}, {"time": 17400, "pitch": 30, "duration": 108, "velocity": 99}, {"time": 17520, "pitch": 28, "duration": 95, "velocity": 110}, {"time": 17639, "pitch": 30, "duration": 96, "velocity": 96}, {"time": 17759, "pitch": 30, "duration": 150, "velocity": 124}, {"time": 18238, "pitch": 30, "duration": 88, "velocity": 115}, {"time": 18357, "pitch": 28, "duration": 117, "velocity": 113}, {"time": 18477, "pitch": 30, "duration": 103, "velocity": 96}, {"time": 18716, "pitch": 28, "duration": 118, "velocity": 110}, {"time": 18838, "pitch": 30, "duration": 116, "velocity": 102}, {"time": 19082, "pitch": 33, "duration": 109, "velocity": 104}, {"time": 19324, "pitch": 30, "duration": 107, "velocity": 99}, {"time": 19443, "pitch": 28, "duration": 96, "velocity": 110}, {"time": 19563, "pitch": 30, "duration": 96, "velocity": 96}, {"time": 19683, "pitch": 30, "duration": 149, "velocity": 124}, {"time": 20161, "pitch": 30, "duration": 89, "velocity": 115}, {"time": 20281, "pitch": 28, "duration": 117, "velocity": 113}, {"time": 20401, "pitch": 30, "duration": 102, "velocity": 96}, {"time": 20640, "pitch": 28, "duration": 115, "velocity": 110}, {"time": 20759, "pitch": 30, "duration": 114, "velocity": 102}, {"time": 20999, "pitch": 30, "duration": 106, "velocity": 104}, {"time": 21238, "pitch": 30, "duration": 108, "velocity": 99}, {"time": 21358, "pitch": 28, "duration": 95, "velocity": 110}, {"time": 21477, "pitch": 30, "duration": 96, "velocity": 96}, {"time": 21597, "pitch": 30, "duration": 149, "velocity": 124}, {"time": 22076, "pitch": 30, "duration": 90, "velocity": 115}, {"time": 22197, "pitch": 28, "duration": 119, "velocity": 113}, {"time": 22319, "pitch": 30, "duration": 105, "velocity": 96}, {"time": 22563, "pitch": 28, "duration": 116, "velocity": 110}, {"time": 22683, "pitch": 30, "duration": 114, "velocity": 102}, {"time": 22922, "pitch": 33, "duration": 107, "velocity": 104}, {"time": 23162, "pitch": 30, "duration": 107, "velocity": 99}, {"time": 23281, "pitch": 28, "duration": 96, "velocity": 110}, {"time": 23401, "pitch": 30, "duration": 96, "velocity": 96}, {"time": 23521, "pitch": 30, "duration": 149, "velocity": 124}, {"time": 23999, "pitch": 30, "duration": 89, "velocity": 115}, {"time": 24119, "pitch": 28, "duration": 116, "velocity": 113}, {"time": 24238, "pitch": 30, "duration": 103, "velocity": 96}, {"time": 24478, "pitch": 28, "duration": 115, "velocity": 110}, {"time": 24597, "pitch": 30, "duration": 114, "velocity": 102}, {"time": 24837, "pitch": 30, "duration": 106, "velocity": 104}, {"time": 25078, "pitch": 30, "duration": 110, "velocity": 99}, {"time": 25200, "pitch": 28, "duration": 98, "velocity": 110}, {"time": 25322, "pitch": 30, "duration": 98, "velocity": 96}, {"time": 25444, "pitch": 30, "duration": 150, "velocity": 124}, {"time": 25923, "pitch": 30, "duration": 89, "velocity": 115}, {"time": 26042, "pitch": 28, "duration": 117, "velocity": 113}, {"time": 26162, "pitch": 30, "duration": 103, "velocity": 96}, {"time": 26401, "pitch": 28, "duration": 116, "velocity": 110}, {"time": 26521, "pitch": 30, "duration": 114, "velocity": 102}, {"time": 26760, "pitch": 33, "duration": 107, "velocity": 104}, {"time": 27000, "pitch": 30, "duration": 107, "velocity": 99}, {"time": 27119, "pitch": 28, "duration": 96, "velocity": 110}, {"time": 27239, "pitch": 30, "duration": 96, "velocity": 96}, {"time": 27359, "pitch": 30, "duration": 149, "velocity": 124}, {"time": 27837, "pitch": 30, "duration": 89, "velocity": 115}, {"time": 27957, "pitch": 28, "duration": 116, "velocity": 113}, {"time": 28076, "pitch": 30, "duration": 103, "velocity": 96}, {"time": 28316, "pitch": 28, "duration": 118, "velocity": 110}, {"time": 28438, "pitch": 30, "duration": 116, "velocity": 102}, {"time": 28682, "pitch": 30, "duration": 108, "velocity": 104}, {"time": 28923, "pitch": 30, "duration": 108, "velocity": 99}, {"time": 29043, "pitch": 28, "duration": 96, "velocity": 110}, {"time": 29163, "pitch": 30, "duration": 95, "velocity": 96}, {"time": 29282, "pitch": 30, "duration": 150, "velocity": 124}, {"time": 29761, "pitch": 30, "duration": 88, "velocity": 115}, {"time": 29880, "pitch": 28, "duration": 117, "velocity": 113}, {"time": 30000, "pitch": 30, "duration": 103, "velocity": 96}, {"time": 30239, "pitch": 28, "duration": 116, "velocity": 110}, {"time": 30359, "pitch": 30, "duration": 114, "velocity": 102}, {"time": 30598, "pitch": 33, "duration": 107, "velocity": 104}, {"time": 30838, "pitch": 30, "duration": 107, "velocity": 99}, {"time": 30957, "pitch": 28, "duration": 96, "velocity": 110}, {"time": 31077, "pitch": 30, "duration": 96, "velocity": 96}, {"time": 31196, "pitch": 30, "duration": 153, "velocity": 124}, {"time": 31684, "pitch": 30, "duration": 89, "velocity": 115}, {"time": 31804, "pitch": 28, "duration": 117, "velocity": 113}, {"time": 31924, "pitch": 30, "duration": 102, "velocity": 96}, {"time": 32163, "pitch": 28, "duration": 116, "velocity": 110}, {"time": 32283, "pitch": 30, "duration": 113, "velocity": 102}, {"time": 32522, "pitch": 30, "duration": 107, "velocity": 104}, {"time": 32761, "pitch": 30, "duration": 108, "velocity": 99}, {"time": 32881, "pitch": 28, "duration": 96, "velocity": 110}, {"time": 33000, "pitch": 30, "duration": 96, "velocity": 96}, {"time": 33120, "pitch": 30, "duration": 150, "velocity": 124}, {"time": 33599, "pitch": 30, "duration": 88, "velocity": 115}, {"time": 33718, "pitch": 28, "duration": 117, "velocity": 113}, {"time": 33838, "pitch": 30, "duration": 103, "velocity": 96}, {"time": 34077, "pitch": 28, "duration": 116, "velocity": 110}, {"time": 34197, "pitch": 30, "duration": 114, "velocity": 102}, {"time": 34436, "pitch": 33, "duration": 107, "velocity": 104}, {"time": 34678, "pitch": 30, "duration": 110, "velocity": 99}, {"time": 34800, "pitch": 28, "duration": 97, "velocity": 110}, {"time": 34922, "pitch": 30, "duration": 97, "velocity": 96}, {"time": 35044, "pitch": 30, "duration": 149, "velocity": 124}, {"time": 35522, "pitch": 30, "duration": 89, "velocity": 115}, {"time": 35642, "pitch": 28, "duration": 117, "velocity": 113}, {"time": 35762, "pitch": 30, "duration": 102, "velocity": 96}, {"time": 36001, "pitch": 28, "duration": 116, "velocity": 110}, {"time": 36121, "pitch": 30, "duration": 113, "velocity": 102}, {"time": 36360, "pitch": 30, "duration": 107, "velocity": 104}, {"time": 36599, "pitch": 30, "duration": 108, "velocity": 99}, {"time": 36719, "pitch": 28, "duration": 95, "velocity": 110}, {"time": 36838, "pitch": 30, "duration": 96, "velocity": 96}, {"time": 36958, "pitch": 30, "duration": 150, "velocity": 124}, {"time": 37437, "pitch": 30, "duration": 90, "velocity": 115}, {"time": 37559, "pitch": 28, "duration": 119, "velocity": 113}, {"time": 37681, "pitch": 30, "duration": 104, "velocity": 96}, {"time": 37925, "pitch": 28, "duration": 115, "velocity": 110}, {"time": 38044, "pitch": 30, "duration": 114, "velocity": 102}, {"time": 38284, "pitch": 33, "duration": 106, "velocity": 104}, {"time": 38523, "pitch": 30, "duration": 107, "velocity": 99}, {"time": 38642, "pitch": 28, "duration": 96, "velocity": 110}, {"time": 38762, "pitch": 30, "duration": 96, "velocity": 96}, {"time": 38882, "pitch": 30, "duration": 149, "velocity": 124}, {"time": 39360, "pitch": 30, "duration": 89, "velocity": 115}, {"time": 39480, "pitch": 28, "duration": 117, "velocity": 113}, {"time": 39600, "pitch": 30, "duration": 102, "velocity": 96}, {"time": 39839, "pitch": 28, "duration": 115, "velocity": 110}, {"time": 39958, "pitch": 30, "duration": 114, "velocity": 102}, {"time": 40198, "pitch": 30, "duration": 106, "velocity": 104}, {"time": 40437, "pitch": 30, "duration": 108, "velocity": 99}, {"time": 40557, "pitch": 28, "duration": 95, "velocity": 110}, {"time": 40676, "pitch": 30, "duration": 96, "velocity": 96}, {"time": 40796, "pitch": 30, "duration": 152, "velocity": 124}, {"time": 41284, "pitch": 30, "duration": 89, "velocity": 115}, {"time": 41404, "pitch": 28, "duration": 116, "velocity": 113}, {"time": 41523, "pitch": 30, "duration": 103, "velocity": 96}, {"time": 41763, "pitch": 28, "duration": 115, "velocity": 110}, {"time": 41882, "pitch": 30, "duration": 114, "velocity": 102}, {"time": 42121, "pitch": 33, "duration": 107, "velocity": 104}, {"time": 42361, "pitch": 30, "duration": 107, "velocity": 99}, {"time": 42480, "pitch": 28, "duration": 96, "velocity": 110}, {"time": 42600, "pitch": 30, "duration": 96, "velocity": 96}, {"time": 42720, "pitch": 30, "duration": 149, "velocity": 124}, {"time": 43198, "pitch": 30, "duration": 89, "velocity": 115}, {"time": 43318, "pitch": 28, "duration": 116, "velocity": 113}, {"time": 43437, "pitch": 30, "duration": 103, "velocity": 96}, {"time": 43677, "pitch": 28, "duration": 115, "velocity": 110}, {"time": 43796, "pitch": 30, "duration": 114, "velocity": 102}, {"time": 44036, "pitch": 30, "duration": 106, "velocity": 104}, {"time": 44277, "pitch": 30, "duration": 110, "velocity": 99}, {"time": 44399, "pitch": 28, "duration": 98, "velocity": 110}, {"time": 44521, "pitch": 30, "duration": 98, "velocity": 96}, {"time": 44643, "pitch": 30, "duration": 150, "velocity": 124}, {"time": 45122, "pitch": 30, "duration": 89, "velocity": 115}, {"time": 45242, "pitch": 28, "duration": 116, "velocity": 113}, {"time": 45361, "pitch": 30, "duration": 103, "velocity": 96}, {"time": 45600, "pitch": 28, "duration": 116, "velocity": 110}, {"time": 45720, "pitch": 30, "duration": 114, "velocity": 102}, {"time": 45959, "pitch": 33, "duration": 107, "velocity": 104}, {"time": 46199, "pitch": 30, "duration": 107, "velocity": 99}, {"time": 46318, "pitch": 28, "duration": 96, "velocity": 110}, {"time": 46438, "pitch": 30, "duration": 96, "velocity": 96}, {"time": 46558, "pitch": 23, "duration": 722, "velocity": 124}, {"time": 47402, "pitch": 23, "duration": 238, "velocity": 115}, {"time": 47763, "pitch": 23, "duration": 718, "velocity": 113}, {"time": 48481, "pitch": 25, "duration": 718, "velocity": 124}, {"time": 49319, "pitch": 25, "duration": 235, "velocity": 115}, {"time": 49678, "pitch": 25, "duration": 717, "velocity": 113}, {"time": 50395, "pitch": 26, "duration": 728, "velocity": 124}, {"time": 51242, "pitch": 29, "duration": 236, "velocity": 115}, {"time": 51601, "pitch": 29, "duration": 718, "velocity": 113}, {"time": 52319, "pitch": 30, "duration": 359, "velocity": 124}, {"time": 52798, "pitch": 30, "duration": 88, "velocity": 115}, {"time": 52917, "pitch": 28, "duration": 117, "velocity": 113}, {"time": 53037, "pitch": 30, "duration": 103, "velocity": 96}, {"time": 53276, "pitch": 28, "duration": 118, "velocity": 110}, {"time": 53398, "pitch": 30, "duration": 116, "velocity": 102}, {"time": 53642, "pitch": 30, "duration": 109, "velocity": 104}, {"time": 53884, "pitch": 30, "duration": 108, "velocity": 99}, {"time": 54004, "pitch": 28, "duration": 95, "velocity": 110}, {"time": 54123, "pitch": 30, "duration": 96, "velocity": 96}, {"time": 54243, "pitch": 35, "duration": 718, "velocity": 124}, {"time": 55080, "pitch": 35, "duration": 236, "velocity": 115}, {"time": 55439, "pitch": 35, "duration": 718, "velocity": 113}, {"time": 56157, "pitch": 33, "duration": 723, "velocity": 124}, {"time": 57002, "pitch": 33, "duration": 237, "velocity": 115}, {"time": 57363, "pitch": 33, "duration": 718, "velocity": 113}, {"time": 58081, "pitch": 26, "duration": 718, "velocity": 124}, {"time": 58918, "pitch": 26, "duration": 236, "velocity": 115}, {"time": 59277, "pitch": 26, "duration": 727, "velocity": 113}, {"time": 60004, "pitch": 25, "duration": 718, "velocity": 124}, {"time": 60842, "pitch": 25, "duration": 235, "velocity": 115}, {"time": 61201, "pitch": 25, "duration": 718, "velocity": 113}, {"time": 61920, "pitch": 30, "duration": 111, "velocity": 124}, {"time": 62160, "pitch": 30, "duration": 122, "velocity": 108}, {"time": 62398, "pitch": 30, "duration": 123, "velocity": 115}, {"time": 62637, "pitch": 30, "duration": 112, "velocity": 102}, {"time": 62877, "pitch": 30, "duration": 120, "velocity": 113}, {"time": 63121, "pitch": 30, "duration": 108, "velocity": 113}, {"time": 63365, "pitch": 30, "duration": 113, "velocity": 120}, {"time": 63604, "pitch": 30, "duration": 107, "velocity": 112}, {"time": 63844, "pitch": 32, "duration": 106, "velocity": 120}, {"time": 64083, "pitch": 32, "duration": 98, "velocity": 112}, {"time": 64322, "pitch": 32, "duration": 102, "velocity": 124}, {"time": 64561, "pitch": 32, "duration": 113, "velocity": 110}, {"time": 64800, "pitch": 32, "duration": 112, "velocity": 113}, {"time": 65041, "pitch": 32, "duration": 109, "velocity": 106}, {"time": 65280, "pitch": 32, "duration": 114, "velocity": 117}, {"time": 65518, "pitch": 32, "duration": 101, "velocity": 110}, {"time": 65758, "pitch": 30, "duration": 113, "velocity": 124}, {"time": 66003, "pitch": 30, "duration": 124, "velocity": 108}, {"time": 66246, "pitch": 30, "duration": 122, "velocity": 115}, {"time": 66485, "pitch": 30, "duration": 111, "velocity": 102}, {"time": 66724, "pitch": 30, "duration": 118, "velocity": 113}, {"time": 66963, "pitch": 30, "duration": 106, "velocity": 113}, {"time": 67203, "pitch": 30, "duration": 113, "velocity": 120}, {"time": 67442, "pitch": 30, "duration": 107, "velocity": 112}, {"time": 67682, "pitch": 30, "duration": 106, "velocity": 120}, {"time": 67921, "pitch": 30, "duration": 98, "velocity": 112}, {"time": 68160, "pitch": 30, "duration": 101, "velocity": 124}, {"time": 68399, "pitch": 30, "duration": 113, "velocity": 110}, {"time": 68638, "pitch": 30, "duration": 112, "velocity": 113}, {"time": 68879, "pitch": 30, "duration": 109, "velocity": 106}, {"time": 69118, "pitch": 30, "duration": 116, "velocity": 117}, {"time": 69361, "pitch": 30, "duration": 103, "velocity": 110}, {"time": 69605, "pitch": 30, "duration": 112, "velocity": 124}, {"time": 69845, "pitch": 30, "duration": 122, "velocity": 108}, {"time": 70083, "pitch": 30, "duration": 123, "velocity": 115}, {"time": 70323, "pitch": 30, "duration": 111, "velocity": 102}, {"time": 70562, "pitch": 30, "duration": 118, "velocity": 113}, {"time": 70801, "pitch": 30, "duration": 106, "velocity": 113}, {"time": 71041, "pitch": 30, "duration": 113, "velocity": 120}, {"time": 71280, "pitch": 30, "duration": 107, "velocity": 112}, {"time": 71520, "pitch": 32, "duration": 106, "velocity": 120}, {"time": 71758, "pitch": 32, "duration": 99, "velocity": 112}, {"time": 71998, "pitch": 32, "duration": 103, "velocity": 124}, {"time": 72242, "pitch": 32, "duration": 115, "velocity": 110}, {"time": 72486, "pitch": 32, "duration": 111, "velocity": 113}, {"time": 72726, "pitch": 32, "duration": 110, "velocity": 106}, {"time": 72965, "pitch": 32, "duration": 114, "velocity": 117}, {"time": 73204, "pitch": 32, "duration": 100, "velocity": 110}, {"time": 73443, "pitch": 30, "duration": 111, "velocity": 124}, {"time": 73683, "pitch": 30, "duration": 122, "velocity": 108}, {"time": 73921, "pitch": 30, "duration": 123, "velocity": 115}, {"time": 74161, "pitch": 30, "duration": 111, "velocity": 102}, {"time": 74400, "pitch": 30, "duration": 118, "velocity": 113}, {"time": 74639, "pitch": 30, "duration": 106, "velocity": 113}, {"time": 74879, "pitch": 30, "duration": 113, "velocity": 120}, {"time": 75118, "pitch": 30, "duration": 106, "velocity": 112}, {"time": 75358, "pitch": 30, "duration": 108, "velocity": 120}, {"time": 75601, "pitch": 30, "duration": 101, "velocity": 112}, {"time": 75845, "pitch": 30, "duration": 102, "velocity": 124}, {"time": 76084, "pitch": 30, "duration": 113, "velocity": 110}, {"time": 76324, "pitch": 30, "duration": 111, "velocity": 113}, {"time": 76564, "pitch": 30, "duration": 110, "velocity": 106}, {"time": 76803, "pitch": 30, "duration": 114, "velocity": 117}, {"time": 77041, "pitch": 30, "duration": 101, "velocity": 110}, {"time": 84956, "pitch": 30, "duration": 152, "velocity": 124}, {"time": 85444, "pitch": 30, "duration": 88, "velocity": 115}, {"time": 85563, "pitch": 28, "duration": 117, "velocity": 113}, {"time": 85683, "pitch": 30, "duration": 103, "velocity": 96}, {"time": 85922, "pitch": 28, "duration": 116, "velocity": 110}, {"time": 86042, "pitch": 30, "duration": 113, "velocity": 102}, {"time": 86281, "pitch": 30, "duration": 107, "velocity": 104}, {"time": 86520, "pitch": 30, "duration": 108, "velocity": 99}, {"time": 86640, "pitch": 28, "duration": 96, "velocity": 110}, {"time": 86760, "pitch": 30, "duration": 95, "velocity": 96}, {"time": 86879, "pitch": 30, "duration": 150, "velocity": 124}, {"time": 87358, "pitch": 30, "duration": 89, "velocity": 115}, {"time": 87477, "pitch": 28, "duration": 117, "velocity": 113}, {"time": 87597, "pitch": 30, "duration": 103, "velocity": 96}, {"time": 87836, "pitch": 28, "duration": 118, "velocity": 110}, {"time": 87958, "pitch": 30, "duration": 116, "velocity": 102}, {"time": 88202, "pitch": 33, "duration": 109, "velocity": 104}, {"time": 88444, "pitch": 30, "duration": 108, "velocity": 99}, {"time": 88564, "pitch": 28, "duration": 95, "velocity": 110}, {"time": 88683, "pitch": 30, "duration": 96, "velocity": 96}, {"time": 88803, "pitch": 30, "duration": 149, "velocity": 124}, {"time": 89281, "pitch": 30, "duration": 89, "velocity": 115}, {"time": 89401, "pitch": 28, "duration": 117, "velocity": 113}, {"time": 89521, "pitch": 30, "duration": 102, "velocity": 96}, {"time": 89760, "pitch": 28, "duration": 116, "velocity": 110}, {"time": 89880, "pitch": 30, "duration": 113, "velocity": 102}, {"time": 90119, "pitch": 30, "duration": 107, "velocity": 104}, {"time": 90358, "pitch": 30, "duration": 108, "velocity": 99}, {"time": 90478, "pitch": 28, "duration": 96, "velocity": 110}, {"time": 90598, "pitch": 30, "duration": 95, "velocity": 96}, {"time": 90717, "pitch": 30, "duration": 150, "velocity": 124}, {"time": 91196, "pitch": 30, "duration": 90, "velocity": 115}, {"time": 91318, "pitch": 28, "duration": 119, "velocity": 113}, {"time": 91440, "pitch": 30, "duration": 104, "velocity": 96}, {"time": 91684, "pitch": 28, "duration": 115, "velocity": 110}, {"time": 91803, "pitch": 30, "duration": 114, "velocity": 102}, {"time": 92043, "pitch": 33, "duration": 106, "velocity": 104}, {"time": 92282, "pitch": 30, "duration": 108, "velocity": 99}, {"time": 92402, "pitch": 28, "duration": 95, "velocity": 110}, {"time": 92521, "pitch": 30, "duration": 96, "velocity": 96}, {"time": 92641, "pitch": 30, "duration": 149, "velocity": 124}, {"time": 93119, "pitch": 30, "duration": 89, "velocity": 115}, {"time": 93239, "pitch": 28, "duration": 117, "velocity": 113}, {"time": 93359, "pitch": 30, "duration": 102, "velocity": 96}, {"time": 93598, "pitch": 28, "duration": 116, "velocity": 110}, {"time": 93718, "pitch": 30, "duration": 113, "velocity": 102}, {"time": 93957, "pitch": 30, "duration": 107, "velocity": 104}, {"time": 94199, "pitch": 30, "duration": 109, "velocity": 99}, {"time": 94321, "pitch": 28, "duration": 97, "velocity": 110}, {"time": 94443, "pitch": 30, "duration": 97, "velocity": 96}, {"time": 94565, "pitch": 30, "duration": 149, "velocity": 124}, {"time": 95043, "pitch": 30, "duration": 89, "velocity": 115}, {"time": 95163, "pitch": 28, "duration": 116, "velocity": 113}, {"time": 95282, "pitch": 30, "duration": 103, "velocity": 96}, {"time": 95522, "pitch": 28, "duration": 115, "velocity": 110}, {"time": 95641, "pitch": 30, "duration": 114, "velocity": 102}, {"time": 95881, "pitch": 33, "duration": 106, "velocity": 104}, {"time": 96120, "pitch": 30, "duration": 108, "velocity": 99}, {"time": 96239, "pitch": 28, "duration": 96, "velocity": 110}, {"time": 96359, "pitch": 30, "duration": 96, "velocity": 96}, {"time": 96479, "pitch": 30, "duration": 149, "velocity": 124}, {"time": 96957, "pitch": 30, "duration": 89, "velocity": 115}, {"time": 97077, "pitch": 28, "duration": 117, "velocity": 113}, {"time": 97197, "pitch": 30, "duration": 102, "velocity": 96}, {"time": 97436, "pitch": 28, "duration": 118, "velocity": 110}, {"time": 97558, "pitch": 30, "duration": 116, "velocity": 102}, {"time": 97802, "pitch": 30, "duration": 109, "velocity": 104}, {"time": 98044, "pitch": 30, "duration": 107, "velocity": 99}, {"time": 98163, "pitch": 28, "duration": 96, "velocity": 110}, {"time": 98283, "pitch": 30, "duration": 96, "velocity": 96}, {"time": 98402, "pitch": 30, "duration": 150, "velocity": 124}, {"time": 98881, "pitch": 30, "duration": 89, "velocity": 115}, {"time": 99001, "pitch": 28, "duration": 116, "velocity": 113}, {"time": 99120, "pitch": 30, "duration": 103, "velocity": 96}, {"time": 99360, "pitch": 28, "duration": 115, "velocity": 110}, {"time": 99479, "pitch": 30, "duration": 114, "velocity": 102}, {"time": 99718, "pitch": 33, "duration": 107, "velocity": 104}, {"time": 99958, "pitch": 30, "duration": 107, "velocity": 99}, {"time": 100077, "pitch": 28, "duration": 96, "velocity": 110}, {"time": 100197, "pitch": 30, "duration": 96, "velocity": 96}, {"time": 100317, "pitch": 30, "duration": 152, "velocity": 124}, {"time": 100805, "pitch": 30, "duration": 88, "velocity": 115}, {"time": 100924, "pitch": 28, "duration": 117, "velocity": 113}, {"time": 101044, "pitch": 30, "duration": 103, "velocity": 96}, {"time": 101283, "pitch": 28, "duration": 116, "velocity": 110}, {"time": 101403, "pitch": 30, "duration": 114, "velocity": 102}, {"time": 101642, "pitch": 30, "duration": 107, "velocity": 104}, {"time": 101881, "pitch": 30, "duration": 108, "velocity": 99}, {"time": 102001, "pitch": 28, "duration": 96, "velocity": 110}, {"time": 102121, "pitch": 30, "duration": 95, "velocity": 96}, {"time": 102240, "pitch": 30, "duration": 150, "velocity": 124}, {"time": 102719, "pitch": 30, "duration": 89, "velocity": 115}, {"time": 102839, "pitch": 28, "duration": 116, "velocity": 113}, {"time": 102958, "pitch": 30, "duration": 103, "velocity": 96}, {"time": 103197, "pitch": 28, "duration": 116, "velocity": 110}, {"time": 103317, "pitch": 30, "duration": 114, "velocity": 102}, {"time": 103556, "pitch": 33, "duration": 107, "velocity": 104}, {"time": 103798, "pitch": 30, "duration": 110, "velocity": 99}, {"time": 103920, "pitch": 28, "duration": 98, "velocity": 110}, {"time": 104042, "pitch": 30, "duration": 98, "velocity": 96}, {"time": 104164, "pitch": 30, "duration": 150, "velocity": 124}, {"time": 104643, "pitch": 30, "duration": 88, "velocity": 115}, {"time": 104762, "pitch": 28, "duration": 117, "velocity": 113}, {"time": 104882, "pitch": 30, "duration": 103, "velocity": 96}, {"time": 105121, "pitch": 28, "duration": 116, "velocity": 110}, {"time": 105241, "pitch": 30, "duration": 113, "velocity": 102}, {"time": 105480, "pitch": 30, "duration": 107, "velocity": 104}, {"time": 105719, "pitch": 30, "duration": 108, "velocity": 99}, {"time": 105839, "pitch": 28, "duration": 96, "velocity": 110}, {"time": 105959, "pitch": 30, "duration": 95, "velocity": 96}, {"time": 106078, "pitch": 30, "duration": 150, "velocity": 124}, {"time": 106557, "pitch": 30, "duration": 89, "velocity": 115}, {"time": 106676, "pitch": 28, "duration": 117, "velocity": 113}, {"time": 106796, "pitch": 30, "duration": 103, "velocity": 96}, {"time": 107035, "pitch": 28, "duration": 118, "velocity": 110}, {"time": 107157, "pitch": 30, "duration": 116, "velocity": 102}, {"time": 107401, "pitch": 33, "duration": 109, "velocity": 104}, {"time": 107643, "pitch": 30, "duration": 108, "velocity": 99}, {"time": 107763, "pitch": 28, "duration": 95, "velocity": 110}, {"time": 107882, "pitch": 30, "duration": 96, "velocity": 96}, {"time": 108002, "pitch": 30, "duration": 150, "velocity": 124}, {"time": 108481, "pitch": 30, "duration": 88, "velocity": 115}, {"time": 108600, "pitch": 28, "duration": 117, "velocity": 113}, {"time": 108720, "pitch": 30, "duration": 102, "velocity": 96}, {"time": 108959, "pitch": 28, "duration": 116, "velocity": 110}, {"time": 109079, "pitch": 30, "duration": 113, "velocity": 102}, {"time": 109318, "pitch": 30, "duration": 107, "velocity": 104}, {"time": 109557, "pitch": 30, "duration": 108, "velocity": 99}, {"time": 109677, "pitch": 28, "duration": 96, "velocity": 110}, {"time": 109797, "pitch": 30, "duration": 95, "velocity": 96}, {"time": 109916, "pitch": 30, "duration": 153, "velocity": 124}, {"time": 110404, "pitch": 30, "duration": 89, "velocity": 115}, {"time": 110524, "pitch": 28, "duration": 116, "velocity": 113}, {"time": 110643, "pitch": 30, "duration": 103, "velocity": 96}, {"time": 110883, "pitch": 28, "duration": 115, "velocity": 110}, {"time": 111002, "pitch": 30, "duration": 114, "velocity": 102}, {"time": 111242, "pitch": 33, "duration": 106, "velocity": 104}, {"time": 111481, "pitch": 30, "duration": 108, "velocity": 99}, {"time": 111601, "pitch": 28, "duration": 95, "velocity": 110}, {"time": 111720, "pitch": 30, "duration": 96, "velocity": 96}, {"time": 111840, "pitch": 30, "duration": 149, "velocity": 124}, {"time": 112318, "pitch": 30, "duration": 89, "velocity": 115}, {"time": 112438, "pitch": 28, "duration": 117, "velocity": 113}, {"time": 112558, "pitch": 30, "duration": 102, "velocity": 96}, {"time": 112797, "pitch": 28, "duration": 116, "velocity": 110}, {"time": 112917, "pitch": 30, "duration": 113, "velocity": 102}, {"time": 113156, "pitch": 30, "duration": 107, "velocity": 104}, {"time": 113398, "pitch": 30, "duration": 109, "velocity": 99}, {"time": 113520, "pitch": 28, "duration": 97, "velocity": 110}, {"time": 113642, "pitch": 30, "duration": 97, "velocity": 96}, {"time": 113764, "pitch": 30, "duration": 149, "velocity": 124}, {"time": 114242, "pitch": 30, "duration": 89, "velocity": 115}, {"time": 114362, "pitch": 28, "duration": 116, "velocity": 113}, {"time": 114481, "pitch": 30, "duration": 103, "velocity": 96}, {"time": 114721, "pitch": 28, "duration": 115, "velocity": 110}, {"time": 114840, "pitch": 30, "duration": 114, "velocity": 102}, {"time": 115080, "pitch": 33, "duration": 106, "velocity": 104}, {"time": 115319, "pitch": 30, "duration": 108, "velocity": 99}, {"time": 115439, "pitch": 28, "duration": 95, "velocity": 110}, {"time": 115558, "pitch": 30, "duration": 96, "velocity": 96}, {"time": 115678, "pitch": 23, "duration": 722, "velocity": 124}, {"time": 116522, "pitch": 23, "duration": 238, "velocity": 115}, {"time": 116884, "pitch": 23, "duration": 717, "velocity": 113}, {"time": 117601, "pitch": 25, "duration": 718, "velocity": 124}, {"time": 118439, "pitch": 25, "duration": 235, "velocity": 115}, {"time": 118798, "pitch": 25, "duration": 718, "velocity": 113}, {"time": 119516, "pitch": 26, "duration": 727, "velocity": 124}, {"time": 120363, "pitch": 29, "duration": 235, "velocity": 115}, {"time": 120722, "pitch": 29, "duration": 717, "velocity": 113}, {"time": 121439, "pitch": 30, "duration": 359, "velocity": 124}, {"time": 121918, "pitch": 30, "duration": 89, "velocity": 115}, {"time": 122038, "pitch": 28, "duration": 116, "velocity": 113}, {"time": 122157, "pitch": 30, "duration": 103, "velocity": 96}, {"time": 122397, "pitch": 28, "duration": 117, "velocity": 110}, {"time": 122518, "pitch": 30, "duration": 116, "velocity": 102}, {"time": 122763, "pitch": 30, "duration": 108, "velocity": 104}, {"time": 123004, "pitch": 30, "duration": 108, "velocity": 99}, {"time": 123124, "pitch": 28, "duration": 95, "velocity": 110}, {"time": 123243, "pitch": 30, "duration": 96, "velocity": 96}, {"time": 123363, "pitch": 35, "duration": 718, "velocity": 124}, {"time": 124201, "pitch": 35, "duration": 235, "velocity": 115}, {"time": 124559, "pitch": 35, "duration": 718, "velocity": 113}, {"time": 125277, "pitch": 33, "duration": 723, "velocity": 124}, {"time": 126122, "pitch": 33, "duration": 237, "velocity": 115}, {"time": 126483, "pitch": 33, "duration": 718, "velocity": 113}, {"time": 127201, "pitch": 26, "duration": 718, "velocity": 124}, {"time": 128038, "pitch": 26, "duration": 236, "velocity": 115}, {"time": 128397, "pitch": 26, "duration": 728, "velocity": 113}, {"time": 129125, "pitch": 25, "duration": 717, "velocity": 124}, {"time": 129962, "pitch": 25, "duration": 235, "velocity": 115}, {"time": 130321, "pitch": 25, "duration": 718, "velocity": 113}, {"time": 131040, "pitch": 30, "duration": 112, "velocity": 124}, {"time": 131280, "pitch": 30, "duration": 122, "velocity": 108}, {"time": 131518, "pitch": 30, "duration": 123, "velocity": 115}, {"time": 131758, "pitch": 30, "duration": 111, "velocity": 102}, {"time": 131997, "pitch": 30, "duration": 120, "velocity": 113}, {"time": 132241, "pitch": 30, "duration": 108, "velocity": 113}, {"time": 132485, "pitch": 30, "duration": 114, "velocity": 120}, {"time": 132724, "pitch": 30, "duration": 107, "velocity": 112}, {"time": 132965, "pitch": 32, "duration": 105, "velocity": 120}, {"time": 133203, "pitch": 32, "duration": 99, "velocity": 112}, {"time": 133442, "pitch": 32, "duration": 102, "velocity": 124}, {"time": 133681, "pitch": 32, "duration": 113, "velocity": 110}, {"time": 133921, "pitch": 32, "duration": 111, "velocity": 113}, {"time": 134161, "pitch": 32, "duration": 110, "velocity": 106}, {"time": 134400, "pitch": 32, "duration": 114, "velocity": 117}, {"time": 134639, "pitch": 32, "duration": 100, "velocity": 110}, {"time": 134878, "pitch": 30, "duration": 111, "velocity": 124}, {"time": 135118, "pitch": 30, "duration": 122, "velocity": 108}, {"time": 135356, "pitch": 30, "duration": 125, "velocity": 115}, {"time": 135600, "pitch": 30, "duration": 114, "velocity": 102}, {"time": 135844, "pitch": 30, "duration": 118, "velocity": 113}, {"time": 136084, "pitch": 30, "duration": 105, "velocity": 113}, {"time": 136323, "pitch": 30, "duration": 114, "velocity": 120}, {"time": 136562, "pitch": 30, "duration": 107, "velocity": 112}, {"time": 136802, "pitch": 30, "duration": 106, "velocity": 120}, {"time": 137041, "pitch": 30, "duration": 98, "velocity": 112}, {"time": 137280, "pitch": 30, "duration": 102, "velocity": 124}, {"time": 137519, "pitch": 30, "duration": 113, "velocity": 110}, {"time": 137759, "pitch": 30, "duration": 111, "velocity": 113}, {"time": 137999, "pitch": 30, "duration": 110, "velocity": 106}, {"time": 138238, "pitch": 30, "duration": 116, "velocity": 117}, {"time": 138481, "pitch": 30, "duration": 103, "velocity": 110}, {"time": 138725, "pitch": 30, "duration": 112, "velocity": 124}, {"time": 138965, "pitch": 30, "duration": 122, "velocity": 108}, {"time": 139204, "pitch": 30, "duration": 122, "velocity": 115}, {"time": 139443, "pitch": 30, "duration": 112, "velocity": 102}, {"time": 139682, "pitch": 30, "duration": 118, "velocity": 113}, {"time": 139922, "pitch": 30, "duration": 105, "velocity": 113}, {"time": 140161, "pitch": 30, "duration": 113, "velocity": 120}, {"time": 140400, "pitch": 30, "duration": 107, "velocity": 112}, {"time": 140640, "pitch": 32, "duration": 106, "velocity": 120}, {"time": 140879, "pitch": 32, "duration": 98, "velocity": 112}, {"time": 141118, "pitch": 32, "duration": 102, "velocity": 124}, {"time": 141357, "pitch": 32, "duration": 113, "velocity": 110}, {"time": 141597, "pitch": 32, "duration": 113, "velocity": 113}, {"time": 141842, "pitch": 32, "duration": 111, "velocity": 106}, {"time": 142086, "pitch": 32, "duration": 113, "velocity": 117}, {"time": 142324, "pitch": 32, "duration": 100, "velocity": 110}, {"time": 142563, "pitch": 30, "duration": 112, "velocity": 124}, {"time": 142803, "pitch": 30, "duration": 122, "velocity": 108}, {"time": 143042, "pitch": 30, "duration": 122, "velocity": 115}, {"time": 143281, "pitch": 30, "duration": 112, "velocity": 102}, {"time": 143520, "pitch": 30, "duration": 118, "velocity": 113}, {"time": 143759, "pitch": 30, "duration": 106, "velocity": 113}, {"time": 143999, "pitch": 30, "duration": 113, "velocity": 120}, {"time": 144238, "pitch": 30, "duration": 107, "velocity": 112}, {"time": 144478, "pitch": 30, "duration": 108, "velocity": 120}, {"time": 144721, "pitch": 30, "duration": 101, "velocity": 112}, {"time": 144965, "pitch": 30, "duration": 102, "velocity": 124}, {"time": 145205, "pitch": 30, "duration": 112, "velocity": 110}, {"time": 145444, "pitch": 30, "duration": 112, "velocity": 113}, {"time": 145684, "pitch": 30, "duration": 110, "velocity": 106}, {"time": 145923, "pitch": 30, "duration": 114, "velocity": 117}, {"time": 146162, "pitch": 30, "duration": 100, "velocity": 110}, {"time": 146401, "pitch": 30, "duration": 112, "velocity": 124}, {"time": 146641, "pitch": 30, "duration": 122, "velocity": 108}, {"time": 146880, "pitch": 30, "duration": 122, "velocity": 115}, {"time": 147119, "pitch": 30, "duration": 111, "velocity": 102}, {"time": 147358, "pitch": 30, "duration": 118, "velocity": 113}, {"time": 147597, "pitch": 30, "duration": 106, "velocity": 113}, {"time": 147837, "pitch": 30, "duration": 116, "velocity": 120}, {"time": 148081, "pitch": 30, "duration": 108, "velocity": 112}, {"time": 148326, "pitch": 32, "duration": 105, "velocity": 120}, {"time": 148564, "pitch": 32, "duration": 99, "velocity": 112}, {"time": 148803, "pitch": 32, "duration": 102, "velocity": 124}, {"time": 149043, "pitch": 32, "duration": 112, "velocity": 110}, {"time": 149282, "pitch": 32, "duration": 111, "velocity": 113}, {"time": 149522, "pitch": 32, "duration": 110, "velocity": 106}, {"time": 149761, "pitch": 32, "duration": 114, "velocity": 117}, {"time": 150000, "pitch": 32, "duration": 100, "velocity": 110}, {"time": 150239, "pitch": 30, "duration": 112, "velocity": 124}, {"time": 150479, "pitch": 30, "duration": 122, "velocity": 108}, {"time": 150717, "pitch": 30, "duration": 126, "velocity": 115}, {"time": 150961, "pitch": 30, "duration": 114, "velocity": 102}, {"time": 151205, "pitch": 30, "duration": 118, "velocity": 113}, {"time": 151445, "pitch": 30, "duration": 105, "velocity": 113}, {"time": 151684, "pitch": 30, "duration": 114, "velocity": 120}, {"time": 151923, "pitch": 30, "duration": 107, "velocity": 112}, {"time": 152164, "pitch": 30, "duration": 105, "velocity": 120}, {"time": 152402, "pitch": 30, "duration": 99, "velocity": 112}, {"time": 152641, "pitch": 30, "duration": 102, "velocity": 124}, {"time": 152880, "pitch": 30, "duration": 113, "velocity": 110}, {"time": 153120, "pitch": 30, "duration": 111, "velocity": 113}, {"time": 153360, "pitch": 30, "duration": 110, "velocity": 106}, {"time": 153599, "pitch": 30, "duration": 114, "velocity": 117}, {"time": 153838, "pitch": 30, "duration": 100, "velocity": 110}, {"time": 154077, "pitch": 30, "duration": 114, "velocity": 124}, {"time": 154322, "pitch": 30, "duration": 124, "velocity": 108}, {"time": 154565, "pitch": 30, "duration": 122, "velocity": 115}, {"time": 154804, "pitch": 30, "duration": 112, "velocity": 102}, {"time": 155043, "pitch": 30, "duration": 118, "velocity": 113}, {"time": 155283, "pitch": 30, "duration": 105, "velocity": 113}, {"time": 155522, "pitch": 30, "duration": 114, "velocity": 120}, {"time": 155761, "pitch": 30, "duration": 107, "velocity": 112}, {"time": 156001, "pitch": 32, "duration": 106, "velocity": 120}, {"time": 156240, "pitch": 32, "duration": 98, "velocity": 112}, {"time": 156479, "pitch": 32, "duration": 102, "velocity": 124}, {"time": 156718, "pitch": 32, "duration": 113, "velocity": 110}, {"time": 156958, "pitch": 32, "duration": 113, "velocity": 113}, {"time": 157203, "pitch": 32, "duration": 112, "velocity": 106}, {"time": 157447, "pitch": 32, "duration": 113, "velocity": 117}, {"time": 157685, "pitch": 32, "duration": 101, "velocity": 110}, {"time": 157924, "pitch": 30, "duration": 112, "velocity": 124}, {"time": 158164, "pitch": 30, "duration": 122, "velocity": 108}, {"time": 158403, "pitch": 30, "duration": 122, "velocity": 115}, {"time": 158642, "pitch": 30, "duration": 112, "velocity": 102}, {"time": 158881, "pitch": 30, "duration": 118, "velocity": 113}, {"time": 159121, "pitch": 30, "duration": 105, "velocity": 113}, {"time": 159360, "pitch": 30, "duration": 114, "velocity": 120}, {"time": 159599, "pitch": 30, "duration": 107, "velocity": 112}, {"time": 159839, "pitch": 30, "duration": 106, "velocity": 120}, {"time": 160078, "pitch": 30, "duration": 98, "velocity": 112}, {"time": 160317, "pitch": 30, "duration": 104, "velocity": 124}, {"time": 160561, "pitch": 30, "duration": 115, "velocity": 110}, {"time": 160805, "pitch": 30, "duration": 112, "velocity": 113}, {"time": 161045, "pitch": 30, "duration": 110, "velocity": 106}, {"time": 161285, "pitch": 30, "duration": 113, "velocity": 117}, {"time": 161523, "pitch": 30, "duration": 101, "velocity": 110}, {"time": 177123, "pitch": 30, "duration": 112, "velocity": 124}, {"time": 177363, "pitch": 30, "duration": 122, "velocity": 108}, {"time": 177602, "pitch": 30, "duration": 122, "velocity": 115}, {"time": 177841, "pitch": 30, "duration": 112, "velocity": 102}, {"time": 178080, "pitch": 30, "duration": 118, "velocity": 113}, {"time": 178320, "pitch": 30, "duration": 105, "velocity": 113}, {"time": 178559, "pitch": 30, "duration": 114, "velocity": 120}, {"time": 178798, "pitch": 30, "duration": 107, "velocity": 112}, {"time": 179038, "pitch": 32, "duration": 108, "velocity": 120}, {"time": 179281, "pitch": 32, "duration": 101, "velocity": 112}, {"time": 179525, "pitch": 32, "duration": 102, "velocity": 124}, {"time": 179765, "pitch": 32, "duration": 112, "velocity": 110}, {"time": 180004, "pitch": 32, "duration": 112, "velocity": 113}, {"time": 180244, "pitch": 32, "duration": 110, "velocity": 106}, {"time": 180484, "pitch": 32, "duration": 113, "velocity": 117}, {"time": 180722, "pitch": 32, "duration": 101, "velocity": 110}, {"time": 180961, "pitch": 30, "duration": 112, "velocity": 124}, {"time": 181201, "pitch": 30, "duration": 122, "velocity": 108}, {"time": 181440, "pitch": 30, "duration": 122, "velocity": 115}, {"time": 181679, "pitch": 30, "duration": 112, "velocity": 102}, {"time": 181918, "pitch": 30, "duration": 118, "velocity": 113}, {"time": 182158, "pitch": 30, "duration": 105, "velocity": 113}, {"time": 182397, "pitch": 30, "duration": 116, "velocity": 120}, {"time": 182641, "pitch": 30, "duration": 109, "velocity": 112}, {"time": 182886, "pitch": 30, "duration": 105, "velocity": 120}, {"time": 183124, "pitch": 30, "duration": 99, "velocity": 112}, {"time": 183363, "pitch": 30, "duration": 102, "velocity": 124}, {"time": 183603, "pitch": 30, "duration": 112, "velocity": 110}, {"time": 183842, "pitch": 30, "duration": 112, "velocity": 113}, {"time": 184082, "pitch": 30, "duration": 110, "velocity": 106}, {"time": 184321, "pitch": 30, "duration": 114, "velocity": 117}, {"time": 184560, "pitch": 30, "duration": 100, "velocity": 110}, {"time": 184799, "pitch": 30, "duration": 112, "velocity": 124}, {"time": 185039, "pitch": 30, "duration": 122, "velocity": 108}, {"time": 185278, "pitch": 30, "duration": 125, "velocity": 115}, {"time": 185522, "pitch": 30, "duration": 114, "velocity": 102}, {"time": 185766, "pitch": 30, "duration": 117, "velocity": 113}, {"time": 186005, "pitch": 30, "duration": 106, "velocity": 113}, {"time": 186244, "pitch": 30, "duration": 114, "velocity": 120}, {"time": 186483, "pitch": 30, "duration": 107, "velocity": 112}, {"time": 186724, "pitch": 32, "duration": 105, "velocity": 120}, {"time": 186962, "pitch": 32, "duration": 99, "velocity": 112}, {"time": 187201, "pitch": 32, "duration": 102, "velocity": 124}, {"time": 187441, "pitch": 32, "duration": 112, "velocity": 110}, {"time": 187680, "pitch": 32, "duration": 111, "velocity": 113}, {"time": 187920, "pitch": 32, "duration": 110, "velocity": 106}, {"time": 188159, "pitch": 32, "duration": 114, "velocity": 117}, {"time": 188398, "pitch": 32, "duration": 100, "velocity": 110}, {"time": 188637, "pitch": 30, "duration": 114, "velocity": 124}, {"time": 188882, "pitch": 30, "duration": 124, "velocity": 108}, {"time": 189125, "pitch": 30, "duration": 123, "velocity": 115}, {"time": 189364, "pitch": 30, "duration": 112, "velocity": 102}, {"time": 189603, "pitch": 30, "duration": 118, "velocity": 113}, {"time": 189843, "pitch": 30, "duration": 105, "velocity": 113}, {"time": 190082, "pitch": 30, "duration": 114, "velocity": 120}, {"time": 190321, "pitch": 30, "duration": 107, "velocity": 112}, {"time": 190560, "pitch": 35, "duration": 717, "velocity": 124}, {"time": 191397, "pitch": 35, "duration": 235, "velocity": 115}, {"time": 191756, "pitch": 35, "duration": 727, "velocity": 113}, {"time": 192483, "pitch": 37, "duration": 718, "velocity": 124}, {"time": 193321, "pitch": 37, "duration": 235, "velocity": 115}, {"time": 193680, "pitch": 37, "duration": 718, "velocity": 113}, {"time": 194398, "pitch": 38, "duration": 722, "velocity": 124}, {"time": 195242, "pitch": 38, "duration": 238, "velocity": 115}, {"time": 195603, "pitch": 38, "duration": 718, "velocity": 113}, {"time": 196321, "pitch": 37, "duration": 718, "velocity": 124}, {"time": 197159, "pitch": 37, "duration": 235, "velocity": 115}, {"time": 197518, "pitch": 37, "duration": 717, "velocity": 113}, {"time": 198235, "pitch": 35, "duration": 728, "velocity": 124}, {"time": 199082, "pitch": 35, "duration": 236, "velocity": 115}, {"time": 199441, "pitch": 35, "duration": 718, "velocity": 113}, {"time": 200159, "pitch": 37, "duration": 718, "velocity": 124}, {"time": 200997, "pitch": 37, "duration": 237, "velocity": 115}, {"time": 201360, "pitch": 37, "duration": 723, "velocity": 113}, {"time": 202083, "pitch": 38, "duration": 718, "velocity": 124}, {"time": 202920, "pitch": 38, "duration": 236, "velocity": 115}, {"time": 203279, "pitch": 38, "duration": 718, "velocity": 113}, {"time": 203998, "pitch": 38, "duration": 318, "velocity": 124}, {"time": 204367, "pitch": 38, "duration": 301, "velocity": 112}, {"time": 204721, "pitch": 38, "duration": 5020, "velocity": 117}], "annotations": [{"time": 285, "annotation": {"number": 7, "value": 98}, "group": "control_change"}, {"time": 307, "annotation": {"number": 11, "value": 127}, "group": "control_change"}, {"time": 329, "annotation": {"number": 10, "value": 66}, "group": "control_change"}, {"time": 350, "annotation": {"number": 91, "value": 0}, "group": "control_change"}, {"time": 372, "annotation": {"number": 93, "value": 0}, "group": "control_change"}, {"time": 394, "annotation": {"number": 101, "value": 0}, "group": "control_change"}, {"time": 416, "annotation": {"number": 100, "value": 0}, "group": "control_change"}, {"time": 438, "annotation": {"number": 6, "value": 12}, "group": "control_change"}, {"time": 460, "annotation": {"number": 101, "value": 127}, "group": "control_change"}, {"time": 484, "annotation": {"number": 100, "value": 127}, "group": "control_change"}]}, {"program": 0, "is_drum": false, "name": "E.PIANO", "annotations": [{"time": 219, "annotation": {"number": 0, "value": 0}, "group": "control_change"}, {"time": 241, "annotation": {"number": 32, "value": 0}, "group": "control_change"}]}, {"program": 5, "is_drum": false, "name": "E.PIANO", "notes": [{"time": 485, "pitch": 42, "duration": 915, "velocity": 96}, {"time": 485, "pitch": 54, "duration": 938, "velocity": 102}, {"time": 485, "pitch": 64, "duration": 907, "velocity": 110}, {"time": 485, "pitch": 68, "duration": 889, "velocity": 102}, {"time": 485, "pitch": 69, "duration": 932, "velocity": 91}, {"time": 485, "pitch": 73, "duration": 996, "velocity": 92}, {"time": 2160, "pitch": 42, "duration": 34, "velocity": 83}, {"time": 2160, "pitch": 54, "duration": 1877, "velocity": 105}, {"time": 2160, "pitch": 66, "duration": 1643, "velocity": 98}, {"time": 2160, "pitch": 70, "duration": 1638, "velocity": 102}, {"time": 2160, "pitch": 71, "duration": 1674, "velocity": 100}, {"time": 2160, "pitch": 75, "duration": 1723, "velocity": 92}, {"time": 4323, "pitch": 42, "duration": 1400, "velocity": 102}, {"time": 4323, "pitch": 54, "duration": 1460, "velocity": 103}, {"time": 4323, "pitch": 69, "duration": 975, "velocity": 96}, {"time": 4323, "pitch": 73, "duration": 923, "velocity": 103}, {"time": 4323, "pitch": 76, "duration": 1030, "velocity": 103}, {"time": 5998, "pitch": 42, "duration": 1998, "velocity": 102}, {"time": 5998, "pitch": 54, "duration": 1358, "velocity": 102}, {"time": 5998, "pitch": 71, "duration": 1038, "velocity": 102}, {"time": 5998, "pitch": 75, "duration": 871, "velocity": 100}, {"time": 5998, "pitch": 78, "duration": 849, "velocity": 94}, {"time": 7203, "pitch": 71, "duration": 279, "velocity": 110}, {"time": 7203, "pitch": 75, "duration": 178, "velocity": 100}, {"time": 7203, "pitch": 80, "duration": 263, "velocity": 107}, {"time": 7443, "pitch": 54, "duration": 91, "velocity": 19}, {"time": 7572, "pitch": 71, "duration": 236, "velocity": 105}, {"time": 7572, "pitch": 75, "duration": 212, "velocity": 112}, {"time": 7921, "pitch": 54, "duration": 111, "velocity": 92}, {"time": 8161, "pitch": 42, "duration": 1373, "velocity": 98}, {"time": 8161, "pitch": 54, "duration": 1410, "velocity": 98}, {"time": 8161, "pitch": 64, "duration": 1066, "velocity": 110}, {"time": 8161, "pitch": 68, "duration": 1064, "velocity": 105}, {"time": 8161, "pitch": 69, "duration": 1064, "velocity": 92}, {"time": 8161, "pitch": 73, "duration": 1106, "velocity": 98}, {"time": 9845, "pitch": 42, "duration": 1735, "velocity": 102}, {"time": 9845, "pitch": 54, "duration": 1779, "velocity": 112}, {"time": 9845, "pitch": 66, "duration": 1405, "velocity": 103}, {"time": 9845, "pitch": 70, "duration": 1395, "velocity": 98}, {"time": 9845, "pitch": 71, "duration": 1452, "velocity": 107}, {"time": 9845, "pitch": 75, "duration": 1500, "velocity": 91}, {"time": 11998, "pitch": 42, "duration": 1420, "velocity": 96}, {"time": 11998, "pitch": 54, "duration": 1454, "velocity": 105}, {"time": 11998, "pitch": 69, "duration": 856, "velocity": 96}, {"time": 11998, "pitch": 73, "duration": 833, "velocity": 103}, {"time": 11998, "pitch": 76, "duration": 903, "velocity": 92}, {"time": 13683, "pitch": 42, "duration": 1824, "velocity": 98}, {"time": 13683, "pitch": 54, "duration": 1844, "velocity": 110}, {"time": 13683, "pitch": 71, "duration": 1818, "velocity": 103}, {"time": 13683, "pitch": 75, "duration": 810, "velocity": 103}, {"time": 13683, "pitch": 78, "duration": 767, "velocity": 98}, {"time": 14879, "pitch": 83, "duration": 297, "velocity": 103}, {"time": 15248, "pitch": 80, "duration": 214, "velocity": 91}, {"time": 15836, "pitch": 30, "duration": 925, "velocity": 94}, {"time": 15836, "pitch": 42, "duration": 948, "velocity": 100}, {"time": 15836, "pitch": 52, "duration": 917, "velocity": 108}, {"time": 15836, "pitch": 56, "duration": 899, "velocity": 100}, {"time": 15836, "pitch": 57, "duration": 942, "velocity": 90}, {"time": 15836, "pitch": 61, "duration": 1006, "velocity": 91}, {"time": 17521, "pitch": 30, "duration": 34, "velocity": 80}, {"time": 17521, "pitch": 42, "duration": 1878, "velocity": 104}, {"time": 17521, "pitch": 54, "duration": 1643, "velocity": 96}, {"time": 17521, "pitch": 58, "duration": 1637, "velocity": 100}, {"time": 17521, "pitch": 59, "duration": 1674, "velocity": 99}, {"time": 17521, "pitch": 63, "duration": 1723, "velocity": 91}, {"time": 19684, "pitch": 30, "duration": 1400, "velocity": 100}, {"time": 19684, "pitch": 42, "duration": 1460, "velocity": 102}, {"time": 19684, "pitch": 57, "duration": 975, "velocity": 94}, {"time": 19684, "pitch": 61, "duration": 923, "velocity": 102}, {"time": 19684, "pitch": 64, "duration": 1031, "velocity": 102}, {"time": 21359, "pitch": 30, "duration": 1998, "velocity": 100}, {"time": 21359, "pitch": 42, "duration": 1358, "velocity": 100}, {"time": 21359, "pitch": 59, "duration": 1035, "velocity": 100}, {"time": 21359, "pitch": 63, "duration": 865, "velocity": 99}, {"time": 21359, "pitch": 66, "duration": 843, "velocity": 91}, {"time": 22564, "pitch": 59, "duration": 279, "velocity": 108}, {"time": 22564, "pitch": 63, "duration": 178, "velocity": 99}, {"time": 22564, "pitch": 68, "duration": 263, "velocity": 104}, {"time": 22804, "pitch": 42, "duration": 91, "velocity": 17}, {"time": 22933, "pitch": 59, "duration": 236, "velocity": 104}, {"time": 22933, "pitch": 63, "duration": 212, "velocity": 111}, {"time": 23282, "pitch": 42, "duration": 111, "velocity": 91}, {"time": 23522, "pitch": 30, "duration": 1365, "velocity": 96}, {"time": 23522, "pitch": 42, "duration": 1401, "velocity": 96}, {"time": 23522, "pitch": 52, "duration": 1064, "velocity": 108}, {"time": 23522, "pitch": 56, "duration": 1062, "velocity": 104}, {"time": 23522, "pitch": 57, "duration": 1062, "velocity": 91}, {"time": 23522, "pitch": 61, "duration": 1103, "velocity": 96}, {"time": 25201, "pitch": 30, "duration": 1740, "velocity": 100}, {"time": 25201, "pitch": 42, "duration": 1784, "velocity": 111}, {"time": 25201, "pitch": 54, "duration": 1410, "velocity": 102}, {"time": 25201, "pitch": 58, "duration": 1400, "velocity": 96}, {"time": 25201, "pitch": 59, "duration": 1457, "velocity": 104}, {"time": 25201, "pitch": 63, "duration": 1505, "velocity": 90}, {"time": 27360, "pitch": 30, "duration": 1418, "velocity": 109}, {"time": 27360, "pitch": 42, "duration": 1453, "velocity": 119}, {"time": 27360, "pitch": 57, "duration": 848, "velocity": 109}, {"time": 27360, "pitch": 61, "duration": 825, "velocity": 117}, {"time": 27360, "pitch": 64, "duration": 894, "velocity": 104}, {"time": 29044, "pitch": 30, "duration": 1824, "velocity": 111}, {"time": 29044, "pitch": 42, "duration": 1844, "velocity": 125}, {"time": 29044, "pitch": 59, "duration": 1818, "velocity": 117}, {"time": 29044, "pitch": 63, "duration": 810, "velocity": 117}, {"time": 29044, "pitch": 66, "duration": 767, "velocity": 111}, {"time": 30240, "pitch": 71, "duration": 297, "velocity": 117}, {"time": 30609, "pitch": 68, "duration": 215, "velocity": 103}, {"time": 31197, "pitch": 30, "duration": 1375, "velocity": 96}, {"time": 31197, "pitch": 42, "duration": 1412, "velocity": 96}, {"time": 31197, "pitch": 52, "duration": 1075, "velocity": 108}, {"time": 31197, "pitch": 56, "duration": 1073, "velocity": 104}, {"time": 31197, "pitch": 57, "duration": 1073, "velocity": 91}, {"time": 31197, "pitch": 61, "duration": 1114, "velocity": 96}, {"time": 32882, "pitch": 30, "duration": 1736, "velocity": 100}, {"time": 32882, "pitch": 42, "duration": 1781, "velocity": 111}, {"time": 32882, "pitch": 54, "duration": 1405, "velocity": 102}, {"time": 32882, "pitch": 58, "duration": 1395, "velocity": 96}, {"time": 32882, "pitch": 59, "duration": 1451, "velocity": 104}, {"time": 32882, "pitch": 63, "duration": 1500, "velocity": 90}, {"time": 35045, "pitch": 30, "duration": 1410, "velocity": 109}, {"time": 35045, "pitch": 42, "duration": 1443, "velocity": 119}, {"time": 35045, "pitch": 57, "duration": 848, "velocity": 109}, {"time": 35045, "pitch": 61, "duration": 825, "velocity": 117}, {"time": 35045, "pitch": 64, "duration": 894, "velocity": 104}, {"time": 36720, "pitch": 30, "duration": 1834, "velocity": 111}, {"time": 36720, "pitch": 42, "duration": 1854, "velocity": 125}, {"time": 36720, "pitch": 59, "duration": 1828, "velocity": 117}, {"time": 36720, "pitch": 63, "duration": 812, "velocity": 117}, {"time": 36720, "pitch": 66, "duration": 767, "velocity": 111}, {"time": 37926, "pitch": 71, "duration": 297, "velocity": 117}, {"time": 38294, "pitch": 68, "duration": 215, "velocity": 103}, {"time": 38883, "pitch": 30, "duration": 1365, "velocity": 96}, {"time": 38883, "pitch": 42, "duration": 1401, "velocity": 96}, {"time": 38883, "pitch": 52, "duration": 1065, "velocity": 108}, {"time": 38883, "pitch": 56, "duration": 1063, "velocity": 104}, {"time": 38883, "pitch": 57, "duration": 1063, "velocity": 91}, {"time": 38883, "pitch": 61, "duration": 1103, "velocity": 96}, {"time": 40558, "pitch": 30, "duration": 1744, "velocity": 100}, {"time": 40558, "pitch": 42, "duration": 1788, "velocity": 111}, {"time": 40558, "pitch": 54, "duration": 1414, "velocity": 102}, {"time": 40558, "pitch": 58, "duration": 1404, "velocity": 96}, {"time": 40558, "pitch": 59, "duration": 1461, "velocity": 104}, {"time": 40558, "pitch": 63, "duration": 1510, "velocity": 90}, {"time": 42721, "pitch": 30, "duration": 1409, "velocity": 109}, {"time": 42721, "pitch": 42, "duration": 1443, "velocity": 119}, {"time": 42721, "pitch": 57, "duration": 848, "velocity": 109}, {"time": 42721, "pitch": 61, "duration": 825, "velocity": 117}, {"time": 42721, "pitch": 64, "duration": 894, "velocity": 104}, {"time": 44400, "pitch": 30, "duration": 1830, "velocity": 111}, {"time": 44400, "pitch": 42, "duration": 1849, "velocity": 125}, {"time": 44400, "pitch": 59, "duration": 1824, "velocity": 117}, {"time": 44400, "pitch": 63, "duration": 816, "velocity": 117}, {"time": 44400, "pitch": 66, "duration": 772, "velocity": 111}, {"time": 45601, "pitch": 71, "duration": 298, "velocity": 117}, {"time": 45970, "pitch": 68, "duration": 215, "velocity": 103}, {"time": 46559, "pitch": 35, "duration": 1671, "velocity": 100}, {"time": 46559, "pitch": 50, "duration": 562, "velocity": 103}, {"time": 46559, "pitch": 54, "duration": 542, "velocity": 117}, {"time": 46559, "pitch": 57, "duration": 571, "velocity": 100}, {"time": 46559, "pitch": 61, "duration": 578, "velocity": 119}, {"time": 48483, "pitch": 57, "duration": 1029, "velocity": 101}, {"time": 48483, "pitch": 61, "duration": 992, "velocity": 107}, {"time": 48483, "pitch": 64, "duration": 998, "velocity": 111}, {"time": 48483, "pitch": 68, "duration": 1033, "velocity": 99}, {"time": 48612, "pitch": 35, "duration": 44, "velocity": 63}, {"time": 48612, "pitch": 37, "duration": 1464, "velocity": 63}, {"time": 50396, "pitch": 41, "duration": 1401, "velocity": 69}, {"time": 50396, "pitch": 53, "duration": 490, "velocity": 109}, {"time": 50396, "pitch": 56, "duration": 450, "velocity": 111}, {"time": 50396, "pitch": 59, "duration": 471, "velocity": 104}, {"time": 50396, "pitch": 62, "duration": 537, "velocity": 99}, {"time": 51363, "pitch": 56, "duration": 402, "velocity": 114}, {"time": 51363, "pitch": 59, "duration": 338, "velocity": 103}, {"time": 51363, "pitch": 62, "duration": 377, "velocity": 94}, {"time": 51363, "pitch": 65, "duration": 387, "velocity": 96}, {"time": 52320, "pitch": 42, "duration": 1725, "velocity": 107}, {"time": 52320, "pitch": 57, "duration": 1336, "velocity": 101}, {"time": 52320, "pitch": 61, "duration": 1285, "velocity": 92}, {"time": 52320, "pitch": 66, "duration": 1294, "velocity": 117}, {"time": 54244, "pitch": 35, "duration": 1588, "velocity": 100}, {"time": 54244, "pitch": 50, "duration": 588, "velocity": 117}, {"time": 54244, "pitch": 54, "duration": 564, "velocity": 114}, {"time": 54244, "pitch": 57, "duration": 593, "velocity": 109}, {"time": 54244, "pitch": 61, "duration": 650, "velocity": 121}, {"time": 56159, "pitch": 45, "duration": 1572, "velocity": 98}, {"time": 56159, "pitch": 57, "duration": 1327, "velocity": 91}, {"time": 56159, "pitch": 61, "duration": 1312, "velocity": 109}, {"time": 56159, "pitch": 64, "duration": 1308, "velocity": 109}, {"time": 56159, "pitch": 68, "duration": 1335, "velocity": 101}, {"time": 56288, "pitch": 67, "duration": 34, "velocity": 50}, {"time": 58082, "pitch": 54, "duration": 1018, "velocity": 117}, {"time": 58082, "pitch": 57, "duration": 941, "velocity": 107}, {"time": 58082, "pitch": 62, "duration": 954, "velocity": 121}, {"time": 60005, "pitch": 37, "duration": 1228, "velocity": 103}, {"time": 60005, "pitch": 53, "duration": 851, "velocity": 116}, {"time": 60005, "pitch": 56, "duration": 842, "velocity": 117}, {"time": 60005, "pitch": 59, "duration": 812, "velocity": 114}, {"time": 60005, "pitch": 61, "duration": 917, "velocity": 121}, {"time": 61920, "pitch": 42, "duration": 1668, "velocity": 105}, {"time": 61920, "pitch": 52, "duration": 1467, "velocity": 115}, {"time": 61920, "pitch": 56, "duration": 1473, "velocity": 118}, {"time": 61920, "pitch": 57, "duration": 1495, "velocity": 105}, {"time": 61920, "pitch": 61, "duration": 1520, "velocity": 111}, {"time": 62637, "pitch": 30, "duration": 1008, "velocity": 108}, {"time": 63844, "pitch": 30, "duration": 1561, "velocity": 93}, {"time": 63844, "pitch": 42, "duration": 1008, "velocity": 103}, {"time": 63844, "pitch": 54, "duration": 641, "velocity": 120}, {"time": 63844, "pitch": 60, "duration": 642, "velocity": 105}, {"time": 63844, "pitch": 63, "duration": 623, "velocity": 101}, {"time": 64561, "pitch": 54, "duration": 803, "velocity": 108}, {"time": 64561, "pitch": 60, "duration": 856, "velocity": 95}, {"time": 64561, "pitch": 63, "duration": 820, "velocity": 96}, {"time": 65409, "pitch": 42, "duration": 46, "velocity": 82}, {"time": 65758, "pitch": 30, "duration": 1678, "velocity": 95}, {"time": 65758, "pitch": 42, "duration": 1662, "velocity": 103}, {"time": 65758, "pitch": 55, "duration": 583, "velocity": 110}, {"time": 65758, "pitch": 59, "duration": 562, "velocity": 111}, {"time": 65758, "pitch": 62, "duration": 581, "velocity": 110}, {"time": 66485, "pitch": 55, "duration": 686, "velocity": 101}, {"time": 66485, "pitch": 59, "duration": 638, "velocity": 108}, {"time": 66485, "pitch": 62, "duration": 706, "velocity": 101}, {"time": 67681, "pitch": 30, "duration": 539, "velocity": 91}, {"time": 67681, "pitch": 42, "duration": 519, "velocity": 99}, {"time": 67681, "pitch": 52, "duration": 558, "velocity": 110}, {"time": 67681, "pitch": 56, "duration": 550, "velocity": 111}, {"time": 67681, "pitch": 57, "duration": 579, "velocity": 105}, {"time": 67681, "pitch": 61, "duration": 543, "velocity": 115}, {"time": 68399, "pitch": 30, "duration": 1007, "velocity": 95}, {"time": 68399, "pitch": 42, "duration": 998, "velocity": 111}, {"time": 68399, "pitch": 52, "duration": 481, "velocity": 110}, {"time": 68399, "pitch": 57, "duration": 526, "velocity": 108}, {"time": 68399, "pitch": 61, "duration": 527, "velocity": 108}, {"time": 69605, "pitch": 42, "duration": 1659, "velocity": 105}, {"time": 69605, "pitch": 52, "duration": 1458, "velocity": 115}, {"time": 69605, "pitch": 56, "duration": 1464, "velocity": 118}, {"time": 69605, "pitch": 57, "duration": 1485, "velocity": 105}, {"time": 69605, "pitch": 61, "duration": 1510, "velocity": 111}, {"time": 70323, "pitch": 30, "duration": 998, "velocity": 108}, {"time": 71520, "pitch": 30, "duration": 1570, "velocity": 93}, {"time": 71520, "pitch": 42, "duration": 1018, "velocity": 103}, {"time": 71520, "pitch": 54, "duration": 644, "velocity": 120}, {"time": 71520, "pitch": 60, "duration": 645, "velocity": 105}, {"time": 71520, "pitch": 63, "duration": 626, "velocity": 101}, {"time": 72242, "pitch": 54, "duration": 807, "velocity": 108}, {"time": 72242, "pitch": 60, "duration": 860, "velocity": 95}, {"time": 72242, "pitch": 63, "duration": 824, "velocity": 96}, {"time": 73094, "pitch": 42, "duration": 47, "velocity": 82}, {"time": 73443, "pitch": 30, "duration": 1669, "velocity": 95}, {"time": 73443, "pitch": 42, "duration": 1653, "velocity": 103}, {"time": 73443, "pitch": 55, "duration": 574, "velocity": 110}, {"time": 73443, "pitch": 59, "duration": 553, "velocity": 111}, {"time": 73443, "pitch": 62, "duration": 572, "velocity": 110}, {"time": 74161, "pitch": 55, "duration": 686, "velocity": 101}, {"time": 74161, "pitch": 59, "duration": 638, "velocity": 108}, {"time": 74161, "pitch": 62, "duration": 706, "velocity": 101}, {"time": 75357, "pitch": 30, "duration": 548, "velocity": 91}, {"time": 75357, "pitch": 42, "duration": 528, "velocity": 99}, {"time": 75357, "pitch": 52, "duration": 567, "velocity": 110}, {"time": 75357, "pitch": 56, "duration": 559, "velocity": 111}, {"time": 75357, "pitch": 57, "duration": 588, "velocity": 105}, {"time": 75357, "pitch": 61, "duration": 552, "velocity": 115}, {"time": 76084, "pitch": 30, "duration": 1001, "velocity": 95}, {"time": 76084, "pitch": 42, "duration": 992, "velocity": 111}, {"time": 76084, "pitch": 52, "duration": 481, "velocity": 110}, {"time": 76084, "pitch": 57, "duration": 526, "velocity": 108}, {"time": 76084, "pitch": 61, "duration": 527, "velocity": 108}, {"time": 84957, "pitch": 30, "duration": 924, "velocity": 94}, {"time": 84957, "pitch": 42, "duration": 947, "velocity": 100}, {"time": 84957, "pitch": 52, "duration": 916, "velocity": 108}, {"time": 84957, "pitch": 56, "duration": 898, "velocity": 100}, {"time": 84957, "pitch": 57, "duration": 941, "velocity": 90}, {"time": 84957, "pitch": 61, "duration": 1005, "velocity": 91}, {"time": 86641, "pitch": 30, "duration": 34, "velocity": 80}, {"time": 86641, "pitch": 42, "duration": 1878, "velocity": 104}, {"time": 86641, "pitch": 54, "duration": 1643, "velocity": 96}, {"time": 86641, "pitch": 58, "duration": 1638, "velocity": 100}, {"time": 86641, "pitch": 59, "duration": 1674, "velocity": 99}, {"time": 86641, "pitch": 63, "duration": 1723, "velocity": 91}, {"time": 88804, "pitch": 30, "duration": 1401, "velocity": 100}, {"time": 88804, "pitch": 42, "duration": 1461, "velocity": 102}, {"time": 88804, "pitch": 57, "duration": 975, "velocity": 94}, {"time": 88804, "pitch": 61, "duration": 923, "velocity": 102}, {"time": 88804, "pitch": 64, "duration": 1031, "velocity": 102}, {"time": 90479, "pitch": 30, "duration": 1998, "velocity": 100}, {"time": 90479, "pitch": 42, "duration": 1358, "velocity": 100}, {"time": 90479, "pitch": 59, "duration": 1035, "velocity": 100}, {"time": 90479, "pitch": 63, "duration": 865, "velocity": 99}, {"time": 90479, "pitch": 66, "duration": 843, "velocity": 91}, {"time": 91685, "pitch": 59, "duration": 278, "velocity": 108}, {"time": 91685, "pitch": 63, "duration": 177, "velocity": 99}, {"time": 91685, "pitch": 68, "duration": 262, "velocity": 104}, {"time": 91924, "pitch": 42, "duration": 92, "velocity": 17}, {"time": 92054, "pitch": 59, "duration": 235, "velocity": 104}, {"time": 92054, "pitch": 63, "duration": 211, "velocity": 111}, {"time": 92403, "pitch": 42, "duration": 110, "velocity": 91}, {"time": 92642, "pitch": 30, "duration": 1365, "velocity": 96}, {"time": 92642, "pitch": 42, "duration": 1402, "velocity": 96}, {"time": 92642, "pitch": 52, "duration": 1065, "velocity": 108}, {"time": 92642, "pitch": 56, "duration": 1063, "velocity": 104}, {"time": 92642, "pitch": 57, "duration": 1063, "velocity": 91}, {"time": 92642, "pitch": 61, "duration": 1104, "velocity": 96}, {"time": 94322, "pitch": 30, "duration": 1739, "velocity": 100}, {"time": 94322, "pitch": 42, "duration": 1783, "velocity": 111}, {"time": 94322, "pitch": 54, "duration": 1409, "velocity": 102}, {"time": 94322, "pitch": 58, "duration": 1399, "velocity": 96}, {"time": 94322, "pitch": 59, "duration": 1456, "velocity": 104}, {"time": 94322, "pitch": 63, "duration": 1505, "velocity": 90}, {"time": 96480, "pitch": 30, "duration": 1419, "velocity": 109}, {"time": 96480, "pitch": 42, "duration": 1453, "velocity": 119}, {"time": 96480, "pitch": 57, "duration": 848, "velocity": 109}, {"time": 96480, "pitch": 61, "duration": 825, "velocity": 117}, {"time": 96480, "pitch": 64, "duration": 894, "velocity": 104}, {"time": 98164, "pitch": 30, "duration": 1825, "velocity": 111}, {"time": 98164, "pitch": 42, "duration": 1845, "velocity": 125}, {"time": 98164, "pitch": 59, "duration": 1819, "velocity": 117}, {"time": 98164, "pitch": 63, "duration": 811, "velocity": 117}, {"time": 98164, "pitch": 66, "duration": 767, "velocity": 111}, {"time": 99361, "pitch": 71, "duration": 297, "velocity": 117}, {"time": 99729, "pitch": 68, "duration": 215, "velocity": 103}, {"time": 100318, "pitch": 30, "duration": 1374, "velocity": 96}, {"time": 100318, "pitch": 42, "duration": 1411, "velocity": 96}, {"time": 100318, "pitch": 52, "duration": 1074, "velocity": 108}, {"time": 100318, "pitch": 56, "duration": 1072, "velocity": 104}, {"time": 100318, "pitch": 57, "duration": 1072, "velocity": 91}, {"time": 100318, "pitch": 61, "duration": 1113, "velocity": 96}, {"time": 102002, "pitch": 30, "duration": 1736, "velocity": 100}, {"time": 102002, "pitch": 42, "duration": 1781, "velocity": 111}, {"time": 102002, "pitch": 54, "duration": 1405, "velocity": 102}, {"time": 102002, "pitch": 58, "duration": 1395, "velocity": 96}, {"time": 102002, "pitch": 59, "duration": 1452, "velocity": 104}, {"time": 102002, "pitch": 63, "duration": 1501, "velocity": 90}, {"time": 104165, "pitch": 30, "duration": 1410, "velocity": 109}, {"time": 104165, "pitch": 42, "duration": 1444, "velocity": 119}, {"time": 104165, "pitch": 57, "duration": 848, "velocity": 109}, {"time": 104165, "pitch": 61, "duration": 826, "velocity": 117}, {"time": 104165, "pitch": 64, "duration": 894, "velocity": 104}, {"time": 105840, "pitch": 30, "duration": 1834, "velocity": 111}, {"time": 105840, "pitch": 42, "duration": 1854, "velocity": 125}, {"time": 105840, "pitch": 59, "duration": 1828, "velocity": 117}, {"time": 105840, "pitch": 63, "duration": 811, "velocity": 117}, {"time": 105840, "pitch": 66, "duration": 767, "velocity": 111}, {"time": 107036, "pitch": 71, "duration": 303, "velocity": 117}, {"time": 107413, "pitch": 68, "duration": 216, "velocity": 103}, {"time": 108003, "pitch": 30, "duration": 1365, "velocity": 96}, {"time": 108003, "pitch": 42, "duration": 1402, "velocity": 96}, {"time": 108003, "pitch": 52, "duration": 1065, "velocity": 108}, {"time": 108003, "pitch": 56, "duration": 1063, "velocity": 104}, {"time": 108003, "pitch": 57, "duration": 1063, "velocity": 91}, {"time": 108003, "pitch": 61, "duration": 1104, "velocity": 96}, {"time": 109678, "pitch": 30, "duration": 1744, "velocity": 100}, {"time": 109678, "pitch": 42, "duration": 1788, "velocity": 111}, {"time": 109678, "pitch": 54, "duration": 1414, "velocity": 102}, {"time": 109678, "pitch": 58, "duration": 1404, "velocity": 96}, {"time": 109678, "pitch": 59, "duration": 1461, "velocity": 104}, {"time": 109678, "pitch": 63, "duration": 1510, "velocity": 90}, {"time": 111841, "pitch": 30, "duration": 1410, "velocity": 109}, {"time": 111841, "pitch": 42, "duration": 1444, "velocity": 119}, {"time": 111841, "pitch": 57, "duration": 848, "velocity": 109}, {"time": 111841, "pitch": 61, "duration": 825, "velocity": 117}, {"time": 111841, "pitch": 64, "duration": 894, "velocity": 104}, {"time": 113521, "pitch": 30, "duration": 1829, "velocity": 111}, {"time": 113521, "pitch": 42, "duration": 1849, "velocity": 125}, {"time": 113521, "pitch": 59, "duration": 1823, "velocity": 117}, {"time": 113521, "pitch": 63, "duration": 815, "velocity": 117}, {"time": 113521, "pitch": 66, "duration": 771, "velocity": 111}, {"time": 114722, "pitch": 71, "duration": 297, "velocity": 117}, {"time": 115091, "pitch": 68, "duration": 214, "velocity": 103}, {"time": 115679, "pitch": 35, "duration": 1671, "velocity": 100}, {"time": 115679, "pitch": 50, "duration": 563, "velocity": 103}, {"time": 115679, "pitch": 54, "duration": 542, "velocity": 117}, {"time": 115679, "pitch": 57, "duration": 571, "velocity": 100}, {"time": 115679, "pitch": 61, "duration": 578, "velocity": 119}, {"time": 117603, "pitch": 57, "duration": 1029, "velocity": 101}, {"time": 117603, "pitch": 61, "duration": 992, "velocity": 107}, {"time": 117603, "pitch": 64, "duration": 998, "velocity": 111}, {"time": 117603, "pitch": 68, "duration": 1033, "velocity": 99}, {"time": 117732, "pitch": 35, "duration": 44, "velocity": 63}, {"time": 117732, "pitch": 37, "duration": 1465, "velocity": 63}, {"time": 119517, "pitch": 41, "duration": 1400, "velocity": 69}, {"time": 119517, "pitch": 53, "duration": 490, "velocity": 109}, {"time": 119517, "pitch": 56, "duration": 449, "velocity": 111}, {"time": 119517, "pitch": 59, "duration": 470, "velocity": 104}, {"time": 119517, "pitch": 62, "duration": 537, "velocity": 99}, {"time": 120483, "pitch": 56, "duration": 402, "velocity": 114}, {"time": 120483, "pitch": 59, "duration": 338, "velocity": 103}, {"time": 120483, "pitch": 62, "duration": 377, "velocity": 94}, {"time": 120483, "pitch": 65, "duration": 387, "velocity": 96}, {"time": 121440, "pitch": 42, "duration": 1726, "velocity": 107}, {"time": 121440, "pitch": 57, "duration": 1336, "velocity": 101}, {"time": 121440, "pitch": 61, "duration": 1285, "velocity": 92}, {"time": 121440, "pitch": 66, "duration": 1294, "velocity": 117}, {"time": 123364, "pitch": 35, "duration": 1588, "velocity": 100}, {"time": 123364, "pitch": 50, "duration": 588, "velocity": 117}, {"time": 123364, "pitch": 54, "duration": 564, "velocity": 114}, {"time": 123364, "pitch": 57, "duration": 593, "velocity": 109}, {"time": 123364, "pitch": 61, "duration": 650, "velocity": 121}, {"time": 125279, "pitch": 45, "duration": 1572, "velocity": 98}, {"time": 125279, "pitch": 57, "duration": 1327, "velocity": 91}, {"time": 125279, "pitch": 61, "duration": 1312, "velocity": 109}, {"time": 125279, "pitch": 64, "duration": 1308, "velocity": 109}, {"time": 125279, "pitch": 68, "duration": 1336, "velocity": 101}, {"time": 125408, "pitch": 67, "duration": 34, "velocity": 50}, {"time": 127202, "pitch": 54, "duration": 1018, "velocity": 117}, {"time": 127202, "pitch": 57, "duration": 941, "velocity": 107}, {"time": 127202, "pitch": 62, "duration": 954, "velocity": 121}, {"time": 129126, "pitch": 37, "duration": 1227, "velocity": 103}, {"time": 129126, "pitch": 53, "duration": 850, "velocity": 116}, {"time": 129126, "pitch": 56, "duration": 841, "velocity": 117}, {"time": 129126, "pitch": 59, "duration": 811, "velocity": 114}, {"time": 129126, "pitch": 61, "duration": 916, "velocity": 121}, {"time": 131040, "pitch": 42, "duration": 1668, "velocity": 105}, {"time": 131040, "pitch": 52, "duration": 1467, "velocity": 115}, {"time": 131040, "pitch": 56, "duration": 1473, "velocity": 118}, {"time": 131040, "pitch": 57, "duration": 1495, "velocity": 105}, {"time": 131040, "pitch": 61, "duration": 1520, "velocity": 111}, {"time": 131758, "pitch": 30, "duration": 1007, "velocity": 108}, {"time": 132965, "pitch": 30, "duration": 1560, "velocity": 93}, {"time": 132965, "pitch": 42, "duration": 1008, "velocity": 103}, {"time": 132965, "pitch": 54, "duration": 641, "velocity": 120}, {"time": 132965, "pitch": 60, "duration": 642, "velocity": 105}, {"time": 132965, "pitch": 63, "duration": 623, "velocity": 101}, {"time": 133681, "pitch": 54, "duration": 803, "velocity": 108}, {"time": 133681, "pitch": 60, "duration": 856, "velocity": 95}, {"time": 133681, "pitch": 63, "duration": 820, "velocity": 96}, {"time": 134529, "pitch": 42, "duration": 47, "velocity": 82}, {"time": 134878, "pitch": 30, "duration": 1678, "velocity": 95}, {"time": 134878, "pitch": 42, "duration": 1662, "velocity": 103}, {"time": 134878, "pitch": 55, "duration": 576, "velocity": 110}, {"time": 134878, "pitch": 59, "duration": 555, "velocity": 111}, {"time": 134878, "pitch": 62, "duration": 574, "velocity": 110}, {"time": 135600, "pitch": 55, "duration": 691, "velocity": 101}, {"time": 135600, "pitch": 59, "duration": 643, "velocity": 108}, {"time": 135600, "pitch": 62, "duration": 711, "velocity": 101}, {"time": 136801, "pitch": 30, "duration": 539, "velocity": 91}, {"time": 136801, "pitch": 42, "duration": 519, "velocity": 99}, {"time": 136801, "pitch": 52, "duration": 558, "velocity": 110}, {"time": 136801, "pitch": 56, "duration": 550, "velocity": 111}, {"time": 136801, "pitch": 57, "duration": 579, "velocity": 105}, {"time": 136801, "pitch": 61, "duration": 543, "velocity": 115}, {"time": 137519, "pitch": 30, "duration": 1007, "velocity": 95}, {"time": 137519, "pitch": 42, "duration": 998, "velocity": 111}, {"time": 137519, "pitch": 52, "duration": 481, "velocity": 110}, {"time": 137519, "pitch": 57, "duration": 526, "velocity": 108}, {"time": 137519, "pitch": 61, "duration": 527, "velocity": 108}, {"time": 138725, "pitch": 42, "duration": 1659, "velocity": 105}, {"time": 138725, "pitch": 52, "duration": 1458, "velocity": 115}, {"time": 138725, "pitch": 56, "duration": 1464, "velocity": 118}, {"time": 138725, "pitch": 57, "duration": 1486, "velocity": 105}, {"time": 138725, "pitch": 61, "duration": 1511, "velocity": 111}, {"time": 139443, "pitch": 30, "duration": 998, "velocity": 108}, {"time": 140640, "pitch": 30, "duration": 1570, "velocity": 93}, {"time": 140640, "pitch": 42, "duration": 1009, "velocity": 103}, {"time": 140640, "pitch": 54, "duration": 641, "velocity": 120}, {"time": 140640, "pitch": 60, "duration": 642, "velocity": 105}, {"time": 140640, "pitch": 63, "duration": 624, "velocity": 101}, {"time": 141357, "pitch": 54, "duration": 812, "velocity": 108}, {"time": 141357, "pitch": 60, "duration": 865, "velocity": 95}, {"time": 141357, "pitch": 63, "duration": 829, "velocity": 96}, {"time": 142214, "pitch": 42, "duration": 47, "velocity": 82}, {"time": 142563, "pitch": 30, "duration": 1669, "velocity": 95}, {"time": 142563, "pitch": 42, "duration": 1653, "velocity": 103}, {"time": 142563, "pitch": 55, "duration": 574, "velocity": 110}, {"time": 142563, "pitch": 59, "duration": 553, "velocity": 111}, {"time": 142563, "pitch": 62, "duration": 572, "velocity": 110}, {"time": 143281, "pitch": 55, "duration": 686, "velocity": 101}, {"time": 143281, "pitch": 59, "duration": 638, "velocity": 108}, {"time": 143281, "pitch": 62, "duration": 706, "velocity": 101}, {"time": 144477, "pitch": 30, "duration": 548, "velocity": 91}, {"time": 144477, "pitch": 42, "duration": 528, "velocity": 99}, {"time": 144477, "pitch": 52, "duration": 567, "velocity": 110}, {"time": 144477, "pitch": 56, "duration": 559, "velocity": 111}, {"time": 144477, "pitch": 57, "duration": 588, "velocity": 105}, {"time": 144477, "pitch": 61, "duration": 552, "velocity": 115}, {"time": 145205, "pitch": 30, "duration": 1001, "velocity": 95}, {"time": 145205, "pitch": 42, "duration": 992, "velocity": 111}, {"time": 145205, "pitch": 52, "duration": 480, "velocity": 110}, {"time": 145205, "pitch": 57, "duration": 525, "velocity": 108}, {"time": 145205, "pitch": 61, "duration": 526, "velocity": 108}, {"time": 146401, "pitch": 42, "duration": 1663, "velocity": 105}, {"time": 146401, "pitch": 52, "duration": 1458, "velocity": 115}, {"time": 146401, "pitch": 56, "duration": 1464, "velocity": 118}, {"time": 146401, "pitch": 57, "duration": 1486, "velocity": 105}, {"time": 146401, "pitch": 61, "duration": 1512, "velocity": 111}, {"time": 147119, "pitch": 30, "duration": 1003, "velocity": 108}, {"time": 148326, "pitch": 30, "duration": 1560, "velocity": 93}, {"time": 148326, "pitch": 42, "duration": 1008, "velocity": 103}, {"time": 148326, "pitch": 54, "duration": 641, "velocity": 120}, {"time": 148326, "pitch": 60, "duration": 642, "velocity": 105}, {"time": 148326, "pitch": 63, "duration": 623, "velocity": 101}, {"time": 149043, "pitch": 54, "duration": 802, "velocity": 108}, {"time": 149043, "pitch": 60, "duration": 855, "velocity": 95}, {"time": 149043, "pitch": 63, "duration": 819, "velocity": 96}, {"time": 149890, "pitch": 42, "duration": 47, "velocity": 82}, {"time": 150239, "pitch": 30, "duration": 1678, "velocity": 95}, {"time": 150239, "pitch": 42, "duration": 1662, "velocity": 103}, {"time": 150239, "pitch": 55, "duration": 576, "velocity": 110}, {"time": 150239, "pitch": 59, "duration": 555, "velocity": 111}, {"time": 150239, "pitch": 62, "duration": 574, "velocity": 110}, {"time": 150961, "pitch": 55, "duration": 691, "velocity": 101}, {"time": 150961, "pitch": 59, "duration": 643, "velocity": 108}, {"time": 150961, "pitch": 62, "duration": 711, "velocity": 101}, {"time": 152163, "pitch": 30, "duration": 538, "velocity": 91}, {"time": 152163, "pitch": 42, "duration": 518, "velocity": 99}, {"time": 152163, "pitch": 52, "duration": 557, "velocity": 110}, {"time": 152163, "pitch": 56, "duration": 549, "velocity": 111}, {"time": 152163, "pitch": 57, "duration": 578, "velocity": 105}, {"time": 152163, "pitch": 61, "duration": 542, "velocity": 115}, {"time": 152880, "pitch": 30, "duration": 1001, "velocity": 95}, {"time": 152880, "pitch": 42, "duration": 992, "velocity": 111}, {"time": 152880, "pitch": 52, "duration": 481, "velocity": 110}, {"time": 152880, "pitch": 57, "duration": 526, "velocity": 108}, {"time": 152880, "pitch": 61, "duration": 527, "velocity": 108}, {"time": 154077, "pitch": 42, "duration": 1668, "velocity": 105}, {"time": 154077, "pitch": 52, "duration": 1467, "velocity": 115}, {"time": 154077, "pitch": 56, "duration": 1473, "velocity": 118}, {"time": 154077, "pitch": 57, "duration": 1495, "velocity": 105}, {"time": 154077, "pitch": 61, "duration": 1520, "velocity": 111}, {"time": 154804, "pitch": 30, "duration": 998, "velocity": 108}, {"time": 156001, "pitch": 30, "duration": 1570, "velocity": 93}, {"time": 156001, "pitch": 42, "duration": 1009, "velocity": 103}, {"time": 156001, "pitch": 54, "duration": 642, "velocity": 120}, {"time": 156001, "pitch": 60, "duration": 643, "velocity": 105}, {"time": 156001, "pitch": 63, "duration": 624, "velocity": 101}, {"time": 156718, "pitch": 54, "duration": 812, "velocity": 108}, {"time": 156718, "pitch": 60, "duration": 865, "velocity": 95}, {"time": 156718, "pitch": 63, "duration": 829, "velocity": 96}, {"time": 157575, "pitch": 42, "duration": 47, "velocity": 82}, {"time": 157924, "pitch": 30, "duration": 1669, "velocity": 95}, {"time": 157924, "pitch": 42, "duration": 1653, "velocity": 103}, {"time": 157924, "pitch": 55, "duration": 574, "velocity": 110}, {"time": 157924, "pitch": 59, "duration": 554, "velocity": 111}, {"time": 157924, "pitch": 62, "duration": 572, "velocity": 110}, {"time": 158642, "pitch": 55, "duration": 686, "velocity": 101}, {"time": 158642, "pitch": 59, "duration": 638, "velocity": 108}, {"time": 158642, "pitch": 62, "duration": 706, "velocity": 101}, {"time": 159838, "pitch": 30, "duration": 540, "velocity": 91}, {"time": 159838, "pitch": 42, "duration": 520, "velocity": 99}, {"time": 159838, "pitch": 52, "duration": 559, "velocity": 110}, {"time": 159838, "pitch": 56, "duration": 551, "velocity": 111}, {"time": 159838, "pitch": 57, "duration": 581, "velocity": 105}, {"time": 159838, "pitch": 61, "duration": 544, "velocity": 115}, {"time": 160561, "pitch": 30, "duration": 1006, "velocity": 95}, {"time": 160561, "pitch": 42, "duration": 997, "velocity": 111}, {"time": 160561, "pitch": 52, "duration": 485, "velocity": 110}, {"time": 160561, "pitch": 57, "duration": 530, "velocity": 108}, {"time": 160561, "pitch": 61, "duration": 531, "velocity": 108}, {"time": 177123, "pitch": 42, "duration": 1659, "velocity": 105}, {"time": 177123, "pitch": 52, "duration": 1458, "velocity": 115}, {"time": 177123, "pitch": 56, "duration": 1464, "velocity": 118}, {"time": 177123, "pitch": 57, "duration": 1486, "velocity": 105}, {"time": 177123, "pitch": 61, "duration": 1511, "velocity": 111}, {"time": 177841, "pitch": 30, "duration": 998, "velocity": 108}, {"time": 179038, "pitch": 30, "duration": 1570, "velocity": 93}, {"time": 179038, "pitch": 42, "duration": 1018, "velocity": 103}, {"time": 179038, "pitch": 54, "duration": 651, "velocity": 120}, {"time": 179038, "pitch": 60, "duration": 652, "velocity": 105}, {"time": 179038, "pitch": 63, "duration": 633, "velocity": 101}, {"time": 179765, "pitch": 54, "duration": 802, "velocity": 108}, {"time": 179765, "pitch": 60, "duration": 855, "velocity": 95}, {"time": 179765, "pitch": 63, "duration": 819, "velocity": 96}, {"time": 180612, "pitch": 42, "duration": 47, "velocity": 82}, {"time": 180961, "pitch": 30, "duration": 1674, "velocity": 95}, {"time": 180961, "pitch": 42, "duration": 1657, "velocity": 103}, {"time": 180961, "pitch": 55, "duration": 574, "velocity": 110}, {"time": 180961, "pitch": 59, "duration": 553, "velocity": 111}, {"time": 180961, "pitch": 62, "duration": 572, "velocity": 110}, {"time": 181679, "pitch": 55, "duration": 686, "velocity": 101}, {"time": 181679, "pitch": 59, "duration": 638, "velocity": 108}, {"time": 181679, "pitch": 62, "duration": 706, "velocity": 101}, {"time": 182885, "pitch": 30, "duration": 538, "velocity": 91}, {"time": 182885, "pitch": 42, "duration": 518, "velocity": 99}, {"time": 182885, "pitch": 52, "duration": 557, "velocity": 110}, {"time": 182885, "pitch": 56, "duration": 549, "velocity": 111}, {"time": 182885, "pitch": 57, "duration": 578, "velocity": 105}, {"time": 182885, "pitch": 61, "duration": 542, "velocity": 115}, {"time": 183603, "pitch": 30, "duration": 1001, "velocity": 95}, {"time": 183603, "pitch": 42, "duration": 992, "velocity": 111}, {"time": 183603, "pitch": 52, "duration": 480, "velocity": 110}, {"time": 183603, "pitch": 57, "duration": 525, "velocity": 108}, {"time": 183603, "pitch": 61, "duration": 526, "velocity": 108}, {"time": 184799, "pitch": 42, "duration": 1668, "velocity": 105}, {"time": 184799, "pitch": 52, "duration": 1467, "velocity": 115}, {"time": 184799, "pitch": 56, "duration": 1473, "velocity": 118}, {"time": 184799, "pitch": 57, "duration": 1495, "velocity": 105}, {"time": 184799, "pitch": 61, "duration": 1520, "velocity": 111}, {"time": 185522, "pitch": 30, "duration": 1002, "velocity": 108}, {"time": 186724, "pitch": 30, "duration": 1560, "velocity": 93}, {"time": 186724, "pitch": 42, "duration": 1008, "velocity": 103}, {"time": 186724, "pitch": 54, "duration": 641, "velocity": 120}, {"time": 186724, "pitch": 60, "duration": 642, "velocity": 105}, {"time": 186724, "pitch": 63, "duration": 623, "velocity": 101}, {"time": 187441, "pitch": 54, "duration": 802, "velocity": 108}, {"time": 187441, "pitch": 60, "duration": 855, "velocity": 95}, {"time": 187441, "pitch": 63, "duration": 819, "velocity": 96}, {"time": 188288, "pitch": 42, "duration": 47, "velocity": 82}, {"time": 188637, "pitch": 30, "duration": 1678, "velocity": 95}, {"time": 188637, "pitch": 42, "duration": 1662, "velocity": 103}, {"time": 188637, "pitch": 55, "duration": 584, "velocity": 110}, {"time": 188637, "pitch": 59, "duration": 563, "velocity": 111}, {"time": 188637, "pitch": 62, "duration": 582, "velocity": 110}, {"time": 189364, "pitch": 55, "duration": 686, "velocity": 101}, {"time": 189364, "pitch": 59, "duration": 638, "velocity": 108}, {"time": 189364, "pitch": 62, "duration": 706, "velocity": 101}, {"time": 190561, "pitch": 35, "duration": 537, "velocity": 102}, {"time": 190561, "pitch": 50, "duration": 551, "velocity": 96}, {"time": 190561, "pitch": 54, "duration": 507, "velocity": 103}, {"time": 190561, "pitch": 57, "duration": 500, "velocity": 91}, {"time": 190561, "pitch": 61, "duration": 537, "velocity": 107}, {"time": 191278, "pitch": 35, "duration": 542, "velocity": 100}, {"time": 191278, "pitch": 50, "duration": 610, "velocity": 102}, {"time": 191278, "pitch": 54, "duration": 553, "velocity": 105}, {"time": 191278, "pitch": 57, "duration": 634, "velocity": 92}, {"time": 191278, "pitch": 61, "duration": 656, "velocity": 105}, {"time": 192484, "pitch": 37, "duration": 544, "velocity": 96}, {"time": 192484, "pitch": 52, "duration": 591, "velocity": 107}, {"time": 192484, "pitch": 56, "duration": 525, "velocity": 107}, {"time": 192484, "pitch": 59, "duration": 519, "velocity": 102}, {"time": 192484, "pitch": 63, "duration": 561, "velocity": 94}, {"time": 193202, "pitch": 37, "duration": 774, "velocity": 103}, {"time": 193202, "pitch": 52, "duration": 670, "velocity": 103}, {"time": 193202, "pitch": 56, "duration": 608, "velocity": 103}, {"time": 193202, "pitch": 59, "duration": 599, "velocity": 100}, {"time": 193202, "pitch": 63, "duration": 614, "velocity": 94}, {"time": 194400, "pitch": 38, "duration": 527, "velocity": 86}, {"time": 194400, "pitch": 50, "duration": 550, "velocity": 105}, {"time": 194400, "pitch": 54, "duration": 460, "velocity": 103}, {"time": 194400, "pitch": 57, "duration": 482, "velocity": 100}, {"time": 194400, "pitch": 61, "duration": 521, "velocity": 110}, {"time": 195121, "pitch": 38, "duration": 519, "velocity": 100}, {"time": 195121, "pitch": 50, "duration": 478, "velocity": 103}, {"time": 195121, "pitch": 54, "duration": 434, "velocity": 107}, {"time": 195121, "pitch": 57, "duration": 508, "velocity": 87}, {"time": 195121, "pitch": 61, "duration": 514, "velocity": 103}, {"time": 196322, "pitch": 37, "duration": 485, "velocity": 98}, {"time": 196322, "pitch": 52, "duration": 571, "velocity": 110}, {"time": 196322, "pitch": 56, "duration": 512, "velocity": 114}, {"time": 196322, "pitch": 59, "duration": 501, "velocity": 98}, {"time": 196322, "pitch": 63, "duration": 530, "velocity": 100}, {"time": 197040, "pitch": 37, "duration": 799, "velocity": 103}, {"time": 197040, "pitch": 52, "duration": 800, "velocity": 102}, {"time": 197040, "pitch": 56, "duration": 680, "velocity": 110}, {"time": 197040, "pitch": 59, "duration": 665, "velocity": 98}, {"time": 197040, "pitch": 63, "duration": 666, "velocity": 102}, {"time": 198236, "pitch": 35, "duration": 490, "velocity": 96}, {"time": 198236, "pitch": 50, "duration": 525, "velocity": 103}, {"time": 198236, "pitch": 54, "duration": 415, "velocity": 103}, {"time": 198236, "pitch": 57, "duration": 431, "velocity": 89}, {"time": 198236, "pitch": 61, "duration": 452, "velocity": 105}, {"time": 198964, "pitch": 35, "duration": 706, "velocity": 103}, {"time": 198964, "pitch": 50, "duration": 594, "velocity": 105}, {"time": 198964, "pitch": 54, "duration": 478, "velocity": 103}, {"time": 198964, "pitch": 57, "duration": 608, "velocity": 91}, {"time": 198964, "pitch": 61, "duration": 593, "velocity": 107}, {"time": 200160, "pitch": 37, "duration": 485, "velocity": 103}, {"time": 200160, "pitch": 52, "duration": 529, "velocity": 107}, {"time": 200160, "pitch": 56, "duration": 436, "velocity": 114}, {"time": 200160, "pitch": 59, "duration": 418, "velocity": 102}, {"time": 200160, "pitch": 63, "duration": 505, "velocity": 96}, {"time": 200878, "pitch": 37, "duration": 972, "velocity": 102}, {"time": 200878, "pitch": 52, "duration": 492, "velocity": 107}, {"time": 200878, "pitch": 56, "duration": 494, "velocity": 110}, {"time": 200878, "pitch": 59, "duration": 549, "velocity": 98}, {"time": 200878, "pitch": 63, "duration": 613, "velocity": 96}, {"time": 202085, "pitch": 38, "duration": 537, "velocity": 98}, {"time": 202085, "pitch": 54, "duration": 522, "velocity": 107}, {"time": 202085, "pitch": 57, "duration": 491, "velocity": 89}, {"time": 202085, "pitch": 61, "duration": 449, "velocity": 110}, {"time": 202085, "pitch": 62, "duration": 492, "velocity": 105}, {"time": 202802, "pitch": 38, "duration": 422, "velocity": 103}, {"time": 202802, "pitch": 54, "duration": 354, "velocity": 114}, {"time": 202802, "pitch": 57, "duration": 300, "velocity": 98}, {"time": 202802, "pitch": 61, "duration": 315, "velocity": 112}, {"time": 202802, "pitch": 62, "duration": 293, "velocity": 100}, {"time": 203998, "pitch": 38, "duration": 296, "velocity": 103}, {"time": 203998, "pitch": 50, "duration": 307, "velocity": 103}, {"time": 203998, "pitch": 54, "duration": 307, "velocity": 112}, {"time": 203998, "pitch": 56, "duration": 312, "velocity": 112}, {"time": 203998, "pitch": 61, "duration": 291, "velocity": 105}, {"time": 204367, "pitch": 38, "duration": 256, "velocity": 100}, {"time": 204367, "pitch": 50, "duration": 260, "velocity": 105}, {"time": 204367, "pitch": 54, "duration": 249, "velocity": 112}, {"time": 204367, "pitch": 56, "duration": 257, "velocity": 119}, {"time": 204367, "pitch": 61, "duration": 240, "velocity": 105}, {"time": 204721, "pitch": 38, "duration": 4978, "velocity": 98}, {"time": 204721, "pitch": 50, "duration": 4956, "velocity": 98}, {"time": 204721, "pitch": 54, "duration": 4939, "velocity": 112}, {"time": 204721, "pitch": 56, "duration": 4944, "velocity": 112}, {"time": 204721, "pitch": 61, "duration": 4946, "velocity": 103}], "annotations": [{"time": 285, "annotation": {"number": 7, "value": 90}, "group": "control_change"}, {"time": 307, "annotation": {"number": 11, "value": 100}, "group": "control_change"}, {"time": 329, "annotation": {"number": 10, "value": 74}, "group": "control_change"}, {"time": 350, "annotation": {"number": 91, "value": 40}, "group": "control_change"}, {"time": 372, "annotation": {"number": 93, "value": 0}, "group": "control_change"}, {"time": 394, "annotation": {"number": 101, "value": 0}, "group": "control_change"}, {"time": 416, "annotation": {"number": 100, "value": 0}, "group": "control_change"}, {"time": 438, "annotation": {"number": 6, "value": 12}, "group": "control_change"}, {"time": 460, "annotation": {"number": 101, "value": 127}, "group": "control_change"}, {"time": 484, "annotation": {"number": 100, "value": 127}, "group": "control_change"}, {"time": 563, "annotation": {"number": 64, "value": 127}, "group": "control_change"}, {"time": 2244, "annotation": {"number": 64, "value": 0}, "group": "control_change"}, {"time": 2398, "annotation": {"number": 64, "value": 127}, "group": "control_change"}, {"time": 4335, "annotation": {"number": 64, "value": 0}, "group": "control_change"}, {"time": 4518, "annotation": {"number": 64, "value": 127}, "group": "control_change"}, {"time": 6017, "annotation": {"number": 64, "value": 0}, "group": "control_change"}, {"time": 6140, "annotation": {"number": 64, "value": 127}, "group": "control_change"}, {"time": 8198, "annotation": {"number": 64, "value": 0}, "group": "control_change"}, {"time": 8382, "annotation": {"number": 64, "value": 127}, "group": "control_change"}, {"time": 9891, "annotation": {"number": 64, "value": 0}, "group": "control_change"}, {"time": 10073, "annotation": {"number": 64, "value": 127}, "group": "control_change"}, {"time": 12033, "annotation": {"number": 64, "value": 0}, "group": "control_change"}, {"time": 12184, "annotation": {"number": 64, "value": 127}, "group": "control_change"}, {"time": 13754, "annotation": {"number": 64, "value": 0}, "group": "control_change"}, {"time": 13846, "annotation": {"number": 64, "value": 127}, "group": "control_change"}, {"time": 15834, "annotation": {"number": 64, "value": 0}, "group": "control_change"}, {"time": 15917, "annotation": {"number": 64, "value": 127}, "group": "control_change"}, {"time": 17605, "annotation": {"number": 64, "value": 0}, "group": "control_change"}, {"time": 17759, "annotation": {"number": 64, "value": 127}, "group": "control_change"}, {"time": 19696, "annotation": {"number": 64, "value": 0}, "group": "control_change"}, {"time": 19879, "annotation": {"number": 64, "value": 127}, "group": "control_change"}, {"time": 21379, "annotation": {"number": 64, "value": 0}, "group": "control_change"}, {"time": 21501, "annotation": {"number": 64, "value": 127}, "group": "control_change"}, {"time": 23559, "annotation": {"number": 64, "value": 0}, "group": "control_change"}, {"time": 23743, "annotation": {"number": 64, "value": 127}, "group": "control_change"}, {"time": 25248, "annotation": {"number": 64, "value": 0}, "group": "control_change"}, {"time": 25434, "annotation": {"number": 64, "value": 127}, "group": "control_change"}, {"time": 27394, "annotation": {"number": 64, "value": 0}, "group": "control_change"}, {"time": 27545, "annotation": {"number": 64, "value": 127}, "group": "control_change"}, {"time": 29115, "annotation": {"number": 64, "value": 0}, "group": "control_change"}, {"time": 29207, "annotation": {"number": 64, "value": 127}, "group": "control_change"}, {"time": 31195, "annotation": {"number": 64, "value": 0}, "group": "control_change"}, {"time": 31236, "annotation": {"number": 64, "value": 0}, "group": "control_change"}, {"time": 31423, "annotation": {"number": 64, "value": 127}, "group": "control_change"}, {"time": 32928, "annotation": {"number": 64, "value": 0}, "group": "control_change"}, {"time": 33110, "annotation": {"number": 64, "value": 127}, "group": "control_change"}, {"time": 35080, "annotation": {"number": 64, "value": 0}, "group": "control_change"}, {"time": 35230, "annotation": {"number": 64, "value": 127}, "group": "control_change"}, {"time": 36791, "annotation": {"number": 64, "value": 0}, "group": "control_change"}, {"time": 36883, "annotation": {"number": 64, "value": 127}, "group": "control_change"}, {"time": 38881, "annotation": {"number": 64, "value": 0}, "group": "control_change"}, {"time": 38921, "annotation": {"number": 64, "value": 0}, "group": "control_change"}, {"time": 39104, "annotation": {"number": 64, "value": 127}, "group": "control_change"}, {"time": 40604, "annotation": {"number": 64, "value": 0}, "group": "control_change"}, {"time": 40786, "annotation": {"number": 64, "value": 127}, "group": "control_change"}, {"time": 42756, "annotation": {"number": 64, "value": 0}, "group": "control_change"}, {"time": 42906, "annotation": {"number": 64, "value": 127}, "group": "control_change"}, {"time": 44473, "annotation": {"number": 64, "value": 0}, "group": "control_change"}, {"time": 44567, "annotation": {"number": 64, "value": 127}, "group": "control_change"}, {"time": 46557, "annotation": {"number": 64, "value": 0}, "group": "control_change"}, {"time": 46600, "annotation": {"number": 64, "value": 127}, "group": "control_change"}, {"time": 48535, "annotation": {"number": 64, "value": 0}, "group": "control_change"}, {"time": 48750, "annotation": {"number": 64, "value": 127}, "group": "control_change"}, {"time": 50433, "annotation": {"number": 64, "value": 0}, "group": "control_change"}, {"time": 50620, "annotation": {"number": 64, "value": 127}, "group": "control_change"}, {"time": 51391, "annotation": {"number": 64, "value": 0}, "group": "control_change"}, {"time": 51542, "annotation": {"number": 64, "value": 127}, "group": "control_change"}, {"time": 52369, "annotation": {"number": 64, "value": 0}, "group": "control_change"}, {"time": 52523, "annotation": {"number": 64, "value": 127}, "group": "control_change"}, {"time": 54277, "annotation": {"number": 64, "value": 0}, "group": "control_change"}, {"time": 54428, "annotation": {"number": 64, "value": 127}, "group": "control_change"}, {"time": 56232, "annotation": {"number": 64, "value": 0}, "group": "control_change"}, {"time": 56386, "annotation": {"number": 64, "value": 127}, "group": "control_change"}, {"time": 58140, "annotation": {"number": 64, "value": 0}, "group": "control_change"}, {"time": 58292, "annotation": {"number": 64, "value": 127}, "group": "control_change"}, {"time": 60044, "annotation": {"number": 64, "value": 0}, "group": "control_change"}, {"time": 60199, "annotation": {"number": 64, "value": 127}, "group": "control_change"}, {"time": 61943, "annotation": {"number": 64, "value": 0}, "group": "control_change"}, {"time": 62095, "annotation": {"number": 64, "value": 127}, "group": "control_change"}, {"time": 63879, "annotation": {"number": 64, "value": 0}, "group": "control_change"}, {"time": 64031, "annotation": {"number": 64, "value": 127}, "group": "control_change"}, {"time": 65807, "annotation": {"number": 64, "value": 0}, "group": "control_change"}, {"time": 65962, "annotation": {"number": 64, "value": 127}, "group": "control_change"}, {"time": 67711, "annotation": {"number": 64, "value": 0}, "group": "control_change"}, {"time": 67865, "annotation": {"number": 64, "value": 127}, "group": "control_change"}, {"time": 68386, "annotation": {"number": 64, "value": 0}, "group": "control_change"}, {"time": 68509, "annotation": {"number": 64, "value": 127}, "group": "control_change"}, {"time": 69588, "annotation": {"number": 64, "value": 0}, "group": "control_change"}, {"time": 69628, "annotation": {"number": 64, "value": 0}, "group": "control_change"}, {"time": 69780, "annotation": {"number": 64, "value": 127}, "group": "control_change"}, {"time": 71555, "annotation": {"number": 64, "value": 0}, "group": "control_change"}, {"time": 71707, "annotation": {"number": 64, "value": 127}, "group": "control_change"}, {"time": 73492, "annotation": {"number": 64, "value": 0}, "group": "control_change"}, {"time": 73643, "annotation": {"number": 64, "value": 127}, "group": "control_change"}, {"time": 75388, "annotation": {"number": 64, "value": 0}, "group": "control_change"}, {"time": 75544, "annotation": {"number": 64, "value": 127}, "group": "control_change"}, {"time": 76071, "annotation": {"number": 64, "value": 0}, "group": "control_change"}, {"time": 76194, "annotation": {"number": 64, "value": 127}, "group": "control_change"}, {"time": 77264, "annotation": {"number": 64, "value": 0}, "group": "control_change"}, {"time": 85037, "annotation": {"number": 64, "value": 127}, "group": "control_change"}, {"time": 86726, "annotation": {"number": 64, "value": 0}, "group": "control_change"}, {"time": 86879, "annotation": {"number": 64, "value": 127}, "group": "control_change"}, {"time": 88816, "annotation": {"number": 64, "value": 0}, "group": "control_change"}, {"time": 88999, "annotation": {"number": 64, "value": 127}, "group": "control_change"}, {"time": 90499, "annotation": {"number": 64, "value": 0}, "group": "control_change"}, {"time": 90621, "annotation": {"number": 64, "value": 127}, "group": "control_change"}, {"time": 92680, "annotation": {"number": 64, "value": 0}, "group": "control_change"}, {"time": 92863, "annotation": {"number": 64, "value": 127}, "group": "control_change"}, {"time": 94368, "annotation": {"number": 64, "value": 0}, "group": "control_change"}, {"time": 94554, "annotation": {"number": 64, "value": 127}, "group": "control_change"}, {"time": 96515, "annotation": {"number": 64, "value": 0}, "group": "control_change"}, {"time": 96665, "annotation": {"number": 64, "value": 127}, "group": "control_change"}, {"time": 98235, "annotation": {"number": 64, "value": 0}, "group": "control_change"}, {"time": 98328, "annotation": {"number": 64, "value": 127}, "group": "control_change"}, {"time": 100316, "annotation": {"number": 64, "value": 0}, "group": "control_change"}, {"time": 100356, "annotation": {"number": 64, "value": 0}, "group": "control_change"}, {"time": 100543, "annotation": {"number": 64, "value": 127}, "group": "control_change"}, {"time": 102048, "annotation": {"number": 64, "value": 0}, "group": "control_change"}, {"time": 102230, "annotation": {"number": 64, "value": 127}, "group": "control_change"}, {"time": 104200, "annotation": {"number": 64, "value": 0}, "group": "control_change"}, {"time": 104350, "annotation": {"number": 64, "value": 127}, "group": "control_change"}, {"time": 105911, "annotation": {"number": 64, "value": 0}, "group": "control_change"}, {"time": 106004, "annotation": {"number": 64, "value": 127}, "group": "control_change"}, {"time": 108001, "annotation": {"number": 64, "value": 0}, "group": "control_change"}, {"time": 108041, "annotation": {"number": 64, "value": 0}, "group": "control_change"}, {"time": 108224, "annotation": {"number": 64, "value": 127}, "group": "control_change"}, {"time": 109724, "annotation": {"number": 64, "value": 0}, "group": "control_change"}, {"time": 109906, "annotation": {"number": 64, "value": 127}, "group": "control_change"}, {"time": 111876, "annotation": {"number": 64, "value": 0}, "group": "control_change"}, {"time": 112026, "annotation": {"number": 64, "value": 127}, "group": "control_change"}, {"time": 113593, "annotation": {"number": 64, "value": 0}, "group": "control_change"}, {"time": 113687, "annotation": {"number": 64, "value": 127}, "group": "control_change"}, {"time": 115677, "annotation": {"number": 64, "value": 0}, "group": "control_change"}, {"time": 115721, "annotation": {"number": 64, "value": 127}, "group": "control_change"}, {"time": 117655, "annotation": {"number": 64, "value": 0}, "group": "control_change"}, {"time": 117871, "annotation": {"number": 64, "value": 127}, "group": "control_change"}, {"time": 119553, "annotation": {"number": 64, "value": 0}, "group": "control_change"}, {"time": 119740, "annotation": {"number": 64, "value": 127}, "group": "control_change"}, {"time": 120511, "annotation": {"number": 64, "value": 0}, "group": "control_change"}, {"time": 120663, "annotation": {"number": 64, "value": 127}, "group": "control_change"}, {"time": 121489, "annotation": {"number": 64, "value": 0}, "group": "control_change"}, {"time": 121643, "annotation": {"number": 64, "value": 127}, "group": "control_change"}, {"time": 123397, "annotation": {"number": 64, "value": 0}, "group": "control_change"}, {"time": 123548, "annotation": {"number": 64, "value": 127}, "group": "control_change"}, {"time": 125352, "annotation": {"number": 64, "value": 0}, "group": "control_change"}, {"time": 125507, "annotation": {"number": 64, "value": 127}, "group": "control_change"}, {"time": 127260, "annotation": {"number": 64, "value": 0}, "group": "control_change"}, {"time": 127412, "annotation": {"number": 64, "value": 127}, "group": "control_change"}, {"time": 129165, "annotation": {"number": 64, "value": 0}, "group": "control_change"}, {"time": 129319, "annotation": {"number": 64, "value": 127}, "group": "control_change"}, {"time": 131063, "annotation": {"number": 64, "value": 0}, "group": "control_change"}, {"time": 131215, "annotation": {"number": 64, "value": 127}, "group": "control_change"}, {"time": 132999, "annotation": {"number": 64, "value": 0}, "group": "control_change"}, {"time": 133151, "annotation": {"number": 64, "value": 127}, "group": "control_change"}, {"time": 134927, "annotation": {"number": 64, "value": 0}, "group": "control_change"}, {"time": 135078, "annotation": {"number": 64, "value": 127}, "group": "control_change"}, {"time": 136831, "annotation": {"number": 64, "value": 0}, "group": "control_change"}, {"time": 136985, "annotation": {"number": 64, "value": 127}, "group": "control_change"}, {"time": 137506, "annotation": {"number": 64, "value": 0}, "group": "control_change"}, {"time": 137629, "annotation": {"number": 64, "value": 127}, "group": "control_change"}, {"time": 138708, "annotation": {"number": 64, "value": 0}, "group": "control_change"}, {"time": 138748, "annotation": {"number": 64, "value": 0}, "group": "control_change"}, {"time": 138901, "annotation": {"number": 64, "value": 127}, "group": "control_change"}, {"time": 140675, "annotation": {"number": 64, "value": 0}, "group": "control_change"}, {"time": 140827, "annotation": {"number": 64, "value": 127}, "group": "control_change"}, {"time": 142612, "annotation": {"number": 64, "value": 0}, "group": "control_change"}, {"time": 142763, "annotation": {"number": 64, "value": 127}, "group": "control_change"}, {"time": 144508, "annotation": {"number": 64, "value": 0}, "group": "control_change"}, {"time": 144664, "annotation": {"number": 64, "value": 127}, "group": "control_change"}, {"time": 145192, "annotation": {"number": 64, "value": 0}, "group": "control_change"}, {"time": 145314, "annotation": {"number": 64, "value": 127}, "group": "control_change"}, {"time": 146384, "annotation": {"number": 64, "value": 0}, "group": "control_change"}, {"time": 146424, "annotation": {"number": 64, "value": 0}, "group": "control_change"}, {"time": 146576, "annotation": {"number": 64, "value": 127}, "group": "control_change"}, {"time": 148361, "annotation": {"number": 64, "value": 0}, "group": "control_change"}, {"time": 148512, "annotation": {"number": 64, "value": 127}, "group": "control_change"}, {"time": 150288, "annotation": {"number": 64, "value": 0}, "group": "control_change"}, {"time": 150439, "annotation": {"number": 64, "value": 127}, "group": "control_change"}, {"time": 152192, "annotation": {"number": 64, "value": 0}, "group": "control_change"}, {"time": 152346, "annotation": {"number": 64, "value": 127}, "group": "control_change"}, {"time": 152867, "annotation": {"number": 64, "value": 0}, "group": "control_change"}, {"time": 152990, "annotation": {"number": 64, "value": 127}, "group": "control_change"}, {"time": 154060, "annotation": {"number": 64, "value": 0}, "group": "control_change"}, {"time": 154100, "annotation": {"number": 64, "value": 0}, "group": "control_change"}, {"time": 154256, "annotation": {"number": 64, "value": 127}, "group": "control_change"}, {"time": 156036, "annotation": {"number": 64, "value": 0}, "group": "control_change"}, {"time": 156188, "annotation": {"number": 64, "value": 127}, "group": "control_change"}, {"time": 157973, "annotation": {"number": 64, "value": 0}, "group": "control_change"}, {"time": 158125, "annotation": {"number": 64, "value": 127}, "group": "control_change"}, {"time": 159868, "annotation": {"number": 64, "value": 0}, "group": "control_change"}, {"time": 160022, "annotation": {"number": 64, "value": 127}, "group": "control_change"}, {"time": 160548, "annotation": {"number": 64, "value": 0}, "group": "control_change"}, {"time": 160673, "annotation": {"number": 64, "value": 127}, "group": "control_change"}, {"time": 161745, "annotation": {"number": 64, "value": 0}, "group": "control_change"}, {"time": 177146, "annotation": {"number": 64, "value": 0}, "group": "control_change"}, {"time": 177299, "annotation": {"number": 64, "value": 127}, "group": "control_change"}, {"time": 179074, "annotation": {"number": 64, "value": 0}, "group": "control_change"}, {"time": 179229, "annotation": {"number": 64, "value": 127}, "group": "control_change"}, {"time": 181010, "annotation": {"number": 64, "value": 0}, "group": "control_change"}, {"time": 181162, "annotation": {"number": 64, "value": 127}, "group": "control_change"}, {"time": 182915, "annotation": {"number": 64, "value": 0}, "group": "control_change"}, {"time": 183068, "annotation": {"number": 64, "value": 127}, "group": "control_change"}, {"time": 183590, "annotation": {"number": 64, "value": 0}, "group": "control_change"}, {"time": 183712, "annotation": {"number": 64, "value": 127}, "group": "control_change"}, {"time": 184782, "annotation": {"number": 64, "value": 0}, "group": "control_change"}, {"time": 184822, "annotation": {"number": 64, "value": 0}, "group": "control_change"}, {"time": 184975, "annotation": {"number": 64, "value": 127}, "group": "control_change"}, {"time": 186759, "annotation": {"number": 64, "value": 0}, "group": "control_change"}, {"time": 186910, "annotation": {"number": 64, "value": 127}, "group": "control_change"}, {"time": 188687, "annotation": {"number": 64, "value": 0}, "group": "control_change"}, {"time": 188841, "annotation": {"number": 64, "value": 127}, "group": "control_change"}, {"time": 190540, "annotation": {"number": 64, "value": 0}, "group": "control_change"}, {"time": 190599, "annotation": {"number": 64, "value": 127}, "group": "control_change"}, {"time": 192475, "annotation": {"number": 64, "value": 0}, "group": "control_change"}, {"time": 192689, "annotation": {"number": 64, "value": 127}, "group": "control_change"}, {"time": 193211, "annotation": {"number": 64, "value": 0}, "group": "control_change"}, {"time": 193331, "annotation": {"number": 64, "value": 127}, "group": "control_change"}, {"time": 194433, "annotation": {"number": 64, "value": 0}, "group": "control_change"}, {"time": 194617, "annotation": {"number": 64, "value": 127}, "group": "control_change"}, {"time": 195145, "annotation": {"number": 64, "value": 0}, "group": "control_change"}, {"time": 195329, "annotation": {"number": 64, "value": 127}, "group": "control_change"}, {"time": 196341, "annotation": {"number": 64, "value": 0}, "group": "control_change"}, {"time": 196495, "annotation": {"number": 64, "value": 127}, "group": "control_change"}, {"time": 197043, "annotation": {"number": 64, "value": 0}, "group": "control_change"}, {"time": 197199, "annotation": {"number": 64, "value": 127}, "group": "control_change"}, {"time": 198239, "annotation": {"number": 64, "value": 0}, "group": "control_change"}, {"time": 198425, "annotation": {"number": 64, "value": 127}, "group": "control_change"}, {"time": 198950, "annotation": {"number": 64, "value": 0}, "group": "control_change"}, {"time": 199133, "annotation": {"number": 64, "value": 127}, "group": "control_change"}, {"time": 200147, "annotation": {"number": 64, "value": 0}, "group": "control_change"}, {"time": 200330, "annotation": {"number": 64, "value": 127}, "group": "control_change"}, {"time": 200848, "annotation": {"number": 64, "value": 0}, "group": "control_change"}, {"time": 201032, "annotation": {"number": 64, "value": 127}, "group": "control_change"}, {"time": 202083, "annotation": {"number": 64, "value": 0}, "group": "control_change"}, {"time": 202234, "annotation": {"number": 64, "value": 127}, "group": "control_change"}, {"time": 202787, "annotation": {"number": 64, "value": 0}, "group": "control_change"}, {"time": 202969, "annotation": {"number": 64, "value": 127}, "group": "control_change"}, {"time": 203917, "annotation": {"number": 64, "value": 0}, "group": "control_change"}, {"time": 209722, "annotation": {"number": 64, "value": 0}, "group": "control_change"}]}, {"program": 0, "is_drum": false, "name": "MELODY", "annotations": [{"time": 219, "annotation": {"number": 0, "value": 0}, "group": "control_change"}, {"time": 241, "annotation": {"number": 32, "value": 0}, "group": "control_change"}]}, {"program": 11, "is_drum": false, "name": "MELODY", "notes": [{"time": 15835, "pitch": 78, "duration": 377, "velocity": 127}, {"time": 18238, "pitch": 76, "duration": 108, "velocity": 103}, {"time": 18357, "pitch": 78, "duration": 92, "velocity": 98}, {"time": 18597, "pitch": 81, "duration": 140, "velocity": 92}, {"time": 18838, "pitch": 78, "duration": 286, "velocity": 105}, {"time": 19204, "pitch": 76, "duration": 91, "velocity": 102}, {"time": 19324, "pitch": 71, "duration": 71, "velocity": 94}, {"time": 19443, "pitch": 73, "duration": 64, "velocity": 100}, {"time": 19563, "pitch": 73, "duration": 215, "velocity": 110}, {"time": 23521, "pitch": 78, "duration": 274, "velocity": 119}, {"time": 25923, "pitch": 76, "duration": 115, "velocity": 103}, {"time": 26042, "pitch": 78, "duration": 140, "velocity": 89}, {"time": 26282, "pitch": 81, "duration": 112, "velocity": 98}, {"time": 26521, "pitch": 78, "duration": 96, "velocity": 102}, {"time": 26760, "pitch": 78, "duration": 139, "velocity": 87}, {"time": 26880, "pitch": 76, "duration": 90, "velocity": 100}, {"time": 27000, "pitch": 71, "duration": 78, "velocity": 94}, {"time": 27119, "pitch": 73, "duration": 73, "velocity": 94}, {"time": 27239, "pitch": 73, "duration": 265, "velocity": 100}, {"time": 28804, "pitch": 71, "duration": 214, "velocity": 103}, {"time": 29043, "pitch": 69, "duration": 307, "velocity": 89}, {"time": 31196, "pitch": 78, "duration": 322, "velocity": 114}, {"time": 33599, "pitch": 76, "duration": 116, "velocity": 105}, {"time": 33718, "pitch": 78, "duration": 124, "velocity": 91}, {"time": 33958, "pitch": 81, "duration": 131, "velocity": 103}, {"time": 34197, "pitch": 78, "duration": 134, "velocity": 105}, {"time": 34436, "pitch": 78, "duration": 115, "velocity": 91}, {"time": 34556, "pitch": 76, "duration": 80, "velocity": 103}, {"time": 34678, "pitch": 71, "duration": 81, "velocity": 89}, {"time": 34800, "pitch": 73, "duration": 104, "velocity": 102}, {"time": 34922, "pitch": 73, "duration": 212, "velocity": 102}, {"time": 38882, "pitch": 78, "duration": 370, "velocity": 117}, {"time": 41284, "pitch": 76, "duration": 120, "velocity": 105}, {"time": 41404, "pitch": 78, "duration": 115, "velocity": 88}, {"time": 41643, "pitch": 81, "duration": 118, "velocity": 100}, {"time": 41882, "pitch": 78, "duration": 94, "velocity": 103}, {"time": 42121, "pitch": 78, "duration": 121, "velocity": 89}, {"time": 42241, "pitch": 76, "duration": 82, "velocity": 94}, {"time": 42361, "pitch": 71, "duration": 83, "velocity": 88}, {"time": 42480, "pitch": 73, "duration": 97, "velocity": 102}, {"time": 42600, "pitch": 73, "duration": 240, "velocity": 76}, {"time": 44155, "pitch": 71, "duration": 243, "velocity": 102}, {"time": 44399, "pitch": 69, "duration": 373, "velocity": 94}, {"time": 46079, "pitch": 69, "duration": 66, "velocity": 98}, {"time": 46199, "pitch": 69, "duration": 161, "velocity": 103}, {"time": 46438, "pitch": 71, "duration": 346, "velocity": 102}, {"time": 46916, "pitch": 71, "duration": 28, "velocity": 87}, {"time": 47036, "pitch": 71, "duration": 91, "velocity": 103}, {"time": 47158, "pitch": 71, "duration": 128, "velocity": 94}, {"time": 47402, "pitch": 71, "duration": 190, "velocity": 100}, {"time": 48003, "pitch": 71, "duration": 25, "velocity": 100}, {"time": 48122, "pitch": 71, "duration": 134, "velocity": 91}, {"time": 48362, "pitch": 73, "duration": 351, "velocity": 114}, {"time": 48840, "pitch": 73, "duration": 72, "velocity": 86}, {"time": 48960, "pitch": 73, "duration": 77, "velocity": 83}, {"time": 49079, "pitch": 73, "duration": 111, "velocity": 72}, {"time": 49319, "pitch": 73, "duration": 157, "velocity": 103}, {"time": 49917, "pitch": 73, "duration": 68, "velocity": 100}, {"time": 50037, "pitch": 73, "duration": 93, "velocity": 96}, {"time": 50276, "pitch": 74, "duration": 359, "velocity": 98}, {"time": 50761, "pitch": 74, "duration": 56, "velocity": 76}, {"time": 50883, "pitch": 74, "duration": 75, "velocity": 98}, {"time": 51003, "pitch": 74, "duration": 102, "velocity": 102}, {"time": 51242, "pitch": 77, "duration": 500, "velocity": 110}, {"time": 51841, "pitch": 77, "duration": 70, "velocity": 96}, {"time": 51960, "pitch": 77, "duration": 90, "velocity": 100}, {"time": 52080, "pitch": 80, "duration": 83, "velocity": 96}, {"time": 52200, "pitch": 80, "duration": 327, "velocity": 100}, {"time": 52558, "pitch": 78, "duration": 733, "velocity": 112}, {"time": 53764, "pitch": 78, "duration": 56, "velocity": 110}, {"time": 53884, "pitch": 78, "duration": 165, "velocity": 103}, {"time": 54123, "pitch": 81, "duration": 301, "velocity": 107}, {"time": 55678, "pitch": 78, "duration": 72, "velocity": 103}, {"time": 55798, "pitch": 78, "duration": 139, "velocity": 112}, {"time": 56037, "pitch": 81, "duration": 288, "velocity": 103}, {"time": 57363, "pitch": 78, "duration": 63, "velocity": 100}, {"time": 57483, "pitch": 78, "duration": 60, "velocity": 100}, {"time": 57602, "pitch": 78, "duration": 83, "velocity": 107}, {"time": 57722, "pitch": 78, "duration": 132, "velocity": 112}, {"time": 57961, "pitch": 81, "duration": 346, "velocity": 103}, {"time": 59516, "pitch": 78, "duration": 68, "velocity": 110}, {"time": 59638, "pitch": 78, "duration": 63, "velocity": 105}, {"time": 59760, "pitch": 78, "duration": 88, "velocity": 105}, {"time": 59882, "pitch": 83, "duration": 1055, "velocity": 114}, {"time": 61919, "pitch": 78, "duration": 143, "velocity": 110}, {"time": 62158, "pitch": 78, "duration": 134, "velocity": 96}, {"time": 62397, "pitch": 78, "duration": 134, "velocity": 94}, {"time": 62636, "pitch": 78, "duration": 154, "velocity": 98}, {"time": 62876, "pitch": 81, "duration": 162, "velocity": 105}, {"time": 63120, "pitch": 81, "duration": 144, "velocity": 92}, {"time": 63364, "pitch": 85, "duration": 148, "velocity": 110}, {"time": 63603, "pitch": 84, "duration": 811, "velocity": 110}, {"time": 64560, "pitch": 80, "duration": 607, "velocity": 114}, {"time": 65278, "pitch": 80, "duration": 97, "velocity": 91}, {"time": 65517, "pitch": 83, "duration": 880, "velocity": 114}, {"time": 66484, "pitch": 83, "duration": 415, "velocity": 107}, {"time": 66962, "pitch": 85, "duration": 188, "velocity": 105}, {"time": 67202, "pitch": 83, "duration": 148, "velocity": 107}, {"time": 67441, "pitch": 81, "duration": 899, "velocity": 107}, {"time": 68398, "pitch": 78, "duration": 966, "velocity": 107}, {"time": 69604, "pitch": 78, "duration": 146, "velocity": 107}, {"time": 69843, "pitch": 78, "duration": 111, "velocity": 94}, {"time": 70082, "pitch": 78, "duration": 156, "velocity": 92}, {"time": 70322, "pitch": 78, "duration": 145, "velocity": 92}, {"time": 70561, "pitch": 81, "duration": 168, "velocity": 102}, {"time": 70800, "pitch": 81, "duration": 112, "velocity": 88}, {"time": 71040, "pitch": 85, "duration": 168, "velocity": 110}, {"time": 71279, "pitch": 84, "duration": 870, "velocity": 107}, {"time": 72241, "pitch": 80, "duration": 624, "velocity": 110}, {"time": 72963, "pitch": 78, "duration": 120, "velocity": 102}, {"time": 73203, "pitch": 77, "duration": 408, "velocity": 103}, {"time": 73681, "pitch": 86, "duration": 416, "velocity": 103}, {"time": 74160, "pitch": 85, "duration": 454, "velocity": 110}, {"time": 74638, "pitch": 77, "duration": 106, "velocity": 102}, {"time": 74878, "pitch": 77, "duration": 96, "velocity": 96}, {"time": 75117, "pitch": 80, "duration": 468, "velocity": 110}, {"time": 75600, "pitch": 81, "duration": 130, "velocity": 100}, {"time": 75722, "pitch": 80, "duration": 141, "velocity": 75}, {"time": 75844, "pitch": 78, "duration": 1378, "velocity": 114}, {"time": 84956, "pitch": 78, "duration": 376, "velocity": 127}, {"time": 87358, "pitch": 76, "duration": 108, "velocity": 103}, {"time": 87477, "pitch": 78, "duration": 92, "velocity": 98}, {"time": 87717, "pitch": 81, "duration": 141, "velocity": 92}, {"time": 87958, "pitch": 78, "duration": 286, "velocity": 105}, {"time": 88324, "pitch": 76, "duration": 91, "velocity": 102}, {"time": 88444, "pitch": 71, "duration": 71, "velocity": 94}, {"time": 88564, "pitch": 73, "duration": 63, "velocity": 100}, {"time": 88683, "pitch": 73, "duration": 216, "velocity": 110}, {"time": 92641, "pitch": 78, "duration": 274, "velocity": 119}, {"time": 95043, "pitch": 76, "duration": 116, "velocity": 103}, {"time": 95163, "pitch": 78, "duration": 139, "velocity": 89}, {"time": 95402, "pitch": 81, "duration": 113, "velocity": 98}, {"time": 95641, "pitch": 78, "duration": 96, "velocity": 102}, {"time": 95881, "pitch": 78, "duration": 138, "velocity": 87}, {"time": 96000, "pitch": 76, "duration": 90, "velocity": 100}, {"time": 96120, "pitch": 71, "duration": 79, "velocity": 94}, {"time": 96239, "pitch": 73, "duration": 73, "velocity": 94}, {"time": 96359, "pitch": 73, "duration": 265, "velocity": 100}, {"time": 97924, "pitch": 71, "duration": 214, "velocity": 103}, {"time": 98163, "pitch": 69, "duration": 307, "velocity": 89}, {"time": 100317, "pitch": 78, "duration": 321, "velocity": 114}, {"time": 102719, "pitch": 76, "duration": 117, "velocity": 105}, {"time": 102839, "pitch": 78, "duration": 123, "velocity": 91}, {"time": 103078, "pitch": 81, "duration": 131, "velocity": 103}, {"time": 103317, "pitch": 78, "duration": 135, "velocity": 105}, {"time": 103556, "pitch": 78, "duration": 115, "velocity": 91}, {"time": 103676, "pitch": 76, "duration": 80, "velocity": 103}, {"time": 103798, "pitch": 71, "duration": 81, "velocity": 89}, {"time": 103920, "pitch": 73, "duration": 104, "velocity": 102}, {"time": 104042, "pitch": 73, "duration": 212, "velocity": 102}, {"time": 108002, "pitch": 78, "duration": 370, "velocity": 117}, {"time": 110404, "pitch": 76, "duration": 120, "velocity": 105}, {"time": 110524, "pitch": 78, "duration": 115, "velocity": 88}, {"time": 110763, "pitch": 81, "duration": 118, "velocity": 100}, {"time": 111002, "pitch": 78, "duration": 94, "velocity": 103}, {"time": 111242, "pitch": 78, "duration": 120, "velocity": 89}, {"time": 111361, "pitch": 76, "duration": 82, "velocity": 94}, {"time": 111481, "pitch": 71, "duration": 84, "velocity": 88}, {"time": 111601, "pitch": 73, "duration": 96, "velocity": 102}, {"time": 111720, "pitch": 73, "duration": 241, "velocity": 76}, {"time": 113276, "pitch": 71, "duration": 243, "velocity": 102}, {"time": 113520, "pitch": 69, "duration": 372, "velocity": 94}, {"time": 115199, "pitch": 69, "duration": 66, "velocity": 98}, {"time": 115319, "pitch": 69, "duration": 161, "velocity": 103}, {"time": 115558, "pitch": 71, "duration": 346, "velocity": 102}, {"time": 116037, "pitch": 71, "duration": 28, "velocity": 87}, {"time": 116156, "pitch": 71, "duration": 91, "velocity": 103}, {"time": 116278, "pitch": 71, "duration": 128, "velocity": 94}, {"time": 116522, "pitch": 71, "duration": 190, "velocity": 100}, {"time": 117123, "pitch": 71, "duration": 25, "velocity": 100}, {"time": 117243, "pitch": 71, "duration": 133, "velocity": 91}, {"time": 117482, "pitch": 73, "duration": 351, "velocity": 114}, {"time": 117960, "pitch": 73, "duration": 72, "velocity": 86}, {"time": 118080, "pitch": 73, "duration": 77, "velocity": 83}, {"time": 118200, "pitch": 73, "duration": 110, "velocity": 72}, {"time": 118439, "pitch": 73, "duration": 157, "velocity": 103}, {"time": 119037, "pitch": 73, "duration": 68, "velocity": 100}, {"time": 119157, "pitch": 73, "duration": 94, "velocity": 96}, {"time": 119396, "pitch": 74, "duration": 360, "velocity": 98}, {"time": 119882, "pitch": 74, "duration": 56, "velocity": 76}, {"time": 120004, "pitch": 74, "duration": 74, "velocity": 98}, {"time": 120123, "pitch": 74, "duration": 102, "velocity": 102}, {"time": 120363, "pitch": 77, "duration": 499, "velocity": 110}, {"time": 120961, "pitch": 77, "duration": 71, "velocity": 96}, {"time": 121080, "pitch": 77, "duration": 90, "velocity": 100}, {"time": 121200, "pitch": 80, "duration": 83, "velocity": 96}, {"time": 121320, "pitch": 80, "duration": 327, "velocity": 100}, {"time": 121679, "pitch": 78, "duration": 733, "velocity": 112}, {"time": 122884, "pitch": 78, "duration": 56, "velocity": 110}, {"time": 123004, "pitch": 78, "duration": 166, "velocity": 103}, {"time": 123243, "pitch": 81, "duration": 302, "velocity": 107}, {"time": 124799, "pitch": 78, "duration": 72, "velocity": 103}, {"time": 124918, "pitch": 78, "duration": 139, "velocity": 112}, {"time": 125158, "pitch": 81, "duration": 287, "velocity": 103}, {"time": 126483, "pitch": 78, "duration": 63, "velocity": 100}, {"time": 126603, "pitch": 78, "duration": 61, "velocity": 100}, {"time": 126722, "pitch": 78, "duration": 83, "velocity": 107}, {"time": 126842, "pitch": 78, "duration": 133, "velocity": 112}, {"time": 127081, "pitch": 81, "duration": 346, "velocity": 103}, {"time": 128637, "pitch": 78, "duration": 68, "velocity": 110}, {"time": 128759, "pitch": 78, "duration": 63, "velocity": 105}, {"time": 128881, "pitch": 78, "duration": 87, "velocity": 105}, {"time": 129003, "pitch": 83, "duration": 1054, "velocity": 114}, {"time": 131039, "pitch": 78, "duration": 143, "velocity": 110}, {"time": 131278, "pitch": 78, "duration": 134, "velocity": 96}, {"time": 131517, "pitch": 78, "duration": 134, "velocity": 94}, {"time": 131757, "pitch": 78, "duration": 153, "velocity": 98}, {"time": 131996, "pitch": 81, "duration": 163, "velocity": 105}, {"time": 132240, "pitch": 81, "duration": 144, "velocity": 92}, {"time": 132484, "pitch": 85, "duration": 149, "velocity": 110}, {"time": 132723, "pitch": 84, "duration": 811, "velocity": 110}, {"time": 133680, "pitch": 80, "duration": 608, "velocity": 114}, {"time": 134398, "pitch": 80, "duration": 97, "velocity": 91}, {"time": 134638, "pitch": 83, "duration": 873, "velocity": 114}, {"time": 135599, "pitch": 83, "duration": 420, "velocity": 107}, {"time": 136083, "pitch": 85, "duration": 187, "velocity": 105}, {"time": 136322, "pitch": 83, "duration": 148, "velocity": 107}, {"time": 136561, "pitch": 81, "duration": 900, "velocity": 107}, {"time": 137518, "pitch": 78, "duration": 966, "velocity": 107}, {"time": 138724, "pitch": 78, "duration": 147, "velocity": 107}, {"time": 138963, "pitch": 78, "duration": 111, "velocity": 94}, {"time": 139203, "pitch": 78, "duration": 155, "velocity": 92}, {"time": 139442, "pitch": 78, "duration": 146, "velocity": 92}, {"time": 139681, "pitch": 81, "duration": 168, "velocity": 102}, {"time": 139921, "pitch": 81, "duration": 111, "velocity": 88}, {"time": 140160, "pitch": 85, "duration": 168, "velocity": 110}, {"time": 140399, "pitch": 84, "duration": 868, "velocity": 107}, {"time": 141356, "pitch": 80, "duration": 627, "velocity": 110}, {"time": 142084, "pitch": 78, "duration": 119, "velocity": 102}, {"time": 142323, "pitch": 77, "duration": 409, "velocity": 103}, {"time": 142801, "pitch": 86, "duration": 416, "velocity": 103}, {"time": 143280, "pitch": 85, "duration": 455, "velocity": 110}, {"time": 143758, "pitch": 77, "duration": 106, "velocity": 102}, {"time": 143998, "pitch": 77, "duration": 96, "velocity": 96}, {"time": 144237, "pitch": 80, "duration": 468, "velocity": 110}, {"time": 144720, "pitch": 81, "duration": 130, "velocity": 100}, {"time": 144842, "pitch": 80, "duration": 141, "velocity": 75}, {"time": 144964, "pitch": 78, "duration": 1378, "velocity": 114}, {"time": 146400, "pitch": 78, "duration": 162, "velocity": 114}, {"time": 146639, "pitch": 78, "duration": 121, "velocity": 100}, {"time": 146879, "pitch": 78, "duration": 126, "velocity": 94}, {"time": 147118, "pitch": 78, "duration": 147, "velocity": 91}, {"time": 147357, "pitch": 81, "duration": 143, "velocity": 100}, {"time": 147596, "pitch": 81, "duration": 117, "velocity": 88}, {"time": 147836, "pitch": 85, "duration": 143, "velocity": 110}, {"time": 148080, "pitch": 84, "duration": 862, "velocity": 110}, {"time": 149042, "pitch": 80, "duration": 619, "velocity": 112}, {"time": 149759, "pitch": 80, "duration": 96, "velocity": 102}, {"time": 149999, "pitch": 83, "duration": 859, "velocity": 110}, {"time": 150960, "pitch": 83, "duration": 391, "velocity": 107}, {"time": 151444, "pitch": 85, "duration": 156, "velocity": 110}, {"time": 151683, "pitch": 83, "duration": 162, "velocity": 103}, {"time": 151922, "pitch": 81, "duration": 476, "velocity": 105}, {"time": 152401, "pitch": 81, "duration": 155, "velocity": 88}, {"time": 152640, "pitch": 83, "duration": 175, "velocity": 103}, {"time": 152879, "pitch": 85, "duration": 1134, "velocity": 105}, {"time": 154076, "pitch": 78, "duration": 135, "velocity": 105}, {"time": 154320, "pitch": 78, "duration": 114, "velocity": 91}, {"time": 154564, "pitch": 78, "duration": 113, "velocity": 86}, {"time": 154803, "pitch": 78, "duration": 148, "velocity": 88}, {"time": 155042, "pitch": 81, "duration": 154, "velocity": 100}, {"time": 155282, "pitch": 81, "duration": 138, "velocity": 88}, {"time": 155521, "pitch": 85, "duration": 172, "velocity": 105}, {"time": 155760, "pitch": 84, "duration": 914, "velocity": 103}, {"time": 156717, "pitch": 80, "duration": 592, "velocity": 103}, {"time": 157445, "pitch": 78, "duration": 128, "velocity": 105}, {"time": 157684, "pitch": 77, "duration": 451, "velocity": 107}, {"time": 158162, "pitch": 86, "duration": 397, "velocity": 103}, {"time": 158641, "pitch": 85, "duration": 411, "velocity": 110}, {"time": 159120, "pitch": 77, "duration": 112, "velocity": 107}, {"time": 159359, "pitch": 77, "duration": 146, "velocity": 100}, {"time": 159598, "pitch": 80, "duration": 413, "velocity": 110}, {"time": 160077, "pitch": 81, "duration": 150, "velocity": 91}, {"time": 160196, "pitch": 80, "duration": 124, "velocity": 103}, {"time": 160316, "pitch": 78, "duration": 1275, "velocity": 107}, {"time": 161761, "pitch": 78, "duration": 134, "velocity": 107}, {"time": 162000, "pitch": 78, "duration": 106, "velocity": 92}, {"time": 162240, "pitch": 78, "duration": 122, "velocity": 92}, {"time": 162479, "pitch": 78, "duration": 161, "velocity": 89}, {"time": 162718, "pitch": 81, "duration": 143, "velocity": 103}, {"time": 162958, "pitch": 81, "duration": 130, "velocity": 88}, {"time": 163197, "pitch": 85, "duration": 157, "velocity": 105}, {"time": 163436, "pitch": 84, "duration": 927, "velocity": 107}, {"time": 164403, "pitch": 80, "duration": 596, "velocity": 112}, {"time": 165120, "pitch": 80, "duration": 130, "velocity": 98}, {"time": 165360, "pitch": 83, "duration": 832, "velocity": 110}, {"time": 166317, "pitch": 83, "duration": 413, "velocity": 103}, {"time": 166800, "pitch": 85, "duration": 147, "velocity": 107}, {"time": 167044, "pitch": 83, "duration": 145, "velocity": 103}, {"time": 167283, "pitch": 81, "duration": 612, "velocity": 107}, {"time": 168001, "pitch": 83, "duration": 144, "velocity": 103}, {"time": 168241, "pitch": 85, "duration": 912, "velocity": 105}, {"time": 169437, "pitch": 78, "duration": 108, "velocity": 110}, {"time": 169676, "pitch": 78, "duration": 119, "velocity": 86}, {"time": 169915, "pitch": 78, "duration": 118, "velocity": 91}, {"time": 170159, "pitch": 78, "duration": 153, "velocity": 88}, {"time": 170403, "pitch": 81, "duration": 135, "velocity": 100}, {"time": 170643, "pitch": 81, "duration": 132, "velocity": 88}, {"time": 170882, "pitch": 85, "duration": 160, "velocity": 105}, {"time": 171121, "pitch": 84, "duration": 890, "velocity": 107}, {"time": 172078, "pitch": 80, "duration": 632, "velocity": 110}, {"time": 172796, "pitch": 78, "duration": 94, "velocity": 100}, {"time": 173040, "pitch": 77, "duration": 450, "velocity": 100}, {"time": 173524, "pitch": 86, "duration": 414, "velocity": 103}, {"time": 174002, "pitch": 85, "duration": 388, "velocity": 110}, {"time": 174481, "pitch": 77, "duration": 104, "velocity": 102}, {"time": 174720, "pitch": 77, "duration": 146, "velocity": 92}, {"time": 174959, "pitch": 80, "duration": 495, "velocity": 112}, {"time": 175438, "pitch": 81, "duration": 111, "velocity": 102}, {"time": 175557, "pitch": 80, "duration": 119, "velocity": 94}, {"time": 175677, "pitch": 78, "duration": 1280, "velocity": 110}, {"time": 177122, "pitch": 78, "duration": 123, "velocity": 114}, {"time": 177361, "pitch": 78, "duration": 116, "velocity": 88}, {"time": 177601, "pitch": 78, "duration": 126, "velocity": 103}, {"time": 177840, "pitch": 78, "duration": 173, "velocity": 91}, {"time": 178079, "pitch": 81, "duration": 154, "velocity": 107}, {"time": 178319, "pitch": 81, "duration": 131, "velocity": 89}, {"time": 178558, "pitch": 85, "duration": 161, "velocity": 114}, {"time": 178797, "pitch": 84, "duration": 893, "velocity": 110}, {"time": 179764, "pitch": 80, "duration": 614, "velocity": 112}, {"time": 180482, "pitch": 80, "duration": 140, "velocity": 102}, {"time": 180721, "pitch": 83, "duration": 822, "velocity": 114}, {"time": 181678, "pitch": 83, "duration": 384, "velocity": 105}, {"time": 182157, "pitch": 85, "duration": 135, "velocity": 105}, {"time": 182396, "pitch": 83, "duration": 182, "velocity": 105}, {"time": 182640, "pitch": 81, "duration": 438, "velocity": 105}, {"time": 183123, "pitch": 81, "duration": 139, "velocity": 92}, {"time": 183362, "pitch": 83, "duration": 183, "velocity": 112}, {"time": 183602, "pitch": 85, "duration": 1088, "velocity": 110}, {"time": 184798, "pitch": 78, "duration": 341, "velocity": 110}, {"time": 185277, "pitch": 78, "duration": 127, "velocity": 102}, {"time": 185521, "pitch": 78, "duration": 152, "velocity": 86}, {"time": 185765, "pitch": 81, "duration": 159, "velocity": 103}, {"time": 186004, "pitch": 81, "duration": 120, "velocity": 88}, {"time": 186243, "pitch": 85, "duration": 167, "velocity": 110}, {"time": 186482, "pitch": 84, "duration": 867, "velocity": 112}, {"time": 187440, "pitch": 80, "duration": 587, "velocity": 110}, {"time": 188157, "pitch": 78, "duration": 110, "velocity": 103}, {"time": 188397, "pitch": 77, "duration": 472, "velocity": 103}, {"time": 188880, "pitch": 86, "duration": 416, "velocity": 103}, {"time": 189363, "pitch": 85, "duration": 405, "velocity": 114}, {"time": 189842, "pitch": 77, "duration": 99, "velocity": 103}, {"time": 190081, "pitch": 77, "duration": 119, "velocity": 103}, {"time": 190320, "pitch": 80, "duration": 470, "velocity": 112}, {"time": 190799, "pitch": 81, "duration": 122, "velocity": 96}, {"time": 190919, "pitch": 80, "duration": 105, "velocity": 87}, {"time": 191038, "pitch": 78, "duration": 3321, "velocity": 110}], "annotations": [{"time": 285, "annotation": {"number": 7, "value": 100}, "group": "control_change"}, {"time": 307, "annotation": {"number": 11, "value": 120}, "group": "control_change"}, {"time": 329, "annotation": {"number": 10, "value": 64}, "group": "control_change"}, {"time": 350, "annotation": {"number": 91, "value": 40}, "group": "control_change"}, {"time": 372, "annotation": {"number": 93, "value": 0}, "group": "control_change"}, {"time": 394, "annotation": {"number": 101, "value": 0}, "group": "control_change"}, {"time": 416, "annotation": {"number": 100, "value": 0}, "group": "control_change"}, {"time": 438, "annotation": {"number": 6, "value": 12}, "group": "control_change"}, {"time": 460, "annotation": {"number": 101, "value": 127}, "group": "control_change"}, {"time": 484, "annotation": {"number": 100, "value": 127}, "group": "control_change"}]}, {"program": 0, "is_drum": false, "name": "A.PIANO", "notes": [{"time": 486, "pitch": 30, "duration": 148, "velocity": 96}, {"time": 614, "pitch": 42, "duration": 116, "velocity": 94}, {"time": 724, "pitch": 52, "duration": 55, "velocity": 85}, {"time": 724, "pitch": 56, "duration": 28, "velocity": 89}, {"time": 724, "pitch": 57, "duration": 77, "velocity": 91}, {"time": 724, "pitch": 61, "duration": 30, "velocity": 86}, {"time": 963, "pitch": 52, "duration": 29, "velocity": 98}, {"time": 963, "pitch": 56, "duration": 22, "velocity": 105}, {"time": 963, "pitch": 57, "duration": 65, "velocity": 91}, {"time": 963, "pitch": 61, "duration": 79, "velocity": 103}, {"time": 1203, "pitch": 30, "duration": 87, "velocity": 83}, {"time": 1203, "pitch": 42, "duration": 73, "velocity": 83}, {"time": 1442, "pitch": 52, "duration": 29, "velocity": 96}, {"time": 1442, "pitch": 56, "duration": 25, "velocity": 98}, {"time": 1442, "pitch": 57, "duration": 77, "velocity": 82}, {"time": 1442, "pitch": 61, "duration": 72, "velocity": 96}, {"time": 1682, "pitch": 30, "duration": 48, "velocity": 80}, {"time": 1682, "pitch": 42, "duration": 50, "velocity": 65}, {"time": 1811, "pitch": 52, "duration": 27, "velocity": 98}, {"time": 1811, "pitch": 56, "duration": 25, "velocity": 98}, {"time": 1811, "pitch": 57, "duration": 73, "velocity": 86}, {"time": 1811, "pitch": 61, "duration": 73, "velocity": 102}, {"time": 2050, "pitch": 30, "duration": 71, "velocity": 67}, {"time": 2050, "pitch": 42, "duration": 65, "velocity": 68}, {"time": 2160, "pitch": 54, "duration": 408, "velocity": 95}, {"time": 2160, "pitch": 58, "duration": 430, "velocity": 101}, {"time": 2160, "pitch": 59, "duration": 417, "velocity": 99}, {"time": 2160, "pitch": 63, "duration": 417, "velocity": 99}, {"time": 2529, "pitch": 30, "duration": 123, "velocity": 87}, {"time": 2529, "pitch": 42, "duration": 93, "velocity": 81}, {"time": 2638, "pitch": 54, "duration": 30, "velocity": 88}, {"time": 2638, "pitch": 58, "duration": 63, "velocity": 88}, {"time": 2638, "pitch": 59, "duration": 25, "velocity": 83}, {"time": 2638, "pitch": 63, "duration": 37, "velocity": 73}, {"time": 2877, "pitch": 54, "duration": 37, "velocity": 98}, {"time": 2877, "pitch": 58, "duration": 50, "velocity": 100}, {"time": 2877, "pitch": 59, "duration": 48, "velocity": 84}, {"time": 2877, "pitch": 63, "duration": 53, "velocity": 89}, {"time": 3121, "pitch": 30, "duration": 93, "velocity": 83}, {"time": 3121, "pitch": 42, "duration": 64, "velocity": 82}, {"time": 3365, "pitch": 54, "duration": 24, "velocity": 100}, {"time": 3365, "pitch": 58, "duration": 28, "velocity": 100}, {"time": 3365, "pitch": 59, "duration": 22, "velocity": 91}, {"time": 3365, "pitch": 63, "duration": 61, "velocity": 100}, {"time": 3605, "pitch": 30, "duration": 59, "velocity": 61}, {"time": 3605, "pitch": 42, "duration": 58, "velocity": 77}, {"time": 3734, "pitch": 54, "duration": 33, "velocity": 103}, {"time": 3734, "pitch": 58, "duration": 43, "velocity": 102}, {"time": 3734, "pitch": 59, "duration": 39, "velocity": 96}, {"time": 3734, "pitch": 63, "duration": 43, "velocity": 100}, {"time": 3974, "pitch": 30, "duration": 47, "velocity": 67}, {"time": 3974, "pitch": 42, "duration": 34, "velocity": 77}, {"time": 4083, "pitch": 54, "duration": 83, "velocity": 94}, {"time": 4083, "pitch": 58, "duration": 91, "velocity": 88}, {"time": 4083, "pitch": 59, "duration": 29, "velocity": 85}, {"time": 4083, "pitch": 63, "duration": 100, "velocity": 92}, {"time": 4323, "pitch": 30, "duration": 325, "velocity": 96}, {"time": 4452, "pitch": 42, "duration": 129, "velocity": 94}, {"time": 4562, "pitch": 56, "duration": 23, "velocity": 103}, {"time": 4562, "pitch": 57, "duration": 86, "velocity": 94}, {"time": 4562, "pitch": 61, "duration": 44, "velocity": 91}, {"time": 4562, "pitch": 64, "duration": 78, "velocity": 94}, {"time": 4801, "pitch": 56, "duration": 32, "velocity": 102}, {"time": 4801, "pitch": 57, "duration": 148, "velocity": 91}, {"time": 4801, "pitch": 61, "duration": 130, "velocity": 98}, {"time": 4801, "pitch": 64, "duration": 139, "velocity": 92}, {"time": 5040, "pitch": 30, "duration": 87, "velocity": 77}, {"time": 5040, "pitch": 42, "duration": 43, "velocity": 68}, {"time": 5280, "pitch": 56, "duration": 23, "velocity": 103}, {"time": 5280, "pitch": 57, "duration": 85, "velocity": 94}, {"time": 5280, "pitch": 61, "duration": 44, "velocity": 91}, {"time": 5280, "pitch": 64, "duration": 77, "velocity": 94}, {"time": 5519, "pitch": 30, "duration": 57, "velocity": 81}, {"time": 5519, "pitch": 42, "duration": 61, "velocity": 81}, {"time": 5649, "pitch": 56, "duration": 20, "velocity": 114}, {"time": 5649, "pitch": 57, "duration": 59, "velocity": 96}, {"time": 5649, "pitch": 61, "duration": 31, "velocity": 91}, {"time": 5649, "pitch": 64, "duration": 55, "velocity": 102}, {"time": 5998, "pitch": 58, "duration": 358, "velocity": 94}, {"time": 5998, "pitch": 59, "duration": 360, "velocity": 95}, {"time": 5998, "pitch": 63, "duration": 374, "velocity": 91}, {"time": 5998, "pitch": 66, "duration": 352, "velocity": 94}, {"time": 6369, "pitch": 30, "duration": 150, "velocity": 87}, {"time": 6482, "pitch": 42, "duration": 103, "velocity": 88}, {"time": 6482, "pitch": 58, "duration": 72, "velocity": 100}, {"time": 6482, "pitch": 59, "duration": 25, "velocity": 98}, {"time": 6482, "pitch": 63, "duration": 36, "velocity": 81}, {"time": 6482, "pitch": 66, "duration": 69, "velocity": 82}, {"time": 6725, "pitch": 58, "duration": 83, "velocity": 103}, {"time": 6725, "pitch": 59, "duration": 84, "velocity": 98}, {"time": 6725, "pitch": 63, "duration": 100, "velocity": 96}, {"time": 6725, "pitch": 66, "duration": 119, "velocity": 103}, {"time": 6964, "pitch": 30, "duration": 96, "velocity": 77}, {"time": 6964, "pitch": 42, "duration": 84, "velocity": 85}, {"time": 7203, "pitch": 58, "duration": 26, "velocity": 100}, {"time": 7203, "pitch": 59, "duration": 23, "velocity": 100}, {"time": 7203, "pitch": 63, "duration": 42, "velocity": 91}, {"time": 7203, "pitch": 66, "duration": 40, "velocity": 96}, {"time": 7443, "pitch": 30, "duration": 44, "velocity": 83}, {"time": 7443, "pitch": 42, "duration": 61, "velocity": 89}, {"time": 7572, "pitch": 58, "duration": 31, "velocity": 103}, {"time": 7572, "pitch": 59, "duration": 22, "velocity": 100}, {"time": 7572, "pitch": 63, "duration": 29, "velocity": 88}, {"time": 7572, "pitch": 66, "duration": 56, "velocity": 96}, {"time": 7812, "pitch": 30, "duration": 53, "velocity": 86}, {"time": 7812, "pitch": 42, "duration": 58, "velocity": 92}, {"time": 7921, "pitch": 58, "duration": 241, "velocity": 110}, {"time": 7921, "pitch": 59, "duration": 239, "velocity": 107}, {"time": 7921, "pitch": 63, "duration": 240, "velocity": 105}, {"time": 7921, "pitch": 66, "duration": 239, "velocity": 112}, {"time": 8162, "pitch": 30, "duration": 148, "velocity": 96}, {"time": 8290, "pitch": 42, "duration": 116, "velocity": 94}, {"time": 8400, "pitch": 52, "duration": 55, "velocity": 85}, {"time": 8400, "pitch": 56, "duration": 28, "velocity": 89}, {"time": 8400, "pitch": 57, "duration": 77, "velocity": 91}, {"time": 8400, "pitch": 61, "duration": 30, "velocity": 86}, {"time": 8639, "pitch": 52, "duration": 29, "velocity": 98}, {"time": 8639, "pitch": 56, "duration": 22, "velocity": 105}, {"time": 8639, "pitch": 57, "duration": 65, "velocity": 91}, {"time": 8639, "pitch": 61, "duration": 79, "velocity": 103}, {"time": 8878, "pitch": 30, "duration": 88, "velocity": 83}, {"time": 8878, "pitch": 42, "duration": 74, "velocity": 83}, {"time": 9118, "pitch": 52, "duration": 29, "velocity": 96}, {"time": 9118, "pitch": 56, "duration": 25, "velocity": 98}, {"time": 9118, "pitch": 57, "duration": 78, "velocity": 82}, {"time": 9118, "pitch": 61, "duration": 73, "velocity": 96}, {"time": 9363, "pitch": 30, "duration": 48, "velocity": 80}, {"time": 9363, "pitch": 42, "duration": 51, "velocity": 65}, {"time": 9494, "pitch": 52, "duration": 27, "velocity": 98}, {"time": 9494, "pitch": 56, "duration": 25, "velocity": 98}, {"time": 9494, "pitch": 57, "duration": 75, "velocity": 86}, {"time": 9494, "pitch": 61, "duration": 75, "velocity": 102}, {"time": 9735, "pitch": 30, "duration": 71, "velocity": 67}, {"time": 9735, "pitch": 42, "duration": 65, "velocity": 68}, {"time": 9845, "pitch": 54, "duration": 409, "velocity": 95}, {"time": 9845, "pitch": 58, "duration": 431, "velocity": 101}, {"time": 9845, "pitch": 59, "duration": 418, "velocity": 99}, {"time": 9845, "pitch": 63, "duration": 418, "velocity": 99}, {"time": 10214, "pitch": 30, "duration": 123, "velocity": 87}, {"time": 10214, "pitch": 42, "duration": 94, "velocity": 81}, {"time": 10323, "pitch": 54, "duration": 30, "velocity": 88}, {"time": 10323, "pitch": 58, "duration": 63, "velocity": 88}, {"time": 10323, "pitch": 59, "duration": 25, "velocity": 83}, {"time": 10323, "pitch": 63, "duration": 37, "velocity": 73}, {"time": 10563, "pitch": 54, "duration": 36, "velocity": 98}, {"time": 10563, "pitch": 58, "duration": 49, "velocity": 100}, {"time": 10563, "pitch": 59, "duration": 47, "velocity": 84}, {"time": 10563, "pitch": 63, "duration": 52, "velocity": 89}, {"time": 10802, "pitch": 30, "duration": 91, "velocity": 83}, {"time": 10802, "pitch": 42, "duration": 62, "velocity": 82}, {"time": 11041, "pitch": 54, "duration": 24, "velocity": 100}, {"time": 11041, "pitch": 58, "duration": 28, "velocity": 100}, {"time": 11041, "pitch": 59, "duration": 22, "velocity": 91}, {"time": 11041, "pitch": 63, "duration": 61, "velocity": 100}, {"time": 11281, "pitch": 30, "duration": 58, "velocity": 61}, {"time": 11281, "pitch": 42, "duration": 57, "velocity": 77}, {"time": 11410, "pitch": 54, "duration": 33, "velocity": 103}, {"time": 11410, "pitch": 58, "duration": 43, "velocity": 102}, {"time": 11410, "pitch": 59, "duration": 39, "velocity": 96}, {"time": 11410, "pitch": 63, "duration": 43, "velocity": 100}, {"time": 11649, "pitch": 30, "duration": 48, "velocity": 67}, {"time": 11649, "pitch": 42, "duration": 34, "velocity": 77}, {"time": 11759, "pitch": 54, "duration": 83, "velocity": 94}, {"time": 11759, "pitch": 58, "duration": 91, "velocity": 88}, {"time": 11759, "pitch": 59, "duration": 29, "velocity": 85}, {"time": 11759, "pitch": 63, "duration": 100, "velocity": 92}, {"time": 11998, "pitch": 30, "duration": 325, "velocity": 96}, {"time": 12128, "pitch": 42, "duration": 129, "velocity": 94}, {"time": 12238, "pitch": 56, "duration": 23, "velocity": 103}, {"time": 12238, "pitch": 57, "duration": 85, "velocity": 94}, {"time": 12238, "pitch": 61, "duration": 44, "velocity": 91}, {"time": 12238, "pitch": 64, "duration": 77, "velocity": 94}, {"time": 12477, "pitch": 56, "duration": 32, "velocity": 102}, {"time": 12477, "pitch": 57, "duration": 150, "velocity": 91}, {"time": 12477, "pitch": 61, "duration": 132, "velocity": 98}, {"time": 12477, "pitch": 64, "duration": 141, "velocity": 92}, {"time": 12721, "pitch": 30, "duration": 88, "velocity": 77}, {"time": 12721, "pitch": 42, "duration": 44, "velocity": 68}, {"time": 12965, "pitch": 56, "duration": 23, "velocity": 103}, {"time": 12965, "pitch": 57, "duration": 86, "velocity": 94}, {"time": 12965, "pitch": 61, "duration": 44, "velocity": 91}, {"time": 12965, "pitch": 64, "duration": 78, "velocity": 94}, {"time": 13204, "pitch": 30, "duration": 57, "velocity": 81}, {"time": 13204, "pitch": 42, "duration": 61, "velocity": 81}, {"time": 13334, "pitch": 56, "duration": 20, "velocity": 114}, {"time": 13334, "pitch": 57, "duration": 60, "velocity": 96}, {"time": 13334, "pitch": 61, "duration": 31, "velocity": 91}, {"time": 13334, "pitch": 64, "duration": 56, "velocity": 102}, {"time": 13683, "pitch": 58, "duration": 356, "velocity": 94}, {"time": 13683, "pitch": 59, "duration": 358, "velocity": 95}, {"time": 13683, "pitch": 63, "duration": 372, "velocity": 91}, {"time": 13683, "pitch": 66, "duration": 350, "velocity": 94}, {"time": 14052, "pitch": 30, "duration": 147, "velocity": 87}, {"time": 14162, "pitch": 42, "duration": 101, "velocity": 88}, {"time": 14162, "pitch": 58, "duration": 71, "velocity": 100}, {"time": 14162, "pitch": 59, "duration": 25, "velocity": 98}, {"time": 14162, "pitch": 63, "duration": 36, "velocity": 81}, {"time": 14162, "pitch": 66, "duration": 68, "velocity": 82}, {"time": 14401, "pitch": 58, "duration": 82, "velocity": 103}, {"time": 14401, "pitch": 59, "duration": 83, "velocity": 98}, {"time": 14401, "pitch": 63, "duration": 99, "velocity": 96}, {"time": 14401, "pitch": 66, "duration": 119, "velocity": 103}, {"time": 14640, "pitch": 30, "duration": 96, "velocity": 77}, {"time": 14640, "pitch": 42, "duration": 84, "velocity": 85}, {"time": 14879, "pitch": 58, "duration": 26, "velocity": 100}, {"time": 14879, "pitch": 59, "duration": 23, "velocity": 100}, {"time": 14879, "pitch": 63, "duration": 42, "velocity": 91}, {"time": 14879, "pitch": 66, "duration": 40, "velocity": 96}, {"time": 15119, "pitch": 30, "duration": 43, "velocity": 83}, {"time": 15119, "pitch": 42, "duration": 61, "velocity": 89}, {"time": 15248, "pitch": 58, "duration": 31, "velocity": 103}, {"time": 15248, "pitch": 59, "duration": 22, "velocity": 100}, {"time": 15248, "pitch": 63, "duration": 29, "velocity": 88}, {"time": 15248, "pitch": 66, "duration": 56, "velocity": 96}, {"time": 15487, "pitch": 30, "duration": 54, "velocity": 86}, {"time": 15487, "pitch": 42, "duration": 59, "velocity": 92}, {"time": 15597, "pitch": 58, "duration": 240, "velocity": 110}, {"time": 15597, "pitch": 59, "duration": 238, "velocity": 107}, {"time": 15597, "pitch": 63, "duration": 239, "velocity": 105}, {"time": 15597, "pitch": 66, "duration": 238, "velocity": 112}, {"time": 15837, "pitch": 30, "duration": 152, "velocity": 96}, {"time": 15968, "pitch": 42, "duration": 118, "velocity": 94}, {"time": 16080, "pitch": 52, "duration": 56, "velocity": 85}, {"time": 16080, "pitch": 56, "duration": 29, "velocity": 89}, {"time": 16080, "pitch": 57, "duration": 79, "velocity": 91}, {"time": 16080, "pitch": 61, "duration": 31, "velocity": 86}, {"time": 16324, "pitch": 52, "duration": 29, "velocity": 98}, {"time": 16324, "pitch": 56, "duration": 22, "velocity": 105}, {"time": 16324, "pitch": 57, "duration": 65, "velocity": 91}, {"time": 16324, "pitch": 61, "duration": 79, "velocity": 103}, {"time": 16564, "pitch": 30, "duration": 87, "velocity": 83}, {"time": 16564, "pitch": 42, "duration": 73, "velocity": 83}, {"time": 16803, "pitch": 52, "duration": 29, "velocity": 96}, {"time": 16803, "pitch": 56, "duration": 25, "velocity": 98}, {"time": 16803, "pitch": 57, "duration": 77, "velocity": 82}, {"time": 16803, "pitch": 61, "duration": 72, "velocity": 96}, {"time": 17043, "pitch": 30, "duration": 48, "velocity": 80}, {"time": 17043, "pitch": 42, "duration": 50, "velocity": 65}, {"time": 17172, "pitch": 52, "duration": 27, "velocity": 98}, {"time": 17172, "pitch": 56, "duration": 25, "velocity": 98}, {"time": 17172, "pitch": 57, "duration": 74, "velocity": 86}, {"time": 17172, "pitch": 61, "duration": 74, "velocity": 102}, {"time": 17411, "pitch": 30, "duration": 71, "velocity": 67}, {"time": 17411, "pitch": 42, "duration": 65, "velocity": 68}, {"time": 17521, "pitch": 54, "duration": 409, "velocity": 95}, {"time": 17521, "pitch": 58, "duration": 430, "velocity": 101}, {"time": 17521, "pitch": 59, "duration": 417, "velocity": 99}, {"time": 17521, "pitch": 63, "duration": 417, "velocity": 99}, {"time": 17890, "pitch": 30, "duration": 123, "velocity": 87}, {"time": 17890, "pitch": 42, "duration": 93, "velocity": 81}, {"time": 17999, "pitch": 54, "duration": 30, "velocity": 88}, {"time": 17999, "pitch": 58, "duration": 63, "velocity": 88}, {"time": 17999, "pitch": 59, "duration": 25, "velocity": 83}, {"time": 17999, "pitch": 63, "duration": 37, "velocity": 73}, {"time": 18239, "pitch": 54, "duration": 35, "velocity": 98}, {"time": 18239, "pitch": 58, "duration": 48, "velocity": 100}, {"time": 18239, "pitch": 59, "duration": 46, "velocity": 84}, {"time": 18239, "pitch": 63, "duration": 51, "velocity": 89}, {"time": 18478, "pitch": 30, "duration": 91, "velocity": 83}, {"time": 18478, "pitch": 42, "duration": 62, "velocity": 82}, {"time": 18717, "pitch": 54, "duration": 24, "velocity": 100}, {"time": 18717, "pitch": 58, "duration": 29, "velocity": 100}, {"time": 18717, "pitch": 59, "duration": 22, "velocity": 91}, {"time": 18717, "pitch": 63, "duration": 62, "velocity": 100}, {"time": 18961, "pitch": 30, "duration": 60, "velocity": 61}, {"time": 18961, "pitch": 42, "duration": 59, "velocity": 77}, {"time": 19093, "pitch": 54, "duration": 34, "velocity": 103}, {"time": 19093, "pitch": 58, "duration": 44, "velocity": 102}, {"time": 19093, "pitch": 59, "duration": 40, "velocity": 96}, {"time": 19093, "pitch": 63, "duration": 44, "velocity": 100}, {"time": 19335, "pitch": 30, "duration": 48, "velocity": 67}, {"time": 19335, "pitch": 42, "duration": 34, "velocity": 77}, {"time": 19444, "pitch": 54, "duration": 83, "velocity": 94}, {"time": 19444, "pitch": 58, "duration": 91, "velocity": 88}, {"time": 19444, "pitch": 59, "duration": 29, "velocity": 85}, {"time": 19444, "pitch": 63, "duration": 100, "velocity": 92}, {"time": 19684, "pitch": 30, "duration": 325, "velocity": 96}, {"time": 19813, "pitch": 42, "duration": 129, "velocity": 94}, {"time": 19923, "pitch": 56, "duration": 23, "velocity": 103}, {"time": 19923, "pitch": 57, "duration": 86, "velocity": 94}, {"time": 19923, "pitch": 61, "duration": 44, "velocity": 91}, {"time": 19923, "pitch": 64, "duration": 78, "velocity": 94}, {"time": 20162, "pitch": 56, "duration": 32, "velocity": 102}, {"time": 20162, "pitch": 57, "duration": 148, "velocity": 91}, {"time": 20162, "pitch": 61, "duration": 130, "velocity": 98}, {"time": 20162, "pitch": 64, "duration": 139, "velocity": 92}, {"time": 20402, "pitch": 30, "duration": 86, "velocity": 77}, {"time": 20402, "pitch": 42, "duration": 42, "velocity": 68}, {"time": 20641, "pitch": 56, "duration": 23, "velocity": 103}, {"time": 20641, "pitch": 57, "duration": 86, "velocity": 94}, {"time": 20641, "pitch": 61, "duration": 44, "velocity": 91}, {"time": 20641, "pitch": 64, "duration": 78, "velocity": 94}, {"time": 20880, "pitch": 30, "duration": 57, "velocity": 81}, {"time": 20880, "pitch": 42, "duration": 61, "velocity": 81}, {"time": 21010, "pitch": 56, "duration": 20, "velocity": 114}, {"time": 21010, "pitch": 57, "duration": 60, "velocity": 96}, {"time": 21010, "pitch": 61, "duration": 31, "velocity": 91}, {"time": 21010, "pitch": 64, "duration": 56, "velocity": 102}, {"time": 21359, "pitch": 58, "duration": 356, "velocity": 94}, {"time": 21359, "pitch": 59, "duration": 358, "velocity": 95}, {"time": 21359, "pitch": 63, "duration": 372, "velocity": 91}, {"time": 21359, "pitch": 66, "duration": 350, "velocity": 94}, {"time": 21728, "pitch": 30, "duration": 147, "velocity": 87}, {"time": 21838, "pitch": 42, "duration": 101, "velocity": 88}, {"time": 21838, "pitch": 58, "duration": 71, "velocity": 100}, {"time": 21838, "pitch": 59, "duration": 25, "velocity": 98}, {"time": 21838, "pitch": 63, "duration": 36, "velocity": 81}, {"time": 21838, "pitch": 66, "duration": 68, "velocity": 82}, {"time": 22077, "pitch": 58, "duration": 84, "velocity": 103}, {"time": 22077, "pitch": 59, "duration": 85, "velocity": 98}, {"time": 22077, "pitch": 63, "duration": 101, "velocity": 96}, {"time": 22077, "pitch": 66, "duration": 121, "velocity": 103}, {"time": 22321, "pitch": 30, "duration": 97, "velocity": 77}, {"time": 22321, "pitch": 42, "duration": 85, "velocity": 85}, {"time": 22564, "pitch": 58, "duration": 26, "velocity": 100}, {"time": 22564, "pitch": 59, "duration": 23, "velocity": 100}, {"time": 22564, "pitch": 63, "duration": 42, "velocity": 91}, {"time": 22564, "pitch": 66, "duration": 40, "velocity": 96}, {"time": 22804, "pitch": 30, "duration": 44, "velocity": 83}, {"time": 22804, "pitch": 42, "duration": 62, "velocity": 89}, {"time": 22933, "pitch": 58, "duration": 31, "velocity": 103}, {"time": 22933, "pitch": 59, "duration": 22, "velocity": 100}, {"time": 22933, "pitch": 63, "duration": 29, "velocity": 88}, {"time": 22933, "pitch": 66, "duration": 56, "velocity": 96}, {"time": 23173, "pitch": 30, "duration": 53, "velocity": 86}, {"time": 23173, "pitch": 42, "duration": 58, "velocity": 92}, {"time": 23282, "pitch": 58, "duration": 241, "velocity": 110}, {"time": 23282, "pitch": 59, "duration": 239, "velocity": 107}, {"time": 23282, "pitch": 63, "duration": 240, "velocity": 105}, {"time": 23282, "pitch": 66, "duration": 239, "velocity": 112}, {"time": 23523, "pitch": 30, "duration": 148, "velocity": 96}, {"time": 23651, "pitch": 42, "duration": 116, "velocity": 94}, {"time": 23761, "pitch": 52, "duration": 55, "velocity": 85}, {"time": 23761, "pitch": 56, "duration": 28, "velocity": 89}, {"time": 23761, "pitch": 57, "duration": 77, "velocity": 91}, {"time": 23761, "pitch": 61, "duration": 30, "velocity": 86}, {"time": 24000, "pitch": 52, "duration": 29, "velocity": 98}, {"time": 24000, "pitch": 56, "duration": 22, "velocity": 105}, {"time": 24000, "pitch": 57, "duration": 65, "velocity": 91}, {"time": 24000, "pitch": 61, "duration": 79, "velocity": 103}, {"time": 24239, "pitch": 30, "duration": 88, "velocity": 83}, {"time": 24239, "pitch": 42, "duration": 74, "velocity": 83}, {"time": 24479, "pitch": 52, "duration": 29, "velocity": 96}, {"time": 24479, "pitch": 56, "duration": 25, "velocity": 98}, {"time": 24479, "pitch": 57, "duration": 77, "velocity": 82}, {"time": 24479, "pitch": 61, "duration": 72, "velocity": 96}, {"time": 24719, "pitch": 30, "duration": 48, "velocity": 80}, {"time": 24719, "pitch": 42, "duration": 50, "velocity": 65}, {"time": 24848, "pitch": 52, "duration": 27, "velocity": 98}, {"time": 24848, "pitch": 56, "duration": 25, "velocity": 98}, {"time": 24848, "pitch": 57, "duration": 73, "velocity": 86}, {"time": 24848, "pitch": 61, "duration": 73, "velocity": 102}, {"time": 25089, "pitch": 30, "duration": 73, "velocity": 67}, {"time": 25089, "pitch": 42, "duration": 67, "velocity": 68}, {"time": 25201, "pitch": 54, "duration": 414, "velocity": 95}, {"time": 25201, "pitch": 58, "duration": 436, "velocity": 101}, {"time": 25201, "pitch": 59, "duration": 423, "velocity": 99}, {"time": 25201, "pitch": 63, "duration": 423, "velocity": 99}, {"time": 25575, "pitch": 30, "duration": 124, "velocity": 87}, {"time": 25575, "pitch": 42, "duration": 94, "velocity": 81}, {"time": 25685, "pitch": 54, "duration": 29, "velocity": 88}, {"time": 25685, "pitch": 58, "duration": 62, "velocity": 88}, {"time": 25685, "pitch": 59, "duration": 24, "velocity": 83}, {"time": 25685, "pitch": 63, "duration": 36, "velocity": 73}, {"time": 25924, "pitch": 54, "duration": 36, "velocity": 98}, {"time": 25924, "pitch": 58, "duration": 49, "velocity": 100}, {"time": 25924, "pitch": 59, "duration": 47, "velocity": 84}, {"time": 25924, "pitch": 63, "duration": 52, "velocity": 89}, {"time": 26163, "pitch": 30, "duration": 91, "velocity": 83}, {"time": 26163, "pitch": 42, "duration": 62, "velocity": 82}, {"time": 26402, "pitch": 54, "duration": 24, "velocity": 100}, {"time": 26402, "pitch": 58, "duration": 28, "velocity": 100}, {"time": 26402, "pitch": 59, "duration": 22, "velocity": 91}, {"time": 26402, "pitch": 63, "duration": 61, "velocity": 100}, {"time": 26642, "pitch": 30, "duration": 59, "velocity": 61}, {"time": 26642, "pitch": 42, "duration": 58, "velocity": 77}, {"time": 26771, "pitch": 54, "duration": 33, "velocity": 103}, {"time": 26771, "pitch": 58, "duration": 43, "velocity": 102}, {"time": 26771, "pitch": 59, "duration": 39, "velocity": 96}, {"time": 26771, "pitch": 63, "duration": 43, "velocity": 100}, {"time": 27011, "pitch": 30, "duration": 47, "velocity": 67}, {"time": 27011, "pitch": 42, "duration": 33, "velocity": 77}, {"time": 27120, "pitch": 54, "duration": 83, "velocity": 94}, {"time": 27120, "pitch": 58, "duration": 91, "velocity": 88}, {"time": 27120, "pitch": 59, "duration": 29, "velocity": 85}, {"time": 27120, "pitch": 63, "duration": 100, "velocity": 92}, {"time": 27360, "pitch": 30, "duration": 325, "velocity": 96}, {"time": 27489, "pitch": 42, "duration": 129, "velocity": 94}, {"time": 27599, "pitch": 56, "duration": 23, "velocity": 103}, {"time": 27599, "pitch": 57, "duration": 86, "velocity": 94}, {"time": 27599, "pitch": 61, "duration": 44, "velocity": 91}, {"time": 27599, "pitch": 64, "duration": 78, "velocity": 94}, {"time": 27838, "pitch": 56, "duration": 32, "velocity": 102}, {"time": 27838, "pitch": 57, "duration": 148, "velocity": 91}, {"time": 27838, "pitch": 61, "duration": 130, "velocity": 98}, {"time": 27838, "pitch": 64, "duration": 139, "velocity": 92}, {"time": 28077, "pitch": 30, "duration": 87, "velocity": 77}, {"time": 28077, "pitch": 42, "duration": 43, "velocity": 68}, {"time": 28317, "pitch": 56, "duration": 23, "velocity": 103}, {"time": 28317, "pitch": 57, "duration": 87, "velocity": 94}, {"time": 28317, "pitch": 61, "duration": 44, "velocity": 91}, {"time": 28317, "pitch": 64, "duration": 79, "velocity": 94}, {"time": 28561, "pitch": 30, "duration": 58, "velocity": 81}, {"time": 28561, "pitch": 42, "duration": 62, "velocity": 81}, {"time": 28693, "pitch": 56, "duration": 20, "velocity": 114}, {"time": 28693, "pitch": 57, "duration": 61, "velocity": 96}, {"time": 28693, "pitch": 61, "duration": 31, "velocity": 91}, {"time": 28693, "pitch": 64, "duration": 57, "velocity": 102}, {"time": 29044, "pitch": 58, "duration": 356, "velocity": 94}, {"time": 29044, "pitch": 59, "duration": 358, "velocity": 95}, {"time": 29044, "pitch": 63, "duration": 372, "velocity": 91}, {"time": 29044, "pitch": 66, "duration": 350, "velocity": 94}, {"time": 29413, "pitch": 30, "duration": 147, "velocity": 87}, {"time": 29523, "pitch": 42, "duration": 101, "velocity": 88}, {"time": 29523, "pitch": 58, "duration": 71, "velocity": 100}, {"time": 29523, "pitch": 59, "duration": 25, "velocity": 98}, {"time": 29523, "pitch": 63, "duration": 36, "velocity": 81}, {"time": 29523, "pitch": 66, "duration": 68, "velocity": 82}, {"time": 29762, "pitch": 58, "duration": 83, "velocity": 103}, {"time": 29762, "pitch": 59, "duration": 84, "velocity": 98}, {"time": 29762, "pitch": 63, "duration": 99, "velocity": 96}, {"time": 29762, "pitch": 66, "duration": 119, "velocity": 103}, {"time": 30001, "pitch": 30, "duration": 96, "velocity": 77}, {"time": 30001, "pitch": 42, "duration": 84, "velocity": 85}, {"time": 30240, "pitch": 58, "duration": 26, "velocity": 100}, {"time": 30240, "pitch": 59, "duration": 23, "velocity": 100}, {"time": 30240, "pitch": 63, "duration": 42, "velocity": 91}, {"time": 30240, "pitch": 66, "duration": 40, "velocity": 96}, {"time": 30480, "pitch": 30, "duration": 43, "velocity": 83}, {"time": 30480, "pitch": 42, "duration": 61, "velocity": 89}, {"time": 30609, "pitch": 58, "duration": 31, "velocity": 103}, {"time": 30609, "pitch": 59, "duration": 22, "velocity": 100}, {"time": 30609, "pitch": 63, "duration": 29, "velocity": 88}, {"time": 30609, "pitch": 66, "duration": 56, "velocity": 96}, {"time": 30848, "pitch": 30, "duration": 54, "velocity": 86}, {"time": 30848, "pitch": 42, "duration": 59, "velocity": 92}, {"time": 30958, "pitch": 58, "duration": 240, "velocity": 110}, {"time": 30958, "pitch": 59, "duration": 238, "velocity": 107}, {"time": 30958, "pitch": 63, "duration": 239, "velocity": 105}, {"time": 30958, "pitch": 66, "duration": 238, "velocity": 112}, {"time": 31198, "pitch": 30, "duration": 152, "velocity": 96}, {"time": 31330, "pitch": 42, "duration": 118, "velocity": 94}, {"time": 31441, "pitch": 52, "duration": 56, "velocity": 85}, {"time": 31441, "pitch": 56, "duration": 29, "velocity": 89}, {"time": 31441, "pitch": 57, "duration": 79, "velocity": 91}, {"time": 31441, "pitch": 61, "duration": 31, "velocity": 86}, {"time": 31685, "pitch": 52, "duration": 29, "velocity": 98}, {"time": 31685, "pitch": 56, "duration": 22, "velocity": 105}, {"time": 31685, "pitch": 57, "duration": 65, "velocity": 91}, {"time": 31685, "pitch": 61, "duration": 79, "velocity": 103}, {"time": 31925, "pitch": 30, "duration": 87, "velocity": 83}, {"time": 31925, "pitch": 42, "duration": 73, "velocity": 83}, {"time": 32164, "pitch": 52, "duration": 29, "velocity": 96}, {"time": 32164, "pitch": 56, "duration": 25, "velocity": 98}, {"time": 32164, "pitch": 57, "duration": 77, "velocity": 82}, {"time": 32164, "pitch": 61, "duration": 72, "velocity": 96}, {"time": 32404, "pitch": 30, "duration": 48, "velocity": 80}, {"time": 32404, "pitch": 42, "duration": 50, "velocity": 65}, {"time": 32533, "pitch": 52, "duration": 27, "velocity": 98}, {"time": 32533, "pitch": 56, "duration": 25, "velocity": 98}, {"time": 32533, "pitch": 57, "duration": 74, "velocity": 86}, {"time": 32533, "pitch": 61, "duration": 74, "velocity": 102}, {"time": 32772, "pitch": 30, "duration": 71, "velocity": 67}, {"time": 32772, "pitch": 42, "duration": 65, "velocity": 68}, {"time": 32882, "pitch": 54, "duration": 409, "velocity": 95}, {"time": 32882, "pitch": 58, "duration": 431, "velocity": 101}, {"time": 32882, "pitch": 59, "duration": 418, "velocity": 99}, {"time": 32882, "pitch": 63, "duration": 418, "velocity": 99}, {"time": 33251, "pitch": 30, "duration": 123, "velocity": 87}, {"time": 33251, "pitch": 42, "duration": 93, "velocity": 81}, {"time": 33360, "pitch": 54, "duration": 30, "velocity": 88}, {"time": 33360, "pitch": 58, "duration": 63, "velocity": 88}, {"time": 33360, "pitch": 59, "duration": 25, "velocity": 83}, {"time": 33360, "pitch": 63, "duration": 37, "velocity": 73}, {"time": 33600, "pitch": 54, "duration": 36, "velocity": 98}, {"time": 33600, "pitch": 58, "duration": 49, "velocity": 100}, {"time": 33600, "pitch": 59, "duration": 47, "velocity": 84}, {"time": 33600, "pitch": 63, "duration": 52, "velocity": 89}, {"time": 33839, "pitch": 30, "duration": 91, "velocity": 83}, {"time": 33839, "pitch": 42, "duration": 62, "velocity": 82}, {"time": 34078, "pitch": 54, "duration": 24, "velocity": 100}, {"time": 34078, "pitch": 58, "duration": 28, "velocity": 100}, {"time": 34078, "pitch": 59, "duration": 22, "velocity": 91}, {"time": 34078, "pitch": 63, "duration": 61, "velocity": 100}, {"time": 34318, "pitch": 30, "duration": 58, "velocity": 61}, {"time": 34318, "pitch": 42, "duration": 57, "velocity": 77}, {"time": 34447, "pitch": 54, "duration": 33, "velocity": 103}, {"time": 34447, "pitch": 58, "duration": 43, "velocity": 102}, {"time": 34447, "pitch": 59, "duration": 39, "velocity": 96}, {"time": 34447, "pitch": 63, "duration": 43, "velocity": 100}, {"time": 34689, "pitch": 30, "duration": 49, "velocity": 67}, {"time": 34689, "pitch": 42, "duration": 35, "velocity": 77}, {"time": 34801, "pitch": 54, "duration": 84, "velocity": 94}, {"time": 34801, "pitch": 58, "duration": 92, "velocity": 88}, {"time": 34801, "pitch": 59, "duration": 29, "velocity": 85}, {"time": 34801, "pitch": 63, "duration": 102, "velocity": 92}, {"time": 35045, "pitch": 30, "duration": 325, "velocity": 96}, {"time": 35174, "pitch": 42, "duration": 129, "velocity": 94}, {"time": 35284, "pitch": 56, "duration": 23, "velocity": 103}, {"time": 35284, "pitch": 57, "duration": 86, "velocity": 94}, {"time": 35284, "pitch": 61, "duration": 44, "velocity": 91}, {"time": 35284, "pitch": 64, "duration": 78, "velocity": 94}, {"time": 35523, "pitch": 56, "duration": 32, "velocity": 102}, {"time": 35523, "pitch": 57, "duration": 148, "velocity": 91}, {"time": 35523, "pitch": 61, "duration": 130, "velocity": 98}, {"time": 35523, "pitch": 64, "duration": 139, "velocity": 92}, {"time": 35763, "pitch": 30, "duration": 86, "velocity": 77}, {"time": 35763, "pitch": 42, "duration": 43, "velocity": 68}, {"time": 36002, "pitch": 56, "duration": 23, "velocity": 103}, {"time": 36002, "pitch": 57, "duration": 86, "velocity": 94}, {"time": 36002, "pitch": 61, "duration": 44, "velocity": 91}, {"time": 36002, "pitch": 64, "duration": 78, "velocity": 94}, {"time": 36241, "pitch": 30, "duration": 57, "velocity": 81}, {"time": 36241, "pitch": 42, "duration": 61, "velocity": 81}, {"time": 36371, "pitch": 56, "duration": 20, "velocity": 114}, {"time": 36371, "pitch": 57, "duration": 60, "velocity": 96}, {"time": 36371, "pitch": 61, "duration": 31, "velocity": 91}, {"time": 36371, "pitch": 64, "duration": 56, "velocity": 102}, {"time": 36720, "pitch": 58, "duration": 356, "velocity": 94}, {"time": 36720, "pitch": 59, "duration": 358, "velocity": 95}, {"time": 36720, "pitch": 63, "duration": 372, "velocity": 91}, {"time": 36720, "pitch": 66, "duration": 350, "velocity": 94}, {"time": 37089, "pitch": 30, "duration": 147, "velocity": 87}, {"time": 37199, "pitch": 42, "duration": 101, "velocity": 88}, {"time": 37199, "pitch": 58, "duration": 71, "velocity": 100}, {"time": 37199, "pitch": 59, "duration": 25, "velocity": 98}, {"time": 37199, "pitch": 63, "duration": 36, "velocity": 81}, {"time": 37199, "pitch": 66, "duration": 68, "velocity": 82}, {"time": 37438, "pitch": 58, "duration": 84, "velocity": 103}, {"time": 37438, "pitch": 59, "duration": 85, "velocity": 98}, {"time": 37438, "pitch": 63, "duration": 101, "velocity": 96}, {"time": 37438, "pitch": 66, "duration": 122, "velocity": 103}, {"time": 37682, "pitch": 30, "duration": 97, "velocity": 77}, {"time": 37682, "pitch": 42, "duration": 85, "velocity": 85}, {"time": 37926, "pitch": 58, "duration": 26, "velocity": 100}, {"time": 37926, "pitch": 59, "duration": 23, "velocity": 100}, {"time": 37926, "pitch": 63, "duration": 41, "velocity": 91}, {"time": 37926, "pitch": 66, "duration": 39, "velocity": 96}, {"time": 38165, "pitch": 30, "duration": 44, "velocity": 83}, {"time": 38165, "pitch": 42, "duration": 62, "velocity": 89}, {"time": 38294, "pitch": 58, "duration": 31, "velocity": 103}, {"time": 38294, "pitch": 59, "duration": 22, "velocity": 100}, {"time": 38294, "pitch": 63, "duration": 29, "velocity": 88}, {"time": 38294, "pitch": 66, "duration": 56, "velocity": 96}, {"time": 38534, "pitch": 30, "duration": 54, "velocity": 86}, {"time": 38534, "pitch": 42, "duration": 59, "velocity": 92}, {"time": 38643, "pitch": 58, "duration": 241, "velocity": 110}, {"time": 38643, "pitch": 59, "duration": 239, "velocity": 107}, {"time": 38643, "pitch": 63, "duration": 240, "velocity": 105}, {"time": 38643, "pitch": 66, "duration": 239, "velocity": 112}, {"time": 38884, "pitch": 30, "duration": 148, "velocity": 96}, {"time": 39012, "pitch": 42, "duration": 116, "velocity": 94}, {"time": 39122, "pitch": 52, "duration": 55, "velocity": 85}, {"time": 39122, "pitch": 56, "duration": 28, "velocity": 89}, {"time": 39122, "pitch": 57, "duration": 77, "velocity": 91}, {"time": 39122, "pitch": 61, "duration": 30, "velocity": 86}, {"time": 39361, "pitch": 52, "duration": 29, "velocity": 98}, {"time": 39361, "pitch": 56, "duration": 22, "velocity": 105}, {"time": 39361, "pitch": 57, "duration": 65, "velocity": 91}, {"time": 39361, "pitch": 61, "duration": 79, "velocity": 103}, {"time": 39601, "pitch": 30, "duration": 87, "velocity": 83}, {"time": 39601, "pitch": 42, "duration": 73, "velocity": 83}, {"time": 39840, "pitch": 52, "duration": 29, "velocity": 96}, {"time": 39840, "pitch": 56, "duration": 25, "velocity": 98}, {"time": 39840, "pitch": 57, "duration": 77, "velocity": 82}, {"time": 39840, "pitch": 61, "duration": 72, "velocity": 96}, {"time": 40080, "pitch": 30, "duration": 48, "velocity": 80}, {"time": 40080, "pitch": 42, "duration": 50, "velocity": 65}, {"time": 40209, "pitch": 52, "duration": 27, "velocity": 98}, {"time": 40209, "pitch": 56, "duration": 25, "velocity": 98}, {"time": 40209, "pitch": 57, "duration": 74, "velocity": 86}, {"time": 40209, "pitch": 61, "duration": 74, "velocity": 102}, {"time": 40448, "pitch": 30, "duration": 71, "velocity": 67}, {"time": 40448, "pitch": 42, "duration": 65, "velocity": 68}, {"time": 40558, "pitch": 54, "duration": 412, "velocity": 95}, {"time": 40558, "pitch": 58, "duration": 434, "velocity": 101}, {"time": 40558, "pitch": 59, "duration": 421, "velocity": 99}, {"time": 40558, "pitch": 63, "duration": 421, "velocity": 99}, {"time": 40929, "pitch": 30, "duration": 126, "velocity": 87}, {"time": 40929, "pitch": 42, "duration": 96, "velocity": 81}, {"time": 41041, "pitch": 54, "duration": 30, "velocity": 88}, {"time": 41041, "pitch": 58, "duration": 64, "velocity": 88}, {"time": 41041, "pitch": 59, "duration": 25, "velocity": 83}, {"time": 41041, "pitch": 63, "duration": 38, "velocity": 73}, {"time": 41285, "pitch": 54, "duration": 36, "velocity": 98}, {"time": 41285, "pitch": 58, "duration": 49, "velocity": 100}, {"time": 41285, "pitch": 59, "duration": 47, "velocity": 84}, {"time": 41285, "pitch": 63, "duration": 52, "velocity": 89}, {"time": 41524, "pitch": 30, "duration": 91, "velocity": 83}, {"time": 41524, "pitch": 42, "duration": 62, "velocity": 82}, {"time": 41764, "pitch": 54, "duration": 23, "velocity": 100}, {"time": 41764, "pitch": 58, "duration": 27, "velocity": 100}, {"time": 41764, "pitch": 59, "duration": 21, "velocity": 91}, {"time": 41764, "pitch": 63, "duration": 60, "velocity": 100}, {"time": 42003, "pitch": 30, "duration": 59, "velocity": 61}, {"time": 42003, "pitch": 42, "duration": 58, "velocity": 77}, {"time": 42132, "pitch": 54, "duration": 33, "velocity": 103}, {"time": 42132, "pitch": 58, "duration": 43, "velocity": 102}, {"time": 42132, "pitch": 59, "duration": 39, "velocity": 96}, {"time": 42132, "pitch": 63, "duration": 43, "velocity": 100}, {"time": 42372, "pitch": 30, "duration": 48, "velocity": 67}, {"time": 42372, "pitch": 42, "duration": 34, "velocity": 77}, {"time": 42481, "pitch": 54, "duration": 83, "velocity": 94}, {"time": 42481, "pitch": 58, "duration": 91, "velocity": 88}, {"time": 42481, "pitch": 59, "duration": 29, "velocity": 85}, {"time": 42481, "pitch": 63, "duration": 100, "velocity": 92}, {"time": 42721, "pitch": 30, "duration": 325, "velocity": 96}, {"time": 42850, "pitch": 42, "duration": 129, "velocity": 94}, {"time": 42960, "pitch": 56, "duration": 23, "velocity": 103}, {"time": 42960, "pitch": 57, "duration": 86, "velocity": 94}, {"time": 42960, "pitch": 61, "duration": 44, "velocity": 91}, {"time": 42960, "pitch": 64, "duration": 78, "velocity": 94}, {"time": 43199, "pitch": 56, "duration": 32, "velocity": 102}, {"time": 43199, "pitch": 57, "duration": 148, "velocity": 91}, {"time": 43199, "pitch": 61, "duration": 130, "velocity": 98}, {"time": 43199, "pitch": 64, "duration": 139, "velocity": 92}, {"time": 43438, "pitch": 30, "duration": 87, "velocity": 77}, {"time": 43438, "pitch": 42, "duration": 43, "velocity": 68}, {"time": 43678, "pitch": 56, "duration": 23, "velocity": 103}, {"time": 43678, "pitch": 57, "duration": 85, "velocity": 94}, {"time": 43678, "pitch": 61, "duration": 44, "velocity": 91}, {"time": 43678, "pitch": 64, "duration": 78, "velocity": 94}, {"time": 43917, "pitch": 30, "duration": 57, "velocity": 81}, {"time": 43917, "pitch": 42, "duration": 61, "velocity": 81}, {"time": 44047, "pitch": 56, "duration": 20, "velocity": 114}, {"time": 44047, "pitch": 57, "duration": 59, "velocity": 96}, {"time": 44047, "pitch": 61, "duration": 31, "velocity": 91}, {"time": 44047, "pitch": 64, "duration": 55, "velocity": 102}, {"time": 44400, "pitch": 58, "duration": 361, "velocity": 94}, {"time": 44400, "pitch": 59, "duration": 363, "velocity": 95}, {"time": 44400, "pitch": 63, "duration": 377, "velocity": 91}, {"time": 44400, "pitch": 66, "duration": 355, "velocity": 94}, {"time": 44774, "pitch": 30, "duration": 147, "velocity": 87}, {"time": 44885, "pitch": 42, "duration": 100, "velocity": 88}, {"time": 44885, "pitch": 58, "duration": 70, "velocity": 100}, {"time": 44885, "pitch": 59, "duration": 24, "velocity": 98}, {"time": 44885, "pitch": 63, "duration": 35, "velocity": 81}, {"time": 44885, "pitch": 66, "duration": 67, "velocity": 82}, {"time": 45123, "pitch": 58, "duration": 83, "velocity": 103}, {"time": 45123, "pitch": 59, "duration": 84, "velocity": 98}, {"time": 45123, "pitch": 63, "duration": 100, "velocity": 96}, {"time": 45123, "pitch": 66, "duration": 119, "velocity": 103}, {"time": 45362, "pitch": 30, "duration": 96, "velocity": 77}, {"time": 45362, "pitch": 42, "duration": 84, "velocity": 85}, {"time": 45601, "pitch": 58, "duration": 26, "velocity": 100}, {"time": 45601, "pitch": 59, "duration": 23, "velocity": 100}, {"time": 45601, "pitch": 63, "duration": 42, "velocity": 91}, {"time": 45601, "pitch": 66, "duration": 40, "velocity": 96}, {"time": 45841, "pitch": 30, "duration": 44, "velocity": 83}, {"time": 45841, "pitch": 42, "duration": 62, "velocity": 89}, {"time": 45970, "pitch": 58, "duration": 31, "velocity": 103}, {"time": 45970, "pitch": 59, "duration": 22, "velocity": 100}, {"time": 45970, "pitch": 63, "duration": 29, "velocity": 88}, {"time": 45970, "pitch": 66, "duration": 56, "velocity": 96}, {"time": 46210, "pitch": 30, "duration": 53, "velocity": 86}, {"time": 46210, "pitch": 42, "duration": 58, "velocity": 92}, {"time": 46319, "pitch": 58, "duration": 133, "velocity": 110}, {"time": 46319, "pitch": 59, "duration": 131, "velocity": 107}, {"time": 46319, "pitch": 63, "duration": 132, "velocity": 105}, {"time": 46319, "pitch": 66, "duration": 131, "velocity": 112}, {"time": 46560, "pitch": 35, "duration": 159, "velocity": 105}, {"time": 46688, "pitch": 47, "duration": 130, "velocity": 96}, {"time": 46798, "pitch": 57, "duration": 116, "velocity": 89}, {"time": 46798, "pitch": 59, "duration": 30, "velocity": 86}, {"time": 46798, "pitch": 62, "duration": 120, "velocity": 82}, {"time": 46798, "pitch": 66, "duration": 87, "velocity": 89}, {"time": 46927, "pitch": 59, "duration": 40, "velocity": 37}, {"time": 47037, "pitch": 57, "duration": 135, "velocity": 102}, {"time": 47037, "pitch": 59, "duration": 24, "velocity": 94}, {"time": 47037, "pitch": 62, "duration": 135, "velocity": 89}, {"time": 47037, "pitch": 66, "duration": 135, "velocity": 98}, {"time": 47169, "pitch": 59, "duration": 66, "velocity": 16}, {"time": 47281, "pitch": 35, "duration": 45, "velocity": 67}, {"time": 47281, "pitch": 47, "duration": 36, "velocity": 76}, {"time": 47525, "pitch": 57, "duration": 177, "velocity": 87}, {"time": 47525, "pitch": 59, "duration": 23, "velocity": 33}, {"time": 47525, "pitch": 59, "duration": 23, "velocity": 87}, {"time": 47525, "pitch": 62, "duration": 149, "velocity": 84}, {"time": 47525, "pitch": 66, "duration": 102, "velocity": 84}, {"time": 47765, "pitch": 35, "duration": 37, "velocity": 77}, {"time": 47765, "pitch": 47, "duration": 43, "velocity": 68}, {"time": 47894, "pitch": 57, "duration": 137, "velocity": 91}, {"time": 47894, "pitch": 59, "duration": 26, "velocity": 92}, {"time": 47894, "pitch": 62, "duration": 144, "velocity": 88}, {"time": 47894, "pitch": 66, "duration": 31, "velocity": 88}, {"time": 48005, "pitch": 59, "duration": 56, "velocity": 35}, {"time": 48133, "pitch": 35, "duration": 38, "velocity": 75}, {"time": 48133, "pitch": 47, "duration": 35, "velocity": 83}, {"time": 48243, "pitch": 57, "duration": 237, "velocity": 94}, {"time": 48243, "pitch": 59, "duration": 23, "velocity": 88}, {"time": 48243, "pitch": 62, "duration": 230, "velocity": 88}, {"time": 48243, "pitch": 66, "duration": 230, "velocity": 88}, {"time": 48373, "pitch": 59, "duration": 163, "velocity": 52}, {"time": 48482, "pitch": 37, "duration": 169, "velocity": 98}, {"time": 48612, "pitch": 49, "duration": 98, "velocity": 100}, {"time": 48721, "pitch": 56, "duration": 34, "velocity": 92}, {"time": 48721, "pitch": 57, "duration": 83, "velocity": 81}, {"time": 48721, "pitch": 61, "duration": 82, "velocity": 86}, {"time": 48721, "pitch": 64, "duration": 47, "velocity": 84}, {"time": 48851, "pitch": 37, "duration": 43, "velocity": 82}, {"time": 48851, "pitch": 49, "duration": 81, "velocity": 89}, {"time": 48961, "pitch": 56, "duration": 29, "velocity": 100}, {"time": 48961, "pitch": 57, "duration": 61, "velocity": 85}, {"time": 48961, "pitch": 61, "duration": 25, "velocity": 88}, {"time": 48961, "pitch": 64, "duration": 29, "velocity": 102}, {"time": 49090, "pitch": 56, "duration": 69, "velocity": 105}, {"time": 49090, "pitch": 57, "duration": 89, "velocity": 91}, {"time": 49090, "pitch": 61, "duration": 70, "velocity": 86}, {"time": 49090, "pitch": 64, "duration": 36, "velocity": 98}, {"time": 49330, "pitch": 37, "duration": 67, "velocity": 70}, {"time": 49330, "pitch": 49, "duration": 77, "velocity": 71}, {"time": 49439, "pitch": 56, "duration": 74, "velocity": 117}, {"time": 49439, "pitch": 57, "duration": 93, "velocity": 94}, {"time": 49439, "pitch": 61, "duration": 33, "velocity": 92}, {"time": 49439, "pitch": 64, "duration": 35, "velocity": 103}, {"time": 49679, "pitch": 37, "duration": 46, "velocity": 82}, {"time": 49679, "pitch": 49, "duration": 44, "velocity": 89}, {"time": 49808, "pitch": 56, "duration": 27, "velocity": 105}, {"time": 49808, "pitch": 57, "duration": 65, "velocity": 87}, {"time": 49808, "pitch": 61, "duration": 28, "velocity": 92}, {"time": 49808, "pitch": 64, "duration": 35, "velocity": 100}, {"time": 50048, "pitch": 37, "duration": 35, "velocity": 87}, {"time": 50048, "pitch": 49, "duration": 45, "velocity": 94}, {"time": 50157, "pitch": 56, "duration": 255, "velocity": 110}, {"time": 50157, "pitch": 57, "duration": 282, "velocity": 91}, {"time": 50157, "pitch": 61, "duration": 282, "velocity": 88}, {"time": 50157, "pitch": 64, "duration": 298, "velocity": 103}, {"time": 50396, "pitch": 38, "duration": 250, "velocity": 91}, {"time": 50640, "pitch": 53, "duration": 246, "velocity": 88}, {"time": 50640, "pitch": 56, "duration": 249, "velocity": 98}, {"time": 50640, "pitch": 59, "duration": 257, "velocity": 88}, {"time": 50640, "pitch": 62, "duration": 241, "velocity": 89}, {"time": 50884, "pitch": 38, "duration": 120, "velocity": 88}, {"time": 51014, "pitch": 53, "duration": 195, "velocity": 82}, {"time": 51014, "pitch": 56, "duration": 200, "velocity": 96}, {"time": 51014, "pitch": 59, "duration": 209, "velocity": 89}, {"time": 51014, "pitch": 62, "duration": 244, "velocity": 84}, {"time": 51253, "pitch": 38, "duration": 127, "velocity": 82}, {"time": 51363, "pitch": 41, "duration": 194, "velocity": 86}, {"time": 51363, "pitch": 56, "duration": 29, "velocity": 105}, {"time": 51363, "pitch": 59, "duration": 22, "velocity": 92}, {"time": 51363, "pitch": 62, "duration": 276, "velocity": 80}, {"time": 51363, "pitch": 65, "duration": 248, "velocity": 76}, {"time": 51493, "pitch": 56, "duration": 163, "velocity": 40}, {"time": 51493, "pitch": 59, "duration": 208, "velocity": 64}, {"time": 51602, "pitch": 41, "duration": 143, "velocity": 82}, {"time": 51732, "pitch": 56, "duration": 201, "velocity": 110}, {"time": 51732, "pitch": 59, "duration": 217, "velocity": 88}, {"time": 51732, "pitch": 62, "duration": 222, "velocity": 82}, {"time": 51732, "pitch": 65, "duration": 214, "velocity": 88}, {"time": 51971, "pitch": 41, "duration": 99, "velocity": 94}, {"time": 52081, "pitch": 56, "duration": 230, "velocity": 102}, {"time": 52081, "pitch": 59, "duration": 239, "velocity": 98}, {"time": 52081, "pitch": 62, "duration": 250, "velocity": 86}, {"time": 52081, "pitch": 65, "duration": 282, "velocity": 88}, {"time": 52320, "pitch": 30, "duration": 207, "velocity": 96}, {"time": 52450, "pitch": 42, "duration": 133, "velocity": 102}, {"time": 52560, "pitch": 52, "duration": 66, "velocity": 91}, {"time": 52560, "pitch": 56, "duration": 24, "velocity": 98}, {"time": 52560, "pitch": 57, "duration": 99, "velocity": 82}, {"time": 52560, "pitch": 61, "duration": 90, "velocity": 94}, {"time": 52799, "pitch": 52, "duration": 30, "velocity": 96}, {"time": 52799, "pitch": 56, "duration": 25, "velocity": 103}, {"time": 52799, "pitch": 57, "duration": 65, "velocity": 80}, {"time": 52799, "pitch": 61, "duration": 51, "velocity": 88}, {"time": 52928, "pitch": 52, "duration": 103, "velocity": 102}, {"time": 52928, "pitch": 56, "duration": 83, "velocity": 92}, {"time": 52928, "pitch": 57, "duration": 91, "velocity": 94}, {"time": 52928, "pitch": 61, "duration": 110, "velocity": 94}, {"time": 53168, "pitch": 30, "duration": 97, "velocity": 76}, {"time": 53168, "pitch": 42, "duration": 89, "velocity": 67}, {"time": 53277, "pitch": 52, "duration": 69, "velocity": 112}, {"time": 53277, "pitch": 56, "duration": 22, "velocity": 105}, {"time": 53277, "pitch": 57, "duration": 151, "velocity": 89}, {"time": 53277, "pitch": 61, "duration": 112, "velocity": 105}, {"time": 53521, "pitch": 30, "duration": 73, "velocity": 85}, {"time": 53521, "pitch": 42, "duration": 72, "velocity": 77}, {"time": 53653, "pitch": 52, "duration": 68, "velocity": 112}, {"time": 53653, "pitch": 56, "duration": 24, "velocity": 56}, {"time": 53653, "pitch": 56, "duration": 24, "velocity": 105}, {"time": 53653, "pitch": 57, "duration": 127, "velocity": 94}, {"time": 53653, "pitch": 61, "duration": 111, "velocity": 107}, {"time": 53895, "pitch": 30, "duration": 79, "velocity": 92}, {"time": 53895, "pitch": 42, "duration": 77, "velocity": 100}, {"time": 54005, "pitch": 52, "duration": 233, "velocity": 112}, {"time": 54005, "pitch": 56, "duration": 231, "velocity": 110}, {"time": 54005, "pitch": 57, "duration": 231, "velocity": 87}, {"time": 54005, "pitch": 61, "duration": 234, "velocity": 107}, {"time": 54245, "pitch": 47, "duration": 894, "velocity": 105}, {"time": 54245, "pitch": 59, "duration": 1064, "velocity": 96}, {"time": 54245, "pitch": 62, "duration": 1056, "velocity": 88}, {"time": 54245, "pitch": 66, "duration": 1066, "velocity": 98}, {"time": 54245, "pitch": 69, "duration": 1051, "velocity": 85}, {"time": 55441, "pitch": 59, "duration": 192, "velocity": 94}, {"time": 55441, "pitch": 62, "duration": 237, "velocity": 94}, {"time": 55441, "pitch": 66, "duration": 238, "velocity": 100}, {"time": 55441, "pitch": 69, "duration": 203, "velocity": 85}, {"time": 55680, "pitch": 47, "duration": 142, "velocity": 88}, {"time": 55809, "pitch": 59, "duration": 133, "velocity": 87}, {"time": 55809, "pitch": 62, "duration": 120, "velocity": 83}, {"time": 55809, "pitch": 66, "duration": 107, "velocity": 91}, {"time": 55809, "pitch": 69, "duration": 115, "velocity": 72}, {"time": 56158, "pitch": 45, "duration": 680, "velocity": 85}, {"time": 56158, "pitch": 61, "duration": 899, "velocity": 96}, {"time": 56158, "pitch": 64, "duration": 899, "velocity": 87}, {"time": 56158, "pitch": 68, "duration": 838, "velocity": 81}, {"time": 57013, "pitch": 45, "duration": 298, "velocity": 56}, {"time": 57364, "pitch": 57, "duration": 231, "velocity": 94}, {"time": 57364, "pitch": 61, "duration": 257, "velocity": 96}, {"time": 57364, "pitch": 64, "duration": 286, "velocity": 96}, {"time": 57364, "pitch": 68, "duration": 217, "velocity": 88}, {"time": 57603, "pitch": 45, "duration": 143, "velocity": 77}, {"time": 57733, "pitch": 57, "duration": 124, "velocity": 85}, {"time": 57733, "pitch": 61, "duration": 102, "velocity": 92}, {"time": 57733, "pitch": 64, "duration": 81, "velocity": 98}, {"time": 57733, "pitch": 68, "duration": 102, "velocity": 80}, {"time": 58082, "pitch": 38, "duration": 688, "velocity": 92}, {"time": 58082, "pitch": 50, "duration": 673, "velocity": 86}, {"time": 58082, "pitch": 54, "duration": 927, "velocity": 89}, {"time": 58082, "pitch": 57, "duration": 941, "velocity": 81}, {"time": 58082, "pitch": 60, "duration": 888, "velocity": 84}, {"time": 58082, "pitch": 64, "duration": 928, "velocity": 92}, {"time": 59039, "pitch": 38, "duration": 354, "velocity": 56}, {"time": 59039, "pitch": 50, "duration": 266, "velocity": 45}, {"time": 59278, "pitch": 54, "duration": 188, "velocity": 103}, {"time": 59278, "pitch": 57, "duration": 261, "velocity": 89}, {"time": 59278, "pitch": 60, "duration": 245, "velocity": 89}, {"time": 59278, "pitch": 64, "duration": 156, "velocity": 96}, {"time": 59650, "pitch": 38, "duration": 148, "velocity": 54}, {"time": 59650, "pitch": 50, "duration": 93, "velocity": 58}, {"time": 59650, "pitch": 54, "duration": 102, "velocity": 84}, {"time": 59650, "pitch": 57, "duration": 121, "velocity": 80}, {"time": 59650, "pitch": 60, "duration": 112, "velocity": 84}, {"time": 59650, "pitch": 64, "duration": 31, "velocity": 87}, {"time": 60005, "pitch": 37, "duration": 219, "velocity": 79}, {"time": 60005, "pitch": 49, "duration": 254, "velocity": 94}, {"time": 60005, "pitch": 53, "duration": 201, "velocity": 94}, {"time": 60005, "pitch": 56, "duration": 686, "velocity": 98}, {"time": 60005, "pitch": 59, "duration": 262, "velocity": 89}, {"time": 60005, "pitch": 61, "duration": 236, "velocity": 100}, {"time": 60317, "pitch": 37, "duration": 80, "velocity": 80}, {"time": 60351, "pitch": 61, "duration": 30, "velocity": 88}, {"time": 60372, "pitch": 59, "duration": 28, "velocity": 71}, {"time": 60414, "pitch": 49, "duration": 46, "velocity": 59}, {"time": 60439, "pitch": 53, "duration": 35, "velocity": 70}, {"time": 60478, "pitch": 59, "duration": 28, "velocity": 76}, {"time": 60483, "pitch": 61, "duration": 35, "velocity": 87}, {"time": 60494, "pitch": 37, "duration": 78, "velocity": 87}, {"time": 60555, "pitch": 53, "duration": 55, "velocity": 66}, {"time": 60567, "pitch": 49, "duration": 63, "velocity": 83}, {"time": 60592, "pitch": 59, "duration": 24, "velocity": 89}, {"time": 60596, "pitch": 61, "duration": 78, "velocity": 103}, {"time": 60636, "pitch": 37, "duration": 86, "velocity": 92}, {"time": 60645, "pitch": 53, "duration": 99, "velocity": 83}, {"time": 60755, "pitch": 61, "duration": 44, "velocity": 57}, {"time": 60963, "pitch": 37, "duration": 98, "velocity": 100}, {"time": 60963, "pitch": 49, "duration": 107, "velocity": 100}, {"time": 60963, "pitch": 65, "duration": 29, "velocity": 68}, {"time": 60963, "pitch": 68, "duration": 74, "velocity": 103}, {"time": 60963, "pitch": 73, "duration": 76, "velocity": 107}, {"time": 61092, "pitch": 64, "duration": 33, "velocity": 52}, {"time": 61202, "pitch": 37, "duration": 95, "velocity": 100}, {"time": 61202, "pitch": 49, "duration": 82, "velocity": 100}, {"time": 61202, "pitch": 65, "duration": 111, "velocity": 114}, {"time": 61202, "pitch": 68, "duration": 110, "velocity": 105}, {"time": 61202, "pitch": 73, "duration": 110, "velocity": 107}, {"time": 61441, "pitch": 37, "duration": 71, "velocity": 100}, {"time": 61441, "pitch": 49, "duration": 54, "velocity": 107}, {"time": 61441, "pitch": 65, "duration": 59, "velocity": 107}, {"time": 61441, "pitch": 68, "duration": 76, "velocity": 91}, {"time": 61441, "pitch": 73, "duration": 77, "velocity": 89}, {"time": 61571, "pitch": 37, "duration": 100, "velocity": 105}, {"time": 61571, "pitch": 49, "duration": 117, "velocity": 107}, {"time": 61571, "pitch": 65, "duration": 105, "velocity": 102}, {"time": 61571, "pitch": 68, "duration": 97, "velocity": 79}, {"time": 61571, "pitch": 73, "duration": 130, "velocity": 64}, {"time": 62159, "pitch": 57, "duration": 64, "velocity": 100}, {"time": 62159, "pitch": 61, "duration": 24, "velocity": 105}, {"time": 62159, "pitch": 66, "duration": 59, "velocity": 102}, {"time": 62528, "pitch": 57, "duration": 74, "velocity": 88}, {"time": 62528, "pitch": 61, "duration": 24, "velocity": 103}, {"time": 62528, "pitch": 66, "duration": 26, "velocity": 96}, {"time": 62877, "pitch": 57, "duration": 82, "velocity": 96}, {"time": 62877, "pitch": 61, "duration": 28, "velocity": 96}, {"time": 62877, "pitch": 66, "duration": 29, "velocity": 96}, {"time": 63253, "pitch": 57, "duration": 95, "velocity": 96}, {"time": 63253, "pitch": 61, "duration": 25, "velocity": 103}, {"time": 63253, "pitch": 66, "duration": 30, "velocity": 91}, {"time": 63604, "pitch": 57, "duration": 298, "velocity": 102}, {"time": 63604, "pitch": 61, "duration": 304, "velocity": 112}, {"time": 63604, "pitch": 66, "duration": 307, "velocity": 103}, {"time": 64083, "pitch": 60, "duration": 61, "velocity": 103}, {"time": 64083, "pitch": 63, "duration": 29, "velocity": 89}, {"time": 64083, "pitch": 66, "duration": 25, "velocity": 92}, {"time": 64451, "pitch": 60, "duration": 74, "velocity": 94}, {"time": 64451, "pitch": 63, "duration": 83, "velocity": 103}, {"time": 64451, "pitch": 66, "duration": 33, "velocity": 100}, {"time": 64800, "pitch": 60, "duration": 84, "velocity": 102}, {"time": 64800, "pitch": 63, "duration": 30, "velocity": 96}, {"time": 64800, "pitch": 66, "duration": 28, "velocity": 102}, {"time": 65169, "pitch": 60, "duration": 79, "velocity": 96}, {"time": 65169, "pitch": 63, "duration": 86, "velocity": 102}, {"time": 65169, "pitch": 66, "duration": 27, "velocity": 89}, {"time": 65518, "pitch": 60, "duration": 304, "velocity": 110}, {"time": 65518, "pitch": 63, "duration": 286, "velocity": 107}, {"time": 65518, "pitch": 66, "duration": 311, "velocity": 112}, {"time": 66002, "pitch": 59, "duration": 22, "velocity": 107}, {"time": 66002, "pitch": 62, "duration": 80, "velocity": 100}, {"time": 66002, "pitch": 66, "duration": 24, "velocity": 103}, {"time": 66375, "pitch": 59, "duration": 73, "velocity": 100}, {"time": 66375, "pitch": 62, "duration": 76, "velocity": 96}, {"time": 66375, "pitch": 66, "duration": 24, "velocity": 102}, {"time": 66724, "pitch": 59, "duration": 74, "velocity": 100}, {"time": 66724, "pitch": 62, "duration": 73, "velocity": 100}, {"time": 66724, "pitch": 66, "duration": 22, "velocity": 105}, {"time": 67093, "pitch": 59, "duration": 76, "velocity": 102}, {"time": 67093, "pitch": 62, "duration": 92, "velocity": 96}, {"time": 67093, "pitch": 66, "duration": 26, "velocity": 100}, {"time": 67442, "pitch": 59, "duration": 293, "velocity": 110}, {"time": 67442, "pitch": 62, "duration": 303, "velocity": 102}, {"time": 67442, "pitch": 66, "duration": 267, "velocity": 107}, {"time": 67922, "pitch": 57, "duration": 72, "velocity": 96}, {"time": 67922, "pitch": 61, "duration": 80, "velocity": 107}, {"time": 67922, "pitch": 66, "duration": 60, "velocity": 96}, {"time": 68289, "pitch": 57, "duration": 68, "velocity": 86}, {"time": 68289, "pitch": 61, "duration": 81, "velocity": 103}, {"time": 68289, "pitch": 66, "duration": 72, "velocity": 94}, {"time": 68638, "pitch": 57, "duration": 81, "velocity": 100}, {"time": 68638, "pitch": 61, "duration": 20, "velocity": 107}, {"time": 68638, "pitch": 66, "duration": 28, "velocity": 103}, {"time": 69007, "pitch": 57, "duration": 80, "velocity": 96}, {"time": 69007, "pitch": 61, "duration": 24, "velocity": 103}, {"time": 69007, "pitch": 66, "duration": 76, "velocity": 103}, {"time": 69361, "pitch": 57, "duration": 285, "velocity": 110}, {"time": 69361, "pitch": 61, "duration": 309, "velocity": 112}, {"time": 69361, "pitch": 66, "duration": 273, "velocity": 107}, {"time": 69844, "pitch": 57, "duration": 98, "velocity": 92}, {"time": 69844, "pitch": 61, "duration": 29, "velocity": 102}, {"time": 69844, "pitch": 66, "duration": 27, "velocity": 102}, {"time": 70213, "pitch": 57, "duration": 96, "velocity": 94}, {"time": 70213, "pitch": 61, "duration": 27, "velocity": 96}, {"time": 70213, "pitch": 66, "duration": 26, "velocity": 94}, {"time": 70562, "pitch": 57, "duration": 107, "velocity": 92}, {"time": 70562, "pitch": 61, "duration": 30, "velocity": 92}, {"time": 70562, "pitch": 66, "duration": 57, "velocity": 89}, {"time": 70931, "pitch": 57, "duration": 128, "velocity": 94}, {"time": 70931, "pitch": 61, "duration": 105, "velocity": 105}, {"time": 70931, "pitch": 66, "duration": 100, "velocity": 92}, {"time": 71280, "pitch": 57, "duration": 310, "velocity": 103}, {"time": 71280, "pitch": 61, "duration": 329, "velocity": 110}, {"time": 71280, "pitch": 66, "duration": 349, "velocity": 107}, {"time": 71758, "pitch": 60, "duration": 86, "velocity": 107}, {"time": 71758, "pitch": 63, "duration": 80, "velocity": 102}, {"time": 71758, "pitch": 66, "duration": 32, "velocity": 91}, {"time": 72130, "pitch": 60, "duration": 125, "velocity": 96}, {"time": 72130, "pitch": 63, "duration": 121, "velocity": 105}, {"time": 72130, "pitch": 66, "duration": 89, "velocity": 107}, {"time": 72486, "pitch": 60, "duration": 95, "velocity": 98}, {"time": 72486, "pitch": 63, "duration": 89, "velocity": 98}, {"time": 72486, "pitch": 66, "duration": 84, "velocity": 96}, {"time": 72855, "pitch": 60, "duration": 107, "velocity": 103}, {"time": 72855, "pitch": 63, "duration": 83, "velocity": 103}, {"time": 72855, "pitch": 66, "duration": 30, "velocity": 92}, {"time": 73204, "pitch": 60, "duration": 270, "velocity": 110}, {"time": 73204, "pitch": 63, "duration": 254, "velocity": 105}, {"time": 73204, "pitch": 66, "duration": 248, "velocity": 110}, {"time": 73682, "pitch": 55, "duration": 116, "velocity": 98}, {"time": 73682, "pitch": 59, "duration": 25, "velocity": 98}, {"time": 73682, "pitch": 62, "duration": 130, "velocity": 96}, {"time": 73812, "pitch": 59, "duration": 33, "velocity": 37}, {"time": 74051, "pitch": 55, "duration": 103, "velocity": 100}, {"time": 74051, "pitch": 59, "duration": 24, "velocity": 100}, {"time": 74051, "pitch": 62, "duration": 104, "velocity": 94}, {"time": 74400, "pitch": 55, "duration": 99, "velocity": 100}, {"time": 74400, "pitch": 59, "duration": 27, "velocity": 88}, {"time": 74400, "pitch": 62, "duration": 99, "velocity": 91}, {"time": 74769, "pitch": 55, "duration": 79, "velocity": 82}, {"time": 74769, "pitch": 59, "duration": 31, "velocity": 84}, {"time": 74769, "pitch": 62, "duration": 80, "velocity": 81}, {"time": 75118, "pitch": 55, "duration": 259, "velocity": 100}, {"time": 75118, "pitch": 59, "duration": 259, "velocity": 102}, {"time": 75118, "pitch": 62, "duration": 310, "velocity": 102}, {"time": 75602, "pitch": 57, "duration": 79, "velocity": 94}, {"time": 75602, "pitch": 61, "duration": 93, "velocity": 114}, {"time": 75602, "pitch": 66, "duration": 86, "velocity": 103}, {"time": 75975, "pitch": 57, "duration": 68, "velocity": 102}, {"time": 75975, "pitch": 61, "duration": 25, "velocity": 110}, {"time": 75975, "pitch": 66, "duration": 77, "velocity": 96}, {"time": 76324, "pitch": 57, "duration": 126, "velocity": 107}, {"time": 76324, "pitch": 61, "duration": 23, "velocity": 102}, {"time": 76324, "pitch": 66, "duration": 104, "velocity": 102}, {"time": 76453, "pitch": 61, "duration": 54, "velocity": 43}, {"time": 76617, "pitch": 49, "duration": 33, "velocity": 81}, {"time": 76663, "pitch": 51, "duration": 31, "velocity": 67}, {"time": 76720, "pitch": 52, "duration": 26, "velocity": 83}, {"time": 76760, "pitch": 54, "duration": 20, "velocity": 92}, {"time": 76796, "pitch": 56, "duration": 22, "velocity": 96}, {"time": 76833, "pitch": 58, "duration": 27, "velocity": 89}, {"time": 76872, "pitch": 59, "duration": 24, "velocity": 89}, {"time": 76909, "pitch": 61, "duration": 22, "velocity": 91}, {"time": 76947, "pitch": 63, "duration": 28, "velocity": 76}, {"time": 76985, "pitch": 64, "duration": 27, "velocity": 88}, {"time": 77028, "pitch": 66, "duration": 72, "velocity": 69}, {"time": 77066, "pitch": 68, "duration": 92, "velocity": 69}, {"time": 77107, "pitch": 70, "duration": 84, "velocity": 70}, {"time": 77154, "pitch": 71, "duration": 26, "velocity": 77}, {"time": 77197, "pitch": 73, "duration": 86, "velocity": 67}, {"time": 77234, "pitch": 75, "duration": 33, "velocity": 75}, {"time": 77283, "pitch": 76, "duration": 31, "velocity": 77}, {"time": 77326, "pitch": 78, "duration": 80, "velocity": 68}, {"time": 77370, "pitch": 80, "duration": 86, "velocity": 69}, {"time": 77412, "pitch": 82, "duration": 82, "velocity": 64}, {"time": 77466, "pitch": 83, "duration": 90, "velocity": 80}, {"time": 77512, "pitch": 85, "duration": 85, "velocity": 59}, {"time": 77566, "pitch": 87, "duration": 93, "velocity": 59}, {"time": 77628, "pitch": 88, "duration": 94, "velocity": 75}, {"time": 77693, "pitch": 90, "duration": 99, "velocity": 68}, {"time": 77770, "pitch": 92, "duration": 90, "velocity": 58}, {"time": 77848, "pitch": 94, "duration": 44, "velocity": 39}, {"time": 77912, "pitch": 95, "duration": 35, "velocity": 50}, {"time": 84958, "pitch": 30, "duration": 151, "velocity": 96}, {"time": 85089, "pitch": 42, "duration": 118, "velocity": 94}, {"time": 85201, "pitch": 52, "duration": 56, "velocity": 85}, {"time": 85201, "pitch": 56, "duration": 28, "velocity": 89}, {"time": 85201, "pitch": 57, "duration": 78, "velocity": 91}, {"time": 85201, "pitch": 61, "duration": 30, "velocity": 86}, {"time": 85445, "pitch": 52, "duration": 28, "velocity": 98}, {"time": 85445, "pitch": 56, "duration": 22, "velocity": 105}, {"time": 85445, "pitch": 57, "duration": 64, "velocity": 91}, {"time": 85445, "pitch": 61, "duration": 78, "velocity": 103}, {"time": 85684, "pitch": 30, "duration": 88, "velocity": 83}, {"time": 85684, "pitch": 42, "duration": 74, "velocity": 83}, {"time": 85923, "pitch": 52, "duration": 29, "velocity": 96}, {"time": 85923, "pitch": 56, "duration": 25, "velocity": 98}, {"time": 85923, "pitch": 57, "duration": 77, "velocity": 82}, {"time": 85923, "pitch": 61, "duration": 72, "velocity": 96}, {"time": 86163, "pitch": 30, "duration": 48, "velocity": 80}, {"time": 86163, "pitch": 42, "duration": 50, "velocity": 65}, {"time": 86292, "pitch": 52, "duration": 27, "velocity": 98}, {"time": 86292, "pitch": 56, "duration": 25, "velocity": 98}, {"time": 86292, "pitch": 57, "duration": 74, "velocity": 86}, {"time": 86292, "pitch": 61, "duration": 74, "velocity": 102}, {"time": 86531, "pitch": 30, "duration": 71, "velocity": 67}, {"time": 86531, "pitch": 42, "duration": 65, "velocity": 68}, {"time": 86641, "pitch": 54, "duration": 409, "velocity": 95}, {"time": 86641, "pitch": 58, "duration": 431, "velocity": 101}, {"time": 86641, "pitch": 59, "duration": 418, "velocity": 99}, {"time": 86641, "pitch": 63, "duration": 418, "velocity": 99}, {"time": 87010, "pitch": 30, "duration": 123, "velocity": 87}, {"time": 87010, "pitch": 42, "duration": 94, "velocity": 81}, {"time": 87120, "pitch": 54, "duration": 29, "velocity": 88}, {"time": 87120, "pitch": 58, "duration": 62, "velocity": 88}, {"time": 87120, "pitch": 59, "duration": 24, "velocity": 83}, {"time": 87120, "pitch": 63, "duration": 36, "velocity": 73}, {"time": 87359, "pitch": 54, "duration": 36, "velocity": 98}, {"time": 87359, "pitch": 58, "duration": 49, "velocity": 100}, {"time": 87359, "pitch": 59, "duration": 47, "velocity": 84}, {"time": 87359, "pitch": 63, "duration": 52, "velocity": 89}, {"time": 87598, "pitch": 30, "duration": 91, "velocity": 83}, {"time": 87598, "pitch": 42, "duration": 62, "velocity": 82}, {"time": 87837, "pitch": 54, "duration": 25, "velocity": 100}, {"time": 87837, "pitch": 58, "duration": 29, "velocity": 100}, {"time": 87837, "pitch": 59, "duration": 23, "velocity": 91}, {"time": 87837, "pitch": 63, "duration": 62, "velocity": 100}, {"time": 88081, "pitch": 30, "duration": 60, "velocity": 61}, {"time": 88081, "pitch": 42, "duration": 59, "velocity": 77}, {"time": 88214, "pitch": 54, "duration": 33, "velocity": 103}, {"time": 88214, "pitch": 58, "duration": 43, "velocity": 102}, {"time": 88214, "pitch": 59, "duration": 39, "velocity": 96}, {"time": 88214, "pitch": 63, "duration": 43, "velocity": 100}, {"time": 88455, "pitch": 30, "duration": 48, "velocity": 67}, {"time": 88455, "pitch": 42, "duration": 34, "velocity": 77}, {"time": 88565, "pitch": 54, "duration": 82, "velocity": 94}, {"time": 88565, "pitch": 58, "duration": 90, "velocity": 88}, {"time": 88565, "pitch": 59, "duration": 29, "velocity": 85}, {"time": 88565, "pitch": 63, "duration": 99, "velocity": 92}, {"time": 88804, "pitch": 30, "duration": 325, "velocity": 96}, {"time": 88934, "pitch": 42, "duration": 128, "velocity": 94}, {"time": 89043, "pitch": 56, "duration": 23, "velocity": 103}, {"time": 89043, "pitch": 57, "duration": 86, "velocity": 94}, {"time": 89043, "pitch": 61, "duration": 44, "velocity": 91}, {"time": 89043, "pitch": 64, "duration": 78, "velocity": 94}, {"time": 89282, "pitch": 56, "duration": 32, "velocity": 102}, {"time": 89282, "pitch": 57, "duration": 148, "velocity": 91}, {"time": 89282, "pitch": 61, "duration": 130, "velocity": 98}, {"time": 89282, "pitch": 64, "duration": 139, "velocity": 92}, {"time": 89522, "pitch": 30, "duration": 87, "velocity": 77}, {"time": 89522, "pitch": 42, "duration": 43, "velocity": 68}, {"time": 89761, "pitch": 56, "duration": 23, "velocity": 103}, {"time": 89761, "pitch": 57, "duration": 86, "velocity": 94}, {"time": 89761, "pitch": 61, "duration": 44, "velocity": 91}, {"time": 89761, "pitch": 64, "duration": 78, "velocity": 94}, {"time": 90000, "pitch": 30, "duration": 57, "velocity": 81}, {"time": 90000, "pitch": 42, "duration": 61, "velocity": 81}, {"time": 90130, "pitch": 56, "duration": 20, "velocity": 114}, {"time": 90130, "pitch": 57, "duration": 60, "velocity": 96}, {"time": 90130, "pitch": 61, "duration": 31, "velocity": 91}, {"time": 90130, "pitch": 64, "duration": 56, "velocity": 102}, {"time": 90479, "pitch": 58, "duration": 356, "velocity": 94}, {"time": 90479, "pitch": 59, "duration": 358, "velocity": 95}, {"time": 90479, "pitch": 63, "duration": 372, "velocity": 91}, {"time": 90479, "pitch": 66, "duration": 350, "velocity": 94}, {"time": 90848, "pitch": 30, "duration": 147, "velocity": 87}, {"time": 90958, "pitch": 42, "duration": 101, "velocity": 88}, {"time": 90958, "pitch": 58, "duration": 71, "velocity": 100}, {"time": 90958, "pitch": 59, "duration": 25, "velocity": 98}, {"time": 90958, "pitch": 63, "duration": 36, "velocity": 81}, {"time": 90958, "pitch": 66, "duration": 68, "velocity": 82}, {"time": 91197, "pitch": 58, "duration": 84, "velocity": 103}, {"time": 91197, "pitch": 59, "duration": 85, "velocity": 98}, {"time": 91197, "pitch": 63, "duration": 101, "velocity": 96}, {"time": 91197, "pitch": 66, "duration": 122, "velocity": 103}, {"time": 91441, "pitch": 30, "duration": 97, "velocity": 77}, {"time": 91441, "pitch": 42, "duration": 85, "velocity": 85}, {"time": 91685, "pitch": 58, "duration": 26, "velocity": 100}, {"time": 91685, "pitch": 59, "duration": 23, "velocity": 100}, {"time": 91685, "pitch": 63, "duration": 42, "velocity": 91}, {"time": 91685, "pitch": 66, "duration": 40, "velocity": 96}, {"time": 91924, "pitch": 30, "duration": 44, "velocity": 83}, {"time": 91924, "pitch": 42, "duration": 62, "velocity": 89}, {"time": 92054, "pitch": 58, "duration": 31, "velocity": 103}, {"time": 92054, "pitch": 59, "duration": 22, "velocity": 100}, {"time": 92054, "pitch": 63, "duration": 29, "velocity": 88}, {"time": 92054, "pitch": 66, "duration": 55, "velocity": 96}, {"time": 92293, "pitch": 30, "duration": 54, "velocity": 86}, {"time": 92293, "pitch": 42, "duration": 59, "velocity": 92}, {"time": 92403, "pitch": 58, "duration": 240, "velocity": 110}, {"time": 92403, "pitch": 59, "duration": 238, "velocity": 107}, {"time": 92403, "pitch": 63, "duration": 239, "velocity": 105}, {"time": 92403, "pitch": 66, "duration": 238, "velocity": 112}, {"time": 92643, "pitch": 30, "duration": 148, "velocity": 96}, {"time": 92771, "pitch": 42, "duration": 116, "velocity": 94}, {"time": 92881, "pitch": 52, "duration": 55, "velocity": 85}, {"time": 92881, "pitch": 56, "duration": 28, "velocity": 89}, {"time": 92881, "pitch": 57, "duration": 77, "velocity": 91}, {"time": 92881, "pitch": 61, "duration": 30, "velocity": 86}, {"time": 93120, "pitch": 52, "duration": 29, "velocity": 98}, {"time": 93120, "pitch": 56, "duration": 22, "velocity": 105}, {"time": 93120, "pitch": 57, "duration": 65, "velocity": 91}, {"time": 93120, "pitch": 61, "duration": 79, "velocity": 103}, {"time": 93360, "pitch": 30, "duration": 87, "velocity": 83}, {"time": 93360, "pitch": 42, "duration": 73, "velocity": 83}, {"time": 93599, "pitch": 52, "duration": 29, "velocity": 96}, {"time": 93599, "pitch": 56, "duration": 25, "velocity": 98}, {"time": 93599, "pitch": 57, "duration": 77, "velocity": 82}, {"time": 93599, "pitch": 61, "duration": 72, "velocity": 96}, {"time": 93839, "pitch": 30, "duration": 48, "velocity": 80}, {"time": 93839, "pitch": 42, "duration": 50, "velocity": 65}, {"time": 93968, "pitch": 52, "duration": 27, "velocity": 98}, {"time": 93968, "pitch": 56, "duration": 25, "velocity": 98}, {"time": 93968, "pitch": 57, "duration": 74, "velocity": 86}, {"time": 93968, "pitch": 61, "duration": 74, "velocity": 102}, {"time": 94210, "pitch": 30, "duration": 72, "velocity": 67}, {"time": 94210, "pitch": 42, "duration": 66, "velocity": 68}, {"time": 94322, "pitch": 54, "duration": 413, "velocity": 95}, {"time": 94322, "pitch": 58, "duration": 435, "velocity": 101}, {"time": 94322, "pitch": 59, "duration": 422, "velocity": 99}, {"time": 94322, "pitch": 63, "duration": 422, "velocity": 99}, {"time": 94695, "pitch": 30, "duration": 124, "velocity": 87}, {"time": 94695, "pitch": 42, "duration": 94, "velocity": 81}, {"time": 94805, "pitch": 54, "duration": 30, "velocity": 88}, {"time": 94805, "pitch": 58, "duration": 63, "velocity": 88}, {"time": 94805, "pitch": 59, "duration": 25, "velocity": 83}, {"time": 94805, "pitch": 63, "duration": 37, "velocity": 73}, {"time": 95044, "pitch": 54, "duration": 36, "velocity": 98}, {"time": 95044, "pitch": 58, "duration": 49, "velocity": 100}, {"time": 95044, "pitch": 59, "duration": 47, "velocity": 84}, {"time": 95044, "pitch": 63, "duration": 52, "velocity": 89}, {"time": 95283, "pitch": 30, "duration": 91, "velocity": 83}, {"time": 95283, "pitch": 42, "duration": 62, "velocity": 82}, {"time": 95523, "pitch": 54, "duration": 24, "velocity": 100}, {"time": 95523, "pitch": 58, "duration": 28, "velocity": 100}, {"time": 95523, "pitch": 59, "duration": 22, "velocity": 91}, {"time": 95523, "pitch": 63, "duration": 60, "velocity": 100}, {"time": 95762, "pitch": 30, "duration": 59, "velocity": 61}, {"time": 95762, "pitch": 42, "duration": 58, "velocity": 77}, {"time": 95892, "pitch": 54, "duration": 32, "velocity": 103}, {"time": 95892, "pitch": 58, "duration": 42, "velocity": 102}, {"time": 95892, "pitch": 59, "duration": 38, "velocity": 96}, {"time": 95892, "pitch": 63, "duration": 42, "velocity": 100}, {"time": 96131, "pitch": 30, "duration": 48, "velocity": 67}, {"time": 96131, "pitch": 42, "duration": 34, "velocity": 77}, {"time": 96240, "pitch": 54, "duration": 83, "velocity": 94}, {"time": 96240, "pitch": 58, "duration": 91, "velocity": 88}, {"time": 96240, "pitch": 59, "duration": 29, "velocity": 85}, {"time": 96240, "pitch": 63, "duration": 100, "velocity": 92}, {"time": 96480, "pitch": 30, "duration": 325, "velocity": 96}, {"time": 96609, "pitch": 42, "duration": 129, "velocity": 94}, {"time": 96719, "pitch": 56, "duration": 23, "velocity": 103}, {"time": 96719, "pitch": 57, "duration": 86, "velocity": 94}, {"time": 96719, "pitch": 61, "duration": 44, "velocity": 91}, {"time": 96719, "pitch": 64, "duration": 78, "velocity": 94}, {"time": 96958, "pitch": 56, "duration": 32, "velocity": 102}, {"time": 96958, "pitch": 57, "duration": 148, "velocity": 91}, {"time": 96958, "pitch": 61, "duration": 130, "velocity": 98}, {"time": 96958, "pitch": 64, "duration": 139, "velocity": 92}, {"time": 97198, "pitch": 30, "duration": 86, "velocity": 77}, {"time": 97198, "pitch": 42, "duration": 42, "velocity": 68}, {"time": 97437, "pitch": 56, "duration": 23, "velocity": 103}, {"time": 97437, "pitch": 57, "duration": 87, "velocity": 94}, {"time": 97437, "pitch": 61, "duration": 45, "velocity": 91}, {"time": 97437, "pitch": 64, "duration": 79, "velocity": 94}, {"time": 97681, "pitch": 30, "duration": 58, "velocity": 81}, {"time": 97681, "pitch": 42, "duration": 62, "velocity": 81}, {"time": 97813, "pitch": 56, "duration": 20, "velocity": 114}, {"time": 97813, "pitch": 57, "duration": 61, "velocity": 96}, {"time": 97813, "pitch": 61, "duration": 32, "velocity": 91}, {"time": 97813, "pitch": 64, "duration": 57, "velocity": 102}, {"time": 98164, "pitch": 58, "duration": 356, "velocity": 94}, {"time": 98164, "pitch": 59, "duration": 358, "velocity": 95}, {"time": 98164, "pitch": 63, "duration": 372, "velocity": 91}, {"time": 98164, "pitch": 66, "duration": 350, "velocity": 94}, {"time": 98533, "pitch": 30, "duration": 148, "velocity": 87}, {"time": 98644, "pitch": 42, "duration": 100, "velocity": 88}, {"time": 98644, "pitch": 58, "duration": 71, "velocity": 100}, {"time": 98644, "pitch": 59, "duration": 25, "velocity": 98}, {"time": 98644, "pitch": 63, "duration": 36, "velocity": 81}, {"time": 98644, "pitch": 66, "duration": 68, "velocity": 82}, {"time": 98882, "pitch": 58, "duration": 83, "velocity": 103}, {"time": 98882, "pitch": 59, "duration": 84, "velocity": 98}, {"time": 98882, "pitch": 63, "duration": 100, "velocity": 96}, {"time": 98882, "pitch": 66, "duration": 120, "velocity": 103}, {"time": 99121, "pitch": 30, "duration": 96, "velocity": 77}, {"time": 99121, "pitch": 42, "duration": 84, "velocity": 85}, {"time": 99361, "pitch": 58, "duration": 25, "velocity": 100}, {"time": 99361, "pitch": 59, "duration": 22, "velocity": 100}, {"time": 99361, "pitch": 63, "duration": 41, "velocity": 91}, {"time": 99361, "pitch": 66, "duration": 39, "velocity": 96}, {"time": 99600, "pitch": 30, "duration": 44, "velocity": 83}, {"time": 99600, "pitch": 42, "duration": 62, "velocity": 89}, {"time": 99729, "pitch": 58, "duration": 31, "velocity": 103}, {"time": 99729, "pitch": 59, "duration": 22, "velocity": 100}, {"time": 99729, "pitch": 63, "duration": 29, "velocity": 88}, {"time": 99729, "pitch": 66, "duration": 56, "velocity": 96}, {"time": 99969, "pitch": 30, "duration": 54, "velocity": 86}, {"time": 99969, "pitch": 42, "duration": 59, "velocity": 92}, {"time": 100078, "pitch": 58, "duration": 241, "velocity": 110}, {"time": 100078, "pitch": 59, "duration": 239, "velocity": 107}, {"time": 100078, "pitch": 63, "duration": 240, "velocity": 105}, {"time": 100078, "pitch": 66, "duration": 239, "velocity": 112}, {"time": 100319, "pitch": 30, "duration": 151, "velocity": 96}, {"time": 100450, "pitch": 42, "duration": 118, "velocity": 94}, {"time": 100562, "pitch": 52, "duration": 56, "velocity": 85}, {"time": 100562, "pitch": 56, "duration": 28, "velocity": 89}, {"time": 100562, "pitch": 57, "duration": 78, "velocity": 91}, {"time": 100562, "pitch": 61, "duration": 30, "velocity": 86}, {"time": 100806, "pitch": 52, "duration": 29, "velocity": 98}, {"time": 100806, "pitch": 56, "duration": 22, "velocity": 105}, {"time": 100806, "pitch": 57, "duration": 64, "velocity": 91}, {"time": 100806, "pitch": 61, "duration": 78, "velocity": 103}, {"time": 101045, "pitch": 30, "duration": 88, "velocity": 83}, {"time": 101045, "pitch": 42, "duration": 74, "velocity": 83}, {"time": 101284, "pitch": 52, "duration": 29, "velocity": 96}, {"time": 101284, "pitch": 56, "duration": 25, "velocity": 98}, {"time": 101284, "pitch": 57, "duration": 77, "velocity": 82}, {"time": 101284, "pitch": 61, "duration": 72, "velocity": 96}, {"time": 101525, "pitch": 30, "duration": 47, "velocity": 80}, {"time": 101525, "pitch": 42, "duration": 49, "velocity": 65}, {"time": 101653, "pitch": 52, "duration": 27, "velocity": 98}, {"time": 101653, "pitch": 56, "duration": 25, "velocity": 98}, {"time": 101653, "pitch": 57, "duration": 74, "velocity": 86}, {"time": 101653, "pitch": 61, "duration": 74, "velocity": 102}, {"time": 101892, "pitch": 30, "duration": 71, "velocity": 67}, {"time": 101892, "pitch": 42, "duration": 65, "velocity": 68}, {"time": 102002, "pitch": 54, "duration": 409, "velocity": 95}, {"time": 102002, "pitch": 58, "duration": 431, "velocity": 101}, {"time": 102002, "pitch": 59, "duration": 418, "velocity": 99}, {"time": 102002, "pitch": 63, "duration": 418, "velocity": 99}, {"time": 102371, "pitch": 30, "duration": 124, "velocity": 87}, {"time": 102371, "pitch": 42, "duration": 94, "velocity": 81}, {"time": 102481, "pitch": 54, "duration": 30, "velocity": 88}, {"time": 102481, "pitch": 58, "duration": 62, "velocity": 88}, {"time": 102481, "pitch": 59, "duration": 25, "velocity": 83}, {"time": 102481, "pitch": 63, "duration": 37, "velocity": 73}, {"time": 102720, "pitch": 54, "duration": 36, "velocity": 98}, {"time": 102720, "pitch": 58, "duration": 49, "velocity": 100}, {"time": 102720, "pitch": 59, "duration": 47, "velocity": 84}, {"time": 102720, "pitch": 63, "duration": 52, "velocity": 89}, {"time": 102959, "pitch": 30, "duration": 91, "velocity": 83}, {"time": 102959, "pitch": 42, "duration": 62, "velocity": 82}, {"time": 103198, "pitch": 54, "duration": 24, "velocity": 100}, {"time": 103198, "pitch": 58, "duration": 28, "velocity": 100}, {"time": 103198, "pitch": 59, "duration": 22, "velocity": 91}, {"time": 103198, "pitch": 63, "duration": 61, "velocity": 100}, {"time": 103438, "pitch": 30, "duration": 59, "velocity": 61}, {"time": 103438, "pitch": 42, "duration": 58, "velocity": 77}, {"time": 103567, "pitch": 54, "duration": 33, "velocity": 103}, {"time": 103567, "pitch": 58, "duration": 43, "velocity": 102}, {"time": 103567, "pitch": 59, "duration": 39, "velocity": 96}, {"time": 103567, "pitch": 63, "duration": 43, "velocity": 100}, {"time": 103809, "pitch": 30, "duration": 49, "velocity": 67}, {"time": 103809, "pitch": 42, "duration": 35, "velocity": 77}, {"time": 103921, "pitch": 54, "duration": 84, "velocity": 94}, {"time": 103921, "pitch": 58, "duration": 93, "velocity": 88}, {"time": 103921, "pitch": 59, "duration": 30, "velocity": 85}, {"time": 103921, "pitch": 63, "duration": 102, "velocity": 92}, {"time": 104165, "pitch": 30, "duration": 325, "velocity": 96}, {"time": 104295, "pitch": 42, "duration": 128, "velocity": 94}, {"time": 104404, "pitch": 56, "duration": 23, "velocity": 103}, {"time": 104404, "pitch": 57, "duration": 86, "velocity": 94}, {"time": 104404, "pitch": 61, "duration": 44, "velocity": 91}, {"time": 104404, "pitch": 64, "duration": 78, "velocity": 94}, {"time": 104644, "pitch": 56, "duration": 31, "velocity": 102}, {"time": 104644, "pitch": 57, "duration": 147, "velocity": 91}, {"time": 104644, "pitch": 61, "duration": 129, "velocity": 98}, {"time": 104644, "pitch": 64, "duration": 138, "velocity": 92}, {"time": 104883, "pitch": 30, "duration": 87, "velocity": 77}, {"time": 104883, "pitch": 42, "duration": 43, "velocity": 68}, {"time": 105122, "pitch": 56, "duration": 23, "velocity": 103}, {"time": 105122, "pitch": 57, "duration": 86, "velocity": 94}, {"time": 105122, "pitch": 61, "duration": 44, "velocity": 91}, {"time": 105122, "pitch": 64, "duration": 78, "velocity": 94}, {"time": 105361, "pitch": 30, "duration": 57, "velocity": 81}, {"time": 105361, "pitch": 42, "duration": 61, "velocity": 81}, {"time": 105491, "pitch": 56, "duration": 20, "velocity": 114}, {"time": 105491, "pitch": 57, "duration": 60, "velocity": 96}, {"time": 105491, "pitch": 61, "duration": 31, "velocity": 91}, {"time": 105491, "pitch": 64, "duration": 56, "velocity": 102}, {"time": 105840, "pitch": 58, "duration": 356, "velocity": 94}, {"time": 105840, "pitch": 59, "duration": 358, "velocity": 95}, {"time": 105840, "pitch": 63, "duration": 372, "velocity": 91}, {"time": 105840, "pitch": 66, "duration": 350, "velocity": 94}, {"time": 106209, "pitch": 30, "duration": 147, "velocity": 87}, {"time": 106320, "pitch": 42, "duration": 100, "velocity": 88}, {"time": 106320, "pitch": 58, "duration": 70, "velocity": 100}, {"time": 106320, "pitch": 59, "duration": 24, "velocity": 98}, {"time": 106320, "pitch": 63, "duration": 35, "velocity": 81}, {"time": 106320, "pitch": 66, "duration": 67, "velocity": 82}, {"time": 106558, "pitch": 58, "duration": 83, "velocity": 103}, {"time": 106558, "pitch": 59, "duration": 84, "velocity": 98}, {"time": 106558, "pitch": 63, "duration": 100, "velocity": 96}, {"time": 106558, "pitch": 66, "duration": 119, "velocity": 103}, {"time": 106797, "pitch": 30, "duration": 96, "velocity": 77}, {"time": 106797, "pitch": 42, "duration": 84, "velocity": 85}, {"time": 107036, "pitch": 58, "duration": 27, "velocity": 100}, {"time": 107036, "pitch": 59, "duration": 24, "velocity": 100}, {"time": 107036, "pitch": 63, "duration": 43, "velocity": 91}, {"time": 107036, "pitch": 66, "duration": 41, "velocity": 96}, {"time": 107280, "pitch": 30, "duration": 45, "velocity": 83}, {"time": 107280, "pitch": 42, "duration": 63, "velocity": 89}, {"time": 107413, "pitch": 58, "duration": 31, "velocity": 103}, {"time": 107413, "pitch": 59, "duration": 22, "velocity": 100}, {"time": 107413, "pitch": 63, "duration": 29, "velocity": 88}, {"time": 107413, "pitch": 66, "duration": 57, "velocity": 96}, {"time": 107654, "pitch": 30, "duration": 54, "velocity": 86}, {"time": 107654, "pitch": 42, "duration": 59, "velocity": 92}, {"time": 107764, "pitch": 58, "duration": 240, "velocity": 110}, {"time": 107764, "pitch": 59, "duration": 238, "velocity": 107}, {"time": 107764, "pitch": 63, "duration": 239, "velocity": 105}, {"time": 107764, "pitch": 66, "duration": 238, "velocity": 112}, {"time": 108004, "pitch": 30, "duration": 148, "velocity": 96}, {"time": 108133, "pitch": 42, "duration": 115, "velocity": 94}, {"time": 108242, "pitch": 52, "duration": 55, "velocity": 85}, {"time": 108242, "pitch": 56, "duration": 28, "velocity": 89}, {"time": 108242, "pitch": 57, "duration": 77, "velocity": 91}, {"time": 108242, "pitch": 61, "duration": 30, "velocity": 86}, {"time": 108482, "pitch": 52, "duration": 28, "velocity": 98}, {"time": 108482, "pitch": 56, "duration": 21, "velocity": 105}, {"time": 108482, "pitch": 57, "duration": 64, "velocity": 91}, {"time": 108482, "pitch": 61, "duration": 78, "velocity": 103}, {"time": 108721, "pitch": 30, "duration": 88, "velocity": 83}, {"time": 108721, "pitch": 42, "duration": 74, "velocity": 83}, {"time": 108960, "pitch": 52, "duration": 29, "velocity": 96}, {"time": 108960, "pitch": 56, "duration": 25, "velocity": 98}, {"time": 108960, "pitch": 57, "duration": 77, "velocity": 82}, {"time": 108960, "pitch": 61, "duration": 72, "velocity": 96}, {"time": 109200, "pitch": 30, "duration": 48, "velocity": 80}, {"time": 109200, "pitch": 42, "duration": 50, "velocity": 65}, {"time": 109329, "pitch": 52, "duration": 27, "velocity": 98}, {"time": 109329, "pitch": 56, "duration": 25, "velocity": 98}, {"time": 109329, "pitch": 57, "duration": 74, "velocity": 86}, {"time": 109329, "pitch": 61, "duration": 74, "velocity": 102}, {"time": 109568, "pitch": 30, "duration": 71, "velocity": 67}, {"time": 109568, "pitch": 42, "duration": 65, "velocity": 68}, {"time": 109678, "pitch": 54, "duration": 412, "velocity": 95}, {"time": 109678, "pitch": 58, "duration": 434, "velocity": 101}, {"time": 109678, "pitch": 59, "duration": 421, "velocity": 99}, {"time": 109678, "pitch": 63, "duration": 421, "velocity": 99}, {"time": 110049, "pitch": 30, "duration": 126, "velocity": 87}, {"time": 110049, "pitch": 42, "duration": 96, "velocity": 81}, {"time": 110161, "pitch": 54, "duration": 31, "velocity": 88}, {"time": 110161, "pitch": 58, "duration": 64, "velocity": 88}, {"time": 110161, "pitch": 59, "duration": 26, "velocity": 83}, {"time": 110161, "pitch": 63, "duration": 38, "velocity": 73}, {"time": 110405, "pitch": 54, "duration": 36, "velocity": 98}, {"time": 110405, "pitch": 58, "duration": 49, "velocity": 100}, {"time": 110405, "pitch": 59, "duration": 47, "velocity": 84}, {"time": 110405, "pitch": 63, "duration": 52, "velocity": 89}, {"time": 110644, "pitch": 30, "duration": 91, "velocity": 83}, {"time": 110644, "pitch": 42, "duration": 62, "velocity": 82}, {"time": 110884, "pitch": 54, "duration": 24, "velocity": 100}, {"time": 110884, "pitch": 58, "duration": 28, "velocity": 100}, {"time": 110884, "pitch": 59, "duration": 22, "velocity": 91}, {"time": 110884, "pitch": 63, "duration": 61, "velocity": 100}, {"time": 111123, "pitch": 30, "duration": 59, "velocity": 61}, {"time": 111123, "pitch": 42, "duration": 58, "velocity": 77}, {"time": 111253, "pitch": 54, "duration": 33, "velocity": 103}, {"time": 111253, "pitch": 58, "duration": 43, "velocity": 102}, {"time": 111253, "pitch": 59, "duration": 39, "velocity": 96}, {"time": 111253, "pitch": 63, "duration": 43, "velocity": 100}, {"time": 111492, "pitch": 30, "duration": 48, "velocity": 67}, {"time": 111492, "pitch": 42, "duration": 34, "velocity": 77}, {"time": 111602, "pitch": 54, "duration": 82, "velocity": 94}, {"time": 111602, "pitch": 58, "duration": 90, "velocity": 88}, {"time": 111602, "pitch": 59, "duration": 29, "velocity": 85}, {"time": 111602, "pitch": 63, "duration": 99, "velocity": 92}, {"time": 111841, "pitch": 30, "duration": 325, "velocity": 96}, {"time": 111970, "pitch": 42, "duration": 129, "velocity": 94}, {"time": 112080, "pitch": 56, "duration": 23, "velocity": 103}, {"time": 112080, "pitch": 57, "duration": 86, "velocity": 94}, {"time": 112080, "pitch": 61, "duration": 44, "velocity": 91}, {"time": 112080, "pitch": 64, "duration": 78, "velocity": 94}, {"time": 112319, "pitch": 56, "duration": 32, "velocity": 102}, {"time": 112319, "pitch": 57, "duration": 148, "velocity": 91}, {"time": 112319, "pitch": 61, "duration": 130, "velocity": 98}, {"time": 112319, "pitch": 64, "duration": 139, "velocity": 92}, {"time": 112559, "pitch": 30, "duration": 86, "velocity": 77}, {"time": 112559, "pitch": 42, "duration": 43, "velocity": 68}, {"time": 112798, "pitch": 56, "duration": 23, "velocity": 103}, {"time": 112798, "pitch": 57, "duration": 86, "velocity": 94}, {"time": 112798, "pitch": 61, "duration": 44, "velocity": 91}, {"time": 112798, "pitch": 64, "duration": 78, "velocity": 94}, {"time": 113037, "pitch": 30, "duration": 57, "velocity": 81}, {"time": 113037, "pitch": 42, "duration": 61, "velocity": 81}, {"time": 113167, "pitch": 56, "duration": 20, "velocity": 114}, {"time": 113167, "pitch": 57, "duration": 60, "velocity": 96}, {"time": 113167, "pitch": 61, "duration": 31, "velocity": 91}, {"time": 113167, "pitch": 64, "duration": 56, "velocity": 102}, {"time": 113521, "pitch": 58, "duration": 360, "velocity": 94}, {"time": 113521, "pitch": 59, "duration": 362, "velocity": 95}, {"time": 113521, "pitch": 63, "duration": 376, "velocity": 91}, {"time": 113521, "pitch": 66, "duration": 354, "velocity": 94}, {"time": 113894, "pitch": 30, "duration": 148, "velocity": 87}, {"time": 114005, "pitch": 42, "duration": 101, "velocity": 88}, {"time": 114005, "pitch": 58, "duration": 71, "velocity": 100}, {"time": 114005, "pitch": 59, "duration": 25, "velocity": 98}, {"time": 114005, "pitch": 63, "duration": 36, "velocity": 81}, {"time": 114005, "pitch": 66, "duration": 68, "velocity": 82}, {"time": 114243, "pitch": 58, "duration": 83, "velocity": 103}, {"time": 114243, "pitch": 59, "duration": 84, "velocity": 98}, {"time": 114243, "pitch": 63, "duration": 100, "velocity": 96}, {"time": 114243, "pitch": 66, "duration": 120, "velocity": 103}, {"time": 114482, "pitch": 30, "duration": 96, "velocity": 77}, {"time": 114482, "pitch": 42, "duration": 84, "velocity": 85}, {"time": 114722, "pitch": 58, "duration": 26, "velocity": 100}, {"time": 114722, "pitch": 59, "duration": 23, "velocity": 100}, {"time": 114722, "pitch": 63, "duration": 42, "velocity": 91}, {"time": 114722, "pitch": 66, "duration": 40, "velocity": 96}, {"time": 114961, "pitch": 30, "duration": 44, "velocity": 83}, {"time": 114961, "pitch": 42, "duration": 62, "velocity": 89}, {"time": 115091, "pitch": 58, "duration": 30, "velocity": 103}, {"time": 115091, "pitch": 59, "duration": 21, "velocity": 100}, {"time": 115091, "pitch": 63, "duration": 28, "velocity": 88}, {"time": 115091, "pitch": 66, "duration": 55, "velocity": 96}, {"time": 115330, "pitch": 30, "duration": 54, "velocity": 86}, {"time": 115330, "pitch": 42, "duration": 59, "velocity": 92}, {"time": 115440, "pitch": 58, "duration": 132, "velocity": 110}, {"time": 115440, "pitch": 59, "duration": 130, "velocity": 107}, {"time": 115440, "pitch": 63, "duration": 131, "velocity": 105}, {"time": 115440, "pitch": 66, "duration": 130, "velocity": 112}, {"time": 115680, "pitch": 35, "duration": 159, "velocity": 105}, {"time": 115808, "pitch": 47, "duration": 130, "velocity": 96}, {"time": 115918, "pitch": 57, "duration": 117, "velocity": 89}, {"time": 115918, "pitch": 59, "duration": 30, "velocity": 86}, {"time": 115918, "pitch": 62, "duration": 121, "velocity": 82}, {"time": 115918, "pitch": 66, "duration": 87, "velocity": 89}, {"time": 116048, "pitch": 59, "duration": 40, "velocity": 37}, {"time": 116157, "pitch": 57, "duration": 136, "velocity": 102}, {"time": 116157, "pitch": 59, "duration": 25, "velocity": 94}, {"time": 116157, "pitch": 62, "duration": 136, "velocity": 89}, {"time": 116157, "pitch": 66, "duration": 136, "velocity": 98}, {"time": 116290, "pitch": 59, "duration": 66, "velocity": 16}, {"time": 116401, "pitch": 35, "duration": 45, "velocity": 67}, {"time": 116401, "pitch": 47, "duration": 36, "velocity": 76}, {"time": 116645, "pitch": 57, "duration": 177, "velocity": 87}, {"time": 116645, "pitch": 59, "duration": 23, "velocity": 33}, {"time": 116645, "pitch": 59, "duration": 23, "velocity": 87}, {"time": 116645, "pitch": 62, "duration": 149, "velocity": 84}, {"time": 116645, "pitch": 66, "duration": 102, "velocity": 84}, {"time": 116886, "pitch": 35, "duration": 36, "velocity": 77}, {"time": 116886, "pitch": 47, "duration": 42, "velocity": 68}, {"time": 117014, "pitch": 57, "duration": 137, "velocity": 91}, {"time": 117014, "pitch": 59, "duration": 26, "velocity": 92}, {"time": 117014, "pitch": 62, "duration": 144, "velocity": 88}, {"time": 117014, "pitch": 66, "duration": 31, "velocity": 88}, {"time": 117125, "pitch": 59, "duration": 57, "velocity": 35}, {"time": 117254, "pitch": 35, "duration": 37, "velocity": 75}, {"time": 117254, "pitch": 47, "duration": 34, "velocity": 83}, {"time": 117363, "pitch": 57, "duration": 237, "velocity": 94}, {"time": 117363, "pitch": 59, "duration": 23, "velocity": 88}, {"time": 117363, "pitch": 62, "duration": 230, "velocity": 88}, {"time": 117363, "pitch": 66, "duration": 230, "velocity": 88}, {"time": 117493, "pitch": 59, "duration": 163, "velocity": 52}, {"time": 117602, "pitch": 37, "duration": 169, "velocity": 98}, {"time": 117732, "pitch": 49, "duration": 98, "velocity": 100}, {"time": 117842, "pitch": 56, "duration": 34, "velocity": 92}, {"time": 117842, "pitch": 57, "duration": 82, "velocity": 81}, {"time": 117842, "pitch": 61, "duration": 81, "velocity": 86}, {"time": 117842, "pitch": 64, "duration": 47, "velocity": 84}, {"time": 117971, "pitch": 37, "duration": 43, "velocity": 82}, {"time": 117971, "pitch": 49, "duration": 81, "velocity": 89}, {"time": 118081, "pitch": 56, "duration": 29, "velocity": 100}, {"time": 118081, "pitch": 57, "duration": 61, "velocity": 85}, {"time": 118081, "pitch": 61, "duration": 25, "velocity": 88}, {"time": 118081, "pitch": 64, "duration": 29, "velocity": 102}, {"time": 118211, "pitch": 56, "duration": 68, "velocity": 105}, {"time": 118211, "pitch": 57, "duration": 88, "velocity": 91}, {"time": 118211, "pitch": 61, "duration": 69, "velocity": 86}, {"time": 118211, "pitch": 64, "duration": 36, "velocity": 98}, {"time": 118450, "pitch": 37, "duration": 68, "velocity": 70}, {"time": 118450, "pitch": 49, "duration": 78, "velocity": 71}, {"time": 118560, "pitch": 56, "duration": 73, "velocity": 117}, {"time": 118560, "pitch": 57, "duration": 92, "velocity": 94}, {"time": 118560, "pitch": 61, "duration": 32, "velocity": 92}, {"time": 118560, "pitch": 64, "duration": 34, "velocity": 103}, {"time": 118799, "pitch": 37, "duration": 47, "velocity": 82}, {"time": 118799, "pitch": 49, "duration": 45, "velocity": 89}, {"time": 118928, "pitch": 56, "duration": 27, "velocity": 105}, {"time": 118928, "pitch": 57, "duration": 65, "velocity": 87}, {"time": 118928, "pitch": 61, "duration": 28, "velocity": 92}, {"time": 118928, "pitch": 64, "duration": 35, "velocity": 100}, {"time": 119168, "pitch": 37, "duration": 36, "velocity": 87}, {"time": 119168, "pitch": 49, "duration": 46, "velocity": 94}, {"time": 119277, "pitch": 56, "duration": 255, "velocity": 110}, {"time": 119277, "pitch": 57, "duration": 282, "velocity": 91}, {"time": 119277, "pitch": 61, "duration": 282, "velocity": 88}, {"time": 119277, "pitch": 64, "duration": 299, "velocity": 103}, {"time": 119517, "pitch": 38, "duration": 249, "velocity": 91}, {"time": 119761, "pitch": 53, "duration": 246, "velocity": 88}, {"time": 119761, "pitch": 56, "duration": 249, "velocity": 98}, {"time": 119761, "pitch": 59, "duration": 257, "velocity": 88}, {"time": 119761, "pitch": 62, "duration": 241, "velocity": 89}, {"time": 120005, "pitch": 38, "duration": 119, "velocity": 88}, {"time": 120134, "pitch": 53, "duration": 196, "velocity": 82}, {"time": 120134, "pitch": 56, "duration": 201, "velocity": 96}, {"time": 120134, "pitch": 59, "duration": 210, "velocity": 89}, {"time": 120134, "pitch": 62, "duration": 245, "velocity": 84}, {"time": 120374, "pitch": 38, "duration": 126, "velocity": 82}, {"time": 120483, "pitch": 41, "duration": 195, "velocity": 86}, {"time": 120483, "pitch": 56, "duration": 29, "velocity": 105}, {"time": 120483, "pitch": 59, "duration": 22, "velocity": 92}, {"time": 120483, "pitch": 62, "duration": 276, "velocity": 80}, {"time": 120483, "pitch": 65, "duration": 249, "velocity": 76}, {"time": 120613, "pitch": 56, "duration": 163, "velocity": 40}, {"time": 120613, "pitch": 59, "duration": 208, "velocity": 64}, {"time": 120723, "pitch": 41, "duration": 142, "velocity": 82}, {"time": 120852, "pitch": 56, "duration": 202, "velocity": 110}, {"time": 120852, "pitch": 59, "duration": 217, "velocity": 88}, {"time": 120852, "pitch": 62, "duration": 222, "velocity": 82}, {"time": 120852, "pitch": 65, "duration": 215, "velocity": 88}, {"time": 121091, "pitch": 41, "duration": 99, "velocity": 94}, {"time": 121201, "pitch": 56, "duration": 230, "velocity": 102}, {"time": 121201, "pitch": 59, "duration": 239, "velocity": 98}, {"time": 121201, "pitch": 62, "duration": 250, "velocity": 86}, {"time": 121201, "pitch": 65, "duration": 282, "velocity": 88}, {"time": 121440, "pitch": 30, "duration": 207, "velocity": 96}, {"time": 121570, "pitch": 42, "duration": 134, "velocity": 102}, {"time": 121681, "pitch": 52, "duration": 65, "velocity": 91}, {"time": 121681, "pitch": 56, "duration": 24, "velocity": 98}, {"time": 121681, "pitch": 57, "duration": 98, "velocity": 82}, {"time": 121681, "pitch": 61, "duration": 89, "velocity": 94}, {"time": 121919, "pitch": 52, "duration": 30, "velocity": 96}, {"time": 121919, "pitch": 56, "duration": 25, "velocity": 103}, {"time": 121919, "pitch": 57, "duration": 65, "velocity": 80}, {"time": 121919, "pitch": 61, "duration": 51, "velocity": 88}, {"time": 122049, "pitch": 52, "duration": 102, "velocity": 102}, {"time": 122049, "pitch": 56, "duration": 82, "velocity": 92}, {"time": 122049, "pitch": 57, "duration": 90, "velocity": 94}, {"time": 122049, "pitch": 61, "duration": 109, "velocity": 94}, {"time": 122288, "pitch": 30, "duration": 98, "velocity": 76}, {"time": 122288, "pitch": 42, "duration": 90, "velocity": 67}, {"time": 122398, "pitch": 52, "duration": 69, "velocity": 112}, {"time": 122398, "pitch": 56, "duration": 21, "velocity": 105}, {"time": 122398, "pitch": 57, "duration": 150, "velocity": 89}, {"time": 122398, "pitch": 61, "duration": 111, "velocity": 105}, {"time": 122642, "pitch": 30, "duration": 73, "velocity": 85}, {"time": 122642, "pitch": 42, "duration": 72, "velocity": 77}, {"time": 122774, "pitch": 52, "duration": 67, "velocity": 112}, {"time": 122774, "pitch": 56, "duration": 23, "velocity": 56}, {"time": 122774, "pitch": 56, "duration": 23, "velocity": 105}, {"time": 122774, "pitch": 57, "duration": 126, "velocity": 94}, {"time": 122774, "pitch": 61, "duration": 110, "velocity": 107}, {"time": 123015, "pitch": 30, "duration": 79, "velocity": 92}, {"time": 123015, "pitch": 42, "duration": 77, "velocity": 100}, {"time": 123125, "pitch": 52, "duration": 233, "velocity": 112}, {"time": 123125, "pitch": 56, "duration": 231, "velocity": 110}, {"time": 123125, "pitch": 57, "duration": 231, "velocity": 87}, {"time": 123125, "pitch": 61, "duration": 234, "velocity": 107}, {"time": 123365, "pitch": 47, "duration": 894, "velocity": 105}, {"time": 123365, "pitch": 59, "duration": 1064, "velocity": 96}, {"time": 123365, "pitch": 62, "duration": 1056, "velocity": 88}, {"time": 123365, "pitch": 66, "duration": 1066, "velocity": 98}, {"time": 123365, "pitch": 69, "duration": 1051, "velocity": 85}, {"time": 124561, "pitch": 59, "duration": 192, "velocity": 94}, {"time": 124561, "pitch": 62, "duration": 237, "velocity": 94}, {"time": 124561, "pitch": 66, "duration": 239, "velocity": 100}, {"time": 124561, "pitch": 69, "duration": 203, "velocity": 85}, {"time": 124801, "pitch": 47, "duration": 141, "velocity": 88}, {"time": 124929, "pitch": 59, "duration": 133, "velocity": 87}, {"time": 124929, "pitch": 62, "duration": 120, "velocity": 83}, {"time": 124929, "pitch": 66, "duration": 107, "velocity": 91}, {"time": 124929, "pitch": 69, "duration": 115, "velocity": 72}, {"time": 125278, "pitch": 45, "duration": 680, "velocity": 85}, {"time": 125278, "pitch": 61, "duration": 899, "velocity": 96}, {"time": 125278, "pitch": 64, "duration": 899, "velocity": 87}, {"time": 125278, "pitch": 68, "duration": 838, "velocity": 81}, {"time": 126133, "pitch": 45, "duration": 298, "velocity": 56}, {"time": 126484, "pitch": 57, "duration": 231, "velocity": 94}, {"time": 126484, "pitch": 61, "duration": 257, "velocity": 96}, {"time": 126484, "pitch": 64, "duration": 286, "velocity": 96}, {"time": 126484, "pitch": 68, "duration": 217, "velocity": 88}, {"time": 126723, "pitch": 45, "duration": 143, "velocity": 77}, {"time": 126853, "pitch": 57, "duration": 125, "velocity": 85}, {"time": 126853, "pitch": 61, "duration": 103, "velocity": 92}, {"time": 126853, "pitch": 64, "duration": 81, "velocity": 98}, {"time": 126853, "pitch": 68, "duration": 103, "velocity": 80}, {"time": 127202, "pitch": 38, "duration": 688, "velocity": 92}, {"time": 127202, "pitch": 50, "duration": 673, "velocity": 86}, {"time": 127202, "pitch": 54, "duration": 927, "velocity": 89}, {"time": 127202, "pitch": 57, "duration": 941, "velocity": 81}, {"time": 127202, "pitch": 60, "duration": 888, "velocity": 84}, {"time": 127202, "pitch": 64, "duration": 928, "velocity": 92}, {"time": 128159, "pitch": 38, "duration": 354, "velocity": 56}, {"time": 128159, "pitch": 50, "duration": 266, "velocity": 45}, {"time": 128398, "pitch": 54, "duration": 188, "velocity": 103}, {"time": 128398, "pitch": 57, "duration": 261, "velocity": 89}, {"time": 128398, "pitch": 60, "duration": 246, "velocity": 89}, {"time": 128398, "pitch": 64, "duration": 156, "velocity": 96}, {"time": 128770, "pitch": 38, "duration": 148, "velocity": 54}, {"time": 128770, "pitch": 50, "duration": 93, "velocity": 58}, {"time": 128770, "pitch": 54, "duration": 103, "velocity": 84}, {"time": 128770, "pitch": 57, "duration": 121, "velocity": 80}, {"time": 128770, "pitch": 60, "duration": 113, "velocity": 84}, {"time": 128770, "pitch": 64, "duration": 31, "velocity": 87}, {"time": 129126, "pitch": 37, "duration": 218, "velocity": 79}, {"time": 129126, "pitch": 49, "duration": 253, "velocity": 94}, {"time": 129126, "pitch": 53, "duration": 200, "velocity": 94}, {"time": 129126, "pitch": 56, "duration": 686, "velocity": 98}, {"time": 129126, "pitch": 59, "duration": 261, "velocity": 89}, {"time": 129126, "pitch": 61, "duration": 235, "velocity": 100}, {"time": 129438, "pitch": 37, "duration": 79, "velocity": 80}, {"time": 129472, "pitch": 61, "duration": 30, "velocity": 88}, {"time": 129493, "pitch": 59, "duration": 27, "velocity": 71}, {"time": 129534, "pitch": 49, "duration": 46, "velocity": 59}, {"time": 129559, "pitch": 53, "duration": 35, "velocity": 70}, {"time": 129598, "pitch": 59, "duration": 28, "velocity": 76}, {"time": 129603, "pitch": 61, "duration": 35, "velocity": 87}, {"time": 129614, "pitch": 37, "duration": 78, "velocity": 87}, {"time": 129675, "pitch": 53, "duration": 55, "velocity": 66}, {"time": 129687, "pitch": 49, "duration": 63, "velocity": 83}, {"time": 129712, "pitch": 59, "duration": 24, "velocity": 89}, {"time": 129716, "pitch": 61, "duration": 79, "velocity": 103}, {"time": 129756, "pitch": 37, "duration": 86, "velocity": 92}, {"time": 129766, "pitch": 53, "duration": 98, "velocity": 83}, {"time": 129875, "pitch": 61, "duration": 44, "velocity": 57}, {"time": 130083, "pitch": 37, "duration": 98, "velocity": 100}, {"time": 130083, "pitch": 49, "duration": 107, "velocity": 100}, {"time": 130083, "pitch": 65, "duration": 30, "velocity": 68}, {"time": 130083, "pitch": 68, "duration": 75, "velocity": 103}, {"time": 130083, "pitch": 73, "duration": 77, "velocity": 107}, {"time": 130212, "pitch": 64, "duration": 33, "velocity": 52}, {"time": 130322, "pitch": 37, "duration": 95, "velocity": 100}, {"time": 130322, "pitch": 49, "duration": 82, "velocity": 100}, {"time": 130322, "pitch": 65, "duration": 112, "velocity": 114}, {"time": 130322, "pitch": 68, "duration": 111, "velocity": 105}, {"time": 130322, "pitch": 73, "duration": 111, "velocity": 107}, {"time": 130561, "pitch": 37, "duration": 71, "velocity": 100}, {"time": 130561, "pitch": 49, "duration": 54, "velocity": 107}, {"time": 130561, "pitch": 65, "duration": 59, "velocity": 107}, {"time": 130561, "pitch": 68, "duration": 76, "velocity": 91}, {"time": 130561, "pitch": 73, "duration": 77, "velocity": 89}, {"time": 130691, "pitch": 37, "duration": 101, "velocity": 105}, {"time": 130691, "pitch": 49, "duration": 118, "velocity": 107}, {"time": 130691, "pitch": 65, "duration": 106, "velocity": 102}, {"time": 130691, "pitch": 68, "duration": 98, "velocity": 79}, {"time": 130691, "pitch": 73, "duration": 131, "velocity": 64}, {"time": 131279, "pitch": 57, "duration": 64, "velocity": 100}, {"time": 131279, "pitch": 61, "duration": 24, "velocity": 105}, {"time": 131279, "pitch": 66, "duration": 59, "velocity": 102}, {"time": 131648, "pitch": 57, "duration": 74, "velocity": 88}, {"time": 131648, "pitch": 61, "duration": 24, "velocity": 103}, {"time": 131648, "pitch": 66, "duration": 26, "velocity": 96}, {"time": 131997, "pitch": 57, "duration": 82, "velocity": 96}, {"time": 131997, "pitch": 61, "duration": 28, "velocity": 96}, {"time": 131997, "pitch": 66, "duration": 29, "velocity": 96}, {"time": 132373, "pitch": 57, "duration": 95, "velocity": 96}, {"time": 132373, "pitch": 61, "duration": 26, "velocity": 103}, {"time": 132373, "pitch": 66, "duration": 31, "velocity": 91}, {"time": 132724, "pitch": 57, "duration": 298, "velocity": 102}, {"time": 132724, "pitch": 61, "duration": 304, "velocity": 112}, {"time": 132724, "pitch": 66, "duration": 307, "velocity": 103}, {"time": 133203, "pitch": 60, "duration": 62, "velocity": 103}, {"time": 133203, "pitch": 63, "duration": 29, "velocity": 89}, {"time": 133203, "pitch": 66, "duration": 25, "velocity": 92}, {"time": 133572, "pitch": 60, "duration": 74, "velocity": 94}, {"time": 133572, "pitch": 63, "duration": 82, "velocity": 103}, {"time": 133572, "pitch": 66, "duration": 33, "velocity": 100}, {"time": 133921, "pitch": 60, "duration": 83, "velocity": 102}, {"time": 133921, "pitch": 63, "duration": 30, "velocity": 96}, {"time": 133921, "pitch": 66, "duration": 28, "velocity": 102}, {"time": 134290, "pitch": 60, "duration": 78, "velocity": 96}, {"time": 134290, "pitch": 63, "duration": 85, "velocity": 102}, {"time": 134290, "pitch": 66, "duration": 26, "velocity": 89}, {"time": 134639, "pitch": 60, "duration": 302, "velocity": 110}, {"time": 134639, "pitch": 63, "duration": 285, "velocity": 107}, {"time": 134639, "pitch": 66, "duration": 309, "velocity": 112}, {"time": 135117, "pitch": 59, "duration": 22, "velocity": 107}, {"time": 135117, "pitch": 62, "duration": 79, "velocity": 100}, {"time": 135117, "pitch": 66, "duration": 24, "velocity": 103}, {"time": 135489, "pitch": 59, "duration": 74, "velocity": 100}, {"time": 135489, "pitch": 62, "duration": 77, "velocity": 96}, {"time": 135489, "pitch": 66, "duration": 24, "velocity": 102}, {"time": 135844, "pitch": 59, "duration": 74, "velocity": 100}, {"time": 135844, "pitch": 62, "duration": 73, "velocity": 100}, {"time": 135844, "pitch": 66, "duration": 22, "velocity": 105}, {"time": 136213, "pitch": 59, "duration": 76, "velocity": 102}, {"time": 136213, "pitch": 62, "duration": 92, "velocity": 96}, {"time": 136213, "pitch": 66, "duration": 26, "velocity": 100}, {"time": 136562, "pitch": 59, "duration": 293, "velocity": 110}, {"time": 136562, "pitch": 62, "duration": 303, "velocity": 102}, {"time": 136562, "pitch": 66, "duration": 267, "velocity": 107}, {"time": 137042, "pitch": 57, "duration": 73, "velocity": 96}, {"time": 137042, "pitch": 61, "duration": 81, "velocity": 107}, {"time": 137042, "pitch": 66, "duration": 61, "velocity": 96}, {"time": 137410, "pitch": 57, "duration": 67, "velocity": 86}, {"time": 137410, "pitch": 61, "duration": 80, "velocity": 103}, {"time": 137410, "pitch": 66, "duration": 71, "velocity": 94}, {"time": 137759, "pitch": 57, "duration": 80, "velocity": 100}, {"time": 137759, "pitch": 61, "duration": 20, "velocity": 107}, {"time": 137759, "pitch": 66, "duration": 28, "velocity": 103}, {"time": 138127, "pitch": 57, "duration": 80, "velocity": 96}, {"time": 138127, "pitch": 61, "duration": 24, "velocity": 103}, {"time": 138127, "pitch": 66, "duration": 76, "velocity": 103}, {"time": 138481, "pitch": 57, "duration": 285, "velocity": 110}, {"time": 138481, "pitch": 61, "duration": 309, "velocity": 112}, {"time": 138481, "pitch": 66, "duration": 273, "velocity": 107}, {"time": 138964, "pitch": 57, "duration": 98, "velocity": 92}, {"time": 138964, "pitch": 61, "duration": 29, "velocity": 102}, {"time": 138964, "pitch": 66, "duration": 27, "velocity": 102}, {"time": 139333, "pitch": 57, "duration": 96, "velocity": 94}, {"time": 139333, "pitch": 61, "duration": 27, "velocity": 96}, {"time": 139333, "pitch": 66, "duration": 26, "velocity": 94}, {"time": 139682, "pitch": 57, "duration": 107, "velocity": 92}, {"time": 139682, "pitch": 61, "duration": 30, "velocity": 92}, {"time": 139682, "pitch": 66, "duration": 57, "velocity": 89}, {"time": 140051, "pitch": 57, "duration": 128, "velocity": 94}, {"time": 140051, "pitch": 61, "duration": 105, "velocity": 105}, {"time": 140051, "pitch": 66, "duration": 100, "velocity": 92}, {"time": 140400, "pitch": 57, "duration": 310, "velocity": 103}, {"time": 140400, "pitch": 61, "duration": 329, "velocity": 110}, {"time": 140400, "pitch": 66, "duration": 349, "velocity": 107}, {"time": 140879, "pitch": 60, "duration": 85, "velocity": 107}, {"time": 140879, "pitch": 63, "duration": 79, "velocity": 102}, {"time": 140879, "pitch": 66, "duration": 32, "velocity": 91}, {"time": 141248, "pitch": 60, "duration": 122, "velocity": 96}, {"time": 141248, "pitch": 63, "duration": 118, "velocity": 105}, {"time": 141248, "pitch": 66, "duration": 87, "velocity": 107}, {"time": 141597, "pitch": 60, "duration": 97, "velocity": 98}, {"time": 141597, "pitch": 63, "duration": 91, "velocity": 98}, {"time": 141597, "pitch": 66, "duration": 86, "velocity": 96}, {"time": 141973, "pitch": 60, "duration": 110, "velocity": 103}, {"time": 141973, "pitch": 63, "duration": 85, "velocity": 103}, {"time": 141973, "pitch": 66, "duration": 31, "velocity": 92}, {"time": 142324, "pitch": 60, "duration": 270, "velocity": 110}, {"time": 142324, "pitch": 63, "duration": 254, "velocity": 105}, {"time": 142324, "pitch": 66, "duration": 248, "velocity": 110}, {"time": 142802, "pitch": 55, "duration": 116, "velocity": 98}, {"time": 142802, "pitch": 59, "duration": 25, "velocity": 98}, {"time": 142802, "pitch": 62, "duration": 130, "velocity": 96}, {"time": 142932, "pitch": 59, "duration": 33, "velocity": 37}, {"time": 143171, "pitch": 55, "duration": 103, "velocity": 100}, {"time": 143171, "pitch": 59, "duration": 24, "velocity": 100}, {"time": 143171, "pitch": 62, "duration": 104, "velocity": 94}, {"time": 143520, "pitch": 55, "duration": 99, "velocity": 100}, {"time": 143520, "pitch": 59, "duration": 27, "velocity": 88}, {"time": 143520, "pitch": 62, "duration": 99, "velocity": 91}, {"time": 143889, "pitch": 55, "duration": 79, "velocity": 82}, {"time": 143889, "pitch": 59, "duration": 31, "velocity": 84}, {"time": 143889, "pitch": 62, "duration": 80, "velocity": 81}, {"time": 144238, "pitch": 55, "duration": 260, "velocity": 100}, {"time": 144238, "pitch": 59, "duration": 260, "velocity": 102}, {"time": 144238, "pitch": 62, "duration": 310, "velocity": 102}, {"time": 144721, "pitch": 57, "duration": 100, "velocity": 92}, {"time": 144721, "pitch": 61, "duration": 30, "velocity": 102}, {"time": 144721, "pitch": 66, "duration": 28, "velocity": 102}, {"time": 145095, "pitch": 57, "duration": 96, "velocity": 94}, {"time": 145095, "pitch": 61, "duration": 27, "velocity": 96}, {"time": 145095, "pitch": 66, "duration": 26, "velocity": 94}, {"time": 145444, "pitch": 57, "duration": 107, "velocity": 92}, {"time": 145444, "pitch": 61, "duration": 30, "velocity": 92}, {"time": 145444, "pitch": 66, "duration": 57, "velocity": 89}, {"time": 145813, "pitch": 57, "duration": 127, "velocity": 94}, {"time": 145813, "pitch": 61, "duration": 104, "velocity": 105}, {"time": 145813, "pitch": 66, "duration": 99, "velocity": 92}, {"time": 146162, "pitch": 57, "duration": 237, "velocity": 103}, {"time": 146162, "pitch": 61, "duration": 237, "velocity": 110}, {"time": 146162, "pitch": 66, "duration": 235, "velocity": 107}, {"time": 146640, "pitch": 57, "duration": 64, "velocity": 100}, {"time": 146640, "pitch": 61, "duration": 24, "velocity": 105}, {"time": 146640, "pitch": 66, "duration": 59, "velocity": 102}, {"time": 147009, "pitch": 57, "duration": 74, "velocity": 88}, {"time": 147009, "pitch": 61, "duration": 24, "velocity": 103}, {"time": 147009, "pitch": 66, "duration": 26, "velocity": 96}, {"time": 147358, "pitch": 57, "duration": 81, "velocity": 96}, {"time": 147358, "pitch": 61, "duration": 28, "velocity": 96}, {"time": 147358, "pitch": 66, "duration": 29, "velocity": 96}, {"time": 147727, "pitch": 57, "duration": 93, "velocity": 96}, {"time": 147727, "pitch": 61, "duration": 25, "velocity": 103}, {"time": 147727, "pitch": 66, "duration": 30, "velocity": 91}, {"time": 148081, "pitch": 57, "duration": 302, "velocity": 102}, {"time": 148081, "pitch": 61, "duration": 308, "velocity": 112}, {"time": 148081, "pitch": 66, "duration": 311, "velocity": 103}, {"time": 148564, "pitch": 60, "duration": 62, "velocity": 103}, {"time": 148564, "pitch": 63, "duration": 29, "velocity": 89}, {"time": 148564, "pitch": 66, "duration": 25, "velocity": 92}, {"time": 148933, "pitch": 60, "duration": 74, "velocity": 94}, {"time": 148933, "pitch": 63, "duration": 83, "velocity": 103}, {"time": 148933, "pitch": 66, "duration": 33, "velocity": 100}, {"time": 149282, "pitch": 60, "duration": 84, "velocity": 102}, {"time": 149282, "pitch": 63, "duration": 30, "velocity": 96}, {"time": 149282, "pitch": 66, "duration": 28, "velocity": 102}, {"time": 149651, "pitch": 60, "duration": 78, "velocity": 96}, {"time": 149651, "pitch": 63, "duration": 85, "velocity": 102}, {"time": 149651, "pitch": 66, "duration": 27, "velocity": 89}, {"time": 150000, "pitch": 60, "duration": 302, "velocity": 110}, {"time": 150000, "pitch": 63, "duration": 285, "velocity": 107}, {"time": 150000, "pitch": 66, "duration": 309, "velocity": 112}, {"time": 150478, "pitch": 59, "duration": 22, "velocity": 107}, {"time": 150478, "pitch": 62, "duration": 79, "velocity": 100}, {"time": 150478, "pitch": 66, "duration": 24, "velocity": 103}, {"time": 150850, "pitch": 59, "duration": 74, "velocity": 100}, {"time": 150850, "pitch": 62, "duration": 77, "velocity": 96}, {"time": 150850, "pitch": 66, "duration": 24, "velocity": 102}, {"time": 151205, "pitch": 59, "duration": 74, "velocity": 100}, {"time": 151205, "pitch": 62, "duration": 73, "velocity": 100}, {"time": 151205, "pitch": 66, "duration": 22, "velocity": 105}, {"time": 151574, "pitch": 59, "duration": 76, "velocity": 102}, {"time": 151574, "pitch": 62, "duration": 92, "velocity": 96}, {"time": 151574, "pitch": 66, "duration": 26, "velocity": 100}, {"time": 151923, "pitch": 59, "duration": 293, "velocity": 110}, {"time": 151923, "pitch": 62, "duration": 303, "velocity": 102}, {"time": 151923, "pitch": 66, "duration": 267, "velocity": 107}, {"time": 152403, "pitch": 57, "duration": 73, "velocity": 96}, {"time": 152403, "pitch": 61, "duration": 81, "velocity": 107}, {"time": 152403, "pitch": 66, "duration": 61, "velocity": 96}, {"time": 152771, "pitch": 57, "duration": 68, "velocity": 86}, {"time": 152771, "pitch": 61, "duration": 81, "velocity": 103}, {"time": 152771, "pitch": 66, "duration": 72, "velocity": 94}, {"time": 153120, "pitch": 57, "duration": 80, "velocity": 100}, {"time": 153120, "pitch": 61, "duration": 20, "velocity": 107}, {"time": 153120, "pitch": 66, "duration": 28, "velocity": 103}, {"time": 153489, "pitch": 57, "duration": 79, "velocity": 96}, {"time": 153489, "pitch": 61, "duration": 24, "velocity": 103}, {"time": 153489, "pitch": 66, "duration": 75, "velocity": 103}, {"time": 153838, "pitch": 57, "duration": 280, "velocity": 110}, {"time": 153838, "pitch": 61, "duration": 305, "velocity": 112}, {"time": 153838, "pitch": 66, "duration": 268, "velocity": 107}, {"time": 154321, "pitch": 57, "duration": 99, "velocity": 92}, {"time": 154321, "pitch": 61, "duration": 29, "velocity": 102}, {"time": 154321, "pitch": 66, "duration": 27, "velocity": 102}, {"time": 154694, "pitch": 57, "duration": 96, "velocity": 94}, {"time": 154694, "pitch": 61, "duration": 27, "velocity": 96}, {"time": 154694, "pitch": 66, "duration": 26, "velocity": 94}, {"time": 155043, "pitch": 57, "duration": 107, "velocity": 92}, {"time": 155043, "pitch": 61, "duration": 30, "velocity": 92}, {"time": 155043, "pitch": 66, "duration": 57, "velocity": 89}, {"time": 155412, "pitch": 57, "duration": 128, "velocity": 94}, {"time": 155412, "pitch": 61, "duration": 105, "velocity": 105}, {"time": 155412, "pitch": 66, "duration": 100, "velocity": 92}, {"time": 155761, "pitch": 57, "duration": 310, "velocity": 103}, {"time": 155761, "pitch": 61, "duration": 329, "velocity": 110}, {"time": 155761, "pitch": 66, "duration": 349, "velocity": 107}, {"time": 156240, "pitch": 60, "duration": 86, "velocity": 107}, {"time": 156240, "pitch": 63, "duration": 80, "velocity": 102}, {"time": 156240, "pitch": 66, "duration": 32, "velocity": 91}, {"time": 156609, "pitch": 60, "duration": 122, "velocity": 96}, {"time": 156609, "pitch": 63, "duration": 118, "velocity": 105}, {"time": 156609, "pitch": 66, "duration": 87, "velocity": 107}, {"time": 156958, "pitch": 60, "duration": 97, "velocity": 98}, {"time": 156958, "pitch": 63, "duration": 91, "velocity": 98}, {"time": 156958, "pitch": 66, "duration": 86, "velocity": 96}, {"time": 157334, "pitch": 60, "duration": 110, "velocity": 103}, {"time": 157334, "pitch": 63, "duration": 85, "velocity": 103}, {"time": 157334, "pitch": 66, "duration": 31, "velocity": 92}, {"time": 157685, "pitch": 60, "duration": 270, "velocity": 110}, {"time": 157685, "pitch": 63, "duration": 254, "velocity": 105}, {"time": 157685, "pitch": 66, "duration": 248, "velocity": 110}, {"time": 158163, "pitch": 55, "duration": 116, "velocity": 98}, {"time": 158163, "pitch": 59, "duration": 25, "velocity": 98}, {"time": 158163, "pitch": 62, "duration": 130, "velocity": 96}, {"time": 158293, "pitch": 59, "duration": 33, "velocity": 37}, {"time": 158532, "pitch": 55, "duration": 103, "velocity": 100}, {"time": 158532, "pitch": 59, "duration": 24, "velocity": 100}, {"time": 158532, "pitch": 62, "duration": 104, "velocity": 94}, {"time": 158881, "pitch": 55, "duration": 99, "velocity": 100}, {"time": 158881, "pitch": 59, "duration": 27, "velocity": 88}, {"time": 158881, "pitch": 62, "duration": 99, "velocity": 91}, {"time": 159250, "pitch": 55, "duration": 79, "velocity": 82}, {"time": 159250, "pitch": 59, "duration": 31, "velocity": 84}, {"time": 159250, "pitch": 62, "duration": 80, "velocity": 81}, {"time": 159599, "pitch": 55, "duration": 259, "velocity": 100}, {"time": 159599, "pitch": 59, "duration": 259, "velocity": 102}, {"time": 159599, "pitch": 62, "duration": 309, "velocity": 102}, {"time": 160078, "pitch": 57, "duration": 97, "velocity": 92}, {"time": 160078, "pitch": 61, "duration": 29, "velocity": 102}, {"time": 160078, "pitch": 66, "duration": 27, "velocity": 102}, {"time": 160449, "pitch": 57, "duration": 98, "velocity": 94}, {"time": 160449, "pitch": 61, "duration": 28, "velocity": 96}, {"time": 160449, "pitch": 66, "duration": 27, "velocity": 94}, {"time": 160805, "pitch": 57, "duration": 107, "velocity": 92}, {"time": 160805, "pitch": 61, "duration": 30, "velocity": 92}, {"time": 160805, "pitch": 66, "duration": 57, "velocity": 89}, {"time": 161174, "pitch": 57, "duration": 127, "velocity": 94}, {"time": 161174, "pitch": 61, "duration": 105, "velocity": 105}, {"time": 161174, "pitch": 66, "duration": 100, "velocity": 92}, {"time": 161523, "pitch": 57, "duration": 237, "velocity": 103}, {"time": 161523, "pitch": 61, "duration": 237, "velocity": 110}, {"time": 161523, "pitch": 66, "duration": 235, "velocity": 107}, {"time": 177362, "pitch": 57, "duration": 64, "velocity": 100}, {"time": 177362, "pitch": 61, "duration": 24, "velocity": 105}, {"time": 177362, "pitch": 66, "duration": 59, "velocity": 102}, {"time": 177731, "pitch": 57, "duration": 74, "velocity": 88}, {"time": 177731, "pitch": 61, "duration": 24, "velocity": 103}, {"time": 177731, "pitch": 66, "duration": 26, "velocity": 96}, {"time": 178080, "pitch": 57, "duration": 81, "velocity": 96}, {"time": 178080, "pitch": 61, "duration": 28, "velocity": 96}, {"time": 178080, "pitch": 66, "duration": 29, "velocity": 96}, {"time": 178449, "pitch": 57, "duration": 93, "velocity": 96}, {"time": 178449, "pitch": 61, "duration": 25, "velocity": 103}, {"time": 178449, "pitch": 66, "duration": 30, "velocity": 91}, {"time": 178798, "pitch": 57, "duration": 299, "velocity": 102}, {"time": 178798, "pitch": 61, "duration": 305, "velocity": 112}, {"time": 178798, "pitch": 66, "duration": 309, "velocity": 103}, {"time": 179281, "pitch": 60, "duration": 64, "velocity": 103}, {"time": 179281, "pitch": 63, "duration": 30, "velocity": 89}, {"time": 179281, "pitch": 66, "duration": 26, "velocity": 92}, {"time": 179655, "pitch": 60, "duration": 74, "velocity": 94}, {"time": 179655, "pitch": 63, "duration": 83, "velocity": 103}, {"time": 179655, "pitch": 66, "duration": 33, "velocity": 100}, {"time": 180004, "pitch": 60, "duration": 84, "velocity": 102}, {"time": 180004, "pitch": 63, "duration": 30, "velocity": 96}, {"time": 180004, "pitch": 66, "duration": 28, "velocity": 102}, {"time": 180373, "pitch": 60, "duration": 79, "velocity": 96}, {"time": 180373, "pitch": 63, "duration": 86, "velocity": 102}, {"time": 180373, "pitch": 66, "duration": 27, "velocity": 89}, {"time": 180722, "pitch": 60, "duration": 302, "velocity": 110}, {"time": 180722, "pitch": 63, "duration": 285, "velocity": 107}, {"time": 180722, "pitch": 66, "duration": 309, "velocity": 112}, {"time": 181200, "pitch": 59, "duration": 22, "velocity": 107}, {"time": 181200, "pitch": 62, "duration": 79, "velocity": 100}, {"time": 181200, "pitch": 66, "duration": 24, "velocity": 103}, {"time": 181569, "pitch": 59, "duration": 73, "velocity": 100}, {"time": 181569, "pitch": 62, "duration": 76, "velocity": 96}, {"time": 181569, "pitch": 66, "duration": 24, "velocity": 102}, {"time": 181918, "pitch": 59, "duration": 74, "velocity": 100}, {"time": 181918, "pitch": 62, "duration": 73, "velocity": 100}, {"time": 181918, "pitch": 66, "duration": 22, "velocity": 105}, {"time": 182287, "pitch": 59, "duration": 76, "velocity": 102}, {"time": 182287, "pitch": 62, "duration": 92, "velocity": 96}, {"time": 182287, "pitch": 66, "duration": 26, "velocity": 100}, {"time": 182641, "pitch": 59, "duration": 298, "velocity": 110}, {"time": 182641, "pitch": 62, "duration": 308, "velocity": 102}, {"time": 182641, "pitch": 66, "duration": 272, "velocity": 107}, {"time": 183125, "pitch": 57, "duration": 73, "velocity": 96}, {"time": 183125, "pitch": 61, "duration": 81, "velocity": 107}, {"time": 183125, "pitch": 66, "duration": 61, "velocity": 96}, {"time": 183493, "pitch": 57, "duration": 68, "velocity": 86}, {"time": 183493, "pitch": 61, "duration": 81, "velocity": 103}, {"time": 183493, "pitch": 66, "duration": 72, "velocity": 94}, {"time": 183842, "pitch": 57, "duration": 81, "velocity": 100}, {"time": 183842, "pitch": 61, "duration": 20, "velocity": 107}, {"time": 183842, "pitch": 66, "duration": 28, "velocity": 103}, {"time": 184211, "pitch": 57, "duration": 80, "velocity": 96}, {"time": 184211, "pitch": 61, "duration": 24, "velocity": 103}, {"time": 184211, "pitch": 66, "duration": 76, "velocity": 103}, {"time": 184560, "pitch": 57, "duration": 280, "velocity": 110}, {"time": 184560, "pitch": 61, "duration": 304, "velocity": 112}, {"time": 184560, "pitch": 66, "duration": 268, "velocity": 107}, {"time": 185038, "pitch": 57, "duration": 98, "velocity": 92}, {"time": 185038, "pitch": 61, "duration": 29, "velocity": 102}, {"time": 185038, "pitch": 66, "duration": 27, "velocity": 102}, {"time": 185410, "pitch": 57, "duration": 97, "velocity": 94}, {"time": 185410, "pitch": 61, "duration": 27, "velocity": 96}, {"time": 185410, "pitch": 66, "duration": 26, "velocity": 94}, {"time": 185766, "pitch": 57, "duration": 106, "velocity": 92}, {"time": 185766, "pitch": 61, "duration": 29, "velocity": 92}, {"time": 185766, "pitch": 66, "duration": 56, "velocity": 89}, {"time": 186134, "pitch": 57, "duration": 128, "velocity": 94}, {"time": 186134, "pitch": 61, "duration": 105, "velocity": 105}, {"time": 186134, "pitch": 66, "duration": 100, "velocity": 92}, {"time": 186483, "pitch": 57, "duration": 310, "velocity": 103}, {"time": 186483, "pitch": 61, "duration": 329, "velocity": 110}, {"time": 186483, "pitch": 66, "duration": 349, "velocity": 107}, {"time": 186962, "pitch": 60, "duration": 86, "velocity": 107}, {"time": 186962, "pitch": 63, "duration": 80, "velocity": 102}, {"time": 186962, "pitch": 66, "duration": 32, "velocity": 91}, {"time": 187331, "pitch": 60, "duration": 123, "velocity": 96}, {"time": 187331, "pitch": 63, "duration": 119, "velocity": 105}, {"time": 187331, "pitch": 66, "duration": 88, "velocity": 107}, {"time": 187680, "pitch": 60, "duration": 96, "velocity": 98}, {"time": 187680, "pitch": 63, "duration": 90, "velocity": 98}, {"time": 187680, "pitch": 66, "duration": 85, "velocity": 96}, {"time": 188049, "pitch": 60, "duration": 107, "velocity": 103}, {"time": 188049, "pitch": 63, "duration": 83, "velocity": 103}, {"time": 188049, "pitch": 66, "duration": 31, "velocity": 92}, {"time": 188398, "pitch": 60, "duration": 270, "velocity": 110}, {"time": 188398, "pitch": 63, "duration": 254, "velocity": 105}, {"time": 188398, "pitch": 66, "duration": 248, "velocity": 110}, {"time": 188881, "pitch": 55, "duration": 118, "velocity": 98}, {"time": 188881, "pitch": 59, "duration": 25, "velocity": 98}, {"time": 188881, "pitch": 62, "duration": 132, "velocity": 96}, {"time": 189013, "pitch": 59, "duration": 34, "velocity": 37}, {"time": 189255, "pitch": 55, "duration": 102, "velocity": 100}, {"time": 189255, "pitch": 59, "duration": 23, "velocity": 100}, {"time": 189255, "pitch": 62, "duration": 103, "velocity": 94}, {"time": 189603, "pitch": 55, "duration": 99, "velocity": 100}, {"time": 189603, "pitch": 59, "duration": 27, "velocity": 88}, {"time": 189603, "pitch": 62, "duration": 99, "velocity": 91}, {"time": 189972, "pitch": 55, "duration": 79, "velocity": 82}, {"time": 189972, "pitch": 59, "duration": 31, "velocity": 84}, {"time": 189972, "pitch": 62, "duration": 80, "velocity": 81}, {"time": 190321, "pitch": 55, "duration": 260, "velocity": 100}, {"time": 190321, "pitch": 59, "duration": 260, "velocity": 102}, {"time": 190321, "pitch": 62, "duration": 309, "velocity": 102}, {"time": 190561, "pitch": 47, "duration": 718, "velocity": 110}, {"time": 190561, "pitch": 62, "duration": 69, "velocity": 107}, {"time": 190561, "pitch": 66, "duration": 715, "velocity": 98}, {"time": 190561, "pitch": 69, "duration": 739, "velocity": 94}, {"time": 190561, "pitch": 73, "duration": 738, "velocity": 102}, {"time": 191757, "pitch": 47, "duration": 210, "velocity": 107}, {"time": 191757, "pitch": 62, "duration": 238, "velocity": 100}, {"time": 191757, "pitch": 66, "duration": 239, "velocity": 96}, {"time": 191757, "pitch": 69, "duration": 274, "velocity": 88}, {"time": 191757, "pitch": 73, "duration": 226, "velocity": 98}, {"time": 192128, "pitch": 47, "duration": 171, "velocity": 102}, {"time": 192128, "pitch": 62, "duration": 143, "velocity": 96}, {"time": 192128, "pitch": 66, "duration": 125, "velocity": 94}, {"time": 192128, "pitch": 69, "duration": 151, "velocity": 89}, {"time": 192128, "pitch": 73, "duration": 137, "velocity": 92}, {"time": 192485, "pitch": 49, "duration": 987, "velocity": 100}, {"time": 192485, "pitch": 61, "duration": 1020, "velocity": 112}, {"time": 192485, "pitch": 64, "duration": 956, "velocity": 114}, {"time": 192485, "pitch": 68, "duration": 966, "velocity": 100}, {"time": 192485, "pitch": 71, "duration": 990, "velocity": 102}, {"time": 193682, "pitch": 49, "duration": 225, "velocity": 85}, {"time": 193682, "pitch": 61, "duration": 257, "velocity": 105}, {"time": 193682, "pitch": 64, "duration": 271, "velocity": 103}, {"time": 193682, "pitch": 68, "duration": 276, "velocity": 92}, {"time": 193682, "pitch": 71, "duration": 235, "velocity": 98}, {"time": 194159, "pitch": 49, "duration": 181, "velocity": 92}, {"time": 194159, "pitch": 61, "duration": 67, "velocity": 98}, {"time": 194159, "pitch": 64, "duration": 103, "velocity": 100}, {"time": 194159, "pitch": 68, "duration": 108, "velocity": 89}, {"time": 194159, "pitch": 71, "duration": 116, "velocity": 86}, {"time": 194399, "pitch": 50, "duration": 927, "velocity": 92}, {"time": 194399, "pitch": 62, "duration": 921, "velocity": 100}, {"time": 194399, "pitch": 66, "duration": 923, "velocity": 103}, {"time": 194399, "pitch": 69, "duration": 922, "velocity": 91}, {"time": 194399, "pitch": 73, "duration": 890, "velocity": 98}, {"time": 195604, "pitch": 50, "duration": 176, "velocity": 92}, {"time": 195604, "pitch": 62, "duration": 191, "velocity": 98}, {"time": 195604, "pitch": 66, "duration": 197, "velocity": 94}, {"time": 195604, "pitch": 69, "duration": 213, "velocity": 86}, {"time": 195604, "pitch": 73, "duration": 155, "velocity": 96}, {"time": 195973, "pitch": 50, "duration": 138, "velocity": 92}, {"time": 195973, "pitch": 62, "duration": 110, "velocity": 87}, {"time": 195973, "pitch": 66, "duration": 109, "velocity": 92}, {"time": 195973, "pitch": 69, "duration": 131, "velocity": 83}, {"time": 195973, "pitch": 73, "duration": 135, "velocity": 85}, {"time": 196322, "pitch": 49, "duration": 885, "velocity": 87}, {"time": 196322, "pitch": 64, "duration": 991, "velocity": 98}, {"time": 196322, "pitch": 68, "duration": 979, "velocity": 98}, {"time": 196322, "pitch": 71, "duration": 933, "velocity": 85}, {"time": 196322, "pitch": 75, "duration": 935, "velocity": 96}, {"time": 197519, "pitch": 49, "duration": 169, "velocity": 85}, {"time": 197519, "pitch": 64, "duration": 215, "velocity": 94}, {"time": 197519, "pitch": 68, "duration": 255, "velocity": 92}, {"time": 197519, "pitch": 71, "duration": 237, "velocity": 94}, {"time": 197519, "pitch": 75, "duration": 185, "velocity": 91}, {"time": 197888, "pitch": 49, "duration": 124, "velocity": 77}, {"time": 197888, "pitch": 64, "duration": 92, "velocity": 92}, {"time": 197888, "pitch": 68, "duration": 81, "velocity": 91}, {"time": 197888, "pitch": 71, "duration": 81, "velocity": 87}, {"time": 197888, "pitch": 75, "duration": 94, "velocity": 85}, {"time": 198236, "pitch": 47, "duration": 938, "velocity": 98}, {"time": 198236, "pitch": 62, "duration": 879, "velocity": 94}, {"time": 198236, "pitch": 66, "duration": 870, "velocity": 96}, {"time": 198236, "pitch": 69, "duration": 869, "velocity": 36}, {"time": 198236, "pitch": 73, "duration": 817, "velocity": 94}, {"time": 199442, "pitch": 47, "duration": 233, "velocity": 103}, {"time": 199442, "pitch": 62, "duration": 279, "velocity": 100}, {"time": 199442, "pitch": 66, "duration": 280, "velocity": 94}, {"time": 199442, "pitch": 69, "duration": 302, "velocity": 87}, {"time": 199442, "pitch": 73, "duration": 253, "velocity": 94}, {"time": 199811, "pitch": 47, "duration": 133, "velocity": 100}, {"time": 199811, "pitch": 62, "duration": 133, "velocity": 92}, {"time": 199811, "pitch": 66, "duration": 109, "velocity": 96}, {"time": 199811, "pitch": 69, "duration": 113, "velocity": 77}, {"time": 199811, "pitch": 73, "duration": 119, "velocity": 89}, {"time": 200161, "pitch": 49, "duration": 970, "velocity": 92}, {"time": 200161, "pitch": 61, "duration": 1032, "velocity": 100}, {"time": 200161, "pitch": 64, "duration": 924, "velocity": 107}, {"time": 200161, "pitch": 68, "duration": 958, "velocity": 92}, {"time": 200161, "pitch": 71, "duration": 982, "velocity": 92}, {"time": 201362, "pitch": 49, "duration": 173, "velocity": 91}, {"time": 201362, "pitch": 61, "duration": 227, "velocity": 103}, {"time": 201362, "pitch": 64, "duration": 230, "velocity": 103}, {"time": 201362, "pitch": 68, "duration": 239, "velocity": 92}, {"time": 201362, "pitch": 71, "duration": 200, "velocity": 88}, {"time": 201735, "pitch": 49, "duration": 141, "velocity": 76}, {"time": 201735, "pitch": 61, "duration": 77, "velocity": 92}, {"time": 201735, "pitch": 64, "duration": 86, "velocity": 88}, {"time": 201735, "pitch": 68, "duration": 82, "velocity": 92}, {"time": 201735, "pitch": 71, "duration": 101, "velocity": 86}, {"time": 202084, "pitch": 50, "duration": 997, "velocity": 92}, {"time": 202084, "pitch": 62, "duration": 1022, "velocity": 98}, {"time": 202084, "pitch": 66, "duration": 1022, "velocity": 98}, {"time": 202084, "pitch": 69, "duration": 1009, "velocity": 85}, {"time": 202084, "pitch": 73, "duration": 998, "velocity": 92}, {"time": 203280, "pitch": 50, "duration": 173, "velocity": 94}, {"time": 203280, "pitch": 62, "duration": 233, "velocity": 96}, {"time": 203280, "pitch": 66, "duration": 225, "velocity": 100}, {"time": 203280, "pitch": 69, "duration": 238, "velocity": 88}, {"time": 203280, "pitch": 73, "duration": 182, "velocity": 100}, {"time": 203649, "pitch": 50, "duration": 139, "velocity": 91}, {"time": 203649, "pitch": 62, "duration": 188, "velocity": 85}, {"time": 203649, "pitch": 66, "duration": 186, "velocity": 91}, {"time": 203649, "pitch": 69, "duration": 200, "velocity": 74}, {"time": 203649, "pitch": 73, "duration": 120, "velocity": 86}, {"time": 203998, "pitch": 50, "duration": 146, "velocity": 94}, {"time": 203998, "pitch": 62, "duration": 196, "velocity": 92}, {"time": 203998, "pitch": 66, "duration": 194, "velocity": 98}, {"time": 203998, "pitch": 69, "duration": 225, "velocity": 84}, {"time": 203998, "pitch": 73, "duration": 167, "velocity": 94}, {"time": 204367, "pitch": 50, "duration": 94, "velocity": 85}, {"time": 204367, "pitch": 62, "duration": 118, "velocity": 85}, {"time": 204367, "pitch": 66, "duration": 123, "velocity": 94}, {"time": 204367, "pitch": 69, "duration": 107, "velocity": 81}, {"time": 204367, "pitch": 73, "duration": 130, "velocity": 85}, {"time": 204721, "pitch": 38, "duration": 1516, "velocity": 83}, {"time": 204721, "pitch": 50, "duration": 1477, "velocity": 96}, {"time": 204721, "pitch": 62, "duration": 1444, "velocity": 110}, {"time": 204721, "pitch": 66, "duration": 1430, "velocity": 105}, {"time": 204721, "pitch": 68, "duration": 1444, "velocity": 107}, {"time": 204721, "pitch": 73, "duration": 1460, "velocity": 100}], "annotations": [{"time": 219, "annotation": {"number": 0, "value": 0}, "group": "control_change"}, {"time": 241, "annotation": {"number": 32, "value": 0}, "group": "control_change"}, {"time": 285, "annotation": {"number": 7, "value": 98}, "group": "control_change"}, {"time": 307, "annotation": {"number": 11, "value": 127}, "group": "control_change"}, {"time": 329, "annotation": {"number": 10, "value": 61}, "group": "control_change"}, {"time": 350, "annotation": {"number": 91, "value": 40}, "group": "control_change"}, {"time": 372, "annotation": {"number": 93, "value": 0}, "group": "control_change"}, {"time": 394, "annotation": {"number": 101, "value": 0}, "group": "control_change"}, {"time": 416, "annotation": {"number": 100, "value": 0}, "group": "control_change"}, {"time": 438, "annotation": {"number": 6, "value": 12}, "group": "control_change"}, {"time": 460, "annotation": {"number": 101, "value": 127}, "group": "control_change"}, {"time": 484, "annotation": {"number": 100, "value": 127}, "group": "control_change"}, {"time": 54592, "annotation": {"number": 64, "value": 127}, "group": "control_change"}, {"time": 56274, "annotation": {"number": 64, "value": 0}, "group": "control_change"}, {"time": 56428, "annotation": {"number": 64, "value": 127}, "group": "control_change"}, {"time": 58180, "annotation": {"number": 64, "value": 0}, "group": "control_change"}, {"time": 58334, "annotation": {"number": 64, "value": 127}, "group": "control_change"}, {"time": 60058, "annotation": {"number": 64, "value": 0}, "group": "control_change"}, {"time": 60211, "annotation": {"number": 64, "value": 127}, "group": "control_change"}, {"time": 61007, "annotation": {"number": 64, "value": 0}, "group": "control_change"}, {"time": 123712, "annotation": {"number": 64, "value": 127}, "group": "control_change"}, {"time": 125394, "annotation": {"number": 64, "value": 0}, "group": "control_change"}, {"time": 125548, "annotation": {"number": 64, "value": 127}, "group": "control_change"}, {"time": 127301, "annotation": {"number": 64, "value": 0}, "group": "control_change"}, {"time": 127454, "annotation": {"number": 64, "value": 127}, "group": "control_change"}, {"time": 129178, "annotation": {"number": 64, "value": 0}, "group": "control_change"}, {"time": 129331, "annotation": {"number": 64, "value": 127}, "group": "control_change"}, {"time": 130128, "annotation": {"number": 64, "value": 0}, "group": "control_change"}, {"time": 190692, "annotation": {"number": 64, "value": 127}, "group": "control_change"}, {"time": 191763, "annotation": {"number": 64, "value": 0}, "group": "control_change"}, {"time": 191886, "annotation": {"number": 64, "value": 127}, "group": "control_change"}, {"time": 192481, "annotation": {"number": 64, "value": 0}, "group": "control_change"}, {"time": 192630, "annotation": {"number": 64, "value": 127}, "group": "control_change"}, {"time": 193734, "annotation": {"number": 64, "value": 0}, "group": "control_change"}, {"time": 193854, "annotation": {"number": 64, "value": 127}, "group": "control_change"}, {"time": 194498, "annotation": {"number": 64, "value": 0}, "group": "control_change"}, {"time": 194649, "annotation": {"number": 64, "value": 127}, "group": "control_change"}, {"time": 196372, "annotation": {"number": 64, "value": 0}, "group": "control_change"}, {"time": 196558, "annotation": {"number": 64, "value": 127}, "group": "control_change"}, {"time": 198239, "annotation": {"number": 64, "value": 0}, "group": "control_change"}, {"time": 198427, "annotation": {"number": 64, "value": 127}, "group": "control_change"}, {"time": 199410, "annotation": {"number": 64, "value": 0}, "group": "control_change"}, {"time": 199565, "annotation": {"number": 64, "value": 127}, "group": "control_change"}, {"time": 200176, "annotation": {"number": 64, "value": 0}, "group": "control_change"}, {"time": 200360, "annotation": {"number": 64, "value": 127}, "group": "control_change"}, {"time": 201343, "annotation": {"number": 64, "value": 0}, "group": "control_change"}, {"time": 201502, "annotation": {"number": 64, "value": 127}, "group": "control_change"}, {"time": 202083, "annotation": {"number": 64, "value": 0}, "group": "control_change"}, {"time": 202235, "annotation": {"number": 64, "value": 127}, "group": "control_change"}, {"time": 203951, "annotation": {"number": 64, "value": 0}, "group": "control_change"}, {"time": 204103, "annotation": {"number": 64, "value": 127}, "group": "control_change"}, {"time": 204785, "annotation": {"number": 64, "value": 0}, "group": "control_change"}, {"time": 205032, "annotation": {"number": 64, "value": 127}, "group": "control_change"}]}, {"program": 0, "is_drum": false, "name": "FLUTE", "annotations": [{"time": 219, "annotation": {"number": 0, "value": 0}, "group": "control_change"}, {"time": 241, "annotation": {"number": 32, "value": 0}, "group": "control_change"}]}, {"program": 73, "is_drum": false, "name": "FLUTE", "notes": [{"time": 3495, "pitch": 68, "duration": 130, "velocity": 109}, {"time": 3495, "pitch": 73, "duration": 100, "velocity": 109}, {"time": 3606, "pitch": 73, "duration": 77, "velocity": 114}, {"time": 3606, "pitch": 76, "duration": 77, "velocity": 114}, {"time": 3845, "pitch": 78, "duration": 120, "velocity": 114}, {"time": 3845, "pitch": 82, "duration": 120, "velocity": 114}, {"time": 3965, "pitch": 80, "duration": 53, "velocity": 111}, {"time": 3965, "pitch": 83, "duration": 53, "velocity": 111}, {"time": 4083, "pitch": 78, "duration": 114, "velocity": 85}, {"time": 4083, "pitch": 82, "duration": 114, "velocity": 85}, {"time": 4205, "pitch": 80, "duration": 71, "velocity": 100}, {"time": 4205, "pitch": 83, "duration": 71, "velocity": 100}, {"time": 11171, "pitch": 68, "duration": 130, "velocity": 109}, {"time": 11171, "pitch": 73, "duration": 100, "velocity": 109}, {"time": 11282, "pitch": 73, "duration": 76, "velocity": 114}, {"time": 11282, "pitch": 76, "duration": 76, "velocity": 114}, {"time": 11521, "pitch": 78, "duration": 120, "velocity": 114}, {"time": 11521, "pitch": 82, "duration": 120, "velocity": 114}, {"time": 11641, "pitch": 80, "duration": 53, "velocity": 111}, {"time": 11641, "pitch": 83, "duration": 53, "velocity": 111}, {"time": 11759, "pitch": 78, "duration": 114, "velocity": 85}, {"time": 11759, "pitch": 82, "duration": 114, "velocity": 85}, {"time": 11881, "pitch": 80, "duration": 71, "velocity": 100}, {"time": 11881, "pitch": 83, "duration": 71, "velocity": 100}, {"time": 11998, "pitch": 76, "duration": 347, "velocity": 119}, {"time": 11998, "pitch": 80, "duration": 305, "velocity": 127}, {"time": 12299, "pitch": 78, "duration": 41, "velocity": 51}, {"time": 12327, "pitch": 75, "duration": 68, "velocity": 103}, {"time": 12358, "pitch": 73, "duration": 95, "velocity": 95}, {"time": 12411, "pitch": 71, "duration": 76, "velocity": 61}, {"time": 12450, "pitch": 70, "duration": 82, "velocity": 84}, {"time": 12487, "pitch": 68, "duration": 78, "velocity": 77}, {"time": 12524, "pitch": 66, "duration": 95, "velocity": 83}, {"time": 12569, "pitch": 64, "duration": 88, "velocity": 70}, {"time": 12615, "pitch": 63, "duration": 96, "velocity": 79}, {"time": 12662, "pitch": 61, "duration": 90, "velocity": 75}, {"time": 12711, "pitch": 59, "duration": 29, "velocity": 61}, {"time": 12767, "pitch": 58, "duration": 29, "velocity": 50}, {"time": 38055, "pitch": 68, "duration": 130, "velocity": 109}, {"time": 38055, "pitch": 73, "duration": 100, "velocity": 109}, {"time": 38166, "pitch": 73, "duration": 77, "velocity": 114}, {"time": 38166, "pitch": 76, "duration": 77, "velocity": 114}, {"time": 38405, "pitch": 78, "duration": 120, "velocity": 114}, {"time": 38405, "pitch": 82, "duration": 120, "velocity": 114}, {"time": 38525, "pitch": 80, "duration": 54, "velocity": 111}, {"time": 38525, "pitch": 83, "duration": 54, "velocity": 111}, {"time": 38643, "pitch": 78, "duration": 114, "velocity": 85}, {"time": 38643, "pitch": 82, "duration": 114, "velocity": 85}, {"time": 38765, "pitch": 80, "duration": 71, "velocity": 100}, {"time": 38765, "pitch": 83, "duration": 71, "velocity": 100}, {"time": 38883, "pitch": 78, "duration": 299, "velocity": 119}, {"time": 38883, "pitch": 81, "duration": 304, "velocity": 127}, {"time": 39183, "pitch": 78, "duration": 42, "velocity": 51}, {"time": 39212, "pitch": 75, "duration": 68, "velocity": 103}, {"time": 39243, "pitch": 73, "duration": 94, "velocity": 95}, {"time": 39295, "pitch": 71, "duration": 76, "velocity": 61}, {"time": 39334, "pitch": 70, "duration": 81, "velocity": 84}, {"time": 39371, "pitch": 68, "duration": 77, "velocity": 77}, {"time": 39407, "pitch": 66, "duration": 94, "velocity": 83}, {"time": 39452, "pitch": 64, "duration": 86, "velocity": 70}, {"time": 39497, "pitch": 63, "duration": 94, "velocity": 79}, {"time": 39543, "pitch": 61, "duration": 87, "velocity": 75}, {"time": 39591, "pitch": 59, "duration": 28, "velocity": 61}, {"time": 39645, "pitch": 58, "duration": 29, "velocity": 50}, {"time": 107169, "pitch": 68, "duration": 132, "velocity": 109}, {"time": 107169, "pitch": 73, "duration": 101, "velocity": 109}, {"time": 107281, "pitch": 73, "duration": 79, "velocity": 114}, {"time": 107281, "pitch": 76, "duration": 79, "velocity": 114}, {"time": 107525, "pitch": 78, "duration": 120, "velocity": 114}, {"time": 107525, "pitch": 82, "duration": 120, "velocity": 114}, {"time": 107645, "pitch": 80, "duration": 54, "velocity": 111}, {"time": 107645, "pitch": 83, "duration": 54, "velocity": 111}, {"time": 107764, "pitch": 78, "duration": 113, "velocity": 85}, {"time": 107764, "pitch": 82, "duration": 113, "velocity": 85}, {"time": 107885, "pitch": 80, "duration": 71, "velocity": 100}, {"time": 107885, "pitch": 83, "duration": 71, "velocity": 100}, {"time": 108003, "pitch": 78, "duration": 299, "velocity": 119}, {"time": 108003, "pitch": 81, "duration": 304, "velocity": 127}, {"time": 108303, "pitch": 78, "duration": 42, "velocity": 51}, {"time": 108332, "pitch": 75, "duration": 68, "velocity": 103}, {"time": 108363, "pitch": 73, "duration": 95, "velocity": 95}, {"time": 108416, "pitch": 71, "duration": 75, "velocity": 61}, {"time": 108455, "pitch": 70, "duration": 80, "velocity": 84}, {"time": 108491, "pitch": 68, "duration": 77, "velocity": 77}, {"time": 108527, "pitch": 66, "duration": 94, "velocity": 83}, {"time": 108572, "pitch": 64, "duration": 86, "velocity": 70}, {"time": 108617, "pitch": 63, "duration": 94, "velocity": 79}, {"time": 108663, "pitch": 61, "duration": 88, "velocity": 75}, {"time": 108711, "pitch": 59, "duration": 29, "velocity": 61}, {"time": 108766, "pitch": 58, "duration": 29, "velocity": 50}], "annotations": [{"time": 285, "annotation": {"number": 7, "value": 80}, "group": "control_change"}, {"time": 307, "annotation": {"number": 11, "value": 100}, "group": "control_change"}, {"time": 329, "annotation": {"number": 10, "value": 49}, "group": "control_change"}, {"time": 350, "annotation": {"number": 91, "value": 80}, "group": "control_change"}, {"time": 372, "annotation": {"number": 93, "value": 0}, "group": "control_change"}, {"time": 394, "annotation": {"number": 101, "value": 0}, "group": "control_change"}, {"time": 416, "annotation": {"number": 100, "value": 0}, "group": "control_change"}, {"time": 438, "annotation": {"number": 6, "value": 12}, "group": "control_change"}, {"time": 460, "annotation": {"number": 101, "value": 127}, "group": "control_change"}, {"time": 484, "annotation": {"number": 100, "value": 127}, "group": "control_change"}]}, {"program": 0, "is_drum": false, "name": "T.SAX", "annotations": [{"time": 219, "annotation": {"number": 0, "value": 0}, "group": "control_change"}, {"time": 241, "annotation": {"number": 32, "value": 0}, "group": "control_change"}]}, {"program": 66, "is_drum": false, "name": "T.SAX", "notes": [{"time": 54700, "pitch": 60, "duration": 79, "velocity": 116}, {"time": 54700, "pitch": 72, "duration": 79, "velocity": 116}, {"time": 54722, "pitch": 61, "duration": 356, "velocity": 123}, {"time": 54722, "pitch": 73, "duration": 356, "velocity": 123}, {"time": 55091, "pitch": 59, "duration": 146, "velocity": 127}, {"time": 55091, "pitch": 71, "duration": 146, "velocity": 127}, {"time": 55331, "pitch": 57, "duration": 100, "velocity": 110}, {"time": 55331, "pitch": 69, "duration": 100, "velocity": 110}, {"time": 55440, "pitch": 59, "duration": 125, "velocity": 123}, {"time": 55440, "pitch": 71, "duration": 125, "velocity": 123}, {"time": 56593, "pitch": 60, "duration": 85, "velocity": 118}, {"time": 56593, "pitch": 72, "duration": 85, "velocity": 118}, {"time": 56637, "pitch": 61, "duration": 332, "velocity": 116}, {"time": 56637, "pitch": 73, "duration": 332, "velocity": 116}, {"time": 57013, "pitch": 59, "duration": 135, "velocity": 125}, {"time": 57013, "pitch": 71, "duration": 135, "velocity": 125}, {"time": 57254, "pitch": 57, "duration": 68, "velocity": 107}, {"time": 57254, "pitch": 69, "duration": 68, "velocity": 107}, {"time": 57365, "pitch": 57, "duration": 126, "velocity": 121}, {"time": 57365, "pitch": 69, "duration": 126, "velocity": 121}, {"time": 58548, "pitch": 59, "duration": 51, "velocity": 125}, {"time": 58548, "pitch": 71, "duration": 51, "velocity": 125}, {"time": 58560, "pitch": 60, "duration": 327, "velocity": 120}, {"time": 58560, "pitch": 72, "duration": 327, "velocity": 120}, {"time": 58929, "pitch": 59, "duration": 88, "velocity": 121}, {"time": 58929, "pitch": 71, "duration": 88, "velocity": 121}, {"time": 59168, "pitch": 57, "duration": 99, "velocity": 107}, {"time": 59168, "pitch": 69, "duration": 99, "velocity": 107}, {"time": 59278, "pitch": 59, "duration": 177, "velocity": 118}, {"time": 59278, "pitch": 71, "duration": 177, "velocity": 118}, {"time": 60963, "pitch": 61, "duration": 93, "velocity": 127}, {"time": 60963, "pitch": 68, "duration": 93, "velocity": 127}, {"time": 60963, "pitch": 73, "duration": 93, "velocity": 127}, {"time": 61202, "pitch": 61, "duration": 82, "velocity": 127}, {"time": 61202, "pitch": 68, "duration": 82, "velocity": 127}, {"time": 61202, "pitch": 73, "duration": 82, "velocity": 127}, {"time": 61441, "pitch": 61, "duration": 114, "velocity": 127}, {"time": 61441, "pitch": 68, "duration": 114, "velocity": 127}, {"time": 61441, "pitch": 73, "duration": 114, "velocity": 127}, {"time": 61571, "pitch": 61, "duration": 78, "velocity": 127}, {"time": 61571, "pitch": 68, "duration": 78, "velocity": 127}, {"time": 61571, "pitch": 73, "duration": 78, "velocity": 127}, {"time": 63973, "pitch": 63, "duration": 85, "velocity": 127}, {"time": 63973, "pitch": 72, "duration": 85, "velocity": 127}, {"time": 63973, "pitch": 75, "duration": 85, "velocity": 127}, {"time": 64212, "pitch": 63, "duration": 65, "velocity": 127}, {"time": 64212, "pitch": 72, "duration": 65, "velocity": 127}, {"time": 64212, "pitch": 75, "duration": 65, "velocity": 127}, {"time": 64322, "pitch": 63, "duration": 103, "velocity": 127}, {"time": 64322, "pitch": 72, "duration": 103, "velocity": 127}, {"time": 64322, "pitch": 75, "duration": 103, "velocity": 127}, {"time": 64691, "pitch": 63, "duration": 94, "velocity": 125}, {"time": 64691, "pitch": 72, "duration": 94, "velocity": 125}, {"time": 64691, "pitch": 75, "duration": 94, "velocity": 125}, {"time": 64800, "pitch": 63, "duration": 97, "velocity": 127}, {"time": 64800, "pitch": 72, "duration": 97, "velocity": 127}, {"time": 64800, "pitch": 75, "duration": 97, "velocity": 127}, {"time": 64930, "pitch": 63, "duration": 62, "velocity": 127}, {"time": 64930, "pitch": 72, "duration": 62, "velocity": 127}, {"time": 64930, "pitch": 75, "duration": 62, "velocity": 127}, {"time": 65041, "pitch": 63, "duration": 84, "velocity": 127}, {"time": 65041, "pitch": 72, "duration": 84, "velocity": 127}, {"time": 65041, "pitch": 75, "duration": 84, "velocity": 127}, {"time": 67811, "pitch": 66, "duration": 85, "velocity": 127}, {"time": 67811, "pitch": 69, "duration": 85, "velocity": 127}, {"time": 67811, "pitch": 73, "duration": 85, "velocity": 127}, {"time": 68050, "pitch": 66, "duration": 65, "velocity": 127}, {"time": 68050, "pitch": 69, "duration": 65, "velocity": 127}, {"time": 68050, "pitch": 73, "duration": 65, "velocity": 127}, {"time": 68160, "pitch": 66, "duration": 102, "velocity": 127}, {"time": 68160, "pitch": 69, "duration": 102, "velocity": 127}, {"time": 68160, "pitch": 73, "duration": 102, "velocity": 127}, {"time": 68529, "pitch": 66, "duration": 94, "velocity": 125}, {"time": 68529, "pitch": 69, "duration": 94, "velocity": 125}, {"time": 68529, "pitch": 73, "duration": 94, "velocity": 125}, {"time": 68638, "pitch": 66, "duration": 97, "velocity": 127}, {"time": 68638, "pitch": 69, "duration": 97, "velocity": 127}, {"time": 68638, "pitch": 73, "duration": 97, "velocity": 127}, {"time": 68768, "pitch": 66, "duration": 62, "velocity": 127}, {"time": 68768, "pitch": 69, "duration": 62, "velocity": 127}, {"time": 68768, "pitch": 73, "duration": 62, "velocity": 127}, {"time": 68879, "pitch": 66, "duration": 84, "velocity": 127}, {"time": 68879, "pitch": 69, "duration": 84, "velocity": 127}, {"time": 68879, "pitch": 73, "duration": 84, "velocity": 127}, {"time": 71649, "pitch": 63, "duration": 85, "velocity": 127}, {"time": 71649, "pitch": 72, "duration": 85, "velocity": 127}, {"time": 71649, "pitch": 75, "duration": 85, "velocity": 127}, {"time": 71888, "pitch": 63, "duration": 65, "velocity": 127}, {"time": 71888, "pitch": 72, "duration": 65, "velocity": 127}, {"time": 71888, "pitch": 75, "duration": 65, "velocity": 127}, {"time": 71998, "pitch": 63, "duration": 104, "velocity": 127}, {"time": 71998, "pitch": 72, "duration": 104, "velocity": 127}, {"time": 71998, "pitch": 75, "duration": 104, "velocity": 127}, {"time": 72374, "pitch": 63, "duration": 97, "velocity": 125}, {"time": 72374, "pitch": 72, "duration": 97, "velocity": 125}, {"time": 72374, "pitch": 75, "duration": 97, "velocity": 125}, {"time": 72486, "pitch": 63, "duration": 96, "velocity": 127}, {"time": 72486, "pitch": 72, "duration": 96, "velocity": 127}, {"time": 72486, "pitch": 75, "duration": 96, "velocity": 127}, {"time": 72615, "pitch": 63, "duration": 62, "velocity": 127}, {"time": 72615, "pitch": 72, "duration": 62, "velocity": 127}, {"time": 72615, "pitch": 75, "duration": 62, "velocity": 127}, {"time": 72726, "pitch": 63, "duration": 85, "velocity": 127}, {"time": 72726, "pitch": 72, "duration": 85, "velocity": 127}, {"time": 72726, "pitch": 75, "duration": 85, "velocity": 127}, {"time": 75845, "pitch": 52, "duration": 136, "velocity": 127}, {"time": 75845, "pitch": 64, "duration": 136, "velocity": 127}, {"time": 75975, "pitch": 54, "duration": 92, "velocity": 127}, {"time": 75975, "pitch": 66, "duration": 92, "velocity": 127}, {"time": 76214, "pitch": 57, "duration": 349, "velocity": 127}, {"time": 76214, "pitch": 69, "duration": 349, "velocity": 127}, {"time": 76563, "pitch": 54, "duration": 75, "velocity": 127}, {"time": 76563, "pitch": 66, "duration": 75, "velocity": 127}, {"time": 76802, "pitch": 52, "duration": 130, "velocity": 127}, {"time": 76802, "pitch": 64, "duration": 130, "velocity": 127}, {"time": 76932, "pitch": 54, "duration": 97, "velocity": 127}, {"time": 76932, "pitch": 66, "duration": 97, "velocity": 127}, {"time": 123821, "pitch": 60, "duration": 78, "velocity": 116}, {"time": 123821, "pitch": 72, "duration": 78, "velocity": 116}, {"time": 123843, "pitch": 61, "duration": 356, "velocity": 123}, {"time": 123843, "pitch": 73, "duration": 356, "velocity": 123}, {"time": 124212, "pitch": 59, "duration": 145, "velocity": 127}, {"time": 124212, "pitch": 71, "duration": 145, "velocity": 127}, {"time": 124451, "pitch": 57, "duration": 100, "velocity": 110}, {"time": 124451, "pitch": 69, "duration": 100, "velocity": 110}, {"time": 124560, "pitch": 59, "duration": 125, "velocity": 123}, {"time": 124560, "pitch": 71, "duration": 125, "velocity": 123}, {"time": 125713, "pitch": 60, "duration": 85, "velocity": 118}, {"time": 125713, "pitch": 72, "duration": 85, "velocity": 118}, {"time": 125757, "pitch": 61, "duration": 332, "velocity": 116}, {"time": 125757, "pitch": 73, "duration": 332, "velocity": 116}, {"time": 126133, "pitch": 59, "duration": 135, "velocity": 125}, {"time": 126133, "pitch": 71, "duration": 135, "velocity": 125}, {"time": 126374, "pitch": 57, "duration": 68, "velocity": 107}, {"time": 126374, "pitch": 69, "duration": 68, "velocity": 107}, {"time": 126485, "pitch": 57, "duration": 126, "velocity": 121}, {"time": 126485, "pitch": 69, "duration": 126, "velocity": 121}, {"time": 127669, "pitch": 59, "duration": 50, "velocity": 125}, {"time": 127669, "pitch": 71, "duration": 50, "velocity": 125}, {"time": 127681, "pitch": 60, "duration": 327, "velocity": 120}, {"time": 127681, "pitch": 72, "duration": 327, "velocity": 120}, {"time": 128049, "pitch": 59, "duration": 88, "velocity": 121}, {"time": 128049, "pitch": 71, "duration": 88, "velocity": 121}, {"time": 128289, "pitch": 57, "duration": 98, "velocity": 107}, {"time": 128289, "pitch": 69, "duration": 98, "velocity": 107}, {"time": 128398, "pitch": 59, "duration": 177, "velocity": 118}, {"time": 128398, "pitch": 71, "duration": 177, "velocity": 118}, {"time": 130083, "pitch": 61, "duration": 93, "velocity": 127}, {"time": 130083, "pitch": 68, "duration": 93, "velocity": 127}, {"time": 130083, "pitch": 73, "duration": 93, "velocity": 127}, {"time": 130322, "pitch": 61, "duration": 82, "velocity": 127}, {"time": 130322, "pitch": 68, "duration": 82, "velocity": 127}, {"time": 130322, "pitch": 73, "duration": 82, "velocity": 127}, {"time": 130561, "pitch": 61, "duration": 114, "velocity": 127}, {"time": 130561, "pitch": 68, "duration": 114, "velocity": 127}, {"time": 130561, "pitch": 73, "duration": 114, "velocity": 127}, {"time": 130691, "pitch": 61, "duration": 79, "velocity": 127}, {"time": 130691, "pitch": 68, "duration": 79, "velocity": 127}, {"time": 130691, "pitch": 73, "duration": 79, "velocity": 127}, {"time": 133093, "pitch": 63, "duration": 85, "velocity": 127}, {"time": 133093, "pitch": 72, "duration": 85, "velocity": 127}, {"time": 133093, "pitch": 75, "duration": 85, "velocity": 127}, {"time": 133332, "pitch": 63, "duration": 65, "velocity": 127}, {"time": 133332, "pitch": 72, "duration": 65, "velocity": 127}, {"time": 133332, "pitch": 75, "duration": 65, "velocity": 127}, {"time": 133442, "pitch": 63, "duration": 103, "velocity": 127}, {"time": 133442, "pitch": 72, "duration": 103, "velocity": 127}, {"time": 133442, "pitch": 75, "duration": 103, "velocity": 127}, {"time": 133811, "pitch": 63, "duration": 95, "velocity": 125}, {"time": 133811, "pitch": 72, "duration": 95, "velocity": 125}, {"time": 133811, "pitch": 75, "duration": 95, "velocity": 125}, {"time": 133921, "pitch": 63, "duration": 96, "velocity": 127}, {"time": 133921, "pitch": 72, "duration": 96, "velocity": 127}, {"time": 133921, "pitch": 75, "duration": 96, "velocity": 127}, {"time": 134050, "pitch": 63, "duration": 62, "velocity": 127}, {"time": 134050, "pitch": 72, "duration": 62, "velocity": 127}, {"time": 134050, "pitch": 75, "duration": 62, "velocity": 127}, {"time": 134161, "pitch": 63, "duration": 85, "velocity": 127}, {"time": 134161, "pitch": 72, "duration": 85, "velocity": 127}, {"time": 134161, "pitch": 75, "duration": 85, "velocity": 127}, {"time": 136931, "pitch": 66, "duration": 85, "velocity": 127}, {"time": 136931, "pitch": 69, "duration": 85, "velocity": 127}, {"time": 136931, "pitch": 73, "duration": 85, "velocity": 127}, {"time": 137170, "pitch": 66, "duration": 65, "velocity": 127}, {"time": 137170, "pitch": 69, "duration": 65, "velocity": 127}, {"time": 137170, "pitch": 73, "duration": 65, "velocity": 127}, {"time": 137280, "pitch": 66, "duration": 103, "velocity": 127}, {"time": 137280, "pitch": 69, "duration": 103, "velocity": 127}, {"time": 137280, "pitch": 73, "duration": 103, "velocity": 127}, {"time": 137649, "pitch": 66, "duration": 95, "velocity": 125}, {"time": 137649, "pitch": 69, "duration": 95, "velocity": 125}, {"time": 137649, "pitch": 73, "duration": 95, "velocity": 125}, {"time": 137759, "pitch": 66, "duration": 96, "velocity": 127}, {"time": 137759, "pitch": 69, "duration": 96, "velocity": 127}, {"time": 137759, "pitch": 73, "duration": 96, "velocity": 127}, {"time": 137888, "pitch": 66, "duration": 62, "velocity": 127}, {"time": 137888, "pitch": 69, "duration": 62, "velocity": 127}, {"time": 137888, "pitch": 73, "duration": 62, "velocity": 127}, {"time": 137999, "pitch": 66, "duration": 85, "velocity": 127}, {"time": 137999, "pitch": 69, "duration": 85, "velocity": 127}, {"time": 137999, "pitch": 73, "duration": 85, "velocity": 127}, {"time": 140769, "pitch": 63, "duration": 85, "velocity": 127}, {"time": 140769, "pitch": 72, "duration": 85, "velocity": 127}, {"time": 140769, "pitch": 75, "duration": 85, "velocity": 127}, {"time": 141008, "pitch": 63, "duration": 65, "velocity": 127}, {"time": 141008, "pitch": 72, "duration": 65, "velocity": 127}, {"time": 141008, "pitch": 75, "duration": 65, "velocity": 127}, {"time": 141118, "pitch": 63, "duration": 103, "velocity": 127}, {"time": 141118, "pitch": 72, "duration": 103, "velocity": 127}, {"time": 141118, "pitch": 75, "duration": 103, "velocity": 127}, {"time": 141487, "pitch": 63, "duration": 95, "velocity": 125}, {"time": 141487, "pitch": 72, "duration": 95, "velocity": 125}, {"time": 141487, "pitch": 75, "duration": 95, "velocity": 125}, {"time": 141597, "pitch": 63, "duration": 98, "velocity": 127}, {"time": 141597, "pitch": 72, "duration": 98, "velocity": 127}, {"time": 141597, "pitch": 75, "duration": 98, "velocity": 127}, {"time": 141729, "pitch": 63, "duration": 63, "velocity": 127}, {"time": 141729, "pitch": 72, "duration": 63, "velocity": 127}, {"time": 141729, "pitch": 75, "duration": 63, "velocity": 127}, {"time": 141842, "pitch": 63, "duration": 86, "velocity": 127}, {"time": 141842, "pitch": 72, "duration": 86, "velocity": 127}, {"time": 141842, "pitch": 75, "duration": 86, "velocity": 127}, {"time": 144965, "pitch": 52, "duration": 136, "velocity": 127}, {"time": 144965, "pitch": 64, "duration": 136, "velocity": 127}, {"time": 145095, "pitch": 54, "duration": 93, "velocity": 127}, {"time": 145095, "pitch": 66, "duration": 93, "velocity": 127}, {"time": 145334, "pitch": 57, "duration": 349, "velocity": 127}, {"time": 145334, "pitch": 69, "duration": 349, "velocity": 127}, {"time": 145683, "pitch": 54, "duration": 75, "velocity": 127}, {"time": 145683, "pitch": 66, "duration": 75, "velocity": 127}, {"time": 145922, "pitch": 52, "duration": 130, "velocity": 127}, {"time": 145922, "pitch": 64, "duration": 130, "velocity": 127}, {"time": 146052, "pitch": 54, "duration": 97, "velocity": 127}, {"time": 146052, "pitch": 66, "duration": 97, "velocity": 127}, {"time": 148454, "pitch": 63, "duration": 85, "velocity": 127}, {"time": 148454, "pitch": 72, "duration": 85, "velocity": 127}, {"time": 148454, "pitch": 75, "duration": 85, "velocity": 127}, {"time": 148694, "pitch": 63, "duration": 64, "velocity": 127}, {"time": 148694, "pitch": 72, "duration": 64, "velocity": 127}, {"time": 148694, "pitch": 75, "duration": 64, "velocity": 127}, {"time": 148803, "pitch": 63, "duration": 103, "velocity": 127}, {"time": 148803, "pitch": 72, "duration": 103, "velocity": 127}, {"time": 148803, "pitch": 75, "duration": 103, "velocity": 127}, {"time": 149172, "pitch": 63, "duration": 95, "velocity": 125}, {"time": 149172, "pitch": 72, "duration": 95, "velocity": 125}, {"time": 149172, "pitch": 75, "duration": 95, "velocity": 125}, {"time": 149282, "pitch": 63, "duration": 96, "velocity": 127}, {"time": 149282, "pitch": 72, "duration": 96, "velocity": 127}, {"time": 149282, "pitch": 75, "duration": 96, "velocity": 127}, {"time": 149411, "pitch": 63, "duration": 62, "velocity": 127}, {"time": 149411, "pitch": 72, "duration": 62, "velocity": 127}, {"time": 149411, "pitch": 75, "duration": 62, "velocity": 127}, {"time": 149522, "pitch": 63, "duration": 85, "velocity": 127}, {"time": 149522, "pitch": 72, "duration": 85, "velocity": 127}, {"time": 149522, "pitch": 75, "duration": 85, "velocity": 127}, {"time": 152292, "pitch": 66, "duration": 85, "velocity": 127}, {"time": 152292, "pitch": 69, "duration": 85, "velocity": 127}, {"time": 152292, "pitch": 73, "duration": 85, "velocity": 127}, {"time": 152531, "pitch": 66, "duration": 65, "velocity": 127}, {"time": 152531, "pitch": 69, "duration": 65, "velocity": 127}, {"time": 152531, "pitch": 73, "duration": 65, "velocity": 127}, {"time": 152641, "pitch": 66, "duration": 103, "velocity": 127}, {"time": 152641, "pitch": 69, "duration": 103, "velocity": 127}, {"time": 152641, "pitch": 73, "duration": 103, "velocity": 127}, {"time": 153010, "pitch": 66, "duration": 95, "velocity": 125}, {"time": 153010, "pitch": 69, "duration": 95, "velocity": 125}, {"time": 153010, "pitch": 73, "duration": 95, "velocity": 125}, {"time": 153120, "pitch": 66, "duration": 96, "velocity": 127}, {"time": 153120, "pitch": 69, "duration": 96, "velocity": 127}, {"time": 153120, "pitch": 73, "duration": 96, "velocity": 127}, {"time": 153249, "pitch": 66, "duration": 62, "velocity": 127}, {"time": 153249, "pitch": 69, "duration": 62, "velocity": 127}, {"time": 153249, "pitch": 73, "duration": 62, "velocity": 127}, {"time": 153360, "pitch": 66, "duration": 85, "velocity": 127}, {"time": 153360, "pitch": 69, "duration": 85, "velocity": 127}, {"time": 153360, "pitch": 73, "duration": 85, "velocity": 127}, {"time": 156130, "pitch": 63, "duration": 85, "velocity": 127}, {"time": 156130, "pitch": 72, "duration": 85, "velocity": 127}, {"time": 156130, "pitch": 75, "duration": 85, "velocity": 127}, {"time": 156369, "pitch": 63, "duration": 65, "velocity": 127}, {"time": 156369, "pitch": 72, "duration": 65, "velocity": 127}, {"time": 156369, "pitch": 75, "duration": 65, "velocity": 127}, {"time": 156479, "pitch": 63, "duration": 103, "velocity": 127}, {"time": 156479, "pitch": 72, "duration": 103, "velocity": 127}, {"time": 156479, "pitch": 75, "duration": 103, "velocity": 127}, {"time": 156848, "pitch": 63, "duration": 95, "velocity": 125}, {"time": 156848, "pitch": 72, "duration": 95, "velocity": 125}, {"time": 156848, "pitch": 75, "duration": 95, "velocity": 125}, {"time": 156958, "pitch": 63, "duration": 98, "velocity": 127}, {"time": 156958, "pitch": 72, "duration": 98, "velocity": 127}, {"time": 156958, "pitch": 75, "duration": 98, "velocity": 127}, {"time": 157090, "pitch": 63, "duration": 63, "velocity": 127}, {"time": 157090, "pitch": 72, "duration": 63, "velocity": 127}, {"time": 157090, "pitch": 75, "duration": 63, "velocity": 127}, {"time": 157203, "pitch": 63, "duration": 86, "velocity": 127}, {"time": 157203, "pitch": 72, "duration": 86, "velocity": 127}, {"time": 157203, "pitch": 75, "duration": 86, "velocity": 127}, {"time": 160317, "pitch": 52, "duration": 138, "velocity": 127}, {"time": 160317, "pitch": 64, "duration": 138, "velocity": 127}, {"time": 160449, "pitch": 54, "duration": 95, "velocity": 127}, {"time": 160449, "pitch": 66, "duration": 95, "velocity": 127}, {"time": 160693, "pitch": 57, "duration": 351, "velocity": 127}, {"time": 160693, "pitch": 69, "duration": 351, "velocity": 127}, {"time": 161044, "pitch": 54, "duration": 75, "velocity": 127}, {"time": 161044, "pitch": 66, "duration": 75, "velocity": 127}, {"time": 161284, "pitch": 52, "duration": 129, "velocity": 127}, {"time": 161284, "pitch": 64, "duration": 129, "velocity": 127}, {"time": 161413, "pitch": 54, "duration": 97, "velocity": 127}, {"time": 161413, "pitch": 66, "duration": 97, "velocity": 127}, {"time": 179170, "pitch": 63, "duration": 86, "velocity": 127}, {"time": 179170, "pitch": 72, "duration": 86, "velocity": 127}, {"time": 179170, "pitch": 75, "duration": 86, "velocity": 127}, {"time": 179414, "pitch": 63, "duration": 66, "velocity": 127}, {"time": 179414, "pitch": 72, "duration": 66, "velocity": 127}, {"time": 179414, "pitch": 75, "duration": 66, "velocity": 127}, {"time": 179525, "pitch": 63, "duration": 103, "velocity": 127}, {"time": 179525, "pitch": 72, "duration": 103, "velocity": 127}, {"time": 179525, "pitch": 75, "duration": 103, "velocity": 127}, {"time": 179894, "pitch": 63, "duration": 95, "velocity": 125}, {"time": 179894, "pitch": 72, "duration": 95, "velocity": 125}, {"time": 179894, "pitch": 75, "duration": 95, "velocity": 125}, {"time": 180004, "pitch": 63, "duration": 97, "velocity": 127}, {"time": 180004, "pitch": 72, "duration": 97, "velocity": 127}, {"time": 180004, "pitch": 75, "duration": 97, "velocity": 127}, {"time": 180134, "pitch": 63, "duration": 61, "velocity": 127}, {"time": 180134, "pitch": 72, "duration": 61, "velocity": 127}, {"time": 180134, "pitch": 75, "duration": 61, "velocity": 127}, {"time": 180244, "pitch": 63, "duration": 85, "velocity": 127}, {"time": 180244, "pitch": 72, "duration": 85, "velocity": 127}, {"time": 180244, "pitch": 75, "duration": 85, "velocity": 127}, {"time": 183014, "pitch": 66, "duration": 85, "velocity": 127}, {"time": 183014, "pitch": 69, "duration": 85, "velocity": 127}, {"time": 183014, "pitch": 73, "duration": 85, "velocity": 127}, {"time": 183254, "pitch": 66, "duration": 64, "velocity": 127}, {"time": 183254, "pitch": 69, "duration": 64, "velocity": 127}, {"time": 183254, "pitch": 73, "duration": 64, "velocity": 127}, {"time": 183363, "pitch": 66, "duration": 103, "velocity": 127}, {"time": 183363, "pitch": 69, "duration": 103, "velocity": 127}, {"time": 183363, "pitch": 73, "duration": 103, "velocity": 127}, {"time": 183732, "pitch": 66, "duration": 95, "velocity": 125}, {"time": 183732, "pitch": 69, "duration": 95, "velocity": 125}, {"time": 183732, "pitch": 73, "duration": 95, "velocity": 125}, {"time": 183842, "pitch": 66, "duration": 97, "velocity": 127}, {"time": 183842, "pitch": 69, "duration": 97, "velocity": 127}, {"time": 183842, "pitch": 73, "duration": 97, "velocity": 127}, {"time": 183972, "pitch": 66, "duration": 61, "velocity": 127}, {"time": 183972, "pitch": 69, "duration": 61, "velocity": 127}, {"time": 183972, "pitch": 73, "duration": 61, "velocity": 127}, {"time": 184082, "pitch": 66, "duration": 85, "velocity": 127}, {"time": 184082, "pitch": 69, "duration": 85, "velocity": 127}, {"time": 184082, "pitch": 73, "duration": 85, "velocity": 127}, {"time": 186852, "pitch": 63, "duration": 85, "velocity": 127}, {"time": 186852, "pitch": 72, "duration": 85, "velocity": 127}, {"time": 186852, "pitch": 75, "duration": 85, "velocity": 127}, {"time": 187092, "pitch": 63, "duration": 64, "velocity": 127}, {"time": 187092, "pitch": 72, "duration": 64, "velocity": 127}, {"time": 187092, "pitch": 75, "duration": 64, "velocity": 127}, {"time": 187201, "pitch": 63, "duration": 103, "velocity": 127}, {"time": 187201, "pitch": 72, "duration": 103, "velocity": 127}, {"time": 187201, "pitch": 75, "duration": 103, "velocity": 127}, {"time": 187570, "pitch": 63, "duration": 95, "velocity": 125}, {"time": 187570, "pitch": 72, "duration": 95, "velocity": 125}, {"time": 187570, "pitch": 75, "duration": 95, "velocity": 125}, {"time": 187680, "pitch": 63, "duration": 97, "velocity": 127}, {"time": 187680, "pitch": 72, "duration": 97, "velocity": 127}, {"time": 187680, "pitch": 75, "duration": 97, "velocity": 127}, {"time": 187809, "pitch": 63, "duration": 62, "velocity": 127}, {"time": 187809, "pitch": 72, "duration": 62, "velocity": 127}, {"time": 187809, "pitch": 75, "duration": 62, "velocity": 127}, {"time": 187920, "pitch": 63, "duration": 85, "velocity": 127}, {"time": 187920, "pitch": 72, "duration": 85, "velocity": 127}, {"time": 187920, "pitch": 75, "duration": 85, "velocity": 127}, {"time": 191017, "pitch": 60, "duration": 79, "velocity": 116}, {"time": 191017, "pitch": 72, "duration": 79, "velocity": 116}, {"time": 191039, "pitch": 61, "duration": 356, "velocity": 123}, {"time": 191039, "pitch": 73, "duration": 356, "velocity": 123}, {"time": 191408, "pitch": 59, "duration": 146, "velocity": 127}, {"time": 191408, "pitch": 71, "duration": 146, "velocity": 127}, {"time": 191647, "pitch": 57, "duration": 101, "velocity": 110}, {"time": 191647, "pitch": 69, "duration": 101, "velocity": 110}, {"time": 191757, "pitch": 59, "duration": 125, "velocity": 123}, {"time": 191757, "pitch": 71, "duration": 125, "velocity": 123}, {"time": 192919, "pitch": 60, "duration": 85, "velocity": 118}, {"time": 192919, "pitch": 72, "duration": 85, "velocity": 118}, {"time": 192963, "pitch": 61, "duration": 326, "velocity": 116}, {"time": 192963, "pitch": 73, "duration": 326, "velocity": 116}, {"time": 193332, "pitch": 59, "duration": 132, "velocity": 125}, {"time": 193332, "pitch": 71, "duration": 132, "velocity": 125}, {"time": 193571, "pitch": 57, "duration": 68, "velocity": 107}, {"time": 193571, "pitch": 69, "duration": 68, "velocity": 107}, {"time": 193682, "pitch": 57, "duration": 125, "velocity": 121}, {"time": 193682, "pitch": 69, "duration": 125, "velocity": 121}, {"time": 194865, "pitch": 60, "duration": 52, "velocity": 125}, {"time": 194865, "pitch": 72, "duration": 52, "velocity": 125}, {"time": 194877, "pitch": 61, "duration": 334, "velocity": 120}, {"time": 194877, "pitch": 73, "duration": 334, "velocity": 120}, {"time": 195253, "pitch": 59, "duration": 90, "velocity": 121}, {"time": 195253, "pitch": 71, "duration": 90, "velocity": 121}, {"time": 195495, "pitch": 57, "duration": 98, "velocity": 107}, {"time": 195495, "pitch": 69, "duration": 98, "velocity": 107}, {"time": 195604, "pitch": 59, "duration": 177, "velocity": 118}, {"time": 195604, "pitch": 71, "duration": 177, "velocity": 118}, {"time": 196801, "pitch": 56, "duration": 159, "velocity": 118}, {"time": 196801, "pitch": 68, "duration": 159, "velocity": 118}, {"time": 196930, "pitch": 57, "duration": 119, "velocity": 97}, {"time": 196930, "pitch": 69, "duration": 119, "velocity": 97}, {"time": 197170, "pitch": 59, "duration": 111, "velocity": 115}, {"time": 197170, "pitch": 71, "duration": 111, "velocity": 115}, {"time": 197409, "pitch": 56, "duration": 281, "velocity": 125}, {"time": 197409, "pitch": 68, "duration": 281, "velocity": 125}, {"time": 197758, "pitch": 52, "duration": 169, "velocity": 115}, {"time": 197758, "pitch": 64, "duration": 169, "velocity": 115}, {"time": 197888, "pitch": 49, "duration": 27, "velocity": 111}, {"time": 197888, "pitch": 61, "duration": 27, "velocity": 111}, {"time": 197997, "pitch": 52, "duration": 245, "velocity": 113}, {"time": 197997, "pitch": 64, "duration": 245, "velocity": 113}, {"time": 198702, "pitch": 60, "duration": 79, "velocity": 116}, {"time": 198702, "pitch": 72, "duration": 79, "velocity": 116}, {"time": 198724, "pitch": 61, "duration": 356, "velocity": 123}, {"time": 198724, "pitch": 73, "duration": 356, "velocity": 123}, {"time": 199093, "pitch": 59, "duration": 146, "velocity": 127}, {"time": 199093, "pitch": 71, "duration": 146, "velocity": 127}, {"time": 199333, "pitch": 57, "duration": 100, "velocity": 110}, {"time": 199333, "pitch": 69, "duration": 100, "velocity": 110}, {"time": 199442, "pitch": 59, "duration": 125, "velocity": 123}, {"time": 199442, "pitch": 71, "duration": 125, "velocity": 123}, {"time": 200595, "pitch": 60, "duration": 85, "velocity": 118}, {"time": 200595, "pitch": 72, "duration": 85, "velocity": 118}, {"time": 200639, "pitch": 61, "duration": 326, "velocity": 116}, {"time": 200639, "pitch": 73, "duration": 326, "velocity": 116}, {"time": 201008, "pitch": 59, "duration": 133, "velocity": 125}, {"time": 201008, "pitch": 71, "duration": 133, "velocity": 125}, {"time": 201249, "pitch": 57, "duration": 70, "velocity": 107}, {"time": 201249, "pitch": 69, "duration": 70, "velocity": 107}, {"time": 201362, "pitch": 57, "duration": 128, "velocity": 121}, {"time": 201362, "pitch": 69, "duration": 128, "velocity": 121}, {"time": 202550, "pitch": 60, "duration": 51, "velocity": 125}, {"time": 202550, "pitch": 72, "duration": 51, "velocity": 125}, {"time": 202562, "pitch": 61, "duration": 327, "velocity": 120}, {"time": 202562, "pitch": 73, "duration": 327, "velocity": 120}, {"time": 202931, "pitch": 59, "duration": 88, "velocity": 121}, {"time": 202931, "pitch": 71, "duration": 88, "velocity": 121}, {"time": 203171, "pitch": 57, "duration": 98, "velocity": 107}, {"time": 203171, "pitch": 69, "duration": 98, "velocity": 107}, {"time": 203280, "pitch": 59, "duration": 177, "velocity": 118}, {"time": 203280, "pitch": 71, "duration": 177, "velocity": 118}, {"time": 203997, "pitch": 72, "duration": 69, "velocity": 100}, {"time": 203998, "pitch": 69, "duration": 355, "velocity": 119}, {"time": 203998, "pitch": 73, "duration": 355, "velocity": 119}, {"time": 204367, "pitch": 73, "duration": 391, "velocity": 103}, {"time": 204367, "pitch": 76, "duration": 391, "velocity": 103}, {"time": 204721, "pitch": 66, "duration": 5013, "velocity": 80}, {"time": 204721, "pitch": 68, "duration": 5013, "velocity": 112}], "annotations": [{"time": 285, "annotation": {"number": 7, "value": 80}, "group": "control_change"}, {"time": 307, "annotation": {"number": 11, "value": 100}, "group": "control_change"}, {"time": 329, "annotation": {"number": 10, "value": 84}, "group": "control_change"}, {"time": 350, "annotation": {"number": 91, "value": 50}, "group": "control_change"}, {"time": 372, "annotation": {"number": 93, "value": 0}, "group": "control_change"}, {"time": 394, "annotation": {"number": 101, "value": 0}, "group": "control_change"}, {"time": 416, "annotation": {"number": 100, "value": 0}, "group": "control_change"}, {"time": 438, "annotation": {"number": 6, "value": 12}, "group": "control_change"}, {"time": 460, "annotation": {"number": 101, "value": 127}, "group": "control_change"}, {"time": 484, "annotation": {"number": 100, "value": 127}, "group": "control_change"}, {"time": 205945, "annotation": {"number": 11, "value": 98}, "group": "control_change"}, {"time": 205946, "annotation": {"number": 11, "value": 97}, "group": "control_change"}, {"time": 206334, "annotation": {"number": 11, "value": 96}, "group": "control_change"}, {"time": 206495, "annotation": {"number": 11, "value": 95}, "group": "control_change"}, {"time": 206619, "annotation": {"number": 11, "value": 94}, "group": "control_change"}, {"time": 206723, "annotation": {"number": 11, "value": 93}, "group": "control_change"}, {"time": 206815, "annotation": {"number": 11, "value": 92}, "group": "control_change"}, {"time": 206899, "annotation": {"number": 11, "value": 91}, "group": "control_change"}, {"time": 206975, "annotation": {"number": 11, "value": 90}, "group": "control_change"}, {"time": 207046, "annotation": {"number": 11, "value": 89}, "group": "control_change"}, {"time": 207113, "annotation": {"number": 11, "value": 88}, "group": "control_change"}, {"time": 207176, "annotation": {"number": 11, "value": 87}, "group": "control_change"}, {"time": 207236, "annotation": {"number": 11, "value": 86}, "group": "control_change"}, {"time": 207294, "annotation": {"number": 11, "value": 85}, "group": "control_change"}, {"time": 207348, "annotation": {"number": 11, "value": 84}, "group": "control_change"}, {"time": 207402, "annotation": {"number": 11, "value": 83}, "group": "control_change"}, {"time": 207455, "annotation": {"number": 11, "value": 82}, "group": "control_change"}, {"time": 207505, "annotation": {"number": 11, "value": 81}, "group": "control_change"}, {"time": 207554, "annotation": {"number": 11, "value": 80}, "group": "control_change"}, {"time": 207601, "annotation": {"number": 11, "value": 79}, "group": "control_change"}, {"time": 207647, "annotation": {"number": 11, "value": 78}, "group": "control_change"}, {"time": 207693, "annotation": {"number": 11, "value": 77}, "group": "control_change"}, {"time": 207737, "annotation": {"number": 11, "value": 76}, "group": "control_change"}, {"time": 207779, "annotation": {"number": 11, "value": 75}, "group": "control_change"}, {"time": 207821, "annotation": {"number": 11, "value": 74}, "group": "control_change"}, {"time": 207861, "annotation": {"number": 11, "value": 73}, "group": "control_change"}, {"time": 207901, "annotation": {"number": 11, "value": 72}, "group": "control_change"}, {"time": 207939, "annotation": {"number": 11, "value": 71}, "group": "control_change"}, {"time": 207977, "annotation": {"number": 11, "value": 70}, "group": "control_change"}, {"time": 208015, "annotation": {"number": 11, "value": 69}, "group": "control_change"}, {"time": 208051, "annotation": {"number": 11, "value": 68}, "group": "control_change"}, {"time": 208087, "annotation": {"number": 11, "value": 67}, "group": "control_change"}, {"time": 208122, "annotation": {"number": 11, "value": 66}, "group": "control_change"}, {"time": 208156, "annotation": {"number": 11, "value": 65}, "group": "control_change"}, {"time": 208190, "annotation": {"number": 11, "value": 64}, "group": "control_change"}, {"time": 208224, "annotation": {"number": 11, "value": 63}, "group": "control_change"}, {"time": 208257, "annotation": {"number": 11, "value": 62}, "group": "control_change"}, {"time": 208290, "annotation": {"number": 11, "value": 61}, "group": "control_change"}, {"time": 208323, "annotation": {"number": 11, "value": 60}, "group": "control_change"}, {"time": 208354, "annotation": {"number": 11, "value": 59}, "group": "control_change"}, {"time": 208386, "annotation": {"number": 11, "value": 58}, "group": "control_change"}, {"time": 208417, "annotation": {"number": 11, "value": 57}, "group": "control_change"}, {"time": 208448, "annotation": {"number": 11, "value": 56}, "group": "control_change"}, {"time": 208477, "annotation": {"number": 11, "value": 55}, "group": "control_change"}, {"time": 208507, "annotation": {"number": 11, "value": 54}, "group": "control_change"}, {"time": 208537, "annotation": {"number": 11, "value": 53}, "group": "control_change"}, {"time": 208566, "annotation": {"number": 11, "value": 52}, "group": "control_change"}, {"time": 208595, "annotation": {"number": 11, "value": 51}, "group": "control_change"}, {"time": 208623, "annotation": {"number": 11, "value": 50}, "group": "control_change"}, {"time": 208652, "annotation": {"number": 11, "value": 49}, "group": "control_change"}, {"time": 208680, "annotation": {"number": 11, "value": 48}, "group": "control_change"}, {"time": 208708, "annotation": {"number": 11, "value": 47}, "group": "control_change"}, {"time": 208735, "annotation": {"number": 11, "value": 46}, "group": "control_change"}, {"time": 208762, "annotation": {"number": 11, "value": 45}, "group": "control_change"}, {"time": 208789, "annotation": {"number": 11, "value": 44}, "group": "control_change"}, {"time": 208815, "annotation": {"number": 11, "value": 43}, "group": "control_change"}, {"time": 208841, "annotation": {"number": 11, "value": 42}, "group": "control_change"}, {"time": 208868, "annotation": {"number": 11, "value": 41}, "group": "control_change"}, {"time": 208893, "annotation": {"number": 11, "value": 40}, "group": "control_change"}, {"time": 208919, "annotation": {"number": 11, "value": 39}, "group": "control_change"}, {"time": 208945, "annotation": {"number": 11, "value": 38}, "group": "control_change"}, {"time": 208970, "annotation": {"number": 11, "value": 37}, "group": "control_change"}, {"time": 208995, "annotation": {"number": 11, "value": 36}, "group": "control_change"}, {"time": 209020, "annotation": {"number": 11, "value": 35}, "group": "control_change"}, {"time": 209045, "annotation": {"number": 11, "value": 34}, "group": "control_change"}, {"time": 209069, "annotation": {"number": 11, "value": 33}, "group": "control_change"}, {"time": 209094, "annotation": {"number": 11, "value": 32}, "group": "control_change"}, {"time": 209118, "annotation": {"number": 11, "value": 31}, "group": "control_change"}, {"time": 209141, "annotation": {"number": 11, "value": 30}, "group": "control_change"}, {"time": 209164, "annotation": {"number": 11, "value": 29}, "group": "control_change"}, {"time": 209188, "annotation": {"number": 11, "value": 28}, "group": "control_change"}, {"time": 209211, "annotation": {"number": 11, "value": 27}, "group": "control_change"}, {"time": 209235, "annotation": {"number": 11, "value": 26}, "group": "control_change"}, {"time": 209258, "annotation": {"number": 11, "value": 25}, "group": "control_change"}, {"time": 209281, "annotation": {"number": 11, "value": 24}, "group": "control_change"}, {"time": 209304, "annotation": {"number": 11, "value": 23}, "group": "control_change"}, {"time": 209326, "annotation": {"number": 11, "value": 22}, "group": "control_change"}, {"time": 209349, "annotation": {"number": 11, "value": 21}, "group": "control_change"}, {"time": 209371, "annotation": {"number": 11, "value": 20}, "group": "control_change"}, {"time": 209393, "annotation": {"number": 11, "value": 19}, "group": "control_change"}, {"time": 209415, "annotation": {"number": 11, "value": 18}, "group": "control_change"}, {"time": 209437, "annotation": {"number": 11, "value": 17}, "group": "control_change"}, {"time": 209459, "annotation": {"number": 11, "value": 16}, "group": "control_change"}, {"time": 209479, "annotation": {"number": 11, "value": 15}, "group": "control_change"}, {"time": 209501, "annotation": {"number": 11, "value": 14}, "group": "control_change"}, {"time": 209522, "annotation": {"number": 11, "value": 13}, "group": "control_change"}, {"time": 209544, "annotation": {"number": 11, "value": 12}, "group": "control_change"}, {"time": 209565, "annotation": {"number": 11, "value": 11}, "group": "control_change"}, {"time": 209586, "annotation": {"number": 11, "value": 10}, "group": "control_change"}, {"time": 209607, "annotation": {"number": 11, "value": 9}, "group": "control_change"}, {"time": 209627, "annotation": {"number": 11, "value": 8}, "group": "control_change"}, {"time": 209648, "annotation": {"number": 11, "value": 7}, "group": "control_change"}, {"time": 209668, "annotation": {"number": 11, "value": 6}, "group": "control_change"}, {"time": 209689, "annotation": {"number": 11, "value": 5}, "group": "control_change"}, {"time": 209709, "annotation": {"number": 11, "value": 4}, "group": "control_change"}, {"time": 209729, "annotation": {"number": 11, "value": 3}, "group": "control_change"}, {"time": 209749, "annotation": {"number": 11, "value": 2}, "group": "control_change"}, {"time": 209769, "annotation": {"number": 11, "value": 1}, "group": "control_change"}, {"time": 209789, "annotation": {"number": 11, "value": 0}, "group": "control_change"}]}, {"program": 0, "is_drum": false, "name": "SYNTH 1 ", "annotations": [{"time": 219, "annotation": {"number": 0, "value": 0}, "group": "control_change"}, {"time": 241, "annotation": {"number": 32, "value": 0}, "group": "control_change"}]}, {"program": 87, "is_drum": false, "name": "SYNTH 1 ", "notes": [{"time": 486, "pitch": 78, "duration": 86, "velocity": 77}, {"time": 614, "pitch": 66, "duration": 78, "velocity": 60}, {"time": 724, "pitch": 78, "duration": 71, "velocity": 53}, {"time": 854, "pitch": 66, "duration": 53, "velocity": 56}, {"time": 963, "pitch": 78, "duration": 89, "velocity": 64}, {"time": 1093, "pitch": 66, "duration": 65, "velocity": 67}, {"time": 1203, "pitch": 78, "duration": 90, "velocity": 80}, {"time": 1442, "pitch": 66, "duration": 57, "velocity": 70}, {"time": 1442, "pitch": 78, "duration": 79, "velocity": 58}, {"time": 1571, "pitch": 66, "duration": 64, "velocity": 58}, {"time": 1682, "pitch": 78, "duration": 93, "velocity": 63}, {"time": 1811, "pitch": 66, "duration": 61, "velocity": 60}, {"time": 1921, "pitch": 78, "duration": 70, "velocity": 64}, {"time": 2050, "pitch": 66, "duration": 85, "velocity": 61}, {"time": 2160, "pitch": 78, "duration": 71, "velocity": 60}, {"time": 2289, "pitch": 66, "duration": 76, "velocity": 70}, {"time": 2399, "pitch": 78, "duration": 56, "velocity": 72}, {"time": 2529, "pitch": 66, "duration": 50, "velocity": 70}, {"time": 2638, "pitch": 78, "duration": 61, "velocity": 67}, {"time": 2768, "pitch": 66, "duration": 44, "velocity": 72}, {"time": 2877, "pitch": 78, "duration": 56, "velocity": 72}, {"time": 3010, "pitch": 66, "duration": 45, "velocity": 74}, {"time": 3121, "pitch": 78, "duration": 59, "velocity": 72}, {"time": 3254, "pitch": 66, "duration": 46, "velocity": 76}, {"time": 3365, "pitch": 78, "duration": 52, "velocity": 70}, {"time": 3495, "pitch": 66, "duration": 52, "velocity": 76}, {"time": 3605, "pitch": 78, "duration": 62, "velocity": 77}, {"time": 3734, "pitch": 66, "duration": 66, "velocity": 83}, {"time": 3844, "pitch": 78, "duration": 91, "velocity": 71}, {"time": 3974, "pitch": 66, "duration": 55, "velocity": 85}, {"time": 4083, "pitch": 78, "duration": 67, "velocity": 67}, {"time": 4213, "pitch": 66, "duration": 41, "velocity": 67}, {"time": 4323, "pitch": 78, "duration": 69, "velocity": 68}, {"time": 4452, "pitch": 66, "duration": 44, "velocity": 79}, {"time": 4562, "pitch": 78, "duration": 65, "velocity": 68}, {"time": 4691, "pitch": 66, "duration": 39, "velocity": 83}, {"time": 4801, "pitch": 78, "duration": 54, "velocity": 73}, {"time": 4931, "pitch": 66, "duration": 39, "velocity": 79}, {"time": 5040, "pitch": 78, "duration": 81, "velocity": 79}, {"time": 5170, "pitch": 66, "duration": 41, "velocity": 83}, {"time": 5280, "pitch": 78, "duration": 49, "velocity": 79}, {"time": 5409, "pitch": 66, "duration": 38, "velocity": 72}, {"time": 5519, "pitch": 78, "duration": 61, "velocity": 68}, {"time": 5649, "pitch": 66, "duration": 42, "velocity": 56}, {"time": 5758, "pitch": 78, "duration": 63, "velocity": 68}, {"time": 5888, "pitch": 66, "duration": 41, "velocity": 81}, {"time": 5998, "pitch": 78, "duration": 48, "velocity": 69}, {"time": 6127, "pitch": 66, "duration": 38, "velocity": 70}, {"time": 6237, "pitch": 78, "duration": 89, "velocity": 76}, {"time": 6369, "pitch": 66, "duration": 39, "velocity": 71}, {"time": 6482, "pitch": 78, "duration": 57, "velocity": 61}, {"time": 6613, "pitch": 66, "duration": 49, "velocity": 74}, {"time": 6725, "pitch": 78, "duration": 77, "velocity": 77}, {"time": 6854, "pitch": 66, "duration": 41, "velocity": 73}, {"time": 6964, "pitch": 78, "duration": 76, "velocity": 80}, {"time": 7094, "pitch": 66, "duration": 48, "velocity": 80}, {"time": 7203, "pitch": 78, "duration": 70, "velocity": 79}, {"time": 7333, "pitch": 66, "duration": 41, "velocity": 74}, {"time": 7443, "pitch": 78, "duration": 82, "velocity": 85}, {"time": 7572, "pitch": 66, "duration": 41, "velocity": 86}, {"time": 7682, "pitch": 78, "duration": 73, "velocity": 92}, {"time": 7812, "pitch": 66, "duration": 36, "velocity": 82}, {"time": 7921, "pitch": 78, "duration": 52, "velocity": 91}, {"time": 8162, "pitch": 66, "duration": 39, "velocity": 69}, {"time": 8162, "pitch": 78, "duration": 44, "velocity": 67}, {"time": 8400, "pitch": 66, "duration": 41, "velocity": 74}, {"time": 8529, "pitch": 78, "duration": 52, "velocity": 70}, {"time": 8639, "pitch": 66, "duration": 42, "velocity": 82}, {"time": 8769, "pitch": 78, "duration": 52, "velocity": 76}, {"time": 8878, "pitch": 66, "duration": 48, "velocity": 77}, {"time": 9008, "pitch": 78, "duration": 72, "velocity": 82}, {"time": 9118, "pitch": 66, "duration": 43, "velocity": 84}, {"time": 9250, "pitch": 78, "duration": 51, "velocity": 66}, {"time": 9363, "pitch": 66, "duration": 43, "velocity": 76}, {"time": 9494, "pitch": 78, "duration": 51, "velocity": 75}, {"time": 9607, "pitch": 66, "duration": 40, "velocity": 80}, {"time": 9735, "pitch": 78, "duration": 70, "velocity": 83}, {"time": 9845, "pitch": 66, "duration": 44, "velocity": 76}, {"time": 9975, "pitch": 78, "duration": 59, "velocity": 75}, {"time": 10084, "pitch": 66, "duration": 40, "velocity": 79}, {"time": 10323, "pitch": 66, "duration": 45, "velocity": 73}, {"time": 10453, "pitch": 78, "duration": 44, "velocity": 77}, {"time": 10563, "pitch": 66, "duration": 44, "velocity": 77}, {"time": 10692, "pitch": 78, "duration": 83, "velocity": 83}, {"time": 10802, "pitch": 66, "duration": 38, "velocity": 80}, {"time": 10932, "pitch": 78, "duration": 62, "velocity": 56}, {"time": 11041, "pitch": 66, "duration": 47, "velocity": 56}, {"time": 11171, "pitch": 78, "duration": 57, "velocity": 61}, {"time": 11410, "pitch": 66, "duration": 43, "velocity": 64}, {"time": 11410, "pitch": 78, "duration": 84, "velocity": 67}, {"time": 11520, "pitch": 66, "duration": 42, "velocity": 68}, {"time": 11649, "pitch": 78, "duration": 65, "velocity": 60}, {"time": 11759, "pitch": 66, "duration": 43, "velocity": 69}, {"time": 11889, "pitch": 78, "duration": 79, "velocity": 66}, {"time": 11998, "pitch": 66, "duration": 55, "velocity": 74}, {"time": 12128, "pitch": 78, "duration": 81, "velocity": 69}, {"time": 12238, "pitch": 66, "duration": 51, "velocity": 61}, {"time": 12367, "pitch": 78, "duration": 73, "velocity": 66}, {"time": 12477, "pitch": 66, "duration": 85, "velocity": 80}, {"time": 12609, "pitch": 78, "duration": 92, "velocity": 88}, {"time": 12721, "pitch": 66, "duration": 43, "velocity": 80}, {"time": 12965, "pitch": 78, "duration": 58, "velocity": 56}, {"time": 13095, "pitch": 66, "duration": 47, "velocity": 74}, {"time": 13204, "pitch": 78, "duration": 52, "velocity": 71}, {"time": 13334, "pitch": 66, "duration": 46, "velocity": 60}, {"time": 13444, "pitch": 78, "duration": 66, "velocity": 76}, {"time": 13573, "pitch": 66, "duration": 48, "velocity": 67}, {"time": 13683, "pitch": 78, "duration": 80, "velocity": 81}, {"time": 13812, "pitch": 66, "duration": 45, "velocity": 77}, {"time": 13922, "pitch": 78, "duration": 64, "velocity": 66}, {"time": 14052, "pitch": 66, "duration": 41, "velocity": 62}, {"time": 14162, "pitch": 78, "duration": 59, "velocity": 75}, {"time": 14291, "pitch": 66, "duration": 41, "velocity": 74}, {"time": 14401, "pitch": 78, "duration": 84, "velocity": 77}, {"time": 14530, "pitch": 66, "duration": 37, "velocity": 77}, {"time": 14640, "pitch": 78, "duration": 90, "velocity": 88}, {"time": 14770, "pitch": 66, "duration": 45, "velocity": 58}, {"time": 14879, "pitch": 78, "duration": 60, "velocity": 66}, {"time": 15009, "pitch": 66, "duration": 41, "velocity": 75}, {"time": 15119, "pitch": 78, "duration": 90, "velocity": 91}, {"time": 15358, "pitch": 66, "duration": 41, "velocity": 74}, {"time": 15358, "pitch": 78, "duration": 60, "velocity": 74}, {"time": 15597, "pitch": 66, "duration": 39, "velocity": 71}, {"time": 15597, "pitch": 78, "duration": 48, "velocity": 70}, {"time": 15727, "pitch": 66, "duration": 39, "velocity": 73}, {"time": 15837, "pitch": 78, "duration": 61, "velocity": 71}, {"time": 16080, "pitch": 66, "duration": 45, "velocity": 55}, {"time": 16080, "pitch": 78, "duration": 56, "velocity": 65}, {"time": 16213, "pitch": 66, "duration": 52, "velocity": 73}, {"time": 16324, "pitch": 78, "duration": 51, "velocity": 79}, {"time": 16454, "pitch": 66, "duration": 42, "velocity": 73}, {"time": 16564, "pitch": 78, "duration": 82, "velocity": 88}, {"time": 16693, "pitch": 66, "duration": 48, "velocity": 71}, {"time": 16803, "pitch": 78, "duration": 90, "velocity": 61}, {"time": 16933, "pitch": 66, "duration": 41, "velocity": 75}, {"time": 17043, "pitch": 78, "duration": 60, "velocity": 66}, {"time": 17172, "pitch": 66, "duration": 47, "velocity": 75}, {"time": 17282, "pitch": 78, "duration": 87, "velocity": 66}, {"time": 17411, "pitch": 66, "duration": 46, "velocity": 67}, {"time": 17521, "pitch": 78, "duration": 77, "velocity": 63}, {"time": 17650, "pitch": 66, "duration": 41, "velocity": 64}, {"time": 17760, "pitch": 78, "duration": 79, "velocity": 68}, {"time": 17890, "pitch": 66, "duration": 41, "velocity": 67}, {"time": 17999, "pitch": 78, "duration": 55, "velocity": 69}, {"time": 18129, "pitch": 66, "duration": 50, "velocity": 72}, {"time": 18239, "pitch": 78, "duration": 70, "velocity": 77}, {"time": 18368, "pitch": 66, "duration": 75, "velocity": 81}, {"time": 18478, "pitch": 78, "duration": 83, "velocity": 94}, {"time": 18607, "pitch": 66, "duration": 42, "velocity": 73}, {"time": 18717, "pitch": 78, "duration": 82, "velocity": 63}, {"time": 18849, "pitch": 66, "duration": 53, "velocity": 74}, {"time": 18961, "pitch": 78, "duration": 93, "velocity": 69}, {"time": 19093, "pitch": 66, "duration": 55, "velocity": 73}, {"time": 19205, "pitch": 78, "duration": 80, "velocity": 67}, {"time": 19335, "pitch": 66, "duration": 46, "velocity": 77}, {"time": 19444, "pitch": 78, "duration": 50, "velocity": 64}, {"time": 19574, "pitch": 66, "duration": 51, "velocity": 65}, {"time": 19684, "pitch": 78, "duration": 78, "velocity": 71}, {"time": 19813, "pitch": 66, "duration": 37, "velocity": 72}, {"time": 19923, "pitch": 78, "duration": 57, "velocity": 62}, {"time": 20053, "pitch": 66, "duration": 41, "velocity": 74}, {"time": 20162, "pitch": 78, "duration": 44, "velocity": 66}, {"time": 20292, "pitch": 66, "duration": 47, "velocity": 83}, {"time": 20402, "pitch": 78, "duration": 80, "velocity": 98}, {"time": 20531, "pitch": 66, "duration": 39, "velocity": 75}, {"time": 20641, "pitch": 78, "duration": 51, "velocity": 59}, {"time": 20770, "pitch": 66, "duration": 39, "velocity": 62}, {"time": 20880, "pitch": 78, "duration": 81, "velocity": 56}, {"time": 21010, "pitch": 66, "duration": 43, "velocity": 77}, {"time": 21119, "pitch": 78, "duration": 77, "velocity": 75}, {"time": 21249, "pitch": 66, "duration": 43, "velocity": 74}, {"time": 21359, "pitch": 78, "duration": 73, "velocity": 69}, {"time": 21488, "pitch": 66, "duration": 56, "velocity": 77}, {"time": 21598, "pitch": 78, "duration": 65, "velocity": 58}, {"time": 21728, "pitch": 66, "duration": 45, "velocity": 72}, {"time": 21838, "pitch": 78, "duration": 79, "velocity": 67}, {"time": 21967, "pitch": 66, "duration": 44, "velocity": 77}, {"time": 22077, "pitch": 78, "duration": 82, "velocity": 69}, {"time": 22209, "pitch": 66, "duration": 46, "velocity": 82}, {"time": 22321, "pitch": 78, "duration": 97, "velocity": 85}, {"time": 22453, "pitch": 66, "duration": 51, "velocity": 75}, {"time": 22564, "pitch": 78, "duration": 65, "velocity": 57}, {"time": 22694, "pitch": 66, "duration": 63, "velocity": 75}, {"time": 22804, "pitch": 78, "duration": 79, "velocity": 67}, {"time": 23043, "pitch": 78, "duration": 83, "velocity": 80}, {"time": 23173, "pitch": 66, "duration": 39, "velocity": 67}, {"time": 23282, "pitch": 78, "duration": 77, "velocity": 65}, {"time": 23412, "pitch": 66, "duration": 42, "velocity": 60}, {"time": 23523, "pitch": 78, "duration": 59, "velocity": 77}, {"time": 23651, "pitch": 66, "duration": 38, "velocity": 68}, {"time": 23761, "pitch": 78, "duration": 66, "velocity": 71}, {"time": 23890, "pitch": 66, "duration": 45, "velocity": 60}, {"time": 24000, "pitch": 78, "duration": 44, "velocity": 77}, {"time": 24130, "pitch": 66, "duration": 39, "velocity": 77}, {"time": 24239, "pitch": 78, "duration": 82, "velocity": 91}, {"time": 24369, "pitch": 66, "duration": 35, "velocity": 80}, {"time": 24479, "pitch": 78, "duration": 57, "velocity": 73}, {"time": 24608, "pitch": 66, "duration": 39, "velocity": 69}, {"time": 24719, "pitch": 78, "duration": 50, "velocity": 67}, {"time": 24848, "pitch": 66, "duration": 42, "velocity": 66}, {"time": 24958, "pitch": 78, "duration": 59, "velocity": 72}, {"time": 25089, "pitch": 66, "duration": 36, "velocity": 77}, {"time": 25201, "pitch": 78, "duration": 86, "velocity": 66}, {"time": 25334, "pitch": 66, "duration": 41, "velocity": 83}, {"time": 25445, "pitch": 78, "duration": 89, "velocity": 70}, {"time": 25575, "pitch": 66, "duration": 35, "velocity": 79}, {"time": 25685, "pitch": 78, "duration": 76, "velocity": 63}, {"time": 25814, "pitch": 66, "duration": 40, "velocity": 72}, {"time": 25924, "pitch": 78, "duration": 79, "velocity": 67}, {"time": 26053, "pitch": 66, "duration": 54, "velocity": 81}, {"time": 26163, "pitch": 78, "duration": 86, "velocity": 94}, {"time": 26293, "pitch": 66, "duration": 37, "velocity": 81}, {"time": 26402, "pitch": 78, "duration": 72, "velocity": 64}, {"time": 26532, "pitch": 66, "duration": 40, "velocity": 72}, {"time": 26642, "pitch": 78, "duration": 70, "velocity": 70}, {"time": 26771, "pitch": 66, "duration": 43, "velocity": 73}, {"time": 26881, "pitch": 78, "duration": 75, "velocity": 74}, {"time": 27011, "pitch": 66, "duration": 42, "velocity": 61}, {"time": 27120, "pitch": 78, "duration": 83, "velocity": 73}, {"time": 27250, "pitch": 66, "duration": 41, "velocity": 77}, {"time": 27360, "pitch": 78, "duration": 98, "velocity": 73}, {"time": 27489, "pitch": 66, "duration": 43, "velocity": 77}, {"time": 27599, "pitch": 78, "duration": 92, "velocity": 67}, {"time": 27728, "pitch": 66, "duration": 54, "velocity": 79}, {"time": 27838, "pitch": 78, "duration": 53, "velocity": 75}, {"time": 27968, "pitch": 66, "duration": 44, "velocity": 83}, {"time": 28077, "pitch": 78, "duration": 77, "velocity": 102}, {"time": 28207, "pitch": 66, "duration": 42, "velocity": 66}, {"time": 28317, "pitch": 78, "duration": 85, "velocity": 67}, {"time": 28449, "pitch": 66, "duration": 40, "velocity": 77}, {"time": 28561, "pitch": 78, "duration": 78, "velocity": 75}, {"time": 28693, "pitch": 66, "duration": 42, "velocity": 76}, {"time": 28805, "pitch": 78, "duration": 91, "velocity": 72}, {"time": 28934, "pitch": 66, "duration": 45, "velocity": 79}, {"time": 29044, "pitch": 78, "duration": 85, "velocity": 68}, {"time": 29174, "pitch": 66, "duration": 42, "velocity": 73}, {"time": 29283, "pitch": 78, "duration": 78, "velocity": 76}, {"time": 29413, "pitch": 66, "duration": 39, "velocity": 72}, {"time": 29523, "pitch": 78, "duration": 89, "velocity": 68}, {"time": 29652, "pitch": 66, "duration": 44, "velocity": 83}, {"time": 29762, "pitch": 78, "duration": 68, "velocity": 81}, {"time": 29891, "pitch": 66, "duration": 56, "velocity": 83}, {"time": 30001, "pitch": 78, "duration": 81, "velocity": 100}, {"time": 30131, "pitch": 66, "duration": 36, "velocity": 83}, {"time": 30240, "pitch": 78, "duration": 64, "velocity": 70}, {"time": 30370, "pitch": 66, "duration": 40, "velocity": 77}, {"time": 30480, "pitch": 78, "duration": 48, "velocity": 79}, {"time": 30609, "pitch": 66, "duration": 41, "velocity": 67}, {"time": 30719, "pitch": 78, "duration": 72, "velocity": 77}, {"time": 30848, "pitch": 66, "duration": 41, "velocity": 72}, {"time": 30958, "pitch": 78, "duration": 50, "velocity": 67}, {"time": 31088, "pitch": 66, "duration": 36, "velocity": 83}, {"time": 31198, "pitch": 78, "duration": 61, "velocity": 83}, {"time": 31330, "pitch": 66, "duration": 37, "velocity": 81}, {"time": 31441, "pitch": 78, "duration": 90, "velocity": 71}, {"time": 31574, "pitch": 66, "duration": 43, "velocity": 74}, {"time": 31685, "pitch": 78, "duration": 58, "velocity": 79}, {"time": 31815, "pitch": 66, "duration": 49, "velocity": 82}, {"time": 31925, "pitch": 78, "duration": 80, "velocity": 96}, {"time": 32054, "pitch": 66, "duration": 38, "velocity": 79}, {"time": 32164, "pitch": 78, "duration": 63, "velocity": 72}, {"time": 32294, "pitch": 66, "duration": 39, "velocity": 81}, {"time": 32404, "pitch": 78, "duration": 73, "velocity": 73}, {"time": 32533, "pitch": 66, "duration": 52, "velocity": 64}, {"time": 32644, "pitch": 78, "duration": 80, "velocity": 77}, {"time": 32772, "pitch": 66, "duration": 41, "velocity": 75}, {"time": 32882, "pitch": 78, "duration": 62, "velocity": 75}, {"time": 33011, "pitch": 66, "duration": 67, "velocity": 73}, {"time": 33121, "pitch": 78, "duration": 69, "velocity": 72}, {"time": 33251, "pitch": 66, "duration": 38, "velocity": 80}, {"time": 33360, "pitch": 78, "duration": 68, "velocity": 70}, {"time": 33490, "pitch": 66, "duration": 40, "velocity": 70}, {"time": 33600, "pitch": 78, "duration": 55, "velocity": 76}, {"time": 33729, "pitch": 66, "duration": 39, "velocity": 83}, {"time": 33839, "pitch": 78, "duration": 78, "velocity": 96}, {"time": 33969, "pitch": 66, "duration": 38, "velocity": 80}, {"time": 34078, "pitch": 78, "duration": 64, "velocity": 72}, {"time": 34208, "pitch": 66, "duration": 44, "velocity": 73}, {"time": 34318, "pitch": 78, "duration": 58, "velocity": 77}, {"time": 34447, "pitch": 66, "duration": 39, "velocity": 82}, {"time": 34557, "pitch": 78, "duration": 62, "velocity": 81}, {"time": 34689, "pitch": 66, "duration": 40, "velocity": 79}, {"time": 34801, "pitch": 78, "duration": 65, "velocity": 76}, {"time": 34933, "pitch": 66, "duration": 43, "velocity": 83}, {"time": 35045, "pitch": 78, "duration": 54, "velocity": 77}, {"time": 35174, "pitch": 66, "duration": 38, "velocity": 75}, {"time": 35284, "pitch": 78, "duration": 64, "velocity": 70}, {"time": 35414, "pitch": 66, "duration": 41, "velocity": 85}, {"time": 35523, "pitch": 78, "duration": 44, "velocity": 77}, {"time": 35653, "pitch": 66, "duration": 52, "velocity": 85}, {"time": 35763, "pitch": 78, "duration": 85, "velocity": 92}, {"time": 35892, "pitch": 66, "duration": 33, "velocity": 83}, {"time": 36002, "pitch": 78, "duration": 52, "velocity": 72}, {"time": 36132, "pitch": 66, "duration": 39, "velocity": 72}, {"time": 36241, "pitch": 78, "duration": 45, "velocity": 75}, {"time": 36371, "pitch": 66, "duration": 39, "velocity": 76}, {"time": 36480, "pitch": 78, "duration": 50, "velocity": 82}, {"time": 36610, "pitch": 66, "duration": 40, "velocity": 72}, {"time": 36720, "pitch": 78, "duration": 55, "velocity": 80}, {"time": 36849, "pitch": 66, "duration": 46, "velocity": 83}, {"time": 36959, "pitch": 78, "duration": 77, "velocity": 79}, {"time": 37089, "pitch": 66, "duration": 57, "velocity": 75}, {"time": 37199, "pitch": 78, "duration": 65, "velocity": 77}, {"time": 37328, "pitch": 66, "duration": 43, "velocity": 83}, {"time": 37438, "pitch": 78, "duration": 75, "velocity": 91}, {"time": 37570, "pitch": 66, "duration": 39, "velocity": 77}, {"time": 37682, "pitch": 78, "duration": 67, "velocity": 76}, {"time": 37814, "pitch": 66, "duration": 46, "velocity": 77}, {"time": 37926, "pitch": 78, "duration": 78, "velocity": 68}, {"time": 38055, "pitch": 66, "duration": 58, "velocity": 81}, {"time": 38165, "pitch": 78, "duration": 82, "velocity": 79}, {"time": 38294, "pitch": 66, "duration": 54, "velocity": 85}, {"time": 38404, "pitch": 78, "duration": 82, "velocity": 77}, {"time": 38534, "pitch": 66, "duration": 43, "velocity": 77}, {"time": 38643, "pitch": 78, "duration": 87, "velocity": 70}, {"time": 38773, "pitch": 66, "duration": 78, "velocity": 83}, {"time": 38884, "pitch": 78, "duration": 62, "velocity": 83}, {"time": 39012, "pitch": 66, "duration": 42, "velocity": 75}, {"time": 39122, "pitch": 78, "duration": 71, "velocity": 75}, {"time": 39252, "pitch": 66, "duration": 46, "velocity": 77}, {"time": 39361, "pitch": 78, "duration": 80, "velocity": 81}, {"time": 39491, "pitch": 66, "duration": 72, "velocity": 87}, {"time": 39601, "pitch": 78, "duration": 82, "velocity": 94}, {"time": 39840, "pitch": 66, "duration": 41, "velocity": 83}, {"time": 39840, "pitch": 78, "duration": 89, "velocity": 67}, {"time": 39969, "pitch": 66, "duration": 44, "velocity": 77}, {"time": 40080, "pitch": 78, "duration": 56, "velocity": 67}, {"time": 40209, "pitch": 66, "duration": 45, "velocity": 75}, {"time": 40319, "pitch": 78, "duration": 85, "velocity": 77}, {"time": 40448, "pitch": 66, "duration": 46, "velocity": 77}, {"time": 40558, "pitch": 78, "duration": 87, "velocity": 68}, {"time": 40687, "pitch": 66, "duration": 46, "velocity": 83}, {"time": 40797, "pitch": 78, "duration": 85, "velocity": 76}, {"time": 40929, "pitch": 66, "duration": 59, "velocity": 82}, {"time": 41041, "pitch": 78, "duration": 84, "velocity": 80}, {"time": 41173, "pitch": 66, "duration": 58, "velocity": 77}, {"time": 41285, "pitch": 78, "duration": 83, "velocity": 77}, {"time": 41415, "pitch": 66, "duration": 52, "velocity": 85}, {"time": 41524, "pitch": 78, "duration": 83, "velocity": 88}, {"time": 41654, "pitch": 66, "duration": 39, "velocity": 81}, {"time": 41764, "pitch": 78, "duration": 79, "velocity": 67}, {"time": 41893, "pitch": 66, "duration": 42, "velocity": 77}, {"time": 42003, "pitch": 78, "duration": 86, "velocity": 72}, {"time": 42132, "pitch": 66, "duration": 46, "velocity": 83}, {"time": 42242, "pitch": 78, "duration": 87, "velocity": 80}, {"time": 42372, "pitch": 66, "duration": 42, "velocity": 74}, {"time": 42481, "pitch": 78, "duration": 77, "velocity": 75}, {"time": 42611, "pitch": 66, "duration": 46, "velocity": 75}, {"time": 42721, "pitch": 78, "duration": 75, "velocity": 80}, {"time": 42850, "pitch": 66, "duration": 42, "velocity": 80}, {"time": 42960, "pitch": 78, "duration": 90, "velocity": 69}, {"time": 43090, "pitch": 66, "duration": 44, "velocity": 81}, {"time": 43199, "pitch": 78, "duration": 92, "velocity": 80}, {"time": 43329, "pitch": 66, "duration": 83, "velocity": 91}, {"time": 43438, "pitch": 78, "duration": 89, "velocity": 92}, {"time": 43568, "pitch": 66, "duration": 37, "velocity": 79}, {"time": 43678, "pitch": 78, "duration": 86, "velocity": 66}, {"time": 43807, "pitch": 66, "duration": 40, "velocity": 84}, {"time": 43917, "pitch": 78, "duration": 61, "velocity": 76}, {"time": 44047, "pitch": 66, "duration": 39, "velocity": 75}, {"time": 44156, "pitch": 78, "duration": 73, "velocity": 80}, {"time": 44288, "pitch": 66, "duration": 38, "velocity": 80}, {"time": 44400, "pitch": 78, "duration": 43, "velocity": 79}, {"time": 44533, "pitch": 66, "duration": 40, "velocity": 75}, {"time": 44644, "pitch": 78, "duration": 66, "velocity": 83}, {"time": 44774, "pitch": 66, "duration": 48, "velocity": 85}, {"time": 44885, "pitch": 78, "duration": 71, "velocity": 79}, {"time": 45013, "pitch": 66, "duration": 37, "velocity": 76}, {"time": 45123, "pitch": 78, "duration": 86, "velocity": 74}, {"time": 45252, "pitch": 66, "duration": 53, "velocity": 85}, {"time": 45362, "pitch": 78, "duration": 87, "velocity": 92}, {"time": 45492, "pitch": 66, "duration": 39, "velocity": 75}, {"time": 45601, "pitch": 78, "duration": 55, "velocity": 77}, {"time": 45731, "pitch": 66, "duration": 37, "velocity": 83}, {"time": 45841, "pitch": 78, "duration": 60, "velocity": 80}, {"time": 45970, "pitch": 66, "duration": 37, "velocity": 80}, {"time": 46080, "pitch": 78, "duration": 79, "velocity": 85}, {"time": 46210, "pitch": 66, "duration": 36, "velocity": 74}, {"time": 46319, "pitch": 78, "duration": 81, "velocity": 81}, {"time": 46449, "pitch": 66, "duration": 33, "velocity": 77}, {"time": 46798, "pitch": 66, "duration": 82, "velocity": 91}, {"time": 46798, "pitch": 78, "duration": 77, "velocity": 88}, {"time": 46927, "pitch": 66, "duration": 77, "velocity": 72}, {"time": 47413, "pitch": 66, "duration": 97, "velocity": 87}, {"time": 47525, "pitch": 78, "duration": 89, "velocity": 88}, {"time": 47655, "pitch": 66, "duration": 95, "velocity": 68}, {"time": 47765, "pitch": 78, "duration": 85, "velocity": 91}, {"time": 47894, "pitch": 66, "duration": 87, "velocity": 81}, {"time": 48612, "pitch": 66, "duration": 82, "velocity": 88}, {"time": 48721, "pitch": 78, "duration": 77, "velocity": 88}, {"time": 48851, "pitch": 66, "duration": 98, "velocity": 81}, {"time": 49330, "pitch": 66, "duration": 88, "velocity": 83}, {"time": 49439, "pitch": 78, "duration": 85, "velocity": 88}, {"time": 49569, "pitch": 66, "duration": 83, "velocity": 60}, {"time": 49679, "pitch": 78, "duration": 81, "velocity": 91}, {"time": 49808, "pitch": 66, "duration": 70, "velocity": 75}, {"time": 50529, "pitch": 65, "duration": 72, "velocity": 83}, {"time": 50640, "pitch": 77, "duration": 89, "velocity": 94}, {"time": 50773, "pitch": 65, "duration": 77, "velocity": 74}, {"time": 51253, "pitch": 66, "duration": 88, "velocity": 89}, {"time": 51363, "pitch": 80, "duration": 78, "velocity": 91}, {"time": 51493, "pitch": 68, "duration": 93, "velocity": 75}, {"time": 51602, "pitch": 80, "duration": 75, "velocity": 86}, {"time": 51732, "pitch": 68, "duration": 46, "velocity": 72}, {"time": 52450, "pitch": 66, "duration": 83, "velocity": 91}, {"time": 52560, "pitch": 78, "duration": 79, "velocity": 91}, {"time": 52689, "pitch": 66, "duration": 86, "velocity": 77}, {"time": 53168, "pitch": 66, "duration": 100, "velocity": 85}, {"time": 53277, "pitch": 78, "duration": 100, "velocity": 91}, {"time": 53409, "pitch": 66, "duration": 95, "velocity": 80}, {"time": 53521, "pitch": 78, "duration": 40, "velocity": 86}, {"time": 53653, "pitch": 66, "duration": 108, "velocity": 82}, {"time": 54483, "pitch": 66, "duration": 82, "velocity": 91}, {"time": 54483, "pitch": 78, "duration": 77, "velocity": 88}, {"time": 54613, "pitch": 66, "duration": 76, "velocity": 72}, {"time": 55091, "pitch": 66, "duration": 95, "velocity": 87}, {"time": 55201, "pitch": 78, "duration": 89, "velocity": 88}, {"time": 55331, "pitch": 66, "duration": 95, "velocity": 68}, {"time": 55441, "pitch": 78, "duration": 85, "velocity": 91}, {"time": 55570, "pitch": 66, "duration": 87, "velocity": 81}, {"time": 56397, "pitch": 66, "duration": 82, "velocity": 91}, {"time": 56397, "pitch": 78, "duration": 77, "velocity": 88}, {"time": 56527, "pitch": 66, "duration": 77, "velocity": 72}, {"time": 57013, "pitch": 66, "duration": 96, "velocity": 87}, {"time": 57125, "pitch": 78, "duration": 88, "velocity": 88}, {"time": 57254, "pitch": 66, "duration": 96, "velocity": 68}, {"time": 57365, "pitch": 78, "duration": 85, "velocity": 91}, {"time": 57493, "pitch": 66, "duration": 87, "velocity": 81}, {"time": 58321, "pitch": 66, "duration": 82, "velocity": 91}, {"time": 58321, "pitch": 78, "duration": 77, "velocity": 88}, {"time": 58451, "pitch": 66, "duration": 76, "velocity": 72}, {"time": 58929, "pitch": 66, "duration": 95, "velocity": 87}, {"time": 59039, "pitch": 78, "duration": 89, "velocity": 88}, {"time": 59168, "pitch": 66, "duration": 96, "velocity": 68}, {"time": 59279, "pitch": 78, "duration": 85, "velocity": 91}, {"time": 59408, "pitch": 66, "duration": 86, "velocity": 81}, {"time": 60245, "pitch": 68, "duration": 81, "velocity": 91}, {"time": 60245, "pitch": 80, "duration": 76, "velocity": 88}, {"time": 60374, "pitch": 68, "duration": 77, "velocity": 72}, {"time": 60853, "pitch": 68, "duration": 95, "velocity": 87}, {"time": 61921, "pitch": 78, "duration": 86, "velocity": 77}, {"time": 62049, "pitch": 66, "duration": 78, "velocity": 60}, {"time": 62159, "pitch": 78, "duration": 71, "velocity": 53}, {"time": 62289, "pitch": 66, "duration": 53, "velocity": 56}, {"time": 62398, "pitch": 78, "duration": 89, "velocity": 64}, {"time": 62528, "pitch": 66, "duration": 65, "velocity": 67}, {"time": 62637, "pitch": 78, "duration": 91, "velocity": 80}, {"time": 62877, "pitch": 66, "duration": 58, "velocity": 70}, {"time": 62877, "pitch": 78, "duration": 80, "velocity": 58}, {"time": 63009, "pitch": 66, "duration": 65, "velocity": 58}, {"time": 63122, "pitch": 78, "duration": 94, "velocity": 63}, {"time": 63253, "pitch": 66, "duration": 63, "velocity": 60}, {"time": 63366, "pitch": 78, "duration": 70, "velocity": 64}, {"time": 63494, "pitch": 66, "duration": 85, "velocity": 61}, {"time": 63604, "pitch": 78, "duration": 72, "velocity": 60}, {"time": 63734, "pitch": 66, "duration": 75, "velocity": 70}, {"time": 63843, "pitch": 78, "duration": 56, "velocity": 72}, {"time": 63973, "pitch": 66, "duration": 51, "velocity": 70}, {"time": 64083, "pitch": 78, "duration": 60, "velocity": 67}, {"time": 64212, "pitch": 66, "duration": 44, "velocity": 72}, {"time": 64322, "pitch": 78, "duration": 55, "velocity": 72}, {"time": 64451, "pitch": 66, "duration": 45, "velocity": 74}, {"time": 64561, "pitch": 78, "duration": 58, "velocity": 72}, {"time": 64691, "pitch": 66, "duration": 46, "velocity": 76}, {"time": 64800, "pitch": 78, "duration": 52, "velocity": 70}, {"time": 64930, "pitch": 66, "duration": 52, "velocity": 76}, {"time": 65040, "pitch": 78, "duration": 62, "velocity": 77}, {"time": 65169, "pitch": 66, "duration": 66, "velocity": 83}, {"time": 65279, "pitch": 78, "duration": 91, "velocity": 71}, {"time": 65409, "pitch": 66, "duration": 55, "velocity": 85}, {"time": 65518, "pitch": 78, "duration": 67, "velocity": 67}, {"time": 65648, "pitch": 66, "duration": 41, "velocity": 67}, {"time": 65758, "pitch": 78, "duration": 71, "velocity": 68}, {"time": 65890, "pitch": 66, "duration": 44, "velocity": 79}, {"time": 66002, "pitch": 78, "duration": 66, "velocity": 68}, {"time": 66134, "pitch": 66, "duration": 39, "velocity": 83}, {"time": 66246, "pitch": 78, "duration": 53, "velocity": 73}, {"time": 66375, "pitch": 66, "duration": 39, "velocity": 79}, {"time": 66485, "pitch": 78, "duration": 81, "velocity": 79}, {"time": 66614, "pitch": 66, "duration": 41, "velocity": 83}, {"time": 66724, "pitch": 78, "duration": 49, "velocity": 79}, {"time": 66854, "pitch": 66, "duration": 38, "velocity": 72}, {"time": 66963, "pitch": 78, "duration": 61, "velocity": 68}, {"time": 67093, "pitch": 66, "duration": 43, "velocity": 56}, {"time": 67203, "pitch": 78, "duration": 62, "velocity": 68}, {"time": 67332, "pitch": 66, "duration": 41, "velocity": 81}, {"time": 67442, "pitch": 78, "duration": 49, "velocity": 69}, {"time": 67572, "pitch": 66, "duration": 37, "velocity": 70}, {"time": 67681, "pitch": 78, "duration": 88, "velocity": 76}, {"time": 67811, "pitch": 66, "duration": 38, "velocity": 71}, {"time": 67922, "pitch": 78, "duration": 55, "velocity": 61}, {"time": 68050, "pitch": 66, "duration": 48, "velocity": 74}, {"time": 68160, "pitch": 78, "duration": 77, "velocity": 77}, {"time": 68289, "pitch": 66, "duration": 41, "velocity": 73}, {"time": 68399, "pitch": 78, "duration": 76, "velocity": 80}, {"time": 68529, "pitch": 66, "duration": 48, "velocity": 80}, {"time": 68638, "pitch": 78, "duration": 70, "velocity": 79}, {"time": 68768, "pitch": 66, "duration": 41, "velocity": 74}, {"time": 68878, "pitch": 78, "duration": 82, "velocity": 85}, {"time": 69007, "pitch": 66, "duration": 41, "velocity": 86}, {"time": 69117, "pitch": 78, "duration": 74, "velocity": 92}, {"time": 69249, "pitch": 66, "duration": 38, "velocity": 82}, {"time": 69361, "pitch": 78, "duration": 53, "velocity": 91}, {"time": 69606, "pitch": 66, "duration": 40, "velocity": 69}, {"time": 69606, "pitch": 78, "duration": 45, "velocity": 67}, {"time": 69844, "pitch": 66, "duration": 41, "velocity": 74}, {"time": 69974, "pitch": 78, "duration": 52, "velocity": 70}, {"time": 70083, "pitch": 66, "duration": 42, "velocity": 82}, {"time": 70213, "pitch": 78, "duration": 52, "velocity": 76}, {"time": 70323, "pitch": 66, "duration": 48, "velocity": 77}, {"time": 70452, "pitch": 78, "duration": 72, "velocity": 82}, {"time": 70562, "pitch": 66, "duration": 43, "velocity": 84}, {"time": 70692, "pitch": 78, "duration": 49, "velocity": 66}, {"time": 70802, "pitch": 66, "duration": 43, "velocity": 76}, {"time": 70931, "pitch": 78, "duration": 50, "velocity": 75}, {"time": 71042, "pitch": 66, "duration": 40, "velocity": 80}, {"time": 71170, "pitch": 78, "duration": 70, "velocity": 83}, {"time": 71280, "pitch": 66, "duration": 44, "velocity": 76}, {"time": 71409, "pitch": 78, "duration": 60, "velocity": 75}, {"time": 71519, "pitch": 66, "duration": 40, "velocity": 79}, {"time": 71758, "pitch": 66, "duration": 45, "velocity": 73}, {"time": 71888, "pitch": 78, "duration": 44, "velocity": 77}, {"time": 71998, "pitch": 66, "duration": 44, "velocity": 77}, {"time": 72130, "pitch": 78, "duration": 84, "velocity": 83}, {"time": 72242, "pitch": 66, "duration": 38, "velocity": 80}, {"time": 72374, "pitch": 78, "duration": 64, "velocity": 56}, {"time": 72486, "pitch": 66, "duration": 47, "velocity": 56}, {"time": 72615, "pitch": 78, "duration": 57, "velocity": 61}, {"time": 72855, "pitch": 66, "duration": 42, "velocity": 64}, {"time": 72855, "pitch": 78, "duration": 83, "velocity": 67}, {"time": 72964, "pitch": 66, "duration": 42, "velocity": 68}, {"time": 73094, "pitch": 78, "duration": 65, "velocity": 60}, {"time": 73204, "pitch": 66, "duration": 42, "velocity": 69}, {"time": 73333, "pitch": 78, "duration": 79, "velocity": 66}, {"time": 73443, "pitch": 66, "duration": 55, "velocity": 74}, {"time": 73572, "pitch": 78, "duration": 81, "velocity": 69}, {"time": 73682, "pitch": 66, "duration": 51, "velocity": 61}, {"time": 73812, "pitch": 78, "duration": 73, "velocity": 66}, {"time": 73921, "pitch": 66, "duration": 84, "velocity": 80}, {"time": 74051, "pitch": 78, "duration": 90, "velocity": 88}, {"time": 74161, "pitch": 66, "duration": 42, "velocity": 80}, {"time": 74400, "pitch": 78, "duration": 58, "velocity": 56}, {"time": 74530, "pitch": 66, "duration": 47, "velocity": 74}, {"time": 74639, "pitch": 78, "duration": 52, "velocity": 71}, {"time": 74769, "pitch": 66, "duration": 46, "velocity": 60}, {"time": 74879, "pitch": 78, "duration": 66, "velocity": 76}, {"time": 75008, "pitch": 66, "duration": 48, "velocity": 67}, {"time": 75118, "pitch": 78, "duration": 80, "velocity": 81}, {"time": 75247, "pitch": 66, "duration": 45, "velocity": 77}, {"time": 75357, "pitch": 78, "duration": 65, "velocity": 66}, {"time": 75489, "pitch": 66, "duration": 42, "velocity": 62}, {"time": 75602, "pitch": 78, "duration": 60, "velocity": 75}, {"time": 75733, "pitch": 66, "duration": 42, "velocity": 74}, {"time": 75845, "pitch": 78, "duration": 85, "velocity": 77}, {"time": 75975, "pitch": 66, "duration": 37, "velocity": 77}, {"time": 76084, "pitch": 78, "duration": 90, "velocity": 88}, {"time": 76214, "pitch": 66, "duration": 46, "velocity": 58}, {"time": 76324, "pitch": 78, "duration": 59, "velocity": 66}, {"time": 76453, "pitch": 66, "duration": 41, "velocity": 75}, {"time": 76563, "pitch": 78, "duration": 91, "velocity": 91}, {"time": 76802, "pitch": 66, "duration": 41, "velocity": 74}, {"time": 76802, "pitch": 78, "duration": 60, "velocity": 74}, {"time": 77041, "pitch": 66, "duration": 39, "velocity": 71}, {"time": 77041, "pitch": 78, "duration": 48, "velocity": 70}, {"time": 77171, "pitch": 66, "duration": 39, "velocity": 73}, {"time": 84958, "pitch": 78, "duration": 61, "velocity": 71}, {"time": 85201, "pitch": 66, "duration": 44, "velocity": 55}, {"time": 85201, "pitch": 78, "duration": 56, "velocity": 65}, {"time": 85333, "pitch": 66, "duration": 53, "velocity": 73}, {"time": 85445, "pitch": 78, "duration": 50, "velocity": 79}, {"time": 85574, "pitch": 66, "duration": 42, "velocity": 73}, {"time": 85684, "pitch": 78, "duration": 83, "velocity": 88}, {"time": 85813, "pitch": 66, "duration": 48, "velocity": 71}, {"time": 85923, "pitch": 78, "duration": 90, "velocity": 61}, {"time": 86053, "pitch": 66, "duration": 42, "velocity": 75}, {"time": 86163, "pitch": 78, "duration": 60, "velocity": 66}, {"time": 86292, "pitch": 66, "duration": 47, "velocity": 75}, {"time": 86403, "pitch": 78, "duration": 86, "velocity": 66}, {"time": 86531, "pitch": 66, "duration": 46, "velocity": 67}, {"time": 86641, "pitch": 78, "duration": 77, "velocity": 63}, {"time": 86771, "pitch": 66, "duration": 40, "velocity": 64}, {"time": 86880, "pitch": 78, "duration": 79, "velocity": 68}, {"time": 87010, "pitch": 66, "duration": 41, "velocity": 67}, {"time": 87120, "pitch": 78, "duration": 54, "velocity": 69}, {"time": 87249, "pitch": 66, "duration": 50, "velocity": 72}, {"time": 87359, "pitch": 78, "duration": 71, "velocity": 77}, {"time": 87488, "pitch": 66, "duration": 75, "velocity": 81}, {"time": 87598, "pitch": 78, "duration": 83, "velocity": 94}, {"time": 87728, "pitch": 66, "duration": 42, "velocity": 73}, {"time": 87837, "pitch": 78, "duration": 83, "velocity": 63}, {"time": 87970, "pitch": 66, "duration": 52, "velocity": 74}, {"time": 88081, "pitch": 78, "duration": 93, "velocity": 69}, {"time": 88214, "pitch": 66, "duration": 55, "velocity": 73}, {"time": 88325, "pitch": 78, "duration": 80, "velocity": 67}, {"time": 88455, "pitch": 66, "duration": 46, "velocity": 77}, {"time": 88565, "pitch": 78, "duration": 49, "velocity": 64}, {"time": 88694, "pitch": 66, "duration": 51, "velocity": 65}, {"time": 88804, "pitch": 78, "duration": 79, "velocity": 71}, {"time": 88934, "pitch": 66, "duration": 36, "velocity": 72}, {"time": 89043, "pitch": 78, "duration": 57, "velocity": 62}, {"time": 89173, "pitch": 66, "duration": 42, "velocity": 74}, {"time": 89282, "pitch": 78, "duration": 44, "velocity": 66}, {"time": 89412, "pitch": 66, "duration": 47, "velocity": 83}, {"time": 89522, "pitch": 78, "duration": 81, "velocity": 98}, {"time": 89651, "pitch": 66, "duration": 39, "velocity": 75}, {"time": 89761, "pitch": 78, "duration": 51, "velocity": 59}, {"time": 89891, "pitch": 66, "duration": 39, "velocity": 62}, {"time": 90000, "pitch": 78, "duration": 81, "velocity": 56}, {"time": 90130, "pitch": 66, "duration": 43, "velocity": 77}, {"time": 90240, "pitch": 78, "duration": 76, "velocity": 75}, {"time": 90369, "pitch": 66, "duration": 43, "velocity": 74}, {"time": 90479, "pitch": 78, "duration": 74, "velocity": 69}, {"time": 90609, "pitch": 66, "duration": 55, "velocity": 77}, {"time": 90718, "pitch": 78, "duration": 65, "velocity": 58}, {"time": 90848, "pitch": 66, "duration": 46, "velocity": 72}, {"time": 90958, "pitch": 78, "duration": 79, "velocity": 67}, {"time": 91087, "pitch": 66, "duration": 44, "velocity": 77}, {"time": 91197, "pitch": 78, "duration": 82, "velocity": 69}, {"time": 91329, "pitch": 66, "duration": 47, "velocity": 82}, {"time": 91441, "pitch": 78, "duration": 97, "velocity": 85}, {"time": 91573, "pitch": 66, "duration": 51, "velocity": 75}, {"time": 91685, "pitch": 78, "duration": 65, "velocity": 57}, {"time": 91814, "pitch": 66, "duration": 63, "velocity": 75}, {"time": 91924, "pitch": 78, "duration": 79, "velocity": 67}, {"time": 92163, "pitch": 78, "duration": 83, "velocity": 80}, {"time": 92293, "pitch": 66, "duration": 39, "velocity": 67}, {"time": 92403, "pitch": 78, "duration": 76, "velocity": 65}, {"time": 92532, "pitch": 66, "duration": 42, "velocity": 60}, {"time": 92643, "pitch": 78, "duration": 60, "velocity": 77}, {"time": 92771, "pitch": 66, "duration": 38, "velocity": 68}, {"time": 92881, "pitch": 78, "duration": 66, "velocity": 71}, {"time": 93011, "pitch": 66, "duration": 45, "velocity": 60}, {"time": 93120, "pitch": 78, "duration": 44, "velocity": 77}, {"time": 93250, "pitch": 66, "duration": 39, "velocity": 77}, {"time": 93360, "pitch": 78, "duration": 81, "velocity": 91}, {"time": 93489, "pitch": 66, "duration": 35, "velocity": 80}, {"time": 93599, "pitch": 78, "duration": 57, "velocity": 73}, {"time": 93729, "pitch": 66, "duration": 38, "velocity": 69}, {"time": 93839, "pitch": 78, "duration": 50, "velocity": 67}, {"time": 93968, "pitch": 66, "duration": 43, "velocity": 66}, {"time": 94079, "pitch": 78, "duration": 58, "velocity": 72}, {"time": 94210, "pitch": 66, "duration": 35, "velocity": 77}, {"time": 94322, "pitch": 78, "duration": 85, "velocity": 66}, {"time": 94454, "pitch": 66, "duration": 41, "velocity": 83}, {"time": 94566, "pitch": 78, "duration": 88, "velocity": 70}, {"time": 94695, "pitch": 66, "duration": 35, "velocity": 79}, {"time": 94805, "pitch": 78, "duration": 77, "velocity": 63}, {"time": 94934, "pitch": 66, "duration": 40, "velocity": 72}, {"time": 95044, "pitch": 78, "duration": 79, "velocity": 67}, {"time": 95174, "pitch": 66, "duration": 54, "velocity": 81}, {"time": 95283, "pitch": 78, "duration": 86, "velocity": 94}, {"time": 95413, "pitch": 66, "duration": 37, "velocity": 81}, {"time": 95523, "pitch": 78, "duration": 71, "velocity": 64}, {"time": 95652, "pitch": 66, "duration": 40, "velocity": 72}, {"time": 95762, "pitch": 78, "duration": 71, "velocity": 70}, {"time": 95892, "pitch": 66, "duration": 42, "velocity": 73}, {"time": 96001, "pitch": 78, "duration": 75, "velocity": 74}, {"time": 96131, "pitch": 66, "duration": 43, "velocity": 61}, {"time": 96240, "pitch": 78, "duration": 83, "velocity": 73}, {"time": 96370, "pitch": 66, "duration": 41, "velocity": 77}, {"time": 96480, "pitch": 78, "duration": 98, "velocity": 73}, {"time": 96609, "pitch": 66, "duration": 43, "velocity": 77}, {"time": 96719, "pitch": 78, "duration": 92, "velocity": 67}, {"time": 96849, "pitch": 66, "duration": 54, "velocity": 79}, {"time": 96958, "pitch": 78, "duration": 53, "velocity": 75}, {"time": 97088, "pitch": 66, "duration": 44, "velocity": 83}, {"time": 97198, "pitch": 78, "duration": 76, "velocity": 102}, {"time": 97327, "pitch": 66, "duration": 42, "velocity": 66}, {"time": 97437, "pitch": 78, "duration": 85, "velocity": 67}, {"time": 97569, "pitch": 66, "duration": 41, "velocity": 77}, {"time": 97681, "pitch": 78, "duration": 78, "velocity": 75}, {"time": 97813, "pitch": 66, "duration": 42, "velocity": 76}, {"time": 97925, "pitch": 78, "duration": 92, "velocity": 72}, {"time": 98054, "pitch": 66, "duration": 45, "velocity": 79}, {"time": 98164, "pitch": 78, "duration": 85, "velocity": 68}, {"time": 98294, "pitch": 66, "duration": 43, "velocity": 73}, {"time": 98403, "pitch": 78, "duration": 78, "velocity": 76}, {"time": 98533, "pitch": 66, "duration": 39, "velocity": 72}, {"time": 98644, "pitch": 78, "duration": 88, "velocity": 68}, {"time": 98772, "pitch": 66, "duration": 44, "velocity": 83}, {"time": 98882, "pitch": 78, "duration": 68, "velocity": 81}, {"time": 99012, "pitch": 66, "duration": 55, "velocity": 83}, {"time": 99121, "pitch": 78, "duration": 81, "velocity": 100}, {"time": 99251, "pitch": 66, "duration": 36, "velocity": 83}, {"time": 99361, "pitch": 78, "duration": 63, "velocity": 70}, {"time": 99490, "pitch": 66, "duration": 40, "velocity": 77}, {"time": 99600, "pitch": 78, "duration": 49, "velocity": 79}, {"time": 99729, "pitch": 66, "duration": 41, "velocity": 67}, {"time": 99839, "pitch": 78, "duration": 72, "velocity": 77}, {"time": 99969, "pitch": 66, "duration": 41, "velocity": 72}, {"time": 100078, "pitch": 78, "duration": 50, "velocity": 67}, {"time": 100208, "pitch": 66, "duration": 36, "velocity": 83}, {"time": 100319, "pitch": 78, "duration": 61, "velocity": 83}, {"time": 100450, "pitch": 66, "duration": 37, "velocity": 81}, {"time": 100562, "pitch": 78, "duration": 89, "velocity": 71}, {"time": 100694, "pitch": 66, "duration": 44, "velocity": 74}, {"time": 100806, "pitch": 78, "duration": 57, "velocity": 79}, {"time": 100935, "pitch": 66, "duration": 49, "velocity": 82}, {"time": 101045, "pitch": 78, "duration": 81, "velocity": 96}, {"time": 101175, "pitch": 66, "duration": 37, "velocity": 79}, {"time": 101284, "pitch": 78, "duration": 63, "velocity": 72}, {"time": 101414, "pitch": 66, "duration": 40, "velocity": 81}, {"time": 101525, "pitch": 78, "duration": 72, "velocity": 73}, {"time": 101653, "pitch": 66, "duration": 52, "velocity": 64}, {"time": 101764, "pitch": 78, "duration": 81, "velocity": 77}, {"time": 101892, "pitch": 66, "duration": 41, "velocity": 75}, {"time": 102002, "pitch": 78, "duration": 62, "velocity": 75}, {"time": 102132, "pitch": 66, "duration": 66, "velocity": 73}, {"time": 102241, "pitch": 78, "duration": 69, "velocity": 72}, {"time": 102371, "pitch": 66, "duration": 38, "velocity": 80}, {"time": 102481, "pitch": 78, "duration": 67, "velocity": 70}, {"time": 102610, "pitch": 66, "duration": 40, "velocity": 70}, {"time": 102720, "pitch": 78, "duration": 55, "velocity": 76}, {"time": 102850, "pitch": 66, "duration": 38, "velocity": 83}, {"time": 102959, "pitch": 78, "duration": 78, "velocity": 96}, {"time": 103089, "pitch": 66, "duration": 39, "velocity": 80}, {"time": 103198, "pitch": 78, "duration": 64, "velocity": 72}, {"time": 103328, "pitch": 66, "duration": 44, "velocity": 73}, {"time": 103438, "pitch": 78, "duration": 59, "velocity": 77}, {"time": 103567, "pitch": 66, "duration": 39, "velocity": 82}, {"time": 103677, "pitch": 78, "duration": 62, "velocity": 81}, {"time": 103809, "pitch": 66, "duration": 40, "velocity": 79}, {"time": 103921, "pitch": 78, "duration": 65, "velocity": 76}, {"time": 104053, "pitch": 66, "duration": 43, "velocity": 83}, {"time": 104165, "pitch": 78, "duration": 54, "velocity": 77}, {"time": 104295, "pitch": 66, "duration": 38, "velocity": 75}, {"time": 104404, "pitch": 78, "duration": 64, "velocity": 70}, {"time": 104534, "pitch": 66, "duration": 41, "velocity": 85}, {"time": 104644, "pitch": 78, "duration": 43, "velocity": 77}, {"time": 104773, "pitch": 66, "duration": 52, "velocity": 85}, {"time": 104883, "pitch": 78, "duration": 86, "velocity": 92}, {"time": 105012, "pitch": 66, "duration": 33, "velocity": 83}, {"time": 105122, "pitch": 78, "duration": 52, "velocity": 72}, {"time": 105252, "pitch": 66, "duration": 40, "velocity": 72}, {"time": 105361, "pitch": 78, "duration": 45, "velocity": 75}, {"time": 105491, "pitch": 66, "duration": 39, "velocity": 76}, {"time": 105601, "pitch": 78, "duration": 50, "velocity": 82}, {"time": 105730, "pitch": 66, "duration": 40, "velocity": 72}, {"time": 105840, "pitch": 78, "duration": 55, "velocity": 80}, {"time": 105970, "pitch": 66, "duration": 45, "velocity": 83}, {"time": 106079, "pitch": 78, "duration": 77, "velocity": 79}, {"time": 106209, "pitch": 66, "duration": 58, "velocity": 75}, {"time": 106320, "pitch": 78, "duration": 64, "velocity": 77}, {"time": 106448, "pitch": 66, "duration": 43, "velocity": 83}, {"time": 106558, "pitch": 78, "duration": 74, "velocity": 91}, {"time": 106687, "pitch": 66, "duration": 39, "velocity": 77}, {"time": 106797, "pitch": 78, "duration": 66, "velocity": 76}, {"time": 106927, "pitch": 66, "duration": 45, "velocity": 77}, {"time": 107036, "pitch": 78, "duration": 81, "velocity": 68}, {"time": 107169, "pitch": 66, "duration": 59, "velocity": 81}, {"time": 107280, "pitch": 78, "duration": 84, "velocity": 79}, {"time": 107413, "pitch": 66, "duration": 55, "velocity": 85}, {"time": 107524, "pitch": 78, "duration": 82, "velocity": 77}, {"time": 107654, "pitch": 66, "duration": 43, "velocity": 77}, {"time": 107764, "pitch": 78, "duration": 86, "velocity": 70}, {"time": 107893, "pitch": 66, "duration": 78, "velocity": 83}, {"time": 108004, "pitch": 78, "duration": 62, "velocity": 83}, {"time": 108133, "pitch": 66, "duration": 41, "velocity": 75}, {"time": 108242, "pitch": 78, "duration": 71, "velocity": 75}, {"time": 108372, "pitch": 66, "duration": 47, "velocity": 77}, {"time": 108482, "pitch": 78, "duration": 79, "velocity": 81}, {"time": 108611, "pitch": 66, "duration": 72, "velocity": 87}, {"time": 108721, "pitch": 78, "duration": 83, "velocity": 94}, {"time": 108960, "pitch": 66, "duration": 41, "velocity": 83}, {"time": 108960, "pitch": 78, "duration": 89, "velocity": 67}, {"time": 109090, "pitch": 66, "duration": 44, "velocity": 77}, {"time": 109200, "pitch": 78, "duration": 56, "velocity": 67}, {"time": 109329, "pitch": 66, "duration": 45, "velocity": 75}, {"time": 109440, "pitch": 78, "duration": 84, "velocity": 77}, {"time": 109568, "pitch": 66, "duration": 46, "velocity": 77}, {"time": 109678, "pitch": 78, "duration": 88, "velocity": 68}, {"time": 109808, "pitch": 66, "duration": 45, "velocity": 83}, {"time": 109917, "pitch": 78, "duration": 86, "velocity": 76}, {"time": 110049, "pitch": 66, "duration": 59, "velocity": 82}, {"time": 110161, "pitch": 78, "duration": 85, "velocity": 80}, {"time": 110293, "pitch": 66, "duration": 58, "velocity": 77}, {"time": 110405, "pitch": 78, "duration": 83, "velocity": 77}, {"time": 110535, "pitch": 66, "duration": 53, "velocity": 85}, {"time": 110644, "pitch": 78, "duration": 83, "velocity": 88}, {"time": 110774, "pitch": 66, "duration": 39, "velocity": 81}, {"time": 110884, "pitch": 78, "duration": 80, "velocity": 67}, {"time": 111013, "pitch": 66, "duration": 42, "velocity": 77}, {"time": 111123, "pitch": 78, "duration": 86, "velocity": 72}, {"time": 111253, "pitch": 66, "duration": 45, "velocity": 83}, {"time": 111362, "pitch": 78, "duration": 87, "velocity": 80}, {"time": 111492, "pitch": 66, "duration": 42, "velocity": 74}, {"time": 111602, "pitch": 78, "duration": 76, "velocity": 75}, {"time": 111731, "pitch": 66, "duration": 46, "velocity": 75}, {"time": 111841, "pitch": 78, "duration": 76, "velocity": 80}, {"time": 111970, "pitch": 66, "duration": 42, "velocity": 80}, {"time": 112080, "pitch": 78, "duration": 90, "velocity": 69}, {"time": 112210, "pitch": 66, "duration": 45, "velocity": 81}, {"time": 112319, "pitch": 78, "duration": 92, "velocity": 80}, {"time": 112449, "pitch": 66, "duration": 83, "velocity": 91}, {"time": 112559, "pitch": 78, "duration": 88, "velocity": 92}, {"time": 112688, "pitch": 66, "duration": 37, "velocity": 79}, {"time": 112798, "pitch": 78, "duration": 87, "velocity": 66}, {"time": 112928, "pitch": 66, "duration": 39, "velocity": 84}, {"time": 113037, "pitch": 78, "duration": 61, "velocity": 76}, {"time": 113167, "pitch": 66, "duration": 39, "velocity": 75}, {"time": 113277, "pitch": 78, "duration": 73, "velocity": 80}, {"time": 113409, "pitch": 66, "duration": 37, "velocity": 80}, {"time": 113521, "pitch": 78, "duration": 42, "velocity": 79}, {"time": 113653, "pitch": 66, "duration": 40, "velocity": 75}, {"time": 113765, "pitch": 78, "duration": 65, "velocity": 83}, {"time": 113894, "pitch": 66, "duration": 48, "velocity": 85}, {"time": 114005, "pitch": 78, "duration": 72, "velocity": 79}, {"time": 114133, "pitch": 66, "duration": 37, "velocity": 76}, {"time": 114243, "pitch": 78, "duration": 86, "velocity": 74}, {"time": 114373, "pitch": 66, "duration": 53, "velocity": 85}, {"time": 114482, "pitch": 78, "duration": 87, "velocity": 92}, {"time": 114612, "pitch": 66, "duration": 39, "velocity": 75}, {"time": 114722, "pitch": 78, "duration": 54, "velocity": 77}, {"time": 114851, "pitch": 66, "duration": 37, "velocity": 83}, {"time": 114961, "pitch": 78, "duration": 60, "velocity": 80}, {"time": 115091, "pitch": 66, "duration": 36, "velocity": 80}, {"time": 115200, "pitch": 78, "duration": 79, "velocity": 85}, {"time": 115330, "pitch": 66, "duration": 37, "velocity": 74}, {"time": 115440, "pitch": 78, "duration": 80, "velocity": 81}, {"time": 115569, "pitch": 66, "duration": 33, "velocity": 77}, {"time": 115918, "pitch": 66, "duration": 82, "velocity": 91}, {"time": 115918, "pitch": 78, "duration": 77, "velocity": 88}, {"time": 116048, "pitch": 66, "duration": 76, "velocity": 72}, {"time": 116534, "pitch": 66, "duration": 96, "velocity": 87}, {"time": 116645, "pitch": 78, "duration": 89, "velocity": 88}, {"time": 116775, "pitch": 66, "duration": 96, "velocity": 68}, {"time": 116886, "pitch": 78, "duration": 84, "velocity": 91}, {"time": 117014, "pitch": 66, "duration": 87, "velocity": 81}, {"time": 117732, "pitch": 66, "duration": 82, "velocity": 88}, {"time": 117842, "pitch": 78, "duration": 77, "velocity": 88}, {"time": 117971, "pitch": 66, "duration": 98, "velocity": 81}, {"time": 118450, "pitch": 66, "duration": 89, "velocity": 83}, {"time": 118560, "pitch": 78, "duration": 84, "velocity": 88}, {"time": 118689, "pitch": 66, "duration": 83, "velocity": 60}, {"time": 118799, "pitch": 78, "duration": 82, "velocity": 91}, {"time": 118928, "pitch": 66, "duration": 70, "velocity": 75}, {"time": 119649, "pitch": 65, "duration": 72, "velocity": 83}, {"time": 119761, "pitch": 77, "duration": 88, "velocity": 94}, {"time": 119893, "pitch": 65, "duration": 77, "velocity": 74}, {"time": 120374, "pitch": 66, "duration": 87, "velocity": 89}, {"time": 120483, "pitch": 80, "duration": 78, "velocity": 91}, {"time": 120613, "pitch": 68, "duration": 94, "velocity": 75}, {"time": 120723, "pitch": 80, "duration": 74, "velocity": 86}, {"time": 120852, "pitch": 68, "duration": 46, "velocity": 72}, {"time": 121570, "pitch": 66, "duration": 83, "velocity": 91}, {"time": 121681, "pitch": 78, "duration": 78, "velocity": 91}, {"time": 121809, "pitch": 66, "duration": 86, "velocity": 77}, {"time": 122288, "pitch": 66, "duration": 101, "velocity": 85}, {"time": 122398, "pitch": 78, "duration": 99, "velocity": 91}, {"time": 122530, "pitch": 66, "duration": 94, "velocity": 80}, {"time": 122642, "pitch": 78, "duration": 39, "velocity": 86}, {"time": 122774, "pitch": 66, "duration": 107, "velocity": 82}, {"time": 123603, "pitch": 66, "duration": 82, "velocity": 91}, {"time": 123603, "pitch": 78, "duration": 77, "velocity": 88}, {"time": 123733, "pitch": 66, "duration": 77, "velocity": 72}, {"time": 124212, "pitch": 66, "duration": 94, "velocity": 87}, {"time": 124321, "pitch": 78, "duration": 89, "velocity": 88}, {"time": 124451, "pitch": 66, "duration": 95, "velocity": 68}, {"time": 124561, "pitch": 78, "duration": 85, "velocity": 91}, {"time": 124690, "pitch": 66, "duration": 87, "velocity": 81}, {"time": 125518, "pitch": 66, "duration": 81, "velocity": 91}, {"time": 125518, "pitch": 78, "duration": 76, "velocity": 88}, {"time": 125647, "pitch": 66, "duration": 77, "velocity": 72}, {"time": 126133, "pitch": 66, "duration": 97, "velocity": 87}, {"time": 126245, "pitch": 78, "duration": 89, "velocity": 88}, {"time": 126374, "pitch": 66, "duration": 96, "velocity": 68}, {"time": 126485, "pitch": 78, "duration": 85, "velocity": 91}, {"time": 126614, "pitch": 66, "duration": 86, "velocity": 81}, {"time": 127441, "pitch": 66, "duration": 82, "velocity": 91}, {"time": 127441, "pitch": 78, "duration": 77, "velocity": 88}, {"time": 127571, "pitch": 66, "duration": 77, "velocity": 72}, {"time": 128049, "pitch": 66, "duration": 95, "velocity": 87}, {"time": 128159, "pitch": 78, "duration": 89, "velocity": 88}, {"time": 128289, "pitch": 66, "duration": 95, "velocity": 68}, {"time": 128399, "pitch": 78, "duration": 85, "velocity": 91}, {"time": 128528, "pitch": 66, "duration": 87, "velocity": 81}, {"time": 129365, "pitch": 68, "duration": 82, "velocity": 91}, {"time": 129365, "pitch": 80, "duration": 77, "velocity": 88}, {"time": 129495, "pitch": 68, "duration": 76, "velocity": 72}, {"time": 129973, "pitch": 68, "duration": 95, "velocity": 87}, {"time": 131041, "pitch": 78, "duration": 87, "velocity": 77}, {"time": 131170, "pitch": 66, "duration": 77, "velocity": 60}, {"time": 131279, "pitch": 78, "duration": 71, "velocity": 53}, {"time": 131409, "pitch": 66, "duration": 54, "velocity": 56}, {"time": 131518, "pitch": 78, "duration": 89, "velocity": 64}, {"time": 131648, "pitch": 66, "duration": 65, "velocity": 67}, {"time": 131758, "pitch": 78, "duration": 90, "velocity": 80}, {"time": 131997, "pitch": 66, "duration": 58, "velocity": 70}, {"time": 131997, "pitch": 78, "duration": 80, "velocity": 58}, {"time": 132129, "pitch": 66, "duration": 65, "velocity": 58}, {"time": 132242, "pitch": 78, "duration": 95, "velocity": 63}, {"time": 132373, "pitch": 66, "duration": 63, "velocity": 60}, {"time": 132486, "pitch": 78, "duration": 70, "velocity": 64}, {"time": 132615, "pitch": 66, "duration": 84, "velocity": 61}, {"time": 132724, "pitch": 78, "duration": 72, "velocity": 60}, {"time": 132854, "pitch": 66, "duration": 76, "velocity": 70}, {"time": 132964, "pitch": 78, "duration": 55, "velocity": 72}, {"time": 133093, "pitch": 66, "duration": 51, "velocity": 70}, {"time": 133203, "pitch": 78, "duration": 61, "velocity": 67}, {"time": 133332, "pitch": 66, "duration": 44, "velocity": 72}, {"time": 133442, "pitch": 78, "duration": 55, "velocity": 72}, {"time": 133572, "pitch": 66, "duration": 45, "velocity": 74}, {"time": 133681, "pitch": 78, "duration": 58, "velocity": 72}, {"time": 133811, "pitch": 66, "duration": 46, "velocity": 76}, {"time": 133921, "pitch": 78, "duration": 52, "velocity": 70}, {"time": 134050, "pitch": 66, "duration": 52, "velocity": 76}, {"time": 134160, "pitch": 78, "duration": 62, "velocity": 77}, {"time": 134290, "pitch": 66, "duration": 65, "velocity": 83}, {"time": 134399, "pitch": 78, "duration": 91, "velocity": 71}, {"time": 134529, "pitch": 66, "duration": 56, "velocity": 85}, {"time": 134639, "pitch": 78, "duration": 66, "velocity": 67}, {"time": 134768, "pitch": 66, "duration": 41, "velocity": 67}, {"time": 134878, "pitch": 78, "duration": 70, "velocity": 68}, {"time": 135007, "pitch": 66, "duration": 44, "velocity": 79}, {"time": 135117, "pitch": 78, "duration": 65, "velocity": 68}, {"time": 135247, "pitch": 66, "duration": 39, "velocity": 83}, {"time": 135356, "pitch": 78, "duration": 55, "velocity": 73}, {"time": 135489, "pitch": 66, "duration": 39, "velocity": 79}, {"time": 135600, "pitch": 78, "duration": 83, "velocity": 79}, {"time": 135733, "pitch": 66, "duration": 41, "velocity": 83}, {"time": 135844, "pitch": 78, "duration": 49, "velocity": 79}, {"time": 135974, "pitch": 66, "duration": 38, "velocity": 72}, {"time": 136084, "pitch": 78, "duration": 60, "velocity": 68}, {"time": 136213, "pitch": 66, "duration": 43, "velocity": 56}, {"time": 136323, "pitch": 78, "duration": 63, "velocity": 68}, {"time": 136453, "pitch": 66, "duration": 40, "velocity": 81}, {"time": 136562, "pitch": 78, "duration": 49, "velocity": 69}, {"time": 136692, "pitch": 66, "duration": 38, "velocity": 70}, {"time": 136801, "pitch": 78, "duration": 88, "velocity": 76}, {"time": 136931, "pitch": 66, "duration": 38, "velocity": 71}, {"time": 137042, "pitch": 78, "duration": 56, "velocity": 61}, {"time": 137170, "pitch": 66, "duration": 48, "velocity": 74}, {"time": 137280, "pitch": 78, "duration": 77, "velocity": 77}, {"time": 137410, "pitch": 66, "duration": 41, "velocity": 73}, {"time": 137519, "pitch": 78, "duration": 76, "velocity": 80}, {"time": 137649, "pitch": 66, "duration": 48, "velocity": 80}, {"time": 137759, "pitch": 78, "duration": 69, "velocity": 79}, {"time": 137888, "pitch": 66, "duration": 41, "velocity": 74}, {"time": 137998, "pitch": 78, "duration": 83, "velocity": 85}, {"time": 138127, "pitch": 66, "duration": 41, "velocity": 86}, {"time": 138237, "pitch": 78, "duration": 74, "velocity": 92}, {"time": 138369, "pitch": 66, "duration": 38, "velocity": 82}, {"time": 138481, "pitch": 78, "duration": 53, "velocity": 91}, {"time": 138726, "pitch": 66, "duration": 40, "velocity": 69}, {"time": 138726, "pitch": 78, "duration": 45, "velocity": 67}, {"time": 138964, "pitch": 66, "duration": 41, "velocity": 74}, {"time": 139094, "pitch": 78, "duration": 52, "velocity": 70}, {"time": 139204, "pitch": 66, "duration": 42, "velocity": 82}, {"time": 139333, "pitch": 78, "duration": 52, "velocity": 76}, {"time": 139443, "pitch": 66, "duration": 48, "velocity": 77}, {"time": 139573, "pitch": 78, "duration": 71, "velocity": 82}, {"time": 139682, "pitch": 66, "duration": 43, "velocity": 84}, {"time": 139812, "pitch": 78, "duration": 50, "velocity": 66}, {"time": 139923, "pitch": 66, "duration": 42, "velocity": 76}, {"time": 140051, "pitch": 78, "duration": 50, "velocity": 75}, {"time": 140162, "pitch": 66, "duration": 41, "velocity": 80}, {"time": 140290, "pitch": 78, "duration": 70, "velocity": 83}, {"time": 140400, "pitch": 66, "duration": 44, "velocity": 76}, {"time": 140530, "pitch": 78, "duration": 60, "velocity": 75}, {"time": 140639, "pitch": 66, "duration": 40, "velocity": 79}, {"time": 140879, "pitch": 66, "duration": 45, "velocity": 73}, {"time": 141008, "pitch": 78, "duration": 44, "velocity": 77}, {"time": 141118, "pitch": 66, "duration": 44, "velocity": 77}, {"time": 141248, "pitch": 78, "duration": 82, "velocity": 83}, {"time": 141357, "pitch": 66, "duration": 38, "velocity": 80}, {"time": 141487, "pitch": 78, "duration": 63, "velocity": 56}, {"time": 141597, "pitch": 66, "duration": 47, "velocity": 56}, {"time": 141729, "pitch": 78, "duration": 58, "velocity": 61}, {"time": 141973, "pitch": 66, "duration": 43, "velocity": 64}, {"time": 141973, "pitch": 78, "duration": 85, "velocity": 67}, {"time": 142085, "pitch": 66, "duration": 41, "velocity": 68}, {"time": 142214, "pitch": 78, "duration": 65, "velocity": 60}, {"time": 142324, "pitch": 66, "duration": 43, "velocity": 69}, {"time": 142453, "pitch": 78, "duration": 79, "velocity": 66}, {"time": 142563, "pitch": 66, "duration": 55, "velocity": 74}, {"time": 142693, "pitch": 78, "duration": 80, "velocity": 69}, {"time": 142802, "pitch": 66, "duration": 51, "velocity": 61}, {"time": 142932, "pitch": 78, "duration": 73, "velocity": 66}, {"time": 143042, "pitch": 66, "duration": 83, "velocity": 80}, {"time": 143171, "pitch": 78, "duration": 90, "velocity": 88}, {"time": 143281, "pitch": 66, "duration": 42, "velocity": 80}, {"time": 143520, "pitch": 78, "duration": 58, "velocity": 56}, {"time": 143650, "pitch": 66, "duration": 48, "velocity": 74}, {"time": 143759, "pitch": 78, "duration": 52, "velocity": 71}, {"time": 143889, "pitch": 66, "duration": 46, "velocity": 60}, {"time": 143999, "pitch": 78, "duration": 67, "velocity": 76}, {"time": 144128, "pitch": 66, "duration": 48, "velocity": 67}, {"time": 144238, "pitch": 78, "duration": 80, "velocity": 81}, {"time": 144368, "pitch": 66, "duration": 45, "velocity": 77}, {"time": 144477, "pitch": 78, "duration": 65, "velocity": 66}, {"time": 144609, "pitch": 66, "duration": 42, "velocity": 62}, {"time": 144722, "pitch": 78, "duration": 60, "velocity": 75}, {"time": 144854, "pitch": 66, "duration": 41, "velocity": 74}, {"time": 144965, "pitch": 78, "duration": 85, "velocity": 77}, {"time": 145095, "pitch": 66, "duration": 37, "velocity": 77}, {"time": 145205, "pitch": 78, "duration": 89, "velocity": 88}, {"time": 145334, "pitch": 66, "duration": 46, "velocity": 58}, {"time": 145444, "pitch": 78, "duration": 60, "velocity": 66}, {"time": 145573, "pitch": 66, "duration": 41, "velocity": 75}, {"time": 145683, "pitch": 78, "duration": 91, "velocity": 91}, {"time": 145922, "pitch": 66, "duration": 41, "velocity": 74}, {"time": 145922, "pitch": 78, "duration": 60, "velocity": 74}, {"time": 146162, "pitch": 66, "duration": 39, "velocity": 71}, {"time": 146162, "pitch": 78, "duration": 48, "velocity": 70}, {"time": 146291, "pitch": 66, "duration": 39, "velocity": 73}, {"time": 146402, "pitch": 78, "duration": 87, "velocity": 77}, {"time": 146531, "pitch": 66, "duration": 77, "velocity": 60}, {"time": 146640, "pitch": 78, "duration": 71, "velocity": 53}, {"time": 146770, "pitch": 66, "duration": 54, "velocity": 56}, {"time": 146880, "pitch": 78, "duration": 88, "velocity": 64}, {"time": 147009, "pitch": 66, "duration": 65, "velocity": 67}, {"time": 147119, "pitch": 78, "duration": 91, "velocity": 80}, {"time": 147358, "pitch": 66, "duration": 57, "velocity": 70}, {"time": 147358, "pitch": 78, "duration": 79, "velocity": 58}, {"time": 147488, "pitch": 66, "duration": 64, "velocity": 58}, {"time": 147598, "pitch": 78, "duration": 93, "velocity": 63}, {"time": 147727, "pitch": 66, "duration": 62, "velocity": 60}, {"time": 147838, "pitch": 78, "duration": 71, "velocity": 64}, {"time": 147969, "pitch": 66, "duration": 86, "velocity": 61}, {"time": 148081, "pitch": 78, "duration": 73, "velocity": 60}, {"time": 148213, "pitch": 66, "duration": 77, "velocity": 70}, {"time": 148325, "pitch": 78, "duration": 55, "velocity": 72}, {"time": 148454, "pitch": 66, "duration": 51, "velocity": 70}, {"time": 148564, "pitch": 78, "duration": 61, "velocity": 67}, {"time": 148694, "pitch": 66, "duration": 43, "velocity": 72}, {"time": 148803, "pitch": 78, "duration": 55, "velocity": 72}, {"time": 148933, "pitch": 66, "duration": 45, "velocity": 74}, {"time": 149043, "pitch": 78, "duration": 57, "velocity": 72}, {"time": 149172, "pitch": 66, "duration": 46, "velocity": 76}, {"time": 149282, "pitch": 78, "duration": 52, "velocity": 70}, {"time": 149411, "pitch": 66, "duration": 52, "velocity": 76}, {"time": 149521, "pitch": 78, "duration": 62, "velocity": 77}, {"time": 149651, "pitch": 66, "duration": 65, "velocity": 83}, {"time": 149760, "pitch": 78, "duration": 91, "velocity": 71}, {"time": 149890, "pitch": 66, "duration": 56, "velocity": 85}, {"time": 150000, "pitch": 78, "duration": 66, "velocity": 67}, {"time": 150129, "pitch": 66, "duration": 41, "velocity": 67}, {"time": 150239, "pitch": 78, "duration": 70, "velocity": 68}, {"time": 150369, "pitch": 66, "duration": 43, "velocity": 79}, {"time": 150478, "pitch": 78, "duration": 65, "velocity": 68}, {"time": 150608, "pitch": 66, "duration": 39, "velocity": 83}, {"time": 150717, "pitch": 78, "duration": 55, "velocity": 73}, {"time": 150850, "pitch": 66, "duration": 39, "velocity": 79}, {"time": 150961, "pitch": 78, "duration": 83, "velocity": 79}, {"time": 151094, "pitch": 66, "duration": 41, "velocity": 83}, {"time": 151205, "pitch": 78, "duration": 49, "velocity": 79}, {"time": 151335, "pitch": 66, "duration": 38, "velocity": 72}, {"time": 151445, "pitch": 78, "duration": 61, "velocity": 68}, {"time": 151574, "pitch": 66, "duration": 43, "velocity": 56}, {"time": 151684, "pitch": 78, "duration": 63, "velocity": 68}, {"time": 151814, "pitch": 66, "duration": 41, "velocity": 81}, {"time": 151923, "pitch": 78, "duration": 49, "velocity": 69}, {"time": 152053, "pitch": 66, "duration": 38, "velocity": 70}, {"time": 152163, "pitch": 78, "duration": 87, "velocity": 76}, {"time": 152292, "pitch": 66, "duration": 38, "velocity": 71}, {"time": 152403, "pitch": 78, "duration": 56, "velocity": 61}, {"time": 152531, "pitch": 66, "duration": 48, "velocity": 74}, {"time": 152641, "pitch": 78, "duration": 77, "velocity": 77}, {"time": 152771, "pitch": 66, "duration": 41, "velocity": 73}, {"time": 152880, "pitch": 78, "duration": 76, "velocity": 80}, {"time": 153010, "pitch": 66, "duration": 48, "velocity": 80}, {"time": 153120, "pitch": 78, "duration": 69, "velocity": 79}, {"time": 153249, "pitch": 66, "duration": 41, "velocity": 74}, {"time": 153359, "pitch": 78, "duration": 83, "velocity": 85}, {"time": 153489, "pitch": 66, "duration": 40, "velocity": 86}, {"time": 153598, "pitch": 78, "duration": 73, "velocity": 92}, {"time": 153728, "pitch": 66, "duration": 37, "velocity": 82}, {"time": 153838, "pitch": 78, "duration": 51, "velocity": 91}, {"time": 154078, "pitch": 66, "duration": 40, "velocity": 69}, {"time": 154078, "pitch": 78, "duration": 46, "velocity": 67}, {"time": 154321, "pitch": 66, "duration": 42, "velocity": 74}, {"time": 154453, "pitch": 78, "duration": 53, "velocity": 70}, {"time": 154565, "pitch": 66, "duration": 42, "velocity": 82}, {"time": 154694, "pitch": 78, "duration": 52, "velocity": 76}, {"time": 154804, "pitch": 66, "duration": 48, "velocity": 77}, {"time": 154934, "pitch": 78, "duration": 71, "velocity": 82}, {"time": 155043, "pitch": 66, "duration": 43, "velocity": 84}, {"time": 155173, "pitch": 78, "duration": 50, "velocity": 66}, {"time": 155284, "pitch": 66, "duration": 43, "velocity": 76}, {"time": 155412, "pitch": 78, "duration": 50, "velocity": 75}, {"time": 155523, "pitch": 66, "duration": 41, "velocity": 80}, {"time": 155652, "pitch": 78, "duration": 69, "velocity": 83}, {"time": 155761, "pitch": 66, "duration": 44, "velocity": 76}, {"time": 155891, "pitch": 78, "duration": 60, "velocity": 75}, {"time": 156000, "pitch": 66, "duration": 40, "velocity": 79}, {"time": 156240, "pitch": 66, "duration": 45, "velocity": 73}, {"time": 156369, "pitch": 78, "duration": 44, "velocity": 77}, {"time": 156479, "pitch": 66, "duration": 44, "velocity": 77}, {"time": 156609, "pitch": 78, "duration": 82, "velocity": 83}, {"time": 156718, "pitch": 66, "duration": 38, "velocity": 80}, {"time": 156848, "pitch": 78, "duration": 63, "velocity": 56}, {"time": 156958, "pitch": 66, "duration": 47, "velocity": 56}, {"time": 157090, "pitch": 78, "duration": 58, "velocity": 61}, {"time": 157334, "pitch": 66, "duration": 44, "velocity": 64}, {"time": 157334, "pitch": 78, "duration": 85, "velocity": 67}, {"time": 157446, "pitch": 66, "duration": 41, "velocity": 68}, {"time": 157575, "pitch": 78, "duration": 65, "velocity": 60}, {"time": 157685, "pitch": 66, "duration": 43, "velocity": 69}, {"time": 157814, "pitch": 78, "duration": 79, "velocity": 66}, {"time": 157924, "pitch": 66, "duration": 55, "velocity": 74}, {"time": 158054, "pitch": 78, "duration": 81, "velocity": 69}, {"time": 158163, "pitch": 66, "duration": 51, "velocity": 61}, {"time": 158293, "pitch": 78, "duration": 73, "velocity": 66}, {"time": 158403, "pitch": 66, "duration": 83, "velocity": 80}, {"time": 158532, "pitch": 78, "duration": 90, "velocity": 88}, {"time": 158642, "pitch": 66, "duration": 42, "velocity": 80}, {"time": 158881, "pitch": 78, "duration": 58, "velocity": 56}, {"time": 159011, "pitch": 66, "duration": 48, "velocity": 74}, {"time": 159121, "pitch": 78, "duration": 51, "velocity": 71}, {"time": 159250, "pitch": 66, "duration": 46, "velocity": 60}, {"time": 159360, "pitch": 78, "duration": 67, "velocity": 76}, {"time": 159489, "pitch": 66, "duration": 48, "velocity": 67}, {"time": 159599, "pitch": 78, "duration": 80, "velocity": 81}, {"time": 159729, "pitch": 66, "duration": 45, "velocity": 77}, {"time": 159838, "pitch": 78, "duration": 64, "velocity": 66}, {"time": 159968, "pitch": 66, "duration": 41, "velocity": 62}, {"time": 160079, "pitch": 78, "duration": 59, "velocity": 75}, {"time": 160207, "pitch": 66, "duration": 41, "velocity": 74}, {"time": 160317, "pitch": 78, "duration": 86, "velocity": 77}, {"time": 160449, "pitch": 66, "duration": 38, "velocity": 77}, {"time": 160561, "pitch": 78, "duration": 92, "velocity": 88}, {"time": 160693, "pitch": 66, "duration": 47, "velocity": 58}, {"time": 160805, "pitch": 78, "duration": 60, "velocity": 66}, {"time": 160935, "pitch": 66, "duration": 40, "velocity": 75}, {"time": 161044, "pitch": 78, "duration": 91, "velocity": 91}, {"time": 161284, "pitch": 66, "duration": 40, "velocity": 74}, {"time": 161284, "pitch": 78, "duration": 59, "velocity": 74}, {"time": 161523, "pitch": 66, "duration": 39, "velocity": 71}, {"time": 161523, "pitch": 78, "duration": 48, "velocity": 70}, {"time": 161652, "pitch": 66, "duration": 39, "velocity": 73}, {"time": 161763, "pitch": 78, "duration": 87, "velocity": 77}, {"time": 161892, "pitch": 66, "duration": 77, "velocity": 60}, {"time": 162001, "pitch": 78, "duration": 71, "velocity": 53}, {"time": 162131, "pitch": 66, "duration": 54, "velocity": 56}, {"time": 162241, "pitch": 78, "duration": 88, "velocity": 64}, {"time": 162370, "pitch": 66, "duration": 65, "velocity": 67}, {"time": 162480, "pitch": 78, "duration": 91, "velocity": 80}, {"time": 162719, "pitch": 66, "duration": 57, "velocity": 70}, {"time": 162719, "pitch": 78, "duration": 79, "velocity": 58}, {"time": 162849, "pitch": 66, "duration": 64, "velocity": 58}, {"time": 162959, "pitch": 78, "duration": 93, "velocity": 63}, {"time": 163088, "pitch": 66, "duration": 62, "velocity": 60}, {"time": 163199, "pitch": 78, "duration": 70, "velocity": 64}, {"time": 163327, "pitch": 66, "duration": 85, "velocity": 61}, {"time": 163437, "pitch": 78, "duration": 72, "velocity": 60}, {"time": 163567, "pitch": 66, "duration": 75, "velocity": 70}, {"time": 163676, "pitch": 78, "duration": 57, "velocity": 72}, {"time": 163808, "pitch": 66, "duration": 52, "velocity": 70}, {"time": 163920, "pitch": 78, "duration": 62, "velocity": 67}, {"time": 164053, "pitch": 66, "duration": 44, "velocity": 72}, {"time": 164164, "pitch": 78, "duration": 55, "velocity": 72}, {"time": 164294, "pitch": 66, "duration": 45, "velocity": 74}, {"time": 164404, "pitch": 78, "duration": 57, "velocity": 72}, {"time": 164533, "pitch": 66, "duration": 46, "velocity": 76}, {"time": 164643, "pitch": 78, "duration": 52, "velocity": 70}, {"time": 164772, "pitch": 66, "duration": 52, "velocity": 76}, {"time": 164882, "pitch": 78, "duration": 62, "velocity": 77}, {"time": 165012, "pitch": 66, "duration": 66, "velocity": 83}, {"time": 165121, "pitch": 78, "duration": 91, "velocity": 71}, {"time": 165251, "pitch": 66, "duration": 56, "velocity": 85}, {"time": 165361, "pitch": 78, "duration": 67, "velocity": 67}, {"time": 165490, "pitch": 66, "duration": 41, "velocity": 67}, {"time": 165600, "pitch": 78, "duration": 70, "velocity": 68}, {"time": 165730, "pitch": 66, "duration": 43, "velocity": 79}, {"time": 165839, "pitch": 78, "duration": 65, "velocity": 68}, {"time": 165969, "pitch": 66, "duration": 39, "velocity": 83}, {"time": 166079, "pitch": 78, "duration": 53, "velocity": 73}, {"time": 166208, "pitch": 66, "duration": 39, "velocity": 79}, {"time": 166318, "pitch": 78, "duration": 81, "velocity": 79}, {"time": 166447, "pitch": 66, "duration": 41, "velocity": 83}, {"time": 166557, "pitch": 78, "duration": 50, "velocity": 79}, {"time": 166689, "pitch": 66, "duration": 39, "velocity": 72}, {"time": 166801, "pitch": 78, "duration": 62, "velocity": 68}, {"time": 166933, "pitch": 66, "duration": 44, "velocity": 56}, {"time": 167045, "pitch": 78, "duration": 63, "velocity": 68}, {"time": 167175, "pitch": 66, "duration": 41, "velocity": 81}, {"time": 167284, "pitch": 78, "duration": 49, "velocity": 69}, {"time": 167414, "pitch": 66, "duration": 38, "velocity": 70}, {"time": 167524, "pitch": 78, "duration": 87, "velocity": 76}, {"time": 167653, "pitch": 66, "duration": 38, "velocity": 71}, {"time": 167764, "pitch": 78, "duration": 56, "velocity": 61}, {"time": 167893, "pitch": 66, "duration": 47, "velocity": 74}, {"time": 168002, "pitch": 78, "duration": 77, "velocity": 77}, {"time": 168132, "pitch": 66, "duration": 41, "velocity": 73}, {"time": 168242, "pitch": 78, "duration": 75, "velocity": 80}, {"time": 168371, "pitch": 66, "duration": 48, "velocity": 80}, {"time": 168481, "pitch": 78, "duration": 70, "velocity": 79}, {"time": 168610, "pitch": 66, "duration": 41, "velocity": 74}, {"time": 168720, "pitch": 78, "duration": 83, "velocity": 85}, {"time": 168850, "pitch": 66, "duration": 41, "velocity": 86}, {"time": 168959, "pitch": 78, "duration": 73, "velocity": 92}, {"time": 169089, "pitch": 66, "duration": 37, "velocity": 82}, {"time": 169199, "pitch": 78, "duration": 51, "velocity": 91}, {"time": 169439, "pitch": 66, "duration": 40, "velocity": 69}, {"time": 169439, "pitch": 78, "duration": 45, "velocity": 67}, {"time": 169677, "pitch": 66, "duration": 41, "velocity": 74}, {"time": 169807, "pitch": 78, "duration": 52, "velocity": 70}, {"time": 169916, "pitch": 66, "duration": 43, "velocity": 82}, {"time": 170049, "pitch": 78, "duration": 53, "velocity": 76}, {"time": 170160, "pitch": 66, "duration": 49, "velocity": 77}, {"time": 170293, "pitch": 78, "duration": 73, "velocity": 82}, {"time": 170404, "pitch": 66, "duration": 43, "velocity": 84}, {"time": 170534, "pitch": 78, "duration": 50, "velocity": 66}, {"time": 170645, "pitch": 66, "duration": 43, "velocity": 76}, {"time": 170773, "pitch": 78, "duration": 50, "velocity": 75}, {"time": 170884, "pitch": 66, "duration": 41, "velocity": 80}, {"time": 171013, "pitch": 78, "duration": 69, "velocity": 83}, {"time": 171122, "pitch": 66, "duration": 44, "velocity": 76}, {"time": 171252, "pitch": 78, "duration": 60, "velocity": 75}, {"time": 171362, "pitch": 66, "duration": 39, "velocity": 79}, {"time": 171601, "pitch": 66, "duration": 45, "velocity": 73}, {"time": 171730, "pitch": 78, "duration": 44, "velocity": 77}, {"time": 171840, "pitch": 66, "duration": 44, "velocity": 77}, {"time": 171970, "pitch": 78, "duration": 83, "velocity": 83}, {"time": 172079, "pitch": 66, "duration": 38, "velocity": 80}, {"time": 172209, "pitch": 78, "duration": 63, "velocity": 56}, {"time": 172319, "pitch": 66, "duration": 47, "velocity": 56}, {"time": 172448, "pitch": 78, "duration": 57, "velocity": 61}, {"time": 172688, "pitch": 66, "duration": 42, "velocity": 64}, {"time": 172688, "pitch": 78, "duration": 83, "velocity": 67}, {"time": 172797, "pitch": 66, "duration": 43, "velocity": 68}, {"time": 172929, "pitch": 78, "duration": 67, "velocity": 60}, {"time": 173041, "pitch": 66, "duration": 44, "velocity": 69}, {"time": 173174, "pitch": 78, "duration": 80, "velocity": 66}, {"time": 173285, "pitch": 66, "duration": 55, "velocity": 74}, {"time": 173415, "pitch": 78, "duration": 81, "velocity": 69}, {"time": 173525, "pitch": 66, "duration": 50, "velocity": 61}, {"time": 173654, "pitch": 78, "duration": 73, "velocity": 66}, {"time": 173764, "pitch": 66, "duration": 84, "velocity": 80}, {"time": 173893, "pitch": 78, "duration": 90, "velocity": 88}, {"time": 174003, "pitch": 66, "duration": 42, "velocity": 80}, {"time": 174242, "pitch": 78, "duration": 58, "velocity": 56}, {"time": 174372, "pitch": 66, "duration": 48, "velocity": 74}, {"time": 174482, "pitch": 78, "duration": 52, "velocity": 71}, {"time": 174611, "pitch": 66, "duration": 46, "velocity": 60}, {"time": 174721, "pitch": 78, "duration": 67, "velocity": 76}, {"time": 174851, "pitch": 66, "duration": 47, "velocity": 67}, {"time": 174960, "pitch": 78, "duration": 80, "velocity": 81}, {"time": 175090, "pitch": 66, "duration": 45, "velocity": 77}, {"time": 177124, "pitch": 78, "duration": 87, "velocity": 77}, {"time": 177253, "pitch": 66, "duration": 78, "velocity": 60}, {"time": 177362, "pitch": 78, "duration": 71, "velocity": 53}, {"time": 177492, "pitch": 66, "duration": 54, "velocity": 56}, {"time": 177602, "pitch": 78, "duration": 88, "velocity": 64}, {"time": 177731, "pitch": 66, "duration": 65, "velocity": 67}, {"time": 177841, "pitch": 78, "duration": 91, "velocity": 80}, {"time": 178080, "pitch": 66, "duration": 57, "velocity": 70}, {"time": 178080, "pitch": 78, "duration": 79, "velocity": 58}, {"time": 178210, "pitch": 66, "duration": 64, "velocity": 58}, {"time": 178321, "pitch": 78, "duration": 92, "velocity": 63}, {"time": 178449, "pitch": 66, "duration": 62, "velocity": 60}, {"time": 178560, "pitch": 78, "duration": 70, "velocity": 64}, {"time": 178688, "pitch": 66, "duration": 85, "velocity": 61}, {"time": 178798, "pitch": 78, "duration": 72, "velocity": 60}, {"time": 178928, "pitch": 66, "duration": 76, "velocity": 70}, {"time": 179037, "pitch": 78, "duration": 57, "velocity": 72}, {"time": 179170, "pitch": 66, "duration": 51, "velocity": 70}, {"time": 179281, "pitch": 78, "duration": 62, "velocity": 67}, {"time": 179414, "pitch": 66, "duration": 44, "velocity": 72}, {"time": 179525, "pitch": 78, "duration": 55, "velocity": 72}, {"time": 179655, "pitch": 66, "duration": 45, "velocity": 74}, {"time": 179765, "pitch": 78, "duration": 58, "velocity": 72}, {"time": 179894, "pitch": 66, "duration": 46, "velocity": 76}, {"time": 180004, "pitch": 78, "duration": 52, "velocity": 70}, {"time": 180134, "pitch": 66, "duration": 51, "velocity": 76}, {"time": 180243, "pitch": 78, "duration": 62, "velocity": 77}, {"time": 180373, "pitch": 66, "duration": 66, "velocity": 83}, {"time": 180483, "pitch": 78, "duration": 90, "velocity": 71}, {"time": 180612, "pitch": 66, "duration": 56, "velocity": 85}, {"time": 180722, "pitch": 78, "duration": 67, "velocity": 67}, {"time": 180851, "pitch": 66, "duration": 41, "velocity": 67}, {"time": 180961, "pitch": 78, "duration": 70, "velocity": 68}, {"time": 181091, "pitch": 66, "duration": 44, "velocity": 79}, {"time": 181200, "pitch": 78, "duration": 65, "velocity": 68}, {"time": 181330, "pitch": 66, "duration": 39, "velocity": 83}, {"time": 181440, "pitch": 78, "duration": 54, "velocity": 73}, {"time": 181569, "pitch": 66, "duration": 39, "velocity": 79}, {"time": 181679, "pitch": 78, "duration": 81, "velocity": 79}, {"time": 181809, "pitch": 66, "duration": 40, "velocity": 83}, {"time": 181918, "pitch": 78, "duration": 49, "velocity": 79}, {"time": 182048, "pitch": 66, "duration": 38, "velocity": 72}, {"time": 182158, "pitch": 78, "duration": 60, "velocity": 68}, {"time": 182287, "pitch": 66, "duration": 43, "velocity": 56}, {"time": 182397, "pitch": 78, "duration": 64, "velocity": 68}, {"time": 182529, "pitch": 66, "duration": 42, "velocity": 81}, {"time": 182641, "pitch": 78, "duration": 50, "velocity": 69}, {"time": 182773, "pitch": 66, "duration": 39, "velocity": 70}, {"time": 182885, "pitch": 78, "duration": 88, "velocity": 76}, {"time": 183014, "pitch": 66, "duration": 38, "velocity": 71}, {"time": 183125, "pitch": 78, "duration": 56, "velocity": 61}, {"time": 183254, "pitch": 66, "duration": 48, "velocity": 74}, {"time": 183363, "pitch": 78, "duration": 77, "velocity": 77}, {"time": 183493, "pitch": 66, "duration": 41, "velocity": 73}, {"time": 183603, "pitch": 78, "duration": 75, "velocity": 80}, {"time": 183732, "pitch": 66, "duration": 48, "velocity": 80}, {"time": 183842, "pitch": 78, "duration": 70, "velocity": 79}, {"time": 183972, "pitch": 66, "duration": 40, "velocity": 74}, {"time": 184081, "pitch": 78, "duration": 83, "velocity": 85}, {"time": 184211, "pitch": 66, "duration": 41, "velocity": 86}, {"time": 184320, "pitch": 78, "duration": 73, "velocity": 92}, {"time": 184450, "pitch": 66, "duration": 37, "velocity": 82}, {"time": 184560, "pitch": 78, "duration": 52, "velocity": 91}, {"time": 184800, "pitch": 66, "duration": 40, "velocity": 69}, {"time": 184800, "pitch": 78, "duration": 45, "velocity": 67}, {"time": 185038, "pitch": 66, "duration": 41, "velocity": 74}, {"time": 185168, "pitch": 78, "duration": 52, "velocity": 70}, {"time": 185278, "pitch": 66, "duration": 42, "velocity": 82}, {"time": 185410, "pitch": 78, "duration": 53, "velocity": 76}, {"time": 185522, "pitch": 66, "duration": 48, "velocity": 77}, {"time": 185654, "pitch": 78, "duration": 73, "velocity": 82}, {"time": 185766, "pitch": 66, "duration": 42, "velocity": 84}, {"time": 185895, "pitch": 78, "duration": 50, "velocity": 66}, {"time": 186006, "pitch": 66, "duration": 43, "velocity": 76}, {"time": 186134, "pitch": 78, "duration": 50, "velocity": 75}, {"time": 186245, "pitch": 66, "duration": 41, "velocity": 80}, {"time": 186374, "pitch": 78, "duration": 70, "velocity": 83}, {"time": 186483, "pitch": 66, "duration": 44, "velocity": 76}, {"time": 186613, "pitch": 78, "duration": 60, "velocity": 75}, {"time": 186723, "pitch": 66, "duration": 40, "velocity": 79}, {"time": 186962, "pitch": 66, "duration": 45, "velocity": 73}, {"time": 187092, "pitch": 78, "duration": 43, "velocity": 77}, {"time": 187201, "pitch": 66, "duration": 44, "velocity": 77}, {"time": 187331, "pitch": 78, "duration": 83, "velocity": 83}, {"time": 187441, "pitch": 66, "duration": 37, "velocity": 80}, {"time": 187570, "pitch": 78, "duration": 63, "velocity": 56}, {"time": 187680, "pitch": 66, "duration": 47, "velocity": 56}, {"time": 187809, "pitch": 78, "duration": 57, "velocity": 61}, {"time": 188049, "pitch": 66, "duration": 43, "velocity": 64}, {"time": 188049, "pitch": 78, "duration": 83, "velocity": 67}, {"time": 188158, "pitch": 66, "duration": 42, "velocity": 68}, {"time": 188288, "pitch": 78, "duration": 65, "velocity": 60}, {"time": 188398, "pitch": 66, "duration": 43, "velocity": 69}, {"time": 188527, "pitch": 78, "duration": 79, "velocity": 66}, {"time": 188637, "pitch": 66, "duration": 56, "velocity": 74}, {"time": 188769, "pitch": 78, "duration": 82, "velocity": 69}, {"time": 188881, "pitch": 66, "duration": 52, "velocity": 61}, {"time": 189013, "pitch": 78, "duration": 74, "velocity": 66}, {"time": 189125, "pitch": 66, "duration": 84, "velocity": 80}, {"time": 189255, "pitch": 78, "duration": 89, "velocity": 88}, {"time": 189364, "pitch": 66, "duration": 42, "velocity": 80}, {"time": 189603, "pitch": 78, "duration": 58, "velocity": 56}, {"time": 189733, "pitch": 66, "duration": 48, "velocity": 74}, {"time": 189843, "pitch": 78, "duration": 52, "velocity": 71}, {"time": 189972, "pitch": 66, "duration": 46, "velocity": 60}, {"time": 190082, "pitch": 78, "duration": 67, "velocity": 76}, {"time": 190212, "pitch": 66, "duration": 48, "velocity": 67}, {"time": 190321, "pitch": 78, "duration": 80, "velocity": 81}, {"time": 190451, "pitch": 66, "duration": 45, "velocity": 77}, {"time": 190561, "pitch": 78, "duration": 63, "velocity": 66}, {"time": 190690, "pitch": 66, "duration": 41, "velocity": 62}, {"time": 190801, "pitch": 78, "duration": 59, "velocity": 75}, {"time": 190930, "pitch": 66, "duration": 40, "velocity": 74}, {"time": 191039, "pitch": 78, "duration": 85, "velocity": 77}, {"time": 191169, "pitch": 66, "duration": 37, "velocity": 77}, {"time": 191278, "pitch": 78, "duration": 90, "velocity": 88}, {"time": 191408, "pitch": 66, "duration": 46, "velocity": 58}, {"time": 191518, "pitch": 78, "duration": 60, "velocity": 66}, {"time": 191647, "pitch": 66, "duration": 41, "velocity": 75}, {"time": 191757, "pitch": 78, "duration": 91, "velocity": 91}, {"time": 191996, "pitch": 66, "duration": 42, "velocity": 74}, {"time": 191996, "pitch": 78, "duration": 61, "velocity": 74}, {"time": 192240, "pitch": 66, "duration": 40, "velocity": 71}, {"time": 192240, "pitch": 78, "duration": 49, "velocity": 70}, {"time": 192373, "pitch": 66, "duration": 39, "velocity": 73}, {"time": 192485, "pitch": 78, "duration": 87, "velocity": 77}, {"time": 192614, "pitch": 66, "duration": 78, "velocity": 60}, {"time": 192724, "pitch": 78, "duration": 70, "velocity": 53}, {"time": 192853, "pitch": 66, "duration": 54, "velocity": 56}, {"time": 192963, "pitch": 78, "duration": 89, "velocity": 64}, {"time": 193092, "pitch": 66, "duration": 65, "velocity": 67}, {"time": 193202, "pitch": 78, "duration": 91, "velocity": 80}, {"time": 193441, "pitch": 66, "duration": 57, "velocity": 70}, {"time": 193441, "pitch": 78, "duration": 79, "velocity": 58}, {"time": 193571, "pitch": 66, "duration": 64, "velocity": 58}, {"time": 193682, "pitch": 78, "duration": 92, "velocity": 63}, {"time": 193810, "pitch": 66, "duration": 62, "velocity": 60}, {"time": 193921, "pitch": 78, "duration": 70, "velocity": 64}, {"time": 194050, "pitch": 66, "duration": 84, "velocity": 61}, {"time": 194159, "pitch": 78, "duration": 72, "velocity": 60}, {"time": 194289, "pitch": 66, "duration": 76, "velocity": 70}, {"time": 194399, "pitch": 78, "duration": 55, "velocity": 72}, {"time": 194528, "pitch": 66, "duration": 51, "velocity": 70}, {"time": 194638, "pitch": 78, "duration": 61, "velocity": 67}, {"time": 194767, "pitch": 66, "duration": 44, "velocity": 72}, {"time": 194877, "pitch": 78, "duration": 56, "velocity": 72}, {"time": 195009, "pitch": 66, "duration": 46, "velocity": 74}, {"time": 195121, "pitch": 78, "duration": 59, "velocity": 72}, {"time": 195253, "pitch": 66, "duration": 47, "velocity": 76}, {"time": 195365, "pitch": 78, "duration": 52, "velocity": 70}, {"time": 195495, "pitch": 66, "duration": 52, "velocity": 76}, {"time": 195604, "pitch": 78, "duration": 62, "velocity": 77}, {"time": 195734, "pitch": 66, "duration": 66, "velocity": 83}, {"time": 195844, "pitch": 78, "duration": 90, "velocity": 71}, {"time": 195973, "pitch": 66, "duration": 56, "velocity": 85}, {"time": 196083, "pitch": 78, "duration": 67, "velocity": 67}, {"time": 196213, "pitch": 66, "duration": 40, "velocity": 67}, {"time": 196322, "pitch": 78, "duration": 70, "velocity": 68}, {"time": 196452, "pitch": 66, "duration": 44, "velocity": 79}, {"time": 196561, "pitch": 78, "duration": 65, "velocity": 68}, {"time": 196691, "pitch": 66, "duration": 39, "velocity": 83}, {"time": 196801, "pitch": 78, "duration": 54, "velocity": 73}, {"time": 196930, "pitch": 66, "duration": 39, "velocity": 79}, {"time": 197040, "pitch": 78, "duration": 81, "velocity": 79}, {"time": 197170, "pitch": 66, "duration": 41, "velocity": 83}, {"time": 197279, "pitch": 78, "duration": 49, "velocity": 79}, {"time": 197409, "pitch": 66, "duration": 38, "velocity": 72}, {"time": 197519, "pitch": 78, "duration": 60, "velocity": 68}, {"time": 197648, "pitch": 66, "duration": 43, "velocity": 56}, {"time": 197758, "pitch": 78, "duration": 63, "velocity": 68}, {"time": 197888, "pitch": 66, "duration": 40, "velocity": 81}, {"time": 197997, "pitch": 78, "duration": 49, "velocity": 69}, {"time": 198127, "pitch": 66, "duration": 38, "velocity": 70}, {"time": 198236, "pitch": 78, "duration": 90, "velocity": 76}, {"time": 198369, "pitch": 66, "duration": 38, "velocity": 71}, {"time": 198481, "pitch": 78, "duration": 57, "velocity": 61}, {"time": 198613, "pitch": 66, "duration": 48, "velocity": 74}, {"time": 198724, "pitch": 78, "duration": 77, "velocity": 77}, {"time": 198854, "pitch": 66, "duration": 41, "velocity": 73}, {"time": 198964, "pitch": 78, "duration": 75, "velocity": 80}, {"time": 199093, "pitch": 66, "duration": 48, "velocity": 80}, {"time": 199203, "pitch": 78, "duration": 70, "velocity": 79}, {"time": 199333, "pitch": 66, "duration": 40, "velocity": 74}, {"time": 199442, "pitch": 78, "duration": 83, "velocity": 85}, {"time": 199572, "pitch": 66, "duration": 41, "velocity": 86}, {"time": 199682, "pitch": 78, "duration": 72, "velocity": 92}, {"time": 199811, "pitch": 66, "duration": 37, "velocity": 82}, {"time": 199921, "pitch": 78, "duration": 52, "velocity": 91}, {"time": 200161, "pitch": 66, "duration": 40, "velocity": 69}, {"time": 200161, "pitch": 78, "duration": 45, "velocity": 67}, {"time": 200399, "pitch": 66, "duration": 41, "velocity": 74}, {"time": 200529, "pitch": 78, "duration": 52, "velocity": 70}, {"time": 200639, "pitch": 66, "duration": 42, "velocity": 82}, {"time": 200768, "pitch": 78, "duration": 52, "velocity": 76}, {"time": 200878, "pitch": 66, "duration": 48, "velocity": 77}, {"time": 201008, "pitch": 78, "duration": 71, "velocity": 82}, {"time": 201117, "pitch": 66, "duration": 44, "velocity": 84}, {"time": 201249, "pitch": 78, "duration": 51, "velocity": 66}, {"time": 201362, "pitch": 66, "duration": 44, "velocity": 76}, {"time": 201493, "pitch": 78, "duration": 51, "velocity": 75}, {"time": 201606, "pitch": 66, "duration": 41, "velocity": 80}, {"time": 201735, "pitch": 78, "duration": 70, "velocity": 83}, {"time": 201845, "pitch": 66, "duration": 43, "velocity": 76}, {"time": 201974, "pitch": 78, "duration": 60, "velocity": 75}, {"time": 202084, "pitch": 66, "duration": 40, "velocity": 79}, {"time": 202323, "pitch": 66, "duration": 45, "velocity": 73}, {"time": 202453, "pitch": 78, "duration": 44, "velocity": 77}, {"time": 202562, "pitch": 66, "duration": 44, "velocity": 77}, {"time": 202692, "pitch": 78, "duration": 83, "velocity": 83}, {"time": 202802, "pitch": 66, "duration": 38, "velocity": 80}, {"time": 202931, "pitch": 78, "duration": 63, "velocity": 56}, {"time": 203041, "pitch": 66, "duration": 47, "velocity": 56}, {"time": 203171, "pitch": 78, "duration": 56, "velocity": 61}, {"time": 203410, "pitch": 66, "duration": 43, "velocity": 64}, {"time": 203410, "pitch": 78, "duration": 84, "velocity": 67}, {"time": 203519, "pitch": 66, "duration": 42, "velocity": 68}, {"time": 203649, "pitch": 78, "duration": 65, "velocity": 60}, {"time": 203759, "pitch": 66, "duration": 43, "velocity": 69}, {"time": 203888, "pitch": 78, "duration": 79, "velocity": 66}, {"time": 203998, "pitch": 66, "duration": 55, "velocity": 74}, {"time": 204128, "pitch": 78, "duration": 80, "velocity": 69}, {"time": 204237, "pitch": 66, "duration": 51, "velocity": 61}, {"time": 204367, "pitch": 78, "duration": 73, "velocity": 66}, {"time": 204477, "pitch": 66, "duration": 85, "velocity": 80}, {"time": 204609, "pitch": 78, "duration": 91, "velocity": 88}, {"time": 204721, "pitch": 66, "duration": 42, "velocity": 80}], "annotations": [{"time": 285, "annotation": {"number": 7, "value": 69}, "group": "control_change"}, {"time": 307, "annotation": {"number": 11, "value": 100}, "group": "control_change"}, {"time": 329, "annotation": {"number": 10, "value": 59}, "group": "control_change"}, {"time": 350, "annotation": {"number": 91, "value": 0}, "group": "control_change"}, {"time": 372, "annotation": {"number": 93, "value": 0}, "group": "control_change"}, {"time": 394, "annotation": {"number": 101, "value": 0}, "group": "control_change"}, {"time": 416, "annotation": {"number": 100, "value": 0}, "group": "control_change"}, {"time": 438, "annotation": {"number": 6, "value": 12}, "group": "control_change"}, {"time": 460, "annotation": {"number": 101, "value": 127}, "group": "control_change"}, {"time": 484, "annotation": {"number": 100, "value": 127}, "group": "control_change"}]}, {"program": 0, "is_drum": false, "name": "SYNTH VOICE ", "annotations": [{"time": 219, "annotation": {"number": 0, "value": 0}, "group": "control_change"}, {"time": 241, "annotation": {"number": 32, "value": 0}, "group": "control_change"}]}, {"program": 54, "is_drum": false, "name": "SYNTH VOICE ", "notes": [{"time": 61921, "pitch": 69, "duration": 1919, "velocity": 86}, {"time": 61921, "pitch": 73, "duration": 1905, "velocity": 100}, {"time": 61921, "pitch": 78, "duration": 11581, "velocity": 94}, {"time": 63843, "pitch": 72, "duration": 1889, "velocity": 89}, {"time": 63843, "pitch": 75, "duration": 1919, "velocity": 94}, {"time": 65758, "pitch": 71, "duration": 1895, "velocity": 91}, {"time": 65758, "pitch": 74, "duration": 1964, "velocity": 92}, {"time": 67681, "pitch": 69, "duration": 1907, "velocity": 80}, {"time": 67681, "pitch": 73, "duration": 1905, "velocity": 105}, {"time": 69606, "pitch": 69, "duration": 1873, "velocity": 77}, {"time": 69606, "pitch": 73, "duration": 1864, "velocity": 100}, {"time": 71519, "pitch": 72, "duration": 1922, "velocity": 92}, {"time": 71519, "pitch": 75, "duration": 1823, "velocity": 94}, {"time": 73443, "pitch": 67, "duration": 1907, "velocity": 81}, {"time": 73443, "pitch": 71, "duration": 1797, "velocity": 81}, {"time": 73443, "pitch": 74, "duration": 1921, "velocity": 103}, {"time": 75357, "pitch": 66, "duration": 1971, "velocity": 89}, {"time": 75357, "pitch": 69, "duration": 1920, "velocity": 82}, {"time": 75357, "pitch": 73, "duration": 1956, "velocity": 102}, {"time": 131041, "pitch": 69, "duration": 1920, "velocity": 86}, {"time": 131041, "pitch": 73, "duration": 1906, "velocity": 100}, {"time": 131041, "pitch": 78, "duration": 11581, "velocity": 94}, {"time": 132964, "pitch": 72, "duration": 1888, "velocity": 89}, {"time": 132964, "pitch": 75, "duration": 1918, "velocity": 94}, {"time": 134878, "pitch": 71, "duration": 1896, "velocity": 91}, {"time": 134878, "pitch": 74, "duration": 1964, "velocity": 92}, {"time": 136801, "pitch": 69, "duration": 1907, "velocity": 80}, {"time": 136801, "pitch": 73, "duration": 1905, "velocity": 105}, {"time": 138726, "pitch": 69, "duration": 1874, "velocity": 77}, {"time": 138726, "pitch": 73, "duration": 1865, "velocity": 100}, {"time": 140639, "pitch": 72, "duration": 1922, "velocity": 92}, {"time": 140639, "pitch": 75, "duration": 1823, "velocity": 94}, {"time": 142563, "pitch": 67, "duration": 1907, "velocity": 81}, {"time": 142563, "pitch": 71, "duration": 1798, "velocity": 81}, {"time": 142563, "pitch": 74, "duration": 1921, "velocity": 103}, {"time": 144477, "pitch": 66, "duration": 1971, "velocity": 89}, {"time": 144477, "pitch": 69, "duration": 1920, "velocity": 82}, {"time": 144477, "pitch": 73, "duration": 1956, "velocity": 102}, {"time": 146402, "pitch": 69, "duration": 1920, "velocity": 86}, {"time": 146402, "pitch": 73, "duration": 31, "velocity": 100}, {"time": 146402, "pitch": 78, "duration": 11581, "velocity": 94}, {"time": 148325, "pitch": 72, "duration": 1888, "velocity": 89}, {"time": 148325, "pitch": 75, "duration": 1918, "velocity": 94}, {"time": 150239, "pitch": 71, "duration": 1896, "velocity": 91}, {"time": 150239, "pitch": 74, "duration": 1964, "velocity": 92}, {"time": 152163, "pitch": 69, "duration": 1897, "velocity": 80}, {"time": 152163, "pitch": 73, "duration": 1895, "velocity": 105}, {"time": 154078, "pitch": 69, "duration": 1883, "velocity": 77}, {"time": 154078, "pitch": 73, "duration": 1874, "velocity": 100}, {"time": 156000, "pitch": 72, "duration": 1922, "velocity": 92}, {"time": 156000, "pitch": 75, "duration": 1823, "velocity": 94}, {"time": 157924, "pitch": 67, "duration": 1907, "velocity": 81}, {"time": 157924, "pitch": 71, "duration": 1798, "velocity": 81}, {"time": 157924, "pitch": 74, "duration": 1921, "velocity": 103}, {"time": 159838, "pitch": 66, "duration": 1971, "velocity": 89}, {"time": 159838, "pitch": 69, "duration": 1920, "velocity": 82}, {"time": 159838, "pitch": 73, "duration": 1956, "velocity": 102}, {"time": 169439, "pitch": 57, "duration": 1952, "velocity": 64}, {"time": 169439, "pitch": 61, "duration": 1903, "velocity": 82}, {"time": 169439, "pitch": 66, "duration": 3815, "velocity": 76}, {"time": 171362, "pitch": 60, "duration": 1970, "velocity": 60}, {"time": 171362, "pitch": 63, "duration": 1858, "velocity": 80}, {"time": 173285, "pitch": 59, "duration": 1900, "velocity": 69}, {"time": 173285, "pitch": 62, "duration": 1936, "velocity": 82}, {"time": 173285, "pitch": 67, "duration": 1889, "velocity": 64}, {"time": 177124, "pitch": 69, "duration": 1910, "velocity": 86}, {"time": 177124, "pitch": 73, "duration": 1896, "velocity": 100}, {"time": 177124, "pitch": 78, "duration": 11573, "velocity": 94}, {"time": 179037, "pitch": 72, "duration": 1898, "velocity": 89}, {"time": 179037, "pitch": 75, "duration": 1928, "velocity": 94}, {"time": 180961, "pitch": 71, "duration": 1895, "velocity": 91}, {"time": 180961, "pitch": 74, "duration": 1965, "velocity": 92}, {"time": 182885, "pitch": 69, "duration": 1897, "velocity": 80}, {"time": 182885, "pitch": 73, "duration": 1895, "velocity": 105}, {"time": 184800, "pitch": 69, "duration": 1883, "velocity": 77}, {"time": 184800, "pitch": 73, "duration": 1874, "velocity": 100}, {"time": 186723, "pitch": 72, "duration": 1912, "velocity": 92}, {"time": 186723, "pitch": 75, "duration": 1813, "velocity": 94}, {"time": 188637, "pitch": 67, "duration": 1917, "velocity": 81}, {"time": 188637, "pitch": 71, "duration": 1807, "velocity": 81}, {"time": 188637, "pitch": 74, "duration": 1931, "velocity": 103}, {"time": 190561, "pitch": 66, "duration": 1953, "velocity": 86}, {"time": 190561, "pitch": 69, "duration": 1965, "velocity": 81}, {"time": 190561, "pitch": 73, "duration": 1961, "velocity": 87}, {"time": 192485, "pitch": 64, "duration": 1834, "velocity": 83}, {"time": 192485, "pitch": 68, "duration": 1818, "velocity": 88}, {"time": 192485, "pitch": 71, "duration": 1847, "velocity": 88}, {"time": 194289, "pitch": 69, "duration": 1961, "velocity": 94}, {"time": 194289, "pitch": 73, "duration": 1986, "velocity": 84}, {"time": 194399, "pitch": 66, "duration": 1971, "velocity": 87}, {"time": 196322, "pitch": 68, "duration": 1961, "velocity": 84}, {"time": 196322, "pitch": 71, "duration": 1975, "velocity": 86}, {"time": 196322, "pitch": 75, "duration": 1939, "velocity": 82}, {"time": 198236, "pitch": 66, "duration": 1885, "velocity": 85}, {"time": 198236, "pitch": 69, "duration": 1925, "velocity": 91}, {"time": 198236, "pitch": 73, "duration": 1919, "velocity": 77}, {"time": 200161, "pitch": 64, "duration": 1886, "velocity": 88}, {"time": 200161, "pitch": 68, "duration": 1887, "velocity": 91}, {"time": 200161, "pitch": 71, "duration": 1904, "velocity": 86}, {"time": 201974, "pitch": 69, "duration": 1944, "velocity": 91}, {"time": 201974, "pitch": 73, "duration": 1960, "velocity": 79}, {"time": 202084, "pitch": 66, "duration": 1904, "velocity": 86}, {"time": 203998, "pitch": 66, "duration": 298, "velocity": 88}, {"time": 203998, "pitch": 69, "duration": 328, "velocity": 80}, {"time": 203998, "pitch": 73, "duration": 316, "velocity": 77}, {"time": 204367, "pitch": 66, "duration": 264, "velocity": 83}, {"time": 204367, "pitch": 69, "duration": 300, "velocity": 82}, {"time": 204367, "pitch": 73, "duration": 308, "velocity": 92}, {"time": 204721, "pitch": 66, "duration": 6931, "velocity": 85}, {"time": 204721, "pitch": 68, "duration": 6920, "velocity": 91}, {"time": 204721, "pitch": 73, "duration": 6929, "velocity": 85}], "annotations": [{"time": 285, "annotation": {"number": 7, "value": 100}, "group": "control_change"}, {"time": 307, "annotation": {"number": 11, "value": 100}, "group": "control_change"}, {"time": 329, "annotation": {"number": 10, "value": 57}, "group": "control_change"}, {"time": 350, "annotation": {"number": 91, "value": 60}, "group": "control_change"}, {"time": 372, "annotation": {"number": 93, "value": 20}, "group": "control_change"}, {"time": 394, "annotation": {"number": 101, "value": 0}, "group": "control_change"}, {"time": 416, "annotation": {"number": 100, "value": 0}, "group": "control_change"}, {"time": 438, "annotation": {"number": 6, "value": 12}, "group": "control_change"}, {"time": 460, "annotation": {"number": 101, "value": 127}, "group": "control_change"}, {"time": 484, "annotation": {"number": 100, "value": 127}, "group": "control_change"}, {"time": 204964, "annotation": {"number": 11, "value": 98}, "group": "control_change"}, {"time": 204965, "annotation": {"number": 11, "value": 97}, "group": "control_change"}, {"time": 205573, "annotation": {"number": 11, "value": 96}, "group": "control_change"}, {"time": 205825, "annotation": {"number": 11, "value": 95}, "group": "control_change"}, {"time": 206018, "annotation": {"number": 11, "value": 94}, "group": "control_change"}, {"time": 206181, "annotation": {"number": 11, "value": 93}, "group": "control_change"}, {"time": 206325, "annotation": {"number": 11, "value": 92}, "group": "control_change"}, {"time": 206455, "annotation": {"number": 11, "value": 91}, "group": "control_change"}, {"time": 206574, "annotation": {"number": 11, "value": 90}, "group": "control_change"}, {"time": 206685, "annotation": {"number": 11, "value": 89}, "group": "control_change"}, {"time": 206790, "annotation": {"number": 11, "value": 88}, "group": "control_change"}, {"time": 206889, "annotation": {"number": 11, "value": 87}, "group": "control_change"}, {"time": 206983, "annotation": {"number": 11, "value": 86}, "group": "control_change"}, {"time": 207072, "annotation": {"number": 11, "value": 85}, "group": "control_change"}, {"time": 207159, "annotation": {"number": 11, "value": 84}, "group": "control_change"}, {"time": 207242, "annotation": {"number": 11, "value": 83}, "group": "control_change"}, {"time": 207322, "annotation": {"number": 11, "value": 82}, "group": "control_change"}, {"time": 207399, "annotation": {"number": 11, "value": 81}, "group": "control_change"}, {"time": 207476, "annotation": {"number": 11, "value": 80}, "group": "control_change"}, {"time": 207551, "annotation": {"number": 11, "value": 79}, "group": "control_change"}, {"time": 207623, "annotation": {"number": 11, "value": 78}, "group": "control_change"}, {"time": 207693, "annotation": {"number": 11, "value": 77}, "group": "control_change"}, {"time": 207761, "annotation": {"number": 11, "value": 76}, "group": "control_change"}, {"time": 207828, "annotation": {"number": 11, "value": 75}, "group": "control_change"}, {"time": 207892, "annotation": {"number": 11, "value": 74}, "group": "control_change"}, {"time": 207955, "annotation": {"number": 11, "value": 73}, "group": "control_change"}, {"time": 208017, "annotation": {"number": 11, "value": 72}, "group": "control_change"}, {"time": 208077, "annotation": {"number": 11, "value": 71}, "group": "control_change"}, {"time": 208137, "annotation": {"number": 11, "value": 70}, "group": "control_change"}, {"time": 208194, "annotation": {"number": 11, "value": 69}, "group": "control_change"}, {"time": 208251, "annotation": {"number": 11, "value": 68}, "group": "control_change"}, {"time": 208307, "annotation": {"number": 11, "value": 67}, "group": "control_change"}, {"time": 208363, "annotation": {"number": 11, "value": 66}, "group": "control_change"}, {"time": 208417, "annotation": {"number": 11, "value": 65}, "group": "control_change"}, {"time": 208471, "annotation": {"number": 11, "value": 64}, "group": "control_change"}, {"time": 208522, "annotation": {"number": 11, "value": 63}, "group": "control_change"}, {"time": 208574, "annotation": {"number": 11, "value": 62}, "group": "control_change"}, {"time": 208626, "annotation": {"number": 11, "value": 61}, "group": "control_change"}, {"time": 208676, "annotation": {"number": 11, "value": 60}, "group": "control_change"}, {"time": 208726, "annotation": {"number": 11, "value": 59}, "group": "control_change"}, {"time": 208775, "annotation": {"number": 11, "value": 58}, "group": "control_change"}, {"time": 208823, "annotation": {"number": 11, "value": 57}, "group": "control_change"}, {"time": 208871, "annotation": {"number": 11, "value": 56}, "group": "control_change"}, {"time": 208918, "annotation": {"number": 11, "value": 55}, "group": "control_change"}, {"time": 208965, "annotation": {"number": 11, "value": 54}, "group": "control_change"}, {"time": 209011, "annotation": {"number": 11, "value": 53}, "group": "control_change"}, {"time": 209057, "annotation": {"number": 11, "value": 52}, "group": "control_change"}, {"time": 209102, "annotation": {"number": 11, "value": 51}, "group": "control_change"}, {"time": 209146, "annotation": {"number": 11, "value": 50}, "group": "control_change"}, {"time": 209190, "annotation": {"number": 11, "value": 49}, "group": "control_change"}, {"time": 209234, "annotation": {"number": 11, "value": 48}, "group": "control_change"}, {"time": 209278, "annotation": {"number": 11, "value": 47}, "group": "control_change"}, {"time": 209321, "annotation": {"number": 11, "value": 46}, "group": "control_change"}, {"time": 209363, "annotation": {"number": 11, "value": 45}, "group": "control_change"}, {"time": 209405, "annotation": {"number": 11, "value": 44}, "group": "control_change"}, {"time": 209447, "annotation": {"number": 11, "value": 43}, "group": "control_change"}, {"time": 209487, "annotation": {"number": 11, "value": 42}, "group": "control_change"}, {"time": 209528, "annotation": {"number": 11, "value": 41}, "group": "control_change"}, {"time": 209569, "annotation": {"number": 11, "value": 40}, "group": "control_change"}, {"time": 209609, "annotation": {"number": 11, "value": 39}, "group": "control_change"}, {"time": 209649, "annotation": {"number": 11, "value": 38}, "group": "control_change"}, {"time": 209689, "annotation": {"number": 11, "value": 37}, "group": "control_change"}, {"time": 209728, "annotation": {"number": 11, "value": 36}, "group": "control_change"}, {"time": 209767, "annotation": {"number": 11, "value": 35}, "group": "control_change"}, {"time": 209805, "annotation": {"number": 11, "value": 34}, "group": "control_change"}, {"time": 209843, "annotation": {"number": 11, "value": 33}, "group": "control_change"}, {"time": 209881, "annotation": {"number": 11, "value": 32}, "group": "control_change"}, {"time": 209919, "annotation": {"number": 11, "value": 31}, "group": "control_change"}, {"time": 209956, "annotation": {"number": 11, "value": 30}, "group": "control_change"}, {"time": 209993, "annotation": {"number": 11, "value": 29}, "group": "control_change"}, {"time": 210030, "annotation": {"number": 11, "value": 28}, "group": "control_change"}, {"time": 210067, "annotation": {"number": 11, "value": 27}, "group": "control_change"}, {"time": 210103, "annotation": {"number": 11, "value": 26}, "group": "control_change"}, {"time": 210139, "annotation": {"number": 11, "value": 25}, "group": "control_change"}, {"time": 210174, "annotation": {"number": 11, "value": 24}, "group": "control_change"}, {"time": 210210, "annotation": {"number": 11, "value": 23}, "group": "control_change"}, {"time": 210245, "annotation": {"number": 11, "value": 22}, "group": "control_change"}, {"time": 210280, "annotation": {"number": 11, "value": 21}, "group": "control_change"}, {"time": 210315, "annotation": {"number": 11, "value": 20}, "group": "control_change"}, {"time": 210350, "annotation": {"number": 11, "value": 19}, "group": "control_change"}, {"time": 210384, "annotation": {"number": 11, "value": 18}, "group": "control_change"}, {"time": 210418, "annotation": {"number": 11, "value": 17}, "group": "control_change"}, {"time": 210452, "annotation": {"number": 11, "value": 16}, "group": "control_change"}, {"time": 210485, "annotation": {"number": 11, "value": 15}, "group": "control_change"}, {"time": 210519, "annotation": {"number": 11, "value": 14}, "group": "control_change"}, {"time": 210552, "annotation": {"number": 11, "value": 13}, "group": "control_change"}, {"time": 210585, "annotation": {"number": 11, "value": 12}, "group": "control_change"}, {"time": 210618, "annotation": {"number": 11, "value": 11}, "group": "control_change"}, {"time": 210651, "annotation": {"number": 11, "value": 10}, "group": "control_change"}, {"time": 210684, "annotation": {"number": 11, "value": 9}, "group": "control_change"}, {"time": 210716, "annotation": {"number": 11, "value": 8}, "group": "control_change"}, {"time": 210749, "annotation": {"number": 11, "value": 7}, "group": "control_change"}, {"time": 210781, "annotation": {"number": 11, "value": 6}, "group": "control_change"}, {"time": 210812, "annotation": {"number": 11, "value": 5}, "group": "control_change"}, {"time": 210843, "annotation": {"number": 11, "value": 4}, "group": "control_change"}, {"time": 210875, "annotation": {"number": 11, "value": 3}, "group": "control_change"}, {"time": 210906, "annotation": {"number": 11, "value": 2}, "group": "control_change"}, {"time": 210938, "annotation": {"number": 11, "value": 1}, "group": "control_change"}, {"time": 210955, "annotation": {"number": 11, "value": 0}, "group": "control_change"}]}, {"program": 0, "is_drum": true, "name": "DRUMS", "notes": [{"time": 484, "pitch": 49, "duration": 1940, "velocity": 120}, {"time": 485, "pitch": 69, "duration": 37, "velocity": 82}, {"time": 486, "pitch": 54, "duration": 60, "velocity": 81}, {"time": 486, "pitch": 64, "duration": 130, "velocity": 125}, {"time": 614, "pitch": 54, "duration": 33, "velocity": 72}, {"time": 614, "pitch": 63, "duration": 83, "velocity": 115}, {"time": 614, "pitch": 69, "duration": 31, "velocity": 86}, {"time": 724, "pitch": 54, "duration": 81, "velocity": 94}, {"time": 724, "pitch": 62, "duration": 83, "velocity": 115}, {"time": 724, "pitch": 69, "duration": 31, "velocity": 83}, {"time": 854, "pitch": 54, "duration": 34, "velocity": 74}, {"time": 963, "pitch": 54, "duration": 54, "velocity": 79}, {"time": 963, "pitch": 63, "duration": 102, "velocity": 115}, {"time": 963, "pitch": 70, "duration": 65, "velocity": 91}, {"time": 1093, "pitch": 54, "duration": 35, "velocity": 83}, {"time": 1203, "pitch": 54, "duration": 79, "velocity": 103}, {"time": 1203, "pitch": 64, "duration": 43, "velocity": 58}, {"time": 1203, "pitch": 69, "duration": 32, "velocity": 80}, {"time": 1332, "pitch": 54, "duration": 31, "velocity": 77}, {"time": 1332, "pitch": 64, "duration": 254, "velocity": 125}, {"time": 1332, "pitch": 69, "duration": 43, "velocity": 77}, {"time": 1442, "pitch": 54, "duration": 38, "velocity": 66}, {"time": 1442, "pitch": 69, "duration": 36, "velocity": 77}, {"time": 1571, "pitch": 54, "duration": 35, "velocity": 86}, {"time": 1571, "pitch": 63, "duration": 122, "velocity": 101}, {"time": 1571, "pitch": 69, "duration": 47, "velocity": 89}, {"time": 1681, "pitch": 69, "duration": 59, "velocity": 83}, {"time": 1682, "pitch": 54, "duration": 81, "velocity": 107}, {"time": 1682, "pitch": 62, "duration": 56, "velocity": 125}, {"time": 1811, "pitch": 54, "duration": 34, "velocity": 73}, {"time": 1920, "pitch": 70, "duration": 64, "velocity": 88}, {"time": 1921, "pitch": 54, "duration": 44, "velocity": 52}, {"time": 1921, "pitch": 63, "duration": 79, "velocity": 115}, {"time": 2050, "pitch": 54, "duration": 33, "velocity": 82}, {"time": 2160, "pitch": 54, "duration": 80, "velocity": 100}, {"time": 2160, "pitch": 64, "duration": 26, "velocity": 105}, {"time": 2160, "pitch": 69, "duration": 37, "velocity": 84}, {"time": 2289, "pitch": 54, "duration": 33, "velocity": 73}, {"time": 2289, "pitch": 64, "duration": 228, "velocity": 112}, {"time": 2289, "pitch": 69, "duration": 35, "velocity": 73}, {"time": 2399, "pitch": 54, "duration": 48, "velocity": 74}, {"time": 2399, "pitch": 69, "duration": 42, "velocity": 72}, {"time": 2529, "pitch": 54, "duration": 46, "velocity": 88}, {"time": 2529, "pitch": 63, "duration": 109, "velocity": 98}, {"time": 2529, "pitch": 69, "duration": 39, "velocity": 91}, {"time": 2638, "pitch": 54, "duration": 81, "velocity": 112}, {"time": 2638, "pitch": 62, "duration": 71, "velocity": 119}, {"time": 2639, "pitch": 69, "duration": 56, "velocity": 86}, {"time": 2768, "pitch": 54, "duration": 33, "velocity": 66}, {"time": 2877, "pitch": 54, "duration": 46, "velocity": 53}, {"time": 2877, "pitch": 63, "duration": 98, "velocity": 110}, {"time": 2877, "pitch": 70, "duration": 72, "velocity": 89}, {"time": 3010, "pitch": 54, "duration": 42, "velocity": 73}, {"time": 3121, "pitch": 54, "duration": 74, "velocity": 112}, {"time": 3121, "pitch": 64, "duration": 34, "velocity": 105}, {"time": 3121, "pitch": 69, "duration": 41, "velocity": 86}, {"time": 3254, "pitch": 54, "duration": 30, "velocity": 83}, {"time": 3254, "pitch": 64, "duration": 230, "velocity": 115}, {"time": 3254, "pitch": 69, "duration": 33, "velocity": 77}, {"time": 3365, "pitch": 54, "duration": 43, "velocity": 84}, {"time": 3365, "pitch": 69, "duration": 45, "velocity": 84}, {"time": 3495, "pitch": 54, "duration": 42, "velocity": 88}, {"time": 3495, "pitch": 63, "duration": 113, "velocity": 97}, {"time": 3495, "pitch": 69, "duration": 30, "velocity": 81}, {"time": 3605, "pitch": 54, "duration": 80, "velocity": 110}, {"time": 3605, "pitch": 62, "duration": 64, "velocity": 124}, {"time": 3605, "pitch": 69, "duration": 91, "velocity": 94}, {"time": 3734, "pitch": 54, "duration": 38, "velocity": 67}, {"time": 3844, "pitch": 54, "duration": 52, "velocity": 58}, {"time": 3844, "pitch": 63, "duration": 86, "velocity": 115}, {"time": 3844, "pitch": 70, "duration": 81, "velocity": 91}, {"time": 3974, "pitch": 54, "duration": 39, "velocity": 76}, {"time": 3974, "pitch": 63, "duration": 27, "velocity": 99}, {"time": 4083, "pitch": 54, "duration": 81, "velocity": 107}, {"time": 4083, "pitch": 64, "duration": 48, "velocity": 58}, {"time": 4083, "pitch": 69, "duration": 35, "velocity": 82}, {"time": 4213, "pitch": 54, "duration": 35, "velocity": 75}, {"time": 4213, "pitch": 64, "duration": 94, "velocity": 74}, {"time": 4213, "pitch": 69, "duration": 38, "velocity": 88}, {"time": 4323, "pitch": 64, "duration": 132, "velocity": 98}, {"time": 4323, "pitch": 69, "duration": 36, "velocity": 82}, {"time": 4324, "pitch": 54, "duration": 60, "velocity": 81}, {"time": 4452, "pitch": 54, "duration": 33, "velocity": 72}, {"time": 4452, "pitch": 63, "duration": 81, "velocity": 115}, {"time": 4452, "pitch": 69, "duration": 31, "velocity": 86}, {"time": 4562, "pitch": 54, "duration": 81, "velocity": 94}, {"time": 4562, "pitch": 62, "duration": 69, "velocity": 119}, {"time": 4562, "pitch": 69, "duration": 31, "velocity": 83}, {"time": 4691, "pitch": 54, "duration": 35, "velocity": 74}, {"time": 4801, "pitch": 54, "duration": 54, "velocity": 79}, {"time": 4801, "pitch": 63, "duration": 79, "velocity": 112}, {"time": 4801, "pitch": 70, "duration": 65, "velocity": 91}, {"time": 4931, "pitch": 54, "duration": 35, "velocity": 83}, {"time": 5040, "pitch": 54, "duration": 80, "velocity": 103}, {"time": 5040, "pitch": 64, "duration": 31, "velocity": 99}, {"time": 5040, "pitch": 69, "duration": 33, "velocity": 80}, {"time": 5170, "pitch": 54, "duration": 31, "velocity": 77}, {"time": 5170, "pitch": 64, "duration": 194, "velocity": 108}, {"time": 5170, "pitch": 69, "duration": 43, "velocity": 77}, {"time": 5280, "pitch": 54, "duration": 38, "velocity": 66}, {"time": 5280, "pitch": 69, "duration": 36, "velocity": 77}, {"time": 5409, "pitch": 54, "duration": 35, "velocity": 86}, {"time": 5409, "pitch": 63, "duration": 85, "velocity": 92}, {"time": 5409, "pitch": 69, "duration": 47, "velocity": 89}, {"time": 5519, "pitch": 62, "duration": 97, "velocity": 125}, {"time": 5519, "pitch": 69, "duration": 59, "velocity": 83}, {"time": 5520, "pitch": 54, "duration": 81, "velocity": 107}, {"time": 5649, "pitch": 54, "duration": 34, "velocity": 73}, {"time": 5758, "pitch": 63, "duration": 85, "velocity": 117}, {"time": 5758, "pitch": 70, "duration": 64, "velocity": 88}, {"time": 5759, "pitch": 54, "duration": 44, "velocity": 52}, {"time": 5888, "pitch": 54, "duration": 33, "velocity": 82}, {"time": 5998, "pitch": 54, "duration": 80, "velocity": 100}, {"time": 5998, "pitch": 64, "duration": 28, "velocity": 99}, {"time": 5998, "pitch": 69, "duration": 36, "velocity": 84}, {"time": 6127, "pitch": 54, "duration": 33, "velocity": 73}, {"time": 6127, "pitch": 69, "duration": 35, "velocity": 73}, {"time": 6237, "pitch": 54, "duration": 49, "velocity": 74}, {"time": 6237, "pitch": 64, "duration": 92, "velocity": 33}, {"time": 6237, "pitch": 69, "duration": 42, "velocity": 72}, {"time": 6369, "pitch": 54, "duration": 48, "velocity": 88}, {"time": 6369, "pitch": 63, "duration": 88, "velocity": 117}, {"time": 6369, "pitch": 69, "duration": 41, "velocity": 91}, {"time": 6481, "pitch": 54, "duration": 82, "velocity": 112}, {"time": 6482, "pitch": 62, "duration": 91, "velocity": 124}, {"time": 6482, "pitch": 69, "duration": 57, "velocity": 86}, {"time": 6613, "pitch": 54, "duration": 34, "velocity": 66}, {"time": 6725, "pitch": 54, "duration": 45, "velocity": 53}, {"time": 6725, "pitch": 63, "duration": 79, "velocity": 124}, {"time": 6725, "pitch": 70, "duration": 70, "velocity": 89}, {"time": 6854, "pitch": 54, "duration": 42, "velocity": 73}, {"time": 6854, "pitch": 64, "duration": 28, "velocity": 117}, {"time": 6964, "pitch": 54, "duration": 72, "velocity": 112}, {"time": 6964, "pitch": 63, "duration": 29, "velocity": 88}, {"time": 6964, "pitch": 69, "duration": 40, "velocity": 86}, {"time": 7094, "pitch": 54, "duration": 30, "velocity": 83}, {"time": 7094, "pitch": 63, "duration": 87, "velocity": 125}, {"time": 7094, "pitch": 69, "duration": 33, "velocity": 77}, {"time": 7203, "pitch": 54, "duration": 43, "velocity": 84}, {"time": 7203, "pitch": 69, "duration": 45, "velocity": 84}, {"time": 7333, "pitch": 54, "duration": 42, "velocity": 88}, {"time": 7333, "pitch": 63, "duration": 60, "velocity": 115}, {"time": 7333, "pitch": 69, "duration": 30, "velocity": 81}, {"time": 7443, "pitch": 54, "duration": 80, "velocity": 110}, {"time": 7443, "pitch": 62, "duration": 122, "velocity": 125}, {"time": 7443, "pitch": 69, "duration": 91, "velocity": 94}, {"time": 7572, "pitch": 54, "duration": 38, "velocity": 67}, {"time": 7682, "pitch": 54, "duration": 52, "velocity": 58}, {"time": 7682, "pitch": 63, "duration": 64, "velocity": 117}, {"time": 7682, "pitch": 70, "duration": 81, "velocity": 91}, {"time": 7812, "pitch": 54, "duration": 38, "velocity": 76}, {"time": 7921, "pitch": 54, "duration": 81, "velocity": 107}, {"time": 7921, "pitch": 64, "duration": 27, "velocity": 115}, {"time": 7921, "pitch": 69, "duration": 35, "velocity": 82}, {"time": 8051, "pitch": 54, "duration": 35, "velocity": 75}, {"time": 8051, "pitch": 64, "duration": 100, "velocity": 110}, {"time": 8051, "pitch": 69, "duration": 38, "velocity": 88}, {"time": 8160, "pitch": 49, "duration": 1949, "velocity": 120}, {"time": 8161, "pitch": 69, "duration": 36, "velocity": 82}, {"time": 8162, "pitch": 54, "duration": 60, "velocity": 81}, {"time": 8162, "pitch": 64, "duration": 130, "velocity": 125}, {"time": 8290, "pitch": 54, "duration": 33, "velocity": 72}, {"time": 8290, "pitch": 63, "duration": 83, "velocity": 115}, {"time": 8290, "pitch": 69, "duration": 31, "velocity": 86}, {"time": 8400, "pitch": 54, "duration": 81, "velocity": 94}, {"time": 8400, "pitch": 62, "duration": 83, "velocity": 115}, {"time": 8400, "pitch": 69, "duration": 31, "velocity": 83}, {"time": 8529, "pitch": 54, "duration": 35, "velocity": 74}, {"time": 8639, "pitch": 54, "duration": 54, "velocity": 79}, {"time": 8639, "pitch": 63, "duration": 102, "velocity": 115}, {"time": 8639, "pitch": 70, "duration": 65, "velocity": 91}, {"time": 8769, "pitch": 54, "duration": 35, "velocity": 83}, {"time": 8878, "pitch": 54, "duration": 80, "velocity": 103}, {"time": 8878, "pitch": 64, "duration": 44, "velocity": 58}, {"time": 8878, "pitch": 69, "duration": 33, "velocity": 80}, {"time": 9008, "pitch": 54, "duration": 31, "velocity": 77}, {"time": 9008, "pitch": 64, "duration": 257, "velocity": 125}, {"time": 9008, "pitch": 69, "duration": 43, "velocity": 77}, {"time": 9118, "pitch": 54, "duration": 38, "velocity": 66}, {"time": 9118, "pitch": 69, "duration": 36, "velocity": 77}, {"time": 9250, "pitch": 54, "duration": 35, "velocity": 86}, {"time": 9250, "pitch": 63, "duration": 124, "velocity": 101}, {"time": 9250, "pitch": 69, "duration": 48, "velocity": 89}, {"time": 9362, "pitch": 69, "duration": 60, "velocity": 83}, {"time": 9363, "pitch": 54, "duration": 82, "velocity": 107}, {"time": 9363, "pitch": 62, "duration": 57, "velocity": 125}, {"time": 9494, "pitch": 54, "duration": 34, "velocity": 73}, {"time": 9606, "pitch": 70, "duration": 63, "velocity": 88}, {"time": 9607, "pitch": 54, "duration": 43, "velocity": 52}, {"time": 9607, "pitch": 63, "duration": 78, "velocity": 115}, {"time": 9735, "pitch": 54, "duration": 33, "velocity": 82}, {"time": 9845, "pitch": 54, "duration": 81, "velocity": 100}, {"time": 9845, "pitch": 64, "duration": 26, "velocity": 105}, {"time": 9845, "pitch": 69, "duration": 37, "velocity": 84}, {"time": 9975, "pitch": 54, "duration": 32, "velocity": 73}, {"time": 9975, "pitch": 64, "duration": 227, "velocity": 112}, {"time": 9975, "pitch": 69, "duration": 34, "velocity": 73}, {"time": 10084, "pitch": 54, "duration": 48, "velocity": 74}, {"time": 10084, "pitch": 69, "duration": 42, "velocity": 72}, {"time": 10214, "pitch": 54, "duration": 47, "velocity": 88}, {"time": 10214, "pitch": 63, "duration": 109, "velocity": 98}, {"time": 10214, "pitch": 69, "duration": 40, "velocity": 91}, {"time": 10323, "pitch": 54, "duration": 81, "velocity": 112}, {"time": 10323, "pitch": 62, "duration": 71, "velocity": 119}, {"time": 10324, "pitch": 69, "duration": 56, "velocity": 86}, {"time": 10453, "pitch": 54, "duration": 33, "velocity": 66}, {"time": 10563, "pitch": 54, "duration": 45, "velocity": 53}, {"time": 10563, "pitch": 63, "duration": 95, "velocity": 110}, {"time": 10563, "pitch": 70, "duration": 70, "velocity": 89}, {"time": 10692, "pitch": 54, "duration": 42, "velocity": 73}, {"time": 10802, "pitch": 54, "duration": 72, "velocity": 112}, {"time": 10802, "pitch": 64, "duration": 33, "velocity": 105}, {"time": 10802, "pitch": 69, "duration": 40, "velocity": 86}, {"time": 10932, "pitch": 54, "duration": 30, "velocity": 83}, {"time": 10932, "pitch": 64, "duration": 228, "velocity": 115}, {"time": 10932, "pitch": 69, "duration": 33, "velocity": 77}, {"time": 11041, "pitch": 54, "duration": 43, "velocity": 84}, {"time": 11041, "pitch": 69, "duration": 45, "velocity": 84}, {"time": 11171, "pitch": 54, "duration": 42, "velocity": 88}, {"time": 11171, "pitch": 63, "duration": 113, "velocity": 97}, {"time": 11171, "pitch": 69, "duration": 30, "velocity": 81}, {"time": 11281, "pitch": 54, "duration": 80, "velocity": 110}, {"time": 11281, "pitch": 62, "duration": 63, "velocity": 124}, {"time": 11281, "pitch": 69, "duration": 91, "velocity": 94}, {"time": 11410, "pitch": 54, "duration": 38, "velocity": 67}, {"time": 11520, "pitch": 54, "duration": 52, "velocity": 58}, {"time": 11520, "pitch": 63, "duration": 86, "velocity": 115}, {"time": 11520, "pitch": 70, "duration": 81, "velocity": 91}, {"time": 11649, "pitch": 54, "duration": 39, "velocity": 76}, {"time": 11649, "pitch": 63, "duration": 27, "velocity": 99}, {"time": 11759, "pitch": 54, "duration": 81, "velocity": 107}, {"time": 11759, "pitch": 64, "duration": 48, "velocity": 58}, {"time": 11759, "pitch": 69, "duration": 35, "velocity": 82}, {"time": 11889, "pitch": 54, "duration": 35, "velocity": 75}, {"time": 11889, "pitch": 64, "duration": 93, "velocity": 74}, {"time": 11889, "pitch": 69, "duration": 38, "velocity": 88}, {"time": 11998, "pitch": 64, "duration": 133, "velocity": 98}, {"time": 11998, "pitch": 69, "duration": 37, "velocity": 82}, {"time": 11999, "pitch": 54, "duration": 61, "velocity": 81}, {"time": 12128, "pitch": 54, "duration": 33, "velocity": 72}, {"time": 12128, "pitch": 63, "duration": 81, "velocity": 115}, {"time": 12128, "pitch": 69, "duration": 31, "velocity": 86}, {"time": 12238, "pitch": 54, "duration": 80, "velocity": 94}, {"time": 12238, "pitch": 62, "duration": 69, "velocity": 119}, {"time": 12238, "pitch": 69, "duration": 31, "velocity": 83}, {"time": 12367, "pitch": 54, "duration": 35, "velocity": 74}, {"time": 12477, "pitch": 54, "duration": 55, "velocity": 79}, {"time": 12477, "pitch": 63, "duration": 80, "velocity": 112}, {"time": 12477, "pitch": 70, "duration": 66, "velocity": 91}, {"time": 12609, "pitch": 54, "duration": 36, "velocity": 83}, {"time": 12721, "pitch": 54, "duration": 81, "velocity": 103}, {"time": 12721, "pitch": 64, "duration": 32, "velocity": 99}, {"time": 12721, "pitch": 69, "duration": 34, "velocity": 80}, {"time": 12853, "pitch": 54, "duration": 32, "velocity": 77}, {"time": 12853, "pitch": 64, "duration": 197, "velocity": 108}, {"time": 12853, "pitch": 69, "duration": 44, "velocity": 77}, {"time": 12965, "pitch": 54, "duration": 38, "velocity": 66}, {"time": 12965, "pitch": 69, "duration": 36, "velocity": 77}, {"time": 13095, "pitch": 54, "duration": 34, "velocity": 86}, {"time": 13095, "pitch": 63, "duration": 84, "velocity": 92}, {"time": 13095, "pitch": 69, "duration": 46, "velocity": 89}, {"time": 13204, "pitch": 62, "duration": 97, "velocity": 125}, {"time": 13204, "pitch": 69, "duration": 59, "velocity": 83}, {"time": 13205, "pitch": 54, "duration": 81, "velocity": 107}, {"time": 13334, "pitch": 54, "duration": 34, "velocity": 73}, {"time": 13444, "pitch": 63, "duration": 84, "velocity": 117}, {"time": 13444, "pitch": 70, "duration": 63, "velocity": 88}, {"time": 13445, "pitch": 54, "duration": 43, "velocity": 52}, {"time": 13573, "pitch": 54, "duration": 33, "velocity": 82}, {"time": 13683, "pitch": 54, "duration": 81, "velocity": 100}, {"time": 13683, "pitch": 64, "duration": 29, "velocity": 99}, {"time": 13683, "pitch": 69, "duration": 37, "velocity": 84}, {"time": 13812, "pitch": 54, "duration": 33, "velocity": 73}, {"time": 13812, "pitch": 69, "duration": 35, "velocity": 73}, {"time": 13922, "pitch": 54, "duration": 48, "velocity": 74}, {"time": 13922, "pitch": 64, "duration": 91, "velocity": 33}, {"time": 13922, "pitch": 69, "duration": 42, "velocity": 72}, {"time": 14052, "pitch": 54, "duration": 47, "velocity": 88}, {"time": 14052, "pitch": 63, "duration": 86, "velocity": 117}, {"time": 14052, "pitch": 69, "duration": 40, "velocity": 91}, {"time": 14161, "pitch": 54, "duration": 81, "velocity": 112}, {"time": 14162, "pitch": 62, "duration": 90, "velocity": 124}, {"time": 14162, "pitch": 69, "duration": 56, "velocity": 86}, {"time": 14291, "pitch": 54, "duration": 33, "velocity": 66}, {"time": 14401, "pitch": 54, "duration": 45, "velocity": 53}, {"time": 14401, "pitch": 63, "duration": 78, "velocity": 124}, {"time": 14401, "pitch": 70, "duration": 69, "velocity": 89}, {"time": 14530, "pitch": 54, "duration": 42, "velocity": 73}, {"time": 14530, "pitch": 64, "duration": 28, "velocity": 117}, {"time": 14640, "pitch": 54, "duration": 72, "velocity": 112}, {"time": 14640, "pitch": 63, "duration": 29, "velocity": 88}, {"time": 14640, "pitch": 69, "duration": 40, "velocity": 86}, {"time": 14770, "pitch": 54, "duration": 29, "velocity": 83}, {"time": 14770, "pitch": 63, "duration": 87, "velocity": 125}, {"time": 14770, "pitch": 69, "duration": 32, "velocity": 77}, {"time": 14879, "pitch": 54, "duration": 43, "velocity": 84}, {"time": 14879, "pitch": 69, "duration": 45, "velocity": 84}, {"time": 15009, "pitch": 54, "duration": 42, "velocity": 88}, {"time": 15009, "pitch": 63, "duration": 60, "velocity": 115}, {"time": 15009, "pitch": 69, "duration": 30, "velocity": 81}, {"time": 15119, "pitch": 54, "duration": 80, "velocity": 110}, {"time": 15119, "pitch": 62, "duration": 122, "velocity": 125}, {"time": 15119, "pitch": 69, "duration": 91, "velocity": 94}, {"time": 15248, "pitch": 54, "duration": 38, "velocity": 67}, {"time": 15358, "pitch": 54, "duration": 52, "velocity": 58}, {"time": 15358, "pitch": 63, "duration": 64, "velocity": 117}, {"time": 15358, "pitch": 70, "duration": 81, "velocity": 91}, {"time": 15487, "pitch": 54, "duration": 39, "velocity": 76}, {"time": 15597, "pitch": 54, "duration": 81, "velocity": 107}, {"time": 15597, "pitch": 64, "duration": 27, "velocity": 115}, {"time": 15597, "pitch": 69, "duration": 35, "velocity": 82}, {"time": 15727, "pitch": 54, "duration": 35, "velocity": 75}, {"time": 15727, "pitch": 64, "duration": 99, "velocity": 110}, {"time": 15727, "pitch": 69, "duration": 38, "velocity": 88}, {"time": 15835, "pitch": 49, "duration": 1950, "velocity": 120}, {"time": 15836, "pitch": 69, "duration": 38, "velocity": 82}, {"time": 15837, "pitch": 54, "duration": 62, "velocity": 81}, {"time": 15837, "pitch": 64, "duration": 134, "velocity": 125}, {"time": 15968, "pitch": 54, "duration": 34, "velocity": 72}, {"time": 15968, "pitch": 63, "duration": 85, "velocity": 115}, {"time": 15968, "pitch": 69, "duration": 32, "velocity": 86}, {"time": 16080, "pitch": 54, "duration": 83, "velocity": 94}, {"time": 16080, "pitch": 62, "duration": 85, "velocity": 115}, {"time": 16080, "pitch": 69, "duration": 32, "velocity": 83}, {"time": 16213, "pitch": 54, "duration": 35, "velocity": 74}, {"time": 16324, "pitch": 54, "duration": 54, "velocity": 79}, {"time": 16324, "pitch": 63, "duration": 102, "velocity": 115}, {"time": 16324, "pitch": 70, "duration": 65, "velocity": 91}, {"time": 16454, "pitch": 54, "duration": 35, "velocity": 83}, {"time": 16564, "pitch": 54, "duration": 79, "velocity": 103}, {"time": 16564, "pitch": 64, "duration": 43, "velocity": 58}, {"time": 16564, "pitch": 69, "duration": 33, "velocity": 80}, {"time": 16693, "pitch": 54, "duration": 31, "velocity": 77}, {"time": 16693, "pitch": 64, "duration": 254, "velocity": 125}, {"time": 16693, "pitch": 69, "duration": 43, "velocity": 77}, {"time": 16803, "pitch": 54, "duration": 38, "velocity": 66}, {"time": 16803, "pitch": 69, "duration": 36, "velocity": 77}, {"time": 16933, "pitch": 54, "duration": 34, "velocity": 86}, {"time": 16933, "pitch": 63, "duration": 121, "velocity": 101}, {"time": 16933, "pitch": 69, "duration": 46, "velocity": 89}, {"time": 17042, "pitch": 69, "duration": 59, "velocity": 83}, {"time": 17043, "pitch": 54, "duration": 81, "velocity": 107}, {"time": 17043, "pitch": 62, "duration": 56, "velocity": 125}, {"time": 17172, "pitch": 54, "duration": 34, "velocity": 73}, {"time": 17281, "pitch": 70, "duration": 64, "velocity": 88}, {"time": 17282, "pitch": 54, "duration": 44, "velocity": 52}, {"time": 17282, "pitch": 63, "duration": 79, "velocity": 115}, {"time": 17411, "pitch": 54, "duration": 33, "velocity": 82}, {"time": 17521, "pitch": 54, "duration": 80, "velocity": 100}, {"time": 17521, "pitch": 64, "duration": 26, "velocity": 105}, {"time": 17521, "pitch": 69, "duration": 37, "velocity": 84}, {"time": 17650, "pitch": 54, "duration": 33, "velocity": 73}, {"time": 17650, "pitch": 64, "duration": 228, "velocity": 112}, {"time": 17650, "pitch": 69, "duration": 35, "velocity": 73}, {"time": 17760, "pitch": 54, "duration": 48, "velocity": 74}, {"time": 17760, "pitch": 69, "duration": 42, "velocity": 72}, {"time": 17890, "pitch": 54, "duration": 46, "velocity": 88}, {"time": 17890, "pitch": 63, "duration": 109, "velocity": 98}, {"time": 17890, "pitch": 69, "duration": 40, "velocity": 91}, {"time": 17999, "pitch": 54, "duration": 81, "velocity": 112}, {"time": 17999, "pitch": 62, "duration": 71, "velocity": 119}, {"time": 18000, "pitch": 69, "duration": 56, "velocity": 86}, {"time": 18129, "pitch": 54, "duration": 33, "velocity": 66}, {"time": 18239, "pitch": 54, "duration": 44, "velocity": 53}, {"time": 18239, "pitch": 63, "duration": 95, "velocity": 110}, {"time": 18239, "pitch": 70, "duration": 69, "velocity": 89}, {"time": 18368, "pitch": 54, "duration": 42, "velocity": 73}, {"time": 18478, "pitch": 54, "duration": 72, "velocity": 112}, {"time": 18478, "pitch": 64, "duration": 33, "velocity": 105}, {"time": 18478, "pitch": 69, "duration": 40, "velocity": 86}, {"time": 18607, "pitch": 54, "duration": 30, "velocity": 83}, {"time": 18607, "pitch": 64, "duration": 231, "velocity": 115}, {"time": 18607, "pitch": 69, "duration": 33, "velocity": 77}, {"time": 18717, "pitch": 54, "duration": 44, "velocity": 84}, {"time": 18717, "pitch": 69, "duration": 46, "velocity": 84}, {"time": 18849, "pitch": 54, "duration": 43, "velocity": 88}, {"time": 18849, "pitch": 63, "duration": 115, "velocity": 97}, {"time": 18849, "pitch": 69, "duration": 31, "velocity": 81}, {"time": 18961, "pitch": 54, "duration": 83, "velocity": 110}, {"time": 18961, "pitch": 62, "duration": 65, "velocity": 124}, {"time": 18961, "pitch": 69, "duration": 94, "velocity": 94}, {"time": 19093, "pitch": 54, "duration": 39, "velocity": 67}, {"time": 19205, "pitch": 54, "duration": 52, "velocity": 58}, {"time": 19205, "pitch": 63, "duration": 86, "velocity": 115}, {"time": 19205, "pitch": 70, "duration": 81, "velocity": 91}, {"time": 19335, "pitch": 54, "duration": 39, "velocity": 76}, {"time": 19335, "pitch": 63, "duration": 27, "velocity": 99}, {"time": 19444, "pitch": 54, "duration": 81, "velocity": 107}, {"time": 19444, "pitch": 64, "duration": 48, "velocity": 58}, {"time": 19444, "pitch": 69, "duration": 35, "velocity": 82}, {"time": 19574, "pitch": 54, "duration": 35, "velocity": 75}, {"time": 19574, "pitch": 64, "duration": 94, "velocity": 74}, {"time": 19574, "pitch": 69, "duration": 38, "velocity": 88}, {"time": 19684, "pitch": 64, "duration": 132, "velocity": 98}, {"time": 19684, "pitch": 69, "duration": 37, "velocity": 82}, {"time": 19685, "pitch": 54, "duration": 60, "velocity": 81}, {"time": 19813, "pitch": 54, "duration": 33, "velocity": 72}, {"time": 19813, "pitch": 63, "duration": 81, "velocity": 115}, {"time": 19813, "pitch": 69, "duration": 31, "velocity": 86}, {"time": 19923, "pitch": 54, "duration": 81, "velocity": 94}, {"time": 19923, "pitch": 62, "duration": 69, "velocity": 119}, {"time": 19923, "pitch": 69, "duration": 31, "velocity": 83}, {"time": 20053, "pitch": 54, "duration": 34, "velocity": 74}, {"time": 20162, "pitch": 54, "duration": 54, "velocity": 79}, {"time": 20162, "pitch": 63, "duration": 79, "velocity": 112}, {"time": 20162, "pitch": 70, "duration": 65, "velocity": 91}, {"time": 20292, "pitch": 54, "duration": 35, "velocity": 83}, {"time": 20402, "pitch": 54, "duration": 79, "velocity": 103}, {"time": 20402, "pitch": 64, "duration": 30, "velocity": 99}, {"time": 20402, "pitch": 69, "duration": 32, "velocity": 80}, {"time": 20531, "pitch": 54, "duration": 31, "velocity": 77}, {"time": 20531, "pitch": 64, "duration": 195, "velocity": 108}, {"time": 20531, "pitch": 69, "duration": 43, "velocity": 77}, {"time": 20641, "pitch": 54, "duration": 38, "velocity": 66}, {"time": 20641, "pitch": 69, "duration": 36, "velocity": 77}, {"time": 20770, "pitch": 54, "duration": 35, "velocity": 86}, {"time": 20770, "pitch": 63, "duration": 85, "velocity": 92}, {"time": 20770, "pitch": 69, "duration": 47, "velocity": 89}, {"time": 20880, "pitch": 62, "duration": 97, "velocity": 125}, {"time": 20880, "pitch": 69, "duration": 59, "velocity": 83}, {"time": 20881, "pitch": 54, "duration": 81, "velocity": 107}, {"time": 21010, "pitch": 54, "duration": 34, "velocity": 73}, {"time": 21119, "pitch": 63, "duration": 85, "velocity": 117}, {"time": 21119, "pitch": 70, "duration": 64, "velocity": 88}, {"time": 21120, "pitch": 54, "duration": 44, "velocity": 52}, {"time": 21249, "pitch": 54, "duration": 33, "velocity": 82}, {"time": 21359, "pitch": 54, "duration": 80, "velocity": 100}, {"time": 21359, "pitch": 64, "duration": 29, "velocity": 99}, {"time": 21359, "pitch": 69, "duration": 37, "velocity": 84}, {"time": 21488, "pitch": 54, "duration": 33, "velocity": 73}, {"time": 21488, "pitch": 69, "duration": 35, "velocity": 73}, {"time": 21598, "pitch": 54, "duration": 48, "velocity": 74}, {"time": 21598, "pitch": 64, "duration": 91, "velocity": 33}, {"time": 21598, "pitch": 69, "duration": 42, "velocity": 72}, {"time": 21728, "pitch": 54, "duration": 46, "velocity": 88}, {"time": 21728, "pitch": 63, "duration": 86, "velocity": 117}, {"time": 21728, "pitch": 69, "duration": 39, "velocity": 91}, {"time": 21837, "pitch": 54, "duration": 81, "velocity": 112}, {"time": 21838, "pitch": 62, "duration": 90, "velocity": 124}, {"time": 21838, "pitch": 69, "duration": 56, "velocity": 86}, {"time": 21967, "pitch": 54, "duration": 33, "velocity": 66}, {"time": 22077, "pitch": 54, "duration": 45, "velocity": 53}, {"time": 22077, "pitch": 63, "duration": 80, "velocity": 124}, {"time": 22077, "pitch": 70, "duration": 71, "velocity": 89}, {"time": 22209, "pitch": 54, "duration": 42, "velocity": 73}, {"time": 22209, "pitch": 64, "duration": 28, "velocity": 117}, {"time": 22321, "pitch": 54, "duration": 73, "velocity": 112}, {"time": 22321, "pitch": 63, "duration": 29, "velocity": 88}, {"time": 22321, "pitch": 69, "duration": 40, "velocity": 86}, {"time": 22453, "pitch": 54, "duration": 30, "velocity": 83}, {"time": 22453, "pitch": 63, "duration": 89, "velocity": 125}, {"time": 22453, "pitch": 69, "duration": 33, "velocity": 77}, {"time": 22564, "pitch": 54, "duration": 43, "velocity": 84}, {"time": 22564, "pitch": 69, "duration": 45, "velocity": 84}, {"time": 22694, "pitch": 54, "duration": 42, "velocity": 88}, {"time": 22694, "pitch": 63, "duration": 60, "velocity": 115}, {"time": 22694, "pitch": 69, "duration": 30, "velocity": 81}, {"time": 22804, "pitch": 54, "duration": 81, "velocity": 110}, {"time": 22804, "pitch": 62, "duration": 122, "velocity": 125}, {"time": 22804, "pitch": 69, "duration": 91, "velocity": 94}, {"time": 22933, "pitch": 54, "duration": 38, "velocity": 67}, {"time": 23043, "pitch": 54, "duration": 52, "velocity": 58}, {"time": 23043, "pitch": 63, "duration": 64, "velocity": 117}, {"time": 23043, "pitch": 70, "duration": 81, "velocity": 91}, {"time": 23173, "pitch": 54, "duration": 39, "velocity": 76}, {"time": 23282, "pitch": 54, "duration": 81, "velocity": 107}, {"time": 23282, "pitch": 64, "duration": 27, "velocity": 115}, {"time": 23282, "pitch": 69, "duration": 35, "velocity": 82}, {"time": 23412, "pitch": 54, "duration": 35, "velocity": 75}, {"time": 23412, "pitch": 64, "duration": 100, "velocity": 110}, {"time": 23412, "pitch": 69, "duration": 38, "velocity": 88}, {"time": 23521, "pitch": 49, "duration": 1949, "velocity": 120}, {"time": 23522, "pitch": 69, "duration": 36, "velocity": 82}, {"time": 23523, "pitch": 54, "duration": 60, "velocity": 81}, {"time": 23523, "pitch": 64, "duration": 130, "velocity": 125}, {"time": 23651, "pitch": 54, "duration": 33, "velocity": 72}, {"time": 23651, "pitch": 63, "duration": 83, "velocity": 115}, {"time": 23651, "pitch": 69, "duration": 31, "velocity": 86}, {"time": 23761, "pitch": 54, "duration": 81, "velocity": 94}, {"time": 23761, "pitch": 62, "duration": 83, "velocity": 115}, {"time": 23761, "pitch": 69, "duration": 31, "velocity": 83}, {"time": 23890, "pitch": 54, "duration": 35, "velocity": 74}, {"time": 24000, "pitch": 54, "duration": 54, "velocity": 79}, {"time": 24000, "pitch": 63, "duration": 102, "velocity": 115}, {"time": 24000, "pitch": 70, "duration": 65, "velocity": 91}, {"time": 24130, "pitch": 54, "duration": 35, "velocity": 83}, {"time": 24239, "pitch": 54, "duration": 80, "velocity": 103}, {"time": 24239, "pitch": 64, "duration": 44, "velocity": 58}, {"time": 24239, "pitch": 69, "duration": 33, "velocity": 80}, {"time": 24369, "pitch": 54, "duration": 31, "velocity": 77}, {"time": 24369, "pitch": 64, "duration": 254, "velocity": 125}, {"time": 24369, "pitch": 69, "duration": 43, "velocity": 77}, {"time": 24479, "pitch": 54, "duration": 38, "velocity": 66}, {"time": 24479, "pitch": 69, "duration": 36, "velocity": 77}, {"time": 24608, "pitch": 54, "duration": 35, "velocity": 86}, {"time": 24608, "pitch": 63, "duration": 122, "velocity": 101}, {"time": 24608, "pitch": 69, "duration": 47, "velocity": 89}, {"time": 24718, "pitch": 69, "duration": 59, "velocity": 83}, {"time": 24719, "pitch": 54, "duration": 81, "velocity": 107}, {"time": 24719, "pitch": 62, "duration": 56, "velocity": 125}, {"time": 24848, "pitch": 54, "duration": 34, "velocity": 73}, {"time": 24957, "pitch": 70, "duration": 65, "velocity": 88}, {"time": 24958, "pitch": 54, "duration": 45, "velocity": 52}, {"time": 24958, "pitch": 63, "duration": 81, "velocity": 115}, {"time": 25089, "pitch": 54, "duration": 34, "velocity": 82}, {"time": 25201, "pitch": 54, "duration": 83, "velocity": 100}, {"time": 25201, "pitch": 64, "duration": 27, "velocity": 105}, {"time": 25201, "pitch": 69, "duration": 38, "velocity": 84}, {"time": 25334, "pitch": 54, "duration": 33, "velocity": 73}, {"time": 25334, "pitch": 64, "duration": 229, "velocity": 112}, {"time": 25334, "pitch": 69, "duration": 35, "velocity": 73}, {"time": 25445, "pitch": 54, "duration": 48, "velocity": 74}, {"time": 25445, "pitch": 69, "duration": 42, "velocity": 72}, {"time": 25575, "pitch": 54, "duration": 47, "velocity": 88}, {"time": 25575, "pitch": 63, "duration": 110, "velocity": 98}, {"time": 25575, "pitch": 69, "duration": 40, "velocity": 91}, {"time": 25685, "pitch": 54, "duration": 80, "velocity": 112}, {"time": 25685, "pitch": 62, "duration": 70, "velocity": 119}, {"time": 25686, "pitch": 69, "duration": 55, "velocity": 86}, {"time": 25814, "pitch": 54, "duration": 33, "velocity": 66}, {"time": 25924, "pitch": 54, "duration": 45, "velocity": 53}, {"time": 25924, "pitch": 63, "duration": 96, "velocity": 110}, {"time": 25924, "pitch": 70, "duration": 70, "velocity": 89}, {"time": 26053, "pitch": 54, "duration": 42, "velocity": 73}, {"time": 26163, "pitch": 54, "duration": 72, "velocity": 112}, {"time": 26163, "pitch": 64, "duration": 33, "velocity": 105}, {"time": 26163, "pitch": 69, "duration": 40, "velocity": 86}, {"time": 26293, "pitch": 54, "duration": 30, "velocity": 83}, {"time": 26293, "pitch": 64, "duration": 228, "velocity": 115}, {"time": 26293, "pitch": 69, "duration": 33, "velocity": 77}, {"time": 26402, "pitch": 54, "duration": 43, "velocity": 84}, {"time": 26402, "pitch": 69, "duration": 45, "velocity": 84}, {"time": 26532, "pitch": 54, "duration": 42, "velocity": 88}, {"time": 26532, "pitch": 63, "duration": 113, "velocity": 97}, {"time": 26532, "pitch": 69, "duration": 30, "velocity": 81}, {"time": 26642, "pitch": 54, "duration": 80, "velocity": 110}, {"time": 26642, "pitch": 62, "duration": 63, "velocity": 124}, {"time": 26642, "pitch": 69, "duration": 91, "velocity": 94}, {"time": 26771, "pitch": 54, "duration": 38, "velocity": 67}, {"time": 26881, "pitch": 54, "duration": 52, "velocity": 58}, {"time": 26881, "pitch": 63, "duration": 86, "velocity": 115}, {"time": 26881, "pitch": 70, "duration": 81, "velocity": 91}, {"time": 27011, "pitch": 54, "duration": 38, "velocity": 76}, {"time": 27011, "pitch": 63, "duration": 26, "velocity": 99}, {"time": 27120, "pitch": 54, "duration": 81, "velocity": 107}, {"time": 27120, "pitch": 64, "duration": 48, "velocity": 58}, {"time": 27120, "pitch": 69, "duration": 35, "velocity": 82}, {"time": 27250, "pitch": 54, "duration": 35, "velocity": 75}, {"time": 27250, "pitch": 64, "duration": 94, "velocity": 74}, {"time": 27250, "pitch": 69, "duration": 38, "velocity": 88}, {"time": 27360, "pitch": 64, "duration": 132, "velocity": 98}, {"time": 27360, "pitch": 69, "duration": 36, "velocity": 82}, {"time": 27361, "pitch": 54, "duration": 60, "velocity": 81}, {"time": 27489, "pitch": 54, "duration": 33, "velocity": 72}, {"time": 27489, "pitch": 63, "duration": 81, "velocity": 115}, {"time": 27489, "pitch": 69, "duration": 31, "velocity": 86}, {"time": 27599, "pitch": 54, "duration": 81, "velocity": 94}, {"time": 27599, "pitch": 62, "duration": 69, "velocity": 119}, {"time": 27599, "pitch": 69, "duration": 31, "velocity": 83}, {"time": 27728, "pitch": 54, "duration": 35, "velocity": 74}, {"time": 27838, "pitch": 54, "duration": 54, "velocity": 79}, {"time": 27838, "pitch": 63, "duration": 79, "velocity": 112}, {"time": 27838, "pitch": 70, "duration": 65, "velocity": 91}, {"time": 27968, "pitch": 54, "duration": 35, "velocity": 83}, {"time": 28077, "pitch": 54, "duration": 80, "velocity": 103}, {"time": 28077, "pitch": 64, "duration": 31, "velocity": 99}, {"time": 28077, "pitch": 69, "duration": 33, "velocity": 80}, {"time": 28207, "pitch": 54, "duration": 31, "velocity": 77}, {"time": 28207, "pitch": 64, "duration": 196, "velocity": 108}, {"time": 28207, "pitch": 69, "duration": 43, "velocity": 77}, {"time": 28317, "pitch": 54, "duration": 38, "velocity": 66}, {"time": 28317, "pitch": 69, "duration": 36, "velocity": 77}, {"time": 28449, "pitch": 54, "duration": 35, "velocity": 86}, {"time": 28449, "pitch": 63, "duration": 86, "velocity": 92}, {"time": 28449, "pitch": 69, "duration": 48, "velocity": 89}, {"time": 28561, "pitch": 62, "duration": 98, "velocity": 125}, {"time": 28561, "pitch": 69, "duration": 60, "velocity": 83}, {"time": 28562, "pitch": 54, "duration": 82, "velocity": 107}, {"time": 28693, "pitch": 54, "duration": 34, "velocity": 73}, {"time": 28805, "pitch": 63, "duration": 84, "velocity": 117}, {"time": 28805, "pitch": 70, "duration": 63, "velocity": 88}, {"time": 28806, "pitch": 54, "duration": 43, "velocity": 52}, {"time": 28934, "pitch": 54, "duration": 33, "velocity": 82}, {"time": 29044, "pitch": 54, "duration": 81, "velocity": 100}, {"time": 29044, "pitch": 64, "duration": 29, "velocity": 99}, {"time": 29044, "pitch": 69, "duration": 37, "velocity": 84}, {"time": 29174, "pitch": 54, "duration": 32, "velocity": 73}, {"time": 29174, "pitch": 69, "duration": 34, "velocity": 73}, {"time": 29283, "pitch": 54, "duration": 48, "velocity": 74}, {"time": 29283, "pitch": 64, "duration": 91, "velocity": 33}, {"time": 29283, "pitch": 69, "duration": 42, "velocity": 72}, {"time": 29413, "pitch": 54, "duration": 47, "velocity": 88}, {"time": 29413, "pitch": 63, "duration": 87, "velocity": 117}, {"time": 29413, "pitch": 69, "duration": 40, "velocity": 91}, {"time": 29522, "pitch": 54, "duration": 81, "velocity": 112}, {"time": 29523, "pitch": 62, "duration": 90, "velocity": 124}, {"time": 29523, "pitch": 69, "duration": 56, "velocity": 86}, {"time": 29652, "pitch": 54, "duration": 33, "velocity": 66}, {"time": 29762, "pitch": 54, "duration": 45, "velocity": 53}, {"time": 29762, "pitch": 63, "duration": 79, "velocity": 124}, {"time": 29762, "pitch": 70, "duration": 70, "velocity": 89}, {"time": 29891, "pitch": 54, "duration": 42, "velocity": 73}, {"time": 29891, "pitch": 64, "duration": 28, "velocity": 117}, {"time": 30001, "pitch": 54, "duration": 72, "velocity": 112}, {"time": 30001, "pitch": 63, "duration": 29, "velocity": 88}, {"time": 30001, "pitch": 69, "duration": 40, "velocity": 86}, {"time": 30131, "pitch": 54, "duration": 30, "velocity": 83}, {"time": 30131, "pitch": 63, "duration": 87, "velocity": 125}, {"time": 30131, "pitch": 69, "duration": 33, "velocity": 77}, {"time": 30240, "pitch": 54, "duration": 43, "velocity": 84}, {"time": 30240, "pitch": 69, "duration": 45, "velocity": 84}, {"time": 30370, "pitch": 54, "duration": 42, "velocity": 88}, {"time": 30370, "pitch": 63, "duration": 60, "velocity": 115}, {"time": 30370, "pitch": 69, "duration": 30, "velocity": 81}, {"time": 30480, "pitch": 54, "duration": 80, "velocity": 110}, {"time": 30480, "pitch": 62, "duration": 122, "velocity": 125}, {"time": 30480, "pitch": 69, "duration": 91, "velocity": 94}, {"time": 30609, "pitch": 54, "duration": 38, "velocity": 67}, {"time": 30719, "pitch": 54, "duration": 52, "velocity": 58}, {"time": 30719, "pitch": 63, "duration": 64, "velocity": 117}, {"time": 30719, "pitch": 70, "duration": 81, "velocity": 91}, {"time": 30848, "pitch": 54, "duration": 39, "velocity": 76}, {"time": 30958, "pitch": 54, "duration": 81, "velocity": 107}, {"time": 30958, "pitch": 64, "duration": 27, "velocity": 115}, {"time": 30958, "pitch": 69, "duration": 35, "velocity": 82}, {"time": 31088, "pitch": 54, "duration": 35, "velocity": 75}, {"time": 31088, "pitch": 64, "duration": 99, "velocity": 110}, {"time": 31088, "pitch": 69, "duration": 38, "velocity": 88}, {"time": 31196, "pitch": 49, "duration": 1950, "velocity": 120}, {"time": 31197, "pitch": 69, "duration": 38, "velocity": 82}, {"time": 31198, "pitch": 54, "duration": 62, "velocity": 81}, {"time": 31198, "pitch": 64, "duration": 134, "velocity": 125}, {"time": 31330, "pitch": 54, "duration": 33, "velocity": 72}, {"time": 31330, "pitch": 63, "duration": 84, "velocity": 115}, {"time": 31330, "pitch": 69, "duration": 31, "velocity": 86}, {"time": 31441, "pitch": 54, "duration": 83, "velocity": 94}, {"time": 31441, "pitch": 62, "duration": 85, "velocity": 115}, {"time": 31441, "pitch": 69, "duration": 32, "velocity": 83}, {"time": 31574, "pitch": 54, "duration": 35, "velocity": 74}, {"time": 31685, "pitch": 54, "duration": 54, "velocity": 79}, {"time": 31685, "pitch": 63, "duration": 102, "velocity": 115}, {"time": 31685, "pitch": 70, "duration": 65, "velocity": 91}, {"time": 31815, "pitch": 54, "duration": 35, "velocity": 83}, {"time": 31925, "pitch": 54, "duration": 79, "velocity": 103}, {"time": 31925, "pitch": 64, "duration": 44, "velocity": 58}, {"time": 31925, "pitch": 69, "duration": 33, "velocity": 80}, {"time": 32054, "pitch": 54, "duration": 31, "velocity": 77}, {"time": 32054, "pitch": 64, "duration": 255, "velocity": 125}, {"time": 32054, "pitch": 69, "duration": 43, "velocity": 77}, {"time": 32164, "pitch": 54, "duration": 38, "velocity": 66}, {"time": 32164, "pitch": 69, "duration": 36, "velocity": 77}, {"time": 32294, "pitch": 54, "duration": 34, "velocity": 86}, {"time": 32294, "pitch": 63, "duration": 121, "velocity": 101}, {"time": 32294, "pitch": 69, "duration": 46, "velocity": 89}, {"time": 32403, "pitch": 69, "duration": 59, "velocity": 83}, {"time": 32404, "pitch": 54, "duration": 81, "velocity": 107}, {"time": 32404, "pitch": 62, "duration": 56, "velocity": 125}, {"time": 32533, "pitch": 54, "duration": 34, "velocity": 73}, {"time": 32643, "pitch": 70, "duration": 63, "velocity": 88}, {"time": 32644, "pitch": 54, "duration": 43, "velocity": 52}, {"time": 32644, "pitch": 63, "duration": 78, "velocity": 115}, {"time": 32772, "pitch": 54, "duration": 33, "velocity": 82}, {"time": 32882, "pitch": 54, "duration": 81, "velocity": 100}, {"time": 32882, "pitch": 64, "duration": 26, "velocity": 105}, {"time": 32882, "pitch": 69, "duration": 37, "velocity": 84}, {"time": 33011, "pitch": 54, "duration": 33, "velocity": 73}, {"time": 33011, "pitch": 64, "duration": 228, "velocity": 112}, {"time": 33011, "pitch": 69, "duration": 35, "velocity": 73}, {"time": 33121, "pitch": 54, "duration": 48, "velocity": 74}, {"time": 33121, "pitch": 69, "duration": 42, "velocity": 72}, {"time": 33251, "pitch": 54, "duration": 47, "velocity": 88}, {"time": 33251, "pitch": 63, "duration": 109, "velocity": 98}, {"time": 33251, "pitch": 69, "duration": 40, "velocity": 91}, {"time": 33360, "pitch": 54, "duration": 81, "velocity": 112}, {"time": 33360, "pitch": 62, "duration": 71, "velocity": 119}, {"time": 33361, "pitch": 69, "duration": 56, "velocity": 86}, {"time": 33490, "pitch": 54, "duration": 33, "velocity": 66}, {"time": 33600, "pitch": 54, "duration": 45, "velocity": 53}, {"time": 33600, "pitch": 63, "duration": 95, "velocity": 110}, {"time": 33600, "pitch": 70, "duration": 69, "velocity": 89}, {"time": 33729, "pitch": 54, "duration": 42, "velocity": 73}, {"time": 33839, "pitch": 54, "duration": 72, "velocity": 112}, {"time": 33839, "pitch": 64, "duration": 33, "velocity": 105}, {"time": 33839, "pitch": 69, "duration": 40, "velocity": 86}, {"time": 33969, "pitch": 54, "duration": 29, "velocity": 83}, {"time": 33969, "pitch": 64, "duration": 228, "velocity": 115}, {"time": 33969, "pitch": 69, "duration": 32, "velocity": 77}, {"time": 34078, "pitch": 54, "duration": 43, "velocity": 84}, {"time": 34078, "pitch": 69, "duration": 45, "velocity": 84}, {"time": 34208, "pitch": 54, "duration": 42, "velocity": 88}, {"time": 34208, "pitch": 63, "duration": 113, "velocity": 97}, {"time": 34208, "pitch": 69, "duration": 30, "velocity": 81}, {"time": 34318, "pitch": 54, "duration": 80, "velocity": 110}, {"time": 34318, "pitch": 62, "duration": 63, "velocity": 124}, {"time": 34318, "pitch": 69, "duration": 91, "velocity": 94}, {"time": 34447, "pitch": 54, "duration": 38, "velocity": 67}, {"time": 34557, "pitch": 54, "duration": 53, "velocity": 58}, {"time": 34557, "pitch": 63, "duration": 87, "velocity": 115}, {"time": 34557, "pitch": 70, "duration": 82, "velocity": 91}, {"time": 34689, "pitch": 54, "duration": 40, "velocity": 76}, {"time": 34689, "pitch": 63, "duration": 27, "velocity": 99}, {"time": 34801, "pitch": 54, "duration": 82, "velocity": 107}, {"time": 34801, "pitch": 64, "duration": 49, "velocity": 58}, {"time": 34801, "pitch": 69, "duration": 35, "velocity": 82}, {"time": 34933, "pitch": 54, "duration": 36, "velocity": 75}, {"time": 34933, "pitch": 64, "duration": 96, "velocity": 74}, {"time": 34933, "pitch": 69, "duration": 39, "velocity": 88}, {"time": 35045, "pitch": 64, "duration": 132, "velocity": 98}, {"time": 35045, "pitch": 69, "duration": 37, "velocity": 82}, {"time": 35046, "pitch": 54, "duration": 61, "velocity": 81}, {"time": 35174, "pitch": 54, "duration": 33, "velocity": 72}, {"time": 35174, "pitch": 63, "duration": 81, "velocity": 115}, {"time": 35174, "pitch": 69, "duration": 31, "velocity": 86}, {"time": 35284, "pitch": 54, "duration": 81, "velocity": 94}, {"time": 35284, "pitch": 62, "duration": 69, "velocity": 119}, {"time": 35284, "pitch": 69, "duration": 31, "velocity": 83}, {"time": 35414, "pitch": 54, "duration": 35, "velocity": 74}, {"time": 35523, "pitch": 54, "duration": 54, "velocity": 79}, {"time": 35523, "pitch": 63, "duration": 79, "velocity": 112}, {"time": 35523, "pitch": 70, "duration": 65, "velocity": 91}, {"time": 35653, "pitch": 54, "duration": 35, "velocity": 83}, {"time": 35763, "pitch": 54, "duration": 79, "velocity": 103}, {"time": 35763, "pitch": 64, "duration": 31, "velocity": 99}, {"time": 35763, "pitch": 69, "duration": 33, "velocity": 80}, {"time": 35892, "pitch": 54, "duration": 31, "velocity": 77}, {"time": 35892, "pitch": 64, "duration": 195, "velocity": 108}, {"time": 35892, "pitch": 69, "duration": 43, "velocity": 77}, {"time": 36002, "pitch": 54, "duration": 38, "velocity": 66}, {"time": 36002, "pitch": 69, "duration": 36, "velocity": 77}, {"time": 36132, "pitch": 54, "duration": 34, "velocity": 86}, {"time": 36132, "pitch": 63, "duration": 84, "velocity": 92}, {"time": 36132, "pitch": 69, "duration": 46, "velocity": 89}, {"time": 36241, "pitch": 62, "duration": 97, "velocity": 125}, {"time": 36241, "pitch": 69, "duration": 59, "velocity": 83}, {"time": 36242, "pitch": 54, "duration": 81, "velocity": 107}, {"time": 36371, "pitch": 54, "duration": 34, "velocity": 73}, {"time": 36480, "pitch": 63, "duration": 85, "velocity": 117}, {"time": 36480, "pitch": 70, "duration": 64, "velocity": 88}, {"time": 36481, "pitch": 54, "duration": 44, "velocity": 52}, {"time": 36610, "pitch": 54, "duration": 33, "velocity": 82}, {"time": 36720, "pitch": 54, "duration": 81, "velocity": 100}, {"time": 36720, "pitch": 64, "duration": 29, "velocity": 99}, {"time": 36720, "pitch": 69, "duration": 37, "velocity": 84}, {"time": 36849, "pitch": 54, "duration": 33, "velocity": 73}, {"time": 36849, "pitch": 69, "duration": 35, "velocity": 73}, {"time": 36959, "pitch": 54, "duration": 48, "velocity": 74}, {"time": 36959, "pitch": 64, "duration": 91, "velocity": 33}, {"time": 36959, "pitch": 69, "duration": 42, "velocity": 72}, {"time": 37089, "pitch": 54, "duration": 47, "velocity": 88}, {"time": 37089, "pitch": 63, "duration": 86, "velocity": 117}, {"time": 37089, "pitch": 69, "duration": 40, "velocity": 91}, {"time": 37198, "pitch": 54, "duration": 81, "velocity": 112}, {"time": 37199, "pitch": 62, "duration": 90, "velocity": 124}, {"time": 37199, "pitch": 69, "duration": 56, "velocity": 86}, {"time": 37328, "pitch": 54, "duration": 33, "velocity": 66}, {"time": 37438, "pitch": 54, "duration": 45, "velocity": 53}, {"time": 37438, "pitch": 63, "duration": 80, "velocity": 124}, {"time": 37438, "pitch": 70, "duration": 71, "velocity": 89}, {"time": 37570, "pitch": 54, "duration": 42, "velocity": 73}, {"time": 37570, "pitch": 64, "duration": 28, "velocity": 117}, {"time": 37682, "pitch": 54, "duration": 73, "velocity": 112}, {"time": 37682, "pitch": 63, "duration": 29, "velocity": 88}, {"time": 37682, "pitch": 69, "duration": 40, "velocity": 86}, {"time": 37814, "pitch": 54, "duration": 30, "velocity": 83}, {"time": 37814, "pitch": 63, "duration": 89, "velocity": 125}, {"time": 37814, "pitch": 69, "duration": 33, "velocity": 77}, {"time": 37926, "pitch": 54, "duration": 42, "velocity": 84}, {"time": 37926, "pitch": 69, "duration": 44, "velocity": 84}, {"time": 38055, "pitch": 54, "duration": 42, "velocity": 88}, {"time": 38055, "pitch": 63, "duration": 60, "velocity": 115}, {"time": 38055, "pitch": 69, "duration": 30, "velocity": 81}, {"time": 38165, "pitch": 54, "duration": 81, "velocity": 110}, {"time": 38165, "pitch": 62, "duration": 122, "velocity": 125}, {"time": 38165, "pitch": 69, "duration": 92, "velocity": 94}, {"time": 38294, "pitch": 54, "duration": 38, "velocity": 67}, {"time": 38404, "pitch": 54, "duration": 52, "velocity": 58}, {"time": 38404, "pitch": 63, "duration": 64, "velocity": 117}, {"time": 38404, "pitch": 70, "duration": 81, "velocity": 91}, {"time": 38534, "pitch": 54, "duration": 39, "velocity": 76}, {"time": 38643, "pitch": 54, "duration": 81, "velocity": 107}, {"time": 38643, "pitch": 64, "duration": 27, "velocity": 115}, {"time": 38643, "pitch": 69, "duration": 35, "velocity": 82}, {"time": 38773, "pitch": 54, "duration": 35, "velocity": 75}, {"time": 38773, "pitch": 64, "duration": 100, "velocity": 110}, {"time": 38773, "pitch": 69, "duration": 38, "velocity": 88}, {"time": 38882, "pitch": 49, "duration": 1940, "velocity": 120}, {"time": 38883, "pitch": 69, "duration": 37, "velocity": 82}, {"time": 38884, "pitch": 54, "duration": 61, "velocity": 81}, {"time": 38884, "pitch": 64, "duration": 130, "velocity": 125}, {"time": 39012, "pitch": 54, "duration": 33, "velocity": 72}, {"time": 39012, "pitch": 63, "duration": 83, "velocity": 115}, {"time": 39012, "pitch": 69, "duration": 31, "velocity": 86}, {"time": 39122, "pitch": 54, "duration": 81, "velocity": 94}, {"time": 39122, "pitch": 62, "duration": 83, "velocity": 115}, {"time": 39122, "pitch": 69, "duration": 31, "velocity": 83}, {"time": 39252, "pitch": 54, "duration": 34, "velocity": 74}, {"time": 39361, "pitch": 54, "duration": 54, "velocity": 79}, {"time": 39361, "pitch": 63, "duration": 102, "velocity": 115}, {"time": 39361, "pitch": 70, "duration": 65, "velocity": 91}, {"time": 39491, "pitch": 54, "duration": 35, "velocity": 83}, {"time": 39601, "pitch": 54, "duration": 79, "velocity": 103}, {"time": 39601, "pitch": 64, "duration": 43, "velocity": 58}, {"time": 39601, "pitch": 69, "duration": 32, "velocity": 80}, {"time": 39730, "pitch": 54, "duration": 31, "velocity": 77}, {"time": 39730, "pitch": 64, "duration": 254, "velocity": 125}, {"time": 39730, "pitch": 69, "duration": 43, "velocity": 77}, {"time": 39840, "pitch": 54, "duration": 38, "velocity": 66}, {"time": 39840, "pitch": 69, "duration": 36, "velocity": 77}, {"time": 39969, "pitch": 54, "duration": 35, "velocity": 86}, {"time": 39969, "pitch": 63, "duration": 122, "velocity": 101}, {"time": 39969, "pitch": 69, "duration": 47, "velocity": 89}, {"time": 40079, "pitch": 69, "duration": 59, "velocity": 83}, {"time": 40080, "pitch": 54, "duration": 81, "velocity": 107}, {"time": 40080, "pitch": 62, "duration": 56, "velocity": 125}, {"time": 40209, "pitch": 54, "duration": 34, "velocity": 73}, {"time": 40318, "pitch": 70, "duration": 64, "velocity": 88}, {"time": 40319, "pitch": 54, "duration": 44, "velocity": 52}, {"time": 40319, "pitch": 63, "duration": 79, "velocity": 115}, {"time": 40448, "pitch": 54, "duration": 33, "velocity": 82}, {"time": 40558, "pitch": 54, "duration": 80, "velocity": 100}, {"time": 40558, "pitch": 64, "duration": 26, "velocity": 105}, {"time": 40558, "pitch": 69, "duration": 37, "velocity": 84}, {"time": 40687, "pitch": 54, "duration": 33, "velocity": 73}, {"time": 40687, "pitch": 64, "duration": 230, "velocity": 112}, {"time": 40687, "pitch": 69, "duration": 35, "velocity": 73}, {"time": 40797, "pitch": 54, "duration": 49, "velocity": 74}, {"time": 40797, "pitch": 69, "duration": 43, "velocity": 72}, {"time": 40929, "pitch": 54, "duration": 48, "velocity": 88}, {"time": 40929, "pitch": 63, "duration": 112, "velocity": 98}, {"time": 40929, "pitch": 69, "duration": 41, "velocity": 91}, {"time": 41041, "pitch": 54, "duration": 82, "velocity": 112}, {"time": 41041, "pitch": 62, "duration": 72, "velocity": 119}, {"time": 41042, "pitch": 69, "duration": 57, "velocity": 86}, {"time": 41173, "pitch": 54, "duration": 34, "velocity": 66}, {"time": 41285, "pitch": 54, "duration": 45, "velocity": 53}, {"time": 41285, "pitch": 63, "duration": 96, "velocity": 110}, {"time": 41285, "pitch": 70, "duration": 70, "velocity": 89}, {"time": 41415, "pitch": 54, "duration": 41, "velocity": 73}, {"time": 41524, "pitch": 54, "duration": 72, "velocity": 112}, {"time": 41524, "pitch": 64, "duration": 33, "velocity": 105}, {"time": 41524, "pitch": 69, "duration": 40, "velocity": 86}, {"time": 41654, "pitch": 54, "duration": 30, "velocity": 83}, {"time": 41654, "pitch": 64, "duration": 228, "velocity": 115}, {"time": 41654, "pitch": 69, "duration": 33, "velocity": 77}, {"time": 41764, "pitch": 54, "duration": 42, "velocity": 84}, {"time": 41764, "pitch": 69, "duration": 44, "velocity": 84}, {"time": 41893, "pitch": 54, "duration": 42, "velocity": 88}, {"time": 41893, "pitch": 63, "duration": 113, "velocity": 97}, {"time": 41893, "pitch": 69, "duration": 30, "velocity": 81}, {"time": 42003, "pitch": 54, "duration": 81, "velocity": 110}, {"time": 42003, "pitch": 62, "duration": 64, "velocity": 124}, {"time": 42003, "pitch": 69, "duration": 92, "velocity": 94}, {"time": 42132, "pitch": 54, "duration": 38, "velocity": 67}, {"time": 42242, "pitch": 54, "duration": 52, "velocity": 58}, {"time": 42242, "pitch": 63, "duration": 86, "velocity": 115}, {"time": 42242, "pitch": 70, "duration": 81, "velocity": 91}, {"time": 42372, "pitch": 54, "duration": 39, "velocity": 76}, {"time": 42372, "pitch": 63, "duration": 27, "velocity": 99}, {"time": 42481, "pitch": 54, "duration": 81, "velocity": 107}, {"time": 42481, "pitch": 64, "duration": 48, "velocity": 58}, {"time": 42481, "pitch": 69, "duration": 35, "velocity": 82}, {"time": 42611, "pitch": 54, "duration": 35, "velocity": 75}, {"time": 42611, "pitch": 64, "duration": 94, "velocity": 74}, {"time": 42611, "pitch": 69, "duration": 38, "velocity": 88}, {"time": 42721, "pitch": 64, "duration": 132, "velocity": 98}, {"time": 42721, "pitch": 69, "duration": 37, "velocity": 82}, {"time": 42722, "pitch": 54, "duration": 60, "velocity": 81}, {"time": 42850, "pitch": 54, "duration": 33, "velocity": 72}, {"time": 42850, "pitch": 63, "duration": 81, "velocity": 115}, {"time": 42850, "pitch": 69, "duration": 31, "velocity": 86}, {"time": 42960, "pitch": 54, "duration": 81, "velocity": 94}, {"time": 42960, "pitch": 62, "duration": 69, "velocity": 119}, {"time": 42960, "pitch": 69, "duration": 31, "velocity": 83}, {"time": 43090, "pitch": 54, "duration": 34, "velocity": 74}, {"time": 43199, "pitch": 54, "duration": 54, "velocity": 79}, {"time": 43199, "pitch": 63, "duration": 79, "velocity": 112}, {"time": 43199, "pitch": 70, "duration": 65, "velocity": 91}, {"time": 43329, "pitch": 54, "duration": 35, "velocity": 83}, {"time": 43438, "pitch": 54, "duration": 80, "velocity": 103}, {"time": 43438, "pitch": 64, "duration": 31, "velocity": 99}, {"time": 43438, "pitch": 69, "duration": 33, "velocity": 80}, {"time": 43568, "pitch": 54, "duration": 31, "velocity": 77}, {"time": 43568, "pitch": 64, "duration": 195, "velocity": 108}, {"time": 43568, "pitch": 69, "duration": 43, "velocity": 77}, {"time": 43678, "pitch": 54, "duration": 38, "velocity": 66}, {"time": 43678, "pitch": 69, "duration": 36, "velocity": 77}, {"time": 43807, "pitch": 54, "duration": 35, "velocity": 86}, {"time": 43807, "pitch": 63, "duration": 85, "velocity": 92}, {"time": 43807, "pitch": 69, "duration": 47, "velocity": 89}, {"time": 43917, "pitch": 62, "duration": 97, "velocity": 125}, {"time": 43917, "pitch": 69, "duration": 59, "velocity": 83}, {"time": 43918, "pitch": 54, "duration": 81, "velocity": 107}, {"time": 44047, "pitch": 54, "duration": 34, "velocity": 73}, {"time": 44156, "pitch": 63, "duration": 87, "velocity": 117}, {"time": 44156, "pitch": 70, "duration": 65, "velocity": 88}, {"time": 44157, "pitch": 54, "duration": 45, "velocity": 52}, {"time": 44288, "pitch": 54, "duration": 34, "velocity": 82}, {"time": 44400, "pitch": 54, "duration": 83, "velocity": 100}, {"time": 44400, "pitch": 64, "duration": 30, "velocity": 99}, {"time": 44400, "pitch": 69, "duration": 38, "velocity": 84}, {"time": 44533, "pitch": 54, "duration": 33, "velocity": 73}, {"time": 44533, "pitch": 69, "duration": 35, "velocity": 73}, {"time": 44644, "pitch": 54, "duration": 48, "velocity": 74}, {"time": 44644, "pitch": 64, "duration": 91, "velocity": 33}, {"time": 44644, "pitch": 69, "duration": 42, "velocity": 72}, {"time": 44774, "pitch": 54, "duration": 47, "velocity": 88}, {"time": 44774, "pitch": 63, "duration": 87, "velocity": 117}, {"time": 44774, "pitch": 69, "duration": 40, "velocity": 91}, {"time": 44884, "pitch": 54, "duration": 80, "velocity": 112}, {"time": 44885, "pitch": 62, "duration": 89, "velocity": 124}, {"time": 44885, "pitch": 69, "duration": 55, "velocity": 86}, {"time": 45013, "pitch": 54, "duration": 33, "velocity": 66}, {"time": 45123, "pitch": 54, "duration": 45, "velocity": 53}, {"time": 45123, "pitch": 63, "duration": 79, "velocity": 124}, {"time": 45123, "pitch": 70, "duration": 70, "velocity": 89}, {"time": 45252, "pitch": 54, "duration": 42, "velocity": 73}, {"time": 45252, "pitch": 64, "duration": 28, "velocity": 117}, {"time": 45362, "pitch": 54, "duration": 72, "velocity": 112}, {"time": 45362, "pitch": 63, "duration": 29, "velocity": 88}, {"time": 45362, "pitch": 69, "duration": 40, "velocity": 86}, {"time": 45492, "pitch": 54, "duration": 30, "velocity": 83}, {"time": 45492, "pitch": 63, "duration": 87, "velocity": 125}, {"time": 45492, "pitch": 69, "duration": 33, "velocity": 77}, {"time": 45601, "pitch": 54, "duration": 43, "velocity": 84}, {"time": 45601, "pitch": 69, "duration": 45, "velocity": 84}, {"time": 45731, "pitch": 54, "duration": 42, "velocity": 88}, {"time": 45731, "pitch": 63, "duration": 60, "velocity": 115}, {"time": 45731, "pitch": 69, "duration": 30, "velocity": 81}, {"time": 45841, "pitch": 54, "duration": 80, "velocity": 110}, {"time": 45841, "pitch": 62, "duration": 122, "velocity": 125}, {"time": 45841, "pitch": 69, "duration": 91, "velocity": 94}, {"time": 45970, "pitch": 54, "duration": 38, "velocity": 67}, {"time": 46080, "pitch": 54, "duration": 52, "velocity": 58}, {"time": 46080, "pitch": 63, "duration": 64, "velocity": 117}, {"time": 46080, "pitch": 70, "duration": 81, "velocity": 91}, {"time": 46210, "pitch": 54, "duration": 38, "velocity": 76}, {"time": 46319, "pitch": 54, "duration": 81, "velocity": 107}, {"time": 46319, "pitch": 64, "duration": 27, "velocity": 115}, {"time": 46319, "pitch": 69, "duration": 35, "velocity": 82}, {"time": 46449, "pitch": 54, "duration": 35, "velocity": 75}, {"time": 46449, "pitch": 64, "duration": 100, "velocity": 110}, {"time": 46449, "pitch": 69, "duration": 38, "velocity": 88}, {"time": 46558, "pitch": 49, "duration": 1949, "velocity": 120}, {"time": 46559, "pitch": 69, "duration": 36, "velocity": 82}, {"time": 46560, "pitch": 54, "duration": 60, "velocity": 81}, {"time": 46560, "pitch": 64, "duration": 130, "velocity": 125}, {"time": 46688, "pitch": 54, "duration": 33, "velocity": 72}, {"time": 46688, "pitch": 63, "duration": 83, "velocity": 115}, {"time": 46688, "pitch": 69, "duration": 31, "velocity": 86}, {"time": 46798, "pitch": 54, "duration": 81, "velocity": 94}, {"time": 46798, "pitch": 62, "duration": 83, "velocity": 115}, {"time": 46798, "pitch": 69, "duration": 31, "velocity": 83}, {"time": 46927, "pitch": 54, "duration": 35, "velocity": 74}, {"time": 47037, "pitch": 54, "duration": 55, "velocity": 79}, {"time": 47037, "pitch": 63, "duration": 104, "velocity": 115}, {"time": 47037, "pitch": 70, "duration": 66, "velocity": 91}, {"time": 47169, "pitch": 54, "duration": 36, "velocity": 83}, {"time": 47281, "pitch": 54, "duration": 81, "velocity": 103}, {"time": 47281, "pitch": 64, "duration": 45, "velocity": 58}, {"time": 47281, "pitch": 69, "duration": 34, "velocity": 80}, {"time": 47413, "pitch": 54, "duration": 32, "velocity": 77}, {"time": 47413, "pitch": 64, "duration": 257, "velocity": 125}, {"time": 47413, "pitch": 69, "duration": 44, "velocity": 77}, {"time": 47525, "pitch": 54, "duration": 38, "velocity": 66}, {"time": 47525, "pitch": 69, "duration": 36, "velocity": 77}, {"time": 47655, "pitch": 54, "duration": 35, "velocity": 86}, {"time": 47655, "pitch": 63, "duration": 121, "velocity": 101}, {"time": 47655, "pitch": 69, "duration": 47, "velocity": 89}, {"time": 47764, "pitch": 69, "duration": 59, "velocity": 83}, {"time": 47765, "pitch": 54, "duration": 81, "velocity": 107}, {"time": 47765, "pitch": 62, "duration": 56, "velocity": 125}, {"time": 47894, "pitch": 54, "duration": 34, "velocity": 73}, {"time": 48004, "pitch": 70, "duration": 63, "velocity": 88}, {"time": 48005, "pitch": 54, "duration": 44, "velocity": 52}, {"time": 48005, "pitch": 63, "duration": 78, "velocity": 115}, {"time": 48133, "pitch": 54, "duration": 33, "velocity": 82}, {"time": 48243, "pitch": 54, "duration": 81, "velocity": 100}, {"time": 48243, "pitch": 64, "duration": 26, "velocity": 105}, {"time": 48243, "pitch": 69, "duration": 37, "velocity": 84}, {"time": 48373, "pitch": 54, "duration": 32, "velocity": 73}, {"time": 48373, "pitch": 64, "duration": 227, "velocity": 112}, {"time": 48373, "pitch": 69, "duration": 34, "velocity": 73}, {"time": 48482, "pitch": 54, "duration": 48, "velocity": 74}, {"time": 48482, "pitch": 69, "duration": 42, "velocity": 72}, {"time": 48612, "pitch": 54, "duration": 47, "velocity": 88}, {"time": 48612, "pitch": 63, "duration": 109, "velocity": 98}, {"time": 48612, "pitch": 69, "duration": 40, "velocity": 91}, {"time": 48721, "pitch": 54, "duration": 81, "velocity": 112}, {"time": 48721, "pitch": 62, "duration": 71, "velocity": 119}, {"time": 48722, "pitch": 69, "duration": 56, "velocity": 86}, {"time": 48851, "pitch": 54, "duration": 33, "velocity": 66}, {"time": 48961, "pitch": 54, "duration": 45, "velocity": 53}, {"time": 48961, "pitch": 63, "duration": 95, "velocity": 110}, {"time": 48961, "pitch": 70, "duration": 70, "velocity": 89}, {"time": 49090, "pitch": 54, "duration": 42, "velocity": 73}, {"time": 49200, "pitch": 54, "duration": 72, "velocity": 112}, {"time": 49200, "pitch": 64, "duration": 33, "velocity": 105}, {"time": 49200, "pitch": 69, "duration": 40, "velocity": 86}, {"time": 49330, "pitch": 54, "duration": 30, "velocity": 83}, {"time": 49330, "pitch": 64, "duration": 228, "velocity": 115}, {"time": 49330, "pitch": 69, "duration": 33, "velocity": 77}, {"time": 49439, "pitch": 54, "duration": 43, "velocity": 84}, {"time": 49439, "pitch": 69, "duration": 45, "velocity": 84}, {"time": 49569, "pitch": 54, "duration": 42, "velocity": 88}, {"time": 49569, "pitch": 63, "duration": 113, "velocity": 97}, {"time": 49569, "pitch": 69, "duration": 30, "velocity": 81}, {"time": 49679, "pitch": 54, "duration": 80, "velocity": 110}, {"time": 49679, "pitch": 62, "duration": 63, "velocity": 124}, {"time": 49679, "pitch": 69, "duration": 91, "velocity": 94}, {"time": 49808, "pitch": 54, "duration": 38, "velocity": 67}, {"time": 49918, "pitch": 54, "duration": 52, "velocity": 58}, {"time": 49918, "pitch": 63, "duration": 86, "velocity": 115}, {"time": 49918, "pitch": 70, "duration": 81, "velocity": 91}, {"time": 50048, "pitch": 54, "duration": 38, "velocity": 76}, {"time": 50048, "pitch": 63, "duration": 26, "velocity": 99}, {"time": 50157, "pitch": 54, "duration": 81, "velocity": 107}, {"time": 50157, "pitch": 64, "duration": 48, "velocity": 58}, {"time": 50157, "pitch": 69, "duration": 35, "velocity": 82}, {"time": 50287, "pitch": 54, "duration": 35, "velocity": 75}, {"time": 50287, "pitch": 64, "duration": 94, "velocity": 74}, {"time": 50287, "pitch": 69, "duration": 38, "velocity": 88}, {"time": 50396, "pitch": 64, "duration": 136, "velocity": 98}, {"time": 50396, "pitch": 69, "duration": 38, "velocity": 82}, {"time": 50397, "pitch": 54, "duration": 62, "velocity": 81}, {"time": 50529, "pitch": 54, "duration": 33, "velocity": 72}, {"time": 50529, "pitch": 63, "duration": 82, "velocity": 115}, {"time": 50529, "pitch": 69, "duration": 31, "velocity": 86}, {"time": 50640, "pitch": 54, "duration": 83, "velocity": 94}, {"time": 50640, "pitch": 62, "duration": 71, "velocity": 119}, {"time": 50640, "pitch": 69, "duration": 32, "velocity": 83}, {"time": 50773, "pitch": 54, "duration": 35, "velocity": 74}, {"time": 50884, "pitch": 54, "duration": 54, "velocity": 79}, {"time": 50884, "pitch": 63, "duration": 79, "velocity": 112}, {"time": 50884, "pitch": 70, "duration": 65, "velocity": 91}, {"time": 51014, "pitch": 54, "duration": 35, "velocity": 83}, {"time": 51124, "pitch": 54, "duration": 79, "velocity": 103}, {"time": 51124, "pitch": 64, "duration": 31, "velocity": 99}, {"time": 51124, "pitch": 69, "duration": 33, "velocity": 80}, {"time": 51253, "pitch": 54, "duration": 31, "velocity": 77}, {"time": 51253, "pitch": 64, "duration": 195, "velocity": 108}, {"time": 51253, "pitch": 69, "duration": 43, "velocity": 77}, {"time": 51363, "pitch": 54, "duration": 38, "velocity": 66}, {"time": 51363, "pitch": 69, "duration": 36, "velocity": 77}, {"time": 51493, "pitch": 54, "duration": 35, "velocity": 86}, {"time": 51493, "pitch": 63, "duration": 84, "velocity": 92}, {"time": 51493, "pitch": 69, "duration": 46, "velocity": 89}, {"time": 51602, "pitch": 62, "duration": 97, "velocity": 125}, {"time": 51602, "pitch": 69, "duration": 59, "velocity": 83}, {"time": 51603, "pitch": 54, "duration": 81, "velocity": 107}, {"time": 51732, "pitch": 54, "duration": 34, "velocity": 73}, {"time": 51842, "pitch": 63, "duration": 84, "velocity": 117}, {"time": 51842, "pitch": 70, "duration": 63, "velocity": 88}, {"time": 51843, "pitch": 54, "duration": 43, "velocity": 52}, {"time": 51971, "pitch": 54, "duration": 33, "velocity": 82}, {"time": 52081, "pitch": 54, "duration": 81, "velocity": 100}, {"time": 52081, "pitch": 64, "duration": 29, "velocity": 99}, {"time": 52081, "pitch": 69, "duration": 37, "velocity": 84}, {"time": 52210, "pitch": 54, "duration": 33, "velocity": 73}, {"time": 52210, "pitch": 69, "duration": 35, "velocity": 73}, {"time": 52320, "pitch": 54, "duration": 48, "velocity": 74}, {"time": 52320, "pitch": 64, "duration": 91, "velocity": 33}, {"time": 52320, "pitch": 69, "duration": 42, "velocity": 72}, {"time": 52450, "pitch": 54, "duration": 47, "velocity": 88}, {"time": 52450, "pitch": 63, "duration": 86, "velocity": 117}, {"time": 52450, "pitch": 69, "duration": 40, "velocity": 91}, {"time": 52559, "pitch": 54, "duration": 81, "velocity": 112}, {"time": 52560, "pitch": 62, "duration": 90, "velocity": 124}, {"time": 52560, "pitch": 69, "duration": 56, "velocity": 86}, {"time": 52689, "pitch": 54, "duration": 33, "velocity": 66}, {"time": 52799, "pitch": 54, "duration": 45, "velocity": 53}, {"time": 52799, "pitch": 63, "duration": 78, "velocity": 124}, {"time": 52799, "pitch": 70, "duration": 69, "velocity": 89}, {"time": 52928, "pitch": 54, "duration": 42, "velocity": 73}, {"time": 52928, "pitch": 64, "duration": 28, "velocity": 117}, {"time": 53038, "pitch": 54, "duration": 72, "velocity": 112}, {"time": 53038, "pitch": 63, "duration": 29, "velocity": 88}, {"time": 53038, "pitch": 69, "duration": 40, "velocity": 86}, {"time": 53168, "pitch": 54, "duration": 30, "velocity": 83}, {"time": 53168, "pitch": 63, "duration": 87, "velocity": 125}, {"time": 53168, "pitch": 69, "duration": 32, "velocity": 77}, {"time": 53277, "pitch": 54, "duration": 44, "velocity": 84}, {"time": 53277, "pitch": 69, "duration": 46, "velocity": 84}, {"time": 53409, "pitch": 54, "duration": 43, "velocity": 88}, {"time": 53409, "pitch": 63, "duration": 61, "velocity": 115}, {"time": 53409, "pitch": 69, "duration": 31, "velocity": 81}, {"time": 53521, "pitch": 54, "duration": 83, "velocity": 110}, {"time": 53521, "pitch": 62, "duration": 125, "velocity": 125}, {"time": 53521, "pitch": 69, "duration": 94, "velocity": 94}, {"time": 53653, "pitch": 54, "duration": 39, "velocity": 67}, {"time": 53765, "pitch": 54, "duration": 52, "velocity": 58}, {"time": 53765, "pitch": 63, "duration": 64, "velocity": 117}, {"time": 53765, "pitch": 70, "duration": 81, "velocity": 91}, {"time": 53895, "pitch": 54, "duration": 39, "velocity": 76}, {"time": 54005, "pitch": 54, "duration": 80, "velocity": 107}, {"time": 54005, "pitch": 64, "duration": 26, "velocity": 115}, {"time": 54005, "pitch": 69, "duration": 34, "velocity": 82}, {"time": 54134, "pitch": 54, "duration": 35, "velocity": 75}, {"time": 54134, "pitch": 64, "duration": 100, "velocity": 110}, {"time": 54134, "pitch": 69, "duration": 38, "velocity": 88}, {"time": 54243, "pitch": 49, "duration": 1940, "velocity": 120}, {"time": 54244, "pitch": 69, "duration": 37, "velocity": 82}, {"time": 54245, "pitch": 54, "duration": 61, "velocity": 81}, {"time": 54245, "pitch": 64, "duration": 130, "velocity": 125}, {"time": 54373, "pitch": 54, "duration": 33, "velocity": 72}, {"time": 54373, "pitch": 63, "duration": 83, "velocity": 115}, {"time": 54373, "pitch": 69, "duration": 31, "velocity": 86}, {"time": 54483, "pitch": 54, "duration": 81, "velocity": 94}, {"time": 54483, "pitch": 62, "duration": 83, "velocity": 115}, {"time": 54483, "pitch": 69, "duration": 31, "velocity": 83}, {"time": 54613, "pitch": 54, "duration": 35, "velocity": 74}, {"time": 54722, "pitch": 54, "duration": 54, "velocity": 79}, {"time": 54722, "pitch": 63, "duration": 102, "velocity": 115}, {"time": 54722, "pitch": 70, "duration": 65, "velocity": 91}, {"time": 54852, "pitch": 54, "duration": 35, "velocity": 83}, {"time": 54962, "pitch": 54, "duration": 79, "velocity": 103}, {"time": 54962, "pitch": 64, "duration": 44, "velocity": 58}, {"time": 54962, "pitch": 69, "duration": 33, "velocity": 80}, {"time": 55091, "pitch": 54, "duration": 31, "velocity": 77}, {"time": 55091, "pitch": 64, "duration": 254, "velocity": 125}, {"time": 55091, "pitch": 69, "duration": 43, "velocity": 77}, {"time": 55201, "pitch": 54, "duration": 38, "velocity": 66}, {"time": 55201, "pitch": 69, "duration": 36, "velocity": 77}, {"time": 55331, "pitch": 54, "duration": 34, "velocity": 86}, {"time": 55331, "pitch": 63, "duration": 121, "velocity": 101}, {"time": 55331, "pitch": 69, "duration": 46, "velocity": 89}, {"time": 55440, "pitch": 69, "duration": 59, "velocity": 83}, {"time": 55441, "pitch": 54, "duration": 81, "velocity": 107}, {"time": 55441, "pitch": 62, "duration": 56, "velocity": 125}, {"time": 55570, "pitch": 54, "duration": 34, "velocity": 73}, {"time": 55679, "pitch": 70, "duration": 64, "velocity": 88}, {"time": 55680, "pitch": 54, "duration": 44, "velocity": 52}, {"time": 55680, "pitch": 63, "duration": 79, "velocity": 115}, {"time": 55809, "pitch": 54, "duration": 33, "velocity": 82}, {"time": 55919, "pitch": 54, "duration": 81, "velocity": 100}, {"time": 55919, "pitch": 64, "duration": 26, "velocity": 105}, {"time": 55919, "pitch": 69, "duration": 37, "velocity": 84}, {"time": 56048, "pitch": 54, "duration": 33, "velocity": 73}, {"time": 56048, "pitch": 64, "duration": 228, "velocity": 112}, {"time": 56048, "pitch": 69, "duration": 35, "velocity": 73}, {"time": 56158, "pitch": 54, "duration": 48, "velocity": 74}, {"time": 56158, "pitch": 69, "duration": 42, "velocity": 72}, {"time": 56288, "pitch": 54, "duration": 47, "velocity": 88}, {"time": 56288, "pitch": 63, "duration": 109, "velocity": 98}, {"time": 56288, "pitch": 69, "duration": 40, "velocity": 91}, {"time": 56397, "pitch": 54, "duration": 81, "velocity": 112}, {"time": 56397, "pitch": 62, "duration": 71, "velocity": 119}, {"time": 56398, "pitch": 69, "duration": 56, "velocity": 86}, {"time": 56527, "pitch": 54, "duration": 33, "velocity": 66}, {"time": 56637, "pitch": 54, "duration": 45, "velocity": 53}, {"time": 56637, "pitch": 63, "duration": 97, "velocity": 110}, {"time": 56637, "pitch": 70, "duration": 71, "velocity": 89}, {"time": 56769, "pitch": 54, "duration": 42, "velocity": 73}, {"time": 56881, "pitch": 54, "duration": 73, "velocity": 112}, {"time": 56881, "pitch": 64, "duration": 33, "velocity": 105}, {"time": 56881, "pitch": 69, "duration": 40, "velocity": 86}, {"time": 57013, "pitch": 54, "duration": 30, "velocity": 83}, {"time": 57013, "pitch": 64, "duration": 230, "velocity": 115}, {"time": 57013, "pitch": 69, "duration": 33, "velocity": 77}, {"time": 57125, "pitch": 54, "duration": 42, "velocity": 84}, {"time": 57125, "pitch": 69, "duration": 44, "velocity": 84}, {"time": 57254, "pitch": 54, "duration": 42, "velocity": 88}, {"time": 57254, "pitch": 63, "duration": 113, "velocity": 97}, {"time": 57254, "pitch": 69, "duration": 30, "velocity": 81}, {"time": 57364, "pitch": 54, "duration": 81, "velocity": 110}, {"time": 57364, "pitch": 62, "duration": 64, "velocity": 124}, {"time": 57364, "pitch": 69, "duration": 92, "velocity": 94}, {"time": 57493, "pitch": 54, "duration": 38, "velocity": 67}, {"time": 57603, "pitch": 54, "duration": 52, "velocity": 58}, {"time": 57603, "pitch": 63, "duration": 86, "velocity": 115}, {"time": 57603, "pitch": 70, "duration": 81, "velocity": 91}, {"time": 57733, "pitch": 54, "duration": 39, "velocity": 76}, {"time": 57733, "pitch": 63, "duration": 27, "velocity": 99}, {"time": 57842, "pitch": 54, "duration": 81, "velocity": 107}, {"time": 57842, "pitch": 64, "duration": 48, "velocity": 58}, {"time": 57842, "pitch": 69, "duration": 35, "velocity": 82}, {"time": 57972, "pitch": 54, "duration": 35, "velocity": 75}, {"time": 57972, "pitch": 64, "duration": 94, "velocity": 74}, {"time": 57972, "pitch": 69, "duration": 38, "velocity": 88}, {"time": 58082, "pitch": 64, "duration": 132, "velocity": 98}, {"time": 58082, "pitch": 69, "duration": 37, "velocity": 82}, {"time": 58083, "pitch": 54, "duration": 61, "velocity": 81}, {"time": 58211, "pitch": 54, "duration": 33, "velocity": 72}, {"time": 58211, "pitch": 63, "duration": 81, "velocity": 115}, {"time": 58211, "pitch": 69, "duration": 31, "velocity": 86}, {"time": 58321, "pitch": 54, "duration": 81, "velocity": 94}, {"time": 58321, "pitch": 62, "duration": 69, "velocity": 119}, {"time": 58321, "pitch": 69, "duration": 31, "velocity": 83}, {"time": 58451, "pitch": 54, "duration": 35, "velocity": 74}, {"time": 58560, "pitch": 54, "duration": 54, "velocity": 79}, {"time": 58560, "pitch": 63, "duration": 79, "velocity": 112}, {"time": 58560, "pitch": 70, "duration": 65, "velocity": 91}, {"time": 58690, "pitch": 54, "duration": 35, "velocity": 83}, {"time": 58800, "pitch": 54, "duration": 79, "velocity": 103}, {"time": 58800, "pitch": 64, "duration": 30, "velocity": 99}, {"time": 58800, "pitch": 69, "duration": 32, "velocity": 80}, {"time": 58929, "pitch": 54, "duration": 31, "velocity": 77}, {"time": 58929, "pitch": 64, "duration": 195, "velocity": 108}, {"time": 58929, "pitch": 69, "duration": 43, "velocity": 77}, {"time": 59039, "pitch": 54, "duration": 38, "velocity": 66}, {"time": 59039, "pitch": 69, "duration": 36, "velocity": 77}, {"time": 59168, "pitch": 54, "duration": 35, "velocity": 86}, {"time": 59168, "pitch": 63, "duration": 85, "velocity": 92}, {"time": 59168, "pitch": 69, "duration": 47, "velocity": 89}, {"time": 59278, "pitch": 62, "duration": 97, "velocity": 125}, {"time": 59278, "pitch": 69, "duration": 59, "velocity": 83}, {"time": 59279, "pitch": 54, "duration": 81, "velocity": 107}, {"time": 59408, "pitch": 54, "duration": 34, "velocity": 73}, {"time": 59517, "pitch": 63, "duration": 87, "velocity": 117}, {"time": 59517, "pitch": 70, "duration": 65, "velocity": 88}, {"time": 59518, "pitch": 54, "duration": 45, "velocity": 52}, {"time": 59650, "pitch": 54, "duration": 33, "velocity": 82}, {"time": 59761, "pitch": 54, "duration": 83, "velocity": 100}, {"time": 59761, "pitch": 64, "duration": 30, "velocity": 99}, {"time": 59761, "pitch": 69, "duration": 38, "velocity": 84}, {"time": 59894, "pitch": 54, "duration": 33, "velocity": 73}, {"time": 59894, "pitch": 69, "duration": 35, "velocity": 73}, {"time": 60005, "pitch": 54, "duration": 48, "velocity": 74}, {"time": 60005, "pitch": 64, "duration": 91, "velocity": 33}, {"time": 60005, "pitch": 69, "duration": 42, "velocity": 72}, {"time": 60135, "pitch": 54, "duration": 47, "velocity": 88}, {"time": 60135, "pitch": 63, "duration": 87, "velocity": 117}, {"time": 60135, "pitch": 69, "duration": 40, "velocity": 91}, {"time": 60245, "pitch": 54, "duration": 80, "velocity": 112}, {"time": 60246, "pitch": 62, "duration": 89, "velocity": 124}, {"time": 60246, "pitch": 69, "duration": 56, "velocity": 86}, {"time": 60374, "pitch": 54, "duration": 33, "velocity": 66}, {"time": 60484, "pitch": 54, "duration": 45, "velocity": 53}, {"time": 60484, "pitch": 63, "duration": 79, "velocity": 124}, {"time": 60484, "pitch": 70, "duration": 70, "velocity": 89}, {"time": 60614, "pitch": 54, "duration": 41, "velocity": 73}, {"time": 60614, "pitch": 64, "duration": 27, "velocity": 117}, {"time": 60723, "pitch": 54, "duration": 72, "velocity": 112}, {"time": 60723, "pitch": 63, "duration": 29, "velocity": 88}, {"time": 60723, "pitch": 69, "duration": 40, "velocity": 86}, {"time": 60853, "pitch": 54, "duration": 30, "velocity": 83}, {"time": 60853, "pitch": 63, "duration": 88, "velocity": 125}, {"time": 60853, "pitch": 69, "duration": 33, "velocity": 77}, {"time": 60963, "pitch": 54, "duration": 42, "velocity": 84}, {"time": 60963, "pitch": 69, "duration": 44, "velocity": 84}, {"time": 61092, "pitch": 54, "duration": 42, "velocity": 88}, {"time": 61092, "pitch": 63, "duration": 60, "velocity": 115}, {"time": 61092, "pitch": 69, "duration": 30, "velocity": 81}, {"time": 61202, "pitch": 54, "duration": 81, "velocity": 110}, {"time": 61202, "pitch": 62, "duration": 122, "velocity": 125}, {"time": 61202, "pitch": 69, "duration": 92, "velocity": 94}, {"time": 61331, "pitch": 54, "duration": 38, "velocity": 67}, {"time": 61441, "pitch": 54, "duration": 52, "velocity": 58}, {"time": 61441, "pitch": 63, "duration": 64, "velocity": 117}, {"time": 61441, "pitch": 70, "duration": 81, "velocity": 91}, {"time": 61571, "pitch": 54, "duration": 39, "velocity": 76}, {"time": 61680, "pitch": 54, "duration": 81, "velocity": 107}, {"time": 61680, "pitch": 64, "duration": 27, "velocity": 115}, {"time": 61680, "pitch": 69, "duration": 35, "velocity": 82}, {"time": 61810, "pitch": 54, "duration": 35, "velocity": 75}, {"time": 61810, "pitch": 64, "duration": 100, "velocity": 110}, {"time": 61810, "pitch": 69, "duration": 38, "velocity": 88}, {"time": 61919, "pitch": 49, "duration": 1949, "velocity": 120}, {"time": 61920, "pitch": 51, "duration": 140, "velocity": 127}, {"time": 61920, "pitch": 69, "duration": 37, "velocity": 82}, {"time": 61921, "pitch": 54, "duration": 60, "velocity": 81}, {"time": 61921, "pitch": 64, "duration": 130, "velocity": 125}, {"time": 62049, "pitch": 54, "duration": 33, "velocity": 72}, {"time": 62049, "pitch": 63, "duration": 83, "velocity": 115}, {"time": 62049, "pitch": 69, "duration": 31, "velocity": 86}, {"time": 62159, "pitch": 54, "duration": 81, "velocity": 94}, {"time": 62159, "pitch": 62, "duration": 83, "velocity": 115}, {"time": 62159, "pitch": 69, "duration": 31, "velocity": 83}, {"time": 62160, "pitch": 51, "duration": 110, "velocity": 100}, {"time": 62289, "pitch": 54, "duration": 34, "velocity": 74}, {"time": 62398, "pitch": 51, "duration": 129, "velocity": 125}, {"time": 62398, "pitch": 54, "duration": 54, "velocity": 79}, {"time": 62398, "pitch": 63, "duration": 102, "velocity": 115}, {"time": 62398, "pitch": 70, "duration": 65, "velocity": 91}, {"time": 62528, "pitch": 54, "duration": 35, "velocity": 83}, {"time": 62637, "pitch": 51, "duration": 122, "velocity": 115}, {"time": 62637, "pitch": 54, "duration": 80, "velocity": 103}, {"time": 62637, "pitch": 64, "duration": 44, "velocity": 58}, {"time": 62637, "pitch": 69, "duration": 33, "velocity": 80}, {"time": 62767, "pitch": 54, "duration": 31, "velocity": 77}, {"time": 62767, "pitch": 64, "duration": 257, "velocity": 125}, {"time": 62767, "pitch": 69, "duration": 43, "velocity": 77}, {"time": 62877, "pitch": 51, "duration": 120, "velocity": 112}, {"time": 62877, "pitch": 54, "duration": 38, "velocity": 66}, {"time": 62877, "pitch": 69, "duration": 36, "velocity": 77}, {"time": 63009, "pitch": 54, "duration": 36, "velocity": 86}, {"time": 63009, "pitch": 63, "duration": 124, "velocity": 101}, {"time": 63009, "pitch": 69, "duration": 48, "velocity": 89}, {"time": 63121, "pitch": 51, "duration": 109, "velocity": 119}, {"time": 63121, "pitch": 69, "duration": 60, "velocity": 83}, {"time": 63122, "pitch": 54, "duration": 82, "velocity": 107}, {"time": 63122, "pitch": 62, "duration": 57, "velocity": 125}, {"time": 63253, "pitch": 54, "duration": 35, "velocity": 73}, {"time": 63365, "pitch": 51, "duration": 131, "velocity": 125}, {"time": 63365, "pitch": 70, "duration": 64, "velocity": 88}, {"time": 63366, "pitch": 54, "duration": 44, "velocity": 52}, {"time": 63366, "pitch": 63, "duration": 79, "velocity": 115}, {"time": 63494, "pitch": 54, "duration": 33, "velocity": 82}, {"time": 63604, "pitch": 51, "duration": 117, "velocity": 106}, {"time": 63604, "pitch": 54, "duration": 81, "velocity": 100}, {"time": 63604, "pitch": 64, "duration": 26, "velocity": 105}, {"time": 63604, "pitch": 69, "duration": 37, "velocity": 84}, {"time": 63734, "pitch": 54, "duration": 33, "velocity": 73}, {"time": 63734, "pitch": 64, "duration": 227, "velocity": 112}, {"time": 63734, "pitch": 69, "duration": 35, "velocity": 73}, {"time": 63843, "pitch": 51, "duration": 141, "velocity": 127}, {"time": 63843, "pitch": 54, "duration": 48, "velocity": 74}, {"time": 63843, "pitch": 69, "duration": 42, "velocity": 72}, {"time": 63973, "pitch": 54, "duration": 47, "velocity": 88}, {"time": 63973, "pitch": 63, "duration": 110, "velocity": 98}, {"time": 63973, "pitch": 69, "duration": 40, "velocity": 91}, {"time": 64083, "pitch": 54, "duration": 80, "velocity": 112}, {"time": 64083, "pitch": 62, "duration": 70, "velocity": 119}, {"time": 64084, "pitch": 51, "duration": 109, "velocity": 100}, {"time": 64084, "pitch": 69, "duration": 55, "velocity": 86}, {"time": 64212, "pitch": 54, "duration": 33, "velocity": 66}, {"time": 64322, "pitch": 51, "duration": 128, "velocity": 125}, {"time": 64322, "pitch": 54, "duration": 45, "velocity": 53}, {"time": 64322, "pitch": 63, "duration": 96, "velocity": 110}, {"time": 64322, "pitch": 70, "duration": 70, "velocity": 89}, {"time": 64451, "pitch": 54, "duration": 42, "velocity": 73}, {"time": 64561, "pitch": 51, "duration": 122, "velocity": 115}, {"time": 64561, "pitch": 54, "duration": 72, "velocity": 112}, {"time": 64561, "pitch": 64, "duration": 33, "velocity": 105}, {"time": 64561, "pitch": 69, "duration": 40, "velocity": 86}, {"time": 64691, "pitch": 54, "duration": 30, "velocity": 83}, {"time": 64691, "pitch": 64, "duration": 228, "velocity": 115}, {"time": 64691, "pitch": 69, "duration": 33, "velocity": 77}, {"time": 64800, "pitch": 51, "duration": 118, "velocity": 112}, {"time": 64800, "pitch": 54, "duration": 43, "velocity": 84}, {"time": 64800, "pitch": 69, "duration": 45, "velocity": 84}, {"time": 64930, "pitch": 54, "duration": 42, "velocity": 88}, {"time": 64930, "pitch": 63, "duration": 113, "velocity": 97}, {"time": 64930, "pitch": 69, "duration": 30, "velocity": 81}, {"time": 65040, "pitch": 51, "duration": 106, "velocity": 119}, {"time": 65040, "pitch": 54, "duration": 80, "velocity": 110}, {"time": 65040, "pitch": 62, "duration": 64, "velocity": 124}, {"time": 65040, "pitch": 69, "duration": 91, "velocity": 94}, {"time": 65169, "pitch": 54, "duration": 38, "velocity": 67}, {"time": 65279, "pitch": 51, "duration": 132, "velocity": 125}, {"time": 65279, "pitch": 54, "duration": 52, "velocity": 58}, {"time": 65279, "pitch": 63, "duration": 86, "velocity": 115}, {"time": 65279, "pitch": 70, "duration": 81, "velocity": 91}, {"time": 65409, "pitch": 54, "duration": 39, "velocity": 76}, {"time": 65409, "pitch": 63, "duration": 27, "velocity": 99}, {"time": 65518, "pitch": 51, "duration": 117, "velocity": 106}, {"time": 65518, "pitch": 54, "duration": 81, "velocity": 107}, {"time": 65518, "pitch": 64, "duration": 48, "velocity": 58}, {"time": 65518, "pitch": 69, "duration": 35, "velocity": 82}, {"time": 65648, "pitch": 54, "duration": 35, "velocity": 75}, {"time": 65648, "pitch": 64, "duration": 94, "velocity": 74}, {"time": 65648, "pitch": 69, "duration": 38, "velocity": 88}, {"time": 65758, "pitch": 51, "duration": 143, "velocity": 127}, {"time": 65758, "pitch": 64, "duration": 135, "velocity": 98}, {"time": 65758, "pitch": 69, "duration": 37, "velocity": 82}, {"time": 65759, "pitch": 54, "duration": 62, "velocity": 81}, {"time": 65890, "pitch": 54, "duration": 33, "velocity": 72}, {"time": 65890, "pitch": 63, "duration": 82, "velocity": 115}, {"time": 65890, "pitch": 69, "duration": 31, "velocity": 86}, {"time": 66002, "pitch": 54, "duration": 82, "velocity": 94}, {"time": 66002, "pitch": 62, "duration": 70, "velocity": 119}, {"time": 66002, "pitch": 69, "duration": 31, "velocity": 83}, {"time": 66003, "pitch": 51, "duration": 111, "velocity": 100}, {"time": 66134, "pitch": 54, "duration": 35, "velocity": 74}, {"time": 66246, "pitch": 51, "duration": 128, "velocity": 125}, {"time": 66246, "pitch": 54, "duration": 53, "velocity": 79}, {"time": 66246, "pitch": 63, "duration": 78, "velocity": 112}, {"time": 66246, "pitch": 70, "duration": 64, "velocity": 91}, {"time": 66375, "pitch": 54, "duration": 35, "velocity": 83}, {"time": 66485, "pitch": 51, "duration": 121, "velocity": 115}, {"time": 66485, "pitch": 54, "duration": 80, "velocity": 103}, {"time": 66485, "pitch": 64, "duration": 31, "velocity": 99}, {"time": 66485, "pitch": 69, "duration": 33, "velocity": 80}, {"time": 66614, "pitch": 54, "duration": 31, "velocity": 77}, {"time": 66614, "pitch": 64, "duration": 195, "velocity": 108}, {"time": 66614, "pitch": 69, "duration": 43, "velocity": 77}, {"time": 66724, "pitch": 51, "duration": 118, "velocity": 112}, {"time": 66724, "pitch": 54, "duration": 38, "velocity": 66}, {"time": 66724, "pitch": 69, "duration": 36, "velocity": 77}, {"time": 66854, "pitch": 54, "duration": 35, "velocity": 86}, {"time": 66854, "pitch": 63, "duration": 84, "velocity": 92}, {"time": 66854, "pitch": 69, "duration": 47, "velocity": 89}, {"time": 66963, "pitch": 51, "duration": 107, "velocity": 119}, {"time": 66963, "pitch": 62, "duration": 97, "velocity": 125}, {"time": 66963, "pitch": 69, "duration": 59, "velocity": 83}, {"time": 66964, "pitch": 54, "duration": 81, "velocity": 107}, {"time": 67093, "pitch": 54, "duration": 34, "velocity": 73}, {"time": 67203, "pitch": 51, "duration": 131, "velocity": 125}, {"time": 67203, "pitch": 63, "duration": 84, "velocity": 117}, {"time": 67203, "pitch": 70, "duration": 63, "velocity": 88}, {"time": 67204, "pitch": 54, "duration": 44, "velocity": 52}, {"time": 67332, "pitch": 54, "duration": 33, "velocity": 82}, {"time": 67442, "pitch": 51, "duration": 117, "velocity": 106}, {"time": 67442, "pitch": 54, "duration": 81, "velocity": 100}, {"time": 67442, "pitch": 64, "duration": 29, "velocity": 99}, {"time": 67442, "pitch": 69, "duration": 37, "velocity": 84}, {"time": 67572, "pitch": 54, "duration": 32, "velocity": 73}, {"time": 67572, "pitch": 69, "duration": 34, "velocity": 73}, {"time": 67681, "pitch": 51, "duration": 141, "velocity": 127}, {"time": 67681, "pitch": 54, "duration": 48, "velocity": 74}, {"time": 67681, "pitch": 64, "duration": 91, "velocity": 33}, {"time": 67681, "pitch": 69, "duration": 42, "velocity": 72}, {"time": 67811, "pitch": 54, "duration": 47, "velocity": 88}, {"time": 67811, "pitch": 63, "duration": 87, "velocity": 117}, {"time": 67811, "pitch": 69, "duration": 40, "velocity": 91}, {"time": 67921, "pitch": 54, "duration": 80, "velocity": 112}, {"time": 67922, "pitch": 51, "duration": 109, "velocity": 100}, {"time": 67922, "pitch": 62, "duration": 89, "velocity": 124}, {"time": 67922, "pitch": 69, "duration": 55, "velocity": 86}, {"time": 68050, "pitch": 54, "duration": 33, "velocity": 66}, {"time": 68160, "pitch": 51, "duration": 128, "velocity": 125}, {"time": 68160, "pitch": 54, "duration": 45, "velocity": 53}, {"time": 68160, "pitch": 63, "duration": 79, "velocity": 124}, {"time": 68160, "pitch": 70, "duration": 70, "velocity": 89}, {"time": 68289, "pitch": 54, "duration": 42, "velocity": 73}, {"time": 68289, "pitch": 64, "duration": 28, "velocity": 117}, {"time": 68399, "pitch": 51, "duration": 122, "velocity": 115}, {"time": 68399, "pitch": 54, "duration": 72, "velocity": 112}, {"time": 68399, "pitch": 63, "duration": 29, "velocity": 88}, {"time": 68399, "pitch": 69, "duration": 40, "velocity": 86}, {"time": 68529, "pitch": 54, "duration": 30, "velocity": 83}, {"time": 68529, "pitch": 63, "duration": 87, "velocity": 125}, {"time": 68529, "pitch": 69, "duration": 33, "velocity": 77}, {"time": 68638, "pitch": 51, "duration": 118, "velocity": 112}, {"time": 68638, "pitch": 54, "duration": 43, "velocity": 84}, {"time": 68638, "pitch": 69, "duration": 45, "velocity": 84}, {"time": 68768, "pitch": 54, "duration": 42, "velocity": 88}, {"time": 68768, "pitch": 63, "duration": 60, "velocity": 115}, {"time": 68768, "pitch": 69, "duration": 30, "velocity": 81}, {"time": 68878, "pitch": 51, "duration": 106, "velocity": 119}, {"time": 68878, "pitch": 54, "duration": 80, "velocity": 110}, {"time": 68878, "pitch": 62, "duration": 122, "velocity": 125}, {"time": 68878, "pitch": 69, "duration": 91, "velocity": 94}, {"time": 69007, "pitch": 54, "duration": 38, "velocity": 67}, {"time": 69117, "pitch": 51, "duration": 134, "velocity": 125}, {"time": 69117, "pitch": 54, "duration": 53, "velocity": 58}, {"time": 69117, "pitch": 63, "duration": 65, "velocity": 117}, {"time": 69117, "pitch": 70, "duration": 82, "velocity": 91}, {"time": 69249, "pitch": 54, "duration": 40, "velocity": 76}, {"time": 69361, "pitch": 51, "duration": 119, "velocity": 106}, {"time": 69361, "pitch": 54, "duration": 82, "velocity": 107}, {"time": 69361, "pitch": 64, "duration": 27, "velocity": 115}, {"time": 69361, "pitch": 69, "duration": 36, "velocity": 82}, {"time": 69493, "pitch": 54, "duration": 36, "velocity": 75}, {"time": 69493, "pitch": 64, "duration": 102, "velocity": 110}, {"time": 69493, "pitch": 69, "duration": 39, "velocity": 88}, {"time": 69604, "pitch": 49, "duration": 1940, "velocity": 120}, {"time": 69605, "pitch": 51, "duration": 140, "velocity": 127}, {"time": 69605, "pitch": 69, "duration": 37, "velocity": 82}, {"time": 69606, "pitch": 54, "duration": 61, "velocity": 81}, {"time": 69606, "pitch": 64, "duration": 131, "velocity": 125}, {"time": 69735, "pitch": 54, "duration": 32, "velocity": 72}, {"time": 69735, "pitch": 63, "duration": 82, "velocity": 115}, {"time": 69735, "pitch": 69, "duration": 30, "velocity": 86}, {"time": 69844, "pitch": 54, "duration": 81, "velocity": 94}, {"time": 69844, "pitch": 62, "duration": 83, "velocity": 115}, {"time": 69844, "pitch": 69, "duration": 31, "velocity": 83}, {"time": 69845, "pitch": 51, "duration": 110, "velocity": 100}, {"time": 69974, "pitch": 54, "duration": 35, "velocity": 74}, {"time": 70083, "pitch": 51, "duration": 129, "velocity": 125}, {"time": 70083, "pitch": 54, "duration": 54, "velocity": 79}, {"time": 70083, "pitch": 63, "duration": 102, "velocity": 115}, {"time": 70083, "pitch": 70, "duration": 65, "velocity": 91}, {"time": 70213, "pitch": 54, "duration": 35, "velocity": 83}, {"time": 70323, "pitch": 51, "duration": 121, "velocity": 115}, {"time": 70323, "pitch": 54, "duration": 80, "velocity": 103}, {"time": 70323, "pitch": 64, "duration": 44, "velocity": 58}, {"time": 70323, "pitch": 69, "duration": 33, "velocity": 80}, {"time": 70452, "pitch": 54, "duration": 31, "velocity": 77}, {"time": 70452, "pitch": 64, "duration": 255, "velocity": 125}, {"time": 70452, "pitch": 69, "duration": 43, "velocity": 77}, {"time": 70562, "pitch": 51, "duration": 118, "velocity": 112}, {"time": 70562, "pitch": 54, "duration": 38, "velocity": 66}, {"time": 70562, "pitch": 69, "duration": 36, "velocity": 77}, {"time": 70692, "pitch": 54, "duration": 35, "velocity": 86}, {"time": 70692, "pitch": 63, "duration": 121, "velocity": 101}, {"time": 70692, "pitch": 69, "duration": 47, "velocity": 89}, {"time": 70801, "pitch": 51, "duration": 107, "velocity": 119}, {"time": 70801, "pitch": 69, "duration": 59, "velocity": 83}, {"time": 70802, "pitch": 54, "duration": 81, "velocity": 107}, {"time": 70802, "pitch": 62, "duration": 56, "velocity": 125}, {"time": 70931, "pitch": 54, "duration": 34, "velocity": 73}, {"time": 71041, "pitch": 51, "duration": 131, "velocity": 125}, {"time": 71041, "pitch": 70, "duration": 63, "velocity": 88}, {"time": 71042, "pitch": 54, "duration": 43, "velocity": 52}, {"time": 71042, "pitch": 63, "duration": 78, "velocity": 115}, {"time": 71170, "pitch": 54, "duration": 33, "velocity": 82}, {"time": 71280, "pitch": 51, "duration": 117, "velocity": 106}, {"time": 71280, "pitch": 54, "duration": 81, "velocity": 100}, {"time": 71280, "pitch": 64, "duration": 26, "velocity": 105}, {"time": 71280, "pitch": 69, "duration": 37, "velocity": 84}, {"time": 71409, "pitch": 54, "duration": 33, "velocity": 73}, {"time": 71409, "pitch": 64, "duration": 228, "velocity": 112}, {"time": 71409, "pitch": 69, "duration": 35, "velocity": 73}, {"time": 71519, "pitch": 51, "duration": 141, "velocity": 127}, {"time": 71519, "pitch": 54, "duration": 48, "velocity": 74}, {"time": 71519, "pitch": 69, "duration": 42, "velocity": 72}, {"time": 71649, "pitch": 54, "duration": 47, "velocity": 88}, {"time": 71649, "pitch": 63, "duration": 109, "velocity": 98}, {"time": 71649, "pitch": 69, "duration": 40, "velocity": 91}, {"time": 71758, "pitch": 54, "duration": 81, "velocity": 112}, {"time": 71758, "pitch": 62, "duration": 71, "velocity": 119}, {"time": 71759, "pitch": 51, "duration": 110, "velocity": 100}, {"time": 71759, "pitch": 69, "duration": 56, "velocity": 86}, {"time": 71888, "pitch": 54, "duration": 33, "velocity": 66}, {"time": 71998, "pitch": 51, "duration": 131, "velocity": 125}, {"time": 71998, "pitch": 54, "duration": 45, "velocity": 53}, {"time": 71998, "pitch": 63, "duration": 97, "velocity": 110}, {"time": 71998, "pitch": 70, "duration": 71, "velocity": 89}, {"time": 72130, "pitch": 54, "duration": 43, "velocity": 73}, {"time": 72242, "pitch": 51, "duration": 124, "velocity": 115}, {"time": 72242, "pitch": 54, "duration": 73, "velocity": 112}, {"time": 72242, "pitch": 64, "duration": 33, "velocity": 105}, {"time": 72242, "pitch": 69, "duration": 40, "velocity": 86}, {"time": 72374, "pitch": 54, "duration": 30, "velocity": 83}, {"time": 72374, "pitch": 64, "duration": 230, "velocity": 115}, {"time": 72374, "pitch": 69, "duration": 34, "velocity": 77}, {"time": 72486, "pitch": 51, "duration": 117, "velocity": 112}, {"time": 72486, "pitch": 54, "duration": 43, "velocity": 84}, {"time": 72486, "pitch": 69, "duration": 45, "velocity": 84}, {"time": 72615, "pitch": 54, "duration": 42, "velocity": 88}, {"time": 72615, "pitch": 63, "duration": 113, "velocity": 97}, {"time": 72615, "pitch": 69, "duration": 30, "velocity": 81}, {"time": 72725, "pitch": 51, "duration": 107, "velocity": 119}, {"time": 72725, "pitch": 54, "duration": 81, "velocity": 110}, {"time": 72725, "pitch": 62, "duration": 64, "velocity": 124}, {"time": 72725, "pitch": 69, "duration": 92, "velocity": 94}, {"time": 72855, "pitch": 54, "duration": 37, "velocity": 67}, {"time": 72964, "pitch": 51, "duration": 132, "velocity": 125}, {"time": 72964, "pitch": 54, "duration": 52, "velocity": 58}, {"time": 72964, "pitch": 63, "duration": 86, "velocity": 115}, {"time": 72964, "pitch": 70, "duration": 81, "velocity": 91}, {"time": 73094, "pitch": 54, "duration": 39, "velocity": 76}, {"time": 73094, "pitch": 63, "duration": 27, "velocity": 99}, {"time": 73204, "pitch": 51, "duration": 116, "velocity": 106}, {"time": 73204, "pitch": 54, "duration": 80, "velocity": 107}, {"time": 73204, "pitch": 64, "duration": 47, "velocity": 58}, {"time": 73204, "pitch": 69, "duration": 34, "velocity": 82}, {"time": 73333, "pitch": 54, "duration": 35, "velocity": 75}, {"time": 73333, "pitch": 64, "duration": 94, "velocity": 74}, {"time": 73333, "pitch": 69, "duration": 38, "velocity": 88}, {"time": 73443, "pitch": 51, "duration": 140, "velocity": 127}, {"time": 73443, "pitch": 64, "duration": 132, "velocity": 98}, {"time": 73443, "pitch": 69, "duration": 37, "velocity": 82}, {"time": 73444, "pitch": 54, "duration": 61, "velocity": 81}, {"time": 73572, "pitch": 54, "duration": 33, "velocity": 72}, {"time": 73572, "pitch": 63, "duration": 81, "velocity": 115}, {"time": 73572, "pitch": 69, "duration": 31, "velocity": 86}, {"time": 73682, "pitch": 54, "duration": 81, "velocity": 94}, {"time": 73682, "pitch": 62, "duration": 69, "velocity": 119}, {"time": 73682, "pitch": 69, "duration": 31, "velocity": 83}, {"time": 73683, "pitch": 51, "duration": 110, "velocity": 100}, {"time": 73812, "pitch": 54, "duration": 35, "velocity": 74}, {"time": 73921, "pitch": 51, "duration": 129, "velocity": 125}, {"time": 73921, "pitch": 54, "duration": 54, "velocity": 79}, {"time": 73921, "pitch": 63, "duration": 79, "velocity": 112}, {"time": 73921, "pitch": 70, "duration": 65, "velocity": 91}, {"time": 74051, "pitch": 54, "duration": 35, "velocity": 83}, {"time": 74161, "pitch": 51, "duration": 121, "velocity": 115}, {"time": 74161, "pitch": 54, "duration": 79, "velocity": 103}, {"time": 74161, "pitch": 64, "duration": 31, "velocity": 99}, {"time": 74161, "pitch": 69, "duration": 33, "velocity": 80}, {"time": 74290, "pitch": 54, "duration": 31, "velocity": 77}, {"time": 74290, "pitch": 64, "duration": 195, "velocity": 108}, {"time": 74290, "pitch": 69, "duration": 43, "velocity": 77}, {"time": 74400, "pitch": 51, "duration": 118, "velocity": 112}, {"time": 74400, "pitch": 54, "duration": 38, "velocity": 66}, {"time": 74400, "pitch": 69, "duration": 36, "velocity": 77}, {"time": 74530, "pitch": 54, "duration": 34, "velocity": 86}, {"time": 74530, "pitch": 63, "duration": 84, "velocity": 92}, {"time": 74530, "pitch": 69, "duration": 46, "velocity": 89}, {"time": 74639, "pitch": 51, "duration": 107, "velocity": 119}, {"time": 74639, "pitch": 62, "duration": 97, "velocity": 125}, {"time": 74639, "pitch": 69, "duration": 59, "velocity": 83}, {"time": 74640, "pitch": 54, "duration": 81, "velocity": 107}, {"time": 74769, "pitch": 54, "duration": 34, "velocity": 73}, {"time": 74879, "pitch": 51, "duration": 131, "velocity": 125}, {"time": 74879, "pitch": 63, "duration": 84, "velocity": 117}, {"time": 74879, "pitch": 70, "duration": 63, "velocity": 88}, {"time": 74880, "pitch": 54, "duration": 43, "velocity": 52}, {"time": 75008, "pitch": 54, "duration": 33, "velocity": 82}, {"time": 75118, "pitch": 51, "duration": 116, "velocity": 106}, {"time": 75118, "pitch": 54, "duration": 81, "velocity": 100}, {"time": 75118, "pitch": 64, "duration": 29, "velocity": 99}, {"time": 75118, "pitch": 69, "duration": 37, "velocity": 84}, {"time": 75247, "pitch": 54, "duration": 33, "velocity": 73}, {"time": 75247, "pitch": 69, "duration": 35, "velocity": 73}, {"time": 75357, "pitch": 51, "duration": 143, "velocity": 127}, {"time": 75357, "pitch": 54, "duration": 49, "velocity": 74}, {"time": 75357, "pitch": 64, "duration": 93, "velocity": 33}, {"time": 75357, "pitch": 69, "duration": 43, "velocity": 72}, {"time": 75489, "pitch": 54, "duration": 48, "velocity": 88}, {"time": 75489, "pitch": 63, "duration": 89, "velocity": 117}, {"time": 75489, "pitch": 69, "duration": 41, "velocity": 91}, {"time": 75601, "pitch": 54, "duration": 82, "velocity": 112}, {"time": 75602, "pitch": 51, "duration": 112, "velocity": 100}, {"time": 75602, "pitch": 62, "duration": 92, "velocity": 124}, {"time": 75602, "pitch": 69, "duration": 57, "velocity": 86}, {"time": 75733, "pitch": 54, "duration": 34, "velocity": 66}, {"time": 75845, "pitch": 51, "duration": 129, "velocity": 125}, {"time": 75845, "pitch": 54, "duration": 45, "velocity": 53}, {"time": 75845, "pitch": 63, "duration": 79, "velocity": 124}, {"time": 75845, "pitch": 70, "duration": 70, "velocity": 89}, {"time": 75975, "pitch": 54, "duration": 42, "velocity": 73}, {"time": 75975, "pitch": 64, "duration": 28, "velocity": 117}, {"time": 76084, "pitch": 51, "duration": 122, "velocity": 115}, {"time": 76084, "pitch": 54, "duration": 72, "velocity": 112}, {"time": 76084, "pitch": 63, "duration": 29, "velocity": 88}, {"time": 76084, "pitch": 69, "duration": 40, "velocity": 86}, {"time": 76214, "pitch": 54, "duration": 30, "velocity": 83}, {"time": 76214, "pitch": 63, "duration": 88, "velocity": 125}, {"time": 76214, "pitch": 69, "duration": 33, "velocity": 77}, {"time": 76324, "pitch": 51, "duration": 117, "velocity": 112}, {"time": 76324, "pitch": 54, "duration": 42, "velocity": 84}, {"time": 76324, "pitch": 69, "duration": 44, "velocity": 84}, {"time": 76453, "pitch": 54, "duration": 42, "velocity": 88}, {"time": 76453, "pitch": 63, "duration": 60, "velocity": 115}, {"time": 76453, "pitch": 69, "duration": 30, "velocity": 81}, {"time": 76563, "pitch": 51, "duration": 107, "velocity": 119}, {"time": 76563, "pitch": 54, "duration": 81, "velocity": 110}, {"time": 76563, "pitch": 62, "duration": 123, "velocity": 125}, {"time": 76563, "pitch": 69, "duration": 92, "velocity": 94}, {"time": 76693, "pitch": 54, "duration": 37, "velocity": 67}, {"time": 76802, "pitch": 51, "duration": 132, "velocity": 125}, {"time": 76802, "pitch": 54, "duration": 52, "velocity": 58}, {"time": 76802, "pitch": 63, "duration": 64, "velocity": 117}, {"time": 76802, "pitch": 70, "duration": 81, "velocity": 91}, {"time": 76932, "pitch": 54, "duration": 39, "velocity": 76}, {"time": 77041, "pitch": 51, "duration": 117, "velocity": 106}, {"time": 77041, "pitch": 54, "duration": 81, "velocity": 107}, {"time": 77041, "pitch": 64, "duration": 27, "velocity": 115}, {"time": 77041, "pitch": 69, "duration": 35, "velocity": 82}, {"time": 77171, "pitch": 54, "duration": 35, "velocity": 75}, {"time": 77171, "pitch": 64, "duration": 100, "velocity": 110}, {"time": 77171, "pitch": 69, "duration": 38, "velocity": 88}, {"time": 77281, "pitch": 69, "duration": 37, "velocity": 82}, {"time": 77282, "pitch": 54, "duration": 61, "velocity": 81}, {"time": 77282, "pitch": 64, "duration": 130, "velocity": 125}, {"time": 77410, "pitch": 54, "duration": 33, "velocity": 72}, {"time": 77410, "pitch": 63, "duration": 83, "velocity": 115}, {"time": 77410, "pitch": 69, "duration": 31, "velocity": 86}, {"time": 77520, "pitch": 54, "duration": 81, "velocity": 94}, {"time": 77520, "pitch": 62, "duration": 83, "velocity": 115}, {"time": 77520, "pitch": 69, "duration": 31, "velocity": 83}, {"time": 77650, "pitch": 54, "duration": 35, "velocity": 74}, {"time": 77759, "pitch": 54, "duration": 54, "velocity": 79}, {"time": 77759, "pitch": 63, "duration": 102, "velocity": 115}, {"time": 77759, "pitch": 70, "duration": 65, "velocity": 91}, {"time": 77889, "pitch": 54, "duration": 35, "velocity": 83}, {"time": 77999, "pitch": 54, "duration": 79, "velocity": 103}, {"time": 77999, "pitch": 64, "duration": 43, "velocity": 58}, {"time": 77999, "pitch": 69, "duration": 32, "velocity": 80}, {"time": 78128, "pitch": 54, "duration": 31, "velocity": 77}, {"time": 78128, "pitch": 64, "duration": 254, "velocity": 125}, {"time": 78128, "pitch": 69, "duration": 43, "velocity": 77}, {"time": 78238, "pitch": 54, "duration": 38, "velocity": 66}, {"time": 78238, "pitch": 69, "duration": 36, "velocity": 77}, {"time": 78367, "pitch": 54, "duration": 35, "velocity": 86}, {"time": 78367, "pitch": 63, "duration": 122, "velocity": 101}, {"time": 78367, "pitch": 69, "duration": 47, "velocity": 89}, {"time": 78477, "pitch": 69, "duration": 59, "velocity": 83}, {"time": 78478, "pitch": 54, "duration": 81, "velocity": 107}, {"time": 78478, "pitch": 62, "duration": 56, "velocity": 125}, {"time": 78607, "pitch": 54, "duration": 34, "velocity": 73}, {"time": 78716, "pitch": 70, "duration": 65, "velocity": 88}, {"time": 78717, "pitch": 54, "duration": 45, "velocity": 52}, {"time": 78717, "pitch": 63, "duration": 81, "velocity": 115}, {"time": 78849, "pitch": 54, "duration": 33, "velocity": 82}, {"time": 78960, "pitch": 54, "duration": 83, "velocity": 100}, {"time": 78960, "pitch": 64, "duration": 27, "velocity": 105}, {"time": 78960, "pitch": 69, "duration": 38, "velocity": 84}, {"time": 79093, "pitch": 54, "duration": 33, "velocity": 73}, {"time": 79093, "pitch": 64, "duration": 229, "velocity": 112}, {"time": 79093, "pitch": 69, "duration": 35, "velocity": 73}, {"time": 79204, "pitch": 54, "duration": 48, "velocity": 74}, {"time": 79204, "pitch": 69, "duration": 42, "velocity": 72}, {"time": 79334, "pitch": 54, "duration": 47, "velocity": 88}, {"time": 79334, "pitch": 63, "duration": 110, "velocity": 98}, {"time": 79334, "pitch": 69, "duration": 40, "velocity": 91}, {"time": 79444, "pitch": 54, "duration": 80, "velocity": 112}, {"time": 79444, "pitch": 62, "duration": 70, "velocity": 119}, {"time": 79445, "pitch": 69, "duration": 56, "velocity": 86}, {"time": 79573, "pitch": 54, "duration": 33, "velocity": 66}, {"time": 79683, "pitch": 54, "duration": 45, "velocity": 53}, {"time": 79683, "pitch": 63, "duration": 96, "velocity": 110}, {"time": 79683, "pitch": 70, "duration": 70, "velocity": 89}, {"time": 79813, "pitch": 54, "duration": 41, "velocity": 73}, {"time": 79922, "pitch": 54, "duration": 72, "velocity": 112}, {"time": 79922, "pitch": 64, "duration": 33, "velocity": 105}, {"time": 79922, "pitch": 69, "duration": 40, "velocity": 86}, {"time": 80052, "pitch": 54, "duration": 30, "velocity": 83}, {"time": 80052, "pitch": 64, "duration": 228, "velocity": 115}, {"time": 80052, "pitch": 69, "duration": 33, "velocity": 77}, {"time": 80162, "pitch": 54, "duration": 42, "velocity": 84}, {"time": 80162, "pitch": 69, "duration": 44, "velocity": 84}, {"time": 80291, "pitch": 54, "duration": 42, "velocity": 88}, {"time": 80291, "pitch": 63, "duration": 113, "velocity": 97}, {"time": 80291, "pitch": 69, "duration": 30, "velocity": 81}, {"time": 80401, "pitch": 54, "duration": 81, "velocity": 110}, {"time": 80401, "pitch": 62, "duration": 64, "velocity": 124}, {"time": 80401, "pitch": 69, "duration": 92, "velocity": 94}, {"time": 80530, "pitch": 54, "duration": 38, "velocity": 67}, {"time": 80640, "pitch": 54, "duration": 52, "velocity": 58}, {"time": 80640, "pitch": 63, "duration": 86, "velocity": 115}, {"time": 80640, "pitch": 70, "duration": 81, "velocity": 91}, {"time": 80770, "pitch": 54, "duration": 39, "velocity": 76}, {"time": 80770, "pitch": 63, "duration": 27, "velocity": 99}, {"time": 80879, "pitch": 54, "duration": 81, "velocity": 107}, {"time": 80879, "pitch": 64, "duration": 48, "velocity": 58}, {"time": 80879, "pitch": 69, "duration": 35, "velocity": 82}, {"time": 81009, "pitch": 54, "duration": 35, "velocity": 75}, {"time": 81009, "pitch": 64, "duration": 94, "velocity": 74}, {"time": 81009, "pitch": 69, "duration": 38, "velocity": 88}, {"time": 81119, "pitch": 64, "duration": 132, "velocity": 98}, {"time": 81119, "pitch": 69, "duration": 37, "velocity": 82}, {"time": 81120, "pitch": 54, "duration": 60, "velocity": 81}, {"time": 81248, "pitch": 54, "duration": 33, "velocity": 72}, {"time": 81248, "pitch": 63, "duration": 81, "velocity": 115}, {"time": 81248, "pitch": 69, "duration": 31, "velocity": 86}, {"time": 81358, "pitch": 54, "duration": 81, "velocity": 94}, {"time": 81358, "pitch": 62, "duration": 69, "velocity": 119}, {"time": 81358, "pitch": 69, "duration": 31, "velocity": 83}, {"time": 81488, "pitch": 54, "duration": 34, "velocity": 74}, {"time": 81597, "pitch": 54, "duration": 55, "velocity": 79}, {"time": 81597, "pitch": 63, "duration": 81, "velocity": 112}, {"time": 81597, "pitch": 70, "duration": 66, "velocity": 91}, {"time": 81729, "pitch": 54, "duration": 36, "velocity": 83}, {"time": 81841, "pitch": 54, "duration": 82, "velocity": 103}, {"time": 81841, "pitch": 64, "duration": 32, "velocity": 99}, {"time": 81841, "pitch": 69, "duration": 34, "velocity": 80}, {"time": 81973, "pitch": 54, "duration": 32, "velocity": 77}, {"time": 81973, "pitch": 64, "duration": 197, "velocity": 108}, {"time": 81973, "pitch": 69, "duration": 44, "velocity": 77}, {"time": 82085, "pitch": 54, "duration": 38, "velocity": 66}, {"time": 82085, "pitch": 69, "duration": 36, "velocity": 77}, {"time": 82215, "pitch": 54, "duration": 35, "velocity": 86}, {"time": 82215, "pitch": 63, "duration": 85, "velocity": 92}, {"time": 82215, "pitch": 69, "duration": 47, "velocity": 89}, {"time": 82324, "pitch": 62, "duration": 97, "velocity": 125}, {"time": 82324, "pitch": 69, "duration": 59, "velocity": 83}, {"time": 82325, "pitch": 54, "duration": 81, "velocity": 107}, {"time": 82454, "pitch": 54, "duration": 34, "velocity": 73}, {"time": 82564, "pitch": 63, "duration": 85, "velocity": 117}, {"time": 82564, "pitch": 70, "duration": 64, "velocity": 88}, {"time": 82565, "pitch": 54, "duration": 44, "velocity": 52}, {"time": 82693, "pitch": 54, "duration": 33, "velocity": 82}, {"time": 82803, "pitch": 54, "duration": 81, "velocity": 100}, {"time": 82803, "pitch": 64, "duration": 29, "velocity": 99}, {"time": 82803, "pitch": 69, "duration": 37, "velocity": 84}, {"time": 82933, "pitch": 54, "duration": 33, "velocity": 73}, {"time": 82933, "pitch": 69, "duration": 35, "velocity": 73}, {"time": 83042, "pitch": 54, "duration": 48, "velocity": 74}, {"time": 83042, "pitch": 64, "duration": 120, "velocity": 101}, {"time": 83042, "pitch": 69, "duration": 42, "velocity": 72}, {"time": 83172, "pitch": 54, "duration": 47, "velocity": 88}, {"time": 83172, "pitch": 63, "duration": 89, "velocity": 112}, {"time": 83172, "pitch": 69, "duration": 40, "velocity": 91}, {"time": 83282, "pitch": 54, "duration": 80, "velocity": 112}, {"time": 83283, "pitch": 62, "duration": 114, "velocity": 125}, {"time": 83283, "pitch": 69, "duration": 55, "velocity": 86}, {"time": 83411, "pitch": 54, "duration": 33, "velocity": 66}, {"time": 83521, "pitch": 54, "duration": 45, "velocity": 53}, {"time": 83521, "pitch": 63, "duration": 76, "velocity": 114}, {"time": 83521, "pitch": 70, "duration": 70, "velocity": 89}, {"time": 83651, "pitch": 54, "duration": 41, "velocity": 73}, {"time": 83760, "pitch": 54, "duration": 72, "velocity": 112}, {"time": 83760, "pitch": 64, "duration": 26, "velocity": 108}, {"time": 83760, "pitch": 69, "duration": 40, "velocity": 86}, {"time": 83890, "pitch": 54, "duration": 30, "velocity": 83}, {"time": 83890, "pitch": 64, "duration": 67, "velocity": 110}, {"time": 83890, "pitch": 69, "duration": 33, "velocity": 77}, {"time": 83999, "pitch": 54, "duration": 43, "velocity": 84}, {"time": 83999, "pitch": 63, "duration": 92, "velocity": 115}, {"time": 83999, "pitch": 69, "duration": 45, "velocity": 84}, {"time": 84129, "pitch": 54, "duration": 42, "velocity": 88}, {"time": 84129, "pitch": 63, "duration": 46, "velocity": 93}, {"time": 84129, "pitch": 69, "duration": 30, "velocity": 81}, {"time": 84239, "pitch": 54, "duration": 81, "velocity": 110}, {"time": 84239, "pitch": 63, "duration": 63, "velocity": 114}, {"time": 84239, "pitch": 69, "duration": 91, "velocity": 94}, {"time": 84368, "pitch": 54, "duration": 38, "velocity": 67}, {"time": 84368, "pitch": 63, "duration": 65, "velocity": 90}, {"time": 84478, "pitch": 54, "duration": 52, "velocity": 58}, {"time": 84478, "pitch": 63, "duration": 71, "velocity": 101}, {"time": 84478, "pitch": 70, "duration": 81, "velocity": 91}, {"time": 84608, "pitch": 54, "duration": 39, "velocity": 76}, {"time": 84608, "pitch": 63, "duration": 66, "velocity": 116}, {"time": 84717, "pitch": 54, "duration": 81, "velocity": 107}, {"time": 84717, "pitch": 63, "duration": 66, "velocity": 125}, {"time": 84717, "pitch": 64, "duration": 66, "velocity": 125}, {"time": 84717, "pitch": 69, "duration": 35, "velocity": 82}, {"time": 84847, "pitch": 54, "duration": 35, "velocity": 75}, {"time": 84847, "pitch": 63, "duration": 65, "velocity": 125}, {"time": 84847, "pitch": 64, "duration": 65, "velocity": 125}, {"time": 84847, "pitch": 69, "duration": 38, "velocity": 88}, {"time": 84956, "pitch": 49, "duration": 1949, "velocity": 120}, {"time": 84957, "pitch": 69, "duration": 37, "velocity": 82}, {"time": 84958, "pitch": 54, "duration": 62, "velocity": 81}, {"time": 84958, "pitch": 64, "duration": 133, "velocity": 125}, {"time": 85089, "pitch": 54, "duration": 33, "velocity": 72}, {"time": 85089, "pitch": 63, "duration": 84, "velocity": 115}, {"time": 85089, "pitch": 69, "duration": 31, "velocity": 86}, {"time": 85201, "pitch": 54, "duration": 82, "velocity": 94}, {"time": 85201, "pitch": 62, "duration": 84, "velocity": 115}, {"time": 85201, "pitch": 69, "duration": 31, "velocity": 83}, {"time": 85333, "pitch": 54, "duration": 35, "velocity": 74}, {"time": 85445, "pitch": 54, "duration": 53, "velocity": 79}, {"time": 85445, "pitch": 63, "duration": 101, "velocity": 115}, {"time": 85445, "pitch": 70, "duration": 64, "velocity": 91}, {"time": 85574, "pitch": 54, "duration": 35, "velocity": 83}, {"time": 85684, "pitch": 54, "duration": 80, "velocity": 103}, {"time": 85684, "pitch": 64, "duration": 44, "velocity": 58}, {"time": 85684, "pitch": 69, "duration": 33, "velocity": 80}, {"time": 85813, "pitch": 54, "duration": 31, "velocity": 77}, {"time": 85813, "pitch": 64, "duration": 255, "velocity": 125}, {"time": 85813, "pitch": 69, "duration": 43, "velocity": 77}, {"time": 85923, "pitch": 54, "duration": 38, "velocity": 66}, {"time": 85923, "pitch": 69, "duration": 36, "velocity": 77}, {"time": 86053, "pitch": 54, "duration": 35, "velocity": 86}, {"time": 86053, "pitch": 63, "duration": 121, "velocity": 101}, {"time": 86053, "pitch": 69, "duration": 47, "velocity": 89}, {"time": 86162, "pitch": 69, "duration": 59, "velocity": 83}, {"time": 86163, "pitch": 54, "duration": 81, "velocity": 107}, {"time": 86163, "pitch": 62, "duration": 56, "velocity": 125}, {"time": 86292, "pitch": 54, "duration": 34, "velocity": 73}, {"time": 86402, "pitch": 70, "duration": 64, "velocity": 88}, {"time": 86403, "pitch": 54, "duration": 44, "velocity": 52}, {"time": 86403, "pitch": 63, "duration": 78, "velocity": 115}, {"time": 86531, "pitch": 54, "duration": 33, "velocity": 82}, {"time": 86641, "pitch": 54, "duration": 81, "velocity": 100}, {"time": 86641, "pitch": 64, "duration": 26, "velocity": 105}, {"time": 86641, "pitch": 69, "duration": 37, "velocity": 84}, {"time": 86771, "pitch": 54, "duration": 32, "velocity": 73}, {"time": 86771, "pitch": 64, "duration": 227, "velocity": 112}, {"time": 86771, "pitch": 69, "duration": 34, "velocity": 73}, {"time": 86880, "pitch": 54, "duration": 48, "velocity": 74}, {"time": 86880, "pitch": 69, "duration": 42, "velocity": 72}, {"time": 87010, "pitch": 54, "duration": 47, "velocity": 88}, {"time": 87010, "pitch": 63, "duration": 110, "velocity": 98}, {"time": 87010, "pitch": 69, "duration": 40, "velocity": 91}, {"time": 87120, "pitch": 54, "duration": 80, "velocity": 112}, {"time": 87120, "pitch": 62, "duration": 70, "velocity": 119}, {"time": 87121, "pitch": 69, "duration": 55, "velocity": 86}, {"time": 87249, "pitch": 54, "duration": 33, "velocity": 66}, {"time": 87359, "pitch": 54, "duration": 45, "velocity": 53}, {"time": 87359, "pitch": 63, "duration": 96, "velocity": 110}, {"time": 87359, "pitch": 70, "duration": 70, "velocity": 89}, {"time": 87488, "pitch": 54, "duration": 42, "velocity": 73}, {"time": 87598, "pitch": 54, "duration": 72, "velocity": 112}, {"time": 87598, "pitch": 64, "duration": 33, "velocity": 105}, {"time": 87598, "pitch": 69, "duration": 40, "velocity": 86}, {"time": 87728, "pitch": 54, "duration": 30, "velocity": 83}, {"time": 87728, "pitch": 64, "duration": 230, "velocity": 115}, {"time": 87728, "pitch": 69, "duration": 33, "velocity": 77}, {"time": 87837, "pitch": 54, "duration": 44, "velocity": 84}, {"time": 87837, "pitch": 69, "duration": 46, "velocity": 84}, {"time": 87970, "pitch": 54, "duration": 42, "velocity": 88}, {"time": 87970, "pitch": 63, "duration": 114, "velocity": 97}, {"time": 87970, "pitch": 69, "duration": 30, "velocity": 81}, {"time": 88081, "pitch": 54, "duration": 83, "velocity": 110}, {"time": 88081, "pitch": 62, "duration": 65, "velocity": 124}, {"time": 88081, "pitch": 69, "duration": 94, "velocity": 94}, {"time": 88214, "pitch": 54, "duration": 38, "velocity": 67}, {"time": 88325, "pitch": 54, "duration": 52, "velocity": 58}, {"time": 88325, "pitch": 63, "duration": 86, "velocity": 115}, {"time": 88325, "pitch": 70, "duration": 81, "velocity": 91}, {"time": 88455, "pitch": 54, "duration": 39, "velocity": 76}, {"time": 88455, "pitch": 63, "duration": 27, "velocity": 99}, {"time": 88565, "pitch": 54, "duration": 80, "velocity": 107}, {"time": 88565, "pitch": 64, "duration": 48, "velocity": 58}, {"time": 88565, "pitch": 69, "duration": 35, "velocity": 82}, {"time": 88694, "pitch": 54, "duration": 35, "velocity": 75}, {"time": 88694, "pitch": 64, "duration": 94, "velocity": 74}, {"time": 88694, "pitch": 69, "duration": 38, "velocity": 88}, {"time": 88804, "pitch": 64, "duration": 133, "velocity": 98}, {"time": 88804, "pitch": 69, "duration": 37, "velocity": 82}, {"time": 88805, "pitch": 54, "duration": 61, "velocity": 81}, {"time": 88934, "pitch": 54, "duration": 32, "velocity": 72}, {"time": 88934, "pitch": 63, "duration": 80, "velocity": 115}, {"time": 88934, "pitch": 69, "duration": 30, "velocity": 86}, {"time": 89043, "pitch": 54, "duration": 81, "velocity": 94}, {"time": 89043, "pitch": 62, "duration": 69, "velocity": 119}, {"time": 89043, "pitch": 69, "duration": 31, "velocity": 83}, {"time": 89173, "pitch": 54, "duration": 35, "velocity": 74}, {"time": 89282, "pitch": 54, "duration": 54, "velocity": 79}, {"time": 89282, "pitch": 63, "duration": 79, "velocity": 112}, {"time": 89282, "pitch": 70, "duration": 65, "velocity": 91}, {"time": 89412, "pitch": 54, "duration": 35, "velocity": 83}, {"time": 89522, "pitch": 54, "duration": 80, "velocity": 103}, {"time": 89522, "pitch": 64, "duration": 31, "velocity": 99}, {"time": 89522, "pitch": 69, "duration": 33, "velocity": 80}, {"time": 89651, "pitch": 54, "duration": 31, "velocity": 77}, {"time": 89651, "pitch": 64, "duration": 195, "velocity": 108}, {"time": 89651, "pitch": 69, "duration": 43, "velocity": 77}, {"time": 89761, "pitch": 54, "duration": 38, "velocity": 66}, {"time": 89761, "pitch": 69, "duration": 36, "velocity": 77}, {"time": 89891, "pitch": 54, "duration": 35, "velocity": 86}, {"time": 89891, "pitch": 63, "duration": 84, "velocity": 92}, {"time": 89891, "pitch": 69, "duration": 47, "velocity": 89}, {"time": 90000, "pitch": 62, "duration": 97, "velocity": 125}, {"time": 90000, "pitch": 69, "duration": 59, "velocity": 83}, {"time": 90001, "pitch": 54, "duration": 81, "velocity": 107}, {"time": 90130, "pitch": 54, "duration": 34, "velocity": 73}, {"time": 90240, "pitch": 63, "duration": 84, "velocity": 117}, {"time": 90240, "pitch": 70, "duration": 63, "velocity": 88}, {"time": 90241, "pitch": 54, "duration": 43, "velocity": 52}, {"time": 90369, "pitch": 54, "duration": 33, "velocity": 82}, {"time": 90479, "pitch": 54, "duration": 81, "velocity": 100}, {"time": 90479, "pitch": 64, "duration": 29, "velocity": 99}, {"time": 90479, "pitch": 69, "duration": 37, "velocity": 84}, {"time": 90609, "pitch": 54, "duration": 32, "velocity": 73}, {"time": 90609, "pitch": 69, "duration": 34, "velocity": 73}, {"time": 90718, "pitch": 54, "duration": 48, "velocity": 74}, {"time": 90718, "pitch": 64, "duration": 91, "velocity": 33}, {"time": 90718, "pitch": 69, "duration": 42, "velocity": 72}, {"time": 90848, "pitch": 54, "duration": 47, "velocity": 88}, {"time": 90848, "pitch": 63, "duration": 87, "velocity": 117}, {"time": 90848, "pitch": 69, "duration": 40, "velocity": 91}, {"time": 90957, "pitch": 54, "duration": 81, "velocity": 112}, {"time": 90958, "pitch": 62, "duration": 90, "velocity": 124}, {"time": 90958, "pitch": 69, "duration": 56, "velocity": 86}, {"time": 91087, "pitch": 54, "duration": 33, "velocity": 66}, {"time": 91197, "pitch": 54, "duration": 45, "velocity": 53}, {"time": 91197, "pitch": 63, "duration": 80, "velocity": 124}, {"time": 91197, "pitch": 70, "duration": 71, "velocity": 89}, {"time": 91329, "pitch": 54, "duration": 43, "velocity": 73}, {"time": 91329, "pitch": 64, "duration": 28, "velocity": 117}, {"time": 91441, "pitch": 54, "duration": 73, "velocity": 112}, {"time": 91441, "pitch": 63, "duration": 29, "velocity": 88}, {"time": 91441, "pitch": 69, "duration": 40, "velocity": 86}, {"time": 91573, "pitch": 54, "duration": 30, "velocity": 83}, {"time": 91573, "pitch": 63, "duration": 89, "velocity": 125}, {"time": 91573, "pitch": 69, "duration": 34, "velocity": 77}, {"time": 91685, "pitch": 54, "duration": 43, "velocity": 84}, {"time": 91685, "pitch": 69, "duration": 45, "velocity": 84}, {"time": 91814, "pitch": 54, "duration": 42, "velocity": 88}, {"time": 91814, "pitch": 63, "duration": 60, "velocity": 115}, {"time": 91814, "pitch": 69, "duration": 30, "velocity": 81}, {"time": 91924, "pitch": 54, "duration": 81, "velocity": 110}, {"time": 91924, "pitch": 62, "duration": 123, "velocity": 125}, {"time": 91924, "pitch": 69, "duration": 92, "velocity": 94}, {"time": 92054, "pitch": 54, "duration": 37, "velocity": 67}, {"time": 92163, "pitch": 54, "duration": 52, "velocity": 58}, {"time": 92163, "pitch": 63, "duration": 64, "velocity": 117}, {"time": 92163, "pitch": 70, "duration": 81, "velocity": 91}, {"time": 92293, "pitch": 54, "duration": 39, "velocity": 76}, {"time": 92403, "pitch": 54, "duration": 80, "velocity": 107}, {"time": 92403, "pitch": 64, "duration": 26, "velocity": 115}, {"time": 92403, "pitch": 69, "duration": 34, "velocity": 82}, {"time": 92532, "pitch": 54, "duration": 35, "velocity": 75}, {"time": 92532, "pitch": 64, "duration": 100, "velocity": 110}, {"time": 92532, "pitch": 69, "duration": 38, "velocity": 88}, {"time": 92641, "pitch": 49, "duration": 1949, "velocity": 120}, {"time": 92642, "pitch": 69, "duration": 37, "velocity": 82}, {"time": 92643, "pitch": 54, "duration": 61, "velocity": 81}, {"time": 92643, "pitch": 64, "duration": 130, "velocity": 125}, {"time": 92771, "pitch": 54, "duration": 33, "velocity": 72}, {"time": 92771, "pitch": 63, "duration": 83, "velocity": 115}, {"time": 92771, "pitch": 69, "duration": 31, "velocity": 86}, {"time": 92881, "pitch": 54, "duration": 81, "velocity": 94}, {"time": 92881, "pitch": 62, "duration": 83, "velocity": 115}, {"time": 92881, "pitch": 69, "duration": 31, "velocity": 83}, {"time": 93011, "pitch": 54, "duration": 35, "velocity": 74}, {"time": 93120, "pitch": 54, "duration": 54, "velocity": 79}, {"time": 93120, "pitch": 63, "duration": 102, "velocity": 115}, {"time": 93120, "pitch": 70, "duration": 65, "velocity": 91}, {"time": 93250, "pitch": 54, "duration": 35, "velocity": 83}, {"time": 93360, "pitch": 54, "duration": 79, "velocity": 103}, {"time": 93360, "pitch": 64, "duration": 44, "velocity": 58}, {"time": 93360, "pitch": 69, "duration": 33, "velocity": 80}, {"time": 93489, "pitch": 54, "duration": 31, "velocity": 77}, {"time": 93489, "pitch": 64, "duration": 255, "velocity": 125}, {"time": 93489, "pitch": 69, "duration": 43, "velocity": 77}, {"time": 93599, "pitch": 54, "duration": 38, "velocity": 66}, {"time": 93599, "pitch": 69, "duration": 36, "velocity": 77}, {"time": 93729, "pitch": 54, "duration": 34, "velocity": 86}, {"time": 93729, "pitch": 63, "duration": 121, "velocity": 101}, {"time": 93729, "pitch": 69, "duration": 46, "velocity": 89}, {"time": 93838, "pitch": 69, "duration": 59, "velocity": 83}, {"time": 93839, "pitch": 54, "duration": 81, "velocity": 107}, {"time": 93839, "pitch": 62, "duration": 56, "velocity": 125}, {"time": 93968, "pitch": 54, "duration": 34, "velocity": 73}, {"time": 94078, "pitch": 70, "duration": 65, "velocity": 88}, {"time": 94079, "pitch": 54, "duration": 44, "velocity": 52}, {"time": 94079, "pitch": 63, "duration": 80, "velocity": 115}, {"time": 94210, "pitch": 54, "duration": 33, "velocity": 82}, {"time": 94322, "pitch": 54, "duration": 82, "velocity": 100}, {"time": 94322, "pitch": 64, "duration": 26, "velocity": 105}, {"time": 94322, "pitch": 69, "duration": 37, "velocity": 84}, {"time": 94454, "pitch": 54, "duration": 33, "velocity": 73}, {"time": 94454, "pitch": 64, "duration": 229, "velocity": 112}, {"time": 94454, "pitch": 69, "duration": 35, "velocity": 73}, {"time": 94566, "pitch": 54, "duration": 47, "velocity": 74}, {"time": 94566, "pitch": 69, "duration": 41, "velocity": 72}, {"time": 94695, "pitch": 54, "duration": 47, "velocity": 88}, {"time": 94695, "pitch": 63, "duration": 110, "velocity": 98}, {"time": 94695, "pitch": 69, "duration": 40, "velocity": 91}, {"time": 94805, "pitch": 54, "duration": 81, "velocity": 112}, {"time": 94805, "pitch": 62, "duration": 71, "velocity": 119}, {"time": 94806, "pitch": 69, "duration": 56, "velocity": 86}, {"time": 94934, "pitch": 54, "duration": 33, "velocity": 66}, {"time": 95044, "pitch": 54, "duration": 45, "velocity": 53}, {"time": 95044, "pitch": 63, "duration": 96, "velocity": 110}, {"time": 95044, "pitch": 70, "duration": 70, "velocity": 89}, {"time": 95174, "pitch": 54, "duration": 42, "velocity": 73}, {"time": 95283, "pitch": 54, "duration": 72, "velocity": 112}, {"time": 95283, "pitch": 64, "duration": 33, "velocity": 105}, {"time": 95283, "pitch": 69, "duration": 40, "velocity": 86}, {"time": 95413, "pitch": 54, "duration": 30, "velocity": 83}, {"time": 95413, "pitch": 64, "duration": 228, "velocity": 115}, {"time": 95413, "pitch": 69, "duration": 33, "velocity": 77}, {"time": 95523, "pitch": 54, "duration": 43, "velocity": 84}, {"time": 95523, "pitch": 69, "duration": 45, "velocity": 84}, {"time": 95652, "pitch": 54, "duration": 42, "velocity": 88}, {"time": 95652, "pitch": 63, "duration": 113, "velocity": 97}, {"time": 95652, "pitch": 69, "duration": 30, "velocity": 81}, {"time": 95762, "pitch": 54, "duration": 81, "velocity": 110}, {"time": 95762, "pitch": 62, "duration": 64, "velocity": 124}, {"time": 95762, "pitch": 69, "duration": 92, "velocity": 94}, {"time": 95892, "pitch": 54, "duration": 37, "velocity": 67}, {"time": 96001, "pitch": 54, "duration": 52, "velocity": 58}, {"time": 96001, "pitch": 63, "duration": 86, "velocity": 115}, {"time": 96001, "pitch": 70, "duration": 81, "velocity": 91}, {"time": 96131, "pitch": 54, "duration": 39, "velocity": 76}, {"time": 96131, "pitch": 63, "duration": 27, "velocity": 99}, {"time": 96240, "pitch": 54, "duration": 81, "velocity": 107}, {"time": 96240, "pitch": 64, "duration": 48, "velocity": 58}, {"time": 96240, "pitch": 69, "duration": 35, "velocity": 82}, {"time": 96370, "pitch": 54, "duration": 35, "velocity": 75}, {"time": 96370, "pitch": 64, "duration": 94, "velocity": 74}, {"time": 96370, "pitch": 69, "duration": 38, "velocity": 88}, {"time": 96480, "pitch": 64, "duration": 132, "velocity": 98}, {"time": 96480, "pitch": 69, "duration": 37, "velocity": 82}, {"time": 96481, "pitch": 54, "duration": 61, "velocity": 81}, {"time": 96609, "pitch": 54, "duration": 33, "velocity": 72}, {"time": 96609, "pitch": 63, "duration": 81, "velocity": 115}, {"time": 96609, "pitch": 69, "duration": 31, "velocity": 86}, {"time": 96719, "pitch": 54, "duration": 81, "velocity": 94}, {"time": 96719, "pitch": 62, "duration": 69, "velocity": 119}, {"time": 96719, "pitch": 69, "duration": 31, "velocity": 83}, {"time": 96849, "pitch": 54, "duration": 35, "velocity": 74}, {"time": 96958, "pitch": 54, "duration": 54, "velocity": 79}, {"time": 96958, "pitch": 63, "duration": 79, "velocity": 112}, {"time": 96958, "pitch": 70, "duration": 65, "velocity": 91}, {"time": 97088, "pitch": 54, "duration": 35, "velocity": 83}, {"time": 97198, "pitch": 54, "duration": 79, "velocity": 103}, {"time": 97198, "pitch": 64, "duration": 31, "velocity": 99}, {"time": 97198, "pitch": 69, "duration": 33, "velocity": 80}, {"time": 97327, "pitch": 54, "duration": 31, "velocity": 77}, {"time": 97327, "pitch": 64, "duration": 196, "velocity": 108}, {"time": 97327, "pitch": 69, "duration": 43, "velocity": 77}, {"time": 97437, "pitch": 54, "duration": 38, "velocity": 66}, {"time": 97437, "pitch": 69, "duration": 36, "velocity": 77}, {"time": 97569, "pitch": 54, "duration": 36, "velocity": 86}, {"time": 97569, "pitch": 63, "duration": 86, "velocity": 92}, {"time": 97569, "pitch": 69, "duration": 48, "velocity": 89}, {"time": 97681, "pitch": 62, "duration": 99, "velocity": 125}, {"time": 97681, "pitch": 69, "duration": 60, "velocity": 83}, {"time": 97682, "pitch": 54, "duration": 82, "velocity": 107}, {"time": 97813, "pitch": 54, "duration": 35, "velocity": 73}, {"time": 97925, "pitch": 63, "duration": 85, "velocity": 117}, {"time": 97925, "pitch": 70, "duration": 64, "velocity": 88}, {"time": 97926, "pitch": 54, "duration": 44, "velocity": 52}, {"time": 98054, "pitch": 54, "duration": 33, "velocity": 82}, {"time": 98164, "pitch": 54, "duration": 81, "velocity": 100}, {"time": 98164, "pitch": 64, "duration": 29, "velocity": 99}, {"time": 98164, "pitch": 69, "duration": 37, "velocity": 84}, {"time": 98294, "pitch": 54, "duration": 33, "velocity": 73}, {"time": 98294, "pitch": 69, "duration": 35, "velocity": 73}, {"time": 98403, "pitch": 54, "duration": 48, "velocity": 74}, {"time": 98403, "pitch": 64, "duration": 91, "velocity": 33}, {"time": 98403, "pitch": 69, "duration": 42, "velocity": 72}, {"time": 98533, "pitch": 54, "duration": 47, "velocity": 88}, {"time": 98533, "pitch": 63, "duration": 87, "velocity": 117}, {"time": 98533, "pitch": 69, "duration": 40, "velocity": 91}, {"time": 98643, "pitch": 54, "duration": 80, "velocity": 112}, {"time": 98644, "pitch": 62, "duration": 89, "velocity": 124}, {"time": 98644, "pitch": 69, "duration": 56, "velocity": 86}, {"time": 98772, "pitch": 54, "duration": 33, "velocity": 66}, {"time": 98882, "pitch": 54, "duration": 45, "velocity": 53}, {"time": 98882, "pitch": 63, "duration": 79, "velocity": 124}, {"time": 98882, "pitch": 70, "duration": 70, "velocity": 89}, {"time": 99012, "pitch": 54, "duration": 41, "velocity": 73}, {"time": 99012, "pitch": 64, "duration": 28, "velocity": 117}, {"time": 99121, "pitch": 54, "duration": 72, "velocity": 112}, {"time": 99121, "pitch": 63, "duration": 29, "velocity": 88}, {"time": 99121, "pitch": 69, "duration": 40, "velocity": 86}, {"time": 99251, "pitch": 54, "duration": 30, "velocity": 83}, {"time": 99251, "pitch": 63, "duration": 88, "velocity": 125}, {"time": 99251, "pitch": 69, "duration": 33, "velocity": 77}, {"time": 99361, "pitch": 54, "duration": 42, "velocity": 84}, {"time": 99361, "pitch": 69, "duration": 44, "velocity": 84}, {"time": 99490, "pitch": 54, "duration": 42, "velocity": 88}, {"time": 99490, "pitch": 63, "duration": 60, "velocity": 115}, {"time": 99490, "pitch": 69, "duration": 30, "velocity": 81}, {"time": 99600, "pitch": 54, "duration": 81, "velocity": 110}, {"time": 99600, "pitch": 62, "duration": 122, "velocity": 125}, {"time": 99600, "pitch": 69, "duration": 92, "velocity": 94}, {"time": 99729, "pitch": 54, "duration": 38, "velocity": 67}, {"time": 99839, "pitch": 54, "duration": 52, "velocity": 58}, {"time": 99839, "pitch": 63, "duration": 64, "velocity": 117}, {"time": 99839, "pitch": 70, "duration": 81, "velocity": 91}, {"time": 99969, "pitch": 54, "duration": 39, "velocity": 76}, {"time": 100078, "pitch": 54, "duration": 81, "velocity": 107}, {"time": 100078, "pitch": 64, "duration": 27, "velocity": 115}, {"time": 100078, "pitch": 69, "duration": 35, "velocity": 82}, {"time": 100208, "pitch": 54, "duration": 35, "velocity": 75}, {"time": 100208, "pitch": 64, "duration": 100, "velocity": 110}, {"time": 100208, "pitch": 69, "duration": 38, "velocity": 88}, {"time": 100317, "pitch": 49, "duration": 1949, "velocity": 120}, {"time": 100318, "pitch": 69, "duration": 37, "velocity": 82}, {"time": 100319, "pitch": 54, "duration": 62, "velocity": 81}, {"time": 100319, "pitch": 64, "duration": 133, "velocity": 125}, {"time": 100450, "pitch": 54, "duration": 33, "velocity": 72}, {"time": 100450, "pitch": 63, "duration": 84, "velocity": 115}, {"time": 100450, "pitch": 69, "duration": 31, "velocity": 86}, {"time": 100562, "pitch": 54, "duration": 82, "velocity": 94}, {"time": 100562, "pitch": 62, "duration": 84, "velocity": 115}, {"time": 100562, "pitch": 69, "duration": 31, "velocity": 83}, {"time": 100694, "pitch": 54, "duration": 36, "velocity": 74}, {"time": 100806, "pitch": 54, "duration": 54, "velocity": 79}, {"time": 100806, "pitch": 63, "duration": 101, "velocity": 115}, {"time": 100806, "pitch": 70, "duration": 64, "velocity": 91}, {"time": 100935, "pitch": 54, "duration": 35, "velocity": 83}, {"time": 101045, "pitch": 54, "duration": 80, "velocity": 103}, {"time": 101045, "pitch": 64, "duration": 44, "velocity": 58}, {"time": 101045, "pitch": 69, "duration": 33, "velocity": 80}, {"time": 101175, "pitch": 54, "duration": 30, "velocity": 77}, {"time": 101175, "pitch": 64, "duration": 254, "velocity": 125}, {"time": 101175, "pitch": 69, "duration": 42, "velocity": 77}, {"time": 101284, "pitch": 54, "duration": 38, "velocity": 66}, {"time": 101284, "pitch": 69, "duration": 36, "velocity": 77}, {"time": 101414, "pitch": 54, "duration": 35, "velocity": 86}, {"time": 101414, "pitch": 63, "duration": 121, "velocity": 101}, {"time": 101414, "pitch": 69, "duration": 47, "velocity": 89}, {"time": 101524, "pitch": 69, "duration": 58, "velocity": 83}, {"time": 101525, "pitch": 54, "duration": 80, "velocity": 107}, {"time": 101525, "pitch": 62, "duration": 55, "velocity": 125}, {"time": 101653, "pitch": 54, "duration": 34, "velocity": 73}, {"time": 101763, "pitch": 70, "duration": 64, "velocity": 88}, {"time": 101764, "pitch": 54, "duration": 44, "velocity": 52}, {"time": 101764, "pitch": 63, "duration": 79, "velocity": 115}, {"time": 101892, "pitch": 54, "duration": 33, "velocity": 82}, {"time": 102002, "pitch": 54, "duration": 81, "velocity": 100}, {"time": 102002, "pitch": 64, "duration": 26, "velocity": 105}, {"time": 102002, "pitch": 69, "duration": 37, "velocity": 84}, {"time": 102132, "pitch": 54, "duration": 33, "velocity": 73}, {"time": 102132, "pitch": 64, "duration": 227, "velocity": 112}, {"time": 102132, "pitch": 69, "duration": 35, "velocity": 73}, {"time": 102241, "pitch": 54, "duration": 48, "velocity": 74}, {"time": 102241, "pitch": 69, "duration": 42, "velocity": 72}, {"time": 102371, "pitch": 54, "duration": 47, "velocity": 88}, {"time": 102371, "pitch": 63, "duration": 110, "velocity": 98}, {"time": 102371, "pitch": 69, "duration": 40, "velocity": 91}, {"time": 102481, "pitch": 54, "duration": 80, "velocity": 112}, {"time": 102481, "pitch": 62, "duration": 70, "velocity": 119}, {"time": 102482, "pitch": 69, "duration": 55, "velocity": 86}, {"time": 102610, "pitch": 54, "duration": 33, "velocity": 66}, {"time": 102720, "pitch": 54, "duration": 45, "velocity": 53}, {"time": 102720, "pitch": 63, "duration": 96, "velocity": 110}, {"time": 102720, "pitch": 70, "duration": 70, "velocity": 89}, {"time": 102850, "pitch": 54, "duration": 41, "velocity": 73}, {"time": 102959, "pitch": 54, "duration": 72, "velocity": 112}, {"time": 102959, "pitch": 64, "duration": 33, "velocity": 105}, {"time": 102959, "pitch": 69, "duration": 40, "velocity": 86}, {"time": 103089, "pitch": 54, "duration": 30, "velocity": 83}, {"time": 103089, "pitch": 64, "duration": 228, "velocity": 115}, {"time": 103089, "pitch": 69, "duration": 33, "velocity": 77}, {"time": 103198, "pitch": 54, "duration": 43, "velocity": 84}, {"time": 103198, "pitch": 69, "duration": 45, "velocity": 84}, {"time": 103328, "pitch": 54, "duration": 42, "velocity": 88}, {"time": 103328, "pitch": 63, "duration": 113, "velocity": 97}, {"time": 103328, "pitch": 69, "duration": 30, "velocity": 81}, {"time": 103438, "pitch": 54, "duration": 81, "velocity": 110}, {"time": 103438, "pitch": 62, "duration": 64, "velocity": 124}, {"time": 103438, "pitch": 69, "duration": 91, "velocity": 94}, {"time": 103567, "pitch": 54, "duration": 38, "velocity": 67}, {"time": 103677, "pitch": 54, "duration": 53, "velocity": 58}, {"time": 103677, "pitch": 63, "duration": 87, "velocity": 115}, {"time": 103677, "pitch": 70, "duration": 82, "velocity": 91}, {"time": 103809, "pitch": 54, "duration": 40, "velocity": 76}, {"time": 103809, "pitch": 63, "duration": 28, "velocity": 99}, {"time": 103921, "pitch": 54, "duration": 82, "velocity": 107}, {"time": 103921, "pitch": 64, "duration": 49, "velocity": 58}, {"time": 103921, "pitch": 69, "duration": 36, "velocity": 82}, {"time": 104053, "pitch": 54, "duration": 36, "velocity": 75}, {"time": 104053, "pitch": 64, "duration": 96, "velocity": 74}, {"time": 104053, "pitch": 69, "duration": 39, "velocity": 88}, {"time": 104165, "pitch": 64, "duration": 133, "velocity": 98}, {"time": 104165, "pitch": 69, "duration": 37, "velocity": 82}, {"time": 104166, "pitch": 54, "duration": 61, "velocity": 81}, {"time": 104295, "pitch": 54, "duration": 33, "velocity": 72}, {"time": 104295, "pitch": 63, "duration": 80, "velocity": 115}, {"time": 104295, "pitch": 69, "duration": 31, "velocity": 86}, {"time": 104404, "pitch": 54, "duration": 81, "velocity": 94}, {"time": 104404, "pitch": 62, "duration": 69, "velocity": 119}, {"time": 104404, "pitch": 69, "duration": 31, "velocity": 83}, {"time": 104534, "pitch": 54, "duration": 35, "velocity": 74}, {"time": 104644, "pitch": 54, "duration": 53, "velocity": 79}, {"time": 104644, "pitch": 63, "duration": 78, "velocity": 112}, {"time": 104644, "pitch": 70, "duration": 64, "velocity": 91}, {"time": 104773, "pitch": 54, "duration": 35, "velocity": 83}, {"time": 104883, "pitch": 54, "duration": 80, "velocity": 103}, {"time": 104883, "pitch": 64, "duration": 31, "velocity": 99}, {"time": 104883, "pitch": 69, "duration": 33, "velocity": 80}, {"time": 105012, "pitch": 54, "duration": 31, "velocity": 77}, {"time": 105012, "pitch": 64, "duration": 195, "velocity": 108}, {"time": 105012, "pitch": 69, "duration": 43, "velocity": 77}, {"time": 105122, "pitch": 54, "duration": 38, "velocity": 66}, {"time": 105122, "pitch": 69, "duration": 36, "velocity": 77}, {"time": 105252, "pitch": 54, "duration": 35, "velocity": 86}, {"time": 105252, "pitch": 63, "duration": 85, "velocity": 92}, {"time": 105252, "pitch": 69, "duration": 47, "velocity": 89}, {"time": 105361, "pitch": 62, "duration": 97, "velocity": 125}, {"time": 105361, "pitch": 69, "duration": 59, "velocity": 83}, {"time": 105362, "pitch": 54, "duration": 81, "velocity": 107}, {"time": 105491, "pitch": 54, "duration": 34, "velocity": 73}, {"time": 105601, "pitch": 63, "duration": 84, "velocity": 117}, {"time": 105601, "pitch": 70, "duration": 64, "velocity": 88}, {"time": 105602, "pitch": 54, "duration": 44, "velocity": 52}, {"time": 105730, "pitch": 54, "duration": 33, "velocity": 82}, {"time": 105840, "pitch": 54, "duration": 81, "velocity": 100}, {"time": 105840, "pitch": 64, "duration": 29, "velocity": 99}, {"time": 105840, "pitch": 69, "duration": 37, "velocity": 84}, {"time": 105970, "pitch": 54, "duration": 33, "velocity": 73}, {"time": 105970, "pitch": 69, "duration": 35, "velocity": 73}, {"time": 106079, "pitch": 54, "duration": 48, "velocity": 74}, {"time": 106079, "pitch": 64, "duration": 91, "velocity": 33}, {"time": 106079, "pitch": 69, "duration": 42, "velocity": 72}, {"time": 106209, "pitch": 54, "duration": 47, "velocity": 88}, {"time": 106209, "pitch": 63, "duration": 87, "velocity": 117}, {"time": 106209, "pitch": 69, "duration": 40, "velocity": 91}, {"time": 106319, "pitch": 54, "duration": 80, "velocity": 112}, {"time": 106320, "pitch": 62, "duration": 89, "velocity": 124}, {"time": 106320, "pitch": 69, "duration": 55, "velocity": 86}, {"time": 106448, "pitch": 54, "duration": 33, "velocity": 66}, {"time": 106558, "pitch": 54, "duration": 45, "velocity": 53}, {"time": 106558, "pitch": 63, "duration": 79, "velocity": 124}, {"time": 106558, "pitch": 70, "duration": 70, "velocity": 89}, {"time": 106687, "pitch": 54, "duration": 42, "velocity": 73}, {"time": 106687, "pitch": 64, "duration": 28, "velocity": 117}, {"time": 106797, "pitch": 54, "duration": 72, "velocity": 112}, {"time": 106797, "pitch": 63, "duration": 29, "velocity": 88}, {"time": 106797, "pitch": 69, "duration": 40, "velocity": 86}, {"time": 106927, "pitch": 54, "duration": 30, "velocity": 83}, {"time": 106927, "pitch": 63, "duration": 87, "velocity": 125}, {"time": 106927, "pitch": 69, "duration": 33, "velocity": 77}, {"time": 107036, "pitch": 54, "duration": 44, "velocity": 84}, {"time": 107036, "pitch": 69, "duration": 46, "velocity": 84}, {"time": 107169, "pitch": 54, "duration": 42, "velocity": 88}, {"time": 107169, "pitch": 63, "duration": 61, "velocity": 115}, {"time": 107169, "pitch": 69, "duration": 30, "velocity": 81}, {"time": 107280, "pitch": 54, "duration": 83, "velocity": 110}, {"time": 107280, "pitch": 62, "duration": 125, "velocity": 125}, {"time": 107280, "pitch": 69, "duration": 94, "velocity": 94}, {"time": 107413, "pitch": 54, "duration": 38, "velocity": 67}, {"time": 107524, "pitch": 54, "duration": 52, "velocity": 58}, {"time": 107524, "pitch": 63, "duration": 64, "velocity": 117}, {"time": 107524, "pitch": 70, "duration": 81, "velocity": 91}, {"time": 107654, "pitch": 54, "duration": 39, "velocity": 76}, {"time": 107764, "pitch": 54, "duration": 80, "velocity": 107}, {"time": 107764, "pitch": 64, "duration": 27, "velocity": 115}, {"time": 107764, "pitch": 69, "duration": 35, "velocity": 82}, {"time": 107893, "pitch": 54, "duration": 35, "velocity": 75}, {"time": 107893, "pitch": 64, "duration": 100, "velocity": 110}, {"time": 107893, "pitch": 69, "duration": 38, "velocity": 88}, {"time": 108002, "pitch": 49, "duration": 1941, "velocity": 120}, {"time": 108003, "pitch": 69, "duration": 37, "velocity": 82}, {"time": 108004, "pitch": 54, "duration": 61, "velocity": 81}, {"time": 108004, "pitch": 64, "duration": 131, "velocity": 125}, {"time": 108133, "pitch": 54, "duration": 32, "velocity": 72}, {"time": 108133, "pitch": 63, "duration": 82, "velocity": 115}, {"time": 108133, "pitch": 69, "duration": 30, "velocity": 86}, {"time": 108242, "pitch": 54, "duration": 81, "velocity": 94}, {"time": 108242, "pitch": 62, "duration": 83, "velocity": 115}, {"time": 108242, "pitch": 69, "duration": 31, "velocity": 83}, {"time": 108372, "pitch": 54, "duration": 35, "velocity": 74}, {"time": 108482, "pitch": 54, "duration": 53, "velocity": 79}, {"time": 108482, "pitch": 63, "duration": 101, "velocity": 115}, {"time": 108482, "pitch": 70, "duration": 64, "velocity": 91}, {"time": 108611, "pitch": 54, "duration": 35, "velocity": 83}, {"time": 108721, "pitch": 54, "duration": 80, "velocity": 103}, {"time": 108721, "pitch": 64, "duration": 44, "velocity": 58}, {"time": 108721, "pitch": 69, "duration": 33, "velocity": 80}, {"time": 108850, "pitch": 54, "duration": 31, "velocity": 77}, {"time": 108850, "pitch": 64, "duration": 255, "velocity": 125}, {"time": 108850, "pitch": 69, "duration": 43, "velocity": 77}, {"time": 108960, "pitch": 54, "duration": 38, "velocity": 66}, {"time": 108960, "pitch": 69, "duration": 36, "velocity": 77}, {"time": 109090, "pitch": 54, "duration": 35, "velocity": 86}, {"time": 109090, "pitch": 63, "duration": 121, "velocity": 101}, {"time": 109090, "pitch": 69, "duration": 47, "velocity": 89}, {"time": 109199, "pitch": 69, "duration": 59, "velocity": 83}, {"time": 109200, "pitch": 54, "duration": 81, "velocity": 107}, {"time": 109200, "pitch": 62, "duration": 56, "velocity": 125}, {"time": 109329, "pitch": 54, "duration": 34, "velocity": 73}, {"time": 109439, "pitch": 70, "duration": 63, "velocity": 88}, {"time": 109440, "pitch": 54, "duration": 44, "velocity": 52}, {"time": 109440, "pitch": 63, "duration": 78, "velocity": 115}, {"time": 109568, "pitch": 54, "duration": 33, "velocity": 82}, {"time": 109678, "pitch": 54, "duration": 81, "velocity": 100}, {"time": 109678, "pitch": 64, "duration": 26, "velocity": 105}, {"time": 109678, "pitch": 69, "duration": 37, "velocity": 84}, {"time": 109808, "pitch": 54, "duration": 32, "velocity": 73}, {"time": 109808, "pitch": 64, "duration": 229, "velocity": 112}, {"time": 109808, "pitch": 69, "duration": 34, "velocity": 73}, {"time": 109917, "pitch": 54, "duration": 49, "velocity": 74}, {"time": 109917, "pitch": 69, "duration": 43, "velocity": 72}, {"time": 110049, "pitch": 54, "duration": 48, "velocity": 88}, {"time": 110049, "pitch": 63, "duration": 112, "velocity": 98}, {"time": 110049, "pitch": 69, "duration": 41, "velocity": 91}, {"time": 110161, "pitch": 54, "duration": 83, "velocity": 112}, {"time": 110161, "pitch": 62, "duration": 72, "velocity": 119}, {"time": 110162, "pitch": 69, "duration": 57, "velocity": 86}, {"time": 110293, "pitch": 54, "duration": 34, "velocity": 66}, {"time": 110405, "pitch": 54, "duration": 45, "velocity": 53}, {"time": 110405, "pitch": 63, "duration": 96, "velocity": 110}, {"time": 110405, "pitch": 70, "duration": 70, "velocity": 89}, {"time": 110535, "pitch": 54, "duration": 42, "velocity": 73}, {"time": 110644, "pitch": 54, "duration": 72, "velocity": 112}, {"time": 110644, "pitch": 64, "duration": 33, "velocity": 105}, {"time": 110644, "pitch": 69, "duration": 40, "velocity": 86}, {"time": 110774, "pitch": 54, "duration": 30, "velocity": 83}, {"time": 110774, "pitch": 64, "duration": 228, "velocity": 115}, {"time": 110774, "pitch": 69, "duration": 33, "velocity": 77}, {"time": 110884, "pitch": 54, "duration": 43, "velocity": 84}, {"time": 110884, "pitch": 69, "duration": 45, "velocity": 84}, {"time": 111013, "pitch": 54, "duration": 42, "velocity": 88}, {"time": 111013, "pitch": 63, "duration": 113, "velocity": 97}, {"time": 111013, "pitch": 69, "duration": 30, "velocity": 81}, {"time": 111123, "pitch": 54, "duration": 81, "velocity": 110}, {"time": 111123, "pitch": 62, "duration": 64, "velocity": 124}, {"time": 111123, "pitch": 69, "duration": 92, "velocity": 94}, {"time": 111253, "pitch": 54, "duration": 38, "velocity": 67}, {"time": 111362, "pitch": 54, "duration": 52, "velocity": 58}, {"time": 111362, "pitch": 63, "duration": 86, "velocity": 115}, {"time": 111362, "pitch": 70, "duration": 81, "velocity": 91}, {"time": 111492, "pitch": 54, "duration": 39, "velocity": 76}, {"time": 111492, "pitch": 63, "duration": 27, "velocity": 99}, {"time": 111602, "pitch": 54, "duration": 80, "velocity": 107}, {"time": 111602, "pitch": 64, "duration": 47, "velocity": 58}, {"time": 111602, "pitch": 69, "duration": 34, "velocity": 82}, {"time": 111731, "pitch": 54, "duration": 35, "velocity": 75}, {"time": 111731, "pitch": 64, "duration": 94, "velocity": 74}, {"time": 111731, "pitch": 69, "duration": 38, "velocity": 88}, {"time": 111841, "pitch": 64, "duration": 132, "velocity": 98}, {"time": 111841, "pitch": 69, "duration": 37, "velocity": 82}, {"time": 111842, "pitch": 54, "duration": 61, "velocity": 81}, {"time": 111970, "pitch": 54, "duration": 33, "velocity": 72}, {"time": 111970, "pitch": 63, "duration": 81, "velocity": 115}, {"time": 111970, "pitch": 69, "duration": 31, "velocity": 86}, {"time": 112080, "pitch": 54, "duration": 81, "velocity": 94}, {"time": 112080, "pitch": 62, "duration": 69, "velocity": 119}, {"time": 112080, "pitch": 69, "duration": 31, "velocity": 83}, {"time": 112210, "pitch": 54, "duration": 35, "velocity": 74}, {"time": 112319, "pitch": 54, "duration": 54, "velocity": 79}, {"time": 112319, "pitch": 63, "duration": 79, "velocity": 112}, {"time": 112319, "pitch": 70, "duration": 65, "velocity": 91}, {"time": 112449, "pitch": 54, "duration": 35, "velocity": 83}, {"time": 112559, "pitch": 54, "duration": 79, "velocity": 103}, {"time": 112559, "pitch": 64, "duration": 31, "velocity": 99}, {"time": 112559, "pitch": 69, "duration": 33, "velocity": 80}, {"time": 112688, "pitch": 54, "duration": 31, "velocity": 77}, {"time": 112688, "pitch": 64, "duration": 195, "velocity": 108}, {"time": 112688, "pitch": 69, "duration": 43, "velocity": 77}, {"time": 112798, "pitch": 54, "duration": 38, "velocity": 66}, {"time": 112798, "pitch": 69, "duration": 36, "velocity": 77}, {"time": 112928, "pitch": 54, "duration": 35, "velocity": 86}, {"time": 112928, "pitch": 63, "duration": 84, "velocity": 92}, {"time": 112928, "pitch": 69, "duration": 46, "velocity": 89}, {"time": 113037, "pitch": 62, "duration": 97, "velocity": 125}, {"time": 113037, "pitch": 69, "duration": 59, "velocity": 83}, {"time": 113038, "pitch": 54, "duration": 81, "velocity": 107}, {"time": 113167, "pitch": 54, "duration": 34, "velocity": 73}, {"time": 113277, "pitch": 63, "duration": 86, "velocity": 117}, {"time": 113277, "pitch": 70, "duration": 65, "velocity": 88}, {"time": 113278, "pitch": 54, "duration": 44, "velocity": 52}, {"time": 113409, "pitch": 54, "duration": 33, "velocity": 82}, {"time": 113521, "pitch": 54, "duration": 82, "velocity": 100}, {"time": 113521, "pitch": 64, "duration": 29, "velocity": 99}, {"time": 113521, "pitch": 69, "duration": 37, "velocity": 84}, {"time": 113653, "pitch": 54, "duration": 33, "velocity": 73}, {"time": 113653, "pitch": 69, "duration": 35, "velocity": 73}, {"time": 113765, "pitch": 54, "duration": 47, "velocity": 74}, {"time": 113765, "pitch": 64, "duration": 90, "velocity": 33}, {"time": 113765, "pitch": 69, "duration": 41, "velocity": 72}, {"time": 113894, "pitch": 54, "duration": 47, "velocity": 88}, {"time": 113894, "pitch": 63, "duration": 87, "velocity": 117}, {"time": 113894, "pitch": 69, "duration": 40, "velocity": 91}, {"time": 114004, "pitch": 54, "duration": 81, "velocity": 112}, {"time": 114005, "pitch": 62, "duration": 90, "velocity": 124}, {"time": 114005, "pitch": 69, "duration": 56, "velocity": 86}, {"time": 114133, "pitch": 54, "duration": 33, "velocity": 66}, {"time": 114243, "pitch": 54, "duration": 45, "velocity": 53}, {"time": 114243, "pitch": 63, "duration": 79, "velocity": 124}, {"time": 114243, "pitch": 70, "duration": 70, "velocity": 89}, {"time": 114373, "pitch": 54, "duration": 42, "velocity": 73}, {"time": 114373, "pitch": 64, "duration": 28, "velocity": 117}, {"time": 114482, "pitch": 54, "duration": 72, "velocity": 112}, {"time": 114482, "pitch": 63, "duration": 29, "velocity": 88}, {"time": 114482, "pitch": 69, "duration": 40, "velocity": 86}, {"time": 114612, "pitch": 54, "duration": 30, "velocity": 83}, {"time": 114612, "pitch": 63, "duration": 88, "velocity": 125}, {"time": 114612, "pitch": 69, "duration": 33, "velocity": 77}, {"time": 114722, "pitch": 54, "duration": 43, "velocity": 84}, {"time": 114722, "pitch": 69, "duration": 45, "velocity": 84}, {"time": 114851, "pitch": 54, "duration": 42, "velocity": 88}, {"time": 114851, "pitch": 63, "duration": 60, "velocity": 115}, {"time": 114851, "pitch": 69, "duration": 30, "velocity": 81}, {"time": 114961, "pitch": 54, "duration": 81, "velocity": 110}, {"time": 114961, "pitch": 62, "duration": 123, "velocity": 125}, {"time": 114961, "pitch": 69, "duration": 92, "velocity": 94}, {"time": 115091, "pitch": 54, "duration": 37, "velocity": 67}, {"time": 115200, "pitch": 54, "duration": 52, "velocity": 58}, {"time": 115200, "pitch": 63, "duration": 64, "velocity": 117}, {"time": 115200, "pitch": 70, "duration": 81, "velocity": 91}, {"time": 115330, "pitch": 54, "duration": 39, "velocity": 76}, {"time": 115440, "pitch": 54, "duration": 80, "velocity": 107}, {"time": 115440, "pitch": 64, "duration": 26, "velocity": 115}, {"time": 115440, "pitch": 69, "duration": 34, "velocity": 82}, {"time": 115569, "pitch": 54, "duration": 35, "velocity": 75}, {"time": 115569, "pitch": 64, "duration": 100, "velocity": 110}, {"time": 115569, "pitch": 69, "duration": 38, "velocity": 88}, {"time": 115678, "pitch": 49, "duration": 1949, "velocity": 120}, {"time": 115679, "pitch": 69, "duration": 37, "velocity": 82}, {"time": 115680, "pitch": 54, "duration": 61, "velocity": 81}, {"time": 115680, "pitch": 64, "duration": 130, "velocity": 125}, {"time": 115808, "pitch": 54, "duration": 33, "velocity": 72}, {"time": 115808, "pitch": 63, "duration": 83, "velocity": 115}, {"time": 115808, "pitch": 69, "duration": 31, "velocity": 86}, {"time": 115918, "pitch": 54, "duration": 81, "velocity": 94}, {"time": 115918, "pitch": 62, "duration": 83, "velocity": 115}, {"time": 115918, "pitch": 69, "duration": 31, "velocity": 83}, {"time": 116048, "pitch": 54, "duration": 35, "velocity": 74}, {"time": 116157, "pitch": 54, "duration": 55, "velocity": 79}, {"time": 116157, "pitch": 63, "duration": 104, "velocity": 115}, {"time": 116157, "pitch": 70, "duration": 66, "velocity": 91}, {"time": 116290, "pitch": 54, "duration": 35, "velocity": 83}, {"time": 116401, "pitch": 54, "duration": 82, "velocity": 103}, {"time": 116401, "pitch": 64, "duration": 45, "velocity": 58}, {"time": 116401, "pitch": 69, "duration": 34, "velocity": 80}, {"time": 116534, "pitch": 54, "duration": 31, "velocity": 77}, {"time": 116534, "pitch": 64, "duration": 256, "velocity": 125}, {"time": 116534, "pitch": 69, "duration": 43, "velocity": 77}, {"time": 116645, "pitch": 54, "duration": 38, "velocity": 66}, {"time": 116645, "pitch": 69, "duration": 36, "velocity": 77}, {"time": 116775, "pitch": 54, "duration": 35, "velocity": 86}, {"time": 116775, "pitch": 63, "duration": 122, "velocity": 101}, {"time": 116775, "pitch": 69, "duration": 47, "velocity": 89}, {"time": 116885, "pitch": 69, "duration": 58, "velocity": 83}, {"time": 116886, "pitch": 54, "duration": 80, "velocity": 107}, {"time": 116886, "pitch": 62, "duration": 55, "velocity": 125}, {"time": 117014, "pitch": 54, "duration": 34, "velocity": 73}, {"time": 117124, "pitch": 70, "duration": 64, "velocity": 88}, {"time": 117125, "pitch": 54, "duration": 44, "velocity": 52}, {"time": 117125, "pitch": 63, "duration": 79, "velocity": 115}, {"time": 117254, "pitch": 54, "duration": 32, "velocity": 82}, {"time": 117363, "pitch": 54, "duration": 81, "velocity": 100}, {"time": 117363, "pitch": 64, "duration": 26, "velocity": 105}, {"time": 117363, "pitch": 69, "duration": 37, "velocity": 84}, {"time": 117493, "pitch": 54, "duration": 33, "velocity": 73}, {"time": 117493, "pitch": 64, "duration": 227, "velocity": 112}, {"time": 117493, "pitch": 69, "duration": 35, "velocity": 73}, {"time": 117602, "pitch": 54, "duration": 48, "velocity": 74}, {"time": 117602, "pitch": 69, "duration": 42, "velocity": 72}, {"time": 117732, "pitch": 54, "duration": 47, "velocity": 88}, {"time": 117732, "pitch": 63, "duration": 110, "velocity": 98}, {"time": 117732, "pitch": 69, "duration": 40, "velocity": 91}, {"time": 117842, "pitch": 54, "duration": 80, "velocity": 112}, {"time": 117842, "pitch": 62, "duration": 71, "velocity": 119}, {"time": 117843, "pitch": 69, "duration": 56, "velocity": 86}, {"time": 117971, "pitch": 54, "duration": 33, "velocity": 66}, {"time": 118081, "pitch": 54, "duration": 45, "velocity": 53}, {"time": 118081, "pitch": 63, "duration": 96, "velocity": 110}, {"time": 118081, "pitch": 70, "duration": 70, "velocity": 89}, {"time": 118211, "pitch": 54, "duration": 42, "velocity": 73}, {"time": 118320, "pitch": 54, "duration": 72, "velocity": 112}, {"time": 118320, "pitch": 64, "duration": 33, "velocity": 105}, {"time": 118320, "pitch": 69, "duration": 40, "velocity": 86}, {"time": 118450, "pitch": 54, "duration": 30, "velocity": 83}, {"time": 118450, "pitch": 64, "duration": 228, "velocity": 115}, {"time": 118450, "pitch": 69, "duration": 33, "velocity": 77}, {"time": 118560, "pitch": 54, "duration": 42, "velocity": 84}, {"time": 118560, "pitch": 69, "duration": 44, "velocity": 84}, {"time": 118689, "pitch": 54, "duration": 42, "velocity": 88}, {"time": 118689, "pitch": 63, "duration": 113, "velocity": 97}, {"time": 118689, "pitch": 69, "duration": 30, "velocity": 81}, {"time": 118799, "pitch": 54, "duration": 81, "velocity": 110}, {"time": 118799, "pitch": 62, "duration": 64, "velocity": 124}, {"time": 118799, "pitch": 69, "duration": 92, "velocity": 94}, {"time": 118928, "pitch": 54, "duration": 38, "velocity": 67}, {"time": 119038, "pitch": 54, "duration": 52, "velocity": 58}, {"time": 119038, "pitch": 63, "duration": 86, "velocity": 115}, {"time": 119038, "pitch": 70, "duration": 81, "velocity": 91}, {"time": 119168, "pitch": 54, "duration": 39, "velocity": 76}, {"time": 119168, "pitch": 63, "duration": 27, "velocity": 99}, {"time": 119277, "pitch": 54, "duration": 81, "velocity": 107}, {"time": 119277, "pitch": 64, "duration": 48, "velocity": 58}, {"time": 119277, "pitch": 69, "duration": 35, "velocity": 82}, {"time": 119407, "pitch": 54, "duration": 35, "velocity": 75}, {"time": 119407, "pitch": 64, "duration": 94, "velocity": 74}, {"time": 119407, "pitch": 69, "duration": 38, "velocity": 88}, {"time": 119517, "pitch": 64, "duration": 135, "velocity": 98}, {"time": 119517, "pitch": 69, "duration": 37, "velocity": 82}, {"time": 119518, "pitch": 54, "duration": 62, "velocity": 81}, {"time": 119649, "pitch": 54, "duration": 33, "velocity": 72}, {"time": 119649, "pitch": 63, "duration": 82, "velocity": 115}, {"time": 119649, "pitch": 69, "duration": 31, "velocity": 86}, {"time": 119761, "pitch": 54, "duration": 82, "velocity": 94}, {"time": 119761, "pitch": 62, "duration": 70, "velocity": 119}, {"time": 119761, "pitch": 69, "duration": 31, "velocity": 83}, {"time": 119893, "pitch": 54, "duration": 36, "velocity": 74}, {"time": 120005, "pitch": 54, "duration": 54, "velocity": 79}, {"time": 120005, "pitch": 63, "duration": 78, "velocity": 112}, {"time": 120005, "pitch": 70, "duration": 64, "velocity": 91}, {"time": 120134, "pitch": 54, "duration": 35, "velocity": 83}, {"time": 120244, "pitch": 54, "duration": 80, "velocity": 103}, {"time": 120244, "pitch": 64, "duration": 31, "velocity": 99}, {"time": 120244, "pitch": 69, "duration": 33, "velocity": 80}, {"time": 120374, "pitch": 54, "duration": 30, "velocity": 77}, {"time": 120374, "pitch": 64, "duration": 194, "velocity": 108}, {"time": 120374, "pitch": 69, "duration": 42, "velocity": 77}, {"time": 120483, "pitch": 54, "duration": 38, "velocity": 66}, {"time": 120483, "pitch": 69, "duration": 36, "velocity": 77}, {"time": 120613, "pitch": 54, "duration": 35, "velocity": 86}, {"time": 120613, "pitch": 63, "duration": 85, "velocity": 92}, {"time": 120613, "pitch": 69, "duration": 47, "velocity": 89}, {"time": 120723, "pitch": 62, "duration": 96, "velocity": 125}, {"time": 120723, "pitch": 69, "duration": 58, "velocity": 83}, {"time": 120724, "pitch": 54, "duration": 80, "velocity": 107}, {"time": 120852, "pitch": 54, "duration": 34, "velocity": 73}, {"time": 120962, "pitch": 63, "duration": 85, "velocity": 117}, {"time": 120962, "pitch": 70, "duration": 64, "velocity": 88}, {"time": 120963, "pitch": 54, "duration": 44, "velocity": 52}, {"time": 121091, "pitch": 54, "duration": 33, "velocity": 82}, {"time": 121201, "pitch": 54, "duration": 81, "velocity": 100}, {"time": 121201, "pitch": 64, "duration": 29, "velocity": 99}, {"time": 121201, "pitch": 69, "duration": 37, "velocity": 84}, {"time": 121331, "pitch": 54, "duration": 33, "velocity": 73}, {"time": 121331, "pitch": 69, "duration": 35, "velocity": 73}, {"time": 121440, "pitch": 54, "duration": 48, "velocity": 74}, {"time": 121440, "pitch": 64, "duration": 91, "velocity": 33}, {"time": 121440, "pitch": 69, "duration": 42, "velocity": 72}, {"time": 121570, "pitch": 54, "duration": 47, "velocity": 88}, {"time": 121570, "pitch": 63, "duration": 87, "velocity": 117}, {"time": 121570, "pitch": 69, "duration": 40, "velocity": 91}, {"time": 121680, "pitch": 54, "duration": 80, "velocity": 112}, {"time": 121681, "pitch": 62, "duration": 89, "velocity": 124}, {"time": 121681, "pitch": 69, "duration": 55, "velocity": 86}, {"time": 121809, "pitch": 54, "duration": 33, "velocity": 66}, {"time": 121919, "pitch": 54, "duration": 45, "velocity": 53}, {"time": 121919, "pitch": 63, "duration": 79, "velocity": 124}, {"time": 121919, "pitch": 70, "duration": 70, "velocity": 89}, {"time": 122049, "pitch": 54, "duration": 41, "velocity": 73}, {"time": 122049, "pitch": 64, "duration": 27, "velocity": 117}, {"time": 122158, "pitch": 54, "duration": 72, "velocity": 112}, {"time": 122158, "pitch": 63, "duration": 29, "velocity": 88}, {"time": 122158, "pitch": 69, "duration": 40, "velocity": 86}, {"time": 122288, "pitch": 54, "duration": 30, "velocity": 83}, {"time": 122288, "pitch": 63, "duration": 88, "velocity": 125}, {"time": 122288, "pitch": 69, "duration": 33, "velocity": 77}, {"time": 122398, "pitch": 54, "duration": 43, "velocity": 84}, {"time": 122398, "pitch": 69, "duration": 45, "velocity": 84}, {"time": 122530, "pitch": 54, "duration": 42, "velocity": 88}, {"time": 122530, "pitch": 63, "duration": 61, "velocity": 115}, {"time": 122530, "pitch": 69, "duration": 30, "velocity": 81}, {"time": 122642, "pitch": 54, "duration": 82, "velocity": 110}, {"time": 122642, "pitch": 62, "duration": 125, "velocity": 125}, {"time": 122642, "pitch": 69, "duration": 93, "velocity": 94}, {"time": 122774, "pitch": 54, "duration": 38, "velocity": 67}, {"time": 122885, "pitch": 54, "duration": 52, "velocity": 58}, {"time": 122885, "pitch": 63, "duration": 64, "velocity": 117}, {"time": 122885, "pitch": 70, "duration": 81, "velocity": 91}, {"time": 123015, "pitch": 54, "duration": 39, "velocity": 76}, {"time": 123125, "pitch": 54, "duration": 81, "velocity": 107}, {"time": 123125, "pitch": 64, "duration": 27, "velocity": 115}, {"time": 123125, "pitch": 69, "duration": 35, "velocity": 82}, {"time": 123254, "pitch": 54, "duration": 35, "velocity": 75}, {"time": 123254, "pitch": 64, "duration": 100, "velocity": 110}, {"time": 123254, "pitch": 69, "duration": 38, "velocity": 88}, {"time": 123363, "pitch": 49, "duration": 1940, "velocity": 120}, {"time": 123364, "pitch": 69, "duration": 37, "velocity": 82}, {"time": 123365, "pitch": 54, "duration": 61, "velocity": 81}, {"time": 123365, "pitch": 64, "duration": 131, "velocity": 125}, {"time": 123494, "pitch": 54, "duration": 33, "velocity": 72}, {"time": 123494, "pitch": 63, "duration": 82, "velocity": 115}, {"time": 123494, "pitch": 69, "duration": 31, "velocity": 86}, {"time": 123603, "pitch": 54, "duration": 81, "velocity": 94}, {"time": 123603, "pitch": 62, "duration": 83, "velocity": 115}, {"time": 123603, "pitch": 69, "duration": 31, "velocity": 83}, {"time": 123733, "pitch": 54, "duration": 35, "velocity": 74}, {"time": 123843, "pitch": 54, "duration": 53, "velocity": 79}, {"time": 123843, "pitch": 63, "duration": 101, "velocity": 115}, {"time": 123843, "pitch": 70, "duration": 64, "velocity": 91}, {"time": 123972, "pitch": 54, "duration": 35, "velocity": 83}, {"time": 124082, "pitch": 54, "duration": 80, "velocity": 103}, {"time": 124082, "pitch": 64, "duration": 44, "velocity": 58}, {"time": 124082, "pitch": 69, "duration": 33, "velocity": 80}, {"time": 124212, "pitch": 54, "duration": 30, "velocity": 77}, {"time": 124212, "pitch": 64, "duration": 254, "velocity": 125}, {"time": 124212, "pitch": 69, "duration": 42, "velocity": 77}, {"time": 124321, "pitch": 54, "duration": 38, "velocity": 66}, {"time": 124321, "pitch": 69, "duration": 36, "velocity": 77}, {"time": 124451, "pitch": 54, "duration": 35, "velocity": 86}, {"time": 124451, "pitch": 63, "duration": 121, "velocity": 101}, {"time": 124451, "pitch": 69, "duration": 47, "velocity": 89}, {"time": 124560, "pitch": 69, "duration": 59, "velocity": 83}, {"time": 124561, "pitch": 54, "duration": 81, "velocity": 107}, {"time": 124561, "pitch": 62, "duration": 56, "velocity": 125}, {"time": 124690, "pitch": 54, "duration": 34, "velocity": 73}, {"time": 124800, "pitch": 70, "duration": 64, "velocity": 88}, {"time": 124801, "pitch": 54, "duration": 44, "velocity": 52}, {"time": 124801, "pitch": 63, "duration": 78, "velocity": 115}, {"time": 124929, "pitch": 54, "duration": 33, "velocity": 82}, {"time": 125039, "pitch": 54, "duration": 81, "velocity": 100}, {"time": 125039, "pitch": 64, "duration": 26, "velocity": 105}, {"time": 125039, "pitch": 69, "duration": 37, "velocity": 84}, {"time": 125169, "pitch": 54, "duration": 33, "velocity": 73}, {"time": 125169, "pitch": 64, "duration": 227, "velocity": 112}, {"time": 125169, "pitch": 69, "duration": 35, "velocity": 73}, {"time": 125278, "pitch": 54, "duration": 48, "velocity": 74}, {"time": 125278, "pitch": 69, "duration": 42, "velocity": 72}, {"time": 125408, "pitch": 54, "duration": 47, "velocity": 88}, {"time": 125408, "pitch": 63, "duration": 110, "velocity": 98}, {"time": 125408, "pitch": 69, "duration": 40, "velocity": 91}, {"time": 125518, "pitch": 54, "duration": 80, "velocity": 112}, {"time": 125518, "pitch": 62, "duration": 70, "velocity": 119}, {"time": 125519, "pitch": 69, "duration": 55, "velocity": 86}, {"time": 125647, "pitch": 54, "duration": 33, "velocity": 66}, {"time": 125757, "pitch": 54, "duration": 46, "velocity": 53}, {"time": 125757, "pitch": 63, "duration": 97, "velocity": 110}, {"time": 125757, "pitch": 70, "duration": 71, "velocity": 89}, {"time": 125889, "pitch": 54, "duration": 43, "velocity": 73}, {"time": 126001, "pitch": 54, "duration": 73, "velocity": 112}, {"time": 126001, "pitch": 64, "duration": 33, "velocity": 105}, {"time": 126001, "pitch": 69, "duration": 41, "velocity": 86}, {"time": 126133, "pitch": 54, "duration": 31, "velocity": 83}, {"time": 126133, "pitch": 64, "duration": 230, "velocity": 115}, {"time": 126133, "pitch": 69, "duration": 34, "velocity": 77}, {"time": 126245, "pitch": 54, "duration": 43, "velocity": 84}, {"time": 126245, "pitch": 69, "duration": 45, "velocity": 84}, {"time": 126374, "pitch": 54, "duration": 42, "velocity": 88}, {"time": 126374, "pitch": 63, "duration": 113, "velocity": 97}, {"time": 126374, "pitch": 69, "duration": 30, "velocity": 81}, {"time": 126484, "pitch": 54, "duration": 81, "velocity": 110}, {"time": 126484, "pitch": 62, "duration": 64, "velocity": 124}, {"time": 126484, "pitch": 69, "duration": 92, "velocity": 94}, {"time": 126614, "pitch": 54, "duration": 38, "velocity": 67}, {"time": 126723, "pitch": 54, "duration": 52, "velocity": 58}, {"time": 126723, "pitch": 63, "duration": 86, "velocity": 115}, {"time": 126723, "pitch": 70, "duration": 81, "velocity": 91}, {"time": 126853, "pitch": 54, "duration": 39, "velocity": 76}, {"time": 126853, "pitch": 63, "duration": 27, "velocity": 99}, {"time": 126963, "pitch": 54, "duration": 80, "velocity": 107}, {"time": 126963, "pitch": 64, "duration": 48, "velocity": 58}, {"time": 126963, "pitch": 69, "duration": 35, "velocity": 82}, {"time": 127092, "pitch": 54, "duration": 35, "velocity": 75}, {"time": 127092, "pitch": 64, "duration": 94, "velocity": 74}, {"time": 127092, "pitch": 69, "duration": 38, "velocity": 88}, {"time": 127202, "pitch": 64, "duration": 133, "velocity": 98}, {"time": 127202, "pitch": 69, "duration": 37, "velocity": 82}, {"time": 127203, "pitch": 54, "duration": 61, "velocity": 81}, {"time": 127332, "pitch": 54, "duration": 32, "velocity": 72}, {"time": 127332, "pitch": 63, "duration": 80, "velocity": 115}, {"time": 127332, "pitch": 69, "duration": 30, "velocity": 86}, {"time": 127441, "pitch": 54, "duration": 81, "velocity": 94}, {"time": 127441, "pitch": 62, "duration": 69, "velocity": 119}, {"time": 127441, "pitch": 69, "duration": 31, "velocity": 83}, {"time": 127571, "pitch": 54, "duration": 35, "velocity": 74}, {"time": 127681, "pitch": 54, "duration": 53, "velocity": 79}, {"time": 127681, "pitch": 63, "duration": 78, "velocity": 112}, {"time": 127681, "pitch": 70, "duration": 64, "velocity": 91}, {"time": 127810, "pitch": 54, "duration": 35, "velocity": 83}, {"time": 127920, "pitch": 54, "duration": 80, "velocity": 103}, {"time": 127920, "pitch": 64, "duration": 31, "velocity": 99}, {"time": 127920, "pitch": 69, "duration": 33, "velocity": 80}, {"time": 128049, "pitch": 54, "duration": 31, "velocity": 77}, {"time": 128049, "pitch": 64, "duration": 195, "velocity": 108}, {"time": 128049, "pitch": 69, "duration": 43, "velocity": 77}, {"time": 128159, "pitch": 54, "duration": 38, "velocity": 66}, {"time": 128159, "pitch": 69, "duration": 36, "velocity": 77}, {"time": 128289, "pitch": 54, "duration": 35, "velocity": 86}, {"time": 128289, "pitch": 63, "duration": 84, "velocity": 92}, {"time": 128289, "pitch": 69, "duration": 47, "velocity": 89}, {"time": 128398, "pitch": 62, "duration": 97, "velocity": 125}, {"time": 128398, "pitch": 69, "duration": 59, "velocity": 83}, {"time": 128399, "pitch": 54, "duration": 81, "velocity": 107}, {"time": 128528, "pitch": 54, "duration": 34, "velocity": 73}, {"time": 128638, "pitch": 63, "duration": 86, "velocity": 117}, {"time": 128638, "pitch": 70, "duration": 65, "velocity": 88}, {"time": 128639, "pitch": 54, "duration": 44, "velocity": 52}, {"time": 128770, "pitch": 54, "duration": 33, "velocity": 82}, {"time": 128882, "pitch": 54, "duration": 82, "velocity": 100}, {"time": 128882, "pitch": 64, "duration": 29, "velocity": 99}, {"time": 128882, "pitch": 69, "duration": 37, "velocity": 84}, {"time": 129014, "pitch": 54, "duration": 33, "velocity": 73}, {"time": 129014, "pitch": 69, "duration": 35, "velocity": 73}, {"time": 129126, "pitch": 54, "duration": 47, "velocity": 74}, {"time": 129126, "pitch": 64, "duration": 90, "velocity": 33}, {"time": 129126, "pitch": 69, "duration": 42, "velocity": 72}, {"time": 129255, "pitch": 54, "duration": 47, "velocity": 88}, {"time": 129255, "pitch": 63, "duration": 87, "velocity": 117}, {"time": 129255, "pitch": 69, "duration": 40, "velocity": 91}, {"time": 129365, "pitch": 54, "duration": 81, "velocity": 112}, {"time": 129366, "pitch": 62, "duration": 90, "velocity": 124}, {"time": 129366, "pitch": 69, "duration": 56, "velocity": 86}, {"time": 129495, "pitch": 54, "duration": 32, "velocity": 66}, {"time": 129604, "pitch": 54, "duration": 45, "velocity": 53}, {"time": 129604, "pitch": 63, "duration": 79, "velocity": 124}, {"time": 129604, "pitch": 70, "duration": 70, "velocity": 89}, {"time": 129734, "pitch": 54, "duration": 42, "velocity": 73}, {"time": 129734, "pitch": 64, "duration": 28, "velocity": 117}, {"time": 129843, "pitch": 54, "duration": 72, "velocity": 112}, {"time": 129843, "pitch": 63, "duration": 29, "velocity": 88}, {"time": 129843, "pitch": 69, "duration": 40, "velocity": 86}, {"time": 129973, "pitch": 54, "duration": 30, "velocity": 83}, {"time": 129973, "pitch": 63, "duration": 88, "velocity": 125}, {"time": 129973, "pitch": 69, "duration": 33, "velocity": 77}, {"time": 130083, "pitch": 54, "duration": 43, "velocity": 84}, {"time": 130083, "pitch": 69, "duration": 45, "velocity": 84}, {"time": 130212, "pitch": 54, "duration": 42, "velocity": 88}, {"time": 130212, "pitch": 63, "duration": 60, "velocity": 115}, {"time": 130212, "pitch": 69, "duration": 30, "velocity": 81}, {"time": 130322, "pitch": 54, "duration": 81, "velocity": 110}, {"time": 130322, "pitch": 62, "duration": 123, "velocity": 125}, {"time": 130322, "pitch": 69, "duration": 92, "velocity": 94}, {"time": 130452, "pitch": 54, "duration": 38, "velocity": 67}, {"time": 130561, "pitch": 54, "duration": 52, "velocity": 58}, {"time": 130561, "pitch": 63, "duration": 64, "velocity": 117}, {"time": 130561, "pitch": 70, "duration": 81, "velocity": 91}, {"time": 130691, "pitch": 54, "duration": 39, "velocity": 76}, {"time": 130801, "pitch": 54, "duration": 80, "velocity": 107}, {"time": 130801, "pitch": 64, "duration": 27, "velocity": 115}, {"time": 130801, "pitch": 69, "duration": 35, "velocity": 82}, {"time": 130930, "pitch": 54, "duration": 35, "velocity": 75}, {"time": 130930, "pitch": 64, "duration": 100, "velocity": 110}, {"time": 130930, "pitch": 69, "duration": 38, "velocity": 88}, {"time": 131039, "pitch": 49, "duration": 1949, "velocity": 120}, {"time": 131040, "pitch": 51, "duration": 140, "velocity": 127}, {"time": 131040, "pitch": 69, "duration": 37, "velocity": 82}, {"time": 131041, "pitch": 54, "duration": 61, "velocity": 81}, {"time": 131041, "pitch": 64, "duration": 130, "velocity": 125}, {"time": 131170, "pitch": 54, "duration": 32, "velocity": 72}, {"time": 131170, "pitch": 63, "duration": 82, "velocity": 115}, {"time": 131170, "pitch": 69, "duration": 30, "velocity": 86}, {"time": 131279, "pitch": 54, "duration": 81, "velocity": 94}, {"time": 131279, "pitch": 62, "duration": 83, "velocity": 115}, {"time": 131279, "pitch": 69, "duration": 31, "velocity": 83}, {"time": 131280, "pitch": 51, "duration": 110, "velocity": 100}, {"time": 131409, "pitch": 54, "duration": 35, "velocity": 74}, {"time": 131518, "pitch": 51, "duration": 129, "velocity": 125}, {"time": 131518, "pitch": 54, "duration": 54, "velocity": 79}, {"time": 131518, "pitch": 63, "duration": 102, "velocity": 115}, {"time": 131518, "pitch": 70, "duration": 65, "velocity": 91}, {"time": 131648, "pitch": 54, "duration": 35, "velocity": 83}, {"time": 131758, "pitch": 51, "duration": 121, "velocity": 115}, {"time": 131758, "pitch": 54, "duration": 79, "velocity": 103}, {"time": 131758, "pitch": 64, "duration": 44, "velocity": 58}, {"time": 131758, "pitch": 69, "duration": 33, "velocity": 80}, {"time": 131887, "pitch": 54, "duration": 31, "velocity": 77}, {"time": 131887, "pitch": 64, "duration": 257, "velocity": 125}, {"time": 131887, "pitch": 69, "duration": 43, "velocity": 77}, {"time": 131997, "pitch": 51, "duration": 120, "velocity": 112}, {"time": 131997, "pitch": 54, "duration": 39, "velocity": 66}, {"time": 131997, "pitch": 69, "duration": 37, "velocity": 77}, {"time": 132129, "pitch": 54, "duration": 36, "velocity": 86}, {"time": 132129, "pitch": 63, "duration": 124, "velocity": 101}, {"time": 132129, "pitch": 69, "duration": 48, "velocity": 89}, {"time": 132241, "pitch": 51, "duration": 109, "velocity": 119}, {"time": 132241, "pitch": 69, "duration": 60, "velocity": 83}, {"time": 132242, "pitch": 54, "duration": 82, "velocity": 107}, {"time": 132242, "pitch": 62, "duration": 57, "velocity": 125}, {"time": 132373, "pitch": 54, "duration": 35, "velocity": 73}, {"time": 132485, "pitch": 51, "duration": 132, "velocity": 125}, {"time": 132485, "pitch": 70, "duration": 64, "velocity": 88}, {"time": 132486, "pitch": 54, "duration": 44, "velocity": 52}, {"time": 132486, "pitch": 63, "duration": 79, "velocity": 115}, {"time": 132615, "pitch": 54, "duration": 33, "velocity": 82}, {"time": 132724, "pitch": 51, "duration": 117, "velocity": 106}, {"time": 132724, "pitch": 54, "duration": 81, "velocity": 100}, {"time": 132724, "pitch": 64, "duration": 26, "velocity": 105}, {"time": 132724, "pitch": 69, "duration": 37, "velocity": 84}, {"time": 132854, "pitch": 54, "duration": 33, "velocity": 73}, {"time": 132854, "pitch": 64, "duration": 227, "velocity": 112}, {"time": 132854, "pitch": 69, "duration": 35, "velocity": 73}, {"time": 132964, "pitch": 51, "duration": 140, "velocity": 127}, {"time": 132964, "pitch": 54, "duration": 47, "velocity": 74}, {"time": 132964, "pitch": 69, "duration": 41, "velocity": 72}, {"time": 133093, "pitch": 54, "duration": 47, "velocity": 88}, {"time": 133093, "pitch": 63, "duration": 110, "velocity": 98}, {"time": 133093, "pitch": 69, "duration": 40, "velocity": 91}, {"time": 133203, "pitch": 54, "duration": 81, "velocity": 112}, {"time": 133203, "pitch": 62, "duration": 71, "velocity": 119}, {"time": 133204, "pitch": 51, "duration": 110, "velocity": 100}, {"time": 133204, "pitch": 69, "duration": 56, "velocity": 86}, {"time": 133332, "pitch": 54, "duration": 33, "velocity": 66}, {"time": 133442, "pitch": 51, "duration": 129, "velocity": 125}, {"time": 133442, "pitch": 54, "duration": 45, "velocity": 53}, {"time": 133442, "pitch": 63, "duration": 96, "velocity": 110}, {"time": 133442, "pitch": 70, "duration": 70, "velocity": 89}, {"time": 133572, "pitch": 54, "duration": 42, "velocity": 73}, {"time": 133681, "pitch": 51, "duration": 122, "velocity": 115}, {"time": 133681, "pitch": 54, "duration": 72, "velocity": 112}, {"time": 133681, "pitch": 64, "duration": 33, "velocity": 105}, {"time": 133681, "pitch": 69, "duration": 40, "velocity": 86}, {"time": 133811, "pitch": 54, "duration": 30, "velocity": 83}, {"time": 133811, "pitch": 64, "duration": 228, "velocity": 115}, {"time": 133811, "pitch": 69, "duration": 33, "velocity": 77}, {"time": 133921, "pitch": 51, "duration": 117, "velocity": 112}, {"time": 133921, "pitch": 54, "duration": 43, "velocity": 84}, {"time": 133921, "pitch": 69, "duration": 45, "velocity": 84}, {"time": 134050, "pitch": 54, "duration": 42, "velocity": 88}, {"time": 134050, "pitch": 63, "duration": 113, "velocity": 97}, {"time": 134050, "pitch": 69, "duration": 30, "velocity": 81}, {"time": 134160, "pitch": 51, "duration": 107, "velocity": 119}, {"time": 134160, "pitch": 54, "duration": 81, "velocity": 110}, {"time": 134160, "pitch": 62, "duration": 64, "velocity": 124}, {"time": 134160, "pitch": 69, "duration": 92, "velocity": 94}, {"time": 134290, "pitch": 54, "duration": 37, "velocity": 67}, {"time": 134399, "pitch": 51, "duration": 132, "velocity": 125}, {"time": 134399, "pitch": 54, "duration": 52, "velocity": 58}, {"time": 134399, "pitch": 63, "duration": 86, "velocity": 115}, {"time": 134399, "pitch": 70, "duration": 81, "velocity": 91}, {"time": 134529, "pitch": 54, "duration": 39, "velocity": 76}, {"time": 134529, "pitch": 63, "duration": 27, "velocity": 99}, {"time": 134639, "pitch": 51, "duration": 116, "velocity": 106}, {"time": 134639, "pitch": 54, "duration": 80, "velocity": 107}, {"time": 134639, "pitch": 64, "duration": 47, "velocity": 58}, {"time": 134639, "pitch": 69, "duration": 34, "velocity": 82}, {"time": 134768, "pitch": 54, "duration": 35, "velocity": 75}, {"time": 134768, "pitch": 64, "duration": 94, "velocity": 74}, {"time": 134768, "pitch": 69, "duration": 38, "velocity": 88}, {"time": 134878, "pitch": 51, "duration": 140, "velocity": 127}, {"time": 134878, "pitch": 64, "duration": 132, "velocity": 98}, {"time": 134878, "pitch": 69, "duration": 37, "velocity": 82}, {"time": 134879, "pitch": 54, "duration": 61, "velocity": 81}, {"time": 135007, "pitch": 54, "duration": 33, "velocity": 72}, {"time": 135007, "pitch": 63, "duration": 81, "velocity": 115}, {"time": 135007, "pitch": 69, "duration": 31, "velocity": 86}, {"time": 135117, "pitch": 54, "duration": 81, "velocity": 94}, {"time": 135117, "pitch": 62, "duration": 69, "velocity": 119}, {"time": 135117, "pitch": 69, "duration": 31, "velocity": 83}, {"time": 135118, "pitch": 51, "duration": 110, "velocity": 100}, {"time": 135247, "pitch": 54, "duration": 35, "velocity": 74}, {"time": 135356, "pitch": 51, "duration": 131, "velocity": 125}, {"time": 135356, "pitch": 54, "duration": 55, "velocity": 79}, {"time": 135356, "pitch": 63, "duration": 81, "velocity": 112}, {"time": 135356, "pitch": 70, "duration": 66, "velocity": 91}, {"time": 135489, "pitch": 54, "duration": 35, "velocity": 83}, {"time": 135600, "pitch": 51, "duration": 124, "velocity": 115}, {"time": 135600, "pitch": 54, "duration": 82, "velocity": 103}, {"time": 135600, "pitch": 64, "duration": 32, "velocity": 99}, {"time": 135600, "pitch": 69, "duration": 34, "velocity": 80}, {"time": 135733, "pitch": 54, "duration": 31, "velocity": 77}, {"time": 135733, "pitch": 64, "duration": 196, "velocity": 108}, {"time": 135733, "pitch": 69, "duration": 43, "velocity": 77}, {"time": 135844, "pitch": 51, "duration": 118, "velocity": 112}, {"time": 135844, "pitch": 54, "duration": 38, "velocity": 66}, {"time": 135844, "pitch": 69, "duration": 36, "velocity": 77}, {"time": 135974, "pitch": 54, "duration": 35, "velocity": 86}, {"time": 135974, "pitch": 63, "duration": 85, "velocity": 92}, {"time": 135974, "pitch": 69, "duration": 47, "velocity": 89}, {"time": 136084, "pitch": 51, "duration": 106, "velocity": 119}, {"time": 136084, "pitch": 62, "duration": 96, "velocity": 125}, {"time": 136084, "pitch": 69, "duration": 58, "velocity": 83}, {"time": 136085, "pitch": 54, "duration": 80, "velocity": 107}, {"time": 136213, "pitch": 54, "duration": 34, "velocity": 73}, {"time": 136323, "pitch": 51, "duration": 132, "velocity": 125}, {"time": 136323, "pitch": 63, "duration": 85, "velocity": 117}, {"time": 136323, "pitch": 70, "duration": 64, "velocity": 88}, {"time": 136324, "pitch": 54, "duration": 44, "velocity": 52}, {"time": 136453, "pitch": 54, "duration": 32, "velocity": 82}, {"time": 136562, "pitch": 51, "duration": 117, "velocity": 106}, {"time": 136562, "pitch": 54, "duration": 81, "velocity": 100}, {"time": 136562, "pitch": 64, "duration": 29, "velocity": 99}, {"time": 136562, "pitch": 69, "duration": 37, "velocity": 84}, {"time": 136692, "pitch": 54, "duration": 33, "velocity": 73}, {"time": 136692, "pitch": 69, "duration": 35, "velocity": 73}, {"time": 136801, "pitch": 51, "duration": 141, "velocity": 127}, {"time": 136801, "pitch": 54, "duration": 48, "velocity": 74}, {"time": 136801, "pitch": 64, "duration": 91, "velocity": 33}, {"time": 136801, "pitch": 69, "duration": 42, "velocity": 72}, {"time": 136931, "pitch": 54, "duration": 47, "velocity": 88}, {"time": 136931, "pitch": 63, "duration": 87, "velocity": 117}, {"time": 136931, "pitch": 69, "duration": 40, "velocity": 91}, {"time": 137041, "pitch": 54, "duration": 81, "velocity": 112}, {"time": 137042, "pitch": 51, "duration": 109, "velocity": 100}, {"time": 137042, "pitch": 62, "duration": 89, "velocity": 124}, {"time": 137042, "pitch": 69, "duration": 56, "velocity": 86}, {"time": 137170, "pitch": 54, "duration": 33, "velocity": 66}, {"time": 137280, "pitch": 51, "duration": 129, "velocity": 125}, {"time": 137280, "pitch": 54, "duration": 45, "velocity": 53}, {"time": 137280, "pitch": 63, "duration": 79, "velocity": 124}, {"time": 137280, "pitch": 70, "duration": 70, "velocity": 89}, {"time": 137410, "pitch": 54, "duration": 42, "velocity": 73}, {"time": 137410, "pitch": 64, "duration": 28, "velocity": 117}, {"time": 137519, "pitch": 51, "duration": 122, "velocity": 115}, {"time": 137519, "pitch": 54, "duration": 72, "velocity": 112}, {"time": 137519, "pitch": 63, "duration": 29, "velocity": 88}, {"time": 137519, "pitch": 69, "duration": 40, "velocity": 86}, {"time": 137649, "pitch": 54, "duration": 30, "velocity": 83}, {"time": 137649, "pitch": 63, "duration": 88, "velocity": 125}, {"time": 137649, "pitch": 69, "duration": 33, "velocity": 77}, {"time": 137759, "pitch": 51, "duration": 117, "velocity": 112}, {"time": 137759, "pitch": 54, "duration": 42, "velocity": 84}, {"time": 137759, "pitch": 69, "duration": 44, "velocity": 84}, {"time": 137888, "pitch": 54, "duration": 42, "velocity": 88}, {"time": 137888, "pitch": 63, "duration": 60, "velocity": 115}, {"time": 137888, "pitch": 69, "duration": 30, "velocity": 81}, {"time": 137998, "pitch": 51, "duration": 107, "velocity": 119}, {"time": 137998, "pitch": 54, "duration": 81, "velocity": 110}, {"time": 137998, "pitch": 62, "duration": 123, "velocity": 125}, {"time": 137998, "pitch": 69, "duration": 92, "velocity": 94}, {"time": 138127, "pitch": 54, "duration": 38, "velocity": 67}, {"time": 138237, "pitch": 51, "duration": 134, "velocity": 125}, {"time": 138237, "pitch": 54, "duration": 53, "velocity": 58}, {"time": 138237, "pitch": 63, "duration": 65, "velocity": 117}, {"time": 138237, "pitch": 70, "duration": 82, "velocity": 91}, {"time": 138369, "pitch": 54, "duration": 40, "velocity": 76}, {"time": 138481, "pitch": 51, "duration": 119, "velocity": 106}, {"time": 138481, "pitch": 54, "duration": 83, "velocity": 107}, {"time": 138481, "pitch": 64, "duration": 28, "velocity": 115}, {"time": 138481, "pitch": 69, "duration": 36, "velocity": 82}, {"time": 138613, "pitch": 54, "duration": 36, "velocity": 75}, {"time": 138613, "pitch": 64, "duration": 102, "velocity": 110}, {"time": 138613, "pitch": 69, "duration": 39, "velocity": 88}, {"time": 138724, "pitch": 49, "duration": 1940, "velocity": 120}, {"time": 138725, "pitch": 51, "duration": 141, "velocity": 127}, {"time": 138725, "pitch": 69, "duration": 37, "velocity": 82}, {"time": 138726, "pitch": 54, "duration": 61, "velocity": 81}, {"time": 138726, "pitch": 64, "duration": 131, "velocity": 125}, {"time": 138855, "pitch": 54, "duration": 33, "velocity": 72}, {"time": 138855, "pitch": 63, "duration": 83, "velocity": 115}, {"time": 138855, "pitch": 69, "duration": 31, "velocity": 86}, {"time": 138964, "pitch": 54, "duration": 81, "velocity": 94}, {"time": 138964, "pitch": 62, "duration": 83, "velocity": 115}, {"time": 138964, "pitch": 69, "duration": 31, "velocity": 83}, {"time": 138965, "pitch": 51, "duration": 110, "velocity": 100}, {"time": 139094, "pitch": 54, "duration": 35, "velocity": 74}, {"time": 139204, "pitch": 51, "duration": 128, "velocity": 125}, {"time": 139204, "pitch": 54, "duration": 54, "velocity": 79}, {"time": 139204, "pitch": 63, "duration": 101, "velocity": 115}, {"time": 139204, "pitch": 70, "duration": 65, "velocity": 91}, {"time": 139333, "pitch": 54, "duration": 35, "velocity": 83}, {"time": 139443, "pitch": 51, "duration": 122, "velocity": 115}, {"time": 139443, "pitch": 54, "duration": 80, "velocity": 103}, {"time": 139443, "pitch": 64, "duration": 44, "velocity": 58}, {"time": 139443, "pitch": 69, "duration": 33, "velocity": 80}, {"time": 139573, "pitch": 54, "duration": 31, "velocity": 77}, {"time": 139573, "pitch": 64, "duration": 254, "velocity": 125}, {"time": 139573, "pitch": 69, "duration": 42, "velocity": 77}, {"time": 139682, "pitch": 51, "duration": 118, "velocity": 112}, {"time": 139682, "pitch": 54, "duration": 38, "velocity": 66}, {"time": 139682, "pitch": 69, "duration": 36, "velocity": 77}, {"time": 139812, "pitch": 54, "duration": 35, "velocity": 86}, {"time": 139812, "pitch": 63, "duration": 122, "velocity": 101}, {"time": 139812, "pitch": 69, "duration": 47, "velocity": 89}, {"time": 139922, "pitch": 51, "duration": 106, "velocity": 119}, {"time": 139922, "pitch": 69, "duration": 58, "velocity": 83}, {"time": 139923, "pitch": 54, "duration": 80, "velocity": 107}, {"time": 139923, "pitch": 62, "duration": 55, "velocity": 125}, {"time": 140051, "pitch": 54, "duration": 34, "velocity": 73}, {"time": 140161, "pitch": 51, "duration": 131, "velocity": 125}, {"time": 140161, "pitch": 70, "duration": 64, "velocity": 88}, {"time": 140162, "pitch": 54, "duration": 44, "velocity": 52}, {"time": 140162, "pitch": 63, "duration": 79, "velocity": 115}, {"time": 140290, "pitch": 54, "duration": 33, "velocity": 82}, {"time": 140400, "pitch": 51, "duration": 117, "velocity": 106}, {"time": 140400, "pitch": 54, "duration": 81, "velocity": 100}, {"time": 140400, "pitch": 64, "duration": 26, "velocity": 105}, {"time": 140400, "pitch": 69, "duration": 37, "velocity": 84}, {"time": 140530, "pitch": 54, "duration": 33, "velocity": 73}, {"time": 140530, "pitch": 64, "duration": 227, "velocity": 112}, {"time": 140530, "pitch": 69, "duration": 35, "velocity": 73}, {"time": 140639, "pitch": 51, "duration": 141, "velocity": 127}, {"time": 140639, "pitch": 54, "duration": 48, "velocity": 74}, {"time": 140639, "pitch": 69, "duration": 42, "velocity": 72}, {"time": 140769, "pitch": 54, "duration": 47, "velocity": 88}, {"time": 140769, "pitch": 63, "duration": 110, "velocity": 98}, {"time": 140769, "pitch": 69, "duration": 40, "velocity": 91}, {"time": 140879, "pitch": 54, "duration": 80, "velocity": 112}, {"time": 140879, "pitch": 62, "duration": 70, "velocity": 119}, {"time": 140880, "pitch": 51, "duration": 109, "velocity": 100}, {"time": 140880, "pitch": 69, "duration": 56, "velocity": 86}, {"time": 141008, "pitch": 54, "duration": 33, "velocity": 66}, {"time": 141118, "pitch": 51, "duration": 129, "velocity": 125}, {"time": 141118, "pitch": 54, "duration": 45, "velocity": 53}, {"time": 141118, "pitch": 63, "duration": 96, "velocity": 110}, {"time": 141118, "pitch": 70, "duration": 70, "velocity": 89}, {"time": 141248, "pitch": 54, "duration": 41, "velocity": 73}, {"time": 141357, "pitch": 51, "duration": 122, "velocity": 115}, {"time": 141357, "pitch": 54, "duration": 72, "velocity": 112}, {"time": 141357, "pitch": 64, "duration": 33, "velocity": 105}, {"time": 141357, "pitch": 69, "duration": 40, "velocity": 86}, {"time": 141487, "pitch": 54, "duration": 30, "velocity": 83}, {"time": 141487, "pitch": 64, "duration": 230, "velocity": 115}, {"time": 141487, "pitch": 69, "duration": 33, "velocity": 77}, {"time": 141597, "pitch": 51, "duration": 119, "velocity": 112}, {"time": 141597, "pitch": 54, "duration": 43, "velocity": 84}, {"time": 141597, "pitch": 69, "duration": 45, "velocity": 84}, {"time": 141729, "pitch": 54, "duration": 42, "velocity": 88}, {"time": 141729, "pitch": 63, "duration": 115, "velocity": 97}, {"time": 141729, "pitch": 69, "duration": 30, "velocity": 81}, {"time": 141841, "pitch": 51, "duration": 108, "velocity": 119}, {"time": 141841, "pitch": 54, "duration": 82, "velocity": 110}, {"time": 141841, "pitch": 62, "duration": 65, "velocity": 124}, {"time": 141841, "pitch": 69, "duration": 93, "velocity": 94}, {"time": 141973, "pitch": 54, "duration": 38, "velocity": 67}, {"time": 142085, "pitch": 51, "duration": 131, "velocity": 125}, {"time": 142085, "pitch": 54, "duration": 51, "velocity": 58}, {"time": 142085, "pitch": 63, "duration": 85, "velocity": 115}, {"time": 142085, "pitch": 70, "duration": 80, "velocity": 91}, {"time": 142214, "pitch": 54, "duration": 39, "velocity": 76}, {"time": 142214, "pitch": 63, "duration": 27, "velocity": 99}, {"time": 142324, "pitch": 51, "duration": 116, "velocity": 106}, {"time": 142324, "pitch": 54, "duration": 81, "velocity": 107}, {"time": 142324, "pitch": 64, "duration": 48, "velocity": 58}, {"time": 142324, "pitch": 69, "duration": 35, "velocity": 82}, {"time": 142453, "pitch": 54, "duration": 35, "velocity": 75}, {"time": 142453, "pitch": 64, "duration": 94, "velocity": 74}, {"time": 142453, "pitch": 69, "duration": 38, "velocity": 88}, {"time": 142563, "pitch": 51, "duration": 141, "velocity": 127}, {"time": 142563, "pitch": 64, "duration": 133, "velocity": 98}, {"time": 142563, "pitch": 69, "duration": 37, "velocity": 82}, {"time": 142564, "pitch": 54, "duration": 61, "velocity": 81}, {"time": 142693, "pitch": 54, "duration": 33, "velocity": 72}, {"time": 142693, "pitch": 63, "duration": 80, "velocity": 115}, {"time": 142693, "pitch": 69, "duration": 31, "velocity": 86}, {"time": 142802, "pitch": 54, "duration": 81, "velocity": 94}, {"time": 142802, "pitch": 62, "duration": 69, "velocity": 119}, {"time": 142802, "pitch": 69, "duration": 31, "velocity": 83}, {"time": 142803, "pitch": 51, "duration": 110, "velocity": 100}, {"time": 142932, "pitch": 54, "duration": 35, "velocity": 74}, {"time": 143042, "pitch": 51, "duration": 128, "velocity": 125}, {"time": 143042, "pitch": 54, "duration": 53, "velocity": 79}, {"time": 143042, "pitch": 63, "duration": 78, "velocity": 112}, {"time": 143042, "pitch": 70, "duration": 64, "velocity": 91}, {"time": 143171, "pitch": 54, "duration": 35, "velocity": 83}, {"time": 143281, "pitch": 51, "duration": 122, "velocity": 115}, {"time": 143281, "pitch": 54, "duration": 80, "velocity": 103}, {"time": 143281, "pitch": 64, "duration": 31, "velocity": 99}, {"time": 143281, "pitch": 69, "duration": 33, "velocity": 80}, {"time": 143411, "pitch": 54, "duration": 30, "velocity": 77}, {"time": 143411, "pitch": 64, "duration": 194, "velocity": 108}, {"time": 143411, "pitch": 69, "duration": 42, "velocity": 77}, {"time": 143520, "pitch": 51, "duration": 118, "velocity": 112}, {"time": 143520, "pitch": 54, "duration": 38, "velocity": 66}, {"time": 143520, "pitch": 69, "duration": 36, "velocity": 77}, {"time": 143650, "pitch": 54, "duration": 35, "velocity": 86}, {"time": 143650, "pitch": 63, "duration": 85, "velocity": 92}, {"time": 143650, "pitch": 69, "duration": 47, "velocity": 89}, {"time": 143759, "pitch": 51, "duration": 107, "velocity": 119}, {"time": 143759, "pitch": 62, "duration": 97, "velocity": 125}, {"time": 143759, "pitch": 69, "duration": 59, "velocity": 83}, {"time": 143760, "pitch": 54, "duration": 81, "velocity": 107}, {"time": 143889, "pitch": 54, "duration": 34, "velocity": 73}, {"time": 143999, "pitch": 51, "duration": 131, "velocity": 125}, {"time": 143999, "pitch": 63, "duration": 85, "velocity": 117}, {"time": 143999, "pitch": 70, "duration": 64, "velocity": 88}, {"time": 144000, "pitch": 54, "duration": 44, "velocity": 52}, {"time": 144128, "pitch": 54, "duration": 33, "velocity": 82}, {"time": 144238, "pitch": 51, "duration": 117, "velocity": 106}, {"time": 144238, "pitch": 54, "duration": 81, "velocity": 100}, {"time": 144238, "pitch": 64, "duration": 29, "velocity": 99}, {"time": 144238, "pitch": 69, "duration": 37, "velocity": 84}, {"time": 144368, "pitch": 54, "duration": 33, "velocity": 73}, {"time": 144368, "pitch": 69, "duration": 35, "velocity": 73}, {"time": 144477, "pitch": 51, "duration": 144, "velocity": 127}, {"time": 144477, "pitch": 54, "duration": 49, "velocity": 74}, {"time": 144477, "pitch": 64, "duration": 93, "velocity": 33}, {"time": 144477, "pitch": 69, "duration": 43, "velocity": 72}, {"time": 144609, "pitch": 54, "duration": 48, "velocity": 88}, {"time": 144609, "pitch": 63, "duration": 89, "velocity": 117}, {"time": 144609, "pitch": 69, "duration": 41, "velocity": 91}, {"time": 144721, "pitch": 54, "duration": 83, "velocity": 112}, {"time": 144722, "pitch": 51, "duration": 112, "velocity": 100}, {"time": 144722, "pitch": 62, "duration": 92, "velocity": 124}, {"time": 144722, "pitch": 69, "duration": 57, "velocity": 86}, {"time": 144854, "pitch": 54, "duration": 33, "velocity": 66}, {"time": 144965, "pitch": 51, "duration": 129, "velocity": 125}, {"time": 144965, "pitch": 54, "duration": 45, "velocity": 53}, {"time": 144965, "pitch": 63, "duration": 79, "velocity": 124}, {"time": 144965, "pitch": 70, "duration": 70, "velocity": 89}, {"time": 145095, "pitch": 54, "duration": 42, "velocity": 73}, {"time": 145095, "pitch": 64, "duration": 28, "velocity": 117}, {"time": 145205, "pitch": 51, "duration": 121, "velocity": 115}, {"time": 145205, "pitch": 54, "duration": 71, "velocity": 112}, {"time": 145205, "pitch": 63, "duration": 28, "velocity": 88}, {"time": 145205, "pitch": 69, "duration": 39, "velocity": 86}, {"time": 145334, "pitch": 54, "duration": 30, "velocity": 83}, {"time": 145334, "pitch": 63, "duration": 88, "velocity": 125}, {"time": 145334, "pitch": 69, "duration": 33, "velocity": 77}, {"time": 145444, "pitch": 51, "duration": 118, "velocity": 112}, {"time": 145444, "pitch": 54, "duration": 43, "velocity": 84}, {"time": 145444, "pitch": 69, "duration": 45, "velocity": 84}, {"time": 145573, "pitch": 54, "duration": 42, "velocity": 88}, {"time": 145573, "pitch": 63, "duration": 60, "velocity": 115}, {"time": 145573, "pitch": 69, "duration": 30, "velocity": 81}, {"time": 145683, "pitch": 51, "duration": 107, "velocity": 119}, {"time": 145683, "pitch": 54, "duration": 81, "velocity": 110}, {"time": 145683, "pitch": 62, "duration": 123, "velocity": 125}, {"time": 145683, "pitch": 69, "duration": 92, "velocity": 94}, {"time": 145813, "pitch": 54, "duration": 38, "velocity": 67}, {"time": 145922, "pitch": 51, "duration": 132, "velocity": 125}, {"time": 145922, "pitch": 54, "duration": 52, "velocity": 58}, {"time": 145922, "pitch": 63, "duration": 64, "velocity": 117}, {"time": 145922, "pitch": 70, "duration": 81, "velocity": 91}, {"time": 146052, "pitch": 54, "duration": 39, "velocity": 76}, {"time": 146162, "pitch": 51, "duration": 116, "velocity": 106}, {"time": 146162, "pitch": 54, "duration": 80, "velocity": 107}, {"time": 146162, "pitch": 64, "duration": 27, "velocity": 115}, {"time": 146162, "pitch": 69, "duration": 35, "velocity": 82}, {"time": 146291, "pitch": 54, "duration": 35, "velocity": 75}, {"time": 146291, "pitch": 64, "duration": 100, "velocity": 110}, {"time": 146291, "pitch": 69, "duration": 38, "velocity": 88}, {"time": 146400, "pitch": 49, "duration": 1950, "velocity": 120}, {"time": 146401, "pitch": 51, "duration": 141, "velocity": 127}, {"time": 146401, "pitch": 69, "duration": 37, "velocity": 82}, {"time": 146402, "pitch": 54, "duration": 61, "velocity": 81}, {"time": 146402, "pitch": 64, "duration": 131, "velocity": 125}, {"time": 146531, "pitch": 54, "duration": 33, "velocity": 72}, {"time": 146531, "pitch": 63, "duration": 82, "velocity": 115}, {"time": 146531, "pitch": 69, "duration": 31, "velocity": 86}, {"time": 146640, "pitch": 54, "duration": 81, "velocity": 94}, {"time": 146640, "pitch": 62, "duration": 83, "velocity": 115}, {"time": 146640, "pitch": 69, "duration": 31, "velocity": 83}, {"time": 146641, "pitch": 51, "duration": 110, "velocity": 100}, {"time": 146770, "pitch": 54, "duration": 35, "velocity": 74}, {"time": 146880, "pitch": 51, "duration": 128, "velocity": 125}, {"time": 146880, "pitch": 54, "duration": 53, "velocity": 79}, {"time": 146880, "pitch": 63, "duration": 101, "velocity": 115}, {"time": 146880, "pitch": 70, "duration": 64, "velocity": 91}, {"time": 147009, "pitch": 54, "duration": 35, "velocity": 83}, {"time": 147119, "pitch": 51, "duration": 121, "velocity": 115}, {"time": 147119, "pitch": 54, "duration": 80, "velocity": 103}, {"time": 147119, "pitch": 64, "duration": 44, "velocity": 58}, {"time": 147119, "pitch": 69, "duration": 33, "velocity": 80}, {"time": 147248, "pitch": 54, "duration": 31, "velocity": 77}, {"time": 147248, "pitch": 64, "duration": 255, "velocity": 125}, {"time": 147248, "pitch": 69, "duration": 43, "velocity": 77}, {"time": 147358, "pitch": 51, "duration": 118, "velocity": 112}, {"time": 147358, "pitch": 54, "duration": 38, "velocity": 66}, {"time": 147358, "pitch": 69, "duration": 36, "velocity": 77}, {"time": 147488, "pitch": 54, "duration": 35, "velocity": 86}, {"time": 147488, "pitch": 63, "duration": 121, "velocity": 101}, {"time": 147488, "pitch": 69, "duration": 47, "velocity": 89}, {"time": 147597, "pitch": 51, "duration": 107, "velocity": 119}, {"time": 147597, "pitch": 69, "duration": 59, "velocity": 83}, {"time": 147598, "pitch": 54, "duration": 81, "velocity": 107}, {"time": 147598, "pitch": 62, "duration": 56, "velocity": 125}, {"time": 147727, "pitch": 54, "duration": 34, "velocity": 73}, {"time": 147837, "pitch": 51, "duration": 134, "velocity": 125}, {"time": 147837, "pitch": 70, "duration": 65, "velocity": 88}, {"time": 147838, "pitch": 54, "duration": 44, "velocity": 52}, {"time": 147838, "pitch": 63, "duration": 80, "velocity": 115}, {"time": 147969, "pitch": 54, "duration": 33, "velocity": 82}, {"time": 148081, "pitch": 51, "duration": 119, "velocity": 106}, {"time": 148081, "pitch": 54, "duration": 82, "velocity": 100}, {"time": 148081, "pitch": 64, "duration": 26, "velocity": 105}, {"time": 148081, "pitch": 69, "duration": 37, "velocity": 84}, {"time": 148213, "pitch": 54, "duration": 33, "velocity": 73}, {"time": 148213, "pitch": 64, "duration": 229, "velocity": 112}, {"time": 148213, "pitch": 69, "duration": 35, "velocity": 73}, {"time": 148325, "pitch": 51, "duration": 140, "velocity": 127}, {"time": 148325, "pitch": 54, "duration": 48, "velocity": 74}, {"time": 148325, "pitch": 69, "duration": 42, "velocity": 72}, {"time": 148454, "pitch": 54, "duration": 47, "velocity": 88}, {"time": 148454, "pitch": 63, "duration": 110, "velocity": 98}, {"time": 148454, "pitch": 69, "duration": 40, "velocity": 91}, {"time": 148564, "pitch": 54, "duration": 81, "velocity": 112}, {"time": 148564, "pitch": 62, "duration": 71, "velocity": 119}, {"time": 148565, "pitch": 51, "duration": 110, "velocity": 100}, {"time": 148565, "pitch": 69, "duration": 56, "velocity": 86}, {"time": 148694, "pitch": 54, "duration": 32, "velocity": 66}, {"time": 148803, "pitch": 51, "duration": 129, "velocity": 125}, {"time": 148803, "pitch": 54, "duration": 45, "velocity": 53}, {"time": 148803, "pitch": 63, "duration": 96, "velocity": 110}, {"time": 148803, "pitch": 70, "duration": 70, "velocity": 89}, {"time": 148933, "pitch": 54, "duration": 42, "velocity": 73}, {"time": 149043, "pitch": 51, "duration": 121, "velocity": 115}, {"time": 149043, "pitch": 54, "duration": 71, "velocity": 112}, {"time": 149043, "pitch": 64, "duration": 32, "velocity": 105}, {"time": 149043, "pitch": 69, "duration": 39, "velocity": 86}, {"time": 149172, "pitch": 54, "duration": 30, "velocity": 83}, {"time": 149172, "pitch": 64, "duration": 228, "velocity": 115}, {"time": 149172, "pitch": 69, "duration": 33, "velocity": 77}, {"time": 149282, "pitch": 51, "duration": 117, "velocity": 112}, {"time": 149282, "pitch": 54, "duration": 43, "velocity": 84}, {"time": 149282, "pitch": 69, "duration": 45, "velocity": 84}, {"time": 149411, "pitch": 54, "duration": 42, "velocity": 88}, {"time": 149411, "pitch": 63, "duration": 113, "velocity": 97}, {"time": 149411, "pitch": 69, "duration": 30, "velocity": 81}, {"time": 149521, "pitch": 51, "duration": 107, "velocity": 119}, {"time": 149521, "pitch": 54, "duration": 81, "velocity": 110}, {"time": 149521, "pitch": 62, "duration": 64, "velocity": 124}, {"time": 149521, "pitch": 69, "duration": 92, "velocity": 94}, {"time": 149651, "pitch": 54, "duration": 38, "velocity": 67}, {"time": 149760, "pitch": 51, "duration": 132, "velocity": 125}, {"time": 149760, "pitch": 54, "duration": 52, "velocity": 58}, {"time": 149760, "pitch": 63, "duration": 86, "velocity": 115}, {"time": 149760, "pitch": 70, "duration": 81, "velocity": 91}, {"time": 149890, "pitch": 54, "duration": 39, "velocity": 76}, {"time": 149890, "pitch": 63, "duration": 27, "velocity": 99}, {"time": 150000, "pitch": 51, "duration": 116, "velocity": 106}, {"time": 150000, "pitch": 54, "duration": 80, "velocity": 107}, {"time": 150000, "pitch": 64, "duration": 47, "velocity": 58}, {"time": 150000, "pitch": 69, "duration": 35, "velocity": 82}, {"time": 150129, "pitch": 54, "duration": 35, "velocity": 75}, {"time": 150129, "pitch": 64, "duration": 94, "velocity": 74}, {"time": 150129, "pitch": 69, "duration": 38, "velocity": 88}, {"time": 150239, "pitch": 51, "duration": 140, "velocity": 127}, {"time": 150239, "pitch": 64, "duration": 133, "velocity": 98}, {"time": 150239, "pitch": 69, "duration": 37, "velocity": 82}, {"time": 150240, "pitch": 54, "duration": 61, "velocity": 81}, {"time": 150369, "pitch": 54, "duration": 32, "velocity": 72}, {"time": 150369, "pitch": 63, "duration": 80, "velocity": 115}, {"time": 150369, "pitch": 69, "duration": 30, "velocity": 86}, {"time": 150478, "pitch": 54, "duration": 81, "velocity": 94}, {"time": 150478, "pitch": 62, "duration": 69, "velocity": 119}, {"time": 150478, "pitch": 69, "duration": 31, "velocity": 83}, {"time": 150479, "pitch": 51, "duration": 110, "velocity": 100}, {"time": 150608, "pitch": 54, "duration": 35, "velocity": 74}, {"time": 150717, "pitch": 51, "duration": 132, "velocity": 125}, {"time": 150717, "pitch": 54, "duration": 55, "velocity": 79}, {"time": 150717, "pitch": 63, "duration": 81, "velocity": 112}, {"time": 150717, "pitch": 70, "duration": 67, "velocity": 91}, {"time": 150850, "pitch": 54, "duration": 35, "velocity": 83}, {"time": 150961, "pitch": 51, "duration": 125, "velocity": 115}, {"time": 150961, "pitch": 54, "duration": 82, "velocity": 103}, {"time": 150961, "pitch": 64, "duration": 32, "velocity": 99}, {"time": 150961, "pitch": 69, "duration": 34, "velocity": 80}, {"time": 151094, "pitch": 54, "duration": 31, "velocity": 77}, {"time": 151094, "pitch": 64, "duration": 196, "velocity": 108}, {"time": 151094, "pitch": 69, "duration": 43, "velocity": 77}, {"time": 151205, "pitch": 51, "duration": 118, "velocity": 112}, {"time": 151205, "pitch": 54, "duration": 38, "velocity": 66}, {"time": 151205, "pitch": 69, "duration": 36, "velocity": 77}, {"time": 151335, "pitch": 54, "duration": 35, "velocity": 86}, {"time": 151335, "pitch": 63, "duration": 85, "velocity": 92}, {"time": 151335, "pitch": 69, "duration": 47, "velocity": 89}, {"time": 151445, "pitch": 51, "duration": 106, "velocity": 119}, {"time": 151445, "pitch": 62, "duration": 96, "velocity": 125}, {"time": 151445, "pitch": 69, "duration": 59, "velocity": 83}, {"time": 151446, "pitch": 54, "duration": 80, "velocity": 107}, {"time": 151574, "pitch": 54, "duration": 34, "velocity": 73}, {"time": 151684, "pitch": 51, "duration": 132, "velocity": 125}, {"time": 151684, "pitch": 63, "duration": 85, "velocity": 117}, {"time": 151684, "pitch": 70, "duration": 64, "velocity": 88}, {"time": 151685, "pitch": 54, "duration": 44, "velocity": 52}, {"time": 151814, "pitch": 54, "duration": 33, "velocity": 82}, {"time": 151923, "pitch": 51, "duration": 117, "velocity": 106}, {"time": 151923, "pitch": 54, "duration": 81, "velocity": 100}, {"time": 151923, "pitch": 64, "duration": 29, "velocity": 99}, {"time": 151923, "pitch": 69, "duration": 37, "velocity": 84}, {"time": 152053, "pitch": 54, "duration": 33, "velocity": 73}, {"time": 152053, "pitch": 69, "duration": 35, "velocity": 73}, {"time": 152163, "pitch": 51, "duration": 140, "velocity": 127}, {"time": 152163, "pitch": 54, "duration": 47, "velocity": 74}, {"time": 152163, "pitch": 64, "duration": 90, "velocity": 33}, {"time": 152163, "pitch": 69, "duration": 41, "velocity": 72}, {"time": 152292, "pitch": 54, "duration": 47, "velocity": 88}, {"time": 152292, "pitch": 63, "duration": 87, "velocity": 117}, {"time": 152292, "pitch": 69, "duration": 40, "velocity": 91}, {"time": 152402, "pitch": 54, "duration": 81, "velocity": 112}, {"time": 152403, "pitch": 51, "duration": 110, "velocity": 100}, {"time": 152403, "pitch": 62, "duration": 90, "velocity": 124}, {"time": 152403, "pitch": 69, "duration": 56, "velocity": 86}, {"time": 152531, "pitch": 54, "duration": 33, "velocity": 66}, {"time": 152641, "pitch": 51, "duration": 129, "velocity": 125}, {"time": 152641, "pitch": 54, "duration": 45, "velocity": 53}, {"time": 152641, "pitch": 63, "duration": 79, "velocity": 124}, {"time": 152641, "pitch": 70, "duration": 70, "velocity": 89}, {"time": 152771, "pitch": 54, "duration": 42, "velocity": 73}, {"time": 152771, "pitch": 64, "duration": 28, "velocity": 117}, {"time": 152880, "pitch": 51, "duration": 122, "velocity": 115}, {"time": 152880, "pitch": 54, "duration": 72, "velocity": 112}, {"time": 152880, "pitch": 63, "duration": 29, "velocity": 88}, {"time": 152880, "pitch": 69, "duration": 40, "velocity": 86}, {"time": 153010, "pitch": 54, "duration": 30, "velocity": 83}, {"time": 153010, "pitch": 63, "duration": 88, "velocity": 125}, {"time": 153010, "pitch": 69, "duration": 33, "velocity": 77}, {"time": 153120, "pitch": 51, "duration": 117, "velocity": 112}, {"time": 153120, "pitch": 54, "duration": 43, "velocity": 84}, {"time": 153120, "pitch": 69, "duration": 45, "velocity": 84}, {"time": 153249, "pitch": 54, "duration": 42, "velocity": 88}, {"time": 153249, "pitch": 63, "duration": 60, "velocity": 115}, {"time": 153249, "pitch": 69, "duration": 30, "velocity": 81}, {"time": 153359, "pitch": 51, "duration": 107, "velocity": 119}, {"time": 153359, "pitch": 54, "duration": 81, "velocity": 110}, {"time": 153359, "pitch": 62, "duration": 123, "velocity": 125}, {"time": 153359, "pitch": 69, "duration": 92, "velocity": 94}, {"time": 153489, "pitch": 54, "duration": 37, "velocity": 67}, {"time": 153598, "pitch": 51, "duration": 132, "velocity": 125}, {"time": 153598, "pitch": 54, "duration": 52, "velocity": 58}, {"time": 153598, "pitch": 63, "duration": 64, "velocity": 117}, {"time": 153598, "pitch": 70, "duration": 81, "velocity": 91}, {"time": 153728, "pitch": 54, "duration": 39, "velocity": 76}, {"time": 153838, "pitch": 51, "duration": 116, "velocity": 106}, {"time": 153838, "pitch": 54, "duration": 80, "velocity": 107}, {"time": 153838, "pitch": 64, "duration": 26, "velocity": 115}, {"time": 153838, "pitch": 69, "duration": 34, "velocity": 82}, {"time": 153967, "pitch": 54, "duration": 35, "velocity": 75}, {"time": 153967, "pitch": 64, "duration": 100, "velocity": 110}, {"time": 153967, "pitch": 69, "duration": 38, "velocity": 88}, {"time": 154076, "pitch": 49, "duration": 1949, "velocity": 120}, {"time": 154077, "pitch": 51, "duration": 143, "velocity": 127}, {"time": 154077, "pitch": 69, "duration": 37, "velocity": 82}, {"time": 154078, "pitch": 54, "duration": 62, "velocity": 81}, {"time": 154078, "pitch": 64, "duration": 133, "velocity": 125}, {"time": 154209, "pitch": 54, "duration": 34, "velocity": 72}, {"time": 154209, "pitch": 63, "duration": 84, "velocity": 115}, {"time": 154209, "pitch": 69, "duration": 31, "velocity": 86}, {"time": 154321, "pitch": 54, "duration": 82, "velocity": 94}, {"time": 154321, "pitch": 62, "duration": 84, "velocity": 115}, {"time": 154321, "pitch": 69, "duration": 31, "velocity": 83}, {"time": 154322, "pitch": 51, "duration": 112, "velocity": 100}, {"time": 154453, "pitch": 54, "duration": 36, "velocity": 74}, {"time": 154565, "pitch": 51, "duration": 128, "velocity": 125}, {"time": 154565, "pitch": 54, "duration": 54, "velocity": 79}, {"time": 154565, "pitch": 63, "duration": 102, "velocity": 115}, {"time": 154565, "pitch": 70, "duration": 65, "velocity": 91}, {"time": 154694, "pitch": 54, "duration": 35, "velocity": 83}, {"time": 154804, "pitch": 51, "duration": 122, "velocity": 115}, {"time": 154804, "pitch": 54, "duration": 80, "velocity": 103}, {"time": 154804, "pitch": 64, "duration": 44, "velocity": 58}, {"time": 154804, "pitch": 69, "duration": 33, "velocity": 80}, {"time": 154934, "pitch": 54, "duration": 31, "velocity": 77}, {"time": 154934, "pitch": 64, "duration": 254, "velocity": 125}, {"time": 154934, "pitch": 69, "duration": 43, "velocity": 77}, {"time": 155043, "pitch": 51, "duration": 118, "velocity": 112}, {"time": 155043, "pitch": 54, "duration": 38, "velocity": 66}, {"time": 155043, "pitch": 69, "duration": 36, "velocity": 77}, {"time": 155173, "pitch": 54, "duration": 35, "velocity": 86}, {"time": 155173, "pitch": 63, "duration": 122, "velocity": 101}, {"time": 155173, "pitch": 69, "duration": 47, "velocity": 89}, {"time": 155283, "pitch": 51, "duration": 106, "velocity": 119}, {"time": 155283, "pitch": 69, "duration": 58, "velocity": 83}, {"time": 155284, "pitch": 54, "duration": 80, "velocity": 107}, {"time": 155284, "pitch": 62, "duration": 55, "velocity": 125}, {"time": 155412, "pitch": 54, "duration": 34, "velocity": 73}, {"time": 155522, "pitch": 51, "duration": 132, "velocity": 125}, {"time": 155522, "pitch": 70, "duration": 64, "velocity": 88}, {"time": 155523, "pitch": 54, "duration": 44, "velocity": 52}, {"time": 155523, "pitch": 63, "duration": 79, "velocity": 115}, {"time": 155652, "pitch": 54, "duration": 32, "velocity": 82}, {"time": 155761, "pitch": 51, "duration": 117, "velocity": 106}, {"time": 155761, "pitch": 54, "duration": 81, "velocity": 100}, {"time": 155761, "pitch": 64, "duration": 26, "velocity": 105}, {"time": 155761, "pitch": 69, "duration": 37, "velocity": 84}, {"time": 155891, "pitch": 54, "duration": 33, "velocity": 73}, {"time": 155891, "pitch": 64, "duration": 227, "velocity": 112}, {"time": 155891, "pitch": 69, "duration": 35, "velocity": 73}, {"time": 156000, "pitch": 51, "duration": 141, "velocity": 127}, {"time": 156000, "pitch": 54, "duration": 48, "velocity": 74}, {"time": 156000, "pitch": 69, "duration": 42, "velocity": 72}, {"time": 156130, "pitch": 54, "duration": 47, "velocity": 88}, {"time": 156130, "pitch": 63, "duration": 110, "velocity": 98}, {"time": 156130, "pitch": 69, "duration": 40, "velocity": 91}, {"time": 156240, "pitch": 54, "duration": 81, "velocity": 112}, {"time": 156240, "pitch": 62, "duration": 71, "velocity": 119}, {"time": 156241, "pitch": 51, "duration": 109, "velocity": 100}, {"time": 156241, "pitch": 69, "duration": 56, "velocity": 86}, {"time": 156369, "pitch": 54, "duration": 33, "velocity": 66}, {"time": 156479, "pitch": 51, "duration": 129, "velocity": 125}, {"time": 156479, "pitch": 54, "duration": 45, "velocity": 53}, {"time": 156479, "pitch": 63, "duration": 96, "velocity": 110}, {"time": 156479, "pitch": 70, "duration": 70, "velocity": 89}, {"time": 156609, "pitch": 54, "duration": 42, "velocity": 73}, {"time": 156718, "pitch": 51, "duration": 122, "velocity": 115}, {"time": 156718, "pitch": 54, "duration": 72, "velocity": 112}, {"time": 156718, "pitch": 64, "duration": 33, "velocity": 105}, {"time": 156718, "pitch": 69, "duration": 40, "velocity": 86}, {"time": 156848, "pitch": 54, "duration": 30, "velocity": 83}, {"time": 156848, "pitch": 64, "duration": 231, "velocity": 115}, {"time": 156848, "pitch": 69, "duration": 33, "velocity": 77}, {"time": 156958, "pitch": 51, "duration": 120, "velocity": 112}, {"time": 156958, "pitch": 54, "duration": 43, "velocity": 84}, {"time": 156958, "pitch": 69, "duration": 45, "velocity": 84}, {"time": 157090, "pitch": 54, "duration": 42, "velocity": 88}, {"time": 157090, "pitch": 63, "duration": 115, "velocity": 97}, {"time": 157090, "pitch": 69, "duration": 30, "velocity": 81}, {"time": 157202, "pitch": 51, "duration": 108, "velocity": 119}, {"time": 157202, "pitch": 54, "duration": 82, "velocity": 110}, {"time": 157202, "pitch": 62, "duration": 65, "velocity": 124}, {"time": 157202, "pitch": 69, "duration": 93, "velocity": 94}, {"time": 157334, "pitch": 54, "duration": 38, "velocity": 67}, {"time": 157446, "pitch": 51, "duration": 131, "velocity": 125}, {"time": 157446, "pitch": 54, "duration": 51, "velocity": 58}, {"time": 157446, "pitch": 63, "duration": 85, "velocity": 115}, {"time": 157446, "pitch": 70, "duration": 80, "velocity": 91}, {"time": 157575, "pitch": 54, "duration": 39, "velocity": 76}, {"time": 157575, "pitch": 63, "duration": 27, "velocity": 99}, {"time": 157685, "pitch": 51, "duration": 117, "velocity": 106}, {"time": 157685, "pitch": 54, "duration": 81, "velocity": 107}, {"time": 157685, "pitch": 64, "duration": 48, "velocity": 58}, {"time": 157685, "pitch": 69, "duration": 35, "velocity": 82}, {"time": 157814, "pitch": 54, "duration": 35, "velocity": 75}, {"time": 157814, "pitch": 64, "duration": 94, "velocity": 74}, {"time": 157814, "pitch": 69, "duration": 38, "velocity": 88}, {"time": 157924, "pitch": 51, "duration": 141, "velocity": 127}, {"time": 157924, "pitch": 64, "duration": 133, "velocity": 98}, {"time": 157924, "pitch": 69, "duration": 37, "velocity": 82}, {"time": 157925, "pitch": 54, "duration": 61, "velocity": 81}, {"time": 158054, "pitch": 54, "duration": 33, "velocity": 72}, {"time": 158054, "pitch": 63, "duration": 81, "velocity": 115}, {"time": 158054, "pitch": 69, "duration": 31, "velocity": 86}, {"time": 158163, "pitch": 54, "duration": 81, "velocity": 94}, {"time": 158163, "pitch": 62, "duration": 69, "velocity": 119}, {"time": 158163, "pitch": 69, "duration": 31, "velocity": 83}, {"time": 158164, "pitch": 51, "duration": 110, "velocity": 100}, {"time": 158293, "pitch": 54, "duration": 35, "velocity": 74}, {"time": 158403, "pitch": 51, "duration": 128, "velocity": 125}, {"time": 158403, "pitch": 54, "duration": 54, "velocity": 79}, {"time": 158403, "pitch": 63, "duration": 78, "velocity": 112}, {"time": 158403, "pitch": 70, "duration": 65, "velocity": 91}, {"time": 158532, "pitch": 54, "duration": 35, "velocity": 83}, {"time": 158642, "pitch": 51, "duration": 122, "velocity": 115}, {"time": 158642, "pitch": 54, "duration": 80, "velocity": 103}, {"time": 158642, "pitch": 64, "duration": 31, "velocity": 99}, {"time": 158642, "pitch": 69, "duration": 33, "velocity": 80}, {"time": 158772, "pitch": 54, "duration": 31, "velocity": 77}, {"time": 158772, "pitch": 64, "duration": 194, "velocity": 108}, {"time": 158772, "pitch": 69, "duration": 42, "velocity": 77}, {"time": 158881, "pitch": 51, "duration": 118, "velocity": 112}, {"time": 158881, "pitch": 54, "duration": 38, "velocity": 66}, {"time": 158881, "pitch": 69, "duration": 36, "velocity": 77}, {"time": 159011, "pitch": 54, "duration": 35, "velocity": 86}, {"time": 159011, "pitch": 63, "duration": 85, "velocity": 92}, {"time": 159011, "pitch": 69, "duration": 47, "velocity": 89}, {"time": 159121, "pitch": 51, "duration": 106, "velocity": 119}, {"time": 159121, "pitch": 62, "duration": 96, "velocity": 125}, {"time": 159121, "pitch": 69, "duration": 58, "velocity": 83}, {"time": 159122, "pitch": 54, "duration": 80, "velocity": 107}, {"time": 159250, "pitch": 54, "duration": 34, "velocity": 73}, {"time": 159360, "pitch": 51, "duration": 131, "velocity": 125}, {"time": 159360, "pitch": 63, "duration": 85, "velocity": 117}, {"time": 159360, "pitch": 70, "duration": 64, "velocity": 88}, {"time": 159361, "pitch": 54, "duration": 44, "velocity": 52}, {"time": 159489, "pitch": 54, "duration": 33, "velocity": 82}, {"time": 159599, "pitch": 51, "duration": 117, "velocity": 106}, {"time": 159599, "pitch": 54, "duration": 81, "velocity": 100}, {"time": 159599, "pitch": 64, "duration": 29, "velocity": 99}, {"time": 159599, "pitch": 69, "duration": 37, "velocity": 84}, {"time": 159729, "pitch": 54, "duration": 33, "velocity": 73}, {"time": 159729, "pitch": 69, "duration": 35, "velocity": 73}, {"time": 159838, "pitch": 51, "duration": 141, "velocity": 127}, {"time": 159838, "pitch": 54, "duration": 48, "velocity": 74}, {"time": 159838, "pitch": 64, "duration": 91, "velocity": 33}, {"time": 159838, "pitch": 69, "duration": 42, "velocity": 72}, {"time": 159968, "pitch": 54, "duration": 47, "velocity": 88}, {"time": 159968, "pitch": 63, "duration": 87, "velocity": 117}, {"time": 159968, "pitch": 69, "duration": 40, "velocity": 91}, {"time": 160078, "pitch": 54, "duration": 80, "velocity": 112}, {"time": 160079, "pitch": 51, "duration": 109, "velocity": 100}, {"time": 160079, "pitch": 62, "duration": 89, "velocity": 124}, {"time": 160079, "pitch": 69, "duration": 56, "velocity": 86}, {"time": 160207, "pitch": 54, "duration": 33, "velocity": 66}, {"time": 160317, "pitch": 51, "duration": 131, "velocity": 125}, {"time": 160317, "pitch": 54, "duration": 46, "velocity": 53}, {"time": 160317, "pitch": 63, "duration": 80, "velocity": 124}, {"time": 160317, "pitch": 70, "duration": 71, "velocity": 89}, {"time": 160449, "pitch": 54, "duration": 43, "velocity": 73}, {"time": 160449, "pitch": 64, "duration": 29, "velocity": 117}, {"time": 160561, "pitch": 51, "duration": 124, "velocity": 115}, {"time": 160561, "pitch": 54, "duration": 73, "velocity": 112}, {"time": 160561, "pitch": 63, "duration": 29, "velocity": 88}, {"time": 160561, "pitch": 69, "duration": 41, "velocity": 86}, {"time": 160693, "pitch": 54, "duration": 31, "velocity": 83}, {"time": 160693, "pitch": 63, "duration": 90, "velocity": 125}, {"time": 160693, "pitch": 69, "duration": 34, "velocity": 77}, {"time": 160805, "pitch": 51, "duration": 118, "velocity": 112}, {"time": 160805, "pitch": 54, "duration": 43, "velocity": 84}, {"time": 160805, "pitch": 69, "duration": 45, "velocity": 84}, {"time": 160935, "pitch": 54, "duration": 41, "velocity": 88}, {"time": 160935, "pitch": 63, "duration": 59, "velocity": 115}, {"time": 160935, "pitch": 69, "duration": 29, "velocity": 81}, {"time": 161044, "pitch": 51, "duration": 107, "velocity": 119}, {"time": 161044, "pitch": 54, "duration": 81, "velocity": 110}, {"time": 161044, "pitch": 62, "duration": 123, "velocity": 125}, {"time": 161044, "pitch": 69, "duration": 92, "velocity": 94}, {"time": 161174, "pitch": 54, "duration": 38, "velocity": 67}, {"time": 161284, "pitch": 51, "duration": 131, "velocity": 125}, {"time": 161284, "pitch": 54, "duration": 51, "velocity": 58}, {"time": 161284, "pitch": 63, "duration": 63, "velocity": 117}, {"time": 161284, "pitch": 70, "duration": 80, "velocity": 91}, {"time": 161413, "pitch": 54, "duration": 39, "velocity": 76}, {"time": 161523, "pitch": 51, "duration": 116, "velocity": 106}, {"time": 161523, "pitch": 54, "duration": 81, "velocity": 107}, {"time": 161523, "pitch": 64, "duration": 27, "velocity": 115}, {"time": 161523, "pitch": 69, "duration": 35, "velocity": 82}, {"time": 161652, "pitch": 54, "duration": 35, "velocity": 75}, {"time": 161652, "pitch": 64, "duration": 100, "velocity": 110}, {"time": 161652, "pitch": 69, "duration": 38, "velocity": 88}, {"time": 161762, "pitch": 69, "duration": 37, "velocity": 82}, {"time": 161763, "pitch": 54, "duration": 61, "velocity": 81}, {"time": 161763, "pitch": 64, "duration": 131, "velocity": 125}, {"time": 161892, "pitch": 54, "duration": 33, "velocity": 72}, {"time": 161892, "pitch": 63, "duration": 82, "velocity": 115}, {"time": 161892, "pitch": 69, "duration": 31, "velocity": 86}, {"time": 162001, "pitch": 54, "duration": 81, "velocity": 94}, {"time": 162001, "pitch": 62, "duration": 83, "velocity": 115}, {"time": 162001, "pitch": 69, "duration": 31, "velocity": 83}, {"time": 162131, "pitch": 54, "duration": 35, "velocity": 74}, {"time": 162241, "pitch": 54, "duration": 53, "velocity": 79}, {"time": 162241, "pitch": 63, "duration": 101, "velocity": 115}, {"time": 162241, "pitch": 70, "duration": 64, "velocity": 91}, {"time": 162370, "pitch": 54, "duration": 35, "velocity": 83}, {"time": 162480, "pitch": 54, "duration": 80, "velocity": 103}, {"time": 162480, "pitch": 64, "duration": 44, "velocity": 58}, {"time": 162480, "pitch": 69, "duration": 33, "velocity": 80}, {"time": 162610, "pitch": 54, "duration": 30, "velocity": 77}, {"time": 162610, "pitch": 64, "duration": 254, "velocity": 125}, {"time": 162610, "pitch": 69, "duration": 42, "velocity": 77}, {"time": 162719, "pitch": 54, "duration": 38, "velocity": 66}, {"time": 162719, "pitch": 69, "duration": 36, "velocity": 77}, {"time": 162849, "pitch": 54, "duration": 35, "velocity": 86}, {"time": 162849, "pitch": 63, "duration": 121, "velocity": 101}, {"time": 162849, "pitch": 69, "duration": 47, "velocity": 89}, {"time": 162958, "pitch": 69, "duration": 59, "velocity": 83}, {"time": 162959, "pitch": 54, "duration": 81, "velocity": 107}, {"time": 162959, "pitch": 62, "duration": 56, "velocity": 125}, {"time": 163088, "pitch": 54, "duration": 34, "velocity": 73}, {"time": 163198, "pitch": 70, "duration": 64, "velocity": 88}, {"time": 163199, "pitch": 54, "duration": 44, "velocity": 52}, {"time": 163199, "pitch": 63, "duration": 79, "velocity": 115}, {"time": 163327, "pitch": 54, "duration": 33, "velocity": 82}, {"time": 163437, "pitch": 54, "duration": 81, "velocity": 100}, {"time": 163437, "pitch": 64, "duration": 26, "velocity": 105}, {"time": 163437, "pitch": 69, "duration": 37, "velocity": 84}, {"time": 163567, "pitch": 54, "duration": 33, "velocity": 73}, {"time": 163567, "pitch": 64, "duration": 229, "velocity": 112}, {"time": 163567, "pitch": 69, "duration": 35, "velocity": 73}, {"time": 163676, "pitch": 54, "duration": 49, "velocity": 74}, {"time": 163676, "pitch": 69, "duration": 43, "velocity": 72}, {"time": 163808, "pitch": 54, "duration": 48, "velocity": 88}, {"time": 163808, "pitch": 63, "duration": 112, "velocity": 98}, {"time": 163808, "pitch": 69, "duration": 41, "velocity": 91}, {"time": 163920, "pitch": 54, "duration": 83, "velocity": 112}, {"time": 163920, "pitch": 62, "duration": 73, "velocity": 119}, {"time": 163921, "pitch": 69, "duration": 57, "velocity": 86}, {"time": 164053, "pitch": 54, "duration": 33, "velocity": 66}, {"time": 164164, "pitch": 54, "duration": 45, "velocity": 53}, {"time": 164164, "pitch": 63, "duration": 96, "velocity": 110}, {"time": 164164, "pitch": 70, "duration": 70, "velocity": 89}, {"time": 164294, "pitch": 54, "duration": 42, "velocity": 73}, {"time": 164404, "pitch": 54, "duration": 71, "velocity": 112}, {"time": 164404, "pitch": 64, "duration": 33, "velocity": 105}, {"time": 164404, "pitch": 69, "duration": 39, "velocity": 86}, {"time": 164533, "pitch": 54, "duration": 30, "velocity": 83}, {"time": 164533, "pitch": 64, "duration": 229, "velocity": 115}, {"time": 164533, "pitch": 69, "duration": 33, "velocity": 77}, {"time": 164643, "pitch": 54, "duration": 43, "velocity": 84}, {"time": 164643, "pitch": 69, "duration": 45, "velocity": 84}, {"time": 164772, "pitch": 54, "duration": 42, "velocity": 88}, {"time": 164772, "pitch": 63, "duration": 113, "velocity": 97}, {"time": 164772, "pitch": 69, "duration": 30, "velocity": 81}, {"time": 164882, "pitch": 54, "duration": 81, "velocity": 110}, {"time": 164882, "pitch": 62, "duration": 64, "velocity": 124}, {"time": 164882, "pitch": 69, "duration": 92, "velocity": 94}, {"time": 165012, "pitch": 54, "duration": 38, "velocity": 67}, {"time": 165121, "pitch": 54, "duration": 52, "velocity": 58}, {"time": 165121, "pitch": 63, "duration": 86, "velocity": 115}, {"time": 165121, "pitch": 70, "duration": 81, "velocity": 91}, {"time": 165251, "pitch": 54, "duration": 39, "velocity": 76}, {"time": 165251, "pitch": 63, "duration": 27, "velocity": 99}, {"time": 165361, "pitch": 54, "duration": 80, "velocity": 107}, {"time": 165361, "pitch": 64, "duration": 48, "velocity": 58}, {"time": 165361, "pitch": 69, "duration": 35, "velocity": 82}, {"time": 165490, "pitch": 54, "duration": 35, "velocity": 75}, {"time": 165490, "pitch": 64, "duration": 94, "velocity": 74}, {"time": 165490, "pitch": 69, "duration": 38, "velocity": 88}, {"time": 165600, "pitch": 64, "duration": 133, "velocity": 98}, {"time": 165600, "pitch": 69, "duration": 37, "velocity": 82}, {"time": 165601, "pitch": 54, "duration": 61, "velocity": 81}, {"time": 165730, "pitch": 54, "duration": 33, "velocity": 72}, {"time": 165730, "pitch": 63, "duration": 80, "velocity": 115}, {"time": 165730, "pitch": 69, "duration": 31, "velocity": 86}, {"time": 165839, "pitch": 54, "duration": 81, "velocity": 94}, {"time": 165839, "pitch": 62, "duration": 69, "velocity": 119}, {"time": 165839, "pitch": 69, "duration": 31, "velocity": 83}, {"time": 165969, "pitch": 54, "duration": 35, "velocity": 74}, {"time": 166079, "pitch": 54, "duration": 53, "velocity": 79}, {"time": 166079, "pitch": 63, "duration": 78, "velocity": 112}, {"time": 166079, "pitch": 70, "duration": 64, "velocity": 91}, {"time": 166208, "pitch": 54, "duration": 35, "velocity": 83}, {"time": 166318, "pitch": 54, "duration": 80, "velocity": 103}, {"time": 166318, "pitch": 64, "duration": 31, "velocity": 99}, {"time": 166318, "pitch": 69, "duration": 33, "velocity": 80}, {"time": 166447, "pitch": 54, "duration": 31, "velocity": 77}, {"time": 166447, "pitch": 64, "duration": 197, "velocity": 108}, {"time": 166447, "pitch": 69, "duration": 43, "velocity": 77}, {"time": 166557, "pitch": 54, "duration": 39, "velocity": 66}, {"time": 166557, "pitch": 69, "duration": 37, "velocity": 77}, {"time": 166689, "pitch": 54, "duration": 36, "velocity": 86}, {"time": 166689, "pitch": 63, "duration": 87, "velocity": 92}, {"time": 166689, "pitch": 69, "duration": 48, "velocity": 89}, {"time": 166801, "pitch": 62, "duration": 99, "velocity": 125}, {"time": 166801, "pitch": 69, "duration": 60, "velocity": 83}, {"time": 166802, "pitch": 54, "duration": 83, "velocity": 107}, {"time": 166933, "pitch": 54, "duration": 35, "velocity": 73}, {"time": 167045, "pitch": 63, "duration": 85, "velocity": 117}, {"time": 167045, "pitch": 70, "duration": 64, "velocity": 88}, {"time": 167046, "pitch": 54, "duration": 44, "velocity": 52}, {"time": 167175, "pitch": 54, "duration": 33, "velocity": 82}, {"time": 167284, "pitch": 54, "duration": 81, "velocity": 100}, {"time": 167284, "pitch": 64, "duration": 29, "velocity": 99}, {"time": 167284, "pitch": 69, "duration": 37, "velocity": 84}, {"time": 167414, "pitch": 54, "duration": 33, "velocity": 73}, {"time": 167414, "pitch": 69, "duration": 35, "velocity": 73}, {"time": 167524, "pitch": 54, "duration": 48, "velocity": 74}, {"time": 167524, "pitch": 64, "duration": 90, "velocity": 33}, {"time": 167524, "pitch": 69, "duration": 42, "velocity": 72}, {"time": 167653, "pitch": 54, "duration": 47, "velocity": 88}, {"time": 167653, "pitch": 63, "duration": 87, "velocity": 117}, {"time": 167653, "pitch": 69, "duration": 40, "velocity": 91}, {"time": 167763, "pitch": 54, "duration": 81, "velocity": 112}, {"time": 167764, "pitch": 62, "duration": 90, "velocity": 124}, {"time": 167764, "pitch": 69, "duration": 56, "velocity": 86}, {"time": 167893, "pitch": 54, "duration": 32, "velocity": 66}, {"time": 168002, "pitch": 54, "duration": 45, "velocity": 53}, {"time": 168002, "pitch": 63, "duration": 79, "velocity": 124}, {"time": 168002, "pitch": 70, "duration": 70, "velocity": 89}, {"time": 168132, "pitch": 54, "duration": 42, "velocity": 73}, {"time": 168132, "pitch": 64, "duration": 28, "velocity": 117}, {"time": 168242, "pitch": 54, "duration": 71, "velocity": 112}, {"time": 168242, "pitch": 63, "duration": 28, "velocity": 88}, {"time": 168242, "pitch": 69, "duration": 39, "velocity": 86}, {"time": 168371, "pitch": 54, "duration": 30, "velocity": 83}, {"time": 168371, "pitch": 63, "duration": 88, "velocity": 125}, {"time": 168371, "pitch": 69, "duration": 33, "velocity": 77}, {"time": 168481, "pitch": 54, "duration": 43, "velocity": 84}, {"time": 168481, "pitch": 69, "duration": 45, "velocity": 84}, {"time": 168610, "pitch": 54, "duration": 42, "velocity": 88}, {"time": 168610, "pitch": 63, "duration": 60, "velocity": 115}, {"time": 168610, "pitch": 69, "duration": 30, "velocity": 81}, {"time": 168720, "pitch": 54, "duration": 81, "velocity": 110}, {"time": 168720, "pitch": 62, "duration": 123, "velocity": 125}, {"time": 168720, "pitch": 69, "duration": 92, "velocity": 94}, {"time": 168850, "pitch": 54, "duration": 38, "velocity": 67}, {"time": 168959, "pitch": 54, "duration": 52, "velocity": 58}, {"time": 168959, "pitch": 63, "duration": 64, "velocity": 117}, {"time": 168959, "pitch": 70, "duration": 81, "velocity": 91}, {"time": 169089, "pitch": 54, "duration": 39, "velocity": 76}, {"time": 169199, "pitch": 54, "duration": 80, "velocity": 107}, {"time": 169199, "pitch": 64, "duration": 27, "velocity": 115}, {"time": 169199, "pitch": 69, "duration": 35, "velocity": 82}, {"time": 169328, "pitch": 54, "duration": 35, "velocity": 75}, {"time": 169328, "pitch": 64, "duration": 100, "velocity": 110}, {"time": 169328, "pitch": 69, "duration": 38, "velocity": 88}, {"time": 169438, "pitch": 69, "duration": 37, "velocity": 82}, {"time": 169439, "pitch": 54, "duration": 61, "velocity": 81}, {"time": 169439, "pitch": 64, "duration": 131, "velocity": 125}, {"time": 169568, "pitch": 54, "duration": 32, "velocity": 72}, {"time": 169568, "pitch": 63, "duration": 82, "velocity": 115}, {"time": 169568, "pitch": 69, "duration": 30, "velocity": 86}, {"time": 169677, "pitch": 54, "duration": 81, "velocity": 94}, {"time": 169677, "pitch": 62, "duration": 83, "velocity": 115}, {"time": 169677, "pitch": 69, "duration": 31, "velocity": 83}, {"time": 169807, "pitch": 54, "duration": 35, "velocity": 74}, {"time": 169916, "pitch": 54, "duration": 55, "velocity": 79}, {"time": 169916, "pitch": 63, "duration": 104, "velocity": 115}, {"time": 169916, "pitch": 70, "duration": 67, "velocity": 91}, {"time": 170049, "pitch": 54, "duration": 35, "velocity": 83}, {"time": 170160, "pitch": 54, "duration": 82, "velocity": 103}, {"time": 170160, "pitch": 64, "duration": 45, "velocity": 58}, {"time": 170160, "pitch": 69, "duration": 34, "velocity": 80}, {"time": 170293, "pitch": 54, "duration": 31, "velocity": 77}, {"time": 170293, "pitch": 64, "duration": 256, "velocity": 125}, {"time": 170293, "pitch": 69, "duration": 43, "velocity": 77}, {"time": 170404, "pitch": 54, "duration": 38, "velocity": 66}, {"time": 170404, "pitch": 69, "duration": 36, "velocity": 77}, {"time": 170534, "pitch": 54, "duration": 35, "velocity": 86}, {"time": 170534, "pitch": 63, "duration": 122, "velocity": 101}, {"time": 170534, "pitch": 69, "duration": 47, "velocity": 89}, {"time": 170644, "pitch": 69, "duration": 59, "velocity": 83}, {"time": 170645, "pitch": 54, "duration": 81, "velocity": 107}, {"time": 170645, "pitch": 62, "duration": 56, "velocity": 125}, {"time": 170773, "pitch": 54, "duration": 34, "velocity": 73}, {"time": 170883, "pitch": 70, "duration": 64, "velocity": 88}, {"time": 170884, "pitch": 54, "duration": 44, "velocity": 52}, {"time": 170884, "pitch": 63, "duration": 79, "velocity": 115}, {"time": 171013, "pitch": 54, "duration": 33, "velocity": 82}, {"time": 171122, "pitch": 54, "duration": 81, "velocity": 100}, {"time": 171122, "pitch": 64, "duration": 26, "velocity": 105}, {"time": 171122, "pitch": 69, "duration": 37, "velocity": 84}, {"time": 171252, "pitch": 54, "duration": 33, "velocity": 73}, {"time": 171252, "pitch": 64, "duration": 227, "velocity": 112}, {"time": 171252, "pitch": 69, "duration": 35, "velocity": 73}, {"time": 171362, "pitch": 54, "duration": 47, "velocity": 74}, {"time": 171362, "pitch": 69, "duration": 41, "velocity": 72}, {"time": 171491, "pitch": 54, "duration": 47, "velocity": 88}, {"time": 171491, "pitch": 63, "duration": 110, "velocity": 98}, {"time": 171491, "pitch": 69, "duration": 40, "velocity": 91}, {"time": 171601, "pitch": 54, "duration": 81, "velocity": 112}, {"time": 171601, "pitch": 62, "duration": 71, "velocity": 119}, {"time": 171602, "pitch": 69, "duration": 56, "velocity": 86}, {"time": 171730, "pitch": 54, "duration": 33, "velocity": 66}, {"time": 171840, "pitch": 54, "duration": 45, "velocity": 53}, {"time": 171840, "pitch": 63, "duration": 96, "velocity": 110}, {"time": 171840, "pitch": 70, "duration": 70, "velocity": 89}, {"time": 171970, "pitch": 54, "duration": 42, "velocity": 73}, {"time": 172079, "pitch": 54, "duration": 72, "velocity": 112}, {"time": 172079, "pitch": 64, "duration": 33, "velocity": 105}, {"time": 172079, "pitch": 69, "duration": 40, "velocity": 86}, {"time": 172209, "pitch": 54, "duration": 30, "velocity": 83}, {"time": 172209, "pitch": 64, "duration": 228, "velocity": 115}, {"time": 172209, "pitch": 69, "duration": 33, "velocity": 77}, {"time": 172319, "pitch": 54, "duration": 43, "velocity": 84}, {"time": 172319, "pitch": 69, "duration": 45, "velocity": 84}, {"time": 172448, "pitch": 54, "duration": 42, "velocity": 88}, {"time": 172448, "pitch": 63, "duration": 113, "velocity": 97}, {"time": 172448, "pitch": 69, "duration": 30, "velocity": 81}, {"time": 172558, "pitch": 54, "duration": 81, "velocity": 110}, {"time": 172558, "pitch": 62, "duration": 64, "velocity": 124}, {"time": 172558, "pitch": 69, "duration": 92, "velocity": 94}, {"time": 172688, "pitch": 54, "duration": 38, "velocity": 67}, {"time": 172797, "pitch": 54, "duration": 53, "velocity": 58}, {"time": 172797, "pitch": 63, "duration": 88, "velocity": 115}, {"time": 172797, "pitch": 70, "duration": 83, "velocity": 91}, {"time": 172929, "pitch": 54, "duration": 40, "velocity": 76}, {"time": 172929, "pitch": 63, "duration": 28, "velocity": 99}, {"time": 173041, "pitch": 54, "duration": 83, "velocity": 107}, {"time": 173041, "pitch": 64, "duration": 49, "velocity": 58}, {"time": 173041, "pitch": 69, "duration": 36, "velocity": 82}, {"time": 173174, "pitch": 54, "duration": 35, "velocity": 75}, {"time": 173174, "pitch": 64, "duration": 95, "velocity": 74}, {"time": 173174, "pitch": 69, "duration": 38, "velocity": 88}, {"time": 173285, "pitch": 64, "duration": 133, "velocity": 98}, {"time": 173285, "pitch": 69, "duration": 37, "velocity": 82}, {"time": 173286, "pitch": 54, "duration": 61, "velocity": 81}, {"time": 173415, "pitch": 54, "duration": 33, "velocity": 72}, {"time": 173415, "pitch": 63, "duration": 81, "velocity": 115}, {"time": 173415, "pitch": 69, "duration": 31, "velocity": 86}, {"time": 173525, "pitch": 54, "duration": 80, "velocity": 94}, {"time": 173525, "pitch": 62, "duration": 68, "velocity": 119}, {"time": 173525, "pitch": 69, "duration": 30, "velocity": 83}, {"time": 173654, "pitch": 54, "duration": 35, "velocity": 74}, {"time": 173764, "pitch": 54, "duration": 54, "velocity": 79}, {"time": 173764, "pitch": 63, "duration": 79, "velocity": 112}, {"time": 173764, "pitch": 70, "duration": 65, "velocity": 91}, {"time": 173893, "pitch": 54, "duration": 35, "velocity": 83}, {"time": 174003, "pitch": 54, "duration": 80, "velocity": 103}, {"time": 174003, "pitch": 64, "duration": 31, "velocity": 99}, {"time": 174003, "pitch": 69, "duration": 33, "velocity": 80}, {"time": 174133, "pitch": 54, "duration": 31, "velocity": 77}, {"time": 174133, "pitch": 64, "duration": 194, "velocity": 108}, {"time": 174133, "pitch": 69, "duration": 43, "velocity": 77}, {"time": 174242, "pitch": 54, "duration": 38, "velocity": 66}, {"time": 174242, "pitch": 69, "duration": 36, "velocity": 77}, {"time": 174372, "pitch": 54, "duration": 35, "velocity": 86}, {"time": 174372, "pitch": 63, "duration": 85, "velocity": 92}, {"time": 174372, "pitch": 69, "duration": 47, "velocity": 89}, {"time": 174482, "pitch": 62, "duration": 96, "velocity": 125}, {"time": 174482, "pitch": 69, "duration": 58, "velocity": 83}, {"time": 174483, "pitch": 54, "duration": 80, "velocity": 107}, {"time": 174611, "pitch": 54, "duration": 34, "velocity": 73}, {"time": 174721, "pitch": 63, "duration": 85, "velocity": 117}, {"time": 174721, "pitch": 70, "duration": 64, "velocity": 88}, {"time": 174722, "pitch": 54, "duration": 44, "velocity": 52}, {"time": 174851, "pitch": 54, "duration": 32, "velocity": 82}, {"time": 174960, "pitch": 54, "duration": 81, "velocity": 100}, {"time": 174960, "pitch": 64, "duration": 29, "velocity": 99}, {"time": 174960, "pitch": 69, "duration": 37, "velocity": 84}, {"time": 175090, "pitch": 54, "duration": 33, "velocity": 73}, {"time": 175090, "pitch": 69, "duration": 35, "velocity": 73}, {"time": 177122, "pitch": 49, "duration": 1941, "velocity": 120}, {"time": 177123, "pitch": 51, "duration": 141, "velocity": 127}, {"time": 177123, "pitch": 69, "duration": 37, "velocity": 82}, {"time": 177124, "pitch": 54, "duration": 61, "velocity": 81}, {"time": 177124, "pitch": 64, "duration": 131, "velocity": 125}, {"time": 177253, "pitch": 54, "duration": 33, "velocity": 72}, {"time": 177253, "pitch": 63, "duration": 83, "velocity": 115}, {"time": 177253, "pitch": 69, "duration": 31, "velocity": 86}, {"time": 177362, "pitch": 54, "duration": 81, "velocity": 94}, {"time": 177362, "pitch": 62, "duration": 83, "velocity": 115}, {"time": 177362, "pitch": 69, "duration": 31, "velocity": 83}, {"time": 177363, "pitch": 51, "duration": 110, "velocity": 100}, {"time": 177492, "pitch": 54, "duration": 35, "velocity": 74}, {"time": 177602, "pitch": 51, "duration": 128, "velocity": 125}, {"time": 177602, "pitch": 54, "duration": 54, "velocity": 79}, {"time": 177602, "pitch": 63, "duration": 101, "velocity": 115}, {"time": 177602, "pitch": 70, "duration": 65, "velocity": 91}, {"time": 177731, "pitch": 54, "duration": 35, "velocity": 83}, {"time": 177841, "pitch": 51, "duration": 122, "velocity": 115}, {"time": 177841, "pitch": 54, "duration": 80, "velocity": 103}, {"time": 177841, "pitch": 64, "duration": 44, "velocity": 58}, {"time": 177841, "pitch": 69, "duration": 33, "velocity": 80}, {"time": 177971, "pitch": 54, "duration": 31, "velocity": 77}, {"time": 177971, "pitch": 64, "duration": 254, "velocity": 125}, {"time": 177971, "pitch": 69, "duration": 43, "velocity": 77}, {"time": 178080, "pitch": 51, "duration": 118, "velocity": 112}, {"time": 178080, "pitch": 54, "duration": 38, "velocity": 66}, {"time": 178080, "pitch": 69, "duration": 36, "velocity": 77}, {"time": 178210, "pitch": 54, "duration": 35, "velocity": 86}, {"time": 178210, "pitch": 63, "duration": 122, "velocity": 101}, {"time": 178210, "pitch": 69, "duration": 47, "velocity": 89}, {"time": 178320, "pitch": 51, "duration": 106, "velocity": 119}, {"time": 178320, "pitch": 69, "duration": 58, "velocity": 83}, {"time": 178321, "pitch": 54, "duration": 80, "velocity": 107}, {"time": 178321, "pitch": 62, "duration": 55, "velocity": 125}, {"time": 178449, "pitch": 54, "duration": 34, "velocity": 73}, {"time": 178559, "pitch": 51, "duration": 131, "velocity": 125}, {"time": 178559, "pitch": 70, "duration": 64, "velocity": 88}, {"time": 178560, "pitch": 54, "duration": 44, "velocity": 52}, {"time": 178560, "pitch": 63, "duration": 79, "velocity": 115}, {"time": 178688, "pitch": 54, "duration": 33, "velocity": 82}, {"time": 178798, "pitch": 51, "duration": 117, "velocity": 106}, {"time": 178798, "pitch": 54, "duration": 81, "velocity": 100}, {"time": 178798, "pitch": 64, "duration": 26, "velocity": 105}, {"time": 178798, "pitch": 69, "duration": 37, "velocity": 84}, {"time": 178928, "pitch": 54, "duration": 33, "velocity": 73}, {"time": 178928, "pitch": 64, "duration": 229, "velocity": 112}, {"time": 178928, "pitch": 69, "duration": 35, "velocity": 73}, {"time": 179037, "pitch": 51, "duration": 144, "velocity": 127}, {"time": 179037, "pitch": 54, "duration": 49, "velocity": 74}, {"time": 179037, "pitch": 69, "duration": 43, "velocity": 72}, {"time": 179170, "pitch": 54, "duration": 47, "velocity": 88}, {"time": 179170, "pitch": 63, "duration": 111, "velocity": 98}, {"time": 179170, "pitch": 69, "duration": 40, "velocity": 91}, {"time": 179281, "pitch": 54, "duration": 83, "velocity": 112}, {"time": 179281, "pitch": 62, "duration": 73, "velocity": 119}, {"time": 179282, "pitch": 51, "duration": 112, "velocity": 100}, {"time": 179282, "pitch": 69, "duration": 57, "velocity": 86}, {"time": 179414, "pitch": 54, "duration": 33, "velocity": 66}, {"time": 179525, "pitch": 51, "duration": 129, "velocity": 125}, {"time": 179525, "pitch": 54, "duration": 45, "velocity": 53}, {"time": 179525, "pitch": 63, "duration": 96, "velocity": 110}, {"time": 179525, "pitch": 70, "duration": 70, "velocity": 89}, {"time": 179655, "pitch": 54, "duration": 42, "velocity": 73}, {"time": 179765, "pitch": 51, "duration": 121, "velocity": 115}, {"time": 179765, "pitch": 54, "duration": 71, "velocity": 112}, {"time": 179765, "pitch": 64, "duration": 33, "velocity": 105}, {"time": 179765, "pitch": 69, "duration": 40, "velocity": 86}, {"time": 179894, "pitch": 54, "duration": 30, "velocity": 83}, {"time": 179894, "pitch": 64, "duration": 229, "velocity": 115}, {"time": 179894, "pitch": 69, "duration": 33, "velocity": 77}, {"time": 180004, "pitch": 51, "duration": 118, "velocity": 112}, {"time": 180004, "pitch": 54, "duration": 43, "velocity": 84}, {"time": 180004, "pitch": 69, "duration": 45, "velocity": 84}, {"time": 180134, "pitch": 54, "duration": 41, "velocity": 88}, {"time": 180134, "pitch": 63, "duration": 112, "velocity": 97}, {"time": 180134, "pitch": 69, "duration": 30, "velocity": 81}, {"time": 180243, "pitch": 51, "duration": 107, "velocity": 119}, {"time": 180243, "pitch": 54, "duration": 81, "velocity": 110}, {"time": 180243, "pitch": 62, "duration": 64, "velocity": 124}, {"time": 180243, "pitch": 69, "duration": 92, "velocity": 94}, {"time": 180373, "pitch": 54, "duration": 38, "velocity": 67}, {"time": 180483, "pitch": 51, "duration": 131, "velocity": 125}, {"time": 180483, "pitch": 54, "duration": 51, "velocity": 58}, {"time": 180483, "pitch": 63, "duration": 85, "velocity": 115}, {"time": 180483, "pitch": 70, "duration": 80, "velocity": 91}, {"time": 180612, "pitch": 54, "duration": 39, "velocity": 76}, {"time": 180612, "pitch": 63, "duration": 27, "velocity": 99}, {"time": 180722, "pitch": 51, "duration": 116, "velocity": 106}, {"time": 180722, "pitch": 54, "duration": 81, "velocity": 107}, {"time": 180722, "pitch": 64, "duration": 48, "velocity": 58}, {"time": 180722, "pitch": 69, "duration": 35, "velocity": 82}, {"time": 180851, "pitch": 54, "duration": 35, "velocity": 75}, {"time": 180851, "pitch": 64, "duration": 94, "velocity": 74}, {"time": 180851, "pitch": 69, "duration": 38, "velocity": 88}, {"time": 180961, "pitch": 51, "duration": 141, "velocity": 127}, {"time": 180961, "pitch": 64, "duration": 133, "velocity": 98}, {"time": 180961, "pitch": 69, "duration": 37, "velocity": 82}, {"time": 180962, "pitch": 54, "duration": 61, "velocity": 81}, {"time": 181091, "pitch": 54, "duration": 33, "velocity": 72}, {"time": 181091, "pitch": 63, "duration": 80, "velocity": 115}, {"time": 181091, "pitch": 69, "duration": 31, "velocity": 86}, {"time": 181200, "pitch": 54, "duration": 81, "velocity": 94}, {"time": 181200, "pitch": 62, "duration": 69, "velocity": 119}, {"time": 181200, "pitch": 69, "duration": 31, "velocity": 83}, {"time": 181201, "pitch": 51, "duration": 110, "velocity": 100}, {"time": 181330, "pitch": 54, "duration": 35, "velocity": 74}, {"time": 181440, "pitch": 51, "duration": 128, "velocity": 125}, {"time": 181440, "pitch": 54, "duration": 54, "velocity": 79}, {"time": 181440, "pitch": 63, "duration": 78, "velocity": 112}, {"time": 181440, "pitch": 70, "duration": 64, "velocity": 91}, {"time": 181569, "pitch": 54, "duration": 35, "velocity": 83}, {"time": 181679, "pitch": 51, "duration": 122, "velocity": 115}, {"time": 181679, "pitch": 54, "duration": 80, "velocity": 103}, {"time": 181679, "pitch": 64, "duration": 31, "velocity": 99}, {"time": 181679, "pitch": 69, "duration": 33, "velocity": 80}, {"time": 181809, "pitch": 54, "duration": 30, "velocity": 77}, {"time": 181809, "pitch": 64, "duration": 194, "velocity": 108}, {"time": 181809, "pitch": 69, "duration": 42, "velocity": 77}, {"time": 181918, "pitch": 51, "duration": 118, "velocity": 112}, {"time": 181918, "pitch": 54, "duration": 38, "velocity": 66}, {"time": 181918, "pitch": 69, "duration": 36, "velocity": 77}, {"time": 182048, "pitch": 54, "duration": 35, "velocity": 86}, {"time": 182048, "pitch": 63, "duration": 85, "velocity": 92}, {"time": 182048, "pitch": 69, "duration": 47, "velocity": 89}, {"time": 182158, "pitch": 51, "duration": 106, "velocity": 119}, {"time": 182158, "pitch": 62, "duration": 96, "velocity": 125}, {"time": 182158, "pitch": 69, "duration": 58, "velocity": 83}, {"time": 182159, "pitch": 54, "duration": 80, "velocity": 107}, {"time": 182287, "pitch": 54, "duration": 34, "velocity": 73}, {"time": 182397, "pitch": 51, "duration": 134, "velocity": 125}, {"time": 182397, "pitch": 63, "duration": 86, "velocity": 117}, {"time": 182397, "pitch": 70, "duration": 65, "velocity": 88}, {"time": 182398, "pitch": 54, "duration": 45, "velocity": 52}, {"time": 182529, "pitch": 54, "duration": 34, "velocity": 82}, {"time": 182641, "pitch": 51, "duration": 119, "velocity": 106}, {"time": 182641, "pitch": 54, "duration": 82, "velocity": 100}, {"time": 182641, "pitch": 64, "duration": 29, "velocity": 99}, {"time": 182641, "pitch": 69, "duration": 37, "velocity": 84}, {"time": 182773, "pitch": 54, "duration": 34, "velocity": 73}, {"time": 182773, "pitch": 69, "duration": 36, "velocity": 73}, {"time": 182885, "pitch": 51, "duration": 140, "velocity": 127}, {"time": 182885, "pitch": 54, "duration": 48, "velocity": 74}, {"time": 182885, "pitch": 64, "duration": 91, "velocity": 33}, {"time": 182885, "pitch": 69, "duration": 42, "velocity": 72}, {"time": 183014, "pitch": 54, "duration": 47, "velocity": 88}, {"time": 183014, "pitch": 63, "duration": 87, "velocity": 117}, {"time": 183014, "pitch": 69, "duration": 40, "velocity": 91}, {"time": 183124, "pitch": 54, "duration": 81, "velocity": 112}, {"time": 183125, "pitch": 51, "duration": 110, "velocity": 100}, {"time": 183125, "pitch": 62, "duration": 90, "velocity": 124}, {"time": 183125, "pitch": 69, "duration": 56, "velocity": 86}, {"time": 183254, "pitch": 54, "duration": 33, "velocity": 66}, {"time": 183363, "pitch": 51, "duration": 129, "velocity": 125}, {"time": 183363, "pitch": 54, "duration": 45, "velocity": 53}, {"time": 183363, "pitch": 63, "duration": 79, "velocity": 124}, {"time": 183363, "pitch": 70, "duration": 70, "velocity": 89}, {"time": 183493, "pitch": 54, "duration": 42, "velocity": 73}, {"time": 183493, "pitch": 64, "duration": 28, "velocity": 117}, {"time": 183603, "pitch": 51, "duration": 121, "velocity": 115}, {"time": 183603, "pitch": 54, "duration": 71, "velocity": 112}, {"time": 183603, "pitch": 63, "duration": 29, "velocity": 88}, {"time": 183603, "pitch": 69, "duration": 40, "velocity": 86}, {"time": 183732, "pitch": 54, "duration": 30, "velocity": 83}, {"time": 183732, "pitch": 63, "duration": 88, "velocity": 125}, {"time": 183732, "pitch": 69, "duration": 33, "velocity": 77}, {"time": 183842, "pitch": 51, "duration": 118, "velocity": 112}, {"time": 183842, "pitch": 54, "duration": 43, "velocity": 84}, {"time": 183842, "pitch": 69, "duration": 45, "velocity": 84}, {"time": 183972, "pitch": 54, "duration": 41, "velocity": 88}, {"time": 183972, "pitch": 63, "duration": 59, "velocity": 115}, {"time": 183972, "pitch": 69, "duration": 29, "velocity": 81}, {"time": 184081, "pitch": 51, "duration": 107, "velocity": 119}, {"time": 184081, "pitch": 54, "duration": 81, "velocity": 110}, {"time": 184081, "pitch": 62, "duration": 123, "velocity": 125}, {"time": 184081, "pitch": 69, "duration": 92, "velocity": 94}, {"time": 184211, "pitch": 54, "duration": 38, "velocity": 67}, {"time": 184320, "pitch": 51, "duration": 132, "velocity": 125}, {"time": 184320, "pitch": 54, "duration": 52, "velocity": 58}, {"time": 184320, "pitch": 63, "duration": 64, "velocity": 117}, {"time": 184320, "pitch": 70, "duration": 81, "velocity": 91}, {"time": 184450, "pitch": 54, "duration": 39, "velocity": 76}, {"time": 184560, "pitch": 51, "duration": 116, "velocity": 106}, {"time": 184560, "pitch": 54, "duration": 81, "velocity": 107}, {"time": 184560, "pitch": 64, "duration": 27, "velocity": 115}, {"time": 184560, "pitch": 69, "duration": 35, "velocity": 82}, {"time": 184689, "pitch": 54, "duration": 35, "velocity": 75}, {"time": 184689, "pitch": 64, "duration": 100, "velocity": 110}, {"time": 184689, "pitch": 69, "duration": 38, "velocity": 88}, {"time": 184798, "pitch": 49, "duration": 1950, "velocity": 120}, {"time": 184799, "pitch": 51, "duration": 141, "velocity": 127}, {"time": 184799, "pitch": 69, "duration": 37, "velocity": 82}, {"time": 184800, "pitch": 54, "duration": 61, "velocity": 81}, {"time": 184800, "pitch": 64, "duration": 131, "velocity": 125}, {"time": 184929, "pitch": 54, "duration": 33, "velocity": 72}, {"time": 184929, "pitch": 63, "duration": 82, "velocity": 115}, {"time": 184929, "pitch": 69, "duration": 31, "velocity": 86}, {"time": 185038, "pitch": 54, "duration": 81, "velocity": 94}, {"time": 185038, "pitch": 62, "duration": 83, "velocity": 115}, {"time": 185038, "pitch": 69, "duration": 31, "velocity": 83}, {"time": 185039, "pitch": 51, "duration": 110, "velocity": 100}, {"time": 185168, "pitch": 54, "duration": 35, "velocity": 74}, {"time": 185278, "pitch": 51, "duration": 131, "velocity": 125}, {"time": 185278, "pitch": 54, "duration": 54, "velocity": 79}, {"time": 185278, "pitch": 63, "duration": 103, "velocity": 115}, {"time": 185278, "pitch": 70, "duration": 66, "velocity": 91}, {"time": 185410, "pitch": 54, "duration": 35, "velocity": 83}, {"time": 185522, "pitch": 51, "duration": 124, "velocity": 115}, {"time": 185522, "pitch": 54, "duration": 81, "velocity": 103}, {"time": 185522, "pitch": 64, "duration": 44, "velocity": 58}, {"time": 185522, "pitch": 69, "duration": 33, "velocity": 80}, {"time": 185654, "pitch": 54, "duration": 31, "velocity": 77}, {"time": 185654, "pitch": 64, "duration": 256, "velocity": 125}, {"time": 185654, "pitch": 69, "duration": 44, "velocity": 77}, {"time": 185766, "pitch": 51, "duration": 117, "velocity": 112}, {"time": 185766, "pitch": 54, "duration": 37, "velocity": 66}, {"time": 185766, "pitch": 69, "duration": 35, "velocity": 77}, {"time": 185895, "pitch": 54, "duration": 35, "velocity": 86}, {"time": 185895, "pitch": 63, "duration": 122, "velocity": 101}, {"time": 185895, "pitch": 69, "duration": 47, "velocity": 89}, {"time": 186005, "pitch": 51, "duration": 107, "velocity": 119}, {"time": 186005, "pitch": 69, "duration": 59, "velocity": 83}, {"time": 186006, "pitch": 54, "duration": 81, "velocity": 107}, {"time": 186006, "pitch": 62, "duration": 56, "velocity": 125}, {"time": 186134, "pitch": 54, "duration": 34, "velocity": 73}, {"time": 186244, "pitch": 51, "duration": 132, "velocity": 125}, {"time": 186244, "pitch": 70, "duration": 64, "velocity": 88}, {"time": 186245, "pitch": 54, "duration": 44, "velocity": 52}, {"time": 186245, "pitch": 63, "duration": 79, "velocity": 115}, {"time": 186374, "pitch": 54, "duration": 33, "velocity": 82}, {"time": 186483, "pitch": 51, "duration": 117, "velocity": 106}, {"time": 186483, "pitch": 54, "duration": 81, "velocity": 100}, {"time": 186483, "pitch": 64, "duration": 26, "velocity": 105}, {"time": 186483, "pitch": 69, "duration": 37, "velocity": 84}, {"time": 186613, "pitch": 54, "duration": 33, "velocity": 73}, {"time": 186613, "pitch": 64, "duration": 227, "velocity": 112}, {"time": 186613, "pitch": 69, "duration": 35, "velocity": 73}, {"time": 186723, "pitch": 51, "duration": 140, "velocity": 127}, {"time": 186723, "pitch": 54, "duration": 48, "velocity": 74}, {"time": 186723, "pitch": 69, "duration": 42, "velocity": 72}, {"time": 186852, "pitch": 54, "duration": 47, "velocity": 88}, {"time": 186852, "pitch": 63, "duration": 110, "velocity": 98}, {"time": 186852, "pitch": 69, "duration": 40, "velocity": 91}, {"time": 186962, "pitch": 54, "duration": 81, "velocity": 112}, {"time": 186962, "pitch": 62, "duration": 71, "velocity": 119}, {"time": 186963, "pitch": 51, "duration": 110, "velocity": 100}, {"time": 186963, "pitch": 69, "duration": 56, "velocity": 86}, {"time": 187092, "pitch": 54, "duration": 32, "velocity": 66}, {"time": 187201, "pitch": 51, "duration": 129, "velocity": 125}, {"time": 187201, "pitch": 54, "duration": 45, "velocity": 53}, {"time": 187201, "pitch": 63, "duration": 96, "velocity": 110}, {"time": 187201, "pitch": 70, "duration": 70, "velocity": 89}, {"time": 187331, "pitch": 54, "duration": 42, "velocity": 73}, {"time": 187441, "pitch": 51, "duration": 121, "velocity": 115}, {"time": 187441, "pitch": 54, "duration": 71, "velocity": 112}, {"time": 187441, "pitch": 64, "duration": 32, "velocity": 105}, {"time": 187441, "pitch": 69, "duration": 39, "velocity": 86}, {"time": 187570, "pitch": 54, "duration": 30, "velocity": 83}, {"time": 187570, "pitch": 64, "duration": 228, "velocity": 115}, {"time": 187570, "pitch": 69, "duration": 33, "velocity": 77}, {"time": 187680, "pitch": 51, "duration": 117, "velocity": 112}, {"time": 187680, "pitch": 54, "duration": 43, "velocity": 84}, {"time": 187680, "pitch": 69, "duration": 45, "velocity": 84}, {"time": 187809, "pitch": 54, "duration": 42, "velocity": 88}, {"time": 187809, "pitch": 63, "duration": 113, "velocity": 97}, {"time": 187809, "pitch": 69, "duration": 30, "velocity": 81}, {"time": 187919, "pitch": 51, "duration": 107, "velocity": 119}, {"time": 187919, "pitch": 54, "duration": 81, "velocity": 110}, {"time": 187919, "pitch": 62, "duration": 64, "velocity": 124}, {"time": 187919, "pitch": 69, "duration": 92, "velocity": 94}, {"time": 188049, "pitch": 54, "duration": 38, "velocity": 67}, {"time": 188158, "pitch": 51, "duration": 132, "velocity": 125}, {"time": 188158, "pitch": 54, "duration": 52, "velocity": 58}, {"time": 188158, "pitch": 63, "duration": 86, "velocity": 115}, {"time": 188158, "pitch": 70, "duration": 81, "velocity": 91}, {"time": 188288, "pitch": 54, "duration": 39, "velocity": 76}, {"time": 188288, "pitch": 63, "duration": 27, "velocity": 99}, {"time": 188398, "pitch": 51, "duration": 116, "velocity": 106}, {"time": 188398, "pitch": 54, "duration": 80, "velocity": 107}, {"time": 188398, "pitch": 64, "duration": 48, "velocity": 58}, {"time": 188398, "pitch": 69, "duration": 35, "velocity": 82}, {"time": 188527, "pitch": 54, "duration": 35, "velocity": 75}, {"time": 188527, "pitch": 64, "duration": 94, "velocity": 74}, {"time": 188527, "pitch": 69, "duration": 38, "velocity": 88}, {"time": 188637, "pitch": 51, "duration": 143, "velocity": 127}, {"time": 188637, "pitch": 64, "duration": 135, "velocity": 98}, {"time": 188637, "pitch": 69, "duration": 38, "velocity": 82}, {"time": 188638, "pitch": 54, "duration": 62, "velocity": 81}, {"time": 188769, "pitch": 54, "duration": 34, "velocity": 72}, {"time": 188769, "pitch": 63, "duration": 82, "velocity": 115}, {"time": 188769, "pitch": 69, "duration": 32, "velocity": 86}, {"time": 188881, "pitch": 54, "duration": 82, "velocity": 94}, {"time": 188881, "pitch": 62, "duration": 70, "velocity": 119}, {"time": 188881, "pitch": 69, "duration": 31, "velocity": 83}, {"time": 188882, "pitch": 51, "duration": 112, "velocity": 100}, {"time": 189013, "pitch": 54, "duration": 36, "velocity": 74}, {"time": 189125, "pitch": 51, "duration": 129, "velocity": 125}, {"time": 189125, "pitch": 54, "duration": 54, "velocity": 79}, {"time": 189125, "pitch": 63, "duration": 79, "velocity": 112}, {"time": 189125, "pitch": 70, "duration": 65, "velocity": 91}, {"time": 189255, "pitch": 54, "duration": 34, "velocity": 83}, {"time": 189364, "pitch": 51, "duration": 122, "velocity": 115}, {"time": 189364, "pitch": 54, "duration": 80, "velocity": 103}, {"time": 189364, "pitch": 64, "duration": 31, "velocity": 99}, {"time": 189364, "pitch": 69, "duration": 33, "velocity": 80}, {"time": 189494, "pitch": 54, "duration": 31, "velocity": 77}, {"time": 189494, "pitch": 64, "duration": 194, "velocity": 108}, {"time": 189494, "pitch": 69, "duration": 43, "velocity": 77}, {"time": 189603, "pitch": 51, "duration": 118, "velocity": 112}, {"time": 189603, "pitch": 54, "duration": 38, "velocity": 66}, {"time": 189603, "pitch": 69, "duration": 36, "velocity": 77}, {"time": 189733, "pitch": 54, "duration": 35, "velocity": 86}, {"time": 189733, "pitch": 63, "duration": 85, "velocity": 92}, {"time": 189733, "pitch": 69, "duration": 47, "velocity": 89}, {"time": 189843, "pitch": 51, "duration": 106, "velocity": 119}, {"time": 189843, "pitch": 62, "duration": 96, "velocity": 125}, {"time": 189843, "pitch": 69, "duration": 59, "velocity": 83}, {"time": 189844, "pitch": 54, "duration": 81, "velocity": 107}, {"time": 189972, "pitch": 54, "duration": 34, "velocity": 73}, {"time": 190082, "pitch": 51, "duration": 132, "velocity": 125}, {"time": 190082, "pitch": 63, "duration": 85, "velocity": 117}, {"time": 190082, "pitch": 70, "duration": 64, "velocity": 88}, {"time": 190083, "pitch": 54, "duration": 44, "velocity": 52}, {"time": 190212, "pitch": 54, "duration": 33, "velocity": 82}, {"time": 190321, "pitch": 51, "duration": 117, "velocity": 106}, {"time": 190321, "pitch": 54, "duration": 81, "velocity": 100}, {"time": 190321, "pitch": 64, "duration": 29, "velocity": 99}, {"time": 190321, "pitch": 69, "duration": 37, "velocity": 84}, {"time": 190451, "pitch": 54, "duration": 33, "velocity": 73}, {"time": 190451, "pitch": 69, "duration": 35, "velocity": 73}, {"time": 190560, "pitch": 49, "duration": 1693, "velocity": 120}, {"time": 190561, "pitch": 54, "duration": 47, "velocity": 74}, {"time": 190561, "pitch": 64, "duration": 90, "velocity": 33}, {"time": 190561, "pitch": 69, "duration": 41, "velocity": 72}, {"time": 190690, "pitch": 54, "duration": 47, "velocity": 88}, {"time": 190690, "pitch": 63, "duration": 87, "velocity": 117}, {"time": 190690, "pitch": 69, "duration": 40, "velocity": 91}, {"time": 190800, "pitch": 54, "duration": 81, "velocity": 112}, {"time": 190801, "pitch": 62, "duration": 90, "velocity": 124}, {"time": 190801, "pitch": 69, "duration": 56, "velocity": 86}, {"time": 190930, "pitch": 54, "duration": 32, "velocity": 66}, {"time": 191039, "pitch": 54, "duration": 45, "velocity": 53}, {"time": 191039, "pitch": 63, "duration": 79, "velocity": 124}, {"time": 191039, "pitch": 70, "duration": 70, "velocity": 89}, {"time": 191169, "pitch": 54, "duration": 42, "velocity": 73}, {"time": 191169, "pitch": 64, "duration": 28, "velocity": 117}, {"time": 191278, "pitch": 54, "duration": 72, "velocity": 112}, {"time": 191278, "pitch": 63, "duration": 29, "velocity": 88}, {"time": 191278, "pitch": 69, "duration": 40, "velocity": 86}, {"time": 191408, "pitch": 54, "duration": 30, "velocity": 83}, {"time": 191408, "pitch": 63, "duration": 88, "velocity": 125}, {"time": 191408, "pitch": 69, "duration": 33, "velocity": 77}, {"time": 191518, "pitch": 54, "duration": 43, "velocity": 84}, {"time": 191518, "pitch": 69, "duration": 45, "velocity": 84}, {"time": 191647, "pitch": 54, "duration": 42, "velocity": 88}, {"time": 191647, "pitch": 63, "duration": 60, "velocity": 115}, {"time": 191647, "pitch": 69, "duration": 30, "velocity": 81}, {"time": 191757, "pitch": 54, "duration": 81, "velocity": 110}, {"time": 191757, "pitch": 62, "duration": 123, "velocity": 125}, {"time": 191757, "pitch": 69, "duration": 92, "velocity": 94}, {"time": 191887, "pitch": 54, "duration": 38, "velocity": 67}, {"time": 191996, "pitch": 54, "duration": 53, "velocity": 58}, {"time": 191996, "pitch": 63, "duration": 65, "velocity": 117}, {"time": 191996, "pitch": 70, "duration": 83, "velocity": 91}, {"time": 192128, "pitch": 54, "duration": 40, "velocity": 76}, {"time": 192240, "pitch": 54, "duration": 83, "velocity": 107}, {"time": 192240, "pitch": 64, "duration": 28, "velocity": 115}, {"time": 192240, "pitch": 69, "duration": 36, "velocity": 82}, {"time": 192373, "pitch": 54, "duration": 35, "velocity": 75}, {"time": 192373, "pitch": 64, "duration": 101, "velocity": 110}, {"time": 192373, "pitch": 69, "duration": 38, "velocity": 88}, {"time": 192484, "pitch": 49, "duration": 1003, "velocity": 94}, {"time": 192484, "pitch": 69, "duration": 37, "velocity": 82}, {"time": 192485, "pitch": 54, "duration": 61, "velocity": 81}, {"time": 192485, "pitch": 64, "duration": 131, "velocity": 125}, {"time": 192614, "pitch": 54, "duration": 33, "velocity": 72}, {"time": 192614, "pitch": 63, "duration": 83, "velocity": 115}, {"time": 192614, "pitch": 69, "duration": 31, "velocity": 86}, {"time": 192724, "pitch": 54, "duration": 80, "velocity": 94}, {"time": 192724, "pitch": 62, "duration": 82, "velocity": 115}, {"time": 192724, "pitch": 69, "duration": 30, "velocity": 83}, {"time": 192853, "pitch": 54, "duration": 35, "velocity": 74}, {"time": 192963, "pitch": 54, "duration": 54, "velocity": 79}, {"time": 192963, "pitch": 63, "duration": 102, "velocity": 115}, {"time": 192963, "pitch": 70, "duration": 65, "velocity": 91}, {"time": 193092, "pitch": 54, "duration": 35, "velocity": 83}, {"time": 193202, "pitch": 54, "duration": 80, "velocity": 103}, {"time": 193202, "pitch": 64, "duration": 44, "velocity": 58}, {"time": 193202, "pitch": 69, "duration": 33, "velocity": 80}, {"time": 193332, "pitch": 54, "duration": 31, "velocity": 77}, {"time": 193332, "pitch": 64, "duration": 254, "velocity": 125}, {"time": 193332, "pitch": 69, "duration": 43, "velocity": 77}, {"time": 193441, "pitch": 54, "duration": 38, "velocity": 66}, {"time": 193441, "pitch": 69, "duration": 36, "velocity": 77}, {"time": 193571, "pitch": 54, "duration": 35, "velocity": 86}, {"time": 193571, "pitch": 63, "duration": 122, "velocity": 101}, {"time": 193571, "pitch": 69, "duration": 47, "velocity": 89}, {"time": 193681, "pitch": 69, "duration": 59, "velocity": 83}, {"time": 193682, "pitch": 54, "duration": 80, "velocity": 107}, {"time": 193682, "pitch": 62, "duration": 56, "velocity": 125}, {"time": 193810, "pitch": 54, "duration": 34, "velocity": 73}, {"time": 193920, "pitch": 70, "duration": 64, "velocity": 88}, {"time": 193921, "pitch": 54, "duration": 44, "velocity": 52}, {"time": 193921, "pitch": 63, "duration": 79, "velocity": 115}, {"time": 194050, "pitch": 54, "duration": 32, "velocity": 82}, {"time": 194159, "pitch": 54, "duration": 81, "velocity": 100}, {"time": 194159, "pitch": 64, "duration": 26, "velocity": 105}, {"time": 194159, "pitch": 69, "duration": 37, "velocity": 84}, {"time": 194289, "pitch": 54, "duration": 33, "velocity": 73}, {"time": 194289, "pitch": 64, "duration": 227, "velocity": 112}, {"time": 194289, "pitch": 69, "duration": 35, "velocity": 73}, {"time": 194399, "pitch": 54, "duration": 47, "velocity": 74}, {"time": 194399, "pitch": 69, "duration": 41, "velocity": 72}, {"time": 194400, "pitch": 49, "duration": 850, "velocity": 110}, {"time": 194528, "pitch": 54, "duration": 47, "velocity": 88}, {"time": 194528, "pitch": 63, "duration": 110, "velocity": 98}, {"time": 194528, "pitch": 69, "duration": 40, "velocity": 91}, {"time": 194638, "pitch": 54, "duration": 81, "velocity": 112}, {"time": 194638, "pitch": 62, "duration": 71, "velocity": 119}, {"time": 194639, "pitch": 69, "duration": 56, "velocity": 86}, {"time": 194767, "pitch": 54, "duration": 33, "velocity": 66}, {"time": 194877, "pitch": 54, "duration": 46, "velocity": 53}, {"time": 194877, "pitch": 63, "duration": 98, "velocity": 110}, {"time": 194877, "pitch": 70, "duration": 71, "velocity": 89}, {"time": 195009, "pitch": 54, "duration": 43, "velocity": 73}, {"time": 195121, "pitch": 54, "duration": 73, "velocity": 112}, {"time": 195121, "pitch": 64, "duration": 34, "velocity": 105}, {"time": 195121, "pitch": 69, "duration": 41, "velocity": 86}, {"time": 195253, "pitch": 54, "duration": 31, "velocity": 83}, {"time": 195253, "pitch": 64, "duration": 231, "velocity": 115}, {"time": 195253, "pitch": 69, "duration": 34, "velocity": 77}, {"time": 195365, "pitch": 54, "duration": 43, "velocity": 84}, {"time": 195365, "pitch": 69, "duration": 45, "velocity": 84}, {"time": 195495, "pitch": 54, "duration": 42, "velocity": 88}, {"time": 195495, "pitch": 63, "duration": 112, "velocity": 97}, {"time": 195495, "pitch": 69, "duration": 30, "velocity": 81}, {"time": 195604, "pitch": 54, "duration": 81, "velocity": 110}, {"time": 195604, "pitch": 62, "duration": 64, "velocity": 124}, {"time": 195604, "pitch": 69, "duration": 92, "velocity": 94}, {"time": 195734, "pitch": 54, "duration": 38, "velocity": 67}, {"time": 195844, "pitch": 54, "duration": 51, "velocity": 58}, {"time": 195844, "pitch": 63, "duration": 85, "velocity": 115}, {"time": 195844, "pitch": 70, "duration": 80, "velocity": 91}, {"time": 195973, "pitch": 54, "duration": 39, "velocity": 76}, {"time": 195973, "pitch": 63, "duration": 27, "velocity": 99}, {"time": 196083, "pitch": 54, "duration": 81, "velocity": 107}, {"time": 196083, "pitch": 64, "duration": 48, "velocity": 58}, {"time": 196083, "pitch": 69, "duration": 35, "velocity": 82}, {"time": 196213, "pitch": 54, "duration": 34, "velocity": 75}, {"time": 196213, "pitch": 64, "duration": 93, "velocity": 74}, {"time": 196213, "pitch": 69, "duration": 37, "velocity": 88}, {"time": 196322, "pitch": 49, "duration": 1340, "velocity": 91}, {"time": 196322, "pitch": 64, "duration": 133, "velocity": 98}, {"time": 196322, "pitch": 69, "duration": 37, "velocity": 82}, {"time": 196323, "pitch": 54, "duration": 61, "velocity": 81}, {"time": 196452, "pitch": 54, "duration": 33, "velocity": 72}, {"time": 196452, "pitch": 63, "duration": 81, "velocity": 115}, {"time": 196452, "pitch": 69, "duration": 31, "velocity": 86}, {"time": 196561, "pitch": 54, "duration": 81, "velocity": 94}, {"time": 196561, "pitch": 62, "duration": 69, "velocity": 119}, {"time": 196561, "pitch": 69, "duration": 31, "velocity": 83}, {"time": 196691, "pitch": 54, "duration": 35, "velocity": 74}, {"time": 196801, "pitch": 54, "duration": 54, "velocity": 79}, {"time": 196801, "pitch": 63, "duration": 79, "velocity": 112}, {"time": 196801, "pitch": 70, "duration": 65, "velocity": 91}, {"time": 196930, "pitch": 54, "duration": 35, "velocity": 83}, {"time": 197040, "pitch": 54, "duration": 80, "velocity": 103}, {"time": 197040, "pitch": 64, "duration": 31, "velocity": 99}, {"time": 197040, "pitch": 69, "duration": 33, "velocity": 80}, {"time": 197170, "pitch": 54, "duration": 31, "velocity": 77}, {"time": 197170, "pitch": 64, "duration": 194, "velocity": 108}, {"time": 197170, "pitch": 69, "duration": 43, "velocity": 77}, {"time": 197279, "pitch": 54, "duration": 38, "velocity": 66}, {"time": 197279, "pitch": 69, "duration": 36, "velocity": 77}, {"time": 197409, "pitch": 54, "duration": 35, "velocity": 86}, {"time": 197409, "pitch": 63, "duration": 85, "velocity": 92}, {"time": 197409, "pitch": 69, "duration": 47, "velocity": 89}, {"time": 197519, "pitch": 62, "duration": 96, "velocity": 125}, {"time": 197519, "pitch": 69, "duration": 58, "velocity": 83}, {"time": 197520, "pitch": 54, "duration": 80, "velocity": 107}, {"time": 197648, "pitch": 54, "duration": 34, "velocity": 73}, {"time": 197758, "pitch": 63, "duration": 85, "velocity": 117}, {"time": 197758, "pitch": 70, "duration": 64, "velocity": 88}, {"time": 197759, "pitch": 54, "duration": 44, "velocity": 52}, {"time": 197888, "pitch": 54, "duration": 32, "velocity": 82}, {"time": 197997, "pitch": 54, "duration": 81, "velocity": 100}, {"time": 197997, "pitch": 64, "duration": 29, "velocity": 99}, {"time": 197997, "pitch": 69, "duration": 37, "velocity": 84}, {"time": 198127, "pitch": 54, "duration": 33, "velocity": 73}, {"time": 198127, "pitch": 69, "duration": 35, "velocity": 73}, {"time": 198236, "pitch": 49, "duration": 1256, "velocity": 119}, {"time": 198236, "pitch": 54, "duration": 49, "velocity": 74}, {"time": 198236, "pitch": 64, "duration": 93, "velocity": 33}, {"time": 198236, "pitch": 69, "duration": 43, "velocity": 72}, {"time": 198369, "pitch": 54, "duration": 47, "velocity": 88}, {"time": 198369, "pitch": 63, "duration": 88, "velocity": 117}, {"time": 198369, "pitch": 69, "duration": 40, "velocity": 91}, {"time": 198480, "pitch": 54, "duration": 83, "velocity": 112}, {"time": 198481, "pitch": 62, "duration": 92, "velocity": 124}, {"time": 198481, "pitch": 69, "duration": 57, "velocity": 86}, {"time": 198613, "pitch": 54, "duration": 33, "velocity": 66}, {"time": 198724, "pitch": 54, "duration": 45, "velocity": 53}, {"time": 198724, "pitch": 63, "duration": 79, "velocity": 124}, {"time": 198724, "pitch": 70, "duration": 70, "velocity": 89}, {"time": 198854, "pitch": 54, "duration": 42, "velocity": 73}, {"time": 198854, "pitch": 64, "duration": 28, "velocity": 117}, {"time": 198964, "pitch": 54, "duration": 72, "velocity": 112}, {"time": 198964, "pitch": 63, "duration": 29, "velocity": 88}, {"time": 198964, "pitch": 69, "duration": 40, "velocity": 86}, {"time": 199093, "pitch": 54, "duration": 30, "velocity": 83}, {"time": 199093, "pitch": 63, "duration": 88, "velocity": 125}, {"time": 199093, "pitch": 69, "duration": 33, "velocity": 77}, {"time": 199203, "pitch": 54, "duration": 43, "velocity": 84}, {"time": 199203, "pitch": 69, "duration": 45, "velocity": 84}, {"time": 199333, "pitch": 54, "duration": 41, "velocity": 88}, {"time": 199333, "pitch": 63, "duration": 59, "velocity": 115}, {"time": 199333, "pitch": 69, "duration": 30, "velocity": 81}, {"time": 199442, "pitch": 54, "duration": 81, "velocity": 110}, {"time": 199442, "pitch": 62, "duration": 123, "velocity": 125}, {"time": 199442, "pitch": 69, "duration": 92, "velocity": 94}, {"time": 199572, "pitch": 54, "duration": 38, "velocity": 67}, {"time": 199682, "pitch": 54, "duration": 51, "velocity": 58}, {"time": 199682, "pitch": 63, "duration": 63, "velocity": 117}, {"time": 199682, "pitch": 70, "duration": 80, "velocity": 91}, {"time": 199811, "pitch": 54, "duration": 39, "velocity": 76}, {"time": 199921, "pitch": 54, "duration": 81, "velocity": 107}, {"time": 199921, "pitch": 64, "duration": 27, "velocity": 115}, {"time": 199921, "pitch": 69, "duration": 35, "velocity": 82}, {"time": 200050, "pitch": 54, "duration": 35, "velocity": 75}, {"time": 200050, "pitch": 64, "duration": 100, "velocity": 110}, {"time": 200050, "pitch": 69, "duration": 38, "velocity": 88}, {"time": 200160, "pitch": 49, "duration": 1030, "velocity": 83}, {"time": 200160, "pitch": 69, "duration": 37, "velocity": 82}, {"time": 200161, "pitch": 54, "duration": 61, "velocity": 81}, {"time": 200161, "pitch": 64, "duration": 131, "velocity": 125}, {"time": 200290, "pitch": 54, "duration": 33, "velocity": 72}, {"time": 200290, "pitch": 63, "duration": 82, "velocity": 115}, {"time": 200290, "pitch": 69, "duration": 31, "velocity": 86}, {"time": 200399, "pitch": 54, "duration": 81, "velocity": 94}, {"time": 200399, "pitch": 62, "duration": 83, "velocity": 115}, {"time": 200399, "pitch": 69, "duration": 31, "velocity": 83}, {"time": 200529, "pitch": 54, "duration": 35, "velocity": 74}, {"time": 200639, "pitch": 54, "duration": 54, "velocity": 79}, {"time": 200639, "pitch": 63, "duration": 101, "velocity": 115}, {"time": 200639, "pitch": 70, "duration": 65, "velocity": 91}, {"time": 200768, "pitch": 54, "duration": 35, "velocity": 83}, {"time": 200878, "pitch": 54, "duration": 80, "velocity": 103}, {"time": 200878, "pitch": 64, "duration": 44, "velocity": 58}, {"time": 200878, "pitch": 69, "duration": 33, "velocity": 80}, {"time": 201008, "pitch": 54, "duration": 30, "velocity": 77}, {"time": 201008, "pitch": 64, "duration": 257, "velocity": 125}, {"time": 201008, "pitch": 69, "duration": 42, "velocity": 77}, {"time": 201117, "pitch": 54, "duration": 39, "velocity": 66}, {"time": 201117, "pitch": 69, "duration": 37, "velocity": 77}, {"time": 201249, "pitch": 54, "duration": 36, "velocity": 86}, {"time": 201249, "pitch": 63, "duration": 124, "velocity": 101}, {"time": 201249, "pitch": 69, "duration": 48, "velocity": 89}, {"time": 201361, "pitch": 69, "duration": 60, "velocity": 83}, {"time": 201362, "pitch": 54, "duration": 83, "velocity": 107}, {"time": 201362, "pitch": 62, "duration": 57, "velocity": 125}, {"time": 201493, "pitch": 54, "duration": 35, "velocity": 73}, {"time": 201605, "pitch": 70, "duration": 64, "velocity": 88}, {"time": 201606, "pitch": 54, "duration": 44, "velocity": 52}, {"time": 201606, "pitch": 63, "duration": 79, "velocity": 115}, {"time": 201735, "pitch": 54, "duration": 33, "velocity": 82}, {"time": 201845, "pitch": 54, "duration": 80, "velocity": 100}, {"time": 201845, "pitch": 64, "duration": 25, "velocity": 105}, {"time": 201845, "pitch": 69, "duration": 36, "velocity": 84}, {"time": 201974, "pitch": 54, "duration": 33, "velocity": 73}, {"time": 201974, "pitch": 64, "duration": 227, "velocity": 112}, {"time": 201974, "pitch": 69, "duration": 35, "velocity": 73}, {"time": 202084, "pitch": 54, "duration": 48, "velocity": 74}, {"time": 202084, "pitch": 69, "duration": 42, "velocity": 72}, {"time": 202085, "pitch": 49, "duration": 1007, "velocity": 114}, {"time": 202213, "pitch": 54, "duration": 47, "velocity": 88}, {"time": 202213, "pitch": 63, "duration": 110, "velocity": 98}, {"time": 202213, "pitch": 69, "duration": 40, "velocity": 91}, {"time": 202323, "pitch": 54, "duration": 81, "velocity": 112}, {"time": 202323, "pitch": 62, "duration": 71, "velocity": 119}, {"time": 202324, "pitch": 69, "duration": 56, "velocity": 86}, {"time": 202453, "pitch": 54, "duration": 33, "velocity": 66}, {"time": 202562, "pitch": 54, "duration": 45, "velocity": 53}, {"time": 202562, "pitch": 63, "duration": 96, "velocity": 110}, {"time": 202562, "pitch": 70, "duration": 70, "velocity": 89}, {"time": 202692, "pitch": 54, "duration": 42, "velocity": 73}, {"time": 202802, "pitch": 54, "duration": 71, "velocity": 112}, {"time": 202802, "pitch": 64, "duration": 33, "velocity": 105}, {"time": 202802, "pitch": 69, "duration": 40, "velocity": 86}, {"time": 202931, "pitch": 54, "duration": 30, "velocity": 83}, {"time": 202931, "pitch": 64, "duration": 229, "velocity": 115}, {"time": 202931, "pitch": 69, "duration": 33, "velocity": 77}, {"time": 203041, "pitch": 54, "duration": 43, "velocity": 84}, {"time": 203041, "pitch": 69, "duration": 45, "velocity": 84}, {"time": 203171, "pitch": 54, "duration": 41, "velocity": 88}, {"time": 203171, "pitch": 63, "duration": 112, "velocity": 97}, {"time": 203171, "pitch": 69, "duration": 29, "velocity": 81}, {"time": 203280, "pitch": 54, "duration": 81, "velocity": 110}, {"time": 203280, "pitch": 62, "duration": 64, "velocity": 124}, {"time": 203280, "pitch": 69, "duration": 92, "velocity": 94}, {"time": 203410, "pitch": 54, "duration": 38, "velocity": 67}, {"time": 203519, "pitch": 54, "duration": 52, "velocity": 58}, {"time": 203519, "pitch": 63, "duration": 86, "velocity": 115}, {"time": 203519, "pitch": 70, "duration": 81, "velocity": 91}, {"time": 203649, "pitch": 54, "duration": 39, "velocity": 76}, {"time": 203649, "pitch": 63, "duration": 27, "velocity": 99}, {"time": 203759, "pitch": 54, "duration": 81, "velocity": 107}, {"time": 203759, "pitch": 64, "duration": 48, "velocity": 58}, {"time": 203759, "pitch": 69, "duration": 35, "velocity": 82}, {"time": 203888, "pitch": 54, "duration": 35, "velocity": 75}, {"time": 203888, "pitch": 64, "duration": 94, "velocity": 74}, {"time": 203888, "pitch": 69, "duration": 38, "velocity": 88}, {"time": 203998, "pitch": 49, "duration": 342, "velocity": 114}, {"time": 203998, "pitch": 64, "duration": 133, "velocity": 98}, {"time": 203998, "pitch": 69, "duration": 37, "velocity": 82}, {"time": 203999, "pitch": 54, "duration": 61, "velocity": 81}, {"time": 204128, "pitch": 54, "duration": 33, "velocity": 72}, {"time": 204128, "pitch": 63, "duration": 80, "velocity": 115}, {"time": 204128, "pitch": 69, "duration": 31, "velocity": 86}, {"time": 204237, "pitch": 54, "duration": 81, "velocity": 94}, {"time": 204237, "pitch": 62, "duration": 69, "velocity": 119}, {"time": 204237, "pitch": 69, "duration": 31, "velocity": 83}, {"time": 204367, "pitch": 49, "duration": 240, "velocity": 85}, {"time": 204367, "pitch": 54, "duration": 35, "velocity": 74}, {"time": 204477, "pitch": 54, "duration": 54, "velocity": 79}, {"time": 204477, "pitch": 63, "duration": 80, "velocity": 112}, {"time": 204477, "pitch": 70, "duration": 66, "velocity": 91}, {"time": 204609, "pitch": 54, "duration": 35, "velocity": 83}, {"time": 204721, "pitch": 49, "duration": 2643, "velocity": 127}, {"time": 204721, "pitch": 54, "duration": 81, "velocity": 103}, {"time": 204721, "pitch": 64, "duration": 31, "velocity": 99}, {"time": 204721, "pitch": 69, "duration": 33, "velocity": 80}, {"time": 204843, "pitch": 54, "duration": 81, "velocity": 103}, {"time": 204853, "pitch": 69, "duration": 44, "velocity": 77}], "annotations": [{"time": 219, "annotation": {"number": 0, "value": 0}, "group": "control_change"}, {"time": 241, "annotation": {"number": 32, "value": 0}, "group": "control_change"}, {"time": 285, "annotation": {"number": 7, "value": 72}, "group": "control_change"}, {"time": 307, "annotation": {"number": 11, "value": 127}, "group": "control_change"}, {"time": 329, "annotation": {"number": 91, "value": 40}, "group": "control_change"}, {"time": 350, "annotation": {"number": 101, "value": 127}, "group": "control_change"}, {"time": 372, "annotation": {"number": 100, "value": 127}, "group": "control_change"}]}, {"program": 0, "is_drum": false, "name": "SAMPLE DRUMS", "notes": [{"time": 484, "pitch": 36, "duration": 59, "velocity": 122}, {"time": 484, "pitch": 42, "duration": 59, "velocity": 107}, {"time": 723, "pitch": 42, "duration": 60, "velocity": 88}, {"time": 962, "pitch": 38, "duration": 60, "velocity": 127}, {"time": 962, "pitch": 46, "duration": 60, "velocity": 114}, {"time": 1321, "pitch": 38, "duration": 60, "velocity": 65}, {"time": 1321, "pitch": 42, "duration": 60, "velocity": 81}, {"time": 1560, "pitch": 38, "duration": 60, "velocity": 90}, {"time": 1560, "pitch": 42, "duration": 60, "velocity": 105}, {"time": 1680, "pitch": 46, "duration": 60, "velocity": 102}, {"time": 1919, "pitch": 38, "duration": 60, "velocity": 127}, {"time": 1919, "pitch": 46, "duration": 60, "velocity": 114}, {"time": 2159, "pitch": 36, "duration": 59, "velocity": 124}, {"time": 2159, "pitch": 42, "duration": 59, "velocity": 87}, {"time": 2398, "pitch": 42, "duration": 60, "velocity": 107}, {"time": 2637, "pitch": 42, "duration": 60, "velocity": 88}, {"time": 2876, "pitch": 38, "duration": 61, "velocity": 112}, {"time": 2876, "pitch": 46, "duration": 61, "velocity": 114}, {"time": 3243, "pitch": 38, "duration": 61, "velocity": 75}, {"time": 3243, "pitch": 42, "duration": 61, "velocity": 81}, {"time": 3484, "pitch": 38, "duration": 60, "velocity": 90}, {"time": 3484, "pitch": 42, "duration": 60, "velocity": 105}, {"time": 3604, "pitch": 36, "duration": 60, "velocity": 120}, {"time": 3604, "pitch": 46, "duration": 60, "velocity": 102}, {"time": 3843, "pitch": 38, "duration": 60, "velocity": 112}, {"time": 3843, "pitch": 46, "duration": 60, "velocity": 114}, {"time": 4082, "pitch": 42, "duration": 60, "velocity": 87}, {"time": 4322, "pitch": 36, "duration": 59, "velocity": 122}, {"time": 4322, "pitch": 42, "duration": 59, "velocity": 107}, {"time": 4561, "pitch": 42, "duration": 60, "velocity": 88}, {"time": 4800, "pitch": 38, "duration": 60, "velocity": 127}, {"time": 4800, "pitch": 46, "duration": 60, "velocity": 114}, {"time": 5159, "pitch": 38, "duration": 60, "velocity": 65}, {"time": 5159, "pitch": 42, "duration": 60, "velocity": 81}, {"time": 5398, "pitch": 38, "duration": 60, "velocity": 90}, {"time": 5398, "pitch": 42, "duration": 60, "velocity": 105}, {"time": 5518, "pitch": 46, "duration": 60, "velocity": 102}, {"time": 5757, "pitch": 38, "duration": 60, "velocity": 127}, {"time": 5757, "pitch": 46, "duration": 60, "velocity": 114}, {"time": 5997, "pitch": 36, "duration": 59, "velocity": 124}, {"time": 5997, "pitch": 42, "duration": 59, "velocity": 87}, {"time": 6236, "pitch": 42, "duration": 61, "velocity": 107}, {"time": 6480, "pitch": 42, "duration": 61, "velocity": 88}, {"time": 6724, "pitch": 38, "duration": 60, "velocity": 112}, {"time": 6724, "pitch": 46, "duration": 60, "velocity": 114}, {"time": 7083, "pitch": 38, "duration": 60, "velocity": 75}, {"time": 7083, "pitch": 42, "duration": 60, "velocity": 81}, {"time": 7322, "pitch": 38, "duration": 60, "velocity": 90}, {"time": 7322, "pitch": 42, "duration": 60, "velocity": 105}, {"time": 7442, "pitch": 36, "duration": 59, "velocity": 120}, {"time": 7442, "pitch": 46, "duration": 59, "velocity": 102}, {"time": 7681, "pitch": 38, "duration": 60, "velocity": 112}, {"time": 7681, "pitch": 46, "duration": 60, "velocity": 114}, {"time": 7920, "pitch": 42, "duration": 60, "velocity": 87}, {"time": 8160, "pitch": 36, "duration": 59, "velocity": 122}, {"time": 8160, "pitch": 42, "duration": 59, "velocity": 107}, {"time": 8399, "pitch": 42, "duration": 60, "velocity": 88}, {"time": 8638, "pitch": 38, "duration": 60, "velocity": 127}, {"time": 8638, "pitch": 46, "duration": 60, "velocity": 114}, {"time": 8997, "pitch": 38, "duration": 60, "velocity": 65}, {"time": 8997, "pitch": 42, "duration": 60, "velocity": 81}, {"time": 9239, "pitch": 38, "duration": 61, "velocity": 90}, {"time": 9239, "pitch": 42, "duration": 61, "velocity": 105}, {"time": 9361, "pitch": 46, "duration": 61, "velocity": 102}, {"time": 9605, "pitch": 38, "duration": 59, "velocity": 127}, {"time": 9605, "pitch": 46, "duration": 59, "velocity": 114}, {"time": 9844, "pitch": 36, "duration": 60, "velocity": 124}, {"time": 9844, "pitch": 42, "duration": 60, "velocity": 87}, {"time": 10083, "pitch": 42, "duration": 60, "velocity": 107}, {"time": 10322, "pitch": 42, "duration": 60, "velocity": 88}, {"time": 10562, "pitch": 38, "duration": 60, "velocity": 112}, {"time": 10562, "pitch": 46, "duration": 60, "velocity": 114}, {"time": 10921, "pitch": 38, "duration": 59, "velocity": 75}, {"time": 10921, "pitch": 42, "duration": 59, "velocity": 81}, {"time": 11160, "pitch": 38, "duration": 60, "velocity": 90}, {"time": 11160, "pitch": 42, "duration": 60, "velocity": 105}, {"time": 11280, "pitch": 36, "duration": 59, "velocity": 120}, {"time": 11280, "pitch": 46, "duration": 59, "velocity": 102}, {"time": 11519, "pitch": 38, "duration": 60, "velocity": 112}, {"time": 11519, "pitch": 46, "duration": 60, "velocity": 114}, {"time": 11758, "pitch": 42, "duration": 60, "velocity": 87}, {"time": 11997, "pitch": 36, "duration": 60, "velocity": 122}, {"time": 11997, "pitch": 42, "duration": 60, "velocity": 107}, {"time": 12237, "pitch": 42, "duration": 60, "velocity": 88}, {"time": 12476, "pitch": 38, "duration": 61, "velocity": 127}, {"time": 12476, "pitch": 46, "duration": 61, "velocity": 114}, {"time": 12842, "pitch": 38, "duration": 61, "velocity": 65}, {"time": 12842, "pitch": 42, "duration": 61, "velocity": 81}, {"time": 13084, "pitch": 38, "duration": 59, "velocity": 90}, {"time": 13084, "pitch": 42, "duration": 59, "velocity": 105}, {"time": 13203, "pitch": 46, "duration": 60, "velocity": 102}, {"time": 13443, "pitch": 38, "duration": 59, "velocity": 127}, {"time": 13443, "pitch": 46, "duration": 59, "velocity": 114}, {"time": 13682, "pitch": 36, "duration": 60, "velocity": 124}, {"time": 13682, "pitch": 42, "duration": 60, "velocity": 87}, {"time": 13921, "pitch": 42, "duration": 60, "velocity": 107}, {"time": 14160, "pitch": 42, "duration": 60, "velocity": 88}, {"time": 14400, "pitch": 38, "duration": 59, "velocity": 112}, {"time": 14400, "pitch": 46, "duration": 59, "velocity": 114}, {"time": 14759, "pitch": 38, "duration": 59, "velocity": 75}, {"time": 14759, "pitch": 42, "duration": 59, "velocity": 81}, {"time": 14998, "pitch": 38, "duration": 60, "velocity": 90}, {"time": 14998, "pitch": 42, "duration": 60, "velocity": 105}, {"time": 15118, "pitch": 36, "duration": 59, "velocity": 120}, {"time": 15118, "pitch": 46, "duration": 59, "velocity": 102}, {"time": 15357, "pitch": 38, "duration": 60, "velocity": 112}, {"time": 15357, "pitch": 46, "duration": 60, "velocity": 114}, {"time": 15596, "pitch": 42, "duration": 60, "velocity": 87}, {"time": 15835, "pitch": 36, "duration": 61, "velocity": 122}, {"time": 15835, "pitch": 42, "duration": 61, "velocity": 107}, {"time": 16079, "pitch": 42, "duration": 61, "velocity": 88}, {"time": 16323, "pitch": 38, "duration": 60, "velocity": 127}, {"time": 16323, "pitch": 46, "duration": 60, "velocity": 114}, {"time": 16682, "pitch": 38, "duration": 60, "velocity": 65}, {"time": 16682, "pitch": 42, "duration": 60, "velocity": 81}, {"time": 16922, "pitch": 38, "duration": 59, "velocity": 90}, {"time": 16922, "pitch": 42, "duration": 59, "velocity": 105}, {"time": 17041, "pitch": 46, "duration": 60, "velocity": 102}, {"time": 17280, "pitch": 38, "duration": 60, "velocity": 127}, {"time": 17280, "pitch": 46, "duration": 60, "velocity": 114}, {"time": 17520, "pitch": 36, "duration": 60, "velocity": 124}, {"time": 17520, "pitch": 42, "duration": 60, "velocity": 87}, {"time": 17759, "pitch": 42, "duration": 60, "velocity": 107}, {"time": 17998, "pitch": 42, "duration": 60, "velocity": 88}, {"time": 18238, "pitch": 38, "duration": 59, "velocity": 112}, {"time": 18238, "pitch": 46, "duration": 59, "velocity": 114}, {"time": 18597, "pitch": 38, "duration": 59, "velocity": 75}, {"time": 18597, "pitch": 42, "duration": 59, "velocity": 81}, {"time": 18838, "pitch": 38, "duration": 61, "velocity": 90}, {"time": 18838, "pitch": 42, "duration": 61, "velocity": 105}, {"time": 18960, "pitch": 36, "duration": 61, "velocity": 120}, {"time": 18960, "pitch": 46, "duration": 61, "velocity": 102}, {"time": 19204, "pitch": 38, "duration": 60, "velocity": 112}, {"time": 19204, "pitch": 46, "duration": 60, "velocity": 114}, {"time": 19443, "pitch": 42, "duration": 60, "velocity": 87}, {"time": 19683, "pitch": 36, "duration": 60, "velocity": 122}, {"time": 19683, "pitch": 42, "duration": 60, "velocity": 107}, {"time": 19922, "pitch": 42, "duration": 60, "velocity": 88}, {"time": 20161, "pitch": 38, "duration": 60, "velocity": 127}, {"time": 20161, "pitch": 46, "duration": 60, "velocity": 114}, {"time": 20520, "pitch": 38, "duration": 60, "velocity": 65}, {"time": 20520, "pitch": 42, "duration": 60, "velocity": 81}, {"time": 20759, "pitch": 38, "duration": 60, "velocity": 90}, {"time": 20759, "pitch": 42, "duration": 60, "velocity": 105}, {"time": 20879, "pitch": 46, "duration": 60, "velocity": 102}, {"time": 21118, "pitch": 38, "duration": 60, "velocity": 127}, {"time": 21118, "pitch": 46, "duration": 60, "velocity": 114}, {"time": 21358, "pitch": 36, "duration": 59, "velocity": 124}, {"time": 21358, "pitch": 42, "duration": 59, "velocity": 87}, {"time": 21597, "pitch": 42, "duration": 60, "velocity": 107}, {"time": 21836, "pitch": 42, "duration": 60, "velocity": 88}, {"time": 22076, "pitch": 38, "duration": 60, "velocity": 112}, {"time": 22076, "pitch": 46, "duration": 60, "velocity": 114}, {"time": 22442, "pitch": 38, "duration": 61, "velocity": 75}, {"time": 22442, "pitch": 42, "duration": 61, "velocity": 81}, {"time": 22683, "pitch": 38, "duration": 60, "velocity": 90}, {"time": 22683, "pitch": 42, "duration": 60, "velocity": 105}, {"time": 22803, "pitch": 36, "duration": 60, "velocity": 120}, {"time": 22803, "pitch": 46, "duration": 60, "velocity": 102}, {"time": 23042, "pitch": 38, "duration": 60, "velocity": 112}, {"time": 23042, "pitch": 46, "duration": 60, "velocity": 114}, {"time": 23281, "pitch": 42, "duration": 60, "velocity": 87}, {"time": 23521, "pitch": 36, "duration": 59, "velocity": 122}, {"time": 23521, "pitch": 42, "duration": 59, "velocity": 107}, {"time": 23760, "pitch": 42, "duration": 60, "velocity": 88}, {"time": 23999, "pitch": 38, "duration": 60, "velocity": 127}, {"time": 23999, "pitch": 46, "duration": 60, "velocity": 114}, {"time": 24358, "pitch": 38, "duration": 60, "velocity": 65}, {"time": 24358, "pitch": 42, "duration": 60, "velocity": 81}, {"time": 24597, "pitch": 38, "duration": 60, "velocity": 90}, {"time": 24597, "pitch": 42, "duration": 60, "velocity": 105}, {"time": 24717, "pitch": 46, "duration": 60, "velocity": 102}, {"time": 24956, "pitch": 38, "duration": 61, "velocity": 127}, {"time": 24956, "pitch": 46, "duration": 61, "velocity": 114}, {"time": 25200, "pitch": 36, "duration": 61, "velocity": 124}, {"time": 25200, "pitch": 42, "duration": 61, "velocity": 87}, {"time": 25444, "pitch": 42, "duration": 60, "velocity": 107}, {"time": 25684, "pitch": 42, "duration": 59, "velocity": 88}, {"time": 25923, "pitch": 38, "duration": 60, "velocity": 112}, {"time": 25923, "pitch": 46, "duration": 60, "velocity": 114}, {"time": 26282, "pitch": 38, "duration": 60, "velocity": 75}, {"time": 26282, "pitch": 42, "duration": 60, "velocity": 81}, {"time": 26521, "pitch": 38, "duration": 60, "velocity": 90}, {"time": 26521, "pitch": 42, "duration": 60, "velocity": 105}, {"time": 26641, "pitch": 36, "duration": 60, "velocity": 120}, {"time": 26641, "pitch": 46, "duration": 60, "velocity": 102}, {"time": 26880, "pitch": 38, "duration": 60, "velocity": 112}, {"time": 26880, "pitch": 46, "duration": 60, "velocity": 114}, {"time": 27119, "pitch": 42, "duration": 60, "velocity": 87}, {"time": 27359, "pitch": 36, "duration": 59, "velocity": 122}, {"time": 27359, "pitch": 42, "duration": 59, "velocity": 107}, {"time": 27598, "pitch": 42, "duration": 60, "velocity": 88}, {"time": 27837, "pitch": 38, "duration": 60, "velocity": 127}, {"time": 27837, "pitch": 46, "duration": 60, "velocity": 114}, {"time": 28196, "pitch": 38, "duration": 60, "velocity": 65}, {"time": 28196, "pitch": 42, "duration": 60, "velocity": 81}, {"time": 28438, "pitch": 38, "duration": 61, "velocity": 90}, {"time": 28438, "pitch": 42, "duration": 61, "velocity": 105}, {"time": 28560, "pitch": 46, "duration": 61, "velocity": 102}, {"time": 28804, "pitch": 38, "duration": 59, "velocity": 127}, {"time": 28804, "pitch": 46, "duration": 59, "velocity": 114}, {"time": 29043, "pitch": 36, "duration": 60, "velocity": 124}, {"time": 29043, "pitch": 42, "duration": 60, "velocity": 87}, {"time": 29282, "pitch": 42, "duration": 60, "velocity": 107}, {"time": 29521, "pitch": 42, "duration": 60, "velocity": 88}, {"time": 29761, "pitch": 38, "duration": 60, "velocity": 112}, {"time": 29761, "pitch": 46, "duration": 60, "velocity": 114}, {"time": 30120, "pitch": 38, "duration": 60, "velocity": 75}, {"time": 30120, "pitch": 42, "duration": 60, "velocity": 81}, {"time": 30359, "pitch": 38, "duration": 60, "velocity": 90}, {"time": 30359, "pitch": 42, "duration": 60, "velocity": 105}, {"time": 30479, "pitch": 36, "duration": 59, "velocity": 120}, {"time": 30479, "pitch": 46, "duration": 59, "velocity": 102}, {"time": 30718, "pitch": 38, "duration": 60, "velocity": 112}, {"time": 30718, "pitch": 46, "duration": 60, "velocity": 114}, {"time": 30957, "pitch": 42, "duration": 60, "velocity": 87}, {"time": 31196, "pitch": 36, "duration": 61, "velocity": 122}, {"time": 31196, "pitch": 42, "duration": 61, "velocity": 107}, {"time": 31440, "pitch": 42, "duration": 61, "velocity": 88}, {"time": 31684, "pitch": 38, "duration": 60, "velocity": 127}, {"time": 31684, "pitch": 46, "duration": 60, "velocity": 114}, {"time": 32043, "pitch": 38, "duration": 60, "velocity": 65}, {"time": 32043, "pitch": 42, "duration": 60, "velocity": 81}, {"time": 32283, "pitch": 38, "duration": 59, "velocity": 90}, {"time": 32283, "pitch": 42, "duration": 59, "velocity": 105}, {"time": 32402, "pitch": 46, "duration": 60, "velocity": 102}, {"time": 32642, "pitch": 38, "duration": 59, "velocity": 127}, {"time": 32642, "pitch": 46, "duration": 59, "velocity": 114}, {"time": 32881, "pitch": 36, "duration": 60, "velocity": 124}, {"time": 32881, "pitch": 42, "duration": 60, "velocity": 87}, {"time": 33120, "pitch": 42, "duration": 60, "velocity": 107}, {"time": 33359, "pitch": 42, "duration": 60, "velocity": 88}, {"time": 33599, "pitch": 38, "duration": 60, "velocity": 112}, {"time": 33599, "pitch": 46, "duration": 60, "velocity": 114}, {"time": 33958, "pitch": 38, "duration": 59, "velocity": 75}, {"time": 33958, "pitch": 42, "duration": 59, "velocity": 81}, {"time": 34197, "pitch": 38, "duration": 60, "velocity": 90}, {"time": 34197, "pitch": 42, "duration": 60, "velocity": 105}, {"time": 34317, "pitch": 36, "duration": 59, "velocity": 120}, {"time": 34317, "pitch": 46, "duration": 59, "velocity": 102}, {"time": 34556, "pitch": 38, "duration": 61, "velocity": 112}, {"time": 34556, "pitch": 46, "duration": 61, "velocity": 114}, {"time": 34800, "pitch": 42, "duration": 61, "velocity": 87}, {"time": 35044, "pitch": 36, "duration": 60, "velocity": 122}, {"time": 35044, "pitch": 42, "duration": 60, "velocity": 107}, {"time": 35283, "pitch": 42, "duration": 60, "velocity": 88}, {"time": 35522, "pitch": 38, "duration": 60, "velocity": 127}, {"time": 35522, "pitch": 46, "duration": 60, "velocity": 114}, {"time": 35881, "pitch": 38, "duration": 60, "velocity": 65}, {"time": 35881, "pitch": 42, "duration": 60, "velocity": 81}, {"time": 36121, "pitch": 38, "duration": 59, "velocity": 90}, {"time": 36121, "pitch": 42, "duration": 59, "velocity": 105}, {"time": 36240, "pitch": 46, "duration": 60, "velocity": 102}, {"time": 36479, "pitch": 38, "duration": 60, "velocity": 127}, {"time": 36479, "pitch": 46, "duration": 60, "velocity": 114}, {"time": 36719, "pitch": 36, "duration": 60, "velocity": 124}, {"time": 36719, "pitch": 42, "duration": 60, "velocity": 87}, {"time": 36958, "pitch": 42, "duration": 60, "velocity": 107}, {"time": 37197, "pitch": 42, "duration": 60, "velocity": 88}, {"time": 37437, "pitch": 38, "duration": 61, "velocity": 112}, {"time": 37437, "pitch": 46, "duration": 61, "velocity": 114}, {"time": 37803, "pitch": 38, "duration": 61, "velocity": 75}, {"time": 37803, "pitch": 42, "duration": 61, "velocity": 81}, {"time": 38044, "pitch": 38, "duration": 60, "velocity": 90}, {"time": 38044, "pitch": 42, "duration": 60, "velocity": 105}, {"time": 38164, "pitch": 36, "duration": 60, "velocity": 120}, {"time": 38164, "pitch": 46, "duration": 60, "velocity": 102}, {"time": 38403, "pitch": 38, "duration": 60, "velocity": 112}, {"time": 38403, "pitch": 46, "duration": 60, "velocity": 114}, {"time": 38642, "pitch": 42, "duration": 60, "velocity": 87}, {"time": 38882, "pitch": 36, "duration": 60, "velocity": 122}, {"time": 38882, "pitch": 42, "duration": 60, "velocity": 107}, {"time": 39121, "pitch": 42, "duration": 60, "velocity": 88}, {"time": 39360, "pitch": 38, "duration": 60, "velocity": 127}, {"time": 39360, "pitch": 46, "duration": 60, "velocity": 114}, {"time": 39719, "pitch": 38, "duration": 60, "velocity": 65}, {"time": 39719, "pitch": 42, "duration": 60, "velocity": 81}, {"time": 39958, "pitch": 38, "duration": 60, "velocity": 90}, {"time": 39958, "pitch": 42, "duration": 60, "velocity": 105}, {"time": 40078, "pitch": 46, "duration": 60, "velocity": 102}, {"time": 40317, "pitch": 38, "duration": 60, "velocity": 127}, {"time": 40317, "pitch": 46, "duration": 60, "velocity": 114}, {"time": 40557, "pitch": 36, "duration": 60, "velocity": 124}, {"time": 40557, "pitch": 42, "duration": 60, "velocity": 87}, {"time": 40796, "pitch": 42, "duration": 61, "velocity": 107}, {"time": 41040, "pitch": 42, "duration": 61, "velocity": 88}, {"time": 41284, "pitch": 38, "duration": 60, "velocity": 112}, {"time": 41284, "pitch": 46, "duration": 60, "velocity": 114}, {"time": 41643, "pitch": 38, "duration": 60, "velocity": 75}, {"time": 41643, "pitch": 42, "duration": 60, "velocity": 81}, {"time": 41882, "pitch": 38, "duration": 60, "velocity": 90}, {"time": 41882, "pitch": 42, "duration": 60, "velocity": 105}, {"time": 42002, "pitch": 36, "duration": 60, "velocity": 120}, {"time": 42002, "pitch": 46, "duration": 60, "velocity": 102}, {"time": 42241, "pitch": 38, "duration": 60, "velocity": 112}, {"time": 42241, "pitch": 46, "duration": 60, "velocity": 114}, {"time": 42480, "pitch": 42, "duration": 60, "velocity": 87}, {"time": 42720, "pitch": 36, "duration": 59, "velocity": 122}, {"time": 42720, "pitch": 42, "duration": 59, "velocity": 107}, {"time": 42959, "pitch": 42, "duration": 60, "velocity": 88}, {"time": 43198, "pitch": 38, "duration": 60, "velocity": 127}, {"time": 43198, "pitch": 46, "duration": 60, "velocity": 114}, {"time": 43557, "pitch": 38, "duration": 60, "velocity": 65}, {"time": 43557, "pitch": 42, "duration": 60, "velocity": 81}, {"time": 43796, "pitch": 38, "duration": 60, "velocity": 90}, {"time": 43796, "pitch": 42, "duration": 60, "velocity": 105}, {"time": 43916, "pitch": 46, "duration": 60, "velocity": 102}, {"time": 44155, "pitch": 38, "duration": 61, "velocity": 127}, {"time": 44155, "pitch": 46, "duration": 61, "velocity": 114}, {"time": 44399, "pitch": 36, "duration": 61, "velocity": 124}, {"time": 44399, "pitch": 42, "duration": 61, "velocity": 87}, {"time": 44643, "pitch": 42, "duration": 60, "velocity": 107}, {"time": 44883, "pitch": 42, "duration": 59, "velocity": 88}, {"time": 45122, "pitch": 38, "duration": 60, "velocity": 112}, {"time": 45122, "pitch": 46, "duration": 60, "velocity": 114}, {"time": 45481, "pitch": 38, "duration": 60, "velocity": 75}, {"time": 45481, "pitch": 42, "duration": 60, "velocity": 81}, {"time": 45720, "pitch": 38, "duration": 60, "velocity": 90}, {"time": 45720, "pitch": 42, "duration": 60, "velocity": 105}, {"time": 45840, "pitch": 36, "duration": 60, "velocity": 120}, {"time": 45840, "pitch": 46, "duration": 60, "velocity": 102}, {"time": 46079, "pitch": 38, "duration": 60, "velocity": 112}, {"time": 46079, "pitch": 46, "duration": 60, "velocity": 114}, {"time": 46318, "pitch": 42, "duration": 60, "velocity": 87}, {"time": 46558, "pitch": 36, "duration": 59, "velocity": 122}, {"time": 46558, "pitch": 42, "duration": 59, "velocity": 107}, {"time": 46797, "pitch": 42, "duration": 60, "velocity": 88}, {"time": 47036, "pitch": 38, "duration": 61, "velocity": 127}, {"time": 47036, "pitch": 46, "duration": 61, "velocity": 114}, {"time": 47402, "pitch": 38, "duration": 61, "velocity": 65}, {"time": 47402, "pitch": 42, "duration": 61, "velocity": 81}, {"time": 47644, "pitch": 38, "duration": 60, "velocity": 90}, {"time": 47644, "pitch": 42, "duration": 60, "velocity": 105}, {"time": 47763, "pitch": 46, "duration": 60, "velocity": 102}, {"time": 48003, "pitch": 38, "duration": 59, "velocity": 127}, {"time": 48003, "pitch": 46, "duration": 59, "velocity": 114}, {"time": 48242, "pitch": 36, "duration": 60, "velocity": 124}, {"time": 48242, "pitch": 42, "duration": 60, "velocity": 87}, {"time": 48481, "pitch": 42, "duration": 60, "velocity": 107}, {"time": 48721, "pitch": 42, "duration": 59, "velocity": 88}, {"time": 48960, "pitch": 38, "duration": 60, "velocity": 112}, {"time": 48960, "pitch": 46, "duration": 60, "velocity": 114}, {"time": 49319, "pitch": 38, "duration": 60, "velocity": 75}, {"time": 49319, "pitch": 42, "duration": 60, "velocity": 81}, {"time": 49558, "pitch": 38, "duration": 60, "velocity": 90}, {"time": 49558, "pitch": 42, "duration": 60, "velocity": 105}, {"time": 49678, "pitch": 36, "duration": 59, "velocity": 120}, {"time": 49678, "pitch": 46, "duration": 59, "velocity": 102}, {"time": 49917, "pitch": 38, "duration": 60, "velocity": 112}, {"time": 49917, "pitch": 46, "duration": 60, "velocity": 114}, {"time": 50156, "pitch": 42, "duration": 60, "velocity": 87}, {"time": 50395, "pitch": 36, "duration": 61, "velocity": 122}, {"time": 50395, "pitch": 42, "duration": 61, "velocity": 107}, {"time": 50639, "pitch": 42, "duration": 61, "velocity": 88}, {"time": 50883, "pitch": 38, "duration": 60, "velocity": 127}, {"time": 50883, "pitch": 46, "duration": 60, "velocity": 114}, {"time": 51242, "pitch": 38, "duration": 60, "velocity": 65}, {"time": 51242, "pitch": 42, "duration": 60, "velocity": 81}, {"time": 51482, "pitch": 38, "duration": 59, "velocity": 90}, {"time": 51482, "pitch": 42, "duration": 59, "velocity": 105}, {"time": 51601, "pitch": 46, "duration": 60, "velocity": 102}, {"time": 51841, "pitch": 38, "duration": 59, "velocity": 127}, {"time": 51841, "pitch": 46, "duration": 59, "velocity": 114}, {"time": 52080, "pitch": 36, "duration": 60, "velocity": 124}, {"time": 52080, "pitch": 42, "duration": 60, "velocity": 87}, {"time": 52319, "pitch": 42, "duration": 60, "velocity": 107}, {"time": 52558, "pitch": 42, "duration": 60, "velocity": 88}, {"time": 52798, "pitch": 38, "duration": 60, "velocity": 112}, {"time": 52798, "pitch": 46, "duration": 60, "velocity": 114}, {"time": 53157, "pitch": 38, "duration": 59, "velocity": 75}, {"time": 53157, "pitch": 42, "duration": 59, "velocity": 81}, {"time": 53398, "pitch": 38, "duration": 61, "velocity": 90}, {"time": 53398, "pitch": 42, "duration": 61, "velocity": 105}, {"time": 53520, "pitch": 36, "duration": 61, "velocity": 120}, {"time": 53520, "pitch": 46, "duration": 61, "velocity": 102}, {"time": 53764, "pitch": 38, "duration": 60, "velocity": 112}, {"time": 53764, "pitch": 46, "duration": 60, "velocity": 114}, {"time": 54004, "pitch": 42, "duration": 59, "velocity": 87}, {"time": 54243, "pitch": 36, "duration": 60, "velocity": 122}, {"time": 54243, "pitch": 42, "duration": 60, "velocity": 107}, {"time": 54482, "pitch": 42, "duration": 60, "velocity": 88}, {"time": 54721, "pitch": 38, "duration": 60, "velocity": 127}, {"time": 54721, "pitch": 46, "duration": 60, "velocity": 114}, {"time": 55080, "pitch": 38, "duration": 60, "velocity": 65}, {"time": 55080, "pitch": 42, "duration": 60, "velocity": 81}, {"time": 55320, "pitch": 38, "duration": 59, "velocity": 90}, {"time": 55320, "pitch": 42, "duration": 59, "velocity": 105}, {"time": 55439, "pitch": 46, "duration": 60, "velocity": 102}, {"time": 55678, "pitch": 38, "duration": 60, "velocity": 127}, {"time": 55678, "pitch": 46, "duration": 60, "velocity": 114}, {"time": 55918, "pitch": 36, "duration": 60, "velocity": 124}, {"time": 55918, "pitch": 42, "duration": 60, "velocity": 87}, {"time": 56157, "pitch": 42, "duration": 60, "velocity": 107}, {"time": 56396, "pitch": 42, "duration": 60, "velocity": 88}, {"time": 56636, "pitch": 38, "duration": 61, "velocity": 112}, {"time": 56636, "pitch": 46, "duration": 61, "velocity": 114}, {"time": 57002, "pitch": 38, "duration": 61, "velocity": 75}, {"time": 57002, "pitch": 42, "duration": 61, "velocity": 81}, {"time": 57243, "pitch": 38, "duration": 60, "velocity": 90}, {"time": 57243, "pitch": 42, "duration": 60, "velocity": 105}, {"time": 57363, "pitch": 36, "duration": 60, "velocity": 120}, {"time": 57363, "pitch": 46, "duration": 60, "velocity": 102}, {"time": 57602, "pitch": 38, "duration": 60, "velocity": 112}, {"time": 57602, "pitch": 46, "duration": 60, "velocity": 114}, {"time": 57841, "pitch": 42, "duration": 60, "velocity": 87}, {"time": 58081, "pitch": 36, "duration": 60, "velocity": 122}, {"time": 58081, "pitch": 42, "duration": 60, "velocity": 107}, {"time": 58320, "pitch": 42, "duration": 60, "velocity": 88}, {"time": 58559, "pitch": 38, "duration": 60, "velocity": 127}, {"time": 58559, "pitch": 46, "duration": 60, "velocity": 114}, {"time": 58918, "pitch": 38, "duration": 60, "velocity": 65}, {"time": 58918, "pitch": 42, "duration": 60, "velocity": 81}, {"time": 59157, "pitch": 38, "duration": 60, "velocity": 90}, {"time": 59157, "pitch": 42, "duration": 60, "velocity": 105}, {"time": 59277, "pitch": 46, "duration": 60, "velocity": 102}, {"time": 59516, "pitch": 38, "duration": 61, "velocity": 127}, {"time": 59516, "pitch": 46, "duration": 61, "velocity": 114}, {"time": 59760, "pitch": 36, "duration": 61, "velocity": 124}, {"time": 59760, "pitch": 42, "duration": 61, "velocity": 87}, {"time": 60004, "pitch": 42, "duration": 60, "velocity": 107}, {"time": 60244, "pitch": 42, "duration": 59, "velocity": 88}, {"time": 60483, "pitch": 38, "duration": 60, "velocity": 112}, {"time": 60483, "pitch": 46, "duration": 60, "velocity": 114}, {"time": 60842, "pitch": 38, "duration": 60, "velocity": 75}, {"time": 60842, "pitch": 42, "duration": 60, "velocity": 81}, {"time": 61081, "pitch": 38, "duration": 60, "velocity": 90}, {"time": 61081, "pitch": 42, "duration": 60, "velocity": 105}, {"time": 61201, "pitch": 36, "duration": 60, "velocity": 120}, {"time": 61201, "pitch": 46, "duration": 60, "velocity": 102}, {"time": 61440, "pitch": 38, "duration": 60, "velocity": 112}, {"time": 61440, "pitch": 46, "duration": 60, "velocity": 114}, {"time": 61679, "pitch": 42, "duration": 60, "velocity": 87}, {"time": 61919, "pitch": 36, "duration": 59, "velocity": 122}, {"time": 61919, "pitch": 42, "duration": 59, "velocity": 107}, {"time": 62158, "pitch": 42, "duration": 60, "velocity": 88}, {"time": 62397, "pitch": 38, "duration": 60, "velocity": 127}, {"time": 62397, "pitch": 46, "duration": 60, "velocity": 114}, {"time": 62756, "pitch": 38, "duration": 60, "velocity": 65}, {"time": 62756, "pitch": 42, "duration": 60, "velocity": 81}, {"time": 62998, "pitch": 38, "duration": 61, "velocity": 90}, {"time": 62998, "pitch": 42, "duration": 61, "velocity": 105}, {"time": 63120, "pitch": 46, "duration": 61, "velocity": 102}, {"time": 63364, "pitch": 38, "duration": 60, "velocity": 127}, {"time": 63364, "pitch": 46, "duration": 60, "velocity": 114}, {"time": 63603, "pitch": 36, "duration": 60, "velocity": 124}, {"time": 63603, "pitch": 42, "duration": 60, "velocity": 87}, {"time": 63842, "pitch": 42, "duration": 60, "velocity": 107}, {"time": 64082, "pitch": 42, "duration": 59, "velocity": 88}, {"time": 64321, "pitch": 38, "duration": 60, "velocity": 112}, {"time": 64321, "pitch": 46, "duration": 60, "velocity": 114}, {"time": 64680, "pitch": 38, "duration": 60, "velocity": 75}, {"time": 64680, "pitch": 42, "duration": 60, "velocity": 81}, {"time": 64919, "pitch": 38, "duration": 60, "velocity": 90}, {"time": 64919, "pitch": 42, "duration": 60, "velocity": 105}, {"time": 65039, "pitch": 36, "duration": 60, "velocity": 120}, {"time": 65039, "pitch": 46, "duration": 60, "velocity": 102}, {"time": 65278, "pitch": 38, "duration": 60, "velocity": 112}, {"time": 65278, "pitch": 46, "duration": 60, "velocity": 114}, {"time": 65517, "pitch": 42, "duration": 60, "velocity": 87}, {"time": 65757, "pitch": 36, "duration": 61, "velocity": 122}, {"time": 65757, "pitch": 42, "duration": 61, "velocity": 107}, {"time": 66001, "pitch": 42, "duration": 61, "velocity": 88}, {"time": 66245, "pitch": 38, "duration": 59, "velocity": 127}, {"time": 66245, "pitch": 46, "duration": 59, "velocity": 114}, {"time": 66603, "pitch": 38, "duration": 60, "velocity": 65}, {"time": 66603, "pitch": 42, "duration": 60, "velocity": 81}, {"time": 66843, "pitch": 38, "duration": 60, "velocity": 90}, {"time": 66843, "pitch": 42, "duration": 60, "velocity": 105}, {"time": 66962, "pitch": 46, "duration": 60, "velocity": 102}, {"time": 67202, "pitch": 38, "duration": 59, "velocity": 127}, {"time": 67202, "pitch": 46, "duration": 59, "velocity": 114}, {"time": 67441, "pitch": 36, "duration": 60, "velocity": 124}, {"time": 67441, "pitch": 42, "duration": 60, "velocity": 87}, {"time": 67680, "pitch": 42, "duration": 60, "velocity": 107}, {"time": 67920, "pitch": 42, "duration": 59, "velocity": 88}, {"time": 68159, "pitch": 38, "duration": 60, "velocity": 112}, {"time": 68159, "pitch": 46, "duration": 60, "velocity": 114}, {"time": 68518, "pitch": 38, "duration": 60, "velocity": 75}, {"time": 68518, "pitch": 42, "duration": 60, "velocity": 81}, {"time": 68757, "pitch": 38, "duration": 60, "velocity": 90}, {"time": 68757, "pitch": 42, "duration": 60, "velocity": 105}, {"time": 68877, "pitch": 36, "duration": 59, "velocity": 120}, {"time": 68877, "pitch": 46, "duration": 59, "velocity": 102}, {"time": 69116, "pitch": 38, "duration": 61, "velocity": 112}, {"time": 69116, "pitch": 46, "duration": 61, "velocity": 114}, {"time": 69360, "pitch": 42, "duration": 61, "velocity": 87}, {"time": 69604, "pitch": 36, "duration": 60, "velocity": 122}, {"time": 69604, "pitch": 42, "duration": 60, "velocity": 107}, {"time": 69843, "pitch": 42, "duration": 60, "velocity": 88}, {"time": 70082, "pitch": 38, "duration": 60, "velocity": 127}, {"time": 70082, "pitch": 46, "duration": 60, "velocity": 114}, {"time": 70441, "pitch": 38, "duration": 60, "velocity": 65}, {"time": 70441, "pitch": 42, "duration": 60, "velocity": 81}, {"time": 70681, "pitch": 38, "duration": 59, "velocity": 90}, {"time": 70681, "pitch": 42, "duration": 59, "velocity": 105}, {"time": 70800, "pitch": 46, "duration": 60, "velocity": 102}, {"time": 71040, "pitch": 38, "duration": 59, "velocity": 127}, {"time": 71040, "pitch": 46, "duration": 59, "velocity": 114}, {"time": 71279, "pitch": 36, "duration": 60, "velocity": 124}, {"time": 71279, "pitch": 42, "duration": 60, "velocity": 87}, {"time": 71518, "pitch": 42, "duration": 60, "velocity": 107}, {"time": 71757, "pitch": 42, "duration": 60, "velocity": 88}, {"time": 71997, "pitch": 38, "duration": 61, "velocity": 112}, {"time": 71997, "pitch": 46, "duration": 61, "velocity": 114}, {"time": 72363, "pitch": 38, "duration": 61, "velocity": 75}, {"time": 72363, "pitch": 42, "duration": 61, "velocity": 81}, {"time": 72604, "pitch": 38, "duration": 60, "velocity": 90}, {"time": 72604, "pitch": 42, "duration": 60, "velocity": 105}, {"time": 72724, "pitch": 36, "duration": 60, "velocity": 120}, {"time": 72724, "pitch": 46, "duration": 60, "velocity": 102}, {"time": 72963, "pitch": 38, "duration": 60, "velocity": 112}, {"time": 72963, "pitch": 46, "duration": 60, "velocity": 114}, {"time": 73203, "pitch": 42, "duration": 59, "velocity": 87}, {"time": 73442, "pitch": 36, "duration": 60, "velocity": 122}, {"time": 73442, "pitch": 42, "duration": 60, "velocity": 107}, {"time": 73681, "pitch": 42, "duration": 60, "velocity": 88}, {"time": 73920, "pitch": 38, "duration": 60, "velocity": 127}, {"time": 73920, "pitch": 46, "duration": 60, "velocity": 114}, {"time": 74279, "pitch": 38, "duration": 60, "velocity": 65}, {"time": 74279, "pitch": 42, "duration": 60, "velocity": 81}, {"time": 74519, "pitch": 38, "duration": 59, "velocity": 90}, {"time": 74519, "pitch": 42, "duration": 59, "velocity": 105}, {"time": 74638, "pitch": 46, "duration": 60, "velocity": 102}, {"time": 74878, "pitch": 38, "duration": 59, "velocity": 127}, {"time": 74878, "pitch": 46, "duration": 59, "velocity": 114}, {"time": 75117, "pitch": 36, "duration": 60, "velocity": 124}, {"time": 75117, "pitch": 42, "duration": 60, "velocity": 87}, {"time": 75356, "pitch": 42, "duration": 61, "velocity": 107}, {"time": 75600, "pitch": 42, "duration": 61, "velocity": 88}, {"time": 75844, "pitch": 38, "duration": 60, "velocity": 112}, {"time": 75844, "pitch": 46, "duration": 60, "velocity": 114}, {"time": 76203, "pitch": 38, "duration": 60, "velocity": 75}, {"time": 76203, "pitch": 42, "duration": 60, "velocity": 81}, {"time": 76442, "pitch": 38, "duration": 60, "velocity": 90}, {"time": 76442, "pitch": 42, "duration": 60, "velocity": 105}, {"time": 76562, "pitch": 36, "duration": 60, "velocity": 120}, {"time": 76562, "pitch": 46, "duration": 60, "velocity": 102}, {"time": 76801, "pitch": 38, "duration": 60, "velocity": 112}, {"time": 76801, "pitch": 46, "duration": 60, "velocity": 114}, {"time": 77040, "pitch": 42, "duration": 60, "velocity": 87}, {"time": 77280, "pitch": 36, "duration": 60, "velocity": 122}, {"time": 77280, "pitch": 42, "duration": 60, "velocity": 107}, {"time": 77519, "pitch": 42, "duration": 60, "velocity": 88}, {"time": 77758, "pitch": 38, "duration": 60, "velocity": 127}, {"time": 77758, "pitch": 46, "duration": 60, "velocity": 114}, {"time": 78117, "pitch": 38, "duration": 60, "velocity": 65}, {"time": 78117, "pitch": 42, "duration": 60, "velocity": 81}, {"time": 78357, "pitch": 38, "duration": 59, "velocity": 90}, {"time": 78357, "pitch": 42, "duration": 59, "velocity": 105}, {"time": 78476, "pitch": 46, "duration": 60, "velocity": 102}, {"time": 78715, "pitch": 38, "duration": 61, "velocity": 127}, {"time": 78715, "pitch": 46, "duration": 61, "velocity": 114}, {"time": 78959, "pitch": 36, "duration": 61, "velocity": 124}, {"time": 78959, "pitch": 42, "duration": 61, "velocity": 87}, {"time": 79203, "pitch": 42, "duration": 60, "velocity": 107}, {"time": 79443, "pitch": 42, "duration": 60, "velocity": 88}, {"time": 79682, "pitch": 38, "duration": 60, "velocity": 112}, {"time": 79682, "pitch": 46, "duration": 60, "velocity": 114}, {"time": 80041, "pitch": 38, "duration": 60, "velocity": 75}, {"time": 80041, "pitch": 42, "duration": 60, "velocity": 81}, {"time": 80280, "pitch": 38, "duration": 60, "velocity": 90}, {"time": 80280, "pitch": 42, "duration": 60, "velocity": 105}, {"time": 80400, "pitch": 36, "duration": 60, "velocity": 120}, {"time": 80400, "pitch": 46, "duration": 60, "velocity": 102}, {"time": 80639, "pitch": 38, "duration": 60, "velocity": 112}, {"time": 80639, "pitch": 46, "duration": 60, "velocity": 114}, {"time": 80878, "pitch": 42, "duration": 60, "velocity": 87}, {"time": 81118, "pitch": 36, "duration": 59, "velocity": 122}, {"time": 81118, "pitch": 42, "duration": 59, "velocity": 107}, {"time": 81357, "pitch": 42, "duration": 60, "velocity": 88}, {"time": 81596, "pitch": 38, "duration": 61, "velocity": 127}, {"time": 81596, "pitch": 46, "duration": 61, "velocity": 114}, {"time": 81962, "pitch": 38, "duration": 61, "velocity": 65}, {"time": 81962, "pitch": 42, "duration": 61, "velocity": 81}, {"time": 82204, "pitch": 38, "duration": 60, "velocity": 90}, {"time": 82204, "pitch": 42, "duration": 60, "velocity": 105}, {"time": 82323, "pitch": 46, "duration": 60, "velocity": 102}, {"time": 82563, "pitch": 38, "duration": 60, "velocity": 127}, {"time": 82563, "pitch": 46, "duration": 60, "velocity": 114}, {"time": 82802, "pitch": 36, "duration": 60, "velocity": 124}, {"time": 82802, "pitch": 42, "duration": 60, "velocity": 87}, {"time": 83041, "pitch": 42, "duration": 60, "velocity": 107}, {"time": 83281, "pitch": 42, "duration": 59, "velocity": 88}, {"time": 83520, "pitch": 38, "duration": 60, "velocity": 112}, {"time": 83520, "pitch": 46, "duration": 60, "velocity": 114}, {"time": 83879, "pitch": 38, "duration": 60, "velocity": 75}, {"time": 83879, "pitch": 42, "duration": 60, "velocity": 81}, {"time": 84118, "pitch": 38, "duration": 60, "velocity": 90}, {"time": 84118, "pitch": 42, "duration": 60, "velocity": 105}, {"time": 84238, "pitch": 36, "duration": 60, "velocity": 120}, {"time": 84238, "pitch": 46, "duration": 60, "velocity": 102}, {"time": 84477, "pitch": 38, "duration": 60, "velocity": 112}, {"time": 84477, "pitch": 46, "duration": 60, "velocity": 114}, {"time": 84716, "pitch": 42, "duration": 60, "velocity": 87}, {"time": 84956, "pitch": 36, "duration": 61, "velocity": 122}, {"time": 84956, "pitch": 42, "duration": 61, "velocity": 107}, {"time": 85200, "pitch": 42, "duration": 61, "velocity": 88}, {"time": 85444, "pitch": 38, "duration": 59, "velocity": 127}, {"time": 85444, "pitch": 46, "duration": 59, "velocity": 114}, {"time": 85802, "pitch": 38, "duration": 60, "velocity": 65}, {"time": 85802, "pitch": 42, "duration": 60, "velocity": 81}, {"time": 86042, "pitch": 38, "duration": 60, "velocity": 90}, {"time": 86042, "pitch": 42, "duration": 60, "velocity": 105}, {"time": 86161, "pitch": 46, "duration": 60, "velocity": 102}, {"time": 86401, "pitch": 38, "duration": 60, "velocity": 127}, {"time": 86401, "pitch": 46, "duration": 60, "velocity": 114}, {"time": 86640, "pitch": 36, "duration": 60, "velocity": 124}, {"time": 86640, "pitch": 42, "duration": 60, "velocity": 87}, {"time": 86879, "pitch": 42, "duration": 60, "velocity": 107}, {"time": 87119, "pitch": 42, "duration": 59, "velocity": 88}, {"time": 87358, "pitch": 38, "duration": 60, "velocity": 112}, {"time": 87358, "pitch": 46, "duration": 60, "velocity": 114}, {"time": 87717, "pitch": 38, "duration": 60, "velocity": 75}, {"time": 87717, "pitch": 42, "duration": 60, "velocity": 81}, {"time": 87958, "pitch": 38, "duration": 61, "velocity": 90}, {"time": 87958, "pitch": 42, "duration": 61, "velocity": 105}, {"time": 88080, "pitch": 36, "duration": 61, "velocity": 120}, {"time": 88080, "pitch": 46, "duration": 61, "velocity": 102}, {"time": 88324, "pitch": 38, "duration": 60, "velocity": 112}, {"time": 88324, "pitch": 46, "duration": 60, "velocity": 114}, {"time": 88564, "pitch": 42, "duration": 59, "velocity": 87}, {"time": 88803, "pitch": 36, "duration": 60, "velocity": 122}, {"time": 88803, "pitch": 42, "duration": 60, "velocity": 107}, {"time": 89042, "pitch": 42, "duration": 60, "velocity": 88}, {"time": 89281, "pitch": 38, "duration": 60, "velocity": 127}, {"time": 89281, "pitch": 46, "duration": 60, "velocity": 114}, {"time": 89640, "pitch": 38, "duration": 60, "velocity": 65}, {"time": 89640, "pitch": 42, "duration": 60, "velocity": 81}, {"time": 89880, "pitch": 38, "duration": 60, "velocity": 90}, {"time": 89880, "pitch": 42, "duration": 60, "velocity": 105}, {"time": 89999, "pitch": 46, "duration": 60, "velocity": 102}, {"time": 90239, "pitch": 38, "duration": 59, "velocity": 127}, {"time": 90239, "pitch": 46, "duration": 59, "velocity": 114}, {"time": 90478, "pitch": 36, "duration": 60, "velocity": 124}, {"time": 90478, "pitch": 42, "duration": 60, "velocity": 87}, {"time": 90717, "pitch": 42, "duration": 60, "velocity": 107}, {"time": 90956, "pitch": 42, "duration": 60, "velocity": 88}, {"time": 91196, "pitch": 38, "duration": 61, "velocity": 112}, {"time": 91196, "pitch": 46, "duration": 61, "velocity": 114}, {"time": 91562, "pitch": 38, "duration": 61, "velocity": 75}, {"time": 91562, "pitch": 42, "duration": 61, "velocity": 81}, {"time": 91803, "pitch": 38, "duration": 60, "velocity": 90}, {"time": 91803, "pitch": 42, "duration": 60, "velocity": 105}, {"time": 91923, "pitch": 36, "duration": 60, "velocity": 120}, {"time": 91923, "pitch": 46, "duration": 60, "velocity": 102}, {"time": 92162, "pitch": 38, "duration": 60, "velocity": 112}, {"time": 92162, "pitch": 46, "duration": 60, "velocity": 114}, {"time": 92402, "pitch": 42, "duration": 59, "velocity": 87}, {"time": 92641, "pitch": 36, "duration": 60, "velocity": 122}, {"time": 92641, "pitch": 42, "duration": 60, "velocity": 107}, {"time": 92880, "pitch": 42, "duration": 60, "velocity": 88}, {"time": 93119, "pitch": 38, "duration": 60, "velocity": 127}, {"time": 93119, "pitch": 46, "duration": 60, "velocity": 114}, {"time": 93478, "pitch": 38, "duration": 60, "velocity": 65}, {"time": 93478, "pitch": 42, "duration": 60, "velocity": 81}, {"time": 93718, "pitch": 38, "duration": 59, "velocity": 90}, {"time": 93718, "pitch": 42, "duration": 59, "velocity": 105}, {"time": 93837, "pitch": 46, "duration": 60, "velocity": 102}, {"time": 94077, "pitch": 38, "duration": 60, "velocity": 127}, {"time": 94077, "pitch": 46, "duration": 60, "velocity": 114}, {"time": 94321, "pitch": 36, "duration": 61, "velocity": 124}, {"time": 94321, "pitch": 42, "duration": 61, "velocity": 87}, {"time": 94565, "pitch": 42, "duration": 59, "velocity": 107}, {"time": 94804, "pitch": 42, "duration": 60, "velocity": 88}, {"time": 95043, "pitch": 38, "duration": 60, "velocity": 112}, {"time": 95043, "pitch": 46, "duration": 60, "velocity": 114}, {"time": 95402, "pitch": 38, "duration": 60, "velocity": 75}, {"time": 95402, "pitch": 42, "duration": 60, "velocity": 81}, {"time": 95641, "pitch": 38, "duration": 60, "velocity": 90}, {"time": 95641, "pitch": 42, "duration": 60, "velocity": 105}, {"time": 95761, "pitch": 36, "duration": 60, "velocity": 120}, {"time": 95761, "pitch": 46, "duration": 60, "velocity": 102}, {"time": 96000, "pitch": 38, "duration": 60, "velocity": 112}, {"time": 96000, "pitch": 46, "duration": 60, "velocity": 114}, {"time": 96239, "pitch": 42, "duration": 60, "velocity": 87}, {"time": 96479, "pitch": 36, "duration": 60, "velocity": 122}, {"time": 96479, "pitch": 42, "duration": 60, "velocity": 107}, {"time": 96718, "pitch": 42, "duration": 60, "velocity": 88}, {"time": 96957, "pitch": 38, "duration": 60, "velocity": 127}, {"time": 96957, "pitch": 46, "duration": 60, "velocity": 114}, {"time": 97316, "pitch": 38, "duration": 60, "velocity": 65}, {"time": 97316, "pitch": 42, "duration": 60, "velocity": 81}, {"time": 97558, "pitch": 38, "duration": 61, "velocity": 90}, {"time": 97558, "pitch": 42, "duration": 61, "velocity": 105}, {"time": 97680, "pitch": 46, "duration": 61, "velocity": 102}, {"time": 97924, "pitch": 38, "duration": 60, "velocity": 127}, {"time": 97924, "pitch": 46, "duration": 60, "velocity": 114}, {"time": 98163, "pitch": 36, "duration": 60, "velocity": 124}, {"time": 98163, "pitch": 42, "duration": 60, "velocity": 87}, {"time": 98402, "pitch": 42, "duration": 60, "velocity": 107}, {"time": 98642, "pitch": 42, "duration": 60, "velocity": 88}, {"time": 98881, "pitch": 38, "duration": 60, "velocity": 112}, {"time": 98881, "pitch": 46, "duration": 60, "velocity": 114}, {"time": 99240, "pitch": 38, "duration": 60, "velocity": 75}, {"time": 99240, "pitch": 42, "duration": 60, "velocity": 81}, {"time": 99479, "pitch": 38, "duration": 60, "velocity": 90}, {"time": 99479, "pitch": 42, "duration": 60, "velocity": 105}, {"time": 99599, "pitch": 36, "duration": 60, "velocity": 120}, {"time": 99599, "pitch": 46, "duration": 60, "velocity": 102}, {"time": 99838, "pitch": 38, "duration": 60, "velocity": 112}, {"time": 99838, "pitch": 46, "duration": 60, "velocity": 114}, {"time": 100077, "pitch": 42, "duration": 60, "velocity": 87}, {"time": 100317, "pitch": 36, "duration": 61, "velocity": 122}, {"time": 100317, "pitch": 42, "duration": 61, "velocity": 107}, {"time": 100561, "pitch": 42, "duration": 61, "velocity": 88}, {"time": 100805, "pitch": 38, "duration": 59, "velocity": 127}, {"time": 100805, "pitch": 46, "duration": 59, "velocity": 114}, {"time": 101164, "pitch": 38, "duration": 59, "velocity": 65}, {"time": 101164, "pitch": 42, "duration": 59, "velocity": 81}, {"time": 101403, "pitch": 38, "duration": 60, "velocity": 90}, {"time": 101403, "pitch": 42, "duration": 60, "velocity": 105}, {"time": 101523, "pitch": 46, "duration": 59, "velocity": 102}, {"time": 101762, "pitch": 38, "duration": 60, "velocity": 127}, {"time": 101762, "pitch": 46, "duration": 60, "velocity": 114}, {"time": 102001, "pitch": 36, "duration": 60, "velocity": 124}, {"time": 102001, "pitch": 42, "duration": 60, "velocity": 87}, {"time": 102240, "pitch": 42, "duration": 60, "velocity": 107}, {"time": 102480, "pitch": 42, "duration": 59, "velocity": 88}, {"time": 102719, "pitch": 38, "duration": 60, "velocity": 112}, {"time": 102719, "pitch": 46, "duration": 60, "velocity": 114}, {"time": 103078, "pitch": 38, "duration": 60, "velocity": 75}, {"time": 103078, "pitch": 42, "duration": 60, "velocity": 81}, {"time": 103317, "pitch": 38, "duration": 60, "velocity": 90}, {"time": 103317, "pitch": 42, "duration": 60, "velocity": 105}, {"time": 103437, "pitch": 36, "duration": 60, "velocity": 120}, {"time": 103437, "pitch": 46, "duration": 60, "velocity": 102}, {"time": 103676, "pitch": 38, "duration": 61, "velocity": 112}, {"time": 103676, "pitch": 46, "duration": 61, "velocity": 114}, {"time": 103920, "pitch": 42, "duration": 61, "velocity": 87}, {"time": 104164, "pitch": 36, "duration": 60, "velocity": 122}, {"time": 104164, "pitch": 42, "duration": 60, "velocity": 107}, {"time": 104403, "pitch": 42, "duration": 60, "velocity": 88}, {"time": 104643, "pitch": 38, "duration": 59, "velocity": 127}, {"time": 104643, "pitch": 46, "duration": 59, "velocity": 114}, {"time": 105002, "pitch": 38, "duration": 59, "velocity": 65}, {"time": 105002, "pitch": 42, "duration": 59, "velocity": 81}, {"time": 105241, "pitch": 38, "duration": 60, "velocity": 90}, {"time": 105241, "pitch": 42, "duration": 60, "velocity": 105}, {"time": 105360, "pitch": 46, "duration": 60, "velocity": 102}, {"time": 105600, "pitch": 38, "duration": 60, "velocity": 127}, {"time": 105600, "pitch": 46, "duration": 60, "velocity": 114}, {"time": 105839, "pitch": 36, "duration": 60, "velocity": 124}, {"time": 105839, "pitch": 42, "duration": 60, "velocity": 87}, {"time": 106078, "pitch": 42, "duration": 60, "velocity": 107}, {"time": 106318, "pitch": 42, "duration": 59, "velocity": 88}, {"time": 106557, "pitch": 38, "duration": 60, "velocity": 112}, {"time": 106557, "pitch": 46, "duration": 60, "velocity": 114}, {"time": 106916, "pitch": 38, "duration": 60, "velocity": 75}, {"time": 106916, "pitch": 42, "duration": 60, "velocity": 81}, {"time": 107157, "pitch": 38, "duration": 61, "velocity": 90}, {"time": 107157, "pitch": 42, "duration": 61, "velocity": 105}, {"time": 107279, "pitch": 36, "duration": 61, "velocity": 120}, {"time": 107279, "pitch": 46, "duration": 61, "velocity": 102}, {"time": 107523, "pitch": 38, "duration": 60, "velocity": 112}, {"time": 107523, "pitch": 46, "duration": 60, "velocity": 114}, {"time": 107763, "pitch": 42, "duration": 59, "velocity": 87}, {"time": 108002, "pitch": 36, "duration": 60, "velocity": 122}, {"time": 108002, "pitch": 42, "duration": 60, "velocity": 107}, {"time": 108241, "pitch": 42, "duration": 60, "velocity": 88}, {"time": 108481, "pitch": 38, "duration": 59, "velocity": 127}, {"time": 108481, "pitch": 46, "duration": 59, "velocity": 114}, {"time": 108839, "pitch": 38, "duration": 60, "velocity": 65}, {"time": 108839, "pitch": 42, "duration": 60, "velocity": 81}, {"time": 109079, "pitch": 38, "duration": 60, "velocity": 90}, {"time": 109079, "pitch": 42, "duration": 60, "velocity": 105}, {"time": 109198, "pitch": 46, "duration": 60, "velocity": 102}, {"time": 109438, "pitch": 38, "duration": 59, "velocity": 127}, {"time": 109438, "pitch": 46, "duration": 59, "velocity": 114}, {"time": 109677, "pitch": 36, "duration": 60, "velocity": 124}, {"time": 109677, "pitch": 42, "duration": 60, "velocity": 87}, {"time": 109916, "pitch": 42, "duration": 61, "velocity": 107}, {"time": 110160, "pitch": 42, "duration": 61, "velocity": 88}, {"time": 110404, "pitch": 38, "duration": 60, "velocity": 112}, {"time": 110404, "pitch": 46, "duration": 60, "velocity": 114}, {"time": 110763, "pitch": 38, "duration": 60, "velocity": 75}, {"time": 110763, "pitch": 42, "duration": 60, "velocity": 81}, {"time": 111002, "pitch": 38, "duration": 60, "velocity": 90}, {"time": 111002, "pitch": 42, "duration": 60, "velocity": 105}, {"time": 111122, "pitch": 36, "duration": 60, "velocity": 120}, {"time": 111122, "pitch": 46, "duration": 60, "velocity": 102}, {"time": 111361, "pitch": 38, "duration": 60, "velocity": 112}, {"time": 111361, "pitch": 46, "duration": 60, "velocity": 114}, {"time": 111601, "pitch": 42, "duration": 59, "velocity": 87}, {"time": 111840, "pitch": 36, "duration": 60, "velocity": 122}, {"time": 111840, "pitch": 42, "duration": 60, "velocity": 107}, {"time": 112079, "pitch": 42, "duration": 60, "velocity": 88}, {"time": 112318, "pitch": 38, "duration": 60, "velocity": 127}, {"time": 112318, "pitch": 46, "duration": 60, "velocity": 114}, {"time": 112677, "pitch": 38, "duration": 60, "velocity": 65}, {"time": 112677, "pitch": 42, "duration": 60, "velocity": 81}, {"time": 112917, "pitch": 38, "duration": 59, "velocity": 90}, {"time": 112917, "pitch": 42, "duration": 59, "velocity": 105}, {"time": 113036, "pitch": 46, "duration": 60, "velocity": 102}, {"time": 113276, "pitch": 38, "duration": 60, "velocity": 127}, {"time": 113276, "pitch": 46, "duration": 60, "velocity": 114}, {"time": 113520, "pitch": 36, "duration": 61, "velocity": 124}, {"time": 113520, "pitch": 42, "duration": 61, "velocity": 87}, {"time": 113764, "pitch": 42, "duration": 59, "velocity": 107}, {"time": 114003, "pitch": 42, "duration": 60, "velocity": 88}, {"time": 114242, "pitch": 38, "duration": 60, "velocity": 112}, {"time": 114242, "pitch": 46, "duration": 60, "velocity": 114}, {"time": 114601, "pitch": 38, "duration": 60, "velocity": 75}, {"time": 114601, "pitch": 42, "duration": 60, "velocity": 81}, {"time": 114840, "pitch": 38, "duration": 60, "velocity": 90}, {"time": 114840, "pitch": 42, "duration": 60, "velocity": 105}, {"time": 114960, "pitch": 36, "duration": 60, "velocity": 120}, {"time": 114960, "pitch": 46, "duration": 60, "velocity": 102}, {"time": 115199, "pitch": 38, "duration": 60, "velocity": 112}, {"time": 115199, "pitch": 46, "duration": 60, "velocity": 114}, {"time": 115439, "pitch": 42, "duration": 59, "velocity": 87}, {"time": 115678, "pitch": 36, "duration": 60, "velocity": 122}, {"time": 115678, "pitch": 42, "duration": 60, "velocity": 107}, {"time": 115917, "pitch": 42, "duration": 60, "velocity": 88}, {"time": 116156, "pitch": 38, "duration": 61, "velocity": 127}, {"time": 116156, "pitch": 46, "duration": 61, "velocity": 114}, {"time": 116522, "pitch": 38, "duration": 61, "velocity": 65}, {"time": 116522, "pitch": 42, "duration": 61, "velocity": 81}, {"time": 116764, "pitch": 38, "duration": 60, "velocity": 90}, {"time": 116764, "pitch": 42, "duration": 60, "velocity": 105}, {"time": 116884, "pitch": 46, "duration": 59, "velocity": 102}, {"time": 117123, "pitch": 38, "duration": 60, "velocity": 127}, {"time": 117123, "pitch": 46, "duration": 60, "velocity": 114}, {"time": 117362, "pitch": 36, "duration": 60, "velocity": 124}, {"time": 117362, "pitch": 42, "duration": 60, "velocity": 87}, {"time": 117601, "pitch": 42, "duration": 60, "velocity": 107}, {"time": 117841, "pitch": 42, "duration": 60, "velocity": 88}, {"time": 118080, "pitch": 38, "duration": 60, "velocity": 112}, {"time": 118080, "pitch": 46, "duration": 60, "velocity": 114}, {"time": 118439, "pitch": 38, "duration": 60, "velocity": 75}, {"time": 118439, "pitch": 42, "duration": 60, "velocity": 81}, {"time": 118678, "pitch": 38, "duration": 60, "velocity": 90}, {"time": 118678, "pitch": 42, "duration": 60, "velocity": 105}, {"time": 118798, "pitch": 36, "duration": 60, "velocity": 120}, {"time": 118798, "pitch": 46, "duration": 60, "velocity": 102}, {"time": 119037, "pitch": 38, "duration": 60, "velocity": 112}, {"time": 119037, "pitch": 46, "duration": 60, "velocity": 114}, {"time": 119276, "pitch": 42, "duration": 60, "velocity": 87}, {"time": 119516, "pitch": 36, "duration": 61, "velocity": 122}, {"time": 119516, "pitch": 42, "duration": 61, "velocity": 107}, {"time": 119760, "pitch": 42, "duration": 61, "velocity": 88}, {"time": 120004, "pitch": 38, "duration": 60, "velocity": 127}, {"time": 120004, "pitch": 46, "duration": 60, "velocity": 114}, {"time": 120363, "pitch": 38, "duration": 59, "velocity": 65}, {"time": 120363, "pitch": 42, "duration": 59, "velocity": 81}, {"time": 120602, "pitch": 38, "duration": 60, "velocity": 90}, {"time": 120602, "pitch": 42, "duration": 60, "velocity": 105}, {"time": 120722, "pitch": 46, "duration": 59, "velocity": 102}, {"time": 120961, "pitch": 38, "duration": 60, "velocity": 127}, {"time": 120961, "pitch": 46, "duration": 60, "velocity": 114}, {"time": 121200, "pitch": 36, "duration": 60, "velocity": 124}, {"time": 121200, "pitch": 42, "duration": 60, "velocity": 87}, {"time": 121439, "pitch": 42, "duration": 60, "velocity": 107}, {"time": 121679, "pitch": 42, "duration": 59, "velocity": 88}, {"time": 121918, "pitch": 38, "duration": 60, "velocity": 112}, {"time": 121918, "pitch": 46, "duration": 60, "velocity": 114}, {"time": 122277, "pitch": 38, "duration": 60, "velocity": 75}, {"time": 122277, "pitch": 42, "duration": 60, "velocity": 81}, {"time": 122518, "pitch": 38, "duration": 61, "velocity": 90}, {"time": 122518, "pitch": 42, "duration": 61, "velocity": 105}, {"time": 122641, "pitch": 36, "duration": 61, "velocity": 120}, {"time": 122641, "pitch": 46, "duration": 61, "velocity": 102}, {"time": 122884, "pitch": 38, "duration": 60, "velocity": 112}, {"time": 122884, "pitch": 46, "duration": 60, "velocity": 114}, {"time": 123124, "pitch": 42, "duration": 60, "velocity": 87}, {"time": 123363, "pitch": 36, "duration": 60, "velocity": 122}, {"time": 123363, "pitch": 42, "duration": 60, "velocity": 107}, {"time": 123602, "pitch": 42, "duration": 60, "velocity": 88}, {"time": 123842, "pitch": 38, "duration": 59, "velocity": 127}, {"time": 123842, "pitch": 46, "duration": 59, "velocity": 114}, {"time": 124201, "pitch": 38, "duration": 59, "velocity": 65}, {"time": 124201, "pitch": 42, "duration": 59, "velocity": 81}, {"time": 124440, "pitch": 38, "duration": 60, "velocity": 90}, {"time": 124440, "pitch": 42, "duration": 60, "velocity": 105}, {"time": 124559, "pitch": 46, "duration": 60, "velocity": 102}, {"time": 124799, "pitch": 38, "duration": 60, "velocity": 127}, {"time": 124799, "pitch": 46, "duration": 60, "velocity": 114}, {"time": 125038, "pitch": 36, "duration": 60, "velocity": 124}, {"time": 125038, "pitch": 42, "duration": 60, "velocity": 87}, {"time": 125277, "pitch": 42, "duration": 60, "velocity": 107}, {"time": 125517, "pitch": 42, "duration": 59, "velocity": 88}, {"time": 125756, "pitch": 38, "duration": 61, "velocity": 112}, {"time": 125756, "pitch": 46, "duration": 61, "velocity": 114}, {"time": 126122, "pitch": 38, "duration": 61, "velocity": 75}, {"time": 126122, "pitch": 42, "duration": 61, "velocity": 81}, {"time": 126363, "pitch": 38, "duration": 60, "velocity": 90}, {"time": 126363, "pitch": 42, "duration": 60, "velocity": 105}, {"time": 126483, "pitch": 36, "duration": 60, "velocity": 120}, {"time": 126483, "pitch": 46, "duration": 60, "velocity": 102}, {"time": 126722, "pitch": 38, "duration": 60, "velocity": 112}, {"time": 126722, "pitch": 46, "duration": 60, "velocity": 114}, {"time": 126962, "pitch": 42, "duration": 60, "velocity": 87}, {"time": 127201, "pitch": 36, "duration": 60, "velocity": 122}, {"time": 127201, "pitch": 42, "duration": 60, "velocity": 107}, {"time": 127440, "pitch": 42, "duration": 60, "velocity": 88}, {"time": 127680, "pitch": 38, "duration": 59, "velocity": 127}, {"time": 127680, "pitch": 46, "duration": 59, "velocity": 114}, {"time": 128038, "pitch": 38, "duration": 60, "velocity": 65}, {"time": 128038, "pitch": 42, "duration": 60, "velocity": 81}, {"time": 128278, "pitch": 38, "duration": 60, "velocity": 90}, {"time": 128278, "pitch": 42, "duration": 60, "velocity": 105}, {"time": 128397, "pitch": 46, "duration": 60, "velocity": 102}, {"time": 128637, "pitch": 38, "duration": 61, "velocity": 127}, {"time": 128637, "pitch": 46, "duration": 61, "velocity": 114}, {"time": 128881, "pitch": 36, "duration": 61, "velocity": 124}, {"time": 128881, "pitch": 42, "duration": 61, "velocity": 87}, {"time": 129125, "pitch": 42, "duration": 59, "velocity": 107}, {"time": 129364, "pitch": 42, "duration": 60, "velocity": 88}, {"time": 129603, "pitch": 38, "duration": 60, "velocity": 112}, {"time": 129603, "pitch": 46, "duration": 60, "velocity": 114}, {"time": 129962, "pitch": 38, "duration": 60, "velocity": 75}, {"time": 129962, "pitch": 42, "duration": 60, "velocity": 81}, {"time": 130201, "pitch": 38, "duration": 60, "velocity": 90}, {"time": 130201, "pitch": 42, "duration": 60, "velocity": 105}, {"time": 130321, "pitch": 36, "duration": 60, "velocity": 120}, {"time": 130321, "pitch": 46, "duration": 60, "velocity": 102}, {"time": 130560, "pitch": 38, "duration": 60, "velocity": 112}, {"time": 130560, "pitch": 46, "duration": 60, "velocity": 114}, {"time": 130800, "pitch": 42, "duration": 59, "velocity": 87}, {"time": 131039, "pitch": 36, "duration": 60, "velocity": 122}, {"time": 131039, "pitch": 42, "duration": 60, "velocity": 107}, {"time": 131278, "pitch": 42, "duration": 60, "velocity": 88}, {"time": 131517, "pitch": 38, "duration": 60, "velocity": 127}, {"time": 131517, "pitch": 46, "duration": 60, "velocity": 114}, {"time": 131876, "pitch": 38, "duration": 60, "velocity": 65}, {"time": 131876, "pitch": 42, "duration": 60, "velocity": 81}, {"time": 132118, "pitch": 38, "duration": 61, "velocity": 90}, {"time": 132118, "pitch": 42, "duration": 61, "velocity": 105}, {"time": 132240, "pitch": 46, "duration": 61, "velocity": 102}, {"time": 132484, "pitch": 38, "duration": 60, "velocity": 127}, {"time": 132484, "pitch": 46, "duration": 60, "velocity": 114}, {"time": 132723, "pitch": 36, "duration": 60, "velocity": 124}, {"time": 132723, "pitch": 42, "duration": 60, "velocity": 87}, {"time": 132963, "pitch": 42, "duration": 59, "velocity": 107}, {"time": 133202, "pitch": 42, "duration": 60, "velocity": 88}, {"time": 133441, "pitch": 38, "duration": 60, "velocity": 112}, {"time": 133441, "pitch": 46, "duration": 60, "velocity": 114}, {"time": 133800, "pitch": 38, "duration": 60, "velocity": 75}, {"time": 133800, "pitch": 42, "duration": 60, "velocity": 81}, {"time": 134039, "pitch": 38, "duration": 60, "velocity": 90}, {"time": 134039, "pitch": 42, "duration": 60, "velocity": 105}, {"time": 134159, "pitch": 36, "duration": 60, "velocity": 120}, {"time": 134159, "pitch": 46, "duration": 60, "velocity": 102}, {"time": 134398, "pitch": 38, "duration": 60, "velocity": 112}, {"time": 134398, "pitch": 46, "duration": 60, "velocity": 114}, {"time": 134638, "pitch": 42, "duration": 59, "velocity": 87}, {"time": 134877, "pitch": 36, "duration": 60, "velocity": 122}, {"time": 134877, "pitch": 42, "duration": 60, "velocity": 107}, {"time": 135116, "pitch": 42, "duration": 60, "velocity": 88}, {"time": 135355, "pitch": 38, "duration": 61, "velocity": 127}, {"time": 135355, "pitch": 46, "duration": 61, "velocity": 114}, {"time": 135721, "pitch": 38, "duration": 61, "velocity": 65}, {"time": 135721, "pitch": 42, "duration": 61, "velocity": 81}, {"time": 135963, "pitch": 38, "duration": 60, "velocity": 90}, {"time": 135963, "pitch": 42, "duration": 60, "velocity": 105}, {"time": 136083, "pitch": 46, "duration": 59, "velocity": 102}, {"time": 136322, "pitch": 38, "duration": 60, "velocity": 127}, {"time": 136322, "pitch": 46, "duration": 60, "velocity": 114}, {"time": 136561, "pitch": 36, "duration": 60, "velocity": 124}, {"time": 136561, "pitch": 42, "duration": 60, "velocity": 87}, {"time": 136800, "pitch": 42, "duration": 60, "velocity": 107}, {"time": 137040, "pitch": 42, "duration": 60, "velocity": 88}, {"time": 137279, "pitch": 38, "duration": 60, "velocity": 112}, {"time": 137279, "pitch": 46, "duration": 60, "velocity": 114}, {"time": 137638, "pitch": 38, "duration": 60, "velocity": 75}, {"time": 137638, "pitch": 42, "duration": 60, "velocity": 81}, {"time": 137877, "pitch": 38, "duration": 60, "velocity": 90}, {"time": 137877, "pitch": 42, "duration": 60, "velocity": 105}, {"time": 137997, "pitch": 36, "duration": 60, "velocity": 120}, {"time": 137997, "pitch": 46, "duration": 60, "velocity": 102}, {"time": 138236, "pitch": 38, "duration": 61, "velocity": 112}, {"time": 138236, "pitch": 46, "duration": 61, "velocity": 114}, {"time": 138480, "pitch": 42, "duration": 61, "velocity": 87}, {"time": 138724, "pitch": 36, "duration": 60, "velocity": 122}, {"time": 138724, "pitch": 42, "duration": 60, "velocity": 107}, {"time": 138963, "pitch": 42, "duration": 60, "velocity": 88}, {"time": 139203, "pitch": 38, "duration": 60, "velocity": 127}, {"time": 139203, "pitch": 46, "duration": 60, "velocity": 114}, {"time": 139562, "pitch": 38, "duration": 59, "velocity": 65}, {"time": 139562, "pitch": 42, "duration": 59, "velocity": 81}, {"time": 139801, "pitch": 38, "duration": 60, "velocity": 90}, {"time": 139801, "pitch": 42, "duration": 60, "velocity": 105}, {"time": 139921, "pitch": 46, "duration": 59, "velocity": 102}, {"time": 140160, "pitch": 38, "duration": 60, "velocity": 127}, {"time": 140160, "pitch": 46, "duration": 60, "velocity": 114}, {"time": 140399, "pitch": 36, "duration": 60, "velocity": 124}, {"time": 140399, "pitch": 42, "duration": 60, "velocity": 87}, {"time": 140638, "pitch": 42, "duration": 60, "velocity": 107}, {"time": 140878, "pitch": 42, "duration": 60, "velocity": 88}, {"time": 141117, "pitch": 38, "duration": 60, "velocity": 112}, {"time": 141117, "pitch": 46, "duration": 60, "velocity": 114}, {"time": 141476, "pitch": 38, "duration": 60, "velocity": 75}, {"time": 141476, "pitch": 42, "duration": 60, "velocity": 81}, {"time": 141717, "pitch": 38, "duration": 61, "velocity": 90}, {"time": 141717, "pitch": 42, "duration": 61, "velocity": 105}, {"time": 141840, "pitch": 36, "duration": 61, "velocity": 120}, {"time": 141840, "pitch": 46, "duration": 61, "velocity": 102}, {"time": 142084, "pitch": 38, "duration": 59, "velocity": 112}, {"time": 142084, "pitch": 46, "duration": 59, "velocity": 114}, {"time": 142323, "pitch": 42, "duration": 60, "velocity": 87}, {"time": 142562, "pitch": 36, "duration": 60, "velocity": 122}, {"time": 142562, "pitch": 42, "duration": 60, "velocity": 107}, {"time": 142801, "pitch": 42, "duration": 60, "velocity": 88}, {"time": 143041, "pitch": 38, "duration": 59, "velocity": 127}, {"time": 143041, "pitch": 46, "duration": 59, "velocity": 114}, {"time": 143400, "pitch": 38, "duration": 59, "velocity": 65}, {"time": 143400, "pitch": 42, "duration": 59, "velocity": 81}, {"time": 143639, "pitch": 38, "duration": 60, "velocity": 90}, {"time": 143639, "pitch": 42, "duration": 60, "velocity": 105}, {"time": 143758, "pitch": 46, "duration": 60, "velocity": 102}, {"time": 143998, "pitch": 38, "duration": 60, "velocity": 127}, {"time": 143998, "pitch": 46, "duration": 60, "velocity": 114}, {"time": 144237, "pitch": 36, "duration": 60, "velocity": 124}, {"time": 144237, "pitch": 42, "duration": 60, "velocity": 87}, {"time": 144476, "pitch": 42, "duration": 61, "velocity": 107}, {"time": 144720, "pitch": 42, "duration": 61, "velocity": 88}, {"time": 144964, "pitch": 38, "duration": 60, "velocity": 112}, {"time": 144964, "pitch": 46, "duration": 60, "velocity": 114}, {"time": 145323, "pitch": 38, "duration": 60, "velocity": 75}, {"time": 145323, "pitch": 42, "duration": 60, "velocity": 81}, {"time": 145563, "pitch": 38, "duration": 59, "velocity": 90}, {"time": 145563, "pitch": 42, "duration": 59, "velocity": 105}, {"time": 145682, "pitch": 36, "duration": 60, "velocity": 120}, {"time": 145682, "pitch": 46, "duration": 60, "velocity": 102}, {"time": 145921, "pitch": 38, "duration": 60, "velocity": 112}, {"time": 145921, "pitch": 46, "duration": 60, "velocity": 114}, {"time": 146161, "pitch": 42, "duration": 60, "velocity": 87}, {"time": 146400, "pitch": 36, "duration": 60, "velocity": 122}, {"time": 146400, "pitch": 42, "duration": 60, "velocity": 107}, {"time": 146639, "pitch": 42, "duration": 60, "velocity": 88}, {"time": 146879, "pitch": 38, "duration": 59, "velocity": 127}, {"time": 146879, "pitch": 46, "duration": 59, "velocity": 114}, {"time": 147237, "pitch": 38, "duration": 60, "velocity": 65}, {"time": 147237, "pitch": 42, "duration": 60, "velocity": 81}, {"time": 147477, "pitch": 38, "duration": 60, "velocity": 90}, {"time": 147477, "pitch": 42, "duration": 60, "velocity": 105}, {"time": 147596, "pitch": 46, "duration": 60, "velocity": 102}, {"time": 147836, "pitch": 38, "duration": 61, "velocity": 127}, {"time": 147836, "pitch": 46, "duration": 61, "velocity": 114}, {"time": 148080, "pitch": 36, "duration": 61, "velocity": 124}, {"time": 148080, "pitch": 42, "duration": 61, "velocity": 87}, {"time": 148324, "pitch": 42, "duration": 59, "velocity": 107}, {"time": 148563, "pitch": 42, "duration": 60, "velocity": 88}, {"time": 148802, "pitch": 38, "duration": 60, "velocity": 112}, {"time": 148802, "pitch": 46, "duration": 60, "velocity": 114}, {"time": 149161, "pitch": 38, "duration": 60, "velocity": 75}, {"time": 149161, "pitch": 42, "duration": 60, "velocity": 81}, {"time": 149400, "pitch": 38, "duration": 60, "velocity": 90}, {"time": 149400, "pitch": 42, "duration": 60, "velocity": 105}, {"time": 149520, "pitch": 36, "duration": 60, "velocity": 120}, {"time": 149520, "pitch": 46, "duration": 60, "velocity": 102}, {"time": 149759, "pitch": 38, "duration": 60, "velocity": 112}, {"time": 149759, "pitch": 46, "duration": 60, "velocity": 114}, {"time": 149999, "pitch": 42, "duration": 59, "velocity": 87}, {"time": 150238, "pitch": 36, "duration": 60, "velocity": 122}, {"time": 150238, "pitch": 42, "duration": 60, "velocity": 107}, {"time": 150477, "pitch": 42, "duration": 60, "velocity": 88}, {"time": 150716, "pitch": 38, "duration": 61, "velocity": 127}, {"time": 150716, "pitch": 46, "duration": 61, "velocity": 114}, {"time": 151083, "pitch": 38, "duration": 61, "velocity": 65}, {"time": 151083, "pitch": 42, "duration": 61, "velocity": 81}, {"time": 151324, "pitch": 38, "duration": 60, "velocity": 90}, {"time": 151324, "pitch": 42, "duration": 60, "velocity": 105}, {"time": 151444, "pitch": 46, "duration": 60, "velocity": 102}, {"time": 151683, "pitch": 38, "duration": 60, "velocity": 127}, {"time": 151683, "pitch": 46, "duration": 60, "velocity": 114}, {"time": 151922, "pitch": 36, "duration": 60, "velocity": 124}, {"time": 151922, "pitch": 42, "duration": 60, "velocity": 87}, {"time": 152162, "pitch": 42, "duration": 59, "velocity": 107}, {"time": 152401, "pitch": 42, "duration": 60, "velocity": 88}, {"time": 152640, "pitch": 38, "duration": 60, "velocity": 112}, {"time": 152640, "pitch": 46, "duration": 60, "velocity": 114}, {"time": 152999, "pitch": 38, "duration": 60, "velocity": 75}, {"time": 152999, "pitch": 42, "duration": 60, "velocity": 81}, {"time": 153238, "pitch": 38, "duration": 60, "velocity": 90}, {"time": 153238, "pitch": 42, "duration": 60, "velocity": 105}, {"time": 153358, "pitch": 36, "duration": 60, "velocity": 120}, {"time": 153358, "pitch": 46, "duration": 60, "velocity": 102}, {"time": 153597, "pitch": 38, "duration": 60, "velocity": 112}, {"time": 153597, "pitch": 46, "duration": 60, "velocity": 114}, {"time": 153837, "pitch": 42, "duration": 59, "velocity": 87}, {"time": 154076, "pitch": 36, "duration": 61, "velocity": 122}, {"time": 154076, "pitch": 42, "duration": 61, "velocity": 107}, {"time": 154320, "pitch": 42, "duration": 61, "velocity": 88}, {"time": 154564, "pitch": 38, "duration": 60, "velocity": 127}, {"time": 154564, "pitch": 46, "duration": 60, "velocity": 114}, {"time": 154923, "pitch": 38, "duration": 60, "velocity": 65}, {"time": 154923, "pitch": 42, "duration": 60, "velocity": 81}, {"time": 155162, "pitch": 38, "duration": 60, "velocity": 90}, {"time": 155162, "pitch": 42, "duration": 60, "velocity": 105}, {"time": 155282, "pitch": 46, "duration": 59, "velocity": 102}, {"time": 155521, "pitch": 38, "duration": 60, "velocity": 127}, {"time": 155521, "pitch": 46, "duration": 60, "velocity": 114}, {"time": 155760, "pitch": 36, "duration": 60, "velocity": 124}, {"time": 155760, "pitch": 42, "duration": 60, "velocity": 87}, {"time": 156000, "pitch": 42, "duration": 59, "velocity": 107}, {"time": 156239, "pitch": 42, "duration": 60, "velocity": 88}, {"time": 156478, "pitch": 38, "duration": 60, "velocity": 112}, {"time": 156478, "pitch": 46, "duration": 60, "velocity": 114}, {"time": 156837, "pitch": 38, "duration": 60, "velocity": 75}, {"time": 156837, "pitch": 42, "duration": 60, "velocity": 81}, {"time": 157079, "pitch": 38, "duration": 61, "velocity": 90}, {"time": 157079, "pitch": 42, "duration": 61, "velocity": 105}, {"time": 157201, "pitch": 36, "duration": 61, "velocity": 120}, {"time": 157201, "pitch": 46, "duration": 61, "velocity": 102}, {"time": 157445, "pitch": 38, "duration": 59, "velocity": 112}, {"time": 157445, "pitch": 46, "duration": 59, "velocity": 114}, {"time": 157684, "pitch": 42, "duration": 60, "velocity": 87}, {"time": 157923, "pitch": 36, "duration": 60, "velocity": 122}, {"time": 157923, "pitch": 42, "duration": 60, "velocity": 107}, {"time": 158162, "pitch": 42, "duration": 60, "velocity": 88}, {"time": 158402, "pitch": 38, "duration": 60, "velocity": 127}, {"time": 158402, "pitch": 46, "duration": 60, "velocity": 114}, {"time": 158761, "pitch": 38, "duration": 59, "velocity": 65}, {"time": 158761, "pitch": 42, "duration": 59, "velocity": 81}, {"time": 159000, "pitch": 38, "duration": 60, "velocity": 90}, {"time": 159000, "pitch": 42, "duration": 60, "velocity": 105}, {"time": 159120, "pitch": 46, "duration": 59, "velocity": 102}, {"time": 159359, "pitch": 38, "duration": 60, "velocity": 127}, {"time": 159359, "pitch": 46, "duration": 60, "velocity": 114}, {"time": 159598, "pitch": 36, "duration": 60, "velocity": 124}, {"time": 159598, "pitch": 42, "duration": 60, "velocity": 87}, {"time": 159837, "pitch": 42, "duration": 60, "velocity": 107}, {"time": 160077, "pitch": 42, "duration": 60, "velocity": 88}, {"time": 160316, "pitch": 38, "duration": 61, "velocity": 112}, {"time": 160316, "pitch": 46, "duration": 61, "velocity": 114}, {"time": 160682, "pitch": 38, "duration": 61, "velocity": 75}, {"time": 160682, "pitch": 42, "duration": 61, "velocity": 81}, {"time": 160924, "pitch": 38, "duration": 59, "velocity": 90}, {"time": 160924, "pitch": 42, "duration": 59, "velocity": 105}, {"time": 161043, "pitch": 36, "duration": 60, "velocity": 120}, {"time": 161043, "pitch": 46, "duration": 60, "velocity": 102}, {"time": 161283, "pitch": 38, "duration": 59, "velocity": 112}, {"time": 161283, "pitch": 46, "duration": 59, "velocity": 114}, {"time": 161522, "pitch": 42, "duration": 60, "velocity": 87}, {"time": 161761, "pitch": 36, "duration": 60, "velocity": 122}, {"time": 161761, "pitch": 42, "duration": 60, "velocity": 107}, {"time": 162000, "pitch": 42, "duration": 60, "velocity": 88}, {"time": 162240, "pitch": 38, "duration": 59, "velocity": 127}, {"time": 162240, "pitch": 46, "duration": 59, "velocity": 114}, {"time": 162599, "pitch": 38, "duration": 59, "velocity": 65}, {"time": 162599, "pitch": 42, "duration": 59, "velocity": 81}, {"time": 162838, "pitch": 38, "duration": 60, "velocity": 90}, {"time": 162838, "pitch": 42, "duration": 60, "velocity": 105}, {"time": 162958, "pitch": 46, "duration": 59, "velocity": 102}, {"time": 163197, "pitch": 38, "duration": 60, "velocity": 127}, {"time": 163197, "pitch": 46, "duration": 60, "velocity": 114}, {"time": 163436, "pitch": 36, "duration": 60, "velocity": 124}, {"time": 163436, "pitch": 42, "duration": 60, "velocity": 87}, {"time": 163675, "pitch": 42, "duration": 61, "velocity": 107}, {"time": 163919, "pitch": 42, "duration": 61, "velocity": 88}, {"time": 164163, "pitch": 38, "duration": 60, "velocity": 112}, {"time": 164163, "pitch": 46, "duration": 60, "velocity": 114}, {"time": 164522, "pitch": 38, "duration": 60, "velocity": 75}, {"time": 164522, "pitch": 42, "duration": 60, "velocity": 81}, {"time": 164762, "pitch": 38, "duration": 59, "velocity": 90}, {"time": 164762, "pitch": 42, "duration": 59, "velocity": 105}, {"time": 164881, "pitch": 36, "duration": 60, "velocity": 120}, {"time": 164881, "pitch": 46, "duration": 60, "velocity": 102}, {"time": 165120, "pitch": 38, "duration": 60, "velocity": 112}, {"time": 165120, "pitch": 46, "duration": 60, "velocity": 114}, {"time": 165360, "pitch": 42, "duration": 60, "velocity": 87}, {"time": 165599, "pitch": 36, "duration": 60, "velocity": 122}, {"time": 165599, "pitch": 42, "duration": 60, "velocity": 107}, {"time": 165838, "pitch": 42, "duration": 60, "velocity": 88}, {"time": 166078, "pitch": 38, "duration": 59, "velocity": 127}, {"time": 166078, "pitch": 46, "duration": 59, "velocity": 114}, {"time": 166437, "pitch": 38, "duration": 59, "velocity": 65}, {"time": 166437, "pitch": 42, "duration": 59, "velocity": 81}, {"time": 166678, "pitch": 38, "duration": 61, "velocity": 90}, {"time": 166678, "pitch": 42, "duration": 61, "velocity": 105}, {"time": 166800, "pitch": 46, "duration": 61, "velocity": 102}, {"time": 167044, "pitch": 38, "duration": 60, "velocity": 127}, {"time": 167044, "pitch": 46, "duration": 60, "velocity": 114}, {"time": 167283, "pitch": 36, "duration": 60, "velocity": 124}, {"time": 167283, "pitch": 42, "duration": 60, "velocity": 87}, {"time": 167523, "pitch": 42, "duration": 60, "velocity": 107}, {"time": 167762, "pitch": 42, "duration": 60, "velocity": 88}, {"time": 168001, "pitch": 38, "duration": 60, "velocity": 112}, {"time": 168001, "pitch": 46, "duration": 60, "velocity": 114}, {"time": 168360, "pitch": 38, "duration": 60, "velocity": 75}, {"time": 168360, "pitch": 42, "duration": 60, "velocity": 81}, {"time": 168599, "pitch": 38, "duration": 60, "velocity": 90}, {"time": 168599, "pitch": 42, "duration": 60, "velocity": 105}, {"time": 168719, "pitch": 36, "duration": 60, "velocity": 120}, {"time": 168719, "pitch": 46, "duration": 60, "velocity": 102}, {"time": 168958, "pitch": 38, "duration": 60, "velocity": 112}, {"time": 168958, "pitch": 46, "duration": 60, "velocity": 114}, {"time": 169198, "pitch": 42, "duration": 59, "velocity": 87}, {"time": 169437, "pitch": 36, "duration": 60, "velocity": 122}, {"time": 169437, "pitch": 42, "duration": 60, "velocity": 107}, {"time": 169676, "pitch": 42, "duration": 60, "velocity": 88}, {"time": 169915, "pitch": 38, "duration": 61, "velocity": 127}, {"time": 169915, "pitch": 46, "duration": 61, "velocity": 114}, {"time": 170282, "pitch": 38, "duration": 61, "velocity": 65}, {"time": 170282, "pitch": 42, "duration": 61, "velocity": 81}, {"time": 170523, "pitch": 38, "duration": 60, "velocity": 90}, {"time": 170523, "pitch": 42, "duration": 60, "velocity": 105}, {"time": 170643, "pitch": 46, "duration": 60, "velocity": 102}, {"time": 170882, "pitch": 38, "duration": 60, "velocity": 127}, {"time": 170882, "pitch": 46, "duration": 60, "velocity": 114}, {"time": 171121, "pitch": 36, "duration": 60, "velocity": 124}, {"time": 171121, "pitch": 42, "duration": 60, "velocity": 87}, {"time": 171361, "pitch": 42, "duration": 59, "velocity": 107}, {"time": 171600, "pitch": 42, "duration": 60, "velocity": 88}, {"time": 171839, "pitch": 38, "duration": 60, "velocity": 112}, {"time": 171839, "pitch": 46, "duration": 60, "velocity": 114}, {"time": 172198, "pitch": 38, "duration": 60, "velocity": 75}, {"time": 172198, "pitch": 42, "duration": 60, "velocity": 81}, {"time": 172437, "pitch": 38, "duration": 60, "velocity": 90}, {"time": 172437, "pitch": 42, "duration": 60, "velocity": 105}, {"time": 172557, "pitch": 36, "duration": 60, "velocity": 120}, {"time": 172557, "pitch": 46, "duration": 60, "velocity": 102}, {"time": 172796, "pitch": 38, "duration": 61, "velocity": 112}, {"time": 172796, "pitch": 46, "duration": 61, "velocity": 114}, {"time": 173040, "pitch": 42, "duration": 61, "velocity": 87}, {"time": 173284, "pitch": 36, "duration": 60, "velocity": 122}, {"time": 173284, "pitch": 42, "duration": 60, "velocity": 107}, {"time": 173524, "pitch": 42, "duration": 59, "velocity": 88}, {"time": 173763, "pitch": 38, "duration": 60, "velocity": 127}, {"time": 173763, "pitch": 46, "duration": 60, "velocity": 114}, {"time": 174122, "pitch": 38, "duration": 60, "velocity": 65}, {"time": 174122, "pitch": 42, "duration": 60, "velocity": 81}, {"time": 174361, "pitch": 38, "duration": 60, "velocity": 90}, {"time": 174361, "pitch": 42, "duration": 60, "velocity": 105}, {"time": 174481, "pitch": 46, "duration": 59, "velocity": 102}, {"time": 174720, "pitch": 38, "duration": 60, "velocity": 127}, {"time": 174720, "pitch": 46, "duration": 60, "velocity": 114}, {"time": 174959, "pitch": 36, "duration": 60, "velocity": 124}, {"time": 174959, "pitch": 42, "duration": 60, "velocity": 87}, {"time": 177122, "pitch": 36, "duration": 60, "velocity": 122}, {"time": 177122, "pitch": 42, "duration": 60, "velocity": 107}, {"time": 177361, "pitch": 42, "duration": 60, "velocity": 88}, {"time": 177601, "pitch": 38, "duration": 60, "velocity": 127}, {"time": 177601, "pitch": 46, "duration": 60, "velocity": 114}, {"time": 177960, "pitch": 38, "duration": 59, "velocity": 65}, {"time": 177960, "pitch": 42, "duration": 59, "velocity": 81}, {"time": 178199, "pitch": 38, "duration": 60, "velocity": 90}, {"time": 178199, "pitch": 42, "duration": 60, "velocity": 105}, {"time": 178319, "pitch": 46, "duration": 59, "velocity": 102}, {"time": 178558, "pitch": 38, "duration": 60, "velocity": 127}, {"time": 178558, "pitch": 46, "duration": 60, "velocity": 114}, {"time": 178797, "pitch": 36, "duration": 60, "velocity": 124}, {"time": 178797, "pitch": 42, "duration": 60, "velocity": 87}, {"time": 179036, "pitch": 42, "duration": 61, "velocity": 107}, {"time": 179280, "pitch": 42, "duration": 61, "velocity": 88}, {"time": 179524, "pitch": 38, "duration": 60, "velocity": 112}, {"time": 179524, "pitch": 46, "duration": 60, "velocity": 114}, {"time": 179883, "pitch": 38, "duration": 60, "velocity": 75}, {"time": 179883, "pitch": 42, "duration": 60, "velocity": 81}, {"time": 180123, "pitch": 38, "duration": 59, "velocity": 90}, {"time": 180123, "pitch": 42, "duration": 59, "velocity": 105}, {"time": 180242, "pitch": 36, "duration": 60, "velocity": 120}, {"time": 180242, "pitch": 46, "duration": 60, "velocity": 102}, {"time": 180482, "pitch": 38, "duration": 59, "velocity": 112}, {"time": 180482, "pitch": 46, "duration": 59, "velocity": 114}, {"time": 180721, "pitch": 42, "duration": 60, "velocity": 87}, {"time": 180960, "pitch": 36, "duration": 60, "velocity": 122}, {"time": 180960, "pitch": 42, "duration": 60, "velocity": 107}, {"time": 181199, "pitch": 42, "duration": 60, "velocity": 88}, {"time": 181439, "pitch": 38, "duration": 59, "velocity": 127}, {"time": 181439, "pitch": 46, "duration": 59, "velocity": 114}, {"time": 181798, "pitch": 38, "duration": 59, "velocity": 65}, {"time": 181798, "pitch": 42, "duration": 59, "velocity": 81}, {"time": 182037, "pitch": 38, "duration": 60, "velocity": 90}, {"time": 182037, "pitch": 42, "duration": 60, "velocity": 105}, {"time": 182157, "pitch": 46, "duration": 59, "velocity": 102}, {"time": 182396, "pitch": 38, "duration": 61, "velocity": 127}, {"time": 182396, "pitch": 46, "duration": 61, "velocity": 114}, {"time": 182640, "pitch": 36, "duration": 61, "velocity": 124}, {"time": 182640, "pitch": 42, "duration": 61, "velocity": 87}, {"time": 182884, "pitch": 42, "duration": 60, "velocity": 107}, {"time": 183123, "pitch": 42, "duration": 60, "velocity": 88}, {"time": 183362, "pitch": 38, "duration": 60, "velocity": 112}, {"time": 183362, "pitch": 46, "duration": 60, "velocity": 114}, {"time": 183721, "pitch": 38, "duration": 60, "velocity": 75}, {"time": 183721, "pitch": 42, "duration": 60, "velocity": 81}, {"time": 183961, "pitch": 38, "duration": 59, "velocity": 90}, {"time": 183961, "pitch": 42, "duration": 59, "velocity": 105}, {"time": 184080, "pitch": 36, "duration": 60, "velocity": 120}, {"time": 184080, "pitch": 46, "duration": 60, "velocity": 102}, {"time": 184319, "pitch": 38, "duration": 60, "velocity": 112}, {"time": 184319, "pitch": 46, "duration": 60, "velocity": 114}, {"time": 184559, "pitch": 42, "duration": 60, "velocity": 87}, {"time": 184798, "pitch": 36, "duration": 60, "velocity": 122}, {"time": 184798, "pitch": 42, "duration": 60, "velocity": 107}, {"time": 185037, "pitch": 42, "duration": 60, "velocity": 88}, {"time": 185277, "pitch": 38, "duration": 61, "velocity": 127}, {"time": 185277, "pitch": 46, "duration": 61, "velocity": 114}, {"time": 185643, "pitch": 38, "duration": 61, "velocity": 65}, {"time": 185643, "pitch": 42, "duration": 61, "velocity": 81}, {"time": 185884, "pitch": 38, "duration": 60, "velocity": 90}, {"time": 185884, "pitch": 42, "duration": 60, "velocity": 105}, {"time": 186004, "pitch": 46, "duration": 60, "velocity": 102}, {"time": 186243, "pitch": 38, "duration": 60, "velocity": 127}, {"time": 186243, "pitch": 46, "duration": 60, "velocity": 114}, {"time": 186482, "pitch": 36, "duration": 60, "velocity": 124}, {"time": 186482, "pitch": 42, "duration": 60, "velocity": 87}, {"time": 186722, "pitch": 42, "duration": 60, "velocity": 107}, {"time": 186961, "pitch": 42, "duration": 60, "velocity": 88}, {"time": 187200, "pitch": 38, "duration": 60, "velocity": 112}, {"time": 187200, "pitch": 46, "duration": 60, "velocity": 114}, {"time": 187559, "pitch": 38, "duration": 60, "velocity": 75}, {"time": 187559, "pitch": 42, "duration": 60, "velocity": 81}, {"time": 187798, "pitch": 38, "duration": 60, "velocity": 90}, {"time": 187798, "pitch": 42, "duration": 60, "velocity": 105}, {"time": 187918, "pitch": 36, "duration": 60, "velocity": 120}, {"time": 187918, "pitch": 46, "duration": 60, "velocity": 102}, {"time": 188157, "pitch": 38, "duration": 60, "velocity": 112}, {"time": 188157, "pitch": 46, "duration": 60, "velocity": 114}, {"time": 188397, "pitch": 42, "duration": 59, "velocity": 87}, {"time": 188636, "pitch": 36, "duration": 61, "velocity": 122}, {"time": 188636, "pitch": 42, "duration": 61, "velocity": 107}, {"time": 188880, "pitch": 42, "duration": 61, "velocity": 88}, {"time": 189124, "pitch": 38, "duration": 60, "velocity": 127}, {"time": 189124, "pitch": 46, "duration": 60, "velocity": 114}, {"time": 189483, "pitch": 38, "duration": 60, "velocity": 65}, {"time": 189483, "pitch": 42, "duration": 60, "velocity": 81}, {"time": 189722, "pitch": 38, "duration": 60, "velocity": 90}, {"time": 189722, "pitch": 42, "duration": 60, "velocity": 105}, {"time": 189842, "pitch": 46, "duration": 60, "velocity": 102}, {"time": 190081, "pitch": 38, "duration": 60, "velocity": 127}, {"time": 190081, "pitch": 46, "duration": 60, "velocity": 114}, {"time": 190320, "pitch": 36, "duration": 60, "velocity": 124}, {"time": 190320, "pitch": 42, "duration": 60, "velocity": 87}, {"time": 190560, "pitch": 42, "duration": 59, "velocity": 107}, {"time": 190799, "pitch": 42, "duration": 60, "velocity": 88}, {"time": 191038, "pitch": 38, "duration": 60, "velocity": 112}, {"time": 191038, "pitch": 46, "duration": 60, "velocity": 114}, {"time": 191397, "pitch": 38, "duration": 60, "velocity": 75}, {"time": 191397, "pitch": 42, "duration": 60, "velocity": 81}, {"time": 191636, "pitch": 38, "duration": 60, "velocity": 90}, {"time": 191636, "pitch": 42, "duration": 60, "velocity": 105}, {"time": 191756, "pitch": 36, "duration": 60, "velocity": 120}, {"time": 191756, "pitch": 46, "duration": 60, "velocity": 102}, {"time": 191995, "pitch": 38, "duration": 61, "velocity": 112}, {"time": 191995, "pitch": 46, "duration": 61, "velocity": 114}, {"time": 192239, "pitch": 42, "duration": 61, "velocity": 87}, {"time": 192483, "pitch": 36, "duration": 60, "velocity": 122}, {"time": 192483, "pitch": 42, "duration": 60, "velocity": 107}, {"time": 192723, "pitch": 42, "duration": 59, "velocity": 88}, {"time": 192962, "pitch": 38, "duration": 60, "velocity": 127}, {"time": 192962, "pitch": 46, "duration": 60, "velocity": 114}, {"time": 193321, "pitch": 38, "duration": 60, "velocity": 65}, {"time": 193321, "pitch": 42, "duration": 60, "velocity": 81}, {"time": 193560, "pitch": 38, "duration": 60, "velocity": 90}, {"time": 193560, "pitch": 42, "duration": 60, "velocity": 105}, {"time": 193680, "pitch": 46, "duration": 60, "velocity": 102}, {"time": 193919, "pitch": 38, "duration": 60, "velocity": 127}, {"time": 193919, "pitch": 46, "duration": 60, "velocity": 114}, {"time": 194158, "pitch": 36, "duration": 60, "velocity": 124}, {"time": 194158, "pitch": 42, "duration": 60, "velocity": 87}, {"time": 194398, "pitch": 42, "duration": 59, "velocity": 107}, {"time": 194637, "pitch": 42, "duration": 60, "velocity": 88}, {"time": 194876, "pitch": 38, "duration": 61, "velocity": 112}, {"time": 194876, "pitch": 46, "duration": 61, "velocity": 114}, {"time": 195242, "pitch": 38, "duration": 61, "velocity": 75}, {"time": 195242, "pitch": 42, "duration": 61, "velocity": 81}, {"time": 195484, "pitch": 38, "duration": 60, "velocity": 90}, {"time": 195484, "pitch": 42, "duration": 60, "velocity": 105}, {"time": 195603, "pitch": 36, "duration": 60, "velocity": 120}, {"time": 195603, "pitch": 46, "duration": 60, "velocity": 102}, {"time": 195843, "pitch": 38, "duration": 59, "velocity": 112}, {"time": 195843, "pitch": 46, "duration": 59, "velocity": 114}, {"time": 196082, "pitch": 42, "duration": 60, "velocity": 87}, {"time": 196321, "pitch": 36, "duration": 60, "velocity": 122}, {"time": 196321, "pitch": 42, "duration": 60, "velocity": 107}, {"time": 196560, "pitch": 42, "duration": 60, "velocity": 88}, {"time": 196800, "pitch": 38, "duration": 60, "velocity": 127}, {"time": 196800, "pitch": 46, "duration": 60, "velocity": 114}, {"time": 197159, "pitch": 38, "duration": 60, "velocity": 65}, {"time": 197159, "pitch": 42, "duration": 60, "velocity": 81}, {"time": 197398, "pitch": 38, "duration": 60, "velocity": 90}, {"time": 197398, "pitch": 42, "duration": 60, "velocity": 105}, {"time": 197518, "pitch": 46, "duration": 59, "velocity": 102}, {"time": 197757, "pitch": 38, "duration": 60, "velocity": 127}, {"time": 197757, "pitch": 46, "duration": 60, "velocity": 114}, {"time": 197996, "pitch": 36, "duration": 60, "velocity": 124}, {"time": 197996, "pitch": 42, "duration": 60, "velocity": 87}, {"time": 198235, "pitch": 42, "duration": 61, "velocity": 107}, {"time": 198479, "pitch": 42, "duration": 61, "velocity": 88}, {"time": 198723, "pitch": 38, "duration": 60, "velocity": 112}, {"time": 198723, "pitch": 46, "duration": 60, "velocity": 114}, {"time": 199082, "pitch": 38, "duration": 60, "velocity": 75}, {"time": 199082, "pitch": 42, "duration": 60, "velocity": 81}, {"time": 199322, "pitch": 38, "duration": 59, "velocity": 90}, {"time": 199322, "pitch": 42, "duration": 59, "velocity": 105}, {"time": 199441, "pitch": 36, "duration": 60, "velocity": 120}, {"time": 199441, "pitch": 46, "duration": 60, "velocity": 102}, {"time": 199681, "pitch": 38, "duration": 59, "velocity": 112}, {"time": 199681, "pitch": 46, "duration": 59, "velocity": 114}, {"time": 199920, "pitch": 42, "duration": 60, "velocity": 87}, {"time": 200159, "pitch": 36, "duration": 60, "velocity": 122}, {"time": 200159, "pitch": 42, "duration": 60, "velocity": 107}, {"time": 200398, "pitch": 42, "duration": 60, "velocity": 88}, {"time": 200638, "pitch": 38, "duration": 60, "velocity": 127}, {"time": 200638, "pitch": 46, "duration": 60, "velocity": 114}, {"time": 200997, "pitch": 38, "duration": 59, "velocity": 65}, {"time": 200997, "pitch": 42, "duration": 59, "velocity": 81}, {"time": 201238, "pitch": 38, "duration": 61, "velocity": 90}, {"time": 201238, "pitch": 42, "duration": 61, "velocity": 105}, {"time": 201360, "pitch": 46, "duration": 61, "velocity": 102}, {"time": 201604, "pitch": 38, "duration": 60, "velocity": 127}, {"time": 201604, "pitch": 46, "duration": 60, "velocity": 114}, {"time": 201844, "pitch": 36, "duration": 59, "velocity": 124}, {"time": 201844, "pitch": 42, "duration": 59, "velocity": 87}, {"time": 202083, "pitch": 42, "duration": 60, "velocity": 107}, {"time": 202322, "pitch": 42, "duration": 60, "velocity": 88}, {"time": 202561, "pitch": 38, "duration": 60, "velocity": 112}, {"time": 202561, "pitch": 46, "duration": 60, "velocity": 114}, {"time": 202920, "pitch": 38, "duration": 60, "velocity": 75}, {"time": 202920, "pitch": 42, "duration": 60, "velocity": 81}, {"time": 203160, "pitch": 38, "duration": 59, "velocity": 90}, {"time": 203160, "pitch": 42, "duration": 59, "velocity": 105}, {"time": 203279, "pitch": 36, "duration": 60, "velocity": 120}, {"time": 203279, "pitch": 46, "duration": 60, "velocity": 102}, {"time": 203518, "pitch": 38, "duration": 60, "velocity": 112}, {"time": 203518, "pitch": 46, "duration": 60, "velocity": 114}, {"time": 203758, "pitch": 42, "duration": 60, "velocity": 87}, {"time": 203997, "pitch": 36, "duration": 60, "velocity": 122}, {"time": 203997, "pitch": 42, "duration": 60, "velocity": 107}, {"time": 204236, "pitch": 42, "duration": 60, "velocity": 88}, {"time": 204476, "pitch": 38, "duration": 61, "velocity": 127}, {"time": 204476, "pitch": 46, "duration": 61, "velocity": 114}, {"time": 204842, "pitch": 38, "duration": 61, "velocity": 65}, {"time": 204842, "pitch": 42, "duration": 61, "velocity": 81}], "annotations": [{"time": 219, "annotation": {"number": 0, "value": 0}, "group": "control_change"}, {"time": 241, "annotation": {"number": 32, "value": 0}, "group": "control_change"}, {"time": 285, "annotation": {"number": 7, "value": 98}, "group": "control_change"}, {"time": 307, "annotation": {"number": 11, "value": 127}, "group": "control_change"}, {"time": 329, "annotation": {"number": 10, "value": 64}, "group": "control_change"}, {"time": 350, "annotation": {"number": 91, "value": 0}, "group": "control_change"}, {"time": 372, "annotation": {"number": 93, "value": 0}, "group": "control_change"}, {"time": 394, "annotation": {"number": 101, "value": 0}, "group": "control_change"}, {"time": 416, "annotation": {"number": 100, "value": 0}, "group": "control_change"}, {"time": 438, "annotation": {"number": 6, "value": 12}, "group": "control_change"}, {"time": 460, "annotation": {"number": 101, "value": 127}, "group": "control_change"}, {"time": 484, "annotation": {"number": 100, "value": 127}, "group": "control_change"}]}, {"program": 0, "is_drum": false, "name": "BRASS ", "annotations": [{"time": 219, "annotation": {"number": 0, "value": 0}, "group": "control_change"}, {"time": 241, "annotation": {"number": 32, "value": 0}, "group": "control_change"}]}, {"program": 61, "is_drum": false, "name": "BRASS ", "notes": [{"time": 54700, "pitch": 72, "duration": 79, "velocity": 116}, {"time": 54700, "pitch": 84, "duration": 79, "velocity": 116}, {"time": 54722, "pitch": 73, "duration": 356, "velocity": 123}, {"time": 54722, "pitch": 85, "duration": 356, "velocity": 123}, {"time": 55091, "pitch": 71, "duration": 146, "velocity": 127}, {"time": 55091, "pitch": 83, "duration": 146, "velocity": 127}, {"time": 55331, "pitch": 69, "duration": 100, "velocity": 110}, {"time": 55331, "pitch": 81, "duration": 100, "velocity": 110}, {"time": 55440, "pitch": 71, "duration": 125, "velocity": 123}, {"time": 55440, "pitch": 83, "duration": 125, "velocity": 123}, {"time": 56593, "pitch": 72, "duration": 85, "velocity": 118}, {"time": 56593, "pitch": 84, "duration": 85, "velocity": 118}, {"time": 56637, "pitch": 73, "duration": 332, "velocity": 116}, {"time": 56637, "pitch": 85, "duration": 332, "velocity": 116}, {"time": 57013, "pitch": 71, "duration": 135, "velocity": 125}, {"time": 57013, "pitch": 83, "duration": 135, "velocity": 125}, {"time": 57254, "pitch": 69, "duration": 68, "velocity": 107}, {"time": 57254, "pitch": 81, "duration": 68, "velocity": 107}, {"time": 57365, "pitch": 69, "duration": 126, "velocity": 121}, {"time": 57365, "pitch": 81, "duration": 126, "velocity": 121}, {"time": 58548, "pitch": 71, "duration": 51, "velocity": 125}, {"time": 58548, "pitch": 83, "duration": 51, "velocity": 125}, {"time": 58560, "pitch": 72, "duration": 327, "velocity": 120}, {"time": 58560, "pitch": 84, "duration": 327, "velocity": 120}, {"time": 58929, "pitch": 71, "duration": 88, "velocity": 121}, {"time": 58929, "pitch": 83, "duration": 88, "velocity": 121}, {"time": 59168, "pitch": 69, "duration": 99, "velocity": 107}, {"time": 59168, "pitch": 81, "duration": 99, "velocity": 107}, {"time": 59278, "pitch": 71, "duration": 177, "velocity": 118}, {"time": 59278, "pitch": 83, "duration": 177, "velocity": 118}, {"time": 60963, "pitch": 73, "duration": 93, "velocity": 127}, {"time": 60963, "pitch": 80, "duration": 93, "velocity": 127}, {"time": 60963, "pitch": 85, "duration": 93, "velocity": 127}, {"time": 61202, "pitch": 73, "duration": 82, "velocity": 127}, {"time": 61202, "pitch": 80, "duration": 82, "velocity": 127}, {"time": 61202, "pitch": 85, "duration": 82, "velocity": 127}, {"time": 61441, "pitch": 73, "duration": 114, "velocity": 127}, {"time": 61441, "pitch": 80, "duration": 114, "velocity": 127}, {"time": 61441, "pitch": 85, "duration": 114, "velocity": 127}, {"time": 61571, "pitch": 73, "duration": 78, "velocity": 127}, {"time": 61571, "pitch": 80, "duration": 78, "velocity": 127}, {"time": 61571, "pitch": 85, "duration": 78, "velocity": 127}, {"time": 63973, "pitch": 75, "duration": 85, "velocity": 127}, {"time": 63973, "pitch": 84, "duration": 85, "velocity": 127}, {"time": 63973, "pitch": 87, "duration": 85, "velocity": 127}, {"time": 64212, "pitch": 75, "duration": 65, "velocity": 127}, {"time": 64212, "pitch": 84, "duration": 65, "velocity": 127}, {"time": 64212, "pitch": 87, "duration": 65, "velocity": 127}, {"time": 64322, "pitch": 75, "duration": 103, "velocity": 127}, {"time": 64322, "pitch": 84, "duration": 103, "velocity": 127}, {"time": 64322, "pitch": 87, "duration": 103, "velocity": 127}, {"time": 64691, "pitch": 75, "duration": 94, "velocity": 125}, {"time": 64691, "pitch": 84, "duration": 94, "velocity": 125}, {"time": 64691, "pitch": 87, "duration": 94, "velocity": 125}, {"time": 64800, "pitch": 75, "duration": 97, "velocity": 127}, {"time": 64800, "pitch": 84, "duration": 97, "velocity": 127}, {"time": 64800, "pitch": 87, "duration": 97, "velocity": 127}, {"time": 64930, "pitch": 75, "duration": 62, "velocity": 127}, {"time": 64930, "pitch": 84, "duration": 62, "velocity": 127}, {"time": 64930, "pitch": 87, "duration": 62, "velocity": 127}, {"time": 65041, "pitch": 75, "duration": 84, "velocity": 127}, {"time": 65041, "pitch": 84, "duration": 84, "velocity": 127}, {"time": 65041, "pitch": 87, "duration": 84, "velocity": 127}, {"time": 67811, "pitch": 78, "duration": 85, "velocity": 127}, {"time": 67811, "pitch": 81, "duration": 85, "velocity": 127}, {"time": 67811, "pitch": 85, "duration": 85, "velocity": 127}, {"time": 68050, "pitch": 78, "duration": 65, "velocity": 127}, {"time": 68050, "pitch": 81, "duration": 65, "velocity": 127}, {"time": 68050, "pitch": 85, "duration": 65, "velocity": 127}, {"time": 68160, "pitch": 78, "duration": 102, "velocity": 127}, {"time": 68160, "pitch": 81, "duration": 102, "velocity": 127}, {"time": 68160, "pitch": 85, "duration": 102, "velocity": 127}, {"time": 68529, "pitch": 78, "duration": 94, "velocity": 125}, {"time": 68529, "pitch": 81, "duration": 94, "velocity": 125}, {"time": 68529, "pitch": 85, "duration": 94, "velocity": 125}, {"time": 68638, "pitch": 78, "duration": 97, "velocity": 127}, {"time": 68638, "pitch": 81, "duration": 97, "velocity": 127}, {"time": 68638, "pitch": 85, "duration": 97, "velocity": 127}, {"time": 68768, "pitch": 78, "duration": 62, "velocity": 127}, {"time": 68768, "pitch": 81, "duration": 62, "velocity": 127}, {"time": 68768, "pitch": 85, "duration": 62, "velocity": 127}, {"time": 68879, "pitch": 78, "duration": 84, "velocity": 127}, {"time": 68879, "pitch": 81, "duration": 84, "velocity": 127}, {"time": 68879, "pitch": 85, "duration": 84, "velocity": 127}, {"time": 71649, "pitch": 75, "duration": 85, "velocity": 127}, {"time": 71649, "pitch": 84, "duration": 85, "velocity": 127}, {"time": 71649, "pitch": 87, "duration": 85, "velocity": 127}, {"time": 71888, "pitch": 75, "duration": 65, "velocity": 127}, {"time": 71888, "pitch": 84, "duration": 65, "velocity": 127}, {"time": 71888, "pitch": 87, "duration": 65, "velocity": 127}, {"time": 71998, "pitch": 75, "duration": 104, "velocity": 127}, {"time": 71998, "pitch": 84, "duration": 104, "velocity": 127}, {"time": 71998, "pitch": 87, "duration": 104, "velocity": 127}, {"time": 72374, "pitch": 75, "duration": 97, "velocity": 125}, {"time": 72374, "pitch": 84, "duration": 97, "velocity": 125}, {"time": 72374, "pitch": 87, "duration": 97, "velocity": 125}, {"time": 72486, "pitch": 75, "duration": 96, "velocity": 127}, {"time": 72486, "pitch": 84, "duration": 96, "velocity": 127}, {"time": 72486, "pitch": 87, "duration": 96, "velocity": 127}, {"time": 72615, "pitch": 75, "duration": 62, "velocity": 127}, {"time": 72615, "pitch": 84, "duration": 62, "velocity": 127}, {"time": 72615, "pitch": 87, "duration": 62, "velocity": 127}, {"time": 72726, "pitch": 75, "duration": 85, "velocity": 127}, {"time": 72726, "pitch": 84, "duration": 85, "velocity": 127}, {"time": 72726, "pitch": 87, "duration": 85, "velocity": 127}, {"time": 75845, "pitch": 64, "duration": 136, "velocity": 127}, {"time": 75845, "pitch": 76, "duration": 136, "velocity": 127}, {"time": 75975, "pitch": 66, "duration": 92, "velocity": 127}, {"time": 75975, "pitch": 78, "duration": 92, "velocity": 127}, {"time": 76214, "pitch": 69, "duration": 349, "velocity": 127}, {"time": 76214, "pitch": 81, "duration": 349, "velocity": 127}, {"time": 76563, "pitch": 66, "duration": 75, "velocity": 127}, {"time": 76563, "pitch": 78, "duration": 75, "velocity": 127}, {"time": 76802, "pitch": 64, "duration": 130, "velocity": 127}, {"time": 76802, "pitch": 76, "duration": 130, "velocity": 127}, {"time": 76932, "pitch": 66, "duration": 97, "velocity": 127}, {"time": 76932, "pitch": 78, "duration": 97, "velocity": 127}, {"time": 123821, "pitch": 72, "duration": 78, "velocity": 116}, {"time": 123821, "pitch": 84, "duration": 78, "velocity": 116}, {"time": 123843, "pitch": 73, "duration": 356, "velocity": 123}, {"time": 123843, "pitch": 85, "duration": 356, "velocity": 123}, {"time": 124212, "pitch": 71, "duration": 145, "velocity": 127}, {"time": 124212, "pitch": 83, "duration": 145, "velocity": 127}, {"time": 124451, "pitch": 69, "duration": 100, "velocity": 110}, {"time": 124451, "pitch": 81, "duration": 100, "velocity": 110}, {"time": 124560, "pitch": 71, "duration": 125, "velocity": 123}, {"time": 124560, "pitch": 83, "duration": 125, "velocity": 123}, {"time": 125713, "pitch": 72, "duration": 85, "velocity": 118}, {"time": 125713, "pitch": 84, "duration": 85, "velocity": 118}, {"time": 125757, "pitch": 73, "duration": 332, "velocity": 116}, {"time": 125757, "pitch": 85, "duration": 332, "velocity": 116}, {"time": 126133, "pitch": 71, "duration": 135, "velocity": 125}, {"time": 126133, "pitch": 83, "duration": 135, "velocity": 125}, {"time": 126374, "pitch": 69, "duration": 68, "velocity": 107}, {"time": 126374, "pitch": 81, "duration": 68, "velocity": 107}, {"time": 126485, "pitch": 69, "duration": 126, "velocity": 121}, {"time": 126485, "pitch": 81, "duration": 126, "velocity": 121}, {"time": 127669, "pitch": 71, "duration": 50, "velocity": 125}, {"time": 127669, "pitch": 83, "duration": 50, "velocity": 125}, {"time": 127681, "pitch": 72, "duration": 327, "velocity": 120}, {"time": 127681, "pitch": 84, "duration": 327, "velocity": 120}, {"time": 128049, "pitch": 71, "duration": 88, "velocity": 121}, {"time": 128049, "pitch": 83, "duration": 88, "velocity": 121}, {"time": 128289, "pitch": 69, "duration": 98, "velocity": 107}, {"time": 128289, "pitch": 81, "duration": 98, "velocity": 107}, {"time": 128398, "pitch": 71, "duration": 177, "velocity": 118}, {"time": 128398, "pitch": 83, "duration": 177, "velocity": 118}, {"time": 130083, "pitch": 73, "duration": 93, "velocity": 127}, {"time": 130083, "pitch": 80, "duration": 93, "velocity": 127}, {"time": 130083, "pitch": 85, "duration": 93, "velocity": 127}, {"time": 130322, "pitch": 73, "duration": 82, "velocity": 127}, {"time": 130322, "pitch": 80, "duration": 82, "velocity": 127}, {"time": 130322, "pitch": 85, "duration": 82, "velocity": 127}, {"time": 130561, "pitch": 73, "duration": 114, "velocity": 127}, {"time": 130561, "pitch": 80, "duration": 114, "velocity": 127}, {"time": 130561, "pitch": 85, "duration": 114, "velocity": 127}, {"time": 130691, "pitch": 73, "duration": 79, "velocity": 127}, {"time": 130691, "pitch": 80, "duration": 79, "velocity": 127}, {"time": 130691, "pitch": 85, "duration": 79, "velocity": 127}, {"time": 133093, "pitch": 75, "duration": 85, "velocity": 127}, {"time": 133093, "pitch": 84, "duration": 85, "velocity": 127}, {"time": 133093, "pitch": 87, "duration": 85, "velocity": 127}, {"time": 133332, "pitch": 75, "duration": 65, "velocity": 127}, {"time": 133332, "pitch": 84, "duration": 65, "velocity": 127}, {"time": 133332, "pitch": 87, "duration": 65, "velocity": 127}, {"time": 133442, "pitch": 75, "duration": 103, "velocity": 127}, {"time": 133442, "pitch": 84, "duration": 103, "velocity": 127}, {"time": 133442, "pitch": 87, "duration": 103, "velocity": 127}, {"time": 133811, "pitch": 75, "duration": 95, "velocity": 125}, {"time": 133811, "pitch": 84, "duration": 95, "velocity": 125}, {"time": 133811, "pitch": 87, "duration": 95, "velocity": 125}, {"time": 133921, "pitch": 75, "duration": 96, "velocity": 127}, {"time": 133921, "pitch": 84, "duration": 96, "velocity": 127}, {"time": 133921, "pitch": 87, "duration": 96, "velocity": 127}, {"time": 134050, "pitch": 75, "duration": 62, "velocity": 127}, {"time": 134050, "pitch": 84, "duration": 62, "velocity": 127}, {"time": 134050, "pitch": 87, "duration": 62, "velocity": 127}, {"time": 134161, "pitch": 75, "duration": 85, "velocity": 127}, {"time": 134161, "pitch": 84, "duration": 85, "velocity": 127}, {"time": 134161, "pitch": 87, "duration": 85, "velocity": 127}, {"time": 136931, "pitch": 78, "duration": 85, "velocity": 127}, {"time": 136931, "pitch": 81, "duration": 85, "velocity": 127}, {"time": 136931, "pitch": 85, "duration": 85, "velocity": 127}, {"time": 137170, "pitch": 78, "duration": 65, "velocity": 127}, {"time": 137170, "pitch": 81, "duration": 65, "velocity": 127}, {"time": 137170, "pitch": 85, "duration": 65, "velocity": 127}, {"time": 137280, "pitch": 78, "duration": 103, "velocity": 127}, {"time": 137280, "pitch": 81, "duration": 103, "velocity": 127}, {"time": 137280, "pitch": 85, "duration": 103, "velocity": 127}, {"time": 137649, "pitch": 78, "duration": 95, "velocity": 125}, {"time": 137649, "pitch": 81, "duration": 95, "velocity": 125}, {"time": 137649, "pitch": 85, "duration": 95, "velocity": 125}, {"time": 137759, "pitch": 78, "duration": 96, "velocity": 127}, {"time": 137759, "pitch": 81, "duration": 96, "velocity": 127}, {"time": 137759, "pitch": 85, "duration": 96, "velocity": 127}, {"time": 137888, "pitch": 78, "duration": 62, "velocity": 127}, {"time": 137888, "pitch": 81, "duration": 62, "velocity": 127}, {"time": 137888, "pitch": 85, "duration": 62, "velocity": 127}, {"time": 137999, "pitch": 78, "duration": 85, "velocity": 127}, {"time": 137999, "pitch": 81, "duration": 85, "velocity": 127}, {"time": 137999, "pitch": 85, "duration": 85, "velocity": 127}, {"time": 140769, "pitch": 75, "duration": 85, "velocity": 127}, {"time": 140769, "pitch": 84, "duration": 85, "velocity": 127}, {"time": 140769, "pitch": 87, "duration": 85, "velocity": 127}, {"time": 141008, "pitch": 75, "duration": 65, "velocity": 127}, {"time": 141008, "pitch": 84, "duration": 65, "velocity": 127}, {"time": 141008, "pitch": 87, "duration": 65, "velocity": 127}, {"time": 141118, "pitch": 75, "duration": 103, "velocity": 127}, {"time": 141118, "pitch": 84, "duration": 103, "velocity": 127}, {"time": 141118, "pitch": 87, "duration": 103, "velocity": 127}, {"time": 141487, "pitch": 75, "duration": 95, "velocity": 125}, {"time": 141487, "pitch": 84, "duration": 95, "velocity": 125}, {"time": 141487, "pitch": 87, "duration": 95, "velocity": 125}, {"time": 141597, "pitch": 75, "duration": 98, "velocity": 127}, {"time": 141597, "pitch": 84, "duration": 98, "velocity": 127}, {"time": 141597, "pitch": 87, "duration": 98, "velocity": 127}, {"time": 141729, "pitch": 75, "duration": 63, "velocity": 127}, {"time": 141729, "pitch": 84, "duration": 63, "velocity": 127}, {"time": 141729, "pitch": 87, "duration": 63, "velocity": 127}, {"time": 141842, "pitch": 75, "duration": 86, "velocity": 127}, {"time": 141842, "pitch": 84, "duration": 86, "velocity": 127}, {"time": 141842, "pitch": 87, "duration": 86, "velocity": 127}, {"time": 144965, "pitch": 64, "duration": 136, "velocity": 127}, {"time": 144965, "pitch": 76, "duration": 136, "velocity": 127}, {"time": 145095, "pitch": 66, "duration": 93, "velocity": 127}, {"time": 145095, "pitch": 78, "duration": 93, "velocity": 127}, {"time": 145334, "pitch": 69, "duration": 349, "velocity": 127}, {"time": 145334, "pitch": 81, "duration": 349, "velocity": 127}, {"time": 145683, "pitch": 66, "duration": 75, "velocity": 127}, {"time": 145683, "pitch": 78, "duration": 75, "velocity": 127}, {"time": 145922, "pitch": 64, "duration": 130, "velocity": 127}, {"time": 145922, "pitch": 76, "duration": 130, "velocity": 127}, {"time": 146052, "pitch": 66, "duration": 97, "velocity": 127}, {"time": 146052, "pitch": 78, "duration": 97, "velocity": 127}, {"time": 148454, "pitch": 75, "duration": 85, "velocity": 127}, {"time": 148454, "pitch": 84, "duration": 85, "velocity": 127}, {"time": 148454, "pitch": 87, "duration": 85, "velocity": 127}, {"time": 148694, "pitch": 75, "duration": 64, "velocity": 127}, {"time": 148694, "pitch": 84, "duration": 64, "velocity": 127}, {"time": 148694, "pitch": 87, "duration": 64, "velocity": 127}, {"time": 148803, "pitch": 75, "duration": 103, "velocity": 127}, {"time": 148803, "pitch": 84, "duration": 103, "velocity": 127}, {"time": 148803, "pitch": 87, "duration": 103, "velocity": 127}, {"time": 149172, "pitch": 75, "duration": 95, "velocity": 125}, {"time": 149172, "pitch": 84, "duration": 95, "velocity": 125}, {"time": 149172, "pitch": 87, "duration": 95, "velocity": 125}, {"time": 149282, "pitch": 75, "duration": 96, "velocity": 127}, {"time": 149282, "pitch": 84, "duration": 96, "velocity": 127}, {"time": 149282, "pitch": 87, "duration": 96, "velocity": 127}, {"time": 149411, "pitch": 75, "duration": 62, "velocity": 127}, {"time": 149411, "pitch": 84, "duration": 62, "velocity": 127}, {"time": 149411, "pitch": 87, "duration": 62, "velocity": 127}, {"time": 149522, "pitch": 75, "duration": 85, "velocity": 127}, {"time": 149522, "pitch": 84, "duration": 85, "velocity": 127}, {"time": 149522, "pitch": 87, "duration": 85, "velocity": 127}, {"time": 152292, "pitch": 78, "duration": 85, "velocity": 127}, {"time": 152292, "pitch": 81, "duration": 85, "velocity": 127}, {"time": 152292, "pitch": 85, "duration": 85, "velocity": 127}, {"time": 152531, "pitch": 78, "duration": 65, "velocity": 127}, {"time": 152531, "pitch": 81, "duration": 65, "velocity": 127}, {"time": 152531, "pitch": 85, "duration": 65, "velocity": 127}, {"time": 152641, "pitch": 78, "duration": 103, "velocity": 127}, {"time": 152641, "pitch": 81, "duration": 103, "velocity": 127}, {"time": 152641, "pitch": 85, "duration": 103, "velocity": 127}, {"time": 153010, "pitch": 78, "duration": 95, "velocity": 125}, {"time": 153010, "pitch": 81, "duration": 95, "velocity": 125}, {"time": 153010, "pitch": 85, "duration": 95, "velocity": 125}, {"time": 153120, "pitch": 78, "duration": 96, "velocity": 127}, {"time": 153120, "pitch": 81, "duration": 96, "velocity": 127}, {"time": 153120, "pitch": 85, "duration": 96, "velocity": 127}, {"time": 153249, "pitch": 78, "duration": 62, "velocity": 127}, {"time": 153249, "pitch": 81, "duration": 62, "velocity": 127}, {"time": 153249, "pitch": 85, "duration": 62, "velocity": 127}, {"time": 153360, "pitch": 78, "duration": 85, "velocity": 127}, {"time": 153360, "pitch": 81, "duration": 85, "velocity": 127}, {"time": 153360, "pitch": 85, "duration": 85, "velocity": 127}, {"time": 156130, "pitch": 75, "duration": 85, "velocity": 127}, {"time": 156130, "pitch": 84, "duration": 85, "velocity": 127}, {"time": 156130, "pitch": 87, "duration": 85, "velocity": 127}, {"time": 156369, "pitch": 75, "duration": 65, "velocity": 127}, {"time": 156369, "pitch": 84, "duration": 65, "velocity": 127}, {"time": 156369, "pitch": 87, "duration": 65, "velocity": 127}, {"time": 156479, "pitch": 75, "duration": 103, "velocity": 127}, {"time": 156479, "pitch": 84, "duration": 103, "velocity": 127}, {"time": 156479, "pitch": 87, "duration": 103, "velocity": 127}, {"time": 156848, "pitch": 75, "duration": 95, "velocity": 125}, {"time": 156848, "pitch": 84, "duration": 95, "velocity": 125}, {"time": 156848, "pitch": 87, "duration": 95, "velocity": 125}, {"time": 156958, "pitch": 75, "duration": 98, "velocity": 127}, {"time": 156958, "pitch": 84, "duration": 98, "velocity": 127}, {"time": 156958, "pitch": 87, "duration": 98, "velocity": 127}, {"time": 157090, "pitch": 75, "duration": 63, "velocity": 127}, {"time": 157090, "pitch": 84, "duration": 63, "velocity": 127}, {"time": 157090, "pitch": 87, "duration": 63, "velocity": 127}, {"time": 157203, "pitch": 75, "duration": 86, "velocity": 127}, {"time": 157203, "pitch": 84, "duration": 86, "velocity": 127}, {"time": 157203, "pitch": 87, "duration": 86, "velocity": 127}, {"time": 160317, "pitch": 64, "duration": 138, "velocity": 127}, {"time": 160317, "pitch": 76, "duration": 138, "velocity": 127}, {"time": 160449, "pitch": 66, "duration": 95, "velocity": 127}, {"time": 160449, "pitch": 78, "duration": 95, "velocity": 127}, {"time": 160693, "pitch": 69, "duration": 351, "velocity": 127}, {"time": 160693, "pitch": 81, "duration": 351, "velocity": 127}, {"time": 161044, "pitch": 66, "duration": 75, "velocity": 127}, {"time": 161044, "pitch": 78, "duration": 75, "velocity": 127}, {"time": 161284, "pitch": 64, "duration": 129, "velocity": 127}, {"time": 161284, "pitch": 76, "duration": 129, "velocity": 127}, {"time": 161413, "pitch": 66, "duration": 97, "velocity": 127}, {"time": 161413, "pitch": 78, "duration": 97, "velocity": 127}, {"time": 179170, "pitch": 75, "duration": 86, "velocity": 127}, {"time": 179170, "pitch": 84, "duration": 86, "velocity": 127}, {"time": 179170, "pitch": 87, "duration": 86, "velocity": 127}, {"time": 179414, "pitch": 75, "duration": 66, "velocity": 127}, {"time": 179414, "pitch": 84, "duration": 66, "velocity": 127}, {"time": 179414, "pitch": 87, "duration": 66, "velocity": 127}, {"time": 179525, "pitch": 75, "duration": 103, "velocity": 127}, {"time": 179525, "pitch": 84, "duration": 103, "velocity": 127}, {"time": 179525, "pitch": 87, "duration": 103, "velocity": 127}, {"time": 179894, "pitch": 75, "duration": 95, "velocity": 125}, {"time": 179894, "pitch": 84, "duration": 95, "velocity": 125}, {"time": 179894, "pitch": 87, "duration": 95, "velocity": 125}, {"time": 180004, "pitch": 75, "duration": 97, "velocity": 127}, {"time": 180004, "pitch": 84, "duration": 97, "velocity": 127}, {"time": 180004, "pitch": 87, "duration": 97, "velocity": 127}, {"time": 180134, "pitch": 75, "duration": 61, "velocity": 127}, {"time": 180134, "pitch": 84, "duration": 61, "velocity": 127}, {"time": 180134, "pitch": 87, "duration": 61, "velocity": 127}, {"time": 180244, "pitch": 75, "duration": 85, "velocity": 127}, {"time": 180244, "pitch": 84, "duration": 85, "velocity": 127}, {"time": 180244, "pitch": 87, "duration": 85, "velocity": 127}, {"time": 183014, "pitch": 78, "duration": 85, "velocity": 127}, {"time": 183014, "pitch": 81, "duration": 85, "velocity": 127}, {"time": 183014, "pitch": 85, "duration": 85, "velocity": 127}, {"time": 183254, "pitch": 78, "duration": 64, "velocity": 127}, {"time": 183254, "pitch": 81, "duration": 64, "velocity": 127}, {"time": 183254, "pitch": 85, "duration": 64, "velocity": 127}, {"time": 183363, "pitch": 78, "duration": 103, "velocity": 127}, {"time": 183363, "pitch": 81, "duration": 103, "velocity": 127}, {"time": 183363, "pitch": 85, "duration": 103, "velocity": 127}, {"time": 183732, "pitch": 78, "duration": 95, "velocity": 125}, {"time": 183732, "pitch": 81, "duration": 95, "velocity": 125}, {"time": 183732, "pitch": 85, "duration": 95, "velocity": 125}, {"time": 183842, "pitch": 78, "duration": 97, "velocity": 127}, {"time": 183842, "pitch": 81, "duration": 97, "velocity": 127}, {"time": 183842, "pitch": 85, "duration": 97, "velocity": 127}, {"time": 183972, "pitch": 78, "duration": 61, "velocity": 127}, {"time": 183972, "pitch": 81, "duration": 61, "velocity": 127}, {"time": 183972, "pitch": 85, "duration": 61, "velocity": 127}, {"time": 184082, "pitch": 78, "duration": 85, "velocity": 127}, {"time": 184082, "pitch": 81, "duration": 85, "velocity": 127}, {"time": 184082, "pitch": 85, "duration": 85, "velocity": 127}, {"time": 186852, "pitch": 75, "duration": 85, "velocity": 127}, {"time": 186852, "pitch": 84, "duration": 85, "velocity": 127}, {"time": 186852, "pitch": 87, "duration": 85, "velocity": 127}, {"time": 187092, "pitch": 75, "duration": 64, "velocity": 127}, {"time": 187092, "pitch": 84, "duration": 64, "velocity": 127}, {"time": 187092, "pitch": 87, "duration": 64, "velocity": 127}, {"time": 187201, "pitch": 75, "duration": 103, "velocity": 127}, {"time": 187201, "pitch": 84, "duration": 103, "velocity": 127}, {"time": 187201, "pitch": 87, "duration": 103, "velocity": 127}, {"time": 187570, "pitch": 75, "duration": 95, "velocity": 125}, {"time": 187570, "pitch": 84, "duration": 95, "velocity": 125}, {"time": 187570, "pitch": 87, "duration": 95, "velocity": 125}, {"time": 187680, "pitch": 75, "duration": 97, "velocity": 127}, {"time": 187680, "pitch": 84, "duration": 97, "velocity": 127}, {"time": 187680, "pitch": 87, "duration": 97, "velocity": 127}, {"time": 187809, "pitch": 75, "duration": 62, "velocity": 127}, {"time": 187809, "pitch": 84, "duration": 62, "velocity": 127}, {"time": 187809, "pitch": 87, "duration": 62, "velocity": 127}, {"time": 187920, "pitch": 75, "duration": 85, "velocity": 127}, {"time": 187920, "pitch": 84, "duration": 85, "velocity": 127}, {"time": 187920, "pitch": 87, "duration": 85, "velocity": 127}, {"time": 191017, "pitch": 72, "duration": 79, "velocity": 116}, {"time": 191017, "pitch": 84, "duration": 79, "velocity": 116}, {"time": 191039, "pitch": 73, "duration": 356, "velocity": 123}, {"time": 191039, "pitch": 85, "duration": 356, "velocity": 123}, {"time": 191408, "pitch": 71, "duration": 146, "velocity": 127}, {"time": 191408, "pitch": 83, "duration": 146, "velocity": 127}, {"time": 191647, "pitch": 69, "duration": 101, "velocity": 110}, {"time": 191647, "pitch": 81, "duration": 101, "velocity": 110}, {"time": 191757, "pitch": 71, "duration": 125, "velocity": 123}, {"time": 191757, "pitch": 83, "duration": 125, "velocity": 123}, {"time": 192919, "pitch": 72, "duration": 85, "velocity": 118}, {"time": 192919, "pitch": 84, "duration": 85, "velocity": 118}, {"time": 192963, "pitch": 73, "duration": 326, "velocity": 116}, {"time": 192963, "pitch": 85, "duration": 326, "velocity": 116}, {"time": 193332, "pitch": 71, "duration": 132, "velocity": 125}, {"time": 193332, "pitch": 83, "duration": 132, "velocity": 125}, {"time": 193571, "pitch": 69, "duration": 68, "velocity": 107}, {"time": 193571, "pitch": 81, "duration": 68, "velocity": 107}, {"time": 193682, "pitch": 69, "duration": 125, "velocity": 121}, {"time": 193682, "pitch": 81, "duration": 125, "velocity": 121}, {"time": 194865, "pitch": 72, "duration": 52, "velocity": 125}, {"time": 194865, "pitch": 84, "duration": 52, "velocity": 125}, {"time": 194877, "pitch": 73, "duration": 334, "velocity": 120}, {"time": 194877, "pitch": 85, "duration": 334, "velocity": 120}, {"time": 195253, "pitch": 71, "duration": 90, "velocity": 121}, {"time": 195253, "pitch": 83, "duration": 90, "velocity": 121}, {"time": 195495, "pitch": 69, "duration": 98, "velocity": 107}, {"time": 195495, "pitch": 81, "duration": 98, "velocity": 107}, {"time": 195604, "pitch": 71, "duration": 177, "velocity": 118}, {"time": 195604, "pitch": 83, "duration": 177, "velocity": 118}, {"time": 196801, "pitch": 68, "duration": 159, "velocity": 118}, {"time": 196801, "pitch": 80, "duration": 159, "velocity": 118}, {"time": 196930, "pitch": 69, "duration": 119, "velocity": 97}, {"time": 196930, "pitch": 81, "duration": 119, "velocity": 97}, {"time": 197170, "pitch": 71, "duration": 111, "velocity": 115}, {"time": 197170, "pitch": 83, "duration": 111, "velocity": 115}, {"time": 197409, "pitch": 68, "duration": 281, "velocity": 125}, {"time": 197409, "pitch": 80, "duration": 281, "velocity": 125}, {"time": 197758, "pitch": 64, "duration": 169, "velocity": 115}, {"time": 197758, "pitch": 76, "duration": 169, "velocity": 115}, {"time": 197888, "pitch": 61, "duration": 27, "velocity": 111}, {"time": 197888, "pitch": 73, "duration": 27, "velocity": 111}, {"time": 197997, "pitch": 64, "duration": 245, "velocity": 113}, {"time": 197997, "pitch": 76, "duration": 245, "velocity": 113}, {"time": 198702, "pitch": 72, "duration": 79, "velocity": 116}, {"time": 198702, "pitch": 84, "duration": 79, "velocity": 116}, {"time": 198724, "pitch": 73, "duration": 356, "velocity": 123}, {"time": 198724, "pitch": 85, "duration": 356, "velocity": 123}, {"time": 199093, "pitch": 71, "duration": 146, "velocity": 127}, {"time": 199093, "pitch": 83, "duration": 146, "velocity": 127}, {"time": 199333, "pitch": 69, "duration": 100, "velocity": 110}, {"time": 199333, "pitch": 81, "duration": 100, "velocity": 110}, {"time": 199442, "pitch": 71, "duration": 125, "velocity": 123}, {"time": 199442, "pitch": 83, "duration": 125, "velocity": 123}, {"time": 200595, "pitch": 72, "duration": 85, "velocity": 118}, {"time": 200595, "pitch": 84, "duration": 85, "velocity": 118}, {"time": 200639, "pitch": 73, "duration": 326, "velocity": 116}, {"time": 200639, "pitch": 85, "duration": 326, "velocity": 116}, {"time": 201008, "pitch": 71, "duration": 133, "velocity": 125}, {"time": 201008, "pitch": 83, "duration": 133, "velocity": 125}, {"time": 201249, "pitch": 69, "duration": 70, "velocity": 107}, {"time": 201249, "pitch": 81, "duration": 70, "velocity": 107}, {"time": 201362, "pitch": 69, "duration": 128, "velocity": 121}, {"time": 201362, "pitch": 81, "duration": 128, "velocity": 121}, {"time": 202550, "pitch": 72, "duration": 51, "velocity": 125}, {"time": 202550, "pitch": 84, "duration": 51, "velocity": 125}, {"time": 202562, "pitch": 73, "duration": 327, "velocity": 120}, {"time": 202562, "pitch": 85, "duration": 327, "velocity": 120}, {"time": 202931, "pitch": 71, "duration": 88, "velocity": 121}, {"time": 202931, "pitch": 83, "duration": 88, "velocity": 121}, {"time": 203171, "pitch": 69, "duration": 98, "velocity": 107}, {"time": 203171, "pitch": 81, "duration": 98, "velocity": 107}, {"time": 203280, "pitch": 71, "duration": 177, "velocity": 118}, {"time": 203280, "pitch": 83, "duration": 177, "velocity": 118}, {"time": 203997, "pitch": 84, "duration": 69, "velocity": 100}, {"time": 203998, "pitch": 81, "duration": 355, "velocity": 119}, {"time": 203998, "pitch": 85, "duration": 355, "velocity": 119}, {"time": 204367, "pitch": 85, "duration": 391, "velocity": 103}, {"time": 204367, "pitch": 88, "duration": 391, "velocity": 103}, {"time": 204721, "pitch": 78, "duration": 5013, "velocity": 80}, {"time": 204721, "pitch": 80, "duration": 5013, "velocity": 112}], "annotations": [{"time": 285, "annotation": {"number": 7, "value": 76}, "group": "control_change"}, {"time": 307, "annotation": {"number": 11, "value": 100}, "group": "control_change"}, {"time": 329, "annotation": {"number": 10, "value": 44}, "group": "control_change"}, {"time": 350, "annotation": {"number": 91, "value": 50}, "group": "control_change"}, {"time": 372, "annotation": {"number": 93, "value": 0}, "group": "control_change"}, {"time": 394, "annotation": {"number": 101, "value": 0}, "group": "control_change"}, {"time": 416, "annotation": {"number": 100, "value": 0}, "group": "control_change"}, {"time": 438, "annotation": {"number": 6, "value": 12}, "group": "control_change"}, {"time": 460, "annotation": {"number": 101, "value": 127}, "group": "control_change"}, {"time": 484, "annotation": {"number": 100, "value": 127}, "group": "control_change"}, {"time": 205945, "annotation": {"number": 11, "value": 98}, "group": "control_change"}, {"time": 205946, "annotation": {"number": 11, "value": 97}, "group": "control_change"}, {"time": 206334, "annotation": {"number": 11, "value": 96}, "group": "control_change"}, {"time": 206495, "annotation": {"number": 11, "value": 95}, "group": "control_change"}, {"time": 206619, "annotation": {"number": 11, "value": 94}, "group": "control_change"}, {"time": 206723, "annotation": {"number": 11, "value": 93}, "group": "control_change"}, {"time": 206815, "annotation": {"number": 11, "value": 92}, "group": "control_change"}, {"time": 206899, "annotation": {"number": 11, "value": 91}, "group": "control_change"}, {"time": 206975, "annotation": {"number": 11, "value": 90}, "group": "control_change"}, {"time": 207046, "annotation": {"number": 11, "value": 89}, "group": "control_change"}, {"time": 207113, "annotation": {"number": 11, "value": 88}, "group": "control_change"}, {"time": 207176, "annotation": {"number": 11, "value": 87}, "group": "control_change"}, {"time": 207236, "annotation": {"number": 11, "value": 86}, "group": "control_change"}, {"time": 207294, "annotation": {"number": 11, "value": 85}, "group": "control_change"}, {"time": 207348, "annotation": {"number": 11, "value": 84}, "group": "control_change"}, {"time": 207402, "annotation": {"number": 11, "value": 83}, "group": "control_change"}, {"time": 207455, "annotation": {"number": 11, "value": 82}, "group": "control_change"}, {"time": 207505, "annotation": {"number": 11, "value": 81}, "group": "control_change"}, {"time": 207554, "annotation": {"number": 11, "value": 80}, "group": "control_change"}, {"time": 207601, "annotation": {"number": 11, "value": 79}, "group": "control_change"}, {"time": 207647, "annotation": {"number": 11, "value": 78}, "group": "control_change"}, {"time": 207693, "annotation": {"number": 11, "value": 77}, "group": "control_change"}, {"time": 207737, "annotation": {"number": 11, "value": 76}, "group": "control_change"}, {"time": 207779, "annotation": {"number": 11, "value": 75}, "group": "control_change"}, {"time": 207821, "annotation": {"number": 11, "value": 74}, "group": "control_change"}, {"time": 207861, "annotation": {"number": 11, "value": 73}, "group": "control_change"}, {"time": 207901, "annotation": {"number": 11, "value": 72}, "group": "control_change"}, {"time": 207939, "annotation": {"number": 11, "value": 71}, "group": "control_change"}, {"time": 207977, "annotation": {"number": 11, "value": 70}, "group": "control_change"}, {"time": 208015, "annotation": {"number": 11, "value": 69}, "group": "control_change"}, {"time": 208051, "annotation": {"number": 11, "value": 68}, "group": "control_change"}, {"time": 208087, "annotation": {"number": 11, "value": 67}, "group": "control_change"}, {"time": 208122, "annotation": {"number": 11, "value": 66}, "group": "control_change"}, {"time": 208156, "annotation": {"number": 11, "value": 65}, "group": "control_change"}, {"time": 208190, "annotation": {"number": 11, "value": 64}, "group": "control_change"}, {"time": 208224, "annotation": {"number": 11, "value": 63}, "group": "control_change"}, {"time": 208257, "annotation": {"number": 11, "value": 62}, "group": "control_change"}, {"time": 208290, "annotation": {"number": 11, "value": 61}, "group": "control_change"}, {"time": 208323, "annotation": {"number": 11, "value": 60}, "group": "control_change"}, {"time": 208354, "annotation": {"number": 11, "value": 59}, "group": "control_change"}, {"time": 208386, "annotation": {"number": 11, "value": 58}, "group": "control_change"}, {"time": 208417, "annotation": {"number": 11, "value": 57}, "group": "control_change"}, {"time": 208448, "annotation": {"number": 11, "value": 56}, "group": "control_change"}, {"time": 208477, "annotation": {"number": 11, "value": 55}, "group": "control_change"}, {"time": 208507, "annotation": {"number": 11, "value": 54}, "group": "control_change"}, {"time": 208537, "annotation": {"number": 11, "value": 53}, "group": "control_change"}, {"time": 208566, "annotation": {"number": 11, "value": 52}, "group": "control_change"}, {"time": 208595, "annotation": {"number": 11, "value": 51}, "group": "control_change"}, {"time": 208623, "annotation": {"number": 11, "value": 50}, "group": "control_change"}, {"time": 208652, "annotation": {"number": 11, "value": 49}, "group": "control_change"}, {"time": 208680, "annotation": {"number": 11, "value": 48}, "group": "control_change"}, {"time": 208708, "annotation": {"number": 11, "value": 47}, "group": "control_change"}, {"time": 208735, "annotation": {"number": 11, "value": 46}, "group": "control_change"}, {"time": 208762, "annotation": {"number": 11, "value": 45}, "group": "control_change"}, {"time": 208789, "annotation": {"number": 11, "value": 44}, "group": "control_change"}, {"time": 208815, "annotation": {"number": 11, "value": 43}, "group": "control_change"}, {"time": 208841, "annotation": {"number": 11, "value": 42}, "group": "control_change"}, {"time": 208868, "annotation": {"number": 11, "value": 41}, "group": "control_change"}, {"time": 208893, "annotation": {"number": 11, "value": 40}, "group": "control_change"}, {"time": 208919, "annotation": {"number": 11, "value": 39}, "group": "control_change"}, {"time": 208945, "annotation": {"number": 11, "value": 38}, "group": "control_change"}, {"time": 208970, "annotation": {"number": 11, "value": 37}, "group": "control_change"}, {"time": 208995, "annotation": {"number": 11, "value": 36}, "group": "control_change"}, {"time": 209020, "annotation": {"number": 11, "value": 35}, "group": "control_change"}, {"time": 209045, "annotation": {"number": 11, "value": 34}, "group": "control_change"}, {"time": 209069, "annotation": {"number": 11, "value": 33}, "group": "control_change"}, {"time": 209094, "annotation": {"number": 11, "value": 32}, "group": "control_change"}, {"time": 209118, "annotation": {"number": 11, "value": 31}, "group": "control_change"}, {"time": 209141, "annotation": {"number": 11, "value": 30}, "group": "control_change"}, {"time": 209164, "annotation": {"number": 11, "value": 29}, "group": "control_change"}, {"time": 209188, "annotation": {"number": 11, "value": 28}, "group": "control_change"}, {"time": 209211, "annotation": {"number": 11, "value": 27}, "group": "control_change"}, {"time": 209235, "annotation": {"number": 11, "value": 26}, "group": "control_change"}, {"time": 209258, "annotation": {"number": 11, "value": 25}, "group": "control_change"}, {"time": 209281, "annotation": {"number": 11, "value": 24}, "group": "control_change"}, {"time": 209304, "annotation": {"number": 11, "value": 23}, "group": "control_change"}, {"time": 209326, "annotation": {"number": 11, "value": 22}, "group": "control_change"}, {"time": 209349, "annotation": {"number": 11, "value": 21}, "group": "control_change"}, {"time": 209371, "annotation": {"number": 11, "value": 20}, "group": "control_change"}, {"time": 209393, "annotation": {"number": 11, "value": 19}, "group": "control_change"}, {"time": 209415, "annotation": {"number": 11, "value": 18}, "group": "control_change"}, {"time": 209437, "annotation": {"number": 11, "value": 17}, "group": "control_change"}, {"time": 209459, "annotation": {"number": 11, "value": 16}, "group": "control_change"}, {"time": 209479, "annotation": {"number": 11, "value": 15}, "group": "control_change"}, {"time": 209501, "annotation": {"number": 11, "value": 14}, "group": "control_change"}, {"time": 209522, "annotation": {"number": 11, "value": 13}, "group": "control_change"}, {"time": 209544, "annotation": {"number": 11, "value": 12}, "group": "control_change"}, {"time": 209565, "annotation": {"number": 11, "value": 11}, "group": "control_change"}, {"time": 209586, "annotation": {"number": 11, "value": 10}, "group": "control_change"}, {"time": 209607, "annotation": {"number": 11, "value": 9}, "group": "control_change"}, {"time": 209627, "annotation": {"number": 11, "value": 8}, "group": "control_change"}, {"time": 209648, "annotation": {"number": 11, "value": 7}, "group": "control_change"}, {"time": 209668, "annotation": {"number": 11, "value": 6}, "group": "control_change"}, {"time": 209689, "annotation": {"number": 11, "value": 5}, "group": "control_change"}, {"time": 209709, "annotation": {"number": 11, "value": 4}, "group": "control_change"}, {"time": 209729, "annotation": {"number": 11, "value": 3}, "group": "control_change"}, {"time": 209749, "annotation": {"number": 11, "value": 2}, "group": "control_change"}, {"time": 209769, "annotation": {"number": 11, "value": 1}, "group": "control_change"}, {"time": 209789, "annotation": {"number": 11, "value": 0}, "group": "control_change"}]}, {"program": 0, "is_drum": false, "name": "ANALOG SYNTH ", "annotations": [{"time": 219, "annotation": {"number": 0, "value": 0}, "group": "control_change"}, {"time": 241, "annotation": {"number": 32, "value": 0}, "group": "control_change"}]}, {"program": 82, "is_drum": false, "name": "ANALOG SYNTH ", "notes": [{"time": 46560, "pitch": 42, "duration": 1481, "velocity": 110}, {"time": 46927, "pitch": 54, "duration": 721, "velocity": 110}, {"time": 47281, "pitch": 66, "duration": 1573, "velocity": 107}, {"time": 47765, "pitch": 54, "duration": 978, "velocity": 102}, {"time": 48133, "pitch": 42, "duration": 206, "velocity": 87}, {"time": 48482, "pitch": 42, "duration": 1507, "velocity": 103}, {"time": 48851, "pitch": 54, "duration": 800, "velocity": 102}, {"time": 49200, "pitch": 66, "duration": 1549, "velocity": 103}, {"time": 49679, "pitch": 54, "duration": 609, "velocity": 102}, {"time": 50157, "pitch": 42, "duration": 266, "velocity": 98}, {"time": 50396, "pitch": 44, "duration": 1117, "velocity": 103}, {"time": 50773, "pitch": 56, "duration": 1267, "velocity": 107}, {"time": 51124, "pitch": 68, "duration": 1540, "velocity": 103}, {"time": 51602, "pitch": 44, "duration": 778, "velocity": 84}, {"time": 52081, "pitch": 56, "duration": 317, "velocity": 102}, {"time": 52320, "pitch": 45, "duration": 1408, "velocity": 107}, {"time": 52689, "pitch": 57, "duration": 800, "velocity": 88}, {"time": 53038, "pitch": 69, "duration": 1213, "velocity": 98}, {"time": 53521, "pitch": 57, "duration": 753, "velocity": 86}, {"time": 53895, "pitch": 45, "duration": 447, "velocity": 73}, {"time": 54245, "pitch": 61, "duration": 3803, "velocity": 112}, {"time": 54245, "pitch": 66, "duration": 1951, "velocity": 107}, {"time": 56158, "pitch": 64, "duration": 1889, "velocity": 102}, {"time": 56158, "pitch": 68, "duration": 1850, "velocity": 91}, {"time": 57972, "pitch": 66, "duration": 1889, "velocity": 92}, {"time": 57972, "pitch": 69, "duration": 1939, "velocity": 88}, {"time": 58082, "pitch": 60, "duration": 1989, "velocity": 96}, {"time": 60005, "pitch": 59, "duration": 1860, "velocity": 92}, {"time": 60005, "pitch": 65, "duration": 1850, "velocity": 82}, {"time": 60005, "pitch": 68, "duration": 1849, "velocity": 94}, {"time": 60005, "pitch": 71, "duration": 1853, "velocity": 82}, {"time": 115680, "pitch": 42, "duration": 1481, "velocity": 110}, {"time": 116048, "pitch": 54, "duration": 720, "velocity": 110}, {"time": 116401, "pitch": 66, "duration": 1573, "velocity": 107}, {"time": 116886, "pitch": 54, "duration": 978, "velocity": 102}, {"time": 117254, "pitch": 42, "duration": 205, "velocity": 87}, {"time": 117602, "pitch": 42, "duration": 1507, "velocity": 103}, {"time": 117971, "pitch": 54, "duration": 800, "velocity": 102}, {"time": 118320, "pitch": 66, "duration": 1550, "velocity": 103}, {"time": 118799, "pitch": 54, "duration": 609, "velocity": 102}, {"time": 119277, "pitch": 42, "duration": 266, "velocity": 98}, {"time": 119517, "pitch": 44, "duration": 1116, "velocity": 103}, {"time": 119893, "pitch": 56, "duration": 1267, "velocity": 107}, {"time": 120244, "pitch": 68, "duration": 1540, "velocity": 103}, {"time": 120723, "pitch": 44, "duration": 777, "velocity": 84}, {"time": 121201, "pitch": 56, "duration": 317, "velocity": 102}, {"time": 121440, "pitch": 45, "duration": 1408, "velocity": 107}, {"time": 121809, "pitch": 57, "duration": 800, "velocity": 88}, {"time": 122158, "pitch": 69, "duration": 1213, "velocity": 98}, {"time": 122642, "pitch": 57, "duration": 752, "velocity": 86}, {"time": 123015, "pitch": 45, "duration": 447, "velocity": 73}, {"time": 123365, "pitch": 61, "duration": 3803, "velocity": 112}, {"time": 123365, "pitch": 66, "duration": 1951, "velocity": 107}, {"time": 125278, "pitch": 64, "duration": 1889, "velocity": 102}, {"time": 125278, "pitch": 68, "duration": 1850, "velocity": 91}, {"time": 127092, "pitch": 66, "duration": 1889, "velocity": 92}, {"time": 127092, "pitch": 69, "duration": 1939, "velocity": 88}, {"time": 127202, "pitch": 60, "duration": 1989, "velocity": 96}, {"time": 129126, "pitch": 59, "duration": 1859, "velocity": 92}, {"time": 129126, "pitch": 65, "duration": 1849, "velocity": 82}, {"time": 129126, "pitch": 68, "duration": 1848, "velocity": 94}, {"time": 129126, "pitch": 71, "duration": 1852, "velocity": 82}], "annotations": [{"time": 285, "annotation": {"number": 7, "value": 80}, "group": "control_change"}, {"time": 307, "annotation": {"number": 11, "value": 100}, "group": "control_change"}, {"time": 329, "annotation": {"number": 10, "value": 62}, "group": "control_change"}, {"time": 350, "annotation": {"number": 91, "value": 80}, "group": "control_change"}, {"time": 372, "annotation": {"number": 93, "value": 0}, "group": "control_change"}, {"time": 394, "annotation": {"number": 101, "value": 0}, "group": "control_change"}, {"time": 416, "annotation": {"number": 100, "value": 0}, "group": "control_change"}, {"time": 438, "annotation": {"number": 6, "value": 12}, "group": "control_change"}, {"time": 460, "annotation": {"number": 101, "value": 127}, "group": "control_change"}, {"time": 484, "annotation": {"number": 100, "value": 127}, "group": "control_change"}]}]}