{"metadata": {"schema_version": "0.1", "title": "RWC-MDB-P-2001 No. 95: Feel / Jeff Manning", "copyright": "RWC Music Database. Copyright (C) 2001 Real World Computing Partnership (contact: Masataka GOTO <m.goto@aist.go.jp>)", "source_filename": "RM-P095.SMF_SYNC.MID", "source_format": "midi"}, "resolution": 480, "tempos": [{"time": 0, "qpm": 52.63157894736842}, {"time": 480, "qpm": 83.33333333333333}, {"time": 960, "qpm": 81.08108108108108}, {"time": 2400, "qpm": 82.1917808219178}, {"time": 3840, "qpm": 81.08108108108108}, {"time": 4320, "qpm": 82.1917808219178}, {"time": 6240, "qpm": 81.08108108108108}, {"time": 6720, "qpm": 83.33333333333333}, {"time": 7200, "qpm": 81.08108108108108}, {"time": 7680, "qpm": 82.1917808219178}, {"time": 9600, "qpm": 81.08108108108108}, {"time": 10080, "qpm": 82.1917808219178}, {"time": 11520, "qpm": 81.08108108108108}, {"time": 12000, "qpm": 83.33333333333333}, {"time": 12480, "qpm": 81.08108108108108}, {"time": 12960, "qpm": 82.1917808219178}, {"time": 15360, "qpm": 81.08108108108108}, {"time": 15840, "qpm": 82.1917808219178}, {"time": 16800, "qpm": 81.08108108108108}, {"time": 17280, "qpm": 83.33333333333333}, {"time": 17760, "qpm": 82.1917808219178}, {"time": 18240, "qpm": 81.08108108108108}, {"time": 18720, "qpm": 82.1917808219178}, {"time": 21120, "qpm": 81.08108108108108}, {"time": 21600, "qpm": 82.1917808219178}, {"time": 22080, "qpm": 81.08108108108108}, {"time": 22560, "qpm": 83.33333333333333}, {"time": 23040, "qpm": 82.1917808219178}, {"time": 24000, "qpm": 81.08108108108108}, {"time": 24480, "qpm": 82.1917808219178}, {"time": 26880, "qpm": 81.08108108108108}, {"time": 27360, "qpm": 82.1917808219178}, {"time": 29760, "qpm": 81.08108108108108}, {"time": 30240, "qpm": 82.1917808219178}, {"time": 32640, "qpm": 81.08108108108108}, {"time": 33120, "qpm": 82.1917808219178}, {"time": 35520, "qpm": 81.08108108108108}, {"time": 36000, "qpm": 82.1917808219178}, {"time": 37920, "qpm": 80.0}, {"time": 38400, "qpm": 83.33333333333333}, {"time": 38880, "qpm": 82.1917808219178}, {"time": 40320, "qpm": 81.08108108108108}, {"time": 40800, "qpm": 82.1917808219178}, {"time": 43200, "qpm": 81.08108108108108}, {"time": 43680, "qpm": 83.33333333333333}, {"time": 44160, "qpm": 81.08108108108108}, {"time": 44640, "qpm": 82.1917808219178}, {"time": 46080, "qpm": 81.08108108108108}, {"time": 46560, "qpm": 83.33333333333333}, {"time": 47040, "qpm": 81.08108108108108}, {"time": 47520, "qpm": 82.1917808219178}, {"time": 48480, "qpm": 81.08108108108108}, {"time": 48960, "qpm": 83.33333333333333}, {"time": 49440, "qpm": 81.08108108108108}, {"time": 49920, "qpm": 82.1917808219178}, {"time": 51840, "qpm": 81.08108108108108}, {"time": 52320, "qpm": 82.1917808219178}, {"time": 53760, "qpm": 81.08108108108108}, {"time": 54240, "qpm": 83.33333333333333}, {"time": 54720, "qpm": 82.1917808219178}, {"time": 55200, "qpm": 81.08108108108108}, {"time": 55680, "qpm": 82.1917808219178}, {"time": 57600, "qpm": 81.08108108108108}, {"time": 58080, "qpm": 82.1917808219178}, {"time": 59040, "qpm": 81.08108108108108}, {"time": 59520, "qpm": 83.33333333333333}, {"time": 60000, "qpm": 82.1917808219178}, {"time": 60480, "qpm": 81.08108108108108}, {"time": 60960, "qpm": 82.1917808219178}, {"time": 63360, "qpm": 81.08108108108108}, {"time": 63840, "qpm": 82.1917808219178}, {"time": 64320, "qpm": 81.08108108108108}, {"time": 64800, "qpm": 83.33333333333333}, {"time": 65280, "qpm": 82.1917808219178}, {"time": 66240, "qpm": 81.08108108108108}, {"time": 66720, "qpm": 82.1917808219178}, {"time": 68640, "qpm": 81.08108108108108}, {"time": 69120, "qpm": 82.1917808219178}, {"time": 72480, "qpm": 81.08108108108108}, {"time": 72960, "qpm": 82.1917808219178}, {"time": 74880, "qpm": 78.94736842105263}, {"time": 75360, "qpm": 83.33333333333333}, {"time": 76320, "qpm": 82.1917808219178}, {"time": 77280, "qpm": 81.08108108108108}, {"time": 77760, "qpm": 82.1917808219178}, {"time": 80160, "qpm": 81.08108108108108}, {"time": 80640, "qpm": 82.1917808219178}, {"time": 82560, "qpm": 81.08108108108108}, {"time": 83040, "qpm": 83.33333333333333}, {"time": 83520, "qpm": 81.08108108108108}, {"time": 84000, "qpm": 82.1917808219178}, {"time": 85440, "qpm": 81.08108108108108}, {"time": 85920, "qpm": 82.1917808219178}, {"time": 88800, "qpm": 81.08108108108108}, {"time": 89280, "qpm": 82.1917808219178}, {"time": 90720, "qpm": 81.08108108108108}, {"time": 91200, "qpm": 82.1917808219178}, {"time": 94080, "qpm": 81.08108108108108}, {"time": 94560, "qpm": 82.1917808219178}, {"time": 96000, "qpm": 81.08108108108108}, {"time": 96480, "qpm": 83.33333333333333}, {"time": 96960, "qpm": 81.08108108108108}, {"time": 97440, "qpm": 82.1917808219178}, {"time": 99840, "qpm": 81.08108108108108}, {"time": 100320, "qpm": 82.1917808219178}, {"time": 101280, "qpm": 81.08108108108108}, {"time": 101760, "qpm": 83.33333333333333}, {"time": 102240, "qpm": 82.1917808219178}, {"time": 102720, "qpm": 81.08108108108108}, {"time": 103200, "qpm": 82.1917808219178}, {"time": 105600, "qpm": 81.08108108108108}, {"time": 106080, "qpm": 82.1917808219178}, {"time": 106560, "qpm": 81.08108108108108}, {"time": 107040, "qpm": 83.33333333333333}, {"time": 107520, "qpm": 82.1917808219178}, {"time": 108480, "qpm": 81.08108108108108}, {"time": 108960, "qpm": 82.1917808219178}, {"time": 111360, "qpm": 81.08108108108108}, {"time": 112320, "qpm": 83.33333333333333}, {"time": 112800, "qpm": 82.1917808219178}, {"time": 113280, "qpm": 81.08108108108108}, {"time": 113760, "qpm": 83.33333333333333}, {"time": 114240, "qpm": 81.08108108108108}, {"time": 114720, "qpm": 82.1917808219178}, {"time": 116640, "qpm": 81.08108108108108}, {"time": 117600, "qpm": 83.33333333333333}, {"time": 118080, "qpm": 82.1917808219178}, {"time": 119040, "qpm": 81.08108108108108}, {"time": 119520, "qpm": 82.1917808219178}, {"time": 122400, "qpm": 81.08108108108108}, {"time": 122880, "qpm": 82.1917808219178}, {"time": 125280, "qpm": 81.08108108108108}, {"time": 125760, "qpm": 82.1917808219178}, {"time": 127680, "qpm": 81.08108108108108}, {"time": 128160, "qpm": 82.1917808219178}, {"time": 130560, "qpm": 81.08108108108108}, {"time": 131040, "qpm": 82.1917808219178}, {"time": 132960, "qpm": 81.08108108108108}, {"time": 133440, "qpm": 83.33333333333333}, {"time": 133920, "qpm": 81.08108108108108}, {"time": 134400, "qpm": 82.1917808219178}, {"time": 136320, "qpm": 81.08108108108108}, {"time": 136800, "qpm": 82.1917808219178}, {"time": 138240, "qpm": 81.08108108108108}, {"time": 138720, "qpm": 82.1917808219178}, {"time": 142080, "qpm": 81.08108108108108}, {"time": 142560, "qpm": 82.1917808219178}, {"time": 143520, "qpm": 81.08108108108108}, {"time": 144000, "qpm": 83.33333333333333}, {"time": 144480, "qpm": 82.1917808219178}, {"time": 144960, "qpm": 81.08108108108108}, {"time": 145440, "qpm": 82.1917808219178}, {"time": 147840, "qpm": 81.08108108108108}, {"time": 148320, "qpm": 82.1917808219178}, {"time": 148800, "qpm": 81.08108108108108}, {"time": 149280, "qpm": 83.33333333333333}, {"time": 149760, "qpm": 81.08108108108108}, {"time": 150240, "qpm": 83.33333333333333}], "key_signatures": [{"time": 0, "root": 0, "mode": "major"}], "time_signatures": [{"time": 0, "numerator": 1, "denominator": 4}, {"time": 480, "numerator": 4, "denominator": 4}], "tracks": [{"program": 0, "is_drum": false, "name": "Ac.G.L.", "annotations": [{"time": 218, "annotation": {"number": 0, "value": 8}, "group": "control_change"}, {"time": 239, "annotation": {"number": 32, "value": 2}, "group": "control_change"}]}, {"program": 25, "is_drum": false, "name": "Ac.G.L.", "notes": [{"time": 479, "pitch": 53, "duration": 269, "velocity": 105}, {"time": 488, "pitch": 57, "duration": 250, "velocity": 100}, {"time": 498, "pitch": 60, "duration": 230, "velocity": 105}, {"time": 508, "pitch": 65, "duration": 210, "velocity": 110}, {"time": 718, "pitch": 65, "duration": 151, "velocity": 100}, {"time": 728, "pitch": 60, "duration": 131, "velocity": 95}, {"time": 738, "pitch": 57, "duration": 111, "velocity": 90}, {"time": 748, "pitch": 53, "duration": 91, "velocity": 95}, {"time": 839, "pitch": 53, "duration": 270, "velocity": 105}, {"time": 849, "pitch": 57, "duration": 250, "velocity": 100}, {"time": 859, "pitch": 60, "duration": 230, "velocity": 105}, {"time": 869, "pitch": 65, "duration": 210, "velocity": 110}, {"time": 1079, "pitch": 65, "duration": 150, "velocity": 100}, {"time": 1089, "pitch": 60, "duration": 130, "velocity": 95}, {"time": 1099, "pitch": 57, "duration": 110, "velocity": 90}, {"time": 1109, "pitch": 53, "duration": 90, "velocity": 95}, {"time": 1199, "pitch": 53, "duration": 241, "velocity": 105}, {"time": 1209, "pitch": 57, "duration": 241, "velocity": 100}, {"time": 1219, "pitch": 60, "duration": 241, "velocity": 105}, {"time": 1229, "pitch": 65, "duration": 241, "velocity": 110}, {"time": 1440, "pitch": 53, "duration": 150, "velocity": 100}, {"time": 1450, "pitch": 57, "duration": 130, "velocity": 90}, {"time": 1460, "pitch": 60, "duration": 110, "velocity": 95}, {"time": 1470, "pitch": 65, "duration": 90, "velocity": 100}, {"time": 1560, "pitch": 65, "duration": 150, "velocity": 85}, {"time": 1570, "pitch": 60, "duration": 130, "velocity": 80}, {"time": 1580, "pitch": 57, "duration": 110, "velocity": 75}, {"time": 1590, "pitch": 53, "duration": 90, "velocity": 80}, {"time": 1680, "pitch": 53, "duration": 151, "velocity": 110}, {"time": 1690, "pitch": 57, "duration": 131, "velocity": 100}, {"time": 1700, "pitch": 60, "duration": 111, "velocity": 105}, {"time": 1710, "pitch": 65, "duration": 91, "velocity": 110}, {"time": 1801, "pitch": 65, "duration": 150, "velocity": 105}, {"time": 1811, "pitch": 60, "duration": 130, "velocity": 100}, {"time": 1821, "pitch": 57, "duration": 110, "velocity": 95}, {"time": 1831, "pitch": 53, "duration": 90, "velocity": 100}, {"time": 1921, "pitch": 53, "duration": 481, "velocity": 105}, {"time": 1931, "pitch": 57, "duration": 471, "velocity": 100}, {"time": 1941, "pitch": 60, "duration": 461, "velocity": 105}, {"time": 1951, "pitch": 65, "duration": 451, "velocity": 110}, {"time": 2402, "pitch": 53, "duration": 271, "velocity": 105}, {"time": 2412, "pitch": 57, "duration": 251, "velocity": 100}, {"time": 2422, "pitch": 60, "duration": 231, "velocity": 105}, {"time": 2432, "pitch": 65, "duration": 211, "velocity": 110}, {"time": 2643, "pitch": 65, "duration": 150, "velocity": 100}, {"time": 2653, "pitch": 60, "duration": 130, "velocity": 95}, {"time": 2663, "pitch": 57, "duration": 110, "velocity": 90}, {"time": 2673, "pitch": 53, "duration": 90, "velocity": 95}, {"time": 2763, "pitch": 53, "duration": 268, "velocity": 105}, {"time": 2773, "pitch": 57, "duration": 248, "velocity": 100}, {"time": 2783, "pitch": 60, "duration": 229, "velocity": 105}, {"time": 2793, "pitch": 65, "duration": 209, "velocity": 110}, {"time": 3002, "pitch": 65, "duration": 148, "velocity": 100}, {"time": 3012, "pitch": 60, "duration": 128, "velocity": 95}, {"time": 3021, "pitch": 57, "duration": 109, "velocity": 90}, {"time": 3031, "pitch": 53, "duration": 89, "velocity": 95}, {"time": 3120, "pitch": 53, "duration": 238, "velocity": 105}, {"time": 3130, "pitch": 57, "duration": 238, "velocity": 100}, {"time": 3140, "pitch": 60, "duration": 238, "velocity": 105}, {"time": 3150, "pitch": 65, "duration": 238, "velocity": 110}, {"time": 3358, "pitch": 53, "duration": 150, "velocity": 100}, {"time": 3368, "pitch": 57, "duration": 130, "velocity": 90}, {"time": 3378, "pitch": 60, "duration": 110, "velocity": 95}, {"time": 3388, "pitch": 65, "duration": 90, "velocity": 100}, {"time": 3478, "pitch": 65, "duration": 150, "velocity": 85}, {"time": 3488, "pitch": 60, "duration": 130, "velocity": 80}, {"time": 3498, "pitch": 57, "duration": 110, "velocity": 75}, {"time": 3508, "pitch": 53, "duration": 90, "velocity": 80}, {"time": 3598, "pitch": 53, "duration": 150, "velocity": 110}, {"time": 3608, "pitch": 57, "duration": 130, "velocity": 100}, {"time": 3618, "pitch": 60, "duration": 110, "velocity": 105}, {"time": 3628, "pitch": 65, "duration": 90, "velocity": 110}, {"time": 3718, "pitch": 65, "duration": 151, "velocity": 105}, {"time": 3728, "pitch": 60, "duration": 111, "velocity": 100}, {"time": 3738, "pitch": 57, "duration": 111, "velocity": 95}, {"time": 3748, "pitch": 53, "duration": 91, "velocity": 100}, {"time": 3839, "pitch": 60, "duration": 481, "velocity": 105}, {"time": 3849, "pitch": 64, "duration": 471, "velocity": 100}, {"time": 3859, "pitch": 67, "duration": 461, "velocity": 105}, {"time": 3869, "pitch": 72, "duration": 451, "velocity": 110}, {"time": 4320, "pitch": 53, "duration": 270, "velocity": 105}, {"time": 4330, "pitch": 57, "duration": 250, "velocity": 100}, {"time": 4340, "pitch": 60, "duration": 230, "velocity": 105}, {"time": 4350, "pitch": 65, "duration": 210, "velocity": 110}, {"time": 4560, "pitch": 65, "duration": 151, "velocity": 100}, {"time": 4570, "pitch": 60, "duration": 131, "velocity": 95}, {"time": 4580, "pitch": 57, "duration": 111, "velocity": 90}, {"time": 4590, "pitch": 53, "duration": 91, "velocity": 95}, {"time": 4681, "pitch": 53, "duration": 270, "velocity": 105}, {"time": 4691, "pitch": 57, "duration": 250, "velocity": 100}, {"time": 4701, "pitch": 60, "duration": 230, "velocity": 105}, {"time": 4711, "pitch": 65, "duration": 210, "velocity": 110}, {"time": 4921, "pitch": 65, "duration": 150, "velocity": 100}, {"time": 4931, "pitch": 60, "duration": 130, "velocity": 95}, {"time": 4941, "pitch": 57, "duration": 110, "velocity": 90}, {"time": 4951, "pitch": 53, "duration": 90, "velocity": 95}, {"time": 5041, "pitch": 53, "duration": 241, "velocity": 105}, {"time": 5051, "pitch": 57, "duration": 241, "velocity": 100}, {"time": 5061, "pitch": 60, "duration": 241, "velocity": 105}, {"time": 5071, "pitch": 65, "duration": 241, "velocity": 110}, {"time": 5282, "pitch": 53, "duration": 150, "velocity": 100}, {"time": 5292, "pitch": 57, "duration": 130, "velocity": 90}, {"time": 5302, "pitch": 60, "duration": 110, "velocity": 95}, {"time": 5312, "pitch": 65, "duration": 90, "velocity": 100}, {"time": 5402, "pitch": 65, "duration": 151, "velocity": 85}, {"time": 5412, "pitch": 60, "duration": 130, "velocity": 80}, {"time": 5422, "pitch": 57, "duration": 110, "velocity": 75}, {"time": 5432, "pitch": 53, "duration": 90, "velocity": 80}, {"time": 5522, "pitch": 53, "duration": 151, "velocity": 110}, {"time": 5532, "pitch": 57, "duration": 131, "velocity": 100}, {"time": 5542, "pitch": 60, "duration": 111, "velocity": 105}, {"time": 5553, "pitch": 65, "duration": 90, "velocity": 110}, {"time": 5643, "pitch": 65, "duration": 150, "velocity": 105}, {"time": 5653, "pitch": 60, "duration": 130, "velocity": 100}, {"time": 5663, "pitch": 57, "duration": 110, "velocity": 95}, {"time": 5673, "pitch": 53, "duration": 90, "velocity": 100}, {"time": 5763, "pitch": 53, "duration": 475, "velocity": 105}, {"time": 5773, "pitch": 57, "duration": 465, "velocity": 100}, {"time": 5783, "pitch": 60, "duration": 455, "velocity": 105}, {"time": 5793, "pitch": 65, "duration": 445, "velocity": 110}, {"time": 6238, "pitch": 53, "duration": 270, "velocity": 105}, {"time": 6247, "pitch": 57, "duration": 251, "velocity": 100}, {"time": 6258, "pitch": 60, "duration": 230, "velocity": 105}, {"time": 6268, "pitch": 65, "duration": 210, "velocity": 110}, {"time": 6478, "pitch": 65, "duration": 150, "velocity": 100}, {"time": 6488, "pitch": 60, "duration": 130, "velocity": 95}, {"time": 6498, "pitch": 57, "duration": 110, "velocity": 90}, {"time": 6508, "pitch": 53, "duration": 90, "velocity": 95}, {"time": 6598, "pitch": 53, "duration": 271, "velocity": 105}, {"time": 6608, "pitch": 57, "duration": 251, "velocity": 100}, {"time": 6618, "pitch": 60, "duration": 231, "velocity": 105}, {"time": 6628, "pitch": 65, "duration": 211, "velocity": 110}, {"time": 6839, "pitch": 65, "duration": 150, "velocity": 100}, {"time": 6849, "pitch": 60, "duration": 130, "velocity": 95}, {"time": 6859, "pitch": 57, "duration": 110, "velocity": 90}, {"time": 6869, "pitch": 53, "duration": 90, "velocity": 95}, {"time": 6959, "pitch": 53, "duration": 241, "velocity": 105}, {"time": 6969, "pitch": 57, "duration": 241, "velocity": 100}, {"time": 6979, "pitch": 60, "duration": 241, "velocity": 105}, {"time": 6989, "pitch": 65, "duration": 241, "velocity": 110}, {"time": 7200, "pitch": 53, "duration": 150, "velocity": 100}, {"time": 7210, "pitch": 57, "duration": 130, "velocity": 90}, {"time": 7220, "pitch": 60, "duration": 110, "velocity": 95}, {"time": 7230, "pitch": 65, "duration": 90, "velocity": 100}, {"time": 7320, "pitch": 65, "duration": 150, "velocity": 85}, {"time": 7330, "pitch": 60, "duration": 130, "velocity": 80}, {"time": 7340, "pitch": 57, "duration": 110, "velocity": 75}, {"time": 7350, "pitch": 53, "duration": 90, "velocity": 80}, {"time": 7440, "pitch": 53, "duration": 150, "velocity": 110}, {"time": 7450, "pitch": 57, "duration": 130, "velocity": 100}, {"time": 7460, "pitch": 60, "duration": 110, "velocity": 105}, {"time": 7470, "pitch": 65, "duration": 90, "velocity": 110}, {"time": 7560, "pitch": 65, "duration": 151, "velocity": 105}, {"time": 7570, "pitch": 60, "duration": 111, "velocity": 100}, {"time": 7580, "pitch": 57, "duration": 111, "velocity": 95}, {"time": 7590, "pitch": 53, "duration": 91, "velocity": 100}, {"time": 7681, "pitch": 60, "duration": 481, "velocity": 105}, {"time": 7691, "pitch": 64, "duration": 471, "velocity": 100}, {"time": 7701, "pitch": 67, "duration": 461, "velocity": 105}, {"time": 7711, "pitch": 72, "duration": 451, "velocity": 110}, {"time": 8162, "pitch": 53, "duration": 270, "velocity": 105}, {"time": 8172, "pitch": 57, "duration": 250, "velocity": 100}, {"time": 8182, "pitch": 60, "duration": 230, "velocity": 105}, {"time": 8192, "pitch": 65, "duration": 210, "velocity": 110}, {"time": 8402, "pitch": 65, "duration": 151, "velocity": 100}, {"time": 8412, "pitch": 60, "duration": 131, "velocity": 95}, {"time": 8422, "pitch": 57, "duration": 111, "velocity": 90}, {"time": 8432, "pitch": 53, "duration": 91, "velocity": 95}, {"time": 8523, "pitch": 53, "duration": 268, "velocity": 105}, {"time": 8533, "pitch": 57, "duration": 248, "velocity": 100}, {"time": 8543, "pitch": 60, "duration": 228, "velocity": 105}, {"time": 8553, "pitch": 65, "duration": 208, "velocity": 110}, {"time": 8761, "pitch": 65, "duration": 149, "velocity": 100}, {"time": 8771, "pitch": 60, "duration": 129, "velocity": 95}, {"time": 8781, "pitch": 57, "duration": 109, "velocity": 90}, {"time": 8791, "pitch": 53, "duration": 89, "velocity": 95}, {"time": 8880, "pitch": 53, "duration": 237, "velocity": 105}, {"time": 8890, "pitch": 57, "duration": 237, "velocity": 100}, {"time": 8900, "pitch": 60, "duration": 237, "velocity": 105}, {"time": 8910, "pitch": 65, "duration": 237, "velocity": 110}, {"time": 9117, "pitch": 53, "duration": 151, "velocity": 100}, {"time": 9127, "pitch": 57, "duration": 131, "velocity": 90}, {"time": 9137, "pitch": 60, "duration": 111, "velocity": 95}, {"time": 9147, "pitch": 65, "duration": 91, "velocity": 100}, {"time": 9238, "pitch": 65, "duration": 150, "velocity": 85}, {"time": 9248, "pitch": 60, "duration": 130, "velocity": 80}, {"time": 9258, "pitch": 57, "duration": 110, "velocity": 75}, {"time": 9268, "pitch": 53, "duration": 90, "velocity": 80}, {"time": 9358, "pitch": 53, "duration": 150, "velocity": 110}, {"time": 9368, "pitch": 57, "duration": 130, "velocity": 100}, {"time": 9378, "pitch": 60, "duration": 110, "velocity": 105}, {"time": 9388, "pitch": 65, "duration": 90, "velocity": 110}, {"time": 9478, "pitch": 65, "duration": 150, "velocity": 105}, {"time": 9488, "pitch": 60, "duration": 130, "velocity": 100}, {"time": 9498, "pitch": 57, "duration": 110, "velocity": 95}, {"time": 9508, "pitch": 53, "duration": 90, "velocity": 100}, {"time": 9598, "pitch": 53, "duration": 482, "velocity": 105}, {"time": 9608, "pitch": 57, "duration": 472, "velocity": 100}, {"time": 9618, "pitch": 60, "duration": 462, "velocity": 105}, {"time": 9628, "pitch": 65, "duration": 452, "velocity": 110}, {"time": 10080, "pitch": 53, "duration": 270, "velocity": 105}, {"time": 10090, "pitch": 57, "duration": 250, "velocity": 100}, {"time": 10100, "pitch": 60, "duration": 230, "velocity": 105}, {"time": 10110, "pitch": 65, "duration": 210, "velocity": 110}, {"time": 10320, "pitch": 65, "duration": 150, "velocity": 100}, {"time": 10330, "pitch": 60, "duration": 130, "velocity": 95}, {"time": 10340, "pitch": 57, "duration": 110, "velocity": 90}, {"time": 10350, "pitch": 53, "duration": 90, "velocity": 95}, {"time": 10440, "pitch": 53, "duration": 271, "velocity": 105}, {"time": 10450, "pitch": 57, "duration": 251, "velocity": 100}, {"time": 10460, "pitch": 60, "duration": 231, "velocity": 105}, {"time": 10470, "pitch": 65, "duration": 211, "velocity": 110}, {"time": 10681, "pitch": 65, "duration": 150, "velocity": 100}, {"time": 10691, "pitch": 60, "duration": 130, "velocity": 95}, {"time": 10701, "pitch": 57, "duration": 110, "velocity": 90}, {"time": 10711, "pitch": 53, "duration": 90, "velocity": 95}, {"time": 10801, "pitch": 53, "duration": 241, "velocity": 105}, {"time": 10811, "pitch": 57, "duration": 241, "velocity": 100}, {"time": 10821, "pitch": 60, "duration": 241, "velocity": 105}, {"time": 10831, "pitch": 65, "duration": 241, "velocity": 110}, {"time": 11042, "pitch": 53, "duration": 150, "velocity": 100}, {"time": 11052, "pitch": 57, "duration": 130, "velocity": 90}, {"time": 11062, "pitch": 60, "duration": 110, "velocity": 95}, {"time": 11072, "pitch": 65, "duration": 90, "velocity": 100}, {"time": 11162, "pitch": 65, "duration": 150, "velocity": 85}, {"time": 11172, "pitch": 60, "duration": 130, "velocity": 80}, {"time": 11182, "pitch": 57, "duration": 110, "velocity": 75}, {"time": 11192, "pitch": 53, "duration": 90, "velocity": 80}, {"time": 11282, "pitch": 53, "duration": 151, "velocity": 110}, {"time": 11292, "pitch": 57, "duration": 131, "velocity": 100}, {"time": 11302, "pitch": 60, "duration": 110, "velocity": 105}, {"time": 11312, "pitch": 65, "duration": 90, "velocity": 110}, {"time": 11402, "pitch": 65, "duration": 150, "velocity": 105}, {"time": 11412, "pitch": 60, "duration": 111, "velocity": 100}, {"time": 11423, "pitch": 57, "duration": 110, "velocity": 95}, {"time": 11433, "pitch": 53, "duration": 90, "velocity": 100}, {"time": 11523, "pitch": 60, "duration": 474, "velocity": 105}, {"time": 11533, "pitch": 64, "duration": 464, "velocity": 100}, {"time": 11542, "pitch": 67, "duration": 455, "velocity": 105}, {"time": 11552, "pitch": 72, "duration": 445, "velocity": 110}, {"time": 11997, "pitch": 53, "duration": 271, "velocity": 105}, {"time": 12007, "pitch": 57, "duration": 251, "velocity": 100}, {"time": 12017, "pitch": 60, "duration": 231, "velocity": 105}, {"time": 12027, "pitch": 65, "duration": 211, "velocity": 110}, {"time": 12238, "pitch": 65, "duration": 150, "velocity": 100}, {"time": 12248, "pitch": 60, "duration": 130, "velocity": 95}, {"time": 12258, "pitch": 57, "duration": 110, "velocity": 90}, {"time": 12268, "pitch": 53, "duration": 90, "velocity": 95}, {"time": 12358, "pitch": 53, "duration": 271, "velocity": 105}, {"time": 12368, "pitch": 57, "duration": 251, "velocity": 100}, {"time": 12378, "pitch": 60, "duration": 231, "velocity": 105}, {"time": 12388, "pitch": 65, "duration": 211, "velocity": 110}, {"time": 12599, "pitch": 65, "duration": 150, "velocity": 100}, {"time": 12609, "pitch": 60, "duration": 130, "velocity": 95}, {"time": 12619, "pitch": 57, "duration": 110, "velocity": 90}, {"time": 12629, "pitch": 53, "duration": 90, "velocity": 95}, {"time": 12719, "pitch": 53, "duration": 240, "velocity": 105}, {"time": 12729, "pitch": 57, "duration": 240, "velocity": 100}, {"time": 12739, "pitch": 60, "duration": 240, "velocity": 105}, {"time": 12749, "pitch": 65, "duration": 240, "velocity": 110}, {"time": 12959, "pitch": 53, "duration": 151, "velocity": 100}, {"time": 12969, "pitch": 57, "duration": 131, "velocity": 90}, {"time": 12979, "pitch": 60, "duration": 111, "velocity": 95}, {"time": 12989, "pitch": 65, "duration": 91, "velocity": 100}, {"time": 13080, "pitch": 65, "duration": 150, "velocity": 85}, {"time": 13090, "pitch": 60, "duration": 130, "velocity": 80}, {"time": 13100, "pitch": 57, "duration": 110, "velocity": 75}, {"time": 13110, "pitch": 53, "duration": 90, "velocity": 80}, {"time": 13200, "pitch": 53, "duration": 150, "velocity": 110}, {"time": 13210, "pitch": 57, "duration": 130, "velocity": 100}, {"time": 13220, "pitch": 60, "duration": 110, "velocity": 105}, {"time": 13230, "pitch": 65, "duration": 90, "velocity": 110}, {"time": 13320, "pitch": 65, "duration": 151, "velocity": 105}, {"time": 13330, "pitch": 60, "duration": 130, "velocity": 100}, {"time": 13340, "pitch": 57, "duration": 110, "velocity": 95}, {"time": 13350, "pitch": 53, "duration": 90, "velocity": 100}, {"time": 13440, "pitch": 53, "duration": 482, "velocity": 105}, {"time": 13450, "pitch": 57, "duration": 472, "velocity": 100}, {"time": 13460, "pitch": 60, "duration": 462, "velocity": 105}, {"time": 13471, "pitch": 65, "duration": 451, "velocity": 110}, {"time": 13922, "pitch": 53, "duration": 270, "velocity": 105}, {"time": 13932, "pitch": 57, "duration": 250, "velocity": 100}, {"time": 13942, "pitch": 60, "duration": 230, "velocity": 105}, {"time": 13952, "pitch": 65, "duration": 210, "velocity": 110}, {"time": 14162, "pitch": 65, "duration": 150, "velocity": 100}, {"time": 14172, "pitch": 60, "duration": 130, "velocity": 95}, {"time": 14182, "pitch": 57, "duration": 110, "velocity": 90}, {"time": 14192, "pitch": 53, "duration": 90, "velocity": 95}, {"time": 14282, "pitch": 53, "duration": 269, "velocity": 105}, {"time": 14292, "pitch": 57, "duration": 249, "velocity": 100}, {"time": 14302, "pitch": 60, "duration": 229, "velocity": 105}, {"time": 14312, "pitch": 65, "duration": 209, "velocity": 110}, {"time": 14521, "pitch": 65, "duration": 149, "velocity": 100}, {"time": 14531, "pitch": 60, "duration": 129, "velocity": 95}, {"time": 14541, "pitch": 57, "duration": 109, "velocity": 90}, {"time": 14551, "pitch": 53, "duration": 89, "velocity": 95}, {"time": 14640, "pitch": 53, "duration": 237, "velocity": 105}, {"time": 14650, "pitch": 57, "duration": 237, "velocity": 100}, {"time": 14660, "pitch": 60, "duration": 237, "velocity": 105}, {"time": 14670, "pitch": 65, "duration": 237, "velocity": 110}, {"time": 14877, "pitch": 53, "duration": 150, "velocity": 100}, {"time": 14887, "pitch": 57, "duration": 130, "velocity": 90}, {"time": 14897, "pitch": 60, "duration": 110, "velocity": 95}, {"time": 14907, "pitch": 65, "duration": 90, "velocity": 100}, {"time": 14997, "pitch": 65, "duration": 151, "velocity": 85}, {"time": 15007, "pitch": 60, "duration": 131, "velocity": 80}, {"time": 15017, "pitch": 57, "duration": 111, "velocity": 75}, {"time": 15027, "pitch": 53, "duration": 91, "velocity": 80}, {"time": 15118, "pitch": 53, "duration": 150, "velocity": 110}, {"time": 15128, "pitch": 57, "duration": 130, "velocity": 100}, {"time": 15138, "pitch": 60, "duration": 110, "velocity": 105}, {"time": 15148, "pitch": 65, "duration": 90, "velocity": 110}, {"time": 15238, "pitch": 65, "duration": 150, "velocity": 105}, {"time": 15248, "pitch": 60, "duration": 110, "velocity": 100}, {"time": 15258, "pitch": 57, "duration": 110, "velocity": 95}, {"time": 15268, "pitch": 53, "duration": 90, "velocity": 100}, {"time": 15358, "pitch": 60, "duration": 481, "velocity": 105}, {"time": 15368, "pitch": 64, "duration": 471, "velocity": 100}, {"time": 15378, "pitch": 67, "duration": 461, "velocity": 105}, {"time": 15388, "pitch": 72, "duration": 451, "velocity": 110}, {"time": 15839, "pitch": 43, "duration": 391, "velocity": 110}, {"time": 15849, "pitch": 59, "duration": 371, "velocity": 100}, {"time": 15859, "pitch": 62, "duration": 351, "velocity": 105}, {"time": 15869, "pitch": 67, "duration": 331, "velocity": 110}, {"time": 16200, "pitch": 67, "duration": 150, "velocity": 90}, {"time": 16210, "pitch": 62, "duration": 130, "velocity": 80}, {"time": 16220, "pitch": 59, "duration": 110, "velocity": 85}, {"time": 16230, "pitch": 55, "duration": 90, "velocity": 90}, {"time": 16320, "pitch": 43, "duration": 151, "velocity": 110}, {"time": 16330, "pitch": 59, "duration": 131, "velocity": 100}, {"time": 16340, "pitch": 62, "duration": 111, "velocity": 105}, {"time": 16350, "pitch": 67, "duration": 91, "velocity": 110}, {"time": 16441, "pitch": 67, "duration": 390, "velocity": 100}, {"time": 16451, "pitch": 62, "duration": 370, "velocity": 90}, {"time": 16461, "pitch": 59, "duration": 350, "velocity": 95}, {"time": 16471, "pitch": 55, "duration": 330, "velocity": 100}, {"time": 16801, "pitch": 45, "duration": 391, "velocity": 110}, {"time": 16811, "pitch": 61, "duration": 371, "velocity": 100}, {"time": 16821, "pitch": 64, "duration": 351, "velocity": 105}, {"time": 16831, "pitch": 69, "duration": 331, "velocity": 110}, {"time": 17162, "pitch": 69, "duration": 150, "velocity": 90}, {"time": 17172, "pitch": 64, "duration": 130, "velocity": 80}, {"time": 17182, "pitch": 61, "duration": 110, "velocity": 85}, {"time": 17192, "pitch": 57, "duration": 90, "velocity": 90}, {"time": 17282, "pitch": 45, "duration": 149, "velocity": 110}, {"time": 17292, "pitch": 61, "duration": 129, "velocity": 100}, {"time": 17302, "pitch": 64, "duration": 109, "velocity": 105}, {"time": 17312, "pitch": 69, "duration": 89, "velocity": 110}, {"time": 17401, "pitch": 69, "duration": 386, "velocity": 100}, {"time": 17411, "pitch": 64, "duration": 366, "velocity": 90}, {"time": 17421, "pitch": 61, "duration": 346, "velocity": 95}, {"time": 17431, "pitch": 57, "duration": 326, "velocity": 100}, {"time": 17757, "pitch": 53, "duration": 271, "velocity": 105}, {"time": 17767, "pitch": 57, "duration": 251, "velocity": 100}, {"time": 17777, "pitch": 60, "duration": 231, "velocity": 105}, {"time": 17787, "pitch": 65, "duration": 211, "velocity": 110}, {"time": 17998, "pitch": 65, "duration": 150, "velocity": 100}, {"time": 18008, "pitch": 60, "duration": 130, "velocity": 95}, {"time": 18018, "pitch": 57, "duration": 110, "velocity": 90}, {"time": 18028, "pitch": 53, "duration": 90, "velocity": 95}, {"time": 18118, "pitch": 53, "duration": 270, "velocity": 105}, {"time": 18128, "pitch": 57, "duration": 250, "velocity": 100}, {"time": 18138, "pitch": 60, "duration": 230, "velocity": 105}, {"time": 18148, "pitch": 65, "duration": 210, "velocity": 110}, {"time": 18358, "pitch": 65, "duration": 151, "velocity": 100}, {"time": 18368, "pitch": 60, "duration": 131, "velocity": 95}, {"time": 18378, "pitch": 57, "duration": 111, "velocity": 90}, {"time": 18388, "pitch": 53, "duration": 91, "velocity": 95}, {"time": 18479, "pitch": 53, "duration": 240, "velocity": 105}, {"time": 18489, "pitch": 57, "duration": 240, "velocity": 100}, {"time": 18499, "pitch": 60, "duration": 240, "velocity": 105}, {"time": 18509, "pitch": 65, "duration": 240, "velocity": 110}, {"time": 18719, "pitch": 53, "duration": 150, "velocity": 100}, {"time": 18729, "pitch": 57, "duration": 130, "velocity": 90}, {"time": 18739, "pitch": 60, "duration": 110, "velocity": 95}, {"time": 18749, "pitch": 65, "duration": 90, "velocity": 100}, {"time": 18839, "pitch": 65, "duration": 151, "velocity": 85}, {"time": 18849, "pitch": 60, "duration": 131, "velocity": 80}, {"time": 18859, "pitch": 57, "duration": 111, "velocity": 75}, {"time": 18869, "pitch": 53, "duration": 91, "velocity": 80}, {"time": 18960, "pitch": 53, "duration": 270, "velocity": 105}, {"time": 18970, "pitch": 57, "duration": 250, "velocity": 100}, {"time": 18980, "pitch": 60, "duration": 230, "velocity": 105}, {"time": 18990, "pitch": 65, "duration": 210, "velocity": 110}, {"time": 19200, "pitch": 65, "duration": 511, "velocity": 100}, {"time": 19210, "pitch": 60, "duration": 491, "velocity": 95}, {"time": 19220, "pitch": 57, "duration": 471, "velocity": 90}, {"time": 19230, "pitch": 53, "duration": 451, "velocity": 95}, {"time": 19681, "pitch": 53, "duration": 271, "velocity": 105}, {"time": 19691, "pitch": 57, "duration": 251, "velocity": 100}, {"time": 19701, "pitch": 60, "duration": 231, "velocity": 105}, {"time": 19711, "pitch": 65, "duration": 211, "velocity": 110}, {"time": 19922, "pitch": 65, "duration": 150, "velocity": 100}, {"time": 19932, "pitch": 60, "duration": 130, "velocity": 95}, {"time": 19942, "pitch": 57, "duration": 110, "velocity": 90}, {"time": 19952, "pitch": 53, "duration": 90, "velocity": 95}, {"time": 20042, "pitch": 53, "duration": 269, "velocity": 105}, {"time": 20052, "pitch": 57, "duration": 249, "velocity": 100}, {"time": 20062, "pitch": 60, "duration": 229, "velocity": 105}, {"time": 20072, "pitch": 65, "duration": 209, "velocity": 110}, {"time": 20281, "pitch": 65, "duration": 148, "velocity": 100}, {"time": 20291, "pitch": 60, "duration": 128, "velocity": 95}, {"time": 20301, "pitch": 57, "duration": 108, "velocity": 90}, {"time": 20311, "pitch": 53, "duration": 89, "velocity": 95}, {"time": 20400, "pitch": 53, "duration": 237, "velocity": 105}, {"time": 20409, "pitch": 57, "duration": 238, "velocity": 100}, {"time": 20419, "pitch": 60, "duration": 238, "velocity": 105}, {"time": 20429, "pitch": 65, "duration": 238, "velocity": 110}, {"time": 20637, "pitch": 53, "duration": 150, "velocity": 100}, {"time": 20647, "pitch": 57, "duration": 130, "velocity": 90}, {"time": 20657, "pitch": 60, "duration": 110, "velocity": 95}, {"time": 20667, "pitch": 65, "duration": 90, "velocity": 100}, {"time": 20757, "pitch": 65, "duration": 150, "velocity": 85}, {"time": 20767, "pitch": 60, "duration": 130, "velocity": 80}, {"time": 20777, "pitch": 57, "duration": 110, "velocity": 75}, {"time": 20787, "pitch": 53, "duration": 90, "velocity": 80}, {"time": 20877, "pitch": 53, "duration": 271, "velocity": 105}, {"time": 20887, "pitch": 57, "duration": 251, "velocity": 100}, {"time": 20897, "pitch": 60, "duration": 231, "velocity": 105}, {"time": 20907, "pitch": 65, "duration": 211, "velocity": 110}, {"time": 21118, "pitch": 65, "duration": 481, "velocity": 100}, {"time": 21128, "pitch": 60, "duration": 471, "velocity": 95}, {"time": 21138, "pitch": 57, "duration": 461, "velocity": 90}, {"time": 21148, "pitch": 53, "duration": 451, "velocity": 95}, {"time": 21599, "pitch": 43, "duration": 391, "velocity": 110}, {"time": 21609, "pitch": 59, "duration": 371, "velocity": 100}, {"time": 21619, "pitch": 62, "duration": 351, "velocity": 105}, {"time": 21629, "pitch": 67, "duration": 331, "velocity": 110}, {"time": 21960, "pitch": 67, "duration": 150, "velocity": 90}, {"time": 21970, "pitch": 62, "duration": 130, "velocity": 80}, {"time": 21980, "pitch": 59, "duration": 110, "velocity": 85}, {"time": 21990, "pitch": 55, "duration": 90, "velocity": 90}, {"time": 22080, "pitch": 43, "duration": 150, "velocity": 110}, {"time": 22090, "pitch": 59, "duration": 130, "velocity": 100}, {"time": 22100, "pitch": 62, "duration": 110, "velocity": 105}, {"time": 22110, "pitch": 67, "duration": 90, "velocity": 110}, {"time": 22200, "pitch": 67, "duration": 391, "velocity": 100}, {"time": 22210, "pitch": 62, "duration": 371, "velocity": 90}, {"time": 22220, "pitch": 59, "duration": 351, "velocity": 95}, {"time": 22230, "pitch": 55, "duration": 331, "velocity": 100}, {"time": 22561, "pitch": 45, "duration": 391, "velocity": 110}, {"time": 22571, "pitch": 61, "duration": 371, "velocity": 100}, {"time": 22581, "pitch": 64, "duration": 351, "velocity": 105}, {"time": 22591, "pitch": 69, "duration": 331, "velocity": 110}, {"time": 22922, "pitch": 69, "duration": 150, "velocity": 90}, {"time": 22932, "pitch": 64, "duration": 130, "velocity": 80}, {"time": 22942, "pitch": 61, "duration": 110, "velocity": 85}, {"time": 22952, "pitch": 57, "duration": 90, "velocity": 90}, {"time": 23042, "pitch": 45, "duration": 149, "velocity": 110}, {"time": 23052, "pitch": 61, "duration": 129, "velocity": 100}, {"time": 23062, "pitch": 64, "duration": 109, "velocity": 105}, {"time": 23072, "pitch": 69, "duration": 89, "velocity": 110}, {"time": 23161, "pitch": 69, "duration": 386, "velocity": 100}, {"time": 23171, "pitch": 64, "duration": 366, "velocity": 90}, {"time": 23181, "pitch": 61, "duration": 346, "velocity": 95}, {"time": 23191, "pitch": 57, "duration": 326, "velocity": 100}, {"time": 23517, "pitch": 53, "duration": 270, "velocity": 105}, {"time": 23527, "pitch": 57, "duration": 250, "velocity": 100}, {"time": 23537, "pitch": 60, "duration": 230, "velocity": 105}, {"time": 23547, "pitch": 65, "duration": 210, "velocity": 110}, {"time": 23757, "pitch": 65, "duration": 151, "velocity": 100}, {"time": 23767, "pitch": 60, "duration": 131, "velocity": 95}, {"time": 23777, "pitch": 57, "duration": 111, "velocity": 90}, {"time": 23787, "pitch": 53, "duration": 91, "velocity": 95}, {"time": 23878, "pitch": 53, "duration": 270, "velocity": 105}, {"time": 23888, "pitch": 57, "duration": 250, "velocity": 100}, {"time": 23898, "pitch": 60, "duration": 230, "velocity": 105}, {"time": 23908, "pitch": 65, "duration": 210, "velocity": 110}, {"time": 24118, "pitch": 65, "duration": 150, "velocity": 100}, {"time": 24128, "pitch": 60, "duration": 130, "velocity": 95}, {"time": 24138, "pitch": 57, "duration": 110, "velocity": 90}, {"time": 24148, "pitch": 53, "duration": 90, "velocity": 95}, {"time": 24238, "pitch": 53, "duration": 241, "velocity": 105}, {"time": 24248, "pitch": 57, "duration": 241, "velocity": 100}, {"time": 24258, "pitch": 60, "duration": 241, "velocity": 105}, {"time": 24268, "pitch": 65, "duration": 241, "velocity": 110}, {"time": 24479, "pitch": 53, "duration": 150, "velocity": 100}, {"time": 24489, "pitch": 57, "duration": 130, "velocity": 90}, {"time": 24499, "pitch": 60, "duration": 110, "velocity": 95}, {"time": 24509, "pitch": 65, "duration": 90, "velocity": 100}, {"time": 24599, "pitch": 65, "duration": 150, "velocity": 85}, {"time": 24609, "pitch": 60, "duration": 130, "velocity": 80}, {"time": 24619, "pitch": 57, "duration": 110, "velocity": 75}, {"time": 24629, "pitch": 53, "duration": 90, "velocity": 80}, {"time": 24719, "pitch": 53, "duration": 271, "velocity": 105}, {"time": 24729, "pitch": 57, "duration": 251, "velocity": 100}, {"time": 24739, "pitch": 60, "duration": 231, "velocity": 105}, {"time": 24749, "pitch": 65, "duration": 211, "velocity": 110}, {"time": 24960, "pitch": 65, "duration": 511, "velocity": 100}, {"time": 24970, "pitch": 60, "duration": 491, "velocity": 95}, {"time": 24980, "pitch": 57, "duration": 471, "velocity": 90}, {"time": 24990, "pitch": 53, "duration": 451, "velocity": 95}, {"time": 25441, "pitch": 53, "duration": 271, "velocity": 105}, {"time": 25451, "pitch": 57, "duration": 251, "velocity": 100}, {"time": 25461, "pitch": 60, "duration": 231, "velocity": 105}, {"time": 25471, "pitch": 65, "duration": 211, "velocity": 110}, {"time": 25682, "pitch": 65, "duration": 150, "velocity": 100}, {"time": 25692, "pitch": 60, "duration": 130, "velocity": 95}, {"time": 25702, "pitch": 57, "duration": 110, "velocity": 90}, {"time": 25712, "pitch": 53, "duration": 90, "velocity": 95}, {"time": 25802, "pitch": 53, "duration": 270, "velocity": 105}, {"time": 25812, "pitch": 57, "duration": 250, "velocity": 100}, {"time": 25822, "pitch": 60, "duration": 230, "velocity": 105}, {"time": 25832, "pitch": 65, "duration": 210, "velocity": 110}, {"time": 26042, "pitch": 65, "duration": 151, "velocity": 100}, {"time": 26052, "pitch": 60, "duration": 131, "velocity": 95}, {"time": 26062, "pitch": 57, "duration": 111, "velocity": 90}, {"time": 26072, "pitch": 53, "duration": 91, "velocity": 95}, {"time": 26163, "pitch": 53, "duration": 240, "velocity": 105}, {"time": 26173, "pitch": 57, "duration": 240, "velocity": 100}, {"time": 26183, "pitch": 60, "duration": 240, "velocity": 105}, {"time": 26193, "pitch": 65, "duration": 240, "velocity": 110}, {"time": 26403, "pitch": 53, "duration": 148, "velocity": 100}, {"time": 26413, "pitch": 57, "duration": 129, "velocity": 90}, {"time": 26423, "pitch": 60, "duration": 109, "velocity": 95}, {"time": 26433, "pitch": 65, "duration": 89, "velocity": 100}, {"time": 26522, "pitch": 65, "duration": 148, "velocity": 85}, {"time": 26532, "pitch": 60, "duration": 128, "velocity": 80}, {"time": 26542, "pitch": 57, "duration": 108, "velocity": 75}, {"time": 26551, "pitch": 53, "duration": 89, "velocity": 80}, {"time": 26640, "pitch": 53, "duration": 268, "velocity": 105}, {"time": 26650, "pitch": 57, "duration": 248, "velocity": 100}, {"time": 26660, "pitch": 60, "duration": 228, "velocity": 105}, {"time": 26670, "pitch": 65, "duration": 208, "velocity": 110}, {"time": 26878, "pitch": 65, "duration": 481, "velocity": 100}, {"time": 26888, "pitch": 60, "duration": 471, "velocity": 95}, {"time": 26898, "pitch": 57, "duration": 461, "velocity": 90}, {"time": 26908, "pitch": 53, "duration": 451, "velocity": 95}, {"time": 56158, "pitch": 53, "duration": 270, "velocity": 105}, {"time": 56168, "pitch": 57, "duration": 250, "velocity": 100}, {"time": 56178, "pitch": 60, "duration": 230, "velocity": 105}, {"time": 56188, "pitch": 65, "duration": 210, "velocity": 110}, {"time": 56398, "pitch": 65, "duration": 150, "velocity": 100}, {"time": 56408, "pitch": 60, "duration": 130, "velocity": 95}, {"time": 56418, "pitch": 57, "duration": 110, "velocity": 90}, {"time": 56428, "pitch": 53, "duration": 90, "velocity": 95}, {"time": 56518, "pitch": 53, "duration": 271, "velocity": 105}, {"time": 56528, "pitch": 57, "duration": 251, "velocity": 100}, {"time": 56538, "pitch": 60, "duration": 231, "velocity": 105}, {"time": 56548, "pitch": 65, "duration": 211, "velocity": 110}, {"time": 56759, "pitch": 65, "duration": 150, "velocity": 100}, {"time": 56769, "pitch": 60, "duration": 130, "velocity": 95}, {"time": 56779, "pitch": 57, "duration": 110, "velocity": 90}, {"time": 56789, "pitch": 53, "duration": 90, "velocity": 95}, {"time": 56879, "pitch": 53, "duration": 241, "velocity": 105}, {"time": 56889, "pitch": 57, "duration": 241, "velocity": 100}, {"time": 56899, "pitch": 60, "duration": 241, "velocity": 105}, {"time": 56909, "pitch": 65, "duration": 241, "velocity": 110}, {"time": 57120, "pitch": 53, "duration": 150, "velocity": 100}, {"time": 57130, "pitch": 57, "duration": 130, "velocity": 90}, {"time": 57140, "pitch": 60, "duration": 110, "velocity": 95}, {"time": 57150, "pitch": 65, "duration": 90, "velocity": 100}, {"time": 57240, "pitch": 65, "duration": 150, "velocity": 85}, {"time": 57250, "pitch": 60, "duration": 130, "velocity": 80}, {"time": 57260, "pitch": 57, "duration": 110, "velocity": 75}, {"time": 57270, "pitch": 53, "duration": 90, "velocity": 80}, {"time": 57360, "pitch": 53, "duration": 151, "velocity": 110}, {"time": 57370, "pitch": 57, "duration": 131, "velocity": 100}, {"time": 57380, "pitch": 60, "duration": 110, "velocity": 105}, {"time": 57390, "pitch": 65, "duration": 90, "velocity": 110}, {"time": 57480, "pitch": 65, "duration": 151, "velocity": 105}, {"time": 57490, "pitch": 60, "duration": 131, "velocity": 100}, {"time": 57501, "pitch": 57, "duration": 110, "velocity": 95}, {"time": 57511, "pitch": 53, "duration": 90, "velocity": 100}, {"time": 57601, "pitch": 53, "duration": 481, "velocity": 105}, {"time": 57611, "pitch": 57, "duration": 471, "velocity": 100}, {"time": 57621, "pitch": 60, "duration": 461, "velocity": 105}, {"time": 57631, "pitch": 65, "duration": 451, "velocity": 110}, {"time": 58082, "pitch": 53, "duration": 270, "velocity": 105}, {"time": 58092, "pitch": 57, "duration": 250, "velocity": 100}, {"time": 58102, "pitch": 60, "duration": 230, "velocity": 105}, {"time": 58112, "pitch": 65, "duration": 210, "velocity": 110}, {"time": 58322, "pitch": 65, "duration": 151, "velocity": 100}, {"time": 58332, "pitch": 60, "duration": 131, "velocity": 95}, {"time": 58342, "pitch": 57, "duration": 111, "velocity": 90}, {"time": 58352, "pitch": 53, "duration": 91, "velocity": 95}, {"time": 58443, "pitch": 53, "duration": 268, "velocity": 105}, {"time": 58453, "pitch": 57, "duration": 248, "velocity": 100}, {"time": 58463, "pitch": 60, "duration": 228, "velocity": 105}, {"time": 58473, "pitch": 65, "duration": 208, "velocity": 110}, {"time": 58681, "pitch": 65, "duration": 149, "velocity": 100}, {"time": 58691, "pitch": 60, "duration": 129, "velocity": 95}, {"time": 58701, "pitch": 57, "duration": 109, "velocity": 90}, {"time": 58711, "pitch": 53, "duration": 89, "velocity": 95}, {"time": 58800, "pitch": 53, "duration": 237, "velocity": 105}, {"time": 58810, "pitch": 57, "duration": 237, "velocity": 100}, {"time": 58820, "pitch": 60, "duration": 237, "velocity": 105}, {"time": 58830, "pitch": 65, "duration": 237, "velocity": 110}, {"time": 59037, "pitch": 53, "duration": 151, "velocity": 100}, {"time": 59047, "pitch": 57, "duration": 131, "velocity": 90}, {"time": 59057, "pitch": 60, "duration": 111, "velocity": 95}, {"time": 59067, "pitch": 65, "duration": 91, "velocity": 100}, {"time": 59158, "pitch": 65, "duration": 150, "velocity": 85}, {"time": 59168, "pitch": 60, "duration": 130, "velocity": 80}, {"time": 59178, "pitch": 57, "duration": 110, "velocity": 75}, {"time": 59188, "pitch": 53, "duration": 90, "velocity": 80}, {"time": 59278, "pitch": 53, "duration": 150, "velocity": 110}, {"time": 59288, "pitch": 57, "duration": 130, "velocity": 100}, {"time": 59298, "pitch": 60, "duration": 110, "velocity": 105}, {"time": 59308, "pitch": 65, "duration": 90, "velocity": 110}, {"time": 59398, "pitch": 65, "duration": 151, "velocity": 105}, {"time": 59408, "pitch": 60, "duration": 110, "velocity": 100}, {"time": 59418, "pitch": 57, "duration": 110, "velocity": 95}, {"time": 59428, "pitch": 53, "duration": 90, "velocity": 100}, {"time": 59518, "pitch": 60, "duration": 482, "velocity": 105}, {"time": 59528, "pitch": 64, "duration": 472, "velocity": 100}, {"time": 59538, "pitch": 67, "duration": 462, "velocity": 105}, {"time": 59549, "pitch": 72, "duration": 451, "velocity": 110}, {"time": 60000, "pitch": 53, "duration": 270, "velocity": 105}, {"time": 60010, "pitch": 57, "duration": 250, "velocity": 100}, {"time": 60020, "pitch": 60, "duration": 230, "velocity": 105}, {"time": 60030, "pitch": 65, "duration": 210, "velocity": 110}, {"time": 60240, "pitch": 65, "duration": 150, "velocity": 100}, {"time": 60250, "pitch": 60, "duration": 130, "velocity": 95}, {"time": 60260, "pitch": 57, "duration": 110, "velocity": 90}, {"time": 60270, "pitch": 53, "duration": 90, "velocity": 95}, {"time": 60360, "pitch": 53, "duration": 271, "velocity": 105}, {"time": 60370, "pitch": 57, "duration": 251, "velocity": 100}, {"time": 60380, "pitch": 60, "duration": 231, "velocity": 105}, {"time": 60390, "pitch": 65, "duration": 211, "velocity": 110}, {"time": 60601, "pitch": 65, "duration": 150, "velocity": 100}, {"time": 60611, "pitch": 60, "duration": 130, "velocity": 95}, {"time": 60621, "pitch": 57, "duration": 110, "velocity": 90}, {"time": 60631, "pitch": 53, "duration": 90, "velocity": 95}, {"time": 60721, "pitch": 53, "duration": 241, "velocity": 105}, {"time": 60731, "pitch": 57, "duration": 241, "velocity": 100}, {"time": 60741, "pitch": 60, "duration": 241, "velocity": 105}, {"time": 60751, "pitch": 65, "duration": 241, "velocity": 110}, {"time": 60962, "pitch": 53, "duration": 150, "velocity": 100}, {"time": 60972, "pitch": 57, "duration": 130, "velocity": 90}, {"time": 60982, "pitch": 60, "duration": 110, "velocity": 95}, {"time": 60992, "pitch": 65, "duration": 90, "velocity": 100}, {"time": 61082, "pitch": 65, "duration": 150, "velocity": 85}, {"time": 61092, "pitch": 60, "duration": 130, "velocity": 80}, {"time": 61102, "pitch": 57, "duration": 110, "velocity": 75}, {"time": 61112, "pitch": 53, "duration": 90, "velocity": 80}, {"time": 61202, "pitch": 53, "duration": 151, "velocity": 110}, {"time": 61212, "pitch": 57, "duration": 131, "velocity": 100}, {"time": 61222, "pitch": 60, "duration": 111, "velocity": 105}, {"time": 61232, "pitch": 65, "duration": 90, "velocity": 110}, {"time": 61322, "pitch": 65, "duration": 150, "velocity": 105}, {"time": 61333, "pitch": 60, "duration": 129, "velocity": 100}, {"time": 61343, "pitch": 57, "duration": 110, "velocity": 95}, {"time": 61353, "pitch": 53, "duration": 90, "velocity": 100}, {"time": 61443, "pitch": 53, "duration": 474, "velocity": 105}, {"time": 61453, "pitch": 57, "duration": 464, "velocity": 100}, {"time": 61462, "pitch": 60, "duration": 455, "velocity": 105}, {"time": 61472, "pitch": 65, "duration": 445, "velocity": 110}, {"time": 61917, "pitch": 53, "duration": 271, "velocity": 105}, {"time": 61927, "pitch": 57, "duration": 251, "velocity": 100}, {"time": 61937, "pitch": 60, "duration": 231, "velocity": 105}, {"time": 61947, "pitch": 65, "duration": 211, "velocity": 110}, {"time": 62158, "pitch": 65, "duration": 150, "velocity": 100}, {"time": 62168, "pitch": 60, "duration": 130, "velocity": 95}, {"time": 62178, "pitch": 57, "duration": 110, "velocity": 90}, {"time": 62188, "pitch": 53, "duration": 90, "velocity": 95}, {"time": 62278, "pitch": 53, "duration": 271, "velocity": 105}, {"time": 62288, "pitch": 57, "duration": 251, "velocity": 100}, {"time": 62298, "pitch": 60, "duration": 231, "velocity": 105}, {"time": 62308, "pitch": 65, "duration": 211, "velocity": 110}, {"time": 62519, "pitch": 65, "duration": 150, "velocity": 100}, {"time": 62529, "pitch": 60, "duration": 130, "velocity": 95}, {"time": 62539, "pitch": 57, "duration": 110, "velocity": 90}, {"time": 62549, "pitch": 53, "duration": 90, "velocity": 95}, {"time": 62639, "pitch": 53, "duration": 240, "velocity": 105}, {"time": 62649, "pitch": 57, "duration": 240, "velocity": 100}, {"time": 62659, "pitch": 60, "duration": 240, "velocity": 105}, {"time": 62669, "pitch": 65, "duration": 240, "velocity": 110}, {"time": 62879, "pitch": 53, "duration": 151, "velocity": 100}, {"time": 62889, "pitch": 57, "duration": 131, "velocity": 90}, {"time": 62899, "pitch": 60, "duration": 111, "velocity": 95}, {"time": 62909, "pitch": 65, "duration": 91, "velocity": 100}, {"time": 63000, "pitch": 65, "duration": 150, "velocity": 85}, {"time": 63010, "pitch": 60, "duration": 130, "velocity": 80}, {"time": 63020, "pitch": 57, "duration": 110, "velocity": 75}, {"time": 63030, "pitch": 53, "duration": 90, "velocity": 80}, {"time": 63120, "pitch": 53, "duration": 150, "velocity": 110}, {"time": 63130, "pitch": 57, "duration": 130, "velocity": 100}, {"time": 63140, "pitch": 60, "duration": 110, "velocity": 105}, {"time": 63150, "pitch": 65, "duration": 90, "velocity": 110}, {"time": 63240, "pitch": 65, "duration": 151, "velocity": 105}, {"time": 63250, "pitch": 60, "duration": 110, "velocity": 100}, {"time": 63260, "pitch": 57, "duration": 110, "velocity": 95}, {"time": 63270, "pitch": 53, "duration": 90, "velocity": 100}, {"time": 63360, "pitch": 60, "duration": 482, "velocity": 105}, {"time": 63370, "pitch": 64, "duration": 472, "velocity": 100}, {"time": 63381, "pitch": 67, "duration": 461, "velocity": 105}, {"time": 63391, "pitch": 72, "duration": 451, "velocity": 110}, {"time": 132959, "pitch": 53, "duration": 270, "velocity": 105}, {"time": 132969, "pitch": 57, "duration": 250, "velocity": 100}, {"time": 132979, "pitch": 60, "duration": 230, "velocity": 105}, {"time": 132989, "pitch": 65, "duration": 210, "velocity": 110}, {"time": 133199, "pitch": 65, "duration": 150, "velocity": 100}, {"time": 133209, "pitch": 60, "duration": 130, "velocity": 95}, {"time": 133219, "pitch": 57, "duration": 110, "velocity": 90}, {"time": 133229, "pitch": 53, "duration": 90, "velocity": 95}, {"time": 133319, "pitch": 53, "duration": 271, "velocity": 105}, {"time": 133329, "pitch": 57, "duration": 251, "velocity": 100}, {"time": 133339, "pitch": 60, "duration": 231, "velocity": 105}, {"time": 133349, "pitch": 65, "duration": 211, "velocity": 110}, {"time": 133560, "pitch": 65, "duration": 150, "velocity": 100}, {"time": 133570, "pitch": 60, "duration": 130, "velocity": 95}, {"time": 133580, "pitch": 57, "duration": 110, "velocity": 90}, {"time": 133590, "pitch": 53, "duration": 90, "velocity": 95}, {"time": 133680, "pitch": 53, "duration": 241, "velocity": 105}, {"time": 133690, "pitch": 57, "duration": 241, "velocity": 100}, {"time": 133700, "pitch": 60, "duration": 241, "velocity": 105}, {"time": 133710, "pitch": 65, "duration": 241, "velocity": 110}, {"time": 133921, "pitch": 53, "duration": 150, "velocity": 100}, {"time": 133931, "pitch": 57, "duration": 130, "velocity": 90}, {"time": 133941, "pitch": 60, "duration": 110, "velocity": 95}, {"time": 133951, "pitch": 65, "duration": 90, "velocity": 100}, {"time": 134041, "pitch": 65, "duration": 150, "velocity": 85}, {"time": 134051, "pitch": 60, "duration": 130, "velocity": 80}, {"time": 134061, "pitch": 57, "duration": 110, "velocity": 75}, {"time": 134071, "pitch": 53, "duration": 90, "velocity": 80}, {"time": 134161, "pitch": 53, "duration": 151, "velocity": 110}, {"time": 134171, "pitch": 57, "duration": 131, "velocity": 100}, {"time": 134181, "pitch": 60, "duration": 111, "velocity": 105}, {"time": 134191, "pitch": 65, "duration": 91, "velocity": 110}, {"time": 134282, "pitch": 65, "duration": 150, "velocity": 105}, {"time": 134292, "pitch": 60, "duration": 110, "velocity": 100}, {"time": 134302, "pitch": 57, "duration": 110, "velocity": 95}, {"time": 134312, "pitch": 53, "duration": 90, "velocity": 100}, {"time": 134402, "pitch": 60, "duration": 481, "velocity": 105}, {"time": 134412, "pitch": 64, "duration": 471, "velocity": 100}, {"time": 134422, "pitch": 67, "duration": 461, "velocity": 105}, {"time": 134432, "pitch": 72, "duration": 451, "velocity": 110}, {"time": 134883, "pitch": 53, "duration": 267, "velocity": 105}, {"time": 134893, "pitch": 57, "duration": 247, "velocity": 100}, {"time": 134903, "pitch": 60, "duration": 227, "velocity": 105}, {"time": 134912, "pitch": 65, "duration": 208, "velocity": 110}, {"time": 135120, "pitch": 65, "duration": 148, "velocity": 100}, {"time": 135130, "pitch": 60, "duration": 129, "velocity": 95}, {"time": 135140, "pitch": 57, "duration": 109, "velocity": 90}, {"time": 135150, "pitch": 53, "duration": 89, "velocity": 95}, {"time": 135239, "pitch": 53, "duration": 269, "velocity": 105}, {"time": 135249, "pitch": 57, "duration": 249, "velocity": 100}, {"time": 135259, "pitch": 60, "duration": 229, "velocity": 105}, {"time": 135268, "pitch": 65, "duration": 210, "velocity": 110}, {"time": 135478, "pitch": 65, "duration": 150, "velocity": 100}, {"time": 135488, "pitch": 60, "duration": 130, "velocity": 95}, {"time": 135498, "pitch": 57, "duration": 110, "velocity": 90}, {"time": 135508, "pitch": 53, "duration": 90, "velocity": 95}, {"time": 135598, "pitch": 53, "duration": 240, "velocity": 105}, {"time": 135608, "pitch": 57, "duration": 240, "velocity": 100}, {"time": 135618, "pitch": 60, "duration": 240, "velocity": 105}, {"time": 135628, "pitch": 65, "duration": 240, "velocity": 110}, {"time": 135838, "pitch": 53, "duration": 151, "velocity": 100}, {"time": 135848, "pitch": 57, "duration": 131, "velocity": 90}, {"time": 135858, "pitch": 60, "duration": 111, "velocity": 95}, {"time": 135868, "pitch": 65, "duration": 91, "velocity": 100}, {"time": 135959, "pitch": 65, "duration": 150, "velocity": 85}, {"time": 135969, "pitch": 60, "duration": 130, "velocity": 80}, {"time": 135979, "pitch": 57, "duration": 110, "velocity": 75}, {"time": 135989, "pitch": 53, "duration": 90, "velocity": 80}, {"time": 136079, "pitch": 53, "duration": 150, "velocity": 110}, {"time": 136089, "pitch": 57, "duration": 130, "velocity": 100}, {"time": 136099, "pitch": 60, "duration": 110, "velocity": 105}, {"time": 136109, "pitch": 65, "duration": 90, "velocity": 110}, {"time": 136199, "pitch": 65, "duration": 151, "velocity": 105}, {"time": 136209, "pitch": 60, "duration": 131, "velocity": 100}, {"time": 136219, "pitch": 57, "duration": 111, "velocity": 95}, {"time": 136229, "pitch": 53, "duration": 91, "velocity": 100}, {"time": 136320, "pitch": 53, "duration": 481, "velocity": 105}, {"time": 136330, "pitch": 57, "duration": 471, "velocity": 100}, {"time": 136340, "pitch": 60, "duration": 461, "velocity": 105}, {"time": 136350, "pitch": 65, "duration": 451, "velocity": 110}, {"time": 136801, "pitch": 53, "duration": 270, "velocity": 105}, {"time": 136811, "pitch": 57, "duration": 250, "velocity": 100}, {"time": 136821, "pitch": 60, "duration": 230, "velocity": 105}, {"time": 136831, "pitch": 65, "duration": 210, "velocity": 110}, {"time": 137041, "pitch": 65, "duration": 150, "velocity": 100}, {"time": 137051, "pitch": 60, "duration": 130, "velocity": 95}, {"time": 137061, "pitch": 57, "duration": 110, "velocity": 90}, {"time": 137071, "pitch": 53, "duration": 90, "velocity": 95}, {"time": 137161, "pitch": 53, "duration": 271, "velocity": 105}, {"time": 137171, "pitch": 57, "duration": 251, "velocity": 100}, {"time": 137181, "pitch": 60, "duration": 231, "velocity": 105}, {"time": 137191, "pitch": 65, "duration": 211, "velocity": 110}, {"time": 137402, "pitch": 65, "duration": 150, "velocity": 100}, {"time": 137412, "pitch": 60, "duration": 130, "velocity": 95}, {"time": 137422, "pitch": 57, "duration": 110, "velocity": 90}, {"time": 137432, "pitch": 53, "duration": 90, "velocity": 95}, {"time": 137522, "pitch": 53, "duration": 241, "velocity": 105}, {"time": 137532, "pitch": 57, "duration": 241, "velocity": 100}, {"time": 137542, "pitch": 60, "duration": 240, "velocity": 105}, {"time": 137552, "pitch": 65, "duration": 240, "velocity": 110}, {"time": 137763, "pitch": 53, "duration": 148, "velocity": 100}, {"time": 137773, "pitch": 57, "duration": 128, "velocity": 90}, {"time": 137782, "pitch": 60, "duration": 109, "velocity": 95}, {"time": 137792, "pitch": 65, "duration": 89, "velocity": 100}, {"time": 137881, "pitch": 65, "duration": 149, "velocity": 85}, {"time": 137891, "pitch": 60, "duration": 129, "velocity": 80}, {"time": 137901, "pitch": 57, "duration": 109, "velocity": 75}, {"time": 137911, "pitch": 53, "duration": 89, "velocity": 80}, {"time": 138000, "pitch": 53, "duration": 148, "velocity": 110}, {"time": 138010, "pitch": 57, "duration": 128, "velocity": 100}, {"time": 138020, "pitch": 60, "duration": 109, "velocity": 105}, {"time": 138030, "pitch": 65, "duration": 89, "velocity": 110}, {"time": 138119, "pitch": 65, "duration": 148, "velocity": 105}, {"time": 138129, "pitch": 60, "duration": 108, "velocity": 100}, {"time": 138138, "pitch": 57, "duration": 109, "velocity": 95}, {"time": 138148, "pitch": 53, "duration": 89, "velocity": 100}, {"time": 138237, "pitch": 60, "duration": 481, "velocity": 105}, {"time": 138247, "pitch": 64, "duration": 471, "velocity": 100}, {"time": 138257, "pitch": 67, "duration": 461, "velocity": 105}, {"time": 138267, "pitch": 72, "duration": 451, "velocity": 110}, {"time": 138718, "pitch": 53, "duration": 271, "velocity": 105}, {"time": 138728, "pitch": 57, "duration": 251, "velocity": 100}, {"time": 138738, "pitch": 60, "duration": 231, "velocity": 105}, {"time": 138748, "pitch": 65, "duration": 211, "velocity": 110}, {"time": 138959, "pitch": 65, "duration": 150, "velocity": 100}, {"time": 138969, "pitch": 60, "duration": 130, "velocity": 95}, {"time": 138979, "pitch": 57, "duration": 110, "velocity": 90}, {"time": 138989, "pitch": 53, "duration": 90, "velocity": 95}, {"time": 139079, "pitch": 53, "duration": 271, "velocity": 105}, {"time": 139089, "pitch": 57, "duration": 251, "velocity": 100}, {"time": 139099, "pitch": 60, "duration": 231, "velocity": 105}, {"time": 139109, "pitch": 65, "duration": 211, "velocity": 110}, {"time": 139320, "pitch": 65, "duration": 150, "velocity": 100}, {"time": 139330, "pitch": 60, "duration": 130, "velocity": 95}, {"time": 139340, "pitch": 57, "duration": 110, "velocity": 90}, {"time": 139350, "pitch": 53, "duration": 90, "velocity": 95}, {"time": 139440, "pitch": 53, "duration": 240, "velocity": 105}, {"time": 139450, "pitch": 57, "duration": 240, "velocity": 100}, {"time": 139460, "pitch": 60, "duration": 240, "velocity": 105}, {"time": 139470, "pitch": 65, "duration": 241, "velocity": 110}, {"time": 139680, "pitch": 53, "duration": 151, "velocity": 100}, {"time": 139690, "pitch": 57, "duration": 131, "velocity": 90}, {"time": 139700, "pitch": 60, "duration": 111, "velocity": 95}, {"time": 139711, "pitch": 65, "duration": 90, "velocity": 100}, {"time": 139801, "pitch": 65, "duration": 150, "velocity": 85}, {"time": 139811, "pitch": 60, "duration": 130, "velocity": 80}, {"time": 139821, "pitch": 57, "duration": 110, "velocity": 75}, {"time": 139831, "pitch": 53, "duration": 90, "velocity": 80}, {"time": 139921, "pitch": 53, "duration": 150, "velocity": 110}, {"time": 139931, "pitch": 57, "duration": 130, "velocity": 100}, {"time": 139941, "pitch": 60, "duration": 110, "velocity": 105}, {"time": 139951, "pitch": 65, "duration": 90, "velocity": 110}, {"time": 140041, "pitch": 65, "duration": 151, "velocity": 105}, {"time": 140051, "pitch": 60, "duration": 131, "velocity": 100}, {"time": 140061, "pitch": 57, "duration": 111, "velocity": 95}, {"time": 140071, "pitch": 53, "duration": 91, "velocity": 100}, {"time": 140162, "pitch": 53, "duration": 481, "velocity": 105}, {"time": 140172, "pitch": 57, "duration": 471, "velocity": 100}, {"time": 140182, "pitch": 60, "duration": 461, "velocity": 105}, {"time": 140192, "pitch": 65, "duration": 451, "velocity": 110}, {"time": 140643, "pitch": 53, "duration": 267, "velocity": 105}, {"time": 140652, "pitch": 57, "duration": 248, "velocity": 100}, {"time": 140662, "pitch": 60, "duration": 228, "velocity": 105}, {"time": 140672, "pitch": 65, "duration": 208, "velocity": 110}, {"time": 140880, "pitch": 65, "duration": 148, "velocity": 100}, {"time": 140890, "pitch": 60, "duration": 128, "velocity": 95}, {"time": 140900, "pitch": 57, "duration": 108, "velocity": 90}, {"time": 140910, "pitch": 53, "duration": 88, "velocity": 95}, {"time": 140998, "pitch": 53, "duration": 269, "velocity": 105}, {"time": 141008, "pitch": 57, "duration": 249, "velocity": 100}, {"time": 141018, "pitch": 60, "duration": 229, "velocity": 105}, {"time": 141028, "pitch": 65, "duration": 209, "velocity": 110}, {"time": 141237, "pitch": 65, "duration": 151, "velocity": 100}, {"time": 141247, "pitch": 60, "duration": 131, "velocity": 95}, {"time": 141257, "pitch": 57, "duration": 111, "velocity": 90}, {"time": 141267, "pitch": 53, "duration": 91, "velocity": 95}, {"time": 141358, "pitch": 53, "duration": 240, "velocity": 105}, {"time": 141368, "pitch": 57, "duration": 240, "velocity": 100}, {"time": 141378, "pitch": 60, "duration": 240, "velocity": 105}, {"time": 141388, "pitch": 65, "duration": 240, "velocity": 110}, {"time": 141598, "pitch": 53, "duration": 151, "velocity": 100}, {"time": 141608, "pitch": 57, "duration": 130, "velocity": 90}, {"time": 141618, "pitch": 60, "duration": 110, "velocity": 95}, {"time": 141628, "pitch": 65, "duration": 90, "velocity": 100}, {"time": 141718, "pitch": 65, "duration": 151, "velocity": 85}, {"time": 141728, "pitch": 60, "duration": 131, "velocity": 80}, {"time": 141738, "pitch": 57, "duration": 111, "velocity": 75}, {"time": 141749, "pitch": 53, "duration": 90, "velocity": 80}, {"time": 141839, "pitch": 53, "duration": 150, "velocity": 110}, {"time": 141849, "pitch": 57, "duration": 130, "velocity": 100}, {"time": 141859, "pitch": 60, "duration": 110, "velocity": 105}, {"time": 141869, "pitch": 65, "duration": 90, "velocity": 110}, {"time": 141959, "pitch": 65, "duration": 150, "velocity": 105}, {"time": 141969, "pitch": 60, "duration": 130, "velocity": 100}, {"time": 141979, "pitch": 57, "duration": 110, "velocity": 95}, {"time": 141989, "pitch": 53, "duration": 90, "velocity": 100}, {"time": 142079, "pitch": 53, "duration": 481, "velocity": 105}, {"time": 142089, "pitch": 57, "duration": 471, "velocity": 100}, {"time": 142099, "pitch": 60, "duration": 461, "velocity": 105}, {"time": 142109, "pitch": 65, "duration": 451, "velocity": 110}, {"time": 142560, "pitch": 53, "duration": 271, "velocity": 105}, {"time": 142570, "pitch": 57, "duration": 251, "velocity": 100}, {"time": 142580, "pitch": 60, "duration": 231, "velocity": 105}, {"time": 142590, "pitch": 65, "duration": 211, "velocity": 110}, {"time": 142801, "pitch": 65, "duration": 150, "velocity": 100}, {"time": 142811, "pitch": 60, "duration": 130, "velocity": 95}, {"time": 142821, "pitch": 57, "duration": 110, "velocity": 90}, {"time": 142831, "pitch": 53, "duration": 90, "velocity": 95}, {"time": 142921, "pitch": 53, "duration": 271, "velocity": 105}, {"time": 142931, "pitch": 57, "duration": 251, "velocity": 100}, {"time": 142941, "pitch": 60, "duration": 231, "velocity": 105}, {"time": 142951, "pitch": 65, "duration": 211, "velocity": 110}, {"time": 143162, "pitch": 65, "duration": 150, "velocity": 100}, {"time": 143172, "pitch": 60, "duration": 130, "velocity": 95}, {"time": 143182, "pitch": 57, "duration": 110, "velocity": 90}, {"time": 143192, "pitch": 53, "duration": 90, "velocity": 95}, {"time": 143282, "pitch": 53, "duration": 240, "velocity": 105}, {"time": 143292, "pitch": 57, "duration": 240, "velocity": 100}, {"time": 143302, "pitch": 60, "duration": 240, "velocity": 105}, {"time": 143312, "pitch": 65, "duration": 240, "velocity": 110}, {"time": 143522, "pitch": 53, "duration": 149, "velocity": 100}, {"time": 143532, "pitch": 57, "duration": 129, "velocity": 90}, {"time": 143542, "pitch": 60, "duration": 109, "velocity": 95}, {"time": 143552, "pitch": 65, "duration": 89, "velocity": 100}, {"time": 143641, "pitch": 65, "duration": 148, "velocity": 85}, {"time": 143651, "pitch": 60, "duration": 129, "velocity": 80}, {"time": 143661, "pitch": 57, "duration": 109, "velocity": 75}, {"time": 143671, "pitch": 53, "duration": 89, "velocity": 80}, {"time": 143760, "pitch": 53, "duration": 148, "velocity": 110}, {"time": 143770, "pitch": 57, "duration": 128, "velocity": 100}, {"time": 143780, "pitch": 60, "duration": 108, "velocity": 105}, {"time": 143789, "pitch": 65, "duration": 89, "velocity": 110}, {"time": 143878, "pitch": 65, "duration": 149, "velocity": 105}, {"time": 143888, "pitch": 60, "duration": 109, "velocity": 100}, {"time": 143898, "pitch": 57, "duration": 109, "velocity": 95}, {"time": 143908, "pitch": 53, "duration": 89, "velocity": 100}, {"time": 143997, "pitch": 60, "duration": 481, "velocity": 105}, {"time": 144007, "pitch": 64, "duration": 471, "velocity": 100}, {"time": 144017, "pitch": 67, "duration": 461, "velocity": 105}, {"time": 144027, "pitch": 72, "duration": 451, "velocity": 110}, {"time": 144478, "pitch": 53, "duration": 271, "velocity": 105}, {"time": 144488, "pitch": 57, "duration": 251, "velocity": 100}, {"time": 144498, "pitch": 60, "duration": 231, "velocity": 105}, {"time": 144508, "pitch": 65, "duration": 211, "velocity": 110}, {"time": 144719, "pitch": 65, "duration": 150, "velocity": 100}, {"time": 144729, "pitch": 60, "duration": 130, "velocity": 95}, {"time": 144739, "pitch": 57, "duration": 110, "velocity": 90}, {"time": 144749, "pitch": 53, "duration": 90, "velocity": 95}, {"time": 144839, "pitch": 53, "duration": 270, "velocity": 105}, {"time": 144849, "pitch": 57, "duration": 250, "velocity": 100}, {"time": 144859, "pitch": 60, "duration": 230, "velocity": 105}, {"time": 144869, "pitch": 65, "duration": 210, "velocity": 110}, {"time": 145079, "pitch": 65, "duration": 151, "velocity": 100}, {"time": 145089, "pitch": 60, "duration": 131, "velocity": 95}, {"time": 145099, "pitch": 57, "duration": 111, "velocity": 90}, {"time": 145109, "pitch": 53, "duration": 91, "velocity": 95}, {"time": 145200, "pitch": 53, "duration": 240, "velocity": 105}, {"time": 145210, "pitch": 57, "duration": 240, "velocity": 100}, {"time": 145220, "pitch": 60, "duration": 240, "velocity": 105}, {"time": 145230, "pitch": 65, "duration": 240, "velocity": 110}, {"time": 145440, "pitch": 53, "duration": 151, "velocity": 100}, {"time": 145450, "pitch": 57, "duration": 131, "velocity": 90}, {"time": 145460, "pitch": 60, "duration": 110, "velocity": 95}, {"time": 145470, "pitch": 65, "duration": 90, "velocity": 100}, {"time": 145560, "pitch": 65, "duration": 151, "velocity": 85}, {"time": 145570, "pitch": 60, "duration": 131, "velocity": 80}, {"time": 145581, "pitch": 57, "duration": 110, "velocity": 75}, {"time": 145591, "pitch": 53, "duration": 90, "velocity": 80}, {"time": 145681, "pitch": 53, "duration": 150, "velocity": 110}, {"time": 145691, "pitch": 57, "duration": 130, "velocity": 100}, {"time": 145701, "pitch": 60, "duration": 110, "velocity": 105}, {"time": 145711, "pitch": 65, "duration": 90, "velocity": 110}, {"time": 145801, "pitch": 65, "duration": 150, "velocity": 105}, {"time": 145811, "pitch": 60, "duration": 130, "velocity": 100}, {"time": 145821, "pitch": 57, "duration": 110, "velocity": 95}, {"time": 145831, "pitch": 53, "duration": 90, "velocity": 100}, {"time": 145921, "pitch": 53, "duration": 481, "velocity": 105}, {"time": 145931, "pitch": 57, "duration": 471, "velocity": 100}, {"time": 145941, "pitch": 60, "duration": 461, "velocity": 105}, {"time": 145951, "pitch": 65, "duration": 451, "velocity": 110}, {"time": 146402, "pitch": 53, "duration": 267, "velocity": 105}, {"time": 146412, "pitch": 57, "duration": 247, "velocity": 100}, {"time": 146422, "pitch": 60, "duration": 227, "velocity": 105}, {"time": 146432, "pitch": 65, "duration": 208, "velocity": 110}, {"time": 146640, "pitch": 65, "duration": 148, "velocity": 100}, {"time": 146649, "pitch": 60, "duration": 129, "velocity": 95}, {"time": 146659, "pitch": 57, "duration": 109, "velocity": 90}, {"time": 146669, "pitch": 53, "duration": 89, "velocity": 95}, {"time": 146758, "pitch": 53, "duration": 269, "velocity": 105}, {"time": 146768, "pitch": 57, "duration": 249, "velocity": 100}, {"time": 146778, "pitch": 60, "duration": 229, "velocity": 105}, {"time": 146788, "pitch": 65, "duration": 209, "velocity": 110}, {"time": 146997, "pitch": 65, "duration": 150, "velocity": 100}, {"time": 147007, "pitch": 60, "duration": 130, "velocity": 95}, {"time": 147017, "pitch": 57, "duration": 110, "velocity": 90}, {"time": 147027, "pitch": 53, "duration": 90, "velocity": 95}, {"time": 147117, "pitch": 53, "duration": 241, "velocity": 105}, {"time": 147127, "pitch": 57, "duration": 241, "velocity": 100}, {"time": 147137, "pitch": 60, "duration": 241, "velocity": 105}, {"time": 147147, "pitch": 65, "duration": 241, "velocity": 110}, {"time": 147358, "pitch": 53, "duration": 150, "velocity": 100}, {"time": 147368, "pitch": 57, "duration": 130, "velocity": 90}, {"time": 147378, "pitch": 60, "duration": 110, "velocity": 95}, {"time": 147388, "pitch": 65, "duration": 90, "velocity": 100}, {"time": 147478, "pitch": 65, "duration": 151, "velocity": 85}, {"time": 147488, "pitch": 60, "duration": 131, "velocity": 80}, {"time": 147498, "pitch": 57, "duration": 110, "velocity": 75}, {"time": 147508, "pitch": 53, "duration": 90, "velocity": 80}, {"time": 147598, "pitch": 53, "duration": 151, "velocity": 110}, {"time": 147608, "pitch": 57, "duration": 131, "velocity": 100}, {"time": 147619, "pitch": 60, "duration": 110, "velocity": 105}, {"time": 147629, "pitch": 65, "duration": 90, "velocity": 110}, {"time": 147719, "pitch": 65, "duration": 150, "velocity": 105}, {"time": 147729, "pitch": 60, "duration": 110, "velocity": 100}, {"time": 147739, "pitch": 57, "duration": 110, "velocity": 95}, {"time": 147749, "pitch": 53, "duration": 90, "velocity": 100}, {"time": 147839, "pitch": 60, "duration": 2379, "velocity": 105}, {"time": 147849, "pitch": 64, "duration": 2369, "velocity": 100}, {"time": 147859, "pitch": 67, "duration": 2359, "velocity": 105}, {"time": 147869, "pitch": 72, "duration": 2349, "velocity": 110}], "annotations": [{"time": 283, "annotation": {"number": 7, "value": 100}, "group": "control_change"}, {"time": 305, "annotation": {"number": 11, "value": 100}, "group": "control_change"}, {"time": 326, "annotation": {"number": 10, "value": 1}, "group": "control_change"}, {"time": 348, "annotation": {"number": 91, "value": 40}, "group": "control_change"}, {"time": 370, "annotation": {"number": 93, "value": 0}, "group": "control_change"}, {"time": 392, "annotation": {"number": 101, "value": 0}, "group": "control_change"}, {"time": 413, "annotation": {"number": 100, "value": 0}, "group": "control_change"}, {"time": 435, "annotation": {"number": 6, "value": 12}, "group": "control_change"}, {"time": 457, "annotation": {"number": 101, "value": 127}, "group": "control_change"}, {"time": 479, "annotation": {"number": 100, "value": 127}, "group": "control_change"}]}, {"program": 0, "is_drum": false, "name": "Bass", "annotations": [{"time": 218, "annotation": {"number": 0, "value": 0}, "group": "control_change"}, {"time": 239, "annotation": {"number": 32, "value": 0}, "group": "control_change"}]}, {"program": 33, "is_drum": false, "name": "Bass", "notes": [{"time": 29283, "pitch": 36, "duration": 119, "velocity": 127}, {"time": 29402, "pitch": 38, "duration": 118, "velocity": 127}, {"time": 29520, "pitch": 26, "duration": 238, "velocity": 127}, {"time": 30118, "pitch": 31, "duration": 121, "velocity": 127}, {"time": 30359, "pitch": 31, "duration": 120, "velocity": 127}, {"time": 30599, "pitch": 29, "duration": 121, "velocity": 127}, {"time": 30720, "pitch": 31, "duration": 120, "velocity": 127}, {"time": 30840, "pitch": 29, "duration": 241, "velocity": 127}, {"time": 31201, "pitch": 36, "duration": 120, "velocity": 127}, {"time": 31321, "pitch": 38, "duration": 120, "velocity": 127}, {"time": 31441, "pitch": 26, "duration": 361, "velocity": 127}, {"time": 32043, "pitch": 31, "duration": 120, "velocity": 127}, {"time": 32282, "pitch": 31, "duration": 118, "velocity": 127}, {"time": 32519, "pitch": 32, "duration": 118, "velocity": 127}, {"time": 32637, "pitch": 33, "duration": 361, "velocity": 127}, {"time": 33119, "pitch": 36, "duration": 120, "velocity": 127}, {"time": 33239, "pitch": 38, "duration": 120, "velocity": 127}, {"time": 33359, "pitch": 26, "duration": 361, "velocity": 127}, {"time": 33960, "pitch": 31, "duration": 121, "velocity": 127}, {"time": 34201, "pitch": 31, "duration": 120, "velocity": 127}, {"time": 34441, "pitch": 29, "duration": 121, "velocity": 127}, {"time": 34562, "pitch": 31, "duration": 120, "velocity": 127}, {"time": 34682, "pitch": 29, "duration": 241, "velocity": 127}, {"time": 35043, "pitch": 36, "duration": 118, "velocity": 127}, {"time": 35161, "pitch": 38, "duration": 119, "velocity": 127}, {"time": 35280, "pitch": 26, "duration": 358, "velocity": 127}, {"time": 35878, "pitch": 31, "duration": 120, "velocity": 127}, {"time": 36119, "pitch": 31, "duration": 120, "velocity": 127}, {"time": 36359, "pitch": 32, "duration": 120, "velocity": 127}, {"time": 36479, "pitch": 33, "duration": 361, "velocity": 127}, {"time": 36961, "pitch": 36, "duration": 120, "velocity": 127}, {"time": 37081, "pitch": 38, "duration": 120, "velocity": 127}, {"time": 37201, "pitch": 26, "duration": 241, "velocity": 127}, {"time": 37802, "pitch": 31, "duration": 121, "velocity": 127}, {"time": 38041, "pitch": 31, "duration": 119, "velocity": 127}, {"time": 38279, "pitch": 29, "duration": 118, "velocity": 127}, {"time": 38397, "pitch": 31, "duration": 120, "velocity": 127}, {"time": 38517, "pitch": 29, "duration": 241, "velocity": 127}, {"time": 38878, "pitch": 36, "duration": 121, "velocity": 127}, {"time": 38999, "pitch": 38, "duration": 120, "velocity": 127}, {"time": 39119, "pitch": 26, "duration": 361, "velocity": 127}, {"time": 39720, "pitch": 31, "duration": 120, "velocity": 127}, {"time": 39961, "pitch": 31, "duration": 120, "velocity": 127}, {"time": 40201, "pitch": 32, "duration": 120, "velocity": 127}, {"time": 40321, "pitch": 33, "duration": 361, "velocity": 127}, {"time": 40803, "pitch": 36, "duration": 118, "velocity": 127}, {"time": 40921, "pitch": 38, "duration": 119, "velocity": 127}, {"time": 41040, "pitch": 26, "duration": 357, "velocity": 127}, {"time": 41638, "pitch": 31, "duration": 120, "velocity": 127}, {"time": 41878, "pitch": 31, "duration": 121, "velocity": 127}, {"time": 42119, "pitch": 29, "duration": 120, "velocity": 127}, {"time": 42239, "pitch": 31, "duration": 120, "velocity": 127}, {"time": 42359, "pitch": 29, "duration": 241, "velocity": 127}, {"time": 42720, "pitch": 36, "duration": 121, "velocity": 127}, {"time": 42841, "pitch": 38, "duration": 120, "velocity": 127}, {"time": 42961, "pitch": 26, "duration": 361, "velocity": 127}, {"time": 43562, "pitch": 31, "duration": 120, "velocity": 127}, {"time": 43801, "pitch": 31, "duration": 119, "velocity": 127}, {"time": 44038, "pitch": 32, "duration": 119, "velocity": 127}, {"time": 44157, "pitch": 33, "duration": 361, "velocity": 127}, {"time": 44638, "pitch": 31, "duration": 241, "velocity": 127}, {"time": 44999, "pitch": 31, "duration": 120, "velocity": 127}, {"time": 45119, "pitch": 29, "duration": 120, "velocity": 127}, {"time": 45239, "pitch": 31, "duration": 121, "velocity": 127}, {"time": 45600, "pitch": 33, "duration": 241, "velocity": 127}, {"time": 45961, "pitch": 33, "duration": 120, "velocity": 127}, {"time": 46081, "pitch": 31, "duration": 120, "velocity": 127}, {"time": 46201, "pitch": 33, "duration": 121, "velocity": 127}, {"time": 46562, "pitch": 38, "duration": 238, "velocity": 127}, {"time": 46800, "pitch": 26, "duration": 237, "velocity": 127}, {"time": 47157, "pitch": 30, "duration": 120, "velocity": 127}, {"time": 47398, "pitch": 31, "duration": 120, "velocity": 127}, {"time": 47638, "pitch": 32, "duration": 120, "velocity": 127}, {"time": 47879, "pitch": 33, "duration": 120, "velocity": 127}, {"time": 47999, "pitch": 35, "duration": 120, "velocity": 127}, {"time": 48119, "pitch": 36, "duration": 120, "velocity": 127}, {"time": 48239, "pitch": 37, "duration": 121, "velocity": 127}, {"time": 48480, "pitch": 38, "duration": 241, "velocity": 127}, {"time": 48721, "pitch": 26, "duration": 240, "velocity": 127}, {"time": 49081, "pitch": 30, "duration": 121, "velocity": 127}, {"time": 49322, "pitch": 31, "duration": 120, "velocity": 127}, {"time": 49562, "pitch": 32, "duration": 121, "velocity": 127}, {"time": 49803, "pitch": 33, "duration": 120, "velocity": 127}, {"time": 49923, "pitch": 35, "duration": 119, "velocity": 127}, {"time": 50042, "pitch": 36, "duration": 118, "velocity": 127}, {"time": 50160, "pitch": 37, "duration": 119, "velocity": 127}, {"time": 50398, "pitch": 31, "duration": 240, "velocity": 127}, {"time": 50759, "pitch": 31, "duration": 120, "velocity": 127}, {"time": 50879, "pitch": 29, "duration": 120, "velocity": 127}, {"time": 50999, "pitch": 31, "duration": 120, "velocity": 127}, {"time": 51360, "pitch": 33, "duration": 240, "velocity": 127}, {"time": 51721, "pitch": 33, "duration": 120, "velocity": 127}, {"time": 51841, "pitch": 31, "duration": 120, "velocity": 127}, {"time": 51961, "pitch": 33, "duration": 121, "velocity": 127}, {"time": 52322, "pitch": 38, "duration": 241, "velocity": 127}, {"time": 52563, "pitch": 26, "duration": 240, "velocity": 127}, {"time": 52922, "pitch": 30, "duration": 118, "velocity": 127}, {"time": 53159, "pitch": 31, "duration": 119, "velocity": 127}, {"time": 53398, "pitch": 32, "duration": 120, "velocity": 127}, {"time": 53638, "pitch": 33, "duration": 121, "velocity": 127}, {"time": 53759, "pitch": 35, "duration": 120, "velocity": 127}, {"time": 53879, "pitch": 36, "duration": 120, "velocity": 127}, {"time": 53999, "pitch": 37, "duration": 121, "velocity": 127}, {"time": 54240, "pitch": 38, "duration": 240, "velocity": 127}, {"time": 54480, "pitch": 26, "duration": 241, "velocity": 127}, {"time": 54841, "pitch": 30, "duration": 120, "velocity": 127}, {"time": 55082, "pitch": 31, "duration": 120, "velocity": 127}, {"time": 55322, "pitch": 32, "duration": 120, "velocity": 127}, {"time": 55563, "pitch": 33, "duration": 120, "velocity": 127}, {"time": 55683, "pitch": 35, "duration": 119, "velocity": 127}, {"time": 55802, "pitch": 36, "duration": 118, "velocity": 127}, {"time": 55920, "pitch": 37, "duration": 119, "velocity": 127}, {"time": 59278, "pitch": 38, "duration": 120, "velocity": 127}, {"time": 59518, "pitch": 38, "duration": 241, "velocity": 127}, {"time": 63120, "pitch": 36, "duration": 120, "velocity": 127}, {"time": 63240, "pitch": 38, "duration": 120, "velocity": 127}, {"time": 63360, "pitch": 26, "duration": 241, "velocity": 127}, {"time": 63842, "pitch": 36, "duration": 120, "velocity": 127}, {"time": 63962, "pitch": 38, "duration": 120, "velocity": 127}, {"time": 64082, "pitch": 26, "duration": 241, "velocity": 127}, {"time": 64679, "pitch": 31, "duration": 118, "velocity": 127}, {"time": 64917, "pitch": 31, "duration": 121, "velocity": 127}, {"time": 65158, "pitch": 29, "duration": 120, "velocity": 127}, {"time": 65278, "pitch": 31, "duration": 120, "velocity": 127}, {"time": 65398, "pitch": 29, "duration": 241, "velocity": 127}, {"time": 65759, "pitch": 36, "duration": 121, "velocity": 127}, {"time": 65880, "pitch": 38, "duration": 120, "velocity": 127}, {"time": 66000, "pitch": 26, "duration": 361, "velocity": 127}, {"time": 66601, "pitch": 31, "duration": 120, "velocity": 127}, {"time": 66842, "pitch": 31, "duration": 120, "velocity": 127}, {"time": 67082, "pitch": 32, "duration": 120, "velocity": 127}, {"time": 67202, "pitch": 33, "duration": 356, "velocity": 127}, {"time": 67677, "pitch": 36, "duration": 120, "velocity": 127}, {"time": 67797, "pitch": 38, "duration": 121, "velocity": 127}, {"time": 67918, "pitch": 26, "duration": 360, "velocity": 127}, {"time": 68519, "pitch": 31, "duration": 120, "velocity": 127}, {"time": 68759, "pitch": 31, "duration": 121, "velocity": 127}, {"time": 69000, "pitch": 29, "duration": 120, "velocity": 127}, {"time": 69120, "pitch": 31, "duration": 120, "velocity": 127}, {"time": 69240, "pitch": 29, "duration": 241, "velocity": 127}, {"time": 69601, "pitch": 36, "duration": 121, "velocity": 127}, {"time": 69722, "pitch": 38, "duration": 120, "velocity": 127}, {"time": 69842, "pitch": 26, "duration": 359, "velocity": 127}, {"time": 70438, "pitch": 31, "duration": 119, "velocity": 127}, {"time": 70677, "pitch": 31, "duration": 120, "velocity": 127}, {"time": 70918, "pitch": 32, "duration": 120, "velocity": 127}, {"time": 71038, "pitch": 33, "duration": 361, "velocity": 127}, {"time": 71519, "pitch": 36, "duration": 120, "velocity": 127}, {"time": 71639, "pitch": 38, "duration": 121, "velocity": 127}, {"time": 71760, "pitch": 26, "duration": 240, "velocity": 127}, {"time": 72361, "pitch": 31, "duration": 120, "velocity": 127}, {"time": 72601, "pitch": 31, "duration": 121, "velocity": 127}, {"time": 72842, "pitch": 29, "duration": 120, "velocity": 127}, {"time": 72962, "pitch": 31, "duration": 119, "velocity": 127}, {"time": 73081, "pitch": 29, "duration": 237, "velocity": 127}, {"time": 73437, "pitch": 36, "duration": 120, "velocity": 127}, {"time": 73557, "pitch": 38, "duration": 120, "velocity": 127}, {"time": 73677, "pitch": 26, "duration": 361, "velocity": 127}, {"time": 74279, "pitch": 31, "duration": 120, "velocity": 127}, {"time": 74519, "pitch": 31, "duration": 120, "velocity": 127}, {"time": 74760, "pitch": 32, "duration": 120, "velocity": 127}, {"time": 74880, "pitch": 33, "duration": 361, "velocity": 127}, {"time": 75361, "pitch": 36, "duration": 120, "velocity": 127}, {"time": 75481, "pitch": 38, "duration": 121, "velocity": 127}, {"time": 75602, "pitch": 26, "duration": 360, "velocity": 127}, {"time": 76203, "pitch": 31, "duration": 120, "velocity": 127}, {"time": 76442, "pitch": 31, "duration": 118, "velocity": 127}, {"time": 76679, "pitch": 29, "duration": 119, "velocity": 127}, {"time": 76798, "pitch": 31, "duration": 120, "velocity": 127}, {"time": 76918, "pitch": 29, "duration": 241, "velocity": 127}, {"time": 77279, "pitch": 36, "duration": 120, "velocity": 127}, {"time": 77399, "pitch": 38, "duration": 120, "velocity": 127}, {"time": 77519, "pitch": 26, "duration": 361, "velocity": 127}, {"time": 78121, "pitch": 31, "duration": 120, "velocity": 127}, {"time": 78361, "pitch": 31, "duration": 120, "velocity": 127}, {"time": 78602, "pitch": 32, "duration": 120, "velocity": 127}, {"time": 78722, "pitch": 33, "duration": 361, "velocity": 127}, {"time": 79203, "pitch": 31, "duration": 237, "velocity": 127}, {"time": 79559, "pitch": 31, "duration": 119, "velocity": 127}, {"time": 79678, "pitch": 29, "duration": 120, "velocity": 127}, {"time": 79798, "pitch": 31, "duration": 120, "velocity": 127}, {"time": 80159, "pitch": 33, "duration": 240, "velocity": 127}, {"time": 80519, "pitch": 33, "duration": 121, "velocity": 127}, {"time": 80640, "pitch": 31, "duration": 120, "velocity": 127}, {"time": 80760, "pitch": 33, "duration": 120, "velocity": 127}, {"time": 81121, "pitch": 38, "duration": 240, "velocity": 127}, {"time": 81361, "pitch": 26, "duration": 241, "velocity": 127}, {"time": 81722, "pitch": 30, "duration": 120, "velocity": 127}, {"time": 81963, "pitch": 31, "duration": 120, "velocity": 127}, {"time": 82202, "pitch": 32, "duration": 118, "velocity": 127}, {"time": 82439, "pitch": 33, "duration": 118, "velocity": 127}, {"time": 82557, "pitch": 35, "duration": 121, "velocity": 127}, {"time": 82678, "pitch": 36, "duration": 120, "velocity": 127}, {"time": 82798, "pitch": 37, "duration": 120, "velocity": 127}, {"time": 83039, "pitch": 38, "duration": 240, "velocity": 127}, {"time": 83279, "pitch": 26, "duration": 241, "velocity": 127}, {"time": 83640, "pitch": 30, "duration": 120, "velocity": 127}, {"time": 83880, "pitch": 31, "duration": 121, "velocity": 127}, {"time": 84121, "pitch": 32, "duration": 120, "velocity": 127}, {"time": 84361, "pitch": 33, "duration": 121, "velocity": 127}, {"time": 84482, "pitch": 35, "duration": 120, "velocity": 127}, {"time": 84602, "pitch": 36, "duration": 120, "velocity": 127}, {"time": 84722, "pitch": 37, "duration": 121, "velocity": 127}, {"time": 84963, "pitch": 31, "duration": 237, "velocity": 127}, {"time": 85319, "pitch": 31, "duration": 118, "velocity": 127}, {"time": 85437, "pitch": 29, "duration": 121, "velocity": 127}, {"time": 85558, "pitch": 31, "duration": 120, "velocity": 127}, {"time": 85918, "pitch": 33, "duration": 241, "velocity": 127}, {"time": 86279, "pitch": 33, "duration": 120, "velocity": 127}, {"time": 86399, "pitch": 31, "duration": 121, "velocity": 127}, {"time": 86520, "pitch": 33, "duration": 120, "velocity": 127}, {"time": 86881, "pitch": 38, "duration": 240, "velocity": 127}, {"time": 87121, "pitch": 26, "duration": 241, "velocity": 127}, {"time": 87482, "pitch": 30, "duration": 120, "velocity": 127}, {"time": 87722, "pitch": 31, "duration": 121, "velocity": 127}, {"time": 87961, "pitch": 32, "duration": 119, "velocity": 127}, {"time": 88199, "pitch": 33, "duration": 118, "velocity": 127}, {"time": 88317, "pitch": 35, "duration": 120, "velocity": 127}, {"time": 88437, "pitch": 36, "duration": 121, "velocity": 127}, {"time": 88558, "pitch": 37, "duration": 120, "velocity": 127}, {"time": 88798, "pitch": 38, "duration": 241, "velocity": 127}, {"time": 89039, "pitch": 26, "duration": 240, "velocity": 127}, {"time": 89400, "pitch": 30, "duration": 120, "velocity": 127}, {"time": 89640, "pitch": 31, "duration": 120, "velocity": 127}, {"time": 89881, "pitch": 32, "duration": 120, "velocity": 127}, {"time": 90121, "pitch": 33, "duration": 121, "velocity": 127}, {"time": 90242, "pitch": 35, "duration": 120, "velocity": 127}, {"time": 90362, "pitch": 36, "duration": 120, "velocity": 127}, {"time": 90482, "pitch": 37, "duration": 120, "velocity": 127}, {"time": 90723, "pitch": 40, "duration": 118, "velocity": 127}, {"time": 90841, "pitch": 28, "duration": 119, "velocity": 127}, {"time": 90960, "pitch": 40, "duration": 118, "velocity": 127}, {"time": 91078, "pitch": 28, "duration": 119, "velocity": 118}, {"time": 91197, "pitch": 40, "duration": 120, "velocity": 127}, {"time": 91317, "pitch": 28, "duration": 121, "velocity": 118}, {"time": 91438, "pitch": 40, "duration": 120, "velocity": 110}, {"time": 91558, "pitch": 28, "duration": 120, "velocity": 125}, {"time": 91678, "pitch": 40, "duration": 120, "velocity": 120}, {"time": 91798, "pitch": 28, "duration": 121, "velocity": 111}, {"time": 91919, "pitch": 40, "duration": 120, "velocity": 121}, {"time": 92039, "pitch": 28, "duration": 120, "velocity": 127}, {"time": 92159, "pitch": 40, "duration": 120, "velocity": 117}, {"time": 92279, "pitch": 28, "duration": 121, "velocity": 118}, {"time": 92400, "pitch": 40, "duration": 120, "velocity": 121}, {"time": 92520, "pitch": 28, "duration": 120, "velocity": 127}, {"time": 92640, "pitch": 40, "duration": 121, "velocity": 127}, {"time": 92761, "pitch": 28, "duration": 120, "velocity": 121}, {"time": 92881, "pitch": 40, "duration": 120, "velocity": 127}, {"time": 93001, "pitch": 28, "duration": 120, "velocity": 114}, {"time": 93121, "pitch": 40, "duration": 121, "velocity": 127}, {"time": 93242, "pitch": 28, "duration": 120, "velocity": 121}, {"time": 93362, "pitch": 40, "duration": 120, "velocity": 127}, {"time": 93482, "pitch": 28, "duration": 120, "velocity": 117}, {"time": 93602, "pitch": 40, "duration": 119, "velocity": 127}, {"time": 93721, "pitch": 28, "duration": 119, "velocity": 123}, {"time": 93840, "pitch": 40, "duration": 118, "velocity": 127}, {"time": 93958, "pitch": 28, "duration": 119, "velocity": 117}, {"time": 94077, "pitch": 40, "duration": 120, "velocity": 127}, {"time": 94197, "pitch": 28, "duration": 120, "velocity": 113}, {"time": 94317, "pitch": 40, "duration": 121, "velocity": 127}, {"time": 94438, "pitch": 28, "duration": 120, "velocity": 111}, {"time": 94558, "pitch": 40, "duration": 120, "velocity": 127}, {"time": 94678, "pitch": 28, "duration": 121, "velocity": 123}, {"time": 94799, "pitch": 40, "duration": 120, "velocity": 127}, {"time": 94919, "pitch": 28, "duration": 120, "velocity": 123}, {"time": 95039, "pitch": 40, "duration": 120, "velocity": 127}, {"time": 95159, "pitch": 28, "duration": 121, "velocity": 127}, {"time": 95280, "pitch": 40, "duration": 120, "velocity": 127}, {"time": 95400, "pitch": 28, "duration": 120, "velocity": 123}, {"time": 95520, "pitch": 40, "duration": 120, "velocity": 127}, {"time": 95640, "pitch": 28, "duration": 121, "velocity": 120}, {"time": 95761, "pitch": 40, "duration": 120, "velocity": 127}, {"time": 95881, "pitch": 28, "duration": 120, "velocity": 112}, {"time": 96001, "pitch": 40, "duration": 121, "velocity": 127}, {"time": 96122, "pitch": 28, "duration": 120, "velocity": 117}, {"time": 96242, "pitch": 40, "duration": 120, "velocity": 127}, {"time": 96362, "pitch": 28, "duration": 120, "velocity": 116}, {"time": 96482, "pitch": 40, "duration": 119, "velocity": 127}, {"time": 96601, "pitch": 28, "duration": 119, "velocity": 118}, {"time": 96720, "pitch": 40, "duration": 118, "velocity": 127}, {"time": 96838, "pitch": 28, "duration": 119, "velocity": 120}, {"time": 96957, "pitch": 40, "duration": 120, "velocity": 127}, {"time": 97077, "pitch": 28, "duration": 120, "velocity": 127}, {"time": 97197, "pitch": 40, "duration": 121, "velocity": 127}, {"time": 97318, "pitch": 28, "duration": 120, "velocity": 123}, {"time": 97438, "pitch": 40, "duration": 120, "velocity": 127}, {"time": 97558, "pitch": 28, "duration": 120, "velocity": 120}, {"time": 97678, "pitch": 40, "duration": 121, "velocity": 127}, {"time": 97799, "pitch": 28, "duration": 120, "velocity": 121}, {"time": 97919, "pitch": 40, "duration": 120, "velocity": 127}, {"time": 98039, "pitch": 28, "duration": 121, "velocity": 114}, {"time": 98160, "pitch": 40, "duration": 120, "velocity": 127}, {"time": 98280, "pitch": 28, "duration": 120, "velocity": 121}, {"time": 98400, "pitch": 40, "duration": 120, "velocity": 127}, {"time": 98520, "pitch": 28, "duration": 121, "velocity": 111}, {"time": 98641, "pitch": 40, "duration": 120, "velocity": 127}, {"time": 98761, "pitch": 28, "duration": 120, "velocity": 121}, {"time": 98881, "pitch": 40, "duration": 120, "velocity": 127}, {"time": 99001, "pitch": 28, "duration": 121, "velocity": 112}, {"time": 99122, "pitch": 40, "duration": 120, "velocity": 127}, {"time": 99242, "pitch": 28, "duration": 120, "velocity": 117}, {"time": 99362, "pitch": 40, "duration": 120, "velocity": 127}, {"time": 99482, "pitch": 28, "duration": 121, "velocity": 123}, {"time": 99603, "pitch": 40, "duration": 120, "velocity": 127}, {"time": 99723, "pitch": 28, "duration": 120, "velocity": 123}, {"time": 99843, "pitch": 40, "duration": 119, "velocity": 127}, {"time": 99962, "pitch": 28, "duration": 119, "velocity": 118}, {"time": 100081, "pitch": 40, "duration": 118, "velocity": 127}, {"time": 100199, "pitch": 28, "duration": 119, "velocity": 127}, {"time": 100318, "pitch": 40, "duration": 120, "velocity": 127}, {"time": 100438, "pitch": 28, "duration": 120, "velocity": 112}, {"time": 100558, "pitch": 40, "duration": 121, "velocity": 127}, {"time": 100679, "pitch": 28, "duration": 120, "velocity": 127}, {"time": 100799, "pitch": 40, "duration": 120, "velocity": 127}, {"time": 100919, "pitch": 28, "duration": 120, "velocity": 118}, {"time": 101039, "pitch": 40, "duration": 121, "velocity": 127}, {"time": 101160, "pitch": 28, "duration": 120, "velocity": 127}, {"time": 101280, "pitch": 40, "duration": 120, "velocity": 127}, {"time": 101400, "pitch": 28, "duration": 120, "velocity": 103}, {"time": 101520, "pitch": 40, "duration": 121, "velocity": 127}, {"time": 101641, "pitch": 28, "duration": 120, "velocity": 127}, {"time": 101761, "pitch": 40, "duration": 120, "velocity": 127}, {"time": 101881, "pitch": 28, "duration": 121, "velocity": 117}, {"time": 102002, "pitch": 40, "duration": 120, "velocity": 127}, {"time": 102122, "pitch": 28, "duration": 120, "velocity": 116}, {"time": 102242, "pitch": 40, "duration": 120, "velocity": 127}, {"time": 102362, "pitch": 28, "duration": 121, "velocity": 127}, {"time": 102483, "pitch": 40, "duration": 120, "velocity": 127}, {"time": 102603, "pitch": 28, "duration": 120, "velocity": 127}, {"time": 102723, "pitch": 40, "duration": 119, "velocity": 127}, {"time": 102842, "pitch": 28, "duration": 118, "velocity": 103}, {"time": 102960, "pitch": 40, "duration": 119, "velocity": 127}, {"time": 103079, "pitch": 28, "duration": 119, "velocity": 127}, {"time": 103198, "pitch": 40, "duration": 120, "velocity": 127}, {"time": 103318, "pitch": 28, "duration": 120, "velocity": 112}, {"time": 103438, "pitch": 40, "duration": 120, "velocity": 127}, {"time": 103558, "pitch": 28, "duration": 121, "velocity": 123}, {"time": 103679, "pitch": 40, "duration": 120, "velocity": 127}, {"time": 103799, "pitch": 28, "duration": 120, "velocity": 114}, {"time": 103919, "pitch": 40, "duration": 121, "velocity": 127}, {"time": 104040, "pitch": 28, "duration": 120, "velocity": 114}, {"time": 104160, "pitch": 40, "duration": 120, "velocity": 127}, {"time": 104280, "pitch": 28, "duration": 120, "velocity": 111}, {"time": 104400, "pitch": 40, "duration": 121, "velocity": 127}, {"time": 104521, "pitch": 28, "duration": 120, "velocity": 127}, {"time": 104641, "pitch": 40, "duration": 120, "velocity": 127}, {"time": 104761, "pitch": 28, "duration": 120, "velocity": 118}, {"time": 104881, "pitch": 40, "duration": 121, "velocity": 127}, {"time": 105002, "pitch": 28, "duration": 120, "velocity": 127}, {"time": 105122, "pitch": 40, "duration": 120, "velocity": 127}, {"time": 105242, "pitch": 28, "duration": 120, "velocity": 125}, {"time": 105362, "pitch": 40, "duration": 121, "velocity": 127}, {"time": 105483, "pitch": 28, "duration": 120, "velocity": 127}, {"time": 105603, "pitch": 40, "duration": 119, "velocity": 127}, {"time": 105722, "pitch": 28, "duration": 118, "velocity": 127}, {"time": 105840, "pitch": 40, "duration": 119, "velocity": 127}, {"time": 105959, "pitch": 28, "duration": 119, "velocity": 127}, {"time": 106078, "pitch": 36, "duration": 120, "velocity": 127}, {"time": 106198, "pitch": 38, "duration": 120, "velocity": 127}, {"time": 106318, "pitch": 26, "duration": 241, "velocity": 127}, {"time": 106919, "pitch": 31, "duration": 121, "velocity": 127}, {"time": 107160, "pitch": 31, "duration": 120, "velocity": 127}, {"time": 107400, "pitch": 29, "duration": 121, "velocity": 127}, {"time": 107521, "pitch": 31, "duration": 120, "velocity": 127}, {"time": 107641, "pitch": 29, "duration": 241, "velocity": 127}, {"time": 108002, "pitch": 36, "duration": 120, "velocity": 127}, {"time": 108122, "pitch": 38, "duration": 120, "velocity": 127}, {"time": 108242, "pitch": 26, "duration": 360, "velocity": 127}, {"time": 108839, "pitch": 31, "duration": 118, "velocity": 127}, {"time": 109078, "pitch": 31, "duration": 120, "velocity": 127}, {"time": 109318, "pitch": 32, "duration": 120, "velocity": 127}, {"time": 109438, "pitch": 33, "duration": 361, "velocity": 127}, {"time": 109920, "pitch": 36, "duration": 120, "velocity": 127}, {"time": 110040, "pitch": 38, "duration": 120, "velocity": 127}, {"time": 110160, "pitch": 26, "duration": 361, "velocity": 127}, {"time": 110761, "pitch": 31, "duration": 121, "velocity": 127}, {"time": 111002, "pitch": 31, "duration": 120, "velocity": 127}, {"time": 111243, "pitch": 29, "duration": 120, "velocity": 127}, {"time": 111363, "pitch": 31, "duration": 118, "velocity": 127}, {"time": 111481, "pitch": 29, "duration": 238, "velocity": 127}, {"time": 111837, "pitch": 36, "duration": 121, "velocity": 127}, {"time": 111958, "pitch": 38, "duration": 120, "velocity": 127}, {"time": 112078, "pitch": 26, "duration": 361, "velocity": 127}, {"time": 112679, "pitch": 31, "duration": 120, "velocity": 127}, {"time": 112920, "pitch": 31, "duration": 120, "velocity": 127}, {"time": 113160, "pitch": 32, "duration": 121, "velocity": 127}, {"time": 113281, "pitch": 33, "duration": 360, "velocity": 127}, {"time": 113762, "pitch": 36, "duration": 120, "velocity": 127}, {"time": 113882, "pitch": 38, "duration": 120, "velocity": 127}, {"time": 114002, "pitch": 26, "duration": 241, "velocity": 127}, {"time": 114599, "pitch": 31, "duration": 118, "velocity": 127}, {"time": 114837, "pitch": 31, "duration": 121, "velocity": 127}, {"time": 115078, "pitch": 29, "duration": 120, "velocity": 127}, {"time": 115198, "pitch": 31, "duration": 120, "velocity": 127}, {"time": 115318, "pitch": 29, "duration": 241, "velocity": 127}, {"time": 115679, "pitch": 36, "duration": 121, "velocity": 127}, {"time": 115800, "pitch": 38, "duration": 120, "velocity": 127}, {"time": 115920, "pitch": 26, "duration": 361, "velocity": 127}, {"time": 116521, "pitch": 31, "duration": 120, "velocity": 127}, {"time": 116762, "pitch": 31, "duration": 120, "velocity": 127}, {"time": 117002, "pitch": 32, "duration": 120, "velocity": 127}, {"time": 117122, "pitch": 33, "duration": 356, "velocity": 127}, {"time": 117597, "pitch": 36, "duration": 120, "velocity": 127}, {"time": 117717, "pitch": 38, "duration": 121, "velocity": 127}, {"time": 117838, "pitch": 26, "duration": 360, "velocity": 127}, {"time": 118439, "pitch": 31, "duration": 120, "velocity": 127}, {"time": 118679, "pitch": 31, "duration": 121, "velocity": 127}, {"time": 118920, "pitch": 29, "duration": 120, "velocity": 127}, {"time": 119040, "pitch": 31, "duration": 121, "velocity": 127}, {"time": 119161, "pitch": 29, "duration": 240, "velocity": 127}, {"time": 119521, "pitch": 36, "duration": 121, "velocity": 127}, {"time": 119642, "pitch": 38, "duration": 120, "velocity": 127}, {"time": 119762, "pitch": 26, "duration": 359, "velocity": 127}, {"time": 120358, "pitch": 31, "duration": 119, "velocity": 127}, {"time": 120597, "pitch": 31, "duration": 120, "velocity": 127}, {"time": 120838, "pitch": 32, "duration": 120, "velocity": 127}, {"time": 120958, "pitch": 33, "duration": 361, "velocity": 127}, {"time": 121439, "pitch": 31, "duration": 241, "velocity": 127}, {"time": 121800, "pitch": 31, "duration": 120, "velocity": 127}, {"time": 121920, "pitch": 29, "duration": 120, "velocity": 127}, {"time": 122040, "pitch": 31, "duration": 121, "velocity": 127}, {"time": 122401, "pitch": 33, "duration": 241, "velocity": 127}, {"time": 122762, "pitch": 33, "duration": 120, "velocity": 127}, {"time": 122882, "pitch": 31, "duration": 119, "velocity": 127}, {"time": 123001, "pitch": 33, "duration": 119, "velocity": 127}, {"time": 123357, "pitch": 38, "duration": 240, "velocity": 127}, {"time": 123597, "pitch": 26, "duration": 241, "velocity": 127}, {"time": 123958, "pitch": 30, "duration": 120, "velocity": 127}, {"time": 124199, "pitch": 31, "duration": 120, "velocity": 127}, {"time": 124439, "pitch": 32, "duration": 120, "velocity": 127}, {"time": 124680, "pitch": 33, "duration": 120, "velocity": 127}, {"time": 124800, "pitch": 35, "duration": 120, "velocity": 127}, {"time": 124920, "pitch": 36, "duration": 121, "velocity": 127}, {"time": 125041, "pitch": 37, "duration": 120, "velocity": 127}, {"time": 125281, "pitch": 38, "duration": 241, "velocity": 127}, {"time": 125522, "pitch": 26, "duration": 240, "velocity": 127}, {"time": 125882, "pitch": 30, "duration": 121, "velocity": 127}, {"time": 126123, "pitch": 31, "duration": 120, "velocity": 127}, {"time": 126362, "pitch": 32, "duration": 118, "velocity": 127}, {"time": 126599, "pitch": 33, "duration": 119, "velocity": 127}, {"time": 126718, "pitch": 35, "duration": 120, "velocity": 127}, {"time": 126838, "pitch": 36, "duration": 120, "velocity": 127}, {"time": 126958, "pitch": 37, "duration": 121, "velocity": 127}, {"time": 127199, "pitch": 31, "duration": 240, "velocity": 127}, {"time": 127560, "pitch": 31, "duration": 120, "velocity": 127}, {"time": 127680, "pitch": 29, "duration": 120, "velocity": 127}, {"time": 127800, "pitch": 31, "duration": 120, "velocity": 127}, {"time": 128161, "pitch": 33, "duration": 240, "velocity": 127}, {"time": 128522, "pitch": 33, "duration": 120, "velocity": 127}, {"time": 128642, "pitch": 31, "duration": 120, "velocity": 127}, {"time": 128762, "pitch": 33, "duration": 121, "velocity": 127}, {"time": 129123, "pitch": 38, "duration": 237, "velocity": 127}, {"time": 129360, "pitch": 26, "duration": 238, "velocity": 127}, {"time": 129718, "pitch": 30, "duration": 120, "velocity": 127}, {"time": 129958, "pitch": 31, "duration": 121, "velocity": 127}, {"time": 130199, "pitch": 32, "duration": 120, "velocity": 127}, {"time": 130439, "pitch": 33, "duration": 121, "velocity": 127}, {"time": 130560, "pitch": 35, "duration": 120, "velocity": 127}, {"time": 130680, "pitch": 36, "duration": 120, "velocity": 127}, {"time": 130800, "pitch": 37, "duration": 121, "velocity": 127}, {"time": 131041, "pitch": 38, "duration": 240, "velocity": 127}, {"time": 131281, "pitch": 26, "duration": 241, "velocity": 127}, {"time": 131642, "pitch": 30, "duration": 120, "velocity": 127}, {"time": 131883, "pitch": 31, "duration": 120, "velocity": 127}, {"time": 132122, "pitch": 32, "duration": 118, "velocity": 127}, {"time": 132359, "pitch": 33, "duration": 119, "velocity": 127}, {"time": 132478, "pitch": 35, "duration": 120, "velocity": 127}, {"time": 132598, "pitch": 36, "duration": 120, "velocity": 127}, {"time": 132718, "pitch": 37, "duration": 120, "velocity": 127}], "annotations": [{"time": 283, "annotation": {"number": 7, "value": 120}, "group": "control_change"}, {"time": 305, "annotation": {"number": 11, "value": 110}, "group": "control_change"}, {"time": 326, "annotation": {"number": 10, "value": 64}, "group": "control_change"}, {"time": 348, "annotation": {"number": 91, "value": 0}, "group": "control_change"}, {"time": 370, "annotation": {"number": 93, "value": 0}, "group": "control_change"}, {"time": 392, "annotation": {"number": 101, "value": 0}, "group": "control_change"}, {"time": 413, "annotation": {"number": 100, "value": 0}, "group": "control_change"}, {"time": 435, "annotation": {"number": 6, "value": 12}, "group": "control_change"}, {"time": 457, "annotation": {"number": 101, "value": 127}, "group": "control_change"}, {"time": 479, "annotation": {"number": 100, "value": 127}, "group": "control_change"}]}, {"program": 0, "is_drum": false, "name": "Ac.G.R.", "annotations": [{"time": 218, "annotation": {"number": 0, "value": 0}, "group": "control_change"}, {"time": 239, "annotation": {"number": 32, "value": 2}, "group": "control_change"}]}, {"program": 25, "is_drum": false, "name": "Ac.G.R.", "notes": [{"time": 479, "pitch": 53, "duration": 249, "velocity": 105}, {"time": 488, "pitch": 57, "duration": 240, "velocity": 100}, {"time": 488, "pitch": 60, "duration": 240, "velocity": 105}, {"time": 488, "pitch": 65, "duration": 230, "velocity": 110}, {"time": 718, "pitch": 65, "duration": 131, "velocity": 100}, {"time": 728, "pitch": 53, "duration": 111, "velocity": 95}, {"time": 728, "pitch": 57, "duration": 121, "velocity": 90}, {"time": 728, "pitch": 60, "duration": 121, "velocity": 95}, {"time": 839, "pitch": 53, "duration": 250, "velocity": 105}, {"time": 849, "pitch": 57, "duration": 240, "velocity": 100}, {"time": 849, "pitch": 60, "duration": 240, "velocity": 105}, {"time": 849, "pitch": 65, "duration": 230, "velocity": 110}, {"time": 1079, "pitch": 65, "duration": 130, "velocity": 100}, {"time": 1089, "pitch": 53, "duration": 110, "velocity": 95}, {"time": 1089, "pitch": 57, "duration": 120, "velocity": 90}, {"time": 1089, "pitch": 60, "duration": 120, "velocity": 95}, {"time": 1199, "pitch": 53, "duration": 241, "velocity": 105}, {"time": 1209, "pitch": 57, "duration": 241, "velocity": 100}, {"time": 1209, "pitch": 60, "duration": 241, "velocity": 105}, {"time": 1209, "pitch": 65, "duration": 241, "velocity": 110}, {"time": 1440, "pitch": 53, "duration": 130, "velocity": 100}, {"time": 1450, "pitch": 57, "duration": 120, "velocity": 90}, {"time": 1450, "pitch": 60, "duration": 120, "velocity": 95}, {"time": 1450, "pitch": 65, "duration": 110, "velocity": 100}, {"time": 1560, "pitch": 65, "duration": 130, "velocity": 85}, {"time": 1570, "pitch": 53, "duration": 110, "velocity": 80}, {"time": 1570, "pitch": 57, "duration": 120, "velocity": 75}, {"time": 1570, "pitch": 60, "duration": 120, "velocity": 80}, {"time": 1680, "pitch": 53, "duration": 131, "velocity": 110}, {"time": 1690, "pitch": 57, "duration": 121, "velocity": 100}, {"time": 1690, "pitch": 60, "duration": 121, "velocity": 105}, {"time": 1690, "pitch": 65, "duration": 111, "velocity": 110}, {"time": 1801, "pitch": 65, "duration": 130, "velocity": 105}, {"time": 1811, "pitch": 53, "duration": 110, "velocity": 100}, {"time": 1811, "pitch": 57, "duration": 120, "velocity": 95}, {"time": 1811, "pitch": 60, "duration": 120, "velocity": 100}, {"time": 1921, "pitch": 53, "duration": 481, "velocity": 105}, {"time": 1931, "pitch": 57, "duration": 481, "velocity": 100}, {"time": 1931, "pitch": 60, "duration": 481, "velocity": 105}, {"time": 1931, "pitch": 65, "duration": 481, "velocity": 110}, {"time": 2402, "pitch": 53, "duration": 251, "velocity": 105}, {"time": 2412, "pitch": 57, "duration": 241, "velocity": 100}, {"time": 2412, "pitch": 60, "duration": 241, "velocity": 105}, {"time": 2412, "pitch": 65, "duration": 231, "velocity": 110}, {"time": 2643, "pitch": 65, "duration": 130, "velocity": 100}, {"time": 2653, "pitch": 53, "duration": 110, "velocity": 95}, {"time": 2653, "pitch": 57, "duration": 120, "velocity": 90}, {"time": 2653, "pitch": 60, "duration": 120, "velocity": 95}, {"time": 2763, "pitch": 53, "duration": 249, "velocity": 105}, {"time": 2773, "pitch": 57, "duration": 239, "velocity": 100}, {"time": 2773, "pitch": 60, "duration": 239, "velocity": 105}, {"time": 2773, "pitch": 65, "duration": 229, "velocity": 110}, {"time": 3002, "pitch": 65, "duration": 128, "velocity": 100}, {"time": 3012, "pitch": 53, "duration": 108, "velocity": 95}, {"time": 3012, "pitch": 57, "duration": 118, "velocity": 90}, {"time": 3012, "pitch": 60, "duration": 118, "velocity": 95}, {"time": 3120, "pitch": 53, "duration": 238, "velocity": 105}, {"time": 3130, "pitch": 57, "duration": 238, "velocity": 100}, {"time": 3130, "pitch": 60, "duration": 238, "velocity": 105}, {"time": 3130, "pitch": 65, "duration": 238, "velocity": 110}, {"time": 3358, "pitch": 53, "duration": 130, "velocity": 100}, {"time": 3368, "pitch": 57, "duration": 120, "velocity": 90}, {"time": 3368, "pitch": 60, "duration": 120, "velocity": 95}, {"time": 3368, "pitch": 65, "duration": 110, "velocity": 100}, {"time": 3478, "pitch": 65, "duration": 130, "velocity": 85}, {"time": 3488, "pitch": 53, "duration": 110, "velocity": 80}, {"time": 3488, "pitch": 57, "duration": 120, "velocity": 75}, {"time": 3488, "pitch": 60, "duration": 120, "velocity": 80}, {"time": 3598, "pitch": 53, "duration": 130, "velocity": 110}, {"time": 3608, "pitch": 57, "duration": 120, "velocity": 100}, {"time": 3608, "pitch": 60, "duration": 120, "velocity": 105}, {"time": 3608, "pitch": 65, "duration": 110, "velocity": 110}, {"time": 3718, "pitch": 65, "duration": 151, "velocity": 105}, {"time": 3728, "pitch": 53, "duration": 111, "velocity": 100}, {"time": 3728, "pitch": 57, "duration": 121, "velocity": 95}, {"time": 3728, "pitch": 60, "duration": 111, "velocity": 100}, {"time": 3839, "pitch": 60, "duration": 441, "velocity": 105}, {"time": 3849, "pitch": 64, "duration": 431, "velocity": 100}, {"time": 3849, "pitch": 67, "duration": 431, "velocity": 105}, {"time": 3849, "pitch": 72, "duration": 431, "velocity": 110}, {"time": 4320, "pitch": 53, "duration": 250, "velocity": 105}, {"time": 4330, "pitch": 57, "duration": 240, "velocity": 100}, {"time": 4330, "pitch": 60, "duration": 240, "velocity": 105}, {"time": 4330, "pitch": 65, "duration": 230, "velocity": 110}, {"time": 4560, "pitch": 65, "duration": 131, "velocity": 100}, {"time": 4570, "pitch": 53, "duration": 111, "velocity": 95}, {"time": 4570, "pitch": 57, "duration": 121, "velocity": 90}, {"time": 4570, "pitch": 60, "duration": 121, "velocity": 95}, {"time": 4681, "pitch": 53, "duration": 250, "velocity": 105}, {"time": 4691, "pitch": 57, "duration": 240, "velocity": 100}, {"time": 4691, "pitch": 60, "duration": 240, "velocity": 105}, {"time": 4691, "pitch": 65, "duration": 230, "velocity": 110}, {"time": 4921, "pitch": 65, "duration": 130, "velocity": 100}, {"time": 4931, "pitch": 53, "duration": 110, "velocity": 95}, {"time": 4931, "pitch": 57, "duration": 120, "velocity": 90}, {"time": 4931, "pitch": 60, "duration": 120, "velocity": 95}, {"time": 5041, "pitch": 53, "duration": 241, "velocity": 105}, {"time": 5051, "pitch": 57, "duration": 241, "velocity": 100}, {"time": 5051, "pitch": 60, "duration": 241, "velocity": 105}, {"time": 5051, "pitch": 65, "duration": 241, "velocity": 110}, {"time": 5282, "pitch": 53, "duration": 130, "velocity": 100}, {"time": 5292, "pitch": 57, "duration": 120, "velocity": 90}, {"time": 5292, "pitch": 60, "duration": 120, "velocity": 95}, {"time": 5292, "pitch": 65, "duration": 110, "velocity": 100}, {"time": 5402, "pitch": 65, "duration": 130, "velocity": 85}, {"time": 5412, "pitch": 53, "duration": 110, "velocity": 80}, {"time": 5412, "pitch": 57, "duration": 120, "velocity": 75}, {"time": 5412, "pitch": 60, "duration": 120, "velocity": 80}, {"time": 5522, "pitch": 53, "duration": 131, "velocity": 110}, {"time": 5532, "pitch": 57, "duration": 121, "velocity": 100}, {"time": 5532, "pitch": 60, "duration": 121, "velocity": 105}, {"time": 5532, "pitch": 65, "duration": 111, "velocity": 110}, {"time": 5643, "pitch": 65, "duration": 130, "velocity": 105}, {"time": 5653, "pitch": 53, "duration": 110, "velocity": 100}, {"time": 5653, "pitch": 57, "duration": 120, "velocity": 95}, {"time": 5653, "pitch": 60, "duration": 120, "velocity": 100}, {"time": 5763, "pitch": 53, "duration": 475, "velocity": 105}, {"time": 5773, "pitch": 57, "duration": 474, "velocity": 100}, {"time": 5773, "pitch": 60, "duration": 474, "velocity": 105}, {"time": 5773, "pitch": 65, "duration": 474, "velocity": 110}, {"time": 6238, "pitch": 53, "duration": 250, "velocity": 105}, {"time": 6247, "pitch": 57, "duration": 241, "velocity": 100}, {"time": 6247, "pitch": 60, "duration": 241, "velocity": 105}, {"time": 6247, "pitch": 65, "duration": 231, "velocity": 110}, {"time": 6478, "pitch": 65, "duration": 130, "velocity": 100}, {"time": 6488, "pitch": 53, "duration": 110, "velocity": 95}, {"time": 6488, "pitch": 57, "duration": 120, "velocity": 90}, {"time": 6488, "pitch": 60, "duration": 120, "velocity": 95}, {"time": 6598, "pitch": 53, "duration": 251, "velocity": 105}, {"time": 6608, "pitch": 57, "duration": 241, "velocity": 100}, {"time": 6608, "pitch": 60, "duration": 241, "velocity": 105}, {"time": 6608, "pitch": 65, "duration": 231, "velocity": 110}, {"time": 6839, "pitch": 65, "duration": 130, "velocity": 100}, {"time": 6849, "pitch": 53, "duration": 110, "velocity": 95}, {"time": 6849, "pitch": 57, "duration": 120, "velocity": 90}, {"time": 6849, "pitch": 60, "duration": 120, "velocity": 95}, {"time": 6959, "pitch": 53, "duration": 241, "velocity": 105}, {"time": 6969, "pitch": 57, "duration": 241, "velocity": 100}, {"time": 6969, "pitch": 60, "duration": 241, "velocity": 105}, {"time": 6969, "pitch": 65, "duration": 241, "velocity": 110}, {"time": 7200, "pitch": 53, "duration": 130, "velocity": 100}, {"time": 7210, "pitch": 57, "duration": 120, "velocity": 90}, {"time": 7210, "pitch": 60, "duration": 120, "velocity": 95}, {"time": 7210, "pitch": 65, "duration": 110, "velocity": 100}, {"time": 7320, "pitch": 65, "duration": 130, "velocity": 85}, {"time": 7330, "pitch": 53, "duration": 110, "velocity": 80}, {"time": 7330, "pitch": 57, "duration": 120, "velocity": 75}, {"time": 7330, "pitch": 60, "duration": 120, "velocity": 80}, {"time": 7440, "pitch": 53, "duration": 130, "velocity": 110}, {"time": 7450, "pitch": 57, "duration": 120, "velocity": 100}, {"time": 7450, "pitch": 60, "duration": 120, "velocity": 105}, {"time": 7450, "pitch": 65, "duration": 110, "velocity": 110}, {"time": 7560, "pitch": 65, "duration": 151, "velocity": 105}, {"time": 7570, "pitch": 53, "duration": 111, "velocity": 100}, {"time": 7570, "pitch": 57, "duration": 121, "velocity": 95}, {"time": 7570, "pitch": 60, "duration": 111, "velocity": 100}, {"time": 7681, "pitch": 60, "duration": 441, "velocity": 105}, {"time": 7691, "pitch": 64, "duration": 431, "velocity": 100}, {"time": 7691, "pitch": 67, "duration": 431, "velocity": 105}, {"time": 7691, "pitch": 72, "duration": 431, "velocity": 110}, {"time": 8162, "pitch": 53, "duration": 250, "velocity": 105}, {"time": 8172, "pitch": 57, "duration": 240, "velocity": 100}, {"time": 8172, "pitch": 60, "duration": 240, "velocity": 105}, {"time": 8172, "pitch": 65, "duration": 230, "velocity": 110}, {"time": 8402, "pitch": 65, "duration": 131, "velocity": 100}, {"time": 8412, "pitch": 53, "duration": 111, "velocity": 95}, {"time": 8412, "pitch": 57, "duration": 121, "velocity": 90}, {"time": 8412, "pitch": 60, "duration": 121, "velocity": 95}, {"time": 8523, "pitch": 53, "duration": 248, "velocity": 105}, {"time": 8533, "pitch": 57, "duration": 238, "velocity": 100}, {"time": 8533, "pitch": 60, "duration": 238, "velocity": 105}, {"time": 8533, "pitch": 65, "duration": 228, "velocity": 110}, {"time": 8761, "pitch": 65, "duration": 129, "velocity": 100}, {"time": 8771, "pitch": 53, "duration": 109, "velocity": 95}, {"time": 8771, "pitch": 57, "duration": 119, "velocity": 90}, {"time": 8771, "pitch": 60, "duration": 119, "velocity": 95}, {"time": 8880, "pitch": 53, "duration": 237, "velocity": 105}, {"time": 8890, "pitch": 57, "duration": 237, "velocity": 100}, {"time": 8890, "pitch": 60, "duration": 237, "velocity": 105}, {"time": 8890, "pitch": 65, "duration": 237, "velocity": 110}, {"time": 9117, "pitch": 53, "duration": 131, "velocity": 100}, {"time": 9127, "pitch": 57, "duration": 121, "velocity": 90}, {"time": 9127, "pitch": 60, "duration": 121, "velocity": 95}, {"time": 9127, "pitch": 65, "duration": 111, "velocity": 100}, {"time": 9238, "pitch": 65, "duration": 130, "velocity": 85}, {"time": 9248, "pitch": 53, "duration": 110, "velocity": 80}, {"time": 9248, "pitch": 57, "duration": 120, "velocity": 75}, {"time": 9248, "pitch": 60, "duration": 120, "velocity": 80}, {"time": 9358, "pitch": 53, "duration": 130, "velocity": 110}, {"time": 9368, "pitch": 57, "duration": 120, "velocity": 100}, {"time": 9368, "pitch": 60, "duration": 120, "velocity": 105}, {"time": 9368, "pitch": 65, "duration": 110, "velocity": 110}, {"time": 9478, "pitch": 65, "duration": 130, "velocity": 105}, {"time": 9488, "pitch": 53, "duration": 110, "velocity": 100}, {"time": 9488, "pitch": 57, "duration": 120, "velocity": 95}, {"time": 9488, "pitch": 60, "duration": 120, "velocity": 100}, {"time": 9598, "pitch": 53, "duration": 482, "velocity": 105}, {"time": 9608, "pitch": 57, "duration": 482, "velocity": 100}, {"time": 9608, "pitch": 60, "duration": 482, "velocity": 105}, {"time": 9608, "pitch": 65, "duration": 482, "velocity": 110}, {"time": 10080, "pitch": 53, "duration": 250, "velocity": 105}, {"time": 10090, "pitch": 57, "duration": 240, "velocity": 100}, {"time": 10090, "pitch": 60, "duration": 240, "velocity": 105}, {"time": 10090, "pitch": 65, "duration": 230, "velocity": 110}, {"time": 10320, "pitch": 65, "duration": 130, "velocity": 100}, {"time": 10330, "pitch": 53, "duration": 110, "velocity": 95}, {"time": 10330, "pitch": 57, "duration": 120, "velocity": 90}, {"time": 10330, "pitch": 60, "duration": 120, "velocity": 95}, {"time": 10440, "pitch": 53, "duration": 251, "velocity": 105}, {"time": 10450, "pitch": 57, "duration": 241, "velocity": 100}, {"time": 10450, "pitch": 60, "duration": 241, "velocity": 105}, {"time": 10450, "pitch": 65, "duration": 231, "velocity": 110}, {"time": 10681, "pitch": 65, "duration": 130, "velocity": 100}, {"time": 10691, "pitch": 53, "duration": 110, "velocity": 95}, {"time": 10691, "pitch": 57, "duration": 120, "velocity": 90}, {"time": 10691, "pitch": 60, "duration": 120, "velocity": 95}, {"time": 10801, "pitch": 53, "duration": 241, "velocity": 105}, {"time": 10811, "pitch": 57, "duration": 241, "velocity": 100}, {"time": 10811, "pitch": 60, "duration": 241, "velocity": 105}, {"time": 10811, "pitch": 65, "duration": 241, "velocity": 110}, {"time": 11042, "pitch": 53, "duration": 130, "velocity": 100}, {"time": 11052, "pitch": 57, "duration": 120, "velocity": 90}, {"time": 11052, "pitch": 60, "duration": 120, "velocity": 95}, {"time": 11052, "pitch": 65, "duration": 110, "velocity": 100}, {"time": 11162, "pitch": 65, "duration": 130, "velocity": 85}, {"time": 11172, "pitch": 53, "duration": 110, "velocity": 80}, {"time": 11172, "pitch": 57, "duration": 120, "velocity": 75}, {"time": 11172, "pitch": 60, "duration": 120, "velocity": 80}, {"time": 11282, "pitch": 53, "duration": 130, "velocity": 110}, {"time": 11292, "pitch": 57, "duration": 120, "velocity": 100}, {"time": 11292, "pitch": 60, "duration": 120, "velocity": 105}, {"time": 11292, "pitch": 65, "duration": 110, "velocity": 110}, {"time": 11402, "pitch": 65, "duration": 150, "velocity": 105}, {"time": 11412, "pitch": 53, "duration": 111, "velocity": 100}, {"time": 11412, "pitch": 57, "duration": 121, "velocity": 95}, {"time": 11412, "pitch": 60, "duration": 111, "velocity": 100}, {"time": 11523, "pitch": 60, "duration": 435, "velocity": 105}, {"time": 11533, "pitch": 64, "duration": 425, "velocity": 100}, {"time": 11533, "pitch": 67, "duration": 425, "velocity": 105}, {"time": 11533, "pitch": 72, "duration": 425, "velocity": 110}, {"time": 11997, "pitch": 53, "duration": 251, "velocity": 105}, {"time": 12007, "pitch": 57, "duration": 241, "velocity": 100}, {"time": 12007, "pitch": 60, "duration": 241, "velocity": 105}, {"time": 12007, "pitch": 65, "duration": 231, "velocity": 110}, {"time": 12238, "pitch": 65, "duration": 130, "velocity": 100}, {"time": 12248, "pitch": 53, "duration": 110, "velocity": 95}, {"time": 12248, "pitch": 57, "duration": 120, "velocity": 90}, {"time": 12248, "pitch": 60, "duration": 120, "velocity": 95}, {"time": 12358, "pitch": 53, "duration": 251, "velocity": 105}, {"time": 12368, "pitch": 57, "duration": 241, "velocity": 100}, {"time": 12368, "pitch": 60, "duration": 241, "velocity": 105}, {"time": 12368, "pitch": 65, "duration": 231, "velocity": 110}, {"time": 12599, "pitch": 65, "duration": 130, "velocity": 100}, {"time": 12609, "pitch": 53, "duration": 110, "velocity": 95}, {"time": 12609, "pitch": 57, "duration": 120, "velocity": 90}, {"time": 12609, "pitch": 60, "duration": 120, "velocity": 95}, {"time": 12719, "pitch": 53, "duration": 240, "velocity": 105}, {"time": 12729, "pitch": 57, "duration": 240, "velocity": 100}, {"time": 12729, "pitch": 60, "duration": 240, "velocity": 105}, {"time": 12729, "pitch": 65, "duration": 240, "velocity": 110}, {"time": 12959, "pitch": 53, "duration": 131, "velocity": 100}, {"time": 12969, "pitch": 57, "duration": 121, "velocity": 90}, {"time": 12969, "pitch": 60, "duration": 121, "velocity": 95}, {"time": 12969, "pitch": 65, "duration": 111, "velocity": 100}, {"time": 13080, "pitch": 65, "duration": 130, "velocity": 85}, {"time": 13090, "pitch": 53, "duration": 110, "velocity": 80}, {"time": 13090, "pitch": 57, "duration": 120, "velocity": 75}, {"time": 13090, "pitch": 60, "duration": 120, "velocity": 80}, {"time": 13200, "pitch": 53, "duration": 130, "velocity": 110}, {"time": 13210, "pitch": 57, "duration": 120, "velocity": 100}, {"time": 13210, "pitch": 60, "duration": 120, "velocity": 105}, {"time": 13210, "pitch": 65, "duration": 110, "velocity": 110}, {"time": 13320, "pitch": 65, "duration": 130, "velocity": 105}, {"time": 13330, "pitch": 53, "duration": 110, "velocity": 100}, {"time": 13330, "pitch": 57, "duration": 120, "velocity": 95}, {"time": 13330, "pitch": 60, "duration": 120, "velocity": 100}, {"time": 13440, "pitch": 53, "duration": 482, "velocity": 105}, {"time": 13450, "pitch": 57, "duration": 482, "velocity": 100}, {"time": 13450, "pitch": 60, "duration": 482, "velocity": 105}, {"time": 13450, "pitch": 65, "duration": 482, "velocity": 110}, {"time": 13922, "pitch": 53, "duration": 250, "velocity": 105}, {"time": 13932, "pitch": 57, "duration": 240, "velocity": 100}, {"time": 13932, "pitch": 60, "duration": 240, "velocity": 105}, {"time": 13932, "pitch": 65, "duration": 230, "velocity": 110}, {"time": 14162, "pitch": 65, "duration": 130, "velocity": 100}, {"time": 14172, "pitch": 53, "duration": 110, "velocity": 95}, {"time": 14172, "pitch": 57, "duration": 120, "velocity": 90}, {"time": 14172, "pitch": 60, "duration": 120, "velocity": 95}, {"time": 14282, "pitch": 53, "duration": 249, "velocity": 105}, {"time": 14292, "pitch": 57, "duration": 239, "velocity": 100}, {"time": 14292, "pitch": 60, "duration": 239, "velocity": 105}, {"time": 14292, "pitch": 65, "duration": 229, "velocity": 110}, {"time": 14521, "pitch": 65, "duration": 129, "velocity": 100}, {"time": 14531, "pitch": 53, "duration": 109, "velocity": 95}, {"time": 14531, "pitch": 57, "duration": 119, "velocity": 90}, {"time": 14531, "pitch": 60, "duration": 119, "velocity": 95}, {"time": 14640, "pitch": 53, "duration": 237, "velocity": 105}, {"time": 14650, "pitch": 57, "duration": 237, "velocity": 100}, {"time": 14650, "pitch": 60, "duration": 237, "velocity": 105}, {"time": 14650, "pitch": 65, "duration": 237, "velocity": 110}, {"time": 14877, "pitch": 53, "duration": 130, "velocity": 100}, {"time": 14887, "pitch": 57, "duration": 120, "velocity": 90}, {"time": 14887, "pitch": 60, "duration": 120, "velocity": 95}, {"time": 14887, "pitch": 65, "duration": 110, "velocity": 100}, {"time": 14997, "pitch": 65, "duration": 131, "velocity": 85}, {"time": 15007, "pitch": 53, "duration": 111, "velocity": 80}, {"time": 15007, "pitch": 57, "duration": 121, "velocity": 75}, {"time": 15007, "pitch": 60, "duration": 121, "velocity": 80}, {"time": 15118, "pitch": 53, "duration": 130, "velocity": 110}, {"time": 15128, "pitch": 57, "duration": 120, "velocity": 100}, {"time": 15128, "pitch": 60, "duration": 120, "velocity": 105}, {"time": 15128, "pitch": 65, "duration": 110, "velocity": 110}, {"time": 15238, "pitch": 65, "duration": 150, "velocity": 105}, {"time": 15248, "pitch": 53, "duration": 110, "velocity": 100}, {"time": 15248, "pitch": 57, "duration": 120, "velocity": 95}, {"time": 15248, "pitch": 60, "duration": 110, "velocity": 100}, {"time": 15358, "pitch": 60, "duration": 441, "velocity": 105}, {"time": 15368, "pitch": 64, "duration": 431, "velocity": 100}, {"time": 15368, "pitch": 67, "duration": 431, "velocity": 105}, {"time": 15368, "pitch": 72, "duration": 431, "velocity": 110}, {"time": 15839, "pitch": 43, "duration": 391, "velocity": 110}, {"time": 15849, "pitch": 59, "duration": 361, "velocity": 100}, {"time": 15849, "pitch": 62, "duration": 351, "velocity": 105}, {"time": 15849, "pitch": 67, "duration": 331, "velocity": 110}, {"time": 16200, "pitch": 67, "duration": 130, "velocity": 90}, {"time": 16210, "pitch": 55, "duration": 90, "velocity": 90}, {"time": 16210, "pitch": 59, "duration": 110, "velocity": 85}, {"time": 16210, "pitch": 62, "duration": 120, "velocity": 80}, {"time": 16320, "pitch": 43, "duration": 151, "velocity": 110}, {"time": 16330, "pitch": 59, "duration": 121, "velocity": 100}, {"time": 16330, "pitch": 62, "duration": 111, "velocity": 105}, {"time": 16330, "pitch": 67, "duration": 91, "velocity": 110}, {"time": 16441, "pitch": 67, "duration": 390, "velocity": 100}, {"time": 16451, "pitch": 55, "duration": 330, "velocity": 100}, {"time": 16451, "pitch": 59, "duration": 350, "velocity": 95}, {"time": 16451, "pitch": 62, "duration": 370, "velocity": 90}, {"time": 16801, "pitch": 45, "duration": 391, "velocity": 110}, {"time": 16811, "pitch": 61, "duration": 361, "velocity": 100}, {"time": 16811, "pitch": 64, "duration": 351, "velocity": 105}, {"time": 16811, "pitch": 69, "duration": 331, "velocity": 110}, {"time": 17162, "pitch": 69, "duration": 130, "velocity": 90}, {"time": 17172, "pitch": 57, "duration": 90, "velocity": 90}, {"time": 17172, "pitch": 61, "duration": 110, "velocity": 85}, {"time": 17172, "pitch": 64, "duration": 120, "velocity": 80}, {"time": 17282, "pitch": 45, "duration": 149, "velocity": 110}, {"time": 17292, "pitch": 61, "duration": 119, "velocity": 100}, {"time": 17292, "pitch": 64, "duration": 109, "velocity": 105}, {"time": 17292, "pitch": 69, "duration": 89, "velocity": 110}, {"time": 17401, "pitch": 69, "duration": 386, "velocity": 100}, {"time": 17411, "pitch": 57, "duration": 326, "velocity": 100}, {"time": 17411, "pitch": 61, "duration": 346, "velocity": 95}, {"time": 17411, "pitch": 64, "duration": 366, "velocity": 90}, {"time": 17757, "pitch": 53, "duration": 251, "velocity": 105}, {"time": 17767, "pitch": 57, "duration": 241, "velocity": 100}, {"time": 17767, "pitch": 60, "duration": 241, "velocity": 105}, {"time": 17767, "pitch": 65, "duration": 231, "velocity": 110}, {"time": 17998, "pitch": 65, "duration": 130, "velocity": 100}, {"time": 18008, "pitch": 53, "duration": 110, "velocity": 95}, {"time": 18008, "pitch": 57, "duration": 120, "velocity": 90}, {"time": 18008, "pitch": 60, "duration": 120, "velocity": 95}, {"time": 18118, "pitch": 53, "duration": 250, "velocity": 105}, {"time": 18128, "pitch": 57, "duration": 240, "velocity": 100}, {"time": 18128, "pitch": 60, "duration": 240, "velocity": 105}, {"time": 18128, "pitch": 65, "duration": 230, "velocity": 110}, {"time": 18358, "pitch": 65, "duration": 131, "velocity": 100}, {"time": 18368, "pitch": 53, "duration": 111, "velocity": 95}, {"time": 18368, "pitch": 57, "duration": 121, "velocity": 90}, {"time": 18368, "pitch": 60, "duration": 121, "velocity": 95}, {"time": 18479, "pitch": 53, "duration": 240, "velocity": 105}, {"time": 18489, "pitch": 57, "duration": 240, "velocity": 100}, {"time": 18489, "pitch": 60, "duration": 240, "velocity": 105}, {"time": 18489, "pitch": 65, "duration": 240, "velocity": 110}, {"time": 18719, "pitch": 53, "duration": 130, "velocity": 100}, {"time": 18729, "pitch": 57, "duration": 120, "velocity": 90}, {"time": 18729, "pitch": 60, "duration": 120, "velocity": 95}, {"time": 18729, "pitch": 65, "duration": 110, "velocity": 100}, {"time": 18839, "pitch": 65, "duration": 131, "velocity": 85}, {"time": 18849, "pitch": 53, "duration": 111, "velocity": 80}, {"time": 18849, "pitch": 57, "duration": 121, "velocity": 75}, {"time": 18849, "pitch": 60, "duration": 121, "velocity": 80}, {"time": 18960, "pitch": 53, "duration": 250, "velocity": 105}, {"time": 18970, "pitch": 57, "duration": 240, "velocity": 100}, {"time": 18970, "pitch": 60, "duration": 240, "velocity": 105}, {"time": 18970, "pitch": 65, "duration": 230, "velocity": 110}, {"time": 19200, "pitch": 65, "duration": 491, "velocity": 100}, {"time": 19210, "pitch": 53, "duration": 471, "velocity": 95}, {"time": 19210, "pitch": 57, "duration": 481, "velocity": 90}, {"time": 19210, "pitch": 60, "duration": 481, "velocity": 95}, {"time": 19681, "pitch": 53, "duration": 251, "velocity": 105}, {"time": 19691, "pitch": 57, "duration": 241, "velocity": 100}, {"time": 19691, "pitch": 60, "duration": 241, "velocity": 105}, {"time": 19691, "pitch": 65, "duration": 231, "velocity": 110}, {"time": 19922, "pitch": 65, "duration": 130, "velocity": 100}, {"time": 19932, "pitch": 53, "duration": 110, "velocity": 95}, {"time": 19932, "pitch": 57, "duration": 120, "velocity": 90}, {"time": 19932, "pitch": 60, "duration": 120, "velocity": 95}, {"time": 20042, "pitch": 53, "duration": 249, "velocity": 105}, {"time": 20052, "pitch": 57, "duration": 239, "velocity": 100}, {"time": 20052, "pitch": 60, "duration": 239, "velocity": 105}, {"time": 20052, "pitch": 65, "duration": 229, "velocity": 110}, {"time": 20281, "pitch": 65, "duration": 128, "velocity": 100}, {"time": 20291, "pitch": 53, "duration": 109, "velocity": 95}, {"time": 20291, "pitch": 57, "duration": 118, "velocity": 90}, {"time": 20291, "pitch": 60, "duration": 118, "velocity": 95}, {"time": 20400, "pitch": 53, "duration": 237, "velocity": 105}, {"time": 20409, "pitch": 57, "duration": 238, "velocity": 100}, {"time": 20409, "pitch": 60, "duration": 238, "velocity": 105}, {"time": 20409, "pitch": 65, "duration": 238, "velocity": 110}, {"time": 20637, "pitch": 53, "duration": 130, "velocity": 100}, {"time": 20647, "pitch": 57, "duration": 120, "velocity": 90}, {"time": 20647, "pitch": 60, "duration": 120, "velocity": 95}, {"time": 20647, "pitch": 65, "duration": 110, "velocity": 100}, {"time": 20757, "pitch": 65, "duration": 130, "velocity": 85}, {"time": 20767, "pitch": 53, "duration": 110, "velocity": 80}, {"time": 20767, "pitch": 57, "duration": 120, "velocity": 75}, {"time": 20767, "pitch": 60, "duration": 120, "velocity": 80}, {"time": 20877, "pitch": 53, "duration": 251, "velocity": 105}, {"time": 20887, "pitch": 57, "duration": 241, "velocity": 100}, {"time": 20887, "pitch": 60, "duration": 241, "velocity": 105}, {"time": 20887, "pitch": 65, "duration": 231, "velocity": 110}, {"time": 21118, "pitch": 65, "duration": 481, "velocity": 100}, {"time": 21128, "pitch": 53, "duration": 471, "velocity": 95}, {"time": 21128, "pitch": 57, "duration": 471, "velocity": 90}, {"time": 21128, "pitch": 60, "duration": 471, "velocity": 95}, {"time": 21599, "pitch": 43, "duration": 391, "velocity": 110}, {"time": 21609, "pitch": 59, "duration": 361, "velocity": 100}, {"time": 21609, "pitch": 62, "duration": 351, "velocity": 105}, {"time": 21609, "pitch": 67, "duration": 331, "velocity": 110}, {"time": 21960, "pitch": 67, "duration": 130, "velocity": 90}, {"time": 21970, "pitch": 55, "duration": 90, "velocity": 90}, {"time": 21970, "pitch": 59, "duration": 110, "velocity": 85}, {"time": 21970, "pitch": 62, "duration": 120, "velocity": 80}, {"time": 22080, "pitch": 43, "duration": 150, "velocity": 110}, {"time": 22090, "pitch": 59, "duration": 120, "velocity": 100}, {"time": 22090, "pitch": 62, "duration": 110, "velocity": 105}, {"time": 22090, "pitch": 67, "duration": 90, "velocity": 110}, {"time": 22200, "pitch": 67, "duration": 391, "velocity": 100}, {"time": 22210, "pitch": 55, "duration": 331, "velocity": 100}, {"time": 22210, "pitch": 59, "duration": 351, "velocity": 95}, {"time": 22210, "pitch": 62, "duration": 371, "velocity": 90}, {"time": 22561, "pitch": 45, "duration": 391, "velocity": 110}, {"time": 22571, "pitch": 61, "duration": 361, "velocity": 100}, {"time": 22571, "pitch": 64, "duration": 351, "velocity": 105}, {"time": 22571, "pitch": 69, "duration": 331, "velocity": 110}, {"time": 22922, "pitch": 69, "duration": 130, "velocity": 90}, {"time": 22932, "pitch": 57, "duration": 90, "velocity": 90}, {"time": 22932, "pitch": 61, "duration": 110, "velocity": 85}, {"time": 22932, "pitch": 64, "duration": 120, "velocity": 80}, {"time": 23042, "pitch": 45, "duration": 149, "velocity": 110}, {"time": 23052, "pitch": 61, "duration": 119, "velocity": 100}, {"time": 23052, "pitch": 64, "duration": 109, "velocity": 105}, {"time": 23052, "pitch": 69, "duration": 89, "velocity": 110}, {"time": 23161, "pitch": 69, "duration": 386, "velocity": 100}, {"time": 23171, "pitch": 57, "duration": 326, "velocity": 100}, {"time": 23171, "pitch": 61, "duration": 346, "velocity": 95}, {"time": 23171, "pitch": 64, "duration": 366, "velocity": 90}, {"time": 23517, "pitch": 53, "duration": 250, "velocity": 105}, {"time": 23527, "pitch": 57, "duration": 240, "velocity": 100}, {"time": 23527, "pitch": 60, "duration": 240, "velocity": 105}, {"time": 23527, "pitch": 65, "duration": 230, "velocity": 110}, {"time": 23757, "pitch": 65, "duration": 131, "velocity": 100}, {"time": 23767, "pitch": 53, "duration": 111, "velocity": 95}, {"time": 23767, "pitch": 57, "duration": 121, "velocity": 90}, {"time": 23767, "pitch": 60, "duration": 121, "velocity": 95}, {"time": 23878, "pitch": 53, "duration": 250, "velocity": 105}, {"time": 23888, "pitch": 57, "duration": 240, "velocity": 100}, {"time": 23888, "pitch": 60, "duration": 240, "velocity": 105}, {"time": 23888, "pitch": 65, "duration": 230, "velocity": 110}, {"time": 24118, "pitch": 65, "duration": 130, "velocity": 100}, {"time": 24128, "pitch": 53, "duration": 110, "velocity": 95}, {"time": 24128, "pitch": 57, "duration": 120, "velocity": 90}, {"time": 24128, "pitch": 60, "duration": 120, "velocity": 95}, {"time": 24238, "pitch": 53, "duration": 241, "velocity": 105}, {"time": 24248, "pitch": 57, "duration": 241, "velocity": 100}, {"time": 24248, "pitch": 60, "duration": 241, "velocity": 105}, {"time": 24248, "pitch": 65, "duration": 241, "velocity": 110}, {"time": 24479, "pitch": 53, "duration": 130, "velocity": 100}, {"time": 24489, "pitch": 57, "duration": 120, "velocity": 90}, {"time": 24489, "pitch": 60, "duration": 120, "velocity": 95}, {"time": 24489, "pitch": 65, "duration": 110, "velocity": 100}, {"time": 24599, "pitch": 65, "duration": 130, "velocity": 85}, {"time": 24609, "pitch": 53, "duration": 110, "velocity": 80}, {"time": 24609, "pitch": 57, "duration": 120, "velocity": 75}, {"time": 24609, "pitch": 60, "duration": 120, "velocity": 80}, {"time": 24719, "pitch": 53, "duration": 251, "velocity": 105}, {"time": 24729, "pitch": 57, "duration": 241, "velocity": 100}, {"time": 24729, "pitch": 60, "duration": 241, "velocity": 105}, {"time": 24729, "pitch": 65, "duration": 231, "velocity": 110}, {"time": 24960, "pitch": 65, "duration": 491, "velocity": 100}, {"time": 24970, "pitch": 53, "duration": 471, "velocity": 95}, {"time": 24970, "pitch": 57, "duration": 481, "velocity": 90}, {"time": 24970, "pitch": 60, "duration": 481, "velocity": 95}, {"time": 25441, "pitch": 53, "duration": 251, "velocity": 105}, {"time": 25451, "pitch": 57, "duration": 241, "velocity": 100}, {"time": 25451, "pitch": 60, "duration": 241, "velocity": 105}, {"time": 25451, "pitch": 65, "duration": 231, "velocity": 110}, {"time": 25682, "pitch": 65, "duration": 130, "velocity": 100}, {"time": 25692, "pitch": 53, "duration": 110, "velocity": 95}, {"time": 25692, "pitch": 57, "duration": 120, "velocity": 90}, {"time": 25692, "pitch": 60, "duration": 120, "velocity": 95}, {"time": 25802, "pitch": 53, "duration": 250, "velocity": 105}, {"time": 25812, "pitch": 57, "duration": 240, "velocity": 100}, {"time": 25812, "pitch": 60, "duration": 240, "velocity": 105}, {"time": 25812, "pitch": 65, "duration": 230, "velocity": 110}, {"time": 26042, "pitch": 65, "duration": 131, "velocity": 100}, {"time": 26052, "pitch": 53, "duration": 111, "velocity": 95}, {"time": 26052, "pitch": 57, "duration": 121, "velocity": 90}, {"time": 26052, "pitch": 60, "duration": 121, "velocity": 95}, {"time": 26163, "pitch": 53, "duration": 240, "velocity": 105}, {"time": 26173, "pitch": 57, "duration": 240, "velocity": 100}, {"time": 26173, "pitch": 60, "duration": 240, "velocity": 105}, {"time": 26173, "pitch": 65, "duration": 240, "velocity": 110}, {"time": 26403, "pitch": 53, "duration": 129, "velocity": 100}, {"time": 26413, "pitch": 57, "duration": 119, "velocity": 90}, {"time": 26413, "pitch": 60, "duration": 119, "velocity": 95}, {"time": 26413, "pitch": 65, "duration": 109, "velocity": 100}, {"time": 26522, "pitch": 65, "duration": 128, "velocity": 85}, {"time": 26532, "pitch": 53, "duration": 108, "velocity": 80}, {"time": 26532, "pitch": 57, "duration": 118, "velocity": 75}, {"time": 26532, "pitch": 60, "duration": 118, "velocity": 80}, {"time": 26640, "pitch": 53, "duration": 248, "velocity": 105}, {"time": 26650, "pitch": 57, "duration": 238, "velocity": 100}, {"time": 26650, "pitch": 60, "duration": 238, "velocity": 105}, {"time": 26650, "pitch": 65, "duration": 228, "velocity": 110}, {"time": 26878, "pitch": 65, "duration": 481, "velocity": 100}, {"time": 26888, "pitch": 53, "duration": 471, "velocity": 95}, {"time": 26888, "pitch": 57, "duration": 471, "velocity": 90}, {"time": 26888, "pitch": 60, "duration": 471, "velocity": 95}, {"time": 56158, "pitch": 53, "duration": 250, "velocity": 105}, {"time": 56168, "pitch": 57, "duration": 240, "velocity": 100}, {"time": 56168, "pitch": 60, "duration": 240, "velocity": 105}, {"time": 56168, "pitch": 65, "duration": 230, "velocity": 110}, {"time": 56398, "pitch": 65, "duration": 130, "velocity": 100}, {"time": 56408, "pitch": 53, "duration": 110, "velocity": 95}, {"time": 56408, "pitch": 57, "duration": 120, "velocity": 90}, {"time": 56408, "pitch": 60, "duration": 120, "velocity": 95}, {"time": 56518, "pitch": 53, "duration": 251, "velocity": 105}, {"time": 56528, "pitch": 57, "duration": 241, "velocity": 100}, {"time": 56528, "pitch": 60, "duration": 241, "velocity": 105}, {"time": 56528, "pitch": 65, "duration": 231, "velocity": 110}, {"time": 56759, "pitch": 65, "duration": 130, "velocity": 100}, {"time": 56769, "pitch": 53, "duration": 110, "velocity": 95}, {"time": 56769, "pitch": 57, "duration": 120, "velocity": 90}, {"time": 56769, "pitch": 60, "duration": 120, "velocity": 95}, {"time": 56879, "pitch": 53, "duration": 241, "velocity": 105}, {"time": 56889, "pitch": 57, "duration": 241, "velocity": 100}, {"time": 56889, "pitch": 60, "duration": 241, "velocity": 105}, {"time": 56889, "pitch": 65, "duration": 241, "velocity": 110}, {"time": 57120, "pitch": 53, "duration": 130, "velocity": 100}, {"time": 57130, "pitch": 57, "duration": 120, "velocity": 90}, {"time": 57130, "pitch": 60, "duration": 120, "velocity": 95}, {"time": 57130, "pitch": 65, "duration": 110, "velocity": 100}, {"time": 57240, "pitch": 65, "duration": 130, "velocity": 85}, {"time": 57250, "pitch": 53, "duration": 110, "velocity": 80}, {"time": 57250, "pitch": 57, "duration": 120, "velocity": 75}, {"time": 57250, "pitch": 60, "duration": 120, "velocity": 80}, {"time": 57360, "pitch": 53, "duration": 130, "velocity": 110}, {"time": 57370, "pitch": 57, "duration": 120, "velocity": 100}, {"time": 57370, "pitch": 60, "duration": 120, "velocity": 105}, {"time": 57370, "pitch": 65, "duration": 110, "velocity": 110}, {"time": 57480, "pitch": 65, "duration": 131, "velocity": 105}, {"time": 57490, "pitch": 53, "duration": 111, "velocity": 100}, {"time": 57490, "pitch": 57, "duration": 121, "velocity": 95}, {"time": 57490, "pitch": 60, "duration": 121, "velocity": 100}, {"time": 57601, "pitch": 53, "duration": 481, "velocity": 105}, {"time": 57611, "pitch": 57, "duration": 481, "velocity": 100}, {"time": 57611, "pitch": 60, "duration": 481, "velocity": 105}, {"time": 57611, "pitch": 65, "duration": 481, "velocity": 110}, {"time": 58082, "pitch": 53, "duration": 250, "velocity": 105}, {"time": 58092, "pitch": 57, "duration": 240, "velocity": 100}, {"time": 58092, "pitch": 60, "duration": 240, "velocity": 105}, {"time": 58092, "pitch": 65, "duration": 230, "velocity": 110}, {"time": 58322, "pitch": 65, "duration": 131, "velocity": 100}, {"time": 58332, "pitch": 53, "duration": 111, "velocity": 95}, {"time": 58332, "pitch": 57, "duration": 121, "velocity": 90}, {"time": 58332, "pitch": 60, "duration": 121, "velocity": 95}, {"time": 58443, "pitch": 53, "duration": 248, "velocity": 105}, {"time": 58453, "pitch": 57, "duration": 238, "velocity": 100}, {"time": 58453, "pitch": 60, "duration": 238, "velocity": 105}, {"time": 58453, "pitch": 65, "duration": 228, "velocity": 110}, {"time": 58681, "pitch": 65, "duration": 129, "velocity": 100}, {"time": 58691, "pitch": 53, "duration": 109, "velocity": 95}, {"time": 58691, "pitch": 57, "duration": 119, "velocity": 90}, {"time": 58691, "pitch": 60, "duration": 119, "velocity": 95}, {"time": 58800, "pitch": 53, "duration": 237, "velocity": 105}, {"time": 58810, "pitch": 57, "duration": 237, "velocity": 100}, {"time": 58810, "pitch": 60, "duration": 237, "velocity": 105}, {"time": 58810, "pitch": 65, "duration": 237, "velocity": 110}, {"time": 59037, "pitch": 53, "duration": 131, "velocity": 100}, {"time": 59047, "pitch": 57, "duration": 121, "velocity": 90}, {"time": 59047, "pitch": 60, "duration": 121, "velocity": 95}, {"time": 59047, "pitch": 65, "duration": 111, "velocity": 100}, {"time": 59158, "pitch": 65, "duration": 130, "velocity": 85}, {"time": 59168, "pitch": 53, "duration": 110, "velocity": 80}, {"time": 59168, "pitch": 57, "duration": 120, "velocity": 75}, {"time": 59168, "pitch": 60, "duration": 120, "velocity": 80}, {"time": 59278, "pitch": 53, "duration": 130, "velocity": 110}, {"time": 59288, "pitch": 57, "duration": 120, "velocity": 100}, {"time": 59288, "pitch": 60, "duration": 120, "velocity": 105}, {"time": 59288, "pitch": 65, "duration": 110, "velocity": 110}, {"time": 59398, "pitch": 65, "duration": 151, "velocity": 105}, {"time": 59408, "pitch": 53, "duration": 110, "velocity": 100}, {"time": 59408, "pitch": 57, "duration": 120, "velocity": 95}, {"time": 59408, "pitch": 60, "duration": 110, "velocity": 100}, {"time": 59518, "pitch": 60, "duration": 441, "velocity": 105}, {"time": 59528, "pitch": 64, "duration": 431, "velocity": 100}, {"time": 59528, "pitch": 67, "duration": 431, "velocity": 105}, {"time": 59528, "pitch": 72, "duration": 431, "velocity": 110}, {"time": 60000, "pitch": 53, "duration": 250, "velocity": 105}, {"time": 60010, "pitch": 57, "duration": 240, "velocity": 100}, {"time": 60010, "pitch": 60, "duration": 240, "velocity": 105}, {"time": 60010, "pitch": 65, "duration": 230, "velocity": 110}, {"time": 60240, "pitch": 65, "duration": 130, "velocity": 100}, {"time": 60250, "pitch": 53, "duration": 110, "velocity": 95}, {"time": 60250, "pitch": 57, "duration": 120, "velocity": 90}, {"time": 60250, "pitch": 60, "duration": 120, "velocity": 95}, {"time": 60360, "pitch": 53, "duration": 251, "velocity": 105}, {"time": 60370, "pitch": 57, "duration": 241, "velocity": 100}, {"time": 60370, "pitch": 60, "duration": 241, "velocity": 105}, {"time": 60370, "pitch": 65, "duration": 231, "velocity": 110}, {"time": 60601, "pitch": 65, "duration": 130, "velocity": 100}, {"time": 60611, "pitch": 53, "duration": 110, "velocity": 95}, {"time": 60611, "pitch": 57, "duration": 120, "velocity": 90}, {"time": 60611, "pitch": 60, "duration": 120, "velocity": 95}, {"time": 60721, "pitch": 53, "duration": 241, "velocity": 105}, {"time": 60731, "pitch": 57, "duration": 241, "velocity": 100}, {"time": 60731, "pitch": 60, "duration": 241, "velocity": 105}, {"time": 60731, "pitch": 65, "duration": 241, "velocity": 110}, {"time": 60962, "pitch": 53, "duration": 130, "velocity": 100}, {"time": 60972, "pitch": 57, "duration": 120, "velocity": 90}, {"time": 60972, "pitch": 60, "duration": 120, "velocity": 95}, {"time": 60972, "pitch": 65, "duration": 110, "velocity": 100}, {"time": 61082, "pitch": 65, "duration": 130, "velocity": 85}, {"time": 61092, "pitch": 53, "duration": 110, "velocity": 80}, {"time": 61092, "pitch": 57, "duration": 120, "velocity": 75}, {"time": 61092, "pitch": 60, "duration": 120, "velocity": 80}, {"time": 61202, "pitch": 53, "duration": 131, "velocity": 110}, {"time": 61212, "pitch": 57, "duration": 121, "velocity": 100}, {"time": 61212, "pitch": 60, "duration": 121, "velocity": 105}, {"time": 61212, "pitch": 65, "duration": 110, "velocity": 110}, {"time": 61322, "pitch": 65, "duration": 131, "velocity": 105}, {"time": 61333, "pitch": 53, "duration": 110, "velocity": 100}, {"time": 61333, "pitch": 57, "duration": 120, "velocity": 95}, {"time": 61333, "pitch": 60, "duration": 120, "velocity": 100}, {"time": 61443, "pitch": 53, "duration": 474, "velocity": 105}, {"time": 61453, "pitch": 57, "duration": 474, "velocity": 100}, {"time": 61453, "pitch": 60, "duration": 474, "velocity": 105}, {"time": 61453, "pitch": 65, "duration": 474, "velocity": 110}, {"time": 61917, "pitch": 53, "duration": 251, "velocity": 105}, {"time": 61927, "pitch": 57, "duration": 241, "velocity": 100}, {"time": 61927, "pitch": 60, "duration": 241, "velocity": 105}, {"time": 61927, "pitch": 65, "duration": 231, "velocity": 110}, {"time": 62158, "pitch": 65, "duration": 130, "velocity": 100}, {"time": 62168, "pitch": 53, "duration": 110, "velocity": 95}, {"time": 62168, "pitch": 57, "duration": 120, "velocity": 90}, {"time": 62168, "pitch": 60, "duration": 120, "velocity": 95}, {"time": 62278, "pitch": 53, "duration": 251, "velocity": 105}, {"time": 62288, "pitch": 57, "duration": 241, "velocity": 100}, {"time": 62288, "pitch": 60, "duration": 241, "velocity": 105}, {"time": 62288, "pitch": 65, "duration": 231, "velocity": 110}, {"time": 62519, "pitch": 65, "duration": 130, "velocity": 100}, {"time": 62529, "pitch": 53, "duration": 110, "velocity": 95}, {"time": 62529, "pitch": 57, "duration": 120, "velocity": 90}, {"time": 62529, "pitch": 60, "duration": 120, "velocity": 95}, {"time": 62639, "pitch": 53, "duration": 240, "velocity": 105}, {"time": 62649, "pitch": 57, "duration": 240, "velocity": 100}, {"time": 62649, "pitch": 60, "duration": 240, "velocity": 105}, {"time": 62649, "pitch": 65, "duration": 240, "velocity": 110}, {"time": 62879, "pitch": 53, "duration": 131, "velocity": 100}, {"time": 62889, "pitch": 57, "duration": 121, "velocity": 90}, {"time": 62889, "pitch": 60, "duration": 121, "velocity": 95}, {"time": 62889, "pitch": 65, "duration": 111, "velocity": 100}, {"time": 63000, "pitch": 65, "duration": 130, "velocity": 85}, {"time": 63010, "pitch": 53, "duration": 110, "velocity": 80}, {"time": 63010, "pitch": 57, "duration": 120, "velocity": 75}, {"time": 63010, "pitch": 60, "duration": 120, "velocity": 80}, {"time": 63120, "pitch": 53, "duration": 130, "velocity": 110}, {"time": 63130, "pitch": 57, "duration": 120, "velocity": 100}, {"time": 63130, "pitch": 60, "duration": 120, "velocity": 105}, {"time": 63130, "pitch": 65, "duration": 110, "velocity": 110}, {"time": 63240, "pitch": 65, "duration": 151, "velocity": 105}, {"time": 63250, "pitch": 53, "duration": 110, "velocity": 100}, {"time": 63250, "pitch": 57, "duration": 120, "velocity": 95}, {"time": 63250, "pitch": 60, "duration": 110, "velocity": 100}, {"time": 63360, "pitch": 60, "duration": 441, "velocity": 105}, {"time": 63370, "pitch": 64, "duration": 431, "velocity": 100}, {"time": 63370, "pitch": 67, "duration": 431, "velocity": 105}, {"time": 63370, "pitch": 72, "duration": 431, "velocity": 110}, {"time": 132959, "pitch": 53, "duration": 250, "velocity": 105}, {"time": 132969, "pitch": 57, "duration": 240, "velocity": 100}, {"time": 132969, "pitch": 60, "duration": 240, "velocity": 105}, {"time": 132969, "pitch": 65, "duration": 230, "velocity": 110}, {"time": 133199, "pitch": 65, "duration": 130, "velocity": 100}, {"time": 133209, "pitch": 53, "duration": 110, "velocity": 95}, {"time": 133209, "pitch": 57, "duration": 120, "velocity": 90}, {"time": 133209, "pitch": 60, "duration": 120, "velocity": 95}, {"time": 133319, "pitch": 53, "duration": 251, "velocity": 105}, {"time": 133329, "pitch": 57, "duration": 241, "velocity": 100}, {"time": 133329, "pitch": 60, "duration": 241, "velocity": 105}, {"time": 133329, "pitch": 65, "duration": 231, "velocity": 110}, {"time": 133560, "pitch": 65, "duration": 130, "velocity": 100}, {"time": 133570, "pitch": 53, "duration": 110, "velocity": 95}, {"time": 133570, "pitch": 57, "duration": 120, "velocity": 90}, {"time": 133570, "pitch": 60, "duration": 120, "velocity": 95}, {"time": 133680, "pitch": 53, "duration": 241, "velocity": 105}, {"time": 133690, "pitch": 57, "duration": 241, "velocity": 100}, {"time": 133690, "pitch": 60, "duration": 241, "velocity": 105}, {"time": 133690, "pitch": 65, "duration": 241, "velocity": 110}, {"time": 133921, "pitch": 53, "duration": 130, "velocity": 100}, {"time": 133931, "pitch": 57, "duration": 120, "velocity": 90}, {"time": 133931, "pitch": 60, "duration": 120, "velocity": 95}, {"time": 133931, "pitch": 65, "duration": 110, "velocity": 100}, {"time": 134041, "pitch": 65, "duration": 130, "velocity": 85}, {"time": 134051, "pitch": 53, "duration": 110, "velocity": 80}, {"time": 134051, "pitch": 57, "duration": 120, "velocity": 75}, {"time": 134051, "pitch": 60, "duration": 120, "velocity": 80}, {"time": 134161, "pitch": 53, "duration": 131, "velocity": 110}, {"time": 134171, "pitch": 57, "duration": 121, "velocity": 100}, {"time": 134171, "pitch": 60, "duration": 121, "velocity": 105}, {"time": 134171, "pitch": 65, "duration": 111, "velocity": 110}, {"time": 134282, "pitch": 65, "duration": 150, "velocity": 105}, {"time": 134292, "pitch": 53, "duration": 110, "velocity": 100}, {"time": 134292, "pitch": 57, "duration": 120, "velocity": 95}, {"time": 134292, "pitch": 60, "duration": 110, "velocity": 100}, {"time": 134402, "pitch": 60, "duration": 441, "velocity": 105}, {"time": 134412, "pitch": 64, "duration": 431, "velocity": 100}, {"time": 134412, "pitch": 67, "duration": 431, "velocity": 105}, {"time": 134412, "pitch": 72, "duration": 431, "velocity": 110}, {"time": 134883, "pitch": 53, "duration": 247, "velocity": 105}, {"time": 134893, "pitch": 57, "duration": 237, "velocity": 100}, {"time": 134893, "pitch": 60, "duration": 237, "velocity": 105}, {"time": 134893, "pitch": 65, "duration": 227, "velocity": 110}, {"time": 135120, "pitch": 65, "duration": 129, "velocity": 100}, {"time": 135130, "pitch": 53, "duration": 109, "velocity": 95}, {"time": 135130, "pitch": 57, "duration": 119, "velocity": 90}, {"time": 135130, "pitch": 60, "duration": 119, "velocity": 95}, {"time": 135239, "pitch": 53, "duration": 249, "velocity": 105}, {"time": 135249, "pitch": 57, "duration": 239, "velocity": 100}, {"time": 135249, "pitch": 60, "duration": 239, "velocity": 105}, {"time": 135249, "pitch": 65, "duration": 229, "velocity": 110}, {"time": 135478, "pitch": 65, "duration": 130, "velocity": 100}, {"time": 135488, "pitch": 53, "duration": 110, "velocity": 95}, {"time": 135488, "pitch": 57, "duration": 120, "velocity": 90}, {"time": 135488, "pitch": 60, "duration": 120, "velocity": 95}, {"time": 135598, "pitch": 53, "duration": 240, "velocity": 105}, {"time": 135608, "pitch": 57, "duration": 240, "velocity": 100}, {"time": 135608, "pitch": 60, "duration": 240, "velocity": 105}, {"time": 135608, "pitch": 65, "duration": 240, "velocity": 110}, {"time": 135838, "pitch": 53, "duration": 131, "velocity": 100}, {"time": 135848, "pitch": 57, "duration": 121, "velocity": 90}, {"time": 135848, "pitch": 60, "duration": 121, "velocity": 95}, {"time": 135848, "pitch": 65, "duration": 111, "velocity": 100}, {"time": 135959, "pitch": 65, "duration": 130, "velocity": 85}, {"time": 135969, "pitch": 53, "duration": 110, "velocity": 80}, {"time": 135969, "pitch": 57, "duration": 120, "velocity": 75}, {"time": 135969, "pitch": 60, "duration": 120, "velocity": 80}, {"time": 136079, "pitch": 53, "duration": 130, "velocity": 110}, {"time": 136089, "pitch": 57, "duration": 120, "velocity": 100}, {"time": 136089, "pitch": 60, "duration": 120, "velocity": 105}, {"time": 136089, "pitch": 65, "duration": 110, "velocity": 110}, {"time": 136199, "pitch": 65, "duration": 131, "velocity": 105}, {"time": 136209, "pitch": 53, "duration": 111, "velocity": 100}, {"time": 136209, "pitch": 57, "duration": 121, "velocity": 95}, {"time": 136209, "pitch": 60, "duration": 121, "velocity": 100}, {"time": 136320, "pitch": 53, "duration": 481, "velocity": 105}, {"time": 136330, "pitch": 57, "duration": 481, "velocity": 100}, {"time": 136330, "pitch": 60, "duration": 481, "velocity": 105}, {"time": 136330, "pitch": 65, "duration": 481, "velocity": 110}, {"time": 136801, "pitch": 53, "duration": 250, "velocity": 105}, {"time": 136811, "pitch": 57, "duration": 240, "velocity": 100}, {"time": 136811, "pitch": 60, "duration": 240, "velocity": 105}, {"time": 136811, "pitch": 65, "duration": 230, "velocity": 110}, {"time": 137041, "pitch": 65, "duration": 130, "velocity": 100}, {"time": 137051, "pitch": 53, "duration": 110, "velocity": 95}, {"time": 137051, "pitch": 57, "duration": 120, "velocity": 90}, {"time": 137051, "pitch": 60, "duration": 120, "velocity": 95}, {"time": 137161, "pitch": 53, "duration": 251, "velocity": 105}, {"time": 137171, "pitch": 57, "duration": 241, "velocity": 100}, {"time": 137171, "pitch": 60, "duration": 241, "velocity": 105}, {"time": 137171, "pitch": 65, "duration": 231, "velocity": 110}, {"time": 137402, "pitch": 65, "duration": 130, "velocity": 100}, {"time": 137412, "pitch": 53, "duration": 110, "velocity": 95}, {"time": 137412, "pitch": 57, "duration": 120, "velocity": 90}, {"time": 137412, "pitch": 60, "duration": 120, "velocity": 95}, {"time": 137522, "pitch": 53, "duration": 241, "velocity": 105}, {"time": 137532, "pitch": 57, "duration": 241, "velocity": 100}, {"time": 137532, "pitch": 60, "duration": 241, "velocity": 105}, {"time": 137532, "pitch": 65, "duration": 241, "velocity": 110}, {"time": 137763, "pitch": 53, "duration": 128, "velocity": 100}, {"time": 137773, "pitch": 57, "duration": 118, "velocity": 90}, {"time": 137773, "pitch": 60, "duration": 118, "velocity": 95}, {"time": 137773, "pitch": 65, "duration": 108, "velocity": 100}, {"time": 137881, "pitch": 65, "duration": 129, "velocity": 85}, {"time": 137891, "pitch": 53, "duration": 109, "velocity": 80}, {"time": 137891, "pitch": 57, "duration": 119, "velocity": 75}, {"time": 137891, "pitch": 60, "duration": 119, "velocity": 80}, {"time": 138000, "pitch": 53, "duration": 129, "velocity": 110}, {"time": 138010, "pitch": 57, "duration": 119, "velocity": 100}, {"time": 138010, "pitch": 60, "duration": 119, "velocity": 105}, {"time": 138010, "pitch": 65, "duration": 109, "velocity": 110}, {"time": 138119, "pitch": 65, "duration": 148, "velocity": 105}, {"time": 138129, "pitch": 53, "duration": 108, "velocity": 100}, {"time": 138129, "pitch": 57, "duration": 118, "velocity": 95}, {"time": 138129, "pitch": 60, "duration": 108, "velocity": 100}, {"time": 138237, "pitch": 60, "duration": 441, "velocity": 105}, {"time": 138247, "pitch": 64, "duration": 431, "velocity": 100}, {"time": 138247, "pitch": 67, "duration": 431, "velocity": 105}, {"time": 138247, "pitch": 72, "duration": 431, "velocity": 110}, {"time": 138718, "pitch": 53, "duration": 251, "velocity": 105}, {"time": 138728, "pitch": 57, "duration": 241, "velocity": 100}, {"time": 138728, "pitch": 60, "duration": 241, "velocity": 105}, {"time": 138728, "pitch": 65, "duration": 231, "velocity": 110}, {"time": 138959, "pitch": 65, "duration": 130, "velocity": 100}, {"time": 138969, "pitch": 53, "duration": 110, "velocity": 95}, {"time": 138969, "pitch": 57, "duration": 120, "velocity": 90}, {"time": 138969, "pitch": 60, "duration": 120, "velocity": 95}, {"time": 139079, "pitch": 53, "duration": 251, "velocity": 105}, {"time": 139089, "pitch": 57, "duration": 241, "velocity": 100}, {"time": 139089, "pitch": 60, "duration": 241, "velocity": 105}, {"time": 139089, "pitch": 65, "duration": 231, "velocity": 110}, {"time": 139320, "pitch": 65, "duration": 130, "velocity": 100}, {"time": 139330, "pitch": 53, "duration": 110, "velocity": 95}, {"time": 139330, "pitch": 57, "duration": 120, "velocity": 90}, {"time": 139330, "pitch": 60, "duration": 120, "velocity": 95}, {"time": 139440, "pitch": 53, "duration": 240, "velocity": 105}, {"time": 139450, "pitch": 57, "duration": 240, "velocity": 100}, {"time": 139450, "pitch": 60, "duration": 240, "velocity": 105}, {"time": 139450, "pitch": 65, "duration": 240, "velocity": 110}, {"time": 139680, "pitch": 53, "duration": 131, "velocity": 100}, {"time": 139690, "pitch": 57, "duration": 121, "velocity": 90}, {"time": 139690, "pitch": 60, "duration": 121, "velocity": 95}, {"time": 139690, "pitch": 65, "duration": 111, "velocity": 100}, {"time": 139801, "pitch": 65, "duration": 130, "velocity": 85}, {"time": 139811, "pitch": 53, "duration": 110, "velocity": 80}, {"time": 139811, "pitch": 57, "duration": 120, "velocity": 75}, {"time": 139811, "pitch": 60, "duration": 120, "velocity": 80}, {"time": 139921, "pitch": 53, "duration": 130, "velocity": 110}, {"time": 139931, "pitch": 57, "duration": 120, "velocity": 100}, {"time": 139931, "pitch": 60, "duration": 120, "velocity": 105}, {"time": 139931, "pitch": 65, "duration": 110, "velocity": 110}, {"time": 140041, "pitch": 65, "duration": 131, "velocity": 105}, {"time": 140051, "pitch": 53, "duration": 111, "velocity": 100}, {"time": 140051, "pitch": 57, "duration": 121, "velocity": 95}, {"time": 140051, "pitch": 60, "duration": 121, "velocity": 100}, {"time": 140162, "pitch": 53, "duration": 481, "velocity": 105}, {"time": 140172, "pitch": 57, "duration": 480, "velocity": 100}, {"time": 140172, "pitch": 60, "duration": 480, "velocity": 105}, {"time": 140172, "pitch": 65, "duration": 480, "velocity": 110}, {"time": 140643, "pitch": 53, "duration": 247, "velocity": 105}, {"time": 140652, "pitch": 57, "duration": 238, "velocity": 100}, {"time": 140652, "pitch": 60, "duration": 238, "velocity": 105}, {"time": 140652, "pitch": 65, "duration": 228, "velocity": 110}, {"time": 140880, "pitch": 65, "duration": 128, "velocity": 100}, {"time": 140890, "pitch": 53, "duration": 108, "velocity": 95}, {"time": 140890, "pitch": 57, "duration": 118, "velocity": 90}, {"time": 140890, "pitch": 60, "duration": 118, "velocity": 95}, {"time": 140998, "pitch": 53, "duration": 249, "velocity": 105}, {"time": 141008, "pitch": 57, "duration": 239, "velocity": 100}, {"time": 141008, "pitch": 60, "duration": 239, "velocity": 105}, {"time": 141008, "pitch": 65, "duration": 229, "velocity": 110}, {"time": 141237, "pitch": 65, "duration": 131, "velocity": 100}, {"time": 141247, "pitch": 53, "duration": 111, "velocity": 95}, {"time": 141247, "pitch": 57, "duration": 121, "velocity": 90}, {"time": 141247, "pitch": 60, "duration": 121, "velocity": 95}, {"time": 141358, "pitch": 53, "duration": 240, "velocity": 105}, {"time": 141368, "pitch": 57, "duration": 240, "velocity": 100}, {"time": 141368, "pitch": 60, "duration": 240, "velocity": 105}, {"time": 141368, "pitch": 65, "duration": 240, "velocity": 110}, {"time": 141598, "pitch": 53, "duration": 130, "velocity": 100}, {"time": 141608, "pitch": 57, "duration": 120, "velocity": 90}, {"time": 141608, "pitch": 60, "duration": 120, "velocity": 95}, {"time": 141608, "pitch": 65, "duration": 110, "velocity": 100}, {"time": 141718, "pitch": 65, "duration": 131, "velocity": 85}, {"time": 141728, "pitch": 53, "duration": 111, "velocity": 80}, {"time": 141728, "pitch": 57, "duration": 121, "velocity": 75}, {"time": 141728, "pitch": 60, "duration": 121, "velocity": 80}, {"time": 141839, "pitch": 53, "duration": 130, "velocity": 110}, {"time": 141849, "pitch": 57, "duration": 120, "velocity": 100}, {"time": 141849, "pitch": 60, "duration": 120, "velocity": 105}, {"time": 141849, "pitch": 65, "duration": 110, "velocity": 110}, {"time": 141959, "pitch": 65, "duration": 130, "velocity": 105}, {"time": 141969, "pitch": 53, "duration": 110, "velocity": 100}, {"time": 141969, "pitch": 57, "duration": 120, "velocity": 95}, {"time": 141969, "pitch": 60, "duration": 120, "velocity": 100}, {"time": 142079, "pitch": 53, "duration": 481, "velocity": 105}, {"time": 142089, "pitch": 57, "duration": 481, "velocity": 100}, {"time": 142089, "pitch": 60, "duration": 481, "velocity": 105}, {"time": 142089, "pitch": 65, "duration": 481, "velocity": 110}, {"time": 142560, "pitch": 53, "duration": 251, "velocity": 105}, {"time": 142570, "pitch": 57, "duration": 241, "velocity": 100}, {"time": 142570, "pitch": 60, "duration": 241, "velocity": 105}, {"time": 142570, "pitch": 65, "duration": 231, "velocity": 110}, {"time": 142801, "pitch": 65, "duration": 130, "velocity": 100}, {"time": 142811, "pitch": 53, "duration": 110, "velocity": 95}, {"time": 142811, "pitch": 57, "duration": 120, "velocity": 90}, {"time": 142811, "pitch": 60, "duration": 120, "velocity": 95}, {"time": 142921, "pitch": 53, "duration": 251, "velocity": 105}, {"time": 142931, "pitch": 57, "duration": 241, "velocity": 100}, {"time": 142931, "pitch": 60, "duration": 241, "velocity": 105}, {"time": 142931, "pitch": 65, "duration": 231, "velocity": 110}, {"time": 143162, "pitch": 65, "duration": 130, "velocity": 100}, {"time": 143172, "pitch": 53, "duration": 110, "velocity": 95}, {"time": 143172, "pitch": 57, "duration": 120, "velocity": 90}, {"time": 143172, "pitch": 60, "duration": 120, "velocity": 95}, {"time": 143282, "pitch": 53, "duration": 240, "velocity": 105}, {"time": 143292, "pitch": 57, "duration": 240, "velocity": 100}, {"time": 143292, "pitch": 60, "duration": 240, "velocity": 105}, {"time": 143292, "pitch": 65, "duration": 240, "velocity": 110}, {"time": 143522, "pitch": 53, "duration": 129, "velocity": 100}, {"time": 143532, "pitch": 57, "duration": 119, "velocity": 90}, {"time": 143532, "pitch": 60, "duration": 119, "velocity": 95}, {"time": 143532, "pitch": 65, "duration": 109, "velocity": 100}, {"time": 143641, "pitch": 65, "duration": 129, "velocity": 85}, {"time": 143651, "pitch": 53, "duration": 109, "velocity": 80}, {"time": 143651, "pitch": 57, "duration": 119, "velocity": 75}, {"time": 143651, "pitch": 60, "duration": 119, "velocity": 80}, {"time": 143760, "pitch": 53, "duration": 128, "velocity": 110}, {"time": 143770, "pitch": 57, "duration": 118, "velocity": 100}, {"time": 143770, "pitch": 60, "duration": 118, "velocity": 105}, {"time": 143770, "pitch": 65, "duration": 108, "velocity": 110}, {"time": 143878, "pitch": 65, "duration": 149, "velocity": 105}, {"time": 143888, "pitch": 53, "duration": 109, "velocity": 100}, {"time": 143888, "pitch": 57, "duration": 119, "velocity": 95}, {"time": 143888, "pitch": 60, "duration": 109, "velocity": 100}, {"time": 143997, "pitch": 60, "duration": 441, "velocity": 105}, {"time": 144007, "pitch": 64, "duration": 431, "velocity": 100}, {"time": 144007, "pitch": 67, "duration": 431, "velocity": 105}, {"time": 144007, "pitch": 72, "duration": 431, "velocity": 110}, {"time": 144478, "pitch": 53, "duration": 251, "velocity": 105}, {"time": 144488, "pitch": 57, "duration": 241, "velocity": 100}, {"time": 144488, "pitch": 60, "duration": 241, "velocity": 105}, {"time": 144488, "pitch": 65, "duration": 231, "velocity": 110}, {"time": 144719, "pitch": 65, "duration": 130, "velocity": 100}, {"time": 144729, "pitch": 53, "duration": 110, "velocity": 95}, {"time": 144729, "pitch": 57, "duration": 120, "velocity": 90}, {"time": 144729, "pitch": 60, "duration": 120, "velocity": 95}, {"time": 144839, "pitch": 53, "duration": 250, "velocity": 105}, {"time": 144849, "pitch": 57, "duration": 240, "velocity": 100}, {"time": 144849, "pitch": 60, "duration": 240, "velocity": 105}, {"time": 144849, "pitch": 65, "duration": 230, "velocity": 110}, {"time": 145079, "pitch": 65, "duration": 131, "velocity": 100}, {"time": 145089, "pitch": 53, "duration": 111, "velocity": 95}, {"time": 145089, "pitch": 57, "duration": 121, "velocity": 90}, {"time": 145089, "pitch": 60, "duration": 121, "velocity": 95}, {"time": 145200, "pitch": 53, "duration": 240, "velocity": 105}, {"time": 145210, "pitch": 57, "duration": 240, "velocity": 100}, {"time": 145210, "pitch": 60, "duration": 240, "velocity": 105}, {"time": 145210, "pitch": 65, "duration": 240, "velocity": 110}, {"time": 145440, "pitch": 53, "duration": 130, "velocity": 100}, {"time": 145450, "pitch": 57, "duration": 120, "velocity": 90}, {"time": 145450, "pitch": 60, "duration": 120, "velocity": 95}, {"time": 145450, "pitch": 65, "duration": 110, "velocity": 100}, {"time": 145560, "pitch": 65, "duration": 131, "velocity": 85}, {"time": 145570, "pitch": 53, "duration": 111, "velocity": 80}, {"time": 145570, "pitch": 57, "duration": 121, "velocity": 75}, {"time": 145570, "pitch": 60, "duration": 121, "velocity": 80}, {"time": 145681, "pitch": 53, "duration": 130, "velocity": 110}, {"time": 145691, "pitch": 57, "duration": 120, "velocity": 100}, {"time": 145691, "pitch": 60, "duration": 120, "velocity": 105}, {"time": 145691, "pitch": 65, "duration": 110, "velocity": 110}, {"time": 145801, "pitch": 65, "duration": 130, "velocity": 105}, {"time": 145811, "pitch": 53, "duration": 110, "velocity": 100}, {"time": 145811, "pitch": 57, "duration": 120, "velocity": 95}, {"time": 145811, "pitch": 60, "duration": 120, "velocity": 100}, {"time": 145921, "pitch": 53, "duration": 481, "velocity": 105}, {"time": 145931, "pitch": 57, "duration": 481, "velocity": 100}, {"time": 145931, "pitch": 60, "duration": 481, "velocity": 105}, {"time": 145931, "pitch": 65, "duration": 481, "velocity": 110}, {"time": 146402, "pitch": 53, "duration": 247, "velocity": 105}, {"time": 146412, "pitch": 57, "duration": 237, "velocity": 100}, {"time": 146412, "pitch": 60, "duration": 237, "velocity": 105}, {"time": 146412, "pitch": 65, "duration": 228, "velocity": 110}, {"time": 146640, "pitch": 65, "duration": 128, "velocity": 100}, {"time": 146649, "pitch": 53, "duration": 109, "velocity": 95}, {"time": 146649, "pitch": 57, "duration": 119, "velocity": 90}, {"time": 146649, "pitch": 60, "duration": 119, "velocity": 95}, {"time": 146758, "pitch": 53, "duration": 249, "velocity": 105}, {"time": 146768, "pitch": 57, "duration": 239, "velocity": 100}, {"time": 146768, "pitch": 60, "duration": 239, "velocity": 105}, {"time": 146768, "pitch": 65, "duration": 229, "velocity": 110}, {"time": 146997, "pitch": 65, "duration": 130, "velocity": 100}, {"time": 147007, "pitch": 53, "duration": 110, "velocity": 95}, {"time": 147007, "pitch": 57, "duration": 120, "velocity": 90}, {"time": 147007, "pitch": 60, "duration": 120, "velocity": 95}, {"time": 147117, "pitch": 53, "duration": 241, "velocity": 105}, {"time": 147127, "pitch": 57, "duration": 241, "velocity": 100}, {"time": 147127, "pitch": 60, "duration": 241, "velocity": 105}, {"time": 147127, "pitch": 65, "duration": 241, "velocity": 110}, {"time": 147358, "pitch": 53, "duration": 130, "velocity": 100}, {"time": 147368, "pitch": 57, "duration": 120, "velocity": 90}, {"time": 147368, "pitch": 60, "duration": 120, "velocity": 95}, {"time": 147368, "pitch": 65, "duration": 110, "velocity": 100}, {"time": 147478, "pitch": 65, "duration": 130, "velocity": 85}, {"time": 147488, "pitch": 53, "duration": 110, "velocity": 80}, {"time": 147488, "pitch": 57, "duration": 120, "velocity": 75}, {"time": 147488, "pitch": 60, "duration": 120, "velocity": 80}, {"time": 147598, "pitch": 53, "duration": 131, "velocity": 110}, {"time": 147608, "pitch": 57, "duration": 121, "velocity": 100}, {"time": 147608, "pitch": 60, "duration": 121, "velocity": 105}, {"time": 147608, "pitch": 65, "duration": 111, "velocity": 110}, {"time": 147719, "pitch": 65, "duration": 150, "velocity": 105}, {"time": 147729, "pitch": 53, "duration": 110, "velocity": 100}, {"time": 147729, "pitch": 57, "duration": 120, "velocity": 95}, {"time": 147729, "pitch": 60, "duration": 110, "velocity": 100}, {"time": 147839, "pitch": 60, "duration": 2379, "velocity": 105}, {"time": 147849, "pitch": 64, "duration": 2369, "velocity": 100}, {"time": 147849, "pitch": 67, "duration": 2369, "velocity": 105}, {"time": 147849, "pitch": 72, "duration": 2369, "velocity": 110}], "annotations": [{"time": 283, "annotation": {"number": 7, "value": 100}, "group": "control_change"}, {"time": 305, "annotation": {"number": 11, "value": 100}, "group": "control_change"}, {"time": 326, "annotation": {"number": 10, "value": 127}, "group": "control_change"}, {"time": 348, "annotation": {"number": 91, "value": 40}, "group": "control_change"}, {"time": 370, "annotation": {"number": 93, "value": 0}, "group": "control_change"}, {"time": 392, "annotation": {"number": 101, "value": 0}, "group": "control_change"}, {"time": 413, "annotation": {"number": 100, "value": 0}, "group": "control_change"}, {"time": 435, "annotation": {"number": 6, "value": 12}, "group": "control_change"}, {"time": 457, "annotation": {"number": 101, "value": 127}, "group": "control_change"}, {"time": 479, "annotation": {"number": 100, "value": 127}, "group": "control_change"}]}, {"program": 0, "is_drum": false, "name": "Melody", "annotations": [{"time": 218, "annotation": {"number": 0, "value": 0}, "group": "control_change"}, {"time": 239, "annotation": {"number": 32, "value": 0}, "group": "control_change"}]}, {"program": 73, "is_drum": false, "name": "Melody", "notes": [{"time": 8162, "pitch": 74, "duration": 120, "velocity": 100}, {"time": 8282, "pitch": 74, "duration": 241, "velocity": 100}, {"time": 8523, "pitch": 74, "duration": 238, "velocity": 100}, {"time": 8761, "pitch": 69, "duration": 119, "velocity": 100}, {"time": 8880, "pitch": 67, "duration": 119, "velocity": 100}, {"time": 8999, "pitch": 65, "duration": 118, "velocity": 100}, {"time": 9117, "pitch": 67, "duration": 121, "velocity": 100}, {"time": 9238, "pitch": 65, "duration": 120, "velocity": 100}, {"time": 9358, "pitch": 67, "duration": 120, "velocity": 100}, {"time": 9478, "pitch": 65, "duration": 120, "velocity": 100}, {"time": 9598, "pitch": 69, "duration": 241, "velocity": 100}, {"time": 10080, "pitch": 67, "duration": 120, "velocity": 100}, {"time": 10200, "pitch": 67, "duration": 240, "velocity": 100}, {"time": 10440, "pitch": 67, "duration": 241, "velocity": 100}, {"time": 10681, "pitch": 65, "duration": 120, "velocity": 100}, {"time": 10801, "pitch": 62, "duration": 120, "velocity": 100}, {"time": 10921, "pitch": 62, "duration": 121, "velocity": 100}, {"time": 11042, "pitch": 65, "duration": 120, "velocity": 100}, {"time": 11162, "pitch": 62, "duration": 120, "velocity": 100}, {"time": 11282, "pitch": 65, "duration": 120, "velocity": 100}, {"time": 11402, "pitch": 67, "duration": 121, "velocity": 100}, {"time": 11523, "pitch": 62, "duration": 237, "velocity": 100}, {"time": 11997, "pitch": 74, "duration": 120, "velocity": 100}, {"time": 12117, "pitch": 74, "duration": 241, "velocity": 100}, {"time": 12358, "pitch": 74, "duration": 241, "velocity": 100}, {"time": 12599, "pitch": 69, "duration": 120, "velocity": 100}, {"time": 12719, "pitch": 67, "duration": 120, "velocity": 100}, {"time": 12839, "pitch": 65, "duration": 120, "velocity": 100}, {"time": 12959, "pitch": 67, "duration": 241, "velocity": 100}, {"time": 13200, "pitch": 65, "duration": 240, "velocity": 100}, {"time": 13440, "pitch": 69, "duration": 241, "velocity": 100}, {"time": 13922, "pitch": 65, "duration": 240, "velocity": 100}, {"time": 14162, "pitch": 62, "duration": 120, "velocity": 100}, {"time": 14282, "pitch": 65, "duration": 239, "velocity": 100}, {"time": 14521, "pitch": 62, "duration": 119, "velocity": 100}, {"time": 14640, "pitch": 65, "duration": 118, "velocity": 100}, {"time": 14758, "pitch": 62, "duration": 239, "velocity": 100}, {"time": 15358, "pitch": 62, "duration": 120, "velocity": 100}, {"time": 15478, "pitch": 62, "duration": 121, "velocity": 100}, {"time": 15599, "pitch": 65, "duration": 120, "velocity": 100}, {"time": 15719, "pitch": 62, "duration": 120, "velocity": 100}, {"time": 15839, "pitch": 60, "duration": 121, "velocity": 100}, {"time": 15960, "pitch": 62, "duration": 841, "velocity": 100}, {"time": 17757, "pitch": 65, "duration": 241, "velocity": 100}, {"time": 17998, "pitch": 62, "duration": 120, "velocity": 100}, {"time": 18118, "pitch": 65, "duration": 240, "velocity": 100}, {"time": 18358, "pitch": 62, "duration": 121, "velocity": 100}, {"time": 18479, "pitch": 65, "duration": 721, "velocity": 100}, {"time": 19681, "pitch": 65, "duration": 241, "velocity": 100}, {"time": 19922, "pitch": 62, "duration": 120, "velocity": 100}, {"time": 20042, "pitch": 60, "duration": 239, "velocity": 100}, {"time": 20281, "pitch": 62, "duration": 957, "velocity": 100}, {"time": 23517, "pitch": 65, "duration": 240, "velocity": 100}, {"time": 23757, "pitch": 62, "duration": 121, "velocity": 100}, {"time": 23878, "pitch": 65, "duration": 721, "velocity": 100}, {"time": 25441, "pitch": 65, "duration": 241, "velocity": 100}, {"time": 25682, "pitch": 62, "duration": 120, "velocity": 100}, {"time": 25802, "pitch": 60, "duration": 120, "velocity": 100}, {"time": 25922, "pitch": 62, "duration": 1196, "velocity": 100}, {"time": 29283, "pitch": 74, "duration": 119, "velocity": 100}, {"time": 29402, "pitch": 74, "duration": 237, "velocity": 100}, {"time": 29639, "pitch": 74, "duration": 239, "velocity": 100}, {"time": 29878, "pitch": 69, "duration": 120, "velocity": 100}, {"time": 29998, "pitch": 67, "duration": 120, "velocity": 100}, {"time": 30118, "pitch": 65, "duration": 121, "velocity": 100}, {"time": 30239, "pitch": 67, "duration": 120, "velocity": 100}, {"time": 30359, "pitch": 65, "duration": 120, "velocity": 100}, {"time": 30479, "pitch": 67, "duration": 120, "velocity": 100}, {"time": 30599, "pitch": 65, "duration": 121, "velocity": 100}, {"time": 30720, "pitch": 69, "duration": 240, "velocity": 100}, {"time": 31201, "pitch": 67, "duration": 120, "velocity": 100}, {"time": 31321, "pitch": 67, "duration": 241, "velocity": 100}, {"time": 31562, "pitch": 67, "duration": 240, "velocity": 100}, {"time": 31802, "pitch": 65, "duration": 120, "velocity": 100}, {"time": 31922, "pitch": 62, "duration": 121, "velocity": 100}, {"time": 32043, "pitch": 62, "duration": 120, "velocity": 100}, {"time": 32163, "pitch": 65, "duration": 119, "velocity": 100}, {"time": 32282, "pitch": 62, "duration": 118, "velocity": 100}, {"time": 32400, "pitch": 65, "duration": 119, "velocity": 100}, {"time": 32519, "pitch": 67, "duration": 118, "velocity": 100}, {"time": 32637, "pitch": 62, "duration": 241, "velocity": 100}, {"time": 33119, "pitch": 74, "duration": 120, "velocity": 100}, {"time": 33239, "pitch": 74, "duration": 240, "velocity": 100}, {"time": 33479, "pitch": 74, "duration": 241, "velocity": 100}, {"time": 33720, "pitch": 69, "duration": 120, "velocity": 100}, {"time": 33840, "pitch": 67, "duration": 120, "velocity": 100}, {"time": 33960, "pitch": 65, "duration": 121, "velocity": 100}, {"time": 34081, "pitch": 67, "duration": 240, "velocity": 100}, {"time": 34321, "pitch": 65, "duration": 241, "velocity": 100}, {"time": 34562, "pitch": 69, "duration": 240, "velocity": 100}, {"time": 35043, "pitch": 67, "duration": 118, "velocity": 100}, {"time": 35161, "pitch": 65, "duration": 119, "velocity": 100}, {"time": 35280, "pitch": 62, "duration": 119, "velocity": 100}, {"time": 35399, "pitch": 67, "duration": 239, "velocity": 100}, {"time": 35638, "pitch": 65, "duration": 120, "velocity": 100}, {"time": 35758, "pitch": 62, "duration": 120, "velocity": 100}, {"time": 35998, "pitch": 74, "duration": 121, "velocity": 100}, {"time": 36119, "pitch": 69, "duration": 120, "velocity": 100}, {"time": 36239, "pitch": 65, "duration": 120, "velocity": 100}, {"time": 36359, "pitch": 62, "duration": 120, "velocity": 100}, {"time": 36961, "pitch": 74, "duration": 120, "velocity": 100}, {"time": 37201, "pitch": 74, "duration": 481, "velocity": 100}, {"time": 38397, "pitch": 67, "duration": 120, "velocity": 100}, {"time": 38638, "pitch": 65, "duration": 120, "velocity": 100}, {"time": 38758, "pitch": 69, "duration": 601, "velocity": 100}, {"time": 40803, "pitch": 74, "duration": 118, "velocity": 100}, {"time": 41040, "pitch": 74, "duration": 478, "velocity": 100}, {"time": 42239, "pitch": 65, "duration": 120, "velocity": 100}, {"time": 42359, "pitch": 67, "duration": 121, "velocity": 100}, {"time": 42480, "pitch": 65, "duration": 120, "velocity": 100}, {"time": 42600, "pitch": 69, "duration": 601, "velocity": 100}, {"time": 44638, "pitch": 67, "duration": 241, "velocity": 100}, {"time": 44999, "pitch": 67, "duration": 120, "velocity": 100}, {"time": 45119, "pitch": 67, "duration": 120, "velocity": 100}, {"time": 45239, "pitch": 65, "duration": 121, "velocity": 100}, {"time": 45360, "pitch": 67, "duration": 120, "velocity": 100}, {"time": 45480, "pitch": 67, "duration": 120, "velocity": 100}, {"time": 45600, "pitch": 69, "duration": 241, "velocity": 100}, {"time": 45841, "pitch": 69, "duration": 120, "velocity": 100}, {"time": 45961, "pitch": 69, "duration": 120, "velocity": 100}, {"time": 46081, "pitch": 71, "duration": 120, "velocity": 100}, {"time": 46201, "pitch": 74, "duration": 361, "velocity": 100}, {"time": 46562, "pitch": 77, "duration": 238, "velocity": 100}, {"time": 46800, "pitch": 77, "duration": 118, "velocity": 100}, {"time": 46918, "pitch": 77, "duration": 239, "velocity": 100}, {"time": 47157, "pitch": 74, "duration": 962, "velocity": 100}, {"time": 48480, "pitch": 77, "duration": 120, "velocity": 100}, {"time": 48600, "pitch": 74, "duration": 241, "velocity": 100}, {"time": 48841, "pitch": 72, "duration": 240, "velocity": 100}, {"time": 49081, "pitch": 74, "duration": 842, "velocity": 100}, {"time": 50398, "pitch": 67, "duration": 240, "velocity": 100}, {"time": 50759, "pitch": 67, "duration": 120, "velocity": 100}, {"time": 50879, "pitch": 67, "duration": 120, "velocity": 100}, {"time": 50999, "pitch": 65, "duration": 120, "velocity": 100}, {"time": 51119, "pitch": 67, "duration": 121, "velocity": 100}, {"time": 51240, "pitch": 67, "duration": 120, "velocity": 100}, {"time": 51360, "pitch": 69, "duration": 240, "velocity": 100}, {"time": 51600, "pitch": 69, "duration": 121, "velocity": 100}, {"time": 51721, "pitch": 69, "duration": 120, "velocity": 100}, {"time": 51841, "pitch": 71, "duration": 120, "velocity": 100}, {"time": 51961, "pitch": 74, "duration": 361, "velocity": 100}, {"time": 52322, "pitch": 77, "duration": 120, "velocity": 100}, {"time": 52442, "pitch": 77, "duration": 241, "velocity": 100}, {"time": 52683, "pitch": 77, "duration": 715, "velocity": 100}, {"time": 54240, "pitch": 77, "duration": 120, "velocity": 100}, {"time": 54360, "pitch": 74, "duration": 241, "velocity": 100}, {"time": 54601, "pitch": 72, "duration": 240, "velocity": 100}, {"time": 54841, "pitch": 74, "duration": 842, "velocity": 100}, {"time": 63842, "pitch": 74, "duration": 120, "velocity": 100}, {"time": 63962, "pitch": 74, "duration": 240, "velocity": 100}, {"time": 64202, "pitch": 74, "duration": 239, "velocity": 100}, {"time": 64441, "pitch": 69, "duration": 119, "velocity": 100}, {"time": 64560, "pitch": 67, "duration": 119, "velocity": 100}, {"time": 64679, "pitch": 65, "duration": 118, "velocity": 100}, {"time": 64797, "pitch": 67, "duration": 120, "velocity": 100}, {"time": 64917, "pitch": 65, "duration": 121, "velocity": 100}, {"time": 65038, "pitch": 67, "duration": 120, "velocity": 100}, {"time": 65158, "pitch": 65, "duration": 120, "velocity": 100}, {"time": 65278, "pitch": 69, "duration": 241, "velocity": 100}, {"time": 65759, "pitch": 67, "duration": 121, "velocity": 100}, {"time": 65880, "pitch": 67, "duration": 240, "velocity": 100}, {"time": 66120, "pitch": 67, "duration": 241, "velocity": 100}, {"time": 66361, "pitch": 65, "duration": 120, "velocity": 100}, {"time": 66481, "pitch": 62, "duration": 120, "velocity": 100}, {"time": 66601, "pitch": 62, "duration": 120, "velocity": 100}, {"time": 66721, "pitch": 65, "duration": 121, "velocity": 100}, {"time": 66842, "pitch": 62, "duration": 120, "velocity": 100}, {"time": 66962, "pitch": 65, "duration": 120, "velocity": 100}, {"time": 67082, "pitch": 67, "duration": 120, "velocity": 100}, {"time": 67202, "pitch": 62, "duration": 238, "velocity": 100}, {"time": 67677, "pitch": 74, "duration": 120, "velocity": 100}, {"time": 67797, "pitch": 74, "duration": 241, "velocity": 100}, {"time": 68038, "pitch": 74, "duration": 240, "velocity": 100}, {"time": 68278, "pitch": 69, "duration": 121, "velocity": 100}, {"time": 68399, "pitch": 67, "duration": 120, "velocity": 100}, {"time": 68519, "pitch": 65, "duration": 120, "velocity": 100}, {"time": 68639, "pitch": 67, "duration": 241, "velocity": 100}, {"time": 68880, "pitch": 65, "duration": 240, "velocity": 100}, {"time": 69120, "pitch": 69, "duration": 241, "velocity": 100}, {"time": 69601, "pitch": 67, "duration": 121, "velocity": 100}, {"time": 69722, "pitch": 65, "duration": 120, "velocity": 100}, {"time": 69842, "pitch": 62, "duration": 120, "velocity": 100}, {"time": 69962, "pitch": 67, "duration": 239, "velocity": 100}, {"time": 70201, "pitch": 65, "duration": 119, "velocity": 100}, {"time": 70320, "pitch": 62, "duration": 237, "velocity": 100}, {"time": 70557, "pitch": 69, "duration": 120, "velocity": 100}, {"time": 70677, "pitch": 67, "duration": 120, "velocity": 100}, {"time": 70797, "pitch": 65, "duration": 121, "velocity": 100}, {"time": 70918, "pitch": 62, "duration": 240, "velocity": 100}, {"time": 71519, "pitch": 74, "duration": 120, "velocity": 100}, {"time": 71760, "pitch": 74, "duration": 481, "velocity": 100}, {"time": 72962, "pitch": 67, "duration": 119, "velocity": 100}, {"time": 73200, "pitch": 65, "duration": 118, "velocity": 100}, {"time": 73318, "pitch": 69, "duration": 600, "velocity": 100}, {"time": 75361, "pitch": 77, "duration": 120, "velocity": 100}, {"time": 75602, "pitch": 74, "duration": 481, "velocity": 100}, {"time": 76798, "pitch": 65, "duration": 120, "velocity": 100}, {"time": 76918, "pitch": 67, "duration": 120, "velocity": 100}, {"time": 77038, "pitch": 65, "duration": 121, "velocity": 100}, {"time": 77159, "pitch": 69, "duration": 601, "velocity": 100}, {"time": 79203, "pitch": 67, "duration": 237, "velocity": 100}, {"time": 79559, "pitch": 67, "duration": 119, "velocity": 100}, {"time": 79678, "pitch": 67, "duration": 120, "velocity": 100}, {"time": 79798, "pitch": 65, "duration": 120, "velocity": 100}, {"time": 79918, "pitch": 67, "duration": 120, "velocity": 100}, {"time": 80038, "pitch": 67, "duration": 121, "velocity": 100}, {"time": 80159, "pitch": 69, "duration": 240, "velocity": 100}, {"time": 80399, "pitch": 69, "duration": 120, "velocity": 100}, {"time": 80519, "pitch": 69, "duration": 121, "velocity": 100}, {"time": 80640, "pitch": 71, "duration": 120, "velocity": 100}, {"time": 80760, "pitch": 74, "duration": 361, "velocity": 100}, {"time": 81121, "pitch": 77, "duration": 240, "velocity": 100}, {"time": 81361, "pitch": 77, "duration": 121, "velocity": 100}, {"time": 81482, "pitch": 77, "duration": 240, "velocity": 100}, {"time": 81722, "pitch": 74, "duration": 956, "velocity": 100}, {"time": 83039, "pitch": 77, "duration": 120, "velocity": 100}, {"time": 83159, "pitch": 74, "duration": 240, "velocity": 100}, {"time": 83399, "pitch": 72, "duration": 241, "velocity": 100}, {"time": 83640, "pitch": 74, "duration": 842, "velocity": 100}, {"time": 84963, "pitch": 67, "duration": 237, "velocity": 100}, {"time": 85319, "pitch": 67, "duration": 118, "velocity": 100}, {"time": 85437, "pitch": 67, "duration": 121, "velocity": 100}, {"time": 85558, "pitch": 65, "duration": 120, "velocity": 100}, {"time": 85678, "pitch": 67, "duration": 120, "velocity": 100}, {"time": 85798, "pitch": 67, "duration": 120, "velocity": 100}, {"time": 85918, "pitch": 69, "duration": 241, "velocity": 100}, {"time": 86159, "pitch": 69, "duration": 120, "velocity": 100}, {"time": 86279, "pitch": 69, "duration": 120, "velocity": 100}, {"time": 86399, "pitch": 71, "duration": 121, "velocity": 100}, {"time": 86520, "pitch": 74, "duration": 361, "velocity": 100}, {"time": 86881, "pitch": 77, "duration": 120, "velocity": 100}, {"time": 87001, "pitch": 77, "duration": 240, "velocity": 100}, {"time": 87241, "pitch": 77, "duration": 720, "velocity": 100}, {"time": 88798, "pitch": 77, "duration": 121, "velocity": 100}, {"time": 88919, "pitch": 77, "duration": 240, "velocity": 100}, {"time": 89159, "pitch": 77, "duration": 241, "velocity": 100}, {"time": 89400, "pitch": 77, "duration": 842, "velocity": 100}, {"time": 106078, "pitch": 74, "duration": 120, "velocity": 100}, {"time": 106198, "pitch": 74, "duration": 240, "velocity": 100}, {"time": 106438, "pitch": 74, "duration": 241, "velocity": 100}, {"time": 106679, "pitch": 69, "duration": 120, "velocity": 100}, {"time": 106799, "pitch": 67, "duration": 120, "velocity": 100}, {"time": 106919, "pitch": 65, "duration": 121, "velocity": 100}, {"time": 107040, "pitch": 67, "duration": 120, "velocity": 100}, {"time": 107160, "pitch": 65, "duration": 120, "velocity": 100}, {"time": 107280, "pitch": 67, "duration": 120, "velocity": 100}, {"time": 107400, "pitch": 65, "duration": 121, "velocity": 100}, {"time": 107521, "pitch": 69, "duration": 240, "velocity": 100}, {"time": 108002, "pitch": 67, "duration": 120, "velocity": 100}, {"time": 108122, "pitch": 67, "duration": 241, "velocity": 100}, {"time": 108363, "pitch": 67, "duration": 239, "velocity": 100}, {"time": 108602, "pitch": 65, "duration": 118, "velocity": 100}, {"time": 108720, "pitch": 62, "duration": 119, "velocity": 100}, {"time": 108839, "pitch": 62, "duration": 118, "velocity": 100}, {"time": 108957, "pitch": 65, "duration": 121, "velocity": 100}, {"time": 109078, "pitch": 62, "duration": 120, "velocity": 100}, {"time": 109198, "pitch": 65, "duration": 120, "velocity": 100}, {"time": 109318, "pitch": 67, "duration": 120, "velocity": 100}, {"time": 109438, "pitch": 62, "duration": 241, "velocity": 100}, {"time": 109920, "pitch": 74, "duration": 120, "velocity": 100}, {"time": 110040, "pitch": 74, "duration": 240, "velocity": 100}, {"time": 110280, "pitch": 74, "duration": 241, "velocity": 100}, {"time": 110521, "pitch": 69, "duration": 120, "velocity": 100}, {"time": 110641, "pitch": 67, "duration": 120, "velocity": 100}, {"time": 110761, "pitch": 65, "duration": 121, "velocity": 100}, {"time": 110882, "pitch": 67, "duration": 240, "velocity": 100}, {"time": 111122, "pitch": 65, "duration": 241, "velocity": 100}, {"time": 111363, "pitch": 69, "duration": 237, "velocity": 100}, {"time": 111837, "pitch": 67, "duration": 121, "velocity": 100}, {"time": 111958, "pitch": 67, "duration": 240, "velocity": 100}, {"time": 112198, "pitch": 67, "duration": 241, "velocity": 100}, {"time": 112439, "pitch": 65, "duration": 120, "velocity": 100}, {"time": 112559, "pitch": 62, "duration": 120, "velocity": 100}, {"time": 112679, "pitch": 62, "duration": 120, "velocity": 100}, {"time": 112799, "pitch": 65, "duration": 121, "velocity": 100}, {"time": 112920, "pitch": 62, "duration": 120, "velocity": 100}, {"time": 113040, "pitch": 65, "duration": 120, "velocity": 100}, {"time": 113160, "pitch": 65, "duration": 121, "velocity": 100}, {"time": 113281, "pitch": 62, "duration": 240, "velocity": 100}, {"time": 113762, "pitch": 74, "duration": 120, "velocity": 100}, {"time": 114002, "pitch": 74, "duration": 478, "velocity": 100}, {"time": 115198, "pitch": 67, "duration": 120, "velocity": 100}, {"time": 115439, "pitch": 65, "duration": 120, "velocity": 100}, {"time": 115559, "pitch": 69, "duration": 601, "velocity": 100}, {"time": 117597, "pitch": 74, "duration": 120, "velocity": 100}, {"time": 117838, "pitch": 74, "duration": 481, "velocity": 100}, {"time": 119040, "pitch": 65, "duration": 121, "velocity": 100}, {"time": 119161, "pitch": 67, "duration": 120, "velocity": 100}, {"time": 119281, "pitch": 65, "duration": 120, "velocity": 100}, {"time": 119401, "pitch": 69, "duration": 601, "velocity": 100}, {"time": 121439, "pitch": 67, "duration": 241, "velocity": 100}, {"time": 121800, "pitch": 67, "duration": 120, "velocity": 100}, {"time": 121920, "pitch": 79, "duration": 120, "velocity": 100}, {"time": 122040, "pitch": 67, "duration": 121, "velocity": 100}, {"time": 122161, "pitch": 67, "duration": 120, "velocity": 100}, {"time": 122281, "pitch": 67, "duration": 120, "velocity": 100}, {"time": 122401, "pitch": 69, "duration": 241, "velocity": 100}, {"time": 122642, "pitch": 69, "duration": 120, "velocity": 100}, {"time": 122762, "pitch": 69, "duration": 120, "velocity": 100}, {"time": 122882, "pitch": 71, "duration": 119, "velocity": 100}, {"time": 123001, "pitch": 74, "duration": 356, "velocity": 100}, {"time": 123357, "pitch": 77, "duration": 240, "velocity": 100}, {"time": 123597, "pitch": 77, "duration": 121, "velocity": 100}, {"time": 123718, "pitch": 77, "duration": 962, "velocity": 100}, {"time": 125281, "pitch": 77, "duration": 120, "velocity": 100}, {"time": 125401, "pitch": 74, "duration": 241, "velocity": 100}, {"time": 125642, "pitch": 72, "duration": 240, "velocity": 100}, {"time": 125882, "pitch": 74, "duration": 836, "velocity": 100}, {"time": 127199, "pitch": 67, "duration": 240, "velocity": 100}, {"time": 127560, "pitch": 67, "duration": 120, "velocity": 100}, {"time": 127680, "pitch": 67, "duration": 120, "velocity": 100}, {"time": 127800, "pitch": 65, "duration": 120, "velocity": 100}, {"time": 127920, "pitch": 67, "duration": 121, "velocity": 100}, {"time": 128041, "pitch": 67, "duration": 120, "velocity": 100}, {"time": 128161, "pitch": 69, "duration": 240, "velocity": 100}, {"time": 128401, "pitch": 69, "duration": 121, "velocity": 100}, {"time": 128522, "pitch": 69, "duration": 120, "velocity": 100}, {"time": 128642, "pitch": 71, "duration": 120, "velocity": 100}, {"time": 128762, "pitch": 74, "duration": 361, "velocity": 100}, {"time": 129123, "pitch": 77, "duration": 119, "velocity": 100}, {"time": 129242, "pitch": 77, "duration": 237, "velocity": 100}, {"time": 129479, "pitch": 77, "duration": 720, "velocity": 100}, {"time": 131041, "pitch": 77, "duration": 120, "velocity": 100}, {"time": 131161, "pitch": 77, "duration": 241, "velocity": 100}, {"time": 131402, "pitch": 77, "duration": 957, "velocity": 100}, {"time": 140643, "pitch": 74, "duration": 118, "velocity": 100}, {"time": 140761, "pitch": 74, "duration": 237, "velocity": 100}, {"time": 140998, "pitch": 74, "duration": 239, "velocity": 100}, {"time": 141237, "pitch": 69, "duration": 121, "velocity": 100}, {"time": 141358, "pitch": 67, "duration": 120, "velocity": 100}, {"time": 141478, "pitch": 65, "duration": 120, "velocity": 100}, {"time": 141598, "pitch": 67, "duration": 120, "velocity": 100}, {"time": 141718, "pitch": 65, "duration": 121, "velocity": 100}, {"time": 141839, "pitch": 67, "duration": 120, "velocity": 100}, {"time": 141959, "pitch": 65, "duration": 120, "velocity": 100}, {"time": 142079, "pitch": 69, "duration": 241, "velocity": 100}, {"time": 142560, "pitch": 67, "duration": 121, "velocity": 100}, {"time": 142681, "pitch": 67, "duration": 240, "velocity": 100}, {"time": 142921, "pitch": 67, "duration": 241, "velocity": 100}, {"time": 143162, "pitch": 65, "duration": 120, "velocity": 100}, {"time": 143282, "pitch": 62, "duration": 120, "velocity": 100}, {"time": 143402, "pitch": 62, "duration": 120, "velocity": 100}, {"time": 143522, "pitch": 65, "duration": 119, "velocity": 100}, {"time": 143641, "pitch": 62, "duration": 119, "velocity": 100}, {"time": 143760, "pitch": 65, "duration": 118, "velocity": 100}, {"time": 143878, "pitch": 67, "duration": 119, "velocity": 100}, {"time": 143997, "pitch": 62, "duration": 241, "velocity": 100}, {"time": 144478, "pitch": 74, "duration": 120, "velocity": 100}, {"time": 144598, "pitch": 74, "duration": 241, "velocity": 100}, {"time": 144839, "pitch": 74, "duration": 240, "velocity": 100}, {"time": 145079, "pitch": 69, "duration": 121, "velocity": 100}, {"time": 145200, "pitch": 67, "duration": 120, "velocity": 100}, {"time": 145320, "pitch": 65, "duration": 120, "velocity": 100}, {"time": 145440, "pitch": 67, "duration": 241, "velocity": 100}, {"time": 145681, "pitch": 65, "duration": 240, "velocity": 100}, {"time": 145921, "pitch": 69, "duration": 241, "velocity": 100}, {"time": 146402, "pitch": 65, "duration": 238, "velocity": 100}, {"time": 146640, "pitch": 62, "duration": 118, "velocity": 100}, {"time": 146758, "pitch": 65, "duration": 239, "velocity": 100}, {"time": 146997, "pitch": 62, "duration": 120, "velocity": 100}, {"time": 147117, "pitch": 65, "duration": 121, "velocity": 100}, {"time": 147238, "pitch": 62, "duration": 240, "velocity": 100}, {"time": 147839, "pitch": 62, "duration": 120, "velocity": 100}, {"time": 147959, "pitch": 62, "duration": 121, "velocity": 100}, {"time": 148080, "pitch": 65, "duration": 120, "velocity": 100}, {"time": 148200, "pitch": 62, "duration": 120, "velocity": 100}, {"time": 148320, "pitch": 60, "duration": 481, "velocity": 100}, {"time": 148801, "pitch": 62, "duration": 837, "velocity": 100}], "annotations": [{"time": 283, "annotation": {"number": 7, "value": 100}, "group": "control_change"}, {"time": 305, "annotation": {"number": 11, "value": 100}, "group": "control_change"}, {"time": 326, "annotation": {"number": 10, "value": 64}, "group": "control_change"}, {"time": 348, "annotation": {"number": 91, "value": 40}, "group": "control_change"}, {"time": 370, "annotation": {"number": 93, "value": 0}, "group": "control_change"}, {"time": 392, "annotation": {"number": 101, "value": 0}, "group": "control_change"}, {"time": 413, "annotation": {"number": 100, "value": 0}, "group": "control_change"}, {"time": 435, "annotation": {"number": 6, "value": 12}, "group": "control_change"}, {"time": 457, "annotation": {"number": 101, "value": 127}, "group": "control_change"}, {"time": 479, "annotation": {"number": 100, "value": 127}, "group": "control_change"}]}, {"program": 0, "is_drum": false, "name": "Dis.L.", "annotations": [{"time": 218, "annotation": {"number": 0, "value": 0}, "group": "control_change"}, {"time": 239, "annotation": {"number": 32, "value": 2}, "group": "control_change"}]}, {"program": 30, "is_drum": false, "name": "Dis.L.", "notes": [{"time": 29283, "pitch": 45, "duration": 475, "velocity": 90}, {"time": 29293, "pitch": 50, "duration": 227, "velocity": 110}, {"time": 29520, "pitch": 50, "duration": 238, "velocity": 110}, {"time": 29758, "pitch": 45, "duration": 120, "velocity": 110}, {"time": 29878, "pitch": 48, "duration": 240, "velocity": 110}, {"time": 30118, "pitch": 45, "duration": 81, "velocity": 105}, {"time": 30599, "pitch": 49, "duration": 121, "velocity": 115}, {"time": 30720, "pitch": 50, "duration": 120, "velocity": 110}, {"time": 30840, "pitch": 41, "duration": 361, "velocity": 105}, {"time": 31201, "pitch": 45, "duration": 481, "velocity": 90}, {"time": 31211, "pitch": 50, "duration": 230, "velocity": 110}, {"time": 31441, "pitch": 50, "duration": 241, "velocity": 110}, {"time": 31682, "pitch": 45, "duration": 120, "velocity": 110}, {"time": 31802, "pitch": 48, "duration": 241, "velocity": 110}, {"time": 32043, "pitch": 45, "duration": 80, "velocity": 105}, {"time": 32519, "pitch": 49, "duration": 118, "velocity": 115}, {"time": 32637, "pitch": 50, "duration": 482, "velocity": 110}, {"time": 33119, "pitch": 45, "duration": 481, "velocity": 90}, {"time": 33129, "pitch": 50, "duration": 230, "velocity": 110}, {"time": 33359, "pitch": 50, "duration": 241, "velocity": 110}, {"time": 33600, "pitch": 45, "duration": 120, "velocity": 110}, {"time": 33720, "pitch": 48, "duration": 240, "velocity": 110}, {"time": 33960, "pitch": 45, "duration": 81, "velocity": 105}, {"time": 34441, "pitch": 49, "duration": 121, "velocity": 115}, {"time": 34562, "pitch": 50, "duration": 120, "velocity": 110}, {"time": 34682, "pitch": 41, "duration": 361, "velocity": 105}, {"time": 35043, "pitch": 45, "duration": 474, "velocity": 90}, {"time": 35053, "pitch": 50, "duration": 227, "velocity": 110}, {"time": 35280, "pitch": 50, "duration": 237, "velocity": 110}, {"time": 35517, "pitch": 45, "duration": 121, "velocity": 110}, {"time": 35638, "pitch": 48, "duration": 240, "velocity": 110}, {"time": 35878, "pitch": 45, "duration": 80, "velocity": 105}, {"time": 36359, "pitch": 49, "duration": 120, "velocity": 115}, {"time": 36479, "pitch": 50, "duration": 482, "velocity": 110}, {"time": 36961, "pitch": 45, "duration": 481, "velocity": 90}, {"time": 36971, "pitch": 50, "duration": 230, "velocity": 110}, {"time": 37201, "pitch": 50, "duration": 241, "velocity": 110}, {"time": 37442, "pitch": 45, "duration": 120, "velocity": 110}, {"time": 37562, "pitch": 48, "duration": 240, "velocity": 110}, {"time": 37802, "pitch": 45, "duration": 81, "velocity": 105}, {"time": 38279, "pitch": 49, "duration": 118, "velocity": 115}, {"time": 38397, "pitch": 50, "duration": 120, "velocity": 110}, {"time": 38517, "pitch": 41, "duration": 361, "velocity": 105}, {"time": 38878, "pitch": 45, "duration": 481, "velocity": 90}, {"time": 38888, "pitch": 50, "duration": 231, "velocity": 110}, {"time": 39119, "pitch": 50, "duration": 240, "velocity": 110}, {"time": 39359, "pitch": 45, "duration": 121, "velocity": 110}, {"time": 39480, "pitch": 48, "duration": 240, "velocity": 110}, {"time": 39720, "pitch": 45, "duration": 80, "velocity": 105}, {"time": 40201, "pitch": 49, "duration": 120, "velocity": 115}, {"time": 40321, "pitch": 50, "duration": 482, "velocity": 110}, {"time": 40803, "pitch": 45, "duration": 474, "velocity": 90}, {"time": 40812, "pitch": 50, "duration": 228, "velocity": 110}, {"time": 41040, "pitch": 50, "duration": 237, "velocity": 110}, {"time": 41277, "pitch": 45, "duration": 120, "velocity": 110}, {"time": 41397, "pitch": 48, "duration": 241, "velocity": 110}, {"time": 41638, "pitch": 45, "duration": 80, "velocity": 105}, {"time": 42119, "pitch": 49, "duration": 120, "velocity": 115}, {"time": 42239, "pitch": 50, "duration": 120, "velocity": 110}, {"time": 42359, "pitch": 41, "duration": 361, "velocity": 105}, {"time": 42720, "pitch": 45, "duration": 481, "velocity": 90}, {"time": 42730, "pitch": 50, "duration": 231, "velocity": 110}, {"time": 42961, "pitch": 50, "duration": 240, "velocity": 110}, {"time": 43201, "pitch": 45, "duration": 121, "velocity": 110}, {"time": 43322, "pitch": 48, "duration": 240, "velocity": 110}, {"time": 43562, "pitch": 45, "duration": 80, "velocity": 105}, {"time": 44038, "pitch": 49, "duration": 119, "velocity": 115}, {"time": 44157, "pitch": 50, "duration": 481, "velocity": 110}, {"time": 44638, "pitch": 43, "duration": 371, "velocity": 105}, {"time": 44648, "pitch": 50, "duration": 351, "velocity": 110}, {"time": 44999, "pitch": 50, "duration": 130, "velocity": 95}, {"time": 45009, "pitch": 43, "duration": 110, "velocity": 100}, {"time": 45119, "pitch": 41, "duration": 130, "velocity": 95}, {"time": 45129, "pitch": 48, "duration": 110, "velocity": 100}, {"time": 45239, "pitch": 50, "duration": 371, "velocity": 105}, {"time": 45249, "pitch": 43, "duration": 351, "velocity": 110}, {"time": 45600, "pitch": 45, "duration": 371, "velocity": 105}, {"time": 45610, "pitch": 52, "duration": 351, "velocity": 110}, {"time": 45961, "pitch": 52, "duration": 130, "velocity": 95}, {"time": 45971, "pitch": 45, "duration": 110, "velocity": 100}, {"time": 46081, "pitch": 43, "duration": 131, "velocity": 95}, {"time": 46091, "pitch": 50, "duration": 110, "velocity": 100}, {"time": 46201, "pitch": 52, "duration": 371, "velocity": 105}, {"time": 46212, "pitch": 45, "duration": 350, "velocity": 110}, {"time": 46562, "pitch": 45, "duration": 247, "velocity": 105}, {"time": 46572, "pitch": 50, "duration": 228, "velocity": 110}, {"time": 46800, "pitch": 50, "duration": 247, "velocity": 95}, {"time": 46809, "pitch": 45, "duration": 228, "velocity": 100}, {"time": 47037, "pitch": 43, "duration": 130, "velocity": 95}, {"time": 47047, "pitch": 48, "duration": 110, "velocity": 100}, {"time": 47157, "pitch": 50, "duration": 241, "velocity": 105}, {"time": 47167, "pitch": 45, "duration": 241, "velocity": 110}, {"time": 47398, "pitch": 48, "duration": 130, "velocity": 105}, {"time": 47408, "pitch": 43, "duration": 110, "velocity": 110}, {"time": 47518, "pitch": 43, "duration": 130, "velocity": 105}, {"time": 47528, "pitch": 48, "duration": 110, "velocity": 110}, {"time": 47638, "pitch": 50, "duration": 130, "velocity": 95}, {"time": 47648, "pitch": 45, "duration": 110, "velocity": 100}, {"time": 47758, "pitch": 43, "duration": 251, "velocity": 95}, {"time": 47768, "pitch": 48, "duration": 231, "velocity": 100}, {"time": 47999, "pitch": 50, "duration": 461, "velocity": 105}, {"time": 48009, "pitch": 45, "duration": 451, "velocity": 110}, {"time": 48480, "pitch": 45, "duration": 251, "velocity": 105}, {"time": 48490, "pitch": 50, "duration": 231, "velocity": 110}, {"time": 48721, "pitch": 50, "duration": 250, "velocity": 95}, {"time": 48731, "pitch": 45, "duration": 230, "velocity": 100}, {"time": 48961, "pitch": 43, "duration": 130, "velocity": 95}, {"time": 48971, "pitch": 48, "duration": 110, "velocity": 100}, {"time": 49081, "pitch": 50, "duration": 241, "velocity": 105}, {"time": 49091, "pitch": 45, "duration": 241, "velocity": 110}, {"time": 49322, "pitch": 48, "duration": 130, "velocity": 105}, {"time": 49332, "pitch": 43, "duration": 110, "velocity": 110}, {"time": 49442, "pitch": 43, "duration": 130, "velocity": 105}, {"time": 49452, "pitch": 48, "duration": 110, "velocity": 110}, {"time": 49562, "pitch": 50, "duration": 131, "velocity": 95}, {"time": 49572, "pitch": 45, "duration": 111, "velocity": 100}, {"time": 49683, "pitch": 43, "duration": 250, "velocity": 95}, {"time": 49693, "pitch": 48, "duration": 230, "velocity": 100}, {"time": 49923, "pitch": 50, "duration": 455, "velocity": 105}, {"time": 49933, "pitch": 45, "duration": 445, "velocity": 110}, {"time": 50398, "pitch": 43, "duration": 371, "velocity": 105}, {"time": 50408, "pitch": 50, "duration": 351, "velocity": 110}, {"time": 50759, "pitch": 50, "duration": 130, "velocity": 95}, {"time": 50769, "pitch": 43, "duration": 110, "velocity": 100}, {"time": 50879, "pitch": 41, "duration": 130, "velocity": 95}, {"time": 50889, "pitch": 48, "duration": 110, "velocity": 100}, {"time": 50999, "pitch": 50, "duration": 371, "velocity": 105}, {"time": 51009, "pitch": 43, "duration": 351, "velocity": 110}, {"time": 51360, "pitch": 45, "duration": 371, "velocity": 105}, {"time": 51370, "pitch": 52, "duration": 351, "velocity": 110}, {"time": 51721, "pitch": 52, "duration": 130, "velocity": 95}, {"time": 51731, "pitch": 45, "duration": 110, "velocity": 100}, {"time": 51841, "pitch": 43, "duration": 130, "velocity": 95}, {"time": 51851, "pitch": 50, "duration": 110, "velocity": 100}, {"time": 51961, "pitch": 52, "duration": 371, "velocity": 105}, {"time": 51971, "pitch": 45, "duration": 351, "velocity": 110}, {"time": 52322, "pitch": 45, "duration": 251, "velocity": 105}, {"time": 52332, "pitch": 50, "duration": 231, "velocity": 110}, {"time": 52563, "pitch": 50, "duration": 250, "velocity": 95}, {"time": 52573, "pitch": 45, "duration": 230, "velocity": 100}, {"time": 52803, "pitch": 43, "duration": 129, "velocity": 95}, {"time": 52813, "pitch": 48, "duration": 109, "velocity": 100}, {"time": 52922, "pitch": 50, "duration": 237, "velocity": 105}, {"time": 52932, "pitch": 45, "duration": 237, "velocity": 110}, {"time": 53159, "pitch": 48, "duration": 129, "velocity": 105}, {"time": 53169, "pitch": 43, "duration": 109, "velocity": 110}, {"time": 53278, "pitch": 43, "duration": 130, "velocity": 105}, {"time": 53288, "pitch": 48, "duration": 110, "velocity": 110}, {"time": 53398, "pitch": 50, "duration": 130, "velocity": 95}, {"time": 53408, "pitch": 45, "duration": 110, "velocity": 100}, {"time": 53518, "pitch": 43, "duration": 251, "velocity": 95}, {"time": 53528, "pitch": 48, "duration": 231, "velocity": 100}, {"time": 53759, "pitch": 50, "duration": 461, "velocity": 105}, {"time": 53769, "pitch": 45, "duration": 451, "velocity": 110}, {"time": 54240, "pitch": 45, "duration": 250, "velocity": 105}, {"time": 54250, "pitch": 50, "duration": 230, "velocity": 110}, {"time": 54480, "pitch": 50, "duration": 251, "velocity": 95}, {"time": 54490, "pitch": 45, "duration": 231, "velocity": 100}, {"time": 54721, "pitch": 43, "duration": 130, "velocity": 95}, {"time": 54731, "pitch": 48, "duration": 110, "velocity": 100}, {"time": 54841, "pitch": 50, "duration": 241, "velocity": 105}, {"time": 54851, "pitch": 45, "duration": 241, "velocity": 110}, {"time": 55082, "pitch": 48, "duration": 130, "velocity": 105}, {"time": 55092, "pitch": 43, "duration": 110, "velocity": 110}, {"time": 55202, "pitch": 43, "duration": 130, "velocity": 105}, {"time": 55212, "pitch": 48, "duration": 110, "velocity": 110}, {"time": 55322, "pitch": 50, "duration": 130, "velocity": 95}, {"time": 55332, "pitch": 45, "duration": 110, "velocity": 100}, {"time": 55442, "pitch": 43, "duration": 251, "velocity": 95}, {"time": 55452, "pitch": 48, "duration": 231, "velocity": 100}, {"time": 55683, "pitch": 50, "duration": 455, "velocity": 105}, {"time": 55693, "pitch": 45, "duration": 445, "velocity": 110}, {"time": 59278, "pitch": 45, "duration": 120, "velocity": 105}, {"time": 59288, "pitch": 50, "duration": 110, "velocity": 110}, {"time": 59298, "pitch": 57, "duration": 100, "velocity": 115}, {"time": 59518, "pitch": 57, "duration": 461, "velocity": 115}, {"time": 59528, "pitch": 50, "duration": 451, "velocity": 110}, {"time": 59538, "pitch": 45, "duration": 441, "velocity": 105}, {"time": 63120, "pitch": 45, "duration": 120, "velocity": 105}, {"time": 63130, "pitch": 50, "duration": 110, "velocity": 110}, {"time": 63140, "pitch": 57, "duration": 100, "velocity": 115}, {"time": 63360, "pitch": 57, "duration": 462, "velocity": 115}, {"time": 63370, "pitch": 50, "duration": 452, "velocity": 110}, {"time": 63381, "pitch": 45, "duration": 441, "velocity": 105}, {"time": 63842, "pitch": 45, "duration": 481, "velocity": 90}, {"time": 63852, "pitch": 50, "duration": 230, "velocity": 110}, {"time": 64082, "pitch": 50, "duration": 241, "velocity": 110}, {"time": 64323, "pitch": 45, "duration": 118, "velocity": 110}, {"time": 64441, "pitch": 48, "duration": 238, "velocity": 110}, {"time": 64679, "pitch": 45, "duration": 79, "velocity": 105}, {"time": 65158, "pitch": 49, "duration": 120, "velocity": 115}, {"time": 65278, "pitch": 50, "duration": 120, "velocity": 110}, {"time": 65398, "pitch": 41, "duration": 361, "velocity": 105}, {"time": 65759, "pitch": 45, "duration": 481, "velocity": 90}, {"time": 65769, "pitch": 50, "duration": 231, "velocity": 110}, {"time": 66000, "pitch": 50, "duration": 240, "velocity": 110}, {"time": 66240, "pitch": 45, "duration": 121, "velocity": 110}, {"time": 66361, "pitch": 48, "duration": 240, "velocity": 110}, {"time": 66601, "pitch": 45, "duration": 80, "velocity": 105}, {"time": 67082, "pitch": 49, "duration": 120, "velocity": 115}, {"time": 67202, "pitch": 50, "duration": 475, "velocity": 110}, {"time": 67677, "pitch": 45, "duration": 481, "velocity": 90}, {"time": 67687, "pitch": 50, "duration": 231, "velocity": 110}, {"time": 67918, "pitch": 50, "duration": 240, "velocity": 110}, {"time": 68158, "pitch": 45, "duration": 120, "velocity": 110}, {"time": 68278, "pitch": 48, "duration": 241, "velocity": 110}, {"time": 68519, "pitch": 45, "duration": 80, "velocity": 105}, {"time": 69000, "pitch": 49, "duration": 120, "velocity": 115}, {"time": 69120, "pitch": 50, "duration": 120, "velocity": 110}, {"time": 69240, "pitch": 41, "duration": 361, "velocity": 105}, {"time": 69601, "pitch": 45, "duration": 481, "velocity": 90}, {"time": 69611, "pitch": 50, "duration": 231, "velocity": 110}, {"time": 69842, "pitch": 50, "duration": 240, "velocity": 110}, {"time": 70082, "pitch": 45, "duration": 119, "velocity": 110}, {"time": 70201, "pitch": 48, "duration": 237, "velocity": 110}, {"time": 70438, "pitch": 45, "duration": 79, "velocity": 105}, {"time": 70918, "pitch": 49, "duration": 120, "velocity": 115}, {"time": 71038, "pitch": 50, "duration": 481, "velocity": 110}, {"time": 71519, "pitch": 45, "duration": 481, "velocity": 90}, {"time": 71529, "pitch": 50, "duration": 231, "velocity": 110}, {"time": 71760, "pitch": 50, "duration": 240, "velocity": 110}, {"time": 72000, "pitch": 45, "duration": 120, "velocity": 110}, {"time": 72120, "pitch": 48, "duration": 241, "velocity": 110}, {"time": 72361, "pitch": 45, "duration": 80, "velocity": 105}, {"time": 72842, "pitch": 49, "duration": 120, "velocity": 115}, {"time": 72962, "pitch": 50, "duration": 119, "velocity": 110}, {"time": 73081, "pitch": 41, "duration": 356, "velocity": 105}, {"time": 73437, "pitch": 45, "duration": 481, "velocity": 90}, {"time": 73447, "pitch": 50, "duration": 230, "velocity": 110}, {"time": 73677, "pitch": 50, "duration": 241, "velocity": 110}, {"time": 73918, "pitch": 45, "duration": 120, "velocity": 110}, {"time": 74038, "pitch": 48, "duration": 241, "velocity": 110}, {"time": 74279, "pitch": 45, "duration": 80, "velocity": 105}, {"time": 74760, "pitch": 49, "duration": 120, "velocity": 115}, {"time": 74880, "pitch": 50, "duration": 481, "velocity": 110}, {"time": 75361, "pitch": 45, "duration": 481, "velocity": 90}, {"time": 75371, "pitch": 50, "duration": 231, "velocity": 110}, {"time": 75602, "pitch": 50, "duration": 240, "velocity": 110}, {"time": 75842, "pitch": 45, "duration": 120, "velocity": 110}, {"time": 75962, "pitch": 48, "duration": 241, "velocity": 110}, {"time": 76203, "pitch": 45, "duration": 80, "velocity": 105}, {"time": 76679, "pitch": 49, "duration": 119, "velocity": 115}, {"time": 76798, "pitch": 50, "duration": 120, "velocity": 110}, {"time": 76918, "pitch": 41, "duration": 361, "velocity": 105}, {"time": 77279, "pitch": 45, "duration": 481, "velocity": 90}, {"time": 77289, "pitch": 50, "duration": 230, "velocity": 110}, {"time": 77519, "pitch": 50, "duration": 241, "velocity": 110}, {"time": 77760, "pitch": 45, "duration": 120, "velocity": 110}, {"time": 77880, "pitch": 48, "duration": 241, "velocity": 110}, {"time": 78121, "pitch": 45, "duration": 80, "velocity": 105}, {"time": 78602, "pitch": 49, "duration": 120, "velocity": 115}, {"time": 78722, "pitch": 50, "duration": 481, "velocity": 110}, {"time": 79203, "pitch": 43, "duration": 366, "velocity": 105}, {"time": 79213, "pitch": 50, "duration": 346, "velocity": 110}, {"time": 79559, "pitch": 50, "duration": 129, "velocity": 95}, {"time": 79569, "pitch": 43, "duration": 109, "velocity": 100}, {"time": 79678, "pitch": 41, "duration": 130, "velocity": 95}, {"time": 79688, "pitch": 48, "duration": 110, "velocity": 100}, {"time": 79798, "pitch": 50, "duration": 371, "velocity": 105}, {"time": 79808, "pitch": 43, "duration": 351, "velocity": 110}, {"time": 80159, "pitch": 45, "duration": 370, "velocity": 105}, {"time": 80169, "pitch": 52, "duration": 350, "velocity": 110}, {"time": 80519, "pitch": 52, "duration": 131, "velocity": 95}, {"time": 80529, "pitch": 45, "duration": 111, "velocity": 100}, {"time": 80640, "pitch": 43, "duration": 130, "velocity": 95}, {"time": 80650, "pitch": 50, "duration": 110, "velocity": 100}, {"time": 80760, "pitch": 52, "duration": 371, "velocity": 105}, {"time": 80770, "pitch": 45, "duration": 351, "velocity": 110}, {"time": 81121, "pitch": 45, "duration": 250, "velocity": 105}, {"time": 81131, "pitch": 50, "duration": 230, "velocity": 110}, {"time": 81361, "pitch": 50, "duration": 251, "velocity": 95}, {"time": 81371, "pitch": 45, "duration": 231, "velocity": 100}, {"time": 81602, "pitch": 43, "duration": 130, "velocity": 95}, {"time": 81612, "pitch": 48, "duration": 110, "velocity": 100}, {"time": 81722, "pitch": 50, "duration": 241, "velocity": 105}, {"time": 81732, "pitch": 45, "duration": 241, "velocity": 110}, {"time": 81963, "pitch": 48, "duration": 130, "velocity": 105}, {"time": 81973, "pitch": 43, "duration": 110, "velocity": 110}, {"time": 82083, "pitch": 43, "duration": 128, "velocity": 105}, {"time": 82093, "pitch": 48, "duration": 109, "velocity": 110}, {"time": 82202, "pitch": 50, "duration": 128, "velocity": 95}, {"time": 82211, "pitch": 45, "duration": 109, "velocity": 100}, {"time": 82320, "pitch": 43, "duration": 247, "velocity": 95}, {"time": 82330, "pitch": 48, "duration": 227, "velocity": 100}, {"time": 82557, "pitch": 50, "duration": 461, "velocity": 105}, {"time": 82567, "pitch": 45, "duration": 451, "velocity": 110}, {"time": 83039, "pitch": 45, "duration": 250, "velocity": 105}, {"time": 83049, "pitch": 50, "duration": 230, "velocity": 110}, {"time": 83279, "pitch": 50, "duration": 251, "velocity": 95}, {"time": 83289, "pitch": 45, "duration": 231, "velocity": 100}, {"time": 83520, "pitch": 43, "duration": 130, "velocity": 95}, {"time": 83530, "pitch": 48, "duration": 110, "velocity": 100}, {"time": 83640, "pitch": 50, "duration": 240, "velocity": 105}, {"time": 83650, "pitch": 45, "duration": 240, "velocity": 110}, {"time": 83880, "pitch": 48, "duration": 131, "velocity": 105}, {"time": 83890, "pitch": 43, "duration": 111, "velocity": 110}, {"time": 84001, "pitch": 43, "duration": 130, "velocity": 105}, {"time": 84011, "pitch": 48, "duration": 110, "velocity": 110}, {"time": 84121, "pitch": 50, "duration": 130, "velocity": 95}, {"time": 84131, "pitch": 45, "duration": 110, "velocity": 100}, {"time": 84241, "pitch": 43, "duration": 251, "velocity": 95}, {"time": 84251, "pitch": 48, "duration": 231, "velocity": 100}, {"time": 84482, "pitch": 50, "duration": 461, "velocity": 105}, {"time": 84492, "pitch": 45, "duration": 451, "velocity": 110}, {"time": 84963, "pitch": 43, "duration": 366, "velocity": 105}, {"time": 84973, "pitch": 50, "duration": 346, "velocity": 110}, {"time": 85319, "pitch": 50, "duration": 128, "velocity": 95}, {"time": 85329, "pitch": 43, "duration": 108, "velocity": 100}, {"time": 85437, "pitch": 41, "duration": 131, "velocity": 95}, {"time": 85447, "pitch": 48, "duration": 111, "velocity": 100}, {"time": 85558, "pitch": 50, "duration": 370, "velocity": 105}, {"time": 85568, "pitch": 43, "duration": 350, "velocity": 110}, {"time": 85918, "pitch": 45, "duration": 371, "velocity": 105}, {"time": 85928, "pitch": 52, "duration": 351, "velocity": 110}, {"time": 86279, "pitch": 52, "duration": 130, "velocity": 95}, {"time": 86289, "pitch": 45, "duration": 110, "velocity": 100}, {"time": 86399, "pitch": 43, "duration": 131, "velocity": 95}, {"time": 86409, "pitch": 50, "duration": 111, "velocity": 100}, {"time": 86520, "pitch": 52, "duration": 371, "velocity": 105}, {"time": 86530, "pitch": 45, "duration": 351, "velocity": 110}, {"time": 86881, "pitch": 45, "duration": 250, "velocity": 105}, {"time": 86891, "pitch": 50, "duration": 230, "velocity": 110}, {"time": 87121, "pitch": 50, "duration": 251, "velocity": 95}, {"time": 87131, "pitch": 45, "duration": 231, "velocity": 100}, {"time": 87362, "pitch": 43, "duration": 130, "velocity": 95}, {"time": 87372, "pitch": 48, "duration": 110, "velocity": 100}, {"time": 87482, "pitch": 50, "duration": 240, "velocity": 105}, {"time": 87492, "pitch": 45, "duration": 240, "velocity": 110}, {"time": 87722, "pitch": 48, "duration": 131, "velocity": 105}, {"time": 87732, "pitch": 43, "duration": 111, "velocity": 110}, {"time": 87843, "pitch": 43, "duration": 128, "velocity": 105}, {"time": 87853, "pitch": 48, "duration": 108, "velocity": 110}, {"time": 87961, "pitch": 50, "duration": 129, "velocity": 95}, {"time": 87971, "pitch": 45, "duration": 109, "velocity": 100}, {"time": 88080, "pitch": 43, "duration": 247, "velocity": 95}, {"time": 88090, "pitch": 48, "duration": 227, "velocity": 100}, {"time": 88317, "pitch": 50, "duration": 461, "velocity": 105}, {"time": 88327, "pitch": 45, "duration": 451, "velocity": 110}, {"time": 88798, "pitch": 45, "duration": 251, "velocity": 105}, {"time": 88808, "pitch": 50, "duration": 231, "velocity": 110}, {"time": 89039, "pitch": 50, "duration": 250, "velocity": 95}, {"time": 89049, "pitch": 45, "duration": 230, "velocity": 100}, {"time": 89279, "pitch": 43, "duration": 131, "velocity": 95}, {"time": 89289, "pitch": 48, "duration": 111, "velocity": 100}, {"time": 89400, "pitch": 50, "duration": 240, "velocity": 105}, {"time": 89410, "pitch": 45, "duration": 240, "velocity": 110}, {"time": 89640, "pitch": 48, "duration": 130, "velocity": 105}, {"time": 89650, "pitch": 43, "duration": 110, "velocity": 110}, {"time": 89760, "pitch": 43, "duration": 131, "velocity": 105}, {"time": 89770, "pitch": 48, "duration": 111, "velocity": 110}, {"time": 89881, "pitch": 50, "duration": 130, "velocity": 95}, {"time": 89891, "pitch": 45, "duration": 110, "velocity": 100}, {"time": 90001, "pitch": 43, "duration": 251, "velocity": 95}, {"time": 90011, "pitch": 48, "duration": 231, "velocity": 100}, {"time": 90242, "pitch": 50, "duration": 461, "velocity": 105}, {"time": 90252, "pitch": 45, "duration": 451, "velocity": 110}, {"time": 90723, "pitch": 52, "duration": 118, "velocity": 110}, {"time": 90841, "pitch": 51, "duration": 119, "velocity": 105}, {"time": 90960, "pitch": 50, "duration": 118, "velocity": 110}, {"time": 91078, "pitch": 47, "duration": 239, "velocity": 110}, {"time": 91317, "pitch": 46, "duration": 241, "velocity": 105}, {"time": 91558, "pitch": 45, "duration": 120, "velocity": 110}, {"time": 91678, "pitch": 43, "duration": 241, "velocity": 110}, {"time": 91919, "pitch": 40, "duration": 240, "velocity": 110}, {"time": 92159, "pitch": 52, "duration": 481, "velocity": 105}, {"time": 92640, "pitch": 52, "duration": 121, "velocity": 110}, {"time": 92761, "pitch": 51, "duration": 120, "velocity": 105}, {"time": 92881, "pitch": 50, "duration": 120, "velocity": 110}, {"time": 93001, "pitch": 47, "duration": 241, "velocity": 110}, {"time": 93242, "pitch": 46, "duration": 240, "velocity": 105}, {"time": 93482, "pitch": 45, "duration": 120, "velocity": 110}, {"time": 93602, "pitch": 43, "duration": 238, "velocity": 110}, {"time": 93840, "pitch": 40, "duration": 237, "velocity": 110}, {"time": 94077, "pitch": 52, "duration": 481, "velocity": 105}, {"time": 94558, "pitch": 52, "duration": 120, "velocity": 110}, {"time": 94678, "pitch": 51, "duration": 121, "velocity": 105}, {"time": 94799, "pitch": 50, "duration": 120, "velocity": 110}, {"time": 94919, "pitch": 47, "duration": 240, "velocity": 110}, {"time": 95159, "pitch": 46, "duration": 241, "velocity": 105}, {"time": 95400, "pitch": 45, "duration": 120, "velocity": 110}, {"time": 95520, "pitch": 43, "duration": 241, "velocity": 110}, {"time": 95761, "pitch": 40, "duration": 240, "velocity": 110}, {"time": 96001, "pitch": 52, "duration": 481, "velocity": 105}, {"time": 96482, "pitch": 52, "duration": 119, "velocity": 110}, {"time": 96601, "pitch": 51, "duration": 119, "velocity": 105}, {"time": 96720, "pitch": 50, "duration": 118, "velocity": 110}, {"time": 96838, "pitch": 47, "duration": 239, "velocity": 110}, {"time": 97077, "pitch": 46, "duration": 241, "velocity": 105}, {"time": 97318, "pitch": 45, "duration": 120, "velocity": 110}, {"time": 97438, "pitch": 43, "duration": 240, "velocity": 110}, {"time": 97678, "pitch": 40, "duration": 241, "velocity": 110}, {"time": 97919, "pitch": 52, "duration": 481, "velocity": 105}, {"time": 98400, "pitch": 52, "duration": 120, "velocity": 110}, {"time": 98520, "pitch": 51, "duration": 121, "velocity": 105}, {"time": 98641, "pitch": 50, "duration": 120, "velocity": 110}, {"time": 98761, "pitch": 47, "duration": 240, "velocity": 110}, {"time": 99001, "pitch": 46, "duration": 241, "velocity": 105}, {"time": 99242, "pitch": 45, "duration": 120, "velocity": 110}, {"time": 99362, "pitch": 43, "duration": 241, "velocity": 110}, {"time": 99603, "pitch": 40, "duration": 240, "velocity": 110}, {"time": 99843, "pitch": 52, "duration": 475, "velocity": 105}, {"time": 100318, "pitch": 52, "duration": 120, "velocity": 110}, {"time": 100438, "pitch": 51, "duration": 120, "velocity": 105}, {"time": 100558, "pitch": 50, "duration": 121, "velocity": 110}, {"time": 100679, "pitch": 47, "duration": 240, "velocity": 110}, {"time": 100919, "pitch": 46, "duration": 241, "velocity": 105}, {"time": 101160, "pitch": 45, "duration": 120, "velocity": 110}, {"time": 101280, "pitch": 43, "duration": 240, "velocity": 110}, {"time": 101520, "pitch": 40, "duration": 241, "velocity": 110}, {"time": 101761, "pitch": 52, "duration": 481, "velocity": 105}, {"time": 102242, "pitch": 52, "duration": 120, "velocity": 110}, {"time": 102362, "pitch": 51, "duration": 121, "velocity": 105}, {"time": 102483, "pitch": 50, "duration": 120, "velocity": 110}, {"time": 102603, "pitch": 47, "duration": 239, "velocity": 110}, {"time": 102842, "pitch": 46, "duration": 237, "velocity": 105}, {"time": 103079, "pitch": 45, "duration": 119, "velocity": 110}, {"time": 103198, "pitch": 43, "duration": 240, "velocity": 110}, {"time": 103438, "pitch": 40, "duration": 241, "velocity": 110}, {"time": 103679, "pitch": 52, "duration": 481, "velocity": 105}, {"time": 104160, "pitch": 52, "duration": 120, "velocity": 110}, {"time": 104280, "pitch": 51, "duration": 120, "velocity": 105}, {"time": 104400, "pitch": 50, "duration": 121, "velocity": 110}, {"time": 104521, "pitch": 47, "duration": 240, "velocity": 110}, {"time": 104761, "pitch": 46, "duration": 241, "velocity": 105}, {"time": 105002, "pitch": 45, "duration": 120, "velocity": 110}, {"time": 105122, "pitch": 43, "duration": 240, "velocity": 110}, {"time": 105362, "pitch": 40, "duration": 241, "velocity": 110}, {"time": 105603, "pitch": 52, "duration": 475, "velocity": 105}, {"time": 106078, "pitch": 45, "duration": 481, "velocity": 90}, {"time": 106088, "pitch": 50, "duration": 230, "velocity": 110}, {"time": 106318, "pitch": 50, "duration": 241, "velocity": 110}, {"time": 106559, "pitch": 45, "duration": 120, "velocity": 110}, {"time": 106679, "pitch": 48, "duration": 240, "velocity": 110}, {"time": 106919, "pitch": 45, "duration": 81, "velocity": 105}, {"time": 107400, "pitch": 49, "duration": 121, "velocity": 115}, {"time": 107521, "pitch": 50, "duration": 120, "velocity": 110}, {"time": 107641, "pitch": 41, "duration": 361, "velocity": 105}, {"time": 108002, "pitch": 45, "duration": 481, "velocity": 90}, {"time": 108012, "pitch": 50, "duration": 230, "velocity": 110}, {"time": 108242, "pitch": 50, "duration": 241, "velocity": 110}, {"time": 108483, "pitch": 45, "duration": 119, "velocity": 110}, {"time": 108602, "pitch": 48, "duration": 237, "velocity": 110}, {"time": 108839, "pitch": 45, "duration": 79, "velocity": 105}, {"time": 109318, "pitch": 49, "duration": 120, "velocity": 115}, {"time": 109438, "pitch": 50, "duration": 482, "velocity": 110}, {"time": 109920, "pitch": 45, "duration": 481, "velocity": 90}, {"time": 109930, "pitch": 50, "duration": 230, "velocity": 110}, {"time": 110160, "pitch": 50, "duration": 241, "velocity": 110}, {"time": 110401, "pitch": 45, "duration": 120, "velocity": 110}, {"time": 110521, "pitch": 48, "duration": 240, "velocity": 110}, {"time": 110761, "pitch": 45, "duration": 81, "velocity": 105}, {"time": 111243, "pitch": 49, "duration": 120, "velocity": 115}, {"time": 111363, "pitch": 50, "duration": 118, "velocity": 110}, {"time": 111481, "pitch": 41, "duration": 356, "velocity": 105}, {"time": 111837, "pitch": 45, "duration": 481, "velocity": 90}, {"time": 111847, "pitch": 50, "duration": 231, "velocity": 110}, {"time": 112078, "pitch": 50, "duration": 240, "velocity": 110}, {"time": 112318, "pitch": 45, "duration": 121, "velocity": 110}, {"time": 112439, "pitch": 48, "duration": 240, "velocity": 110}, {"time": 112679, "pitch": 45, "duration": 80, "velocity": 105}, {"time": 113160, "pitch": 49, "duration": 121, "velocity": 115}, {"time": 113281, "pitch": 50, "duration": 481, "velocity": 110}, {"time": 113762, "pitch": 45, "duration": 481, "velocity": 90}, {"time": 113772, "pitch": 50, "duration": 230, "velocity": 110}, {"time": 114002, "pitch": 50, "duration": 241, "velocity": 110}, {"time": 114243, "pitch": 45, "duration": 118, "velocity": 110}, {"time": 114361, "pitch": 48, "duration": 238, "velocity": 110}, {"time": 114599, "pitch": 45, "duration": 79, "velocity": 105}, {"time": 115078, "pitch": 49, "duration": 120, "velocity": 115}, {"time": 115198, "pitch": 50, "duration": 120, "velocity": 110}, {"time": 115318, "pitch": 41, "duration": 361, "velocity": 105}, {"time": 115679, "pitch": 45, "duration": 481, "velocity": 90}, {"time": 115689, "pitch": 50, "duration": 231, "velocity": 110}, {"time": 115920, "pitch": 50, "duration": 240, "velocity": 110}, {"time": 116160, "pitch": 45, "duration": 121, "velocity": 110}, {"time": 116281, "pitch": 48, "duration": 240, "velocity": 110}, {"time": 116521, "pitch": 45, "duration": 80, "velocity": 105}, {"time": 117002, "pitch": 49, "duration": 120, "velocity": 115}, {"time": 117122, "pitch": 50, "duration": 475, "velocity": 110}, {"time": 117597, "pitch": 45, "duration": 481, "velocity": 90}, {"time": 117607, "pitch": 50, "duration": 231, "velocity": 110}, {"time": 117838, "pitch": 50, "duration": 240, "velocity": 110}, {"time": 118078, "pitch": 45, "duration": 120, "velocity": 110}, {"time": 118198, "pitch": 48, "duration": 241, "velocity": 110}, {"time": 118439, "pitch": 45, "duration": 80, "velocity": 105}, {"time": 118920, "pitch": 49, "duration": 120, "velocity": 115}, {"time": 119040, "pitch": 50, "duration": 121, "velocity": 110}, {"time": 119161, "pitch": 41, "duration": 360, "velocity": 105}, {"time": 119521, "pitch": 45, "duration": 481, "velocity": 90}, {"time": 119531, "pitch": 50, "duration": 231, "velocity": 110}, {"time": 119762, "pitch": 50, "duration": 240, "velocity": 110}, {"time": 120002, "pitch": 45, "duration": 119, "velocity": 110}, {"time": 120121, "pitch": 48, "duration": 237, "velocity": 110}, {"time": 120358, "pitch": 45, "duration": 79, "velocity": 105}, {"time": 120838, "pitch": 49, "duration": 120, "velocity": 115}, {"time": 120958, "pitch": 50, "duration": 481, "velocity": 110}, {"time": 121439, "pitch": 43, "duration": 371, "velocity": 105}, {"time": 121449, "pitch": 50, "duration": 351, "velocity": 110}, {"time": 121800, "pitch": 50, "duration": 130, "velocity": 95}, {"time": 121810, "pitch": 43, "duration": 110, "velocity": 100}, {"time": 121920, "pitch": 41, "duration": 130, "velocity": 95}, {"time": 121930, "pitch": 48, "duration": 110, "velocity": 100}, {"time": 122040, "pitch": 50, "duration": 371, "velocity": 105}, {"time": 122050, "pitch": 43, "duration": 351, "velocity": 110}, {"time": 122401, "pitch": 45, "duration": 371, "velocity": 105}, {"time": 122411, "pitch": 52, "duration": 351, "velocity": 110}, {"time": 122762, "pitch": 52, "duration": 130, "velocity": 95}, {"time": 122772, "pitch": 45, "duration": 110, "velocity": 100}, {"time": 122882, "pitch": 43, "duration": 129, "velocity": 95}, {"time": 122892, "pitch": 50, "duration": 109, "velocity": 100}, {"time": 123001, "pitch": 52, "duration": 366, "velocity": 105}, {"time": 123011, "pitch": 45, "duration": 346, "velocity": 110}, {"time": 123357, "pitch": 45, "duration": 250, "velocity": 105}, {"time": 123367, "pitch": 50, "duration": 230, "velocity": 110}, {"time": 123597, "pitch": 50, "duration": 251, "velocity": 95}, {"time": 123607, "pitch": 45, "duration": 231, "velocity": 100}, {"time": 123838, "pitch": 43, "duration": 130, "velocity": 95}, {"time": 123848, "pitch": 48, "duration": 110, "velocity": 100}, {"time": 123958, "pitch": 50, "duration": 241, "velocity": 105}, {"time": 123968, "pitch": 45, "duration": 241, "velocity": 110}, {"time": 124199, "pitch": 48, "duration": 130, "velocity": 105}, {"time": 124209, "pitch": 43, "duration": 110, "velocity": 110}, {"time": 124319, "pitch": 43, "duration": 130, "velocity": 105}, {"time": 124329, "pitch": 48, "duration": 110, "velocity": 110}, {"time": 124439, "pitch": 50, "duration": 130, "velocity": 95}, {"time": 124449, "pitch": 45, "duration": 110, "velocity": 100}, {"time": 124559, "pitch": 43, "duration": 251, "velocity": 95}, {"time": 124569, "pitch": 48, "duration": 231, "velocity": 100}, {"time": 124800, "pitch": 50, "duration": 461, "velocity": 105}, {"time": 124810, "pitch": 45, "duration": 451, "velocity": 110}, {"time": 125281, "pitch": 45, "duration": 251, "velocity": 105}, {"time": 125291, "pitch": 50, "duration": 231, "velocity": 110}, {"time": 125522, "pitch": 50, "duration": 250, "velocity": 95}, {"time": 125532, "pitch": 45, "duration": 230, "velocity": 100}, {"time": 125762, "pitch": 43, "duration": 130, "velocity": 95}, {"time": 125772, "pitch": 48, "duration": 110, "velocity": 100}, {"time": 125882, "pitch": 50, "duration": 241, "velocity": 105}, {"time": 125892, "pitch": 45, "duration": 241, "velocity": 110}, {"time": 126123, "pitch": 48, "duration": 130, "velocity": 105}, {"time": 126133, "pitch": 43, "duration": 110, "velocity": 110}, {"time": 126243, "pitch": 43, "duration": 129, "velocity": 105}, {"time": 126253, "pitch": 48, "duration": 109, "velocity": 110}, {"time": 126362, "pitch": 50, "duration": 128, "velocity": 95}, {"time": 126372, "pitch": 45, "duration": 108, "velocity": 100}, {"time": 126480, "pitch": 43, "duration": 248, "velocity": 95}, {"time": 126490, "pitch": 48, "duration": 228, "velocity": 100}, {"time": 126718, "pitch": 50, "duration": 461, "velocity": 105}, {"time": 126728, "pitch": 45, "duration": 451, "velocity": 110}, {"time": 127199, "pitch": 43, "duration": 371, "velocity": 105}, {"time": 127209, "pitch": 50, "duration": 351, "velocity": 110}, {"time": 127560, "pitch": 50, "duration": 130, "velocity": 95}, {"time": 127570, "pitch": 43, "duration": 110, "velocity": 100}, {"time": 127680, "pitch": 41, "duration": 130, "velocity": 95}, {"time": 127690, "pitch": 48, "duration": 110, "velocity": 100}, {"time": 127800, "pitch": 50, "duration": 371, "velocity": 105}, {"time": 127810, "pitch": 43, "duration": 351, "velocity": 110}, {"time": 128161, "pitch": 45, "duration": 371, "velocity": 105}, {"time": 128171, "pitch": 52, "duration": 351, "velocity": 110}, {"time": 128522, "pitch": 52, "duration": 130, "velocity": 95}, {"time": 128532, "pitch": 45, "duration": 110, "velocity": 100}, {"time": 128642, "pitch": 43, "duration": 130, "velocity": 95}, {"time": 128652, "pitch": 50, "duration": 110, "velocity": 100}, {"time": 128762, "pitch": 52, "duration": 371, "velocity": 105}, {"time": 128772, "pitch": 45, "duration": 351, "velocity": 110}, {"time": 129123, "pitch": 45, "duration": 247, "velocity": 105}, {"time": 129133, "pitch": 50, "duration": 227, "velocity": 110}, {"time": 129360, "pitch": 50, "duration": 248, "velocity": 95}, {"time": 129370, "pitch": 45, "duration": 228, "velocity": 100}, {"time": 129598, "pitch": 43, "duration": 130, "velocity": 95}, {"time": 129608, "pitch": 48, "duration": 110, "velocity": 100}, {"time": 129718, "pitch": 50, "duration": 240, "velocity": 105}, {"time": 129728, "pitch": 45, "duration": 240, "velocity": 110}, {"time": 129958, "pitch": 48, "duration": 131, "velocity": 105}, {"time": 129968, "pitch": 43, "duration": 111, "velocity": 110}, {"time": 130079, "pitch": 43, "duration": 130, "velocity": 105}, {"time": 130089, "pitch": 48, "duration": 110, "velocity": 110}, {"time": 130199, "pitch": 50, "duration": 130, "velocity": 95}, {"time": 130209, "pitch": 45, "duration": 110, "velocity": 100}, {"time": 130319, "pitch": 43, "duration": 251, "velocity": 95}, {"time": 130329, "pitch": 48, "duration": 231, "velocity": 100}, {"time": 130560, "pitch": 50, "duration": 461, "velocity": 105}, {"time": 130570, "pitch": 45, "duration": 451, "velocity": 110}, {"time": 131041, "pitch": 45, "duration": 250, "velocity": 105}, {"time": 131051, "pitch": 50, "duration": 230, "velocity": 110}, {"time": 131281, "pitch": 50, "duration": 251, "velocity": 95}, {"time": 131291, "pitch": 45, "duration": 231, "velocity": 100}, {"time": 131522, "pitch": 43, "duration": 130, "velocity": 95}, {"time": 131532, "pitch": 48, "duration": 110, "velocity": 100}, {"time": 131642, "pitch": 50, "duration": 241, "velocity": 105}, {"time": 131652, "pitch": 45, "duration": 241, "velocity": 110}, {"time": 131883, "pitch": 48, "duration": 130, "velocity": 105}, {"time": 131893, "pitch": 43, "duration": 110, "velocity": 110}, {"time": 132003, "pitch": 43, "duration": 128, "velocity": 105}, {"time": 132013, "pitch": 48, "duration": 109, "velocity": 110}, {"time": 132122, "pitch": 50, "duration": 128, "velocity": 95}, {"time": 132131, "pitch": 45, "duration": 109, "velocity": 100}, {"time": 132240, "pitch": 43, "duration": 248, "velocity": 95}, {"time": 132250, "pitch": 48, "duration": 228, "velocity": 100}, {"time": 132478, "pitch": 50, "duration": 461, "velocity": 105}, {"time": 132488, "pitch": 45, "duration": 451, "velocity": 110}], "annotations": [{"time": 283, "annotation": {"number": 7, "value": 100}, "group": "control_change"}, {"time": 305, "annotation": {"number": 11, "value": 100}, "group": "control_change"}, {"time": 326, "annotation": {"number": 10, "value": 1}, "group": "control_change"}, {"time": 348, "annotation": {"number": 91, "value": 50}, "group": "control_change"}, {"time": 370, "annotation": {"number": 93, "value": 40}, "group": "control_change"}, {"time": 392, "annotation": {"number": 101, "value": 0}, "group": "control_change"}, {"time": 413, "annotation": {"number": 100, "value": 0}, "group": "control_change"}, {"time": 435, "annotation": {"number": 6, "value": 12}, "group": "control_change"}, {"time": 457, "annotation": {"number": 101, "value": 127}, "group": "control_change"}, {"time": 479, "annotation": {"number": 100, "value": 127}, "group": "control_change"}, {"time": 30209, "annotation": {"number": 0, "value": 1}, "group": "control_change"}, {"time": 30219, "annotation": {"number": 32, "value": 2}, "group": "control_change"}, {"time": 30840, "annotation": {"number": 1, "value": 40}, "group": "control_change"}, {"time": 31201, "annotation": {"number": 1, "value": 0}, "group": "control_change"}, {"time": 32133, "annotation": {"number": 0, "value": 1}, "group": "control_change"}, {"time": 32143, "annotation": {"number": 32, "value": 2}, "group": "control_change"}, {"time": 32637, "annotation": {"number": 1, "value": 40}, "group": "control_change"}, {"time": 33119, "annotation": {"number": 1, "value": 0}, "group": "control_change"}, {"time": 34051, "annotation": {"number": 0, "value": 1}, "group": "control_change"}, {"time": 34061, "annotation": {"number": 32, "value": 2}, "group": "control_change"}, {"time": 34682, "annotation": {"number": 1, "value": 40}, "group": "control_change"}, {"time": 35043, "annotation": {"number": 1, "value": 0}, "group": "control_change"}, {"time": 35968, "annotation": {"number": 0, "value": 1}, "group": "control_change"}, {"time": 35978, "annotation": {"number": 32, "value": 2}, "group": "control_change"}, {"time": 36479, "annotation": {"number": 1, "value": 40}, "group": "control_change"}, {"time": 36961, "annotation": {"number": 1, "value": 0}, "group": "control_change"}, {"time": 37893, "annotation": {"number": 0, "value": 1}, "group": "control_change"}, {"time": 37903, "annotation": {"number": 32, "value": 2}, "group": "control_change"}, {"time": 38517, "annotation": {"number": 1, "value": 40}, "group": "control_change"}, {"time": 38878, "annotation": {"number": 1, "value": 0}, "group": "control_change"}, {"time": 39810, "annotation": {"number": 0, "value": 1}, "group": "control_change"}, {"time": 39820, "annotation": {"number": 32, "value": 2}, "group": "control_change"}, {"time": 40321, "annotation": {"number": 1, "value": 40}, "group": "control_change"}, {"time": 40803, "annotation": {"number": 1, "value": 0}, "group": "control_change"}, {"time": 41728, "annotation": {"number": 0, "value": 1}, "group": "control_change"}, {"time": 41738, "annotation": {"number": 32, "value": 2}, "group": "control_change"}, {"time": 42359, "annotation": {"number": 1, "value": 40}, "group": "control_change"}, {"time": 42720, "annotation": {"number": 1, "value": 0}, "group": "control_change"}, {"time": 43652, "annotation": {"number": 0, "value": 1}, "group": "control_change"}, {"time": 43662, "annotation": {"number": 32, "value": 2}, "group": "control_change"}, {"time": 44157, "annotation": {"number": 1, "value": 40}, "group": "control_change"}, {"time": 44638, "annotation": {"number": 1, "value": 0}, "group": "control_change"}, {"time": 64768, "annotation": {"number": 0, "value": 1}, "group": "control_change"}, {"time": 64777, "annotation": {"number": 32, "value": 2}, "group": "control_change"}, {"time": 65398, "annotation": {"number": 1, "value": 40}, "group": "control_change"}, {"time": 65759, "annotation": {"number": 1, "value": 0}, "group": "control_change"}, {"time": 66691, "annotation": {"number": 0, "value": 1}, "group": "control_change"}, {"time": 66701, "annotation": {"number": 32, "value": 2}, "group": "control_change"}, {"time": 67202, "annotation": {"number": 1, "value": 40}, "group": "control_change"}, {"time": 67677, "annotation": {"number": 1, "value": 0}, "group": "control_change"}, {"time": 68609, "annotation": {"number": 0, "value": 1}, "group": "control_change"}, {"time": 68619, "annotation": {"number": 32, "value": 2}, "group": "control_change"}, {"time": 69240, "annotation": {"number": 1, "value": 40}, "group": "control_change"}, {"time": 69601, "annotation": {"number": 1, "value": 0}, "group": "control_change"}, {"time": 70527, "annotation": {"number": 0, "value": 1}, "group": "control_change"}, {"time": 70537, "annotation": {"number": 32, "value": 2}, "group": "control_change"}, {"time": 71038, "annotation": {"number": 1, "value": 40}, "group": "control_change"}, {"time": 71519, "annotation": {"number": 1, "value": 0}, "group": "control_change"}, {"time": 72451, "annotation": {"number": 0, "value": 1}, "group": "control_change"}, {"time": 72461, "annotation": {"number": 32, "value": 2}, "group": "control_change"}, {"time": 73081, "annotation": {"number": 1, "value": 40}, "group": "control_change"}, {"time": 73437, "annotation": {"number": 1, "value": 0}, "group": "control_change"}, {"time": 74369, "annotation": {"number": 0, "value": 1}, "group": "control_change"}, {"time": 74379, "annotation": {"number": 32, "value": 2}, "group": "control_change"}, {"time": 74880, "annotation": {"number": 1, "value": 40}, "group": "control_change"}, {"time": 75361, "annotation": {"number": 1, "value": 0}, "group": "control_change"}, {"time": 76293, "annotation": {"number": 0, "value": 1}, "group": "control_change"}, {"time": 76303, "annotation": {"number": 32, "value": 2}, "group": "control_change"}, {"time": 76918, "annotation": {"number": 1, "value": 40}, "group": "control_change"}, {"time": 77279, "annotation": {"number": 1, "value": 0}, "group": "control_change"}, {"time": 78211, "annotation": {"number": 0, "value": 1}, "group": "control_change"}, {"time": 78221, "annotation": {"number": 32, "value": 2}, "group": "control_change"}, {"time": 78722, "annotation": {"number": 1, "value": 40}, "group": "control_change"}, {"time": 79203, "annotation": {"number": 1, "value": 0}, "group": "control_change"}, {"time": 107010, "annotation": {"number": 0, "value": 1}, "group": "control_change"}, {"time": 107020, "annotation": {"number": 32, "value": 2}, "group": "control_change"}, {"time": 107641, "annotation": {"number": 1, "value": 40}, "group": "control_change"}, {"time": 108002, "annotation": {"number": 1, "value": 0}, "group": "control_change"}, {"time": 108928, "annotation": {"number": 0, "value": 1}, "group": "control_change"}, {"time": 108938, "annotation": {"number": 32, "value": 2}, "group": "control_change"}, {"time": 109438, "annotation": {"number": 1, "value": 40}, "group": "control_change"}, {"time": 109920, "annotation": {"number": 1, "value": 0}, "group": "control_change"}, {"time": 110852, "annotation": {"number": 0, "value": 1}, "group": "control_change"}, {"time": 110862, "annotation": {"number": 32, "value": 2}, "group": "control_change"}, {"time": 111481, "annotation": {"number": 1, "value": 40}, "group": "control_change"}, {"time": 111837, "annotation": {"number": 1, "value": 0}, "group": "control_change"}, {"time": 112769, "annotation": {"number": 0, "value": 1}, "group": "control_change"}, {"time": 112779, "annotation": {"number": 32, "value": 2}, "group": "control_change"}, {"time": 113281, "annotation": {"number": 1, "value": 40}, "group": "control_change"}, {"time": 113762, "annotation": {"number": 1, "value": 0}, "group": "control_change"}, {"time": 114688, "annotation": {"number": 0, "value": 1}, "group": "control_change"}, {"time": 114697, "annotation": {"number": 32, "value": 2}, "group": "control_change"}, {"time": 115318, "annotation": {"number": 1, "value": 40}, "group": "control_change"}, {"time": 115679, "annotation": {"number": 1, "value": 0}, "group": "control_change"}, {"time": 116611, "annotation": {"number": 0, "value": 1}, "group": "control_change"}, {"time": 116621, "annotation": {"number": 32, "value": 2}, "group": "control_change"}, {"time": 117122, "annotation": {"number": 1, "value": 40}, "group": "control_change"}, {"time": 117597, "annotation": {"number": 1, "value": 0}, "group": "control_change"}, {"time": 118529, "annotation": {"number": 0, "value": 1}, "group": "control_change"}, {"time": 118539, "annotation": {"number": 32, "value": 2}, "group": "control_change"}, {"time": 119161, "annotation": {"number": 1, "value": 40}, "group": "control_change"}, {"time": 119521, "annotation": {"number": 1, "value": 0}, "group": "control_change"}, {"time": 120447, "annotation": {"number": 0, "value": 1}, "group": "control_change"}, {"time": 120457, "annotation": {"number": 32, "value": 2}, "group": "control_change"}, {"time": 120958, "annotation": {"number": 1, "value": 40}, "group": "control_change"}, {"time": 121439, "annotation": {"number": 1, "value": 0}, "group": "control_change"}]}, {"program": 28, "is_drum": false, "name": "Dis.L.", "notes": [{"time": 30239, "pitch": 48, "duration": 120, "velocity": 120}, {"time": 30359, "pitch": 45, "duration": 120, "velocity": 115}, {"time": 30479, "pitch": 48, "duration": 120, "velocity": 120}, {"time": 32163, "pitch": 48, "duration": 119, "velocity": 120}, {"time": 32282, "pitch": 45, "duration": 118, "velocity": 115}, {"time": 32400, "pitch": 48, "duration": 119, "velocity": 120}, {"time": 34081, "pitch": 48, "duration": 120, "velocity": 120}, {"time": 34201, "pitch": 45, "duration": 120, "velocity": 115}, {"time": 34321, "pitch": 48, "duration": 120, "velocity": 120}, {"time": 35998, "pitch": 48, "duration": 121, "velocity": 120}, {"time": 36119, "pitch": 45, "duration": 120, "velocity": 115}, {"time": 36239, "pitch": 48, "duration": 120, "velocity": 120}, {"time": 37923, "pitch": 48, "duration": 118, "velocity": 120}, {"time": 38041, "pitch": 45, "duration": 119, "velocity": 115}, {"time": 38160, "pitch": 48, "duration": 119, "velocity": 120}, {"time": 39840, "pitch": 48, "duration": 121, "velocity": 120}, {"time": 39961, "pitch": 45, "duration": 120, "velocity": 115}, {"time": 40081, "pitch": 48, "duration": 120, "velocity": 120}, {"time": 41758, "pitch": 48, "duration": 120, "velocity": 120}, {"time": 41878, "pitch": 45, "duration": 121, "velocity": 115}, {"time": 41999, "pitch": 48, "duration": 120, "velocity": 120}, {"time": 43682, "pitch": 48, "duration": 119, "velocity": 120}, {"time": 43801, "pitch": 45, "duration": 119, "velocity": 115}, {"time": 43920, "pitch": 48, "duration": 118, "velocity": 120}, {"time": 64797, "pitch": 48, "duration": 120, "velocity": 120}, {"time": 64917, "pitch": 45, "duration": 121, "velocity": 115}, {"time": 65038, "pitch": 48, "duration": 120, "velocity": 120}, {"time": 66721, "pitch": 48, "duration": 121, "velocity": 120}, {"time": 66842, "pitch": 45, "duration": 120, "velocity": 115}, {"time": 66962, "pitch": 48, "duration": 120, "velocity": 120}, {"time": 68639, "pitch": 48, "duration": 120, "velocity": 120}, {"time": 68759, "pitch": 45, "duration": 121, "velocity": 115}, {"time": 68880, "pitch": 48, "duration": 120, "velocity": 120}, {"time": 70557, "pitch": 48, "duration": 120, "velocity": 120}, {"time": 70677, "pitch": 45, "duration": 120, "velocity": 115}, {"time": 70797, "pitch": 48, "duration": 121, "velocity": 120}, {"time": 72481, "pitch": 48, "duration": 120, "velocity": 120}, {"time": 72601, "pitch": 45, "duration": 121, "velocity": 115}, {"time": 72722, "pitch": 48, "duration": 120, "velocity": 120}, {"time": 74399, "pitch": 48, "duration": 120, "velocity": 120}, {"time": 74519, "pitch": 45, "duration": 120, "velocity": 115}, {"time": 74639, "pitch": 48, "duration": 121, "velocity": 120}, {"time": 76323, "pitch": 48, "duration": 119, "velocity": 120}, {"time": 76442, "pitch": 45, "duration": 118, "velocity": 115}, {"time": 76560, "pitch": 48, "duration": 119, "velocity": 120}, {"time": 78241, "pitch": 48, "duration": 120, "velocity": 120}, {"time": 78361, "pitch": 45, "duration": 120, "velocity": 115}, {"time": 78481, "pitch": 48, "duration": 121, "velocity": 120}, {"time": 107040, "pitch": 48, "duration": 120, "velocity": 120}, {"time": 107160, "pitch": 45, "duration": 120, "velocity": 115}, {"time": 107280, "pitch": 48, "duration": 120, "velocity": 120}, {"time": 108957, "pitch": 48, "duration": 121, "velocity": 120}, {"time": 109078, "pitch": 45, "duration": 120, "velocity": 115}, {"time": 109198, "pitch": 48, "duration": 120, "velocity": 120}, {"time": 110882, "pitch": 48, "duration": 120, "velocity": 120}, {"time": 111002, "pitch": 45, "duration": 120, "velocity": 115}, {"time": 111122, "pitch": 48, "duration": 121, "velocity": 120}, {"time": 112799, "pitch": 48, "duration": 121, "velocity": 120}, {"time": 112920, "pitch": 45, "duration": 120, "velocity": 115}, {"time": 113040, "pitch": 48, "duration": 120, "velocity": 120}, {"time": 114717, "pitch": 48, "duration": 120, "velocity": 120}, {"time": 114837, "pitch": 45, "duration": 121, "velocity": 115}, {"time": 114958, "pitch": 48, "duration": 120, "velocity": 120}, {"time": 116641, "pitch": 48, "duration": 121, "velocity": 120}, {"time": 116762, "pitch": 45, "duration": 120, "velocity": 115}, {"time": 116882, "pitch": 48, "duration": 120, "velocity": 120}, {"time": 118559, "pitch": 48, "duration": 120, "velocity": 120}, {"time": 118679, "pitch": 45, "duration": 121, "velocity": 115}, {"time": 118800, "pitch": 48, "duration": 120, "velocity": 120}, {"time": 120477, "pitch": 48, "duration": 120, "velocity": 120}, {"time": 120597, "pitch": 45, "duration": 120, "velocity": 115}, {"time": 120717, "pitch": 48, "duration": 121, "velocity": 120}], "annotations": [{"time": 30690, "annotation": {"number": 0, "value": 0}, "group": "control_change"}, {"time": 30700, "annotation": {"number": 32, "value": 2}, "group": "control_change"}, {"time": 32608, "annotation": {"number": 0, "value": 0}, "group": "control_change"}, {"time": 32618, "annotation": {"number": 32, "value": 2}, "group": "control_change"}, {"time": 34532, "annotation": {"number": 0, "value": 0}, "group": "control_change"}, {"time": 34542, "annotation": {"number": 32, "value": 2}, "group": "control_change"}, {"time": 36449, "annotation": {"number": 0, "value": 0}, "group": "control_change"}, {"time": 36459, "annotation": {"number": 32, "value": 2}, "group": "control_change"}, {"time": 38368, "annotation": {"number": 0, "value": 0}, "group": "control_change"}, {"time": 38377, "annotation": {"number": 32, "value": 2}, "group": "control_change"}, {"time": 40291, "annotation": {"number": 0, "value": 0}, "group": "control_change"}, {"time": 40301, "annotation": {"number": 32, "value": 2}, "group": "control_change"}, {"time": 42209, "annotation": {"number": 0, "value": 0}, "group": "control_change"}, {"time": 42219, "annotation": {"number": 32, "value": 2}, "group": "control_change"}, {"time": 44127, "annotation": {"number": 0, "value": 0}, "group": "control_change"}, {"time": 44137, "annotation": {"number": 32, "value": 2}, "group": "control_change"}, {"time": 65248, "annotation": {"number": 0, "value": 0}, "group": "control_change"}, {"time": 65258, "annotation": {"number": 32, "value": 2}, "group": "control_change"}, {"time": 67172, "annotation": {"number": 0, "value": 0}, "group": "control_change"}, {"time": 67182, "annotation": {"number": 32, "value": 2}, "group": "control_change"}, {"time": 69090, "annotation": {"number": 0, "value": 0}, "group": "control_change"}, {"time": 69100, "annotation": {"number": 32, "value": 2}, "group": "control_change"}, {"time": 71008, "annotation": {"number": 0, "value": 0}, "group": "control_change"}, {"time": 71018, "annotation": {"number": 32, "value": 2}, "group": "control_change"}, {"time": 72932, "annotation": {"number": 0, "value": 0}, "group": "control_change"}, {"time": 72942, "annotation": {"number": 32, "value": 2}, "group": "control_change"}, {"time": 74850, "annotation": {"number": 0, "value": 0}, "group": "control_change"}, {"time": 74860, "annotation": {"number": 32, "value": 2}, "group": "control_change"}, {"time": 76768, "annotation": {"number": 0, "value": 0}, "group": "control_change"}, {"time": 76778, "annotation": {"number": 32, "value": 2}, "group": "control_change"}, {"time": 78692, "annotation": {"number": 0, "value": 0}, "group": "control_change"}, {"time": 78702, "annotation": {"number": 32, "value": 2}, "group": "control_change"}, {"time": 107491, "annotation": {"number": 0, "value": 0}, "group": "control_change"}, {"time": 107501, "annotation": {"number": 32, "value": 2}, "group": "control_change"}, {"time": 109408, "annotation": {"number": 0, "value": 0}, "group": "control_change"}, {"time": 109418, "annotation": {"number": 32, "value": 2}, "group": "control_change"}, {"time": 111333, "annotation": {"number": 0, "value": 0}, "group": "control_change"}, {"time": 111343, "annotation": {"number": 32, "value": 2}, "group": "control_change"}, {"time": 113250, "annotation": {"number": 0, "value": 0}, "group": "control_change"}, {"time": 113260, "annotation": {"number": 32, "value": 2}, "group": "control_change"}, {"time": 115168, "annotation": {"number": 0, "value": 0}, "group": "control_change"}, {"time": 115178, "annotation": {"number": 32, "value": 2}, "group": "control_change"}, {"time": 117092, "annotation": {"number": 0, "value": 0}, "group": "control_change"}, {"time": 117102, "annotation": {"number": 32, "value": 2}, "group": "control_change"}, {"time": 119010, "annotation": {"number": 0, "value": 0}, "group": "control_change"}, {"time": 119020, "annotation": {"number": 32, "value": 2}, "group": "control_change"}, {"time": 120928, "annotation": {"number": 0, "value": 0}, "group": "control_change"}, {"time": 120938, "annotation": {"number": 32, "value": 2}, "group": "control_change"}]}, {"program": 0, "is_drum": false, "name": "Dis.R.", "annotations": [{"time": 218, "annotation": {"number": 0, "value": 0}, "group": "control_change"}, {"time": 239, "annotation": {"number": 32, "value": 2}, "group": "control_change"}]}, {"program": 30, "is_drum": false, "name": "Dis.R.", "notes": [{"time": 29283, "pitch": 45, "duration": 475, "velocity": 90}, {"time": 29293, "pitch": 50, "duration": 227, "velocity": 110}, {"time": 29520, "pitch": 50, "duration": 238, "velocity": 110}, {"time": 29758, "pitch": 45, "duration": 120, "velocity": 110}, {"time": 29878, "pitch": 48, "duration": 240, "velocity": 110}, {"time": 30118, "pitch": 45, "duration": 121, "velocity": 105}, {"time": 30239, "pitch": 48, "duration": 30, "velocity": 120}, {"time": 30359, "pitch": 45, "duration": 30, "velocity": 115}, {"time": 30479, "pitch": 48, "duration": 30, "velocity": 120}, {"time": 30599, "pitch": 49, "duration": 30, "velocity": 115}, {"time": 30720, "pitch": 50, "duration": 120, "velocity": 110}, {"time": 30840, "pitch": 41, "duration": 361, "velocity": 105}, {"time": 31201, "pitch": 45, "duration": 481, "velocity": 90}, {"time": 31211, "pitch": 50, "duration": 230, "velocity": 110}, {"time": 31441, "pitch": 50, "duration": 241, "velocity": 110}, {"time": 31682, "pitch": 45, "duration": 120, "velocity": 110}, {"time": 31802, "pitch": 48, "duration": 241, "velocity": 110}, {"time": 32043, "pitch": 45, "duration": 120, "velocity": 105}, {"time": 32163, "pitch": 48, "duration": 30, "velocity": 120}, {"time": 32282, "pitch": 45, "duration": 29, "velocity": 115}, {"time": 32400, "pitch": 48, "duration": 30, "velocity": 120}, {"time": 32519, "pitch": 49, "duration": 29, "velocity": 115}, {"time": 32637, "pitch": 50, "duration": 482, "velocity": 110}, {"time": 33119, "pitch": 45, "duration": 481, "velocity": 90}, {"time": 33129, "pitch": 50, "duration": 230, "velocity": 110}, {"time": 33359, "pitch": 50, "duration": 241, "velocity": 110}, {"time": 33600, "pitch": 45, "duration": 120, "velocity": 110}, {"time": 33720, "pitch": 48, "duration": 240, "velocity": 110}, {"time": 33960, "pitch": 45, "duration": 121, "velocity": 105}, {"time": 34081, "pitch": 48, "duration": 30, "velocity": 120}, {"time": 34201, "pitch": 45, "duration": 30, "velocity": 115}, {"time": 34321, "pitch": 48, "duration": 30, "velocity": 120}, {"time": 34441, "pitch": 49, "duration": 31, "velocity": 115}, {"time": 34562, "pitch": 50, "duration": 120, "velocity": 110}, {"time": 34682, "pitch": 41, "duration": 361, "velocity": 105}, {"time": 35043, "pitch": 45, "duration": 474, "velocity": 90}, {"time": 35053, "pitch": 50, "duration": 227, "velocity": 110}, {"time": 35280, "pitch": 50, "duration": 237, "velocity": 110}, {"time": 35517, "pitch": 45, "duration": 121, "velocity": 110}, {"time": 35638, "pitch": 48, "duration": 240, "velocity": 110}, {"time": 35878, "pitch": 45, "duration": 120, "velocity": 105}, {"time": 35998, "pitch": 48, "duration": 30, "velocity": 120}, {"time": 36119, "pitch": 45, "duration": 30, "velocity": 115}, {"time": 36239, "pitch": 48, "duration": 30, "velocity": 120}, {"time": 36359, "pitch": 49, "duration": 30, "velocity": 115}, {"time": 36479, "pitch": 50, "duration": 482, "velocity": 110}, {"time": 36961, "pitch": 45, "duration": 481, "velocity": 90}, {"time": 36971, "pitch": 50, "duration": 230, "velocity": 110}, {"time": 37201, "pitch": 50, "duration": 241, "velocity": 110}, {"time": 37442, "pitch": 45, "duration": 120, "velocity": 110}, {"time": 37562, "pitch": 48, "duration": 240, "velocity": 110}, {"time": 37802, "pitch": 45, "duration": 121, "velocity": 105}, {"time": 37923, "pitch": 48, "duration": 29, "velocity": 120}, {"time": 38041, "pitch": 45, "duration": 30, "velocity": 115}, {"time": 38160, "pitch": 48, "duration": 30, "velocity": 120}, {"time": 38279, "pitch": 49, "duration": 29, "velocity": 115}, {"time": 38397, "pitch": 50, "duration": 120, "velocity": 110}, {"time": 38517, "pitch": 41, "duration": 361, "velocity": 105}, {"time": 38878, "pitch": 45, "duration": 481, "velocity": 90}, {"time": 38888, "pitch": 50, "duration": 231, "velocity": 110}, {"time": 39119, "pitch": 50, "duration": 240, "velocity": 110}, {"time": 39359, "pitch": 45, "duration": 121, "velocity": 110}, {"time": 39480, "pitch": 48, "duration": 240, "velocity": 110}, {"time": 39720, "pitch": 45, "duration": 120, "velocity": 105}, {"time": 39840, "pitch": 48, "duration": 30, "velocity": 120}, {"time": 39961, "pitch": 45, "duration": 30, "velocity": 115}, {"time": 40081, "pitch": 48, "duration": 30, "velocity": 120}, {"time": 40201, "pitch": 49, "duration": 30, "velocity": 115}, {"time": 40321, "pitch": 50, "duration": 482, "velocity": 110}, {"time": 40803, "pitch": 45, "duration": 474, "velocity": 90}, {"time": 40812, "pitch": 50, "duration": 228, "velocity": 110}, {"time": 41040, "pitch": 50, "duration": 237, "velocity": 110}, {"time": 41277, "pitch": 45, "duration": 120, "velocity": 110}, {"time": 41397, "pitch": 48, "duration": 241, "velocity": 110}, {"time": 41638, "pitch": 45, "duration": 120, "velocity": 105}, {"time": 41758, "pitch": 48, "duration": 30, "velocity": 120}, {"time": 41878, "pitch": 45, "duration": 30, "velocity": 115}, {"time": 41999, "pitch": 48, "duration": 30, "velocity": 120}, {"time": 42119, "pitch": 49, "duration": 30, "velocity": 115}, {"time": 42239, "pitch": 50, "duration": 120, "velocity": 110}, {"time": 42359, "pitch": 41, "duration": 361, "velocity": 105}, {"time": 42720, "pitch": 45, "duration": 481, "velocity": 90}, {"time": 42730, "pitch": 50, "duration": 231, "velocity": 110}, {"time": 42961, "pitch": 50, "duration": 240, "velocity": 110}, {"time": 43201, "pitch": 45, "duration": 121, "velocity": 110}, {"time": 43322, "pitch": 48, "duration": 240, "velocity": 110}, {"time": 43562, "pitch": 45, "duration": 120, "velocity": 105}, {"time": 43682, "pitch": 48, "duration": 30, "velocity": 120}, {"time": 43801, "pitch": 45, "duration": 30, "velocity": 115}, {"time": 43920, "pitch": 48, "duration": 29, "velocity": 120}, {"time": 44038, "pitch": 49, "duration": 30, "velocity": 115}, {"time": 44157, "pitch": 50, "duration": 481, "velocity": 110}, {"time": 44638, "pitch": 43, "duration": 371, "velocity": 105}, {"time": 44648, "pitch": 50, "duration": 351, "velocity": 110}, {"time": 44999, "pitch": 50, "duration": 130, "velocity": 95}, {"time": 45009, "pitch": 43, "duration": 110, "velocity": 100}, {"time": 45119, "pitch": 41, "duration": 130, "velocity": 95}, {"time": 45129, "pitch": 48, "duration": 110, "velocity": 100}, {"time": 45239, "pitch": 50, "duration": 371, "velocity": 105}, {"time": 45249, "pitch": 43, "duration": 351, "velocity": 110}, {"time": 45600, "pitch": 45, "duration": 371, "velocity": 105}, {"time": 45610, "pitch": 52, "duration": 351, "velocity": 110}, {"time": 45961, "pitch": 52, "duration": 130, "velocity": 95}, {"time": 45971, "pitch": 45, "duration": 110, "velocity": 100}, {"time": 46081, "pitch": 43, "duration": 131, "velocity": 95}, {"time": 46091, "pitch": 50, "duration": 110, "velocity": 100}, {"time": 46201, "pitch": 52, "duration": 371, "velocity": 105}, {"time": 46212, "pitch": 45, "duration": 350, "velocity": 110}, {"time": 46562, "pitch": 45, "duration": 247, "velocity": 105}, {"time": 46572, "pitch": 50, "duration": 228, "velocity": 110}, {"time": 46582, "pitch": 57, "duration": 218, "velocity": 110}, {"time": 46800, "pitch": 57, "duration": 247, "velocity": 110}, {"time": 46809, "pitch": 50, "duration": 228, "velocity": 95}, {"time": 46819, "pitch": 45, "duration": 218, "velocity": 100}, {"time": 47037, "pitch": 48, "duration": 130, "velocity": 95}, {"time": 47047, "pitch": 55, "duration": 110, "velocity": 100}, {"time": 47157, "pitch": 57, "duration": 241, "velocity": 105}, {"time": 47167, "pitch": 50, "duration": 241, "velocity": 110}, {"time": 47398, "pitch": 55, "duration": 130, "velocity": 105}, {"time": 47408, "pitch": 48, "duration": 110, "velocity": 110}, {"time": 47518, "pitch": 48, "duration": 130, "velocity": 105}, {"time": 47528, "pitch": 55, "duration": 110, "velocity": 110}, {"time": 47638, "pitch": 57, "duration": 130, "velocity": 95}, {"time": 47648, "pitch": 50, "duration": 110, "velocity": 100}, {"time": 47758, "pitch": 48, "duration": 251, "velocity": 95}, {"time": 47768, "pitch": 55, "duration": 231, "velocity": 100}, {"time": 47999, "pitch": 57, "duration": 461, "velocity": 105}, {"time": 48009, "pitch": 50, "duration": 451, "velocity": 110}, {"time": 48480, "pitch": 45, "duration": 251, "velocity": 105}, {"time": 48490, "pitch": 50, "duration": 231, "velocity": 110}, {"time": 48500, "pitch": 57, "duration": 221, "velocity": 110}, {"time": 48721, "pitch": 57, "duration": 250, "velocity": 110}, {"time": 48731, "pitch": 50, "duration": 230, "velocity": 95}, {"time": 48741, "pitch": 45, "duration": 220, "velocity": 100}, {"time": 48961, "pitch": 48, "duration": 130, "velocity": 95}, {"time": 48971, "pitch": 55, "duration": 110, "velocity": 100}, {"time": 49081, "pitch": 57, "duration": 241, "velocity": 105}, {"time": 49091, "pitch": 50, "duration": 241, "velocity": 110}, {"time": 49322, "pitch": 55, "duration": 130, "velocity": 105}, {"time": 49332, "pitch": 48, "duration": 110, "velocity": 110}, {"time": 49442, "pitch": 48, "duration": 130, "velocity": 105}, {"time": 49452, "pitch": 55, "duration": 110, "velocity": 110}, {"time": 49562, "pitch": 57, "duration": 131, "velocity": 95}, {"time": 49572, "pitch": 50, "duration": 111, "velocity": 100}, {"time": 49683, "pitch": 48, "duration": 250, "velocity": 95}, {"time": 49693, "pitch": 55, "duration": 230, "velocity": 100}, {"time": 49923, "pitch": 57, "duration": 455, "velocity": 105}, {"time": 49933, "pitch": 50, "duration": 445, "velocity": 110}, {"time": 50398, "pitch": 43, "duration": 371, "velocity": 105}, {"time": 50408, "pitch": 50, "duration": 351, "velocity": 110}, {"time": 50759, "pitch": 50, "duration": 130, "velocity": 95}, {"time": 50769, "pitch": 43, "duration": 110, "velocity": 100}, {"time": 50879, "pitch": 41, "duration": 130, "velocity": 95}, {"time": 50889, "pitch": 48, "duration": 110, "velocity": 100}, {"time": 50999, "pitch": 50, "duration": 371, "velocity": 105}, {"time": 51009, "pitch": 43, "duration": 351, "velocity": 110}, {"time": 51360, "pitch": 45, "duration": 371, "velocity": 105}, {"time": 51370, "pitch": 52, "duration": 351, "velocity": 110}, {"time": 51721, "pitch": 52, "duration": 130, "velocity": 95}, {"time": 51731, "pitch": 45, "duration": 110, "velocity": 100}, {"time": 51841, "pitch": 43, "duration": 130, "velocity": 95}, {"time": 51851, "pitch": 50, "duration": 110, "velocity": 100}, {"time": 51961, "pitch": 52, "duration": 371, "velocity": 105}, {"time": 51971, "pitch": 45, "duration": 351, "velocity": 110}, {"time": 52322, "pitch": 45, "duration": 251, "velocity": 105}, {"time": 52332, "pitch": 50, "duration": 231, "velocity": 110}, {"time": 52342, "pitch": 57, "duration": 221, "velocity": 110}, {"time": 52563, "pitch": 57, "duration": 250, "velocity": 110}, {"time": 52573, "pitch": 50, "duration": 230, "velocity": 95}, {"time": 52583, "pitch": 45, "duration": 230, "velocity": 100}, {"time": 52803, "pitch": 48, "duration": 129, "velocity": 95}, {"time": 52813, "pitch": 55, "duration": 109, "velocity": 100}, {"time": 52922, "pitch": 57, "duration": 237, "velocity": 105}, {"time": 52932, "pitch": 50, "duration": 237, "velocity": 110}, {"time": 53159, "pitch": 55, "duration": 129, "velocity": 105}, {"time": 53169, "pitch": 48, "duration": 109, "velocity": 110}, {"time": 53278, "pitch": 48, "duration": 130, "velocity": 105}, {"time": 53288, "pitch": 55, "duration": 110, "velocity": 110}, {"time": 53398, "pitch": 57, "duration": 130, "velocity": 95}, {"time": 53408, "pitch": 50, "duration": 110, "velocity": 100}, {"time": 53518, "pitch": 48, "duration": 251, "velocity": 95}, {"time": 53528, "pitch": 55, "duration": 231, "velocity": 100}, {"time": 53759, "pitch": 57, "duration": 461, "velocity": 105}, {"time": 53769, "pitch": 50, "duration": 451, "velocity": 110}, {"time": 54240, "pitch": 45, "duration": 250, "velocity": 105}, {"time": 54250, "pitch": 50, "duration": 230, "velocity": 110}, {"time": 54260, "pitch": 57, "duration": 220, "velocity": 110}, {"time": 54480, "pitch": 57, "duration": 251, "velocity": 110}, {"time": 54490, "pitch": 50, "duration": 231, "velocity": 95}, {"time": 54500, "pitch": 45, "duration": 221, "velocity": 100}, {"time": 54721, "pitch": 48, "duration": 130, "velocity": 95}, {"time": 54731, "pitch": 55, "duration": 110, "velocity": 100}, {"time": 54841, "pitch": 57, "duration": 241, "velocity": 105}, {"time": 54851, "pitch": 50, "duration": 241, "velocity": 110}, {"time": 55082, "pitch": 55, "duration": 130, "velocity": 105}, {"time": 55092, "pitch": 48, "duration": 110, "velocity": 110}, {"time": 55202, "pitch": 48, "duration": 130, "velocity": 105}, {"time": 55212, "pitch": 55, "duration": 110, "velocity": 110}, {"time": 55322, "pitch": 57, "duration": 130, "velocity": 95}, {"time": 55332, "pitch": 50, "duration": 110, "velocity": 100}, {"time": 55442, "pitch": 48, "duration": 251, "velocity": 95}, {"time": 55452, "pitch": 55, "duration": 231, "velocity": 100}, {"time": 55683, "pitch": 57, "duration": 455, "velocity": 105}, {"time": 55693, "pitch": 50, "duration": 445, "velocity": 110}, {"time": 59278, "pitch": 45, "duration": 120, "velocity": 105}, {"time": 59288, "pitch": 50, "duration": 110, "velocity": 110}, {"time": 59298, "pitch": 57, "duration": 100, "velocity": 115}, {"time": 59518, "pitch": 57, "duration": 461, "velocity": 115}, {"time": 59528, "pitch": 50, "duration": 451, "velocity": 110}, {"time": 59538, "pitch": 45, "duration": 441, "velocity": 105}, {"time": 63120, "pitch": 45, "duration": 120, "velocity": 105}, {"time": 63130, "pitch": 50, "duration": 110, "velocity": 110}, {"time": 63140, "pitch": 57, "duration": 100, "velocity": 115}, {"time": 63360, "pitch": 57, "duration": 462, "velocity": 115}, {"time": 63370, "pitch": 50, "duration": 452, "velocity": 110}, {"time": 63381, "pitch": 45, "duration": 441, "velocity": 105}, {"time": 63842, "pitch": 45, "duration": 481, "velocity": 90}, {"time": 63852, "pitch": 50, "duration": 230, "velocity": 110}, {"time": 64082, "pitch": 50, "duration": 241, "velocity": 110}, {"time": 64323, "pitch": 45, "duration": 118, "velocity": 110}, {"time": 64441, "pitch": 48, "duration": 238, "velocity": 110}, {"time": 64679, "pitch": 45, "duration": 118, "velocity": 105}, {"time": 64797, "pitch": 48, "duration": 30, "velocity": 120}, {"time": 64917, "pitch": 45, "duration": 30, "velocity": 115}, {"time": 65038, "pitch": 48, "duration": 30, "velocity": 120}, {"time": 65158, "pitch": 49, "duration": 30, "velocity": 115}, {"time": 65278, "pitch": 50, "duration": 120, "velocity": 110}, {"time": 65398, "pitch": 41, "duration": 361, "velocity": 105}, {"time": 65759, "pitch": 45, "duration": 481, "velocity": 90}, {"time": 65769, "pitch": 50, "duration": 231, "velocity": 110}, {"time": 66000, "pitch": 50, "duration": 240, "velocity": 110}, {"time": 66240, "pitch": 45, "duration": 121, "velocity": 110}, {"time": 66361, "pitch": 48, "duration": 240, "velocity": 110}, {"time": 66601, "pitch": 45, "duration": 120, "velocity": 105}, {"time": 66721, "pitch": 48, "duration": 30, "velocity": 120}, {"time": 66842, "pitch": 45, "duration": 30, "velocity": 115}, {"time": 66962, "pitch": 48, "duration": 30, "velocity": 120}, {"time": 67082, "pitch": 49, "duration": 30, "velocity": 115}, {"time": 67202, "pitch": 50, "duration": 475, "velocity": 110}, {"time": 67677, "pitch": 45, "duration": 481, "velocity": 90}, {"time": 67687, "pitch": 50, "duration": 231, "velocity": 110}, {"time": 67918, "pitch": 50, "duration": 240, "velocity": 110}, {"time": 68158, "pitch": 45, "duration": 120, "velocity": 110}, {"time": 68278, "pitch": 48, "duration": 241, "velocity": 110}, {"time": 68519, "pitch": 45, "duration": 120, "velocity": 105}, {"time": 68639, "pitch": 48, "duration": 30, "velocity": 120}, {"time": 68759, "pitch": 45, "duration": 30, "velocity": 115}, {"time": 68880, "pitch": 48, "duration": 30, "velocity": 120}, {"time": 69000, "pitch": 49, "duration": 30, "velocity": 115}, {"time": 69120, "pitch": 50, "duration": 120, "velocity": 110}, {"time": 69240, "pitch": 41, "duration": 361, "velocity": 105}, {"time": 69601, "pitch": 45, "duration": 481, "velocity": 90}, {"time": 69611, "pitch": 50, "duration": 231, "velocity": 110}, {"time": 69842, "pitch": 50, "duration": 240, "velocity": 110}, {"time": 70082, "pitch": 45, "duration": 119, "velocity": 110}, {"time": 70201, "pitch": 48, "duration": 237, "velocity": 110}, {"time": 70438, "pitch": 45, "duration": 119, "velocity": 105}, {"time": 70557, "pitch": 48, "duration": 30, "velocity": 120}, {"time": 70677, "pitch": 45, "duration": 30, "velocity": 115}, {"time": 70797, "pitch": 48, "duration": 30, "velocity": 120}, {"time": 70918, "pitch": 49, "duration": 30, "velocity": 115}, {"time": 71038, "pitch": 50, "duration": 481, "velocity": 110}, {"time": 71519, "pitch": 45, "duration": 481, "velocity": 90}, {"time": 71529, "pitch": 50, "duration": 231, "velocity": 110}, {"time": 71760, "pitch": 50, "duration": 240, "velocity": 110}, {"time": 72000, "pitch": 45, "duration": 120, "velocity": 110}, {"time": 72120, "pitch": 48, "duration": 241, "velocity": 110}, {"time": 72361, "pitch": 45, "duration": 120, "velocity": 105}, {"time": 72481, "pitch": 48, "duration": 30, "velocity": 120}, {"time": 72601, "pitch": 45, "duration": 31, "velocity": 115}, {"time": 72722, "pitch": 48, "duration": 30, "velocity": 120}, {"time": 72842, "pitch": 49, "duration": 30, "velocity": 115}, {"time": 72962, "pitch": 50, "duration": 119, "velocity": 110}, {"time": 73081, "pitch": 41, "duration": 356, "velocity": 105}, {"time": 73437, "pitch": 45, "duration": 481, "velocity": 90}, {"time": 73447, "pitch": 50, "duration": 230, "velocity": 110}, {"time": 73677, "pitch": 50, "duration": 241, "velocity": 110}, {"time": 73918, "pitch": 45, "duration": 120, "velocity": 110}, {"time": 74038, "pitch": 48, "duration": 241, "velocity": 110}, {"time": 74279, "pitch": 45, "duration": 120, "velocity": 105}, {"time": 74399, "pitch": 48, "duration": 30, "velocity": 120}, {"time": 74519, "pitch": 45, "duration": 30, "velocity": 115}, {"time": 74639, "pitch": 48, "duration": 31, "velocity": 120}, {"time": 74760, "pitch": 49, "duration": 30, "velocity": 115}, {"time": 74880, "pitch": 50, "duration": 481, "velocity": 110}, {"time": 75361, "pitch": 45, "duration": 481, "velocity": 90}, {"time": 75371, "pitch": 50, "duration": 231, "velocity": 110}, {"time": 75602, "pitch": 50, "duration": 240, "velocity": 110}, {"time": 75842, "pitch": 45, "duration": 120, "velocity": 110}, {"time": 75962, "pitch": 48, "duration": 241, "velocity": 110}, {"time": 76203, "pitch": 45, "duration": 120, "velocity": 105}, {"time": 76323, "pitch": 48, "duration": 30, "velocity": 120}, {"time": 76442, "pitch": 45, "duration": 29, "velocity": 115}, {"time": 76560, "pitch": 48, "duration": 30, "velocity": 120}, {"time": 76679, "pitch": 49, "duration": 30, "velocity": 115}, {"time": 76798, "pitch": 50, "duration": 120, "velocity": 110}, {"time": 76918, "pitch": 41, "duration": 361, "velocity": 105}, {"time": 77279, "pitch": 45, "duration": 481, "velocity": 90}, {"time": 77289, "pitch": 50, "duration": 230, "velocity": 110}, {"time": 77519, "pitch": 50, "duration": 241, "velocity": 110}, {"time": 77760, "pitch": 45, "duration": 120, "velocity": 110}, {"time": 77880, "pitch": 48, "duration": 241, "velocity": 110}, {"time": 78121, "pitch": 45, "duration": 120, "velocity": 105}, {"time": 78241, "pitch": 48, "duration": 30, "velocity": 120}, {"time": 78361, "pitch": 45, "duration": 30, "velocity": 115}, {"time": 78481, "pitch": 48, "duration": 31, "velocity": 120}, {"time": 78602, "pitch": 49, "duration": 30, "velocity": 115}, {"time": 78722, "pitch": 50, "duration": 481, "velocity": 110}, {"time": 79203, "pitch": 43, "duration": 366, "velocity": 105}, {"time": 79213, "pitch": 50, "duration": 346, "velocity": 110}, {"time": 79559, "pitch": 50, "duration": 129, "velocity": 95}, {"time": 79569, "pitch": 43, "duration": 109, "velocity": 100}, {"time": 79678, "pitch": 41, "duration": 130, "velocity": 95}, {"time": 79688, "pitch": 48, "duration": 110, "velocity": 100}, {"time": 79798, "pitch": 50, "duration": 371, "velocity": 105}, {"time": 79808, "pitch": 43, "duration": 351, "velocity": 110}, {"time": 80159, "pitch": 45, "duration": 370, "velocity": 105}, {"time": 80169, "pitch": 52, "duration": 350, "velocity": 110}, {"time": 80519, "pitch": 52, "duration": 131, "velocity": 95}, {"time": 80529, "pitch": 45, "duration": 111, "velocity": 100}, {"time": 80640, "pitch": 43, "duration": 130, "velocity": 95}, {"time": 80650, "pitch": 50, "duration": 110, "velocity": 100}, {"time": 80760, "pitch": 52, "duration": 371, "velocity": 105}, {"time": 80770, "pitch": 45, "duration": 351, "velocity": 110}, {"time": 81121, "pitch": 45, "duration": 250, "velocity": 105}, {"time": 81131, "pitch": 50, "duration": 230, "velocity": 110}, {"time": 81141, "pitch": 57, "duration": 220, "velocity": 110}, {"time": 81361, "pitch": 57, "duration": 251, "velocity": 110}, {"time": 81371, "pitch": 50, "duration": 231, "velocity": 95}, {"time": 81381, "pitch": 45, "duration": 221, "velocity": 100}, {"time": 81602, "pitch": 48, "duration": 130, "velocity": 95}, {"time": 81612, "pitch": 55, "duration": 110, "velocity": 100}, {"time": 81722, "pitch": 57, "duration": 241, "velocity": 105}, {"time": 81732, "pitch": 50, "duration": 241, "velocity": 110}, {"time": 81963, "pitch": 55, "duration": 130, "velocity": 105}, {"time": 81973, "pitch": 48, "duration": 110, "velocity": 110}, {"time": 82083, "pitch": 48, "duration": 128, "velocity": 105}, {"time": 82093, "pitch": 55, "duration": 109, "velocity": 110}, {"time": 82202, "pitch": 57, "duration": 128, "velocity": 95}, {"time": 82211, "pitch": 50, "duration": 109, "velocity": 100}, {"time": 82320, "pitch": 48, "duration": 247, "velocity": 95}, {"time": 82330, "pitch": 55, "duration": 227, "velocity": 100}, {"time": 82557, "pitch": 57, "duration": 461, "velocity": 105}, {"time": 82567, "pitch": 50, "duration": 451, "velocity": 110}, {"time": 83039, "pitch": 45, "duration": 250, "velocity": 105}, {"time": 83049, "pitch": 50, "duration": 230, "velocity": 110}, {"time": 83059, "pitch": 57, "duration": 220, "velocity": 110}, {"time": 83279, "pitch": 57, "duration": 251, "velocity": 110}, {"time": 83289, "pitch": 50, "duration": 231, "velocity": 95}, {"time": 83299, "pitch": 45, "duration": 221, "velocity": 100}, {"time": 83520, "pitch": 48, "duration": 130, "velocity": 95}, {"time": 83530, "pitch": 55, "duration": 110, "velocity": 100}, {"time": 83640, "pitch": 57, "duration": 240, "velocity": 105}, {"time": 83650, "pitch": 50, "duration": 240, "velocity": 110}, {"time": 83880, "pitch": 55, "duration": 131, "velocity": 105}, {"time": 83890, "pitch": 48, "duration": 111, "velocity": 110}, {"time": 84001, "pitch": 48, "duration": 130, "velocity": 105}, {"time": 84011, "pitch": 55, "duration": 110, "velocity": 110}, {"time": 84121, "pitch": 57, "duration": 130, "velocity": 95}, {"time": 84131, "pitch": 50, "duration": 110, "velocity": 100}, {"time": 84241, "pitch": 48, "duration": 251, "velocity": 95}, {"time": 84251, "pitch": 55, "duration": 231, "velocity": 100}, {"time": 84482, "pitch": 57, "duration": 461, "velocity": 105}, {"time": 84492, "pitch": 50, "duration": 451, "velocity": 110}, {"time": 84963, "pitch": 43, "duration": 366, "velocity": 105}, {"time": 84973, "pitch": 50, "duration": 346, "velocity": 110}, {"time": 85319, "pitch": 50, "duration": 128, "velocity": 95}, {"time": 85329, "pitch": 43, "duration": 108, "velocity": 100}, {"time": 85437, "pitch": 41, "duration": 131, "velocity": 95}, {"time": 85447, "pitch": 48, "duration": 111, "velocity": 100}, {"time": 85558, "pitch": 50, "duration": 370, "velocity": 105}, {"time": 85568, "pitch": 43, "duration": 350, "velocity": 110}, {"time": 85918, "pitch": 45, "duration": 371, "velocity": 105}, {"time": 85928, "pitch": 52, "duration": 351, "velocity": 110}, {"time": 86279, "pitch": 52, "duration": 130, "velocity": 95}, {"time": 86289, "pitch": 45, "duration": 110, "velocity": 100}, {"time": 86399, "pitch": 43, "duration": 131, "velocity": 95}, {"time": 86409, "pitch": 50, "duration": 111, "velocity": 100}, {"time": 86520, "pitch": 52, "duration": 371, "velocity": 105}, {"time": 86530, "pitch": 45, "duration": 351, "velocity": 110}, {"time": 86881, "pitch": 45, "duration": 250, "velocity": 105}, {"time": 86891, "pitch": 50, "duration": 230, "velocity": 110}, {"time": 86901, "pitch": 57, "duration": 220, "velocity": 110}, {"time": 87121, "pitch": 57, "duration": 251, "velocity": 110}, {"time": 87131, "pitch": 50, "duration": 231, "velocity": 95}, {"time": 87141, "pitch": 45, "duration": 221, "velocity": 100}, {"time": 87362, "pitch": 48, "duration": 130, "velocity": 95}, {"time": 87372, "pitch": 55, "duration": 110, "velocity": 100}, {"time": 87482, "pitch": 57, "duration": 240, "velocity": 105}, {"time": 87492, "pitch": 50, "duration": 240, "velocity": 110}, {"time": 87722, "pitch": 55, "duration": 131, "velocity": 105}, {"time": 87732, "pitch": 48, "duration": 111, "velocity": 110}, {"time": 87843, "pitch": 48, "duration": 128, "velocity": 105}, {"time": 87853, "pitch": 55, "duration": 108, "velocity": 110}, {"time": 87961, "pitch": 57, "duration": 129, "velocity": 95}, {"time": 87971, "pitch": 50, "duration": 109, "velocity": 100}, {"time": 88080, "pitch": 48, "duration": 247, "velocity": 95}, {"time": 88090, "pitch": 55, "duration": 227, "velocity": 100}, {"time": 88317, "pitch": 57, "duration": 461, "velocity": 105}, {"time": 88327, "pitch": 50, "duration": 451, "velocity": 110}, {"time": 88798, "pitch": 45, "duration": 251, "velocity": 105}, {"time": 88808, "pitch": 50, "duration": 231, "velocity": 110}, {"time": 88818, "pitch": 57, "duration": 221, "velocity": 110}, {"time": 89039, "pitch": 57, "duration": 220, "velocity": 110}, {"time": 89049, "pitch": 50, "duration": 230, "velocity": 95}, {"time": 89059, "pitch": 45, "duration": 220, "velocity": 100}, {"time": 89279, "pitch": 48, "duration": 131, "velocity": 95}, {"time": 89289, "pitch": 55, "duration": 111, "velocity": 100}, {"time": 89400, "pitch": 57, "duration": 240, "velocity": 105}, {"time": 89410, "pitch": 50, "duration": 240, "velocity": 110}, {"time": 89640, "pitch": 55, "duration": 130, "velocity": 105}, {"time": 89650, "pitch": 48, "duration": 110, "velocity": 110}, {"time": 89760, "pitch": 48, "duration": 131, "velocity": 105}, {"time": 89770, "pitch": 55, "duration": 111, "velocity": 110}, {"time": 89881, "pitch": 57, "duration": 130, "velocity": 95}, {"time": 89891, "pitch": 50, "duration": 110, "velocity": 100}, {"time": 90001, "pitch": 48, "duration": 251, "velocity": 95}, {"time": 90011, "pitch": 55, "duration": 231, "velocity": 100}, {"time": 90242, "pitch": 57, "duration": 461, "velocity": 105}, {"time": 90252, "pitch": 50, "duration": 451, "velocity": 110}, {"time": 90723, "pitch": 52, "duration": 118, "velocity": 110}, {"time": 90841, "pitch": 51, "duration": 119, "velocity": 105}, {"time": 90960, "pitch": 50, "duration": 118, "velocity": 110}, {"time": 91078, "pitch": 47, "duration": 239, "velocity": 110}, {"time": 91317, "pitch": 46, "duration": 241, "velocity": 105}, {"time": 91558, "pitch": 45, "duration": 120, "velocity": 110}, {"time": 91678, "pitch": 43, "duration": 241, "velocity": 110}, {"time": 91919, "pitch": 40, "duration": 240, "velocity": 110}, {"time": 92159, "pitch": 52, "duration": 481, "velocity": 105}, {"time": 92640, "pitch": 52, "duration": 121, "velocity": 110}, {"time": 92761, "pitch": 51, "duration": 120, "velocity": 105}, {"time": 92881, "pitch": 50, "duration": 120, "velocity": 110}, {"time": 93001, "pitch": 47, "duration": 241, "velocity": 110}, {"time": 93242, "pitch": 46, "duration": 240, "velocity": 105}, {"time": 93482, "pitch": 45, "duration": 120, "velocity": 110}, {"time": 93602, "pitch": 43, "duration": 238, "velocity": 110}, {"time": 93840, "pitch": 40, "duration": 237, "velocity": 110}, {"time": 94077, "pitch": 52, "duration": 481, "velocity": 105}, {"time": 94558, "pitch": 52, "duration": 120, "velocity": 110}, {"time": 94678, "pitch": 51, "duration": 121, "velocity": 105}, {"time": 94799, "pitch": 50, "duration": 120, "velocity": 110}, {"time": 94919, "pitch": 47, "duration": 240, "velocity": 110}, {"time": 95159, "pitch": 46, "duration": 241, "velocity": 105}, {"time": 95400, "pitch": 45, "duration": 120, "velocity": 110}, {"time": 95520, "pitch": 43, "duration": 241, "velocity": 110}, {"time": 95761, "pitch": 40, "duration": 240, "velocity": 110}, {"time": 96001, "pitch": 52, "duration": 481, "velocity": 105}, {"time": 96482, "pitch": 52, "duration": 119, "velocity": 110}, {"time": 96601, "pitch": 51, "duration": 119, "velocity": 105}, {"time": 96720, "pitch": 50, "duration": 118, "velocity": 110}, {"time": 96838, "pitch": 47, "duration": 239, "velocity": 110}, {"time": 97077, "pitch": 46, "duration": 241, "velocity": 105}, {"time": 97318, "pitch": 45, "duration": 120, "velocity": 110}, {"time": 97438, "pitch": 43, "duration": 240, "velocity": 110}, {"time": 97678, "pitch": 40, "duration": 241, "velocity": 110}, {"time": 97919, "pitch": 52, "duration": 481, "velocity": 105}, {"time": 98400, "pitch": 52, "duration": 120, "velocity": 110}, {"time": 98520, "pitch": 51, "duration": 121, "velocity": 105}, {"time": 98641, "pitch": 50, "duration": 120, "velocity": 110}, {"time": 98761, "pitch": 47, "duration": 240, "velocity": 110}, {"time": 99001, "pitch": 46, "duration": 241, "velocity": 105}, {"time": 99242, "pitch": 45, "duration": 120, "velocity": 110}, {"time": 99362, "pitch": 43, "duration": 241, "velocity": 110}, {"time": 99603, "pitch": 40, "duration": 240, "velocity": 110}, {"time": 99843, "pitch": 52, "duration": 475, "velocity": 105}, {"time": 100318, "pitch": 52, "duration": 120, "velocity": 110}, {"time": 100438, "pitch": 51, "duration": 120, "velocity": 105}, {"time": 100558, "pitch": 50, "duration": 121, "velocity": 110}, {"time": 100679, "pitch": 47, "duration": 240, "velocity": 110}, {"time": 100919, "pitch": 46, "duration": 241, "velocity": 105}, {"time": 101160, "pitch": 45, "duration": 120, "velocity": 110}, {"time": 101280, "pitch": 43, "duration": 240, "velocity": 110}, {"time": 101520, "pitch": 40, "duration": 241, "velocity": 110}, {"time": 101761, "pitch": 52, "duration": 481, "velocity": 105}, {"time": 102242, "pitch": 52, "duration": 120, "velocity": 110}, {"time": 102362, "pitch": 51, "duration": 121, "velocity": 105}, {"time": 102483, "pitch": 50, "duration": 120, "velocity": 110}, {"time": 102603, "pitch": 47, "duration": 239, "velocity": 110}, {"time": 102842, "pitch": 46, "duration": 237, "velocity": 105}, {"time": 103079, "pitch": 45, "duration": 119, "velocity": 110}, {"time": 103198, "pitch": 43, "duration": 240, "velocity": 110}, {"time": 103438, "pitch": 40, "duration": 241, "velocity": 110}, {"time": 103679, "pitch": 52, "duration": 481, "velocity": 105}, {"time": 104160, "pitch": 52, "duration": 120, "velocity": 110}, {"time": 104280, "pitch": 51, "duration": 120, "velocity": 105}, {"time": 104400, "pitch": 50, "duration": 121, "velocity": 110}, {"time": 104521, "pitch": 47, "duration": 240, "velocity": 110}, {"time": 104761, "pitch": 46, "duration": 241, "velocity": 105}, {"time": 105002, "pitch": 45, "duration": 120, "velocity": 110}, {"time": 105122, "pitch": 43, "duration": 240, "velocity": 110}, {"time": 105362, "pitch": 40, "duration": 241, "velocity": 110}, {"time": 105603, "pitch": 52, "duration": 475, "velocity": 105}, {"time": 106078, "pitch": 45, "duration": 481, "velocity": 90}, {"time": 106088, "pitch": 50, "duration": 230, "velocity": 110}, {"time": 106318, "pitch": 50, "duration": 241, "velocity": 110}, {"time": 106559, "pitch": 45, "duration": 120, "velocity": 110}, {"time": 106679, "pitch": 48, "duration": 240, "velocity": 110}, {"time": 106919, "pitch": 45, "duration": 121, "velocity": 105}, {"time": 107040, "pitch": 48, "duration": 30, "velocity": 120}, {"time": 107160, "pitch": 45, "duration": 30, "velocity": 115}, {"time": 107280, "pitch": 48, "duration": 30, "velocity": 120}, {"time": 107400, "pitch": 49, "duration": 31, "velocity": 115}, {"time": 107521, "pitch": 50, "duration": 120, "velocity": 110}, {"time": 107641, "pitch": 41, "duration": 361, "velocity": 105}, {"time": 108002, "pitch": 45, "duration": 481, "velocity": 90}, {"time": 108012, "pitch": 50, "duration": 230, "velocity": 110}, {"time": 108242, "pitch": 50, "duration": 241, "velocity": 110}, {"time": 108483, "pitch": 45, "duration": 119, "velocity": 110}, {"time": 108602, "pitch": 48, "duration": 237, "velocity": 110}, {"time": 108839, "pitch": 45, "duration": 118, "velocity": 105}, {"time": 108957, "pitch": 48, "duration": 30, "velocity": 120}, {"time": 109078, "pitch": 45, "duration": 30, "velocity": 115}, {"time": 109198, "pitch": 48, "duration": 30, "velocity": 120}, {"time": 109318, "pitch": 49, "duration": 30, "velocity": 115}, {"time": 109438, "pitch": 50, "duration": 482, "velocity": 110}, {"time": 109920, "pitch": 45, "duration": 481, "velocity": 90}, {"time": 109930, "pitch": 50, "duration": 230, "velocity": 110}, {"time": 110160, "pitch": 50, "duration": 241, "velocity": 110}, {"time": 110401, "pitch": 45, "duration": 120, "velocity": 110}, {"time": 110521, "pitch": 48, "duration": 240, "velocity": 110}, {"time": 110761, "pitch": 45, "duration": 121, "velocity": 105}, {"time": 110882, "pitch": 48, "duration": 30, "velocity": 120}, {"time": 111002, "pitch": 45, "duration": 30, "velocity": 115}, {"time": 111122, "pitch": 48, "duration": 30, "velocity": 120}, {"time": 111243, "pitch": 49, "duration": 30, "velocity": 115}, {"time": 111363, "pitch": 50, "duration": 118, "velocity": 110}, {"time": 111481, "pitch": 41, "duration": 356, "velocity": 105}, {"time": 111837, "pitch": 45, "duration": 481, "velocity": 90}, {"time": 111847, "pitch": 50, "duration": 231, "velocity": 110}, {"time": 112078, "pitch": 50, "duration": 240, "velocity": 110}, {"time": 112318, "pitch": 45, "duration": 121, "velocity": 110}, {"time": 112439, "pitch": 48, "duration": 240, "velocity": 110}, {"time": 112679, "pitch": 45, "duration": 120, "velocity": 105}, {"time": 112799, "pitch": 48, "duration": 30, "velocity": 120}, {"time": 112920, "pitch": 45, "duration": 30, "velocity": 115}, {"time": 113040, "pitch": 48, "duration": 30, "velocity": 120}, {"time": 113160, "pitch": 49, "duration": 30, "velocity": 115}, {"time": 113281, "pitch": 50, "duration": 481, "velocity": 110}, {"time": 113762, "pitch": 45, "duration": 481, "velocity": 90}, {"time": 113772, "pitch": 50, "duration": 230, "velocity": 110}, {"time": 114002, "pitch": 50, "duration": 241, "velocity": 110}, {"time": 114243, "pitch": 45, "duration": 118, "velocity": 110}, {"time": 114361, "pitch": 48, "duration": 238, "velocity": 110}, {"time": 114599, "pitch": 45, "duration": 118, "velocity": 105}, {"time": 114717, "pitch": 48, "duration": 30, "velocity": 120}, {"time": 114837, "pitch": 45, "duration": 30, "velocity": 115}, {"time": 114958, "pitch": 48, "duration": 30, "velocity": 120}, {"time": 115078, "pitch": 49, "duration": 30, "velocity": 115}, {"time": 115198, "pitch": 50, "duration": 120, "velocity": 110}, {"time": 115318, "pitch": 41, "duration": 361, "velocity": 105}, {"time": 115679, "pitch": 45, "duration": 481, "velocity": 90}, {"time": 115689, "pitch": 50, "duration": 231, "velocity": 110}, {"time": 115920, "pitch": 50, "duration": 240, "velocity": 110}, {"time": 116160, "pitch": 45, "duration": 121, "velocity": 110}, {"time": 116281, "pitch": 48, "duration": 240, "velocity": 110}, {"time": 116521, "pitch": 45, "duration": 120, "velocity": 105}, {"time": 116641, "pitch": 48, "duration": 31, "velocity": 120}, {"time": 116762, "pitch": 45, "duration": 30, "velocity": 115}, {"time": 116882, "pitch": 48, "duration": 30, "velocity": 120}, {"time": 117002, "pitch": 49, "duration": 30, "velocity": 115}, {"time": 117122, "pitch": 50, "duration": 475, "velocity": 110}, {"time": 117597, "pitch": 45, "duration": 481, "velocity": 90}, {"time": 117607, "pitch": 50, "duration": 231, "velocity": 110}, {"time": 117838, "pitch": 50, "duration": 240, "velocity": 110}, {"time": 118078, "pitch": 45, "duration": 120, "velocity": 110}, {"time": 118198, "pitch": 48, "duration": 241, "velocity": 110}, {"time": 118439, "pitch": 45, "duration": 120, "velocity": 105}, {"time": 118559, "pitch": 48, "duration": 30, "velocity": 120}, {"time": 118679, "pitch": 45, "duration": 31, "velocity": 115}, {"time": 118800, "pitch": 48, "duration": 30, "velocity": 120}, {"time": 118920, "pitch": 49, "duration": 30, "velocity": 115}, {"time": 119040, "pitch": 50, "duration": 121, "velocity": 110}, {"time": 119161, "pitch": 41, "duration": 360, "velocity": 105}, {"time": 119521, "pitch": 45, "duration": 481, "velocity": 90}, {"time": 119531, "pitch": 50, "duration": 231, "velocity": 110}, {"time": 119762, "pitch": 50, "duration": 240, "velocity": 110}, {"time": 120002, "pitch": 45, "duration": 119, "velocity": 110}, {"time": 120121, "pitch": 48, "duration": 237, "velocity": 110}, {"time": 120358, "pitch": 45, "duration": 119, "velocity": 105}, {"time": 120477, "pitch": 48, "duration": 30, "velocity": 120}, {"time": 120597, "pitch": 45, "duration": 30, "velocity": 115}, {"time": 120717, "pitch": 48, "duration": 31, "velocity": 120}, {"time": 120838, "pitch": 49, "duration": 30, "velocity": 115}, {"time": 120958, "pitch": 50, "duration": 481, "velocity": 110}, {"time": 121439, "pitch": 43, "duration": 371, "velocity": 105}, {"time": 121449, "pitch": 50, "duration": 351, "velocity": 110}, {"time": 121800, "pitch": 50, "duration": 130, "velocity": 95}, {"time": 121810, "pitch": 43, "duration": 110, "velocity": 100}, {"time": 121920, "pitch": 41, "duration": 130, "velocity": 95}, {"time": 121930, "pitch": 48, "duration": 110, "velocity": 100}, {"time": 122040, "pitch": 50, "duration": 371, "velocity": 105}, {"time": 122050, "pitch": 43, "duration": 351, "velocity": 110}, {"time": 122401, "pitch": 45, "duration": 371, "velocity": 105}, {"time": 122411, "pitch": 52, "duration": 351, "velocity": 110}, {"time": 122762, "pitch": 52, "duration": 130, "velocity": 95}, {"time": 122772, "pitch": 45, "duration": 110, "velocity": 100}, {"time": 122882, "pitch": 43, "duration": 129, "velocity": 95}, {"time": 122892, "pitch": 50, "duration": 109, "velocity": 100}, {"time": 123001, "pitch": 52, "duration": 366, "velocity": 105}, {"time": 123011, "pitch": 45, "duration": 346, "velocity": 110}, {"time": 123357, "pitch": 45, "duration": 250, "velocity": 105}, {"time": 123367, "pitch": 50, "duration": 230, "velocity": 110}, {"time": 123377, "pitch": 57, "duration": 220, "velocity": 110}, {"time": 123597, "pitch": 57, "duration": 251, "velocity": 110}, {"time": 123607, "pitch": 50, "duration": 231, "velocity": 95}, {"time": 123617, "pitch": 45, "duration": 221, "velocity": 100}, {"time": 123838, "pitch": 48, "duration": 130, "velocity": 95}, {"time": 123848, "pitch": 55, "duration": 110, "velocity": 100}, {"time": 123958, "pitch": 57, "duration": 241, "velocity": 105}, {"time": 123968, "pitch": 50, "duration": 241, "velocity": 110}, {"time": 124199, "pitch": 55, "duration": 130, "velocity": 105}, {"time": 124209, "pitch": 48, "duration": 110, "velocity": 110}, {"time": 124319, "pitch": 48, "duration": 130, "velocity": 105}, {"time": 124329, "pitch": 55, "duration": 110, "velocity": 110}, {"time": 124439, "pitch": 57, "duration": 130, "velocity": 95}, {"time": 124449, "pitch": 50, "duration": 110, "velocity": 100}, {"time": 124559, "pitch": 48, "duration": 251, "velocity": 95}, {"time": 124569, "pitch": 55, "duration": 231, "velocity": 100}, {"time": 124800, "pitch": 57, "duration": 461, "velocity": 105}, {"time": 124810, "pitch": 50, "duration": 451, "velocity": 110}, {"time": 125281, "pitch": 45, "duration": 251, "velocity": 105}, {"time": 125291, "pitch": 50, "duration": 231, "velocity": 110}, {"time": 125301, "pitch": 57, "duration": 221, "velocity": 110}, {"time": 125522, "pitch": 57, "duration": 250, "velocity": 110}, {"time": 125532, "pitch": 50, "duration": 230, "velocity": 95}, {"time": 125542, "pitch": 45, "duration": 220, "velocity": 100}, {"time": 125762, "pitch": 48, "duration": 130, "velocity": 95}, {"time": 125772, "pitch": 55, "duration": 110, "velocity": 100}, {"time": 125882, "pitch": 57, "duration": 241, "velocity": 105}, {"time": 125892, "pitch": 50, "duration": 241, "velocity": 110}, {"time": 126123, "pitch": 55, "duration": 130, "velocity": 105}, {"time": 126133, "pitch": 48, "duration": 110, "velocity": 110}, {"time": 126243, "pitch": 48, "duration": 129, "velocity": 105}, {"time": 126253, "pitch": 55, "duration": 109, "velocity": 110}, {"time": 126362, "pitch": 57, "duration": 128, "velocity": 95}, {"time": 126372, "pitch": 50, "duration": 108, "velocity": 100}, {"time": 126480, "pitch": 48, "duration": 248, "velocity": 95}, {"time": 126490, "pitch": 55, "duration": 228, "velocity": 100}, {"time": 126718, "pitch": 57, "duration": 461, "velocity": 105}, {"time": 126728, "pitch": 50, "duration": 451, "velocity": 110}, {"time": 127199, "pitch": 43, "duration": 371, "velocity": 105}, {"time": 127209, "pitch": 50, "duration": 351, "velocity": 110}, {"time": 127560, "pitch": 50, "duration": 130, "velocity": 95}, {"time": 127570, "pitch": 43, "duration": 110, "velocity": 100}, {"time": 127680, "pitch": 41, "duration": 130, "velocity": 95}, {"time": 127690, "pitch": 48, "duration": 110, "velocity": 100}, {"time": 127800, "pitch": 50, "duration": 371, "velocity": 105}, {"time": 127810, "pitch": 43, "duration": 351, "velocity": 110}, {"time": 128161, "pitch": 45, "duration": 371, "velocity": 105}, {"time": 128171, "pitch": 52, "duration": 351, "velocity": 110}, {"time": 128522, "pitch": 52, "duration": 130, "velocity": 95}, {"time": 128532, "pitch": 45, "duration": 110, "velocity": 100}, {"time": 128642, "pitch": 43, "duration": 130, "velocity": 95}, {"time": 128652, "pitch": 50, "duration": 110, "velocity": 100}, {"time": 128762, "pitch": 52, "duration": 371, "velocity": 105}, {"time": 128772, "pitch": 45, "duration": 351, "velocity": 110}, {"time": 129123, "pitch": 45, "duration": 247, "velocity": 105}, {"time": 129133, "pitch": 50, "duration": 227, "velocity": 110}, {"time": 129143, "pitch": 57, "duration": 217, "velocity": 110}, {"time": 129360, "pitch": 57, "duration": 248, "velocity": 110}, {"time": 129370, "pitch": 50, "duration": 228, "velocity": 95}, {"time": 129380, "pitch": 45, "duration": 228, "velocity": 100}, {"time": 129598, "pitch": 48, "duration": 130, "velocity": 95}, {"time": 129608, "pitch": 55, "duration": 110, "velocity": 100}, {"time": 129718, "pitch": 57, "duration": 240, "velocity": 105}, {"time": 129728, "pitch": 50, "duration": 240, "velocity": 110}, {"time": 129958, "pitch": 55, "duration": 131, "velocity": 105}, {"time": 129968, "pitch": 48, "duration": 111, "velocity": 110}, {"time": 130079, "pitch": 48, "duration": 130, "velocity": 105}, {"time": 130089, "pitch": 55, "duration": 110, "velocity": 110}, {"time": 130199, "pitch": 57, "duration": 130, "velocity": 95}, {"time": 130209, "pitch": 50, "duration": 110, "velocity": 100}, {"time": 130319, "pitch": 48, "duration": 251, "velocity": 95}, {"time": 130329, "pitch": 55, "duration": 231, "velocity": 100}, {"time": 130560, "pitch": 57, "duration": 461, "velocity": 105}, {"time": 130570, "pitch": 50, "duration": 451, "velocity": 110}, {"time": 131041, "pitch": 45, "duration": 250, "velocity": 105}, {"time": 131051, "pitch": 50, "duration": 230, "velocity": 110}, {"time": 131061, "pitch": 57, "duration": 220, "velocity": 110}, {"time": 131281, "pitch": 57, "duration": 251, "velocity": 110}, {"time": 131291, "pitch": 50, "duration": 231, "velocity": 95}, {"time": 131301, "pitch": 45, "duration": 221, "velocity": 100}, {"time": 131522, "pitch": 48, "duration": 130, "velocity": 95}, {"time": 131532, "pitch": 55, "duration": 110, "velocity": 100}, {"time": 131642, "pitch": 57, "duration": 241, "velocity": 105}, {"time": 131652, "pitch": 50, "duration": 241, "velocity": 110}, {"time": 131883, "pitch": 55, "duration": 130, "velocity": 105}, {"time": 131893, "pitch": 48, "duration": 110, "velocity": 110}, {"time": 132003, "pitch": 48, "duration": 128, "velocity": 105}, {"time": 132013, "pitch": 55, "duration": 109, "velocity": 110}, {"time": 132122, "pitch": 57, "duration": 128, "velocity": 95}, {"time": 132131, "pitch": 50, "duration": 109, "velocity": 100}, {"time": 132240, "pitch": 48, "duration": 248, "velocity": 95}, {"time": 132250, "pitch": 55, "duration": 228, "velocity": 100}, {"time": 132478, "pitch": 57, "duration": 461, "velocity": 105}, {"time": 132488, "pitch": 50, "duration": 451, "velocity": 110}], "annotations": [{"time": 283, "annotation": {"number": 7, "value": 100}, "group": "control_change"}, {"time": 305, "annotation": {"number": 11, "value": 100}, "group": "control_change"}, {"time": 326, "annotation": {"number": 10, "value": 127}, "group": "control_change"}, {"time": 348, "annotation": {"number": 91, "value": 50}, "group": "control_change"}, {"time": 370, "annotation": {"number": 93, "value": 40}, "group": "control_change"}, {"time": 392, "annotation": {"number": 101, "value": 0}, "group": "control_change"}, {"time": 413, "annotation": {"number": 100, "value": 0}, "group": "control_change"}, {"time": 435, "annotation": {"number": 6, "value": 12}, "group": "control_change"}, {"time": 457, "annotation": {"number": 101, "value": 127}, "group": "control_change"}, {"time": 479, "annotation": {"number": 100, "value": 127}, "group": "control_change"}, {"time": 30840, "annotation": {"number": 1, "value": 50}, "group": "control_change"}, {"time": 31201, "annotation": {"number": 1, "value": 0}, "group": "control_change"}, {"time": 32637, "annotation": {"number": 1, "value": 50}, "group": "control_change"}, {"time": 33119, "annotation": {"number": 1, "value": 0}, "group": "control_change"}, {"time": 34682, "annotation": {"number": 1, "value": 50}, "group": "control_change"}, {"time": 35043, "annotation": {"number": 1, "value": 0}, "group": "control_change"}, {"time": 36479, "annotation": {"number": 1, "value": 50}, "group": "control_change"}, {"time": 36961, "annotation": {"number": 1, "value": 0}, "group": "control_change"}, {"time": 38517, "annotation": {"number": 1, "value": 50}, "group": "control_change"}, {"time": 38878, "annotation": {"number": 1, "value": 0}, "group": "control_change"}, {"time": 40321, "annotation": {"number": 1, "value": 50}, "group": "control_change"}, {"time": 40803, "annotation": {"number": 1, "value": 0}, "group": "control_change"}, {"time": 42359, "annotation": {"number": 1, "value": 50}, "group": "control_change"}, {"time": 42720, "annotation": {"number": 1, "value": 0}, "group": "control_change"}, {"time": 44157, "annotation": {"number": 1, "value": 50}, "group": "control_change"}, {"time": 44638, "annotation": {"number": 1, "value": 0}, "group": "control_change"}, {"time": 65398, "annotation": {"number": 1, "value": 50}, "group": "control_change"}, {"time": 65759, "annotation": {"number": 1, "value": 0}, "group": "control_change"}, {"time": 67202, "annotation": {"number": 1, "value": 50}, "group": "control_change"}, {"time": 67677, "annotation": {"number": 1, "value": 0}, "group": "control_change"}, {"time": 69240, "annotation": {"number": 1, "value": 50}, "group": "control_change"}, {"time": 69601, "annotation": {"number": 1, "value": 0}, "group": "control_change"}, {"time": 71038, "annotation": {"number": 1, "value": 50}, "group": "control_change"}, {"time": 71519, "annotation": {"number": 1, "value": 0}, "group": "control_change"}, {"time": 73081, "annotation": {"number": 1, "value": 50}, "group": "control_change"}, {"time": 73437, "annotation": {"number": 1, "value": 0}, "group": "control_change"}, {"time": 74880, "annotation": {"number": 1, "value": 50}, "group": "control_change"}, {"time": 75361, "annotation": {"number": 1, "value": 0}, "group": "control_change"}, {"time": 76918, "annotation": {"number": 1, "value": 50}, "group": "control_change"}, {"time": 77279, "annotation": {"number": 1, "value": 0}, "group": "control_change"}, {"time": 78722, "annotation": {"number": 1, "value": 50}, "group": "control_change"}, {"time": 79203, "annotation": {"number": 1, "value": 0}, "group": "control_change"}, {"time": 107641, "annotation": {"number": 1, "value": 50}, "group": "control_change"}, {"time": 108002, "annotation": {"number": 1, "value": 0}, "group": "control_change"}, {"time": 109438, "annotation": {"number": 1, "value": 50}, "group": "control_change"}, {"time": 109920, "annotation": {"number": 1, "value": 0}, "group": "control_change"}, {"time": 111481, "annotation": {"number": 1, "value": 50}, "group": "control_change"}, {"time": 111837, "annotation": {"number": 1, "value": 0}, "group": "control_change"}, {"time": 113281, "annotation": {"number": 1, "value": 50}, "group": "control_change"}, {"time": 113762, "annotation": {"number": 1, "value": 0}, "group": "control_change"}, {"time": 115318, "annotation": {"number": 1, "value": 50}, "group": "control_change"}, {"time": 115679, "annotation": {"number": 1, "value": 0}, "group": "control_change"}, {"time": 117122, "annotation": {"number": 1, "value": 50}, "group": "control_change"}, {"time": 117597, "annotation": {"number": 1, "value": 0}, "group": "control_change"}, {"time": 119161, "annotation": {"number": 1, "value": 50}, "group": "control_change"}, {"time": 119521, "annotation": {"number": 1, "value": 0}, "group": "control_change"}, {"time": 120958, "annotation": {"number": 1, "value": 50}, "group": "control_change"}, {"time": 121439, "annotation": {"number": 1, "value": 0}, "group": "control_change"}]}, {"program": 0, "is_drum": false, "name": "Dis.Solo", "annotations": [{"time": 218, "annotation": {"number": 0, "value": 0}, "group": "control_change"}, {"time": 239, "annotation": {"number": 32, "value": 2}, "group": "control_change"}]}, {"program": 30, "is_drum": false, "name": "Dis.Solo", "notes": [{"time": 90723, "pitch": 69, "duration": 355, "velocity": 115}, {"time": 90732, "pitch": 71, "duration": 356, "velocity": 120}, {"time": 91078, "pitch": 69, "duration": 360, "velocity": 115}, {"time": 91088, "pitch": 71, "duration": 360, "velocity": 120}, {"time": 91438, "pitch": 69, "duration": 360, "velocity": 115}, {"time": 91448, "pitch": 71, "duration": 360, "velocity": 120}, {"time": 91798, "pitch": 69, "duration": 361, "velocity": 115}, {"time": 91808, "pitch": 71, "duration": 361, "velocity": 120}, {"time": 92159, "pitch": 69, "duration": 602, "velocity": 115}, {"time": 92169, "pitch": 71, "duration": 592, "velocity": 120}, {"time": 92761, "pitch": 71, "duration": 120, "velocity": 120}, {"time": 92881, "pitch": 69, "duration": 240, "velocity": 125}, {"time": 93121, "pitch": 69, "duration": 121, "velocity": 125}, {"time": 93242, "pitch": 67, "duration": 240, "velocity": 120}, {"time": 93482, "pitch": 69, "duration": 120, "velocity": 120}, {"time": 93602, "pitch": 67, "duration": 238, "velocity": 120}, {"time": 93840, "pitch": 59, "duration": 237, "velocity": 125}, {"time": 94077, "pitch": 55, "duration": 120, "velocity": 125}, {"time": 94197, "pitch": 52, "duration": 361, "velocity": 120}, {"time": 94558, "pitch": 50, "duration": 120, "velocity": 110}, {"time": 94558, "pitch": 55, "duration": 120, "velocity": 120}, {"time": 94678, "pitch": 50, "duration": 121, "velocity": 110}, {"time": 94678, "pitch": 57, "duration": 121, "velocity": 115}, {"time": 94799, "pitch": 50, "duration": 120, "velocity": 110}, {"time": 94799, "pitch": 57, "duration": 120, "velocity": 120}, {"time": 94919, "pitch": 50, "duration": 120, "velocity": 110}, {"time": 94919, "pitch": 59, "duration": 120, "velocity": 115}, {"time": 95039, "pitch": 50, "duration": 120, "velocity": 120}, {"time": 95039, "pitch": 55, "duration": 120, "velocity": 110}, {"time": 95159, "pitch": 52, "duration": 121, "velocity": 115}, {"time": 95159, "pitch": 55, "duration": 121, "velocity": 110}, {"time": 95280, "pitch": 52, "duration": 120, "velocity": 120}, {"time": 95280, "pitch": 55, "duration": 120, "velocity": 110}, {"time": 95400, "pitch": 50, "duration": 120, "velocity": 115}, {"time": 95400, "pitch": 55, "duration": 120, "velocity": 110}, {"time": 95520, "pitch": 55, "duration": 241, "velocity": 120}, {"time": 95761, "pitch": 52, "duration": 120, "velocity": 115}, {"time": 95881, "pitch": 55, "duration": 241, "velocity": 120}, {"time": 96122, "pitch": 52, "duration": 120, "velocity": 115}, {"time": 96242, "pitch": 55, "duration": 240, "velocity": 120}, {"time": 96482, "pitch": 52, "duration": 119, "velocity": 115}, {"time": 96601, "pitch": 52, "duration": 119, "velocity": 120}, {"time": 96720, "pitch": 50, "duration": 118, "velocity": 115}, {"time": 96838, "pitch": 50, "duration": 119, "velocity": 120}, {"time": 96957, "pitch": 52, "duration": 120, "velocity": 115}, {"time": 97077, "pitch": 52, "duration": 120, "velocity": 120}, {"time": 97197, "pitch": 50, "duration": 121, "velocity": 115}, {"time": 97318, "pitch": 50, "duration": 120, "velocity": 120}, {"time": 97438, "pitch": 52, "duration": 120, "velocity": 115}, {"time": 97558, "pitch": 64, "duration": 120, "velocity": 125}, {"time": 97678, "pitch": 67, "duration": 121, "velocity": 120}, {"time": 97799, "pitch": 69, "duration": 120, "velocity": 120}, {"time": 97919, "pitch": 71, "duration": 481, "velocity": 120}, {"time": 98520, "pitch": 64, "duration": 121, "velocity": 110}, {"time": 98520, "pitch": 69, "duration": 121, "velocity": 115}, {"time": 98641, "pitch": 64, "duration": 120, "velocity": 115}, {"time": 98641, "pitch": 69, "duration": 120, "velocity": 120}, {"time": 98761, "pitch": 64, "duration": 120, "velocity": 110}, {"time": 98761, "pitch": 67, "duration": 120, "velocity": 115}, {"time": 98881, "pitch": 64, "duration": 120, "velocity": 115}, {"time": 98881, "pitch": 69, "duration": 120, "velocity": 120}, {"time": 99001, "pitch": 64, "duration": 121, "velocity": 110}, {"time": 99001, "pitch": 69, "duration": 121, "velocity": 115}, {"time": 99122, "pitch": 64, "duration": 120, "velocity": 115}, {"time": 99122, "pitch": 67, "duration": 120, "velocity": 120}, {"time": 99242, "pitch": 64, "duration": 120, "velocity": 110}, {"time": 99242, "pitch": 69, "duration": 120, "velocity": 115}, {"time": 99362, "pitch": 69, "duration": 241, "velocity": 115}, {"time": 99603, "pitch": 64, "duration": 240, "velocity": 115}, {"time": 99603, "pitch": 69, "duration": 240, "velocity": 120}, {"time": 99843, "pitch": 64, "duration": 238, "velocity": 110}, {"time": 99843, "pitch": 67, "duration": 238, "velocity": 115}, {"time": 100081, "pitch": 62, "duration": 237, "velocity": 115}, {"time": 100318, "pitch": 59, "duration": 120, "velocity": 115}, {"time": 100318, "pitch": 64, "duration": 120, "velocity": 120}, {"time": 100438, "pitch": 62, "duration": 120, "velocity": 115}, {"time": 100438, "pitch": 67, "duration": 120, "velocity": 120}, {"time": 100558, "pitch": 62, "duration": 121, "velocity": 115}, {"time": 100558, "pitch": 67, "duration": 121, "velocity": 120}, {"time": 100679, "pitch": 59, "duration": 120, "velocity": 115}, {"time": 100679, "pitch": 64, "duration": 120, "velocity": 120}, {"time": 100799, "pitch": 62, "duration": 120, "velocity": 115}, {"time": 100799, "pitch": 67, "duration": 120, "velocity": 120}, {"time": 100919, "pitch": 62, "duration": 120, "velocity": 115}, {"time": 100919, "pitch": 67, "duration": 120, "velocity": 120}, {"time": 101039, "pitch": 59, "duration": 121, "velocity": 115}, {"time": 101039, "pitch": 64, "duration": 121, "velocity": 120}, {"time": 101160, "pitch": 62, "duration": 120, "velocity": 115}, {"time": 101160, "pitch": 67, "duration": 120, "velocity": 120}, {"time": 101280, "pitch": 69, "duration": 240, "velocity": 115}, {"time": 101520, "pitch": 64, "duration": 241, "velocity": 115}, {"time": 101520, "pitch": 69, "duration": 241, "velocity": 120}, {"time": 101761, "pitch": 64, "duration": 241, "velocity": 110}, {"time": 101761, "pitch": 67, "duration": 241, "velocity": 115}, {"time": 102002, "pitch": 64, "duration": 120, "velocity": 115}, {"time": 102122, "pitch": 67, "duration": 120, "velocity": 110}, {"time": 102242, "pitch": 76, "duration": 361, "velocity": 120}, {"time": 102603, "pitch": 76, "duration": 357, "velocity": 120}, {"time": 102960, "pitch": 76, "duration": 238, "velocity": 120}, {"time": 103198, "pitch": 74, "duration": 120, "velocity": 125}, {"time": 103318, "pitch": 74, "duration": 120, "velocity": 120}, {"time": 103438, "pitch": 71, "duration": 120, "velocity": 120}, {"time": 103558, "pitch": 74, "duration": 121, "velocity": 120}, {"time": 103679, "pitch": 76, "duration": 481, "velocity": 125}, {"time": 104160, "pitch": 76, "duration": 361, "velocity": 120}, {"time": 104521, "pitch": 76, "duration": 360, "velocity": 80}, {"time": 104521, "pitch": 78, "duration": 360, "velocity": 120}, {"time": 104881, "pitch": 78, "duration": 1197, "velocity": 80}, {"time": 104881, "pitch": 79, "duration": 1197, "velocity": 125}], "annotations": [{"time": 283, "annotation": {"number": 7, "value": 127}, "group": "control_change"}, {"time": 305, "annotation": {"number": 11, "value": 100}, "group": "control_change"}, {"time": 326, "annotation": {"number": 10, "value": 64}, "group": "control_change"}, {"time": 348, "annotation": {"number": 91, "value": 50}, "group": "control_change"}, {"time": 370, "annotation": {"number": 93, "value": 30}, "group": "control_change"}, {"time": 392, "annotation": {"number": 101, "value": 0}, "group": "control_change"}, {"time": 413, "annotation": {"number": 100, "value": 0}, "group": "control_change"}, {"time": 435, "annotation": {"number": 6, "value": 12}, "group": "control_change"}, {"time": 457, "annotation": {"number": 101, "value": 127}, "group": "control_change"}, {"time": 479, "annotation": {"number": 100, "value": 127}, "group": "control_change"}, {"time": 93242, "annotation": {"number": 1, "value": 60}, "group": "control_change"}, {"time": 93482, "annotation": {"number": 1, "value": 0}, "group": "control_change"}, {"time": 94197, "annotation": {"number": 1, "value": 40}, "group": "control_change"}, {"time": 94558, "annotation": {"number": 1, "value": 0}, "group": "control_change"}, {"time": 98129, "annotation": {"number": 1, "value": 40}, "group": "control_change"}, {"time": 98400, "annotation": {"number": 1, "value": 0}, "group": "control_change"}, {"time": 102402, "annotation": {"number": 1, "value": 40}, "group": "control_change"}, {"time": 102603, "annotation": {"number": 1, "value": 0}, "group": "control_change"}, {"time": 102763, "annotation": {"number": 1, "value": 40}, "group": "control_change"}, {"time": 102960, "annotation": {"number": 1, "value": 0}, "group": "control_change"}, {"time": 103889, "annotation": {"number": 1, "value": 40}, "group": "control_change"}, {"time": 104160, "annotation": {"number": 1, "value": 0}, "group": "control_change"}, {"time": 104320, "annotation": {"number": 1, "value": 40}, "group": "control_change"}, {"time": 104440, "annotation": {"number": 1, "value": 0}, "group": "control_change"}, {"time": 104681, "annotation": {"number": 1, "value": 40}, "group": "control_change"}, {"time": 104801, "annotation": {"number": 1, "value": 0}, "group": "control_change"}, {"time": 105042, "annotation": {"number": 1, "value": 40}, "group": "control_change"}, {"time": 106078, "annotation": {"number": 1, "value": 0}, "group": "control_change"}]}, {"program": 0, "is_drum": true, "name": "Drums", "notes": [{"time": 27359, "pitch": 47, "duration": 90, "velocity": 102}, {"time": 27439, "pitch": 40, "duration": 10, "velocity": 64}, {"time": 27519, "pitch": 40, "duration": 10, "velocity": 127}, {"time": 27599, "pitch": 40, "duration": 10, "velocity": 50}, {"time": 27679, "pitch": 40, "duration": 10, "velocity": 88}, {"time": 27760, "pitch": 40, "duration": 10, "velocity": 76}, {"time": 27840, "pitch": 40, "duration": 10, "velocity": 120}, {"time": 27920, "pitch": 40, "duration": 10, "velocity": 64}, {"time": 28000, "pitch": 43, "duration": 10, "velocity": 120}, {"time": 28080, "pitch": 40, "duration": 10, "velocity": 84}, {"time": 28161, "pitch": 40, "duration": 10, "velocity": 64}, {"time": 28241, "pitch": 40, "duration": 10, "velocity": 64}, {"time": 28321, "pitch": 40, "duration": 10, "velocity": 104}, {"time": 28401, "pitch": 40, "duration": 10, "velocity": 92}, {"time": 28481, "pitch": 40, "duration": 10, "velocity": 92}, {"time": 28561, "pitch": 50, "duration": 10, "velocity": 104}, {"time": 28642, "pitch": 50, "duration": 10, "velocity": 92}, {"time": 28722, "pitch": 50, "duration": 10, "velocity": 92}, {"time": 28802, "pitch": 47, "duration": 10, "velocity": 104}, {"time": 28882, "pitch": 47, "duration": 10, "velocity": 92}, {"time": 28962, "pitch": 47, "duration": 10, "velocity": 92}, {"time": 29043, "pitch": 43, "duration": 10, "velocity": 104}, {"time": 29123, "pitch": 43, "duration": 10, "velocity": 92}, {"time": 29203, "pitch": 43, "duration": 10, "velocity": 92}, {"time": 29283, "pitch": 36, "duration": 138, "velocity": 125}, {"time": 29283, "pitch": 42, "duration": 119, "velocity": 79}, {"time": 29283, "pitch": 49, "duration": 109, "velocity": 116}, {"time": 29283, "pitch": 54, "duration": 109, "velocity": 84}, {"time": 29510, "pitch": 42, "duration": 99, "velocity": 70}, {"time": 29520, "pitch": 36, "duration": 178, "velocity": 120}, {"time": 29520, "pitch": 54, "duration": 119, "velocity": 52}, {"time": 29748, "pitch": 40, "duration": 40, "velocity": 120}, {"time": 29748, "pitch": 42, "duration": 90, "velocity": 79}, {"time": 29758, "pitch": 54, "duration": 110, "velocity": 82}, {"time": 29868, "pitch": 40, "duration": 50, "velocity": 127}, {"time": 29988, "pitch": 42, "duration": 110, "velocity": 74}, {"time": 29988, "pitch": 54, "duration": 110, "velocity": 60}, {"time": 30108, "pitch": 36, "duration": 101, "velocity": 104}, {"time": 30229, "pitch": 42, "duration": 100, "velocity": 64}, {"time": 30229, "pitch": 54, "duration": 130, "velocity": 61}, {"time": 30349, "pitch": 36, "duration": 50, "velocity": 68}, {"time": 30469, "pitch": 42, "duration": 100, "velocity": 65}, {"time": 30469, "pitch": 54, "duration": 120, "velocity": 58}, {"time": 30479, "pitch": 36, "duration": 40, "velocity": 84}, {"time": 30589, "pitch": 36, "duration": 71, "velocity": 102}, {"time": 30710, "pitch": 40, "duration": 40, "velocity": 127}, {"time": 30710, "pitch": 42, "duration": 80, "velocity": 101}, {"time": 30710, "pitch": 54, "duration": 120, "velocity": 84}, {"time": 30830, "pitch": 40, "duration": 70, "velocity": 127}, {"time": 30950, "pitch": 42, "duration": 100, "velocity": 67}, {"time": 30950, "pitch": 54, "duration": 120, "velocity": 61}, {"time": 31081, "pitch": 36, "duration": 40, "velocity": 78}, {"time": 31191, "pitch": 36, "duration": 110, "velocity": 110}, {"time": 31201, "pitch": 42, "duration": 90, "velocity": 74}, {"time": 31201, "pitch": 54, "duration": 140, "velocity": 87}, {"time": 31431, "pitch": 36, "duration": 151, "velocity": 114}, {"time": 31441, "pitch": 42, "duration": 80, "velocity": 67}, {"time": 31441, "pitch": 54, "duration": 121, "velocity": 58}, {"time": 31672, "pitch": 40, "duration": 100, "velocity": 127}, {"time": 31672, "pitch": 42, "duration": 80, "velocity": 95}, {"time": 31682, "pitch": 54, "duration": 120, "velocity": 89}, {"time": 31912, "pitch": 40, "duration": 61, "velocity": 127}, {"time": 31912, "pitch": 42, "duration": 91, "velocity": 68}, {"time": 31912, "pitch": 54, "duration": 131, "velocity": 64}, {"time": 32033, "pitch": 36, "duration": 100, "velocity": 92}, {"time": 32153, "pitch": 42, "duration": 109, "velocity": 75}, {"time": 32153, "pitch": 54, "duration": 138, "velocity": 51}, {"time": 32272, "pitch": 36, "duration": 49, "velocity": 77}, {"time": 32390, "pitch": 36, "duration": 60, "velocity": 97}, {"time": 32390, "pitch": 42, "duration": 89, "velocity": 67}, {"time": 32400, "pitch": 54, "duration": 79, "velocity": 64}, {"time": 32509, "pitch": 36, "duration": 69, "velocity": 108}, {"time": 32628, "pitch": 40, "duration": 39, "velocity": 127}, {"time": 32628, "pitch": 42, "duration": 80, "velocity": 93}, {"time": 32628, "pitch": 54, "duration": 120, "velocity": 97}, {"time": 32748, "pitch": 40, "duration": 70, "velocity": 127}, {"time": 32868, "pitch": 42, "duration": 100, "velocity": 61}, {"time": 32868, "pitch": 54, "duration": 130, "velocity": 56}, {"time": 33108, "pitch": 36, "duration": 101, "velocity": 104}, {"time": 33108, "pitch": 42, "duration": 101, "velocity": 67}, {"time": 33108, "pitch": 54, "duration": 151, "velocity": 67}, {"time": 33108, "pitch": 57, "duration": 81, "velocity": 104}, {"time": 33349, "pitch": 36, "duration": 120, "velocity": 100}, {"time": 33359, "pitch": 42, "duration": 80, "velocity": 61}, {"time": 33359, "pitch": 54, "duration": 80, "velocity": 51}, {"time": 33590, "pitch": 40, "duration": 50, "velocity": 125}, {"time": 33590, "pitch": 42, "duration": 90, "velocity": 95}, {"time": 33590, "pitch": 54, "duration": 130, "velocity": 95}, {"time": 33710, "pitch": 40, "duration": 60, "velocity": 127}, {"time": 33830, "pitch": 42, "duration": 100, "velocity": 68}, {"time": 33830, "pitch": 54, "duration": 120, "velocity": 61}, {"time": 33950, "pitch": 36, "duration": 101, "velocity": 98}, {"time": 34071, "pitch": 42, "duration": 90, "velocity": 71}, {"time": 34071, "pitch": 54, "duration": 140, "velocity": 70}, {"time": 34201, "pitch": 36, "duration": 60, "velocity": 66}, {"time": 34311, "pitch": 42, "duration": 80, "velocity": 73}, {"time": 34311, "pitch": 54, "duration": 110, "velocity": 61}, {"time": 34321, "pitch": 36, "duration": 50, "velocity": 80}, {"time": 34441, "pitch": 36, "duration": 91, "velocity": 98}, {"time": 34552, "pitch": 40, "duration": 50, "velocity": 127}, {"time": 34552, "pitch": 42, "duration": 90, "velocity": 89}, {"time": 34552, "pitch": 54, "duration": 130, "velocity": 95}, {"time": 34682, "pitch": 40, "duration": 60, "velocity": 127}, {"time": 34792, "pitch": 42, "duration": 90, "velocity": 68}, {"time": 34792, "pitch": 54, "duration": 121, "velocity": 61}, {"time": 34923, "pitch": 36, "duration": 50, "velocity": 76}, {"time": 35033, "pitch": 54, "duration": 119, "velocity": 74}, {"time": 35043, "pitch": 36, "duration": 89, "velocity": 106}, {"time": 35043, "pitch": 42, "duration": 89, "velocity": 81}, {"time": 35270, "pitch": 36, "duration": 139, "velocity": 110}, {"time": 35270, "pitch": 54, "duration": 99, "velocity": 62}, {"time": 35280, "pitch": 42, "duration": 99, "velocity": 70}, {"time": 35507, "pitch": 40, "duration": 70, "velocity": 127}, {"time": 35507, "pitch": 54, "duration": 121, "velocity": 87}, {"time": 35517, "pitch": 42, "duration": 91, "velocity": 87}, {"time": 35748, "pitch": 40, "duration": 70, "velocity": 114}, {"time": 35748, "pitch": 42, "duration": 80, "velocity": 65}, {"time": 35748, "pitch": 54, "duration": 120, "velocity": 67}, {"time": 35868, "pitch": 36, "duration": 120, "velocity": 106}, {"time": 35988, "pitch": 42, "duration": 81, "velocity": 62}, {"time": 35988, "pitch": 54, "duration": 131, "velocity": 74}, {"time": 36109, "pitch": 36, "duration": 50, "velocity": 74}, {"time": 36229, "pitch": 36, "duration": 70, "velocity": 97}, {"time": 36229, "pitch": 42, "duration": 80, "velocity": 77}, {"time": 36229, "pitch": 54, "duration": 110, "velocity": 54}, {"time": 36349, "pitch": 36, "duration": 80, "velocity": 97}, {"time": 36469, "pitch": 40, "duration": 51, "velocity": 127}, {"time": 36469, "pitch": 42, "duration": 81, "velocity": 95}, {"time": 36469, "pitch": 54, "duration": 121, "velocity": 87}, {"time": 36600, "pitch": 40, "duration": 60, "velocity": 127}, {"time": 36710, "pitch": 42, "duration": 90, "velocity": 63}, {"time": 36710, "pitch": 54, "duration": 130, "velocity": 58}, {"time": 36961, "pitch": 36, "duration": 140, "velocity": 125}, {"time": 36961, "pitch": 42, "duration": 120, "velocity": 79}, {"time": 36961, "pitch": 49, "duration": 100, "velocity": 119}, {"time": 36961, "pitch": 54, "duration": 110, "velocity": 84}, {"time": 37191, "pitch": 42, "duration": 100, "velocity": 70}, {"time": 37201, "pitch": 36, "duration": 180, "velocity": 120}, {"time": 37201, "pitch": 54, "duration": 120, "velocity": 52}, {"time": 37432, "pitch": 40, "duration": 40, "velocity": 120}, {"time": 37432, "pitch": 42, "duration": 90, "velocity": 79}, {"time": 37442, "pitch": 54, "duration": 110, "velocity": 82}, {"time": 37552, "pitch": 40, "duration": 50, "velocity": 127}, {"time": 37672, "pitch": 42, "duration": 110, "velocity": 74}, {"time": 37672, "pitch": 54, "duration": 110, "velocity": 60}, {"time": 37792, "pitch": 36, "duration": 101, "velocity": 104}, {"time": 37913, "pitch": 42, "duration": 99, "velocity": 64}, {"time": 37913, "pitch": 54, "duration": 128, "velocity": 61}, {"time": 38031, "pitch": 36, "duration": 50, "velocity": 68}, {"time": 38150, "pitch": 42, "duration": 99, "velocity": 65}, {"time": 38150, "pitch": 54, "duration": 119, "velocity": 58}, {"time": 38160, "pitch": 36, "duration": 39, "velocity": 84}, {"time": 38269, "pitch": 36, "duration": 69, "velocity": 102}, {"time": 38387, "pitch": 40, "duration": 40, "velocity": 127}, {"time": 38387, "pitch": 42, "duration": 80, "velocity": 101}, {"time": 38387, "pitch": 54, "duration": 120, "velocity": 84}, {"time": 38507, "pitch": 40, "duration": 71, "velocity": 127}, {"time": 38628, "pitch": 42, "duration": 100, "velocity": 67}, {"time": 38628, "pitch": 54, "duration": 120, "velocity": 61}, {"time": 38758, "pitch": 36, "duration": 40, "velocity": 78}, {"time": 38868, "pitch": 36, "duration": 110, "velocity": 110}, {"time": 38878, "pitch": 42, "duration": 90, "velocity": 74}, {"time": 38878, "pitch": 54, "duration": 141, "velocity": 87}, {"time": 39109, "pitch": 36, "duration": 150, "velocity": 114}, {"time": 39119, "pitch": 42, "duration": 80, "velocity": 67}, {"time": 39119, "pitch": 54, "duration": 120, "velocity": 58}, {"time": 39349, "pitch": 40, "duration": 101, "velocity": 127}, {"time": 39349, "pitch": 42, "duration": 80, "velocity": 95}, {"time": 39359, "pitch": 54, "duration": 121, "velocity": 89}, {"time": 39590, "pitch": 40, "duration": 60, "velocity": 127}, {"time": 39590, "pitch": 42, "duration": 90, "velocity": 68}, {"time": 39590, "pitch": 54, "duration": 130, "velocity": 64}, {"time": 39710, "pitch": 36, "duration": 100, "velocity": 92}, {"time": 39830, "pitch": 42, "duration": 111, "velocity": 75}, {"time": 39830, "pitch": 54, "duration": 141, "velocity": 51}, {"time": 39951, "pitch": 36, "duration": 50, "velocity": 77}, {"time": 40071, "pitch": 36, "duration": 60, "velocity": 97}, {"time": 40071, "pitch": 42, "duration": 90, "velocity": 67}, {"time": 40081, "pitch": 54, "duration": 80, "velocity": 64}, {"time": 40191, "pitch": 36, "duration": 70, "velocity": 108}, {"time": 40311, "pitch": 40, "duration": 41, "velocity": 127}, {"time": 40311, "pitch": 42, "duration": 81, "velocity": 93}, {"time": 40311, "pitch": 54, "duration": 121, "velocity": 97}, {"time": 40432, "pitch": 40, "duration": 70, "velocity": 127}, {"time": 40552, "pitch": 42, "duration": 100, "velocity": 61}, {"time": 40552, "pitch": 54, "duration": 130, "velocity": 56}, {"time": 40793, "pitch": 36, "duration": 98, "velocity": 104}, {"time": 40793, "pitch": 42, "duration": 98, "velocity": 67}, {"time": 40793, "pitch": 54, "duration": 148, "velocity": 67}, {"time": 40793, "pitch": 57, "duration": 79, "velocity": 104}, {"time": 41030, "pitch": 36, "duration": 119, "velocity": 100}, {"time": 41040, "pitch": 42, "duration": 79, "velocity": 61}, {"time": 41040, "pitch": 54, "duration": 79, "velocity": 51}, {"time": 41267, "pitch": 40, "duration": 50, "velocity": 125}, {"time": 41267, "pitch": 42, "duration": 90, "velocity": 95}, {"time": 41267, "pitch": 54, "duration": 130, "velocity": 95}, {"time": 41387, "pitch": 40, "duration": 60, "velocity": 127}, {"time": 41508, "pitch": 42, "duration": 100, "velocity": 68}, {"time": 41508, "pitch": 54, "duration": 120, "velocity": 61}, {"time": 41628, "pitch": 36, "duration": 100, "velocity": 98}, {"time": 41748, "pitch": 42, "duration": 90, "velocity": 71}, {"time": 41748, "pitch": 54, "duration": 140, "velocity": 70}, {"time": 41878, "pitch": 36, "duration": 61, "velocity": 66}, {"time": 41989, "pitch": 42, "duration": 80, "velocity": 73}, {"time": 41989, "pitch": 54, "duration": 110, "velocity": 61}, {"time": 41999, "pitch": 36, "duration": 50, "velocity": 80}, {"time": 42119, "pitch": 36, "duration": 90, "velocity": 98}, {"time": 42229, "pitch": 40, "duration": 50, "velocity": 127}, {"time": 42229, "pitch": 42, "duration": 90, "velocity": 89}, {"time": 42229, "pitch": 54, "duration": 130, "velocity": 95}, {"time": 42359, "pitch": 40, "duration": 61, "velocity": 127}, {"time": 42470, "pitch": 42, "duration": 90, "velocity": 68}, {"time": 42470, "pitch": 54, "duration": 120, "velocity": 61}, {"time": 42600, "pitch": 36, "duration": 50, "velocity": 76}, {"time": 42710, "pitch": 54, "duration": 121, "velocity": 74}, {"time": 42720, "pitch": 36, "duration": 90, "velocity": 106}, {"time": 42720, "pitch": 42, "duration": 90, "velocity": 81}, {"time": 42951, "pitch": 36, "duration": 140, "velocity": 110}, {"time": 42951, "pitch": 54, "duration": 100, "velocity": 62}, {"time": 42961, "pitch": 42, "duration": 100, "velocity": 70}, {"time": 43191, "pitch": 40, "duration": 70, "velocity": 127}, {"time": 43191, "pitch": 54, "duration": 121, "velocity": 87}, {"time": 43201, "pitch": 42, "duration": 91, "velocity": 87}, {"time": 43432, "pitch": 40, "duration": 70, "velocity": 114}, {"time": 43432, "pitch": 42, "duration": 80, "velocity": 65}, {"time": 43432, "pitch": 54, "duration": 120, "velocity": 67}, {"time": 43552, "pitch": 36, "duration": 120, "velocity": 106}, {"time": 43672, "pitch": 42, "duration": 80, "velocity": 62}, {"time": 43672, "pitch": 54, "duration": 129, "velocity": 74}, {"time": 43791, "pitch": 36, "duration": 50, "velocity": 74}, {"time": 43910, "pitch": 36, "duration": 69, "velocity": 97}, {"time": 43910, "pitch": 42, "duration": 79, "velocity": 77}, {"time": 43910, "pitch": 54, "duration": 109, "velocity": 54}, {"time": 44028, "pitch": 36, "duration": 80, "velocity": 97}, {"time": 44147, "pitch": 40, "duration": 50, "velocity": 127}, {"time": 44147, "pitch": 42, "duration": 80, "velocity": 95}, {"time": 44147, "pitch": 54, "duration": 120, "velocity": 87}, {"time": 44277, "pitch": 40, "duration": 60, "velocity": 127}, {"time": 44387, "pitch": 42, "duration": 91, "velocity": 63}, {"time": 44387, "pitch": 54, "duration": 131, "velocity": 58}, {"time": 44638, "pitch": 36, "duration": 140, "velocity": 125}, {"time": 44638, "pitch": 42, "duration": 120, "velocity": 79}, {"time": 44638, "pitch": 52, "duration": 100, "velocity": 119}, {"time": 44638, "pitch": 54, "duration": 110, "velocity": 84}, {"time": 44869, "pitch": 42, "duration": 100, "velocity": 70}, {"time": 44879, "pitch": 36, "duration": 180, "velocity": 120}, {"time": 44879, "pitch": 54, "duration": 120, "velocity": 52}, {"time": 45109, "pitch": 40, "duration": 40, "velocity": 120}, {"time": 45109, "pitch": 42, "duration": 90, "velocity": 79}, {"time": 45119, "pitch": 54, "duration": 110, "velocity": 82}, {"time": 45229, "pitch": 40, "duration": 50, "velocity": 127}, {"time": 45350, "pitch": 42, "duration": 110, "velocity": 74}, {"time": 45350, "pitch": 54, "duration": 110, "velocity": 60}, {"time": 45470, "pitch": 36, "duration": 100, "velocity": 104}, {"time": 45590, "pitch": 42, "duration": 100, "velocity": 64}, {"time": 45590, "pitch": 54, "duration": 130, "velocity": 61}, {"time": 45710, "pitch": 36, "duration": 51, "velocity": 68}, {"time": 45831, "pitch": 42, "duration": 100, "velocity": 65}, {"time": 45831, "pitch": 54, "duration": 120, "velocity": 58}, {"time": 45841, "pitch": 36, "duration": 40, "velocity": 84}, {"time": 45951, "pitch": 36, "duration": 70, "velocity": 102}, {"time": 46071, "pitch": 40, "duration": 40, "velocity": 127}, {"time": 46071, "pitch": 42, "duration": 80, "velocity": 101}, {"time": 46071, "pitch": 54, "duration": 120, "velocity": 84}, {"time": 46191, "pitch": 40, "duration": 71, "velocity": 127}, {"time": 46312, "pitch": 42, "duration": 100, "velocity": 67}, {"time": 46312, "pitch": 54, "duration": 120, "velocity": 61}, {"time": 46442, "pitch": 36, "duration": 40, "velocity": 78}, {"time": 46562, "pitch": 36, "duration": 99, "velocity": 106}, {"time": 46562, "pitch": 49, "duration": 99, "velocity": 119}, {"time": 46562, "pitch": 54, "duration": 129, "velocity": 66}, {"time": 46790, "pitch": 36, "duration": 138, "velocity": 104}, {"time": 46790, "pitch": 42, "duration": 79, "velocity": 73}, {"time": 46790, "pitch": 54, "duration": 89, "velocity": 61}, {"time": 47027, "pitch": 40, "duration": 120, "velocity": 127}, {"time": 47027, "pitch": 42, "duration": 70, "velocity": 97}, {"time": 47027, "pitch": 54, "duration": 120, "velocity": 95}, {"time": 47267, "pitch": 42, "duration": 80, "velocity": 67}, {"time": 47267, "pitch": 54, "duration": 111, "velocity": 59}, {"time": 47378, "pitch": 36, "duration": 20, "velocity": 76}, {"time": 47448, "pitch": 36, "duration": 30, "velocity": 67}, {"time": 47508, "pitch": 36, "duration": 50, "velocity": 91}, {"time": 47508, "pitch": 42, "duration": 60, "velocity": 70}, {"time": 47508, "pitch": 54, "duration": 130, "velocity": 73}, {"time": 47628, "pitch": 36, "duration": 50, "velocity": 108}, {"time": 47698, "pitch": 36, "duration": 40, "velocity": 71}, {"time": 47738, "pitch": 42, "duration": 71, "velocity": 75}, {"time": 47758, "pitch": 36, "duration": 51, "velocity": 83}, {"time": 47758, "pitch": 54, "duration": 91, "velocity": 67}, {"time": 47879, "pitch": 36, "duration": 40, "velocity": 104}, {"time": 47939, "pitch": 36, "duration": 50, "velocity": 72}, {"time": 47989, "pitch": 42, "duration": 60, "velocity": 101}, {"time": 47989, "pitch": 54, "duration": 110, "velocity": 97}, {"time": 47999, "pitch": 40, "duration": 70, "velocity": 127}, {"time": 48229, "pitch": 36, "duration": 61, "velocity": 125}, {"time": 48229, "pitch": 42, "duration": 61, "velocity": 85}, {"time": 48229, "pitch": 54, "duration": 101, "velocity": 66}, {"time": 48470, "pitch": 42, "duration": 60, "velocity": 79}, {"time": 48480, "pitch": 36, "duration": 100, "velocity": 106}, {"time": 48480, "pitch": 49, "duration": 100, "velocity": 119}, {"time": 48480, "pitch": 54, "duration": 130, "velocity": 66}, {"time": 48711, "pitch": 36, "duration": 140, "velocity": 104}, {"time": 48711, "pitch": 42, "duration": 80, "velocity": 73}, {"time": 48711, "pitch": 54, "duration": 90, "velocity": 61}, {"time": 48951, "pitch": 40, "duration": 120, "velocity": 127}, {"time": 48951, "pitch": 42, "duration": 70, "velocity": 97}, {"time": 48951, "pitch": 54, "duration": 120, "velocity": 95}, {"time": 49192, "pitch": 42, "duration": 80, "velocity": 67}, {"time": 49192, "pitch": 54, "duration": 110, "velocity": 59}, {"time": 49302, "pitch": 36, "duration": 20, "velocity": 76}, {"time": 49372, "pitch": 36, "duration": 30, "velocity": 67}, {"time": 49432, "pitch": 36, "duration": 50, "velocity": 91}, {"time": 49432, "pitch": 42, "duration": 60, "velocity": 70}, {"time": 49432, "pitch": 54, "duration": 130, "velocity": 73}, {"time": 49552, "pitch": 36, "duration": 51, "velocity": 108}, {"time": 49623, "pitch": 36, "duration": 40, "velocity": 71}, {"time": 49663, "pitch": 42, "duration": 70, "velocity": 75}, {"time": 49683, "pitch": 36, "duration": 50, "velocity": 83}, {"time": 49683, "pitch": 54, "duration": 90, "velocity": 67}, {"time": 49803, "pitch": 36, "duration": 40, "velocity": 104}, {"time": 49863, "pitch": 36, "duration": 50, "velocity": 72}, {"time": 49913, "pitch": 42, "duration": 60, "velocity": 101}, {"time": 49913, "pitch": 54, "duration": 109, "velocity": 97}, {"time": 49923, "pitch": 40, "duration": 69, "velocity": 127}, {"time": 50151, "pitch": 36, "duration": 59, "velocity": 125}, {"time": 50151, "pitch": 42, "duration": 59, "velocity": 85}, {"time": 50151, "pitch": 54, "duration": 98, "velocity": 66}, {"time": 50398, "pitch": 36, "duration": 90, "velocity": 106}, {"time": 50398, "pitch": 42, "duration": 90, "velocity": 81}, {"time": 50628, "pitch": 36, "duration": 141, "velocity": 110}, {"time": 50628, "pitch": 54, "duration": 100, "velocity": 62}, {"time": 50638, "pitch": 42, "duration": 101, "velocity": 70}, {"time": 50869, "pitch": 40, "duration": 70, "velocity": 127}, {"time": 50869, "pitch": 54, "duration": 120, "velocity": 87}, {"time": 50879, "pitch": 42, "duration": 90, "velocity": 87}, {"time": 51109, "pitch": 40, "duration": 70, "velocity": 114}, {"time": 51109, "pitch": 42, "duration": 81, "velocity": 65}, {"time": 51109, "pitch": 54, "duration": 121, "velocity": 67}, {"time": 51230, "pitch": 36, "duration": 120, "velocity": 106}, {"time": 51350, "pitch": 42, "duration": 80, "velocity": 62}, {"time": 51350, "pitch": 54, "duration": 130, "velocity": 74}, {"time": 51470, "pitch": 36, "duration": 50, "velocity": 74}, {"time": 51590, "pitch": 36, "duration": 71, "velocity": 97}, {"time": 51590, "pitch": 42, "duration": 81, "velocity": 77}, {"time": 51590, "pitch": 54, "duration": 111, "velocity": 54}, {"time": 51711, "pitch": 36, "duration": 80, "velocity": 97}, {"time": 51831, "pitch": 40, "duration": 50, "velocity": 127}, {"time": 51831, "pitch": 42, "duration": 80, "velocity": 95}, {"time": 51831, "pitch": 54, "duration": 120, "velocity": 87}, {"time": 51961, "pitch": 40, "duration": 60, "velocity": 127}, {"time": 52071, "pitch": 42, "duration": 91, "velocity": 63}, {"time": 52071, "pitch": 54, "duration": 131, "velocity": 58}, {"time": 52312, "pitch": 36, "duration": 100, "velocity": 106}, {"time": 52312, "pitch": 42, "duration": 60, "velocity": 79}, {"time": 52322, "pitch": 49, "duration": 100, "velocity": 119}, {"time": 52322, "pitch": 54, "duration": 130, "velocity": 66}, {"time": 52553, "pitch": 36, "duration": 140, "velocity": 104}, {"time": 52553, "pitch": 42, "duration": 80, "velocity": 73}, {"time": 52553, "pitch": 54, "duration": 90, "velocity": 61}, {"time": 52793, "pitch": 40, "duration": 119, "velocity": 127}, {"time": 52793, "pitch": 42, "duration": 69, "velocity": 97}, {"time": 52793, "pitch": 54, "duration": 119, "velocity": 95}, {"time": 53030, "pitch": 42, "duration": 80, "velocity": 67}, {"time": 53030, "pitch": 54, "duration": 109, "velocity": 59}, {"time": 53139, "pitch": 36, "duration": 20, "velocity": 76}, {"time": 53208, "pitch": 36, "duration": 30, "velocity": 67}, {"time": 53268, "pitch": 36, "duration": 50, "velocity": 91}, {"time": 53268, "pitch": 42, "duration": 60, "velocity": 70}, {"time": 53268, "pitch": 54, "duration": 130, "velocity": 73}, {"time": 53388, "pitch": 36, "duration": 50, "velocity": 108}, {"time": 53458, "pitch": 36, "duration": 40, "velocity": 71}, {"time": 53498, "pitch": 42, "duration": 70, "velocity": 75}, {"time": 53518, "pitch": 36, "duration": 50, "velocity": 83}, {"time": 53518, "pitch": 54, "duration": 90, "velocity": 67}, {"time": 53638, "pitch": 36, "duration": 41, "velocity": 104}, {"time": 53699, "pitch": 36, "duration": 50, "velocity": 72}, {"time": 53749, "pitch": 42, "duration": 60, "velocity": 101}, {"time": 53749, "pitch": 54, "duration": 110, "velocity": 97}, {"time": 53759, "pitch": 40, "duration": 70, "velocity": 127}, {"time": 53989, "pitch": 36, "duration": 60, "velocity": 125}, {"time": 53989, "pitch": 42, "duration": 60, "velocity": 85}, {"time": 53989, "pitch": 54, "duration": 100, "velocity": 66}, {"time": 54230, "pitch": 36, "duration": 100, "velocity": 106}, {"time": 54230, "pitch": 42, "duration": 60, "velocity": 79}, {"time": 54240, "pitch": 49, "duration": 100, "velocity": 119}, {"time": 54240, "pitch": 54, "duration": 130, "velocity": 66}, {"time": 54470, "pitch": 36, "duration": 141, "velocity": 104}, {"time": 54470, "pitch": 42, "duration": 80, "velocity": 73}, {"time": 54470, "pitch": 54, "duration": 90, "velocity": 61}, {"time": 54711, "pitch": 40, "duration": 120, "velocity": 127}, {"time": 54711, "pitch": 42, "duration": 70, "velocity": 97}, {"time": 54711, "pitch": 54, "duration": 120, "velocity": 95}, {"time": 54951, "pitch": 42, "duration": 81, "velocity": 67}, {"time": 54951, "pitch": 54, "duration": 111, "velocity": 59}, {"time": 55062, "pitch": 36, "duration": 20, "velocity": 76}, {"time": 55132, "pitch": 36, "duration": 30, "velocity": 67}, {"time": 55192, "pitch": 36, "duration": 50, "velocity": 91}, {"time": 55192, "pitch": 42, "duration": 60, "velocity": 70}, {"time": 55192, "pitch": 54, "duration": 130, "velocity": 73}, {"time": 55312, "pitch": 36, "duration": 50, "velocity": 108}, {"time": 55382, "pitch": 36, "duration": 40, "velocity": 71}, {"time": 55422, "pitch": 42, "duration": 71, "velocity": 75}, {"time": 55442, "pitch": 36, "duration": 51, "velocity": 83}, {"time": 55442, "pitch": 54, "duration": 91, "velocity": 67}, {"time": 55563, "pitch": 36, "duration": 40, "velocity": 104}, {"time": 55623, "pitch": 36, "duration": 50, "velocity": 72}, {"time": 55673, "pitch": 42, "duration": 59, "velocity": 101}, {"time": 55673, "pitch": 54, "duration": 109, "velocity": 97}, {"time": 55683, "pitch": 40, "duration": 69, "velocity": 127}, {"time": 55910, "pitch": 36, "duration": 60, "velocity": 125}, {"time": 55910, "pitch": 42, "duration": 60, "velocity": 85}, {"time": 55910, "pitch": 54, "duration": 99, "velocity": 66}, {"time": 58780, "pitch": 40, "duration": 10, "velocity": 127}, {"time": 58800, "pitch": 40, "duration": 119, "velocity": 127}, {"time": 59278, "pitch": 36, "duration": 120, "velocity": 127}, {"time": 59278, "pitch": 49, "duration": 120, "velocity": 127}, {"time": 59518, "pitch": 36, "duration": 121, "velocity": 127}, {"time": 59518, "pitch": 52, "duration": 121, "velocity": 127}, {"time": 62639, "pitch": 36, "duration": 60, "velocity": 110}, {"time": 62699, "pitch": 36, "duration": 60, "velocity": 110}, {"time": 62759, "pitch": 40, "duration": 60, "velocity": 110}, {"time": 62819, "pitch": 40, "duration": 60, "velocity": 127}, {"time": 63120, "pitch": 36, "duration": 120, "velocity": 127}, {"time": 63120, "pitch": 49, "duration": 120, "velocity": 127}, {"time": 63360, "pitch": 36, "duration": 121, "velocity": 127}, {"time": 63360, "pitch": 48, "duration": 10, "velocity": 120}, {"time": 63360, "pitch": 52, "duration": 121, "velocity": 127}, {"time": 63441, "pitch": 48, "duration": 10, "velocity": 106}, {"time": 63521, "pitch": 45, "duration": 10, "velocity": 120}, {"time": 63601, "pitch": 45, "duration": 10, "velocity": 106}, {"time": 63681, "pitch": 41, "duration": 10, "velocity": 120}, {"time": 63761, "pitch": 41, "duration": 10, "velocity": 106}, {"time": 63842, "pitch": 36, "duration": 140, "velocity": 125}, {"time": 63842, "pitch": 49, "duration": 10, "velocity": 106}, {"time": 63842, "pitch": 52, "duration": 100, "velocity": 119}, {"time": 64072, "pitch": 42, "duration": 100, "velocity": 70}, {"time": 64082, "pitch": 36, "duration": 180, "velocity": 120}, {"time": 64082, "pitch": 54, "duration": 120, "velocity": 52}, {"time": 64313, "pitch": 40, "duration": 39, "velocity": 120}, {"time": 64313, "pitch": 42, "duration": 89, "velocity": 79}, {"time": 64323, "pitch": 54, "duration": 108, "velocity": 82}, {"time": 64431, "pitch": 40, "duration": 50, "velocity": 127}, {"time": 64550, "pitch": 42, "duration": 109, "velocity": 74}, {"time": 64550, "pitch": 54, "duration": 109, "velocity": 60}, {"time": 64669, "pitch": 36, "duration": 99, "velocity": 104}, {"time": 64787, "pitch": 42, "duration": 100, "velocity": 64}, {"time": 64787, "pitch": 54, "duration": 130, "velocity": 61}, {"time": 64907, "pitch": 36, "duration": 50, "velocity": 68}, {"time": 65028, "pitch": 42, "duration": 100, "velocity": 65}, {"time": 65028, "pitch": 54, "duration": 120, "velocity": 58}, {"time": 65038, "pitch": 36, "duration": 40, "velocity": 84}, {"time": 65148, "pitch": 36, "duration": 70, "velocity": 102}, {"time": 65268, "pitch": 40, "duration": 40, "velocity": 127}, {"time": 65268, "pitch": 42, "duration": 80, "velocity": 101}, {"time": 65268, "pitch": 54, "duration": 120, "velocity": 84}, {"time": 65388, "pitch": 40, "duration": 71, "velocity": 127}, {"time": 65509, "pitch": 42, "duration": 100, "velocity": 67}, {"time": 65509, "pitch": 54, "duration": 120, "velocity": 61}, {"time": 65639, "pitch": 36, "duration": 40, "velocity": 78}, {"time": 65749, "pitch": 36, "duration": 111, "velocity": 110}, {"time": 65759, "pitch": 42, "duration": 90, "velocity": 74}, {"time": 65759, "pitch": 54, "duration": 141, "velocity": 87}, {"time": 65990, "pitch": 36, "duration": 150, "velocity": 114}, {"time": 66000, "pitch": 42, "duration": 80, "velocity": 67}, {"time": 66000, "pitch": 54, "duration": 120, "velocity": 58}, {"time": 66230, "pitch": 40, "duration": 101, "velocity": 127}, {"time": 66230, "pitch": 42, "duration": 81, "velocity": 95}, {"time": 66240, "pitch": 54, "duration": 121, "velocity": 89}, {"time": 66471, "pitch": 40, "duration": 60, "velocity": 127}, {"time": 66471, "pitch": 42, "duration": 90, "velocity": 68}, {"time": 66471, "pitch": 54, "duration": 130, "velocity": 64}, {"time": 66591, "pitch": 36, "duration": 100, "velocity": 92}, {"time": 66711, "pitch": 42, "duration": 111, "velocity": 75}, {"time": 66711, "pitch": 54, "duration": 141, "velocity": 51}, {"time": 66832, "pitch": 36, "duration": 50, "velocity": 77}, {"time": 66952, "pitch": 36, "duration": 60, "velocity": 97}, {"time": 66952, "pitch": 42, "duration": 90, "velocity": 67}, {"time": 66962, "pitch": 54, "duration": 80, "velocity": 64}, {"time": 67072, "pitch": 36, "duration": 70, "velocity": 108}, {"time": 67192, "pitch": 40, "duration": 40, "velocity": 127}, {"time": 67192, "pitch": 42, "duration": 80, "velocity": 93}, {"time": 67192, "pitch": 54, "duration": 119, "velocity": 97}, {"time": 67311, "pitch": 40, "duration": 69, "velocity": 127}, {"time": 67430, "pitch": 42, "duration": 99, "velocity": 61}, {"time": 67430, "pitch": 54, "duration": 128, "velocity": 56}, {"time": 67667, "pitch": 36, "duration": 100, "velocity": 104}, {"time": 67667, "pitch": 42, "duration": 100, "velocity": 67}, {"time": 67667, "pitch": 54, "duration": 150, "velocity": 67}, {"time": 67667, "pitch": 57, "duration": 80, "velocity": 104}, {"time": 67908, "pitch": 36, "duration": 120, "velocity": 100}, {"time": 67918, "pitch": 42, "duration": 80, "velocity": 61}, {"time": 67918, "pitch": 54, "duration": 80, "velocity": 51}, {"time": 68148, "pitch": 40, "duration": 50, "velocity": 125}, {"time": 68148, "pitch": 42, "duration": 90, "velocity": 95}, {"time": 68148, "pitch": 54, "duration": 130, "velocity": 95}, {"time": 68268, "pitch": 40, "duration": 60, "velocity": 127}, {"time": 68389, "pitch": 42, "duration": 100, "velocity": 68}, {"time": 68389, "pitch": 54, "duration": 120, "velocity": 61}, {"time": 68509, "pitch": 36, "duration": 100, "velocity": 98}, {"time": 68629, "pitch": 42, "duration": 90, "velocity": 71}, {"time": 68629, "pitch": 54, "duration": 140, "velocity": 70}, {"time": 68759, "pitch": 36, "duration": 61, "velocity": 66}, {"time": 68870, "pitch": 42, "duration": 80, "velocity": 73}, {"time": 68870, "pitch": 54, "duration": 110, "velocity": 61}, {"time": 68880, "pitch": 36, "duration": 50, "velocity": 80}, {"time": 69000, "pitch": 36, "duration": 90, "velocity": 98}, {"time": 69110, "pitch": 40, "duration": 50, "velocity": 127}, {"time": 69110, "pitch": 42, "duration": 90, "velocity": 89}, {"time": 69110, "pitch": 54, "duration": 130, "velocity": 95}, {"time": 69240, "pitch": 40, "duration": 61, "velocity": 127}, {"time": 69351, "pitch": 42, "duration": 90, "velocity": 68}, {"time": 69351, "pitch": 54, "duration": 120, "velocity": 61}, {"time": 69481, "pitch": 36, "duration": 50, "velocity": 76}, {"time": 69591, "pitch": 54, "duration": 121, "velocity": 74}, {"time": 69601, "pitch": 36, "duration": 91, "velocity": 106}, {"time": 69601, "pitch": 42, "duration": 91, "velocity": 81}, {"time": 69832, "pitch": 36, "duration": 140, "velocity": 110}, {"time": 69832, "pitch": 54, "duration": 100, "velocity": 62}, {"time": 69842, "pitch": 42, "duration": 100, "velocity": 70}, {"time": 70072, "pitch": 40, "duration": 70, "velocity": 127}, {"time": 70072, "pitch": 54, "duration": 119, "velocity": 87}, {"time": 70082, "pitch": 42, "duration": 89, "velocity": 87}, {"time": 70310, "pitch": 40, "duration": 69, "velocity": 114}, {"time": 70310, "pitch": 42, "duration": 79, "velocity": 65}, {"time": 70310, "pitch": 54, "duration": 118, "velocity": 67}, {"time": 70428, "pitch": 36, "duration": 119, "velocity": 106}, {"time": 70547, "pitch": 42, "duration": 80, "velocity": 62}, {"time": 70547, "pitch": 54, "duration": 130, "velocity": 74}, {"time": 70667, "pitch": 36, "duration": 50, "velocity": 74}, {"time": 70787, "pitch": 36, "duration": 71, "velocity": 97}, {"time": 70787, "pitch": 42, "duration": 81, "velocity": 77}, {"time": 70787, "pitch": 54, "duration": 111, "velocity": 54}, {"time": 70908, "pitch": 36, "duration": 80, "velocity": 97}, {"time": 71028, "pitch": 40, "duration": 50, "velocity": 127}, {"time": 71028, "pitch": 42, "duration": 80, "velocity": 95}, {"time": 71028, "pitch": 54, "duration": 120, "velocity": 87}, {"time": 71158, "pitch": 40, "duration": 60, "velocity": 127}, {"time": 71268, "pitch": 42, "duration": 91, "velocity": 63}, {"time": 71268, "pitch": 54, "duration": 131, "velocity": 58}, {"time": 71519, "pitch": 36, "duration": 140, "velocity": 125}, {"time": 71519, "pitch": 42, "duration": 120, "velocity": 79}, {"time": 71519, "pitch": 49, "duration": 100, "velocity": 119}, {"time": 71519, "pitch": 54, "duration": 110, "velocity": 84}, {"time": 71750, "pitch": 42, "duration": 100, "velocity": 70}, {"time": 71760, "pitch": 36, "duration": 180, "velocity": 120}, {"time": 71760, "pitch": 54, "duration": 120, "velocity": 52}, {"time": 71990, "pitch": 40, "duration": 40, "velocity": 120}, {"time": 71990, "pitch": 42, "duration": 90, "velocity": 79}, {"time": 72000, "pitch": 54, "duration": 110, "velocity": 82}, {"time": 72110, "pitch": 40, "duration": 50, "velocity": 127}, {"time": 72231, "pitch": 42, "duration": 110, "velocity": 74}, {"time": 72231, "pitch": 54, "duration": 110, "velocity": 60}, {"time": 72351, "pitch": 36, "duration": 100, "velocity": 104}, {"time": 72471, "pitch": 42, "duration": 100, "velocity": 64}, {"time": 72471, "pitch": 54, "duration": 130, "velocity": 61}, {"time": 72591, "pitch": 36, "duration": 51, "velocity": 68}, {"time": 72712, "pitch": 42, "duration": 100, "velocity": 65}, {"time": 72712, "pitch": 54, "duration": 120, "velocity": 58}, {"time": 72722, "pitch": 36, "duration": 40, "velocity": 84}, {"time": 72832, "pitch": 36, "duration": 70, "velocity": 102}, {"time": 72952, "pitch": 40, "duration": 40, "velocity": 127}, {"time": 72952, "pitch": 42, "duration": 79, "velocity": 101}, {"time": 72952, "pitch": 54, "duration": 119, "velocity": 84}, {"time": 73071, "pitch": 40, "duration": 69, "velocity": 127}, {"time": 73190, "pitch": 42, "duration": 98, "velocity": 67}, {"time": 73190, "pitch": 54, "duration": 118, "velocity": 61}, {"time": 73318, "pitch": 36, "duration": 40, "velocity": 78}, {"time": 73427, "pitch": 36, "duration": 110, "velocity": 110}, {"time": 73437, "pitch": 42, "duration": 90, "velocity": 74}, {"time": 73437, "pitch": 54, "duration": 140, "velocity": 87}, {"time": 73667, "pitch": 36, "duration": 151, "velocity": 114}, {"time": 73677, "pitch": 42, "duration": 80, "velocity": 67}, {"time": 73677, "pitch": 54, "duration": 121, "velocity": 58}, {"time": 73908, "pitch": 40, "duration": 100, "velocity": 127}, {"time": 73908, "pitch": 42, "duration": 80, "velocity": 95}, {"time": 73918, "pitch": 54, "duration": 120, "velocity": 89}, {"time": 74148, "pitch": 40, "duration": 60, "velocity": 127}, {"time": 74148, "pitch": 42, "duration": 91, "velocity": 68}, {"time": 74148, "pitch": 54, "duration": 131, "velocity": 64}, {"time": 74269, "pitch": 36, "duration": 100, "velocity": 92}, {"time": 74389, "pitch": 42, "duration": 110, "velocity": 75}, {"time": 74389, "pitch": 54, "duration": 140, "velocity": 51}, {"time": 74509, "pitch": 36, "duration": 50, "velocity": 77}, {"time": 74629, "pitch": 36, "duration": 61, "velocity": 97}, {"time": 74629, "pitch": 42, "duration": 91, "velocity": 67}, {"time": 74639, "pitch": 54, "duration": 81, "velocity": 64}, {"time": 74750, "pitch": 36, "duration": 70, "velocity": 108}, {"time": 74870, "pitch": 40, "duration": 40, "velocity": 127}, {"time": 74870, "pitch": 42, "duration": 80, "velocity": 93}, {"time": 74870, "pitch": 54, "duration": 120, "velocity": 97}, {"time": 74990, "pitch": 40, "duration": 70, "velocity": 127}, {"time": 75110, "pitch": 42, "duration": 101, "velocity": 61}, {"time": 75110, "pitch": 54, "duration": 131, "velocity": 56}, {"time": 75351, "pitch": 36, "duration": 100, "velocity": 104}, {"time": 75351, "pitch": 42, "duration": 100, "velocity": 67}, {"time": 75351, "pitch": 54, "duration": 150, "velocity": 67}, {"time": 75351, "pitch": 57, "duration": 80, "velocity": 104}, {"time": 75592, "pitch": 36, "duration": 120, "velocity": 100}, {"time": 75602, "pitch": 42, "duration": 80, "velocity": 61}, {"time": 75602, "pitch": 54, "duration": 80, "velocity": 51}, {"time": 75832, "pitch": 40, "duration": 50, "velocity": 125}, {"time": 75832, "pitch": 42, "duration": 90, "velocity": 95}, {"time": 75832, "pitch": 54, "duration": 130, "velocity": 95}, {"time": 75952, "pitch": 40, "duration": 61, "velocity": 127}, {"time": 76073, "pitch": 42, "duration": 100, "velocity": 68}, {"time": 76073, "pitch": 54, "duration": 120, "velocity": 61}, {"time": 76193, "pitch": 36, "duration": 100, "velocity": 98}, {"time": 76313, "pitch": 42, "duration": 89, "velocity": 71}, {"time": 76313, "pitch": 54, "duration": 139, "velocity": 70}, {"time": 76442, "pitch": 36, "duration": 59, "velocity": 66}, {"time": 76551, "pitch": 42, "duration": 79, "velocity": 73}, {"time": 76551, "pitch": 54, "duration": 108, "velocity": 61}, {"time": 76560, "pitch": 36, "duration": 50, "velocity": 80}, {"time": 76679, "pitch": 36, "duration": 89, "velocity": 98}, {"time": 76788, "pitch": 40, "duration": 50, "velocity": 127}, {"time": 76788, "pitch": 42, "duration": 90, "velocity": 89}, {"time": 76788, "pitch": 54, "duration": 130, "velocity": 95}, {"time": 76918, "pitch": 40, "duration": 60, "velocity": 127}, {"time": 77028, "pitch": 42, "duration": 90, "velocity": 68}, {"time": 77028, "pitch": 54, "duration": 120, "velocity": 61}, {"time": 77159, "pitch": 36, "duration": 50, "velocity": 76}, {"time": 77269, "pitch": 54, "duration": 120, "velocity": 74}, {"time": 77279, "pitch": 36, "duration": 90, "velocity": 106}, {"time": 77279, "pitch": 42, "duration": 90, "velocity": 81}, {"time": 77509, "pitch": 36, "duration": 141, "velocity": 110}, {"time": 77509, "pitch": 54, "duration": 101, "velocity": 62}, {"time": 77519, "pitch": 42, "duration": 101, "velocity": 70}, {"time": 77750, "pitch": 40, "duration": 70, "velocity": 127}, {"time": 77750, "pitch": 54, "duration": 120, "velocity": 87}, {"time": 77760, "pitch": 42, "duration": 90, "velocity": 87}, {"time": 77990, "pitch": 40, "duration": 71, "velocity": 114}, {"time": 77990, "pitch": 42, "duration": 81, "velocity": 65}, {"time": 77990, "pitch": 54, "duration": 121, "velocity": 67}, {"time": 78111, "pitch": 36, "duration": 120, "velocity": 106}, {"time": 78231, "pitch": 42, "duration": 80, "velocity": 62}, {"time": 78231, "pitch": 54, "duration": 130, "velocity": 74}, {"time": 78351, "pitch": 36, "duration": 50, "velocity": 74}, {"time": 78471, "pitch": 36, "duration": 71, "velocity": 97}, {"time": 78471, "pitch": 42, "duration": 81, "velocity": 77}, {"time": 78471, "pitch": 54, "duration": 111, "velocity": 54}, {"time": 78592, "pitch": 36, "duration": 80, "velocity": 97}, {"time": 78712, "pitch": 40, "duration": 50, "velocity": 127}, {"time": 78712, "pitch": 42, "duration": 80, "velocity": 95}, {"time": 78712, "pitch": 54, "duration": 120, "velocity": 87}, {"time": 78842, "pitch": 40, "duration": 60, "velocity": 127}, {"time": 78953, "pitch": 42, "duration": 90, "velocity": 63}, {"time": 78953, "pitch": 54, "duration": 130, "velocity": 58}, {"time": 79203, "pitch": 36, "duration": 138, "velocity": 125}, {"time": 79203, "pitch": 42, "duration": 119, "velocity": 79}, {"time": 79203, "pitch": 52, "duration": 99, "velocity": 119}, {"time": 79203, "pitch": 54, "duration": 109, "velocity": 84}, {"time": 79430, "pitch": 42, "duration": 99, "velocity": 70}, {"time": 79440, "pitch": 36, "duration": 178, "velocity": 120}, {"time": 79440, "pitch": 54, "duration": 119, "velocity": 52}, {"time": 79668, "pitch": 40, "duration": 40, "velocity": 120}, {"time": 79668, "pitch": 42, "duration": 90, "velocity": 79}, {"time": 79678, "pitch": 54, "duration": 110, "velocity": 82}, {"time": 79788, "pitch": 40, "duration": 50, "velocity": 127}, {"time": 79908, "pitch": 42, "duration": 110, "velocity": 74}, {"time": 79908, "pitch": 54, "duration": 110, "velocity": 60}, {"time": 80028, "pitch": 36, "duration": 101, "velocity": 104}, {"time": 80149, "pitch": 42, "duration": 100, "velocity": 64}, {"time": 80149, "pitch": 54, "duration": 130, "velocity": 61}, {"time": 80269, "pitch": 36, "duration": 50, "velocity": 68}, {"time": 80389, "pitch": 42, "duration": 100, "velocity": 65}, {"time": 80389, "pitch": 54, "duration": 120, "velocity": 58}, {"time": 80399, "pitch": 36, "duration": 40, "velocity": 84}, {"time": 80509, "pitch": 36, "duration": 71, "velocity": 102}, {"time": 80630, "pitch": 40, "duration": 40, "velocity": 127}, {"time": 80630, "pitch": 42, "duration": 80, "velocity": 101}, {"time": 80630, "pitch": 54, "duration": 120, "velocity": 84}, {"time": 80750, "pitch": 40, "duration": 70, "velocity": 127}, {"time": 80870, "pitch": 42, "duration": 100, "velocity": 67}, {"time": 80870, "pitch": 54, "duration": 121, "velocity": 61}, {"time": 81001, "pitch": 36, "duration": 40, "velocity": 78}, {"time": 81121, "pitch": 36, "duration": 100, "velocity": 106}, {"time": 81121, "pitch": 49, "duration": 100, "velocity": 119}, {"time": 81121, "pitch": 54, "duration": 130, "velocity": 66}, {"time": 81351, "pitch": 36, "duration": 141, "velocity": 104}, {"time": 81351, "pitch": 42, "duration": 80, "velocity": 73}, {"time": 81351, "pitch": 54, "duration": 91, "velocity": 61}, {"time": 81592, "pitch": 40, "duration": 120, "velocity": 127}, {"time": 81592, "pitch": 42, "duration": 70, "velocity": 97}, {"time": 81592, "pitch": 54, "duration": 120, "velocity": 95}, {"time": 81832, "pitch": 42, "duration": 81, "velocity": 67}, {"time": 81832, "pitch": 54, "duration": 111, "velocity": 59}, {"time": 81943, "pitch": 36, "duration": 20, "velocity": 76}, {"time": 82013, "pitch": 36, "duration": 30, "velocity": 67}, {"time": 82073, "pitch": 36, "duration": 49, "velocity": 91}, {"time": 82073, "pitch": 42, "duration": 59, "velocity": 70}, {"time": 82073, "pitch": 54, "duration": 129, "velocity": 73}, {"time": 82192, "pitch": 36, "duration": 49, "velocity": 108}, {"time": 82261, "pitch": 36, "duration": 39, "velocity": 71}, {"time": 82300, "pitch": 42, "duration": 70, "velocity": 75}, {"time": 82320, "pitch": 36, "duration": 50, "velocity": 83}, {"time": 82320, "pitch": 54, "duration": 89, "velocity": 67}, {"time": 82439, "pitch": 36, "duration": 39, "velocity": 104}, {"time": 82498, "pitch": 36, "duration": 50, "velocity": 72}, {"time": 82548, "pitch": 42, "duration": 60, "velocity": 101}, {"time": 82548, "pitch": 54, "duration": 110, "velocity": 97}, {"time": 82557, "pitch": 40, "duration": 71, "velocity": 127}, {"time": 82788, "pitch": 36, "duration": 60, "velocity": 125}, {"time": 82788, "pitch": 42, "duration": 60, "velocity": 85}, {"time": 82788, "pitch": 54, "duration": 100, "velocity": 66}, {"time": 83029, "pitch": 42, "duration": 60, "velocity": 79}, {"time": 83039, "pitch": 36, "duration": 100, "velocity": 106}, {"time": 83039, "pitch": 49, "duration": 100, "velocity": 119}, {"time": 83039, "pitch": 54, "duration": 130, "velocity": 66}, {"time": 83269, "pitch": 36, "duration": 140, "velocity": 104}, {"time": 83269, "pitch": 42, "duration": 80, "velocity": 73}, {"time": 83269, "pitch": 54, "duration": 90, "velocity": 61}, {"time": 83510, "pitch": 40, "duration": 120, "velocity": 127}, {"time": 83510, "pitch": 42, "duration": 70, "velocity": 97}, {"time": 83510, "pitch": 54, "duration": 120, "velocity": 95}, {"time": 83750, "pitch": 42, "duration": 80, "velocity": 67}, {"time": 83750, "pitch": 54, "duration": 110, "velocity": 59}, {"time": 83860, "pitch": 36, "duration": 20, "velocity": 76}, {"time": 83931, "pitch": 36, "duration": 30, "velocity": 67}, {"time": 83991, "pitch": 36, "duration": 50, "velocity": 91}, {"time": 83991, "pitch": 42, "duration": 60, "velocity": 70}, {"time": 83991, "pitch": 54, "duration": 130, "velocity": 73}, {"time": 84111, "pitch": 36, "duration": 50, "velocity": 108}, {"time": 84181, "pitch": 36, "duration": 40, "velocity": 71}, {"time": 84221, "pitch": 42, "duration": 70, "velocity": 75}, {"time": 84241, "pitch": 36, "duration": 50, "velocity": 83}, {"time": 84241, "pitch": 54, "duration": 90, "velocity": 67}, {"time": 84361, "pitch": 36, "duration": 41, "velocity": 104}, {"time": 84422, "pitch": 36, "duration": 50, "velocity": 72}, {"time": 84472, "pitch": 42, "duration": 60, "velocity": 101}, {"time": 84472, "pitch": 54, "duration": 110, "velocity": 97}, {"time": 84482, "pitch": 40, "duration": 70, "velocity": 127}, {"time": 84712, "pitch": 36, "duration": 60, "velocity": 125}, {"time": 84712, "pitch": 42, "duration": 60, "velocity": 85}, {"time": 84712, "pitch": 54, "duration": 100, "velocity": 66}, {"time": 84963, "pitch": 36, "duration": 89, "velocity": 106}, {"time": 84963, "pitch": 42, "duration": 89, "velocity": 81}, {"time": 85190, "pitch": 36, "duration": 139, "velocity": 110}, {"time": 85190, "pitch": 54, "duration": 99, "velocity": 62}, {"time": 85200, "pitch": 42, "duration": 99, "velocity": 70}, {"time": 85427, "pitch": 40, "duration": 70, "velocity": 127}, {"time": 85427, "pitch": 54, "duration": 121, "velocity": 87}, {"time": 85437, "pitch": 42, "duration": 91, "velocity": 87}, {"time": 85668, "pitch": 40, "duration": 70, "velocity": 114}, {"time": 85668, "pitch": 42, "duration": 80, "velocity": 65}, {"time": 85668, "pitch": 54, "duration": 120, "velocity": 67}, {"time": 85788, "pitch": 36, "duration": 120, "velocity": 106}, {"time": 85908, "pitch": 42, "duration": 81, "velocity": 62}, {"time": 85908, "pitch": 54, "duration": 131, "velocity": 74}, {"time": 86029, "pitch": 36, "duration": 50, "velocity": 74}, {"time": 86149, "pitch": 36, "duration": 70, "velocity": 97}, {"time": 86149, "pitch": 42, "duration": 80, "velocity": 77}, {"time": 86149, "pitch": 54, "duration": 110, "velocity": 54}, {"time": 86269, "pitch": 36, "duration": 80, "velocity": 97}, {"time": 86389, "pitch": 40, "duration": 51, "velocity": 127}, {"time": 86389, "pitch": 42, "duration": 81, "velocity": 95}, {"time": 86389, "pitch": 54, "duration": 121, "velocity": 87}, {"time": 86520, "pitch": 40, "duration": 60, "velocity": 127}, {"time": 86630, "pitch": 42, "duration": 90, "velocity": 63}, {"time": 86630, "pitch": 54, "duration": 130, "velocity": 58}, {"time": 86871, "pitch": 36, "duration": 100, "velocity": 106}, {"time": 86871, "pitch": 42, "duration": 60, "velocity": 79}, {"time": 86881, "pitch": 49, "duration": 100, "velocity": 119}, {"time": 86881, "pitch": 54, "duration": 130, "velocity": 66}, {"time": 87111, "pitch": 36, "duration": 140, "velocity": 104}, {"time": 87111, "pitch": 42, "duration": 80, "velocity": 73}, {"time": 87111, "pitch": 54, "duration": 90, "velocity": 61}, {"time": 87352, "pitch": 40, "duration": 120, "velocity": 127}, {"time": 87352, "pitch": 42, "duration": 70, "velocity": 97}, {"time": 87352, "pitch": 54, "duration": 120, "velocity": 95}, {"time": 87592, "pitch": 42, "duration": 80, "velocity": 67}, {"time": 87592, "pitch": 54, "duration": 110, "velocity": 59}, {"time": 87702, "pitch": 36, "duration": 20, "velocity": 76}, {"time": 87773, "pitch": 36, "duration": 30, "velocity": 67}, {"time": 87833, "pitch": 36, "duration": 49, "velocity": 91}, {"time": 87833, "pitch": 42, "duration": 59, "velocity": 70}, {"time": 87833, "pitch": 54, "duration": 128, "velocity": 73}, {"time": 87951, "pitch": 36, "duration": 50, "velocity": 108}, {"time": 88021, "pitch": 36, "duration": 39, "velocity": 71}, {"time": 88060, "pitch": 42, "duration": 69, "velocity": 75}, {"time": 88080, "pitch": 36, "duration": 49, "velocity": 83}, {"time": 88080, "pitch": 54, "duration": 89, "velocity": 67}, {"time": 88199, "pitch": 36, "duration": 39, "velocity": 104}, {"time": 88258, "pitch": 36, "duration": 49, "velocity": 72}, {"time": 88307, "pitch": 42, "duration": 60, "velocity": 101}, {"time": 88307, "pitch": 54, "duration": 110, "velocity": 97}, {"time": 88317, "pitch": 40, "duration": 70, "velocity": 127}, {"time": 88548, "pitch": 36, "duration": 60, "velocity": 125}, {"time": 88548, "pitch": 42, "duration": 60, "velocity": 85}, {"time": 88548, "pitch": 54, "duration": 100, "velocity": 66}, {"time": 88788, "pitch": 36, "duration": 100, "velocity": 106}, {"time": 88788, "pitch": 42, "duration": 60, "velocity": 79}, {"time": 88798, "pitch": 49, "duration": 101, "velocity": 119}, {"time": 88798, "pitch": 54, "duration": 131, "velocity": 66}, {"time": 89029, "pitch": 36, "duration": 140, "velocity": 104}, {"time": 89029, "pitch": 42, "duration": 80, "velocity": 73}, {"time": 89029, "pitch": 54, "duration": 90, "velocity": 61}, {"time": 89269, "pitch": 40, "duration": 121, "velocity": 127}, {"time": 89269, "pitch": 42, "duration": 70, "velocity": 97}, {"time": 89269, "pitch": 54, "duration": 121, "velocity": 95}, {"time": 89510, "pitch": 42, "duration": 80, "velocity": 67}, {"time": 89510, "pitch": 54, "duration": 110, "velocity": 59}, {"time": 89620, "pitch": 36, "duration": 20, "velocity": 76}, {"time": 89690, "pitch": 36, "duration": 30, "velocity": 67}, {"time": 89750, "pitch": 36, "duration": 51, "velocity": 91}, {"time": 89750, "pitch": 42, "duration": 61, "velocity": 70}, {"time": 89750, "pitch": 54, "duration": 131, "velocity": 73}, {"time": 89871, "pitch": 36, "duration": 50, "velocity": 108}, {"time": 89941, "pitch": 36, "duration": 40, "velocity": 71}, {"time": 89981, "pitch": 42, "duration": 70, "velocity": 75}, {"time": 90001, "pitch": 36, "duration": 50, "velocity": 83}, {"time": 90001, "pitch": 54, "duration": 90, "velocity": 67}, {"time": 90121, "pitch": 36, "duration": 40, "velocity": 104}, {"time": 90181, "pitch": 36, "duration": 50, "velocity": 72}, {"time": 90231, "pitch": 42, "duration": 61, "velocity": 101}, {"time": 90231, "pitch": 54, "duration": 111, "velocity": 97}, {"time": 90242, "pitch": 40, "duration": 70, "velocity": 127}, {"time": 90472, "pitch": 36, "duration": 60, "velocity": 125}, {"time": 90472, "pitch": 42, "duration": 60, "velocity": 85}, {"time": 90472, "pitch": 54, "duration": 100, "velocity": 66}, {"time": 90723, "pitch": 36, "duration": 89, "velocity": 127}, {"time": 90723, "pitch": 38, "duration": 98, "velocity": 101}, {"time": 90723, "pitch": 49, "duration": 98, "velocity": 119}, {"time": 90723, "pitch": 52, "duration": 79, "velocity": 127}, {"time": 90960, "pitch": 36, "duration": 89, "velocity": 88}, {"time": 90960, "pitch": 52, "duration": 49, "velocity": 101}, {"time": 91197, "pitch": 36, "duration": 70, "velocity": 127}, {"time": 91197, "pitch": 38, "duration": 90, "velocity": 101}, {"time": 91197, "pitch": 52, "duration": 70, "velocity": 127}, {"time": 91438, "pitch": 36, "duration": 70, "velocity": 88}, {"time": 91438, "pitch": 52, "duration": 50, "velocity": 101}, {"time": 91678, "pitch": 36, "duration": 70, "velocity": 127}, {"time": 91678, "pitch": 38, "duration": 110, "velocity": 101}, {"time": 91678, "pitch": 52, "duration": 70, "velocity": 127}, {"time": 91919, "pitch": 36, "duration": 70, "velocity": 88}, {"time": 91919, "pitch": 52, "duration": 50, "velocity": 101}, {"time": 92159, "pitch": 36, "duration": 70, "velocity": 127}, {"time": 92159, "pitch": 38, "duration": 110, "velocity": 101}, {"time": 92159, "pitch": 52, "duration": 70, "velocity": 127}, {"time": 92400, "pitch": 36, "duration": 70, "velocity": 88}, {"time": 92400, "pitch": 52, "duration": 50, "velocity": 101}, {"time": 92640, "pitch": 36, "duration": 91, "velocity": 127}, {"time": 92640, "pitch": 38, "duration": 101, "velocity": 101}, {"time": 92640, "pitch": 52, "duration": 80, "velocity": 127}, {"time": 92881, "pitch": 36, "duration": 90, "velocity": 88}, {"time": 92881, "pitch": 52, "duration": 50, "velocity": 101}, {"time": 93121, "pitch": 36, "duration": 71, "velocity": 127}, {"time": 93121, "pitch": 38, "duration": 91, "velocity": 101}, {"time": 93121, "pitch": 52, "duration": 71, "velocity": 127}, {"time": 93362, "pitch": 36, "duration": 70, "velocity": 88}, {"time": 93362, "pitch": 52, "duration": 50, "velocity": 101}, {"time": 93602, "pitch": 36, "duration": 70, "velocity": 127}, {"time": 93602, "pitch": 38, "duration": 109, "velocity": 101}, {"time": 93602, "pitch": 52, "duration": 70, "velocity": 127}, {"time": 93840, "pitch": 36, "duration": 69, "velocity": 88}, {"time": 93840, "pitch": 52, "duration": 49, "velocity": 101}, {"time": 94077, "pitch": 36, "duration": 70, "velocity": 127}, {"time": 94077, "pitch": 38, "duration": 110, "velocity": 101}, {"time": 94077, "pitch": 52, "duration": 70, "velocity": 127}, {"time": 94317, "pitch": 36, "duration": 71, "velocity": 88}, {"time": 94317, "pitch": 52, "duration": 51, "velocity": 101}, {"time": 94558, "pitch": 36, "duration": 90, "velocity": 127}, {"time": 94558, "pitch": 38, "duration": 100, "velocity": 101}, {"time": 94558, "pitch": 52, "duration": 80, "velocity": 127}, {"time": 94799, "pitch": 36, "duration": 90, "velocity": 88}, {"time": 94799, "pitch": 52, "duration": 50, "velocity": 101}, {"time": 95039, "pitch": 36, "duration": 70, "velocity": 127}, {"time": 95039, "pitch": 38, "duration": 90, "velocity": 101}, {"time": 95039, "pitch": 52, "duration": 70, "velocity": 127}, {"time": 95280, "pitch": 36, "duration": 70, "velocity": 88}, {"time": 95280, "pitch": 52, "duration": 50, "velocity": 101}, {"time": 95520, "pitch": 36, "duration": 70, "velocity": 127}, {"time": 95520, "pitch": 38, "duration": 110, "velocity": 101}, {"time": 95520, "pitch": 52, "duration": 70, "velocity": 127}, {"time": 95761, "pitch": 36, "duration": 70, "velocity": 88}, {"time": 95761, "pitch": 52, "duration": 50, "velocity": 101}, {"time": 96001, "pitch": 36, "duration": 70, "velocity": 127}, {"time": 96001, "pitch": 38, "duration": 110, "velocity": 101}, {"time": 96001, "pitch": 52, "duration": 70, "velocity": 127}, {"time": 96242, "pitch": 36, "duration": 70, "velocity": 88}, {"time": 96242, "pitch": 52, "duration": 50, "velocity": 101}, {"time": 96482, "pitch": 36, "duration": 89, "velocity": 127}, {"time": 96482, "pitch": 38, "duration": 99, "velocity": 101}, {"time": 96482, "pitch": 52, "duration": 79, "velocity": 127}, {"time": 96720, "pitch": 36, "duration": 89, "velocity": 88}, {"time": 96720, "pitch": 52, "duration": 49, "velocity": 101}, {"time": 96957, "pitch": 36, "duration": 70, "velocity": 127}, {"time": 96957, "pitch": 38, "duration": 90, "velocity": 101}, {"time": 96957, "pitch": 52, "duration": 70, "velocity": 127}, {"time": 97197, "pitch": 36, "duration": 71, "velocity": 88}, {"time": 97197, "pitch": 52, "duration": 50, "velocity": 101}, {"time": 97438, "pitch": 36, "duration": 70, "velocity": 127}, {"time": 97438, "pitch": 38, "duration": 110, "velocity": 101}, {"time": 97438, "pitch": 52, "duration": 70, "velocity": 127}, {"time": 97678, "pitch": 36, "duration": 71, "velocity": 88}, {"time": 97678, "pitch": 52, "duration": 51, "velocity": 101}, {"time": 97919, "pitch": 36, "duration": 70, "velocity": 127}, {"time": 97919, "pitch": 38, "duration": 110, "velocity": 101}, {"time": 97919, "pitch": 52, "duration": 70, "velocity": 127}, {"time": 98160, "pitch": 36, "duration": 70, "velocity": 88}, {"time": 98160, "pitch": 52, "duration": 50, "velocity": 101}, {"time": 98400, "pitch": 36, "duration": 90, "velocity": 127}, {"time": 98400, "pitch": 38, "duration": 100, "velocity": 101}, {"time": 98400, "pitch": 49, "duration": 100, "velocity": 119}, {"time": 98400, "pitch": 52, "duration": 80, "velocity": 127}, {"time": 98641, "pitch": 36, "duration": 90, "velocity": 88}, {"time": 98641, "pitch": 52, "duration": 50, "velocity": 101}, {"time": 98881, "pitch": 36, "duration": 70, "velocity": 127}, {"time": 98881, "pitch": 38, "duration": 90, "velocity": 101}, {"time": 98881, "pitch": 52, "duration": 70, "velocity": 127}, {"time": 99122, "pitch": 36, "duration": 70, "velocity": 88}, {"time": 99122, "pitch": 52, "duration": 50, "velocity": 101}, {"time": 99362, "pitch": 36, "duration": 70, "velocity": 127}, {"time": 99362, "pitch": 38, "duration": 110, "velocity": 101}, {"time": 99362, "pitch": 52, "duration": 70, "velocity": 127}, {"time": 99603, "pitch": 36, "duration": 70, "velocity": 88}, {"time": 99603, "pitch": 52, "duration": 50, "velocity": 101}, {"time": 99843, "pitch": 36, "duration": 69, "velocity": 127}, {"time": 99843, "pitch": 38, "duration": 109, "velocity": 101}, {"time": 99843, "pitch": 52, "duration": 69, "velocity": 127}, {"time": 100081, "pitch": 36, "duration": 69, "velocity": 88}, {"time": 100081, "pitch": 52, "duration": 49, "velocity": 101}, {"time": 100318, "pitch": 36, "duration": 90, "velocity": 127}, {"time": 100318, "pitch": 38, "duration": 100, "velocity": 101}, {"time": 100318, "pitch": 52, "duration": 80, "velocity": 127}, {"time": 100558, "pitch": 36, "duration": 91, "velocity": 88}, {"time": 100558, "pitch": 52, "duration": 50, "velocity": 101}, {"time": 100799, "pitch": 36, "duration": 70, "velocity": 127}, {"time": 100799, "pitch": 38, "duration": 90, "velocity": 101}, {"time": 100799, "pitch": 52, "duration": 70, "velocity": 127}, {"time": 101039, "pitch": 36, "duration": 71, "velocity": 88}, {"time": 101039, "pitch": 52, "duration": 51, "velocity": 101}, {"time": 101280, "pitch": 36, "duration": 70, "velocity": 127}, {"time": 101280, "pitch": 38, "duration": 110, "velocity": 101}, {"time": 101280, "pitch": 52, "duration": 70, "velocity": 127}, {"time": 101520, "pitch": 36, "duration": 71, "velocity": 88}, {"time": 101520, "pitch": 52, "duration": 51, "velocity": 101}, {"time": 101761, "pitch": 36, "duration": 70, "velocity": 127}, {"time": 101761, "pitch": 38, "duration": 110, "velocity": 101}, {"time": 101761, "pitch": 52, "duration": 70, "velocity": 127}, {"time": 102002, "pitch": 36, "duration": 70, "velocity": 88}, {"time": 102002, "pitch": 52, "duration": 50, "velocity": 101}, {"time": 102242, "pitch": 36, "duration": 90, "velocity": 127}, {"time": 102242, "pitch": 38, "duration": 100, "velocity": 101}, {"time": 102242, "pitch": 52, "duration": 80, "velocity": 127}, {"time": 102483, "pitch": 36, "duration": 90, "velocity": 88}, {"time": 102483, "pitch": 52, "duration": 50, "velocity": 101}, {"time": 102723, "pitch": 36, "duration": 69, "velocity": 127}, {"time": 102723, "pitch": 38, "duration": 89, "velocity": 101}, {"time": 102723, "pitch": 52, "duration": 69, "velocity": 127}, {"time": 102960, "pitch": 36, "duration": 70, "velocity": 88}, {"time": 102960, "pitch": 52, "duration": 50, "velocity": 101}, {"time": 103198, "pitch": 36, "duration": 70, "velocity": 127}, {"time": 103198, "pitch": 38, "duration": 110, "velocity": 101}, {"time": 103198, "pitch": 52, "duration": 70, "velocity": 127}, {"time": 103438, "pitch": 36, "duration": 70, "velocity": 88}, {"time": 103438, "pitch": 52, "duration": 50, "velocity": 101}, {"time": 103679, "pitch": 36, "duration": 70, "velocity": 127}, {"time": 103679, "pitch": 38, "duration": 110, "velocity": 101}, {"time": 103679, "pitch": 52, "duration": 70, "velocity": 127}, {"time": 103919, "pitch": 36, "duration": 70, "velocity": 88}, {"time": 103919, "pitch": 52, "duration": 50, "velocity": 101}, {"time": 104160, "pitch": 36, "duration": 90, "velocity": 127}, {"time": 104160, "pitch": 38, "duration": 100, "velocity": 101}, {"time": 104160, "pitch": 52, "duration": 80, "velocity": 127}, {"time": 104400, "pitch": 36, "duration": 91, "velocity": 88}, {"time": 104400, "pitch": 52, "duration": 50, "velocity": 101}, {"time": 104641, "pitch": 36, "duration": 70, "velocity": 127}, {"time": 104641, "pitch": 38, "duration": 90, "velocity": 101}, {"time": 104641, "pitch": 52, "duration": 70, "velocity": 127}, {"time": 104881, "pitch": 36, "duration": 71, "velocity": 88}, {"time": 104881, "pitch": 52, "duration": 51, "velocity": 101}, {"time": 105122, "pitch": 36, "duration": 70, "velocity": 127}, {"time": 105122, "pitch": 38, "duration": 110, "velocity": 101}, {"time": 105122, "pitch": 52, "duration": 70, "velocity": 127}, {"time": 105362, "pitch": 36, "duration": 71, "velocity": 88}, {"time": 105362, "pitch": 52, "duration": 51, "velocity": 101}, {"time": 105603, "pitch": 36, "duration": 69, "velocity": 127}, {"time": 105603, "pitch": 38, "duration": 109, "velocity": 101}, {"time": 105603, "pitch": 52, "duration": 69, "velocity": 127}, {"time": 105840, "pitch": 36, "duration": 69, "velocity": 88}, {"time": 105840, "pitch": 52, "duration": 50, "velocity": 101}, {"time": 106078, "pitch": 36, "duration": 140, "velocity": 125}, {"time": 106078, "pitch": 42, "duration": 120, "velocity": 79}, {"time": 106078, "pitch": 52, "duration": 100, "velocity": 119}, {"time": 106308, "pitch": 42, "duration": 100, "velocity": 70}, {"time": 106318, "pitch": 36, "duration": 180, "velocity": 120}, {"time": 106318, "pitch": 54, "duration": 120, "velocity": 52}, {"time": 106549, "pitch": 40, "duration": 40, "velocity": 120}, {"time": 106549, "pitch": 42, "duration": 90, "velocity": 79}, {"time": 106559, "pitch": 54, "duration": 110, "velocity": 82}, {"time": 106669, "pitch": 40, "duration": 50, "velocity": 127}, {"time": 106789, "pitch": 42, "duration": 110, "velocity": 74}, {"time": 106789, "pitch": 54, "duration": 110, "velocity": 60}, {"time": 106909, "pitch": 36, "duration": 101, "velocity": 104}, {"time": 107030, "pitch": 42, "duration": 100, "velocity": 64}, {"time": 107030, "pitch": 54, "duration": 130, "velocity": 61}, {"time": 107150, "pitch": 36, "duration": 50, "velocity": 68}, {"time": 107270, "pitch": 42, "duration": 100, "velocity": 65}, {"time": 107270, "pitch": 54, "duration": 120, "velocity": 58}, {"time": 107280, "pitch": 36, "duration": 40, "velocity": 84}, {"time": 107390, "pitch": 36, "duration": 71, "velocity": 102}, {"time": 107511, "pitch": 40, "duration": 40, "velocity": 127}, {"time": 107511, "pitch": 42, "duration": 80, "velocity": 101}, {"time": 107511, "pitch": 54, "duration": 120, "velocity": 84}, {"time": 107631, "pitch": 40, "duration": 70, "velocity": 127}, {"time": 107751, "pitch": 42, "duration": 100, "velocity": 67}, {"time": 107751, "pitch": 54, "duration": 121, "velocity": 61}, {"time": 107882, "pitch": 36, "duration": 40, "velocity": 78}, {"time": 107992, "pitch": 36, "duration": 110, "velocity": 110}, {"time": 108002, "pitch": 42, "duration": 90, "velocity": 74}, {"time": 108002, "pitch": 54, "duration": 140, "velocity": 87}, {"time": 108232, "pitch": 36, "duration": 151, "velocity": 114}, {"time": 108242, "pitch": 42, "duration": 81, "velocity": 67}, {"time": 108242, "pitch": 54, "duration": 121, "velocity": 58}, {"time": 108473, "pitch": 40, "duration": 99, "velocity": 127}, {"time": 108473, "pitch": 42, "duration": 79, "velocity": 95}, {"time": 108483, "pitch": 54, "duration": 119, "velocity": 89}, {"time": 108710, "pitch": 40, "duration": 60, "velocity": 127}, {"time": 108710, "pitch": 42, "duration": 89, "velocity": 68}, {"time": 108710, "pitch": 54, "duration": 129, "velocity": 64}, {"time": 108829, "pitch": 36, "duration": 99, "velocity": 92}, {"time": 108948, "pitch": 42, "duration": 110, "velocity": 75}, {"time": 108948, "pitch": 54, "duration": 140, "velocity": 51}, {"time": 109068, "pitch": 36, "duration": 50, "velocity": 77}, {"time": 109188, "pitch": 36, "duration": 60, "velocity": 97}, {"time": 109188, "pitch": 42, "duration": 90, "velocity": 67}, {"time": 109198, "pitch": 54, "duration": 80, "velocity": 64}, {"time": 109308, "pitch": 36, "duration": 70, "velocity": 108}, {"time": 109428, "pitch": 40, "duration": 41, "velocity": 127}, {"time": 109428, "pitch": 42, "duration": 81, "velocity": 93}, {"time": 109428, "pitch": 54, "duration": 121, "velocity": 97}, {"time": 109549, "pitch": 40, "duration": 70, "velocity": 127}, {"time": 109669, "pitch": 42, "duration": 100, "velocity": 61}, {"time": 109669, "pitch": 54, "duration": 130, "velocity": 56}, {"time": 109910, "pitch": 36, "duration": 100, "velocity": 104}, {"time": 109910, "pitch": 42, "duration": 100, "velocity": 67}, {"time": 109910, "pitch": 54, "duration": 150, "velocity": 67}, {"time": 109910, "pitch": 57, "duration": 80, "velocity": 104}, {"time": 110150, "pitch": 36, "duration": 120, "velocity": 100}, {"time": 110160, "pitch": 42, "duration": 80, "velocity": 61}, {"time": 110160, "pitch": 54, "duration": 80, "velocity": 51}, {"time": 110391, "pitch": 40, "duration": 50, "velocity": 125}, {"time": 110391, "pitch": 42, "duration": 90, "velocity": 95}, {"time": 110391, "pitch": 54, "duration": 130, "velocity": 95}, {"time": 110511, "pitch": 40, "duration": 60, "velocity": 127}, {"time": 110631, "pitch": 42, "duration": 100, "velocity": 68}, {"time": 110631, "pitch": 54, "duration": 120, "velocity": 61}, {"time": 110751, "pitch": 36, "duration": 101, "velocity": 98}, {"time": 110872, "pitch": 42, "duration": 90, "velocity": 71}, {"time": 110872, "pitch": 54, "duration": 140, "velocity": 70}, {"time": 111002, "pitch": 36, "duration": 60, "velocity": 66}, {"time": 111112, "pitch": 42, "duration": 80, "velocity": 73}, {"time": 111112, "pitch": 54, "duration": 110, "velocity": 61}, {"time": 111122, "pitch": 36, "duration": 50, "velocity": 80}, {"time": 111243, "pitch": 36, "duration": 90, "velocity": 98}, {"time": 111353, "pitch": 40, "duration": 49, "velocity": 127}, {"time": 111353, "pitch": 42, "duration": 89, "velocity": 89}, {"time": 111353, "pitch": 54, "duration": 128, "velocity": 95}, {"time": 111481, "pitch": 40, "duration": 60, "velocity": 127}, {"time": 111590, "pitch": 42, "duration": 89, "velocity": 68}, {"time": 111590, "pitch": 54, "duration": 119, "velocity": 61}, {"time": 111719, "pitch": 36, "duration": 49, "velocity": 76}, {"time": 111827, "pitch": 54, "duration": 121, "velocity": 74}, {"time": 111837, "pitch": 36, "duration": 90, "velocity": 106}, {"time": 111837, "pitch": 42, "duration": 90, "velocity": 81}, {"time": 112068, "pitch": 36, "duration": 140, "velocity": 110}, {"time": 112068, "pitch": 54, "duration": 100, "velocity": 62}, {"time": 112078, "pitch": 42, "duration": 100, "velocity": 70}, {"time": 112308, "pitch": 40, "duration": 70, "velocity": 127}, {"time": 112308, "pitch": 54, "duration": 121, "velocity": 87}, {"time": 112318, "pitch": 42, "duration": 91, "velocity": 87}, {"time": 112549, "pitch": 40, "duration": 70, "velocity": 114}, {"time": 112549, "pitch": 42, "duration": 80, "velocity": 65}, {"time": 112549, "pitch": 54, "duration": 120, "velocity": 67}, {"time": 112669, "pitch": 36, "duration": 120, "velocity": 106}, {"time": 112789, "pitch": 42, "duration": 81, "velocity": 62}, {"time": 112789, "pitch": 54, "duration": 131, "velocity": 74}, {"time": 112910, "pitch": 36, "duration": 50, "velocity": 74}, {"time": 113030, "pitch": 36, "duration": 70, "velocity": 97}, {"time": 113030, "pitch": 42, "duration": 80, "velocity": 77}, {"time": 113030, "pitch": 54, "duration": 110, "velocity": 54}, {"time": 113150, "pitch": 36, "duration": 80, "velocity": 97}, {"time": 113270, "pitch": 40, "duration": 51, "velocity": 127}, {"time": 113270, "pitch": 42, "duration": 81, "velocity": 95}, {"time": 113270, "pitch": 54, "duration": 121, "velocity": 87}, {"time": 113401, "pitch": 40, "duration": 60, "velocity": 127}, {"time": 113511, "pitch": 42, "duration": 90, "velocity": 63}, {"time": 113511, "pitch": 54, "duration": 130, "velocity": 58}, {"time": 113762, "pitch": 36, "duration": 140, "velocity": 125}, {"time": 113762, "pitch": 42, "duration": 120, "velocity": 79}, {"time": 113762, "pitch": 49, "duration": 100, "velocity": 119}, {"time": 113762, "pitch": 54, "duration": 110, "velocity": 84}, {"time": 113992, "pitch": 42, "duration": 100, "velocity": 70}, {"time": 114002, "pitch": 36, "duration": 181, "velocity": 120}, {"time": 114002, "pitch": 54, "duration": 120, "velocity": 52}, {"time": 114233, "pitch": 40, "duration": 39, "velocity": 120}, {"time": 114233, "pitch": 42, "duration": 89, "velocity": 79}, {"time": 114243, "pitch": 54, "duration": 108, "velocity": 82}, {"time": 114351, "pitch": 40, "duration": 50, "velocity": 127}, {"time": 114470, "pitch": 42, "duration": 109, "velocity": 74}, {"time": 114470, "pitch": 54, "duration": 109, "velocity": 60}, {"time": 114589, "pitch": 36, "duration": 99, "velocity": 104}, {"time": 114707, "pitch": 42, "duration": 100, "velocity": 64}, {"time": 114707, "pitch": 54, "duration": 130, "velocity": 61}, {"time": 114827, "pitch": 36, "duration": 51, "velocity": 68}, {"time": 114948, "pitch": 42, "duration": 100, "velocity": 65}, {"time": 114948, "pitch": 54, "duration": 120, "velocity": 58}, {"time": 114958, "pitch": 36, "duration": 40, "velocity": 84}, {"time": 115068, "pitch": 36, "duration": 70, "velocity": 102}, {"time": 115188, "pitch": 40, "duration": 40, "velocity": 127}, {"time": 115188, "pitch": 42, "duration": 80, "velocity": 101}, {"time": 115188, "pitch": 54, "duration": 120, "velocity": 84}, {"time": 115308, "pitch": 40, "duration": 71, "velocity": 127}, {"time": 115429, "pitch": 42, "duration": 100, "velocity": 67}, {"time": 115429, "pitch": 54, "duration": 120, "velocity": 61}, {"time": 115559, "pitch": 36, "duration": 40, "velocity": 78}, {"time": 115669, "pitch": 36, "duration": 111, "velocity": 110}, {"time": 115679, "pitch": 42, "duration": 91, "velocity": 74}, {"time": 115679, "pitch": 54, "duration": 141, "velocity": 87}, {"time": 115910, "pitch": 36, "duration": 150, "velocity": 114}, {"time": 115920, "pitch": 42, "duration": 80, "velocity": 67}, {"time": 115920, "pitch": 54, "duration": 120, "velocity": 58}, {"time": 116150, "pitch": 40, "duration": 101, "velocity": 127}, {"time": 116150, "pitch": 42, "duration": 81, "velocity": 95}, {"time": 116160, "pitch": 54, "duration": 121, "velocity": 89}, {"time": 116391, "pitch": 40, "duration": 60, "velocity": 127}, {"time": 116391, "pitch": 42, "duration": 90, "velocity": 68}, {"time": 116391, "pitch": 54, "duration": 130, "velocity": 64}, {"time": 116511, "pitch": 36, "duration": 100, "velocity": 92}, {"time": 116631, "pitch": 42, "duration": 111, "velocity": 75}, {"time": 116631, "pitch": 54, "duration": 141, "velocity": 51}, {"time": 116752, "pitch": 36, "duration": 50, "velocity": 77}, {"time": 116872, "pitch": 36, "duration": 60, "velocity": 97}, {"time": 116872, "pitch": 42, "duration": 90, "velocity": 67}, {"time": 116882, "pitch": 54, "duration": 80, "velocity": 64}, {"time": 116992, "pitch": 36, "duration": 70, "velocity": 108}, {"time": 117113, "pitch": 40, "duration": 39, "velocity": 127}, {"time": 117113, "pitch": 42, "duration": 79, "velocity": 93}, {"time": 117113, "pitch": 54, "duration": 118, "velocity": 97}, {"time": 117231, "pitch": 40, "duration": 69, "velocity": 127}, {"time": 117350, "pitch": 42, "duration": 99, "velocity": 61}, {"time": 117350, "pitch": 54, "duration": 128, "velocity": 56}, {"time": 117587, "pitch": 36, "duration": 100, "velocity": 104}, {"time": 117587, "pitch": 42, "duration": 100, "velocity": 67}, {"time": 117587, "pitch": 54, "duration": 150, "velocity": 67}, {"time": 117587, "pitch": 57, "duration": 80, "velocity": 104}, {"time": 117828, "pitch": 36, "duration": 120, "velocity": 100}, {"time": 117838, "pitch": 42, "duration": 80, "velocity": 61}, {"time": 117838, "pitch": 54, "duration": 80, "velocity": 51}, {"time": 118068, "pitch": 40, "duration": 50, "velocity": 125}, {"time": 118068, "pitch": 42, "duration": 90, "velocity": 95}, {"time": 118068, "pitch": 54, "duration": 130, "velocity": 95}, {"time": 118188, "pitch": 40, "duration": 60, "velocity": 127}, {"time": 118309, "pitch": 42, "duration": 100, "velocity": 68}, {"time": 118309, "pitch": 54, "duration": 120, "velocity": 61}, {"time": 118429, "pitch": 36, "duration": 100, "velocity": 98}, {"time": 118549, "pitch": 42, "duration": 90, "velocity": 71}, {"time": 118549, "pitch": 54, "duration": 140, "velocity": 70}, {"time": 118679, "pitch": 36, "duration": 61, "velocity": 66}, {"time": 118790, "pitch": 42, "duration": 80, "velocity": 73}, {"time": 118790, "pitch": 54, "duration": 110, "velocity": 61}, {"time": 118800, "pitch": 36, "duration": 50, "velocity": 80}, {"time": 118920, "pitch": 36, "duration": 90, "velocity": 98}, {"time": 119030, "pitch": 40, "duration": 50, "velocity": 127}, {"time": 119030, "pitch": 42, "duration": 90, "velocity": 89}, {"time": 119030, "pitch": 54, "duration": 131, "velocity": 95}, {"time": 119161, "pitch": 40, "duration": 60, "velocity": 127}, {"time": 119271, "pitch": 42, "duration": 90, "velocity": 68}, {"time": 119271, "pitch": 54, "duration": 120, "velocity": 61}, {"time": 119401, "pitch": 36, "duration": 50, "velocity": 76}, {"time": 119511, "pitch": 54, "duration": 121, "velocity": 74}, {"time": 119521, "pitch": 36, "duration": 91, "velocity": 106}, {"time": 119521, "pitch": 42, "duration": 91, "velocity": 81}, {"time": 119752, "pitch": 36, "duration": 140, "velocity": 110}, {"time": 119752, "pitch": 54, "duration": 100, "velocity": 62}, {"time": 119762, "pitch": 42, "duration": 100, "velocity": 70}, {"time": 119992, "pitch": 40, "duration": 70, "velocity": 127}, {"time": 119992, "pitch": 54, "duration": 119, "velocity": 87}, {"time": 120002, "pitch": 42, "duration": 89, "velocity": 87}, {"time": 120230, "pitch": 40, "duration": 69, "velocity": 114}, {"time": 120230, "pitch": 42, "duration": 79, "velocity": 65}, {"time": 120230, "pitch": 54, "duration": 118, "velocity": 67}, {"time": 120348, "pitch": 36, "duration": 119, "velocity": 106}, {"time": 120467, "pitch": 42, "duration": 80, "velocity": 62}, {"time": 120467, "pitch": 54, "duration": 130, "velocity": 74}, {"time": 120587, "pitch": 36, "duration": 50, "velocity": 74}, {"time": 120707, "pitch": 36, "duration": 71, "velocity": 97}, {"time": 120707, "pitch": 42, "duration": 81, "velocity": 77}, {"time": 120707, "pitch": 54, "duration": 111, "velocity": 54}, {"time": 120828, "pitch": 36, "duration": 80, "velocity": 97}, {"time": 120948, "pitch": 40, "duration": 50, "velocity": 127}, {"time": 120948, "pitch": 42, "duration": 80, "velocity": 95}, {"time": 120948, "pitch": 54, "duration": 120, "velocity": 87}, {"time": 121078, "pitch": 40, "duration": 60, "velocity": 127}, {"time": 121188, "pitch": 42, "duration": 91, "velocity": 63}, {"time": 121188, "pitch": 54, "duration": 131, "velocity": 58}, {"time": 121439, "pitch": 36, "duration": 140, "velocity": 125}, {"time": 121439, "pitch": 42, "duration": 120, "velocity": 79}, {"time": 121439, "pitch": 52, "duration": 100, "velocity": 119}, {"time": 121439, "pitch": 54, "duration": 110, "velocity": 84}, {"time": 121670, "pitch": 42, "duration": 100, "velocity": 70}, {"time": 121680, "pitch": 36, "duration": 180, "velocity": 120}, {"time": 121680, "pitch": 54, "duration": 120, "velocity": 52}, {"time": 121910, "pitch": 40, "duration": 40, "velocity": 120}, {"time": 121910, "pitch": 42, "duration": 90, "velocity": 79}, {"time": 121920, "pitch": 54, "duration": 110, "velocity": 82}, {"time": 122030, "pitch": 40, "duration": 50, "velocity": 127}, {"time": 122151, "pitch": 42, "duration": 110, "velocity": 74}, {"time": 122151, "pitch": 54, "duration": 110, "velocity": 60}, {"time": 122271, "pitch": 36, "duration": 100, "velocity": 104}, {"time": 122391, "pitch": 42, "duration": 100, "velocity": 64}, {"time": 122391, "pitch": 54, "duration": 130, "velocity": 61}, {"time": 122511, "pitch": 36, "duration": 51, "velocity": 68}, {"time": 122632, "pitch": 42, "duration": 100, "velocity": 65}, {"time": 122632, "pitch": 54, "duration": 120, "velocity": 58}, {"time": 122642, "pitch": 36, "duration": 40, "velocity": 84}, {"time": 122752, "pitch": 36, "duration": 70, "velocity": 102}, {"time": 122872, "pitch": 40, "duration": 40, "velocity": 127}, {"time": 122872, "pitch": 42, "duration": 79, "velocity": 101}, {"time": 122872, "pitch": 54, "duration": 119, "velocity": 84}, {"time": 122991, "pitch": 40, "duration": 69, "velocity": 127}, {"time": 123110, "pitch": 42, "duration": 99, "velocity": 67}, {"time": 123110, "pitch": 54, "duration": 118, "velocity": 61}, {"time": 123238, "pitch": 36, "duration": 40, "velocity": 78}, {"time": 123357, "pitch": 36, "duration": 100, "velocity": 106}, {"time": 123357, "pitch": 49, "duration": 100, "velocity": 119}, {"time": 123357, "pitch": 54, "duration": 130, "velocity": 66}, {"time": 123587, "pitch": 36, "duration": 141, "velocity": 104}, {"time": 123587, "pitch": 42, "duration": 80, "velocity": 73}, {"time": 123587, "pitch": 54, "duration": 90, "velocity": 61}, {"time": 123828, "pitch": 40, "duration": 120, "velocity": 127}, {"time": 123828, "pitch": 42, "duration": 70, "velocity": 97}, {"time": 123828, "pitch": 54, "duration": 120, "velocity": 95}, {"time": 124068, "pitch": 42, "duration": 81, "velocity": 67}, {"time": 124068, "pitch": 54, "duration": 111, "velocity": 59}, {"time": 124179, "pitch": 36, "duration": 20, "velocity": 76}, {"time": 124249, "pitch": 36, "duration": 30, "velocity": 67}, {"time": 124309, "pitch": 36, "duration": 50, "velocity": 91}, {"time": 124309, "pitch": 42, "duration": 60, "velocity": 70}, {"time": 124309, "pitch": 54, "duration": 130, "velocity": 73}, {"time": 124429, "pitch": 36, "duration": 50, "velocity": 108}, {"time": 124499, "pitch": 36, "duration": 40, "velocity": 71}, {"time": 124539, "pitch": 42, "duration": 71, "velocity": 75}, {"time": 124559, "pitch": 36, "duration": 51, "velocity": 83}, {"time": 124559, "pitch": 54, "duration": 91, "velocity": 67}, {"time": 124680, "pitch": 36, "duration": 40, "velocity": 104}, {"time": 124740, "pitch": 36, "duration": 50, "velocity": 72}, {"time": 124790, "pitch": 42, "duration": 60, "velocity": 101}, {"time": 124790, "pitch": 54, "duration": 110, "velocity": 97}, {"time": 124800, "pitch": 40, "duration": 70, "velocity": 127}, {"time": 125031, "pitch": 36, "duration": 60, "velocity": 125}, {"time": 125031, "pitch": 42, "duration": 60, "velocity": 85}, {"time": 125031, "pitch": 54, "duration": 100, "velocity": 66}, {"time": 125271, "pitch": 42, "duration": 60, "velocity": 79}, {"time": 125281, "pitch": 36, "duration": 100, "velocity": 106}, {"time": 125281, "pitch": 49, "duration": 100, "velocity": 119}, {"time": 125281, "pitch": 54, "duration": 130, "velocity": 66}, {"time": 125512, "pitch": 36, "duration": 140, "velocity": 104}, {"time": 125512, "pitch": 42, "duration": 80, "velocity": 73}, {"time": 125512, "pitch": 54, "duration": 90, "velocity": 61}, {"time": 125752, "pitch": 40, "duration": 120, "velocity": 127}, {"time": 125752, "pitch": 42, "duration": 70, "velocity": 97}, {"time": 125752, "pitch": 54, "duration": 120, "velocity": 95}, {"time": 125993, "pitch": 42, "duration": 80, "velocity": 67}, {"time": 125993, "pitch": 54, "duration": 110, "velocity": 59}, {"time": 126103, "pitch": 36, "duration": 20, "velocity": 76}, {"time": 126173, "pitch": 36, "duration": 30, "velocity": 67}, {"time": 126233, "pitch": 36, "duration": 50, "velocity": 91}, {"time": 126233, "pitch": 42, "duration": 60, "velocity": 70}, {"time": 126233, "pitch": 54, "duration": 129, "velocity": 73}, {"time": 126352, "pitch": 36, "duration": 49, "velocity": 108}, {"time": 126421, "pitch": 36, "duration": 40, "velocity": 71}, {"time": 126461, "pitch": 42, "duration": 69, "velocity": 75}, {"time": 126480, "pitch": 36, "duration": 50, "velocity": 83}, {"time": 126480, "pitch": 54, "duration": 89, "velocity": 67}, {"time": 126599, "pitch": 36, "duration": 40, "velocity": 104}, {"time": 126658, "pitch": 36, "duration": 50, "velocity": 72}, {"time": 126708, "pitch": 42, "duration": 60, "velocity": 101}, {"time": 126708, "pitch": 54, "duration": 110, "velocity": 97}, {"time": 126718, "pitch": 40, "duration": 70, "velocity": 127}, {"time": 126948, "pitch": 36, "duration": 60, "velocity": 125}, {"time": 126948, "pitch": 42, "duration": 60, "velocity": 85}, {"time": 126948, "pitch": 54, "duration": 100, "velocity": 66}, {"time": 127199, "pitch": 36, "duration": 90, "velocity": 106}, {"time": 127199, "pitch": 42, "duration": 90, "velocity": 81}, {"time": 127429, "pitch": 36, "duration": 141, "velocity": 110}, {"time": 127429, "pitch": 54, "duration": 101, "velocity": 62}, {"time": 127439, "pitch": 42, "duration": 101, "velocity": 70}, {"time": 127670, "pitch": 40, "duration": 70, "velocity": 127}, {"time": 127670, "pitch": 54, "duration": 120, "velocity": 87}, {"time": 127680, "pitch": 42, "duration": 90, "velocity": 87}, {"time": 127910, "pitch": 40, "duration": 71, "velocity": 114}, {"time": 127910, "pitch": 42, "duration": 81, "velocity": 65}, {"time": 127910, "pitch": 54, "duration": 121, "velocity": 67}, {"time": 128031, "pitch": 36, "duration": 120, "velocity": 106}, {"time": 128151, "pitch": 42, "duration": 80, "velocity": 62}, {"time": 128151, "pitch": 54, "duration": 130, "velocity": 74}, {"time": 128271, "pitch": 36, "duration": 50, "velocity": 74}, {"time": 128391, "pitch": 36, "duration": 71, "velocity": 97}, {"time": 128391, "pitch": 42, "duration": 81, "velocity": 77}, {"time": 128391, "pitch": 54, "duration": 111, "velocity": 54}, {"time": 128512, "pitch": 36, "duration": 80, "velocity": 97}, {"time": 128632, "pitch": 40, "duration": 50, "velocity": 127}, {"time": 128632, "pitch": 42, "duration": 80, "velocity": 95}, {"time": 128632, "pitch": 54, "duration": 120, "velocity": 87}, {"time": 128762, "pitch": 40, "duration": 60, "velocity": 127}, {"time": 128873, "pitch": 42, "duration": 90, "velocity": 63}, {"time": 128873, "pitch": 54, "duration": 130, "velocity": 58}, {"time": 129113, "pitch": 36, "duration": 99, "velocity": 106}, {"time": 129113, "pitch": 42, "duration": 59, "velocity": 79}, {"time": 129123, "pitch": 49, "duration": 99, "velocity": 119}, {"time": 129123, "pitch": 54, "duration": 129, "velocity": 66}, {"time": 129350, "pitch": 36, "duration": 139, "velocity": 104}, {"time": 129350, "pitch": 42, "duration": 80, "velocity": 73}, {"time": 129350, "pitch": 54, "duration": 89, "velocity": 61}, {"time": 129588, "pitch": 40, "duration": 120, "velocity": 127}, {"time": 129588, "pitch": 42, "duration": 70, "velocity": 97}, {"time": 129588, "pitch": 54, "duration": 120, "velocity": 95}, {"time": 129828, "pitch": 42, "duration": 80, "velocity": 67}, {"time": 129828, "pitch": 54, "duration": 110, "velocity": 59}, {"time": 129938, "pitch": 36, "duration": 20, "velocity": 76}, {"time": 130009, "pitch": 36, "duration": 30, "velocity": 67}, {"time": 130069, "pitch": 36, "duration": 50, "velocity": 91}, {"time": 130069, "pitch": 42, "duration": 60, "velocity": 70}, {"time": 130069, "pitch": 54, "duration": 130, "velocity": 73}, {"time": 130189, "pitch": 36, "duration": 50, "velocity": 108}, {"time": 130259, "pitch": 36, "duration": 40, "velocity": 71}, {"time": 130299, "pitch": 42, "duration": 70, "velocity": 75}, {"time": 130319, "pitch": 36, "duration": 50, "velocity": 83}, {"time": 130319, "pitch": 54, "duration": 90, "velocity": 67}, {"time": 130439, "pitch": 36, "duration": 41, "velocity": 104}, {"time": 130500, "pitch": 36, "duration": 50, "velocity": 72}, {"time": 130550, "pitch": 42, "duration": 60, "velocity": 101}, {"time": 130550, "pitch": 54, "duration": 110, "velocity": 97}, {"time": 130560, "pitch": 40, "duration": 70, "velocity": 127}, {"time": 130790, "pitch": 36, "duration": 60, "velocity": 125}, {"time": 130790, "pitch": 42, "duration": 60, "velocity": 85}, {"time": 130790, "pitch": 54, "duration": 100, "velocity": 66}, {"time": 131031, "pitch": 36, "duration": 100, "velocity": 106}, {"time": 131031, "pitch": 42, "duration": 60, "velocity": 79}, {"time": 131041, "pitch": 49, "duration": 100, "velocity": 119}, {"time": 131041, "pitch": 54, "duration": 130, "velocity": 66}, {"time": 131271, "pitch": 36, "duration": 141, "velocity": 104}, {"time": 131271, "pitch": 42, "duration": 81, "velocity": 73}, {"time": 131271, "pitch": 54, "duration": 91, "velocity": 61}, {"time": 131512, "pitch": 40, "duration": 120, "velocity": 127}, {"time": 131512, "pitch": 42, "duration": 70, "velocity": 97}, {"time": 131512, "pitch": 54, "duration": 120, "velocity": 95}, {"time": 131752, "pitch": 42, "duration": 81, "velocity": 67}, {"time": 131752, "pitch": 54, "duration": 111, "velocity": 59}, {"time": 131863, "pitch": 36, "duration": 20, "velocity": 76}, {"time": 131933, "pitch": 36, "duration": 30, "velocity": 67}, {"time": 131993, "pitch": 36, "duration": 49, "velocity": 91}, {"time": 131993, "pitch": 42, "duration": 59, "velocity": 70}, {"time": 131993, "pitch": 54, "duration": 129, "velocity": 73}, {"time": 132112, "pitch": 36, "duration": 49, "velocity": 108}, {"time": 132181, "pitch": 36, "duration": 39, "velocity": 71}, {"time": 132220, "pitch": 42, "duration": 70, "velocity": 75}, {"time": 132240, "pitch": 36, "duration": 50, "velocity": 83}, {"time": 132240, "pitch": 54, "duration": 89, "velocity": 67}, {"time": 132359, "pitch": 36, "duration": 39, "velocity": 104}, {"time": 132418, "pitch": 36, "duration": 50, "velocity": 72}, {"time": 132468, "pitch": 42, "duration": 60, "velocity": 101}, {"time": 132468, "pitch": 54, "duration": 110, "velocity": 97}, {"time": 132478, "pitch": 40, "duration": 70, "velocity": 127}, {"time": 132708, "pitch": 36, "duration": 60, "velocity": 125}, {"time": 132708, "pitch": 42, "duration": 60, "velocity": 85}, {"time": 132708, "pitch": 54, "duration": 100, "velocity": 66}], "annotations": [{"time": 218, "annotation": {"number": 0, "value": 0}, "group": "control_change"}, {"time": 239, "annotation": {"number": 32, "value": 0}, "group": "control_change"}, {"time": 283, "annotation": {"number": 7, "value": 120}, "group": "control_change"}, {"time": 305, "annotation": {"number": 11, "value": 110}, "group": "control_change"}, {"time": 326, "annotation": {"number": 91, "value": 100}, "group": "control_change"}, {"time": 348, "annotation": {"number": 101, "value": 127}, "group": "control_change"}, {"time": 370, "annotation": {"number": 100, "value": 127}, "group": "control_change"}]}]}