{"metadata": {"schema_version": "0.1", "title": "RWC-MDB-P-2001 No. 60: Kumorizora / Yuzu Iijima", "copyright": "RWC Music Database. Copyright (C) 2001 Real World Computing Partnership (contact: Masataka GOTO <m.goto@aist.go.jp>)", "source_filename": "RM-P060.SMF_SYNC.MID", "source_format": "midi"}, "resolution": 480, "tempos": [{"time": 0, "qpm": 60.0}, {"time": 480, "qpm": 146.34146341463415}, {"time": 2880, "qpm": 150.0}, {"time": 3840, "qpm": 146.34146341463415}, {"time": 4320, "qpm": 150.0}, {"time": 4800, "qpm": 146.34146341463415}, {"time": 5280, "qpm": 150.0}, {"time": 6240, "qpm": 146.34146341463415}, {"time": 6720, "qpm": 150.0}, {"time": 7680, "qpm": 146.34146341463415}, {"time": 9600, "qpm": 150.0}, {"time": 12960, "qpm": 146.34146341463415}, {"time": 17760, "qpm": 150.0}, {"time": 20640, "qpm": 146.34146341463415}, {"time": 24000, "qpm": 150.0}, {"time": 25440, "qpm": 146.34146341463415}, {"time": 28800, "qpm": 150.0}, {"time": 32160, "qpm": 146.34146341463415}, {"time": 36480, "qpm": 150.0}, {"time": 39360, "qpm": 146.34146341463415}, {"time": 41280, "qpm": 150.0}, {"time": 43200, "qpm": 146.34146341463415}, {"time": 43680, "qpm": 150.0}, {"time": 44160, "qpm": 146.34146341463415}, {"time": 44640, "qpm": 150.0}, {"time": 47040, "qpm": 146.34146341463415}, {"time": 49440, "qpm": 150.0}, {"time": 50880, "qpm": 146.34146341463415}, {"time": 51360, "qpm": 150.0}, {"time": 51840, "qpm": 146.34146341463415}, {"time": 52320, "qpm": 150.0}, {"time": 52800, "qpm": 146.34146341463415}, {"time": 53280, "qpm": 150.0}, {"time": 53760, "qpm": 146.34146341463415}, {"time": 54240, "qpm": 150.0}, {"time": 54720, "qpm": 146.34146341463415}, {"time": 55200, "qpm": 150.0}, {"time": 55680, "qpm": 146.34146341463415}, {"time": 56160, "qpm": 150.0}, {"time": 56640, "qpm": 146.34146341463415}, {"time": 57120, "qpm": 150.0}, {"time": 57600, "qpm": 146.34146341463415}, {"time": 58080, "qpm": 150.0}, {"time": 58560, "qpm": 146.34146341463415}, {"time": 59040, "qpm": 150.0}, {"time": 59520, "qpm": 146.34146341463415}, {"time": 60000, "qpm": 150.0}, {"time": 60480, "qpm": 146.34146341463415}, {"time": 60960, "qpm": 150.0}, {"time": 61440, "qpm": 146.34146341463415}, {"time": 61920, "qpm": 150.0}, {"time": 62400, "qpm": 146.34146341463415}, {"time": 62880, "qpm": 150.0}, {"time": 63360, "qpm": 146.34146341463415}, {"time": 63840, "qpm": 150.0}, {"time": 64320, "qpm": 146.34146341463415}, {"time": 65760, "qpm": 150.0}, {"time": 66240, "qpm": 146.34146341463415}, {"time": 66720, "qpm": 150.0}, {"time": 67200, "qpm": 146.34146341463415}, {"time": 67680, "qpm": 150.0}, {"time": 68160, "qpm": 146.34146341463415}, {"time": 68640, "qpm": 150.0}, {"time": 69120, "qpm": 146.34146341463415}, {"time": 69600, "qpm": 150.0}, {"time": 70080, "qpm": 146.34146341463415}, {"time": 70560, "qpm": 150.0}, {"time": 71040, "qpm": 146.34146341463415}, {"time": 73920, "qpm": 150.0}, {"time": 74880, "qpm": 146.34146341463415}, {"time": 75360, "qpm": 150.0}, {"time": 75840, "qpm": 146.34146341463415}, {"time": 79200, "qpm": 150.0}, {"time": 79680, "qpm": 146.34146341463415}, {"time": 80160, "qpm": 150.0}, {"time": 80640, "qpm": 146.34146341463415}, {"time": 81120, "qpm": 150.0}, {"time": 83520, "qpm": 146.34146341463415}, {"time": 84960, "qpm": 150.0}, {"time": 85440, "qpm": 146.34146341463415}, {"time": 86880, "qpm": 150.0}, {"time": 89280, "qpm": 146.34146341463415}, {"time": 93120, "qpm": 150.0}, {"time": 96000, "qpm": 146.34146341463415}, {"time": 98400, "qpm": 150.0}, {"time": 99840, "qpm": 146.34146341463415}, {"time": 101280, "qpm": 150.0}, {"time": 102720, "qpm": 146.34146341463415}, {"time": 105120, "qpm": 150.0}, {"time": 107040, "qpm": 146.34146341463415}, {"time": 107520, "qpm": 150.0}, {"time": 108000, "qpm": 142.85714285714286}, {"time": 108480, "qpm": 146.34146341463415}, {"time": 110400, "qpm": 150.0}, {"time": 112320, "qpm": 146.34146341463415}, {"time": 114720, "qpm": 150.0}, {"time": 117120, "qpm": 146.34146341463415}, {"time": 117600, "qpm": 150.0}, {"time": 118080, "qpm": 146.34146341463415}, {"time": 118560, "qpm": 150.0}, {"time": 119040, "qpm": 146.34146341463415}, {"time": 119520, "qpm": 150.0}, {"time": 121920, "qpm": 146.34146341463415}, {"time": 122400, "qpm": 150.0}, {"time": 122880, "qpm": 146.34146341463415}, {"time": 127200, "qpm": 150.0}, {"time": 129120, "qpm": 146.34146341463415}, {"time": 132960, "qpm": 150.0}, {"time": 134400, "qpm": 146.34146341463415}, {"time": 134880, "qpm": 150.0}, {"time": 136320, "qpm": 146.34146341463415}, {"time": 136800, "qpm": 150.0}, {"time": 137280, "qpm": 146.34146341463415}, {"time": 137760, "qpm": 150.0}, {"time": 138240, "qpm": 146.34146341463415}, {"time": 138720, "qpm": 150.0}, {"time": 140160, "qpm": 146.34146341463415}, {"time": 140640, "qpm": 150.0}, {"time": 141120, "qpm": 146.34146341463415}, {"time": 141600, "qpm": 150.0}, {"time": 142080, "qpm": 146.34146341463415}, {"time": 142560, "qpm": 150.0}, {"time": 143040, "qpm": 146.34146341463415}, {"time": 143520, "qpm": 150.0}, {"time": 144000, "qpm": 146.34146341463415}, {"time": 144480, "qpm": 150.0}, {"time": 144960, "qpm": 146.34146341463415}, {"time": 148800, "qpm": 150.0}, {"time": 149760, "qpm": 146.34146341463415}, {"time": 150240, "qpm": 150.0}, {"time": 151680, "qpm": 146.34146341463415}, {"time": 152160, "qpm": 150.0}, {"time": 154560, "qpm": 146.34146341463415}, {"time": 157440, "qpm": 150.0}, {"time": 157920, "qpm": 146.34146341463415}, {"time": 158880, "qpm": 150.0}, {"time": 159840, "qpm": 146.34146341463415}, {"time": 162720, "qpm": 150.0}, {"time": 163200, "qpm": 146.34146341463415}, {"time": 163680, "qpm": 150.0}, {"time": 165120, "qpm": 146.34146341463415}, {"time": 165600, "qpm": 150.0}, {"time": 167040, "qpm": 146.34146341463415}, {"time": 168960, "qpm": 150.0}, {"time": 172800, "qpm": 146.34146341463415}, {"time": 176160, "qpm": 150.0}, {"time": 177120, "qpm": 146.34146341463415}, {"time": 180000, "qpm": 150.0}, {"time": 180480, "qpm": 146.34146341463415}, {"time": 180960, "qpm": 150.0}, {"time": 182400, "qpm": 146.34146341463415}, {"time": 182880, "qpm": 150.0}, {"time": 184320, "qpm": 146.34146341463415}, {"time": 187200, "qpm": 150.0}, {"time": 188640, "qpm": 146.34146341463415}, {"time": 191520, "qpm": 150.0}, {"time": 192000, "qpm": 146.34146341463415}, {"time": 192480, "qpm": 150.0}, {"time": 194400, "qpm": 146.34146341463415}, {"time": 197280, "qpm": 150.0}, {"time": 198720, "qpm": 146.34146341463415}, {"time": 200160, "qpm": 150.0}, {"time": 201600, "qpm": 146.34146341463415}, {"time": 202080, "qpm": 150.0}, {"time": 202560, "qpm": 146.34146341463415}, {"time": 204000, "qpm": 150.0}, {"time": 204480, "qpm": 146.34146341463415}, {"time": 205920, "qpm": 150.0}, {"time": 207360, "qpm": 146.34146341463415}, {"time": 207840, "qpm": 150.0}, {"time": 209280, "qpm": 146.34146341463415}, {"time": 209760, "qpm": 150.0}, {"time": 210240, "qpm": 146.34146341463415}, {"time": 210720, "qpm": 150.0}, {"time": 213600, "qpm": 146.34146341463415}, {"time": 216480, "qpm": 150.0}, {"time": 217920, "qpm": 146.34146341463415}, {"time": 218400, "qpm": 150.0}, {"time": 218880, "qpm": 146.34146341463415}, {"time": 219360, "qpm": 150.0}, {"time": 219840, "qpm": 146.34146341463415}, {"time": 221280, "qpm": 150.0}, {"time": 221760, "qpm": 146.34146341463415}, {"time": 223200, "qpm": 150.0}, {"time": 223680, "qpm": 146.34146341463415}, {"time": 224160, "qpm": 150.0}, {"time": 227520, "qpm": 146.34146341463415}, {"time": 228960, "qpm": 150.0}, {"time": 230400, "qpm": 146.34146341463415}, {"time": 233760, "qpm": 150.0}, {"time": 234720, "qpm": 146.34146341463415}, {"time": 237600, "qpm": 150.0}, {"time": 239040, "qpm": 146.34146341463415}, {"time": 240480, "qpm": 150.0}, {"time": 240960, "qpm": 146.34146341463415}, {"time": 241920, "qpm": 150.0}, {"time": 244800, "qpm": 146.34146341463415}, {"time": 245280, "qpm": 150.0}, {"time": 245760, "qpm": 146.34146341463415}, {"time": 246240, "qpm": 150.0}, {"time": 246720, "qpm": 146.34146341463415}, {"time": 247200, "qpm": 150.0}, {"time": 247680, "qpm": 146.34146341463415}, {"time": 251040, "qpm": 150.0}, {"time": 254400, "qpm": 146.34146341463415}, {"time": 258720, "qpm": 150.0}, {"time": 260160, "qpm": 146.34146341463415}, {"time": 260640, "qpm": 150.0}, {"time": 261120, "qpm": 146.34146341463415}, {"time": 263520, "qpm": 150.0}, {"time": 264000, "qpm": 146.34146341463415}, {"time": 265440, "qpm": 150.0}, {"time": 265920, "qpm": 146.34146341463415}, {"time": 266400, "qpm": 150.0}, {"time": 266880, "qpm": 146.34146341463415}, {"time": 267360, "qpm": 150.0}, {"time": 267840, "qpm": 146.34146341463415}, {"time": 268320, "qpm": 150.0}, {"time": 268800, "qpm": 146.34146341463415}, {"time": 269280, "qpm": 150.0}, {"time": 270720, "qpm": 146.34146341463415}, {"time": 271200, "qpm": 150.0}, {"time": 271680, "qpm": 146.34146341463415}, {"time": 272160, "qpm": 150.0}, {"time": 272640, "qpm": 146.34146341463415}, {"time": 274080, "qpm": 150.0}, {"time": 276960, "qpm": 200.0}, {"time": 277440, "qpm": 545.4545454545455}, {"time": 277920, "qpm": 146.34146341463415}], "key_signatures": [{"time": 0, "root": 0, "mode": "major"}], "time_signatures": [{"time": 0, "numerator": 1, "denominator": 4}, {"time": 480, "numerator": 4, "denominator": 4}, {"time": 276960, "numerator": 5, "denominator": 4}], "tracks": [{"program": 0, "is_drum": false, "name": "E.Guitar", "annotations": [{"time": 229, "annotation": {"number": 0, "value": 0}, "group": "control_change"}, {"time": 251, "annotation": {"number": 32, "value": 2}, "group": "control_change"}]}, {"program": 26, "is_drum": false, "name": "E.Guitar", "notes": [{"time": 12000, "pitch": 48, "duration": 199, "velocity": 95}, {"time": 12000, "pitch": 52, "duration": 199, "velocity": 90}, {"time": 12000, "pitch": 55, "duration": 199, "velocity": 95}, {"time": 12000, "pitch": 59, "duration": 199, "velocity": 100}, {"time": 12478, "pitch": 48, "duration": 459, "velocity": 95}, {"time": 12478, "pitch": 52, "duration": 459, "velocity": 90}, {"time": 12478, "pitch": 55, "duration": 459, "velocity": 95}, {"time": 12478, "pitch": 59, "duration": 459, "velocity": 100}, {"time": 13196, "pitch": 48, "duration": 199, "velocity": 95}, {"time": 13196, "pitch": 52, "duration": 199, "velocity": 90}, {"time": 13196, "pitch": 55, "duration": 199, "velocity": 95}, {"time": 13196, "pitch": 59, "duration": 199, "velocity": 100}, {"time": 13680, "pitch": 48, "duration": 204, "velocity": 95}, {"time": 13680, "pitch": 52, "duration": 204, "velocity": 90}, {"time": 13680, "pitch": 55, "duration": 204, "velocity": 95}, {"time": 13680, "pitch": 59, "duration": 204, "velocity": 100}, {"time": 14164, "pitch": 48, "duration": 199, "velocity": 95}, {"time": 14164, "pitch": 52, "duration": 199, "velocity": 90}, {"time": 14164, "pitch": 55, "duration": 199, "velocity": 95}, {"time": 14164, "pitch": 59, "duration": 199, "velocity": 100}, {"time": 14882, "pitch": 48, "duration": 199, "velocity": 95}, {"time": 14882, "pitch": 52, "duration": 199, "velocity": 90}, {"time": 14882, "pitch": 55, "duration": 199, "velocity": 95}, {"time": 14882, "pitch": 59, "duration": 199, "velocity": 100}, {"time": 15360, "pitch": 48, "duration": 458, "velocity": 95}, {"time": 15360, "pitch": 55, "duration": 458, "velocity": 90}, {"time": 15360, "pitch": 59, "duration": 458, "velocity": 95}, {"time": 15360, "pitch": 64, "duration": 458, "velocity": 100}, {"time": 15838, "pitch": 47, "duration": 200, "velocity": 95}, {"time": 15838, "pitch": 50, "duration": 200, "velocity": 90}, {"time": 15838, "pitch": 53, "duration": 200, "velocity": 95}, {"time": 15838, "pitch": 57, "duration": 200, "velocity": 100}, {"time": 16317, "pitch": 47, "duration": 458, "velocity": 95}, {"time": 16317, "pitch": 50, "duration": 458, "velocity": 90}, {"time": 16317, "pitch": 53, "duration": 458, "velocity": 95}, {"time": 16317, "pitch": 57, "duration": 458, "velocity": 100}, {"time": 17040, "pitch": 47, "duration": 204, "velocity": 95}, {"time": 17040, "pitch": 50, "duration": 204, "velocity": 90}, {"time": 17040, "pitch": 53, "duration": 204, "velocity": 95}, {"time": 17040, "pitch": 57, "duration": 204, "velocity": 100}, {"time": 17524, "pitch": 47, "duration": 199, "velocity": 95}, {"time": 17524, "pitch": 50, "duration": 199, "velocity": 90}, {"time": 17524, "pitch": 53, "duration": 199, "velocity": 95}, {"time": 17524, "pitch": 57, "duration": 199, "velocity": 100}, {"time": 18002, "pitch": 47, "duration": 200, "velocity": 95}, {"time": 18002, "pitch": 50, "duration": 200, "velocity": 90}, {"time": 18002, "pitch": 56, "duration": 200, "velocity": 95}, {"time": 18002, "pitch": 59, "duration": 200, "velocity": 100}, {"time": 18720, "pitch": 47, "duration": 199, "velocity": 95}, {"time": 18720, "pitch": 50, "duration": 199, "velocity": 90}, {"time": 18720, "pitch": 56, "duration": 199, "velocity": 95}, {"time": 18720, "pitch": 59, "duration": 199, "velocity": 100}, {"time": 19198, "pitch": 47, "duration": 459, "velocity": 95}, {"time": 19198, "pitch": 56, "duration": 459, "velocity": 90}, {"time": 19198, "pitch": 59, "duration": 459, "velocity": 95}, {"time": 19198, "pitch": 62, "duration": 459, "velocity": 100}, {"time": 19677, "pitch": 45, "duration": 199, "velocity": 95}, {"time": 19677, "pitch": 52, "duration": 199, "velocity": 90}, {"time": 19677, "pitch": 55, "duration": 199, "velocity": 95}, {"time": 19677, "pitch": 60, "duration": 199, "velocity": 100}, {"time": 20155, "pitch": 45, "duration": 469, "velocity": 95}, {"time": 20155, "pitch": 52, "duration": 469, "velocity": 90}, {"time": 20155, "pitch": 55, "duration": 469, "velocity": 95}, {"time": 20155, "pitch": 60, "duration": 469, "velocity": 100}, {"time": 20884, "pitch": 45, "duration": 199, "velocity": 95}, {"time": 20884, "pitch": 52, "duration": 199, "velocity": 90}, {"time": 20884, "pitch": 55, "duration": 199, "velocity": 95}, {"time": 20884, "pitch": 60, "duration": 199, "velocity": 100}, {"time": 21362, "pitch": 45, "duration": 200, "velocity": 95}, {"time": 21362, "pitch": 52, "duration": 200, "velocity": 90}, {"time": 21362, "pitch": 55, "duration": 200, "velocity": 95}, {"time": 21362, "pitch": 60, "duration": 200, "velocity": 100}, {"time": 21841, "pitch": 45, "duration": 199, "velocity": 95}, {"time": 21841, "pitch": 52, "duration": 199, "velocity": 90}, {"time": 21841, "pitch": 55, "duration": 199, "velocity": 95}, {"time": 21841, "pitch": 60, "duration": 199, "velocity": 100}, {"time": 22558, "pitch": 45, "duration": 200, "velocity": 95}, {"time": 22558, "pitch": 52, "duration": 200, "velocity": 90}, {"time": 22558, "pitch": 55, "duration": 200, "velocity": 95}, {"time": 22558, "pitch": 60, "duration": 200, "velocity": 100}, {"time": 23037, "pitch": 51, "duration": 458, "velocity": 95}, {"time": 23037, "pitch": 56, "duration": 458, "velocity": 90}, {"time": 23037, "pitch": 59, "duration": 458, "velocity": 95}, {"time": 23037, "pitch": 63, "duration": 458, "velocity": 100}, {"time": 23515, "pitch": 46, "duration": 204, "velocity": 95}, {"time": 23515, "pitch": 50, "duration": 204, "velocity": 90}, {"time": 23515, "pitch": 55, "duration": 204, "velocity": 95}, {"time": 23515, "pitch": 58, "duration": 204, "velocity": 100}, {"time": 24005, "pitch": 46, "duration": 458, "velocity": 95}, {"time": 24005, "pitch": 50, "duration": 458, "velocity": 90}, {"time": 24005, "pitch": 55, "duration": 458, "velocity": 95}, {"time": 24005, "pitch": 58, "duration": 458, "velocity": 100}, {"time": 24722, "pitch": 46, "duration": 200, "velocity": 95}, {"time": 24722, "pitch": 50, "duration": 200, "velocity": 90}, {"time": 24722, "pitch": 55, "duration": 200, "velocity": 95}, {"time": 24722, "pitch": 58, "duration": 200, "velocity": 100}, {"time": 25201, "pitch": 46, "duration": 199, "velocity": 95}, {"time": 25201, "pitch": 50, "duration": 199, "velocity": 90}, {"time": 25201, "pitch": 55, "duration": 199, "velocity": 95}, {"time": 25201, "pitch": 58, "duration": 199, "velocity": 100}, {"time": 25679, "pitch": 48, "duration": 200, "velocity": 95}, {"time": 25679, "pitch": 55, "duration": 200, "velocity": 90}, {"time": 25679, "pitch": 58, "duration": 200, "velocity": 95}, {"time": 25679, "pitch": 64, "duration": 200, "velocity": 100}, {"time": 26397, "pitch": 48, "duration": 199, "velocity": 95}, {"time": 26397, "pitch": 55, "duration": 199, "velocity": 90}, {"time": 26397, "pitch": 58, "duration": 199, "velocity": 95}, {"time": 26397, "pitch": 64, "duration": 199, "velocity": 100}, {"time": 26875, "pitch": 48, "duration": 469, "velocity": 95}, {"time": 26875, "pitch": 55, "duration": 469, "velocity": 90}, {"time": 26875, "pitch": 58, "duration": 469, "velocity": 95}, {"time": 26875, "pitch": 64, "duration": 469, "velocity": 100}, {"time": 27365, "pitch": 45, "duration": 199, "velocity": 95}, {"time": 27365, "pitch": 50, "duration": 199, "velocity": 90}, {"time": 27365, "pitch": 57, "duration": 199, "velocity": 95}, {"time": 27365, "pitch": 60, "duration": 199, "velocity": 100}, {"time": 27843, "pitch": 45, "duration": 459, "velocity": 95}, {"time": 27843, "pitch": 50, "duration": 459, "velocity": 90}, {"time": 27843, "pitch": 57, "duration": 459, "velocity": 95}, {"time": 27843, "pitch": 60, "duration": 459, "velocity": 100}, {"time": 28561, "pitch": 45, "duration": 199, "velocity": 95}, {"time": 28561, "pitch": 50, "duration": 199, "velocity": 90}, {"time": 28561, "pitch": 57, "duration": 199, "velocity": 95}, {"time": 28561, "pitch": 60, "duration": 199, "velocity": 100}, {"time": 29039, "pitch": 45, "duration": 200, "velocity": 95}, {"time": 29039, "pitch": 50, "duration": 200, "velocity": 90}, {"time": 29039, "pitch": 57, "duration": 200, "velocity": 95}, {"time": 29039, "pitch": 60, "duration": 200, "velocity": 100}, {"time": 29518, "pitch": 45, "duration": 199, "velocity": 95}, {"time": 29518, "pitch": 50, "duration": 199, "velocity": 90}, {"time": 29518, "pitch": 57, "duration": 199, "velocity": 95}, {"time": 29518, "pitch": 60, "duration": 199, "velocity": 100}, {"time": 29996, "pitch": 45, "duration": 80, "velocity": 95}, {"time": 29996, "pitch": 50, "duration": 80, "velocity": 90}, {"time": 29996, "pitch": 57, "duration": 80, "velocity": 95}, {"time": 29996, "pitch": 60, "duration": 80, "velocity": 100}, {"time": 30235, "pitch": 72, "duration": 245, "velocity": 110}, {"time": 30480, "pitch": 69, "duration": 245, "velocity": 105}, {"time": 30725, "pitch": 65, "duration": 239, "velocity": 100}, {"time": 31203, "pitch": 50, "duration": 199, "velocity": 95}, {"time": 31203, "pitch": 55, "duration": 199, "velocity": 90}, {"time": 31203, "pitch": 59, "duration": 199, "velocity": 95}, {"time": 31203, "pitch": 65, "duration": 199, "velocity": 100}, {"time": 31682, "pitch": 50, "duration": 458, "velocity": 95}, {"time": 31682, "pitch": 55, "duration": 458, "velocity": 90}, {"time": 31682, "pitch": 59, "duration": 458, "velocity": 95}, {"time": 31682, "pitch": 65, "duration": 458, "velocity": 100}, {"time": 32399, "pitch": 50, "duration": 200, "velocity": 95}, {"time": 32399, "pitch": 55, "duration": 200, "velocity": 90}, {"time": 32399, "pitch": 59, "duration": 200, "velocity": 95}, {"time": 32399, "pitch": 65, "duration": 200, "velocity": 100}, {"time": 32878, "pitch": 50, "duration": 199, "velocity": 95}, {"time": 32878, "pitch": 55, "duration": 199, "velocity": 90}, {"time": 32878, "pitch": 59, "duration": 199, "velocity": 95}, {"time": 32878, "pitch": 65, "duration": 199, "velocity": 100}, {"time": 33356, "pitch": 50, "duration": 199, "velocity": 95}, {"time": 33356, "pitch": 55, "duration": 199, "velocity": 90}, {"time": 33356, "pitch": 59, "duration": 199, "velocity": 95}, {"time": 33356, "pitch": 65, "duration": 199, "velocity": 100}, {"time": 34085, "pitch": 50, "duration": 199, "velocity": 95}, {"time": 34085, "pitch": 55, "duration": 199, "velocity": 90}, {"time": 34085, "pitch": 59, "duration": 199, "velocity": 95}, {"time": 34085, "pitch": 65, "duration": 199, "velocity": 100}, {"time": 34563, "pitch": 50, "duration": 459, "velocity": 95}, {"time": 34563, "pitch": 55, "duration": 459, "velocity": 90}, {"time": 34563, "pitch": 59, "duration": 459, "velocity": 95}, {"time": 34563, "pitch": 65, "duration": 459, "velocity": 100}, {"time": 35042, "pitch": 48, "duration": 199, "velocity": 95}, {"time": 35042, "pitch": 55, "duration": 199, "velocity": 90}, {"time": 35042, "pitch": 59, "duration": 199, "velocity": 95}, {"time": 35042, "pitch": 64, "duration": 199, "velocity": 100}, {"time": 35520, "pitch": 48, "duration": 458, "velocity": 95}, {"time": 35520, "pitch": 55, "duration": 458, "velocity": 90}, {"time": 35520, "pitch": 59, "duration": 458, "velocity": 95}, {"time": 35520, "pitch": 64, "duration": 458, "velocity": 100}, {"time": 36238, "pitch": 48, "duration": 199, "velocity": 95}, {"time": 36238, "pitch": 55, "duration": 199, "velocity": 90}, {"time": 36238, "pitch": 59, "duration": 199, "velocity": 95}, {"time": 36238, "pitch": 64, "duration": 199, "velocity": 100}, {"time": 36716, "pitch": 48, "duration": 199, "velocity": 95}, {"time": 36716, "pitch": 55, "duration": 199, "velocity": 90}, {"time": 36716, "pitch": 59, "duration": 199, "velocity": 95}, {"time": 36716, "pitch": 64, "duration": 199, "velocity": 100}, {"time": 37200, "pitch": 48, "duration": 204, "velocity": 95}, {"time": 37200, "pitch": 55, "duration": 204, "velocity": 90}, {"time": 37200, "pitch": 59, "duration": 204, "velocity": 95}, {"time": 37200, "pitch": 64, "duration": 204, "velocity": 100}, {"time": 37923, "pitch": 48, "duration": 199, "velocity": 95}, {"time": 37923, "pitch": 55, "duration": 199, "velocity": 90}, {"time": 37923, "pitch": 59, "duration": 199, "velocity": 95}, {"time": 37923, "pitch": 64, "duration": 199, "velocity": 100}, {"time": 38402, "pitch": 48, "duration": 458, "velocity": 95}, {"time": 38402, "pitch": 55, "duration": 458, "velocity": 90}, {"time": 38402, "pitch": 59, "duration": 458, "velocity": 95}, {"time": 38402, "pitch": 64, "duration": 458, "velocity": 100}, {"time": 38880, "pitch": 48, "duration": 199, "velocity": 95}, {"time": 38880, "pitch": 55, "duration": 199, "velocity": 90}, {"time": 38880, "pitch": 59, "duration": 199, "velocity": 95}, {"time": 38880, "pitch": 64, "duration": 199, "velocity": 100}, {"time": 39358, "pitch": 48, "duration": 459, "velocity": 95}, {"time": 39358, "pitch": 55, "duration": 459, "velocity": 90}, {"time": 39358, "pitch": 59, "duration": 459, "velocity": 95}, {"time": 39358, "pitch": 64, "duration": 459, "velocity": 100}, {"time": 40076, "pitch": 48, "duration": 199, "velocity": 95}, {"time": 40076, "pitch": 55, "duration": 199, "velocity": 90}, {"time": 40076, "pitch": 59, "duration": 199, "velocity": 95}, {"time": 40076, "pitch": 64, "duration": 199, "velocity": 100}, {"time": 40560, "pitch": 48, "duration": 204, "velocity": 95}, {"time": 40560, "pitch": 55, "duration": 204, "velocity": 90}, {"time": 40560, "pitch": 59, "duration": 204, "velocity": 95}, {"time": 40560, "pitch": 64, "duration": 204, "velocity": 100}, {"time": 41044, "pitch": 48, "duration": 199, "velocity": 95}, {"time": 41044, "pitch": 55, "duration": 199, "velocity": 90}, {"time": 41044, "pitch": 59, "duration": 199, "velocity": 95}, {"time": 41044, "pitch": 64, "duration": 199, "velocity": 100}, {"time": 41762, "pitch": 48, "duration": 199, "velocity": 95}, {"time": 41762, "pitch": 55, "duration": 199, "velocity": 90}, {"time": 41762, "pitch": 59, "duration": 199, "velocity": 95}, {"time": 41762, "pitch": 64, "duration": 199, "velocity": 100}, {"time": 42240, "pitch": 48, "duration": 458, "velocity": 95}, {"time": 42240, "pitch": 55, "duration": 458, "velocity": 90}, {"time": 42240, "pitch": 59, "duration": 458, "velocity": 95}, {"time": 42240, "pitch": 64, "duration": 458, "velocity": 100}, {"time": 42718, "pitch": 48, "duration": 200, "velocity": 95}, {"time": 42718, "pitch": 52, "duration": 200, "velocity": 90}, {"time": 42718, "pitch": 55, "duration": 200, "velocity": 95}, {"time": 42718, "pitch": 59, "duration": 200, "velocity": 100}, {"time": 43197, "pitch": 48, "duration": 458, "velocity": 95}, {"time": 43197, "pitch": 52, "duration": 458, "velocity": 90}, {"time": 43197, "pitch": 55, "duration": 458, "velocity": 95}, {"time": 43197, "pitch": 59, "duration": 458, "velocity": 100}, {"time": 43920, "pitch": 48, "duration": 204, "velocity": 95}, {"time": 43920, "pitch": 52, "duration": 204, "velocity": 90}, {"time": 43920, "pitch": 55, "duration": 204, "velocity": 95}, {"time": 43920, "pitch": 59, "duration": 204, "velocity": 100}, {"time": 44404, "pitch": 48, "duration": 199, "velocity": 95}, {"time": 44404, "pitch": 52, "duration": 199, "velocity": 90}, {"time": 44404, "pitch": 55, "duration": 199, "velocity": 95}, {"time": 44404, "pitch": 59, "duration": 199, "velocity": 100}, {"time": 44882, "pitch": 48, "duration": 200, "velocity": 95}, {"time": 44882, "pitch": 52, "duration": 200, "velocity": 90}, {"time": 44882, "pitch": 55, "duration": 200, "velocity": 95}, {"time": 44882, "pitch": 59, "duration": 200, "velocity": 100}, {"time": 45600, "pitch": 48, "duration": 199, "velocity": 95}, {"time": 45600, "pitch": 52, "duration": 199, "velocity": 90}, {"time": 45600, "pitch": 55, "duration": 199, "velocity": 95}, {"time": 45600, "pitch": 59, "duration": 199, "velocity": 100}, {"time": 46078, "pitch": 48, "duration": 459, "velocity": 95}, {"time": 46078, "pitch": 55, "duration": 459, "velocity": 90}, {"time": 46078, "pitch": 59, "duration": 459, "velocity": 95}, {"time": 46078, "pitch": 64, "duration": 459, "velocity": 100}, {"time": 46557, "pitch": 47, "duration": 199, "velocity": 95}, {"time": 46557, "pitch": 50, "duration": 199, "velocity": 90}, {"time": 46557, "pitch": 53, "duration": 199, "velocity": 95}, {"time": 46557, "pitch": 57, "duration": 199, "velocity": 100}, {"time": 47035, "pitch": 47, "duration": 469, "velocity": 95}, {"time": 47035, "pitch": 50, "duration": 469, "velocity": 90}, {"time": 47035, "pitch": 53, "duration": 469, "velocity": 95}, {"time": 47035, "pitch": 57, "duration": 469, "velocity": 100}, {"time": 47764, "pitch": 47, "duration": 199, "velocity": 95}, {"time": 47764, "pitch": 50, "duration": 199, "velocity": 90}, {"time": 47764, "pitch": 53, "duration": 199, "velocity": 95}, {"time": 47764, "pitch": 57, "duration": 199, "velocity": 100}, {"time": 48242, "pitch": 47, "duration": 200, "velocity": 95}, {"time": 48242, "pitch": 50, "duration": 200, "velocity": 90}, {"time": 48242, "pitch": 53, "duration": 200, "velocity": 95}, {"time": 48242, "pitch": 57, "duration": 200, "velocity": 100}, {"time": 48721, "pitch": 47, "duration": 199, "velocity": 95}, {"time": 48721, "pitch": 50, "duration": 199, "velocity": 90}, {"time": 48721, "pitch": 56, "duration": 199, "velocity": 95}, {"time": 48721, "pitch": 59, "duration": 199, "velocity": 100}, {"time": 49438, "pitch": 47, "duration": 200, "velocity": 95}, {"time": 49438, "pitch": 50, "duration": 200, "velocity": 90}, {"time": 49438, "pitch": 56, "duration": 200, "velocity": 95}, {"time": 49438, "pitch": 59, "duration": 200, "velocity": 100}, {"time": 49917, "pitch": 47, "duration": 458, "velocity": 95}, {"time": 49917, "pitch": 56, "duration": 458, "velocity": 90}, {"time": 49917, "pitch": 59, "duration": 458, "velocity": 95}, {"time": 49917, "pitch": 62, "duration": 458, "velocity": 100}, {"time": 50395, "pitch": 45, "duration": 204, "velocity": 95}, {"time": 50395, "pitch": 52, "duration": 204, "velocity": 90}, {"time": 50395, "pitch": 55, "duration": 204, "velocity": 95}, {"time": 50395, "pitch": 60, "duration": 204, "velocity": 100}, {"time": 50885, "pitch": 45, "duration": 458, "velocity": 95}, {"time": 50885, "pitch": 52, "duration": 458, "velocity": 90}, {"time": 50885, "pitch": 55, "duration": 458, "velocity": 95}, {"time": 50885, "pitch": 60, "duration": 458, "velocity": 100}, {"time": 51602, "pitch": 45, "duration": 200, "velocity": 95}, {"time": 51602, "pitch": 52, "duration": 200, "velocity": 90}, {"time": 51602, "pitch": 55, "duration": 200, "velocity": 95}, {"time": 51602, "pitch": 60, "duration": 200, "velocity": 100}, {"time": 52081, "pitch": 45, "duration": 199, "velocity": 95}, {"time": 52081, "pitch": 52, "duration": 199, "velocity": 90}, {"time": 52081, "pitch": 55, "duration": 199, "velocity": 95}, {"time": 52081, "pitch": 60, "duration": 199, "velocity": 100}, {"time": 52559, "pitch": 45, "duration": 199, "velocity": 95}, {"time": 52559, "pitch": 52, "duration": 199, "velocity": 90}, {"time": 52559, "pitch": 55, "duration": 199, "velocity": 95}, {"time": 52559, "pitch": 60, "duration": 199, "velocity": 100}, {"time": 53277, "pitch": 45, "duration": 199, "velocity": 95}, {"time": 53277, "pitch": 52, "duration": 199, "velocity": 90}, {"time": 53277, "pitch": 55, "duration": 199, "velocity": 95}, {"time": 53277, "pitch": 60, "duration": 199, "velocity": 100}, {"time": 53755, "pitch": 51, "duration": 469, "velocity": 95}, {"time": 53755, "pitch": 56, "duration": 469, "velocity": 90}, {"time": 53755, "pitch": 59, "duration": 469, "velocity": 95}, {"time": 53755, "pitch": 63, "duration": 469, "velocity": 100}, {"time": 54245, "pitch": 46, "duration": 199, "velocity": 95}, {"time": 54245, "pitch": 50, "duration": 199, "velocity": 90}, {"time": 54245, "pitch": 55, "duration": 199, "velocity": 95}, {"time": 54245, "pitch": 58, "duration": 199, "velocity": 100}, {"time": 54723, "pitch": 46, "duration": 459, "velocity": 95}, {"time": 54723, "pitch": 50, "duration": 459, "velocity": 90}, {"time": 54723, "pitch": 55, "duration": 459, "velocity": 95}, {"time": 54723, "pitch": 58, "duration": 459, "velocity": 100}, {"time": 55441, "pitch": 46, "duration": 199, "velocity": 95}, {"time": 55441, "pitch": 50, "duration": 199, "velocity": 90}, {"time": 55441, "pitch": 55, "duration": 199, "velocity": 95}, {"time": 55441, "pitch": 58, "duration": 199, "velocity": 100}, {"time": 55919, "pitch": 46, "duration": 199, "velocity": 95}, {"time": 55919, "pitch": 50, "duration": 199, "velocity": 90}, {"time": 55919, "pitch": 55, "duration": 199, "velocity": 95}, {"time": 55919, "pitch": 58, "duration": 199, "velocity": 100}, {"time": 56398, "pitch": 48, "duration": 199, "velocity": 95}, {"time": 56398, "pitch": 55, "duration": 199, "velocity": 90}, {"time": 56398, "pitch": 58, "duration": 199, "velocity": 95}, {"time": 56398, "pitch": 64, "duration": 199, "velocity": 100}, {"time": 57115, "pitch": 48, "duration": 204, "velocity": 95}, {"time": 57115, "pitch": 55, "duration": 204, "velocity": 90}, {"time": 57115, "pitch": 58, "duration": 204, "velocity": 95}, {"time": 57115, "pitch": 64, "duration": 204, "velocity": 100}, {"time": 57605, "pitch": 48, "duration": 458, "velocity": 95}, {"time": 57605, "pitch": 55, "duration": 458, "velocity": 90}, {"time": 57605, "pitch": 58, "duration": 458, "velocity": 95}, {"time": 57605, "pitch": 64, "duration": 458, "velocity": 100}, {"time": 58083, "pitch": 45, "duration": 199, "velocity": 95}, {"time": 58083, "pitch": 50, "duration": 199, "velocity": 90}, {"time": 58083, "pitch": 57, "duration": 199, "velocity": 95}, {"time": 58083, "pitch": 60, "duration": 199, "velocity": 100}, {"time": 58562, "pitch": 45, "duration": 458, "velocity": 95}, {"time": 58562, "pitch": 50, "duration": 458, "velocity": 90}, {"time": 58562, "pitch": 57, "duration": 458, "velocity": 95}, {"time": 58562, "pitch": 60, "duration": 458, "velocity": 100}, {"time": 59279, "pitch": 45, "duration": 199, "velocity": 95}, {"time": 59279, "pitch": 50, "duration": 199, "velocity": 90}, {"time": 59279, "pitch": 57, "duration": 199, "velocity": 95}, {"time": 59279, "pitch": 60, "duration": 199, "velocity": 100}, {"time": 59758, "pitch": 45, "duration": 199, "velocity": 95}, {"time": 59758, "pitch": 50, "duration": 199, "velocity": 90}, {"time": 59758, "pitch": 57, "duration": 199, "velocity": 95}, {"time": 59758, "pitch": 60, "duration": 199, "velocity": 100}, {"time": 60236, "pitch": 45, "duration": 199, "velocity": 95}, {"time": 60236, "pitch": 50, "duration": 199, "velocity": 90}, {"time": 60236, "pitch": 57, "duration": 199, "velocity": 95}, {"time": 60236, "pitch": 60, "duration": 199, "velocity": 100}, {"time": 60720, "pitch": 45, "duration": 82, "velocity": 95}, {"time": 60720, "pitch": 50, "duration": 82, "velocity": 90}, {"time": 60720, "pitch": 57, "duration": 82, "velocity": 95}, {"time": 60720, "pitch": 60, "duration": 82, "velocity": 100}, {"time": 60965, "pitch": 72, "duration": 239, "velocity": 110}, {"time": 61204, "pitch": 69, "duration": 239, "velocity": 105}, {"time": 61443, "pitch": 65, "duration": 239, "velocity": 100}, {"time": 61922, "pitch": 50, "duration": 199, "velocity": 95}, {"time": 61922, "pitch": 55, "duration": 199, "velocity": 90}, {"time": 61922, "pitch": 59, "duration": 199, "velocity": 95}, {"time": 61922, "pitch": 65, "duration": 199, "velocity": 100}, {"time": 62400, "pitch": 50, "duration": 458, "velocity": 95}, {"time": 62400, "pitch": 55, "duration": 458, "velocity": 90}, {"time": 62400, "pitch": 59, "duration": 458, "velocity": 95}, {"time": 62400, "pitch": 65, "duration": 458, "velocity": 100}, {"time": 63118, "pitch": 50, "duration": 199, "velocity": 95}, {"time": 63118, "pitch": 55, "duration": 199, "velocity": 90}, {"time": 63118, "pitch": 59, "duration": 199, "velocity": 95}, {"time": 63118, "pitch": 65, "duration": 199, "velocity": 100}, {"time": 63596, "pitch": 50, "duration": 199, "velocity": 95}, {"time": 63596, "pitch": 55, "duration": 199, "velocity": 90}, {"time": 63596, "pitch": 59, "duration": 199, "velocity": 95}, {"time": 63596, "pitch": 65, "duration": 199, "velocity": 100}, {"time": 64080, "pitch": 50, "duration": 204, "velocity": 95}, {"time": 64080, "pitch": 55, "duration": 204, "velocity": 90}, {"time": 64080, "pitch": 59, "duration": 204, "velocity": 95}, {"time": 64080, "pitch": 65, "duration": 204, "velocity": 100}, {"time": 64803, "pitch": 50, "duration": 199, "velocity": 95}, {"time": 64803, "pitch": 55, "duration": 199, "velocity": 90}, {"time": 64803, "pitch": 59, "duration": 199, "velocity": 95}, {"time": 64803, "pitch": 65, "duration": 199, "velocity": 100}, {"time": 65282, "pitch": 50, "duration": 458, "velocity": 95}, {"time": 65282, "pitch": 55, "duration": 458, "velocity": 90}, {"time": 65282, "pitch": 59, "duration": 458, "velocity": 95}, {"time": 65282, "pitch": 65, "duration": 458, "velocity": 100}, {"time": 65760, "pitch": 48, "duration": 199, "velocity": 95}, {"time": 65760, "pitch": 55, "duration": 199, "velocity": 90}, {"time": 65760, "pitch": 59, "duration": 199, "velocity": 95}, {"time": 65760, "pitch": 64, "duration": 199, "velocity": 100}, {"time": 66238, "pitch": 48, "duration": 459, "velocity": 95}, {"time": 66238, "pitch": 55, "duration": 459, "velocity": 90}, {"time": 66238, "pitch": 59, "duration": 459, "velocity": 95}, {"time": 66238, "pitch": 64, "duration": 459, "velocity": 100}, {"time": 66956, "pitch": 48, "duration": 199, "velocity": 95}, {"time": 66956, "pitch": 55, "duration": 199, "velocity": 90}, {"time": 66956, "pitch": 59, "duration": 199, "velocity": 95}, {"time": 66956, "pitch": 64, "duration": 199, "velocity": 100}, {"time": 67440, "pitch": 48, "duration": 204, "velocity": 95}, {"time": 67440, "pitch": 55, "duration": 204, "velocity": 90}, {"time": 67440, "pitch": 59, "duration": 204, "velocity": 95}, {"time": 67440, "pitch": 64, "duration": 204, "velocity": 100}, {"time": 67924, "pitch": 48, "duration": 199, "velocity": 95}, {"time": 67924, "pitch": 55, "duration": 199, "velocity": 90}, {"time": 67924, "pitch": 59, "duration": 199, "velocity": 95}, {"time": 67924, "pitch": 64, "duration": 199, "velocity": 100}, {"time": 68642, "pitch": 48, "duration": 199, "velocity": 95}, {"time": 68642, "pitch": 55, "duration": 199, "velocity": 90}, {"time": 68642, "pitch": 59, "duration": 199, "velocity": 95}, {"time": 68642, "pitch": 64, "duration": 199, "velocity": 100}, {"time": 69120, "pitch": 48, "duration": 458, "velocity": 95}, {"time": 69120, "pitch": 55, "duration": 458, "velocity": 90}, {"time": 69120, "pitch": 59, "duration": 458, "velocity": 95}, {"time": 69120, "pitch": 64, "duration": 458, "velocity": 100}, {"time": 69598, "pitch": 48, "duration": 200, "velocity": 95}, {"time": 69598, "pitch": 55, "duration": 200, "velocity": 90}, {"time": 69598, "pitch": 59, "duration": 200, "velocity": 95}, {"time": 69598, "pitch": 64, "duration": 200, "velocity": 100}, {"time": 70077, "pitch": 48, "duration": 458, "velocity": 95}, {"time": 70077, "pitch": 55, "duration": 458, "velocity": 90}, {"time": 70077, "pitch": 59, "duration": 458, "velocity": 95}, {"time": 70077, "pitch": 64, "duration": 458, "velocity": 100}, {"time": 70800, "pitch": 48, "duration": 204, "velocity": 95}, {"time": 70800, "pitch": 55, "duration": 204, "velocity": 90}, {"time": 70800, "pitch": 59, "duration": 204, "velocity": 95}, {"time": 70800, "pitch": 64, "duration": 204, "velocity": 100}, {"time": 71284, "pitch": 48, "duration": 199, "velocity": 95}, {"time": 71284, "pitch": 55, "duration": 199, "velocity": 90}, {"time": 71284, "pitch": 59, "duration": 199, "velocity": 95}, {"time": 71284, "pitch": 64, "duration": 199, "velocity": 100}, {"time": 71762, "pitch": 48, "duration": 200, "velocity": 95}, {"time": 71762, "pitch": 55, "duration": 200, "velocity": 90}, {"time": 71762, "pitch": 59, "duration": 200, "velocity": 95}, {"time": 71762, "pitch": 64, "duration": 200, "velocity": 100}, {"time": 72480, "pitch": 48, "duration": 199, "velocity": 95}, {"time": 72480, "pitch": 55, "duration": 199, "velocity": 90}, {"time": 72480, "pitch": 59, "duration": 199, "velocity": 95}, {"time": 72480, "pitch": 64, "duration": 199, "velocity": 100}, {"time": 72958, "pitch": 48, "duration": 459, "velocity": 95}, {"time": 72958, "pitch": 55, "duration": 459, "velocity": 90}, {"time": 72958, "pitch": 59, "duration": 459, "velocity": 95}, {"time": 72958, "pitch": 64, "duration": 459, "velocity": 100}, {"time": 73437, "pitch": 47, "duration": 1905, "velocity": 90}, {"time": 73457, "pitch": 50, "duration": 1885, "velocity": 85}, {"time": 73477, "pitch": 57, "duration": 1865, "velocity": 90}, {"time": 73497, "pitch": 59, "duration": 1845, "velocity": 95}, {"time": 73516, "pitch": 65, "duration": 1826, "velocity": 100}, {"time": 75362, "pitch": 47, "duration": 1893, "velocity": 90}, {"time": 75381, "pitch": 50, "duration": 1874, "velocity": 85}, {"time": 75401, "pitch": 56, "duration": 1854, "velocity": 90}, {"time": 75421, "pitch": 59, "duration": 1834, "velocity": 95}, {"time": 75441, "pitch": 64, "duration": 1814, "velocity": 100}, {"time": 77275, "pitch": 45, "duration": 204, "velocity": 95}, {"time": 77275, "pitch": 52, "duration": 204, "velocity": 90}, {"time": 77275, "pitch": 55, "duration": 204, "velocity": 95}, {"time": 77275, "pitch": 60, "duration": 204, "velocity": 100}, {"time": 77765, "pitch": 45, "duration": 458, "velocity": 95}, {"time": 77765, "pitch": 52, "duration": 458, "velocity": 90}, {"time": 77765, "pitch": 55, "duration": 458, "velocity": 95}, {"time": 77765, "pitch": 60, "duration": 458, "velocity": 100}, {"time": 78482, "pitch": 45, "duration": 200, "velocity": 95}, {"time": 78482, "pitch": 52, "duration": 200, "velocity": 90}, {"time": 78482, "pitch": 55, "duration": 200, "velocity": 95}, {"time": 78482, "pitch": 60, "duration": 200, "velocity": 100}, {"time": 78961, "pitch": 45, "duration": 199, "velocity": 95}, {"time": 78961, "pitch": 52, "duration": 199, "velocity": 90}, {"time": 78961, "pitch": 55, "duration": 199, "velocity": 95}, {"time": 78961, "pitch": 60, "duration": 199, "velocity": 100}, {"time": 79439, "pitch": 45, "duration": 199, "velocity": 95}, {"time": 79439, "pitch": 52, "duration": 199, "velocity": 90}, {"time": 79439, "pitch": 55, "duration": 199, "velocity": 95}, {"time": 79439, "pitch": 60, "duration": 199, "velocity": 100}, {"time": 80157, "pitch": 45, "duration": 199, "velocity": 95}, {"time": 80157, "pitch": 52, "duration": 199, "velocity": 90}, {"time": 80157, "pitch": 55, "duration": 199, "velocity": 95}, {"time": 80157, "pitch": 60, "duration": 199, "velocity": 100}, {"time": 80635, "pitch": 45, "duration": 469, "velocity": 95}, {"time": 80635, "pitch": 52, "duration": 469, "velocity": 90}, {"time": 80635, "pitch": 55, "duration": 469, "velocity": 95}, {"time": 80635, "pitch": 60, "duration": 469, "velocity": 100}, {"time": 81125, "pitch": 47, "duration": 1893, "velocity": 90}, {"time": 81145, "pitch": 50, "duration": 1873, "velocity": 85}, {"time": 81165, "pitch": 57, "duration": 1853, "velocity": 90}, {"time": 81185, "pitch": 59, "duration": 1833, "velocity": 95}, {"time": 81204, "pitch": 65, "duration": 1814, "velocity": 100}, {"time": 83038, "pitch": 47, "duration": 1905, "velocity": 90}, {"time": 83058, "pitch": 50, "duration": 1885, "velocity": 85}, {"time": 83078, "pitch": 56, "duration": 1865, "velocity": 90}, {"time": 83098, "pitch": 59, "duration": 1845, "velocity": 95}, {"time": 83118, "pitch": 64, "duration": 1825, "velocity": 100}, {"time": 84963, "pitch": 45, "duration": 199, "velocity": 95}, {"time": 84963, "pitch": 52, "duration": 199, "velocity": 90}, {"time": 84963, "pitch": 55, "duration": 199, "velocity": 95}, {"time": 84963, "pitch": 60, "duration": 199, "velocity": 100}, {"time": 85442, "pitch": 45, "duration": 458, "velocity": 95}, {"time": 85442, "pitch": 52, "duration": 458, "velocity": 90}, {"time": 85442, "pitch": 55, "duration": 458, "velocity": 95}, {"time": 85442, "pitch": 60, "duration": 458, "velocity": 100}, {"time": 86159, "pitch": 45, "duration": 199, "velocity": 95}, {"time": 86159, "pitch": 52, "duration": 199, "velocity": 90}, {"time": 86159, "pitch": 55, "duration": 199, "velocity": 95}, {"time": 86159, "pitch": 60, "duration": 199, "velocity": 100}, {"time": 86638, "pitch": 45, "duration": 199, "velocity": 95}, {"time": 86638, "pitch": 52, "duration": 199, "velocity": 90}, {"time": 86638, "pitch": 55, "duration": 199, "velocity": 95}, {"time": 86638, "pitch": 60, "duration": 199, "velocity": 100}, {"time": 87116, "pitch": 45, "duration": 199, "velocity": 95}, {"time": 87116, "pitch": 52, "duration": 199, "velocity": 90}, {"time": 87116, "pitch": 55, "duration": 199, "velocity": 95}, {"time": 87116, "pitch": 60, "duration": 199, "velocity": 100}, {"time": 87845, "pitch": 45, "duration": 199, "velocity": 95}, {"time": 87845, "pitch": 52, "duration": 199, "velocity": 90}, {"time": 87845, "pitch": 55, "duration": 199, "velocity": 95}, {"time": 87845, "pitch": 60, "duration": 199, "velocity": 100}, {"time": 88084, "pitch": 45, "duration": 698, "velocity": 95}, {"time": 88084, "pitch": 52, "duration": 698, "velocity": 90}, {"time": 88084, "pitch": 55, "duration": 698, "velocity": 95}, {"time": 88084, "pitch": 60, "duration": 698, "velocity": 100}, {"time": 88802, "pitch": 45, "duration": 199, "velocity": 95}, {"time": 88802, "pitch": 50, "duration": 199, "velocity": 90}, {"time": 88802, "pitch": 57, "duration": 199, "velocity": 95}, {"time": 88802, "pitch": 60, "duration": 199, "velocity": 100}, {"time": 89280, "pitch": 45, "duration": 458, "velocity": 95}, {"time": 89280, "pitch": 50, "duration": 458, "velocity": 90}, {"time": 89280, "pitch": 57, "duration": 458, "velocity": 95}, {"time": 89280, "pitch": 60, "duration": 458, "velocity": 100}, {"time": 89998, "pitch": 45, "duration": 199, "velocity": 95}, {"time": 89998, "pitch": 50, "duration": 199, "velocity": 90}, {"time": 89998, "pitch": 57, "duration": 199, "velocity": 95}, {"time": 89998, "pitch": 60, "duration": 199, "velocity": 100}, {"time": 90476, "pitch": 45, "duration": 199, "velocity": 95}, {"time": 90476, "pitch": 50, "duration": 199, "velocity": 90}, {"time": 90476, "pitch": 57, "duration": 199, "velocity": 95}, {"time": 90476, "pitch": 60, "duration": 199, "velocity": 100}, {"time": 90960, "pitch": 45, "duration": 204, "velocity": 95}, {"time": 90960, "pitch": 50, "duration": 204, "velocity": 90}, {"time": 90960, "pitch": 57, "duration": 204, "velocity": 95}, {"time": 90960, "pitch": 60, "duration": 204, "velocity": 100}, {"time": 91683, "pitch": 45, "duration": 199, "velocity": 95}, {"time": 91683, "pitch": 50, "duration": 199, "velocity": 90}, {"time": 91683, "pitch": 57, "duration": 199, "velocity": 95}, {"time": 91683, "pitch": 60, "duration": 199, "velocity": 100}, {"time": 92162, "pitch": 45, "duration": 458, "velocity": 95}, {"time": 92162, "pitch": 50, "duration": 458, "velocity": 90}, {"time": 92162, "pitch": 57, "duration": 458, "velocity": 95}, {"time": 92162, "pitch": 60, "duration": 458, "velocity": 100}, {"time": 92640, "pitch": 47, "duration": 199, "velocity": 95}, {"time": 92640, "pitch": 52, "duration": 199, "velocity": 90}, {"time": 92640, "pitch": 55, "duration": 199, "velocity": 95}, {"time": 92640, "pitch": 62, "duration": 199, "velocity": 100}, {"time": 93118, "pitch": 47, "duration": 459, "velocity": 95}, {"time": 93118, "pitch": 52, "duration": 459, "velocity": 90}, {"time": 93118, "pitch": 55, "duration": 459, "velocity": 95}, {"time": 93118, "pitch": 62, "duration": 459, "velocity": 100}, {"time": 93836, "pitch": 47, "duration": 199, "velocity": 95}, {"time": 93836, "pitch": 52, "duration": 199, "velocity": 90}, {"time": 93836, "pitch": 55, "duration": 199, "velocity": 95}, {"time": 93836, "pitch": 62, "duration": 199, "velocity": 100}, {"time": 94320, "pitch": 47, "duration": 204, "velocity": 95}, {"time": 94320, "pitch": 52, "duration": 204, "velocity": 90}, {"time": 94320, "pitch": 55, "duration": 204, "velocity": 95}, {"time": 94320, "pitch": 62, "duration": 204, "velocity": 100}, {"time": 94804, "pitch": 47, "duration": 199, "velocity": 95}, {"time": 94804, "pitch": 52, "duration": 199, "velocity": 90}, {"time": 94804, "pitch": 55, "duration": 199, "velocity": 95}, {"time": 94804, "pitch": 62, "duration": 199, "velocity": 100}, {"time": 95521, "pitch": 47, "duration": 200, "velocity": 95}, {"time": 95521, "pitch": 52, "duration": 200, "velocity": 90}, {"time": 95521, "pitch": 55, "duration": 200, "velocity": 95}, {"time": 95521, "pitch": 62, "duration": 200, "velocity": 100}, {"time": 96000, "pitch": 47, "duration": 458, "velocity": 95}, {"time": 96000, "pitch": 52, "duration": 458, "velocity": 90}, {"time": 96000, "pitch": 55, "duration": 458, "velocity": 95}, {"time": 96000, "pitch": 62, "duration": 458, "velocity": 100}, {"time": 96478, "pitch": 48, "duration": 200, "velocity": 95}, {"time": 96478, "pitch": 53, "duration": 200, "velocity": 90}, {"time": 96478, "pitch": 57, "duration": 200, "velocity": 95}, {"time": 96478, "pitch": 64, "duration": 200, "velocity": 100}, {"time": 96957, "pitch": 48, "duration": 458, "velocity": 95}, {"time": 96957, "pitch": 53, "duration": 458, "velocity": 90}, {"time": 96957, "pitch": 57, "duration": 458, "velocity": 95}, {"time": 96957, "pitch": 64, "duration": 458, "velocity": 100}, {"time": 97680, "pitch": 48, "duration": 204, "velocity": 95}, {"time": 97680, "pitch": 53, "duration": 204, "velocity": 90}, {"time": 97680, "pitch": 57, "duration": 204, "velocity": 95}, {"time": 97680, "pitch": 64, "duration": 204, "velocity": 100}, {"time": 98164, "pitch": 48, "duration": 199, "velocity": 95}, {"time": 98164, "pitch": 53, "duration": 199, "velocity": 90}, {"time": 98164, "pitch": 57, "duration": 199, "velocity": 95}, {"time": 98164, "pitch": 64, "duration": 199, "velocity": 100}, {"time": 98642, "pitch": 48, "duration": 200, "velocity": 95}, {"time": 98642, "pitch": 53, "duration": 200, "velocity": 90}, {"time": 98642, "pitch": 57, "duration": 200, "velocity": 95}, {"time": 98642, "pitch": 64, "duration": 200, "velocity": 100}, {"time": 99360, "pitch": 48, "duration": 199, "velocity": 95}, {"time": 99360, "pitch": 53, "duration": 199, "velocity": 90}, {"time": 99360, "pitch": 57, "duration": 199, "velocity": 95}, {"time": 99360, "pitch": 64, "duration": 199, "velocity": 100}, {"time": 99838, "pitch": 48, "duration": 459, "velocity": 95}, {"time": 99838, "pitch": 53, "duration": 459, "velocity": 90}, {"time": 99838, "pitch": 57, "duration": 459, "velocity": 95}, {"time": 99838, "pitch": 64, "duration": 459, "velocity": 100}, {"time": 100317, "pitch": 79, "duration": 239, "velocity": 100}, {"time": 100795, "pitch": 50, "duration": 709, "velocity": 95}, {"time": 100795, "pitch": 55, "duration": 709, "velocity": 90}, {"time": 100795, "pitch": 59, "duration": 709, "velocity": 95}, {"time": 100795, "pitch": 67, "duration": 709, "velocity": 100}, {"time": 101524, "pitch": 76, "duration": 199, "velocity": 100}, {"time": 102002, "pitch": 50, "duration": 2133, "velocity": 95}, {"time": 102002, "pitch": 55, "duration": 2133, "velocity": 90}, {"time": 102002, "pitch": 59, "duration": 2133, "velocity": 95}, {"time": 102002, "pitch": 62, "duration": 2133, "velocity": 100}, {"time": 104155, "pitch": 53, "duration": 204, "velocity": 95}, {"time": 104155, "pitch": 57, "duration": 204, "velocity": 90}, {"time": 104155, "pitch": 60, "duration": 204, "velocity": 95}, {"time": 104155, "pitch": 64, "duration": 204, "velocity": 100}, {"time": 104645, "pitch": 53, "duration": 458, "velocity": 95}, {"time": 104645, "pitch": 57, "duration": 458, "velocity": 90}, {"time": 104645, "pitch": 60, "duration": 458, "velocity": 95}, {"time": 104645, "pitch": 64, "duration": 458, "velocity": 100}, {"time": 105362, "pitch": 53, "duration": 200, "velocity": 95}, {"time": 105362, "pitch": 57, "duration": 200, "velocity": 90}, {"time": 105362, "pitch": 60, "duration": 200, "velocity": 95}, {"time": 105362, "pitch": 64, "duration": 200, "velocity": 100}, {"time": 105841, "pitch": 53, "duration": 199, "velocity": 95}, {"time": 105841, "pitch": 57, "duration": 199, "velocity": 90}, {"time": 105841, "pitch": 60, "duration": 199, "velocity": 95}, {"time": 105841, "pitch": 64, "duration": 199, "velocity": 100}, {"time": 106319, "pitch": 50, "duration": 199, "velocity": 95}, {"time": 106319, "pitch": 56, "duration": 199, "velocity": 90}, {"time": 106319, "pitch": 59, "duration": 199, "velocity": 95}, {"time": 106319, "pitch": 64, "duration": 199, "velocity": 100}, {"time": 107037, "pitch": 50, "duration": 199, "velocity": 95}, {"time": 107037, "pitch": 56, "duration": 199, "velocity": 90}, {"time": 107037, "pitch": 59, "duration": 199, "velocity": 95}, {"time": 107037, "pitch": 64, "duration": 199, "velocity": 100}, {"time": 107515, "pitch": 50, "duration": 469, "velocity": 95}, {"time": 107515, "pitch": 56, "duration": 469, "velocity": 90}, {"time": 107515, "pitch": 59, "duration": 469, "velocity": 95}, {"time": 107515, "pitch": 64, "duration": 469, "velocity": 100}, {"time": 108005, "pitch": 45, "duration": 199, "velocity": 95}, {"time": 108005, "pitch": 55, "duration": 199, "velocity": 90}, {"time": 108005, "pitch": 60, "duration": 199, "velocity": 95}, {"time": 108005, "pitch": 64, "duration": 199, "velocity": 100}, {"time": 108483, "pitch": 45, "duration": 459, "velocity": 95}, {"time": 108483, "pitch": 55, "duration": 459, "velocity": 90}, {"time": 108483, "pitch": 60, "duration": 459, "velocity": 95}, {"time": 108483, "pitch": 64, "duration": 459, "velocity": 100}, {"time": 109201, "pitch": 45, "duration": 199, "velocity": 95}, {"time": 109201, "pitch": 55, "duration": 199, "velocity": 90}, {"time": 109201, "pitch": 60, "duration": 199, "velocity": 95}, {"time": 109201, "pitch": 64, "duration": 199, "velocity": 100}, {"time": 109679, "pitch": 45, "duration": 199, "velocity": 95}, {"time": 109679, "pitch": 55, "duration": 199, "velocity": 90}, {"time": 109679, "pitch": 60, "duration": 199, "velocity": 95}, {"time": 109679, "pitch": 64, "duration": 199, "velocity": 100}, {"time": 110157, "pitch": 48, "duration": 200, "velocity": 95}, {"time": 110157, "pitch": 58, "duration": 200, "velocity": 90}, {"time": 110157, "pitch": 64, "duration": 200, "velocity": 95}, {"time": 110157, "pitch": 67, "duration": 200, "velocity": 100}, {"time": 110875, "pitch": 48, "duration": 204, "velocity": 95}, {"time": 110875, "pitch": 58, "duration": 204, "velocity": 90}, {"time": 110875, "pitch": 64, "duration": 204, "velocity": 95}, {"time": 110875, "pitch": 67, "duration": 204, "velocity": 100}, {"time": 111365, "pitch": 48, "duration": 458, "velocity": 95}, {"time": 111365, "pitch": 58, "duration": 458, "velocity": 90}, {"time": 111365, "pitch": 64, "duration": 458, "velocity": 95}, {"time": 111365, "pitch": 67, "duration": 458, "velocity": 100}, {"time": 111843, "pitch": 53, "duration": 199, "velocity": 95}, {"time": 111843, "pitch": 57, "duration": 199, "velocity": 90}, {"time": 111843, "pitch": 60, "duration": 199, "velocity": 95}, {"time": 111843, "pitch": 64, "duration": 199, "velocity": 100}, {"time": 112321, "pitch": 53, "duration": 459, "velocity": 95}, {"time": 112321, "pitch": 57, "duration": 459, "velocity": 90}, {"time": 112321, "pitch": 60, "duration": 459, "velocity": 95}, {"time": 112321, "pitch": 64, "duration": 459, "velocity": 100}, {"time": 113039, "pitch": 53, "duration": 199, "velocity": 95}, {"time": 113039, "pitch": 57, "duration": 199, "velocity": 90}, {"time": 113039, "pitch": 60, "duration": 199, "velocity": 95}, {"time": 113039, "pitch": 64, "duration": 199, "velocity": 100}, {"time": 113517, "pitch": 53, "duration": 200, "velocity": 95}, {"time": 113517, "pitch": 57, "duration": 200, "velocity": 90}, {"time": 113517, "pitch": 60, "duration": 200, "velocity": 95}, {"time": 113517, "pitch": 64, "duration": 200, "velocity": 100}, {"time": 113996, "pitch": 50, "duration": 199, "velocity": 95}, {"time": 113996, "pitch": 56, "duration": 199, "velocity": 90}, {"time": 113996, "pitch": 59, "duration": 199, "velocity": 95}, {"time": 113996, "pitch": 64, "duration": 199, "velocity": 100}, {"time": 114725, "pitch": 50, "duration": 199, "velocity": 95}, {"time": 114725, "pitch": 56, "duration": 199, "velocity": 90}, {"time": 114725, "pitch": 59, "duration": 199, "velocity": 95}, {"time": 114725, "pitch": 64, "duration": 199, "velocity": 100}, {"time": 115203, "pitch": 50, "duration": 459, "velocity": 95}, {"time": 115203, "pitch": 56, "duration": 459, "velocity": 90}, {"time": 115203, "pitch": 59, "duration": 459, "velocity": 95}, {"time": 115203, "pitch": 64, "duration": 459, "velocity": 100}, {"time": 115681, "pitch": 45, "duration": 200, "velocity": 95}, {"time": 115681, "pitch": 55, "duration": 200, "velocity": 90}, {"time": 115681, "pitch": 60, "duration": 200, "velocity": 95}, {"time": 115681, "pitch": 64, "duration": 200, "velocity": 100}, {"time": 116160, "pitch": 45, "duration": 458, "velocity": 95}, {"time": 116160, "pitch": 55, "duration": 458, "velocity": 90}, {"time": 116160, "pitch": 60, "duration": 458, "velocity": 95}, {"time": 116160, "pitch": 64, "duration": 458, "velocity": 100}, {"time": 116877, "pitch": 45, "duration": 200, "velocity": 95}, {"time": 116877, "pitch": 55, "duration": 200, "velocity": 90}, {"time": 116877, "pitch": 60, "duration": 200, "velocity": 95}, {"time": 116877, "pitch": 64, "duration": 200, "velocity": 100}, {"time": 117356, "pitch": 45, "duration": 199, "velocity": 95}, {"time": 117356, "pitch": 55, "duration": 199, "velocity": 90}, {"time": 117356, "pitch": 60, "duration": 199, "velocity": 95}, {"time": 117356, "pitch": 64, "duration": 199, "velocity": 100}, {"time": 117840, "pitch": 48, "duration": 204, "velocity": 95}, {"time": 117840, "pitch": 58, "duration": 204, "velocity": 90}, {"time": 117840, "pitch": 64, "duration": 204, "velocity": 95}, {"time": 117840, "pitch": 67, "duration": 204, "velocity": 100}, {"time": 118563, "pitch": 48, "duration": 199, "velocity": 95}, {"time": 118563, "pitch": 58, "duration": 199, "velocity": 90}, {"time": 118563, "pitch": 64, "duration": 199, "velocity": 95}, {"time": 118563, "pitch": 67, "duration": 199, "velocity": 100}, {"time": 119041, "pitch": 48, "duration": 459, "velocity": 95}, {"time": 119041, "pitch": 58, "duration": 459, "velocity": 90}, {"time": 119041, "pitch": 64, "duration": 459, "velocity": 95}, {"time": 119041, "pitch": 67, "duration": 459, "velocity": 100}, {"time": 119520, "pitch": 53, "duration": 199, "velocity": 95}, {"time": 119520, "pitch": 57, "duration": 199, "velocity": 90}, {"time": 119520, "pitch": 60, "duration": 199, "velocity": 95}, {"time": 119520, "pitch": 64, "duration": 199, "velocity": 100}, {"time": 119998, "pitch": 53, "duration": 459, "velocity": 95}, {"time": 119998, "pitch": 57, "duration": 459, "velocity": 90}, {"time": 119998, "pitch": 60, "duration": 459, "velocity": 95}, {"time": 119998, "pitch": 64, "duration": 459, "velocity": 100}, {"time": 120716, "pitch": 53, "duration": 199, "velocity": 95}, {"time": 120716, "pitch": 57, "duration": 199, "velocity": 90}, {"time": 120716, "pitch": 60, "duration": 199, "velocity": 95}, {"time": 120716, "pitch": 64, "duration": 199, "velocity": 100}, {"time": 121200, "pitch": 53, "duration": 204, "velocity": 95}, {"time": 121200, "pitch": 57, "duration": 204, "velocity": 90}, {"time": 121200, "pitch": 60, "duration": 204, "velocity": 95}, {"time": 121200, "pitch": 64, "duration": 204, "velocity": 100}, {"time": 121684, "pitch": 50, "duration": 199, "velocity": 95}, {"time": 121684, "pitch": 56, "duration": 199, "velocity": 90}, {"time": 121684, "pitch": 59, "duration": 199, "velocity": 95}, {"time": 121684, "pitch": 64, "duration": 199, "velocity": 100}, {"time": 122401, "pitch": 50, "duration": 200, "velocity": 95}, {"time": 122401, "pitch": 56, "duration": 200, "velocity": 90}, {"time": 122401, "pitch": 59, "duration": 200, "velocity": 95}, {"time": 122401, "pitch": 64, "duration": 200, "velocity": 100}, {"time": 122880, "pitch": 50, "duration": 458, "velocity": 95}, {"time": 122880, "pitch": 56, "duration": 458, "velocity": 90}, {"time": 122880, "pitch": 59, "duration": 458, "velocity": 95}, {"time": 122880, "pitch": 64, "duration": 458, "velocity": 100}, {"time": 123358, "pitch": 45, "duration": 200, "velocity": 95}, {"time": 123358, "pitch": 55, "duration": 200, "velocity": 90}, {"time": 123358, "pitch": 60, "duration": 200, "velocity": 95}, {"time": 123358, "pitch": 64, "duration": 200, "velocity": 100}, {"time": 123837, "pitch": 45, "duration": 458, "velocity": 95}, {"time": 123837, "pitch": 55, "duration": 458, "velocity": 90}, {"time": 123837, "pitch": 60, "duration": 458, "velocity": 95}, {"time": 123837, "pitch": 64, "duration": 458, "velocity": 100}, {"time": 124560, "pitch": 45, "duration": 204, "velocity": 95}, {"time": 124560, "pitch": 55, "duration": 204, "velocity": 90}, {"time": 124560, "pitch": 60, "duration": 204, "velocity": 95}, {"time": 124560, "pitch": 64, "duration": 204, "velocity": 100}, {"time": 125044, "pitch": 45, "duration": 199, "velocity": 95}, {"time": 125044, "pitch": 55, "duration": 199, "velocity": 90}, {"time": 125044, "pitch": 60, "duration": 199, "velocity": 95}, {"time": 125044, "pitch": 64, "duration": 199, "velocity": 100}, {"time": 125522, "pitch": 45, "duration": 200, "velocity": 95}, {"time": 125522, "pitch": 55, "duration": 200, "velocity": 90}, {"time": 125522, "pitch": 60, "duration": 200, "velocity": 95}, {"time": 125522, "pitch": 64, "duration": 200, "velocity": 100}, {"time": 126240, "pitch": 45, "duration": 199, "velocity": 95}, {"time": 126240, "pitch": 55, "duration": 199, "velocity": 90}, {"time": 126240, "pitch": 60, "duration": 199, "velocity": 95}, {"time": 126240, "pitch": 64, "duration": 199, "velocity": 100}, {"time": 126718, "pitch": 45, "duration": 459, "velocity": 95}, {"time": 126718, "pitch": 55, "duration": 459, "velocity": 90}, {"time": 126718, "pitch": 60, "duration": 459, "velocity": 95}, {"time": 126718, "pitch": 64, "duration": 459, "velocity": 100}, {"time": 127197, "pitch": 45, "duration": 3818, "velocity": 90}, {"time": 127237, "pitch": 50, "duration": 3778, "velocity": 85}, {"time": 127276, "pitch": 57, "duration": 3739, "velocity": 90}, {"time": 127316, "pitch": 60, "duration": 3699, "velocity": 95}, {"time": 127356, "pitch": 65, "duration": 3659, "velocity": 100}, {"time": 131035, "pitch": 47, "duration": 3829, "velocity": 90}, {"time": 131076, "pitch": 50, "duration": 3788, "velocity": 85}, {"time": 131117, "pitch": 55, "duration": 3747, "velocity": 90}, {"time": 131157, "pitch": 59, "duration": 3707, "velocity": 95}, {"time": 131198, "pitch": 65, "duration": 3666, "velocity": 100}, {"time": 134885, "pitch": 48, "duration": 199, "velocity": 95}, {"time": 134885, "pitch": 52, "duration": 199, "velocity": 90}, {"time": 134885, "pitch": 55, "duration": 199, "velocity": 95}, {"time": 134885, "pitch": 59, "duration": 199, "velocity": 100}, {"time": 135363, "pitch": 48, "duration": 459, "velocity": 95}, {"time": 135363, "pitch": 52, "duration": 459, "velocity": 90}, {"time": 135363, "pitch": 55, "duration": 459, "velocity": 95}, {"time": 135363, "pitch": 59, "duration": 459, "velocity": 100}, {"time": 136081, "pitch": 48, "duration": 199, "velocity": 95}, {"time": 136081, "pitch": 52, "duration": 199, "velocity": 90}, {"time": 136081, "pitch": 55, "duration": 199, "velocity": 95}, {"time": 136081, "pitch": 59, "duration": 199, "velocity": 100}, {"time": 136559, "pitch": 48, "duration": 199, "velocity": 95}, {"time": 136559, "pitch": 52, "duration": 199, "velocity": 90}, {"time": 136559, "pitch": 55, "duration": 199, "velocity": 95}, {"time": 136559, "pitch": 59, "duration": 199, "velocity": 100}, {"time": 137037, "pitch": 48, "duration": 200, "velocity": 95}, {"time": 137037, "pitch": 52, "duration": 200, "velocity": 90}, {"time": 137037, "pitch": 55, "duration": 200, "velocity": 95}, {"time": 137037, "pitch": 59, "duration": 200, "velocity": 100}, {"time": 137755, "pitch": 48, "duration": 204, "velocity": 95}, {"time": 137755, "pitch": 52, "duration": 204, "velocity": 90}, {"time": 137755, "pitch": 55, "duration": 204, "velocity": 95}, {"time": 137755, "pitch": 59, "duration": 204, "velocity": 100}, {"time": 138245, "pitch": 48, "duration": 458, "velocity": 95}, {"time": 138245, "pitch": 55, "duration": 458, "velocity": 90}, {"time": 138245, "pitch": 59, "duration": 458, "velocity": 95}, {"time": 138245, "pitch": 64, "duration": 458, "velocity": 100}, {"time": 138723, "pitch": 48, "duration": 199, "velocity": 95}, {"time": 138723, "pitch": 52, "duration": 199, "velocity": 90}, {"time": 138723, "pitch": 55, "duration": 199, "velocity": 95}, {"time": 138723, "pitch": 59, "duration": 199, "velocity": 100}, {"time": 139201, "pitch": 48, "duration": 459, "velocity": 95}, {"time": 139201, "pitch": 52, "duration": 459, "velocity": 90}, {"time": 139201, "pitch": 55, "duration": 459, "velocity": 95}, {"time": 139201, "pitch": 59, "duration": 459, "velocity": 100}, {"time": 139919, "pitch": 48, "duration": 199, "velocity": 95}, {"time": 139919, "pitch": 52, "duration": 199, "velocity": 90}, {"time": 139919, "pitch": 55, "duration": 199, "velocity": 95}, {"time": 139919, "pitch": 59, "duration": 199, "velocity": 100}, {"time": 140397, "pitch": 48, "duration": 200, "velocity": 95}, {"time": 140397, "pitch": 52, "duration": 200, "velocity": 90}, {"time": 140397, "pitch": 55, "duration": 200, "velocity": 95}, {"time": 140397, "pitch": 59, "duration": 200, "velocity": 100}, {"time": 140876, "pitch": 48, "duration": 199, "velocity": 95}, {"time": 140876, "pitch": 52, "duration": 199, "velocity": 90}, {"time": 140876, "pitch": 55, "duration": 199, "velocity": 95}, {"time": 140876, "pitch": 59, "duration": 199, "velocity": 100}, {"time": 141605, "pitch": 48, "duration": 199, "velocity": 95}, {"time": 141605, "pitch": 52, "duration": 199, "velocity": 90}, {"time": 141605, "pitch": 55, "duration": 199, "velocity": 95}, {"time": 141605, "pitch": 59, "duration": 199, "velocity": 100}, {"time": 142083, "pitch": 48, "duration": 459, "velocity": 95}, {"time": 142083, "pitch": 55, "duration": 459, "velocity": 90}, {"time": 142083, "pitch": 59, "duration": 459, "velocity": 95}, {"time": 142083, "pitch": 64, "duration": 459, "velocity": 100}, {"time": 142561, "pitch": 48, "duration": 200, "velocity": 95}, {"time": 142561, "pitch": 52, "duration": 200, "velocity": 90}, {"time": 142561, "pitch": 55, "duration": 200, "velocity": 95}, {"time": 142561, "pitch": 59, "duration": 200, "velocity": 100}, {"time": 143040, "pitch": 48, "duration": 458, "velocity": 95}, {"time": 143040, "pitch": 52, "duration": 458, "velocity": 90}, {"time": 143040, "pitch": 55, "duration": 458, "velocity": 95}, {"time": 143040, "pitch": 59, "duration": 458, "velocity": 100}, {"time": 143757, "pitch": 48, "duration": 200, "velocity": 95}, {"time": 143757, "pitch": 52, "duration": 200, "velocity": 90}, {"time": 143757, "pitch": 55, "duration": 200, "velocity": 95}, {"time": 143757, "pitch": 59, "duration": 200, "velocity": 100}, {"time": 144236, "pitch": 48, "duration": 199, "velocity": 95}, {"time": 144236, "pitch": 52, "duration": 199, "velocity": 90}, {"time": 144236, "pitch": 55, "duration": 199, "velocity": 95}, {"time": 144236, "pitch": 59, "duration": 199, "velocity": 100}, {"time": 144720, "pitch": 48, "duration": 204, "velocity": 95}, {"time": 144720, "pitch": 52, "duration": 204, "velocity": 90}, {"time": 144720, "pitch": 55, "duration": 204, "velocity": 95}, {"time": 144720, "pitch": 59, "duration": 204, "velocity": 100}, {"time": 145443, "pitch": 48, "duration": 199, "velocity": 95}, {"time": 145443, "pitch": 52, "duration": 199, "velocity": 90}, {"time": 145443, "pitch": 55, "duration": 199, "velocity": 95}, {"time": 145443, "pitch": 59, "duration": 199, "velocity": 100}, {"time": 145921, "pitch": 48, "duration": 459, "velocity": 95}, {"time": 145921, "pitch": 55, "duration": 459, "velocity": 90}, {"time": 145921, "pitch": 59, "duration": 459, "velocity": 95}, {"time": 145921, "pitch": 64, "duration": 459, "velocity": 100}, {"time": 146400, "pitch": 47, "duration": 199, "velocity": 95}, {"time": 146400, "pitch": 50, "duration": 199, "velocity": 90}, {"time": 146400, "pitch": 53, "duration": 199, "velocity": 95}, {"time": 146400, "pitch": 57, "duration": 199, "velocity": 100}, {"time": 146878, "pitch": 47, "duration": 459, "velocity": 95}, {"time": 146878, "pitch": 50, "duration": 459, "velocity": 90}, {"time": 146878, "pitch": 53, "duration": 459, "velocity": 95}, {"time": 146878, "pitch": 57, "duration": 459, "velocity": 100}, {"time": 147596, "pitch": 47, "duration": 199, "velocity": 95}, {"time": 147596, "pitch": 50, "duration": 199, "velocity": 90}, {"time": 147596, "pitch": 53, "duration": 199, "velocity": 95}, {"time": 147596, "pitch": 57, "duration": 199, "velocity": 100}, {"time": 148080, "pitch": 47, "duration": 204, "velocity": 95}, {"time": 148080, "pitch": 50, "duration": 204, "velocity": 90}, {"time": 148080, "pitch": 53, "duration": 204, "velocity": 95}, {"time": 148080, "pitch": 57, "duration": 204, "velocity": 100}, {"time": 148564, "pitch": 47, "duration": 199, "velocity": 95}, {"time": 148564, "pitch": 50, "duration": 199, "velocity": 90}, {"time": 148564, "pitch": 56, "duration": 199, "velocity": 95}, {"time": 148564, "pitch": 59, "duration": 199, "velocity": 100}, {"time": 149281, "pitch": 47, "duration": 200, "velocity": 95}, {"time": 149281, "pitch": 50, "duration": 200, "velocity": 90}, {"time": 149281, "pitch": 56, "duration": 200, "velocity": 95}, {"time": 149281, "pitch": 59, "duration": 200, "velocity": 100}, {"time": 149760, "pitch": 47, "duration": 458, "velocity": 95}, {"time": 149760, "pitch": 56, "duration": 458, "velocity": 90}, {"time": 149760, "pitch": 59, "duration": 458, "velocity": 95}, {"time": 149760, "pitch": 62, "duration": 458, "velocity": 100}, {"time": 150238, "pitch": 45, "duration": 200, "velocity": 95}, {"time": 150238, "pitch": 52, "duration": 200, "velocity": 90}, {"time": 150238, "pitch": 55, "duration": 200, "velocity": 95}, {"time": 150238, "pitch": 60, "duration": 200, "velocity": 100}, {"time": 150717, "pitch": 45, "duration": 458, "velocity": 95}, {"time": 150717, "pitch": 52, "duration": 458, "velocity": 90}, {"time": 150717, "pitch": 55, "duration": 458, "velocity": 95}, {"time": 150717, "pitch": 60, "duration": 458, "velocity": 100}, {"time": 151440, "pitch": 45, "duration": 204, "velocity": 95}, {"time": 151440, "pitch": 52, "duration": 204, "velocity": 90}, {"time": 151440, "pitch": 55, "duration": 204, "velocity": 95}, {"time": 151440, "pitch": 60, "duration": 204, "velocity": 100}, {"time": 151924, "pitch": 45, "duration": 199, "velocity": 95}, {"time": 151924, "pitch": 52, "duration": 199, "velocity": 90}, {"time": 151924, "pitch": 55, "duration": 199, "velocity": 95}, {"time": 151924, "pitch": 60, "duration": 199, "velocity": 100}, {"time": 152402, "pitch": 45, "duration": 200, "velocity": 95}, {"time": 152402, "pitch": 52, "duration": 200, "velocity": 90}, {"time": 152402, "pitch": 55, "duration": 200, "velocity": 95}, {"time": 152402, "pitch": 60, "duration": 200, "velocity": 100}, {"time": 153120, "pitch": 45, "duration": 199, "velocity": 95}, {"time": 153120, "pitch": 52, "duration": 199, "velocity": 90}, {"time": 153120, "pitch": 55, "duration": 199, "velocity": 95}, {"time": 153120, "pitch": 60, "duration": 199, "velocity": 100}, {"time": 153598, "pitch": 51, "duration": 459, "velocity": 95}, {"time": 153598, "pitch": 56, "duration": 459, "velocity": 90}, {"time": 153598, "pitch": 59, "duration": 459, "velocity": 95}, {"time": 153598, "pitch": 63, "duration": 459, "velocity": 100}, {"time": 154077, "pitch": 46, "duration": 199, "velocity": 95}, {"time": 154077, "pitch": 50, "duration": 199, "velocity": 90}, {"time": 154077, "pitch": 55, "duration": 199, "velocity": 95}, {"time": 154077, "pitch": 58, "duration": 199, "velocity": 100}, {"time": 154555, "pitch": 46, "duration": 469, "velocity": 95}, {"time": 154555, "pitch": 50, "duration": 469, "velocity": 90}, {"time": 154555, "pitch": 55, "duration": 469, "velocity": 95}, {"time": 154555, "pitch": 58, "duration": 469, "velocity": 100}, {"time": 155284, "pitch": 46, "duration": 199, "velocity": 95}, {"time": 155284, "pitch": 50, "duration": 199, "velocity": 90}, {"time": 155284, "pitch": 55, "duration": 199, "velocity": 95}, {"time": 155284, "pitch": 58, "duration": 199, "velocity": 100}, {"time": 155762, "pitch": 46, "duration": 200, "velocity": 95}, {"time": 155762, "pitch": 50, "duration": 200, "velocity": 90}, {"time": 155762, "pitch": 55, "duration": 200, "velocity": 95}, {"time": 155762, "pitch": 58, "duration": 200, "velocity": 100}, {"time": 156241, "pitch": 48, "duration": 199, "velocity": 95}, {"time": 156241, "pitch": 55, "duration": 199, "velocity": 90}, {"time": 156241, "pitch": 58, "duration": 199, "velocity": 95}, {"time": 156241, "pitch": 64, "duration": 199, "velocity": 100}, {"time": 156958, "pitch": 48, "duration": 200, "velocity": 95}, {"time": 156958, "pitch": 55, "duration": 200, "velocity": 90}, {"time": 156958, "pitch": 58, "duration": 200, "velocity": 95}, {"time": 156958, "pitch": 64, "duration": 200, "velocity": 100}, {"time": 157437, "pitch": 48, "duration": 458, "velocity": 95}, {"time": 157437, "pitch": 55, "duration": 458, "velocity": 90}, {"time": 157437, "pitch": 58, "duration": 458, "velocity": 95}, {"time": 157437, "pitch": 64, "duration": 458, "velocity": 100}, {"time": 157915, "pitch": 45, "duration": 204, "velocity": 95}, {"time": 157915, "pitch": 50, "duration": 204, "velocity": 90}, {"time": 157915, "pitch": 57, "duration": 204, "velocity": 95}, {"time": 157915, "pitch": 60, "duration": 204, "velocity": 100}, {"time": 158405, "pitch": 45, "duration": 458, "velocity": 95}, {"time": 158405, "pitch": 50, "duration": 458, "velocity": 90}, {"time": 158405, "pitch": 57, "duration": 458, "velocity": 95}, {"time": 158405, "pitch": 60, "duration": 458, "velocity": 100}, {"time": 159122, "pitch": 45, "duration": 200, "velocity": 95}, {"time": 159122, "pitch": 50, "duration": 200, "velocity": 90}, {"time": 159122, "pitch": 57, "duration": 200, "velocity": 95}, {"time": 159122, "pitch": 60, "duration": 200, "velocity": 100}, {"time": 159601, "pitch": 45, "duration": 199, "velocity": 95}, {"time": 159601, "pitch": 50, "duration": 199, "velocity": 90}, {"time": 159601, "pitch": 57, "duration": 199, "velocity": 95}, {"time": 159601, "pitch": 60, "duration": 199, "velocity": 100}, {"time": 160079, "pitch": 45, "duration": 199, "velocity": 95}, {"time": 160079, "pitch": 50, "duration": 199, "velocity": 90}, {"time": 160079, "pitch": 57, "duration": 199, "velocity": 95}, {"time": 160079, "pitch": 60, "duration": 199, "velocity": 100}, {"time": 160557, "pitch": 45, "duration": 80, "velocity": 95}, {"time": 160557, "pitch": 50, "duration": 80, "velocity": 90}, {"time": 160557, "pitch": 57, "duration": 80, "velocity": 95}, {"time": 160557, "pitch": 60, "duration": 80, "velocity": 100}, {"time": 160797, "pitch": 72, "duration": 239, "velocity": 110}, {"time": 161036, "pitch": 69, "duration": 239, "velocity": 105}, {"time": 161275, "pitch": 65, "duration": 245, "velocity": 100}, {"time": 161765, "pitch": 50, "duration": 199, "velocity": 95}, {"time": 161765, "pitch": 55, "duration": 199, "velocity": 90}, {"time": 161765, "pitch": 59, "duration": 199, "velocity": 95}, {"time": 161765, "pitch": 65, "duration": 199, "velocity": 100}, {"time": 162243, "pitch": 50, "duration": 458, "velocity": 95}, {"time": 162243, "pitch": 55, "duration": 458, "velocity": 90}, {"time": 162243, "pitch": 59, "duration": 458, "velocity": 95}, {"time": 162243, "pitch": 65, "duration": 458, "velocity": 100}, {"time": 162961, "pitch": 50, "duration": 199, "velocity": 95}, {"time": 162961, "pitch": 55, "duration": 199, "velocity": 90}, {"time": 162961, "pitch": 59, "duration": 199, "velocity": 95}, {"time": 162961, "pitch": 65, "duration": 199, "velocity": 100}, {"time": 163439, "pitch": 50, "duration": 199, "velocity": 95}, {"time": 163439, "pitch": 55, "duration": 199, "velocity": 90}, {"time": 163439, "pitch": 59, "duration": 199, "velocity": 95}, {"time": 163439, "pitch": 65, "duration": 199, "velocity": 100}, {"time": 163917, "pitch": 50, "duration": 200, "velocity": 95}, {"time": 163917, "pitch": 55, "duration": 200, "velocity": 90}, {"time": 163917, "pitch": 59, "duration": 200, "velocity": 95}, {"time": 163917, "pitch": 65, "duration": 200, "velocity": 100}, {"time": 164635, "pitch": 50, "duration": 204, "velocity": 95}, {"time": 164635, "pitch": 55, "duration": 204, "velocity": 90}, {"time": 164635, "pitch": 59, "duration": 204, "velocity": 95}, {"time": 164635, "pitch": 65, "duration": 204, "velocity": 100}, {"time": 165125, "pitch": 50, "duration": 458, "velocity": 95}, {"time": 165125, "pitch": 55, "duration": 458, "velocity": 90}, {"time": 165125, "pitch": 59, "duration": 458, "velocity": 95}, {"time": 165125, "pitch": 65, "duration": 458, "velocity": 100}, {"time": 165603, "pitch": 48, "duration": 199, "velocity": 95}, {"time": 165603, "pitch": 55, "duration": 199, "velocity": 90}, {"time": 165603, "pitch": 59, "duration": 199, "velocity": 95}, {"time": 165603, "pitch": 64, "duration": 199, "velocity": 100}, {"time": 166081, "pitch": 48, "duration": 459, "velocity": 95}, {"time": 166081, "pitch": 55, "duration": 459, "velocity": 90}, {"time": 166081, "pitch": 59, "duration": 459, "velocity": 95}, {"time": 166081, "pitch": 64, "duration": 459, "velocity": 100}, {"time": 166799, "pitch": 48, "duration": 199, "velocity": 95}, {"time": 166799, "pitch": 55, "duration": 199, "velocity": 90}, {"time": 166799, "pitch": 59, "duration": 199, "velocity": 95}, {"time": 166799, "pitch": 64, "duration": 199, "velocity": 100}, {"time": 167277, "pitch": 48, "duration": 200, "velocity": 95}, {"time": 167277, "pitch": 55, "duration": 200, "velocity": 90}, {"time": 167277, "pitch": 59, "duration": 200, "velocity": 95}, {"time": 167277, "pitch": 64, "duration": 200, "velocity": 100}, {"time": 167756, "pitch": 48, "duration": 199, "velocity": 95}, {"time": 167756, "pitch": 55, "duration": 199, "velocity": 90}, {"time": 167756, "pitch": 59, "duration": 199, "velocity": 95}, {"time": 167756, "pitch": 64, "duration": 199, "velocity": 100}, {"time": 168485, "pitch": 48, "duration": 199, "velocity": 95}, {"time": 168485, "pitch": 55, "duration": 199, "velocity": 90}, {"time": 168485, "pitch": 59, "duration": 199, "velocity": 95}, {"time": 168485, "pitch": 64, "duration": 199, "velocity": 100}, {"time": 168963, "pitch": 48, "duration": 458, "velocity": 95}, {"time": 168963, "pitch": 55, "duration": 458, "velocity": 90}, {"time": 168963, "pitch": 59, "duration": 458, "velocity": 95}, {"time": 168963, "pitch": 64, "duration": 458, "velocity": 100}, {"time": 169441, "pitch": 48, "duration": 200, "velocity": 95}, {"time": 169441, "pitch": 55, "duration": 200, "velocity": 90}, {"time": 169441, "pitch": 59, "duration": 200, "velocity": 95}, {"time": 169441, "pitch": 64, "duration": 200, "velocity": 100}, {"time": 169920, "pitch": 48, "duration": 458, "velocity": 95}, {"time": 169920, "pitch": 55, "duration": 458, "velocity": 90}, {"time": 169920, "pitch": 59, "duration": 458, "velocity": 95}, {"time": 169920, "pitch": 64, "duration": 458, "velocity": 100}, {"time": 170637, "pitch": 48, "duration": 200, "velocity": 95}, {"time": 170637, "pitch": 55, "duration": 200, "velocity": 90}, {"time": 170637, "pitch": 59, "duration": 200, "velocity": 95}, {"time": 170637, "pitch": 64, "duration": 200, "velocity": 100}, {"time": 171116, "pitch": 48, "duration": 199, "velocity": 95}, {"time": 171116, "pitch": 55, "duration": 199, "velocity": 90}, {"time": 171116, "pitch": 59, "duration": 199, "velocity": 95}, {"time": 171116, "pitch": 64, "duration": 199, "velocity": 100}, {"time": 171600, "pitch": 48, "duration": 204, "velocity": 95}, {"time": 171600, "pitch": 55, "duration": 204, "velocity": 90}, {"time": 171600, "pitch": 59, "duration": 204, "velocity": 95}, {"time": 171600, "pitch": 64, "duration": 204, "velocity": 100}, {"time": 172323, "pitch": 48, "duration": 199, "velocity": 95}, {"time": 172323, "pitch": 55, "duration": 199, "velocity": 90}, {"time": 172323, "pitch": 59, "duration": 199, "velocity": 95}, {"time": 172323, "pitch": 64, "duration": 199, "velocity": 100}, {"time": 172801, "pitch": 48, "duration": 459, "velocity": 95}, {"time": 172801, "pitch": 55, "duration": 459, "velocity": 90}, {"time": 172801, "pitch": 59, "duration": 459, "velocity": 95}, {"time": 172801, "pitch": 64, "duration": 459, "velocity": 100}, {"time": 173280, "pitch": 48, "duration": 199, "velocity": 95}, {"time": 173280, "pitch": 52, "duration": 199, "velocity": 90}, {"time": 173280, "pitch": 55, "duration": 199, "velocity": 95}, {"time": 173280, "pitch": 59, "duration": 199, "velocity": 100}, {"time": 173758, "pitch": 48, "duration": 459, "velocity": 95}, {"time": 173758, "pitch": 52, "duration": 459, "velocity": 90}, {"time": 173758, "pitch": 55, "duration": 459, "velocity": 95}, {"time": 173758, "pitch": 59, "duration": 459, "velocity": 100}, {"time": 174476, "pitch": 48, "duration": 199, "velocity": 95}, {"time": 174476, "pitch": 52, "duration": 199, "velocity": 90}, {"time": 174476, "pitch": 55, "duration": 199, "velocity": 95}, {"time": 174476, "pitch": 59, "duration": 199, "velocity": 100}, {"time": 174960, "pitch": 48, "duration": 204, "velocity": 95}, {"time": 174960, "pitch": 52, "duration": 204, "velocity": 90}, {"time": 174960, "pitch": 55, "duration": 204, "velocity": 95}, {"time": 174960, "pitch": 59, "duration": 204, "velocity": 100}, {"time": 175444, "pitch": 48, "duration": 199, "velocity": 95}, {"time": 175444, "pitch": 52, "duration": 199, "velocity": 90}, {"time": 175444, "pitch": 55, "duration": 199, "velocity": 95}, {"time": 175444, "pitch": 59, "duration": 199, "velocity": 100}, {"time": 176161, "pitch": 48, "duration": 200, "velocity": 95}, {"time": 176161, "pitch": 52, "duration": 200, "velocity": 90}, {"time": 176161, "pitch": 55, "duration": 200, "velocity": 95}, {"time": 176161, "pitch": 59, "duration": 200, "velocity": 100}, {"time": 176640, "pitch": 48, "duration": 458, "velocity": 95}, {"time": 176640, "pitch": 55, "duration": 458, "velocity": 90}, {"time": 176640, "pitch": 59, "duration": 458, "velocity": 95}, {"time": 176640, "pitch": 64, "duration": 458, "velocity": 100}, {"time": 177118, "pitch": 47, "duration": 200, "velocity": 95}, {"time": 177118, "pitch": 50, "duration": 200, "velocity": 90}, {"time": 177118, "pitch": 53, "duration": 200, "velocity": 95}, {"time": 177118, "pitch": 57, "duration": 200, "velocity": 100}, {"time": 177597, "pitch": 47, "duration": 458, "velocity": 95}, {"time": 177597, "pitch": 50, "duration": 458, "velocity": 90}, {"time": 177597, "pitch": 53, "duration": 458, "velocity": 95}, {"time": 177597, "pitch": 57, "duration": 458, "velocity": 100}, {"time": 178320, "pitch": 47, "duration": 204, "velocity": 95}, {"time": 178320, "pitch": 50, "duration": 204, "velocity": 90}, {"time": 178320, "pitch": 53, "duration": 204, "velocity": 95}, {"time": 178320, "pitch": 57, "duration": 204, "velocity": 100}, {"time": 178804, "pitch": 47, "duration": 199, "velocity": 95}, {"time": 178804, "pitch": 50, "duration": 199, "velocity": 90}, {"time": 178804, "pitch": 53, "duration": 199, "velocity": 95}, {"time": 178804, "pitch": 57, "duration": 199, "velocity": 100}, {"time": 179282, "pitch": 47, "duration": 200, "velocity": 95}, {"time": 179282, "pitch": 50, "duration": 200, "velocity": 90}, {"time": 179282, "pitch": 56, "duration": 200, "velocity": 95}, {"time": 179282, "pitch": 59, "duration": 200, "velocity": 100}, {"time": 180000, "pitch": 47, "duration": 199, "velocity": 95}, {"time": 180000, "pitch": 50, "duration": 199, "velocity": 90}, {"time": 180000, "pitch": 56, "duration": 199, "velocity": 95}, {"time": 180000, "pitch": 59, "duration": 199, "velocity": 100}, {"time": 180478, "pitch": 47, "duration": 459, "velocity": 95}, {"time": 180478, "pitch": 56, "duration": 459, "velocity": 90}, {"time": 180478, "pitch": 59, "duration": 459, "velocity": 95}, {"time": 180478, "pitch": 62, "duration": 459, "velocity": 100}, {"time": 180957, "pitch": 45, "duration": 199, "velocity": 95}, {"time": 180957, "pitch": 52, "duration": 199, "velocity": 90}, {"time": 180957, "pitch": 55, "duration": 199, "velocity": 95}, {"time": 180957, "pitch": 60, "duration": 199, "velocity": 100}, {"time": 181435, "pitch": 45, "duration": 469, "velocity": 95}, {"time": 181435, "pitch": 52, "duration": 469, "velocity": 90}, {"time": 181435, "pitch": 55, "duration": 469, "velocity": 95}, {"time": 181435, "pitch": 60, "duration": 469, "velocity": 100}, {"time": 182164, "pitch": 45, "duration": 199, "velocity": 95}, {"time": 182164, "pitch": 52, "duration": 199, "velocity": 90}, {"time": 182164, "pitch": 55, "duration": 199, "velocity": 95}, {"time": 182164, "pitch": 60, "duration": 199, "velocity": 100}, {"time": 182642, "pitch": 45, "duration": 200, "velocity": 95}, {"time": 182642, "pitch": 52, "duration": 200, "velocity": 90}, {"time": 182642, "pitch": 55, "duration": 200, "velocity": 95}, {"time": 182642, "pitch": 60, "duration": 200, "velocity": 100}, {"time": 183121, "pitch": 45, "duration": 199, "velocity": 95}, {"time": 183121, "pitch": 52, "duration": 199, "velocity": 90}, {"time": 183121, "pitch": 55, "duration": 199, "velocity": 95}, {"time": 183121, "pitch": 60, "duration": 199, "velocity": 100}, {"time": 183838, "pitch": 45, "duration": 200, "velocity": 95}, {"time": 183838, "pitch": 52, "duration": 200, "velocity": 90}, {"time": 183838, "pitch": 55, "duration": 200, "velocity": 95}, {"time": 183838, "pitch": 60, "duration": 200, "velocity": 100}, {"time": 184317, "pitch": 51, "duration": 458, "velocity": 95}, {"time": 184317, "pitch": 56, "duration": 458, "velocity": 90}, {"time": 184317, "pitch": 59, "duration": 458, "velocity": 95}, {"time": 184317, "pitch": 63, "duration": 458, "velocity": 100}, {"time": 184795, "pitch": 46, "duration": 204, "velocity": 95}, {"time": 184795, "pitch": 50, "duration": 204, "velocity": 90}, {"time": 184795, "pitch": 55, "duration": 204, "velocity": 95}, {"time": 184795, "pitch": 58, "duration": 204, "velocity": 100}, {"time": 185285, "pitch": 46, "duration": 458, "velocity": 95}, {"time": 185285, "pitch": 50, "duration": 458, "velocity": 90}, {"time": 185285, "pitch": 55, "duration": 458, "velocity": 95}, {"time": 185285, "pitch": 58, "duration": 458, "velocity": 100}, {"time": 186002, "pitch": 46, "duration": 200, "velocity": 95}, {"time": 186002, "pitch": 50, "duration": 200, "velocity": 90}, {"time": 186002, "pitch": 55, "duration": 200, "velocity": 95}, {"time": 186002, "pitch": 58, "duration": 200, "velocity": 100}, {"time": 186481, "pitch": 46, "duration": 199, "velocity": 95}, {"time": 186481, "pitch": 50, "duration": 199, "velocity": 90}, {"time": 186481, "pitch": 55, "duration": 199, "velocity": 95}, {"time": 186481, "pitch": 58, "duration": 199, "velocity": 100}, {"time": 186959, "pitch": 48, "duration": 199, "velocity": 95}, {"time": 186959, "pitch": 55, "duration": 199, "velocity": 90}, {"time": 186959, "pitch": 58, "duration": 199, "velocity": 95}, {"time": 186959, "pitch": 64, "duration": 199, "velocity": 100}, {"time": 187677, "pitch": 48, "duration": 199, "velocity": 95}, {"time": 187677, "pitch": 55, "duration": 199, "velocity": 90}, {"time": 187677, "pitch": 58, "duration": 199, "velocity": 95}, {"time": 187677, "pitch": 64, "duration": 199, "velocity": 100}, {"time": 188155, "pitch": 48, "duration": 469, "velocity": 95}, {"time": 188155, "pitch": 55, "duration": 469, "velocity": 90}, {"time": 188155, "pitch": 58, "duration": 469, "velocity": 95}, {"time": 188155, "pitch": 64, "duration": 469, "velocity": 100}, {"time": 188645, "pitch": 45, "duration": 199, "velocity": 95}, {"time": 188645, "pitch": 50, "duration": 199, "velocity": 90}, {"time": 188645, "pitch": 57, "duration": 199, "velocity": 95}, {"time": 188645, "pitch": 60, "duration": 199, "velocity": 100}, {"time": 189123, "pitch": 45, "duration": 458, "velocity": 95}, {"time": 189123, "pitch": 50, "duration": 458, "velocity": 90}, {"time": 189123, "pitch": 57, "duration": 458, "velocity": 95}, {"time": 189123, "pitch": 60, "duration": 458, "velocity": 100}, {"time": 189841, "pitch": 45, "duration": 199, "velocity": 95}, {"time": 189841, "pitch": 50, "duration": 199, "velocity": 90}, {"time": 189841, "pitch": 57, "duration": 199, "velocity": 95}, {"time": 189841, "pitch": 60, "duration": 199, "velocity": 100}, {"time": 190319, "pitch": 45, "duration": 199, "velocity": 95}, {"time": 190319, "pitch": 50, "duration": 199, "velocity": 90}, {"time": 190319, "pitch": 57, "duration": 199, "velocity": 95}, {"time": 190319, "pitch": 60, "duration": 199, "velocity": 100}, {"time": 190797, "pitch": 45, "duration": 200, "velocity": 95}, {"time": 190797, "pitch": 50, "duration": 200, "velocity": 90}, {"time": 190797, "pitch": 57, "duration": 200, "velocity": 95}, {"time": 190797, "pitch": 60, "duration": 200, "velocity": 100}, {"time": 191276, "pitch": 45, "duration": 80, "velocity": 95}, {"time": 191276, "pitch": 50, "duration": 80, "velocity": 90}, {"time": 191276, "pitch": 57, "duration": 80, "velocity": 95}, {"time": 191276, "pitch": 60, "duration": 80, "velocity": 100}, {"time": 191515, "pitch": 53, "duration": 729, "velocity": 100}, {"time": 191760, "pitch": 57, "duration": 484, "velocity": 95}, {"time": 192005, "pitch": 60, "duration": 239, "velocity": 90}, {"time": 192483, "pitch": 50, "duration": 199, "velocity": 95}, {"time": 192483, "pitch": 55, "duration": 199, "velocity": 90}, {"time": 192483, "pitch": 59, "duration": 199, "velocity": 95}, {"time": 192483, "pitch": 65, "duration": 199, "velocity": 100}, {"time": 192961, "pitch": 50, "duration": 459, "velocity": 95}, {"time": 192961, "pitch": 55, "duration": 459, "velocity": 90}, {"time": 192961, "pitch": 59, "duration": 459, "velocity": 95}, {"time": 192961, "pitch": 65, "duration": 459, "velocity": 100}, {"time": 193679, "pitch": 50, "duration": 199, "velocity": 95}, {"time": 193679, "pitch": 55, "duration": 199, "velocity": 90}, {"time": 193679, "pitch": 59, "duration": 199, "velocity": 95}, {"time": 193679, "pitch": 65, "duration": 199, "velocity": 100}, {"time": 194157, "pitch": 50, "duration": 200, "velocity": 95}, {"time": 194157, "pitch": 55, "duration": 200, "velocity": 90}, {"time": 194157, "pitch": 59, "duration": 200, "velocity": 95}, {"time": 194157, "pitch": 65, "duration": 200, "velocity": 100}, {"time": 194636, "pitch": 50, "duration": 199, "velocity": 95}, {"time": 194636, "pitch": 55, "duration": 199, "velocity": 90}, {"time": 194636, "pitch": 59, "duration": 199, "velocity": 95}, {"time": 194636, "pitch": 65, "duration": 199, "velocity": 100}, {"time": 195365, "pitch": 50, "duration": 199, "velocity": 95}, {"time": 195365, "pitch": 55, "duration": 199, "velocity": 90}, {"time": 195365, "pitch": 59, "duration": 199, "velocity": 95}, {"time": 195365, "pitch": 65, "duration": 199, "velocity": 100}, {"time": 195843, "pitch": 50, "duration": 458, "velocity": 95}, {"time": 195843, "pitch": 55, "duration": 458, "velocity": 90}, {"time": 195843, "pitch": 59, "duration": 458, "velocity": 95}, {"time": 195843, "pitch": 65, "duration": 458, "velocity": 100}, {"time": 196321, "pitch": 48, "duration": 200, "velocity": 95}, {"time": 196321, "pitch": 55, "duration": 200, "velocity": 90}, {"time": 196321, "pitch": 59, "duration": 200, "velocity": 95}, {"time": 196321, "pitch": 64, "duration": 200, "velocity": 100}, {"time": 196800, "pitch": 48, "duration": 458, "velocity": 95}, {"time": 196800, "pitch": 55, "duration": 458, "velocity": 90}, {"time": 196800, "pitch": 59, "duration": 458, "velocity": 95}, {"time": 196800, "pitch": 64, "duration": 458, "velocity": 100}, {"time": 197517, "pitch": 48, "duration": 200, "velocity": 95}, {"time": 197517, "pitch": 55, "duration": 200, "velocity": 90}, {"time": 197517, "pitch": 59, "duration": 200, "velocity": 95}, {"time": 197517, "pitch": 64, "duration": 200, "velocity": 100}, {"time": 197996, "pitch": 48, "duration": 199, "velocity": 95}, {"time": 197996, "pitch": 55, "duration": 199, "velocity": 90}, {"time": 197996, "pitch": 59, "duration": 199, "velocity": 95}, {"time": 197996, "pitch": 64, "duration": 199, "velocity": 100}, {"time": 198480, "pitch": 48, "duration": 204, "velocity": 95}, {"time": 198480, "pitch": 55, "duration": 204, "velocity": 90}, {"time": 198480, "pitch": 59, "duration": 204, "velocity": 95}, {"time": 198480, "pitch": 64, "duration": 204, "velocity": 100}, {"time": 199203, "pitch": 48, "duration": 199, "velocity": 95}, {"time": 199203, "pitch": 55, "duration": 199, "velocity": 90}, {"time": 199203, "pitch": 59, "duration": 199, "velocity": 95}, {"time": 199203, "pitch": 64, "duration": 199, "velocity": 100}, {"time": 199681, "pitch": 48, "duration": 459, "velocity": 95}, {"time": 199681, "pitch": 55, "duration": 459, "velocity": 90}, {"time": 199681, "pitch": 59, "duration": 459, "velocity": 95}, {"time": 199681, "pitch": 64, "duration": 459, "velocity": 100}, {"time": 200160, "pitch": 48, "duration": 199, "velocity": 95}, {"time": 200160, "pitch": 55, "duration": 199, "velocity": 90}, {"time": 200160, "pitch": 59, "duration": 199, "velocity": 95}, {"time": 200160, "pitch": 64, "duration": 199, "velocity": 100}, {"time": 200638, "pitch": 48, "duration": 459, "velocity": 95}, {"time": 200638, "pitch": 55, "duration": 459, "velocity": 90}, {"time": 200638, "pitch": 59, "duration": 459, "velocity": 95}, {"time": 200638, "pitch": 64, "duration": 459, "velocity": 100}, {"time": 201356, "pitch": 48, "duration": 199, "velocity": 95}, {"time": 201356, "pitch": 55, "duration": 199, "velocity": 90}, {"time": 201356, "pitch": 59, "duration": 199, "velocity": 95}, {"time": 201356, "pitch": 64, "duration": 199, "velocity": 100}, {"time": 201840, "pitch": 48, "duration": 204, "velocity": 95}, {"time": 201840, "pitch": 55, "duration": 204, "velocity": 90}, {"time": 201840, "pitch": 59, "duration": 204, "velocity": 95}, {"time": 201840, "pitch": 64, "duration": 204, "velocity": 100}, {"time": 202324, "pitch": 48, "duration": 199, "velocity": 95}, {"time": 202324, "pitch": 55, "duration": 199, "velocity": 90}, {"time": 202324, "pitch": 59, "duration": 199, "velocity": 95}, {"time": 202324, "pitch": 64, "duration": 199, "velocity": 100}, {"time": 203041, "pitch": 48, "duration": 200, "velocity": 95}, {"time": 203041, "pitch": 55, "duration": 200, "velocity": 90}, {"time": 203041, "pitch": 59, "duration": 200, "velocity": 95}, {"time": 203041, "pitch": 64, "duration": 200, "velocity": 100}, {"time": 203281, "pitch": 55, "duration": 697, "velocity": 90}, {"time": 203520, "pitch": 59, "duration": 458, "velocity": 95}, {"time": 203759, "pitch": 64, "duration": 219, "velocity": 100}, {"time": 203998, "pitch": 47, "duration": 1905, "velocity": 90}, {"time": 204018, "pitch": 50, "duration": 1885, "velocity": 85}, {"time": 204038, "pitch": 57, "duration": 1865, "velocity": 90}, {"time": 204058, "pitch": 59, "duration": 1845, "velocity": 95}, {"time": 204078, "pitch": 65, "duration": 1825, "velocity": 100}, {"time": 205923, "pitch": 47, "duration": 1894, "velocity": 90}, {"time": 205943, "pitch": 50, "duration": 1874, "velocity": 85}, {"time": 205963, "pitch": 56, "duration": 1854, "velocity": 90}, {"time": 205983, "pitch": 59, "duration": 1834, "velocity": 95}, {"time": 206003, "pitch": 64, "duration": 1814, "velocity": 100}, {"time": 207837, "pitch": 45, "duration": 199, "velocity": 95}, {"time": 207837, "pitch": 52, "duration": 199, "velocity": 90}, {"time": 207837, "pitch": 55, "duration": 199, "velocity": 95}, {"time": 207837, "pitch": 60, "duration": 199, "velocity": 100}, {"time": 208315, "pitch": 45, "duration": 469, "velocity": 95}, {"time": 208315, "pitch": 52, "duration": 469, "velocity": 90}, {"time": 208315, "pitch": 55, "duration": 469, "velocity": 95}, {"time": 208315, "pitch": 60, "duration": 469, "velocity": 100}, {"time": 209044, "pitch": 45, "duration": 199, "velocity": 95}, {"time": 209044, "pitch": 52, "duration": 199, "velocity": 90}, {"time": 209044, "pitch": 55, "duration": 199, "velocity": 95}, {"time": 209044, "pitch": 60, "duration": 199, "velocity": 100}, {"time": 209522, "pitch": 45, "duration": 200, "velocity": 95}, {"time": 209522, "pitch": 52, "duration": 200, "velocity": 90}, {"time": 209522, "pitch": 55, "duration": 200, "velocity": 95}, {"time": 209522, "pitch": 60, "duration": 200, "velocity": 100}, {"time": 210001, "pitch": 45, "duration": 199, "velocity": 95}, {"time": 210001, "pitch": 52, "duration": 199, "velocity": 90}, {"time": 210001, "pitch": 55, "duration": 199, "velocity": 95}, {"time": 210001, "pitch": 60, "duration": 199, "velocity": 100}, {"time": 210718, "pitch": 45, "duration": 200, "velocity": 95}, {"time": 210718, "pitch": 52, "duration": 200, "velocity": 90}, {"time": 210718, "pitch": 55, "duration": 200, "velocity": 95}, {"time": 210718, "pitch": 60, "duration": 200, "velocity": 100}, {"time": 211197, "pitch": 45, "duration": 458, "velocity": 95}, {"time": 211197, "pitch": 52, "duration": 458, "velocity": 90}, {"time": 211197, "pitch": 55, "duration": 458, "velocity": 95}, {"time": 211197, "pitch": 60, "duration": 458, "velocity": 100}, {"time": 211675, "pitch": 47, "duration": 1905, "velocity": 90}, {"time": 211695, "pitch": 50, "duration": 1885, "velocity": 85}, {"time": 211716, "pitch": 57, "duration": 1864, "velocity": 90}, {"time": 211736, "pitch": 59, "duration": 1844, "velocity": 95}, {"time": 211757, "pitch": 65, "duration": 1823, "velocity": 100}, {"time": 213600, "pitch": 47, "duration": 1904, "velocity": 90}, {"time": 213620, "pitch": 50, "duration": 1884, "velocity": 85}, {"time": 213640, "pitch": 56, "duration": 1864, "velocity": 90}, {"time": 213660, "pitch": 59, "duration": 1844, "velocity": 95}, {"time": 213680, "pitch": 64, "duration": 1824, "velocity": 100}, {"time": 215525, "pitch": 45, "duration": 199, "velocity": 95}, {"time": 215525, "pitch": 52, "duration": 199, "velocity": 90}, {"time": 215525, "pitch": 55, "duration": 199, "velocity": 95}, {"time": 215525, "pitch": 60, "duration": 199, "velocity": 100}, {"time": 216003, "pitch": 45, "duration": 458, "velocity": 95}, {"time": 216003, "pitch": 52, "duration": 458, "velocity": 90}, {"time": 216003, "pitch": 55, "duration": 458, "velocity": 95}, {"time": 216003, "pitch": 60, "duration": 458, "velocity": 100}, {"time": 216721, "pitch": 45, "duration": 199, "velocity": 95}, {"time": 216721, "pitch": 52, "duration": 199, "velocity": 90}, {"time": 216721, "pitch": 55, "duration": 199, "velocity": 95}, {"time": 216721, "pitch": 60, "duration": 199, "velocity": 100}, {"time": 217199, "pitch": 45, "duration": 199, "velocity": 95}, {"time": 217199, "pitch": 52, "duration": 199, "velocity": 90}, {"time": 217199, "pitch": 55, "duration": 199, "velocity": 95}, {"time": 217199, "pitch": 60, "duration": 199, "velocity": 100}, {"time": 217677, "pitch": 45, "duration": 200, "velocity": 95}, {"time": 217677, "pitch": 52, "duration": 200, "velocity": 90}, {"time": 217677, "pitch": 55, "duration": 200, "velocity": 95}, {"time": 217677, "pitch": 60, "duration": 200, "velocity": 100}, {"time": 218395, "pitch": 45, "duration": 204, "velocity": 95}, {"time": 218395, "pitch": 52, "duration": 204, "velocity": 90}, {"time": 218395, "pitch": 55, "duration": 204, "velocity": 95}, {"time": 218395, "pitch": 60, "duration": 204, "velocity": 100}, {"time": 218640, "pitch": 45, "duration": 703, "velocity": 95}, {"time": 218640, "pitch": 52, "duration": 703, "velocity": 90}, {"time": 218640, "pitch": 55, "duration": 703, "velocity": 95}, {"time": 218640, "pitch": 60, "duration": 703, "velocity": 100}, {"time": 219363, "pitch": 45, "duration": 199, "velocity": 95}, {"time": 219363, "pitch": 50, "duration": 199, "velocity": 90}, {"time": 219363, "pitch": 57, "duration": 199, "velocity": 95}, {"time": 219363, "pitch": 60, "duration": 199, "velocity": 100}, {"time": 219841, "pitch": 45, "duration": 459, "velocity": 95}, {"time": 219841, "pitch": 50, "duration": 459, "velocity": 90}, {"time": 219841, "pitch": 57, "duration": 459, "velocity": 95}, {"time": 219841, "pitch": 60, "duration": 459, "velocity": 100}, {"time": 220559, "pitch": 45, "duration": 199, "velocity": 95}, {"time": 220559, "pitch": 50, "duration": 199, "velocity": 90}, {"time": 220559, "pitch": 57, "duration": 199, "velocity": 95}, {"time": 220559, "pitch": 60, "duration": 199, "velocity": 100}, {"time": 221037, "pitch": 45, "duration": 200, "velocity": 95}, {"time": 221037, "pitch": 50, "duration": 200, "velocity": 90}, {"time": 221037, "pitch": 57, "duration": 200, "velocity": 95}, {"time": 221037, "pitch": 60, "duration": 200, "velocity": 100}, {"time": 221516, "pitch": 45, "duration": 199, "velocity": 95}, {"time": 221516, "pitch": 50, "duration": 199, "velocity": 90}, {"time": 221516, "pitch": 57, "duration": 199, "velocity": 95}, {"time": 221516, "pitch": 60, "duration": 199, "velocity": 100}, {"time": 222245, "pitch": 45, "duration": 199, "velocity": 95}, {"time": 222245, "pitch": 50, "duration": 199, "velocity": 90}, {"time": 222245, "pitch": 57, "duration": 199, "velocity": 95}, {"time": 222245, "pitch": 60, "duration": 199, "velocity": 100}, {"time": 222723, "pitch": 45, "duration": 458, "velocity": 95}, {"time": 222723, "pitch": 50, "duration": 458, "velocity": 90}, {"time": 222723, "pitch": 57, "duration": 458, "velocity": 95}, {"time": 222723, "pitch": 60, "duration": 458, "velocity": 100}, {"time": 223201, "pitch": 47, "duration": 200, "velocity": 95}, {"time": 223201, "pitch": 52, "duration": 200, "velocity": 90}, {"time": 223201, "pitch": 55, "duration": 200, "velocity": 95}, {"time": 223201, "pitch": 62, "duration": 200, "velocity": 100}, {"time": 223680, "pitch": 47, "duration": 458, "velocity": 95}, {"time": 223680, "pitch": 52, "duration": 458, "velocity": 90}, {"time": 223680, "pitch": 55, "duration": 458, "velocity": 95}, {"time": 223680, "pitch": 62, "duration": 458, "velocity": 100}, {"time": 224397, "pitch": 47, "duration": 200, "velocity": 95}, {"time": 224397, "pitch": 52, "duration": 200, "velocity": 90}, {"time": 224397, "pitch": 55, "duration": 200, "velocity": 95}, {"time": 224397, "pitch": 62, "duration": 200, "velocity": 100}, {"time": 224876, "pitch": 47, "duration": 199, "velocity": 95}, {"time": 224876, "pitch": 52, "duration": 199, "velocity": 90}, {"time": 224876, "pitch": 55, "duration": 199, "velocity": 95}, {"time": 224876, "pitch": 62, "duration": 199, "velocity": 100}, {"time": 225360, "pitch": 47, "duration": 204, "velocity": 95}, {"time": 225360, "pitch": 52, "duration": 204, "velocity": 90}, {"time": 225360, "pitch": 55, "duration": 204, "velocity": 95}, {"time": 225360, "pitch": 62, "duration": 204, "velocity": 100}, {"time": 226083, "pitch": 47, "duration": 199, "velocity": 95}, {"time": 226083, "pitch": 52, "duration": 199, "velocity": 90}, {"time": 226083, "pitch": 55, "duration": 199, "velocity": 95}, {"time": 226083, "pitch": 62, "duration": 199, "velocity": 100}, {"time": 226561, "pitch": 47, "duration": 459, "velocity": 95}, {"time": 226561, "pitch": 52, "duration": 459, "velocity": 90}, {"time": 226561, "pitch": 55, "duration": 459, "velocity": 95}, {"time": 226561, "pitch": 62, "duration": 459, "velocity": 100}, {"time": 227040, "pitch": 48, "duration": 199, "velocity": 95}, {"time": 227040, "pitch": 53, "duration": 199, "velocity": 90}, {"time": 227040, "pitch": 57, "duration": 199, "velocity": 95}, {"time": 227040, "pitch": 64, "duration": 199, "velocity": 100}, {"time": 227518, "pitch": 48, "duration": 459, "velocity": 95}, {"time": 227518, "pitch": 53, "duration": 459, "velocity": 90}, {"time": 227518, "pitch": 57, "duration": 459, "velocity": 95}, {"time": 227518, "pitch": 64, "duration": 459, "velocity": 100}, {"time": 228236, "pitch": 48, "duration": 199, "velocity": 95}, {"time": 228236, "pitch": 53, "duration": 199, "velocity": 90}, {"time": 228236, "pitch": 57, "duration": 199, "velocity": 95}, {"time": 228236, "pitch": 64, "duration": 199, "velocity": 100}, {"time": 228720, "pitch": 48, "duration": 204, "velocity": 95}, {"time": 228720, "pitch": 53, "duration": 204, "velocity": 90}, {"time": 228720, "pitch": 57, "duration": 204, "velocity": 95}, {"time": 228720, "pitch": 64, "duration": 204, "velocity": 100}, {"time": 229204, "pitch": 48, "duration": 199, "velocity": 95}, {"time": 229204, "pitch": 53, "duration": 199, "velocity": 90}, {"time": 229204, "pitch": 57, "duration": 199, "velocity": 95}, {"time": 229204, "pitch": 64, "duration": 199, "velocity": 100}, {"time": 229921, "pitch": 48, "duration": 200, "velocity": 95}, {"time": 229921, "pitch": 53, "duration": 200, "velocity": 90}, {"time": 229921, "pitch": 57, "duration": 200, "velocity": 95}, {"time": 229921, "pitch": 64, "duration": 200, "velocity": 100}, {"time": 230400, "pitch": 48, "duration": 458, "velocity": 95}, {"time": 230400, "pitch": 53, "duration": 458, "velocity": 90}, {"time": 230400, "pitch": 57, "duration": 458, "velocity": 95}, {"time": 230400, "pitch": 64, "duration": 458, "velocity": 100}, {"time": 230878, "pitch": 62, "duration": 200, "velocity": 95}, {"time": 230878, "pitch": 67, "duration": 200, "velocity": 90}, {"time": 230878, "pitch": 71, "duration": 200, "velocity": 95}, {"time": 230878, "pitch": 76, "duration": 200, "velocity": 100}, {"time": 231357, "pitch": 62, "duration": 458, "velocity": 95}, {"time": 231357, "pitch": 67, "duration": 458, "velocity": 90}, {"time": 231357, "pitch": 71, "duration": 458, "velocity": 95}, {"time": 231357, "pitch": 76, "duration": 458, "velocity": 100}, {"time": 232080, "pitch": 62, "duration": 204, "velocity": 95}, {"time": 232080, "pitch": 67, "duration": 204, "velocity": 90}, {"time": 232080, "pitch": 71, "duration": 204, "velocity": 95}, {"time": 232080, "pitch": 76, "duration": 204, "velocity": 100}, {"time": 232564, "pitch": 62, "duration": 2133, "velocity": 95}, {"time": 232564, "pitch": 67, "duration": 2133, "velocity": 90}, {"time": 232564, "pitch": 71, "duration": 2133, "velocity": 95}, {"time": 232564, "pitch": 74, "duration": 2133, "velocity": 100}, {"time": 234717, "pitch": 53, "duration": 199, "velocity": 95}, {"time": 234717, "pitch": 57, "duration": 199, "velocity": 90}, {"time": 234717, "pitch": 60, "duration": 199, "velocity": 95}, {"time": 234717, "pitch": 64, "duration": 199, "velocity": 100}, {"time": 235195, "pitch": 53, "duration": 469, "velocity": 95}, {"time": 235195, "pitch": 57, "duration": 469, "velocity": 90}, {"time": 235195, "pitch": 60, "duration": 469, "velocity": 95}, {"time": 235195, "pitch": 64, "duration": 469, "velocity": 100}, {"time": 235924, "pitch": 53, "duration": 199, "velocity": 95}, {"time": 235924, "pitch": 57, "duration": 199, "velocity": 90}, {"time": 235924, "pitch": 60, "duration": 199, "velocity": 95}, {"time": 235924, "pitch": 64, "duration": 199, "velocity": 100}, {"time": 236402, "pitch": 53, "duration": 199, "velocity": 95}, {"time": 236402, "pitch": 57, "duration": 199, "velocity": 90}, {"time": 236402, "pitch": 60, "duration": 199, "velocity": 95}, {"time": 236402, "pitch": 64, "duration": 199, "velocity": 100}, {"time": 236881, "pitch": 50, "duration": 199, "velocity": 95}, {"time": 236881, "pitch": 56, "duration": 199, "velocity": 90}, {"time": 236881, "pitch": 59, "duration": 199, "velocity": 95}, {"time": 236881, "pitch": 64, "duration": 199, "velocity": 100}, {"time": 237598, "pitch": 50, "duration": 200, "velocity": 95}, {"time": 237598, "pitch": 56, "duration": 200, "velocity": 90}, {"time": 237598, "pitch": 59, "duration": 200, "velocity": 95}, {"time": 237598, "pitch": 64, "duration": 200, "velocity": 100}, {"time": 238077, "pitch": 50, "duration": 458, "velocity": 95}, {"time": 238077, "pitch": 56, "duration": 458, "velocity": 90}, {"time": 238077, "pitch": 59, "duration": 458, "velocity": 95}, {"time": 238077, "pitch": 64, "duration": 458, "velocity": 100}, {"time": 238555, "pitch": 45, "duration": 204, "velocity": 95}, {"time": 238555, "pitch": 55, "duration": 204, "velocity": 90}, {"time": 238555, "pitch": 60, "duration": 204, "velocity": 95}, {"time": 238555, "pitch": 64, "duration": 204, "velocity": 100}, {"time": 239045, "pitch": 45, "duration": 458, "velocity": 95}, {"time": 239045, "pitch": 55, "duration": 458, "velocity": 90}, {"time": 239045, "pitch": 60, "duration": 458, "velocity": 95}, {"time": 239045, "pitch": 64, "duration": 458, "velocity": 100}, {"time": 239762, "pitch": 45, "duration": 199, "velocity": 95}, {"time": 239762, "pitch": 55, "duration": 199, "velocity": 90}, {"time": 239762, "pitch": 60, "duration": 199, "velocity": 95}, {"time": 239762, "pitch": 64, "duration": 199, "velocity": 100}, {"time": 240241, "pitch": 45, "duration": 199, "velocity": 95}, {"time": 240241, "pitch": 55, "duration": 199, "velocity": 90}, {"time": 240241, "pitch": 60, "duration": 199, "velocity": 95}, {"time": 240241, "pitch": 64, "duration": 199, "velocity": 100}, {"time": 240719, "pitch": 48, "duration": 199, "velocity": 95}, {"time": 240719, "pitch": 58, "duration": 199, "velocity": 90}, {"time": 240719, "pitch": 64, "duration": 199, "velocity": 95}, {"time": 240719, "pitch": 67, "duration": 199, "velocity": 100}, {"time": 241437, "pitch": 48, "duration": 199, "velocity": 95}, {"time": 241437, "pitch": 58, "duration": 199, "velocity": 90}, {"time": 241437, "pitch": 64, "duration": 199, "velocity": 95}, {"time": 241437, "pitch": 67, "duration": 199, "velocity": 100}, {"time": 241915, "pitch": 48, "duration": 469, "velocity": 95}, {"time": 241915, "pitch": 58, "duration": 469, "velocity": 90}, {"time": 241915, "pitch": 64, "duration": 469, "velocity": 95}, {"time": 241915, "pitch": 67, "duration": 469, "velocity": 100}, {"time": 242405, "pitch": 53, "duration": 199, "velocity": 95}, {"time": 242405, "pitch": 57, "duration": 199, "velocity": 90}, {"time": 242405, "pitch": 60, "duration": 199, "velocity": 95}, {"time": 242405, "pitch": 64, "duration": 199, "velocity": 100}, {"time": 242883, "pitch": 53, "duration": 458, "velocity": 95}, {"time": 242883, "pitch": 57, "duration": 458, "velocity": 90}, {"time": 242883, "pitch": 60, "duration": 458, "velocity": 95}, {"time": 242883, "pitch": 64, "duration": 458, "velocity": 100}, {"time": 243601, "pitch": 53, "duration": 199, "velocity": 95}, {"time": 243601, "pitch": 57, "duration": 199, "velocity": 90}, {"time": 243601, "pitch": 60, "duration": 199, "velocity": 95}, {"time": 243601, "pitch": 64, "duration": 199, "velocity": 100}, {"time": 244079, "pitch": 53, "duration": 199, "velocity": 95}, {"time": 244079, "pitch": 57, "duration": 199, "velocity": 90}, {"time": 244079, "pitch": 60, "duration": 199, "velocity": 95}, {"time": 244079, "pitch": 64, "duration": 199, "velocity": 100}, {"time": 244557, "pitch": 50, "duration": 200, "velocity": 95}, {"time": 244557, "pitch": 56, "duration": 200, "velocity": 90}, {"time": 244557, "pitch": 59, "duration": 200, "velocity": 95}, {"time": 244557, "pitch": 64, "duration": 200, "velocity": 100}, {"time": 245275, "pitch": 50, "duration": 204, "velocity": 95}, {"time": 245275, "pitch": 56, "duration": 204, "velocity": 90}, {"time": 245275, "pitch": 59, "duration": 204, "velocity": 95}, {"time": 245275, "pitch": 64, "duration": 204, "velocity": 100}, {"time": 245765, "pitch": 50, "duration": 458, "velocity": 95}, {"time": 245765, "pitch": 56, "duration": 458, "velocity": 90}, {"time": 245765, "pitch": 59, "duration": 458, "velocity": 95}, {"time": 245765, "pitch": 64, "duration": 458, "velocity": 100}, {"time": 246243, "pitch": 45, "duration": 199, "velocity": 95}, {"time": 246243, "pitch": 55, "duration": 199, "velocity": 90}, {"time": 246243, "pitch": 60, "duration": 199, "velocity": 95}, {"time": 246243, "pitch": 64, "duration": 199, "velocity": 100}, {"time": 246721, "pitch": 45, "duration": 459, "velocity": 95}, {"time": 246721, "pitch": 55, "duration": 459, "velocity": 90}, {"time": 246721, "pitch": 60, "duration": 459, "velocity": 95}, {"time": 246721, "pitch": 64, "duration": 459, "velocity": 100}, {"time": 247439, "pitch": 45, "duration": 199, "velocity": 95}, {"time": 247439, "pitch": 55, "duration": 199, "velocity": 90}, {"time": 247439, "pitch": 60, "duration": 199, "velocity": 95}, {"time": 247439, "pitch": 64, "duration": 199, "velocity": 100}, {"time": 247917, "pitch": 45, "duration": 200, "velocity": 95}, {"time": 247917, "pitch": 55, "duration": 200, "velocity": 90}, {"time": 247917, "pitch": 60, "duration": 200, "velocity": 95}, {"time": 247917, "pitch": 64, "duration": 200, "velocity": 100}, {"time": 248396, "pitch": 48, "duration": 199, "velocity": 95}, {"time": 248396, "pitch": 58, "duration": 199, "velocity": 90}, {"time": 248396, "pitch": 64, "duration": 199, "velocity": 95}, {"time": 248396, "pitch": 67, "duration": 199, "velocity": 100}, {"time": 249125, "pitch": 48, "duration": 199, "velocity": 95}, {"time": 249125, "pitch": 58, "duration": 199, "velocity": 90}, {"time": 249125, "pitch": 64, "duration": 199, "velocity": 95}, {"time": 249125, "pitch": 67, "duration": 199, "velocity": 100}, {"time": 249603, "pitch": 48, "duration": 458, "velocity": 95}, {"time": 249603, "pitch": 58, "duration": 458, "velocity": 90}, {"time": 249603, "pitch": 64, "duration": 458, "velocity": 95}, {"time": 249603, "pitch": 67, "duration": 458, "velocity": 100}, {"time": 250081, "pitch": 53, "duration": 200, "velocity": 95}, {"time": 250081, "pitch": 57, "duration": 200, "velocity": 90}, {"time": 250081, "pitch": 60, "duration": 200, "velocity": 95}, {"time": 250081, "pitch": 64, "duration": 200, "velocity": 100}, {"time": 250560, "pitch": 53, "duration": 458, "velocity": 95}, {"time": 250560, "pitch": 57, "duration": 458, "velocity": 90}, {"time": 250560, "pitch": 60, "duration": 458, "velocity": 95}, {"time": 250560, "pitch": 64, "duration": 458, "velocity": 100}, {"time": 251277, "pitch": 53, "duration": 200, "velocity": 95}, {"time": 251277, "pitch": 57, "duration": 200, "velocity": 90}, {"time": 251277, "pitch": 60, "duration": 200, "velocity": 95}, {"time": 251277, "pitch": 64, "duration": 200, "velocity": 100}, {"time": 251756, "pitch": 53, "duration": 199, "velocity": 95}, {"time": 251756, "pitch": 57, "duration": 199, "velocity": 90}, {"time": 251756, "pitch": 60, "duration": 199, "velocity": 95}, {"time": 251756, "pitch": 64, "duration": 199, "velocity": 100}, {"time": 252240, "pitch": 52, "duration": 204, "velocity": 95}, {"time": 252240, "pitch": 59, "duration": 204, "velocity": 90}, {"time": 252240, "pitch": 62, "duration": 204, "velocity": 95}, {"time": 252240, "pitch": 68, "duration": 204, "velocity": 100}, {"time": 252963, "pitch": 52, "duration": 199, "velocity": 95}, {"time": 252963, "pitch": 59, "duration": 199, "velocity": 90}, {"time": 252963, "pitch": 62, "duration": 199, "velocity": 95}, {"time": 252963, "pitch": 68, "duration": 199, "velocity": 100}, {"time": 253202, "pitch": 62, "duration": 239, "velocity": 95}, {"time": 253441, "pitch": 68, "duration": 20, "velocity": 100}, {"time": 253920, "pitch": 45, "duration": 199, "velocity": 95}, {"time": 253920, "pitch": 55, "duration": 199, "velocity": 90}, {"time": 253920, "pitch": 60, "duration": 199, "velocity": 95}, {"time": 253920, "pitch": 64, "duration": 199, "velocity": 100}, {"time": 254398, "pitch": 45, "duration": 459, "velocity": 95}, {"time": 254398, "pitch": 55, "duration": 459, "velocity": 90}, {"time": 254398, "pitch": 60, "duration": 459, "velocity": 95}, {"time": 254398, "pitch": 64, "duration": 459, "velocity": 100}, {"time": 255116, "pitch": 45, "duration": 199, "velocity": 95}, {"time": 255116, "pitch": 55, "duration": 199, "velocity": 90}, {"time": 255116, "pitch": 60, "duration": 199, "velocity": 95}, {"time": 255116, "pitch": 64, "duration": 199, "velocity": 100}, {"time": 255600, "pitch": 45, "duration": 204, "velocity": 95}, {"time": 255600, "pitch": 55, "duration": 204, "velocity": 90}, {"time": 255600, "pitch": 60, "duration": 204, "velocity": 95}, {"time": 255600, "pitch": 64, "duration": 204, "velocity": 100}, {"time": 256084, "pitch": 45, "duration": 199, "velocity": 95}, {"time": 256084, "pitch": 55, "duration": 199, "velocity": 90}, {"time": 256084, "pitch": 60, "duration": 199, "velocity": 95}, {"time": 256084, "pitch": 64, "duration": 199, "velocity": 100}, {"time": 256562, "pitch": 45, "duration": 199, "velocity": 95}, {"time": 256562, "pitch": 55, "duration": 199, "velocity": 90}, {"time": 256562, "pitch": 60, "duration": 199, "velocity": 95}, {"time": 256562, "pitch": 64, "duration": 199, "velocity": 100}, {"time": 256801, "pitch": 55, "duration": 240, "velocity": 100}, {"time": 257041, "pitch": 60, "duration": 239, "velocity": 95}, {"time": 257280, "pitch": 64, "duration": 458, "velocity": 90}, {"time": 257758, "pitch": 45, "duration": 3819, "velocity": 90}, {"time": 257798, "pitch": 50, "duration": 3779, "velocity": 85}, {"time": 257838, "pitch": 57, "duration": 3739, "velocity": 90}, {"time": 257878, "pitch": 60, "duration": 3699, "velocity": 95}, {"time": 257918, "pitch": 65, "duration": 3659, "velocity": 100}, {"time": 261597, "pitch": 47, "duration": 3818, "velocity": 90}, {"time": 261636, "pitch": 50, "duration": 3779, "velocity": 85}, {"time": 261676, "pitch": 55, "duration": 3739, "velocity": 90}, {"time": 261716, "pitch": 59, "duration": 3699, "velocity": 95}, {"time": 261756, "pitch": 65, "duration": 3659, "velocity": 100}, {"time": 265435, "pitch": 48, "duration": 204, "velocity": 95}, {"time": 265435, "pitch": 55, "duration": 204, "velocity": 90}, {"time": 265435, "pitch": 59, "duration": 204, "velocity": 95}, {"time": 265435, "pitch": 64, "duration": 204, "velocity": 100}, {"time": 265925, "pitch": 48, "duration": 458, "velocity": 95}, {"time": 265925, "pitch": 55, "duration": 458, "velocity": 90}, {"time": 265925, "pitch": 59, "duration": 458, "velocity": 95}, {"time": 265925, "pitch": 64, "duration": 458, "velocity": 100}, {"time": 266642, "pitch": 48, "duration": 199, "velocity": 95}, {"time": 266642, "pitch": 55, "duration": 199, "velocity": 90}, {"time": 266642, "pitch": 59, "duration": 199, "velocity": 95}, {"time": 266642, "pitch": 64, "duration": 199, "velocity": 100}, {"time": 267121, "pitch": 48, "duration": 199, "velocity": 95}, {"time": 267121, "pitch": 55, "duration": 199, "velocity": 90}, {"time": 267121, "pitch": 59, "duration": 199, "velocity": 95}, {"time": 267121, "pitch": 64, "duration": 199, "velocity": 100}, {"time": 267599, "pitch": 48, "duration": 199, "velocity": 95}, {"time": 267599, "pitch": 55, "duration": 199, "velocity": 90}, {"time": 267599, "pitch": 59, "duration": 199, "velocity": 95}, {"time": 267599, "pitch": 64, "duration": 199, "velocity": 100}, {"time": 268077, "pitch": 48, "duration": 200, "velocity": 95}, {"time": 268077, "pitch": 55, "duration": 200, "velocity": 90}, {"time": 268077, "pitch": 59, "duration": 200, "velocity": 95}, {"time": 268077, "pitch": 64, "duration": 200, "velocity": 100}, {"time": 268317, "pitch": 55, "duration": 947, "velocity": 100}, {"time": 268556, "pitch": 59, "duration": 708, "velocity": 95}, {"time": 268795, "pitch": 64, "duration": 469, "velocity": 90}, {"time": 269285, "pitch": 48, "duration": 194, "velocity": 95}, {"time": 269285, "pitch": 55, "duration": 194, "velocity": 90}, {"time": 269285, "pitch": 59, "duration": 194, "velocity": 95}, {"time": 269285, "pitch": 64, "duration": 194, "velocity": 100}, {"time": 269751, "pitch": 48, "duration": 470, "velocity": 95}, {"time": 269751, "pitch": 55, "duration": 470, "velocity": 90}, {"time": 269751, "pitch": 59, "duration": 470, "velocity": 95}, {"time": 269751, "pitch": 64, "duration": 470, "velocity": 100}, {"time": 270487, "pitch": 48, "duration": 203, "velocity": 95}, {"time": 270487, "pitch": 55, "duration": 203, "velocity": 90}, {"time": 270487, "pitch": 59, "duration": 203, "velocity": 95}, {"time": 270487, "pitch": 64, "duration": 203, "velocity": 100}, {"time": 270970, "pitch": 48, "duration": 199, "velocity": 95}, {"time": 270970, "pitch": 55, "duration": 199, "velocity": 90}, {"time": 270970, "pitch": 59, "duration": 199, "velocity": 95}, {"time": 270970, "pitch": 64, "duration": 199, "velocity": 100}, {"time": 271448, "pitch": 48, "duration": 200, "velocity": 95}, {"time": 271448, "pitch": 55, "duration": 200, "velocity": 90}, {"time": 271448, "pitch": 59, "duration": 200, "velocity": 95}, {"time": 271448, "pitch": 64, "duration": 200, "velocity": 100}, {"time": 271927, "pitch": 48, "duration": 200, "velocity": 95}, {"time": 271927, "pitch": 55, "duration": 200, "velocity": 90}, {"time": 271927, "pitch": 59, "duration": 200, "velocity": 95}, {"time": 271927, "pitch": 64, "duration": 200, "velocity": 100}, {"time": 272406, "pitch": 48, "duration": 717, "velocity": 100}, {"time": 272644, "pitch": 55, "duration": 479, "velocity": 95}, {"time": 272884, "pitch": 59, "duration": 239, "velocity": 90}, {"time": 273123, "pitch": 48, "duration": 199, "velocity": 95}, {"time": 273123, "pitch": 55, "duration": 199, "velocity": 90}, {"time": 273123, "pitch": 59, "duration": 199, "velocity": 95}, {"time": 273123, "pitch": 64, "duration": 199, "velocity": 100}, {"time": 273601, "pitch": 48, "duration": 459, "velocity": 95}, {"time": 273601, "pitch": 55, "duration": 459, "velocity": 90}, {"time": 273601, "pitch": 59, "duration": 459, "velocity": 95}, {"time": 273601, "pitch": 64, "duration": 459, "velocity": 100}, {"time": 274325, "pitch": 48, "duration": 204, "velocity": 95}, {"time": 274325, "pitch": 55, "duration": 204, "velocity": 90}, {"time": 274325, "pitch": 59, "duration": 204, "velocity": 95}, {"time": 274325, "pitch": 64, "duration": 204, "velocity": 100}, {"time": 274808, "pitch": 48, "duration": 199, "velocity": 95}, {"time": 274808, "pitch": 55, "duration": 199, "velocity": 90}, {"time": 274808, "pitch": 59, "duration": 199, "velocity": 95}, {"time": 274808, "pitch": 64, "duration": 199, "velocity": 100}, {"time": 275287, "pitch": 48, "duration": 200, "velocity": 95}, {"time": 275287, "pitch": 55, "duration": 200, "velocity": 90}, {"time": 275287, "pitch": 59, "duration": 200, "velocity": 95}, {"time": 275287, "pitch": 64, "duration": 200, "velocity": 100}, {"time": 275766, "pitch": 48, "duration": 199, "velocity": 95}, {"time": 275766, "pitch": 55, "duration": 199, "velocity": 90}, {"time": 275766, "pitch": 59, "duration": 199, "velocity": 95}, {"time": 275766, "pitch": 64, "duration": 199, "velocity": 100}, {"time": 276244, "pitch": 48, "duration": 7148, "velocity": 110}, {"time": 276486, "pitch": 55, "duration": 6906, "velocity": 105}, {"time": 276974, "pitch": 59, "duration": 6418, "velocity": 100}, {"time": 277444, "pitch": 64, "duration": 5948, "velocity": 100}], "annotations": [{"time": 297, "annotation": {"number": 7, "value": 70}, "group": "control_change"}, {"time": 320, "annotation": {"number": 10, "value": 96}, "group": "control_change"}, {"time": 343, "annotation": {"number": 11, "value": 100}, "group": "control_change"}, {"time": 366, "annotation": {"number": 91, "value": 60}, "group": "control_change"}, {"time": 389, "annotation": {"number": 93, "value": 40}, "group": "control_change"}, {"time": 411, "annotation": {"number": 101, "value": 0}, "group": "control_change"}, {"time": 434, "annotation": {"number": 100, "value": 0}, "group": "control_change"}, {"time": 457, "annotation": {"number": 6, "value": 12}, "group": "control_change"}, {"time": 480, "annotation": {"number": 1, "value": 0}, "group": "control_change"}, {"time": 485, "annotation": {"number": 64, "value": 0}, "group": "control_change"}]}, {"program": 0, "is_drum": false, "name": "Bass", "annotations": [{"time": 229, "annotation": {"number": 0, "value": 0}, "group": "control_change"}, {"time": 251, "annotation": {"number": 32, "value": 2}, "group": "control_change"}]}, {"program": 32, "is_drum": false, "name": "Bass", "notes": [{"time": 4323, "pitch": 36, "duration": 479, "velocity": 100}, {"time": 5041, "pitch": 36, "duration": 159, "velocity": 95}, {"time": 5280, "pitch": 36, "duration": 478, "velocity": 100}, {"time": 5998, "pitch": 36, "duration": 159, "velocity": 95}, {"time": 6237, "pitch": 36, "duration": 478, "velocity": 100}, {"time": 6960, "pitch": 36, "duration": 163, "velocity": 95}, {"time": 7205, "pitch": 36, "duration": 159, "velocity": 95}, {"time": 7683, "pitch": 31, "duration": 459, "velocity": 100}, {"time": 8162, "pitch": 36, "duration": 478, "velocity": 100}, {"time": 8879, "pitch": 36, "duration": 160, "velocity": 95}, {"time": 9118, "pitch": 36, "duration": 479, "velocity": 100}, {"time": 9836, "pitch": 36, "duration": 159, "velocity": 95}, {"time": 10075, "pitch": 36, "duration": 490, "velocity": 100}, {"time": 10804, "pitch": 36, "duration": 159, "velocity": 95}, {"time": 11043, "pitch": 36, "duration": 160, "velocity": 95}, {"time": 11522, "pitch": 31, "duration": 458, "velocity": 100}, {"time": 12000, "pitch": 36, "duration": 478, "velocity": 100}, {"time": 12718, "pitch": 36, "duration": 159, "velocity": 95}, {"time": 12957, "pitch": 36, "duration": 478, "velocity": 100}, {"time": 13680, "pitch": 36, "duration": 163, "velocity": 95}, {"time": 13925, "pitch": 36, "duration": 478, "velocity": 100}, {"time": 14642, "pitch": 36, "duration": 160, "velocity": 95}, {"time": 14882, "pitch": 36, "duration": 478, "velocity": 100}, {"time": 15599, "pitch": 36, "duration": 160, "velocity": 95}, {"time": 15838, "pitch": 35, "duration": 479, "velocity": 100}, {"time": 16556, "pitch": 35, "duration": 159, "velocity": 95}, {"time": 16795, "pitch": 35, "duration": 490, "velocity": 100}, {"time": 17524, "pitch": 35, "duration": 159, "velocity": 95}, {"time": 17763, "pitch": 28, "duration": 479, "velocity": 100}, {"time": 18481, "pitch": 28, "duration": 159, "velocity": 95}, {"time": 18720, "pitch": 28, "duration": 478, "velocity": 100}, {"time": 19438, "pitch": 28, "duration": 159, "velocity": 95}, {"time": 19677, "pitch": 33, "duration": 478, "velocity": 100}, {"time": 20400, "pitch": 33, "duration": 163, "velocity": 95}, {"time": 20645, "pitch": 33, "duration": 478, "velocity": 100}, {"time": 21362, "pitch": 33, "duration": 160, "velocity": 95}, {"time": 21602, "pitch": 33, "duration": 478, "velocity": 100}, {"time": 22319, "pitch": 33, "duration": 160, "velocity": 95}, {"time": 22558, "pitch": 33, "duration": 479, "velocity": 100}, {"time": 23037, "pitch": 32, "duration": 478, "velocity": 95}, {"time": 23515, "pitch": 31, "duration": 490, "velocity": 100}, {"time": 24244, "pitch": 31, "duration": 159, "velocity": 95}, {"time": 24483, "pitch": 31, "duration": 479, "velocity": 100}, {"time": 25201, "pitch": 31, "duration": 159, "velocity": 95}, {"time": 25440, "pitch": 36, "duration": 478, "velocity": 100}, {"time": 26158, "pitch": 36, "duration": 159, "velocity": 95}, {"time": 26397, "pitch": 36, "duration": 478, "velocity": 100}, {"time": 27120, "pitch": 36, "duration": 163, "velocity": 95}, {"time": 27365, "pitch": 38, "duration": 478, "velocity": 100}, {"time": 28082, "pitch": 38, "duration": 160, "velocity": 95}, {"time": 28322, "pitch": 38, "duration": 478, "velocity": 100}, {"time": 29039, "pitch": 38, "duration": 160, "velocity": 95}, {"time": 29278, "pitch": 38, "duration": 479, "velocity": 100}, {"time": 29996, "pitch": 38, "duration": 159, "velocity": 95}, {"time": 30235, "pitch": 38, "duration": 490, "velocity": 100}, {"time": 30964, "pitch": 38, "duration": 159, "velocity": 95}, {"time": 31203, "pitch": 43, "duration": 479, "velocity": 100}, {"time": 31921, "pitch": 43, "duration": 159, "velocity": 95}, {"time": 32160, "pitch": 43, "duration": 478, "velocity": 100}, {"time": 32878, "pitch": 43, "duration": 159, "velocity": 95}, {"time": 33117, "pitch": 43, "duration": 478, "velocity": 100}, {"time": 33840, "pitch": 43, "duration": 163, "velocity": 95}, {"time": 34085, "pitch": 43, "duration": 478, "velocity": 100}, {"time": 34802, "pitch": 43, "duration": 160, "velocity": 95}, {"time": 35042, "pitch": 36, "duration": 478, "velocity": 100}, {"time": 35759, "pitch": 36, "duration": 160, "velocity": 95}, {"time": 35998, "pitch": 36, "duration": 479, "velocity": 100}, {"time": 36716, "pitch": 36, "duration": 159, "velocity": 95}, {"time": 36955, "pitch": 36, "duration": 490, "velocity": 100}, {"time": 37684, "pitch": 36, "duration": 159, "velocity": 95}, {"time": 37923, "pitch": 36, "duration": 459, "velocity": 95}, {"time": 38402, "pitch": 31, "duration": 458, "velocity": 100}, {"time": 38880, "pitch": 36, "duration": 478, "velocity": 100}, {"time": 39598, "pitch": 36, "duration": 159, "velocity": 95}, {"time": 39837, "pitch": 36, "duration": 478, "velocity": 100}, {"time": 40560, "pitch": 36, "duration": 163, "velocity": 95}, {"time": 40805, "pitch": 36, "duration": 478, "velocity": 100}, {"time": 41522, "pitch": 36, "duration": 160, "velocity": 95}, {"time": 41762, "pitch": 36, "duration": 478, "velocity": 100}, {"time": 42479, "pitch": 36, "duration": 160, "velocity": 95}, {"time": 42718, "pitch": 36, "duration": 479, "velocity": 100}, {"time": 43436, "pitch": 36, "duration": 159, "velocity": 95}, {"time": 43675, "pitch": 36, "duration": 490, "velocity": 100}, {"time": 44404, "pitch": 36, "duration": 159, "velocity": 95}, {"time": 44643, "pitch": 36, "duration": 479, "velocity": 100}, {"time": 45361, "pitch": 36, "duration": 159, "velocity": 95}, {"time": 45600, "pitch": 36, "duration": 478, "velocity": 100}, {"time": 46318, "pitch": 36, "duration": 159, "velocity": 95}, {"time": 46557, "pitch": 35, "duration": 478, "velocity": 100}, {"time": 47280, "pitch": 35, "duration": 163, "velocity": 95}, {"time": 47525, "pitch": 35, "duration": 478, "velocity": 100}, {"time": 48242, "pitch": 35, "duration": 160, "velocity": 95}, {"time": 48482, "pitch": 28, "duration": 478, "velocity": 100}, {"time": 49199, "pitch": 28, "duration": 160, "velocity": 95}, {"time": 49438, "pitch": 28, "duration": 479, "velocity": 100}, {"time": 50156, "pitch": 28, "duration": 159, "velocity": 95}, {"time": 50395, "pitch": 33, "duration": 490, "velocity": 100}, {"time": 51124, "pitch": 33, "duration": 159, "velocity": 95}, {"time": 51363, "pitch": 33, "duration": 479, "velocity": 100}, {"time": 52081, "pitch": 33, "duration": 159, "velocity": 95}, {"time": 52320, "pitch": 33, "duration": 478, "velocity": 100}, {"time": 53038, "pitch": 33, "duration": 159, "velocity": 95}, {"time": 53277, "pitch": 33, "duration": 478, "velocity": 100}, {"time": 53755, "pitch": 32, "duration": 490, "velocity": 95}, {"time": 54245, "pitch": 31, "duration": 478, "velocity": 100}, {"time": 54962, "pitch": 31, "duration": 160, "velocity": 95}, {"time": 55202, "pitch": 31, "duration": 478, "velocity": 100}, {"time": 55919, "pitch": 31, "duration": 160, "velocity": 95}, {"time": 56158, "pitch": 36, "duration": 479, "velocity": 100}, {"time": 56876, "pitch": 36, "duration": 159, "velocity": 95}, {"time": 57115, "pitch": 36, "duration": 490, "velocity": 100}, {"time": 57844, "pitch": 36, "duration": 159, "velocity": 95}, {"time": 58083, "pitch": 38, "duration": 479, "velocity": 100}, {"time": 58801, "pitch": 38, "duration": 159, "velocity": 95}, {"time": 59040, "pitch": 38, "duration": 478, "velocity": 100}, {"time": 59758, "pitch": 38, "duration": 159, "velocity": 95}, {"time": 59997, "pitch": 38, "duration": 478, "velocity": 100}, {"time": 60720, "pitch": 38, "duration": 163, "velocity": 95}, {"time": 60965, "pitch": 38, "duration": 478, "velocity": 100}, {"time": 61682, "pitch": 38, "duration": 160, "velocity": 95}, {"time": 61922, "pitch": 43, "duration": 478, "velocity": 100}, {"time": 62639, "pitch": 43, "duration": 160, "velocity": 95}, {"time": 62878, "pitch": 43, "duration": 479, "velocity": 100}, {"time": 63596, "pitch": 43, "duration": 159, "velocity": 95}, {"time": 63835, "pitch": 43, "duration": 490, "velocity": 100}, {"time": 64564, "pitch": 43, "duration": 159, "velocity": 95}, {"time": 64803, "pitch": 43, "duration": 479, "velocity": 100}, {"time": 65521, "pitch": 43, "duration": 159, "velocity": 95}, {"time": 65760, "pitch": 36, "duration": 478, "velocity": 100}, {"time": 66478, "pitch": 36, "duration": 159, "velocity": 95}, {"time": 66717, "pitch": 36, "duration": 478, "velocity": 100}, {"time": 67440, "pitch": 36, "duration": 163, "velocity": 95}, {"time": 67685, "pitch": 36, "duration": 478, "velocity": 100}, {"time": 68402, "pitch": 36, "duration": 160, "velocity": 95}, {"time": 68642, "pitch": 36, "duration": 458, "velocity": 95}, {"time": 69120, "pitch": 31, "duration": 458, "velocity": 100}, {"time": 69598, "pitch": 36, "duration": 479, "velocity": 100}, {"time": 70316, "pitch": 36, "duration": 159, "velocity": 95}, {"time": 70555, "pitch": 36, "duration": 490, "velocity": 100}, {"time": 71284, "pitch": 36, "duration": 159, "velocity": 95}, {"time": 71523, "pitch": 36, "duration": 479, "velocity": 100}, {"time": 72241, "pitch": 36, "duration": 159, "velocity": 95}, {"time": 72480, "pitch": 36, "duration": 458, "velocity": 95}, {"time": 72958, "pitch": 31, "duration": 459, "velocity": 100}, {"time": 73437, "pitch": 35, "duration": 1905, "velocity": 100}, {"time": 75362, "pitch": 28, "duration": 1893, "velocity": 100}, {"time": 77275, "pitch": 33, "duration": 490, "velocity": 100}, {"time": 78004, "pitch": 33, "duration": 159, "velocity": 95}, {"time": 78243, "pitch": 33, "duration": 479, "velocity": 100}, {"time": 78961, "pitch": 33, "duration": 159, "velocity": 95}, {"time": 79200, "pitch": 33, "duration": 478, "velocity": 100}, {"time": 79918, "pitch": 33, "duration": 159, "velocity": 95}, {"time": 80157, "pitch": 33, "duration": 478, "velocity": 100}, {"time": 80880, "pitch": 33, "duration": 163, "velocity": 95}, {"time": 81125, "pitch": 35, "duration": 1893, "velocity": 100}, {"time": 83038, "pitch": 28, "duration": 1905, "velocity": 100}, {"time": 84963, "pitch": 33, "duration": 479, "velocity": 100}, {"time": 85681, "pitch": 33, "duration": 159, "velocity": 95}, {"time": 85920, "pitch": 33, "duration": 478, "velocity": 100}, {"time": 86638, "pitch": 33, "duration": 159, "velocity": 95}, {"time": 86877, "pitch": 33, "duration": 478, "velocity": 100}, {"time": 87600, "pitch": 33, "duration": 163, "velocity": 95}, {"time": 87845, "pitch": 33, "duration": 159, "velocity": 100}, {"time": 88084, "pitch": 36, "duration": 478, "velocity": 110}, {"time": 88802, "pitch": 38, "duration": 478, "velocity": 100}, {"time": 89519, "pitch": 38, "duration": 160, "velocity": 95}, {"time": 89758, "pitch": 38, "duration": 479, "velocity": 100}, {"time": 90476, "pitch": 38, "duration": 159, "velocity": 95}, {"time": 90715, "pitch": 38, "duration": 490, "velocity": 100}, {"time": 91444, "pitch": 38, "duration": 159, "velocity": 95}, {"time": 91683, "pitch": 38, "duration": 479, "velocity": 100}, {"time": 92401, "pitch": 38, "duration": 159, "velocity": 95}, {"time": 92640, "pitch": 40, "duration": 478, "velocity": 100}, {"time": 93358, "pitch": 40, "duration": 159, "velocity": 95}, {"time": 93597, "pitch": 40, "duration": 478, "velocity": 100}, {"time": 94320, "pitch": 40, "duration": 163, "velocity": 95}, {"time": 94565, "pitch": 40, "duration": 478, "velocity": 100}, {"time": 95282, "pitch": 40, "duration": 160, "velocity": 95}, {"time": 95521, "pitch": 40, "duration": 479, "velocity": 100}, {"time": 96239, "pitch": 40, "duration": 160, "velocity": 95}, {"time": 96478, "pitch": 41, "duration": 479, "velocity": 100}, {"time": 97196, "pitch": 41, "duration": 159, "velocity": 95}, {"time": 97435, "pitch": 41, "duration": 490, "velocity": 100}, {"time": 98164, "pitch": 41, "duration": 159, "velocity": 95}, {"time": 98403, "pitch": 41, "duration": 478, "velocity": 100}, {"time": 99121, "pitch": 41, "duration": 159, "velocity": 95}, {"time": 99360, "pitch": 41, "duration": 478, "velocity": 100}, {"time": 100078, "pitch": 41, "duration": 159, "velocity": 95}, {"time": 100317, "pitch": 43, "duration": 478, "velocity": 100}, {"time": 101040, "pitch": 43, "duration": 163, "velocity": 95}, {"time": 101285, "pitch": 43, "duration": 478, "velocity": 100}, {"time": 102002, "pitch": 43, "duration": 160, "velocity": 95}, {"time": 102241, "pitch": 43, "duration": 220, "velocity": 100}, {"time": 102481, "pitch": 43, "duration": 219, "velocity": 95}, {"time": 102720, "pitch": 43, "duration": 219, "velocity": 100}, {"time": 102959, "pitch": 43, "duration": 219, "velocity": 95}, {"time": 103198, "pitch": 43, "duration": 220, "velocity": 100}, {"time": 103438, "pitch": 43, "duration": 219, "velocity": 95}, {"time": 103677, "pitch": 43, "duration": 219, "velocity": 100}, {"time": 103916, "pitch": 43, "duration": 219, "velocity": 95}, {"time": 104155, "pitch": 41, "duration": 490, "velocity": 100}, {"time": 104884, "pitch": 41, "duration": 159, "velocity": 95}, {"time": 105123, "pitch": 41, "duration": 459, "velocity": 95}, {"time": 105601, "pitch": 36, "duration": 479, "velocity": 100}, {"time": 106080, "pitch": 40, "duration": 478, "velocity": 100}, {"time": 106798, "pitch": 40, "duration": 159, "velocity": 95}, {"time": 107037, "pitch": 40, "duration": 458, "velocity": 95}, {"time": 107515, "pitch": 35, "duration": 490, "velocity": 100}, {"time": 108005, "pitch": 33, "duration": 478, "velocity": 100}, {"time": 108722, "pitch": 33, "duration": 160, "velocity": 95}, {"time": 108961, "pitch": 33, "duration": 479, "velocity": 100}, {"time": 109679, "pitch": 33, "duration": 160, "velocity": 95}, {"time": 109918, "pitch": 36, "duration": 479, "velocity": 100}, {"time": 110636, "pitch": 36, "duration": 159, "velocity": 95}, {"time": 110875, "pitch": 36, "duration": 490, "velocity": 100}, {"time": 111604, "pitch": 36, "duration": 159, "velocity": 95}, {"time": 111843, "pitch": 41, "duration": 478, "velocity": 100}, {"time": 112561, "pitch": 41, "duration": 159, "velocity": 95}, {"time": 112800, "pitch": 41, "duration": 458, "velocity": 95}, {"time": 113278, "pitch": 36, "duration": 479, "velocity": 100}, {"time": 113757, "pitch": 40, "duration": 478, "velocity": 100}, {"time": 114480, "pitch": 40, "duration": 163, "velocity": 95}, {"time": 114725, "pitch": 40, "duration": 458, "velocity": 95}, {"time": 115203, "pitch": 35, "duration": 478, "velocity": 100}, {"time": 115681, "pitch": 33, "duration": 479, "velocity": 100}, {"time": 116399, "pitch": 33, "duration": 160, "velocity": 95}, {"time": 116638, "pitch": 33, "duration": 479, "velocity": 100}, {"time": 117356, "pitch": 33, "duration": 159, "velocity": 95}, {"time": 117595, "pitch": 36, "duration": 490, "velocity": 100}, {"time": 118324, "pitch": 36, "duration": 159, "velocity": 95}, {"time": 118563, "pitch": 36, "duration": 478, "velocity": 100}, {"time": 119281, "pitch": 36, "duration": 159, "velocity": 95}, {"time": 119520, "pitch": 41, "duration": 478, "velocity": 100}, {"time": 120237, "pitch": 41, "duration": 160, "velocity": 95}, {"time": 120477, "pitch": 41, "duration": 458, "velocity": 95}, {"time": 120955, "pitch": 36, "duration": 490, "velocity": 100}, {"time": 121445, "pitch": 40, "duration": 478, "velocity": 100}, {"time": 122162, "pitch": 40, "duration": 160, "velocity": 95}, {"time": 122401, "pitch": 40, "duration": 459, "velocity": 95}, {"time": 122880, "pitch": 35, "duration": 478, "velocity": 100}, {"time": 123358, "pitch": 33, "duration": 479, "velocity": 100}, {"time": 124076, "pitch": 33, "duration": 159, "velocity": 95}, {"time": 124315, "pitch": 33, "duration": 490, "velocity": 100}, {"time": 125044, "pitch": 33, "duration": 159, "velocity": 95}, {"time": 125283, "pitch": 33, "duration": 478, "velocity": 100}, {"time": 126001, "pitch": 33, "duration": 159, "velocity": 95}, {"time": 126240, "pitch": 33, "duration": 478, "velocity": 100}, {"time": 126957, "pitch": 33, "duration": 160, "velocity": 95}, {"time": 127197, "pitch": 38, "duration": 478, "velocity": 100}, {"time": 127920, "pitch": 38, "duration": 163, "velocity": 95}, {"time": 128165, "pitch": 38, "duration": 478, "velocity": 100}, {"time": 128882, "pitch": 38, "duration": 160, "velocity": 95}, {"time": 129121, "pitch": 38, "duration": 479, "velocity": 100}, {"time": 129839, "pitch": 38, "duration": 160, "velocity": 95}, {"time": 130078, "pitch": 38, "duration": 479, "velocity": 100}, {"time": 130796, "pitch": 38, "duration": 159, "velocity": 95}, {"time": 131035, "pitch": 31, "duration": 490, "velocity": 100}, {"time": 131764, "pitch": 31, "duration": 159, "velocity": 95}, {"time": 132003, "pitch": 31, "duration": 478, "velocity": 100}, {"time": 132721, "pitch": 31, "duration": 159, "velocity": 95}, {"time": 132960, "pitch": 31, "duration": 478, "velocity": 100}, {"time": 133677, "pitch": 31, "duration": 160, "velocity": 95}, {"time": 133917, "pitch": 31, "duration": 478, "velocity": 100}, {"time": 134640, "pitch": 31, "duration": 163, "velocity": 95}, {"time": 134885, "pitch": 36, "duration": 478, "velocity": 100}, {"time": 135602, "pitch": 36, "duration": 160, "velocity": 95}, {"time": 135841, "pitch": 36, "duration": 479, "velocity": 100}, {"time": 136559, "pitch": 36, "duration": 160, "velocity": 95}, {"time": 136798, "pitch": 36, "duration": 479, "velocity": 100}, {"time": 137516, "pitch": 36, "duration": 159, "velocity": 95}, {"time": 137755, "pitch": 36, "duration": 469, "velocity": 95}, {"time": 138245, "pitch": 31, "duration": 458, "velocity": 100}, {"time": 138723, "pitch": 36, "duration": 478, "velocity": 100}, {"time": 139441, "pitch": 36, "duration": 159, "velocity": 95}, {"time": 139680, "pitch": 36, "duration": 478, "velocity": 100}, {"time": 140397, "pitch": 36, "duration": 160, "velocity": 95}, {"time": 140637, "pitch": 36, "duration": 478, "velocity": 100}, {"time": 141360, "pitch": 36, "duration": 163, "velocity": 95}, {"time": 141605, "pitch": 36, "duration": 458, "velocity": 95}, {"time": 142083, "pitch": 31, "duration": 459, "velocity": 100}, {"time": 142561, "pitch": 36, "duration": 479, "velocity": 100}, {"time": 143279, "pitch": 36, "duration": 160, "velocity": 95}, {"time": 143518, "pitch": 36, "duration": 479, "velocity": 100}, {"time": 144236, "pitch": 36, "duration": 159, "velocity": 95}, {"time": 144475, "pitch": 36, "duration": 490, "velocity": 100}, {"time": 145204, "pitch": 36, "duration": 159, "velocity": 95}, {"time": 145443, "pitch": 36, "duration": 478, "velocity": 100}, {"time": 146161, "pitch": 36, "duration": 159, "velocity": 95}, {"time": 146400, "pitch": 35, "duration": 478, "velocity": 100}, {"time": 147117, "pitch": 35, "duration": 160, "velocity": 95}, {"time": 147357, "pitch": 35, "duration": 478, "velocity": 100}, {"time": 148080, "pitch": 35, "duration": 163, "velocity": 95}, {"time": 148325, "pitch": 28, "duration": 478, "velocity": 100}, {"time": 149042, "pitch": 28, "duration": 160, "velocity": 95}, {"time": 149281, "pitch": 28, "duration": 479, "velocity": 100}, {"time": 149999, "pitch": 28, "duration": 160, "velocity": 95}, {"time": 150238, "pitch": 33, "duration": 479, "velocity": 100}, {"time": 150956, "pitch": 33, "duration": 159, "velocity": 95}, {"time": 151195, "pitch": 33, "duration": 490, "velocity": 100}, {"time": 151924, "pitch": 33, "duration": 159, "velocity": 95}, {"time": 152163, "pitch": 33, "duration": 478, "velocity": 100}, {"time": 152881, "pitch": 33, "duration": 159, "velocity": 95}, {"time": 153120, "pitch": 33, "duration": 478, "velocity": 100}, {"time": 153598, "pitch": 32, "duration": 479, "velocity": 95}, {"time": 154077, "pitch": 31, "duration": 478, "velocity": 100}, {"time": 154800, "pitch": 31, "duration": 163, "velocity": 95}, {"time": 155045, "pitch": 31, "duration": 478, "velocity": 100}, {"time": 155762, "pitch": 31, "duration": 160, "velocity": 95}, {"time": 156001, "pitch": 36, "duration": 479, "velocity": 100}, {"time": 156719, "pitch": 36, "duration": 160, "velocity": 95}, {"time": 156958, "pitch": 36, "duration": 479, "velocity": 100}, {"time": 157676, "pitch": 36, "duration": 159, "velocity": 95}, {"time": 157915, "pitch": 38, "duration": 490, "velocity": 100}, {"time": 158644, "pitch": 38, "duration": 159, "velocity": 95}, {"time": 158883, "pitch": 38, "duration": 478, "velocity": 100}, {"time": 159601, "pitch": 38, "duration": 159, "velocity": 95}, {"time": 159840, "pitch": 38, "duration": 478, "velocity": 100}, {"time": 160557, "pitch": 38, "duration": 160, "velocity": 95}, {"time": 160797, "pitch": 38, "duration": 478, "velocity": 100}, {"time": 161520, "pitch": 38, "duration": 163, "velocity": 95}, {"time": 161765, "pitch": 43, "duration": 478, "velocity": 100}, {"time": 162482, "pitch": 43, "duration": 160, "velocity": 95}, {"time": 162721, "pitch": 43, "duration": 479, "velocity": 100}, {"time": 163439, "pitch": 43, "duration": 160, "velocity": 95}, {"time": 163678, "pitch": 43, "duration": 479, "velocity": 100}, {"time": 164396, "pitch": 43, "duration": 159, "velocity": 95}, {"time": 164635, "pitch": 43, "duration": 490, "velocity": 100}, {"time": 165364, "pitch": 43, "duration": 159, "velocity": 95}, {"time": 165603, "pitch": 36, "duration": 478, "velocity": 100}, {"time": 166321, "pitch": 36, "duration": 159, "velocity": 95}, {"time": 166560, "pitch": 36, "duration": 478, "velocity": 100}, {"time": 167277, "pitch": 36, "duration": 160, "velocity": 95}, {"time": 167517, "pitch": 36, "duration": 478, "velocity": 100}, {"time": 168240, "pitch": 36, "duration": 163, "velocity": 95}, {"time": 168485, "pitch": 36, "duration": 458, "velocity": 95}, {"time": 168963, "pitch": 31, "duration": 458, "velocity": 100}, {"time": 169441, "pitch": 36, "duration": 479, "velocity": 100}, {"time": 170159, "pitch": 36, "duration": 160, "velocity": 95}, {"time": 170398, "pitch": 36, "duration": 479, "velocity": 100}, {"time": 171116, "pitch": 36, "duration": 159, "velocity": 95}, {"time": 171355, "pitch": 36, "duration": 490, "velocity": 100}, {"time": 172084, "pitch": 36, "duration": 159, "velocity": 95}, {"time": 172323, "pitch": 36, "duration": 458, "velocity": 95}, {"time": 172801, "pitch": 31, "duration": 459, "velocity": 100}, {"time": 173280, "pitch": 36, "duration": 478, "velocity": 100}, {"time": 173997, "pitch": 36, "duration": 160, "velocity": 95}, {"time": 174237, "pitch": 36, "duration": 478, "velocity": 100}, {"time": 174960, "pitch": 36, "duration": 163, "velocity": 95}, {"time": 175205, "pitch": 36, "duration": 478, "velocity": 100}, {"time": 175922, "pitch": 36, "duration": 160, "velocity": 95}, {"time": 176161, "pitch": 36, "duration": 479, "velocity": 100}, {"time": 176879, "pitch": 36, "duration": 159, "velocity": 95}, {"time": 177118, "pitch": 35, "duration": 479, "velocity": 100}, {"time": 177836, "pitch": 35, "duration": 159, "velocity": 95}, {"time": 178075, "pitch": 35, "duration": 490, "velocity": 100}, {"time": 178804, "pitch": 35, "duration": 159, "velocity": 95}, {"time": 179043, "pitch": 28, "duration": 478, "velocity": 100}, {"time": 179761, "pitch": 28, "duration": 159, "velocity": 95}, {"time": 180000, "pitch": 28, "duration": 478, "velocity": 100}, {"time": 180717, "pitch": 28, "duration": 160, "velocity": 95}, {"time": 180957, "pitch": 33, "duration": 478, "velocity": 100}, {"time": 181680, "pitch": 33, "duration": 163, "velocity": 95}, {"time": 181925, "pitch": 33, "duration": 478, "velocity": 100}, {"time": 182642, "pitch": 33, "duration": 160, "velocity": 95}, {"time": 182881, "pitch": 33, "duration": 479, "velocity": 100}, {"time": 183599, "pitch": 33, "duration": 159, "velocity": 95}, {"time": 183838, "pitch": 33, "duration": 479, "velocity": 100}, {"time": 184317, "pitch": 32, "duration": 478, "velocity": 95}, {"time": 184795, "pitch": 31, "duration": 490, "velocity": 100}, {"time": 185524, "pitch": 31, "duration": 159, "velocity": 95}, {"time": 185763, "pitch": 31, "duration": 478, "velocity": 100}, {"time": 186481, "pitch": 31, "duration": 159, "velocity": 95}, {"time": 186720, "pitch": 36, "duration": 478, "velocity": 100}, {"time": 187437, "pitch": 36, "duration": 160, "velocity": 95}, {"time": 187677, "pitch": 36, "duration": 478, "velocity": 100}, {"time": 188400, "pitch": 36, "duration": 163, "velocity": 95}, {"time": 188645, "pitch": 38, "duration": 478, "velocity": 100}, {"time": 189362, "pitch": 38, "duration": 160, "velocity": 95}, {"time": 189601, "pitch": 38, "duration": 479, "velocity": 100}, {"time": 190319, "pitch": 38, "duration": 159, "velocity": 95}, {"time": 190558, "pitch": 38, "duration": 479, "velocity": 100}, {"time": 191276, "pitch": 38, "duration": 159, "velocity": 95}, {"time": 191515, "pitch": 38, "duration": 490, "velocity": 100}, {"time": 192244, "pitch": 38, "duration": 159, "velocity": 95}, {"time": 192483, "pitch": 43, "duration": 478, "velocity": 100}, {"time": 193201, "pitch": 43, "duration": 159, "velocity": 95}, {"time": 193440, "pitch": 43, "duration": 478, "velocity": 100}, {"time": 194157, "pitch": 43, "duration": 160, "velocity": 95}, {"time": 194397, "pitch": 43, "duration": 478, "velocity": 100}, {"time": 195120, "pitch": 43, "duration": 163, "velocity": 95}, {"time": 195365, "pitch": 43, "duration": 478, "velocity": 100}, {"time": 196082, "pitch": 43, "duration": 160, "velocity": 95}, {"time": 196321, "pitch": 36, "duration": 479, "velocity": 100}, {"time": 197039, "pitch": 36, "duration": 159, "velocity": 95}, {"time": 197278, "pitch": 36, "duration": 479, "velocity": 100}, {"time": 197996, "pitch": 36, "duration": 159, "velocity": 95}, {"time": 198235, "pitch": 36, "duration": 490, "velocity": 100}, {"time": 198964, "pitch": 36, "duration": 159, "velocity": 95}, {"time": 199203, "pitch": 36, "duration": 458, "velocity": 95}, {"time": 199681, "pitch": 31, "duration": 459, "velocity": 100}, {"time": 200160, "pitch": 36, "duration": 478, "velocity": 100}, {"time": 200877, "pitch": 36, "duration": 160, "velocity": 95}, {"time": 201117, "pitch": 36, "duration": 478, "velocity": 100}, {"time": 201840, "pitch": 36, "duration": 163, "velocity": 95}, {"time": 202085, "pitch": 36, "duration": 478, "velocity": 100}, {"time": 202802, "pitch": 36, "duration": 160, "velocity": 95}, {"time": 203041, "pitch": 36, "duration": 459, "velocity": 95}, {"time": 203520, "pitch": 31, "duration": 458, "velocity": 100}, {"time": 203998, "pitch": 35, "duration": 1905, "velocity": 100}, {"time": 205923, "pitch": 28, "duration": 1894, "velocity": 100}, {"time": 207837, "pitch": 33, "duration": 478, "velocity": 100}, {"time": 208560, "pitch": 33, "duration": 163, "velocity": 95}, {"time": 208805, "pitch": 33, "duration": 478, "velocity": 100}, {"time": 209522, "pitch": 33, "duration": 160, "velocity": 95}, {"time": 209761, "pitch": 33, "duration": 479, "velocity": 100}, {"time": 210479, "pitch": 33, "duration": 159, "velocity": 95}, {"time": 210718, "pitch": 33, "duration": 479, "velocity": 100}, {"time": 211436, "pitch": 33, "duration": 159, "velocity": 95}, {"time": 211675, "pitch": 35, "duration": 1905, "velocity": 100}, {"time": 213600, "pitch": 28, "duration": 1904, "velocity": 100}, {"time": 215525, "pitch": 33, "duration": 478, "velocity": 100}, {"time": 216242, "pitch": 33, "duration": 160, "velocity": 95}, {"time": 216481, "pitch": 33, "duration": 479, "velocity": 100}, {"time": 217199, "pitch": 33, "duration": 159, "velocity": 95}, {"time": 217438, "pitch": 33, "duration": 479, "velocity": 100}, {"time": 218156, "pitch": 33, "duration": 159, "velocity": 95}, {"time": 218395, "pitch": 33, "duration": 163, "velocity": 100}, {"time": 218640, "pitch": 36, "duration": 484, "velocity": 110}, {"time": 219363, "pitch": 38, "duration": 478, "velocity": 100}, {"time": 220081, "pitch": 38, "duration": 159, "velocity": 95}, {"time": 220320, "pitch": 38, "duration": 478, "velocity": 100}, {"time": 221037, "pitch": 38, "duration": 160, "velocity": 95}, {"time": 221277, "pitch": 38, "duration": 478, "velocity": 100}, {"time": 222000, "pitch": 38, "duration": 163, "velocity": 95}, {"time": 222245, "pitch": 38, "duration": 478, "velocity": 100}, {"time": 222962, "pitch": 38, "duration": 160, "velocity": 95}, {"time": 223201, "pitch": 40, "duration": 479, "velocity": 100}, {"time": 223919, "pitch": 40, "duration": 159, "velocity": 95}, {"time": 224158, "pitch": 40, "duration": 479, "velocity": 100}, {"time": 224876, "pitch": 40, "duration": 159, "velocity": 95}, {"time": 225115, "pitch": 40, "duration": 490, "velocity": 100}, {"time": 225844, "pitch": 40, "duration": 159, "velocity": 95}, {"time": 226083, "pitch": 40, "duration": 478, "velocity": 100}, {"time": 226801, "pitch": 40, "duration": 159, "velocity": 95}, {"time": 227040, "pitch": 41, "duration": 478, "velocity": 100}, {"time": 227757, "pitch": 41, "duration": 160, "velocity": 95}, {"time": 227997, "pitch": 41, "duration": 478, "velocity": 100}, {"time": 228720, "pitch": 41, "duration": 163, "velocity": 95}, {"time": 228965, "pitch": 41, "duration": 478, "velocity": 100}, {"time": 229682, "pitch": 41, "duration": 160, "velocity": 95}, {"time": 229921, "pitch": 41, "duration": 479, "velocity": 100}, {"time": 230639, "pitch": 41, "duration": 159, "velocity": 95}, {"time": 230878, "pitch": 43, "duration": 479, "velocity": 100}, {"time": 231596, "pitch": 43, "duration": 159, "velocity": 95}, {"time": 231835, "pitch": 43, "duration": 490, "velocity": 100}, {"time": 232564, "pitch": 43, "duration": 159, "velocity": 95}, {"time": 232803, "pitch": 43, "duration": 219, "velocity": 100}, {"time": 233042, "pitch": 43, "duration": 219, "velocity": 95}, {"time": 233281, "pitch": 43, "duration": 220, "velocity": 100}, {"time": 233521, "pitch": 43, "duration": 219, "velocity": 95}, {"time": 233760, "pitch": 43, "duration": 219, "velocity": 100}, {"time": 233999, "pitch": 43, "duration": 219, "velocity": 95}, {"time": 234238, "pitch": 43, "duration": 219, "velocity": 100}, {"time": 234477, "pitch": 43, "duration": 220, "velocity": 95}, {"time": 234717, "pitch": 41, "duration": 478, "velocity": 100}, {"time": 235440, "pitch": 41, "duration": 163, "velocity": 95}, {"time": 235685, "pitch": 41, "duration": 458, "velocity": 95}, {"time": 236163, "pitch": 36, "duration": 478, "velocity": 100}, {"time": 236641, "pitch": 40, "duration": 479, "velocity": 100}, {"time": 237359, "pitch": 40, "duration": 159, "velocity": 95}, {"time": 237598, "pitch": 40, "duration": 459, "velocity": 95}, {"time": 238077, "pitch": 35, "duration": 478, "velocity": 100}, {"time": 238555, "pitch": 33, "duration": 490, "velocity": 100}, {"time": 239284, "pitch": 33, "duration": 159, "velocity": 95}, {"time": 239523, "pitch": 33, "duration": 478, "velocity": 100}, {"time": 240241, "pitch": 33, "duration": 159, "velocity": 95}, {"time": 240480, "pitch": 36, "duration": 478, "velocity": 100}, {"time": 241197, "pitch": 36, "duration": 160, "velocity": 95}, {"time": 241437, "pitch": 36, "duration": 478, "velocity": 100}, {"time": 242160, "pitch": 36, "duration": 163, "velocity": 95}, {"time": 242405, "pitch": 41, "duration": 478, "velocity": 100}, {"time": 243122, "pitch": 41, "duration": 160, "velocity": 95}, {"time": 243361, "pitch": 41, "duration": 459, "velocity": 95}, {"time": 243840, "pitch": 36, "duration": 478, "velocity": 100}, {"time": 244318, "pitch": 40, "duration": 479, "velocity": 100}, {"time": 245036, "pitch": 40, "duration": 159, "velocity": 95}, {"time": 245275, "pitch": 40, "duration": 469, "velocity": 95}, {"time": 245765, "pitch": 35, "duration": 478, "velocity": 100}, {"time": 246243, "pitch": 33, "duration": 478, "velocity": 100}, {"time": 246961, "pitch": 33, "duration": 159, "velocity": 95}, {"time": 247200, "pitch": 33, "duration": 478, "velocity": 100}, {"time": 247917, "pitch": 33, "duration": 160, "velocity": 95}, {"time": 248157, "pitch": 36, "duration": 478, "velocity": 100}, {"time": 248880, "pitch": 36, "duration": 163, "velocity": 95}, {"time": 249125, "pitch": 36, "duration": 478, "velocity": 100}, {"time": 249842, "pitch": 36, "duration": 160, "velocity": 95}, {"time": 250081, "pitch": 41, "duration": 479, "velocity": 100}, {"time": 250799, "pitch": 41, "duration": 159, "velocity": 95}, {"time": 251038, "pitch": 41, "duration": 459, "velocity": 95}, {"time": 251517, "pitch": 36, "duration": 478, "velocity": 100}, {"time": 251995, "pitch": 40, "duration": 490, "velocity": 100}, {"time": 252724, "pitch": 40, "duration": 159, "velocity": 95}, {"time": 252963, "pitch": 40, "duration": 458, "velocity": 95}, {"time": 253441, "pitch": 35, "duration": 479, "velocity": 100}, {"time": 253920, "pitch": 33, "duration": 478, "velocity": 100}, {"time": 254637, "pitch": 33, "duration": 160, "velocity": 95}, {"time": 254877, "pitch": 33, "duration": 478, "velocity": 100}, {"time": 255600, "pitch": 33, "duration": 163, "velocity": 95}, {"time": 255845, "pitch": 33, "duration": 478, "velocity": 100}, {"time": 256562, "pitch": 33, "duration": 160, "velocity": 95}, {"time": 256801, "pitch": 33, "duration": 479, "velocity": 100}, {"time": 257519, "pitch": 33, "duration": 159, "velocity": 95}, {"time": 257758, "pitch": 38, "duration": 479, "velocity": 100}, {"time": 258476, "pitch": 38, "duration": 159, "velocity": 95}, {"time": 258715, "pitch": 38, "duration": 490, "velocity": 100}, {"time": 259444, "pitch": 38, "duration": 159, "velocity": 95}, {"time": 259683, "pitch": 38, "duration": 478, "velocity": 100}, {"time": 260401, "pitch": 38, "duration": 159, "velocity": 95}, {"time": 260640, "pitch": 38, "duration": 478, "velocity": 100}, {"time": 261357, "pitch": 38, "duration": 160, "velocity": 95}, {"time": 261597, "pitch": 31, "duration": 478, "velocity": 100}, {"time": 262320, "pitch": 31, "duration": 163, "velocity": 95}, {"time": 262565, "pitch": 31, "duration": 478, "velocity": 100}, {"time": 263282, "pitch": 31, "duration": 160, "velocity": 95}, {"time": 263521, "pitch": 31, "duration": 479, "velocity": 100}, {"time": 264239, "pitch": 31, "duration": 159, "velocity": 95}, {"time": 264478, "pitch": 31, "duration": 479, "velocity": 100}, {"time": 265196, "pitch": 31, "duration": 159, "velocity": 95}, {"time": 265435, "pitch": 36, "duration": 490, "velocity": 100}, {"time": 266164, "pitch": 36, "duration": 159, "velocity": 95}, {"time": 266403, "pitch": 36, "duration": 478, "velocity": 100}, {"time": 267121, "pitch": 36, "duration": 159, "velocity": 95}, {"time": 267360, "pitch": 36, "duration": 478, "velocity": 100}, {"time": 268077, "pitch": 36, "duration": 160, "velocity": 95}, {"time": 268317, "pitch": 36, "duration": 159, "velocity": 95}, {"time": 268795, "pitch": 31, "duration": 469, "velocity": 100}, {"time": 269285, "pitch": 36, "duration": 466, "velocity": 100}, {"time": 269996, "pitch": 36, "duration": 164, "velocity": 95}, {"time": 270241, "pitch": 36, "duration": 490, "velocity": 100}, {"time": 270970, "pitch": 36, "duration": 159, "velocity": 95}, {"time": 271209, "pitch": 36, "duration": 479, "velocity": 100}, {"time": 271927, "pitch": 36, "duration": 160, "velocity": 95}, {"time": 272167, "pitch": 36, "duration": 159, "velocity": 95}, {"time": 272644, "pitch": 31, "duration": 459, "velocity": 100}, {"time": 273123, "pitch": 36, "duration": 478, "velocity": 100}, {"time": 273841, "pitch": 36, "duration": 159, "velocity": 95}, {"time": 274080, "pitch": 36, "duration": 489, "velocity": 100}, {"time": 274808, "pitch": 36, "duration": 160, "velocity": 95}, {"time": 275047, "pitch": 36, "duration": 480, "velocity": 100}, {"time": 275766, "pitch": 36, "duration": 159, "velocity": 95}, {"time": 276005, "pitch": 36, "duration": 159, "velocity": 95}, {"time": 276486, "pitch": 31, "duration": 919, "velocity": 100}, {"time": 277444, "pitch": 36, "duration": 7934, "velocity": 100}], "annotations": [{"time": 297, "annotation": {"number": 7, "value": 120}, "group": "control_change"}, {"time": 320, "annotation": {"number": 10, "value": 64}, "group": "control_change"}, {"time": 343, "annotation": {"number": 11, "value": 100}, "group": "control_change"}, {"time": 366, "annotation": {"number": 91, "value": 5}, "group": "control_change"}, {"time": 389, "annotation": {"number": 93, "value": 0}, "group": "control_change"}, {"time": 411, "annotation": {"number": 101, "value": 0}, "group": "control_change"}, {"time": 434, "annotation": {"number": 100, "value": 0}, "group": "control_change"}, {"time": 457, "annotation": {"number": 6, "value": 12}, "group": "control_change"}, {"time": 480, "annotation": {"number": 1, "value": 0}, "group": "control_change"}, {"time": 485, "annotation": {"number": 64, "value": 0}, "group": "control_change"}]}, {"program": 0, "is_drum": false, "name": "E.Guitar Sub", "annotations": [{"time": 229, "annotation": {"number": 0, "value": 0}, "group": "control_change"}, {"time": 251, "annotation": {"number": 32, "value": 2}, "group": "control_change"}]}, {"program": 29, "is_drum": false, "name": "E.Guitar Sub", "notes": [{"time": 12000, "pitch": 48, "duration": 199, "velocity": 95}, {"time": 12000, "pitch": 52, "duration": 199, "velocity": 90}, {"time": 12000, "pitch": 55, "duration": 199, "velocity": 95}, {"time": 12000, "pitch": 59, "duration": 199, "velocity": 100}, {"time": 12478, "pitch": 48, "duration": 459, "velocity": 95}, {"time": 12478, "pitch": 52, "duration": 459, "velocity": 90}, {"time": 12478, "pitch": 55, "duration": 459, "velocity": 95}, {"time": 12478, "pitch": 59, "duration": 459, "velocity": 100}, {"time": 13196, "pitch": 48, "duration": 199, "velocity": 95}, {"time": 13196, "pitch": 52, "duration": 199, "velocity": 90}, {"time": 13196, "pitch": 55, "duration": 199, "velocity": 95}, {"time": 13196, "pitch": 59, "duration": 199, "velocity": 100}, {"time": 13680, "pitch": 48, "duration": 204, "velocity": 95}, {"time": 13680, "pitch": 52, "duration": 204, "velocity": 90}, {"time": 13680, "pitch": 55, "duration": 204, "velocity": 95}, {"time": 13680, "pitch": 59, "duration": 204, "velocity": 100}, {"time": 14164, "pitch": 48, "duration": 199, "velocity": 95}, {"time": 14164, "pitch": 52, "duration": 199, "velocity": 90}, {"time": 14164, "pitch": 55, "duration": 199, "velocity": 95}, {"time": 14164, "pitch": 59, "duration": 199, "velocity": 100}, {"time": 14882, "pitch": 48, "duration": 199, "velocity": 95}, {"time": 14882, "pitch": 52, "duration": 199, "velocity": 90}, {"time": 14882, "pitch": 55, "duration": 199, "velocity": 95}, {"time": 14882, "pitch": 59, "duration": 199, "velocity": 100}, {"time": 15360, "pitch": 48, "duration": 458, "velocity": 95}, {"time": 15360, "pitch": 55, "duration": 458, "velocity": 90}, {"time": 15360, "pitch": 59, "duration": 458, "velocity": 95}, {"time": 15360, "pitch": 64, "duration": 458, "velocity": 100}, {"time": 15838, "pitch": 47, "duration": 200, "velocity": 95}, {"time": 15838, "pitch": 50, "duration": 200, "velocity": 90}, {"time": 15838, "pitch": 53, "duration": 200, "velocity": 95}, {"time": 15838, "pitch": 57, "duration": 200, "velocity": 100}, {"time": 16317, "pitch": 47, "duration": 458, "velocity": 95}, {"time": 16317, "pitch": 50, "duration": 458, "velocity": 90}, {"time": 16317, "pitch": 53, "duration": 458, "velocity": 95}, {"time": 16317, "pitch": 57, "duration": 458, "velocity": 100}, {"time": 17040, "pitch": 47, "duration": 204, "velocity": 95}, {"time": 17040, "pitch": 50, "duration": 204, "velocity": 90}, {"time": 17040, "pitch": 53, "duration": 204, "velocity": 95}, {"time": 17040, "pitch": 57, "duration": 204, "velocity": 100}, {"time": 17524, "pitch": 47, "duration": 199, "velocity": 95}, {"time": 17524, "pitch": 50, "duration": 199, "velocity": 90}, {"time": 17524, "pitch": 53, "duration": 199, "velocity": 95}, {"time": 17524, "pitch": 57, "duration": 199, "velocity": 100}, {"time": 18002, "pitch": 47, "duration": 200, "velocity": 95}, {"time": 18002, "pitch": 50, "duration": 200, "velocity": 90}, {"time": 18002, "pitch": 56, "duration": 200, "velocity": 95}, {"time": 18002, "pitch": 59, "duration": 200, "velocity": 100}, {"time": 18720, "pitch": 47, "duration": 199, "velocity": 95}, {"time": 18720, "pitch": 50, "duration": 199, "velocity": 90}, {"time": 18720, "pitch": 56, "duration": 199, "velocity": 95}, {"time": 18720, "pitch": 59, "duration": 199, "velocity": 100}, {"time": 19198, "pitch": 47, "duration": 459, "velocity": 95}, {"time": 19198, "pitch": 56, "duration": 459, "velocity": 90}, {"time": 19198, "pitch": 59, "duration": 459, "velocity": 95}, {"time": 19198, "pitch": 62, "duration": 459, "velocity": 100}, {"time": 19677, "pitch": 45, "duration": 199, "velocity": 95}, {"time": 19677, "pitch": 52, "duration": 199, "velocity": 90}, {"time": 19677, "pitch": 55, "duration": 199, "velocity": 95}, {"time": 19677, "pitch": 60, "duration": 199, "velocity": 100}, {"time": 20155, "pitch": 45, "duration": 469, "velocity": 95}, {"time": 20155, "pitch": 52, "duration": 469, "velocity": 90}, {"time": 20155, "pitch": 55, "duration": 469, "velocity": 95}, {"time": 20155, "pitch": 60, "duration": 469, "velocity": 100}, {"time": 20884, "pitch": 45, "duration": 199, "velocity": 95}, {"time": 20884, "pitch": 52, "duration": 199, "velocity": 90}, {"time": 20884, "pitch": 55, "duration": 199, "velocity": 95}, {"time": 20884, "pitch": 60, "duration": 199, "velocity": 100}, {"time": 21362, "pitch": 45, "duration": 200, "velocity": 95}, {"time": 21362, "pitch": 52, "duration": 200, "velocity": 90}, {"time": 21362, "pitch": 55, "duration": 200, "velocity": 95}, {"time": 21362, "pitch": 60, "duration": 200, "velocity": 100}, {"time": 21841, "pitch": 45, "duration": 199, "velocity": 95}, {"time": 21841, "pitch": 52, "duration": 199, "velocity": 90}, {"time": 21841, "pitch": 55, "duration": 199, "velocity": 95}, {"time": 21841, "pitch": 60, "duration": 199, "velocity": 100}, {"time": 22558, "pitch": 45, "duration": 200, "velocity": 95}, {"time": 22558, "pitch": 52, "duration": 200, "velocity": 90}, {"time": 22558, "pitch": 55, "duration": 200, "velocity": 95}, {"time": 22558, "pitch": 60, "duration": 200, "velocity": 100}, {"time": 23037, "pitch": 51, "duration": 458, "velocity": 95}, {"time": 23037, "pitch": 56, "duration": 458, "velocity": 90}, {"time": 23037, "pitch": 59, "duration": 458, "velocity": 95}, {"time": 23037, "pitch": 63, "duration": 458, "velocity": 100}, {"time": 23515, "pitch": 46, "duration": 204, "velocity": 95}, {"time": 23515, "pitch": 50, "duration": 204, "velocity": 90}, {"time": 23515, "pitch": 55, "duration": 204, "velocity": 95}, {"time": 23515, "pitch": 58, "duration": 204, "velocity": 100}, {"time": 24005, "pitch": 46, "duration": 458, "velocity": 95}, {"time": 24005, "pitch": 50, "duration": 458, "velocity": 90}, {"time": 24005, "pitch": 55, "duration": 458, "velocity": 95}, {"time": 24005, "pitch": 58, "duration": 458, "velocity": 100}, {"time": 24722, "pitch": 46, "duration": 200, "velocity": 95}, {"time": 24722, "pitch": 50, "duration": 200, "velocity": 90}, {"time": 24722, "pitch": 55, "duration": 200, "velocity": 95}, {"time": 24722, "pitch": 58, "duration": 200, "velocity": 100}, {"time": 25201, "pitch": 46, "duration": 199, "velocity": 95}, {"time": 25201, "pitch": 50, "duration": 199, "velocity": 90}, {"time": 25201, "pitch": 55, "duration": 199, "velocity": 95}, {"time": 25201, "pitch": 58, "duration": 199, "velocity": 100}, {"time": 25679, "pitch": 48, "duration": 200, "velocity": 95}, {"time": 25679, "pitch": 55, "duration": 200, "velocity": 90}, {"time": 25679, "pitch": 58, "duration": 200, "velocity": 95}, {"time": 25679, "pitch": 64, "duration": 200, "velocity": 100}, {"time": 26397, "pitch": 48, "duration": 199, "velocity": 95}, {"time": 26397, "pitch": 55, "duration": 199, "velocity": 90}, {"time": 26397, "pitch": 58, "duration": 199, "velocity": 95}, {"time": 26397, "pitch": 64, "duration": 199, "velocity": 100}, {"time": 26875, "pitch": 48, "duration": 469, "velocity": 95}, {"time": 26875, "pitch": 55, "duration": 469, "velocity": 90}, {"time": 26875, "pitch": 58, "duration": 469, "velocity": 95}, {"time": 26875, "pitch": 64, "duration": 469, "velocity": 100}, {"time": 27365, "pitch": 45, "duration": 199, "velocity": 95}, {"time": 27365, "pitch": 50, "duration": 199, "velocity": 90}, {"time": 27365, "pitch": 57, "duration": 199, "velocity": 95}, {"time": 27365, "pitch": 60, "duration": 199, "velocity": 100}, {"time": 27843, "pitch": 45, "duration": 459, "velocity": 95}, {"time": 27843, "pitch": 50, "duration": 459, "velocity": 90}, {"time": 27843, "pitch": 57, "duration": 459, "velocity": 95}, {"time": 27843, "pitch": 60, "duration": 459, "velocity": 100}, {"time": 28561, "pitch": 45, "duration": 199, "velocity": 95}, {"time": 28561, "pitch": 50, "duration": 199, "velocity": 90}, {"time": 28561, "pitch": 57, "duration": 199, "velocity": 95}, {"time": 28561, "pitch": 60, "duration": 199, "velocity": 100}, {"time": 29039, "pitch": 45, "duration": 200, "velocity": 95}, {"time": 29039, "pitch": 50, "duration": 200, "velocity": 90}, {"time": 29039, "pitch": 57, "duration": 200, "velocity": 95}, {"time": 29039, "pitch": 60, "duration": 200, "velocity": 100}, {"time": 29518, "pitch": 45, "duration": 199, "velocity": 95}, {"time": 29518, "pitch": 50, "duration": 199, "velocity": 90}, {"time": 29518, "pitch": 57, "duration": 199, "velocity": 95}, {"time": 29518, "pitch": 60, "duration": 199, "velocity": 100}, {"time": 29996, "pitch": 45, "duration": 80, "velocity": 95}, {"time": 29996, "pitch": 50, "duration": 80, "velocity": 90}, {"time": 29996, "pitch": 57, "duration": 80, "velocity": 95}, {"time": 29996, "pitch": 60, "duration": 80, "velocity": 100}, {"time": 30235, "pitch": 72, "duration": 245, "velocity": 110}, {"time": 30480, "pitch": 69, "duration": 245, "velocity": 105}, {"time": 30725, "pitch": 65, "duration": 239, "velocity": 100}, {"time": 31203, "pitch": 50, "duration": 199, "velocity": 95}, {"time": 31203, "pitch": 55, "duration": 199, "velocity": 90}, {"time": 31203, "pitch": 59, "duration": 199, "velocity": 95}, {"time": 31203, "pitch": 65, "duration": 199, "velocity": 100}, {"time": 31682, "pitch": 50, "duration": 458, "velocity": 95}, {"time": 31682, "pitch": 55, "duration": 458, "velocity": 90}, {"time": 31682, "pitch": 59, "duration": 458, "velocity": 95}, {"time": 31682, "pitch": 65, "duration": 458, "velocity": 100}, {"time": 32399, "pitch": 50, "duration": 200, "velocity": 95}, {"time": 32399, "pitch": 55, "duration": 200, "velocity": 90}, {"time": 32399, "pitch": 59, "duration": 200, "velocity": 95}, {"time": 32399, "pitch": 65, "duration": 200, "velocity": 100}, {"time": 32878, "pitch": 50, "duration": 199, "velocity": 95}, {"time": 32878, "pitch": 55, "duration": 199, "velocity": 90}, {"time": 32878, "pitch": 59, "duration": 199, "velocity": 95}, {"time": 32878, "pitch": 65, "duration": 199, "velocity": 100}, {"time": 33356, "pitch": 50, "duration": 199, "velocity": 95}, {"time": 33356, "pitch": 55, "duration": 199, "velocity": 90}, {"time": 33356, "pitch": 59, "duration": 199, "velocity": 95}, {"time": 33356, "pitch": 65, "duration": 199, "velocity": 100}, {"time": 34085, "pitch": 50, "duration": 199, "velocity": 95}, {"time": 34085, "pitch": 55, "duration": 199, "velocity": 90}, {"time": 34085, "pitch": 59, "duration": 199, "velocity": 95}, {"time": 34085, "pitch": 65, "duration": 199, "velocity": 100}, {"time": 34563, "pitch": 50, "duration": 459, "velocity": 95}, {"time": 34563, "pitch": 55, "duration": 459, "velocity": 90}, {"time": 34563, "pitch": 59, "duration": 459, "velocity": 95}, {"time": 34563, "pitch": 65, "duration": 459, "velocity": 100}, {"time": 35042, "pitch": 48, "duration": 199, "velocity": 95}, {"time": 35042, "pitch": 55, "duration": 199, "velocity": 90}, {"time": 35042, "pitch": 59, "duration": 199, "velocity": 95}, {"time": 35042, "pitch": 64, "duration": 199, "velocity": 100}, {"time": 35520, "pitch": 48, "duration": 458, "velocity": 95}, {"time": 35520, "pitch": 55, "duration": 458, "velocity": 90}, {"time": 35520, "pitch": 59, "duration": 458, "velocity": 95}, {"time": 35520, "pitch": 64, "duration": 458, "velocity": 100}, {"time": 36238, "pitch": 48, "duration": 199, "velocity": 95}, {"time": 36238, "pitch": 55, "duration": 199, "velocity": 90}, {"time": 36238, "pitch": 59, "duration": 199, "velocity": 95}, {"time": 36238, "pitch": 64, "duration": 199, "velocity": 100}, {"time": 36716, "pitch": 48, "duration": 199, "velocity": 95}, {"time": 36716, "pitch": 55, "duration": 199, "velocity": 90}, {"time": 36716, "pitch": 59, "duration": 199, "velocity": 95}, {"time": 36716, "pitch": 64, "duration": 199, "velocity": 100}, {"time": 37200, "pitch": 48, "duration": 204, "velocity": 95}, {"time": 37200, "pitch": 55, "duration": 204, "velocity": 90}, {"time": 37200, "pitch": 59, "duration": 204, "velocity": 95}, {"time": 37200, "pitch": 64, "duration": 204, "velocity": 100}, {"time": 37923, "pitch": 48, "duration": 199, "velocity": 95}, {"time": 37923, "pitch": 55, "duration": 199, "velocity": 90}, {"time": 37923, "pitch": 59, "duration": 199, "velocity": 95}, {"time": 37923, "pitch": 64, "duration": 199, "velocity": 100}, {"time": 38402, "pitch": 48, "duration": 458, "velocity": 95}, {"time": 38402, "pitch": 55, "duration": 458, "velocity": 90}, {"time": 38402, "pitch": 59, "duration": 458, "velocity": 95}, {"time": 38402, "pitch": 64, "duration": 458, "velocity": 100}, {"time": 38880, "pitch": 48, "duration": 199, "velocity": 95}, {"time": 38880, "pitch": 55, "duration": 199, "velocity": 90}, {"time": 38880, "pitch": 59, "duration": 199, "velocity": 95}, {"time": 38880, "pitch": 64, "duration": 199, "velocity": 100}, {"time": 39358, "pitch": 48, "duration": 459, "velocity": 95}, {"time": 39358, "pitch": 55, "duration": 459, "velocity": 90}, {"time": 39358, "pitch": 59, "duration": 459, "velocity": 95}, {"time": 39358, "pitch": 64, "duration": 459, "velocity": 100}, {"time": 40076, "pitch": 48, "duration": 199, "velocity": 95}, {"time": 40076, "pitch": 55, "duration": 199, "velocity": 90}, {"time": 40076, "pitch": 59, "duration": 199, "velocity": 95}, {"time": 40076, "pitch": 64, "duration": 199, "velocity": 100}, {"time": 40560, "pitch": 48, "duration": 204, "velocity": 95}, {"time": 40560, "pitch": 55, "duration": 204, "velocity": 90}, {"time": 40560, "pitch": 59, "duration": 204, "velocity": 95}, {"time": 40560, "pitch": 64, "duration": 204, "velocity": 100}, {"time": 41044, "pitch": 48, "duration": 199, "velocity": 95}, {"time": 41044, "pitch": 55, "duration": 199, "velocity": 90}, {"time": 41044, "pitch": 59, "duration": 199, "velocity": 95}, {"time": 41044, "pitch": 64, "duration": 199, "velocity": 100}, {"time": 41762, "pitch": 48, "duration": 199, "velocity": 95}, {"time": 41762, "pitch": 55, "duration": 199, "velocity": 90}, {"time": 41762, "pitch": 59, "duration": 199, "velocity": 95}, {"time": 41762, "pitch": 64, "duration": 199, "velocity": 100}, {"time": 42240, "pitch": 48, "duration": 458, "velocity": 95}, {"time": 42240, "pitch": 55, "duration": 458, "velocity": 90}, {"time": 42240, "pitch": 59, "duration": 458, "velocity": 95}, {"time": 42240, "pitch": 64, "duration": 458, "velocity": 100}, {"time": 42718, "pitch": 48, "duration": 200, "velocity": 95}, {"time": 42718, "pitch": 52, "duration": 200, "velocity": 90}, {"time": 42718, "pitch": 55, "duration": 200, "velocity": 95}, {"time": 42718, "pitch": 59, "duration": 200, "velocity": 100}, {"time": 43197, "pitch": 48, "duration": 458, "velocity": 95}, {"time": 43197, "pitch": 52, "duration": 458, "velocity": 90}, {"time": 43197, "pitch": 55, "duration": 458, "velocity": 95}, {"time": 43197, "pitch": 59, "duration": 458, "velocity": 100}, {"time": 43920, "pitch": 48, "duration": 204, "velocity": 95}, {"time": 43920, "pitch": 52, "duration": 204, "velocity": 90}, {"time": 43920, "pitch": 55, "duration": 204, "velocity": 95}, {"time": 43920, "pitch": 59, "duration": 204, "velocity": 100}, {"time": 44404, "pitch": 48, "duration": 199, "velocity": 95}, {"time": 44404, "pitch": 52, "duration": 199, "velocity": 90}, {"time": 44404, "pitch": 55, "duration": 199, "velocity": 95}, {"time": 44404, "pitch": 59, "duration": 199, "velocity": 100}, {"time": 44882, "pitch": 48, "duration": 200, "velocity": 95}, {"time": 44882, "pitch": 52, "duration": 200, "velocity": 90}, {"time": 44882, "pitch": 55, "duration": 200, "velocity": 95}, {"time": 44882, "pitch": 59, "duration": 200, "velocity": 100}, {"time": 45600, "pitch": 48, "duration": 199, "velocity": 95}, {"time": 45600, "pitch": 52, "duration": 199, "velocity": 90}, {"time": 45600, "pitch": 55, "duration": 199, "velocity": 95}, {"time": 45600, "pitch": 59, "duration": 199, "velocity": 100}, {"time": 46078, "pitch": 48, "duration": 459, "velocity": 95}, {"time": 46078, "pitch": 55, "duration": 459, "velocity": 90}, {"time": 46078, "pitch": 59, "duration": 459, "velocity": 95}, {"time": 46078, "pitch": 64, "duration": 459, "velocity": 100}, {"time": 46557, "pitch": 47, "duration": 199, "velocity": 95}, {"time": 46557, "pitch": 50, "duration": 199, "velocity": 90}, {"time": 46557, "pitch": 53, "duration": 199, "velocity": 95}, {"time": 46557, "pitch": 57, "duration": 199, "velocity": 100}, {"time": 47035, "pitch": 47, "duration": 469, "velocity": 95}, {"time": 47035, "pitch": 50, "duration": 469, "velocity": 90}, {"time": 47035, "pitch": 53, "duration": 469, "velocity": 95}, {"time": 47035, "pitch": 57, "duration": 469, "velocity": 100}, {"time": 47764, "pitch": 47, "duration": 199, "velocity": 95}, {"time": 47764, "pitch": 50, "duration": 199, "velocity": 90}, {"time": 47764, "pitch": 53, "duration": 199, "velocity": 95}, {"time": 47764, "pitch": 57, "duration": 199, "velocity": 100}, {"time": 48242, "pitch": 47, "duration": 200, "velocity": 95}, {"time": 48242, "pitch": 50, "duration": 200, "velocity": 90}, {"time": 48242, "pitch": 53, "duration": 200, "velocity": 95}, {"time": 48242, "pitch": 57, "duration": 200, "velocity": 100}, {"time": 48721, "pitch": 47, "duration": 199, "velocity": 95}, {"time": 48721, "pitch": 50, "duration": 199, "velocity": 90}, {"time": 48721, "pitch": 56, "duration": 199, "velocity": 95}, {"time": 48721, "pitch": 59, "duration": 199, "velocity": 100}, {"time": 49438, "pitch": 47, "duration": 200, "velocity": 95}, {"time": 49438, "pitch": 50, "duration": 200, "velocity": 90}, {"time": 49438, "pitch": 56, "duration": 200, "velocity": 95}, {"time": 49438, "pitch": 59, "duration": 200, "velocity": 100}, {"time": 49917, "pitch": 47, "duration": 458, "velocity": 95}, {"time": 49917, "pitch": 56, "duration": 458, "velocity": 90}, {"time": 49917, "pitch": 59, "duration": 458, "velocity": 95}, {"time": 49917, "pitch": 62, "duration": 458, "velocity": 100}, {"time": 50395, "pitch": 45, "duration": 204, "velocity": 95}, {"time": 50395, "pitch": 52, "duration": 204, "velocity": 90}, {"time": 50395, "pitch": 55, "duration": 204, "velocity": 95}, {"time": 50395, "pitch": 60, "duration": 204, "velocity": 100}, {"time": 50885, "pitch": 45, "duration": 458, "velocity": 95}, {"time": 50885, "pitch": 52, "duration": 458, "velocity": 90}, {"time": 50885, "pitch": 55, "duration": 458, "velocity": 95}, {"time": 50885, "pitch": 60, "duration": 458, "velocity": 100}, {"time": 51602, "pitch": 45, "duration": 200, "velocity": 95}, {"time": 51602, "pitch": 52, "duration": 200, "velocity": 90}, {"time": 51602, "pitch": 55, "duration": 200, "velocity": 95}, {"time": 51602, "pitch": 60, "duration": 200, "velocity": 100}, {"time": 52081, "pitch": 45, "duration": 199, "velocity": 95}, {"time": 52081, "pitch": 52, "duration": 199, "velocity": 90}, {"time": 52081, "pitch": 55, "duration": 199, "velocity": 95}, {"time": 52081, "pitch": 60, "duration": 199, "velocity": 100}, {"time": 52559, "pitch": 45, "duration": 199, "velocity": 95}, {"time": 52559, "pitch": 52, "duration": 199, "velocity": 90}, {"time": 52559, "pitch": 55, "duration": 199, "velocity": 95}, {"time": 52559, "pitch": 60, "duration": 199, "velocity": 100}, {"time": 53277, "pitch": 45, "duration": 199, "velocity": 95}, {"time": 53277, "pitch": 52, "duration": 199, "velocity": 90}, {"time": 53277, "pitch": 55, "duration": 199, "velocity": 95}, {"time": 53277, "pitch": 60, "duration": 199, "velocity": 100}, {"time": 53755, "pitch": 51, "duration": 469, "velocity": 95}, {"time": 53755, "pitch": 56, "duration": 469, "velocity": 90}, {"time": 53755, "pitch": 59, "duration": 469, "velocity": 95}, {"time": 53755, "pitch": 63, "duration": 469, "velocity": 100}, {"time": 54245, "pitch": 46, "duration": 199, "velocity": 95}, {"time": 54245, "pitch": 50, "duration": 199, "velocity": 90}, {"time": 54245, "pitch": 55, "duration": 199, "velocity": 95}, {"time": 54245, "pitch": 58, "duration": 199, "velocity": 100}, {"time": 54723, "pitch": 46, "duration": 459, "velocity": 95}, {"time": 54723, "pitch": 50, "duration": 459, "velocity": 90}, {"time": 54723, "pitch": 55, "duration": 459, "velocity": 95}, {"time": 54723, "pitch": 58, "duration": 459, "velocity": 100}, {"time": 55441, "pitch": 46, "duration": 199, "velocity": 95}, {"time": 55441, "pitch": 50, "duration": 199, "velocity": 90}, {"time": 55441, "pitch": 55, "duration": 199, "velocity": 95}, {"time": 55441, "pitch": 58, "duration": 199, "velocity": 100}, {"time": 55919, "pitch": 46, "duration": 199, "velocity": 95}, {"time": 55919, "pitch": 50, "duration": 199, "velocity": 90}, {"time": 55919, "pitch": 55, "duration": 199, "velocity": 95}, {"time": 55919, "pitch": 58, "duration": 199, "velocity": 100}, {"time": 56398, "pitch": 48, "duration": 199, "velocity": 95}, {"time": 56398, "pitch": 55, "duration": 199, "velocity": 90}, {"time": 56398, "pitch": 58, "duration": 199, "velocity": 95}, {"time": 56398, "pitch": 64, "duration": 199, "velocity": 100}, {"time": 57115, "pitch": 48, "duration": 204, "velocity": 95}, {"time": 57115, "pitch": 55, "duration": 204, "velocity": 90}, {"time": 57115, "pitch": 58, "duration": 204, "velocity": 95}, {"time": 57115, "pitch": 64, "duration": 204, "velocity": 100}, {"time": 57605, "pitch": 48, "duration": 458, "velocity": 95}, {"time": 57605, "pitch": 55, "duration": 458, "velocity": 90}, {"time": 57605, "pitch": 58, "duration": 458, "velocity": 95}, {"time": 57605, "pitch": 64, "duration": 458, "velocity": 100}, {"time": 58083, "pitch": 45, "duration": 199, "velocity": 95}, {"time": 58083, "pitch": 50, "duration": 199, "velocity": 90}, {"time": 58083, "pitch": 57, "duration": 199, "velocity": 95}, {"time": 58083, "pitch": 60, "duration": 199, "velocity": 100}, {"time": 58562, "pitch": 45, "duration": 458, "velocity": 95}, {"time": 58562, "pitch": 50, "duration": 458, "velocity": 90}, {"time": 58562, "pitch": 57, "duration": 458, "velocity": 95}, {"time": 58562, "pitch": 60, "duration": 458, "velocity": 100}, {"time": 59279, "pitch": 45, "duration": 199, "velocity": 95}, {"time": 59279, "pitch": 50, "duration": 199, "velocity": 90}, {"time": 59279, "pitch": 57, "duration": 199, "velocity": 95}, {"time": 59279, "pitch": 60, "duration": 199, "velocity": 100}, {"time": 59758, "pitch": 45, "duration": 199, "velocity": 95}, {"time": 59758, "pitch": 50, "duration": 199, "velocity": 90}, {"time": 59758, "pitch": 57, "duration": 199, "velocity": 95}, {"time": 59758, "pitch": 60, "duration": 199, "velocity": 100}, {"time": 60236, "pitch": 45, "duration": 199, "velocity": 95}, {"time": 60236, "pitch": 50, "duration": 199, "velocity": 90}, {"time": 60236, "pitch": 57, "duration": 199, "velocity": 95}, {"time": 60236, "pitch": 60, "duration": 199, "velocity": 100}, {"time": 60720, "pitch": 45, "duration": 82, "velocity": 95}, {"time": 60720, "pitch": 50, "duration": 82, "velocity": 90}, {"time": 60720, "pitch": 57, "duration": 82, "velocity": 95}, {"time": 60720, "pitch": 60, "duration": 82, "velocity": 100}, {"time": 60965, "pitch": 72, "duration": 239, "velocity": 110}, {"time": 61204, "pitch": 69, "duration": 239, "velocity": 105}, {"time": 61443, "pitch": 65, "duration": 239, "velocity": 100}, {"time": 61922, "pitch": 50, "duration": 199, "velocity": 95}, {"time": 61922, "pitch": 55, "duration": 199, "velocity": 90}, {"time": 61922, "pitch": 59, "duration": 199, "velocity": 95}, {"time": 61922, "pitch": 65, "duration": 199, "velocity": 100}, {"time": 62400, "pitch": 50, "duration": 458, "velocity": 95}, {"time": 62400, "pitch": 55, "duration": 458, "velocity": 90}, {"time": 62400, "pitch": 59, "duration": 458, "velocity": 95}, {"time": 62400, "pitch": 65, "duration": 458, "velocity": 100}, {"time": 63118, "pitch": 50, "duration": 199, "velocity": 95}, {"time": 63118, "pitch": 55, "duration": 199, "velocity": 90}, {"time": 63118, "pitch": 59, "duration": 199, "velocity": 95}, {"time": 63118, "pitch": 65, "duration": 199, "velocity": 100}, {"time": 63596, "pitch": 50, "duration": 199, "velocity": 95}, {"time": 63596, "pitch": 55, "duration": 199, "velocity": 90}, {"time": 63596, "pitch": 59, "duration": 199, "velocity": 95}, {"time": 63596, "pitch": 65, "duration": 199, "velocity": 100}, {"time": 64080, "pitch": 50, "duration": 204, "velocity": 95}, {"time": 64080, "pitch": 55, "duration": 204, "velocity": 90}, {"time": 64080, "pitch": 59, "duration": 204, "velocity": 95}, {"time": 64080, "pitch": 65, "duration": 204, "velocity": 100}, {"time": 64803, "pitch": 50, "duration": 199, "velocity": 95}, {"time": 64803, "pitch": 55, "duration": 199, "velocity": 90}, {"time": 64803, "pitch": 59, "duration": 199, "velocity": 95}, {"time": 64803, "pitch": 65, "duration": 199, "velocity": 100}, {"time": 65282, "pitch": 50, "duration": 458, "velocity": 95}, {"time": 65282, "pitch": 55, "duration": 458, "velocity": 90}, {"time": 65282, "pitch": 59, "duration": 458, "velocity": 95}, {"time": 65282, "pitch": 65, "duration": 458, "velocity": 100}, {"time": 65760, "pitch": 48, "duration": 199, "velocity": 95}, {"time": 65760, "pitch": 55, "duration": 199, "velocity": 90}, {"time": 65760, "pitch": 59, "duration": 199, "velocity": 95}, {"time": 65760, "pitch": 64, "duration": 199, "velocity": 100}, {"time": 66238, "pitch": 48, "duration": 459, "velocity": 95}, {"time": 66238, "pitch": 55, "duration": 459, "velocity": 90}, {"time": 66238, "pitch": 59, "duration": 459, "velocity": 95}, {"time": 66238, "pitch": 64, "duration": 459, "velocity": 100}, {"time": 66956, "pitch": 48, "duration": 199, "velocity": 95}, {"time": 66956, "pitch": 55, "duration": 199, "velocity": 90}, {"time": 66956, "pitch": 59, "duration": 199, "velocity": 95}, {"time": 66956, "pitch": 64, "duration": 199, "velocity": 100}, {"time": 67440, "pitch": 48, "duration": 204, "velocity": 95}, {"time": 67440, "pitch": 55, "duration": 204, "velocity": 90}, {"time": 67440, "pitch": 59, "duration": 204, "velocity": 95}, {"time": 67440, "pitch": 64, "duration": 204, "velocity": 100}, {"time": 67924, "pitch": 48, "duration": 199, "velocity": 95}, {"time": 67924, "pitch": 55, "duration": 199, "velocity": 90}, {"time": 67924, "pitch": 59, "duration": 199, "velocity": 95}, {"time": 67924, "pitch": 64, "duration": 199, "velocity": 100}, {"time": 68642, "pitch": 48, "duration": 199, "velocity": 95}, {"time": 68642, "pitch": 55, "duration": 199, "velocity": 90}, {"time": 68642, "pitch": 59, "duration": 199, "velocity": 95}, {"time": 68642, "pitch": 64, "duration": 199, "velocity": 100}, {"time": 69120, "pitch": 48, "duration": 458, "velocity": 95}, {"time": 69120, "pitch": 55, "duration": 458, "velocity": 90}, {"time": 69120, "pitch": 59, "duration": 458, "velocity": 95}, {"time": 69120, "pitch": 64, "duration": 458, "velocity": 100}, {"time": 69598, "pitch": 48, "duration": 200, "velocity": 95}, {"time": 69598, "pitch": 55, "duration": 200, "velocity": 90}, {"time": 69598, "pitch": 59, "duration": 200, "velocity": 95}, {"time": 69598, "pitch": 64, "duration": 200, "velocity": 100}, {"time": 70077, "pitch": 48, "duration": 458, "velocity": 95}, {"time": 70077, "pitch": 55, "duration": 458, "velocity": 90}, {"time": 70077, "pitch": 59, "duration": 458, "velocity": 95}, {"time": 70077, "pitch": 64, "duration": 458, "velocity": 100}, {"time": 70800, "pitch": 48, "duration": 204, "velocity": 95}, {"time": 70800, "pitch": 55, "duration": 204, "velocity": 90}, {"time": 70800, "pitch": 59, "duration": 204, "velocity": 95}, {"time": 70800, "pitch": 64, "duration": 204, "velocity": 100}, {"time": 71284, "pitch": 48, "duration": 199, "velocity": 95}, {"time": 71284, "pitch": 55, "duration": 199, "velocity": 90}, {"time": 71284, "pitch": 59, "duration": 199, "velocity": 95}, {"time": 71284, "pitch": 64, "duration": 199, "velocity": 100}, {"time": 71762, "pitch": 48, "duration": 200, "velocity": 95}, {"time": 71762, "pitch": 55, "duration": 200, "velocity": 90}, {"time": 71762, "pitch": 59, "duration": 200, "velocity": 95}, {"time": 71762, "pitch": 64, "duration": 200, "velocity": 100}, {"time": 72480, "pitch": 48, "duration": 199, "velocity": 95}, {"time": 72480, "pitch": 55, "duration": 199, "velocity": 90}, {"time": 72480, "pitch": 59, "duration": 199, "velocity": 95}, {"time": 72480, "pitch": 64, "duration": 199, "velocity": 100}, {"time": 72958, "pitch": 48, "duration": 459, "velocity": 95}, {"time": 72958, "pitch": 55, "duration": 459, "velocity": 90}, {"time": 72958, "pitch": 59, "duration": 459, "velocity": 95}, {"time": 72958, "pitch": 64, "duration": 459, "velocity": 100}, {"time": 73437, "pitch": 47, "duration": 1905, "velocity": 90}, {"time": 73457, "pitch": 50, "duration": 1885, "velocity": 85}, {"time": 73477, "pitch": 57, "duration": 1865, "velocity": 90}, {"time": 73497, "pitch": 59, "duration": 1845, "velocity": 95}, {"time": 73516, "pitch": 65, "duration": 1826, "velocity": 100}, {"time": 75362, "pitch": 47, "duration": 1893, "velocity": 90}, {"time": 75381, "pitch": 50, "duration": 1874, "velocity": 85}, {"time": 75401, "pitch": 56, "duration": 1854, "velocity": 90}, {"time": 75421, "pitch": 59, "duration": 1834, "velocity": 95}, {"time": 75441, "pitch": 64, "duration": 1814, "velocity": 100}, {"time": 77275, "pitch": 45, "duration": 204, "velocity": 95}, {"time": 77275, "pitch": 52, "duration": 204, "velocity": 90}, {"time": 77275, "pitch": 55, "duration": 204, "velocity": 95}, {"time": 77275, "pitch": 60, "duration": 204, "velocity": 100}, {"time": 77765, "pitch": 45, "duration": 458, "velocity": 95}, {"time": 77765, "pitch": 52, "duration": 458, "velocity": 90}, {"time": 77765, "pitch": 55, "duration": 458, "velocity": 95}, {"time": 77765, "pitch": 60, "duration": 458, "velocity": 100}, {"time": 78482, "pitch": 45, "duration": 200, "velocity": 95}, {"time": 78482, "pitch": 52, "duration": 200, "velocity": 90}, {"time": 78482, "pitch": 55, "duration": 200, "velocity": 95}, {"time": 78482, "pitch": 60, "duration": 200, "velocity": 100}, {"time": 78961, "pitch": 45, "duration": 199, "velocity": 95}, {"time": 78961, "pitch": 52, "duration": 199, "velocity": 90}, {"time": 78961, "pitch": 55, "duration": 199, "velocity": 95}, {"time": 78961, "pitch": 60, "duration": 199, "velocity": 100}, {"time": 79439, "pitch": 45, "duration": 199, "velocity": 95}, {"time": 79439, "pitch": 52, "duration": 199, "velocity": 90}, {"time": 79439, "pitch": 55, "duration": 199, "velocity": 95}, {"time": 79439, "pitch": 60, "duration": 199, "velocity": 100}, {"time": 80157, "pitch": 45, "duration": 199, "velocity": 95}, {"time": 80157, "pitch": 52, "duration": 199, "velocity": 90}, {"time": 80157, "pitch": 55, "duration": 199, "velocity": 95}, {"time": 80157, "pitch": 60, "duration": 199, "velocity": 100}, {"time": 80635, "pitch": 45, "duration": 469, "velocity": 95}, {"time": 80635, "pitch": 52, "duration": 469, "velocity": 90}, {"time": 80635, "pitch": 55, "duration": 469, "velocity": 95}, {"time": 80635, "pitch": 60, "duration": 469, "velocity": 100}, {"time": 81125, "pitch": 47, "duration": 1893, "velocity": 90}, {"time": 81145, "pitch": 50, "duration": 1873, "velocity": 85}, {"time": 81165, "pitch": 57, "duration": 1853, "velocity": 90}, {"time": 81185, "pitch": 59, "duration": 1833, "velocity": 95}, {"time": 81204, "pitch": 65, "duration": 1814, "velocity": 100}, {"time": 83038, "pitch": 47, "duration": 1905, "velocity": 90}, {"time": 83058, "pitch": 50, "duration": 1885, "velocity": 85}, {"time": 83078, "pitch": 56, "duration": 1865, "velocity": 90}, {"time": 83098, "pitch": 59, "duration": 1845, "velocity": 95}, {"time": 83118, "pitch": 64, "duration": 1825, "velocity": 100}, {"time": 84963, "pitch": 45, "duration": 199, "velocity": 95}, {"time": 84963, "pitch": 52, "duration": 199, "velocity": 90}, {"time": 84963, "pitch": 55, "duration": 199, "velocity": 95}, {"time": 84963, "pitch": 60, "duration": 199, "velocity": 100}, {"time": 85442, "pitch": 45, "duration": 458, "velocity": 95}, {"time": 85442, "pitch": 52, "duration": 458, "velocity": 90}, {"time": 85442, "pitch": 55, "duration": 458, "velocity": 95}, {"time": 85442, "pitch": 60, "duration": 458, "velocity": 100}, {"time": 86159, "pitch": 45, "duration": 199, "velocity": 95}, {"time": 86159, "pitch": 52, "duration": 199, "velocity": 90}, {"time": 86159, "pitch": 55, "duration": 199, "velocity": 95}, {"time": 86159, "pitch": 60, "duration": 199, "velocity": 100}, {"time": 86638, "pitch": 45, "duration": 199, "velocity": 95}, {"time": 86638, "pitch": 52, "duration": 199, "velocity": 90}, {"time": 86638, "pitch": 55, "duration": 199, "velocity": 95}, {"time": 86638, "pitch": 60, "duration": 199, "velocity": 100}, {"time": 87116, "pitch": 45, "duration": 199, "velocity": 95}, {"time": 87116, "pitch": 52, "duration": 199, "velocity": 90}, {"time": 87116, "pitch": 55, "duration": 199, "velocity": 95}, {"time": 87116, "pitch": 60, "duration": 199, "velocity": 100}, {"time": 87845, "pitch": 45, "duration": 199, "velocity": 95}, {"time": 87845, "pitch": 52, "duration": 199, "velocity": 90}, {"time": 87845, "pitch": 55, "duration": 199, "velocity": 95}, {"time": 87845, "pitch": 60, "duration": 199, "velocity": 100}, {"time": 88084, "pitch": 45, "duration": 698, "velocity": 95}, {"time": 88084, "pitch": 52, "duration": 698, "velocity": 90}, {"time": 88084, "pitch": 55, "duration": 698, "velocity": 95}, {"time": 88084, "pitch": 60, "duration": 698, "velocity": 100}, {"time": 88802, "pitch": 45, "duration": 199, "velocity": 95}, {"time": 88802, "pitch": 50, "duration": 199, "velocity": 90}, {"time": 88802, "pitch": 57, "duration": 199, "velocity": 95}, {"time": 88802, "pitch": 60, "duration": 199, "velocity": 100}, {"time": 89280, "pitch": 45, "duration": 458, "velocity": 95}, {"time": 89280, "pitch": 50, "duration": 458, "velocity": 90}, {"time": 89280, "pitch": 57, "duration": 458, "velocity": 95}, {"time": 89280, "pitch": 60, "duration": 458, "velocity": 100}, {"time": 89998, "pitch": 45, "duration": 199, "velocity": 95}, {"time": 89998, "pitch": 50, "duration": 199, "velocity": 90}, {"time": 89998, "pitch": 57, "duration": 199, "velocity": 95}, {"time": 89998, "pitch": 60, "duration": 199, "velocity": 100}, {"time": 90476, "pitch": 45, "duration": 199, "velocity": 95}, {"time": 90476, "pitch": 50, "duration": 199, "velocity": 90}, {"time": 90476, "pitch": 57, "duration": 199, "velocity": 95}, {"time": 90476, "pitch": 60, "duration": 199, "velocity": 100}, {"time": 90960, "pitch": 45, "duration": 204, "velocity": 95}, {"time": 90960, "pitch": 50, "duration": 204, "velocity": 90}, {"time": 90960, "pitch": 57, "duration": 204, "velocity": 95}, {"time": 90960, "pitch": 60, "duration": 204, "velocity": 100}, {"time": 91683, "pitch": 45, "duration": 199, "velocity": 95}, {"time": 91683, "pitch": 50, "duration": 199, "velocity": 90}, {"time": 91683, "pitch": 57, "duration": 199, "velocity": 95}, {"time": 91683, "pitch": 60, "duration": 199, "velocity": 100}, {"time": 92162, "pitch": 45, "duration": 458, "velocity": 95}, {"time": 92162, "pitch": 50, "duration": 458, "velocity": 90}, {"time": 92162, "pitch": 57, "duration": 458, "velocity": 95}, {"time": 92162, "pitch": 60, "duration": 458, "velocity": 100}, {"time": 92640, "pitch": 47, "duration": 199, "velocity": 95}, {"time": 92640, "pitch": 52, "duration": 199, "velocity": 90}, {"time": 92640, "pitch": 55, "duration": 199, "velocity": 95}, {"time": 92640, "pitch": 62, "duration": 199, "velocity": 100}, {"time": 93118, "pitch": 47, "duration": 459, "velocity": 95}, {"time": 93118, "pitch": 52, "duration": 459, "velocity": 90}, {"time": 93118, "pitch": 55, "duration": 459, "velocity": 95}, {"time": 93118, "pitch": 62, "duration": 459, "velocity": 100}, {"time": 93836, "pitch": 47, "duration": 199, "velocity": 95}, {"time": 93836, "pitch": 52, "duration": 199, "velocity": 90}, {"time": 93836, "pitch": 55, "duration": 199, "velocity": 95}, {"time": 93836, "pitch": 62, "duration": 199, "velocity": 100}, {"time": 94320, "pitch": 47, "duration": 204, "velocity": 95}, {"time": 94320, "pitch": 52, "duration": 204, "velocity": 90}, {"time": 94320, "pitch": 55, "duration": 204, "velocity": 95}, {"time": 94320, "pitch": 62, "duration": 204, "velocity": 100}, {"time": 94804, "pitch": 47, "duration": 199, "velocity": 95}, {"time": 94804, "pitch": 52, "duration": 199, "velocity": 90}, {"time": 94804, "pitch": 55, "duration": 199, "velocity": 95}, {"time": 94804, "pitch": 62, "duration": 199, "velocity": 100}, {"time": 95521, "pitch": 47, "duration": 200, "velocity": 95}, {"time": 95521, "pitch": 52, "duration": 200, "velocity": 90}, {"time": 95521, "pitch": 55, "duration": 200, "velocity": 95}, {"time": 95521, "pitch": 62, "duration": 200, "velocity": 100}, {"time": 96000, "pitch": 47, "duration": 458, "velocity": 95}, {"time": 96000, "pitch": 52, "duration": 458, "velocity": 90}, {"time": 96000, "pitch": 55, "duration": 458, "velocity": 95}, {"time": 96000, "pitch": 62, "duration": 458, "velocity": 100}, {"time": 96478, "pitch": 48, "duration": 200, "velocity": 95}, {"time": 96478, "pitch": 53, "duration": 200, "velocity": 90}, {"time": 96478, "pitch": 57, "duration": 200, "velocity": 95}, {"time": 96478, "pitch": 64, "duration": 200, "velocity": 100}, {"time": 96957, "pitch": 48, "duration": 458, "velocity": 95}, {"time": 96957, "pitch": 53, "duration": 458, "velocity": 90}, {"time": 96957, "pitch": 57, "duration": 458, "velocity": 95}, {"time": 96957, "pitch": 64, "duration": 458, "velocity": 100}, {"time": 97680, "pitch": 48, "duration": 204, "velocity": 95}, {"time": 97680, "pitch": 53, "duration": 204, "velocity": 90}, {"time": 97680, "pitch": 57, "duration": 204, "velocity": 95}, {"time": 97680, "pitch": 64, "duration": 204, "velocity": 100}, {"time": 98164, "pitch": 48, "duration": 199, "velocity": 95}, {"time": 98164, "pitch": 53, "duration": 199, "velocity": 90}, {"time": 98164, "pitch": 57, "duration": 199, "velocity": 95}, {"time": 98164, "pitch": 64, "duration": 199, "velocity": 100}, {"time": 98642, "pitch": 48, "duration": 200, "velocity": 95}, {"time": 98642, "pitch": 53, "duration": 200, "velocity": 90}, {"time": 98642, "pitch": 57, "duration": 200, "velocity": 95}, {"time": 98642, "pitch": 64, "duration": 200, "velocity": 100}, {"time": 99360, "pitch": 48, "duration": 199, "velocity": 95}, {"time": 99360, "pitch": 53, "duration": 199, "velocity": 90}, {"time": 99360, "pitch": 57, "duration": 199, "velocity": 95}, {"time": 99360, "pitch": 64, "duration": 199, "velocity": 100}, {"time": 99838, "pitch": 48, "duration": 459, "velocity": 95}, {"time": 99838, "pitch": 53, "duration": 459, "velocity": 90}, {"time": 99838, "pitch": 57, "duration": 459, "velocity": 95}, {"time": 99838, "pitch": 64, "duration": 459, "velocity": 100}, {"time": 100317, "pitch": 79, "duration": 239, "velocity": 100}, {"time": 100795, "pitch": 50, "duration": 709, "velocity": 95}, {"time": 100795, "pitch": 55, "duration": 709, "velocity": 90}, {"time": 100795, "pitch": 59, "duration": 709, "velocity": 95}, {"time": 100795, "pitch": 67, "duration": 709, "velocity": 100}, {"time": 101524, "pitch": 76, "duration": 199, "velocity": 100}, {"time": 102002, "pitch": 50, "duration": 2133, "velocity": 95}, {"time": 102002, "pitch": 55, "duration": 2133, "velocity": 90}, {"time": 102002, "pitch": 59, "duration": 2133, "velocity": 95}, {"time": 102002, "pitch": 62, "duration": 2133, "velocity": 100}, {"time": 104155, "pitch": 53, "duration": 204, "velocity": 95}, {"time": 104155, "pitch": 57, "duration": 204, "velocity": 90}, {"time": 104155, "pitch": 60, "duration": 204, "velocity": 95}, {"time": 104155, "pitch": 64, "duration": 204, "velocity": 100}, {"time": 104645, "pitch": 53, "duration": 458, "velocity": 95}, {"time": 104645, "pitch": 57, "duration": 458, "velocity": 90}, {"time": 104645, "pitch": 60, "duration": 458, "velocity": 95}, {"time": 104645, "pitch": 64, "duration": 458, "velocity": 100}, {"time": 105362, "pitch": 53, "duration": 200, "velocity": 95}, {"time": 105362, "pitch": 57, "duration": 200, "velocity": 90}, {"time": 105362, "pitch": 60, "duration": 200, "velocity": 95}, {"time": 105362, "pitch": 64, "duration": 200, "velocity": 100}, {"time": 105841, "pitch": 53, "duration": 199, "velocity": 95}, {"time": 105841, "pitch": 57, "duration": 199, "velocity": 90}, {"time": 105841, "pitch": 60, "duration": 199, "velocity": 95}, {"time": 105841, "pitch": 64, "duration": 199, "velocity": 100}, {"time": 106319, "pitch": 50, "duration": 199, "velocity": 95}, {"time": 106319, "pitch": 56, "duration": 199, "velocity": 90}, {"time": 106319, "pitch": 59, "duration": 199, "velocity": 95}, {"time": 106319, "pitch": 64, "duration": 199, "velocity": 100}, {"time": 107037, "pitch": 50, "duration": 199, "velocity": 95}, {"time": 107037, "pitch": 56, "duration": 199, "velocity": 90}, {"time": 107037, "pitch": 59, "duration": 199, "velocity": 95}, {"time": 107037, "pitch": 64, "duration": 199, "velocity": 100}, {"time": 107515, "pitch": 50, "duration": 469, "velocity": 95}, {"time": 107515, "pitch": 56, "duration": 469, "velocity": 90}, {"time": 107515, "pitch": 59, "duration": 469, "velocity": 95}, {"time": 107515, "pitch": 64, "duration": 469, "velocity": 100}, {"time": 108005, "pitch": 45, "duration": 199, "velocity": 95}, {"time": 108005, "pitch": 55, "duration": 199, "velocity": 90}, {"time": 108005, "pitch": 60, "duration": 199, "velocity": 95}, {"time": 108005, "pitch": 64, "duration": 199, "velocity": 100}, {"time": 108483, "pitch": 45, "duration": 459, "velocity": 95}, {"time": 108483, "pitch": 55, "duration": 459, "velocity": 90}, {"time": 108483, "pitch": 60, "duration": 459, "velocity": 95}, {"time": 108483, "pitch": 64, "duration": 459, "velocity": 100}, {"time": 109201, "pitch": 45, "duration": 199, "velocity": 95}, {"time": 109201, "pitch": 55, "duration": 199, "velocity": 90}, {"time": 109201, "pitch": 60, "duration": 199, "velocity": 95}, {"time": 109201, "pitch": 64, "duration": 199, "velocity": 100}, {"time": 109679, "pitch": 45, "duration": 199, "velocity": 95}, {"time": 109679, "pitch": 55, "duration": 199, "velocity": 90}, {"time": 109679, "pitch": 60, "duration": 199, "velocity": 95}, {"time": 109679, "pitch": 64, "duration": 199, "velocity": 100}, {"time": 110157, "pitch": 48, "duration": 200, "velocity": 95}, {"time": 110157, "pitch": 58, "duration": 200, "velocity": 90}, {"time": 110157, "pitch": 64, "duration": 200, "velocity": 95}, {"time": 110157, "pitch": 67, "duration": 200, "velocity": 100}, {"time": 110875, "pitch": 48, "duration": 204, "velocity": 95}, {"time": 110875, "pitch": 58, "duration": 204, "velocity": 90}, {"time": 110875, "pitch": 64, "duration": 204, "velocity": 95}, {"time": 110875, "pitch": 67, "duration": 204, "velocity": 100}, {"time": 111365, "pitch": 48, "duration": 458, "velocity": 95}, {"time": 111365, "pitch": 58, "duration": 458, "velocity": 90}, {"time": 111365, "pitch": 64, "duration": 458, "velocity": 95}, {"time": 111365, "pitch": 67, "duration": 458, "velocity": 100}, {"time": 111843, "pitch": 53, "duration": 199, "velocity": 95}, {"time": 111843, "pitch": 57, "duration": 199, "velocity": 90}, {"time": 111843, "pitch": 60, "duration": 199, "velocity": 95}, {"time": 111843, "pitch": 64, "duration": 199, "velocity": 100}, {"time": 112321, "pitch": 53, "duration": 459, "velocity": 95}, {"time": 112321, "pitch": 57, "duration": 459, "velocity": 90}, {"time": 112321, "pitch": 60, "duration": 459, "velocity": 95}, {"time": 112321, "pitch": 64, "duration": 459, "velocity": 100}, {"time": 113039, "pitch": 53, "duration": 199, "velocity": 95}, {"time": 113039, "pitch": 57, "duration": 199, "velocity": 90}, {"time": 113039, "pitch": 60, "duration": 199, "velocity": 95}, {"time": 113039, "pitch": 64, "duration": 199, "velocity": 100}, {"time": 113517, "pitch": 53, "duration": 200, "velocity": 95}, {"time": 113517, "pitch": 57, "duration": 200, "velocity": 90}, {"time": 113517, "pitch": 60, "duration": 200, "velocity": 95}, {"time": 113517, "pitch": 64, "duration": 200, "velocity": 100}, {"time": 113996, "pitch": 50, "duration": 199, "velocity": 95}, {"time": 113996, "pitch": 56, "duration": 199, "velocity": 90}, {"time": 113996, "pitch": 59, "duration": 199, "velocity": 95}, {"time": 113996, "pitch": 64, "duration": 199, "velocity": 100}, {"time": 114725, "pitch": 50, "duration": 199, "velocity": 95}, {"time": 114725, "pitch": 56, "duration": 199, "velocity": 90}, {"time": 114725, "pitch": 59, "duration": 199, "velocity": 95}, {"time": 114725, "pitch": 64, "duration": 199, "velocity": 100}, {"time": 115203, "pitch": 50, "duration": 459, "velocity": 95}, {"time": 115203, "pitch": 56, "duration": 459, "velocity": 90}, {"time": 115203, "pitch": 59, "duration": 459, "velocity": 95}, {"time": 115203, "pitch": 64, "duration": 459, "velocity": 100}, {"time": 115681, "pitch": 45, "duration": 200, "velocity": 95}, {"time": 115681, "pitch": 55, "duration": 200, "velocity": 90}, {"time": 115681, "pitch": 60, "duration": 200, "velocity": 95}, {"time": 115681, "pitch": 64, "duration": 200, "velocity": 100}, {"time": 116160, "pitch": 45, "duration": 458, "velocity": 95}, {"time": 116160, "pitch": 55, "duration": 458, "velocity": 90}, {"time": 116160, "pitch": 60, "duration": 458, "velocity": 95}, {"time": 116160, "pitch": 64, "duration": 458, "velocity": 100}, {"time": 116877, "pitch": 45, "duration": 200, "velocity": 95}, {"time": 116877, "pitch": 55, "duration": 200, "velocity": 90}, {"time": 116877, "pitch": 60, "duration": 200, "velocity": 95}, {"time": 116877, "pitch": 64, "duration": 200, "velocity": 100}, {"time": 117356, "pitch": 45, "duration": 199, "velocity": 95}, {"time": 117356, "pitch": 55, "duration": 199, "velocity": 90}, {"time": 117356, "pitch": 60, "duration": 199, "velocity": 95}, {"time": 117356, "pitch": 64, "duration": 199, "velocity": 100}, {"time": 117840, "pitch": 48, "duration": 204, "velocity": 95}, {"time": 117840, "pitch": 58, "duration": 204, "velocity": 90}, {"time": 117840, "pitch": 64, "duration": 204, "velocity": 95}, {"time": 117840, "pitch": 67, "duration": 204, "velocity": 100}, {"time": 118563, "pitch": 48, "duration": 199, "velocity": 95}, {"time": 118563, "pitch": 58, "duration": 199, "velocity": 90}, {"time": 118563, "pitch": 64, "duration": 199, "velocity": 95}, {"time": 118563, "pitch": 67, "duration": 199, "velocity": 100}, {"time": 119041, "pitch": 48, "duration": 459, "velocity": 95}, {"time": 119041, "pitch": 58, "duration": 459, "velocity": 90}, {"time": 119041, "pitch": 64, "duration": 459, "velocity": 95}, {"time": 119041, "pitch": 67, "duration": 459, "velocity": 100}, {"time": 119520, "pitch": 53, "duration": 199, "velocity": 95}, {"time": 119520, "pitch": 57, "duration": 199, "velocity": 90}, {"time": 119520, "pitch": 60, "duration": 199, "velocity": 95}, {"time": 119520, "pitch": 64, "duration": 199, "velocity": 100}, {"time": 119998, "pitch": 53, "duration": 459, "velocity": 95}, {"time": 119998, "pitch": 57, "duration": 459, "velocity": 90}, {"time": 119998, "pitch": 60, "duration": 459, "velocity": 95}, {"time": 119998, "pitch": 64, "duration": 459, "velocity": 100}, {"time": 120716, "pitch": 53, "duration": 199, "velocity": 95}, {"time": 120716, "pitch": 57, "duration": 199, "velocity": 90}, {"time": 120716, "pitch": 60, "duration": 199, "velocity": 95}, {"time": 120716, "pitch": 64, "duration": 199, "velocity": 100}, {"time": 121200, "pitch": 53, "duration": 204, "velocity": 95}, {"time": 121200, "pitch": 57, "duration": 204, "velocity": 90}, {"time": 121200, "pitch": 60, "duration": 204, "velocity": 95}, {"time": 121200, "pitch": 64, "duration": 204, "velocity": 100}, {"time": 121684, "pitch": 50, "duration": 199, "velocity": 95}, {"time": 121684, "pitch": 56, "duration": 199, "velocity": 90}, {"time": 121684, "pitch": 59, "duration": 199, "velocity": 95}, {"time": 121684, "pitch": 64, "duration": 199, "velocity": 100}, {"time": 122401, "pitch": 50, "duration": 200, "velocity": 95}, {"time": 122401, "pitch": 56, "duration": 200, "velocity": 90}, {"time": 122401, "pitch": 59, "duration": 200, "velocity": 95}, {"time": 122401, "pitch": 64, "duration": 200, "velocity": 100}, {"time": 122880, "pitch": 50, "duration": 458, "velocity": 95}, {"time": 122880, "pitch": 56, "duration": 458, "velocity": 90}, {"time": 122880, "pitch": 59, "duration": 458, "velocity": 95}, {"time": 122880, "pitch": 64, "duration": 458, "velocity": 100}, {"time": 123358, "pitch": 45, "duration": 200, "velocity": 95}, {"time": 123358, "pitch": 55, "duration": 200, "velocity": 90}, {"time": 123358, "pitch": 60, "duration": 200, "velocity": 95}, {"time": 123358, "pitch": 64, "duration": 200, "velocity": 100}, {"time": 123837, "pitch": 45, "duration": 458, "velocity": 95}, {"time": 123837, "pitch": 55, "duration": 458, "velocity": 90}, {"time": 123837, "pitch": 60, "duration": 458, "velocity": 95}, {"time": 123837, "pitch": 64, "duration": 458, "velocity": 100}, {"time": 124560, "pitch": 45, "duration": 204, "velocity": 95}, {"time": 124560, "pitch": 55, "duration": 204, "velocity": 90}, {"time": 124560, "pitch": 60, "duration": 204, "velocity": 95}, {"time": 124560, "pitch": 64, "duration": 204, "velocity": 100}, {"time": 125044, "pitch": 45, "duration": 199, "velocity": 95}, {"time": 125044, "pitch": 55, "duration": 199, "velocity": 90}, {"time": 125044, "pitch": 60, "duration": 199, "velocity": 95}, {"time": 125044, "pitch": 64, "duration": 199, "velocity": 100}, {"time": 125522, "pitch": 45, "duration": 200, "velocity": 95}, {"time": 125522, "pitch": 55, "duration": 200, "velocity": 90}, {"time": 125522, "pitch": 60, "duration": 200, "velocity": 95}, {"time": 125522, "pitch": 64, "duration": 200, "velocity": 100}, {"time": 126240, "pitch": 45, "duration": 199, "velocity": 95}, {"time": 126240, "pitch": 55, "duration": 199, "velocity": 90}, {"time": 126240, "pitch": 60, "duration": 199, "velocity": 95}, {"time": 126240, "pitch": 64, "duration": 199, "velocity": 100}, {"time": 126718, "pitch": 45, "duration": 459, "velocity": 95}, {"time": 126718, "pitch": 55, "duration": 459, "velocity": 90}, {"time": 126718, "pitch": 60, "duration": 459, "velocity": 95}, {"time": 126718, "pitch": 64, "duration": 459, "velocity": 100}, {"time": 127197, "pitch": 45, "duration": 1934, "velocity": 90}, {"time": 127237, "pitch": 50, "duration": 1894, "velocity": 85}, {"time": 127276, "pitch": 57, "duration": 1855, "velocity": 90}, {"time": 127316, "pitch": 60, "duration": 1815, "velocity": 95}, {"time": 127356, "pitch": 65, "duration": 1775, "velocity": 100}, {"time": 131035, "pitch": 47, "duration": 1935, "velocity": 90}, {"time": 131076, "pitch": 50, "duration": 1894, "velocity": 85}, {"time": 131117, "pitch": 55, "duration": 1853, "velocity": 90}, {"time": 131157, "pitch": 59, "duration": 1813, "velocity": 95}, {"time": 131198, "pitch": 65, "duration": 1772, "velocity": 100}, {"time": 134885, "pitch": 48, "duration": 199, "velocity": 95}, {"time": 134885, "pitch": 52, "duration": 199, "velocity": 90}, {"time": 134885, "pitch": 55, "duration": 199, "velocity": 95}, {"time": 134885, "pitch": 59, "duration": 199, "velocity": 100}, {"time": 135363, "pitch": 48, "duration": 459, "velocity": 95}, {"time": 135363, "pitch": 52, "duration": 459, "velocity": 90}, {"time": 135363, "pitch": 55, "duration": 459, "velocity": 95}, {"time": 135363, "pitch": 59, "duration": 459, "velocity": 100}, {"time": 136081, "pitch": 48, "duration": 199, "velocity": 95}, {"time": 136081, "pitch": 52, "duration": 199, "velocity": 90}, {"time": 136081, "pitch": 55, "duration": 199, "velocity": 95}, {"time": 136081, "pitch": 59, "duration": 199, "velocity": 100}, {"time": 136559, "pitch": 48, "duration": 199, "velocity": 95}, {"time": 136559, "pitch": 52, "duration": 199, "velocity": 90}, {"time": 136559, "pitch": 55, "duration": 199, "velocity": 95}, {"time": 136559, "pitch": 59, "duration": 199, "velocity": 100}, {"time": 137037, "pitch": 48, "duration": 200, "velocity": 95}, {"time": 137037, "pitch": 52, "duration": 200, "velocity": 90}, {"time": 137037, "pitch": 55, "duration": 200, "velocity": 95}, {"time": 137037, "pitch": 59, "duration": 200, "velocity": 100}, {"time": 137755, "pitch": 48, "duration": 204, "velocity": 95}, {"time": 137755, "pitch": 52, "duration": 204, "velocity": 90}, {"time": 137755, "pitch": 55, "duration": 204, "velocity": 95}, {"time": 137755, "pitch": 59, "duration": 204, "velocity": 100}, {"time": 138245, "pitch": 48, "duration": 458, "velocity": 95}, {"time": 138245, "pitch": 55, "duration": 458, "velocity": 90}, {"time": 138245, "pitch": 59, "duration": 458, "velocity": 95}, {"time": 138245, "pitch": 64, "duration": 458, "velocity": 100}, {"time": 138723, "pitch": 48, "duration": 199, "velocity": 95}, {"time": 138723, "pitch": 52, "duration": 199, "velocity": 90}, {"time": 138723, "pitch": 55, "duration": 199, "velocity": 95}, {"time": 138723, "pitch": 59, "duration": 199, "velocity": 100}, {"time": 139201, "pitch": 48, "duration": 459, "velocity": 95}, {"time": 139201, "pitch": 52, "duration": 459, "velocity": 90}, {"time": 139201, "pitch": 55, "duration": 459, "velocity": 95}, {"time": 139201, "pitch": 59, "duration": 459, "velocity": 100}, {"time": 139919, "pitch": 48, "duration": 199, "velocity": 95}, {"time": 139919, "pitch": 52, "duration": 199, "velocity": 90}, {"time": 139919, "pitch": 55, "duration": 199, "velocity": 95}, {"time": 139919, "pitch": 59, "duration": 199, "velocity": 100}, {"time": 140397, "pitch": 48, "duration": 200, "velocity": 95}, {"time": 140397, "pitch": 52, "duration": 200, "velocity": 90}, {"time": 140397, "pitch": 55, "duration": 200, "velocity": 95}, {"time": 140397, "pitch": 59, "duration": 200, "velocity": 100}, {"time": 140876, "pitch": 48, "duration": 199, "velocity": 95}, {"time": 140876, "pitch": 52, "duration": 199, "velocity": 90}, {"time": 140876, "pitch": 55, "duration": 199, "velocity": 95}, {"time": 140876, "pitch": 59, "duration": 199, "velocity": 100}, {"time": 141605, "pitch": 48, "duration": 199, "velocity": 95}, {"time": 141605, "pitch": 52, "duration": 199, "velocity": 90}, {"time": 141605, "pitch": 55, "duration": 199, "velocity": 95}, {"time": 141605, "pitch": 59, "duration": 199, "velocity": 100}, {"time": 142083, "pitch": 48, "duration": 459, "velocity": 95}, {"time": 142083, "pitch": 55, "duration": 459, "velocity": 90}, {"time": 142083, "pitch": 59, "duration": 459, "velocity": 95}, {"time": 142083, "pitch": 64, "duration": 459, "velocity": 100}, {"time": 142561, "pitch": 48, "duration": 200, "velocity": 95}, {"time": 142561, "pitch": 52, "duration": 200, "velocity": 90}, {"time": 142561, "pitch": 55, "duration": 200, "velocity": 95}, {"time": 142561, "pitch": 59, "duration": 200, "velocity": 100}, {"time": 143040, "pitch": 48, "duration": 458, "velocity": 95}, {"time": 143040, "pitch": 52, "duration": 458, "velocity": 90}, {"time": 143040, "pitch": 55, "duration": 458, "velocity": 95}, {"time": 143040, "pitch": 59, "duration": 458, "velocity": 100}, {"time": 143757, "pitch": 48, "duration": 200, "velocity": 95}, {"time": 143757, "pitch": 52, "duration": 200, "velocity": 90}, {"time": 143757, "pitch": 55, "duration": 200, "velocity": 95}, {"time": 143757, "pitch": 59, "duration": 200, "velocity": 100}, {"time": 144236, "pitch": 48, "duration": 199, "velocity": 95}, {"time": 144236, "pitch": 52, "duration": 199, "velocity": 90}, {"time": 144236, "pitch": 55, "duration": 199, "velocity": 95}, {"time": 144236, "pitch": 59, "duration": 199, "velocity": 100}, {"time": 144720, "pitch": 48, "duration": 204, "velocity": 95}, {"time": 144720, "pitch": 52, "duration": 204, "velocity": 90}, {"time": 144720, "pitch": 55, "duration": 204, "velocity": 95}, {"time": 144720, "pitch": 59, "duration": 204, "velocity": 100}, {"time": 145443, "pitch": 48, "duration": 199, "velocity": 95}, {"time": 145443, "pitch": 52, "duration": 199, "velocity": 90}, {"time": 145443, "pitch": 55, "duration": 199, "velocity": 95}, {"time": 145443, "pitch": 59, "duration": 199, "velocity": 100}, {"time": 145921, "pitch": 48, "duration": 459, "velocity": 95}, {"time": 145921, "pitch": 55, "duration": 459, "velocity": 90}, {"time": 145921, "pitch": 59, "duration": 459, "velocity": 95}, {"time": 145921, "pitch": 64, "duration": 459, "velocity": 100}, {"time": 146400, "pitch": 47, "duration": 199, "velocity": 95}, {"time": 146400, "pitch": 50, "duration": 199, "velocity": 90}, {"time": 146400, "pitch": 53, "duration": 199, "velocity": 95}, {"time": 146400, "pitch": 57, "duration": 199, "velocity": 100}, {"time": 146878, "pitch": 47, "duration": 459, "velocity": 95}, {"time": 146878, "pitch": 50, "duration": 459, "velocity": 90}, {"time": 146878, "pitch": 53, "duration": 459, "velocity": 95}, {"time": 146878, "pitch": 57, "duration": 459, "velocity": 100}, {"time": 147596, "pitch": 47, "duration": 199, "velocity": 95}, {"time": 147596, "pitch": 50, "duration": 199, "velocity": 90}, {"time": 147596, "pitch": 53, "duration": 199, "velocity": 95}, {"time": 147596, "pitch": 57, "duration": 199, "velocity": 100}, {"time": 148080, "pitch": 47, "duration": 204, "velocity": 95}, {"time": 148080, "pitch": 50, "duration": 204, "velocity": 90}, {"time": 148080, "pitch": 53, "duration": 204, "velocity": 95}, {"time": 148080, "pitch": 57, "duration": 204, "velocity": 100}, {"time": 148564, "pitch": 47, "duration": 199, "velocity": 95}, {"time": 148564, "pitch": 50, "duration": 199, "velocity": 90}, {"time": 148564, "pitch": 56, "duration": 199, "velocity": 95}, {"time": 148564, "pitch": 59, "duration": 199, "velocity": 100}, {"time": 149281, "pitch": 47, "duration": 200, "velocity": 95}, {"time": 149281, "pitch": 50, "duration": 200, "velocity": 90}, {"time": 149281, "pitch": 56, "duration": 200, "velocity": 95}, {"time": 149281, "pitch": 59, "duration": 200, "velocity": 100}, {"time": 149760, "pitch": 47, "duration": 458, "velocity": 95}, {"time": 149760, "pitch": 56, "duration": 458, "velocity": 90}, {"time": 149760, "pitch": 59, "duration": 458, "velocity": 95}, {"time": 149760, "pitch": 62, "duration": 458, "velocity": 100}, {"time": 150238, "pitch": 45, "duration": 200, "velocity": 95}, {"time": 150238, "pitch": 52, "duration": 200, "velocity": 90}, {"time": 150238, "pitch": 55, "duration": 200, "velocity": 95}, {"time": 150238, "pitch": 60, "duration": 200, "velocity": 100}, {"time": 150717, "pitch": 45, "duration": 458, "velocity": 95}, {"time": 150717, "pitch": 52, "duration": 458, "velocity": 90}, {"time": 150717, "pitch": 55, "duration": 458, "velocity": 95}, {"time": 150717, "pitch": 60, "duration": 458, "velocity": 100}, {"time": 151440, "pitch": 45, "duration": 204, "velocity": 95}, {"time": 151440, "pitch": 52, "duration": 204, "velocity": 90}, {"time": 151440, "pitch": 55, "duration": 204, "velocity": 95}, {"time": 151440, "pitch": 60, "duration": 204, "velocity": 100}, {"time": 151924, "pitch": 45, "duration": 199, "velocity": 95}, {"time": 151924, "pitch": 52, "duration": 199, "velocity": 90}, {"time": 151924, "pitch": 55, "duration": 199, "velocity": 95}, {"time": 151924, "pitch": 60, "duration": 199, "velocity": 100}, {"time": 152402, "pitch": 45, "duration": 200, "velocity": 95}, {"time": 152402, "pitch": 52, "duration": 200, "velocity": 90}, {"time": 152402, "pitch": 55, "duration": 200, "velocity": 95}, {"time": 152402, "pitch": 60, "duration": 200, "velocity": 100}, {"time": 153120, "pitch": 45, "duration": 199, "velocity": 95}, {"time": 153120, "pitch": 52, "duration": 199, "velocity": 90}, {"time": 153120, "pitch": 55, "duration": 199, "velocity": 95}, {"time": 153120, "pitch": 60, "duration": 199, "velocity": 100}, {"time": 153598, "pitch": 51, "duration": 459, "velocity": 95}, {"time": 153598, "pitch": 56, "duration": 459, "velocity": 90}, {"time": 153598, "pitch": 59, "duration": 459, "velocity": 95}, {"time": 153598, "pitch": 63, "duration": 459, "velocity": 100}, {"time": 154077, "pitch": 46, "duration": 199, "velocity": 95}, {"time": 154077, "pitch": 50, "duration": 199, "velocity": 90}, {"time": 154077, "pitch": 55, "duration": 199, "velocity": 95}, {"time": 154077, "pitch": 58, "duration": 199, "velocity": 100}, {"time": 154555, "pitch": 46, "duration": 469, "velocity": 95}, {"time": 154555, "pitch": 50, "duration": 469, "velocity": 90}, {"time": 154555, "pitch": 55, "duration": 469, "velocity": 95}, {"time": 154555, "pitch": 58, "duration": 469, "velocity": 100}, {"time": 155284, "pitch": 46, "duration": 199, "velocity": 95}, {"time": 155284, "pitch": 50, "duration": 199, "velocity": 90}, {"time": 155284, "pitch": 55, "duration": 199, "velocity": 95}, {"time": 155284, "pitch": 58, "duration": 199, "velocity": 100}, {"time": 155762, "pitch": 46, "duration": 200, "velocity": 95}, {"time": 155762, "pitch": 50, "duration": 200, "velocity": 90}, {"time": 155762, "pitch": 55, "duration": 200, "velocity": 95}, {"time": 155762, "pitch": 58, "duration": 200, "velocity": 100}, {"time": 156241, "pitch": 48, "duration": 199, "velocity": 95}, {"time": 156241, "pitch": 55, "duration": 199, "velocity": 90}, {"time": 156241, "pitch": 58, "duration": 199, "velocity": 95}, {"time": 156241, "pitch": 64, "duration": 199, "velocity": 100}, {"time": 156958, "pitch": 48, "duration": 200, "velocity": 95}, {"time": 156958, "pitch": 55, "duration": 200, "velocity": 90}, {"time": 156958, "pitch": 58, "duration": 200, "velocity": 95}, {"time": 156958, "pitch": 64, "duration": 200, "velocity": 100}, {"time": 157437, "pitch": 48, "duration": 458, "velocity": 95}, {"time": 157437, "pitch": 55, "duration": 458, "velocity": 90}, {"time": 157437, "pitch": 58, "duration": 458, "velocity": 95}, {"time": 157437, "pitch": 64, "duration": 458, "velocity": 100}, {"time": 157915, "pitch": 45, "duration": 204, "velocity": 95}, {"time": 157915, "pitch": 50, "duration": 204, "velocity": 90}, {"time": 157915, "pitch": 57, "duration": 204, "velocity": 95}, {"time": 157915, "pitch": 60, "duration": 204, "velocity": 100}, {"time": 158405, "pitch": 45, "duration": 458, "velocity": 95}, {"time": 158405, "pitch": 50, "duration": 458, "velocity": 90}, {"time": 158405, "pitch": 57, "duration": 458, "velocity": 95}, {"time": 158405, "pitch": 60, "duration": 458, "velocity": 100}, {"time": 159122, "pitch": 45, "duration": 200, "velocity": 95}, {"time": 159122, "pitch": 50, "duration": 200, "velocity": 90}, {"time": 159122, "pitch": 57, "duration": 200, "velocity": 95}, {"time": 159122, "pitch": 60, "duration": 200, "velocity": 100}, {"time": 159601, "pitch": 45, "duration": 199, "velocity": 95}, {"time": 159601, "pitch": 50, "duration": 199, "velocity": 90}, {"time": 159601, "pitch": 57, "duration": 199, "velocity": 95}, {"time": 159601, "pitch": 60, "duration": 199, "velocity": 100}, {"time": 160079, "pitch": 45, "duration": 199, "velocity": 95}, {"time": 160079, "pitch": 50, "duration": 199, "velocity": 90}, {"time": 160079, "pitch": 57, "duration": 199, "velocity": 95}, {"time": 160079, "pitch": 60, "duration": 199, "velocity": 100}, {"time": 160557, "pitch": 45, "duration": 80, "velocity": 95}, {"time": 160557, "pitch": 50, "duration": 80, "velocity": 90}, {"time": 160557, "pitch": 57, "duration": 80, "velocity": 95}, {"time": 160557, "pitch": 60, "duration": 80, "velocity": 100}, {"time": 160797, "pitch": 72, "duration": 239, "velocity": 110}, {"time": 161036, "pitch": 69, "duration": 239, "velocity": 105}, {"time": 161275, "pitch": 65, "duration": 245, "velocity": 100}, {"time": 161765, "pitch": 50, "duration": 199, "velocity": 95}, {"time": 161765, "pitch": 55, "duration": 199, "velocity": 90}, {"time": 161765, "pitch": 59, "duration": 199, "velocity": 95}, {"time": 161765, "pitch": 65, "duration": 199, "velocity": 100}, {"time": 162243, "pitch": 50, "duration": 458, "velocity": 95}, {"time": 162243, "pitch": 55, "duration": 458, "velocity": 90}, {"time": 162243, "pitch": 59, "duration": 458, "velocity": 95}, {"time": 162243, "pitch": 65, "duration": 458, "velocity": 100}, {"time": 162961, "pitch": 50, "duration": 199, "velocity": 95}, {"time": 162961, "pitch": 55, "duration": 199, "velocity": 90}, {"time": 162961, "pitch": 59, "duration": 199, "velocity": 95}, {"time": 162961, "pitch": 65, "duration": 199, "velocity": 100}, {"time": 163439, "pitch": 50, "duration": 199, "velocity": 95}, {"time": 163439, "pitch": 55, "duration": 199, "velocity": 90}, {"time": 163439, "pitch": 59, "duration": 199, "velocity": 95}, {"time": 163439, "pitch": 65, "duration": 199, "velocity": 100}, {"time": 163917, "pitch": 50, "duration": 200, "velocity": 95}, {"time": 163917, "pitch": 55, "duration": 200, "velocity": 90}, {"time": 163917, "pitch": 59, "duration": 200, "velocity": 95}, {"time": 163917, "pitch": 65, "duration": 200, "velocity": 100}, {"time": 164635, "pitch": 50, "duration": 204, "velocity": 95}, {"time": 164635, "pitch": 55, "duration": 204, "velocity": 90}, {"time": 164635, "pitch": 59, "duration": 204, "velocity": 95}, {"time": 164635, "pitch": 65, "duration": 204, "velocity": 100}, {"time": 165125, "pitch": 50, "duration": 458, "velocity": 95}, {"time": 165125, "pitch": 55, "duration": 458, "velocity": 90}, {"time": 165125, "pitch": 59, "duration": 458, "velocity": 95}, {"time": 165125, "pitch": 65, "duration": 458, "velocity": 100}, {"time": 165603, "pitch": 48, "duration": 199, "velocity": 95}, {"time": 165603, "pitch": 55, "duration": 199, "velocity": 90}, {"time": 165603, "pitch": 59, "duration": 199, "velocity": 95}, {"time": 165603, "pitch": 64, "duration": 199, "velocity": 100}, {"time": 166081, "pitch": 48, "duration": 459, "velocity": 95}, {"time": 166081, "pitch": 55, "duration": 459, "velocity": 90}, {"time": 166081, "pitch": 59, "duration": 459, "velocity": 95}, {"time": 166081, "pitch": 64, "duration": 459, "velocity": 100}, {"time": 166799, "pitch": 48, "duration": 199, "velocity": 95}, {"time": 166799, "pitch": 55, "duration": 199, "velocity": 90}, {"time": 166799, "pitch": 59, "duration": 199, "velocity": 95}, {"time": 166799, "pitch": 64, "duration": 199, "velocity": 100}, {"time": 167277, "pitch": 48, "duration": 200, "velocity": 95}, {"time": 167277, "pitch": 55, "duration": 200, "velocity": 90}, {"time": 167277, "pitch": 59, "duration": 200, "velocity": 95}, {"time": 167277, "pitch": 64, "duration": 200, "velocity": 100}, {"time": 167756, "pitch": 48, "duration": 199, "velocity": 95}, {"time": 167756, "pitch": 55, "duration": 199, "velocity": 90}, {"time": 167756, "pitch": 59, "duration": 199, "velocity": 95}, {"time": 167756, "pitch": 64, "duration": 199, "velocity": 100}, {"time": 168485, "pitch": 48, "duration": 199, "velocity": 95}, {"time": 168485, "pitch": 55, "duration": 199, "velocity": 90}, {"time": 168485, "pitch": 59, "duration": 199, "velocity": 95}, {"time": 168485, "pitch": 64, "duration": 199, "velocity": 100}, {"time": 168963, "pitch": 48, "duration": 458, "velocity": 95}, {"time": 168963, "pitch": 55, "duration": 458, "velocity": 90}, {"time": 168963, "pitch": 59, "duration": 458, "velocity": 95}, {"time": 168963, "pitch": 64, "duration": 458, "velocity": 100}, {"time": 169441, "pitch": 48, "duration": 200, "velocity": 95}, {"time": 169441, "pitch": 55, "duration": 200, "velocity": 90}, {"time": 169441, "pitch": 59, "duration": 200, "velocity": 95}, {"time": 169441, "pitch": 64, "duration": 200, "velocity": 100}, {"time": 169920, "pitch": 48, "duration": 458, "velocity": 95}, {"time": 169920, "pitch": 55, "duration": 458, "velocity": 90}, {"time": 169920, "pitch": 59, "duration": 458, "velocity": 95}, {"time": 169920, "pitch": 64, "duration": 458, "velocity": 100}, {"time": 170637, "pitch": 48, "duration": 200, "velocity": 95}, {"time": 170637, "pitch": 55, "duration": 200, "velocity": 90}, {"time": 170637, "pitch": 59, "duration": 200, "velocity": 95}, {"time": 170637, "pitch": 64, "duration": 200, "velocity": 100}, {"time": 171116, "pitch": 48, "duration": 199, "velocity": 95}, {"time": 171116, "pitch": 55, "duration": 199, "velocity": 90}, {"time": 171116, "pitch": 59, "duration": 199, "velocity": 95}, {"time": 171116, "pitch": 64, "duration": 199, "velocity": 100}, {"time": 171600, "pitch": 48, "duration": 204, "velocity": 95}, {"time": 171600, "pitch": 55, "duration": 204, "velocity": 90}, {"time": 171600, "pitch": 59, "duration": 204, "velocity": 95}, {"time": 171600, "pitch": 64, "duration": 204, "velocity": 100}, {"time": 172323, "pitch": 48, "duration": 199, "velocity": 95}, {"time": 172323, "pitch": 55, "duration": 199, "velocity": 90}, {"time": 172323, "pitch": 59, "duration": 199, "velocity": 95}, {"time": 172323, "pitch": 64, "duration": 199, "velocity": 100}, {"time": 172801, "pitch": 48, "duration": 459, "velocity": 95}, {"time": 172801, "pitch": 55, "duration": 459, "velocity": 90}, {"time": 172801, "pitch": 59, "duration": 459, "velocity": 95}, {"time": 172801, "pitch": 64, "duration": 459, "velocity": 100}, {"time": 173280, "pitch": 48, "duration": 199, "velocity": 95}, {"time": 173280, "pitch": 52, "duration": 199, "velocity": 90}, {"time": 173280, "pitch": 55, "duration": 199, "velocity": 95}, {"time": 173280, "pitch": 59, "duration": 199, "velocity": 100}, {"time": 173758, "pitch": 48, "duration": 459, "velocity": 95}, {"time": 173758, "pitch": 52, "duration": 459, "velocity": 90}, {"time": 173758, "pitch": 55, "duration": 459, "velocity": 95}, {"time": 173758, "pitch": 59, "duration": 459, "velocity": 100}, {"time": 174476, "pitch": 48, "duration": 199, "velocity": 95}, {"time": 174476, "pitch": 52, "duration": 199, "velocity": 90}, {"time": 174476, "pitch": 55, "duration": 199, "velocity": 95}, {"time": 174476, "pitch": 59, "duration": 199, "velocity": 100}, {"time": 174960, "pitch": 48, "duration": 204, "velocity": 95}, {"time": 174960, "pitch": 52, "duration": 204, "velocity": 90}, {"time": 174960, "pitch": 55, "duration": 204, "velocity": 95}, {"time": 174960, "pitch": 59, "duration": 204, "velocity": 100}, {"time": 175444, "pitch": 48, "duration": 199, "velocity": 95}, {"time": 175444, "pitch": 52, "duration": 199, "velocity": 90}, {"time": 175444, "pitch": 55, "duration": 199, "velocity": 95}, {"time": 175444, "pitch": 59, "duration": 199, "velocity": 100}, {"time": 176161, "pitch": 48, "duration": 200, "velocity": 95}, {"time": 176161, "pitch": 52, "duration": 200, "velocity": 90}, {"time": 176161, "pitch": 55, "duration": 200, "velocity": 95}, {"time": 176161, "pitch": 59, "duration": 200, "velocity": 100}, {"time": 176640, "pitch": 48, "duration": 458, "velocity": 95}, {"time": 176640, "pitch": 55, "duration": 458, "velocity": 90}, {"time": 176640, "pitch": 59, "duration": 458, "velocity": 95}, {"time": 176640, "pitch": 64, "duration": 458, "velocity": 100}, {"time": 177118, "pitch": 47, "duration": 200, "velocity": 95}, {"time": 177118, "pitch": 50, "duration": 200, "velocity": 90}, {"time": 177118, "pitch": 53, "duration": 200, "velocity": 95}, {"time": 177118, "pitch": 57, "duration": 200, "velocity": 100}, {"time": 177597, "pitch": 47, "duration": 458, "velocity": 95}, {"time": 177597, "pitch": 50, "duration": 458, "velocity": 90}, {"time": 177597, "pitch": 53, "duration": 458, "velocity": 95}, {"time": 177597, "pitch": 57, "duration": 458, "velocity": 100}, {"time": 178320, "pitch": 47, "duration": 204, "velocity": 95}, {"time": 178320, "pitch": 50, "duration": 204, "velocity": 90}, {"time": 178320, "pitch": 53, "duration": 204, "velocity": 95}, {"time": 178320, "pitch": 57, "duration": 204, "velocity": 100}, {"time": 178804, "pitch": 47, "duration": 199, "velocity": 95}, {"time": 178804, "pitch": 50, "duration": 199, "velocity": 90}, {"time": 178804, "pitch": 53, "duration": 199, "velocity": 95}, {"time": 178804, "pitch": 57, "duration": 199, "velocity": 100}, {"time": 179282, "pitch": 47, "duration": 200, "velocity": 95}, {"time": 179282, "pitch": 50, "duration": 200, "velocity": 90}, {"time": 179282, "pitch": 56, "duration": 200, "velocity": 95}, {"time": 179282, "pitch": 59, "duration": 200, "velocity": 100}, {"time": 180000, "pitch": 47, "duration": 199, "velocity": 95}, {"time": 180000, "pitch": 50, "duration": 199, "velocity": 90}, {"time": 180000, "pitch": 56, "duration": 199, "velocity": 95}, {"time": 180000, "pitch": 59, "duration": 199, "velocity": 100}, {"time": 180478, "pitch": 47, "duration": 459, "velocity": 95}, {"time": 180478, "pitch": 56, "duration": 459, "velocity": 90}, {"time": 180478, "pitch": 59, "duration": 459, "velocity": 95}, {"time": 180478, "pitch": 62, "duration": 459, "velocity": 100}, {"time": 180957, "pitch": 45, "duration": 199, "velocity": 95}, {"time": 180957, "pitch": 52, "duration": 199, "velocity": 90}, {"time": 180957, "pitch": 55, "duration": 199, "velocity": 95}, {"time": 180957, "pitch": 60, "duration": 199, "velocity": 100}, {"time": 181435, "pitch": 45, "duration": 469, "velocity": 95}, {"time": 181435, "pitch": 52, "duration": 469, "velocity": 90}, {"time": 181435, "pitch": 55, "duration": 469, "velocity": 95}, {"time": 181435, "pitch": 60, "duration": 469, "velocity": 100}, {"time": 182164, "pitch": 45, "duration": 199, "velocity": 95}, {"time": 182164, "pitch": 52, "duration": 199, "velocity": 90}, {"time": 182164, "pitch": 55, "duration": 199, "velocity": 95}, {"time": 182164, "pitch": 60, "duration": 199, "velocity": 100}, {"time": 182642, "pitch": 45, "duration": 200, "velocity": 95}, {"time": 182642, "pitch": 52, "duration": 200, "velocity": 90}, {"time": 182642, "pitch": 55, "duration": 200, "velocity": 95}, {"time": 182642, "pitch": 60, "duration": 200, "velocity": 100}, {"time": 183121, "pitch": 45, "duration": 199, "velocity": 95}, {"time": 183121, "pitch": 52, "duration": 199, "velocity": 90}, {"time": 183121, "pitch": 55, "duration": 199, "velocity": 95}, {"time": 183121, "pitch": 60, "duration": 199, "velocity": 100}, {"time": 183838, "pitch": 45, "duration": 200, "velocity": 95}, {"time": 183838, "pitch": 52, "duration": 200, "velocity": 90}, {"time": 183838, "pitch": 55, "duration": 200, "velocity": 95}, {"time": 183838, "pitch": 60, "duration": 200, "velocity": 100}, {"time": 184317, "pitch": 51, "duration": 458, "velocity": 95}, {"time": 184317, "pitch": 56, "duration": 458, "velocity": 90}, {"time": 184317, "pitch": 59, "duration": 458, "velocity": 95}, {"time": 184317, "pitch": 63, "duration": 458, "velocity": 100}, {"time": 184795, "pitch": 46, "duration": 204, "velocity": 95}, {"time": 184795, "pitch": 50, "duration": 204, "velocity": 90}, {"time": 184795, "pitch": 55, "duration": 204, "velocity": 95}, {"time": 184795, "pitch": 58, "duration": 204, "velocity": 100}, {"time": 185285, "pitch": 46, "duration": 458, "velocity": 95}, {"time": 185285, "pitch": 50, "duration": 458, "velocity": 90}, {"time": 185285, "pitch": 55, "duration": 458, "velocity": 95}, {"time": 185285, "pitch": 58, "duration": 458, "velocity": 100}, {"time": 186002, "pitch": 46, "duration": 200, "velocity": 95}, {"time": 186002, "pitch": 50, "duration": 200, "velocity": 90}, {"time": 186002, "pitch": 55, "duration": 200, "velocity": 95}, {"time": 186002, "pitch": 58, "duration": 200, "velocity": 100}, {"time": 186481, "pitch": 46, "duration": 199, "velocity": 95}, {"time": 186481, "pitch": 50, "duration": 199, "velocity": 90}, {"time": 186481, "pitch": 55, "duration": 199, "velocity": 95}, {"time": 186481, "pitch": 58, "duration": 199, "velocity": 100}, {"time": 186959, "pitch": 48, "duration": 199, "velocity": 95}, {"time": 186959, "pitch": 55, "duration": 199, "velocity": 90}, {"time": 186959, "pitch": 58, "duration": 199, "velocity": 95}, {"time": 186959, "pitch": 64, "duration": 199, "velocity": 100}, {"time": 187677, "pitch": 48, "duration": 199, "velocity": 95}, {"time": 187677, "pitch": 55, "duration": 199, "velocity": 90}, {"time": 187677, "pitch": 58, "duration": 199, "velocity": 95}, {"time": 187677, "pitch": 64, "duration": 199, "velocity": 100}, {"time": 188155, "pitch": 48, "duration": 469, "velocity": 95}, {"time": 188155, "pitch": 55, "duration": 469, "velocity": 90}, {"time": 188155, "pitch": 58, "duration": 469, "velocity": 95}, {"time": 188155, "pitch": 64, "duration": 469, "velocity": 100}, {"time": 188645, "pitch": 45, "duration": 199, "velocity": 95}, {"time": 188645, "pitch": 50, "duration": 199, "velocity": 90}, {"time": 188645, "pitch": 57, "duration": 199, "velocity": 95}, {"time": 188645, "pitch": 60, "duration": 199, "velocity": 100}, {"time": 189123, "pitch": 45, "duration": 458, "velocity": 95}, {"time": 189123, "pitch": 50, "duration": 458, "velocity": 90}, {"time": 189123, "pitch": 57, "duration": 458, "velocity": 95}, {"time": 189123, "pitch": 60, "duration": 458, "velocity": 100}, {"time": 189841, "pitch": 45, "duration": 199, "velocity": 95}, {"time": 189841, "pitch": 50, "duration": 199, "velocity": 90}, {"time": 189841, "pitch": 57, "duration": 199, "velocity": 95}, {"time": 189841, "pitch": 60, "duration": 199, "velocity": 100}, {"time": 190319, "pitch": 45, "duration": 199, "velocity": 95}, {"time": 190319, "pitch": 50, "duration": 199, "velocity": 90}, {"time": 190319, "pitch": 57, "duration": 199, "velocity": 95}, {"time": 190319, "pitch": 60, "duration": 199, "velocity": 100}, {"time": 190797, "pitch": 45, "duration": 200, "velocity": 95}, {"time": 190797, "pitch": 50, "duration": 200, "velocity": 90}, {"time": 190797, "pitch": 57, "duration": 200, "velocity": 95}, {"time": 190797, "pitch": 60, "duration": 200, "velocity": 100}, {"time": 191276, "pitch": 45, "duration": 80, "velocity": 95}, {"time": 191276, "pitch": 50, "duration": 80, "velocity": 90}, {"time": 191276, "pitch": 57, "duration": 80, "velocity": 95}, {"time": 191276, "pitch": 60, "duration": 80, "velocity": 100}, {"time": 191515, "pitch": 53, "duration": 729, "velocity": 100}, {"time": 191760, "pitch": 57, "duration": 484, "velocity": 95}, {"time": 192005, "pitch": 60, "duration": 239, "velocity": 90}, {"time": 192483, "pitch": 50, "duration": 199, "velocity": 95}, {"time": 192483, "pitch": 55, "duration": 199, "velocity": 90}, {"time": 192483, "pitch": 59, "duration": 199, "velocity": 95}, {"time": 192483, "pitch": 65, "duration": 199, "velocity": 100}, {"time": 192961, "pitch": 50, "duration": 459, "velocity": 95}, {"time": 192961, "pitch": 55, "duration": 459, "velocity": 90}, {"time": 192961, "pitch": 59, "duration": 459, "velocity": 95}, {"time": 192961, "pitch": 65, "duration": 459, "velocity": 100}, {"time": 193679, "pitch": 50, "duration": 199, "velocity": 95}, {"time": 193679, "pitch": 55, "duration": 199, "velocity": 90}, {"time": 193679, "pitch": 59, "duration": 199, "velocity": 95}, {"time": 193679, "pitch": 65, "duration": 199, "velocity": 100}, {"time": 194157, "pitch": 50, "duration": 200, "velocity": 95}, {"time": 194157, "pitch": 55, "duration": 200, "velocity": 90}, {"time": 194157, "pitch": 59, "duration": 200, "velocity": 95}, {"time": 194157, "pitch": 65, "duration": 200, "velocity": 100}, {"time": 194636, "pitch": 50, "duration": 199, "velocity": 95}, {"time": 194636, "pitch": 55, "duration": 199, "velocity": 90}, {"time": 194636, "pitch": 59, "duration": 199, "velocity": 95}, {"time": 194636, "pitch": 65, "duration": 199, "velocity": 100}, {"time": 195365, "pitch": 50, "duration": 199, "velocity": 95}, {"time": 195365, "pitch": 55, "duration": 199, "velocity": 90}, {"time": 195365, "pitch": 59, "duration": 199, "velocity": 95}, {"time": 195365, "pitch": 65, "duration": 199, "velocity": 100}, {"time": 195843, "pitch": 50, "duration": 458, "velocity": 95}, {"time": 195843, "pitch": 55, "duration": 458, "velocity": 90}, {"time": 195843, "pitch": 59, "duration": 458, "velocity": 95}, {"time": 195843, "pitch": 65, "duration": 458, "velocity": 100}, {"time": 196321, "pitch": 48, "duration": 200, "velocity": 95}, {"time": 196321, "pitch": 55, "duration": 200, "velocity": 90}, {"time": 196321, "pitch": 59, "duration": 200, "velocity": 95}, {"time": 196321, "pitch": 64, "duration": 200, "velocity": 100}, {"time": 196800, "pitch": 48, "duration": 458, "velocity": 95}, {"time": 196800, "pitch": 55, "duration": 458, "velocity": 90}, {"time": 196800, "pitch": 59, "duration": 458, "velocity": 95}, {"time": 196800, "pitch": 64, "duration": 458, "velocity": 100}, {"time": 197517, "pitch": 48, "duration": 200, "velocity": 95}, {"time": 197517, "pitch": 55, "duration": 200, "velocity": 90}, {"time": 197517, "pitch": 59, "duration": 200, "velocity": 95}, {"time": 197517, "pitch": 64, "duration": 200, "velocity": 100}, {"time": 197996, "pitch": 48, "duration": 199, "velocity": 95}, {"time": 197996, "pitch": 55, "duration": 199, "velocity": 90}, {"time": 197996, "pitch": 59, "duration": 199, "velocity": 95}, {"time": 197996, "pitch": 64, "duration": 199, "velocity": 100}, {"time": 198480, "pitch": 48, "duration": 204, "velocity": 95}, {"time": 198480, "pitch": 55, "duration": 204, "velocity": 90}, {"time": 198480, "pitch": 59, "duration": 204, "velocity": 95}, {"time": 198480, "pitch": 64, "duration": 204, "velocity": 100}, {"time": 199203, "pitch": 48, "duration": 199, "velocity": 95}, {"time": 199203, "pitch": 55, "duration": 199, "velocity": 90}, {"time": 199203, "pitch": 59, "duration": 199, "velocity": 95}, {"time": 199203, "pitch": 64, "duration": 199, "velocity": 100}, {"time": 199681, "pitch": 48, "duration": 459, "velocity": 95}, {"time": 199681, "pitch": 55, "duration": 459, "velocity": 90}, {"time": 199681, "pitch": 59, "duration": 459, "velocity": 95}, {"time": 199681, "pitch": 64, "duration": 459, "velocity": 100}, {"time": 200160, "pitch": 48, "duration": 199, "velocity": 95}, {"time": 200160, "pitch": 55, "duration": 199, "velocity": 90}, {"time": 200160, "pitch": 59, "duration": 199, "velocity": 95}, {"time": 200160, "pitch": 64, "duration": 199, "velocity": 100}, {"time": 200638, "pitch": 48, "duration": 459, "velocity": 95}, {"time": 200638, "pitch": 55, "duration": 459, "velocity": 90}, {"time": 200638, "pitch": 59, "duration": 459, "velocity": 95}, {"time": 200638, "pitch": 64, "duration": 459, "velocity": 100}, {"time": 201356, "pitch": 48, "duration": 199, "velocity": 95}, {"time": 201356, "pitch": 55, "duration": 199, "velocity": 90}, {"time": 201356, "pitch": 59, "duration": 199, "velocity": 95}, {"time": 201356, "pitch": 64, "duration": 199, "velocity": 100}, {"time": 201840, "pitch": 48, "duration": 204, "velocity": 95}, {"time": 201840, "pitch": 55, "duration": 204, "velocity": 90}, {"time": 201840, "pitch": 59, "duration": 204, "velocity": 95}, {"time": 201840, "pitch": 64, "duration": 204, "velocity": 100}, {"time": 202324, "pitch": 48, "duration": 199, "velocity": 95}, {"time": 202324, "pitch": 55, "duration": 199, "velocity": 90}, {"time": 202324, "pitch": 59, "duration": 199, "velocity": 95}, {"time": 202324, "pitch": 64, "duration": 199, "velocity": 100}, {"time": 203041, "pitch": 48, "duration": 200, "velocity": 95}, {"time": 203041, "pitch": 55, "duration": 200, "velocity": 90}, {"time": 203041, "pitch": 59, "duration": 200, "velocity": 95}, {"time": 203041, "pitch": 64, "duration": 200, "velocity": 100}, {"time": 203281, "pitch": 55, "duration": 697, "velocity": 90}, {"time": 203520, "pitch": 59, "duration": 458, "velocity": 95}, {"time": 203759, "pitch": 64, "duration": 219, "velocity": 100}, {"time": 203998, "pitch": 47, "duration": 1905, "velocity": 90}, {"time": 204018, "pitch": 50, "duration": 1885, "velocity": 85}, {"time": 204038, "pitch": 57, "duration": 1865, "velocity": 90}, {"time": 204058, "pitch": 59, "duration": 1845, "velocity": 95}, {"time": 204078, "pitch": 65, "duration": 1825, "velocity": 100}, {"time": 205923, "pitch": 47, "duration": 1894, "velocity": 90}, {"time": 205943, "pitch": 50, "duration": 1874, "velocity": 85}, {"time": 205963, "pitch": 56, "duration": 1854, "velocity": 90}, {"time": 205983, "pitch": 59, "duration": 1834, "velocity": 95}, {"time": 206003, "pitch": 64, "duration": 1814, "velocity": 100}, {"time": 207837, "pitch": 45, "duration": 199, "velocity": 95}, {"time": 207837, "pitch": 52, "duration": 199, "velocity": 90}, {"time": 207837, "pitch": 55, "duration": 199, "velocity": 95}, {"time": 207837, "pitch": 60, "duration": 199, "velocity": 100}, {"time": 208315, "pitch": 45, "duration": 469, "velocity": 95}, {"time": 208315, "pitch": 52, "duration": 469, "velocity": 90}, {"time": 208315, "pitch": 55, "duration": 469, "velocity": 95}, {"time": 208315, "pitch": 60, "duration": 469, "velocity": 100}, {"time": 209044, "pitch": 45, "duration": 199, "velocity": 95}, {"time": 209044, "pitch": 52, "duration": 199, "velocity": 90}, {"time": 209044, "pitch": 55, "duration": 199, "velocity": 95}, {"time": 209044, "pitch": 60, "duration": 199, "velocity": 100}, {"time": 209522, "pitch": 45, "duration": 200, "velocity": 95}, {"time": 209522, "pitch": 52, "duration": 200, "velocity": 90}, {"time": 209522, "pitch": 55, "duration": 200, "velocity": 95}, {"time": 209522, "pitch": 60, "duration": 200, "velocity": 100}, {"time": 210001, "pitch": 45, "duration": 199, "velocity": 95}, {"time": 210001, "pitch": 52, "duration": 199, "velocity": 90}, {"time": 210001, "pitch": 55, "duration": 199, "velocity": 95}, {"time": 210001, "pitch": 60, "duration": 199, "velocity": 100}, {"time": 210718, "pitch": 45, "duration": 200, "velocity": 95}, {"time": 210718, "pitch": 52, "duration": 200, "velocity": 90}, {"time": 210718, "pitch": 55, "duration": 200, "velocity": 95}, {"time": 210718, "pitch": 60, "duration": 200, "velocity": 100}, {"time": 211197, "pitch": 45, "duration": 458, "velocity": 95}, {"time": 211197, "pitch": 52, "duration": 458, "velocity": 90}, {"time": 211197, "pitch": 55, "duration": 458, "velocity": 95}, {"time": 211197, "pitch": 60, "duration": 458, "velocity": 100}, {"time": 211675, "pitch": 47, "duration": 1905, "velocity": 90}, {"time": 211695, "pitch": 50, "duration": 1885, "velocity": 85}, {"time": 211716, "pitch": 57, "duration": 1864, "velocity": 90}, {"time": 211736, "pitch": 59, "duration": 1844, "velocity": 95}, {"time": 211757, "pitch": 65, "duration": 1823, "velocity": 100}, {"time": 213600, "pitch": 47, "duration": 1904, "velocity": 90}, {"time": 213620, "pitch": 50, "duration": 1884, "velocity": 85}, {"time": 213640, "pitch": 56, "duration": 1864, "velocity": 90}, {"time": 213660, "pitch": 59, "duration": 1844, "velocity": 95}, {"time": 213680, "pitch": 64, "duration": 1824, "velocity": 100}, {"time": 215525, "pitch": 45, "duration": 199, "velocity": 95}, {"time": 215525, "pitch": 52, "duration": 199, "velocity": 90}, {"time": 215525, "pitch": 55, "duration": 199, "velocity": 95}, {"time": 215525, "pitch": 60, "duration": 199, "velocity": 100}, {"time": 216003, "pitch": 45, "duration": 458, "velocity": 95}, {"time": 216003, "pitch": 52, "duration": 458, "velocity": 90}, {"time": 216003, "pitch": 55, "duration": 458, "velocity": 95}, {"time": 216003, "pitch": 60, "duration": 458, "velocity": 100}, {"time": 216721, "pitch": 45, "duration": 199, "velocity": 95}, {"time": 216721, "pitch": 52, "duration": 199, "velocity": 90}, {"time": 216721, "pitch": 55, "duration": 199, "velocity": 95}, {"time": 216721, "pitch": 60, "duration": 199, "velocity": 100}, {"time": 217199, "pitch": 45, "duration": 199, "velocity": 95}, {"time": 217199, "pitch": 52, "duration": 199, "velocity": 90}, {"time": 217199, "pitch": 55, "duration": 199, "velocity": 95}, {"time": 217199, "pitch": 60, "duration": 199, "velocity": 100}, {"time": 217677, "pitch": 45, "duration": 200, "velocity": 95}, {"time": 217677, "pitch": 52, "duration": 200, "velocity": 90}, {"time": 217677, "pitch": 55, "duration": 200, "velocity": 95}, {"time": 217677, "pitch": 60, "duration": 200, "velocity": 100}, {"time": 218395, "pitch": 45, "duration": 204, "velocity": 95}, {"time": 218395, "pitch": 52, "duration": 204, "velocity": 90}, {"time": 218395, "pitch": 55, "duration": 204, "velocity": 95}, {"time": 218395, "pitch": 60, "duration": 204, "velocity": 100}, {"time": 218640, "pitch": 45, "duration": 703, "velocity": 95}, {"time": 218640, "pitch": 52, "duration": 703, "velocity": 90}, {"time": 218640, "pitch": 55, "duration": 703, "velocity": 95}, {"time": 218640, "pitch": 60, "duration": 703, "velocity": 100}, {"time": 219363, "pitch": 45, "duration": 199, "velocity": 95}, {"time": 219363, "pitch": 50, "duration": 199, "velocity": 90}, {"time": 219363, "pitch": 57, "duration": 199, "velocity": 95}, {"time": 219363, "pitch": 60, "duration": 199, "velocity": 100}, {"time": 219841, "pitch": 45, "duration": 459, "velocity": 95}, {"time": 219841, "pitch": 50, "duration": 459, "velocity": 90}, {"time": 219841, "pitch": 57, "duration": 459, "velocity": 95}, {"time": 219841, "pitch": 60, "duration": 459, "velocity": 100}, {"time": 220559, "pitch": 45, "duration": 199, "velocity": 95}, {"time": 220559, "pitch": 50, "duration": 199, "velocity": 90}, {"time": 220559, "pitch": 57, "duration": 199, "velocity": 95}, {"time": 220559, "pitch": 60, "duration": 199, "velocity": 100}, {"time": 221037, "pitch": 45, "duration": 200, "velocity": 95}, {"time": 221037, "pitch": 50, "duration": 200, "velocity": 90}, {"time": 221037, "pitch": 57, "duration": 200, "velocity": 95}, {"time": 221037, "pitch": 60, "duration": 200, "velocity": 100}, {"time": 221516, "pitch": 45, "duration": 199, "velocity": 95}, {"time": 221516, "pitch": 50, "duration": 199, "velocity": 90}, {"time": 221516, "pitch": 57, "duration": 199, "velocity": 95}, {"time": 221516, "pitch": 60, "duration": 199, "velocity": 100}, {"time": 222245, "pitch": 45, "duration": 199, "velocity": 95}, {"time": 222245, "pitch": 50, "duration": 199, "velocity": 90}, {"time": 222245, "pitch": 57, "duration": 199, "velocity": 95}, {"time": 222245, "pitch": 60, "duration": 199, "velocity": 100}, {"time": 222723, "pitch": 45, "duration": 458, "velocity": 95}, {"time": 222723, "pitch": 50, "duration": 458, "velocity": 90}, {"time": 222723, "pitch": 57, "duration": 458, "velocity": 95}, {"time": 222723, "pitch": 60, "duration": 458, "velocity": 100}, {"time": 223201, "pitch": 47, "duration": 200, "velocity": 95}, {"time": 223201, "pitch": 52, "duration": 200, "velocity": 90}, {"time": 223201, "pitch": 55, "duration": 200, "velocity": 95}, {"time": 223201, "pitch": 62, "duration": 200, "velocity": 100}, {"time": 223680, "pitch": 47, "duration": 458, "velocity": 95}, {"time": 223680, "pitch": 52, "duration": 458, "velocity": 90}, {"time": 223680, "pitch": 55, "duration": 458, "velocity": 95}, {"time": 223680, "pitch": 62, "duration": 458, "velocity": 100}, {"time": 224397, "pitch": 47, "duration": 200, "velocity": 95}, {"time": 224397, "pitch": 52, "duration": 200, "velocity": 90}, {"time": 224397, "pitch": 55, "duration": 200, "velocity": 95}, {"time": 224397, "pitch": 62, "duration": 200, "velocity": 100}, {"time": 224876, "pitch": 47, "duration": 199, "velocity": 95}, {"time": 224876, "pitch": 52, "duration": 199, "velocity": 90}, {"time": 224876, "pitch": 55, "duration": 199, "velocity": 95}, {"time": 224876, "pitch": 62, "duration": 199, "velocity": 100}, {"time": 225360, "pitch": 47, "duration": 204, "velocity": 95}, {"time": 225360, "pitch": 52, "duration": 204, "velocity": 90}, {"time": 225360, "pitch": 55, "duration": 204, "velocity": 95}, {"time": 225360, "pitch": 62, "duration": 204, "velocity": 100}, {"time": 226083, "pitch": 47, "duration": 199, "velocity": 95}, {"time": 226083, "pitch": 52, "duration": 199, "velocity": 90}, {"time": 226083, "pitch": 55, "duration": 199, "velocity": 95}, {"time": 226083, "pitch": 62, "duration": 199, "velocity": 100}, {"time": 226561, "pitch": 47, "duration": 459, "velocity": 95}, {"time": 226561, "pitch": 52, "duration": 459, "velocity": 90}, {"time": 226561, "pitch": 55, "duration": 459, "velocity": 95}, {"time": 226561, "pitch": 62, "duration": 459, "velocity": 100}, {"time": 227040, "pitch": 48, "duration": 199, "velocity": 95}, {"time": 227040, "pitch": 53, "duration": 199, "velocity": 90}, {"time": 227040, "pitch": 57, "duration": 199, "velocity": 95}, {"time": 227040, "pitch": 64, "duration": 199, "velocity": 100}, {"time": 227518, "pitch": 48, "duration": 459, "velocity": 95}, {"time": 227518, "pitch": 53, "duration": 459, "velocity": 90}, {"time": 227518, "pitch": 57, "duration": 459, "velocity": 95}, {"time": 227518, "pitch": 64, "duration": 459, "velocity": 100}, {"time": 228236, "pitch": 48, "duration": 199, "velocity": 95}, {"time": 228236, "pitch": 53, "duration": 199, "velocity": 90}, {"time": 228236, "pitch": 57, "duration": 199, "velocity": 95}, {"time": 228236, "pitch": 64, "duration": 199, "velocity": 100}, {"time": 228720, "pitch": 48, "duration": 204, "velocity": 95}, {"time": 228720, "pitch": 53, "duration": 204, "velocity": 90}, {"time": 228720, "pitch": 57, "duration": 204, "velocity": 95}, {"time": 228720, "pitch": 64, "duration": 204, "velocity": 100}, {"time": 229204, "pitch": 48, "duration": 199, "velocity": 95}, {"time": 229204, "pitch": 53, "duration": 199, "velocity": 90}, {"time": 229204, "pitch": 57, "duration": 199, "velocity": 95}, {"time": 229204, "pitch": 64, "duration": 199, "velocity": 100}, {"time": 229921, "pitch": 48, "duration": 200, "velocity": 95}, {"time": 229921, "pitch": 53, "duration": 200, "velocity": 90}, {"time": 229921, "pitch": 57, "duration": 200, "velocity": 95}, {"time": 229921, "pitch": 64, "duration": 200, "velocity": 100}, {"time": 230400, "pitch": 48, "duration": 458, "velocity": 95}, {"time": 230400, "pitch": 53, "duration": 458, "velocity": 90}, {"time": 230400, "pitch": 57, "duration": 458, "velocity": 95}, {"time": 230400, "pitch": 64, "duration": 458, "velocity": 100}, {"time": 230878, "pitch": 62, "duration": 200, "velocity": 95}, {"time": 230878, "pitch": 67, "duration": 200, "velocity": 90}, {"time": 230878, "pitch": 71, "duration": 200, "velocity": 95}, {"time": 230878, "pitch": 76, "duration": 200, "velocity": 100}, {"time": 231357, "pitch": 62, "duration": 458, "velocity": 95}, {"time": 231357, "pitch": 67, "duration": 458, "velocity": 90}, {"time": 231357, "pitch": 71, "duration": 458, "velocity": 95}, {"time": 231357, "pitch": 76, "duration": 458, "velocity": 100}, {"time": 232080, "pitch": 62, "duration": 204, "velocity": 95}, {"time": 232080, "pitch": 67, "duration": 204, "velocity": 90}, {"time": 232080, "pitch": 71, "duration": 204, "velocity": 95}, {"time": 232080, "pitch": 76, "duration": 204, "velocity": 100}, {"time": 232564, "pitch": 62, "duration": 2133, "velocity": 95}, {"time": 232564, "pitch": 67, "duration": 2133, "velocity": 90}, {"time": 232564, "pitch": 71, "duration": 2133, "velocity": 95}, {"time": 232564, "pitch": 74, "duration": 2133, "velocity": 100}, {"time": 234717, "pitch": 53, "duration": 199, "velocity": 95}, {"time": 234717, "pitch": 57, "duration": 199, "velocity": 90}, {"time": 234717, "pitch": 60, "duration": 199, "velocity": 95}, {"time": 234717, "pitch": 64, "duration": 199, "velocity": 100}, {"time": 235195, "pitch": 53, "duration": 469, "velocity": 95}, {"time": 235195, "pitch": 57, "duration": 469, "velocity": 90}, {"time": 235195, "pitch": 60, "duration": 469, "velocity": 95}, {"time": 235195, "pitch": 64, "duration": 469, "velocity": 100}, {"time": 235924, "pitch": 53, "duration": 199, "velocity": 95}, {"time": 235924, "pitch": 57, "duration": 199, "velocity": 90}, {"time": 235924, "pitch": 60, "duration": 199, "velocity": 95}, {"time": 235924, "pitch": 64, "duration": 199, "velocity": 100}, {"time": 236402, "pitch": 53, "duration": 199, "velocity": 95}, {"time": 236402, "pitch": 57, "duration": 199, "velocity": 90}, {"time": 236402, "pitch": 60, "duration": 199, "velocity": 95}, {"time": 236402, "pitch": 64, "duration": 199, "velocity": 100}, {"time": 236881, "pitch": 50, "duration": 199, "velocity": 95}, {"time": 236881, "pitch": 56, "duration": 199, "velocity": 90}, {"time": 236881, "pitch": 59, "duration": 199, "velocity": 95}, {"time": 236881, "pitch": 64, "duration": 199, "velocity": 100}, {"time": 237598, "pitch": 50, "duration": 200, "velocity": 95}, {"time": 237598, "pitch": 56, "duration": 200, "velocity": 90}, {"time": 237598, "pitch": 59, "duration": 200, "velocity": 95}, {"time": 237598, "pitch": 64, "duration": 200, "velocity": 100}, {"time": 238077, "pitch": 50, "duration": 458, "velocity": 95}, {"time": 238077, "pitch": 56, "duration": 458, "velocity": 90}, {"time": 238077, "pitch": 59, "duration": 458, "velocity": 95}, {"time": 238077, "pitch": 64, "duration": 458, "velocity": 100}, {"time": 238555, "pitch": 45, "duration": 204, "velocity": 95}, {"time": 238555, "pitch": 55, "duration": 204, "velocity": 90}, {"time": 238555, "pitch": 60, "duration": 204, "velocity": 95}, {"time": 238555, "pitch": 64, "duration": 204, "velocity": 100}, {"time": 239045, "pitch": 45, "duration": 458, "velocity": 95}, {"time": 239045, "pitch": 55, "duration": 458, "velocity": 90}, {"time": 239045, "pitch": 60, "duration": 458, "velocity": 95}, {"time": 239045, "pitch": 64, "duration": 458, "velocity": 100}, {"time": 239762, "pitch": 45, "duration": 199, "velocity": 95}, {"time": 239762, "pitch": 55, "duration": 199, "velocity": 90}, {"time": 239762, "pitch": 60, "duration": 199, "velocity": 95}, {"time": 239762, "pitch": 64, "duration": 199, "velocity": 100}, {"time": 240241, "pitch": 45, "duration": 199, "velocity": 95}, {"time": 240241, "pitch": 55, "duration": 199, "velocity": 90}, {"time": 240241, "pitch": 60, "duration": 199, "velocity": 95}, {"time": 240241, "pitch": 64, "duration": 199, "velocity": 100}, {"time": 240719, "pitch": 48, "duration": 199, "velocity": 95}, {"time": 240719, "pitch": 58, "duration": 199, "velocity": 90}, {"time": 240719, "pitch": 64, "duration": 199, "velocity": 95}, {"time": 240719, "pitch": 67, "duration": 199, "velocity": 100}, {"time": 241437, "pitch": 48, "duration": 199, "velocity": 95}, {"time": 241437, "pitch": 58, "duration": 199, "velocity": 90}, {"time": 241437, "pitch": 64, "duration": 199, "velocity": 95}, {"time": 241437, "pitch": 67, "duration": 199, "velocity": 100}, {"time": 241915, "pitch": 48, "duration": 469, "velocity": 95}, {"time": 241915, "pitch": 58, "duration": 469, "velocity": 90}, {"time": 241915, "pitch": 64, "duration": 469, "velocity": 95}, {"time": 241915, "pitch": 67, "duration": 469, "velocity": 100}, {"time": 242405, "pitch": 53, "duration": 199, "velocity": 95}, {"time": 242405, "pitch": 57, "duration": 199, "velocity": 90}, {"time": 242405, "pitch": 60, "duration": 199, "velocity": 95}, {"time": 242405, "pitch": 64, "duration": 199, "velocity": 100}, {"time": 242883, "pitch": 53, "duration": 458, "velocity": 95}, {"time": 242883, "pitch": 57, "duration": 458, "velocity": 90}, {"time": 242883, "pitch": 60, "duration": 458, "velocity": 95}, {"time": 242883, "pitch": 64, "duration": 458, "velocity": 100}, {"time": 243601, "pitch": 53, "duration": 199, "velocity": 95}, {"time": 243601, "pitch": 57, "duration": 199, "velocity": 90}, {"time": 243601, "pitch": 60, "duration": 199, "velocity": 95}, {"time": 243601, "pitch": 64, "duration": 199, "velocity": 100}, {"time": 244079, "pitch": 53, "duration": 199, "velocity": 95}, {"time": 244079, "pitch": 57, "duration": 199, "velocity": 90}, {"time": 244079, "pitch": 60, "duration": 199, "velocity": 95}, {"time": 244079, "pitch": 64, "duration": 199, "velocity": 100}, {"time": 244557, "pitch": 50, "duration": 200, "velocity": 95}, {"time": 244557, "pitch": 56, "duration": 200, "velocity": 90}, {"time": 244557, "pitch": 59, "duration": 200, "velocity": 95}, {"time": 244557, "pitch": 64, "duration": 200, "velocity": 100}, {"time": 245275, "pitch": 50, "duration": 204, "velocity": 95}, {"time": 245275, "pitch": 56, "duration": 204, "velocity": 90}, {"time": 245275, "pitch": 59, "duration": 204, "velocity": 95}, {"time": 245275, "pitch": 64, "duration": 204, "velocity": 100}, {"time": 245765, "pitch": 50, "duration": 458, "velocity": 95}, {"time": 245765, "pitch": 56, "duration": 458, "velocity": 90}, {"time": 245765, "pitch": 59, "duration": 458, "velocity": 95}, {"time": 245765, "pitch": 64, "duration": 458, "velocity": 100}, {"time": 246243, "pitch": 45, "duration": 199, "velocity": 95}, {"time": 246243, "pitch": 55, "duration": 199, "velocity": 90}, {"time": 246243, "pitch": 60, "duration": 199, "velocity": 95}, {"time": 246243, "pitch": 64, "duration": 199, "velocity": 100}, {"time": 246721, "pitch": 45, "duration": 459, "velocity": 95}, {"time": 246721, "pitch": 55, "duration": 459, "velocity": 90}, {"time": 246721, "pitch": 60, "duration": 459, "velocity": 95}, {"time": 246721, "pitch": 64, "duration": 459, "velocity": 100}, {"time": 247439, "pitch": 45, "duration": 199, "velocity": 95}, {"time": 247439, "pitch": 55, "duration": 199, "velocity": 90}, {"time": 247439, "pitch": 60, "duration": 199, "velocity": 95}, {"time": 247439, "pitch": 64, "duration": 199, "velocity": 100}, {"time": 247917, "pitch": 45, "duration": 200, "velocity": 95}, {"time": 247917, "pitch": 55, "duration": 200, "velocity": 90}, {"time": 247917, "pitch": 60, "duration": 200, "velocity": 95}, {"time": 247917, "pitch": 64, "duration": 200, "velocity": 100}, {"time": 248396, "pitch": 48, "duration": 199, "velocity": 95}, {"time": 248396, "pitch": 58, "duration": 199, "velocity": 90}, {"time": 248396, "pitch": 64, "duration": 199, "velocity": 95}, {"time": 248396, "pitch": 67, "duration": 199, "velocity": 100}, {"time": 249125, "pitch": 48, "duration": 199, "velocity": 95}, {"time": 249125, "pitch": 58, "duration": 199, "velocity": 90}, {"time": 249125, "pitch": 64, "duration": 199, "velocity": 95}, {"time": 249125, "pitch": 67, "duration": 199, "velocity": 100}, {"time": 249603, "pitch": 48, "duration": 458, "velocity": 95}, {"time": 249603, "pitch": 58, "duration": 458, "velocity": 90}, {"time": 249603, "pitch": 64, "duration": 458, "velocity": 95}, {"time": 249603, "pitch": 67, "duration": 458, "velocity": 100}, {"time": 250081, "pitch": 53, "duration": 200, "velocity": 95}, {"time": 250081, "pitch": 57, "duration": 200, "velocity": 90}, {"time": 250081, "pitch": 60, "duration": 200, "velocity": 95}, {"time": 250081, "pitch": 64, "duration": 200, "velocity": 100}, {"time": 250560, "pitch": 53, "duration": 458, "velocity": 95}, {"time": 250560, "pitch": 57, "duration": 458, "velocity": 90}, {"time": 250560, "pitch": 60, "duration": 458, "velocity": 95}, {"time": 250560, "pitch": 64, "duration": 458, "velocity": 100}, {"time": 251277, "pitch": 53, "duration": 200, "velocity": 95}, {"time": 251277, "pitch": 57, "duration": 200, "velocity": 90}, {"time": 251277, "pitch": 60, "duration": 200, "velocity": 95}, {"time": 251277, "pitch": 64, "duration": 200, "velocity": 100}, {"time": 251756, "pitch": 53, "duration": 199, "velocity": 95}, {"time": 251756, "pitch": 57, "duration": 199, "velocity": 90}, {"time": 251756, "pitch": 60, "duration": 199, "velocity": 95}, {"time": 251756, "pitch": 64, "duration": 199, "velocity": 100}, {"time": 252240, "pitch": 52, "duration": 204, "velocity": 95}, {"time": 252240, "pitch": 59, "duration": 204, "velocity": 90}, {"time": 252240, "pitch": 62, "duration": 204, "velocity": 95}, {"time": 252240, "pitch": 68, "duration": 204, "velocity": 100}, {"time": 252963, "pitch": 52, "duration": 199, "velocity": 95}, {"time": 252963, "pitch": 59, "duration": 199, "velocity": 90}, {"time": 252963, "pitch": 62, "duration": 199, "velocity": 95}, {"time": 252963, "pitch": 68, "duration": 199, "velocity": 100}, {"time": 253202, "pitch": 62, "duration": 239, "velocity": 95}, {"time": 253441, "pitch": 68, "duration": 20, "velocity": 100}, {"time": 253920, "pitch": 45, "duration": 199, "velocity": 95}, {"time": 253920, "pitch": 55, "duration": 199, "velocity": 90}, {"time": 253920, "pitch": 60, "duration": 199, "velocity": 95}, {"time": 253920, "pitch": 64, "duration": 199, "velocity": 100}, {"time": 254398, "pitch": 45, "duration": 459, "velocity": 95}, {"time": 254398, "pitch": 55, "duration": 459, "velocity": 90}, {"time": 254398, "pitch": 60, "duration": 459, "velocity": 95}, {"time": 254398, "pitch": 64, "duration": 459, "velocity": 100}, {"time": 255116, "pitch": 45, "duration": 199, "velocity": 95}, {"time": 255116, "pitch": 55, "duration": 199, "velocity": 90}, {"time": 255116, "pitch": 60, "duration": 199, "velocity": 95}, {"time": 255116, "pitch": 64, "duration": 199, "velocity": 100}, {"time": 255600, "pitch": 45, "duration": 204, "velocity": 95}, {"time": 255600, "pitch": 55, "duration": 204, "velocity": 90}, {"time": 255600, "pitch": 60, "duration": 204, "velocity": 95}, {"time": 255600, "pitch": 64, "duration": 204, "velocity": 100}, {"time": 256084, "pitch": 45, "duration": 199, "velocity": 95}, {"time": 256084, "pitch": 55, "duration": 199, "velocity": 90}, {"time": 256084, "pitch": 60, "duration": 199, "velocity": 95}, {"time": 256084, "pitch": 64, "duration": 199, "velocity": 100}, {"time": 256562, "pitch": 45, "duration": 199, "velocity": 95}, {"time": 256562, "pitch": 55, "duration": 199, "velocity": 90}, {"time": 256562, "pitch": 60, "duration": 199, "velocity": 95}, {"time": 256562, "pitch": 64, "duration": 199, "velocity": 100}, {"time": 256801, "pitch": 55, "duration": 240, "velocity": 100}, {"time": 257041, "pitch": 60, "duration": 239, "velocity": 95}, {"time": 257280, "pitch": 64, "duration": 458, "velocity": 90}, {"time": 257758, "pitch": 45, "duration": 1935, "velocity": 90}, {"time": 257798, "pitch": 50, "duration": 1895, "velocity": 85}, {"time": 257838, "pitch": 57, "duration": 1855, "velocity": 90}, {"time": 257878, "pitch": 60, "duration": 1815, "velocity": 95}, {"time": 257918, "pitch": 65, "duration": 1775, "velocity": 100}, {"time": 261597, "pitch": 47, "duration": 1934, "velocity": 90}, {"time": 261636, "pitch": 50, "duration": 1895, "velocity": 85}, {"time": 261676, "pitch": 55, "duration": 1855, "velocity": 90}, {"time": 261716, "pitch": 59, "duration": 1815, "velocity": 95}, {"time": 261756, "pitch": 65, "duration": 1775, "velocity": 100}, {"time": 265435, "pitch": 48, "duration": 204, "velocity": 95}, {"time": 265435, "pitch": 55, "duration": 204, "velocity": 90}, {"time": 265435, "pitch": 59, "duration": 204, "velocity": 95}, {"time": 265435, "pitch": 64, "duration": 204, "velocity": 100}, {"time": 265925, "pitch": 48, "duration": 458, "velocity": 95}, {"time": 265925, "pitch": 55, "duration": 458, "velocity": 90}, {"time": 265925, "pitch": 59, "duration": 458, "velocity": 95}, {"time": 265925, "pitch": 64, "duration": 458, "velocity": 100}, {"time": 266642, "pitch": 48, "duration": 199, "velocity": 95}, {"time": 266642, "pitch": 55, "duration": 199, "velocity": 90}, {"time": 266642, "pitch": 59, "duration": 199, "velocity": 95}, {"time": 266642, "pitch": 64, "duration": 199, "velocity": 100}, {"time": 267121, "pitch": 48, "duration": 199, "velocity": 95}, {"time": 267121, "pitch": 55, "duration": 199, "velocity": 90}, {"time": 267121, "pitch": 59, "duration": 199, "velocity": 95}, {"time": 267121, "pitch": 64, "duration": 199, "velocity": 100}, {"time": 267599, "pitch": 48, "duration": 199, "velocity": 95}, {"time": 267599, "pitch": 55, "duration": 199, "velocity": 90}, {"time": 267599, "pitch": 59, "duration": 199, "velocity": 95}, {"time": 267599, "pitch": 64, "duration": 199, "velocity": 100}, {"time": 268077, "pitch": 48, "duration": 200, "velocity": 95}, {"time": 268077, "pitch": 55, "duration": 200, "velocity": 90}, {"time": 268077, "pitch": 59, "duration": 200, "velocity": 95}, {"time": 268077, "pitch": 64, "duration": 200, "velocity": 100}, {"time": 268317, "pitch": 55, "duration": 947, "velocity": 100}, {"time": 268556, "pitch": 59, "duration": 708, "velocity": 95}, {"time": 268795, "pitch": 64, "duration": 469, "velocity": 90}, {"time": 269285, "pitch": 48, "duration": 194, "velocity": 95}, {"time": 269285, "pitch": 55, "duration": 194, "velocity": 90}, {"time": 269285, "pitch": 59, "duration": 194, "velocity": 95}, {"time": 269285, "pitch": 64, "duration": 194, "velocity": 100}, {"time": 269751, "pitch": 48, "duration": 470, "velocity": 95}, {"time": 269751, "pitch": 55, "duration": 470, "velocity": 90}, {"time": 269751, "pitch": 59, "duration": 470, "velocity": 95}, {"time": 269751, "pitch": 64, "duration": 470, "velocity": 100}, {"time": 270487, "pitch": 48, "duration": 203, "velocity": 95}, {"time": 270487, "pitch": 55, "duration": 203, "velocity": 90}, {"time": 270487, "pitch": 59, "duration": 203, "velocity": 95}, {"time": 270487, "pitch": 64, "duration": 203, "velocity": 100}, {"time": 270970, "pitch": 48, "duration": 199, "velocity": 95}, {"time": 270970, "pitch": 55, "duration": 199, "velocity": 90}, {"time": 270970, "pitch": 59, "duration": 199, "velocity": 95}, {"time": 270970, "pitch": 64, "duration": 199, "velocity": 100}, {"time": 271448, "pitch": 48, "duration": 200, "velocity": 95}, {"time": 271448, "pitch": 55, "duration": 200, "velocity": 90}, {"time": 271448, "pitch": 59, "duration": 200, "velocity": 95}, {"time": 271448, "pitch": 64, "duration": 200, "velocity": 100}, {"time": 271927, "pitch": 48, "duration": 200, "velocity": 95}, {"time": 271927, "pitch": 55, "duration": 200, "velocity": 90}, {"time": 271927, "pitch": 59, "duration": 200, "velocity": 95}, {"time": 271927, "pitch": 64, "duration": 200, "velocity": 100}, {"time": 272406, "pitch": 48, "duration": 717, "velocity": 100}, {"time": 272644, "pitch": 55, "duration": 479, "velocity": 95}, {"time": 272884, "pitch": 59, "duration": 239, "velocity": 90}, {"time": 273123, "pitch": 48, "duration": 199, "velocity": 95}, {"time": 273123, "pitch": 55, "duration": 199, "velocity": 90}, {"time": 273123, "pitch": 59, "duration": 199, "velocity": 95}, {"time": 273123, "pitch": 64, "duration": 199, "velocity": 100}, {"time": 273601, "pitch": 48, "duration": 459, "velocity": 95}, {"time": 273601, "pitch": 55, "duration": 459, "velocity": 90}, {"time": 273601, "pitch": 59, "duration": 459, "velocity": 95}, {"time": 273601, "pitch": 64, "duration": 459, "velocity": 100}, {"time": 274325, "pitch": 48, "duration": 204, "velocity": 95}, {"time": 274325, "pitch": 55, "duration": 204, "velocity": 90}, {"time": 274325, "pitch": 59, "duration": 204, "velocity": 95}, {"time": 274325, "pitch": 64, "duration": 204, "velocity": 100}, {"time": 274808, "pitch": 48, "duration": 199, "velocity": 95}, {"time": 274808, "pitch": 55, "duration": 199, "velocity": 90}, {"time": 274808, "pitch": 59, "duration": 199, "velocity": 95}, {"time": 274808, "pitch": 64, "duration": 199, "velocity": 100}, {"time": 275287, "pitch": 48, "duration": 200, "velocity": 95}, {"time": 275287, "pitch": 55, "duration": 200, "velocity": 90}, {"time": 275287, "pitch": 59, "duration": 200, "velocity": 95}, {"time": 275287, "pitch": 64, "duration": 200, "velocity": 100}, {"time": 275766, "pitch": 48, "duration": 199, "velocity": 95}, {"time": 275766, "pitch": 55, "duration": 199, "velocity": 90}, {"time": 275766, "pitch": 59, "duration": 199, "velocity": 95}, {"time": 275766, "pitch": 64, "duration": 199, "velocity": 100}, {"time": 276244, "pitch": 48, "duration": 3145, "velocity": 110}, {"time": 276486, "pitch": 55, "duration": 2903, "velocity": 105}, {"time": 276974, "pitch": 59, "duration": 2415, "velocity": 100}, {"time": 277444, "pitch": 64, "duration": 1945, "velocity": 100}], "annotations": [{"time": 297, "annotation": {"number": 7, "value": 40}, "group": "control_change"}, {"time": 320, "annotation": {"number": 10, "value": 96}, "group": "control_change"}, {"time": 343, "annotation": {"number": 11, "value": 100}, "group": "control_change"}, {"time": 366, "annotation": {"number": 91, "value": 40}, "group": "control_change"}, {"time": 389, "annotation": {"number": 93, "value": 0}, "group": "control_change"}, {"time": 411, "annotation": {"number": 101, "value": 0}, "group": "control_change"}, {"time": 434, "annotation": {"number": 100, "value": 0}, "group": "control_change"}, {"time": 457, "annotation": {"number": 6, "value": 12}, "group": "control_change"}, {"time": 480, "annotation": {"number": 1, "value": 0}, "group": "control_change"}, {"time": 485, "annotation": {"number": 64, "value": 0}, "group": "control_change"}, {"time": 73457, "annotation": {"number": 11, "value": 99}, "group": "control_change"}, {"time": 73477, "annotation": {"number": 11, "value": 98}, "group": "control_change"}, {"time": 73497, "annotation": {"number": 11, "value": 97}, "group": "control_change"}, {"time": 73516, "annotation": {"number": 11, "value": 96}, "group": "control_change"}, {"time": 73536, "annotation": {"number": 11, "value": 95}, "group": "control_change"}, {"time": 73556, "annotation": {"number": 11, "value": 94}, "group": "control_change"}, {"time": 73576, "annotation": {"number": 11, "value": 93}, "group": "control_change"}, {"time": 73596, "annotation": {"number": 11, "value": 92}, "group": "control_change"}, {"time": 73616, "annotation": {"number": 11, "value": 91}, "group": "control_change"}, {"time": 73626, "annotation": {"number": 11, "value": 90}, "group": "control_change"}, {"time": 73646, "annotation": {"number": 11, "value": 89}, "group": "control_change"}, {"time": 73666, "annotation": {"number": 11, "value": 88}, "group": "control_change"}, {"time": 73686, "annotation": {"number": 11, "value": 87}, "group": "control_change"}, {"time": 73706, "annotation": {"number": 11, "value": 86}, "group": "control_change"}, {"time": 73726, "annotation": {"number": 11, "value": 85}, "group": "control_change"}, {"time": 73746, "annotation": {"number": 11, "value": 84}, "group": "control_change"}, {"time": 73766, "annotation": {"number": 11, "value": 83}, "group": "control_change"}, {"time": 73786, "annotation": {"number": 11, "value": 82}, "group": "control_change"}, {"time": 73806, "annotation": {"number": 11, "value": 81}, "group": "control_change"}, {"time": 73815, "annotation": {"number": 11, "value": 80}, "group": "control_change"}, {"time": 73835, "annotation": {"number": 11, "value": 79}, "group": "control_change"}, {"time": 73855, "annotation": {"number": 11, "value": 78}, "group": "control_change"}, {"time": 73875, "annotation": {"number": 11, "value": 77}, "group": "control_change"}, {"time": 73895, "annotation": {"number": 11, "value": 76}, "group": "control_change"}, {"time": 73915, "annotation": {"number": 11, "value": 75}, "group": "control_change"}, {"time": 73935, "annotation": {"number": 11, "value": 74}, "group": "control_change"}, {"time": 73956, "annotation": {"number": 11, "value": 73}, "group": "control_change"}, {"time": 73976, "annotation": {"number": 11, "value": 72}, "group": "control_change"}, {"time": 73997, "annotation": {"number": 11, "value": 71}, "group": "control_change"}, {"time": 74007, "annotation": {"number": 11, "value": 70}, "group": "control_change"}, {"time": 74027, "annotation": {"number": 11, "value": 69}, "group": "control_change"}, {"time": 74048, "annotation": {"number": 11, "value": 68}, "group": "control_change"}, {"time": 74068, "annotation": {"number": 11, "value": 67}, "group": "control_change"}, {"time": 74088, "annotation": {"number": 11, "value": 66}, "group": "control_change"}, {"time": 74109, "annotation": {"number": 11, "value": 65}, "group": "control_change"}, {"time": 74129, "annotation": {"number": 11, "value": 64}, "group": "control_change"}, {"time": 74150, "annotation": {"number": 11, "value": 63}, "group": "control_change"}, {"time": 74170, "annotation": {"number": 11, "value": 62}, "group": "control_change"}, {"time": 74191, "annotation": {"number": 11, "value": 61}, "group": "control_change"}, {"time": 74201, "annotation": {"number": 11, "value": 60}, "group": "control_change"}, {"time": 74221, "annotation": {"number": 11, "value": 59}, "group": "control_change"}, {"time": 74242, "annotation": {"number": 11, "value": 58}, "group": "control_change"}, {"time": 74262, "annotation": {"number": 11, "value": 57}, "group": "control_change"}, {"time": 74282, "annotation": {"number": 11, "value": 56}, "group": "control_change"}, {"time": 74303, "annotation": {"number": 11, "value": 55}, "group": "control_change"}, {"time": 74323, "annotation": {"number": 11, "value": 54}, "group": "control_change"}, {"time": 74344, "annotation": {"number": 11, "value": 53}, "group": "control_change"}, {"time": 74364, "annotation": {"number": 11, "value": 52}, "group": "control_change"}, {"time": 74384, "annotation": {"number": 11, "value": 51}, "group": "control_change"}, {"time": 74395, "annotation": {"number": 11, "value": 50}, "group": "control_change"}, {"time": 74415, "annotation": {"number": 11, "value": 49}, "group": "control_change"}, {"time": 74435, "annotation": {"number": 11, "value": 48}, "group": "control_change"}, {"time": 74455, "annotation": {"number": 11, "value": 47}, "group": "control_change"}, {"time": 74474, "annotation": {"number": 11, "value": 46}, "group": "control_change"}, {"time": 74494, "annotation": {"number": 11, "value": 45}, "group": "control_change"}, {"time": 74514, "annotation": {"number": 11, "value": 44}, "group": "control_change"}, {"time": 74534, "annotation": {"number": 11, "value": 43}, "group": "control_change"}, {"time": 74554, "annotation": {"number": 11, "value": 42}, "group": "control_change"}, {"time": 74574, "annotation": {"number": 11, "value": 41}, "group": "control_change"}, {"time": 74584, "annotation": {"number": 11, "value": 40}, "group": "control_change"}, {"time": 74604, "annotation": {"number": 11, "value": 39}, "group": "control_change"}, {"time": 74624, "annotation": {"number": 11, "value": 38}, "group": "control_change"}, {"time": 74644, "annotation": {"number": 11, "value": 37}, "group": "control_change"}, {"time": 74664, "annotation": {"number": 11, "value": 36}, "group": "control_change"}, {"time": 74684, "annotation": {"number": 11, "value": 35}, "group": "control_change"}, {"time": 74704, "annotation": {"number": 11, "value": 34}, "group": "control_change"}, {"time": 74724, "annotation": {"number": 11, "value": 33}, "group": "control_change"}, {"time": 74744, "annotation": {"number": 11, "value": 32}, "group": "control_change"}, {"time": 74764, "annotation": {"number": 11, "value": 31}, "group": "control_change"}, {"time": 74773, "annotation": {"number": 11, "value": 30}, "group": "control_change"}, {"time": 74793, "annotation": {"number": 11, "value": 29}, "group": "control_change"}, {"time": 74813, "annotation": {"number": 11, "value": 28}, "group": "control_change"}, {"time": 74833, "annotation": {"number": 11, "value": 27}, "group": "control_change"}, {"time": 74853, "annotation": {"number": 11, "value": 26}, "group": "control_change"}, {"time": 74873, "annotation": {"number": 11, "value": 25}, "group": "control_change"}, {"time": 74893, "annotation": {"number": 11, "value": 24}, "group": "control_change"}, {"time": 74913, "annotation": {"number": 11, "value": 23}, "group": "control_change"}, {"time": 74933, "annotation": {"number": 11, "value": 22}, "group": "control_change"}, {"time": 74953, "annotation": {"number": 11, "value": 21}, "group": "control_change"}, {"time": 74963, "annotation": {"number": 11, "value": 20}, "group": "control_change"}, {"time": 74983, "annotation": {"number": 11, "value": 19}, "group": "control_change"}, {"time": 75003, "annotation": {"number": 11, "value": 18}, "group": "control_change"}, {"time": 75023, "annotation": {"number": 11, "value": 17}, "group": "control_change"}, {"time": 75043, "annotation": {"number": 11, "value": 16}, "group": "control_change"}, {"time": 75063, "annotation": {"number": 11, "value": 15}, "group": "control_change"}, {"time": 75082, "annotation": {"number": 11, "value": 14}, "group": "control_change"}, {"time": 75102, "annotation": {"number": 11, "value": 13}, "group": "control_change"}, {"time": 75122, "annotation": {"number": 11, "value": 12}, "group": "control_change"}, {"time": 75142, "annotation": {"number": 11, "value": 11}, "group": "control_change"}, {"time": 75152, "annotation": {"number": 11, "value": 10}, "group": "control_change"}, {"time": 75172, "annotation": {"number": 11, "value": 9}, "group": "control_change"}, {"time": 75192, "annotation": {"number": 11, "value": 8}, "group": "control_change"}, {"time": 75212, "annotation": {"number": 11, "value": 7}, "group": "control_change"}, {"time": 75232, "annotation": {"number": 11, "value": 6}, "group": "control_change"}, {"time": 75252, "annotation": {"number": 11, "value": 5}, "group": "control_change"}, {"time": 75272, "annotation": {"number": 11, "value": 4}, "group": "control_change"}, {"time": 75292, "annotation": {"number": 11, "value": 3}, "group": "control_change"}, {"time": 75312, "annotation": {"number": 11, "value": 2}, "group": "control_change"}, {"time": 75332, "annotation": {"number": 11, "value": 1}, "group": "control_change"}, {"time": 75342, "annotation": {"number": 11, "value": 0}, "group": "control_change"}, {"time": 75362, "annotation": {"number": 11, "value": 100}, "group": "control_change"}, {"time": 75381, "annotation": {"number": 11, "value": 99}, "group": "control_change"}, {"time": 75401, "annotation": {"number": 11, "value": 98}, "group": "control_change"}, {"time": 75421, "annotation": {"number": 11, "value": 97}, "group": "control_change"}, {"time": 75441, "annotation": {"number": 11, "value": 96}, "group": "control_change"}, {"time": 75461, "annotation": {"number": 11, "value": 95}, "group": "control_change"}, {"time": 75481, "annotation": {"number": 11, "value": 94}, "group": "control_change"}, {"time": 75501, "annotation": {"number": 11, "value": 93}, "group": "control_change"}, {"time": 75521, "annotation": {"number": 11, "value": 92}, "group": "control_change"}, {"time": 75541, "annotation": {"number": 11, "value": 91}, "group": "control_change"}, {"time": 75551, "annotation": {"number": 11, "value": 90}, "group": "control_change"}, {"time": 75571, "annotation": {"number": 11, "value": 89}, "group": "control_change"}, {"time": 75591, "annotation": {"number": 11, "value": 88}, "group": "control_change"}, {"time": 75611, "annotation": {"number": 11, "value": 87}, "group": "control_change"}, {"time": 75631, "annotation": {"number": 11, "value": 86}, "group": "control_change"}, {"time": 75651, "annotation": {"number": 11, "value": 85}, "group": "control_change"}, {"time": 75670, "annotation": {"number": 11, "value": 84}, "group": "control_change"}, {"time": 75690, "annotation": {"number": 11, "value": 83}, "group": "control_change"}, {"time": 75710, "annotation": {"number": 11, "value": 82}, "group": "control_change"}, {"time": 75730, "annotation": {"number": 11, "value": 81}, "group": "control_change"}, {"time": 75740, "annotation": {"number": 11, "value": 80}, "group": "control_change"}, {"time": 75760, "annotation": {"number": 11, "value": 79}, "group": "control_change"}, {"time": 75780, "annotation": {"number": 11, "value": 78}, "group": "control_change"}, {"time": 75800, "annotation": {"number": 11, "value": 77}, "group": "control_change"}, {"time": 75820, "annotation": {"number": 11, "value": 76}, "group": "control_change"}, {"time": 75840, "annotation": {"number": 11, "value": 75}, "group": "control_change"}, {"time": 75860, "annotation": {"number": 11, "value": 74}, "group": "control_change"}, {"time": 75880, "annotation": {"number": 11, "value": 73}, "group": "control_change"}, {"time": 75900, "annotation": {"number": 11, "value": 72}, "group": "control_change"}, {"time": 75920, "annotation": {"number": 11, "value": 71}, "group": "control_change"}, {"time": 75930, "annotation": {"number": 11, "value": 70}, "group": "control_change"}, {"time": 75950, "annotation": {"number": 11, "value": 69}, "group": "control_change"}, {"time": 75969, "annotation": {"number": 11, "value": 68}, "group": "control_change"}, {"time": 75989, "annotation": {"number": 11, "value": 67}, "group": "control_change"}, {"time": 76009, "annotation": {"number": 11, "value": 66}, "group": "control_change"}, {"time": 76029, "annotation": {"number": 11, "value": 65}, "group": "control_change"}, {"time": 76049, "annotation": {"number": 11, "value": 64}, "group": "control_change"}, {"time": 76069, "annotation": {"number": 11, "value": 63}, "group": "control_change"}, {"time": 76089, "annotation": {"number": 11, "value": 62}, "group": "control_change"}, {"time": 76109, "annotation": {"number": 11, "value": 61}, "group": "control_change"}, {"time": 76119, "annotation": {"number": 11, "value": 60}, "group": "control_change"}, {"time": 76139, "annotation": {"number": 11, "value": 59}, "group": "control_change"}, {"time": 76159, "annotation": {"number": 11, "value": 58}, "group": "control_change"}, {"time": 76179, "annotation": {"number": 11, "value": 57}, "group": "control_change"}, {"time": 76199, "annotation": {"number": 11, "value": 56}, "group": "control_change"}, {"time": 76219, "annotation": {"number": 11, "value": 55}, "group": "control_change"}, {"time": 76239, "annotation": {"number": 11, "value": 54}, "group": "control_change"}, {"time": 76259, "annotation": {"number": 11, "value": 53}, "group": "control_change"}, {"time": 76278, "annotation": {"number": 11, "value": 52}, "group": "control_change"}, {"time": 76298, "annotation": {"number": 11, "value": 51}, "group": "control_change"}, {"time": 76308, "annotation": {"number": 11, "value": 50}, "group": "control_change"}, {"time": 76328, "annotation": {"number": 11, "value": 49}, "group": "control_change"}, {"time": 76348, "annotation": {"number": 11, "value": 48}, "group": "control_change"}, {"time": 76368, "annotation": {"number": 11, "value": 47}, "group": "control_change"}, {"time": 76388, "annotation": {"number": 11, "value": 46}, "group": "control_change"}, {"time": 76408, "annotation": {"number": 11, "value": 45}, "group": "control_change"}, {"time": 76428, "annotation": {"number": 11, "value": 44}, "group": "control_change"}, {"time": 76448, "annotation": {"number": 11, "value": 43}, "group": "control_change"}, {"time": 76468, "annotation": {"number": 11, "value": 42}, "group": "control_change"}, {"time": 76488, "annotation": {"number": 11, "value": 41}, "group": "control_change"}, {"time": 76498, "annotation": {"number": 11, "value": 40}, "group": "control_change"}, {"time": 76518, "annotation": {"number": 11, "value": 39}, "group": "control_change"}, {"time": 76538, "annotation": {"number": 11, "value": 38}, "group": "control_change"}, {"time": 76558, "annotation": {"number": 11, "value": 37}, "group": "control_change"}, {"time": 76577, "annotation": {"number": 11, "value": 36}, "group": "control_change"}, {"time": 76597, "annotation": {"number": 11, "value": 35}, "group": "control_change"}, {"time": 76617, "annotation": {"number": 11, "value": 34}, "group": "control_change"}, {"time": 76637, "annotation": {"number": 11, "value": 33}, "group": "control_change"}, {"time": 76657, "annotation": {"number": 11, "value": 32}, "group": "control_change"}, {"time": 76677, "annotation": {"number": 11, "value": 31}, "group": "control_change"}, {"time": 76687, "annotation": {"number": 11, "value": 30}, "group": "control_change"}, {"time": 76707, "annotation": {"number": 11, "value": 29}, "group": "control_change"}, {"time": 76727, "annotation": {"number": 11, "value": 28}, "group": "control_change"}, {"time": 76747, "annotation": {"number": 11, "value": 27}, "group": "control_change"}, {"time": 76767, "annotation": {"number": 11, "value": 26}, "group": "control_change"}, {"time": 76787, "annotation": {"number": 11, "value": 25}, "group": "control_change"}, {"time": 76807, "annotation": {"number": 11, "value": 24}, "group": "control_change"}, {"time": 76827, "annotation": {"number": 11, "value": 23}, "group": "control_change"}, {"time": 76847, "annotation": {"number": 11, "value": 22}, "group": "control_change"}, {"time": 76867, "annotation": {"number": 11, "value": 21}, "group": "control_change"}, {"time": 76876, "annotation": {"number": 11, "value": 20}, "group": "control_change"}, {"time": 76896, "annotation": {"number": 11, "value": 19}, "group": "control_change"}, {"time": 76916, "annotation": {"number": 11, "value": 18}, "group": "control_change"}, {"time": 76936, "annotation": {"number": 11, "value": 17}, "group": "control_change"}, {"time": 76956, "annotation": {"number": 11, "value": 16}, "group": "control_change"}, {"time": 76976, "annotation": {"number": 11, "value": 15}, "group": "control_change"}, {"time": 76996, "annotation": {"number": 11, "value": 14}, "group": "control_change"}, {"time": 77016, "annotation": {"number": 11, "value": 13}, "group": "control_change"}, {"time": 77036, "annotation": {"number": 11, "value": 12}, "group": "control_change"}, {"time": 77056, "annotation": {"number": 11, "value": 11}, "group": "control_change"}, {"time": 77066, "annotation": {"number": 11, "value": 10}, "group": "control_change"}, {"time": 77086, "annotation": {"number": 11, "value": 9}, "group": "control_change"}, {"time": 77106, "annotation": {"number": 11, "value": 8}, "group": "control_change"}, {"time": 77126, "annotation": {"number": 11, "value": 7}, "group": "control_change"}, {"time": 77146, "annotation": {"number": 11, "value": 6}, "group": "control_change"}, {"time": 77166, "annotation": {"number": 11, "value": 5}, "group": "control_change"}, {"time": 77185, "annotation": {"number": 11, "value": 4}, "group": "control_change"}, {"time": 77205, "annotation": {"number": 11, "value": 3}, "group": "control_change"}, {"time": 77225, "annotation": {"number": 11, "value": 2}, "group": "control_change"}, {"time": 77245, "annotation": {"number": 11, "value": 1}, "group": "control_change"}, {"time": 77255, "annotation": {"number": 11, "value": 0}, "group": "control_change"}, {"time": 77275, "annotation": {"number": 11, "value": 100}, "group": "control_change"}, {"time": 81145, "annotation": {"number": 11, "value": 99}, "group": "control_change"}, {"time": 81165, "annotation": {"number": 11, "value": 98}, "group": "control_change"}, {"time": 81185, "annotation": {"number": 11, "value": 97}, "group": "control_change"}, {"time": 81204, "annotation": {"number": 11, "value": 96}, "group": "control_change"}, {"time": 81224, "annotation": {"number": 11, "value": 95}, "group": "control_change"}, {"time": 81244, "annotation": {"number": 11, "value": 94}, "group": "control_change"}, {"time": 81264, "annotation": {"number": 11, "value": 93}, "group": "control_change"}, {"time": 81284, "annotation": {"number": 11, "value": 92}, "group": "control_change"}, {"time": 81304, "annotation": {"number": 11, "value": 91}, "group": "control_change"}, {"time": 81314, "annotation": {"number": 11, "value": 90}, "group": "control_change"}, {"time": 81334, "annotation": {"number": 11, "value": 89}, "group": "control_change"}, {"time": 81354, "annotation": {"number": 11, "value": 88}, "group": "control_change"}, {"time": 81374, "annotation": {"number": 11, "value": 87}, "group": "control_change"}, {"time": 81394, "annotation": {"number": 11, "value": 86}, "group": "control_change"}, {"time": 81414, "annotation": {"number": 11, "value": 85}, "group": "control_change"}, {"time": 81434, "annotation": {"number": 11, "value": 84}, "group": "control_change"}, {"time": 81454, "annotation": {"number": 11, "value": 83}, "group": "control_change"}, {"time": 81474, "annotation": {"number": 11, "value": 82}, "group": "control_change"}, {"time": 81493, "annotation": {"number": 11, "value": 81}, "group": "control_change"}, {"time": 81503, "annotation": {"number": 11, "value": 80}, "group": "control_change"}, {"time": 81523, "annotation": {"number": 11, "value": 79}, "group": "control_change"}, {"time": 81543, "annotation": {"number": 11, "value": 78}, "group": "control_change"}, {"time": 81563, "annotation": {"number": 11, "value": 77}, "group": "control_change"}, {"time": 81583, "annotation": {"number": 11, "value": 76}, "group": "control_change"}, {"time": 81603, "annotation": {"number": 11, "value": 75}, "group": "control_change"}, {"time": 81623, "annotation": {"number": 11, "value": 74}, "group": "control_change"}, {"time": 81643, "annotation": {"number": 11, "value": 73}, "group": "control_change"}, {"time": 81663, "annotation": {"number": 11, "value": 72}, "group": "control_change"}, {"time": 81683, "annotation": {"number": 11, "value": 71}, "group": "control_change"}, {"time": 81693, "annotation": {"number": 11, "value": 70}, "group": "control_change"}, {"time": 81713, "annotation": {"number": 11, "value": 69}, "group": "control_change"}, {"time": 81733, "annotation": {"number": 11, "value": 68}, "group": "control_change"}, {"time": 81753, "annotation": {"number": 11, "value": 67}, "group": "control_change"}, {"time": 81773, "annotation": {"number": 11, "value": 66}, "group": "control_change"}, {"time": 81792, "annotation": {"number": 11, "value": 65}, "group": "control_change"}, {"time": 81812, "annotation": {"number": 11, "value": 64}, "group": "control_change"}, {"time": 81832, "annotation": {"number": 11, "value": 63}, "group": "control_change"}, {"time": 81852, "annotation": {"number": 11, "value": 62}, "group": "control_change"}, {"time": 81872, "annotation": {"number": 11, "value": 61}, "group": "control_change"}, {"time": 81882, "annotation": {"number": 11, "value": 60}, "group": "control_change"}, {"time": 81902, "annotation": {"number": 11, "value": 59}, "group": "control_change"}, {"time": 81922, "annotation": {"number": 11, "value": 58}, "group": "control_change"}, {"time": 81942, "annotation": {"number": 11, "value": 57}, "group": "control_change"}, {"time": 81962, "annotation": {"number": 11, "value": 56}, "group": "control_change"}, {"time": 81982, "annotation": {"number": 11, "value": 55}, "group": "control_change"}, {"time": 82002, "annotation": {"number": 11, "value": 54}, "group": "control_change"}, {"time": 82022, "annotation": {"number": 11, "value": 53}, "group": "control_change"}, {"time": 82042, "annotation": {"number": 11, "value": 52}, "group": "control_change"}, {"time": 82062, "annotation": {"number": 11, "value": 51}, "group": "control_change"}, {"time": 82072, "annotation": {"number": 11, "value": 50}, "group": "control_change"}, {"time": 82091, "annotation": {"number": 11, "value": 49}, "group": "control_change"}, {"time": 82111, "annotation": {"number": 11, "value": 48}, "group": "control_change"}, {"time": 82131, "annotation": {"number": 11, "value": 47}, "group": "control_change"}, {"time": 82151, "annotation": {"number": 11, "value": 46}, "group": "control_change"}, {"time": 82171, "annotation": {"number": 11, "value": 45}, "group": "control_change"}, {"time": 82191, "annotation": {"number": 11, "value": 44}, "group": "control_change"}, {"time": 82211, "annotation": {"number": 11, "value": 43}, "group": "control_change"}, {"time": 82231, "annotation": {"number": 11, "value": 42}, "group": "control_change"}, {"time": 82251, "annotation": {"number": 11, "value": 41}, "group": "control_change"}, {"time": 82261, "annotation": {"number": 11, "value": 40}, "group": "control_change"}, {"time": 82281, "annotation": {"number": 11, "value": 39}, "group": "control_change"}, {"time": 82301, "annotation": {"number": 11, "value": 38}, "group": "control_change"}, {"time": 82321, "annotation": {"number": 11, "value": 37}, "group": "control_change"}, {"time": 82341, "annotation": {"number": 11, "value": 36}, "group": "control_change"}, {"time": 82361, "annotation": {"number": 11, "value": 35}, "group": "control_change"}, {"time": 82381, "annotation": {"number": 11, "value": 34}, "group": "control_change"}, {"time": 82400, "annotation": {"number": 11, "value": 33}, "group": "control_change"}, {"time": 82420, "annotation": {"number": 11, "value": 32}, "group": "control_change"}, {"time": 82440, "annotation": {"number": 11, "value": 31}, "group": "control_change"}, {"time": 82450, "annotation": {"number": 11, "value": 30}, "group": "control_change"}, {"time": 82470, "annotation": {"number": 11, "value": 29}, "group": "control_change"}, {"time": 82490, "annotation": {"number": 11, "value": 28}, "group": "control_change"}, {"time": 82510, "annotation": {"number": 11, "value": 27}, "group": "control_change"}, {"time": 82530, "annotation": {"number": 11, "value": 26}, "group": "control_change"}, {"time": 82550, "annotation": {"number": 11, "value": 25}, "group": "control_change"}, {"time": 82570, "annotation": {"number": 11, "value": 24}, "group": "control_change"}, {"time": 82590, "annotation": {"number": 11, "value": 23}, "group": "control_change"}, {"time": 82610, "annotation": {"number": 11, "value": 22}, "group": "control_change"}, {"time": 82630, "annotation": {"number": 11, "value": 21}, "group": "control_change"}, {"time": 82640, "annotation": {"number": 11, "value": 20}, "group": "control_change"}, {"time": 82660, "annotation": {"number": 11, "value": 19}, "group": "control_change"}, {"time": 82680, "annotation": {"number": 11, "value": 18}, "group": "control_change"}, {"time": 82699, "annotation": {"number": 11, "value": 17}, "group": "control_change"}, {"time": 82719, "annotation": {"number": 11, "value": 16}, "group": "control_change"}, {"time": 82739, "annotation": {"number": 11, "value": 15}, "group": "control_change"}, {"time": 82759, "annotation": {"number": 11, "value": 14}, "group": "control_change"}, {"time": 82779, "annotation": {"number": 11, "value": 13}, "group": "control_change"}, {"time": 82799, "annotation": {"number": 11, "value": 12}, "group": "control_change"}, {"time": 82819, "annotation": {"number": 11, "value": 11}, "group": "control_change"}, {"time": 82829, "annotation": {"number": 11, "value": 10}, "group": "control_change"}, {"time": 82849, "annotation": {"number": 11, "value": 9}, "group": "control_change"}, {"time": 82869, "annotation": {"number": 11, "value": 8}, "group": "control_change"}, {"time": 82889, "annotation": {"number": 11, "value": 7}, "group": "control_change"}, {"time": 82909, "annotation": {"number": 11, "value": 6}, "group": "control_change"}, {"time": 82929, "annotation": {"number": 11, "value": 5}, "group": "control_change"}, {"time": 82949, "annotation": {"number": 11, "value": 4}, "group": "control_change"}, {"time": 82969, "annotation": {"number": 11, "value": 3}, "group": "control_change"}, {"time": 82988, "annotation": {"number": 11, "value": 2}, "group": "control_change"}, {"time": 83008, "annotation": {"number": 11, "value": 1}, "group": "control_change"}, {"time": 83018, "annotation": {"number": 11, "value": 0}, "group": "control_change"}, {"time": 83038, "annotation": {"number": 11, "value": 100}, "group": "control_change"}, {"time": 83058, "annotation": {"number": 11, "value": 99}, "group": "control_change"}, {"time": 83078, "annotation": {"number": 11, "value": 98}, "group": "control_change"}, {"time": 83098, "annotation": {"number": 11, "value": 97}, "group": "control_change"}, {"time": 83118, "annotation": {"number": 11, "value": 96}, "group": "control_change"}, {"time": 83138, "annotation": {"number": 11, "value": 95}, "group": "control_change"}, {"time": 83158, "annotation": {"number": 11, "value": 94}, "group": "control_change"}, {"time": 83178, "annotation": {"number": 11, "value": 93}, "group": "control_change"}, {"time": 83198, "annotation": {"number": 11, "value": 92}, "group": "control_change"}, {"time": 83218, "annotation": {"number": 11, "value": 91}, "group": "control_change"}, {"time": 83228, "annotation": {"number": 11, "value": 90}, "group": "control_change"}, {"time": 83248, "annotation": {"number": 11, "value": 89}, "group": "control_change"}, {"time": 83268, "annotation": {"number": 11, "value": 88}, "group": "control_change"}, {"time": 83287, "annotation": {"number": 11, "value": 87}, "group": "control_change"}, {"time": 83307, "annotation": {"number": 11, "value": 86}, "group": "control_change"}, {"time": 83327, "annotation": {"number": 11, "value": 85}, "group": "control_change"}, {"time": 83347, "annotation": {"number": 11, "value": 84}, "group": "control_change"}, {"time": 83367, "annotation": {"number": 11, "value": 83}, "group": "control_change"}, {"time": 83387, "annotation": {"number": 11, "value": 82}, "group": "control_change"}, {"time": 83407, "annotation": {"number": 11, "value": 81}, "group": "control_change"}, {"time": 83417, "annotation": {"number": 11, "value": 80}, "group": "control_change"}, {"time": 83437, "annotation": {"number": 11, "value": 79}, "group": "control_change"}, {"time": 83457, "annotation": {"number": 11, "value": 78}, "group": "control_change"}, {"time": 83477, "annotation": {"number": 11, "value": 77}, "group": "control_change"}, {"time": 83497, "annotation": {"number": 11, "value": 76}, "group": "control_change"}, {"time": 83517, "annotation": {"number": 11, "value": 75}, "group": "control_change"}, {"time": 83537, "annotation": {"number": 11, "value": 74}, "group": "control_change"}, {"time": 83557, "annotation": {"number": 11, "value": 73}, "group": "control_change"}, {"time": 83577, "annotation": {"number": 11, "value": 72}, "group": "control_change"}, {"time": 83596, "annotation": {"number": 11, "value": 71}, "group": "control_change"}, {"time": 83606, "annotation": {"number": 11, "value": 70}, "group": "control_change"}, {"time": 83626, "annotation": {"number": 11, "value": 69}, "group": "control_change"}, {"time": 83646, "annotation": {"number": 11, "value": 68}, "group": "control_change"}, {"time": 83666, "annotation": {"number": 11, "value": 67}, "group": "control_change"}, {"time": 83686, "annotation": {"number": 11, "value": 66}, "group": "control_change"}, {"time": 83706, "annotation": {"number": 11, "value": 65}, "group": "control_change"}, {"time": 83726, "annotation": {"number": 11, "value": 64}, "group": "control_change"}, {"time": 83746, "annotation": {"number": 11, "value": 63}, "group": "control_change"}, {"time": 83766, "annotation": {"number": 11, "value": 62}, "group": "control_change"}, {"time": 83786, "annotation": {"number": 11, "value": 61}, "group": "control_change"}, {"time": 83796, "annotation": {"number": 11, "value": 60}, "group": "control_change"}, {"time": 83816, "annotation": {"number": 11, "value": 59}, "group": "control_change"}, {"time": 83836, "annotation": {"number": 11, "value": 58}, "group": "control_change"}, {"time": 83856, "annotation": {"number": 11, "value": 57}, "group": "control_change"}, {"time": 83876, "annotation": {"number": 11, "value": 56}, "group": "control_change"}, {"time": 83895, "annotation": {"number": 11, "value": 55}, "group": "control_change"}, {"time": 83915, "annotation": {"number": 11, "value": 54}, "group": "control_change"}, {"time": 83935, "annotation": {"number": 11, "value": 53}, "group": "control_change"}, {"time": 83955, "annotation": {"number": 11, "value": 52}, "group": "control_change"}, {"time": 83975, "annotation": {"number": 11, "value": 51}, "group": "control_change"}, {"time": 83985, "annotation": {"number": 11, "value": 50}, "group": "control_change"}, {"time": 84005, "annotation": {"number": 11, "value": 49}, "group": "control_change"}, {"time": 84026, "annotation": {"number": 11, "value": 48}, "group": "control_change"}, {"time": 84046, "annotation": {"number": 11, "value": 47}, "group": "control_change"}, {"time": 84066, "annotation": {"number": 11, "value": 46}, "group": "control_change"}, {"time": 84087, "annotation": {"number": 11, "value": 45}, "group": "control_change"}, {"time": 84107, "annotation": {"number": 11, "value": 44}, "group": "control_change"}, {"time": 84128, "annotation": {"number": 11, "value": 43}, "group": "control_change"}, {"time": 84148, "annotation": {"number": 11, "value": 42}, "group": "control_change"}, {"time": 84168, "annotation": {"number": 11, "value": 41}, "group": "control_change"}, {"time": 84179, "annotation": {"number": 11, "value": 40}, "group": "control_change"}, {"time": 84199, "annotation": {"number": 11, "value": 39}, "group": "control_change"}, {"time": 84220, "annotation": {"number": 11, "value": 38}, "group": "control_change"}, {"time": 84240, "annotation": {"number": 11, "value": 37}, "group": "control_change"}, {"time": 84260, "annotation": {"number": 11, "value": 36}, "group": "control_change"}, {"time": 84281, "annotation": {"number": 11, "value": 35}, "group": "control_change"}, {"time": 84301, "annotation": {"number": 11, "value": 34}, "group": "control_change"}, {"time": 84322, "annotation": {"number": 11, "value": 33}, "group": "control_change"}, {"time": 84342, "annotation": {"number": 11, "value": 32}, "group": "control_change"}, {"time": 84362, "annotation": {"number": 11, "value": 31}, "group": "control_change"}, {"time": 84373, "annotation": {"number": 11, "value": 30}, "group": "control_change"}, {"time": 84393, "annotation": {"number": 11, "value": 29}, "group": "control_change"}, {"time": 84413, "annotation": {"number": 11, "value": 28}, "group": "control_change"}, {"time": 84434, "annotation": {"number": 11, "value": 27}, "group": "control_change"}, {"time": 84454, "annotation": {"number": 11, "value": 26}, "group": "control_change"}, {"time": 84475, "annotation": {"number": 11, "value": 25}, "group": "control_change"}, {"time": 84495, "annotation": {"number": 11, "value": 24}, "group": "control_change"}, {"time": 84515, "annotation": {"number": 11, "value": 23}, "group": "control_change"}, {"time": 84535, "annotation": {"number": 11, "value": 22}, "group": "control_change"}, {"time": 84554, "annotation": {"number": 11, "value": 21}, "group": "control_change"}, {"time": 84564, "annotation": {"number": 11, "value": 20}, "group": "control_change"}, {"time": 84584, "annotation": {"number": 11, "value": 19}, "group": "control_change"}, {"time": 84604, "annotation": {"number": 11, "value": 18}, "group": "control_change"}, {"time": 84624, "annotation": {"number": 11, "value": 17}, "group": "control_change"}, {"time": 84644, "annotation": {"number": 11, "value": 16}, "group": "control_change"}, {"time": 84664, "annotation": {"number": 11, "value": 15}, "group": "control_change"}, {"time": 84684, "annotation": {"number": 11, "value": 14}, "group": "control_change"}, {"time": 84704, "annotation": {"number": 11, "value": 13}, "group": "control_change"}, {"time": 84724, "annotation": {"number": 11, "value": 12}, "group": "control_change"}, {"time": 84744, "annotation": {"number": 11, "value": 11}, "group": "control_change"}, {"time": 84754, "annotation": {"number": 11, "value": 10}, "group": "control_change"}, {"time": 84774, "annotation": {"number": 11, "value": 9}, "group": "control_change"}, {"time": 84794, "annotation": {"number": 11, "value": 8}, "group": "control_change"}, {"time": 84814, "annotation": {"number": 11, "value": 7}, "group": "control_change"}, {"time": 84834, "annotation": {"number": 11, "value": 6}, "group": "control_change"}, {"time": 84853, "annotation": {"number": 11, "value": 5}, "group": "control_change"}, {"time": 84873, "annotation": {"number": 11, "value": 4}, "group": "control_change"}, {"time": 84893, "annotation": {"number": 11, "value": 3}, "group": "control_change"}, {"time": 84913, "annotation": {"number": 11, "value": 2}, "group": "control_change"}, {"time": 84933, "annotation": {"number": 11, "value": 1}, "group": "control_change"}, {"time": 84943, "annotation": {"number": 11, "value": 0}, "group": "control_change"}, {"time": 84963, "annotation": {"number": 11, "value": 100}, "group": "control_change"}, {"time": 102261, "annotation": {"number": 11, "value": 99}, "group": "control_change"}, {"time": 102281, "annotation": {"number": 11, "value": 98}, "group": "control_change"}, {"time": 102301, "annotation": {"number": 11, "value": 97}, "group": "control_change"}, {"time": 102321, "annotation": {"number": 11, "value": 96}, "group": "control_change"}, {"time": 102341, "annotation": {"number": 11, "value": 95}, "group": "control_change"}, {"time": 102361, "annotation": {"number": 11, "value": 94}, "group": "control_change"}, {"time": 102381, "annotation": {"number": 11, "value": 93}, "group": "control_change"}, {"time": 102401, "annotation": {"number": 11, "value": 92}, "group": "control_change"}, {"time": 102421, "annotation": {"number": 11, "value": 91}, "group": "control_change"}, {"time": 102431, "annotation": {"number": 11, "value": 90}, "group": "control_change"}, {"time": 102451, "annotation": {"number": 11, "value": 89}, "group": "control_change"}, {"time": 102471, "annotation": {"number": 11, "value": 88}, "group": "control_change"}, {"time": 102491, "annotation": {"number": 11, "value": 87}, "group": "control_change"}, {"time": 102511, "annotation": {"number": 11, "value": 86}, "group": "control_change"}, {"time": 102531, "annotation": {"number": 11, "value": 85}, "group": "control_change"}, {"time": 102550, "annotation": {"number": 11, "value": 84}, "group": "control_change"}, {"time": 102570, "annotation": {"number": 11, "value": 83}, "group": "control_change"}, {"time": 102590, "annotation": {"number": 11, "value": 82}, "group": "control_change"}, {"time": 102610, "annotation": {"number": 11, "value": 81}, "group": "control_change"}, {"time": 102620, "annotation": {"number": 11, "value": 80}, "group": "control_change"}, {"time": 102640, "annotation": {"number": 11, "value": 79}, "group": "control_change"}, {"time": 102660, "annotation": {"number": 11, "value": 78}, "group": "control_change"}, {"time": 102680, "annotation": {"number": 11, "value": 77}, "group": "control_change"}, {"time": 102700, "annotation": {"number": 11, "value": 76}, "group": "control_change"}, {"time": 102720, "annotation": {"number": 11, "value": 75}, "group": "control_change"}, {"time": 102740, "annotation": {"number": 11, "value": 74}, "group": "control_change"}, {"time": 102760, "annotation": {"number": 11, "value": 73}, "group": "control_change"}, {"time": 102780, "annotation": {"number": 11, "value": 72}, "group": "control_change"}, {"time": 102800, "annotation": {"number": 11, "value": 71}, "group": "control_change"}, {"time": 102810, "annotation": {"number": 11, "value": 70}, "group": "control_change"}, {"time": 102830, "annotation": {"number": 11, "value": 69}, "group": "control_change"}, {"time": 102849, "annotation": {"number": 11, "value": 68}, "group": "control_change"}, {"time": 102869, "annotation": {"number": 11, "value": 67}, "group": "control_change"}, {"time": 102889, "annotation": {"number": 11, "value": 66}, "group": "control_change"}, {"time": 102909, "annotation": {"number": 11, "value": 65}, "group": "control_change"}, {"time": 102929, "annotation": {"number": 11, "value": 64}, "group": "control_change"}, {"time": 102949, "annotation": {"number": 11, "value": 63}, "group": "control_change"}, {"time": 102969, "annotation": {"number": 11, "value": 62}, "group": "control_change"}, {"time": 102989, "annotation": {"number": 11, "value": 61}, "group": "control_change"}, {"time": 102999, "annotation": {"number": 11, "value": 60}, "group": "control_change"}, {"time": 103019, "annotation": {"number": 11, "value": 59}, "group": "control_change"}, {"time": 103039, "annotation": {"number": 11, "value": 58}, "group": "control_change"}, {"time": 103059, "annotation": {"number": 11, "value": 57}, "group": "control_change"}, {"time": 103079, "annotation": {"number": 11, "value": 56}, "group": "control_change"}, {"time": 103099, "annotation": {"number": 11, "value": 55}, "group": "control_change"}, {"time": 103119, "annotation": {"number": 11, "value": 54}, "group": "control_change"}, {"time": 103139, "annotation": {"number": 11, "value": 53}, "group": "control_change"}, {"time": 103158, "annotation": {"number": 11, "value": 52}, "group": "control_change"}, {"time": 103178, "annotation": {"number": 11, "value": 51}, "group": "control_change"}, {"time": 103188, "annotation": {"number": 11, "value": 50}, "group": "control_change"}, {"time": 103208, "annotation": {"number": 11, "value": 49}, "group": "control_change"}, {"time": 103228, "annotation": {"number": 11, "value": 48}, "group": "control_change"}, {"time": 103248, "annotation": {"number": 11, "value": 47}, "group": "control_change"}, {"time": 103268, "annotation": {"number": 11, "value": 46}, "group": "control_change"}, {"time": 103288, "annotation": {"number": 11, "value": 45}, "group": "control_change"}, {"time": 103308, "annotation": {"number": 11, "value": 44}, "group": "control_change"}, {"time": 103328, "annotation": {"number": 11, "value": 43}, "group": "control_change"}, {"time": 103348, "annotation": {"number": 11, "value": 42}, "group": "control_change"}, {"time": 103368, "annotation": {"number": 11, "value": 41}, "group": "control_change"}, {"time": 103378, "annotation": {"number": 11, "value": 40}, "group": "control_change"}, {"time": 103398, "annotation": {"number": 11, "value": 39}, "group": "control_change"}, {"time": 103418, "annotation": {"number": 11, "value": 38}, "group": "control_change"}, {"time": 103438, "annotation": {"number": 11, "value": 37}, "group": "control_change"}, {"time": 103457, "annotation": {"number": 11, "value": 36}, "group": "control_change"}, {"time": 103477, "annotation": {"number": 11, "value": 35}, "group": "control_change"}, {"time": 103497, "annotation": {"number": 11, "value": 34}, "group": "control_change"}, {"time": 103517, "annotation": {"number": 11, "value": 33}, "group": "control_change"}, {"time": 103537, "annotation": {"number": 11, "value": 32}, "group": "control_change"}, {"time": 103557, "annotation": {"number": 11, "value": 31}, "group": "control_change"}, {"time": 103567, "annotation": {"number": 11, "value": 30}, "group": "control_change"}, {"time": 103587, "annotation": {"number": 11, "value": 29}, "group": "control_change"}, {"time": 103607, "annotation": {"number": 11, "value": 28}, "group": "control_change"}, {"time": 103627, "annotation": {"number": 11, "value": 27}, "group": "control_change"}, {"time": 103647, "annotation": {"number": 11, "value": 26}, "group": "control_change"}, {"time": 103667, "annotation": {"number": 11, "value": 25}, "group": "control_change"}, {"time": 103687, "annotation": {"number": 11, "value": 24}, "group": "control_change"}, {"time": 103707, "annotation": {"number": 11, "value": 23}, "group": "control_change"}, {"time": 103727, "annotation": {"number": 11, "value": 22}, "group": "control_change"}, {"time": 103746, "annotation": {"number": 11, "value": 21}, "group": "control_change"}, {"time": 103756, "annotation": {"number": 11, "value": 20}, "group": "control_change"}, {"time": 103776, "annotation": {"number": 11, "value": 19}, "group": "control_change"}, {"time": 103796, "annotation": {"number": 11, "value": 18}, "group": "control_change"}, {"time": 103816, "annotation": {"number": 11, "value": 17}, "group": "control_change"}, {"time": 103836, "annotation": {"number": 11, "value": 16}, "group": "control_change"}, {"time": 103856, "annotation": {"number": 11, "value": 15}, "group": "control_change"}, {"time": 103876, "annotation": {"number": 11, "value": 14}, "group": "control_change"}, {"time": 103896, "annotation": {"number": 11, "value": 13}, "group": "control_change"}, {"time": 103916, "annotation": {"number": 11, "value": 12}, "group": "control_change"}, {"time": 103936, "annotation": {"number": 11, "value": 11}, "group": "control_change"}, {"time": 103946, "annotation": {"number": 11, "value": 10}, "group": "control_change"}, {"time": 103966, "annotation": {"number": 11, "value": 9}, "group": "control_change"}, {"time": 103986, "annotation": {"number": 11, "value": 8}, "group": "control_change"}, {"time": 104006, "annotation": {"number": 11, "value": 7}, "group": "control_change"}, {"time": 104026, "annotation": {"number": 11, "value": 6}, "group": "control_change"}, {"time": 104045, "annotation": {"number": 11, "value": 5}, "group": "control_change"}, {"time": 104065, "annotation": {"number": 11, "value": 4}, "group": "control_change"}, {"time": 104085, "annotation": {"number": 11, "value": 3}, "group": "control_change"}, {"time": 104105, "annotation": {"number": 11, "value": 2}, "group": "control_change"}, {"time": 104125, "annotation": {"number": 11, "value": 1}, "group": "control_change"}, {"time": 104135, "annotation": {"number": 11, "value": 0}, "group": "control_change"}, {"time": 104155, "annotation": {"number": 11, "value": 100}, "group": "control_change"}, {"time": 127217, "annotation": {"number": 11, "value": 99}, "group": "control_change"}, {"time": 127237, "annotation": {"number": 11, "value": 98}, "group": "control_change"}, {"time": 127256, "annotation": {"number": 11, "value": 97}, "group": "control_change"}, {"time": 127276, "annotation": {"number": 11, "value": 96}, "group": "control_change"}, {"time": 127296, "annotation": {"number": 11, "value": 95}, "group": "control_change"}, {"time": 127316, "annotation": {"number": 11, "value": 94}, "group": "control_change"}, {"time": 127336, "annotation": {"number": 11, "value": 93}, "group": "control_change"}, {"time": 127356, "annotation": {"number": 11, "value": 92}, "group": "control_change"}, {"time": 127376, "annotation": {"number": 11, "value": 91}, "group": "control_change"}, {"time": 127386, "annotation": {"number": 11, "value": 90}, "group": "control_change"}, {"time": 127406, "annotation": {"number": 11, "value": 89}, "group": "control_change"}, {"time": 127426, "annotation": {"number": 11, "value": 88}, "group": "control_change"}, {"time": 127446, "annotation": {"number": 11, "value": 87}, "group": "control_change"}, {"time": 127466, "annotation": {"number": 11, "value": 86}, "group": "control_change"}, {"time": 127486, "annotation": {"number": 11, "value": 85}, "group": "control_change"}, {"time": 127506, "annotation": {"number": 11, "value": 84}, "group": "control_change"}, {"time": 127526, "annotation": {"number": 11, "value": 83}, "group": "control_change"}, {"time": 127546, "annotation": {"number": 11, "value": 82}, "group": "control_change"}, {"time": 127565, "annotation": {"number": 11, "value": 81}, "group": "control_change"}, {"time": 127575, "annotation": {"number": 11, "value": 80}, "group": "control_change"}, {"time": 127595, "annotation": {"number": 11, "value": 79}, "group": "control_change"}, {"time": 127615, "annotation": {"number": 11, "value": 78}, "group": "control_change"}, {"time": 127635, "annotation": {"number": 11, "value": 77}, "group": "control_change"}, {"time": 127655, "annotation": {"number": 11, "value": 76}, "group": "control_change"}, {"time": 127675, "annotation": {"number": 11, "value": 75}, "group": "control_change"}, {"time": 127695, "annotation": {"number": 11, "value": 74}, "group": "control_change"}, {"time": 127716, "annotation": {"number": 11, "value": 73}, "group": "control_change"}, {"time": 127736, "annotation": {"number": 11, "value": 72}, "group": "control_change"}, {"time": 127757, "annotation": {"number": 11, "value": 71}, "group": "control_change"}, {"time": 127767, "annotation": {"number": 11, "value": 70}, "group": "control_change"}, {"time": 127787, "annotation": {"number": 11, "value": 69}, "group": "control_change"}, {"time": 127808, "annotation": {"number": 11, "value": 68}, "group": "control_change"}, {"time": 127828, "annotation": {"number": 11, "value": 67}, "group": "control_change"}, {"time": 127848, "annotation": {"number": 11, "value": 66}, "group": "control_change"}, {"time": 127869, "annotation": {"number": 11, "value": 65}, "group": "control_change"}, {"time": 127889, "annotation": {"number": 11, "value": 64}, "group": "control_change"}, {"time": 127910, "annotation": {"number": 11, "value": 63}, "group": "control_change"}, {"time": 127930, "annotation": {"number": 11, "value": 62}, "group": "control_change"}, {"time": 127950, "annotation": {"number": 11, "value": 61}, "group": "control_change"}, {"time": 127961, "annotation": {"number": 11, "value": 60}, "group": "control_change"}, {"time": 127981, "annotation": {"number": 11, "value": 59}, "group": "control_change"}, {"time": 128002, "annotation": {"number": 11, "value": 58}, "group": "control_change"}, {"time": 128022, "annotation": {"number": 11, "value": 57}, "group": "control_change"}, {"time": 128042, "annotation": {"number": 11, "value": 56}, "group": "control_change"}, {"time": 128063, "annotation": {"number": 11, "value": 55}, "group": "control_change"}, {"time": 128083, "annotation": {"number": 11, "value": 54}, "group": "control_change"}, {"time": 128104, "annotation": {"number": 11, "value": 53}, "group": "control_change"}, {"time": 128124, "annotation": {"number": 11, "value": 52}, "group": "control_change"}, {"time": 128144, "annotation": {"number": 11, "value": 51}, "group": "control_change"}, {"time": 128155, "annotation": {"number": 11, "value": 50}, "group": "control_change"}, {"time": 128175, "annotation": {"number": 11, "value": 49}, "group": "control_change"}, {"time": 128195, "annotation": {"number": 11, "value": 48}, "group": "control_change"}, {"time": 128214, "annotation": {"number": 11, "value": 47}, "group": "control_change"}, {"time": 128234, "annotation": {"number": 11, "value": 46}, "group": "control_change"}, {"time": 128254, "annotation": {"number": 11, "value": 45}, "group": "control_change"}, {"time": 128274, "annotation": {"number": 11, "value": 44}, "group": "control_change"}, {"time": 128294, "annotation": {"number": 11, "value": 43}, "group": "control_change"}, {"time": 128314, "annotation": {"number": 11, "value": 42}, "group": "control_change"}, {"time": 128334, "annotation": {"number": 11, "value": 41}, "group": "control_change"}, {"time": 128344, "annotation": {"number": 11, "value": 40}, "group": "control_change"}, {"time": 128364, "annotation": {"number": 11, "value": 39}, "group": "control_change"}, {"time": 128384, "annotation": {"number": 11, "value": 38}, "group": "control_change"}, {"time": 128404, "annotation": {"number": 11, "value": 37}, "group": "control_change"}, {"time": 128424, "annotation": {"number": 11, "value": 36}, "group": "control_change"}, {"time": 128444, "annotation": {"number": 11, "value": 35}, "group": "control_change"}, {"time": 128464, "annotation": {"number": 11, "value": 34}, "group": "control_change"}, {"time": 128484, "annotation": {"number": 11, "value": 33}, "group": "control_change"}, {"time": 128504, "annotation": {"number": 11, "value": 32}, "group": "control_change"}, {"time": 128523, "annotation": {"number": 11, "value": 31}, "group": "control_change"}, {"time": 128533, "annotation": {"number": 11, "value": 30}, "group": "control_change"}, {"time": 128553, "annotation": {"number": 11, "value": 29}, "group": "control_change"}, {"time": 128573, "annotation": {"number": 11, "value": 28}, "group": "control_change"}, {"time": 128593, "annotation": {"number": 11, "value": 27}, "group": "control_change"}, {"time": 128613, "annotation": {"number": 11, "value": 26}, "group": "control_change"}, {"time": 128633, "annotation": {"number": 11, "value": 25}, "group": "control_change"}, {"time": 128653, "annotation": {"number": 11, "value": 24}, "group": "control_change"}, {"time": 128673, "annotation": {"number": 11, "value": 23}, "group": "control_change"}, {"time": 128693, "annotation": {"number": 11, "value": 22}, "group": "control_change"}, {"time": 128713, "annotation": {"number": 11, "value": 21}, "group": "control_change"}, {"time": 128723, "annotation": {"number": 11, "value": 20}, "group": "control_change"}, {"time": 128743, "annotation": {"number": 11, "value": 19}, "group": "control_change"}, {"time": 128763, "annotation": {"number": 11, "value": 18}, "group": "control_change"}, {"time": 128783, "annotation": {"number": 11, "value": 17}, "group": "control_change"}, {"time": 128803, "annotation": {"number": 11, "value": 16}, "group": "control_change"}, {"time": 128822, "annotation": {"number": 11, "value": 15}, "group": "control_change"}, {"time": 128842, "annotation": {"number": 11, "value": 14}, "group": "control_change"}, {"time": 128862, "annotation": {"number": 11, "value": 13}, "group": "control_change"}, {"time": 128882, "annotation": {"number": 11, "value": 12}, "group": "control_change"}, {"time": 128902, "annotation": {"number": 11, "value": 11}, "group": "control_change"}, {"time": 128912, "annotation": {"number": 11, "value": 10}, "group": "control_change"}, {"time": 128932, "annotation": {"number": 11, "value": 9}, "group": "control_change"}, {"time": 128952, "annotation": {"number": 11, "value": 8}, "group": "control_change"}, {"time": 128972, "annotation": {"number": 11, "value": 7}, "group": "control_change"}, {"time": 128992, "annotation": {"number": 11, "value": 6}, "group": "control_change"}, {"time": 129012, "annotation": {"number": 11, "value": 5}, "group": "control_change"}, {"time": 129032, "annotation": {"number": 11, "value": 4}, "group": "control_change"}, {"time": 129052, "annotation": {"number": 11, "value": 3}, "group": "control_change"}, {"time": 129072, "annotation": {"number": 11, "value": 2}, "group": "control_change"}, {"time": 129092, "annotation": {"number": 11, "value": 1}, "group": "control_change"}, {"time": 129102, "annotation": {"number": 11, "value": 0}, "group": "control_change"}, {"time": 130078, "annotation": {"number": 11, "value": 100}, "group": "control_change"}, {"time": 131055, "annotation": {"number": 11, "value": 99}, "group": "control_change"}, {"time": 131076, "annotation": {"number": 11, "value": 98}, "group": "control_change"}, {"time": 131096, "annotation": {"number": 11, "value": 97}, "group": "control_change"}, {"time": 131117, "annotation": {"number": 11, "value": 96}, "group": "control_change"}, {"time": 131137, "annotation": {"number": 11, "value": 95}, "group": "control_change"}, {"time": 131157, "annotation": {"number": 11, "value": 94}, "group": "control_change"}, {"time": 131178, "annotation": {"number": 11, "value": 93}, "group": "control_change"}, {"time": 131198, "annotation": {"number": 11, "value": 92}, "group": "control_change"}, {"time": 131219, "annotation": {"number": 11, "value": 91}, "group": "control_change"}, {"time": 131229, "annotation": {"number": 11, "value": 90}, "group": "control_change"}, {"time": 131249, "annotation": {"number": 11, "value": 89}, "group": "control_change"}, {"time": 131270, "annotation": {"number": 11, "value": 88}, "group": "control_change"}, {"time": 131290, "annotation": {"number": 11, "value": 87}, "group": "control_change"}, {"time": 131310, "annotation": {"number": 11, "value": 86}, "group": "control_change"}, {"time": 131331, "annotation": {"number": 11, "value": 85}, "group": "control_change"}, {"time": 131351, "annotation": {"number": 11, "value": 84}, "group": "control_change"}, {"time": 131372, "annotation": {"number": 11, "value": 83}, "group": "control_change"}, {"time": 131392, "annotation": {"number": 11, "value": 82}, "group": "control_change"}, {"time": 131413, "annotation": {"number": 11, "value": 81}, "group": "control_change"}, {"time": 131423, "annotation": {"number": 11, "value": 80}, "group": "control_change"}, {"time": 131443, "annotation": {"number": 11, "value": 79}, "group": "control_change"}, {"time": 131464, "annotation": {"number": 11, "value": 78}, "group": "control_change"}, {"time": 131484, "annotation": {"number": 11, "value": 77}, "group": "control_change"}, {"time": 131504, "annotation": {"number": 11, "value": 76}, "group": "control_change"}, {"time": 131525, "annotation": {"number": 11, "value": 75}, "group": "control_change"}, {"time": 131545, "annotation": {"number": 11, "value": 74}, "group": "control_change"}, {"time": 131565, "annotation": {"number": 11, "value": 73}, "group": "control_change"}, {"time": 131584, "annotation": {"number": 11, "value": 72}, "group": "control_change"}, {"time": 131604, "annotation": {"number": 11, "value": 71}, "group": "control_change"}, {"time": 131614, "annotation": {"number": 11, "value": 70}, "group": "control_change"}, {"time": 131634, "annotation": {"number": 11, "value": 69}, "group": "control_change"}, {"time": 131654, "annotation": {"number": 11, "value": 68}, "group": "control_change"}, {"time": 131674, "annotation": {"number": 11, "value": 67}, "group": "control_change"}, {"time": 131694, "annotation": {"number": 11, "value": 66}, "group": "control_change"}, {"time": 131714, "annotation": {"number": 11, "value": 65}, "group": "control_change"}, {"time": 131734, "annotation": {"number": 11, "value": 64}, "group": "control_change"}, {"time": 131754, "annotation": {"number": 11, "value": 63}, "group": "control_change"}, {"time": 131774, "annotation": {"number": 11, "value": 62}, "group": "control_change"}, {"time": 131794, "annotation": {"number": 11, "value": 61}, "group": "control_change"}, {"time": 131804, "annotation": {"number": 11, "value": 60}, "group": "control_change"}, {"time": 131824, "annotation": {"number": 11, "value": 59}, "group": "control_change"}, {"time": 131844, "annotation": {"number": 11, "value": 58}, "group": "control_change"}, {"time": 131864, "annotation": {"number": 11, "value": 57}, "group": "control_change"}, {"time": 131883, "annotation": {"number": 11, "value": 56}, "group": "control_change"}, {"time": 131903, "annotation": {"number": 11, "value": 55}, "group": "control_change"}, {"time": 131923, "annotation": {"number": 11, "value": 54}, "group": "control_change"}, {"time": 131943, "annotation": {"number": 11, "value": 53}, "group": "control_change"}, {"time": 131963, "annotation": {"number": 11, "value": 52}, "group": "control_change"}, {"time": 131983, "annotation": {"number": 11, "value": 51}, "group": "control_change"}, {"time": 131993, "annotation": {"number": 11, "value": 50}, "group": "control_change"}, {"time": 132013, "annotation": {"number": 11, "value": 49}, "group": "control_change"}, {"time": 132033, "annotation": {"number": 11, "value": 48}, "group": "control_change"}, {"time": 132053, "annotation": {"number": 11, "value": 47}, "group": "control_change"}, {"time": 132073, "annotation": {"number": 11, "value": 46}, "group": "control_change"}, {"time": 132093, "annotation": {"number": 11, "value": 45}, "group": "control_change"}, {"time": 132113, "annotation": {"number": 11, "value": 44}, "group": "control_change"}, {"time": 132133, "annotation": {"number": 11, "value": 43}, "group": "control_change"}, {"time": 132153, "annotation": {"number": 11, "value": 42}, "group": "control_change"}, {"time": 132172, "annotation": {"number": 11, "value": 41}, "group": "control_change"}, {"time": 132182, "annotation": {"number": 11, "value": 40}, "group": "control_change"}, {"time": 132202, "annotation": {"number": 11, "value": 39}, "group": "control_change"}, {"time": 132222, "annotation": {"number": 11, "value": 38}, "group": "control_change"}, {"time": 132242, "annotation": {"number": 11, "value": 37}, "group": "control_change"}, {"time": 132262, "annotation": {"number": 11, "value": 36}, "group": "control_change"}, {"time": 132282, "annotation": {"number": 11, "value": 35}, "group": "control_change"}, {"time": 132302, "annotation": {"number": 11, "value": 34}, "group": "control_change"}, {"time": 132322, "annotation": {"number": 11, "value": 33}, "group": "control_change"}, {"time": 132342, "annotation": {"number": 11, "value": 32}, "group": "control_change"}, {"time": 132362, "annotation": {"number": 11, "value": 31}, "group": "control_change"}, {"time": 132372, "annotation": {"number": 11, "value": 30}, "group": "control_change"}, {"time": 132392, "annotation": {"number": 11, "value": 29}, "group": "control_change"}, {"time": 132412, "annotation": {"number": 11, "value": 28}, "group": "control_change"}, {"time": 132432, "annotation": {"number": 11, "value": 27}, "group": "control_change"}, {"time": 132452, "annotation": {"number": 11, "value": 26}, "group": "control_change"}, {"time": 132471, "annotation": {"number": 11, "value": 25}, "group": "control_change"}, {"time": 132491, "annotation": {"number": 11, "value": 24}, "group": "control_change"}, {"time": 132511, "annotation": {"number": 11, "value": 23}, "group": "control_change"}, {"time": 132531, "annotation": {"number": 11, "value": 22}, "group": "control_change"}, {"time": 132551, "annotation": {"number": 11, "value": 21}, "group": "control_change"}, {"time": 132561, "annotation": {"number": 11, "value": 20}, "group": "control_change"}, {"time": 132581, "annotation": {"number": 11, "value": 19}, "group": "control_change"}, {"time": 132601, "annotation": {"number": 11, "value": 18}, "group": "control_change"}, {"time": 132621, "annotation": {"number": 11, "value": 17}, "group": "control_change"}, {"time": 132641, "annotation": {"number": 11, "value": 16}, "group": "control_change"}, {"time": 132661, "annotation": {"number": 11, "value": 15}, "group": "control_change"}, {"time": 132681, "annotation": {"number": 11, "value": 14}, "group": "control_change"}, {"time": 132701, "annotation": {"number": 11, "value": 13}, "group": "control_change"}, {"time": 132721, "annotation": {"number": 11, "value": 12}, "group": "control_change"}, {"time": 132741, "annotation": {"number": 11, "value": 11}, "group": "control_change"}, {"time": 132751, "annotation": {"number": 11, "value": 10}, "group": "control_change"}, {"time": 132770, "annotation": {"number": 11, "value": 9}, "group": "control_change"}, {"time": 132790, "annotation": {"number": 11, "value": 8}, "group": "control_change"}, {"time": 132810, "annotation": {"number": 11, "value": 7}, "group": "control_change"}, {"time": 132830, "annotation": {"number": 11, "value": 6}, "group": "control_change"}, {"time": 132850, "annotation": {"number": 11, "value": 5}, "group": "control_change"}, {"time": 132870, "annotation": {"number": 11, "value": 4}, "group": "control_change"}, {"time": 132890, "annotation": {"number": 11, "value": 3}, "group": "control_change"}, {"time": 132910, "annotation": {"number": 11, "value": 2}, "group": "control_change"}, {"time": 132930, "annotation": {"number": 11, "value": 1}, "group": "control_change"}, {"time": 132940, "annotation": {"number": 11, "value": 0}, "group": "control_change"}, {"time": 133917, "annotation": {"number": 11, "value": 100}, "group": "control_change"}, {"time": 204018, "annotation": {"number": 11, "value": 99}, "group": "control_change"}, {"time": 204038, "annotation": {"number": 11, "value": 98}, "group": "control_change"}, {"time": 204058, "annotation": {"number": 11, "value": 97}, "group": "control_change"}, {"time": 204078, "annotation": {"number": 11, "value": 96}, "group": "control_change"}, {"time": 204098, "annotation": {"number": 11, "value": 95}, "group": "control_change"}, {"time": 204118, "annotation": {"number": 11, "value": 94}, "group": "control_change"}, {"time": 204138, "annotation": {"number": 11, "value": 93}, "group": "control_change"}, {"time": 204158, "annotation": {"number": 11, "value": 92}, "group": "control_change"}, {"time": 204178, "annotation": {"number": 11, "value": 91}, "group": "control_change"}, {"time": 204188, "annotation": {"number": 11, "value": 90}, "group": "control_change"}, {"time": 204208, "annotation": {"number": 11, "value": 89}, "group": "control_change"}, {"time": 204227, "annotation": {"number": 11, "value": 88}, "group": "control_change"}, {"time": 204247, "annotation": {"number": 11, "value": 87}, "group": "control_change"}, {"time": 204267, "annotation": {"number": 11, "value": 86}, "group": "control_change"}, {"time": 204287, "annotation": {"number": 11, "value": 85}, "group": "control_change"}, {"time": 204307, "annotation": {"number": 11, "value": 84}, "group": "control_change"}, {"time": 204327, "annotation": {"number": 11, "value": 83}, "group": "control_change"}, {"time": 204347, "annotation": {"number": 11, "value": 82}, "group": "control_change"}, {"time": 204367, "annotation": {"number": 11, "value": 81}, "group": "control_change"}, {"time": 204377, "annotation": {"number": 11, "value": 80}, "group": "control_change"}, {"time": 204397, "annotation": {"number": 11, "value": 79}, "group": "control_change"}, {"time": 204417, "annotation": {"number": 11, "value": 78}, "group": "control_change"}, {"time": 204437, "annotation": {"number": 11, "value": 77}, "group": "control_change"}, {"time": 204457, "annotation": {"number": 11, "value": 76}, "group": "control_change"}, {"time": 204477, "annotation": {"number": 11, "value": 75}, "group": "control_change"}, {"time": 204497, "annotation": {"number": 11, "value": 74}, "group": "control_change"}, {"time": 204516, "annotation": {"number": 11, "value": 73}, "group": "control_change"}, {"time": 204536, "annotation": {"number": 11, "value": 72}, "group": "control_change"}, {"time": 204556, "annotation": {"number": 11, "value": 71}, "group": "control_change"}, {"time": 204566, "annotation": {"number": 11, "value": 70}, "group": "control_change"}, {"time": 204586, "annotation": {"number": 11, "value": 69}, "group": "control_change"}, {"time": 204606, "annotation": {"number": 11, "value": 68}, "group": "control_change"}, {"time": 204626, "annotation": {"number": 11, "value": 67}, "group": "control_change"}, {"time": 204646, "annotation": {"number": 11, "value": 66}, "group": "control_change"}, {"time": 204666, "annotation": {"number": 11, "value": 65}, "group": "control_change"}, {"time": 204686, "annotation": {"number": 11, "value": 64}, "group": "control_change"}, {"time": 204706, "annotation": {"number": 11, "value": 63}, "group": "control_change"}, {"time": 204726, "annotation": {"number": 11, "value": 62}, "group": "control_change"}, {"time": 204746, "annotation": {"number": 11, "value": 61}, "group": "control_change"}, {"time": 204756, "annotation": {"number": 11, "value": 60}, "group": "control_change"}, {"time": 204776, "annotation": {"number": 11, "value": 59}, "group": "control_change"}, {"time": 204796, "annotation": {"number": 11, "value": 58}, "group": "control_change"}, {"time": 204815, "annotation": {"number": 11, "value": 57}, "group": "control_change"}, {"time": 204835, "annotation": {"number": 11, "value": 56}, "group": "control_change"}, {"time": 204855, "annotation": {"number": 11, "value": 55}, "group": "control_change"}, {"time": 204875, "annotation": {"number": 11, "value": 54}, "group": "control_change"}, {"time": 204895, "annotation": {"number": 11, "value": 53}, "group": "control_change"}, {"time": 204915, "annotation": {"number": 11, "value": 52}, "group": "control_change"}, {"time": 204935, "annotation": {"number": 11, "value": 51}, "group": "control_change"}, {"time": 204945, "annotation": {"number": 11, "value": 50}, "group": "control_change"}, {"time": 204965, "annotation": {"number": 11, "value": 49}, "group": "control_change"}, {"time": 204986, "annotation": {"number": 11, "value": 48}, "group": "control_change"}, {"time": 205006, "annotation": {"number": 11, "value": 47}, "group": "control_change"}, {"time": 205026, "annotation": {"number": 11, "value": 46}, "group": "control_change"}, {"time": 205047, "annotation": {"number": 11, "value": 45}, "group": "control_change"}, {"time": 205067, "annotation": {"number": 11, "value": 44}, "group": "control_change"}, {"time": 205088, "annotation": {"number": 11, "value": 43}, "group": "control_change"}, {"time": 205108, "annotation": {"number": 11, "value": 42}, "group": "control_change"}, {"time": 205128, "annotation": {"number": 11, "value": 41}, "group": "control_change"}, {"time": 205139, "annotation": {"number": 11, "value": 40}, "group": "control_change"}, {"time": 205159, "annotation": {"number": 11, "value": 39}, "group": "control_change"}, {"time": 205179, "annotation": {"number": 11, "value": 38}, "group": "control_change"}, {"time": 205200, "annotation": {"number": 11, "value": 37}, "group": "control_change"}, {"time": 205220, "annotation": {"number": 11, "value": 36}, "group": "control_change"}, {"time": 205241, "annotation": {"number": 11, "value": 35}, "group": "control_change"}, {"time": 205261, "annotation": {"number": 11, "value": 34}, "group": "control_change"}, {"time": 205281, "annotation": {"number": 11, "value": 33}, "group": "control_change"}, {"time": 205302, "annotation": {"number": 11, "value": 32}, "group": "control_change"}, {"time": 205322, "annotation": {"number": 11, "value": 31}, "group": "control_change"}, {"time": 205332, "annotation": {"number": 11, "value": 30}, "group": "control_change"}, {"time": 205353, "annotation": {"number": 11, "value": 29}, "group": "control_change"}, {"time": 205373, "annotation": {"number": 11, "value": 28}, "group": "control_change"}, {"time": 205394, "annotation": {"number": 11, "value": 27}, "group": "control_change"}, {"time": 205414, "annotation": {"number": 11, "value": 26}, "group": "control_change"}, {"time": 205434, "annotation": {"number": 11, "value": 25}, "group": "control_change"}, {"time": 205455, "annotation": {"number": 11, "value": 24}, "group": "control_change"}, {"time": 205474, "annotation": {"number": 11, "value": 23}, "group": "control_change"}, {"time": 205494, "annotation": {"number": 11, "value": 22}, "group": "control_change"}, {"time": 205514, "annotation": {"number": 11, "value": 21}, "group": "control_change"}, {"time": 205524, "annotation": {"number": 11, "value": 20}, "group": "control_change"}, {"time": 205544, "annotation": {"number": 11, "value": 19}, "group": "control_change"}, {"time": 205564, "annotation": {"number": 11, "value": 18}, "group": "control_change"}, {"time": 205584, "annotation": {"number": 11, "value": 17}, "group": "control_change"}, {"time": 205604, "annotation": {"number": 11, "value": 16}, "group": "control_change"}, {"time": 205624, "annotation": {"number": 11, "value": 15}, "group": "control_change"}, {"time": 205644, "annotation": {"number": 11, "value": 14}, "group": "control_change"}, {"time": 205664, "annotation": {"number": 11, "value": 13}, "group": "control_change"}, {"time": 205684, "annotation": {"number": 11, "value": 12}, "group": "control_change"}, {"time": 205704, "annotation": {"number": 11, "value": 11}, "group": "control_change"}, {"time": 205714, "annotation": {"number": 11, "value": 10}, "group": "control_change"}, {"time": 205734, "annotation": {"number": 11, "value": 9}, "group": "control_change"}, {"time": 205754, "annotation": {"number": 11, "value": 8}, "group": "control_change"}, {"time": 205773, "annotation": {"number": 11, "value": 7}, "group": "control_change"}, {"time": 205793, "annotation": {"number": 11, "value": 6}, "group": "control_change"}, {"time": 205813, "annotation": {"number": 11, "value": 5}, "group": "control_change"}, {"time": 205833, "annotation": {"number": 11, "value": 4}, "group": "control_change"}, {"time": 205853, "annotation": {"number": 11, "value": 3}, "group": "control_change"}, {"time": 205873, "annotation": {"number": 11, "value": 2}, "group": "control_change"}, {"time": 205893, "annotation": {"number": 11, "value": 1}, "group": "control_change"}, {"time": 205903, "annotation": {"number": 11, "value": 0}, "group": "control_change"}, {"time": 205923, "annotation": {"number": 11, "value": 100}, "group": "control_change"}, {"time": 205943, "annotation": {"number": 11, "value": 99}, "group": "control_change"}, {"time": 205963, "annotation": {"number": 11, "value": 98}, "group": "control_change"}, {"time": 205983, "annotation": {"number": 11, "value": 97}, "group": "control_change"}, {"time": 206003, "annotation": {"number": 11, "value": 96}, "group": "control_change"}, {"time": 206023, "annotation": {"number": 11, "value": 95}, "group": "control_change"}, {"time": 206043, "annotation": {"number": 11, "value": 94}, "group": "control_change"}, {"time": 206063, "annotation": {"number": 11, "value": 93}, "group": "control_change"}, {"time": 206082, "annotation": {"number": 11, "value": 92}, "group": "control_change"}, {"time": 206102, "annotation": {"number": 11, "value": 91}, "group": "control_change"}, {"time": 206112, "annotation": {"number": 11, "value": 90}, "group": "control_change"}, {"time": 206132, "annotation": {"number": 11, "value": 89}, "group": "control_change"}, {"time": 206152, "annotation": {"number": 11, "value": 88}, "group": "control_change"}, {"time": 206172, "annotation": {"number": 11, "value": 87}, "group": "control_change"}, {"time": 206192, "annotation": {"number": 11, "value": 86}, "group": "control_change"}, {"time": 206212, "annotation": {"number": 11, "value": 85}, "group": "control_change"}, {"time": 206232, "annotation": {"number": 11, "value": 84}, "group": "control_change"}, {"time": 206252, "annotation": {"number": 11, "value": 83}, "group": "control_change"}, {"time": 206272, "annotation": {"number": 11, "value": 82}, "group": "control_change"}, {"time": 206292, "annotation": {"number": 11, "value": 81}, "group": "control_change"}, {"time": 206302, "annotation": {"number": 11, "value": 80}, "group": "control_change"}, {"time": 206322, "annotation": {"number": 11, "value": 79}, "group": "control_change"}, {"time": 206342, "annotation": {"number": 11, "value": 78}, "group": "control_change"}, {"time": 206362, "annotation": {"number": 11, "value": 77}, "group": "control_change"}, {"time": 206381, "annotation": {"number": 11, "value": 76}, "group": "control_change"}, {"time": 206401, "annotation": {"number": 11, "value": 75}, "group": "control_change"}, {"time": 206421, "annotation": {"number": 11, "value": 74}, "group": "control_change"}, {"time": 206441, "annotation": {"number": 11, "value": 73}, "group": "control_change"}, {"time": 206461, "annotation": {"number": 11, "value": 72}, "group": "control_change"}, {"time": 206481, "annotation": {"number": 11, "value": 71}, "group": "control_change"}, {"time": 206491, "annotation": {"number": 11, "value": 70}, "group": "control_change"}, {"time": 206511, "annotation": {"number": 11, "value": 69}, "group": "control_change"}, {"time": 206531, "annotation": {"number": 11, "value": 68}, "group": "control_change"}, {"time": 206551, "annotation": {"number": 11, "value": 67}, "group": "control_change"}, {"time": 206571, "annotation": {"number": 11, "value": 66}, "group": "control_change"}, {"time": 206591, "annotation": {"number": 11, "value": 65}, "group": "control_change"}, {"time": 206611, "annotation": {"number": 11, "value": 64}, "group": "control_change"}, {"time": 206631, "annotation": {"number": 11, "value": 63}, "group": "control_change"}, {"time": 206651, "annotation": {"number": 11, "value": 62}, "group": "control_change"}, {"time": 206670, "annotation": {"number": 11, "value": 61}, "group": "control_change"}, {"time": 206680, "annotation": {"number": 11, "value": 60}, "group": "control_change"}, {"time": 206700, "annotation": {"number": 11, "value": 59}, "group": "control_change"}, {"time": 206720, "annotation": {"number": 11, "value": 58}, "group": "control_change"}, {"time": 206740, "annotation": {"number": 11, "value": 57}, "group": "control_change"}, {"time": 206760, "annotation": {"number": 11, "value": 56}, "group": "control_change"}, {"time": 206780, "annotation": {"number": 11, "value": 55}, "group": "control_change"}, {"time": 206800, "annotation": {"number": 11, "value": 54}, "group": "control_change"}, {"time": 206820, "annotation": {"number": 11, "value": 53}, "group": "control_change"}, {"time": 206840, "annotation": {"number": 11, "value": 52}, "group": "control_change"}, {"time": 206860, "annotation": {"number": 11, "value": 51}, "group": "control_change"}, {"time": 206870, "annotation": {"number": 11, "value": 50}, "group": "control_change"}, {"time": 206890, "annotation": {"number": 11, "value": 49}, "group": "control_change"}, {"time": 206910, "annotation": {"number": 11, "value": 48}, "group": "control_change"}, {"time": 206930, "annotation": {"number": 11, "value": 47}, "group": "control_change"}, {"time": 206950, "annotation": {"number": 11, "value": 46}, "group": "control_change"}, {"time": 206969, "annotation": {"number": 11, "value": 45}, "group": "control_change"}, {"time": 206989, "annotation": {"number": 11, "value": 44}, "group": "control_change"}, {"time": 207009, "annotation": {"number": 11, "value": 43}, "group": "control_change"}, {"time": 207029, "annotation": {"number": 11, "value": 42}, "group": "control_change"}, {"time": 207049, "annotation": {"number": 11, "value": 41}, "group": "control_change"}, {"time": 207059, "annotation": {"number": 11, "value": 40}, "group": "control_change"}, {"time": 207079, "annotation": {"number": 11, "value": 39}, "group": "control_change"}, {"time": 207099, "annotation": {"number": 11, "value": 38}, "group": "control_change"}, {"time": 207119, "annotation": {"number": 11, "value": 37}, "group": "control_change"}, {"time": 207139, "annotation": {"number": 11, "value": 36}, "group": "control_change"}, {"time": 207159, "annotation": {"number": 11, "value": 35}, "group": "control_change"}, {"time": 207179, "annotation": {"number": 11, "value": 34}, "group": "control_change"}, {"time": 207199, "annotation": {"number": 11, "value": 33}, "group": "control_change"}, {"time": 207219, "annotation": {"number": 11, "value": 32}, "group": "control_change"}, {"time": 207239, "annotation": {"number": 11, "value": 31}, "group": "control_change"}, {"time": 207249, "annotation": {"number": 11, "value": 30}, "group": "control_change"}, {"time": 207268, "annotation": {"number": 11, "value": 29}, "group": "control_change"}, {"time": 207288, "annotation": {"number": 11, "value": 28}, "group": "control_change"}, {"time": 207308, "annotation": {"number": 11, "value": 27}, "group": "control_change"}, {"time": 207328, "annotation": {"number": 11, "value": 26}, "group": "control_change"}, {"time": 207348, "annotation": {"number": 11, "value": 25}, "group": "control_change"}, {"time": 207368, "annotation": {"number": 11, "value": 24}, "group": "control_change"}, {"time": 207388, "annotation": {"number": 11, "value": 23}, "group": "control_change"}, {"time": 207408, "annotation": {"number": 11, "value": 22}, "group": "control_change"}, {"time": 207428, "annotation": {"number": 11, "value": 21}, "group": "control_change"}, {"time": 207438, "annotation": {"number": 11, "value": 20}, "group": "control_change"}, {"time": 207458, "annotation": {"number": 11, "value": 19}, "group": "control_change"}, {"time": 207478, "annotation": {"number": 11, "value": 18}, "group": "control_change"}, {"time": 207498, "annotation": {"number": 11, "value": 17}, "group": "control_change"}, {"time": 207518, "annotation": {"number": 11, "value": 16}, "group": "control_change"}, {"time": 207538, "annotation": {"number": 11, "value": 15}, "group": "control_change"}, {"time": 207558, "annotation": {"number": 11, "value": 14}, "group": "control_change"}, {"time": 207577, "annotation": {"number": 11, "value": 13}, "group": "control_change"}, {"time": 207597, "annotation": {"number": 11, "value": 12}, "group": "control_change"}, {"time": 207617, "annotation": {"number": 11, "value": 11}, "group": "control_change"}, {"time": 207627, "annotation": {"number": 11, "value": 10}, "group": "control_change"}, {"time": 207647, "annotation": {"number": 11, "value": 9}, "group": "control_change"}, {"time": 207667, "annotation": {"number": 11, "value": 8}, "group": "control_change"}, {"time": 207687, "annotation": {"number": 11, "value": 7}, "group": "control_change"}, {"time": 207707, "annotation": {"number": 11, "value": 6}, "group": "control_change"}, {"time": 207727, "annotation": {"number": 11, "value": 5}, "group": "control_change"}, {"time": 207747, "annotation": {"number": 11, "value": 4}, "group": "control_change"}, {"time": 207767, "annotation": {"number": 11, "value": 3}, "group": "control_change"}, {"time": 207787, "annotation": {"number": 11, "value": 2}, "group": "control_change"}, {"time": 207807, "annotation": {"number": 11, "value": 1}, "group": "control_change"}, {"time": 207817, "annotation": {"number": 11, "value": 0}, "group": "control_change"}, {"time": 207837, "annotation": {"number": 11, "value": 100}, "group": "control_change"}, {"time": 211695, "annotation": {"number": 11, "value": 99}, "group": "control_change"}, {"time": 211716, "annotation": {"number": 11, "value": 98}, "group": "control_change"}, {"time": 211736, "annotation": {"number": 11, "value": 97}, "group": "control_change"}, {"time": 211757, "annotation": {"number": 11, "value": 96}, "group": "control_change"}, {"time": 211777, "annotation": {"number": 11, "value": 95}, "group": "control_change"}, {"time": 211797, "annotation": {"number": 11, "value": 94}, "group": "control_change"}, {"time": 211818, "annotation": {"number": 11, "value": 93}, "group": "control_change"}, {"time": 211838, "annotation": {"number": 11, "value": 92}, "group": "control_change"}, {"time": 211859, "annotation": {"number": 11, "value": 91}, "group": "control_change"}, {"time": 211869, "annotation": {"number": 11, "value": 90}, "group": "control_change"}, {"time": 211889, "annotation": {"number": 11, "value": 89}, "group": "control_change"}, {"time": 211910, "annotation": {"number": 11, "value": 88}, "group": "control_change"}, {"time": 211930, "annotation": {"number": 11, "value": 87}, "group": "control_change"}, {"time": 211950, "annotation": {"number": 11, "value": 86}, "group": "control_change"}, {"time": 211971, "annotation": {"number": 11, "value": 85}, "group": "control_change"}, {"time": 211991, "annotation": {"number": 11, "value": 84}, "group": "control_change"}, {"time": 212012, "annotation": {"number": 11, "value": 83}, "group": "control_change"}, {"time": 212032, "annotation": {"number": 11, "value": 82}, "group": "control_change"}, {"time": 212052, "annotation": {"number": 11, "value": 81}, "group": "control_change"}, {"time": 212063, "annotation": {"number": 11, "value": 80}, "group": "control_change"}, {"time": 212083, "annotation": {"number": 11, "value": 79}, "group": "control_change"}, {"time": 212103, "annotation": {"number": 11, "value": 78}, "group": "control_change"}, {"time": 212124, "annotation": {"number": 11, "value": 77}, "group": "control_change"}, {"time": 212144, "annotation": {"number": 11, "value": 76}, "group": "control_change"}, {"time": 212165, "annotation": {"number": 11, "value": 75}, "group": "control_change"}, {"time": 212185, "annotation": {"number": 11, "value": 74}, "group": "control_change"}, {"time": 212204, "annotation": {"number": 11, "value": 73}, "group": "control_change"}, {"time": 212224, "annotation": {"number": 11, "value": 72}, "group": "control_change"}, {"time": 212244, "annotation": {"number": 11, "value": 71}, "group": "control_change"}, {"time": 212254, "annotation": {"number": 11, "value": 70}, "group": "control_change"}, {"time": 212274, "annotation": {"number": 11, "value": 69}, "group": "control_change"}, {"time": 212294, "annotation": {"number": 11, "value": 68}, "group": "control_change"}, {"time": 212314, "annotation": {"number": 11, "value": 67}, "group": "control_change"}, {"time": 212334, "annotation": {"number": 11, "value": 66}, "group": "control_change"}, {"time": 212354, "annotation": {"number": 11, "value": 65}, "group": "control_change"}, {"time": 212374, "annotation": {"number": 11, "value": 64}, "group": "control_change"}, {"time": 212394, "annotation": {"number": 11, "value": 63}, "group": "control_change"}, {"time": 212414, "annotation": {"number": 11, "value": 62}, "group": "control_change"}, {"time": 212434, "annotation": {"number": 11, "value": 61}, "group": "control_change"}, {"time": 212444, "annotation": {"number": 11, "value": 60}, "group": "control_change"}, {"time": 212464, "annotation": {"number": 11, "value": 59}, "group": "control_change"}, {"time": 212484, "annotation": {"number": 11, "value": 58}, "group": "control_change"}, {"time": 212503, "annotation": {"number": 11, "value": 57}, "group": "control_change"}, {"time": 212523, "annotation": {"number": 11, "value": 56}, "group": "control_change"}, {"time": 212543, "annotation": {"number": 11, "value": 55}, "group": "control_change"}, {"time": 212563, "annotation": {"number": 11, "value": 54}, "group": "control_change"}, {"time": 212583, "annotation": {"number": 11, "value": 53}, "group": "control_change"}, {"time": 212603, "annotation": {"number": 11, "value": 52}, "group": "control_change"}, {"time": 212623, "annotation": {"number": 11, "value": 51}, "group": "control_change"}, {"time": 212633, "annotation": {"number": 11, "value": 50}, "group": "control_change"}, {"time": 212653, "annotation": {"number": 11, "value": 49}, "group": "control_change"}, {"time": 212673, "annotation": {"number": 11, "value": 48}, "group": "control_change"}, {"time": 212693, "annotation": {"number": 11, "value": 47}, "group": "control_change"}, {"time": 212713, "annotation": {"number": 11, "value": 46}, "group": "control_change"}, {"time": 212733, "annotation": {"number": 11, "value": 45}, "group": "control_change"}, {"time": 212753, "annotation": {"number": 11, "value": 44}, "group": "control_change"}, {"time": 212773, "annotation": {"number": 11, "value": 43}, "group": "control_change"}, {"time": 212792, "annotation": {"number": 11, "value": 42}, "group": "control_change"}, {"time": 212812, "annotation": {"number": 11, "value": 41}, "group": "control_change"}, {"time": 212822, "annotation": {"number": 11, "value": 40}, "group": "control_change"}, {"time": 212842, "annotation": {"number": 11, "value": 39}, "group": "control_change"}, {"time": 212862, "annotation": {"number": 11, "value": 38}, "group": "control_change"}, {"time": 212882, "annotation": {"number": 11, "value": 37}, "group": "control_change"}, {"time": 212902, "annotation": {"number": 11, "value": 36}, "group": "control_change"}, {"time": 212922, "annotation": {"number": 11, "value": 35}, "group": "control_change"}, {"time": 212942, "annotation": {"number": 11, "value": 34}, "group": "control_change"}, {"time": 212962, "annotation": {"number": 11, "value": 33}, "group": "control_change"}, {"time": 212982, "annotation": {"number": 11, "value": 32}, "group": "control_change"}, {"time": 213002, "annotation": {"number": 11, "value": 31}, "group": "control_change"}, {"time": 213012, "annotation": {"number": 11, "value": 30}, "group": "control_change"}, {"time": 213032, "annotation": {"number": 11, "value": 29}, "group": "control_change"}, {"time": 213052, "annotation": {"number": 11, "value": 28}, "group": "control_change"}, {"time": 213072, "annotation": {"number": 11, "value": 27}, "group": "control_change"}, {"time": 213091, "annotation": {"number": 11, "value": 26}, "group": "control_change"}, {"time": 213111, "annotation": {"number": 11, "value": 25}, "group": "control_change"}, {"time": 213131, "annotation": {"number": 11, "value": 24}, "group": "control_change"}, {"time": 213151, "annotation": {"number": 11, "value": 23}, "group": "control_change"}, {"time": 213171, "annotation": {"number": 11, "value": 22}, "group": "control_change"}, {"time": 213191, "annotation": {"number": 11, "value": 21}, "group": "control_change"}, {"time": 213201, "annotation": {"number": 11, "value": 20}, "group": "control_change"}, {"time": 213221, "annotation": {"number": 11, "value": 19}, "group": "control_change"}, {"time": 213241, "annotation": {"number": 11, "value": 18}, "group": "control_change"}, {"time": 213261, "annotation": {"number": 11, "value": 17}, "group": "control_change"}, {"time": 213281, "annotation": {"number": 11, "value": 16}, "group": "control_change"}, {"time": 213301, "annotation": {"number": 11, "value": 15}, "group": "control_change"}, {"time": 213321, "annotation": {"number": 11, "value": 14}, "group": "control_change"}, {"time": 213341, "annotation": {"number": 11, "value": 13}, "group": "control_change"}, {"time": 213361, "annotation": {"number": 11, "value": 12}, "group": "control_change"}, {"time": 213381, "annotation": {"number": 11, "value": 11}, "group": "control_change"}, {"time": 213390, "annotation": {"number": 11, "value": 10}, "group": "control_change"}, {"time": 213410, "annotation": {"number": 11, "value": 9}, "group": "control_change"}, {"time": 213430, "annotation": {"number": 11, "value": 8}, "group": "control_change"}, {"time": 213450, "annotation": {"number": 11, "value": 7}, "group": "control_change"}, {"time": 213470, "annotation": {"number": 11, "value": 6}, "group": "control_change"}, {"time": 213490, "annotation": {"number": 11, "value": 5}, "group": "control_change"}, {"time": 213510, "annotation": {"number": 11, "value": 4}, "group": "control_change"}, {"time": 213530, "annotation": {"number": 11, "value": 3}, "group": "control_change"}, {"time": 213550, "annotation": {"number": 11, "value": 2}, "group": "control_change"}, {"time": 213570, "annotation": {"number": 11, "value": 1}, "group": "control_change"}, {"time": 213580, "annotation": {"number": 11, "value": 0}, "group": "control_change"}, {"time": 213600, "annotation": {"number": 11, "value": 100}, "group": "control_change"}, {"time": 213600, "annotation": {"number": 11, "value": 100}, "group": "control_change"}, {"time": 213620, "annotation": {"number": 11, "value": 99}, "group": "control_change"}, {"time": 213640, "annotation": {"number": 11, "value": 98}, "group": "control_change"}, {"time": 213660, "annotation": {"number": 11, "value": 97}, "group": "control_change"}, {"time": 213680, "annotation": {"number": 11, "value": 96}, "group": "control_change"}, {"time": 213699, "annotation": {"number": 11, "value": 95}, "group": "control_change"}, {"time": 213719, "annotation": {"number": 11, "value": 94}, "group": "control_change"}, {"time": 213739, "annotation": {"number": 11, "value": 93}, "group": "control_change"}, {"time": 213759, "annotation": {"number": 11, "value": 92}, "group": "control_change"}, {"time": 213779, "annotation": {"number": 11, "value": 91}, "group": "control_change"}, {"time": 213789, "annotation": {"number": 11, "value": 90}, "group": "control_change"}, {"time": 213809, "annotation": {"number": 11, "value": 89}, "group": "control_change"}, {"time": 213829, "annotation": {"number": 11, "value": 88}, "group": "control_change"}, {"time": 213849, "annotation": {"number": 11, "value": 87}, "group": "control_change"}, {"time": 213869, "annotation": {"number": 11, "value": 86}, "group": "control_change"}, {"time": 213889, "annotation": {"number": 11, "value": 85}, "group": "control_change"}, {"time": 213909, "annotation": {"number": 11, "value": 84}, "group": "control_change"}, {"time": 213929, "annotation": {"number": 11, "value": 83}, "group": "control_change"}, {"time": 213949, "annotation": {"number": 11, "value": 82}, "group": "control_change"}, {"time": 213969, "annotation": {"number": 11, "value": 81}, "group": "control_change"}, {"time": 213979, "annotation": {"number": 11, "value": 80}, "group": "control_change"}, {"time": 213998, "annotation": {"number": 11, "value": 79}, "group": "control_change"}, {"time": 214018, "annotation": {"number": 11, "value": 78}, "group": "control_change"}, {"time": 214038, "annotation": {"number": 11, "value": 77}, "group": "control_change"}, {"time": 214058, "annotation": {"number": 11, "value": 76}, "group": "control_change"}, {"time": 214078, "annotation": {"number": 11, "value": 75}, "group": "control_change"}, {"time": 214098, "annotation": {"number": 11, "value": 74}, "group": "control_change"}, {"time": 214118, "annotation": {"number": 11, "value": 73}, "group": "control_change"}, {"time": 214138, "annotation": {"number": 11, "value": 72}, "group": "control_change"}, {"time": 214158, "annotation": {"number": 11, "value": 71}, "group": "control_change"}, {"time": 214168, "annotation": {"number": 11, "value": 70}, "group": "control_change"}, {"time": 214188, "annotation": {"number": 11, "value": 69}, "group": "control_change"}, {"time": 214208, "annotation": {"number": 11, "value": 68}, "group": "control_change"}, {"time": 214228, "annotation": {"number": 11, "value": 67}, "group": "control_change"}, {"time": 214248, "annotation": {"number": 11, "value": 66}, "group": "control_change"}, {"time": 214268, "annotation": {"number": 11, "value": 65}, "group": "control_change"}, {"time": 214287, "annotation": {"number": 11, "value": 64}, "group": "control_change"}, {"time": 214307, "annotation": {"number": 11, "value": 63}, "group": "control_change"}, {"time": 214327, "annotation": {"number": 11, "value": 62}, "group": "control_change"}, {"time": 214347, "annotation": {"number": 11, "value": 61}, "group": "control_change"}, {"time": 214357, "annotation": {"number": 11, "value": 60}, "group": "control_change"}, {"time": 214377, "annotation": {"number": 11, "value": 59}, "group": "control_change"}, {"time": 214397, "annotation": {"number": 11, "value": 58}, "group": "control_change"}, {"time": 214417, "annotation": {"number": 11, "value": 57}, "group": "control_change"}, {"time": 214437, "annotation": {"number": 11, "value": 56}, "group": "control_change"}, {"time": 214457, "annotation": {"number": 11, "value": 55}, "group": "control_change"}, {"time": 214477, "annotation": {"number": 11, "value": 54}, "group": "control_change"}, {"time": 214497, "annotation": {"number": 11, "value": 53}, "group": "control_change"}, {"time": 214517, "annotation": {"number": 11, "value": 52}, "group": "control_change"}, {"time": 214537, "annotation": {"number": 11, "value": 51}, "group": "control_change"}, {"time": 214547, "annotation": {"number": 11, "value": 50}, "group": "control_change"}, {"time": 214567, "annotation": {"number": 11, "value": 49}, "group": "control_change"}, {"time": 214586, "annotation": {"number": 11, "value": 48}, "group": "control_change"}, {"time": 214606, "annotation": {"number": 11, "value": 47}, "group": "control_change"}, {"time": 214626, "annotation": {"number": 11, "value": 46}, "group": "control_change"}, {"time": 214646, "annotation": {"number": 11, "value": 45}, "group": "control_change"}, {"time": 214666, "annotation": {"number": 11, "value": 44}, "group": "control_change"}, {"time": 214686, "annotation": {"number": 11, "value": 43}, "group": "control_change"}, {"time": 214706, "annotation": {"number": 11, "value": 42}, "group": "control_change"}, {"time": 214726, "annotation": {"number": 11, "value": 41}, "group": "control_change"}, {"time": 214736, "annotation": {"number": 11, "value": 40}, "group": "control_change"}, {"time": 214756, "annotation": {"number": 11, "value": 39}, "group": "control_change"}, {"time": 214776, "annotation": {"number": 11, "value": 38}, "group": "control_change"}, {"time": 214796, "annotation": {"number": 11, "value": 37}, "group": "control_change"}, {"time": 214816, "annotation": {"number": 11, "value": 36}, "group": "control_change"}, {"time": 214836, "annotation": {"number": 11, "value": 35}, "group": "control_change"}, {"time": 214856, "annotation": {"number": 11, "value": 34}, "group": "control_change"}, {"time": 214876, "annotation": {"number": 11, "value": 33}, "group": "control_change"}, {"time": 214895, "annotation": {"number": 11, "value": 32}, "group": "control_change"}, {"time": 214915, "annotation": {"number": 11, "value": 31}, "group": "control_change"}, {"time": 214925, "annotation": {"number": 11, "value": 30}, "group": "control_change"}, {"time": 214945, "annotation": {"number": 11, "value": 29}, "group": "control_change"}, {"time": 214965, "annotation": {"number": 11, "value": 28}, "group": "control_change"}, {"time": 214985, "annotation": {"number": 11, "value": 27}, "group": "control_change"}, {"time": 215005, "annotation": {"number": 11, "value": 26}, "group": "control_change"}, {"time": 215025, "annotation": {"number": 11, "value": 25}, "group": "control_change"}, {"time": 215045, "annotation": {"number": 11, "value": 24}, "group": "control_change"}, {"time": 215065, "annotation": {"number": 11, "value": 23}, "group": "control_change"}, {"time": 215086, "annotation": {"number": 11, "value": 22}, "group": "control_change"}, {"time": 215106, "annotation": {"number": 11, "value": 21}, "group": "control_change"}, {"time": 215117, "annotation": {"number": 11, "value": 20}, "group": "control_change"}, {"time": 215137, "annotation": {"number": 11, "value": 19}, "group": "control_change"}, {"time": 215157, "annotation": {"number": 11, "value": 18}, "group": "control_change"}, {"time": 215178, "annotation": {"number": 11, "value": 17}, "group": "control_change"}, {"time": 215198, "annotation": {"number": 11, "value": 16}, "group": "control_change"}, {"time": 215219, "annotation": {"number": 11, "value": 15}, "group": "control_change"}, {"time": 215239, "annotation": {"number": 11, "value": 14}, "group": "control_change"}, {"time": 215259, "annotation": {"number": 11, "value": 13}, "group": "control_change"}, {"time": 215280, "annotation": {"number": 11, "value": 12}, "group": "control_change"}, {"time": 215300, "annotation": {"number": 11, "value": 11}, "group": "control_change"}, {"time": 215310, "annotation": {"number": 11, "value": 10}, "group": "control_change"}, {"time": 215331, "annotation": {"number": 11, "value": 9}, "group": "control_change"}, {"time": 215351, "annotation": {"number": 11, "value": 8}, "group": "control_change"}, {"time": 215372, "annotation": {"number": 11, "value": 7}, "group": "control_change"}, {"time": 215392, "annotation": {"number": 11, "value": 6}, "group": "control_change"}, {"time": 215412, "annotation": {"number": 11, "value": 5}, "group": "control_change"}, {"time": 215433, "annotation": {"number": 11, "value": 4}, "group": "control_change"}, {"time": 215453, "annotation": {"number": 11, "value": 3}, "group": "control_change"}, {"time": 215474, "annotation": {"number": 11, "value": 2}, "group": "control_change"}, {"time": 215494, "annotation": {"number": 11, "value": 1}, "group": "control_change"}, {"time": 215504, "annotation": {"number": 11, "value": 0}, "group": "control_change"}, {"time": 215525, "annotation": {"number": 11, "value": 100}, "group": "control_change"}, {"time": 232823, "annotation": {"number": 11, "value": 99}, "group": "control_change"}, {"time": 232843, "annotation": {"number": 11, "value": 98}, "group": "control_change"}, {"time": 232863, "annotation": {"number": 11, "value": 97}, "group": "control_change"}, {"time": 232883, "annotation": {"number": 11, "value": 96}, "group": "control_change"}, {"time": 232903, "annotation": {"number": 11, "value": 95}, "group": "control_change"}, {"time": 232923, "annotation": {"number": 11, "value": 94}, "group": "control_change"}, {"time": 232942, "annotation": {"number": 11, "value": 93}, "group": "control_change"}, {"time": 232962, "annotation": {"number": 11, "value": 92}, "group": "control_change"}, {"time": 232982, "annotation": {"number": 11, "value": 91}, "group": "control_change"}, {"time": 232992, "annotation": {"number": 11, "value": 90}, "group": "control_change"}, {"time": 233012, "annotation": {"number": 11, "value": 89}, "group": "control_change"}, {"time": 233032, "annotation": {"number": 11, "value": 88}, "group": "control_change"}, {"time": 233052, "annotation": {"number": 11, "value": 87}, "group": "control_change"}, {"time": 233072, "annotation": {"number": 11, "value": 86}, "group": "control_change"}, {"time": 233092, "annotation": {"number": 11, "value": 85}, "group": "control_change"}, {"time": 233112, "annotation": {"number": 11, "value": 84}, "group": "control_change"}, {"time": 233132, "annotation": {"number": 11, "value": 83}, "group": "control_change"}, {"time": 233152, "annotation": {"number": 11, "value": 82}, "group": "control_change"}, {"time": 233172, "annotation": {"number": 11, "value": 81}, "group": "control_change"}, {"time": 233182, "annotation": {"number": 11, "value": 80}, "group": "control_change"}, {"time": 233202, "annotation": {"number": 11, "value": 79}, "group": "control_change"}, {"time": 233222, "annotation": {"number": 11, "value": 78}, "group": "control_change"}, {"time": 233241, "annotation": {"number": 11, "value": 77}, "group": "control_change"}, {"time": 233261, "annotation": {"number": 11, "value": 76}, "group": "control_change"}, {"time": 233281, "annotation": {"number": 11, "value": 75}, "group": "control_change"}, {"time": 233301, "annotation": {"number": 11, "value": 74}, "group": "control_change"}, {"time": 233321, "annotation": {"number": 11, "value": 73}, "group": "control_change"}, {"time": 233341, "annotation": {"number": 11, "value": 72}, "group": "control_change"}, {"time": 233361, "annotation": {"number": 11, "value": 71}, "group": "control_change"}, {"time": 233371, "annotation": {"number": 11, "value": 70}, "group": "control_change"}, {"time": 233391, "annotation": {"number": 11, "value": 69}, "group": "control_change"}, {"time": 233411, "annotation": {"number": 11, "value": 68}, "group": "control_change"}, {"time": 233431, "annotation": {"number": 11, "value": 67}, "group": "control_change"}, {"time": 233451, "annotation": {"number": 11, "value": 66}, "group": "control_change"}, {"time": 233471, "annotation": {"number": 11, "value": 65}, "group": "control_change"}, {"time": 233491, "annotation": {"number": 11, "value": 64}, "group": "control_change"}, {"time": 233511, "annotation": {"number": 11, "value": 63}, "group": "control_change"}, {"time": 233531, "annotation": {"number": 11, "value": 62}, "group": "control_change"}, {"time": 233550, "annotation": {"number": 11, "value": 61}, "group": "control_change"}, {"time": 233560, "annotation": {"number": 11, "value": 60}, "group": "control_change"}, {"time": 233580, "annotation": {"number": 11, "value": 59}, "group": "control_change"}, {"time": 233600, "annotation": {"number": 11, "value": 58}, "group": "control_change"}, {"time": 233620, "annotation": {"number": 11, "value": 57}, "group": "control_change"}, {"time": 233640, "annotation": {"number": 11, "value": 56}, "group": "control_change"}, {"time": 233660, "annotation": {"number": 11, "value": 55}, "group": "control_change"}, {"time": 233680, "annotation": {"number": 11, "value": 54}, "group": "control_change"}, {"time": 233700, "annotation": {"number": 11, "value": 53}, "group": "control_change"}, {"time": 233720, "annotation": {"number": 11, "value": 52}, "group": "control_change"}, {"time": 233740, "annotation": {"number": 11, "value": 51}, "group": "control_change"}, {"time": 233750, "annotation": {"number": 11, "value": 50}, "group": "control_change"}, {"time": 233770, "annotation": {"number": 11, "value": 49}, "group": "control_change"}, {"time": 233790, "annotation": {"number": 11, "value": 48}, "group": "control_change"}, {"time": 233810, "annotation": {"number": 11, "value": 47}, "group": "control_change"}, {"time": 233830, "annotation": {"number": 11, "value": 46}, "group": "control_change"}, {"time": 233849, "annotation": {"number": 11, "value": 45}, "group": "control_change"}, {"time": 233869, "annotation": {"number": 11, "value": 44}, "group": "control_change"}, {"time": 233889, "annotation": {"number": 11, "value": 43}, "group": "control_change"}, {"time": 233909, "annotation": {"number": 11, "value": 42}, "group": "control_change"}, {"time": 233929, "annotation": {"number": 11, "value": 41}, "group": "control_change"}, {"time": 233939, "annotation": {"number": 11, "value": 40}, "group": "control_change"}, {"time": 233959, "annotation": {"number": 11, "value": 39}, "group": "control_change"}, {"time": 233979, "annotation": {"number": 11, "value": 38}, "group": "control_change"}, {"time": 233999, "annotation": {"number": 11, "value": 37}, "group": "control_change"}, {"time": 234019, "annotation": {"number": 11, "value": 36}, "group": "control_change"}, {"time": 234039, "annotation": {"number": 11, "value": 35}, "group": "control_change"}, {"time": 234059, "annotation": {"number": 11, "value": 34}, "group": "control_change"}, {"time": 234079, "annotation": {"number": 11, "value": 33}, "group": "control_change"}, {"time": 234099, "annotation": {"number": 11, "value": 32}, "group": "control_change"}, {"time": 234119, "annotation": {"number": 11, "value": 31}, "group": "control_change"}, {"time": 234129, "annotation": {"number": 11, "value": 30}, "group": "control_change"}, {"time": 234148, "annotation": {"number": 11, "value": 29}, "group": "control_change"}, {"time": 234168, "annotation": {"number": 11, "value": 28}, "group": "control_change"}, {"time": 234188, "annotation": {"number": 11, "value": 27}, "group": "control_change"}, {"time": 234208, "annotation": {"number": 11, "value": 26}, "group": "control_change"}, {"time": 234228, "annotation": {"number": 11, "value": 25}, "group": "control_change"}, {"time": 234248, "annotation": {"number": 11, "value": 24}, "group": "control_change"}, {"time": 234268, "annotation": {"number": 11, "value": 23}, "group": "control_change"}, {"time": 234288, "annotation": {"number": 11, "value": 22}, "group": "control_change"}, {"time": 234308, "annotation": {"number": 11, "value": 21}, "group": "control_change"}, {"time": 234318, "annotation": {"number": 11, "value": 20}, "group": "control_change"}, {"time": 234338, "annotation": {"number": 11, "value": 19}, "group": "control_change"}, {"time": 234358, "annotation": {"number": 11, "value": 18}, "group": "control_change"}, {"time": 234378, "annotation": {"number": 11, "value": 17}, "group": "control_change"}, {"time": 234398, "annotation": {"number": 11, "value": 16}, "group": "control_change"}, {"time": 234418, "annotation": {"number": 11, "value": 15}, "group": "control_change"}, {"time": 234438, "annotation": {"number": 11, "value": 14}, "group": "control_change"}, {"time": 234457, "annotation": {"number": 11, "value": 13}, "group": "control_change"}, {"time": 234477, "annotation": {"number": 11, "value": 12}, "group": "control_change"}, {"time": 234497, "annotation": {"number": 11, "value": 11}, "group": "control_change"}, {"time": 234507, "annotation": {"number": 11, "value": 10}, "group": "control_change"}, {"time": 234527, "annotation": {"number": 11, "value": 9}, "group": "control_change"}, {"time": 234547, "annotation": {"number": 11, "value": 8}, "group": "control_change"}, {"time": 234567, "annotation": {"number": 11, "value": 7}, "group": "control_change"}, {"time": 234587, "annotation": {"number": 11, "value": 6}, "group": "control_change"}, {"time": 234607, "annotation": {"number": 11, "value": 5}, "group": "control_change"}, {"time": 234627, "annotation": {"number": 11, "value": 4}, "group": "control_change"}, {"time": 234647, "annotation": {"number": 11, "value": 3}, "group": "control_change"}, {"time": 234667, "annotation": {"number": 11, "value": 2}, "group": "control_change"}, {"time": 234687, "annotation": {"number": 11, "value": 1}, "group": "control_change"}, {"time": 234697, "annotation": {"number": 11, "value": 0}, "group": "control_change"}, {"time": 234717, "annotation": {"number": 11, "value": 100}, "group": "control_change"}, {"time": 257778, "annotation": {"number": 11, "value": 99}, "group": "control_change"}, {"time": 257798, "annotation": {"number": 11, "value": 98}, "group": "control_change"}, {"time": 257818, "annotation": {"number": 11, "value": 97}, "group": "control_change"}, {"time": 257838, "annotation": {"number": 11, "value": 96}, "group": "control_change"}, {"time": 257858, "annotation": {"number": 11, "value": 95}, "group": "control_change"}, {"time": 257878, "annotation": {"number": 11, "value": 94}, "group": "control_change"}, {"time": 257898, "annotation": {"number": 11, "value": 93}, "group": "control_change"}, {"time": 257918, "annotation": {"number": 11, "value": 92}, "group": "control_change"}, {"time": 257938, "annotation": {"number": 11, "value": 91}, "group": "control_change"}, {"time": 257948, "annotation": {"number": 11, "value": 90}, "group": "control_change"}, {"time": 257967, "annotation": {"number": 11, "value": 89}, "group": "control_change"}, {"time": 257987, "annotation": {"number": 11, "value": 88}, "group": "control_change"}, {"time": 258007, "annotation": {"number": 11, "value": 87}, "group": "control_change"}, {"time": 258027, "annotation": {"number": 11, "value": 86}, "group": "control_change"}, {"time": 258047, "annotation": {"number": 11, "value": 85}, "group": "control_change"}, {"time": 258067, "annotation": {"number": 11, "value": 84}, "group": "control_change"}, {"time": 258087, "annotation": {"number": 11, "value": 83}, "group": "control_change"}, {"time": 258107, "annotation": {"number": 11, "value": 82}, "group": "control_change"}, {"time": 258127, "annotation": {"number": 11, "value": 81}, "group": "control_change"}, {"time": 258137, "annotation": {"number": 11, "value": 80}, "group": "control_change"}, {"time": 258157, "annotation": {"number": 11, "value": 79}, "group": "control_change"}, {"time": 258177, "annotation": {"number": 11, "value": 78}, "group": "control_change"}, {"time": 258197, "annotation": {"number": 11, "value": 77}, "group": "control_change"}, {"time": 258217, "annotation": {"number": 11, "value": 76}, "group": "control_change"}, {"time": 258237, "annotation": {"number": 11, "value": 75}, "group": "control_change"}, {"time": 258256, "annotation": {"number": 11, "value": 74}, "group": "control_change"}, {"time": 258276, "annotation": {"number": 11, "value": 73}, "group": "control_change"}, {"time": 258296, "annotation": {"number": 11, "value": 72}, "group": "control_change"}, {"time": 258316, "annotation": {"number": 11, "value": 71}, "group": "control_change"}, {"time": 258326, "annotation": {"number": 11, "value": 70}, "group": "control_change"}, {"time": 258346, "annotation": {"number": 11, "value": 69}, "group": "control_change"}, {"time": 258366, "annotation": {"number": 11, "value": 68}, "group": "control_change"}, {"time": 258386, "annotation": {"number": 11, "value": 67}, "group": "control_change"}, {"time": 258406, "annotation": {"number": 11, "value": 66}, "group": "control_change"}, {"time": 258426, "annotation": {"number": 11, "value": 65}, "group": "control_change"}, {"time": 258446, "annotation": {"number": 11, "value": 64}, "group": "control_change"}, {"time": 258466, "annotation": {"number": 11, "value": 63}, "group": "control_change"}, {"time": 258486, "annotation": {"number": 11, "value": 62}, "group": "control_change"}, {"time": 258506, "annotation": {"number": 11, "value": 61}, "group": "control_change"}, {"time": 258516, "annotation": {"number": 11, "value": 60}, "group": "control_change"}, {"time": 258536, "annotation": {"number": 11, "value": 59}, "group": "control_change"}, {"time": 258555, "annotation": {"number": 11, "value": 58}, "group": "control_change"}, {"time": 258575, "annotation": {"number": 11, "value": 57}, "group": "control_change"}, {"time": 258595, "annotation": {"number": 11, "value": 56}, "group": "control_change"}, {"time": 258615, "annotation": {"number": 11, "value": 55}, "group": "control_change"}, {"time": 258635, "annotation": {"number": 11, "value": 54}, "group": "control_change"}, {"time": 258655, "annotation": {"number": 11, "value": 53}, "group": "control_change"}, {"time": 258675, "annotation": {"number": 11, "value": 52}, "group": "control_change"}, {"time": 258695, "annotation": {"number": 11, "value": 51}, "group": "control_change"}, {"time": 258705, "annotation": {"number": 11, "value": 50}, "group": "control_change"}, {"time": 258725, "annotation": {"number": 11, "value": 49}, "group": "control_change"}, {"time": 258745, "annotation": {"number": 11, "value": 48}, "group": "control_change"}, {"time": 258766, "annotation": {"number": 11, "value": 47}, "group": "control_change"}, {"time": 258786, "annotation": {"number": 11, "value": 46}, "group": "control_change"}, {"time": 258807, "annotation": {"number": 11, "value": 45}, "group": "control_change"}, {"time": 258827, "annotation": {"number": 11, "value": 44}, "group": "control_change"}, {"time": 258847, "annotation": {"number": 11, "value": 43}, "group": "control_change"}, {"time": 258868, "annotation": {"number": 11, "value": 42}, "group": "control_change"}, {"time": 258888, "annotation": {"number": 11, "value": 41}, "group": "control_change"}, {"time": 258899, "annotation": {"number": 11, "value": 40}, "group": "control_change"}, {"time": 258919, "annotation": {"number": 11, "value": 39}, "group": "control_change"}, {"time": 258939, "annotation": {"number": 11, "value": 38}, "group": "control_change"}, {"time": 258960, "annotation": {"number": 11, "value": 37}, "group": "control_change"}, {"time": 258980, "annotation": {"number": 11, "value": 36}, "group": "control_change"}, {"time": 259001, "annotation": {"number": 11, "value": 35}, "group": "control_change"}, {"time": 259021, "annotation": {"number": 11, "value": 34}, "group": "control_change"}, {"time": 259041, "annotation": {"number": 11, "value": 33}, "group": "control_change"}, {"time": 259062, "annotation": {"number": 11, "value": 32}, "group": "control_change"}, {"time": 259082, "annotation": {"number": 11, "value": 31}, "group": "control_change"}, {"time": 259092, "annotation": {"number": 11, "value": 30}, "group": "control_change"}, {"time": 259113, "annotation": {"number": 11, "value": 29}, "group": "control_change"}, {"time": 259133, "annotation": {"number": 11, "value": 28}, "group": "control_change"}, {"time": 259154, "annotation": {"number": 11, "value": 27}, "group": "control_change"}, {"time": 259174, "annotation": {"number": 11, "value": 26}, "group": "control_change"}, {"time": 259194, "annotation": {"number": 11, "value": 25}, "group": "control_change"}, {"time": 259214, "annotation": {"number": 11, "value": 24}, "group": "control_change"}, {"time": 259234, "annotation": {"number": 11, "value": 23}, "group": "control_change"}, {"time": 259254, "annotation": {"number": 11, "value": 22}, "group": "control_change"}, {"time": 259274, "annotation": {"number": 11, "value": 21}, "group": "control_change"}, {"time": 259284, "annotation": {"number": 11, "value": 20}, "group": "control_change"}, {"time": 259304, "annotation": {"number": 11, "value": 19}, "group": "control_change"}, {"time": 259324, "annotation": {"number": 11, "value": 18}, "group": "control_change"}, {"time": 259344, "annotation": {"number": 11, "value": 17}, "group": "control_change"}, {"time": 259364, "annotation": {"number": 11, "value": 16}, "group": "control_change"}, {"time": 259384, "annotation": {"number": 11, "value": 15}, "group": "control_change"}, {"time": 259404, "annotation": {"number": 11, "value": 14}, "group": "control_change"}, {"time": 259424, "annotation": {"number": 11, "value": 13}, "group": "control_change"}, {"time": 259444, "annotation": {"number": 11, "value": 12}, "group": "control_change"}, {"time": 259464, "annotation": {"number": 11, "value": 11}, "group": "control_change"}, {"time": 259474, "annotation": {"number": 11, "value": 10}, "group": "control_change"}, {"time": 259494, "annotation": {"number": 11, "value": 9}, "group": "control_change"}, {"time": 259513, "annotation": {"number": 11, "value": 8}, "group": "control_change"}, {"time": 259533, "annotation": {"number": 11, "value": 7}, "group": "control_change"}, {"time": 259553, "annotation": {"number": 11, "value": 6}, "group": "control_change"}, {"time": 259573, "annotation": {"number": 11, "value": 5}, "group": "control_change"}, {"time": 259593, "annotation": {"number": 11, "value": 4}, "group": "control_change"}, {"time": 259613, "annotation": {"number": 11, "value": 3}, "group": "control_change"}, {"time": 259633, "annotation": {"number": 11, "value": 2}, "group": "control_change"}, {"time": 259653, "annotation": {"number": 11, "value": 1}, "group": "control_change"}, {"time": 259663, "annotation": {"number": 11, "value": 0}, "group": "control_change"}, {"time": 260640, "annotation": {"number": 11, "value": 100}, "group": "control_change"}, {"time": 261616, "annotation": {"number": 11, "value": 99}, "group": "control_change"}, {"time": 261636, "annotation": {"number": 11, "value": 98}, "group": "control_change"}, {"time": 261656, "annotation": {"number": 11, "value": 97}, "group": "control_change"}, {"time": 261676, "annotation": {"number": 11, "value": 96}, "group": "control_change"}, {"time": 261696, "annotation": {"number": 11, "value": 95}, "group": "control_change"}, {"time": 261716, "annotation": {"number": 11, "value": 94}, "group": "control_change"}, {"time": 261736, "annotation": {"number": 11, "value": 93}, "group": "control_change"}, {"time": 261756, "annotation": {"number": 11, "value": 92}, "group": "control_change"}, {"time": 261776, "annotation": {"number": 11, "value": 91}, "group": "control_change"}, {"time": 261786, "annotation": {"number": 11, "value": 90}, "group": "control_change"}, {"time": 261806, "annotation": {"number": 11, "value": 89}, "group": "control_change"}, {"time": 261826, "annotation": {"number": 11, "value": 88}, "group": "control_change"}, {"time": 261846, "annotation": {"number": 11, "value": 87}, "group": "control_change"}, {"time": 261866, "annotation": {"number": 11, "value": 86}, "group": "control_change"}, {"time": 261886, "annotation": {"number": 11, "value": 85}, "group": "control_change"}, {"time": 261906, "annotation": {"number": 11, "value": 84}, "group": "control_change"}, {"time": 261925, "annotation": {"number": 11, "value": 83}, "group": "control_change"}, {"time": 261945, "annotation": {"number": 11, "value": 82}, "group": "control_change"}, {"time": 261965, "annotation": {"number": 11, "value": 81}, "group": "control_change"}, {"time": 261975, "annotation": {"number": 11, "value": 80}, "group": "control_change"}, {"time": 261995, "annotation": {"number": 11, "value": 79}, "group": "control_change"}, {"time": 262015, "annotation": {"number": 11, "value": 78}, "group": "control_change"}, {"time": 262035, "annotation": {"number": 11, "value": 77}, "group": "control_change"}, {"time": 262055, "annotation": {"number": 11, "value": 76}, "group": "control_change"}, {"time": 262075, "annotation": {"number": 11, "value": 75}, "group": "control_change"}, {"time": 262095, "annotation": {"number": 11, "value": 74}, "group": "control_change"}, {"time": 262116, "annotation": {"number": 11, "value": 73}, "group": "control_change"}, {"time": 262136, "annotation": {"number": 11, "value": 72}, "group": "control_change"}, {"time": 262156, "annotation": {"number": 11, "value": 71}, "group": "control_change"}, {"time": 262167, "annotation": {"number": 11, "value": 70}, "group": "control_change"}, {"time": 262187, "annotation": {"number": 11, "value": 69}, "group": "control_change"}, {"time": 262207, "annotation": {"number": 11, "value": 68}, "group": "control_change"}, {"time": 262228, "annotation": {"number": 11, "value": 67}, "group": "control_change"}, {"time": 262248, "annotation": {"number": 11, "value": 66}, "group": "control_change"}, {"time": 262269, "annotation": {"number": 11, "value": 65}, "group": "control_change"}, {"time": 262289, "annotation": {"number": 11, "value": 64}, "group": "control_change"}, {"time": 262310, "annotation": {"number": 11, "value": 63}, "group": "control_change"}, {"time": 262330, "annotation": {"number": 11, "value": 62}, "group": "control_change"}, {"time": 262350, "annotation": {"number": 11, "value": 61}, "group": "control_change"}, {"time": 262361, "annotation": {"number": 11, "value": 60}, "group": "control_change"}, {"time": 262381, "annotation": {"number": 11, "value": 59}, "group": "control_change"}, {"time": 262401, "annotation": {"number": 11, "value": 58}, "group": "control_change"}, {"time": 262422, "annotation": {"number": 11, "value": 57}, "group": "control_change"}, {"time": 262442, "annotation": {"number": 11, "value": 56}, "group": "control_change"}, {"time": 262463, "annotation": {"number": 11, "value": 55}, "group": "control_change"}, {"time": 262483, "annotation": {"number": 11, "value": 54}, "group": "control_change"}, {"time": 262503, "annotation": {"number": 11, "value": 53}, "group": "control_change"}, {"time": 262524, "annotation": {"number": 11, "value": 52}, "group": "control_change"}, {"time": 262544, "annotation": {"number": 11, "value": 51}, "group": "control_change"}, {"time": 262554, "annotation": {"number": 11, "value": 50}, "group": "control_change"}, {"time": 262574, "annotation": {"number": 11, "value": 49}, "group": "control_change"}, {"time": 262594, "annotation": {"number": 11, "value": 48}, "group": "control_change"}, {"time": 262614, "annotation": {"number": 11, "value": 47}, "group": "control_change"}, {"time": 262634, "annotation": {"number": 11, "value": 46}, "group": "control_change"}, {"time": 262654, "annotation": {"number": 11, "value": 45}, "group": "control_change"}, {"time": 262674, "annotation": {"number": 11, "value": 44}, "group": "control_change"}, {"time": 262694, "annotation": {"number": 11, "value": 43}, "group": "control_change"}, {"time": 262714, "annotation": {"number": 11, "value": 42}, "group": "control_change"}, {"time": 262734, "annotation": {"number": 11, "value": 41}, "group": "control_change"}, {"time": 262744, "annotation": {"number": 11, "value": 40}, "group": "control_change"}, {"time": 262764, "annotation": {"number": 11, "value": 39}, "group": "control_change"}, {"time": 262784, "annotation": {"number": 11, "value": 38}, "group": "control_change"}, {"time": 262804, "annotation": {"number": 11, "value": 37}, "group": "control_change"}, {"time": 262824, "annotation": {"number": 11, "value": 36}, "group": "control_change"}, {"time": 262844, "annotation": {"number": 11, "value": 35}, "group": "control_change"}, {"time": 262864, "annotation": {"number": 11, "value": 34}, "group": "control_change"}, {"time": 262883, "annotation": {"number": 11, "value": 33}, "group": "control_change"}, {"time": 262903, "annotation": {"number": 11, "value": 32}, "group": "control_change"}, {"time": 262923, "annotation": {"number": 11, "value": 31}, "group": "control_change"}, {"time": 262933, "annotation": {"number": 11, "value": 30}, "group": "control_change"}, {"time": 262953, "annotation": {"number": 11, "value": 29}, "group": "control_change"}, {"time": 262973, "annotation": {"number": 11, "value": 28}, "group": "control_change"}, {"time": 262993, "annotation": {"number": 11, "value": 27}, "group": "control_change"}, {"time": 263013, "annotation": {"number": 11, "value": 26}, "group": "control_change"}, {"time": 263033, "annotation": {"number": 11, "value": 25}, "group": "control_change"}, {"time": 263053, "annotation": {"number": 11, "value": 24}, "group": "control_change"}, {"time": 263073, "annotation": {"number": 11, "value": 23}, "group": "control_change"}, {"time": 263093, "annotation": {"number": 11, "value": 22}, "group": "control_change"}, {"time": 263113, "annotation": {"number": 11, "value": 21}, "group": "control_change"}, {"time": 263123, "annotation": {"number": 11, "value": 20}, "group": "control_change"}, {"time": 263143, "annotation": {"number": 11, "value": 19}, "group": "control_change"}, {"time": 263163, "annotation": {"number": 11, "value": 18}, "group": "control_change"}, {"time": 263182, "annotation": {"number": 11, "value": 17}, "group": "control_change"}, {"time": 263202, "annotation": {"number": 11, "value": 16}, "group": "control_change"}, {"time": 263222, "annotation": {"number": 11, "value": 15}, "group": "control_change"}, {"time": 263242, "annotation": {"number": 11, "value": 14}, "group": "control_change"}, {"time": 263262, "annotation": {"number": 11, "value": 13}, "group": "control_change"}, {"time": 263282, "annotation": {"number": 11, "value": 12}, "group": "control_change"}, {"time": 263302, "annotation": {"number": 11, "value": 11}, "group": "control_change"}, {"time": 263312, "annotation": {"number": 11, "value": 10}, "group": "control_change"}, {"time": 263332, "annotation": {"number": 11, "value": 9}, "group": "control_change"}, {"time": 263352, "annotation": {"number": 11, "value": 8}, "group": "control_change"}, {"time": 263372, "annotation": {"number": 11, "value": 7}, "group": "control_change"}, {"time": 263392, "annotation": {"number": 11, "value": 6}, "group": "control_change"}, {"time": 263412, "annotation": {"number": 11, "value": 5}, "group": "control_change"}, {"time": 263432, "annotation": {"number": 11, "value": 4}, "group": "control_change"}, {"time": 263452, "annotation": {"number": 11, "value": 3}, "group": "control_change"}, {"time": 263471, "annotation": {"number": 11, "value": 2}, "group": "control_change"}, {"time": 263491, "annotation": {"number": 11, "value": 1}, "group": "control_change"}, {"time": 263501, "annotation": {"number": 11, "value": 0}, "group": "control_change"}, {"time": 264478, "annotation": {"number": 11, "value": 100}, "group": "control_change"}, {"time": 277481, "annotation": {"number": 11, "value": 99}, "group": "control_change"}, {"time": 277518, "annotation": {"number": 11, "value": 98}, "group": "control_change"}, {"time": 277555, "annotation": {"number": 11, "value": 97}, "group": "control_change"}, {"time": 277592, "annotation": {"number": 11, "value": 96}, "group": "control_change"}, {"time": 277629, "annotation": {"number": 11, "value": 95}, "group": "control_change"}, {"time": 277666, "annotation": {"number": 11, "value": 94}, "group": "control_change"}, {"time": 277705, "annotation": {"number": 11, "value": 93}, "group": "control_change"}, {"time": 277742, "annotation": {"number": 11, "value": 92}, "group": "control_change"}, {"time": 277777, "annotation": {"number": 11, "value": 91}, "group": "control_change"}, {"time": 277797, "annotation": {"number": 11, "value": 90}, "group": "control_change"}, {"time": 277834, "annotation": {"number": 11, "value": 89}, "group": "control_change"}, {"time": 277871, "annotation": {"number": 11, "value": 88}, "group": "control_change"}, {"time": 277908, "annotation": {"number": 11, "value": 87}, "group": "control_change"}, {"time": 277932, "annotation": {"number": 11, "value": 86}, "group": "control_change"}, {"time": 277950, "annotation": {"number": 11, "value": 85}, "group": "control_change"}, {"time": 277969, "annotation": {"number": 11, "value": 84}, "group": "control_change"}, {"time": 277987, "annotation": {"number": 11, "value": 83}, "group": "control_change"}, {"time": 278005, "annotation": {"number": 11, "value": 82}, "group": "control_change"}, {"time": 278024, "annotation": {"number": 11, "value": 81}, "group": "control_change"}, {"time": 278032, "annotation": {"number": 11, "value": 80}, "group": "control_change"}, {"time": 278051, "annotation": {"number": 11, "value": 79}, "group": "control_change"}, {"time": 278069, "annotation": {"number": 11, "value": 78}, "group": "control_change"}, {"time": 278087, "annotation": {"number": 11, "value": 77}, "group": "control_change"}, {"time": 278106, "annotation": {"number": 11, "value": 76}, "group": "control_change"}, {"time": 278124, "annotation": {"number": 11, "value": 75}, "group": "control_change"}, {"time": 278142, "annotation": {"number": 11, "value": 74}, "group": "control_change"}, {"time": 278161, "annotation": {"number": 11, "value": 73}, "group": "control_change"}, {"time": 278179, "annotation": {"number": 11, "value": 72}, "group": "control_change"}, {"time": 278197, "annotation": {"number": 11, "value": 71}, "group": "control_change"}, {"time": 278206, "annotation": {"number": 11, "value": 70}, "group": "control_change"}, {"time": 278224, "annotation": {"number": 11, "value": 69}, "group": "control_change"}, {"time": 278243, "annotation": {"number": 11, "value": 68}, "group": "control_change"}, {"time": 278261, "annotation": {"number": 11, "value": 67}, "group": "control_change"}, {"time": 278279, "annotation": {"number": 11, "value": 66}, "group": "control_change"}, {"time": 278298, "annotation": {"number": 11, "value": 65}, "group": "control_change"}, {"time": 278316, "annotation": {"number": 11, "value": 64}, "group": "control_change"}, {"time": 278333, "annotation": {"number": 11, "value": 63}, "group": "control_change"}, {"time": 278352, "annotation": {"number": 11, "value": 62}, "group": "control_change"}, {"time": 278370, "annotation": {"number": 11, "value": 61}, "group": "control_change"}, {"time": 278380, "annotation": {"number": 11, "value": 60}, "group": "control_change"}, {"time": 278398, "annotation": {"number": 11, "value": 59}, "group": "control_change"}, {"time": 278415, "annotation": {"number": 11, "value": 58}, "group": "control_change"}, {"time": 278432, "annotation": {"number": 11, "value": 57}, "group": "control_change"}, {"time": 278450, "annotation": {"number": 11, "value": 56}, "group": "control_change"}, {"time": 278467, "annotation": {"number": 11, "value": 55}, "group": "control_change"}, {"time": 278485, "annotation": {"number": 11, "value": 54}, "group": "control_change"}, {"time": 278503, "annotation": {"number": 11, "value": 53}, "group": "control_change"}, {"time": 278520, "annotation": {"number": 11, "value": 52}, "group": "control_change"}, {"time": 278538, "annotation": {"number": 11, "value": 51}, "group": "control_change"}, {"time": 278546, "annotation": {"number": 11, "value": 50}, "group": "control_change"}, {"time": 278564, "annotation": {"number": 11, "value": 49}, "group": "control_change"}, {"time": 278581, "annotation": {"number": 11, "value": 48}, "group": "control_change"}, {"time": 278599, "annotation": {"number": 11, "value": 47}, "group": "control_change"}, {"time": 278616, "annotation": {"number": 11, "value": 46}, "group": "control_change"}, {"time": 278634, "annotation": {"number": 11, "value": 45}, "group": "control_change"}, {"time": 278652, "annotation": {"number": 11, "value": 44}, "group": "control_change"}, {"time": 278669, "annotation": {"number": 11, "value": 43}, "group": "control_change"}, {"time": 278687, "annotation": {"number": 11, "value": 42}, "group": "control_change"}, {"time": 278703, "annotation": {"number": 11, "value": 41}, "group": "control_change"}, {"time": 278713, "annotation": {"number": 11, "value": 40}, "group": "control_change"}, {"time": 278730, "annotation": {"number": 11, "value": 39}, "group": "control_change"}, {"time": 278748, "annotation": {"number": 11, "value": 38}, "group": "control_change"}, {"time": 278765, "annotation": {"number": 11, "value": 37}, "group": "control_change"}, {"time": 278783, "annotation": {"number": 11, "value": 36}, "group": "control_change"}, {"time": 278800, "annotation": {"number": 11, "value": 35}, "group": "control_change"}, {"time": 278817, "annotation": {"number": 11, "value": 34}, "group": "control_change"}, {"time": 278835, "annotation": {"number": 11, "value": 33}, "group": "control_change"}, {"time": 278852, "annotation": {"number": 11, "value": 32}, "group": "control_change"}, {"time": 278870, "annotation": {"number": 11, "value": 31}, "group": "control_change"}, {"time": 278879, "annotation": {"number": 11, "value": 30}, "group": "control_change"}, {"time": 278895, "annotation": {"number": 11, "value": 29}, "group": "control_change"}, {"time": 278912, "annotation": {"number": 11, "value": 28}, "group": "control_change"}, {"time": 278929, "annotation": {"number": 11, "value": 27}, "group": "control_change"}, {"time": 278946, "annotation": {"number": 11, "value": 26}, "group": "control_change"}, {"time": 278963, "annotation": {"number": 11, "value": 25}, "group": "control_change"}, {"time": 278980, "annotation": {"number": 11, "value": 24}, "group": "control_change"}, {"time": 278997, "annotation": {"number": 11, "value": 23}, "group": "control_change"}, {"time": 279013, "annotation": {"number": 11, "value": 22}, "group": "control_change"}, {"time": 279030, "annotation": {"number": 11, "value": 21}, "group": "control_change"}, {"time": 279038, "annotation": {"number": 11, "value": 20}, "group": "control_change"}, {"time": 279055, "annotation": {"number": 11, "value": 19}, "group": "control_change"}, {"time": 279072, "annotation": {"number": 11, "value": 18}, "group": "control_change"}, {"time": 279089, "annotation": {"number": 11, "value": 17}, "group": "control_change"}, {"time": 279106, "annotation": {"number": 11, "value": 16}, "group": "control_change"}, {"time": 279123, "annotation": {"number": 11, "value": 15}, "group": "control_change"}, {"time": 279140, "annotation": {"number": 11, "value": 14}, "group": "control_change"}, {"time": 279156, "annotation": {"number": 11, "value": 13}, "group": "control_change"}, {"time": 279173, "annotation": {"number": 11, "value": 12}, "group": "control_change"}, {"time": 279189, "annotation": {"number": 11, "value": 11}, "group": "control_change"}, {"time": 279198, "annotation": {"number": 11, "value": 10}, "group": "control_change"}, {"time": 279215, "annotation": {"number": 11, "value": 9}, "group": "control_change"}, {"time": 279232, "annotation": {"number": 11, "value": 8}, "group": "control_change"}, {"time": 279248, "annotation": {"number": 11, "value": 7}, "group": "control_change"}, {"time": 279265, "annotation": {"number": 11, "value": 6}, "group": "control_change"}, {"time": 279282, "annotation": {"number": 11, "value": 5}, "group": "control_change"}, {"time": 279299, "annotation": {"number": 11, "value": 4}, "group": "control_change"}, {"time": 279316, "annotation": {"number": 11, "value": 3}, "group": "control_change"}, {"time": 279333, "annotation": {"number": 11, "value": 2}, "group": "control_change"}, {"time": 279349, "annotation": {"number": 11, "value": 1}, "group": "control_change"}, {"time": 279357, "annotation": {"number": 11, "value": 0}, "group": "control_change"}, {"time": 279378, "annotation": {"number": 11, "value": 100}, "group": "control_change"}]}, {"program": 0, "is_drum": false, "name": "Melo", "annotations": [{"time": 229, "annotation": {"number": 0, "value": 0}, "group": "control_change"}, {"time": 251, "annotation": {"number": 32, "value": 2}, "group": "control_change"}]}, {"program": 73, "is_drum": false, "name": "Melo", "notes": [{"time": 12000, "pitch": 76, "duration": 239, "velocity": 100}, {"time": 12478, "pitch": 76, "duration": 479, "velocity": 100}, {"time": 12957, "pitch": 76, "duration": 239, "velocity": 100}, {"time": 13196, "pitch": 72, "duration": 239, "velocity": 100}, {"time": 13680, "pitch": 77, "duration": 723, "velocity": 100}, {"time": 14403, "pitch": 76, "duration": 239, "velocity": 100}, {"time": 14882, "pitch": 74, "duration": 239, "velocity": 100}, {"time": 15121, "pitch": 72, "duration": 239, "velocity": 100}, {"time": 15838, "pitch": 74, "duration": 240, "velocity": 100}, {"time": 16317, "pitch": 74, "duration": 478, "velocity": 100}, {"time": 16795, "pitch": 74, "duration": 245, "velocity": 100}, {"time": 17040, "pitch": 71, "duration": 245, "velocity": 100}, {"time": 17524, "pitch": 76, "duration": 239, "velocity": 100}, {"time": 20400, "pitch": 72, "duration": 163, "velocity": 100}, {"time": 20645, "pitch": 72, "duration": 239, "velocity": 100}, {"time": 20884, "pitch": 69, "duration": 239, "velocity": 100}, {"time": 21362, "pitch": 74, "duration": 718, "velocity": 100}, {"time": 22080, "pitch": 72, "duration": 239, "velocity": 100}, {"time": 22558, "pitch": 70, "duration": 240, "velocity": 100}, {"time": 22798, "pitch": 69, "duration": 239, "velocity": 100}, {"time": 23515, "pitch": 70, "duration": 245, "velocity": 100}, {"time": 24005, "pitch": 70, "duration": 478, "velocity": 100}, {"time": 24483, "pitch": 72, "duration": 479, "velocity": 100}, {"time": 24962, "pitch": 74, "duration": 239, "velocity": 100}, {"time": 25201, "pitch": 76, "duration": 239, "velocity": 100}, {"time": 27843, "pitch": 69, "duration": 160, "velocity": 100}, {"time": 28082, "pitch": 69, "duration": 240, "velocity": 100}, {"time": 28322, "pitch": 71, "duration": 239, "velocity": 100}, {"time": 28561, "pitch": 72, "duration": 239, "velocity": 100}, {"time": 29757, "pitch": 69, "duration": 478, "velocity": 100}, {"time": 30235, "pitch": 72, "duration": 245, "velocity": 100}, {"time": 30480, "pitch": 69, "duration": 245, "velocity": 100}, {"time": 30725, "pitch": 69, "duration": 478, "velocity": 100}, {"time": 31203, "pitch": 77, "duration": 718, "velocity": 100}, {"time": 31921, "pitch": 76, "duration": 717, "velocity": 100}, {"time": 32638, "pitch": 74, "duration": 479, "velocity": 100}, {"time": 34563, "pitch": 72, "duration": 479, "velocity": 100}, {"time": 35042, "pitch": 74, "duration": 717, "velocity": 100}, {"time": 35759, "pitch": 76, "duration": 718, "velocity": 100}, {"time": 36477, "pitch": 76, "duration": 239, "velocity": 100}, {"time": 42718, "pitch": 76, "duration": 240, "velocity": 100}, {"time": 43197, "pitch": 76, "duration": 478, "velocity": 100}, {"time": 43675, "pitch": 76, "duration": 245, "velocity": 100}, {"time": 43920, "pitch": 72, "duration": 245, "velocity": 100}, {"time": 44404, "pitch": 77, "duration": 718, "velocity": 100}, {"time": 45122, "pitch": 76, "duration": 239, "velocity": 100}, {"time": 45600, "pitch": 74, "duration": 239, "velocity": 100}, {"time": 45839, "pitch": 72, "duration": 239, "velocity": 100}, {"time": 46557, "pitch": 74, "duration": 239, "velocity": 100}, {"time": 47035, "pitch": 74, "duration": 490, "velocity": 100}, {"time": 47525, "pitch": 74, "duration": 239, "velocity": 100}, {"time": 47764, "pitch": 71, "duration": 239, "velocity": 100}, {"time": 48242, "pitch": 76, "duration": 240, "velocity": 100}, {"time": 50395, "pitch": 72, "duration": 245, "velocity": 100}, {"time": 50885, "pitch": 72, "duration": 478, "velocity": 100}, {"time": 51363, "pitch": 72, "duration": 239, "velocity": 100}, {"time": 51602, "pitch": 69, "duration": 240, "velocity": 100}, {"time": 52081, "pitch": 74, "duration": 717, "velocity": 100}, {"time": 52798, "pitch": 72, "duration": 240, "velocity": 100}, {"time": 53277, "pitch": 70, "duration": 239, "velocity": 100}, {"time": 53516, "pitch": 69, "duration": 239, "velocity": 100}, {"time": 54245, "pitch": 70, "duration": 239, "velocity": 100}, {"time": 54723, "pitch": 70, "duration": 479, "velocity": 100}, {"time": 55202, "pitch": 72, "duration": 478, "velocity": 100}, {"time": 55680, "pitch": 74, "duration": 239, "velocity": 100}, {"time": 55919, "pitch": 74, "duration": 239, "velocity": 100}, {"time": 58801, "pitch": 69, "duration": 239, "velocity": 100}, {"time": 59040, "pitch": 71, "duration": 239, "velocity": 100}, {"time": 59279, "pitch": 72, "duration": 239, "velocity": 100}, {"time": 60475, "pitch": 69, "duration": 490, "velocity": 100}, {"time": 60965, "pitch": 72, "duration": 239, "velocity": 100}, {"time": 61204, "pitch": 69, "duration": 239, "velocity": 100}, {"time": 61443, "pitch": 69, "duration": 479, "velocity": 100}, {"time": 61922, "pitch": 77, "duration": 717, "velocity": 100}, {"time": 62639, "pitch": 76, "duration": 718, "velocity": 100}, {"time": 63357, "pitch": 74, "duration": 478, "velocity": 100}, {"time": 65042, "pitch": 72, "duration": 240, "velocity": 100}, {"time": 65282, "pitch": 74, "duration": 239, "velocity": 100}, {"time": 65521, "pitch": 72, "duration": 239, "velocity": 100}, {"time": 65760, "pitch": 74, "duration": 718, "velocity": 100}, {"time": 66478, "pitch": 76, "duration": 717, "velocity": 100}, {"time": 67195, "pitch": 76, "duration": 245, "velocity": 100}, {"time": 73437, "pitch": 74, "duration": 1446, "velocity": 100}, {"time": 74883, "pitch": 71, "duration": 479, "velocity": 100}, {"time": 75362, "pitch": 71, "duration": 478, "velocity": 100}, {"time": 75840, "pitch": 77, "duration": 478, "velocity": 100}, {"time": 76318, "pitch": 76, "duration": 479, "velocity": 100}, {"time": 76797, "pitch": 74, "duration": 478, "velocity": 100}, {"time": 77275, "pitch": 72, "duration": 490, "velocity": 100}, {"time": 77765, "pitch": 74, "duration": 239, "velocity": 100}, {"time": 78004, "pitch": 76, "duration": 239, "velocity": 100}, {"time": 81125, "pitch": 74, "duration": 1435, "velocity": 100}, {"time": 82560, "pitch": 71, "duration": 478, "velocity": 100}, {"time": 83038, "pitch": 71, "duration": 479, "velocity": 100}, {"time": 83517, "pitch": 77, "duration": 478, "velocity": 100}, {"time": 83995, "pitch": 76, "duration": 490, "velocity": 100}, {"time": 84485, "pitch": 74, "duration": 478, "velocity": 100}, {"time": 84963, "pitch": 72, "duration": 239, "velocity": 100}, {"time": 85202, "pitch": 74, "duration": 240, "velocity": 100}, {"time": 85681, "pitch": 76, "duration": 239, "velocity": 100}, {"time": 89519, "pitch": 69, "duration": 239, "velocity": 100}, {"time": 89758, "pitch": 71, "duration": 240, "velocity": 100}, {"time": 89998, "pitch": 72, "duration": 239, "velocity": 100}, {"time": 91205, "pitch": 69, "duration": 159, "velocity": 100}, {"time": 91444, "pitch": 69, "duration": 239, "velocity": 100}, {"time": 91683, "pitch": 71, "duration": 239, "velocity": 100}, {"time": 91922, "pitch": 72, "duration": 240, "velocity": 100}, {"time": 93358, "pitch": 71, "duration": 239, "velocity": 100}, {"time": 93597, "pitch": 72, "duration": 239, "velocity": 100}, {"time": 93836, "pitch": 74, "duration": 239, "velocity": 100}, {"time": 95282, "pitch": 71, "duration": 239, "velocity": 100}, {"time": 95521, "pitch": 72, "duration": 240, "velocity": 100}, {"time": 95761, "pitch": 74, "duration": 239, "velocity": 100}, {"time": 96957, "pitch": 72, "duration": 159, "velocity": 100}, {"time": 97196, "pitch": 72, "duration": 239, "velocity": 100}, {"time": 97435, "pitch": 74, "duration": 245, "velocity": 100}, {"time": 97680, "pitch": 76, "duration": 245, "velocity": 100}, {"time": 98881, "pitch": 72, "duration": 160, "velocity": 100}, {"time": 99121, "pitch": 72, "duration": 239, "velocity": 100}, {"time": 99360, "pitch": 74, "duration": 239, "velocity": 100}, {"time": 99599, "pitch": 76, "duration": 239, "velocity": 100}, {"time": 100317, "pitch": 79, "duration": 478, "velocity": 100}, {"time": 100795, "pitch": 76, "duration": 245, "velocity": 100}, {"time": 101040, "pitch": 74, "duration": 484, "velocity": 100}, {"time": 103438, "pitch": 72, "duration": 239, "velocity": 100}, {"time": 103677, "pitch": 76, "duration": 239, "velocity": 100}, {"time": 103916, "pitch": 79, "duration": 239, "velocity": 100}, {"time": 104155, "pitch": 81, "duration": 490, "velocity": 100}, {"time": 105601, "pitch": 81, "duration": 479, "velocity": 100}, {"time": 106080, "pitch": 80, "duration": 478, "velocity": 100}, {"time": 106558, "pitch": 76, "duration": 479, "velocity": 100}, {"time": 107037, "pitch": 74, "duration": 478, "velocity": 100}, {"time": 107515, "pitch": 76, "duration": 490, "velocity": 100}, {"time": 108005, "pitch": 74, "duration": 478, "velocity": 100}, {"time": 108483, "pitch": 72, "duration": 239, "velocity": 100}, {"time": 108722, "pitch": 72, "duration": 239, "velocity": 100}, {"time": 110397, "pitch": 72, "duration": 478, "velocity": 100}, {"time": 110875, "pitch": 76, "duration": 245, "velocity": 100}, {"time": 111120, "pitch": 79, "duration": 245, "velocity": 100}, {"time": 111604, "pitch": 81, "duration": 478, "velocity": 100}, {"time": 113278, "pitch": 81, "duration": 479, "velocity": 100}, {"time": 113757, "pitch": 80, "duration": 478, "velocity": 100}, {"time": 114235, "pitch": 81, "duration": 490, "velocity": 100}, {"time": 114725, "pitch": 83, "duration": 478, "velocity": 100}, {"time": 115203, "pitch": 84, "duration": 478, "velocity": 100}, {"time": 118085, "pitch": 72, "duration": 478, "velocity": 100}, {"time": 118563, "pitch": 76, "duration": 239, "velocity": 100}, {"time": 118802, "pitch": 79, "duration": 239, "velocity": 100}, {"time": 119281, "pitch": 81, "duration": 1435, "velocity": 100}, {"time": 120955, "pitch": 81, "duration": 490, "velocity": 100}, {"time": 121445, "pitch": 80, "duration": 478, "velocity": 100}, {"time": 121923, "pitch": 76, "duration": 478, "velocity": 100}, {"time": 122401, "pitch": 74, "duration": 479, "velocity": 100}, {"time": 122880, "pitch": 72, "duration": 239, "velocity": 100}, {"time": 123119, "pitch": 72, "duration": 239, "velocity": 100}, {"time": 126479, "pitch": 69, "duration": 239, "velocity": 100}, {"time": 126718, "pitch": 72, "duration": 239, "velocity": 100}, {"time": 126957, "pitch": 69, "duration": 250, "velocity": 100}, {"time": 127197, "pitch": 77, "duration": 723, "velocity": 100}, {"time": 127920, "pitch": 76, "duration": 723, "velocity": 100}, {"time": 128643, "pitch": 72, "duration": 478, "velocity": 100}, {"time": 130317, "pitch": 69, "duration": 240, "velocity": 100}, {"time": 130557, "pitch": 72, "duration": 239, "velocity": 100}, {"time": 130796, "pitch": 69, "duration": 249, "velocity": 100}, {"time": 131035, "pitch": 77, "duration": 729, "velocity": 100}, {"time": 131764, "pitch": 76, "duration": 717, "velocity": 100}, {"time": 132481, "pitch": 72, "duration": 479, "velocity": 100}, {"time": 133438, "pitch": 72, "duration": 239, "velocity": 100}, {"time": 133917, "pitch": 76, "duration": 478, "velocity": 100}, {"time": 134395, "pitch": 72, "duration": 224, "velocity": 100}, {"time": 134640, "pitch": 72, "duration": 723, "velocity": 100}, {"time": 142561, "pitch": 76, "duration": 240, "velocity": 100}, {"time": 143040, "pitch": 76, "duration": 478, "velocity": 100}, {"time": 143518, "pitch": 76, "duration": 239, "velocity": 100}, {"time": 143757, "pitch": 72, "duration": 240, "velocity": 100}, {"time": 144236, "pitch": 77, "duration": 729, "velocity": 100}, {"time": 144965, "pitch": 76, "duration": 239, "velocity": 100}, {"time": 145443, "pitch": 74, "duration": 239, "velocity": 100}, {"time": 145682, "pitch": 72, "duration": 239, "velocity": 100}, {"time": 146400, "pitch": 74, "duration": 897, "velocity": 100}, {"time": 147357, "pitch": 74, "duration": 239, "velocity": 100}, {"time": 147596, "pitch": 71, "duration": 239, "velocity": 100}, {"time": 148080, "pitch": 76, "duration": 245, "velocity": 100}, {"time": 150238, "pitch": 72, "duration": 897, "velocity": 100}, {"time": 151195, "pitch": 72, "duration": 245, "velocity": 100}, {"time": 151440, "pitch": 69, "duration": 245, "velocity": 100}, {"time": 151924, "pitch": 74, "duration": 717, "velocity": 100}, {"time": 152641, "pitch": 72, "duration": 240, "velocity": 100}, {"time": 153120, "pitch": 70, "duration": 239, "velocity": 100}, {"time": 153359, "pitch": 69, "duration": 239, "velocity": 100}, {"time": 154077, "pitch": 70, "duration": 239, "velocity": 100}, {"time": 154555, "pitch": 70, "duration": 490, "velocity": 100}, {"time": 155045, "pitch": 72, "duration": 478, "velocity": 100}, {"time": 155523, "pitch": 74, "duration": 239, "velocity": 100}, {"time": 155762, "pitch": 74, "duration": 239, "velocity": 100}, {"time": 158644, "pitch": 69, "duration": 239, "velocity": 100}, {"time": 158883, "pitch": 71, "duration": 239, "velocity": 100}, {"time": 159122, "pitch": 72, "duration": 239, "velocity": 100}, {"time": 160557, "pitch": 69, "duration": 240, "velocity": 100}, {"time": 160797, "pitch": 72, "duration": 239, "velocity": 100}, {"time": 161036, "pitch": 69, "duration": 239, "velocity": 100}, {"time": 161275, "pitch": 69, "duration": 490, "velocity": 100}, {"time": 161765, "pitch": 77, "duration": 717, "velocity": 100}, {"time": 162482, "pitch": 76, "duration": 718, "velocity": 100}, {"time": 163200, "pitch": 74, "duration": 478, "velocity": 100}, {"time": 164880, "pitch": 72, "duration": 245, "velocity": 100}, {"time": 165125, "pitch": 74, "duration": 239, "velocity": 100}, {"time": 165364, "pitch": 72, "duration": 239, "velocity": 100}, {"time": 165603, "pitch": 74, "duration": 718, "velocity": 100}, {"time": 166321, "pitch": 76, "duration": 717, "velocity": 100}, {"time": 173280, "pitch": 76, "duration": 239, "velocity": 100}, {"time": 173758, "pitch": 76, "duration": 479, "velocity": 100}, {"time": 174237, "pitch": 76, "duration": 239, "velocity": 100}, {"time": 174476, "pitch": 72, "duration": 239, "velocity": 100}, {"time": 174960, "pitch": 77, "duration": 723, "velocity": 100}, {"time": 175683, "pitch": 76, "duration": 239, "velocity": 100}, {"time": 176161, "pitch": 74, "duration": 240, "velocity": 100}, {"time": 176640, "pitch": 72, "duration": 239, "velocity": 100}, {"time": 177118, "pitch": 74, "duration": 239, "velocity": 100}, {"time": 177597, "pitch": 74, "duration": 478, "velocity": 100}, {"time": 178075, "pitch": 74, "duration": 245, "velocity": 100}, {"time": 178320, "pitch": 71, "duration": 245, "velocity": 100}, {"time": 178804, "pitch": 76, "duration": 239, "velocity": 100}, {"time": 180957, "pitch": 72, "duration": 239, "velocity": 100}, {"time": 181435, "pitch": 72, "duration": 490, "velocity": 100}, {"time": 181925, "pitch": 72, "duration": 239, "velocity": 100}, {"time": 182164, "pitch": 69, "duration": 239, "velocity": 100}, {"time": 182642, "pitch": 74, "duration": 718, "velocity": 100}, {"time": 183360, "pitch": 72, "duration": 239, "velocity": 100}, {"time": 183838, "pitch": 70, "duration": 239, "velocity": 100}, {"time": 184077, "pitch": 69, "duration": 240, "velocity": 100}, {"time": 184556, "pitch": 70, "duration": 484, "velocity": 100}, {"time": 185285, "pitch": 70, "duration": 478, "velocity": 100}, {"time": 185763, "pitch": 72, "duration": 478, "velocity": 100}, {"time": 186241, "pitch": 74, "duration": 240, "velocity": 100}, {"time": 186481, "pitch": 74, "duration": 239, "velocity": 100}, {"time": 189362, "pitch": 69, "duration": 239, "velocity": 100}, {"time": 189601, "pitch": 71, "duration": 240, "velocity": 100}, {"time": 189841, "pitch": 72, "duration": 239, "velocity": 100}, {"time": 191037, "pitch": 69, "duration": 159, "velocity": 100}, {"time": 191276, "pitch": 69, "duration": 239, "velocity": 100}, {"time": 191515, "pitch": 72, "duration": 245, "velocity": 100}, {"time": 191760, "pitch": 69, "duration": 245, "velocity": 100}, {"time": 192244, "pitch": 77, "duration": 957, "velocity": 100}, {"time": 193201, "pitch": 76, "duration": 717, "velocity": 100}, {"time": 193918, "pitch": 74, "duration": 479, "velocity": 100}, {"time": 195604, "pitch": 72, "duration": 239, "velocity": 100}, {"time": 195843, "pitch": 74, "duration": 239, "velocity": 100}, {"time": 196082, "pitch": 72, "duration": 239, "velocity": 100}, {"time": 196321, "pitch": 74, "duration": 718, "velocity": 100}, {"time": 197039, "pitch": 76, "duration": 718, "velocity": 100}, {"time": 197757, "pitch": 76, "duration": 239, "velocity": 100}, {"time": 203998, "pitch": 74, "duration": 1447, "velocity": 100}, {"time": 205445, "pitch": 71, "duration": 478, "velocity": 100}, {"time": 205923, "pitch": 71, "duration": 478, "velocity": 100}, {"time": 206401, "pitch": 77, "duration": 479, "velocity": 100}, {"time": 206880, "pitch": 76, "duration": 478, "velocity": 100}, {"time": 207358, "pitch": 74, "duration": 479, "velocity": 100}, {"time": 207837, "pitch": 72, "duration": 239, "velocity": 100}, {"time": 208076, "pitch": 74, "duration": 239, "velocity": 100}, {"time": 208315, "pitch": 76, "duration": 245, "velocity": 100}, {"time": 211675, "pitch": 74, "duration": 1446, "velocity": 100}, {"time": 213121, "pitch": 71, "duration": 479, "velocity": 100}, {"time": 213600, "pitch": 71, "duration": 478, "velocity": 100}, {"time": 214078, "pitch": 77, "duration": 479, "velocity": 100}, {"time": 214557, "pitch": 76, "duration": 478, "velocity": 100}, {"time": 215035, "pitch": 74, "duration": 490, "velocity": 100}, {"time": 215525, "pitch": 72, "duration": 239, "velocity": 100}, {"time": 215764, "pitch": 74, "duration": 239, "velocity": 100}, {"time": 216003, "pitch": 76, "duration": 239, "velocity": 100}, {"time": 220081, "pitch": 69, "duration": 239, "velocity": 100}, {"time": 220320, "pitch": 71, "duration": 239, "velocity": 100}, {"time": 220559, "pitch": 72, "duration": 239, "velocity": 100}, {"time": 221755, "pitch": 69, "duration": 163, "velocity": 100}, {"time": 222000, "pitch": 69, "duration": 245, "velocity": 100}, {"time": 222245, "pitch": 71, "duration": 239, "velocity": 100}, {"time": 222484, "pitch": 72, "duration": 239, "velocity": 100}, {"time": 223680, "pitch": 71, "duration": 159, "velocity": 100}, {"time": 223919, "pitch": 71, "duration": 239, "velocity": 100}, {"time": 224158, "pitch": 72, "duration": 239, "velocity": 100}, {"time": 224397, "pitch": 74, "duration": 240, "velocity": 100}, {"time": 225844, "pitch": 71, "duration": 239, "velocity": 100}, {"time": 226083, "pitch": 72, "duration": 239, "velocity": 100}, {"time": 226322, "pitch": 74, "duration": 239, "velocity": 100}, {"time": 227518, "pitch": 72, "duration": 160, "velocity": 100}, {"time": 227757, "pitch": 72, "duration": 240, "velocity": 100}, {"time": 227997, "pitch": 74, "duration": 239, "velocity": 100}, {"time": 228236, "pitch": 76, "duration": 239, "velocity": 100}, {"time": 229443, "pitch": 72, "duration": 159, "velocity": 100}, {"time": 229682, "pitch": 72, "duration": 239, "velocity": 100}, {"time": 229921, "pitch": 74, "duration": 240, "velocity": 100}, {"time": 230161, "pitch": 76, "duration": 239, "velocity": 100}, {"time": 230878, "pitch": 79, "duration": 479, "velocity": 100}, {"time": 231357, "pitch": 76, "duration": 239, "velocity": 100}, {"time": 231596, "pitch": 74, "duration": 484, "velocity": 100}, {"time": 233999, "pitch": 72, "duration": 239, "velocity": 100}, {"time": 234238, "pitch": 76, "duration": 239, "velocity": 100}, {"time": 234477, "pitch": 79, "duration": 240, "velocity": 100}, {"time": 234717, "pitch": 81, "duration": 478, "velocity": 100}, {"time": 236163, "pitch": 81, "duration": 478, "velocity": 100}, {"time": 236641, "pitch": 80, "duration": 479, "velocity": 100}, {"time": 237120, "pitch": 76, "duration": 478, "velocity": 100}, {"time": 237598, "pitch": 74, "duration": 479, "velocity": 100}, {"time": 238077, "pitch": 72, "duration": 478, "velocity": 100}, {"time": 240958, "pitch": 72, "duration": 479, "velocity": 100}, {"time": 241437, "pitch": 76, "duration": 239, "velocity": 100}, {"time": 241676, "pitch": 79, "duration": 239, "velocity": 100}, {"time": 242160, "pitch": 81, "duration": 484, "velocity": 100}, {"time": 243840, "pitch": 81, "duration": 478, "velocity": 100}, {"time": 244318, "pitch": 80, "duration": 479, "velocity": 100}, {"time": 244797, "pitch": 81, "duration": 478, "velocity": 100}, {"time": 245275, "pitch": 83, "duration": 490, "velocity": 100}, {"time": 245765, "pitch": 84, "duration": 478, "velocity": 100}, {"time": 248635, "pitch": 72, "duration": 490, "velocity": 100}, {"time": 249125, "pitch": 76, "duration": 239, "velocity": 100}, {"time": 249364, "pitch": 79, "duration": 239, "velocity": 100}, {"time": 249842, "pitch": 81, "duration": 1435, "velocity": 100}, {"time": 251517, "pitch": 81, "duration": 478, "velocity": 100}, {"time": 251995, "pitch": 80, "duration": 490, "velocity": 100}, {"time": 252485, "pitch": 76, "duration": 478, "velocity": 100}, {"time": 252963, "pitch": 74, "duration": 478, "velocity": 100}, {"time": 253441, "pitch": 72, "duration": 479, "velocity": 100}, {"time": 257041, "pitch": 69, "duration": 239, "velocity": 100}, {"time": 257280, "pitch": 72, "duration": 239, "velocity": 100}, {"time": 257519, "pitch": 69, "duration": 249, "velocity": 100}, {"time": 257758, "pitch": 77, "duration": 718, "velocity": 100}, {"time": 258476, "pitch": 76, "duration": 729, "velocity": 100}, {"time": 259205, "pitch": 72, "duration": 478, "velocity": 100}, {"time": 260879, "pitch": 69, "duration": 239, "velocity": 100}, {"time": 261118, "pitch": 72, "duration": 239, "velocity": 100}, {"time": 261357, "pitch": 69, "duration": 250, "velocity": 100}, {"time": 261597, "pitch": 77, "duration": 723, "velocity": 100}, {"time": 262320, "pitch": 76, "duration": 723, "velocity": 100}, {"time": 263043, "pitch": 72, "duration": 478, "velocity": 100}, {"time": 264000, "pitch": 72, "duration": 239, "velocity": 100}, {"time": 264239, "pitch": 76, "duration": 239, "velocity": 100}, {"time": 264478, "pitch": 72, "duration": 219, "velocity": 100}], "annotations": [{"time": 297, "annotation": {"number": 7, "value": 80}, "group": "control_change"}, {"time": 320, "annotation": {"number": 10, "value": 64}, "group": "control_change"}, {"time": 343, "annotation": {"number": 11, "value": 100}, "group": "control_change"}, {"time": 366, "annotation": {"number": 91, "value": 40}, "group": "control_change"}, {"time": 389, "annotation": {"number": 93, "value": 0}, "group": "control_change"}, {"time": 411, "annotation": {"number": 101, "value": 0}, "group": "control_change"}, {"time": 434, "annotation": {"number": 100, "value": 0}, "group": "control_change"}, {"time": 457, "annotation": {"number": 6, "value": 12}, "group": "control_change"}, {"time": 480, "annotation": {"number": 1, "value": 0}, "group": "control_change"}, {"time": 485, "annotation": {"number": 64, "value": 0}, "group": "control_change"}]}, {"program": 0, "is_drum": false, "name": "Vibe", "annotations": [{"time": 229, "annotation": {"number": 0, "value": 0}, "group": "control_change"}, {"time": 251, "annotation": {"number": 32, "value": 2}, "group": "control_change"}]}, {"program": 11, "is_drum": false, "name": "Vibe", "notes": [{"time": 12000, "pitch": 75, "duration": 40, "velocity": 80}, {"time": 12040, "pitch": 76, "duration": 3778, "velocity": 90}, {"time": 15838, "pitch": 74, "duration": 1905, "velocity": 80}, {"time": 17763, "pitch": 71, "duration": 718, "velocity": 90}, {"time": 18481, "pitch": 72, "duration": 717, "velocity": 85}, {"time": 19198, "pitch": 74, "duration": 479, "velocity": 90}, {"time": 19677, "pitch": 76, "duration": 2842, "velocity": 80}, {"time": 22519, "pitch": 80, "duration": 39, "velocity": 80}, {"time": 22558, "pitch": 81, "duration": 479, "velocity": 90}, {"time": 23037, "pitch": 79, "duration": 478, "velocity": 85}, {"time": 23515, "pitch": 84, "duration": 3829, "velocity": 80}, {"time": 31203, "pitch": 77, "duration": 718, "velocity": 90}, {"time": 31921, "pitch": 76, "duration": 717, "velocity": 85}, {"time": 32638, "pitch": 74, "duration": 1925, "velocity": 80}, {"time": 35042, "pitch": 74, "duration": 717, "velocity": 90}, {"time": 35759, "pitch": 76, "duration": 718, "velocity": 85}, {"time": 36477, "pitch": 76, "duration": 478, "velocity": 80}, {"time": 39358, "pitch": 79, "duration": 718, "velocity": 80}, {"time": 40076, "pitch": 76, "duration": 729, "velocity": 75}, {"time": 40805, "pitch": 71, "duration": 1913, "velocity": 70}, {"time": 42718, "pitch": 75, "duration": 40, "velocity": 80}, {"time": 42758, "pitch": 76, "duration": 3779, "velocity": 90}, {"time": 46557, "pitch": 74, "duration": 1905, "velocity": 80}, {"time": 48482, "pitch": 71, "duration": 717, "velocity": 90}, {"time": 49199, "pitch": 72, "duration": 718, "velocity": 85}, {"time": 49917, "pitch": 74, "duration": 478, "velocity": 90}, {"time": 50395, "pitch": 76, "duration": 2842, "velocity": 80}, {"time": 53237, "pitch": 80, "duration": 40, "velocity": 80}, {"time": 53277, "pitch": 81, "duration": 478, "velocity": 90}, {"time": 53755, "pitch": 79, "duration": 490, "velocity": 85}, {"time": 54245, "pitch": 84, "duration": 3818, "velocity": 80}, {"time": 61922, "pitch": 77, "duration": 717, "velocity": 90}, {"time": 62639, "pitch": 76, "duration": 718, "velocity": 85}, {"time": 63357, "pitch": 74, "duration": 1925, "velocity": 80}, {"time": 65760, "pitch": 74, "duration": 718, "velocity": 90}, {"time": 66478, "pitch": 76, "duration": 717, "velocity": 85}, {"time": 67195, "pitch": 76, "duration": 490, "velocity": 80}, {"time": 73437, "pitch": 74, "duration": 1905, "velocity": 85}, {"time": 73457, "pitch": 77, "duration": 1885, "velocity": 90}, {"time": 75362, "pitch": 68, "duration": 1893, "velocity": 85}, {"time": 75381, "pitch": 74, "duration": 1874, "velocity": 90}, {"time": 77275, "pitch": 69, "duration": 3829, "velocity": 75}, {"time": 77295, "pitch": 72, "duration": 3809, "velocity": 80}, {"time": 81125, "pitch": 74, "duration": 1893, "velocity": 85}, {"time": 81145, "pitch": 77, "duration": 1873, "velocity": 90}, {"time": 83038, "pitch": 74, "duration": 1905, "velocity": 85}, {"time": 83058, "pitch": 76, "duration": 1885, "velocity": 90}, {"time": 84963, "pitch": 72, "duration": 3101, "velocity": 75}, {"time": 84983, "pitch": 81, "duration": 3081, "velocity": 80}, {"time": 88084, "pitch": 76, "duration": 478, "velocity": 75}, {"time": 88084, "pitch": 84, "duration": 478, "velocity": 80}, {"time": 88562, "pitch": 83, "duration": 120, "velocity": 90}, {"time": 88682, "pitch": 82, "duration": 120, "velocity": 80}, {"time": 88802, "pitch": 81, "duration": 1893, "velocity": 80}, {"time": 92122, "pitch": 80, "duration": 478, "velocity": 80}, {"time": 92162, "pitch": 81, "duration": 478, "velocity": 90}, {"time": 92640, "pitch": 79, "duration": 1904, "velocity": 90}, {"time": 95960, "pitch": 76, "duration": 40, "velocity": 80}, {"time": 96000, "pitch": 77, "duration": 478, "velocity": 90}, {"time": 96478, "pitch": 76, "duration": 1905, "velocity": 90}, {"time": 100795, "pitch": 76, "duration": 245, "velocity": 85}, {"time": 101040, "pitch": 74, "duration": 1201, "velocity": 90}, {"time": 104155, "pitch": 80, "duration": 41, "velocity": 85}, {"time": 104196, "pitch": 81, "duration": 1864, "velocity": 90}, {"time": 106080, "pitch": 80, "duration": 1904, "velocity": 85}, {"time": 108005, "pitch": 80, "duration": 40, "velocity": 85}, {"time": 108045, "pitch": 81, "duration": 677, "velocity": 90}, {"time": 108722, "pitch": 76, "duration": 718, "velocity": 90}, {"time": 109440, "pitch": 79, "duration": 478, "velocity": 85}, {"time": 109918, "pitch": 81, "duration": 1905, "velocity": 80}, {"time": 111843, "pitch": 80, "duration": 40, "velocity": 85}, {"time": 111883, "pitch": 81, "duration": 1854, "velocity": 90}, {"time": 113757, "pitch": 80, "duration": 1905, "velocity": 85}, {"time": 115681, "pitch": 80, "duration": 40, "velocity": 85}, {"time": 115721, "pitch": 81, "duration": 678, "velocity": 90}, {"time": 116399, "pitch": 76, "duration": 478, "velocity": 90}, {"time": 116877, "pitch": 79, "duration": 718, "velocity": 85}, {"time": 117595, "pitch": 81, "duration": 968, "velocity": 80}, {"time": 118563, "pitch": 84, "duration": 957, "velocity": 90}, {"time": 119520, "pitch": 80, "duration": 40, "velocity": 85}, {"time": 119560, "pitch": 81, "duration": 1864, "velocity": 90}, {"time": 121445, "pitch": 80, "duration": 1893, "velocity": 85}, {"time": 123358, "pitch": 76, "duration": 1925, "velocity": 90}, {"time": 127197, "pitch": 76, "duration": 40, "velocity": 85}, {"time": 127237, "pitch": 77, "duration": 683, "velocity": 90}, {"time": 127920, "pitch": 76, "duration": 723, "velocity": 85}, {"time": 128643, "pitch": 72, "duration": 478, "velocity": 80}, {"time": 131035, "pitch": 76, "duration": 41, "velocity": 85}, {"time": 131076, "pitch": 77, "duration": 688, "velocity": 90}, {"time": 131764, "pitch": 76, "duration": 717, "velocity": 85}, {"time": 132481, "pitch": 72, "duration": 479, "velocity": 80}, {"time": 134885, "pitch": 71, "duration": 40, "velocity": 85}, {"time": 134925, "pitch": 72, "duration": 3320, "velocity": 90}, {"time": 138245, "pitch": 69, "duration": 478, "velocity": 85}, {"time": 138723, "pitch": 67, "duration": 3819, "velocity": 80}, {"time": 142561, "pitch": 75, "duration": 40, "velocity": 80}, {"time": 142601, "pitch": 76, "duration": 3779, "velocity": 90}, {"time": 146400, "pitch": 74, "duration": 1904, "velocity": 80}, {"time": 148325, "pitch": 71, "duration": 717, "velocity": 90}, {"time": 149042, "pitch": 72, "duration": 718, "velocity": 85}, {"time": 149760, "pitch": 74, "duration": 478, "velocity": 90}, {"time": 150238, "pitch": 76, "duration": 2842, "velocity": 80}, {"time": 153080, "pitch": 80, "duration": 40, "velocity": 80}, {"time": 153120, "pitch": 81, "duration": 478, "velocity": 90}, {"time": 153598, "pitch": 79, "duration": 479, "velocity": 85}, {"time": 154077, "pitch": 84, "duration": 3818, "velocity": 80}, {"time": 161765, "pitch": 77, "duration": 717, "velocity": 90}, {"time": 162482, "pitch": 76, "duration": 718, "velocity": 85}, {"time": 163200, "pitch": 74, "duration": 1925, "velocity": 80}, {"time": 165603, "pitch": 74, "duration": 718, "velocity": 90}, {"time": 166321, "pitch": 76, "duration": 717, "velocity": 85}, {"time": 167038, "pitch": 76, "duration": 479, "velocity": 80}, {"time": 169920, "pitch": 79, "duration": 717, "velocity": 80}, {"time": 170637, "pitch": 76, "duration": 718, "velocity": 75}, {"time": 171355, "pitch": 71, "duration": 1925, "velocity": 70}, {"time": 173280, "pitch": 75, "duration": 40, "velocity": 80}, {"time": 173320, "pitch": 76, "duration": 3778, "velocity": 90}, {"time": 177118, "pitch": 74, "duration": 1905, "velocity": 80}, {"time": 179043, "pitch": 71, "duration": 718, "velocity": 90}, {"time": 179761, "pitch": 72, "duration": 717, "velocity": 85}, {"time": 180478, "pitch": 74, "duration": 479, "velocity": 90}, {"time": 180957, "pitch": 76, "duration": 2841, "velocity": 80}, {"time": 183798, "pitch": 80, "duration": 40, "velocity": 80}, {"time": 183838, "pitch": 81, "duration": 479, "velocity": 90}, {"time": 184317, "pitch": 79, "duration": 478, "velocity": 85}, {"time": 184795, "pitch": 84, "duration": 3829, "velocity": 80}, {"time": 192483, "pitch": 77, "duration": 718, "velocity": 90}, {"time": 193201, "pitch": 76, "duration": 717, "velocity": 85}, {"time": 193918, "pitch": 74, "duration": 1925, "velocity": 80}, {"time": 196321, "pitch": 74, "duration": 718, "velocity": 90}, {"time": 197039, "pitch": 76, "duration": 718, "velocity": 85}, {"time": 197757, "pitch": 76, "duration": 478, "velocity": 80}, {"time": 203998, "pitch": 74, "duration": 1905, "velocity": 85}, {"time": 204018, "pitch": 77, "duration": 1885, "velocity": 90}, {"time": 205923, "pitch": 68, "duration": 1894, "velocity": 85}, {"time": 205943, "pitch": 74, "duration": 1874, "velocity": 90}, {"time": 207837, "pitch": 69, "duration": 3818, "velocity": 75}, {"time": 207857, "pitch": 72, "duration": 3798, "velocity": 80}, {"time": 211675, "pitch": 74, "duration": 1905, "velocity": 85}, {"time": 211695, "pitch": 77, "duration": 1885, "velocity": 90}, {"time": 213600, "pitch": 74, "duration": 1904, "velocity": 85}, {"time": 213620, "pitch": 76, "duration": 1884, "velocity": 90}, {"time": 215525, "pitch": 72, "duration": 3094, "velocity": 75}, {"time": 215545, "pitch": 81, "duration": 3074, "velocity": 80}, {"time": 218640, "pitch": 76, "duration": 484, "velocity": 75}, {"time": 218640, "pitch": 84, "duration": 484, "velocity": 80}, {"time": 219124, "pitch": 83, "duration": 119, "velocity": 90}, {"time": 219243, "pitch": 82, "duration": 120, "velocity": 80}, {"time": 219363, "pitch": 81, "duration": 1894, "velocity": 80}, {"time": 222683, "pitch": 80, "duration": 479, "velocity": 80}, {"time": 222723, "pitch": 81, "duration": 478, "velocity": 90}, {"time": 223201, "pitch": 79, "duration": 1894, "velocity": 90}, {"time": 226522, "pitch": 76, "duration": 39, "velocity": 80}, {"time": 226561, "pitch": 77, "duration": 479, "velocity": 90}, {"time": 227040, "pitch": 76, "duration": 1904, "velocity": 90}, {"time": 231357, "pitch": 76, "duration": 239, "velocity": 85}, {"time": 231596, "pitch": 74, "duration": 1207, "velocity": 90}, {"time": 234717, "pitch": 80, "duration": 39, "velocity": 85}, {"time": 234756, "pitch": 81, "duration": 1865, "velocity": 90}, {"time": 236641, "pitch": 80, "duration": 1894, "velocity": 85}, {"time": 238555, "pitch": 80, "duration": 41, "velocity": 85}, {"time": 238596, "pitch": 81, "duration": 688, "velocity": 90}, {"time": 239284, "pitch": 76, "duration": 717, "velocity": 90}, {"time": 240001, "pitch": 79, "duration": 479, "velocity": 85}, {"time": 240480, "pitch": 81, "duration": 1904, "velocity": 80}, {"time": 242405, "pitch": 80, "duration": 39, "velocity": 85}, {"time": 242444, "pitch": 81, "duration": 1854, "velocity": 90}, {"time": 244318, "pitch": 80, "duration": 1905, "velocity": 85}, {"time": 246243, "pitch": 80, "duration": 40, "velocity": 85}, {"time": 246283, "pitch": 81, "duration": 678, "velocity": 90}, {"time": 246961, "pitch": 76, "duration": 478, "velocity": 90}, {"time": 247439, "pitch": 79, "duration": 718, "velocity": 85}, {"time": 248157, "pitch": 81, "duration": 968, "velocity": 80}, {"time": 249125, "pitch": 84, "duration": 956, "velocity": 90}, {"time": 250081, "pitch": 80, "duration": 40, "velocity": 85}, {"time": 250121, "pitch": 81, "duration": 1854, "velocity": 90}, {"time": 251995, "pitch": 80, "duration": 1905, "velocity": 85}, {"time": 253920, "pitch": 76, "duration": 1925, "velocity": 90}, {"time": 257758, "pitch": 76, "duration": 40, "velocity": 85}, {"time": 257798, "pitch": 77, "duration": 678, "velocity": 90}, {"time": 258476, "pitch": 76, "duration": 729, "velocity": 85}, {"time": 259205, "pitch": 72, "duration": 478, "velocity": 80}, {"time": 261597, "pitch": 76, "duration": 39, "velocity": 85}, {"time": 261636, "pitch": 77, "duration": 684, "velocity": 90}, {"time": 262320, "pitch": 76, "duration": 723, "velocity": 85}, {"time": 263043, "pitch": 72, "duration": 478, "velocity": 80}, {"time": 265435, "pitch": 71, "duration": 41, "velocity": 85}, {"time": 265476, "pitch": 72, "duration": 3080, "velocity": 90}, {"time": 268556, "pitch": 69, "duration": 729, "velocity": 85}, {"time": 269285, "pitch": 67, "duration": 3818, "velocity": 80}, {"time": 274325, "pitch": 81, "duration": 483, "velocity": 80}, {"time": 274808, "pitch": 79, "duration": 239, "velocity": 80}, {"time": 275047, "pitch": 79, "duration": 719, "velocity": 80}, {"time": 275766, "pitch": 76, "duration": 478, "velocity": 80}, {"time": 276244, "pitch": 74, "duration": 1645, "velocity": 80}, {"time": 277889, "pitch": 72, "duration": 7489, "velocity": 80}], "annotations": [{"time": 297, "annotation": {"number": 7, "value": 120}, "group": "control_change"}, {"time": 320, "annotation": {"number": 10, "value": 32}, "group": "control_change"}, {"time": 343, "annotation": {"number": 11, "value": 100}, "group": "control_change"}, {"time": 366, "annotation": {"number": 91, "value": 40}, "group": "control_change"}, {"time": 389, "annotation": {"number": 93, "value": 40}, "group": "control_change"}, {"time": 411, "annotation": {"number": 101, "value": 0}, "group": "control_change"}, {"time": 434, "annotation": {"number": 100, "value": 0}, "group": "control_change"}, {"time": 457, "annotation": {"number": 6, "value": 12}, "group": "control_change"}, {"time": 480, "annotation": {"number": 1, "value": 0}, "group": "control_change"}, {"time": 485, "annotation": {"number": 64, "value": 0}, "group": "control_change"}]}, {"program": 0, "is_drum": false, "name": "Glocken", "annotations": [{"time": 229, "annotation": {"number": 0, "value": 0}, "group": "control_change"}, {"time": 251, "annotation": {"number": 32, "value": 2}, "group": "control_change"}]}, {"program": 9, "is_drum": false, "name": "Glocken", "notes": [{"time": 485, "pitch": 91, "duration": 7657, "velocity": 100}, {"time": 265435, "pitch": 91, "duration": 7668, "velocity": 100}, {"time": 277444, "pitch": 91, "duration": 7934, "velocity": 100}], "annotations": [{"time": 297, "annotation": {"number": 7, "value": 70}, "group": "control_change"}, {"time": 320, "annotation": {"number": 10, "value": 64}, "group": "control_change"}, {"time": 343, "annotation": {"number": 11, "value": 100}, "group": "control_change"}, {"time": 366, "annotation": {"number": 91, "value": 127}, "group": "control_change"}, {"time": 389, "annotation": {"number": 93, "value": 60}, "group": "control_change"}, {"time": 411, "annotation": {"number": 101, "value": 0}, "group": "control_change"}, {"time": 434, "annotation": {"number": 100, "value": 0}, "group": "control_change"}, {"time": 457, "annotation": {"number": 6, "value": 12}, "group": "control_change"}, {"time": 480, "annotation": {"number": 1, "value": 0}, "group": "control_change"}, {"time": 485, "annotation": {"number": 64, "value": 0}, "group": "control_change"}]}, {"program": 0, "is_drum": true, "name": "Drums", "annotations": [{"time": 229, "annotation": {"number": 0, "value": 0}, "group": "control_change"}, {"time": 251, "annotation": {"number": 32, "value": 2}, "group": "control_change"}]}, {"program": 32, "is_drum": true, "name": "Drums", "notes": [{"time": 485, "pitch": 36, "duration": 10, "velocity": 92}, {"time": 485, "pitch": 42, "duration": 10, "velocity": 64}, {"time": 485, "pitch": 62, "duration": 10, "velocity": 60}, {"time": 485, "pitch": 70, "duration": 10, "velocity": 50}, {"time": 485, "pitch": 75, "duration": 10, "velocity": 120}, {"time": 485, "pitch": 82, "duration": 10, "velocity": 60}, {"time": 724, "pitch": 42, "duration": 10, "velocity": 36}, {"time": 724, "pitch": 62, "duration": 10, "velocity": 50}, {"time": 724, "pitch": 70, "duration": 10, "velocity": 30}, {"time": 724, "pitch": 82, "duration": 10, "velocity": 30}, {"time": 963, "pitch": 42, "duration": 10, "velocity": 64}, {"time": 963, "pitch": 60, "duration": 10, "velocity": 100}, {"time": 963, "pitch": 70, "duration": 10, "velocity": 50}, {"time": 963, "pitch": 82, "duration": 10, "velocity": 100}, {"time": 1202, "pitch": 36, "duration": 10, "velocity": 92}, {"time": 1202, "pitch": 42, "duration": 10, "velocity": 36}, {"time": 1202, "pitch": 62, "duration": 10, "velocity": 60}, {"time": 1202, "pitch": 70, "duration": 10, "velocity": 30}, {"time": 1202, "pitch": 75, "duration": 10, "velocity": 120}, {"time": 1202, "pitch": 82, "duration": 10, "velocity": 30}, {"time": 1442, "pitch": 36, "duration": 10, "velocity": 92}, {"time": 1442, "pitch": 42, "duration": 10, "velocity": 64}, {"time": 1442, "pitch": 62, "duration": 10, "velocity": 50}, {"time": 1442, "pitch": 70, "duration": 10, "velocity": 50}, {"time": 1442, "pitch": 82, "duration": 10, "velocity": 60}, {"time": 1681, "pitch": 42, "duration": 10, "velocity": 36}, {"time": 1681, "pitch": 60, "duration": 10, "velocity": 100}, {"time": 1681, "pitch": 70, "duration": 10, "velocity": 30}, {"time": 1681, "pitch": 82, "duration": 10, "velocity": 30}, {"time": 1920, "pitch": 42, "duration": 10, "velocity": 64}, {"time": 1920, "pitch": 62, "duration": 10, "velocity": 60}, {"time": 1920, "pitch": 70, "duration": 10, "velocity": 50}, {"time": 1920, "pitch": 75, "duration": 10, "velocity": 120}, {"time": 1920, "pitch": 82, "duration": 10, "velocity": 100}, {"time": 2159, "pitch": 36, "duration": 10, "velocity": 92}, {"time": 2159, "pitch": 42, "duration": 10, "velocity": 36}, {"time": 2159, "pitch": 62, "duration": 10, "velocity": 50}, {"time": 2159, "pitch": 70, "duration": 10, "velocity": 30}, {"time": 2159, "pitch": 82, "duration": 10, "velocity": 30}, {"time": 2398, "pitch": 36, "duration": 10, "velocity": 92}, {"time": 2398, "pitch": 42, "duration": 10, "velocity": 64}, {"time": 2398, "pitch": 60, "duration": 10, "velocity": 100}, {"time": 2398, "pitch": 70, "duration": 10, "velocity": 50}, {"time": 2398, "pitch": 82, "duration": 10, "velocity": 60}, {"time": 2638, "pitch": 42, "duration": 10, "velocity": 36}, {"time": 2638, "pitch": 62, "duration": 10, "velocity": 60}, {"time": 2638, "pitch": 70, "duration": 10, "velocity": 30}, {"time": 2638, "pitch": 75, "duration": 10, "velocity": 120}, {"time": 2638, "pitch": 82, "duration": 10, "velocity": 30}, {"time": 2877, "pitch": 42, "duration": 10, "velocity": 64}, {"time": 2877, "pitch": 62, "duration": 10, "velocity": 50}, {"time": 2877, "pitch": 70, "duration": 10, "velocity": 50}, {"time": 2877, "pitch": 82, "duration": 10, "velocity": 100}, {"time": 3116, "pitch": 36, "duration": 10, "velocity": 92}, {"time": 3116, "pitch": 42, "duration": 10, "velocity": 36}, {"time": 3116, "pitch": 60, "duration": 10, "velocity": 100}, {"time": 3116, "pitch": 70, "duration": 10, "velocity": 30}, {"time": 3116, "pitch": 82, "duration": 10, "velocity": 30}, {"time": 3355, "pitch": 36, "duration": 10, "velocity": 92}, {"time": 3355, "pitch": 42, "duration": 10, "velocity": 64}, {"time": 3355, "pitch": 62, "duration": 10, "velocity": 60}, {"time": 3355, "pitch": 70, "duration": 10, "velocity": 50}, {"time": 3355, "pitch": 75, "duration": 10, "velocity": 120}, {"time": 3355, "pitch": 82, "duration": 10, "velocity": 60}, {"time": 3600, "pitch": 42, "duration": 10, "velocity": 36}, {"time": 3600, "pitch": 62, "duration": 10, "velocity": 50}, {"time": 3600, "pitch": 70, "duration": 10, "velocity": 30}, {"time": 3600, "pitch": 82, "duration": 10, "velocity": 30}, {"time": 3845, "pitch": 42, "duration": 10, "velocity": 64}, {"time": 3845, "pitch": 60, "duration": 10, "velocity": 100}, {"time": 3845, "pitch": 70, "duration": 10, "velocity": 50}, {"time": 3845, "pitch": 75, "duration": 10, "velocity": 120}, {"time": 3845, "pitch": 82, "duration": 10, "velocity": 100}, {"time": 4084, "pitch": 36, "duration": 10, "velocity": 92}, {"time": 4084, "pitch": 42, "duration": 10, "velocity": 36}, {"time": 4084, "pitch": 62, "duration": 10, "velocity": 60}, {"time": 4084, "pitch": 70, "duration": 10, "velocity": 30}, {"time": 4084, "pitch": 82, "duration": 10, "velocity": 30}, {"time": 4323, "pitch": 36, "duration": 10, "velocity": 92}, {"time": 4323, "pitch": 42, "duration": 10, "velocity": 64}, {"time": 4323, "pitch": 62, "duration": 10, "velocity": 60}, {"time": 4323, "pitch": 70, "duration": 10, "velocity": 50}, {"time": 4323, "pitch": 75, "duration": 10, "velocity": 120}, {"time": 4323, "pitch": 82, "duration": 10, "velocity": 60}, {"time": 4562, "pitch": 42, "duration": 10, "velocity": 36}, {"time": 4562, "pitch": 62, "duration": 10, "velocity": 50}, {"time": 4562, "pitch": 70, "duration": 10, "velocity": 30}, {"time": 4562, "pitch": 82, "duration": 10, "velocity": 30}, {"time": 4802, "pitch": 42, "duration": 10, "velocity": 64}, {"time": 4802, "pitch": 60, "duration": 10, "velocity": 100}, {"time": 4802, "pitch": 70, "duration": 10, "velocity": 50}, {"time": 4802, "pitch": 82, "duration": 10, "velocity": 100}, {"time": 5041, "pitch": 36, "duration": 10, "velocity": 92}, {"time": 5041, "pitch": 42, "duration": 10, "velocity": 36}, {"time": 5041, "pitch": 62, "duration": 10, "velocity": 60}, {"time": 5041, "pitch": 70, "duration": 10, "velocity": 30}, {"time": 5041, "pitch": 75, "duration": 10, "velocity": 120}, {"time": 5041, "pitch": 82, "duration": 10, "velocity": 30}, {"time": 5280, "pitch": 36, "duration": 10, "velocity": 92}, {"time": 5280, "pitch": 42, "duration": 10, "velocity": 64}, {"time": 5280, "pitch": 62, "duration": 10, "velocity": 50}, {"time": 5280, "pitch": 70, "duration": 10, "velocity": 50}, {"time": 5280, "pitch": 82, "duration": 10, "velocity": 60}, {"time": 5519, "pitch": 42, "duration": 10, "velocity": 36}, {"time": 5519, "pitch": 60, "duration": 10, "velocity": 100}, {"time": 5519, "pitch": 70, "duration": 10, "velocity": 30}, {"time": 5519, "pitch": 82, "duration": 10, "velocity": 30}, {"time": 5758, "pitch": 42, "duration": 10, "velocity": 64}, {"time": 5758, "pitch": 62, "duration": 10, "velocity": 60}, {"time": 5758, "pitch": 70, "duration": 10, "velocity": 50}, {"time": 5758, "pitch": 75, "duration": 10, "velocity": 120}, {"time": 5758, "pitch": 82, "duration": 10, "velocity": 100}, {"time": 5998, "pitch": 36, "duration": 10, "velocity": 92}, {"time": 5998, "pitch": 42, "duration": 10, "velocity": 36}, {"time": 5998, "pitch": 62, "duration": 10, "velocity": 50}, {"time": 5998, "pitch": 70, "duration": 10, "velocity": 30}, {"time": 5998, "pitch": 82, "duration": 10, "velocity": 30}, {"time": 6237, "pitch": 36, "duration": 10, "velocity": 92}, {"time": 6237, "pitch": 42, "duration": 10, "velocity": 64}, {"time": 6237, "pitch": 60, "duration": 10, "velocity": 100}, {"time": 6237, "pitch": 70, "duration": 10, "velocity": 50}, {"time": 6237, "pitch": 82, "duration": 10, "velocity": 60}, {"time": 6476, "pitch": 42, "duration": 10, "velocity": 36}, {"time": 6476, "pitch": 62, "duration": 10, "velocity": 60}, {"time": 6476, "pitch": 70, "duration": 10, "velocity": 30}, {"time": 6476, "pitch": 75, "duration": 10, "velocity": 120}, {"time": 6476, "pitch": 82, "duration": 10, "velocity": 30}, {"time": 6715, "pitch": 42, "duration": 10, "velocity": 64}, {"time": 6715, "pitch": 62, "duration": 10, "velocity": 50}, {"time": 6715, "pitch": 70, "duration": 10, "velocity": 50}, {"time": 6715, "pitch": 82, "duration": 10, "velocity": 100}, {"time": 6960, "pitch": 36, "duration": 10, "velocity": 92}, {"time": 6960, "pitch": 42, "duration": 10, "velocity": 36}, {"time": 6960, "pitch": 60, "duration": 10, "velocity": 100}, {"time": 6960, "pitch": 70, "duration": 10, "velocity": 30}, {"time": 6960, "pitch": 82, "duration": 10, "velocity": 30}, {"time": 7205, "pitch": 36, "duration": 10, "velocity": 92}, {"time": 7205, "pitch": 42, "duration": 10, "velocity": 64}, {"time": 7205, "pitch": 62, "duration": 10, "velocity": 60}, {"time": 7205, "pitch": 70, "duration": 10, "velocity": 50}, {"time": 7205, "pitch": 75, "duration": 10, "velocity": 120}, {"time": 7205, "pitch": 82, "duration": 10, "velocity": 60}, {"time": 7444, "pitch": 42, "duration": 10, "velocity": 36}, {"time": 7444, "pitch": 62, "duration": 10, "velocity": 50}, {"time": 7444, "pitch": 70, "duration": 10, "velocity": 30}, {"time": 7444, "pitch": 82, "duration": 10, "velocity": 30}, {"time": 7683, "pitch": 41, "duration": 10, "velocity": 106}, {"time": 7683, "pitch": 42, "duration": 10, "velocity": 64}, {"time": 7683, "pitch": 60, "duration": 10, "velocity": 100}, {"time": 7683, "pitch": 70, "duration": 10, "velocity": 50}, {"time": 7683, "pitch": 75, "duration": 10, "velocity": 120}, {"time": 7683, "pitch": 82, "duration": 10, "velocity": 100}, {"time": 7922, "pitch": 36, "duration": 10, "velocity": 92}, {"time": 7922, "pitch": 42, "duration": 10, "velocity": 36}, {"time": 7922, "pitch": 62, "duration": 10, "velocity": 60}, {"time": 7922, "pitch": 70, "duration": 10, "velocity": 30}, {"time": 7922, "pitch": 82, "duration": 10, "velocity": 30}, {"time": 8162, "pitch": 36, "duration": 10, "velocity": 92}, {"time": 8162, "pitch": 42, "duration": 10, "velocity": 64}, {"time": 8162, "pitch": 62, "duration": 10, "velocity": 60}, {"time": 8162, "pitch": 70, "duration": 10, "velocity": 50}, {"time": 8162, "pitch": 75, "duration": 10, "velocity": 120}, {"time": 8162, "pitch": 82, "duration": 10, "velocity": 60}, {"time": 8401, "pitch": 42, "duration": 10, "velocity": 36}, {"time": 8401, "pitch": 62, "duration": 10, "velocity": 50}, {"time": 8401, "pitch": 70, "duration": 10, "velocity": 30}, {"time": 8401, "pitch": 82, "duration": 10, "velocity": 30}, {"time": 8640, "pitch": 42, "duration": 10, "velocity": 64}, {"time": 8640, "pitch": 60, "duration": 10, "velocity": 100}, {"time": 8640, "pitch": 70, "duration": 10, "velocity": 50}, {"time": 8640, "pitch": 82, "duration": 10, "velocity": 100}, {"time": 8879, "pitch": 36, "duration": 10, "velocity": 92}, {"time": 8879, "pitch": 42, "duration": 10, "velocity": 36}, {"time": 8879, "pitch": 62, "duration": 10, "velocity": 60}, {"time": 8879, "pitch": 70, "duration": 10, "velocity": 30}, {"time": 8879, "pitch": 75, "duration": 10, "velocity": 120}, {"time": 8879, "pitch": 82, "duration": 10, "velocity": 30}, {"time": 9118, "pitch": 36, "duration": 10, "velocity": 92}, {"time": 9118, "pitch": 42, "duration": 10, "velocity": 64}, {"time": 9118, "pitch": 62, "duration": 10, "velocity": 50}, {"time": 9118, "pitch": 70, "duration": 10, "velocity": 50}, {"time": 9118, "pitch": 82, "duration": 10, "velocity": 60}, {"time": 9358, "pitch": 42, "duration": 10, "velocity": 36}, {"time": 9358, "pitch": 60, "duration": 10, "velocity": 100}, {"time": 9358, "pitch": 70, "duration": 10, "velocity": 30}, {"time": 9358, "pitch": 82, "duration": 10, "velocity": 30}, {"time": 9597, "pitch": 42, "duration": 10, "velocity": 64}, {"time": 9597, "pitch": 62, "duration": 10, "velocity": 60}, {"time": 9597, "pitch": 70, "duration": 10, "velocity": 50}, {"time": 9597, "pitch": 75, "duration": 10, "velocity": 120}, {"time": 9597, "pitch": 82, "duration": 10, "velocity": 100}, {"time": 9836, "pitch": 36, "duration": 10, "velocity": 92}, {"time": 9836, "pitch": 42, "duration": 10, "velocity": 36}, {"time": 9836, "pitch": 62, "duration": 10, "velocity": 50}, {"time": 9836, "pitch": 70, "duration": 10, "velocity": 30}, {"time": 9836, "pitch": 82, "duration": 10, "velocity": 30}, {"time": 10075, "pitch": 36, "duration": 10, "velocity": 92}, {"time": 10075, "pitch": 42, "duration": 10, "velocity": 64}, {"time": 10075, "pitch": 60, "duration": 10, "velocity": 100}, {"time": 10075, "pitch": 70, "duration": 10, "velocity": 50}, {"time": 10075, "pitch": 82, "duration": 10, "velocity": 60}, {"time": 10320, "pitch": 42, "duration": 10, "velocity": 36}, {"time": 10320, "pitch": 62, "duration": 10, "velocity": 60}, {"time": 10320, "pitch": 70, "duration": 10, "velocity": 30}, {"time": 10320, "pitch": 75, "duration": 10, "velocity": 120}, {"time": 10320, "pitch": 82, "duration": 10, "velocity": 30}, {"time": 10565, "pitch": 42, "duration": 10, "velocity": 64}, {"time": 10565, "pitch": 62, "duration": 10, "velocity": 50}, {"time": 10565, "pitch": 70, "duration": 10, "velocity": 50}, {"time": 10565, "pitch": 82, "duration": 10, "velocity": 100}, {"time": 10804, "pitch": 36, "duration": 10, "velocity": 92}, {"time": 10804, "pitch": 42, "duration": 10, "velocity": 36}, {"time": 10804, "pitch": 60, "duration": 10, "velocity": 100}, {"time": 10804, "pitch": 70, "duration": 10, "velocity": 30}, {"time": 10804, "pitch": 82, "duration": 10, "velocity": 30}, {"time": 11043, "pitch": 36, "duration": 10, "velocity": 92}, {"time": 11043, "pitch": 42, "duration": 10, "velocity": 64}, {"time": 11043, "pitch": 62, "duration": 10, "velocity": 60}, {"time": 11043, "pitch": 70, "duration": 10, "velocity": 50}, {"time": 11043, "pitch": 75, "duration": 10, "velocity": 120}, {"time": 11043, "pitch": 82, "duration": 10, "velocity": 60}, {"time": 11282, "pitch": 42, "duration": 10, "velocity": 36}, {"time": 11282, "pitch": 62, "duration": 10, "velocity": 50}, {"time": 11282, "pitch": 70, "duration": 10, "velocity": 30}, {"time": 11282, "pitch": 82, "duration": 10, "velocity": 30}, {"time": 11522, "pitch": 41, "duration": 10, "velocity": 106}, {"time": 11522, "pitch": 42, "duration": 10, "velocity": 64}, {"time": 11522, "pitch": 60, "duration": 10, "velocity": 100}, {"time": 11522, "pitch": 70, "duration": 10, "velocity": 50}, {"time": 11522, "pitch": 75, "duration": 10, "velocity": 120}, {"time": 11522, "pitch": 82, "duration": 10, "velocity": 100}, {"time": 11761, "pitch": 36, "duration": 10, "velocity": 92}, {"time": 11761, "pitch": 42, "duration": 10, "velocity": 36}, {"time": 11761, "pitch": 62, "duration": 10, "velocity": 60}, {"time": 11761, "pitch": 70, "duration": 10, "velocity": 30}, {"time": 11761, "pitch": 82, "duration": 10, "velocity": 30}, {"time": 12000, "pitch": 36, "duration": 10, "velocity": 92}, {"time": 12000, "pitch": 42, "duration": 10, "velocity": 64}, {"time": 12000, "pitch": 62, "duration": 10, "velocity": 60}, {"time": 12000, "pitch": 70, "duration": 10, "velocity": 50}, {"time": 12000, "pitch": 75, "duration": 10, "velocity": 120}, {"time": 12000, "pitch": 82, "duration": 10, "velocity": 60}, {"time": 12239, "pitch": 42, "duration": 10, "velocity": 36}, {"time": 12239, "pitch": 62, "duration": 10, "velocity": 50}, {"time": 12239, "pitch": 70, "duration": 10, "velocity": 30}, {"time": 12239, "pitch": 82, "duration": 10, "velocity": 30}, {"time": 12478, "pitch": 42, "duration": 10, "velocity": 64}, {"time": 12478, "pitch": 60, "duration": 10, "velocity": 100}, {"time": 12478, "pitch": 70, "duration": 10, "velocity": 50}, {"time": 12478, "pitch": 82, "duration": 10, "velocity": 100}, {"time": 12718, "pitch": 36, "duration": 10, "velocity": 92}, {"time": 12718, "pitch": 42, "duration": 10, "velocity": 36}, {"time": 12718, "pitch": 62, "duration": 10, "velocity": 60}, {"time": 12718, "pitch": 70, "duration": 10, "velocity": 30}, {"time": 12718, "pitch": 75, "duration": 10, "velocity": 120}, {"time": 12718, "pitch": 82, "duration": 10, "velocity": 30}, {"time": 12957, "pitch": 36, "duration": 10, "velocity": 92}, {"time": 12957, "pitch": 42, "duration": 10, "velocity": 64}, {"time": 12957, "pitch": 62, "duration": 10, "velocity": 50}, {"time": 12957, "pitch": 70, "duration": 10, "velocity": 50}, {"time": 12957, "pitch": 82, "duration": 10, "velocity": 60}, {"time": 13196, "pitch": 42, "duration": 10, "velocity": 36}, {"time": 13196, "pitch": 60, "duration": 10, "velocity": 100}, {"time": 13196, "pitch": 70, "duration": 10, "velocity": 30}, {"time": 13196, "pitch": 82, "duration": 10, "velocity": 30}, {"time": 13435, "pitch": 42, "duration": 10, "velocity": 64}, {"time": 13435, "pitch": 62, "duration": 10, "velocity": 60}, {"time": 13435, "pitch": 70, "duration": 10, "velocity": 50}, {"time": 13435, "pitch": 75, "duration": 10, "velocity": 120}, {"time": 13435, "pitch": 82, "duration": 10, "velocity": 100}, {"time": 13680, "pitch": 36, "duration": 10, "velocity": 92}, {"time": 13680, "pitch": 42, "duration": 10, "velocity": 36}, {"time": 13680, "pitch": 62, "duration": 10, "velocity": 50}, {"time": 13680, "pitch": 70, "duration": 10, "velocity": 30}, {"time": 13680, "pitch": 82, "duration": 10, "velocity": 30}, {"time": 13925, "pitch": 36, "duration": 10, "velocity": 92}, {"time": 13925, "pitch": 42, "duration": 10, "velocity": 64}, {"time": 13925, "pitch": 60, "duration": 10, "velocity": 100}, {"time": 13925, "pitch": 70, "duration": 10, "velocity": 50}, {"time": 13925, "pitch": 82, "duration": 10, "velocity": 60}, {"time": 14164, "pitch": 42, "duration": 10, "velocity": 36}, {"time": 14164, "pitch": 62, "duration": 10, "velocity": 60}, {"time": 14164, "pitch": 70, "duration": 10, "velocity": 30}, {"time": 14164, "pitch": 75, "duration": 10, "velocity": 120}, {"time": 14164, "pitch": 82, "duration": 10, "velocity": 30}, {"time": 14403, "pitch": 42, "duration": 10, "velocity": 64}, {"time": 14403, "pitch": 62, "duration": 10, "velocity": 50}, {"time": 14403, "pitch": 70, "duration": 10, "velocity": 50}, {"time": 14403, "pitch": 82, "duration": 10, "velocity": 100}, {"time": 14642, "pitch": 36, "duration": 10, "velocity": 92}, {"time": 14642, "pitch": 42, "duration": 10, "velocity": 36}, {"time": 14642, "pitch": 60, "duration": 10, "velocity": 100}, {"time": 14642, "pitch": 70, "duration": 10, "velocity": 30}, {"time": 14642, "pitch": 82, "duration": 10, "velocity": 30}, {"time": 14882, "pitch": 36, "duration": 10, "velocity": 92}, {"time": 14882, "pitch": 42, "duration": 10, "velocity": 64}, {"time": 14882, "pitch": 62, "duration": 10, "velocity": 60}, {"time": 14882, "pitch": 70, "duration": 10, "velocity": 50}, {"time": 14882, "pitch": 75, "duration": 10, "velocity": 120}, {"time": 14882, "pitch": 82, "duration": 10, "velocity": 60}, {"time": 15121, "pitch": 42, "duration": 10, "velocity": 36}, {"time": 15121, "pitch": 62, "duration": 10, "velocity": 50}, {"time": 15121, "pitch": 70, "duration": 10, "velocity": 30}, {"time": 15121, "pitch": 82, "duration": 10, "velocity": 30}, {"time": 15360, "pitch": 42, "duration": 10, "velocity": 64}, {"time": 15360, "pitch": 60, "duration": 10, "velocity": 100}, {"time": 15360, "pitch": 70, "duration": 10, "velocity": 50}, {"time": 15360, "pitch": 75, "duration": 10, "velocity": 120}, {"time": 15360, "pitch": 82, "duration": 10, "velocity": 100}, {"time": 15599, "pitch": 36, "duration": 10, "velocity": 92}, {"time": 15599, "pitch": 42, "duration": 10, "velocity": 36}, {"time": 15599, "pitch": 62, "duration": 10, "velocity": 60}, {"time": 15599, "pitch": 70, "duration": 10, "velocity": 30}, {"time": 15599, "pitch": 82, "duration": 10, "velocity": 30}, {"time": 15838, "pitch": 36, "duration": 10, "velocity": 92}, {"time": 15838, "pitch": 42, "duration": 10, "velocity": 64}, {"time": 15838, "pitch": 62, "duration": 10, "velocity": 60}, {"time": 15838, "pitch": 70, "duration": 10, "velocity": 50}, {"time": 15838, "pitch": 75, "duration": 10, "velocity": 120}, {"time": 15838, "pitch": 82, "duration": 10, "velocity": 60}, {"time": 16078, "pitch": 42, "duration": 10, "velocity": 36}, {"time": 16078, "pitch": 62, "duration": 10, "velocity": 50}, {"time": 16078, "pitch": 70, "duration": 10, "velocity": 30}, {"time": 16078, "pitch": 82, "duration": 10, "velocity": 30}, {"time": 16317, "pitch": 42, "duration": 10, "velocity": 64}, {"time": 16317, "pitch": 60, "duration": 10, "velocity": 100}, {"time": 16317, "pitch": 70, "duration": 10, "velocity": 50}, {"time": 16317, "pitch": 82, "duration": 10, "velocity": 100}, {"time": 16556, "pitch": 36, "duration": 10, "velocity": 92}, {"time": 16556, "pitch": 42, "duration": 10, "velocity": 36}, {"time": 16556, "pitch": 62, "duration": 10, "velocity": 60}, {"time": 16556, "pitch": 70, "duration": 10, "velocity": 30}, {"time": 16556, "pitch": 75, "duration": 10, "velocity": 120}, {"time": 16556, "pitch": 82, "duration": 10, "velocity": 30}, {"time": 16795, "pitch": 36, "duration": 10, "velocity": 92}, {"time": 16795, "pitch": 42, "duration": 10, "velocity": 64}, {"time": 16795, "pitch": 62, "duration": 10, "velocity": 50}, {"time": 16795, "pitch": 70, "duration": 10, "velocity": 50}, {"time": 16795, "pitch": 82, "duration": 10, "velocity": 60}, {"time": 17040, "pitch": 42, "duration": 10, "velocity": 36}, {"time": 17040, "pitch": 60, "duration": 10, "velocity": 100}, {"time": 17040, "pitch": 70, "duration": 10, "velocity": 30}, {"time": 17040, "pitch": 82, "duration": 10, "velocity": 30}, {"time": 17285, "pitch": 42, "duration": 10, "velocity": 64}, {"time": 17285, "pitch": 62, "duration": 10, "velocity": 60}, {"time": 17285, "pitch": 70, "duration": 10, "velocity": 50}, {"time": 17285, "pitch": 75, "duration": 10, "velocity": 120}, {"time": 17285, "pitch": 82, "duration": 10, "velocity": 100}, {"time": 17524, "pitch": 36, "duration": 10, "velocity": 92}, {"time": 17524, "pitch": 42, "duration": 10, "velocity": 36}, {"time": 17524, "pitch": 62, "duration": 10, "velocity": 50}, {"time": 17524, "pitch": 70, "duration": 10, "velocity": 30}, {"time": 17524, "pitch": 82, "duration": 10, "velocity": 30}, {"time": 17763, "pitch": 36, "duration": 10, "velocity": 92}, {"time": 17763, "pitch": 42, "duration": 10, "velocity": 64}, {"time": 17763, "pitch": 60, "duration": 10, "velocity": 100}, {"time": 17763, "pitch": 70, "duration": 10, "velocity": 50}, {"time": 17763, "pitch": 82, "duration": 10, "velocity": 60}, {"time": 18002, "pitch": 42, "duration": 10, "velocity": 36}, {"time": 18002, "pitch": 62, "duration": 10, "velocity": 60}, {"time": 18002, "pitch": 70, "duration": 10, "velocity": 30}, {"time": 18002, "pitch": 75, "duration": 10, "velocity": 120}, {"time": 18002, "pitch": 82, "duration": 10, "velocity": 30}, {"time": 18242, "pitch": 42, "duration": 10, "velocity": 64}, {"time": 18242, "pitch": 62, "duration": 10, "velocity": 50}, {"time": 18242, "pitch": 70, "duration": 10, "velocity": 50}, {"time": 18242, "pitch": 82, "duration": 10, "velocity": 100}, {"time": 18481, "pitch": 36, "duration": 10, "velocity": 92}, {"time": 18481, "pitch": 42, "duration": 10, "velocity": 36}, {"time": 18481, "pitch": 60, "duration": 10, "velocity": 100}, {"time": 18481, "pitch": 70, "duration": 10, "velocity": 30}, {"time": 18481, "pitch": 82, "duration": 10, "velocity": 30}, {"time": 18720, "pitch": 36, "duration": 10, "velocity": 92}, {"time": 18720, "pitch": 42, "duration": 10, "velocity": 64}, {"time": 18720, "pitch": 62, "duration": 10, "velocity": 60}, {"time": 18720, "pitch": 70, "duration": 10, "velocity": 50}, {"time": 18720, "pitch": 75, "duration": 10, "velocity": 120}, {"time": 18720, "pitch": 82, "duration": 10, "velocity": 60}, {"time": 18959, "pitch": 42, "duration": 10, "velocity": 36}, {"time": 18959, "pitch": 62, "duration": 10, "velocity": 50}, {"time": 18959, "pitch": 70, "duration": 10, "velocity": 30}, {"time": 18959, "pitch": 82, "duration": 10, "velocity": 30}, {"time": 19198, "pitch": 42, "duration": 10, "velocity": 64}, {"time": 19198, "pitch": 60, "duration": 10, "velocity": 100}, {"time": 19198, "pitch": 70, "duration": 10, "velocity": 50}, {"time": 19198, "pitch": 75, "duration": 10, "velocity": 120}, {"time": 19198, "pitch": 82, "duration": 10, "velocity": 100}, {"time": 19438, "pitch": 36, "duration": 10, "velocity": 92}, {"time": 19438, "pitch": 42, "duration": 10, "velocity": 36}, {"time": 19438, "pitch": 62, "duration": 10, "velocity": 60}, {"time": 19438, "pitch": 70, "duration": 10, "velocity": 30}, {"time": 19438, "pitch": 82, "duration": 10, "velocity": 30}, {"time": 19677, "pitch": 36, "duration": 10, "velocity": 92}, {"time": 19677, "pitch": 42, "duration": 10, "velocity": 64}, {"time": 19677, "pitch": 62, "duration": 10, "velocity": 60}, {"time": 19677, "pitch": 70, "duration": 10, "velocity": 50}, {"time": 19677, "pitch": 75, "duration": 10, "velocity": 120}, {"time": 19677, "pitch": 82, "duration": 10, "velocity": 60}, {"time": 19916, "pitch": 42, "duration": 10, "velocity": 36}, {"time": 19916, "pitch": 62, "duration": 10, "velocity": 50}, {"time": 19916, "pitch": 70, "duration": 10, "velocity": 30}, {"time": 19916, "pitch": 82, "duration": 10, "velocity": 30}, {"time": 20155, "pitch": 42, "duration": 10, "velocity": 64}, {"time": 20155, "pitch": 60, "duration": 10, "velocity": 100}, {"time": 20155, "pitch": 70, "duration": 10, "velocity": 50}, {"time": 20155, "pitch": 82, "duration": 10, "velocity": 100}, {"time": 20400, "pitch": 36, "duration": 10, "velocity": 92}, {"time": 20400, "pitch": 42, "duration": 10, "velocity": 36}, {"time": 20400, "pitch": 62, "duration": 10, "velocity": 60}, {"time": 20400, "pitch": 70, "duration": 10, "velocity": 30}, {"time": 20400, "pitch": 75, "duration": 10, "velocity": 120}, {"time": 20400, "pitch": 82, "duration": 10, "velocity": 30}, {"time": 20645, "pitch": 36, "duration": 10, "velocity": 92}, {"time": 20645, "pitch": 42, "duration": 10, "velocity": 64}, {"time": 20645, "pitch": 62, "duration": 10, "velocity": 50}, {"time": 20645, "pitch": 70, "duration": 10, "velocity": 50}, {"time": 20645, "pitch": 82, "duration": 10, "velocity": 60}, {"time": 20884, "pitch": 42, "duration": 10, "velocity": 36}, {"time": 20884, "pitch": 60, "duration": 10, "velocity": 100}, {"time": 20884, "pitch": 70, "duration": 10, "velocity": 30}, {"time": 20884, "pitch": 82, "duration": 10, "velocity": 30}, {"time": 21123, "pitch": 42, "duration": 10, "velocity": 64}, {"time": 21123, "pitch": 62, "duration": 10, "velocity": 60}, {"time": 21123, "pitch": 70, "duration": 10, "velocity": 50}, {"time": 21123, "pitch": 75, "duration": 10, "velocity": 120}, {"time": 21123, "pitch": 82, "duration": 10, "velocity": 100}, {"time": 21362, "pitch": 36, "duration": 10, "velocity": 92}, {"time": 21362, "pitch": 42, "duration": 10, "velocity": 36}, {"time": 21362, "pitch": 62, "duration": 10, "velocity": 50}, {"time": 21362, "pitch": 70, "duration": 10, "velocity": 30}, {"time": 21362, "pitch": 82, "duration": 10, "velocity": 30}, {"time": 21602, "pitch": 36, "duration": 10, "velocity": 92}, {"time": 21602, "pitch": 42, "duration": 10, "velocity": 64}, {"time": 21602, "pitch": 60, "duration": 10, "velocity": 100}, {"time": 21602, "pitch": 70, "duration": 10, "velocity": 50}, {"time": 21602, "pitch": 82, "duration": 10, "velocity": 60}, {"time": 21841, "pitch": 42, "duration": 10, "velocity": 36}, {"time": 21841, "pitch": 62, "duration": 10, "velocity": 60}, {"time": 21841, "pitch": 70, "duration": 10, "velocity": 30}, {"time": 21841, "pitch": 75, "duration": 10, "velocity": 120}, {"time": 21841, "pitch": 82, "duration": 10, "velocity": 30}, {"time": 22080, "pitch": 42, "duration": 10, "velocity": 64}, {"time": 22080, "pitch": 62, "duration": 10, "velocity": 50}, {"time": 22080, "pitch": 70, "duration": 10, "velocity": 50}, {"time": 22080, "pitch": 82, "duration": 10, "velocity": 100}, {"time": 22319, "pitch": 36, "duration": 10, "velocity": 92}, {"time": 22319, "pitch": 42, "duration": 10, "velocity": 36}, {"time": 22319, "pitch": 60, "duration": 10, "velocity": 100}, {"time": 22319, "pitch": 70, "duration": 10, "velocity": 30}, {"time": 22319, "pitch": 82, "duration": 10, "velocity": 30}, {"time": 22558, "pitch": 36, "duration": 10, "velocity": 92}, {"time": 22558, "pitch": 42, "duration": 10, "velocity": 64}, {"time": 22558, "pitch": 62, "duration": 10, "velocity": 60}, {"time": 22558, "pitch": 70, "duration": 10, "velocity": 50}, {"time": 22558, "pitch": 75, "duration": 10, "velocity": 120}, {"time": 22558, "pitch": 82, "duration": 10, "velocity": 60}, {"time": 22798, "pitch": 42, "duration": 10, "velocity": 36}, {"time": 22798, "pitch": 62, "duration": 10, "velocity": 50}, {"time": 22798, "pitch": 70, "duration": 10, "velocity": 30}, {"time": 22798, "pitch": 82, "duration": 10, "velocity": 30}, {"time": 23037, "pitch": 42, "duration": 10, "velocity": 64}, {"time": 23037, "pitch": 60, "duration": 10, "velocity": 100}, {"time": 23037, "pitch": 70, "duration": 10, "velocity": 50}, {"time": 23037, "pitch": 75, "duration": 10, "velocity": 120}, {"time": 23037, "pitch": 82, "duration": 10, "velocity": 100}, {"time": 23276, "pitch": 36, "duration": 10, "velocity": 92}, {"time": 23276, "pitch": 42, "duration": 10, "velocity": 36}, {"time": 23276, "pitch": 62, "duration": 10, "velocity": 60}, {"time": 23276, "pitch": 70, "duration": 10, "velocity": 30}, {"time": 23276, "pitch": 82, "duration": 10, "velocity": 30}, {"time": 23515, "pitch": 36, "duration": 10, "velocity": 92}, {"time": 23515, "pitch": 42, "duration": 10, "velocity": 64}, {"time": 23515, "pitch": 62, "duration": 10, "velocity": 60}, {"time": 23515, "pitch": 70, "duration": 10, "velocity": 50}, {"time": 23515, "pitch": 75, "duration": 10, "velocity": 120}, {"time": 23515, "pitch": 82, "duration": 10, "velocity": 60}, {"time": 23760, "pitch": 42, "duration": 10, "velocity": 36}, {"time": 23760, "pitch": 62, "duration": 10, "velocity": 50}, {"time": 23760, "pitch": 70, "duration": 10, "velocity": 30}, {"time": 23760, "pitch": 82, "duration": 10, "velocity": 30}, {"time": 24005, "pitch": 42, "duration": 10, "velocity": 64}, {"time": 24005, "pitch": 60, "duration": 10, "velocity": 100}, {"time": 24005, "pitch": 70, "duration": 10, "velocity": 50}, {"time": 24005, "pitch": 82, "duration": 10, "velocity": 100}, {"time": 24244, "pitch": 36, "duration": 10, "velocity": 92}, {"time": 24244, "pitch": 42, "duration": 10, "velocity": 36}, {"time": 24244, "pitch": 62, "duration": 10, "velocity": 60}, {"time": 24244, "pitch": 70, "duration": 10, "velocity": 30}, {"time": 24244, "pitch": 75, "duration": 10, "velocity": 120}, {"time": 24244, "pitch": 82, "duration": 10, "velocity": 30}, {"time": 24483, "pitch": 36, "duration": 10, "velocity": 92}, {"time": 24483, "pitch": 42, "duration": 10, "velocity": 64}, {"time": 24483, "pitch": 62, "duration": 10, "velocity": 50}, {"time": 24483, "pitch": 70, "duration": 10, "velocity": 50}, {"time": 24483, "pitch": 82, "duration": 10, "velocity": 60}, {"time": 24722, "pitch": 42, "duration": 10, "velocity": 36}, {"time": 24722, "pitch": 60, "duration": 10, "velocity": 100}, {"time": 24722, "pitch": 70, "duration": 10, "velocity": 30}, {"time": 24722, "pitch": 82, "duration": 10, "velocity": 30}, {"time": 24962, "pitch": 42, "duration": 10, "velocity": 64}, {"time": 24962, "pitch": 62, "duration": 10, "velocity": 60}, {"time": 24962, "pitch": 70, "duration": 10, "velocity": 50}, {"time": 24962, "pitch": 75, "duration": 10, "velocity": 120}, {"time": 24962, "pitch": 82, "duration": 10, "velocity": 100}, {"time": 25201, "pitch": 36, "duration": 10, "velocity": 92}, {"time": 25201, "pitch": 42, "duration": 10, "velocity": 36}, {"time": 25201, "pitch": 62, "duration": 10, "velocity": 50}, {"time": 25201, "pitch": 70, "duration": 10, "velocity": 30}, {"time": 25201, "pitch": 82, "duration": 10, "velocity": 30}, {"time": 25440, "pitch": 36, "duration": 10, "velocity": 92}, {"time": 25440, "pitch": 42, "duration": 10, "velocity": 64}, {"time": 25440, "pitch": 60, "duration": 10, "velocity": 100}, {"time": 25440, "pitch": 70, "duration": 10, "velocity": 50}, {"time": 25440, "pitch": 82, "duration": 10, "velocity": 60}, {"time": 25679, "pitch": 42, "duration": 10, "velocity": 36}, {"time": 25679, "pitch": 62, "duration": 10, "velocity": 60}, {"time": 25679, "pitch": 70, "duration": 10, "velocity": 30}, {"time": 25679, "pitch": 75, "duration": 10, "velocity": 120}, {"time": 25679, "pitch": 82, "duration": 10, "velocity": 30}, {"time": 25918, "pitch": 42, "duration": 10, "velocity": 64}, {"time": 25918, "pitch": 62, "duration": 10, "velocity": 50}, {"time": 25918, "pitch": 70, "duration": 10, "velocity": 50}, {"time": 25918, "pitch": 82, "duration": 10, "velocity": 100}, {"time": 26158, "pitch": 36, "duration": 10, "velocity": 92}, {"time": 26158, "pitch": 42, "duration": 10, "velocity": 36}, {"time": 26158, "pitch": 60, "duration": 10, "velocity": 100}, {"time": 26158, "pitch": 70, "duration": 10, "velocity": 30}, {"time": 26158, "pitch": 82, "duration": 10, "velocity": 30}, {"time": 26397, "pitch": 36, "duration": 10, "velocity": 92}, {"time": 26397, "pitch": 42, "duration": 10, "velocity": 64}, {"time": 26397, "pitch": 62, "duration": 10, "velocity": 60}, {"time": 26397, "pitch": 70, "duration": 10, "velocity": 50}, {"time": 26397, "pitch": 75, "duration": 10, "velocity": 120}, {"time": 26397, "pitch": 82, "duration": 10, "velocity": 60}, {"time": 26636, "pitch": 42, "duration": 10, "velocity": 36}, {"time": 26636, "pitch": 62, "duration": 10, "velocity": 50}, {"time": 26636, "pitch": 70, "duration": 10, "velocity": 30}, {"time": 26636, "pitch": 82, "duration": 10, "velocity": 30}, {"time": 26875, "pitch": 42, "duration": 10, "velocity": 64}, {"time": 26875, "pitch": 60, "duration": 10, "velocity": 100}, {"time": 26875, "pitch": 70, "duration": 10, "velocity": 50}, {"time": 26875, "pitch": 75, "duration": 10, "velocity": 120}, {"time": 26875, "pitch": 82, "duration": 10, "velocity": 100}, {"time": 27120, "pitch": 36, "duration": 10, "velocity": 92}, {"time": 27120, "pitch": 42, "duration": 10, "velocity": 36}, {"time": 27120, "pitch": 62, "duration": 10, "velocity": 60}, {"time": 27120, "pitch": 70, "duration": 10, "velocity": 30}, {"time": 27120, "pitch": 82, "duration": 10, "velocity": 30}, {"time": 27365, "pitch": 36, "duration": 10, "velocity": 92}, {"time": 27365, "pitch": 42, "duration": 10, "velocity": 64}, {"time": 27365, "pitch": 62, "duration": 10, "velocity": 60}, {"time": 27365, "pitch": 70, "duration": 10, "velocity": 50}, {"time": 27365, "pitch": 75, "duration": 10, "velocity": 120}, {"time": 27365, "pitch": 82, "duration": 10, "velocity": 60}, {"time": 27604, "pitch": 42, "duration": 10, "velocity": 36}, {"time": 27604, "pitch": 62, "duration": 10, "velocity": 50}, {"time": 27604, "pitch": 70, "duration": 10, "velocity": 30}, {"time": 27604, "pitch": 82, "duration": 10, "velocity": 30}, {"time": 27843, "pitch": 42, "duration": 10, "velocity": 64}, {"time": 27843, "pitch": 60, "duration": 10, "velocity": 100}, {"time": 27843, "pitch": 70, "duration": 10, "velocity": 50}, {"time": 27843, "pitch": 82, "duration": 10, "velocity": 100}, {"time": 28082, "pitch": 36, "duration": 10, "velocity": 92}, {"time": 28082, "pitch": 42, "duration": 10, "velocity": 36}, {"time": 28082, "pitch": 62, "duration": 10, "velocity": 60}, {"time": 28082, "pitch": 70, "duration": 10, "velocity": 30}, {"time": 28082, "pitch": 75, "duration": 10, "velocity": 120}, {"time": 28082, "pitch": 82, "duration": 10, "velocity": 30}, {"time": 28322, "pitch": 36, "duration": 10, "velocity": 92}, {"time": 28322, "pitch": 42, "duration": 10, "velocity": 64}, {"time": 28322, "pitch": 62, "duration": 10, "velocity": 50}, {"time": 28322, "pitch": 70, "duration": 10, "velocity": 50}, {"time": 28322, "pitch": 82, "duration": 10, "velocity": 60}, {"time": 28561, "pitch": 42, "duration": 10, "velocity": 36}, {"time": 28561, "pitch": 60, "duration": 10, "velocity": 100}, {"time": 28561, "pitch": 70, "duration": 10, "velocity": 30}, {"time": 28561, "pitch": 82, "duration": 10, "velocity": 30}, {"time": 28800, "pitch": 42, "duration": 10, "velocity": 64}, {"time": 28800, "pitch": 62, "duration": 10, "velocity": 60}, {"time": 28800, "pitch": 70, "duration": 10, "velocity": 50}, {"time": 28800, "pitch": 75, "duration": 10, "velocity": 120}, {"time": 28800, "pitch": 82, "duration": 10, "velocity": 100}, {"time": 29039, "pitch": 36, "duration": 10, "velocity": 92}, {"time": 29039, "pitch": 42, "duration": 10, "velocity": 36}, {"time": 29039, "pitch": 62, "duration": 10, "velocity": 50}, {"time": 29039, "pitch": 70, "duration": 10, "velocity": 30}, {"time": 29039, "pitch": 82, "duration": 10, "velocity": 30}, {"time": 29278, "pitch": 36, "duration": 10, "velocity": 92}, {"time": 29278, "pitch": 42, "duration": 10, "velocity": 64}, {"time": 29278, "pitch": 60, "duration": 10, "velocity": 100}, {"time": 29278, "pitch": 70, "duration": 10, "velocity": 50}, {"time": 29278, "pitch": 82, "duration": 10, "velocity": 60}, {"time": 29518, "pitch": 42, "duration": 10, "velocity": 36}, {"time": 29518, "pitch": 62, "duration": 10, "velocity": 60}, {"time": 29518, "pitch": 70, "duration": 10, "velocity": 30}, {"time": 29518, "pitch": 75, "duration": 10, "velocity": 120}, {"time": 29518, "pitch": 82, "duration": 10, "velocity": 30}, {"time": 29757, "pitch": 42, "duration": 10, "velocity": 64}, {"time": 29757, "pitch": 62, "duration": 10, "velocity": 50}, {"time": 29757, "pitch": 70, "duration": 10, "velocity": 50}, {"time": 29757, "pitch": 82, "duration": 10, "velocity": 100}, {"time": 29996, "pitch": 36, "duration": 10, "velocity": 92}, {"time": 29996, "pitch": 42, "duration": 10, "velocity": 36}, {"time": 29996, "pitch": 60, "duration": 10, "velocity": 100}, {"time": 29996, "pitch": 70, "duration": 10, "velocity": 30}, {"time": 29996, "pitch": 82, "duration": 10, "velocity": 30}, {"time": 30235, "pitch": 36, "duration": 10, "velocity": 92}, {"time": 30235, "pitch": 42, "duration": 10, "velocity": 64}, {"time": 30235, "pitch": 62, "duration": 10, "velocity": 60}, {"time": 30235, "pitch": 70, "duration": 10, "velocity": 50}, {"time": 30235, "pitch": 75, "duration": 10, "velocity": 120}, {"time": 30235, "pitch": 82, "duration": 10, "velocity": 60}, {"time": 30480, "pitch": 42, "duration": 10, "velocity": 36}, {"time": 30480, "pitch": 62, "duration": 10, "velocity": 50}, {"time": 30480, "pitch": 70, "duration": 10, "velocity": 30}, {"time": 30480, "pitch": 82, "duration": 10, "velocity": 30}, {"time": 30725, "pitch": 42, "duration": 10, "velocity": 64}, {"time": 30725, "pitch": 60, "duration": 10, "velocity": 100}, {"time": 30725, "pitch": 70, "duration": 10, "velocity": 50}, {"time": 30725, "pitch": 75, "duration": 10, "velocity": 120}, {"time": 30725, "pitch": 82, "duration": 10, "velocity": 100}, {"time": 30964, "pitch": 36, "duration": 10, "velocity": 92}, {"time": 30964, "pitch": 42, "duration": 10, "velocity": 36}, {"time": 30964, "pitch": 62, "duration": 10, "velocity": 60}, {"time": 30964, "pitch": 70, "duration": 10, "velocity": 30}, {"time": 30964, "pitch": 82, "duration": 10, "velocity": 30}, {"time": 31203, "pitch": 36, "duration": 10, "velocity": 92}, {"time": 31203, "pitch": 42, "duration": 10, "velocity": 64}, {"time": 31203, "pitch": 62, "duration": 10, "velocity": 60}, {"time": 31203, "pitch": 70, "duration": 10, "velocity": 50}, {"time": 31203, "pitch": 75, "duration": 10, "velocity": 120}, {"time": 31203, "pitch": 82, "duration": 10, "velocity": 60}, {"time": 31442, "pitch": 42, "duration": 10, "velocity": 36}, {"time": 31442, "pitch": 62, "duration": 10, "velocity": 50}, {"time": 31442, "pitch": 70, "duration": 10, "velocity": 30}, {"time": 31442, "pitch": 82, "duration": 10, "velocity": 30}, {"time": 31682, "pitch": 42, "duration": 10, "velocity": 64}, {"time": 31682, "pitch": 60, "duration": 10, "velocity": 100}, {"time": 31682, "pitch": 70, "duration": 10, "velocity": 50}, {"time": 31682, "pitch": 82, "duration": 10, "velocity": 100}, {"time": 31921, "pitch": 36, "duration": 10, "velocity": 92}, {"time": 31921, "pitch": 42, "duration": 10, "velocity": 36}, {"time": 31921, "pitch": 62, "duration": 10, "velocity": 60}, {"time": 31921, "pitch": 70, "duration": 10, "velocity": 30}, {"time": 31921, "pitch": 75, "duration": 10, "velocity": 120}, {"time": 31921, "pitch": 82, "duration": 10, "velocity": 30}, {"time": 32160, "pitch": 36, "duration": 10, "velocity": 92}, {"time": 32160, "pitch": 42, "duration": 10, "velocity": 64}, {"time": 32160, "pitch": 62, "duration": 10, "velocity": 50}, {"time": 32160, "pitch": 70, "duration": 10, "velocity": 50}, {"time": 32160, "pitch": 82, "duration": 10, "velocity": 60}, {"time": 32399, "pitch": 42, "duration": 10, "velocity": 36}, {"time": 32399, "pitch": 60, "duration": 10, "velocity": 100}, {"time": 32399, "pitch": 70, "duration": 10, "velocity": 30}, {"time": 32399, "pitch": 82, "duration": 10, "velocity": 30}, {"time": 32638, "pitch": 42, "duration": 10, "velocity": 64}, {"time": 32638, "pitch": 62, "duration": 10, "velocity": 60}, {"time": 32638, "pitch": 70, "duration": 10, "velocity": 50}, {"time": 32638, "pitch": 75, "duration": 10, "velocity": 120}, {"time": 32638, "pitch": 82, "duration": 10, "velocity": 100}, {"time": 32878, "pitch": 36, "duration": 10, "velocity": 92}, {"time": 32878, "pitch": 42, "duration": 10, "velocity": 36}, {"time": 32878, "pitch": 62, "duration": 10, "velocity": 50}, {"time": 32878, "pitch": 70, "duration": 10, "velocity": 30}, {"time": 32878, "pitch": 82, "duration": 10, "velocity": 30}, {"time": 33117, "pitch": 36, "duration": 10, "velocity": 92}, {"time": 33117, "pitch": 42, "duration": 10, "velocity": 64}, {"time": 33117, "pitch": 60, "duration": 10, "velocity": 100}, {"time": 33117, "pitch": 70, "duration": 10, "velocity": 50}, {"time": 33117, "pitch": 82, "duration": 10, "velocity": 60}, {"time": 33356, "pitch": 42, "duration": 10, "velocity": 36}, {"time": 33356, "pitch": 62, "duration": 10, "velocity": 60}, {"time": 33356, "pitch": 70, "duration": 10, "velocity": 30}, {"time": 33356, "pitch": 75, "duration": 10, "velocity": 120}, {"time": 33356, "pitch": 82, "duration": 10, "velocity": 30}, {"time": 33595, "pitch": 42, "duration": 10, "velocity": 64}, {"time": 33595, "pitch": 62, "duration": 10, "velocity": 50}, {"time": 33595, "pitch": 70, "duration": 10, "velocity": 50}, {"time": 33595, "pitch": 82, "duration": 10, "velocity": 100}, {"time": 33840, "pitch": 36, "duration": 10, "velocity": 92}, {"time": 33840, "pitch": 42, "duration": 10, "velocity": 36}, {"time": 33840, "pitch": 60, "duration": 10, "velocity": 100}, {"time": 33840, "pitch": 70, "duration": 10, "velocity": 30}, {"time": 33840, "pitch": 82, "duration": 10, "velocity": 30}, {"time": 34085, "pitch": 36, "duration": 10, "velocity": 92}, {"time": 34085, "pitch": 42, "duration": 10, "velocity": 64}, {"time": 34085, "pitch": 62, "duration": 10, "velocity": 60}, {"time": 34085, "pitch": 70, "duration": 10, "velocity": 50}, {"time": 34085, "pitch": 75, "duration": 10, "velocity": 120}, {"time": 34085, "pitch": 82, "duration": 10, "velocity": 60}, {"time": 34324, "pitch": 42, "duration": 10, "velocity": 36}, {"time": 34324, "pitch": 62, "duration": 10, "velocity": 50}, {"time": 34324, "pitch": 70, "duration": 10, "velocity": 30}, {"time": 34324, "pitch": 82, "duration": 10, "velocity": 30}, {"time": 34563, "pitch": 42, "duration": 10, "velocity": 64}, {"time": 34563, "pitch": 60, "duration": 10, "velocity": 100}, {"time": 34563, "pitch": 70, "duration": 10, "velocity": 50}, {"time": 34563, "pitch": 75, "duration": 10, "velocity": 120}, {"time": 34563, "pitch": 82, "duration": 10, "velocity": 100}, {"time": 34802, "pitch": 36, "duration": 10, "velocity": 92}, {"time": 34802, "pitch": 42, "duration": 10, "velocity": 36}, {"time": 34802, "pitch": 62, "duration": 10, "velocity": 60}, {"time": 34802, "pitch": 70, "duration": 10, "velocity": 30}, {"time": 34802, "pitch": 82, "duration": 10, "velocity": 30}, {"time": 35042, "pitch": 36, "duration": 10, "velocity": 92}, {"time": 35042, "pitch": 42, "duration": 10, "velocity": 64}, {"time": 35042, "pitch": 62, "duration": 10, "velocity": 60}, {"time": 35042, "pitch": 70, "duration": 10, "velocity": 50}, {"time": 35042, "pitch": 75, "duration": 10, "velocity": 120}, {"time": 35042, "pitch": 82, "duration": 10, "velocity": 60}, {"time": 35281, "pitch": 42, "duration": 10, "velocity": 36}, {"time": 35281, "pitch": 62, "duration": 10, "velocity": 50}, {"time": 35281, "pitch": 70, "duration": 10, "velocity": 30}, {"time": 35281, "pitch": 82, "duration": 10, "velocity": 30}, {"time": 35520, "pitch": 42, "duration": 10, "velocity": 64}, {"time": 35520, "pitch": 60, "duration": 10, "velocity": 100}, {"time": 35520, "pitch": 70, "duration": 10, "velocity": 50}, {"time": 35520, "pitch": 82, "duration": 10, "velocity": 100}, {"time": 35759, "pitch": 36, "duration": 10, "velocity": 92}, {"time": 35759, "pitch": 42, "duration": 10, "velocity": 36}, {"time": 35759, "pitch": 62, "duration": 10, "velocity": 60}, {"time": 35759, "pitch": 70, "duration": 10, "velocity": 30}, {"time": 35759, "pitch": 75, "duration": 10, "velocity": 120}, {"time": 35759, "pitch": 82, "duration": 10, "velocity": 30}, {"time": 35998, "pitch": 36, "duration": 10, "velocity": 92}, {"time": 35998, "pitch": 42, "duration": 10, "velocity": 64}, {"time": 35998, "pitch": 62, "duration": 10, "velocity": 50}, {"time": 35998, "pitch": 70, "duration": 10, "velocity": 50}, {"time": 35998, "pitch": 82, "duration": 10, "velocity": 60}, {"time": 36238, "pitch": 42, "duration": 10, "velocity": 36}, {"time": 36238, "pitch": 60, "duration": 10, "velocity": 100}, {"time": 36238, "pitch": 70, "duration": 10, "velocity": 30}, {"time": 36238, "pitch": 82, "duration": 10, "velocity": 30}, {"time": 36477, "pitch": 42, "duration": 10, "velocity": 64}, {"time": 36477, "pitch": 62, "duration": 10, "velocity": 60}, {"time": 36477, "pitch": 70, "duration": 10, "velocity": 50}, {"time": 36477, "pitch": 75, "duration": 10, "velocity": 120}, {"time": 36477, "pitch": 82, "duration": 10, "velocity": 100}, {"time": 36716, "pitch": 36, "duration": 10, "velocity": 92}, {"time": 36716, "pitch": 42, "duration": 10, "velocity": 36}, {"time": 36716, "pitch": 62, "duration": 10, "velocity": 50}, {"time": 36716, "pitch": 70, "duration": 10, "velocity": 30}, {"time": 36716, "pitch": 82, "duration": 10, "velocity": 30}, {"time": 36955, "pitch": 36, "duration": 10, "velocity": 92}, {"time": 36955, "pitch": 42, "duration": 10, "velocity": 64}, {"time": 36955, "pitch": 60, "duration": 10, "velocity": 100}, {"time": 36955, "pitch": 70, "duration": 10, "velocity": 50}, {"time": 36955, "pitch": 82, "duration": 10, "velocity": 60}, {"time": 37200, "pitch": 42, "duration": 10, "velocity": 36}, {"time": 37200, "pitch": 62, "duration": 10, "velocity": 60}, {"time": 37200, "pitch": 70, "duration": 10, "velocity": 30}, {"time": 37200, "pitch": 75, "duration": 10, "velocity": 120}, {"time": 37200, "pitch": 82, "duration": 10, "velocity": 30}, {"time": 37445, "pitch": 42, "duration": 10, "velocity": 64}, {"time": 37445, "pitch": 62, "duration": 10, "velocity": 50}, {"time": 37445, "pitch": 70, "duration": 10, "velocity": 50}, {"time": 37445, "pitch": 82, "duration": 10, "velocity": 100}, {"time": 37684, "pitch": 36, "duration": 10, "velocity": 92}, {"time": 37684, "pitch": 42, "duration": 10, "velocity": 36}, {"time": 37684, "pitch": 60, "duration": 10, "velocity": 100}, {"time": 37684, "pitch": 70, "duration": 10, "velocity": 30}, {"time": 37684, "pitch": 82, "duration": 10, "velocity": 30}, {"time": 37923, "pitch": 36, "duration": 10, "velocity": 92}, {"time": 37923, "pitch": 42, "duration": 10, "velocity": 64}, {"time": 37923, "pitch": 62, "duration": 10, "velocity": 60}, {"time": 37923, "pitch": 70, "duration": 10, "velocity": 50}, {"time": 37923, "pitch": 75, "duration": 10, "velocity": 120}, {"time": 37923, "pitch": 82, "duration": 10, "velocity": 60}, {"time": 38162, "pitch": 42, "duration": 10, "velocity": 36}, {"time": 38162, "pitch": 62, "duration": 10, "velocity": 50}, {"time": 38162, "pitch": 70, "duration": 10, "velocity": 30}, {"time": 38162, "pitch": 82, "duration": 10, "velocity": 30}, {"time": 38402, "pitch": 42, "duration": 10, "velocity": 64}, {"time": 38402, "pitch": 60, "duration": 10, "velocity": 100}, {"time": 38402, "pitch": 70, "duration": 10, "velocity": 50}, {"time": 38402, "pitch": 75, "duration": 10, "velocity": 120}, {"time": 38402, "pitch": 82, "duration": 10, "velocity": 100}, {"time": 38641, "pitch": 36, "duration": 10, "velocity": 92}, {"time": 38641, "pitch": 42, "duration": 10, "velocity": 36}, {"time": 38641, "pitch": 62, "duration": 10, "velocity": 60}, {"time": 38641, "pitch": 70, "duration": 10, "velocity": 30}, {"time": 38641, "pitch": 82, "duration": 10, "velocity": 30}, {"time": 38880, "pitch": 36, "duration": 10, "velocity": 92}, {"time": 38880, "pitch": 42, "duration": 10, "velocity": 64}, {"time": 38880, "pitch": 62, "duration": 10, "velocity": 60}, {"time": 38880, "pitch": 70, "duration": 10, "velocity": 50}, {"time": 38880, "pitch": 75, "duration": 10, "velocity": 120}, {"time": 38880, "pitch": 82, "duration": 10, "velocity": 60}, {"time": 39119, "pitch": 42, "duration": 10, "velocity": 36}, {"time": 39119, "pitch": 62, "duration": 10, "velocity": 50}, {"time": 39119, "pitch": 70, "duration": 10, "velocity": 30}, {"time": 39119, "pitch": 82, "duration": 10, "velocity": 30}, {"time": 39358, "pitch": 42, "duration": 10, "velocity": 64}, {"time": 39358, "pitch": 60, "duration": 10, "velocity": 100}, {"time": 39358, "pitch": 70, "duration": 10, "velocity": 50}, {"time": 39358, "pitch": 82, "duration": 10, "velocity": 100}, {"time": 39598, "pitch": 36, "duration": 10, "velocity": 92}, {"time": 39598, "pitch": 42, "duration": 10, "velocity": 36}, {"time": 39598, "pitch": 62, "duration": 10, "velocity": 60}, {"time": 39598, "pitch": 70, "duration": 10, "velocity": 30}, {"time": 39598, "pitch": 75, "duration": 10, "velocity": 120}, {"time": 39598, "pitch": 82, "duration": 10, "velocity": 30}, {"time": 39837, "pitch": 36, "duration": 10, "velocity": 92}, {"time": 39837, "pitch": 42, "duration": 10, "velocity": 64}, {"time": 39837, "pitch": 62, "duration": 10, "velocity": 50}, {"time": 39837, "pitch": 70, "duration": 10, "velocity": 50}, {"time": 39837, "pitch": 82, "duration": 10, "velocity": 60}, {"time": 40076, "pitch": 42, "duration": 10, "velocity": 36}, {"time": 40076, "pitch": 60, "duration": 10, "velocity": 100}, {"time": 40076, "pitch": 70, "duration": 10, "velocity": 30}, {"time": 40076, "pitch": 82, "duration": 10, "velocity": 30}, {"time": 40315, "pitch": 42, "duration": 10, "velocity": 64}, {"time": 40315, "pitch": 62, "duration": 10, "velocity": 60}, {"time": 40315, "pitch": 70, "duration": 10, "velocity": 50}, {"time": 40315, "pitch": 75, "duration": 10, "velocity": 120}, {"time": 40315, "pitch": 82, "duration": 10, "velocity": 100}, {"time": 40560, "pitch": 36, "duration": 10, "velocity": 92}, {"time": 40560, "pitch": 42, "duration": 10, "velocity": 36}, {"time": 40560, "pitch": 62, "duration": 10, "velocity": 50}, {"time": 40560, "pitch": 70, "duration": 10, "velocity": 30}, {"time": 40560, "pitch": 82, "duration": 10, "velocity": 30}, {"time": 40805, "pitch": 36, "duration": 10, "velocity": 92}, {"time": 40805, "pitch": 42, "duration": 10, "velocity": 64}, {"time": 40805, "pitch": 60, "duration": 10, "velocity": 100}, {"time": 40805, "pitch": 70, "duration": 10, "velocity": 50}, {"time": 40805, "pitch": 82, "duration": 10, "velocity": 60}, {"time": 41044, "pitch": 42, "duration": 10, "velocity": 36}, {"time": 41044, "pitch": 62, "duration": 10, "velocity": 60}, {"time": 41044, "pitch": 70, "duration": 10, "velocity": 30}, {"time": 41044, "pitch": 75, "duration": 10, "velocity": 120}, {"time": 41044, "pitch": 82, "duration": 10, "velocity": 30}, {"time": 41283, "pitch": 42, "duration": 10, "velocity": 64}, {"time": 41283, "pitch": 62, "duration": 10, "velocity": 50}, {"time": 41283, "pitch": 70, "duration": 10, "velocity": 50}, {"time": 41283, "pitch": 82, "duration": 10, "velocity": 100}, {"time": 41522, "pitch": 36, "duration": 10, "velocity": 92}, {"time": 41522, "pitch": 42, "duration": 10, "velocity": 36}, {"time": 41522, "pitch": 60, "duration": 10, "velocity": 100}, {"time": 41522, "pitch": 70, "duration": 10, "velocity": 30}, {"time": 41522, "pitch": 82, "duration": 10, "velocity": 30}, {"time": 41762, "pitch": 36, "duration": 10, "velocity": 92}, {"time": 41762, "pitch": 42, "duration": 10, "velocity": 64}, {"time": 41762, "pitch": 62, "duration": 10, "velocity": 60}, {"time": 41762, "pitch": 70, "duration": 10, "velocity": 50}, {"time": 41762, "pitch": 75, "duration": 10, "velocity": 120}, {"time": 41762, "pitch": 82, "duration": 10, "velocity": 60}, {"time": 42001, "pitch": 42, "duration": 10, "velocity": 36}, {"time": 42001, "pitch": 62, "duration": 10, "velocity": 50}, {"time": 42001, "pitch": 70, "duration": 10, "velocity": 30}, {"time": 42001, "pitch": 82, "duration": 10, "velocity": 30}, {"time": 42240, "pitch": 42, "duration": 10, "velocity": 64}, {"time": 42240, "pitch": 60, "duration": 10, "velocity": 100}, {"time": 42240, "pitch": 70, "duration": 10, "velocity": 50}, {"time": 42240, "pitch": 75, "duration": 10, "velocity": 120}, {"time": 42240, "pitch": 82, "duration": 10, "velocity": 100}, {"time": 42479, "pitch": 36, "duration": 10, "velocity": 92}, {"time": 42479, "pitch": 42, "duration": 10, "velocity": 36}, {"time": 42479, "pitch": 62, "duration": 10, "velocity": 60}, {"time": 42479, "pitch": 70, "duration": 10, "velocity": 30}, {"time": 42479, "pitch": 82, "duration": 10, "velocity": 30}, {"time": 42718, "pitch": 36, "duration": 10, "velocity": 92}, {"time": 42718, "pitch": 42, "duration": 10, "velocity": 64}, {"time": 42718, "pitch": 62, "duration": 10, "velocity": 60}, {"time": 42718, "pitch": 70, "duration": 10, "velocity": 50}, {"time": 42718, "pitch": 75, "duration": 10, "velocity": 120}, {"time": 42718, "pitch": 82, "duration": 10, "velocity": 60}, {"time": 42958, "pitch": 42, "duration": 10, "velocity": 36}, {"time": 42958, "pitch": 62, "duration": 10, "velocity": 50}, {"time": 42958, "pitch": 70, "duration": 10, "velocity": 30}, {"time": 42958, "pitch": 82, "duration": 10, "velocity": 30}, {"time": 43197, "pitch": 42, "duration": 10, "velocity": 64}, {"time": 43197, "pitch": 60, "duration": 10, "velocity": 100}, {"time": 43197, "pitch": 70, "duration": 10, "velocity": 50}, {"time": 43197, "pitch": 82, "duration": 10, "velocity": 100}, {"time": 43436, "pitch": 36, "duration": 10, "velocity": 92}, {"time": 43436, "pitch": 42, "duration": 10, "velocity": 36}, {"time": 43436, "pitch": 62, "duration": 10, "velocity": 60}, {"time": 43436, "pitch": 70, "duration": 10, "velocity": 30}, {"time": 43436, "pitch": 75, "duration": 10, "velocity": 120}, {"time": 43436, "pitch": 82, "duration": 10, "velocity": 30}, {"time": 43675, "pitch": 36, "duration": 10, "velocity": 92}, {"time": 43675, "pitch": 42, "duration": 10, "velocity": 64}, {"time": 43675, "pitch": 62, "duration": 10, "velocity": 50}, {"time": 43675, "pitch": 70, "duration": 10, "velocity": 50}, {"time": 43675, "pitch": 82, "duration": 10, "velocity": 60}, {"time": 43920, "pitch": 42, "duration": 10, "velocity": 36}, {"time": 43920, "pitch": 60, "duration": 10, "velocity": 100}, {"time": 43920, "pitch": 70, "duration": 10, "velocity": 30}, {"time": 43920, "pitch": 82, "duration": 10, "velocity": 30}, {"time": 44165, "pitch": 42, "duration": 10, "velocity": 64}, {"time": 44165, "pitch": 62, "duration": 10, "velocity": 60}, {"time": 44165, "pitch": 70, "duration": 10, "velocity": 50}, {"time": 44165, "pitch": 75, "duration": 10, "velocity": 120}, {"time": 44165, "pitch": 82, "duration": 10, "velocity": 100}, {"time": 44404, "pitch": 36, "duration": 10, "velocity": 92}, {"time": 44404, "pitch": 42, "duration": 10, "velocity": 36}, {"time": 44404, "pitch": 62, "duration": 10, "velocity": 50}, {"time": 44404, "pitch": 70, "duration": 10, "velocity": 30}, {"time": 44404, "pitch": 82, "duration": 10, "velocity": 30}, {"time": 44643, "pitch": 36, "duration": 10, "velocity": 92}, {"time": 44643, "pitch": 42, "duration": 10, "velocity": 64}, {"time": 44643, "pitch": 60, "duration": 10, "velocity": 100}, {"time": 44643, "pitch": 70, "duration": 10, "velocity": 50}, {"time": 44643, "pitch": 82, "duration": 10, "velocity": 60}, {"time": 44882, "pitch": 42, "duration": 10, "velocity": 36}, {"time": 44882, "pitch": 62, "duration": 10, "velocity": 60}, {"time": 44882, "pitch": 70, "duration": 10, "velocity": 30}, {"time": 44882, "pitch": 75, "duration": 10, "velocity": 120}, {"time": 44882, "pitch": 82, "duration": 10, "velocity": 30}, {"time": 45122, "pitch": 42, "duration": 10, "velocity": 64}, {"time": 45122, "pitch": 62, "duration": 10, "velocity": 50}, {"time": 45122, "pitch": 70, "duration": 10, "velocity": 50}, {"time": 45122, "pitch": 82, "duration": 10, "velocity": 100}, {"time": 45361, "pitch": 36, "duration": 10, "velocity": 92}, {"time": 45361, "pitch": 42, "duration": 10, "velocity": 36}, {"time": 45361, "pitch": 60, "duration": 10, "velocity": 100}, {"time": 45361, "pitch": 70, "duration": 10, "velocity": 30}, {"time": 45361, "pitch": 82, "duration": 10, "velocity": 30}, {"time": 45600, "pitch": 36, "duration": 10, "velocity": 92}, {"time": 45600, "pitch": 42, "duration": 10, "velocity": 64}, {"time": 45600, "pitch": 62, "duration": 10, "velocity": 60}, {"time": 45600, "pitch": 70, "duration": 10, "velocity": 50}, {"time": 45600, "pitch": 75, "duration": 10, "velocity": 120}, {"time": 45600, "pitch": 82, "duration": 10, "velocity": 60}, {"time": 45839, "pitch": 42, "duration": 10, "velocity": 36}, {"time": 45839, "pitch": 62, "duration": 10, "velocity": 50}, {"time": 45839, "pitch": 70, "duration": 10, "velocity": 30}, {"time": 45839, "pitch": 82, "duration": 10, "velocity": 30}, {"time": 46078, "pitch": 42, "duration": 10, "velocity": 64}, {"time": 46078, "pitch": 60, "duration": 10, "velocity": 100}, {"time": 46078, "pitch": 70, "duration": 10, "velocity": 50}, {"time": 46078, "pitch": 75, "duration": 10, "velocity": 120}, {"time": 46078, "pitch": 82, "duration": 10, "velocity": 100}, {"time": 46318, "pitch": 36, "duration": 10, "velocity": 92}, {"time": 46318, "pitch": 42, "duration": 10, "velocity": 36}, {"time": 46318, "pitch": 62, "duration": 10, "velocity": 60}, {"time": 46318, "pitch": 70, "duration": 10, "velocity": 30}, {"time": 46318, "pitch": 82, "duration": 10, "velocity": 30}, {"time": 46557, "pitch": 36, "duration": 10, "velocity": 92}, {"time": 46557, "pitch": 42, "duration": 10, "velocity": 64}, {"time": 46557, "pitch": 62, "duration": 10, "velocity": 60}, {"time": 46557, "pitch": 70, "duration": 10, "velocity": 50}, {"time": 46557, "pitch": 75, "duration": 10, "velocity": 120}, {"time": 46557, "pitch": 82, "duration": 10, "velocity": 60}, {"time": 46796, "pitch": 42, "duration": 10, "velocity": 36}, {"time": 46796, "pitch": 62, "duration": 10, "velocity": 50}, {"time": 46796, "pitch": 70, "duration": 10, "velocity": 30}, {"time": 46796, "pitch": 82, "duration": 10, "velocity": 30}, {"time": 47035, "pitch": 42, "duration": 10, "velocity": 64}, {"time": 47035, "pitch": 60, "duration": 10, "velocity": 100}, {"time": 47035, "pitch": 70, "duration": 10, "velocity": 50}, {"time": 47035, "pitch": 82, "duration": 10, "velocity": 100}, {"time": 47280, "pitch": 36, "duration": 10, "velocity": 92}, {"time": 47280, "pitch": 42, "duration": 10, "velocity": 36}, {"time": 47280, "pitch": 62, "duration": 10, "velocity": 60}, {"time": 47280, "pitch": 70, "duration": 10, "velocity": 30}, {"time": 47280, "pitch": 75, "duration": 10, "velocity": 120}, {"time": 47280, "pitch": 82, "duration": 10, "velocity": 30}, {"time": 47525, "pitch": 36, "duration": 10, "velocity": 92}, {"time": 47525, "pitch": 42, "duration": 10, "velocity": 64}, {"time": 47525, "pitch": 62, "duration": 10, "velocity": 50}, {"time": 47525, "pitch": 70, "duration": 10, "velocity": 50}, {"time": 47525, "pitch": 82, "duration": 10, "velocity": 60}, {"time": 47764, "pitch": 42, "duration": 10, "velocity": 36}, {"time": 47764, "pitch": 60, "duration": 10, "velocity": 100}, {"time": 47764, "pitch": 70, "duration": 10, "velocity": 30}, {"time": 47764, "pitch": 82, "duration": 10, "velocity": 30}, {"time": 48003, "pitch": 42, "duration": 10, "velocity": 64}, {"time": 48003, "pitch": 62, "duration": 10, "velocity": 60}, {"time": 48003, "pitch": 70, "duration": 10, "velocity": 50}, {"time": 48003, "pitch": 75, "duration": 10, "velocity": 120}, {"time": 48003, "pitch": 82, "duration": 10, "velocity": 100}, {"time": 48242, "pitch": 36, "duration": 10, "velocity": 92}, {"time": 48242, "pitch": 42, "duration": 10, "velocity": 36}, {"time": 48242, "pitch": 62, "duration": 10, "velocity": 50}, {"time": 48242, "pitch": 70, "duration": 10, "velocity": 30}, {"time": 48242, "pitch": 82, "duration": 10, "velocity": 30}, {"time": 48482, "pitch": 36, "duration": 10, "velocity": 92}, {"time": 48482, "pitch": 42, "duration": 10, "velocity": 64}, {"time": 48482, "pitch": 60, "duration": 10, "velocity": 100}, {"time": 48482, "pitch": 70, "duration": 10, "velocity": 50}, {"time": 48482, "pitch": 82, "duration": 10, "velocity": 60}, {"time": 48721, "pitch": 42, "duration": 10, "velocity": 36}, {"time": 48721, "pitch": 62, "duration": 10, "velocity": 60}, {"time": 48721, "pitch": 70, "duration": 10, "velocity": 30}, {"time": 48721, "pitch": 75, "duration": 10, "velocity": 120}, {"time": 48721, "pitch": 82, "duration": 10, "velocity": 30}, {"time": 48960, "pitch": 42, "duration": 10, "velocity": 64}, {"time": 48960, "pitch": 62, "duration": 10, "velocity": 50}, {"time": 48960, "pitch": 70, "duration": 10, "velocity": 50}, {"time": 48960, "pitch": 82, "duration": 10, "velocity": 100}, {"time": 49199, "pitch": 36, "duration": 10, "velocity": 92}, {"time": 49199, "pitch": 42, "duration": 10, "velocity": 36}, {"time": 49199, "pitch": 60, "duration": 10, "velocity": 100}, {"time": 49199, "pitch": 70, "duration": 10, "velocity": 30}, {"time": 49199, "pitch": 82, "duration": 10, "velocity": 30}, {"time": 49438, "pitch": 36, "duration": 10, "velocity": 92}, {"time": 49438, "pitch": 42, "duration": 10, "velocity": 64}, {"time": 49438, "pitch": 62, "duration": 10, "velocity": 60}, {"time": 49438, "pitch": 70, "duration": 10, "velocity": 50}, {"time": 49438, "pitch": 75, "duration": 10, "velocity": 120}, {"time": 49438, "pitch": 82, "duration": 10, "velocity": 60}, {"time": 49678, "pitch": 42, "duration": 10, "velocity": 36}, {"time": 49678, "pitch": 62, "duration": 10, "velocity": 50}, {"time": 49678, "pitch": 70, "duration": 10, "velocity": 30}, {"time": 49678, "pitch": 82, "duration": 10, "velocity": 30}, {"time": 49917, "pitch": 42, "duration": 10, "velocity": 64}, {"time": 49917, "pitch": 60, "duration": 10, "velocity": 100}, {"time": 49917, "pitch": 70, "duration": 10, "velocity": 50}, {"time": 49917, "pitch": 75, "duration": 10, "velocity": 120}, {"time": 49917, "pitch": 82, "duration": 10, "velocity": 100}, {"time": 50156, "pitch": 36, "duration": 10, "velocity": 92}, {"time": 50156, "pitch": 42, "duration": 10, "velocity": 36}, {"time": 50156, "pitch": 62, "duration": 10, "velocity": 60}, {"time": 50156, "pitch": 70, "duration": 10, "velocity": 30}, {"time": 50156, "pitch": 82, "duration": 10, "velocity": 30}, {"time": 50395, "pitch": 36, "duration": 10, "velocity": 92}, {"time": 50395, "pitch": 42, "duration": 10, "velocity": 64}, {"time": 50395, "pitch": 62, "duration": 10, "velocity": 60}, {"time": 50395, "pitch": 70, "duration": 10, "velocity": 50}, {"time": 50395, "pitch": 75, "duration": 10, "velocity": 120}, {"time": 50395, "pitch": 82, "duration": 10, "velocity": 60}, {"time": 50640, "pitch": 42, "duration": 10, "velocity": 36}, {"time": 50640, "pitch": 62, "duration": 10, "velocity": 50}, {"time": 50640, "pitch": 70, "duration": 10, "velocity": 30}, {"time": 50640, "pitch": 82, "duration": 10, "velocity": 30}, {"time": 50885, "pitch": 42, "duration": 10, "velocity": 64}, {"time": 50885, "pitch": 60, "duration": 10, "velocity": 100}, {"time": 50885, "pitch": 70, "duration": 10, "velocity": 50}, {"time": 50885, "pitch": 82, "duration": 10, "velocity": 100}, {"time": 51124, "pitch": 36, "duration": 10, "velocity": 92}, {"time": 51124, "pitch": 42, "duration": 10, "velocity": 36}, {"time": 51124, "pitch": 62, "duration": 10, "velocity": 60}, {"time": 51124, "pitch": 70, "duration": 10, "velocity": 30}, {"time": 51124, "pitch": 75, "duration": 10, "velocity": 120}, {"time": 51124, "pitch": 82, "duration": 10, "velocity": 30}, {"time": 51363, "pitch": 36, "duration": 10, "velocity": 92}, {"time": 51363, "pitch": 42, "duration": 10, "velocity": 64}, {"time": 51363, "pitch": 62, "duration": 10, "velocity": 50}, {"time": 51363, "pitch": 70, "duration": 10, "velocity": 50}, {"time": 51363, "pitch": 82, "duration": 10, "velocity": 60}, {"time": 51602, "pitch": 42, "duration": 10, "velocity": 36}, {"time": 51602, "pitch": 60, "duration": 10, "velocity": 100}, {"time": 51602, "pitch": 70, "duration": 10, "velocity": 30}, {"time": 51602, "pitch": 82, "duration": 10, "velocity": 30}, {"time": 51842, "pitch": 42, "duration": 10, "velocity": 64}, {"time": 51842, "pitch": 62, "duration": 10, "velocity": 60}, {"time": 51842, "pitch": 70, "duration": 10, "velocity": 50}, {"time": 51842, "pitch": 75, "duration": 10, "velocity": 120}, {"time": 51842, "pitch": 82, "duration": 10, "velocity": 100}, {"time": 52081, "pitch": 36, "duration": 10, "velocity": 92}, {"time": 52081, "pitch": 42, "duration": 10, "velocity": 36}, {"time": 52081, "pitch": 62, "duration": 10, "velocity": 50}, {"time": 52081, "pitch": 70, "duration": 10, "velocity": 30}, {"time": 52081, "pitch": 82, "duration": 10, "velocity": 30}, {"time": 52320, "pitch": 36, "duration": 10, "velocity": 92}, {"time": 52320, "pitch": 42, "duration": 10, "velocity": 64}, {"time": 52320, "pitch": 60, "duration": 10, "velocity": 100}, {"time": 52320, "pitch": 70, "duration": 10, "velocity": 50}, {"time": 52320, "pitch": 82, "duration": 10, "velocity": 60}, {"time": 52559, "pitch": 42, "duration": 10, "velocity": 36}, {"time": 52559, "pitch": 62, "duration": 10, "velocity": 60}, {"time": 52559, "pitch": 70, "duration": 10, "velocity": 30}, {"time": 52559, "pitch": 75, "duration": 10, "velocity": 120}, {"time": 52559, "pitch": 82, "duration": 10, "velocity": 30}, {"time": 52798, "pitch": 42, "duration": 10, "velocity": 64}, {"time": 52798, "pitch": 62, "duration": 10, "velocity": 50}, {"time": 52798, "pitch": 70, "duration": 10, "velocity": 50}, {"time": 52798, "pitch": 82, "duration": 10, "velocity": 100}, {"time": 53038, "pitch": 36, "duration": 10, "velocity": 92}, {"time": 53038, "pitch": 42, "duration": 10, "velocity": 36}, {"time": 53038, "pitch": 60, "duration": 10, "velocity": 100}, {"time": 53038, "pitch": 70, "duration": 10, "velocity": 30}, {"time": 53038, "pitch": 82, "duration": 10, "velocity": 30}, {"time": 53277, "pitch": 36, "duration": 10, "velocity": 92}, {"time": 53277, "pitch": 42, "duration": 10, "velocity": 64}, {"time": 53277, "pitch": 62, "duration": 10, "velocity": 60}, {"time": 53277, "pitch": 70, "duration": 10, "velocity": 50}, {"time": 53277, "pitch": 75, "duration": 10, "velocity": 120}, {"time": 53277, "pitch": 82, "duration": 10, "velocity": 60}, {"time": 53516, "pitch": 42, "duration": 10, "velocity": 36}, {"time": 53516, "pitch": 62, "duration": 10, "velocity": 50}, {"time": 53516, "pitch": 70, "duration": 10, "velocity": 30}, {"time": 53516, "pitch": 82, "duration": 10, "velocity": 30}, {"time": 53755, "pitch": 42, "duration": 10, "velocity": 64}, {"time": 53755, "pitch": 60, "duration": 10, "velocity": 100}, {"time": 53755, "pitch": 70, "duration": 10, "velocity": 50}, {"time": 53755, "pitch": 75, "duration": 10, "velocity": 120}, {"time": 53755, "pitch": 82, "duration": 10, "velocity": 100}, {"time": 54000, "pitch": 36, "duration": 10, "velocity": 92}, {"time": 54000, "pitch": 42, "duration": 10, "velocity": 36}, {"time": 54000, "pitch": 62, "duration": 10, "velocity": 60}, {"time": 54000, "pitch": 70, "duration": 10, "velocity": 30}, {"time": 54000, "pitch": 82, "duration": 10, "velocity": 30}, {"time": 54245, "pitch": 36, "duration": 10, "velocity": 92}, {"time": 54245, "pitch": 42, "duration": 10, "velocity": 64}, {"time": 54245, "pitch": 62, "duration": 10, "velocity": 60}, {"time": 54245, "pitch": 70, "duration": 10, "velocity": 50}, {"time": 54245, "pitch": 75, "duration": 10, "velocity": 120}, {"time": 54245, "pitch": 82, "duration": 10, "velocity": 60}, {"time": 54484, "pitch": 42, "duration": 10, "velocity": 36}, {"time": 54484, "pitch": 62, "duration": 10, "velocity": 50}, {"time": 54484, "pitch": 70, "duration": 10, "velocity": 30}, {"time": 54484, "pitch": 82, "duration": 10, "velocity": 30}, {"time": 54723, "pitch": 42, "duration": 10, "velocity": 64}, {"time": 54723, "pitch": 60, "duration": 10, "velocity": 100}, {"time": 54723, "pitch": 70, "duration": 10, "velocity": 50}, {"time": 54723, "pitch": 82, "duration": 10, "velocity": 100}, {"time": 54962, "pitch": 36, "duration": 10, "velocity": 92}, {"time": 54962, "pitch": 42, "duration": 10, "velocity": 36}, {"time": 54962, "pitch": 62, "duration": 10, "velocity": 60}, {"time": 54962, "pitch": 70, "duration": 10, "velocity": 30}, {"time": 54962, "pitch": 75, "duration": 10, "velocity": 120}, {"time": 54962, "pitch": 82, "duration": 10, "velocity": 30}, {"time": 55202, "pitch": 36, "duration": 10, "velocity": 92}, {"time": 55202, "pitch": 42, "duration": 10, "velocity": 64}, {"time": 55202, "pitch": 62, "duration": 10, "velocity": 50}, {"time": 55202, "pitch": 70, "duration": 10, "velocity": 50}, {"time": 55202, "pitch": 82, "duration": 10, "velocity": 60}, {"time": 55441, "pitch": 42, "duration": 10, "velocity": 36}, {"time": 55441, "pitch": 60, "duration": 10, "velocity": 100}, {"time": 55441, "pitch": 70, "duration": 10, "velocity": 30}, {"time": 55441, "pitch": 82, "duration": 10, "velocity": 30}, {"time": 55680, "pitch": 42, "duration": 10, "velocity": 64}, {"time": 55680, "pitch": 62, "duration": 10, "velocity": 60}, {"time": 55680, "pitch": 70, "duration": 10, "velocity": 50}, {"time": 55680, "pitch": 75, "duration": 10, "velocity": 120}, {"time": 55680, "pitch": 82, "duration": 10, "velocity": 100}, {"time": 55919, "pitch": 36, "duration": 10, "velocity": 92}, {"time": 55919, "pitch": 42, "duration": 10, "velocity": 36}, {"time": 55919, "pitch": 62, "duration": 10, "velocity": 50}, {"time": 55919, "pitch": 70, "duration": 10, "velocity": 30}, {"time": 55919, "pitch": 82, "duration": 10, "velocity": 30}, {"time": 56158, "pitch": 36, "duration": 10, "velocity": 92}, {"time": 56158, "pitch": 42, "duration": 10, "velocity": 64}, {"time": 56158, "pitch": 60, "duration": 10, "velocity": 100}, {"time": 56158, "pitch": 70, "duration": 10, "velocity": 50}, {"time": 56158, "pitch": 82, "duration": 10, "velocity": 60}, {"time": 56398, "pitch": 42, "duration": 10, "velocity": 36}, {"time": 56398, "pitch": 62, "duration": 10, "velocity": 60}, {"time": 56398, "pitch": 70, "duration": 10, "velocity": 30}, {"time": 56398, "pitch": 75, "duration": 10, "velocity": 120}, {"time": 56398, "pitch": 82, "duration": 10, "velocity": 30}, {"time": 56637, "pitch": 42, "duration": 10, "velocity": 64}, {"time": 56637, "pitch": 62, "duration": 10, "velocity": 50}, {"time": 56637, "pitch": 70, "duration": 10, "velocity": 50}, {"time": 56637, "pitch": 82, "duration": 10, "velocity": 100}, {"time": 56876, "pitch": 36, "duration": 10, "velocity": 92}, {"time": 56876, "pitch": 42, "duration": 10, "velocity": 36}, {"time": 56876, "pitch": 60, "duration": 10, "velocity": 100}, {"time": 56876, "pitch": 70, "duration": 10, "velocity": 30}, {"time": 56876, "pitch": 82, "duration": 10, "velocity": 30}, {"time": 57115, "pitch": 36, "duration": 10, "velocity": 92}, {"time": 57115, "pitch": 42, "duration": 10, "velocity": 64}, {"time": 57115, "pitch": 62, "duration": 10, "velocity": 60}, {"time": 57115, "pitch": 70, "duration": 10, "velocity": 50}, {"time": 57115, "pitch": 75, "duration": 10, "velocity": 120}, {"time": 57115, "pitch": 82, "duration": 10, "velocity": 60}, {"time": 57360, "pitch": 42, "duration": 10, "velocity": 36}, {"time": 57360, "pitch": 62, "duration": 10, "velocity": 50}, {"time": 57360, "pitch": 70, "duration": 10, "velocity": 30}, {"time": 57360, "pitch": 82, "duration": 10, "velocity": 30}, {"time": 57605, "pitch": 42, "duration": 10, "velocity": 64}, {"time": 57605, "pitch": 60, "duration": 10, "velocity": 100}, {"time": 57605, "pitch": 70, "duration": 10, "velocity": 50}, {"time": 57605, "pitch": 75, "duration": 10, "velocity": 120}, {"time": 57605, "pitch": 82, "duration": 10, "velocity": 100}, {"time": 57844, "pitch": 36, "duration": 10, "velocity": 92}, {"time": 57844, "pitch": 42, "duration": 10, "velocity": 36}, {"time": 57844, "pitch": 62, "duration": 10, "velocity": 60}, {"time": 57844, "pitch": 70, "duration": 10, "velocity": 30}, {"time": 57844, "pitch": 82, "duration": 10, "velocity": 30}, {"time": 58083, "pitch": 36, "duration": 10, "velocity": 92}, {"time": 58083, "pitch": 42, "duration": 10, "velocity": 64}, {"time": 58083, "pitch": 62, "duration": 10, "velocity": 60}, {"time": 58083, "pitch": 70, "duration": 10, "velocity": 50}, {"time": 58083, "pitch": 75, "duration": 10, "velocity": 120}, {"time": 58083, "pitch": 82, "duration": 10, "velocity": 60}, {"time": 58322, "pitch": 42, "duration": 10, "velocity": 36}, {"time": 58322, "pitch": 62, "duration": 10, "velocity": 50}, {"time": 58322, "pitch": 70, "duration": 10, "velocity": 30}, {"time": 58322, "pitch": 82, "duration": 10, "velocity": 30}, {"time": 58562, "pitch": 42, "duration": 10, "velocity": 64}, {"time": 58562, "pitch": 60, "duration": 10, "velocity": 100}, {"time": 58562, "pitch": 70, "duration": 10, "velocity": 50}, {"time": 58562, "pitch": 82, "duration": 10, "velocity": 100}, {"time": 58801, "pitch": 36, "duration": 10, "velocity": 92}, {"time": 58801, "pitch": 42, "duration": 10, "velocity": 36}, {"time": 58801, "pitch": 62, "duration": 10, "velocity": 60}, {"time": 58801, "pitch": 70, "duration": 10, "velocity": 30}, {"time": 58801, "pitch": 75, "duration": 10, "velocity": 120}, {"time": 58801, "pitch": 82, "duration": 10, "velocity": 30}, {"time": 59040, "pitch": 36, "duration": 10, "velocity": 92}, {"time": 59040, "pitch": 42, "duration": 10, "velocity": 64}, {"time": 59040, "pitch": 62, "duration": 10, "velocity": 50}, {"time": 59040, "pitch": 70, "duration": 10, "velocity": 50}, {"time": 59040, "pitch": 82, "duration": 10, "velocity": 60}, {"time": 59279, "pitch": 42, "duration": 10, "velocity": 36}, {"time": 59279, "pitch": 60, "duration": 10, "velocity": 100}, {"time": 59279, "pitch": 70, "duration": 10, "velocity": 30}, {"time": 59279, "pitch": 82, "duration": 10, "velocity": 30}, {"time": 59518, "pitch": 42, "duration": 10, "velocity": 64}, {"time": 59518, "pitch": 62, "duration": 10, "velocity": 60}, {"time": 59518, "pitch": 70, "duration": 10, "velocity": 50}, {"time": 59518, "pitch": 75, "duration": 10, "velocity": 120}, {"time": 59518, "pitch": 82, "duration": 10, "velocity": 100}, {"time": 59758, "pitch": 36, "duration": 10, "velocity": 92}, {"time": 59758, "pitch": 42, "duration": 10, "velocity": 36}, {"time": 59758, "pitch": 62, "duration": 10, "velocity": 50}, {"time": 59758, "pitch": 70, "duration": 10, "velocity": 30}, {"time": 59758, "pitch": 82, "duration": 10, "velocity": 30}, {"time": 59997, "pitch": 36, "duration": 10, "velocity": 92}, {"time": 59997, "pitch": 42, "duration": 10, "velocity": 64}, {"time": 59997, "pitch": 60, "duration": 10, "velocity": 100}, {"time": 59997, "pitch": 70, "duration": 10, "velocity": 50}, {"time": 59997, "pitch": 82, "duration": 10, "velocity": 60}, {"time": 60236, "pitch": 42, "duration": 10, "velocity": 36}, {"time": 60236, "pitch": 62, "duration": 10, "velocity": 60}, {"time": 60236, "pitch": 70, "duration": 10, "velocity": 30}, {"time": 60236, "pitch": 75, "duration": 10, "velocity": 120}, {"time": 60236, "pitch": 82, "duration": 10, "velocity": 30}, {"time": 60475, "pitch": 42, "duration": 10, "velocity": 64}, {"time": 60475, "pitch": 62, "duration": 10, "velocity": 50}, {"time": 60475, "pitch": 70, "duration": 10, "velocity": 50}, {"time": 60475, "pitch": 82, "duration": 10, "velocity": 100}, {"time": 60720, "pitch": 36, "duration": 10, "velocity": 92}, {"time": 60720, "pitch": 42, "duration": 10, "velocity": 36}, {"time": 60720, "pitch": 60, "duration": 10, "velocity": 100}, {"time": 60720, "pitch": 70, "duration": 10, "velocity": 30}, {"time": 60720, "pitch": 82, "duration": 10, "velocity": 30}, {"time": 60965, "pitch": 36, "duration": 10, "velocity": 92}, {"time": 60965, "pitch": 42, "duration": 10, "velocity": 64}, {"time": 60965, "pitch": 62, "duration": 10, "velocity": 60}, {"time": 60965, "pitch": 70, "duration": 10, "velocity": 50}, {"time": 60965, "pitch": 75, "duration": 10, "velocity": 120}, {"time": 60965, "pitch": 82, "duration": 10, "velocity": 60}, {"time": 61204, "pitch": 42, "duration": 10, "velocity": 36}, {"time": 61204, "pitch": 62, "duration": 10, "velocity": 50}, {"time": 61204, "pitch": 70, "duration": 10, "velocity": 30}, {"time": 61204, "pitch": 82, "duration": 10, "velocity": 30}, {"time": 61443, "pitch": 42, "duration": 10, "velocity": 64}, {"time": 61443, "pitch": 60, "duration": 10, "velocity": 100}, {"time": 61443, "pitch": 70, "duration": 10, "velocity": 50}, {"time": 61443, "pitch": 75, "duration": 10, "velocity": 120}, {"time": 61443, "pitch": 82, "duration": 10, "velocity": 100}, {"time": 61682, "pitch": 36, "duration": 10, "velocity": 92}, {"time": 61682, "pitch": 42, "duration": 10, "velocity": 36}, {"time": 61682, "pitch": 62, "duration": 10, "velocity": 60}, {"time": 61682, "pitch": 70, "duration": 10, "velocity": 30}, {"time": 61682, "pitch": 82, "duration": 10, "velocity": 30}, {"time": 61922, "pitch": 36, "duration": 9, "velocity": 92}, {"time": 61922, "pitch": 42, "duration": 9, "velocity": 64}, {"time": 61922, "pitch": 62, "duration": 9, "velocity": 60}, {"time": 61922, "pitch": 70, "duration": 9, "velocity": 50}, {"time": 61922, "pitch": 75, "duration": 9, "velocity": 120}, {"time": 61922, "pitch": 82, "duration": 9, "velocity": 60}, {"time": 62161, "pitch": 42, "duration": 10, "velocity": 36}, {"time": 62161, "pitch": 62, "duration": 10, "velocity": 50}, {"time": 62161, "pitch": 70, "duration": 10, "velocity": 30}, {"time": 62161, "pitch": 82, "duration": 10, "velocity": 30}, {"time": 62400, "pitch": 42, "duration": 10, "velocity": 64}, {"time": 62400, "pitch": 60, "duration": 10, "velocity": 100}, {"time": 62400, "pitch": 70, "duration": 10, "velocity": 50}, {"time": 62400, "pitch": 82, "duration": 10, "velocity": 100}, {"time": 62639, "pitch": 36, "duration": 10, "velocity": 92}, {"time": 62639, "pitch": 42, "duration": 10, "velocity": 36}, {"time": 62639, "pitch": 62, "duration": 10, "velocity": 60}, {"time": 62639, "pitch": 70, "duration": 10, "velocity": 30}, {"time": 62639, "pitch": 75, "duration": 10, "velocity": 120}, {"time": 62639, "pitch": 82, "duration": 10, "velocity": 30}, {"time": 62878, "pitch": 36, "duration": 10, "velocity": 92}, {"time": 62878, "pitch": 42, "duration": 10, "velocity": 64}, {"time": 62878, "pitch": 62, "duration": 10, "velocity": 50}, {"time": 62878, "pitch": 70, "duration": 10, "velocity": 50}, {"time": 62878, "pitch": 82, "duration": 10, "velocity": 60}, {"time": 63118, "pitch": 42, "duration": 10, "velocity": 36}, {"time": 63118, "pitch": 60, "duration": 10, "velocity": 100}, {"time": 63118, "pitch": 70, "duration": 10, "velocity": 30}, {"time": 63118, "pitch": 82, "duration": 10, "velocity": 30}, {"time": 63357, "pitch": 42, "duration": 10, "velocity": 64}, {"time": 63357, "pitch": 62, "duration": 10, "velocity": 60}, {"time": 63357, "pitch": 70, "duration": 10, "velocity": 50}, {"time": 63357, "pitch": 75, "duration": 10, "velocity": 120}, {"time": 63357, "pitch": 82, "duration": 10, "velocity": 100}, {"time": 63596, "pitch": 36, "duration": 10, "velocity": 92}, {"time": 63596, "pitch": 42, "duration": 10, "velocity": 36}, {"time": 63596, "pitch": 62, "duration": 10, "velocity": 50}, {"time": 63596, "pitch": 70, "duration": 10, "velocity": 30}, {"time": 63596, "pitch": 82, "duration": 10, "velocity": 30}, {"time": 63835, "pitch": 36, "duration": 10, "velocity": 92}, {"time": 63835, "pitch": 42, "duration": 10, "velocity": 64}, {"time": 63835, "pitch": 60, "duration": 10, "velocity": 100}, {"time": 63835, "pitch": 70, "duration": 10, "velocity": 50}, {"time": 63835, "pitch": 82, "duration": 10, "velocity": 60}, {"time": 64080, "pitch": 42, "duration": 10, "velocity": 36}, {"time": 64080, "pitch": 62, "duration": 10, "velocity": 60}, {"time": 64080, "pitch": 70, "duration": 10, "velocity": 30}, {"time": 64080, "pitch": 75, "duration": 10, "velocity": 120}, {"time": 64080, "pitch": 82, "duration": 10, "velocity": 30}, {"time": 64325, "pitch": 42, "duration": 10, "velocity": 64}, {"time": 64325, "pitch": 62, "duration": 10, "velocity": 50}, {"time": 64325, "pitch": 70, "duration": 10, "velocity": 50}, {"time": 64325, "pitch": 82, "duration": 10, "velocity": 100}, {"time": 64564, "pitch": 36, "duration": 10, "velocity": 92}, {"time": 64564, "pitch": 42, "duration": 10, "velocity": 36}, {"time": 64564, "pitch": 60, "duration": 10, "velocity": 100}, {"time": 64564, "pitch": 70, "duration": 10, "velocity": 30}, {"time": 64564, "pitch": 82, "duration": 10, "velocity": 30}, {"time": 64803, "pitch": 36, "duration": 10, "velocity": 92}, {"time": 64803, "pitch": 42, "duration": 10, "velocity": 64}, {"time": 64803, "pitch": 62, "duration": 10, "velocity": 60}, {"time": 64803, "pitch": 70, "duration": 10, "velocity": 50}, {"time": 64803, "pitch": 75, "duration": 10, "velocity": 120}, {"time": 64803, "pitch": 82, "duration": 10, "velocity": 60}, {"time": 65042, "pitch": 42, "duration": 10, "velocity": 36}, {"time": 65042, "pitch": 62, "duration": 10, "velocity": 50}, {"time": 65042, "pitch": 70, "duration": 10, "velocity": 30}, {"time": 65042, "pitch": 82, "duration": 10, "velocity": 30}, {"time": 65282, "pitch": 42, "duration": 9, "velocity": 64}, {"time": 65282, "pitch": 60, "duration": 9, "velocity": 100}, {"time": 65282, "pitch": 70, "duration": 9, "velocity": 50}, {"time": 65282, "pitch": 75, "duration": 9, "velocity": 120}, {"time": 65282, "pitch": 82, "duration": 9, "velocity": 100}, {"time": 65521, "pitch": 36, "duration": 10, "velocity": 92}, {"time": 65521, "pitch": 42, "duration": 10, "velocity": 36}, {"time": 65521, "pitch": 62, "duration": 10, "velocity": 60}, {"time": 65521, "pitch": 70, "duration": 10, "velocity": 30}, {"time": 65521, "pitch": 82, "duration": 10, "velocity": 30}, {"time": 65760, "pitch": 36, "duration": 10, "velocity": 92}, {"time": 65760, "pitch": 42, "duration": 10, "velocity": 64}, {"time": 65760, "pitch": 62, "duration": 10, "velocity": 60}, {"time": 65760, "pitch": 70, "duration": 10, "velocity": 50}, {"time": 65760, "pitch": 75, "duration": 10, "velocity": 120}, {"time": 65760, "pitch": 82, "duration": 10, "velocity": 60}, {"time": 65999, "pitch": 42, "duration": 10, "velocity": 36}, {"time": 65999, "pitch": 62, "duration": 10, "velocity": 50}, {"time": 65999, "pitch": 70, "duration": 10, "velocity": 30}, {"time": 65999, "pitch": 82, "duration": 10, "velocity": 30}, {"time": 66238, "pitch": 42, "duration": 10, "velocity": 64}, {"time": 66238, "pitch": 60, "duration": 10, "velocity": 100}, {"time": 66238, "pitch": 70, "duration": 10, "velocity": 50}, {"time": 66238, "pitch": 82, "duration": 10, "velocity": 100}, {"time": 66478, "pitch": 36, "duration": 10, "velocity": 92}, {"time": 66478, "pitch": 42, "duration": 10, "velocity": 36}, {"time": 66478, "pitch": 62, "duration": 10, "velocity": 60}, {"time": 66478, "pitch": 70, "duration": 10, "velocity": 30}, {"time": 66478, "pitch": 75, "duration": 10, "velocity": 120}, {"time": 66478, "pitch": 82, "duration": 10, "velocity": 30}, {"time": 66717, "pitch": 36, "duration": 10, "velocity": 92}, {"time": 66717, "pitch": 42, "duration": 10, "velocity": 64}, {"time": 66717, "pitch": 62, "duration": 10, "velocity": 50}, {"time": 66717, "pitch": 70, "duration": 10, "velocity": 50}, {"time": 66717, "pitch": 82, "duration": 10, "velocity": 60}, {"time": 66956, "pitch": 42, "duration": 10, "velocity": 36}, {"time": 66956, "pitch": 60, "duration": 10, "velocity": 100}, {"time": 66956, "pitch": 70, "duration": 10, "velocity": 30}, {"time": 66956, "pitch": 82, "duration": 10, "velocity": 30}, {"time": 67195, "pitch": 42, "duration": 10, "velocity": 64}, {"time": 67195, "pitch": 62, "duration": 10, "velocity": 60}, {"time": 67195, "pitch": 70, "duration": 10, "velocity": 50}, {"time": 67195, "pitch": 75, "duration": 10, "velocity": 120}, {"time": 67195, "pitch": 82, "duration": 10, "velocity": 100}, {"time": 67440, "pitch": 36, "duration": 10, "velocity": 92}, {"time": 67440, "pitch": 42, "duration": 10, "velocity": 36}, {"time": 67440, "pitch": 62, "duration": 10, "velocity": 50}, {"time": 67440, "pitch": 70, "duration": 10, "velocity": 30}, {"time": 67440, "pitch": 82, "duration": 10, "velocity": 30}, {"time": 67685, "pitch": 36, "duration": 10, "velocity": 92}, {"time": 67685, "pitch": 42, "duration": 10, "velocity": 64}, {"time": 67685, "pitch": 60, "duration": 10, "velocity": 100}, {"time": 67685, "pitch": 70, "duration": 10, "velocity": 50}, {"time": 67685, "pitch": 82, "duration": 10, "velocity": 60}, {"time": 67924, "pitch": 42, "duration": 10, "velocity": 36}, {"time": 67924, "pitch": 62, "duration": 10, "velocity": 60}, {"time": 67924, "pitch": 70, "duration": 10, "velocity": 30}, {"time": 67924, "pitch": 75, "duration": 10, "velocity": 120}, {"time": 67924, "pitch": 82, "duration": 10, "velocity": 30}, {"time": 68163, "pitch": 42, "duration": 10, "velocity": 64}, {"time": 68163, "pitch": 62, "duration": 10, "velocity": 50}, {"time": 68163, "pitch": 70, "duration": 10, "velocity": 50}, {"time": 68163, "pitch": 82, "duration": 10, "velocity": 100}, {"time": 68402, "pitch": 36, "duration": 10, "velocity": 92}, {"time": 68402, "pitch": 42, "duration": 10, "velocity": 36}, {"time": 68402, "pitch": 60, "duration": 10, "velocity": 100}, {"time": 68402, "pitch": 70, "duration": 10, "velocity": 30}, {"time": 68402, "pitch": 82, "duration": 10, "velocity": 30}, {"time": 68642, "pitch": 36, "duration": 9, "velocity": 92}, {"time": 68642, "pitch": 42, "duration": 9, "velocity": 64}, {"time": 68642, "pitch": 62, "duration": 9, "velocity": 60}, {"time": 68642, "pitch": 70, "duration": 9, "velocity": 50}, {"time": 68642, "pitch": 75, "duration": 9, "velocity": 120}, {"time": 68642, "pitch": 82, "duration": 9, "velocity": 60}, {"time": 68881, "pitch": 42, "duration": 10, "velocity": 36}, {"time": 68881, "pitch": 62, "duration": 10, "velocity": 50}, {"time": 68881, "pitch": 70, "duration": 10, "velocity": 30}, {"time": 68881, "pitch": 82, "duration": 10, "velocity": 30}, {"time": 69120, "pitch": 42, "duration": 10, "velocity": 64}, {"time": 69120, "pitch": 60, "duration": 10, "velocity": 100}, {"time": 69120, "pitch": 70, "duration": 10, "velocity": 50}, {"time": 69120, "pitch": 75, "duration": 10, "velocity": 120}, {"time": 69120, "pitch": 82, "duration": 10, "velocity": 100}, {"time": 69359, "pitch": 36, "duration": 10, "velocity": 92}, {"time": 69359, "pitch": 42, "duration": 10, "velocity": 36}, {"time": 69359, "pitch": 62, "duration": 10, "velocity": 60}, {"time": 69359, "pitch": 70, "duration": 10, "velocity": 30}, {"time": 69359, "pitch": 82, "duration": 10, "velocity": 30}, {"time": 69598, "pitch": 36, "duration": 10, "velocity": 92}, {"time": 69598, "pitch": 42, "duration": 10, "velocity": 64}, {"time": 69598, "pitch": 62, "duration": 10, "velocity": 60}, {"time": 69598, "pitch": 70, "duration": 10, "velocity": 50}, {"time": 69598, "pitch": 75, "duration": 10, "velocity": 120}, {"time": 69598, "pitch": 82, "duration": 10, "velocity": 60}, {"time": 69838, "pitch": 42, "duration": 10, "velocity": 36}, {"time": 69838, "pitch": 62, "duration": 10, "velocity": 50}, {"time": 69838, "pitch": 70, "duration": 10, "velocity": 30}, {"time": 69838, "pitch": 82, "duration": 10, "velocity": 30}, {"time": 70077, "pitch": 42, "duration": 10, "velocity": 64}, {"time": 70077, "pitch": 60, "duration": 10, "velocity": 100}, {"time": 70077, "pitch": 70, "duration": 10, "velocity": 50}, {"time": 70077, "pitch": 82, "duration": 10, "velocity": 100}, {"time": 70316, "pitch": 36, "duration": 10, "velocity": 92}, {"time": 70316, "pitch": 42, "duration": 10, "velocity": 36}, {"time": 70316, "pitch": 62, "duration": 10, "velocity": 60}, {"time": 70316, "pitch": 70, "duration": 10, "velocity": 30}, {"time": 70316, "pitch": 75, "duration": 10, "velocity": 120}, {"time": 70316, "pitch": 82, "duration": 10, "velocity": 30}, {"time": 70555, "pitch": 36, "duration": 10, "velocity": 92}, {"time": 70555, "pitch": 42, "duration": 10, "velocity": 64}, {"time": 70555, "pitch": 62, "duration": 10, "velocity": 50}, {"time": 70555, "pitch": 70, "duration": 10, "velocity": 50}, {"time": 70555, "pitch": 82, "duration": 10, "velocity": 60}, {"time": 70800, "pitch": 42, "duration": 10, "velocity": 36}, {"time": 70800, "pitch": 60, "duration": 10, "velocity": 100}, {"time": 70800, "pitch": 70, "duration": 10, "velocity": 30}, {"time": 70800, "pitch": 82, "duration": 10, "velocity": 30}, {"time": 71045, "pitch": 42, "duration": 10, "velocity": 64}, {"time": 71045, "pitch": 62, "duration": 10, "velocity": 60}, {"time": 71045, "pitch": 70, "duration": 10, "velocity": 50}, {"time": 71045, "pitch": 75, "duration": 10, "velocity": 120}, {"time": 71045, "pitch": 82, "duration": 10, "velocity": 100}, {"time": 71284, "pitch": 36, "duration": 10, "velocity": 92}, {"time": 71284, "pitch": 42, "duration": 10, "velocity": 36}, {"time": 71284, "pitch": 62, "duration": 10, "velocity": 50}, {"time": 71284, "pitch": 70, "duration": 10, "velocity": 30}, {"time": 71284, "pitch": 82, "duration": 10, "velocity": 30}, {"time": 71523, "pitch": 36, "duration": 10, "velocity": 92}, {"time": 71523, "pitch": 42, "duration": 10, "velocity": 64}, {"time": 71523, "pitch": 60, "duration": 10, "velocity": 100}, {"time": 71523, "pitch": 70, "duration": 10, "velocity": 50}, {"time": 71523, "pitch": 82, "duration": 10, "velocity": 60}, {"time": 71762, "pitch": 42, "duration": 10, "velocity": 36}, {"time": 71762, "pitch": 62, "duration": 10, "velocity": 60}, {"time": 71762, "pitch": 70, "duration": 10, "velocity": 30}, {"time": 71762, "pitch": 75, "duration": 10, "velocity": 120}, {"time": 71762, "pitch": 82, "duration": 10, "velocity": 30}, {"time": 72002, "pitch": 42, "duration": 9, "velocity": 64}, {"time": 72002, "pitch": 62, "duration": 9, "velocity": 50}, {"time": 72002, "pitch": 70, "duration": 9, "velocity": 50}, {"time": 72002, "pitch": 82, "duration": 9, "velocity": 100}, {"time": 72241, "pitch": 36, "duration": 10, "velocity": 92}, {"time": 72241, "pitch": 42, "duration": 10, "velocity": 36}, {"time": 72241, "pitch": 60, "duration": 10, "velocity": 100}, {"time": 72241, "pitch": 70, "duration": 10, "velocity": 30}, {"time": 72241, "pitch": 82, "duration": 10, "velocity": 30}, {"time": 72480, "pitch": 36, "duration": 10, "velocity": 92}, {"time": 72480, "pitch": 42, "duration": 10, "velocity": 64}, {"time": 72480, "pitch": 62, "duration": 10, "velocity": 60}, {"time": 72480, "pitch": 70, "duration": 10, "velocity": 50}, {"time": 72480, "pitch": 75, "duration": 10, "velocity": 120}, {"time": 72480, "pitch": 82, "duration": 10, "velocity": 60}, {"time": 72719, "pitch": 42, "duration": 10, "velocity": 36}, {"time": 72719, "pitch": 62, "duration": 10, "velocity": 50}, {"time": 72719, "pitch": 70, "duration": 10, "velocity": 30}, {"time": 72719, "pitch": 82, "duration": 10, "velocity": 30}, {"time": 72958, "pitch": 42, "duration": 10, "velocity": 64}, {"time": 72958, "pitch": 60, "duration": 10, "velocity": 100}, {"time": 72958, "pitch": 70, "duration": 10, "velocity": 50}, {"time": 72958, "pitch": 75, "duration": 10, "velocity": 120}, {"time": 72958, "pitch": 82, "duration": 10, "velocity": 100}, {"time": 73198, "pitch": 36, "duration": 10, "velocity": 92}, {"time": 73198, "pitch": 42, "duration": 10, "velocity": 36}, {"time": 73198, "pitch": 62, "duration": 10, "velocity": 60}, {"time": 73198, "pitch": 70, "duration": 10, "velocity": 30}, {"time": 73198, "pitch": 82, "duration": 10, "velocity": 30}, {"time": 73437, "pitch": 36, "duration": 10, "velocity": 92}, {"time": 73437, "pitch": 42, "duration": 10, "velocity": 64}, {"time": 73437, "pitch": 62, "duration": 10, "velocity": 60}, {"time": 73437, "pitch": 70, "duration": 10, "velocity": 50}, {"time": 73437, "pitch": 75, "duration": 10, "velocity": 120}, {"time": 73437, "pitch": 82, "duration": 10, "velocity": 60}, {"time": 73676, "pitch": 42, "duration": 10, "velocity": 36}, {"time": 73676, "pitch": 62, "duration": 10, "velocity": 50}, {"time": 73676, "pitch": 70, "duration": 10, "velocity": 30}, {"time": 73676, "pitch": 82, "duration": 10, "velocity": 30}, {"time": 73915, "pitch": 42, "duration": 10, "velocity": 64}, {"time": 73915, "pitch": 60, "duration": 10, "velocity": 100}, {"time": 73915, "pitch": 70, "duration": 10, "velocity": 50}, {"time": 73915, "pitch": 82, "duration": 10, "velocity": 100}, {"time": 74160, "pitch": 36, "duration": 10, "velocity": 92}, {"time": 74160, "pitch": 42, "duration": 10, "velocity": 36}, {"time": 74160, "pitch": 62, "duration": 10, "velocity": 60}, {"time": 74160, "pitch": 70, "duration": 10, "velocity": 30}, {"time": 74160, "pitch": 75, "duration": 10, "velocity": 120}, {"time": 74160, "pitch": 82, "duration": 10, "velocity": 30}, {"time": 74405, "pitch": 36, "duration": 10, "velocity": 92}, {"time": 74405, "pitch": 42, "duration": 10, "velocity": 64}, {"time": 74405, "pitch": 62, "duration": 10, "velocity": 50}, {"time": 74405, "pitch": 70, "duration": 10, "velocity": 50}, {"time": 74405, "pitch": 82, "duration": 10, "velocity": 60}, {"time": 74644, "pitch": 42, "duration": 10, "velocity": 36}, {"time": 74644, "pitch": 60, "duration": 10, "velocity": 100}, {"time": 74644, "pitch": 70, "duration": 10, "velocity": 30}, {"time": 74644, "pitch": 82, "duration": 10, "velocity": 30}, {"time": 74883, "pitch": 42, "duration": 10, "velocity": 64}, {"time": 74883, "pitch": 62, "duration": 10, "velocity": 60}, {"time": 74883, "pitch": 70, "duration": 10, "velocity": 50}, {"time": 74883, "pitch": 75, "duration": 10, "velocity": 120}, {"time": 74883, "pitch": 82, "duration": 10, "velocity": 100}, {"time": 75122, "pitch": 36, "duration": 10, "velocity": 92}, {"time": 75122, "pitch": 42, "duration": 10, "velocity": 36}, {"time": 75122, "pitch": 62, "duration": 10, "velocity": 50}, {"time": 75122, "pitch": 70, "duration": 10, "velocity": 30}, {"time": 75122, "pitch": 82, "duration": 10, "velocity": 30}, {"time": 75362, "pitch": 36, "duration": 9, "velocity": 92}, {"time": 75362, "pitch": 42, "duration": 9, "velocity": 64}, {"time": 75362, "pitch": 60, "duration": 9, "velocity": 100}, {"time": 75362, "pitch": 70, "duration": 9, "velocity": 50}, {"time": 75362, "pitch": 82, "duration": 9, "velocity": 60}, {"time": 75601, "pitch": 42, "duration": 10, "velocity": 36}, {"time": 75601, "pitch": 62, "duration": 10, "velocity": 60}, {"time": 75601, "pitch": 70, "duration": 10, "velocity": 30}, {"time": 75601, "pitch": 75, "duration": 10, "velocity": 120}, {"time": 75601, "pitch": 82, "duration": 10, "velocity": 30}, {"time": 75840, "pitch": 42, "duration": 10, "velocity": 64}, {"time": 75840, "pitch": 62, "duration": 10, "velocity": 50}, {"time": 75840, "pitch": 70, "duration": 10, "velocity": 50}, {"time": 75840, "pitch": 82, "duration": 10, "velocity": 100}, {"time": 76079, "pitch": 36, "duration": 10, "velocity": 92}, {"time": 76079, "pitch": 42, "duration": 10, "velocity": 36}, {"time": 76079, "pitch": 60, "duration": 10, "velocity": 100}, {"time": 76079, "pitch": 70, "duration": 10, "velocity": 30}, {"time": 76079, "pitch": 82, "duration": 10, "velocity": 30}, {"time": 76318, "pitch": 36, "duration": 10, "velocity": 92}, {"time": 76318, "pitch": 42, "duration": 10, "velocity": 64}, {"time": 76318, "pitch": 62, "duration": 10, "velocity": 60}, {"time": 76318, "pitch": 70, "duration": 10, "velocity": 50}, {"time": 76318, "pitch": 75, "duration": 10, "velocity": 120}, {"time": 76318, "pitch": 82, "duration": 10, "velocity": 60}, {"time": 76558, "pitch": 42, "duration": 9, "velocity": 36}, {"time": 76558, "pitch": 62, "duration": 9, "velocity": 50}, {"time": 76558, "pitch": 70, "duration": 9, "velocity": 30}, {"time": 76558, "pitch": 82, "duration": 9, "velocity": 30}, {"time": 76797, "pitch": 42, "duration": 10, "velocity": 64}, {"time": 76797, "pitch": 60, "duration": 10, "velocity": 100}, {"time": 76797, "pitch": 70, "duration": 10, "velocity": 50}, {"time": 76797, "pitch": 75, "duration": 10, "velocity": 120}, {"time": 76797, "pitch": 82, "duration": 10, "velocity": 100}, {"time": 77036, "pitch": 36, "duration": 10, "velocity": 92}, {"time": 77036, "pitch": 42, "duration": 10, "velocity": 36}, {"time": 77036, "pitch": 62, "duration": 10, "velocity": 60}, {"time": 77036, "pitch": 70, "duration": 10, "velocity": 30}, {"time": 77036, "pitch": 82, "duration": 10, "velocity": 30}, {"time": 77275, "pitch": 36, "duration": 10, "velocity": 92}, {"time": 77275, "pitch": 42, "duration": 10, "velocity": 64}, {"time": 77275, "pitch": 62, "duration": 10, "velocity": 60}, {"time": 77275, "pitch": 70, "duration": 10, "velocity": 50}, {"time": 77275, "pitch": 75, "duration": 10, "velocity": 120}, {"time": 77275, "pitch": 82, "duration": 10, "velocity": 60}, {"time": 77520, "pitch": 42, "duration": 10, "velocity": 36}, {"time": 77520, "pitch": 62, "duration": 10, "velocity": 50}, {"time": 77520, "pitch": 70, "duration": 10, "velocity": 30}, {"time": 77520, "pitch": 82, "duration": 10, "velocity": 30}, {"time": 77765, "pitch": 42, "duration": 10, "velocity": 64}, {"time": 77765, "pitch": 60, "duration": 10, "velocity": 100}, {"time": 77765, "pitch": 70, "duration": 10, "velocity": 50}, {"time": 77765, "pitch": 82, "duration": 10, "velocity": 100}, {"time": 78004, "pitch": 36, "duration": 10, "velocity": 92}, {"time": 78004, "pitch": 42, "duration": 10, "velocity": 36}, {"time": 78004, "pitch": 62, "duration": 10, "velocity": 60}, {"time": 78004, "pitch": 70, "duration": 10, "velocity": 30}, {"time": 78004, "pitch": 75, "duration": 10, "velocity": 120}, {"time": 78004, "pitch": 82, "duration": 10, "velocity": 30}, {"time": 78243, "pitch": 36, "duration": 10, "velocity": 92}, {"time": 78243, "pitch": 42, "duration": 10, "velocity": 64}, {"time": 78243, "pitch": 62, "duration": 10, "velocity": 50}, {"time": 78243, "pitch": 70, "duration": 10, "velocity": 50}, {"time": 78243, "pitch": 82, "duration": 10, "velocity": 60}, {"time": 78482, "pitch": 42, "duration": 10, "velocity": 36}, {"time": 78482, "pitch": 60, "duration": 10, "velocity": 100}, {"time": 78482, "pitch": 70, "duration": 10, "velocity": 30}, {"time": 78482, "pitch": 82, "duration": 10, "velocity": 30}, {"time": 78722, "pitch": 42, "duration": 9, "velocity": 64}, {"time": 78722, "pitch": 62, "duration": 9, "velocity": 60}, {"time": 78722, "pitch": 70, "duration": 9, "velocity": 50}, {"time": 78722, "pitch": 75, "duration": 9, "velocity": 120}, {"time": 78722, "pitch": 82, "duration": 9, "velocity": 100}, {"time": 78961, "pitch": 36, "duration": 10, "velocity": 92}, {"time": 78961, "pitch": 42, "duration": 10, "velocity": 36}, {"time": 78961, "pitch": 62, "duration": 10, "velocity": 50}, {"time": 78961, "pitch": 70, "duration": 10, "velocity": 30}, {"time": 78961, "pitch": 82, "duration": 10, "velocity": 30}, {"time": 79200, "pitch": 36, "duration": 10, "velocity": 92}, {"time": 79200, "pitch": 42, "duration": 10, "velocity": 64}, {"time": 79200, "pitch": 60, "duration": 10, "velocity": 100}, {"time": 79200, "pitch": 70, "duration": 10, "velocity": 50}, {"time": 79200, "pitch": 82, "duration": 10, "velocity": 60}, {"time": 79439, "pitch": 42, "duration": 10, "velocity": 36}, {"time": 79439, "pitch": 62, "duration": 10, "velocity": 60}, {"time": 79439, "pitch": 70, "duration": 10, "velocity": 30}, {"time": 79439, "pitch": 75, "duration": 10, "velocity": 120}, {"time": 79439, "pitch": 82, "duration": 10, "velocity": 30}, {"time": 79678, "pitch": 42, "duration": 10, "velocity": 64}, {"time": 79678, "pitch": 62, "duration": 10, "velocity": 50}, {"time": 79678, "pitch": 70, "duration": 10, "velocity": 50}, {"time": 79678, "pitch": 82, "duration": 10, "velocity": 100}, {"time": 79918, "pitch": 36, "duration": 9, "velocity": 92}, {"time": 79918, "pitch": 42, "duration": 9, "velocity": 36}, {"time": 79918, "pitch": 60, "duration": 9, "velocity": 100}, {"time": 79918, "pitch": 70, "duration": 9, "velocity": 30}, {"time": 79918, "pitch": 82, "duration": 9, "velocity": 30}, {"time": 80157, "pitch": 36, "duration": 10, "velocity": 92}, {"time": 80157, "pitch": 42, "duration": 10, "velocity": 64}, {"time": 80157, "pitch": 62, "duration": 10, "velocity": 60}, {"time": 80157, "pitch": 70, "duration": 10, "velocity": 50}, {"time": 80157, "pitch": 75, "duration": 10, "velocity": 120}, {"time": 80157, "pitch": 82, "duration": 10, "velocity": 60}, {"time": 80396, "pitch": 42, "duration": 10, "velocity": 36}, {"time": 80396, "pitch": 62, "duration": 10, "velocity": 50}, {"time": 80396, "pitch": 70, "duration": 10, "velocity": 30}, {"time": 80396, "pitch": 82, "duration": 10, "velocity": 30}, {"time": 80635, "pitch": 42, "duration": 10, "velocity": 64}, {"time": 80635, "pitch": 60, "duration": 10, "velocity": 100}, {"time": 80635, "pitch": 70, "duration": 10, "velocity": 50}, {"time": 80635, "pitch": 75, "duration": 10, "velocity": 120}, {"time": 80635, "pitch": 82, "duration": 10, "velocity": 100}, {"time": 80880, "pitch": 36, "duration": 10, "velocity": 92}, {"time": 80880, "pitch": 42, "duration": 10, "velocity": 36}, {"time": 80880, "pitch": 62, "duration": 10, "velocity": 60}, {"time": 80880, "pitch": 70, "duration": 10, "velocity": 30}, {"time": 80880, "pitch": 82, "duration": 10, "velocity": 30}, {"time": 81125, "pitch": 36, "duration": 10, "velocity": 92}, {"time": 81125, "pitch": 42, "duration": 10, "velocity": 64}, {"time": 81125, "pitch": 62, "duration": 10, "velocity": 60}, {"time": 81125, "pitch": 70, "duration": 10, "velocity": 50}, {"time": 81125, "pitch": 75, "duration": 10, "velocity": 120}, {"time": 81125, "pitch": 82, "duration": 10, "velocity": 60}, {"time": 81364, "pitch": 42, "duration": 10, "velocity": 36}, {"time": 81364, "pitch": 62, "duration": 10, "velocity": 50}, {"time": 81364, "pitch": 70, "duration": 10, "velocity": 30}, {"time": 81364, "pitch": 82, "duration": 10, "velocity": 30}, {"time": 81603, "pitch": 42, "duration": 10, "velocity": 64}, {"time": 81603, "pitch": 60, "duration": 10, "velocity": 100}, {"time": 81603, "pitch": 70, "duration": 10, "velocity": 50}, {"time": 81603, "pitch": 82, "duration": 10, "velocity": 100}, {"time": 81842, "pitch": 36, "duration": 10, "velocity": 92}, {"time": 81842, "pitch": 42, "duration": 10, "velocity": 36}, {"time": 81842, "pitch": 62, "duration": 10, "velocity": 60}, {"time": 81842, "pitch": 70, "duration": 10, "velocity": 30}, {"time": 81842, "pitch": 75, "duration": 10, "velocity": 120}, {"time": 81842, "pitch": 82, "duration": 10, "velocity": 30}, {"time": 82082, "pitch": 36, "duration": 9, "velocity": 92}, {"time": 82082, "pitch": 42, "duration": 9, "velocity": 64}, {"time": 82082, "pitch": 62, "duration": 9, "velocity": 50}, {"time": 82082, "pitch": 70, "duration": 9, "velocity": 50}, {"time": 82082, "pitch": 82, "duration": 9, "velocity": 60}, {"time": 82321, "pitch": 42, "duration": 10, "velocity": 36}, {"time": 82321, "pitch": 60, "duration": 10, "velocity": 100}, {"time": 82321, "pitch": 70, "duration": 10, "velocity": 30}, {"time": 82321, "pitch": 82, "duration": 10, "velocity": 30}, {"time": 82560, "pitch": 42, "duration": 10, "velocity": 64}, {"time": 82560, "pitch": 62, "duration": 10, "velocity": 60}, {"time": 82560, "pitch": 70, "duration": 10, "velocity": 50}, {"time": 82560, "pitch": 75, "duration": 10, "velocity": 120}, {"time": 82560, "pitch": 82, "duration": 10, "velocity": 100}, {"time": 82799, "pitch": 36, "duration": 10, "velocity": 92}, {"time": 82799, "pitch": 42, "duration": 10, "velocity": 36}, {"time": 82799, "pitch": 62, "duration": 10, "velocity": 50}, {"time": 82799, "pitch": 70, "duration": 10, "velocity": 30}, {"time": 82799, "pitch": 82, "duration": 10, "velocity": 30}, {"time": 83038, "pitch": 36, "duration": 10, "velocity": 92}, {"time": 83038, "pitch": 42, "duration": 10, "velocity": 64}, {"time": 83038, "pitch": 60, "duration": 10, "velocity": 100}, {"time": 83038, "pitch": 70, "duration": 10, "velocity": 50}, {"time": 83038, "pitch": 82, "duration": 10, "velocity": 60}, {"time": 83278, "pitch": 42, "duration": 9, "velocity": 36}, {"time": 83278, "pitch": 62, "duration": 9, "velocity": 60}, {"time": 83278, "pitch": 70, "duration": 9, "velocity": 30}, {"time": 83278, "pitch": 75, "duration": 9, "velocity": 120}, {"time": 83278, "pitch": 82, "duration": 9, "velocity": 30}, {"time": 83517, "pitch": 42, "duration": 10, "velocity": 64}, {"time": 83517, "pitch": 62, "duration": 10, "velocity": 50}, {"time": 83517, "pitch": 70, "duration": 10, "velocity": 50}, {"time": 83517, "pitch": 82, "duration": 10, "velocity": 100}, {"time": 83756, "pitch": 36, "duration": 10, "velocity": 92}, {"time": 83756, "pitch": 42, "duration": 10, "velocity": 36}, {"time": 83756, "pitch": 60, "duration": 10, "velocity": 100}, {"time": 83756, "pitch": 70, "duration": 10, "velocity": 30}, {"time": 83756, "pitch": 82, "duration": 10, "velocity": 30}, {"time": 83995, "pitch": 36, "duration": 10, "velocity": 92}, {"time": 83995, "pitch": 42, "duration": 10, "velocity": 64}, {"time": 83995, "pitch": 62, "duration": 10, "velocity": 60}, {"time": 83995, "pitch": 70, "duration": 10, "velocity": 50}, {"time": 83995, "pitch": 75, "duration": 10, "velocity": 120}, {"time": 83995, "pitch": 82, "duration": 10, "velocity": 60}, {"time": 84240, "pitch": 42, "duration": 10, "velocity": 36}, {"time": 84240, "pitch": 62, "duration": 10, "velocity": 50}, {"time": 84240, "pitch": 70, "duration": 10, "velocity": 30}, {"time": 84240, "pitch": 82, "duration": 10, "velocity": 30}, {"time": 84485, "pitch": 42, "duration": 10, "velocity": 64}, {"time": 84485, "pitch": 60, "duration": 10, "velocity": 100}, {"time": 84485, "pitch": 70, "duration": 10, "velocity": 50}, {"time": 84485, "pitch": 75, "duration": 10, "velocity": 120}, {"time": 84485, "pitch": 82, "duration": 10, "velocity": 100}, {"time": 84724, "pitch": 36, "duration": 10, "velocity": 92}, {"time": 84724, "pitch": 42, "duration": 10, "velocity": 36}, {"time": 84724, "pitch": 62, "duration": 10, "velocity": 60}, {"time": 84724, "pitch": 70, "duration": 10, "velocity": 30}, {"time": 84724, "pitch": 82, "duration": 10, "velocity": 30}, {"time": 84963, "pitch": 36, "duration": 10, "velocity": 92}, {"time": 84963, "pitch": 42, "duration": 10, "velocity": 64}, {"time": 84963, "pitch": 62, "duration": 10, "velocity": 60}, {"time": 84963, "pitch": 70, "duration": 10, "velocity": 50}, {"time": 84963, "pitch": 75, "duration": 10, "velocity": 120}, {"time": 84963, "pitch": 82, "duration": 10, "velocity": 60}, {"time": 85202, "pitch": 42, "duration": 10, "velocity": 36}, {"time": 85202, "pitch": 62, "duration": 10, "velocity": 50}, {"time": 85202, "pitch": 70, "duration": 10, "velocity": 30}, {"time": 85202, "pitch": 82, "duration": 10, "velocity": 30}, {"time": 85442, "pitch": 42, "duration": 9, "velocity": 64}, {"time": 85442, "pitch": 60, "duration": 9, "velocity": 100}, {"time": 85442, "pitch": 70, "duration": 9, "velocity": 50}, {"time": 85442, "pitch": 82, "duration": 9, "velocity": 100}, {"time": 85681, "pitch": 36, "duration": 10, "velocity": 92}, {"time": 85681, "pitch": 42, "duration": 10, "velocity": 36}, {"time": 85681, "pitch": 62, "duration": 10, "velocity": 60}, {"time": 85681, "pitch": 70, "duration": 10, "velocity": 30}, {"time": 85681, "pitch": 75, "duration": 10, "velocity": 120}, {"time": 85681, "pitch": 82, "duration": 10, "velocity": 30}, {"time": 85920, "pitch": 36, "duration": 10, "velocity": 92}, {"time": 85920, "pitch": 42, "duration": 10, "velocity": 64}, {"time": 85920, "pitch": 62, "duration": 10, "velocity": 50}, {"time": 85920, "pitch": 70, "duration": 10, "velocity": 50}, {"time": 85920, "pitch": 82, "duration": 10, "velocity": 60}, {"time": 86159, "pitch": 42, "duration": 10, "velocity": 36}, {"time": 86159, "pitch": 60, "duration": 10, "velocity": 100}, {"time": 86159, "pitch": 70, "duration": 10, "velocity": 30}, {"time": 86159, "pitch": 82, "duration": 10, "velocity": 30}, {"time": 86398, "pitch": 42, "duration": 10, "velocity": 64}, {"time": 86398, "pitch": 62, "duration": 10, "velocity": 60}, {"time": 86398, "pitch": 70, "duration": 10, "velocity": 50}, {"time": 86398, "pitch": 75, "duration": 10, "velocity": 120}, {"time": 86398, "pitch": 82, "duration": 10, "velocity": 100}, {"time": 86638, "pitch": 36, "duration": 9, "velocity": 92}, {"time": 86638, "pitch": 42, "duration": 9, "velocity": 36}, {"time": 86638, "pitch": 62, "duration": 9, "velocity": 50}, {"time": 86638, "pitch": 70, "duration": 9, "velocity": 30}, {"time": 86638, "pitch": 82, "duration": 9, "velocity": 30}, {"time": 86877, "pitch": 36, "duration": 10, "velocity": 92}, {"time": 86877, "pitch": 42, "duration": 10, "velocity": 64}, {"time": 86877, "pitch": 60, "duration": 10, "velocity": 100}, {"time": 86877, "pitch": 70, "duration": 10, "velocity": 50}, {"time": 86877, "pitch": 82, "duration": 10, "velocity": 60}, {"time": 87116, "pitch": 42, "duration": 10, "velocity": 36}, {"time": 87116, "pitch": 62, "duration": 10, "velocity": 60}, {"time": 87116, "pitch": 70, "duration": 10, "velocity": 30}, {"time": 87116, "pitch": 75, "duration": 10, "velocity": 120}, {"time": 87116, "pitch": 82, "duration": 10, "velocity": 30}, {"time": 87355, "pitch": 42, "duration": 10, "velocity": 64}, {"time": 87355, "pitch": 62, "duration": 10, "velocity": 50}, {"time": 87355, "pitch": 70, "duration": 10, "velocity": 50}, {"time": 87355, "pitch": 82, "duration": 10, "velocity": 100}, {"time": 87600, "pitch": 36, "duration": 10, "velocity": 92}, {"time": 87600, "pitch": 42, "duration": 10, "velocity": 36}, {"time": 87600, "pitch": 60, "duration": 10, "velocity": 100}, {"time": 87600, "pitch": 70, "duration": 10, "velocity": 30}, {"time": 87600, "pitch": 82, "duration": 10, "velocity": 30}, {"time": 87845, "pitch": 36, "duration": 10, "velocity": 92}, {"time": 87845, "pitch": 42, "duration": 10, "velocity": 64}, {"time": 87845, "pitch": 62, "duration": 10, "velocity": 60}, {"time": 87845, "pitch": 70, "duration": 10, "velocity": 50}, {"time": 87845, "pitch": 75, "duration": 10, "velocity": 120}, {"time": 87845, "pitch": 82, "duration": 10, "velocity": 60}, {"time": 88084, "pitch": 42, "duration": 10, "velocity": 36}, {"time": 88084, "pitch": 62, "duration": 10, "velocity": 50}, {"time": 88084, "pitch": 70, "duration": 10, "velocity": 30}, {"time": 88084, "pitch": 82, "duration": 10, "velocity": 30}, {"time": 88323, "pitch": 42, "duration": 10, "velocity": 64}, {"time": 88323, "pitch": 60, "duration": 10, "velocity": 100}, {"time": 88323, "pitch": 70, "duration": 10, "velocity": 50}, {"time": 88323, "pitch": 75, "duration": 10, "velocity": 120}, {"time": 88323, "pitch": 82, "duration": 10, "velocity": 100}, {"time": 88562, "pitch": 36, "duration": 10, "velocity": 92}, {"time": 88562, "pitch": 42, "duration": 10, "velocity": 36}, {"time": 88562, "pitch": 62, "duration": 10, "velocity": 60}, {"time": 88562, "pitch": 70, "duration": 10, "velocity": 30}, {"time": 88562, "pitch": 82, "duration": 10, "velocity": 30}, {"time": 88802, "pitch": 36, "duration": 9, "velocity": 92}, {"time": 88802, "pitch": 42, "duration": 9, "velocity": 64}, {"time": 88802, "pitch": 62, "duration": 9, "velocity": 60}, {"time": 88802, "pitch": 70, "duration": 9, "velocity": 50}, {"time": 88802, "pitch": 75, "duration": 9, "velocity": 120}, {"time": 88802, "pitch": 82, "duration": 9, "velocity": 60}, {"time": 89041, "pitch": 42, "duration": 10, "velocity": 36}, {"time": 89041, "pitch": 62, "duration": 10, "velocity": 50}, {"time": 89041, "pitch": 70, "duration": 10, "velocity": 30}, {"time": 89041, "pitch": 82, "duration": 10, "velocity": 30}, {"time": 89280, "pitch": 42, "duration": 10, "velocity": 64}, {"time": 89280, "pitch": 60, "duration": 10, "velocity": 100}, {"time": 89280, "pitch": 70, "duration": 10, "velocity": 50}, {"time": 89280, "pitch": 82, "duration": 10, "velocity": 100}, {"time": 89519, "pitch": 36, "duration": 10, "velocity": 92}, {"time": 89519, "pitch": 42, "duration": 10, "velocity": 36}, {"time": 89519, "pitch": 62, "duration": 10, "velocity": 60}, {"time": 89519, "pitch": 70, "duration": 10, "velocity": 30}, {"time": 89519, "pitch": 75, "duration": 10, "velocity": 120}, {"time": 89519, "pitch": 82, "duration": 10, "velocity": 30}, {"time": 89758, "pitch": 36, "duration": 10, "velocity": 92}, {"time": 89758, "pitch": 42, "duration": 10, "velocity": 64}, {"time": 89758, "pitch": 62, "duration": 10, "velocity": 50}, {"time": 89758, "pitch": 70, "duration": 10, "velocity": 50}, {"time": 89758, "pitch": 82, "duration": 10, "velocity": 60}, {"time": 89998, "pitch": 42, "duration": 9, "velocity": 36}, {"time": 89998, "pitch": 60, "duration": 9, "velocity": 100}, {"time": 89998, "pitch": 70, "duration": 9, "velocity": 30}, {"time": 89998, "pitch": 82, "duration": 9, "velocity": 30}, {"time": 90237, "pitch": 42, "duration": 10, "velocity": 64}, {"time": 90237, "pitch": 62, "duration": 10, "velocity": 60}, {"time": 90237, "pitch": 70, "duration": 10, "velocity": 50}, {"time": 90237, "pitch": 75, "duration": 10, "velocity": 120}, {"time": 90237, "pitch": 82, "duration": 10, "velocity": 100}, {"time": 90476, "pitch": 36, "duration": 10, "velocity": 92}, {"time": 90476, "pitch": 42, "duration": 10, "velocity": 36}, {"time": 90476, "pitch": 62, "duration": 10, "velocity": 50}, {"time": 90476, "pitch": 70, "duration": 10, "velocity": 30}, {"time": 90476, "pitch": 82, "duration": 10, "velocity": 30}, {"time": 90715, "pitch": 36, "duration": 10, "velocity": 92}, {"time": 90715, "pitch": 42, "duration": 10, "velocity": 64}, {"time": 90715, "pitch": 60, "duration": 10, "velocity": 100}, {"time": 90715, "pitch": 70, "duration": 10, "velocity": 50}, {"time": 90715, "pitch": 82, "duration": 10, "velocity": 60}, {"time": 90960, "pitch": 42, "duration": 10, "velocity": 36}, {"time": 90960, "pitch": 62, "duration": 10, "velocity": 60}, {"time": 90960, "pitch": 70, "duration": 10, "velocity": 30}, {"time": 90960, "pitch": 75, "duration": 10, "velocity": 120}, {"time": 90960, "pitch": 82, "duration": 10, "velocity": 30}, {"time": 91205, "pitch": 42, "duration": 10, "velocity": 64}, {"time": 91205, "pitch": 62, "duration": 10, "velocity": 50}, {"time": 91205, "pitch": 70, "duration": 10, "velocity": 50}, {"time": 91205, "pitch": 82, "duration": 10, "velocity": 100}, {"time": 91444, "pitch": 36, "duration": 10, "velocity": 92}, {"time": 91444, "pitch": 42, "duration": 10, "velocity": 36}, {"time": 91444, "pitch": 60, "duration": 10, "velocity": 100}, {"time": 91444, "pitch": 70, "duration": 10, "velocity": 30}, {"time": 91444, "pitch": 82, "duration": 10, "velocity": 30}, {"time": 91683, "pitch": 36, "duration": 10, "velocity": 92}, {"time": 91683, "pitch": 42, "duration": 10, "velocity": 64}, {"time": 91683, "pitch": 62, "duration": 10, "velocity": 60}, {"time": 91683, "pitch": 70, "duration": 10, "velocity": 50}, {"time": 91683, "pitch": 75, "duration": 10, "velocity": 120}, {"time": 91683, "pitch": 82, "duration": 10, "velocity": 60}, {"time": 91922, "pitch": 42, "duration": 10, "velocity": 36}, {"time": 91922, "pitch": 62, "duration": 10, "velocity": 50}, {"time": 91922, "pitch": 70, "duration": 10, "velocity": 30}, {"time": 91922, "pitch": 82, "duration": 10, "velocity": 30}, {"time": 92162, "pitch": 42, "duration": 9, "velocity": 64}, {"time": 92162, "pitch": 60, "duration": 9, "velocity": 100}, {"time": 92162, "pitch": 70, "duration": 9, "velocity": 50}, {"time": 92162, "pitch": 75, "duration": 9, "velocity": 120}, {"time": 92162, "pitch": 82, "duration": 9, "velocity": 100}, {"time": 92401, "pitch": 36, "duration": 10, "velocity": 92}, {"time": 92401, "pitch": 42, "duration": 10, "velocity": 36}, {"time": 92401, "pitch": 62, "duration": 10, "velocity": 60}, {"time": 92401, "pitch": 70, "duration": 10, "velocity": 30}, {"time": 92401, "pitch": 82, "duration": 10, "velocity": 30}, {"time": 92640, "pitch": 36, "duration": 10, "velocity": 92}, {"time": 92640, "pitch": 42, "duration": 10, "velocity": 64}, {"time": 92640, "pitch": 62, "duration": 10, "velocity": 60}, {"time": 92640, "pitch": 70, "duration": 10, "velocity": 50}, {"time": 92640, "pitch": 75, "duration": 10, "velocity": 120}, {"time": 92640, "pitch": 82, "duration": 10, "velocity": 60}, {"time": 92879, "pitch": 42, "duration": 10, "velocity": 36}, {"time": 92879, "pitch": 62, "duration": 10, "velocity": 50}, {"time": 92879, "pitch": 70, "duration": 10, "velocity": 30}, {"time": 92879, "pitch": 82, "duration": 10, "velocity": 30}, {"time": 93118, "pitch": 42, "duration": 10, "velocity": 64}, {"time": 93118, "pitch": 60, "duration": 10, "velocity": 100}, {"time": 93118, "pitch": 70, "duration": 10, "velocity": 50}, {"time": 93118, "pitch": 82, "duration": 10, "velocity": 100}, {"time": 93358, "pitch": 36, "duration": 9, "velocity": 92}, {"time": 93358, "pitch": 42, "duration": 9, "velocity": 36}, {"time": 93358, "pitch": 62, "duration": 9, "velocity": 60}, {"time": 93358, "pitch": 70, "duration": 9, "velocity": 30}, {"time": 93358, "pitch": 75, "duration": 9, "velocity": 120}, {"time": 93358, "pitch": 82, "duration": 9, "velocity": 30}, {"time": 93597, "pitch": 36, "duration": 10, "velocity": 92}, {"time": 93597, "pitch": 42, "duration": 10, "velocity": 64}, {"time": 93597, "pitch": 62, "duration": 10, "velocity": 50}, {"time": 93597, "pitch": 70, "duration": 10, "velocity": 50}, {"time": 93597, "pitch": 82, "duration": 10, "velocity": 60}, {"time": 93836, "pitch": 42, "duration": 10, "velocity": 36}, {"time": 93836, "pitch": 60, "duration": 10, "velocity": 100}, {"time": 93836, "pitch": 70, "duration": 10, "velocity": 30}, {"time": 93836, "pitch": 82, "duration": 10, "velocity": 30}, {"time": 94075, "pitch": 42, "duration": 10, "velocity": 64}, {"time": 94075, "pitch": 62, "duration": 10, "velocity": 60}, {"time": 94075, "pitch": 70, "duration": 10, "velocity": 50}, {"time": 94075, "pitch": 75, "duration": 10, "velocity": 120}, {"time": 94075, "pitch": 82, "duration": 10, "velocity": 100}, {"time": 94320, "pitch": 36, "duration": 10, "velocity": 92}, {"time": 94320, "pitch": 42, "duration": 10, "velocity": 36}, {"time": 94320, "pitch": 62, "duration": 10, "velocity": 50}, {"time": 94320, "pitch": 70, "duration": 10, "velocity": 30}, {"time": 94320, "pitch": 82, "duration": 10, "velocity": 30}, {"time": 94565, "pitch": 36, "duration": 10, "velocity": 92}, {"time": 94565, "pitch": 42, "duration": 10, "velocity": 64}, {"time": 94565, "pitch": 60, "duration": 10, "velocity": 100}, {"time": 94565, "pitch": 70, "duration": 10, "velocity": 50}, {"time": 94565, "pitch": 82, "duration": 10, "velocity": 60}, {"time": 94804, "pitch": 42, "duration": 10, "velocity": 36}, {"time": 94804, "pitch": 62, "duration": 10, "velocity": 60}, {"time": 94804, "pitch": 70, "duration": 10, "velocity": 30}, {"time": 94804, "pitch": 75, "duration": 10, "velocity": 120}, {"time": 94804, "pitch": 82, "duration": 10, "velocity": 30}, {"time": 95043, "pitch": 42, "duration": 10, "velocity": 64}, {"time": 95043, "pitch": 62, "duration": 10, "velocity": 50}, {"time": 95043, "pitch": 70, "duration": 10, "velocity": 50}, {"time": 95043, "pitch": 82, "duration": 10, "velocity": 100}, {"time": 95282, "pitch": 36, "duration": 10, "velocity": 92}, {"time": 95282, "pitch": 42, "duration": 10, "velocity": 36}, {"time": 95282, "pitch": 60, "duration": 10, "velocity": 100}, {"time": 95282, "pitch": 70, "duration": 10, "velocity": 30}, {"time": 95282, "pitch": 82, "duration": 10, "velocity": 30}, {"time": 95521, "pitch": 36, "duration": 10, "velocity": 92}, {"time": 95521, "pitch": 42, "duration": 10, "velocity": 64}, {"time": 95521, "pitch": 62, "duration": 10, "velocity": 60}, {"time": 95521, "pitch": 70, "duration": 10, "velocity": 50}, {"time": 95521, "pitch": 75, "duration": 10, "velocity": 120}, {"time": 95521, "pitch": 82, "duration": 10, "velocity": 60}, {"time": 95761, "pitch": 42, "duration": 10, "velocity": 36}, {"time": 95761, "pitch": 62, "duration": 10, "velocity": 50}, {"time": 95761, "pitch": 70, "duration": 10, "velocity": 30}, {"time": 95761, "pitch": 82, "duration": 10, "velocity": 30}, {"time": 96000, "pitch": 42, "duration": 10, "velocity": 64}, {"time": 96000, "pitch": 60, "duration": 10, "velocity": 100}, {"time": 96000, "pitch": 70, "duration": 10, "velocity": 50}, {"time": 96000, "pitch": 75, "duration": 10, "velocity": 120}, {"time": 96000, "pitch": 82, "duration": 10, "velocity": 100}, {"time": 96239, "pitch": 36, "duration": 10, "velocity": 92}, {"time": 96239, "pitch": 42, "duration": 10, "velocity": 36}, {"time": 96239, "pitch": 62, "duration": 10, "velocity": 60}, {"time": 96239, "pitch": 70, "duration": 10, "velocity": 30}, {"time": 96239, "pitch": 82, "duration": 10, "velocity": 30}, {"time": 96478, "pitch": 36, "duration": 10, "velocity": 92}, {"time": 96478, "pitch": 42, "duration": 10, "velocity": 64}, {"time": 96478, "pitch": 62, "duration": 10, "velocity": 60}, {"time": 96478, "pitch": 70, "duration": 10, "velocity": 50}, {"time": 96478, "pitch": 75, "duration": 10, "velocity": 120}, {"time": 96478, "pitch": 82, "duration": 10, "velocity": 60}, {"time": 96718, "pitch": 42, "duration": 9, "velocity": 36}, {"time": 96718, "pitch": 62, "duration": 9, "velocity": 50}, {"time": 96718, "pitch": 70, "duration": 9, "velocity": 30}, {"time": 96718, "pitch": 82, "duration": 9, "velocity": 30}, {"time": 96957, "pitch": 42, "duration": 10, "velocity": 64}, {"time": 96957, "pitch": 60, "duration": 10, "velocity": 100}, {"time": 96957, "pitch": 70, "duration": 10, "velocity": 50}, {"time": 96957, "pitch": 82, "duration": 10, "velocity": 100}, {"time": 97196, "pitch": 36, "duration": 10, "velocity": 92}, {"time": 97196, "pitch": 42, "duration": 10, "velocity": 36}, {"time": 97196, "pitch": 62, "duration": 10, "velocity": 60}, {"time": 97196, "pitch": 70, "duration": 10, "velocity": 30}, {"time": 97196, "pitch": 75, "duration": 10, "velocity": 120}, {"time": 97196, "pitch": 82, "duration": 10, "velocity": 30}, {"time": 97435, "pitch": 36, "duration": 10, "velocity": 92}, {"time": 97435, "pitch": 42, "duration": 10, "velocity": 64}, {"time": 97435, "pitch": 62, "duration": 10, "velocity": 50}, {"time": 97435, "pitch": 70, "duration": 10, "velocity": 50}, {"time": 97435, "pitch": 82, "duration": 10, "velocity": 60}, {"time": 97680, "pitch": 42, "duration": 10, "velocity": 36}, {"time": 97680, "pitch": 60, "duration": 10, "velocity": 100}, {"time": 97680, "pitch": 70, "duration": 10, "velocity": 30}, {"time": 97680, "pitch": 82, "duration": 10, "velocity": 30}, {"time": 97925, "pitch": 42, "duration": 10, "velocity": 64}, {"time": 97925, "pitch": 62, "duration": 10, "velocity": 60}, {"time": 97925, "pitch": 70, "duration": 10, "velocity": 50}, {"time": 97925, "pitch": 75, "duration": 10, "velocity": 120}, {"time": 97925, "pitch": 82, "duration": 10, "velocity": 100}, {"time": 98164, "pitch": 36, "duration": 10, "velocity": 92}, {"time": 98164, "pitch": 42, "duration": 10, "velocity": 36}, {"time": 98164, "pitch": 62, "duration": 10, "velocity": 50}, {"time": 98164, "pitch": 70, "duration": 10, "velocity": 30}, {"time": 98164, "pitch": 82, "duration": 10, "velocity": 30}, {"time": 98403, "pitch": 36, "duration": 10, "velocity": 92}, {"time": 98403, "pitch": 42, "duration": 10, "velocity": 64}, {"time": 98403, "pitch": 60, "duration": 10, "velocity": 100}, {"time": 98403, "pitch": 70, "duration": 10, "velocity": 50}, {"time": 98403, "pitch": 82, "duration": 10, "velocity": 60}, {"time": 98642, "pitch": 42, "duration": 10, "velocity": 36}, {"time": 98642, "pitch": 62, "duration": 10, "velocity": 60}, {"time": 98642, "pitch": 70, "duration": 10, "velocity": 30}, {"time": 98642, "pitch": 75, "duration": 10, "velocity": 120}, {"time": 98642, "pitch": 82, "duration": 10, "velocity": 30}, {"time": 98881, "pitch": 42, "duration": 10, "velocity": 64}, {"time": 98881, "pitch": 62, "duration": 10, "velocity": 50}, {"time": 98881, "pitch": 70, "duration": 10, "velocity": 50}, {"time": 98881, "pitch": 82, "duration": 10, "velocity": 100}, {"time": 99121, "pitch": 36, "duration": 10, "velocity": 92}, {"time": 99121, "pitch": 42, "duration": 10, "velocity": 36}, {"time": 99121, "pitch": 60, "duration": 10, "velocity": 100}, {"time": 99121, "pitch": 70, "duration": 10, "velocity": 30}, {"time": 99121, "pitch": 82, "duration": 10, "velocity": 30}, {"time": 99360, "pitch": 36, "duration": 10, "velocity": 92}, {"time": 99360, "pitch": 42, "duration": 10, "velocity": 64}, {"time": 99360, "pitch": 62, "duration": 10, "velocity": 60}, {"time": 99360, "pitch": 70, "duration": 10, "velocity": 50}, {"time": 99360, "pitch": 75, "duration": 10, "velocity": 120}, {"time": 99360, "pitch": 82, "duration": 10, "velocity": 60}, {"time": 99599, "pitch": 42, "duration": 10, "velocity": 36}, {"time": 99599, "pitch": 62, "duration": 10, "velocity": 50}, {"time": 99599, "pitch": 70, "duration": 10, "velocity": 30}, {"time": 99599, "pitch": 82, "duration": 10, "velocity": 30}, {"time": 99838, "pitch": 42, "duration": 10, "velocity": 64}, {"time": 99838, "pitch": 60, "duration": 10, "velocity": 100}, {"time": 99838, "pitch": 70, "duration": 10, "velocity": 50}, {"time": 99838, "pitch": 75, "duration": 10, "velocity": 120}, {"time": 99838, "pitch": 82, "duration": 10, "velocity": 100}, {"time": 100078, "pitch": 36, "duration": 9, "velocity": 92}, {"time": 100078, "pitch": 42, "duration": 9, "velocity": 36}, {"time": 100078, "pitch": 62, "duration": 9, "velocity": 60}, {"time": 100078, "pitch": 70, "duration": 9, "velocity": 30}, {"time": 100078, "pitch": 82, "duration": 9, "velocity": 30}, {"time": 100317, "pitch": 36, "duration": 10, "velocity": 92}, {"time": 100317, "pitch": 42, "duration": 10, "velocity": 64}, {"time": 100317, "pitch": 62, "duration": 10, "velocity": 60}, {"time": 100317, "pitch": 70, "duration": 10, "velocity": 50}, {"time": 100317, "pitch": 75, "duration": 10, "velocity": 120}, {"time": 100317, "pitch": 82, "duration": 10, "velocity": 60}, {"time": 100556, "pitch": 42, "duration": 10, "velocity": 36}, {"time": 100556, "pitch": 62, "duration": 10, "velocity": 50}, {"time": 100556, "pitch": 70, "duration": 10, "velocity": 30}, {"time": 100556, "pitch": 82, "duration": 10, "velocity": 30}, {"time": 100795, "pitch": 42, "duration": 10, "velocity": 64}, {"time": 100795, "pitch": 60, "duration": 10, "velocity": 100}, {"time": 100795, "pitch": 70, "duration": 10, "velocity": 50}, {"time": 100795, "pitch": 82, "duration": 10, "velocity": 100}, {"time": 101040, "pitch": 36, "duration": 10, "velocity": 92}, {"time": 101040, "pitch": 42, "duration": 10, "velocity": 36}, {"time": 101040, "pitch": 62, "duration": 10, "velocity": 60}, {"time": 101040, "pitch": 70, "duration": 10, "velocity": 30}, {"time": 101040, "pitch": 75, "duration": 10, "velocity": 120}, {"time": 101040, "pitch": 82, "duration": 10, "velocity": 30}, {"time": 101285, "pitch": 36, "duration": 10, "velocity": 92}, {"time": 101285, "pitch": 42, "duration": 10, "velocity": 64}, {"time": 101285, "pitch": 62, "duration": 10, "velocity": 50}, {"time": 101285, "pitch": 70, "duration": 10, "velocity": 50}, {"time": 101285, "pitch": 82, "duration": 10, "velocity": 60}, {"time": 101524, "pitch": 42, "duration": 10, "velocity": 36}, {"time": 101524, "pitch": 60, "duration": 10, "velocity": 100}, {"time": 101524, "pitch": 70, "duration": 10, "velocity": 30}, {"time": 101524, "pitch": 82, "duration": 10, "velocity": 30}, {"time": 101763, "pitch": 42, "duration": 10, "velocity": 64}, {"time": 101763, "pitch": 62, "duration": 10, "velocity": 60}, {"time": 101763, "pitch": 70, "duration": 10, "velocity": 50}, {"time": 101763, "pitch": 75, "duration": 10, "velocity": 120}, {"time": 101763, "pitch": 82, "duration": 10, "velocity": 100}, {"time": 102002, "pitch": 36, "duration": 10, "velocity": 92}, {"time": 102002, "pitch": 42, "duration": 10, "velocity": 36}, {"time": 102002, "pitch": 62, "duration": 10, "velocity": 50}, {"time": 102002, "pitch": 70, "duration": 10, "velocity": 30}, {"time": 102002, "pitch": 82, "duration": 10, "velocity": 30}, {"time": 102241, "pitch": 36, "duration": 10, "velocity": 92}, {"time": 102241, "pitch": 42, "duration": 10, "velocity": 64}, {"time": 102241, "pitch": 60, "duration": 10, "velocity": 100}, {"time": 102241, "pitch": 70, "duration": 10, "velocity": 50}, {"time": 102241, "pitch": 82, "duration": 10, "velocity": 60}, {"time": 102481, "pitch": 42, "duration": 10, "velocity": 36}, {"time": 102481, "pitch": 62, "duration": 10, "velocity": 60}, {"time": 102481, "pitch": 70, "duration": 10, "velocity": 30}, {"time": 102481, "pitch": 75, "duration": 10, "velocity": 120}, {"time": 102481, "pitch": 82, "duration": 10, "velocity": 30}, {"time": 102720, "pitch": 42, "duration": 10, "velocity": 64}, {"time": 102720, "pitch": 62, "duration": 10, "velocity": 50}, {"time": 102720, "pitch": 70, "duration": 10, "velocity": 50}, {"time": 102720, "pitch": 82, "duration": 10, "velocity": 100}, {"time": 102959, "pitch": 36, "duration": 10, "velocity": 92}, {"time": 102959, "pitch": 42, "duration": 10, "velocity": 36}, {"time": 102959, "pitch": 60, "duration": 10, "velocity": 100}, {"time": 102959, "pitch": 70, "duration": 10, "velocity": 30}, {"time": 102959, "pitch": 82, "duration": 10, "velocity": 30}, {"time": 103198, "pitch": 36, "duration": 10, "velocity": 92}, {"time": 103198, "pitch": 42, "duration": 10, "velocity": 64}, {"time": 103198, "pitch": 62, "duration": 10, "velocity": 60}, {"time": 103198, "pitch": 70, "duration": 10, "velocity": 50}, {"time": 103198, "pitch": 75, "duration": 10, "velocity": 120}, {"time": 103198, "pitch": 82, "duration": 10, "velocity": 60}, {"time": 103438, "pitch": 42, "duration": 9, "velocity": 36}, {"time": 103438, "pitch": 62, "duration": 9, "velocity": 50}, {"time": 103438, "pitch": 70, "duration": 9, "velocity": 30}, {"time": 103438, "pitch": 82, "duration": 9, "velocity": 30}, {"time": 103677, "pitch": 42, "duration": 10, "velocity": 64}, {"time": 103677, "pitch": 60, "duration": 10, "velocity": 100}, {"time": 103677, "pitch": 70, "duration": 10, "velocity": 50}, {"time": 103677, "pitch": 75, "duration": 10, "velocity": 120}, {"time": 103677, "pitch": 82, "duration": 10, "velocity": 100}, {"time": 103916, "pitch": 36, "duration": 10, "velocity": 92}, {"time": 103916, "pitch": 42, "duration": 10, "velocity": 36}, {"time": 103916, "pitch": 62, "duration": 10, "velocity": 60}, {"time": 103916, "pitch": 70, "duration": 10, "velocity": 30}, {"time": 103916, "pitch": 82, "duration": 10, "velocity": 30}, {"time": 104155, "pitch": 36, "duration": 10, "velocity": 92}, {"time": 104155, "pitch": 42, "duration": 10, "velocity": 64}, {"time": 104155, "pitch": 62, "duration": 10, "velocity": 60}, {"time": 104155, "pitch": 70, "duration": 10, "velocity": 50}, {"time": 104155, "pitch": 75, "duration": 10, "velocity": 120}, {"time": 104155, "pitch": 82, "duration": 10, "velocity": 60}, {"time": 104400, "pitch": 42, "duration": 10, "velocity": 36}, {"time": 104400, "pitch": 62, "duration": 10, "velocity": 50}, {"time": 104400, "pitch": 70, "duration": 10, "velocity": 30}, {"time": 104400, "pitch": 82, "duration": 10, "velocity": 30}, {"time": 104645, "pitch": 42, "duration": 10, "velocity": 64}, {"time": 104645, "pitch": 60, "duration": 10, "velocity": 100}, {"time": 104645, "pitch": 70, "duration": 10, "velocity": 50}, {"time": 104645, "pitch": 82, "duration": 10, "velocity": 100}, {"time": 104884, "pitch": 36, "duration": 10, "velocity": 92}, {"time": 104884, "pitch": 42, "duration": 10, "velocity": 36}, {"time": 104884, "pitch": 62, "duration": 10, "velocity": 60}, {"time": 104884, "pitch": 70, "duration": 10, "velocity": 30}, {"time": 104884, "pitch": 75, "duration": 10, "velocity": 120}, {"time": 104884, "pitch": 82, "duration": 10, "velocity": 30}, {"time": 105123, "pitch": 36, "duration": 10, "velocity": 92}, {"time": 105123, "pitch": 42, "duration": 10, "velocity": 64}, {"time": 105123, "pitch": 62, "duration": 10, "velocity": 50}, {"time": 105123, "pitch": 70, "duration": 10, "velocity": 50}, {"time": 105123, "pitch": 82, "duration": 10, "velocity": 60}, {"time": 105362, "pitch": 42, "duration": 10, "velocity": 36}, {"time": 105362, "pitch": 60, "duration": 10, "velocity": 100}, {"time": 105362, "pitch": 70, "duration": 10, "velocity": 30}, {"time": 105362, "pitch": 82, "duration": 10, "velocity": 30}, {"time": 105601, "pitch": 42, "duration": 10, "velocity": 64}, {"time": 105601, "pitch": 62, "duration": 10, "velocity": 60}, {"time": 105601, "pitch": 70, "duration": 10, "velocity": 50}, {"time": 105601, "pitch": 75, "duration": 10, "velocity": 120}, {"time": 105601, "pitch": 82, "duration": 10, "velocity": 100}, {"time": 105841, "pitch": 36, "duration": 10, "velocity": 92}, {"time": 105841, "pitch": 42, "duration": 10, "velocity": 36}, {"time": 105841, "pitch": 62, "duration": 10, "velocity": 50}, {"time": 105841, "pitch": 70, "duration": 10, "velocity": 30}, {"time": 105841, "pitch": 82, "duration": 10, "velocity": 30}, {"time": 106080, "pitch": 36, "duration": 10, "velocity": 92}, {"time": 106080, "pitch": 42, "duration": 10, "velocity": 64}, {"time": 106080, "pitch": 60, "duration": 10, "velocity": 100}, {"time": 106080, "pitch": 70, "duration": 10, "velocity": 50}, {"time": 106080, "pitch": 82, "duration": 10, "velocity": 60}, {"time": 106319, "pitch": 42, "duration": 10, "velocity": 36}, {"time": 106319, "pitch": 62, "duration": 10, "velocity": 60}, {"time": 106319, "pitch": 70, "duration": 10, "velocity": 30}, {"time": 106319, "pitch": 75, "duration": 10, "velocity": 120}, {"time": 106319, "pitch": 82, "duration": 10, "velocity": 30}, {"time": 106558, "pitch": 42, "duration": 10, "velocity": 64}, {"time": 106558, "pitch": 62, "duration": 10, "velocity": 50}, {"time": 106558, "pitch": 70, "duration": 10, "velocity": 50}, {"time": 106558, "pitch": 82, "duration": 10, "velocity": 100}, {"time": 106798, "pitch": 36, "duration": 9, "velocity": 92}, {"time": 106798, "pitch": 42, "duration": 9, "velocity": 36}, {"time": 106798, "pitch": 60, "duration": 9, "velocity": 100}, {"time": 106798, "pitch": 70, "duration": 9, "velocity": 30}, {"time": 106798, "pitch": 82, "duration": 9, "velocity": 30}, {"time": 107037, "pitch": 36, "duration": 10, "velocity": 92}, {"time": 107037, "pitch": 42, "duration": 10, "velocity": 64}, {"time": 107037, "pitch": 62, "duration": 10, "velocity": 60}, {"time": 107037, "pitch": 70, "duration": 10, "velocity": 50}, {"time": 107037, "pitch": 75, "duration": 10, "velocity": 120}, {"time": 107037, "pitch": 82, "duration": 10, "velocity": 60}, {"time": 107276, "pitch": 42, "duration": 10, "velocity": 36}, {"time": 107276, "pitch": 62, "duration": 10, "velocity": 50}, {"time": 107276, "pitch": 70, "duration": 10, "velocity": 30}, {"time": 107276, "pitch": 82, "duration": 10, "velocity": 30}, {"time": 107515, "pitch": 42, "duration": 10, "velocity": 64}, {"time": 107515, "pitch": 60, "duration": 10, "velocity": 100}, {"time": 107515, "pitch": 70, "duration": 10, "velocity": 50}, {"time": 107515, "pitch": 75, "duration": 10, "velocity": 120}, {"time": 107515, "pitch": 82, "duration": 10, "velocity": 100}, {"time": 107760, "pitch": 36, "duration": 10, "velocity": 92}, {"time": 107760, "pitch": 42, "duration": 10, "velocity": 36}, {"time": 107760, "pitch": 62, "duration": 10, "velocity": 60}, {"time": 107760, "pitch": 70, "duration": 10, "velocity": 30}, {"time": 107760, "pitch": 82, "duration": 10, "velocity": 30}, {"time": 108005, "pitch": 36, "duration": 10, "velocity": 92}, {"time": 108005, "pitch": 42, "duration": 10, "velocity": 64}, {"time": 108005, "pitch": 62, "duration": 10, "velocity": 60}, {"time": 108005, "pitch": 70, "duration": 10, "velocity": 50}, {"time": 108005, "pitch": 75, "duration": 10, "velocity": 120}, {"time": 108005, "pitch": 82, "duration": 10, "velocity": 60}, {"time": 108244, "pitch": 42, "duration": 10, "velocity": 36}, {"time": 108244, "pitch": 62, "duration": 10, "velocity": 50}, {"time": 108244, "pitch": 70, "duration": 10, "velocity": 30}, {"time": 108244, "pitch": 82, "duration": 10, "velocity": 30}, {"time": 108483, "pitch": 42, "duration": 10, "velocity": 64}, {"time": 108483, "pitch": 60, "duration": 10, "velocity": 100}, {"time": 108483, "pitch": 70, "duration": 10, "velocity": 50}, {"time": 108483, "pitch": 82, "duration": 10, "velocity": 100}, {"time": 108722, "pitch": 36, "duration": 10, "velocity": 92}, {"time": 108722, "pitch": 42, "duration": 10, "velocity": 36}, {"time": 108722, "pitch": 62, "duration": 10, "velocity": 60}, {"time": 108722, "pitch": 70, "duration": 10, "velocity": 30}, {"time": 108722, "pitch": 75, "duration": 10, "velocity": 120}, {"time": 108722, "pitch": 82, "duration": 10, "velocity": 30}, {"time": 108961, "pitch": 36, "duration": 10, "velocity": 92}, {"time": 108961, "pitch": 42, "duration": 10, "velocity": 64}, {"time": 108961, "pitch": 62, "duration": 10, "velocity": 50}, {"time": 108961, "pitch": 70, "duration": 10, "velocity": 50}, {"time": 108961, "pitch": 82, "duration": 10, "velocity": 60}, {"time": 109201, "pitch": 42, "duration": 10, "velocity": 36}, {"time": 109201, "pitch": 60, "duration": 10, "velocity": 100}, {"time": 109201, "pitch": 70, "duration": 10, "velocity": 30}, {"time": 109201, "pitch": 82, "duration": 10, "velocity": 30}, {"time": 109440, "pitch": 42, "duration": 10, "velocity": 64}, {"time": 109440, "pitch": 62, "duration": 10, "velocity": 60}, {"time": 109440, "pitch": 70, "duration": 10, "velocity": 50}, {"time": 109440, "pitch": 75, "duration": 10, "velocity": 120}, {"time": 109440, "pitch": 82, "duration": 10, "velocity": 100}, {"time": 109679, "pitch": 36, "duration": 10, "velocity": 92}, {"time": 109679, "pitch": 42, "duration": 10, "velocity": 36}, {"time": 109679, "pitch": 62, "duration": 10, "velocity": 50}, {"time": 109679, "pitch": 70, "duration": 10, "velocity": 30}, {"time": 109679, "pitch": 82, "duration": 10, "velocity": 30}, {"time": 109918, "pitch": 36, "duration": 10, "velocity": 92}, {"time": 109918, "pitch": 42, "duration": 10, "velocity": 64}, {"time": 109918, "pitch": 60, "duration": 10, "velocity": 100}, {"time": 109918, "pitch": 70, "duration": 10, "velocity": 50}, {"time": 109918, "pitch": 82, "duration": 10, "velocity": 60}, {"time": 110157, "pitch": 42, "duration": 10, "velocity": 36}, {"time": 110157, "pitch": 62, "duration": 10, "velocity": 60}, {"time": 110157, "pitch": 70, "duration": 10, "velocity": 30}, {"time": 110157, "pitch": 75, "duration": 10, "velocity": 120}, {"time": 110157, "pitch": 82, "duration": 10, "velocity": 30}, {"time": 110397, "pitch": 42, "duration": 10, "velocity": 64}, {"time": 110397, "pitch": 62, "duration": 10, "velocity": 50}, {"time": 110397, "pitch": 70, "duration": 10, "velocity": 50}, {"time": 110397, "pitch": 82, "duration": 10, "velocity": 100}, {"time": 110636, "pitch": 36, "duration": 10, "velocity": 92}, {"time": 110636, "pitch": 42, "duration": 10, "velocity": 36}, {"time": 110636, "pitch": 60, "duration": 10, "velocity": 100}, {"time": 110636, "pitch": 70, "duration": 10, "velocity": 30}, {"time": 110636, "pitch": 82, "duration": 10, "velocity": 30}, {"time": 110875, "pitch": 36, "duration": 10, "velocity": 92}, {"time": 110875, "pitch": 42, "duration": 10, "velocity": 64}, {"time": 110875, "pitch": 62, "duration": 10, "velocity": 60}, {"time": 110875, "pitch": 70, "duration": 10, "velocity": 50}, {"time": 110875, "pitch": 75, "duration": 10, "velocity": 120}, {"time": 110875, "pitch": 82, "duration": 10, "velocity": 60}, {"time": 111120, "pitch": 42, "duration": 10, "velocity": 36}, {"time": 111120, "pitch": 62, "duration": 10, "velocity": 50}, {"time": 111120, "pitch": 70, "duration": 10, "velocity": 30}, {"time": 111120, "pitch": 82, "duration": 10, "velocity": 30}, {"time": 111365, "pitch": 42, "duration": 10, "velocity": 64}, {"time": 111365, "pitch": 60, "duration": 10, "velocity": 100}, {"time": 111365, "pitch": 70, "duration": 10, "velocity": 50}, {"time": 111365, "pitch": 75, "duration": 10, "velocity": 120}, {"time": 111365, "pitch": 82, "duration": 10, "velocity": 100}, {"time": 111604, "pitch": 36, "duration": 10, "velocity": 92}, {"time": 111604, "pitch": 42, "duration": 10, "velocity": 36}, {"time": 111604, "pitch": 62, "duration": 10, "velocity": 60}, {"time": 111604, "pitch": 70, "duration": 10, "velocity": 30}, {"time": 111604, "pitch": 82, "duration": 10, "velocity": 30}, {"time": 111843, "pitch": 36, "duration": 10, "velocity": 92}, {"time": 111843, "pitch": 42, "duration": 10, "velocity": 64}, {"time": 111843, "pitch": 62, "duration": 10, "velocity": 60}, {"time": 111843, "pitch": 70, "duration": 10, "velocity": 50}, {"time": 111843, "pitch": 75, "duration": 10, "velocity": 120}, {"time": 111843, "pitch": 82, "duration": 10, "velocity": 60}, {"time": 112082, "pitch": 42, "duration": 10, "velocity": 36}, {"time": 112082, "pitch": 62, "duration": 10, "velocity": 50}, {"time": 112082, "pitch": 70, "duration": 10, "velocity": 30}, {"time": 112082, "pitch": 82, "duration": 10, "velocity": 30}, {"time": 112321, "pitch": 42, "duration": 10, "velocity": 64}, {"time": 112321, "pitch": 60, "duration": 10, "velocity": 100}, {"time": 112321, "pitch": 70, "duration": 10, "velocity": 50}, {"time": 112321, "pitch": 82, "duration": 10, "velocity": 100}, {"time": 112561, "pitch": 36, "duration": 10, "velocity": 92}, {"time": 112561, "pitch": 42, "duration": 10, "velocity": 36}, {"time": 112561, "pitch": 62, "duration": 10, "velocity": 60}, {"time": 112561, "pitch": 70, "duration": 10, "velocity": 30}, {"time": 112561, "pitch": 75, "duration": 10, "velocity": 120}, {"time": 112561, "pitch": 82, "duration": 10, "velocity": 30}, {"time": 112800, "pitch": 36, "duration": 10, "velocity": 92}, {"time": 112800, "pitch": 42, "duration": 10, "velocity": 64}, {"time": 112800, "pitch": 62, "duration": 10, "velocity": 50}, {"time": 112800, "pitch": 70, "duration": 10, "velocity": 50}, {"time": 112800, "pitch": 82, "duration": 10, "velocity": 60}, {"time": 113039, "pitch": 42, "duration": 10, "velocity": 36}, {"time": 113039, "pitch": 60, "duration": 10, "velocity": 100}, {"time": 113039, "pitch": 70, "duration": 10, "velocity": 30}, {"time": 113039, "pitch": 82, "duration": 10, "velocity": 30}, {"time": 113278, "pitch": 42, "duration": 10, "velocity": 64}, {"time": 113278, "pitch": 62, "duration": 10, "velocity": 60}, {"time": 113278, "pitch": 70, "duration": 10, "velocity": 50}, {"time": 113278, "pitch": 75, "duration": 10, "velocity": 120}, {"time": 113278, "pitch": 82, "duration": 10, "velocity": 100}, {"time": 113517, "pitch": 36, "duration": 10, "velocity": 92}, {"time": 113517, "pitch": 42, "duration": 10, "velocity": 36}, {"time": 113517, "pitch": 62, "duration": 10, "velocity": 50}, {"time": 113517, "pitch": 70, "duration": 10, "velocity": 30}, {"time": 113517, "pitch": 82, "duration": 10, "velocity": 30}, {"time": 113757, "pitch": 36, "duration": 10, "velocity": 92}, {"time": 113757, "pitch": 42, "duration": 10, "velocity": 64}, {"time": 113757, "pitch": 60, "duration": 10, "velocity": 100}, {"time": 113757, "pitch": 70, "duration": 10, "velocity": 50}, {"time": 113757, "pitch": 82, "duration": 10, "velocity": 60}, {"time": 113996, "pitch": 42, "duration": 10, "velocity": 36}, {"time": 113996, "pitch": 62, "duration": 10, "velocity": 60}, {"time": 113996, "pitch": 70, "duration": 10, "velocity": 30}, {"time": 113996, "pitch": 75, "duration": 10, "velocity": 120}, {"time": 113996, "pitch": 82, "duration": 10, "velocity": 30}, {"time": 114235, "pitch": 42, "duration": 10, "velocity": 64}, {"time": 114235, "pitch": 62, "duration": 10, "velocity": 50}, {"time": 114235, "pitch": 70, "duration": 10, "velocity": 50}, {"time": 114235, "pitch": 82, "duration": 10, "velocity": 100}, {"time": 114480, "pitch": 36, "duration": 10, "velocity": 92}, {"time": 114480, "pitch": 42, "duration": 10, "velocity": 36}, {"time": 114480, "pitch": 60, "duration": 10, "velocity": 100}, {"time": 114480, "pitch": 70, "duration": 10, "velocity": 30}, {"time": 114480, "pitch": 82, "duration": 10, "velocity": 30}, {"time": 114725, "pitch": 36, "duration": 10, "velocity": 92}, {"time": 114725, "pitch": 42, "duration": 10, "velocity": 64}, {"time": 114725, "pitch": 62, "duration": 10, "velocity": 60}, {"time": 114725, "pitch": 70, "duration": 10, "velocity": 50}, {"time": 114725, "pitch": 75, "duration": 10, "velocity": 120}, {"time": 114725, "pitch": 82, "duration": 10, "velocity": 60}, {"time": 114964, "pitch": 42, "duration": 10, "velocity": 36}, {"time": 114964, "pitch": 62, "duration": 10, "velocity": 50}, {"time": 114964, "pitch": 70, "duration": 10, "velocity": 30}, {"time": 114964, "pitch": 82, "duration": 10, "velocity": 30}, {"time": 115203, "pitch": 42, "duration": 10, "velocity": 64}, {"time": 115203, "pitch": 60, "duration": 10, "velocity": 100}, {"time": 115203, "pitch": 70, "duration": 10, "velocity": 50}, {"time": 115203, "pitch": 75, "duration": 10, "velocity": 120}, {"time": 115203, "pitch": 82, "duration": 10, "velocity": 100}, {"time": 115442, "pitch": 36, "duration": 10, "velocity": 92}, {"time": 115442, "pitch": 42, "duration": 10, "velocity": 36}, {"time": 115442, "pitch": 62, "duration": 10, "velocity": 60}, {"time": 115442, "pitch": 70, "duration": 10, "velocity": 30}, {"time": 115442, "pitch": 82, "duration": 10, "velocity": 30}, {"time": 115681, "pitch": 36, "duration": 10, "velocity": 92}, {"time": 115681, "pitch": 42, "duration": 10, "velocity": 64}, {"time": 115681, "pitch": 62, "duration": 10, "velocity": 60}, {"time": 115681, "pitch": 70, "duration": 10, "velocity": 50}, {"time": 115681, "pitch": 75, "duration": 10, "velocity": 120}, {"time": 115681, "pitch": 82, "duration": 10, "velocity": 60}, {"time": 115921, "pitch": 42, "duration": 10, "velocity": 36}, {"time": 115921, "pitch": 62, "duration": 10, "velocity": 50}, {"time": 115921, "pitch": 70, "duration": 10, "velocity": 30}, {"time": 115921, "pitch": 82, "duration": 10, "velocity": 30}, {"time": 116160, "pitch": 42, "duration": 10, "velocity": 64}, {"time": 116160, "pitch": 60, "duration": 10, "velocity": 100}, {"time": 116160, "pitch": 70, "duration": 10, "velocity": 50}, {"time": 116160, "pitch": 82, "duration": 10, "velocity": 100}, {"time": 116399, "pitch": 36, "duration": 10, "velocity": 92}, {"time": 116399, "pitch": 42, "duration": 10, "velocity": 36}, {"time": 116399, "pitch": 62, "duration": 10, "velocity": 60}, {"time": 116399, "pitch": 70, "duration": 10, "velocity": 30}, {"time": 116399, "pitch": 75, "duration": 10, "velocity": 120}, {"time": 116399, "pitch": 82, "duration": 10, "velocity": 30}, {"time": 116638, "pitch": 36, "duration": 10, "velocity": 92}, {"time": 116638, "pitch": 42, "duration": 10, "velocity": 64}, {"time": 116638, "pitch": 62, "duration": 10, "velocity": 50}, {"time": 116638, "pitch": 70, "duration": 10, "velocity": 50}, {"time": 116638, "pitch": 82, "duration": 10, "velocity": 60}, {"time": 116877, "pitch": 42, "duration": 10, "velocity": 36}, {"time": 116877, "pitch": 60, "duration": 10, "velocity": 100}, {"time": 116877, "pitch": 70, "duration": 10, "velocity": 30}, {"time": 116877, "pitch": 82, "duration": 10, "velocity": 30}, {"time": 117117, "pitch": 42, "duration": 10, "velocity": 64}, {"time": 117117, "pitch": 62, "duration": 10, "velocity": 60}, {"time": 117117, "pitch": 70, "duration": 10, "velocity": 50}, {"time": 117117, "pitch": 75, "duration": 10, "velocity": 120}, {"time": 117117, "pitch": 82, "duration": 10, "velocity": 100}, {"time": 117356, "pitch": 36, "duration": 10, "velocity": 92}, {"time": 117356, "pitch": 42, "duration": 10, "velocity": 36}, {"time": 117356, "pitch": 62, "duration": 10, "velocity": 50}, {"time": 117356, "pitch": 70, "duration": 10, "velocity": 30}, {"time": 117356, "pitch": 82, "duration": 10, "velocity": 30}, {"time": 117595, "pitch": 36, "duration": 10, "velocity": 92}, {"time": 117595, "pitch": 42, "duration": 10, "velocity": 64}, {"time": 117595, "pitch": 60, "duration": 10, "velocity": 100}, {"time": 117595, "pitch": 70, "duration": 10, "velocity": 50}, {"time": 117595, "pitch": 82, "duration": 10, "velocity": 60}, {"time": 117840, "pitch": 42, "duration": 10, "velocity": 36}, {"time": 117840, "pitch": 62, "duration": 10, "velocity": 60}, {"time": 117840, "pitch": 70, "duration": 10, "velocity": 30}, {"time": 117840, "pitch": 75, "duration": 10, "velocity": 120}, {"time": 117840, "pitch": 82, "duration": 10, "velocity": 30}, {"time": 118085, "pitch": 42, "duration": 10, "velocity": 64}, {"time": 118085, "pitch": 62, "duration": 10, "velocity": 50}, {"time": 118085, "pitch": 70, "duration": 10, "velocity": 50}, {"time": 118085, "pitch": 82, "duration": 10, "velocity": 100}, {"time": 118324, "pitch": 36, "duration": 10, "velocity": 92}, {"time": 118324, "pitch": 42, "duration": 10, "velocity": 36}, {"time": 118324, "pitch": 60, "duration": 10, "velocity": 100}, {"time": 118324, "pitch": 70, "duration": 10, "velocity": 30}, {"time": 118324, "pitch": 82, "duration": 10, "velocity": 30}, {"time": 118563, "pitch": 36, "duration": 10, "velocity": 92}, {"time": 118563, "pitch": 42, "duration": 10, "velocity": 64}, {"time": 118563, "pitch": 62, "duration": 10, "velocity": 60}, {"time": 118563, "pitch": 70, "duration": 10, "velocity": 50}, {"time": 118563, "pitch": 75, "duration": 10, "velocity": 120}, {"time": 118563, "pitch": 82, "duration": 10, "velocity": 60}, {"time": 118802, "pitch": 42, "duration": 10, "velocity": 36}, {"time": 118802, "pitch": 62, "duration": 10, "velocity": 50}, {"time": 118802, "pitch": 70, "duration": 10, "velocity": 30}, {"time": 118802, "pitch": 82, "duration": 10, "velocity": 30}, {"time": 119041, "pitch": 42, "duration": 10, "velocity": 64}, {"time": 119041, "pitch": 60, "duration": 10, "velocity": 100}, {"time": 119041, "pitch": 70, "duration": 10, "velocity": 50}, {"time": 119041, "pitch": 75, "duration": 10, "velocity": 120}, {"time": 119041, "pitch": 82, "duration": 10, "velocity": 100}, {"time": 119281, "pitch": 36, "duration": 10, "velocity": 92}, {"time": 119281, "pitch": 42, "duration": 10, "velocity": 36}, {"time": 119281, "pitch": 62, "duration": 10, "velocity": 60}, {"time": 119281, "pitch": 70, "duration": 10, "velocity": 30}, {"time": 119281, "pitch": 82, "duration": 10, "velocity": 30}, {"time": 119520, "pitch": 36, "duration": 10, "velocity": 92}, {"time": 119520, "pitch": 42, "duration": 10, "velocity": 64}, {"time": 119520, "pitch": 62, "duration": 10, "velocity": 60}, {"time": 119520, "pitch": 70, "duration": 10, "velocity": 50}, {"time": 119520, "pitch": 75, "duration": 10, "velocity": 120}, {"time": 119520, "pitch": 82, "duration": 10, "velocity": 60}, {"time": 119759, "pitch": 42, "duration": 10, "velocity": 36}, {"time": 119759, "pitch": 62, "duration": 10, "velocity": 50}, {"time": 119759, "pitch": 70, "duration": 10, "velocity": 30}, {"time": 119759, "pitch": 82, "duration": 10, "velocity": 30}, {"time": 119998, "pitch": 42, "duration": 10, "velocity": 64}, {"time": 119998, "pitch": 60, "duration": 10, "velocity": 100}, {"time": 119998, "pitch": 70, "duration": 10, "velocity": 50}, {"time": 119998, "pitch": 82, "duration": 10, "velocity": 100}, {"time": 120237, "pitch": 36, "duration": 10, "velocity": 92}, {"time": 120237, "pitch": 42, "duration": 10, "velocity": 36}, {"time": 120237, "pitch": 62, "duration": 10, "velocity": 60}, {"time": 120237, "pitch": 70, "duration": 10, "velocity": 30}, {"time": 120237, "pitch": 75, "duration": 10, "velocity": 120}, {"time": 120237, "pitch": 82, "duration": 10, "velocity": 30}, {"time": 120477, "pitch": 36, "duration": 10, "velocity": 92}, {"time": 120477, "pitch": 42, "duration": 10, "velocity": 64}, {"time": 120477, "pitch": 62, "duration": 10, "velocity": 50}, {"time": 120477, "pitch": 70, "duration": 10, "velocity": 50}, {"time": 120477, "pitch": 82, "duration": 10, "velocity": 60}, {"time": 120716, "pitch": 42, "duration": 10, "velocity": 36}, {"time": 120716, "pitch": 60, "duration": 10, "velocity": 100}, {"time": 120716, "pitch": 70, "duration": 10, "velocity": 30}, {"time": 120716, "pitch": 82, "duration": 10, "velocity": 30}, {"time": 120955, "pitch": 42, "duration": 10, "velocity": 64}, {"time": 120955, "pitch": 62, "duration": 10, "velocity": 60}, {"time": 120955, "pitch": 70, "duration": 10, "velocity": 50}, {"time": 120955, "pitch": 75, "duration": 10, "velocity": 120}, {"time": 120955, "pitch": 82, "duration": 10, "velocity": 100}, {"time": 121200, "pitch": 36, "duration": 10, "velocity": 92}, {"time": 121200, "pitch": 42, "duration": 10, "velocity": 36}, {"time": 121200, "pitch": 62, "duration": 10, "velocity": 50}, {"time": 121200, "pitch": 70, "duration": 10, "velocity": 30}, {"time": 121200, "pitch": 82, "duration": 10, "velocity": 30}, {"time": 121445, "pitch": 36, "duration": 10, "velocity": 92}, {"time": 121445, "pitch": 42, "duration": 10, "velocity": 64}, {"time": 121445, "pitch": 60, "duration": 10, "velocity": 100}, {"time": 121445, "pitch": 70, "duration": 10, "velocity": 50}, {"time": 121445, "pitch": 82, "duration": 10, "velocity": 60}, {"time": 121684, "pitch": 42, "duration": 10, "velocity": 36}, {"time": 121684, "pitch": 62, "duration": 10, "velocity": 60}, {"time": 121684, "pitch": 70, "duration": 10, "velocity": 30}, {"time": 121684, "pitch": 75, "duration": 10, "velocity": 120}, {"time": 121684, "pitch": 82, "duration": 10, "velocity": 30}, {"time": 121923, "pitch": 42, "duration": 10, "velocity": 64}, {"time": 121923, "pitch": 62, "duration": 10, "velocity": 50}, {"time": 121923, "pitch": 70, "duration": 10, "velocity": 50}, {"time": 121923, "pitch": 82, "duration": 10, "velocity": 100}, {"time": 122162, "pitch": 36, "duration": 10, "velocity": 92}, {"time": 122162, "pitch": 42, "duration": 10, "velocity": 36}, {"time": 122162, "pitch": 60, "duration": 10, "velocity": 100}, {"time": 122162, "pitch": 70, "duration": 10, "velocity": 30}, {"time": 122162, "pitch": 82, "duration": 10, "velocity": 30}, {"time": 122401, "pitch": 36, "duration": 10, "velocity": 92}, {"time": 122401, "pitch": 42, "duration": 10, "velocity": 64}, {"time": 122401, "pitch": 62, "duration": 10, "velocity": 60}, {"time": 122401, "pitch": 70, "duration": 10, "velocity": 50}, {"time": 122401, "pitch": 75, "duration": 10, "velocity": 120}, {"time": 122401, "pitch": 82, "duration": 10, "velocity": 60}, {"time": 122641, "pitch": 42, "duration": 10, "velocity": 36}, {"time": 122641, "pitch": 62, "duration": 10, "velocity": 50}, {"time": 122641, "pitch": 70, "duration": 10, "velocity": 30}, {"time": 122641, "pitch": 82, "duration": 10, "velocity": 30}, {"time": 122880, "pitch": 42, "duration": 10, "velocity": 64}, {"time": 122880, "pitch": 60, "duration": 10, "velocity": 100}, {"time": 122880, "pitch": 70, "duration": 10, "velocity": 50}, {"time": 122880, "pitch": 75, "duration": 10, "velocity": 120}, {"time": 122880, "pitch": 82, "duration": 10, "velocity": 100}, {"time": 123119, "pitch": 36, "duration": 10, "velocity": 92}, {"time": 123119, "pitch": 42, "duration": 10, "velocity": 36}, {"time": 123119, "pitch": 62, "duration": 10, "velocity": 60}, {"time": 123119, "pitch": 70, "duration": 10, "velocity": 30}, {"time": 123119, "pitch": 82, "duration": 10, "velocity": 30}, {"time": 123358, "pitch": 36, "duration": 10, "velocity": 92}, {"time": 123358, "pitch": 42, "duration": 10, "velocity": 64}, {"time": 123358, "pitch": 62, "duration": 10, "velocity": 60}, {"time": 123358, "pitch": 70, "duration": 10, "velocity": 50}, {"time": 123358, "pitch": 75, "duration": 10, "velocity": 120}, {"time": 123358, "pitch": 82, "duration": 10, "velocity": 60}, {"time": 123597, "pitch": 42, "duration": 10, "velocity": 36}, {"time": 123597, "pitch": 62, "duration": 10, "velocity": 50}, {"time": 123597, "pitch": 70, "duration": 10, "velocity": 30}, {"time": 123597, "pitch": 82, "duration": 10, "velocity": 30}, {"time": 123837, "pitch": 42, "duration": 10, "velocity": 64}, {"time": 123837, "pitch": 60, "duration": 10, "velocity": 100}, {"time": 123837, "pitch": 70, "duration": 10, "velocity": 50}, {"time": 123837, "pitch": 82, "duration": 10, "velocity": 100}, {"time": 124076, "pitch": 36, "duration": 10, "velocity": 92}, {"time": 124076, "pitch": 42, "duration": 10, "velocity": 36}, {"time": 124076, "pitch": 62, "duration": 10, "velocity": 60}, {"time": 124076, "pitch": 70, "duration": 10, "velocity": 30}, {"time": 124076, "pitch": 75, "duration": 10, "velocity": 120}, {"time": 124076, "pitch": 82, "duration": 10, "velocity": 30}, {"time": 124315, "pitch": 36, "duration": 10, "velocity": 92}, {"time": 124315, "pitch": 42, "duration": 10, "velocity": 64}, {"time": 124315, "pitch": 62, "duration": 10, "velocity": 50}, {"time": 124315, "pitch": 70, "duration": 10, "velocity": 50}, {"time": 124315, "pitch": 82, "duration": 10, "velocity": 60}, {"time": 124560, "pitch": 42, "duration": 10, "velocity": 36}, {"time": 124560, "pitch": 60, "duration": 10, "velocity": 100}, {"time": 124560, "pitch": 70, "duration": 10, "velocity": 30}, {"time": 124560, "pitch": 82, "duration": 10, "velocity": 30}, {"time": 124805, "pitch": 42, "duration": 10, "velocity": 64}, {"time": 124805, "pitch": 62, "duration": 10, "velocity": 60}, {"time": 124805, "pitch": 70, "duration": 10, "velocity": 50}, {"time": 124805, "pitch": 75, "duration": 10, "velocity": 120}, {"time": 124805, "pitch": 82, "duration": 10, "velocity": 100}, {"time": 125044, "pitch": 36, "duration": 10, "velocity": 92}, {"time": 125044, "pitch": 42, "duration": 10, "velocity": 36}, {"time": 125044, "pitch": 62, "duration": 10, "velocity": 50}, {"time": 125044, "pitch": 70, "duration": 10, "velocity": 30}, {"time": 125044, "pitch": 82, "duration": 10, "velocity": 30}, {"time": 125283, "pitch": 36, "duration": 10, "velocity": 92}, {"time": 125283, "pitch": 42, "duration": 10, "velocity": 64}, {"time": 125283, "pitch": 60, "duration": 10, "velocity": 100}, {"time": 125283, "pitch": 70, "duration": 10, "velocity": 50}, {"time": 125283, "pitch": 82, "duration": 10, "velocity": 60}, {"time": 125522, "pitch": 42, "duration": 10, "velocity": 36}, {"time": 125522, "pitch": 62, "duration": 10, "velocity": 60}, {"time": 125522, "pitch": 70, "duration": 10, "velocity": 30}, {"time": 125522, "pitch": 75, "duration": 10, "velocity": 120}, {"time": 125522, "pitch": 82, "duration": 10, "velocity": 30}, {"time": 125761, "pitch": 42, "duration": 10, "velocity": 64}, {"time": 125761, "pitch": 62, "duration": 10, "velocity": 50}, {"time": 125761, "pitch": 70, "duration": 10, "velocity": 50}, {"time": 125761, "pitch": 82, "duration": 10, "velocity": 100}, {"time": 126001, "pitch": 36, "duration": 10, "velocity": 92}, {"time": 126001, "pitch": 42, "duration": 10, "velocity": 36}, {"time": 126001, "pitch": 60, "duration": 10, "velocity": 100}, {"time": 126001, "pitch": 70, "duration": 10, "velocity": 30}, {"time": 126001, "pitch": 82, "duration": 10, "velocity": 30}, {"time": 126240, "pitch": 36, "duration": 10, "velocity": 92}, {"time": 126240, "pitch": 42, "duration": 10, "velocity": 64}, {"time": 126240, "pitch": 62, "duration": 10, "velocity": 60}, {"time": 126240, "pitch": 70, "duration": 10, "velocity": 50}, {"time": 126240, "pitch": 75, "duration": 10, "velocity": 120}, {"time": 126240, "pitch": 82, "duration": 10, "velocity": 60}, {"time": 126479, "pitch": 42, "duration": 10, "velocity": 36}, {"time": 126479, "pitch": 62, "duration": 10, "velocity": 50}, {"time": 126479, "pitch": 70, "duration": 10, "velocity": 30}, {"time": 126479, "pitch": 82, "duration": 10, "velocity": 30}, {"time": 126718, "pitch": 42, "duration": 10, "velocity": 64}, {"time": 126718, "pitch": 60, "duration": 10, "velocity": 100}, {"time": 126718, "pitch": 70, "duration": 10, "velocity": 50}, {"time": 126718, "pitch": 75, "duration": 10, "velocity": 120}, {"time": 126718, "pitch": 82, "duration": 10, "velocity": 100}, {"time": 126957, "pitch": 36, "duration": 10, "velocity": 92}, {"time": 126957, "pitch": 42, "duration": 10, "velocity": 36}, {"time": 126957, "pitch": 62, "duration": 10, "velocity": 60}, {"time": 126957, "pitch": 70, "duration": 10, "velocity": 30}, {"time": 126957, "pitch": 82, "duration": 10, "velocity": 30}, {"time": 127197, "pitch": 36, "duration": 10, "velocity": 92}, {"time": 127197, "pitch": 42, "duration": 10, "velocity": 64}, {"time": 127197, "pitch": 62, "duration": 10, "velocity": 60}, {"time": 127197, "pitch": 70, "duration": 10, "velocity": 50}, {"time": 127197, "pitch": 75, "duration": 10, "velocity": 120}, {"time": 127197, "pitch": 82, "duration": 10, "velocity": 60}, {"time": 127436, "pitch": 42, "duration": 10, "velocity": 36}, {"time": 127436, "pitch": 62, "duration": 10, "velocity": 50}, {"time": 127436, "pitch": 70, "duration": 10, "velocity": 30}, {"time": 127436, "pitch": 82, "duration": 10, "velocity": 30}, {"time": 127675, "pitch": 42, "duration": 10, "velocity": 64}, {"time": 127675, "pitch": 60, "duration": 10, "velocity": 100}, {"time": 127675, "pitch": 70, "duration": 10, "velocity": 50}, {"time": 127675, "pitch": 82, "duration": 10, "velocity": 100}, {"time": 127920, "pitch": 36, "duration": 10, "velocity": 92}, {"time": 127920, "pitch": 42, "duration": 10, "velocity": 36}, {"time": 127920, "pitch": 62, "duration": 10, "velocity": 60}, {"time": 127920, "pitch": 70, "duration": 10, "velocity": 30}, {"time": 127920, "pitch": 75, "duration": 10, "velocity": 120}, {"time": 127920, "pitch": 82, "duration": 10, "velocity": 30}, {"time": 128165, "pitch": 36, "duration": 10, "velocity": 92}, {"time": 128165, "pitch": 42, "duration": 10, "velocity": 64}, {"time": 128165, "pitch": 62, "duration": 10, "velocity": 50}, {"time": 128165, "pitch": 70, "duration": 10, "velocity": 50}, {"time": 128165, "pitch": 82, "duration": 10, "velocity": 60}, {"time": 128404, "pitch": 42, "duration": 10, "velocity": 36}, {"time": 128404, "pitch": 60, "duration": 10, "velocity": 100}, {"time": 128404, "pitch": 70, "duration": 10, "velocity": 30}, {"time": 128404, "pitch": 82, "duration": 10, "velocity": 30}, {"time": 128643, "pitch": 42, "duration": 10, "velocity": 64}, {"time": 128643, "pitch": 62, "duration": 10, "velocity": 60}, {"time": 128643, "pitch": 70, "duration": 10, "velocity": 50}, {"time": 128643, "pitch": 75, "duration": 10, "velocity": 120}, {"time": 128643, "pitch": 82, "duration": 10, "velocity": 100}, {"time": 128882, "pitch": 36, "duration": 10, "velocity": 92}, {"time": 128882, "pitch": 42, "duration": 10, "velocity": 36}, {"time": 128882, "pitch": 62, "duration": 10, "velocity": 50}, {"time": 128882, "pitch": 70, "duration": 10, "velocity": 30}, {"time": 128882, "pitch": 82, "duration": 10, "velocity": 30}, {"time": 129121, "pitch": 36, "duration": 10, "velocity": 92}, {"time": 129121, "pitch": 42, "duration": 10, "velocity": 64}, {"time": 129121, "pitch": 60, "duration": 10, "velocity": 100}, {"time": 129121, "pitch": 70, "duration": 10, "velocity": 50}, {"time": 129121, "pitch": 82, "duration": 10, "velocity": 60}, {"time": 129361, "pitch": 42, "duration": 10, "velocity": 36}, {"time": 129361, "pitch": 62, "duration": 10, "velocity": 60}, {"time": 129361, "pitch": 70, "duration": 10, "velocity": 30}, {"time": 129361, "pitch": 75, "duration": 10, "velocity": 120}, {"time": 129361, "pitch": 82, "duration": 10, "velocity": 30}, {"time": 129600, "pitch": 42, "duration": 10, "velocity": 64}, {"time": 129600, "pitch": 62, "duration": 10, "velocity": 50}, {"time": 129600, "pitch": 70, "duration": 10, "velocity": 50}, {"time": 129600, "pitch": 82, "duration": 10, "velocity": 100}, {"time": 129839, "pitch": 36, "duration": 10, "velocity": 92}, {"time": 129839, "pitch": 42, "duration": 10, "velocity": 36}, {"time": 129839, "pitch": 60, "duration": 10, "velocity": 100}, {"time": 129839, "pitch": 70, "duration": 10, "velocity": 30}, {"time": 129839, "pitch": 82, "duration": 10, "velocity": 30}, {"time": 130078, "pitch": 36, "duration": 10, "velocity": 92}, {"time": 130078, "pitch": 42, "duration": 10, "velocity": 64}, {"time": 130078, "pitch": 62, "duration": 10, "velocity": 60}, {"time": 130078, "pitch": 70, "duration": 10, "velocity": 50}, {"time": 130078, "pitch": 75, "duration": 10, "velocity": 120}, {"time": 130078, "pitch": 82, "duration": 10, "velocity": 60}, {"time": 130317, "pitch": 42, "duration": 10, "velocity": 36}, {"time": 130317, "pitch": 62, "duration": 10, "velocity": 50}, {"time": 130317, "pitch": 70, "duration": 10, "velocity": 30}, {"time": 130317, "pitch": 82, "duration": 10, "velocity": 30}, {"time": 130557, "pitch": 42, "duration": 10, "velocity": 64}, {"time": 130557, "pitch": 60, "duration": 10, "velocity": 100}, {"time": 130557, "pitch": 70, "duration": 10, "velocity": 50}, {"time": 130557, "pitch": 75, "duration": 10, "velocity": 120}, {"time": 130557, "pitch": 82, "duration": 10, "velocity": 100}, {"time": 130796, "pitch": 36, "duration": 10, "velocity": 92}, {"time": 130796, "pitch": 42, "duration": 10, "velocity": 36}, {"time": 130796, "pitch": 62, "duration": 10, "velocity": 60}, {"time": 130796, "pitch": 70, "duration": 10, "velocity": 30}, {"time": 130796, "pitch": 82, "duration": 10, "velocity": 30}, {"time": 131035, "pitch": 36, "duration": 10, "velocity": 92}, {"time": 131035, "pitch": 42, "duration": 10, "velocity": 64}, {"time": 131035, "pitch": 62, "duration": 10, "velocity": 60}, {"time": 131035, "pitch": 70, "duration": 10, "velocity": 50}, {"time": 131035, "pitch": 75, "duration": 10, "velocity": 120}, {"time": 131035, "pitch": 82, "duration": 10, "velocity": 60}, {"time": 131280, "pitch": 42, "duration": 10, "velocity": 36}, {"time": 131280, "pitch": 62, "duration": 10, "velocity": 50}, {"time": 131280, "pitch": 70, "duration": 10, "velocity": 30}, {"time": 131280, "pitch": 82, "duration": 10, "velocity": 30}, {"time": 131525, "pitch": 42, "duration": 10, "velocity": 64}, {"time": 131525, "pitch": 60, "duration": 10, "velocity": 100}, {"time": 131525, "pitch": 70, "duration": 10, "velocity": 50}, {"time": 131525, "pitch": 82, "duration": 10, "velocity": 100}, {"time": 131764, "pitch": 36, "duration": 10, "velocity": 92}, {"time": 131764, "pitch": 42, "duration": 10, "velocity": 36}, {"time": 131764, "pitch": 62, "duration": 10, "velocity": 60}, {"time": 131764, "pitch": 70, "duration": 10, "velocity": 30}, {"time": 131764, "pitch": 75, "duration": 10, "velocity": 120}, {"time": 131764, "pitch": 82, "duration": 10, "velocity": 30}, {"time": 132003, "pitch": 36, "duration": 10, "velocity": 92}, {"time": 132003, "pitch": 42, "duration": 10, "velocity": 64}, {"time": 132003, "pitch": 62, "duration": 10, "velocity": 50}, {"time": 132003, "pitch": 70, "duration": 10, "velocity": 50}, {"time": 132003, "pitch": 82, "duration": 10, "velocity": 60}, {"time": 132242, "pitch": 42, "duration": 10, "velocity": 36}, {"time": 132242, "pitch": 60, "duration": 10, "velocity": 100}, {"time": 132242, "pitch": 70, "duration": 10, "velocity": 30}, {"time": 132242, "pitch": 82, "duration": 10, "velocity": 30}, {"time": 132481, "pitch": 42, "duration": 10, "velocity": 64}, {"time": 132481, "pitch": 62, "duration": 10, "velocity": 60}, {"time": 132481, "pitch": 70, "duration": 10, "velocity": 50}, {"time": 132481, "pitch": 75, "duration": 10, "velocity": 120}, {"time": 132481, "pitch": 82, "duration": 10, "velocity": 100}, {"time": 132721, "pitch": 36, "duration": 10, "velocity": 92}, {"time": 132721, "pitch": 42, "duration": 10, "velocity": 36}, {"time": 132721, "pitch": 62, "duration": 10, "velocity": 50}, {"time": 132721, "pitch": 70, "duration": 10, "velocity": 30}, {"time": 132721, "pitch": 82, "duration": 10, "velocity": 30}, {"time": 132960, "pitch": 36, "duration": 10, "velocity": 92}, {"time": 132960, "pitch": 42, "duration": 10, "velocity": 64}, {"time": 132960, "pitch": 60, "duration": 10, "velocity": 100}, {"time": 132960, "pitch": 70, "duration": 10, "velocity": 50}, {"time": 132960, "pitch": 82, "duration": 10, "velocity": 60}, {"time": 133199, "pitch": 42, "duration": 10, "velocity": 36}, {"time": 133199, "pitch": 62, "duration": 10, "velocity": 60}, {"time": 133199, "pitch": 70, "duration": 10, "velocity": 30}, {"time": 133199, "pitch": 75, "duration": 10, "velocity": 120}, {"time": 133199, "pitch": 82, "duration": 10, "velocity": 30}, {"time": 133438, "pitch": 42, "duration": 10, "velocity": 64}, {"time": 133438, "pitch": 62, "duration": 10, "velocity": 50}, {"time": 133438, "pitch": 70, "duration": 10, "velocity": 50}, {"time": 133438, "pitch": 82, "duration": 10, "velocity": 100}, {"time": 133677, "pitch": 36, "duration": 10, "velocity": 92}, {"time": 133677, "pitch": 42, "duration": 10, "velocity": 36}, {"time": 133677, "pitch": 60, "duration": 10, "velocity": 100}, {"time": 133677, "pitch": 70, "duration": 10, "velocity": 30}, {"time": 133677, "pitch": 82, "duration": 10, "velocity": 30}, {"time": 133917, "pitch": 36, "duration": 10, "velocity": 92}, {"time": 133917, "pitch": 42, "duration": 10, "velocity": 64}, {"time": 133917, "pitch": 62, "duration": 10, "velocity": 60}, {"time": 133917, "pitch": 70, "duration": 10, "velocity": 50}, {"time": 133917, "pitch": 75, "duration": 10, "velocity": 120}, {"time": 133917, "pitch": 82, "duration": 10, "velocity": 60}, {"time": 134156, "pitch": 42, "duration": 10, "velocity": 36}, {"time": 134156, "pitch": 62, "duration": 10, "velocity": 50}, {"time": 134156, "pitch": 70, "duration": 10, "velocity": 30}, {"time": 134156, "pitch": 82, "duration": 10, "velocity": 30}, {"time": 134395, "pitch": 42, "duration": 10, "velocity": 64}, {"time": 134395, "pitch": 60, "duration": 10, "velocity": 100}, {"time": 134395, "pitch": 70, "duration": 10, "velocity": 50}, {"time": 134395, "pitch": 75, "duration": 10, "velocity": 120}, {"time": 134395, "pitch": 82, "duration": 10, "velocity": 100}, {"time": 134640, "pitch": 36, "duration": 10, "velocity": 92}, {"time": 134640, "pitch": 42, "duration": 10, "velocity": 36}, {"time": 134640, "pitch": 62, "duration": 10, "velocity": 60}, {"time": 134640, "pitch": 70, "duration": 10, "velocity": 30}, {"time": 134640, "pitch": 82, "duration": 10, "velocity": 30}, {"time": 134885, "pitch": 36, "duration": 10, "velocity": 92}, {"time": 134885, "pitch": 42, "duration": 10, "velocity": 64}, {"time": 134885, "pitch": 62, "duration": 10, "velocity": 60}, {"time": 134885, "pitch": 70, "duration": 10, "velocity": 50}, {"time": 134885, "pitch": 75, "duration": 10, "velocity": 120}, {"time": 134885, "pitch": 82, "duration": 10, "velocity": 60}, {"time": 135124, "pitch": 42, "duration": 10, "velocity": 36}, {"time": 135124, "pitch": 62, "duration": 10, "velocity": 50}, {"time": 135124, "pitch": 70, "duration": 10, "velocity": 30}, {"time": 135124, "pitch": 82, "duration": 10, "velocity": 30}, {"time": 135363, "pitch": 42, "duration": 10, "velocity": 64}, {"time": 135363, "pitch": 60, "duration": 10, "velocity": 100}, {"time": 135363, "pitch": 70, "duration": 10, "velocity": 50}, {"time": 135363, "pitch": 82, "duration": 10, "velocity": 100}, {"time": 135602, "pitch": 36, "duration": 10, "velocity": 92}, {"time": 135602, "pitch": 42, "duration": 10, "velocity": 36}, {"time": 135602, "pitch": 62, "duration": 10, "velocity": 60}, {"time": 135602, "pitch": 70, "duration": 10, "velocity": 30}, {"time": 135602, "pitch": 75, "duration": 10, "velocity": 120}, {"time": 135602, "pitch": 82, "duration": 10, "velocity": 30}, {"time": 135841, "pitch": 36, "duration": 10, "velocity": 92}, {"time": 135841, "pitch": 42, "duration": 10, "velocity": 64}, {"time": 135841, "pitch": 62, "duration": 10, "velocity": 50}, {"time": 135841, "pitch": 70, "duration": 10, "velocity": 50}, {"time": 135841, "pitch": 82, "duration": 10, "velocity": 60}, {"time": 136081, "pitch": 42, "duration": 10, "velocity": 36}, {"time": 136081, "pitch": 60, "duration": 10, "velocity": 100}, {"time": 136081, "pitch": 70, "duration": 10, "velocity": 30}, {"time": 136081, "pitch": 82, "duration": 10, "velocity": 30}, {"time": 136320, "pitch": 42, "duration": 10, "velocity": 64}, {"time": 136320, "pitch": 62, "duration": 10, "velocity": 60}, {"time": 136320, "pitch": 70, "duration": 10, "velocity": 50}, {"time": 136320, "pitch": 75, "duration": 10, "velocity": 120}, {"time": 136320, "pitch": 82, "duration": 10, "velocity": 100}, {"time": 136559, "pitch": 36, "duration": 10, "velocity": 92}, {"time": 136559, "pitch": 42, "duration": 10, "velocity": 36}, {"time": 136559, "pitch": 62, "duration": 10, "velocity": 50}, {"time": 136559, "pitch": 70, "duration": 10, "velocity": 30}, {"time": 136559, "pitch": 82, "duration": 10, "velocity": 30}, {"time": 136798, "pitch": 36, "duration": 10, "velocity": 92}, {"time": 136798, "pitch": 42, "duration": 10, "velocity": 64}, {"time": 136798, "pitch": 60, "duration": 10, "velocity": 100}, {"time": 136798, "pitch": 70, "duration": 10, "velocity": 50}, {"time": 136798, "pitch": 82, "duration": 10, "velocity": 60}, {"time": 137037, "pitch": 42, "duration": 10, "velocity": 36}, {"time": 137037, "pitch": 62, "duration": 10, "velocity": 60}, {"time": 137037, "pitch": 70, "duration": 10, "velocity": 30}, {"time": 137037, "pitch": 75, "duration": 10, "velocity": 120}, {"time": 137037, "pitch": 82, "duration": 10, "velocity": 30}, {"time": 137277, "pitch": 42, "duration": 10, "velocity": 64}, {"time": 137277, "pitch": 62, "duration": 10, "velocity": 50}, {"time": 137277, "pitch": 70, "duration": 10, "velocity": 50}, {"time": 137277, "pitch": 82, "duration": 10, "velocity": 100}, {"time": 137516, "pitch": 36, "duration": 10, "velocity": 92}, {"time": 137516, "pitch": 42, "duration": 10, "velocity": 36}, {"time": 137516, "pitch": 60, "duration": 10, "velocity": 100}, {"time": 137516, "pitch": 70, "duration": 10, "velocity": 30}, {"time": 137516, "pitch": 82, "duration": 10, "velocity": 30}, {"time": 137755, "pitch": 36, "duration": 10, "velocity": 92}, {"time": 137755, "pitch": 42, "duration": 10, "velocity": 64}, {"time": 137755, "pitch": 62, "duration": 10, "velocity": 60}, {"time": 137755, "pitch": 70, "duration": 10, "velocity": 50}, {"time": 137755, "pitch": 75, "duration": 10, "velocity": 120}, {"time": 137755, "pitch": 82, "duration": 10, "velocity": 60}, {"time": 138000, "pitch": 42, "duration": 10, "velocity": 36}, {"time": 138000, "pitch": 62, "duration": 10, "velocity": 50}, {"time": 138000, "pitch": 70, "duration": 10, "velocity": 30}, {"time": 138000, "pitch": 82, "duration": 10, "velocity": 30}, {"time": 138245, "pitch": 42, "duration": 10, "velocity": 64}, {"time": 138245, "pitch": 60, "duration": 10, "velocity": 100}, {"time": 138245, "pitch": 70, "duration": 10, "velocity": 50}, {"time": 138245, "pitch": 75, "duration": 10, "velocity": 120}, {"time": 138245, "pitch": 82, "duration": 10, "velocity": 100}, {"time": 138484, "pitch": 36, "duration": 10, "velocity": 92}, {"time": 138484, "pitch": 42, "duration": 10, "velocity": 36}, {"time": 138484, "pitch": 62, "duration": 10, "velocity": 60}, {"time": 138484, "pitch": 70, "duration": 10, "velocity": 30}, {"time": 138484, "pitch": 82, "duration": 10, "velocity": 30}, {"time": 138723, "pitch": 36, "duration": 10, "velocity": 92}, {"time": 138723, "pitch": 42, "duration": 10, "velocity": 64}, {"time": 138723, "pitch": 62, "duration": 10, "velocity": 60}, {"time": 138723, "pitch": 70, "duration": 10, "velocity": 50}, {"time": 138723, "pitch": 75, "duration": 10, "velocity": 120}, {"time": 138723, "pitch": 82, "duration": 10, "velocity": 60}, {"time": 138962, "pitch": 42, "duration": 10, "velocity": 36}, {"time": 138962, "pitch": 62, "duration": 10, "velocity": 50}, {"time": 138962, "pitch": 70, "duration": 10, "velocity": 30}, {"time": 138962, "pitch": 82, "duration": 10, "velocity": 30}, {"time": 139201, "pitch": 42, "duration": 10, "velocity": 64}, {"time": 139201, "pitch": 60, "duration": 10, "velocity": 100}, {"time": 139201, "pitch": 70, "duration": 10, "velocity": 50}, {"time": 139201, "pitch": 82, "duration": 10, "velocity": 100}, {"time": 139441, "pitch": 36, "duration": 10, "velocity": 92}, {"time": 139441, "pitch": 42, "duration": 10, "velocity": 36}, {"time": 139441, "pitch": 62, "duration": 10, "velocity": 60}, {"time": 139441, "pitch": 70, "duration": 10, "velocity": 30}, {"time": 139441, "pitch": 75, "duration": 10, "velocity": 120}, {"time": 139441, "pitch": 82, "duration": 10, "velocity": 30}, {"time": 139680, "pitch": 36, "duration": 10, "velocity": 92}, {"time": 139680, "pitch": 42, "duration": 10, "velocity": 64}, {"time": 139680, "pitch": 62, "duration": 10, "velocity": 50}, {"time": 139680, "pitch": 70, "duration": 10, "velocity": 50}, {"time": 139680, "pitch": 82, "duration": 10, "velocity": 60}, {"time": 139919, "pitch": 42, "duration": 10, "velocity": 36}, {"time": 139919, "pitch": 60, "duration": 10, "velocity": 100}, {"time": 139919, "pitch": 70, "duration": 10, "velocity": 30}, {"time": 139919, "pitch": 82, "duration": 10, "velocity": 30}, {"time": 140158, "pitch": 42, "duration": 10, "velocity": 64}, {"time": 140158, "pitch": 62, "duration": 10, "velocity": 60}, {"time": 140158, "pitch": 70, "duration": 10, "velocity": 50}, {"time": 140158, "pitch": 75, "duration": 10, "velocity": 120}, {"time": 140158, "pitch": 82, "duration": 10, "velocity": 100}, {"time": 140397, "pitch": 36, "duration": 10, "velocity": 92}, {"time": 140397, "pitch": 42, "duration": 10, "velocity": 36}, {"time": 140397, "pitch": 62, "duration": 10, "velocity": 50}, {"time": 140397, "pitch": 70, "duration": 10, "velocity": 30}, {"time": 140397, "pitch": 82, "duration": 10, "velocity": 30}, {"time": 140637, "pitch": 36, "duration": 10, "velocity": 92}, {"time": 140637, "pitch": 42, "duration": 10, "velocity": 64}, {"time": 140637, "pitch": 60, "duration": 10, "velocity": 100}, {"time": 140637, "pitch": 70, "duration": 10, "velocity": 50}, {"time": 140637, "pitch": 82, "duration": 10, "velocity": 60}, {"time": 140876, "pitch": 42, "duration": 10, "velocity": 36}, {"time": 140876, "pitch": 62, "duration": 10, "velocity": 60}, {"time": 140876, "pitch": 70, "duration": 10, "velocity": 30}, {"time": 140876, "pitch": 75, "duration": 10, "velocity": 120}, {"time": 140876, "pitch": 82, "duration": 10, "velocity": 30}, {"time": 141115, "pitch": 42, "duration": 10, "velocity": 64}, {"time": 141115, "pitch": 62, "duration": 10, "velocity": 50}, {"time": 141115, "pitch": 70, "duration": 10, "velocity": 50}, {"time": 141115, "pitch": 82, "duration": 10, "velocity": 100}, {"time": 141360, "pitch": 36, "duration": 10, "velocity": 92}, {"time": 141360, "pitch": 42, "duration": 10, "velocity": 36}, {"time": 141360, "pitch": 60, "duration": 10, "velocity": 100}, {"time": 141360, "pitch": 70, "duration": 10, "velocity": 30}, {"time": 141360, "pitch": 82, "duration": 10, "velocity": 30}, {"time": 141605, "pitch": 36, "duration": 10, "velocity": 92}, {"time": 141605, "pitch": 42, "duration": 10, "velocity": 64}, {"time": 141605, "pitch": 62, "duration": 10, "velocity": 60}, {"time": 141605, "pitch": 70, "duration": 10, "velocity": 50}, {"time": 141605, "pitch": 75, "duration": 10, "velocity": 120}, {"time": 141605, "pitch": 82, "duration": 10, "velocity": 60}, {"time": 141844, "pitch": 42, "duration": 10, "velocity": 36}, {"time": 141844, "pitch": 62, "duration": 10, "velocity": 50}, {"time": 141844, "pitch": 70, "duration": 10, "velocity": 30}, {"time": 141844, "pitch": 82, "duration": 10, "velocity": 30}, {"time": 142083, "pitch": 42, "duration": 10, "velocity": 64}, {"time": 142083, "pitch": 60, "duration": 10, "velocity": 100}, {"time": 142083, "pitch": 70, "duration": 10, "velocity": 50}, {"time": 142083, "pitch": 75, "duration": 10, "velocity": 120}, {"time": 142083, "pitch": 82, "duration": 10, "velocity": 100}, {"time": 142322, "pitch": 36, "duration": 10, "velocity": 92}, {"time": 142322, "pitch": 42, "duration": 10, "velocity": 36}, {"time": 142322, "pitch": 62, "duration": 10, "velocity": 60}, {"time": 142322, "pitch": 70, "duration": 10, "velocity": 30}, {"time": 142322, "pitch": 82, "duration": 10, "velocity": 30}, {"time": 142561, "pitch": 36, "duration": 10, "velocity": 92}, {"time": 142561, "pitch": 42, "duration": 10, "velocity": 64}, {"time": 142561, "pitch": 62, "duration": 10, "velocity": 60}, {"time": 142561, "pitch": 70, "duration": 10, "velocity": 50}, {"time": 142561, "pitch": 75, "duration": 10, "velocity": 120}, {"time": 142561, "pitch": 82, "duration": 10, "velocity": 60}, {"time": 142801, "pitch": 42, "duration": 10, "velocity": 36}, {"time": 142801, "pitch": 62, "duration": 10, "velocity": 50}, {"time": 142801, "pitch": 70, "duration": 10, "velocity": 30}, {"time": 142801, "pitch": 82, "duration": 10, "velocity": 30}, {"time": 143040, "pitch": 42, "duration": 10, "velocity": 64}, {"time": 143040, "pitch": 60, "duration": 10, "velocity": 100}, {"time": 143040, "pitch": 70, "duration": 10, "velocity": 50}, {"time": 143040, "pitch": 82, "duration": 10, "velocity": 100}, {"time": 143279, "pitch": 36, "duration": 10, "velocity": 92}, {"time": 143279, "pitch": 42, "duration": 10, "velocity": 36}, {"time": 143279, "pitch": 62, "duration": 10, "velocity": 60}, {"time": 143279, "pitch": 70, "duration": 10, "velocity": 30}, {"time": 143279, "pitch": 75, "duration": 10, "velocity": 120}, {"time": 143279, "pitch": 82, "duration": 10, "velocity": 30}, {"time": 143518, "pitch": 36, "duration": 10, "velocity": 92}, {"time": 143518, "pitch": 42, "duration": 10, "velocity": 64}, {"time": 143518, "pitch": 62, "duration": 10, "velocity": 50}, {"time": 143518, "pitch": 70, "duration": 10, "velocity": 50}, {"time": 143518, "pitch": 82, "duration": 10, "velocity": 60}, {"time": 143757, "pitch": 42, "duration": 10, "velocity": 36}, {"time": 143757, "pitch": 60, "duration": 10, "velocity": 100}, {"time": 143757, "pitch": 70, "duration": 10, "velocity": 30}, {"time": 143757, "pitch": 82, "duration": 10, "velocity": 30}, {"time": 143997, "pitch": 42, "duration": 10, "velocity": 64}, {"time": 143997, "pitch": 62, "duration": 10, "velocity": 60}, {"time": 143997, "pitch": 70, "duration": 10, "velocity": 50}, {"time": 143997, "pitch": 75, "duration": 10, "velocity": 120}, {"time": 143997, "pitch": 82, "duration": 10, "velocity": 100}, {"time": 144236, "pitch": 36, "duration": 10, "velocity": 92}, {"time": 144236, "pitch": 42, "duration": 10, "velocity": 36}, {"time": 144236, "pitch": 62, "duration": 10, "velocity": 50}, {"time": 144236, "pitch": 70, "duration": 10, "velocity": 30}, {"time": 144236, "pitch": 82, "duration": 10, "velocity": 30}, {"time": 144475, "pitch": 36, "duration": 10, "velocity": 92}, {"time": 144475, "pitch": 42, "duration": 10, "velocity": 64}, {"time": 144475, "pitch": 60, "duration": 10, "velocity": 100}, {"time": 144475, "pitch": 70, "duration": 10, "velocity": 50}, {"time": 144475, "pitch": 82, "duration": 10, "velocity": 60}, {"time": 144720, "pitch": 42, "duration": 10, "velocity": 36}, {"time": 144720, "pitch": 62, "duration": 10, "velocity": 60}, {"time": 144720, "pitch": 70, "duration": 10, "velocity": 30}, {"time": 144720, "pitch": 75, "duration": 10, "velocity": 120}, {"time": 144720, "pitch": 82, "duration": 10, "velocity": 30}, {"time": 144965, "pitch": 42, "duration": 10, "velocity": 64}, {"time": 144965, "pitch": 62, "duration": 10, "velocity": 50}, {"time": 144965, "pitch": 70, "duration": 10, "velocity": 50}, {"time": 144965, "pitch": 82, "duration": 10, "velocity": 100}, {"time": 145204, "pitch": 36, "duration": 10, "velocity": 92}, {"time": 145204, "pitch": 42, "duration": 10, "velocity": 36}, {"time": 145204, "pitch": 60, "duration": 10, "velocity": 100}, {"time": 145204, "pitch": 70, "duration": 10, "velocity": 30}, {"time": 145204, "pitch": 82, "duration": 10, "velocity": 30}, {"time": 145443, "pitch": 36, "duration": 10, "velocity": 92}, {"time": 145443, "pitch": 42, "duration": 10, "velocity": 64}, {"time": 145443, "pitch": 62, "duration": 10, "velocity": 60}, {"time": 145443, "pitch": 70, "duration": 10, "velocity": 50}, {"time": 145443, "pitch": 75, "duration": 10, "velocity": 120}, {"time": 145443, "pitch": 82, "duration": 10, "velocity": 60}, {"time": 145682, "pitch": 42, "duration": 10, "velocity": 36}, {"time": 145682, "pitch": 62, "duration": 10, "velocity": 50}, {"time": 145682, "pitch": 70, "duration": 10, "velocity": 30}, {"time": 145682, "pitch": 82, "duration": 10, "velocity": 30}, {"time": 145921, "pitch": 42, "duration": 10, "velocity": 64}, {"time": 145921, "pitch": 60, "duration": 10, "velocity": 100}, {"time": 145921, "pitch": 70, "duration": 10, "velocity": 50}, {"time": 145921, "pitch": 75, "duration": 10, "velocity": 120}, {"time": 145921, "pitch": 82, "duration": 10, "velocity": 100}, {"time": 146161, "pitch": 36, "duration": 10, "velocity": 92}, {"time": 146161, "pitch": 42, "duration": 10, "velocity": 36}, {"time": 146161, "pitch": 62, "duration": 10, "velocity": 60}, {"time": 146161, "pitch": 70, "duration": 10, "velocity": 30}, {"time": 146161, "pitch": 82, "duration": 10, "velocity": 30}, {"time": 146400, "pitch": 36, "duration": 10, "velocity": 92}, {"time": 146400, "pitch": 42, "duration": 10, "velocity": 64}, {"time": 146400, "pitch": 62, "duration": 10, "velocity": 60}, {"time": 146400, "pitch": 70, "duration": 10, "velocity": 50}, {"time": 146400, "pitch": 75, "duration": 10, "velocity": 120}, {"time": 146400, "pitch": 82, "duration": 10, "velocity": 60}, {"time": 146639, "pitch": 42, "duration": 10, "velocity": 36}, {"time": 146639, "pitch": 62, "duration": 10, "velocity": 50}, {"time": 146639, "pitch": 70, "duration": 10, "velocity": 30}, {"time": 146639, "pitch": 82, "duration": 10, "velocity": 30}, {"time": 146878, "pitch": 42, "duration": 10, "velocity": 64}, {"time": 146878, "pitch": 60, "duration": 10, "velocity": 100}, {"time": 146878, "pitch": 70, "duration": 10, "velocity": 50}, {"time": 146878, "pitch": 82, "duration": 10, "velocity": 100}, {"time": 147117, "pitch": 36, "duration": 10, "velocity": 92}, {"time": 147117, "pitch": 42, "duration": 10, "velocity": 36}, {"time": 147117, "pitch": 62, "duration": 10, "velocity": 60}, {"time": 147117, "pitch": 70, "duration": 10, "velocity": 30}, {"time": 147117, "pitch": 75, "duration": 10, "velocity": 120}, {"time": 147117, "pitch": 82, "duration": 10, "velocity": 30}, {"time": 147357, "pitch": 36, "duration": 10, "velocity": 92}, {"time": 147357, "pitch": 42, "duration": 10, "velocity": 64}, {"time": 147357, "pitch": 62, "duration": 10, "velocity": 50}, {"time": 147357, "pitch": 70, "duration": 10, "velocity": 50}, {"time": 147357, "pitch": 82, "duration": 10, "velocity": 60}, {"time": 147596, "pitch": 42, "duration": 10, "velocity": 36}, {"time": 147596, "pitch": 60, "duration": 10, "velocity": 100}, {"time": 147596, "pitch": 70, "duration": 10, "velocity": 30}, {"time": 147596, "pitch": 82, "duration": 10, "velocity": 30}, {"time": 147835, "pitch": 42, "duration": 10, "velocity": 64}, {"time": 147835, "pitch": 62, "duration": 10, "velocity": 60}, {"time": 147835, "pitch": 70, "duration": 10, "velocity": 50}, {"time": 147835, "pitch": 75, "duration": 10, "velocity": 120}, {"time": 147835, "pitch": 82, "duration": 10, "velocity": 100}, {"time": 148080, "pitch": 36, "duration": 10, "velocity": 92}, {"time": 148080, "pitch": 42, "duration": 10, "velocity": 36}, {"time": 148080, "pitch": 62, "duration": 10, "velocity": 50}, {"time": 148080, "pitch": 70, "duration": 10, "velocity": 30}, {"time": 148080, "pitch": 82, "duration": 10, "velocity": 30}, {"time": 148325, "pitch": 36, "duration": 10, "velocity": 92}, {"time": 148325, "pitch": 42, "duration": 10, "velocity": 64}, {"time": 148325, "pitch": 60, "duration": 10, "velocity": 100}, {"time": 148325, "pitch": 70, "duration": 10, "velocity": 50}, {"time": 148325, "pitch": 82, "duration": 10, "velocity": 60}, {"time": 148564, "pitch": 42, "duration": 10, "velocity": 36}, {"time": 148564, "pitch": 62, "duration": 10, "velocity": 60}, {"time": 148564, "pitch": 70, "duration": 10, "velocity": 30}, {"time": 148564, "pitch": 75, "duration": 10, "velocity": 120}, {"time": 148564, "pitch": 82, "duration": 10, "velocity": 30}, {"time": 148803, "pitch": 42, "duration": 10, "velocity": 64}, {"time": 148803, "pitch": 62, "duration": 10, "velocity": 50}, {"time": 148803, "pitch": 70, "duration": 10, "velocity": 50}, {"time": 148803, "pitch": 82, "duration": 10, "velocity": 100}, {"time": 149042, "pitch": 36, "duration": 10, "velocity": 92}, {"time": 149042, "pitch": 42, "duration": 10, "velocity": 36}, {"time": 149042, "pitch": 60, "duration": 10, "velocity": 100}, {"time": 149042, "pitch": 70, "duration": 10, "velocity": 30}, {"time": 149042, "pitch": 82, "duration": 10, "velocity": 30}, {"time": 149281, "pitch": 36, "duration": 10, "velocity": 92}, {"time": 149281, "pitch": 42, "duration": 10, "velocity": 64}, {"time": 149281, "pitch": 62, "duration": 10, "velocity": 60}, {"time": 149281, "pitch": 70, "duration": 10, "velocity": 50}, {"time": 149281, "pitch": 75, "duration": 10, "velocity": 120}, {"time": 149281, "pitch": 82, "duration": 10, "velocity": 60}, {"time": 149521, "pitch": 42, "duration": 10, "velocity": 36}, {"time": 149521, "pitch": 62, "duration": 10, "velocity": 50}, {"time": 149521, "pitch": 70, "duration": 10, "velocity": 30}, {"time": 149521, "pitch": 82, "duration": 10, "velocity": 30}, {"time": 149760, "pitch": 42, "duration": 10, "velocity": 64}, {"time": 149760, "pitch": 60, "duration": 10, "velocity": 100}, {"time": 149760, "pitch": 70, "duration": 10, "velocity": 50}, {"time": 149760, "pitch": 75, "duration": 10, "velocity": 120}, {"time": 149760, "pitch": 82, "duration": 10, "velocity": 100}, {"time": 149999, "pitch": 36, "duration": 10, "velocity": 92}, {"time": 149999, "pitch": 42, "duration": 10, "velocity": 36}, {"time": 149999, "pitch": 62, "duration": 10, "velocity": 60}, {"time": 149999, "pitch": 70, "duration": 10, "velocity": 30}, {"time": 149999, "pitch": 82, "duration": 10, "velocity": 30}, {"time": 150238, "pitch": 36, "duration": 10, "velocity": 92}, {"time": 150238, "pitch": 42, "duration": 10, "velocity": 64}, {"time": 150238, "pitch": 62, "duration": 10, "velocity": 60}, {"time": 150238, "pitch": 70, "duration": 10, "velocity": 50}, {"time": 150238, "pitch": 75, "duration": 10, "velocity": 120}, {"time": 150238, "pitch": 82, "duration": 10, "velocity": 60}, {"time": 150477, "pitch": 42, "duration": 10, "velocity": 36}, {"time": 150477, "pitch": 62, "duration": 10, "velocity": 50}, {"time": 150477, "pitch": 70, "duration": 10, "velocity": 30}, {"time": 150477, "pitch": 82, "duration": 10, "velocity": 30}, {"time": 150717, "pitch": 42, "duration": 10, "velocity": 64}, {"time": 150717, "pitch": 60, "duration": 10, "velocity": 100}, {"time": 150717, "pitch": 70, "duration": 10, "velocity": 50}, {"time": 150717, "pitch": 82, "duration": 10, "velocity": 100}, {"time": 150956, "pitch": 36, "duration": 10, "velocity": 92}, {"time": 150956, "pitch": 42, "duration": 10, "velocity": 36}, {"time": 150956, "pitch": 62, "duration": 10, "velocity": 60}, {"time": 150956, "pitch": 70, "duration": 10, "velocity": 30}, {"time": 150956, "pitch": 75, "duration": 10, "velocity": 120}, {"time": 150956, "pitch": 82, "duration": 10, "velocity": 30}, {"time": 151195, "pitch": 36, "duration": 10, "velocity": 92}, {"time": 151195, "pitch": 42, "duration": 10, "velocity": 64}, {"time": 151195, "pitch": 62, "duration": 10, "velocity": 50}, {"time": 151195, "pitch": 70, "duration": 10, "velocity": 50}, {"time": 151195, "pitch": 82, "duration": 10, "velocity": 60}, {"time": 151440, "pitch": 42, "duration": 10, "velocity": 36}, {"time": 151440, "pitch": 60, "duration": 10, "velocity": 100}, {"time": 151440, "pitch": 70, "duration": 10, "velocity": 30}, {"time": 151440, "pitch": 82, "duration": 10, "velocity": 30}, {"time": 151685, "pitch": 42, "duration": 10, "velocity": 64}, {"time": 151685, "pitch": 62, "duration": 10, "velocity": 60}, {"time": 151685, "pitch": 70, "duration": 10, "velocity": 50}, {"time": 151685, "pitch": 75, "duration": 10, "velocity": 120}, {"time": 151685, "pitch": 82, "duration": 10, "velocity": 100}, {"time": 151924, "pitch": 36, "duration": 10, "velocity": 92}, {"time": 151924, "pitch": 42, "duration": 10, "velocity": 36}, {"time": 151924, "pitch": 62, "duration": 10, "velocity": 50}, {"time": 151924, "pitch": 70, "duration": 10, "velocity": 30}, {"time": 151924, "pitch": 82, "duration": 10, "velocity": 30}, {"time": 152163, "pitch": 36, "duration": 10, "velocity": 92}, {"time": 152163, "pitch": 42, "duration": 10, "velocity": 64}, {"time": 152163, "pitch": 60, "duration": 10, "velocity": 100}, {"time": 152163, "pitch": 70, "duration": 10, "velocity": 50}, {"time": 152163, "pitch": 82, "duration": 10, "velocity": 60}, {"time": 152402, "pitch": 42, "duration": 10, "velocity": 36}, {"time": 152402, "pitch": 62, "duration": 10, "velocity": 60}, {"time": 152402, "pitch": 70, "duration": 10, "velocity": 30}, {"time": 152402, "pitch": 75, "duration": 10, "velocity": 120}, {"time": 152402, "pitch": 82, "duration": 10, "velocity": 30}, {"time": 152641, "pitch": 42, "duration": 10, "velocity": 64}, {"time": 152641, "pitch": 62, "duration": 10, "velocity": 50}, {"time": 152641, "pitch": 70, "duration": 10, "velocity": 50}, {"time": 152641, "pitch": 82, "duration": 10, "velocity": 100}, {"time": 152881, "pitch": 36, "duration": 10, "velocity": 92}, {"time": 152881, "pitch": 42, "duration": 10, "velocity": 36}, {"time": 152881, "pitch": 60, "duration": 10, "velocity": 100}, {"time": 152881, "pitch": 70, "duration": 10, "velocity": 30}, {"time": 152881, "pitch": 82, "duration": 10, "velocity": 30}, {"time": 153120, "pitch": 36, "duration": 10, "velocity": 92}, {"time": 153120, "pitch": 42, "duration": 10, "velocity": 64}, {"time": 153120, "pitch": 62, "duration": 10, "velocity": 60}, {"time": 153120, "pitch": 70, "duration": 10, "velocity": 50}, {"time": 153120, "pitch": 75, "duration": 10, "velocity": 120}, {"time": 153120, "pitch": 82, "duration": 10, "velocity": 60}, {"time": 153359, "pitch": 42, "duration": 10, "velocity": 36}, {"time": 153359, "pitch": 62, "duration": 10, "velocity": 50}, {"time": 153359, "pitch": 70, "duration": 10, "velocity": 30}, {"time": 153359, "pitch": 82, "duration": 10, "velocity": 30}, {"time": 153598, "pitch": 42, "duration": 10, "velocity": 64}, {"time": 153598, "pitch": 60, "duration": 10, "velocity": 100}, {"time": 153598, "pitch": 70, "duration": 10, "velocity": 50}, {"time": 153598, "pitch": 75, "duration": 10, "velocity": 120}, {"time": 153598, "pitch": 82, "duration": 10, "velocity": 100}, {"time": 153837, "pitch": 36, "duration": 10, "velocity": 92}, {"time": 153837, "pitch": 42, "duration": 10, "velocity": 36}, {"time": 153837, "pitch": 62, "duration": 10, "velocity": 60}, {"time": 153837, "pitch": 70, "duration": 10, "velocity": 30}, {"time": 153837, "pitch": 82, "duration": 10, "velocity": 30}, {"time": 154077, "pitch": 36, "duration": 10, "velocity": 92}, {"time": 154077, "pitch": 42, "duration": 10, "velocity": 64}, {"time": 154077, "pitch": 62, "duration": 10, "velocity": 60}, {"time": 154077, "pitch": 70, "duration": 10, "velocity": 50}, {"time": 154077, "pitch": 75, "duration": 10, "velocity": 120}, {"time": 154077, "pitch": 82, "duration": 10, "velocity": 60}, {"time": 154316, "pitch": 42, "duration": 10, "velocity": 36}, {"time": 154316, "pitch": 62, "duration": 10, "velocity": 50}, {"time": 154316, "pitch": 70, "duration": 10, "velocity": 30}, {"time": 154316, "pitch": 82, "duration": 10, "velocity": 30}, {"time": 154555, "pitch": 42, "duration": 10, "velocity": 64}, {"time": 154555, "pitch": 60, "duration": 10, "velocity": 100}, {"time": 154555, "pitch": 70, "duration": 10, "velocity": 50}, {"time": 154555, "pitch": 82, "duration": 10, "velocity": 100}, {"time": 154800, "pitch": 36, "duration": 10, "velocity": 92}, {"time": 154800, "pitch": 42, "duration": 10, "velocity": 36}, {"time": 154800, "pitch": 62, "duration": 10, "velocity": 60}, {"time": 154800, "pitch": 70, "duration": 10, "velocity": 30}, {"time": 154800, "pitch": 75, "duration": 10, "velocity": 120}, {"time": 154800, "pitch": 82, "duration": 10, "velocity": 30}, {"time": 155045, "pitch": 36, "duration": 10, "velocity": 92}, {"time": 155045, "pitch": 42, "duration": 10, "velocity": 64}, {"time": 155045, "pitch": 62, "duration": 10, "velocity": 50}, {"time": 155045, "pitch": 70, "duration": 10, "velocity": 50}, {"time": 155045, "pitch": 82, "duration": 10, "velocity": 60}, {"time": 155284, "pitch": 42, "duration": 10, "velocity": 36}, {"time": 155284, "pitch": 60, "duration": 10, "velocity": 100}, {"time": 155284, "pitch": 70, "duration": 10, "velocity": 30}, {"time": 155284, "pitch": 82, "duration": 10, "velocity": 30}, {"time": 155523, "pitch": 42, "duration": 10, "velocity": 64}, {"time": 155523, "pitch": 62, "duration": 10, "velocity": 60}, {"time": 155523, "pitch": 70, "duration": 10, "velocity": 50}, {"time": 155523, "pitch": 75, "duration": 10, "velocity": 120}, {"time": 155523, "pitch": 82, "duration": 10, "velocity": 100}, {"time": 155762, "pitch": 36, "duration": 10, "velocity": 92}, {"time": 155762, "pitch": 42, "duration": 10, "velocity": 36}, {"time": 155762, "pitch": 62, "duration": 10, "velocity": 50}, {"time": 155762, "pitch": 70, "duration": 10, "velocity": 30}, {"time": 155762, "pitch": 82, "duration": 10, "velocity": 30}, {"time": 156001, "pitch": 36, "duration": 10, "velocity": 92}, {"time": 156001, "pitch": 42, "duration": 10, "velocity": 64}, {"time": 156001, "pitch": 60, "duration": 10, "velocity": 100}, {"time": 156001, "pitch": 70, "duration": 10, "velocity": 50}, {"time": 156001, "pitch": 82, "duration": 10, "velocity": 60}, {"time": 156241, "pitch": 42, "duration": 10, "velocity": 36}, {"time": 156241, "pitch": 62, "duration": 10, "velocity": 60}, {"time": 156241, "pitch": 70, "duration": 10, "velocity": 30}, {"time": 156241, "pitch": 75, "duration": 10, "velocity": 120}, {"time": 156241, "pitch": 82, "duration": 10, "velocity": 30}, {"time": 156480, "pitch": 42, "duration": 10, "velocity": 64}, {"time": 156480, "pitch": 62, "duration": 10, "velocity": 50}, {"time": 156480, "pitch": 70, "duration": 10, "velocity": 50}, {"time": 156480, "pitch": 82, "duration": 10, "velocity": 100}, {"time": 156719, "pitch": 36, "duration": 10, "velocity": 92}, {"time": 156719, "pitch": 42, "duration": 10, "velocity": 36}, {"time": 156719, "pitch": 60, "duration": 10, "velocity": 100}, {"time": 156719, "pitch": 70, "duration": 10, "velocity": 30}, {"time": 156719, "pitch": 82, "duration": 10, "velocity": 30}, {"time": 156958, "pitch": 36, "duration": 10, "velocity": 92}, {"time": 156958, "pitch": 42, "duration": 10, "velocity": 64}, {"time": 156958, "pitch": 62, "duration": 10, "velocity": 60}, {"time": 156958, "pitch": 70, "duration": 10, "velocity": 50}, {"time": 156958, "pitch": 75, "duration": 10, "velocity": 120}, {"time": 156958, "pitch": 82, "duration": 10, "velocity": 60}, {"time": 157197, "pitch": 42, "duration": 10, "velocity": 36}, {"time": 157197, "pitch": 62, "duration": 10, "velocity": 50}, {"time": 157197, "pitch": 70, "duration": 10, "velocity": 30}, {"time": 157197, "pitch": 82, "duration": 10, "velocity": 30}, {"time": 157437, "pitch": 42, "duration": 10, "velocity": 64}, {"time": 157437, "pitch": 60, "duration": 10, "velocity": 100}, {"time": 157437, "pitch": 70, "duration": 10, "velocity": 50}, {"time": 157437, "pitch": 75, "duration": 10, "velocity": 120}, {"time": 157437, "pitch": 82, "duration": 10, "velocity": 100}, {"time": 157676, "pitch": 36, "duration": 10, "velocity": 92}, {"time": 157676, "pitch": 42, "duration": 10, "velocity": 36}, {"time": 157676, "pitch": 62, "duration": 10, "velocity": 60}, {"time": 157676, "pitch": 70, "duration": 10, "velocity": 30}, {"time": 157676, "pitch": 82, "duration": 10, "velocity": 30}, {"time": 157915, "pitch": 36, "duration": 10, "velocity": 92}, {"time": 157915, "pitch": 42, "duration": 10, "velocity": 64}, {"time": 157915, "pitch": 62, "duration": 10, "velocity": 60}, {"time": 157915, "pitch": 70, "duration": 10, "velocity": 50}, {"time": 157915, "pitch": 75, "duration": 10, "velocity": 120}, {"time": 157915, "pitch": 82, "duration": 10, "velocity": 60}, {"time": 158160, "pitch": 42, "duration": 10, "velocity": 36}, {"time": 158160, "pitch": 62, "duration": 10, "velocity": 50}, {"time": 158160, "pitch": 70, "duration": 10, "velocity": 30}, {"time": 158160, "pitch": 82, "duration": 10, "velocity": 30}, {"time": 158405, "pitch": 42, "duration": 10, "velocity": 64}, {"time": 158405, "pitch": 60, "duration": 10, "velocity": 100}, {"time": 158405, "pitch": 70, "duration": 10, "velocity": 50}, {"time": 158405, "pitch": 82, "duration": 10, "velocity": 100}, {"time": 158644, "pitch": 36, "duration": 10, "velocity": 92}, {"time": 158644, "pitch": 42, "duration": 10, "velocity": 36}, {"time": 158644, "pitch": 62, "duration": 10, "velocity": 60}, {"time": 158644, "pitch": 70, "duration": 10, "velocity": 30}, {"time": 158644, "pitch": 75, "duration": 10, "velocity": 120}, {"time": 158644, "pitch": 82, "duration": 10, "velocity": 30}, {"time": 158883, "pitch": 36, "duration": 10, "velocity": 92}, {"time": 158883, "pitch": 42, "duration": 10, "velocity": 64}, {"time": 158883, "pitch": 62, "duration": 10, "velocity": 50}, {"time": 158883, "pitch": 70, "duration": 10, "velocity": 50}, {"time": 158883, "pitch": 82, "duration": 10, "velocity": 60}, {"time": 159122, "pitch": 42, "duration": 10, "velocity": 36}, {"time": 159122, "pitch": 60, "duration": 10, "velocity": 100}, {"time": 159122, "pitch": 70, "duration": 10, "velocity": 30}, {"time": 159122, "pitch": 82, "duration": 10, "velocity": 30}, {"time": 159361, "pitch": 42, "duration": 10, "velocity": 64}, {"time": 159361, "pitch": 62, "duration": 10, "velocity": 60}, {"time": 159361, "pitch": 70, "duration": 10, "velocity": 50}, {"time": 159361, "pitch": 75, "duration": 10, "velocity": 120}, {"time": 159361, "pitch": 82, "duration": 10, "velocity": 100}, {"time": 159601, "pitch": 36, "duration": 10, "velocity": 92}, {"time": 159601, "pitch": 42, "duration": 10, "velocity": 36}, {"time": 159601, "pitch": 62, "duration": 10, "velocity": 50}, {"time": 159601, "pitch": 70, "duration": 10, "velocity": 30}, {"time": 159601, "pitch": 82, "duration": 10, "velocity": 30}, {"time": 159840, "pitch": 36, "duration": 10, "velocity": 92}, {"time": 159840, "pitch": 42, "duration": 10, "velocity": 64}, {"time": 159840, "pitch": 60, "duration": 10, "velocity": 100}, {"time": 159840, "pitch": 70, "duration": 10, "velocity": 50}, {"time": 159840, "pitch": 82, "duration": 10, "velocity": 60}, {"time": 160079, "pitch": 42, "duration": 10, "velocity": 36}, {"time": 160079, "pitch": 62, "duration": 10, "velocity": 60}, {"time": 160079, "pitch": 70, "duration": 10, "velocity": 30}, {"time": 160079, "pitch": 75, "duration": 10, "velocity": 120}, {"time": 160079, "pitch": 82, "duration": 10, "velocity": 30}, {"time": 160318, "pitch": 42, "duration": 10, "velocity": 64}, {"time": 160318, "pitch": 62, "duration": 10, "velocity": 50}, {"time": 160318, "pitch": 70, "duration": 10, "velocity": 50}, {"time": 160318, "pitch": 82, "duration": 10, "velocity": 100}, {"time": 160557, "pitch": 36, "duration": 10, "velocity": 92}, {"time": 160557, "pitch": 42, "duration": 10, "velocity": 36}, {"time": 160557, "pitch": 60, "duration": 10, "velocity": 100}, {"time": 160557, "pitch": 70, "duration": 10, "velocity": 30}, {"time": 160557, "pitch": 82, "duration": 10, "velocity": 30}, {"time": 160797, "pitch": 36, "duration": 10, "velocity": 92}, {"time": 160797, "pitch": 42, "duration": 10, "velocity": 64}, {"time": 160797, "pitch": 62, "duration": 10, "velocity": 60}, {"time": 160797, "pitch": 70, "duration": 10, "velocity": 50}, {"time": 160797, "pitch": 75, "duration": 10, "velocity": 120}, {"time": 160797, "pitch": 82, "duration": 10, "velocity": 60}, {"time": 161036, "pitch": 42, "duration": 10, "velocity": 36}, {"time": 161036, "pitch": 62, "duration": 10, "velocity": 50}, {"time": 161036, "pitch": 70, "duration": 10, "velocity": 30}, {"time": 161036, "pitch": 82, "duration": 10, "velocity": 30}, {"time": 161275, "pitch": 42, "duration": 10, "velocity": 64}, {"time": 161275, "pitch": 60, "duration": 10, "velocity": 100}, {"time": 161275, "pitch": 70, "duration": 10, "velocity": 50}, {"time": 161275, "pitch": 75, "duration": 10, "velocity": 120}, {"time": 161275, "pitch": 82, "duration": 10, "velocity": 100}, {"time": 161520, "pitch": 36, "duration": 10, "velocity": 92}, {"time": 161520, "pitch": 42, "duration": 10, "velocity": 36}, {"time": 161520, "pitch": 62, "duration": 10, "velocity": 60}, {"time": 161520, "pitch": 70, "duration": 10, "velocity": 30}, {"time": 161520, "pitch": 82, "duration": 10, "velocity": 30}, {"time": 161765, "pitch": 36, "duration": 10, "velocity": 92}, {"time": 161765, "pitch": 42, "duration": 10, "velocity": 64}, {"time": 161765, "pitch": 62, "duration": 10, "velocity": 60}, {"time": 161765, "pitch": 70, "duration": 10, "velocity": 50}, {"time": 161765, "pitch": 75, "duration": 10, "velocity": 120}, {"time": 161765, "pitch": 82, "duration": 10, "velocity": 60}, {"time": 162004, "pitch": 42, "duration": 10, "velocity": 36}, {"time": 162004, "pitch": 62, "duration": 10, "velocity": 50}, {"time": 162004, "pitch": 70, "duration": 10, "velocity": 30}, {"time": 162004, "pitch": 82, "duration": 10, "velocity": 30}, {"time": 162243, "pitch": 42, "duration": 10, "velocity": 64}, {"time": 162243, "pitch": 60, "duration": 10, "velocity": 100}, {"time": 162243, "pitch": 70, "duration": 10, "velocity": 50}, {"time": 162243, "pitch": 82, "duration": 10, "velocity": 100}, {"time": 162482, "pitch": 36, "duration": 10, "velocity": 92}, {"time": 162482, "pitch": 42, "duration": 10, "velocity": 36}, {"time": 162482, "pitch": 62, "duration": 10, "velocity": 60}, {"time": 162482, "pitch": 70, "duration": 10, "velocity": 30}, {"time": 162482, "pitch": 75, "duration": 10, "velocity": 120}, {"time": 162482, "pitch": 82, "duration": 10, "velocity": 30}, {"time": 162721, "pitch": 36, "duration": 10, "velocity": 92}, {"time": 162721, "pitch": 42, "duration": 10, "velocity": 64}, {"time": 162721, "pitch": 62, "duration": 10, "velocity": 50}, {"time": 162721, "pitch": 70, "duration": 10, "velocity": 50}, {"time": 162721, "pitch": 82, "duration": 10, "velocity": 60}, {"time": 162961, "pitch": 42, "duration": 10, "velocity": 36}, {"time": 162961, "pitch": 60, "duration": 10, "velocity": 100}, {"time": 162961, "pitch": 70, "duration": 10, "velocity": 30}, {"time": 162961, "pitch": 82, "duration": 10, "velocity": 30}, {"time": 163200, "pitch": 42, "duration": 10, "velocity": 64}, {"time": 163200, "pitch": 62, "duration": 10, "velocity": 60}, {"time": 163200, "pitch": 70, "duration": 10, "velocity": 50}, {"time": 163200, "pitch": 75, "duration": 10, "velocity": 120}, {"time": 163200, "pitch": 82, "duration": 10, "velocity": 100}, {"time": 163439, "pitch": 36, "duration": 10, "velocity": 92}, {"time": 163439, "pitch": 42, "duration": 10, "velocity": 36}, {"time": 163439, "pitch": 62, "duration": 10, "velocity": 50}, {"time": 163439, "pitch": 70, "duration": 10, "velocity": 30}, {"time": 163439, "pitch": 82, "duration": 10, "velocity": 30}, {"time": 163678, "pitch": 36, "duration": 10, "velocity": 92}, {"time": 163678, "pitch": 42, "duration": 10, "velocity": 64}, {"time": 163678, "pitch": 60, "duration": 10, "velocity": 100}, {"time": 163678, "pitch": 70, "duration": 10, "velocity": 50}, {"time": 163678, "pitch": 82, "duration": 10, "velocity": 60}, {"time": 163917, "pitch": 42, "duration": 10, "velocity": 36}, {"time": 163917, "pitch": 62, "duration": 10, "velocity": 60}, {"time": 163917, "pitch": 70, "duration": 10, "velocity": 30}, {"time": 163917, "pitch": 75, "duration": 10, "velocity": 120}, {"time": 163917, "pitch": 82, "duration": 10, "velocity": 30}, {"time": 164157, "pitch": 42, "duration": 10, "velocity": 64}, {"time": 164157, "pitch": 62, "duration": 10, "velocity": 50}, {"time": 164157, "pitch": 70, "duration": 10, "velocity": 50}, {"time": 164157, "pitch": 82, "duration": 10, "velocity": 100}, {"time": 164396, "pitch": 36, "duration": 10, "velocity": 92}, {"time": 164396, "pitch": 42, "duration": 10, "velocity": 36}, {"time": 164396, "pitch": 60, "duration": 10, "velocity": 100}, {"time": 164396, "pitch": 70, "duration": 10, "velocity": 30}, {"time": 164396, "pitch": 82, "duration": 10, "velocity": 30}, {"time": 164635, "pitch": 36, "duration": 10, "velocity": 92}, {"time": 164635, "pitch": 42, "duration": 10, "velocity": 64}, {"time": 164635, "pitch": 62, "duration": 10, "velocity": 60}, {"time": 164635, "pitch": 70, "duration": 10, "velocity": 50}, {"time": 164635, "pitch": 75, "duration": 10, "velocity": 120}, {"time": 164635, "pitch": 82, "duration": 10, "velocity": 60}, {"time": 164880, "pitch": 42, "duration": 10, "velocity": 36}, {"time": 164880, "pitch": 62, "duration": 10, "velocity": 50}, {"time": 164880, "pitch": 70, "duration": 10, "velocity": 30}, {"time": 164880, "pitch": 82, "duration": 10, "velocity": 30}, {"time": 165125, "pitch": 42, "duration": 10, "velocity": 64}, {"time": 165125, "pitch": 60, "duration": 10, "velocity": 100}, {"time": 165125, "pitch": 70, "duration": 10, "velocity": 50}, {"time": 165125, "pitch": 75, "duration": 10, "velocity": 120}, {"time": 165125, "pitch": 82, "duration": 10, "velocity": 100}, {"time": 165364, "pitch": 36, "duration": 10, "velocity": 92}, {"time": 165364, "pitch": 42, "duration": 10, "velocity": 36}, {"time": 165364, "pitch": 62, "duration": 10, "velocity": 60}, {"time": 165364, "pitch": 70, "duration": 10, "velocity": 30}, {"time": 165364, "pitch": 82, "duration": 10, "velocity": 30}, {"time": 165603, "pitch": 36, "duration": 10, "velocity": 92}, {"time": 165603, "pitch": 42, "duration": 10, "velocity": 64}, {"time": 165603, "pitch": 62, "duration": 10, "velocity": 60}, {"time": 165603, "pitch": 70, "duration": 10, "velocity": 50}, {"time": 165603, "pitch": 75, "duration": 10, "velocity": 120}, {"time": 165603, "pitch": 82, "duration": 10, "velocity": 60}, {"time": 165842, "pitch": 42, "duration": 10, "velocity": 36}, {"time": 165842, "pitch": 62, "duration": 10, "velocity": 50}, {"time": 165842, "pitch": 70, "duration": 10, "velocity": 30}, {"time": 165842, "pitch": 82, "duration": 10, "velocity": 30}, {"time": 166081, "pitch": 42, "duration": 10, "velocity": 64}, {"time": 166081, "pitch": 60, "duration": 10, "velocity": 100}, {"time": 166081, "pitch": 70, "duration": 10, "velocity": 50}, {"time": 166081, "pitch": 82, "duration": 10, "velocity": 100}, {"time": 166321, "pitch": 36, "duration": 10, "velocity": 92}, {"time": 166321, "pitch": 42, "duration": 10, "velocity": 36}, {"time": 166321, "pitch": 62, "duration": 10, "velocity": 60}, {"time": 166321, "pitch": 70, "duration": 10, "velocity": 30}, {"time": 166321, "pitch": 75, "duration": 10, "velocity": 120}, {"time": 166321, "pitch": 82, "duration": 10, "velocity": 30}, {"time": 166560, "pitch": 36, "duration": 10, "velocity": 92}, {"time": 166560, "pitch": 42, "duration": 10, "velocity": 64}, {"time": 166560, "pitch": 62, "duration": 10, "velocity": 50}, {"time": 166560, "pitch": 70, "duration": 10, "velocity": 50}, {"time": 166560, "pitch": 82, "duration": 10, "velocity": 60}, {"time": 166799, "pitch": 42, "duration": 10, "velocity": 36}, {"time": 166799, "pitch": 60, "duration": 10, "velocity": 100}, {"time": 166799, "pitch": 70, "duration": 10, "velocity": 30}, {"time": 166799, "pitch": 82, "duration": 10, "velocity": 30}, {"time": 167038, "pitch": 42, "duration": 10, "velocity": 64}, {"time": 167038, "pitch": 62, "duration": 10, "velocity": 60}, {"time": 167038, "pitch": 70, "duration": 10, "velocity": 50}, {"time": 167038, "pitch": 75, "duration": 10, "velocity": 120}, {"time": 167038, "pitch": 82, "duration": 10, "velocity": 100}, {"time": 167277, "pitch": 36, "duration": 10, "velocity": 92}, {"time": 167277, "pitch": 42, "duration": 10, "velocity": 36}, {"time": 167277, "pitch": 62, "duration": 10, "velocity": 50}, {"time": 167277, "pitch": 70, "duration": 10, "velocity": 30}, {"time": 167277, "pitch": 82, "duration": 10, "velocity": 30}, {"time": 167517, "pitch": 36, "duration": 10, "velocity": 92}, {"time": 167517, "pitch": 42, "duration": 10, "velocity": 64}, {"time": 167517, "pitch": 60, "duration": 10, "velocity": 100}, {"time": 167517, "pitch": 70, "duration": 10, "velocity": 50}, {"time": 167517, "pitch": 82, "duration": 10, "velocity": 60}, {"time": 167756, "pitch": 42, "duration": 10, "velocity": 36}, {"time": 167756, "pitch": 62, "duration": 10, "velocity": 60}, {"time": 167756, "pitch": 70, "duration": 10, "velocity": 30}, {"time": 167756, "pitch": 75, "duration": 10, "velocity": 120}, {"time": 167756, "pitch": 82, "duration": 10, "velocity": 30}, {"time": 167995, "pitch": 42, "duration": 10, "velocity": 64}, {"time": 167995, "pitch": 62, "duration": 10, "velocity": 50}, {"time": 167995, "pitch": 70, "duration": 10, "velocity": 50}, {"time": 167995, "pitch": 82, "duration": 10, "velocity": 100}, {"time": 168240, "pitch": 36, "duration": 10, "velocity": 92}, {"time": 168240, "pitch": 42, "duration": 10, "velocity": 36}, {"time": 168240, "pitch": 60, "duration": 10, "velocity": 100}, {"time": 168240, "pitch": 70, "duration": 10, "velocity": 30}, {"time": 168240, "pitch": 82, "duration": 10, "velocity": 30}, {"time": 168485, "pitch": 36, "duration": 10, "velocity": 92}, {"time": 168485, "pitch": 42, "duration": 10, "velocity": 64}, {"time": 168485, "pitch": 62, "duration": 10, "velocity": 60}, {"time": 168485, "pitch": 70, "duration": 10, "velocity": 50}, {"time": 168485, "pitch": 75, "duration": 10, "velocity": 120}, {"time": 168485, "pitch": 82, "duration": 10, "velocity": 60}, {"time": 168724, "pitch": 42, "duration": 10, "velocity": 36}, {"time": 168724, "pitch": 62, "duration": 10, "velocity": 50}, {"time": 168724, "pitch": 70, "duration": 10, "velocity": 30}, {"time": 168724, "pitch": 82, "duration": 10, "velocity": 30}, {"time": 168963, "pitch": 42, "duration": 10, "velocity": 64}, {"time": 168963, "pitch": 60, "duration": 10, "velocity": 100}, {"time": 168963, "pitch": 70, "duration": 10, "velocity": 50}, {"time": 168963, "pitch": 75, "duration": 10, "velocity": 120}, {"time": 168963, "pitch": 82, "duration": 10, "velocity": 100}, {"time": 169202, "pitch": 36, "duration": 10, "velocity": 92}, {"time": 169202, "pitch": 42, "duration": 10, "velocity": 36}, {"time": 169202, "pitch": 62, "duration": 10, "velocity": 60}, {"time": 169202, "pitch": 70, "duration": 10, "velocity": 30}, {"time": 169202, "pitch": 82, "duration": 10, "velocity": 30}, {"time": 169441, "pitch": 36, "duration": 10, "velocity": 92}, {"time": 169441, "pitch": 42, "duration": 10, "velocity": 64}, {"time": 169441, "pitch": 62, "duration": 10, "velocity": 60}, {"time": 169441, "pitch": 70, "duration": 10, "velocity": 50}, {"time": 169441, "pitch": 75, "duration": 10, "velocity": 120}, {"time": 169441, "pitch": 82, "duration": 10, "velocity": 60}, {"time": 169681, "pitch": 42, "duration": 10, "velocity": 36}, {"time": 169681, "pitch": 62, "duration": 10, "velocity": 50}, {"time": 169681, "pitch": 70, "duration": 10, "velocity": 30}, {"time": 169681, "pitch": 82, "duration": 10, "velocity": 30}, {"time": 169920, "pitch": 42, "duration": 10, "velocity": 64}, {"time": 169920, "pitch": 60, "duration": 10, "velocity": 100}, {"time": 169920, "pitch": 70, "duration": 10, "velocity": 50}, {"time": 169920, "pitch": 82, "duration": 10, "velocity": 100}, {"time": 170159, "pitch": 36, "duration": 10, "velocity": 92}, {"time": 170159, "pitch": 42, "duration": 10, "velocity": 36}, {"time": 170159, "pitch": 62, "duration": 10, "velocity": 60}, {"time": 170159, "pitch": 70, "duration": 10, "velocity": 30}, {"time": 170159, "pitch": 75, "duration": 10, "velocity": 120}, {"time": 170159, "pitch": 82, "duration": 10, "velocity": 30}, {"time": 170398, "pitch": 36, "duration": 10, "velocity": 92}, {"time": 170398, "pitch": 42, "duration": 10, "velocity": 64}, {"time": 170398, "pitch": 62, "duration": 10, "velocity": 50}, {"time": 170398, "pitch": 70, "duration": 10, "velocity": 50}, {"time": 170398, "pitch": 82, "duration": 10, "velocity": 60}, {"time": 170637, "pitch": 42, "duration": 10, "velocity": 36}, {"time": 170637, "pitch": 60, "duration": 10, "velocity": 100}, {"time": 170637, "pitch": 70, "duration": 10, "velocity": 30}, {"time": 170637, "pitch": 82, "duration": 10, "velocity": 30}, {"time": 170877, "pitch": 42, "duration": 10, "velocity": 64}, {"time": 170877, "pitch": 62, "duration": 10, "velocity": 60}, {"time": 170877, "pitch": 70, "duration": 10, "velocity": 50}, {"time": 170877, "pitch": 75, "duration": 10, "velocity": 120}, {"time": 170877, "pitch": 82, "duration": 10, "velocity": 100}, {"time": 171116, "pitch": 36, "duration": 10, "velocity": 92}, {"time": 171116, "pitch": 42, "duration": 10, "velocity": 36}, {"time": 171116, "pitch": 62, "duration": 10, "velocity": 50}, {"time": 171116, "pitch": 70, "duration": 10, "velocity": 30}, {"time": 171116, "pitch": 82, "duration": 10, "velocity": 30}, {"time": 171355, "pitch": 36, "duration": 10, "velocity": 92}, {"time": 171355, "pitch": 42, "duration": 10, "velocity": 64}, {"time": 171355, "pitch": 60, "duration": 10, "velocity": 100}, {"time": 171355, "pitch": 70, "duration": 10, "velocity": 50}, {"time": 171355, "pitch": 82, "duration": 10, "velocity": 60}, {"time": 171600, "pitch": 42, "duration": 10, "velocity": 36}, {"time": 171600, "pitch": 62, "duration": 10, "velocity": 60}, {"time": 171600, "pitch": 70, "duration": 10, "velocity": 30}, {"time": 171600, "pitch": 75, "duration": 10, "velocity": 120}, {"time": 171600, "pitch": 82, "duration": 10, "velocity": 30}, {"time": 171845, "pitch": 42, "duration": 10, "velocity": 64}, {"time": 171845, "pitch": 62, "duration": 10, "velocity": 50}, {"time": 171845, "pitch": 70, "duration": 10, "velocity": 50}, {"time": 171845, "pitch": 82, "duration": 10, "velocity": 100}, {"time": 172084, "pitch": 36, "duration": 10, "velocity": 92}, {"time": 172084, "pitch": 42, "duration": 10, "velocity": 36}, {"time": 172084, "pitch": 60, "duration": 10, "velocity": 100}, {"time": 172084, "pitch": 70, "duration": 10, "velocity": 30}, {"time": 172084, "pitch": 82, "duration": 10, "velocity": 30}, {"time": 172323, "pitch": 36, "duration": 10, "velocity": 92}, {"time": 172323, "pitch": 42, "duration": 10, "velocity": 64}, {"time": 172323, "pitch": 62, "duration": 10, "velocity": 60}, {"time": 172323, "pitch": 70, "duration": 10, "velocity": 50}, {"time": 172323, "pitch": 75, "duration": 10, "velocity": 120}, {"time": 172323, "pitch": 82, "duration": 10, "velocity": 60}, {"time": 172562, "pitch": 42, "duration": 10, "velocity": 36}, {"time": 172562, "pitch": 62, "duration": 10, "velocity": 50}, {"time": 172562, "pitch": 70, "duration": 10, "velocity": 30}, {"time": 172562, "pitch": 82, "duration": 10, "velocity": 30}, {"time": 172801, "pitch": 42, "duration": 10, "velocity": 64}, {"time": 172801, "pitch": 60, "duration": 10, "velocity": 100}, {"time": 172801, "pitch": 70, "duration": 10, "velocity": 50}, {"time": 172801, "pitch": 75, "duration": 10, "velocity": 120}, {"time": 172801, "pitch": 82, "duration": 10, "velocity": 100}, {"time": 173041, "pitch": 36, "duration": 10, "velocity": 92}, {"time": 173041, "pitch": 42, "duration": 10, "velocity": 36}, {"time": 173041, "pitch": 62, "duration": 10, "velocity": 60}, {"time": 173041, "pitch": 70, "duration": 10, "velocity": 30}, {"time": 173041, "pitch": 82, "duration": 10, "velocity": 30}, {"time": 173280, "pitch": 36, "duration": 10, "velocity": 92}, {"time": 173280, "pitch": 42, "duration": 10, "velocity": 64}, {"time": 173280, "pitch": 62, "duration": 10, "velocity": 60}, {"time": 173280, "pitch": 70, "duration": 10, "velocity": 50}, {"time": 173280, "pitch": 75, "duration": 10, "velocity": 120}, {"time": 173280, "pitch": 82, "duration": 10, "velocity": 60}, {"time": 173519, "pitch": 42, "duration": 10, "velocity": 36}, {"time": 173519, "pitch": 62, "duration": 10, "velocity": 50}, {"time": 173519, "pitch": 70, "duration": 10, "velocity": 30}, {"time": 173519, "pitch": 82, "duration": 10, "velocity": 30}, {"time": 173758, "pitch": 42, "duration": 10, "velocity": 64}, {"time": 173758, "pitch": 60, "duration": 10, "velocity": 100}, {"time": 173758, "pitch": 70, "duration": 10, "velocity": 50}, {"time": 173758, "pitch": 82, "duration": 10, "velocity": 100}, {"time": 173997, "pitch": 36, "duration": 10, "velocity": 92}, {"time": 173997, "pitch": 42, "duration": 10, "velocity": 36}, {"time": 173997, "pitch": 62, "duration": 10, "velocity": 60}, {"time": 173997, "pitch": 70, "duration": 10, "velocity": 30}, {"time": 173997, "pitch": 75, "duration": 10, "velocity": 120}, {"time": 173997, "pitch": 82, "duration": 10, "velocity": 30}, {"time": 174237, "pitch": 36, "duration": 10, "velocity": 92}, {"time": 174237, "pitch": 42, "duration": 10, "velocity": 64}, {"time": 174237, "pitch": 62, "duration": 10, "velocity": 50}, {"time": 174237, "pitch": 70, "duration": 10, "velocity": 50}, {"time": 174237, "pitch": 82, "duration": 10, "velocity": 60}, {"time": 174476, "pitch": 42, "duration": 10, "velocity": 36}, {"time": 174476, "pitch": 60, "duration": 10, "velocity": 100}, {"time": 174476, "pitch": 70, "duration": 10, "velocity": 30}, {"time": 174476, "pitch": 82, "duration": 10, "velocity": 30}, {"time": 174715, "pitch": 42, "duration": 10, "velocity": 64}, {"time": 174715, "pitch": 62, "duration": 10, "velocity": 60}, {"time": 174715, "pitch": 70, "duration": 10, "velocity": 50}, {"time": 174715, "pitch": 75, "duration": 10, "velocity": 120}, {"time": 174715, "pitch": 82, "duration": 10, "velocity": 100}, {"time": 174960, "pitch": 36, "duration": 10, "velocity": 92}, {"time": 174960, "pitch": 42, "duration": 10, "velocity": 36}, {"time": 174960, "pitch": 62, "duration": 10, "velocity": 50}, {"time": 174960, "pitch": 70, "duration": 10, "velocity": 30}, {"time": 174960, "pitch": 82, "duration": 10, "velocity": 30}, {"time": 175205, "pitch": 36, "duration": 10, "velocity": 92}, {"time": 175205, "pitch": 42, "duration": 10, "velocity": 64}, {"time": 175205, "pitch": 60, "duration": 10, "velocity": 100}, {"time": 175205, "pitch": 70, "duration": 10, "velocity": 50}, {"time": 175205, "pitch": 82, "duration": 10, "velocity": 60}, {"time": 175444, "pitch": 42, "duration": 10, "velocity": 36}, {"time": 175444, "pitch": 62, "duration": 10, "velocity": 60}, {"time": 175444, "pitch": 70, "duration": 10, "velocity": 30}, {"time": 175444, "pitch": 75, "duration": 10, "velocity": 120}, {"time": 175444, "pitch": 82, "duration": 10, "velocity": 30}, {"time": 175683, "pitch": 42, "duration": 10, "velocity": 64}, {"time": 175683, "pitch": 62, "duration": 10, "velocity": 50}, {"time": 175683, "pitch": 70, "duration": 10, "velocity": 50}, {"time": 175683, "pitch": 82, "duration": 10, "velocity": 100}, {"time": 175922, "pitch": 36, "duration": 10, "velocity": 92}, {"time": 175922, "pitch": 42, "duration": 10, "velocity": 36}, {"time": 175922, "pitch": 60, "duration": 10, "velocity": 100}, {"time": 175922, "pitch": 70, "duration": 10, "velocity": 30}, {"time": 175922, "pitch": 82, "duration": 10, "velocity": 30}, {"time": 176161, "pitch": 36, "duration": 10, "velocity": 92}, {"time": 176161, "pitch": 42, "duration": 10, "velocity": 64}, {"time": 176161, "pitch": 62, "duration": 10, "velocity": 60}, {"time": 176161, "pitch": 70, "duration": 10, "velocity": 50}, {"time": 176161, "pitch": 75, "duration": 10, "velocity": 120}, {"time": 176161, "pitch": 82, "duration": 10, "velocity": 60}, {"time": 176401, "pitch": 42, "duration": 10, "velocity": 36}, {"time": 176401, "pitch": 62, "duration": 10, "velocity": 50}, {"time": 176401, "pitch": 70, "duration": 10, "velocity": 30}, {"time": 176401, "pitch": 82, "duration": 10, "velocity": 30}, {"time": 176640, "pitch": 42, "duration": 10, "velocity": 64}, {"time": 176640, "pitch": 60, "duration": 10, "velocity": 100}, {"time": 176640, "pitch": 70, "duration": 10, "velocity": 50}, {"time": 176640, "pitch": 75, "duration": 10, "velocity": 120}, {"time": 176640, "pitch": 82, "duration": 10, "velocity": 100}, {"time": 176879, "pitch": 36, "duration": 10, "velocity": 92}, {"time": 176879, "pitch": 42, "duration": 10, "velocity": 36}, {"time": 176879, "pitch": 62, "duration": 10, "velocity": 60}, {"time": 176879, "pitch": 70, "duration": 10, "velocity": 30}, {"time": 176879, "pitch": 82, "duration": 10, "velocity": 30}, {"time": 177118, "pitch": 36, "duration": 10, "velocity": 92}, {"time": 177118, "pitch": 42, "duration": 10, "velocity": 64}, {"time": 177118, "pitch": 62, "duration": 10, "velocity": 60}, {"time": 177118, "pitch": 70, "duration": 10, "velocity": 50}, {"time": 177118, "pitch": 75, "duration": 10, "velocity": 120}, {"time": 177118, "pitch": 82, "duration": 10, "velocity": 60}, {"time": 177357, "pitch": 42, "duration": 10, "velocity": 36}, {"time": 177357, "pitch": 62, "duration": 10, "velocity": 50}, {"time": 177357, "pitch": 70, "duration": 10, "velocity": 30}, {"time": 177357, "pitch": 82, "duration": 10, "velocity": 30}, {"time": 177597, "pitch": 42, "duration": 10, "velocity": 64}, {"time": 177597, "pitch": 60, "duration": 10, "velocity": 100}, {"time": 177597, "pitch": 70, "duration": 10, "velocity": 50}, {"time": 177597, "pitch": 82, "duration": 10, "velocity": 100}, {"time": 177836, "pitch": 36, "duration": 10, "velocity": 92}, {"time": 177836, "pitch": 42, "duration": 10, "velocity": 36}, {"time": 177836, "pitch": 62, "duration": 10, "velocity": 60}, {"time": 177836, "pitch": 70, "duration": 10, "velocity": 30}, {"time": 177836, "pitch": 75, "duration": 10, "velocity": 120}, {"time": 177836, "pitch": 82, "duration": 10, "velocity": 30}, {"time": 178075, "pitch": 36, "duration": 10, "velocity": 92}, {"time": 178075, "pitch": 42, "duration": 10, "velocity": 64}, {"time": 178075, "pitch": 62, "duration": 10, "velocity": 50}, {"time": 178075, "pitch": 70, "duration": 10, "velocity": 50}, {"time": 178075, "pitch": 82, "duration": 10, "velocity": 60}, {"time": 178320, "pitch": 42, "duration": 10, "velocity": 36}, {"time": 178320, "pitch": 60, "duration": 10, "velocity": 100}, {"time": 178320, "pitch": 70, "duration": 10, "velocity": 30}, {"time": 178320, "pitch": 82, "duration": 10, "velocity": 30}, {"time": 178565, "pitch": 42, "duration": 10, "velocity": 64}, {"time": 178565, "pitch": 62, "duration": 10, "velocity": 60}, {"time": 178565, "pitch": 70, "duration": 10, "velocity": 50}, {"time": 178565, "pitch": 75, "duration": 10, "velocity": 120}, {"time": 178565, "pitch": 82, "duration": 10, "velocity": 100}, {"time": 178804, "pitch": 36, "duration": 10, "velocity": 92}, {"time": 178804, "pitch": 42, "duration": 10, "velocity": 36}, {"time": 178804, "pitch": 62, "duration": 10, "velocity": 50}, {"time": 178804, "pitch": 70, "duration": 10, "velocity": 30}, {"time": 178804, "pitch": 82, "duration": 10, "velocity": 30}, {"time": 179043, "pitch": 36, "duration": 10, "velocity": 92}, {"time": 179043, "pitch": 42, "duration": 10, "velocity": 64}, {"time": 179043, "pitch": 60, "duration": 10, "velocity": 100}, {"time": 179043, "pitch": 70, "duration": 10, "velocity": 50}, {"time": 179043, "pitch": 82, "duration": 10, "velocity": 60}, {"time": 179282, "pitch": 42, "duration": 10, "velocity": 36}, {"time": 179282, "pitch": 62, "duration": 10, "velocity": 60}, {"time": 179282, "pitch": 70, "duration": 10, "velocity": 30}, {"time": 179282, "pitch": 75, "duration": 10, "velocity": 120}, {"time": 179282, "pitch": 82, "duration": 10, "velocity": 30}, {"time": 179521, "pitch": 42, "duration": 10, "velocity": 64}, {"time": 179521, "pitch": 62, "duration": 10, "velocity": 50}, {"time": 179521, "pitch": 70, "duration": 10, "velocity": 50}, {"time": 179521, "pitch": 82, "duration": 10, "velocity": 100}, {"time": 179761, "pitch": 36, "duration": 10, "velocity": 92}, {"time": 179761, "pitch": 42, "duration": 10, "velocity": 36}, {"time": 179761, "pitch": 60, "duration": 10, "velocity": 100}, {"time": 179761, "pitch": 70, "duration": 10, "velocity": 30}, {"time": 179761, "pitch": 82, "duration": 10, "velocity": 30}, {"time": 180000, "pitch": 36, "duration": 10, "velocity": 92}, {"time": 180000, "pitch": 42, "duration": 10, "velocity": 64}, {"time": 180000, "pitch": 62, "duration": 10, "velocity": 60}, {"time": 180000, "pitch": 70, "duration": 10, "velocity": 50}, {"time": 180000, "pitch": 75, "duration": 10, "velocity": 120}, {"time": 180000, "pitch": 82, "duration": 10, "velocity": 60}, {"time": 180239, "pitch": 42, "duration": 10, "velocity": 36}, {"time": 180239, "pitch": 62, "duration": 10, "velocity": 50}, {"time": 180239, "pitch": 70, "duration": 10, "velocity": 30}, {"time": 180239, "pitch": 82, "duration": 10, "velocity": 30}, {"time": 180478, "pitch": 42, "duration": 10, "velocity": 64}, {"time": 180478, "pitch": 60, "duration": 10, "velocity": 100}, {"time": 180478, "pitch": 70, "duration": 10, "velocity": 50}, {"time": 180478, "pitch": 75, "duration": 10, "velocity": 120}, {"time": 180478, "pitch": 82, "duration": 10, "velocity": 100}, {"time": 180717, "pitch": 36, "duration": 10, "velocity": 92}, {"time": 180717, "pitch": 42, "duration": 10, "velocity": 36}, {"time": 180717, "pitch": 62, "duration": 10, "velocity": 60}, {"time": 180717, "pitch": 70, "duration": 10, "velocity": 30}, {"time": 180717, "pitch": 82, "duration": 10, "velocity": 30}, {"time": 180957, "pitch": 36, "duration": 10, "velocity": 92}, {"time": 180957, "pitch": 42, "duration": 10, "velocity": 64}, {"time": 180957, "pitch": 62, "duration": 10, "velocity": 60}, {"time": 180957, "pitch": 70, "duration": 10, "velocity": 50}, {"time": 180957, "pitch": 75, "duration": 10, "velocity": 120}, {"time": 180957, "pitch": 82, "duration": 10, "velocity": 60}, {"time": 181196, "pitch": 42, "duration": 10, "velocity": 36}, {"time": 181196, "pitch": 62, "duration": 10, "velocity": 50}, {"time": 181196, "pitch": 70, "duration": 10, "velocity": 30}, {"time": 181196, "pitch": 82, "duration": 10, "velocity": 30}, {"time": 181435, "pitch": 42, "duration": 10, "velocity": 64}, {"time": 181435, "pitch": 60, "duration": 10, "velocity": 100}, {"time": 181435, "pitch": 70, "duration": 10, "velocity": 50}, {"time": 181435, "pitch": 82, "duration": 10, "velocity": 100}, {"time": 181680, "pitch": 36, "duration": 10, "velocity": 92}, {"time": 181680, "pitch": 42, "duration": 10, "velocity": 36}, {"time": 181680, "pitch": 62, "duration": 10, "velocity": 60}, {"time": 181680, "pitch": 70, "duration": 10, "velocity": 30}, {"time": 181680, "pitch": 75, "duration": 10, "velocity": 120}, {"time": 181680, "pitch": 82, "duration": 10, "velocity": 30}, {"time": 181925, "pitch": 36, "duration": 10, "velocity": 92}, {"time": 181925, "pitch": 42, "duration": 10, "velocity": 64}, {"time": 181925, "pitch": 62, "duration": 10, "velocity": 50}, {"time": 181925, "pitch": 70, "duration": 10, "velocity": 50}, {"time": 181925, "pitch": 82, "duration": 10, "velocity": 60}, {"time": 182164, "pitch": 42, "duration": 10, "velocity": 36}, {"time": 182164, "pitch": 60, "duration": 10, "velocity": 100}, {"time": 182164, "pitch": 70, "duration": 10, "velocity": 30}, {"time": 182164, "pitch": 82, "duration": 10, "velocity": 30}, {"time": 182403, "pitch": 42, "duration": 10, "velocity": 64}, {"time": 182403, "pitch": 62, "duration": 10, "velocity": 60}, {"time": 182403, "pitch": 70, "duration": 10, "velocity": 50}, {"time": 182403, "pitch": 75, "duration": 10, "velocity": 120}, {"time": 182403, "pitch": 82, "duration": 10, "velocity": 100}, {"time": 182642, "pitch": 36, "duration": 10, "velocity": 92}, {"time": 182642, "pitch": 42, "duration": 10, "velocity": 36}, {"time": 182642, "pitch": 62, "duration": 10, "velocity": 50}, {"time": 182642, "pitch": 70, "duration": 10, "velocity": 30}, {"time": 182642, "pitch": 82, "duration": 10, "velocity": 30}, {"time": 182881, "pitch": 36, "duration": 10, "velocity": 92}, {"time": 182881, "pitch": 42, "duration": 10, "velocity": 64}, {"time": 182881, "pitch": 60, "duration": 10, "velocity": 100}, {"time": 182881, "pitch": 70, "duration": 10, "velocity": 50}, {"time": 182881, "pitch": 82, "duration": 10, "velocity": 60}, {"time": 183121, "pitch": 42, "duration": 10, "velocity": 36}, {"time": 183121, "pitch": 62, "duration": 10, "velocity": 60}, {"time": 183121, "pitch": 70, "duration": 10, "velocity": 30}, {"time": 183121, "pitch": 75, "duration": 10, "velocity": 120}, {"time": 183121, "pitch": 82, "duration": 10, "velocity": 30}, {"time": 183360, "pitch": 42, "duration": 10, "velocity": 64}, {"time": 183360, "pitch": 62, "duration": 10, "velocity": 50}, {"time": 183360, "pitch": 70, "duration": 10, "velocity": 50}, {"time": 183360, "pitch": 82, "duration": 10, "velocity": 100}, {"time": 183599, "pitch": 36, "duration": 10, "velocity": 92}, {"time": 183599, "pitch": 42, "duration": 10, "velocity": 36}, {"time": 183599, "pitch": 60, "duration": 10, "velocity": 100}, {"time": 183599, "pitch": 70, "duration": 10, "velocity": 30}, {"time": 183599, "pitch": 82, "duration": 10, "velocity": 30}, {"time": 183838, "pitch": 36, "duration": 10, "velocity": 92}, {"time": 183838, "pitch": 42, "duration": 10, "velocity": 64}, {"time": 183838, "pitch": 62, "duration": 10, "velocity": 60}, {"time": 183838, "pitch": 70, "duration": 10, "velocity": 50}, {"time": 183838, "pitch": 75, "duration": 10, "velocity": 120}, {"time": 183838, "pitch": 82, "duration": 10, "velocity": 60}, {"time": 184077, "pitch": 42, "duration": 10, "velocity": 36}, {"time": 184077, "pitch": 62, "duration": 10, "velocity": 50}, {"time": 184077, "pitch": 70, "duration": 10, "velocity": 30}, {"time": 184077, "pitch": 82, "duration": 10, "velocity": 30}, {"time": 184317, "pitch": 42, "duration": 10, "velocity": 64}, {"time": 184317, "pitch": 60, "duration": 10, "velocity": 100}, {"time": 184317, "pitch": 70, "duration": 10, "velocity": 50}, {"time": 184317, "pitch": 75, "duration": 10, "velocity": 120}, {"time": 184317, "pitch": 82, "duration": 10, "velocity": 100}, {"time": 184556, "pitch": 36, "duration": 10, "velocity": 92}, {"time": 184556, "pitch": 42, "duration": 10, "velocity": 36}, {"time": 184556, "pitch": 62, "duration": 10, "velocity": 60}, {"time": 184556, "pitch": 70, "duration": 10, "velocity": 30}, {"time": 184556, "pitch": 82, "duration": 10, "velocity": 30}, {"time": 184795, "pitch": 36, "duration": 10, "velocity": 92}, {"time": 184795, "pitch": 42, "duration": 10, "velocity": 64}, {"time": 184795, "pitch": 62, "duration": 10, "velocity": 60}, {"time": 184795, "pitch": 70, "duration": 10, "velocity": 50}, {"time": 184795, "pitch": 75, "duration": 10, "velocity": 120}, {"time": 184795, "pitch": 82, "duration": 10, "velocity": 60}, {"time": 185040, "pitch": 42, "duration": 10, "velocity": 36}, {"time": 185040, "pitch": 62, "duration": 10, "velocity": 50}, {"time": 185040, "pitch": 70, "duration": 10, "velocity": 30}, {"time": 185040, "pitch": 82, "duration": 10, "velocity": 30}, {"time": 185285, "pitch": 42, "duration": 10, "velocity": 64}, {"time": 185285, "pitch": 60, "duration": 10, "velocity": 100}, {"time": 185285, "pitch": 70, "duration": 10, "velocity": 50}, {"time": 185285, "pitch": 82, "duration": 10, "velocity": 100}, {"time": 185524, "pitch": 36, "duration": 10, "velocity": 92}, {"time": 185524, "pitch": 42, "duration": 10, "velocity": 36}, {"time": 185524, "pitch": 62, "duration": 10, "velocity": 60}, {"time": 185524, "pitch": 70, "duration": 10, "velocity": 30}, {"time": 185524, "pitch": 75, "duration": 10, "velocity": 120}, {"time": 185524, "pitch": 82, "duration": 10, "velocity": 30}, {"time": 185763, "pitch": 36, "duration": 10, "velocity": 92}, {"time": 185763, "pitch": 42, "duration": 10, "velocity": 64}, {"time": 185763, "pitch": 62, "duration": 10, "velocity": 50}, {"time": 185763, "pitch": 70, "duration": 10, "velocity": 50}, {"time": 185763, "pitch": 82, "duration": 10, "velocity": 60}, {"time": 186002, "pitch": 42, "duration": 10, "velocity": 36}, {"time": 186002, "pitch": 60, "duration": 10, "velocity": 100}, {"time": 186002, "pitch": 70, "duration": 10, "velocity": 30}, {"time": 186002, "pitch": 82, "duration": 10, "velocity": 30}, {"time": 186241, "pitch": 42, "duration": 10, "velocity": 64}, {"time": 186241, "pitch": 62, "duration": 10, "velocity": 60}, {"time": 186241, "pitch": 70, "duration": 10, "velocity": 50}, {"time": 186241, "pitch": 75, "duration": 10, "velocity": 120}, {"time": 186241, "pitch": 82, "duration": 10, "velocity": 100}, {"time": 186481, "pitch": 36, "duration": 10, "velocity": 92}, {"time": 186481, "pitch": 42, "duration": 10, "velocity": 36}, {"time": 186481, "pitch": 62, "duration": 10, "velocity": 50}, {"time": 186481, "pitch": 70, "duration": 10, "velocity": 30}, {"time": 186481, "pitch": 82, "duration": 10, "velocity": 30}, {"time": 186720, "pitch": 36, "duration": 10, "velocity": 92}, {"time": 186720, "pitch": 42, "duration": 10, "velocity": 64}, {"time": 186720, "pitch": 60, "duration": 10, "velocity": 100}, {"time": 186720, "pitch": 70, "duration": 10, "velocity": 50}, {"time": 186720, "pitch": 82, "duration": 10, "velocity": 60}, {"time": 186959, "pitch": 42, "duration": 10, "velocity": 36}, {"time": 186959, "pitch": 62, "duration": 10, "velocity": 60}, {"time": 186959, "pitch": 70, "duration": 10, "velocity": 30}, {"time": 186959, "pitch": 75, "duration": 10, "velocity": 120}, {"time": 186959, "pitch": 82, "duration": 10, "velocity": 30}, {"time": 187198, "pitch": 42, "duration": 10, "velocity": 64}, {"time": 187198, "pitch": 62, "duration": 10, "velocity": 50}, {"time": 187198, "pitch": 70, "duration": 10, "velocity": 50}, {"time": 187198, "pitch": 82, "duration": 10, "velocity": 100}, {"time": 187437, "pitch": 36, "duration": 10, "velocity": 92}, {"time": 187437, "pitch": 42, "duration": 10, "velocity": 36}, {"time": 187437, "pitch": 60, "duration": 10, "velocity": 100}, {"time": 187437, "pitch": 70, "duration": 10, "velocity": 30}, {"time": 187437, "pitch": 82, "duration": 10, "velocity": 30}, {"time": 187677, "pitch": 36, "duration": 10, "velocity": 92}, {"time": 187677, "pitch": 42, "duration": 10, "velocity": 64}, {"time": 187677, "pitch": 62, "duration": 10, "velocity": 60}, {"time": 187677, "pitch": 70, "duration": 10, "velocity": 50}, {"time": 187677, "pitch": 75, "duration": 10, "velocity": 120}, {"time": 187677, "pitch": 82, "duration": 10, "velocity": 60}, {"time": 187916, "pitch": 42, "duration": 10, "velocity": 36}, {"time": 187916, "pitch": 62, "duration": 10, "velocity": 50}, {"time": 187916, "pitch": 70, "duration": 10, "velocity": 30}, {"time": 187916, "pitch": 82, "duration": 10, "velocity": 30}, {"time": 188155, "pitch": 42, "duration": 10, "velocity": 64}, {"time": 188155, "pitch": 60, "duration": 10, "velocity": 100}, {"time": 188155, "pitch": 70, "duration": 10, "velocity": 50}, {"time": 188155, "pitch": 75, "duration": 10, "velocity": 120}, {"time": 188155, "pitch": 82, "duration": 10, "velocity": 100}, {"time": 188400, "pitch": 36, "duration": 10, "velocity": 92}, {"time": 188400, "pitch": 42, "duration": 10, "velocity": 36}, {"time": 188400, "pitch": 62, "duration": 10, "velocity": 60}, {"time": 188400, "pitch": 70, "duration": 10, "velocity": 30}, {"time": 188400, "pitch": 82, "duration": 10, "velocity": 30}, {"time": 188645, "pitch": 36, "duration": 10, "velocity": 92}, {"time": 188645, "pitch": 42, "duration": 10, "velocity": 64}, {"time": 188645, "pitch": 62, "duration": 10, "velocity": 60}, {"time": 188645, "pitch": 70, "duration": 10, "velocity": 50}, {"time": 188645, "pitch": 75, "duration": 10, "velocity": 120}, {"time": 188645, "pitch": 82, "duration": 10, "velocity": 60}, {"time": 188884, "pitch": 42, "duration": 10, "velocity": 36}, {"time": 188884, "pitch": 62, "duration": 10, "velocity": 50}, {"time": 188884, "pitch": 70, "duration": 10, "velocity": 30}, {"time": 188884, "pitch": 82, "duration": 10, "velocity": 30}, {"time": 189123, "pitch": 42, "duration": 10, "velocity": 64}, {"time": 189123, "pitch": 60, "duration": 10, "velocity": 100}, {"time": 189123, "pitch": 70, "duration": 10, "velocity": 50}, {"time": 189123, "pitch": 82, "duration": 10, "velocity": 100}, {"time": 189362, "pitch": 36, "duration": 10, "velocity": 92}, {"time": 189362, "pitch": 42, "duration": 10, "velocity": 36}, {"time": 189362, "pitch": 62, "duration": 10, "velocity": 60}, {"time": 189362, "pitch": 70, "duration": 10, "velocity": 30}, {"time": 189362, "pitch": 75, "duration": 10, "velocity": 120}, {"time": 189362, "pitch": 82, "duration": 10, "velocity": 30}, {"time": 189601, "pitch": 36, "duration": 10, "velocity": 92}, {"time": 189601, "pitch": 42, "duration": 10, "velocity": 64}, {"time": 189601, "pitch": 62, "duration": 10, "velocity": 50}, {"time": 189601, "pitch": 70, "duration": 10, "velocity": 50}, {"time": 189601, "pitch": 82, "duration": 10, "velocity": 60}, {"time": 189841, "pitch": 42, "duration": 10, "velocity": 36}, {"time": 189841, "pitch": 60, "duration": 10, "velocity": 100}, {"time": 189841, "pitch": 70, "duration": 10, "velocity": 30}, {"time": 189841, "pitch": 82, "duration": 10, "velocity": 30}, {"time": 190080, "pitch": 42, "duration": 10, "velocity": 64}, {"time": 190080, "pitch": 62, "duration": 10, "velocity": 60}, {"time": 190080, "pitch": 70, "duration": 10, "velocity": 50}, {"time": 190080, "pitch": 75, "duration": 10, "velocity": 120}, {"time": 190080, "pitch": 82, "duration": 10, "velocity": 100}, {"time": 190319, "pitch": 36, "duration": 10, "velocity": 92}, {"time": 190319, "pitch": 42, "duration": 10, "velocity": 36}, {"time": 190319, "pitch": 62, "duration": 10, "velocity": 50}, {"time": 190319, "pitch": 70, "duration": 10, "velocity": 30}, {"time": 190319, "pitch": 82, "duration": 10, "velocity": 30}, {"time": 190558, "pitch": 36, "duration": 10, "velocity": 92}, {"time": 190558, "pitch": 42, "duration": 10, "velocity": 64}, {"time": 190558, "pitch": 60, "duration": 10, "velocity": 100}, {"time": 190558, "pitch": 70, "duration": 10, "velocity": 50}, {"time": 190558, "pitch": 82, "duration": 10, "velocity": 60}, {"time": 190797, "pitch": 42, "duration": 10, "velocity": 36}, {"time": 190797, "pitch": 62, "duration": 10, "velocity": 60}, {"time": 190797, "pitch": 70, "duration": 10, "velocity": 30}, {"time": 190797, "pitch": 75, "duration": 10, "velocity": 120}, {"time": 190797, "pitch": 82, "duration": 10, "velocity": 30}, {"time": 191037, "pitch": 42, "duration": 10, "velocity": 64}, {"time": 191037, "pitch": 62, "duration": 10, "velocity": 50}, {"time": 191037, "pitch": 70, "duration": 10, "velocity": 50}, {"time": 191037, "pitch": 82, "duration": 10, "velocity": 100}, {"time": 191276, "pitch": 36, "duration": 10, "velocity": 92}, {"time": 191276, "pitch": 42, "duration": 10, "velocity": 36}, {"time": 191276, "pitch": 60, "duration": 10, "velocity": 100}, {"time": 191276, "pitch": 70, "duration": 10, "velocity": 30}, {"time": 191276, "pitch": 82, "duration": 10, "velocity": 30}, {"time": 191515, "pitch": 36, "duration": 10, "velocity": 92}, {"time": 191515, "pitch": 42, "duration": 10, "velocity": 64}, {"time": 191515, "pitch": 62, "duration": 10, "velocity": 60}, {"time": 191515, "pitch": 70, "duration": 10, "velocity": 50}, {"time": 191515, "pitch": 75, "duration": 10, "velocity": 120}, {"time": 191515, "pitch": 82, "duration": 10, "velocity": 60}, {"time": 191760, "pitch": 42, "duration": 10, "velocity": 36}, {"time": 191760, "pitch": 62, "duration": 10, "velocity": 50}, {"time": 191760, "pitch": 70, "duration": 10, "velocity": 30}, {"time": 191760, "pitch": 82, "duration": 10, "velocity": 30}, {"time": 192005, "pitch": 42, "duration": 10, "velocity": 64}, {"time": 192005, "pitch": 60, "duration": 10, "velocity": 100}, {"time": 192005, "pitch": 70, "duration": 10, "velocity": 50}, {"time": 192005, "pitch": 75, "duration": 10, "velocity": 120}, {"time": 192005, "pitch": 82, "duration": 10, "velocity": 100}, {"time": 192244, "pitch": 36, "duration": 10, "velocity": 92}, {"time": 192244, "pitch": 42, "duration": 10, "velocity": 36}, {"time": 192244, "pitch": 62, "duration": 10, "velocity": 60}, {"time": 192244, "pitch": 70, "duration": 10, "velocity": 30}, {"time": 192244, "pitch": 82, "duration": 10, "velocity": 30}, {"time": 192483, "pitch": 36, "duration": 10, "velocity": 92}, {"time": 192483, "pitch": 42, "duration": 10, "velocity": 64}, {"time": 192483, "pitch": 62, "duration": 10, "velocity": 60}, {"time": 192483, "pitch": 70, "duration": 10, "velocity": 50}, {"time": 192483, "pitch": 75, "duration": 10, "velocity": 120}, {"time": 192483, "pitch": 82, "duration": 10, "velocity": 60}, {"time": 192722, "pitch": 42, "duration": 10, "velocity": 36}, {"time": 192722, "pitch": 62, "duration": 10, "velocity": 50}, {"time": 192722, "pitch": 70, "duration": 10, "velocity": 30}, {"time": 192722, "pitch": 82, "duration": 10, "velocity": 30}, {"time": 192961, "pitch": 42, "duration": 10, "velocity": 64}, {"time": 192961, "pitch": 60, "duration": 10, "velocity": 100}, {"time": 192961, "pitch": 70, "duration": 10, "velocity": 50}, {"time": 192961, "pitch": 82, "duration": 10, "velocity": 100}, {"time": 193201, "pitch": 36, "duration": 10, "velocity": 92}, {"time": 193201, "pitch": 42, "duration": 10, "velocity": 36}, {"time": 193201, "pitch": 62, "duration": 10, "velocity": 60}, {"time": 193201, "pitch": 70, "duration": 10, "velocity": 30}, {"time": 193201, "pitch": 75, "duration": 10, "velocity": 120}, {"time": 193201, "pitch": 82, "duration": 10, "velocity": 30}, {"time": 193440, "pitch": 36, "duration": 10, "velocity": 92}, {"time": 193440, "pitch": 42, "duration": 10, "velocity": 64}, {"time": 193440, "pitch": 62, "duration": 10, "velocity": 50}, {"time": 193440, "pitch": 70, "duration": 10, "velocity": 50}, {"time": 193440, "pitch": 82, "duration": 10, "velocity": 60}, {"time": 193679, "pitch": 42, "duration": 10, "velocity": 36}, {"time": 193679, "pitch": 60, "duration": 10, "velocity": 100}, {"time": 193679, "pitch": 70, "duration": 10, "velocity": 30}, {"time": 193679, "pitch": 82, "duration": 10, "velocity": 30}, {"time": 193918, "pitch": 42, "duration": 10, "velocity": 64}, {"time": 193918, "pitch": 62, "duration": 10, "velocity": 60}, {"time": 193918, "pitch": 70, "duration": 10, "velocity": 50}, {"time": 193918, "pitch": 75, "duration": 10, "velocity": 120}, {"time": 193918, "pitch": 82, "duration": 10, "velocity": 100}, {"time": 194157, "pitch": 36, "duration": 10, "velocity": 92}, {"time": 194157, "pitch": 42, "duration": 10, "velocity": 36}, {"time": 194157, "pitch": 62, "duration": 10, "velocity": 50}, {"time": 194157, "pitch": 70, "duration": 10, "velocity": 30}, {"time": 194157, "pitch": 82, "duration": 10, "velocity": 30}, {"time": 194397, "pitch": 36, "duration": 10, "velocity": 92}, {"time": 194397, "pitch": 42, "duration": 10, "velocity": 64}, {"time": 194397, "pitch": 60, "duration": 10, "velocity": 100}, {"time": 194397, "pitch": 70, "duration": 10, "velocity": 50}, {"time": 194397, "pitch": 82, "duration": 10, "velocity": 60}, {"time": 194636, "pitch": 42, "duration": 10, "velocity": 36}, {"time": 194636, "pitch": 62, "duration": 10, "velocity": 60}, {"time": 194636, "pitch": 70, "duration": 10, "velocity": 30}, {"time": 194636, "pitch": 75, "duration": 10, "velocity": 120}, {"time": 194636, "pitch": 82, "duration": 10, "velocity": 30}, {"time": 194875, "pitch": 42, "duration": 10, "velocity": 64}, {"time": 194875, "pitch": 62, "duration": 10, "velocity": 50}, {"time": 194875, "pitch": 70, "duration": 10, "velocity": 50}, {"time": 194875, "pitch": 82, "duration": 10, "velocity": 100}, {"time": 195120, "pitch": 36, "duration": 10, "velocity": 92}, {"time": 195120, "pitch": 42, "duration": 10, "velocity": 36}, {"time": 195120, "pitch": 60, "duration": 10, "velocity": 100}, {"time": 195120, "pitch": 70, "duration": 10, "velocity": 30}, {"time": 195120, "pitch": 82, "duration": 10, "velocity": 30}, {"time": 195365, "pitch": 36, "duration": 10, "velocity": 92}, {"time": 195365, "pitch": 42, "duration": 10, "velocity": 64}, {"time": 195365, "pitch": 62, "duration": 10, "velocity": 60}, {"time": 195365, "pitch": 70, "duration": 10, "velocity": 50}, {"time": 195365, "pitch": 75, "duration": 10, "velocity": 120}, {"time": 195365, "pitch": 82, "duration": 10, "velocity": 60}, {"time": 195604, "pitch": 42, "duration": 10, "velocity": 36}, {"time": 195604, "pitch": 62, "duration": 10, "velocity": 50}, {"time": 195604, "pitch": 70, "duration": 10, "velocity": 30}, {"time": 195604, "pitch": 82, "duration": 10, "velocity": 30}, {"time": 195843, "pitch": 42, "duration": 10, "velocity": 64}, {"time": 195843, "pitch": 60, "duration": 10, "velocity": 100}, {"time": 195843, "pitch": 70, "duration": 10, "velocity": 50}, {"time": 195843, "pitch": 75, "duration": 10, "velocity": 120}, {"time": 195843, "pitch": 82, "duration": 10, "velocity": 100}, {"time": 196082, "pitch": 36, "duration": 10, "velocity": 92}, {"time": 196082, "pitch": 42, "duration": 10, "velocity": 36}, {"time": 196082, "pitch": 62, "duration": 10, "velocity": 60}, {"time": 196082, "pitch": 70, "duration": 10, "velocity": 30}, {"time": 196082, "pitch": 82, "duration": 10, "velocity": 30}, {"time": 196321, "pitch": 36, "duration": 10, "velocity": 92}, {"time": 196321, "pitch": 42, "duration": 10, "velocity": 64}, {"time": 196321, "pitch": 62, "duration": 10, "velocity": 60}, {"time": 196321, "pitch": 70, "duration": 10, "velocity": 50}, {"time": 196321, "pitch": 75, "duration": 10, "velocity": 120}, {"time": 196321, "pitch": 82, "duration": 10, "velocity": 60}, {"time": 196561, "pitch": 42, "duration": 10, "velocity": 36}, {"time": 196561, "pitch": 62, "duration": 10, "velocity": 50}, {"time": 196561, "pitch": 70, "duration": 10, "velocity": 30}, {"time": 196561, "pitch": 82, "duration": 10, "velocity": 30}, {"time": 196800, "pitch": 42, "duration": 10, "velocity": 64}, {"time": 196800, "pitch": 60, "duration": 10, "velocity": 100}, {"time": 196800, "pitch": 70, "duration": 10, "velocity": 50}, {"time": 196800, "pitch": 82, "duration": 10, "velocity": 100}, {"time": 197039, "pitch": 36, "duration": 10, "velocity": 92}, {"time": 197039, "pitch": 42, "duration": 10, "velocity": 36}, {"time": 197039, "pitch": 62, "duration": 10, "velocity": 60}, {"time": 197039, "pitch": 70, "duration": 10, "velocity": 30}, {"time": 197039, "pitch": 75, "duration": 10, "velocity": 120}, {"time": 197039, "pitch": 82, "duration": 10, "velocity": 30}, {"time": 197278, "pitch": 36, "duration": 10, "velocity": 92}, {"time": 197278, "pitch": 42, "duration": 10, "velocity": 64}, {"time": 197278, "pitch": 62, "duration": 10, "velocity": 50}, {"time": 197278, "pitch": 70, "duration": 10, "velocity": 50}, {"time": 197278, "pitch": 82, "duration": 10, "velocity": 60}, {"time": 197517, "pitch": 42, "duration": 10, "velocity": 36}, {"time": 197517, "pitch": 60, "duration": 10, "velocity": 100}, {"time": 197517, "pitch": 70, "duration": 10, "velocity": 30}, {"time": 197517, "pitch": 82, "duration": 10, "velocity": 30}, {"time": 197757, "pitch": 42, "duration": 10, "velocity": 64}, {"time": 197757, "pitch": 62, "duration": 10, "velocity": 60}, {"time": 197757, "pitch": 70, "duration": 10, "velocity": 50}, {"time": 197757, "pitch": 75, "duration": 10, "velocity": 120}, {"time": 197757, "pitch": 82, "duration": 10, "velocity": 100}, {"time": 197996, "pitch": 36, "duration": 10, "velocity": 92}, {"time": 197996, "pitch": 42, "duration": 10, "velocity": 36}, {"time": 197996, "pitch": 62, "duration": 10, "velocity": 50}, {"time": 197996, "pitch": 70, "duration": 10, "velocity": 30}, {"time": 197996, "pitch": 82, "duration": 10, "velocity": 30}, {"time": 198235, "pitch": 36, "duration": 10, "velocity": 92}, {"time": 198235, "pitch": 42, "duration": 10, "velocity": 64}, {"time": 198235, "pitch": 60, "duration": 10, "velocity": 100}, {"time": 198235, "pitch": 70, "duration": 10, "velocity": 50}, {"time": 198235, "pitch": 82, "duration": 10, "velocity": 60}, {"time": 198480, "pitch": 42, "duration": 10, "velocity": 36}, {"time": 198480, "pitch": 62, "duration": 10, "velocity": 60}, {"time": 198480, "pitch": 70, "duration": 10, "velocity": 30}, {"time": 198480, "pitch": 75, "duration": 10, "velocity": 120}, {"time": 198480, "pitch": 82, "duration": 10, "velocity": 30}, {"time": 198725, "pitch": 42, "duration": 10, "velocity": 64}, {"time": 198725, "pitch": 62, "duration": 10, "velocity": 50}, {"time": 198725, "pitch": 70, "duration": 10, "velocity": 50}, {"time": 198725, "pitch": 82, "duration": 10, "velocity": 100}, {"time": 198964, "pitch": 36, "duration": 10, "velocity": 92}, {"time": 198964, "pitch": 42, "duration": 10, "velocity": 36}, {"time": 198964, "pitch": 60, "duration": 10, "velocity": 100}, {"time": 198964, "pitch": 70, "duration": 10, "velocity": 30}, {"time": 198964, "pitch": 82, "duration": 10, "velocity": 30}, {"time": 199203, "pitch": 36, "duration": 10, "velocity": 92}, {"time": 199203, "pitch": 42, "duration": 10, "velocity": 64}, {"time": 199203, "pitch": 62, "duration": 10, "velocity": 60}, {"time": 199203, "pitch": 70, "duration": 10, "velocity": 50}, {"time": 199203, "pitch": 75, "duration": 10, "velocity": 120}, {"time": 199203, "pitch": 82, "duration": 10, "velocity": 60}, {"time": 199442, "pitch": 42, "duration": 10, "velocity": 36}, {"time": 199442, "pitch": 62, "duration": 10, "velocity": 50}, {"time": 199442, "pitch": 70, "duration": 10, "velocity": 30}, {"time": 199442, "pitch": 82, "duration": 10, "velocity": 30}, {"time": 199681, "pitch": 42, "duration": 10, "velocity": 64}, {"time": 199681, "pitch": 60, "duration": 10, "velocity": 100}, {"time": 199681, "pitch": 70, "duration": 10, "velocity": 50}, {"time": 199681, "pitch": 75, "duration": 10, "velocity": 120}, {"time": 199681, "pitch": 82, "duration": 10, "velocity": 100}, {"time": 199921, "pitch": 36, "duration": 10, "velocity": 92}, {"time": 199921, "pitch": 42, "duration": 10, "velocity": 36}, {"time": 199921, "pitch": 62, "duration": 10, "velocity": 60}, {"time": 199921, "pitch": 70, "duration": 10, "velocity": 30}, {"time": 199921, "pitch": 82, "duration": 10, "velocity": 30}, {"time": 200160, "pitch": 36, "duration": 10, "velocity": 92}, {"time": 200160, "pitch": 42, "duration": 10, "velocity": 64}, {"time": 200160, "pitch": 62, "duration": 10, "velocity": 60}, {"time": 200160, "pitch": 70, "duration": 10, "velocity": 50}, {"time": 200160, "pitch": 75, "duration": 10, "velocity": 120}, {"time": 200160, "pitch": 82, "duration": 10, "velocity": 60}, {"time": 200399, "pitch": 42, "duration": 10, "velocity": 36}, {"time": 200399, "pitch": 62, "duration": 10, "velocity": 50}, {"time": 200399, "pitch": 70, "duration": 10, "velocity": 30}, {"time": 200399, "pitch": 82, "duration": 10, "velocity": 30}, {"time": 200638, "pitch": 42, "duration": 10, "velocity": 64}, {"time": 200638, "pitch": 60, "duration": 10, "velocity": 100}, {"time": 200638, "pitch": 70, "duration": 10, "velocity": 50}, {"time": 200638, "pitch": 82, "duration": 10, "velocity": 100}, {"time": 200877, "pitch": 36, "duration": 10, "velocity": 92}, {"time": 200877, "pitch": 42, "duration": 10, "velocity": 36}, {"time": 200877, "pitch": 62, "duration": 10, "velocity": 60}, {"time": 200877, "pitch": 70, "duration": 10, "velocity": 30}, {"time": 200877, "pitch": 75, "duration": 10, "velocity": 120}, {"time": 200877, "pitch": 82, "duration": 10, "velocity": 30}, {"time": 201117, "pitch": 36, "duration": 10, "velocity": 92}, {"time": 201117, "pitch": 42, "duration": 10, "velocity": 64}, {"time": 201117, "pitch": 62, "duration": 10, "velocity": 50}, {"time": 201117, "pitch": 70, "duration": 10, "velocity": 50}, {"time": 201117, "pitch": 82, "duration": 10, "velocity": 60}, {"time": 201356, "pitch": 42, "duration": 10, "velocity": 36}, {"time": 201356, "pitch": 60, "duration": 10, "velocity": 100}, {"time": 201356, "pitch": 70, "duration": 10, "velocity": 30}, {"time": 201356, "pitch": 82, "duration": 10, "velocity": 30}, {"time": 201595, "pitch": 42, "duration": 10, "velocity": 64}, {"time": 201595, "pitch": 62, "duration": 10, "velocity": 60}, {"time": 201595, "pitch": 70, "duration": 10, "velocity": 50}, {"time": 201595, "pitch": 75, "duration": 10, "velocity": 120}, {"time": 201595, "pitch": 82, "duration": 10, "velocity": 100}, {"time": 201840, "pitch": 36, "duration": 10, "velocity": 92}, {"time": 201840, "pitch": 42, "duration": 10, "velocity": 36}, {"time": 201840, "pitch": 62, "duration": 10, "velocity": 50}, {"time": 201840, "pitch": 70, "duration": 10, "velocity": 30}, {"time": 201840, "pitch": 82, "duration": 10, "velocity": 30}, {"time": 202085, "pitch": 36, "duration": 10, "velocity": 92}, {"time": 202085, "pitch": 42, "duration": 10, "velocity": 64}, {"time": 202085, "pitch": 60, "duration": 10, "velocity": 100}, {"time": 202085, "pitch": 70, "duration": 10, "velocity": 50}, {"time": 202085, "pitch": 82, "duration": 10, "velocity": 60}, {"time": 202324, "pitch": 42, "duration": 10, "velocity": 36}, {"time": 202324, "pitch": 62, "duration": 10, "velocity": 60}, {"time": 202324, "pitch": 70, "duration": 10, "velocity": 30}, {"time": 202324, "pitch": 75, "duration": 10, "velocity": 120}, {"time": 202324, "pitch": 82, "duration": 10, "velocity": 30}, {"time": 202563, "pitch": 42, "duration": 10, "velocity": 64}, {"time": 202563, "pitch": 62, "duration": 10, "velocity": 50}, {"time": 202563, "pitch": 70, "duration": 10, "velocity": 50}, {"time": 202563, "pitch": 82, "duration": 10, "velocity": 100}, {"time": 202802, "pitch": 36, "duration": 10, "velocity": 92}, {"time": 202802, "pitch": 42, "duration": 10, "velocity": 36}, {"time": 202802, "pitch": 60, "duration": 10, "velocity": 100}, {"time": 202802, "pitch": 70, "duration": 10, "velocity": 30}, {"time": 202802, "pitch": 82, "duration": 10, "velocity": 30}, {"time": 203041, "pitch": 36, "duration": 10, "velocity": 92}, {"time": 203041, "pitch": 42, "duration": 10, "velocity": 64}, {"time": 203041, "pitch": 62, "duration": 10, "velocity": 60}, {"time": 203041, "pitch": 70, "duration": 10, "velocity": 50}, {"time": 203041, "pitch": 75, "duration": 10, "velocity": 120}, {"time": 203041, "pitch": 82, "duration": 10, "velocity": 60}, {"time": 203281, "pitch": 42, "duration": 10, "velocity": 36}, {"time": 203281, "pitch": 62, "duration": 10, "velocity": 50}, {"time": 203281, "pitch": 70, "duration": 10, "velocity": 30}, {"time": 203281, "pitch": 82, "duration": 10, "velocity": 30}, {"time": 203520, "pitch": 42, "duration": 10, "velocity": 64}, {"time": 203520, "pitch": 60, "duration": 10, "velocity": 100}, {"time": 203520, "pitch": 70, "duration": 10, "velocity": 50}, {"time": 203520, "pitch": 75, "duration": 10, "velocity": 120}, {"time": 203520, "pitch": 82, "duration": 10, "velocity": 100}, {"time": 203759, "pitch": 36, "duration": 10, "velocity": 92}, {"time": 203759, "pitch": 42, "duration": 10, "velocity": 36}, {"time": 203759, "pitch": 62, "duration": 10, "velocity": 60}, {"time": 203759, "pitch": 70, "duration": 10, "velocity": 30}, {"time": 203759, "pitch": 82, "duration": 10, "velocity": 30}, {"time": 203998, "pitch": 36, "duration": 10, "velocity": 92}, {"time": 203998, "pitch": 42, "duration": 10, "velocity": 64}, {"time": 203998, "pitch": 62, "duration": 10, "velocity": 60}, {"time": 203998, "pitch": 70, "duration": 10, "velocity": 50}, {"time": 203998, "pitch": 75, "duration": 10, "velocity": 120}, {"time": 203998, "pitch": 82, "duration": 10, "velocity": 60}, {"time": 204237, "pitch": 42, "duration": 10, "velocity": 36}, {"time": 204237, "pitch": 62, "duration": 10, "velocity": 50}, {"time": 204237, "pitch": 70, "duration": 10, "velocity": 30}, {"time": 204237, "pitch": 82, "duration": 10, "velocity": 30}, {"time": 204477, "pitch": 42, "duration": 10, "velocity": 64}, {"time": 204477, "pitch": 60, "duration": 10, "velocity": 100}, {"time": 204477, "pitch": 70, "duration": 10, "velocity": 50}, {"time": 204477, "pitch": 82, "duration": 10, "velocity": 100}, {"time": 204716, "pitch": 36, "duration": 10, "velocity": 92}, {"time": 204716, "pitch": 42, "duration": 10, "velocity": 36}, {"time": 204716, "pitch": 62, "duration": 10, "velocity": 60}, {"time": 204716, "pitch": 70, "duration": 10, "velocity": 30}, {"time": 204716, "pitch": 75, "duration": 10, "velocity": 120}, {"time": 204716, "pitch": 82, "duration": 10, "velocity": 30}, {"time": 204955, "pitch": 36, "duration": 10, "velocity": 92}, {"time": 204955, "pitch": 42, "duration": 10, "velocity": 64}, {"time": 204955, "pitch": 62, "duration": 10, "velocity": 50}, {"time": 204955, "pitch": 70, "duration": 10, "velocity": 50}, {"time": 204955, "pitch": 82, "duration": 10, "velocity": 60}, {"time": 205200, "pitch": 42, "duration": 10, "velocity": 36}, {"time": 205200, "pitch": 60, "duration": 10, "velocity": 100}, {"time": 205200, "pitch": 70, "duration": 10, "velocity": 30}, {"time": 205200, "pitch": 82, "duration": 10, "velocity": 30}, {"time": 205445, "pitch": 42, "duration": 10, "velocity": 64}, {"time": 205445, "pitch": 62, "duration": 10, "velocity": 60}, {"time": 205445, "pitch": 70, "duration": 10, "velocity": 50}, {"time": 205445, "pitch": 75, "duration": 10, "velocity": 120}, {"time": 205445, "pitch": 82, "duration": 10, "velocity": 100}, {"time": 205684, "pitch": 36, "duration": 10, "velocity": 92}, {"time": 205684, "pitch": 42, "duration": 10, "velocity": 36}, {"time": 205684, "pitch": 62, "duration": 10, "velocity": 50}, {"time": 205684, "pitch": 70, "duration": 10, "velocity": 30}, {"time": 205684, "pitch": 82, "duration": 10, "velocity": 30}, {"time": 205923, "pitch": 36, "duration": 10, "velocity": 92}, {"time": 205923, "pitch": 42, "duration": 10, "velocity": 64}, {"time": 205923, "pitch": 60, "duration": 10, "velocity": 100}, {"time": 205923, "pitch": 70, "duration": 10, "velocity": 50}, {"time": 205923, "pitch": 82, "duration": 10, "velocity": 60}, {"time": 206162, "pitch": 42, "duration": 10, "velocity": 36}, {"time": 206162, "pitch": 62, "duration": 10, "velocity": 60}, {"time": 206162, "pitch": 70, "duration": 10, "velocity": 30}, {"time": 206162, "pitch": 75, "duration": 10, "velocity": 120}, {"time": 206162, "pitch": 82, "duration": 10, "velocity": 30}, {"time": 206401, "pitch": 42, "duration": 10, "velocity": 64}, {"time": 206401, "pitch": 62, "duration": 10, "velocity": 50}, {"time": 206401, "pitch": 70, "duration": 10, "velocity": 50}, {"time": 206401, "pitch": 82, "duration": 10, "velocity": 100}, {"time": 206641, "pitch": 36, "duration": 10, "velocity": 92}, {"time": 206641, "pitch": 42, "duration": 10, "velocity": 36}, {"time": 206641, "pitch": 60, "duration": 10, "velocity": 100}, {"time": 206641, "pitch": 70, "duration": 10, "velocity": 30}, {"time": 206641, "pitch": 82, "duration": 10, "velocity": 30}, {"time": 206880, "pitch": 36, "duration": 10, "velocity": 92}, {"time": 206880, "pitch": 42, "duration": 10, "velocity": 64}, {"time": 206880, "pitch": 62, "duration": 10, "velocity": 60}, {"time": 206880, "pitch": 70, "duration": 10, "velocity": 50}, {"time": 206880, "pitch": 75, "duration": 10, "velocity": 120}, {"time": 206880, "pitch": 82, "duration": 10, "velocity": 60}, {"time": 207119, "pitch": 42, "duration": 10, "velocity": 36}, {"time": 207119, "pitch": 62, "duration": 10, "velocity": 50}, {"time": 207119, "pitch": 70, "duration": 10, "velocity": 30}, {"time": 207119, "pitch": 82, "duration": 10, "velocity": 30}, {"time": 207358, "pitch": 42, "duration": 10, "velocity": 64}, {"time": 207358, "pitch": 60, "duration": 10, "velocity": 100}, {"time": 207358, "pitch": 70, "duration": 10, "velocity": 50}, {"time": 207358, "pitch": 75, "duration": 10, "velocity": 120}, {"time": 207358, "pitch": 82, "duration": 10, "velocity": 100}, {"time": 207597, "pitch": 36, "duration": 10, "velocity": 92}, {"time": 207597, "pitch": 42, "duration": 10, "velocity": 36}, {"time": 207597, "pitch": 62, "duration": 10, "velocity": 60}, {"time": 207597, "pitch": 70, "duration": 10, "velocity": 30}, {"time": 207597, "pitch": 82, "duration": 10, "velocity": 30}, {"time": 207837, "pitch": 36, "duration": 10, "velocity": 92}, {"time": 207837, "pitch": 42, "duration": 10, "velocity": 64}, {"time": 207837, "pitch": 62, "duration": 10, "velocity": 60}, {"time": 207837, "pitch": 70, "duration": 10, "velocity": 50}, {"time": 207837, "pitch": 75, "duration": 10, "velocity": 120}, {"time": 207837, "pitch": 82, "duration": 10, "velocity": 60}, {"time": 208076, "pitch": 42, "duration": 10, "velocity": 36}, {"time": 208076, "pitch": 62, "duration": 10, "velocity": 50}, {"time": 208076, "pitch": 70, "duration": 10, "velocity": 30}, {"time": 208076, "pitch": 82, "duration": 10, "velocity": 30}, {"time": 208315, "pitch": 42, "duration": 10, "velocity": 64}, {"time": 208315, "pitch": 60, "duration": 10, "velocity": 100}, {"time": 208315, "pitch": 70, "duration": 10, "velocity": 50}, {"time": 208315, "pitch": 82, "duration": 10, "velocity": 100}, {"time": 208560, "pitch": 36, "duration": 10, "velocity": 92}, {"time": 208560, "pitch": 42, "duration": 10, "velocity": 36}, {"time": 208560, "pitch": 62, "duration": 10, "velocity": 60}, {"time": 208560, "pitch": 70, "duration": 10, "velocity": 30}, {"time": 208560, "pitch": 75, "duration": 10, "velocity": 120}, {"time": 208560, "pitch": 82, "duration": 10, "velocity": 30}, {"time": 208805, "pitch": 36, "duration": 10, "velocity": 92}, {"time": 208805, "pitch": 42, "duration": 10, "velocity": 64}, {"time": 208805, "pitch": 62, "duration": 10, "velocity": 50}, {"time": 208805, "pitch": 70, "duration": 10, "velocity": 50}, {"time": 208805, "pitch": 82, "duration": 10, "velocity": 60}, {"time": 209044, "pitch": 42, "duration": 10, "velocity": 36}, {"time": 209044, "pitch": 60, "duration": 10, "velocity": 100}, {"time": 209044, "pitch": 70, "duration": 10, "velocity": 30}, {"time": 209044, "pitch": 82, "duration": 10, "velocity": 30}, {"time": 209283, "pitch": 42, "duration": 10, "velocity": 64}, {"time": 209283, "pitch": 62, "duration": 10, "velocity": 60}, {"time": 209283, "pitch": 70, "duration": 10, "velocity": 50}, {"time": 209283, "pitch": 75, "duration": 10, "velocity": 120}, {"time": 209283, "pitch": 82, "duration": 10, "velocity": 100}, {"time": 209522, "pitch": 36, "duration": 10, "velocity": 92}, {"time": 209522, "pitch": 42, "duration": 10, "velocity": 36}, {"time": 209522, "pitch": 62, "duration": 10, "velocity": 50}, {"time": 209522, "pitch": 70, "duration": 10, "velocity": 30}, {"time": 209522, "pitch": 82, "duration": 10, "velocity": 30}, {"time": 209761, "pitch": 36, "duration": 10, "velocity": 92}, {"time": 209761, "pitch": 42, "duration": 10, "velocity": 64}, {"time": 209761, "pitch": 60, "duration": 10, "velocity": 100}, {"time": 209761, "pitch": 70, "duration": 10, "velocity": 50}, {"time": 209761, "pitch": 82, "duration": 10, "velocity": 60}, {"time": 210001, "pitch": 42, "duration": 10, "velocity": 36}, {"time": 210001, "pitch": 62, "duration": 10, "velocity": 60}, {"time": 210001, "pitch": 70, "duration": 10, "velocity": 30}, {"time": 210001, "pitch": 75, "duration": 10, "velocity": 120}, {"time": 210001, "pitch": 82, "duration": 10, "velocity": 30}, {"time": 210240, "pitch": 42, "duration": 10, "velocity": 64}, {"time": 210240, "pitch": 62, "duration": 10, "velocity": 50}, {"time": 210240, "pitch": 70, "duration": 10, "velocity": 50}, {"time": 210240, "pitch": 82, "duration": 10, "velocity": 100}, {"time": 210479, "pitch": 36, "duration": 10, "velocity": 92}, {"time": 210479, "pitch": 42, "duration": 10, "velocity": 36}, {"time": 210479, "pitch": 60, "duration": 10, "velocity": 100}, {"time": 210479, "pitch": 70, "duration": 10, "velocity": 30}, {"time": 210479, "pitch": 82, "duration": 10, "velocity": 30}, {"time": 210718, "pitch": 36, "duration": 10, "velocity": 92}, {"time": 210718, "pitch": 42, "duration": 10, "velocity": 64}, {"time": 210718, "pitch": 62, "duration": 10, "velocity": 60}, {"time": 210718, "pitch": 70, "duration": 10, "velocity": 50}, {"time": 210718, "pitch": 75, "duration": 10, "velocity": 120}, {"time": 210718, "pitch": 82, "duration": 10, "velocity": 60}, {"time": 210957, "pitch": 42, "duration": 10, "velocity": 36}, {"time": 210957, "pitch": 62, "duration": 10, "velocity": 50}, {"time": 210957, "pitch": 70, "duration": 10, "velocity": 30}, {"time": 210957, "pitch": 82, "duration": 10, "velocity": 30}, {"time": 211197, "pitch": 42, "duration": 10, "velocity": 64}, {"time": 211197, "pitch": 60, "duration": 10, "velocity": 100}, {"time": 211197, "pitch": 70, "duration": 10, "velocity": 50}, {"time": 211197, "pitch": 75, "duration": 10, "velocity": 120}, {"time": 211197, "pitch": 82, "duration": 10, "velocity": 100}, {"time": 211436, "pitch": 36, "duration": 10, "velocity": 92}, {"time": 211436, "pitch": 42, "duration": 10, "velocity": 36}, {"time": 211436, "pitch": 62, "duration": 10, "velocity": 60}, {"time": 211436, "pitch": 70, "duration": 10, "velocity": 30}, {"time": 211436, "pitch": 82, "duration": 10, "velocity": 30}, {"time": 211675, "pitch": 36, "duration": 10, "velocity": 92}, {"time": 211675, "pitch": 42, "duration": 10, "velocity": 64}, {"time": 211675, "pitch": 62, "duration": 10, "velocity": 60}, {"time": 211675, "pitch": 70, "duration": 10, "velocity": 50}, {"time": 211675, "pitch": 75, "duration": 10, "velocity": 120}, {"time": 211675, "pitch": 82, "duration": 10, "velocity": 60}, {"time": 211920, "pitch": 42, "duration": 10, "velocity": 36}, {"time": 211920, "pitch": 62, "duration": 10, "velocity": 50}, {"time": 211920, "pitch": 70, "duration": 10, "velocity": 30}, {"time": 211920, "pitch": 82, "duration": 10, "velocity": 30}, {"time": 212165, "pitch": 42, "duration": 10, "velocity": 64}, {"time": 212165, "pitch": 60, "duration": 10, "velocity": 100}, {"time": 212165, "pitch": 70, "duration": 10, "velocity": 50}, {"time": 212165, "pitch": 82, "duration": 10, "velocity": 100}, {"time": 212404, "pitch": 36, "duration": 10, "velocity": 92}, {"time": 212404, "pitch": 42, "duration": 10, "velocity": 36}, {"time": 212404, "pitch": 62, "duration": 10, "velocity": 60}, {"time": 212404, "pitch": 70, "duration": 10, "velocity": 30}, {"time": 212404, "pitch": 75, "duration": 10, "velocity": 120}, {"time": 212404, "pitch": 82, "duration": 10, "velocity": 30}, {"time": 212643, "pitch": 36, "duration": 10, "velocity": 92}, {"time": 212643, "pitch": 42, "duration": 10, "velocity": 64}, {"time": 212643, "pitch": 62, "duration": 10, "velocity": 50}, {"time": 212643, "pitch": 70, "duration": 10, "velocity": 50}, {"time": 212643, "pitch": 82, "duration": 10, "velocity": 60}, {"time": 212882, "pitch": 42, "duration": 10, "velocity": 36}, {"time": 212882, "pitch": 60, "duration": 10, "velocity": 100}, {"time": 212882, "pitch": 70, "duration": 10, "velocity": 30}, {"time": 212882, "pitch": 82, "duration": 10, "velocity": 30}, {"time": 213121, "pitch": 42, "duration": 10, "velocity": 64}, {"time": 213121, "pitch": 62, "duration": 10, "velocity": 60}, {"time": 213121, "pitch": 70, "duration": 10, "velocity": 50}, {"time": 213121, "pitch": 75, "duration": 10, "velocity": 120}, {"time": 213121, "pitch": 82, "duration": 10, "velocity": 100}, {"time": 213361, "pitch": 36, "duration": 10, "velocity": 92}, {"time": 213361, "pitch": 42, "duration": 10, "velocity": 36}, {"time": 213361, "pitch": 62, "duration": 10, "velocity": 50}, {"time": 213361, "pitch": 70, "duration": 10, "velocity": 30}, {"time": 213361, "pitch": 82, "duration": 10, "velocity": 30}, {"time": 213600, "pitch": 36, "duration": 10, "velocity": 92}, {"time": 213600, "pitch": 42, "duration": 10, "velocity": 64}, {"time": 213600, "pitch": 60, "duration": 10, "velocity": 100}, {"time": 213600, "pitch": 70, "duration": 10, "velocity": 50}, {"time": 213600, "pitch": 82, "duration": 10, "velocity": 60}, {"time": 213839, "pitch": 42, "duration": 10, "velocity": 36}, {"time": 213839, "pitch": 62, "duration": 10, "velocity": 60}, {"time": 213839, "pitch": 70, "duration": 10, "velocity": 30}, {"time": 213839, "pitch": 75, "duration": 10, "velocity": 120}, {"time": 213839, "pitch": 82, "duration": 10, "velocity": 30}, {"time": 214078, "pitch": 42, "duration": 10, "velocity": 64}, {"time": 214078, "pitch": 62, "duration": 10, "velocity": 50}, {"time": 214078, "pitch": 70, "duration": 10, "velocity": 50}, {"time": 214078, "pitch": 82, "duration": 10, "velocity": 100}, {"time": 214317, "pitch": 36, "duration": 10, "velocity": 92}, {"time": 214317, "pitch": 42, "duration": 10, "velocity": 36}, {"time": 214317, "pitch": 60, "duration": 10, "velocity": 100}, {"time": 214317, "pitch": 70, "duration": 10, "velocity": 30}, {"time": 214317, "pitch": 82, "duration": 10, "velocity": 30}, {"time": 214557, "pitch": 36, "duration": 10, "velocity": 92}, {"time": 214557, "pitch": 42, "duration": 10, "velocity": 64}, {"time": 214557, "pitch": 62, "duration": 10, "velocity": 60}, {"time": 214557, "pitch": 70, "duration": 10, "velocity": 50}, {"time": 214557, "pitch": 75, "duration": 10, "velocity": 120}, {"time": 214557, "pitch": 82, "duration": 10, "velocity": 60}, {"time": 214796, "pitch": 42, "duration": 10, "velocity": 36}, {"time": 214796, "pitch": 62, "duration": 10, "velocity": 50}, {"time": 214796, "pitch": 70, "duration": 10, "velocity": 30}, {"time": 214796, "pitch": 82, "duration": 10, "velocity": 30}, {"time": 215035, "pitch": 42, "duration": 10, "velocity": 64}, {"time": 215035, "pitch": 60, "duration": 10, "velocity": 100}, {"time": 215035, "pitch": 70, "duration": 10, "velocity": 50}, {"time": 215035, "pitch": 75, "duration": 10, "velocity": 120}, {"time": 215035, "pitch": 82, "duration": 10, "velocity": 100}, {"time": 215280, "pitch": 36, "duration": 10, "velocity": 92}, {"time": 215280, "pitch": 42, "duration": 10, "velocity": 36}, {"time": 215280, "pitch": 62, "duration": 10, "velocity": 60}, {"time": 215280, "pitch": 70, "duration": 10, "velocity": 30}, {"time": 215280, "pitch": 82, "duration": 10, "velocity": 30}, {"time": 215525, "pitch": 36, "duration": 10, "velocity": 92}, {"time": 215525, "pitch": 42, "duration": 10, "velocity": 64}, {"time": 215525, "pitch": 62, "duration": 10, "velocity": 60}, {"time": 215525, "pitch": 70, "duration": 10, "velocity": 50}, {"time": 215525, "pitch": 75, "duration": 10, "velocity": 120}, {"time": 215525, "pitch": 82, "duration": 10, "velocity": 60}, {"time": 215764, "pitch": 42, "duration": 10, "velocity": 36}, {"time": 215764, "pitch": 62, "duration": 10, "velocity": 50}, {"time": 215764, "pitch": 70, "duration": 10, "velocity": 30}, {"time": 215764, "pitch": 82, "duration": 10, "velocity": 30}, {"time": 216003, "pitch": 42, "duration": 10, "velocity": 64}, {"time": 216003, "pitch": 60, "duration": 10, "velocity": 100}, {"time": 216003, "pitch": 70, "duration": 10, "velocity": 50}, {"time": 216003, "pitch": 82, "duration": 10, "velocity": 100}, {"time": 216242, "pitch": 36, "duration": 10, "velocity": 92}, {"time": 216242, "pitch": 42, "duration": 10, "velocity": 36}, {"time": 216242, "pitch": 62, "duration": 10, "velocity": 60}, {"time": 216242, "pitch": 70, "duration": 10, "velocity": 30}, {"time": 216242, "pitch": 75, "duration": 10, "velocity": 120}, {"time": 216242, "pitch": 82, "duration": 10, "velocity": 30}, {"time": 216481, "pitch": 36, "duration": 10, "velocity": 92}, {"time": 216481, "pitch": 42, "duration": 10, "velocity": 64}, {"time": 216481, "pitch": 62, "duration": 10, "velocity": 50}, {"time": 216481, "pitch": 70, "duration": 10, "velocity": 50}, {"time": 216481, "pitch": 82, "duration": 10, "velocity": 60}, {"time": 216721, "pitch": 42, "duration": 10, "velocity": 36}, {"time": 216721, "pitch": 60, "duration": 10, "velocity": 100}, {"time": 216721, "pitch": 70, "duration": 10, "velocity": 30}, {"time": 216721, "pitch": 82, "duration": 10, "velocity": 30}, {"time": 216960, "pitch": 42, "duration": 10, "velocity": 64}, {"time": 216960, "pitch": 62, "duration": 10, "velocity": 60}, {"time": 216960, "pitch": 70, "duration": 10, "velocity": 50}, {"time": 216960, "pitch": 75, "duration": 10, "velocity": 120}, {"time": 216960, "pitch": 82, "duration": 10, "velocity": 100}, {"time": 217199, "pitch": 36, "duration": 10, "velocity": 92}, {"time": 217199, "pitch": 42, "duration": 10, "velocity": 36}, {"time": 217199, "pitch": 62, "duration": 10, "velocity": 50}, {"time": 217199, "pitch": 70, "duration": 10, "velocity": 30}, {"time": 217199, "pitch": 82, "duration": 10, "velocity": 30}, {"time": 217438, "pitch": 36, "duration": 10, "velocity": 92}, {"time": 217438, "pitch": 42, "duration": 10, "velocity": 64}, {"time": 217438, "pitch": 60, "duration": 10, "velocity": 100}, {"time": 217438, "pitch": 70, "duration": 10, "velocity": 50}, {"time": 217438, "pitch": 82, "duration": 10, "velocity": 60}, {"time": 217677, "pitch": 42, "duration": 10, "velocity": 36}, {"time": 217677, "pitch": 62, "duration": 10, "velocity": 60}, {"time": 217677, "pitch": 70, "duration": 10, "velocity": 30}, {"time": 217677, "pitch": 75, "duration": 10, "velocity": 120}, {"time": 217677, "pitch": 82, "duration": 10, "velocity": 30}, {"time": 217917, "pitch": 42, "duration": 10, "velocity": 64}, {"time": 217917, "pitch": 62, "duration": 10, "velocity": 50}, {"time": 217917, "pitch": 70, "duration": 10, "velocity": 50}, {"time": 217917, "pitch": 82, "duration": 10, "velocity": 100}, {"time": 218156, "pitch": 36, "duration": 10, "velocity": 92}, {"time": 218156, "pitch": 42, "duration": 10, "velocity": 36}, {"time": 218156, "pitch": 60, "duration": 10, "velocity": 100}, {"time": 218156, "pitch": 70, "duration": 10, "velocity": 30}, {"time": 218156, "pitch": 82, "duration": 10, "velocity": 30}, {"time": 218395, "pitch": 36, "duration": 10, "velocity": 92}, {"time": 218395, "pitch": 42, "duration": 10, "velocity": 64}, {"time": 218395, "pitch": 62, "duration": 10, "velocity": 60}, {"time": 218395, "pitch": 70, "duration": 10, "velocity": 50}, {"time": 218395, "pitch": 75, "duration": 10, "velocity": 120}, {"time": 218395, "pitch": 82, "duration": 10, "velocity": 60}, {"time": 218640, "pitch": 42, "duration": 10, "velocity": 36}, {"time": 218640, "pitch": 62, "duration": 10, "velocity": 50}, {"time": 218640, "pitch": 70, "duration": 10, "velocity": 30}, {"time": 218640, "pitch": 82, "duration": 10, "velocity": 30}, {"time": 218885, "pitch": 42, "duration": 10, "velocity": 64}, {"time": 218885, "pitch": 60, "duration": 10, "velocity": 100}, {"time": 218885, "pitch": 70, "duration": 10, "velocity": 50}, {"time": 218885, "pitch": 75, "duration": 10, "velocity": 120}, {"time": 218885, "pitch": 82, "duration": 10, "velocity": 100}, {"time": 219124, "pitch": 36, "duration": 10, "velocity": 92}, {"time": 219124, "pitch": 42, "duration": 10, "velocity": 36}, {"time": 219124, "pitch": 62, "duration": 10, "velocity": 60}, {"time": 219124, "pitch": 70, "duration": 10, "velocity": 30}, {"time": 219124, "pitch": 82, "duration": 10, "velocity": 30}, {"time": 219363, "pitch": 36, "duration": 10, "velocity": 92}, {"time": 219363, "pitch": 42, "duration": 10, "velocity": 64}, {"time": 219363, "pitch": 62, "duration": 10, "velocity": 60}, {"time": 219363, "pitch": 70, "duration": 10, "velocity": 50}, {"time": 219363, "pitch": 75, "duration": 10, "velocity": 120}, {"time": 219363, "pitch": 82, "duration": 10, "velocity": 60}, {"time": 219602, "pitch": 42, "duration": 10, "velocity": 36}, {"time": 219602, "pitch": 62, "duration": 10, "velocity": 50}, {"time": 219602, "pitch": 70, "duration": 10, "velocity": 30}, {"time": 219602, "pitch": 82, "duration": 10, "velocity": 30}, {"time": 219841, "pitch": 42, "duration": 10, "velocity": 64}, {"time": 219841, "pitch": 60, "duration": 10, "velocity": 100}, {"time": 219841, "pitch": 70, "duration": 10, "velocity": 50}, {"time": 219841, "pitch": 82, "duration": 10, "velocity": 100}, {"time": 220081, "pitch": 36, "duration": 10, "velocity": 92}, {"time": 220081, "pitch": 42, "duration": 10, "velocity": 36}, {"time": 220081, "pitch": 62, "duration": 10, "velocity": 60}, {"time": 220081, "pitch": 70, "duration": 10, "velocity": 30}, {"time": 220081, "pitch": 75, "duration": 10, "velocity": 120}, {"time": 220081, "pitch": 82, "duration": 10, "velocity": 30}, {"time": 220320, "pitch": 36, "duration": 10, "velocity": 92}, {"time": 220320, "pitch": 42, "duration": 10, "velocity": 64}, {"time": 220320, "pitch": 62, "duration": 10, "velocity": 50}, {"time": 220320, "pitch": 70, "duration": 10, "velocity": 50}, {"time": 220320, "pitch": 82, "duration": 10, "velocity": 60}, {"time": 220559, "pitch": 42, "duration": 10, "velocity": 36}, {"time": 220559, "pitch": 60, "duration": 10, "velocity": 100}, {"time": 220559, "pitch": 70, "duration": 10, "velocity": 30}, {"time": 220559, "pitch": 82, "duration": 10, "velocity": 30}, {"time": 220798, "pitch": 42, "duration": 10, "velocity": 64}, {"time": 220798, "pitch": 62, "duration": 10, "velocity": 60}, {"time": 220798, "pitch": 70, "duration": 10, "velocity": 50}, {"time": 220798, "pitch": 75, "duration": 10, "velocity": 120}, {"time": 220798, "pitch": 82, "duration": 10, "velocity": 100}, {"time": 221037, "pitch": 36, "duration": 10, "velocity": 92}, {"time": 221037, "pitch": 42, "duration": 10, "velocity": 36}, {"time": 221037, "pitch": 62, "duration": 10, "velocity": 50}, {"time": 221037, "pitch": 70, "duration": 10, "velocity": 30}, {"time": 221037, "pitch": 82, "duration": 10, "velocity": 30}, {"time": 221277, "pitch": 36, "duration": 10, "velocity": 92}, {"time": 221277, "pitch": 42, "duration": 10, "velocity": 64}, {"time": 221277, "pitch": 60, "duration": 10, "velocity": 100}, {"time": 221277, "pitch": 70, "duration": 10, "velocity": 50}, {"time": 221277, "pitch": 82, "duration": 10, "velocity": 60}, {"time": 221516, "pitch": 42, "duration": 10, "velocity": 36}, {"time": 221516, "pitch": 62, "duration": 10, "velocity": 60}, {"time": 221516, "pitch": 70, "duration": 10, "velocity": 30}, {"time": 221516, "pitch": 75, "duration": 10, "velocity": 120}, {"time": 221516, "pitch": 82, "duration": 10, "velocity": 30}, {"time": 221755, "pitch": 42, "duration": 10, "velocity": 64}, {"time": 221755, "pitch": 62, "duration": 10, "velocity": 50}, {"time": 221755, "pitch": 70, "duration": 10, "velocity": 50}, {"time": 221755, "pitch": 82, "duration": 10, "velocity": 100}, {"time": 222000, "pitch": 36, "duration": 10, "velocity": 92}, {"time": 222000, "pitch": 42, "duration": 10, "velocity": 36}, {"time": 222000, "pitch": 60, "duration": 10, "velocity": 100}, {"time": 222000, "pitch": 70, "duration": 10, "velocity": 30}, {"time": 222000, "pitch": 82, "duration": 10, "velocity": 30}, {"time": 222245, "pitch": 36, "duration": 10, "velocity": 92}, {"time": 222245, "pitch": 42, "duration": 10, "velocity": 64}, {"time": 222245, "pitch": 62, "duration": 10, "velocity": 60}, {"time": 222245, "pitch": 70, "duration": 10, "velocity": 50}, {"time": 222245, "pitch": 75, "duration": 10, "velocity": 120}, {"time": 222245, "pitch": 82, "duration": 10, "velocity": 60}, {"time": 222484, "pitch": 42, "duration": 10, "velocity": 36}, {"time": 222484, "pitch": 62, "duration": 10, "velocity": 50}, {"time": 222484, "pitch": 70, "duration": 10, "velocity": 30}, {"time": 222484, "pitch": 82, "duration": 10, "velocity": 30}, {"time": 222723, "pitch": 42, "duration": 10, "velocity": 64}, {"time": 222723, "pitch": 60, "duration": 10, "velocity": 100}, {"time": 222723, "pitch": 70, "duration": 10, "velocity": 50}, {"time": 222723, "pitch": 75, "duration": 10, "velocity": 120}, {"time": 222723, "pitch": 82, "duration": 10, "velocity": 100}, {"time": 222962, "pitch": 36, "duration": 10, "velocity": 92}, {"time": 222962, "pitch": 42, "duration": 10, "velocity": 36}, {"time": 222962, "pitch": 62, "duration": 10, "velocity": 60}, {"time": 222962, "pitch": 70, "duration": 10, "velocity": 30}, {"time": 222962, "pitch": 82, "duration": 10, "velocity": 30}, {"time": 223201, "pitch": 36, "duration": 10, "velocity": 92}, {"time": 223201, "pitch": 42, "duration": 10, "velocity": 64}, {"time": 223201, "pitch": 62, "duration": 10, "velocity": 60}, {"time": 223201, "pitch": 70, "duration": 10, "velocity": 50}, {"time": 223201, "pitch": 75, "duration": 10, "velocity": 120}, {"time": 223201, "pitch": 82, "duration": 10, "velocity": 60}, {"time": 223441, "pitch": 42, "duration": 10, "velocity": 36}, {"time": 223441, "pitch": 62, "duration": 10, "velocity": 50}, {"time": 223441, "pitch": 70, "duration": 10, "velocity": 30}, {"time": 223441, "pitch": 82, "duration": 10, "velocity": 30}, {"time": 223680, "pitch": 42, "duration": 10, "velocity": 64}, {"time": 223680, "pitch": 60, "duration": 10, "velocity": 100}, {"time": 223680, "pitch": 70, "duration": 10, "velocity": 50}, {"time": 223680, "pitch": 82, "duration": 10, "velocity": 100}, {"time": 223919, "pitch": 36, "duration": 10, "velocity": 92}, {"time": 223919, "pitch": 42, "duration": 10, "velocity": 36}, {"time": 223919, "pitch": 62, "duration": 10, "velocity": 60}, {"time": 223919, "pitch": 70, "duration": 10, "velocity": 30}, {"time": 223919, "pitch": 75, "duration": 10, "velocity": 120}, {"time": 223919, "pitch": 82, "duration": 10, "velocity": 30}, {"time": 224158, "pitch": 36, "duration": 10, "velocity": 92}, {"time": 224158, "pitch": 42, "duration": 10, "velocity": 64}, {"time": 224158, "pitch": 62, "duration": 10, "velocity": 50}, {"time": 224158, "pitch": 70, "duration": 10, "velocity": 50}, {"time": 224158, "pitch": 82, "duration": 10, "velocity": 60}, {"time": 224397, "pitch": 42, "duration": 10, "velocity": 36}, {"time": 224397, "pitch": 60, "duration": 10, "velocity": 100}, {"time": 224397, "pitch": 70, "duration": 10, "velocity": 30}, {"time": 224397, "pitch": 82, "duration": 10, "velocity": 30}, {"time": 224637, "pitch": 42, "duration": 10, "velocity": 64}, {"time": 224637, "pitch": 62, "duration": 10, "velocity": 60}, {"time": 224637, "pitch": 70, "duration": 10, "velocity": 50}, {"time": 224637, "pitch": 75, "duration": 10, "velocity": 120}, {"time": 224637, "pitch": 82, "duration": 10, "velocity": 100}, {"time": 224876, "pitch": 36, "duration": 10, "velocity": 92}, {"time": 224876, "pitch": 42, "duration": 10, "velocity": 36}, {"time": 224876, "pitch": 62, "duration": 10, "velocity": 50}, {"time": 224876, "pitch": 70, "duration": 10, "velocity": 30}, {"time": 224876, "pitch": 82, "duration": 10, "velocity": 30}, {"time": 225115, "pitch": 36, "duration": 10, "velocity": 92}, {"time": 225115, "pitch": 42, "duration": 10, "velocity": 64}, {"time": 225115, "pitch": 60, "duration": 10, "velocity": 100}, {"time": 225115, "pitch": 70, "duration": 10, "velocity": 50}, {"time": 225115, "pitch": 82, "duration": 10, "velocity": 60}, {"time": 225360, "pitch": 42, "duration": 10, "velocity": 36}, {"time": 225360, "pitch": 62, "duration": 10, "velocity": 60}, {"time": 225360, "pitch": 70, "duration": 10, "velocity": 30}, {"time": 225360, "pitch": 75, "duration": 10, "velocity": 120}, {"time": 225360, "pitch": 82, "duration": 10, "velocity": 30}, {"time": 225605, "pitch": 42, "duration": 10, "velocity": 64}, {"time": 225605, "pitch": 62, "duration": 10, "velocity": 50}, {"time": 225605, "pitch": 70, "duration": 10, "velocity": 50}, {"time": 225605, "pitch": 82, "duration": 10, "velocity": 100}, {"time": 225844, "pitch": 36, "duration": 10, "velocity": 92}, {"time": 225844, "pitch": 42, "duration": 10, "velocity": 36}, {"time": 225844, "pitch": 60, "duration": 10, "velocity": 100}, {"time": 225844, "pitch": 70, "duration": 10, "velocity": 30}, {"time": 225844, "pitch": 82, "duration": 10, "velocity": 30}, {"time": 226083, "pitch": 36, "duration": 10, "velocity": 92}, {"time": 226083, "pitch": 42, "duration": 10, "velocity": 64}, {"time": 226083, "pitch": 62, "duration": 10, "velocity": 60}, {"time": 226083, "pitch": 70, "duration": 10, "velocity": 50}, {"time": 226083, "pitch": 75, "duration": 10, "velocity": 120}, {"time": 226083, "pitch": 82, "duration": 10, "velocity": 60}, {"time": 226322, "pitch": 42, "duration": 10, "velocity": 36}, {"time": 226322, "pitch": 62, "duration": 10, "velocity": 50}, {"time": 226322, "pitch": 70, "duration": 10, "velocity": 30}, {"time": 226322, "pitch": 82, "duration": 10, "velocity": 30}, {"time": 226561, "pitch": 42, "duration": 10, "velocity": 64}, {"time": 226561, "pitch": 60, "duration": 10, "velocity": 100}, {"time": 226561, "pitch": 70, "duration": 10, "velocity": 50}, {"time": 226561, "pitch": 75, "duration": 10, "velocity": 120}, {"time": 226561, "pitch": 82, "duration": 10, "velocity": 100}, {"time": 226801, "pitch": 36, "duration": 10, "velocity": 92}, {"time": 226801, "pitch": 42, "duration": 10, "velocity": 36}, {"time": 226801, "pitch": 62, "duration": 10, "velocity": 60}, {"time": 226801, "pitch": 70, "duration": 10, "velocity": 30}, {"time": 226801, "pitch": 82, "duration": 10, "velocity": 30}, {"time": 227040, "pitch": 36, "duration": 10, "velocity": 92}, {"time": 227040, "pitch": 42, "duration": 10, "velocity": 64}, {"time": 227040, "pitch": 62, "duration": 10, "velocity": 60}, {"time": 227040, "pitch": 70, "duration": 10, "velocity": 50}, {"time": 227040, "pitch": 75, "duration": 10, "velocity": 120}, {"time": 227040, "pitch": 82, "duration": 10, "velocity": 60}, {"time": 227279, "pitch": 42, "duration": 10, "velocity": 36}, {"time": 227279, "pitch": 62, "duration": 10, "velocity": 50}, {"time": 227279, "pitch": 70, "duration": 10, "velocity": 30}, {"time": 227279, "pitch": 82, "duration": 10, "velocity": 30}, {"time": 227518, "pitch": 42, "duration": 10, "velocity": 64}, {"time": 227518, "pitch": 60, "duration": 10, "velocity": 100}, {"time": 227518, "pitch": 70, "duration": 10, "velocity": 50}, {"time": 227518, "pitch": 82, "duration": 10, "velocity": 100}, {"time": 227757, "pitch": 36, "duration": 10, "velocity": 92}, {"time": 227757, "pitch": 42, "duration": 10, "velocity": 36}, {"time": 227757, "pitch": 62, "duration": 10, "velocity": 60}, {"time": 227757, "pitch": 70, "duration": 10, "velocity": 30}, {"time": 227757, "pitch": 75, "duration": 10, "velocity": 120}, {"time": 227757, "pitch": 82, "duration": 10, "velocity": 30}, {"time": 227997, "pitch": 36, "duration": 10, "velocity": 92}, {"time": 227997, "pitch": 42, "duration": 10, "velocity": 64}, {"time": 227997, "pitch": 62, "duration": 10, "velocity": 50}, {"time": 227997, "pitch": 70, "duration": 10, "velocity": 50}, {"time": 227997, "pitch": 82, "duration": 10, "velocity": 60}, {"time": 228236, "pitch": 42, "duration": 10, "velocity": 36}, {"time": 228236, "pitch": 60, "duration": 10, "velocity": 100}, {"time": 228236, "pitch": 70, "duration": 10, "velocity": 30}, {"time": 228236, "pitch": 82, "duration": 10, "velocity": 30}, {"time": 228475, "pitch": 42, "duration": 10, "velocity": 64}, {"time": 228475, "pitch": 62, "duration": 10, "velocity": 60}, {"time": 228475, "pitch": 70, "duration": 10, "velocity": 50}, {"time": 228475, "pitch": 75, "duration": 10, "velocity": 120}, {"time": 228475, "pitch": 82, "duration": 10, "velocity": 100}, {"time": 228720, "pitch": 36, "duration": 10, "velocity": 92}, {"time": 228720, "pitch": 42, "duration": 10, "velocity": 36}, {"time": 228720, "pitch": 62, "duration": 10, "velocity": 50}, {"time": 228720, "pitch": 70, "duration": 10, "velocity": 30}, {"time": 228720, "pitch": 82, "duration": 10, "velocity": 30}, {"time": 228965, "pitch": 36, "duration": 10, "velocity": 92}, {"time": 228965, "pitch": 42, "duration": 10, "velocity": 64}, {"time": 228965, "pitch": 60, "duration": 10, "velocity": 100}, {"time": 228965, "pitch": 70, "duration": 10, "velocity": 50}, {"time": 228965, "pitch": 82, "duration": 10, "velocity": 60}, {"time": 229204, "pitch": 42, "duration": 10, "velocity": 36}, {"time": 229204, "pitch": 62, "duration": 10, "velocity": 60}, {"time": 229204, "pitch": 70, "duration": 10, "velocity": 30}, {"time": 229204, "pitch": 75, "duration": 10, "velocity": 120}, {"time": 229204, "pitch": 82, "duration": 10, "velocity": 30}, {"time": 229443, "pitch": 42, "duration": 10, "velocity": 64}, {"time": 229443, "pitch": 62, "duration": 10, "velocity": 50}, {"time": 229443, "pitch": 70, "duration": 10, "velocity": 50}, {"time": 229443, "pitch": 82, "duration": 10, "velocity": 100}, {"time": 229682, "pitch": 36, "duration": 10, "velocity": 92}, {"time": 229682, "pitch": 42, "duration": 10, "velocity": 36}, {"time": 229682, "pitch": 60, "duration": 10, "velocity": 100}, {"time": 229682, "pitch": 70, "duration": 10, "velocity": 30}, {"time": 229682, "pitch": 82, "duration": 10, "velocity": 30}, {"time": 229921, "pitch": 36, "duration": 10, "velocity": 92}, {"time": 229921, "pitch": 42, "duration": 10, "velocity": 64}, {"time": 229921, "pitch": 62, "duration": 10, "velocity": 60}, {"time": 229921, "pitch": 70, "duration": 10, "velocity": 50}, {"time": 229921, "pitch": 75, "duration": 10, "velocity": 120}, {"time": 229921, "pitch": 82, "duration": 10, "velocity": 60}, {"time": 230161, "pitch": 42, "duration": 10, "velocity": 36}, {"time": 230161, "pitch": 62, "duration": 10, "velocity": 50}, {"time": 230161, "pitch": 70, "duration": 10, "velocity": 30}, {"time": 230161, "pitch": 82, "duration": 10, "velocity": 30}, {"time": 230400, "pitch": 42, "duration": 10, "velocity": 64}, {"time": 230400, "pitch": 60, "duration": 10, "velocity": 100}, {"time": 230400, "pitch": 70, "duration": 10, "velocity": 50}, {"time": 230400, "pitch": 75, "duration": 10, "velocity": 120}, {"time": 230400, "pitch": 82, "duration": 10, "velocity": 100}, {"time": 230639, "pitch": 36, "duration": 10, "velocity": 92}, {"time": 230639, "pitch": 42, "duration": 10, "velocity": 36}, {"time": 230639, "pitch": 62, "duration": 10, "velocity": 60}, {"time": 230639, "pitch": 70, "duration": 10, "velocity": 30}, {"time": 230639, "pitch": 82, "duration": 10, "velocity": 30}, {"time": 230878, "pitch": 36, "duration": 10, "velocity": 92}, {"time": 230878, "pitch": 42, "duration": 10, "velocity": 64}, {"time": 230878, "pitch": 62, "duration": 10, "velocity": 60}, {"time": 230878, "pitch": 70, "duration": 10, "velocity": 50}, {"time": 230878, "pitch": 75, "duration": 10, "velocity": 120}, {"time": 230878, "pitch": 82, "duration": 10, "velocity": 60}, {"time": 231117, "pitch": 42, "duration": 10, "velocity": 36}, {"time": 231117, "pitch": 62, "duration": 10, "velocity": 50}, {"time": 231117, "pitch": 70, "duration": 10, "velocity": 30}, {"time": 231117, "pitch": 82, "duration": 10, "velocity": 30}, {"time": 231357, "pitch": 42, "duration": 10, "velocity": 64}, {"time": 231357, "pitch": 60, "duration": 10, "velocity": 100}, {"time": 231357, "pitch": 70, "duration": 10, "velocity": 50}, {"time": 231357, "pitch": 82, "duration": 10, "velocity": 100}, {"time": 231596, "pitch": 36, "duration": 10, "velocity": 92}, {"time": 231596, "pitch": 42, "duration": 10, "velocity": 36}, {"time": 231596, "pitch": 62, "duration": 10, "velocity": 60}, {"time": 231596, "pitch": 70, "duration": 10, "velocity": 30}, {"time": 231596, "pitch": 75, "duration": 10, "velocity": 120}, {"time": 231596, "pitch": 82, "duration": 10, "velocity": 30}, {"time": 231835, "pitch": 36, "duration": 10, "velocity": 92}, {"time": 231835, "pitch": 42, "duration": 10, "velocity": 64}, {"time": 231835, "pitch": 62, "duration": 10, "velocity": 50}, {"time": 231835, "pitch": 70, "duration": 10, "velocity": 50}, {"time": 231835, "pitch": 82, "duration": 10, "velocity": 60}, {"time": 232080, "pitch": 42, "duration": 10, "velocity": 36}, {"time": 232080, "pitch": 60, "duration": 10, "velocity": 100}, {"time": 232080, "pitch": 70, "duration": 10, "velocity": 30}, {"time": 232080, "pitch": 82, "duration": 10, "velocity": 30}, {"time": 232325, "pitch": 42, "duration": 10, "velocity": 64}, {"time": 232325, "pitch": 62, "duration": 10, "velocity": 60}, {"time": 232325, "pitch": 70, "duration": 10, "velocity": 50}, {"time": 232325, "pitch": 75, "duration": 10, "velocity": 120}, {"time": 232325, "pitch": 82, "duration": 10, "velocity": 100}, {"time": 232564, "pitch": 36, "duration": 10, "velocity": 92}, {"time": 232564, "pitch": 42, "duration": 10, "velocity": 36}, {"time": 232564, "pitch": 62, "duration": 10, "velocity": 50}, {"time": 232564, "pitch": 70, "duration": 10, "velocity": 30}, {"time": 232564, "pitch": 82, "duration": 10, "velocity": 30}, {"time": 232803, "pitch": 36, "duration": 10, "velocity": 92}, {"time": 232803, "pitch": 42, "duration": 10, "velocity": 64}, {"time": 232803, "pitch": 60, "duration": 10, "velocity": 100}, {"time": 232803, "pitch": 70, "duration": 10, "velocity": 50}, {"time": 232803, "pitch": 82, "duration": 10, "velocity": 60}, {"time": 233042, "pitch": 42, "duration": 10, "velocity": 36}, {"time": 233042, "pitch": 62, "duration": 10, "velocity": 60}, {"time": 233042, "pitch": 70, "duration": 10, "velocity": 30}, {"time": 233042, "pitch": 75, "duration": 10, "velocity": 120}, {"time": 233042, "pitch": 82, "duration": 10, "velocity": 30}, {"time": 233281, "pitch": 42, "duration": 10, "velocity": 64}, {"time": 233281, "pitch": 62, "duration": 10, "velocity": 50}, {"time": 233281, "pitch": 70, "duration": 10, "velocity": 50}, {"time": 233281, "pitch": 82, "duration": 10, "velocity": 100}, {"time": 233521, "pitch": 36, "duration": 10, "velocity": 92}, {"time": 233521, "pitch": 42, "duration": 10, "velocity": 36}, {"time": 233521, "pitch": 60, "duration": 10, "velocity": 100}, {"time": 233521, "pitch": 70, "duration": 10, "velocity": 30}, {"time": 233521, "pitch": 82, "duration": 10, "velocity": 30}, {"time": 233760, "pitch": 36, "duration": 10, "velocity": 92}, {"time": 233760, "pitch": 42, "duration": 10, "velocity": 64}, {"time": 233760, "pitch": 62, "duration": 10, "velocity": 60}, {"time": 233760, "pitch": 70, "duration": 10, "velocity": 50}, {"time": 233760, "pitch": 75, "duration": 10, "velocity": 120}, {"time": 233760, "pitch": 82, "duration": 10, "velocity": 60}, {"time": 233999, "pitch": 42, "duration": 10, "velocity": 36}, {"time": 233999, "pitch": 62, "duration": 10, "velocity": 50}, {"time": 233999, "pitch": 70, "duration": 10, "velocity": 30}, {"time": 233999, "pitch": 82, "duration": 10, "velocity": 30}, {"time": 234238, "pitch": 42, "duration": 10, "velocity": 64}, {"time": 234238, "pitch": 60, "duration": 10, "velocity": 100}, {"time": 234238, "pitch": 70, "duration": 10, "velocity": 50}, {"time": 234238, "pitch": 75, "duration": 10, "velocity": 120}, {"time": 234238, "pitch": 82, "duration": 10, "velocity": 100}, {"time": 234477, "pitch": 36, "duration": 10, "velocity": 92}, {"time": 234477, "pitch": 42, "duration": 10, "velocity": 36}, {"time": 234477, "pitch": 62, "duration": 10, "velocity": 60}, {"time": 234477, "pitch": 70, "duration": 10, "velocity": 30}, {"time": 234477, "pitch": 82, "duration": 10, "velocity": 30}, {"time": 234717, "pitch": 36, "duration": 10, "velocity": 92}, {"time": 234717, "pitch": 42, "duration": 10, "velocity": 64}, {"time": 234717, "pitch": 62, "duration": 10, "velocity": 60}, {"time": 234717, "pitch": 70, "duration": 10, "velocity": 50}, {"time": 234717, "pitch": 75, "duration": 10, "velocity": 120}, {"time": 234717, "pitch": 82, "duration": 10, "velocity": 60}, {"time": 234956, "pitch": 42, "duration": 10, "velocity": 36}, {"time": 234956, "pitch": 62, "duration": 10, "velocity": 50}, {"time": 234956, "pitch": 70, "duration": 10, "velocity": 30}, {"time": 234956, "pitch": 82, "duration": 10, "velocity": 30}, {"time": 235195, "pitch": 42, "duration": 10, "velocity": 64}, {"time": 235195, "pitch": 60, "duration": 10, "velocity": 100}, {"time": 235195, "pitch": 70, "duration": 10, "velocity": 50}, {"time": 235195, "pitch": 82, "duration": 10, "velocity": 100}, {"time": 235440, "pitch": 36, "duration": 10, "velocity": 92}, {"time": 235440, "pitch": 42, "duration": 10, "velocity": 36}, {"time": 235440, "pitch": 62, "duration": 10, "velocity": 60}, {"time": 235440, "pitch": 70, "duration": 10, "velocity": 30}, {"time": 235440, "pitch": 75, "duration": 10, "velocity": 120}, {"time": 235440, "pitch": 82, "duration": 10, "velocity": 30}, {"time": 235685, "pitch": 36, "duration": 10, "velocity": 92}, {"time": 235685, "pitch": 42, "duration": 10, "velocity": 64}, {"time": 235685, "pitch": 62, "duration": 10, "velocity": 50}, {"time": 235685, "pitch": 70, "duration": 10, "velocity": 50}, {"time": 235685, "pitch": 82, "duration": 10, "velocity": 60}, {"time": 235924, "pitch": 42, "duration": 10, "velocity": 36}, {"time": 235924, "pitch": 60, "duration": 10, "velocity": 100}, {"time": 235924, "pitch": 70, "duration": 10, "velocity": 30}, {"time": 235924, "pitch": 82, "duration": 10, "velocity": 30}, {"time": 236163, "pitch": 42, "duration": 10, "velocity": 64}, {"time": 236163, "pitch": 62, "duration": 10, "velocity": 60}, {"time": 236163, "pitch": 70, "duration": 10, "velocity": 50}, {"time": 236163, "pitch": 75, "duration": 10, "velocity": 120}, {"time": 236163, "pitch": 82, "duration": 10, "velocity": 100}, {"time": 236402, "pitch": 36, "duration": 10, "velocity": 92}, {"time": 236402, "pitch": 42, "duration": 10, "velocity": 36}, {"time": 236402, "pitch": 62, "duration": 10, "velocity": 50}, {"time": 236402, "pitch": 70, "duration": 10, "velocity": 30}, {"time": 236402, "pitch": 82, "duration": 10, "velocity": 30}, {"time": 236641, "pitch": 36, "duration": 10, "velocity": 92}, {"time": 236641, "pitch": 42, "duration": 10, "velocity": 64}, {"time": 236641, "pitch": 60, "duration": 10, "velocity": 100}, {"time": 236641, "pitch": 70, "duration": 10, "velocity": 50}, {"time": 236641, "pitch": 82, "duration": 10, "velocity": 60}, {"time": 236881, "pitch": 42, "duration": 10, "velocity": 36}, {"time": 236881, "pitch": 62, "duration": 10, "velocity": 60}, {"time": 236881, "pitch": 70, "duration": 10, "velocity": 30}, {"time": 236881, "pitch": 75, "duration": 10, "velocity": 120}, {"time": 236881, "pitch": 82, "duration": 10, "velocity": 30}, {"time": 237120, "pitch": 42, "duration": 10, "velocity": 64}, {"time": 237120, "pitch": 62, "duration": 10, "velocity": 50}, {"time": 237120, "pitch": 70, "duration": 10, "velocity": 50}, {"time": 237120, "pitch": 82, "duration": 10, "velocity": 100}, {"time": 237359, "pitch": 36, "duration": 10, "velocity": 92}, {"time": 237359, "pitch": 42, "duration": 10, "velocity": 36}, {"time": 237359, "pitch": 60, "duration": 10, "velocity": 100}, {"time": 237359, "pitch": 70, "duration": 10, "velocity": 30}, {"time": 237359, "pitch": 82, "duration": 10, "velocity": 30}, {"time": 237598, "pitch": 36, "duration": 10, "velocity": 92}, {"time": 237598, "pitch": 42, "duration": 10, "velocity": 64}, {"time": 237598, "pitch": 62, "duration": 10, "velocity": 60}, {"time": 237598, "pitch": 70, "duration": 10, "velocity": 50}, {"time": 237598, "pitch": 75, "duration": 10, "velocity": 120}, {"time": 237598, "pitch": 82, "duration": 10, "velocity": 60}, {"time": 237837, "pitch": 42, "duration": 10, "velocity": 36}, {"time": 237837, "pitch": 62, "duration": 10, "velocity": 50}, {"time": 237837, "pitch": 70, "duration": 10, "velocity": 30}, {"time": 237837, "pitch": 82, "duration": 10, "velocity": 30}, {"time": 238077, "pitch": 42, "duration": 10, "velocity": 64}, {"time": 238077, "pitch": 60, "duration": 10, "velocity": 100}, {"time": 238077, "pitch": 70, "duration": 10, "velocity": 50}, {"time": 238077, "pitch": 75, "duration": 10, "velocity": 120}, {"time": 238077, "pitch": 82, "duration": 10, "velocity": 100}, {"time": 238316, "pitch": 36, "duration": 10, "velocity": 92}, {"time": 238316, "pitch": 42, "duration": 10, "velocity": 36}, {"time": 238316, "pitch": 62, "duration": 10, "velocity": 60}, {"time": 238316, "pitch": 70, "duration": 10, "velocity": 30}, {"time": 238316, "pitch": 82, "duration": 10, "velocity": 30}, {"time": 238555, "pitch": 36, "duration": 10, "velocity": 92}, {"time": 238555, "pitch": 42, "duration": 10, "velocity": 64}, {"time": 238555, "pitch": 62, "duration": 10, "velocity": 60}, {"time": 238555, "pitch": 70, "duration": 10, "velocity": 50}, {"time": 238555, "pitch": 75, "duration": 10, "velocity": 120}, {"time": 238555, "pitch": 82, "duration": 10, "velocity": 60}, {"time": 238800, "pitch": 42, "duration": 10, "velocity": 36}, {"time": 238800, "pitch": 62, "duration": 10, "velocity": 50}, {"time": 238800, "pitch": 70, "duration": 10, "velocity": 30}, {"time": 238800, "pitch": 82, "duration": 10, "velocity": 30}, {"time": 239045, "pitch": 42, "duration": 10, "velocity": 64}, {"time": 239045, "pitch": 60, "duration": 10, "velocity": 100}, {"time": 239045, "pitch": 70, "duration": 10, "velocity": 50}, {"time": 239045, "pitch": 82, "duration": 10, "velocity": 100}, {"time": 239284, "pitch": 36, "duration": 10, "velocity": 92}, {"time": 239284, "pitch": 42, "duration": 10, "velocity": 36}, {"time": 239284, "pitch": 62, "duration": 10, "velocity": 60}, {"time": 239284, "pitch": 70, "duration": 10, "velocity": 30}, {"time": 239284, "pitch": 75, "duration": 10, "velocity": 120}, {"time": 239284, "pitch": 82, "duration": 10, "velocity": 30}, {"time": 239523, "pitch": 36, "duration": 10, "velocity": 92}, {"time": 239523, "pitch": 42, "duration": 10, "velocity": 64}, {"time": 239523, "pitch": 62, "duration": 10, "velocity": 50}, {"time": 239523, "pitch": 70, "duration": 10, "velocity": 50}, {"time": 239523, "pitch": 82, "duration": 10, "velocity": 60}, {"time": 239762, "pitch": 42, "duration": 10, "velocity": 36}, {"time": 239762, "pitch": 60, "duration": 10, "velocity": 100}, {"time": 239762, "pitch": 70, "duration": 10, "velocity": 30}, {"time": 239762, "pitch": 82, "duration": 10, "velocity": 30}, {"time": 240001, "pitch": 42, "duration": 10, "velocity": 64}, {"time": 240001, "pitch": 62, "duration": 10, "velocity": 60}, {"time": 240001, "pitch": 70, "duration": 10, "velocity": 50}, {"time": 240001, "pitch": 75, "duration": 10, "velocity": 120}, {"time": 240001, "pitch": 82, "duration": 10, "velocity": 100}, {"time": 240241, "pitch": 36, "duration": 10, "velocity": 92}, {"time": 240241, "pitch": 42, "duration": 10, "velocity": 36}, {"time": 240241, "pitch": 62, "duration": 10, "velocity": 50}, {"time": 240241, "pitch": 70, "duration": 10, "velocity": 30}, {"time": 240241, "pitch": 82, "duration": 10, "velocity": 30}, {"time": 240480, "pitch": 36, "duration": 10, "velocity": 92}, {"time": 240480, "pitch": 42, "duration": 10, "velocity": 64}, {"time": 240480, "pitch": 60, "duration": 10, "velocity": 100}, {"time": 240480, "pitch": 70, "duration": 10, "velocity": 50}, {"time": 240480, "pitch": 82, "duration": 10, "velocity": 60}, {"time": 240719, "pitch": 42, "duration": 10, "velocity": 36}, {"time": 240719, "pitch": 62, "duration": 10, "velocity": 60}, {"time": 240719, "pitch": 70, "duration": 10, "velocity": 30}, {"time": 240719, "pitch": 75, "duration": 10, "velocity": 120}, {"time": 240719, "pitch": 82, "duration": 10, "velocity": 30}, {"time": 240958, "pitch": 42, "duration": 10, "velocity": 64}, {"time": 240958, "pitch": 62, "duration": 10, "velocity": 50}, {"time": 240958, "pitch": 70, "duration": 10, "velocity": 50}, {"time": 240958, "pitch": 82, "duration": 10, "velocity": 100}, {"time": 241197, "pitch": 36, "duration": 10, "velocity": 92}, {"time": 241197, "pitch": 42, "duration": 10, "velocity": 36}, {"time": 241197, "pitch": 60, "duration": 10, "velocity": 100}, {"time": 241197, "pitch": 70, "duration": 10, "velocity": 30}, {"time": 241197, "pitch": 82, "duration": 10, "velocity": 30}, {"time": 241437, "pitch": 36, "duration": 10, "velocity": 92}, {"time": 241437, "pitch": 42, "duration": 10, "velocity": 64}, {"time": 241437, "pitch": 62, "duration": 10, "velocity": 60}, {"time": 241437, "pitch": 70, "duration": 10, "velocity": 50}, {"time": 241437, "pitch": 75, "duration": 10, "velocity": 120}, {"time": 241437, "pitch": 82, "duration": 10, "velocity": 60}, {"time": 241676, "pitch": 42, "duration": 10, "velocity": 36}, {"time": 241676, "pitch": 62, "duration": 10, "velocity": 50}, {"time": 241676, "pitch": 70, "duration": 10, "velocity": 30}, {"time": 241676, "pitch": 82, "duration": 10, "velocity": 30}, {"time": 241915, "pitch": 42, "duration": 10, "velocity": 64}, {"time": 241915, "pitch": 60, "duration": 10, "velocity": 100}, {"time": 241915, "pitch": 70, "duration": 10, "velocity": 50}, {"time": 241915, "pitch": 75, "duration": 10, "velocity": 120}, {"time": 241915, "pitch": 82, "duration": 10, "velocity": 100}, {"time": 242160, "pitch": 36, "duration": 10, "velocity": 92}, {"time": 242160, "pitch": 42, "duration": 10, "velocity": 36}, {"time": 242160, "pitch": 62, "duration": 10, "velocity": 60}, {"time": 242160, "pitch": 70, "duration": 10, "velocity": 30}, {"time": 242160, "pitch": 82, "duration": 10, "velocity": 30}, {"time": 242405, "pitch": 36, "duration": 10, "velocity": 92}, {"time": 242405, "pitch": 42, "duration": 10, "velocity": 64}, {"time": 242405, "pitch": 62, "duration": 10, "velocity": 60}, {"time": 242405, "pitch": 70, "duration": 10, "velocity": 50}, {"time": 242405, "pitch": 75, "duration": 10, "velocity": 120}, {"time": 242405, "pitch": 82, "duration": 10, "velocity": 60}, {"time": 242644, "pitch": 42, "duration": 10, "velocity": 36}, {"time": 242644, "pitch": 62, "duration": 10, "velocity": 50}, {"time": 242644, "pitch": 70, "duration": 10, "velocity": 30}, {"time": 242644, "pitch": 82, "duration": 10, "velocity": 30}, {"time": 242883, "pitch": 42, "duration": 10, "velocity": 64}, {"time": 242883, "pitch": 60, "duration": 10, "velocity": 100}, {"time": 242883, "pitch": 70, "duration": 10, "velocity": 50}, {"time": 242883, "pitch": 82, "duration": 10, "velocity": 100}, {"time": 243122, "pitch": 36, "duration": 10, "velocity": 92}, {"time": 243122, "pitch": 42, "duration": 10, "velocity": 36}, {"time": 243122, "pitch": 62, "duration": 10, "velocity": 60}, {"time": 243122, "pitch": 70, "duration": 10, "velocity": 30}, {"time": 243122, "pitch": 75, "duration": 10, "velocity": 120}, {"time": 243122, "pitch": 82, "duration": 10, "velocity": 30}, {"time": 243361, "pitch": 36, "duration": 10, "velocity": 92}, {"time": 243361, "pitch": 42, "duration": 10, "velocity": 64}, {"time": 243361, "pitch": 62, "duration": 10, "velocity": 50}, {"time": 243361, "pitch": 70, "duration": 10, "velocity": 50}, {"time": 243361, "pitch": 82, "duration": 10, "velocity": 60}, {"time": 243601, "pitch": 42, "duration": 10, "velocity": 36}, {"time": 243601, "pitch": 60, "duration": 10, "velocity": 100}, {"time": 243601, "pitch": 70, "duration": 10, "velocity": 30}, {"time": 243601, "pitch": 82, "duration": 10, "velocity": 30}, {"time": 243840, "pitch": 42, "duration": 10, "velocity": 64}, {"time": 243840, "pitch": 62, "duration": 10, "velocity": 60}, {"time": 243840, "pitch": 70, "duration": 10, "velocity": 50}, {"time": 243840, "pitch": 75, "duration": 10, "velocity": 120}, {"time": 243840, "pitch": 82, "duration": 10, "velocity": 100}, {"time": 244079, "pitch": 36, "duration": 10, "velocity": 92}, {"time": 244079, "pitch": 42, "duration": 10, "velocity": 36}, {"time": 244079, "pitch": 62, "duration": 10, "velocity": 50}, {"time": 244079, "pitch": 70, "duration": 10, "velocity": 30}, {"time": 244079, "pitch": 82, "duration": 10, "velocity": 30}, {"time": 244318, "pitch": 36, "duration": 10, "velocity": 92}, {"time": 244318, "pitch": 42, "duration": 10, "velocity": 64}, {"time": 244318, "pitch": 60, "duration": 10, "velocity": 100}, {"time": 244318, "pitch": 70, "duration": 10, "velocity": 50}, {"time": 244318, "pitch": 82, "duration": 10, "velocity": 60}, {"time": 244557, "pitch": 42, "duration": 10, "velocity": 36}, {"time": 244557, "pitch": 62, "duration": 10, "velocity": 60}, {"time": 244557, "pitch": 70, "duration": 10, "velocity": 30}, {"time": 244557, "pitch": 75, "duration": 10, "velocity": 120}, {"time": 244557, "pitch": 82, "duration": 10, "velocity": 30}, {"time": 244797, "pitch": 42, "duration": 10, "velocity": 64}, {"time": 244797, "pitch": 62, "duration": 10, "velocity": 50}, {"time": 244797, "pitch": 70, "duration": 10, "velocity": 50}, {"time": 244797, "pitch": 82, "duration": 10, "velocity": 100}, {"time": 245036, "pitch": 36, "duration": 10, "velocity": 92}, {"time": 245036, "pitch": 42, "duration": 10, "velocity": 36}, {"time": 245036, "pitch": 60, "duration": 10, "velocity": 100}, {"time": 245036, "pitch": 70, "duration": 10, "velocity": 30}, {"time": 245036, "pitch": 82, "duration": 10, "velocity": 30}, {"time": 245275, "pitch": 36, "duration": 10, "velocity": 92}, {"time": 245275, "pitch": 42, "duration": 10, "velocity": 64}, {"time": 245275, "pitch": 62, "duration": 10, "velocity": 60}, {"time": 245275, "pitch": 70, "duration": 10, "velocity": 50}, {"time": 245275, "pitch": 75, "duration": 10, "velocity": 120}, {"time": 245275, "pitch": 82, "duration": 10, "velocity": 60}, {"time": 245520, "pitch": 42, "duration": 10, "velocity": 36}, {"time": 245520, "pitch": 62, "duration": 10, "velocity": 50}, {"time": 245520, "pitch": 70, "duration": 10, "velocity": 30}, {"time": 245520, "pitch": 82, "duration": 10, "velocity": 30}, {"time": 245765, "pitch": 42, "duration": 10, "velocity": 64}, {"time": 245765, "pitch": 60, "duration": 10, "velocity": 100}, {"time": 245765, "pitch": 70, "duration": 10, "velocity": 50}, {"time": 245765, "pitch": 75, "duration": 10, "velocity": 120}, {"time": 245765, "pitch": 82, "duration": 10, "velocity": 100}, {"time": 246004, "pitch": 36, "duration": 10, "velocity": 92}, {"time": 246004, "pitch": 42, "duration": 10, "velocity": 36}, {"time": 246004, "pitch": 62, "duration": 10, "velocity": 60}, {"time": 246004, "pitch": 70, "duration": 10, "velocity": 30}, {"time": 246004, "pitch": 82, "duration": 10, "velocity": 30}, {"time": 246243, "pitch": 36, "duration": 10, "velocity": 92}, {"time": 246243, "pitch": 42, "duration": 10, "velocity": 64}, {"time": 246243, "pitch": 62, "duration": 10, "velocity": 60}, {"time": 246243, "pitch": 70, "duration": 10, "velocity": 50}, {"time": 246243, "pitch": 75, "duration": 10, "velocity": 120}, {"time": 246243, "pitch": 82, "duration": 10, "velocity": 60}, {"time": 246482, "pitch": 42, "duration": 10, "velocity": 36}, {"time": 246482, "pitch": 62, "duration": 10, "velocity": 50}, {"time": 246482, "pitch": 70, "duration": 10, "velocity": 30}, {"time": 246482, "pitch": 82, "duration": 10, "velocity": 30}, {"time": 246721, "pitch": 42, "duration": 10, "velocity": 64}, {"time": 246721, "pitch": 60, "duration": 10, "velocity": 100}, {"time": 246721, "pitch": 70, "duration": 10, "velocity": 50}, {"time": 246721, "pitch": 82, "duration": 10, "velocity": 100}, {"time": 246961, "pitch": 36, "duration": 10, "velocity": 92}, {"time": 246961, "pitch": 42, "duration": 10, "velocity": 36}, {"time": 246961, "pitch": 62, "duration": 10, "velocity": 60}, {"time": 246961, "pitch": 70, "duration": 10, "velocity": 30}, {"time": 246961, "pitch": 75, "duration": 10, "velocity": 120}, {"time": 246961, "pitch": 82, "duration": 10, "velocity": 30}, {"time": 247200, "pitch": 36, "duration": 10, "velocity": 92}, {"time": 247200, "pitch": 42, "duration": 10, "velocity": 64}, {"time": 247200, "pitch": 62, "duration": 10, "velocity": 50}, {"time": 247200, "pitch": 70, "duration": 10, "velocity": 50}, {"time": 247200, "pitch": 82, "duration": 10, "velocity": 60}, {"time": 247439, "pitch": 42, "duration": 10, "velocity": 36}, {"time": 247439, "pitch": 60, "duration": 10, "velocity": 100}, {"time": 247439, "pitch": 70, "duration": 10, "velocity": 30}, {"time": 247439, "pitch": 82, "duration": 10, "velocity": 30}, {"time": 247678, "pitch": 42, "duration": 10, "velocity": 64}, {"time": 247678, "pitch": 62, "duration": 10, "velocity": 60}, {"time": 247678, "pitch": 70, "duration": 10, "velocity": 50}, {"time": 247678, "pitch": 75, "duration": 10, "velocity": 120}, {"time": 247678, "pitch": 82, "duration": 10, "velocity": 100}, {"time": 247917, "pitch": 36, "duration": 10, "velocity": 92}, {"time": 247917, "pitch": 42, "duration": 10, "velocity": 36}, {"time": 247917, "pitch": 62, "duration": 10, "velocity": 50}, {"time": 247917, "pitch": 70, "duration": 10, "velocity": 30}, {"time": 247917, "pitch": 82, "duration": 10, "velocity": 30}, {"time": 248157, "pitch": 36, "duration": 10, "velocity": 92}, {"time": 248157, "pitch": 42, "duration": 10, "velocity": 64}, {"time": 248157, "pitch": 60, "duration": 10, "velocity": 100}, {"time": 248157, "pitch": 70, "duration": 10, "velocity": 50}, {"time": 248157, "pitch": 82, "duration": 10, "velocity": 60}, {"time": 248396, "pitch": 42, "duration": 10, "velocity": 36}, {"time": 248396, "pitch": 62, "duration": 10, "velocity": 60}, {"time": 248396, "pitch": 70, "duration": 10, "velocity": 30}, {"time": 248396, "pitch": 75, "duration": 10, "velocity": 120}, {"time": 248396, "pitch": 82, "duration": 10, "velocity": 30}, {"time": 248635, "pitch": 42, "duration": 10, "velocity": 64}, {"time": 248635, "pitch": 62, "duration": 10, "velocity": 50}, {"time": 248635, "pitch": 70, "duration": 10, "velocity": 50}, {"time": 248635, "pitch": 82, "duration": 10, "velocity": 100}, {"time": 248880, "pitch": 36, "duration": 10, "velocity": 92}, {"time": 248880, "pitch": 42, "duration": 10, "velocity": 36}, {"time": 248880, "pitch": 60, "duration": 10, "velocity": 100}, {"time": 248880, "pitch": 70, "duration": 10, "velocity": 30}, {"time": 248880, "pitch": 82, "duration": 10, "velocity": 30}, {"time": 249125, "pitch": 36, "duration": 10, "velocity": 92}, {"time": 249125, "pitch": 42, "duration": 10, "velocity": 64}, {"time": 249125, "pitch": 62, "duration": 10, "velocity": 60}, {"time": 249125, "pitch": 70, "duration": 10, "velocity": 50}, {"time": 249125, "pitch": 75, "duration": 10, "velocity": 120}, {"time": 249125, "pitch": 82, "duration": 10, "velocity": 60}, {"time": 249364, "pitch": 42, "duration": 10, "velocity": 36}, {"time": 249364, "pitch": 62, "duration": 10, "velocity": 50}, {"time": 249364, "pitch": 70, "duration": 10, "velocity": 30}, {"time": 249364, "pitch": 82, "duration": 10, "velocity": 30}, {"time": 249603, "pitch": 42, "duration": 10, "velocity": 64}, {"time": 249603, "pitch": 60, "duration": 10, "velocity": 100}, {"time": 249603, "pitch": 70, "duration": 10, "velocity": 50}, {"time": 249603, "pitch": 75, "duration": 10, "velocity": 120}, {"time": 249603, "pitch": 82, "duration": 10, "velocity": 100}, {"time": 249842, "pitch": 36, "duration": 10, "velocity": 92}, {"time": 249842, "pitch": 42, "duration": 10, "velocity": 36}, {"time": 249842, "pitch": 62, "duration": 10, "velocity": 60}, {"time": 249842, "pitch": 70, "duration": 10, "velocity": 30}, {"time": 249842, "pitch": 82, "duration": 10, "velocity": 30}, {"time": 250081, "pitch": 36, "duration": 10, "velocity": 92}, {"time": 250081, "pitch": 42, "duration": 10, "velocity": 64}, {"time": 250081, "pitch": 62, "duration": 10, "velocity": 60}, {"time": 250081, "pitch": 70, "duration": 10, "velocity": 50}, {"time": 250081, "pitch": 75, "duration": 10, "velocity": 120}, {"time": 250081, "pitch": 82, "duration": 10, "velocity": 60}, {"time": 250321, "pitch": 42, "duration": 10, "velocity": 36}, {"time": 250321, "pitch": 62, "duration": 10, "velocity": 50}, {"time": 250321, "pitch": 70, "duration": 10, "velocity": 30}, {"time": 250321, "pitch": 82, "duration": 10, "velocity": 30}, {"time": 250560, "pitch": 42, "duration": 10, "velocity": 64}, {"time": 250560, "pitch": 60, "duration": 10, "velocity": 100}, {"time": 250560, "pitch": 70, "duration": 10, "velocity": 50}, {"time": 250560, "pitch": 82, "duration": 10, "velocity": 100}, {"time": 250799, "pitch": 36, "duration": 10, "velocity": 92}, {"time": 250799, "pitch": 42, "duration": 10, "velocity": 36}, {"time": 250799, "pitch": 62, "duration": 10, "velocity": 60}, {"time": 250799, "pitch": 70, "duration": 10, "velocity": 30}, {"time": 250799, "pitch": 75, "duration": 10, "velocity": 120}, {"time": 250799, "pitch": 82, "duration": 10, "velocity": 30}, {"time": 251038, "pitch": 36, "duration": 10, "velocity": 92}, {"time": 251038, "pitch": 42, "duration": 10, "velocity": 64}, {"time": 251038, "pitch": 62, "duration": 10, "velocity": 50}, {"time": 251038, "pitch": 70, "duration": 10, "velocity": 50}, {"time": 251038, "pitch": 82, "duration": 10, "velocity": 60}, {"time": 251277, "pitch": 42, "duration": 10, "velocity": 36}, {"time": 251277, "pitch": 60, "duration": 10, "velocity": 100}, {"time": 251277, "pitch": 70, "duration": 10, "velocity": 30}, {"time": 251277, "pitch": 82, "duration": 10, "velocity": 30}, {"time": 251517, "pitch": 42, "duration": 10, "velocity": 64}, {"time": 251517, "pitch": 62, "duration": 10, "velocity": 60}, {"time": 251517, "pitch": 70, "duration": 10, "velocity": 50}, {"time": 251517, "pitch": 75, "duration": 10, "velocity": 120}, {"time": 251517, "pitch": 82, "duration": 10, "velocity": 100}, {"time": 251756, "pitch": 36, "duration": 10, "velocity": 92}, {"time": 251756, "pitch": 42, "duration": 10, "velocity": 36}, {"time": 251756, "pitch": 62, "duration": 10, "velocity": 50}, {"time": 251756, "pitch": 70, "duration": 10, "velocity": 30}, {"time": 251756, "pitch": 82, "duration": 10, "velocity": 30}, {"time": 251995, "pitch": 36, "duration": 10, "velocity": 92}, {"time": 251995, "pitch": 42, "duration": 10, "velocity": 64}, {"time": 251995, "pitch": 60, "duration": 10, "velocity": 100}, {"time": 251995, "pitch": 70, "duration": 10, "velocity": 50}, {"time": 251995, "pitch": 82, "duration": 10, "velocity": 60}, {"time": 252240, "pitch": 42, "duration": 10, "velocity": 36}, {"time": 252240, "pitch": 62, "duration": 10, "velocity": 60}, {"time": 252240, "pitch": 70, "duration": 10, "velocity": 30}, {"time": 252240, "pitch": 75, "duration": 10, "velocity": 120}, {"time": 252240, "pitch": 82, "duration": 10, "velocity": 30}, {"time": 252485, "pitch": 42, "duration": 9, "velocity": 64}, {"time": 252485, "pitch": 62, "duration": 9, "velocity": 50}, {"time": 252485, "pitch": 70, "duration": 9, "velocity": 50}, {"time": 252485, "pitch": 82, "duration": 9, "velocity": 100}, {"time": 252724, "pitch": 36, "duration": 10, "velocity": 92}, {"time": 252724, "pitch": 42, "duration": 10, "velocity": 36}, {"time": 252724, "pitch": 60, "duration": 10, "velocity": 100}, {"time": 252724, "pitch": 70, "duration": 10, "velocity": 30}, {"time": 252724, "pitch": 82, "duration": 10, "velocity": 30}, {"time": 252963, "pitch": 36, "duration": 10, "velocity": 92}, {"time": 252963, "pitch": 42, "duration": 10, "velocity": 64}, {"time": 252963, "pitch": 62, "duration": 10, "velocity": 60}, {"time": 252963, "pitch": 70, "duration": 10, "velocity": 50}, {"time": 252963, "pitch": 75, "duration": 10, "velocity": 120}, {"time": 252963, "pitch": 82, "duration": 10, "velocity": 60}, {"time": 253202, "pitch": 42, "duration": 10, "velocity": 36}, {"time": 253202, "pitch": 62, "duration": 10, "velocity": 50}, {"time": 253202, "pitch": 70, "duration": 10, "velocity": 30}, {"time": 253202, "pitch": 82, "duration": 10, "velocity": 30}, {"time": 253441, "pitch": 42, "duration": 10, "velocity": 64}, {"time": 253441, "pitch": 60, "duration": 10, "velocity": 100}, {"time": 253441, "pitch": 70, "duration": 10, "velocity": 50}, {"time": 253441, "pitch": 75, "duration": 10, "velocity": 120}, {"time": 253441, "pitch": 82, "duration": 10, "velocity": 100}, {"time": 253681, "pitch": 36, "duration": 10, "velocity": 92}, {"time": 253681, "pitch": 42, "duration": 10, "velocity": 36}, {"time": 253681, "pitch": 62, "duration": 10, "velocity": 60}, {"time": 253681, "pitch": 70, "duration": 10, "velocity": 30}, {"time": 253681, "pitch": 82, "duration": 10, "velocity": 30}, {"time": 253920, "pitch": 36, "duration": 10, "velocity": 92}, {"time": 253920, "pitch": 42, "duration": 10, "velocity": 64}, {"time": 253920, "pitch": 62, "duration": 10, "velocity": 60}, {"time": 253920, "pitch": 70, "duration": 10, "velocity": 50}, {"time": 253920, "pitch": 75, "duration": 10, "velocity": 120}, {"time": 253920, "pitch": 82, "duration": 10, "velocity": 60}, {"time": 254159, "pitch": 42, "duration": 10, "velocity": 36}, {"time": 254159, "pitch": 62, "duration": 10, "velocity": 50}, {"time": 254159, "pitch": 70, "duration": 10, "velocity": 30}, {"time": 254159, "pitch": 82, "duration": 10, "velocity": 30}, {"time": 254398, "pitch": 42, "duration": 10, "velocity": 64}, {"time": 254398, "pitch": 60, "duration": 10, "velocity": 100}, {"time": 254398, "pitch": 70, "duration": 10, "velocity": 50}, {"time": 254398, "pitch": 82, "duration": 10, "velocity": 100}, {"time": 254637, "pitch": 36, "duration": 10, "velocity": 92}, {"time": 254637, "pitch": 42, "duration": 10, "velocity": 36}, {"time": 254637, "pitch": 62, "duration": 10, "velocity": 60}, {"time": 254637, "pitch": 70, "duration": 10, "velocity": 30}, {"time": 254637, "pitch": 75, "duration": 10, "velocity": 120}, {"time": 254637, "pitch": 82, "duration": 10, "velocity": 30}, {"time": 254877, "pitch": 36, "duration": 10, "velocity": 92}, {"time": 254877, "pitch": 42, "duration": 10, "velocity": 64}, {"time": 254877, "pitch": 62, "duration": 10, "velocity": 50}, {"time": 254877, "pitch": 70, "duration": 10, "velocity": 50}, {"time": 254877, "pitch": 82, "duration": 10, "velocity": 60}, {"time": 255116, "pitch": 42, "duration": 10, "velocity": 36}, {"time": 255116, "pitch": 60, "duration": 10, "velocity": 100}, {"time": 255116, "pitch": 70, "duration": 10, "velocity": 30}, {"time": 255116, "pitch": 82, "duration": 10, "velocity": 30}, {"time": 255355, "pitch": 42, "duration": 10, "velocity": 64}, {"time": 255355, "pitch": 62, "duration": 10, "velocity": 60}, {"time": 255355, "pitch": 70, "duration": 10, "velocity": 50}, {"time": 255355, "pitch": 75, "duration": 10, "velocity": 120}, {"time": 255355, "pitch": 82, "duration": 10, "velocity": 100}, {"time": 255600, "pitch": 36, "duration": 10, "velocity": 92}, {"time": 255600, "pitch": 42, "duration": 10, "velocity": 36}, {"time": 255600, "pitch": 62, "duration": 10, "velocity": 50}, {"time": 255600, "pitch": 70, "duration": 10, "velocity": 30}, {"time": 255600, "pitch": 82, "duration": 10, "velocity": 30}, {"time": 255845, "pitch": 36, "duration": 9, "velocity": 92}, {"time": 255845, "pitch": 42, "duration": 9, "velocity": 64}, {"time": 255845, "pitch": 60, "duration": 9, "velocity": 100}, {"time": 255845, "pitch": 70, "duration": 9, "velocity": 50}, {"time": 255845, "pitch": 82, "duration": 9, "velocity": 60}, {"time": 256084, "pitch": 42, "duration": 10, "velocity": 36}, {"time": 256084, "pitch": 62, "duration": 10, "velocity": 60}, {"time": 256084, "pitch": 70, "duration": 10, "velocity": 30}, {"time": 256084, "pitch": 75, "duration": 10, "velocity": 120}, {"time": 256084, "pitch": 82, "duration": 10, "velocity": 30}, {"time": 256323, "pitch": 42, "duration": 10, "velocity": 64}, {"time": 256323, "pitch": 62, "duration": 10, "velocity": 50}, {"time": 256323, "pitch": 70, "duration": 10, "velocity": 50}, {"time": 256323, "pitch": 82, "duration": 10, "velocity": 100}, {"time": 256562, "pitch": 36, "duration": 10, "velocity": 92}, {"time": 256562, "pitch": 42, "duration": 10, "velocity": 36}, {"time": 256562, "pitch": 60, "duration": 10, "velocity": 100}, {"time": 256562, "pitch": 70, "duration": 10, "velocity": 30}, {"time": 256562, "pitch": 82, "duration": 10, "velocity": 30}, {"time": 256801, "pitch": 36, "duration": 10, "velocity": 92}, {"time": 256801, "pitch": 42, "duration": 10, "velocity": 64}, {"time": 256801, "pitch": 62, "duration": 10, "velocity": 60}, {"time": 256801, "pitch": 70, "duration": 10, "velocity": 50}, {"time": 256801, "pitch": 75, "duration": 10, "velocity": 120}, {"time": 256801, "pitch": 82, "duration": 10, "velocity": 60}, {"time": 257041, "pitch": 42, "duration": 10, "velocity": 36}, {"time": 257041, "pitch": 62, "duration": 10, "velocity": 50}, {"time": 257041, "pitch": 70, "duration": 10, "velocity": 30}, {"time": 257041, "pitch": 82, "duration": 10, "velocity": 30}, {"time": 257280, "pitch": 42, "duration": 10, "velocity": 64}, {"time": 257280, "pitch": 60, "duration": 10, "velocity": 100}, {"time": 257280, "pitch": 70, "duration": 10, "velocity": 50}, {"time": 257280, "pitch": 75, "duration": 10, "velocity": 120}, {"time": 257280, "pitch": 82, "duration": 10, "velocity": 100}, {"time": 257519, "pitch": 36, "duration": 10, "velocity": 92}, {"time": 257519, "pitch": 42, "duration": 10, "velocity": 36}, {"time": 257519, "pitch": 62, "duration": 10, "velocity": 60}, {"time": 257519, "pitch": 70, "duration": 10, "velocity": 30}, {"time": 257519, "pitch": 82, "duration": 10, "velocity": 30}, {"time": 257758, "pitch": 36, "duration": 10, "velocity": 92}, {"time": 257758, "pitch": 42, "duration": 10, "velocity": 64}, {"time": 257758, "pitch": 62, "duration": 10, "velocity": 60}, {"time": 257758, "pitch": 70, "duration": 10, "velocity": 50}, {"time": 257758, "pitch": 75, "duration": 10, "velocity": 120}, {"time": 257758, "pitch": 82, "duration": 10, "velocity": 60}, {"time": 257997, "pitch": 42, "duration": 10, "velocity": 36}, {"time": 257997, "pitch": 62, "duration": 10, "velocity": 50}, {"time": 257997, "pitch": 70, "duration": 10, "velocity": 30}, {"time": 257997, "pitch": 82, "duration": 10, "velocity": 30}, {"time": 258237, "pitch": 42, "duration": 10, "velocity": 64}, {"time": 258237, "pitch": 60, "duration": 10, "velocity": 100}, {"time": 258237, "pitch": 70, "duration": 10, "velocity": 50}, {"time": 258237, "pitch": 82, "duration": 10, "velocity": 100}, {"time": 258476, "pitch": 36, "duration": 10, "velocity": 92}, {"time": 258476, "pitch": 42, "duration": 10, "velocity": 36}, {"time": 258476, "pitch": 62, "duration": 10, "velocity": 60}, {"time": 258476, "pitch": 70, "duration": 10, "velocity": 30}, {"time": 258476, "pitch": 75, "duration": 10, "velocity": 120}, {"time": 258476, "pitch": 82, "duration": 10, "velocity": 30}, {"time": 258715, "pitch": 36, "duration": 10, "velocity": 92}, {"time": 258715, "pitch": 42, "duration": 10, "velocity": 64}, {"time": 258715, "pitch": 62, "duration": 10, "velocity": 50}, {"time": 258715, "pitch": 70, "duration": 10, "velocity": 50}, {"time": 258715, "pitch": 82, "duration": 10, "velocity": 60}, {"time": 258960, "pitch": 42, "duration": 10, "velocity": 36}, {"time": 258960, "pitch": 60, "duration": 10, "velocity": 100}, {"time": 258960, "pitch": 70, "duration": 10, "velocity": 30}, {"time": 258960, "pitch": 82, "duration": 10, "velocity": 30}, {"time": 259205, "pitch": 42, "duration": 9, "velocity": 64}, {"time": 259205, "pitch": 62, "duration": 9, "velocity": 60}, {"time": 259205, "pitch": 70, "duration": 9, "velocity": 50}, {"time": 259205, "pitch": 75, "duration": 9, "velocity": 120}, {"time": 259205, "pitch": 82, "duration": 9, "velocity": 100}, {"time": 259444, "pitch": 36, "duration": 10, "velocity": 92}, {"time": 259444, "pitch": 42, "duration": 10, "velocity": 36}, {"time": 259444, "pitch": 62, "duration": 10, "velocity": 50}, {"time": 259444, "pitch": 70, "duration": 10, "velocity": 30}, {"time": 259444, "pitch": 82, "duration": 10, "velocity": 30}, {"time": 259683, "pitch": 36, "duration": 10, "velocity": 92}, {"time": 259683, "pitch": 42, "duration": 10, "velocity": 64}, {"time": 259683, "pitch": 60, "duration": 10, "velocity": 100}, {"time": 259683, "pitch": 70, "duration": 10, "velocity": 50}, {"time": 259683, "pitch": 82, "duration": 10, "velocity": 60}, {"time": 259922, "pitch": 42, "duration": 10, "velocity": 36}, {"time": 259922, "pitch": 62, "duration": 10, "velocity": 60}, {"time": 259922, "pitch": 70, "duration": 10, "velocity": 30}, {"time": 259922, "pitch": 75, "duration": 10, "velocity": 120}, {"time": 259922, "pitch": 82, "duration": 10, "velocity": 30}, {"time": 260161, "pitch": 42, "duration": 10, "velocity": 64}, {"time": 260161, "pitch": 62, "duration": 10, "velocity": 50}, {"time": 260161, "pitch": 70, "duration": 10, "velocity": 50}, {"time": 260161, "pitch": 82, "duration": 10, "velocity": 100}, {"time": 260401, "pitch": 36, "duration": 10, "velocity": 92}, {"time": 260401, "pitch": 42, "duration": 10, "velocity": 36}, {"time": 260401, "pitch": 60, "duration": 10, "velocity": 100}, {"time": 260401, "pitch": 70, "duration": 10, "velocity": 30}, {"time": 260401, "pitch": 82, "duration": 10, "velocity": 30}, {"time": 260640, "pitch": 36, "duration": 10, "velocity": 92}, {"time": 260640, "pitch": 42, "duration": 10, "velocity": 64}, {"time": 260640, "pitch": 62, "duration": 10, "velocity": 60}, {"time": 260640, "pitch": 70, "duration": 10, "velocity": 50}, {"time": 260640, "pitch": 75, "duration": 10, "velocity": 120}, {"time": 260640, "pitch": 82, "duration": 10, "velocity": 60}, {"time": 260879, "pitch": 42, "duration": 10, "velocity": 36}, {"time": 260879, "pitch": 62, "duration": 10, "velocity": 50}, {"time": 260879, "pitch": 70, "duration": 10, "velocity": 30}, {"time": 260879, "pitch": 82, "duration": 10, "velocity": 30}, {"time": 261118, "pitch": 42, "duration": 10, "velocity": 64}, {"time": 261118, "pitch": 60, "duration": 10, "velocity": 100}, {"time": 261118, "pitch": 70, "duration": 10, "velocity": 50}, {"time": 261118, "pitch": 75, "duration": 10, "velocity": 120}, {"time": 261118, "pitch": 82, "duration": 10, "velocity": 100}, {"time": 261357, "pitch": 36, "duration": 10, "velocity": 92}, {"time": 261357, "pitch": 42, "duration": 10, "velocity": 36}, {"time": 261357, "pitch": 62, "duration": 10, "velocity": 60}, {"time": 261357, "pitch": 70, "duration": 10, "velocity": 30}, {"time": 261357, "pitch": 82, "duration": 10, "velocity": 30}, {"time": 261597, "pitch": 36, "duration": 10, "velocity": 92}, {"time": 261597, "pitch": 42, "duration": 10, "velocity": 64}, {"time": 261597, "pitch": 62, "duration": 10, "velocity": 60}, {"time": 261597, "pitch": 70, "duration": 10, "velocity": 50}, {"time": 261597, "pitch": 75, "duration": 10, "velocity": 120}, {"time": 261597, "pitch": 82, "duration": 10, "velocity": 60}, {"time": 261836, "pitch": 42, "duration": 10, "velocity": 36}, {"time": 261836, "pitch": 62, "duration": 10, "velocity": 50}, {"time": 261836, "pitch": 70, "duration": 10, "velocity": 30}, {"time": 261836, "pitch": 82, "duration": 10, "velocity": 30}, {"time": 262075, "pitch": 42, "duration": 10, "velocity": 64}, {"time": 262075, "pitch": 60, "duration": 10, "velocity": 100}, {"time": 262075, "pitch": 70, "duration": 10, "velocity": 50}, {"time": 262075, "pitch": 82, "duration": 10, "velocity": 100}, {"time": 262320, "pitch": 36, "duration": 10, "velocity": 92}, {"time": 262320, "pitch": 42, "duration": 10, "velocity": 36}, {"time": 262320, "pitch": 62, "duration": 10, "velocity": 60}, {"time": 262320, "pitch": 70, "duration": 10, "velocity": 30}, {"time": 262320, "pitch": 75, "duration": 10, "velocity": 120}, {"time": 262320, "pitch": 82, "duration": 10, "velocity": 30}, {"time": 262565, "pitch": 36, "duration": 9, "velocity": 92}, {"time": 262565, "pitch": 42, "duration": 9, "velocity": 64}, {"time": 262565, "pitch": 62, "duration": 9, "velocity": 50}, {"time": 262565, "pitch": 70, "duration": 9, "velocity": 50}, {"time": 262565, "pitch": 82, "duration": 9, "velocity": 60}, {"time": 262804, "pitch": 42, "duration": 10, "velocity": 36}, {"time": 262804, "pitch": 60, "duration": 10, "velocity": 100}, {"time": 262804, "pitch": 70, "duration": 10, "velocity": 30}, {"time": 262804, "pitch": 82, "duration": 10, "velocity": 30}, {"time": 263043, "pitch": 42, "duration": 10, "velocity": 64}, {"time": 263043, "pitch": 62, "duration": 10, "velocity": 60}, {"time": 263043, "pitch": 70, "duration": 10, "velocity": 50}, {"time": 263043, "pitch": 75, "duration": 10, "velocity": 120}, {"time": 263043, "pitch": 82, "duration": 10, "velocity": 100}, {"time": 263282, "pitch": 36, "duration": 10, "velocity": 92}, {"time": 263282, "pitch": 42, "duration": 10, "velocity": 36}, {"time": 263282, "pitch": 62, "duration": 10, "velocity": 50}, {"time": 263282, "pitch": 70, "duration": 10, "velocity": 30}, {"time": 263282, "pitch": 82, "duration": 10, "velocity": 30}, {"time": 263521, "pitch": 36, "duration": 10, "velocity": 92}, {"time": 263521, "pitch": 42, "duration": 10, "velocity": 64}, {"time": 263521, "pitch": 60, "duration": 10, "velocity": 100}, {"time": 263521, "pitch": 70, "duration": 10, "velocity": 50}, {"time": 263521, "pitch": 82, "duration": 10, "velocity": 60}, {"time": 263761, "pitch": 42, "duration": 9, "velocity": 36}, {"time": 263761, "pitch": 62, "duration": 9, "velocity": 60}, {"time": 263761, "pitch": 70, "duration": 9, "velocity": 30}, {"time": 263761, "pitch": 75, "duration": 9, "velocity": 120}, {"time": 263761, "pitch": 82, "duration": 9, "velocity": 30}, {"time": 264000, "pitch": 42, "duration": 10, "velocity": 64}, {"time": 264000, "pitch": 62, "duration": 10, "velocity": 50}, {"time": 264000, "pitch": 70, "duration": 10, "velocity": 50}, {"time": 264000, "pitch": 82, "duration": 10, "velocity": 100}, {"time": 264239, "pitch": 36, "duration": 10, "velocity": 92}, {"time": 264239, "pitch": 42, "duration": 10, "velocity": 36}, {"time": 264239, "pitch": 60, "duration": 10, "velocity": 100}, {"time": 264239, "pitch": 70, "duration": 10, "velocity": 30}, {"time": 264239, "pitch": 82, "duration": 10, "velocity": 30}, {"time": 264478, "pitch": 36, "duration": 10, "velocity": 92}, {"time": 264478, "pitch": 42, "duration": 10, "velocity": 64}, {"time": 264478, "pitch": 62, "duration": 10, "velocity": 60}, {"time": 264478, "pitch": 70, "duration": 10, "velocity": 50}, {"time": 264478, "pitch": 75, "duration": 10, "velocity": 120}, {"time": 264478, "pitch": 82, "duration": 10, "velocity": 60}, {"time": 264717, "pitch": 42, "duration": 10, "velocity": 36}, {"time": 264717, "pitch": 62, "duration": 10, "velocity": 50}, {"time": 264717, "pitch": 70, "duration": 10, "velocity": 30}, {"time": 264717, "pitch": 82, "duration": 10, "velocity": 30}, {"time": 264957, "pitch": 42, "duration": 10, "velocity": 64}, {"time": 264957, "pitch": 60, "duration": 10, "velocity": 100}, {"time": 264957, "pitch": 70, "duration": 10, "velocity": 50}, {"time": 264957, "pitch": 75, "duration": 10, "velocity": 120}, {"time": 264957, "pitch": 82, "duration": 10, "velocity": 100}, {"time": 265196, "pitch": 36, "duration": 10, "velocity": 92}, {"time": 265196, "pitch": 42, "duration": 10, "velocity": 36}, {"time": 265196, "pitch": 62, "duration": 10, "velocity": 60}, {"time": 265196, "pitch": 70, "duration": 10, "velocity": 30}, {"time": 265196, "pitch": 82, "duration": 10, "velocity": 30}, {"time": 265435, "pitch": 36, "duration": 10, "velocity": 92}, {"time": 265435, "pitch": 42, "duration": 10, "velocity": 64}, {"time": 265435, "pitch": 62, "duration": 10, "velocity": 60}, {"time": 265435, "pitch": 70, "duration": 10, "velocity": 50}, {"time": 265435, "pitch": 75, "duration": 10, "velocity": 120}, {"time": 265435, "pitch": 82, "duration": 10, "velocity": 60}, {"time": 265680, "pitch": 42, "duration": 10, "velocity": 36}, {"time": 265680, "pitch": 62, "duration": 10, "velocity": 50}, {"time": 265680, "pitch": 70, "duration": 10, "velocity": 30}, {"time": 265680, "pitch": 82, "duration": 10, "velocity": 30}, {"time": 265925, "pitch": 42, "duration": 9, "velocity": 64}, {"time": 265925, "pitch": 60, "duration": 9, "velocity": 100}, {"time": 265925, "pitch": 70, "duration": 9, "velocity": 50}, {"time": 265925, "pitch": 82, "duration": 9, "velocity": 100}, {"time": 266164, "pitch": 36, "duration": 10, "velocity": 92}, {"time": 266164, "pitch": 42, "duration": 10, "velocity": 36}, {"time": 266164, "pitch": 62, "duration": 10, "velocity": 60}, {"time": 266164, "pitch": 70, "duration": 10, "velocity": 30}, {"time": 266164, "pitch": 75, "duration": 10, "velocity": 120}, {"time": 266164, "pitch": 82, "duration": 10, "velocity": 30}, {"time": 266403, "pitch": 36, "duration": 10, "velocity": 92}, {"time": 266403, "pitch": 42, "duration": 10, "velocity": 64}, {"time": 266403, "pitch": 62, "duration": 10, "velocity": 50}, {"time": 266403, "pitch": 70, "duration": 10, "velocity": 50}, {"time": 266403, "pitch": 82, "duration": 10, "velocity": 60}, {"time": 266642, "pitch": 42, "duration": 10, "velocity": 36}, {"time": 266642, "pitch": 60, "duration": 10, "velocity": 100}, {"time": 266642, "pitch": 70, "duration": 10, "velocity": 30}, {"time": 266642, "pitch": 82, "duration": 10, "velocity": 30}, {"time": 266881, "pitch": 42, "duration": 10, "velocity": 64}, {"time": 266881, "pitch": 62, "duration": 10, "velocity": 60}, {"time": 266881, "pitch": 70, "duration": 10, "velocity": 50}, {"time": 266881, "pitch": 75, "duration": 10, "velocity": 120}, {"time": 266881, "pitch": 82, "duration": 10, "velocity": 100}, {"time": 267121, "pitch": 36, "duration": 9, "velocity": 92}, {"time": 267121, "pitch": 42, "duration": 9, "velocity": 36}, {"time": 267121, "pitch": 62, "duration": 9, "velocity": 50}, {"time": 267121, "pitch": 70, "duration": 9, "velocity": 30}, {"time": 267121, "pitch": 82, "duration": 9, "velocity": 30}, {"time": 267360, "pitch": 36, "duration": 10, "velocity": 92}, {"time": 267360, "pitch": 42, "duration": 10, "velocity": 64}, {"time": 267360, "pitch": 60, "duration": 10, "velocity": 100}, {"time": 267360, "pitch": 70, "duration": 10, "velocity": 50}, {"time": 267360, "pitch": 82, "duration": 10, "velocity": 60}, {"time": 267599, "pitch": 42, "duration": 10, "velocity": 36}, {"time": 267599, "pitch": 62, "duration": 10, "velocity": 60}, {"time": 267599, "pitch": 70, "duration": 10, "velocity": 30}, {"time": 267599, "pitch": 75, "duration": 10, "velocity": 120}, {"time": 267599, "pitch": 82, "duration": 10, "velocity": 30}, {"time": 267838, "pitch": 42, "duration": 10, "velocity": 64}, {"time": 267838, "pitch": 62, "duration": 10, "velocity": 50}, {"time": 267838, "pitch": 70, "duration": 10, "velocity": 50}, {"time": 267838, "pitch": 82, "duration": 10, "velocity": 100}, {"time": 268077, "pitch": 36, "duration": 10, "velocity": 92}, {"time": 268077, "pitch": 42, "duration": 10, "velocity": 36}, {"time": 268077, "pitch": 60, "duration": 10, "velocity": 100}, {"time": 268077, "pitch": 70, "duration": 10, "velocity": 30}, {"time": 268077, "pitch": 82, "duration": 10, "velocity": 30}, {"time": 268317, "pitch": 36, "duration": 10, "velocity": 92}, {"time": 268317, "pitch": 42, "duration": 10, "velocity": 64}, {"time": 268317, "pitch": 62, "duration": 10, "velocity": 60}, {"time": 268317, "pitch": 70, "duration": 10, "velocity": 50}, {"time": 268317, "pitch": 75, "duration": 10, "velocity": 120}, {"time": 268317, "pitch": 82, "duration": 10, "velocity": 60}, {"time": 268556, "pitch": 42, "duration": 10, "velocity": 36}, {"time": 268556, "pitch": 62, "duration": 10, "velocity": 50}, {"time": 268556, "pitch": 70, "duration": 10, "velocity": 30}, {"time": 268556, "pitch": 82, "duration": 10, "velocity": 30}, {"time": 268795, "pitch": 42, "duration": 10, "velocity": 64}, {"time": 268795, "pitch": 60, "duration": 10, "velocity": 100}, {"time": 268795, "pitch": 70, "duration": 10, "velocity": 50}, {"time": 268795, "pitch": 75, "duration": 10, "velocity": 120}, {"time": 268795, "pitch": 82, "duration": 10, "velocity": 100}, {"time": 269040, "pitch": 36, "duration": 10, "velocity": 92}, {"time": 269040, "pitch": 42, "duration": 10, "velocity": 36}, {"time": 269040, "pitch": 62, "duration": 10, "velocity": 60}, {"time": 269040, "pitch": 70, "duration": 10, "velocity": 30}, {"time": 269040, "pitch": 82, "duration": 10, "velocity": 30}, {"time": 269285, "pitch": 36, "duration": 9, "velocity": 92}, {"time": 269285, "pitch": 42, "duration": 9, "velocity": 64}, {"time": 269285, "pitch": 62, "duration": 9, "velocity": 60}, {"time": 269285, "pitch": 70, "duration": 9, "velocity": 50}, {"time": 269285, "pitch": 75, "duration": 9, "velocity": 120}, {"time": 269285, "pitch": 82, "duration": 9, "velocity": 60}, {"time": 269518, "pitch": 42, "duration": 10, "velocity": 36}, {"time": 269518, "pitch": 62, "duration": 10, "velocity": 50}, {"time": 269518, "pitch": 70, "duration": 10, "velocity": 30}, {"time": 269518, "pitch": 82, "duration": 10, "velocity": 30}, {"time": 269751, "pitch": 42, "duration": 11, "velocity": 64}, {"time": 269751, "pitch": 60, "duration": 11, "velocity": 100}, {"time": 269751, "pitch": 70, "duration": 11, "velocity": 50}, {"time": 269751, "pitch": 82, "duration": 11, "velocity": 100}, {"time": 269996, "pitch": 36, "duration": 11, "velocity": 92}, {"time": 269996, "pitch": 42, "duration": 11, "velocity": 36}, {"time": 269996, "pitch": 62, "duration": 11, "velocity": 60}, {"time": 269996, "pitch": 70, "duration": 11, "velocity": 30}, {"time": 269996, "pitch": 75, "duration": 11, "velocity": 120}, {"time": 269996, "pitch": 82, "duration": 11, "velocity": 30}, {"time": 270241, "pitch": 36, "duration": 10, "velocity": 92}, {"time": 270241, "pitch": 42, "duration": 10, "velocity": 64}, {"time": 270241, "pitch": 62, "duration": 10, "velocity": 50}, {"time": 270241, "pitch": 70, "duration": 10, "velocity": 50}, {"time": 270241, "pitch": 82, "duration": 10, "velocity": 60}, {"time": 270487, "pitch": 42, "duration": 9, "velocity": 36}, {"time": 270487, "pitch": 60, "duration": 9, "velocity": 100}, {"time": 270487, "pitch": 70, "duration": 9, "velocity": 30}, {"time": 270487, "pitch": 82, "duration": 9, "velocity": 30}, {"time": 270731, "pitch": 42, "duration": 9, "velocity": 64}, {"time": 270731, "pitch": 62, "duration": 9, "velocity": 60}, {"time": 270731, "pitch": 70, "duration": 9, "velocity": 50}, {"time": 270731, "pitch": 75, "duration": 9, "velocity": 120}, {"time": 270731, "pitch": 82, "duration": 9, "velocity": 100}, {"time": 270970, "pitch": 36, "duration": 10, "velocity": 92}, {"time": 270970, "pitch": 42, "duration": 10, "velocity": 36}, {"time": 270970, "pitch": 62, "duration": 10, "velocity": 50}, {"time": 270970, "pitch": 70, "duration": 10, "velocity": 30}, {"time": 270970, "pitch": 82, "duration": 10, "velocity": 30}, {"time": 271209, "pitch": 36, "duration": 11, "velocity": 92}, {"time": 271209, "pitch": 42, "duration": 11, "velocity": 64}, {"time": 271209, "pitch": 60, "duration": 11, "velocity": 100}, {"time": 271209, "pitch": 70, "duration": 11, "velocity": 50}, {"time": 271209, "pitch": 82, "duration": 11, "velocity": 60}, {"time": 271448, "pitch": 42, "duration": 11, "velocity": 36}, {"time": 271448, "pitch": 62, "duration": 11, "velocity": 60}, {"time": 271448, "pitch": 70, "duration": 11, "velocity": 30}, {"time": 271448, "pitch": 75, "duration": 11, "velocity": 120}, {"time": 271448, "pitch": 82, "duration": 11, "velocity": 30}, {"time": 271688, "pitch": 42, "duration": 10, "velocity": 64}, {"time": 271688, "pitch": 62, "duration": 10, "velocity": 50}, {"time": 271688, "pitch": 70, "duration": 10, "velocity": 50}, {"time": 271688, "pitch": 82, "duration": 10, "velocity": 100}, {"time": 271927, "pitch": 36, "duration": 9, "velocity": 92}, {"time": 271927, "pitch": 42, "duration": 9, "velocity": 36}, {"time": 271927, "pitch": 60, "duration": 9, "velocity": 100}, {"time": 271927, "pitch": 70, "duration": 9, "velocity": 30}, {"time": 271927, "pitch": 82, "duration": 9, "velocity": 30}, {"time": 272167, "pitch": 36, "duration": 9, "velocity": 92}, {"time": 272167, "pitch": 42, "duration": 9, "velocity": 64}, {"time": 272167, "pitch": 62, "duration": 9, "velocity": 60}, {"time": 272167, "pitch": 70, "duration": 9, "velocity": 50}, {"time": 272167, "pitch": 75, "duration": 9, "velocity": 120}, {"time": 272167, "pitch": 82, "duration": 9, "velocity": 60}, {"time": 272406, "pitch": 42, "duration": 9, "velocity": 36}, {"time": 272406, "pitch": 62, "duration": 9, "velocity": 50}, {"time": 272406, "pitch": 70, "duration": 9, "velocity": 30}, {"time": 272406, "pitch": 82, "duration": 9, "velocity": 30}, {"time": 272644, "pitch": 42, "duration": 11, "velocity": 64}, {"time": 272644, "pitch": 60, "duration": 11, "velocity": 100}, {"time": 272644, "pitch": 70, "duration": 11, "velocity": 50}, {"time": 272644, "pitch": 75, "duration": 11, "velocity": 120}, {"time": 272644, "pitch": 82, "duration": 11, "velocity": 100}, {"time": 272884, "pitch": 36, "duration": 10, "velocity": 92}, {"time": 272884, "pitch": 42, "duration": 10, "velocity": 36}, {"time": 272884, "pitch": 62, "duration": 10, "velocity": 60}, {"time": 272884, "pitch": 70, "duration": 10, "velocity": 30}, {"time": 272884, "pitch": 82, "duration": 10, "velocity": 30}, {"time": 273123, "pitch": 36, "duration": 10, "velocity": 92}, {"time": 273123, "pitch": 42, "duration": 10, "velocity": 64}, {"time": 273123, "pitch": 62, "duration": 10, "velocity": 60}, {"time": 273123, "pitch": 70, "duration": 10, "velocity": 50}, {"time": 273123, "pitch": 75, "duration": 10, "velocity": 120}, {"time": 273123, "pitch": 82, "duration": 10, "velocity": 60}, {"time": 273362, "pitch": 42, "duration": 10, "velocity": 36}, {"time": 273362, "pitch": 62, "duration": 10, "velocity": 50}, {"time": 273362, "pitch": 70, "duration": 10, "velocity": 30}, {"time": 273362, "pitch": 82, "duration": 10, "velocity": 30}, {"time": 273601, "pitch": 42, "duration": 10, "velocity": 64}, {"time": 273601, "pitch": 60, "duration": 10, "velocity": 100}, {"time": 273601, "pitch": 70, "duration": 10, "velocity": 50}, {"time": 273601, "pitch": 82, "duration": 10, "velocity": 100}, {"time": 273841, "pitch": 36, "duration": 9, "velocity": 92}, {"time": 273841, "pitch": 42, "duration": 9, "velocity": 36}, {"time": 273841, "pitch": 62, "duration": 9, "velocity": 60}, {"time": 273841, "pitch": 70, "duration": 9, "velocity": 30}, {"time": 273841, "pitch": 75, "duration": 9, "velocity": 120}, {"time": 273841, "pitch": 82, "duration": 9, "velocity": 30}, {"time": 274080, "pitch": 36, "duration": 10, "velocity": 92}, {"time": 274080, "pitch": 42, "duration": 10, "velocity": 64}, {"time": 274080, "pitch": 62, "duration": 10, "velocity": 50}, {"time": 274080, "pitch": 70, "duration": 10, "velocity": 50}, {"time": 274080, "pitch": 82, "duration": 10, "velocity": 60}, {"time": 274325, "pitch": 42, "duration": 10, "velocity": 36}, {"time": 274325, "pitch": 60, "duration": 10, "velocity": 100}, {"time": 274325, "pitch": 70, "duration": 10, "velocity": 30}, {"time": 274325, "pitch": 82, "duration": 10, "velocity": 30}, {"time": 274569, "pitch": 42, "duration": 11, "velocity": 64}, {"time": 274569, "pitch": 62, "duration": 11, "velocity": 60}, {"time": 274569, "pitch": 70, "duration": 11, "velocity": 50}, {"time": 274569, "pitch": 75, "duration": 11, "velocity": 120}, {"time": 274569, "pitch": 82, "duration": 11, "velocity": 100}, {"time": 274808, "pitch": 36, "duration": 11, "velocity": 92}, {"time": 274808, "pitch": 42, "duration": 11, "velocity": 36}, {"time": 274808, "pitch": 62, "duration": 11, "velocity": 50}, {"time": 274808, "pitch": 70, "duration": 11, "velocity": 30}, {"time": 274808, "pitch": 82, "duration": 11, "velocity": 30}, {"time": 275047, "pitch": 36, "duration": 11, "velocity": 92}, {"time": 275047, "pitch": 42, "duration": 11, "velocity": 64}, {"time": 275047, "pitch": 60, "duration": 11, "velocity": 100}, {"time": 275047, "pitch": 70, "duration": 11, "velocity": 50}, {"time": 275047, "pitch": 82, "duration": 11, "velocity": 60}, {"time": 275287, "pitch": 42, "duration": 10, "velocity": 36}, {"time": 275287, "pitch": 62, "duration": 10, "velocity": 60}, {"time": 275287, "pitch": 70, "duration": 10, "velocity": 30}, {"time": 275287, "pitch": 75, "duration": 10, "velocity": 120}, {"time": 275287, "pitch": 82, "duration": 10, "velocity": 30}, {"time": 275527, "pitch": 42, "duration": 9, "velocity": 64}, {"time": 275527, "pitch": 62, "duration": 9, "velocity": 50}, {"time": 275527, "pitch": 70, "duration": 9, "velocity": 50}, {"time": 275527, "pitch": 82, "duration": 9, "velocity": 100}, {"time": 275766, "pitch": 36, "duration": 9, "velocity": 92}, {"time": 275766, "pitch": 42, "duration": 9, "velocity": 36}, {"time": 275766, "pitch": 60, "duration": 9, "velocity": 100}, {"time": 275766, "pitch": 70, "duration": 9, "velocity": 30}, {"time": 275766, "pitch": 82, "duration": 9, "velocity": 30}, {"time": 276005, "pitch": 36, "duration": 10, "velocity": 92}, {"time": 276005, "pitch": 42, "duration": 10, "velocity": 64}, {"time": 276005, "pitch": 62, "duration": 10, "velocity": 60}, {"time": 276005, "pitch": 70, "duration": 10, "velocity": 50}, {"time": 276005, "pitch": 75, "duration": 10, "velocity": 120}, {"time": 276005, "pitch": 82, "duration": 10, "velocity": 60}, {"time": 276244, "pitch": 42, "duration": 10, "velocity": 36}, {"time": 276244, "pitch": 62, "duration": 10, "velocity": 50}, {"time": 276244, "pitch": 70, "duration": 10, "velocity": 30}, {"time": 276244, "pitch": 82, "duration": 10, "velocity": 30}, {"time": 276486, "pitch": 42, "duration": 21, "velocity": 64}, {"time": 276486, "pitch": 60, "duration": 21, "velocity": 100}, {"time": 276486, "pitch": 70, "duration": 21, "velocity": 50}, {"time": 276486, "pitch": 75, "duration": 21, "velocity": 120}, {"time": 276486, "pitch": 82, "duration": 21, "velocity": 100}, {"time": 276974, "pitch": 36, "duration": 21, "velocity": 92}, {"time": 276974, "pitch": 42, "duration": 21, "velocity": 36}, {"time": 276974, "pitch": 62, "duration": 21, "velocity": 60}, {"time": 276974, "pitch": 70, "duration": 21, "velocity": 30}, {"time": 276974, "pitch": 82, "duration": 21, "velocity": 30}], "annotations": [{"time": 297, "annotation": {"number": 7, "value": 120}, "group": "control_change"}, {"time": 320, "annotation": {"number": 10, "value": 64}, "group": "control_change"}, {"time": 343, "annotation": {"number": 11, "value": 110}, "group": "control_change"}, {"time": 366, "annotation": {"number": 91, "value": 40}, "group": "control_change"}, {"time": 389, "annotation": {"number": 93, "value": 0}, "group": "control_change"}, {"time": 411, "annotation": {"number": 101, "value": 0}, "group": "control_change"}, {"time": 434, "annotation": {"number": 100, "value": 0}, "group": "control_change"}, {"time": 457, "annotation": {"number": 6, "value": 12}, "group": "control_change"}, {"time": 480, "annotation": {"number": 1, "value": 0}, "group": "control_change"}, {"time": 485, "annotation": {"number": 64, "value": 0}, "group": "control_change"}]}]}