{"metadata": {"schema_version": "0.1", "title": "RWC-MDB-P-2001 No. 54: Haruka na omoi / Rin", "copyright": "RWC Music Database. Copyright (C) 2001 Real World Computing Partnership (contact: Masataka GOTO <m.goto@aist.go.jp>)", "source_filename": "RM-P054.SMF_SYNC.MID", "source_format": "midi"}, "resolution": 480, "tempos": [{"time": 0, "qpm": 52.17391304347826}, {"time": 480, "qpm": 125.0}, {"time": 4800, "qpm": 122.44897959183673}, {"time": 5280, "qpm": 125.0}, {"time": 27360, "qpm": 122.44897959183673}, {"time": 27840, "qpm": 125.0}, {"time": 57600, "qpm": 122.44897959183673}, {"time": 59040, "qpm": 125.0}, {"time": 60480, "qpm": 122.44897959183673}, {"time": 60960, "qpm": 125.0}, {"time": 63360, "qpm": 122.44897959183673}, {"time": 63840, "qpm": 125.0}, {"time": 79200, "qpm": 122.44897959183673}, {"time": 79680, "qpm": 125.0}, {"time": 101280, "qpm": 127.65957446808511}, {"time": 101760, "qpm": 125.0}, {"time": 102240, "qpm": 127.65957446808511}, {"time": 102720, "qpm": 125.0}, {"time": 103200, "qpm": 122.44897959183673}, {"time": 103680, "qpm": 125.0}, {"time": 104160, "qpm": 122.44897959183673}, {"time": 104640, "qpm": 125.0}, {"time": 105120, "qpm": 127.65957446808511}, {"time": 105600, "qpm": 125.0}, {"time": 107040, "qpm": 127.65957446808511}, {"time": 107520, "qpm": 125.0}, {"time": 114240, "qpm": 127.65957446808511}, {"time": 114720, "qpm": 125.0}, {"time": 117600, "qpm": 127.65957446808511}, {"time": 118080, "qpm": 125.0}, {"time": 121920, "qpm": 122.44897959183673}, {"time": 123360, "qpm": 127.65957446808511}, {"time": 123840, "qpm": 125.0}, {"time": 124320, "qpm": 127.65957446808511}, {"time": 124800, "qpm": 125.0}, {"time": 125280, "qpm": 122.44897959183673}, {"time": 127200, "qpm": 127.65957446808511}, {"time": 129600, "qpm": 122.44897959183673}, {"time": 131040, "qpm": 127.65957446808511}, {"time": 133440, "qpm": 125.0}, {"time": 134400, "qpm": 122.44897959183673}, {"time": 136320, "qpm": 120.0}, {"time": 136800, "qpm": 125.0}, {"time": 137280, "qpm": 127.65957446808511}, {"time": 139200, "qpm": 125.0}, {"time": 139680, "qpm": 127.65957446808511}, {"time": 140160, "qpm": 125.0}, {"time": 140640, "qpm": 127.65957446808511}, {"time": 141120, "qpm": 125.0}, {"time": 142560, "qpm": 122.44897959183673}, {"time": 144480, "qpm": 125.0}, {"time": 145440, "qpm": 127.65957446808511}, {"time": 145920, "qpm": 125.0}, {"time": 148320, "qpm": 127.65957446808511}, {"time": 151680, "qpm": 125.0}, {"time": 152160, "qpm": 122.44897959183673}, {"time": 155040, "qpm": 125.0}, {"time": 155520, "qpm": 122.44897959183673}, {"time": 156000, "qpm": 127.65957446808511}, {"time": 156480, "qpm": 125.0}, {"time": 161280, "qpm": 122.44897959183673}, {"time": 161760, "qpm": 125.0}, {"time": 163680, "qpm": 127.65957446808511}, {"time": 166080, "qpm": 122.44897959183673}, {"time": 168000, "qpm": 125.0}, {"time": 168960, "qpm": 122.44897959183673}, {"time": 169440, "qpm": 125.0}, {"time": 169920, "qpm": 122.44897959183673}, {"time": 170400, "qpm": 125.0}, {"time": 170880, "qpm": 122.44897959183673}, {"time": 171360, "qpm": 127.65957446808511}, {"time": 171840, "qpm": 125.0}, {"time": 172320, "qpm": 127.65957446808511}, {"time": 173280, "qpm": 125.0}, {"time": 173760, "qpm": 127.65957446808511}, {"time": 174240, "qpm": 125.0}, {"time": 174720, "qpm": 122.44897959183673}, {"time": 175200, "qpm": 127.65957446808511}, {"time": 176640, "qpm": 125.0}, {"time": 177600, "qpm": 122.44897959183673}, {"time": 179040, "qpm": 125.0}, {"time": 180960, "qpm": 127.65957446808511}, {"time": 181440, "qpm": 125.0}, {"time": 181920, "qpm": 127.65957446808511}, {"time": 182400, "qpm": 125.0}, {"time": 183360, "qpm": 122.44897959183673}, {"time": 184800, "qpm": 127.65957446808511}, {"time": 185280, "qpm": 125.0}, {"time": 186720, "qpm": 127.65957446808511}, {"time": 187200, "qpm": 125.0}, {"time": 187680, "qpm": 127.65957446808511}, {"time": 188160, "qpm": 125.0}, {"time": 189120, "qpm": 122.44897959183673}, {"time": 189600, "qpm": 125.0}, {"time": 190080, "qpm": 122.44897959183673}, {"time": 190560, "qpm": 125.0}, {"time": 191040, "qpm": 122.44897959183673}, {"time": 191520, "qpm": 125.0}, {"time": 192000, "qpm": 122.44897959183673}, {"time": 192480, "qpm": 127.65957446808511}, {"time": 192960, "qpm": 125.0}, {"time": 194400, "qpm": 122.44897959183673}, {"time": 196320, "qpm": 127.65957446808511}, {"time": 199680, "qpm": 125.0}, {"time": 200160, "qpm": 127.65957446808511}, {"time": 201600, "qpm": 125.0}, {"time": 203520, "qpm": 122.44897959183673}, {"time": 204000, "qpm": 127.65957446808511}, {"time": 204480, "qpm": 125.0}, {"time": 204960, "qpm": 127.65957446808511}, {"time": 205440, "qpm": 125.0}, {"time": 206400, "qpm": 122.44897959183673}, {"time": 207840, "qpm": 125.0}, {"time": 209760, "qpm": 127.65957446808511}, {"time": 211680, "qpm": 125.0}, {"time": 212160, "qpm": 122.44897959183673}, {"time": 214080, "qpm": 127.65957446808511}, {"time": 215520, "qpm": 125.0}, {"time": 216000, "qpm": 122.44897959183673}, {"time": 217920, "qpm": 125.0}], "key_signatures": [{"time": 0, "root": 2, "mode": "major"}], "time_signatures": [{"time": 0, "numerator": 1, "denominator": 4}, {"time": 480, "numerator": 4, "denominator": 4}], "tracks": [{"program": 0, "is_drum": false, "name": "PIANO", "annotations": [{"time": 123, "annotation": {"number": 0, "value": 0}, "group": "control_change"}, {"time": 123, "annotation": {"number": 32, "value": 2}, "group": "control_change"}]}, {"program": 1, "is_drum": false, "name": "PIANO", "notes": [{"time": 23520, "pitch": 50, "duration": 643, "velocity": 79}, {"time": 23520, "pitch": 57, "duration": 655, "velocity": 77}, {"time": 23520, "pitch": 62, "duration": 649, "velocity": 93}, {"time": 23520, "pitch": 66, "duration": 641, "velocity": 95}, {"time": 24240, "pitch": 50, "duration": 1160, "velocity": 73}, {"time": 24240, "pitch": 57, "duration": 861, "velocity": 74}, {"time": 24240, "pitch": 62, "duration": 848, "velocity": 87}, {"time": 24240, "pitch": 66, "duration": 860, "velocity": 95}, {"time": 25200, "pitch": 57, "duration": 164, "velocity": 76}, {"time": 25200, "pitch": 62, "duration": 157, "velocity": 83}, {"time": 25440, "pitch": 49, "duration": 664, "velocity": 87}, {"time": 25440, "pitch": 57, "duration": 673, "velocity": 87}, {"time": 25440, "pitch": 61, "duration": 673, "velocity": 100}, {"time": 25440, "pitch": 64, "duration": 674, "velocity": 100}, {"time": 26160, "pitch": 49, "duration": 1133, "velocity": 90}, {"time": 26160, "pitch": 61, "duration": 857, "velocity": 90}, {"time": 26160, "pitch": 64, "duration": 860, "velocity": 98}, {"time": 26160, "pitch": 69, "duration": 881, "velocity": 108}, {"time": 27120, "pitch": 57, "duration": 176, "velocity": 77}, {"time": 27120, "pitch": 61, "duration": 165, "velocity": 95}, {"time": 27120, "pitch": 64, "duration": 160, "velocity": 87}, {"time": 27360, "pitch": 47, "duration": 629, "velocity": 61}, {"time": 27360, "pitch": 59, "duration": 640, "velocity": 100}, {"time": 27360, "pitch": 62, "duration": 632, "velocity": 93}, {"time": 28080, "pitch": 47, "duration": 874, "velocity": 74}, {"time": 28080, "pitch": 59, "duration": 890, "velocity": 76}, {"time": 28080, "pitch": 62, "duration": 893, "velocity": 93}, {"time": 28080, "pitch": 66, "duration": 898, "velocity": 83}, {"time": 29040, "pitch": 47, "duration": 210, "velocity": 67}, {"time": 29040, "pitch": 59, "duration": 175, "velocity": 83}, {"time": 29040, "pitch": 62, "duration": 178, "velocity": 76}, {"time": 29040, "pitch": 66, "duration": 178, "velocity": 90}, {"time": 29280, "pitch": 45, "duration": 664, "velocity": 65}, {"time": 29280, "pitch": 57, "duration": 653, "velocity": 74}, {"time": 29280, "pitch": 62, "duration": 655, "velocity": 85}, {"time": 29280, "pitch": 66, "duration": 652, "velocity": 95}, {"time": 30000, "pitch": 45, "duration": 1164, "velocity": 66}, {"time": 30000, "pitch": 57, "duration": 1114, "velocity": 77}, {"time": 30000, "pitch": 62, "duration": 1120, "velocity": 83}, {"time": 30000, "pitch": 66, "duration": 1118, "velocity": 95}, {"time": 31200, "pitch": 43, "duration": 661, "velocity": 70}, {"time": 31200, "pitch": 59, "duration": 653, "velocity": 77}, {"time": 31200, "pitch": 62, "duration": 649, "velocity": 86}, {"time": 31200, "pitch": 67, "duration": 656, "velocity": 93}, {"time": 31920, "pitch": 43, "duration": 1157, "velocity": 74}, {"time": 31920, "pitch": 59, "duration": 1115, "velocity": 77}, {"time": 31920, "pitch": 62, "duration": 1127, "velocity": 83}, {"time": 31920, "pitch": 67, "duration": 1172, "velocity": 90}, {"time": 33120, "pitch": 42, "duration": 636, "velocity": 68}, {"time": 33120, "pitch": 57, "duration": 645, "velocity": 85}, {"time": 33120, "pitch": 62, "duration": 636, "velocity": 98}, {"time": 33120, "pitch": 66, "duration": 627, "velocity": 95}, {"time": 33840, "pitch": 42, "duration": 1165, "velocity": 81}, {"time": 33840, "pitch": 57, "duration": 1104, "velocity": 85}, {"time": 33840, "pitch": 62, "duration": 1115, "velocity": 93}, {"time": 33840, "pitch": 66, "duration": 1120, "velocity": 100}, {"time": 35040, "pitch": 40, "duration": 610, "velocity": 71}, {"time": 35040, "pitch": 59, "duration": 645, "velocity": 83}, {"time": 35040, "pitch": 62, "duration": 639, "velocity": 93}, {"time": 35040, "pitch": 67, "duration": 638, "velocity": 90}, {"time": 35760, "pitch": 40, "duration": 1199, "velocity": 76}, {"time": 35760, "pitch": 59, "duration": 1128, "velocity": 81}, {"time": 35760, "pitch": 62, "duration": 1125, "velocity": 98}, {"time": 35760, "pitch": 67, "duration": 1119, "velocity": 95}, {"time": 36960, "pitch": 45, "duration": 610, "velocity": 68}, {"time": 36960, "pitch": 57, "duration": 619, "velocity": 77}, {"time": 36960, "pitch": 61, "duration": 623, "velocity": 98}, {"time": 36960, "pitch": 64, "duration": 614, "velocity": 98}, {"time": 37680, "pitch": 45, "duration": 900, "velocity": 85}, {"time": 37680, "pitch": 57, "duration": 752, "velocity": 85}, {"time": 37680, "pitch": 61, "duration": 789, "velocity": 108}, {"time": 37680, "pitch": 64, "duration": 790, "velocity": 104}, {"time": 37680, "pitch": 69, "duration": 791, "velocity": 98}, {"time": 38880, "pitch": 50, "duration": 643, "velocity": 79}, {"time": 38880, "pitch": 57, "duration": 655, "velocity": 77}, {"time": 38880, "pitch": 62, "duration": 649, "velocity": 93}, {"time": 38880, "pitch": 66, "duration": 641, "velocity": 95}, {"time": 39600, "pitch": 50, "duration": 1160, "velocity": 73}, {"time": 39600, "pitch": 57, "duration": 861, "velocity": 74}, {"time": 39600, "pitch": 62, "duration": 848, "velocity": 87}, {"time": 39600, "pitch": 66, "duration": 860, "velocity": 95}, {"time": 40560, "pitch": 57, "duration": 164, "velocity": 76}, {"time": 40560, "pitch": 62, "duration": 157, "velocity": 83}, {"time": 40800, "pitch": 49, "duration": 664, "velocity": 87}, {"time": 40800, "pitch": 57, "duration": 673, "velocity": 87}, {"time": 40800, "pitch": 61, "duration": 673, "velocity": 100}, {"time": 40800, "pitch": 64, "duration": 674, "velocity": 100}, {"time": 41520, "pitch": 49, "duration": 1133, "velocity": 90}, {"time": 41520, "pitch": 61, "duration": 857, "velocity": 90}, {"time": 41520, "pitch": 64, "duration": 860, "velocity": 98}, {"time": 41520, "pitch": 69, "duration": 881, "velocity": 108}, {"time": 42480, "pitch": 57, "duration": 176, "velocity": 77}, {"time": 42480, "pitch": 61, "duration": 165, "velocity": 95}, {"time": 42480, "pitch": 64, "duration": 160, "velocity": 87}, {"time": 42720, "pitch": 47, "duration": 629, "velocity": 61}, {"time": 42720, "pitch": 59, "duration": 640, "velocity": 100}, {"time": 42720, "pitch": 62, "duration": 632, "velocity": 93}, {"time": 43440, "pitch": 47, "duration": 874, "velocity": 74}, {"time": 43440, "pitch": 59, "duration": 890, "velocity": 76}, {"time": 43440, "pitch": 62, "duration": 893, "velocity": 93}, {"time": 43440, "pitch": 66, "duration": 898, "velocity": 83}, {"time": 44400, "pitch": 47, "duration": 210, "velocity": 67}, {"time": 44400, "pitch": 59, "duration": 175, "velocity": 83}, {"time": 44400, "pitch": 62, "duration": 178, "velocity": 76}, {"time": 44400, "pitch": 66, "duration": 178, "velocity": 90}, {"time": 44640, "pitch": 45, "duration": 664, "velocity": 65}, {"time": 44640, "pitch": 57, "duration": 653, "velocity": 74}, {"time": 44640, "pitch": 62, "duration": 655, "velocity": 85}, {"time": 44640, "pitch": 66, "duration": 652, "velocity": 95}, {"time": 45360, "pitch": 45, "duration": 1164, "velocity": 66}, {"time": 45360, "pitch": 57, "duration": 1114, "velocity": 77}, {"time": 45360, "pitch": 62, "duration": 1120, "velocity": 83}, {"time": 45360, "pitch": 66, "duration": 1118, "velocity": 95}, {"time": 46560, "pitch": 43, "duration": 661, "velocity": 70}, {"time": 46560, "pitch": 59, "duration": 653, "velocity": 77}, {"time": 46560, "pitch": 62, "duration": 649, "velocity": 86}, {"time": 46560, "pitch": 67, "duration": 656, "velocity": 93}, {"time": 47280, "pitch": 43, "duration": 1157, "velocity": 74}, {"time": 47280, "pitch": 59, "duration": 1115, "velocity": 77}, {"time": 47280, "pitch": 62, "duration": 1127, "velocity": 83}, {"time": 47280, "pitch": 67, "duration": 1172, "velocity": 90}, {"time": 48480, "pitch": 42, "duration": 636, "velocity": 68}, {"time": 48480, "pitch": 57, "duration": 645, "velocity": 85}, {"time": 48480, "pitch": 62, "duration": 636, "velocity": 98}, {"time": 48480, "pitch": 66, "duration": 627, "velocity": 95}, {"time": 49200, "pitch": 42, "duration": 1165, "velocity": 81}, {"time": 49200, "pitch": 57, "duration": 1104, "velocity": 85}, {"time": 49200, "pitch": 62, "duration": 1115, "velocity": 93}, {"time": 49200, "pitch": 66, "duration": 1120, "velocity": 100}, {"time": 50400, "pitch": 40, "duration": 610, "velocity": 71}, {"time": 50400, "pitch": 59, "duration": 645, "velocity": 83}, {"time": 50400, "pitch": 62, "duration": 639, "velocity": 93}, {"time": 50400, "pitch": 67, "duration": 638, "velocity": 90}, {"time": 51120, "pitch": 40, "duration": 1199, "velocity": 76}, {"time": 51120, "pitch": 59, "duration": 1128, "velocity": 81}, {"time": 51120, "pitch": 62, "duration": 1125, "velocity": 98}, {"time": 51120, "pitch": 67, "duration": 1119, "velocity": 95}, {"time": 52320, "pitch": 45, "duration": 610, "velocity": 68}, {"time": 52320, "pitch": 57, "duration": 619, "velocity": 77}, {"time": 52320, "pitch": 61, "duration": 623, "velocity": 98}, {"time": 52320, "pitch": 64, "duration": 614, "velocity": 98}, {"time": 53040, "pitch": 45, "duration": 900, "velocity": 85}, {"time": 53040, "pitch": 57, "duration": 752, "velocity": 85}, {"time": 53040, "pitch": 61, "duration": 789, "velocity": 108}, {"time": 53040, "pitch": 64, "duration": 790, "velocity": 104}, {"time": 53040, "pitch": 69, "duration": 791, "velocity": 98}, {"time": 54240, "pitch": 42, "duration": 632, "velocity": 71}, {"time": 54240, "pitch": 57, "duration": 656, "velocity": 90}, {"time": 54240, "pitch": 61, "duration": 649, "velocity": 100}, {"time": 54240, "pitch": 64, "duration": 646, "velocity": 100}, {"time": 54960, "pitch": 42, "duration": 1217, "velocity": 70}, {"time": 54960, "pitch": 61, "duration": 797, "velocity": 86}, {"time": 54960, "pitch": 64, "duration": 810, "velocity": 100}, {"time": 54960, "pitch": 69, "duration": 1019, "velocity": 95}, {"time": 55920, "pitch": 57, "duration": 199, "velocity": 83}, {"time": 55920, "pitch": 61, "duration": 194, "velocity": 90}, {"time": 55920, "pitch": 64, "duration": 221, "velocity": 76}, {"time": 56160, "pitch": 47, "duration": 654, "velocity": 93}, {"time": 56160, "pitch": 59, "duration": 672, "velocity": 85}, {"time": 56160, "pitch": 62, "duration": 671, "velocity": 100}, {"time": 56160, "pitch": 66, "duration": 673, "velocity": 95}, {"time": 56880, "pitch": 47, "duration": 1189, "velocity": 76}, {"time": 56880, "pitch": 59, "duration": 1060, "velocity": 73}, {"time": 56880, "pitch": 62, "duration": 1097, "velocity": 87}, {"time": 56880, "pitch": 66, "duration": 1153, "velocity": 104}, {"time": 58080, "pitch": 42, "duration": 1943, "velocity": 85}, {"time": 58080, "pitch": 57, "duration": 1814, "velocity": 76}, {"time": 58080, "pitch": 61, "duration": 657, "velocity": 90}, {"time": 58080, "pitch": 64, "duration": 641, "velocity": 93}, {"time": 58800, "pitch": 61, "duration": 1076, "velocity": 85}, {"time": 58800, "pitch": 64, "duration": 1094, "velocity": 104}, {"time": 58800, "pitch": 69, "duration": 1192, "velocity": 93}, {"time": 60000, "pitch": 47, "duration": 644, "velocity": 87}, {"time": 60000, "pitch": 59, "duration": 659, "velocity": 77}, {"time": 60000, "pitch": 62, "duration": 664, "velocity": 98}, {"time": 60000, "pitch": 66, "duration": 664, "velocity": 87}, {"time": 60720, "pitch": 47, "duration": 882, "velocity": 86}, {"time": 60720, "pitch": 59, "duration": 823, "velocity": 83}, {"time": 60720, "pitch": 62, "duration": 829, "velocity": 98}, {"time": 60720, "pitch": 66, "duration": 845, "velocity": 108}, {"time": 61680, "pitch": 40, "duration": 1155, "velocity": 87}, {"time": 61680, "pitch": 59, "duration": 1191, "velocity": 93}, {"time": 61680, "pitch": 62, "duration": 1189, "velocity": 114}, {"time": 61680, "pitch": 67, "duration": 1194, "velocity": 108}, {"time": 62880, "pitch": 40, "duration": 600, "velocity": 85}, {"time": 62880, "pitch": 59, "duration": 144, "velocity": 85}, {"time": 62880, "pitch": 62, "duration": 152, "velocity": 100}, {"time": 62880, "pitch": 67, "duration": 152, "velocity": 98}, {"time": 63120, "pitch": 59, "duration": 99, "velocity": 85}, {"time": 63120, "pitch": 62, "duration": 96, "velocity": 98}, {"time": 63120, "pitch": 67, "duration": 102, "velocity": 95}, {"time": 63600, "pitch": 40, "duration": 1105, "velocity": 95}, {"time": 63600, "pitch": 59, "duration": 447, "velocity": 95}, {"time": 63600, "pitch": 62, "duration": 450, "velocity": 108}, {"time": 63600, "pitch": 67, "duration": 438, "velocity": 108}, {"time": 64080, "pitch": 59, "duration": 80, "velocity": 58}, {"time": 64080, "pitch": 62, "duration": 69, "velocity": 67}, {"time": 64080, "pitch": 67, "duration": 88, "velocity": 67}, {"time": 64320, "pitch": 59, "duration": 430, "velocity": 100}, {"time": 64320, "pitch": 62, "duration": 430, "velocity": 112}, {"time": 64320, "pitch": 67, "duration": 418, "velocity": 98}, {"time": 64800, "pitch": 40, "duration": 667, "velocity": 86}, {"time": 64800, "pitch": 59, "duration": 174, "velocity": 74}, {"time": 64800, "pitch": 62, "duration": 186, "velocity": 86}, {"time": 64800, "pitch": 67, "duration": 186, "velocity": 93}, {"time": 65040, "pitch": 59, "duration": 113, "velocity": 81}, {"time": 65040, "pitch": 62, "duration": 107, "velocity": 90}, {"time": 65040, "pitch": 67, "duration": 108, "velocity": 86}, {"time": 65520, "pitch": 45, "duration": 413, "velocity": 104}, {"time": 65520, "pitch": 59, "duration": 436, "velocity": 87}, {"time": 65520, "pitch": 62, "duration": 433, "velocity": 112}, {"time": 65520, "pitch": 67, "duration": 435, "velocity": 104}, {"time": 66000, "pitch": 45, "duration": 62, "velocity": 69}, {"time": 66000, "pitch": 59, "duration": 66, "velocity": 75}, {"time": 66000, "pitch": 62, "duration": 58, "velocity": 81}, {"time": 66000, "pitch": 67, "duration": 81, "velocity": 86}, {"time": 66240, "pitch": 45, "duration": 349, "velocity": 98}, {"time": 66240, "pitch": 59, "duration": 380, "velocity": 95}, {"time": 66240, "pitch": 62, "duration": 378, "velocity": 112}, {"time": 66240, "pitch": 67, "duration": 372, "velocity": 100}, {"time": 66720, "pitch": 45, "duration": 102, "velocity": 63}, {"time": 66720, "pitch": 59, "duration": 102, "velocity": 75}, {"time": 66720, "pitch": 62, "duration": 105, "velocity": 87}, {"time": 66720, "pitch": 67, "duration": 103, "velocity": 95}, {"time": 66960, "pitch": 45, "duration": 408, "velocity": 112}, {"time": 66960, "pitch": 59, "duration": 435, "velocity": 98}, {"time": 66960, "pitch": 62, "duration": 434, "velocity": 112}, {"time": 66960, "pitch": 67, "duration": 441, "velocity": 98}, {"time": 67440, "pitch": 45, "duration": 330, "velocity": 112}, {"time": 67440, "pitch": 61, "duration": 350, "velocity": 90}, {"time": 67440, "pitch": 64, "duration": 344, "velocity": 120}, {"time": 67440, "pitch": 69, "duration": 349, "velocity": 112}, {"time": 67920, "pitch": 45, "duration": 61, "velocity": 83}, {"time": 67920, "pitch": 61, "duration": 62, "velocity": 73}, {"time": 67920, "pitch": 64, "duration": 59, "velocity": 104}, {"time": 67920, "pitch": 69, "duration": 56, "velocity": 87}, {"time": 68160, "pitch": 45, "duration": 415, "velocity": 104}, {"time": 68160, "pitch": 61, "duration": 426, "velocity": 104}, {"time": 68160, "pitch": 64, "duration": 420, "velocity": 120}, {"time": 68160, "pitch": 69, "duration": 423, "velocity": 98}, {"time": 68640, "pitch": 45, "duration": 362, "velocity": 100}, {"time": 68640, "pitch": 61, "duration": 369, "velocity": 90}, {"time": 68640, "pitch": 64, "duration": 370, "velocity": 117}, {"time": 68640, "pitch": 69, "duration": 361, "velocity": 104}, {"time": 69120, "pitch": 45, "duration": 330, "velocity": 93}, {"time": 69120, "pitch": 61, "duration": 277, "velocity": 93}, {"time": 69120, "pitch": 64, "duration": 281, "velocity": 120}, {"time": 69120, "pitch": 69, "duration": 298, "velocity": 104}, {"time": 69600, "pitch": 50, "duration": 570, "velocity": 90}, {"time": 69600, "pitch": 57, "duration": 564, "velocity": 90}, {"time": 69600, "pitch": 62, "duration": 570, "velocity": 108}, {"time": 69600, "pitch": 66, "duration": 563, "velocity": 98}, {"time": 70320, "pitch": 50, "duration": 897, "velocity": 87}, {"time": 70320, "pitch": 57, "duration": 879, "velocity": 93}, {"time": 70320, "pitch": 62, "duration": 906, "velocity": 111}, {"time": 70320, "pitch": 66, "duration": 889, "velocity": 81}, {"time": 71280, "pitch": 50, "duration": 233, "velocity": 67}, {"time": 71280, "pitch": 57, "duration": 179, "velocity": 76}, {"time": 71280, "pitch": 62, "duration": 179, "velocity": 98}, {"time": 71280, "pitch": 66, "duration": 204, "velocity": 79}, {"time": 71520, "pitch": 42, "duration": 584, "velocity": 93}, {"time": 71520, "pitch": 57, "duration": 613, "velocity": 74}, {"time": 71520, "pitch": 61, "duration": 602, "velocity": 90}, {"time": 71520, "pitch": 64, "duration": 617, "velocity": 93}, {"time": 72240, "pitch": 42, "duration": 1162, "velocity": 93}, {"time": 72240, "pitch": 61, "duration": 866, "velocity": 98}, {"time": 72240, "pitch": 64, "duration": 874, "velocity": 108}, {"time": 72240, "pitch": 69, "duration": 959, "velocity": 77}, {"time": 73200, "pitch": 57, "duration": 158, "velocity": 74}, {"time": 73200, "pitch": 61, "duration": 145, "velocity": 83}, {"time": 73200, "pitch": 64, "duration": 167, "velocity": 85}, {"time": 73440, "pitch": 43, "duration": 660, "velocity": 79}, {"time": 73440, "pitch": 55, "duration": 651, "velocity": 90}, {"time": 73440, "pitch": 59, "duration": 650, "velocity": 108}, {"time": 73440, "pitch": 62, "duration": 655, "velocity": 100}, {"time": 74160, "pitch": 43, "duration": 1120, "velocity": 81}, {"time": 74160, "pitch": 59, "duration": 824, "velocity": 104}, {"time": 74160, "pitch": 62, "duration": 838, "velocity": 100}, {"time": 74160, "pitch": 67, "duration": 901, "velocity": 100}, {"time": 75120, "pitch": 55, "duration": 111, "velocity": 72}, {"time": 75120, "pitch": 59, "duration": 109, "velocity": 81}, {"time": 75120, "pitch": 62, "duration": 144, "velocity": 71}, {"time": 75360, "pitch": 45, "duration": 671, "velocity": 61}, {"time": 75360, "pitch": 57, "duration": 711, "velocity": 87}, {"time": 75360, "pitch": 61, "duration": 672, "velocity": 108}, {"time": 75360, "pitch": 64, "duration": 672, "velocity": 111}, {"time": 76080, "pitch": 45, "duration": 997, "velocity": 86}, {"time": 76080, "pitch": 61, "duration": 931, "velocity": 87}, {"time": 76080, "pitch": 64, "duration": 932, "velocity": 100}, {"time": 76080, "pitch": 69, "duration": 947, "velocity": 104}, {"time": 77280, "pitch": 50, "duration": 570, "velocity": 90}, {"time": 77280, "pitch": 57, "duration": 564, "velocity": 90}, {"time": 77280, "pitch": 62, "duration": 570, "velocity": 108}, {"time": 77280, "pitch": 66, "duration": 563, "velocity": 98}, {"time": 78000, "pitch": 50, "duration": 897, "velocity": 87}, {"time": 78000, "pitch": 57, "duration": 879, "velocity": 93}, {"time": 78000, "pitch": 62, "duration": 906, "velocity": 111}, {"time": 78000, "pitch": 66, "duration": 889, "velocity": 81}, {"time": 78960, "pitch": 50, "duration": 233, "velocity": 67}, {"time": 78960, "pitch": 57, "duration": 179, "velocity": 76}, {"time": 78960, "pitch": 62, "duration": 179, "velocity": 98}, {"time": 78960, "pitch": 66, "duration": 204, "velocity": 79}, {"time": 79200, "pitch": 42, "duration": 584, "velocity": 93}, {"time": 79200, "pitch": 57, "duration": 613, "velocity": 74}, {"time": 79200, "pitch": 61, "duration": 602, "velocity": 90}, {"time": 79200, "pitch": 64, "duration": 617, "velocity": 93}, {"time": 79920, "pitch": 42, "duration": 1162, "velocity": 93}, {"time": 79920, "pitch": 61, "duration": 866, "velocity": 98}, {"time": 79920, "pitch": 64, "duration": 874, "velocity": 108}, {"time": 79920, "pitch": 69, "duration": 959, "velocity": 77}, {"time": 80880, "pitch": 57, "duration": 158, "velocity": 74}, {"time": 80880, "pitch": 61, "duration": 145, "velocity": 83}, {"time": 80880, "pitch": 64, "duration": 167, "velocity": 85}, {"time": 81120, "pitch": 43, "duration": 660, "velocity": 79}, {"time": 81120, "pitch": 55, "duration": 651, "velocity": 90}, {"time": 81120, "pitch": 59, "duration": 650, "velocity": 108}, {"time": 81120, "pitch": 62, "duration": 655, "velocity": 100}, {"time": 81840, "pitch": 43, "duration": 1120, "velocity": 81}, {"time": 81840, "pitch": 59, "duration": 824, "velocity": 104}, {"time": 81840, "pitch": 62, "duration": 838, "velocity": 100}, {"time": 81840, "pitch": 67, "duration": 901, "velocity": 100}, {"time": 82800, "pitch": 55, "duration": 111, "velocity": 72}, {"time": 82800, "pitch": 59, "duration": 109, "velocity": 81}, {"time": 82800, "pitch": 62, "duration": 144, "velocity": 71}, {"time": 83040, "pitch": 45, "duration": 671, "velocity": 61}, {"time": 83040, "pitch": 57, "duration": 711, "velocity": 87}, {"time": 83040, "pitch": 61, "duration": 672, "velocity": 108}, {"time": 83040, "pitch": 64, "duration": 672, "velocity": 111}, {"time": 83760, "pitch": 45, "duration": 997, "velocity": 86}, {"time": 83760, "pitch": 61, "duration": 931, "velocity": 87}, {"time": 83760, "pitch": 64, "duration": 932, "velocity": 100}, {"time": 83760, "pitch": 69, "duration": 947, "velocity": 104}, {"time": 84960, "pitch": 50, "duration": 570, "velocity": 90}, {"time": 84960, "pitch": 57, "duration": 564, "velocity": 90}, {"time": 84960, "pitch": 62, "duration": 570, "velocity": 108}, {"time": 84960, "pitch": 66, "duration": 563, "velocity": 98}, {"time": 85680, "pitch": 50, "duration": 897, "velocity": 87}, {"time": 85680, "pitch": 57, "duration": 879, "velocity": 93}, {"time": 85680, "pitch": 62, "duration": 906, "velocity": 111}, {"time": 85680, "pitch": 66, "duration": 889, "velocity": 81}, {"time": 86640, "pitch": 50, "duration": 233, "velocity": 67}, {"time": 86640, "pitch": 57, "duration": 179, "velocity": 76}, {"time": 86640, "pitch": 62, "duration": 179, "velocity": 98}, {"time": 86640, "pitch": 66, "duration": 204, "velocity": 79}, {"time": 86880, "pitch": 42, "duration": 584, "velocity": 93}, {"time": 86880, "pitch": 57, "duration": 613, "velocity": 74}, {"time": 86880, "pitch": 61, "duration": 602, "velocity": 90}, {"time": 86880, "pitch": 64, "duration": 617, "velocity": 93}, {"time": 87600, "pitch": 42, "duration": 1162, "velocity": 93}, {"time": 87600, "pitch": 61, "duration": 866, "velocity": 98}, {"time": 87600, "pitch": 64, "duration": 874, "velocity": 108}, {"time": 87600, "pitch": 69, "duration": 959, "velocity": 77}, {"time": 88560, "pitch": 57, "duration": 158, "velocity": 74}, {"time": 88560, "pitch": 61, "duration": 145, "velocity": 83}, {"time": 88560, "pitch": 64, "duration": 167, "velocity": 85}, {"time": 88800, "pitch": 43, "duration": 660, "velocity": 79}, {"time": 88800, "pitch": 55, "duration": 651, "velocity": 90}, {"time": 88800, "pitch": 59, "duration": 650, "velocity": 108}, {"time": 88800, "pitch": 62, "duration": 655, "velocity": 100}, {"time": 89520, "pitch": 43, "duration": 1120, "velocity": 81}, {"time": 89520, "pitch": 59, "duration": 824, "velocity": 104}, {"time": 89520, "pitch": 62, "duration": 838, "velocity": 100}, {"time": 89520, "pitch": 67, "duration": 901, "velocity": 100}, {"time": 90480, "pitch": 55, "duration": 111, "velocity": 72}, {"time": 90480, "pitch": 59, "duration": 109, "velocity": 81}, {"time": 90480, "pitch": 62, "duration": 144, "velocity": 71}, {"time": 90720, "pitch": 45, "duration": 671, "velocity": 61}, {"time": 90720, "pitch": 57, "duration": 711, "velocity": 87}, {"time": 90720, "pitch": 61, "duration": 672, "velocity": 108}, {"time": 90720, "pitch": 64, "duration": 672, "velocity": 111}, {"time": 91440, "pitch": 45, "duration": 997, "velocity": 86}, {"time": 91440, "pitch": 61, "duration": 931, "velocity": 87}, {"time": 91440, "pitch": 64, "duration": 932, "velocity": 100}, {"time": 91440, "pitch": 69, "duration": 947, "velocity": 104}, {"time": 92640, "pitch": 50, "duration": 570, "velocity": 90}, {"time": 92640, "pitch": 57, "duration": 564, "velocity": 90}, {"time": 92640, "pitch": 62, "duration": 570, "velocity": 108}, {"time": 92640, "pitch": 66, "duration": 563, "velocity": 98}, {"time": 93360, "pitch": 50, "duration": 897, "velocity": 87}, {"time": 93360, "pitch": 57, "duration": 879, "velocity": 93}, {"time": 93360, "pitch": 62, "duration": 906, "velocity": 111}, {"time": 93360, "pitch": 66, "duration": 889, "velocity": 81}, {"time": 94320, "pitch": 50, "duration": 233, "velocity": 67}, {"time": 94320, "pitch": 57, "duration": 179, "velocity": 76}, {"time": 94320, "pitch": 62, "duration": 179, "velocity": 98}, {"time": 94320, "pitch": 66, "duration": 204, "velocity": 79}, {"time": 94560, "pitch": 42, "duration": 584, "velocity": 93}, {"time": 94560, "pitch": 57, "duration": 613, "velocity": 74}, {"time": 94560, "pitch": 61, "duration": 602, "velocity": 90}, {"time": 94560, "pitch": 64, "duration": 617, "velocity": 93}, {"time": 95280, "pitch": 42, "duration": 1162, "velocity": 93}, {"time": 95280, "pitch": 61, "duration": 866, "velocity": 98}, {"time": 95280, "pitch": 64, "duration": 874, "velocity": 108}, {"time": 95280, "pitch": 69, "duration": 959, "velocity": 77}, {"time": 96240, "pitch": 57, "duration": 158, "velocity": 74}, {"time": 96240, "pitch": 61, "duration": 145, "velocity": 83}, {"time": 96240, "pitch": 64, "duration": 167, "velocity": 85}, {"time": 96480, "pitch": 43, "duration": 660, "velocity": 79}, {"time": 96480, "pitch": 55, "duration": 651, "velocity": 90}, {"time": 96480, "pitch": 59, "duration": 650, "velocity": 108}, {"time": 96480, "pitch": 62, "duration": 655, "velocity": 100}, {"time": 97200, "pitch": 43, "duration": 1120, "velocity": 81}, {"time": 97200, "pitch": 59, "duration": 824, "velocity": 104}, {"time": 97200, "pitch": 62, "duration": 838, "velocity": 100}, {"time": 97200, "pitch": 67, "duration": 901, "velocity": 100}, {"time": 98160, "pitch": 55, "duration": 111, "velocity": 72}, {"time": 98160, "pitch": 59, "duration": 109, "velocity": 81}, {"time": 98160, "pitch": 62, "duration": 144, "velocity": 71}, {"time": 98400, "pitch": 45, "duration": 671, "velocity": 61}, {"time": 98400, "pitch": 57, "duration": 711, "velocity": 87}, {"time": 98400, "pitch": 61, "duration": 672, "velocity": 108}, {"time": 98400, "pitch": 64, "duration": 672, "velocity": 111}, {"time": 99120, "pitch": 45, "duration": 997, "velocity": 86}, {"time": 99120, "pitch": 61, "duration": 931, "velocity": 87}, {"time": 99120, "pitch": 64, "duration": 932, "velocity": 100}, {"time": 99120, "pitch": 69, "duration": 947, "velocity": 104}, {"time": 100320, "pitch": 52, "duration": 1860, "velocity": 77}, {"time": 100320, "pitch": 59, "duration": 1774, "velocity": 90}, {"time": 100320, "pitch": 62, "duration": 1787, "velocity": 108}, {"time": 100320, "pitch": 67, "duration": 1834, "velocity": 95}, {"time": 102240, "pitch": 45, "duration": 602, "velocity": 83}, {"time": 102240, "pitch": 61, "duration": 619, "velocity": 90}, {"time": 102240, "pitch": 64, "duration": 634, "velocity": 111}, {"time": 102240, "pitch": 69, "duration": 626, "velocity": 104}, {"time": 102960, "pitch": 45, "duration": 864, "velocity": 90}, {"time": 102960, "pitch": 61, "duration": 846, "velocity": 95}, {"time": 102960, "pitch": 64, "duration": 864, "velocity": 112}, {"time": 102960, "pitch": 69, "duration": 827, "velocity": 104}, {"time": 103920, "pitch": 57, "duration": 1840, "velocity": 98}, {"time": 103920, "pitch": 62, "duration": 1862, "velocity": 112}, {"time": 103920, "pitch": 66, "duration": 1876, "velocity": 108}, {"time": 104040, "pitch": 50, "duration": 1880, "velocity": 90}, {"time": 106080, "pitch": 50, "duration": 570, "velocity": 90}, {"time": 106080, "pitch": 57, "duration": 564, "velocity": 90}, {"time": 106080, "pitch": 62, "duration": 570, "velocity": 108}, {"time": 106080, "pitch": 66, "duration": 563, "velocity": 98}, {"time": 106800, "pitch": 50, "duration": 897, "velocity": 87}, {"time": 106800, "pitch": 57, "duration": 879, "velocity": 93}, {"time": 106800, "pitch": 62, "duration": 906, "velocity": 111}, {"time": 106800, "pitch": 66, "duration": 889, "velocity": 81}, {"time": 107760, "pitch": 50, "duration": 233, "velocity": 67}, {"time": 107760, "pitch": 57, "duration": 179, "velocity": 76}, {"time": 107760, "pitch": 62, "duration": 179, "velocity": 98}, {"time": 107760, "pitch": 66, "duration": 204, "velocity": 79}, {"time": 108000, "pitch": 50, "duration": 643, "velocity": 79}, {"time": 108000, "pitch": 57, "duration": 655, "velocity": 77}, {"time": 108000, "pitch": 62, "duration": 649, "velocity": 93}, {"time": 108000, "pitch": 66, "duration": 641, "velocity": 95}, {"time": 108720, "pitch": 50, "duration": 1160, "velocity": 73}, {"time": 108720, "pitch": 57, "duration": 861, "velocity": 74}, {"time": 108720, "pitch": 62, "duration": 848, "velocity": 87}, {"time": 108720, "pitch": 66, "duration": 860, "velocity": 95}, {"time": 109680, "pitch": 57, "duration": 164, "velocity": 76}, {"time": 109680, "pitch": 62, "duration": 157, "velocity": 83}, {"time": 109920, "pitch": 49, "duration": 664, "velocity": 87}, {"time": 109920, "pitch": 57, "duration": 673, "velocity": 87}, {"time": 109920, "pitch": 61, "duration": 673, "velocity": 100}, {"time": 109920, "pitch": 64, "duration": 674, "velocity": 100}, {"time": 110640, "pitch": 49, "duration": 1133, "velocity": 90}, {"time": 110640, "pitch": 61, "duration": 857, "velocity": 90}, {"time": 110640, "pitch": 64, "duration": 860, "velocity": 98}, {"time": 110640, "pitch": 69, "duration": 881, "velocity": 108}, {"time": 111600, "pitch": 57, "duration": 176, "velocity": 77}, {"time": 111600, "pitch": 61, "duration": 165, "velocity": 95}, {"time": 111600, "pitch": 64, "duration": 160, "velocity": 87}, {"time": 111840, "pitch": 47, "duration": 629, "velocity": 61}, {"time": 111840, "pitch": 59, "duration": 640, "velocity": 100}, {"time": 111840, "pitch": 62, "duration": 632, "velocity": 93}, {"time": 112560, "pitch": 47, "duration": 874, "velocity": 74}, {"time": 112560, "pitch": 59, "duration": 890, "velocity": 76}, {"time": 112560, "pitch": 62, "duration": 893, "velocity": 93}, {"time": 112560, "pitch": 66, "duration": 898, "velocity": 83}, {"time": 113520, "pitch": 47, "duration": 210, "velocity": 67}, {"time": 113520, "pitch": 59, "duration": 175, "velocity": 83}, {"time": 113520, "pitch": 62, "duration": 178, "velocity": 76}, {"time": 113520, "pitch": 66, "duration": 178, "velocity": 90}, {"time": 113760, "pitch": 45, "duration": 664, "velocity": 65}, {"time": 113760, "pitch": 57, "duration": 653, "velocity": 74}, {"time": 113760, "pitch": 62, "duration": 655, "velocity": 85}, {"time": 113760, "pitch": 66, "duration": 652, "velocity": 95}, {"time": 114480, "pitch": 45, "duration": 1164, "velocity": 66}, {"time": 114480, "pitch": 57, "duration": 1114, "velocity": 77}, {"time": 114480, "pitch": 62, "duration": 1120, "velocity": 83}, {"time": 114480, "pitch": 66, "duration": 1118, "velocity": 95}, {"time": 115680, "pitch": 43, "duration": 661, "velocity": 70}, {"time": 115680, "pitch": 59, "duration": 653, "velocity": 77}, {"time": 115680, "pitch": 62, "duration": 649, "velocity": 86}, {"time": 115680, "pitch": 67, "duration": 656, "velocity": 93}, {"time": 116400, "pitch": 43, "duration": 1157, "velocity": 74}, {"time": 116400, "pitch": 59, "duration": 1115, "velocity": 77}, {"time": 116400, "pitch": 62, "duration": 1127, "velocity": 83}, {"time": 116400, "pitch": 67, "duration": 1172, "velocity": 90}, {"time": 117600, "pitch": 42, "duration": 636, "velocity": 68}, {"time": 117600, "pitch": 57, "duration": 645, "velocity": 85}, {"time": 117600, "pitch": 62, "duration": 636, "velocity": 98}, {"time": 117600, "pitch": 66, "duration": 627, "velocity": 95}, {"time": 118320, "pitch": 42, "duration": 1165, "velocity": 81}, {"time": 118320, "pitch": 57, "duration": 1104, "velocity": 85}, {"time": 118320, "pitch": 62, "duration": 1115, "velocity": 93}, {"time": 118320, "pitch": 66, "duration": 1120, "velocity": 100}, {"time": 119520, "pitch": 40, "duration": 610, "velocity": 71}, {"time": 119520, "pitch": 59, "duration": 645, "velocity": 83}, {"time": 119520, "pitch": 62, "duration": 639, "velocity": 93}, {"time": 119520, "pitch": 67, "duration": 638, "velocity": 90}, {"time": 120240, "pitch": 40, "duration": 1199, "velocity": 76}, {"time": 120240, "pitch": 59, "duration": 1128, "velocity": 81}, {"time": 120240, "pitch": 62, "duration": 1125, "velocity": 98}, {"time": 120240, "pitch": 67, "duration": 1119, "velocity": 95}, {"time": 121440, "pitch": 45, "duration": 610, "velocity": 68}, {"time": 121440, "pitch": 57, "duration": 619, "velocity": 77}, {"time": 121440, "pitch": 61, "duration": 623, "velocity": 98}, {"time": 121440, "pitch": 64, "duration": 614, "velocity": 98}, {"time": 122160, "pitch": 45, "duration": 900, "velocity": 85}, {"time": 122160, "pitch": 57, "duration": 752, "velocity": 85}, {"time": 122160, "pitch": 61, "duration": 789, "velocity": 108}, {"time": 122160, "pitch": 64, "duration": 790, "velocity": 104}, {"time": 122160, "pitch": 69, "duration": 791, "velocity": 98}, {"time": 123360, "pitch": 42, "duration": 632, "velocity": 71}, {"time": 123360, "pitch": 57, "duration": 656, "velocity": 90}, {"time": 123360, "pitch": 61, "duration": 649, "velocity": 100}, {"time": 123360, "pitch": 64, "duration": 646, "velocity": 100}, {"time": 124080, "pitch": 42, "duration": 1217, "velocity": 70}, {"time": 124080, "pitch": 61, "duration": 797, "velocity": 86}, {"time": 124080, "pitch": 64, "duration": 810, "velocity": 100}, {"time": 124080, "pitch": 69, "duration": 1019, "velocity": 95}, {"time": 125040, "pitch": 57, "duration": 199, "velocity": 83}, {"time": 125040, "pitch": 61, "duration": 194, "velocity": 90}, {"time": 125040, "pitch": 64, "duration": 221, "velocity": 76}, {"time": 125280, "pitch": 47, "duration": 654, "velocity": 93}, {"time": 125280, "pitch": 59, "duration": 672, "velocity": 85}, {"time": 125280, "pitch": 62, "duration": 671, "velocity": 100}, {"time": 125280, "pitch": 66, "duration": 673, "velocity": 95}, {"time": 126000, "pitch": 47, "duration": 1189, "velocity": 76}, {"time": 126000, "pitch": 59, "duration": 1060, "velocity": 73}, {"time": 126000, "pitch": 62, "duration": 1097, "velocity": 87}, {"time": 126000, "pitch": 66, "duration": 1153, "velocity": 104}, {"time": 127200, "pitch": 42, "duration": 1943, "velocity": 85}, {"time": 127200, "pitch": 57, "duration": 1814, "velocity": 76}, {"time": 127200, "pitch": 61, "duration": 657, "velocity": 90}, {"time": 127200, "pitch": 64, "duration": 641, "velocity": 93}, {"time": 127920, "pitch": 61, "duration": 1076, "velocity": 85}, {"time": 127920, "pitch": 64, "duration": 1094, "velocity": 104}, {"time": 127920, "pitch": 69, "duration": 1192, "velocity": 93}, {"time": 129120, "pitch": 47, "duration": 644, "velocity": 87}, {"time": 129120, "pitch": 59, "duration": 659, "velocity": 77}, {"time": 129120, "pitch": 62, "duration": 664, "velocity": 98}, {"time": 129120, "pitch": 66, "duration": 664, "velocity": 87}, {"time": 129840, "pitch": 47, "duration": 882, "velocity": 86}, {"time": 129840, "pitch": 59, "duration": 823, "velocity": 83}, {"time": 129840, "pitch": 62, "duration": 829, "velocity": 98}, {"time": 129840, "pitch": 66, "duration": 845, "velocity": 108}, {"time": 130800, "pitch": 40, "duration": 1155, "velocity": 87}, {"time": 130800, "pitch": 59, "duration": 1191, "velocity": 93}, {"time": 130800, "pitch": 62, "duration": 1189, "velocity": 114}, {"time": 130800, "pitch": 67, "duration": 1194, "velocity": 108}, {"time": 132000, "pitch": 40, "duration": 600, "velocity": 85}, {"time": 132000, "pitch": 59, "duration": 144, "velocity": 85}, {"time": 132000, "pitch": 62, "duration": 152, "velocity": 100}, {"time": 132000, "pitch": 67, "duration": 152, "velocity": 98}, {"time": 132240, "pitch": 59, "duration": 99, "velocity": 85}, {"time": 132240, "pitch": 62, "duration": 96, "velocity": 98}, {"time": 132240, "pitch": 67, "duration": 102, "velocity": 95}, {"time": 132720, "pitch": 40, "duration": 1105, "velocity": 95}, {"time": 132720, "pitch": 59, "duration": 447, "velocity": 95}, {"time": 132720, "pitch": 62, "duration": 450, "velocity": 108}, {"time": 132720, "pitch": 67, "duration": 438, "velocity": 108}, {"time": 133200, "pitch": 59, "duration": 80, "velocity": 58}, {"time": 133200, "pitch": 62, "duration": 69, "velocity": 67}, {"time": 133200, "pitch": 67, "duration": 88, "velocity": 67}, {"time": 133440, "pitch": 59, "duration": 430, "velocity": 100}, {"time": 133440, "pitch": 62, "duration": 430, "velocity": 112}, {"time": 133440, "pitch": 67, "duration": 418, "velocity": 98}, {"time": 133920, "pitch": 40, "duration": 667, "velocity": 86}, {"time": 133920, "pitch": 59, "duration": 174, "velocity": 74}, {"time": 133920, "pitch": 62, "duration": 186, "velocity": 86}, {"time": 133920, "pitch": 67, "duration": 186, "velocity": 93}, {"time": 134160, "pitch": 59, "duration": 113, "velocity": 81}, {"time": 134160, "pitch": 62, "duration": 107, "velocity": 90}, {"time": 134160, "pitch": 67, "duration": 108, "velocity": 86}, {"time": 134640, "pitch": 45, "duration": 413, "velocity": 104}, {"time": 134640, "pitch": 59, "duration": 436, "velocity": 87}, {"time": 134640, "pitch": 62, "duration": 433, "velocity": 112}, {"time": 134640, "pitch": 67, "duration": 435, "velocity": 104}, {"time": 135120, "pitch": 45, "duration": 62, "velocity": 69}, {"time": 135120, "pitch": 59, "duration": 66, "velocity": 75}, {"time": 135120, "pitch": 62, "duration": 58, "velocity": 81}, {"time": 135120, "pitch": 67, "duration": 81, "velocity": 86}, {"time": 135360, "pitch": 45, "duration": 349, "velocity": 98}, {"time": 135360, "pitch": 59, "duration": 380, "velocity": 95}, {"time": 135360, "pitch": 62, "duration": 378, "velocity": 112}, {"time": 135360, "pitch": 67, "duration": 372, "velocity": 100}, {"time": 135840, "pitch": 45, "duration": 102, "velocity": 63}, {"time": 135840, "pitch": 59, "duration": 102, "velocity": 75}, {"time": 135840, "pitch": 62, "duration": 105, "velocity": 87}, {"time": 135840, "pitch": 67, "duration": 103, "velocity": 95}, {"time": 136080, "pitch": 45, "duration": 408, "velocity": 112}, {"time": 136080, "pitch": 59, "duration": 435, "velocity": 98}, {"time": 136080, "pitch": 62, "duration": 434, "velocity": 112}, {"time": 136080, "pitch": 67, "duration": 441, "velocity": 98}, {"time": 136560, "pitch": 45, "duration": 330, "velocity": 112}, {"time": 136560, "pitch": 61, "duration": 350, "velocity": 90}, {"time": 136560, "pitch": 64, "duration": 344, "velocity": 120}, {"time": 136560, "pitch": 69, "duration": 349, "velocity": 112}, {"time": 137040, "pitch": 45, "duration": 61, "velocity": 83}, {"time": 137040, "pitch": 61, "duration": 62, "velocity": 73}, {"time": 137040, "pitch": 64, "duration": 59, "velocity": 104}, {"time": 137040, "pitch": 69, "duration": 56, "velocity": 87}, {"time": 137280, "pitch": 45, "duration": 415, "velocity": 104}, {"time": 137280, "pitch": 61, "duration": 426, "velocity": 104}, {"time": 137280, "pitch": 64, "duration": 420, "velocity": 120}, {"time": 137280, "pitch": 69, "duration": 423, "velocity": 98}, {"time": 137760, "pitch": 45, "duration": 362, "velocity": 100}, {"time": 137760, "pitch": 61, "duration": 369, "velocity": 90}, {"time": 137760, "pitch": 64, "duration": 370, "velocity": 117}, {"time": 137760, "pitch": 69, "duration": 361, "velocity": 104}, {"time": 138240, "pitch": 45, "duration": 330, "velocity": 93}, {"time": 138240, "pitch": 61, "duration": 277, "velocity": 93}, {"time": 138240, "pitch": 64, "duration": 281, "velocity": 120}, {"time": 138240, "pitch": 69, "duration": 298, "velocity": 104}, {"time": 138720, "pitch": 50, "duration": 570, "velocity": 90}, {"time": 138720, "pitch": 57, "duration": 564, "velocity": 90}, {"time": 138720, "pitch": 62, "duration": 570, "velocity": 108}, {"time": 138720, "pitch": 66, "duration": 563, "velocity": 98}, {"time": 139440, "pitch": 50, "duration": 897, "velocity": 87}, {"time": 139440, "pitch": 57, "duration": 879, "velocity": 93}, {"time": 139440, "pitch": 62, "duration": 906, "velocity": 111}, {"time": 139440, "pitch": 66, "duration": 889, "velocity": 81}, {"time": 140400, "pitch": 50, "duration": 233, "velocity": 67}, {"time": 140400, "pitch": 57, "duration": 179, "velocity": 76}, {"time": 140400, "pitch": 62, "duration": 179, "velocity": 98}, {"time": 140400, "pitch": 66, "duration": 204, "velocity": 79}, {"time": 140640, "pitch": 42, "duration": 584, "velocity": 93}, {"time": 140640, "pitch": 57, "duration": 613, "velocity": 74}, {"time": 140640, "pitch": 61, "duration": 602, "velocity": 90}, {"time": 140640, "pitch": 64, "duration": 617, "velocity": 93}, {"time": 141360, "pitch": 42, "duration": 1162, "velocity": 93}, {"time": 141360, "pitch": 61, "duration": 866, "velocity": 98}, {"time": 141360, "pitch": 64, "duration": 874, "velocity": 108}, {"time": 141360, "pitch": 69, "duration": 959, "velocity": 77}, {"time": 142320, "pitch": 57, "duration": 158, "velocity": 74}, {"time": 142320, "pitch": 61, "duration": 145, "velocity": 83}, {"time": 142320, "pitch": 64, "duration": 167, "velocity": 85}, {"time": 142560, "pitch": 43, "duration": 660, "velocity": 79}, {"time": 142560, "pitch": 55, "duration": 651, "velocity": 90}, {"time": 142560, "pitch": 59, "duration": 650, "velocity": 108}, {"time": 142560, "pitch": 62, "duration": 655, "velocity": 100}, {"time": 143280, "pitch": 43, "duration": 1120, "velocity": 81}, {"time": 143280, "pitch": 59, "duration": 824, "velocity": 104}, {"time": 143280, "pitch": 62, "duration": 838, "velocity": 100}, {"time": 143280, "pitch": 67, "duration": 901, "velocity": 100}, {"time": 144240, "pitch": 55, "duration": 111, "velocity": 72}, {"time": 144240, "pitch": 59, "duration": 109, "velocity": 81}, {"time": 144240, "pitch": 62, "duration": 144, "velocity": 71}, {"time": 144480, "pitch": 45, "duration": 671, "velocity": 61}, {"time": 144480, "pitch": 57, "duration": 711, "velocity": 87}, {"time": 144480, "pitch": 61, "duration": 672, "velocity": 108}, {"time": 144480, "pitch": 64, "duration": 672, "velocity": 111}, {"time": 145200, "pitch": 45, "duration": 997, "velocity": 86}, {"time": 145200, "pitch": 61, "duration": 931, "velocity": 87}, {"time": 145200, "pitch": 64, "duration": 932, "velocity": 100}, {"time": 145200, "pitch": 69, "duration": 947, "velocity": 104}, {"time": 146400, "pitch": 50, "duration": 570, "velocity": 90}, {"time": 146400, "pitch": 57, "duration": 564, "velocity": 90}, {"time": 146400, "pitch": 62, "duration": 570, "velocity": 108}, {"time": 146400, "pitch": 66, "duration": 563, "velocity": 98}, {"time": 147120, "pitch": 50, "duration": 897, "velocity": 87}, {"time": 147120, "pitch": 57, "duration": 879, "velocity": 93}, {"time": 147120, "pitch": 62, "duration": 906, "velocity": 111}, {"time": 147120, "pitch": 66, "duration": 889, "velocity": 81}, {"time": 148080, "pitch": 50, "duration": 233, "velocity": 67}, {"time": 148080, "pitch": 57, "duration": 179, "velocity": 76}, {"time": 148080, "pitch": 62, "duration": 179, "velocity": 98}, {"time": 148080, "pitch": 66, "duration": 204, "velocity": 79}, {"time": 148320, "pitch": 42, "duration": 584, "velocity": 93}, {"time": 148320, "pitch": 57, "duration": 613, "velocity": 74}, {"time": 148320, "pitch": 61, "duration": 602, "velocity": 90}, {"time": 148320, "pitch": 64, "duration": 617, "velocity": 93}, {"time": 149040, "pitch": 42, "duration": 1162, "velocity": 93}, {"time": 149040, "pitch": 61, "duration": 866, "velocity": 98}, {"time": 149040, "pitch": 64, "duration": 874, "velocity": 108}, {"time": 149040, "pitch": 69, "duration": 959, "velocity": 77}, {"time": 150000, "pitch": 57, "duration": 158, "velocity": 74}, {"time": 150000, "pitch": 61, "duration": 145, "velocity": 83}, {"time": 150000, "pitch": 64, "duration": 167, "velocity": 85}, {"time": 150240, "pitch": 43, "duration": 660, "velocity": 79}, {"time": 150240, "pitch": 55, "duration": 651, "velocity": 90}, {"time": 150240, "pitch": 59, "duration": 650, "velocity": 108}, {"time": 150240, "pitch": 62, "duration": 655, "velocity": 100}, {"time": 150960, "pitch": 43, "duration": 1120, "velocity": 81}, {"time": 150960, "pitch": 59, "duration": 824, "velocity": 104}, {"time": 150960, "pitch": 62, "duration": 838, "velocity": 100}, {"time": 150960, "pitch": 67, "duration": 901, "velocity": 100}, {"time": 151920, "pitch": 55, "duration": 111, "velocity": 72}, {"time": 151920, "pitch": 59, "duration": 109, "velocity": 81}, {"time": 151920, "pitch": 62, "duration": 144, "velocity": 71}, {"time": 152160, "pitch": 45, "duration": 671, "velocity": 61}, {"time": 152160, "pitch": 57, "duration": 711, "velocity": 87}, {"time": 152160, "pitch": 61, "duration": 672, "velocity": 108}, {"time": 152160, "pitch": 64, "duration": 672, "velocity": 111}, {"time": 152880, "pitch": 45, "duration": 997, "velocity": 86}, {"time": 152880, "pitch": 61, "duration": 931, "velocity": 87}, {"time": 152880, "pitch": 64, "duration": 932, "velocity": 100}, {"time": 152880, "pitch": 69, "duration": 947, "velocity": 104}, {"time": 154080, "pitch": 50, "duration": 570, "velocity": 90}, {"time": 154080, "pitch": 57, "duration": 564, "velocity": 90}, {"time": 154080, "pitch": 62, "duration": 570, "velocity": 108}, {"time": 154080, "pitch": 66, "duration": 563, "velocity": 98}, {"time": 154800, "pitch": 50, "duration": 897, "velocity": 87}, {"time": 154800, "pitch": 57, "duration": 879, "velocity": 93}, {"time": 154800, "pitch": 62, "duration": 906, "velocity": 111}, {"time": 154800, "pitch": 66, "duration": 889, "velocity": 81}, {"time": 155760, "pitch": 50, "duration": 233, "velocity": 67}, {"time": 155760, "pitch": 57, "duration": 179, "velocity": 76}, {"time": 155760, "pitch": 62, "duration": 179, "velocity": 98}, {"time": 155760, "pitch": 66, "duration": 204, "velocity": 79}, {"time": 156000, "pitch": 42, "duration": 584, "velocity": 93}, {"time": 156000, "pitch": 57, "duration": 613, "velocity": 74}, {"time": 156000, "pitch": 61, "duration": 602, "velocity": 90}, {"time": 156000, "pitch": 64, "duration": 617, "velocity": 93}, {"time": 156720, "pitch": 42, "duration": 1162, "velocity": 93}, {"time": 156720, "pitch": 61, "duration": 866, "velocity": 98}, {"time": 156720, "pitch": 64, "duration": 874, "velocity": 108}, {"time": 156720, "pitch": 69, "duration": 959, "velocity": 77}, {"time": 157680, "pitch": 57, "duration": 158, "velocity": 74}, {"time": 157680, "pitch": 61, "duration": 145, "velocity": 83}, {"time": 157680, "pitch": 64, "duration": 167, "velocity": 85}, {"time": 157920, "pitch": 43, "duration": 660, "velocity": 79}, {"time": 157920, "pitch": 55, "duration": 651, "velocity": 90}, {"time": 157920, "pitch": 59, "duration": 650, "velocity": 108}, {"time": 157920, "pitch": 62, "duration": 655, "velocity": 100}, {"time": 158640, "pitch": 43, "duration": 1120, "velocity": 81}, {"time": 158640, "pitch": 59, "duration": 824, "velocity": 104}, {"time": 158640, "pitch": 62, "duration": 838, "velocity": 100}, {"time": 158640, "pitch": 67, "duration": 901, "velocity": 100}, {"time": 159600, "pitch": 55, "duration": 111, "velocity": 72}, {"time": 159600, "pitch": 59, "duration": 109, "velocity": 81}, {"time": 159600, "pitch": 62, "duration": 144, "velocity": 71}, {"time": 159840, "pitch": 45, "duration": 671, "velocity": 61}, {"time": 159840, "pitch": 57, "duration": 711, "velocity": 87}, {"time": 159840, "pitch": 61, "duration": 672, "velocity": 108}, {"time": 159840, "pitch": 64, "duration": 672, "velocity": 111}, {"time": 160560, "pitch": 45, "duration": 997, "velocity": 86}, {"time": 160560, "pitch": 61, "duration": 931, "velocity": 87}, {"time": 160560, "pitch": 64, "duration": 932, "velocity": 100}, {"time": 160560, "pitch": 69, "duration": 947, "velocity": 104}, {"time": 161760, "pitch": 50, "duration": 570, "velocity": 90}, {"time": 161760, "pitch": 57, "duration": 564, "velocity": 90}, {"time": 161760, "pitch": 62, "duration": 570, "velocity": 108}, {"time": 161760, "pitch": 66, "duration": 563, "velocity": 98}, {"time": 162480, "pitch": 50, "duration": 897, "velocity": 87}, {"time": 162480, "pitch": 57, "duration": 879, "velocity": 93}, {"time": 162480, "pitch": 62, "duration": 906, "velocity": 111}, {"time": 162480, "pitch": 66, "duration": 889, "velocity": 81}, {"time": 163440, "pitch": 50, "duration": 233, "velocity": 67}, {"time": 163440, "pitch": 57, "duration": 179, "velocity": 76}, {"time": 163440, "pitch": 62, "duration": 179, "velocity": 98}, {"time": 163440, "pitch": 66, "duration": 204, "velocity": 79}, {"time": 163680, "pitch": 42, "duration": 584, "velocity": 93}, {"time": 163680, "pitch": 57, "duration": 613, "velocity": 74}, {"time": 163680, "pitch": 61, "duration": 602, "velocity": 90}, {"time": 163680, "pitch": 64, "duration": 617, "velocity": 93}, {"time": 164400, "pitch": 42, "duration": 1162, "velocity": 93}, {"time": 164400, "pitch": 61, "duration": 866, "velocity": 98}, {"time": 164400, "pitch": 64, "duration": 874, "velocity": 108}, {"time": 164400, "pitch": 69, "duration": 959, "velocity": 77}, {"time": 165360, "pitch": 57, "duration": 158, "velocity": 74}, {"time": 165360, "pitch": 61, "duration": 145, "velocity": 83}, {"time": 165360, "pitch": 64, "duration": 167, "velocity": 85}, {"time": 165600, "pitch": 43, "duration": 660, "velocity": 79}, {"time": 165600, "pitch": 55, "duration": 651, "velocity": 90}, {"time": 165600, "pitch": 59, "duration": 650, "velocity": 108}, {"time": 165600, "pitch": 62, "duration": 655, "velocity": 100}, {"time": 166320, "pitch": 43, "duration": 1120, "velocity": 81}, {"time": 166320, "pitch": 59, "duration": 824, "velocity": 104}, {"time": 166320, "pitch": 62, "duration": 838, "velocity": 100}, {"time": 166320, "pitch": 67, "duration": 901, "velocity": 100}, {"time": 167280, "pitch": 55, "duration": 111, "velocity": 72}, {"time": 167280, "pitch": 59, "duration": 109, "velocity": 81}, {"time": 167280, "pitch": 62, "duration": 144, "velocity": 71}, {"time": 167520, "pitch": 45, "duration": 671, "velocity": 61}, {"time": 167520, "pitch": 57, "duration": 711, "velocity": 87}, {"time": 167520, "pitch": 61, "duration": 672, "velocity": 108}, {"time": 167520, "pitch": 64, "duration": 672, "velocity": 111}, {"time": 168240, "pitch": 45, "duration": 997, "velocity": 86}, {"time": 168240, "pitch": 61, "duration": 931, "velocity": 87}, {"time": 168240, "pitch": 64, "duration": 932, "velocity": 100}, {"time": 168240, "pitch": 69, "duration": 947, "velocity": 104}, {"time": 169440, "pitch": 50, "duration": 570, "velocity": 90}, {"time": 169440, "pitch": 57, "duration": 564, "velocity": 90}, {"time": 169440, "pitch": 62, "duration": 570, "velocity": 108}, {"time": 169440, "pitch": 66, "duration": 563, "velocity": 98}, {"time": 170160, "pitch": 50, "duration": 897, "velocity": 87}, {"time": 170160, "pitch": 57, "duration": 879, "velocity": 93}, {"time": 170160, "pitch": 62, "duration": 906, "velocity": 111}, {"time": 170160, "pitch": 66, "duration": 889, "velocity": 81}, {"time": 171120, "pitch": 50, "duration": 233, "velocity": 67}, {"time": 171120, "pitch": 57, "duration": 179, "velocity": 76}, {"time": 171120, "pitch": 62, "duration": 179, "velocity": 98}, {"time": 171120, "pitch": 66, "duration": 204, "velocity": 79}, {"time": 171360, "pitch": 42, "duration": 584, "velocity": 93}, {"time": 171360, "pitch": 57, "duration": 613, "velocity": 74}, {"time": 171360, "pitch": 61, "duration": 602, "velocity": 90}, {"time": 171360, "pitch": 64, "duration": 617, "velocity": 93}, {"time": 172080, "pitch": 42, "duration": 1162, "velocity": 93}, {"time": 172080, "pitch": 61, "duration": 866, "velocity": 98}, {"time": 172080, "pitch": 64, "duration": 874, "velocity": 108}, {"time": 172080, "pitch": 69, "duration": 959, "velocity": 77}, {"time": 173040, "pitch": 57, "duration": 158, "velocity": 74}, {"time": 173040, "pitch": 61, "duration": 145, "velocity": 83}, {"time": 173040, "pitch": 64, "duration": 167, "velocity": 85}, {"time": 173280, "pitch": 43, "duration": 660, "velocity": 79}, {"time": 173280, "pitch": 55, "duration": 651, "velocity": 90}, {"time": 173280, "pitch": 59, "duration": 650, "velocity": 108}, {"time": 173280, "pitch": 62, "duration": 655, "velocity": 100}, {"time": 174000, "pitch": 43, "duration": 1120, "velocity": 81}, {"time": 174000, "pitch": 59, "duration": 824, "velocity": 104}, {"time": 174000, "pitch": 62, "duration": 838, "velocity": 100}, {"time": 174000, "pitch": 67, "duration": 901, "velocity": 100}, {"time": 174960, "pitch": 55, "duration": 111, "velocity": 72}, {"time": 174960, "pitch": 59, "duration": 109, "velocity": 81}, {"time": 174960, "pitch": 62, "duration": 144, "velocity": 71}, {"time": 175200, "pitch": 45, "duration": 671, "velocity": 61}, {"time": 175200, "pitch": 57, "duration": 711, "velocity": 87}, {"time": 175200, "pitch": 61, "duration": 672, "velocity": 108}, {"time": 175200, "pitch": 64, "duration": 672, "velocity": 111}, {"time": 175920, "pitch": 45, "duration": 997, "velocity": 86}, {"time": 175920, "pitch": 61, "duration": 931, "velocity": 87}, {"time": 175920, "pitch": 64, "duration": 932, "velocity": 100}, {"time": 175920, "pitch": 69, "duration": 947, "velocity": 104}, {"time": 177120, "pitch": 50, "duration": 570, "velocity": 90}, {"time": 177120, "pitch": 57, "duration": 564, "velocity": 90}, {"time": 177120, "pitch": 62, "duration": 570, "velocity": 108}, {"time": 177120, "pitch": 66, "duration": 563, "velocity": 98}, {"time": 177840, "pitch": 50, "duration": 897, "velocity": 87}, {"time": 177840, "pitch": 57, "duration": 879, "velocity": 93}, {"time": 177840, "pitch": 62, "duration": 906, "velocity": 111}, {"time": 177840, "pitch": 66, "duration": 889, "velocity": 81}, {"time": 178800, "pitch": 50, "duration": 233, "velocity": 67}, {"time": 178800, "pitch": 57, "duration": 179, "velocity": 76}, {"time": 178800, "pitch": 62, "duration": 179, "velocity": 98}, {"time": 178800, "pitch": 66, "duration": 204, "velocity": 79}, {"time": 179040, "pitch": 42, "duration": 584, "velocity": 93}, {"time": 179040, "pitch": 57, "duration": 613, "velocity": 74}, {"time": 179040, "pitch": 61, "duration": 602, "velocity": 90}, {"time": 179040, "pitch": 64, "duration": 617, "velocity": 93}, {"time": 179760, "pitch": 42, "duration": 1162, "velocity": 93}, {"time": 179760, "pitch": 61, "duration": 866, "velocity": 98}, {"time": 179760, "pitch": 64, "duration": 874, "velocity": 108}, {"time": 179760, "pitch": 69, "duration": 959, "velocity": 77}, {"time": 180720, "pitch": 57, "duration": 158, "velocity": 74}, {"time": 180720, "pitch": 61, "duration": 145, "velocity": 83}, {"time": 180720, "pitch": 64, "duration": 167, "velocity": 85}, {"time": 180960, "pitch": 43, "duration": 660, "velocity": 79}, {"time": 180960, "pitch": 55, "duration": 651, "velocity": 90}, {"time": 180960, "pitch": 59, "duration": 650, "velocity": 108}, {"time": 180960, "pitch": 62, "duration": 655, "velocity": 100}, {"time": 181680, "pitch": 43, "duration": 1120, "velocity": 81}, {"time": 181680, "pitch": 59, "duration": 824, "velocity": 104}, {"time": 181680, "pitch": 62, "duration": 838, "velocity": 100}, {"time": 181680, "pitch": 67, "duration": 901, "velocity": 100}, {"time": 182640, "pitch": 55, "duration": 111, "velocity": 72}, {"time": 182640, "pitch": 59, "duration": 109, "velocity": 81}, {"time": 182640, "pitch": 62, "duration": 144, "velocity": 71}, {"time": 182880, "pitch": 45, "duration": 671, "velocity": 61}, {"time": 182880, "pitch": 57, "duration": 711, "velocity": 87}, {"time": 182880, "pitch": 61, "duration": 672, "velocity": 108}, {"time": 182880, "pitch": 64, "duration": 672, "velocity": 111}, {"time": 183600, "pitch": 45, "duration": 997, "velocity": 86}, {"time": 183600, "pitch": 61, "duration": 931, "velocity": 87}, {"time": 183600, "pitch": 64, "duration": 932, "velocity": 100}, {"time": 183600, "pitch": 69, "duration": 947, "velocity": 104}, {"time": 184800, "pitch": 50, "duration": 570, "velocity": 90}, {"time": 184800, "pitch": 57, "duration": 564, "velocity": 90}, {"time": 184800, "pitch": 62, "duration": 570, "velocity": 108}, {"time": 184800, "pitch": 66, "duration": 563, "velocity": 98}, {"time": 185520, "pitch": 50, "duration": 897, "velocity": 87}, {"time": 185520, "pitch": 57, "duration": 879, "velocity": 93}, {"time": 185520, "pitch": 62, "duration": 906, "velocity": 111}, {"time": 185520, "pitch": 66, "duration": 889, "velocity": 81}, {"time": 186480, "pitch": 50, "duration": 233, "velocity": 67}, {"time": 186480, "pitch": 57, "duration": 179, "velocity": 76}, {"time": 186480, "pitch": 62, "duration": 179, "velocity": 98}, {"time": 186480, "pitch": 66, "duration": 204, "velocity": 79}, {"time": 186720, "pitch": 42, "duration": 584, "velocity": 93}, {"time": 186720, "pitch": 57, "duration": 613, "velocity": 74}, {"time": 186720, "pitch": 61, "duration": 602, "velocity": 90}, {"time": 186720, "pitch": 64, "duration": 617, "velocity": 93}, {"time": 187440, "pitch": 42, "duration": 1162, "velocity": 93}, {"time": 187440, "pitch": 61, "duration": 866, "velocity": 98}, {"time": 187440, "pitch": 64, "duration": 874, "velocity": 108}, {"time": 187440, "pitch": 69, "duration": 959, "velocity": 77}, {"time": 188400, "pitch": 57, "duration": 158, "velocity": 74}, {"time": 188400, "pitch": 61, "duration": 145, "velocity": 83}, {"time": 188400, "pitch": 64, "duration": 167, "velocity": 85}, {"time": 188640, "pitch": 43, "duration": 660, "velocity": 79}, {"time": 188640, "pitch": 55, "duration": 651, "velocity": 90}, {"time": 188640, "pitch": 59, "duration": 650, "velocity": 108}, {"time": 188640, "pitch": 62, "duration": 655, "velocity": 100}, {"time": 189360, "pitch": 43, "duration": 1120, "velocity": 81}, {"time": 189360, "pitch": 59, "duration": 824, "velocity": 104}, {"time": 189360, "pitch": 62, "duration": 838, "velocity": 100}, {"time": 189360, "pitch": 67, "duration": 901, "velocity": 100}, {"time": 190320, "pitch": 55, "duration": 111, "velocity": 72}, {"time": 190320, "pitch": 59, "duration": 109, "velocity": 81}, {"time": 190320, "pitch": 62, "duration": 144, "velocity": 71}, {"time": 190560, "pitch": 45, "duration": 671, "velocity": 61}, {"time": 190560, "pitch": 57, "duration": 711, "velocity": 87}, {"time": 190560, "pitch": 61, "duration": 672, "velocity": 108}, {"time": 190560, "pitch": 64, "duration": 672, "velocity": 111}, {"time": 191280, "pitch": 45, "duration": 997, "velocity": 86}, {"time": 191280, "pitch": 61, "duration": 931, "velocity": 87}, {"time": 191280, "pitch": 64, "duration": 932, "velocity": 100}, {"time": 191280, "pitch": 69, "duration": 947, "velocity": 104}, {"time": 192480, "pitch": 50, "duration": 570, "velocity": 90}, {"time": 192480, "pitch": 57, "duration": 564, "velocity": 90}, {"time": 192480, "pitch": 62, "duration": 570, "velocity": 108}, {"time": 192480, "pitch": 66, "duration": 563, "velocity": 98}, {"time": 193200, "pitch": 50, "duration": 897, "velocity": 87}, {"time": 193200, "pitch": 57, "duration": 879, "velocity": 93}, {"time": 193200, "pitch": 62, "duration": 906, "velocity": 111}, {"time": 193200, "pitch": 66, "duration": 889, "velocity": 81}, {"time": 194160, "pitch": 50, "duration": 233, "velocity": 67}, {"time": 194160, "pitch": 57, "duration": 179, "velocity": 76}, {"time": 194160, "pitch": 62, "duration": 179, "velocity": 98}, {"time": 194160, "pitch": 66, "duration": 204, "velocity": 79}, {"time": 194400, "pitch": 42, "duration": 584, "velocity": 93}, {"time": 194400, "pitch": 57, "duration": 613, "velocity": 74}, {"time": 194400, "pitch": 61, "duration": 602, "velocity": 90}, {"time": 194400, "pitch": 64, "duration": 617, "velocity": 93}, {"time": 195120, "pitch": 42, "duration": 1162, "velocity": 93}, {"time": 195120, "pitch": 61, "duration": 866, "velocity": 98}, {"time": 195120, "pitch": 64, "duration": 874, "velocity": 108}, {"time": 195120, "pitch": 69, "duration": 959, "velocity": 77}, {"time": 196080, "pitch": 57, "duration": 158, "velocity": 74}, {"time": 196080, "pitch": 61, "duration": 145, "velocity": 83}, {"time": 196080, "pitch": 64, "duration": 167, "velocity": 85}, {"time": 196320, "pitch": 43, "duration": 660, "velocity": 79}, {"time": 196320, "pitch": 55, "duration": 651, "velocity": 90}, {"time": 196320, "pitch": 59, "duration": 650, "velocity": 108}, {"time": 196320, "pitch": 62, "duration": 655, "velocity": 100}, {"time": 197040, "pitch": 43, "duration": 1120, "velocity": 81}, {"time": 197040, "pitch": 59, "duration": 824, "velocity": 104}, {"time": 197040, "pitch": 62, "duration": 838, "velocity": 100}, {"time": 197040, "pitch": 67, "duration": 901, "velocity": 100}, {"time": 198000, "pitch": 55, "duration": 111, "velocity": 72}, {"time": 198000, "pitch": 59, "duration": 109, "velocity": 81}, {"time": 198000, "pitch": 62, "duration": 144, "velocity": 71}, {"time": 198240, "pitch": 45, "duration": 671, "velocity": 61}, {"time": 198240, "pitch": 57, "duration": 711, "velocity": 87}, {"time": 198240, "pitch": 61, "duration": 672, "velocity": 108}, {"time": 198240, "pitch": 64, "duration": 672, "velocity": 111}, {"time": 198960, "pitch": 45, "duration": 997, "velocity": 86}, {"time": 198960, "pitch": 61, "duration": 931, "velocity": 87}, {"time": 198960, "pitch": 64, "duration": 932, "velocity": 100}, {"time": 198960, "pitch": 69, "duration": 947, "velocity": 104}, {"time": 200160, "pitch": 52, "duration": 1860, "velocity": 77}, {"time": 200160, "pitch": 59, "duration": 1774, "velocity": 90}, {"time": 200160, "pitch": 62, "duration": 1787, "velocity": 108}, {"time": 200160, "pitch": 67, "duration": 1834, "velocity": 95}, {"time": 202080, "pitch": 45, "duration": 602, "velocity": 83}, {"time": 202080, "pitch": 61, "duration": 619, "velocity": 90}, {"time": 202080, "pitch": 64, "duration": 634, "velocity": 111}, {"time": 202080, "pitch": 69, "duration": 626, "velocity": 104}, {"time": 202800, "pitch": 45, "duration": 864, "velocity": 90}, {"time": 202800, "pitch": 61, "duration": 846, "velocity": 95}, {"time": 202800, "pitch": 64, "duration": 864, "velocity": 112}, {"time": 202800, "pitch": 69, "duration": 827, "velocity": 104}, {"time": 203760, "pitch": 47, "duration": 660, "velocity": 90}, {"time": 203760, "pitch": 59, "duration": 660, "velocity": 98}, {"time": 203760, "pitch": 62, "duration": 660, "velocity": 112}, {"time": 203760, "pitch": 66, "duration": 660, "velocity": 108}, {"time": 204480, "pitch": 47, "duration": 480, "velocity": 90}, {"time": 204480, "pitch": 59, "duration": 480, "velocity": 98}, {"time": 204480, "pitch": 62, "duration": 480, "velocity": 112}, {"time": 204480, "pitch": 66, "duration": 480, "velocity": 108}, {"time": 204960, "pitch": 45, "duration": 480, "velocity": 90}, {"time": 204960, "pitch": 57, "duration": 480, "velocity": 98}, {"time": 204960, "pitch": 62, "duration": 480, "velocity": 112}, {"time": 204960, "pitch": 66, "duration": 480, "velocity": 108}, {"time": 205440, "pitch": 45, "duration": 480, "velocity": 90}, {"time": 205440, "pitch": 66, "duration": 480, "velocity": 98}, {"time": 205440, "pitch": 69, "duration": 480, "velocity": 112}, {"time": 205440, "pitch": 74, "duration": 480, "velocity": 108}, {"time": 205920, "pitch": 44, "duration": 570, "velocity": 90}, {"time": 205920, "pitch": 59, "duration": 564, "velocity": 90}, {"time": 205920, "pitch": 62, "duration": 570, "velocity": 108}, {"time": 205920, "pitch": 66, "duration": 563, "velocity": 98}, {"time": 206640, "pitch": 44, "duration": 897, "velocity": 87}, {"time": 206640, "pitch": 59, "duration": 879, "velocity": 93}, {"time": 206640, "pitch": 62, "duration": 906, "velocity": 111}, {"time": 206640, "pitch": 66, "duration": 889, "velocity": 81}, {"time": 207600, "pitch": 44, "duration": 233, "velocity": 67}, {"time": 207600, "pitch": 59, "duration": 204, "velocity": 79}, {"time": 207600, "pitch": 62, "duration": 179, "velocity": 76}, {"time": 207600, "pitch": 66, "duration": 179, "velocity": 98}, {"time": 207840, "pitch": 52, "duration": 1860, "velocity": 77}, {"time": 207840, "pitch": 59, "duration": 1774, "velocity": 90}, {"time": 207840, "pitch": 62, "duration": 1787, "velocity": 108}, {"time": 207840, "pitch": 67, "duration": 1834, "velocity": 95}, {"time": 209760, "pitch": 45, "duration": 602, "velocity": 83}, {"time": 209760, "pitch": 61, "duration": 619, "velocity": 90}, {"time": 209760, "pitch": 64, "duration": 634, "velocity": 111}, {"time": 209760, "pitch": 69, "duration": 626, "velocity": 104}, {"time": 210480, "pitch": 45, "duration": 864, "velocity": 90}, {"time": 210480, "pitch": 61, "duration": 846, "velocity": 95}, {"time": 210480, "pitch": 64, "duration": 864, "velocity": 112}, {"time": 210480, "pitch": 69, "duration": 827, "velocity": 104}, {"time": 211440, "pitch": 57, "duration": 1840, "velocity": 98}, {"time": 211440, "pitch": 62, "duration": 1862, "velocity": 112}, {"time": 211440, "pitch": 66, "duration": 1876, "velocity": 108}, {"time": 211560, "pitch": 50, "duration": 1880, "velocity": 90}, {"time": 213600, "pitch": 55, "duration": 184, "velocity": 98}, {"time": 213600, "pitch": 62, "duration": 185, "velocity": 111}, {"time": 213600, "pitch": 67, "duration": 184, "velocity": 120}, {"time": 213600, "pitch": 71, "duration": 172, "velocity": 108}, {"time": 213840, "pitch": 55, "duration": 135, "velocity": 83}, {"time": 213840, "pitch": 62, "duration": 142, "velocity": 93}, {"time": 213840, "pitch": 67, "duration": 136, "velocity": 108}, {"time": 213840, "pitch": 71, "duration": 121, "velocity": 87}, {"time": 214320, "pitch": 54, "duration": 352, "velocity": 100}, {"time": 214320, "pitch": 62, "duration": 363, "velocity": 114}, {"time": 214320, "pitch": 66, "duration": 345, "velocity": 117}, {"time": 214320, "pitch": 69, "duration": 320, "velocity": 112}, {"time": 214800, "pitch": 52, "duration": 367, "velocity": 98}, {"time": 214800, "pitch": 59, "duration": 361, "velocity": 112}, {"time": 214800, "pitch": 62, "duration": 367, "velocity": 114}, {"time": 214800, "pitch": 67, "duration": 366, "velocity": 111}, {"time": 215280, "pitch": 50, "duration": 1771, "velocity": 95}, {"time": 215280, "pitch": 57, "duration": 1713, "velocity": 90}, {"time": 215280, "pitch": 62, "duration": 1741, "velocity": 108}, {"time": 215280, "pitch": 66, "duration": 1766, "velocity": 112}], "annotations": [{"time": 148, "annotation": {"number": 7, "value": 98}, "group": "control_change"}, {"time": 172, "annotation": {"number": 11, "value": 120}, "group": "control_change"}, {"time": 197, "annotation": {"number": 10, "value": 13}, "group": "control_change"}, {"time": 222, "annotation": {"number": 91, "value": 46}, "group": "control_change"}, {"time": 246, "annotation": {"number": 93, "value": 32}, "group": "control_change"}, {"time": 271, "annotation": {"number": 94, "value": 0}, "group": "control_change"}, {"time": 295, "annotation": {"number": 101, "value": 0}, "group": "control_change"}, {"time": 320, "annotation": {"number": 100, "value": 0}, "group": "control_change"}, {"time": 345, "annotation": {"number": 6, "value": 12}, "group": "control_change"}, {"time": 418, "annotation": {"number": 101, "value": 127}, "group": "control_change"}, {"time": 431, "annotation": {"number": 100, "value": 127}, "group": "control_change"}]}, {"program": 0, "is_drum": false, "name": "BASS", "annotations": [{"time": 123, "annotation": {"number": 0, "value": 0}, "group": "control_change"}, {"time": 123, "annotation": {"number": 32, "value": 2}, "group": "control_change"}]}, {"program": 34, "is_drum": false, "name": "BASS", "notes": [{"time": 23520, "pitch": 38, "duration": 200, "velocity": 117}, {"time": 23760, "pitch": 38, "duration": 200, "velocity": 105}, {"time": 24000, "pitch": 38, "duration": 200, "velocity": 115}, {"time": 24240, "pitch": 38, "duration": 200, "velocity": 108}, {"time": 24480, "pitch": 38, "duration": 200, "velocity": 116}, {"time": 24720, "pitch": 38, "duration": 200, "velocity": 108}, {"time": 24960, "pitch": 38, "duration": 100, "velocity": 108}, {"time": 25080, "pitch": 38, "duration": 100, "velocity": 111}, {"time": 25200, "pitch": 38, "duration": 220, "velocity": 105}, {"time": 25440, "pitch": 37, "duration": 200, "velocity": 117}, {"time": 25680, "pitch": 37, "duration": 200, "velocity": 105}, {"time": 25920, "pitch": 37, "duration": 200, "velocity": 115}, {"time": 26160, "pitch": 37, "duration": 200, "velocity": 108}, {"time": 26400, "pitch": 37, "duration": 100, "velocity": 116}, {"time": 26520, "pitch": 37, "duration": 100, "velocity": 108}, {"time": 26640, "pitch": 37, "duration": 200, "velocity": 105}, {"time": 26880, "pitch": 37, "duration": 200, "velocity": 111}, {"time": 27120, "pitch": 37, "duration": 220, "velocity": 105}, {"time": 27360, "pitch": 35, "duration": 200, "velocity": 117}, {"time": 27600, "pitch": 35, "duration": 200, "velocity": 105}, {"time": 27840, "pitch": 35, "duration": 200, "velocity": 115}, {"time": 28080, "pitch": 35, "duration": 200, "velocity": 108}, {"time": 28320, "pitch": 35, "duration": 200, "velocity": 116}, {"time": 28560, "pitch": 35, "duration": 200, "velocity": 108}, {"time": 28800, "pitch": 35, "duration": 100, "velocity": 108}, {"time": 28920, "pitch": 35, "duration": 100, "velocity": 111}, {"time": 29040, "pitch": 35, "duration": 220, "velocity": 105}, {"time": 29280, "pitch": 33, "duration": 200, "velocity": 117}, {"time": 29520, "pitch": 33, "duration": 200, "velocity": 105}, {"time": 29760, "pitch": 33, "duration": 200, "velocity": 115}, {"time": 30000, "pitch": 33, "duration": 200, "velocity": 108}, {"time": 30240, "pitch": 33, "duration": 100, "velocity": 116}, {"time": 30360, "pitch": 33, "duration": 100, "velocity": 108}, {"time": 30480, "pitch": 33, "duration": 200, "velocity": 105}, {"time": 30720, "pitch": 33, "duration": 200, "velocity": 111}, {"time": 30960, "pitch": 33, "duration": 220, "velocity": 105}, {"time": 31200, "pitch": 31, "duration": 200, "velocity": 117}, {"time": 31440, "pitch": 31, "duration": 200, "velocity": 105}, {"time": 31680, "pitch": 31, "duration": 200, "velocity": 115}, {"time": 31920, "pitch": 31, "duration": 200, "velocity": 108}, {"time": 32160, "pitch": 31, "duration": 200, "velocity": 116}, {"time": 32400, "pitch": 31, "duration": 200, "velocity": 108}, {"time": 32640, "pitch": 31, "duration": 100, "velocity": 108}, {"time": 32760, "pitch": 31, "duration": 100, "velocity": 111}, {"time": 32880, "pitch": 31, "duration": 220, "velocity": 105}, {"time": 33120, "pitch": 30, "duration": 200, "velocity": 117}, {"time": 33360, "pitch": 30, "duration": 200, "velocity": 105}, {"time": 33600, "pitch": 30, "duration": 200, "velocity": 115}, {"time": 33840, "pitch": 30, "duration": 200, "velocity": 108}, {"time": 34080, "pitch": 30, "duration": 100, "velocity": 116}, {"time": 34200, "pitch": 30, "duration": 100, "velocity": 108}, {"time": 34320, "pitch": 30, "duration": 200, "velocity": 105}, {"time": 34560, "pitch": 30, "duration": 200, "velocity": 111}, {"time": 34800, "pitch": 30, "duration": 220, "velocity": 105}, {"time": 35040, "pitch": 40, "duration": 200, "velocity": 117}, {"time": 35280, "pitch": 40, "duration": 200, "velocity": 105}, {"time": 35520, "pitch": 40, "duration": 200, "velocity": 115}, {"time": 35760, "pitch": 40, "duration": 200, "velocity": 108}, {"time": 36000, "pitch": 40, "duration": 200, "velocity": 116}, {"time": 36240, "pitch": 40, "duration": 200, "velocity": 108}, {"time": 36480, "pitch": 40, "duration": 100, "velocity": 108}, {"time": 36600, "pitch": 40, "duration": 100, "velocity": 111}, {"time": 36720, "pitch": 40, "duration": 220, "velocity": 105}, {"time": 36960, "pitch": 33, "duration": 200, "velocity": 117}, {"time": 37200, "pitch": 33, "duration": 200, "velocity": 105}, {"time": 37440, "pitch": 33, "duration": 200, "velocity": 115}, {"time": 37680, "pitch": 33, "duration": 200, "velocity": 108}, {"time": 37920, "pitch": 33, "duration": 100, "velocity": 116}, {"time": 38040, "pitch": 33, "duration": 100, "velocity": 108}, {"time": 38160, "pitch": 33, "duration": 200, "velocity": 105}, {"time": 38400, "pitch": 33, "duration": 200, "velocity": 111}, {"time": 38640, "pitch": 33, "duration": 220, "velocity": 105}, {"time": 38880, "pitch": 38, "duration": 200, "velocity": 117}, {"time": 39120, "pitch": 38, "duration": 200, "velocity": 105}, {"time": 39360, "pitch": 38, "duration": 200, "velocity": 115}, {"time": 39600, "pitch": 38, "duration": 200, "velocity": 108}, {"time": 39840, "pitch": 38, "duration": 200, "velocity": 116}, {"time": 40080, "pitch": 38, "duration": 200, "velocity": 108}, {"time": 40320, "pitch": 38, "duration": 100, "velocity": 108}, {"time": 40440, "pitch": 38, "duration": 100, "velocity": 111}, {"time": 40560, "pitch": 38, "duration": 220, "velocity": 105}, {"time": 40800, "pitch": 37, "duration": 200, "velocity": 117}, {"time": 41040, "pitch": 37, "duration": 200, "velocity": 105}, {"time": 41280, "pitch": 37, "duration": 200, "velocity": 115}, {"time": 41520, "pitch": 37, "duration": 200, "velocity": 108}, {"time": 41760, "pitch": 37, "duration": 100, "velocity": 116}, {"time": 41880, "pitch": 37, "duration": 100, "velocity": 108}, {"time": 42000, "pitch": 37, "duration": 200, "velocity": 105}, {"time": 42240, "pitch": 37, "duration": 200, "velocity": 111}, {"time": 42480, "pitch": 37, "duration": 220, "velocity": 105}, {"time": 42720, "pitch": 35, "duration": 200, "velocity": 117}, {"time": 42960, "pitch": 35, "duration": 200, "velocity": 105}, {"time": 43200, "pitch": 35, "duration": 200, "velocity": 115}, {"time": 43440, "pitch": 35, "duration": 200, "velocity": 108}, {"time": 43680, "pitch": 35, "duration": 200, "velocity": 116}, {"time": 43920, "pitch": 35, "duration": 200, "velocity": 108}, {"time": 44160, "pitch": 35, "duration": 100, "velocity": 108}, {"time": 44280, "pitch": 35, "duration": 100, "velocity": 111}, {"time": 44400, "pitch": 35, "duration": 220, "velocity": 105}, {"time": 44640, "pitch": 33, "duration": 200, "velocity": 117}, {"time": 44880, "pitch": 33, "duration": 200, "velocity": 105}, {"time": 45120, "pitch": 33, "duration": 200, "velocity": 115}, {"time": 45360, "pitch": 33, "duration": 200, "velocity": 108}, {"time": 45600, "pitch": 33, "duration": 100, "velocity": 116}, {"time": 45720, "pitch": 33, "duration": 100, "velocity": 108}, {"time": 45840, "pitch": 33, "duration": 200, "velocity": 105}, {"time": 46080, "pitch": 33, "duration": 200, "velocity": 111}, {"time": 46320, "pitch": 33, "duration": 220, "velocity": 105}, {"time": 46560, "pitch": 31, "duration": 200, "velocity": 117}, {"time": 46800, "pitch": 31, "duration": 200, "velocity": 105}, {"time": 47040, "pitch": 31, "duration": 200, "velocity": 115}, {"time": 47280, "pitch": 31, "duration": 200, "velocity": 108}, {"time": 47520, "pitch": 31, "duration": 200, "velocity": 116}, {"time": 47760, "pitch": 31, "duration": 200, "velocity": 108}, {"time": 48000, "pitch": 31, "duration": 100, "velocity": 108}, {"time": 48120, "pitch": 31, "duration": 100, "velocity": 111}, {"time": 48240, "pitch": 31, "duration": 220, "velocity": 105}, {"time": 48480, "pitch": 30, "duration": 200, "velocity": 117}, {"time": 48720, "pitch": 30, "duration": 200, "velocity": 105}, {"time": 48960, "pitch": 30, "duration": 200, "velocity": 115}, {"time": 49200, "pitch": 30, "duration": 200, "velocity": 108}, {"time": 49440, "pitch": 30, "duration": 100, "velocity": 116}, {"time": 49560, "pitch": 30, "duration": 100, "velocity": 108}, {"time": 49680, "pitch": 30, "duration": 200, "velocity": 105}, {"time": 49920, "pitch": 30, "duration": 200, "velocity": 111}, {"time": 50160, "pitch": 30, "duration": 220, "velocity": 105}, {"time": 50400, "pitch": 40, "duration": 200, "velocity": 117}, {"time": 50640, "pitch": 40, "duration": 200, "velocity": 105}, {"time": 50880, "pitch": 40, "duration": 200, "velocity": 115}, {"time": 51120, "pitch": 40, "duration": 200, "velocity": 108}, {"time": 51360, "pitch": 40, "duration": 200, "velocity": 116}, {"time": 51600, "pitch": 40, "duration": 200, "velocity": 108}, {"time": 51840, "pitch": 40, "duration": 100, "velocity": 108}, {"time": 51960, "pitch": 40, "duration": 100, "velocity": 111}, {"time": 52080, "pitch": 40, "duration": 220, "velocity": 105}, {"time": 52320, "pitch": 33, "duration": 200, "velocity": 117}, {"time": 52560, "pitch": 33, "duration": 200, "velocity": 105}, {"time": 52800, "pitch": 33, "duration": 200, "velocity": 115}, {"time": 53040, "pitch": 33, "duration": 200, "velocity": 108}, {"time": 53280, "pitch": 33, "duration": 100, "velocity": 116}, {"time": 53400, "pitch": 33, "duration": 100, "velocity": 108}, {"time": 53520, "pitch": 33, "duration": 200, "velocity": 105}, {"time": 53760, "pitch": 33, "duration": 200, "velocity": 111}, {"time": 54000, "pitch": 33, "duration": 220, "velocity": 105}, {"time": 54240, "pitch": 42, "duration": 570, "velocity": 122}, {"time": 54960, "pitch": 42, "duration": 880, "velocity": 121}, {"time": 55920, "pitch": 42, "duration": 189, "velocity": 104}, {"time": 56160, "pitch": 35, "duration": 641, "velocity": 81}, {"time": 56160, "pitch": 37, "duration": 11, "velocity": 75}, {"time": 56880, "pitch": 35, "duration": 1111, "velocity": 120}, {"time": 58080, "pitch": 42, "duration": 600, "velocity": 114}, {"time": 58800, "pitch": 42, "duration": 1214, "velocity": 122}, {"time": 60000, "pitch": 35, "duration": 602, "velocity": 104}, {"time": 60720, "pitch": 35, "duration": 850, "velocity": 114}, {"time": 61680, "pitch": 40, "duration": 375, "velocity": 121}, {"time": 62160, "pitch": 40, "duration": 174, "velocity": 114}, {"time": 62400, "pitch": 42, "duration": 373, "velocity": 117}, {"time": 62880, "pitch": 43, "duration": 580, "velocity": 120}, {"time": 63600, "pitch": 40, "duration": 406, "velocity": 120}, {"time": 64080, "pitch": 40, "duration": 186, "velocity": 100}, {"time": 64320, "pitch": 42, "duration": 374, "velocity": 120}, {"time": 64800, "pitch": 43, "duration": 209, "velocity": 117}, {"time": 65040, "pitch": 40, "duration": 298, "velocity": 108}, {"time": 65520, "pitch": 45, "duration": 365, "velocity": 121}, {"time": 66000, "pitch": 45, "duration": 97, "velocity": 108}, {"time": 66240, "pitch": 45, "duration": 133, "velocity": 120}, {"time": 66480, "pitch": 45, "duration": 115, "velocity": 111}, {"time": 66720, "pitch": 45, "duration": 178, "velocity": 121}, {"time": 66960, "pitch": 40, "duration": 233, "velocity": 114}, {"time": 67200, "pitch": 33, "duration": 117, "velocity": 112}, {"time": 67440, "pitch": 33, "duration": 418, "velocity": 122}, {"time": 67920, "pitch": 33, "duration": 130, "velocity": 77}, {"time": 68160, "pitch": 35, "duration": 172, "velocity": 121}, {"time": 68400, "pitch": 35, "duration": 139, "velocity": 87}, {"time": 68640, "pitch": 37, "duration": 163, "velocity": 114}, {"time": 68880, "pitch": 37, "duration": 155, "velocity": 95}, {"time": 69120, "pitch": 33, "duration": 159, "velocity": 114}, {"time": 69360, "pitch": 33, "duration": 217, "velocity": 114}, {"time": 69600, "pitch": 38, "duration": 200, "velocity": 117}, {"time": 69840, "pitch": 38, "duration": 200, "velocity": 105}, {"time": 70080, "pitch": 38, "duration": 200, "velocity": 115}, {"time": 70320, "pitch": 38, "duration": 200, "velocity": 108}, {"time": 70560, "pitch": 38, "duration": 200, "velocity": 116}, {"time": 70800, "pitch": 38, "duration": 200, "velocity": 108}, {"time": 71040, "pitch": 38, "duration": 100, "velocity": 108}, {"time": 71160, "pitch": 38, "duration": 100, "velocity": 111}, {"time": 71280, "pitch": 38, "duration": 220, "velocity": 105}, {"time": 71520, "pitch": 42, "duration": 200, "velocity": 117}, {"time": 71760, "pitch": 42, "duration": 200, "velocity": 105}, {"time": 72000, "pitch": 42, "duration": 200, "velocity": 115}, {"time": 72240, "pitch": 42, "duration": 200, "velocity": 108}, {"time": 72480, "pitch": 42, "duration": 100, "velocity": 116}, {"time": 72600, "pitch": 42, "duration": 100, "velocity": 108}, {"time": 72720, "pitch": 42, "duration": 200, "velocity": 105}, {"time": 72960, "pitch": 42, "duration": 200, "velocity": 111}, {"time": 73200, "pitch": 42, "duration": 220, "velocity": 105}, {"time": 73440, "pitch": 43, "duration": 200, "velocity": 117}, {"time": 73680, "pitch": 43, "duration": 200, "velocity": 105}, {"time": 73920, "pitch": 43, "duration": 200, "velocity": 115}, {"time": 74160, "pitch": 43, "duration": 200, "velocity": 108}, {"time": 74400, "pitch": 43, "duration": 200, "velocity": 116}, {"time": 74640, "pitch": 43, "duration": 200, "velocity": 108}, {"time": 74880, "pitch": 43, "duration": 100, "velocity": 108}, {"time": 75000, "pitch": 43, "duration": 100, "velocity": 111}, {"time": 75120, "pitch": 43, "duration": 220, "velocity": 105}, {"time": 75360, "pitch": 33, "duration": 200, "velocity": 117}, {"time": 75600, "pitch": 33, "duration": 200, "velocity": 105}, {"time": 75840, "pitch": 33, "duration": 200, "velocity": 115}, {"time": 76080, "pitch": 33, "duration": 200, "velocity": 108}, {"time": 76320, "pitch": 33, "duration": 100, "velocity": 116}, {"time": 76440, "pitch": 33, "duration": 100, "velocity": 108}, {"time": 76560, "pitch": 35, "duration": 200, "velocity": 105}, {"time": 76800, "pitch": 37, "duration": 200, "velocity": 111}, {"time": 77040, "pitch": 33, "duration": 220, "velocity": 105}, {"time": 77280, "pitch": 38, "duration": 200, "velocity": 117}, {"time": 77520, "pitch": 38, "duration": 200, "velocity": 105}, {"time": 77760, "pitch": 38, "duration": 200, "velocity": 115}, {"time": 78000, "pitch": 38, "duration": 200, "velocity": 108}, {"time": 78240, "pitch": 38, "duration": 200, "velocity": 116}, {"time": 78480, "pitch": 38, "duration": 200, "velocity": 108}, {"time": 78720, "pitch": 38, "duration": 100, "velocity": 108}, {"time": 78840, "pitch": 38, "duration": 100, "velocity": 111}, {"time": 78960, "pitch": 38, "duration": 220, "velocity": 105}, {"time": 79200, "pitch": 42, "duration": 200, "velocity": 117}, {"time": 79440, "pitch": 42, "duration": 200, "velocity": 105}, {"time": 79680, "pitch": 42, "duration": 200, "velocity": 115}, {"time": 79920, "pitch": 42, "duration": 200, "velocity": 108}, {"time": 80160, "pitch": 42, "duration": 100, "velocity": 116}, {"time": 80280, "pitch": 42, "duration": 100, "velocity": 108}, {"time": 80400, "pitch": 42, "duration": 200, "velocity": 105}, {"time": 80640, "pitch": 42, "duration": 200, "velocity": 111}, {"time": 80880, "pitch": 42, "duration": 220, "velocity": 105}, {"time": 81120, "pitch": 43, "duration": 200, "velocity": 117}, {"time": 81360, "pitch": 43, "duration": 200, "velocity": 105}, {"time": 81600, "pitch": 43, "duration": 200, "velocity": 115}, {"time": 81840, "pitch": 43, "duration": 200, "velocity": 108}, {"time": 82080, "pitch": 43, "duration": 200, "velocity": 116}, {"time": 82320, "pitch": 43, "duration": 200, "velocity": 108}, {"time": 82560, "pitch": 43, "duration": 100, "velocity": 108}, {"time": 82680, "pitch": 43, "duration": 100, "velocity": 111}, {"time": 82800, "pitch": 43, "duration": 220, "velocity": 105}, {"time": 83040, "pitch": 33, "duration": 200, "velocity": 117}, {"time": 83280, "pitch": 33, "duration": 200, "velocity": 105}, {"time": 83520, "pitch": 33, "duration": 200, "velocity": 115}, {"time": 83760, "pitch": 33, "duration": 200, "velocity": 108}, {"time": 84000, "pitch": 33, "duration": 100, "velocity": 116}, {"time": 84120, "pitch": 33, "duration": 100, "velocity": 108}, {"time": 84240, "pitch": 35, "duration": 200, "velocity": 105}, {"time": 84480, "pitch": 37, "duration": 200, "velocity": 111}, {"time": 84720, "pitch": 33, "duration": 220, "velocity": 105}, {"time": 84960, "pitch": 38, "duration": 200, "velocity": 117}, {"time": 85200, "pitch": 38, "duration": 200, "velocity": 105}, {"time": 85440, "pitch": 38, "duration": 200, "velocity": 115}, {"time": 85680, "pitch": 38, "duration": 200, "velocity": 108}, {"time": 85920, "pitch": 38, "duration": 200, "velocity": 116}, {"time": 86160, "pitch": 38, "duration": 200, "velocity": 108}, {"time": 86400, "pitch": 38, "duration": 100, "velocity": 108}, {"time": 86520, "pitch": 38, "duration": 100, "velocity": 111}, {"time": 86640, "pitch": 38, "duration": 220, "velocity": 105}, {"time": 86880, "pitch": 42, "duration": 200, "velocity": 117}, {"time": 87120, "pitch": 42, "duration": 200, "velocity": 105}, {"time": 87360, "pitch": 42, "duration": 200, "velocity": 115}, {"time": 87600, "pitch": 42, "duration": 200, "velocity": 108}, {"time": 87840, "pitch": 42, "duration": 100, "velocity": 116}, {"time": 87960, "pitch": 42, "duration": 100, "velocity": 108}, {"time": 88080, "pitch": 42, "duration": 200, "velocity": 105}, {"time": 88320, "pitch": 42, "duration": 200, "velocity": 111}, {"time": 88560, "pitch": 42, "duration": 220, "velocity": 105}, {"time": 88800, "pitch": 43, "duration": 200, "velocity": 117}, {"time": 89040, "pitch": 43, "duration": 200, "velocity": 105}, {"time": 89280, "pitch": 43, "duration": 200, "velocity": 115}, {"time": 89520, "pitch": 43, "duration": 200, "velocity": 108}, {"time": 89760, "pitch": 43, "duration": 200, "velocity": 116}, {"time": 90000, "pitch": 43, "duration": 200, "velocity": 108}, {"time": 90240, "pitch": 43, "duration": 100, "velocity": 108}, {"time": 90360, "pitch": 43, "duration": 100, "velocity": 111}, {"time": 90480, "pitch": 43, "duration": 220, "velocity": 105}, {"time": 90720, "pitch": 33, "duration": 200, "velocity": 117}, {"time": 90960, "pitch": 33, "duration": 200, "velocity": 105}, {"time": 91200, "pitch": 33, "duration": 200, "velocity": 115}, {"time": 91440, "pitch": 33, "duration": 200, "velocity": 108}, {"time": 91680, "pitch": 33, "duration": 100, "velocity": 116}, {"time": 91800, "pitch": 33, "duration": 100, "velocity": 108}, {"time": 91920, "pitch": 35, "duration": 200, "velocity": 105}, {"time": 92160, "pitch": 37, "duration": 200, "velocity": 111}, {"time": 92400, "pitch": 33, "duration": 220, "velocity": 105}, {"time": 92640, "pitch": 38, "duration": 200, "velocity": 117}, {"time": 92880, "pitch": 38, "duration": 200, "velocity": 105}, {"time": 93120, "pitch": 38, "duration": 200, "velocity": 115}, {"time": 93360, "pitch": 38, "duration": 200, "velocity": 108}, {"time": 93600, "pitch": 38, "duration": 200, "velocity": 116}, {"time": 93840, "pitch": 38, "duration": 200, "velocity": 108}, {"time": 94080, "pitch": 38, "duration": 100, "velocity": 108}, {"time": 94200, "pitch": 38, "duration": 100, "velocity": 111}, {"time": 94320, "pitch": 38, "duration": 220, "velocity": 105}, {"time": 94560, "pitch": 42, "duration": 200, "velocity": 117}, {"time": 94800, "pitch": 42, "duration": 200, "velocity": 105}, {"time": 95040, "pitch": 42, "duration": 200, "velocity": 115}, {"time": 95280, "pitch": 42, "duration": 200, "velocity": 108}, {"time": 95520, "pitch": 42, "duration": 100, "velocity": 116}, {"time": 95640, "pitch": 42, "duration": 100, "velocity": 108}, {"time": 95760, "pitch": 42, "duration": 200, "velocity": 105}, {"time": 96000, "pitch": 42, "duration": 200, "velocity": 111}, {"time": 96240, "pitch": 42, "duration": 220, "velocity": 105}, {"time": 96480, "pitch": 43, "duration": 200, "velocity": 117}, {"time": 96720, "pitch": 43, "duration": 200, "velocity": 105}, {"time": 96960, "pitch": 43, "duration": 200, "velocity": 115}, {"time": 97200, "pitch": 43, "duration": 200, "velocity": 108}, {"time": 97440, "pitch": 43, "duration": 200, "velocity": 116}, {"time": 97680, "pitch": 43, "duration": 200, "velocity": 108}, {"time": 97920, "pitch": 43, "duration": 100, "velocity": 108}, {"time": 98040, "pitch": 43, "duration": 100, "velocity": 111}, {"time": 98160, "pitch": 43, "duration": 220, "velocity": 105}, {"time": 98400, "pitch": 33, "duration": 200, "velocity": 117}, {"time": 98640, "pitch": 33, "duration": 200, "velocity": 105}, {"time": 98880, "pitch": 33, "duration": 200, "velocity": 115}, {"time": 99120, "pitch": 33, "duration": 200, "velocity": 108}, {"time": 99360, "pitch": 33, "duration": 100, "velocity": 116}, {"time": 99480, "pitch": 33, "duration": 100, "velocity": 108}, {"time": 99600, "pitch": 35, "duration": 200, "velocity": 105}, {"time": 99840, "pitch": 37, "duration": 200, "velocity": 111}, {"time": 100080, "pitch": 33, "duration": 220, "velocity": 105}, {"time": 100320, "pitch": 40, "duration": 1915, "velocity": 114}, {"time": 102240, "pitch": 33, "duration": 724, "velocity": 112}, {"time": 102960, "pitch": 45, "duration": 856, "velocity": 114}, {"time": 103920, "pitch": 38, "duration": 455, "velocity": 121}, {"time": 104400, "pitch": 38, "duration": 130, "velocity": 83}, {"time": 104640, "pitch": 38, "duration": 144, "velocity": 121}, {"time": 104880, "pitch": 38, "duration": 136, "velocity": 74}, {"time": 105120, "pitch": 38, "duration": 163, "velocity": 117}, {"time": 105360, "pitch": 38, "duration": 142, "velocity": 85}, {"time": 105600, "pitch": 38, "duration": 164, "velocity": 114}, {"time": 105840, "pitch": 38, "duration": 151, "velocity": 98}, {"time": 106080, "pitch": 38, "duration": 200, "velocity": 117}, {"time": 106320, "pitch": 38, "duration": 200, "velocity": 105}, {"time": 106560, "pitch": 38, "duration": 200, "velocity": 115}, {"time": 106800, "pitch": 38, "duration": 200, "velocity": 108}, {"time": 107040, "pitch": 38, "duration": 200, "velocity": 116}, {"time": 107280, "pitch": 38, "duration": 200, "velocity": 108}, {"time": 107520, "pitch": 38, "duration": 100, "velocity": 108}, {"time": 107640, "pitch": 38, "duration": 100, "velocity": 111}, {"time": 107760, "pitch": 38, "duration": 220, "velocity": 105}, {"time": 108000, "pitch": 38, "duration": 200, "velocity": 117}, {"time": 108240, "pitch": 38, "duration": 200, "velocity": 105}, {"time": 108480, "pitch": 38, "duration": 200, "velocity": 115}, {"time": 108720, "pitch": 38, "duration": 200, "velocity": 108}, {"time": 108960, "pitch": 38, "duration": 200, "velocity": 116}, {"time": 109200, "pitch": 38, "duration": 200, "velocity": 108}, {"time": 109440, "pitch": 38, "duration": 100, "velocity": 108}, {"time": 109560, "pitch": 38, "duration": 100, "velocity": 111}, {"time": 109680, "pitch": 38, "duration": 220, "velocity": 105}, {"time": 109920, "pitch": 37, "duration": 200, "velocity": 117}, {"time": 110160, "pitch": 37, "duration": 200, "velocity": 105}, {"time": 110400, "pitch": 37, "duration": 200, "velocity": 115}, {"time": 110640, "pitch": 37, "duration": 200, "velocity": 108}, {"time": 110880, "pitch": 37, "duration": 100, "velocity": 116}, {"time": 111000, "pitch": 37, "duration": 100, "velocity": 108}, {"time": 111120, "pitch": 37, "duration": 200, "velocity": 105}, {"time": 111360, "pitch": 37, "duration": 200, "velocity": 111}, {"time": 111600, "pitch": 37, "duration": 220, "velocity": 105}, {"time": 111840, "pitch": 35, "duration": 200, "velocity": 117}, {"time": 112080, "pitch": 35, "duration": 200, "velocity": 105}, {"time": 112320, "pitch": 35, "duration": 200, "velocity": 115}, {"time": 112560, "pitch": 35, "duration": 200, "velocity": 108}, {"time": 112800, "pitch": 35, "duration": 200, "velocity": 116}, {"time": 113040, "pitch": 35, "duration": 200, "velocity": 108}, {"time": 113280, "pitch": 35, "duration": 100, "velocity": 108}, {"time": 113400, "pitch": 35, "duration": 100, "velocity": 111}, {"time": 113520, "pitch": 35, "duration": 220, "velocity": 105}, {"time": 113760, "pitch": 33, "duration": 200, "velocity": 117}, {"time": 114000, "pitch": 33, "duration": 200, "velocity": 105}, {"time": 114240, "pitch": 33, "duration": 200, "velocity": 115}, {"time": 114480, "pitch": 33, "duration": 200, "velocity": 108}, {"time": 114720, "pitch": 33, "duration": 100, "velocity": 116}, {"time": 114840, "pitch": 33, "duration": 100, "velocity": 108}, {"time": 114960, "pitch": 33, "duration": 200, "velocity": 105}, {"time": 115200, "pitch": 33, "duration": 200, "velocity": 111}, {"time": 115440, "pitch": 33, "duration": 220, "velocity": 105}, {"time": 115680, "pitch": 31, "duration": 200, "velocity": 117}, {"time": 115920, "pitch": 31, "duration": 200, "velocity": 105}, {"time": 116160, "pitch": 31, "duration": 200, "velocity": 115}, {"time": 116400, "pitch": 31, "duration": 200, "velocity": 108}, {"time": 116640, "pitch": 31, "duration": 200, "velocity": 116}, {"time": 116880, "pitch": 31, "duration": 200, "velocity": 108}, {"time": 117120, "pitch": 31, "duration": 100, "velocity": 108}, {"time": 117240, "pitch": 31, "duration": 100, "velocity": 111}, {"time": 117360, "pitch": 31, "duration": 220, "velocity": 105}, {"time": 117600, "pitch": 30, "duration": 200, "velocity": 117}, {"time": 117840, "pitch": 30, "duration": 200, "velocity": 105}, {"time": 118080, "pitch": 30, "duration": 200, "velocity": 115}, {"time": 118320, "pitch": 30, "duration": 200, "velocity": 108}, {"time": 118560, "pitch": 30, "duration": 100, "velocity": 116}, {"time": 118680, "pitch": 30, "duration": 100, "velocity": 108}, {"time": 118800, "pitch": 30, "duration": 200, "velocity": 105}, {"time": 119040, "pitch": 30, "duration": 200, "velocity": 111}, {"time": 119280, "pitch": 30, "duration": 220, "velocity": 105}, {"time": 119520, "pitch": 40, "duration": 200, "velocity": 117}, {"time": 119760, "pitch": 40, "duration": 200, "velocity": 105}, {"time": 120000, "pitch": 40, "duration": 200, "velocity": 115}, {"time": 120240, "pitch": 40, "duration": 200, "velocity": 108}, {"time": 120480, "pitch": 40, "duration": 200, "velocity": 116}, {"time": 120720, "pitch": 40, "duration": 200, "velocity": 108}, {"time": 120960, "pitch": 40, "duration": 100, "velocity": 108}, {"time": 121080, "pitch": 40, "duration": 100, "velocity": 111}, {"time": 121200, "pitch": 40, "duration": 220, "velocity": 105}, {"time": 121440, "pitch": 33, "duration": 200, "velocity": 117}, {"time": 121680, "pitch": 33, "duration": 200, "velocity": 105}, {"time": 121920, "pitch": 33, "duration": 200, "velocity": 115}, {"time": 122160, "pitch": 33, "duration": 200, "velocity": 108}, {"time": 122400, "pitch": 33, "duration": 100, "velocity": 116}, {"time": 122520, "pitch": 33, "duration": 100, "velocity": 108}, {"time": 122640, "pitch": 33, "duration": 200, "velocity": 105}, {"time": 122880, "pitch": 33, "duration": 200, "velocity": 111}, {"time": 123120, "pitch": 33, "duration": 220, "velocity": 105}, {"time": 123360, "pitch": 42, "duration": 570, "velocity": 122}, {"time": 124080, "pitch": 42, "duration": 880, "velocity": 121}, {"time": 125040, "pitch": 42, "duration": 189, "velocity": 104}, {"time": 125280, "pitch": 35, "duration": 641, "velocity": 81}, {"time": 125280, "pitch": 37, "duration": 11, "velocity": 75}, {"time": 126000, "pitch": 35, "duration": 1111, "velocity": 120}, {"time": 127200, "pitch": 42, "duration": 600, "velocity": 114}, {"time": 127920, "pitch": 42, "duration": 1214, "velocity": 122}, {"time": 129120, "pitch": 35, "duration": 602, "velocity": 104}, {"time": 129840, "pitch": 35, "duration": 850, "velocity": 114}, {"time": 130800, "pitch": 40, "duration": 375, "velocity": 121}, {"time": 131280, "pitch": 40, "duration": 174, "velocity": 114}, {"time": 131520, "pitch": 42, "duration": 373, "velocity": 117}, {"time": 132000, "pitch": 43, "duration": 580, "velocity": 120}, {"time": 132720, "pitch": 40, "duration": 406, "velocity": 120}, {"time": 133200, "pitch": 40, "duration": 186, "velocity": 100}, {"time": 133440, "pitch": 42, "duration": 374, "velocity": 120}, {"time": 133920, "pitch": 43, "duration": 209, "velocity": 117}, {"time": 134160, "pitch": 40, "duration": 298, "velocity": 108}, {"time": 134640, "pitch": 45, "duration": 365, "velocity": 121}, {"time": 135120, "pitch": 45, "duration": 97, "velocity": 108}, {"time": 135360, "pitch": 45, "duration": 133, "velocity": 120}, {"time": 135600, "pitch": 45, "duration": 115, "velocity": 111}, {"time": 135840, "pitch": 45, "duration": 178, "velocity": 121}, {"time": 136080, "pitch": 40, "duration": 233, "velocity": 114}, {"time": 136320, "pitch": 33, "duration": 117, "velocity": 112}, {"time": 136560, "pitch": 33, "duration": 418, "velocity": 122}, {"time": 137040, "pitch": 33, "duration": 130, "velocity": 77}, {"time": 137280, "pitch": 35, "duration": 172, "velocity": 121}, {"time": 137520, "pitch": 35, "duration": 139, "velocity": 87}, {"time": 137760, "pitch": 37, "duration": 163, "velocity": 114}, {"time": 138000, "pitch": 37, "duration": 155, "velocity": 95}, {"time": 138240, "pitch": 33, "duration": 159, "velocity": 114}, {"time": 138480, "pitch": 33, "duration": 217, "velocity": 114}, {"time": 138720, "pitch": 38, "duration": 200, "velocity": 117}, {"time": 138960, "pitch": 38, "duration": 200, "velocity": 105}, {"time": 139200, "pitch": 38, "duration": 200, "velocity": 115}, {"time": 139440, "pitch": 38, "duration": 200, "velocity": 108}, {"time": 139680, "pitch": 38, "duration": 200, "velocity": 116}, {"time": 139920, "pitch": 38, "duration": 200, "velocity": 108}, {"time": 140160, "pitch": 38, "duration": 100, "velocity": 108}, {"time": 140280, "pitch": 38, "duration": 100, "velocity": 111}, {"time": 140400, "pitch": 38, "duration": 220, "velocity": 105}, {"time": 140640, "pitch": 42, "duration": 200, "velocity": 117}, {"time": 140880, "pitch": 42, "duration": 200, "velocity": 105}, {"time": 141120, "pitch": 42, "duration": 200, "velocity": 115}, {"time": 141360, "pitch": 42, "duration": 200, "velocity": 108}, {"time": 141600, "pitch": 42, "duration": 100, "velocity": 116}, {"time": 141720, "pitch": 42, "duration": 100, "velocity": 108}, {"time": 141840, "pitch": 42, "duration": 200, "velocity": 105}, {"time": 142080, "pitch": 42, "duration": 200, "velocity": 111}, {"time": 142320, "pitch": 42, "duration": 220, "velocity": 105}, {"time": 142560, "pitch": 43, "duration": 200, "velocity": 117}, {"time": 142800, "pitch": 43, "duration": 200, "velocity": 105}, {"time": 143040, "pitch": 43, "duration": 200, "velocity": 115}, {"time": 143280, "pitch": 43, "duration": 200, "velocity": 108}, {"time": 143520, "pitch": 43, "duration": 200, "velocity": 116}, {"time": 143760, "pitch": 43, "duration": 200, "velocity": 108}, {"time": 144000, "pitch": 43, "duration": 100, "velocity": 108}, {"time": 144120, "pitch": 43, "duration": 100, "velocity": 111}, {"time": 144240, "pitch": 43, "duration": 220, "velocity": 105}, {"time": 144480, "pitch": 33, "duration": 200, "velocity": 117}, {"time": 144720, "pitch": 33, "duration": 200, "velocity": 105}, {"time": 144960, "pitch": 33, "duration": 200, "velocity": 115}, {"time": 145200, "pitch": 33, "duration": 200, "velocity": 108}, {"time": 145440, "pitch": 33, "duration": 100, "velocity": 116}, {"time": 145560, "pitch": 33, "duration": 100, "velocity": 108}, {"time": 145680, "pitch": 35, "duration": 200, "velocity": 105}, {"time": 145920, "pitch": 37, "duration": 200, "velocity": 111}, {"time": 146160, "pitch": 33, "duration": 220, "velocity": 105}, {"time": 146400, "pitch": 38, "duration": 200, "velocity": 117}, {"time": 146640, "pitch": 38, "duration": 200, "velocity": 105}, {"time": 146880, "pitch": 38, "duration": 200, "velocity": 115}, {"time": 147120, "pitch": 38, "duration": 200, "velocity": 108}, {"time": 147360, "pitch": 38, "duration": 200, "velocity": 116}, {"time": 147600, "pitch": 38, "duration": 200, "velocity": 108}, {"time": 147840, "pitch": 38, "duration": 100, "velocity": 108}, {"time": 147960, "pitch": 38, "duration": 100, "velocity": 111}, {"time": 148080, "pitch": 38, "duration": 220, "velocity": 105}, {"time": 148320, "pitch": 42, "duration": 200, "velocity": 117}, {"time": 148560, "pitch": 42, "duration": 200, "velocity": 105}, {"time": 148800, "pitch": 42, "duration": 200, "velocity": 115}, {"time": 149040, "pitch": 42, "duration": 200, "velocity": 108}, {"time": 149280, "pitch": 42, "duration": 100, "velocity": 116}, {"time": 149400, "pitch": 42, "duration": 100, "velocity": 108}, {"time": 149520, "pitch": 42, "duration": 200, "velocity": 105}, {"time": 149760, "pitch": 42, "duration": 200, "velocity": 111}, {"time": 150000, "pitch": 42, "duration": 220, "velocity": 105}, {"time": 150240, "pitch": 43, "duration": 200, "velocity": 117}, {"time": 150480, "pitch": 43, "duration": 200, "velocity": 105}, {"time": 150720, "pitch": 43, "duration": 200, "velocity": 115}, {"time": 150960, "pitch": 43, "duration": 200, "velocity": 108}, {"time": 151200, "pitch": 43, "duration": 200, "velocity": 116}, {"time": 151440, "pitch": 43, "duration": 200, "velocity": 108}, {"time": 151680, "pitch": 43, "duration": 100, "velocity": 108}, {"time": 151800, "pitch": 43, "duration": 100, "velocity": 111}, {"time": 151920, "pitch": 43, "duration": 220, "velocity": 105}, {"time": 152160, "pitch": 33, "duration": 200, "velocity": 117}, {"time": 152400, "pitch": 33, "duration": 200, "velocity": 105}, {"time": 152640, "pitch": 33, "duration": 200, "velocity": 115}, {"time": 152880, "pitch": 33, "duration": 200, "velocity": 108}, {"time": 153120, "pitch": 33, "duration": 100, "velocity": 116}, {"time": 153240, "pitch": 33, "duration": 100, "velocity": 108}, {"time": 153360, "pitch": 35, "duration": 200, "velocity": 105}, {"time": 153600, "pitch": 37, "duration": 200, "velocity": 111}, {"time": 153840, "pitch": 33, "duration": 220, "velocity": 105}, {"time": 154080, "pitch": 38, "duration": 200, "velocity": 117}, {"time": 154320, "pitch": 38, "duration": 200, "velocity": 105}, {"time": 154560, "pitch": 38, "duration": 200, "velocity": 115}, {"time": 154800, "pitch": 38, "duration": 200, "velocity": 108}, {"time": 155040, "pitch": 38, "duration": 200, "velocity": 116}, {"time": 155280, "pitch": 38, "duration": 200, "velocity": 108}, {"time": 155520, "pitch": 38, "duration": 100, "velocity": 108}, {"time": 155640, "pitch": 38, "duration": 100, "velocity": 111}, {"time": 155760, "pitch": 38, "duration": 220, "velocity": 105}, {"time": 156000, "pitch": 42, "duration": 200, "velocity": 117}, {"time": 156240, "pitch": 42, "duration": 200, "velocity": 105}, {"time": 156480, "pitch": 42, "duration": 200, "velocity": 115}, {"time": 156720, "pitch": 42, "duration": 200, "velocity": 108}, {"time": 156960, "pitch": 42, "duration": 100, "velocity": 116}, {"time": 157080, "pitch": 42, "duration": 100, "velocity": 108}, {"time": 157200, "pitch": 42, "duration": 200, "velocity": 105}, {"time": 157440, "pitch": 42, "duration": 200, "velocity": 111}, {"time": 157680, "pitch": 42, "duration": 220, "velocity": 105}, {"time": 157920, "pitch": 43, "duration": 200, "velocity": 117}, {"time": 158160, "pitch": 43, "duration": 200, "velocity": 105}, {"time": 158400, "pitch": 43, "duration": 200, "velocity": 115}, {"time": 158640, "pitch": 43, "duration": 200, "velocity": 108}, {"time": 158880, "pitch": 43, "duration": 200, "velocity": 116}, {"time": 159120, "pitch": 43, "duration": 200, "velocity": 108}, {"time": 159360, "pitch": 43, "duration": 100, "velocity": 108}, {"time": 159480, "pitch": 43, "duration": 100, "velocity": 111}, {"time": 159600, "pitch": 43, "duration": 220, "velocity": 105}, {"time": 159840, "pitch": 33, "duration": 200, "velocity": 117}, {"time": 160080, "pitch": 33, "duration": 200, "velocity": 105}, {"time": 160320, "pitch": 33, "duration": 200, "velocity": 115}, {"time": 160560, "pitch": 33, "duration": 200, "velocity": 108}, {"time": 160800, "pitch": 33, "duration": 100, "velocity": 116}, {"time": 160920, "pitch": 33, "duration": 100, "velocity": 108}, {"time": 161040, "pitch": 35, "duration": 200, "velocity": 105}, {"time": 161280, "pitch": 37, "duration": 200, "velocity": 111}, {"time": 161520, "pitch": 33, "duration": 220, "velocity": 105}, {"time": 161760, "pitch": 38, "duration": 200, "velocity": 117}, {"time": 162000, "pitch": 38, "duration": 200, "velocity": 105}, {"time": 162240, "pitch": 38, "duration": 200, "velocity": 115}, {"time": 162480, "pitch": 38, "duration": 200, "velocity": 108}, {"time": 162720, "pitch": 38, "duration": 200, "velocity": 116}, {"time": 162960, "pitch": 38, "duration": 200, "velocity": 108}, {"time": 163200, "pitch": 38, "duration": 100, "velocity": 108}, {"time": 163320, "pitch": 38, "duration": 100, "velocity": 111}, {"time": 163440, "pitch": 38, "duration": 220, "velocity": 105}, {"time": 163680, "pitch": 42, "duration": 200, "velocity": 117}, {"time": 163920, "pitch": 42, "duration": 200, "velocity": 105}, {"time": 164160, "pitch": 42, "duration": 200, "velocity": 115}, {"time": 164400, "pitch": 42, "duration": 200, "velocity": 108}, {"time": 164640, "pitch": 42, "duration": 100, "velocity": 116}, {"time": 164760, "pitch": 42, "duration": 100, "velocity": 108}, {"time": 164880, "pitch": 42, "duration": 200, "velocity": 105}, {"time": 165120, "pitch": 42, "duration": 200, "velocity": 111}, {"time": 165360, "pitch": 42, "duration": 220, "velocity": 105}, {"time": 165600, "pitch": 43, "duration": 200, "velocity": 117}, {"time": 165840, "pitch": 43, "duration": 200, "velocity": 105}, {"time": 166080, "pitch": 43, "duration": 200, "velocity": 115}, {"time": 166320, "pitch": 43, "duration": 200, "velocity": 108}, {"time": 166560, "pitch": 43, "duration": 200, "velocity": 116}, {"time": 166800, "pitch": 43, "duration": 200, "velocity": 108}, {"time": 167040, "pitch": 43, "duration": 100, "velocity": 108}, {"time": 167160, "pitch": 43, "duration": 100, "velocity": 111}, {"time": 167280, "pitch": 43, "duration": 220, "velocity": 105}, {"time": 167520, "pitch": 33, "duration": 200, "velocity": 117}, {"time": 167760, "pitch": 33, "duration": 200, "velocity": 105}, {"time": 168000, "pitch": 33, "duration": 200, "velocity": 115}, {"time": 168240, "pitch": 33, "duration": 200, "velocity": 108}, {"time": 168480, "pitch": 33, "duration": 100, "velocity": 116}, {"time": 168600, "pitch": 33, "duration": 100, "velocity": 108}, {"time": 168720, "pitch": 35, "duration": 200, "velocity": 105}, {"time": 168960, "pitch": 37, "duration": 200, "velocity": 111}, {"time": 169200, "pitch": 33, "duration": 220, "velocity": 105}, {"time": 169440, "pitch": 38, "duration": 200, "velocity": 117}, {"time": 169680, "pitch": 38, "duration": 200, "velocity": 105}, {"time": 169920, "pitch": 38, "duration": 200, "velocity": 115}, {"time": 170160, "pitch": 38, "duration": 200, "velocity": 108}, {"time": 170400, "pitch": 38, "duration": 200, "velocity": 116}, {"time": 170640, "pitch": 38, "duration": 200, "velocity": 108}, {"time": 170880, "pitch": 38, "duration": 100, "velocity": 108}, {"time": 171000, "pitch": 38, "duration": 100, "velocity": 111}, {"time": 171120, "pitch": 38, "duration": 220, "velocity": 105}, {"time": 171360, "pitch": 42, "duration": 200, "velocity": 117}, {"time": 171600, "pitch": 42, "duration": 200, "velocity": 105}, {"time": 171840, "pitch": 42, "duration": 200, "velocity": 115}, {"time": 172080, "pitch": 42, "duration": 200, "velocity": 108}, {"time": 172320, "pitch": 42, "duration": 100, "velocity": 116}, {"time": 172440, "pitch": 42, "duration": 100, "velocity": 108}, {"time": 172560, "pitch": 42, "duration": 200, "velocity": 105}, {"time": 172800, "pitch": 42, "duration": 200, "velocity": 111}, {"time": 173040, "pitch": 42, "duration": 220, "velocity": 105}, {"time": 173280, "pitch": 43, "duration": 200, "velocity": 117}, {"time": 173520, "pitch": 43, "duration": 200, "velocity": 105}, {"time": 173760, "pitch": 43, "duration": 200, "velocity": 115}, {"time": 174000, "pitch": 43, "duration": 200, "velocity": 108}, {"time": 174240, "pitch": 43, "duration": 200, "velocity": 116}, {"time": 174480, "pitch": 43, "duration": 200, "velocity": 108}, {"time": 174720, "pitch": 43, "duration": 100, "velocity": 108}, {"time": 174840, "pitch": 43, "duration": 100, "velocity": 111}, {"time": 174960, "pitch": 43, "duration": 220, "velocity": 105}, {"time": 175200, "pitch": 33, "duration": 200, "velocity": 117}, {"time": 175440, "pitch": 33, "duration": 200, "velocity": 105}, {"time": 175680, "pitch": 33, "duration": 200, "velocity": 115}, {"time": 175920, "pitch": 33, "duration": 200, "velocity": 108}, {"time": 176160, "pitch": 33, "duration": 100, "velocity": 116}, {"time": 176280, "pitch": 33, "duration": 100, "velocity": 108}, {"time": 176400, "pitch": 35, "duration": 200, "velocity": 105}, {"time": 176640, "pitch": 37, "duration": 200, "velocity": 111}, {"time": 176880, "pitch": 33, "duration": 220, "velocity": 105}, {"time": 177120, "pitch": 38, "duration": 200, "velocity": 117}, {"time": 177360, "pitch": 38, "duration": 200, "velocity": 105}, {"time": 177600, "pitch": 38, "duration": 200, "velocity": 115}, {"time": 177840, "pitch": 38, "duration": 200, "velocity": 108}, {"time": 178080, "pitch": 38, "duration": 200, "velocity": 116}, {"time": 178320, "pitch": 38, "duration": 200, "velocity": 108}, {"time": 178560, "pitch": 38, "duration": 100, "velocity": 108}, {"time": 178680, "pitch": 38, "duration": 100, "velocity": 111}, {"time": 178800, "pitch": 38, "duration": 220, "velocity": 105}, {"time": 179040, "pitch": 42, "duration": 200, "velocity": 117}, {"time": 179280, "pitch": 42, "duration": 200, "velocity": 105}, {"time": 179520, "pitch": 42, "duration": 200, "velocity": 115}, {"time": 179760, "pitch": 42, "duration": 200, "velocity": 108}, {"time": 180000, "pitch": 42, "duration": 100, "velocity": 116}, {"time": 180120, "pitch": 42, "duration": 100, "velocity": 108}, {"time": 180240, "pitch": 42, "duration": 200, "velocity": 105}, {"time": 180480, "pitch": 42, "duration": 200, "velocity": 111}, {"time": 180720, "pitch": 42, "duration": 220, "velocity": 105}, {"time": 180960, "pitch": 43, "duration": 200, "velocity": 117}, {"time": 181200, "pitch": 43, "duration": 200, "velocity": 105}, {"time": 181440, "pitch": 43, "duration": 200, "velocity": 115}, {"time": 181680, "pitch": 43, "duration": 200, "velocity": 108}, {"time": 181920, "pitch": 43, "duration": 200, "velocity": 116}, {"time": 182160, "pitch": 43, "duration": 200, "velocity": 108}, {"time": 182400, "pitch": 43, "duration": 100, "velocity": 108}, {"time": 182520, "pitch": 43, "duration": 100, "velocity": 111}, {"time": 182640, "pitch": 43, "duration": 220, "velocity": 105}, {"time": 182880, "pitch": 33, "duration": 200, "velocity": 117}, {"time": 183120, "pitch": 33, "duration": 200, "velocity": 105}, {"time": 183360, "pitch": 33, "duration": 200, "velocity": 115}, {"time": 183600, "pitch": 33, "duration": 200, "velocity": 108}, {"time": 183840, "pitch": 33, "duration": 100, "velocity": 116}, {"time": 183960, "pitch": 33, "duration": 100, "velocity": 108}, {"time": 184080, "pitch": 35, "duration": 200, "velocity": 105}, {"time": 184320, "pitch": 37, "duration": 200, "velocity": 111}, {"time": 184560, "pitch": 33, "duration": 220, "velocity": 105}, {"time": 184800, "pitch": 38, "duration": 200, "velocity": 117}, {"time": 185040, "pitch": 38, "duration": 200, "velocity": 105}, {"time": 185280, "pitch": 38, "duration": 200, "velocity": 115}, {"time": 185520, "pitch": 38, "duration": 200, "velocity": 108}, {"time": 185760, "pitch": 38, "duration": 200, "velocity": 116}, {"time": 186000, "pitch": 38, "duration": 200, "velocity": 108}, {"time": 186240, "pitch": 38, "duration": 100, "velocity": 108}, {"time": 186360, "pitch": 38, "duration": 100, "velocity": 111}, {"time": 186480, "pitch": 38, "duration": 220, "velocity": 105}, {"time": 186720, "pitch": 42, "duration": 200, "velocity": 117}, {"time": 186960, "pitch": 42, "duration": 200, "velocity": 105}, {"time": 187200, "pitch": 42, "duration": 200, "velocity": 115}, {"time": 187440, "pitch": 42, "duration": 200, "velocity": 108}, {"time": 187680, "pitch": 42, "duration": 100, "velocity": 116}, {"time": 187800, "pitch": 42, "duration": 100, "velocity": 108}, {"time": 187920, "pitch": 42, "duration": 200, "velocity": 105}, {"time": 188160, "pitch": 42, "duration": 200, "velocity": 111}, {"time": 188400, "pitch": 42, "duration": 220, "velocity": 105}, {"time": 188640, "pitch": 43, "duration": 200, "velocity": 117}, {"time": 188880, "pitch": 43, "duration": 200, "velocity": 105}, {"time": 189120, "pitch": 43, "duration": 200, "velocity": 115}, {"time": 189360, "pitch": 43, "duration": 200, "velocity": 108}, {"time": 189600, "pitch": 43, "duration": 200, "velocity": 116}, {"time": 189840, "pitch": 43, "duration": 200, "velocity": 108}, {"time": 190080, "pitch": 43, "duration": 100, "velocity": 108}, {"time": 190200, "pitch": 43, "duration": 100, "velocity": 111}, {"time": 190320, "pitch": 43, "duration": 220, "velocity": 105}, {"time": 190560, "pitch": 33, "duration": 200, "velocity": 117}, {"time": 190800, "pitch": 33, "duration": 200, "velocity": 105}, {"time": 191040, "pitch": 33, "duration": 200, "velocity": 115}, {"time": 191280, "pitch": 33, "duration": 200, "velocity": 108}, {"time": 191520, "pitch": 33, "duration": 100, "velocity": 116}, {"time": 191640, "pitch": 33, "duration": 100, "velocity": 108}, {"time": 191760, "pitch": 35, "duration": 200, "velocity": 105}, {"time": 192000, "pitch": 37, "duration": 200, "velocity": 111}, {"time": 192240, "pitch": 33, "duration": 220, "velocity": 105}, {"time": 192480, "pitch": 38, "duration": 200, "velocity": 117}, {"time": 192720, "pitch": 38, "duration": 200, "velocity": 105}, {"time": 192960, "pitch": 38, "duration": 200, "velocity": 115}, {"time": 193200, "pitch": 38, "duration": 200, "velocity": 108}, {"time": 193440, "pitch": 38, "duration": 200, "velocity": 116}, {"time": 193680, "pitch": 38, "duration": 200, "velocity": 108}, {"time": 193920, "pitch": 38, "duration": 100, "velocity": 108}, {"time": 194040, "pitch": 38, "duration": 100, "velocity": 111}, {"time": 194160, "pitch": 38, "duration": 220, "velocity": 105}, {"time": 194400, "pitch": 42, "duration": 200, "velocity": 117}, {"time": 194640, "pitch": 42, "duration": 200, "velocity": 105}, {"time": 194880, "pitch": 42, "duration": 200, "velocity": 115}, {"time": 195120, "pitch": 42, "duration": 200, "velocity": 108}, {"time": 195360, "pitch": 42, "duration": 100, "velocity": 116}, {"time": 195480, "pitch": 42, "duration": 100, "velocity": 108}, {"time": 195600, "pitch": 42, "duration": 200, "velocity": 105}, {"time": 195840, "pitch": 42, "duration": 200, "velocity": 111}, {"time": 196080, "pitch": 42, "duration": 220, "velocity": 105}, {"time": 196320, "pitch": 43, "duration": 200, "velocity": 117}, {"time": 196560, "pitch": 43, "duration": 200, "velocity": 105}, {"time": 196800, "pitch": 43, "duration": 200, "velocity": 115}, {"time": 197040, "pitch": 43, "duration": 200, "velocity": 108}, {"time": 197280, "pitch": 43, "duration": 200, "velocity": 116}, {"time": 197520, "pitch": 43, "duration": 200, "velocity": 108}, {"time": 197760, "pitch": 43, "duration": 100, "velocity": 108}, {"time": 197880, "pitch": 43, "duration": 100, "velocity": 111}, {"time": 198000, "pitch": 43, "duration": 220, "velocity": 105}, {"time": 198240, "pitch": 33, "duration": 200, "velocity": 117}, {"time": 198480, "pitch": 33, "duration": 200, "velocity": 105}, {"time": 198720, "pitch": 33, "duration": 200, "velocity": 115}, {"time": 198960, "pitch": 33, "duration": 200, "velocity": 108}, {"time": 199200, "pitch": 33, "duration": 100, "velocity": 116}, {"time": 199320, "pitch": 33, "duration": 100, "velocity": 108}, {"time": 199440, "pitch": 35, "duration": 200, "velocity": 105}, {"time": 199680, "pitch": 37, "duration": 200, "velocity": 111}, {"time": 199920, "pitch": 33, "duration": 220, "velocity": 105}, {"time": 200160, "pitch": 40, "duration": 1915, "velocity": 114}, {"time": 202080, "pitch": 33, "duration": 724, "velocity": 112}, {"time": 202800, "pitch": 45, "duration": 856, "velocity": 114}, {"time": 203760, "pitch": 35, "duration": 455, "velocity": 121}, {"time": 204240, "pitch": 35, "duration": 130, "velocity": 83}, {"time": 204480, "pitch": 35, "duration": 144, "velocity": 121}, {"time": 204720, "pitch": 35, "duration": 136, "velocity": 74}, {"time": 204960, "pitch": 33, "duration": 163, "velocity": 117}, {"time": 205200, "pitch": 33, "duration": 142, "velocity": 85}, {"time": 205440, "pitch": 33, "duration": 164, "velocity": 114}, {"time": 205680, "pitch": 33, "duration": 151, "velocity": 98}, {"time": 205920, "pitch": 32, "duration": 200, "velocity": 117}, {"time": 206160, "pitch": 32, "duration": 200, "velocity": 105}, {"time": 206400, "pitch": 32, "duration": 200, "velocity": 115}, {"time": 206640, "pitch": 32, "duration": 200, "velocity": 108}, {"time": 206880, "pitch": 32, "duration": 100, "velocity": 116}, {"time": 207000, "pitch": 32, "duration": 100, "velocity": 108}, {"time": 207120, "pitch": 32, "duration": 200, "velocity": 105}, {"time": 207360, "pitch": 32, "duration": 200, "velocity": 111}, {"time": 207600, "pitch": 32, "duration": 220, "velocity": 105}, {"time": 207840, "pitch": 40, "duration": 1915, "velocity": 114}, {"time": 209760, "pitch": 33, "duration": 724, "velocity": 112}, {"time": 210480, "pitch": 45, "duration": 856, "velocity": 114}, {"time": 211440, "pitch": 38, "duration": 455, "velocity": 121}, {"time": 211920, "pitch": 38, "duration": 130, "velocity": 83}, {"time": 212160, "pitch": 38, "duration": 144, "velocity": 121}, {"time": 212400, "pitch": 38, "duration": 136, "velocity": 74}, {"time": 212640, "pitch": 38, "duration": 163, "velocity": 117}, {"time": 212880, "pitch": 38, "duration": 142, "velocity": 85}, {"time": 213120, "pitch": 38, "duration": 164, "velocity": 114}, {"time": 213360, "pitch": 38, "duration": 151, "velocity": 98}, {"time": 213600, "pitch": 43, "duration": 201, "velocity": 121}, {"time": 213840, "pitch": 43, "duration": 117, "velocity": 112}, {"time": 214320, "pitch": 42, "duration": 329, "velocity": 123}, {"time": 214800, "pitch": 40, "duration": 356, "velocity": 122}, {"time": 215280, "pitch": 38, "duration": 1870, "velocity": 122}], "annotations": [{"time": 148, "annotation": {"number": 7, "value": 116}, "group": "control_change"}, {"time": 172, "annotation": {"number": 11, "value": 120}, "group": "control_change"}, {"time": 197, "annotation": {"number": 10, "value": 64}, "group": "control_change"}, {"time": 222, "annotation": {"number": 91, "value": 6}, "group": "control_change"}, {"time": 246, "annotation": {"number": 93, "value": 0}, "group": "control_change"}, {"time": 271, "annotation": {"number": 94, "value": 0}, "group": "control_change"}, {"time": 295, "annotation": {"number": 101, "value": 0}, "group": "control_change"}, {"time": 320, "annotation": {"number": 100, "value": 0}, "group": "control_change"}, {"time": 345, "annotation": {"number": 6, "value": 12}, "group": "control_change"}, {"time": 369, "annotation": {"number": 101, "value": 127}, "group": "control_change"}, {"time": 394, "annotation": {"number": 100, "value": 127}, "group": "control_change"}]}, {"program": 0, "is_drum": false, "name": "KIRA", "annotations": [{"time": 123, "annotation": {"number": 0, "value": 0}, "group": "control_change"}, {"time": 123, "annotation": {"number": 32, "value": 2}, "group": "control_change"}]}, {"program": 100, "is_drum": false, "name": "KIRA", "notes": [{"time": 480, "pitch": 62, "duration": 94, "velocity": 49}, {"time": 720, "pitch": 69, "duration": 114, "velocity": 65}, {"time": 960, "pitch": 74, "duration": 108, "velocity": 76}, {"time": 1200, "pitch": 76, "duration": 82, "velocity": 90}, {"time": 1440, "pitch": 78, "duration": 83, "velocity": 81}, {"time": 1680, "pitch": 81, "duration": 74, "velocity": 69}, {"time": 1920, "pitch": 86, "duration": 112, "velocity": 77}, {"time": 2400, "pitch": 76, "duration": 106, "velocity": 63}, {"time": 2400, "pitch": 84, "duration": 78, "velocity": 76}, {"time": 5040, "pitch": 86, "duration": 114, "velocity": 64}, {"time": 5280, "pitch": 81, "duration": 98, "velocity": 72}, {"time": 5520, "pitch": 74, "duration": 92, "velocity": 58}, {"time": 6240, "pitch": 67, "duration": 78, "velocity": 59}, {"time": 6240, "pitch": 76, "duration": 79, "velocity": 52}, {"time": 8160, "pitch": 62, "duration": 135, "velocity": 60}, {"time": 8400, "pitch": 69, "duration": 111, "velocity": 64}, {"time": 8640, "pitch": 74, "duration": 115, "velocity": 60}, {"time": 8880, "pitch": 76, "duration": 97, "velocity": 85}, {"time": 9120, "pitch": 78, "duration": 83, "velocity": 70}, {"time": 9360, "pitch": 81, "duration": 88, "velocity": 66}, {"time": 9600, "pitch": 86, "duration": 98, "velocity": 68}, {"time": 10080, "pitch": 79, "duration": 88, "velocity": 74}, {"time": 10080, "pitch": 88, "duration": 78, "velocity": 77}, {"time": 12000, "pitch": 81, "duration": 91, "velocity": 70}, {"time": 12000, "pitch": 90, "duration": 82, "velocity": 69}, {"time": 15120, "pitch": 93, "duration": 99, "velocity": 87}, {"time": 15360, "pitch": 86, "duration": 91, "velocity": 67}, {"time": 15600, "pitch": 81, "duration": 77, "velocity": 61}, {"time": 15840, "pitch": 91, "duration": 57, "velocity": 65}, {"time": 15960, "pitch": 83, "duration": 54, "velocity": 63}, {"time": 17760, "pitch": 79, "duration": 95, "velocity": 54}, {"time": 17760, "pitch": 86, "duration": 69, "velocity": 74}, {"time": 19680, "pitch": 74, "duration": 119, "velocity": 54}, {"time": 19680, "pitch": 83, "duration": 104, "velocity": 74}, {"time": 21600, "pitch": 76, "duration": 119, "velocity": 68}, {"time": 21600, "pitch": 85, "duration": 113, "velocity": 70}, {"time": 54720, "pitch": 93, "duration": 72, "velocity": 79}, {"time": 55200, "pitch": 88, "duration": 68, "velocity": 90}, {"time": 55680, "pitch": 85, "duration": 102, "velocity": 76}, {"time": 56400, "pitch": 86, "duration": 72, "velocity": 79}, {"time": 56640, "pitch": 83, "duration": 95, "velocity": 62}, {"time": 56880, "pitch": 90, "duration": 76, "velocity": 72}, {"time": 57360, "pitch": 95, "duration": 72, "velocity": 74}, {"time": 58560, "pitch": 93, "duration": 82, "velocity": 76}, {"time": 59040, "pitch": 88, "duration": 80, "velocity": 70}, {"time": 59520, "pitch": 93, "duration": 81, "velocity": 72}, {"time": 60240, "pitch": 90, "duration": 76, "velocity": 76}, {"time": 60480, "pitch": 86, "duration": 87, "velocity": 65}, {"time": 60720, "pitch": 95, "duration": 67, "velocity": 74}, {"time": 100800, "pitch": 86, "duration": 86, "velocity": 95}, {"time": 101280, "pitch": 91, "duration": 71, "velocity": 83}, {"time": 101760, "pitch": 98, "duration": 79, "velocity": 77}, {"time": 102240, "pitch": 97, "duration": 79, "velocity": 83}, {"time": 123840, "pitch": 93, "duration": 72, "velocity": 79}, {"time": 124320, "pitch": 88, "duration": 68, "velocity": 90}, {"time": 124800, "pitch": 85, "duration": 102, "velocity": 76}, {"time": 125520, "pitch": 86, "duration": 72, "velocity": 79}, {"time": 125760, "pitch": 83, "duration": 95, "velocity": 62}, {"time": 126000, "pitch": 90, "duration": 76, "velocity": 72}, {"time": 126480, "pitch": 95, "duration": 72, "velocity": 74}, {"time": 127680, "pitch": 93, "duration": 82, "velocity": 76}, {"time": 128160, "pitch": 88, "duration": 80, "velocity": 70}, {"time": 128640, "pitch": 93, "duration": 81, "velocity": 72}, {"time": 129360, "pitch": 90, "duration": 76, "velocity": 76}, {"time": 129600, "pitch": 86, "duration": 87, "velocity": 65}, {"time": 129840, "pitch": 95, "duration": 67, "velocity": 74}, {"time": 200640, "pitch": 86, "duration": 86, "velocity": 95}, {"time": 201120, "pitch": 91, "duration": 71, "velocity": 83}, {"time": 201600, "pitch": 98, "duration": 79, "velocity": 77}, {"time": 202080, "pitch": 97, "duration": 79, "velocity": 83}, {"time": 204000, "pitch": 83, "duration": 80, "velocity": 77}, {"time": 204480, "pitch": 90, "duration": 80, "velocity": 85}, {"time": 204960, "pitch": 81, "duration": 80, "velocity": 79}, {"time": 205440, "pitch": 90, "duration": 80, "velocity": 78}, {"time": 205920, "pitch": 80, "duration": 80, "velocity": 72}, {"time": 206400, "pitch": 92, "duration": 80, "velocity": 78}, {"time": 206880, "pitch": 95, "duration": 80, "velocity": 83}, {"time": 208320, "pitch": 86, "duration": 86, "velocity": 95}, {"time": 208800, "pitch": 91, "duration": 71, "velocity": 83}, {"time": 209280, "pitch": 98, "duration": 79, "velocity": 77}, {"time": 209760, "pitch": 97, "duration": 79, "velocity": 83}], "annotations": [{"time": 148, "annotation": {"number": 7, "value": 65}, "group": "control_change"}, {"time": 172, "annotation": {"number": 11, "value": 120}, "group": "control_change"}, {"time": 197, "annotation": {"number": 10, "value": 64}, "group": "control_change"}, {"time": 222, "annotation": {"number": 91, "value": 125}, "group": "control_change"}, {"time": 246, "annotation": {"number": 93, "value": 62}, "group": "control_change"}, {"time": 271, "annotation": {"number": 94, "value": 0}, "group": "control_change"}, {"time": 295, "annotation": {"number": 101, "value": 0}, "group": "control_change"}, {"time": 320, "annotation": {"number": 100, "value": 0}, "group": "control_change"}, {"time": 345, "annotation": {"number": 6, "value": 12}, "group": "control_change"}, {"time": 418, "annotation": {"number": 101, "value": 127}, "group": "control_change"}, {"time": 431, "annotation": {"number": 100, "value": 127}, "group": "control_change"}]}, {"program": 0, "is_drum": false, "name": "MELODY", "annotations": [{"time": 123, "annotation": {"number": 0, "value": 0}, "group": "control_change"}, {"time": 123, "annotation": {"number": 32, "value": 2}, "group": "control_change"}]}, {"program": 73, "is_drum": false, "name": "MELODY", "notes": [{"time": 23520, "pitch": 62, "duration": 928, "velocity": 111}, {"time": 24720, "pitch": 57, "duration": 227, "velocity": 90}, {"time": 24960, "pitch": 62, "duration": 207, "velocity": 100}, {"time": 25200, "pitch": 64, "duration": 210, "velocity": 100}, {"time": 25440, "pitch": 66, "duration": 474, "velocity": 85}, {"time": 25920, "pitch": 67, "duration": 193, "velocity": 95}, {"time": 26160, "pitch": 66, "duration": 461, "velocity": 86}, {"time": 26640, "pitch": 64, "duration": 414, "velocity": 77}, {"time": 27120, "pitch": 62, "duration": 1146, "velocity": 95}, {"time": 28560, "pitch": 57, "duration": 241, "velocity": 98}, {"time": 28800, "pitch": 62, "duration": 220, "velocity": 79}, {"time": 29040, "pitch": 64, "duration": 221, "velocity": 87}, {"time": 29280, "pitch": 66, "duration": 482, "velocity": 90}, {"time": 29760, "pitch": 67, "duration": 207, "velocity": 76}, {"time": 30000, "pitch": 66, "duration": 423, "velocity": 86}, {"time": 30480, "pitch": 64, "duration": 446, "velocity": 90}, {"time": 30960, "pitch": 62, "duration": 1255, "velocity": 87}, {"time": 32400, "pitch": 59, "duration": 217, "velocity": 86}, {"time": 32640, "pitch": 61, "duration": 212, "velocity": 79}, {"time": 32880, "pitch": 62, "duration": 196, "velocity": 90}, {"time": 33120, "pitch": 62, "duration": 367, "velocity": 83}, {"time": 33600, "pitch": 62, "duration": 264, "velocity": 85}, {"time": 33840, "pitch": 57, "duration": 353, "velocity": 98}, {"time": 34320, "pitch": 57, "duration": 219, "velocity": 100}, {"time": 34560, "pitch": 62, "duration": 209, "velocity": 90}, {"time": 34800, "pitch": 64, "duration": 212, "velocity": 81}, {"time": 35040, "pitch": 66, "duration": 427, "velocity": 85}, {"time": 35520, "pitch": 67, "duration": 720, "velocity": 74}, {"time": 36240, "pitch": 66, "duration": 435, "velocity": 83}, {"time": 36720, "pitch": 62, "duration": 212, "velocity": 95}, {"time": 36960, "pitch": 64, "duration": 1198, "velocity": 71}, {"time": 38880, "pitch": 62, "duration": 520, "velocity": 112}, {"time": 40080, "pitch": 57, "duration": 225, "velocity": 100}, {"time": 40320, "pitch": 62, "duration": 204, "velocity": 95}, {"time": 40560, "pitch": 64, "duration": 229, "velocity": 95}, {"time": 40800, "pitch": 66, "duration": 463, "velocity": 87}, {"time": 41280, "pitch": 67, "duration": 228, "velocity": 98}, {"time": 41520, "pitch": 66, "duration": 441, "velocity": 79}, {"time": 42000, "pitch": 64, "duration": 453, "velocity": 98}, {"time": 42480, "pitch": 62, "duration": 716, "velocity": 98}, {"time": 43920, "pitch": 57, "duration": 246, "velocity": 100}, {"time": 44160, "pitch": 62, "duration": 218, "velocity": 87}, {"time": 44400, "pitch": 64, "duration": 222, "velocity": 90}, {"time": 44640, "pitch": 66, "duration": 440, "velocity": 74}, {"time": 45120, "pitch": 67, "duration": 208, "velocity": 83}, {"time": 45360, "pitch": 69, "duration": 418, "velocity": 72}, {"time": 45840, "pitch": 66, "duration": 203, "velocity": 93}, {"time": 46080, "pitch": 62, "duration": 207, "velocity": 75}, {"time": 46320, "pitch": 64, "duration": 198, "velocity": 87}, {"time": 46560, "pitch": 62, "duration": 716, "velocity": 93}, {"time": 47760, "pitch": 59, "duration": 244, "velocity": 74}, {"time": 48000, "pitch": 61, "duration": 219, "velocity": 100}, {"time": 48240, "pitch": 62, "duration": 221, "velocity": 90}, {"time": 48480, "pitch": 57, "duration": 712, "velocity": 93}, {"time": 49680, "pitch": 57, "duration": 235, "velocity": 108}, {"time": 49920, "pitch": 62, "duration": 223, "velocity": 86}, {"time": 50160, "pitch": 64, "duration": 186, "velocity": 93}, {"time": 50400, "pitch": 66, "duration": 444, "velocity": 85}, {"time": 50880, "pitch": 67, "duration": 203, "velocity": 77}, {"time": 51120, "pitch": 66, "duration": 423, "velocity": 98}, {"time": 51600, "pitch": 62, "duration": 444, "velocity": 98}, {"time": 52080, "pitch": 69, "duration": 1144, "velocity": 98}, {"time": 53520, "pitch": 64, "duration": 195, "velocity": 90}, {"time": 53760, "pitch": 66, "duration": 247, "velocity": 86}, {"time": 54000, "pitch": 67, "duration": 240, "velocity": 85}, {"time": 54240, "pitch": 69, "duration": 1155, "velocity": 73}, {"time": 55440, "pitch": 71, "duration": 442, "velocity": 83}, {"time": 55920, "pitch": 66, "duration": 405, "velocity": 74}, {"time": 56400, "pitch": 64, "duration": 86, "velocity": 76}, {"time": 56520, "pitch": 66, "duration": 790, "velocity": 79}, {"time": 57360, "pitch": 64, "duration": 191, "velocity": 73}, {"time": 57600, "pitch": 66, "duration": 226, "velocity": 67}, {"time": 57840, "pitch": 67, "duration": 204, "velocity": 74}, {"time": 58080, "pitch": 69, "duration": 649, "velocity": 67}, {"time": 58800, "pitch": 66, "duration": 180, "velocity": 68}, {"time": 59040, "pitch": 69, "duration": 220, "velocity": 66}, {"time": 59280, "pitch": 71, "duration": 399, "velocity": 67}, {"time": 59760, "pitch": 73, "duration": 520, "velocity": 77}, {"time": 60240, "pitch": 74, "duration": 434, "velocity": 86}, {"time": 60720, "pitch": 69, "duration": 702, "velocity": 77}, {"time": 61440, "pitch": 66, "duration": 199, "velocity": 73}, {"time": 61680, "pitch": 67, "duration": 398, "velocity": 90}, {"time": 62160, "pitch": 67, "duration": 130, "velocity": 93}, {"time": 62400, "pitch": 66, "duration": 186, "velocity": 111}, {"time": 62640, "pitch": 67, "duration": 626, "velocity": 90}, {"time": 63600, "pitch": 66, "duration": 220, "velocity": 100}, {"time": 63840, "pitch": 67, "duration": 202, "velocity": 87}, {"time": 64080, "pitch": 67, "duration": 218, "velocity": 100}, {"time": 64320, "pitch": 66, "duration": 159, "velocity": 81}, {"time": 64560, "pitch": 67, "duration": 430, "velocity": 111}, {"time": 65040, "pitch": 66, "duration": 203, "velocity": 79}, {"time": 65280, "pitch": 64, "duration": 167, "velocity": 79}, {"time": 65520, "pitch": 69, "duration": 976, "velocity": 117}, {"time": 66480, "pitch": 71, "duration": 180, "velocity": 74}, {"time": 66720, "pitch": 73, "duration": 215, "velocity": 85}, {"time": 66960, "pitch": 69, "duration": 247, "velocity": 95}, {"time": 67440, "pitch": 69, "duration": 1374, "velocity": 108}, {"time": 68880, "pitch": 69, "duration": 182, "velocity": 93}, {"time": 69120, "pitch": 71, "duration": 214, "velocity": 85}, {"time": 69360, "pitch": 69, "duration": 72, "velocity": 83}, {"time": 69600, "pitch": 66, "duration": 499, "velocity": 108}, {"time": 71280, "pitch": 62, "duration": 216, "velocity": 111}, {"time": 71520, "pitch": 64, "duration": 437, "velocity": 100}, {"time": 72000, "pitch": 69, "duration": 119, "velocity": 86}, {"time": 72240, "pitch": 69, "duration": 799, "velocity": 100}, {"time": 73200, "pitch": 67, "duration": 213, "velocity": 104}, {"time": 73440, "pitch": 66, "duration": 436, "velocity": 100}, {"time": 73920, "pitch": 62, "duration": 144, "velocity": 104}, {"time": 74160, "pitch": 62, "duration": 908, "velocity": 77}, {"time": 75600, "pitch": 59, "duration": 143, "velocity": 83}, {"time": 75840, "pitch": 62, "duration": 186, "velocity": 104}, {"time": 76080, "pitch": 59, "duration": 153, "velocity": 85}, {"time": 76320, "pitch": 62, "duration": 179, "velocity": 104}, {"time": 76560, "pitch": 64, "duration": 421, "velocity": 90}, {"time": 77040, "pitch": 66, "duration": 740, "velocity": 100}, {"time": 78960, "pitch": 62, "duration": 189, "velocity": 93}, {"time": 79200, "pitch": 64, "duration": 557, "velocity": 100}, {"time": 79920, "pitch": 69, "duration": 427, "velocity": 104}, {"time": 80400, "pitch": 71, "duration": 416, "velocity": 111}, {"time": 80880, "pitch": 69, "duration": 172, "velocity": 85}, {"time": 81120, "pitch": 71, "duration": 186, "velocity": 95}, {"time": 81360, "pitch": 73, "duration": 137, "velocity": 87}, {"time": 81600, "pitch": 74, "duration": 1204, "velocity": 95}, {"time": 83760, "pitch": 62, "duration": 197, "velocity": 98}, {"time": 84000, "pitch": 64, "duration": 199, "velocity": 85}, {"time": 84240, "pitch": 66, "duration": 414, "velocity": 104}, {"time": 84720, "pitch": 64, "duration": 176, "velocity": 90}, {"time": 84960, "pitch": 66, "duration": 668, "velocity": 87}, {"time": 86640, "pitch": 62, "duration": 215, "velocity": 100}, {"time": 86880, "pitch": 64, "duration": 416, "velocity": 90}, {"time": 87360, "pitch": 69, "duration": 164, "velocity": 79}, {"time": 87600, "pitch": 69, "duration": 534, "velocity": 83}, {"time": 88560, "pitch": 67, "duration": 209, "velocity": 100}, {"time": 88800, "pitch": 66, "duration": 438, "velocity": 90}, {"time": 89280, "pitch": 62, "duration": 102, "velocity": 98}, {"time": 89520, "pitch": 62, "duration": 933, "velocity": 100}, {"time": 91440, "pitch": 59, "duration": 401, "velocity": 100}, {"time": 91920, "pitch": 62, "duration": 198, "velocity": 100}, {"time": 92160, "pitch": 64, "duration": 242, "velocity": 95}, {"time": 92400, "pitch": 62, "duration": 113, "velocity": 76}, {"time": 92640, "pitch": 66, "duration": 596, "velocity": 100}, {"time": 93360, "pitch": 66, "duration": 341, "velocity": 95}, {"time": 94320, "pitch": 62, "duration": 209, "velocity": 111}, {"time": 94560, "pitch": 64, "duration": 407, "velocity": 98}, {"time": 95040, "pitch": 69, "duration": 134, "velocity": 95}, {"time": 95280, "pitch": 69, "duration": 431, "velocity": 90}, {"time": 95760, "pitch": 71, "duration": 202, "velocity": 87}, {"time": 96000, "pitch": 69, "duration": 250, "velocity": 90}, {"time": 96240, "pitch": 71, "duration": 412, "velocity": 85}, {"time": 96720, "pitch": 73, "duration": 140, "velocity": 85}, {"time": 96960, "pitch": 74, "duration": 1932, "velocity": 104}, {"time": 100800, "pitch": 67, "duration": 230, "velocity": 108}, {"time": 101040, "pitch": 66, "duration": 228, "velocity": 81}, {"time": 101280, "pitch": 64, "duration": 437, "velocity": 98}, {"time": 101760, "pitch": 62, "duration": 500, "velocity": 68}, {"time": 102240, "pitch": 61, "duration": 1376, "velocity": 111}, {"time": 103680, "pitch": 61, "duration": 199, "velocity": 86}, {"time": 103920, "pitch": 64, "duration": 438, "velocity": 108}, {"time": 104400, "pitch": 62, "duration": 1797, "velocity": 85}, {"time": 108000, "pitch": 62, "duration": 928, "velocity": 111}, {"time": 109200, "pitch": 57, "duration": 227, "velocity": 90}, {"time": 109440, "pitch": 62, "duration": 207, "velocity": 100}, {"time": 109680, "pitch": 64, "duration": 210, "velocity": 100}, {"time": 109920, "pitch": 66, "duration": 474, "velocity": 85}, {"time": 110400, "pitch": 67, "duration": 193, "velocity": 95}, {"time": 110640, "pitch": 66, "duration": 461, "velocity": 86}, {"time": 111120, "pitch": 64, "duration": 414, "velocity": 77}, {"time": 111600, "pitch": 62, "duration": 1146, "velocity": 95}, {"time": 113040, "pitch": 57, "duration": 241, "velocity": 98}, {"time": 113280, "pitch": 62, "duration": 220, "velocity": 79}, {"time": 113520, "pitch": 64, "duration": 221, "velocity": 87}, {"time": 113760, "pitch": 66, "duration": 482, "velocity": 90}, {"time": 114240, "pitch": 67, "duration": 207, "velocity": 76}, {"time": 114480, "pitch": 66, "duration": 423, "velocity": 86}, {"time": 114960, "pitch": 64, "duration": 446, "velocity": 90}, {"time": 115440, "pitch": 62, "duration": 1255, "velocity": 87}, {"time": 116880, "pitch": 59, "duration": 217, "velocity": 86}, {"time": 117120, "pitch": 61, "duration": 212, "velocity": 79}, {"time": 117360, "pitch": 62, "duration": 196, "velocity": 90}, {"time": 117600, "pitch": 62, "duration": 367, "velocity": 83}, {"time": 118080, "pitch": 62, "duration": 230, "velocity": 85}, {"time": 118320, "pitch": 57, "duration": 353, "velocity": 98}, {"time": 118800, "pitch": 57, "duration": 219, "velocity": 100}, {"time": 119040, "pitch": 62, "duration": 209, "velocity": 90}, {"time": 119280, "pitch": 64, "duration": 212, "velocity": 81}, {"time": 119520, "pitch": 66, "duration": 427, "velocity": 85}, {"time": 120000, "pitch": 67, "duration": 720, "velocity": 74}, {"time": 120720, "pitch": 66, "duration": 435, "velocity": 83}, {"time": 121200, "pitch": 62, "duration": 212, "velocity": 95}, {"time": 121440, "pitch": 64, "duration": 960, "velocity": 71}, {"time": 122640, "pitch": 64, "duration": 195, "velocity": 90}, {"time": 122880, "pitch": 66, "duration": 247, "velocity": 86}, {"time": 123120, "pitch": 67, "duration": 240, "velocity": 85}, {"time": 123360, "pitch": 69, "duration": 1155, "velocity": 73}, {"time": 124560, "pitch": 71, "duration": 442, "velocity": 83}, {"time": 125040, "pitch": 66, "duration": 405, "velocity": 74}, {"time": 125520, "pitch": 64, "duration": 86, "velocity": 76}, {"time": 125640, "pitch": 66, "duration": 790, "velocity": 79}, {"time": 126480, "pitch": 64, "duration": 191, "velocity": 73}, {"time": 126720, "pitch": 66, "duration": 226, "velocity": 67}, {"time": 126960, "pitch": 67, "duration": 204, "velocity": 74}, {"time": 127200, "pitch": 69, "duration": 649, "velocity": 67}, {"time": 127920, "pitch": 66, "duration": 180, "velocity": 68}, {"time": 128160, "pitch": 69, "duration": 220, "velocity": 66}, {"time": 128400, "pitch": 71, "duration": 399, "velocity": 67}, {"time": 128880, "pitch": 73, "duration": 520, "velocity": 77}, {"time": 129360, "pitch": 74, "duration": 434, "velocity": 86}, {"time": 129840, "pitch": 69, "duration": 702, "velocity": 77}, {"time": 130560, "pitch": 66, "duration": 199, "velocity": 73}, {"time": 130800, "pitch": 67, "duration": 398, "velocity": 90}, {"time": 131280, "pitch": 67, "duration": 130, "velocity": 93}, {"time": 131520, "pitch": 66, "duration": 186, "velocity": 111}, {"time": 131760, "pitch": 67, "duration": 626, "velocity": 90}, {"time": 132720, "pitch": 66, "duration": 220, "velocity": 100}, {"time": 132960, "pitch": 67, "duration": 202, "velocity": 87}, {"time": 133200, "pitch": 67, "duration": 218, "velocity": 100}, {"time": 133440, "pitch": 66, "duration": 159, "velocity": 81}, {"time": 133680, "pitch": 67, "duration": 430, "velocity": 111}, {"time": 134160, "pitch": 66, "duration": 203, "velocity": 79}, {"time": 134400, "pitch": 64, "duration": 167, "velocity": 79}, {"time": 134640, "pitch": 69, "duration": 976, "velocity": 117}, {"time": 135600, "pitch": 71, "duration": 180, "velocity": 74}, {"time": 135840, "pitch": 73, "duration": 215, "velocity": 85}, {"time": 136080, "pitch": 69, "duration": 247, "velocity": 95}, {"time": 136560, "pitch": 69, "duration": 1374, "velocity": 108}, {"time": 138000, "pitch": 69, "duration": 182, "velocity": 93}, {"time": 138240, "pitch": 71, "duration": 214, "velocity": 85}, {"time": 138480, "pitch": 69, "duration": 72, "velocity": 83}, {"time": 138720, "pitch": 66, "duration": 499, "velocity": 108}, {"time": 140400, "pitch": 62, "duration": 216, "velocity": 111}, {"time": 140640, "pitch": 64, "duration": 437, "velocity": 100}, {"time": 141120, "pitch": 69, "duration": 119, "velocity": 86}, {"time": 141360, "pitch": 69, "duration": 799, "velocity": 100}, {"time": 142320, "pitch": 67, "duration": 213, "velocity": 104}, {"time": 142560, "pitch": 66, "duration": 436, "velocity": 100}, {"time": 143040, "pitch": 62, "duration": 144, "velocity": 104}, {"time": 143280, "pitch": 62, "duration": 908, "velocity": 77}, {"time": 144840, "pitch": 59, "duration": 143, "velocity": 83}, {"time": 144960, "pitch": 62, "duration": 186, "velocity": 104}, {"time": 145200, "pitch": 59, "duration": 153, "velocity": 85}, {"time": 145440, "pitch": 62, "duration": 179, "velocity": 104}, {"time": 145680, "pitch": 64, "duration": 421, "velocity": 90}, {"time": 146160, "pitch": 66, "duration": 740, "velocity": 100}, {"time": 148080, "pitch": 62, "duration": 189, "velocity": 93}, {"time": 148320, "pitch": 64, "duration": 557, "velocity": 100}, {"time": 149040, "pitch": 69, "duration": 427, "velocity": 104}, {"time": 149520, "pitch": 71, "duration": 416, "velocity": 111}, {"time": 150000, "pitch": 69, "duration": 172, "velocity": 85}, {"time": 150240, "pitch": 71, "duration": 186, "velocity": 95}, {"time": 150480, "pitch": 73, "duration": 137, "velocity": 87}, {"time": 150720, "pitch": 74, "duration": 1204, "velocity": 95}, {"time": 152880, "pitch": 62, "duration": 197, "velocity": 98}, {"time": 153120, "pitch": 64, "duration": 199, "velocity": 85}, {"time": 153360, "pitch": 66, "duration": 414, "velocity": 104}, {"time": 153840, "pitch": 64, "duration": 176, "velocity": 90}, {"time": 154080, "pitch": 66, "duration": 668, "velocity": 87}, {"time": 155760, "pitch": 62, "duration": 215, "velocity": 100}, {"time": 156000, "pitch": 64, "duration": 416, "velocity": 90}, {"time": 156480, "pitch": 69, "duration": 164, "velocity": 79}, {"time": 156720, "pitch": 69, "duration": 534, "velocity": 83}, {"time": 157680, "pitch": 67, "duration": 209, "velocity": 100}, {"time": 157920, "pitch": 66, "duration": 438, "velocity": 90}, {"time": 158400, "pitch": 62, "duration": 102, "velocity": 98}, {"time": 158640, "pitch": 62, "duration": 933, "velocity": 100}, {"time": 160560, "pitch": 59, "duration": 401, "velocity": 100}, {"time": 161040, "pitch": 62, "duration": 198, "velocity": 100}, {"time": 161280, "pitch": 64, "duration": 242, "velocity": 95}, {"time": 161520, "pitch": 62, "duration": 113, "velocity": 76}, {"time": 161760, "pitch": 66, "duration": 596, "velocity": 100}, {"time": 162480, "pitch": 66, "duration": 341, "velocity": 95}, {"time": 163440, "pitch": 62, "duration": 209, "velocity": 111}, {"time": 163680, "pitch": 64, "duration": 407, "velocity": 98}, {"time": 164160, "pitch": 69, "duration": 134, "velocity": 95}, {"time": 164400, "pitch": 69, "duration": 431, "velocity": 90}, {"time": 164880, "pitch": 71, "duration": 202, "velocity": 87}, {"time": 165120, "pitch": 69, "duration": 250, "velocity": 90}, {"time": 165360, "pitch": 71, "duration": 412, "velocity": 85}, {"time": 165840, "pitch": 73, "duration": 140, "velocity": 85}, {"time": 166080, "pitch": 74, "duration": 1932, "velocity": 104}, {"time": 169440, "pitch": 66, "duration": 499, "velocity": 108}, {"time": 171120, "pitch": 62, "duration": 216, "velocity": 111}, {"time": 171360, "pitch": 64, "duration": 437, "velocity": 100}, {"time": 171840, "pitch": 69, "duration": 119, "velocity": 86}, {"time": 172080, "pitch": 69, "duration": 799, "velocity": 100}, {"time": 173040, "pitch": 67, "duration": 213, "velocity": 104}, {"time": 173280, "pitch": 66, "duration": 436, "velocity": 100}, {"time": 173760, "pitch": 62, "duration": 144, "velocity": 104}, {"time": 174000, "pitch": 62, "duration": 908, "velocity": 77}, {"time": 175560, "pitch": 59, "duration": 143, "velocity": 83}, {"time": 175680, "pitch": 62, "duration": 186, "velocity": 104}, {"time": 175920, "pitch": 59, "duration": 153, "velocity": 85}, {"time": 176160, "pitch": 62, "duration": 179, "velocity": 104}, {"time": 176400, "pitch": 64, "duration": 421, "velocity": 90}, {"time": 176880, "pitch": 66, "duration": 740, "velocity": 100}, {"time": 178800, "pitch": 62, "duration": 189, "velocity": 93}, {"time": 179040, "pitch": 64, "duration": 557, "velocity": 100}, {"time": 179760, "pitch": 69, "duration": 427, "velocity": 104}, {"time": 180240, "pitch": 71, "duration": 416, "velocity": 111}, {"time": 180720, "pitch": 69, "duration": 172, "velocity": 85}, {"time": 180960, "pitch": 71, "duration": 186, "velocity": 95}, {"time": 181200, "pitch": 73, "duration": 137, "velocity": 87}, {"time": 181440, "pitch": 74, "duration": 1204, "velocity": 95}, {"time": 183600, "pitch": 62, "duration": 197, "velocity": 98}, {"time": 183840, "pitch": 64, "duration": 199, "velocity": 85}, {"time": 184080, "pitch": 66, "duration": 414, "velocity": 104}, {"time": 184560, "pitch": 64, "duration": 176, "velocity": 90}, {"time": 184800, "pitch": 66, "duration": 668, "velocity": 87}, {"time": 186480, "pitch": 62, "duration": 215, "velocity": 100}, {"time": 186720, "pitch": 64, "duration": 416, "velocity": 90}, {"time": 187200, "pitch": 69, "duration": 164, "velocity": 79}, {"time": 187440, "pitch": 69, "duration": 534, "velocity": 83}, {"time": 188400, "pitch": 67, "duration": 209, "velocity": 100}, {"time": 188640, "pitch": 66, "duration": 438, "velocity": 90}, {"time": 189120, "pitch": 62, "duration": 102, "velocity": 98}, {"time": 189360, "pitch": 62, "duration": 933, "velocity": 100}, {"time": 191280, "pitch": 59, "duration": 401, "velocity": 100}, {"time": 191760, "pitch": 62, "duration": 198, "velocity": 100}, {"time": 192000, "pitch": 64, "duration": 242, "velocity": 95}, {"time": 192240, "pitch": 62, "duration": 113, "velocity": 76}, {"time": 192480, "pitch": 66, "duration": 596, "velocity": 100}, {"time": 193200, "pitch": 66, "duration": 341, "velocity": 95}, {"time": 194160, "pitch": 62, "duration": 209, "velocity": 111}, {"time": 194400, "pitch": 64, "duration": 407, "velocity": 98}, {"time": 194880, "pitch": 69, "duration": 134, "velocity": 95}, {"time": 195120, "pitch": 69, "duration": 431, "velocity": 90}, {"time": 195600, "pitch": 71, "duration": 202, "velocity": 87}, {"time": 195840, "pitch": 69, "duration": 250, "velocity": 90}, {"time": 196080, "pitch": 71, "duration": 412, "velocity": 85}, {"time": 196560, "pitch": 73, "duration": 140, "velocity": 85}, {"time": 196800, "pitch": 74, "duration": 1932, "velocity": 104}, {"time": 200640, "pitch": 67, "duration": 262, "velocity": 108}, {"time": 200880, "pitch": 66, "duration": 228, "velocity": 81}, {"time": 201120, "pitch": 64, "duration": 437, "velocity": 98}, {"time": 201600, "pitch": 62, "duration": 500, "velocity": 68}, {"time": 202080, "pitch": 61, "duration": 1376, "velocity": 111}, {"time": 203520, "pitch": 61, "duration": 199, "velocity": 86}, {"time": 203760, "pitch": 64, "duration": 438, "velocity": 108}, {"time": 204240, "pitch": 62, "duration": 3717, "velocity": 85}, {"time": 208320, "pitch": 67, "duration": 262, "velocity": 108}, {"time": 208560, "pitch": 66, "duration": 228, "velocity": 81}, {"time": 208800, "pitch": 64, "duration": 437, "velocity": 98}, {"time": 209280, "pitch": 62, "duration": 500, "velocity": 68}, {"time": 209760, "pitch": 61, "duration": 1376, "velocity": 111}, {"time": 211200, "pitch": 61, "duration": 199, "velocity": 86}, {"time": 211440, "pitch": 64, "duration": 438, "velocity": 108}, {"time": 211920, "pitch": 62, "duration": 1797, "velocity": 85}], "annotations": [{"time": 148, "annotation": {"number": 7, "value": 100}, "group": "control_change"}, {"time": 172, "annotation": {"number": 11, "value": 120}, "group": "control_change"}, {"time": 197, "annotation": {"number": 10, "value": 64}, "group": "control_change"}, {"time": 222, "annotation": {"number": 91, "value": 107}, "group": "control_change"}, {"time": 246, "annotation": {"number": 93, "value": 14}, "group": "control_change"}, {"time": 271, "annotation": {"number": 94, "value": 5}, "group": "control_change"}, {"time": 295, "annotation": {"number": 101, "value": 0}, "group": "control_change"}, {"time": 320, "annotation": {"number": 100, "value": 0}, "group": "control_change"}, {"time": 345, "annotation": {"number": 6, "value": 12}, "group": "control_change"}, {"time": 369, "annotation": {"number": 101, "value": 127}, "group": "control_change"}, {"time": 394, "annotation": {"number": 100, "value": 127}, "group": "control_change"}]}, {"program": 0, "is_drum": false, "name": "STRINGS(HIGH)", "annotations": [{"time": 123, "annotation": {"number": 0, "value": 0}, "group": "control_change"}, {"time": 123, "annotation": {"number": 32, "value": 2}, "group": "control_change"}]}, {"program": 49, "is_drum": false, "name": "STRINGS(HIGH)", "notes": [{"time": 480, "pitch": 57, "duration": 1928, "velocity": 90}, {"time": 480, "pitch": 66, "duration": 1183, "velocity": 90}, {"time": 1680, "pitch": 67, "duration": 301, "velocity": 90}, {"time": 1920, "pitch": 69, "duration": 214, "velocity": 90}, {"time": 2160, "pitch": 74, "duration": 278, "velocity": 90}, {"time": 2400, "pitch": 60, "duration": 1957, "velocity": 90}, {"time": 2400, "pitch": 72, "duration": 1233, "velocity": 90}, {"time": 3600, "pitch": 71, "duration": 271, "velocity": 90}, {"time": 3840, "pitch": 69, "duration": 249, "velocity": 90}, {"time": 4080, "pitch": 67, "duration": 253, "velocity": 90}, {"time": 4320, "pitch": 57, "duration": 1904, "velocity": 90}, {"time": 4320, "pitch": 69, "duration": 789, "velocity": 90}, {"time": 5040, "pitch": 67, "duration": 222, "velocity": 90}, {"time": 5280, "pitch": 66, "duration": 700, "velocity": 90}, {"time": 6000, "pitch": 67, "duration": 246, "velocity": 90}, {"time": 6240, "pitch": 60, "duration": 1930, "velocity": 90}, {"time": 6240, "pitch": 64, "duration": 1227, "velocity": 90}, {"time": 7440, "pitch": 66, "duration": 264, "velocity": 90}, {"time": 7680, "pitch": 67, "duration": 495, "velocity": 90}, {"time": 8160, "pitch": 57, "duration": 1941, "velocity": 90}, {"time": 8160, "pitch": 69, "duration": 1133, "velocity": 90}, {"time": 9240, "pitch": 66, "duration": 270, "velocity": 90}, {"time": 9480, "pitch": 69, "duration": 261, "velocity": 90}, {"time": 9840, "pitch": 74, "duration": 307, "velocity": 90}, {"time": 10080, "pitch": 60, "duration": 2025, "velocity": 90}, {"time": 10080, "pitch": 76, "duration": 1226, "velocity": 90}, {"time": 11280, "pitch": 78, "duration": 256, "velocity": 90}, {"time": 11520, "pitch": 76, "duration": 524, "velocity": 90}, {"time": 12000, "pitch": 62, "duration": 1173, "velocity": 90}, {"time": 12000, "pitch": 74, "duration": 1160, "velocity": 90}, {"time": 13200, "pitch": 64, "duration": 252, "velocity": 90}, {"time": 13200, "pitch": 76, "duration": 277, "velocity": 90}, {"time": 13440, "pitch": 66, "duration": 564, "velocity": 90}, {"time": 13440, "pitch": 74, "duration": 578, "velocity": 90}, {"time": 13920, "pitch": 64, "duration": 1887, "velocity": 90}, {"time": 13920, "pitch": 72, "duration": 1132, "velocity": 90}, {"time": 15120, "pitch": 71, "duration": 270, "velocity": 90}, {"time": 15360, "pitch": 69, "duration": 255, "velocity": 90}, {"time": 15600, "pitch": 67, "duration": 262, "velocity": 90}, {"time": 15840, "pitch": 59, "duration": 747, "velocity": 90}, {"time": 15840, "pitch": 67, "duration": 22, "velocity": 90}, {"time": 16560, "pitch": 61, "duration": 240, "velocity": 90}, {"time": 16800, "pitch": 62, "duration": 759, "velocity": 90}, {"time": 17520, "pitch": 59, "duration": 240, "velocity": 90}, {"time": 17760, "pitch": 62, "duration": 1916, "velocity": 90}, {"time": 18480, "pitch": 69, "duration": 247, "velocity": 90}, {"time": 18720, "pitch": 71, "duration": 741, "velocity": 90}, {"time": 19440, "pitch": 73, "duration": 216, "velocity": 90}, {"time": 19680, "pitch": 57, "duration": 1871, "velocity": 90}, {"time": 19680, "pitch": 74, "duration": 1951, "velocity": 90}, {"time": 21600, "pitch": 57, "duration": 1700, "velocity": 90}, {"time": 21600, "pitch": 73, "duration": 1720, "velocity": 90}, {"time": 61680, "pitch": 67, "duration": 374, "velocity": 79}, {"time": 61680, "pitch": 79, "duration": 379, "velocity": 120}, {"time": 62160, "pitch": 67, "duration": 233, "velocity": 90}, {"time": 62160, "pitch": 79, "duration": 212, "velocity": 120}, {"time": 62400, "pitch": 66, "duration": 220, "velocity": 75}, {"time": 62400, "pitch": 78, "duration": 210, "velocity": 111}, {"time": 62640, "pitch": 67, "duration": 806, "velocity": 108}, {"time": 62640, "pitch": 79, "duration": 799, "velocity": 117}, {"time": 63360, "pitch": 69, "duration": 225, "velocity": 77}, {"time": 63360, "pitch": 81, "duration": 213, "velocity": 112}, {"time": 63600, "pitch": 71, "duration": 960, "velocity": 98}, {"time": 63600, "pitch": 83, "duration": 963, "velocity": 104}, {"time": 64560, "pitch": 73, "duration": 262, "velocity": 76}, {"time": 64560, "pitch": 85, "duration": 256, "velocity": 98}, {"time": 64800, "pitch": 74, "duration": 1023, "velocity": 77}, {"time": 64800, "pitch": 86, "duration": 1021, "velocity": 112}, {"time": 65760, "pitch": 76, "duration": 1640, "velocity": 104}, {"time": 65760, "pitch": 88, "duration": 1626, "velocity": 114}, {"time": 67440, "pitch": 81, "duration": 1918, "velocity": 98}, {"time": 67440, "pitch": 93, "duration": 1921, "velocity": 114}, {"time": 69600, "pitch": 66, "duration": 713, "velocity": 76}, {"time": 69600, "pitch": 78, "duration": 718, "velocity": 98}, {"time": 70320, "pitch": 67, "duration": 282, "velocity": 83}, {"time": 70320, "pitch": 79, "duration": 267, "velocity": 114}, {"time": 70560, "pitch": 69, "duration": 2188, "velocity": 75}, {"time": 70560, "pitch": 81, "duration": 2196, "velocity": 104}, {"time": 72720, "pitch": 71, "duration": 261, "velocity": 74}, {"time": 72720, "pitch": 83, "duration": 265, "velocity": 108}, {"time": 72960, "pitch": 73, "duration": 230, "velocity": 77}, {"time": 72960, "pitch": 85, "duration": 239, "velocity": 98}, {"time": 73200, "pitch": 76, "duration": 272, "velocity": 73}, {"time": 73200, "pitch": 88, "duration": 270, "velocity": 93}, {"time": 73440, "pitch": 74, "duration": 2107, "velocity": 85}, {"time": 73440, "pitch": 86, "duration": 2117, "velocity": 100}, {"time": 75600, "pitch": 71, "duration": 268, "velocity": 72}, {"time": 75600, "pitch": 83, "duration": 260, "velocity": 108}, {"time": 75840, "pitch": 74, "duration": 260, "velocity": 93}, {"time": 75840, "pitch": 86, "duration": 270, "velocity": 98}, {"time": 76080, "pitch": 76, "duration": 243, "velocity": 77}, {"time": 76080, "pitch": 88, "duration": 256, "velocity": 95}, {"time": 76320, "pitch": 78, "duration": 281, "velocity": 90}, {"time": 76320, "pitch": 90, "duration": 283, "velocity": 93}, {"time": 76560, "pitch": 79, "duration": 312, "velocity": 98}, {"time": 76560, "pitch": 91, "duration": 296, "velocity": 100}, {"time": 76800, "pitch": 78, "duration": 251, "velocity": 77}, {"time": 76800, "pitch": 90, "duration": 242, "velocity": 95}, {"time": 77040, "pitch": 76, "duration": 259, "velocity": 72}, {"time": 77040, "pitch": 88, "duration": 259, "velocity": 100}, {"time": 77280, "pitch": 78, "duration": 1940, "velocity": 100}, {"time": 77280, "pitch": 90, "duration": 1926, "velocity": 111}, {"time": 79200, "pitch": 76, "duration": 1951, "velocity": 85}, {"time": 79200, "pitch": 88, "duration": 1960, "velocity": 114}, {"time": 81120, "pitch": 74, "duration": 2171, "velocity": 85}, {"time": 81120, "pitch": 86, "duration": 2169, "velocity": 112}, {"time": 83280, "pitch": 71, "duration": 269, "velocity": 71}, {"time": 83280, "pitch": 83, "duration": 281, "velocity": 86}, {"time": 83520, "pitch": 74, "duration": 236, "velocity": 75}, {"time": 83520, "pitch": 86, "duration": 225, "velocity": 98}, {"time": 83760, "pitch": 71, "duration": 220, "velocity": 74}, {"time": 83760, "pitch": 83, "duration": 288, "velocity": 74}, {"time": 84000, "pitch": 74, "duration": 241, "velocity": 76}, {"time": 84000, "pitch": 86, "duration": 252, "velocity": 100}, {"time": 84240, "pitch": 76, "duration": 734, "velocity": 87}, {"time": 84240, "pitch": 88, "duration": 743, "velocity": 90}, {"time": 84960, "pitch": 78, "duration": 1675, "velocity": 79}, {"time": 84960, "pitch": 90, "duration": 1694, "velocity": 114}, {"time": 86640, "pitch": 79, "duration": 251, "velocity": 74}, {"time": 86640, "pitch": 91, "duration": 239, "velocity": 104}, {"time": 86880, "pitch": 81, "duration": 1479, "velocity": 93}, {"time": 86880, "pitch": 93, "duration": 1465, "velocity": 98}, {"time": 88320, "pitch": 73, "duration": 522, "velocity": 67}, {"time": 88320, "pitch": 85, "duration": 513, "velocity": 87}, {"time": 88800, "pitch": 74, "duration": 1709, "velocity": 85}, {"time": 88800, "pitch": 86, "duration": 1679, "velocity": 120}, {"time": 90480, "pitch": 71, "duration": 265, "velocity": 74}, {"time": 90480, "pitch": 83, "duration": 283, "velocity": 90}, {"time": 90720, "pitch": 74, "duration": 725, "velocity": 74}, {"time": 90720, "pitch": 86, "duration": 712, "velocity": 100}, {"time": 91440, "pitch": 71, "duration": 243, "velocity": 69}, {"time": 91440, "pitch": 83, "duration": 270, "velocity": 83}, {"time": 91680, "pitch": 74, "duration": 227, "velocity": 69}, {"time": 91680, "pitch": 86, "duration": 226, "velocity": 87}, {"time": 91920, "pitch": 76, "duration": 761, "velocity": 77}, {"time": 91920, "pitch": 88, "duration": 743, "velocity": 93}, {"time": 92640, "pitch": 78, "duration": 1655, "velocity": 86}, {"time": 92640, "pitch": 90, "duration": 1677, "velocity": 108}, {"time": 94320, "pitch": 79, "duration": 260, "velocity": 75}, {"time": 94320, "pitch": 91, "duration": 262, "velocity": 98}, {"time": 94560, "pitch": 81, "duration": 5592, "velocity": 71}, {"time": 94560, "pitch": 93, "duration": 5574, "velocity": 95}, {"time": 100320, "pitch": 71, "duration": 483, "velocity": 98}, {"time": 100320, "pitch": 83, "duration": 480, "velocity": 114}, {"time": 100800, "pitch": 74, "duration": 465, "velocity": 95}, {"time": 100800, "pitch": 86, "duration": 437, "velocity": 112}, {"time": 101280, "pitch": 79, "duration": 944, "velocity": 79}, {"time": 101280, "pitch": 91, "duration": 928, "velocity": 114}, {"time": 102240, "pitch": 81, "duration": 3535, "velocity": 95}, {"time": 102240, "pitch": 93, "duration": 3481, "velocity": 86}, {"time": 130800, "pitch": 67, "duration": 374, "velocity": 79}, {"time": 130800, "pitch": 79, "duration": 379, "velocity": 120}, {"time": 131280, "pitch": 67, "duration": 233, "velocity": 90}, {"time": 131280, "pitch": 79, "duration": 212, "velocity": 120}, {"time": 131520, "pitch": 66, "duration": 220, "velocity": 75}, {"time": 131520, "pitch": 78, "duration": 210, "velocity": 111}, {"time": 131760, "pitch": 67, "duration": 806, "velocity": 108}, {"time": 131760, "pitch": 79, "duration": 799, "velocity": 117}, {"time": 132480, "pitch": 69, "duration": 225, "velocity": 77}, {"time": 132480, "pitch": 81, "duration": 213, "velocity": 112}, {"time": 132720, "pitch": 71, "duration": 960, "velocity": 98}, {"time": 132720, "pitch": 83, "duration": 963, "velocity": 104}, {"time": 133680, "pitch": 73, "duration": 262, "velocity": 76}, {"time": 133680, "pitch": 85, "duration": 256, "velocity": 98}, {"time": 133920, "pitch": 74, "duration": 1023, "velocity": 77}, {"time": 133920, "pitch": 86, "duration": 1021, "velocity": 112}, {"time": 134880, "pitch": 76, "duration": 1640, "velocity": 104}, {"time": 134880, "pitch": 88, "duration": 1626, "velocity": 114}, {"time": 136560, "pitch": 81, "duration": 1918, "velocity": 98}, {"time": 136560, "pitch": 93, "duration": 1921, "velocity": 114}, {"time": 138720, "pitch": 66, "duration": 713, "velocity": 76}, {"time": 138720, "pitch": 78, "duration": 718, "velocity": 98}, {"time": 139440, "pitch": 67, "duration": 282, "velocity": 83}, {"time": 139440, "pitch": 79, "duration": 267, "velocity": 114}, {"time": 139680, "pitch": 69, "duration": 2188, "velocity": 75}, {"time": 139680, "pitch": 81, "duration": 2196, "velocity": 104}, {"time": 141840, "pitch": 71, "duration": 261, "velocity": 74}, {"time": 141840, "pitch": 83, "duration": 265, "velocity": 108}, {"time": 142080, "pitch": 73, "duration": 230, "velocity": 77}, {"time": 142080, "pitch": 85, "duration": 239, "velocity": 98}, {"time": 142320, "pitch": 76, "duration": 272, "velocity": 73}, {"time": 142320, "pitch": 88, "duration": 270, "velocity": 93}, {"time": 142560, "pitch": 74, "duration": 2107, "velocity": 85}, {"time": 142560, "pitch": 86, "duration": 2117, "velocity": 100}, {"time": 144720, "pitch": 71, "duration": 268, "velocity": 72}, {"time": 144720, "pitch": 83, "duration": 260, "velocity": 108}, {"time": 144960, "pitch": 74, "duration": 260, "velocity": 93}, {"time": 144960, "pitch": 86, "duration": 270, "velocity": 98}, {"time": 145200, "pitch": 76, "duration": 243, "velocity": 77}, {"time": 145200, "pitch": 88, "duration": 256, "velocity": 95}, {"time": 145440, "pitch": 78, "duration": 281, "velocity": 90}, {"time": 145440, "pitch": 90, "duration": 283, "velocity": 93}, {"time": 145680, "pitch": 79, "duration": 312, "velocity": 98}, {"time": 145680, "pitch": 91, "duration": 296, "velocity": 100}, {"time": 145920, "pitch": 78, "duration": 251, "velocity": 77}, {"time": 145920, "pitch": 90, "duration": 242, "velocity": 95}, {"time": 146160, "pitch": 76, "duration": 259, "velocity": 72}, {"time": 146160, "pitch": 88, "duration": 259, "velocity": 100}, {"time": 146400, "pitch": 78, "duration": 1940, "velocity": 100}, {"time": 146400, "pitch": 90, "duration": 1926, "velocity": 111}, {"time": 148320, "pitch": 76, "duration": 1951, "velocity": 85}, {"time": 148320, "pitch": 88, "duration": 1960, "velocity": 114}, {"time": 150240, "pitch": 74, "duration": 2171, "velocity": 85}, {"time": 150240, "pitch": 86, "duration": 2169, "velocity": 112}, {"time": 152400, "pitch": 71, "duration": 269, "velocity": 71}, {"time": 152400, "pitch": 83, "duration": 281, "velocity": 86}, {"time": 152640, "pitch": 74, "duration": 236, "velocity": 75}, {"time": 152640, "pitch": 86, "duration": 225, "velocity": 98}, {"time": 152880, "pitch": 71, "duration": 220, "velocity": 74}, {"time": 152880, "pitch": 83, "duration": 288, "velocity": 74}, {"time": 153120, "pitch": 74, "duration": 241, "velocity": 76}, {"time": 153120, "pitch": 86, "duration": 252, "velocity": 100}, {"time": 153360, "pitch": 76, "duration": 734, "velocity": 87}, {"time": 153360, "pitch": 88, "duration": 743, "velocity": 90}, {"time": 154080, "pitch": 78, "duration": 1675, "velocity": 79}, {"time": 154080, "pitch": 90, "duration": 1694, "velocity": 114}, {"time": 155760, "pitch": 79, "duration": 251, "velocity": 74}, {"time": 155760, "pitch": 91, "duration": 239, "velocity": 104}, {"time": 156000, "pitch": 81, "duration": 1479, "velocity": 93}, {"time": 156000, "pitch": 93, "duration": 1465, "velocity": 98}, {"time": 157440, "pitch": 73, "duration": 522, "velocity": 67}, {"time": 157440, "pitch": 85, "duration": 513, "velocity": 87}, {"time": 157920, "pitch": 74, "duration": 1709, "velocity": 85}, {"time": 157920, "pitch": 86, "duration": 1679, "velocity": 120}, {"time": 159600, "pitch": 71, "duration": 265, "velocity": 74}, {"time": 159600, "pitch": 83, "duration": 283, "velocity": 90}, {"time": 159840, "pitch": 74, "duration": 725, "velocity": 74}, {"time": 159840, "pitch": 86, "duration": 712, "velocity": 100}, {"time": 160560, "pitch": 71, "duration": 243, "velocity": 69}, {"time": 160560, "pitch": 83, "duration": 270, "velocity": 83}, {"time": 160800, "pitch": 74, "duration": 227, "velocity": 69}, {"time": 160800, "pitch": 86, "duration": 226, "velocity": 87}, {"time": 161040, "pitch": 76, "duration": 761, "velocity": 77}, {"time": 161040, "pitch": 88, "duration": 743, "velocity": 93}, {"time": 161760, "pitch": 78, "duration": 1655, "velocity": 86}, {"time": 161760, "pitch": 90, "duration": 1677, "velocity": 108}, {"time": 163440, "pitch": 79, "duration": 260, "velocity": 75}, {"time": 163440, "pitch": 91, "duration": 262, "velocity": 98}, {"time": 163680, "pitch": 81, "duration": 4800, "velocity": 71}, {"time": 163680, "pitch": 93, "duration": 4800, "velocity": 95}, {"time": 168480, "pitch": 79, "duration": 120, "velocity": 110}, {"time": 168480, "pitch": 91, "duration": 120, "velocity": 110}, {"time": 168600, "pitch": 78, "duration": 120, "velocity": 110}, {"time": 168600, "pitch": 90, "duration": 120, "velocity": 110}, {"time": 168720, "pitch": 76, "duration": 120, "velocity": 110}, {"time": 168720, "pitch": 88, "duration": 120, "velocity": 110}, {"time": 168840, "pitch": 74, "duration": 120, "velocity": 110}, {"time": 168840, "pitch": 86, "duration": 120, "velocity": 110}, {"time": 168960, "pitch": 73, "duration": 120, "velocity": 110}, {"time": 168960, "pitch": 85, "duration": 120, "velocity": 110}, {"time": 169080, "pitch": 71, "duration": 120, "velocity": 110}, {"time": 169080, "pitch": 83, "duration": 120, "velocity": 110}, {"time": 169200, "pitch": 69, "duration": 120, "velocity": 110}, {"time": 169200, "pitch": 81, "duration": 120, "velocity": 110}, {"time": 169320, "pitch": 67, "duration": 120, "velocity": 110}, {"time": 169320, "pitch": 79, "duration": 120, "velocity": 110}, {"time": 169440, "pitch": 66, "duration": 713, "velocity": 76}, {"time": 169440, "pitch": 78, "duration": 718, "velocity": 98}, {"time": 170160, "pitch": 67, "duration": 282, "velocity": 83}, {"time": 170160, "pitch": 79, "duration": 267, "velocity": 114}, {"time": 170400, "pitch": 69, "duration": 2188, "velocity": 75}, {"time": 170400, "pitch": 81, "duration": 2196, "velocity": 104}, {"time": 172560, "pitch": 71, "duration": 261, "velocity": 74}, {"time": 172560, "pitch": 83, "duration": 265, "velocity": 108}, {"time": 172800, "pitch": 73, "duration": 230, "velocity": 77}, {"time": 172800, "pitch": 85, "duration": 239, "velocity": 98}, {"time": 173040, "pitch": 76, "duration": 272, "velocity": 73}, {"time": 173040, "pitch": 88, "duration": 270, "velocity": 93}, {"time": 173280, "pitch": 74, "duration": 2107, "velocity": 85}, {"time": 173280, "pitch": 86, "duration": 2117, "velocity": 100}, {"time": 175440, "pitch": 71, "duration": 268, "velocity": 72}, {"time": 175440, "pitch": 83, "duration": 260, "velocity": 108}, {"time": 175680, "pitch": 74, "duration": 260, "velocity": 93}, {"time": 175680, "pitch": 86, "duration": 270, "velocity": 98}, {"time": 175920, "pitch": 76, "duration": 243, "velocity": 77}, {"time": 175920, "pitch": 88, "duration": 256, "velocity": 95}, {"time": 176160, "pitch": 78, "duration": 281, "velocity": 90}, {"time": 176160, "pitch": 90, "duration": 283, "velocity": 93}, {"time": 176400, "pitch": 79, "duration": 312, "velocity": 98}, {"time": 176400, "pitch": 91, "duration": 296, "velocity": 100}, {"time": 176640, "pitch": 78, "duration": 251, "velocity": 77}, {"time": 176640, "pitch": 90, "duration": 242, "velocity": 95}, {"time": 176880, "pitch": 76, "duration": 259, "velocity": 72}, {"time": 176880, "pitch": 88, "duration": 259, "velocity": 100}, {"time": 177120, "pitch": 78, "duration": 1940, "velocity": 100}, {"time": 177120, "pitch": 90, "duration": 1926, "velocity": 111}, {"time": 179040, "pitch": 76, "duration": 1951, "velocity": 85}, {"time": 179040, "pitch": 88, "duration": 1960, "velocity": 114}, {"time": 180960, "pitch": 74, "duration": 2171, "velocity": 85}, {"time": 180960, "pitch": 86, "duration": 2169, "velocity": 112}, {"time": 183120, "pitch": 71, "duration": 269, "velocity": 71}, {"time": 183120, "pitch": 83, "duration": 281, "velocity": 86}, {"time": 183360, "pitch": 74, "duration": 236, "velocity": 75}, {"time": 183360, "pitch": 86, "duration": 225, "velocity": 98}, {"time": 183600, "pitch": 71, "duration": 220, "velocity": 74}, {"time": 183600, "pitch": 83, "duration": 288, "velocity": 74}, {"time": 183840, "pitch": 74, "duration": 241, "velocity": 76}, {"time": 183840, "pitch": 86, "duration": 252, "velocity": 100}, {"time": 184080, "pitch": 76, "duration": 734, "velocity": 87}, {"time": 184080, "pitch": 88, "duration": 743, "velocity": 90}, {"time": 184800, "pitch": 78, "duration": 1675, "velocity": 79}, {"time": 184800, "pitch": 90, "duration": 1694, "velocity": 114}, {"time": 186480, "pitch": 79, "duration": 251, "velocity": 74}, {"time": 186480, "pitch": 91, "duration": 239, "velocity": 104}, {"time": 186720, "pitch": 81, "duration": 1479, "velocity": 93}, {"time": 186720, "pitch": 93, "duration": 1465, "velocity": 98}, {"time": 188160, "pitch": 73, "duration": 522, "velocity": 67}, {"time": 188160, "pitch": 85, "duration": 513, "velocity": 87}, {"time": 188640, "pitch": 74, "duration": 1709, "velocity": 85}, {"time": 188640, "pitch": 86, "duration": 1679, "velocity": 120}, {"time": 190320, "pitch": 71, "duration": 265, "velocity": 74}, {"time": 190320, "pitch": 83, "duration": 283, "velocity": 90}, {"time": 190560, "pitch": 74, "duration": 725, "velocity": 74}, {"time": 190560, "pitch": 86, "duration": 712, "velocity": 100}, {"time": 191280, "pitch": 71, "duration": 243, "velocity": 69}, {"time": 191280, "pitch": 83, "duration": 270, "velocity": 83}, {"time": 191520, "pitch": 74, "duration": 227, "velocity": 69}, {"time": 191520, "pitch": 86, "duration": 226, "velocity": 87}, {"time": 191760, "pitch": 76, "duration": 761, "velocity": 77}, {"time": 191760, "pitch": 88, "duration": 743, "velocity": 93}, {"time": 192480, "pitch": 78, "duration": 1655, "velocity": 86}, {"time": 192480, "pitch": 90, "duration": 1677, "velocity": 108}, {"time": 194160, "pitch": 79, "duration": 260, "velocity": 75}, {"time": 194160, "pitch": 91, "duration": 262, "velocity": 98}, {"time": 194400, "pitch": 81, "duration": 5592, "velocity": 71}, {"time": 194400, "pitch": 93, "duration": 5574, "velocity": 95}, {"time": 200160, "pitch": 71, "duration": 483, "velocity": 98}, {"time": 200160, "pitch": 83, "duration": 480, "velocity": 114}, {"time": 200640, "pitch": 74, "duration": 465, "velocity": 95}, {"time": 200640, "pitch": 86, "duration": 437, "velocity": 112}, {"time": 201120, "pitch": 79, "duration": 944, "velocity": 79}, {"time": 201120, "pitch": 91, "duration": 928, "velocity": 114}, {"time": 202080, "pitch": 81, "duration": 1670, "velocity": 95}, {"time": 202080, "pitch": 93, "duration": 1670, "velocity": 86}, {"time": 204000, "pitch": 83, "duration": 960, "velocity": 93}, {"time": 204960, "pitch": 86, "duration": 420, "velocity": 98}, {"time": 205440, "pitch": 81, "duration": 450, "velocity": 93}, {"time": 205920, "pitch": 80, "duration": 960, "velocity": 95}, {"time": 206880, "pitch": 76, "duration": 880, "velocity": 90}, {"time": 206880, "pitch": 88, "duration": 880, "velocity": 94}, {"time": 208320, "pitch": 74, "duration": 465, "velocity": 95}, {"time": 208320, "pitch": 86, "duration": 437, "velocity": 112}, {"time": 208800, "pitch": 79, "duration": 944, "velocity": 79}, {"time": 208800, "pitch": 91, "duration": 928, "velocity": 114}, {"time": 209760, "pitch": 81, "duration": 3535, "velocity": 95}, {"time": 209760, "pitch": 93, "duration": 3481, "velocity": 86}, {"time": 213600, "pitch": 74, "duration": 259, "velocity": 98}, {"time": 213600, "pitch": 86, "duration": 244, "velocity": 112}, {"time": 213840, "pitch": 71, "duration": 263, "velocity": 98}, {"time": 213840, "pitch": 83, "duration": 286, "velocity": 81}, {"time": 214080, "pitch": 74, "duration": 255, "velocity": 95}, {"time": 214080, "pitch": 86, "duration": 219, "velocity": 104}, {"time": 214320, "pitch": 79, "duration": 492, "velocity": 98}, {"time": 214320, "pitch": 91, "duration": 473, "velocity": 111}, {"time": 214800, "pitch": 78, "duration": 273, "velocity": 79}, {"time": 214800, "pitch": 90, "duration": 252, "velocity": 98}, {"time": 215040, "pitch": 79, "duration": 211, "velocity": 100}, {"time": 215040, "pitch": 91, "duration": 208, "velocity": 108}, {"time": 215280, "pitch": 81, "duration": 1937, "velocity": 108}, {"time": 215280, "pitch": 93, "duration": 1951, "velocity": 98}], "annotations": [{"time": 148, "annotation": {"number": 7, "value": 75}, "group": "control_change"}, {"time": 172, "annotation": {"number": 11, "value": 100}, "group": "control_change"}, {"time": 197, "annotation": {"number": 10, "value": 109}, "group": "control_change"}, {"time": 222, "annotation": {"number": 91, "value": 120}, "group": "control_change"}, {"time": 246, "annotation": {"number": 93, "value": 56}, "group": "control_change"}, {"time": 271, "annotation": {"number": 94, "value": 0}, "group": "control_change"}, {"time": 295, "annotation": {"number": 101, "value": 0}, "group": "control_change"}, {"time": 320, "annotation": {"number": 100, "value": 0}, "group": "control_change"}, {"time": 345, "annotation": {"number": 6, "value": 12}, "group": "control_change"}, {"time": 418, "annotation": {"number": 101, "value": 127}, "group": "control_change"}, {"time": 431, "annotation": {"number": 100, "value": 127}, "group": "control_change"}]}, {"program": 0, "is_drum": false, "name": "STRINGS(LOW)", "annotations": [{"time": 135, "annotation": {"number": 0, "value": 0}, "group": "control_change"}, {"time": 135, "annotation": {"number": 32, "value": 2}, "group": "control_change"}]}, {"program": 48, "is_drum": false, "name": "STRINGS(LOW)", "notes": [{"time": 15840, "pitch": 52, "duration": 1830, "velocity": 74}, {"time": 16920, "pitch": 59, "duration": 327, "velocity": 74}, {"time": 17160, "pitch": 62, "duration": 271, "velocity": 77}, {"time": 17520, "pitch": 67, "duration": 233, "velocity": 77}, {"time": 17760, "pitch": 52, "duration": 1999, "velocity": 63}, {"time": 17760, "pitch": 67, "duration": 1195, "velocity": 85}, {"time": 18960, "pitch": 66, "duration": 276, "velocity": 75}, {"time": 19200, "pitch": 67, "duration": 497, "velocity": 77}, {"time": 19680, "pitch": 45, "duration": 1852, "velocity": 48}, {"time": 19680, "pitch": 71, "duration": 2004, "velocity": 66}, {"time": 21600, "pitch": 45, "duration": 1570, "velocity": 59}, {"time": 21600, "pitch": 69, "duration": 1595, "velocity": 79}, {"time": 54240, "pitch": 61, "duration": 473, "velocity": 122}, {"time": 54720, "pitch": 59, "duration": 268, "velocity": 100}, {"time": 54960, "pitch": 61, "duration": 416, "velocity": 121}, {"time": 55440, "pitch": 64, "duration": 449, "velocity": 122}, {"time": 55920, "pitch": 62, "duration": 486, "velocity": 120}, {"time": 56400, "pitch": 61, "duration": 243, "velocity": 120}, {"time": 56640, "pitch": 59, "duration": 1380, "velocity": 111}, {"time": 58080, "pitch": 61, "duration": 492, "velocity": 122}, {"time": 58560, "pitch": 59, "duration": 258, "velocity": 87}, {"time": 58800, "pitch": 61, "duration": 424, "velocity": 111}, {"time": 59280, "pitch": 64, "duration": 460, "velocity": 121}, {"time": 59760, "pitch": 62, "duration": 474, "velocity": 111}, {"time": 60240, "pitch": 61, "duration": 257, "velocity": 114}, {"time": 60480, "pitch": 59, "duration": 1276, "velocity": 104}, {"time": 61680, "pitch": 52, "duration": 380, "velocity": 87}, {"time": 61680, "pitch": 59, "duration": 76, "velocity": 120}, {"time": 62160, "pitch": 52, "duration": 124, "velocity": 79}, {"time": 62160, "pitch": 59, "duration": 130, "velocity": 100}, {"time": 62400, "pitch": 54, "duration": 383, "velocity": 86}, {"time": 62400, "pitch": 62, "duration": 361, "velocity": 120}, {"time": 62880, "pitch": 55, "duration": 349, "velocity": 95}, {"time": 62880, "pitch": 59, "duration": 382, "velocity": 117}, {"time": 63600, "pitch": 52, "duration": 360, "velocity": 95}, {"time": 63600, "pitch": 59, "duration": 387, "velocity": 117}, {"time": 64080, "pitch": 52, "duration": 117, "velocity": 73}, {"time": 64080, "pitch": 59, "duration": 124, "velocity": 100}, {"time": 64320, "pitch": 54, "duration": 340, "velocity": 86}, {"time": 64320, "pitch": 62, "duration": 321, "velocity": 121}, {"time": 64800, "pitch": 55, "duration": 401, "velocity": 98}, {"time": 64800, "pitch": 59, "duration": 419, "velocity": 120}, {"time": 65520, "pitch": 57, "duration": 1790, "velocity": 111}, {"time": 65520, "pitch": 62, "duration": 1806, "velocity": 121}, {"time": 67440, "pitch": 57, "duration": 1096, "velocity": 104}, {"time": 67440, "pitch": 64, "duration": 1105, "velocity": 122}, {"time": 68640, "pitch": 57, "duration": 120, "velocity": 117}, {"time": 68760, "pitch": 59, "duration": 120, "velocity": 93}, {"time": 68880, "pitch": 61, "duration": 120, "velocity": 104}, {"time": 69000, "pitch": 62, "duration": 120, "velocity": 105}, {"time": 69120, "pitch": 64, "duration": 120, "velocity": 105}, {"time": 69240, "pitch": 66, "duration": 120, "velocity": 105}, {"time": 69360, "pitch": 67, "duration": 120, "velocity": 104}, {"time": 69480, "pitch": 69, "duration": 120, "velocity": 100}, {"time": 69600, "pitch": 50, "duration": 1972, "velocity": 65}, {"time": 69600, "pitch": 62, "duration": 1944, "velocity": 100}, {"time": 71520, "pitch": 54, "duration": 1989, "velocity": 68}, {"time": 71520, "pitch": 61, "duration": 1975, "velocity": 98}, {"time": 73560, "pitch": 55, "duration": 1881, "velocity": 70}, {"time": 73560, "pitch": 59, "duration": 1851, "velocity": 100}, {"time": 75360, "pitch": 57, "duration": 1911, "velocity": 81}, {"time": 75360, "pitch": 67, "duration": 653, "velocity": 108}, {"time": 76080, "pitch": 66, "duration": 280, "velocity": 81}, {"time": 76320, "pitch": 67, "duration": 214, "velocity": 95}, {"time": 76560, "pitch": 64, "duration": 715, "velocity": 100}, {"time": 77280, "pitch": 54, "duration": 1940, "velocity": 70}, {"time": 77280, "pitch": 62, "duration": 1950, "velocity": 108}, {"time": 79200, "pitch": 57, "duration": 1861, "velocity": 93}, {"time": 79200, "pitch": 61, "duration": 1907, "velocity": 98}, {"time": 81120, "pitch": 55, "duration": 1926, "velocity": 73}, {"time": 81120, "pitch": 59, "duration": 747, "velocity": 108}, {"time": 81840, "pitch": 62, "duration": 472, "velocity": 95}, {"time": 82320, "pitch": 67, "duration": 980, "velocity": 95}, {"time": 83040, "pitch": 57, "duration": 1975, "velocity": 87}, {"time": 83280, "pitch": 66, "duration": 249, "velocity": 83}, {"time": 83520, "pitch": 67, "duration": 240, "velocity": 98}, {"time": 83760, "pitch": 64, "duration": 1195, "velocity": 95}, {"time": 84960, "pitch": 50, "duration": 1903, "velocity": 65}, {"time": 84960, "pitch": 62, "duration": 1886, "velocity": 87}, {"time": 86880, "pitch": 54, "duration": 1954, "velocity": 74}, {"time": 86880, "pitch": 61, "duration": 1942, "velocity": 98}, {"time": 88800, "pitch": 55, "duration": 518, "velocity": 74}, {"time": 88800, "pitch": 59, "duration": 1909, "velocity": 104}, {"time": 89280, "pitch": 50, "duration": 440, "velocity": 86}, {"time": 89760, "pitch": 47, "duration": 494, "velocity": 74}, {"time": 90240, "pitch": 55, "duration": 488, "velocity": 64}, {"time": 90720, "pitch": 57, "duration": 1039, "velocity": 87}, {"time": 90720, "pitch": 61, "duration": 1929, "velocity": 90}, {"time": 91680, "pitch": 52, "duration": 526, "velocity": 81}, {"time": 92160, "pitch": 45, "duration": 443, "velocity": 77}, {"time": 92640, "pitch": 50, "duration": 1930, "velocity": 77}, {"time": 92640, "pitch": 62, "duration": 140, "velocity": 95}, {"time": 92760, "pitch": 57, "duration": 152, "velocity": 83}, {"time": 92880, "pitch": 62, "duration": 131, "velocity": 87}, {"time": 93000, "pitch": 64, "duration": 116, "velocity": 104}, {"time": 93120, "pitch": 66, "duration": 1678, "velocity": 100}, {"time": 94560, "pitch": 54, "duration": 1952, "velocity": 90}, {"time": 94800, "pitch": 67, "duration": 283, "velocity": 95}, {"time": 95040, "pitch": 69, "duration": 723, "velocity": 95}, {"time": 95760, "pitch": 67, "duration": 281, "velocity": 95}, {"time": 96000, "pitch": 66, "duration": 234, "velocity": 111}, {"time": 96240, "pitch": 64, "duration": 223, "velocity": 111}, {"time": 96480, "pitch": 55, "duration": 1902, "velocity": 95}, {"time": 96480, "pitch": 62, "duration": 1891, "velocity": 108}, {"time": 98400, "pitch": 57, "duration": 1800, "velocity": 85}, {"time": 98400, "pitch": 61, "duration": 754, "velocity": 100}, {"time": 99120, "pitch": 59, "duration": 250, "velocity": 93}, {"time": 99360, "pitch": 61, "duration": 180, "velocity": 108}, {"time": 99600, "pitch": 64, "duration": 582, "velocity": 112}, {"time": 100320, "pitch": 52, "duration": 1961, "velocity": 60}, {"time": 100320, "pitch": 67, "duration": 456, "velocity": 63}, {"time": 100320, "pitch": 71, "duration": 437, "velocity": 69}, {"time": 100800, "pitch": 69, "duration": 232, "velocity": 68}, {"time": 100800, "pitch": 73, "duration": 267, "velocity": 69}, {"time": 101040, "pitch": 71, "duration": 1183, "velocity": 79}, {"time": 101040, "pitch": 74, "duration": 1231, "velocity": 64}, {"time": 102240, "pitch": 57, "duration": 1757, "velocity": 65}, {"time": 102240, "pitch": 69, "duration": 1733, "velocity": 71}, {"time": 102240, "pitch": 73, "duration": 1754, "velocity": 74}, {"time": 103920, "pitch": 74, "duration": 1871, "velocity": 87}, {"time": 104040, "pitch": 62, "duration": 1872, "velocity": 74}, {"time": 104040, "pitch": 66, "duration": 1861, "velocity": 74}, {"time": 123360, "pitch": 61, "duration": 473, "velocity": 122}, {"time": 123840, "pitch": 59, "duration": 268, "velocity": 100}, {"time": 124080, "pitch": 61, "duration": 416, "velocity": 121}, {"time": 124560, "pitch": 64, "duration": 449, "velocity": 122}, {"time": 125040, "pitch": 62, "duration": 486, "velocity": 120}, {"time": 125520, "pitch": 61, "duration": 243, "velocity": 120}, {"time": 125760, "pitch": 59, "duration": 1380, "velocity": 111}, {"time": 127200, "pitch": 61, "duration": 492, "velocity": 122}, {"time": 127680, "pitch": 59, "duration": 258, "velocity": 87}, {"time": 127920, "pitch": 61, "duration": 424, "velocity": 111}, {"time": 128400, "pitch": 64, "duration": 460, "velocity": 121}, {"time": 128880, "pitch": 62, "duration": 474, "velocity": 111}, {"time": 129360, "pitch": 61, "duration": 257, "velocity": 114}, {"time": 129600, "pitch": 59, "duration": 1276, "velocity": 104}, {"time": 130800, "pitch": 52, "duration": 380, "velocity": 87}, {"time": 130800, "pitch": 59, "duration": 76, "velocity": 120}, {"time": 131280, "pitch": 52, "duration": 124, "velocity": 79}, {"time": 131280, "pitch": 59, "duration": 130, "velocity": 100}, {"time": 131520, "pitch": 54, "duration": 383, "velocity": 86}, {"time": 131520, "pitch": 62, "duration": 361, "velocity": 120}, {"time": 132000, "pitch": 55, "duration": 349, "velocity": 95}, {"time": 132000, "pitch": 59, "duration": 382, "velocity": 117}, {"time": 132720, "pitch": 52, "duration": 360, "velocity": 95}, {"time": 132720, "pitch": 59, "duration": 387, "velocity": 117}, {"time": 133200, "pitch": 52, "duration": 117, "velocity": 73}, {"time": 133200, "pitch": 59, "duration": 124, "velocity": 100}, {"time": 133440, "pitch": 54, "duration": 340, "velocity": 86}, {"time": 133440, "pitch": 62, "duration": 321, "velocity": 121}, {"time": 133920, "pitch": 55, "duration": 401, "velocity": 98}, {"time": 133920, "pitch": 59, "duration": 419, "velocity": 120}, {"time": 134640, "pitch": 57, "duration": 1790, "velocity": 111}, {"time": 134640, "pitch": 62, "duration": 1806, "velocity": 121}, {"time": 136560, "pitch": 57, "duration": 1096, "velocity": 104}, {"time": 136560, "pitch": 64, "duration": 1105, "velocity": 122}, {"time": 137760, "pitch": 57, "duration": 120, "velocity": 117}, {"time": 137880, "pitch": 59, "duration": 120, "velocity": 93}, {"time": 138000, "pitch": 61, "duration": 120, "velocity": 104}, {"time": 138120, "pitch": 62, "duration": 120, "velocity": 105}, {"time": 138240, "pitch": 64, "duration": 120, "velocity": 105}, {"time": 138360, "pitch": 66, "duration": 120, "velocity": 105}, {"time": 138480, "pitch": 67, "duration": 120, "velocity": 104}, {"time": 138600, "pitch": 69, "duration": 120, "velocity": 100}, {"time": 138720, "pitch": 50, "duration": 1972, "velocity": 65}, {"time": 138720, "pitch": 62, "duration": 1944, "velocity": 100}, {"time": 140640, "pitch": 54, "duration": 1989, "velocity": 68}, {"time": 140640, "pitch": 61, "duration": 1975, "velocity": 98}, {"time": 142680, "pitch": 55, "duration": 1881, "velocity": 70}, {"time": 142680, "pitch": 59, "duration": 1851, "velocity": 100}, {"time": 144480, "pitch": 57, "duration": 1911, "velocity": 81}, {"time": 144480, "pitch": 67, "duration": 653, "velocity": 108}, {"time": 145200, "pitch": 66, "duration": 280, "velocity": 81}, {"time": 145440, "pitch": 67, "duration": 214, "velocity": 95}, {"time": 145680, "pitch": 64, "duration": 715, "velocity": 100}, {"time": 146400, "pitch": 54, "duration": 1940, "velocity": 70}, {"time": 146400, "pitch": 62, "duration": 1950, "velocity": 108}, {"time": 148320, "pitch": 57, "duration": 1861, "velocity": 93}, {"time": 148320, "pitch": 61, "duration": 1907, "velocity": 98}, {"time": 150240, "pitch": 55, "duration": 1926, "velocity": 73}, {"time": 150240, "pitch": 59, "duration": 747, "velocity": 108}, {"time": 150960, "pitch": 62, "duration": 472, "velocity": 95}, {"time": 151440, "pitch": 67, "duration": 980, "velocity": 95}, {"time": 152160, "pitch": 57, "duration": 1975, "velocity": 87}, {"time": 152400, "pitch": 66, "duration": 249, "velocity": 83}, {"time": 152640, "pitch": 67, "duration": 240, "velocity": 98}, {"time": 152880, "pitch": 64, "duration": 1195, "velocity": 95}, {"time": 154080, "pitch": 50, "duration": 1903, "velocity": 65}, {"time": 154080, "pitch": 62, "duration": 1886, "velocity": 87}, {"time": 156000, "pitch": 54, "duration": 1954, "velocity": 74}, {"time": 156000, "pitch": 61, "duration": 1942, "velocity": 98}, {"time": 157920, "pitch": 55, "duration": 518, "velocity": 74}, {"time": 157920, "pitch": 59, "duration": 1909, "velocity": 104}, {"time": 158400, "pitch": 50, "duration": 440, "velocity": 86}, {"time": 158880, "pitch": 47, "duration": 494, "velocity": 74}, {"time": 159360, "pitch": 55, "duration": 488, "velocity": 64}, {"time": 159840, "pitch": 57, "duration": 1039, "velocity": 87}, {"time": 159840, "pitch": 61, "duration": 1929, "velocity": 90}, {"time": 160800, "pitch": 52, "duration": 526, "velocity": 81}, {"time": 161280, "pitch": 45, "duration": 443, "velocity": 77}, {"time": 161760, "pitch": 50, "duration": 1930, "velocity": 77}, {"time": 161760, "pitch": 62, "duration": 140, "velocity": 95}, {"time": 161880, "pitch": 57, "duration": 152, "velocity": 83}, {"time": 162000, "pitch": 62, "duration": 131, "velocity": 87}, {"time": 162120, "pitch": 64, "duration": 116, "velocity": 104}, {"time": 162240, "pitch": 66, "duration": 1678, "velocity": 100}, {"time": 163680, "pitch": 54, "duration": 1952, "velocity": 90}, {"time": 163920, "pitch": 67, "duration": 283, "velocity": 95}, {"time": 164160, "pitch": 69, "duration": 723, "velocity": 95}, {"time": 164880, "pitch": 67, "duration": 281, "velocity": 95}, {"time": 165120, "pitch": 66, "duration": 234, "velocity": 111}, {"time": 165360, "pitch": 64, "duration": 223, "velocity": 111}, {"time": 165600, "pitch": 55, "duration": 1902, "velocity": 95}, {"time": 165600, "pitch": 62, "duration": 1891, "velocity": 108}, {"time": 167520, "pitch": 57, "duration": 1800, "velocity": 85}, {"time": 167520, "pitch": 61, "duration": 754, "velocity": 100}, {"time": 168240, "pitch": 59, "duration": 250, "velocity": 93}, {"time": 168480, "pitch": 61, "duration": 180, "velocity": 108}, {"time": 168720, "pitch": 64, "duration": 582, "velocity": 112}, {"time": 169440, "pitch": 50, "duration": 1972, "velocity": 65}, {"time": 169440, "pitch": 52, "duration": 41, "velocity": 60}, {"time": 169440, "pitch": 62, "duration": 1944, "velocity": 100}, {"time": 169440, "pitch": 74, "duration": 31, "velocity": 64}, {"time": 171360, "pitch": 54, "duration": 1989, "velocity": 68}, {"time": 171360, "pitch": 61, "duration": 1975, "velocity": 98}, {"time": 173400, "pitch": 55, "duration": 1881, "velocity": 70}, {"time": 173400, "pitch": 59, "duration": 1851, "velocity": 100}, {"time": 175200, "pitch": 57, "duration": 1911, "velocity": 81}, {"time": 175200, "pitch": 67, "duration": 653, "velocity": 108}, {"time": 175920, "pitch": 66, "duration": 280, "velocity": 81}, {"time": 176160, "pitch": 67, "duration": 214, "velocity": 95}, {"time": 176400, "pitch": 64, "duration": 715, "velocity": 100}, {"time": 177120, "pitch": 54, "duration": 1940, "velocity": 70}, {"time": 177120, "pitch": 62, "duration": 1950, "velocity": 108}, {"time": 179040, "pitch": 57, "duration": 1861, "velocity": 93}, {"time": 179040, "pitch": 61, "duration": 1907, "velocity": 98}, {"time": 180960, "pitch": 55, "duration": 1926, "velocity": 73}, {"time": 180960, "pitch": 59, "duration": 747, "velocity": 108}, {"time": 181680, "pitch": 62, "duration": 472, "velocity": 95}, {"time": 182160, "pitch": 67, "duration": 980, "velocity": 95}, {"time": 182880, "pitch": 57, "duration": 1975, "velocity": 87}, {"time": 183120, "pitch": 66, "duration": 249, "velocity": 83}, {"time": 183360, "pitch": 67, "duration": 240, "velocity": 98}, {"time": 183600, "pitch": 64, "duration": 1195, "velocity": 95}, {"time": 184800, "pitch": 50, "duration": 1903, "velocity": 65}, {"time": 184800, "pitch": 62, "duration": 1886, "velocity": 87}, {"time": 186720, "pitch": 54, "duration": 1954, "velocity": 74}, {"time": 186720, "pitch": 61, "duration": 1942, "velocity": 98}, {"time": 188640, "pitch": 55, "duration": 518, "velocity": 74}, {"time": 188640, "pitch": 59, "duration": 1909, "velocity": 104}, {"time": 189120, "pitch": 50, "duration": 440, "velocity": 86}, {"time": 189600, "pitch": 47, "duration": 494, "velocity": 74}, {"time": 190080, "pitch": 55, "duration": 488, "velocity": 64}, {"time": 190560, "pitch": 57, "duration": 1039, "velocity": 87}, {"time": 190560, "pitch": 61, "duration": 1929, "velocity": 90}, {"time": 191520, "pitch": 52, "duration": 526, "velocity": 81}, {"time": 192000, "pitch": 45, "duration": 443, "velocity": 77}, {"time": 192480, "pitch": 50, "duration": 1930, "velocity": 77}, {"time": 192480, "pitch": 62, "duration": 140, "velocity": 95}, {"time": 192600, "pitch": 57, "duration": 152, "velocity": 83}, {"time": 192720, "pitch": 62, "duration": 131, "velocity": 87}, {"time": 192840, "pitch": 64, "duration": 116, "velocity": 104}, {"time": 192960, "pitch": 66, "duration": 1678, "velocity": 100}, {"time": 194400, "pitch": 54, "duration": 1952, "velocity": 90}, {"time": 194640, "pitch": 67, "duration": 283, "velocity": 95}, {"time": 194880, "pitch": 69, "duration": 723, "velocity": 95}, {"time": 195600, "pitch": 67, "duration": 281, "velocity": 95}, {"time": 195840, "pitch": 66, "duration": 234, "velocity": 111}, {"time": 196080, "pitch": 64, "duration": 223, "velocity": 111}, {"time": 196320, "pitch": 55, "duration": 1902, "velocity": 95}, {"time": 196320, "pitch": 62, "duration": 1891, "velocity": 108}, {"time": 198240, "pitch": 57, "duration": 1800, "velocity": 85}, {"time": 198240, "pitch": 61, "duration": 754, "velocity": 100}, {"time": 198960, "pitch": 59, "duration": 250, "velocity": 93}, {"time": 199200, "pitch": 61, "duration": 180, "velocity": 108}, {"time": 199440, "pitch": 64, "duration": 582, "velocity": 112}, {"time": 200160, "pitch": 52, "duration": 1961, "velocity": 60}, {"time": 200160, "pitch": 67, "duration": 456, "velocity": 63}, {"time": 200160, "pitch": 71, "duration": 437, "velocity": 69}, {"time": 200640, "pitch": 69, "duration": 232, "velocity": 68}, {"time": 200640, "pitch": 73, "duration": 267, "velocity": 69}, {"time": 200880, "pitch": 71, "duration": 1183, "velocity": 79}, {"time": 200880, "pitch": 74, "duration": 1231, "velocity": 64}, {"time": 202080, "pitch": 57, "duration": 1757, "velocity": 65}, {"time": 202080, "pitch": 69, "duration": 1733, "velocity": 71}, {"time": 202080, "pitch": 73, "duration": 1754, "velocity": 74}, {"time": 203760, "pitch": 62, "duration": 2150, "velocity": 74}, {"time": 203760, "pitch": 66, "duration": 2150, "velocity": 74}, {"time": 203760, "pitch": 74, "duration": 2150, "velocity": 87}, {"time": 205920, "pitch": 62, "duration": 1872, "velocity": 74}, {"time": 205920, "pitch": 68, "duration": 1861, "velocity": 74}, {"time": 205920, "pitch": 74, "duration": 1871, "velocity": 87}, {"time": 207840, "pitch": 52, "duration": 1961, "velocity": 60}, {"time": 207840, "pitch": 67, "duration": 456, "velocity": 63}, {"time": 207840, "pitch": 71, "duration": 437, "velocity": 69}, {"time": 208320, "pitch": 69, "duration": 232, "velocity": 68}, {"time": 208320, "pitch": 73, "duration": 267, "velocity": 69}, {"time": 208560, "pitch": 71, "duration": 1183, "velocity": 79}, {"time": 208560, "pitch": 74, "duration": 1231, "velocity": 64}, {"time": 209760, "pitch": 57, "duration": 1757, "velocity": 65}, {"time": 209760, "pitch": 69, "duration": 1733, "velocity": 71}, {"time": 209760, "pitch": 73, "duration": 1754, "velocity": 74}, {"time": 211440, "pitch": 74, "duration": 1871, "velocity": 87}, {"time": 211560, "pitch": 62, "duration": 1872, "velocity": 74}, {"time": 211560, "pitch": 66, "duration": 1861, "velocity": 74}, {"time": 213600, "pitch": 55, "duration": 193, "velocity": 93}, {"time": 213600, "pitch": 67, "duration": 193, "velocity": 120}, {"time": 213840, "pitch": 55, "duration": 194, "velocity": 90}, {"time": 213840, "pitch": 67, "duration": 153, "velocity": 114}, {"time": 214320, "pitch": 54, "duration": 365, "velocity": 112}, {"time": 214320, "pitch": 66, "duration": 384, "velocity": 121}, {"time": 214800, "pitch": 52, "duration": 391, "velocity": 117}, {"time": 214800, "pitch": 64, "duration": 388, "velocity": 122}, {"time": 215280, "pitch": 50, "duration": 1819, "velocity": 112}, {"time": 215280, "pitch": 66, "duration": 1828, "velocity": 120}], "annotations": [{"time": 160, "annotation": {"number": 7, "value": 101}, "group": "control_change"}, {"time": 185, "annotation": {"number": 11, "value": 100}, "group": "control_change"}, {"time": 209, "annotation": {"number": 10, "value": 7}, "group": "control_change"}, {"time": 234, "annotation": {"number": 91, "value": 120}, "group": "control_change"}, {"time": 258, "annotation": {"number": 93, "value": 56}, "group": "control_change"}, {"time": 283, "annotation": {"number": 94, "value": 0}, "group": "control_change"}, {"time": 308, "annotation": {"number": 101, "value": 0}, "group": "control_change"}, {"time": 332, "annotation": {"number": 100, "value": 0}, "group": "control_change"}, {"time": 357, "annotation": {"number": 6, "value": 12}, "group": "control_change"}, {"time": 382, "annotation": {"number": 101, "value": 127}, "group": "control_change"}, {"time": 406, "annotation": {"number": 100, "value": 127}, "group": "control_change"}]}, {"program": 0, "is_drum": false, "name": "DistGt", "annotations": [{"time": 123, "annotation": {"number": 0, "value": 0}, "group": "control_change"}, {"time": 123, "annotation": {"number": 32, "value": 2}, "group": "control_change"}]}, {"program": 30, "is_drum": false, "name": "DistGt", "notes": [{"time": 23520, "pitch": 50, "duration": 179, "velocity": 93}, {"time": 23760, "pitch": 57, "duration": 110, "velocity": 93}, {"time": 24000, "pitch": 62, "duration": 99, "velocity": 111}, {"time": 24240, "pitch": 57, "duration": 103, "velocity": 87}, {"time": 24480, "pitch": 64, "duration": 122, "velocity": 117}, {"time": 24720, "pitch": 57, "duration": 105, "velocity": 87}, {"time": 24960, "pitch": 62, "duration": 109, "velocity": 104}, {"time": 25200, "pitch": 57, "duration": 155, "velocity": 85}, {"time": 25440, "pitch": 49, "duration": 244, "velocity": 87}, {"time": 25680, "pitch": 57, "duration": 113, "velocity": 95}, {"time": 25920, "pitch": 61, "duration": 119, "velocity": 93}, {"time": 26160, "pitch": 57, "duration": 97, "velocity": 71}, {"time": 26400, "pitch": 64, "duration": 115, "velocity": 104}, {"time": 26640, "pitch": 57, "duration": 105, "velocity": 67}, {"time": 26880, "pitch": 61, "duration": 94, "velocity": 87}, {"time": 27120, "pitch": 57, "duration": 140, "velocity": 87}, {"time": 27360, "pitch": 47, "duration": 207, "velocity": 79}, {"time": 27600, "pitch": 54, "duration": 109, "velocity": 79}, {"time": 27840, "pitch": 59, "duration": 109, "velocity": 98}, {"time": 28080, "pitch": 54, "duration": 96, "velocity": 67}, {"time": 28320, "pitch": 62, "duration": 130, "velocity": 112}, {"time": 28560, "pitch": 54, "duration": 93, "velocity": 68}, {"time": 28800, "pitch": 59, "duration": 96, "velocity": 86}, {"time": 29040, "pitch": 54, "duration": 126, "velocity": 81}, {"time": 29280, "pitch": 45, "duration": 202, "velocity": 66}, {"time": 29520, "pitch": 54, "duration": 116, "velocity": 87}, {"time": 29760, "pitch": 57, "duration": 108, "velocity": 104}, {"time": 30000, "pitch": 54, "duration": 114, "velocity": 75}, {"time": 30240, "pitch": 62, "duration": 121, "velocity": 93}, {"time": 30480, "pitch": 54, "duration": 107, "velocity": 74}, {"time": 30720, "pitch": 57, "duration": 93, "velocity": 95}, {"time": 30960, "pitch": 54, "duration": 114, "velocity": 81}, {"time": 31200, "pitch": 55, "duration": 145, "velocity": 86}, {"time": 31440, "pitch": 59, "duration": 107, "velocity": 72}, {"time": 31680, "pitch": 62, "duration": 109, "velocity": 93}, {"time": 31920, "pitch": 59, "duration": 106, "velocity": 76}, {"time": 32160, "pitch": 67, "duration": 127, "velocity": 108}, {"time": 32400, "pitch": 59, "duration": 110, "velocity": 74}, {"time": 32640, "pitch": 62, "duration": 111, "velocity": 95}, {"time": 32880, "pitch": 59, "duration": 125, "velocity": 76}, {"time": 33120, "pitch": 54, "duration": 167, "velocity": 87}, {"time": 33360, "pitch": 57, "duration": 127, "velocity": 86}, {"time": 33600, "pitch": 62, "duration": 108, "velocity": 100}, {"time": 33840, "pitch": 57, "duration": 104, "velocity": 68}, {"time": 34080, "pitch": 66, "duration": 113, "velocity": 108}, {"time": 34320, "pitch": 57, "duration": 111, "velocity": 76}, {"time": 34560, "pitch": 62, "duration": 105, "velocity": 93}, {"time": 34800, "pitch": 57, "duration": 130, "velocity": 87}, {"time": 35040, "pitch": 52, "duration": 135, "velocity": 98}, {"time": 35280, "pitch": 55, "duration": 113, "velocity": 75}, {"time": 35520, "pitch": 62, "duration": 126, "velocity": 117}, {"time": 35760, "pitch": 55, "duration": 111, "velocity": 83}, {"time": 36000, "pitch": 59, "duration": 123, "velocity": 111}, {"time": 36240, "pitch": 55, "duration": 103, "velocity": 79}, {"time": 36480, "pitch": 62, "duration": 127, "velocity": 108}, {"time": 36720, "pitch": 55, "duration": 130, "velocity": 87}, {"time": 36960, "pitch": 45, "duration": 140, "velocity": 83}, {"time": 37200, "pitch": 47, "duration": 123, "velocity": 83}, {"time": 37440, "pitch": 49, "duration": 124, "velocity": 79}, {"time": 37680, "pitch": 52, "duration": 162, "velocity": 112}, {"time": 37920, "pitch": 61, "duration": 116, "velocity": 100}, {"time": 38160, "pitch": 57, "duration": 127, "velocity": 104}, {"time": 38400, "pitch": 64, "duration": 133, "velocity": 108}, {"time": 38640, "pitch": 57, "duration": 173, "velocity": 90}, {"time": 38880, "pitch": 50, "duration": 182, "velocity": 86}, {"time": 39120, "pitch": 57, "duration": 130, "velocity": 85}, {"time": 39360, "pitch": 62, "duration": 160, "velocity": 108}, {"time": 39600, "pitch": 57, "duration": 121, "velocity": 93}, {"time": 39840, "pitch": 64, "duration": 141, "velocity": 112}, {"time": 40080, "pitch": 57, "duration": 121, "velocity": 86}, {"time": 40320, "pitch": 62, "duration": 143, "velocity": 98}, {"time": 40560, "pitch": 57, "duration": 190, "velocity": 86}, {"time": 40800, "pitch": 49, "duration": 222, "velocity": 81}, {"time": 41040, "pitch": 57, "duration": 134, "velocity": 98}, {"time": 41280, "pitch": 61, "duration": 146, "velocity": 93}, {"time": 41520, "pitch": 57, "duration": 125, "velocity": 75}, {"time": 41760, "pitch": 64, "duration": 148, "velocity": 117}, {"time": 42000, "pitch": 57, "duration": 134, "velocity": 90}, {"time": 42240, "pitch": 61, "duration": 149, "velocity": 95}, {"time": 42480, "pitch": 57, "duration": 162, "velocity": 86}, {"time": 42720, "pitch": 47, "duration": 233, "velocity": 81}, {"time": 42960, "pitch": 54, "duration": 127, "velocity": 72}, {"time": 43200, "pitch": 59, "duration": 149, "velocity": 114}, {"time": 43440, "pitch": 54, "duration": 150, "velocity": 67}, {"time": 43680, "pitch": 62, "duration": 171, "velocity": 93}, {"time": 43920, "pitch": 54, "duration": 151, "velocity": 74}, {"time": 44160, "pitch": 59, "duration": 165, "velocity": 104}, {"time": 44400, "pitch": 54, "duration": 181, "velocity": 76}, {"time": 44640, "pitch": 45, "duration": 276, "velocity": 79}, {"time": 44880, "pitch": 54, "duration": 142, "velocity": 85}, {"time": 45120, "pitch": 57, "duration": 141, "velocity": 108}, {"time": 45360, "pitch": 54, "duration": 117, "velocity": 74}, {"time": 45600, "pitch": 62, "duration": 140, "velocity": 90}, {"time": 45840, "pitch": 54, "duration": 125, "velocity": 85}, {"time": 46080, "pitch": 57, "duration": 142, "velocity": 98}, {"time": 46320, "pitch": 54, "duration": 180, "velocity": 83}, {"time": 46560, "pitch": 55, "duration": 145, "velocity": 108}, {"time": 46800, "pitch": 59, "duration": 111, "velocity": 65}, {"time": 47040, "pitch": 62, "duration": 178, "velocity": 117}, {"time": 47280, "pitch": 59, "duration": 143, "velocity": 72}, {"time": 47520, "pitch": 55, "duration": 146, "velocity": 93}, {"time": 47760, "pitch": 59, "duration": 127, "velocity": 85}, {"time": 48000, "pitch": 62, "duration": 167, "velocity": 108}, {"time": 48240, "pitch": 59, "duration": 118, "velocity": 81}, {"time": 48480, "pitch": 54, "duration": 151, "velocity": 86}, {"time": 48720, "pitch": 57, "duration": 113, "velocity": 74}, {"time": 48960, "pitch": 62, "duration": 144, "velocity": 100}, {"time": 49200, "pitch": 57, "duration": 126, "velocity": 86}, {"time": 49440, "pitch": 64, "duration": 108, "velocity": 108}, {"time": 49680, "pitch": 54, "duration": 109, "velocity": 76}, {"time": 49920, "pitch": 62, "duration": 168, "velocity": 93}, {"time": 50160, "pitch": 54, "duration": 146, "velocity": 79}, {"time": 50400, "pitch": 52, "duration": 194, "velocity": 108}, {"time": 50640, "pitch": 55, "duration": 155, "velocity": 83}, {"time": 50880, "pitch": 59, "duration": 136, "velocity": 100}, {"time": 51120, "pitch": 55, "duration": 125, "velocity": 68}, {"time": 51360, "pitch": 62, "duration": 168, "velocity": 112}, {"time": 51600, "pitch": 55, "duration": 137, "velocity": 73}, {"time": 51840, "pitch": 59, "duration": 149, "velocity": 85}, {"time": 52080, "pitch": 55, "duration": 151, "velocity": 79}, {"time": 52320, "pitch": 45, "duration": 212, "velocity": 65}, {"time": 52560, "pitch": 52, "duration": 129, "velocity": 74}, {"time": 52800, "pitch": 57, "duration": 153, "velocity": 108}, {"time": 53040, "pitch": 52, "duration": 119, "velocity": 72}, {"time": 53280, "pitch": 61, "duration": 157, "velocity": 112}, {"time": 53520, "pitch": 52, "duration": 122, "velocity": 66}, {"time": 53760, "pitch": 57, "duration": 129, "velocity": 112}, {"time": 54000, "pitch": 52, "duration": 108, "velocity": 70}, {"time": 61680, "pitch": 52, "duration": 350, "velocity": 98}, {"time": 61680, "pitch": 55, "duration": 382, "velocity": 95}, {"time": 61680, "pitch": 62, "duration": 370, "velocity": 90}, {"time": 61680, "pitch": 64, "duration": 38, "velocity": 111}, {"time": 62160, "pitch": 52, "duration": 98, "velocity": 87}, {"time": 62160, "pitch": 55, "duration": 103, "velocity": 95}, {"time": 62160, "pitch": 62, "duration": 106, "velocity": 104}, {"time": 62400, "pitch": 54, "duration": 410, "velocity": 95}, {"time": 62400, "pitch": 57, "duration": 353, "velocity": 122}, {"time": 62400, "pitch": 62, "duration": 345, "velocity": 112}, {"time": 62880, "pitch": 55, "duration": 465, "velocity": 108}, {"time": 62880, "pitch": 59, "duration": 469, "velocity": 120}, {"time": 62880, "pitch": 62, "duration": 454, "velocity": 114}, {"time": 63600, "pitch": 52, "duration": 373, "velocity": 104}, {"time": 63600, "pitch": 55, "duration": 393, "velocity": 95}, {"time": 63600, "pitch": 62, "duration": 382, "velocity": 108}, {"time": 64080, "pitch": 52, "duration": 82, "velocity": 86}, {"time": 64080, "pitch": 55, "duration": 79, "velocity": 90}, {"time": 64080, "pitch": 62, "duration": 92, "velocity": 100}, {"time": 64320, "pitch": 54, "duration": 437, "velocity": 87}, {"time": 64320, "pitch": 57, "duration": 368, "velocity": 122}, {"time": 64320, "pitch": 62, "duration": 354, "velocity": 117}, {"time": 64800, "pitch": 55, "duration": 478, "velocity": 112}, {"time": 64800, "pitch": 59, "duration": 475, "velocity": 121}, {"time": 64800, "pitch": 62, "duration": 479, "velocity": 114}, {"time": 65520, "pitch": 52, "duration": 386, "velocity": 104}, {"time": 65520, "pitch": 55, "duration": 398, "velocity": 112}, {"time": 65520, "pitch": 62, "duration": 400, "velocity": 114}, {"time": 66000, "pitch": 52, "duration": 63, "velocity": 79}, {"time": 66000, "pitch": 55, "duration": 74, "velocity": 95}, {"time": 66000, "pitch": 62, "duration": 69, "velocity": 108}, {"time": 66240, "pitch": 52, "duration": 369, "velocity": 108}, {"time": 66240, "pitch": 55, "duration": 381, "velocity": 117}, {"time": 66240, "pitch": 62, "duration": 374, "velocity": 117}, {"time": 66720, "pitch": 52, "duration": 96, "velocity": 95}, {"time": 66720, "pitch": 55, "duration": 74, "velocity": 98}, {"time": 66720, "pitch": 62, "duration": 77, "velocity": 108}, {"time": 66960, "pitch": 52, "duration": 424, "velocity": 98}, {"time": 66960, "pitch": 55, "duration": 406, "velocity": 112}, {"time": 66960, "pitch": 62, "duration": 394, "velocity": 114}, {"time": 67440, "pitch": 45, "duration": 310, "velocity": 95}, {"time": 67440, "pitch": 57, "duration": 328, "velocity": 122}, {"time": 67440, "pitch": 61, "duration": 307, "velocity": 122}, {"time": 67920, "pitch": 45, "duration": 80, "velocity": 95}, {"time": 67920, "pitch": 57, "duration": 90, "velocity": 120}, {"time": 68160, "pitch": 45, "duration": 374, "velocity": 104}, {"time": 68160, "pitch": 57, "duration": 364, "velocity": 121}, {"time": 68640, "pitch": 45, "duration": 97, "velocity": 63}, {"time": 68640, "pitch": 52, "duration": 103, "velocity": 74}, {"time": 68640, "pitch": 57, "duration": 96, "velocity": 120}, {"time": 68880, "pitch": 45, "duration": 63, "velocity": 93}, {"time": 68880, "pitch": 52, "duration": 81, "velocity": 81}, {"time": 68880, "pitch": 57, "duration": 83, "velocity": 117}, {"time": 69120, "pitch": 45, "duration": 60, "velocity": 98}, {"time": 69120, "pitch": 52, "duration": 86, "velocity": 93}, {"time": 69120, "pitch": 57, "duration": 104, "velocity": 122}, {"time": 69360, "pitch": 45, "duration": 179, "velocity": 104}, {"time": 69360, "pitch": 52, "duration": 147, "velocity": 98}, {"time": 69360, "pitch": 57, "duration": 167, "velocity": 122}, {"time": 69600, "pitch": 50, "duration": 76, "velocity": 100}, {"time": 69840, "pitch": 50, "duration": 75, "velocity": 90}, {"time": 70080, "pitch": 50, "duration": 326, "velocity": 112}, {"time": 70080, "pitch": 57, "duration": 390, "velocity": 120}, {"time": 70080, "pitch": 62, "duration": 377, "velocity": 111}, {"time": 70560, "pitch": 50, "duration": 74, "velocity": 111}, {"time": 70800, "pitch": 50, "duration": 74, "velocity": 104}, {"time": 71040, "pitch": 50, "duration": 349, "velocity": 104}, {"time": 71040, "pitch": 57, "duration": 453, "velocity": 121}, {"time": 71040, "pitch": 62, "duration": 438, "velocity": 108}, {"time": 71520, "pitch": 42, "duration": 94, "velocity": 86}, {"time": 71760, "pitch": 42, "duration": 97, "velocity": 77}, {"time": 72000, "pitch": 42, "duration": 342, "velocity": 111}, {"time": 72000, "pitch": 54, "duration": 408, "velocity": 108}, {"time": 72000, "pitch": 61, "duration": 410, "velocity": 117}, {"time": 72480, "pitch": 42, "duration": 76, "velocity": 111}, {"time": 72720, "pitch": 42, "duration": 72, "velocity": 98}, {"time": 72960, "pitch": 42, "duration": 387, "velocity": 112}, {"time": 72960, "pitch": 54, "duration": 397, "velocity": 100}, {"time": 72960, "pitch": 61, "duration": 396, "velocity": 117}, {"time": 73440, "pitch": 43, "duration": 97, "velocity": 93}, {"time": 73680, "pitch": 43, "duration": 95, "velocity": 95}, {"time": 73920, "pitch": 43, "duration": 332, "velocity": 111}, {"time": 73920, "pitch": 50, "duration": 360, "velocity": 104}, {"time": 73920, "pitch": 59, "duration": 358, "velocity": 112}, {"time": 74400, "pitch": 43, "duration": 90, "velocity": 93}, {"time": 74640, "pitch": 43, "duration": 85, "velocity": 90}, {"time": 74880, "pitch": 43, "duration": 377, "velocity": 111}, {"time": 74880, "pitch": 50, "duration": 386, "velocity": 108}, {"time": 74880, "pitch": 59, "duration": 409, "velocity": 114}, {"time": 75360, "pitch": 45, "duration": 101, "velocity": 114}, {"time": 75600, "pitch": 45, "duration": 89, "velocity": 93}, {"time": 75840, "pitch": 45, "duration": 325, "velocity": 120}, {"time": 75840, "pitch": 52, "duration": 423, "velocity": 112}, {"time": 75840, "pitch": 57, "duration": 421, "velocity": 112}, {"time": 76320, "pitch": 45, "duration": 78, "velocity": 98}, {"time": 76560, "pitch": 45, "duration": 85, "velocity": 104}, {"time": 76800, "pitch": 45, "duration": 348, "velocity": 117}, {"time": 76800, "pitch": 52, "duration": 298, "velocity": 114}, {"time": 76800, "pitch": 57, "duration": 323, "velocity": 117}, {"time": 77280, "pitch": 50, "duration": 76, "velocity": 100}, {"time": 77520, "pitch": 50, "duration": 75, "velocity": 90}, {"time": 77760, "pitch": 50, "duration": 326, "velocity": 112}, {"time": 77760, "pitch": 57, "duration": 390, "velocity": 120}, {"time": 77760, "pitch": 62, "duration": 377, "velocity": 111}, {"time": 78240, "pitch": 50, "duration": 74, "velocity": 111}, {"time": 78480, "pitch": 50, "duration": 74, "velocity": 104}, {"time": 78720, "pitch": 50, "duration": 349, "velocity": 104}, {"time": 78720, "pitch": 57, "duration": 453, "velocity": 121}, {"time": 78720, "pitch": 62, "duration": 438, "velocity": 108}, {"time": 79200, "pitch": 42, "duration": 94, "velocity": 86}, {"time": 79440, "pitch": 42, "duration": 97, "velocity": 77}, {"time": 79680, "pitch": 42, "duration": 342, "velocity": 111}, {"time": 79680, "pitch": 54, "duration": 408, "velocity": 108}, {"time": 79680, "pitch": 61, "duration": 410, "velocity": 117}, {"time": 80160, "pitch": 42, "duration": 76, "velocity": 111}, {"time": 80400, "pitch": 42, "duration": 72, "velocity": 98}, {"time": 80640, "pitch": 42, "duration": 387, "velocity": 112}, {"time": 80640, "pitch": 54, "duration": 397, "velocity": 100}, {"time": 80640, "pitch": 61, "duration": 396, "velocity": 117}, {"time": 81120, "pitch": 43, "duration": 97, "velocity": 93}, {"time": 81360, "pitch": 43, "duration": 95, "velocity": 95}, {"time": 81600, "pitch": 43, "duration": 332, "velocity": 111}, {"time": 81600, "pitch": 50, "duration": 360, "velocity": 104}, {"time": 81600, "pitch": 59, "duration": 358, "velocity": 112}, {"time": 82080, "pitch": 43, "duration": 90, "velocity": 93}, {"time": 82320, "pitch": 43, "duration": 85, "velocity": 90}, {"time": 82560, "pitch": 43, "duration": 377, "velocity": 111}, {"time": 82560, "pitch": 50, "duration": 386, "velocity": 108}, {"time": 82560, "pitch": 59, "duration": 409, "velocity": 114}, {"time": 83040, "pitch": 45, "duration": 101, "velocity": 114}, {"time": 83280, "pitch": 45, "duration": 89, "velocity": 93}, {"time": 83520, "pitch": 45, "duration": 325, "velocity": 120}, {"time": 83520, "pitch": 52, "duration": 423, "velocity": 112}, {"time": 83520, "pitch": 57, "duration": 421, "velocity": 112}, {"time": 84000, "pitch": 45, "duration": 78, "velocity": 98}, {"time": 84240, "pitch": 45, "duration": 85, "velocity": 104}, {"time": 84480, "pitch": 45, "duration": 348, "velocity": 117}, {"time": 84480, "pitch": 52, "duration": 298, "velocity": 114}, {"time": 84480, "pitch": 57, "duration": 323, "velocity": 117}, {"time": 84960, "pitch": 50, "duration": 76, "velocity": 100}, {"time": 85200, "pitch": 50, "duration": 75, "velocity": 90}, {"time": 85440, "pitch": 50, "duration": 326, "velocity": 112}, {"time": 85440, "pitch": 57, "duration": 390, "velocity": 120}, {"time": 85440, "pitch": 62, "duration": 377, "velocity": 111}, {"time": 85920, "pitch": 50, "duration": 74, "velocity": 111}, {"time": 86160, "pitch": 50, "duration": 74, "velocity": 104}, {"time": 86400, "pitch": 50, "duration": 349, "velocity": 104}, {"time": 86400, "pitch": 57, "duration": 453, "velocity": 121}, {"time": 86400, "pitch": 62, "duration": 438, "velocity": 108}, {"time": 86880, "pitch": 42, "duration": 94, "velocity": 86}, {"time": 87120, "pitch": 42, "duration": 97, "velocity": 77}, {"time": 87360, "pitch": 42, "duration": 342, "velocity": 111}, {"time": 87360, "pitch": 54, "duration": 408, "velocity": 108}, {"time": 87360, "pitch": 61, "duration": 410, "velocity": 117}, {"time": 87840, "pitch": 42, "duration": 76, "velocity": 111}, {"time": 88080, "pitch": 42, "duration": 72, "velocity": 98}, {"time": 88320, "pitch": 42, "duration": 387, "velocity": 112}, {"time": 88320, "pitch": 54, "duration": 397, "velocity": 100}, {"time": 88320, "pitch": 61, "duration": 396, "velocity": 117}, {"time": 88800, "pitch": 43, "duration": 97, "velocity": 93}, {"time": 89040, "pitch": 43, "duration": 95, "velocity": 95}, {"time": 89280, "pitch": 43, "duration": 332, "velocity": 111}, {"time": 89280, "pitch": 50, "duration": 360, "velocity": 104}, {"time": 89280, "pitch": 59, "duration": 358, "velocity": 112}, {"time": 89760, "pitch": 43, "duration": 90, "velocity": 93}, {"time": 90000, "pitch": 43, "duration": 85, "velocity": 90}, {"time": 90240, "pitch": 43, "duration": 377, "velocity": 111}, {"time": 90240, "pitch": 50, "duration": 386, "velocity": 108}, {"time": 90240, "pitch": 59, "duration": 409, "velocity": 114}, {"time": 90720, "pitch": 45, "duration": 101, "velocity": 114}, {"time": 90960, "pitch": 45, "duration": 89, "velocity": 93}, {"time": 91200, "pitch": 45, "duration": 325, "velocity": 120}, {"time": 91200, "pitch": 52, "duration": 423, "velocity": 112}, {"time": 91200, "pitch": 57, "duration": 421, "velocity": 112}, {"time": 91680, "pitch": 45, "duration": 78, "velocity": 98}, {"time": 91920, "pitch": 45, "duration": 85, "velocity": 104}, {"time": 92160, "pitch": 45, "duration": 348, "velocity": 117}, {"time": 92160, "pitch": 52, "duration": 298, "velocity": 114}, {"time": 92160, "pitch": 57, "duration": 323, "velocity": 117}, {"time": 92640, "pitch": 50, "duration": 76, "velocity": 100}, {"time": 92880, "pitch": 50, "duration": 75, "velocity": 90}, {"time": 93120, "pitch": 50, "duration": 326, "velocity": 112}, {"time": 93120, "pitch": 57, "duration": 390, "velocity": 120}, {"time": 93120, "pitch": 62, "duration": 377, "velocity": 111}, {"time": 93600, "pitch": 50, "duration": 74, "velocity": 111}, {"time": 93840, "pitch": 50, "duration": 74, "velocity": 104}, {"time": 94080, "pitch": 50, "duration": 349, "velocity": 104}, {"time": 94080, "pitch": 57, "duration": 453, "velocity": 121}, {"time": 94080, "pitch": 62, "duration": 438, "velocity": 108}, {"time": 94560, "pitch": 42, "duration": 94, "velocity": 86}, {"time": 94800, "pitch": 42, "duration": 97, "velocity": 77}, {"time": 95040, "pitch": 42, "duration": 342, "velocity": 111}, {"time": 95040, "pitch": 54, "duration": 408, "velocity": 108}, {"time": 95040, "pitch": 61, "duration": 410, "velocity": 117}, {"time": 95520, "pitch": 42, "duration": 76, "velocity": 111}, {"time": 95760, "pitch": 42, "duration": 72, "velocity": 98}, {"time": 96000, "pitch": 42, "duration": 387, "velocity": 112}, {"time": 96000, "pitch": 54, "duration": 397, "velocity": 100}, {"time": 96000, "pitch": 61, "duration": 396, "velocity": 117}, {"time": 96480, "pitch": 43, "duration": 97, "velocity": 93}, {"time": 96720, "pitch": 43, "duration": 95, "velocity": 95}, {"time": 96960, "pitch": 43, "duration": 332, "velocity": 111}, {"time": 96960, "pitch": 50, "duration": 360, "velocity": 104}, {"time": 96960, "pitch": 59, "duration": 358, "velocity": 112}, {"time": 97440, "pitch": 43, "duration": 90, "velocity": 93}, {"time": 97680, "pitch": 43, "duration": 85, "velocity": 90}, {"time": 97920, "pitch": 43, "duration": 377, "velocity": 111}, {"time": 97920, "pitch": 50, "duration": 386, "velocity": 108}, {"time": 97920, "pitch": 59, "duration": 409, "velocity": 114}, {"time": 98400, "pitch": 45, "duration": 101, "velocity": 114}, {"time": 98640, "pitch": 45, "duration": 89, "velocity": 93}, {"time": 98880, "pitch": 45, "duration": 325, "velocity": 120}, {"time": 98880, "pitch": 52, "duration": 423, "velocity": 112}, {"time": 98880, "pitch": 57, "duration": 421, "velocity": 112}, {"time": 99360, "pitch": 45, "duration": 78, "velocity": 98}, {"time": 99600, "pitch": 45, "duration": 85, "velocity": 104}, {"time": 99840, "pitch": 45, "duration": 348, "velocity": 117}, {"time": 99840, "pitch": 52, "duration": 298, "velocity": 114}, {"time": 99840, "pitch": 57, "duration": 323, "velocity": 117}, {"time": 100320, "pitch": 50, "duration": 1850, "velocity": 95}, {"time": 100320, "pitch": 55, "duration": 1869, "velocity": 120}, {"time": 100320, "pitch": 59, "duration": 1845, "velocity": 121}, {"time": 102240, "pitch": 52, "duration": 675, "velocity": 111}, {"time": 102240, "pitch": 57, "duration": 686, "velocity": 114}, {"time": 102240, "pitch": 59, "duration": 19, "velocity": 77}, {"time": 102240, "pitch": 61, "duration": 704, "velocity": 98}, {"time": 102960, "pitch": 52, "duration": 889, "velocity": 120}, {"time": 102960, "pitch": 57, "duration": 892, "velocity": 104}, {"time": 102960, "pitch": 61, "duration": 895, "velocity": 112}, {"time": 103920, "pitch": 50, "duration": 1406, "velocity": 112}, {"time": 103920, "pitch": 57, "duration": 472, "velocity": 112}, {"time": 103920, "pitch": 62, "duration": 468, "velocity": 114}, {"time": 104400, "pitch": 57, "duration": 113, "velocity": 71}, {"time": 104520, "pitch": 62, "duration": 103, "velocity": 86}, {"time": 104640, "pitch": 57, "duration": 144, "velocity": 87}, {"time": 104640, "pitch": 62, "duration": 142, "velocity": 108}, {"time": 104880, "pitch": 57, "duration": 151, "velocity": 70}, {"time": 104880, "pitch": 62, "duration": 141, "velocity": 83}, {"time": 105120, "pitch": 57, "duration": 165, "velocity": 68}, {"time": 105120, "pitch": 62, "duration": 150, "velocity": 81}, {"time": 105360, "pitch": 57, "duration": 156, "velocity": 67}, {"time": 105360, "pitch": 62, "duration": 157, "velocity": 74}, {"time": 105600, "pitch": 50, "duration": 331, "velocity": 85}, {"time": 105600, "pitch": 57, "duration": 181, "velocity": 108}, {"time": 105600, "pitch": 62, "duration": 187, "velocity": 112}, {"time": 105840, "pitch": 57, "duration": 76, "velocity": 79}, {"time": 105840, "pitch": 62, "duration": 90, "velocity": 81}, {"time": 106080, "pitch": 50, "duration": 76, "velocity": 100}, {"time": 106320, "pitch": 50, "duration": 75, "velocity": 90}, {"time": 106560, "pitch": 50, "duration": 326, "velocity": 112}, {"time": 106560, "pitch": 57, "duration": 390, "velocity": 120}, {"time": 106560, "pitch": 62, "duration": 377, "velocity": 111}, {"time": 107040, "pitch": 50, "duration": 74, "velocity": 111}, {"time": 107280, "pitch": 50, "duration": 74, "velocity": 104}, {"time": 107520, "pitch": 50, "duration": 349, "velocity": 104}, {"time": 107520, "pitch": 57, "duration": 453, "velocity": 121}, {"time": 107520, "pitch": 62, "duration": 438, "velocity": 108}, {"time": 108000, "pitch": 50, "duration": 179, "velocity": 93}, {"time": 108240, "pitch": 57, "duration": 110, "velocity": 93}, {"time": 108480, "pitch": 62, "duration": 99, "velocity": 111}, {"time": 108720, "pitch": 57, "duration": 103, "velocity": 87}, {"time": 108960, "pitch": 64, "duration": 122, "velocity": 117}, {"time": 109200, "pitch": 57, "duration": 105, "velocity": 87}, {"time": 109440, "pitch": 62, "duration": 109, "velocity": 104}, {"time": 109680, "pitch": 57, "duration": 155, "velocity": 85}, {"time": 109920, "pitch": 49, "duration": 244, "velocity": 87}, {"time": 110160, "pitch": 57, "duration": 113, "velocity": 95}, {"time": 110400, "pitch": 61, "duration": 119, "velocity": 93}, {"time": 110640, "pitch": 57, "duration": 97, "velocity": 71}, {"time": 110880, "pitch": 64, "duration": 115, "velocity": 104}, {"time": 111120, "pitch": 57, "duration": 105, "velocity": 67}, {"time": 111360, "pitch": 61, "duration": 94, "velocity": 87}, {"time": 111600, "pitch": 57, "duration": 140, "velocity": 87}, {"time": 111840, "pitch": 47, "duration": 207, "velocity": 79}, {"time": 112080, "pitch": 54, "duration": 109, "velocity": 79}, {"time": 112320, "pitch": 59, "duration": 109, "velocity": 98}, {"time": 112560, "pitch": 54, "duration": 96, "velocity": 67}, {"time": 112800, "pitch": 62, "duration": 130, "velocity": 112}, {"time": 113040, "pitch": 54, "duration": 93, "velocity": 68}, {"time": 113280, "pitch": 59, "duration": 96, "velocity": 86}, {"time": 113520, "pitch": 54, "duration": 126, "velocity": 81}, {"time": 113760, "pitch": 45, "duration": 202, "velocity": 66}, {"time": 114000, "pitch": 54, "duration": 116, "velocity": 87}, {"time": 114240, "pitch": 57, "duration": 108, "velocity": 104}, {"time": 114480, "pitch": 54, "duration": 114, "velocity": 75}, {"time": 114720, "pitch": 62, "duration": 121, "velocity": 93}, {"time": 114960, "pitch": 54, "duration": 107, "velocity": 74}, {"time": 115200, "pitch": 57, "duration": 93, "velocity": 95}, {"time": 115440, "pitch": 54, "duration": 114, "velocity": 81}, {"time": 115680, "pitch": 55, "duration": 145, "velocity": 86}, {"time": 115920, "pitch": 59, "duration": 107, "velocity": 72}, {"time": 116160, "pitch": 62, "duration": 109, "velocity": 93}, {"time": 116400, "pitch": 59, "duration": 106, "velocity": 76}, {"time": 116640, "pitch": 67, "duration": 127, "velocity": 108}, {"time": 116880, "pitch": 59, "duration": 110, "velocity": 74}, {"time": 117120, "pitch": 62, "duration": 111, "velocity": 95}, {"time": 117360, "pitch": 59, "duration": 125, "velocity": 76}, {"time": 117600, "pitch": 54, "duration": 167, "velocity": 87}, {"time": 117840, "pitch": 57, "duration": 127, "velocity": 86}, {"time": 118080, "pitch": 62, "duration": 108, "velocity": 100}, {"time": 118320, "pitch": 57, "duration": 104, "velocity": 68}, {"time": 118560, "pitch": 66, "duration": 113, "velocity": 108}, {"time": 118800, "pitch": 57, "duration": 111, "velocity": 76}, {"time": 119040, "pitch": 62, "duration": 105, "velocity": 93}, {"time": 119280, "pitch": 57, "duration": 130, "velocity": 87}, {"time": 119520, "pitch": 52, "duration": 135, "velocity": 98}, {"time": 119760, "pitch": 55, "duration": 113, "velocity": 75}, {"time": 120000, "pitch": 62, "duration": 126, "velocity": 117}, {"time": 120240, "pitch": 55, "duration": 111, "velocity": 83}, {"time": 120480, "pitch": 59, "duration": 123, "velocity": 111}, {"time": 120720, "pitch": 55, "duration": 103, "velocity": 79}, {"time": 120960, "pitch": 62, "duration": 127, "velocity": 108}, {"time": 121200, "pitch": 55, "duration": 130, "velocity": 87}, {"time": 121440, "pitch": 45, "duration": 140, "velocity": 83}, {"time": 121680, "pitch": 47, "duration": 123, "velocity": 83}, {"time": 121920, "pitch": 49, "duration": 124, "velocity": 79}, {"time": 122160, "pitch": 52, "duration": 162, "velocity": 112}, {"time": 122400, "pitch": 61, "duration": 116, "velocity": 100}, {"time": 122640, "pitch": 57, "duration": 127, "velocity": 104}, {"time": 122880, "pitch": 64, "duration": 133, "velocity": 108}, {"time": 123120, "pitch": 57, "duration": 173, "velocity": 90}, {"time": 130800, "pitch": 52, "duration": 350, "velocity": 98}, {"time": 130800, "pitch": 55, "duration": 382, "velocity": 95}, {"time": 130800, "pitch": 62, "duration": 370, "velocity": 90}, {"time": 130800, "pitch": 64, "duration": 38, "velocity": 111}, {"time": 131280, "pitch": 52, "duration": 98, "velocity": 87}, {"time": 131280, "pitch": 55, "duration": 103, "velocity": 95}, {"time": 131280, "pitch": 62, "duration": 106, "velocity": 104}, {"time": 131520, "pitch": 54, "duration": 410, "velocity": 95}, {"time": 131520, "pitch": 57, "duration": 353, "velocity": 122}, {"time": 131520, "pitch": 62, "duration": 345, "velocity": 112}, {"time": 132000, "pitch": 55, "duration": 465, "velocity": 108}, {"time": 132000, "pitch": 59, "duration": 469, "velocity": 120}, {"time": 132000, "pitch": 62, "duration": 454, "velocity": 114}, {"time": 132720, "pitch": 52, "duration": 373, "velocity": 104}, {"time": 132720, "pitch": 55, "duration": 393, "velocity": 95}, {"time": 132720, "pitch": 62, "duration": 382, "velocity": 108}, {"time": 133200, "pitch": 52, "duration": 82, "velocity": 86}, {"time": 133200, "pitch": 55, "duration": 79, "velocity": 90}, {"time": 133200, "pitch": 62, "duration": 92, "velocity": 100}, {"time": 133440, "pitch": 54, "duration": 437, "velocity": 87}, {"time": 133440, "pitch": 57, "duration": 368, "velocity": 122}, {"time": 133440, "pitch": 62, "duration": 354, "velocity": 117}, {"time": 133920, "pitch": 55, "duration": 478, "velocity": 112}, {"time": 133920, "pitch": 59, "duration": 475, "velocity": 121}, {"time": 133920, "pitch": 62, "duration": 479, "velocity": 114}, {"time": 134640, "pitch": 52, "duration": 386, "velocity": 104}, {"time": 134640, "pitch": 55, "duration": 398, "velocity": 112}, {"time": 134640, "pitch": 62, "duration": 400, "velocity": 114}, {"time": 135120, "pitch": 52, "duration": 63, "velocity": 79}, {"time": 135120, "pitch": 55, "duration": 74, "velocity": 95}, {"time": 135120, "pitch": 62, "duration": 69, "velocity": 108}, {"time": 135360, "pitch": 52, "duration": 369, "velocity": 108}, {"time": 135360, "pitch": 55, "duration": 381, "velocity": 117}, {"time": 135360, "pitch": 62, "duration": 374, "velocity": 117}, {"time": 135840, "pitch": 52, "duration": 96, "velocity": 95}, {"time": 135840, "pitch": 55, "duration": 74, "velocity": 98}, {"time": 135840, "pitch": 62, "duration": 77, "velocity": 108}, {"time": 136080, "pitch": 52, "duration": 424, "velocity": 98}, {"time": 136080, "pitch": 55, "duration": 406, "velocity": 112}, {"time": 136080, "pitch": 62, "duration": 394, "velocity": 114}, {"time": 136560, "pitch": 45, "duration": 310, "velocity": 95}, {"time": 136560, "pitch": 57, "duration": 328, "velocity": 122}, {"time": 136560, "pitch": 61, "duration": 307, "velocity": 122}, {"time": 137040, "pitch": 45, "duration": 80, "velocity": 95}, {"time": 137040, "pitch": 57, "duration": 90, "velocity": 120}, {"time": 137280, "pitch": 45, "duration": 374, "velocity": 104}, {"time": 137280, "pitch": 57, "duration": 364, "velocity": 121}, {"time": 137760, "pitch": 45, "duration": 97, "velocity": 63}, {"time": 137760, "pitch": 52, "duration": 103, "velocity": 74}, {"time": 137760, "pitch": 57, "duration": 96, "velocity": 120}, {"time": 138000, "pitch": 45, "duration": 63, "velocity": 93}, {"time": 138000, "pitch": 52, "duration": 81, "velocity": 81}, {"time": 138000, "pitch": 57, "duration": 83, "velocity": 117}, {"time": 138240, "pitch": 45, "duration": 60, "velocity": 98}, {"time": 138240, "pitch": 52, "duration": 86, "velocity": 93}, {"time": 138240, "pitch": 57, "duration": 104, "velocity": 122}, {"time": 138480, "pitch": 45, "duration": 179, "velocity": 104}, {"time": 138480, "pitch": 52, "duration": 147, "velocity": 98}, {"time": 138480, "pitch": 57, "duration": 167, "velocity": 122}, {"time": 138720, "pitch": 50, "duration": 76, "velocity": 100}, {"time": 138960, "pitch": 50, "duration": 75, "velocity": 90}, {"time": 139200, "pitch": 50, "duration": 326, "velocity": 112}, {"time": 139200, "pitch": 57, "duration": 390, "velocity": 120}, {"time": 139200, "pitch": 62, "duration": 377, "velocity": 111}, {"time": 139680, "pitch": 50, "duration": 74, "velocity": 111}, {"time": 139920, "pitch": 50, "duration": 74, "velocity": 104}, {"time": 140160, "pitch": 50, "duration": 349, "velocity": 104}, {"time": 140160, "pitch": 57, "duration": 453, "velocity": 121}, {"time": 140160, "pitch": 62, "duration": 438, "velocity": 108}, {"time": 140640, "pitch": 42, "duration": 94, "velocity": 86}, {"time": 140880, "pitch": 42, "duration": 97, "velocity": 77}, {"time": 141120, "pitch": 42, "duration": 342, "velocity": 111}, {"time": 141120, "pitch": 54, "duration": 408, "velocity": 108}, {"time": 141120, "pitch": 61, "duration": 410, "velocity": 117}, {"time": 141600, "pitch": 42, "duration": 76, "velocity": 111}, {"time": 141840, "pitch": 42, "duration": 72, "velocity": 98}, {"time": 142080, "pitch": 42, "duration": 387, "velocity": 112}, {"time": 142080, "pitch": 54, "duration": 397, "velocity": 100}, {"time": 142080, "pitch": 61, "duration": 396, "velocity": 117}, {"time": 142560, "pitch": 43, "duration": 97, "velocity": 93}, {"time": 142800, "pitch": 43, "duration": 95, "velocity": 95}, {"time": 143040, "pitch": 43, "duration": 332, "velocity": 111}, {"time": 143040, "pitch": 50, "duration": 360, "velocity": 104}, {"time": 143040, "pitch": 59, "duration": 358, "velocity": 112}, {"time": 143520, "pitch": 43, "duration": 90, "velocity": 93}, {"time": 143760, "pitch": 43, "duration": 85, "velocity": 90}, {"time": 144000, "pitch": 43, "duration": 377, "velocity": 111}, {"time": 144000, "pitch": 50, "duration": 386, "velocity": 108}, {"time": 144000, "pitch": 59, "duration": 409, "velocity": 114}, {"time": 144480, "pitch": 45, "duration": 101, "velocity": 114}, {"time": 144720, "pitch": 45, "duration": 89, "velocity": 93}, {"time": 144960, "pitch": 45, "duration": 325, "velocity": 120}, {"time": 144960, "pitch": 52, "duration": 423, "velocity": 112}, {"time": 144960, "pitch": 57, "duration": 421, "velocity": 112}, {"time": 145440, "pitch": 45, "duration": 78, "velocity": 98}, {"time": 145680, "pitch": 45, "duration": 85, "velocity": 104}, {"time": 145920, "pitch": 45, "duration": 348, "velocity": 117}, {"time": 145920, "pitch": 52, "duration": 298, "velocity": 114}, {"time": 145920, "pitch": 57, "duration": 323, "velocity": 117}, {"time": 146400, "pitch": 50, "duration": 76, "velocity": 100}, {"time": 146640, "pitch": 50, "duration": 75, "velocity": 90}, {"time": 146880, "pitch": 50, "duration": 326, "velocity": 112}, {"time": 146880, "pitch": 57, "duration": 390, "velocity": 120}, {"time": 146880, "pitch": 62, "duration": 377, "velocity": 111}, {"time": 147360, "pitch": 50, "duration": 74, "velocity": 111}, {"time": 147600, "pitch": 50, "duration": 74, "velocity": 104}, {"time": 147840, "pitch": 50, "duration": 349, "velocity": 104}, {"time": 147840, "pitch": 57, "duration": 453, "velocity": 121}, {"time": 147840, "pitch": 62, "duration": 438, "velocity": 108}, {"time": 148320, "pitch": 42, "duration": 94, "velocity": 86}, {"time": 148560, "pitch": 42, "duration": 97, "velocity": 77}, {"time": 148800, "pitch": 42, "duration": 342, "velocity": 111}, {"time": 148800, "pitch": 54, "duration": 408, "velocity": 108}, {"time": 148800, "pitch": 61, "duration": 410, "velocity": 117}, {"time": 149280, "pitch": 42, "duration": 76, "velocity": 111}, {"time": 149520, "pitch": 42, "duration": 72, "velocity": 98}, {"time": 149760, "pitch": 42, "duration": 387, "velocity": 112}, {"time": 149760, "pitch": 54, "duration": 397, "velocity": 100}, {"time": 149760, "pitch": 61, "duration": 396, "velocity": 117}, {"time": 150240, "pitch": 43, "duration": 97, "velocity": 93}, {"time": 150480, "pitch": 43, "duration": 95, "velocity": 95}, {"time": 150720, "pitch": 43, "duration": 332, "velocity": 111}, {"time": 150720, "pitch": 50, "duration": 360, "velocity": 104}, {"time": 150720, "pitch": 59, "duration": 358, "velocity": 112}, {"time": 151200, "pitch": 43, "duration": 90, "velocity": 93}, {"time": 151440, "pitch": 43, "duration": 85, "velocity": 90}, {"time": 151680, "pitch": 43, "duration": 377, "velocity": 111}, {"time": 151680, "pitch": 50, "duration": 386, "velocity": 108}, {"time": 151680, "pitch": 59, "duration": 409, "velocity": 114}, {"time": 152160, "pitch": 45, "duration": 101, "velocity": 114}, {"time": 152400, "pitch": 45, "duration": 89, "velocity": 93}, {"time": 152640, "pitch": 45, "duration": 325, "velocity": 120}, {"time": 152640, "pitch": 52, "duration": 423, "velocity": 112}, {"time": 152640, "pitch": 57, "duration": 421, "velocity": 112}, {"time": 153120, "pitch": 45, "duration": 78, "velocity": 98}, {"time": 153360, "pitch": 45, "duration": 85, "velocity": 104}, {"time": 153600, "pitch": 45, "duration": 348, "velocity": 117}, {"time": 153600, "pitch": 52, "duration": 298, "velocity": 114}, {"time": 153600, "pitch": 57, "duration": 323, "velocity": 117}, {"time": 154080, "pitch": 50, "duration": 76, "velocity": 100}, {"time": 154320, "pitch": 50, "duration": 75, "velocity": 90}, {"time": 154560, "pitch": 50, "duration": 326, "velocity": 112}, {"time": 154560, "pitch": 57, "duration": 390, "velocity": 120}, {"time": 154560, "pitch": 62, "duration": 377, "velocity": 111}, {"time": 155040, "pitch": 50, "duration": 74, "velocity": 111}, {"time": 155280, "pitch": 50, "duration": 74, "velocity": 104}, {"time": 155520, "pitch": 50, "duration": 349, "velocity": 104}, {"time": 155520, "pitch": 57, "duration": 453, "velocity": 121}, {"time": 155520, "pitch": 62, "duration": 438, "velocity": 108}, {"time": 156000, "pitch": 42, "duration": 94, "velocity": 86}, {"time": 156240, "pitch": 42, "duration": 97, "velocity": 77}, {"time": 156480, "pitch": 42, "duration": 342, "velocity": 111}, {"time": 156480, "pitch": 54, "duration": 408, "velocity": 108}, {"time": 156480, "pitch": 61, "duration": 410, "velocity": 117}, {"time": 156960, "pitch": 42, "duration": 76, "velocity": 111}, {"time": 157200, "pitch": 42, "duration": 72, "velocity": 98}, {"time": 157440, "pitch": 42, "duration": 387, "velocity": 112}, {"time": 157440, "pitch": 54, "duration": 397, "velocity": 100}, {"time": 157440, "pitch": 61, "duration": 396, "velocity": 117}, {"time": 157920, "pitch": 43, "duration": 97, "velocity": 93}, {"time": 158160, "pitch": 43, "duration": 95, "velocity": 95}, {"time": 158400, "pitch": 43, "duration": 332, "velocity": 111}, {"time": 158400, "pitch": 50, "duration": 360, "velocity": 104}, {"time": 158400, "pitch": 59, "duration": 358, "velocity": 112}, {"time": 158880, "pitch": 43, "duration": 90, "velocity": 93}, {"time": 159120, "pitch": 43, "duration": 85, "velocity": 90}, {"time": 159360, "pitch": 43, "duration": 377, "velocity": 111}, {"time": 159360, "pitch": 50, "duration": 386, "velocity": 108}, {"time": 159360, "pitch": 59, "duration": 409, "velocity": 114}, {"time": 159840, "pitch": 45, "duration": 101, "velocity": 114}, {"time": 160080, "pitch": 45, "duration": 89, "velocity": 93}, {"time": 160320, "pitch": 45, "duration": 325, "velocity": 120}, {"time": 160320, "pitch": 52, "duration": 423, "velocity": 112}, {"time": 160320, "pitch": 57, "duration": 421, "velocity": 112}, {"time": 160800, "pitch": 45, "duration": 78, "velocity": 98}, {"time": 161040, "pitch": 45, "duration": 85, "velocity": 104}, {"time": 161280, "pitch": 45, "duration": 348, "velocity": 117}, {"time": 161280, "pitch": 52, "duration": 298, "velocity": 114}, {"time": 161280, "pitch": 57, "duration": 323, "velocity": 117}, {"time": 161760, "pitch": 50, "duration": 76, "velocity": 100}, {"time": 162000, "pitch": 50, "duration": 75, "velocity": 90}, {"time": 162240, "pitch": 50, "duration": 326, "velocity": 112}, {"time": 162240, "pitch": 57, "duration": 390, "velocity": 120}, {"time": 162240, "pitch": 62, "duration": 377, "velocity": 111}, {"time": 162720, "pitch": 50, "duration": 74, "velocity": 111}, {"time": 162960, "pitch": 50, "duration": 74, "velocity": 104}, {"time": 163200, "pitch": 50, "duration": 349, "velocity": 104}, {"time": 163200, "pitch": 57, "duration": 453, "velocity": 121}, {"time": 163200, "pitch": 62, "duration": 438, "velocity": 108}, {"time": 163680, "pitch": 42, "duration": 94, "velocity": 86}, {"time": 163920, "pitch": 42, "duration": 97, "velocity": 77}, {"time": 164160, "pitch": 42, "duration": 342, "velocity": 111}, {"time": 164160, "pitch": 54, "duration": 408, "velocity": 108}, {"time": 164160, "pitch": 61, "duration": 410, "velocity": 117}, {"time": 164640, "pitch": 42, "duration": 76, "velocity": 111}, {"time": 164880, "pitch": 42, "duration": 72, "velocity": 98}, {"time": 165120, "pitch": 42, "duration": 387, "velocity": 112}, {"time": 165120, "pitch": 54, "duration": 397, "velocity": 100}, {"time": 165120, "pitch": 61, "duration": 396, "velocity": 117}, {"time": 165600, "pitch": 43, "duration": 97, "velocity": 93}, {"time": 165840, "pitch": 43, "duration": 95, "velocity": 95}, {"time": 166080, "pitch": 43, "duration": 332, "velocity": 111}, {"time": 166080, "pitch": 50, "duration": 360, "velocity": 104}, {"time": 166080, "pitch": 59, "duration": 358, "velocity": 112}, {"time": 166560, "pitch": 43, "duration": 90, "velocity": 93}, {"time": 166800, "pitch": 43, "duration": 85, "velocity": 90}, {"time": 167040, "pitch": 43, "duration": 377, "velocity": 111}, {"time": 167040, "pitch": 50, "duration": 386, "velocity": 108}, {"time": 167040, "pitch": 59, "duration": 409, "velocity": 114}, {"time": 167520, "pitch": 45, "duration": 101, "velocity": 114}, {"time": 167760, "pitch": 45, "duration": 89, "velocity": 93}, {"time": 168000, "pitch": 45, "duration": 325, "velocity": 120}, {"time": 168000, "pitch": 52, "duration": 423, "velocity": 112}, {"time": 168000, "pitch": 57, "duration": 421, "velocity": 112}, {"time": 168480, "pitch": 45, "duration": 78, "velocity": 98}, {"time": 168720, "pitch": 45, "duration": 85, "velocity": 104}, {"time": 168960, "pitch": 45, "duration": 348, "velocity": 117}, {"time": 168960, "pitch": 52, "duration": 298, "velocity": 114}, {"time": 168960, "pitch": 57, "duration": 323, "velocity": 117}, {"time": 169440, "pitch": 50, "duration": 76, "velocity": 100}, {"time": 169680, "pitch": 50, "duration": 75, "velocity": 90}, {"time": 169920, "pitch": 50, "duration": 326, "velocity": 112}, {"time": 169920, "pitch": 57, "duration": 390, "velocity": 120}, {"time": 169920, "pitch": 62, "duration": 377, "velocity": 111}, {"time": 170400, "pitch": 50, "duration": 74, "velocity": 111}, {"time": 170640, "pitch": 50, "duration": 74, "velocity": 104}, {"time": 170880, "pitch": 50, "duration": 349, "velocity": 104}, {"time": 170880, "pitch": 57, "duration": 453, "velocity": 121}, {"time": 170880, "pitch": 62, "duration": 438, "velocity": 108}, {"time": 171360, "pitch": 42, "duration": 94, "velocity": 86}, {"time": 171600, "pitch": 42, "duration": 97, "velocity": 77}, {"time": 171840, "pitch": 42, "duration": 342, "velocity": 111}, {"time": 171840, "pitch": 54, "duration": 408, "velocity": 108}, {"time": 171840, "pitch": 61, "duration": 410, "velocity": 117}, {"time": 172320, "pitch": 42, "duration": 76, "velocity": 111}, {"time": 172560, "pitch": 42, "duration": 72, "velocity": 98}, {"time": 172800, "pitch": 42, "duration": 387, "velocity": 112}, {"time": 172800, "pitch": 54, "duration": 397, "velocity": 100}, {"time": 172800, "pitch": 61, "duration": 396, "velocity": 117}, {"time": 173280, "pitch": 43, "duration": 97, "velocity": 93}, {"time": 173520, "pitch": 43, "duration": 95, "velocity": 95}, {"time": 173760, "pitch": 43, "duration": 332, "velocity": 111}, {"time": 173760, "pitch": 50, "duration": 360, "velocity": 104}, {"time": 173760, "pitch": 59, "duration": 358, "velocity": 112}, {"time": 174240, "pitch": 43, "duration": 90, "velocity": 93}, {"time": 174480, "pitch": 43, "duration": 85, "velocity": 90}, {"time": 174720, "pitch": 43, "duration": 377, "velocity": 111}, {"time": 174720, "pitch": 50, "duration": 386, "velocity": 108}, {"time": 174720, "pitch": 59, "duration": 409, "velocity": 114}, {"time": 175200, "pitch": 45, "duration": 101, "velocity": 114}, {"time": 175440, "pitch": 45, "duration": 89, "velocity": 93}, {"time": 175680, "pitch": 45, "duration": 325, "velocity": 120}, {"time": 175680, "pitch": 52, "duration": 423, "velocity": 112}, {"time": 175680, "pitch": 57, "duration": 421, "velocity": 112}, {"time": 176160, "pitch": 45, "duration": 78, "velocity": 98}, {"time": 176400, "pitch": 45, "duration": 85, "velocity": 104}, {"time": 176640, "pitch": 45, "duration": 348, "velocity": 117}, {"time": 176640, "pitch": 52, "duration": 298, "velocity": 114}, {"time": 176640, "pitch": 57, "duration": 323, "velocity": 117}, {"time": 177120, "pitch": 50, "duration": 76, "velocity": 100}, {"time": 177360, "pitch": 50, "duration": 75, "velocity": 90}, {"time": 177600, "pitch": 50, "duration": 326, "velocity": 112}, {"time": 177600, "pitch": 57, "duration": 390, "velocity": 120}, {"time": 177600, "pitch": 62, "duration": 377, "velocity": 111}, {"time": 178080, "pitch": 50, "duration": 74, "velocity": 111}, {"time": 178320, "pitch": 50, "duration": 74, "velocity": 104}, {"time": 178560, "pitch": 50, "duration": 349, "velocity": 104}, {"time": 178560, "pitch": 57, "duration": 453, "velocity": 121}, {"time": 178560, "pitch": 62, "duration": 438, "velocity": 108}, {"time": 179040, "pitch": 42, "duration": 94, "velocity": 86}, {"time": 179280, "pitch": 42, "duration": 97, "velocity": 77}, {"time": 179520, "pitch": 42, "duration": 342, "velocity": 111}, {"time": 179520, "pitch": 54, "duration": 408, "velocity": 108}, {"time": 179520, "pitch": 61, "duration": 410, "velocity": 117}, {"time": 180000, "pitch": 42, "duration": 76, "velocity": 111}, {"time": 180240, "pitch": 42, "duration": 72, "velocity": 98}, {"time": 180480, "pitch": 42, "duration": 387, "velocity": 112}, {"time": 180480, "pitch": 54, "duration": 397, "velocity": 100}, {"time": 180480, "pitch": 61, "duration": 396, "velocity": 117}, {"time": 180960, "pitch": 43, "duration": 97, "velocity": 93}, {"time": 181200, "pitch": 43, "duration": 95, "velocity": 95}, {"time": 181440, "pitch": 43, "duration": 332, "velocity": 111}, {"time": 181440, "pitch": 50, "duration": 360, "velocity": 104}, {"time": 181440, "pitch": 59, "duration": 358, "velocity": 112}, {"time": 181920, "pitch": 43, "duration": 90, "velocity": 93}, {"time": 182160, "pitch": 43, "duration": 85, "velocity": 90}, {"time": 182400, "pitch": 43, "duration": 377, "velocity": 111}, {"time": 182400, "pitch": 50, "duration": 386, "velocity": 108}, {"time": 182400, "pitch": 59, "duration": 409, "velocity": 114}, {"time": 182880, "pitch": 45, "duration": 101, "velocity": 114}, {"time": 183120, "pitch": 45, "duration": 89, "velocity": 93}, {"time": 183360, "pitch": 45, "duration": 325, "velocity": 120}, {"time": 183360, "pitch": 52, "duration": 423, "velocity": 112}, {"time": 183360, "pitch": 57, "duration": 421, "velocity": 112}, {"time": 183840, "pitch": 45, "duration": 78, "velocity": 98}, {"time": 184080, "pitch": 45, "duration": 85, "velocity": 104}, {"time": 184320, "pitch": 45, "duration": 348, "velocity": 117}, {"time": 184320, "pitch": 52, "duration": 298, "velocity": 114}, {"time": 184320, "pitch": 57, "duration": 323, "velocity": 117}, {"time": 184800, "pitch": 50, "duration": 76, "velocity": 100}, {"time": 185040, "pitch": 50, "duration": 75, "velocity": 90}, {"time": 185280, "pitch": 50, "duration": 326, "velocity": 112}, {"time": 185280, "pitch": 57, "duration": 390, "velocity": 120}, {"time": 185280, "pitch": 62, "duration": 377, "velocity": 111}, {"time": 185760, "pitch": 50, "duration": 74, "velocity": 111}, {"time": 186000, "pitch": 50, "duration": 74, "velocity": 104}, {"time": 186240, "pitch": 50, "duration": 349, "velocity": 104}, {"time": 186240, "pitch": 57, "duration": 453, "velocity": 121}, {"time": 186240, "pitch": 62, "duration": 438, "velocity": 108}, {"time": 186720, "pitch": 42, "duration": 94, "velocity": 86}, {"time": 186960, "pitch": 42, "duration": 97, "velocity": 77}, {"time": 187200, "pitch": 42, "duration": 342, "velocity": 111}, {"time": 187200, "pitch": 54, "duration": 408, "velocity": 108}, {"time": 187200, "pitch": 61, "duration": 410, "velocity": 117}, {"time": 187680, "pitch": 42, "duration": 76, "velocity": 111}, {"time": 187920, "pitch": 42, "duration": 72, "velocity": 98}, {"time": 188160, "pitch": 42, "duration": 387, "velocity": 112}, {"time": 188160, "pitch": 54, "duration": 397, "velocity": 100}, {"time": 188160, "pitch": 61, "duration": 396, "velocity": 117}, {"time": 188640, "pitch": 43, "duration": 97, "velocity": 93}, {"time": 188880, "pitch": 43, "duration": 95, "velocity": 95}, {"time": 189120, "pitch": 43, "duration": 332, "velocity": 111}, {"time": 189120, "pitch": 50, "duration": 360, "velocity": 104}, {"time": 189120, "pitch": 59, "duration": 358, "velocity": 112}, {"time": 189600, "pitch": 43, "duration": 90, "velocity": 93}, {"time": 189840, "pitch": 43, "duration": 85, "velocity": 90}, {"time": 190080, "pitch": 43, "duration": 377, "velocity": 111}, {"time": 190080, "pitch": 50, "duration": 386, "velocity": 108}, {"time": 190080, "pitch": 59, "duration": 409, "velocity": 114}, {"time": 190560, "pitch": 45, "duration": 101, "velocity": 114}, {"time": 190800, "pitch": 45, "duration": 89, "velocity": 93}, {"time": 191040, "pitch": 45, "duration": 325, "velocity": 120}, {"time": 191040, "pitch": 52, "duration": 423, "velocity": 112}, {"time": 191040, "pitch": 57, "duration": 421, "velocity": 112}, {"time": 191520, "pitch": 45, "duration": 78, "velocity": 98}, {"time": 191760, "pitch": 45, "duration": 85, "velocity": 104}, {"time": 192000, "pitch": 45, "duration": 348, "velocity": 117}, {"time": 192000, "pitch": 52, "duration": 298, "velocity": 114}, {"time": 192000, "pitch": 57, "duration": 323, "velocity": 117}, {"time": 192480, "pitch": 50, "duration": 76, "velocity": 100}, {"time": 192720, "pitch": 50, "duration": 75, "velocity": 90}, {"time": 192960, "pitch": 50, "duration": 326, "velocity": 112}, {"time": 192960, "pitch": 57, "duration": 390, "velocity": 120}, {"time": 192960, "pitch": 62, "duration": 377, "velocity": 111}, {"time": 193440, "pitch": 50, "duration": 74, "velocity": 111}, {"time": 193680, "pitch": 50, "duration": 74, "velocity": 104}, {"time": 193920, "pitch": 50, "duration": 349, "velocity": 104}, {"time": 193920, "pitch": 57, "duration": 453, "velocity": 121}, {"time": 193920, "pitch": 62, "duration": 438, "velocity": 108}, {"time": 194400, "pitch": 42, "duration": 94, "velocity": 86}, {"time": 194640, "pitch": 42, "duration": 97, "velocity": 77}, {"time": 194880, "pitch": 42, "duration": 342, "velocity": 111}, {"time": 194880, "pitch": 54, "duration": 408, "velocity": 108}, {"time": 194880, "pitch": 61, "duration": 410, "velocity": 117}, {"time": 195360, "pitch": 42, "duration": 76, "velocity": 111}, {"time": 195600, "pitch": 42, "duration": 72, "velocity": 98}, {"time": 195840, "pitch": 42, "duration": 387, "velocity": 112}, {"time": 195840, "pitch": 54, "duration": 397, "velocity": 100}, {"time": 195840, "pitch": 61, "duration": 396, "velocity": 117}, {"time": 196320, "pitch": 43, "duration": 97, "velocity": 93}, {"time": 196560, "pitch": 43, "duration": 95, "velocity": 95}, {"time": 196800, "pitch": 43, "duration": 332, "velocity": 111}, {"time": 196800, "pitch": 50, "duration": 360, "velocity": 104}, {"time": 196800, "pitch": 59, "duration": 358, "velocity": 112}, {"time": 197280, "pitch": 43, "duration": 90, "velocity": 93}, {"time": 197520, "pitch": 43, "duration": 85, "velocity": 90}, {"time": 197760, "pitch": 43, "duration": 377, "velocity": 111}, {"time": 197760, "pitch": 50, "duration": 386, "velocity": 108}, {"time": 197760, "pitch": 59, "duration": 409, "velocity": 114}, {"time": 198240, "pitch": 45, "duration": 101, "velocity": 114}, {"time": 198480, "pitch": 45, "duration": 89, "velocity": 93}, {"time": 198720, "pitch": 45, "duration": 325, "velocity": 120}, {"time": 198720, "pitch": 52, "duration": 423, "velocity": 112}, {"time": 198720, "pitch": 57, "duration": 421, "velocity": 112}, {"time": 199200, "pitch": 45, "duration": 78, "velocity": 98}, {"time": 199440, "pitch": 45, "duration": 85, "velocity": 104}, {"time": 199680, "pitch": 45, "duration": 348, "velocity": 117}, {"time": 199680, "pitch": 52, "duration": 298, "velocity": 114}, {"time": 199680, "pitch": 57, "duration": 323, "velocity": 117}, {"time": 200160, "pitch": 50, "duration": 1850, "velocity": 95}, {"time": 200160, "pitch": 55, "duration": 1869, "velocity": 120}, {"time": 200160, "pitch": 59, "duration": 1845, "velocity": 121}, {"time": 202080, "pitch": 52, "duration": 675, "velocity": 111}, {"time": 202080, "pitch": 57, "duration": 686, "velocity": 114}, {"time": 202080, "pitch": 59, "duration": 19, "velocity": 77}, {"time": 202080, "pitch": 61, "duration": 704, "velocity": 98}, {"time": 202800, "pitch": 52, "duration": 889, "velocity": 120}, {"time": 202800, "pitch": 57, "duration": 892, "velocity": 104}, {"time": 202800, "pitch": 61, "duration": 895, "velocity": 112}, {"time": 203760, "pitch": 50, "duration": 1406, "velocity": 112}, {"time": 203760, "pitch": 59, "duration": 472, "velocity": 112}, {"time": 203760, "pitch": 62, "duration": 468, "velocity": 114}, {"time": 204240, "pitch": 59, "duration": 113, "velocity": 71}, {"time": 204360, "pitch": 62, "duration": 103, "velocity": 86}, {"time": 204480, "pitch": 59, "duration": 144, "velocity": 87}, {"time": 204480, "pitch": 62, "duration": 142, "velocity": 108}, {"time": 204720, "pitch": 59, "duration": 151, "velocity": 70}, {"time": 204720, "pitch": 62, "duration": 141, "velocity": 83}, {"time": 204960, "pitch": 57, "duration": 165, "velocity": 68}, {"time": 204960, "pitch": 62, "duration": 150, "velocity": 81}, {"time": 205200, "pitch": 57, "duration": 156, "velocity": 67}, {"time": 205200, "pitch": 62, "duration": 157, "velocity": 74}, {"time": 205440, "pitch": 50, "duration": 331, "velocity": 85}, {"time": 205440, "pitch": 57, "duration": 181, "velocity": 108}, {"time": 205440, "pitch": 62, "duration": 187, "velocity": 112}, {"time": 205680, "pitch": 57, "duration": 76, "velocity": 79}, {"time": 205680, "pitch": 62, "duration": 90, "velocity": 81}, {"time": 205920, "pitch": 44, "duration": 97, "velocity": 93}, {"time": 206160, "pitch": 44, "duration": 95, "velocity": 95}, {"time": 206400, "pitch": 44, "duration": 332, "velocity": 111}, {"time": 206400, "pitch": 50, "duration": 360, "velocity": 104}, {"time": 206400, "pitch": 59, "duration": 358, "velocity": 112}, {"time": 206880, "pitch": 44, "duration": 90, "velocity": 93}, {"time": 207120, "pitch": 44, "duration": 85, "velocity": 90}, {"time": 207360, "pitch": 44, "duration": 377, "velocity": 111}, {"time": 207360, "pitch": 50, "duration": 386, "velocity": 108}, {"time": 207360, "pitch": 59, "duration": 409, "velocity": 114}, {"time": 207840, "pitch": 50, "duration": 1850, "velocity": 95}, {"time": 207840, "pitch": 55, "duration": 1869, "velocity": 120}, {"time": 207840, "pitch": 59, "duration": 1845, "velocity": 121}, {"time": 209760, "pitch": 52, "duration": 675, "velocity": 111}, {"time": 209760, "pitch": 57, "duration": 686, "velocity": 114}, {"time": 209760, "pitch": 59, "duration": 19, "velocity": 77}, {"time": 209760, "pitch": 61, "duration": 704, "velocity": 98}, {"time": 210480, "pitch": 52, "duration": 889, "velocity": 120}, {"time": 210480, "pitch": 57, "duration": 892, "velocity": 104}, {"time": 210480, "pitch": 61, "duration": 895, "velocity": 112}, {"time": 211440, "pitch": 50, "duration": 1406, "velocity": 112}, {"time": 211440, "pitch": 57, "duration": 472, "velocity": 112}, {"time": 211440, "pitch": 62, "duration": 468, "velocity": 114}, {"time": 211920, "pitch": 57, "duration": 113, "velocity": 71}, {"time": 212040, "pitch": 62, "duration": 103, "velocity": 86}, {"time": 212160, "pitch": 57, "duration": 144, "velocity": 87}, {"time": 212160, "pitch": 62, "duration": 142, "velocity": 108}, {"time": 212400, "pitch": 57, "duration": 151, "velocity": 70}, {"time": 212400, "pitch": 62, "duration": 141, "velocity": 83}, {"time": 212640, "pitch": 57, "duration": 165, "velocity": 68}, {"time": 212640, "pitch": 62, "duration": 150, "velocity": 81}, {"time": 212880, "pitch": 57, "duration": 156, "velocity": 67}, {"time": 212880, "pitch": 62, "duration": 157, "velocity": 74}, {"time": 213120, "pitch": 50, "duration": 331, "velocity": 85}, {"time": 213120, "pitch": 57, "duration": 181, "velocity": 108}, {"time": 213120, "pitch": 62, "duration": 187, "velocity": 112}, {"time": 213360, "pitch": 57, "duration": 76, "velocity": 79}, {"time": 213360, "pitch": 62, "duration": 90, "velocity": 81}, {"time": 213600, "pitch": 50, "duration": 182, "velocity": 120}, {"time": 213600, "pitch": 55, "duration": 177, "velocity": 108}, {"time": 213600, "pitch": 62, "duration": 181, "velocity": 114}, {"time": 213840, "pitch": 50, "duration": 169, "velocity": 117}, {"time": 213840, "pitch": 55, "duration": 145, "velocity": 111}, {"time": 213840, "pitch": 62, "duration": 151, "velocity": 104}, {"time": 214320, "pitch": 50, "duration": 356, "velocity": 122}, {"time": 214320, "pitch": 57, "duration": 371, "velocity": 122}, {"time": 214320, "pitch": 62, "duration": 369, "velocity": 112}, {"time": 214800, "pitch": 50, "duration": 326, "velocity": 122}, {"time": 214800, "pitch": 55, "duration": 361, "velocity": 117}, {"time": 214800, "pitch": 62, "duration": 346, "velocity": 112}, {"time": 215280, "pitch": 50, "duration": 1745, "velocity": 123}, {"time": 215280, "pitch": 57, "duration": 1764, "velocity": 122}, {"time": 215280, "pitch": 62, "duration": 1779, "velocity": 114}], "annotations": [{"time": 148, "annotation": {"number": 7, "value": 70}, "group": "control_change"}, {"time": 172, "annotation": {"number": 11, "value": 120}, "group": "control_change"}, {"time": 197, "annotation": {"number": 10, "value": 1}, "group": "control_change"}, {"time": 222, "annotation": {"number": 91, "value": 67}, "group": "control_change"}, {"time": 246, "annotation": {"number": 93, "value": 0}, "group": "control_change"}, {"time": 271, "annotation": {"number": 94, "value": 5}, "group": "control_change"}, {"time": 295, "annotation": {"number": 101, "value": 0}, "group": "control_change"}, {"time": 320, "annotation": {"number": 100, "value": 0}, "group": "control_change"}, {"time": 345, "annotation": {"number": 6, "value": 12}, "group": "control_change"}, {"time": 369, "annotation": {"number": 101, "value": 127}, "group": "control_change"}, {"time": 394, "annotation": {"number": 100, "value": 127}, "group": "control_change"}]}, {"program": 0, "is_drum": false, "name": "E.GUITAR #2", "annotations": [{"time": 123, "annotation": {"number": 0, "value": 0}, "group": "control_change"}, {"time": 123, "annotation": {"number": 32, "value": 2}, "group": "control_change"}]}, {"program": 29, "is_drum": false, "name": "E.GUITAR #2", "notes": [{"time": 23520, "pitch": 57, "duration": 161, "velocity": 85}, {"time": 23520, "pitch": 62, "duration": 157, "velocity": 95}, {"time": 23520, "pitch": 66, "duration": 161, "velocity": 87}, {"time": 23760, "pitch": 57, "duration": 130, "velocity": 67}, {"time": 23760, "pitch": 62, "duration": 131, "velocity": 69}, {"time": 23760, "pitch": 66, "duration": 152, "velocity": 75}, {"time": 24000, "pitch": 57, "duration": 138, "velocity": 63}, {"time": 24000, "pitch": 62, "duration": 135, "velocity": 63}, {"time": 24000, "pitch": 66, "duration": 133, "velocity": 64}, {"time": 24240, "pitch": 57, "duration": 205, "velocity": 98}, {"time": 24240, "pitch": 62, "duration": 213, "velocity": 104}, {"time": 24240, "pitch": 66, "duration": 203, "velocity": 111}, {"time": 24480, "pitch": 57, "duration": 120, "velocity": 66}, {"time": 24480, "pitch": 62, "duration": 121, "velocity": 67}, {"time": 24480, "pitch": 66, "duration": 110, "velocity": 71}, {"time": 24720, "pitch": 57, "duration": 189, "velocity": 98}, {"time": 24720, "pitch": 62, "duration": 183, "velocity": 104}, {"time": 24720, "pitch": 66, "duration": 178, "velocity": 111}, {"time": 24960, "pitch": 57, "duration": 103, "velocity": 67}, {"time": 24960, "pitch": 62, "duration": 104, "velocity": 73}, {"time": 24960, "pitch": 66, "duration": 100, "velocity": 75}, {"time": 25200, "pitch": 57, "duration": 175, "velocity": 73}, {"time": 25200, "pitch": 62, "duration": 163, "velocity": 76}, {"time": 25200, "pitch": 66, "duration": 156, "velocity": 79}, {"time": 25440, "pitch": 57, "duration": 147, "velocity": 81}, {"time": 25440, "pitch": 61, "duration": 154, "velocity": 90}, {"time": 25440, "pitch": 64, "duration": 149, "velocity": 93}, {"time": 25680, "pitch": 57, "duration": 123, "velocity": 61}, {"time": 25680, "pitch": 61, "duration": 124, "velocity": 67}, {"time": 25680, "pitch": 64, "duration": 117, "velocity": 64}, {"time": 25920, "pitch": 57, "duration": 140, "velocity": 76}, {"time": 25920, "pitch": 61, "duration": 126, "velocity": 85}, {"time": 25920, "pitch": 64, "duration": 135, "velocity": 86}, {"time": 26160, "pitch": 57, "duration": 193, "velocity": 95}, {"time": 26160, "pitch": 61, "duration": 186, "velocity": 104}, {"time": 26160, "pitch": 64, "duration": 186, "velocity": 98}, {"time": 26400, "pitch": 57, "duration": 124, "velocity": 68}, {"time": 26400, "pitch": 61, "duration": 127, "velocity": 74}, {"time": 26400, "pitch": 64, "duration": 128, "velocity": 73}, {"time": 26640, "pitch": 57, "duration": 192, "velocity": 100}, {"time": 26640, "pitch": 61, "duration": 180, "velocity": 108}, {"time": 26640, "pitch": 64, "duration": 174, "velocity": 98}, {"time": 26880, "pitch": 57, "duration": 131, "velocity": 64}, {"time": 26880, "pitch": 61, "duration": 130, "velocity": 73}, {"time": 26880, "pitch": 64, "duration": 130, "velocity": 71}, {"time": 27120, "pitch": 57, "duration": 146, "velocity": 64}, {"time": 27120, "pitch": 61, "duration": 155, "velocity": 69}, {"time": 27120, "pitch": 64, "duration": 167, "velocity": 73}, {"time": 27360, "pitch": 59, "duration": 158, "velocity": 74}, {"time": 27360, "pitch": 62, "duration": 168, "velocity": 86}, {"time": 27360, "pitch": 66, "duration": 165, "velocity": 79}, {"time": 27600, "pitch": 59, "duration": 113, "velocity": 63}, {"time": 27600, "pitch": 62, "duration": 132, "velocity": 65}, {"time": 27600, "pitch": 66, "duration": 125, "velocity": 67}, {"time": 27840, "pitch": 59, "duration": 138, "velocity": 69}, {"time": 27840, "pitch": 62, "duration": 144, "velocity": 79}, {"time": 27840, "pitch": 66, "duration": 143, "velocity": 77}, {"time": 28080, "pitch": 59, "duration": 198, "velocity": 93}, {"time": 28080, "pitch": 62, "duration": 200, "velocity": 98}, {"time": 28080, "pitch": 66, "duration": 199, "velocity": 98}, {"time": 28320, "pitch": 59, "duration": 97, "velocity": 67}, {"time": 28320, "pitch": 62, "duration": 127, "velocity": 74}, {"time": 28320, "pitch": 66, "duration": 115, "velocity": 72}, {"time": 28560, "pitch": 59, "duration": 178, "velocity": 104}, {"time": 28560, "pitch": 62, "duration": 177, "velocity": 111}, {"time": 28560, "pitch": 66, "duration": 175, "velocity": 108}, {"time": 28800, "pitch": 59, "duration": 82, "velocity": 65}, {"time": 28800, "pitch": 62, "duration": 109, "velocity": 73}, {"time": 28800, "pitch": 66, "duration": 107, "velocity": 74}, {"time": 29040, "pitch": 59, "duration": 149, "velocity": 65}, {"time": 29040, "pitch": 62, "duration": 152, "velocity": 68}, {"time": 29040, "pitch": 66, "duration": 147, "velocity": 72}, {"time": 29280, "pitch": 57, "duration": 142, "velocity": 81}, {"time": 29280, "pitch": 62, "duration": 152, "velocity": 86}, {"time": 29280, "pitch": 66, "duration": 144, "velocity": 85}, {"time": 29520, "pitch": 57, "duration": 114, "velocity": 62}, {"time": 29520, "pitch": 62, "duration": 127, "velocity": 66}, {"time": 29520, "pitch": 66, "duration": 109, "velocity": 64}, {"time": 29760, "pitch": 57, "duration": 139, "velocity": 68}, {"time": 29760, "pitch": 62, "duration": 143, "velocity": 74}, {"time": 29760, "pitch": 66, "duration": 135, "velocity": 75}, {"time": 30000, "pitch": 57, "duration": 182, "velocity": 93}, {"time": 30000, "pitch": 62, "duration": 186, "velocity": 108}, {"time": 30000, "pitch": 66, "duration": 186, "velocity": 108}, {"time": 30240, "pitch": 57, "duration": 127, "velocity": 67}, {"time": 30240, "pitch": 62, "duration": 141, "velocity": 74}, {"time": 30240, "pitch": 66, "duration": 142, "velocity": 73}, {"time": 30480, "pitch": 57, "duration": 189, "velocity": 95}, {"time": 30480, "pitch": 62, "duration": 182, "velocity": 104}, {"time": 30480, "pitch": 66, "duration": 171, "velocity": 108}, {"time": 30720, "pitch": 57, "duration": 121, "velocity": 69}, {"time": 30720, "pitch": 62, "duration": 128, "velocity": 72}, {"time": 30720, "pitch": 66, "duration": 127, "velocity": 79}, {"time": 30960, "pitch": 57, "duration": 153, "velocity": 71}, {"time": 30960, "pitch": 62, "duration": 173, "velocity": 73}, {"time": 30960, "pitch": 66, "duration": 177, "velocity": 73}, {"time": 31200, "pitch": 59, "duration": 149, "velocity": 65}, {"time": 31200, "pitch": 62, "duration": 176, "velocity": 83}, {"time": 31200, "pitch": 67, "duration": 195, "velocity": 90}, {"time": 31440, "pitch": 59, "duration": 103, "velocity": 64}, {"time": 31440, "pitch": 62, "duration": 125, "velocity": 70}, {"time": 31440, "pitch": 67, "duration": 121, "velocity": 76}, {"time": 31680, "pitch": 59, "duration": 145, "velocity": 87}, {"time": 31680, "pitch": 62, "duration": 162, "velocity": 98}, {"time": 31680, "pitch": 67, "duration": 166, "velocity": 104}, {"time": 31920, "pitch": 59, "duration": 201, "velocity": 83}, {"time": 31920, "pitch": 62, "duration": 218, "velocity": 90}, {"time": 31920, "pitch": 67, "duration": 197, "velocity": 93}, {"time": 32160, "pitch": 62, "duration": 103, "velocity": 74}, {"time": 32160, "pitch": 67, "duration": 103, "velocity": 77}, {"time": 32280, "pitch": 59, "duration": 88, "velocity": 67}, {"time": 32400, "pitch": 59, "duration": 132, "velocity": 66}, {"time": 32400, "pitch": 62, "duration": 139, "velocity": 67}, {"time": 32400, "pitch": 67, "duration": 149, "velocity": 79}, {"time": 32640, "pitch": 59, "duration": 135, "velocity": 74}, {"time": 32640, "pitch": 62, "duration": 150, "velocity": 81}, {"time": 32640, "pitch": 67, "duration": 150, "velocity": 87}, {"time": 32880, "pitch": 59, "duration": 163, "velocity": 76}, {"time": 32880, "pitch": 62, "duration": 173, "velocity": 85}, {"time": 32880, "pitch": 67, "duration": 169, "velocity": 86}, {"time": 33120, "pitch": 57, "duration": 137, "velocity": 81}, {"time": 33120, "pitch": 62, "duration": 142, "velocity": 81}, {"time": 33120, "pitch": 66, "duration": 139, "velocity": 85}, {"time": 33360, "pitch": 57, "duration": 120, "velocity": 60}, {"time": 33360, "pitch": 62, "duration": 123, "velocity": 65}, {"time": 33360, "pitch": 66, "duration": 120, "velocity": 68}, {"time": 33600, "pitch": 57, "duration": 125, "velocity": 67}, {"time": 33600, "pitch": 62, "duration": 123, "velocity": 70}, {"time": 33600, "pitch": 66, "duration": 124, "velocity": 79}, {"time": 33840, "pitch": 57, "duration": 184, "velocity": 93}, {"time": 33840, "pitch": 62, "duration": 199, "velocity": 104}, {"time": 33840, "pitch": 66, "duration": 193, "velocity": 98}, {"time": 34080, "pitch": 57, "duration": 109, "velocity": 64}, {"time": 34080, "pitch": 62, "duration": 121, "velocity": 70}, {"time": 34080, "pitch": 66, "duration": 109, "velocity": 65}, {"time": 34320, "pitch": 57, "duration": 145, "velocity": 90}, {"time": 34320, "pitch": 62, "duration": 150, "velocity": 100}, {"time": 34320, "pitch": 66, "duration": 150, "velocity": 95}, {"time": 34560, "pitch": 57, "duration": 113, "velocity": 68}, {"time": 34560, "pitch": 62, "duration": 119, "velocity": 76}, {"time": 34560, "pitch": 66, "duration": 112, "velocity": 75}, {"time": 34800, "pitch": 57, "duration": 158, "velocity": 63}, {"time": 34800, "pitch": 62, "duration": 172, "velocity": 66}, {"time": 34800, "pitch": 66, "duration": 160, "velocity": 74}, {"time": 35040, "pitch": 59, "duration": 167, "velocity": 100}, {"time": 35040, "pitch": 62, "duration": 172, "velocity": 108}, {"time": 35040, "pitch": 67, "duration": 163, "velocity": 112}, {"time": 35280, "pitch": 59, "duration": 107, "velocity": 64}, {"time": 35280, "pitch": 62, "duration": 122, "velocity": 64}, {"time": 35280, "pitch": 67, "duration": 110, "velocity": 64}, {"time": 35520, "pitch": 59, "duration": 120, "velocity": 63}, {"time": 35520, "pitch": 62, "duration": 136, "velocity": 74}, {"time": 35520, "pitch": 67, "duration": 129, "velocity": 76}, {"time": 35760, "pitch": 59, "duration": 161, "velocity": 90}, {"time": 35760, "pitch": 62, "duration": 185, "velocity": 111}, {"time": 35760, "pitch": 67, "duration": 174, "velocity": 111}, {"time": 36000, "pitch": 59, "duration": 128, "velocity": 67}, {"time": 36000, "pitch": 62, "duration": 155, "velocity": 74}, {"time": 36000, "pitch": 67, "duration": 145, "velocity": 75}, {"time": 36240, "pitch": 59, "duration": 147, "velocity": 67}, {"time": 36240, "pitch": 62, "duration": 168, "velocity": 71}, {"time": 36240, "pitch": 67, "duration": 154, "velocity": 76}, {"time": 36480, "pitch": 59, "duration": 160, "velocity": 71}, {"time": 36480, "pitch": 62, "duration": 168, "velocity": 76}, {"time": 36480, "pitch": 67, "duration": 165, "velocity": 79}, {"time": 36720, "pitch": 59, "duration": 169, "velocity": 83}, {"time": 36720, "pitch": 62, "duration": 175, "velocity": 87}, {"time": 36720, "pitch": 67, "duration": 163, "velocity": 98}, {"time": 36960, "pitch": 57, "duration": 168, "velocity": 83}, {"time": 36960, "pitch": 61, "duration": 176, "velocity": 90}, {"time": 36960, "pitch": 64, "duration": 169, "velocity": 95}, {"time": 37200, "pitch": 57, "duration": 139, "velocity": 63}, {"time": 37200, "pitch": 61, "duration": 134, "velocity": 74}, {"time": 37200, "pitch": 64, "duration": 126, "velocity": 73}, {"time": 37440, "pitch": 57, "duration": 111, "velocity": 62}, {"time": 37440, "pitch": 61, "duration": 116, "velocity": 67}, {"time": 37440, "pitch": 64, "duration": 114, "velocity": 65}, {"time": 37680, "pitch": 57, "duration": 168, "velocity": 104}, {"time": 37680, "pitch": 61, "duration": 167, "velocity": 111}, {"time": 37680, "pitch": 64, "duration": 173, "velocity": 111}, {"time": 37920, "pitch": 57, "duration": 104, "velocity": 63}, {"time": 37920, "pitch": 61, "duration": 106, "velocity": 65}, {"time": 37920, "pitch": 64, "duration": 115, "velocity": 73}, {"time": 38160, "pitch": 57, "duration": 140, "velocity": 67}, {"time": 38160, "pitch": 61, "duration": 133, "velocity": 67}, {"time": 38160, "pitch": 64, "duration": 142, "velocity": 77}, {"time": 38400, "pitch": 57, "duration": 159, "velocity": 77}, {"time": 38400, "pitch": 61, "duration": 165, "velocity": 93}, {"time": 38400, "pitch": 64, "duration": 168, "velocity": 90}, {"time": 38640, "pitch": 57, "duration": 138, "velocity": 87}, {"time": 38640, "pitch": 61, "duration": 140, "velocity": 104}, {"time": 38640, "pitch": 64, "duration": 156, "velocity": 95}, {"time": 38880, "pitch": 57, "duration": 161, "velocity": 85}, {"time": 38880, "pitch": 62, "duration": 157, "velocity": 95}, {"time": 38880, "pitch": 66, "duration": 161, "velocity": 87}, {"time": 39120, "pitch": 57, "duration": 130, "velocity": 67}, {"time": 39120, "pitch": 62, "duration": 131, "velocity": 69}, {"time": 39120, "pitch": 66, "duration": 152, "velocity": 75}, {"time": 39360, "pitch": 57, "duration": 138, "velocity": 63}, {"time": 39360, "pitch": 62, "duration": 135, "velocity": 63}, {"time": 39360, "pitch": 66, "duration": 133, "velocity": 64}, {"time": 39600, "pitch": 57, "duration": 205, "velocity": 98}, {"time": 39600, "pitch": 62, "duration": 213, "velocity": 104}, {"time": 39600, "pitch": 66, "duration": 203, "velocity": 111}, {"time": 39840, "pitch": 57, "duration": 120, "velocity": 66}, {"time": 39840, "pitch": 62, "duration": 121, "velocity": 67}, {"time": 39840, "pitch": 66, "duration": 110, "velocity": 71}, {"time": 40080, "pitch": 57, "duration": 189, "velocity": 98}, {"time": 40080, "pitch": 62, "duration": 183, "velocity": 104}, {"time": 40080, "pitch": 66, "duration": 178, "velocity": 111}, {"time": 40320, "pitch": 57, "duration": 103, "velocity": 67}, {"time": 40320, "pitch": 62, "duration": 104, "velocity": 73}, {"time": 40320, "pitch": 66, "duration": 100, "velocity": 75}, {"time": 40560, "pitch": 57, "duration": 175, "velocity": 73}, {"time": 40560, "pitch": 62, "duration": 163, "velocity": 76}, {"time": 40560, "pitch": 66, "duration": 156, "velocity": 79}, {"time": 40800, "pitch": 57, "duration": 147, "velocity": 81}, {"time": 40800, "pitch": 61, "duration": 154, "velocity": 90}, {"time": 40800, "pitch": 64, "duration": 149, "velocity": 93}, {"time": 41040, "pitch": 57, "duration": 123, "velocity": 61}, {"time": 41040, "pitch": 61, "duration": 124, "velocity": 67}, {"time": 41040, "pitch": 64, "duration": 117, "velocity": 64}, {"time": 41280, "pitch": 57, "duration": 140, "velocity": 76}, {"time": 41280, "pitch": 61, "duration": 126, "velocity": 85}, {"time": 41280, "pitch": 64, "duration": 135, "velocity": 86}, {"time": 41520, "pitch": 57, "duration": 193, "velocity": 95}, {"time": 41520, "pitch": 61, "duration": 186, "velocity": 104}, {"time": 41520, "pitch": 64, "duration": 186, "velocity": 98}, {"time": 41760, "pitch": 57, "duration": 124, "velocity": 68}, {"time": 41760, "pitch": 61, "duration": 127, "velocity": 74}, {"time": 41760, "pitch": 64, "duration": 128, "velocity": 73}, {"time": 42000, "pitch": 57, "duration": 192, "velocity": 100}, {"time": 42000, "pitch": 61, "duration": 180, "velocity": 108}, {"time": 42000, "pitch": 64, "duration": 174, "velocity": 98}, {"time": 42240, "pitch": 57, "duration": 131, "velocity": 64}, {"time": 42240, "pitch": 61, "duration": 130, "velocity": 73}, {"time": 42240, "pitch": 64, "duration": 130, "velocity": 71}, {"time": 42480, "pitch": 57, "duration": 146, "velocity": 64}, {"time": 42480, "pitch": 61, "duration": 155, "velocity": 69}, {"time": 42480, "pitch": 64, "duration": 167, "velocity": 73}, {"time": 42720, "pitch": 59, "duration": 158, "velocity": 74}, {"time": 42720, "pitch": 62, "duration": 168, "velocity": 86}, {"time": 42720, "pitch": 66, "duration": 165, "velocity": 79}, {"time": 42960, "pitch": 59, "duration": 113, "velocity": 63}, {"time": 42960, "pitch": 62, "duration": 132, "velocity": 65}, {"time": 42960, "pitch": 66, "duration": 125, "velocity": 67}, {"time": 43200, "pitch": 59, "duration": 138, "velocity": 69}, {"time": 43200, "pitch": 62, "duration": 144, "velocity": 79}, {"time": 43200, "pitch": 66, "duration": 143, "velocity": 77}, {"time": 43440, "pitch": 59, "duration": 198, "velocity": 93}, {"time": 43440, "pitch": 62, "duration": 200, "velocity": 98}, {"time": 43440, "pitch": 66, "duration": 199, "velocity": 98}, {"time": 43680, "pitch": 59, "duration": 97, "velocity": 67}, {"time": 43680, "pitch": 62, "duration": 127, "velocity": 74}, {"time": 43680, "pitch": 66, "duration": 115, "velocity": 72}, {"time": 43920, "pitch": 59, "duration": 178, "velocity": 104}, {"time": 43920, "pitch": 62, "duration": 177, "velocity": 111}, {"time": 43920, "pitch": 66, "duration": 175, "velocity": 108}, {"time": 44160, "pitch": 59, "duration": 82, "velocity": 65}, {"time": 44160, "pitch": 62, "duration": 109, "velocity": 73}, {"time": 44160, "pitch": 66, "duration": 107, "velocity": 74}, {"time": 44400, "pitch": 59, "duration": 149, "velocity": 65}, {"time": 44400, "pitch": 62, "duration": 152, "velocity": 68}, {"time": 44400, "pitch": 66, "duration": 147, "velocity": 72}, {"time": 44640, "pitch": 57, "duration": 142, "velocity": 81}, {"time": 44640, "pitch": 62, "duration": 152, "velocity": 86}, {"time": 44640, "pitch": 66, "duration": 144, "velocity": 85}, {"time": 44880, "pitch": 57, "duration": 114, "velocity": 62}, {"time": 44880, "pitch": 62, "duration": 127, "velocity": 66}, {"time": 44880, "pitch": 66, "duration": 109, "velocity": 64}, {"time": 45120, "pitch": 57, "duration": 139, "velocity": 68}, {"time": 45120, "pitch": 62, "duration": 143, "velocity": 74}, {"time": 45120, "pitch": 66, "duration": 135, "velocity": 75}, {"time": 45360, "pitch": 57, "duration": 182, "velocity": 93}, {"time": 45360, "pitch": 62, "duration": 186, "velocity": 108}, {"time": 45360, "pitch": 66, "duration": 186, "velocity": 108}, {"time": 45600, "pitch": 57, "duration": 127, "velocity": 67}, {"time": 45600, "pitch": 62, "duration": 141, "velocity": 74}, {"time": 45600, "pitch": 66, "duration": 142, "velocity": 73}, {"time": 45840, "pitch": 57, "duration": 189, "velocity": 95}, {"time": 45840, "pitch": 62, "duration": 182, "velocity": 104}, {"time": 45840, "pitch": 66, "duration": 171, "velocity": 108}, {"time": 46080, "pitch": 57, "duration": 121, "velocity": 69}, {"time": 46080, "pitch": 62, "duration": 128, "velocity": 72}, {"time": 46080, "pitch": 66, "duration": 127, "velocity": 79}, {"time": 46320, "pitch": 57, "duration": 153, "velocity": 71}, {"time": 46320, "pitch": 62, "duration": 173, "velocity": 73}, {"time": 46320, "pitch": 66, "duration": 177, "velocity": 73}, {"time": 46560, "pitch": 59, "duration": 149, "velocity": 65}, {"time": 46560, "pitch": 62, "duration": 176, "velocity": 83}, {"time": 46560, "pitch": 67, "duration": 195, "velocity": 90}, {"time": 46800, "pitch": 59, "duration": 103, "velocity": 64}, {"time": 46800, "pitch": 62, "duration": 125, "velocity": 70}, {"time": 46800, "pitch": 67, "duration": 121, "velocity": 76}, {"time": 47040, "pitch": 59, "duration": 145, "velocity": 87}, {"time": 47040, "pitch": 62, "duration": 162, "velocity": 98}, {"time": 47040, "pitch": 67, "duration": 166, "velocity": 104}, {"time": 47280, "pitch": 59, "duration": 201, "velocity": 83}, {"time": 47280, "pitch": 62, "duration": 218, "velocity": 90}, {"time": 47280, "pitch": 67, "duration": 197, "velocity": 93}, {"time": 47520, "pitch": 62, "duration": 103, "velocity": 74}, {"time": 47520, "pitch": 67, "duration": 103, "velocity": 77}, {"time": 47640, "pitch": 59, "duration": 88, "velocity": 67}, {"time": 47760, "pitch": 59, "duration": 132, "velocity": 66}, {"time": 47760, "pitch": 62, "duration": 139, "velocity": 67}, {"time": 47760, "pitch": 67, "duration": 149, "velocity": 79}, {"time": 48000, "pitch": 59, "duration": 135, "velocity": 74}, {"time": 48000, "pitch": 62, "duration": 150, "velocity": 81}, {"time": 48000, "pitch": 67, "duration": 150, "velocity": 87}, {"time": 48240, "pitch": 59, "duration": 163, "velocity": 76}, {"time": 48240, "pitch": 62, "duration": 173, "velocity": 85}, {"time": 48240, "pitch": 67, "duration": 169, "velocity": 86}, {"time": 48480, "pitch": 57, "duration": 137, "velocity": 81}, {"time": 48480, "pitch": 62, "duration": 142, "velocity": 81}, {"time": 48480, "pitch": 66, "duration": 139, "velocity": 85}, {"time": 48720, "pitch": 57, "duration": 120, "velocity": 60}, {"time": 48720, "pitch": 62, "duration": 123, "velocity": 65}, {"time": 48720, "pitch": 66, "duration": 120, "velocity": 68}, {"time": 48960, "pitch": 57, "duration": 125, "velocity": 67}, {"time": 48960, "pitch": 62, "duration": 123, "velocity": 70}, {"time": 48960, "pitch": 66, "duration": 124, "velocity": 79}, {"time": 49200, "pitch": 57, "duration": 184, "velocity": 93}, {"time": 49200, "pitch": 62, "duration": 199, "velocity": 104}, {"time": 49200, "pitch": 66, "duration": 193, "velocity": 98}, {"time": 49440, "pitch": 57, "duration": 109, "velocity": 64}, {"time": 49440, "pitch": 62, "duration": 121, "velocity": 70}, {"time": 49440, "pitch": 66, "duration": 109, "velocity": 65}, {"time": 49680, "pitch": 57, "duration": 145, "velocity": 90}, {"time": 49680, "pitch": 62, "duration": 150, "velocity": 100}, {"time": 49680, "pitch": 66, "duration": 150, "velocity": 95}, {"time": 49920, "pitch": 57, "duration": 113, "velocity": 68}, {"time": 49920, "pitch": 62, "duration": 119, "velocity": 76}, {"time": 49920, "pitch": 66, "duration": 112, "velocity": 75}, {"time": 50160, "pitch": 57, "duration": 158, "velocity": 63}, {"time": 50160, "pitch": 62, "duration": 172, "velocity": 66}, {"time": 50160, "pitch": 66, "duration": 160, "velocity": 74}, {"time": 50400, "pitch": 59, "duration": 167, "velocity": 100}, {"time": 50400, "pitch": 62, "duration": 172, "velocity": 108}, {"time": 50400, "pitch": 67, "duration": 163, "velocity": 112}, {"time": 50640, "pitch": 59, "duration": 107, "velocity": 64}, {"time": 50640, "pitch": 62, "duration": 122, "velocity": 64}, {"time": 50640, "pitch": 67, "duration": 110, "velocity": 64}, {"time": 50880, "pitch": 59, "duration": 120, "velocity": 63}, {"time": 50880, "pitch": 62, "duration": 136, "velocity": 74}, {"time": 50880, "pitch": 67, "duration": 129, "velocity": 76}, {"time": 51120, "pitch": 59, "duration": 161, "velocity": 90}, {"time": 51120, "pitch": 62, "duration": 185, "velocity": 111}, {"time": 51120, "pitch": 67, "duration": 174, "velocity": 111}, {"time": 51360, "pitch": 59, "duration": 128, "velocity": 67}, {"time": 51360, "pitch": 62, "duration": 155, "velocity": 74}, {"time": 51360, "pitch": 67, "duration": 145, "velocity": 75}, {"time": 51600, "pitch": 59, "duration": 147, "velocity": 67}, {"time": 51600, "pitch": 62, "duration": 168, "velocity": 71}, {"time": 51600, "pitch": 67, "duration": 154, "velocity": 76}, {"time": 51840, "pitch": 59, "duration": 160, "velocity": 71}, {"time": 51840, "pitch": 62, "duration": 168, "velocity": 76}, {"time": 51840, "pitch": 67, "duration": 165, "velocity": 79}, {"time": 52080, "pitch": 59, "duration": 169, "velocity": 83}, {"time": 52080, "pitch": 62, "duration": 175, "velocity": 87}, {"time": 52080, "pitch": 67, "duration": 163, "velocity": 98}, {"time": 52320, "pitch": 57, "duration": 168, "velocity": 83}, {"time": 52320, "pitch": 61, "duration": 176, "velocity": 90}, {"time": 52320, "pitch": 64, "duration": 169, "velocity": 95}, {"time": 52560, "pitch": 57, "duration": 139, "velocity": 63}, {"time": 52560, "pitch": 61, "duration": 134, "velocity": 74}, {"time": 52560, "pitch": 64, "duration": 126, "velocity": 73}, {"time": 52800, "pitch": 57, "duration": 111, "velocity": 62}, {"time": 52800, "pitch": 61, "duration": 116, "velocity": 67}, {"time": 52800, "pitch": 64, "duration": 114, "velocity": 65}, {"time": 53040, "pitch": 57, "duration": 168, "velocity": 104}, {"time": 53040, "pitch": 61, "duration": 167, "velocity": 111}, {"time": 53040, "pitch": 64, "duration": 173, "velocity": 111}, {"time": 53280, "pitch": 57, "duration": 104, "velocity": 63}, {"time": 53280, "pitch": 61, "duration": 106, "velocity": 65}, {"time": 53280, "pitch": 64, "duration": 115, "velocity": 73}, {"time": 53520, "pitch": 57, "duration": 140, "velocity": 67}, {"time": 53520, "pitch": 61, "duration": 133, "velocity": 67}, {"time": 53520, "pitch": 64, "duration": 142, "velocity": 77}, {"time": 53760, "pitch": 57, "duration": 159, "velocity": 77}, {"time": 53760, "pitch": 61, "duration": 165, "velocity": 93}, {"time": 53760, "pitch": 64, "duration": 168, "velocity": 90}, {"time": 54000, "pitch": 57, "duration": 138, "velocity": 87}, {"time": 54000, "pitch": 61, "duration": 140, "velocity": 104}, {"time": 54000, "pitch": 64, "duration": 156, "velocity": 95}, {"time": 61680, "pitch": 59, "duration": 375, "velocity": 114}, {"time": 61680, "pitch": 62, "duration": 369, "velocity": 114}, {"time": 61680, "pitch": 67, "duration": 367, "velocity": 111}, {"time": 62160, "pitch": 59, "duration": 68, "velocity": 83}, {"time": 62160, "pitch": 62, "duration": 59, "velocity": 86}, {"time": 62160, "pitch": 67, "duration": 66, "velocity": 95}, {"time": 62400, "pitch": 59, "duration": 340, "velocity": 114}, {"time": 62400, "pitch": 62, "duration": 336, "velocity": 120}, {"time": 62400, "pitch": 67, "duration": 340, "velocity": 117}, {"time": 62880, "pitch": 59, "duration": 245, "velocity": 112}, {"time": 62880, "pitch": 62, "duration": 239, "velocity": 120}, {"time": 62880, "pitch": 67, "duration": 239, "velocity": 120}, {"time": 63120, "pitch": 59, "duration": 5, "velocity": 65}, {"time": 63120, "pitch": 62, "duration": 47, "velocity": 75}, {"time": 63120, "pitch": 67, "duration": 53, "velocity": 79}, {"time": 63600, "pitch": 59, "duration": 381, "velocity": 117}, {"time": 63600, "pitch": 62, "duration": 378, "velocity": 117}, {"time": 63600, "pitch": 67, "duration": 364, "velocity": 114}, {"time": 64080, "pitch": 59, "duration": 61, "velocity": 77}, {"time": 64080, "pitch": 62, "duration": 58, "velocity": 85}, {"time": 64080, "pitch": 67, "duration": 57, "velocity": 86}, {"time": 64320, "pitch": 59, "duration": 372, "velocity": 112}, {"time": 64320, "pitch": 62, "duration": 363, "velocity": 114}, {"time": 64320, "pitch": 67, "duration": 351, "velocity": 114}, {"time": 64800, "pitch": 59, "duration": 223, "velocity": 108}, {"time": 64800, "pitch": 62, "duration": 223, "velocity": 108}, {"time": 64800, "pitch": 67, "duration": 218, "velocity": 114}, {"time": 65040, "pitch": 59, "duration": 73, "velocity": 87}, {"time": 65040, "pitch": 62, "duration": 60, "velocity": 90}, {"time": 65040, "pitch": 67, "duration": 73, "velocity": 79}, {"time": 65520, "pitch": 59, "duration": 372, "velocity": 112}, {"time": 65520, "pitch": 62, "duration": 368, "velocity": 112}, {"time": 65520, "pitch": 67, "duration": 368, "velocity": 114}, {"time": 66000, "pitch": 59, "duration": 55, "velocity": 98}, {"time": 66000, "pitch": 62, "duration": 54, "velocity": 104}, {"time": 66000, "pitch": 67, "duration": 58, "velocity": 104}, {"time": 66240, "pitch": 59, "duration": 368, "velocity": 117}, {"time": 66240, "pitch": 62, "duration": 359, "velocity": 120}, {"time": 66240, "pitch": 67, "duration": 359, "velocity": 117}, {"time": 66720, "pitch": 59, "duration": 65, "velocity": 108}, {"time": 66720, "pitch": 62, "duration": 59, "velocity": 111}, {"time": 66720, "pitch": 67, "duration": 59, "velocity": 111}, {"time": 66960, "pitch": 59, "duration": 381, "velocity": 112}, {"time": 66960, "pitch": 62, "duration": 383, "velocity": 112}, {"time": 66960, "pitch": 67, "duration": 390, "velocity": 112}, {"time": 67440, "pitch": 61, "duration": 337, "velocity": 108}, {"time": 67440, "pitch": 64, "duration": 329, "velocity": 117}, {"time": 67440, "pitch": 69, "duration": 334, "velocity": 114}, {"time": 67920, "pitch": 61, "duration": 58, "velocity": 81}, {"time": 67920, "pitch": 64, "duration": 52, "velocity": 95}, {"time": 67920, "pitch": 69, "duration": 61, "velocity": 87}, {"time": 68160, "pitch": 61, "duration": 129, "velocity": 111}, {"time": 68160, "pitch": 64, "duration": 115, "velocity": 117}, {"time": 68160, "pitch": 69, "duration": 114, "velocity": 108}, {"time": 68400, "pitch": 61, "duration": 76, "velocity": 87}, {"time": 68400, "pitch": 64, "duration": 69, "velocity": 100}, {"time": 68400, "pitch": 69, "duration": 79, "velocity": 90}, {"time": 68640, "pitch": 61, "duration": 228, "velocity": 108}, {"time": 68640, "pitch": 64, "duration": 224, "velocity": 117}, {"time": 68640, "pitch": 69, "duration": 217, "velocity": 111}, {"time": 68880, "pitch": 61, "duration": 84, "velocity": 74}, {"time": 68880, "pitch": 64, "duration": 76, "velocity": 86}, {"time": 68880, "pitch": 69, "duration": 78, "velocity": 73}, {"time": 69120, "pitch": 61, "duration": 246, "velocity": 95}, {"time": 69120, "pitch": 64, "duration": 235, "velocity": 108}, {"time": 69120, "pitch": 69, "duration": 227, "velocity": 100}, {"time": 69600, "pitch": 50, "duration": 115, "velocity": 104}, {"time": 69840, "pitch": 50, "duration": 105, "velocity": 76}, {"time": 70080, "pitch": 50, "duration": 126, "velocity": 87}, {"time": 70080, "pitch": 57, "duration": 342, "velocity": 112}, {"time": 70080, "pitch": 66, "duration": 341, "velocity": 114}, {"time": 70320, "pitch": 50, "duration": 108, "velocity": 74}, {"time": 70560, "pitch": 50, "duration": 96, "velocity": 77}, {"time": 70800, "pitch": 50, "duration": 130, "velocity": 95}, {"time": 70800, "pitch": 57, "duration": 392, "velocity": 108}, {"time": 70800, "pitch": 66, "duration": 395, "velocity": 111}, {"time": 71040, "pitch": 50, "duration": 92, "velocity": 87}, {"time": 71280, "pitch": 50, "duration": 96, "velocity": 85}, {"time": 71520, "pitch": 42, "duration": 125, "velocity": 108}, {"time": 71760, "pitch": 42, "duration": 108, "velocity": 77}, {"time": 72000, "pitch": 42, "duration": 176, "velocity": 112}, {"time": 72000, "pitch": 57, "duration": 349, "velocity": 112}, {"time": 72000, "pitch": 64, "duration": 354, "velocity": 112}, {"time": 72240, "pitch": 42, "duration": 89, "velocity": 90}, {"time": 72480, "pitch": 42, "duration": 78, "velocity": 93}, {"time": 72720, "pitch": 42, "duration": 117, "velocity": 120}, {"time": 72720, "pitch": 57, "duration": 380, "velocity": 114}, {"time": 72720, "pitch": 64, "duration": 376, "velocity": 112}, {"time": 72960, "pitch": 42, "duration": 96, "velocity": 98}, {"time": 73200, "pitch": 42, "duration": 99, "velocity": 98}, {"time": 73440, "pitch": 43, "duration": 101, "velocity": 100}, {"time": 73680, "pitch": 43, "duration": 83, "velocity": 86}, {"time": 73920, "pitch": 43, "duration": 115, "velocity": 108}, {"time": 73920, "pitch": 55, "duration": 338, "velocity": 108}, {"time": 73920, "pitch": 62, "duration": 338, "velocity": 108}, {"time": 74160, "pitch": 43, "duration": 101, "velocity": 93}, {"time": 74400, "pitch": 43, "duration": 86, "velocity": 90}, {"time": 74640, "pitch": 43, "duration": 131, "velocity": 111}, {"time": 74640, "pitch": 55, "duration": 345, "velocity": 104}, {"time": 74640, "pitch": 62, "duration": 346, "velocity": 108}, {"time": 74880, "pitch": 43, "duration": 92, "velocity": 90}, {"time": 75120, "pitch": 43, "duration": 92, "velocity": 75}, {"time": 75120, "pitch": 55, "duration": 85, "velocity": 71}, {"time": 75120, "pitch": 62, "duration": 92, "velocity": 76}, {"time": 75360, "pitch": 45, "duration": 102, "velocity": 104}, {"time": 75600, "pitch": 45, "duration": 75, "velocity": 79}, {"time": 75840, "pitch": 45, "duration": 110, "velocity": 111}, {"time": 75840, "pitch": 57, "duration": 383, "velocity": 112}, {"time": 75840, "pitch": 64, "duration": 362, "velocity": 112}, {"time": 76080, "pitch": 45, "duration": 79, "velocity": 74}, {"time": 76320, "pitch": 45, "duration": 90, "velocity": 72}, {"time": 76560, "pitch": 45, "duration": 118, "velocity": 111}, {"time": 76560, "pitch": 57, "duration": 329, "velocity": 104}, {"time": 76560, "pitch": 64, "duration": 328, "velocity": 104}, {"time": 76800, "pitch": 45, "duration": 85, "velocity": 74}, {"time": 77040, "pitch": 45, "duration": 65, "velocity": 75}, {"time": 77040, "pitch": 57, "duration": 59, "velocity": 74}, {"time": 77040, "pitch": 64, "duration": 58, "velocity": 76}, {"time": 77280, "pitch": 50, "duration": 115, "velocity": 104}, {"time": 77520, "pitch": 50, "duration": 105, "velocity": 76}, {"time": 77760, "pitch": 50, "duration": 126, "velocity": 87}, {"time": 77760, "pitch": 57, "duration": 342, "velocity": 112}, {"time": 77760, "pitch": 66, "duration": 341, "velocity": 114}, {"time": 78000, "pitch": 50, "duration": 108, "velocity": 74}, {"time": 78240, "pitch": 50, "duration": 96, "velocity": 77}, {"time": 78480, "pitch": 50, "duration": 130, "velocity": 95}, {"time": 78480, "pitch": 57, "duration": 392, "velocity": 108}, {"time": 78480, "pitch": 66, "duration": 395, "velocity": 111}, {"time": 78720, "pitch": 50, "duration": 92, "velocity": 87}, {"time": 78960, "pitch": 50, "duration": 96, "velocity": 85}, {"time": 79200, "pitch": 42, "duration": 125, "velocity": 108}, {"time": 79440, "pitch": 42, "duration": 108, "velocity": 77}, {"time": 79680, "pitch": 42, "duration": 176, "velocity": 112}, {"time": 79680, "pitch": 57, "duration": 349, "velocity": 112}, {"time": 79680, "pitch": 64, "duration": 354, "velocity": 112}, {"time": 79920, "pitch": 42, "duration": 89, "velocity": 90}, {"time": 80160, "pitch": 42, "duration": 78, "velocity": 93}, {"time": 80400, "pitch": 42, "duration": 117, "velocity": 120}, {"time": 80400, "pitch": 57, "duration": 380, "velocity": 114}, {"time": 80400, "pitch": 64, "duration": 376, "velocity": 112}, {"time": 80640, "pitch": 42, "duration": 96, "velocity": 98}, {"time": 80880, "pitch": 42, "duration": 99, "velocity": 98}, {"time": 81120, "pitch": 43, "duration": 101, "velocity": 100}, {"time": 81360, "pitch": 43, "duration": 83, "velocity": 86}, {"time": 81600, "pitch": 43, "duration": 115, "velocity": 108}, {"time": 81600, "pitch": 55, "duration": 338, "velocity": 108}, {"time": 81600, "pitch": 62, "duration": 338, "velocity": 108}, {"time": 81840, "pitch": 43, "duration": 101, "velocity": 93}, {"time": 82080, "pitch": 43, "duration": 86, "velocity": 90}, {"time": 82320, "pitch": 43, "duration": 131, "velocity": 111}, {"time": 82320, "pitch": 55, "duration": 345, "velocity": 104}, {"time": 82320, "pitch": 62, "duration": 346, "velocity": 108}, {"time": 82560, "pitch": 43, "duration": 92, "velocity": 90}, {"time": 82800, "pitch": 43, "duration": 92, "velocity": 75}, {"time": 82800, "pitch": 55, "duration": 85, "velocity": 71}, {"time": 82800, "pitch": 62, "duration": 92, "velocity": 76}, {"time": 83040, "pitch": 45, "duration": 102, "velocity": 104}, {"time": 83280, "pitch": 45, "duration": 75, "velocity": 79}, {"time": 83520, "pitch": 45, "duration": 110, "velocity": 111}, {"time": 83520, "pitch": 57, "duration": 383, "velocity": 112}, {"time": 83520, "pitch": 64, "duration": 362, "velocity": 112}, {"time": 83760, "pitch": 45, "duration": 79, "velocity": 74}, {"time": 84000, "pitch": 45, "duration": 90, "velocity": 72}, {"time": 84240, "pitch": 45, "duration": 118, "velocity": 111}, {"time": 84240, "pitch": 57, "duration": 329, "velocity": 104}, {"time": 84240, "pitch": 64, "duration": 328, "velocity": 104}, {"time": 84480, "pitch": 45, "duration": 85, "velocity": 74}, {"time": 84720, "pitch": 45, "duration": 65, "velocity": 75}, {"time": 84720, "pitch": 57, "duration": 59, "velocity": 74}, {"time": 84720, "pitch": 64, "duration": 58, "velocity": 76}, {"time": 84960, "pitch": 50, "duration": 115, "velocity": 104}, {"time": 85200, "pitch": 50, "duration": 105, "velocity": 76}, {"time": 85440, "pitch": 50, "duration": 126, "velocity": 87}, {"time": 85440, "pitch": 57, "duration": 342, "velocity": 112}, {"time": 85440, "pitch": 66, "duration": 341, "velocity": 114}, {"time": 85680, "pitch": 50, "duration": 108, "velocity": 74}, {"time": 85920, "pitch": 50, "duration": 96, "velocity": 77}, {"time": 86160, "pitch": 50, "duration": 130, "velocity": 95}, {"time": 86160, "pitch": 57, "duration": 392, "velocity": 108}, {"time": 86160, "pitch": 66, "duration": 395, "velocity": 111}, {"time": 86400, "pitch": 50, "duration": 92, "velocity": 87}, {"time": 86640, "pitch": 50, "duration": 96, "velocity": 85}, {"time": 86880, "pitch": 42, "duration": 125, "velocity": 108}, {"time": 87120, "pitch": 42, "duration": 108, "velocity": 77}, {"time": 87360, "pitch": 42, "duration": 176, "velocity": 112}, {"time": 87360, "pitch": 57, "duration": 349, "velocity": 112}, {"time": 87360, "pitch": 64, "duration": 354, "velocity": 112}, {"time": 87600, "pitch": 42, "duration": 89, "velocity": 90}, {"time": 87840, "pitch": 42, "duration": 78, "velocity": 93}, {"time": 88080, "pitch": 42, "duration": 117, "velocity": 120}, {"time": 88080, "pitch": 57, "duration": 380, "velocity": 114}, {"time": 88080, "pitch": 64, "duration": 376, "velocity": 112}, {"time": 88320, "pitch": 42, "duration": 96, "velocity": 98}, {"time": 88560, "pitch": 42, "duration": 99, "velocity": 98}, {"time": 88800, "pitch": 43, "duration": 101, "velocity": 100}, {"time": 89040, "pitch": 43, "duration": 83, "velocity": 86}, {"time": 89280, "pitch": 43, "duration": 115, "velocity": 108}, {"time": 89280, "pitch": 55, "duration": 338, "velocity": 108}, {"time": 89280, "pitch": 62, "duration": 338, "velocity": 108}, {"time": 89520, "pitch": 43, "duration": 101, "velocity": 93}, {"time": 89760, "pitch": 43, "duration": 86, "velocity": 90}, {"time": 90000, "pitch": 43, "duration": 131, "velocity": 111}, {"time": 90000, "pitch": 55, "duration": 345, "velocity": 104}, {"time": 90000, "pitch": 62, "duration": 346, "velocity": 108}, {"time": 90240, "pitch": 43, "duration": 92, "velocity": 90}, {"time": 90480, "pitch": 43, "duration": 92, "velocity": 75}, {"time": 90480, "pitch": 55, "duration": 85, "velocity": 71}, {"time": 90480, "pitch": 62, "duration": 92, "velocity": 76}, {"time": 90720, "pitch": 45, "duration": 102, "velocity": 104}, {"time": 90960, "pitch": 45, "duration": 75, "velocity": 79}, {"time": 91200, "pitch": 45, "duration": 110, "velocity": 111}, {"time": 91200, "pitch": 57, "duration": 383, "velocity": 112}, {"time": 91200, "pitch": 64, "duration": 362, "velocity": 112}, {"time": 91440, "pitch": 45, "duration": 79, "velocity": 74}, {"time": 91680, "pitch": 45, "duration": 90, "velocity": 72}, {"time": 91920, "pitch": 45, "duration": 118, "velocity": 111}, {"time": 91920, "pitch": 57, "duration": 329, "velocity": 104}, {"time": 91920, "pitch": 64, "duration": 328, "velocity": 104}, {"time": 92160, "pitch": 45, "duration": 85, "velocity": 74}, {"time": 92400, "pitch": 45, "duration": 65, "velocity": 75}, {"time": 92400, "pitch": 57, "duration": 59, "velocity": 74}, {"time": 92400, "pitch": 64, "duration": 58, "velocity": 76}, {"time": 92640, "pitch": 50, "duration": 115, "velocity": 104}, {"time": 92880, "pitch": 50, "duration": 105, "velocity": 76}, {"time": 93120, "pitch": 50, "duration": 126, "velocity": 87}, {"time": 93120, "pitch": 57, "duration": 342, "velocity": 112}, {"time": 93120, "pitch": 66, "duration": 341, "velocity": 114}, {"time": 93360, "pitch": 50, "duration": 108, "velocity": 74}, {"time": 93600, "pitch": 50, "duration": 96, "velocity": 77}, {"time": 93840, "pitch": 50, "duration": 130, "velocity": 95}, {"time": 93840, "pitch": 57, "duration": 392, "velocity": 108}, {"time": 93840, "pitch": 66, "duration": 395, "velocity": 111}, {"time": 94080, "pitch": 50, "duration": 92, "velocity": 87}, {"time": 94320, "pitch": 50, "duration": 96, "velocity": 85}, {"time": 94560, "pitch": 42, "duration": 125, "velocity": 108}, {"time": 94800, "pitch": 42, "duration": 108, "velocity": 77}, {"time": 95040, "pitch": 42, "duration": 176, "velocity": 112}, {"time": 95040, "pitch": 57, "duration": 349, "velocity": 112}, {"time": 95040, "pitch": 64, "duration": 354, "velocity": 112}, {"time": 95280, "pitch": 42, "duration": 89, "velocity": 90}, {"time": 95520, "pitch": 42, "duration": 78, "velocity": 93}, {"time": 95760, "pitch": 42, "duration": 117, "velocity": 120}, {"time": 95760, "pitch": 57, "duration": 380, "velocity": 114}, {"time": 95760, "pitch": 64, "duration": 376, "velocity": 112}, {"time": 96000, "pitch": 42, "duration": 96, "velocity": 98}, {"time": 96240, "pitch": 42, "duration": 99, "velocity": 98}, {"time": 96480, "pitch": 43, "duration": 101, "velocity": 100}, {"time": 96720, "pitch": 43, "duration": 83, "velocity": 86}, {"time": 96960, "pitch": 43, "duration": 115, "velocity": 108}, {"time": 96960, "pitch": 55, "duration": 338, "velocity": 108}, {"time": 96960, "pitch": 62, "duration": 338, "velocity": 108}, {"time": 97200, "pitch": 43, "duration": 101, "velocity": 93}, {"time": 97440, "pitch": 43, "duration": 86, "velocity": 90}, {"time": 97680, "pitch": 43, "duration": 131, "velocity": 111}, {"time": 97680, "pitch": 55, "duration": 345, "velocity": 104}, {"time": 97680, "pitch": 62, "duration": 346, "velocity": 108}, {"time": 97920, "pitch": 43, "duration": 92, "velocity": 90}, {"time": 98160, "pitch": 43, "duration": 92, "velocity": 75}, {"time": 98160, "pitch": 55, "duration": 85, "velocity": 71}, {"time": 98160, "pitch": 62, "duration": 92, "velocity": 76}, {"time": 98400, "pitch": 45, "duration": 102, "velocity": 104}, {"time": 98640, "pitch": 45, "duration": 75, "velocity": 79}, {"time": 98880, "pitch": 45, "duration": 110, "velocity": 111}, {"time": 98880, "pitch": 57, "duration": 383, "velocity": 112}, {"time": 98880, "pitch": 64, "duration": 362, "velocity": 112}, {"time": 99120, "pitch": 45, "duration": 79, "velocity": 74}, {"time": 99360, "pitch": 45, "duration": 90, "velocity": 72}, {"time": 99600, "pitch": 45, "duration": 118, "velocity": 111}, {"time": 99600, "pitch": 57, "duration": 329, "velocity": 104}, {"time": 99600, "pitch": 64, "duration": 328, "velocity": 104}, {"time": 99840, "pitch": 45, "duration": 85, "velocity": 74}, {"time": 100080, "pitch": 45, "duration": 65, "velocity": 75}, {"time": 100080, "pitch": 57, "duration": 59, "velocity": 74}, {"time": 100080, "pitch": 64, "duration": 58, "velocity": 76}, {"time": 100320, "pitch": 55, "duration": 1765, "velocity": 114}, {"time": 100320, "pitch": 59, "duration": 1814, "velocity": 117}, {"time": 100320, "pitch": 62, "duration": 1812, "velocity": 117}, {"time": 102240, "pitch": 57, "duration": 708, "velocity": 93}, {"time": 102240, "pitch": 61, "duration": 704, "velocity": 98}, {"time": 102240, "pitch": 64, "duration": 702, "velocity": 98}, {"time": 102960, "pitch": 57, "duration": 846, "velocity": 85}, {"time": 102960, "pitch": 61, "duration": 874, "velocity": 100}, {"time": 102960, "pitch": 64, "duration": 880, "velocity": 108}, {"time": 103920, "pitch": 57, "duration": 436, "velocity": 98}, {"time": 103920, "pitch": 62, "duration": 451, "velocity": 114}, {"time": 103920, "pitch": 66, "duration": 487, "velocity": 100}, {"time": 104400, "pitch": 57, "duration": 130, "velocity": 67}, {"time": 104640, "pitch": 57, "duration": 238, "velocity": 100}, {"time": 104640, "pitch": 62, "duration": 456, "velocity": 112}, {"time": 104640, "pitch": 66, "duration": 399, "velocity": 108}, {"time": 104880, "pitch": 57, "duration": 154, "velocity": 61}, {"time": 105120, "pitch": 57, "duration": 145, "velocity": 65}, {"time": 105120, "pitch": 62, "duration": 124, "velocity": 58}, {"time": 105120, "pitch": 66, "duration": 143, "velocity": 56}, {"time": 105360, "pitch": 57, "duration": 114, "velocity": 74}, {"time": 105600, "pitch": 57, "duration": 207, "velocity": 100}, {"time": 105600, "pitch": 62, "duration": 312, "velocity": 108}, {"time": 105600, "pitch": 66, "duration": 315, "velocity": 104}, {"time": 105840, "pitch": 57, "duration": 65, "velocity": 62}, {"time": 106080, "pitch": 50, "duration": 115, "velocity": 104}, {"time": 106320, "pitch": 50, "duration": 105, "velocity": 76}, {"time": 106560, "pitch": 50, "duration": 126, "velocity": 87}, {"time": 106560, "pitch": 57, "duration": 342, "velocity": 112}, {"time": 106560, "pitch": 66, "duration": 341, "velocity": 114}, {"time": 106800, "pitch": 50, "duration": 108, "velocity": 74}, {"time": 107040, "pitch": 50, "duration": 96, "velocity": 77}, {"time": 107280, "pitch": 50, "duration": 130, "velocity": 95}, {"time": 107280, "pitch": 57, "duration": 392, "velocity": 108}, {"time": 107280, "pitch": 66, "duration": 395, "velocity": 111}, {"time": 107520, "pitch": 50, "duration": 92, "velocity": 87}, {"time": 107760, "pitch": 50, "duration": 96, "velocity": 85}, {"time": 108000, "pitch": 57, "duration": 161, "velocity": 85}, {"time": 108000, "pitch": 62, "duration": 157, "velocity": 95}, {"time": 108000, "pitch": 66, "duration": 161, "velocity": 87}, {"time": 108240, "pitch": 57, "duration": 130, "velocity": 67}, {"time": 108240, "pitch": 62, "duration": 131, "velocity": 69}, {"time": 108240, "pitch": 66, "duration": 152, "velocity": 75}, {"time": 108480, "pitch": 57, "duration": 138, "velocity": 63}, {"time": 108480, "pitch": 62, "duration": 135, "velocity": 63}, {"time": 108480, "pitch": 66, "duration": 133, "velocity": 64}, {"time": 108720, "pitch": 57, "duration": 205, "velocity": 98}, {"time": 108720, "pitch": 62, "duration": 213, "velocity": 104}, {"time": 108720, "pitch": 66, "duration": 203, "velocity": 111}, {"time": 108960, "pitch": 57, "duration": 120, "velocity": 66}, {"time": 108960, "pitch": 62, "duration": 121, "velocity": 67}, {"time": 108960, "pitch": 66, "duration": 110, "velocity": 71}, {"time": 109200, "pitch": 57, "duration": 189, "velocity": 98}, {"time": 109200, "pitch": 62, "duration": 183, "velocity": 104}, {"time": 109200, "pitch": 66, "duration": 178, "velocity": 111}, {"time": 109440, "pitch": 57, "duration": 103, "velocity": 67}, {"time": 109440, "pitch": 62, "duration": 104, "velocity": 73}, {"time": 109440, "pitch": 66, "duration": 100, "velocity": 75}, {"time": 109680, "pitch": 57, "duration": 175, "velocity": 73}, {"time": 109680, "pitch": 62, "duration": 163, "velocity": 76}, {"time": 109680, "pitch": 66, "duration": 156, "velocity": 79}, {"time": 109920, "pitch": 57, "duration": 147, "velocity": 81}, {"time": 109920, "pitch": 61, "duration": 154, "velocity": 90}, {"time": 109920, "pitch": 64, "duration": 149, "velocity": 93}, {"time": 110160, "pitch": 57, "duration": 123, "velocity": 61}, {"time": 110160, "pitch": 61, "duration": 124, "velocity": 67}, {"time": 110160, "pitch": 64, "duration": 117, "velocity": 64}, {"time": 110400, "pitch": 57, "duration": 140, "velocity": 76}, {"time": 110400, "pitch": 61, "duration": 126, "velocity": 85}, {"time": 110400, "pitch": 64, "duration": 135, "velocity": 86}, {"time": 110640, "pitch": 57, "duration": 193, "velocity": 95}, {"time": 110640, "pitch": 61, "duration": 186, "velocity": 104}, {"time": 110640, "pitch": 64, "duration": 186, "velocity": 98}, {"time": 110880, "pitch": 57, "duration": 124, "velocity": 68}, {"time": 110880, "pitch": 61, "duration": 127, "velocity": 74}, {"time": 110880, "pitch": 64, "duration": 128, "velocity": 73}, {"time": 111120, "pitch": 57, "duration": 192, "velocity": 100}, {"time": 111120, "pitch": 61, "duration": 180, "velocity": 108}, {"time": 111120, "pitch": 64, "duration": 174, "velocity": 98}, {"time": 111360, "pitch": 57, "duration": 131, "velocity": 64}, {"time": 111360, "pitch": 61, "duration": 130, "velocity": 73}, {"time": 111360, "pitch": 64, "duration": 130, "velocity": 71}, {"time": 111600, "pitch": 57, "duration": 146, "velocity": 64}, {"time": 111600, "pitch": 61, "duration": 155, "velocity": 69}, {"time": 111600, "pitch": 64, "duration": 167, "velocity": 73}, {"time": 111840, "pitch": 59, "duration": 158, "velocity": 74}, {"time": 111840, "pitch": 62, "duration": 168, "velocity": 86}, {"time": 111840, "pitch": 66, "duration": 165, "velocity": 79}, {"time": 112080, "pitch": 59, "duration": 113, "velocity": 63}, {"time": 112080, "pitch": 62, "duration": 132, "velocity": 65}, {"time": 112080, "pitch": 66, "duration": 125, "velocity": 67}, {"time": 112320, "pitch": 59, "duration": 138, "velocity": 69}, {"time": 112320, "pitch": 62, "duration": 144, "velocity": 79}, {"time": 112320, "pitch": 66, "duration": 143, "velocity": 77}, {"time": 112560, "pitch": 59, "duration": 198, "velocity": 93}, {"time": 112560, "pitch": 62, "duration": 200, "velocity": 98}, {"time": 112560, "pitch": 66, "duration": 199, "velocity": 98}, {"time": 112800, "pitch": 59, "duration": 97, "velocity": 67}, {"time": 112800, "pitch": 62, "duration": 127, "velocity": 74}, {"time": 112800, "pitch": 66, "duration": 115, "velocity": 72}, {"time": 113040, "pitch": 59, "duration": 178, "velocity": 104}, {"time": 113040, "pitch": 62, "duration": 177, "velocity": 111}, {"time": 113040, "pitch": 66, "duration": 175, "velocity": 108}, {"time": 113280, "pitch": 59, "duration": 82, "velocity": 65}, {"time": 113280, "pitch": 62, "duration": 109, "velocity": 73}, {"time": 113280, "pitch": 66, "duration": 107, "velocity": 74}, {"time": 113520, "pitch": 59, "duration": 149, "velocity": 65}, {"time": 113520, "pitch": 62, "duration": 152, "velocity": 68}, {"time": 113520, "pitch": 66, "duration": 147, "velocity": 72}, {"time": 113760, "pitch": 57, "duration": 142, "velocity": 81}, {"time": 113760, "pitch": 62, "duration": 152, "velocity": 86}, {"time": 113760, "pitch": 66, "duration": 144, "velocity": 85}, {"time": 114000, "pitch": 57, "duration": 114, "velocity": 62}, {"time": 114000, "pitch": 62, "duration": 127, "velocity": 66}, {"time": 114000, "pitch": 66, "duration": 109, "velocity": 64}, {"time": 114240, "pitch": 57, "duration": 139, "velocity": 68}, {"time": 114240, "pitch": 62, "duration": 143, "velocity": 74}, {"time": 114240, "pitch": 66, "duration": 135, "velocity": 75}, {"time": 114480, "pitch": 57, "duration": 182, "velocity": 93}, {"time": 114480, "pitch": 62, "duration": 186, "velocity": 108}, {"time": 114480, "pitch": 66, "duration": 186, "velocity": 108}, {"time": 114720, "pitch": 57, "duration": 127, "velocity": 67}, {"time": 114720, "pitch": 62, "duration": 141, "velocity": 74}, {"time": 114720, "pitch": 66, "duration": 142, "velocity": 73}, {"time": 114960, "pitch": 57, "duration": 189, "velocity": 95}, {"time": 114960, "pitch": 62, "duration": 182, "velocity": 104}, {"time": 114960, "pitch": 66, "duration": 171, "velocity": 108}, {"time": 115200, "pitch": 57, "duration": 121, "velocity": 69}, {"time": 115200, "pitch": 62, "duration": 128, "velocity": 72}, {"time": 115200, "pitch": 66, "duration": 127, "velocity": 79}, {"time": 115440, "pitch": 57, "duration": 153, "velocity": 71}, {"time": 115440, "pitch": 62, "duration": 173, "velocity": 73}, {"time": 115440, "pitch": 66, "duration": 177, "velocity": 73}, {"time": 115680, "pitch": 59, "duration": 149, "velocity": 65}, {"time": 115680, "pitch": 62, "duration": 176, "velocity": 83}, {"time": 115680, "pitch": 67, "duration": 195, "velocity": 90}, {"time": 115920, "pitch": 59, "duration": 103, "velocity": 64}, {"time": 115920, "pitch": 62, "duration": 125, "velocity": 70}, {"time": 115920, "pitch": 67, "duration": 121, "velocity": 76}, {"time": 116160, "pitch": 59, "duration": 145, "velocity": 87}, {"time": 116160, "pitch": 62, "duration": 162, "velocity": 98}, {"time": 116160, "pitch": 67, "duration": 166, "velocity": 104}, {"time": 116400, "pitch": 59, "duration": 201, "velocity": 83}, {"time": 116400, "pitch": 62, "duration": 218, "velocity": 90}, {"time": 116400, "pitch": 67, "duration": 197, "velocity": 93}, {"time": 116640, "pitch": 62, "duration": 103, "velocity": 74}, {"time": 116640, "pitch": 67, "duration": 103, "velocity": 77}, {"time": 116760, "pitch": 59, "duration": 88, "velocity": 67}, {"time": 116880, "pitch": 59, "duration": 132, "velocity": 66}, {"time": 116880, "pitch": 62, "duration": 139, "velocity": 67}, {"time": 116880, "pitch": 67, "duration": 149, "velocity": 79}, {"time": 117120, "pitch": 59, "duration": 135, "velocity": 74}, {"time": 117120, "pitch": 62, "duration": 150, "velocity": 81}, {"time": 117120, "pitch": 67, "duration": 150, "velocity": 87}, {"time": 117360, "pitch": 59, "duration": 163, "velocity": 76}, {"time": 117360, "pitch": 62, "duration": 173, "velocity": 85}, {"time": 117360, "pitch": 67, "duration": 169, "velocity": 86}, {"time": 117600, "pitch": 57, "duration": 137, "velocity": 81}, {"time": 117600, "pitch": 62, "duration": 142, "velocity": 81}, {"time": 117600, "pitch": 66, "duration": 139, "velocity": 85}, {"time": 117840, "pitch": 57, "duration": 120, "velocity": 60}, {"time": 117840, "pitch": 62, "duration": 123, "velocity": 65}, {"time": 117840, "pitch": 66, "duration": 120, "velocity": 68}, {"time": 118080, "pitch": 57, "duration": 125, "velocity": 67}, {"time": 118080, "pitch": 62, "duration": 123, "velocity": 70}, {"time": 118080, "pitch": 66, "duration": 124, "velocity": 79}, {"time": 118320, "pitch": 57, "duration": 184, "velocity": 93}, {"time": 118320, "pitch": 62, "duration": 199, "velocity": 104}, {"time": 118320, "pitch": 66, "duration": 193, "velocity": 98}, {"time": 118560, "pitch": 57, "duration": 109, "velocity": 64}, {"time": 118560, "pitch": 62, "duration": 121, "velocity": 70}, {"time": 118560, "pitch": 66, "duration": 109, "velocity": 65}, {"time": 118800, "pitch": 57, "duration": 145, "velocity": 90}, {"time": 118800, "pitch": 62, "duration": 150, "velocity": 100}, {"time": 118800, "pitch": 66, "duration": 150, "velocity": 95}, {"time": 119040, "pitch": 57, "duration": 113, "velocity": 68}, {"time": 119040, "pitch": 62, "duration": 119, "velocity": 76}, {"time": 119040, "pitch": 66, "duration": 112, "velocity": 75}, {"time": 119280, "pitch": 57, "duration": 158, "velocity": 63}, {"time": 119280, "pitch": 62, "duration": 172, "velocity": 66}, {"time": 119280, "pitch": 66, "duration": 160, "velocity": 74}, {"time": 119520, "pitch": 59, "duration": 167, "velocity": 100}, {"time": 119520, "pitch": 62, "duration": 172, "velocity": 108}, {"time": 119520, "pitch": 67, "duration": 163, "velocity": 112}, {"time": 119760, "pitch": 59, "duration": 107, "velocity": 64}, {"time": 119760, "pitch": 62, "duration": 122, "velocity": 64}, {"time": 119760, "pitch": 67, "duration": 110, "velocity": 64}, {"time": 120000, "pitch": 59, "duration": 120, "velocity": 63}, {"time": 120000, "pitch": 62, "duration": 136, "velocity": 74}, {"time": 120000, "pitch": 67, "duration": 129, "velocity": 76}, {"time": 120240, "pitch": 59, "duration": 161, "velocity": 90}, {"time": 120240, "pitch": 62, "duration": 185, "velocity": 111}, {"time": 120240, "pitch": 67, "duration": 174, "velocity": 111}, {"time": 120480, "pitch": 59, "duration": 128, "velocity": 67}, {"time": 120480, "pitch": 62, "duration": 155, "velocity": 74}, {"time": 120480, "pitch": 67, "duration": 145, "velocity": 75}, {"time": 120720, "pitch": 59, "duration": 147, "velocity": 67}, {"time": 120720, "pitch": 62, "duration": 168, "velocity": 71}, {"time": 120720, "pitch": 67, "duration": 154, "velocity": 76}, {"time": 120960, "pitch": 59, "duration": 160, "velocity": 71}, {"time": 120960, "pitch": 62, "duration": 168, "velocity": 76}, {"time": 120960, "pitch": 67, "duration": 165, "velocity": 79}, {"time": 121200, "pitch": 59, "duration": 169, "velocity": 83}, {"time": 121200, "pitch": 62, "duration": 175, "velocity": 87}, {"time": 121200, "pitch": 67, "duration": 163, "velocity": 98}, {"time": 121440, "pitch": 57, "duration": 168, "velocity": 83}, {"time": 121440, "pitch": 61, "duration": 176, "velocity": 90}, {"time": 121440, "pitch": 64, "duration": 169, "velocity": 95}, {"time": 121680, "pitch": 57, "duration": 139, "velocity": 63}, {"time": 121680, "pitch": 61, "duration": 134, "velocity": 74}, {"time": 121680, "pitch": 64, "duration": 126, "velocity": 73}, {"time": 121920, "pitch": 57, "duration": 111, "velocity": 62}, {"time": 121920, "pitch": 61, "duration": 116, "velocity": 67}, {"time": 121920, "pitch": 64, "duration": 114, "velocity": 65}, {"time": 122160, "pitch": 57, "duration": 168, "velocity": 104}, {"time": 122160, "pitch": 61, "duration": 167, "velocity": 111}, {"time": 122160, "pitch": 64, "duration": 173, "velocity": 111}, {"time": 122400, "pitch": 57, "duration": 104, "velocity": 63}, {"time": 122400, "pitch": 61, "duration": 106, "velocity": 65}, {"time": 122400, "pitch": 64, "duration": 115, "velocity": 73}, {"time": 122640, "pitch": 57, "duration": 140, "velocity": 67}, {"time": 122640, "pitch": 61, "duration": 133, "velocity": 67}, {"time": 122640, "pitch": 64, "duration": 142, "velocity": 77}, {"time": 122880, "pitch": 57, "duration": 159, "velocity": 77}, {"time": 122880, "pitch": 61, "duration": 165, "velocity": 93}, {"time": 122880, "pitch": 64, "duration": 168, "velocity": 90}, {"time": 123120, "pitch": 57, "duration": 138, "velocity": 87}, {"time": 123120, "pitch": 61, "duration": 140, "velocity": 104}, {"time": 123120, "pitch": 64, "duration": 156, "velocity": 95}, {"time": 130800, "pitch": 59, "duration": 375, "velocity": 114}, {"time": 130800, "pitch": 62, "duration": 369, "velocity": 114}, {"time": 130800, "pitch": 67, "duration": 367, "velocity": 111}, {"time": 131280, "pitch": 59, "duration": 68, "velocity": 83}, {"time": 131280, "pitch": 62, "duration": 59, "velocity": 86}, {"time": 131280, "pitch": 67, "duration": 66, "velocity": 95}, {"time": 131520, "pitch": 59, "duration": 340, "velocity": 114}, {"time": 131520, "pitch": 62, "duration": 336, "velocity": 120}, {"time": 131520, "pitch": 67, "duration": 340, "velocity": 117}, {"time": 132000, "pitch": 59, "duration": 245, "velocity": 112}, {"time": 132000, "pitch": 62, "duration": 239, "velocity": 120}, {"time": 132000, "pitch": 67, "duration": 239, "velocity": 120}, {"time": 132240, "pitch": 59, "duration": 5, "velocity": 65}, {"time": 132240, "pitch": 62, "duration": 47, "velocity": 75}, {"time": 132240, "pitch": 67, "duration": 53, "velocity": 79}, {"time": 132720, "pitch": 59, "duration": 381, "velocity": 117}, {"time": 132720, "pitch": 62, "duration": 378, "velocity": 117}, {"time": 132720, "pitch": 67, "duration": 364, "velocity": 114}, {"time": 133200, "pitch": 59, "duration": 61, "velocity": 77}, {"time": 133200, "pitch": 62, "duration": 58, "velocity": 85}, {"time": 133200, "pitch": 67, "duration": 57, "velocity": 86}, {"time": 133440, "pitch": 59, "duration": 372, "velocity": 112}, {"time": 133440, "pitch": 62, "duration": 363, "velocity": 114}, {"time": 133440, "pitch": 67, "duration": 351, "velocity": 114}, {"time": 133920, "pitch": 59, "duration": 223, "velocity": 108}, {"time": 133920, "pitch": 62, "duration": 223, "velocity": 108}, {"time": 133920, "pitch": 67, "duration": 218, "velocity": 114}, {"time": 134160, "pitch": 59, "duration": 73, "velocity": 87}, {"time": 134160, "pitch": 62, "duration": 60, "velocity": 90}, {"time": 134160, "pitch": 67, "duration": 73, "velocity": 79}, {"time": 134640, "pitch": 59, "duration": 372, "velocity": 112}, {"time": 134640, "pitch": 62, "duration": 368, "velocity": 112}, {"time": 134640, "pitch": 67, "duration": 368, "velocity": 114}, {"time": 135120, "pitch": 59, "duration": 55, "velocity": 98}, {"time": 135120, "pitch": 62, "duration": 54, "velocity": 104}, {"time": 135120, "pitch": 67, "duration": 58, "velocity": 104}, {"time": 135360, "pitch": 59, "duration": 368, "velocity": 117}, {"time": 135360, "pitch": 62, "duration": 359, "velocity": 120}, {"time": 135360, "pitch": 67, "duration": 359, "velocity": 117}, {"time": 135840, "pitch": 59, "duration": 65, "velocity": 108}, {"time": 135840, "pitch": 62, "duration": 59, "velocity": 111}, {"time": 135840, "pitch": 67, "duration": 59, "velocity": 111}, {"time": 136080, "pitch": 59, "duration": 381, "velocity": 112}, {"time": 136080, "pitch": 62, "duration": 383, "velocity": 112}, {"time": 136080, "pitch": 67, "duration": 390, "velocity": 112}, {"time": 136560, "pitch": 61, "duration": 337, "velocity": 108}, {"time": 136560, "pitch": 64, "duration": 329, "velocity": 117}, {"time": 136560, "pitch": 69, "duration": 334, "velocity": 114}, {"time": 137040, "pitch": 61, "duration": 58, "velocity": 81}, {"time": 137040, "pitch": 64, "duration": 52, "velocity": 95}, {"time": 137040, "pitch": 69, "duration": 61, "velocity": 87}, {"time": 137280, "pitch": 61, "duration": 129, "velocity": 111}, {"time": 137280, "pitch": 64, "duration": 115, "velocity": 117}, {"time": 137280, "pitch": 69, "duration": 114, "velocity": 108}, {"time": 137520, "pitch": 61, "duration": 76, "velocity": 87}, {"time": 137520, "pitch": 64, "duration": 69, "velocity": 100}, {"time": 137520, "pitch": 69, "duration": 79, "velocity": 90}, {"time": 137760, "pitch": 61, "duration": 228, "velocity": 108}, {"time": 137760, "pitch": 64, "duration": 224, "velocity": 117}, {"time": 137760, "pitch": 69, "duration": 217, "velocity": 111}, {"time": 138000, "pitch": 61, "duration": 84, "velocity": 74}, {"time": 138000, "pitch": 64, "duration": 76, "velocity": 86}, {"time": 138000, "pitch": 69, "duration": 78, "velocity": 73}, {"time": 138240, "pitch": 61, "duration": 246, "velocity": 95}, {"time": 138240, "pitch": 64, "duration": 235, "velocity": 108}, {"time": 138240, "pitch": 69, "duration": 227, "velocity": 100}, {"time": 138720, "pitch": 50, "duration": 115, "velocity": 104}, {"time": 138960, "pitch": 50, "duration": 105, "velocity": 76}, {"time": 139200, "pitch": 50, "duration": 126, "velocity": 87}, {"time": 139200, "pitch": 57, "duration": 342, "velocity": 112}, {"time": 139200, "pitch": 66, "duration": 341, "velocity": 114}, {"time": 139440, "pitch": 50, "duration": 108, "velocity": 74}, {"time": 139680, "pitch": 50, "duration": 96, "velocity": 77}, {"time": 139920, "pitch": 50, "duration": 130, "velocity": 95}, {"time": 139920, "pitch": 57, "duration": 392, "velocity": 108}, {"time": 139920, "pitch": 66, "duration": 395, "velocity": 111}, {"time": 140160, "pitch": 50, "duration": 92, "velocity": 87}, {"time": 140400, "pitch": 50, "duration": 96, "velocity": 85}, {"time": 140640, "pitch": 42, "duration": 125, "velocity": 108}, {"time": 140880, "pitch": 42, "duration": 108, "velocity": 77}, {"time": 141120, "pitch": 42, "duration": 176, "velocity": 112}, {"time": 141120, "pitch": 57, "duration": 349, "velocity": 112}, {"time": 141120, "pitch": 64, "duration": 354, "velocity": 112}, {"time": 141360, "pitch": 42, "duration": 89, "velocity": 90}, {"time": 141600, "pitch": 42, "duration": 78, "velocity": 93}, {"time": 141840, "pitch": 42, "duration": 117, "velocity": 120}, {"time": 141840, "pitch": 57, "duration": 380, "velocity": 114}, {"time": 141840, "pitch": 64, "duration": 376, "velocity": 112}, {"time": 142080, "pitch": 42, "duration": 96, "velocity": 98}, {"time": 142320, "pitch": 42, "duration": 99, "velocity": 98}, {"time": 142560, "pitch": 43, "duration": 101, "velocity": 100}, {"time": 142800, "pitch": 43, "duration": 83, "velocity": 86}, {"time": 143040, "pitch": 43, "duration": 115, "velocity": 108}, {"time": 143040, "pitch": 55, "duration": 338, "velocity": 108}, {"time": 143040, "pitch": 62, "duration": 338, "velocity": 108}, {"time": 143280, "pitch": 43, "duration": 101, "velocity": 93}, {"time": 143520, "pitch": 43, "duration": 86, "velocity": 90}, {"time": 143760, "pitch": 43, "duration": 131, "velocity": 111}, {"time": 143760, "pitch": 55, "duration": 345, "velocity": 104}, {"time": 143760, "pitch": 62, "duration": 346, "velocity": 108}, {"time": 144000, "pitch": 43, "duration": 92, "velocity": 90}, {"time": 144240, "pitch": 43, "duration": 92, "velocity": 75}, {"time": 144240, "pitch": 55, "duration": 85, "velocity": 71}, {"time": 144240, "pitch": 62, "duration": 92, "velocity": 76}, {"time": 144480, "pitch": 45, "duration": 102, "velocity": 104}, {"time": 144720, "pitch": 45, "duration": 75, "velocity": 79}, {"time": 144960, "pitch": 45, "duration": 110, "velocity": 111}, {"time": 144960, "pitch": 57, "duration": 383, "velocity": 112}, {"time": 144960, "pitch": 64, "duration": 362, "velocity": 112}, {"time": 145200, "pitch": 45, "duration": 79, "velocity": 74}, {"time": 145440, "pitch": 45, "duration": 90, "velocity": 72}, {"time": 145680, "pitch": 45, "duration": 118, "velocity": 111}, {"time": 145680, "pitch": 57, "duration": 329, "velocity": 104}, {"time": 145680, "pitch": 64, "duration": 328, "velocity": 104}, {"time": 145920, "pitch": 45, "duration": 85, "velocity": 74}, {"time": 146160, "pitch": 45, "duration": 65, "velocity": 75}, {"time": 146160, "pitch": 57, "duration": 59, "velocity": 74}, {"time": 146160, "pitch": 64, "duration": 58, "velocity": 76}, {"time": 146400, "pitch": 50, "duration": 115, "velocity": 104}, {"time": 146640, "pitch": 50, "duration": 105, "velocity": 76}, {"time": 146880, "pitch": 50, "duration": 126, "velocity": 87}, {"time": 146880, "pitch": 57, "duration": 342, "velocity": 112}, {"time": 146880, "pitch": 66, "duration": 341, "velocity": 114}, {"time": 147120, "pitch": 50, "duration": 108, "velocity": 74}, {"time": 147360, "pitch": 50, "duration": 96, "velocity": 77}, {"time": 147600, "pitch": 50, "duration": 130, "velocity": 95}, {"time": 147600, "pitch": 57, "duration": 392, "velocity": 108}, {"time": 147600, "pitch": 66, "duration": 395, "velocity": 111}, {"time": 147840, "pitch": 50, "duration": 92, "velocity": 87}, {"time": 148080, "pitch": 50, "duration": 96, "velocity": 85}, {"time": 148320, "pitch": 42, "duration": 125, "velocity": 108}, {"time": 148560, "pitch": 42, "duration": 108, "velocity": 77}, {"time": 148800, "pitch": 42, "duration": 176, "velocity": 112}, {"time": 148800, "pitch": 57, "duration": 349, "velocity": 112}, {"time": 148800, "pitch": 64, "duration": 354, "velocity": 112}, {"time": 149040, "pitch": 42, "duration": 89, "velocity": 90}, {"time": 149280, "pitch": 42, "duration": 78, "velocity": 93}, {"time": 149520, "pitch": 42, "duration": 117, "velocity": 120}, {"time": 149520, "pitch": 57, "duration": 380, "velocity": 114}, {"time": 149520, "pitch": 64, "duration": 376, "velocity": 112}, {"time": 149760, "pitch": 42, "duration": 96, "velocity": 98}, {"time": 150000, "pitch": 42, "duration": 99, "velocity": 98}, {"time": 150240, "pitch": 43, "duration": 101, "velocity": 100}, {"time": 150480, "pitch": 43, "duration": 83, "velocity": 86}, {"time": 150720, "pitch": 43, "duration": 115, "velocity": 108}, {"time": 150720, "pitch": 55, "duration": 338, "velocity": 108}, {"time": 150720, "pitch": 62, "duration": 338, "velocity": 108}, {"time": 150960, "pitch": 43, "duration": 101, "velocity": 93}, {"time": 151200, "pitch": 43, "duration": 86, "velocity": 90}, {"time": 151440, "pitch": 43, "duration": 131, "velocity": 111}, {"time": 151440, "pitch": 55, "duration": 345, "velocity": 104}, {"time": 151440, "pitch": 62, "duration": 346, "velocity": 108}, {"time": 151680, "pitch": 43, "duration": 92, "velocity": 90}, {"time": 151920, "pitch": 43, "duration": 92, "velocity": 75}, {"time": 151920, "pitch": 55, "duration": 85, "velocity": 71}, {"time": 151920, "pitch": 62, "duration": 92, "velocity": 76}, {"time": 152160, "pitch": 45, "duration": 102, "velocity": 104}, {"time": 152400, "pitch": 45, "duration": 75, "velocity": 79}, {"time": 152640, "pitch": 45, "duration": 110, "velocity": 111}, {"time": 152640, "pitch": 57, "duration": 383, "velocity": 112}, {"time": 152640, "pitch": 64, "duration": 362, "velocity": 112}, {"time": 152880, "pitch": 45, "duration": 79, "velocity": 74}, {"time": 153120, "pitch": 45, "duration": 90, "velocity": 72}, {"time": 153360, "pitch": 45, "duration": 118, "velocity": 111}, {"time": 153360, "pitch": 57, "duration": 329, "velocity": 104}, {"time": 153360, "pitch": 64, "duration": 328, "velocity": 104}, {"time": 153600, "pitch": 45, "duration": 85, "velocity": 74}, {"time": 153840, "pitch": 45, "duration": 65, "velocity": 75}, {"time": 153840, "pitch": 57, "duration": 59, "velocity": 74}, {"time": 153840, "pitch": 64, "duration": 58, "velocity": 76}, {"time": 154080, "pitch": 50, "duration": 115, "velocity": 104}, {"time": 154320, "pitch": 50, "duration": 105, "velocity": 76}, {"time": 154560, "pitch": 50, "duration": 126, "velocity": 87}, {"time": 154560, "pitch": 57, "duration": 342, "velocity": 112}, {"time": 154560, "pitch": 66, "duration": 341, "velocity": 114}, {"time": 154800, "pitch": 50, "duration": 108, "velocity": 74}, {"time": 155040, "pitch": 50, "duration": 96, "velocity": 77}, {"time": 155280, "pitch": 50, "duration": 130, "velocity": 95}, {"time": 155280, "pitch": 57, "duration": 392, "velocity": 108}, {"time": 155280, "pitch": 66, "duration": 395, "velocity": 111}, {"time": 155520, "pitch": 50, "duration": 92, "velocity": 87}, {"time": 155760, "pitch": 50, "duration": 96, "velocity": 85}, {"time": 156000, "pitch": 42, "duration": 125, "velocity": 108}, {"time": 156240, "pitch": 42, "duration": 108, "velocity": 77}, {"time": 156480, "pitch": 42, "duration": 176, "velocity": 112}, {"time": 156480, "pitch": 57, "duration": 349, "velocity": 112}, {"time": 156480, "pitch": 64, "duration": 354, "velocity": 112}, {"time": 156720, "pitch": 42, "duration": 89, "velocity": 90}, {"time": 156960, "pitch": 42, "duration": 78, "velocity": 93}, {"time": 157200, "pitch": 42, "duration": 117, "velocity": 120}, {"time": 157200, "pitch": 57, "duration": 380, "velocity": 114}, {"time": 157200, "pitch": 64, "duration": 376, "velocity": 112}, {"time": 157440, "pitch": 42, "duration": 96, "velocity": 98}, {"time": 157680, "pitch": 42, "duration": 99, "velocity": 98}, {"time": 157920, "pitch": 43, "duration": 101, "velocity": 100}, {"time": 158160, "pitch": 43, "duration": 83, "velocity": 86}, {"time": 158400, "pitch": 43, "duration": 115, "velocity": 108}, {"time": 158400, "pitch": 55, "duration": 338, "velocity": 108}, {"time": 158400, "pitch": 62, "duration": 338, "velocity": 108}, {"time": 158640, "pitch": 43, "duration": 101, "velocity": 93}, {"time": 158880, "pitch": 43, "duration": 86, "velocity": 90}, {"time": 159120, "pitch": 43, "duration": 131, "velocity": 111}, {"time": 159120, "pitch": 55, "duration": 345, "velocity": 104}, {"time": 159120, "pitch": 62, "duration": 346, "velocity": 108}, {"time": 159360, "pitch": 43, "duration": 92, "velocity": 90}, {"time": 159600, "pitch": 43, "duration": 92, "velocity": 75}, {"time": 159600, "pitch": 55, "duration": 85, "velocity": 71}, {"time": 159600, "pitch": 62, "duration": 92, "velocity": 76}, {"time": 159840, "pitch": 45, "duration": 102, "velocity": 104}, {"time": 160080, "pitch": 45, "duration": 75, "velocity": 79}, {"time": 160320, "pitch": 45, "duration": 110, "velocity": 111}, {"time": 160320, "pitch": 57, "duration": 383, "velocity": 112}, {"time": 160320, "pitch": 64, "duration": 362, "velocity": 112}, {"time": 160560, "pitch": 45, "duration": 79, "velocity": 74}, {"time": 160800, "pitch": 45, "duration": 90, "velocity": 72}, {"time": 161040, "pitch": 45, "duration": 118, "velocity": 111}, {"time": 161040, "pitch": 57, "duration": 329, "velocity": 104}, {"time": 161040, "pitch": 64, "duration": 328, "velocity": 104}, {"time": 161280, "pitch": 45, "duration": 85, "velocity": 74}, {"time": 161520, "pitch": 45, "duration": 65, "velocity": 75}, {"time": 161520, "pitch": 57, "duration": 59, "velocity": 74}, {"time": 161520, "pitch": 64, "duration": 58, "velocity": 76}, {"time": 161760, "pitch": 50, "duration": 115, "velocity": 104}, {"time": 162000, "pitch": 50, "duration": 105, "velocity": 76}, {"time": 162240, "pitch": 50, "duration": 126, "velocity": 87}, {"time": 162240, "pitch": 57, "duration": 342, "velocity": 112}, {"time": 162240, "pitch": 66, "duration": 341, "velocity": 114}, {"time": 162480, "pitch": 50, "duration": 108, "velocity": 74}, {"time": 162720, "pitch": 50, "duration": 96, "velocity": 77}, {"time": 162960, "pitch": 50, "duration": 130, "velocity": 95}, {"time": 162960, "pitch": 57, "duration": 392, "velocity": 108}, {"time": 162960, "pitch": 66, "duration": 395, "velocity": 111}, {"time": 163200, "pitch": 50, "duration": 92, "velocity": 87}, {"time": 163440, "pitch": 50, "duration": 96, "velocity": 85}, {"time": 163680, "pitch": 42, "duration": 125, "velocity": 108}, {"time": 163920, "pitch": 42, "duration": 108, "velocity": 77}, {"time": 164160, "pitch": 42, "duration": 176, "velocity": 112}, {"time": 164160, "pitch": 57, "duration": 349, "velocity": 112}, {"time": 164160, "pitch": 64, "duration": 354, "velocity": 112}, {"time": 164400, "pitch": 42, "duration": 89, "velocity": 90}, {"time": 164640, "pitch": 42, "duration": 78, "velocity": 93}, {"time": 164880, "pitch": 42, "duration": 117, "velocity": 120}, {"time": 164880, "pitch": 57, "duration": 380, "velocity": 114}, {"time": 164880, "pitch": 64, "duration": 376, "velocity": 112}, {"time": 165120, "pitch": 42, "duration": 96, "velocity": 98}, {"time": 165360, "pitch": 42, "duration": 99, "velocity": 98}, {"time": 165600, "pitch": 43, "duration": 101, "velocity": 100}, {"time": 165840, "pitch": 43, "duration": 83, "velocity": 86}, {"time": 166080, "pitch": 43, "duration": 115, "velocity": 108}, {"time": 166080, "pitch": 55, "duration": 338, "velocity": 108}, {"time": 166080, "pitch": 62, "duration": 338, "velocity": 108}, {"time": 166320, "pitch": 43, "duration": 101, "velocity": 93}, {"time": 166560, "pitch": 43, "duration": 86, "velocity": 90}, {"time": 166800, "pitch": 43, "duration": 131, "velocity": 111}, {"time": 166800, "pitch": 55, "duration": 345, "velocity": 104}, {"time": 166800, "pitch": 62, "duration": 346, "velocity": 108}, {"time": 167040, "pitch": 43, "duration": 92, "velocity": 90}, {"time": 167280, "pitch": 43, "duration": 92, "velocity": 75}, {"time": 167280, "pitch": 55, "duration": 85, "velocity": 71}, {"time": 167280, "pitch": 62, "duration": 92, "velocity": 76}, {"time": 167520, "pitch": 45, "duration": 102, "velocity": 104}, {"time": 167760, "pitch": 45, "duration": 75, "velocity": 79}, {"time": 168000, "pitch": 45, "duration": 110, "velocity": 111}, {"time": 168000, "pitch": 57, "duration": 383, "velocity": 112}, {"time": 168000, "pitch": 64, "duration": 362, "velocity": 112}, {"time": 168240, "pitch": 45, "duration": 79, "velocity": 74}, {"time": 168480, "pitch": 45, "duration": 90, "velocity": 72}, {"time": 168720, "pitch": 45, "duration": 118, "velocity": 111}, {"time": 168720, "pitch": 57, "duration": 329, "velocity": 104}, {"time": 168720, "pitch": 64, "duration": 328, "velocity": 104}, {"time": 168960, "pitch": 45, "duration": 85, "velocity": 74}, {"time": 169200, "pitch": 45, "duration": 65, "velocity": 75}, {"time": 169200, "pitch": 57, "duration": 59, "velocity": 74}, {"time": 169200, "pitch": 64, "duration": 58, "velocity": 76}, {"time": 169440, "pitch": 50, "duration": 115, "velocity": 104}, {"time": 169680, "pitch": 50, "duration": 105, "velocity": 76}, {"time": 169920, "pitch": 50, "duration": 126, "velocity": 87}, {"time": 169920, "pitch": 57, "duration": 342, "velocity": 112}, {"time": 169920, "pitch": 66, "duration": 341, "velocity": 114}, {"time": 170160, "pitch": 50, "duration": 108, "velocity": 74}, {"time": 170400, "pitch": 50, "duration": 96, "velocity": 77}, {"time": 170640, "pitch": 50, "duration": 130, "velocity": 95}, {"time": 170640, "pitch": 57, "duration": 392, "velocity": 108}, {"time": 170640, "pitch": 66, "duration": 395, "velocity": 111}, {"time": 170880, "pitch": 50, "duration": 92, "velocity": 87}, {"time": 171120, "pitch": 50, "duration": 96, "velocity": 85}, {"time": 171360, "pitch": 42, "duration": 125, "velocity": 108}, {"time": 171600, "pitch": 42, "duration": 108, "velocity": 77}, {"time": 171840, "pitch": 42, "duration": 176, "velocity": 112}, {"time": 171840, "pitch": 57, "duration": 349, "velocity": 112}, {"time": 171840, "pitch": 64, "duration": 354, "velocity": 112}, {"time": 172080, "pitch": 42, "duration": 89, "velocity": 90}, {"time": 172320, "pitch": 42, "duration": 78, "velocity": 93}, {"time": 172560, "pitch": 42, "duration": 117, "velocity": 120}, {"time": 172560, "pitch": 57, "duration": 380, "velocity": 114}, {"time": 172560, "pitch": 64, "duration": 376, "velocity": 112}, {"time": 172800, "pitch": 42, "duration": 96, "velocity": 98}, {"time": 173040, "pitch": 42, "duration": 99, "velocity": 98}, {"time": 173280, "pitch": 43, "duration": 101, "velocity": 100}, {"time": 173520, "pitch": 43, "duration": 83, "velocity": 86}, {"time": 173760, "pitch": 43, "duration": 115, "velocity": 108}, {"time": 173760, "pitch": 55, "duration": 338, "velocity": 108}, {"time": 173760, "pitch": 62, "duration": 338, "velocity": 108}, {"time": 174000, "pitch": 43, "duration": 101, "velocity": 93}, {"time": 174240, "pitch": 43, "duration": 86, "velocity": 90}, {"time": 174480, "pitch": 43, "duration": 131, "velocity": 111}, {"time": 174480, "pitch": 55, "duration": 345, "velocity": 104}, {"time": 174480, "pitch": 62, "duration": 346, "velocity": 108}, {"time": 174720, "pitch": 43, "duration": 92, "velocity": 90}, {"time": 174960, "pitch": 43, "duration": 92, "velocity": 75}, {"time": 174960, "pitch": 55, "duration": 85, "velocity": 71}, {"time": 174960, "pitch": 62, "duration": 92, "velocity": 76}, {"time": 175200, "pitch": 45, "duration": 102, "velocity": 104}, {"time": 175440, "pitch": 45, "duration": 75, "velocity": 79}, {"time": 175680, "pitch": 45, "duration": 110, "velocity": 111}, {"time": 175680, "pitch": 57, "duration": 383, "velocity": 112}, {"time": 175680, "pitch": 64, "duration": 362, "velocity": 112}, {"time": 175920, "pitch": 45, "duration": 79, "velocity": 74}, {"time": 176160, "pitch": 45, "duration": 90, "velocity": 72}, {"time": 176400, "pitch": 45, "duration": 118, "velocity": 111}, {"time": 176400, "pitch": 57, "duration": 329, "velocity": 104}, {"time": 176400, "pitch": 64, "duration": 328, "velocity": 104}, {"time": 176640, "pitch": 45, "duration": 85, "velocity": 74}, {"time": 176880, "pitch": 45, "duration": 65, "velocity": 75}, {"time": 176880, "pitch": 57, "duration": 59, "velocity": 74}, {"time": 176880, "pitch": 64, "duration": 58, "velocity": 76}, {"time": 177120, "pitch": 50, "duration": 115, "velocity": 104}, {"time": 177360, "pitch": 50, "duration": 105, "velocity": 76}, {"time": 177600, "pitch": 50, "duration": 126, "velocity": 87}, {"time": 177600, "pitch": 57, "duration": 342, "velocity": 112}, {"time": 177600, "pitch": 66, "duration": 341, "velocity": 114}, {"time": 177840, "pitch": 50, "duration": 108, "velocity": 74}, {"time": 178080, "pitch": 50, "duration": 96, "velocity": 77}, {"time": 178320, "pitch": 50, "duration": 130, "velocity": 95}, {"time": 178320, "pitch": 57, "duration": 392, "velocity": 108}, {"time": 178320, "pitch": 66, "duration": 395, "velocity": 111}, {"time": 178560, "pitch": 50, "duration": 92, "velocity": 87}, {"time": 178800, "pitch": 50, "duration": 96, "velocity": 85}, {"time": 179040, "pitch": 42, "duration": 125, "velocity": 108}, {"time": 179280, "pitch": 42, "duration": 108, "velocity": 77}, {"time": 179520, "pitch": 42, "duration": 176, "velocity": 112}, {"time": 179520, "pitch": 57, "duration": 349, "velocity": 112}, {"time": 179520, "pitch": 64, "duration": 354, "velocity": 112}, {"time": 179760, "pitch": 42, "duration": 89, "velocity": 90}, {"time": 180000, "pitch": 42, "duration": 78, "velocity": 93}, {"time": 180240, "pitch": 42, "duration": 117, "velocity": 120}, {"time": 180240, "pitch": 57, "duration": 380, "velocity": 114}, {"time": 180240, "pitch": 64, "duration": 376, "velocity": 112}, {"time": 180480, "pitch": 42, "duration": 96, "velocity": 98}, {"time": 180720, "pitch": 42, "duration": 99, "velocity": 98}, {"time": 180960, "pitch": 43, "duration": 101, "velocity": 100}, {"time": 181200, "pitch": 43, "duration": 83, "velocity": 86}, {"time": 181440, "pitch": 43, "duration": 115, "velocity": 108}, {"time": 181440, "pitch": 55, "duration": 338, "velocity": 108}, {"time": 181440, "pitch": 62, "duration": 338, "velocity": 108}, {"time": 181680, "pitch": 43, "duration": 101, "velocity": 93}, {"time": 181920, "pitch": 43, "duration": 86, "velocity": 90}, {"time": 182160, "pitch": 43, "duration": 131, "velocity": 111}, {"time": 182160, "pitch": 55, "duration": 345, "velocity": 104}, {"time": 182160, "pitch": 62, "duration": 346, "velocity": 108}, {"time": 182400, "pitch": 43, "duration": 92, "velocity": 90}, {"time": 182640, "pitch": 43, "duration": 92, "velocity": 75}, {"time": 182640, "pitch": 55, "duration": 85, "velocity": 71}, {"time": 182640, "pitch": 62, "duration": 92, "velocity": 76}, {"time": 182880, "pitch": 45, "duration": 102, "velocity": 104}, {"time": 183120, "pitch": 45, "duration": 75, "velocity": 79}, {"time": 183360, "pitch": 45, "duration": 110, "velocity": 111}, {"time": 183360, "pitch": 57, "duration": 383, "velocity": 112}, {"time": 183360, "pitch": 64, "duration": 362, "velocity": 112}, {"time": 183600, "pitch": 45, "duration": 79, "velocity": 74}, {"time": 183840, "pitch": 45, "duration": 90, "velocity": 72}, {"time": 184080, "pitch": 45, "duration": 118, "velocity": 111}, {"time": 184080, "pitch": 57, "duration": 329, "velocity": 104}, {"time": 184080, "pitch": 64, "duration": 328, "velocity": 104}, {"time": 184320, "pitch": 45, "duration": 85, "velocity": 74}, {"time": 184560, "pitch": 45, "duration": 65, "velocity": 75}, {"time": 184560, "pitch": 57, "duration": 59, "velocity": 74}, {"time": 184560, "pitch": 64, "duration": 58, "velocity": 76}, {"time": 184800, "pitch": 50, "duration": 115, "velocity": 104}, {"time": 185040, "pitch": 50, "duration": 105, "velocity": 76}, {"time": 185280, "pitch": 50, "duration": 126, "velocity": 87}, {"time": 185280, "pitch": 57, "duration": 342, "velocity": 112}, {"time": 185280, "pitch": 66, "duration": 341, "velocity": 114}, {"time": 185520, "pitch": 50, "duration": 108, "velocity": 74}, {"time": 185760, "pitch": 50, "duration": 96, "velocity": 77}, {"time": 186000, "pitch": 50, "duration": 130, "velocity": 95}, {"time": 186000, "pitch": 57, "duration": 392, "velocity": 108}, {"time": 186000, "pitch": 66, "duration": 395, "velocity": 111}, {"time": 186240, "pitch": 50, "duration": 92, "velocity": 87}, {"time": 186480, "pitch": 50, "duration": 96, "velocity": 85}, {"time": 186720, "pitch": 42, "duration": 125, "velocity": 108}, {"time": 186960, "pitch": 42, "duration": 108, "velocity": 77}, {"time": 187200, "pitch": 42, "duration": 176, "velocity": 112}, {"time": 187200, "pitch": 57, "duration": 349, "velocity": 112}, {"time": 187200, "pitch": 64, "duration": 354, "velocity": 112}, {"time": 187440, "pitch": 42, "duration": 89, "velocity": 90}, {"time": 187680, "pitch": 42, "duration": 78, "velocity": 93}, {"time": 187920, "pitch": 42, "duration": 117, "velocity": 120}, {"time": 187920, "pitch": 57, "duration": 380, "velocity": 114}, {"time": 187920, "pitch": 64, "duration": 376, "velocity": 112}, {"time": 188160, "pitch": 42, "duration": 96, "velocity": 98}, {"time": 188400, "pitch": 42, "duration": 99, "velocity": 98}, {"time": 188640, "pitch": 43, "duration": 101, "velocity": 100}, {"time": 188880, "pitch": 43, "duration": 83, "velocity": 86}, {"time": 189120, "pitch": 43, "duration": 115, "velocity": 108}, {"time": 189120, "pitch": 55, "duration": 338, "velocity": 108}, {"time": 189120, "pitch": 62, "duration": 338, "velocity": 108}, {"time": 189360, "pitch": 43, "duration": 101, "velocity": 93}, {"time": 189600, "pitch": 43, "duration": 86, "velocity": 90}, {"time": 189840, "pitch": 43, "duration": 131, "velocity": 111}, {"time": 189840, "pitch": 55, "duration": 345, "velocity": 104}, {"time": 189840, "pitch": 62, "duration": 346, "velocity": 108}, {"time": 190080, "pitch": 43, "duration": 92, "velocity": 90}, {"time": 190320, "pitch": 43, "duration": 92, "velocity": 75}, {"time": 190320, "pitch": 55, "duration": 85, "velocity": 71}, {"time": 190320, "pitch": 62, "duration": 92, "velocity": 76}, {"time": 190560, "pitch": 45, "duration": 102, "velocity": 104}, {"time": 190800, "pitch": 45, "duration": 75, "velocity": 79}, {"time": 191040, "pitch": 45, "duration": 110, "velocity": 111}, {"time": 191040, "pitch": 57, "duration": 383, "velocity": 112}, {"time": 191040, "pitch": 64, "duration": 362, "velocity": 112}, {"time": 191280, "pitch": 45, "duration": 79, "velocity": 74}, {"time": 191520, "pitch": 45, "duration": 90, "velocity": 72}, {"time": 191760, "pitch": 45, "duration": 118, "velocity": 111}, {"time": 191760, "pitch": 57, "duration": 329, "velocity": 104}, {"time": 191760, "pitch": 64, "duration": 328, "velocity": 104}, {"time": 192000, "pitch": 45, "duration": 85, "velocity": 74}, {"time": 192240, "pitch": 45, "duration": 65, "velocity": 75}, {"time": 192240, "pitch": 57, "duration": 59, "velocity": 74}, {"time": 192240, "pitch": 64, "duration": 58, "velocity": 76}, {"time": 192480, "pitch": 50, "duration": 115, "velocity": 104}, {"time": 192720, "pitch": 50, "duration": 105, "velocity": 76}, {"time": 192960, "pitch": 50, "duration": 126, "velocity": 87}, {"time": 192960, "pitch": 57, "duration": 342, "velocity": 112}, {"time": 192960, "pitch": 66, "duration": 341, "velocity": 114}, {"time": 193200, "pitch": 50, "duration": 108, "velocity": 74}, {"time": 193440, "pitch": 50, "duration": 96, "velocity": 77}, {"time": 193680, "pitch": 50, "duration": 130, "velocity": 95}, {"time": 193680, "pitch": 57, "duration": 392, "velocity": 108}, {"time": 193680, "pitch": 66, "duration": 395, "velocity": 111}, {"time": 193920, "pitch": 50, "duration": 92, "velocity": 87}, {"time": 194160, "pitch": 50, "duration": 96, "velocity": 85}, {"time": 194400, "pitch": 42, "duration": 125, "velocity": 108}, {"time": 194640, "pitch": 42, "duration": 108, "velocity": 77}, {"time": 194880, "pitch": 42, "duration": 176, "velocity": 112}, {"time": 194880, "pitch": 57, "duration": 349, "velocity": 112}, {"time": 194880, "pitch": 64, "duration": 354, "velocity": 112}, {"time": 195120, "pitch": 42, "duration": 89, "velocity": 90}, {"time": 195360, "pitch": 42, "duration": 78, "velocity": 93}, {"time": 195600, "pitch": 42, "duration": 117, "velocity": 120}, {"time": 195600, "pitch": 57, "duration": 380, "velocity": 114}, {"time": 195600, "pitch": 64, "duration": 376, "velocity": 112}, {"time": 195840, "pitch": 42, "duration": 96, "velocity": 98}, {"time": 196080, "pitch": 42, "duration": 99, "velocity": 98}, {"time": 196320, "pitch": 43, "duration": 101, "velocity": 100}, {"time": 196560, "pitch": 43, "duration": 83, "velocity": 86}, {"time": 196800, "pitch": 43, "duration": 115, "velocity": 108}, {"time": 196800, "pitch": 55, "duration": 338, "velocity": 108}, {"time": 196800, "pitch": 62, "duration": 338, "velocity": 108}, {"time": 197040, "pitch": 43, "duration": 101, "velocity": 93}, {"time": 197280, "pitch": 43, "duration": 86, "velocity": 90}, {"time": 197520, "pitch": 43, "duration": 131, "velocity": 111}, {"time": 197520, "pitch": 55, "duration": 345, "velocity": 104}, {"time": 197520, "pitch": 62, "duration": 346, "velocity": 108}, {"time": 197760, "pitch": 43, "duration": 92, "velocity": 90}, {"time": 198000, "pitch": 43, "duration": 92, "velocity": 75}, {"time": 198000, "pitch": 55, "duration": 85, "velocity": 71}, {"time": 198000, "pitch": 62, "duration": 92, "velocity": 76}, {"time": 198240, "pitch": 45, "duration": 102, "velocity": 104}, {"time": 198480, "pitch": 45, "duration": 75, "velocity": 79}, {"time": 198720, "pitch": 45, "duration": 110, "velocity": 111}, {"time": 198720, "pitch": 57, "duration": 383, "velocity": 112}, {"time": 198720, "pitch": 64, "duration": 362, "velocity": 112}, {"time": 198960, "pitch": 45, "duration": 79, "velocity": 74}, {"time": 199200, "pitch": 45, "duration": 90, "velocity": 72}, {"time": 199440, "pitch": 45, "duration": 118, "velocity": 111}, {"time": 199440, "pitch": 57, "duration": 329, "velocity": 104}, {"time": 199440, "pitch": 64, "duration": 328, "velocity": 104}, {"time": 199680, "pitch": 45, "duration": 85, "velocity": 74}, {"time": 199920, "pitch": 45, "duration": 65, "velocity": 75}, {"time": 199920, "pitch": 57, "duration": 59, "velocity": 74}, {"time": 199920, "pitch": 64, "duration": 58, "velocity": 76}, {"time": 200160, "pitch": 55, "duration": 1765, "velocity": 114}, {"time": 200160, "pitch": 59, "duration": 1814, "velocity": 117}, {"time": 200160, "pitch": 62, "duration": 1812, "velocity": 117}, {"time": 202080, "pitch": 57, "duration": 708, "velocity": 93}, {"time": 202080, "pitch": 61, "duration": 704, "velocity": 98}, {"time": 202080, "pitch": 64, "duration": 702, "velocity": 98}, {"time": 202800, "pitch": 57, "duration": 846, "velocity": 85}, {"time": 202800, "pitch": 61, "duration": 874, "velocity": 100}, {"time": 202800, "pitch": 64, "duration": 880, "velocity": 108}, {"time": 203760, "pitch": 59, "duration": 436, "velocity": 98}, {"time": 203760, "pitch": 62, "duration": 451, "velocity": 114}, {"time": 203760, "pitch": 66, "duration": 487, "velocity": 100}, {"time": 204240, "pitch": 59, "duration": 130, "velocity": 67}, {"time": 204480, "pitch": 59, "duration": 238, "velocity": 100}, {"time": 204480, "pitch": 62, "duration": 456, "velocity": 112}, {"time": 204480, "pitch": 66, "duration": 399, "velocity": 108}, {"time": 204720, "pitch": 59, "duration": 154, "velocity": 61}, {"time": 204960, "pitch": 59, "duration": 145, "velocity": 65}, {"time": 204960, "pitch": 62, "duration": 124, "velocity": 58}, {"time": 204960, "pitch": 66, "duration": 143, "velocity": 56}, {"time": 205200, "pitch": 57, "duration": 114, "velocity": 74}, {"time": 205440, "pitch": 57, "duration": 207, "velocity": 100}, {"time": 205440, "pitch": 62, "duration": 312, "velocity": 108}, {"time": 205440, "pitch": 66, "duration": 315, "velocity": 104}, {"time": 205680, "pitch": 57, "duration": 65, "velocity": 62}, {"time": 205920, "pitch": 44, "duration": 101, "velocity": 100}, {"time": 206160, "pitch": 44, "duration": 83, "velocity": 86}, {"time": 206400, "pitch": 44, "duration": 115, "velocity": 108}, {"time": 206400, "pitch": 56, "duration": 338, "velocity": 108}, {"time": 206400, "pitch": 62, "duration": 338, "velocity": 108}, {"time": 206640, "pitch": 44, "duration": 101, "velocity": 93}, {"time": 206880, "pitch": 44, "duration": 86, "velocity": 90}, {"time": 207120, "pitch": 44, "duration": 131, "velocity": 111}, {"time": 207120, "pitch": 56, "duration": 345, "velocity": 104}, {"time": 207120, "pitch": 62, "duration": 346, "velocity": 108}, {"time": 207360, "pitch": 44, "duration": 92, "velocity": 90}, {"time": 207600, "pitch": 44, "duration": 92, "velocity": 75}, {"time": 207600, "pitch": 56, "duration": 85, "velocity": 71}, {"time": 207600, "pitch": 62, "duration": 92, "velocity": 76}, {"time": 207840, "pitch": 55, "duration": 1765, "velocity": 114}, {"time": 207840, "pitch": 59, "duration": 1814, "velocity": 117}, {"time": 207840, "pitch": 62, "duration": 1812, "velocity": 117}, {"time": 209760, "pitch": 57, "duration": 708, "velocity": 93}, {"time": 209760, "pitch": 61, "duration": 704, "velocity": 98}, {"time": 209760, "pitch": 64, "duration": 702, "velocity": 98}, {"time": 210480, "pitch": 57, "duration": 846, "velocity": 85}, {"time": 210480, "pitch": 61, "duration": 874, "velocity": 100}, {"time": 210480, "pitch": 64, "duration": 880, "velocity": 108}, {"time": 211440, "pitch": 57, "duration": 436, "velocity": 98}, {"time": 211440, "pitch": 62, "duration": 451, "velocity": 114}, {"time": 211440, "pitch": 66, "duration": 487, "velocity": 100}, {"time": 211920, "pitch": 57, "duration": 130, "velocity": 67}, {"time": 212160, "pitch": 57, "duration": 238, "velocity": 100}, {"time": 212160, "pitch": 62, "duration": 456, "velocity": 112}, {"time": 212160, "pitch": 66, "duration": 399, "velocity": 108}, {"time": 212400, "pitch": 57, "duration": 154, "velocity": 61}, {"time": 212640, "pitch": 57, "duration": 145, "velocity": 65}, {"time": 212640, "pitch": 62, "duration": 124, "velocity": 58}, {"time": 212640, "pitch": 66, "duration": 143, "velocity": 56}, {"time": 212880, "pitch": 57, "duration": 114, "velocity": 74}, {"time": 213120, "pitch": 57, "duration": 207, "velocity": 100}, {"time": 213120, "pitch": 62, "duration": 312, "velocity": 108}, {"time": 213120, "pitch": 66, "duration": 315, "velocity": 104}, {"time": 213360, "pitch": 57, "duration": 65, "velocity": 62}, {"time": 213600, "pitch": 59, "duration": 242, "velocity": 117}, {"time": 213600, "pitch": 62, "duration": 245, "velocity": 122}, {"time": 213600, "pitch": 67, "duration": 238, "velocity": 120}, {"time": 213840, "pitch": 59, "duration": 2, "velocity": 93}, {"time": 213840, "pitch": 62, "duration": 5, "velocity": 108}, {"time": 213840, "pitch": 67, "duration": 146, "velocity": 104}, {"time": 214320, "pitch": 57, "duration": 398, "velocity": 120}, {"time": 214320, "pitch": 62, "duration": 423, "velocity": 122}, {"time": 214320, "pitch": 66, "duration": 432, "velocity": 120}, {"time": 214800, "pitch": 59, "duration": 408, "velocity": 112}, {"time": 214800, "pitch": 62, "duration": 397, "velocity": 111}, {"time": 214800, "pitch": 67, "duration": 392, "velocity": 114}, {"time": 215280, "pitch": 57, "duration": 1766, "velocity": 114}, {"time": 215280, "pitch": 62, "duration": 1774, "velocity": 121}, {"time": 215280, "pitch": 66, "duration": 1773, "velocity": 117}], "annotations": [{"time": 148, "annotation": {"number": 7, "value": 76}, "group": "control_change"}, {"time": 172, "annotation": {"number": 11, "value": 120}, "group": "control_change"}, {"time": 197, "annotation": {"number": 10, "value": 127}, "group": "control_change"}, {"time": 222, "annotation": {"number": 91, "value": 80}, "group": "control_change"}, {"time": 246, "annotation": {"number": 93, "value": 0}, "group": "control_change"}, {"time": 271, "annotation": {"number": 94, "value": 5}, "group": "control_change"}, {"time": 295, "annotation": {"number": 101, "value": 0}, "group": "control_change"}, {"time": 320, "annotation": {"number": 100, "value": 0}, "group": "control_change"}, {"time": 345, "annotation": {"number": 6, "value": 12}, "group": "control_change"}, {"time": 369, "annotation": {"number": 101, "value": 127}, "group": "control_change"}, {"time": 394, "annotation": {"number": 100, "value": 127}, "group": "control_change"}]}, {"program": 0, "is_drum": false, "name": "Intro-PIANO", "notes": [{"time": 480, "pitch": 38, "duration": 1814, "velocity": 85}, {"time": 480, "pitch": 57, "duration": 525, "velocity": 94}, {"time": 480, "pitch": 62, "duration": 1200, "velocity": 113}, {"time": 480, "pitch": 66, "duration": 1234, "velocity": 115}, {"time": 720, "pitch": 45, "duration": 1602, "velocity": 94}, {"time": 960, "pitch": 50, "duration": 1297, "velocity": 81}, {"time": 1200, "pitch": 57, "duration": 344, "velocity": 106}, {"time": 1680, "pitch": 62, "duration": 594, "velocity": 115}, {"time": 1920, "pitch": 69, "duration": 319, "velocity": 120}, {"time": 2160, "pitch": 74, "duration": 216, "velocity": 101}, {"time": 2400, "pitch": 38, "duration": 1773, "velocity": 97}, {"time": 2400, "pitch": 64, "duration": 586, "velocity": 113}, {"time": 2400, "pitch": 67, "duration": 629, "velocity": 127}, {"time": 2400, "pitch": 72, "duration": 672, "velocity": 115}, {"time": 2640, "pitch": 45, "duration": 1615, "velocity": 94}, {"time": 2880, "pitch": 50, "duration": 1271, "velocity": 84}, {"time": 3120, "pitch": 64, "duration": 1103, "velocity": 113}, {"time": 3120, "pitch": 67, "duration": 780, "velocity": 118}, {"time": 3120, "pitch": 72, "duration": 401, "velocity": 97}, {"time": 3600, "pitch": 71, "duration": 271, "velocity": 99}, {"time": 3840, "pitch": 69, "duration": 279, "velocity": 120}, {"time": 4080, "pitch": 67, "duration": 170, "velocity": 105}, {"time": 4320, "pitch": 38, "duration": 1760, "velocity": 103}, {"time": 4320, "pitch": 62, "duration": 490, "velocity": 105}, {"time": 4320, "pitch": 66, "duration": 1232, "velocity": 120}, {"time": 4320, "pitch": 69, "duration": 1402, "velocity": 107}, {"time": 4560, "pitch": 45, "duration": 1620, "velocity": 88}, {"time": 4800, "pitch": 50, "duration": 1270, "velocity": 81}, {"time": 5040, "pitch": 57, "duration": 1075, "velocity": 79}, {"time": 5520, "pitch": 62, "duration": 619, "velocity": 95}, {"time": 5760, "pitch": 66, "duration": 374, "velocity": 96}, {"time": 6000, "pitch": 69, "duration": 135, "velocity": 95}, {"time": 6240, "pitch": 38, "duration": 1785, "velocity": 90}, {"time": 6240, "pitch": 55, "duration": 604, "velocity": 86}, {"time": 6240, "pitch": 60, "duration": 605, "velocity": 96}, {"time": 6240, "pitch": 64, "duration": 624, "velocity": 94}, {"time": 6480, "pitch": 45, "duration": 1609, "velocity": 93}, {"time": 6720, "pitch": 50, "duration": 1322, "velocity": 86}, {"time": 6960, "pitch": 55, "duration": 1100, "velocity": 84}, {"time": 6960, "pitch": 60, "duration": 1129, "velocity": 99}, {"time": 6960, "pitch": 64, "duration": 536, "velocity": 110}, {"time": 7440, "pitch": 66, "duration": 260, "velocity": 118}, {"time": 7680, "pitch": 64, "duration": 246, "velocity": 110}, {"time": 7920, "pitch": 62, "duration": 169, "velocity": 107}, {"time": 8160, "pitch": 38, "duration": 1815, "velocity": 92}, {"time": 8160, "pitch": 57, "duration": 581, "velocity": 94}, {"time": 8160, "pitch": 62, "duration": 1194, "velocity": 107}, {"time": 8160, "pitch": 66, "duration": 1220, "velocity": 103}, {"time": 8400, "pitch": 45, "duration": 1606, "velocity": 81}, {"time": 8640, "pitch": 50, "duration": 1299, "velocity": 93}, {"time": 8880, "pitch": 57, "duration": 299, "velocity": 95}, {"time": 9360, "pitch": 62, "duration": 573, "velocity": 113}, {"time": 9600, "pitch": 69, "duration": 343, "velocity": 107}, {"time": 9840, "pitch": 74, "duration": 227, "velocity": 113}, {"time": 10080, "pitch": 38, "duration": 1831, "velocity": 99}, {"time": 10080, "pitch": 64, "duration": 618, "velocity": 118}, {"time": 10080, "pitch": 67, "duration": 624, "velocity": 127}, {"time": 10080, "pitch": 72, "duration": 607, "velocity": 120}, {"time": 10320, "pitch": 45, "duration": 1667, "velocity": 90}, {"time": 10440, "pitch": 50, "duration": 1360, "velocity": 79}, {"time": 10800, "pitch": 64, "duration": 1142, "velocity": 93}, {"time": 10800, "pitch": 67, "duration": 806, "velocity": 99}, {"time": 10800, "pitch": 72, "duration": 460, "velocity": 101}, {"time": 11280, "pitch": 71, "duration": 266, "velocity": 91}, {"time": 11520, "pitch": 69, "duration": 264, "velocity": 120}, {"time": 11760, "pitch": 67, "duration": 164, "velocity": 99}, {"time": 12000, "pitch": 38, "duration": 1805, "velocity": 96}, {"time": 12000, "pitch": 62, "duration": 389, "velocity": 97}, {"time": 12000, "pitch": 66, "duration": 1187, "velocity": 115}, {"time": 12000, "pitch": 69, "duration": 1360, "velocity": 110}, {"time": 12240, "pitch": 45, "duration": 1674, "velocity": 94}, {"time": 12480, "pitch": 50, "duration": 1312, "velocity": 80}, {"time": 12720, "pitch": 57, "duration": 1149, "velocity": 97}, {"time": 13200, "pitch": 62, "duration": 671, "velocity": 91}, {"time": 13440, "pitch": 66, "duration": 417, "velocity": 94}, {"time": 13680, "pitch": 69, "duration": 138, "velocity": 103}, {"time": 13920, "pitch": 38, "duration": 1630, "velocity": 83}, {"time": 13920, "pitch": 55, "duration": 590, "velocity": 90}, {"time": 13920, "pitch": 60, "duration": 594, "velocity": 106}, {"time": 13920, "pitch": 64, "duration": 613, "velocity": 113}, {"time": 14160, "pitch": 45, "duration": 1638, "velocity": 90}, {"time": 14400, "pitch": 50, "duration": 1464, "velocity": 79}, {"time": 14640, "pitch": 55, "duration": 1129, "velocity": 86}, {"time": 14640, "pitch": 60, "duration": 1122, "velocity": 107}, {"time": 14640, "pitch": 64, "duration": 538, "velocity": 110}, {"time": 15120, "pitch": 66, "duration": 266, "velocity": 107}, {"time": 15360, "pitch": 64, "duration": 227, "velocity": 106}, {"time": 15600, "pitch": 62, "duration": 158, "velocity": 94}, {"time": 15840, "pitch": 40, "duration": 1797, "velocity": 92}, {"time": 15840, "pitch": 55, "duration": 518, "velocity": 95}, {"time": 15840, "pitch": 59, "duration": 1096, "velocity": 124}, {"time": 15840, "pitch": 62, "duration": 1265, "velocity": 115}, {"time": 16080, "pitch": 47, "duration": 1573, "velocity": 79}, {"time": 16320, "pitch": 50, "duration": 1355, "velocity": 81}, {"time": 16560, "pitch": 55, "duration": 1138, "velocity": 110}, {"time": 17040, "pitch": 59, "duration": 641, "velocity": 110}, {"time": 17280, "pitch": 62, "duration": 403, "velocity": 97}, {"time": 17520, "pitch": 67, "duration": 169, "velocity": 90}, {"time": 17760, "pitch": 40, "duration": 1684, "velocity": 83}, {"time": 17760, "pitch": 59, "duration": 616, "velocity": 107}, {"time": 17760, "pitch": 62, "duration": 1093, "velocity": 101}, {"time": 17760, "pitch": 67, "duration": 1272, "velocity": 118}, {"time": 18000, "pitch": 47, "duration": 1487, "velocity": 91}, {"time": 18240, "pitch": 50, "duration": 1418, "velocity": 80}, {"time": 18480, "pitch": 59, "duration": 1099, "velocity": 105}, {"time": 18960, "pitch": 62, "duration": 630, "velocity": 105}, {"time": 19200, "pitch": 66, "duration": 251, "velocity": 99}, {"time": 19440, "pitch": 67, "duration": 185, "velocity": 106}, {"time": 19680, "pitch": 45, "duration": 1781, "velocity": 92}, {"time": 19680, "pitch": 59, "duration": 503, "velocity": 80}, {"time": 19680, "pitch": 62, "duration": 792, "velocity": 90}, {"time": 19680, "pitch": 69, "duration": 1232, "velocity": 87}, {"time": 19920, "pitch": 52, "duration": 1602, "velocity": 101}, {"time": 20160, "pitch": 57, "duration": 1323, "velocity": 79}, {"time": 20400, "pitch": 59, "duration": 1127, "velocity": 106}, {"time": 20880, "pitch": 62, "duration": 694, "velocity": 106}, {"time": 21120, "pitch": 69, "duration": 1782, "velocity": 110}, {"time": 21600, "pitch": 45, "duration": 1814, "velocity": 105}, {"time": 21600, "pitch": 61, "duration": 595, "velocity": 97}, {"time": 21600, "pitch": 64, "duration": 1106, "velocity": 124}, {"time": 21840, "pitch": 52, "duration": 1532, "velocity": 85}, {"time": 22080, "pitch": 57, "duration": 1263, "velocity": 77}, {"time": 22320, "pitch": 61, "duration": 1015, "velocity": 88}, {"time": 22800, "pitch": 64, "duration": 558, "velocity": 90}, {"time": 23040, "pitch": 69, "duration": 358, "velocity": 87}], "annotations": [{"time": 123, "annotation": {"number": 0, "value": 0}, "group": "control_change"}, {"time": 123, "annotation": {"number": 32, "value": 2}, "group": "control_change"}, {"time": 148, "annotation": {"number": 7, "value": 87}, "group": "control_change"}, {"time": 172, "annotation": {"number": 11, "value": 120}, "group": "control_change"}, {"time": 197, "annotation": {"number": 10, "value": 64}, "group": "control_change"}, {"time": 222, "annotation": {"number": 91, "value": 107}, "group": "control_change"}, {"time": 246, "annotation": {"number": 93, "value": 40}, "group": "control_change"}, {"time": 271, "annotation": {"number": 94, "value": 0}, "group": "control_change"}, {"time": 295, "annotation": {"number": 101, "value": 0}, "group": "control_change"}, {"time": 320, "annotation": {"number": 100, "value": 0}, "group": "control_change"}, {"time": 345, "annotation": {"number": 6, "value": 12}, "group": "control_change"}, {"time": 369, "annotation": {"number": 101, "value": 127}, "group": "control_change"}, {"time": 394, "annotation": {"number": 100, "value": 127}, "group": "control_change"}]}, {"program": 0, "is_drum": true, "name": "DRUMS", "notes": [{"time": 480, "pitch": 42, "duration": 78, "velocity": 60}, {"time": 480, "pitch": 82, "duration": 55, "velocity": 35}, {"time": 720, "pitch": 42, "duration": 97, "velocity": 108}, {"time": 720, "pitch": 82, "duration": 59, "velocity": 55}, {"time": 960, "pitch": 36, "duration": 10, "velocity": 110}, {"time": 960, "pitch": 42, "duration": 76, "velocity": 59}, {"time": 960, "pitch": 82, "duration": 47, "velocity": 35}, {"time": 1200, "pitch": 42, "duration": 88, "velocity": 104}, {"time": 1200, "pitch": 82, "duration": 63, "velocity": 55}, {"time": 1440, "pitch": 42, "duration": 66, "velocity": 59}, {"time": 1440, "pitch": 82, "duration": 57, "velocity": 35}, {"time": 1440, "pitch": 114, "duration": 10, "velocity": 95}, {"time": 1680, "pitch": 42, "duration": 94, "velocity": 95}, {"time": 1680, "pitch": 82, "duration": 49, "velocity": 55}, {"time": 1680, "pitch": 85, "duration": 10, "velocity": 75}, {"time": 1760, "pitch": 85, "duration": 10, "velocity": 90}, {"time": 1840, "pitch": 85, "duration": 10, "velocity": 98}, {"time": 1920, "pitch": 42, "duration": 73, "velocity": 59}, {"time": 1920, "pitch": 85, "duration": 10, "velocity": 114}, {"time": 2160, "pitch": 42, "duration": 80, "velocity": 100}, {"time": 2160, "pitch": 82, "duration": 33, "velocity": 45}, {"time": 2400, "pitch": 42, "duration": 63, "velocity": 60}, {"time": 2400, "pitch": 82, "duration": 55, "velocity": 35}, {"time": 2640, "pitch": 42, "duration": 100, "velocity": 104}, {"time": 2640, "pitch": 82, "duration": 59, "velocity": 55}, {"time": 2880, "pitch": 42, "duration": 56, "velocity": 60}, {"time": 2880, "pitch": 82, "duration": 47, "velocity": 35}, {"time": 3120, "pitch": 42, "duration": 89, "velocity": 112}, {"time": 3120, "pitch": 82, "duration": 63, "velocity": 55}, {"time": 3180, "pitch": 54, "duration": 10, "velocity": 55}, {"time": 3240, "pitch": 54, "duration": 10, "velocity": 60}, {"time": 3300, "pitch": 54, "duration": 10, "velocity": 65}, {"time": 3360, "pitch": 42, "duration": 69, "velocity": 66}, {"time": 3360, "pitch": 54, "duration": 10, "velocity": 114}, {"time": 3360, "pitch": 82, "duration": 57, "velocity": 35}, {"time": 3360, "pitch": 114, "duration": 10, "velocity": 95}, {"time": 3600, "pitch": 42, "duration": 98, "velocity": 104}, {"time": 3600, "pitch": 82, "duration": 49, "velocity": 55}, {"time": 3840, "pitch": 36, "duration": 10, "velocity": 110}, {"time": 3840, "pitch": 42, "duration": 60, "velocity": 61}, {"time": 4080, "pitch": 42, "duration": 80, "velocity": 108}, {"time": 4080, "pitch": 82, "duration": 33, "velocity": 45}, {"time": 4320, "pitch": 42, "duration": 67, "velocity": 67}, {"time": 4320, "pitch": 82, "duration": 55, "velocity": 35}, {"time": 4560, "pitch": 42, "duration": 74, "velocity": 100}, {"time": 4560, "pitch": 82, "duration": 59, "velocity": 55}, {"time": 4800, "pitch": 36, "duration": 10, "velocity": 110}, {"time": 4800, "pitch": 42, "duration": 59, "velocity": 66}, {"time": 4800, "pitch": 82, "duration": 47, "velocity": 35}, {"time": 5040, "pitch": 42, "duration": 94, "velocity": 104}, {"time": 5040, "pitch": 82, "duration": 63, "velocity": 55}, {"time": 5280, "pitch": 42, "duration": 57, "velocity": 68}, {"time": 5280, "pitch": 82, "duration": 57, "velocity": 35}, {"time": 5280, "pitch": 114, "duration": 10, "velocity": 95}, {"time": 5520, "pitch": 42, "duration": 102, "velocity": 108}, {"time": 5520, "pitch": 82, "duration": 49, "velocity": 55}, {"time": 5520, "pitch": 85, "duration": 10, "velocity": 75}, {"time": 5600, "pitch": 85, "duration": 10, "velocity": 90}, {"time": 5680, "pitch": 85, "duration": 10, "velocity": 98}, {"time": 5760, "pitch": 42, "duration": 63, "velocity": 61}, {"time": 5760, "pitch": 85, "duration": 10, "velocity": 114}, {"time": 6000, "pitch": 42, "duration": 103, "velocity": 95}, {"time": 6000, "pitch": 82, "duration": 33, "velocity": 45}, {"time": 6240, "pitch": 42, "duration": 68, "velocity": 61}, {"time": 6240, "pitch": 82, "duration": 55, "velocity": 35}, {"time": 6480, "pitch": 42, "duration": 74, "velocity": 74}, {"time": 6480, "pitch": 82, "duration": 59, "velocity": 55}, {"time": 6720, "pitch": 42, "duration": 54, "velocity": 61}, {"time": 6720, "pitch": 82, "duration": 47, "velocity": 35}, {"time": 6960, "pitch": 42, "duration": 95, "velocity": 100}, {"time": 6960, "pitch": 82, "duration": 63, "velocity": 55}, {"time": 7020, "pitch": 54, "duration": 10, "velocity": 55}, {"time": 7080, "pitch": 54, "duration": 10, "velocity": 60}, {"time": 7140, "pitch": 54, "duration": 10, "velocity": 65}, {"time": 7200, "pitch": 42, "duration": 75, "velocity": 60}, {"time": 7200, "pitch": 54, "duration": 10, "velocity": 114}, {"time": 7200, "pitch": 82, "duration": 57, "velocity": 35}, {"time": 7200, "pitch": 114, "duration": 10, "velocity": 95}, {"time": 7440, "pitch": 42, "duration": 94, "velocity": 85}, {"time": 7440, "pitch": 82, "duration": 49, "velocity": 55}, {"time": 7680, "pitch": 36, "duration": 10, "velocity": 110}, {"time": 7680, "pitch": 42, "duration": 67, "velocity": 65}, {"time": 7920, "pitch": 42, "duration": 72, "velocity": 61}, {"time": 7920, "pitch": 82, "duration": 33, "velocity": 45}, {"time": 8160, "pitch": 42, "duration": 87, "velocity": 77}, {"time": 8160, "pitch": 82, "duration": 55, "velocity": 35}, {"time": 8400, "pitch": 42, "duration": 62, "velocity": 70}, {"time": 8400, "pitch": 82, "duration": 59, "velocity": 55}, {"time": 8640, "pitch": 36, "duration": 10, "velocity": 110}, {"time": 8640, "pitch": 42, "duration": 74, "velocity": 93}, {"time": 8640, "pitch": 82, "duration": 47, "velocity": 35}, {"time": 8880, "pitch": 42, "duration": 63, "velocity": 75}, {"time": 8880, "pitch": 82, "duration": 63, "velocity": 55}, {"time": 9120, "pitch": 42, "duration": 60, "velocity": 90}, {"time": 9120, "pitch": 82, "duration": 57, "velocity": 35}, {"time": 9120, "pitch": 114, "duration": 10, "velocity": 95}, {"time": 9360, "pitch": 42, "duration": 77, "velocity": 108}, {"time": 9360, "pitch": 82, "duration": 49, "velocity": 55}, {"time": 9360, "pitch": 85, "duration": 10, "velocity": 75}, {"time": 9440, "pitch": 85, "duration": 10, "velocity": 90}, {"time": 9520, "pitch": 85, "duration": 10, "velocity": 98}, {"time": 9600, "pitch": 42, "duration": 59, "velocity": 58}, {"time": 9600, "pitch": 85, "duration": 10, "velocity": 114}, {"time": 9840, "pitch": 42, "duration": 73, "velocity": 104}, {"time": 9840, "pitch": 82, "duration": 33, "velocity": 45}, {"time": 10080, "pitch": 42, "duration": 71, "velocity": 60}, {"time": 10080, "pitch": 82, "duration": 55, "velocity": 35}, {"time": 10320, "pitch": 42, "duration": 98, "velocity": 85}, {"time": 10320, "pitch": 82, "duration": 59, "velocity": 55}, {"time": 10560, "pitch": 42, "duration": 62, "velocity": 62}, {"time": 10560, "pitch": 82, "duration": 47, "velocity": 35}, {"time": 10800, "pitch": 42, "duration": 85, "velocity": 95}, {"time": 10800, "pitch": 82, "duration": 63, "velocity": 55}, {"time": 10860, "pitch": 54, "duration": 10, "velocity": 55}, {"time": 10920, "pitch": 54, "duration": 10, "velocity": 60}, {"time": 10980, "pitch": 54, "duration": 10, "velocity": 65}, {"time": 11040, "pitch": 42, "duration": 70, "velocity": 63}, {"time": 11040, "pitch": 54, "duration": 10, "velocity": 114}, {"time": 11040, "pitch": 82, "duration": 57, "velocity": 35}, {"time": 11040, "pitch": 114, "duration": 10, "velocity": 95}, {"time": 11280, "pitch": 42, "duration": 90, "velocity": 95}, {"time": 11280, "pitch": 82, "duration": 49, "velocity": 55}, {"time": 11520, "pitch": 36, "duration": 10, "velocity": 110}, {"time": 11520, "pitch": 42, "duration": 67, "velocity": 59}, {"time": 11760, "pitch": 42, "duration": 60, "velocity": 90}, {"time": 11760, "pitch": 82, "duration": 33, "velocity": 45}, {"time": 12000, "pitch": 42, "duration": 68, "velocity": 95}, {"time": 12000, "pitch": 82, "duration": 55, "velocity": 35}, {"time": 12240, "pitch": 42, "duration": 54, "velocity": 56}, {"time": 12240, "pitch": 82, "duration": 59, "velocity": 55}, {"time": 12480, "pitch": 36, "duration": 10, "velocity": 110}, {"time": 12480, "pitch": 42, "duration": 83, "velocity": 108}, {"time": 12480, "pitch": 82, "duration": 47, "velocity": 35}, {"time": 12720, "pitch": 42, "duration": 67, "velocity": 58}, {"time": 12720, "pitch": 82, "duration": 63, "velocity": 55}, {"time": 12960, "pitch": 42, "duration": 107, "velocity": 81}, {"time": 12960, "pitch": 82, "duration": 57, "velocity": 35}, {"time": 12960, "pitch": 114, "duration": 10, "velocity": 95}, {"time": 13200, "pitch": 42, "duration": 94, "velocity": 62}, {"time": 13200, "pitch": 82, "duration": 49, "velocity": 55}, {"time": 13200, "pitch": 85, "duration": 10, "velocity": 75}, {"time": 13280, "pitch": 85, "duration": 10, "velocity": 90}, {"time": 13360, "pitch": 85, "duration": 10, "velocity": 98}, {"time": 13440, "pitch": 42, "duration": 75, "velocity": 61}, {"time": 13440, "pitch": 85, "duration": 10, "velocity": 114}, {"time": 13680, "pitch": 42, "duration": 79, "velocity": 76}, {"time": 13680, "pitch": 82, "duration": 33, "velocity": 45}, {"time": 13920, "pitch": 42, "duration": 66, "velocity": 59}, {"time": 13920, "pitch": 82, "duration": 55, "velocity": 35}, {"time": 14160, "pitch": 42, "duration": 67, "velocity": 74}, {"time": 14160, "pitch": 82, "duration": 59, "velocity": 55}, {"time": 14400, "pitch": 42, "duration": 63, "velocity": 75}, {"time": 14400, "pitch": 82, "duration": 47, "velocity": 35}, {"time": 14640, "pitch": 42, "duration": 58, "velocity": 59}, {"time": 14640, "pitch": 82, "duration": 63, "velocity": 55}, {"time": 14700, "pitch": 54, "duration": 10, "velocity": 55}, {"time": 14760, "pitch": 54, "duration": 10, "velocity": 60}, {"time": 14820, "pitch": 54, "duration": 10, "velocity": 65}, {"time": 14880, "pitch": 42, "duration": 78, "velocity": 85}, {"time": 14880, "pitch": 54, "duration": 10, "velocity": 114}, {"time": 14880, "pitch": 82, "duration": 57, "velocity": 35}, {"time": 14880, "pitch": 114, "duration": 10, "velocity": 95}, {"time": 15120, "pitch": 42, "duration": 67, "velocity": 55}, {"time": 15120, "pitch": 82, "duration": 49, "velocity": 55}, {"time": 15360, "pitch": 36, "duration": 10, "velocity": 110}, {"time": 15360, "pitch": 42, "duration": 69, "velocity": 73}, {"time": 15600, "pitch": 46, "duration": 69, "velocity": 67}, {"time": 15600, "pitch": 82, "duration": 33, "velocity": 45}, {"time": 15840, "pitch": 36, "duration": 10, "velocity": 110}, {"time": 15840, "pitch": 42, "duration": 67, "velocity": 74}, {"time": 15840, "pitch": 82, "duration": 55, "velocity": 35}, {"time": 16080, "pitch": 42, "duration": 60, "velocity": 85}, {"time": 16080, "pitch": 82, "duration": 59, "velocity": 55}, {"time": 16320, "pitch": 42, "duration": 78, "velocity": 100}, {"time": 16320, "pitch": 82, "duration": 47, "velocity": 35}, {"time": 16560, "pitch": 42, "duration": 47, "velocity": 59}, {"time": 16560, "pitch": 82, "duration": 63, "velocity": 55}, {"time": 16800, "pitch": 36, "duration": 10, "velocity": 110}, {"time": 16800, "pitch": 42, "duration": 72, "velocity": 95}, {"time": 16800, "pitch": 82, "duration": 57, "velocity": 35}, {"time": 16800, "pitch": 114, "duration": 10, "velocity": 95}, {"time": 17040, "pitch": 42, "duration": 56, "velocity": 58}, {"time": 17040, "pitch": 82, "duration": 49, "velocity": 55}, {"time": 17040, "pitch": 85, "duration": 10, "velocity": 75}, {"time": 17120, "pitch": 85, "duration": 10, "velocity": 90}, {"time": 17200, "pitch": 85, "duration": 10, "velocity": 98}, {"time": 17280, "pitch": 42, "duration": 91, "velocity": 98}, {"time": 17280, "pitch": 85, "duration": 10, "velocity": 114}, {"time": 17520, "pitch": 42, "duration": 52, "velocity": 58}, {"time": 17520, "pitch": 82, "duration": 33, "velocity": 45}, {"time": 17760, "pitch": 36, "duration": 10, "velocity": 110}, {"time": 17760, "pitch": 42, "duration": 75, "velocity": 76}, {"time": 17760, "pitch": 82, "duration": 55, "velocity": 35}, {"time": 18000, "pitch": 42, "duration": 75, "velocity": 57}, {"time": 18000, "pitch": 82, "duration": 59, "velocity": 55}, {"time": 18240, "pitch": 42, "duration": 96, "velocity": 67}, {"time": 18240, "pitch": 82, "duration": 47, "velocity": 35}, {"time": 18480, "pitch": 42, "duration": 83, "velocity": 72}, {"time": 18480, "pitch": 82, "duration": 63, "velocity": 55}, {"time": 18540, "pitch": 54, "duration": 10, "velocity": 55}, {"time": 18600, "pitch": 54, "duration": 10, "velocity": 60}, {"time": 18660, "pitch": 54, "duration": 10, "velocity": 65}, {"time": 18720, "pitch": 36, "duration": 10, "velocity": 110}, {"time": 18720, "pitch": 42, "duration": 57, "velocity": 55}, {"time": 18720, "pitch": 54, "duration": 10, "velocity": 114}, {"time": 18720, "pitch": 82, "duration": 57, "velocity": 35}, {"time": 18720, "pitch": 114, "duration": 10, "velocity": 95}, {"time": 18960, "pitch": 42, "duration": 87, "velocity": 95}, {"time": 18960, "pitch": 82, "duration": 49, "velocity": 55}, {"time": 19200, "pitch": 42, "duration": 67, "velocity": 60}, {"time": 19440, "pitch": 42, "duration": 74, "velocity": 86}, {"time": 19440, "pitch": 82, "duration": 33, "velocity": 45}, {"time": 19680, "pitch": 36, "duration": 10, "velocity": 110}, {"time": 19680, "pitch": 42, "duration": 70, "velocity": 79}, {"time": 19680, "pitch": 82, "duration": 55, "velocity": 35}, {"time": 19920, "pitch": 42, "duration": 63, "velocity": 62}, {"time": 19920, "pitch": 82, "duration": 59, "velocity": 55}, {"time": 20160, "pitch": 36, "duration": 10, "velocity": 110}, {"time": 20160, "pitch": 42, "duration": 72, "velocity": 93}, {"time": 20160, "pitch": 82, "duration": 47, "velocity": 35}, {"time": 20400, "pitch": 42, "duration": 61, "velocity": 58}, {"time": 20400, "pitch": 82, "duration": 63, "velocity": 55}, {"time": 20640, "pitch": 36, "duration": 10, "velocity": 110}, {"time": 20640, "pitch": 42, "duration": 70, "velocity": 98}, {"time": 20640, "pitch": 82, "duration": 57, "velocity": 35}, {"time": 20640, "pitch": 114, "duration": 10, "velocity": 95}, {"time": 20880, "pitch": 42, "duration": 48, "velocity": 59}, {"time": 20880, "pitch": 82, "duration": 49, "velocity": 55}, {"time": 20880, "pitch": 85, "duration": 10, "velocity": 75}, {"time": 20960, "pitch": 85, "duration": 10, "velocity": 90}, {"time": 21040, "pitch": 85, "duration": 10, "velocity": 98}, {"time": 21120, "pitch": 36, "duration": 10, "velocity": 110}, {"time": 21120, "pitch": 42, "duration": 68, "velocity": 100}, {"time": 21120, "pitch": 85, "duration": 10, "velocity": 114}, {"time": 21360, "pitch": 42, "duration": 56, "velocity": 64}, {"time": 21360, "pitch": 82, "duration": 33, "velocity": 45}, {"time": 21600, "pitch": 36, "duration": 10, "velocity": 110}, {"time": 21600, "pitch": 42, "duration": 78, "velocity": 98}, {"time": 21600, "pitch": 82, "duration": 55, "velocity": 35}, {"time": 21840, "pitch": 42, "duration": 59, "velocity": 60}, {"time": 21840, "pitch": 82, "duration": 59, "velocity": 55}, {"time": 22080, "pitch": 36, "duration": 10, "velocity": 110}, {"time": 22080, "pitch": 42, "duration": 68, "velocity": 100}, {"time": 22080, "pitch": 82, "duration": 47, "velocity": 35}, {"time": 22320, "pitch": 42, "duration": 52, "velocity": 59}, {"time": 22320, "pitch": 48, "duration": 52, "velocity": 98}, {"time": 22320, "pitch": 82, "duration": 63, "velocity": 55}, {"time": 22380, "pitch": 54, "duration": 10, "velocity": 55}, {"time": 22440, "pitch": 48, "duration": 107, "velocity": 93}, {"time": 22440, "pitch": 54, "duration": 10, "velocity": 60}, {"time": 22500, "pitch": 54, "duration": 10, "velocity": 65}, {"time": 22560, "pitch": 36, "duration": 10, "velocity": 110}, {"time": 22560, "pitch": 42, "duration": 68, "velocity": 95}, {"time": 22560, "pitch": 54, "duration": 10, "velocity": 114}, {"time": 22560, "pitch": 82, "duration": 57, "velocity": 35}, {"time": 22560, "pitch": 114, "duration": 10, "velocity": 95}, {"time": 22800, "pitch": 42, "duration": 57, "velocity": 58}, {"time": 22800, "pitch": 45, "duration": 83, "velocity": 98}, {"time": 22800, "pitch": 82, "duration": 49, "velocity": 55}, {"time": 23040, "pitch": 36, "duration": 10, "velocity": 110}, {"time": 23040, "pitch": 41, "duration": 96, "velocity": 109}, {"time": 23040, "pitch": 42, "duration": 70, "velocity": 98}, {"time": 23280, "pitch": 38, "duration": 49, "velocity": 110}, {"time": 23280, "pitch": 82, "duration": 33, "velocity": 45}, {"time": 23400, "pitch": 38, "duration": 60, "velocity": 95}, {"time": 23520, "pitch": 36, "duration": 10, "velocity": 120}, {"time": 23520, "pitch": 42, "duration": 67, "velocity": 121}, {"time": 23760, "pitch": 42, "duration": 58, "velocity": 67}, {"time": 24000, "pitch": 38, "duration": 10, "velocity": 115}, {"time": 24000, "pitch": 42, "duration": 80, "velocity": 122}, {"time": 24240, "pitch": 42, "duration": 62, "velocity": 87}, {"time": 24360, "pitch": 42, "duration": 62, "velocity": 81}, {"time": 24480, "pitch": 36, "duration": 10, "velocity": 120}, {"time": 24480, "pitch": 42, "duration": 73, "velocity": 122}, {"time": 24720, "pitch": 42, "duration": 55, "velocity": 87}, {"time": 24960, "pitch": 38, "duration": 10, "velocity": 115}, {"time": 24960, "pitch": 42, "duration": 70, "velocity": 122}, {"time": 25200, "pitch": 42, "duration": 57, "velocity": 111}, {"time": 25440, "pitch": 36, "duration": 10, "velocity": 120}, {"time": 25440, "pitch": 42, "duration": 67, "velocity": 121}, {"time": 25680, "pitch": 42, "duration": 46, "velocity": 95}, {"time": 25920, "pitch": 38, "duration": 10, "velocity": 115}, {"time": 25920, "pitch": 42, "duration": 65, "velocity": 122}, {"time": 26160, "pitch": 42, "duration": 56, "velocity": 87}, {"time": 26400, "pitch": 36, "duration": 10, "velocity": 120}, {"time": 26400, "pitch": 42, "duration": 68, "velocity": 121}, {"time": 26640, "pitch": 42, "duration": 46, "velocity": 79}, {"time": 26880, "pitch": 38, "duration": 10, "velocity": 115}, {"time": 26880, "pitch": 42, "duration": 61, "velocity": 122}, {"time": 27000, "pitch": 42, "duration": 62, "velocity": 81}, {"time": 27120, "pitch": 36, "duration": 10, "velocity": 120}, {"time": 27120, "pitch": 42, "duration": 48, "velocity": 100}, {"time": 27360, "pitch": 36, "duration": 10, "velocity": 120}, {"time": 27360, "pitch": 42, "duration": 67, "velocity": 121}, {"time": 27600, "pitch": 42, "duration": 58, "velocity": 67}, {"time": 27840, "pitch": 38, "duration": 10, "velocity": 115}, {"time": 27840, "pitch": 42, "duration": 80, "velocity": 122}, {"time": 28080, "pitch": 42, "duration": 62, "velocity": 87}, {"time": 28200, "pitch": 42, "duration": 62, "velocity": 81}, {"time": 28320, "pitch": 36, "duration": 10, "velocity": 120}, {"time": 28320, "pitch": 42, "duration": 73, "velocity": 122}, {"time": 28560, "pitch": 42, "duration": 55, "velocity": 87}, {"time": 28800, "pitch": 38, "duration": 10, "velocity": 115}, {"time": 28800, "pitch": 42, "duration": 70, "velocity": 122}, {"time": 29040, "pitch": 42, "duration": 57, "velocity": 111}, {"time": 29280, "pitch": 36, "duration": 10, "velocity": 120}, {"time": 29280, "pitch": 42, "duration": 67, "velocity": 121}, {"time": 29520, "pitch": 42, "duration": 46, "velocity": 95}, {"time": 29760, "pitch": 38, "duration": 10, "velocity": 115}, {"time": 29760, "pitch": 42, "duration": 65, "velocity": 122}, {"time": 30000, "pitch": 42, "duration": 56, "velocity": 87}, {"time": 30240, "pitch": 36, "duration": 10, "velocity": 120}, {"time": 30240, "pitch": 42, "duration": 68, "velocity": 121}, {"time": 30480, "pitch": 42, "duration": 46, "velocity": 79}, {"time": 30720, "pitch": 38, "duration": 10, "velocity": 115}, {"time": 30720, "pitch": 42, "duration": 61, "velocity": 122}, {"time": 30840, "pitch": 42, "duration": 62, "velocity": 81}, {"time": 30960, "pitch": 36, "duration": 10, "velocity": 120}, {"time": 30960, "pitch": 46, "duration": 48, "velocity": 80}, {"time": 31200, "pitch": 36, "duration": 10, "velocity": 120}, {"time": 31200, "pitch": 42, "duration": 67, "velocity": 121}, {"time": 31440, "pitch": 42, "duration": 58, "velocity": 67}, {"time": 31680, "pitch": 38, "duration": 10, "velocity": 115}, {"time": 31680, "pitch": 42, "duration": 80, "velocity": 122}, {"time": 31920, "pitch": 42, "duration": 62, "velocity": 87}, {"time": 32040, "pitch": 42, "duration": 62, "velocity": 81}, {"time": 32160, "pitch": 36, "duration": 10, "velocity": 120}, {"time": 32160, "pitch": 42, "duration": 73, "velocity": 122}, {"time": 32400, "pitch": 42, "duration": 55, "velocity": 87}, {"time": 32640, "pitch": 38, "duration": 10, "velocity": 115}, {"time": 32640, "pitch": 42, "duration": 70, "velocity": 122}, {"time": 32880, "pitch": 42, "duration": 57, "velocity": 111}, {"time": 33120, "pitch": 36, "duration": 10, "velocity": 120}, {"time": 33120, "pitch": 42, "duration": 67, "velocity": 121}, {"time": 33360, "pitch": 42, "duration": 46, "velocity": 95}, {"time": 33600, "pitch": 38, "duration": 10, "velocity": 115}, {"time": 33600, "pitch": 42, "duration": 65, "velocity": 122}, {"time": 33840, "pitch": 42, "duration": 56, "velocity": 87}, {"time": 34080, "pitch": 36, "duration": 10, "velocity": 120}, {"time": 34080, "pitch": 42, "duration": 68, "velocity": 121}, {"time": 34320, "pitch": 42, "duration": 46, "velocity": 79}, {"time": 34560, "pitch": 38, "duration": 10, "velocity": 115}, {"time": 34560, "pitch": 42, "duration": 61, "velocity": 122}, {"time": 34680, "pitch": 42, "duration": 62, "velocity": 81}, {"time": 34800, "pitch": 36, "duration": 10, "velocity": 120}, {"time": 34800, "pitch": 42, "duration": 48, "velocity": 100}, {"time": 35040, "pitch": 36, "duration": 10, "velocity": 120}, {"time": 35040, "pitch": 42, "duration": 67, "velocity": 121}, {"time": 35280, "pitch": 42, "duration": 58, "velocity": 67}, {"time": 35520, "pitch": 38, "duration": 10, "velocity": 115}, {"time": 35520, "pitch": 42, "duration": 80, "velocity": 122}, {"time": 35760, "pitch": 42, "duration": 62, "velocity": 87}, {"time": 35880, "pitch": 42, "duration": 62, "velocity": 81}, {"time": 36000, "pitch": 36, "duration": 10, "velocity": 120}, {"time": 36000, "pitch": 42, "duration": 73, "velocity": 122}, {"time": 36240, "pitch": 42, "duration": 55, "velocity": 87}, {"time": 36480, "pitch": 38, "duration": 10, "velocity": 115}, {"time": 36480, "pitch": 42, "duration": 70, "velocity": 122}, {"time": 36720, "pitch": 42, "duration": 57, "velocity": 111}, {"time": 36960, "pitch": 36, "duration": 10, "velocity": 120}, {"time": 36960, "pitch": 42, "duration": 67, "velocity": 121}, {"time": 37200, "pitch": 42, "duration": 46, "velocity": 95}, {"time": 37440, "pitch": 38, "duration": 10, "velocity": 115}, {"time": 37440, "pitch": 42, "duration": 65, "velocity": 122}, {"time": 37680, "pitch": 42, "duration": 56, "velocity": 87}, {"time": 37920, "pitch": 36, "duration": 10, "velocity": 120}, {"time": 37920, "pitch": 42, "duration": 68, "velocity": 121}, {"time": 38160, "pitch": 38, "duration": 10, "velocity": 94}, {"time": 38160, "pitch": 42, "duration": 46, "velocity": 79}, {"time": 38400, "pitch": 38, "duration": 10, "velocity": 115}, {"time": 38400, "pitch": 42, "duration": 61, "velocity": 122}, {"time": 38520, "pitch": 38, "duration": 10, "velocity": 94}, {"time": 38520, "pitch": 42, "duration": 62, "velocity": 81}, {"time": 38640, "pitch": 36, "duration": 10, "velocity": 120}, {"time": 38640, "pitch": 42, "duration": 48, "velocity": 100}, {"time": 38640, "pitch": 45, "duration": 10, "velocity": 94}, {"time": 38880, "pitch": 36, "duration": 10, "velocity": 120}, {"time": 38880, "pitch": 42, "duration": 67, "velocity": 121}, {"time": 38880, "pitch": 49, "duration": 10, "velocity": 63}, {"time": 39120, "pitch": 42, "duration": 58, "velocity": 67}, {"time": 39360, "pitch": 38, "duration": 10, "velocity": 115}, {"time": 39360, "pitch": 42, "duration": 80, "velocity": 122}, {"time": 39600, "pitch": 42, "duration": 62, "velocity": 87}, {"time": 39720, "pitch": 42, "duration": 62, "velocity": 81}, {"time": 39840, "pitch": 36, "duration": 10, "velocity": 120}, {"time": 39840, "pitch": 42, "duration": 73, "velocity": 122}, {"time": 40080, "pitch": 42, "duration": 55, "velocity": 87}, {"time": 40320, "pitch": 38, "duration": 10, "velocity": 115}, {"time": 40320, "pitch": 42, "duration": 70, "velocity": 122}, {"time": 40560, "pitch": 42, "duration": 57, "velocity": 111}, {"time": 40800, "pitch": 36, "duration": 10, "velocity": 120}, {"time": 40800, "pitch": 42, "duration": 67, "velocity": 121}, {"time": 41040, "pitch": 42, "duration": 46, "velocity": 95}, {"time": 41280, "pitch": 38, "duration": 10, "velocity": 115}, {"time": 41280, "pitch": 42, "duration": 65, "velocity": 122}, {"time": 41520, "pitch": 42, "duration": 56, "velocity": 87}, {"time": 41760, "pitch": 36, "duration": 10, "velocity": 120}, {"time": 41760, "pitch": 42, "duration": 68, "velocity": 121}, {"time": 42000, "pitch": 42, "duration": 46, "velocity": 79}, {"time": 42240, "pitch": 38, "duration": 10, "velocity": 115}, {"time": 42240, "pitch": 42, "duration": 61, "velocity": 122}, {"time": 42360, "pitch": 42, "duration": 62, "velocity": 81}, {"time": 42480, "pitch": 36, "duration": 10, "velocity": 120}, {"time": 42480, "pitch": 42, "duration": 48, "velocity": 100}, {"time": 42720, "pitch": 36, "duration": 10, "velocity": 120}, {"time": 42720, "pitch": 42, "duration": 67, "velocity": 121}, {"time": 42960, "pitch": 42, "duration": 58, "velocity": 67}, {"time": 43200, "pitch": 38, "duration": 10, "velocity": 115}, {"time": 43200, "pitch": 42, "duration": 80, "velocity": 122}, {"time": 43440, "pitch": 42, "duration": 62, "velocity": 87}, {"time": 43560, "pitch": 42, "duration": 62, "velocity": 81}, {"time": 43680, "pitch": 36, "duration": 10, "velocity": 120}, {"time": 43680, "pitch": 42, "duration": 73, "velocity": 122}, {"time": 43920, "pitch": 42, "duration": 55, "velocity": 87}, {"time": 44160, "pitch": 38, "duration": 10, "velocity": 115}, {"time": 44160, "pitch": 42, "duration": 70, "velocity": 122}, {"time": 44400, "pitch": 42, "duration": 57, "velocity": 111}, {"time": 44640, "pitch": 36, "duration": 10, "velocity": 120}, {"time": 44640, "pitch": 42, "duration": 67, "velocity": 121}, {"time": 44880, "pitch": 42, "duration": 46, "velocity": 95}, {"time": 45120, "pitch": 38, "duration": 10, "velocity": 115}, {"time": 45120, "pitch": 42, "duration": 65, "velocity": 122}, {"time": 45360, "pitch": 42, "duration": 56, "velocity": 87}, {"time": 45600, "pitch": 36, "duration": 10, "velocity": 120}, {"time": 45600, "pitch": 42, "duration": 68, "velocity": 121}, {"time": 45840, "pitch": 42, "duration": 46, "velocity": 79}, {"time": 46080, "pitch": 38, "duration": 10, "velocity": 115}, {"time": 46080, "pitch": 42, "duration": 61, "velocity": 122}, {"time": 46200, "pitch": 42, "duration": 62, "velocity": 81}, {"time": 46320, "pitch": 36, "duration": 10, "velocity": 120}, {"time": 46320, "pitch": 46, "duration": 48, "velocity": 80}, {"time": 46560, "pitch": 36, "duration": 10, "velocity": 120}, {"time": 46560, "pitch": 42, "duration": 67, "velocity": 121}, {"time": 46800, "pitch": 42, "duration": 58, "velocity": 67}, {"time": 47040, "pitch": 38, "duration": 10, "velocity": 115}, {"time": 47040, "pitch": 42, "duration": 80, "velocity": 122}, {"time": 47280, "pitch": 42, "duration": 62, "velocity": 87}, {"time": 47400, "pitch": 42, "duration": 62, "velocity": 81}, {"time": 47520, "pitch": 36, "duration": 10, "velocity": 120}, {"time": 47520, "pitch": 42, "duration": 73, "velocity": 122}, {"time": 47760, "pitch": 42, "duration": 55, "velocity": 87}, {"time": 48000, "pitch": 38, "duration": 10, "velocity": 115}, {"time": 48000, "pitch": 42, "duration": 70, "velocity": 122}, {"time": 48240, "pitch": 42, "duration": 57, "velocity": 111}, {"time": 48480, "pitch": 36, "duration": 10, "velocity": 120}, {"time": 48480, "pitch": 42, "duration": 67, "velocity": 121}, {"time": 48720, "pitch": 42, "duration": 46, "velocity": 95}, {"time": 48960, "pitch": 38, "duration": 10, "velocity": 115}, {"time": 48960, "pitch": 42, "duration": 65, "velocity": 122}, {"time": 49200, "pitch": 42, "duration": 56, "velocity": 87}, {"time": 49440, "pitch": 36, "duration": 10, "velocity": 120}, {"time": 49440, "pitch": 42, "duration": 68, "velocity": 121}, {"time": 49680, "pitch": 42, "duration": 46, "velocity": 79}, {"time": 49920, "pitch": 38, "duration": 10, "velocity": 115}, {"time": 49920, "pitch": 42, "duration": 61, "velocity": 122}, {"time": 50040, "pitch": 42, "duration": 62, "velocity": 81}, {"time": 50160, "pitch": 36, "duration": 10, "velocity": 120}, {"time": 50160, "pitch": 42, "duration": 48, "velocity": 100}, {"time": 50400, "pitch": 36, "duration": 10, "velocity": 120}, {"time": 50400, "pitch": 42, "duration": 67, "velocity": 121}, {"time": 50640, "pitch": 42, "duration": 58, "velocity": 67}, {"time": 50880, "pitch": 38, "duration": 10, "velocity": 115}, {"time": 50880, "pitch": 42, "duration": 80, "velocity": 122}, {"time": 51120, "pitch": 42, "duration": 62, "velocity": 87}, {"time": 51240, "pitch": 42, "duration": 62, "velocity": 81}, {"time": 51360, "pitch": 36, "duration": 10, "velocity": 120}, {"time": 51360, "pitch": 42, "duration": 73, "velocity": 122}, {"time": 51600, "pitch": 42, "duration": 55, "velocity": 87}, {"time": 51840, "pitch": 38, "duration": 10, "velocity": 115}, {"time": 51840, "pitch": 42, "duration": 70, "velocity": 122}, {"time": 52080, "pitch": 42, "duration": 57, "velocity": 111}, {"time": 52320, "pitch": 36, "duration": 10, "velocity": 120}, {"time": 52320, "pitch": 42, "duration": 67, "velocity": 121}, {"time": 52560, "pitch": 42, "duration": 46, "velocity": 95}, {"time": 52800, "pitch": 38, "duration": 10, "velocity": 115}, {"time": 52800, "pitch": 42, "duration": 65, "velocity": 122}, {"time": 53040, "pitch": 42, "duration": 56, "velocity": 87}, {"time": 53040, "pitch": 48, "duration": 10, "velocity": 105}, {"time": 53280, "pitch": 36, "duration": 10, "velocity": 120}, {"time": 53280, "pitch": 42, "duration": 68, "velocity": 121}, {"time": 53520, "pitch": 42, "duration": 46, "velocity": 79}, {"time": 53520, "pitch": 45, "duration": 10, "velocity": 103}, {"time": 53760, "pitch": 38, "duration": 10, "velocity": 115}, {"time": 53760, "pitch": 42, "duration": 61, "velocity": 122}, {"time": 53880, "pitch": 42, "duration": 62, "velocity": 81}, {"time": 54000, "pitch": 36, "duration": 10, "velocity": 120}, {"time": 54000, "pitch": 41, "duration": 10, "velocity": 100}, {"time": 54000, "pitch": 42, "duration": 48, "velocity": 100}, {"time": 54120, "pitch": 38, "duration": 10, "velocity": 105}, {"time": 54240, "pitch": 36, "duration": 10, "velocity": 120}, {"time": 54240, "pitch": 42, "duration": 74, "velocity": 114}, {"time": 54240, "pitch": 49, "duration": 10, "velocity": 65}, {"time": 54240, "pitch": 70, "duration": 77, "velocity": 112}, {"time": 54480, "pitch": 70, "duration": 63, "velocity": 55}, {"time": 54720, "pitch": 42, "duration": 68, "velocity": 117}, {"time": 54720, "pitch": 70, "duration": 71, "velocity": 100}, {"time": 54960, "pitch": 36, "duration": 10, "velocity": 120}, {"time": 54960, "pitch": 70, "duration": 61, "velocity": 120}, {"time": 55200, "pitch": 42, "duration": 70, "velocity": 114}, {"time": 55440, "pitch": 85, "duration": 10, "velocity": 75}, {"time": 55520, "pitch": 85, "duration": 10, "velocity": 90}, {"time": 55560, "pitch": 42, "duration": 34, "velocity": 58}, {"time": 55600, "pitch": 85, "duration": 10, "velocity": 98}, {"time": 55680, "pitch": 38, "duration": 10, "velocity": 114}, {"time": 55680, "pitch": 42, "duration": 65, "velocity": 114}, {"time": 55680, "pitch": 85, "duration": 10, "velocity": 114}, {"time": 55920, "pitch": 42, "duration": 73, "velocity": 56}, {"time": 56160, "pitch": 36, "duration": 10, "velocity": 120}, {"time": 56160, "pitch": 42, "duration": 73, "velocity": 114}, {"time": 56400, "pitch": 42, "duration": 67, "velocity": 54}, {"time": 56640, "pitch": 42, "duration": 69, "velocity": 112}, {"time": 56880, "pitch": 36, "duration": 10, "velocity": 120}, {"time": 56880, "pitch": 42, "duration": 60, "velocity": 59}, {"time": 56940, "pitch": 54, "duration": 10, "velocity": 55}, {"time": 57000, "pitch": 54, "duration": 10, "velocity": 60}, {"time": 57060, "pitch": 54, "duration": 10, "velocity": 65}, {"time": 57120, "pitch": 36, "duration": 10, "velocity": 120}, {"time": 57120, "pitch": 42, "duration": 71, "velocity": 111}, {"time": 57120, "pitch": 54, "duration": 10, "velocity": 114}, {"time": 57360, "pitch": 82, "duration": 57, "velocity": 85}, {"time": 57600, "pitch": 38, "duration": 10, "velocity": 114}, {"time": 57600, "pitch": 42, "duration": 75, "velocity": 112}, {"time": 57600, "pitch": 82, "duration": 41, "velocity": 108}, {"time": 58080, "pitch": 36, "duration": 10, "velocity": 120}, {"time": 58080, "pitch": 42, "duration": 70, "velocity": 100}, {"time": 58080, "pitch": 70, "duration": 77, "velocity": 112}, {"time": 58320, "pitch": 42, "duration": 67, "velocity": 55}, {"time": 58320, "pitch": 70, "duration": 63, "velocity": 55}, {"time": 58560, "pitch": 42, "duration": 71, "velocity": 112}, {"time": 58560, "pitch": 70, "duration": 71, "velocity": 100}, {"time": 58800, "pitch": 36, "duration": 10, "velocity": 120}, {"time": 58800, "pitch": 42, "duration": 62, "velocity": 55}, {"time": 58800, "pitch": 70, "duration": 61, "velocity": 120}, {"time": 59040, "pitch": 42, "duration": 62, "velocity": 111}, {"time": 59280, "pitch": 42, "duration": 51, "velocity": 59}, {"time": 59280, "pitch": 85, "duration": 10, "velocity": 75}, {"time": 59360, "pitch": 85, "duration": 10, "velocity": 90}, {"time": 59440, "pitch": 85, "duration": 10, "velocity": 98}, {"time": 59520, "pitch": 38, "duration": 10, "velocity": 114}, {"time": 59520, "pitch": 42, "duration": 69, "velocity": 117}, {"time": 59520, "pitch": 85, "duration": 10, "velocity": 114}, {"time": 59760, "pitch": 42, "duration": 62, "velocity": 59}, {"time": 60000, "pitch": 36, "duration": 10, "velocity": 120}, {"time": 60000, "pitch": 42, "duration": 57, "velocity": 108}, {"time": 60240, "pitch": 42, "duration": 77, "velocity": 59}, {"time": 60480, "pitch": 42, "duration": 58, "velocity": 112}, {"time": 60720, "pitch": 36, "duration": 10, "velocity": 120}, {"time": 60720, "pitch": 42, "duration": 58, "velocity": 60}, {"time": 60780, "pitch": 54, "duration": 10, "velocity": 55}, {"time": 60840, "pitch": 54, "duration": 10, "velocity": 60}, {"time": 60900, "pitch": 54, "duration": 10, "velocity": 65}, {"time": 60960, "pitch": 36, "duration": 10, "velocity": 120}, {"time": 60960, "pitch": 42, "duration": 66, "velocity": 114}, {"time": 60960, "pitch": 54, "duration": 10, "velocity": 114}, {"time": 61200, "pitch": 42, "duration": 68, "velocity": 61}, {"time": 61200, "pitch": 82, "duration": 57, "velocity": 85}, {"time": 61440, "pitch": 38, "duration": 10, "velocity": 114}, {"time": 61440, "pitch": 42, "duration": 65, "velocity": 100}, {"time": 61440, "pitch": 82, "duration": 41, "velocity": 108}, {"time": 61680, "pitch": 36, "duration": 10, "velocity": 120}, {"time": 61680, "pitch": 46, "duration": 48, "velocity": 61}, {"time": 61680, "pitch": 57, "duration": 10, "velocity": 70}, {"time": 61920, "pitch": 42, "duration": 66, "velocity": 111}, {"time": 62160, "pitch": 36, "duration": 10, "velocity": 120}, {"time": 62160, "pitch": 42, "duration": 41, "velocity": 61}, {"time": 62400, "pitch": 38, "duration": 10, "velocity": 115}, {"time": 62400, "pitch": 42, "duration": 67, "velocity": 112}, {"time": 62640, "pitch": 42, "duration": 61, "velocity": 58}, {"time": 62880, "pitch": 36, "duration": 10, "velocity": 120}, {"time": 62880, "pitch": 42, "duration": 61, "velocity": 112}, {"time": 63120, "pitch": 42, "duration": 62, "velocity": 60}, {"time": 63360, "pitch": 38, "duration": 10, "velocity": 115}, {"time": 63360, "pitch": 42, "duration": 70, "velocity": 112}, {"time": 63600, "pitch": 36, "duration": 10, "velocity": 120}, {"time": 63600, "pitch": 42, "duration": 55, "velocity": 53}, {"time": 63840, "pitch": 42, "duration": 78, "velocity": 114}, {"time": 64080, "pitch": 36, "duration": 10, "velocity": 120}, {"time": 64080, "pitch": 42, "duration": 49, "velocity": 53}, {"time": 64320, "pitch": 38, "duration": 10, "velocity": 115}, {"time": 64320, "pitch": 42, "duration": 77, "velocity": 112}, {"time": 64560, "pitch": 36, "duration": 10, "velocity": 120}, {"time": 64560, "pitch": 42, "duration": 55, "velocity": 60}, {"time": 64800, "pitch": 36, "duration": 10, "velocity": 120}, {"time": 64800, "pitch": 42, "duration": 64, "velocity": 112}, {"time": 65040, "pitch": 42, "duration": 61, "velocity": 60}, {"time": 65280, "pitch": 38, "duration": 10, "velocity": 115}, {"time": 65280, "pitch": 42, "duration": 64, "velocity": 117}, {"time": 65520, "pitch": 36, "duration": 10, "velocity": 120}, {"time": 65520, "pitch": 42, "duration": 60, "velocity": 63}, {"time": 65520, "pitch": 57, "duration": 10, "velocity": 70}, {"time": 65760, "pitch": 42, "duration": 67, "velocity": 112}, {"time": 66000, "pitch": 36, "duration": 10, "velocity": 120}, {"time": 66240, "pitch": 38, "duration": 10, "velocity": 115}, {"time": 66240, "pitch": 42, "duration": 70, "velocity": 111}, {"time": 66480, "pitch": 36, "duration": 10, "velocity": 120}, {"time": 66480, "pitch": 42, "duration": 56, "velocity": 58}, {"time": 66720, "pitch": 36, "duration": 10, "velocity": 120}, {"time": 66720, "pitch": 42, "duration": 74, "velocity": 108}, {"time": 66960, "pitch": 42, "duration": 63, "velocity": 59}, {"time": 67200, "pitch": 38, "duration": 10, "velocity": 115}, {"time": 67200, "pitch": 42, "duration": 66, "velocity": 104}, {"time": 67440, "pitch": 36, "duration": 10, "velocity": 120}, {"time": 67440, "pitch": 42, "duration": 52, "velocity": 51}, {"time": 67440, "pitch": 49, "duration": 10, "velocity": 70}, {"time": 67680, "pitch": 36, "duration": 10, "velocity": 120}, {"time": 67680, "pitch": 42, "duration": 68, "velocity": 93}, {"time": 67920, "pitch": 48, "duration": 10, "velocity": 106}, {"time": 68160, "pitch": 38, "duration": 10, "velocity": 115}, {"time": 68160, "pitch": 42, "duration": 73, "velocity": 111}, {"time": 68400, "pitch": 36, "duration": 10, "velocity": 120}, {"time": 68400, "pitch": 42, "duration": 60, "velocity": 59}, {"time": 68640, "pitch": 36, "duration": 10, "velocity": 120}, {"time": 68640, "pitch": 42, "duration": 76, "velocity": 112}, {"time": 68880, "pitch": 36, "duration": 10, "velocity": 120}, {"time": 68880, "pitch": 42, "duration": 61, "velocity": 69}, {"time": 69120, "pitch": 38, "duration": 10, "velocity": 115}, {"time": 69120, "pitch": 42, "duration": 66, "velocity": 93}, {"time": 69240, "pitch": 45, "duration": 10, "velocity": 104}, {"time": 69360, "pitch": 36, "duration": 10, "velocity": 120}, {"time": 69360, "pitch": 46, "duration": 47, "velocity": 75}, {"time": 69480, "pitch": 41, "duration": 10, "velocity": 70}, {"time": 69600, "pitch": 36, "duration": 10, "velocity": 120}, {"time": 69600, "pitch": 42, "duration": 67, "velocity": 121}, {"time": 69600, "pitch": 49, "duration": 75, "velocity": 93}, {"time": 69600, "pitch": 57, "duration": 109, "velocity": 77}, {"time": 69600, "pitch": 82, "duration": 69, "velocity": 84}, {"time": 69840, "pitch": 42, "duration": 58, "velocity": 67}, {"time": 69840, "pitch": 82, "duration": 53, "velocity": 45}, {"time": 69960, "pitch": 82, "duration": 41, "velocity": 52}, {"time": 70080, "pitch": 38, "duration": 10, "velocity": 115}, {"time": 70080, "pitch": 42, "duration": 80, "velocity": 122}, {"time": 70080, "pitch": 82, "duration": 72, "velocity": 74}, {"time": 70320, "pitch": 42, "duration": 62, "velocity": 87}, {"time": 70320, "pitch": 82, "duration": 50, "velocity": 41}, {"time": 70440, "pitch": 42, "duration": 62, "velocity": 81}, {"time": 70440, "pitch": 82, "duration": 43, "velocity": 48}, {"time": 70560, "pitch": 36, "duration": 10, "velocity": 120}, {"time": 70560, "pitch": 42, "duration": 73, "velocity": 122}, {"time": 70560, "pitch": 82, "duration": 75, "velocity": 75}, {"time": 70800, "pitch": 42, "duration": 55, "velocity": 87}, {"time": 70800, "pitch": 82, "duration": 51, "velocity": 40}, {"time": 70920, "pitch": 82, "duration": 47, "velocity": 46}, {"time": 71040, "pitch": 38, "duration": 10, "velocity": 115}, {"time": 71040, "pitch": 42, "duration": 70, "velocity": 122}, {"time": 71040, "pitch": 54, "duration": 75, "velocity": 122}, {"time": 71040, "pitch": 82, "duration": 73, "velocity": 66}, {"time": 71280, "pitch": 42, "duration": 57, "velocity": 111}, {"time": 71280, "pitch": 82, "duration": 58, "velocity": 45}, {"time": 71400, "pitch": 82, "duration": 49, "velocity": 53}, {"time": 71520, "pitch": 36, "duration": 10, "velocity": 120}, {"time": 71520, "pitch": 42, "duration": 67, "velocity": 121}, {"time": 71520, "pitch": 82, "duration": 69, "velocity": 84}, {"time": 71760, "pitch": 42, "duration": 46, "velocity": 95}, {"time": 71760, "pitch": 82, "duration": 53, "velocity": 45}, {"time": 71880, "pitch": 82, "duration": 41, "velocity": 52}, {"time": 72000, "pitch": 38, "duration": 10, "velocity": 115}, {"time": 72000, "pitch": 42, "duration": 65, "velocity": 122}, {"time": 72000, "pitch": 82, "duration": 72, "velocity": 74}, {"time": 72240, "pitch": 42, "duration": 56, "velocity": 87}, {"time": 72240, "pitch": 82, "duration": 50, "velocity": 41}, {"time": 72360, "pitch": 82, "duration": 43, "velocity": 48}, {"time": 72480, "pitch": 36, "duration": 10, "velocity": 120}, {"time": 72480, "pitch": 42, "duration": 68, "velocity": 121}, {"time": 72480, "pitch": 82, "duration": 75, "velocity": 75}, {"time": 72720, "pitch": 42, "duration": 46, "velocity": 79}, {"time": 72720, "pitch": 82, "duration": 51, "velocity": 40}, {"time": 72840, "pitch": 82, "duration": 47, "velocity": 46}, {"time": 72960, "pitch": 38, "duration": 10, "velocity": 115}, {"time": 72960, "pitch": 42, "duration": 61, "velocity": 122}, {"time": 72960, "pitch": 54, "duration": 75, "velocity": 122}, {"time": 72960, "pitch": 82, "duration": 73, "velocity": 66}, {"time": 73080, "pitch": 42, "duration": 62, "velocity": 81}, {"time": 73200, "pitch": 36, "duration": 10, "velocity": 120}, {"time": 73200, "pitch": 42, "duration": 48, "velocity": 100}, {"time": 73200, "pitch": 82, "duration": 58, "velocity": 45}, {"time": 73320, "pitch": 82, "duration": 49, "velocity": 53}, {"time": 73440, "pitch": 36, "duration": 10, "velocity": 120}, {"time": 73440, "pitch": 42, "duration": 67, "velocity": 121}, {"time": 73440, "pitch": 82, "duration": 69, "velocity": 84}, {"time": 73680, "pitch": 42, "duration": 58, "velocity": 67}, {"time": 73680, "pitch": 82, "duration": 53, "velocity": 45}, {"time": 73800, "pitch": 82, "duration": 41, "velocity": 52}, {"time": 73920, "pitch": 38, "duration": 10, "velocity": 115}, {"time": 73920, "pitch": 42, "duration": 80, "velocity": 122}, {"time": 73920, "pitch": 82, "duration": 72, "velocity": 74}, {"time": 74160, "pitch": 42, "duration": 62, "velocity": 87}, {"time": 74160, "pitch": 82, "duration": 50, "velocity": 41}, {"time": 74280, "pitch": 42, "duration": 62, "velocity": 81}, {"time": 74280, "pitch": 82, "duration": 43, "velocity": 48}, {"time": 74400, "pitch": 36, "duration": 10, "velocity": 120}, {"time": 74400, "pitch": 42, "duration": 73, "velocity": 122}, {"time": 74400, "pitch": 82, "duration": 75, "velocity": 75}, {"time": 74640, "pitch": 42, "duration": 55, "velocity": 87}, {"time": 74640, "pitch": 82, "duration": 51, "velocity": 40}, {"time": 74760, "pitch": 82, "duration": 47, "velocity": 46}, {"time": 74880, "pitch": 38, "duration": 10, "velocity": 115}, {"time": 74880, "pitch": 42, "duration": 70, "velocity": 122}, {"time": 74880, "pitch": 54, "duration": 75, "velocity": 122}, {"time": 74880, "pitch": 82, "duration": 73, "velocity": 66}, {"time": 75120, "pitch": 42, "duration": 57, "velocity": 111}, {"time": 75120, "pitch": 82, "duration": 58, "velocity": 45}, {"time": 75240, "pitch": 82, "duration": 49, "velocity": 53}, {"time": 75360, "pitch": 36, "duration": 10, "velocity": 120}, {"time": 75360, "pitch": 42, "duration": 67, "velocity": 121}, {"time": 75360, "pitch": 82, "duration": 69, "velocity": 84}, {"time": 75600, "pitch": 42, "duration": 46, "velocity": 95}, {"time": 75600, "pitch": 82, "duration": 53, "velocity": 45}, {"time": 75720, "pitch": 82, "duration": 41, "velocity": 52}, {"time": 75840, "pitch": 38, "duration": 10, "velocity": 115}, {"time": 75840, "pitch": 42, "duration": 65, "velocity": 122}, {"time": 75840, "pitch": 82, "duration": 72, "velocity": 74}, {"time": 76080, "pitch": 42, "duration": 56, "velocity": 87}, {"time": 76080, "pitch": 82, "duration": 50, "velocity": 41}, {"time": 76200, "pitch": 82, "duration": 43, "velocity": 48}, {"time": 76320, "pitch": 36, "duration": 10, "velocity": 120}, {"time": 76320, "pitch": 42, "duration": 68, "velocity": 121}, {"time": 76320, "pitch": 82, "duration": 75, "velocity": 75}, {"time": 76560, "pitch": 42, "duration": 46, "velocity": 79}, {"time": 76560, "pitch": 82, "duration": 51, "velocity": 40}, {"time": 76680, "pitch": 82, "duration": 47, "velocity": 46}, {"time": 76800, "pitch": 38, "duration": 10, "velocity": 115}, {"time": 76800, "pitch": 42, "duration": 61, "velocity": 122}, {"time": 76800, "pitch": 54, "duration": 75, "velocity": 122}, {"time": 76800, "pitch": 82, "duration": 73, "velocity": 66}, {"time": 76920, "pitch": 42, "duration": 62, "velocity": 81}, {"time": 77040, "pitch": 36, "duration": 10, "velocity": 120}, {"time": 77040, "pitch": 46, "duration": 48, "velocity": 80}, {"time": 77040, "pitch": 82, "duration": 58, "velocity": 45}, {"time": 77160, "pitch": 82, "duration": 49, "velocity": 53}, {"time": 77280, "pitch": 36, "duration": 10, "velocity": 120}, {"time": 77280, "pitch": 42, "duration": 67, "velocity": 121}, {"time": 77280, "pitch": 49, "duration": 109, "velocity": 77}, {"time": 77280, "pitch": 82, "duration": 69, "velocity": 84}, {"time": 77520, "pitch": 42, "duration": 58, "velocity": 67}, {"time": 77520, "pitch": 82, "duration": 53, "velocity": 45}, {"time": 77640, "pitch": 82, "duration": 41, "velocity": 52}, {"time": 77760, "pitch": 38, "duration": 10, "velocity": 115}, {"time": 77760, "pitch": 42, "duration": 80, "velocity": 122}, {"time": 77760, "pitch": 82, "duration": 72, "velocity": 74}, {"time": 78000, "pitch": 42, "duration": 62, "velocity": 87}, {"time": 78000, "pitch": 82, "duration": 50, "velocity": 41}, {"time": 78120, "pitch": 42, "duration": 62, "velocity": 81}, {"time": 78120, "pitch": 82, "duration": 43, "velocity": 48}, {"time": 78240, "pitch": 36, "duration": 10, "velocity": 120}, {"time": 78240, "pitch": 42, "duration": 73, "velocity": 122}, {"time": 78240, "pitch": 82, "duration": 75, "velocity": 75}, {"time": 78480, "pitch": 42, "duration": 55, "velocity": 87}, {"time": 78480, "pitch": 82, "duration": 51, "velocity": 40}, {"time": 78600, "pitch": 82, "duration": 47, "velocity": 46}, {"time": 78720, "pitch": 38, "duration": 10, "velocity": 115}, {"time": 78720, "pitch": 42, "duration": 70, "velocity": 122}, {"time": 78720, "pitch": 54, "duration": 75, "velocity": 122}, {"time": 78720, "pitch": 82, "duration": 73, "velocity": 66}, {"time": 78960, "pitch": 42, "duration": 57, "velocity": 111}, {"time": 78960, "pitch": 82, "duration": 58, "velocity": 45}, {"time": 79080, "pitch": 82, "duration": 49, "velocity": 53}, {"time": 79200, "pitch": 36, "duration": 10, "velocity": 120}, {"time": 79200, "pitch": 42, "duration": 67, "velocity": 121}, {"time": 79200, "pitch": 82, "duration": 69, "velocity": 84}, {"time": 79440, "pitch": 42, "duration": 46, "velocity": 95}, {"time": 79440, "pitch": 82, "duration": 53, "velocity": 45}, {"time": 79560, "pitch": 82, "duration": 41, "velocity": 52}, {"time": 79680, "pitch": 38, "duration": 10, "velocity": 115}, {"time": 79680, "pitch": 42, "duration": 65, "velocity": 122}, {"time": 79680, "pitch": 82, "duration": 72, "velocity": 74}, {"time": 79920, "pitch": 42, "duration": 56, "velocity": 87}, {"time": 79920, "pitch": 82, "duration": 50, "velocity": 41}, {"time": 80040, "pitch": 82, "duration": 43, "velocity": 48}, {"time": 80160, "pitch": 36, "duration": 10, "velocity": 120}, {"time": 80160, "pitch": 42, "duration": 68, "velocity": 121}, {"time": 80160, "pitch": 82, "duration": 75, "velocity": 75}, {"time": 80400, "pitch": 42, "duration": 46, "velocity": 79}, {"time": 80400, "pitch": 82, "duration": 51, "velocity": 40}, {"time": 80520, "pitch": 82, "duration": 47, "velocity": 46}, {"time": 80640, "pitch": 38, "duration": 10, "velocity": 115}, {"time": 80640, "pitch": 42, "duration": 61, "velocity": 122}, {"time": 80640, "pitch": 54, "duration": 75, "velocity": 122}, {"time": 80640, "pitch": 82, "duration": 73, "velocity": 66}, {"time": 80760, "pitch": 42, "duration": 62, "velocity": 81}, {"time": 80880, "pitch": 36, "duration": 10, "velocity": 120}, {"time": 80880, "pitch": 42, "duration": 48, "velocity": 100}, {"time": 80880, "pitch": 82, "duration": 58, "velocity": 45}, {"time": 81000, "pitch": 82, "duration": 49, "velocity": 53}, {"time": 81120, "pitch": 36, "duration": 10, "velocity": 120}, {"time": 81120, "pitch": 42, "duration": 67, "velocity": 121}, {"time": 81120, "pitch": 82, "duration": 69, "velocity": 84}, {"time": 81360, "pitch": 42, "duration": 58, "velocity": 67}, {"time": 81360, "pitch": 82, "duration": 53, "velocity": 45}, {"time": 81480, "pitch": 82, "duration": 41, "velocity": 52}, {"time": 81600, "pitch": 38, "duration": 10, "velocity": 115}, {"time": 81600, "pitch": 42, "duration": 80, "velocity": 122}, {"time": 81600, "pitch": 82, "duration": 72, "velocity": 74}, {"time": 81840, "pitch": 42, "duration": 62, "velocity": 87}, {"time": 81840, "pitch": 82, "duration": 50, "velocity": 41}, {"time": 81960, "pitch": 42, "duration": 62, "velocity": 81}, {"time": 81960, "pitch": 82, "duration": 43, "velocity": 48}, {"time": 82080, "pitch": 36, "duration": 10, "velocity": 120}, {"time": 82080, "pitch": 42, "duration": 73, "velocity": 122}, {"time": 82080, "pitch": 82, "duration": 75, "velocity": 75}, {"time": 82320, "pitch": 42, "duration": 55, "velocity": 87}, {"time": 82320, "pitch": 82, "duration": 51, "velocity": 40}, {"time": 82440, "pitch": 82, "duration": 47, "velocity": 46}, {"time": 82560, "pitch": 38, "duration": 10, "velocity": 115}, {"time": 82560, "pitch": 42, "duration": 70, "velocity": 122}, {"time": 82560, "pitch": 54, "duration": 75, "velocity": 122}, {"time": 82560, "pitch": 82, "duration": 73, "velocity": 66}, {"time": 82800, "pitch": 42, "duration": 57, "velocity": 111}, {"time": 82800, "pitch": 82, "duration": 58, "velocity": 45}, {"time": 82920, "pitch": 82, "duration": 49, "velocity": 53}, {"time": 83040, "pitch": 36, "duration": 10, "velocity": 120}, {"time": 83040, "pitch": 42, "duration": 67, "velocity": 121}, {"time": 83040, "pitch": 82, "duration": 69, "velocity": 84}, {"time": 83280, "pitch": 42, "duration": 46, "velocity": 95}, {"time": 83280, "pitch": 82, "duration": 53, "velocity": 45}, {"time": 83400, "pitch": 82, "duration": 41, "velocity": 52}, {"time": 83520, "pitch": 38, "duration": 10, "velocity": 115}, {"time": 83520, "pitch": 42, "duration": 65, "velocity": 122}, {"time": 83520, "pitch": 82, "duration": 72, "velocity": 74}, {"time": 83760, "pitch": 42, "duration": 56, "velocity": 87}, {"time": 83760, "pitch": 82, "duration": 50, "velocity": 41}, {"time": 83880, "pitch": 82, "duration": 43, "velocity": 48}, {"time": 84000, "pitch": 36, "duration": 10, "velocity": 120}, {"time": 84000, "pitch": 42, "duration": 68, "velocity": 121}, {"time": 84000, "pitch": 82, "duration": 75, "velocity": 75}, {"time": 84240, "pitch": 38, "duration": 10, "velocity": 94}, {"time": 84240, "pitch": 42, "duration": 46, "velocity": 79}, {"time": 84240, "pitch": 82, "duration": 51, "velocity": 40}, {"time": 84360, "pitch": 82, "duration": 47, "velocity": 46}, {"time": 84480, "pitch": 38, "duration": 10, "velocity": 115}, {"time": 84480, "pitch": 42, "duration": 61, "velocity": 122}, {"time": 84480, "pitch": 54, "duration": 75, "velocity": 122}, {"time": 84480, "pitch": 82, "duration": 73, "velocity": 66}, {"time": 84600, "pitch": 38, "duration": 10, "velocity": 94}, {"time": 84600, "pitch": 42, "duration": 62, "velocity": 81}, {"time": 84720, "pitch": 36, "duration": 10, "velocity": 120}, {"time": 84720, "pitch": 42, "duration": 48, "velocity": 100}, {"time": 84720, "pitch": 45, "duration": 10, "velocity": 94}, {"time": 84720, "pitch": 82, "duration": 58, "velocity": 45}, {"time": 84840, "pitch": 82, "duration": 49, "velocity": 53}, {"time": 84960, "pitch": 36, "duration": 10, "velocity": 120}, {"time": 84960, "pitch": 42, "duration": 67, "velocity": 121}, {"time": 84960, "pitch": 49, "duration": 10, "velocity": 63}, {"time": 84960, "pitch": 57, "duration": 109, "velocity": 77}, {"time": 84960, "pitch": 82, "duration": 69, "velocity": 84}, {"time": 85200, "pitch": 42, "duration": 58, "velocity": 67}, {"time": 85200, "pitch": 82, "duration": 53, "velocity": 45}, {"time": 85320, "pitch": 82, "duration": 41, "velocity": 52}, {"time": 85440, "pitch": 38, "duration": 10, "velocity": 115}, {"time": 85440, "pitch": 42, "duration": 80, "velocity": 122}, {"time": 85440, "pitch": 82, "duration": 72, "velocity": 74}, {"time": 85680, "pitch": 42, "duration": 62, "velocity": 87}, {"time": 85680, "pitch": 82, "duration": 50, "velocity": 41}, {"time": 85800, "pitch": 42, "duration": 62, "velocity": 81}, {"time": 85800, "pitch": 82, "duration": 43, "velocity": 48}, {"time": 85920, "pitch": 36, "duration": 10, "velocity": 120}, {"time": 85920, "pitch": 42, "duration": 73, "velocity": 122}, {"time": 85920, "pitch": 82, "duration": 75, "velocity": 75}, {"time": 86160, "pitch": 42, "duration": 55, "velocity": 87}, {"time": 86160, "pitch": 82, "duration": 51, "velocity": 40}, {"time": 86280, "pitch": 82, "duration": 47, "velocity": 46}, {"time": 86400, "pitch": 38, "duration": 10, "velocity": 115}, {"time": 86400, "pitch": 42, "duration": 70, "velocity": 122}, {"time": 86400, "pitch": 54, "duration": 75, "velocity": 122}, {"time": 86400, "pitch": 82, "duration": 73, "velocity": 66}, {"time": 86640, "pitch": 42, "duration": 57, "velocity": 111}, {"time": 86640, "pitch": 82, "duration": 58, "velocity": 45}, {"time": 86760, "pitch": 82, "duration": 49, "velocity": 53}, {"time": 86880, "pitch": 36, "duration": 10, "velocity": 120}, {"time": 86880, "pitch": 42, "duration": 67, "velocity": 121}, {"time": 86880, "pitch": 82, "duration": 69, "velocity": 84}, {"time": 87120, "pitch": 42, "duration": 46, "velocity": 95}, {"time": 87120, "pitch": 82, "duration": 53, "velocity": 45}, {"time": 87240, "pitch": 82, "duration": 41, "velocity": 52}, {"time": 87360, "pitch": 38, "duration": 10, "velocity": 115}, {"time": 87360, "pitch": 42, "duration": 65, "velocity": 122}, {"time": 87360, "pitch": 82, "duration": 72, "velocity": 74}, {"time": 87600, "pitch": 42, "duration": 56, "velocity": 87}, {"time": 87600, "pitch": 82, "duration": 50, "velocity": 41}, {"time": 87720, "pitch": 82, "duration": 43, "velocity": 48}, {"time": 87840, "pitch": 36, "duration": 10, "velocity": 120}, {"time": 87840, "pitch": 42, "duration": 68, "velocity": 121}, {"time": 87840, "pitch": 82, "duration": 75, "velocity": 75}, {"time": 88080, "pitch": 42, "duration": 46, "velocity": 79}, {"time": 88080, "pitch": 82, "duration": 51, "velocity": 40}, {"time": 88200, "pitch": 82, "duration": 47, "velocity": 46}, {"time": 88320, "pitch": 38, "duration": 10, "velocity": 115}, {"time": 88320, "pitch": 42, "duration": 61, "velocity": 122}, {"time": 88320, "pitch": 54, "duration": 75, "velocity": 122}, {"time": 88320, "pitch": 82, "duration": 73, "velocity": 66}, {"time": 88440, "pitch": 42, "duration": 62, "velocity": 81}, {"time": 88560, "pitch": 36, "duration": 10, "velocity": 120}, {"time": 88560, "pitch": 42, "duration": 48, "velocity": 100}, {"time": 88560, "pitch": 82, "duration": 58, "velocity": 45}, {"time": 88680, "pitch": 82, "duration": 49, "velocity": 53}, {"time": 88800, "pitch": 36, "duration": 10, "velocity": 120}, {"time": 88800, "pitch": 42, "duration": 67, "velocity": 121}, {"time": 88800, "pitch": 82, "duration": 69, "velocity": 84}, {"time": 89040, "pitch": 42, "duration": 58, "velocity": 67}, {"time": 89040, "pitch": 82, "duration": 53, "velocity": 45}, {"time": 89160, "pitch": 82, "duration": 41, "velocity": 52}, {"time": 89280, "pitch": 38, "duration": 10, "velocity": 115}, {"time": 89280, "pitch": 42, "duration": 80, "velocity": 122}, {"time": 89280, "pitch": 82, "duration": 72, "velocity": 74}, {"time": 89520, "pitch": 42, "duration": 62, "velocity": 87}, {"time": 89520, "pitch": 82, "duration": 50, "velocity": 41}, {"time": 89640, "pitch": 42, "duration": 62, "velocity": 81}, {"time": 89640, "pitch": 82, "duration": 43, "velocity": 48}, {"time": 89760, "pitch": 36, "duration": 10, "velocity": 120}, {"time": 89760, "pitch": 42, "duration": 73, "velocity": 122}, {"time": 89760, "pitch": 82, "duration": 75, "velocity": 75}, {"time": 90000, "pitch": 42, "duration": 55, "velocity": 87}, {"time": 90000, "pitch": 82, "duration": 51, "velocity": 40}, {"time": 90120, "pitch": 82, "duration": 47, "velocity": 46}, {"time": 90240, "pitch": 38, "duration": 10, "velocity": 115}, {"time": 90240, "pitch": 42, "duration": 70, "velocity": 122}, {"time": 90240, "pitch": 54, "duration": 75, "velocity": 122}, {"time": 90240, "pitch": 82, "duration": 73, "velocity": 66}, {"time": 90480, "pitch": 42, "duration": 57, "velocity": 111}, {"time": 90480, "pitch": 82, "duration": 58, "velocity": 45}, {"time": 90600, "pitch": 82, "duration": 49, "velocity": 53}, {"time": 90720, "pitch": 36, "duration": 10, "velocity": 120}, {"time": 90720, "pitch": 42, "duration": 67, "velocity": 121}, {"time": 90720, "pitch": 82, "duration": 69, "velocity": 84}, {"time": 90960, "pitch": 42, "duration": 46, "velocity": 95}, {"time": 90960, "pitch": 82, "duration": 53, "velocity": 45}, {"time": 91080, "pitch": 82, "duration": 41, "velocity": 52}, {"time": 91200, "pitch": 38, "duration": 10, "velocity": 115}, {"time": 91200, "pitch": 42, "duration": 65, "velocity": 122}, {"time": 91200, "pitch": 82, "duration": 72, "velocity": 74}, {"time": 91440, "pitch": 42, "duration": 56, "velocity": 87}, {"time": 91440, "pitch": 82, "duration": 50, "velocity": 41}, {"time": 91560, "pitch": 82, "duration": 43, "velocity": 48}, {"time": 91680, "pitch": 36, "duration": 10, "velocity": 120}, {"time": 91680, "pitch": 42, "duration": 68, "velocity": 121}, {"time": 91680, "pitch": 82, "duration": 75, "velocity": 75}, {"time": 91920, "pitch": 42, "duration": 46, "velocity": 79}, {"time": 91920, "pitch": 82, "duration": 51, "velocity": 40}, {"time": 92040, "pitch": 82, "duration": 47, "velocity": 46}, {"time": 92160, "pitch": 38, "duration": 10, "velocity": 115}, {"time": 92160, "pitch": 42, "duration": 61, "velocity": 122}, {"time": 92160, "pitch": 54, "duration": 75, "velocity": 122}, {"time": 92160, "pitch": 82, "duration": 73, "velocity": 66}, {"time": 92280, "pitch": 42, "duration": 62, "velocity": 81}, {"time": 92400, "pitch": 36, "duration": 10, "velocity": 120}, {"time": 92400, "pitch": 46, "duration": 48, "velocity": 80}, {"time": 92400, "pitch": 82, "duration": 58, "velocity": 45}, {"time": 92520, "pitch": 82, "duration": 49, "velocity": 53}, {"time": 92640, "pitch": 36, "duration": 10, "velocity": 120}, {"time": 92640, "pitch": 42, "duration": 67, "velocity": 121}, {"time": 92640, "pitch": 82, "duration": 69, "velocity": 84}, {"time": 92880, "pitch": 42, "duration": 58, "velocity": 67}, {"time": 92880, "pitch": 82, "duration": 53, "velocity": 45}, {"time": 93000, "pitch": 82, "duration": 41, "velocity": 52}, {"time": 93120, "pitch": 38, "duration": 10, "velocity": 115}, {"time": 93120, "pitch": 42, "duration": 80, "velocity": 122}, {"time": 93120, "pitch": 82, "duration": 72, "velocity": 74}, {"time": 93360, "pitch": 42, "duration": 62, "velocity": 87}, {"time": 93360, "pitch": 82, "duration": 50, "velocity": 41}, {"time": 93480, "pitch": 42, "duration": 62, "velocity": 81}, {"time": 93480, "pitch": 82, "duration": 43, "velocity": 48}, {"time": 93600, "pitch": 36, "duration": 10, "velocity": 120}, {"time": 93600, "pitch": 42, "duration": 73, "velocity": 122}, {"time": 93600, "pitch": 82, "duration": 75, "velocity": 75}, {"time": 93840, "pitch": 42, "duration": 55, "velocity": 87}, {"time": 93840, "pitch": 82, "duration": 51, "velocity": 40}, {"time": 93960, "pitch": 82, "duration": 47, "velocity": 46}, {"time": 94080, "pitch": 38, "duration": 10, "velocity": 115}, {"time": 94080, "pitch": 42, "duration": 70, "velocity": 122}, {"time": 94080, "pitch": 54, "duration": 75, "velocity": 122}, {"time": 94080, "pitch": 82, "duration": 73, "velocity": 66}, {"time": 94320, "pitch": 42, "duration": 57, "velocity": 111}, {"time": 94320, "pitch": 82, "duration": 58, "velocity": 45}, {"time": 94440, "pitch": 82, "duration": 49, "velocity": 53}, {"time": 94560, "pitch": 36, "duration": 10, "velocity": 120}, {"time": 94560, "pitch": 42, "duration": 67, "velocity": 121}, {"time": 94560, "pitch": 82, "duration": 69, "velocity": 84}, {"time": 94800, "pitch": 42, "duration": 46, "velocity": 95}, {"time": 94800, "pitch": 82, "duration": 53, "velocity": 45}, {"time": 94920, "pitch": 82, "duration": 41, "velocity": 52}, {"time": 95040, "pitch": 38, "duration": 10, "velocity": 115}, {"time": 95040, "pitch": 42, "duration": 65, "velocity": 122}, {"time": 95040, "pitch": 82, "duration": 72, "velocity": 74}, {"time": 95280, "pitch": 42, "duration": 56, "velocity": 87}, {"time": 95280, "pitch": 82, "duration": 50, "velocity": 41}, {"time": 95400, "pitch": 82, "duration": 43, "velocity": 48}, {"time": 95520, "pitch": 36, "duration": 10, "velocity": 120}, {"time": 95520, "pitch": 42, "duration": 68, "velocity": 121}, {"time": 95520, "pitch": 82, "duration": 75, "velocity": 75}, {"time": 95760, "pitch": 42, "duration": 46, "velocity": 79}, {"time": 95760, "pitch": 82, "duration": 51, "velocity": 40}, {"time": 95880, "pitch": 82, "duration": 47, "velocity": 46}, {"time": 96000, "pitch": 38, "duration": 10, "velocity": 115}, {"time": 96000, "pitch": 42, "duration": 61, "velocity": 122}, {"time": 96000, "pitch": 54, "duration": 75, "velocity": 122}, {"time": 96000, "pitch": 82, "duration": 73, "velocity": 66}, {"time": 96120, "pitch": 42, "duration": 62, "velocity": 81}, {"time": 96240, "pitch": 36, "duration": 10, "velocity": 120}, {"time": 96240, "pitch": 42, "duration": 48, "velocity": 100}, {"time": 96240, "pitch": 82, "duration": 58, "velocity": 45}, {"time": 96360, "pitch": 82, "duration": 49, "velocity": 53}, {"time": 96480, "pitch": 36, "duration": 10, "velocity": 120}, {"time": 96480, "pitch": 42, "duration": 67, "velocity": 121}, {"time": 96480, "pitch": 82, "duration": 69, "velocity": 84}, {"time": 96720, "pitch": 42, "duration": 58, "velocity": 67}, {"time": 96720, "pitch": 82, "duration": 53, "velocity": 45}, {"time": 96840, "pitch": 82, "duration": 41, "velocity": 52}, {"time": 96960, "pitch": 38, "duration": 10, "velocity": 115}, {"time": 96960, "pitch": 42, "duration": 80, "velocity": 122}, {"time": 96960, "pitch": 82, "duration": 72, "velocity": 74}, {"time": 97200, "pitch": 42, "duration": 62, "velocity": 87}, {"time": 97200, "pitch": 82, "duration": 50, "velocity": 41}, {"time": 97320, "pitch": 42, "duration": 62, "velocity": 81}, {"time": 97320, "pitch": 82, "duration": 43, "velocity": 48}, {"time": 97440, "pitch": 36, "duration": 10, "velocity": 120}, {"time": 97440, "pitch": 42, "duration": 73, "velocity": 122}, {"time": 97440, "pitch": 82, "duration": 75, "velocity": 75}, {"time": 97680, "pitch": 42, "duration": 55, "velocity": 87}, {"time": 97680, "pitch": 82, "duration": 51, "velocity": 40}, {"time": 97800, "pitch": 82, "duration": 47, "velocity": 46}, {"time": 97920, "pitch": 38, "duration": 10, "velocity": 115}, {"time": 97920, "pitch": 42, "duration": 70, "velocity": 122}, {"time": 97920, "pitch": 54, "duration": 75, "velocity": 122}, {"time": 97920, "pitch": 82, "duration": 73, "velocity": 66}, {"time": 98160, "pitch": 42, "duration": 57, "velocity": 111}, {"time": 98160, "pitch": 82, "duration": 58, "velocity": 45}, {"time": 98280, "pitch": 82, "duration": 49, "velocity": 53}, {"time": 98400, "pitch": 36, "duration": 10, "velocity": 120}, {"time": 98400, "pitch": 42, "duration": 67, "velocity": 121}, {"time": 98400, "pitch": 82, "duration": 69, "velocity": 84}, {"time": 98640, "pitch": 42, "duration": 46, "velocity": 95}, {"time": 98640, "pitch": 82, "duration": 53, "velocity": 45}, {"time": 98760, "pitch": 82, "duration": 41, "velocity": 52}, {"time": 98880, "pitch": 38, "duration": 10, "velocity": 115}, {"time": 98880, "pitch": 42, "duration": 65, "velocity": 122}, {"time": 98880, "pitch": 82, "duration": 72, "velocity": 74}, {"time": 99120, "pitch": 42, "duration": 56, "velocity": 87}, {"time": 99120, "pitch": 48, "duration": 10, "velocity": 105}, {"time": 99120, "pitch": 82, "duration": 50, "velocity": 41}, {"time": 99240, "pitch": 82, "duration": 43, "velocity": 48}, {"time": 99360, "pitch": 36, "duration": 10, "velocity": 120}, {"time": 99360, "pitch": 42, "duration": 68, "velocity": 121}, {"time": 99360, "pitch": 82, "duration": 75, "velocity": 75}, {"time": 99600, "pitch": 42, "duration": 46, "velocity": 79}, {"time": 99600, "pitch": 45, "duration": 10, "velocity": 103}, {"time": 99600, "pitch": 82, "duration": 51, "velocity": 40}, {"time": 99720, "pitch": 82, "duration": 47, "velocity": 46}, {"time": 99840, "pitch": 38, "duration": 10, "velocity": 115}, {"time": 99840, "pitch": 42, "duration": 61, "velocity": 122}, {"time": 99840, "pitch": 54, "duration": 75, "velocity": 122}, {"time": 99840, "pitch": 82, "duration": 73, "velocity": 66}, {"time": 99960, "pitch": 42, "duration": 62, "velocity": 81}, {"time": 100080, "pitch": 36, "duration": 10, "velocity": 120}, {"time": 100080, "pitch": 41, "duration": 10, "velocity": 100}, {"time": 100080, "pitch": 42, "duration": 48, "velocity": 100}, {"time": 100080, "pitch": 82, "duration": 58, "velocity": 45}, {"time": 100200, "pitch": 38, "duration": 10, "velocity": 105}, {"time": 100200, "pitch": 82, "duration": 49, "velocity": 53}, {"time": 100320, "pitch": 36, "duration": 10, "velocity": 110}, {"time": 100320, "pitch": 49, "duration": 10, "velocity": 65}, {"time": 100320, "pitch": 57, "duration": 10, "velocity": 65}, {"time": 101755, "pitch": 38, "duration": 10, "velocity": 90}, {"time": 101765, "pitch": 38, "duration": 10, "velocity": 110}, {"time": 102240, "pitch": 36, "duration": 10, "velocity": 110}, {"time": 102240, "pitch": 49, "duration": 10, "velocity": 65}, {"time": 102960, "pitch": 36, "duration": 10, "velocity": 110}, {"time": 102960, "pitch": 57, "duration": 10, "velocity": 65}, {"time": 103195, "pitch": 38, "duration": 10, "velocity": 90}, {"time": 103205, "pitch": 38, "duration": 10, "velocity": 110}, {"time": 103440, "pitch": 45, "duration": 10, "velocity": 103}, {"time": 103680, "pitch": 41, "duration": 10, "velocity": 103}, {"time": 103920, "pitch": 36, "duration": 10, "velocity": 110}, {"time": 103920, "pitch": 49, "duration": 10, "velocity": 65}, {"time": 103920, "pitch": 57, "duration": 10, "velocity": 65}, {"time": 104160, "pitch": 42, "duration": 67, "velocity": 121}, {"time": 104400, "pitch": 36, "duration": 10, "velocity": 110}, {"time": 104400, "pitch": 42, "duration": 58, "velocity": 67}, {"time": 104640, "pitch": 38, "duration": 10, "velocity": 110}, {"time": 104640, "pitch": 42, "duration": 80, "velocity": 122}, {"time": 104880, "pitch": 42, "duration": 62, "velocity": 87}, {"time": 105000, "pitch": 42, "duration": 62, "velocity": 81}, {"time": 105120, "pitch": 36, "duration": 10, "velocity": 110}, {"time": 105120, "pitch": 42, "duration": 73, "velocity": 122}, {"time": 105360, "pitch": 36, "duration": 10, "velocity": 110}, {"time": 105360, "pitch": 42, "duration": 55, "velocity": 87}, {"time": 105600, "pitch": 38, "duration": 10, "velocity": 110}, {"time": 105600, "pitch": 42, "duration": 70, "velocity": 122}, {"time": 105840, "pitch": 42, "duration": 57, "velocity": 111}, {"time": 106080, "pitch": 36, "duration": 10, "velocity": 120}, {"time": 106080, "pitch": 42, "duration": 67, "velocity": 121}, {"time": 106320, "pitch": 42, "duration": 58, "velocity": 67}, {"time": 106560, "pitch": 38, "duration": 10, "velocity": 115}, {"time": 106560, "pitch": 42, "duration": 80, "velocity": 122}, {"time": 106800, "pitch": 42, "duration": 62, "velocity": 87}, {"time": 106920, "pitch": 42, "duration": 62, "velocity": 81}, {"time": 107040, "pitch": 36, "duration": 10, "velocity": 120}, {"time": 107040, "pitch": 42, "duration": 73, "velocity": 122}, {"time": 107280, "pitch": 42, "duration": 55, "velocity": 87}, {"time": 107520, "pitch": 38, "duration": 10, "velocity": 115}, {"time": 107520, "pitch": 42, "duration": 70, "velocity": 122}, {"time": 107760, "pitch": 38, "duration": 10, "velocity": 110}, {"time": 107760, "pitch": 42, "duration": 57, "velocity": 111}, {"time": 107880, "pitch": 38, "duration": 10, "velocity": 94}, {"time": 108000, "pitch": 36, "duration": 10, "velocity": 120}, {"time": 108000, "pitch": 42, "duration": 67, "velocity": 121}, {"time": 108240, "pitch": 42, "duration": 58, "velocity": 67}, {"time": 108480, "pitch": 38, "duration": 10, "velocity": 115}, {"time": 108480, "pitch": 42, "duration": 80, "velocity": 122}, {"time": 108720, "pitch": 42, "duration": 62, "velocity": 87}, {"time": 108840, "pitch": 42, "duration": 62, "velocity": 81}, {"time": 108960, "pitch": 36, "duration": 10, "velocity": 120}, {"time": 108960, "pitch": 42, "duration": 73, "velocity": 122}, {"time": 109200, "pitch": 42, "duration": 55, "velocity": 87}, {"time": 109440, "pitch": 38, "duration": 10, "velocity": 115}, {"time": 109440, "pitch": 42, "duration": 70, "velocity": 122}, {"time": 109680, "pitch": 42, "duration": 57, "velocity": 111}, {"time": 109920, "pitch": 36, "duration": 10, "velocity": 120}, {"time": 109920, "pitch": 42, "duration": 67, "velocity": 121}, {"time": 110160, "pitch": 42, "duration": 46, "velocity": 95}, {"time": 110400, "pitch": 38, "duration": 10, "velocity": 115}, {"time": 110400, "pitch": 42, "duration": 65, "velocity": 122}, {"time": 110640, "pitch": 42, "duration": 56, "velocity": 87}, {"time": 110880, "pitch": 36, "duration": 10, "velocity": 120}, {"time": 110880, "pitch": 42, "duration": 68, "velocity": 121}, {"time": 111120, "pitch": 42, "duration": 46, "velocity": 79}, {"time": 111360, "pitch": 38, "duration": 10, "velocity": 115}, {"time": 111360, "pitch": 42, "duration": 61, "velocity": 122}, {"time": 111480, "pitch": 42, "duration": 62, "velocity": 81}, {"time": 111600, "pitch": 36, "duration": 10, "velocity": 120}, {"time": 111600, "pitch": 42, "duration": 48, "velocity": 100}, {"time": 111840, "pitch": 36, "duration": 10, "velocity": 120}, {"time": 111840, "pitch": 42, "duration": 67, "velocity": 121}, {"time": 112080, "pitch": 42, "duration": 58, "velocity": 67}, {"time": 112320, "pitch": 38, "duration": 10, "velocity": 115}, {"time": 112320, "pitch": 42, "duration": 80, "velocity": 122}, {"time": 112560, "pitch": 42, "duration": 62, "velocity": 87}, {"time": 112680, "pitch": 42, "duration": 62, "velocity": 81}, {"time": 112800, "pitch": 36, "duration": 10, "velocity": 120}, {"time": 112800, "pitch": 42, "duration": 73, "velocity": 122}, {"time": 113040, "pitch": 42, "duration": 55, "velocity": 87}, {"time": 113280, "pitch": 38, "duration": 10, "velocity": 115}, {"time": 113280, "pitch": 42, "duration": 70, "velocity": 122}, {"time": 113520, "pitch": 42, "duration": 57, "velocity": 111}, {"time": 113760, "pitch": 36, "duration": 10, "velocity": 120}, {"time": 113760, "pitch": 42, "duration": 67, "velocity": 121}, {"time": 114000, "pitch": 42, "duration": 46, "velocity": 95}, {"time": 114240, "pitch": 38, "duration": 10, "velocity": 115}, {"time": 114240, "pitch": 42, "duration": 65, "velocity": 122}, {"time": 114480, "pitch": 42, "duration": 56, "velocity": 87}, {"time": 114720, "pitch": 36, "duration": 10, "velocity": 120}, {"time": 114720, "pitch": 42, "duration": 68, "velocity": 121}, {"time": 114960, "pitch": 42, "duration": 46, "velocity": 79}, {"time": 115200, "pitch": 38, "duration": 10, "velocity": 115}, {"time": 115200, "pitch": 42, "duration": 61, "velocity": 122}, {"time": 115320, "pitch": 42, "duration": 62, "velocity": 81}, {"time": 115440, "pitch": 36, "duration": 10, "velocity": 120}, {"time": 115440, "pitch": 46, "duration": 48, "velocity": 80}, {"time": 115680, "pitch": 36, "duration": 10, "velocity": 120}, {"time": 115680, "pitch": 42, "duration": 67, "velocity": 121}, {"time": 115920, "pitch": 42, "duration": 58, "velocity": 67}, {"time": 116160, "pitch": 38, "duration": 10, "velocity": 115}, {"time": 116160, "pitch": 42, "duration": 80, "velocity": 122}, {"time": 116400, "pitch": 42, "duration": 62, "velocity": 87}, {"time": 116520, "pitch": 42, "duration": 62, "velocity": 81}, {"time": 116640, "pitch": 36, "duration": 10, "velocity": 120}, {"time": 116640, "pitch": 42, "duration": 73, "velocity": 122}, {"time": 116880, "pitch": 42, "duration": 55, "velocity": 87}, {"time": 117120, "pitch": 38, "duration": 10, "velocity": 115}, {"time": 117120, "pitch": 42, "duration": 70, "velocity": 122}, {"time": 117360, "pitch": 42, "duration": 57, "velocity": 111}, {"time": 117600, "pitch": 36, "duration": 10, "velocity": 120}, {"time": 117600, "pitch": 42, "duration": 67, "velocity": 121}, {"time": 117840, "pitch": 42, "duration": 46, "velocity": 95}, {"time": 118080, "pitch": 38, "duration": 10, "velocity": 115}, {"time": 118080, "pitch": 42, "duration": 65, "velocity": 122}, {"time": 118320, "pitch": 42, "duration": 56, "velocity": 87}, {"time": 118560, "pitch": 36, "duration": 10, "velocity": 120}, {"time": 118560, "pitch": 42, "duration": 68, "velocity": 121}, {"time": 118800, "pitch": 42, "duration": 46, "velocity": 79}, {"time": 119040, "pitch": 38, "duration": 10, "velocity": 115}, {"time": 119040, "pitch": 42, "duration": 61, "velocity": 122}, {"time": 119160, "pitch": 42, "duration": 62, "velocity": 81}, {"time": 119280, "pitch": 36, "duration": 10, "velocity": 120}, {"time": 119280, "pitch": 42, "duration": 48, "velocity": 100}, {"time": 119520, "pitch": 36, "duration": 10, "velocity": 120}, {"time": 119520, "pitch": 42, "duration": 67, "velocity": 121}, {"time": 119760, "pitch": 42, "duration": 58, "velocity": 67}, {"time": 120000, "pitch": 38, "duration": 10, "velocity": 115}, {"time": 120000, "pitch": 42, "duration": 80, "velocity": 122}, {"time": 120240, "pitch": 42, "duration": 62, "velocity": 87}, {"time": 120360, "pitch": 42, "duration": 62, "velocity": 81}, {"time": 120480, "pitch": 36, "duration": 10, "velocity": 120}, {"time": 120480, "pitch": 42, "duration": 73, "velocity": 122}, {"time": 120720, "pitch": 42, "duration": 55, "velocity": 87}, {"time": 120960, "pitch": 38, "duration": 10, "velocity": 115}, {"time": 120960, "pitch": 42, "duration": 70, "velocity": 122}, {"time": 121200, "pitch": 42, "duration": 57, "velocity": 111}, {"time": 121440, "pitch": 36, "duration": 10, "velocity": 120}, {"time": 121440, "pitch": 42, "duration": 67, "velocity": 121}, {"time": 121680, "pitch": 42, "duration": 46, "velocity": 95}, {"time": 121920, "pitch": 38, "duration": 10, "velocity": 115}, {"time": 121920, "pitch": 42, "duration": 65, "velocity": 122}, {"time": 122160, "pitch": 42, "duration": 56, "velocity": 87}, {"time": 122400, "pitch": 36, "duration": 10, "velocity": 120}, {"time": 122400, "pitch": 42, "duration": 68, "velocity": 121}, {"time": 122640, "pitch": 38, "duration": 10, "velocity": 94}, {"time": 122640, "pitch": 42, "duration": 46, "velocity": 79}, {"time": 122880, "pitch": 38, "duration": 10, "velocity": 115}, {"time": 122880, "pitch": 42, "duration": 61, "velocity": 122}, {"time": 123000, "pitch": 38, "duration": 10, "velocity": 94}, {"time": 123000, "pitch": 42, "duration": 62, "velocity": 81}, {"time": 123120, "pitch": 36, "duration": 10, "velocity": 120}, {"time": 123120, "pitch": 42, "duration": 48, "velocity": 100}, {"time": 123120, "pitch": 45, "duration": 10, "velocity": 94}, {"time": 123360, "pitch": 36, "duration": 10, "velocity": 120}, {"time": 123360, "pitch": 42, "duration": 74, "velocity": 114}, {"time": 123360, "pitch": 49, "duration": 10, "velocity": 65}, {"time": 123360, "pitch": 70, "duration": 77, "velocity": 112}, {"time": 123600, "pitch": 70, "duration": 63, "velocity": 55}, {"time": 123840, "pitch": 42, "duration": 68, "velocity": 117}, {"time": 123840, "pitch": 70, "duration": 71, "velocity": 100}, {"time": 124080, "pitch": 36, "duration": 10, "velocity": 120}, {"time": 124080, "pitch": 70, "duration": 61, "velocity": 120}, {"time": 124320, "pitch": 42, "duration": 70, "velocity": 114}, {"time": 124560, "pitch": 85, "duration": 10, "velocity": 75}, {"time": 124640, "pitch": 85, "duration": 10, "velocity": 90}, {"time": 124680, "pitch": 42, "duration": 34, "velocity": 58}, {"time": 124720, "pitch": 85, "duration": 10, "velocity": 98}, {"time": 124800, "pitch": 38, "duration": 10, "velocity": 114}, {"time": 124800, "pitch": 42, "duration": 65, "velocity": 114}, {"time": 124800, "pitch": 85, "duration": 10, "velocity": 114}, {"time": 125040, "pitch": 42, "duration": 73, "velocity": 56}, {"time": 125280, "pitch": 36, "duration": 10, "velocity": 120}, {"time": 125280, "pitch": 42, "duration": 73, "velocity": 114}, {"time": 125520, "pitch": 42, "duration": 67, "velocity": 54}, {"time": 125760, "pitch": 42, "duration": 69, "velocity": 112}, {"time": 126000, "pitch": 36, "duration": 10, "velocity": 120}, {"time": 126000, "pitch": 42, "duration": 60, "velocity": 59}, {"time": 126060, "pitch": 54, "duration": 10, "velocity": 55}, {"time": 126120, "pitch": 54, "duration": 10, "velocity": 60}, {"time": 126180, "pitch": 54, "duration": 10, "velocity": 65}, {"time": 126240, "pitch": 36, "duration": 10, "velocity": 120}, {"time": 126240, "pitch": 42, "duration": 71, "velocity": 111}, {"time": 126240, "pitch": 54, "duration": 10, "velocity": 114}, {"time": 126480, "pitch": 82, "duration": 57, "velocity": 85}, {"time": 126720, "pitch": 38, "duration": 10, "velocity": 114}, {"time": 126720, "pitch": 42, "duration": 75, "velocity": 112}, {"time": 126720, "pitch": 82, "duration": 41, "velocity": 108}, {"time": 127200, "pitch": 36, "duration": 10, "velocity": 120}, {"time": 127200, "pitch": 42, "duration": 70, "velocity": 100}, {"time": 127200, "pitch": 70, "duration": 77, "velocity": 112}, {"time": 127440, "pitch": 42, "duration": 67, "velocity": 55}, {"time": 127440, "pitch": 70, "duration": 63, "velocity": 55}, {"time": 127680, "pitch": 42, "duration": 71, "velocity": 112}, {"time": 127680, "pitch": 70, "duration": 71, "velocity": 100}, {"time": 127920, "pitch": 36, "duration": 10, "velocity": 120}, {"time": 127920, "pitch": 42, "duration": 62, "velocity": 55}, {"time": 127920, "pitch": 70, "duration": 61, "velocity": 120}, {"time": 128160, "pitch": 42, "duration": 62, "velocity": 111}, {"time": 128400, "pitch": 42, "duration": 51, "velocity": 59}, {"time": 128400, "pitch": 85, "duration": 10, "velocity": 75}, {"time": 128480, "pitch": 85, "duration": 10, "velocity": 90}, {"time": 128560, "pitch": 85, "duration": 10, "velocity": 98}, {"time": 128640, "pitch": 38, "duration": 10, "velocity": 114}, {"time": 128640, "pitch": 42, "duration": 69, "velocity": 117}, {"time": 128640, "pitch": 85, "duration": 10, "velocity": 114}, {"time": 128880, "pitch": 42, "duration": 62, "velocity": 59}, {"time": 129120, "pitch": 36, "duration": 10, "velocity": 120}, {"time": 129120, "pitch": 42, "duration": 57, "velocity": 108}, {"time": 129360, "pitch": 42, "duration": 77, "velocity": 59}, {"time": 129600, "pitch": 42, "duration": 58, "velocity": 112}, {"time": 129840, "pitch": 36, "duration": 10, "velocity": 120}, {"time": 129840, "pitch": 42, "duration": 58, "velocity": 60}, {"time": 129900, "pitch": 54, "duration": 10, "velocity": 55}, {"time": 129960, "pitch": 54, "duration": 10, "velocity": 60}, {"time": 130020, "pitch": 54, "duration": 10, "velocity": 65}, {"time": 130080, "pitch": 36, "duration": 10, "velocity": 120}, {"time": 130080, "pitch": 42, "duration": 66, "velocity": 114}, {"time": 130080, "pitch": 54, "duration": 10, "velocity": 114}, {"time": 130320, "pitch": 42, "duration": 68, "velocity": 61}, {"time": 130320, "pitch": 82, "duration": 57, "velocity": 85}, {"time": 130560, "pitch": 38, "duration": 10, "velocity": 114}, {"time": 130560, "pitch": 42, "duration": 65, "velocity": 100}, {"time": 130560, "pitch": 82, "duration": 41, "velocity": 108}, {"time": 130800, "pitch": 36, "duration": 10, "velocity": 120}, {"time": 130800, "pitch": 46, "duration": 48, "velocity": 61}, {"time": 130800, "pitch": 57, "duration": 10, "velocity": 70}, {"time": 131040, "pitch": 42, "duration": 66, "velocity": 111}, {"time": 131280, "pitch": 36, "duration": 10, "velocity": 120}, {"time": 131280, "pitch": 42, "duration": 41, "velocity": 61}, {"time": 131520, "pitch": 38, "duration": 10, "velocity": 115}, {"time": 131520, "pitch": 42, "duration": 67, "velocity": 112}, {"time": 131760, "pitch": 42, "duration": 61, "velocity": 58}, {"time": 132000, "pitch": 36, "duration": 10, "velocity": 120}, {"time": 132000, "pitch": 42, "duration": 61, "velocity": 112}, {"time": 132240, "pitch": 42, "duration": 62, "velocity": 60}, {"time": 132480, "pitch": 38, "duration": 10, "velocity": 115}, {"time": 132480, "pitch": 42, "duration": 70, "velocity": 112}, {"time": 132720, "pitch": 36, "duration": 10, "velocity": 120}, {"time": 132720, "pitch": 42, "duration": 55, "velocity": 53}, {"time": 132960, "pitch": 42, "duration": 78, "velocity": 114}, {"time": 133200, "pitch": 36, "duration": 10, "velocity": 120}, {"time": 133200, "pitch": 42, "duration": 49, "velocity": 53}, {"time": 133440, "pitch": 38, "duration": 10, "velocity": 115}, {"time": 133440, "pitch": 42, "duration": 77, "velocity": 112}, {"time": 133680, "pitch": 36, "duration": 10, "velocity": 120}, {"time": 133680, "pitch": 42, "duration": 55, "velocity": 60}, {"time": 133920, "pitch": 36, "duration": 10, "velocity": 120}, {"time": 133920, "pitch": 42, "duration": 64, "velocity": 112}, {"time": 134160, "pitch": 42, "duration": 61, "velocity": 60}, {"time": 134400, "pitch": 38, "duration": 10, "velocity": 115}, {"time": 134400, "pitch": 42, "duration": 64, "velocity": 117}, {"time": 134640, "pitch": 36, "duration": 10, "velocity": 120}, {"time": 134640, "pitch": 42, "duration": 60, "velocity": 63}, {"time": 134640, "pitch": 57, "duration": 10, "velocity": 70}, {"time": 134880, "pitch": 42, "duration": 67, "velocity": 112}, {"time": 135120, "pitch": 36, "duration": 10, "velocity": 120}, {"time": 135360, "pitch": 38, "duration": 10, "velocity": 115}, {"time": 135360, "pitch": 42, "duration": 70, "velocity": 111}, {"time": 135600, "pitch": 36, "duration": 10, "velocity": 120}, {"time": 135600, "pitch": 42, "duration": 56, "velocity": 58}, {"time": 135840, "pitch": 36, "duration": 10, "velocity": 120}, {"time": 135840, "pitch": 42, "duration": 74, "velocity": 108}, {"time": 136080, "pitch": 42, "duration": 63, "velocity": 59}, {"time": 136320, "pitch": 38, "duration": 10, "velocity": 115}, {"time": 136320, "pitch": 42, "duration": 66, "velocity": 104}, {"time": 136560, "pitch": 36, "duration": 10, "velocity": 120}, {"time": 136560, "pitch": 42, "duration": 52, "velocity": 51}, {"time": 136560, "pitch": 49, "duration": 10, "velocity": 70}, {"time": 136800, "pitch": 36, "duration": 10, "velocity": 120}, {"time": 136800, "pitch": 42, "duration": 68, "velocity": 93}, {"time": 137040, "pitch": 48, "duration": 10, "velocity": 106}, {"time": 137280, "pitch": 38, "duration": 10, "velocity": 115}, {"time": 137280, "pitch": 42, "duration": 73, "velocity": 111}, {"time": 137520, "pitch": 36, "duration": 10, "velocity": 120}, {"time": 137520, "pitch": 42, "duration": 60, "velocity": 59}, {"time": 137760, "pitch": 36, "duration": 10, "velocity": 120}, {"time": 137760, "pitch": 42, "duration": 76, "velocity": 112}, {"time": 138000, "pitch": 36, "duration": 10, "velocity": 120}, {"time": 138000, "pitch": 42, "duration": 61, "velocity": 69}, {"time": 138240, "pitch": 38, "duration": 10, "velocity": 115}, {"time": 138240, "pitch": 42, "duration": 66, "velocity": 93}, {"time": 138360, "pitch": 45, "duration": 10, "velocity": 104}, {"time": 138480, "pitch": 36, "duration": 10, "velocity": 120}, {"time": 138480, "pitch": 46, "duration": 47, "velocity": 75}, {"time": 138600, "pitch": 41, "duration": 10, "velocity": 70}, {"time": 138720, "pitch": 36, "duration": 10, "velocity": 120}, {"time": 138720, "pitch": 42, "duration": 67, "velocity": 121}, {"time": 138720, "pitch": 49, "duration": 75, "velocity": 93}, {"time": 138720, "pitch": 57, "duration": 109, "velocity": 77}, {"time": 138720, "pitch": 82, "duration": 69, "velocity": 84}, {"time": 138960, "pitch": 42, "duration": 58, "velocity": 67}, {"time": 138960, "pitch": 82, "duration": 53, "velocity": 45}, {"time": 139080, "pitch": 82, "duration": 41, "velocity": 52}, {"time": 139200, "pitch": 38, "duration": 10, "velocity": 115}, {"time": 139200, "pitch": 42, "duration": 80, "velocity": 122}, {"time": 139200, "pitch": 82, "duration": 72, "velocity": 74}, {"time": 139440, "pitch": 42, "duration": 62, "velocity": 87}, {"time": 139440, "pitch": 82, "duration": 50, "velocity": 41}, {"time": 139560, "pitch": 42, "duration": 62, "velocity": 81}, {"time": 139560, "pitch": 82, "duration": 43, "velocity": 48}, {"time": 139680, "pitch": 36, "duration": 10, "velocity": 120}, {"time": 139680, "pitch": 42, "duration": 73, "velocity": 122}, {"time": 139680, "pitch": 82, "duration": 75, "velocity": 75}, {"time": 139920, "pitch": 42, "duration": 55, "velocity": 87}, {"time": 139920, "pitch": 82, "duration": 51, "velocity": 40}, {"time": 140040, "pitch": 82, "duration": 47, "velocity": 46}, {"time": 140160, "pitch": 38, "duration": 10, "velocity": 115}, {"time": 140160, "pitch": 42, "duration": 70, "velocity": 122}, {"time": 140160, "pitch": 54, "duration": 75, "velocity": 122}, {"time": 140160, "pitch": 82, "duration": 73, "velocity": 66}, {"time": 140400, "pitch": 42, "duration": 57, "velocity": 111}, {"time": 140400, "pitch": 82, "duration": 58, "velocity": 45}, {"time": 140520, "pitch": 82, "duration": 49, "velocity": 53}, {"time": 140640, "pitch": 36, "duration": 10, "velocity": 120}, {"time": 140640, "pitch": 42, "duration": 67, "velocity": 121}, {"time": 140640, "pitch": 82, "duration": 69, "velocity": 84}, {"time": 140880, "pitch": 42, "duration": 46, "velocity": 95}, {"time": 140880, "pitch": 82, "duration": 53, "velocity": 45}, {"time": 141000, "pitch": 82, "duration": 41, "velocity": 52}, {"time": 141120, "pitch": 38, "duration": 10, "velocity": 115}, {"time": 141120, "pitch": 42, "duration": 65, "velocity": 122}, {"time": 141120, "pitch": 82, "duration": 72, "velocity": 74}, {"time": 141360, "pitch": 42, "duration": 56, "velocity": 87}, {"time": 141360, "pitch": 82, "duration": 50, "velocity": 41}, {"time": 141480, "pitch": 82, "duration": 43, "velocity": 48}, {"time": 141600, "pitch": 36, "duration": 10, "velocity": 120}, {"time": 141600, "pitch": 42, "duration": 68, "velocity": 121}, {"time": 141600, "pitch": 82, "duration": 75, "velocity": 75}, {"time": 141840, "pitch": 42, "duration": 46, "velocity": 79}, {"time": 141840, "pitch": 82, "duration": 51, "velocity": 40}, {"time": 141960, "pitch": 82, "duration": 47, "velocity": 46}, {"time": 142080, "pitch": 38, "duration": 10, "velocity": 115}, {"time": 142080, "pitch": 42, "duration": 61, "velocity": 122}, {"time": 142080, "pitch": 54, "duration": 75, "velocity": 122}, {"time": 142080, "pitch": 82, "duration": 73, "velocity": 66}, {"time": 142200, "pitch": 42, "duration": 62, "velocity": 81}, {"time": 142320, "pitch": 36, "duration": 10, "velocity": 120}, {"time": 142320, "pitch": 42, "duration": 48, "velocity": 100}, {"time": 142320, "pitch": 82, "duration": 58, "velocity": 45}, {"time": 142440, "pitch": 82, "duration": 49, "velocity": 53}, {"time": 142560, "pitch": 36, "duration": 10, "velocity": 120}, {"time": 142560, "pitch": 42, "duration": 67, "velocity": 121}, {"time": 142560, "pitch": 82, "duration": 69, "velocity": 84}, {"time": 142800, "pitch": 42, "duration": 58, "velocity": 67}, {"time": 142800, "pitch": 82, "duration": 53, "velocity": 45}, {"time": 142920, "pitch": 82, "duration": 41, "velocity": 52}, {"time": 143040, "pitch": 38, "duration": 10, "velocity": 115}, {"time": 143040, "pitch": 42, "duration": 80, "velocity": 122}, {"time": 143040, "pitch": 82, "duration": 72, "velocity": 74}, {"time": 143280, "pitch": 42, "duration": 62, "velocity": 87}, {"time": 143280, "pitch": 82, "duration": 50, "velocity": 41}, {"time": 143400, "pitch": 42, "duration": 62, "velocity": 81}, {"time": 143400, "pitch": 82, "duration": 43, "velocity": 48}, {"time": 143520, "pitch": 36, "duration": 10, "velocity": 120}, {"time": 143520, "pitch": 42, "duration": 73, "velocity": 122}, {"time": 143520, "pitch": 82, "duration": 75, "velocity": 75}, {"time": 143760, "pitch": 42, "duration": 55, "velocity": 87}, {"time": 143760, "pitch": 82, "duration": 51, "velocity": 40}, {"time": 143880, "pitch": 82, "duration": 47, "velocity": 46}, {"time": 144000, "pitch": 38, "duration": 10, "velocity": 115}, {"time": 144000, "pitch": 42, "duration": 70, "velocity": 122}, {"time": 144000, "pitch": 54, "duration": 75, "velocity": 122}, {"time": 144000, "pitch": 82, "duration": 73, "velocity": 66}, {"time": 144240, "pitch": 42, "duration": 57, "velocity": 111}, {"time": 144240, "pitch": 82, "duration": 58, "velocity": 45}, {"time": 144360, "pitch": 82, "duration": 49, "velocity": 53}, {"time": 144480, "pitch": 36, "duration": 10, "velocity": 120}, {"time": 144480, "pitch": 42, "duration": 67, "velocity": 121}, {"time": 144480, "pitch": 82, "duration": 69, "velocity": 84}, {"time": 144720, "pitch": 42, "duration": 46, "velocity": 95}, {"time": 144720, "pitch": 82, "duration": 53, "velocity": 45}, {"time": 144840, "pitch": 82, "duration": 41, "velocity": 52}, {"time": 144960, "pitch": 38, "duration": 10, "velocity": 115}, {"time": 144960, "pitch": 42, "duration": 65, "velocity": 122}, {"time": 144960, "pitch": 82, "duration": 72, "velocity": 74}, {"time": 145200, "pitch": 42, "duration": 56, "velocity": 87}, {"time": 145200, "pitch": 82, "duration": 50, "velocity": 41}, {"time": 145320, "pitch": 82, "duration": 43, "velocity": 48}, {"time": 145440, "pitch": 36, "duration": 10, "velocity": 120}, {"time": 145440, "pitch": 42, "duration": 68, "velocity": 121}, {"time": 145440, "pitch": 82, "duration": 75, "velocity": 75}, {"time": 145680, "pitch": 42, "duration": 46, "velocity": 79}, {"time": 145680, "pitch": 82, "duration": 51, "velocity": 40}, {"time": 145800, "pitch": 82, "duration": 47, "velocity": 46}, {"time": 145920, "pitch": 38, "duration": 10, "velocity": 115}, {"time": 145920, "pitch": 42, "duration": 61, "velocity": 122}, {"time": 145920, "pitch": 54, "duration": 75, "velocity": 122}, {"time": 145920, "pitch": 82, "duration": 73, "velocity": 66}, {"time": 146040, "pitch": 42, "duration": 62, "velocity": 81}, {"time": 146160, "pitch": 36, "duration": 10, "velocity": 120}, {"time": 146160, "pitch": 46, "duration": 48, "velocity": 80}, {"time": 146160, "pitch": 82, "duration": 58, "velocity": 45}, {"time": 146280, "pitch": 82, "duration": 49, "velocity": 53}, {"time": 146400, "pitch": 36, "duration": 10, "velocity": 120}, {"time": 146400, "pitch": 42, "duration": 67, "velocity": 121}, {"time": 146400, "pitch": 49, "duration": 109, "velocity": 77}, {"time": 146400, "pitch": 82, "duration": 69, "velocity": 84}, {"time": 146640, "pitch": 42, "duration": 58, "velocity": 67}, {"time": 146640, "pitch": 82, "duration": 53, "velocity": 45}, {"time": 146760, "pitch": 82, "duration": 41, "velocity": 52}, {"time": 146880, "pitch": 38, "duration": 10, "velocity": 115}, {"time": 146880, "pitch": 42, "duration": 80, "velocity": 122}, {"time": 146880, "pitch": 82, "duration": 72, "velocity": 74}, {"time": 147120, "pitch": 42, "duration": 62, "velocity": 87}, {"time": 147120, "pitch": 82, "duration": 50, "velocity": 41}, {"time": 147240, "pitch": 42, "duration": 62, "velocity": 81}, {"time": 147240, "pitch": 82, "duration": 43, "velocity": 48}, {"time": 147360, "pitch": 36, "duration": 10, "velocity": 120}, {"time": 147360, "pitch": 42, "duration": 73, "velocity": 122}, {"time": 147360, "pitch": 82, "duration": 75, "velocity": 75}, {"time": 147600, "pitch": 42, "duration": 55, "velocity": 87}, {"time": 147600, "pitch": 82, "duration": 51, "velocity": 40}, {"time": 147720, "pitch": 82, "duration": 47, "velocity": 46}, {"time": 147840, "pitch": 38, "duration": 10, "velocity": 115}, {"time": 147840, "pitch": 42, "duration": 70, "velocity": 122}, {"time": 147840, "pitch": 54, "duration": 75, "velocity": 122}, {"time": 147840, "pitch": 82, "duration": 73, "velocity": 66}, {"time": 148080, "pitch": 42, "duration": 57, "velocity": 111}, {"time": 148080, "pitch": 82, "duration": 58, "velocity": 45}, {"time": 148200, "pitch": 82, "duration": 49, "velocity": 53}, {"time": 148320, "pitch": 36, "duration": 10, "velocity": 120}, {"time": 148320, "pitch": 42, "duration": 67, "velocity": 121}, {"time": 148320, "pitch": 82, "duration": 69, "velocity": 84}, {"time": 148560, "pitch": 42, "duration": 46, "velocity": 95}, {"time": 148560, "pitch": 82, "duration": 53, "velocity": 45}, {"time": 148680, "pitch": 82, "duration": 41, "velocity": 52}, {"time": 148800, "pitch": 38, "duration": 10, "velocity": 115}, {"time": 148800, "pitch": 42, "duration": 65, "velocity": 122}, {"time": 148800, "pitch": 82, "duration": 72, "velocity": 74}, {"time": 149040, "pitch": 42, "duration": 56, "velocity": 87}, {"time": 149040, "pitch": 82, "duration": 50, "velocity": 41}, {"time": 149160, "pitch": 82, "duration": 43, "velocity": 48}, {"time": 149280, "pitch": 36, "duration": 10, "velocity": 120}, {"time": 149280, "pitch": 42, "duration": 68, "velocity": 121}, {"time": 149280, "pitch": 82, "duration": 75, "velocity": 75}, {"time": 149520, "pitch": 42, "duration": 46, "velocity": 79}, {"time": 149520, "pitch": 82, "duration": 51, "velocity": 40}, {"time": 149640, "pitch": 82, "duration": 47, "velocity": 46}, {"time": 149760, "pitch": 38, "duration": 10, "velocity": 115}, {"time": 149760, "pitch": 42, "duration": 61, "velocity": 122}, {"time": 149760, "pitch": 54, "duration": 75, "velocity": 122}, {"time": 149760, "pitch": 82, "duration": 73, "velocity": 66}, {"time": 149880, "pitch": 42, "duration": 62, "velocity": 81}, {"time": 150000, "pitch": 36, "duration": 10, "velocity": 120}, {"time": 150000, "pitch": 42, "duration": 48, "velocity": 100}, {"time": 150000, "pitch": 82, "duration": 58, "velocity": 45}, {"time": 150120, "pitch": 82, "duration": 49, "velocity": 53}, {"time": 150240, "pitch": 36, "duration": 10, "velocity": 120}, {"time": 150240, "pitch": 42, "duration": 67, "velocity": 121}, {"time": 150240, "pitch": 82, "duration": 69, "velocity": 84}, {"time": 150480, "pitch": 42, "duration": 58, "velocity": 67}, {"time": 150480, "pitch": 82, "duration": 53, "velocity": 45}, {"time": 150600, "pitch": 82, "duration": 41, "velocity": 52}, {"time": 150720, "pitch": 38, "duration": 10, "velocity": 115}, {"time": 150720, "pitch": 42, "duration": 80, "velocity": 122}, {"time": 150720, "pitch": 82, "duration": 72, "velocity": 74}, {"time": 150960, "pitch": 42, "duration": 62, "velocity": 87}, {"time": 150960, "pitch": 82, "duration": 50, "velocity": 41}, {"time": 151080, "pitch": 42, "duration": 62, "velocity": 81}, {"time": 151080, "pitch": 82, "duration": 43, "velocity": 48}, {"time": 151200, "pitch": 36, "duration": 10, "velocity": 120}, {"time": 151200, "pitch": 42, "duration": 73, "velocity": 122}, {"time": 151200, "pitch": 82, "duration": 75, "velocity": 75}, {"time": 151440, "pitch": 42, "duration": 55, "velocity": 87}, {"time": 151440, "pitch": 82, "duration": 51, "velocity": 40}, {"time": 151560, "pitch": 82, "duration": 47, "velocity": 46}, {"time": 151680, "pitch": 38, "duration": 10, "velocity": 115}, {"time": 151680, "pitch": 42, "duration": 70, "velocity": 122}, {"time": 151680, "pitch": 54, "duration": 75, "velocity": 122}, {"time": 151680, "pitch": 82, "duration": 73, "velocity": 66}, {"time": 151920, "pitch": 42, "duration": 57, "velocity": 111}, {"time": 151920, "pitch": 82, "duration": 58, "velocity": 45}, {"time": 152040, "pitch": 82, "duration": 49, "velocity": 53}, {"time": 152160, "pitch": 36, "duration": 10, "velocity": 120}, {"time": 152160, "pitch": 42, "duration": 67, "velocity": 121}, {"time": 152160, "pitch": 82, "duration": 69, "velocity": 84}, {"time": 152400, "pitch": 42, "duration": 46, "velocity": 95}, {"time": 152400, "pitch": 82, "duration": 53, "velocity": 45}, {"time": 152520, "pitch": 82, "duration": 41, "velocity": 52}, {"time": 152640, "pitch": 38, "duration": 10, "velocity": 115}, {"time": 152640, "pitch": 42, "duration": 65, "velocity": 122}, {"time": 152640, "pitch": 82, "duration": 72, "velocity": 74}, {"time": 152880, "pitch": 42, "duration": 56, "velocity": 87}, {"time": 152880, "pitch": 82, "duration": 50, "velocity": 41}, {"time": 153000, "pitch": 82, "duration": 43, "velocity": 48}, {"time": 153120, "pitch": 36, "duration": 10, "velocity": 120}, {"time": 153120, "pitch": 42, "duration": 68, "velocity": 121}, {"time": 153120, "pitch": 82, "duration": 75, "velocity": 75}, {"time": 153360, "pitch": 38, "duration": 10, "velocity": 94}, {"time": 153360, "pitch": 42, "duration": 46, "velocity": 79}, {"time": 153360, "pitch": 82, "duration": 51, "velocity": 40}, {"time": 153480, "pitch": 82, "duration": 47, "velocity": 46}, {"time": 153600, "pitch": 38, "duration": 10, "velocity": 115}, {"time": 153600, "pitch": 42, "duration": 61, "velocity": 122}, {"time": 153600, "pitch": 54, "duration": 75, "velocity": 122}, {"time": 153600, "pitch": 82, "duration": 73, "velocity": 66}, {"time": 153720, "pitch": 38, "duration": 10, "velocity": 94}, {"time": 153720, "pitch": 42, "duration": 62, "velocity": 81}, {"time": 153840, "pitch": 36, "duration": 10, "velocity": 120}, {"time": 153840, "pitch": 42, "duration": 48, "velocity": 100}, {"time": 153840, "pitch": 45, "duration": 10, "velocity": 94}, {"time": 153840, "pitch": 82, "duration": 58, "velocity": 45}, {"time": 153960, "pitch": 82, "duration": 49, "velocity": 53}, {"time": 154080, "pitch": 36, "duration": 10, "velocity": 120}, {"time": 154080, "pitch": 42, "duration": 67, "velocity": 121}, {"time": 154080, "pitch": 49, "duration": 10, "velocity": 63}, {"time": 154080, "pitch": 57, "duration": 109, "velocity": 77}, {"time": 154080, "pitch": 82, "duration": 69, "velocity": 84}, {"time": 154320, "pitch": 42, "duration": 58, "velocity": 67}, {"time": 154320, "pitch": 82, "duration": 53, "velocity": 45}, {"time": 154440, "pitch": 82, "duration": 41, "velocity": 52}, {"time": 154560, "pitch": 38, "duration": 10, "velocity": 115}, {"time": 154560, "pitch": 42, "duration": 80, "velocity": 122}, {"time": 154560, "pitch": 82, "duration": 72, "velocity": 74}, {"time": 154800, "pitch": 42, "duration": 62, "velocity": 87}, {"time": 154800, "pitch": 82, "duration": 50, "velocity": 41}, {"time": 154920, "pitch": 42, "duration": 62, "velocity": 81}, {"time": 154920, "pitch": 82, "duration": 43, "velocity": 48}, {"time": 155040, "pitch": 36, "duration": 10, "velocity": 120}, {"time": 155040, "pitch": 42, "duration": 73, "velocity": 122}, {"time": 155040, "pitch": 82, "duration": 75, "velocity": 75}, {"time": 155280, "pitch": 42, "duration": 55, "velocity": 87}, {"time": 155280, "pitch": 82, "duration": 51, "velocity": 40}, {"time": 155400, "pitch": 82, "duration": 47, "velocity": 46}, {"time": 155520, "pitch": 38, "duration": 10, "velocity": 115}, {"time": 155520, "pitch": 42, "duration": 70, "velocity": 122}, {"time": 155520, "pitch": 54, "duration": 75, "velocity": 122}, {"time": 155520, "pitch": 82, "duration": 73, "velocity": 66}, {"time": 155760, "pitch": 42, "duration": 57, "velocity": 111}, {"time": 155760, "pitch": 82, "duration": 58, "velocity": 45}, {"time": 155880, "pitch": 82, "duration": 49, "velocity": 53}, {"time": 156000, "pitch": 36, "duration": 10, "velocity": 120}, {"time": 156000, "pitch": 42, "duration": 67, "velocity": 121}, {"time": 156000, "pitch": 82, "duration": 69, "velocity": 84}, {"time": 156240, "pitch": 42, "duration": 46, "velocity": 95}, {"time": 156240, "pitch": 82, "duration": 53, "velocity": 45}, {"time": 156360, "pitch": 82, "duration": 41, "velocity": 52}, {"time": 156480, "pitch": 38, "duration": 10, "velocity": 115}, {"time": 156480, "pitch": 42, "duration": 65, "velocity": 122}, {"time": 156480, "pitch": 82, "duration": 72, "velocity": 74}, {"time": 156720, "pitch": 42, "duration": 56, "velocity": 87}, {"time": 156720, "pitch": 82, "duration": 50, "velocity": 41}, {"time": 156840, "pitch": 82, "duration": 43, "velocity": 48}, {"time": 156960, "pitch": 36, "duration": 10, "velocity": 120}, {"time": 156960, "pitch": 42, "duration": 68, "velocity": 121}, {"time": 156960, "pitch": 82, "duration": 75, "velocity": 75}, {"time": 157200, "pitch": 42, "duration": 46, "velocity": 79}, {"time": 157200, "pitch": 82, "duration": 51, "velocity": 40}, {"time": 157320, "pitch": 82, "duration": 47, "velocity": 46}, {"time": 157440, "pitch": 38, "duration": 10, "velocity": 115}, {"time": 157440, "pitch": 42, "duration": 61, "velocity": 122}, {"time": 157440, "pitch": 54, "duration": 75, "velocity": 122}, {"time": 157440, "pitch": 82, "duration": 73, "velocity": 66}, {"time": 157560, "pitch": 42, "duration": 62, "velocity": 81}, {"time": 157680, "pitch": 36, "duration": 10, "velocity": 120}, {"time": 157680, "pitch": 42, "duration": 48, "velocity": 100}, {"time": 157680, "pitch": 82, "duration": 58, "velocity": 45}, {"time": 157800, "pitch": 82, "duration": 49, "velocity": 53}, {"time": 157920, "pitch": 36, "duration": 10, "velocity": 120}, {"time": 157920, "pitch": 42, "duration": 67, "velocity": 121}, {"time": 157920, "pitch": 82, "duration": 69, "velocity": 84}, {"time": 158160, "pitch": 42, "duration": 58, "velocity": 67}, {"time": 158160, "pitch": 82, "duration": 53, "velocity": 45}, {"time": 158280, "pitch": 82, "duration": 41, "velocity": 52}, {"time": 158400, "pitch": 38, "duration": 10, "velocity": 115}, {"time": 158400, "pitch": 42, "duration": 80, "velocity": 122}, {"time": 158400, "pitch": 82, "duration": 72, "velocity": 74}, {"time": 158640, "pitch": 42, "duration": 62, "velocity": 87}, {"time": 158640, "pitch": 82, "duration": 50, "velocity": 41}, {"time": 158760, "pitch": 42, "duration": 62, "velocity": 81}, {"time": 158760, "pitch": 82, "duration": 43, "velocity": 48}, {"time": 158880, "pitch": 36, "duration": 10, "velocity": 120}, {"time": 158880, "pitch": 42, "duration": 73, "velocity": 122}, {"time": 158880, "pitch": 82, "duration": 75, "velocity": 75}, {"time": 159120, "pitch": 42, "duration": 55, "velocity": 87}, {"time": 159120, "pitch": 82, "duration": 51, "velocity": 40}, {"time": 159240, "pitch": 82, "duration": 47, "velocity": 46}, {"time": 159360, "pitch": 38, "duration": 10, "velocity": 115}, {"time": 159360, "pitch": 42, "duration": 70, "velocity": 122}, {"time": 159360, "pitch": 54, "duration": 75, "velocity": 122}, {"time": 159360, "pitch": 82, "duration": 73, "velocity": 66}, {"time": 159600, "pitch": 42, "duration": 57, "velocity": 111}, {"time": 159600, "pitch": 82, "duration": 58, "velocity": 45}, {"time": 159720, "pitch": 82, "duration": 49, "velocity": 53}, {"time": 159840, "pitch": 36, "duration": 10, "velocity": 120}, {"time": 159840, "pitch": 42, "duration": 67, "velocity": 121}, {"time": 159840, "pitch": 82, "duration": 69, "velocity": 84}, {"time": 160080, "pitch": 42, "duration": 46, "velocity": 95}, {"time": 160080, "pitch": 82, "duration": 53, "velocity": 45}, {"time": 160200, "pitch": 82, "duration": 41, "velocity": 52}, {"time": 160320, "pitch": 38, "duration": 10, "velocity": 115}, {"time": 160320, "pitch": 42, "duration": 65, "velocity": 122}, {"time": 160320, "pitch": 82, "duration": 72, "velocity": 74}, {"time": 160560, "pitch": 42, "duration": 56, "velocity": 87}, {"time": 160560, "pitch": 82, "duration": 50, "velocity": 41}, {"time": 160680, "pitch": 82, "duration": 43, "velocity": 48}, {"time": 160800, "pitch": 36, "duration": 10, "velocity": 120}, {"time": 160800, "pitch": 42, "duration": 68, "velocity": 121}, {"time": 160800, "pitch": 82, "duration": 75, "velocity": 75}, {"time": 161040, "pitch": 42, "duration": 46, "velocity": 79}, {"time": 161040, "pitch": 82, "duration": 51, "velocity": 40}, {"time": 161160, "pitch": 82, "duration": 47, "velocity": 46}, {"time": 161280, "pitch": 38, "duration": 10, "velocity": 115}, {"time": 161280, "pitch": 42, "duration": 61, "velocity": 122}, {"time": 161280, "pitch": 54, "duration": 75, "velocity": 122}, {"time": 161280, "pitch": 82, "duration": 73, "velocity": 66}, {"time": 161400, "pitch": 42, "duration": 62, "velocity": 81}, {"time": 161520, "pitch": 36, "duration": 10, "velocity": 120}, {"time": 161520, "pitch": 46, "duration": 48, "velocity": 80}, {"time": 161520, "pitch": 82, "duration": 58, "velocity": 45}, {"time": 161640, "pitch": 82, "duration": 49, "velocity": 53}, {"time": 161760, "pitch": 36, "duration": 10, "velocity": 120}, {"time": 161760, "pitch": 42, "duration": 67, "velocity": 121}, {"time": 161760, "pitch": 82, "duration": 69, "velocity": 84}, {"time": 162000, "pitch": 42, "duration": 58, "velocity": 67}, {"time": 162000, "pitch": 82, "duration": 53, "velocity": 45}, {"time": 162120, "pitch": 82, "duration": 41, "velocity": 52}, {"time": 162240, "pitch": 38, "duration": 10, "velocity": 115}, {"time": 162240, "pitch": 42, "duration": 80, "velocity": 122}, {"time": 162240, "pitch": 82, "duration": 72, "velocity": 74}, {"time": 162480, "pitch": 42, "duration": 62, "velocity": 87}, {"time": 162480, "pitch": 82, "duration": 50, "velocity": 41}, {"time": 162600, "pitch": 42, "duration": 62, "velocity": 81}, {"time": 162600, "pitch": 82, "duration": 43, "velocity": 48}, {"time": 162720, "pitch": 36, "duration": 10, "velocity": 120}, {"time": 162720, "pitch": 42, "duration": 73, "velocity": 122}, {"time": 162720, "pitch": 82, "duration": 75, "velocity": 75}, {"time": 162960, "pitch": 42, "duration": 55, "velocity": 87}, {"time": 162960, "pitch": 82, "duration": 51, "velocity": 40}, {"time": 163080, "pitch": 82, "duration": 47, "velocity": 46}, {"time": 163200, "pitch": 38, "duration": 10, "velocity": 115}, {"time": 163200, "pitch": 42, "duration": 70, "velocity": 122}, {"time": 163200, "pitch": 54, "duration": 75, "velocity": 122}, {"time": 163200, "pitch": 82, "duration": 73, "velocity": 66}, {"time": 163440, "pitch": 42, "duration": 57, "velocity": 111}, {"time": 163440, "pitch": 82, "duration": 58, "velocity": 45}, {"time": 163560, "pitch": 82, "duration": 49, "velocity": 53}, {"time": 163680, "pitch": 36, "duration": 10, "velocity": 120}, {"time": 163680, "pitch": 42, "duration": 67, "velocity": 121}, {"time": 163680, "pitch": 82, "duration": 69, "velocity": 84}, {"time": 163920, "pitch": 42, "duration": 46, "velocity": 95}, {"time": 163920, "pitch": 82, "duration": 53, "velocity": 45}, {"time": 164040, "pitch": 82, "duration": 41, "velocity": 52}, {"time": 164160, "pitch": 38, "duration": 10, "velocity": 115}, {"time": 164160, "pitch": 42, "duration": 65, "velocity": 122}, {"time": 164160, "pitch": 82, "duration": 72, "velocity": 74}, {"time": 164400, "pitch": 42, "duration": 56, "velocity": 87}, {"time": 164400, "pitch": 82, "duration": 50, "velocity": 41}, {"time": 164520, "pitch": 82, "duration": 43, "velocity": 48}, {"time": 164640, "pitch": 36, "duration": 10, "velocity": 120}, {"time": 164640, "pitch": 42, "duration": 68, "velocity": 121}, {"time": 164640, "pitch": 82, "duration": 75, "velocity": 75}, {"time": 164880, "pitch": 42, "duration": 46, "velocity": 79}, {"time": 164880, "pitch": 82, "duration": 51, "velocity": 40}, {"time": 165000, "pitch": 82, "duration": 47, "velocity": 46}, {"time": 165120, "pitch": 38, "duration": 10, "velocity": 115}, {"time": 165120, "pitch": 42, "duration": 61, "velocity": 122}, {"time": 165120, "pitch": 54, "duration": 75, "velocity": 122}, {"time": 165120, "pitch": 82, "duration": 73, "velocity": 66}, {"time": 165240, "pitch": 42, "duration": 62, "velocity": 81}, {"time": 165360, "pitch": 36, "duration": 10, "velocity": 120}, {"time": 165360, "pitch": 42, "duration": 48, "velocity": 100}, {"time": 165360, "pitch": 82, "duration": 58, "velocity": 45}, {"time": 165480, "pitch": 82, "duration": 49, "velocity": 53}, {"time": 165600, "pitch": 36, "duration": 10, "velocity": 120}, {"time": 165600, "pitch": 42, "duration": 67, "velocity": 121}, {"time": 165600, "pitch": 82, "duration": 69, "velocity": 84}, {"time": 165840, "pitch": 42, "duration": 58, "velocity": 67}, {"time": 165840, "pitch": 82, "duration": 53, "velocity": 45}, {"time": 165960, "pitch": 82, "duration": 41, "velocity": 52}, {"time": 166080, "pitch": 38, "duration": 10, "velocity": 115}, {"time": 166080, "pitch": 42, "duration": 80, "velocity": 122}, {"time": 166080, "pitch": 82, "duration": 72, "velocity": 74}, {"time": 166320, "pitch": 42, "duration": 62, "velocity": 87}, {"time": 166320, "pitch": 82, "duration": 50, "velocity": 41}, {"time": 166440, "pitch": 42, "duration": 62, "velocity": 81}, {"time": 166440, "pitch": 82, "duration": 43, "velocity": 48}, {"time": 166560, "pitch": 36, "duration": 10, "velocity": 120}, {"time": 166560, "pitch": 42, "duration": 73, "velocity": 122}, {"time": 166560, "pitch": 82, "duration": 75, "velocity": 75}, {"time": 166800, "pitch": 42, "duration": 55, "velocity": 87}, {"time": 166800, "pitch": 82, "duration": 51, "velocity": 40}, {"time": 166920, "pitch": 82, "duration": 47, "velocity": 46}, {"time": 167040, "pitch": 38, "duration": 10, "velocity": 115}, {"time": 167040, "pitch": 42, "duration": 70, "velocity": 122}, {"time": 167040, "pitch": 54, "duration": 75, "velocity": 122}, {"time": 167040, "pitch": 82, "duration": 73, "velocity": 66}, {"time": 167280, "pitch": 42, "duration": 57, "velocity": 111}, {"time": 167280, "pitch": 82, "duration": 58, "velocity": 45}, {"time": 167400, "pitch": 82, "duration": 49, "velocity": 53}, {"time": 167520, "pitch": 36, "duration": 10, "velocity": 120}, {"time": 167520, "pitch": 42, "duration": 67, "velocity": 121}, {"time": 167520, "pitch": 82, "duration": 69, "velocity": 84}, {"time": 167760, "pitch": 42, "duration": 46, "velocity": 95}, {"time": 167760, "pitch": 82, "duration": 53, "velocity": 45}, {"time": 167880, "pitch": 82, "duration": 41, "velocity": 52}, {"time": 168000, "pitch": 38, "duration": 10, "velocity": 115}, {"time": 168000, "pitch": 42, "duration": 65, "velocity": 122}, {"time": 168000, "pitch": 82, "duration": 72, "velocity": 74}, {"time": 168240, "pitch": 42, "duration": 56, "velocity": 87}, {"time": 168240, "pitch": 48, "duration": 10, "velocity": 105}, {"time": 168240, "pitch": 82, "duration": 50, "velocity": 41}, {"time": 168360, "pitch": 82, "duration": 43, "velocity": 48}, {"time": 168480, "pitch": 36, "duration": 10, "velocity": 120}, {"time": 168480, "pitch": 42, "duration": 68, "velocity": 121}, {"time": 168480, "pitch": 82, "duration": 75, "velocity": 75}, {"time": 168720, "pitch": 42, "duration": 46, "velocity": 79}, {"time": 168720, "pitch": 45, "duration": 10, "velocity": 103}, {"time": 168720, "pitch": 82, "duration": 51, "velocity": 40}, {"time": 168840, "pitch": 82, "duration": 47, "velocity": 46}, {"time": 168960, "pitch": 38, "duration": 10, "velocity": 115}, {"time": 168960, "pitch": 42, "duration": 61, "velocity": 122}, {"time": 168960, "pitch": 54, "duration": 75, "velocity": 122}, {"time": 168960, "pitch": 82, "duration": 73, "velocity": 66}, {"time": 169080, "pitch": 42, "duration": 62, "velocity": 81}, {"time": 169200, "pitch": 36, "duration": 10, "velocity": 120}, {"time": 169200, "pitch": 41, "duration": 10, "velocity": 100}, {"time": 169200, "pitch": 42, "duration": 48, "velocity": 100}, {"time": 169200, "pitch": 82, "duration": 58, "velocity": 45}, {"time": 169320, "pitch": 38, "duration": 10, "velocity": 105}, {"time": 169320, "pitch": 82, "duration": 49, "velocity": 53}, {"time": 169440, "pitch": 36, "duration": 10, "velocity": 120}, {"time": 169440, "pitch": 42, "duration": 67, "velocity": 121}, {"time": 169440, "pitch": 49, "duration": 75, "velocity": 93}, {"time": 169440, "pitch": 57, "duration": 109, "velocity": 77}, {"time": 169440, "pitch": 82, "duration": 69, "velocity": 84}, {"time": 169680, "pitch": 42, "duration": 58, "velocity": 67}, {"time": 169680, "pitch": 82, "duration": 53, "velocity": 45}, {"time": 169800, "pitch": 82, "duration": 41, "velocity": 52}, {"time": 169920, "pitch": 38, "duration": 10, "velocity": 115}, {"time": 169920, "pitch": 42, "duration": 80, "velocity": 122}, {"time": 169920, "pitch": 82, "duration": 72, "velocity": 74}, {"time": 170160, "pitch": 42, "duration": 62, "velocity": 87}, {"time": 170160, "pitch": 82, "duration": 50, "velocity": 41}, {"time": 170280, "pitch": 42, "duration": 62, "velocity": 81}, {"time": 170280, "pitch": 82, "duration": 43, "velocity": 48}, {"time": 170400, "pitch": 36, "duration": 10, "velocity": 120}, {"time": 170400, "pitch": 42, "duration": 73, "velocity": 122}, {"time": 170400, "pitch": 82, "duration": 75, "velocity": 75}, {"time": 170640, "pitch": 42, "duration": 55, "velocity": 87}, {"time": 170640, "pitch": 82, "duration": 51, "velocity": 40}, {"time": 170760, "pitch": 82, "duration": 47, "velocity": 46}, {"time": 170880, "pitch": 38, "duration": 10, "velocity": 115}, {"time": 170880, "pitch": 42, "duration": 70, "velocity": 122}, {"time": 170880, "pitch": 54, "duration": 75, "velocity": 122}, {"time": 170880, "pitch": 82, "duration": 73, "velocity": 66}, {"time": 171120, "pitch": 42, "duration": 57, "velocity": 111}, {"time": 171120, "pitch": 82, "duration": 58, "velocity": 45}, {"time": 171240, "pitch": 82, "duration": 49, "velocity": 53}, {"time": 171360, "pitch": 36, "duration": 10, "velocity": 120}, {"time": 171360, "pitch": 42, "duration": 67, "velocity": 121}, {"time": 171360, "pitch": 82, "duration": 69, "velocity": 84}, {"time": 171600, "pitch": 42, "duration": 46, "velocity": 95}, {"time": 171600, "pitch": 82, "duration": 53, "velocity": 45}, {"time": 171720, "pitch": 82, "duration": 41, "velocity": 52}, {"time": 171840, "pitch": 38, "duration": 10, "velocity": 115}, {"time": 171840, "pitch": 42, "duration": 65, "velocity": 122}, {"time": 171840, "pitch": 82, "duration": 72, "velocity": 74}, {"time": 172080, "pitch": 42, "duration": 56, "velocity": 87}, {"time": 172080, "pitch": 82, "duration": 50, "velocity": 41}, {"time": 172200, "pitch": 82, "duration": 43, "velocity": 48}, {"time": 172320, "pitch": 36, "duration": 10, "velocity": 120}, {"time": 172320, "pitch": 42, "duration": 68, "velocity": 121}, {"time": 172320, "pitch": 82, "duration": 75, "velocity": 75}, {"time": 172560, "pitch": 42, "duration": 46, "velocity": 79}, {"time": 172560, "pitch": 82, "duration": 51, "velocity": 40}, {"time": 172680, "pitch": 82, "duration": 47, "velocity": 46}, {"time": 172800, "pitch": 38, "duration": 10, "velocity": 115}, {"time": 172800, "pitch": 42, "duration": 61, "velocity": 122}, {"time": 172800, "pitch": 54, "duration": 75, "velocity": 122}, {"time": 172800, "pitch": 82, "duration": 73, "velocity": 66}, {"time": 172920, "pitch": 42, "duration": 62, "velocity": 81}, {"time": 173040, "pitch": 36, "duration": 10, "velocity": 120}, {"time": 173040, "pitch": 42, "duration": 48, "velocity": 100}, {"time": 173040, "pitch": 82, "duration": 58, "velocity": 45}, {"time": 173160, "pitch": 82, "duration": 49, "velocity": 53}, {"time": 173280, "pitch": 36, "duration": 10, "velocity": 120}, {"time": 173280, "pitch": 42, "duration": 67, "velocity": 121}, {"time": 173280, "pitch": 82, "duration": 69, "velocity": 84}, {"time": 173520, "pitch": 42, "duration": 58, "velocity": 67}, {"time": 173520, "pitch": 82, "duration": 53, "velocity": 45}, {"time": 173640, "pitch": 82, "duration": 41, "velocity": 52}, {"time": 173760, "pitch": 38, "duration": 10, "velocity": 115}, {"time": 173760, "pitch": 42, "duration": 80, "velocity": 122}, {"time": 173760, "pitch": 82, "duration": 72, "velocity": 74}, {"time": 174000, "pitch": 42, "duration": 62, "velocity": 87}, {"time": 174000, "pitch": 82, "duration": 50, "velocity": 41}, {"time": 174120, "pitch": 42, "duration": 62, "velocity": 81}, {"time": 174120, "pitch": 82, "duration": 43, "velocity": 48}, {"time": 174240, "pitch": 36, "duration": 10, "velocity": 120}, {"time": 174240, "pitch": 42, "duration": 73, "velocity": 122}, {"time": 174240, "pitch": 82, "duration": 75, "velocity": 75}, {"time": 174480, "pitch": 42, "duration": 55, "velocity": 87}, {"time": 174480, "pitch": 82, "duration": 51, "velocity": 40}, {"time": 174600, "pitch": 82, "duration": 47, "velocity": 46}, {"time": 174720, "pitch": 38, "duration": 10, "velocity": 115}, {"time": 174720, "pitch": 42, "duration": 70, "velocity": 122}, {"time": 174720, "pitch": 54, "duration": 75, "velocity": 122}, {"time": 174720, "pitch": 82, "duration": 73, "velocity": 66}, {"time": 174960, "pitch": 42, "duration": 57, "velocity": 111}, {"time": 174960, "pitch": 82, "duration": 58, "velocity": 45}, {"time": 175080, "pitch": 82, "duration": 49, "velocity": 53}, {"time": 175200, "pitch": 36, "duration": 10, "velocity": 120}, {"time": 175200, "pitch": 42, "duration": 67, "velocity": 121}, {"time": 175200, "pitch": 82, "duration": 69, "velocity": 84}, {"time": 175440, "pitch": 42, "duration": 46, "velocity": 95}, {"time": 175440, "pitch": 82, "duration": 53, "velocity": 45}, {"time": 175560, "pitch": 82, "duration": 41, "velocity": 52}, {"time": 175680, "pitch": 38, "duration": 10, "velocity": 115}, {"time": 175680, "pitch": 42, "duration": 65, "velocity": 122}, {"time": 175680, "pitch": 82, "duration": 72, "velocity": 74}, {"time": 175920, "pitch": 42, "duration": 56, "velocity": 87}, {"time": 175920, "pitch": 82, "duration": 50, "velocity": 41}, {"time": 176040, "pitch": 82, "duration": 43, "velocity": 48}, {"time": 176160, "pitch": 36, "duration": 10, "velocity": 120}, {"time": 176160, "pitch": 42, "duration": 68, "velocity": 121}, {"time": 176160, "pitch": 82, "duration": 75, "velocity": 75}, {"time": 176400, "pitch": 42, "duration": 46, "velocity": 79}, {"time": 176400, "pitch": 82, "duration": 51, "velocity": 40}, {"time": 176520, "pitch": 82, "duration": 47, "velocity": 46}, {"time": 176640, "pitch": 38, "duration": 10, "velocity": 115}, {"time": 176640, "pitch": 42, "duration": 61, "velocity": 122}, {"time": 176640, "pitch": 54, "duration": 75, "velocity": 122}, {"time": 176640, "pitch": 82, "duration": 73, "velocity": 66}, {"time": 176760, "pitch": 42, "duration": 62, "velocity": 81}, {"time": 176880, "pitch": 36, "duration": 10, "velocity": 120}, {"time": 176880, "pitch": 46, "duration": 48, "velocity": 80}, {"time": 176880, "pitch": 82, "duration": 58, "velocity": 45}, {"time": 177000, "pitch": 82, "duration": 49, "velocity": 53}, {"time": 177120, "pitch": 36, "duration": 10, "velocity": 120}, {"time": 177120, "pitch": 42, "duration": 67, "velocity": 121}, {"time": 177120, "pitch": 49, "duration": 109, "velocity": 77}, {"time": 177120, "pitch": 82, "duration": 69, "velocity": 84}, {"time": 177360, "pitch": 42, "duration": 58, "velocity": 67}, {"time": 177360, "pitch": 82, "duration": 53, "velocity": 45}, {"time": 177480, "pitch": 82, "duration": 41, "velocity": 52}, {"time": 177600, "pitch": 38, "duration": 10, "velocity": 115}, {"time": 177600, "pitch": 42, "duration": 80, "velocity": 122}, {"time": 177600, "pitch": 82, "duration": 72, "velocity": 74}, {"time": 177840, "pitch": 42, "duration": 62, "velocity": 87}, {"time": 177840, "pitch": 82, "duration": 50, "velocity": 41}, {"time": 177960, "pitch": 42, "duration": 62, "velocity": 81}, {"time": 177960, "pitch": 82, "duration": 43, "velocity": 48}, {"time": 178080, "pitch": 36, "duration": 10, "velocity": 120}, {"time": 178080, "pitch": 42, "duration": 73, "velocity": 122}, {"time": 178080, "pitch": 82, "duration": 75, "velocity": 75}, {"time": 178320, "pitch": 42, "duration": 55, "velocity": 87}, {"time": 178320, "pitch": 82, "duration": 51, "velocity": 40}, {"time": 178440, "pitch": 82, "duration": 47, "velocity": 46}, {"time": 178560, "pitch": 38, "duration": 10, "velocity": 115}, {"time": 178560, "pitch": 42, "duration": 70, "velocity": 122}, {"time": 178560, "pitch": 54, "duration": 75, "velocity": 122}, {"time": 178560, "pitch": 82, "duration": 73, "velocity": 66}, {"time": 178800, "pitch": 42, "duration": 57, "velocity": 111}, {"time": 178800, "pitch": 82, "duration": 58, "velocity": 45}, {"time": 178920, "pitch": 82, "duration": 49, "velocity": 53}, {"time": 179040, "pitch": 36, "duration": 10, "velocity": 120}, {"time": 179040, "pitch": 42, "duration": 67, "velocity": 121}, {"time": 179040, "pitch": 82, "duration": 69, "velocity": 84}, {"time": 179280, "pitch": 42, "duration": 46, "velocity": 95}, {"time": 179280, "pitch": 82, "duration": 53, "velocity": 45}, {"time": 179400, "pitch": 82, "duration": 41, "velocity": 52}, {"time": 179520, "pitch": 38, "duration": 10, "velocity": 115}, {"time": 179520, "pitch": 42, "duration": 65, "velocity": 122}, {"time": 179520, "pitch": 82, "duration": 72, "velocity": 74}, {"time": 179760, "pitch": 42, "duration": 56, "velocity": 87}, {"time": 179760, "pitch": 82, "duration": 50, "velocity": 41}, {"time": 179880, "pitch": 82, "duration": 43, "velocity": 48}, {"time": 180000, "pitch": 36, "duration": 10, "velocity": 120}, {"time": 180000, "pitch": 42, "duration": 68, "velocity": 121}, {"time": 180000, "pitch": 82, "duration": 75, "velocity": 75}, {"time": 180240, "pitch": 42, "duration": 46, "velocity": 79}, {"time": 180240, "pitch": 82, "duration": 51, "velocity": 40}, {"time": 180360, "pitch": 82, "duration": 47, "velocity": 46}, {"time": 180480, "pitch": 38, "duration": 10, "velocity": 115}, {"time": 180480, "pitch": 42, "duration": 61, "velocity": 122}, {"time": 180480, "pitch": 54, "duration": 75, "velocity": 122}, {"time": 180480, "pitch": 82, "duration": 73, "velocity": 66}, {"time": 180600, "pitch": 42, "duration": 62, "velocity": 81}, {"time": 180720, "pitch": 36, "duration": 10, "velocity": 120}, {"time": 180720, "pitch": 42, "duration": 48, "velocity": 100}, {"time": 180720, "pitch": 82, "duration": 58, "velocity": 45}, {"time": 180840, "pitch": 82, "duration": 49, "velocity": 53}, {"time": 180960, "pitch": 36, "duration": 10, "velocity": 120}, {"time": 180960, "pitch": 42, "duration": 67, "velocity": 121}, {"time": 180960, "pitch": 82, "duration": 69, "velocity": 84}, {"time": 181200, "pitch": 42, "duration": 58, "velocity": 67}, {"time": 181200, "pitch": 82, "duration": 53, "velocity": 45}, {"time": 181320, "pitch": 82, "duration": 41, "velocity": 52}, {"time": 181440, "pitch": 38, "duration": 10, "velocity": 115}, {"time": 181440, "pitch": 42, "duration": 80, "velocity": 122}, {"time": 181440, "pitch": 82, "duration": 72, "velocity": 74}, {"time": 181680, "pitch": 42, "duration": 62, "velocity": 87}, {"time": 181680, "pitch": 82, "duration": 50, "velocity": 41}, {"time": 181800, "pitch": 42, "duration": 62, "velocity": 81}, {"time": 181800, "pitch": 82, "duration": 43, "velocity": 48}, {"time": 181920, "pitch": 36, "duration": 10, "velocity": 120}, {"time": 181920, "pitch": 42, "duration": 73, "velocity": 122}, {"time": 181920, "pitch": 82, "duration": 75, "velocity": 75}, {"time": 182160, "pitch": 42, "duration": 55, "velocity": 87}, {"time": 182160, "pitch": 82, "duration": 51, "velocity": 40}, {"time": 182280, "pitch": 82, "duration": 47, "velocity": 46}, {"time": 182400, "pitch": 38, "duration": 10, "velocity": 115}, {"time": 182400, "pitch": 42, "duration": 70, "velocity": 122}, {"time": 182400, "pitch": 54, "duration": 75, "velocity": 122}, {"time": 182400, "pitch": 82, "duration": 73, "velocity": 66}, {"time": 182640, "pitch": 42, "duration": 57, "velocity": 111}, {"time": 182640, "pitch": 82, "duration": 58, "velocity": 45}, {"time": 182760, "pitch": 82, "duration": 49, "velocity": 53}, {"time": 182880, "pitch": 36, "duration": 10, "velocity": 120}, {"time": 182880, "pitch": 42, "duration": 67, "velocity": 121}, {"time": 182880, "pitch": 82, "duration": 69, "velocity": 84}, {"time": 183120, "pitch": 42, "duration": 46, "velocity": 95}, {"time": 183120, "pitch": 82, "duration": 53, "velocity": 45}, {"time": 183240, "pitch": 82, "duration": 41, "velocity": 52}, {"time": 183360, "pitch": 38, "duration": 10, "velocity": 115}, {"time": 183360, "pitch": 42, "duration": 65, "velocity": 122}, {"time": 183360, "pitch": 82, "duration": 72, "velocity": 74}, {"time": 183600, "pitch": 42, "duration": 56, "velocity": 87}, {"time": 183600, "pitch": 82, "duration": 50, "velocity": 41}, {"time": 183720, "pitch": 82, "duration": 43, "velocity": 48}, {"time": 183840, "pitch": 36, "duration": 10, "velocity": 120}, {"time": 183840, "pitch": 42, "duration": 68, "velocity": 121}, {"time": 183840, "pitch": 82, "duration": 75, "velocity": 75}, {"time": 184080, "pitch": 38, "duration": 10, "velocity": 94}, {"time": 184080, "pitch": 42, "duration": 46, "velocity": 79}, {"time": 184080, "pitch": 82, "duration": 51, "velocity": 40}, {"time": 184200, "pitch": 82, "duration": 47, "velocity": 46}, {"time": 184320, "pitch": 38, "duration": 10, "velocity": 115}, {"time": 184320, "pitch": 42, "duration": 61, "velocity": 122}, {"time": 184320, "pitch": 54, "duration": 75, "velocity": 122}, {"time": 184320, "pitch": 82, "duration": 73, "velocity": 66}, {"time": 184440, "pitch": 38, "duration": 10, "velocity": 94}, {"time": 184440, "pitch": 42, "duration": 62, "velocity": 81}, {"time": 184560, "pitch": 36, "duration": 10, "velocity": 120}, {"time": 184560, "pitch": 42, "duration": 48, "velocity": 100}, {"time": 184560, "pitch": 45, "duration": 10, "velocity": 94}, {"time": 184560, "pitch": 82, "duration": 58, "velocity": 45}, {"time": 184680, "pitch": 82, "duration": 49, "velocity": 53}, {"time": 184800, "pitch": 36, "duration": 10, "velocity": 120}, {"time": 184800, "pitch": 42, "duration": 67, "velocity": 121}, {"time": 184800, "pitch": 49, "duration": 10, "velocity": 63}, {"time": 184800, "pitch": 57, "duration": 109, "velocity": 77}, {"time": 184800, "pitch": 82, "duration": 69, "velocity": 84}, {"time": 185040, "pitch": 42, "duration": 58, "velocity": 67}, {"time": 185040, "pitch": 82, "duration": 53, "velocity": 45}, {"time": 185160, "pitch": 82, "duration": 41, "velocity": 52}, {"time": 185280, "pitch": 38, "duration": 10, "velocity": 115}, {"time": 185280, "pitch": 42, "duration": 80, "velocity": 122}, {"time": 185280, "pitch": 82, "duration": 72, "velocity": 74}, {"time": 185520, "pitch": 42, "duration": 62, "velocity": 87}, {"time": 185520, "pitch": 82, "duration": 50, "velocity": 41}, {"time": 185640, "pitch": 42, "duration": 62, "velocity": 81}, {"time": 185640, "pitch": 82, "duration": 43, "velocity": 48}, {"time": 185760, "pitch": 36, "duration": 10, "velocity": 120}, {"time": 185760, "pitch": 42, "duration": 73, "velocity": 122}, {"time": 185760, "pitch": 82, "duration": 75, "velocity": 75}, {"time": 186000, "pitch": 42, "duration": 55, "velocity": 87}, {"time": 186000, "pitch": 82, "duration": 51, "velocity": 40}, {"time": 186120, "pitch": 82, "duration": 47, "velocity": 46}, {"time": 186240, "pitch": 38, "duration": 10, "velocity": 115}, {"time": 186240, "pitch": 42, "duration": 70, "velocity": 122}, {"time": 186240, "pitch": 54, "duration": 75, "velocity": 122}, {"time": 186240, "pitch": 82, "duration": 73, "velocity": 66}, {"time": 186480, "pitch": 42, "duration": 57, "velocity": 111}, {"time": 186480, "pitch": 82, "duration": 58, "velocity": 45}, {"time": 186600, "pitch": 82, "duration": 49, "velocity": 53}, {"time": 186720, "pitch": 36, "duration": 10, "velocity": 120}, {"time": 186720, "pitch": 42, "duration": 67, "velocity": 121}, {"time": 186720, "pitch": 82, "duration": 69, "velocity": 84}, {"time": 186960, "pitch": 42, "duration": 46, "velocity": 95}, {"time": 186960, "pitch": 82, "duration": 53, "velocity": 45}, {"time": 187080, "pitch": 82, "duration": 41, "velocity": 52}, {"time": 187200, "pitch": 38, "duration": 10, "velocity": 115}, {"time": 187200, "pitch": 42, "duration": 65, "velocity": 122}, {"time": 187200, "pitch": 82, "duration": 72, "velocity": 74}, {"time": 187440, "pitch": 42, "duration": 56, "velocity": 87}, {"time": 187440, "pitch": 82, "duration": 50, "velocity": 41}, {"time": 187560, "pitch": 82, "duration": 43, "velocity": 48}, {"time": 187680, "pitch": 36, "duration": 10, "velocity": 120}, {"time": 187680, "pitch": 42, "duration": 68, "velocity": 121}, {"time": 187680, "pitch": 82, "duration": 75, "velocity": 75}, {"time": 187920, "pitch": 42, "duration": 46, "velocity": 79}, {"time": 187920, "pitch": 82, "duration": 51, "velocity": 40}, {"time": 188040, "pitch": 82, "duration": 47, "velocity": 46}, {"time": 188160, "pitch": 38, "duration": 10, "velocity": 115}, {"time": 188160, "pitch": 42, "duration": 61, "velocity": 122}, {"time": 188160, "pitch": 54, "duration": 75, "velocity": 122}, {"time": 188160, "pitch": 82, "duration": 73, "velocity": 66}, {"time": 188280, "pitch": 42, "duration": 62, "velocity": 81}, {"time": 188400, "pitch": 36, "duration": 10, "velocity": 120}, {"time": 188400, "pitch": 42, "duration": 48, "velocity": 100}, {"time": 188400, "pitch": 82, "duration": 58, "velocity": 45}, {"time": 188520, "pitch": 82, "duration": 49, "velocity": 53}, {"time": 188640, "pitch": 36, "duration": 10, "velocity": 120}, {"time": 188640, "pitch": 42, "duration": 67, "velocity": 121}, {"time": 188640, "pitch": 82, "duration": 69, "velocity": 84}, {"time": 188880, "pitch": 42, "duration": 58, "velocity": 67}, {"time": 188880, "pitch": 82, "duration": 53, "velocity": 45}, {"time": 189000, "pitch": 82, "duration": 41, "velocity": 52}, {"time": 189120, "pitch": 38, "duration": 10, "velocity": 115}, {"time": 189120, "pitch": 42, "duration": 80, "velocity": 122}, {"time": 189120, "pitch": 82, "duration": 72, "velocity": 74}, {"time": 189360, "pitch": 42, "duration": 62, "velocity": 87}, {"time": 189360, "pitch": 82, "duration": 50, "velocity": 41}, {"time": 189480, "pitch": 42, "duration": 62, "velocity": 81}, {"time": 189480, "pitch": 82, "duration": 43, "velocity": 48}, {"time": 189600, "pitch": 36, "duration": 10, "velocity": 120}, {"time": 189600, "pitch": 42, "duration": 73, "velocity": 122}, {"time": 189600, "pitch": 82, "duration": 75, "velocity": 75}, {"time": 189840, "pitch": 42, "duration": 55, "velocity": 87}, {"time": 189840, "pitch": 82, "duration": 51, "velocity": 40}, {"time": 189960, "pitch": 82, "duration": 47, "velocity": 46}, {"time": 190080, "pitch": 38, "duration": 10, "velocity": 115}, {"time": 190080, "pitch": 42, "duration": 70, "velocity": 122}, {"time": 190080, "pitch": 54, "duration": 75, "velocity": 122}, {"time": 190080, "pitch": 82, "duration": 73, "velocity": 66}, {"time": 190320, "pitch": 42, "duration": 57, "velocity": 111}, {"time": 190320, "pitch": 82, "duration": 58, "velocity": 45}, {"time": 190440, "pitch": 82, "duration": 49, "velocity": 53}, {"time": 190560, "pitch": 36, "duration": 10, "velocity": 120}, {"time": 190560, "pitch": 42, "duration": 67, "velocity": 121}, {"time": 190560, "pitch": 82, "duration": 69, "velocity": 84}, {"time": 190800, "pitch": 42, "duration": 46, "velocity": 95}, {"time": 190800, "pitch": 82, "duration": 53, "velocity": 45}, {"time": 190920, "pitch": 82, "duration": 41, "velocity": 52}, {"time": 191040, "pitch": 38, "duration": 10, "velocity": 115}, {"time": 191040, "pitch": 42, "duration": 65, "velocity": 122}, {"time": 191040, "pitch": 82, "duration": 72, "velocity": 74}, {"time": 191280, "pitch": 42, "duration": 56, "velocity": 87}, {"time": 191280, "pitch": 82, "duration": 50, "velocity": 41}, {"time": 191400, "pitch": 82, "duration": 43, "velocity": 48}, {"time": 191520, "pitch": 36, "duration": 10, "velocity": 120}, {"time": 191520, "pitch": 42, "duration": 68, "velocity": 121}, {"time": 191520, "pitch": 82, "duration": 75, "velocity": 75}, {"time": 191760, "pitch": 42, "duration": 46, "velocity": 79}, {"time": 191760, "pitch": 82, "duration": 51, "velocity": 40}, {"time": 191880, "pitch": 82, "duration": 47, "velocity": 46}, {"time": 192000, "pitch": 38, "duration": 10, "velocity": 115}, {"time": 192000, "pitch": 42, "duration": 61, "velocity": 122}, {"time": 192000, "pitch": 54, "duration": 75, "velocity": 122}, {"time": 192000, "pitch": 82, "duration": 73, "velocity": 66}, {"time": 192120, "pitch": 42, "duration": 62, "velocity": 81}, {"time": 192240, "pitch": 36, "duration": 10, "velocity": 120}, {"time": 192240, "pitch": 46, "duration": 48, "velocity": 80}, {"time": 192240, "pitch": 82, "duration": 58, "velocity": 45}, {"time": 192360, "pitch": 82, "duration": 49, "velocity": 53}, {"time": 192480, "pitch": 36, "duration": 10, "velocity": 120}, {"time": 192480, "pitch": 42, "duration": 67, "velocity": 121}, {"time": 192480, "pitch": 82, "duration": 69, "velocity": 84}, {"time": 192720, "pitch": 42, "duration": 58, "velocity": 67}, {"time": 192720, "pitch": 82, "duration": 53, "velocity": 45}, {"time": 192840, "pitch": 82, "duration": 41, "velocity": 52}, {"time": 192960, "pitch": 38, "duration": 10, "velocity": 115}, {"time": 192960, "pitch": 42, "duration": 80, "velocity": 122}, {"time": 192960, "pitch": 82, "duration": 72, "velocity": 74}, {"time": 193200, "pitch": 42, "duration": 62, "velocity": 87}, {"time": 193200, "pitch": 82, "duration": 50, "velocity": 41}, {"time": 193320, "pitch": 42, "duration": 62, "velocity": 81}, {"time": 193320, "pitch": 82, "duration": 43, "velocity": 48}, {"time": 193440, "pitch": 36, "duration": 10, "velocity": 120}, {"time": 193440, "pitch": 42, "duration": 73, "velocity": 122}, {"time": 193440, "pitch": 82, "duration": 75, "velocity": 75}, {"time": 193680, "pitch": 42, "duration": 55, "velocity": 87}, {"time": 193680, "pitch": 82, "duration": 51, "velocity": 40}, {"time": 193800, "pitch": 82, "duration": 47, "velocity": 46}, {"time": 193920, "pitch": 38, "duration": 10, "velocity": 115}, {"time": 193920, "pitch": 42, "duration": 70, "velocity": 122}, {"time": 193920, "pitch": 54, "duration": 75, "velocity": 122}, {"time": 193920, "pitch": 82, "duration": 73, "velocity": 66}, {"time": 194160, "pitch": 42, "duration": 57, "velocity": 111}, {"time": 194160, "pitch": 82, "duration": 58, "velocity": 45}, {"time": 194280, "pitch": 82, "duration": 49, "velocity": 53}, {"time": 194400, "pitch": 36, "duration": 10, "velocity": 120}, {"time": 194400, "pitch": 42, "duration": 67, "velocity": 121}, {"time": 194400, "pitch": 82, "duration": 69, "velocity": 84}, {"time": 194640, "pitch": 42, "duration": 46, "velocity": 95}, {"time": 194640, "pitch": 82, "duration": 53, "velocity": 45}, {"time": 194760, "pitch": 82, "duration": 41, "velocity": 52}, {"time": 194880, "pitch": 38, "duration": 10, "velocity": 115}, {"time": 194880, "pitch": 42, "duration": 65, "velocity": 122}, {"time": 194880, "pitch": 82, "duration": 72, "velocity": 74}, {"time": 195120, "pitch": 42, "duration": 56, "velocity": 87}, {"time": 195120, "pitch": 82, "duration": 50, "velocity": 41}, {"time": 195240, "pitch": 82, "duration": 43, "velocity": 48}, {"time": 195360, "pitch": 36, "duration": 10, "velocity": 120}, {"time": 195360, "pitch": 42, "duration": 68, "velocity": 121}, {"time": 195360, "pitch": 82, "duration": 75, "velocity": 75}, {"time": 195600, "pitch": 42, "duration": 46, "velocity": 79}, {"time": 195600, "pitch": 82, "duration": 51, "velocity": 40}, {"time": 195720, "pitch": 82, "duration": 47, "velocity": 46}, {"time": 195840, "pitch": 38, "duration": 10, "velocity": 115}, {"time": 195840, "pitch": 42, "duration": 61, "velocity": 122}, {"time": 195840, "pitch": 54, "duration": 75, "velocity": 122}, {"time": 195840, "pitch": 82, "duration": 73, "velocity": 66}, {"time": 195960, "pitch": 42, "duration": 62, "velocity": 81}, {"time": 196080, "pitch": 36, "duration": 10, "velocity": 120}, {"time": 196080, "pitch": 42, "duration": 48, "velocity": 100}, {"time": 196080, "pitch": 82, "duration": 58, "velocity": 45}, {"time": 196200, "pitch": 82, "duration": 49, "velocity": 53}, {"time": 196320, "pitch": 36, "duration": 10, "velocity": 120}, {"time": 196320, "pitch": 42, "duration": 67, "velocity": 121}, {"time": 196320, "pitch": 82, "duration": 69, "velocity": 84}, {"time": 196560, "pitch": 42, "duration": 58, "velocity": 67}, {"time": 196560, "pitch": 82, "duration": 53, "velocity": 45}, {"time": 196680, "pitch": 82, "duration": 41, "velocity": 52}, {"time": 196800, "pitch": 38, "duration": 10, "velocity": 115}, {"time": 196800, "pitch": 42, "duration": 80, "velocity": 122}, {"time": 196800, "pitch": 82, "duration": 72, "velocity": 74}, {"time": 197040, "pitch": 42, "duration": 62, "velocity": 87}, {"time": 197040, "pitch": 82, "duration": 50, "velocity": 41}, {"time": 197160, "pitch": 42, "duration": 62, "velocity": 81}, {"time": 197160, "pitch": 82, "duration": 43, "velocity": 48}, {"time": 197280, "pitch": 36, "duration": 10, "velocity": 120}, {"time": 197280, "pitch": 42, "duration": 73, "velocity": 122}, {"time": 197280, "pitch": 82, "duration": 75, "velocity": 75}, {"time": 197520, "pitch": 42, "duration": 55, "velocity": 87}, {"time": 197520, "pitch": 82, "duration": 51, "velocity": 40}, {"time": 197640, "pitch": 82, "duration": 47, "velocity": 46}, {"time": 197760, "pitch": 38, "duration": 10, "velocity": 115}, {"time": 197760, "pitch": 42, "duration": 70, "velocity": 122}, {"time": 197760, "pitch": 54, "duration": 75, "velocity": 122}, {"time": 197760, "pitch": 82, "duration": 73, "velocity": 66}, {"time": 198000, "pitch": 42, "duration": 57, "velocity": 111}, {"time": 198000, "pitch": 82, "duration": 58, "velocity": 45}, {"time": 198120, "pitch": 82, "duration": 49, "velocity": 53}, {"time": 198240, "pitch": 36, "duration": 10, "velocity": 120}, {"time": 198240, "pitch": 42, "duration": 67, "velocity": 121}, {"time": 198240, "pitch": 82, "duration": 69, "velocity": 84}, {"time": 198480, "pitch": 42, "duration": 46, "velocity": 95}, {"time": 198480, "pitch": 82, "duration": 53, "velocity": 45}, {"time": 198600, "pitch": 82, "duration": 41, "velocity": 52}, {"time": 198720, "pitch": 38, "duration": 10, "velocity": 115}, {"time": 198720, "pitch": 42, "duration": 65, "velocity": 122}, {"time": 198720, "pitch": 82, "duration": 72, "velocity": 74}, {"time": 198960, "pitch": 42, "duration": 56, "velocity": 87}, {"time": 198960, "pitch": 48, "duration": 10, "velocity": 105}, {"time": 198960, "pitch": 82, "duration": 50, "velocity": 41}, {"time": 199080, "pitch": 82, "duration": 43, "velocity": 48}, {"time": 199200, "pitch": 36, "duration": 10, "velocity": 120}, {"time": 199200, "pitch": 42, "duration": 68, "velocity": 121}, {"time": 199200, "pitch": 82, "duration": 75, "velocity": 75}, {"time": 199440, "pitch": 42, "duration": 46, "velocity": 79}, {"time": 199440, "pitch": 45, "duration": 10, "velocity": 103}, {"time": 199440, "pitch": 82, "duration": 51, "velocity": 40}, {"time": 199560, "pitch": 82, "duration": 47, "velocity": 46}, {"time": 199680, "pitch": 38, "duration": 10, "velocity": 115}, {"time": 199680, "pitch": 42, "duration": 61, "velocity": 122}, {"time": 199680, "pitch": 54, "duration": 75, "velocity": 122}, {"time": 199680, "pitch": 82, "duration": 73, "velocity": 66}, {"time": 199800, "pitch": 42, "duration": 62, "velocity": 81}, {"time": 199920, "pitch": 36, "duration": 10, "velocity": 120}, {"time": 199920, "pitch": 41, "duration": 10, "velocity": 100}, {"time": 199920, "pitch": 42, "duration": 48, "velocity": 100}, {"time": 199920, "pitch": 82, "duration": 58, "velocity": 45}, {"time": 200040, "pitch": 38, "duration": 10, "velocity": 105}, {"time": 200040, "pitch": 82, "duration": 49, "velocity": 53}, {"time": 200160, "pitch": 36, "duration": 10, "velocity": 110}, {"time": 200160, "pitch": 49, "duration": 10, "velocity": 65}, {"time": 200160, "pitch": 57, "duration": 10, "velocity": 65}, {"time": 201595, "pitch": 38, "duration": 10, "velocity": 90}, {"time": 201605, "pitch": 38, "duration": 10, "velocity": 110}, {"time": 202080, "pitch": 36, "duration": 10, "velocity": 110}, {"time": 202080, "pitch": 49, "duration": 10, "velocity": 65}, {"time": 202800, "pitch": 36, "duration": 10, "velocity": 110}, {"time": 202800, "pitch": 57, "duration": 10, "velocity": 65}, {"time": 203035, "pitch": 38, "duration": 10, "velocity": 90}, {"time": 203045, "pitch": 38, "duration": 10, "velocity": 110}, {"time": 203280, "pitch": 45, "duration": 10, "velocity": 103}, {"time": 203520, "pitch": 41, "duration": 10, "velocity": 103}, {"time": 203760, "pitch": 36, "duration": 10, "velocity": 110}, {"time": 203760, "pitch": 49, "duration": 10, "velocity": 65}, {"time": 203760, "pitch": 57, "duration": 10, "velocity": 65}, {"time": 204000, "pitch": 42, "duration": 67, "velocity": 121}, {"time": 204240, "pitch": 36, "duration": 10, "velocity": 110}, {"time": 204240, "pitch": 42, "duration": 58, "velocity": 67}, {"time": 204480, "pitch": 38, "duration": 10, "velocity": 110}, {"time": 204480, "pitch": 42, "duration": 80, "velocity": 122}, {"time": 204720, "pitch": 42, "duration": 62, "velocity": 87}, {"time": 204840, "pitch": 42, "duration": 62, "velocity": 81}, {"time": 204960, "pitch": 36, "duration": 10, "velocity": 110}, {"time": 204960, "pitch": 42, "duration": 73, "velocity": 122}, {"time": 205200, "pitch": 36, "duration": 10, "velocity": 110}, {"time": 205200, "pitch": 42, "duration": 55, "velocity": 87}, {"time": 205440, "pitch": 38, "duration": 10, "velocity": 110}, {"time": 205440, "pitch": 42, "duration": 70, "velocity": 122}, {"time": 205680, "pitch": 42, "duration": 57, "velocity": 111}, {"time": 205920, "pitch": 36, "duration": 10, "velocity": 120}, {"time": 205920, "pitch": 42, "duration": 67, "velocity": 121}, {"time": 205920, "pitch": 82, "duration": 69, "velocity": 84}, {"time": 206160, "pitch": 42, "duration": 46, "velocity": 95}, {"time": 206160, "pitch": 82, "duration": 53, "velocity": 45}, {"time": 206280, "pitch": 82, "duration": 41, "velocity": 52}, {"time": 206400, "pitch": 36, "duration": 10, "velocity": 120}, {"time": 206400, "pitch": 42, "duration": 65, "velocity": 122}, {"time": 206400, "pitch": 82, "duration": 72, "velocity": 74}, {"time": 206640, "pitch": 42, "duration": 56, "velocity": 87}, {"time": 206640, "pitch": 48, "duration": 10, "velocity": 105}, {"time": 206640, "pitch": 82, "duration": 50, "velocity": 41}, {"time": 206760, "pitch": 82, "duration": 43, "velocity": 48}, {"time": 206880, "pitch": 36, "duration": 10, "velocity": 120}, {"time": 206880, "pitch": 42, "duration": 68, "velocity": 121}, {"time": 206880, "pitch": 82, "duration": 75, "velocity": 75}, {"time": 207120, "pitch": 42, "duration": 46, "velocity": 79}, {"time": 207120, "pitch": 45, "duration": 10, "velocity": 103}, {"time": 207120, "pitch": 82, "duration": 51, "velocity": 40}, {"time": 207240, "pitch": 82, "duration": 47, "velocity": 46}, {"time": 207360, "pitch": 38, "duration": 10, "velocity": 110}, {"time": 207360, "pitch": 42, "duration": 61, "velocity": 122}, {"time": 207360, "pitch": 54, "duration": 75, "velocity": 122}, {"time": 207360, "pitch": 82, "duration": 73, "velocity": 66}, {"time": 207480, "pitch": 42, "duration": 62, "velocity": 81}, {"time": 207600, "pitch": 41, "duration": 10, "velocity": 100}, {"time": 207600, "pitch": 42, "duration": 48, "velocity": 100}, {"time": 207600, "pitch": 82, "duration": 58, "velocity": 45}, {"time": 207720, "pitch": 38, "duration": 10, "velocity": 104}, {"time": 207720, "pitch": 82, "duration": 49, "velocity": 53}, {"time": 207840, "pitch": 36, "duration": 10, "velocity": 110}, {"time": 207840, "pitch": 49, "duration": 10, "velocity": 65}, {"time": 207840, "pitch": 57, "duration": 10, "velocity": 65}, {"time": 209275, "pitch": 38, "duration": 10, "velocity": 90}, {"time": 209285, "pitch": 38, "duration": 10, "velocity": 110}, {"time": 209760, "pitch": 36, "duration": 10, "velocity": 110}, {"time": 209760, "pitch": 49, "duration": 10, "velocity": 65}, {"time": 210480, "pitch": 36, "duration": 10, "velocity": 110}, {"time": 210480, "pitch": 57, "duration": 10, "velocity": 65}, {"time": 210715, "pitch": 38, "duration": 10, "velocity": 90}, {"time": 210725, "pitch": 38, "duration": 10, "velocity": 110}, {"time": 210960, "pitch": 45, "duration": 10, "velocity": 103}, {"time": 211200, "pitch": 41, "duration": 10, "velocity": 103}, {"time": 211440, "pitch": 36, "duration": 10, "velocity": 110}, {"time": 211440, "pitch": 49, "duration": 10, "velocity": 65}, {"time": 211440, "pitch": 57, "duration": 10, "velocity": 65}, {"time": 211680, "pitch": 42, "duration": 67, "velocity": 121}, {"time": 211920, "pitch": 36, "duration": 10, "velocity": 110}, {"time": 211920, "pitch": 42, "duration": 58, "velocity": 67}, {"time": 212160, "pitch": 38, "duration": 10, "velocity": 110}, {"time": 212160, "pitch": 42, "duration": 80, "velocity": 122}, {"time": 212400, "pitch": 42, "duration": 62, "velocity": 87}, {"time": 212520, "pitch": 42, "duration": 62, "velocity": 81}, {"time": 212640, "pitch": 36, "duration": 10, "velocity": 110}, {"time": 212640, "pitch": 42, "duration": 73, "velocity": 122}, {"time": 212880, "pitch": 36, "duration": 10, "velocity": 110}, {"time": 212880, "pitch": 42, "duration": 55, "velocity": 87}, {"time": 213120, "pitch": 38, "duration": 10, "velocity": 110}, {"time": 213120, "pitch": 42, "duration": 70, "velocity": 122}, {"time": 213360, "pitch": 42, "duration": 57, "velocity": 111}, {"time": 213600, "pitch": 36, "duration": 10, "velocity": 110}, {"time": 213840, "pitch": 36, "duration": 10, "velocity": 110}, {"time": 213840, "pitch": 38, "duration": 10, "velocity": 110}, {"time": 214080, "pitch": 45, "duration": 10, "velocity": 105}, {"time": 214200, "pitch": 45, "duration": 10, "velocity": 86}, {"time": 214320, "pitch": 36, "duration": 10, "velocity": 110}, {"time": 214320, "pitch": 57, "duration": 10, "velocity": 84}, {"time": 214800, "pitch": 36, "duration": 10, "velocity": 110}, {"time": 214800, "pitch": 49, "duration": 10, "velocity": 84}, {"time": 215280, "pitch": 36, "duration": 10, "velocity": 110}, {"time": 215280, "pitch": 49, "duration": 10, "velocity": 84}, {"time": 215280, "pitch": 57, "duration": 10, "velocity": 84}, {"time": 216720, "pitch": 38, "duration": 10, "velocity": 110}, {"time": 216780, "pitch": 48, "duration": 10, "velocity": 95}, {"time": 216840, "pitch": 45, "duration": 10, "velocity": 85}, {"time": 216900, "pitch": 41, "duration": 10, "velocity": 80}, {"time": 216960, "pitch": 36, "duration": 10, "velocity": 110}, {"time": 216960, "pitch": 38, "duration": 10, "velocity": 110}], "annotations": [{"time": 123, "annotation": {"number": 0, "value": 0}, "group": "control_change"}, {"time": 123, "annotation": {"number": 32, "value": 2}, "group": "control_change"}, {"time": 148, "annotation": {"number": 7, "value": 120}, "group": "control_change"}, {"time": 172, "annotation": {"number": 11, "value": 120}, "group": "control_change"}, {"time": 197, "annotation": {"number": 91, "value": 75}, "group": "control_change"}, {"time": 468, "annotation": {"number": 101, "value": 127}, "group": "control_change"}, {"time": 480, "annotation": {"number": 100, "value": 127}, "group": "control_change"}]}, {"program": 0, "is_drum": false, "name": "E.GUITAR", "annotations": [{"time": 123, "annotation": {"number": 0, "value": 8}, "group": "control_change"}, {"time": 123, "annotation": {"number": 32, "value": 2}, "group": "control_change"}]}, {"program": 27, "is_drum": false, "name": "E.GUITAR", "notes": [{"time": 54240, "pitch": 64, "duration": 429, "velocity": 104}, {"time": 54480, "pitch": 61, "duration": 1695, "velocity": 104}, {"time": 54720, "pitch": 64, "duration": 1482, "velocity": 93}, {"time": 54960, "pitch": 69, "duration": 1225, "velocity": 111}, {"time": 56160, "pitch": 59, "duration": 1801, "velocity": 77}, {"time": 56160, "pitch": 66, "duration": 246, "velocity": 108}, {"time": 56400, "pitch": 62, "duration": 1044, "velocity": 62}, {"time": 56640, "pitch": 66, "duration": 645, "velocity": 75}, {"time": 56880, "pitch": 71, "duration": 1108, "velocity": 108}, {"time": 57360, "pitch": 66, "duration": 251, "velocity": 75}, {"time": 57600, "pitch": 62, "duration": 432, "velocity": 81}, {"time": 58080, "pitch": 64, "duration": 242, "velocity": 104}, {"time": 58320, "pitch": 61, "duration": 1042, "velocity": 75}, {"time": 58560, "pitch": 64, "duration": 589, "velocity": 86}, {"time": 58800, "pitch": 69, "duration": 1199, "velocity": 100}, {"time": 59280, "pitch": 64, "duration": 741, "velocity": 65}, {"time": 59520, "pitch": 61, "duration": 437, "velocity": 74}, {"time": 60000, "pitch": 59, "duration": 673, "velocity": 83}, {"time": 60000, "pitch": 66, "duration": 257, "velocity": 100}, {"time": 60240, "pitch": 62, "duration": 998, "velocity": 74}, {"time": 60480, "pitch": 66, "duration": 624, "velocity": 83}, {"time": 60720, "pitch": 71, "duration": 1018, "velocity": 98}, {"time": 61200, "pitch": 66, "duration": 520, "velocity": 83}, {"time": 61440, "pitch": 62, "duration": 312, "velocity": 98}, {"time": 123360, "pitch": 64, "duration": 429, "velocity": 104}, {"time": 123600, "pitch": 61, "duration": 1695, "velocity": 104}, {"time": 123840, "pitch": 64, "duration": 1482, "velocity": 93}, {"time": 124080, "pitch": 69, "duration": 1225, "velocity": 111}, {"time": 125280, "pitch": 59, "duration": 1801, "velocity": 77}, {"time": 125280, "pitch": 66, "duration": 246, "velocity": 108}, {"time": 125520, "pitch": 62, "duration": 1044, "velocity": 62}, {"time": 125760, "pitch": 66, "duration": 645, "velocity": 75}, {"time": 126000, "pitch": 71, "duration": 1108, "velocity": 108}, {"time": 126480, "pitch": 66, "duration": 251, "velocity": 75}, {"time": 126720, "pitch": 62, "duration": 432, "velocity": 81}, {"time": 127200, "pitch": 64, "duration": 242, "velocity": 104}, {"time": 127440, "pitch": 61, "duration": 1042, "velocity": 75}, {"time": 127680, "pitch": 64, "duration": 589, "velocity": 86}, {"time": 127920, "pitch": 69, "duration": 1199, "velocity": 100}, {"time": 128400, "pitch": 64, "duration": 741, "velocity": 65}, {"time": 128640, "pitch": 61, "duration": 437, "velocity": 74}, {"time": 129120, "pitch": 59, "duration": 673, "velocity": 83}, {"time": 129120, "pitch": 66, "duration": 257, "velocity": 100}, {"time": 129360, "pitch": 62, "duration": 998, "velocity": 74}, {"time": 129600, "pitch": 66, "duration": 624, "velocity": 83}, {"time": 129840, "pitch": 71, "duration": 1018, "velocity": 98}, {"time": 130320, "pitch": 66, "duration": 520, "velocity": 83}, {"time": 130560, "pitch": 62, "duration": 312, "velocity": 98}], "annotations": [{"time": 148, "annotation": {"number": 7, "value": 75}, "group": "control_change"}, {"time": 172, "annotation": {"number": 11, "value": 120}, "group": "control_change"}, {"time": 197, "annotation": {"number": 10, "value": 91}, "group": "control_change"}, {"time": 222, "annotation": {"number": 91, "value": 127}, "group": "control_change"}, {"time": 246, "annotation": {"number": 93, "value": 58}, "group": "control_change"}, {"time": 271, "annotation": {"number": 94, "value": 5}, "group": "control_change"}, {"time": 295, "annotation": {"number": 101, "value": 0}, "group": "control_change"}, {"time": 320, "annotation": {"number": 100, "value": 0}, "group": "control_change"}, {"time": 345, "annotation": {"number": 6, "value": 12}, "group": "control_change"}, {"time": 369, "annotation": {"number": 101, "value": 127}, "group": "control_change"}, {"time": 394, "annotation": {"number": 100, "value": 127}, "group": "control_change"}]}, {"program": 0, "is_drum": false, "name": "BRASS", "annotations": [{"time": 123, "annotation": {"number": 0, "value": 0}, "group": "control_change"}, {"time": 123, "annotation": {"number": 32, "value": 2}, "group": "control_change"}]}, {"program": 61, "is_drum": false, "name": "BRASS", "notes": [{"time": 77520, "pitch": 74, "duration": 82, "velocity": 93}, {"time": 77520, "pitch": 86, "duration": 85, "velocity": 108}, {"time": 78000, "pitch": 74, "duration": 411, "velocity": 114}, {"time": 78000, "pitch": 86, "duration": 394, "velocity": 114}, {"time": 79440, "pitch": 73, "duration": 152, "velocity": 104}, {"time": 79440, "pitch": 85, "duration": 138, "velocity": 98}, {"time": 79920, "pitch": 69, "duration": 79, "velocity": 93}, {"time": 79920, "pitch": 81, "duration": 96, "velocity": 100}, {"time": 80160, "pitch": 71, "duration": 97, "velocity": 104}, {"time": 80160, "pitch": 83, "duration": 100, "velocity": 100}, {"time": 80400, "pitch": 73, "duration": 581, "velocity": 100}, {"time": 80400, "pitch": 85, "duration": 556, "velocity": 108}, {"time": 81120, "pitch": 71, "duration": 174, "velocity": 117}, {"time": 81120, "pitch": 83, "duration": 182, "velocity": 112}, {"time": 81840, "pitch": 74, "duration": 1142, "velocity": 100}, {"time": 81840, "pitch": 86, "duration": 1146, "velocity": 104}, {"time": 83280, "pitch": 74, "duration": 156, "velocity": 112}, {"time": 83280, "pitch": 86, "duration": 146, "velocity": 111}, {"time": 83760, "pitch": 71, "duration": 65, "velocity": 104}, {"time": 83760, "pitch": 83, "duration": 74, "velocity": 100}, {"time": 84000, "pitch": 74, "duration": 79, "velocity": 65}, {"time": 84000, "pitch": 86, "duration": 77, "velocity": 93}, {"time": 84240, "pitch": 76, "duration": 612, "velocity": 93}, {"time": 84240, "pitch": 88, "duration": 605, "velocity": 111}, {"time": 90960, "pitch": 74, "duration": 85, "velocity": 77}, {"time": 90960, "pitch": 86, "duration": 71, "velocity": 98}, {"time": 91200, "pitch": 71, "duration": 232, "velocity": 108}, {"time": 91200, "pitch": 83, "duration": 263, "velocity": 98}, {"time": 91680, "pitch": 74, "duration": 75, "velocity": 83}, {"time": 91680, "pitch": 86, "duration": 68, "velocity": 112}, {"time": 91920, "pitch": 76, "duration": 550, "velocity": 98}, {"time": 91920, "pitch": 88, "duration": 541, "velocity": 111}, {"time": 92640, "pitch": 74, "duration": 325, "velocity": 108}, {"time": 92640, "pitch": 86, "duration": 325, "velocity": 104}, {"time": 93360, "pitch": 74, "duration": 13, "velocity": 95}, {"time": 93360, "pitch": 86, "duration": 707, "velocity": 112}, {"time": 95280, "pitch": 73, "duration": 109, "velocity": 93}, {"time": 95280, "pitch": 85, "duration": 113, "velocity": 87}, {"time": 95520, "pitch": 73, "duration": 91, "velocity": 77}, {"time": 95520, "pitch": 85, "duration": 77, "velocity": 87}, {"time": 95760, "pitch": 67, "duration": 50, "velocity": 95}, {"time": 95760, "pitch": 69, "duration": 69, "velocity": 98}, {"time": 95760, "pitch": 79, "duration": 50, "velocity": 95}, {"time": 95760, "pitch": 81, "duration": 78, "velocity": 79}, {"time": 96000, "pitch": 71, "duration": 71, "velocity": 75}, {"time": 96000, "pitch": 83, "duration": 70, "velocity": 98}, {"time": 96240, "pitch": 73, "duration": 66, "velocity": 65}, {"time": 96240, "pitch": 85, "duration": 73, "velocity": 87}, {"time": 96480, "pitch": 71, "duration": 675, "velocity": 111}, {"time": 96480, "pitch": 83, "duration": 691, "velocity": 120}, {"time": 97200, "pitch": 74, "duration": 364, "velocity": 87}, {"time": 97200, "pitch": 86, "duration": 392, "velocity": 112}, {"time": 97680, "pitch": 71, "duration": 254, "velocity": 104}, {"time": 97680, "pitch": 83, "duration": 259, "velocity": 111}, {"time": 97920, "pitch": 74, "duration": 215, "velocity": 93}, {"time": 97920, "pitch": 86, "duration": 205, "velocity": 98}, {"time": 98160, "pitch": 78, "duration": 146, "velocity": 83}, {"time": 98160, "pitch": 90, "duration": 137, "velocity": 112}, {"time": 98400, "pitch": 79, "duration": 472, "velocity": 104}, {"time": 98400, "pitch": 91, "duration": 426, "velocity": 114}, {"time": 98880, "pitch": 78, "duration": 102, "velocity": 85}, {"time": 98880, "pitch": 90, "duration": 107, "velocity": 100}, {"time": 99120, "pitch": 76, "duration": 406, "velocity": 108}, {"time": 99120, "pitch": 88, "duration": 402, "velocity": 117}, {"time": 99600, "pitch": 69, "duration": 505, "velocity": 93}, {"time": 99600, "pitch": 81, "duration": 521, "velocity": 114}, {"time": 146640, "pitch": 74, "duration": 82, "velocity": 93}, {"time": 146640, "pitch": 86, "duration": 85, "velocity": 108}, {"time": 147120, "pitch": 74, "duration": 411, "velocity": 114}, {"time": 147120, "pitch": 86, "duration": 394, "velocity": 114}, {"time": 148560, "pitch": 73, "duration": 152, "velocity": 104}, {"time": 148560, "pitch": 85, "duration": 138, "velocity": 98}, {"time": 149040, "pitch": 69, "duration": 79, "velocity": 93}, {"time": 149040, "pitch": 81, "duration": 96, "velocity": 100}, {"time": 149280, "pitch": 71, "duration": 97, "velocity": 104}, {"time": 149280, "pitch": 83, "duration": 100, "velocity": 100}, {"time": 149520, "pitch": 73, "duration": 581, "velocity": 100}, {"time": 149520, "pitch": 85, "duration": 556, "velocity": 108}, {"time": 150240, "pitch": 71, "duration": 174, "velocity": 117}, {"time": 150240, "pitch": 83, "duration": 182, "velocity": 112}, {"time": 150960, "pitch": 74, "duration": 1142, "velocity": 100}, {"time": 150960, "pitch": 86, "duration": 1146, "velocity": 104}, {"time": 152400, "pitch": 74, "duration": 156, "velocity": 112}, {"time": 152400, "pitch": 86, "duration": 146, "velocity": 111}, {"time": 152880, "pitch": 71, "duration": 65, "velocity": 104}, {"time": 152880, "pitch": 83, "duration": 74, "velocity": 100}, {"time": 153120, "pitch": 74, "duration": 79, "velocity": 65}, {"time": 153120, "pitch": 86, "duration": 77, "velocity": 93}, {"time": 153360, "pitch": 76, "duration": 612, "velocity": 93}, {"time": 153360, "pitch": 88, "duration": 605, "velocity": 111}, {"time": 160080, "pitch": 74, "duration": 85, "velocity": 77}, {"time": 160080, "pitch": 86, "duration": 71, "velocity": 98}, {"time": 160320, "pitch": 71, "duration": 232, "velocity": 108}, {"time": 160320, "pitch": 83, "duration": 263, "velocity": 98}, {"time": 160800, "pitch": 74, "duration": 75, "velocity": 83}, {"time": 160800, "pitch": 86, "duration": 68, "velocity": 112}, {"time": 161040, "pitch": 76, "duration": 550, "velocity": 98}, {"time": 161040, "pitch": 88, "duration": 541, "velocity": 111}, {"time": 161760, "pitch": 74, "duration": 325, "velocity": 108}, {"time": 161760, "pitch": 86, "duration": 325, "velocity": 104}, {"time": 162480, "pitch": 74, "duration": 13, "velocity": 95}, {"time": 162480, "pitch": 86, "duration": 707, "velocity": 112}, {"time": 164400, "pitch": 73, "duration": 109, "velocity": 93}, {"time": 164400, "pitch": 85, "duration": 113, "velocity": 87}, {"time": 164640, "pitch": 73, "duration": 91, "velocity": 77}, {"time": 164640, "pitch": 85, "duration": 77, "velocity": 87}, {"time": 164880, "pitch": 67, "duration": 50, "velocity": 95}, {"time": 164880, "pitch": 69, "duration": 69, "velocity": 98}, {"time": 164880, "pitch": 79, "duration": 50, "velocity": 95}, {"time": 164880, "pitch": 81, "duration": 78, "velocity": 79}, {"time": 165120, "pitch": 71, "duration": 71, "velocity": 75}, {"time": 165120, "pitch": 83, "duration": 70, "velocity": 98}, {"time": 165360, "pitch": 73, "duration": 66, "velocity": 65}, {"time": 165360, "pitch": 85, "duration": 73, "velocity": 87}, {"time": 165600, "pitch": 71, "duration": 675, "velocity": 111}, {"time": 165600, "pitch": 83, "duration": 691, "velocity": 120}, {"time": 166320, "pitch": 74, "duration": 364, "velocity": 87}, {"time": 166320, "pitch": 86, "duration": 392, "velocity": 112}, {"time": 166800, "pitch": 71, "duration": 254, "velocity": 104}, {"time": 166800, "pitch": 83, "duration": 259, "velocity": 111}, {"time": 167040, "pitch": 74, "duration": 215, "velocity": 93}, {"time": 167040, "pitch": 86, "duration": 205, "velocity": 98}, {"time": 167280, "pitch": 78, "duration": 146, "velocity": 83}, {"time": 167280, "pitch": 90, "duration": 137, "velocity": 112}, {"time": 167520, "pitch": 79, "duration": 472, "velocity": 104}, {"time": 167520, "pitch": 91, "duration": 426, "velocity": 114}, {"time": 168000, "pitch": 78, "duration": 102, "velocity": 85}, {"time": 168000, "pitch": 90, "duration": 107, "velocity": 100}, {"time": 168240, "pitch": 79, "duration": 406, "velocity": 108}, {"time": 168240, "pitch": 91, "duration": 402, "velocity": 117}, {"time": 168720, "pitch": 81, "duration": 505, "velocity": 93}, {"time": 168720, "pitch": 93, "duration": 521, "velocity": 114}, {"time": 177360, "pitch": 74, "duration": 82, "velocity": 93}, {"time": 177360, "pitch": 86, "duration": 85, "velocity": 108}, {"time": 177840, "pitch": 74, "duration": 411, "velocity": 114}, {"time": 177840, "pitch": 86, "duration": 394, "velocity": 114}, {"time": 179280, "pitch": 73, "duration": 152, "velocity": 104}, {"time": 179280, "pitch": 85, "duration": 138, "velocity": 98}, {"time": 179760, "pitch": 69, "duration": 79, "velocity": 93}, {"time": 179760, "pitch": 81, "duration": 96, "velocity": 100}, {"time": 180000, "pitch": 71, "duration": 97, "velocity": 104}, {"time": 180000, "pitch": 83, "duration": 100, "velocity": 100}, {"time": 180240, "pitch": 73, "duration": 581, "velocity": 100}, {"time": 180240, "pitch": 85, "duration": 556, "velocity": 108}, {"time": 180960, "pitch": 71, "duration": 174, "velocity": 117}, {"time": 180960, "pitch": 83, "duration": 182, "velocity": 112}, {"time": 181680, "pitch": 74, "duration": 1142, "velocity": 100}, {"time": 181680, "pitch": 86, "duration": 1146, "velocity": 104}, {"time": 183120, "pitch": 74, "duration": 156, "velocity": 112}, {"time": 183120, "pitch": 86, "duration": 146, "velocity": 111}, {"time": 183600, "pitch": 71, "duration": 65, "velocity": 104}, {"time": 183600, "pitch": 83, "duration": 74, "velocity": 100}, {"time": 183840, "pitch": 74, "duration": 79, "velocity": 65}, {"time": 183840, "pitch": 86, "duration": 77, "velocity": 93}, {"time": 184080, "pitch": 76, "duration": 612, "velocity": 93}, {"time": 184080, "pitch": 88, "duration": 605, "velocity": 111}, {"time": 190800, "pitch": 74, "duration": 85, "velocity": 77}, {"time": 190800, "pitch": 86, "duration": 71, "velocity": 98}, {"time": 191040, "pitch": 71, "duration": 232, "velocity": 108}, {"time": 191040, "pitch": 83, "duration": 263, "velocity": 98}, {"time": 191520, "pitch": 74, "duration": 75, "velocity": 83}, {"time": 191520, "pitch": 86, "duration": 68, "velocity": 112}, {"time": 191760, "pitch": 76, "duration": 550, "velocity": 98}, {"time": 191760, "pitch": 88, "duration": 541, "velocity": 111}, {"time": 192480, "pitch": 74, "duration": 325, "velocity": 108}, {"time": 192480, "pitch": 86, "duration": 325, "velocity": 104}, {"time": 193200, "pitch": 74, "duration": 13, "velocity": 95}, {"time": 193200, "pitch": 86, "duration": 707, "velocity": 112}, {"time": 195120, "pitch": 73, "duration": 109, "velocity": 93}, {"time": 195120, "pitch": 85, "duration": 113, "velocity": 87}, {"time": 195360, "pitch": 73, "duration": 91, "velocity": 77}, {"time": 195360, "pitch": 85, "duration": 77, "velocity": 87}, {"time": 195600, "pitch": 67, "duration": 50, "velocity": 95}, {"time": 195600, "pitch": 69, "duration": 69, "velocity": 98}, {"time": 195600, "pitch": 79, "duration": 50, "velocity": 95}, {"time": 195600, "pitch": 81, "duration": 78, "velocity": 79}, {"time": 195840, "pitch": 71, "duration": 71, "velocity": 75}, {"time": 195840, "pitch": 83, "duration": 70, "velocity": 98}, {"time": 196080, "pitch": 73, "duration": 66, "velocity": 65}, {"time": 196080, "pitch": 85, "duration": 73, "velocity": 87}, {"time": 196320, "pitch": 71, "duration": 675, "velocity": 111}, {"time": 196320, "pitch": 83, "duration": 691, "velocity": 120}, {"time": 197040, "pitch": 74, "duration": 364, "velocity": 87}, {"time": 197040, "pitch": 86, "duration": 392, "velocity": 112}, {"time": 197520, "pitch": 71, "duration": 254, "velocity": 104}, {"time": 197520, "pitch": 83, "duration": 259, "velocity": 111}, {"time": 197760, "pitch": 74, "duration": 215, "velocity": 93}, {"time": 197760, "pitch": 86, "duration": 205, "velocity": 98}, {"time": 198000, "pitch": 78, "duration": 146, "velocity": 83}, {"time": 198000, "pitch": 90, "duration": 137, "velocity": 112}, {"time": 198240, "pitch": 79, "duration": 472, "velocity": 104}, {"time": 198240, "pitch": 91, "duration": 426, "velocity": 114}, {"time": 198720, "pitch": 78, "duration": 102, "velocity": 85}, {"time": 198720, "pitch": 90, "duration": 107, "velocity": 100}, {"time": 198960, "pitch": 76, "duration": 406, "velocity": 108}, {"time": 198960, "pitch": 88, "duration": 402, "velocity": 117}, {"time": 199440, "pitch": 69, "duration": 505, "velocity": 93}, {"time": 199440, "pitch": 81, "duration": 521, "velocity": 114}], "annotations": [{"time": 148, "annotation": {"number": 7, "value": 95}, "group": "control_change"}, {"time": 172, "annotation": {"number": 11, "value": 120}, "group": "control_change"}, {"time": 197, "annotation": {"number": 10, "value": 64}, "group": "control_change"}, {"time": 222, "annotation": {"number": 91, "value": 80}, "group": "control_change"}, {"time": 246, "annotation": {"number": 93, "value": 30}, "group": "control_change"}, {"time": 271, "annotation": {"number": 94, "value": 0}, "group": "control_change"}, {"time": 295, "annotation": {"number": 101, "value": 0}, "group": "control_change"}, {"time": 320, "annotation": {"number": 100, "value": 0}, "group": "control_change"}, {"time": 345, "annotation": {"number": 6, "value": 12}, "group": "control_change"}, {"time": 369, "annotation": {"number": 101, "value": 127}, "group": "control_change"}, {"time": 394, "annotation": {"number": 100, "value": 127}, "group": "control_change"}]}, {"program": 0, "is_drum": false, "name": "PIZZ", "annotations": [{"time": 123, "annotation": {"number": 0, "value": 0}, "group": "control_change"}, {"time": 123, "annotation": {"number": 32, "value": 2}, "group": "control_change"}]}, {"program": 45, "is_drum": false, "name": "PIZZ", "notes": [{"time": 480, "pitch": 50, "duration": 104, "velocity": 111}, {"time": 720, "pitch": 57, "duration": 112, "velocity": 98}, {"time": 960, "pitch": 62, "duration": 107, "velocity": 111}, {"time": 1200, "pitch": 69, "duration": 109, "velocity": 112}, {"time": 1680, "pitch": 69, "duration": 138, "velocity": 117}, {"time": 2760, "pitch": 48, "duration": 194, "velocity": 114}, {"time": 2880, "pitch": 55, "duration": 119, "velocity": 95}, {"time": 3120, "pitch": 60, "duration": 110, "velocity": 121}, {"time": 3360, "pitch": 67, "duration": 115, "velocity": 111}, {"time": 3600, "pitch": 72, "duration": 92, "velocity": 114}, {"time": 4560, "pitch": 50, "duration": 216, "velocity": 98}, {"time": 4800, "pitch": 57, "duration": 145, "velocity": 108}, {"time": 5040, "pitch": 62, "duration": 119, "velocity": 108}, {"time": 5520, "pitch": 69, "duration": 142, "velocity": 112}, {"time": 6240, "pitch": 48, "duration": 167, "velocity": 104}, {"time": 6480, "pitch": 60, "duration": 114, "velocity": 120}, {"time": 6720, "pitch": 67, "duration": 115, "velocity": 100}, {"time": 6960, "pitch": 72, "duration": 97, "velocity": 117}, {"time": 7440, "pitch": 76, "duration": 90, "velocity": 114}, {"time": 8160, "pitch": 50, "duration": 225, "velocity": 98}, {"time": 8400, "pitch": 57, "duration": 128, "velocity": 100}, {"time": 8640, "pitch": 62, "duration": 105, "velocity": 100}, {"time": 8880, "pitch": 69, "duration": 112, "velocity": 111}, {"time": 9360, "pitch": 69, "duration": 101, "velocity": 112}, {"time": 10080, "pitch": 48, "duration": 190, "velocity": 112}, {"time": 10320, "pitch": 55, "duration": 129, "velocity": 104}, {"time": 10560, "pitch": 64, "duration": 103, "velocity": 108}, {"time": 10800, "pitch": 67, "duration": 98, "velocity": 86}, {"time": 11280, "pitch": 72, "duration": 101, "velocity": 122}, {"time": 12000, "pitch": 50, "duration": 197, "velocity": 108}, {"time": 12240, "pitch": 57, "duration": 128, "velocity": 104}, {"time": 12480, "pitch": 62, "duration": 108, "velocity": 100}, {"time": 12720, "pitch": 69, "duration": 122, "velocity": 108}, {"time": 13200, "pitch": 74, "duration": 88, "velocity": 117}, {"time": 13920, "pitch": 48, "duration": 167, "velocity": 111}, {"time": 14160, "pitch": 55, "duration": 126, "velocity": 93}, {"time": 14400, "pitch": 64, "duration": 113, "velocity": 114}, {"time": 14640, "pitch": 67, "duration": 101, "velocity": 104}, {"time": 15120, "pitch": 72, "duration": 90, "velocity": 120}, {"time": 15360, "pitch": 76, "duration": 97, "velocity": 104}], "annotations": [{"time": 148, "annotation": {"number": 7, "value": 77}, "group": "control_change"}, {"time": 172, "annotation": {"number": 11, "value": 120}, "group": "control_change"}, {"time": 197, "annotation": {"number": 10, "value": 2}, "group": "control_change"}, {"time": 222, "annotation": {"number": 91, "value": 73}, "group": "control_change"}, {"time": 246, "annotation": {"number": 93, "value": 0}, "group": "control_change"}, {"time": 271, "annotation": {"number": 94, "value": 0}, "group": "control_change"}, {"time": 295, "annotation": {"number": 101, "value": 0}, "group": "control_change"}, {"time": 320, "annotation": {"number": 100, "value": 0}, "group": "control_change"}, {"time": 345, "annotation": {"number": 6, "value": 12}, "group": "control_change"}, {"time": 443, "annotation": {"number": 101, "value": 127}, "group": "control_change"}, {"time": 455, "annotation": {"number": 100, "value": 127}, "group": "control_change"}]}, {"program": 0, "is_drum": false, "name": "PAD", "annotations": [{"time": 123, "annotation": {"number": 0, "value": 0}, "group": "control_change"}, {"time": 123, "annotation": {"number": 32, "value": 2}, "group": "control_change"}]}, {"program": 89, "is_drum": false, "name": "PAD", "notes": [{"time": 480, "pitch": 50, "duration": 1920, "velocity": 110}, {"time": 480, "pitch": 57, "duration": 1920, "velocity": 110}, {"time": 480, "pitch": 62, "duration": 1920, "velocity": 110}, {"time": 480, "pitch": 66, "duration": 1920, "velocity": 110}, {"time": 2400, "pitch": 50, "duration": 1920, "velocity": 110}, {"time": 2400, "pitch": 60, "duration": 1920, "velocity": 110}, {"time": 2400, "pitch": 64, "duration": 1920, "velocity": 110}, {"time": 2400, "pitch": 67, "duration": 1920, "velocity": 110}, {"time": 4320, "pitch": 50, "duration": 1920, "velocity": 110}, {"time": 4320, "pitch": 57, "duration": 1920, "velocity": 110}, {"time": 4320, "pitch": 62, "duration": 1920, "velocity": 110}, {"time": 4320, "pitch": 66, "duration": 1920, "velocity": 110}, {"time": 6240, "pitch": 50, "duration": 1920, "velocity": 110}, {"time": 6240, "pitch": 55, "duration": 1920, "velocity": 110}, {"time": 6240, "pitch": 60, "duration": 1920, "velocity": 110}, {"time": 6240, "pitch": 64, "duration": 1920, "velocity": 110}, {"time": 8160, "pitch": 50, "duration": 1920, "velocity": 110}, {"time": 8160, "pitch": 57, "duration": 1920, "velocity": 110}, {"time": 8160, "pitch": 62, "duration": 1920, "velocity": 110}, {"time": 8160, "pitch": 66, "duration": 1920, "velocity": 110}, {"time": 10080, "pitch": 50, "duration": 1920, "velocity": 110}, {"time": 10080, "pitch": 60, "duration": 1920, "velocity": 110}, {"time": 10080, "pitch": 64, "duration": 1920, "velocity": 110}, {"time": 10080, "pitch": 67, "duration": 1920, "velocity": 110}, {"time": 12000, "pitch": 50, "duration": 1920, "velocity": 110}, {"time": 12000, "pitch": 57, "duration": 1920, "velocity": 110}, {"time": 12000, "pitch": 62, "duration": 1920, "velocity": 110}, {"time": 12000, "pitch": 66, "duration": 1920, "velocity": 110}, {"time": 13920, "pitch": 50, "duration": 1920, "velocity": 110}, {"time": 13920, "pitch": 55, "duration": 1920, "velocity": 110}, {"time": 13920, "pitch": 60, "duration": 1920, "velocity": 110}, {"time": 13920, "pitch": 64, "duration": 1920, "velocity": 110}, {"time": 15840, "pitch": 52, "duration": 1920, "velocity": 110}, {"time": 15840, "pitch": 59, "duration": 1920, "velocity": 110}, {"time": 15840, "pitch": 62, "duration": 1920, "velocity": 110}, {"time": 15840, "pitch": 67, "duration": 1920, "velocity": 110}, {"time": 17760, "pitch": 52, "duration": 1920, "velocity": 110}, {"time": 17760, "pitch": 62, "duration": 1920, "velocity": 110}, {"time": 17760, "pitch": 67, "duration": 1920, "velocity": 110}, {"time": 17760, "pitch": 71, "duration": 1920, "velocity": 110}, {"time": 19680, "pitch": 57, "duration": 1920, "velocity": 110}, {"time": 19680, "pitch": 62, "duration": 1920, "velocity": 110}, {"time": 19680, "pitch": 67, "duration": 1920, "velocity": 110}, {"time": 19680, "pitch": 71, "duration": 1920, "velocity": 110}, {"time": 21600, "pitch": 57, "duration": 1920, "velocity": 110}, {"time": 21600, "pitch": 61, "duration": 1920, "velocity": 110}, {"time": 21600, "pitch": 64, "duration": 1920, "velocity": 110}, {"time": 21600, "pitch": 69, "duration": 1920, "velocity": 110}, {"time": 23520, "pitch": 57, "duration": 1920, "velocity": 110}, {"time": 23520, "pitch": 62, "duration": 1920, "velocity": 110}, {"time": 23520, "pitch": 66, "duration": 1920, "velocity": 110}, {"time": 25440, "pitch": 57, "duration": 1920, "velocity": 110}, {"time": 25440, "pitch": 61, "duration": 1920, "velocity": 110}, {"time": 25440, "pitch": 64, "duration": 1920, "velocity": 110}, {"time": 27360, "pitch": 59, "duration": 1920, "velocity": 110}, {"time": 27360, "pitch": 62, "duration": 1920, "velocity": 110}, {"time": 27360, "pitch": 66, "duration": 1920, "velocity": 110}, {"time": 29280, "pitch": 57, "duration": 1920, "velocity": 110}, {"time": 29280, "pitch": 62, "duration": 1920, "velocity": 110}, {"time": 29280, "pitch": 66, "duration": 1920, "velocity": 110}, {"time": 31200, "pitch": 59, "duration": 1920, "velocity": 110}, {"time": 31200, "pitch": 62, "duration": 1920, "velocity": 110}, {"time": 31200, "pitch": 67, "duration": 1920, "velocity": 110}, {"time": 33120, "pitch": 57, "duration": 1920, "velocity": 110}, {"time": 33120, "pitch": 62, "duration": 1920, "velocity": 110}, {"time": 33120, "pitch": 66, "duration": 1920, "velocity": 110}, {"time": 35040, "pitch": 59, "duration": 1920, "velocity": 110}, {"time": 35040, "pitch": 62, "duration": 1920, "velocity": 110}, {"time": 35040, "pitch": 67, "duration": 1920, "velocity": 110}, {"time": 36960, "pitch": 57, "duration": 1920, "velocity": 110}, {"time": 36960, "pitch": 61, "duration": 1920, "velocity": 110}, {"time": 36960, "pitch": 64, "duration": 1920, "velocity": 110}, {"time": 38880, "pitch": 57, "duration": 1920, "velocity": 110}, {"time": 38880, "pitch": 62, "duration": 1920, "velocity": 110}, {"time": 38880, "pitch": 66, "duration": 1920, "velocity": 110}, {"time": 40800, "pitch": 57, "duration": 1920, "velocity": 110}, {"time": 40800, "pitch": 61, "duration": 1920, "velocity": 110}, {"time": 40800, "pitch": 64, "duration": 1920, "velocity": 110}, {"time": 42720, "pitch": 59, "duration": 1920, "velocity": 110}, {"time": 42720, "pitch": 62, "duration": 1920, "velocity": 110}, {"time": 42720, "pitch": 66, "duration": 1920, "velocity": 110}, {"time": 44640, "pitch": 57, "duration": 1920, "velocity": 110}, {"time": 44640, "pitch": 62, "duration": 1920, "velocity": 110}, {"time": 44640, "pitch": 66, "duration": 1920, "velocity": 110}, {"time": 46560, "pitch": 59, "duration": 1920, "velocity": 110}, {"time": 46560, "pitch": 62, "duration": 1920, "velocity": 110}, {"time": 46560, "pitch": 67, "duration": 1920, "velocity": 110}, {"time": 48480, "pitch": 57, "duration": 1920, "velocity": 110}, {"time": 48480, "pitch": 62, "duration": 1920, "velocity": 110}, {"time": 48480, "pitch": 66, "duration": 1920, "velocity": 110}, {"time": 50400, "pitch": 59, "duration": 1920, "velocity": 110}, {"time": 50400, "pitch": 62, "duration": 1920, "velocity": 110}, {"time": 50400, "pitch": 67, "duration": 1920, "velocity": 110}, {"time": 52320, "pitch": 57, "duration": 1920, "velocity": 110}, {"time": 52320, "pitch": 61, "duration": 1920, "velocity": 110}, {"time": 52320, "pitch": 64, "duration": 1920, "velocity": 110}, {"time": 54240, "pitch": 57, "duration": 1920, "velocity": 110}, {"time": 54240, "pitch": 61, "duration": 1920, "velocity": 110}, {"time": 54240, "pitch": 64, "duration": 1920, "velocity": 110}, {"time": 56160, "pitch": 59, "duration": 1920, "velocity": 110}, {"time": 56160, "pitch": 62, "duration": 1920, "velocity": 110}, {"time": 56160, "pitch": 66, "duration": 1920, "velocity": 110}, {"time": 58080, "pitch": 57, "duration": 1920, "velocity": 110}, {"time": 58080, "pitch": 61, "duration": 1920, "velocity": 110}, {"time": 58080, "pitch": 64, "duration": 1920, "velocity": 110}, {"time": 60000, "pitch": 59, "duration": 1680, "velocity": 110}, {"time": 60000, "pitch": 62, "duration": 1680, "velocity": 110}, {"time": 60000, "pitch": 66, "duration": 1680, "velocity": 110}, {"time": 61680, "pitch": 59, "duration": 1920, "velocity": 110}, {"time": 61680, "pitch": 62, "duration": 1920, "velocity": 110}, {"time": 61680, "pitch": 67, "duration": 1920, "velocity": 110}, {"time": 63600, "pitch": 59, "duration": 1920, "velocity": 110}, {"time": 63600, "pitch": 62, "duration": 1920, "velocity": 110}, {"time": 63600, "pitch": 67, "duration": 1920, "velocity": 110}, {"time": 65520, "pitch": 59, "duration": 1920, "velocity": 110}, {"time": 65520, "pitch": 62, "duration": 1920, "velocity": 110}, {"time": 65520, "pitch": 67, "duration": 1920, "velocity": 110}, {"time": 67440, "pitch": 61, "duration": 1920, "velocity": 110}, {"time": 67440, "pitch": 64, "duration": 1920, "velocity": 110}, {"time": 67440, "pitch": 69, "duration": 1920, "velocity": 110}, {"time": 69600, "pitch": 57, "duration": 1920, "velocity": 110}, {"time": 69600, "pitch": 62, "duration": 1920, "velocity": 110}, {"time": 69600, "pitch": 66, "duration": 1920, "velocity": 110}, {"time": 71520, "pitch": 57, "duration": 1920, "velocity": 110}, {"time": 71520, "pitch": 61, "duration": 1920, "velocity": 110}, {"time": 71520, "pitch": 64, "duration": 1920, "velocity": 110}, {"time": 73440, "pitch": 59, "duration": 1920, "velocity": 110}, {"time": 73440, "pitch": 62, "duration": 1920, "velocity": 110}, {"time": 73440, "pitch": 67, "duration": 1920, "velocity": 110}, {"time": 75360, "pitch": 57, "duration": 1920, "velocity": 110}, {"time": 75360, "pitch": 61, "duration": 1920, "velocity": 110}, {"time": 75360, "pitch": 64, "duration": 1920, "velocity": 110}, {"time": 77280, "pitch": 57, "duration": 1920, "velocity": 110}, {"time": 77280, "pitch": 62, "duration": 1920, "velocity": 110}, {"time": 77280, "pitch": 66, "duration": 1920, "velocity": 110}, {"time": 79200, "pitch": 57, "duration": 1920, "velocity": 110}, {"time": 79200, "pitch": 61, "duration": 1920, "velocity": 110}, {"time": 79200, "pitch": 64, "duration": 1920, "velocity": 110}, {"time": 81120, "pitch": 59, "duration": 1920, "velocity": 110}, {"time": 81120, "pitch": 62, "duration": 1920, "velocity": 110}, {"time": 81120, "pitch": 67, "duration": 1920, "velocity": 110}, {"time": 83040, "pitch": 57, "duration": 1920, "velocity": 110}, {"time": 83040, "pitch": 61, "duration": 1920, "velocity": 110}, {"time": 83040, "pitch": 64, "duration": 1920, "velocity": 110}, {"time": 84960, "pitch": 57, "duration": 1920, "velocity": 110}, {"time": 84960, "pitch": 62, "duration": 1920, "velocity": 110}, {"time": 84960, "pitch": 66, "duration": 1920, "velocity": 110}, {"time": 86880, "pitch": 57, "duration": 1920, "velocity": 110}, {"time": 86880, "pitch": 61, "duration": 1920, "velocity": 110}, {"time": 86880, "pitch": 64, "duration": 1920, "velocity": 110}, {"time": 88800, "pitch": 59, "duration": 1920, "velocity": 110}, {"time": 88800, "pitch": 62, "duration": 1920, "velocity": 110}, {"time": 88800, "pitch": 67, "duration": 1920, "velocity": 110}, {"time": 90720, "pitch": 57, "duration": 1920, "velocity": 110}, {"time": 90720, "pitch": 61, "duration": 1920, "velocity": 110}, {"time": 90720, "pitch": 64, "duration": 1920, "velocity": 110}, {"time": 92640, "pitch": 57, "duration": 1920, "velocity": 110}, {"time": 92640, "pitch": 62, "duration": 1920, "velocity": 110}, {"time": 92640, "pitch": 66, "duration": 1920, "velocity": 110}, {"time": 94560, "pitch": 57, "duration": 1920, "velocity": 110}, {"time": 94560, "pitch": 61, "duration": 1920, "velocity": 110}, {"time": 94560, "pitch": 64, "duration": 1920, "velocity": 110}, {"time": 96480, "pitch": 59, "duration": 1920, "velocity": 110}, {"time": 96480, "pitch": 62, "duration": 1920, "velocity": 110}, {"time": 96480, "pitch": 67, "duration": 1920, "velocity": 110}, {"time": 98400, "pitch": 57, "duration": 1920, "velocity": 110}, {"time": 98400, "pitch": 61, "duration": 1920, "velocity": 110}, {"time": 98400, "pitch": 64, "duration": 1920, "velocity": 110}, {"time": 100320, "pitch": 59, "duration": 1920, "velocity": 110}, {"time": 100320, "pitch": 62, "duration": 1920, "velocity": 110}, {"time": 100320, "pitch": 67, "duration": 1920, "velocity": 110}, {"time": 102240, "pitch": 57, "duration": 1680, "velocity": 110}, {"time": 102240, "pitch": 61, "duration": 1680, "velocity": 110}, {"time": 102240, "pitch": 64, "duration": 1680, "velocity": 110}, {"time": 103920, "pitch": 57, "duration": 2160, "velocity": 110}, {"time": 103920, "pitch": 62, "duration": 2160, "velocity": 110}, {"time": 103920, "pitch": 66, "duration": 2160, "velocity": 110}, {"time": 106080, "pitch": 57, "duration": 1920, "velocity": 110}, {"time": 106080, "pitch": 62, "duration": 1920, "velocity": 110}, {"time": 106080, "pitch": 66, "duration": 1920, "velocity": 110}, {"time": 108000, "pitch": 57, "duration": 1920, "velocity": 110}, {"time": 108000, "pitch": 62, "duration": 1920, "velocity": 110}, {"time": 108000, "pitch": 66, "duration": 1920, "velocity": 110}, {"time": 109920, "pitch": 57, "duration": 1920, "velocity": 110}, {"time": 109920, "pitch": 61, "duration": 1920, "velocity": 110}, {"time": 109920, "pitch": 64, "duration": 1920, "velocity": 110}, {"time": 111840, "pitch": 59, "duration": 1920, "velocity": 110}, {"time": 111840, "pitch": 62, "duration": 1920, "velocity": 110}, {"time": 111840, "pitch": 66, "duration": 1920, "velocity": 110}, {"time": 113760, "pitch": 57, "duration": 1920, "velocity": 110}, {"time": 113760, "pitch": 62, "duration": 1920, "velocity": 110}, {"time": 113760, "pitch": 66, "duration": 1920, "velocity": 110}, {"time": 115680, "pitch": 59, "duration": 1920, "velocity": 110}, {"time": 115680, "pitch": 62, "duration": 1920, "velocity": 110}, {"time": 115680, "pitch": 67, "duration": 1920, "velocity": 110}, {"time": 117600, "pitch": 57, "duration": 1920, "velocity": 110}, {"time": 117600, "pitch": 62, "duration": 1920, "velocity": 110}, {"time": 117600, "pitch": 66, "duration": 1920, "velocity": 110}, {"time": 119520, "pitch": 59, "duration": 1920, "velocity": 110}, {"time": 119520, "pitch": 62, "duration": 1920, "velocity": 110}, {"time": 119520, "pitch": 67, "duration": 1920, "velocity": 110}, {"time": 121440, "pitch": 57, "duration": 1920, "velocity": 110}, {"time": 121440, "pitch": 61, "duration": 1920, "velocity": 110}, {"time": 121440, "pitch": 64, "duration": 1920, "velocity": 110}, {"time": 123360, "pitch": 57, "duration": 1920, "velocity": 110}, {"time": 123360, "pitch": 61, "duration": 1920, "velocity": 110}, {"time": 123360, "pitch": 64, "duration": 1920, "velocity": 110}, {"time": 125280, "pitch": 59, "duration": 1920, "velocity": 110}, {"time": 125280, "pitch": 62, "duration": 1920, "velocity": 110}, {"time": 125280, "pitch": 66, "duration": 1920, "velocity": 110}, {"time": 127200, "pitch": 57, "duration": 1920, "velocity": 110}, {"time": 127200, "pitch": 61, "duration": 1920, "velocity": 110}, {"time": 127200, "pitch": 64, "duration": 1920, "velocity": 110}, {"time": 129120, "pitch": 59, "duration": 1680, "velocity": 110}, {"time": 129120, "pitch": 62, "duration": 1680, "velocity": 110}, {"time": 129120, "pitch": 66, "duration": 1680, "velocity": 110}, {"time": 130800, "pitch": 59, "duration": 1920, "velocity": 110}, {"time": 130800, "pitch": 62, "duration": 1920, "velocity": 110}, {"time": 130800, "pitch": 67, "duration": 1920, "velocity": 110}, {"time": 132720, "pitch": 59, "duration": 1920, "velocity": 110}, {"time": 132720, "pitch": 62, "duration": 1920, "velocity": 110}, {"time": 132720, "pitch": 67, "duration": 1920, "velocity": 110}, {"time": 134640, "pitch": 59, "duration": 1920, "velocity": 110}, {"time": 134640, "pitch": 62, "duration": 1920, "velocity": 110}, {"time": 134640, "pitch": 67, "duration": 1920, "velocity": 110}, {"time": 136560, "pitch": 61, "duration": 1920, "velocity": 110}, {"time": 136560, "pitch": 64, "duration": 1920, "velocity": 110}, {"time": 136560, "pitch": 69, "duration": 1920, "velocity": 110}, {"time": 138720, "pitch": 57, "duration": 1920, "velocity": 110}, {"time": 138720, "pitch": 62, "duration": 1920, "velocity": 110}, {"time": 138720, "pitch": 66, "duration": 1920, "velocity": 110}, {"time": 140640, "pitch": 57, "duration": 1920, "velocity": 110}, {"time": 140640, "pitch": 61, "duration": 1920, "velocity": 110}, {"time": 140640, "pitch": 64, "duration": 1920, "velocity": 110}, {"time": 142560, "pitch": 59, "duration": 1920, "velocity": 110}, {"time": 142560, "pitch": 62, "duration": 1920, "velocity": 110}, {"time": 142560, "pitch": 67, "duration": 1920, "velocity": 110}, {"time": 144480, "pitch": 57, "duration": 1920, "velocity": 110}, {"time": 144480, "pitch": 61, "duration": 1920, "velocity": 110}, {"time": 144480, "pitch": 64, "duration": 1920, "velocity": 110}, {"time": 146400, "pitch": 57, "duration": 1920, "velocity": 110}, {"time": 146400, "pitch": 62, "duration": 1920, "velocity": 110}, {"time": 146400, "pitch": 66, "duration": 1920, "velocity": 110}, {"time": 148320, "pitch": 57, "duration": 1920, "velocity": 110}, {"time": 148320, "pitch": 61, "duration": 1920, "velocity": 110}, {"time": 148320, "pitch": 64, "duration": 1920, "velocity": 110}, {"time": 150240, "pitch": 59, "duration": 1920, "velocity": 110}, {"time": 150240, "pitch": 62, "duration": 1920, "velocity": 110}, {"time": 150240, "pitch": 67, "duration": 1920, "velocity": 110}, {"time": 152160, "pitch": 57, "duration": 1920, "velocity": 110}, {"time": 152160, "pitch": 61, "duration": 1920, "velocity": 110}, {"time": 152160, "pitch": 64, "duration": 1920, "velocity": 110}, {"time": 154080, "pitch": 57, "duration": 1920, "velocity": 110}, {"time": 154080, "pitch": 62, "duration": 1920, "velocity": 110}, {"time": 154080, "pitch": 66, "duration": 1920, "velocity": 110}, {"time": 156000, "pitch": 57, "duration": 1920, "velocity": 110}, {"time": 156000, "pitch": 61, "duration": 1920, "velocity": 110}, {"time": 156000, "pitch": 64, "duration": 1920, "velocity": 110}, {"time": 157920, "pitch": 59, "duration": 1920, "velocity": 110}, {"time": 157920, "pitch": 62, "duration": 1920, "velocity": 110}, {"time": 157920, "pitch": 67, "duration": 1920, "velocity": 110}, {"time": 159840, "pitch": 57, "duration": 1920, "velocity": 110}, {"time": 159840, "pitch": 61, "duration": 1920, "velocity": 110}, {"time": 159840, "pitch": 64, "duration": 1920, "velocity": 110}, {"time": 161760, "pitch": 57, "duration": 1920, "velocity": 110}, {"time": 161760, "pitch": 62, "duration": 1920, "velocity": 110}, {"time": 161760, "pitch": 66, "duration": 1920, "velocity": 110}, {"time": 163680, "pitch": 57, "duration": 1920, "velocity": 110}, {"time": 163680, "pitch": 61, "duration": 1920, "velocity": 110}, {"time": 163680, "pitch": 64, "duration": 1920, "velocity": 110}, {"time": 165600, "pitch": 59, "duration": 1920, "velocity": 110}, {"time": 165600, "pitch": 62, "duration": 1920, "velocity": 110}, {"time": 165600, "pitch": 67, "duration": 1920, "velocity": 110}, {"time": 167520, "pitch": 57, "duration": 1920, "velocity": 110}, {"time": 167520, "pitch": 61, "duration": 1920, "velocity": 110}, {"time": 167520, "pitch": 64, "duration": 1920, "velocity": 110}, {"time": 169440, "pitch": 57, "duration": 1920, "velocity": 110}, {"time": 169440, "pitch": 62, "duration": 1920, "velocity": 110}, {"time": 169440, "pitch": 66, "duration": 1920, "velocity": 110}, {"time": 171360, "pitch": 57, "duration": 1920, "velocity": 110}, {"time": 171360, "pitch": 61, "duration": 1920, "velocity": 110}, {"time": 171360, "pitch": 64, "duration": 1920, "velocity": 110}, {"time": 173280, "pitch": 59, "duration": 1920, "velocity": 110}, {"time": 173280, "pitch": 62, "duration": 1920, "velocity": 110}, {"time": 173280, "pitch": 67, "duration": 1920, "velocity": 110}, {"time": 175200, "pitch": 57, "duration": 1920, "velocity": 110}, {"time": 175200, "pitch": 61, "duration": 1920, "velocity": 110}, {"time": 175200, "pitch": 64, "duration": 1920, "velocity": 110}, {"time": 177120, "pitch": 57, "duration": 1920, "velocity": 110}, {"time": 177120, "pitch": 62, "duration": 1920, "velocity": 110}, {"time": 177120, "pitch": 66, "duration": 1920, "velocity": 110}, {"time": 179040, "pitch": 57, "duration": 1920, "velocity": 110}, {"time": 179040, "pitch": 61, "duration": 1920, "velocity": 110}, {"time": 179040, "pitch": 64, "duration": 1920, "velocity": 110}, {"time": 180960, "pitch": 59, "duration": 1920, "velocity": 110}, {"time": 180960, "pitch": 62, "duration": 1920, "velocity": 110}, {"time": 180960, "pitch": 67, "duration": 1920, "velocity": 110}, {"time": 182880, "pitch": 57, "duration": 1920, "velocity": 110}, {"time": 182880, "pitch": 61, "duration": 1920, "velocity": 110}, {"time": 182880, "pitch": 64, "duration": 1920, "velocity": 110}, {"time": 184800, "pitch": 57, "duration": 1920, "velocity": 110}, {"time": 184800, "pitch": 62, "duration": 1920, "velocity": 110}, {"time": 184800, "pitch": 66, "duration": 1920, "velocity": 110}, {"time": 186720, "pitch": 57, "duration": 1920, "velocity": 110}, {"time": 186720, "pitch": 61, "duration": 1920, "velocity": 110}, {"time": 186720, "pitch": 64, "duration": 1920, "velocity": 110}, {"time": 188640, "pitch": 59, "duration": 1920, "velocity": 110}, {"time": 188640, "pitch": 62, "duration": 1920, "velocity": 110}, {"time": 188640, "pitch": 67, "duration": 1920, "velocity": 110}, {"time": 190560, "pitch": 57, "duration": 1920, "velocity": 110}, {"time": 190560, "pitch": 61, "duration": 1920, "velocity": 110}, {"time": 190560, "pitch": 64, "duration": 1920, "velocity": 110}, {"time": 192480, "pitch": 57, "duration": 1920, "velocity": 110}, {"time": 192480, "pitch": 62, "duration": 1920, "velocity": 110}, {"time": 192480, "pitch": 66, "duration": 1920, "velocity": 110}, {"time": 194400, "pitch": 57, "duration": 1920, "velocity": 110}, {"time": 194400, "pitch": 61, "duration": 1920, "velocity": 110}, {"time": 194400, "pitch": 64, "duration": 1920, "velocity": 110}, {"time": 196320, "pitch": 59, "duration": 1920, "velocity": 110}, {"time": 196320, "pitch": 62, "duration": 1920, "velocity": 110}, {"time": 196320, "pitch": 67, "duration": 1920, "velocity": 110}, {"time": 198240, "pitch": 57, "duration": 1920, "velocity": 110}, {"time": 198240, "pitch": 61, "duration": 1920, "velocity": 110}, {"time": 198240, "pitch": 64, "duration": 1920, "velocity": 110}, {"time": 200160, "pitch": 59, "duration": 1920, "velocity": 110}, {"time": 200160, "pitch": 62, "duration": 1920, "velocity": 110}, {"time": 200160, "pitch": 67, "duration": 1920, "velocity": 110}, {"time": 202080, "pitch": 57, "duration": 1680, "velocity": 110}, {"time": 202080, "pitch": 61, "duration": 1680, "velocity": 110}, {"time": 202080, "pitch": 64, "duration": 1680, "velocity": 110}, {"time": 203760, "pitch": 59, "duration": 1190, "velocity": 110}, {"time": 203760, "pitch": 62, "duration": 1190, "velocity": 110}, {"time": 203760, "pitch": 66, "duration": 1190, "velocity": 110}, {"time": 204960, "pitch": 57, "duration": 960, "velocity": 110}, {"time": 204960, "pitch": 62, "duration": 960, "velocity": 110}, {"time": 204960, "pitch": 66, "duration": 960, "velocity": 110}, {"time": 205920, "pitch": 56, "duration": 1920, "velocity": 110}, {"time": 205920, "pitch": 59, "duration": 1920, "velocity": 110}, {"time": 205920, "pitch": 62, "duration": 1920, "velocity": 110}, {"time": 207840, "pitch": 59, "duration": 1920, "velocity": 110}, {"time": 207840, "pitch": 62, "duration": 1920, "velocity": 110}, {"time": 207840, "pitch": 67, "duration": 1920, "velocity": 110}, {"time": 209760, "pitch": 57, "duration": 1680, "velocity": 110}, {"time": 209760, "pitch": 61, "duration": 1680, "velocity": 110}, {"time": 209760, "pitch": 64, "duration": 1680, "velocity": 110}, {"time": 211440, "pitch": 57, "duration": 2160, "velocity": 110}, {"time": 211440, "pitch": 62, "duration": 2160, "velocity": 110}, {"time": 211440, "pitch": 66, "duration": 2160, "velocity": 110}], "annotations": [{"time": 148, "annotation": {"number": 7, "value": 55}, "group": "control_change"}, {"time": 172, "annotation": {"number": 11, "value": 120}, "group": "control_change"}, {"time": 197, "annotation": {"number": 10, "value": 64}, "group": "control_change"}, {"time": 222, "annotation": {"number": 91, "value": 40}, "group": "control_change"}, {"time": 246, "annotation": {"number": 93, "value": 0}, "group": "control_change"}, {"time": 271, "annotation": {"number": 94, "value": 0}, "group": "control_change"}, {"time": 295, "annotation": {"number": 101, "value": 0}, "group": "control_change"}, {"time": 320, "annotation": {"number": 100, "value": 0}, "group": "control_change"}, {"time": 345, "annotation": {"number": 6, "value": 12}, "group": "control_change"}, {"time": 369, "annotation": {"number": 101, "value": 127}, "group": "control_change"}, {"time": 394, "annotation": {"number": 100, "value": 127}, "group": "control_change"}]}, {"program": 0, "is_drum": false, "name": "BASS2", "annotations": [{"time": 123, "annotation": {"number": 0, "value": 0}, "group": "control_change"}, {"time": 123, "annotation": {"number": 32, "value": 2}, "group": "control_change"}]}, {"program": 35, "is_drum": false, "name": "BASS2", "notes": [{"time": 480, "pitch": 38, "duration": 248, "velocity": 74}, {"time": 720, "pitch": 45, "duration": 172, "velocity": 65}, {"time": 960, "pitch": 50, "duration": 1233, "velocity": 68}, {"time": 2160, "pitch": 57, "duration": 205, "velocity": 73}, {"time": 2400, "pitch": 62, "duration": 1669, "velocity": 95}, {"time": 4080, "pitch": 57, "duration": 273, "velocity": 85}, {"time": 4320, "pitch": 50, "duration": 1711, "velocity": 98}, {"time": 6000, "pitch": 57, "duration": 211, "velocity": 86}, {"time": 6240, "pitch": 50, "duration": 1876, "velocity": 68}, {"time": 8160, "pitch": 38, "duration": 237, "velocity": 83}, {"time": 8400, "pitch": 45, "duration": 243, "velocity": 67}, {"time": 8640, "pitch": 50, "duration": 157, "velocity": 63}, {"time": 8880, "pitch": 50, "duration": 997, "velocity": 74}, {"time": 9840, "pitch": 57, "duration": 232, "velocity": 90}, {"time": 10080, "pitch": 62, "duration": 1677, "velocity": 95}, {"time": 11760, "pitch": 57, "duration": 249, "velocity": 85}, {"time": 12000, "pitch": 50, "duration": 1651, "velocity": 100}, {"time": 13680, "pitch": 57, "duration": 235, "velocity": 67}, {"time": 13920, "pitch": 50, "duration": 1938, "velocity": 85}, {"time": 15840, "pitch": 52, "duration": 1678, "velocity": 104}, {"time": 17520, "pitch": 47, "duration": 208, "velocity": 74}, {"time": 17760, "pitch": 40, "duration": 1567, "velocity": 74}, {"time": 19440, "pitch": 40, "duration": 239, "velocity": 76}, {"time": 19680, "pitch": 45, "duration": 790, "velocity": 100}, {"time": 20400, "pitch": 52, "duration": 185, "velocity": 81}, {"time": 20640, "pitch": 57, "duration": 2219, "velocity": 77}, {"time": 23040, "pitch": 57, "duration": 402, "velocity": 108}, {"time": 215280, "pitch": 50, "duration": 1653, "velocity": 123}, {"time": 216960, "pitch": 38, "duration": 120, "velocity": 113}], "annotations": [{"time": 148, "annotation": {"number": 7, "value": 99}, "group": "control_change"}, {"time": 172, "annotation": {"number": 11, "value": 120}, "group": "control_change"}, {"time": 197, "annotation": {"number": 10, "value": 64}, "group": "control_change"}, {"time": 222, "annotation": {"number": 91, "value": 13}, "group": "control_change"}, {"time": 246, "annotation": {"number": 93, "value": 9}, "group": "control_change"}, {"time": 271, "annotation": {"number": 94, "value": 0}, "group": "control_change"}, {"time": 295, "annotation": {"number": 101, "value": 0}, "group": "control_change"}, {"time": 320, "annotation": {"number": 100, "value": 0}, "group": "control_change"}, {"time": 345, "annotation": {"number": 6, "value": 12}, "group": "control_change"}, {"time": 369, "annotation": {"number": 101, "value": 127}, "group": "control_change"}, {"time": 394, "annotation": {"number": 100, "value": 127}, "group": "control_change"}]}, {"program": 0, "is_drum": false, "name": "GLOCKEN", "annotations": [{"time": 123, "annotation": {"number": 0, "value": 0}, "group": "control_change"}, {"time": 123, "annotation": {"number": 32, "value": 2}, "group": "control_change"}]}, {"program": 98, "is_drum": false, "name": "GLOCKEN", "notes": [{"time": 480, "pitch": 81, "duration": 123, "velocity": 90}, {"time": 720, "pitch": 86, "duration": 109, "velocity": 77}, {"time": 960, "pitch": 93, "duration": 75, "velocity": 76}, {"time": 1200, "pitch": 93, "duration": 132, "velocity": 111}, {"time": 4560, "pitch": 81, "duration": 100, "velocity": 71}, {"time": 4800, "pitch": 86, "duration": 83, "velocity": 70}, {"time": 5040, "pitch": 93, "duration": 118, "velocity": 90}, {"time": 5520, "pitch": 93, "duration": 113, "velocity": 111}, {"time": 8160, "pitch": 81, "duration": 144, "velocity": 95}, {"time": 8400, "pitch": 86, "duration": 81, "velocity": 87}, {"time": 8640, "pitch": 93, "duration": 76, "velocity": 75}, {"time": 8880, "pitch": 93, "duration": 135, "velocity": 108}, {"time": 9480, "pitch": 93, "duration": 93, "velocity": 85}, {"time": 12240, "pitch": 81, "duration": 145, "velocity": 71}, {"time": 12480, "pitch": 86, "duration": 101, "velocity": 72}, {"time": 12720, "pitch": 93, "duration": 95, "velocity": 76}, {"time": 13200, "pitch": 93, "duration": 91, "velocity": 76}, {"time": 15840, "pitch": 91, "duration": 107, "velocity": 108}, {"time": 16080, "pitch": 90, "duration": 81, "velocity": 93}, {"time": 16320, "pitch": 88, "duration": 87, "velocity": 100}, {"time": 16560, "pitch": 86, "duration": 108, "velocity": 87}, {"time": 17040, "pitch": 83, "duration": 85, "velocity": 112}, {"time": 18480, "pitch": 79, "duration": 81, "velocity": 100}, {"time": 18960, "pitch": 74, "duration": 97, "velocity": 70}, {"time": 19200, "pitch": 79, "duration": 96, "velocity": 76}, {"time": 19440, "pitch": 83, "duration": 85, "velocity": 67}, {"time": 19680, "pitch": 86, "duration": 100, "velocity": 95}, {"time": 21600, "pitch": 93, "duration": 97, "velocity": 90}, {"time": 75600, "pitch": 83, "duration": 99, "velocity": 112}, {"time": 75840, "pitch": 86, "duration": 72, "velocity": 112}, {"time": 76080, "pitch": 83, "duration": 95, "velocity": 86}, {"time": 76320, "pitch": 90, "duration": 75, "velocity": 95}, {"time": 76560, "pitch": 91, "duration": 78, "velocity": 98}, {"time": 76800, "pitch": 90, "duration": 71, "velocity": 100}, {"time": 77040, "pitch": 86, "duration": 113, "velocity": 121}, {"time": 85440, "pitch": 81, "duration": 126, "velocity": 108}, {"time": 85920, "pitch": 86, "duration": 94, "velocity": 114}, {"time": 86400, "pitch": 95, "duration": 101, "velocity": 117}, {"time": 86880, "pitch": 93, "duration": 101, "velocity": 121}, {"time": 89760, "pitch": 91, "duration": 108, "velocity": 112}, {"time": 90000, "pitch": 90, "duration": 83, "velocity": 112}, {"time": 90480, "pitch": 86, "duration": 81, "velocity": 112}, {"time": 90720, "pitch": 86, "duration": 81, "velocity": 121}, {"time": 90960, "pitch": 83, "duration": 97, "velocity": 104}, {"time": 91200, "pitch": 86, "duration": 79, "velocity": 111}, {"time": 91440, "pitch": 83, "duration": 93, "velocity": 90}, {"time": 91680, "pitch": 86, "duration": 84, "velocity": 120}, {"time": 91920, "pitch": 88, "duration": 90, "velocity": 112}, {"time": 100320, "pitch": 79, "duration": 174, "velocity": 86}, {"time": 100560, "pitch": 86, "duration": 109, "velocity": 68}, {"time": 100800, "pitch": 91, "duration": 75, "velocity": 75}, {"time": 101040, "pitch": 91, "duration": 119, "velocity": 108}, {"time": 102240, "pitch": 81, "duration": 129, "velocity": 95}, {"time": 102480, "pitch": 88, "duration": 98, "velocity": 76}, {"time": 102720, "pitch": 93, "duration": 75, "velocity": 72}, {"time": 102960, "pitch": 93, "duration": 160, "velocity": 108}, {"time": 103920, "pitch": 86, "duration": 90, "velocity": 111}, {"time": 144720, "pitch": 83, "duration": 99, "velocity": 112}, {"time": 144960, "pitch": 86, "duration": 72, "velocity": 112}, {"time": 145200, "pitch": 83, "duration": 95, "velocity": 86}, {"time": 145440, "pitch": 90, "duration": 75, "velocity": 95}, {"time": 145680, "pitch": 91, "duration": 78, "velocity": 98}, {"time": 145920, "pitch": 90, "duration": 71, "velocity": 100}, {"time": 146160, "pitch": 86, "duration": 113, "velocity": 121}, {"time": 154560, "pitch": 81, "duration": 126, "velocity": 108}, {"time": 155040, "pitch": 86, "duration": 94, "velocity": 114}, {"time": 155520, "pitch": 95, "duration": 101, "velocity": 117}, {"time": 156000, "pitch": 93, "duration": 101, "velocity": 121}, {"time": 158880, "pitch": 91, "duration": 108, "velocity": 112}, {"time": 159120, "pitch": 90, "duration": 83, "velocity": 112}, {"time": 159600, "pitch": 86, "duration": 81, "velocity": 112}, {"time": 159840, "pitch": 86, "duration": 81, "velocity": 121}, {"time": 160080, "pitch": 83, "duration": 97, "velocity": 104}, {"time": 160320, "pitch": 86, "duration": 79, "velocity": 111}, {"time": 160560, "pitch": 83, "duration": 93, "velocity": 90}, {"time": 160800, "pitch": 86, "duration": 84, "velocity": 120}, {"time": 161040, "pitch": 88, "duration": 90, "velocity": 112}, {"time": 175440, "pitch": 83, "duration": 99, "velocity": 112}, {"time": 175680, "pitch": 86, "duration": 72, "velocity": 112}, {"time": 175920, "pitch": 83, "duration": 95, "velocity": 86}, {"time": 176160, "pitch": 90, "duration": 75, "velocity": 95}, {"time": 176400, "pitch": 91, "duration": 78, "velocity": 98}, {"time": 176640, "pitch": 90, "duration": 71, "velocity": 100}, {"time": 176880, "pitch": 86, "duration": 113, "velocity": 121}, {"time": 185280, "pitch": 81, "duration": 126, "velocity": 108}, {"time": 185760, "pitch": 86, "duration": 94, "velocity": 114}, {"time": 186240, "pitch": 95, "duration": 101, "velocity": 117}, {"time": 186720, "pitch": 93, "duration": 101, "velocity": 121}, {"time": 189600, "pitch": 91, "duration": 108, "velocity": 112}, {"time": 189840, "pitch": 90, "duration": 83, "velocity": 112}, {"time": 190320, "pitch": 86, "duration": 81, "velocity": 112}, {"time": 190560, "pitch": 86, "duration": 81, "velocity": 121}, {"time": 190800, "pitch": 83, "duration": 97, "velocity": 104}, {"time": 191040, "pitch": 86, "duration": 79, "velocity": 111}, {"time": 191280, "pitch": 83, "duration": 93, "velocity": 90}, {"time": 191520, "pitch": 86, "duration": 84, "velocity": 120}, {"time": 191760, "pitch": 88, "duration": 90, "velocity": 112}, {"time": 200160, "pitch": 79, "duration": 174, "velocity": 86}, {"time": 200400, "pitch": 86, "duration": 109, "velocity": 68}, {"time": 200640, "pitch": 91, "duration": 75, "velocity": 75}, {"time": 200880, "pitch": 91, "duration": 119, "velocity": 108}, {"time": 202080, "pitch": 81, "duration": 129, "velocity": 95}, {"time": 202320, "pitch": 88, "duration": 98, "velocity": 76}, {"time": 202560, "pitch": 93, "duration": 75, "velocity": 72}, {"time": 202800, "pitch": 93, "duration": 160, "velocity": 108}, {"time": 203760, "pitch": 86, "duration": 90, "velocity": 111}, {"time": 207840, "pitch": 79, "duration": 174, "velocity": 86}, {"time": 208080, "pitch": 86, "duration": 109, "velocity": 68}, {"time": 208320, "pitch": 91, "duration": 75, "velocity": 75}, {"time": 208560, "pitch": 91, "duration": 119, "velocity": 108}, {"time": 209760, "pitch": 81, "duration": 129, "velocity": 95}, {"time": 210000, "pitch": 88, "duration": 98, "velocity": 76}, {"time": 210240, "pitch": 93, "duration": 75, "velocity": 72}, {"time": 210480, "pitch": 93, "duration": 160, "velocity": 108}, {"time": 211440, "pitch": 86, "duration": 90, "velocity": 111}], "annotations": [{"time": 148, "annotation": {"number": 7, "value": 80}, "group": "control_change"}, {"time": 172, "annotation": {"number": 11, "value": 120}, "group": "control_change"}, {"time": 197, "annotation": {"number": 10, "value": 26}, "group": "control_change"}, {"time": 222, "annotation": {"number": 91, "value": 116}, "group": "control_change"}, {"time": 246, "annotation": {"number": 93, "value": 49}, "group": "control_change"}, {"time": 271, "annotation": {"number": 94, "value": 0}, "group": "control_change"}, {"time": 295, "annotation": {"number": 101, "value": 0}, "group": "control_change"}, {"time": 320, "annotation": {"number": 100, "value": 0}, "group": "control_change"}, {"time": 345, "annotation": {"number": 6, "value": 12}, "group": "control_change"}, {"time": 369, "annotation": {"number": 101, "value": 127}, "group": "control_change"}, {"time": 394, "annotation": {"number": 100, "value": 127}, "group": "control_change"}]}]}